<?xml version="1.0" encoding="UTF-8"?>
<svg xmlns="http://www.w3.org/2000/svg" xmlns:xlink="http://www.w3.org/1999/xlink" version="1.2" >
<font id="Baskerville URW Wide">
<font-face  font-family="Baskerville URW Wide" units-per-em="1000" ascent="677" descent="-323" font-style="normal" font-weight="400" font-stretch="normal" cap-height="667" x-height="403" underline-position="-88" underline-thickness="42" />
<missing-glyph  horiz-adv-x="250" d="" />
<glyph glyph-name="NULL" d="" />
<glyph glyph-name="CR" unicode="&#xd;" horiz-adv-x="250" d="" />
<glyph glyph-name="space" unicode="&#x20;" horiz-adv-x="250" d="" />
<glyph glyph-name="exclam" unicode="&#x21;" horiz-adv-x="231" d="M115 190 L145 539 C148 573 150 593 150 599 C150 635 131 661 104 661 C77 661 58 635 58 597 C58 582 58 580 63 539 L93 190 L115 190 Z M104 90 C73 90 48 66 48 38 C48 8 73 -16 103 -16 C134 -16 159 8 159 37 C159 66 134 90 104 90 L104 90 Z " />
<glyph glyph-name="quotedbl" unicode="&#x22;" horiz-adv-x="347" d="M113 399 L135 667 L55 667 L77 399 L113 399 Z M269 399 L291 667 L211 667 L233 399 L269 399 Z " />
<glyph glyph-name="numbersign" unicode="&#x23;" horiz-adv-x="621" d="M414 229 L534 229 L540 264 L423 264 L451 416 L571 416 L577 451 L460 451 L503 667 L464 667 L420 451 L258 451 L302 667 L262 667 L219 451 L93 451 L87 416 L210 416 L182 264 L56 264 L50 229 L173 229 L127 0 L166 0 L213 229 L375 229 L328 0 L368 0 L414 229 Z M384 264 L222 264 L250 416 L411 416 L384 264 Z " />
<glyph glyph-name="dollar" unicode="&#x24;" horiz-adv-x="529" d="M247 -103 L270 -103 L270 -15 C396 -3 474 70 474 175 C474 222 457 264 427 292 C393 324 372 335 292 366 C285 368 279 371 270 374 L270 638 C338 632 384 598 390 549 C397 516 397 515 404 507 C409 499 420 494 429 494 C446 494 459 509 459 526 C459 557 432 596 394 620 C357 643 321 654 270 657 L270 685 L246 685 L246 657 C134 651 61 587 61 495 C61 447 81 404 120 372 C141 354 168 341 246 308 L247 6 C177 8 134 36 121 88 C112 122 104 132 84 132 C68 132 54 117 54 99 C54 72 82 38 120 17 C159 -5 199 -15 247 -16 L247 -103 Z M270 298 L278 294 C349 265 356 262 371 252 C406 229 424 194 424 152 C424 112 407 75 377 50 C346 25 306 8 270 6 L270 298 Z M246 384 C195 405 189 407 171 417 C128 439 105 473 105 514 C105 586 157 631 246 637 L246 384 Z " />
<glyph glyph-name="percent" unicode="&#x25;" horiz-adv-x="697" d="M170 680 C134 680 103 669 81 648 C49 616 28 561 28 506 C28 400 80 336 166 336 C253 336 307 402 307 509 C307 614 254 680 170 680 L170 680 Z M168 660 C218 660 239 620 239 523 C239 401 218 350 168 350 C145 350 124 361 115 379 C101 405 96 439 96 514 C96 617 117 660 168 660 L168 660 Z M185 0 L544 644 L513 644 L153 0 L185 0 Z M532 331 C496 331 465 320 443 299 C411 268 390 214 390 160 C390 55 442 -10 528 -10 C615 -10 670 57 670 163 C670 266 617 331 532 331 L532 331 Z M530 314 C581 314 602 274 602 178 C602 57 581 8 531 8 C507 8 486 19 476 37 C463 62 458 95 458 169 C458 271 479 314 530 314 L530 314 Z " />
<glyph glyph-name="ampersand" unicode="&#x26;" horiz-adv-x="738" d="M451 403 L451 380 C503 375 531 352 531 317 C531 279 505 217 468 168 C390 273 379 288 294 397 C400 450 443 492 443 544 C443 604 378 653 299 653 C217 653 152 594 152 520 C152 480 174 429 213 376 C79 291 42 246 42 167 C42 65 129 -16 238 -16 C306 -16 369 15 431 80 C485 14 541 -16 609 -16 C671 -16 720 19 736 74 L712 74 C695 45 669 30 635 30 C584 30 552 55 483 146 C499 165 515 193 528 225 C569 323 606 363 672 380 L672 403 L451 403 Z M228 356 C275 298 309 251 416 100 C375 57 328 33 281 33 C198 33 112 117 112 199 C112 257 152 310 228 356 L228 356 Z M281 416 C234 483 221 511 221 548 C221 595 254 629 299 629 C345 629 379 593 379 543 C379 494 351 457 281 416 L281 416 Z " />
<glyph glyph-name="quotesingle" unicode="&#x27;" horiz-adv-x="200" d="M119 399 L141 667 L59 667 L81 399 L119 399 Z " />
<glyph glyph-name="parenleft" unicode="&#x28;" horiz-adv-x="253" d="M259 -240 C150 -134 82 44 82 223 C82 397 150 575 254 673 L218 673 C115 562 51 391 51 225 C51 54 111 -109 223 -240 L259 -240 Z " />
<glyph glyph-name="parenright" unicode="&#x29;" horiz-adv-x="253" d="M30 -240 C142 -109 202 54 202 225 C202 391 138 562 35 673 L-1 673 C104 573 171 397 171 224 C171 44 102 -136 -6 -240 L30 -240 Z " />
<glyph glyph-name="asterisk" unicode="&#x2a;" horiz-adv-x="441" d="M190 495 C160 523 159 524 151 532 C110 577 97 586 72 586 C50 586 31 569 31 549 C31 535 39 522 53 512 C68 501 76 498 112 492 C150 485 170 479 207 462 C192 452 155 442 113 436 C56 427 29 408 29 377 C29 355 46 340 72 340 C96 340 110 349 135 378 C168 417 186 432 213 450 C210 415 204 390 192 358 C178 321 178 320 178 307 C178 278 197 256 221 256 C245 256 264 278 264 307 C264 317 262 326 257 339 C238 384 233 402 229 441 L228 450 C247 437 270 416 297 387 C328 354 352 340 375 340 C398 340 415 355 415 375 C415 406 386 427 329 437 C279 445 261 450 236 462 C264 475 300 486 336 492 C395 503 416 518 416 550 C416 572 399 587 376 587 C352 587 332 574 297 536 C270 505 257 493 228 474 C232 517 238 542 252 577 C263 610 263 610 263 621 C263 649 244 671 218 671 C194 671 177 650 177 620 C177 608 179 599 187 577 C202 532 207 513 213 474 C211 476 208 478 208 479 L190 495 Z " />
<glyph glyph-name="plus" unicode="&#x2b;" horiz-adv-x="525" d="M24 362 L24 320 L240 320 L240 127 L284 127 L284 320 L501 320 L501 362 L284 362 L284 554 L240 554 L240 362 L24 362 Z " />
<glyph glyph-name="comma" unicode="&#x2c;" horiz-adv-x="264" d="M57 -192 C147 -169 205 -101 205 -17 C205 43 169 90 123 90 C91 90 69 68 69 38 C69 10 91 -10 123 -10 C127 -10 132 -10 134 -9 C148 -4 148 -4 153 -4 C165 -4 174 -17 174 -36 C174 -94 126 -147 57 -167 L57 -192 Z " />
<glyph glyph-name="hyphen" unicode="&#x2d;" horiz-adv-x="330" d="M37 233 L37 186 L290 186 L290 233 L37 233 Z " />
<glyph glyph-name="period" unicode="&#x2e;" horiz-adv-x="264" d="M132 90 C101 90 76 66 76 38 C76 8 101 -16 131 -16 C162 -16 187 8 187 37 C187 66 162 90 132 90 L132 90 Z " />
<glyph glyph-name="slash" unicode="&#x2f;" horiz-adv-x="275" d="M22 -225 L223 656 L191 656 L-12 -225 L22 -225 Z " />
<glyph glyph-name="zero" unicode="0" horiz-adv-x="529" d="M267 661 C134 661 45 527 45 327 C45 225 60 156 97 91 C137 21 195 -16 267 -16 C401 -16 488 118 488 322 C488 419 472 491 436 554 C395 625 338 661 267 661 L267 661 Z M267 637 C318 637 357 611 379 563 C397 522 406 441 406 315 C406 220 400 153 387 104 C370 44 325 8 267 8 C221 8 183 29 162 68 C139 109 127 192 127 315 C127 427 132 489 146 541 C163 601 207 637 267 637 L267 637 Z " />
<glyph glyph-name="one" unicode="1" horiz-adv-x="529" d="M282 661 C260 641 204 627 151 627 L151 604 L174 604 C238 600 239 599 238 489 L238 138 C238 28 237 26 174 23 L156 23 L156 0 L388 0 L388 23 L368 23 C304 26 303 29 304 138 L304 661 L282 661 Z " />
<glyph glyph-name="two" unicode="2" horiz-adv-x="529" d="M60 0 L364 0 C401 0 407 -2 407 -18 C407 -25 406 -34 404 -43 L402 -51 L427 -51 L456 59 L128 59 C177 99 254 170 319 235 C437 353 464 398 464 478 C464 586 381 661 263 661 C154 661 66 589 66 499 C66 449 97 391 125 391 C141 391 172 417 172 431 C172 435 167 440 156 446 C129 461 112 490 112 521 C112 586 167 635 239 635 C329 635 382 574 382 473 C382 405 355 340 296 265 C233 187 128 82 60 30 L60 0 Z " />
<glyph glyph-name="three" unicode="3" horiz-adv-x="529" d="M272 358 C280 364 280 364 346 406 C411 448 444 494 444 542 C444 610 372 661 276 661 C220 661 168 644 137 616 C107 589 89 552 89 518 C89 482 111 444 132 444 C148 444 175 457 175 465 C175 467 173 469 171 472 C143 496 137 509 137 537 C137 593 191 638 259 638 C323 638 362 598 362 532 C362 459 338 427 225 355 C174 322 171 319 171 309 C171 300 178 293 187 293 C192 293 196 295 202 300 C237 333 253 341 281 341 C344 341 385 283 385 194 C385 132 369 78 344 50 C318 22 279 6 238 6 C189 6 159 27 145 69 C134 103 126 111 104 111 C85 111 70 96 70 78 C70 29 151 -16 239 -16 C372 -16 467 69 467 190 C467 292 401 362 305 362 C292 362 286 361 272 358 L272 358 Z " />
<glyph glyph-name="four" unicode="4" horiz-adv-x="529" d="M290 221 L290 138 C291 29 289 26 226 23 L207 23 L207 0 L433 0 L433 23 L424 23 C360 26 358 29 360 138 L360 221 L495 221 L507 298 L484 298 L479 287 C470 264 465 257 458 255 C446 251 445 251 408 251 L360 251 L360 661 L329 661 L34 251 L34 221 L290 221 Z M290 251 L63 251 L290 564 L290 251 Z " />
<glyph glyph-name="five" unicode="5" horiz-adv-x="529" d="M139 338 C165 384 206 410 252 410 C294 410 333 387 354 349 C371 318 379 277 379 221 C379 142 364 88 331 53 C301 21 265 5 221 5 C171 5 144 23 128 66 C113 105 103 116 81 116 C62 116 47 102 47 85 C47 61 72 30 106 10 C138 -8 172 -16 214 -16 C285 -16 347 5 387 42 C433 85 461 152 461 222 C461 345 377 439 267 439 C216 439 177 420 139 375 L147 579 L328 579 C362 577 365 580 392 635 L395 644 L127 644 L112 338 L139 338 Z " />
<glyph glyph-name="six" unicode="6" horiz-adv-x="529" d="M140 334 C140 385 145 461 150 486 C172 585 223 636 303 636 C345 636 368 623 386 590 C401 563 410 557 430 557 C447 557 459 568 459 584 C459 625 392 661 317 661 C238 661 166 622 122 554 C76 484 51 390 51 291 C51 104 140 -16 278 -16 C396 -16 487 77 487 196 C487 311 396 407 286 407 C230 407 183 383 140 334 L140 334 Z M271 381 C318 381 362 356 384 318 C399 292 405 260 405 208 C405 143 397 99 378 66 C358 30 317 7 273 7 C189 7 138 85 138 214 C138 317 189 381 271 381 L271 381 Z " />
<glyph glyph-name="seven" unicode="7" horiz-adv-x="529" d="M80 525 L103 525 C121 575 127 579 170 579 L193 579 L413 579 L205 119 L198 105 L177 60 C168 42 163 24 163 12 C163 -3 177 -16 194 -16 C223 -16 239 8 273 106 L458 644 L190 644 C148 645 144 646 142 660 L123 660 L80 525 Z " />
<glyph glyph-name="eight" unicode="8" horiz-adv-x="529" d="M308 336 C405 357 459 416 459 497 C459 591 375 661 261 661 C150 661 69 592 69 498 C69 420 125 358 213 336 C109 316 46 251 46 162 C46 60 138 -16 263 -16 C392 -16 481 57 481 164 C481 256 411 325 308 336 L308 336 Z M261 640 C305 640 341 620 362 585 C375 563 380 537 380 493 C380 397 339 347 259 347 C183 347 146 398 146 504 C146 591 188 640 261 640 L261 640 Z M261 323 C298 323 336 310 359 290 C385 268 399 223 399 162 C399 111 386 65 367 45 C345 21 305 6 263 6 C214 6 174 24 152 56 C135 82 128 110 128 160 C128 269 172 323 261 323 L261 323 Z " />
<glyph glyph-name="nine" unicode="9" horiz-adv-x="529" d="M392 311 C392 254 387 188 381 159 C360 59 309 9 228 9 C188 9 163 23 146 55 C132 80 122 88 103 88 C85 88 73 77 73 61 C73 21 141 -16 215 -16 C294 -16 365 23 410 91 C456 161 481 254 481 353 C481 541 392 661 254 661 C136 661 45 568 45 449 C45 334 137 238 246 238 C302 238 351 262 392 311 L392 311 Z M259 638 C343 638 394 560 394 431 C394 380 379 331 356 306 C332 279 297 264 261 264 C214 264 171 288 148 327 C133 353 127 385 127 437 C127 503 135 546 154 579 C174 615 214 638 259 638 L259 638 Z " />
<glyph glyph-name="colon" unicode="&#x3a;" horiz-adv-x="264" d="M134 90 C103 90 78 66 78 38 C78 8 103 -16 133 -16 C164 -16 189 8 189 37 C189 66 164 90 134 90 L134 90 Z M133 431 C103 431 78 407 78 379 C78 349 102 325 134 325 C164 325 189 349 189 378 C189 407 164 431 133 431 L133 431 Z " />
<glyph glyph-name="semicolon" unicode="&#x3b;" horiz-adv-x="264" d="M57 -192 C147 -169 205 -101 205 -17 C205 43 169 90 123 90 C91 90 69 68 69 38 C69 10 91 -10 123 -10 C127 -10 132 -10 134 -9 C148 -4 148 -4 153 -4 C165 -4 174 -17 174 -36 C174 -94 126 -147 57 -167 L57 -192 Z M132 431 C101 431 76 407 76 379 C76 349 100 325 131 325 C162 325 187 348 187 378 C187 407 162 431 132 431 L132 431 Z " />
<glyph glyph-name="less" unicode="&#x3c;" horiz-adv-x="525" d="M480 612 L45 346 L45 340 L480 63 L480 162 L151 371 L480 575 L480 612 Z " />
<glyph glyph-name="equal" unicode="&#x3d;" horiz-adv-x="525" d="M24 432 L24 391 L501 391 L501 432 L24 432 Z M24 291 L24 250 L501 250 L501 291 L24 291 Z " />
<glyph glyph-name="greater" unicode="&#x3e;" horiz-adv-x="525" d="M45 63 L480 330 L480 336 L45 612 L45 514 L374 305 L45 101 L45 63 Z " />
<glyph glyph-name="question" unicode="&#x3f;" horiz-adv-x="419" d="M138 90 C108 90 83 66 83 38 C83 8 108 -16 139 -16 C169 -16 194 8 194 37 C194 67 169 90 138 90 L138 90 Z M149 187 L149 354 C170 336 195 327 225 327 C305 327 365 391 365 479 C365 524 349 569 319 605 C287 642 242 661 183 661 C112 661 49 628 49 590 C49 576 60 566 74 566 C89 566 99 573 108 591 C126 626 146 639 182 639 C219 639 254 619 272 587 C284 566 289 539 289 500 C289 409 259 356 207 356 C182 356 165 367 149 393 L127 393 L127 187 L149 187 Z " />
<glyph glyph-name="at" unicode="&#x40;" horiz-adv-x="812" d="M626 106 C587 79 571 69 553 59 C503 31 448 17 394 17 C316 17 244 45 189 95 C131 150 94 228 94 299 C94 371 131 472 181 532 C241 607 347 653 458 653 C618 653 728 556 728 416 C728 349 704 281 663 231 C629 191 593 169 561 169 C538 169 523 186 523 214 C523 229 526 244 536 286 L595 520 C575 515 565 514 543 513 L535 469 C511 507 482 524 445 524 C385 524 324 478 280 401 C254 355 241 309 241 262 C241 186 278 136 335 136 C387 136 433 168 480 238 L480 222 C480 172 508 138 548 138 C657 138 761 275 761 419 C761 578 638 684 455 684 C345 684 248 649 175 583 C98 512 51 411 51 314 C51 131 199 -15 385 -15 C447 -15 514 3 565 33 C593 49 612 63 653 95 L626 106 Z M503 368 C486 305 474 277 453 242 C421 191 386 165 350 165 C315 165 290 195 290 238 C290 313 328 408 381 464 C401 485 429 498 456 498 C491 498 517 469 517 429 C517 422 517 421 516 418 L503 368 Z " />
<glyph glyph-name="A" unicode="A" horiz-adv-x="694" d="M442 245 L496 122 L502 108 C513 85 519 66 519 55 C519 33 495 23 442 23 L433 23 L433 0 L708 0 L708 23 L702 23 C646 32 638 41 592 146 L358 677 L338 677 L135 213 C113 163 112 161 105 145 C89 107 85 98 79 88 C58 49 34 31 -5 24 L-14 23 L-14 0 L194 0 L194 23 L185 23 C147 23 117 48 117 80 C117 109 120 117 158 203 L176 245 L442 245 Z M433 268 L186 268 L309 552 L433 268 Z " />
<glyph glyph-name="B" unicode="B" horiz-adv-x="659" d="M40 667 L40 644 L54 644 C146 646 152 638 151 498 L151 173 C152 35 147 26 59 23 L32 23 L32 0 L305 0 C409 0 457 6 500 23 C567 50 610 112 610 181 C610 285 527 348 374 359 C505 378 573 431 573 515 C573 620 477 674 290 674 C261 674 261 674 158 670 L40 667 Z M247 344 C265 345 274 345 289 345 C444 345 504 300 504 182 C504 77 446 23 332 23 C292 23 268 32 259 50 C249 70 247 93 247 196 L247 344 Z M247 368 L247 648 C263 650 274 650 291 650 C424 650 469 614 469 507 C469 406 415 368 271 368 L247 368 Z " />
<glyph glyph-name="C" unicode="C" horiz-adv-x="761" d="M663 250 C656 198 636 147 606 104 C567 50 492 16 413 16 C325 16 249 60 205 135 C177 185 162 251 162 329 C162 430 192 530 237 582 C279 628 339 654 408 654 C487 654 566 617 606 562 C634 524 652 477 663 414 L685 414 L679 667 L656 667 C653 636 645 609 629 581 C577 641 485 679 393 679 C190 679 49 533 49 324 C49 125 188 -12 390 -12 C489 -12 567 20 629 87 C647 66 657 45 663 17 L685 17 L685 250 L663 250 Z " />
<glyph glyph-name="D" unicode="D" horiz-adv-x="809" d="M35 639 L56 639 C148 640 154 632 153 495 L153 173 C154 35 149 26 62 23 L32 23 L32 0 L341 0 C466 0 495 3 556 24 C688 68 760 175 760 327 C760 459 704 563 602 621 C538 657 457 674 349 674 C312 674 243 672 180 669 C123 666 85 664 35 662 L35 639 Z M249 648 C281 649 306 650 337 650 C444 650 505 631 559 582 C620 526 653 434 653 319 C653 170 593 69 484 36 C454 27 414 23 352 23 C296 23 270 31 261 51 C249 76 249 76 249 202 L249 648 Z " />
<glyph glyph-name="E" unicode="E" horiz-adv-x="657" d="M603 207 C563 70 509 22 392 23 L339 23 C240 22 235 30 235 183 L235 340 L313 340 C400 342 415 328 417 244 L417 235 L442 235 L442 464 L417 464 L417 456 C417 377 402 364 310 364 L235 364 L235 644 L334 644 C473 648 509 623 539 500 L563 500 L547 667 L46 667 L46 644 L55 644 C135 642 140 634 139 500 L139 173 C140 35 135 26 46 23 L32 23 L32 0 L612 0 L627 207 L603 207 Z " />
<glyph glyph-name="F" unicode="F" horiz-adv-x="588" d="M575 667 L35 667 L35 644 L47 644 C140 645 145 637 144 501 L144 174 C145 35 140 26 53 23 L31 23 L31 0 L356 0 L356 23 L331 23 C244 26 239 35 240 174 L240 340 L307 340 C388 343 410 322 414 239 L414 229 L439 229 L439 464 L414 464 L414 458 C410 378 392 363 307 362 L240 362 L240 644 L379 644 C453 645 471 641 500 619 C530 592 551 549 556 501 L581 501 L575 667 Z " />
<glyph glyph-name="G" unicode="G" horiz-adv-x="809" d="M483 285 L483 261 L499 261 C571 264 585 250 587 178 L587 152 C587 115 576 86 555 64 C524 32 468 12 411 12 C324 12 246 54 205 123 C177 172 161 248 161 339 C161 427 175 496 203 545 C242 612 323 656 411 656 C540 656 636 569 656 432 L681 432 L681 655 L656 655 C652 625 646 604 635 581 C572 648 497 680 402 680 C305 680 217 646 156 586 C90 520 49 419 49 322 C49 129 197 -12 399 -12 C455 -12 496 -4 561 19 C602 34 641 43 667 43 C672 43 677 42 688 41 L688 112 C687 250 692 258 777 261 L785 261 L785 285 L483 285 Z " />
<glyph glyph-name="H" unicode="H" horiz-adv-x="842" d="M608 334 L608 173 C609 35 603 26 517 23 L493 23 L493 0 L811 0 L811 23 L795 23 C708 26 703 35 704 173 L704 500 C703 638 708 645 800 644 L811 644 L811 667 L493 667 L493 644 L512 644 C603 645 608 638 608 500 L608 368 L238 368 L238 500 C237 638 242 645 334 644 L347 644 L347 667 L32 667 L32 644 L45 644 C137 646 142 638 142 500 L142 173 C143 35 137 26 51 23 L32 23 L32 0 L347 0 L347 23 L328 23 C242 26 237 35 238 173 L238 334 L608 334 Z " />
<glyph glyph-name="I" unicode="I" horiz-adv-x="383" d="M32 644 L47 644 C139 646 145 638 144 501 L144 173 C145 35 140 26 53 23 L32 23 L32 0 L352 0 L352 23 L331 23 C244 26 239 35 240 173 L240 501 C239 638 244 646 336 644 L352 644 L352 667 L32 667 L32 644 Z " />
<glyph glyph-name="J" unicode="J" horiz-adv-x="387" d="M37 667 L37 644 L55 644 C147 646 152 638 151 501 L151 65 C151 -51 149 -74 139 -107 C117 -175 61 -215 -13 -215 C-53 -215 -81 -201 -81 -182 C-81 -176 -80 -173 -73 -164 C-66 -155 -63 -146 -63 -138 C-63 -111 -87 -89 -117 -89 C-147 -89 -170 -112 -170 -143 C-170 -199 -104 -238 -7 -238 C136 -238 228 -168 245 -45 C249 -18 249 -10 249 65 L249 501 C248 638 253 646 345 644 L363 644 L363 667 L37 667 Z " />
<glyph glyph-name="K" unicode="K" horiz-adv-x="785" d="M240 327 L240 501 C239 638 244 646 337 644 L350 644 L350 667 L40 667 L40 644 L47 644 C139 646 145 638 144 501 L144 173 C145 35 140 26 53 23 L31 23 L31 0 L345 0 L345 23 L331 23 C244 26 239 35 240 173 L240 295 L291 337 L490 147 C544 96 565 70 565 55 C565 31 541 23 477 23 L463 23 L463 0 L827 0 L827 23 L819 23 C749 30 747 32 627 146 L365 399 L492 511 C607 616 645 639 714 644 L720 644 L720 667 L456 667 L456 644 L461 644 C505 643 530 628 530 603 C530 582 510 557 456 511 L240 327 Z " />
<glyph glyph-name="L" unicode="L" horiz-adv-x="645" d="M631 197 L607 197 C566 57 520 18 401 23 L347 23 C243 26 238 31 240 152 L240 501 C239 638 244 646 336 644 L368 644 L368 667 L32 667 L32 644 L47 644 C139 646 145 638 144 501 L144 174 C145 35 140 26 53 23 L32 23 L32 0 L626 0 L631 197 Z " />
<glyph glyph-name="M" unicode="M" horiz-adv-x="992" d="M491 115 L234 667 L21 667 L21 644 L40 644 C131 646 136 638 135 501 L135 211 C139 71 119 36 28 23 L21 23 L21 0 L271 0 L271 23 L266 23 C173 37 154 69 158 208 L158 598 L438 0 L463 0 L742 598 L742 173 C743 35 738 26 651 23 L626 23 L626 0 L961 0 L961 23 L929 23 C842 26 837 35 838 173 L838 501 C837 638 842 646 934 644 L961 644 L961 667 L748 667 L491 115 Z " />
<glyph glyph-name="N" unicode="N" horiz-adv-x="803" d="M654 -15 L675 -15 L675 537 C671 610 694 633 776 644 L785 644 L785 667 L531 667 L531 644 L545 644 C630 638 652 617 651 544 L651 145 L236 667 L30 667 L30 644 L35 644 C125 646 133 635 134 501 L134 147 C134 85 133 77 126 65 C117 45 77 27 33 23 L21 23 L21 0 L282 0 L282 23 L274 23 C213 25 176 42 164 72 C160 83 159 86 158 147 L158 610 L654 -15 Z " />
<glyph glyph-name="O" unicode="O" horiz-adv-x="860" d="M429 679 C327 679 220 642 155 585 C88 525 49 437 49 342 C49 248 78 167 133 105 C198 33 310 -12 425 -12 C658 -12 811 125 811 335 C811 539 656 679 429 679 L429 679 Z M429 654 C526 654 610 611 652 539 C682 487 698 414 698 332 C698 252 683 183 653 128 C636 96 606 67 567 45 C530 23 488 13 437 13 C358 13 297 33 248 74 C193 121 162 217 162 345 C162 438 191 532 235 579 C281 628 348 654 429 654 L429 654 Z " />
<glyph glyph-name="P" unicode="P" horiz-adv-x="605" d="M238 314 L316 314 C399 314 446 320 482 334 C545 360 584 421 584 494 C584 558 556 606 500 637 C453 663 394 674 293 674 C266 674 185 672 122 670 L32 667 L32 644 L45 644 C138 646 143 638 142 501 L142 173 C143 35 138 26 51 23 L32 23 L32 0 L352 0 L352 23 L329 23 C242 26 237 35 238 173 L238 314 Z M238 338 L238 648 C255 649 267 650 289 650 C353 650 384 644 415 627 C455 604 480 553 480 492 C480 431 456 383 413 360 C380 342 356 338 289 338 L238 338 Z " />
<glyph glyph-name="Q" unicode="Q" horiz-adv-x="857" d="M388 -62 C379 -66 361 -75 332 -90 C304 -104 288 -112 284 -113 C264 -123 256 -131 256 -141 C256 -152 263 -158 273 -158 C285 -158 296 -152 317 -133 C348 -107 376 -96 412 -96 C473 -96 529 -116 620 -171 C718 -230 759 -245 829 -245 C933 -245 1004 -188 1018 -93 L996 -93 C985 -136 949 -159 892 -159 C847 -159 787 -149 734 -131 L674 -112 C596 -86 515 -73 439 -73 C432 -73 425 -73 412 -74 L567 7 C723 56 811 174 811 335 C811 423 782 502 728 561 C661 634 548 679 429 679 C204 679 49 539 49 336 C49 129 204 -12 432 -12 C451 -12 464 -11 483 -10 L388 -62 Z M429 654 C526 654 610 611 652 539 C682 487 698 414 698 332 C698 252 683 183 653 128 C636 96 606 67 567 45 C530 23 488 13 437 13 C358 13 297 33 248 74 C193 121 162 217 162 345 C162 438 191 532 235 579 C281 628 348 654 429 654 L429 654 Z " />
<glyph glyph-name="R" unicode="R" horiz-adv-x="731" d="M773 0 L773 23 L768 23 C698 23 645 59 559 167 C489 260 427 326 400 335 C524 350 599 413 599 504 C599 560 570 605 515 636 C465 664 399 677 304 677 C274 677 202 675 139 672 L37 667 L37 644 L50 644 C142 646 147 638 146 501 L146 174 C147 35 142 26 55 23 L32 23 L32 0 L367 0 L367 23 L333 23 C246 26 241 35 242 174 L242 322 L271 322 C310 325 333 304 431 175 C497 86 554 21 585 0 L773 0 Z M242 345 L242 650 C262 651 274 652 291 652 C356 652 399 644 430 627 C469 606 491 558 491 496 C491 455 479 417 459 393 C434 364 377 346 303 346 L254 345 L242 345 Z " />
<glyph glyph-name="S" unicode="S" horiz-adv-x="573" d="M61 7 L87 7 C92 35 100 55 112 72 C163 16 228 -12 305 -12 C436 -12 524 66 524 181 C524 231 506 277 473 309 C444 338 398 363 300 403 C176 453 131 493 131 553 C131 614 180 656 252 656 C343 656 413 595 440 492 L463 492 L463 667 L440 667 C438 644 430 627 414 608 C364 659 318 679 253 679 C144 679 66 609 66 513 C66 467 86 420 119 387 C145 362 191 336 261 308 C353 271 370 262 397 243 C433 216 453 181 453 142 C453 67 387 12 298 12 C187 12 115 84 87 221 L61 221 L61 7 Z " />
<glyph glyph-name="T" unicode="T" horiz-adv-x="722" d="M41 506 C67 628 91 648 207 644 L313 644 L313 174 C314 35 309 26 222 23 L185 23 L185 0 L534 0 L534 23 L500 23 C413 26 408 35 409 174 L409 644 L524 644 C631 648 656 626 682 506 L704 506 L700 667 L21 667 L18 506 L41 506 Z " />
<glyph glyph-name="U" unicode="U" horiz-adv-x="813" d="M558 667 L558 644 L564 644 C650 636 667 613 665 513 L665 286 C665 191 663 173 650 139 C622 69 535 22 431 22 C350 22 284 52 255 102 C233 139 230 164 230 291 L230 501 C229 638 234 646 326 644 L340 644 L340 667 L21 667 L21 644 L37 644 C129 646 135 638 134 501 L134 293 L134 202 C137 154 144 126 160 99 C202 29 292 -12 407 -12 C512 -12 595 19 643 77 C682 123 689 155 689 282 L689 504 C685 605 703 632 782 644 L792 644 L792 667 L558 667 Z " />
<glyph glyph-name="V" unicode="V" horiz-adv-x="736" d="M395 -16 L603 455 L626 506 C670 612 691 636 743 644 L750 644 L750 667 L536 667 L536 644 L546 644 C593 643 620 622 620 587 C620 565 609 531 580 465 L418 97 L217 540 C197 583 193 594 193 607 C193 635 216 644 281 644 L287 644 L287 667 L-14 667 L-14 644 L-4 644 C55 641 73 626 100 564 C109 542 117 524 121 515 L363 -16 L395 -16 Z " />
<glyph glyph-name="W" unicode="W" horiz-adv-x="985" d="M722 -16 L877 486 C917 617 932 638 987 644 L992 644 L992 667 L800 667 L800 644 L805 644 C849 644 874 621 874 582 C874 557 873 553 852 486 L745 132 L540 667 L511 667 L328 132 L203 520 C200 530 195 543 190 559 C184 576 181 594 181 605 C181 630 199 640 249 644 L256 644 L256 667 L-7 667 L-7 644 L1 644 C56 642 70 623 106 503 L275 -16 L299 -16 L486 534 L699 -16 L722 -16 Z " />
<glyph glyph-name="X" unicode="X" horiz-adv-x="815" d="M439 370 L549 503 C636 608 689 645 752 645 L756 645 L763 645 L763 667 L500 667 L500 645 L509 645 C564 645 591 633 591 608 C591 595 583 580 562 556 C556 549 546 537 538 527 L421 388 L293 537 C246 590 242 596 242 614 C242 636 259 645 300 645 L311 645 L311 667 L12 667 L12 645 L18 645 C67 642 89 628 142 564 C150 555 161 542 174 527 L359 315 L242 181 C149 65 102 31 19 23 L12 23 L12 0 L283 0 L283 23 L278 23 C228 24 202 41 202 73 C202 94 202 94 265 171 L375 298 L500 151 C551 92 559 80 559 62 C559 34 533 23 471 23 L465 23 L465 0 L812 0 L812 23 L804 23 C741 26 730 34 620 160 L439 370 Z " />
<glyph glyph-name="Y" unicode="Y" horiz-adv-x="688" d="M382 292 L217 555 C195 590 191 599 191 611 C191 633 215 644 264 644 L270 644 L270 667 L-14 667 L-14 644 L-6 644 C38 643 53 631 91 573 C95 566 107 549 120 529 L297 256 L297 173 C298 35 292 26 205 23 L194 23 L194 0 L493 0 L493 23 L483 23 C396 26 390 35 392 173 L392 262 L551 511 C609 607 636 631 694 643 L702 644 L702 667 L473 667 L473 644 L478 644 C525 644 556 623 556 589 C556 570 549 556 522 512 L382 292 Z " />
<glyph glyph-name="Z" unicode="Z" horiz-adv-x="665" d="M32 0 L598 0 L621 173 L598 173 C580 120 553 73 525 50 C498 29 463 23 369 23 L156 23 L603 644 L603 667 L83 667 L60 513 L83 513 C94 557 118 597 146 622 C174 643 176 644 266 644 L484 644 L32 18 L32 0 Z " />
<glyph glyph-name="bracketleft" unicode="&#x5b;" horiz-adv-x="363" d="M384 -235 L384 -212 L262 -212 C205 -210 200 -202 201 -117 L201 549 C200 634 205 643 262 644 L384 644 L384 667 L138 667 L138 -235 L384 -235 Z " />
<glyph glyph-name="backslash" unicode="&#x5c;" horiz-adv-x="525" d="M446 -97 L121 723 L79 723 L404 -97 L446 -97 Z " />
<glyph glyph-name="bracketright" unicode="&#x5d;" horiz-adv-x="363" d="M-21 -235 L225 -235 L225 667 L-21 667 L-21 644 L101 644 C158 643 163 634 162 549 L162 -117 C163 -202 157 -211 101 -212 L-21 -212 L-21 -235 Z " />
<glyph glyph-name="asciicircum" unicode="&#x5e;" horiz-adv-x="525" d="M550 286 L271 700 L264 700 L-26 286 L77 286 L297 599 L511 286 L550 286 Z " />
<glyph glyph-name="underscore" unicode="&#x5f;" horiz-adv-x="502" d="M24 -88 L24 -130 L478 -130 L478 -88 L24 -88 Z " />
<glyph glyph-name="grave" unicode="&#x60;" horiz-adv-x="514" d="M306 493 L197 661 L95 661 L290 493 L306 493 Z " />
<glyph glyph-name="a" unicode="a" horiz-adv-x="496" d="M466 74 C461 43 446 26 424 26 C413 26 403 32 398 41 C391 56 391 57 391 115 L391 278 C391 338 385 357 358 381 C329 407 289 419 230 419 C180 419 141 410 108 391 C78 374 58 348 58 326 C58 310 71 298 90 298 C112 298 127 314 132 343 C135 363 136 364 142 372 C154 388 182 398 217 398 C260 398 292 384 307 358 C315 344 317 331 317 289 L317 269 L237 238 C154 205 82 163 62 134 C49 115 42 96 42 76 C42 27 86 -10 146 -10 C192 -10 244 11 317 60 C326 12 352 -10 399 -10 C451 -10 483 22 486 74 L466 74 Z M317 246 L317 87 C263 46 219 26 186 26 C150 26 124 54 124 94 C124 147 168 188 260 224 L317 246 Z " />
<glyph glyph-name="b" unicode="b" horiz-adv-x="552" d="M103 -16 C112 4 140 44 155 58 C188 7 234 -16 298 -16 C423 -16 513 76 513 204 C513 328 426 419 306 419 C252 419 207 401 155 358 L155 677 L145 677 C125 667 52 655 14 656 L14 633 L21 633 C79 631 86 618 84 523 L84 -16 L103 -16 Z M155 329 C201 373 245 393 294 393 C380 393 431 325 431 210 C431 83 376 7 284 7 C228 7 180 39 163 87 C156 106 156 106 155 171 L155 329 Z " />
<glyph glyph-name="c" unicode="c" horiz-adv-x="452" d="M404 98 C387 42 340 10 274 10 C234 10 199 22 175 44 C142 74 120 141 120 215 C120 272 136 330 159 358 C180 382 218 396 263 396 C306 396 324 384 332 351 C339 318 349 307 375 307 C395 307 409 321 409 341 C409 382 341 419 265 419 C135 419 38 324 38 197 C38 73 128 -16 253 -16 C343 -16 404 24 427 98 L404 98 Z " />
<glyph glyph-name="d" unicode="d" horiz-adv-x="551" d="M399 360 C356 398 300 419 245 419 C127 419 38 325 38 200 C38 79 128 -16 241 -16 C298 -16 351 8 404 57 C403 51 403 44 403 43 C403 17 404 7 409 -16 C426 -12 504 -4 542 -3 L542 19 L534 19 C471 22 469 26 470 135 L470 677 L460 677 C409 663 367 657 324 656 L324 633 L335 633 C399 629 400 628 399 518 L399 360 Z M399 84 C362 38 313 13 261 13 C173 13 120 85 120 203 C120 322 170 388 260 388 C306 388 350 370 399 331 L399 84 Z " />
<glyph glyph-name="e" unicode="e" horiz-adv-x="460" d="M422 266 C417 354 343 419 246 419 C127 419 39 325 39 198 C39 75 129 -16 250 -16 C331 -16 400 26 422 90 L397 90 C370 37 324 10 262 10 C228 10 197 21 172 43 C139 72 121 133 121 213 C121 232 122 244 125 266 L422 266 Z M332 286 L127 286 C135 323 141 339 155 357 C173 382 206 398 240 398 C274 398 306 381 318 356 C325 341 332 311 332 295 L332 286 Z " />
<glyph glyph-name="f" unicode="f" horiz-adv-x="288" d="M259 403 L169 403 L169 434 C169 548 169 552 174 574 C184 625 217 655 260 655 C289 655 308 642 327 611 C345 581 358 571 377 571 C396 571 412 585 412 603 C412 642 350 677 281 677 C204 677 148 642 116 575 C101 544 98 517 98 439 L98 403 L17 403 L17 380 L98 380 L98 138 C99 29 97 26 34 23 L26 23 L26 0 L255 0 L255 23 L233 23 C169 26 168 29 169 138 L169 380 L259 380 L259 403 Z " />
<glyph glyph-name="g" unicode="g" horiz-adv-x="496" d="M363 368 C330 400 279 419 227 419 C129 419 53 354 53 271 C53 215 87 166 151 129 C90 119 57 90 57 48 C57 34 62 21 72 8 C92 -16 152 -31 235 -32 C359 -35 408 -61 408 -124 C408 -189 346 -228 244 -228 C140 -228 74 -189 74 -128 C74 -103 85 -81 109 -57 C102 -55 100 -55 94 -55 C55 -55 30 -81 30 -122 C30 -197 115 -248 243 -248 C376 -248 458 -193 458 -103 C458 -59 436 -20 400 3 C366 24 302 35 208 37 C131 39 97 50 97 73 C97 100 132 113 207 116 C257 117 282 122 313 135 C368 160 402 211 402 269 C402 300 393 328 376 355 C392 372 406 381 419 381 C430 381 434 378 443 362 C451 349 461 342 473 342 C490 342 503 356 503 374 C503 397 481 415 452 415 C421 415 393 400 363 368 L363 368 Z M225 396 C249 396 274 387 292 371 C315 351 326 318 326 266 C326 183 291 138 226 138 C162 138 127 183 127 267 C127 349 163 396 225 396 L225 396 Z " />
<glyph glyph-name="h" unicode="h" horiz-adv-x="562" d="M171 677 L161 677 C139 667 66 655 28 656 L28 633 L36 633 C92 631 101 617 100 540 L100 138 C101 29 99 26 36 23 L25 23 L25 0 L240 0 L240 23 L236 23 C172 26 170 29 171 138 L171 300 C202 357 249 389 300 389 C338 389 370 373 382 349 C392 330 395 309 395 259 L395 138 C396 29 394 26 331 23 L320 23 L320 0 L539 0 L539 23 L530 23 C467 26 465 29 466 138 L466 249 C466 312 462 337 449 361 C431 396 382 419 328 419 C265 419 214 393 171 337 L171 677 Z " />
<glyph glyph-name="i" unicode="i" horiz-adv-x="264" d="M124 677 C96 677 73 654 73 626 C73 596 95 573 124 573 C152 573 175 596 175 625 C175 654 152 677 124 677 L124 677 Z M169 419 L158 419 C124 408 74 398 16 393 L16 370 L30 370 C93 370 97 363 98 260 L98 138 C99 28 97 26 34 23 L16 23 L16 0 L244 0 L244 23 L233 23 C169 26 168 29 169 138 L169 419 Z " />
<glyph glyph-name="j" unicode="j" horiz-adv-x="247" d="M176 419 L165 419 C131 408 82 398 25 393 L25 370 L38 370 C100 370 104 363 105 261 L105 -50 C105 -131 101 -160 88 -183 C73 -208 42 -226 12 -226 C-13 -226 -32 -214 -42 -192 C-56 -163 -65 -154 -83 -154 C-102 -154 -116 -168 -116 -186 C-116 -222 -69 -248 -6 -248 C63 -248 123 -218 149 -170 C172 -128 176 -105 176 -14 L176 419 Z M129 677 C101 677 78 654 78 626 C78 596 101 573 129 573 C157 573 180 596 180 625 C180 654 157 677 129 677 L129 677 Z " />
<glyph glyph-name="k" unicode="k" horiz-adv-x="485" d="M279 403 L279 380 L287 380 C308 380 319 372 319 359 C319 337 305 323 211 253 L165 223 L165 677 L155 677 C135 667 61 655 24 656 L24 633 L31 633 C85 631 95 617 94 542 L94 138 C95 28 93 26 30 23 L14 23 L14 0 L228 0 L228 23 L225 23 C166 26 164 31 165 138 L165 196 L188 212 L297 92 C324 63 332 52 332 44 C332 31 317 24 284 23 L279 23 L279 0 L490 0 L490 23 L485 23 C454 28 436 40 396 85 L245 253 L278 277 C287 284 303 296 324 314 C384 363 407 375 445 380 L449 380 L449 403 L279 403 Z " />
<glyph glyph-name="l" unicode="l" horiz-adv-x="260" d="M168 677 L157 677 C137 667 64 655 25 656 L25 633 L32 633 C89 631 98 617 97 537 L97 138 C97 28 96 26 33 23 L18 23 L18 0 L245 0 L245 23 L232 23 C168 26 166 29 168 138 L168 677 Z " />
<glyph glyph-name="m" unicode="m" horiz-adv-x="851" d="M150 419 C119 409 78 401 30 397 L30 374 L35 374 C100 370 101 369 100 259 L100 138 C100 28 99 26 35 23 L30 23 L30 0 L237 0 L237 23 L231 23 C170 26 168 30 170 138 L170 306 L175 311 C188 325 198 335 201 338 C231 368 269 385 306 385 C338 385 366 371 380 347 C390 329 393 310 393 250 L393 138 C394 29 392 26 328 23 L322 23 L322 0 L527 0 L527 23 L523 23 C464 26 462 31 464 138 L464 297 C512 358 554 384 602 384 C635 384 663 370 674 349 C684 331 686 318 686 272 L686 138 C686 29 685 26 621 23 L617 23 L617 0 L828 0 L828 23 L821 23 C757 26 755 29 757 138 L757 259 C757 331 755 339 741 365 C724 396 675 419 625 419 C564 419 522 396 461 329 C444 388 399 419 332 419 C269 419 218 393 170 334 C170 369 166 394 155 419 L150 419 Z " />
<glyph glyph-name="n" unicode="n" horiz-adv-x="562" d="M146 419 C103 407 68 400 30 396 L30 374 L38 374 C102 370 103 369 102 258 L102 138 C103 29 101 26 38 23 L30 23 L30 0 L243 0 L243 23 L237 23 C172 26 170 29 172 138 L172 303 C214 360 259 388 310 388 C344 388 373 373 385 351 C396 330 397 325 397 268 L397 138 C398 29 396 26 332 23 L322 23 L322 0 L539 0 L539 23 L532 23 C468 26 467 29 468 138 L468 264 C468 328 466 338 452 364 C432 398 389 419 338 419 C276 419 221 392 172 336 C171 371 167 398 159 419 L146 419 Z " />
<glyph glyph-name="o" unicode="o" horiz-adv-x="528" d="M264 419 C137 419 39 325 39 204 C39 141 62 82 103 44 C142 8 205 -16 264 -16 C394 -16 490 76 490 201 C490 326 394 419 264 419 L264 419 Z M264 396 C301 396 336 384 359 364 C391 337 408 278 408 200 C408 65 364 6 263 6 C227 6 193 17 169 37 C138 63 121 121 121 203 C121 268 138 331 162 356 C186 382 222 396 264 396 L264 396 Z " />
<glyph glyph-name="p" unicode="p" horiz-adv-x="548" d="M131 419 C81 406 43 399 2 395 L2 372 L18 372 C82 368 83 367 82 256 L82 -110 C83 -219 81 -222 18 -225 L2 -225 L2 -248 L223 -248 L223 -225 L217 -225 C153 -222 151 -219 153 -110 L153 44 C201 0 240 -16 296 -16 C421 -16 510 76 510 206 C510 330 424 419 307 419 C249 419 197 397 153 353 C153 380 150 399 144 419 L131 419 Z M153 321 C194 369 235 390 282 390 C333 390 380 362 405 319 C420 291 428 254 428 209 C428 144 411 86 383 57 C355 27 317 10 279 10 C233 10 192 31 153 76 L153 321 Z " />
<glyph glyph-name="q" unicode="q" horiz-adv-x="546" d="M453 419 C434 395 416 378 398 367 C332 408 302 419 251 419 C201 419 150 399 110 363 C63 321 38 263 38 194 C38 70 123 -16 244 -16 C297 -16 346 0 398 34 L398 -110 C399 -220 397 -222 334 -225 L317 -225 L317 -248 L545 -248 L545 -225 L533 -225 C470 -222 468 -219 469 -110 L469 419 L453 419 Z M398 58 C357 27 305 9 257 9 C170 9 120 74 120 189 C120 246 129 292 147 323 C171 364 216 389 264 389 C310 389 357 371 398 336 L398 58 Z " />
<glyph glyph-name="r" unicode="r" horiz-adv-x="383" d="M30 368 L41 368 C105 364 106 363 105 252 L105 138 C106 29 104 26 41 23 L30 23 L30 0 L255 0 L255 23 L240 23 C177 26 175 29 176 138 L176 210 C176 264 177 275 186 298 C204 343 249 384 280 384 C291 384 299 377 307 359 C318 332 328 323 346 323 C365 323 381 338 381 357 C381 390 347 419 309 419 C255 419 198 376 172 316 C171 359 166 393 156 419 C104 403 67 395 30 390 L30 368 Z " />
<glyph glyph-name="s" unicode="s" horiz-adv-x="352" d="M43 -13 L63 -13 C69 6 76 20 86 29 C122 -5 148 -16 189 -16 C265 -16 318 33 318 103 C318 167 281 208 189 246 C114 277 88 300 88 336 C88 370 119 397 158 397 C210 397 254 353 270 288 L289 288 L289 412 L270 412 C261 392 255 382 250 377 C225 405 195 419 158 419 C95 419 44 369 44 307 C44 254 81 214 165 178 C243 144 269 119 269 77 C269 35 237 5 192 5 C130 5 88 42 63 119 L43 119 L43 -13 Z " />
<glyph glyph-name="t" unicode="t" horiz-adv-x="308" d="M290 380 L290 403 L161 403 L161 529 L145 529 C134 455 87 405 27 403 L27 380 L90 380 L90 152 C90 77 93 55 106 32 C124 3 159 -16 198 -16 C245 -16 286 9 307 49 L290 58 C271 31 250 18 225 18 C203 18 183 29 172 48 C163 64 161 81 161 137 L161 380 L290 380 Z " />
<glyph glyph-name="u" unicode="u" horiz-adv-x="551" d="M457 403 L312 403 L312 380 L323 380 C387 377 388 375 387 265 L387 174 C387 128 385 115 373 93 C348 49 295 17 245 17 C216 17 186 32 175 54 C167 68 165 82 165 124 L165 403 L23 403 L23 380 L30 380 C94 377 95 375 94 265 L94 128 C94 77 104 42 122 24 C148 -1 186 -16 225 -16 C288 -16 348 19 387 78 C388 32 393 2 404 -16 L410 -16 C433 -6 473 -1 524 0 L524 23 L519 23 C458 26 456 30 457 139 L457 403 Z " />
<glyph glyph-name="v" unicode="v" horiz-adv-x="485" d="M257 -16 L394 272 C429 349 446 371 478 379 L488 380 L488 403 L346 403 L346 380 L354 380 C380 379 397 366 397 347 C397 332 394 323 373 278 L270 60 L156 304 L144 327 C139 339 135 350 135 357 C135 373 150 380 183 380 L190 380 L190 403 L-1 403 L-1 380 L4 380 C39 376 47 369 76 307 L227 -16 L257 -16 Z " />
<glyph glyph-name="w" unicode="w" horiz-adv-x="716" d="M508 -16 L639 304 C664 368 670 375 707 380 L716 380 L716 403 L578 403 L578 380 L589 380 C616 379 631 370 631 356 C631 348 631 348 616 310 L523 82 L396 403 L376 403 L245 82 L159 298 C156 307 152 315 148 323 C142 336 139 348 139 356 C139 372 155 380 188 380 L195 380 L195 403 L2 403 L2 380 L10 380 C43 378 53 369 72 321 L79 304 L207 -16 L230 -16 L359 304 L485 -16 L508 -16 Z " />
<glyph glyph-name="x" unicode="x" horiz-adv-x="507" d="M283 229 L366 320 C406 361 439 381 469 380 L471 380 L471 403 L304 403 L304 380 L308 380 C340 380 361 370 361 355 C361 350 355 342 337 321 L268 245 L194 332 C176 353 175 354 175 362 C175 375 186 380 213 380 L218 380 L218 403 L18 403 L18 380 L26 380 C59 379 77 365 128 305 L221 193 L134 94 C89 44 61 26 20 23 L13 23 L13 0 L187 0 L187 23 L181 22 C153 22 130 33 130 47 C130 54 137 64 158 87 L236 175 L319 76 C341 51 343 49 343 41 C343 30 320 21 295 22 L291 23 L291 0 L502 0 L502 23 L496 23 C465 24 443 39 402 87 L283 229 Z " />
<glyph glyph-name="y" unicode="y" horiz-adv-x="485" d="M275 76 L158 312 C140 349 138 353 138 360 C138 373 153 379 184 380 L189 380 L189 403 L-5 403 L-5 380 L4 380 C41 378 50 370 77 315 L236 -10 L196 -106 C182 -138 177 -143 133 -162 C97 -178 80 -195 80 -219 C80 -236 93 -248 113 -248 C148 -248 172 -220 206 -141 L395 292 C427 365 437 375 480 380 L485 380 L485 403 L336 403 L336 380 L345 380 C374 380 394 370 394 356 C394 349 391 340 386 331 C382 321 377 311 372 300 L275 76 Z " />
<glyph glyph-name="z" unicode="z" horiz-adv-x="445" d="M27 0 L396 0 L408 128 L387 128 C344 30 335 23 237 23 L121 23 L400 385 L400 403 L46 403 L39 291 L59 291 C89 369 103 382 154 380 L307 380 L27 16 L27 0 Z " />
<glyph glyph-name="braceleft" unicode="&#x7b;" horiz-adv-x="363" d="M55 207 C152 199 166 181 163 65 L163 -80 C164 -192 202 -231 309 -230 C328 -230 346 -230 351 -231 L370 -231 L370 -207 C264 -206 229 -177 224 -85 L224 106 C223 166 197 204 148 215 L148 221 C197 233 223 269 224 330 L224 521 C229 613 264 642 370 643 L370 667 L351 666 C251 666 227 661 200 637 C173 607 163 577 163 515 L163 370 C166 255 152 237 55 228 L55 207 Z " />
<glyph glyph-name="bar" unicode="&#x7c;" horiz-adv-x="525" d="M235 667 L235 -167 L290 -167 L290 667 L235 667 Z " />
<glyph glyph-name="braceright" unicode="&#x7d;" horiz-adv-x="376" d="M322 228 C225 237 211 255 214 370 L214 515 C213 628 175 667 68 666 L26 666 L7 667 L7 643 C113 642 147 613 153 521 L153 330 C154 269 180 233 229 221 L229 215 C180 204 154 166 153 106 L153 -85 C147 -177 113 -206 7 -207 L7 -231 L26 -231 C125 -230 150 -225 176 -202 C204 -171 213 -141 214 -80 L214 65 C211 181 224 199 322 207 L322 228 Z " />
<glyph glyph-name="asciitilde" unicode="&#x7e;" horiz-adv-x="679" d="M536 734 C506 697 474 678 440 678 C420 678 390 685 358 697 C320 711 286 719 264 719 C216 719 167 684 129 623 L143 614 C183 661 200 672 235 672 C260 672 289 665 351 643 C382 632 397 629 413 629 C462 629 518 668 550 725 L536 734 Z " />
<glyph glyph-name="uni00A0" unicode="&#xa0;" horiz-adv-x="250" d="" />
<glyph glyph-name="exclamdown" unicode="&#xa1;" horiz-adv-x="264" d="M118 243 L87 -105 C83 -147 83 -149 83 -165 C83 -201 102 -227 129 -227 C156 -227 175 -201 175 -164 C175 -154 174 -141 173 -129 L170 -105 L140 243 L118 243 Z M129 450 C99 450 74 426 74 398 C74 368 98 344 130 344 C160 344 185 368 185 397 C185 427 160 450 129 450 L129 450 Z " />
<glyph glyph-name="cent" unicode="&#xa2;" horiz-adv-x="529" d="M195 4 C231 -11 256 -16 291 -16 C381 -16 442 24 465 98 L442 98 C425 42 379 10 313 10 C271 10 238 23 211 48 L338 391 C354 387 365 373 370 351 C375 328 375 328 381 321 C388 312 401 306 414 306 C433 306 447 320 447 340 C447 373 409 401 347 414 L420 612 L397 612 L326 417 C312 419 304 419 297 419 C173 419 76 322 76 197 C76 118 113 50 176 13 L102 -189 L124 -189 L195 4 Z M195 68 C171 102 158 156 158 217 C158 336 206 396 299 396 C306 396 310 396 317 395 L195 68 Z " />
<glyph glyph-name="sterling" unicode="&#xa3;" horiz-adv-x="739" d="M201 221 L36 221 L28 198 L195 198 L188 176 C161 86 152 59 140 30 C120 18 88 -7 64 -29 C38 -52 23 -78 23 -98 C23 -113 35 -124 51 -124 C76 -124 110 -87 140 -27 C146 -16 151 -6 156 5 C157 6 158 9 161 14 C173 20 183 23 194 23 C224 23 250 7 297 -40 C358 -101 400 -123 456 -123 C554 -123 650 -34 650 56 C650 93 632 120 606 120 C589 120 575 108 575 93 C575 84 578 77 585 66 C600 44 606 30 606 12 C606 -35 556 -77 500 -77 C465 -77 439 -64 394 -23 C330 36 292 55 238 55 C215 55 198 51 179 43 L184 51 C192 65 200 78 208 91 C222 115 232 135 240 149 C248 166 255 180 263 198 L458 198 L466 221 L274 221 C312 307 337 375 376 500 C416 628 427 654 459 694 C491 733 535 756 577 756 C615 756 644 742 662 715 C682 684 688 679 704 679 C720 679 732 691 732 708 C732 749 672 781 597 781 C507 781 426 730 362 632 C307 549 268 448 205 232 L201 221 Z " />
<glyph glyph-name="currency" unicode="&#xa4;" horiz-adv-x="700" d="M69 102 L99 73 L195 165 C256 126 295 113 349 113 C405 113 448 127 506 166 L604 74 L634 102 L536 196 C577 255 590 290 590 342 C590 394 577 429 537 489 L635 583 L604 611 L507 519 C445 559 404 573 351 573 C294 573 242 556 192 519 L96 611 L66 582 L162 491 C122 429 108 389 108 338 C108 287 123 247 164 193 L69 102 Z M351 516 C453 516 534 438 534 340 C534 247 450 170 350 170 C248 170 165 247 165 343 C165 439 248 516 351 516 L351 516 Z " />
<glyph glyph-name="yen" unicode="&#xa5;" horiz-adv-x="518" d="M369 424 L221 424 L145 555 C127 585 122 598 122 610 C122 633 143 644 187 644 L192 644 L192 667 L-63 667 L-63 644 C-17 644 -3 633 32 573 C34 568 44 552 57 528 L117 424 L-57 424 L-57 395 L134 395 L204 276 L-57 276 L-57 247 L217 247 L217 173 C218 35 213 25 134 23 L124 23 L124 0 L393 0 L393 23 L384 23 C306 25 301 35 302 173 L302 247 L575 247 L575 276 L310 276 L379 395 L575 395 L575 424 L396 424 L445 511 C497 608 526 635 581 644 L581 667 L375 667 L375 644 L380 644 C421 644 450 623 450 591 C450 569 446 560 419 512 L369 424 Z M353 395 L293 292 L237 395 L353 395 Z " />
<glyph glyph-name="brokenbar" unicode="&#xa6;" horiz-adv-x="525" d="M235 667 L235 333 L290 333 L290 667 L235 667 Z M235 153 L235 -167 L290 -167 L290 153 L235 153 Z " />
<glyph glyph-name="section" unicode="&#xa7;" horiz-adv-x="418" d="M192 357 C183 359 178 360 170 360 C92 360 35 304 35 227 C35 191 47 155 72 119 C94 86 117 64 177 18 C276 -57 303 -91 303 -142 C303 -189 266 -221 210 -221 C166 -221 145 -203 139 -158 C134 -124 126 -113 105 -113 C86 -113 73 -128 73 -151 C73 -201 131 -242 202 -242 C290 -242 346 -190 346 -110 C346 -70 331 -35 299 3 C284 20 284 20 229 68 C236 66 240 66 246 66 C322 66 378 124 378 202 C378 237 368 268 344 304 C322 336 305 352 223 419 C141 487 110 528 110 570 C110 615 148 646 203 646 C251 646 275 626 277 586 C279 559 294 541 315 541 C333 541 346 555 346 575 C346 625 284 667 210 667 C127 667 67 614 67 542 C67 494 96 442 145 399 L185 364 L192 357 Z M172 339 C210 339 238 324 279 283 C321 239 341 202 341 167 C341 120 300 86 244 86 C202 86 176 101 131 149 C93 190 75 226 75 260 C75 307 114 339 172 339 L172 339 Z " />
<glyph glyph-name="dieresis" unicode="&#xa8;" horiz-adv-x="358" d="M74 622 C51 622 33 604 33 582 C33 559 51 541 74 541 C96 541 114 559 114 582 C114 604 96 622 74 622 L74 622 Z M283 622 C261 622 243 604 243 582 C243 559 261 541 284 541 C306 541 324 559 324 582 C324 604 306 622 283 622 L283 622 Z " />
<glyph glyph-name="copyright" unicode="&#xa9;" horiz-adv-x="844" d="M422 680 C221 680 58 525 58 333 C58 145 222 -13 416 -13 C622 -13 786 140 786 331 C786 526 625 680 422 680 L422 680 Z M422 649 C606 649 755 508 755 334 C755 157 606 18 417 18 C239 18 89 162 89 333 C89 508 238 649 422 649 L422 649 Z M567 294 C556 212 507 165 433 165 C349 165 298 229 298 333 C298 443 347 509 430 509 C505 509 555 461 567 378 L586 378 L583 523 L564 523 C562 506 558 492 551 479 C515 513 472 530 419 530 C308 530 229 447 229 331 C229 220 307 143 421 143 C475 143 515 159 552 196 C560 184 564 174 568 159 L586 159 L586 294 L567 294 Z " />
<glyph glyph-name="ordfeminine" unicode="&#xaa;" horiz-adv-x="310" d="M282 317 C278 297 270 287 258 287 C244 287 241 295 241 341 L241 444 C241 476 238 489 228 502 C211 524 184 535 143 535 C87 535 40 507 40 473 C40 462 49 454 61 454 C75 454 84 464 88 484 C92 509 105 517 136 517 C160 517 178 509 187 494 C192 485 193 477 193 451 L193 440 L147 420 C64 386 30 355 30 317 C30 284 57 260 94 260 C121 260 152 273 193 303 C201 273 216 260 244 260 C276 260 296 282 297 317 L282 317 Z M193 421 L193 324 C191 323 191 323 190 322 C188 320 188 320 187 320 C157 298 134 287 117 287 C96 287 82 304 82 328 C82 360 108 385 162 408 L193 421 Z " />
<glyph glyph-name="guillemotleft" unicode="&#xab;" horiz-adv-x="496" d="M35 215 L227 23 L256 23 L135 215 L256 403 L227 403 L35 215 Z M256 215 L447 23 L475 23 L356 215 L475 403 L447 403 L256 215 Z " />
<glyph glyph-name="logicalnot" unicode="&#xac;" horiz-adv-x="525" d="M488 0 L488 267 L38 267 L38 227 L396 227 L396 0 L488 0 Z " />
<glyph glyph-name="uni00AD" unicode="&#xad;" horiz-adv-x="330" d="M37 233 L37 186 L290 186 L290 233 L37 233 Z " />
<glyph glyph-name="registered" unicode="&#xae;" horiz-adv-x="844" d="M422 680 C221 680 58 525 58 333 C58 145 222 -13 416 -13 C622 -13 786 140 786 331 C786 526 625 680 422 680 L422 680 Z M422 649 C606 649 755 508 755 334 C755 157 606 18 417 18 C239 18 89 162 89 333 C89 508 238 649 422 649 L422 649 Z M239 150 L431 150 L431 169 L408 169 C363 171 362 174 362 249 L362 327 L374 327 C394 329 408 316 460 248 C496 198 529 161 546 150 L654 150 L654 169 L648 169 C609 170 583 188 536 247 C496 299 483 313 456 335 C524 348 559 381 559 430 C559 494 500 529 393 529 C378 529 337 528 302 526 L242 523 L242 504 L252 504 C302 504 302 503 302 429 L302 249 C302 174 301 171 255 169 L239 169 L239 150 Z M362 507 C373 508 376 508 384 508 C463 508 493 485 493 426 C493 387 479 364 448 354 C431 349 410 347 362 346 L362 507 Z " />
<glyph glyph-name="macron" unicode="&#xaf;" horiz-adv-x="348" d="M33 565 L314 565 L314 588 L33 588 L33 565 Z " />
<glyph glyph-name="degree" unicode="&#xb0;" horiz-adv-x="400" d="M203 686 C117 686 50 619 50 534 C50 448 116 381 200 381 C284 381 350 448 350 533 C350 619 286 686 203 686 L203 686 Z M202 629 C252 629 293 586 293 534 C293 480 252 438 200 438 C148 438 106 481 106 533 C106 587 148 629 202 629 L202 629 Z " />
<glyph glyph-name="plusminus" unicode="&#xb1;" horiz-adv-x="525" d="M24 362 L24 320 L240 320 L240 127 L284 127 L284 320 L501 320 L501 362 L284 362 L284 554 L240 554 L240 362 L24 362 Z M24 51 L24 9 L501 9 L501 51 L24 51 Z " />
<glyph glyph-name="twosuperior" unicode="&#xb2;" horiz-adv-x="333" d="M33 266 L229 266 C252 266 252 266 252 257 C252 253 252 253 249 244 L249 236 L273 236 L293 308 L91 308 C138 346 172 375 204 405 C279 476 297 504 297 552 C297 617 243 663 166 663 C95 663 37 619 37 564 C37 532 58 497 78 497 C91 497 113 514 113 524 C113 527 111 530 107 532 C85 545 76 558 76 576 C76 614 108 641 151 641 C203 641 236 607 236 552 C236 504 217 465 166 409 C123 363 75 319 33 289 L33 266 Z " />
<glyph glyph-name="threesuperior" unicode="&#xb3;" horiz-adv-x="333" d="M187 487 C263 532 284 554 284 589 C284 632 236 663 173 663 C104 663 51 625 51 576 C51 552 67 529 83 529 C96 529 115 538 115 544 C115 546 113 549 110 551 C95 564 91 571 91 587 C91 618 123 643 163 643 C200 643 223 621 223 584 C223 563 215 540 202 528 C190 516 157 492 139 483 C114 470 102 460 102 452 C102 445 109 440 117 440 C122 440 126 441 130 445 C152 465 161 469 177 469 C215 469 238 436 238 382 C238 316 206 277 150 277 C121 277 104 288 96 312 C88 333 82 339 65 339 C51 339 39 329 39 316 C39 286 92 258 151 258 C237 258 299 310 299 382 C299 447 256 487 187 487 L187 487 Z " />
<glyph glyph-name="acute" unicode="&#xb4;" horiz-adv-x="515" d="M196 493 L212 493 L405 661 L305 661 L196 493 Z " />
<glyph glyph-name="mu" unicode="&#xb5;" horiz-adv-x="576" d="M442 500 L353 500 L354 131 C318 80 284 58 242 58 C184 58 150 99 150 169 L150 500 L62 500 L62 20 C62 -1 58 -26 51 -56 C34 -118 33 -123 33 -147 C33 -190 54 -219 83 -219 C112 -219 132 -189 132 -145 C132 -124 129 -110 113 -53 C102 -17 101 -8 101 21 L101 33 C143 -3 165 -13 200 -13 C250 -13 301 18 354 80 C362 48 367 36 377 21 C392 0 419 -13 449 -13 C510 -13 553 31 567 108 L540 109 C536 71 515 41 492 41 C462 41 442 77 442 131 L442 500 Z " />
<glyph glyph-name="paragraph" unicode="&#xb6;" horiz-adv-x="581" d="M547 667 L299 667 C197 667 193 667 167 661 C94 643 49 586 49 510 C49 452 77 402 125 374 C155 356 178 351 227 351 L274 351 L274 -1 C274 -66 271 -68 206 -70 L183 -70 L183 -93 L316 -93 L316 643 L417 643 L417 -93 L541 -93 L541 -70 L518 -70 C462 -68 460 -66 460 -3 L460 567 C460 639 464 643 526 644 L547 644 L547 667 Z M274 644 L274 379 L229 379 C155 379 110 427 110 505 C110 547 122 589 140 611 C158 633 191 644 236 644 L274 644 Z " />
<glyph glyph-name="periodcentered" unicode="&#xb7;" horiz-adv-x="286" d="M141 387 C111 387 86 363 86 335 C86 305 110 281 142 281 C172 281 197 305 197 334 C197 364 172 387 141 387 L141 387 Z " />
<glyph glyph-name="cedilla" unicode="&#xb8;" horiz-adv-x="525" d="M225 -96 C262 -98 282 -116 282 -146 C282 -176 258 -198 224 -198 C207 -198 192 -195 170 -188 L164 -206 C191 -215 211 -219 234 -219 C287 -219 329 -183 329 -137 C329 -94 300 -66 249 -59 L257 0 L241 0 L225 -96 Z " />
<glyph glyph-name="onesuperior" unicode="&#xb9;" horiz-adv-x="333" d="M176 663 C161 651 127 643 90 643 L90 623 L109 623 C145 622 146 621 145 558 L145 352 L145 316 C144 307 142 299 140 295 C137 290 127 287 109 287 L93 287 L93 267 L249 267 L249 287 L231 287 C217 287 204 290 202 294 C198 297 196 311 196 352 L196 663 L176 663 Z " />
<glyph glyph-name="ordmasculine" unicode="&#xba;" horiz-adv-x="329" d="M165 535 C89 535 30 475 30 398 C30 316 86 257 165 257 C243 257 300 316 300 396 C300 475 242 535 165 535 L165 535 Z M165 517 C222 517 248 478 248 395 C248 312 222 275 165 275 C106 275 82 312 82 400 C82 478 110 517 165 517 L165 517 Z " />
<glyph glyph-name="guillemotright" unicode="&#xbb;" horiz-adv-x="496" d="M465 215 L273 403 L244 403 L365 215 L244 23 L273 23 L465 215 Z M244 215 L53 403 L25 403 L144 215 L25 23 L53 23 L244 215 Z " />
<glyph glyph-name="onequarter" unicode="&#xbc;" horiz-adv-x="826" d="M176 663 C161 651 127 643 90 643 L90 623 L109 623 C145 622 146 621 145 558 L145 352 L145 316 C144 307 142 299 140 295 C137 290 127 287 109 287 L93 287 L93 267 L249 267 L249 287 L231 287 C217 287 204 290 202 294 C198 297 196 311 196 352 L196 663 L176 663 Z M259 0 L619 644 L587 644 L228 0 L259 0 Z M660 131 L660 85 L660 53 C660 43 658 34 656 30 C653 23 643 20 624 20 L608 20 L608 0 L760 0 L760 20 L749 20 C736 20 722 23 720 27 C716 30 714 44 714 85 L714 131 L799 131 L807 183 L784 183 L780 175 C773 157 771 156 761 155 L740 155 L714 155 L714 396 L687 396 L498 152 L498 131 L660 131 Z M660 155 L530 155 L660 323 L660 155 Z " />
<glyph glyph-name="onehalf" unicode="&#xbd;" horiz-adv-x="826" d="M176 663 C161 651 127 643 90 643 L90 623 L109 623 C145 622 146 621 145 558 L145 352 L145 316 C144 307 142 299 140 295 C137 290 127 287 109 287 L93 287 L93 267 L249 267 L249 287 L231 287 C217 287 204 290 202 294 C198 297 196 311 196 352 L196 663 L176 663 Z M238 0 L598 644 L566 644 L207 0 L238 0 Z M515 0 L711 0 C734 0 734 0 734 -9 C734 -13 734 -13 731 -22 L731 -30 L755 -30 L775 42 L573 42 C618 79 653 108 686 139 C761 210 779 238 779 286 C779 351 725 397 648 397 C576 397 519 353 519 298 C519 266 540 231 561 231 C574 231 596 248 596 258 C596 261 593 264 589 266 C567 279 558 292 558 310 C558 347 590 375 633 375 C685 375 718 341 718 286 C718 238 699 198 648 143 C604 96 556 53 515 23 L515 0 Z " />
<glyph glyph-name="threequarters" unicode="&#xbe;" horiz-adv-x="826" d="M187 487 C263 532 284 554 284 589 C284 632 236 663 173 663 C104 663 51 625 51 576 C51 552 67 529 83 529 C96 529 115 538 115 544 C115 546 113 549 110 551 C95 564 91 571 91 587 C91 618 123 643 163 643 C200 643 223 621 223 584 C223 563 215 540 202 528 C190 516 157 492 139 483 C114 470 102 460 102 452 C102 445 109 440 117 440 C122 440 126 441 130 445 C152 465 161 469 177 469 C215 469 238 436 238 382 C238 316 206 277 150 277 C121 277 104 288 96 312 C88 333 82 339 65 339 C51 339 39 329 39 316 C39 286 92 258 151 258 C237 258 299 310 299 382 C299 447 256 487 187 487 L187 487 Z M266 0 L626 644 L594 644 L235 0 L266 0 Z M660 131 L660 85 C661 22 661 22 625 20 L608 20 L608 0 L760 0 L760 20 L750 20 C736 20 723 23 720 27 C716 30 714 44 714 85 L714 131 L799 131 L807 183 L784 183 L780 175 C773 157 772 156 761 155 L740 155 L714 155 L714 396 L687 396 L499 152 L499 131 L660 131 Z M660 155 L530 155 L660 323 L660 155 Z " />
<glyph glyph-name="questiondown" unicode="&#xbf;" horiz-adv-x="418" d="M232 446 C202 446 177 422 177 394 C177 364 202 340 233 340 C263 340 288 364 288 393 C288 422 263 446 232 446 L232 446 Z M225 243 L225 76 C203 94 179 103 149 103 C69 103 9 39 9 -49 C9 -94 25 -139 55 -174 C87 -213 131 -231 191 -231 C261 -231 325 -197 325 -160 C325 -146 315 -136 300 -136 C285 -136 276 -143 266 -161 C248 -196 228 -209 192 -209 C155 -209 121 -189 102 -157 C90 -137 85 -109 85 -71 C85 21 115 74 167 74 C192 74 209 63 225 37 L247 37 L247 243 L225 243 Z " />
<glyph glyph-name="Agrave" unicode="&#xc0;" horiz-adv-x="694" d="M442 245 L496 122 L502 108 C513 85 519 66 519 55 C519 33 495 23 442 23 L433 23 L433 0 L708 0 L708 23 L702 23 C646 32 638 41 592 146 L358 677 L338 677 L135 213 C113 163 112 161 105 145 C89 107 85 98 79 88 C58 49 34 31 -5 24 L-14 23 L-14 0 L194 0 L194 23 L185 23 C147 23 117 48 117 80 C117 109 120 117 158 203 L176 245 L442 245 Z M433 268 L186 268 L309 552 L433 268 Z M310 847 L171 847 L392 724 L412 724 L310 847 Z " />
<glyph glyph-name="Aacute" unicode="&#xc1;" horiz-adv-x="694" d="M442 245 L496 122 L502 108 C513 85 519 66 519 55 C519 33 495 23 442 23 L433 23 L433 0 L708 0 L708 23 L702 23 C646 32 638 41 592 146 L358 677 L338 677 L135 213 C113 163 112 161 105 145 C89 107 85 98 79 88 C58 49 34 31 -5 24 L-14 23 L-14 0 L194 0 L194 23 L185 23 C147 23 117 48 117 80 C117 109 120 117 158 203 L176 245 L442 245 Z M433 268 L186 268 L309 552 L433 268 Z M421 847 L320 724 L339 724 L560 847 L421 847 Z " />
<glyph glyph-name="Acircumflex" unicode="&#xc2;" horiz-adv-x="694" d="M442 245 L496 122 L502 108 C513 85 519 66 519 55 C519 33 495 23 442 23 L433 23 L433 0 L708 0 L708 23 L702 23 C646 32 638 41 592 146 L358 677 L338 677 L135 213 C113 163 112 161 105 145 C89 107 85 98 79 88 C58 49 34 31 -5 24 L-14 23 L-14 0 L194 0 L194 23 L185 23 C147 23 117 48 117 80 C117 109 120 117 158 203 L176 245 L442 245 Z M433 268 L186 268 L309 552 L433 268 Z M310 856 L186 725 L205 725 L333 802 L499 725 L518 725 L395 856 L310 856 Z " />
<glyph glyph-name="Atilde" unicode="&#xc3;" horiz-adv-x="694" d="M442 245 L496 122 L502 108 C513 85 519 66 519 55 C519 33 495 23 442 23 L433 23 L433 0 L708 0 L708 23 L702 23 C646 32 638 41 592 146 L358 677 L338 677 L135 213 C113 163 112 161 105 145 C89 107 85 98 79 88 C58 49 34 31 -5 24 L-14 23 L-14 0 L194 0 L194 23 L185 23 C147 23 117 48 117 80 C117 109 120 117 158 203 L176 245 L442 245 Z M433 268 L186 268 L309 552 L433 268 Z M193 724 C201 765 216 782 246 782 C263 782 292 773 334 753 C375 733 404 725 430 725 C485 725 522 771 523 840 L508 840 C503 804 484 780 458 780 C438 780 407 790 375 807 C337 827 300 838 272 838 C221 838 179 787 179 724 L193 724 Z " />
<glyph glyph-name="Adieresis" unicode="&#xc4;" horiz-adv-x="694" d="M442 245 L496 122 L502 108 C513 85 519 66 519 55 C519 33 495 23 442 23 L433 23 L433 0 L708 0 L708 23 L702 23 C646 32 638 41 592 146 L358 677 L338 677 L135 213 C113 163 112 161 105 145 C89 107 85 98 79 88 C58 49 34 31 -5 24 L-14 23 L-14 0 L194 0 L194 23 L185 23 C147 23 117 48 117 80 C117 109 120 117 158 203 L176 245 L442 245 Z M433 268 L186 268 L309 552 L433 268 Z M222 828 C195 828 172 806 172 779 C172 750 194 728 222 728 C250 728 272 750 272 778 C272 806 250 828 222 828 L222 828 Z M473 828 C446 828 423 806 423 779 C423 750 445 728 473 728 C501 728 523 750 523 778 C523 806 501 828 473 828 L473 828 Z " />
<glyph glyph-name="Aring" unicode="&#xc5;" horiz-adv-x="694" d="M135 213 L105 145 C89 107 85 98 79 88 C58 49 34 31 -5 24 L-14 23 L-14 0 L194 0 L194 23 L185 23 C147 23 117 48 117 80 C117 109 120 117 158 203 L176 245 L442 245 L496 122 L502 108 C513 85 519 66 519 55 C519 33 495 23 442 23 L433 23 L433 0 L708 0 L708 23 L702 23 C646 32 638 41 592 146 L368 653 C411 664 441 701 441 745 C441 796 399 838 347 838 C295 838 253 796 253 744 C253 700 283 663 328 653 L135 213 Z M433 268 L186 268 L309 552 L433 268 Z M347 813 C384 813 415 782 415 745 C415 707 384 676 346 676 C309 676 279 707 279 746 C279 782 310 813 347 813 L347 813 Z " />
<glyph glyph-name="AE" unicode="&#xc6;" horiz-adv-x="916" d="M411 326 L411 173 C412 35 406 26 319 23 L304 23 L304 0 L879 0 L887 202 L865 202 C853 144 825 87 793 57 C764 31 734 23 660 23 L613 23 C511 23 504 32 507 170 L507 326 L589 326 C667 324 678 313 681 232 L681 223 L706 223 L706 452 L681 452 L681 446 C679 364 661 347 587 349 L507 349 L507 644 L640 644 C739 646 775 616 805 502 L829 502 L811 667 L265 667 L265 644 L281 644 C343 644 361 639 361 621 C361 612 352 590 336 563 L327 547 L131 167 C86 78 37 30 -14 23 L-14 0 L207 0 L207 23 L203 23 C151 26 124 45 124 77 C124 93 131 112 151 152 L241 326 L411 326 Z M411 349 L253 349 L411 648 L411 349 Z " />
<glyph glyph-name="Ccedilla" unicode="&#xc7;" horiz-adv-x="761" d="M383 -12 L386 -12 L394 -12 C489 -12 569 22 629 87 C647 66 657 45 663 17 L685 17 L685 250 L663 250 C656 198 636 147 606 104 C567 50 492 16 413 16 C325 16 249 60 205 135 C177 185 162 251 162 329 C162 430 192 530 237 582 C279 628 339 654 408 654 C487 654 566 617 606 562 C634 524 652 477 663 414 L685 414 L679 667 L656 667 C653 636 645 609 629 581 C577 641 485 679 393 679 C190 679 49 533 49 324 C49 135 171 4 361 -11 L342 -107 C391 -109 418 -129 418 -162 C418 -196 386 -220 340 -220 C318 -220 298 -217 269 -209 L261 -229 C297 -239 323 -243 354 -243 C426 -243 481 -203 481 -152 C481 -104 441 -73 374 -66 L383 -12 Z " />
<glyph glyph-name="Egrave" unicode="&#xc8;" horiz-adv-x="657" d="M603 207 C563 70 509 22 392 23 L339 23 C240 22 235 30 235 183 L235 340 L313 340 C400 342 415 328 417 244 L417 235 L442 235 L442 464 L417 464 L417 456 C417 377 402 364 310 364 L235 364 L235 644 L334 644 C473 648 509 623 539 500 L563 500 L547 667 L46 667 L46 644 L55 644 C135 642 140 634 139 500 L139 173 C140 35 135 26 46 23 L32 23 L32 0 L612 0 L627 207 L603 207 Z M318 847 L179 847 L399 724 L419 724 L318 847 Z " />
<glyph glyph-name="Eacute" unicode="&#xc9;" horiz-adv-x="657" d="M603 207 C563 70 509 22 392 23 L339 23 C240 22 235 30 235 183 L235 340 L313 340 C400 342 415 328 417 244 L417 235 L442 235 L442 464 L417 464 L417 456 C417 377 402 364 310 364 L235 364 L235 644 L334 644 C473 648 509 623 539 500 L563 500 L547 667 L46 667 L46 644 L55 644 C135 642 140 634 139 500 L139 173 C140 35 135 26 46 23 L32 23 L32 0 L612 0 L627 207 L603 207 Z M388 847 L287 724 L307 724 L527 847 L388 847 Z " />
<glyph glyph-name="Ecircumflex" unicode="&#xca;" horiz-adv-x="657" d="M603 207 C563 70 509 22 392 23 L339 23 C240 22 235 30 235 183 L235 340 L313 340 C400 342 415 328 417 244 L417 235 L442 235 L442 464 L417 464 L417 456 C417 377 402 364 310 364 L235 364 L235 644 L334 644 C473 648 509 623 539 500 L563 500 L547 667 L46 667 L46 644 L55 644 C135 642 140 634 139 500 L139 173 C140 35 135 26 46 23 L32 23 L32 0 L612 0 L627 207 L603 207 Z M296 856 L172 725 L191 725 L319 802 L485 725 L504 725 L381 856 L296 856 Z " />
<glyph glyph-name="Edieresis" unicode="&#xcb;" horiz-adv-x="657" d="M603 207 C563 70 509 22 392 23 L339 23 C240 22 235 30 235 183 L235 340 L313 340 C400 342 415 328 417 244 L417 235 L442 235 L442 464 L417 464 L417 456 C417 377 402 364 310 364 L235 364 L235 644 L334 644 C473 648 509 623 539 500 L563 500 L547 667 L46 667 L46 644 L55 644 C135 642 140 634 139 500 L139 173 C140 35 135 26 46 23 L32 23 L32 0 L612 0 L627 207 L603 207 Z M204 828 C177 828 154 806 154 779 C154 750 176 728 204 728 C232 728 254 750 254 778 C254 806 232 828 204 828 L204 828 Z M455 828 C428 828 405 806 405 779 C405 750 427 728 455 728 C483 728 505 750 505 778 C505 806 483 828 455 828 L455 828 Z " />
<glyph glyph-name="Igrave" unicode="&#xcc;" horiz-adv-x="383" d="M32 644 L47 644 C139 646 145 638 144 501 L144 173 C145 35 140 26 53 23 L32 23 L32 0 L352 0 L352 23 L331 23 C244 26 239 35 240 173 L240 501 C239 638 244 646 336 644 L352 644 L352 667 L32 667 L32 644 Z M185 847 L46 847 L266 724 L286 724 L185 847 Z " />
<glyph glyph-name="Iacute" unicode="&#xcd;" horiz-adv-x="383" d="M32 644 L47 644 C139 646 145 638 144 501 L144 173 C145 35 140 26 53 23 L32 23 L32 0 L352 0 L352 23 L331 23 C244 26 239 35 240 173 L240 501 C239 638 244 646 336 644 L352 644 L352 667 L32 667 L32 644 Z M241 847 L139 724 L159 724 L380 847 L241 847 Z " />
<glyph glyph-name="Icircumflex" unicode="&#xce;" horiz-adv-x="383" d="M31 644 L46 644 C138 646 144 638 143 501 L143 173 C144 35 139 26 52 23 L31 23 L31 0 L351 0 L351 23 L330 23 C243 26 238 35 239 173 L239 501 C238 638 243 646 335 644 L351 644 L351 667 L31 667 L31 644 Z M154 856 L30 725 L49 725 L177 802 L343 725 L362 725 L239 856 L154 856 Z " />
<glyph glyph-name="Idieresis" unicode="&#xcf;" horiz-adv-x="383" d="M31 644 L46 644 C138 646 144 638 143 501 L143 173 C144 35 139 26 52 23 L31 23 L31 0 L351 0 L351 23 L330 23 C243 26 238 35 239 173 L239 501 C238 638 243 646 335 644 L351 644 L351 667 L31 667 L31 644 Z M81 828 C54 828 31 806 31 779 C31 750 53 728 81 728 C109 728 131 750 131 778 C131 806 109 828 81 828 L81 828 Z M302 828 C275 828 252 806 252 779 C252 750 274 728 302 728 C330 728 352 750 352 778 C352 806 330 828 302 828 L302 828 Z " />
<glyph glyph-name="Eth" unicode="&#xd0;" horiz-adv-x="810" d="M154 344 L32 344 L32 317 L154 317 L154 173 C155 35 150 26 63 23 L33 23 L33 0 L342 0 C467 0 496 3 557 24 C689 68 761 175 761 327 C761 459 705 562 603 621 C538 657 459 674 350 674 C313 674 244 672 181 669 C125 666 86 664 36 662 L36 639 L57 639 C149 640 155 632 154 495 L154 344 Z M250 344 L250 648 C280 649 303 650 338 650 C445 650 506 631 560 582 C621 526 654 433 654 319 C654 170 594 69 485 36 C455 27 415 23 353 23 C297 23 271 31 262 51 C250 76 250 76 250 202 L250 317 L430 317 L430 344 L250 344 Z " />
<glyph glyph-name="Ntilde" unicode="&#xd1;" horiz-adv-x="803" d="M654 -15 L675 -15 L675 537 C671 610 694 633 776 644 L785 644 L785 667 L531 667 L531 644 L545 644 C630 638 652 617 651 544 L651 145 L236 667 L30 667 L30 644 L35 644 C125 646 133 635 134 501 L134 147 C134 85 133 77 126 65 C117 45 77 27 33 23 L21 23 L21 0 L282 0 L282 23 L274 23 C213 25 176 42 164 72 C160 83 159 86 158 147 L158 610 L654 -15 Z M254 724 C261 765 276 782 306 782 C324 782 352 773 394 753 C436 733 464 725 490 725 C545 725 583 771 584 840 L568 840 C564 804 544 780 519 780 C498 780 467 790 435 807 C397 827 360 838 332 838 C281 838 240 787 239 724 L254 724 Z " />
<glyph glyph-name="Ograve" unicode="&#xd2;" horiz-adv-x="860" d="M429 679 C327 679 220 642 155 585 C88 525 49 437 49 342 C49 248 78 167 133 105 C198 33 310 -12 425 -12 C658 -12 811 125 811 335 C811 539 656 679 429 679 L429 679 Z M429 654 C526 654 610 611 652 539 C682 487 698 414 698 332 C698 252 683 183 653 128 C636 96 606 67 567 45 C530 23 488 13 437 13 C358 13 297 33 248 74 C193 121 162 217 162 345 C162 438 191 532 235 579 C281 628 348 654 429 654 L429 654 Z M402 847 L263 847 L483 724 L503 724 L402 847 Z " />
<glyph glyph-name="Oacute" unicode="&#xd3;" horiz-adv-x="860" d="M429 679 C327 679 220 642 155 585 C88 525 49 437 49 342 C49 248 78 167 133 105 C198 33 310 -12 425 -12 C658 -12 811 125 811 335 C811 539 656 679 429 679 L429 679 Z M429 654 C526 654 610 611 652 539 C682 487 698 414 698 332 C698 252 683 183 653 128 C636 96 606 67 567 45 C530 23 488 13 437 13 C358 13 297 33 248 74 C193 121 162 217 162 345 C162 438 191 532 235 579 C281 628 348 654 429 654 L429 654 Z M483 847 L381 724 L401 724 L622 847 L483 847 Z " />
<glyph glyph-name="Ocircumflex" unicode="&#xd4;" horiz-adv-x="860" d="M429 679 C327 679 220 642 155 585 C88 525 49 437 49 342 C49 248 78 167 133 105 C198 33 310 -12 425 -12 C658 -12 811 125 811 335 C811 539 656 679 429 679 L429 679 Z M429 654 C526 654 610 611 652 539 C682 487 698 414 698 332 C698 252 683 183 653 128 C636 96 606 67 567 45 C530 23 488 13 437 13 C358 13 297 33 248 74 C193 121 162 217 162 345 C162 438 191 532 235 579 C281 628 348 654 429 654 L429 654 Z M389 856 L265 725 L283 725 L411 802 L577 725 L596 725 L474 856 L389 856 Z " />
<glyph glyph-name="Otilde" unicode="&#xd5;" horiz-adv-x="860" d="M429 679 C327 679 220 642 155 585 C88 525 49 437 49 342 C49 248 78 167 133 105 C198 33 310 -12 425 -12 C658 -12 811 125 811 335 C811 539 656 679 429 679 L429 679 Z M429 654 C526 654 610 611 652 539 C682 487 698 414 698 332 C698 252 683 183 653 128 C636 96 606 67 567 45 C530 23 488 13 437 13 C358 13 297 33 248 74 C193 121 162 217 162 345 C162 438 191 532 235 579 C281 628 348 654 429 654 L429 654 Z M274 724 C282 765 297 782 327 782 C344 782 372 773 415 753 C456 733 485 725 510 725 C566 725 603 771 604 840 L589 840 C584 804 565 780 539 780 C519 780 487 790 455 807 C417 827 380 838 353 838 C302 838 260 787 260 724 L274 724 Z " />
<glyph glyph-name="Odieresis" unicode="&#xd6;" horiz-adv-x="860" d="M429 679 C327 679 220 642 155 585 C88 525 49 437 49 342 C49 248 78 167 133 105 C198 33 310 -12 425 -12 C658 -12 811 125 811 335 C811 539 656 679 429 679 L429 679 Z M429 654 C526 654 610 611 652 539 C682 487 698 414 698 332 C698 252 683 183 653 128 C636 96 606 67 567 45 C530 23 488 13 437 13 C358 13 297 33 248 74 C193 121 162 217 162 345 C162 438 191 532 235 579 C281 628 348 654 429 654 L429 654 Z M304 828 C277 828 254 806 254 779 C254 750 276 728 304 728 C332 728 354 750 354 778 C354 806 332 828 304 828 L304 828 Z M556 828 C529 828 506 806 506 779 C506 750 528 728 556 728 C584 728 606 750 606 778 C606 806 584 828 556 828 L556 828 Z " />
<glyph glyph-name="multiply" unicode="&#xd7;" horiz-adv-x="525" d="M96 529 L65 499 L231 341 L64 182 L96 152 L263 311 L429 152 L460 182 L293 340 L461 499 L429 530 L262 370 L96 529 Z " />
<glyph glyph-name="Oslash" unicode="&#xd8;" horiz-adv-x="860" d="M122 0 L140 -14 L198 50 L201 49 C275 5 342 -12 434 -12 C657 -12 811 129 811 334 C811 443 767 538 690 597 L750 663 L730 678 L670 611 C594 658 520 679 426 679 C324 679 222 644 156 585 C86 524 49 437 49 337 C49 224 97 123 179 63 L122 0 Z M218 107 C183 158 162 244 162 339 C162 438 190 531 235 579 C279 627 350 654 428 654 C512 654 586 623 632 568 L218 107 Z M647 548 C680 495 698 420 698 334 C698 253 683 183 653 129 C636 96 606 67 567 45 C530 23 488 13 437 13 C349 13 279 39 232 88 L647 548 Z " />
<glyph glyph-name="Ugrave" unicode="&#xd9;" horiz-adv-x="813" d="M558 667 L558 644 L564 644 C650 636 667 613 665 513 L665 286 C665 191 663 173 650 139 C622 69 535 22 431 22 C350 22 284 52 255 102 C233 139 230 164 230 291 L230 501 C229 638 234 646 326 644 L340 644 L340 667 L21 667 L21 644 L37 644 C129 646 135 638 134 501 L134 293 L134 202 C137 154 144 126 160 99 C202 29 292 -12 407 -12 C512 -12 595 19 643 77 C682 123 689 155 689 282 L689 504 C685 605 703 632 782 644 L792 644 L792 667 L558 667 Z M403 847 L264 847 L485 724 L505 724 L403 847 Z " />
<glyph glyph-name="Uacute" unicode="&#xda;" horiz-adv-x="813" d="M558 667 L558 644 L564 644 C650 636 667 613 665 513 L665 286 C665 191 663 173 650 139 C622 69 535 22 431 22 C350 22 284 52 255 102 C233 139 230 164 230 291 L230 501 C229 638 234 646 326 644 L340 644 L340 667 L21 667 L21 644 L37 644 C129 646 135 638 134 501 L134 293 L134 202 C137 154 144 126 160 99 C202 29 292 -12 407 -12 C512 -12 595 19 643 77 C682 123 689 155 689 282 L689 504 C685 605 703 632 782 644 L792 644 L792 667 L558 667 Z M497 847 L396 724 L416 724 L636 847 L497 847 Z " />
<glyph glyph-name="Ucircumflex" unicode="&#xdb;" horiz-adv-x="813" d="M558 667 L558 644 L564 644 C650 636 667 613 665 513 L665 286 C665 191 663 173 650 139 C622 69 535 22 431 22 C350 22 284 52 255 102 C233 139 230 164 230 291 L230 501 C229 638 234 646 326 644 L340 644 L340 667 L21 667 L21 644 L37 644 C129 646 135 638 134 501 L134 293 L134 202 C137 154 144 126 160 99 C202 29 292 -12 407 -12 C512 -12 595 19 643 77 C682 123 689 155 689 282 L689 504 C685 605 703 632 782 644 L792 644 L792 667 L558 667 Z M393 856 L268 725 L287 725 L415 802 L581 725 L600 725 L477 856 L393 856 Z " />
<glyph glyph-name="Udieresis" unicode="&#xdc;" horiz-adv-x="813" d="M558 667 L558 644 L564 644 C650 636 667 613 665 513 L665 286 C665 191 663 173 650 139 C622 69 535 22 431 22 C350 22 284 52 255 102 C233 139 230 164 230 291 L230 501 C229 638 234 646 326 644 L340 644 L340 667 L21 667 L21 644 L37 644 C129 646 135 638 134 501 L134 293 L134 202 C137 154 144 126 160 99 C202 29 292 -12 407 -12 C512 -12 595 19 643 77 C682 123 689 155 689 282 L689 504 C685 605 703 632 782 644 L792 644 L792 667 L558 667 Z M311 828 C284 828 261 806 261 779 C261 750 283 728 311 728 C338 728 361 750 361 778 C361 806 339 828 311 828 L311 828 Z M562 828 C535 828 512 806 512 779 C512 750 534 728 562 728 C589 728 612 750 612 778 C612 806 590 828 562 828 L562 828 Z " />
<glyph glyph-name="Yacute" unicode="&#xdd;" horiz-adv-x="688" d="M382 292 L217 555 C195 590 191 599 191 611 C191 633 215 644 264 644 L270 644 L270 667 L-14 667 L-14 644 L-6 644 C38 643 53 631 91 573 C95 566 107 549 120 529 L297 256 L297 173 C298 35 292 26 205 23 L194 23 L194 0 L493 0 L493 23 L483 23 C396 26 390 35 392 173 L392 262 L551 511 C609 607 636 631 694 643 L702 644 L702 667 L473 667 L473 644 L478 644 C525 644 556 623 556 589 C556 570 549 556 522 512 L382 292 Z M438 847 L337 724 L357 724 L577 847 L438 847 Z " />
<glyph glyph-name="Thorn" unicode="&#xde;" horiz-adv-x="612" d="M352 667 L32 667 L32 644 L45 644 C138 646 143 638 142 501 L142 174 C143 35 138 26 51 23 L32 23 L32 0 L352 0 L352 23 L329 23 C248 25 238 38 238 141 L238 154 L316 154 C399 154 446 160 482 175 C546 201 584 260 584 333 C584 411 538 470 458 494 C407 510 372 513 238 513 L238 542 C241 631 251 642 329 644 L352 644 L352 667 Z M238 179 L238 488 C256 490 266 490 289 490 C353 490 384 484 415 467 C455 444 480 393 480 332 C480 272 456 224 414 201 C380 183 356 179 289 179 L238 179 Z " />
<glyph glyph-name="germandbls" unicode="&#xdf;" horiz-adv-x="553" d="M91 138 C92 28 90 26 27 23 L15 23 L15 0 L227 0 L227 23 L223 23 C163 26 161 30 162 138 L162 418 C162 544 162 549 172 583 C186 629 227 656 284 656 C364 656 405 607 405 512 C405 423 364 380 278 380 C273 380 268 380 260 381 L260 359 L267 359 L286 359 L288 359 C344 359 387 338 408 301 C425 271 433 219 433 140 C433 57 415 19 378 19 C363 19 354 24 339 39 C320 59 310 65 298 65 L297 65 C282 65 271 54 271 40 C271 14 303 -5 349 -5 C447 -5 515 72 515 181 C515 285 453 354 344 372 C384 383 409 394 433 413 C465 439 487 482 487 524 C487 613 405 677 290 677 C236 677 191 661 154 628 C103 584 91 542 91 418 L91 138 Z " />
<glyph glyph-name="agrave" unicode="&#xe0;" horiz-adv-x="496" d="M466 74 C461 43 446 26 424 26 C413 26 403 32 398 41 C391 56 391 57 391 115 L391 278 C391 338 385 357 358 381 C329 407 289 419 230 419 C180 419 141 410 108 391 C78 374 58 348 58 326 C58 310 71 298 90 298 C112 298 127 314 132 343 C135 363 136 364 142 372 C154 388 182 398 217 398 C260 398 292 384 307 358 C315 344 317 331 317 289 L317 269 L237 238 C154 205 82 163 62 134 C49 115 42 96 42 76 C42 27 86 -10 146 -10 C192 -10 244 11 317 60 C326 12 352 -10 399 -10 C451 -10 483 22 486 74 L466 74 Z M317 246 L317 87 C263 46 219 26 186 26 C150 26 124 54 124 94 C124 147 168 188 260 224 L317 246 Z M317 493 L208 661 L106 661 L300 493 L317 493 Z " />
<glyph glyph-name="aacute" unicode="&#xe1;" horiz-adv-x="496" d="M466 74 C461 43 446 26 424 26 C413 26 403 32 398 41 C391 56 391 57 391 115 L391 278 C391 338 385 357 358 381 C329 407 289 419 230 419 C180 419 141 410 108 391 C78 374 58 348 58 326 C58 310 71 298 90 298 C112 298 127 314 132 343 C135 363 136 364 142 372 C154 388 182 398 217 398 C260 398 292 384 307 358 C315 344 317 331 317 289 L317 269 L237 238 C154 205 82 163 62 134 C49 115 42 96 42 76 C42 27 86 -10 146 -10 C192 -10 244 11 317 60 C326 12 352 -10 399 -10 C451 -10 483 22 486 74 L466 74 Z M317 246 L317 87 C263 46 219 26 186 26 C150 26 124 54 124 94 C124 147 168 188 260 224 L317 246 Z M196 493 L212 493 L404 661 L304 661 L196 493 Z " />
<glyph glyph-name="acircumflex" unicode="&#xe2;" horiz-adv-x="496" d="M466 74 C461 43 446 26 424 26 C413 26 403 32 398 41 C391 56 391 57 391 115 L391 278 C391 338 385 357 358 381 C329 407 289 419 230 419 C180 419 141 410 108 391 C78 374 58 348 58 326 C58 310 71 298 90 298 C112 298 127 314 132 343 C135 363 136 364 142 372 C154 388 182 398 217 398 C260 398 292 384 307 358 C315 344 317 331 317 289 L317 269 L237 238 C154 205 82 163 62 134 C49 115 42 96 42 76 C42 27 86 -10 146 -10 C192 -10 244 11 317 60 C326 12 352 -10 399 -10 C451 -10 483 22 486 74 L466 74 Z M317 246 L317 87 C263 46 219 26 186 26 C150 26 124 54 124 94 C124 147 168 188 260 224 L317 246 Z M234 596 L342 496 L362 496 L269 661 L220 661 L131 496 L150 496 L234 596 Z " />
<glyph glyph-name="atilde" unicode="&#xe3;" horiz-adv-x="496" d="M466 74 C461 43 446 26 424 26 C413 26 403 32 398 41 C391 56 391 57 391 115 L391 278 C391 338 385 357 358 381 C329 407 289 419 230 419 C180 419 141 410 108 391 C78 374 58 348 58 326 C58 310 71 298 90 298 C112 298 127 314 132 343 C135 363 136 364 142 372 C154 388 182 398 217 398 C260 398 292 384 307 358 C315 344 317 331 317 289 L317 269 L237 238 C154 205 82 163 62 134 C49 115 42 96 42 76 C42 27 86 -10 146 -10 C192 -10 244 11 317 60 C326 12 352 -10 399 -10 C451 -10 483 22 486 74 L466 74 Z M317 246 L317 87 C263 46 219 26 186 26 C150 26 124 54 124 94 C124 147 168 188 260 224 L317 246 Z M102 524 C105 567 123 592 151 592 C163 592 175 587 191 574 C246 531 262 523 294 523 C354 523 388 565 388 639 L374 639 C372 595 355 570 325 570 C308 570 294 577 269 597 C229 629 208 639 181 639 C124 639 86 593 87 524 L102 524 Z " />
<glyph glyph-name="adieresis" unicode="&#xe4;" horiz-adv-x="496" d="M466 74 C461 43 446 26 424 26 C413 26 403 32 398 41 C391 56 391 57 391 115 L391 278 C391 338 385 357 358 381 C329 407 289 419 230 419 C180 419 141 410 108 391 C78 374 58 348 58 326 C58 310 71 298 90 298 C112 298 127 314 132 343 C135 363 136 364 142 372 C154 388 182 398 217 398 C260 398 292 384 307 358 C315 344 317 331 317 289 L317 269 L237 238 C154 205 82 163 62 134 C49 115 42 96 42 76 C42 27 86 -10 146 -10 C192 -10 244 11 317 60 C326 12 352 -10 399 -10 C451 -10 483 22 486 74 L466 74 Z M317 246 L317 87 C263 46 219 26 186 26 C150 26 124 54 124 94 C124 147 168 188 260 224 L317 246 Z M129 622 C106 622 88 604 88 582 C88 559 106 541 129 541 C151 541 169 559 169 582 C169 604 151 622 129 622 L129 622 Z M338 622 C316 622 298 604 298 582 C298 559 316 541 339 541 C361 541 379 559 379 582 C379 604 361 622 338 622 L338 622 Z " />
<glyph glyph-name="aring" unicode="&#xe5;" horiz-adv-x="496" d="M466 74 C461 43 446 26 424 26 C413 26 403 32 398 41 C391 56 391 57 391 115 L391 278 C391 338 385 357 358 381 C329 407 289 419 230 419 C180 419 141 410 108 391 C78 374 58 348 58 326 C58 310 71 298 90 298 C112 298 127 314 132 343 C135 363 136 364 142 372 C154 388 182 398 217 398 C260 398 292 384 307 358 C315 344 317 331 317 289 L317 269 L237 238 C154 205 82 163 62 134 C49 115 42 96 42 76 C42 27 86 -10 146 -10 C192 -10 244 11 317 60 C326 12 352 -10 399 -10 C451 -10 483 22 486 74 L466 74 Z M317 246 L317 87 C263 46 219 26 186 26 C150 26 124 54 124 94 C124 147 168 188 260 224 L317 246 Z M242 668 C194 668 153 628 153 580 C153 530 192 490 242 490 C291 490 331 530 331 579 C331 628 291 668 242 668 L242 668 Z M242 640 C276 640 303 613 303 579 C303 545 276 518 242 518 C208 518 181 545 181 580 C181 613 209 640 242 640 L242 640 Z " />
<glyph glyph-name="ae" unicode="&#xe6;" horiz-adv-x="676" d="M638 266 C622 363 558 419 461 419 C410 419 374 405 339 370 C297 405 258 419 204 419 C124 419 47 375 47 331 C47 314 60 303 79 303 C101 303 114 318 124 354 C128 368 133 377 138 382 C149 391 174 398 197 398 C231 398 258 386 268 367 C277 349 280 332 280 287 L280 266 C200 240 127 207 98 185 C61 156 39 119 39 83 C39 29 88 -16 145 -16 C198 -16 249 17 292 78 C325 16 383 -16 460 -16 C541 -16 603 20 630 82 L610 90 C585 39 539 11 482 11 C440 11 402 33 383 68 C363 105 355 156 355 240 L355 266 L638 266 Z M355 287 C363 358 399 397 457 397 C514 397 548 358 551 287 L355 287 Z M280 99 C250 54 214 29 183 29 C142 29 113 62 113 107 C113 167 162 207 280 245 L280 99 Z " />
<glyph glyph-name="ccedilla" unicode="&#xe7;" horiz-adv-x="452" d="M257 -16 C347 -13 407 27 427 98 L404 98 C387 42 340 10 274 10 C234 10 199 22 175 44 C142 74 120 141 120 215 C120 272 136 330 159 358 C180 382 218 396 263 396 C306 396 324 384 332 351 C339 318 349 307 375 307 C395 307 409 321 409 341 C409 382 341 419 265 419 C135 419 38 324 38 197 C38 78 118 -6 240 -16 L226 -96 C263 -98 283 -116 283 -146 C283 -176 259 -198 225 -198 C208 -198 194 -195 172 -188 L166 -206 C193 -215 213 -219 235 -219 C288 -219 330 -183 330 -137 C330 -94 301 -66 251 -59 L257 -16 Z " />
<glyph glyph-name="egrave" unicode="&#xe8;" horiz-adv-x="460" d="M422 266 C417 354 343 419 246 419 C127 419 39 325 39 198 C39 75 129 -16 250 -16 C331 -16 400 26 422 90 L397 90 C370 37 324 10 262 10 C228 10 197 21 172 43 C139 72 121 133 121 213 C121 232 122 244 125 266 L422 266 Z M332 286 L127 286 C135 323 141 339 155 357 C173 382 206 398 240 398 C274 398 306 381 318 356 C325 341 332 311 332 295 L332 286 Z M324 493 L215 661 L113 661 L308 493 L324 493 Z " />
<glyph glyph-name="eacute" unicode="&#xe9;" horiz-adv-x="460" d="M422 266 C417 354 343 419 246 419 C127 419 39 325 39 198 C39 75 129 -16 250 -16 C331 -16 400 26 422 90 L397 90 C370 37 324 10 262 10 C228 10 197 21 172 43 C139 72 121 133 121 213 C121 232 122 244 125 266 L422 266 Z M332 286 L127 286 C135 323 141 339 155 357 C173 382 206 398 240 398 C274 398 306 381 318 356 C325 341 332 311 332 295 L332 286 Z M209 493 L225 493 L418 661 L318 661 L209 493 Z " />
<glyph glyph-name="ecircumflex" unicode="&#xea;" horiz-adv-x="460" d="M422 266 C417 354 343 419 246 419 C127 419 39 325 39 198 C39 75 129 -16 250 -16 C331 -16 400 26 422 90 L397 90 C370 37 324 10 262 10 C228 10 197 21 172 43 C139 72 121 133 121 213 C121 232 122 244 125 266 L422 266 Z M332 286 L127 286 C135 323 141 339 155 357 C173 382 206 398 240 398 C274 398 306 381 318 356 C325 341 332 311 332 295 L332 286 Z M237 596 L345 496 L365 496 L272 661 L223 661 L134 496 L153 496 L237 596 Z " />
<glyph glyph-name="edieresis" unicode="&#xeb;" horiz-adv-x="460" d="M422 266 C417 354 343 419 246 419 C127 419 39 325 39 198 C39 75 129 -16 250 -16 C331 -16 400 26 422 90 L397 90 C370 37 324 10 262 10 C228 10 197 21 172 43 C139 72 121 133 121 213 C121 232 122 244 125 266 L422 266 Z M332 286 L127 286 C135 323 141 339 155 357 C173 382 206 398 240 398 C274 398 306 381 318 356 C325 341 332 311 332 295 L332 286 Z M145 622 C122 622 104 604 104 582 C104 559 122 541 145 541 C167 541 185 559 185 582 C185 604 167 622 145 622 L145 622 Z M354 622 C332 622 314 604 314 582 C314 559 332 541 355 541 C377 541 395 559 395 582 C395 604 377 622 354 622 L354 622 Z " />
<glyph glyph-name="igrave" unicode="&#xec;" horiz-adv-x="264" d="M169 419 L158 419 C124 408 74 398 16 393 L16 370 L30 370 C93 370 98 363 98 260 L98 138 C99 28 97 26 34 23 L16 23 L16 0 L244 0 L244 23 L233 23 C170 26 168 29 169 138 L169 419 Z M192 493 L83 661 L-19 661 L176 493 L192 493 Z " />
<glyph glyph-name="iacute" unicode="&#xed;" horiz-adv-x="264" d="M169 419 L158 419 C124 408 74 398 16 393 L16 370 L30 370 C93 370 97 363 98 260 L98 138 C99 28 97 26 34 23 L16 23 L16 0 L244 0 L244 23 L233 23 C169 26 168 29 169 138 L169 419 Z M98 493 L114 493 L306 661 L206 661 L98 493 Z " />
<glyph glyph-name="icircumflex" unicode="&#xee;" horiz-adv-x="264" d="M169 419 L158 419 C124 408 74 398 16 393 L16 370 L30 370 C93 370 97 363 98 260 L98 138 C99 28 97 26 34 23 L16 23 L16 0 L244 0 L244 23 L233 23 C169 26 168 29 169 138 L169 419 Z M119 596 L227 496 L247 496 L154 661 L105 661 L16 496 L35 496 L119 596 Z " />
<glyph glyph-name="idieresis" unicode="&#xef;" horiz-adv-x="264" d="M169 419 L158 419 C124 408 74 398 16 393 L16 370 L30 370 C93 370 98 363 98 260 L98 138 C99 28 97 26 34 23 L16 23 L16 0 L244 0 L244 23 L233 23 C170 26 168 29 169 138 L169 419 Z M48 622 C25 622 7 604 7 582 C7 559 25 541 48 541 C70 541 88 559 88 582 C88 604 70 622 48 622 L48 622 Z M208 622 C186 622 168 604 168 582 C168 559 186 541 209 541 C231 541 249 559 249 582 C249 604 231 622 208 622 L208 622 Z " />
<glyph glyph-name="eth" unicode="&#xf0;" horiz-adv-x="528" d="M137 641 C190 609 197 604 243 567 L101 496 L111 476 L261 550 C321 494 361 436 381 377 C346 410 313 422 261 422 C135 422 39 327 39 202 C39 80 135 -12 263 -12 C396 -12 490 83 490 217 C490 351 432 475 320 580 L436 638 L425 656 L303 596 C295 602 290 605 284 610 C269 621 255 631 241 641 C220 655 206 664 176 679 L137 641 Z M265 400 C317 400 362 376 384 337 C400 310 407 269 407 210 C407 111 387 57 341 31 C320 18 288 10 261 10 C166 10 120 75 120 207 C120 333 170 400 265 400 L265 400 Z " />
<glyph glyph-name="ntilde" unicode="&#xf1;" horiz-adv-x="562" d="M146 419 C103 407 68 400 30 396 L30 374 L38 374 C102 370 103 369 102 258 L102 138 C103 29 101 26 38 23 L30 23 L30 0 L243 0 L243 23 L237 23 C172 26 170 29 172 138 L172 303 C214 360 259 388 310 388 C344 388 373 373 385 351 C396 330 397 325 397 268 L397 138 C398 29 396 26 332 23 L322 23 L322 0 L539 0 L539 23 L532 23 C468 26 467 29 468 138 L468 264 C468 328 466 338 452 364 C432 398 389 419 338 419 C276 419 221 392 172 336 C171 371 167 398 159 419 L146 419 Z M152 524 C155 567 173 592 202 592 C214 592 225 587 242 574 C297 531 313 523 345 523 C404 523 438 565 439 639 L425 639 C423 595 406 570 376 570 C359 570 345 577 319 597 C280 629 259 639 231 639 C175 639 137 593 138 524 L152 524 Z " />
<glyph glyph-name="ograve" unicode="&#xf2;" horiz-adv-x="528" d="M264 419 C137 419 39 325 39 204 C39 141 62 82 103 44 C142 8 205 -16 264 -16 C394 -16 490 76 490 201 C490 326 394 419 264 419 L264 419 Z M264 396 C301 396 336 384 359 364 C391 337 408 278 408 200 C408 65 364 6 263 6 C227 6 193 17 169 37 C138 63 121 121 121 203 C121 268 138 331 162 356 C186 382 222 396 264 396 L264 396 Z M335 493 L226 661 L124 661 L319 493 L335 493 Z " />
<glyph glyph-name="oacute" unicode="&#xf3;" horiz-adv-x="528" d="M264 419 C137 419 39 325 39 204 C39 141 62 82 103 44 C142 8 205 -16 264 -16 C394 -16 490 76 490 201 C490 326 394 419 264 419 L264 419 Z M264 396 C301 396 336 384 359 364 C391 337 408 278 408 200 C408 65 364 6 263 6 C227 6 193 17 169 37 C138 63 121 121 121 203 C121 268 138 331 162 356 C186 382 222 396 264 396 L264 396 Z M233 493 L249 493 L441 661 L341 661 L233 493 Z " />
<glyph glyph-name="ocircumflex" unicode="&#xf4;" horiz-adv-x="528" d="M264 419 C137 419 39 325 39 204 C39 141 62 82 103 44 C142 8 205 -16 264 -16 C394 -16 490 76 490 201 C490 326 394 419 264 419 L264 419 Z M264 396 C301 396 336 384 359 364 C391 337 408 278 408 200 C408 65 364 6 263 6 C227 6 193 17 169 37 C138 63 121 121 121 203 C121 268 138 331 162 356 C186 382 222 396 264 396 L264 396 Z M258 596 L366 496 L386 496 L293 661 L244 661 L155 496 L175 496 L258 596 Z " />
<glyph glyph-name="otilde" unicode="&#xf5;" horiz-adv-x="528" d="M264 419 C137 419 39 325 39 204 C39 141 62 82 103 44 C142 8 205 -16 264 -16 C394 -16 490 76 490 201 C490 326 394 419 264 419 L264 419 Z M264 396 C301 396 336 384 359 364 C391 337 408 278 408 200 C408 65 364 6 263 6 C227 6 193 17 169 37 C138 63 121 121 121 203 C121 268 138 331 162 356 C186 382 222 396 264 396 L264 396 Z M132 524 C135 567 153 592 182 592 C194 592 205 587 222 574 C277 531 293 523 325 523 C384 523 418 565 419 639 L404 639 C403 595 386 570 355 570 C339 570 325 577 299 597 C260 629 239 639 211 639 C155 639 117 593 118 524 L132 524 Z " />
<glyph glyph-name="odieresis" unicode="&#xf6;" horiz-adv-x="528" d="M264 419 C137 419 39 325 39 204 C39 141 62 82 103 44 C142 8 205 -16 264 -16 C394 -16 490 76 490 201 C490 326 394 419 264 419 L264 419 Z M264 396 C301 396 336 384 359 364 C391 337 408 278 408 200 C408 65 364 6 263 6 C227 6 193 17 169 37 C138 63 121 121 121 203 C121 268 138 331 162 356 C186 382 222 396 264 396 L264 396 Z M168 622 C145 622 127 604 127 582 C127 559 145 541 168 541 C190 541 208 559 208 582 C208 604 190 622 168 622 L168 622 Z M378 622 C356 622 338 604 338 582 C338 559 356 541 379 541 C401 541 419 559 419 582 C419 604 401 622 378 622 L378 622 Z " />
<glyph glyph-name="divide" unicode="&#xf7;" horiz-adv-x="525" d="M24 362 L24 320 L501 320 L501 362 L24 362 Z M264 214 C233 214 208 190 208 162 C208 132 233 108 263 108 C294 108 319 132 319 161 C319 190 294 214 264 214 L264 214 Z M263 570 C233 570 208 546 208 518 C208 488 232 464 264 464 C294 464 319 488 319 517 C319 546 294 570 263 570 L263 570 Z " />
<glyph glyph-name="oslash" unicode="&#xf8;" horiz-adv-x="528" d="M470 420 L454 433 L403 376 C362 405 316 419 264 419 C136 419 39 326 39 201 C39 140 63 82 103 44 L49 -16 L65 -29 L119 31 C159 2 213 -16 263 -16 C394 -16 490 76 490 201 C490 265 465 323 419 363 L470 420 Z M386 326 C400 292 408 244 408 196 C408 66 363 6 265 6 C212 6 166 28 148 63 L386 326 Z M139 84 C128 115 121 159 121 203 C121 270 137 330 162 356 C185 381 222 396 263 396 C312 396 356 376 376 346 L139 84 Z " />
<glyph glyph-name="ugrave" unicode="&#xf9;" horiz-adv-x="551" d="M457 403 L312 403 L312 380 L323 380 C387 377 388 375 387 265 L387 174 C387 128 385 115 373 93 C348 49 295 17 245 17 C216 17 186 32 175 54 C167 68 165 82 165 124 L165 403 L23 403 L23 380 L30 380 C94 377 95 375 94 265 L94 128 C94 77 104 42 122 24 C148 -1 186 -16 225 -16 C288 -16 348 19 387 78 C388 32 393 2 404 -16 L410 -16 C433 -6 473 -1 524 0 L524 23 L519 23 C458 26 456 30 457 139 L457 403 Z M348 493 L239 661 L137 661 L332 493 L348 493 Z " />
<glyph glyph-name="uacute" unicode="&#xfa;" horiz-adv-x="551" d="M457 403 L312 403 L312 380 L323 380 C387 377 388 375 387 265 L387 174 C387 128 385 115 373 93 C348 49 295 17 245 17 C216 17 186 32 175 54 C167 68 165 82 165 124 L165 403 L23 403 L23 380 L30 380 C94 377 95 375 94 265 L94 128 C94 77 104 42 122 24 C148 -1 186 -16 225 -16 C288 -16 348 19 387 78 C388 32 393 2 404 -16 L410 -16 C433 -6 473 -1 524 0 L524 23 L519 23 C458 26 456 30 457 139 L457 403 Z M252 493 L268 493 L461 661 L361 661 L252 493 Z " />
<glyph glyph-name="ucircumflex" unicode="&#xfb;" horiz-adv-x="551" d="M457 403 L312 403 L312 380 L323 380 C387 377 388 375 387 265 L387 174 C387 128 385 115 373 93 C348 49 295 17 245 17 C216 17 186 32 175 54 C167 68 165 82 165 124 L165 403 L23 403 L23 380 L30 380 C94 377 95 375 94 265 L94 128 C94 77 104 42 122 24 C148 -1 186 -16 225 -16 C288 -16 348 19 387 78 C388 32 393 2 404 -16 L410 -16 C433 -6 473 -1 524 0 L524 23 L519 23 C458 26 456 30 457 139 L457 403 Z M272 596 L380 496 L399 496 L307 661 L257 661 L169 496 L188 496 L272 596 Z " />
<glyph glyph-name="udieresis" unicode="&#xfc;" horiz-adv-x="551" d="M457 403 L312 403 L312 380 L323 380 C387 377 388 375 387 265 L387 174 C387 128 385 115 373 93 C348 49 295 17 245 17 C216 17 186 32 175 54 C167 68 165 82 165 124 L165 403 L23 403 L23 380 L30 380 C94 377 95 375 94 265 L94 128 C94 77 104 42 122 24 C148 -1 186 -16 225 -16 C288 -16 348 19 387 78 C388 32 393 2 404 -16 L410 -16 C433 -6 473 -1 524 0 L524 23 L519 23 C458 26 456 30 457 139 L457 403 Z M177 622 C154 622 136 604 136 582 C136 559 154 541 177 541 C199 541 217 559 217 582 C217 604 199 622 177 622 L177 622 Z M387 622 C365 622 347 604 347 582 C347 559 365 541 388 541 C410 541 428 559 428 582 C428 604 410 622 387 622 L387 622 Z " />
<glyph glyph-name="yacute" unicode="&#xfd;" horiz-adv-x="485" d="M275 76 L158 312 C140 349 138 353 138 360 C138 373 153 379 184 380 L189 380 L189 403 L-5 403 L-5 380 L4 380 C41 378 50 370 77 315 L236 -10 L196 -106 C182 -138 177 -143 133 -162 C97 -178 80 -195 80 -219 C80 -236 93 -248 113 -248 C148 -248 172 -220 206 -141 L395 292 C427 365 437 375 480 380 L485 380 L485 403 L336 403 L336 380 L345 380 C374 380 394 370 394 356 C394 349 391 340 386 331 C382 321 377 311 372 300 L275 76 Z M233 493 L250 493 L442 661 L342 661 L233 493 Z " />
<glyph glyph-name="thorn" unicode="&#xfe;" horiz-adv-x="548" d="M139 677 C85 662 42 654 2 652 L2 629 L18 629 C82 626 83 624 82 514 L82 -110 C83 -219 81 -222 18 -225 L2 -225 L2 -248 L223 -248 L223 -225 L217 -225 C153 -222 151 -219 153 -110 L153 44 C201 0 240 -16 296 -16 C421 -16 510 76 510 206 C510 330 424 419 307 419 C249 419 197 397 153 353 L153 677 L139 677 Z M153 321 C194 369 235 390 282 390 C333 390 380 362 405 319 C420 291 428 254 428 209 C428 144 411 86 383 57 C355 27 317 10 279 10 C233 10 192 31 153 76 L153 321 Z " />
<glyph glyph-name="ydieresis" unicode="&#xff;" horiz-adv-x="485" d="M275 76 L158 312 C140 349 138 353 138 360 C138 373 153 379 184 380 L189 380 L189 403 L-5 403 L-5 380 L4 380 C41 378 50 370 77 315 L236 -10 L196 -106 C182 -138 177 -143 133 -162 C97 -178 80 -195 80 -219 C80 -236 93 -248 113 -248 C148 -248 172 -220 206 -141 L395 292 C427 365 437 375 480 380 L485 380 L485 403 L336 403 L336 380 L345 380 C374 380 394 370 394 356 C394 349 391 340 386 331 C382 321 377 311 372 300 L275 76 Z M150 622 C127 622 109 604 109 582 C109 559 127 541 150 541 C172 541 190 559 190 582 C190 604 172 622 150 622 L150 622 Z M359 622 C337 622 319 604 319 582 C319 559 337 541 360 541 C382 541 400 559 400 582 C400 604 382 622 359 622 L359 622 Z " />
<glyph glyph-name="Amacron" unicode="&#x100;" horiz-adv-x="694" d="M442 245 L496 122 L502 108 C513 85 519 66 519 55 C519 33 495 23 442 23 L433 23 L433 0 L708 0 L708 23 L702 23 C646 32 638 41 592 146 L358 677 L338 677 L135 213 C113 163 112 161 105 145 C89 107 85 98 79 88 C58 49 34 31 -5 24 L-14 23 L-14 0 L194 0 L194 23 L185 23 C147 23 117 48 117 80 C117 109 120 117 158 203 L176 245 L442 245 Z M433 268 L186 268 L309 552 L433 268 Z M183 792 L183 764 L511 764 L511 792 L183 792 Z " />
<glyph glyph-name="amacron" unicode="&#x101;" horiz-adv-x="496" d="M466 74 C461 43 446 26 424 26 C413 26 403 32 398 41 C391 56 391 57 391 115 L391 278 C391 338 385 357 358 381 C329 407 289 419 230 419 C180 419 141 410 108 391 C78 374 58 348 58 326 C58 310 71 298 90 298 C112 298 127 314 132 343 C135 363 136 364 142 372 C154 388 182 398 217 398 C260 398 292 384 307 358 C315 344 317 331 317 289 L317 269 L237 238 C154 205 82 163 62 134 C49 115 42 96 42 76 C42 27 86 -10 146 -10 C192 -10 244 11 317 60 C326 12 352 -10 399 -10 C451 -10 483 22 486 74 L466 74 Z M317 246 L317 87 C263 46 219 26 186 26 C150 26 124 54 124 94 C124 147 168 188 260 224 L317 246 Z M97 565 L378 565 L378 588 L97 588 L97 565 Z " />
<glyph glyph-name="Abreve" unicode="&#x102;" horiz-adv-x="694" d="M442 245 L496 122 L502 108 C513 85 519 66 519 55 C519 33 495 23 442 23 L433 23 L433 0 L708 0 L708 23 L702 23 C646 32 638 41 592 146 L358 677 L338 677 L135 213 C113 163 112 161 105 145 C89 107 85 98 79 88 C58 49 34 31 -5 24 L-14 23 L-14 0 L194 0 L194 23 L185 23 C147 23 117 48 117 80 C117 109 120 117 158 203 L176 245 L442 245 Z M433 268 L186 268 L309 552 L433 268 Z M196 865 C213 771 270 714 346 714 C427 714 493 777 504 865 L491 865 C463 819 407 791 347 791 C290 791 247 814 209 865 L196 865 Z " />
<glyph glyph-name="abreve" unicode="&#x103;" horiz-adv-x="496" d="M466 74 C461 43 446 26 424 26 C413 26 403 32 398 41 C391 56 391 57 391 115 L391 278 C391 338 385 357 358 381 C329 407 289 419 230 419 C180 419 141 410 108 391 C78 374 58 348 58 326 C58 310 71 298 90 298 C112 298 127 314 132 343 C135 363 136 364 142 372 C154 388 182 398 217 398 C260 398 292 384 307 358 C315 344 317 331 317 289 L317 269 L237 238 C154 205 82 163 62 134 C49 115 42 96 42 76 C42 27 86 -10 146 -10 C192 -10 244 11 317 60 C326 12 352 -10 399 -10 C451 -10 483 22 486 74 L466 74 Z M317 246 L317 87 C263 46 219 26 186 26 C150 26 124 54 124 94 C124 147 168 188 260 224 L317 246 Z M117 651 C126 564 175 510 244 510 C312 510 363 565 372 651 L355 651 C337 602 302 580 245 580 C183 580 147 602 132 651 L117 651 Z " />
<glyph glyph-name="Aogonek" unicode="&#x104;" horiz-adv-x="694" d="M708 0 L708 23 L702 23 C646 32 638 41 592 146 L358 677 L338 677 L135 213 C113 163 112 161 105 145 C89 107 85 98 79 88 C58 49 34 31 -5 24 L-14 23 L-14 0 L194 0 L194 23 L185 23 C147 23 117 48 117 80 C117 109 120 117 158 203 L176 245 L442 245 L496 122 L502 108 C513 85 519 66 519 55 C519 33 495 23 442 23 L433 23 L433 0 L596 0 C549 -22 517 -63 517 -102 C517 -149 561 -184 621 -184 C656 -184 684 -175 722 -151 L711 -135 C688 -142 677 -144 661 -144 C619 -144 588 -117 588 -81 C588 -51 603 -25 635 0 L708 0 Z M433 268 L186 268 L309 552 L433 268 Z " />
<glyph glyph-name="aogonek" unicode="&#x105;" horiz-adv-x="496" d="M466 74 C461 43 446 26 424 26 C413 26 403 32 398 41 C391 56 391 57 391 115 L391 278 C391 338 385 357 358 381 C329 407 289 419 230 419 C180 419 141 410 108 391 C78 374 58 348 58 326 C58 310 71 298 90 298 C112 298 127 314 132 343 C135 363 136 364 142 372 C154 388 182 398 217 398 C260 398 292 384 307 358 C315 344 317 331 317 289 L317 269 L237 238 C154 205 82 163 62 134 C49 115 42 96 42 76 C42 27 86 -10 146 -10 C192 -10 244 11 317 60 C324 23 340 3 371 -6 C336 -28 314 -61 314 -93 C314 -136 352 -168 404 -168 C434 -168 459 -160 491 -138 L482 -124 C462 -130 452 -132 438 -132 C402 -132 375 -107 375 -74 C375 -52 385 -29 404 -10 C452 -9 484 24 486 74 L466 74 Z M317 246 L317 87 C263 46 219 26 186 26 C150 26 124 54 124 94 C124 147 168 188 260 224 L317 246 Z " />
<glyph glyph-name="Cacute" unicode="&#x106;" horiz-adv-x="761" d="M663 250 C656 198 636 147 606 104 C567 50 492 16 413 16 C325 16 249 60 205 135 C177 185 162 251 162 329 C162 430 192 530 237 582 C279 628 339 654 408 654 C487 654 566 617 606 562 C634 524 652 477 663 414 L685 414 L679 667 L656 667 C653 636 645 609 629 581 C577 641 485 679 393 679 C190 679 49 533 49 324 C49 125 188 -12 390 -12 C489 -12 567 20 629 87 C647 66 657 45 663 17 L685 17 L685 250 L663 250 Z M466 847 L365 724 L384 724 L605 847 L466 847 Z " />
<glyph glyph-name="cacute" unicode="&#x107;" horiz-adv-x="452" d="M404 98 C387 42 340 10 274 10 C234 10 199 22 175 44 C142 74 120 141 120 215 C120 272 136 330 159 358 C180 382 218 396 263 396 C306 396 324 384 332 351 C339 318 349 307 375 307 C395 307 409 321 409 341 C409 382 341 419 265 419 C135 419 38 324 38 197 C38 73 128 -16 253 -16 C343 -16 404 24 427 98 L404 98 Z M216 493 L232 493 L424 661 L324 661 L216 493 Z " />
<glyph glyph-name="Ccircumflex" unicode="&#x108;" horiz-adv-x="761" d="M663 250 C656 198 636 147 606 104 C567 50 492 16 413 16 C325 16 249 60 205 135 C177 185 162 251 162 329 C162 430 192 530 237 582 C279 628 339 654 408 654 C487 654 566 617 606 562 C634 524 652 477 663 414 L685 414 L679 667 L656 667 C653 636 645 609 629 581 C577 641 485 679 393 679 C190 679 49 533 49 324 C49 125 188 -12 390 -12 C489 -12 567 20 629 87 C647 66 657 45 663 17 L685 17 L685 250 L663 250 Z M357 856 L233 725 L252 725 L380 802 L546 725 L565 725 L442 856 L357 856 Z " />
<glyph glyph-name="Cdotaccent" unicode="&#x10a;" horiz-adv-x="761" d="M663 250 C656 198 636 147 606 104 C567 50 492 16 413 16 C325 16 249 60 205 135 C177 185 162 251 162 329 C162 430 192 530 237 582 C279 628 339 654 408 654 C487 654 566 617 606 562 C634 524 652 477 663 414 L685 414 L679 667 L656 667 C653 636 645 609 629 581 C577 641 485 679 393 679 C190 679 49 533 49 324 C49 125 188 -12 390 -12 C489 -12 567 20 629 87 C647 66 657 45 663 17 L685 17 L685 250 L663 250 Z M403 828 C376 828 353 806 353 779 C353 750 375 728 403 728 C431 728 453 750 453 778 C453 806 431 828 403 828 L403 828 Z " />
<glyph glyph-name="cdotaccent" unicode="&#x10b;" horiz-adv-x="452" d="M404 98 C387 42 340 10 274 10 C234 10 199 22 175 44 C142 74 120 141 120 215 C120 272 136 330 159 358 C180 382 218 396 263 396 C306 396 324 384 332 351 C339 318 349 307 375 307 C395 307 409 321 409 341 C409 382 341 419 265 419 C135 419 38 324 38 197 C38 73 128 -16 253 -16 C343 -16 404 24 427 98 L404 98 Z M271 622 C248 622 230 604 230 582 C230 559 248 541 271 541 C293 541 311 559 311 582 C311 604 293 622 271 622 L271 622 Z " />
<glyph glyph-name="Ccaron" unicode="&#x10c;" horiz-adv-x="761" d="M663 250 C656 198 636 147 606 104 C567 50 492 16 413 16 C325 16 249 60 205 135 C177 185 162 251 162 329 C162 430 192 530 237 582 C279 628 339 654 408 654 C487 654 566 617 606 562 C634 524 652 477 663 414 L685 414 L679 667 L656 667 C653 636 645 609 629 581 C577 641 485 679 393 679 C190 679 49 533 49 324 C49 125 188 -12 390 -12 C489 -12 567 20 629 87 C647 66 657 45 663 17 L685 17 L685 250 L663 250 Z M442 725 L566 856 L547 856 L419 779 L253 856 L234 856 L357 725 L442 725 Z " />
<glyph glyph-name="ccaron" unicode="&#x10d;" horiz-adv-x="452" d="M404 98 C387 42 340 10 274 10 C234 10 199 22 175 44 C142 74 120 141 120 215 C120 272 136 330 159 358 C180 382 218 396 263 396 C306 396 324 384 332 351 C339 318 349 307 375 307 C395 307 409 321 409 341 C409 382 341 419 265 419 C135 419 38 324 38 197 C38 73 128 -16 253 -16 C343 -16 404 24 427 98 L404 98 Z M280 557 L172 657 L153 657 L245 492 L295 492 L383 657 L364 657 L280 557 Z " />
<glyph glyph-name="Dcaron" unicode="&#x10e;" horiz-adv-x="809" d="M35 639 L56 639 C148 640 154 632 153 495 L153 173 C154 35 149 26 62 23 L32 23 L32 0 L341 0 C466 0 495 3 556 24 C688 68 760 175 760 327 C760 459 704 563 602 621 C538 657 457 674 349 674 C312 674 243 672 180 669 C123 666 85 664 35 662 L35 639 Z M249 648 C281 649 306 650 337 650 C444 650 505 631 559 582 C620 526 653 434 653 319 C653 170 593 69 484 36 C454 27 414 23 352 23 C296 23 270 31 261 51 C249 76 249 76 249 202 L249 648 Z M408 725 L532 856 L513 856 L385 779 L219 856 L200 856 L323 725 L408 725 Z " />
<glyph glyph-name="dcaron" unicode="&#x10f;" horiz-adv-x="626" d="M399 360 C356 398 300 419 245 419 C127 419 38 325 38 200 C38 79 128 -16 241 -16 C298 -16 351 8 404 57 C403 51 403 44 403 43 C403 17 404 7 409 -16 C426 -12 504 -4 542 -3 L542 19 L534 19 C471 22 469 26 470 135 L470 677 L460 677 C409 663 367 657 324 656 L324 633 L335 633 C399 629 400 628 399 518 L399 360 Z M399 84 C362 38 313 13 261 13 C173 13 120 85 120 203 C120 322 170 388 260 388 C306 388 350 370 399 331 L399 84 Z M515 464 C580 479 619 524 619 586 C619 639 590 677 549 677 C521 677 502 658 502 630 C502 605 521 587 548 587 C552 587 555 587 557 588 C568 592 568 592 573 592 C583 592 589 583 589 568 C589 530 561 499 515 487 L515 464 Z " />
<glyph glyph-name="Dcroat" unicode="&#x110;" horiz-adv-x="810" d="M154 344 L32 344 L32 317 L154 317 L154 173 C155 35 150 26 63 23 L33 23 L33 0 L342 0 C467 0 496 3 557 24 C689 68 761 175 761 327 C761 459 705 562 603 621 C538 657 459 674 350 674 C313 674 244 672 181 669 C125 666 86 664 36 662 L36 639 L57 639 C149 640 155 632 154 495 L154 344 Z M250 344 L250 648 C280 649 303 650 338 650 C445 650 506 631 560 582 C621 526 654 433 654 319 C654 170 594 69 485 36 C455 27 415 23 353 23 C297 23 271 31 262 51 C250 76 250 76 250 202 L250 317 L430 317 L430 344 L250 344 Z " />
<glyph glyph-name="dcroat" unicode="&#x111;" horiz-adv-x="551" d="M399 519 L399 360 C356 398 300 419 245 419 C127 419 38 325 38 200 C38 80 128 -16 241 -16 C298 -16 351 8 404 57 C403 51 403 44 403 43 C403 17 404 7 409 -16 C426 -12 504 -4 542 -3 L542 19 L534 19 C471 22 469 26 470 135 L470 519 L542 519 L542 542 L470 542 L470 677 L460 677 C409 663 367 657 324 656 L324 633 L335 633 C394 631 400 622 399 547 L399 542 L206 542 L206 519 L399 519 Z M399 84 C362 38 313 13 261 13 C173 13 120 85 120 203 C120 322 170 388 260 388 C306 388 350 370 399 331 L399 84 Z " />
<glyph glyph-name="Emacron" unicode="&#x112;" horiz-adv-x="657" d="M603 207 C563 70 509 22 392 23 L339 23 C240 22 235 30 235 183 L235 340 L313 340 C400 342 415 328 417 244 L417 235 L442 235 L442 464 L417 464 L417 456 C417 377 402 364 310 364 L235 364 L235 644 L334 644 C473 648 509 623 539 500 L563 500 L547 667 L46 667 L46 644 L55 644 C135 642 140 634 139 500 L139 173 C140 35 135 26 46 23 L32 23 L32 0 L612 0 L627 207 L603 207 Z M169 792 L169 764 L498 764 L498 792 L169 792 Z " />
<glyph glyph-name="emacron" unicode="&#x113;" horiz-adv-x="460" d="M422 266 C417 354 343 419 246 419 C127 419 39 325 39 198 C39 75 129 -16 250 -16 C331 -16 400 26 422 90 L397 90 C370 37 324 10 262 10 C228 10 197 21 172 43 C139 72 121 133 121 213 C121 232 122 244 125 266 L422 266 Z M332 286 L127 286 C135 323 141 339 155 357 C173 382 206 398 240 398 C274 398 306 381 318 356 C325 341 332 311 332 295 L332 286 Z M102 565 L383 565 L383 588 L102 588 L102 565 Z " />
<glyph glyph-name="Ebreve" unicode="&#x114;" horiz-adv-x="657" d="M603 207 C563 70 509 22 392 23 L339 23 C240 22 235 30 235 183 L235 340 L313 340 C400 342 415 328 417 244 L417 235 L442 235 L442 464 L417 464 L417 456 C417 377 402 364 310 364 L235 364 L235 644 L334 644 C473 648 509 623 539 500 L563 500 L547 667 L46 667 L46 644 L55 644 C135 642 140 634 139 500 L139 173 C140 35 135 26 46 23 L32 23 L32 0 L612 0 L627 207 L603 207 Z M180 865 C197 771 254 714 331 714 C411 714 477 777 488 865 L475 865 C447 819 391 791 331 791 C274 791 231 814 193 865 L180 865 Z " />
<glyph glyph-name="ebreve" unicode="&#x115;" horiz-adv-x="460" d="M422 266 C417 354 343 419 246 419 C127 419 39 325 39 198 C39 75 129 -16 250 -16 C331 -16 400 26 422 90 L397 90 C370 37 324 10 262 10 C228 10 197 21 172 43 C139 72 121 133 121 213 C121 232 122 244 125 266 L422 266 Z M332 286 L127 286 C135 323 141 339 155 357 C173 382 206 398 240 398 C274 398 306 381 318 356 C325 341 332 311 332 295 L332 286 Z M126 651 C135 564 184 510 253 510 C322 510 372 565 381 651 L365 651 C346 602 312 580 254 580 C193 580 157 602 142 651 L126 651 Z " />
<glyph glyph-name="Edotaccent" unicode="&#x116;" horiz-adv-x="657" d="M603 207 C563 70 509 22 392 23 L339 23 C240 22 235 30 235 183 L235 340 L313 340 C400 342 415 328 417 244 L417 235 L442 235 L442 464 L417 464 L417 456 C417 377 402 364 310 364 L235 364 L235 644 L334 644 C473 648 509 623 539 500 L563 500 L547 667 L46 667 L46 644 L55 644 C135 642 140 634 139 500 L139 173 C140 35 135 26 46 23 L32 23 L32 0 L612 0 L627 207 L603 207 Z M340 828 C313 828 290 806 290 779 C290 750 312 728 340 728 C368 728 390 750 390 778 C390 806 368 828 340 828 L340 828 Z " />
<glyph glyph-name="edotaccent" unicode="&#x117;" horiz-adv-x="460" d="M422 266 C417 354 343 419 246 419 C127 419 39 325 39 198 C39 75 129 -16 250 -16 C331 -16 400 26 422 90 L397 90 C370 37 324 10 262 10 C228 10 197 21 172 43 C139 72 121 133 121 213 C121 232 122 244 125 266 L422 266 Z M332 286 L127 286 C135 323 141 339 155 357 C173 382 206 398 240 398 C274 398 306 381 318 356 C325 341 332 311 332 295 L332 286 Z M248 622 C225 622 207 604 207 582 C207 559 225 541 248 541 C270 541 288 559 288 582 C288 604 270 622 248 622 L248 622 Z " />
<glyph glyph-name="Eogonek" unicode="&#x118;" horiz-adv-x="657" d="M612 0 L627 207 L603 207 C563 70 509 22 392 23 L339 23 C240 22 235 30 235 183 L235 340 L313 340 C400 342 415 328 417 244 L417 235 L442 235 L442 464 L417 464 L417 456 C417 377 402 364 310 364 L235 364 L235 644 L334 644 C473 648 509 623 539 500 L563 500 L547 667 L46 667 L46 644 L55 644 C135 642 140 634 139 500 L139 173 C140 35 135 26 46 23 L32 23 L32 0 L482 0 C434 -23 402 -63 402 -102 C402 -149 446 -184 506 -184 C541 -184 570 -175 607 -151 L597 -135 C574 -142 562 -144 546 -144 C504 -144 473 -117 473 -81 C473 -51 489 -25 521 0 L612 0 Z " />
<glyph glyph-name="eogonek" unicode="&#x119;" horiz-adv-x="460" d="M397 90 C370 37 324 10 262 10 C228 10 197 21 172 43 C139 72 121 133 121 213 C121 232 122 244 125 266 L422 266 C417 354 343 419 246 419 C127 419 39 325 39 198 C39 75 129 -16 252 -16 C260 -16 266 -16 275 -15 C246 -37 230 -65 230 -93 C230 -136 268 -168 320 -168 C350 -168 375 -160 408 -138 L398 -124 C378 -130 369 -132 355 -132 C318 -132 291 -107 291 -73 C291 -46 304 -23 332 0 C377 18 409 51 422 90 L397 90 Z M332 286 L127 286 C135 323 141 339 155 357 C173 382 206 398 240 398 C274 398 306 381 318 356 C325 341 332 311 332 295 L332 286 Z " />
<glyph glyph-name="Ecaron" unicode="&#x11a;" horiz-adv-x="657" d="M603 207 C563 70 509 22 392 23 L339 23 C240 22 235 30 235 183 L235 340 L313 340 C400 342 415 328 417 244 L417 235 L442 235 L442 464 L417 464 L417 456 C417 377 402 364 310 364 L235 364 L235 644 L334 644 C473 648 509 623 539 500 L563 500 L547 667 L46 667 L46 644 L55 644 C135 642 140 634 139 500 L139 173 C140 35 135 26 46 23 L32 23 L32 0 L612 0 L627 207 L603 207 Z M379 725 L503 856 L484 856 L356 779 L190 856 L171 856 L294 725 L379 725 Z " />
<glyph glyph-name="ecaron" unicode="&#x11b;" horiz-adv-x="460" d="M422 266 C417 354 343 419 246 419 C127 419 39 325 39 198 C39 75 129 -16 250 -16 C331 -16 400 26 422 90 L397 90 C370 37 324 10 262 10 C228 10 197 21 172 43 C139 72 121 133 121 213 C121 232 122 244 125 266 L422 266 Z M332 286 L127 286 C135 323 141 339 155 357 C173 382 206 398 240 398 C274 398 306 381 318 356 C325 341 332 311 332 295 L332 286 Z M261 557 L153 657 L133 657 L226 492 L276 492 L364 657 L345 657 L261 557 Z " />
<glyph glyph-name="Gcircumflex" unicode="&#x11c;" horiz-adv-x="809" d="M483 285 L483 261 L499 261 C571 264 585 250 587 178 L587 152 C587 115 576 86 555 64 C524 32 468 12 411 12 C324 12 246 54 205 123 C177 172 161 248 161 339 C161 427 175 496 203 545 C242 612 323 656 411 656 C540 656 636 569 656 432 L681 432 L681 655 L656 655 C652 625 646 604 635 581 C572 648 497 680 402 680 C305 680 217 646 156 586 C90 520 49 419 49 322 C49 129 197 -12 399 -12 C455 -12 496 -4 561 19 C602 34 641 43 667 43 C672 43 677 42 688 41 L688 112 C687 250 692 258 777 261 L785 261 L785 285 L483 285 Z M373 856 L249 725 L268 725 L396 802 L562 725 L581 725 L458 856 L373 856 Z " />
<glyph glyph-name="gcircumflex" unicode="&#x11d;" horiz-adv-x="496" d="M363 368 C330 400 279 419 227 419 C129 419 53 354 53 271 C53 215 87 166 151 129 C90 119 57 90 57 48 C57 34 62 21 72 8 C92 -16 152 -31 235 -32 C359 -35 408 -61 408 -124 C408 -189 346 -228 244 -228 C140 -228 74 -189 74 -128 C74 -103 85 -81 109 -57 C102 -55 100 -55 94 -55 C55 -55 30 -81 30 -122 C30 -197 115 -248 243 -248 C376 -248 458 -193 458 -103 C458 -59 436 -20 400 3 C366 24 302 35 208 37 C131 39 97 50 97 73 C97 100 132 113 207 116 C257 117 282 122 313 135 C368 160 402 211 402 269 C402 300 393 328 376 355 C392 372 406 381 419 381 C430 381 434 378 443 362 C451 349 461 342 473 342 C490 342 503 356 503 374 C503 397 481 415 452 415 C421 415 393 400 363 368 L363 368 Z M225 396 C249 396 274 387 292 371 C315 351 326 318 326 266 C326 183 291 138 226 138 C162 138 127 183 127 267 C127 349 163 396 225 396 L225 396 Z M227 596 L335 496 L355 496 L262 661 L213 661 L124 496 L143 496 L227 596 Z " />
<glyph glyph-name="Gbreve" unicode="&#x11e;" horiz-adv-x="809" d="M483 285 L483 261 L499 261 C571 264 585 250 587 178 L587 152 C587 115 576 86 555 64 C524 32 468 12 411 12 C324 12 246 54 205 123 C177 172 161 248 161 339 C161 427 175 496 203 545 C242 612 323 656 411 656 C540 656 636 569 656 432 L681 432 L681 655 L656 655 C652 625 646 604 635 581 C572 648 497 680 402 680 C305 680 217 646 156 586 C90 520 49 419 49 322 C49 129 197 -12 399 -12 C455 -12 496 -4 561 19 C602 34 641 43 667 43 C672 43 677 42 688 41 L688 112 C687 250 692 258 777 261 L785 261 L785 285 L483 285 Z M255 865 C272 771 329 714 406 714 C486 714 552 777 563 865 L550 865 C522 819 466 791 406 791 C349 791 306 814 268 865 L255 865 Z " />
<glyph glyph-name="gbreve" unicode="&#x11f;" horiz-adv-x="496" d="M363 368 C330 400 279 419 227 419 C129 419 53 354 53 271 C53 215 87 166 151 129 C90 119 57 90 57 48 C57 34 62 21 72 8 C92 -16 152 -31 235 -32 C359 -35 408 -61 408 -124 C408 -189 346 -228 244 -228 C140 -228 74 -189 74 -128 C74 -103 85 -81 109 -57 C102 -55 100 -55 94 -55 C55 -55 30 -81 30 -122 C30 -197 115 -248 243 -248 C376 -248 458 -193 458 -103 C458 -59 436 -20 400 3 C366 24 302 35 208 37 C131 39 97 50 97 73 C97 100 132 113 207 116 C257 117 282 122 313 135 C368 160 402 211 402 269 C402 300 393 328 376 355 C392 372 406 381 419 381 C430 381 434 378 443 362 C451 349 461 342 473 342 C490 342 503 356 503 374 C503 397 481 415 452 415 C421 415 393 400 363 368 L363 368 Z M225 396 C249 396 274 387 292 371 C315 351 326 318 326 266 C326 183 291 138 226 138 C162 138 127 183 127 267 C127 349 163 396 225 396 L225 396 Z M112 651 C121 564 170 510 239 510 C308 510 358 565 367 651 L351 651 C332 602 298 580 240 580 C178 580 142 602 127 651 L112 651 Z " />
<glyph glyph-name="Gdotaccent" unicode="&#x120;" horiz-adv-x="809" d="M483 285 L483 261 L499 261 C571 264 585 250 587 178 L587 152 C587 115 576 86 555 64 C524 32 468 12 411 12 C324 12 246 54 205 123 C177 172 161 248 161 339 C161 427 175 496 203 545 C242 612 323 656 411 656 C540 656 636 569 656 432 L681 432 L681 655 L656 655 C652 625 646 604 635 581 C572 648 497 680 402 680 C305 680 217 646 156 586 C90 520 49 419 49 322 C49 129 197 -12 399 -12 C455 -12 496 -4 561 19 C602 34 641 43 667 43 C672 43 677 42 688 41 L688 112 C687 250 692 258 777 261 L785 261 L785 285 L483 285 Z M406 828 C379 828 356 806 356 779 C356 750 378 728 406 728 C434 728 456 750 456 778 C456 806 434 828 406 828 L406 828 Z " />
<glyph glyph-name="gdotaccent" unicode="&#x121;" horiz-adv-x="496" d="M363 368 C330 400 279 419 227 419 C129 419 53 354 53 271 C53 215 87 166 151 129 C90 119 57 90 57 48 C57 34 62 21 72 8 C92 -16 152 -31 235 -32 C359 -35 408 -61 408 -124 C408 -189 346 -228 244 -228 C140 -228 74 -189 74 -128 C74 -103 85 -81 109 -57 C102 -55 100 -55 94 -55 C55 -55 30 -81 30 -122 C30 -197 115 -248 243 -248 C376 -248 458 -193 458 -103 C458 -59 436 -20 400 3 C366 24 302 35 208 37 C131 39 97 50 97 73 C97 100 132 113 207 116 C257 117 282 122 313 135 C368 160 402 211 402 269 C402 300 393 328 376 355 C392 372 406 381 419 381 C430 381 434 378 443 362 C451 349 461 342 473 342 C490 342 503 356 503 374 C503 397 481 415 452 415 C421 415 393 400 363 368 L363 368 Z M225 396 C249 396 274 387 292 371 C315 351 326 318 326 266 C326 183 291 138 226 138 C162 138 127 183 127 267 C127 349 163 396 225 396 L225 396 Z M236 622 C213 622 195 604 195 582 C195 559 213 541 236 541 C258 541 276 559 276 582 C276 604 258 622 236 622 L236 622 Z " />
<glyph glyph-name="Gcommaaccent" unicode="&#x122;" horiz-adv-x="809" d="M483 285 L483 261 L499 261 C571 264 585 250 587 178 L587 152 C587 115 576 86 555 64 C524 32 468 12 411 12 C324 12 246 54 205 123 C177 172 161 248 161 339 C161 427 175 496 203 545 C242 612 323 656 411 656 C540 656 636 569 656 432 L681 432 L681 655 L656 655 C652 625 646 604 635 581 C572 648 497 680 402 680 C305 680 217 646 156 586 C90 520 49 419 49 322 C49 129 197 -12 399 -12 C455 -12 496 -4 561 19 C602 34 641 43 667 43 C672 43 677 42 688 41 L688 112 C687 250 692 258 777 261 L785 261 L785 285 L483 285 Z M346 -286 C415 -270 457 -222 457 -157 C457 -100 425 -59 381 -59 C349 -59 328 -79 328 -110 C328 -138 349 -157 378 -157 C382 -157 386 -157 388 -156 C402 -152 402 -152 406 -152 C417 -152 424 -162 424 -179 C424 -218 394 -249 346 -262 L346 -286 Z " />
<glyph glyph-name="gcommaaccent" unicode="&#x123;" horiz-adv-x="496" d="M363 368 C330 400 279 419 227 419 C129 419 53 354 53 271 C53 215 87 166 151 129 C90 119 57 90 57 48 C57 34 62 21 72 8 C92 -16 152 -31 235 -32 C359 -35 408 -61 408 -124 C408 -189 346 -228 244 -228 C140 -228 74 -189 74 -128 C74 -103 85 -81 109 -57 C102 -55 100 -55 94 -55 C55 -55 30 -81 30 -122 C30 -197 115 -248 243 -248 C376 -248 458 -193 458 -103 C458 -59 436 -20 400 3 C366 24 302 35 208 37 C131 39 97 50 97 73 C97 100 132 113 207 116 C257 117 282 122 313 135 C368 160 402 211 402 269 C402 300 393 328 376 355 C392 372 406 381 419 381 C430 381 434 378 443 362 C451 349 461 342 473 342 C490 342 503 356 503 374 C503 397 481 415 452 415 C421 415 393 400 363 368 L363 368 Z M225 396 C249 396 274 387 292 371 C315 351 326 318 326 266 C326 183 291 138 226 138 C162 138 127 183 127 267 C127 349 163 396 225 396 L225 396 Z M272 670 C207 656 168 610 168 549 C168 496 197 458 238 458 C266 458 285 477 285 504 C285 529 266 547 239 547 C235 547 232 547 230 546 C218 543 218 543 214 543 C204 543 198 552 198 567 C198 605 226 636 272 647 L272 670 Z " />
<glyph glyph-name="Hcircumflex" unicode="&#x124;" horiz-adv-x="842" d="M608 334 L608 173 C609 35 603 26 517 23 L493 23 L493 0 L811 0 L811 23 L795 23 C708 26 703 35 704 173 L704 500 C703 638 708 645 800 644 L811 644 L811 667 L493 667 L493 644 L512 644 C603 645 608 638 608 500 L608 368 L238 368 L238 500 C237 638 242 645 334 644 L347 644 L347 667 L32 667 L32 644 L45 644 C137 646 142 638 142 500 L142 173 C143 35 137 26 51 23 L32 23 L32 0 L347 0 L347 23 L328 23 C242 26 237 35 238 173 L238 334 L608 334 Z M391 856 L266 725 L285 725 L413 802 L579 725 L598 725 L475 856 L391 856 Z " />
<glyph glyph-name="Hbar" unicode="&#x126;" horiz-adv-x="842" d="M142 442 L142 173 C143 35 137 26 51 23 L32 23 L32 0 L347 0 L347 23 L328 23 C242 26 237 35 238 173 L238 334 L608 334 L608 173 C609 35 603 26 517 23 L493 23 L493 0 L811 0 L811 23 L795 23 C708 26 703 35 704 173 L704 442 L793 442 L793 470 L704 470 L704 501 C703 638 708 646 800 644 L811 644 L811 667 L493 667 L493 644 L512 644 C603 646 608 638 608 501 L608 470 L238 470 L238 501 C237 638 242 646 334 644 L347 644 L347 667 L32 667 L32 644 L45 644 C137 646 142 638 142 501 L142 470 L45 470 L45 442 L142 442 Z M238 442 L608 442 L608 368 L238 368 L238 442 Z " />
<glyph glyph-name="hbar" unicode="&#x127;" horiz-adv-x="562" d="M100 519 L100 138 C101 29 99 26 36 23 L25 23 L25 0 L240 0 L240 23 L236 23 C172 26 170 29 171 138 L171 300 C202 357 249 389 300 389 C338 389 370 373 382 349 C392 330 395 309 395 259 L395 138 C396 29 394 26 331 23 L320 23 L320 0 L539 0 L539 23 L530 23 C467 26 465 29 466 138 L466 249 C466 312 462 337 449 361 C431 396 382 419 328 419 C264 419 215 393 171 337 L171 519 L344 519 L344 542 L171 542 L171 677 L161 677 C140 667 66 655 28 656 L28 633 L36 633 C91 631 101 617 100 542 L28 542 L28 519 L100 519 Z " />
<glyph glyph-name="Imacron" unicode="&#x12a;" horiz-adv-x="383" d="M32 644 L47 644 C139 646 145 638 144 501 L144 173 C145 35 140 26 53 23 L32 23 L32 0 L352 0 L352 23 L331 23 C244 26 239 35 240 173 L240 501 C239 638 244 646 336 644 L352 644 L352 667 L32 667 L32 644 Z M28 792 L28 764 L356 764 L356 792 L28 792 Z " />
<glyph glyph-name="imacron" unicode="&#x12b;" horiz-adv-x="264" d="M170 419 L159 419 C125 408 75 398 17 393 L17 370 L31 370 C94 370 99 363 99 260 L99 138 C100 28 98 26 35 23 L17 23 L17 0 L245 0 L245 23 L234 23 C171 26 169 29 170 138 L170 419 Z M-10 565 L239 565 L239 588 L-10 588 L-10 565 Z " />
<glyph glyph-name="ibreve" unicode="&#x12d;" horiz-adv-x="264" d="M170 419 L159 419 C125 408 75 398 17 393 L17 370 L31 370 C94 370 99 363 99 260 L99 138 C100 28 98 26 35 23 L17 23 L17 0 L245 0 L245 23 L234 23 C171 26 169 29 170 138 L170 419 Z M3 651 C12 564 61 510 130 510 C199 510 249 565 258 651 L242 651 C223 602 189 580 131 580 C69 580 34 602 19 651 L3 651 Z " />
<glyph glyph-name="Iogonek" unicode="&#x12e;" horiz-adv-x="383" d="M352 0 L352 23 L331 23 C244 26 239 35 240 173 L240 501 C239 638 244 646 336 644 L352 644 L352 667 L32 667 L32 644 L47 644 C139 646 145 638 144 501 L144 173 C145 35 140 26 53 23 L32 23 L32 0 L229 0 C181 -22 149 -63 149 -102 C149 -149 193 -184 253 -184 C288 -184 316 -175 354 -151 L343 -135 C320 -142 309 -144 293 -144 C251 -144 220 -117 220 -81 C220 -51 236 -25 268 0 L352 0 Z " />
<glyph glyph-name="iogonek" unicode="&#x12f;" horiz-adv-x="264" d="M244 0 L244 23 L233 23 C169 26 168 29 169 138 L169 419 L158 419 C124 408 74 398 16 393 L16 370 L30 370 C93 370 97 363 98 260 L98 138 C99 28 97 26 34 23 L16 23 L16 0 L145 0 C104 -20 77 -57 77 -93 C77 -136 115 -168 167 -168 C198 -168 222 -160 255 -138 L246 -124 C226 -130 216 -132 202 -132 C166 -132 139 -107 139 -73 C139 -47 152 -23 179 0 L244 0 Z M124 677 C96 677 73 654 73 626 C73 596 95 573 124 573 C152 573 175 596 175 625 C175 654 152 677 124 677 L124 677 Z " />
<glyph glyph-name="Idotaccent" unicode="&#x130;" horiz-adv-x="383" d="M32 644 L47 644 C139 646 145 638 144 501 L144 173 C145 35 140 26 53 23 L32 23 L32 0 L352 0 L352 23 L331 23 C244 26 239 35 240 173 L240 501 C239 638 244 646 336 644 L352 644 L352 667 L32 667 L32 644 Z M192 828 C165 828 142 806 142 779 C142 750 164 728 192 728 C220 728 242 750 242 778 C242 806 220 828 192 828 L192 828 Z " />
<glyph glyph-name="dotlessi" unicode="&#x131;" horiz-adv-x="264" d="M169 419 L158 419 C124 408 74 398 16 393 L16 370 L30 370 C93 370 97 363 98 260 L98 138 C99 28 97 26 34 23 L16 23 L16 0 L244 0 L244 23 L233 23 C169 26 168 29 169 138 L169 419 Z " />
<glyph glyph-name="Kcommaaccent" unicode="&#x136;" horiz-adv-x="785" d="M240 327 L240 501 C239 638 244 646 337 644 L350 644 L350 667 L40 667 L40 644 L47 644 C139 646 145 638 144 501 L144 173 C145 35 140 26 53 23 L31 23 L31 0 L345 0 L345 23 L331 23 C244 26 239 35 240 173 L240 295 L291 337 L490 147 C544 96 565 70 565 55 C565 31 541 23 477 23 L463 23 L463 0 L827 0 L827 23 L819 23 C749 30 747 32 627 146 L365 399 L492 511 C607 616 645 639 714 644 L720 644 L720 667 L456 667 L456 644 L461 644 C505 643 530 628 530 603 C530 582 510 557 456 511 L240 327 Z M337 -286 C406 -270 448 -222 448 -157 C448 -100 416 -59 372 -59 C340 -59 319 -79 319 -110 C319 -138 340 -157 369 -157 C373 -157 377 -157 379 -156 C393 -152 393 -152 397 -152 C408 -152 415 -162 415 -179 C415 -218 385 -249 337 -262 L337 -286 Z " />
<glyph glyph-name="kcommaaccent" unicode="&#x137;" horiz-adv-x="485" d="M279 403 L279 380 L287 380 C308 380 319 372 319 359 C319 337 305 323 211 253 L165 223 L165 677 L155 677 C135 667 61 655 24 656 L24 633 L31 633 C85 631 95 617 94 542 L94 138 C95 28 93 26 30 23 L14 23 L14 0 L228 0 L228 23 L225 23 C166 26 164 31 165 138 L165 196 L188 212 L297 92 C324 63 332 52 332 44 C332 31 317 24 284 23 L279 23 L279 0 L490 0 L490 23 L485 23 C454 28 436 40 396 85 L245 253 L278 277 C287 284 303 296 324 314 C384 363 407 375 445 380 L449 380 L449 403 L279 403 Z M192 -272 C257 -257 296 -212 296 -150 C296 -97 267 -59 226 -59 C198 -59 179 -78 179 -106 C179 -131 198 -149 225 -149 C229 -149 232 -149 234 -148 C245 -144 245 -144 250 -144 C260 -144 266 -153 266 -168 C266 -206 238 -237 192 -249 L192 -272 Z " />
<glyph glyph-name="Lacute" unicode="&#x139;" horiz-adv-x="645" d="M631 197 L607 197 C566 57 520 18 401 23 L347 23 C243 26 238 31 240 152 L240 501 C239 638 244 646 336 644 L368 644 L368 667 L32 667 L32 644 L47 644 C139 646 145 638 144 501 L144 174 C145 35 140 26 53 23 L32 23 L32 0 L626 0 L631 197 Z M286 847 L184 724 L204 724 L425 847 L286 847 Z " />
<glyph glyph-name="lacute" unicode="&#x13a;" horiz-adv-x="260" d="M168 677 L157 677 C137 667 64 655 25 656 L25 633 L32 633 C89 631 98 617 97 537 L97 138 C97 28 96 26 33 23 L18 23 L18 0 L245 0 L245 23 L232 23 C168 26 166 29 168 138 L168 677 Z M194 847 L93 724 L113 724 L333 847 L194 847 Z " />
<glyph glyph-name="Lcommaaccent" unicode="&#x13b;" horiz-adv-x="645" d="M631 197 L607 197 C566 57 520 18 401 23 L347 23 C243 26 238 31 240 152 L240 501 C239 638 244 646 336 644 L368 644 L368 667 L32 667 L32 644 L47 644 C139 646 145 638 144 501 L144 174 C145 35 140 26 53 23 L32 23 L32 0 L626 0 L631 197 Z M307 -286 C376 -271 418 -222 418 -157 C418 -100 386 -59 342 -59 C310 -59 289 -79 289 -110 C289 -138 310 -157 339 -157 C343 -157 347 -157 349 -156 C363 -152 363 -152 367 -152 C378 -152 385 -162 385 -179 C385 -218 355 -249 307 -262 L307 -286 Z " />
<glyph glyph-name="lcommaaccent" unicode="&#x13c;" horiz-adv-x="260" d="M168 677 L157 677 C137 667 64 655 25 656 L25 633 L32 633 C89 631 98 617 97 537 L97 138 C97 28 96 26 33 23 L18 23 L18 0 L245 0 L245 23 L232 23 C168 26 166 29 168 138 L168 677 Z M90 -272 C155 -257 194 -212 194 -150 C194 -97 165 -59 124 -59 C96 -59 77 -78 77 -106 C77 -131 95 -149 123 -149 C127 -149 130 -149 132 -148 C143 -144 143 -144 147 -144 C158 -144 164 -153 164 -168 C164 -206 135 -237 90 -249 L90 -272 Z " />
<glyph glyph-name="Lcaron" unicode="&#x13d;" horiz-adv-x="645" d="M631 197 L607 197 C566 57 520 18 401 23 L347 23 C243 26 238 31 240 152 L240 501 C239 638 244 646 336 644 L368 644 L368 667 L32 667 L32 644 L47 644 C139 646 145 638 144 501 L144 174 C145 35 140 26 53 23 L32 23 L32 0 L626 0 L631 197 Z M410 440 C479 456 521 504 521 569 C521 626 489 667 445 667 C413 667 392 647 392 616 C392 588 413 569 442 569 C446 569 450 569 452 570 C466 574 466 574 470 574 C481 574 488 564 488 547 C488 508 458 477 410 465 L410 440 Z " />
<glyph glyph-name="lcaron" unicode="&#x13e;" horiz-adv-x="325" d="M168 677 L157 677 C137 667 64 655 25 656 L25 633 L32 633 C89 631 98 617 97 537 L97 138 C97 28 96 26 33 23 L18 23 L18 0 L245 0 L245 23 L232 23 C168 26 166 29 168 138 L168 677 Z M218 464 C283 479 322 524 322 586 C322 639 293 677 252 677 C224 677 205 658 205 630 C205 605 223 587 251 587 C255 587 258 587 260 588 C271 592 271 592 275 592 C286 592 292 583 292 568 C292 530 263 499 218 487 L218 464 Z " />
<glyph glyph-name="Ldot" unicode="&#x13f;" horiz-adv-x="645" d="M631 197 L607 197 C566 57 520 18 401 23 L347 23 C243 26 238 31 240 152 L240 501 C239 638 244 646 336 644 L368 644 L368 667 L32 667 L32 644 L47 644 C139 646 145 638 144 501 L144 174 C145 35 140 26 53 23 L32 23 L32 0 L626 0 L631 197 Z M404 368 C381 368 363 350 363 328 C363 305 381 287 404 287 C426 287 444 305 444 328 C444 350 426 368 404 368 L404 368 Z " />
<glyph glyph-name="ldot" unicode="&#x140;" horiz-adv-x="289" d="M168 677 L157 677 C137 667 64 655 25 656 L25 633 L32 633 C89 631 98 617 97 537 L97 138 C97 28 96 26 33 23 L18 23 L18 0 L245 0 L245 23 L232 23 C168 26 166 29 168 138 L168 677 Z M248 370 C226 370 208 352 208 330 C208 307 226 289 248 289 C271 289 289 307 289 330 C289 352 271 370 248 370 L248 370 Z " />
<glyph glyph-name="Lslash" unicode="&#x141;" horiz-adv-x="645" d="M144 282 L144 174 C145 35 140 26 53 23 L32 23 L32 0 L627 0 L632 197 L607 197 C569 59 519 18 401 23 L347 23 C242 26 238 31 240 152 L240 356 L383 466 L383 501 L240 392 L240 501 C239 638 244 646 336 644 L368 644 L368 667 L32 667 L32 644 L47 644 C139 646 145 638 144 501 L144 318 L39 237 L39 202 L144 282 Z " />
<glyph glyph-name="lslash" unicode="&#x142;" horiz-adv-x="281" d="M167 344 L167 677 L157 677 C136 667 63 655 24 656 L24 633 L32 633 C88 631 97 617 96 537 L96 293 L17 238 L17 202 L96 258 L96 138 C97 28 95 26 32 23 L17 23 L17 0 L243 0 L243 23 L230 23 C168 26 166 29 167 138 L167 308 L243 363 L243 398 L167 344 Z " />
<glyph glyph-name="Nacute" unicode="&#x143;" horiz-adv-x="803" d="M654 -15 L675 -15 L675 537 C671 610 694 633 776 644 L785 644 L785 667 L531 667 L531 644 L545 644 C630 638 652 617 651 544 L651 145 L236 667 L30 667 L30 644 L35 644 C125 646 133 635 134 501 L134 147 C134 85 133 77 126 65 C117 45 77 27 33 23 L21 23 L21 0 L282 0 L282 23 L274 23 C213 25 176 42 164 72 C160 83 159 86 158 147 L158 610 L654 -15 Z M469 847 L367 724 L387 724 L608 847 L469 847 Z " />
<glyph glyph-name="nacute" unicode="&#x144;" horiz-adv-x="562" d="M146 419 C103 407 68 400 30 396 L30 374 L38 374 C102 370 103 369 102 258 L102 138 C103 29 101 26 38 23 L30 23 L30 0 L243 0 L243 23 L237 23 C172 26 170 29 172 138 L172 303 C214 360 259 388 310 388 C344 388 373 373 385 351 C396 330 397 325 397 268 L397 138 C398 29 396 26 332 23 L322 23 L322 0 L539 0 L539 23 L532 23 C468 26 467 29 468 138 L468 264 C468 328 466 338 452 364 C432 398 389 419 338 419 C276 419 221 392 172 336 C171 371 167 398 159 419 L146 419 Z M242 493 L258 493 L451 661 L351 661 L242 493 Z " />
<glyph glyph-name="Ncommaaccent" unicode="&#x145;" horiz-adv-x="803" d="M654 -15 L675 -15 L675 537 C671 610 694 633 776 644 L785 644 L785 667 L531 667 L531 644 L545 644 C630 638 652 617 651 544 L651 145 L236 667 L30 667 L30 644 L35 644 C125 646 133 635 134 501 L134 147 C134 85 133 77 126 65 C117 45 77 27 33 23 L21 23 L21 0 L282 0 L282 23 L274 23 C213 25 176 42 164 72 C160 83 159 86 158 147 L158 610 L654 -15 Z M347 -286 C416 -270 458 -222 458 -157 C458 -100 426 -59 382 -59 C350 -59 329 -79 329 -110 C329 -138 350 -157 379 -157 C383 -157 387 -157 389 -156 C403 -152 403 -152 407 -152 C418 -152 425 -162 425 -179 C425 -218 395 -249 347 -262 L347 -286 Z " />
<glyph glyph-name="ncommaaccent" unicode="&#x146;" horiz-adv-x="562" d="M146 419 C103 407 68 400 30 396 L30 374 L38 374 C102 370 103 369 102 258 L102 138 C103 29 101 26 38 23 L30 23 L30 0 L243 0 L243 23 L237 23 C172 26 170 29 172 138 L172 303 C214 360 259 388 310 388 C344 388 373 373 385 351 C396 330 397 325 397 268 L397 138 C398 29 396 26 332 23 L322 23 L322 0 L539 0 L539 23 L532 23 C468 26 467 29 468 138 L468 264 C468 328 466 338 452 364 C432 398 389 419 338 419 C276 419 221 392 172 336 C171 371 167 398 159 419 L146 419 Z M239 -272 C304 -257 343 -211 343 -150 C343 -97 314 -59 273 -59 C245 -59 226 -78 226 -106 C226 -131 245 -149 272 -149 C276 -149 279 -149 281 -148 C292 -144 292 -144 296 -144 C307 -144 313 -153 313 -168 C313 -206 284 -237 239 -249 L239 -272 Z " />
<glyph glyph-name="Ncaron" unicode="&#x147;" horiz-adv-x="803" d="M654 -15 L675 -15 L675 537 C671 610 694 633 776 644 L785 644 L785 667 L531 667 L531 644 L545 644 C630 638 652 617 651 544 L651 145 L236 667 L30 667 L30 644 L35 644 C125 646 133 635 134 501 L134 147 C134 85 133 77 126 65 C117 45 77 27 33 23 L21 23 L21 0 L282 0 L282 23 L274 23 C213 25 176 42 164 72 C160 83 159 86 158 147 L158 610 L654 -15 Z M453 725 L577 856 L558 856 L430 779 L264 856 L245 856 L368 725 L453 725 Z " />
<glyph glyph-name="ncaron" unicode="&#x148;" horiz-adv-x="562" d="M146 419 C103 407 68 400 30 396 L30 374 L38 374 C102 370 103 369 102 258 L102 138 C103 29 101 26 38 23 L30 23 L30 0 L243 0 L243 23 L237 23 C172 26 170 29 172 138 L172 303 C214 360 259 388 310 388 C344 388 373 373 385 351 C396 330 397 325 397 268 L397 138 C398 29 396 26 332 23 L322 23 L322 0 L539 0 L539 23 L532 23 C468 26 467 29 468 138 L468 264 C468 328 466 338 452 364 C432 398 389 419 338 419 C276 419 221 392 172 336 C171 371 167 398 159 419 L146 419 Z M307 557 L199 657 L179 657 L272 492 L321 492 L410 657 L391 657 L307 557 Z " />
<glyph glyph-name="Omacron" unicode="&#x14c;" horiz-adv-x="860" d="M429 679 C327 679 220 642 155 585 C88 525 49 437 49 342 C49 248 78 167 133 105 C198 33 310 -12 425 -12 C658 -12 811 125 811 335 C811 539 656 679 429 679 L429 679 Z M429 654 C526 654 610 611 652 539 C682 487 698 414 698 332 C698 252 683 183 653 128 C636 96 606 67 567 45 C530 23 488 13 437 13 C358 13 297 33 248 74 C193 121 162 217 162 345 C162 438 191 532 235 579 C281 628 348 654 429 654 L429 654 Z M266 792 L266 764 L594 764 L594 792 L266 792 Z " />
<glyph glyph-name="omacron" unicode="&#x14d;" horiz-adv-x="528" d="M264 419 C137 419 39 325 39 204 C39 141 62 82 103 44 C142 8 205 -16 264 -16 C394 -16 490 76 490 201 C490 326 394 419 264 419 L264 419 Z M264 396 C301 396 336 384 359 364 C391 337 408 278 408 200 C408 65 364 6 263 6 C227 6 193 17 169 37 C138 63 121 121 121 203 C121 268 138 331 162 356 C186 382 222 396 264 396 L264 396 Z M128 565 L409 565 L409 588 L128 588 L128 565 Z " />
<glyph glyph-name="Ohungarumlaut" unicode="&#x150;" horiz-adv-x="860" d="M429 679 C327 679 220 642 155 585 C88 525 49 437 49 342 C49 248 78 167 133 105 C198 33 310 -12 425 -12 C658 -12 811 125 811 335 C811 539 656 679 429 679 L429 679 Z M429 654 C526 654 610 611 652 539 C682 487 698 414 698 332 C698 252 683 183 653 128 C636 96 606 67 567 45 C530 23 488 13 437 13 C358 13 297 33 248 74 C193 121 162 217 162 345 C162 438 191 532 235 579 C281 628 348 654 429 654 L429 654 Z M417 847 L315 724 L335 724 L556 847 L417 847 Z M604 847 L502 724 L522 724 L743 847 L604 847 Z " />
<glyph glyph-name="ohungarumlaut" unicode="&#x151;" horiz-adv-x="528" d="M264 419 C137 419 39 325 39 204 C39 141 62 82 103 44 C142 8 205 -16 264 -16 C394 -16 490 76 490 201 C490 326 394 419 264 419 L264 419 Z M264 396 C301 396 336 384 359 364 C391 337 408 278 408 200 C408 65 364 6 263 6 C227 6 193 17 169 37 C138 63 121 121 121 203 C121 268 138 331 162 356 C186 382 222 396 264 396 L264 396 Z M173 493 L189 493 L382 661 L282 661 L173 493 Z M341 493 L357 493 L550 661 L450 661 L341 493 Z " />
<glyph glyph-name="OE" unicode="&#x152;" horiz-adv-x="983" d="M955 210 L932 210 C925 175 911 136 891 100 C856 37 832 25 738 23 L683 23 C584 23 580 30 580 187 L580 341 L659 341 C731 343 746 326 747 241 L747 235 L772 235 L772 471 L747 471 L747 464 C745 381 729 363 660 364 L580 364 L580 644 L715 644 C802 649 833 620 863 507 L887 507 L873 667 L562 667 L493 668 C427 671 427 671 408 671 C310 671 222 640 161 584 C91 518 49 423 49 327 C49 137 195 -4 394 -4 L460 -3 C529 0 543 0 601 0 L940 0 L955 210 Z M484 141 C484 88 479 59 467 47 C451 30 420 20 385 20 C248 20 162 143 162 341 C162 527 254 647 397 647 C435 647 468 635 476 619 C483 605 484 598 484 540 L484 141 Z " />
<glyph glyph-name="oe" unicode="&#x153;" horiz-adv-x="825" d="M787 268 C770 360 700 419 607 419 C545 419 491 394 445 343 C402 390 336 419 268 419 C141 419 39 322 39 200 C39 77 136 -16 263 -16 C337 -16 402 14 445 67 C482 15 546 -16 614 -16 C691 -16 759 25 782 84 L761 91 C738 41 688 10 628 10 C532 10 474 81 474 201 C474 226 475 244 479 268 L787 268 Z M483 288 C500 358 541 397 597 397 C657 397 695 355 697 288 L483 288 Z M263 397 C313 397 357 375 378 339 C396 308 402 273 402 205 C402 137 396 103 378 68 C357 29 313 5 260 5 C207 5 169 25 145 65 C127 96 121 128 121 190 C121 257 129 302 147 335 C168 374 212 397 263 397 L263 397 Z " />
<glyph glyph-name="Racute" unicode="&#x154;" horiz-adv-x="731" d="M773 0 L773 23 L768 23 C698 23 645 59 559 167 C489 260 427 326 400 335 C524 350 599 413 599 504 C599 560 570 605 515 636 C465 664 399 677 304 677 C274 677 202 675 139 672 L37 667 L37 644 L50 644 C142 646 147 638 146 501 L146 174 C147 35 142 26 55 23 L32 23 L32 0 L367 0 L367 23 L333 23 C246 26 241 35 242 174 L242 322 L271 322 C310 325 333 304 431 175 C497 86 554 21 585 0 L773 0 Z M242 345 L242 650 C262 651 274 652 291 652 C356 652 399 644 430 627 C469 606 491 558 491 496 C491 455 479 417 459 393 C434 364 377 346 303 346 L254 345 L242 345 Z M372 847 L270 724 L290 724 L510 847 L372 847 Z " />
<glyph glyph-name="racute" unicode="&#x155;" horiz-adv-x="383" d="M30 368 L41 368 C105 364 106 363 105 252 L105 138 C106 29 104 26 41 23 L30 23 L30 0 L255 0 L255 23 L240 23 C177 26 175 29 176 138 L176 210 C176 264 177 275 186 298 C204 343 249 384 280 384 C291 384 299 377 307 359 C318 332 328 323 346 323 C365 323 381 338 381 357 C381 390 347 419 309 419 C255 419 198 376 172 316 C171 359 166 393 156 419 C104 403 67 395 30 390 L30 368 Z M169 493 L186 493 L378 661 L278 661 L169 493 Z " />
<glyph glyph-name="Rcommaaccent" unicode="&#x156;" horiz-adv-x="731" d="M773 0 L773 23 L768 23 C698 23 645 59 559 167 C489 260 427 326 400 335 C524 350 599 413 599 504 C599 560 570 605 515 636 C465 664 399 677 304 677 C274 677 202 675 139 672 L37 667 L37 644 L50 644 C142 646 147 638 146 501 L146 174 C147 35 142 26 55 23 L32 23 L32 0 L367 0 L367 23 L333 23 C246 26 241 35 242 174 L242 322 L271 322 C310 325 333 304 431 175 C497 86 554 21 585 0 L773 0 Z M242 345 L242 650 C262 651 274 652 291 652 C356 652 399 644 430 627 C469 606 491 558 491 496 C491 455 479 417 459 393 C434 364 377 346 303 346 L254 345 L242 345 Z M309 -286 C378 -270 420 -222 420 -157 C420 -100 388 -59 344 -59 C312 -59 291 -79 291 -110 C291 -138 312 -157 341 -157 C345 -157 349 -157 351 -156 C365 -152 365 -152 369 -152 C380 -152 387 -162 387 -179 C387 -218 357 -249 309 -262 L309 -286 Z " />
<glyph glyph-name="rcommaaccent" unicode="&#x157;" horiz-adv-x="383" d="M30 368 L41 368 C105 364 106 363 105 252 L105 138 C106 29 104 26 41 23 L30 23 L30 0 L255 0 L255 23 L240 23 C177 26 175 29 176 138 L176 210 C176 264 177 275 186 298 C204 343 249 384 280 384 C291 384 299 377 307 359 C318 332 328 323 346 323 C365 323 381 338 381 357 C381 390 347 419 309 419 C255 419 198 376 172 316 C171 359 166 393 156 419 C104 403 67 395 30 390 L30 368 Z M101 -272 C166 -257 205 -212 205 -150 C205 -97 176 -59 135 -59 C107 -59 88 -78 88 -106 C88 -131 107 -149 134 -149 C138 -149 141 -149 143 -148 C154 -144 154 -144 159 -144 C169 -144 175 -153 175 -168 C175 -206 147 -237 101 -249 L101 -272 Z " />
<glyph glyph-name="Rcaron" unicode="&#x158;" horiz-adv-x="731" d="M773 0 L773 23 L768 23 C698 23 645 59 559 167 C489 260 427 326 400 335 C524 350 599 413 599 504 C599 560 570 605 515 636 C465 664 399 677 304 677 C274 677 202 675 139 672 L37 667 L37 644 L50 644 C142 646 147 638 146 501 L146 174 C147 35 142 26 55 23 L32 23 L32 0 L367 0 L367 23 L333 23 C246 26 241 35 242 174 L242 322 L271 322 C310 325 333 304 431 175 C497 86 554 21 585 0 L773 0 Z M242 345 L242 650 C262 651 274 652 291 652 C356 652 399 644 430 627 C469 606 491 558 491 496 C491 455 479 417 459 393 C434 364 377 346 303 346 L254 345 L242 345 Z M375 725 L499 856 L480 856 L352 779 L186 856 L167 856 L290 725 L375 725 Z " />
<glyph glyph-name="rcaron" unicode="&#x159;" horiz-adv-x="383" d="M30 368 L41 368 C105 364 106 363 105 252 L105 138 C106 29 104 26 41 23 L30 23 L30 0 L255 0 L255 23 L240 23 C177 26 175 29 176 138 L176 210 C176 264 177 275 186 298 C204 343 249 384 280 384 C291 384 299 377 307 359 C318 332 328 323 346 323 C365 323 381 338 381 357 C381 390 347 419 309 419 C255 419 198 376 172 316 C171 359 166 393 156 419 C104 403 67 395 30 390 L30 368 Z M228 557 L120 657 L100 657 L193 492 L242 492 L331 657 L312 657 L228 557 Z " />
<glyph glyph-name="Sacute" unicode="&#x15a;" horiz-adv-x="573" d="M61 7 L87 7 C92 35 100 55 112 72 C163 16 228 -12 305 -12 C436 -12 524 66 524 181 C524 231 506 277 473 309 C444 338 398 363 300 403 C176 453 131 493 131 553 C131 614 180 656 252 656 C343 656 413 595 440 492 L463 492 L463 667 L440 667 C438 644 430 627 414 608 C364 659 318 679 253 679 C144 679 66 609 66 513 C66 467 86 420 119 387 C145 362 191 336 261 308 C353 271 370 262 397 243 C433 216 453 181 453 142 C453 67 387 12 298 12 C187 12 115 84 87 221 L61 221 L61 7 Z M328 847 L227 724 L247 724 L467 847 L328 847 Z " />
<glyph glyph-name="sacute" unicode="&#x15b;" horiz-adv-x="352" d="M43 -13 L63 -13 C69 6 76 20 86 29 C122 -5 148 -16 189 -16 C265 -16 318 33 318 103 C318 167 281 208 189 246 C114 277 88 300 88 336 C88 370 119 397 158 397 C210 397 254 353 270 288 L289 288 L289 412 L270 412 C261 392 255 382 250 377 C225 405 195 419 158 419 C95 419 44 369 44 307 C44 254 81 214 165 178 C243 144 269 119 269 77 C269 35 237 5 192 5 C130 5 88 42 63 119 L43 119 L43 -13 Z M132 493 L148 493 L340 661 L240 661 L132 493 Z " />
<glyph glyph-name="Scircumflex" unicode="&#x15c;" horiz-adv-x="573" d="M61 7 L87 7 C92 35 100 55 112 72 C163 16 228 -12 305 -12 C436 -12 524 66 524 181 C524 231 506 277 473 309 C444 338 398 363 300 403 C176 453 131 493 131 553 C131 614 180 656 252 656 C343 656 413 595 440 492 L463 492 L463 667 L440 667 C438 644 430 627 414 608 C364 659 318 679 253 679 C144 679 66 609 66 513 C66 467 86 420 119 387 C145 362 191 336 261 308 C353 271 370 262 397 243 C433 216 453 181 453 142 C453 67 387 12 298 12 C187 12 115 84 87 221 L61 221 L61 7 Z M253 856 L129 725 L148 725 L276 802 L442 725 L461 725 L338 856 L253 856 Z " />
<glyph glyph-name="scircumflex" unicode="&#x15d;" horiz-adv-x="352" d="M43 -13 L63 -13 C69 6 76 20 86 29 C122 -5 148 -16 189 -16 C265 -16 318 33 318 103 C318 167 281 208 189 246 C114 277 88 300 88 336 C88 370 119 397 158 397 C210 397 254 353 270 288 L289 288 L289 412 L270 412 C261 392 255 382 250 377 C225 405 195 419 158 419 C95 419 44 369 44 307 C44 254 81 214 165 178 C243 144 269 119 269 77 C269 35 237 5 192 5 C130 5 88 42 63 119 L43 119 L43 -13 Z M172 596 L280 496 L300 496 L207 661 L158 661 L69 496 L88 496 L172 596 Z " />
<glyph glyph-name="Scedilla" unicode="&#x15e;" horiz-adv-x="573" d="M302 -12 C436 -13 524 64 524 181 C524 231 506 277 473 309 C444 338 399 362 300 403 C176 453 131 493 131 553 C131 614 180 656 252 656 C343 656 413 595 440 492 L463 492 L463 667 L440 667 C438 644 430 627 414 608 C364 659 318 679 253 679 C144 679 66 609 66 513 C66 467 86 420 119 387 C145 362 191 336 261 308 C353 271 370 262 397 243 C433 216 453 181 453 142 C453 67 387 12 298 12 C187 12 115 84 87 221 L61 221 L61 7 L87 7 C92 35 100 55 112 72 C155 23 212 -5 280 -11 L261 -107 C310 -109 337 -129 337 -162 C337 -196 305 -220 260 -220 C237 -220 217 -217 189 -209 L180 -229 C216 -239 242 -243 273 -243 C345 -243 400 -203 400 -152 C400 -104 361 -73 293 -66 L302 -12 Z " />
<glyph glyph-name="scedilla" unicode="&#x15f;" horiz-adv-x="352" d="M181 -16 L190 -16 C265 -16 318 34 318 103 C318 167 281 208 189 246 C114 277 88 300 88 336 C88 370 119 397 158 397 C210 397 254 353 270 288 L289 288 L289 412 L270 412 C261 392 255 382 250 377 C225 405 195 419 158 419 C95 419 44 369 44 307 C44 254 81 214 165 178 C243 144 269 119 269 77 C269 35 237 5 192 5 C130 5 88 42 63 119 L43 119 L43 -13 L63 -13 C69 6 76 20 86 29 C115 2 137 -10 165 -14 L151 -96 C188 -98 208 -116 208 -146 C208 -176 184 -198 150 -198 C133 -198 118 -195 97 -188 L90 -206 C118 -215 138 -219 160 -219 C213 -219 255 -183 255 -137 C255 -94 226 -66 175 -59 L181 -16 Z " />
<glyph glyph-name="Scaron" unicode="&#x160;" horiz-adv-x="573" d="M61 7 L87 7 C92 35 100 55 112 72 C163 16 228 -12 305 -12 C436 -12 524 66 524 181 C524 231 506 277 473 309 C444 338 398 363 300 403 C176 453 131 493 131 553 C131 614 180 656 252 656 C343 656 413 595 440 492 L463 492 L463 667 L440 667 C438 644 430 627 414 608 C364 659 318 679 253 679 C144 679 66 609 66 513 C66 467 86 420 119 387 C145 362 191 336 261 308 C353 271 370 262 397 243 C433 216 453 181 453 142 C453 67 387 12 298 12 C187 12 115 84 87 221 L61 221 L61 7 Z M319 725 L443 856 L425 856 L296 779 L131 856 L111 856 L234 725 L319 725 Z " />
<glyph glyph-name="scaron" unicode="&#x161;" horiz-adv-x="352" d="M43 -13 L63 -13 C69 6 76 20 86 29 C122 -5 148 -16 189 -16 C265 -16 318 33 318 103 C318 167 281 208 189 246 C114 277 88 300 88 336 C88 370 119 397 158 397 C210 397 254 353 270 288 L289 288 L289 412 L270 412 C261 392 255 382 250 377 C225 405 195 419 158 419 C95 419 44 369 44 307 C44 254 81 214 165 178 C243 144 269 119 269 77 C269 35 237 5 192 5 C130 5 88 42 63 119 L43 119 L43 -13 Z M194 557 L86 657 L67 657 L159 492 L209 492 L297 657 L278 657 L194 557 Z " />
<glyph glyph-name="Tcommaaccent" unicode="&#x162;" horiz-adv-x="722" d="M41 506 C67 628 91 648 207 644 L313 644 L313 174 C314 35 309 26 222 23 L185 23 L185 0 L534 0 L534 23 L500 23 C413 26 408 35 409 174 L409 644 L524 644 C631 648 656 626 682 506 L704 506 L700 667 L21 667 L18 506 L41 506 Z M320 -286 C389 -270 431 -222 431 -157 C431 -100 399 -59 355 -59 C323 -59 302 -79 302 -110 C302 -138 323 -157 352 -157 C356 -157 360 -157 362 -156 C376 -152 376 -152 380 -152 C391 -152 398 -162 398 -179 C398 -218 368 -249 320 -262 L320 -286 Z " />
<glyph glyph-name="tcommaaccent" unicode="&#x163;" horiz-adv-x="308" d="M290 380 L290 403 L161 403 L161 529 L145 529 C134 455 87 405 27 403 L27 380 L90 380 L90 152 C90 77 93 55 106 32 C124 3 159 -16 198 -16 C245 -16 286 9 307 49 L290 58 C271 31 250 18 225 18 C203 18 183 29 172 48 C163 64 161 81 161 137 L161 380 L290 380 Z M140 -272 C205 -257 244 -212 244 -150 C244 -97 215 -59 174 -59 C146 -59 127 -78 127 -106 C127 -131 146 -149 173 -149 C177 -149 180 -149 182 -148 C193 -144 193 -144 198 -144 C208 -144 214 -153 214 -168 C214 -206 186 -237 140 -249 L140 -272 Z " />
<glyph glyph-name="Tcaron" unicode="&#x164;" horiz-adv-x="722" d="M41 506 C67 628 91 648 207 644 L313 644 L313 174 C314 35 309 26 222 23 L185 23 L185 0 L534 0 L534 23 L500 23 C413 26 408 35 409 174 L409 644 L524 644 C631 648 656 626 682 506 L704 506 L700 667 L21 667 L18 506 L41 506 Z M403 725 L527 856 L508 856 L380 779 L214 856 L195 856 L318 725 L403 725 Z " />
<glyph glyph-name="tcaron" unicode="&#x165;" horiz-adv-x="321" d="M290 380 L290 403 L161 403 L161 529 L145 529 C134 455 87 405 27 403 L27 380 L90 380 L90 152 C90 77 93 55 106 32 C124 3 159 -16 198 -16 C245 -16 286 9 307 49 L290 58 C271 31 250 18 225 18 C203 18 183 29 172 48 C163 64 161 81 161 137 L161 380 L290 380 Z M207 471 C272 485 311 531 311 592 C311 645 282 683 241 683 C213 683 194 664 194 637 C194 612 213 594 240 594 C244 594 247 594 249 595 C261 598 261 598 265 598 C275 598 281 589 281 574 C281 536 253 505 207 493 L207 471 Z " />
<glyph glyph-name="utilde" unicode="&#x169;" horiz-adv-x="551" d="M457 403 L312 403 L312 380 L323 380 C387 377 388 375 387 265 L387 174 C387 128 385 115 373 93 C348 49 295 17 245 17 C216 17 186 32 175 54 C167 68 165 82 165 124 L165 403 L23 403 L23 380 L30 380 C94 377 95 375 94 265 L94 128 C94 77 104 42 122 24 C148 -1 186 -16 225 -16 C288 -16 348 19 387 78 C388 32 393 2 404 -16 L410 -16 C433 -6 473 -1 524 0 L524 23 L519 23 C458 26 456 30 457 139 L457 403 Z M146 524 C149 567 167 592 195 592 C207 592 219 587 235 574 C290 531 306 523 338 523 C398 523 432 565 432 639 L418 639 C416 595 399 570 369 570 C352 570 338 577 313 597 C273 629 252 639 225 639 C168 639 130 593 131 524 L146 524 Z " />
<glyph glyph-name="Umacron" unicode="&#x16a;" horiz-adv-x="813" d="M558 667 L558 644 L564 644 C650 636 667 613 665 513 L665 286 C665 191 663 173 650 139 C622 69 535 22 431 22 C350 22 284 52 255 102 C233 139 230 164 230 291 L230 501 C229 638 234 646 326 644 L340 644 L340 667 L21 667 L21 644 L37 644 C129 646 135 638 134 501 L134 293 L134 202 C137 154 144 126 160 99 C202 29 292 -12 407 -12 C512 -12 595 19 643 77 C682 123 689 155 689 282 L689 504 C685 605 703 632 782 644 L792 644 L792 667 L558 667 Z M261 792 L261 764 L590 764 L590 792 L261 792 Z " />
<glyph glyph-name="umacron" unicode="&#x16b;" horiz-adv-x="551" d="M457 403 L312 403 L312 380 L323 380 C387 377 388 375 387 265 L387 174 C387 128 385 115 373 93 C348 49 295 17 245 17 C216 17 186 32 175 54 C167 68 165 82 165 124 L165 403 L23 403 L23 380 L30 380 C94 377 95 375 94 265 L94 128 C94 77 104 42 122 24 C148 -1 186 -16 225 -16 C288 -16 348 19 387 78 C388 32 393 2 404 -16 L410 -16 C433 -6 473 -1 524 0 L524 23 L519 23 C458 26 456 30 457 139 L457 403 Z M133 565 L414 565 L414 588 L133 588 L133 565 Z " />
<glyph glyph-name="ubreve" unicode="&#x16d;" horiz-adv-x="551" d="M457 403 L312 403 L312 380 L323 380 C387 377 388 375 387 265 L387 174 C387 128 385 115 373 93 C348 49 295 17 245 17 C216 17 186 32 175 54 C167 68 165 82 165 124 L165 403 L23 403 L23 380 L30 380 C94 377 95 375 94 265 L94 128 C94 77 104 42 122 24 C148 -1 186 -16 225 -16 C288 -16 348 19 387 78 C388 32 393 2 404 -16 L410 -16 C433 -6 473 -1 524 0 L524 23 L519 23 C458 26 456 30 457 139 L457 403 Z M146 651 C155 564 204 510 273 510 C342 510 392 565 401 651 L385 651 C366 602 332 580 274 580 C212 580 177 602 162 651 L146 651 Z " />
<glyph glyph-name="Uring" unicode="&#x16e;" horiz-adv-x="813" d="M558 667 L558 644 L564 644 C650 636 667 613 665 513 L665 286 C665 191 663 173 650 139 C622 69 535 22 431 22 C350 22 284 52 255 102 C233 139 230 164 230 291 L230 501 C229 638 234 646 326 644 L340 644 L340 667 L21 667 L21 644 L37 644 C129 646 135 638 134 501 L134 293 L134 202 C137 154 144 126 160 99 C202 29 292 -12 407 -12 C512 -12 595 19 643 77 C682 123 689 155 689 282 L689 504 C685 605 703 632 782 644 L792 644 L792 667 L558 667 Z M444 893 C394 893 351 851 351 801 C351 748 392 705 444 705 C496 705 538 747 538 799 C538 851 496 893 444 893 L444 893 Z M444 868 C482 868 512 837 512 799 C512 761 481 730 444 730 C407 730 377 761 377 800 C377 837 408 868 444 868 L444 868 Z " />
<glyph glyph-name="uring" unicode="&#x16f;" horiz-adv-x="551" d="M457 403 L312 403 L312 380 L323 380 C387 377 388 375 387 265 L387 174 C387 128 385 115 373 93 C348 49 295 17 245 17 C216 17 186 32 175 54 C167 68 165 82 165 124 L165 403 L23 403 L23 380 L30 380 C94 377 95 375 94 265 L94 128 C94 77 104 42 122 24 C148 -1 186 -16 225 -16 C288 -16 348 19 387 78 C388 32 393 2 404 -16 L410 -16 C433 -6 473 -1 524 0 L524 23 L519 23 C458 26 456 30 457 139 L457 403 Z M288 668 C240 668 199 628 199 580 C199 530 238 490 288 490 C337 490 377 530 377 579 C377 628 337 668 288 668 L288 668 Z M288 640 C322 640 349 613 349 579 C349 545 322 518 288 518 C254 518 227 545 227 580 C227 613 255 640 288 640 L288 640 Z " />
<glyph glyph-name="Uhungarumlaut" unicode="&#x170;" horiz-adv-x="813" d="M558 667 L558 644 L564 644 C650 636 667 613 665 513 L665 286 C665 191 663 173 650 139 C622 69 535 22 431 22 C350 22 284 52 255 102 C233 139 230 164 230 291 L230 501 C229 638 234 646 326 644 L340 644 L340 667 L21 667 L21 644 L37 644 C129 646 135 638 134 501 L134 293 L134 202 C137 154 144 126 160 99 C202 29 292 -12 407 -12 C512 -12 595 19 643 77 C682 123 689 155 689 282 L689 504 C685 605 703 632 782 644 L792 644 L792 667 L558 667 Z M410 847 L309 724 L329 724 L549 847 L410 847 Z M597 847 L496 724 L516 724 L736 847 L597 847 Z " />
<glyph glyph-name="uhungarumlaut" unicode="&#x171;" horiz-adv-x="551" d="M457 403 L312 403 L312 380 L323 380 C387 377 388 375 387 265 L387 174 C387 128 385 115 373 93 C348 49 295 17 245 17 C216 17 186 32 175 54 C167 68 165 82 165 124 L165 403 L23 403 L23 380 L30 380 C94 377 95 375 94 265 L94 128 C94 77 104 42 122 24 C148 -1 186 -16 225 -16 C288 -16 348 19 387 78 C388 32 393 2 404 -16 L410 -16 C433 -6 473 -1 524 0 L524 23 L519 23 C458 26 456 30 457 139 L457 403 Z M170 493 L186 493 L378 661 L278 661 L170 493 Z M338 493 L354 493 L546 661 L446 661 L338 493 Z " />
<glyph glyph-name="Uogonek" unicode="&#x172;" horiz-adv-x="813" d="M633 -135 C610 -142 599 -144 583 -144 C542 -144 510 -117 510 -82 C510 -46 528 -21 586 25 C675 93 692 134 689 282 L689 504 C685 605 703 632 782 644 L792 644 L792 667 L558 667 L558 644 L564 644 C650 636 667 613 665 513 L665 286 C665 191 663 173 650 139 C622 69 535 22 431 22 C350 22 284 52 255 102 C233 139 230 164 230 291 L230 501 C229 638 234 646 326 644 L340 644 L340 667 L21 667 L21 644 L37 644 C129 646 135 638 134 501 L134 293 L134 202 C137 154 144 126 160 99 C202 29 292 -12 406 -12 C451 -12 490 -7 528 4 C472 -20 439 -60 439 -102 C439 -149 483 -184 542 -184 C578 -184 606 -175 643 -151 L633 -135 Z " />
<glyph glyph-name="uogonek" unicode="&#x173;" horiz-adv-x="551" d="M524 23 L519 23 C458 26 456 30 457 139 L457 403 L312 403 L312 380 L323 380 C387 377 388 375 387 265 L387 174 C387 128 385 115 373 93 C348 49 295 17 245 17 C216 17 186 32 175 54 C167 68 165 82 165 124 L165 403 L23 403 L23 380 L30 380 C94 377 95 375 94 265 L94 128 C94 77 104 42 122 24 C148 -1 186 -16 225 -16 C288 -16 348 19 387 78 C388 32 393 2 404 -16 L406 -16 C381 -36 364 -67 364 -93 C364 -136 402 -168 453 -168 C484 -168 508 -160 541 -138 L531 -124 C512 -130 502 -132 488 -132 C452 -132 425 -107 425 -73 C425 -49 438 -24 460 -4 C480 -2 498 0 524 0 L524 23 Z " />
<glyph glyph-name="Wcircumflex" unicode="&#x174;" horiz-adv-x="985" d="M722 -16 L877 486 C917 617 932 638 987 644 L992 644 L992 667 L800 667 L800 644 L805 644 C849 644 874 621 874 582 C874 557 873 553 852 486 L745 132 L540 667 L511 667 L328 132 L203 520 C200 530 195 543 190 559 C184 576 181 594 181 605 C181 630 199 640 249 644 L256 644 L256 667 L-7 667 L-7 644 L1 644 C56 642 70 623 106 503 L275 -16 L299 -16 L486 534 L699 -16 L722 -16 Z M480 856 L356 725 L375 725 L503 802 L669 725 L688 725 L565 856 L480 856 Z " />
<glyph glyph-name="Ycircumflex" unicode="&#x176;" horiz-adv-x="688" d="M382 292 L217 555 C195 590 191 599 191 611 C191 633 215 644 264 644 L270 644 L270 667 L-14 667 L-14 644 L-6 644 C38 643 53 631 91 573 C95 566 107 549 120 529 L297 256 L297 173 C298 35 292 26 205 23 L194 23 L194 0 L493 0 L493 23 L483 23 C396 26 390 35 392 173 L392 262 L551 511 C609 607 636 631 694 643 L702 644 L702 667 L473 667 L473 644 L478 644 C525 644 556 623 556 589 C556 570 549 556 522 512 L382 292 Z M325 856 L201 725 L220 725 L348 802 L514 725 L533 725 L410 856 L325 856 Z " />
<glyph glyph-name="ycircumflex" unicode="&#x177;" horiz-adv-x="485" d="M275 76 L158 312 C140 349 138 353 138 360 C138 373 153 379 184 380 L189 380 L189 403 L-5 403 L-5 380 L4 380 C41 378 50 370 77 315 L236 -10 L196 -106 C182 -138 177 -143 133 -162 C97 -178 80 -195 80 -219 C80 -236 93 -248 113 -248 C148 -248 172 -220 206 -141 L395 292 C427 365 437 375 480 380 L485 380 L485 403 L336 403 L336 380 L345 380 C374 380 394 370 394 356 C394 349 391 340 386 331 C382 321 377 311 372 300 L275 76 Z M240 596 L348 496 L368 496 L275 661 L226 661 L137 496 L156 496 L240 596 Z " />
<glyph glyph-name="Ydieresis" unicode="&#x178;" horiz-adv-x="688" d="M382 292 L217 555 C195 590 191 599 191 611 C191 633 215 644 264 644 L270 644 L270 667 L-14 667 L-14 644 L-6 644 C38 643 53 631 91 573 C95 566 107 549 120 529 L297 256 L297 173 C298 35 292 26 205 23 L194 23 L194 0 L493 0 L493 23 L483 23 C396 26 390 35 392 173 L392 262 L551 511 C609 607 636 631 694 643 L702 644 L702 667 L473 667 L473 644 L478 644 C525 644 556 623 556 589 C556 570 549 556 522 512 L382 292 Z M244 828 C216 828 194 806 194 779 C194 750 216 728 244 728 C271 728 294 750 294 778 C294 806 271 828 244 828 L244 828 Z M495 828 C467 828 445 806 445 779 C445 750 467 728 495 728 C522 728 545 750 545 778 C545 806 522 828 495 828 L495 828 Z " />
<glyph glyph-name="Zacute" unicode="&#x179;" horiz-adv-x="665" d="M32 0 L598 0 L621 173 L598 173 C580 120 553 73 525 50 C498 29 463 23 369 23 L156 23 L603 644 L603 667 L83 667 L60 513 L83 513 C94 557 118 597 146 622 C174 643 176 644 266 644 L484 644 L32 18 L32 0 Z M386 847 L284 724 L304 724 L525 847 L386 847 Z " />
<glyph glyph-name="zacute" unicode="&#x17a;" horiz-adv-x="445" d="M27 0 L396 0 L408 128 L387 128 C344 30 335 23 237 23 L121 23 L400 385 L400 403 L46 403 L39 291 L59 291 C89 369 103 382 154 380 L307 380 L27 16 L27 0 Z M192 493 L208 493 L401 661 L301 661 L192 493 Z " />
<glyph glyph-name="Zdotaccent" unicode="&#x17b;" horiz-adv-x="665" d="M32 0 L598 0 L621 173 L598 173 C580 120 553 73 525 50 C498 29 463 23 369 23 L156 23 L603 644 L603 667 L83 667 L60 513 L83 513 C94 557 118 597 146 622 C174 643 176 644 266 644 L484 644 L32 18 L32 0 Z M352 828 C325 828 302 806 302 779 C302 750 324 728 352 728 C380 728 402 750 402 778 C402 806 380 828 352 828 L352 828 Z " />
<glyph glyph-name="zdotaccent" unicode="&#x17c;" horiz-adv-x="445" d="M27 0 L396 0 L408 128 L387 128 C344 30 335 23 237 23 L121 23 L400 385 L400 403 L46 403 L39 291 L59 291 C89 369 103 382 154 380 L307 380 L27 16 L27 0 Z M235 622 C212 622 194 604 194 582 C194 559 212 541 235 541 C257 541 275 559 275 582 C275 604 257 622 235 622 L235 622 Z " />
<glyph glyph-name="Zcaron" unicode="&#x17d;" horiz-adv-x="665" d="M32 0 L598 0 L621 173 L598 173 C580 120 553 73 525 50 C498 29 463 23 369 23 L156 23 L603 644 L603 667 L83 667 L60 513 L83 513 C94 557 118 597 146 622 C174 643 176 644 266 644 L484 644 L32 18 L32 0 Z M387 725 L511 856 L492 856 L364 779 L198 856 L179 856 L302 725 L387 725 Z " />
<glyph glyph-name="zcaron" unicode="&#x17e;" horiz-adv-x="445" d="M27 0 L396 0 L408 128 L387 128 C344 30 335 23 237 23 L121 23 L400 385 L400 403 L46 403 L39 291 L59 291 C89 369 103 382 154 380 L307 380 L27 16 L27 0 Z M240 557 L132 657 L112 657 L205 492 L254 492 L343 657 L324 657 L240 557 Z " />
<glyph glyph-name="florin" unicode="&#x192;" horiz-adv-x="525" d="M358 441 C372 519 391 617 397 634 C405 658 428 676 450 676 C461 676 469 671 469 664 C469 660 467 657 462 650 C457 643 455 638 455 632 C455 617 470 604 488 604 C509 604 524 621 524 643 C524 676 493 700 452 700 C384 700 334 645 299 532 C271 451 264 446 191 442 L179 441 L171 408 L265 408 L260 388 C241 318 223 247 204 176 C202 166 184 84 158 -37 C137 -134 107 -187 71 -187 C63 -187 56 -183 56 -177 C56 -175 58 -171 62 -167 C69 -158 71 -154 71 -148 C71 -133 55 -119 37 -119 C14 -119 -4 -139 -4 -164 C-4 -194 23 -217 58 -217 C85 -217 110 -208 137 -188 C181 -156 222 -81 253 25 C299 185 334 320 352 408 L444 408 L453 441 L358 441 Z " />
<glyph glyph-name="uni01CD" unicode="&#x1cd;" horiz-adv-x="694" d="M442 245 L496 122 L502 108 C513 85 519 66 519 55 C519 33 495 23 442 23 L433 23 L433 0 L708 0 L708 23 L702 23 C646 32 638 41 592 146 L358 677 L338 677 L135 213 C113 163 112 161 105 145 C89 107 85 98 79 88 C58 49 34 31 -5 24 L-14 23 L-14 0 L194 0 L194 23 L185 23 C147 23 117 48 117 80 C117 109 120 117 158 203 L176 245 L442 245 Z M433 268 L186 268 L309 552 L433 268 Z M388 725 L513 856 L494 856 L366 779 L200 856 L181 856 L304 725 L388 725 Z " />
<glyph glyph-name="uni01CE" unicode="&#x1ce;" horiz-adv-x="496" d="M466 74 C461 43 446 26 424 26 C413 26 403 32 398 41 C391 56 391 57 391 115 L391 278 C391 338 385 357 358 381 C329 407 289 419 230 419 C180 419 141 410 108 391 C78 374 58 348 58 326 C58 310 71 298 90 298 C112 298 127 314 132 343 C135 363 136 364 142 372 C154 388 182 398 217 398 C260 398 292 384 307 358 C315 344 317 331 317 289 L317 269 L237 238 C154 205 82 163 62 134 C49 115 42 96 42 76 C42 27 86 -10 146 -10 C192 -10 244 11 317 60 C326 12 352 -10 399 -10 C451 -10 483 22 486 74 L466 74 Z M317 246 L317 87 C263 46 219 26 186 26 C150 26 124 54 124 94 C124 147 168 188 260 224 L317 246 Z M258 557 L150 657 L130 657 L223 492 L272 492 L361 657 L342 657 L258 557 Z " />
<glyph glyph-name="uni01D3" unicode="&#x1d3;" horiz-adv-x="813" d="M558 667 L558 644 L564 644 C650 636 667 613 665 513 L665 286 C665 191 663 173 650 139 C622 69 535 22 431 22 C350 22 284 52 255 102 C233 139 230 164 230 291 L230 501 C229 638 234 646 326 644 L340 644 L340 667 L21 667 L21 644 L37 644 C129 646 135 638 134 501 L134 293 L134 202 C137 154 144 126 160 99 C202 29 292 -12 407 -12 C512 -12 595 19 643 77 C682 123 689 155 689 282 L689 504 C685 605 703 632 782 644 L792 644 L792 667 L558 667 Z M488 725 L612 856 L593 856 L465 779 L299 856 L280 856 L403 725 L488 725 Z " />
<glyph glyph-name="uni01D4" unicode="&#x1d4;" horiz-adv-x="551" d="M457 403 L312 403 L312 380 L323 380 C387 377 388 375 387 265 L387 174 C387 128 385 115 373 93 C348 49 295 17 245 17 C216 17 186 32 175 54 C167 68 165 82 165 124 L165 403 L23 403 L23 380 L30 380 C94 377 95 375 94 265 L94 128 C94 77 104 42 122 24 C148 -1 186 -16 225 -16 C288 -16 348 19 387 78 C388 32 393 2 404 -16 L410 -16 C433 -6 473 -1 524 0 L524 23 L519 23 C458 26 456 30 457 139 L457 403 Z M300 557 L192 657 L172 657 L265 492 L314 492 L403 657 L384 657 L300 557 Z " />
<glyph glyph-name="Gcaron" unicode="&#x1e6;" horiz-adv-x="809" d="M483 285 L483 261 L499 261 C571 264 585 250 587 178 L587 152 C587 115 576 86 555 64 C524 32 468 12 411 12 C324 12 246 54 205 123 C177 172 161 248 161 339 C161 427 175 496 203 545 C242 612 323 656 411 656 C540 656 636 569 656 432 L681 432 L681 655 L656 655 C652 625 646 604 635 581 C572 648 497 680 402 680 C305 680 217 646 156 586 C90 520 49 419 49 322 C49 129 197 -12 399 -12 C455 -12 496 -4 561 19 C602 34 641 43 667 43 C672 43 677 42 688 41 L688 112 C687 250 692 258 777 261 L785 261 L785 285 L483 285 Z M443 725 L567 856 L549 856 L421 779 L255 856 L236 856 L358 725 L443 725 Z " />
<glyph glyph-name="gcaron" unicode="&#x1e7;" horiz-adv-x="496" d="M363 368 C330 400 279 419 227 419 C129 419 53 354 53 271 C53 215 87 166 151 129 C90 119 57 90 57 48 C57 34 62 21 72 8 C92 -16 152 -31 235 -32 C359 -35 408 -61 408 -124 C408 -189 346 -228 244 -228 C140 -228 74 -189 74 -128 C74 -103 85 -81 109 -57 C102 -55 100 -55 94 -55 C55 -55 30 -81 30 -122 C30 -197 115 -248 243 -248 C376 -248 458 -193 458 -103 C458 -59 436 -20 400 3 C366 24 302 35 208 37 C131 39 97 50 97 73 C97 100 132 113 207 116 C257 117 282 122 313 135 C368 160 402 211 402 269 C402 300 393 328 376 355 C392 372 406 381 419 381 C430 381 434 378 443 362 C451 349 461 342 473 342 C490 342 503 356 503 374 C503 397 481 415 452 415 C421 415 393 400 363 368 L363 368 Z M225 396 C249 396 274 387 292 371 C315 351 326 318 326 266 C326 183 291 138 226 138 C162 138 127 183 127 267 C127 349 163 396 225 396 L225 396 Z M249 557 L141 657 L121 657 L214 492 L263 492 L352 657 L333 657 L249 557 Z " />
<glyph glyph-name="Scommaaccent" unicode="&#x218;" horiz-adv-x="573" d="M61 7 L87 7 C92 35 100 55 112 72 C163 16 228 -12 305 -12 C436 -12 524 66 524 181 C524 231 506 277 473 309 C444 338 398 363 300 403 C176 453 131 493 131 553 C131 614 180 656 252 656 C343 656 413 595 440 492 L463 492 L463 667 L440 667 C438 644 430 627 414 608 C364 659 318 679 253 679 C144 679 66 609 66 513 C66 467 86 420 119 387 C145 362 191 336 261 308 C353 271 370 262 397 243 C433 216 453 181 453 142 C453 67 387 12 298 12 C187 12 115 84 87 221 L61 221 L61 7 Z M239 -286 C307 -271 349 -222 349 -157 C349 -100 317 -59 273 -59 C241 -59 220 -79 220 -110 C220 -138 241 -157 270 -157 C274 -157 278 -157 280 -156 C294 -152 294 -152 298 -152 C309 -152 316 -162 316 -179 C316 -218 286 -249 239 -262 L239 -286 Z " />
<glyph glyph-name="scommaaccent" unicode="&#x219;" horiz-adv-x="352" d="M43 -13 L63 -13 C69 6 76 20 86 29 C122 -5 148 -16 189 -16 C265 -16 318 33 318 103 C318 167 281 208 189 246 C114 277 88 300 88 336 C88 370 119 397 158 397 C210 397 254 353 270 288 L289 288 L289 412 L270 412 C261 392 255 382 250 377 C225 405 195 419 158 419 C95 419 44 369 44 307 C44 254 81 214 165 178 C243 144 269 119 269 77 C269 35 237 5 192 5 C130 5 88 42 63 119 L43 119 L43 -13 Z M135 -272 C200 -257 239 -212 239 -150 C239 -97 210 -59 169 -59 C141 -59 122 -78 122 -106 C122 -131 141 -149 168 -149 C172 -149 175 -149 177 -148 C188 -144 188 -144 193 -144 C203 -144 209 -153 209 -168 C209 -206 181 -237 135 -249 L135 -272 Z " />
<glyph glyph-name="uni021A" unicode="&#x21a;" horiz-adv-x="722" d="M41 506 C67 628 91 648 207 644 L313 644 L313 174 C314 35 309 26 222 23 L185 23 L185 0 L534 0 L534 23 L500 23 C413 26 408 35 409 174 L409 644 L524 644 C631 648 656 626 682 506 L704 506 L700 667 L21 667 L18 506 L41 506 Z M320 -286 C389 -270 431 -222 431 -157 C431 -100 399 -59 355 -59 C323 -59 302 -79 302 -110 C302 -138 323 -157 352 -157 C356 -157 360 -157 362 -156 C376 -152 376 -152 380 -152 C391 -152 398 -162 398 -179 C398 -218 368 -249 320 -262 L320 -286 Z " />
<glyph glyph-name="uni021B" unicode="&#x21b;" horiz-adv-x="308" d="M290 380 L290 403 L161 403 L161 529 L145 529 C134 455 87 405 27 403 L27 380 L90 380 L90 152 C90 77 93 55 106 32 C124 3 159 -16 198 -16 C245 -16 286 9 307 49 L290 58 C271 31 250 18 225 18 C203 18 183 29 172 48 C163 64 161 81 161 137 L161 380 L290 380 Z M140 -272 C205 -257 244 -212 244 -150 C244 -97 215 -59 174 -59 C146 -59 127 -78 127 -106 C127 -131 146 -149 173 -149 C177 -149 180 -149 182 -148 C193 -144 193 -144 198 -144 C208 -144 214 -153 214 -168 C214 -206 186 -237 140 -249 L140 -272 Z " />
<glyph glyph-name="afii57929" unicode="&#x2bc;" horiz-adv-x="258" d="M73 409 C153 427 198 480 198 557 C198 621 165 667 120 667 C91 667 68 645 68 618 C68 591 91 568 118 568 C124 568 132 569 140 571 C144 572 148 573 150 573 C161 573 168 562 168 543 C168 485 135 448 73 435 L73 409 Z " />
<glyph glyph-name="circumflex" unicode="&#x2c6;" horiz-adv-x="514" d="M244 596 L352 496 L372 496 L279 661 L230 661 L141 496 L160 496 L244 596 Z " />
<glyph glyph-name="caron" unicode="&#x2c7;" horiz-adv-x="513" d="M269 557 L161 657 L141 657 L234 492 L283 492 L372 657 L353 657 L269 557 Z " />
<glyph glyph-name="uni02C9" unicode="&#x2c9;" horiz-adv-x="348" d="M33 565 L314 565 L314 588 L33 588 L33 565 Z " />
<glyph glyph-name="breve" unicode="&#x2d8;" horiz-adv-x="512" d="M129 651 C138 564 187 510 256 510 C325 510 375 565 384 651 L368 651 C349 602 315 580 257 580 C195 580 160 602 145 651 L129 651 Z " />
<glyph glyph-name="dotaccent" unicode="&#x2d9;" horiz-adv-x="521" d="M261 622 C238 622 220 604 220 582 C220 559 238 541 261 541 C283 541 301 559 301 582 C301 604 283 622 261 622 L261 622 Z " />
<glyph glyph-name="ring" unicode="&#x2da;" horiz-adv-x="516" d="M258 668 C210 668 169 628 169 580 C169 530 208 490 258 490 C307 490 347 530 347 579 C347 628 307 668 258 668 L258 668 Z M258 640 C292 640 319 613 319 579 C319 545 292 518 258 518 C224 518 197 545 197 580 C197 613 225 640 258 640 L258 640 Z " />
<glyph glyph-name="ogonek" unicode="&#x2db;" horiz-adv-x="525" d="M322 8 C266 -17 237 -51 237 -93 C237 -136 275 -168 327 -168 C357 -168 381 -160 414 -138 L405 -124 C385 -130 375 -132 361 -132 C325 -132 298 -107 298 -73 C298 -43 313 -19 349 8 L322 8 Z " />
<glyph glyph-name="tilde" unicode="&#x2dc;" horiz-adv-x="510" d="M120 524 C123 567 141 592 169 592 C181 592 193 587 209 574 C264 531 280 523 312 523 C372 523 406 565 406 639 L392 639 C390 595 373 570 343 570 C326 570 312 577 287 597 C247 629 226 639 199 639 C142 639 104 593 105 524 L120 524 Z " />
<glyph glyph-name="hungarumlaut" unicode="&#x2dd;" horiz-adv-x="515" d="M147 493 L163 493 L356 661 L256 661 L147 493 Z M315 493 L331 493 L524 661 L424 661 L315 493 Z " />
<glyph glyph-name="Wdieresis" unicode="&#x1e84;" horiz-adv-x="985" d="M722 -16 L877 486 C917 617 932 638 987 644 L992 644 L992 667 L800 667 L800 644 L805 644 C849 644 874 621 874 582 C874 557 873 553 852 486 L745 132 L540 667 L511 667 L328 132 L203 520 C200 530 195 543 190 559 C184 576 181 594 181 605 C181 630 199 640 249 644 L256 644 L256 667 L-7 667 L-7 644 L1 644 C56 642 70 623 106 503 L275 -16 L299 -16 L486 534 L699 -16 L722 -16 Z M400 828 C373 828 350 806 350 779 C350 750 372 728 400 728 C428 728 450 750 450 778 C450 806 428 828 400 828 L400 828 Z M652 828 C625 828 602 806 602 779 C602 750 624 728 652 728 C680 728 702 750 702 778 C702 806 680 828 652 828 L652 828 Z " />
<glyph glyph-name="uni2011" unicode="&#x2011;" horiz-adv-x="330" d="M37 233 L37 186 L290 186 L290 233 L37 233 Z " />
<glyph glyph-name="figuredash" unicode="&#x2012;" horiz-adv-x="583" d="M21 223 L21 200 L562 200 L562 223 L21 223 Z " />
<glyph glyph-name="endash" unicode="&#x2013;" horiz-adv-x="583" d="M21 223 L21 200 L562 200 L562 223 L21 223 Z " />
<glyph glyph-name="emdash" unicode="&#x2014;" horiz-adv-x="902" d="M21 223 L21 200 L881 200 L881 223 L21 223 Z " />
<glyph glyph-name="afii00208" unicode="&#x2015;" horiz-adv-x="902" d="M21 223 L21 200 L881 200 L881 223 L21 223 Z " />
<glyph glyph-name="quoteleft" unicode="&#x2018;" horiz-adv-x="258" d="M193 667 C114 650 68 596 68 519 C68 455 101 409 147 409 C175 409 198 431 198 458 C198 485 175 508 148 508 C142 508 134 507 126 505 C122 504 118 503 116 503 C104 503 98 514 98 533 C98 591 131 629 193 641 L193 667 Z " />
<glyph glyph-name="quoteright" unicode="&#x2019;" horiz-adv-x="225" d="M57 409 C137 427 182 480 182 557 C182 621 149 667 104 667 C75 667 52 645 52 618 C52 591 75 568 102 568 C108 568 116 569 124 571 C128 572 132 573 134 573 C145 573 152 562 152 543 C152 485 119 448 57 435 L57 409 Z " />
<glyph glyph-name="quotesinglbase" unicode="&#x201a;" horiz-adv-x="264" d="M73 -168 C157 -152 205 -98 205 -20 C205 43 170 89 122 89 C92 89 68 67 68 40 C68 13 92 -10 121 -10 C127 -10 136 -9 145 -7 C149 -6 153 -5 156 -5 C168 -5 175 -16 175 -35 C175 -93 139 -131 73 -143 L73 -168 Z " />
<glyph glyph-name="quotedblleft" unicode="&#x201c;" horiz-adv-x="478" d="M192 667 C113 650 67 596 67 519 C67 455 100 409 146 409 C174 409 197 431 197 458 C197 485 174 508 147 508 C141 508 133 507 125 505 C121 504 117 503 115 503 C103 503 97 514 97 533 C97 591 130 629 192 641 L192 667 Z M426 667 C346 650 301 596 301 519 C301 455 334 409 380 409 C408 409 431 431 431 458 C431 485 408 508 381 508 C376 508 367 507 359 505 C355 504 351 503 349 503 C338 503 331 514 331 534 C331 591 364 629 426 641 L426 667 Z " />
<glyph glyph-name="quotedblright" unicode="&#x201d;" horiz-adv-x="478" d="M57 409 C137 427 182 480 182 557 C182 621 149 667 104 667 C75 667 52 645 52 618 C52 591 75 568 102 568 C108 568 116 569 124 571 C128 572 132 573 134 573 C145 573 152 562 152 543 C152 485 119 448 57 435 L57 409 Z M291 409 C371 427 416 480 416 558 C416 621 383 667 337 667 C309 667 286 645 286 618 C286 591 309 568 336 568 C342 568 350 569 358 571 C362 572 366 573 368 573 C379 573 386 562 386 543 C386 485 353 448 291 435 L291 409 Z " />
<glyph glyph-name="quotedblbase" unicode="&#x201e;" horiz-adv-x="485" d="M57 -168 C141 -151 189 -97 189 -20 C189 44 155 90 106 90 C76 90 52 68 52 41 C52 14 76 -9 105 -9 C111 -9 120 -8 129 -6 C133 -5 137 -4 140 -4 C152 -4 159 -15 159 -35 C159 -92 123 -130 57 -142 L57 -168 Z M291 -168 C374 -151 422 -97 422 -20 C422 44 388 90 340 90 C310 90 286 68 286 41 C286 14 310 -9 338 -9 C344 -9 353 -8 362 -6 C366 -5 371 -4 373 -4 C385 -4 392 -15 392 -35 C392 -92 356 -130 291 -142 L291 -168 Z " />
<glyph glyph-name="dagger" unicode="&#x2020;" horiz-adv-x="452" d="M231 -240 L231 -20 C231 9 232 38 238 174 C243 256 243 256 243 279 C243 312 240 346 236 374 C232 399 232 400 231 423 C264 422 281 419 298 412 C337 393 343 391 364 391 C394 391 415 409 415 434 C415 458 394 475 363 475 C351 475 337 472 319 465 C278 450 257 445 231 445 C234 482 242 514 258 554 C267 578 270 589 270 606 C270 642 249 667 219 667 C188 667 168 645 168 609 C168 590 171 577 180 552 C201 496 206 478 207 445 C173 447 164 449 125 463 C102 472 93 474 80 474 C53 474 31 456 31 432 C31 409 52 392 81 392 C96 392 109 395 128 403 C137 406 145 409 153 412 C161 416 170 418 179 420 C185 421 190 421 207 423 C207 408 206 398 203 378 C197 341 195 310 195 278 C195 260 196 239 200 176 C206 89 207 65 207 -22 L207 -240 L231 -240 Z " />
<glyph glyph-name="daggerdbl" unicode="&#x2021;" horiz-adv-x="452" d="M236 259 C236 267 236 268 237 279 L238 290 C243 332 244 353 244 377 C244 409 241 429 233 463 C247 463 265 459 290 451 C332 437 342 434 358 434 C388 434 408 449 408 473 C408 496 389 510 358 510 C341 510 326 507 302 499 C271 488 252 484 233 483 C235 504 242 530 253 562 C266 599 268 606 268 621 C268 650 249 672 224 672 C198 672 179 651 179 622 C179 607 182 594 193 566 C207 530 215 499 214 483 C189 485 172 488 142 499 C114 509 103 512 87 512 C58 512 37 495 37 472 C37 449 58 432 87 432 C100 432 119 436 140 444 C169 455 174 456 214 463 C207 427 204 405 204 372 C204 356 206 332 209 313 C212 291 213 283 214 259 L236 259 Z M214 175 C214 130 213 113 210 94 C203 51 203 47 203 31 C203 7 207 -13 214 -31 C198 -31 174 -25 133 -11 C111 -3 102 -1 89 -1 C59 -1 38 -17 38 -40 C38 -63 57 -78 88 -78 C100 -78 107 -77 127 -71 C163 -60 171 -57 183 -54 C193 -51 202 -50 214 -49 C214 -68 207 -92 189 -138 C180 -160 177 -173 177 -187 C177 -217 198 -240 226 -240 C250 -240 270 -217 270 -187 C270 -169 267 -157 250 -108 C237 -62 236 -60 236 -49 C258 -50 269 -52 300 -62 C337 -74 343 -76 358 -76 C387 -76 409 -59 409 -37 C409 -16 388 1 361 1 C351 1 339 -2 322 -8 C286 -20 253 -29 236 -31 C243 -10 246 8 246 33 C246 47 245 62 243 75 C238 107 237 132 236 175 L214 175 Z " />
<glyph glyph-name="bullet" unicode="&#x2022;" horiz-adv-x="700" d="M353 480 C271 480 206 418 206 341 C206 263 271 200 351 200 C430 200 495 263 495 340 C495 416 430 480 353 480 L353 480 Z " />
<glyph glyph-name="ellipsis" unicode="&#x2026;" horiz-adv-x="1057" d="M179 90 C148 90 123 67 123 37 C123 8 148 -16 179 -16 C209 -16 234 8 234 37 C234 66 209 90 179 90 L179 90 Z M529 90 C498 90 473 67 473 37 C473 8 498 -16 528 -16 C559 -16 584 8 584 37 C584 66 559 90 529 90 L529 90 Z M881 90 C850 90 825 67 825 37 C825 8 850 -16 880 -16 C911 -16 936 8 936 37 C936 66 911 90 881 90 L881 90 Z " />
<glyph glyph-name="perthousand" unicode="&#x2030;" horiz-adv-x="1033" d="M170 677 C134 677 103 666 81 645 C49 614 28 560 28 506 C28 400 80 336 166 336 C253 336 308 403 308 509 C308 612 255 677 170 677 L170 677 Z M168 660 C219 660 240 619 240 524 C240 403 219 354 169 354 C145 354 124 365 114 383 C101 408 96 441 96 514 C96 617 117 660 168 660 L168 660 Z M185 0 L545 644 L513 644 L153 0 L185 0 Z M532 331 C496 331 465 320 443 299 C411 268 390 214 390 160 C390 55 442 -10 528 -10 C565 -10 596 1 619 22 C650 51 670 106 670 163 C670 266 617 331 532 331 L532 331 Z M530 314 C581 314 602 273 602 178 C602 57 581 8 531 8 C507 8 486 19 476 37 C463 62 458 95 458 168 C458 271 479 314 530 314 L530 314 Z M867 331 C831 331 800 320 778 299 C746 268 725 214 725 160 C725 54 777 -10 863 -10 C950 -10 1005 57 1005 163 C1005 266 952 331 867 331 L867 331 Z M865 314 C916 314 937 273 937 178 C937 57 916 8 866 8 C842 8 821 19 811 37 C798 62 793 95 793 168 C793 271 814 314 865 314 L865 314 Z " />
<glyph glyph-name="guilsinglleft" unicode="&#x2039;" horiz-adv-x="286" d="M36 215 L228 23 L255 23 L136 215 L255 403 L228 403 L36 215 Z " />
<glyph glyph-name="guilsinglright" unicode="&#x203a;" horiz-adv-x="286" d="M250 215 L59 403 L31 403 L150 215 L31 23 L59 23 L250 215 Z " />
<glyph glyph-name="uni203E" unicode="&#x203e;" horiz-adv-x="500" d="M0 847 L0 807 L500 807 L500 847 L0 847 Z " />
<glyph glyph-name="fraction" unicode="&#x2044;" horiz-adv-x="139" d="M-94 0 L265 644 L233 644 L-126 0 L-94 0 Z " />
<glyph glyph-name="franc" unicode="&#x20a3;" horiz-adv-x="778" d="M575 667 L35 667 L35 644 L47 644 C140 645 145 637 144 501 L144 174 C145 35 140 26 53 23 L31 23 L31 0 L356 0 L356 23 L331 23 C244 26 239 35 240 174 L240 340 L307 340 C388 343 410 322 414 239 L414 229 L439 229 L439 464 L414 464 L414 458 C410 378 392 363 307 362 L240 362 L240 644 L379 644 C453 645 471 641 500 619 C530 592 551 549 556 501 L581 501 L575 667 Z M466 320 L476 320 C537 317 538 316 537 211 L537 131 C538 27 536 24 476 21 L466 21 L466 0 L679 0 L679 21 L665 21 C604 24 603 27 604 131 L604 172 C604 222 605 233 614 254 C631 297 673 336 702 336 C713 336 721 329 728 313 C738 287 748 278 765 278 C783 278 798 292 798 310 C798 342 766 369 729 369 C678 369 625 329 600 272 C599 312 595 344 585 369 C534 353 500 346 466 342 L466 320 Z " />
<glyph glyph-name="Euro" unicode="&#x20ac;" horiz-adv-x="784" d="M221 364 C232 548 321 654 466 654 C545 654 624 617 664 562 C692 524 710 477 721 414 L743 414 L737 667 L714 667 C711 636 703 609 687 581 C634 642 543 679 451 679 C262 679 128 555 109 364 L58 364 L45 335 L107 335 L107 324 C107 317 107 314 108 306 L58 306 L45 277 L110 277 C117 225 131 183 152 145 C207 47 319 -12 449 -12 C547 -12 625 20 687 87 C705 66 715 45 721 17 L743 17 L743 250 L721 250 C714 198 694 147 664 104 C625 50 550 16 471 16 C373 16 290 70 250 161 C236 192 227 230 222 277 L528 277 L541 306 L220 306 L220 325 L220 332 L220 335 L554 335 L567 364 L221 364 Z " />
<glyph glyph-name="trademark" unicode="&#x2122;" horiz-adv-x="902" d="M89 287 L283 287 L283 304 L256 304 C218 305 216 308 215 348 L215 647 L256 647 C320 646 334 632 337 568 L355 568 L355 667 L16 667 L16 568 L34 568 C37 633 52 646 115 647 L157 647 L157 348 C156 308 154 305 116 304 L89 304 L89 287 Z M375 667 L375 650 C422 649 430 645 429 621 L429 345 C430 317 416 307 377 304 L377 287 L504 287 L504 304 C465 307 450 319 451 346 L451 631 L604 287 L614 287 L766 621 L766 345 C766 313 759 306 725 304 L709 304 L709 287 L875 287 L875 304 L861 304 C828 306 822 313 822 345 L822 609 C822 641 828 648 861 650 L878 650 L878 667 L765 667 L629 369 L499 667 L375 667 Z " />
<glyph glyph-name="uni2126" unicode="&#x2126;" horiz-adv-x="768" d="M326 0 L308 155 C230 199 180 288 180 382 C180 434 195 493 221 540 C257 605 317 642 385 642 C453 642 513 605 549 540 C575 493 590 434 590 382 C590 288 540 199 462 155 L444 0 L736 0 L736 153 L712 153 C704 108 684 90 643 90 L497 90 L500 128 C535 141 557 151 580 166 C657 215 702 296 702 382 C702 449 673 522 625 578 C564 648 480 686 385 686 C290 686 206 648 145 578 C97 522 68 449 68 382 C68 296 113 215 190 166 C213 151 235 141 270 128 L273 90 L127 90 C86 90 66 108 58 153 L34 153 L34 0 L326 0 Z " />
<glyph glyph-name="partialdiff" unicode="&#x2202;" horiz-adv-x="494" d="M107 674 C152 697 184 706 219 706 C321 706 379 611 379 448 C379 418 377 395 372 346 C308 396 272 412 221 412 C172 412 131 394 95 355 C51 309 26 246 26 184 C26 76 109 -10 213 -10 C282 -10 341 22 383 84 C429 152 462 286 462 403 C462 519 428 611 360 681 C312 730 259 753 195 753 C156 753 122 746 66 725 L107 674 Z M366 312 C350 201 339 158 314 107 C288 54 245 21 201 21 C146 21 113 73 113 159 C113 273 180 367 261 367 C299 367 324 354 366 312 L366 312 Z " />
<glyph glyph-name="Delta" unicode="&#x2206;" horiz-adv-x="612" d="M6 0 L608 0 L327 688 L6 0 Z M77 51 L290 509 L479 51 L77 51 Z " />
<glyph glyph-name="product" unicode="&#x220f;" horiz-adv-x="823" d="M25 -124 L315 -124 L315 -98 L312 -98 C242 -94 221 -67 224 18 L224 594 C224 656 228 677 242 690 C260 707 272 708 413 708 C556 708 568 707 586 690 C600 677 604 656 604 594 L604 18 C607 -67 586 -94 516 -98 L513 -98 L513 -124 L803 -124 L803 -98 L800 -98 C730 -94 709 -67 712 18 L712 609 C709 694 730 721 800 725 L803 725 L803 751 L25 751 L25 725 L28 725 C98 721 119 694 116 609 L116 18 C119 -67 98 -94 28 -98 L25 -98 L25 -124 Z " />
<glyph glyph-name="summation" unicode="&#x2211;" horiz-adv-x="713" d="M176 711 L444 711 C560 710 590 688 606 587 L632 587 L622 752 L23 752 L256 285 L14 -123 L641 -123 L695 87 L669 87 C639 7 605 -12 491 -11 L163 -11 L364 341 L176 711 Z " />
<glyph glyph-name="minus" unicode="&#x2212;" horiz-adv-x="525" d="M24 362 L24 320 L501 320 L501 362 L24 362 Z " />
<glyph glyph-name="uni2215" unicode="&#x2215;" horiz-adv-x="139" d="M-94 0 L265 644 L233 644 L-126 0 L-94 0 Z " />
<glyph glyph-name="uni2219" unicode="&#x2219;" horiz-adv-x="286" d="M141 387 C111 387 86 363 86 335 C86 305 110 281 142 281 C172 281 197 305 197 334 C197 364 172 387 141 387 L141 387 Z " />
<glyph glyph-name="radical" unicode="&#x221a;" horiz-adv-x="549" d="M363 -35 L515 908 L480 913 L353 123 L156 520 L10 449 L26 414 L121 461 L363 -35 Z " />
<glyph glyph-name="infinity" unicode="&#x221e;" horiz-adv-x="713" d="M357 303 C300 375 234 414 171 414 C86 414 26 351 26 263 C26 176 84 115 167 115 C224 115 282 143 327 192 C335 201 340 207 357 228 C415 156 485 115 548 115 C631 115 688 176 688 266 C688 354 629 414 543 414 C476 414 412 376 357 303 L357 303 Z M391 265 C434 325 493 362 546 362 C600 362 638 321 638 264 C638 205 603 167 549 167 C495 167 461 188 391 265 L391 265 Z M324 266 C275 203 216 167 163 167 C111 167 76 207 76 266 C76 323 113 362 167 362 C218 362 259 337 324 266 L324 266 Z " />
<glyph glyph-name="integral" unicode="&#x222b;" horiz-adv-x="274" d="M180 576 C180 653 179 691 176 746 C174 774 173 800 173 815 C173 855 184 878 202 878 C208 878 213 876 215 872 C232 845 239 839 256 839 C276 839 291 853 291 871 C291 898 267 916 231 916 C186 916 152 887 138 838 C123 784 113 682 113 577 L113 232 C113 160 114 124 117 63 C119 34 120 4 120 -12 C120 -47 108 -70 89 -70 C81 -70 74 -65 68 -52 C59 -35 51 -30 37 -30 C17 -30 2 -44 2 -63 C2 -89 26 -107 62 -107 C107 -107 141 -78 155 -29 C170 25 180 126 180 232 L180 576 Z " />
<glyph glyph-name="approxequal" unicode="&#x2248;" horiz-adv-x="549" d="M489 251 C444 199 423 187 384 187 C365 187 354 190 285 211 C212 234 188 239 160 239 C101 239 54 211 14 155 L57 121 C103 174 120 184 159 184 C180 184 180 184 271 157 C350 133 354 132 385 132 C449 132 496 160 527 217 L489 251 Z M489 408 C443 356 424 344 384 344 C365 344 354 347 285 369 C212 392 188 397 160 397 C101 397 54 369 14 312 L57 279 C104 332 119 342 159 342 C181 342 181 342 271 315 C351 290 354 289 385 289 C449 289 496 318 527 375 L489 408 Z " />
<glyph glyph-name="notequal" unicode="&#x2260;" horiz-adv-x="549" d="M187 142 L115 -1 L161 -25 L246 142 L540 142 L540 197 L273 197 L344 336 L540 336 L540 391 L371 391 L439 525 L392 549 L312 391 L15 391 L15 336 L285 336 L215 197 L15 197 L15 142 L187 142 Z " />
<glyph glyph-name="lessequal" unicode="&#x2264;" horiz-adv-x="549" d="M526 55 L29 55 L29 0 L526 0 L526 55 Z M526 639 L29 405 L29 350 L526 117 L526 179 L108 378 L526 577 L526 639 Z " />
<glyph glyph-name="greaterequal" unicode="&#x2265;" horiz-adv-x="549" d="M526 55 L29 55 L29 0 L526 0 L526 55 Z M29 639 L29 577 L447 378 L29 179 L29 117 L526 350 L526 405 L29 639 Z " />
<glyph glyph-name="lozenge" unicode="&#x25ca;" horiz-adv-x="494" d="M209 0 L269 -1 L466 374 L277 740 L214 740 L18 377 L209 0 Z M240 58 L81 376 L245 683 L402 373 L240 58 Z " />
<glyph glyph-name="fi" unicode="&#xfb01;" horiz-adv-x="547" d="M12 380 L97 380 L97 138 C98 29 96 26 33 23 L25 23 L25 0 L240 0 L240 23 L232 23 C168 26 166 29 168 138 L168 380 L313 380 C386 382 395 371 393 284 L393 138 C393 28 392 26 329 23 L319 23 L319 0 L535 0 L535 23 L528 23 C464 26 463 28 464 138 L464 419 L452 419 C425 409 371 403 300 403 L168 403 L168 436 C168 526 174 570 189 597 C209 632 251 655 295 655 C331 655 353 643 374 612 C395 582 405 575 425 575 C443 575 457 589 457 607 C457 646 393 677 313 677 C249 677 204 662 162 626 C114 584 97 536 97 441 L97 403 L12 403 L12 380 Z " />
<glyph glyph-name="fl" unicode="&#xfb02;" horiz-adv-x="547" d="M97 403 L12 403 L12 380 L97 380 L97 138 C98 29 96 26 33 23 L25 23 L25 0 L239 0 L239 23 L232 23 C168 26 166 29 168 138 L168 380 L394 380 L394 138 C394 29 393 26 329 23 L319 23 L319 0 L535 0 L535 23 L530 23 C466 26 465 29 466 138 L466 677 L454 677 C429 669 412 665 403 663 C381 671 347 677 315 677 C252 677 204 661 162 625 C114 583 97 536 97 441 L97 403 Z M394 403 L168 403 L168 436 C168 525 174 570 189 596 C210 632 252 655 298 655 C334 655 358 642 378 612 C388 597 390 595 394 592 L394 403 Z " />
</font>
</svg>
