<?xml version="1.0" encoding="UTF-8"?>
<svg xmlns="http://www.w3.org/2000/svg" xmlns:xlink="http://www.w3.org/1999/xlink" version="1.2" >
<font id="Cinematografica Heavy">
<font-face  font-family="Cinematografica" units-per-em="1920" ascent="1133" descent="-72" font-style="normal" font-weight="900" font-stretch="normal" cap-height="1344" x-height="1133" underline-position="-48" underline-thickness="96" />
<missing-glyph  horiz-adv-x="366" d="" />
<glyph glyph-name="NULL" d="" />
<glyph glyph-name="CR" unicode="&#xd;" horiz-adv-x="480" d="" />
<glyph glyph-name="space" unicode="&#x20;" horiz-adv-x="366" d="" />
<glyph glyph-name="exclam" unicode="&#x21;" horiz-adv-x="368" d="M57 366 C57 337 73 317 102 317 L169 317 C245 317 298 364 305 435 L355 1227 C358 1262 346 1290 321 1313 C296 1333 261 1346 222 1346 L102 1346 C73 1346 57 1326 57 1297 L57 366 Z M176 213 C79 213 34 170 34 95 C34 19 79 -25 176 -25 C273 -25 322 15 322 95 C322 170 276 213 176 213 L176 213 Z " />
<glyph glyph-name="quotedbl" unicode="&#x22;" horiz-adv-x="560" d="M50 1028 C50 1005 63 990 86 990 L149 990 C213 990 255 1027 255 1083 L255 1262 C255 1318 213 1355 149 1355 L86 1355 C63 1355 50 1338 50 1317 L50 1028 Z M305 1028 C305 1005 318 990 341 990 L404 990 C468 990 510 1027 510 1083 L510 1262 C510 1318 468 1355 404 1355 L341 1355 C318 1355 305 1338 305 1317 L305 1028 Z " />
<glyph glyph-name="numbersign" unicode="&#x23;" horiz-adv-x="979" d="M485 31 C485 7 495 0 528 0 L660 0 C681 0 704 10 723 26 C741 42 752 64 755 91 L779 360 L844 360 C871 360 885 367 889 399 L900 506 C904 547 875 577 836 577 L799 577 L813 717 L879 717 C906 717 920 725 923 757 L934 864 C939 905 910 935 871 935 L832 935 L865 1293 L866 1304 C866 1331 853 1344 827 1344 L721 1344 C678 1344 646 1330 623 1303 C606 1280 596 1253 595 1232 L568 935 L464 935 L497 1293 L498 1304 C498 1331 485 1344 458 1344 L353 1344 C310 1344 278 1330 255 1303 C238 1280 228 1253 227 1232 L200 935 L133 935 C104 935 96 929 92 896 L81 788 C78 751 106 717 146 717 L180 717 L166 577 L99 577 C70 577 61 571 58 538 L47 430 C43 394 71 360 111 360 L146 360 L118 46 L117 31 C117 7 127 0 160 0 L292 0 C313 0 336 10 355 26 C373 42 384 64 387 91 L411 360 L514 360 L486 46 L485 31 Z M548 717 L534 577 L431 577 L445 717 L548 717 Z " />
<glyph glyph-name="dollar" unicode="&#x24;" horiz-adv-x="729" d="M363 1141 C387 1141 413 1117 413 1097 L413 952 C413 935 422 920 439 908 C454 897 473 891 494 891 L632 891 C667 891 679 906 679 935 L679 1120 C679 1176 656 1230 613 1273 C570 1316 513 1346 443 1361 L443 1478 C443 1513 436 1519 396 1519 L367 1519 C344 1519 324 1511 307 1495 C288 1478 279 1457 279 1433 L279 1362 C188 1343 118 1295 78 1227 C58 1194 48 1159 48 1122 C47 1049 56 984 74 926 C106 825 158 730 230 640 C266 593 295 553 318 520 C379 429 413 348 413 247 C413 226 390 203 363 203 C339 203 314 227 314 247 L314 369 C314 386 305 400 288 413 C271 424 253 430 232 430 L93 430 C61 430 48 416 48 384 L48 223 C48 164 69 113 111 69 C154 24 210 -5 279 -18 L279 -138 C279 -155 282 -166 288 -172 C296 -182 309 -187 328 -187 L357 -187 C405 -187 443 -149 443 -104 L443 -19 C491 -10 533 6 568 31 C639 79 679 147 679 222 C680 301 671 372 653 434 C622 540 570 638 498 728 C465 768 436 807 409 844 C348 929 314 1004 314 1097 C314 1116 338 1141 363 1141 L363 1141 Z " />
<glyph glyph-name="percent" unicode="&#x25;" horiz-adv-x="1331" d="M300 593 C375 593 442 616 489 655 C536 694 561 746 561 805 L561 1148 C561 1205 535 1259 491 1298 C444 1337 381 1360 308 1360 C233 1360 168 1338 121 1298 C74 1258 48 1207 48 1148 L48 805 C48 746 73 695 118 655 C163 615 227 593 300 593 L300 593 Z M384 46 C382 39 381 33 381 27 C381 8 394 0 426 0 L525 0 C568 0 607 39 620 91 L939 1293 C940 1297 941 1302 941 1309 C941 1332 925 1344 900 1344 L827 1344 C786 1344 754 1330 732 1302 C719 1285 709 1261 701 1232 L384 46 Z M307 780 C284 780 266 795 266 814 L266 1139 C266 1155 284 1173 303 1173 C324 1173 343 1155 343 1139 L343 814 C343 798 326 780 307 780 L307 780 Z M1020 -11 C1095 -11 1162 12 1209 51 C1256 90 1281 142 1281 201 L1281 544 C1281 601 1255 655 1211 694 C1164 733 1101 756 1028 756 C953 756 888 734 841 694 C794 654 768 603 768 544 L768 201 C768 142 793 91 838 51 C883 11 947 -11 1020 -11 L1020 -11 Z M1027 176 C1004 176 986 191 986 210 L986 535 C986 551 1004 569 1023 569 C1044 569 1063 551 1063 535 L1063 210 C1063 194 1046 176 1027 176 L1027 176 Z " />
<glyph glyph-name="ampersand" unicode="&#x26;" horiz-adv-x="1663" d="M108 1017 C71 1014 60 987 60 936 L60 895 C60 870 69 863 93 864 L1532 977 C1552 978 1566 987 1574 1005 C1579 1016 1582 1034 1582 1059 L1582 1100 L1582 1121 C1581 1129 1578 1132 1570 1132 L1551 1130 L108 1017 Z M1303 284 C1366 289 1422 312 1465 347 C1506 382 1530 426 1530 471 L1530 765 C1530 816 1507 859 1467 888 C1430 913 1386 926 1335 926 C1324 926 1316 926 1311 925 L1119 910 C1092 907 1086 899 1086 872 L1086 303 C1086 275 1092 268 1119 271 L1303 284 Z M1010 866 C1010 894 1004 900 976 899 L882 891 C865 890 851 883 838 870 C825 857 818 838 821 822 L864 587 L760 834 C752 859 724 878 700 877 L606 869 C578 866 572 859 572 832 L572 265 C572 238 582 228 609 231 L696 238 C733 241 765 273 761 309 L719 534 L823 294 C831 266 854 250 885 253 L973 260 C1000 263 1010 273 1010 300 L1010 866 Z M435 819 C431 847 423 855 396 852 L259 841 C242 840 230 839 224 839 C213 838 204 836 199 835 C184 830 176 818 175 799 L96 224 C95 221 95 217 95 212 C95 196 102 192 125 193 L220 201 C253 204 282 234 285 270 L286 305 L322 307 L325 273 C328 237 358 212 390 215 L484 221 C508 222 515 229 515 246 C515 251 515 255 514 258 L435 819 Z M1274 765 L1307 768 C1326 769 1342 756 1342 741 L1342 474 C1342 459 1325 443 1309 440 L1274 437 L1274 765 Z M306 703 L317 420 L292 418 L303 703 L306 703 Z M108 156 C71 153 60 125 60 76 L60 35 C60 8 69 3 93 4 L1534 115 C1557 118 1570 127 1578 144 C1583 155 1586 173 1586 198 L1586 239 L1586 260 C1585 268 1581 271 1573 271 L1555 269 L108 156 Z " />
<glyph glyph-name="quotesingle" unicode="&#x27;" horiz-adv-x="305" d="M50 1028 C50 1005 63 990 86 990 L149 990 C213 990 255 1027 255 1083 L255 1262 C255 1318 213 1355 149 1355 L86 1355 C63 1355 50 1338 50 1317 L50 1028 Z " />
<glyph glyph-name="parenleft" unicode="&#x28;" horiz-adv-x="447" d="M316 732 C316 836 319 928 324 1008 C334 1149 351 1251 374 1316 C391 1367 410 1403 431 1422 C439 1430 445 1438 449 1446 C451 1450 452 1454 452 1458 C452 1465 448 1473 441 1484 L424 1509 C417 1518 405 1522 387 1522 C371 1521 357 1518 346 1513 L302 1492 C285 1484 264 1469 241 1448 C186 1398 144 1326 113 1231 C71 1103 50 936 50 730 L50 613 C50 499 56 401 68 320 C89 166 125 51 174 -24 C214 -85 257 -127 302 -149 L346 -171 C358 -176 372 -179 387 -179 C406 -179 419 -175 424 -166 L441 -141 C448 -130 452 -121 452 -114 C452 -111 451 -107 449 -104 C446 -97 440 -88 431 -79 C422 -71 413 -59 404 -42 C379 -1 359 62 345 147 C326 261 316 416 316 611 L316 732 Z " />
<glyph glyph-name="parenright" unicode="&#x29;" horiz-adv-x="449" d="M133 611 C133 507 130 415 125 335 C115 196 99 94 76 27 C58 -24 39 -59 19 -79 C10 -88 4 -96 0 -104 C-2 -107 -3 -110 -3 -113 C-3 -120 1 -129 8 -141 L25 -166 C30 -175 43 -179 62 -179 C78 -179 92 -176 104 -171 L148 -149 C167 -140 188 -125 209 -106 C262 -57 305 16 337 113 C378 242 399 408 399 613 L399 730 C399 841 393 939 382 1024 C359 1177 324 1292 276 1367 C235 1429 193 1471 148 1492 L104 1513 C93 1518 79 1521 62 1522 C44 1522 32 1518 25 1509 L8 1484 C4 1478 1 1471 -2 1464 C-5 1453 2 1439 19 1422 C28 1413 37 1401 46 1385 C71 1342 90 1280 104 1197 C123 1082 133 927 133 732 L133 611 Z " />
<glyph glyph-name="asterisk" unicode="&#x2a;" horiz-adv-x="590" d="M126 799 C115 808 104 813 95 813 C84 813 74 807 67 795 C56 776 50 746 50 721 L50 656 C50 616 60 609 96 609 L186 608 L79 574 C59 567 49 556 49 542 C49 536 51 529 56 521 C67 501 89 482 110 470 L166 438 C180 430 191 426 199 426 C212 426 220 434 231 454 L270 522 L248 424 C247 417 246 413 246 410 C246 387 262 377 283 377 C304 376 333 386 354 398 L410 431 C431 443 440 452 440 464 C440 471 436 482 429 495 L388 566 L464 496 C475 487 486 482 495 482 C506 482 515 488 523 501 C534 520 540 549 540 574 L540 639 C540 679 529 687 493 687 L413 687 L510 717 C531 724 541 736 541 751 C541 758 539 765 536 771 C524 790 502 810 481 822 L425 854 C411 862 400 866 392 866 C380 866 371 857 360 837 L317 763 L342 869 C343 876 344 881 344 884 C344 907 329 917 306 917 C283 917 255 908 235 896 L179 864 C160 853 151 842 151 831 C151 823 155 812 162 799 L203 728 L126 799 Z " />
<glyph glyph-name="plus" unicode="&#x2b;" horiz-adv-x="514" d="M392 536 C427 536 453 549 469 574 C480 592 486 616 486 645 L486 711 C486 748 476 758 441 758 L367 758 L367 785 C367 818 357 843 338 858 C323 870 300 876 270 876 L193 876 C174 876 161 871 153 861 C148 854 145 844 145 829 L145 758 L119 758 C84 758 60 748 46 729 C34 712 28 690 28 661 L28 584 C28 547 44 536 75 536 L145 536 L145 512 C145 476 158 450 184 435 C203 424 227 418 255 418 L320 418 C360 418 367 428 367 464 L367 536 L392 536 Z " />
<glyph glyph-name="comma" unicode="&#x2c;" horiz-adv-x="355" d="M175 -123 C175 -138 185 -145 197 -145 C230 -145 261 -125 284 -88 C309 -49 321 4 321 73 C321 114 310 147 287 172 C262 199 225 213 177 213 C86 213 34 171 34 95 C34 23 86 -20 175 -23 L175 -123 Z " />
<glyph glyph-name="hyphen" unicode="&#x2d;" horiz-adv-x="458" d="M135 664 C111 664 91 656 74 639 C56 621 47 600 47 575 L47 480 C47 461 52 448 62 440 C68 434 79 431 96 431 L321 431 C373 431 412 475 412 535 L412 617 C412 657 402 664 366 664 L135 664 Z " />
<glyph glyph-name="period" unicode="&#x2e;" horiz-adv-x="355" d="M176 213 C79 213 34 170 34 95 C34 19 79 -25 176 -25 C273 -25 322 15 322 95 C322 170 276 213 176 213 L176 213 Z " />
<glyph glyph-name="slash" unicode="&#x2f;" horiz-adv-x="402" d="M7 46 C6 42 6 37 6 30 C6 7 16 0 49 0 L181 0 C202 0 225 10 244 26 C262 42 273 64 276 91 L392 1293 C395 1327 382 1344 353 1344 L247 1344 C205 1344 173 1330 150 1303 C135 1286 126 1262 121 1232 L7 46 Z " />
<glyph glyph-name="zero" unicode="0" horiz-adv-x="726" d="M357 -26 C450 -26 531 2 590 50 C646 98 679 163 679 235 L679 1109 C679 1181 648 1246 593 1294 C537 1342 459 1370 368 1370 C275 1370 194 1342 137 1294 C80 1246 48 1180 48 1109 L48 235 C48 163 79 98 134 51 C190 2 266 -26 357 -26 L357 -26 Z M314 1097 C314 1118 339 1141 363 1141 C390 1141 413 1118 413 1097 L413 778 L314 685 L314 1097 Z M366 203 C339 203 314 223 314 247 L314 541 L413 634 L413 247 C413 227 391 203 366 203 L366 203 Z " />
<glyph glyph-name="one" unicode="1" horiz-adv-x="575" d="M57 1272 C32 1264 19 1253 19 1233 C19 1226 20 1218 23 1210 L34 1174 C46 1131 65 1102 91 1087 C103 1080 116 1076 130 1076 C138 1076 146 1078 155 1081 L155 210 L144 210 C60 210 21 178 21 86 L21 47 C21 10 36 0 73 0 L505 0 C541 0 554 13 554 49 L554 88 C554 136 546 166 527 185 C508 204 479 210 432 210 L421 210 L421 1266 C421 1321 395 1344 342 1344 L302 1344 C270 1344 250 1337 202 1320 L57 1272 Z " />
<glyph glyph-name="two" unicode="2" horiz-adv-x="728" d="M626 0 C657 0 679 19 679 48 L679 88 C679 172 638 220 566 220 L321 220 C362 281 411 365 468 472 C525 581 573 680 613 769 C657 867 679 930 679 958 L679 1109 C679 1181 648 1246 593 1294 C537 1342 459 1370 368 1370 C275 1370 194 1342 137 1294 C80 1246 48 1180 48 1109 L48 952 C48 916 55 906 94 906 L226 906 C247 906 270 915 287 931 C305 949 314 971 314 996 L314 1097 C314 1118 339 1141 363 1141 C390 1141 413 1118 413 1097 L413 965 C413 938 393 876 352 780 C315 695 270 599 216 490 L191 440 C176 411 160 377 143 341 C100 253 64 174 35 105 C24 75 18 55 18 46 C18 15 33 0 64 0 L626 0 Z " />
<glyph glyph-name="three" unicode="3" horiz-adv-x="726" d="M363 560 C390 560 413 536 413 515 L413 247 C413 227 391 203 366 203 C339 203 314 223 314 247 L314 373 C314 398 305 420 286 439 C269 455 247 464 227 464 L94 464 C57 464 48 454 48 417 L48 235 C48 163 79 98 134 51 C190 2 266 -26 357 -26 C450 -26 531 2 590 50 C646 98 679 163 679 235 L679 531 C679 607 643 653 575 681 C644 706 679 756 679 829 L679 1109 C679 1181 648 1246 593 1294 C537 1342 459 1370 368 1370 C275 1370 194 1342 137 1294 C80 1246 48 1180 48 1109 L48 952 C48 916 55 906 94 906 L226 906 C247 906 270 915 287 931 C305 949 314 971 314 996 L314 1097 C314 1118 339 1141 363 1141 C390 1141 413 1118 413 1097 L413 836 C413 816 391 792 366 792 L266 792 C229 792 218 784 218 751 L218 636 C218 617 227 599 244 584 C262 568 283 560 308 560 L363 560 Z " />
<glyph glyph-name="four" unicode="4" horiz-adv-x="704" d="M658 789 C658 825 650 835 610 835 L479 835 C456 835 436 826 419 809 C403 793 392 768 392 744 L392 469 L301 469 L447 1295 C450 1329 437 1346 408 1346 L302 1346 C260 1346 228 1332 205 1305 C190 1286 181 1263 176 1234 L10 297 C9 292 8 285 8 277 C8 257 19 250 51 250 L392 250 L392 89 C392 65 401 44 418 27 C436 9 456 0 478 0 L607 0 C643 0 658 14 658 50 L658 789 Z " />
<glyph glyph-name="five" unicode="5" horiz-adv-x="728" d="M48 662 C48 625 54 615 89 615 L239 615 C275 615 302 653 314 705 C317 726 336 732 361 732 C388 732 413 709 413 688 L413 247 C413 227 391 203 366 203 C339 203 314 223 314 247 L314 373 C314 398 305 420 286 439 C269 455 247 464 227 464 L94 464 C57 464 48 454 48 417 L48 235 C48 163 79 98 134 51 C190 2 266 -26 357 -26 C450 -26 531 2 590 50 C646 98 679 163 679 235 L679 704 C679 778 660 837 622 881 C586 922 535 945 478 945 C426 945 385 936 355 919 C330 903 315 884 314 867 L314 1124 L518 1124 C590 1124 631 1173 631 1256 L631 1296 C631 1327 609 1344 580 1344 L96 1344 C57 1344 48 1333 48 1294 L48 662 Z " />
<glyph glyph-name="six" unicode="6" horiz-adv-x="726" d="M363 1141 C387 1141 413 1117 413 1097 L413 978 C413 961 422 946 439 934 C454 923 472 918 494 918 L632 918 C667 918 679 933 679 962 L679 1109 C679 1180 646 1246 589 1294 C530 1342 449 1370 357 1370 C266 1370 189 1342 134 1294 C79 1245 48 1180 48 1109 L48 235 C48 163 78 99 133 51 C188 2 266 -26 357 -26 C450 -26 532 3 591 52 C647 99 679 164 679 235 L679 571 C679 644 657 710 617 755 C576 800 520 827 457 827 C373 827 327 802 314 743 L314 1097 C314 1118 338 1141 363 1141 L363 1141 Z M366 203 C339 203 314 223 314 247 L314 565 C314 586 339 607 363 607 C387 607 413 583 413 563 L413 247 C413 227 391 203 366 203 L366 203 Z " />
<glyph glyph-name="seven" unicode="7" horiz-adv-x="576" d="M62 1344 C30 1344 10 1327 10 1296 L10 1256 C10 1172 51 1124 123 1124 L274 1124 L84 46 C83 37 82 30 82 27 C82 7 94 0 126 0 L258 0 C279 0 302 10 321 26 C339 42 350 64 353 91 L564 1293 L565 1304 C565 1331 552 1344 525 1344 L62 1344 Z " />
<glyph glyph-name="eight" unicode="8" horiz-adv-x="726" d="M357 -26 C450 -26 531 2 590 50 C646 98 679 163 679 235 L679 534 C679 611 643 657 575 684 C643 712 679 757 679 833 L679 1109 C679 1181 648 1246 593 1294 C537 1342 459 1370 368 1370 C275 1370 194 1342 137 1294 C80 1246 48 1180 48 1109 L48 833 C48 756 83 711 151 683 C83 656 48 611 48 534 L48 235 C48 163 79 98 134 51 C190 2 266 -26 357 -26 L357 -26 Z M366 796 C339 796 314 817 314 840 L314 1097 C314 1118 339 1141 363 1141 C390 1141 413 1118 413 1097 L413 840 C413 820 391 796 366 796 L366 796 Z M366 203 C339 203 314 223 314 247 L314 523 C314 544 339 567 363 567 C390 567 413 544 413 523 L413 247 C413 227 393 207 366 203 L366 203 Z " />
<glyph glyph-name="nine" unicode="9" horiz-adv-x="726" d="M368 1370 C275 1370 194 1342 137 1294 C81 1246 48 1181 48 1109 L48 782 C48 707 70 642 110 597 C150 552 205 526 269 526 C357 526 402 551 413 614 L413 247 C413 226 390 203 363 203 L355 203 C334 207 314 228 314 247 L314 385 C314 402 305 417 288 430 C271 441 253 447 232 447 L93 447 C63 447 48 432 48 401 L48 235 C48 164 80 99 136 52 C193 3 275 -26 368 -26 C459 -26 539 3 594 52 C649 99 679 164 679 235 L679 1109 C679 1181 648 1246 593 1294 C536 1342 457 1370 368 1370 L368 1370 Z M360 1141 C388 1141 413 1120 413 1097 L413 787 C413 767 388 745 363 745 C338 745 314 768 314 789 L314 1097 C314 1117 335 1141 360 1141 L360 1141 Z " />
<glyph glyph-name="colon" unicode="&#x3a;" horiz-adv-x="355" d="M176 1146 C79 1146 34 1103 34 1028 C34 952 79 908 176 908 C273 908 322 948 322 1028 C322 1103 276 1146 176 1146 L176 1146 Z M176 209 C79 209 34 166 34 91 C34 15 79 -29 176 -29 C273 -29 322 11 322 91 C322 166 276 209 176 209 L176 209 Z " />
<glyph glyph-name="semicolon" unicode="&#x3b;" horiz-adv-x="355" d="M176 1146 C79 1146 34 1103 34 1028 C34 952 79 908 176 908 C273 908 322 948 322 1028 C322 1103 276 1146 176 1146 L176 1146 Z M175 -123 C175 -138 185 -145 197 -145 C230 -145 261 -125 284 -88 C309 -49 321 4 321 73 C321 114 310 147 287 172 C262 199 225 213 177 213 C86 213 34 171 34 95 C34 23 86 -20 175 -23 L175 -123 Z " />
<glyph glyph-name="less" unicode="&#x3c;" horiz-adv-x="386" d="M360 976 C367 991 355 1000 336 1000 L222 1000 C194 1000 170 992 150 977 C132 963 120 948 115 931 L16 672 L115 413 C124 393 135 377 150 366 C170 351 194 343 222 343 L336 343 C353 343 367 355 360 367 L220 672 L360 976 Z " />
<glyph glyph-name="equal" unicode="&#x3d;" horiz-adv-x="506" d="M156 886 C120 886 92 876 73 857 C55 839 46 816 46 789 L46 713 C46 694 51 681 61 673 C67 667 78 664 95 664 L347 664 C384 664 414 677 436 702 C452 721 460 744 460 773 L460 838 C460 879 450 886 413 886 L156 886 Z M156 624 C120 624 92 614 73 595 C55 577 46 554 46 527 L46 451 C46 432 51 419 61 411 C67 405 78 402 95 402 L347 402 C384 402 414 415 436 440 C452 459 460 482 460 511 L460 576 C460 617 450 624 413 624 L156 624 Z " />
<glyph glyph-name="greater" unicode="&#x3e;" horiz-adv-x="386" d="M33 367 C26 352 38 343 57 343 L171 343 C199 343 223 351 243 366 C261 380 273 395 278 412 L377 671 L278 930 C269 950 258 966 243 977 C223 992 199 1000 171 1000 L57 1000 C40 1000 26 988 33 976 L173 671 L33 367 Z " />
<glyph glyph-name="question" unicode="&#x3f;" horiz-adv-x="747" d="M352 317 C444 317 488 363 488 483 C488 526 491 560 497 587 C507 635 526 673 554 701 L593 741 C626 774 650 813 666 859 C687 920 698 1009 698 1127 C698 1172 684 1211 657 1244 C602 1323 508 1370 388 1370 C297 1370 217 1344 158 1299 C99 1254 66 1191 66 1123 L66 959 C66 927 78 914 113 914 L252 914 C273 914 291 920 308 931 C325 943 333 958 333 976 L333 1097 C333 1117 359 1141 383 1141 C408 1141 431 1116 431 1097 C431 1056 428 1020 423 990 C412 940 394 901 367 872 L331 831 C300 798 280 766 264 717 C244 655 234 571 235 465 C235 444 235 428 236 417 L236 368 C236 334 253 317 287 317 L352 317 Z M355 213 C258 213 213 170 213 95 C213 19 258 -25 355 -25 C452 -25 501 15 501 95 C501 170 455 213 355 213 L355 213 Z " />
<glyph glyph-name="at" unicode="&#x40;" horiz-adv-x="1250" d="M332 272 C332 200 363 134 419 86 C475 37 555 9 648 9 C720 9 779 36 818 87 C857 54 909 37 973 37 C1036 37 1093 59 1134 99 C1177 140 1201 198 1201 265 L1201 856 C1201 1015 1149 1143 1052 1231 C956 1319 816 1365 647 1365 C476 1365 337 1319 241 1231 C144 1143 91 1015 91 856 L91 281 C91 108 145 -24 244 -109 C338 -191 472 -232 647 -232 L762 -232 C781 -232 791 -222 791 -202 L791 -154 C791 -122 764 -94 728 -94 L647 -94 C369 -94 230 33 230 286 L230 858 C230 982 274 1075 353 1138 C428 1197 531 1226 648 1226 C768 1226 873 1195 946 1135 C1024 1071 1063 979 1063 858 L1063 267 C1063 228 1038 196 1013 196 C988 196 963 232 963 268 L963 865 C963 937 932 1002 877 1050 C820 1099 740 1127 647 1127 C558 1127 477 1098 420 1050 C364 1002 332 937 332 865 L332 272 Z M598 854 C598 875 624 898 647 898 C674 898 697 875 697 854 L697 281 C697 261 675 237 650 237 C623 237 598 258 598 281 L598 854 Z " />
<glyph glyph-name="A" unicode="A" horiz-adv-x="643" d="M503 1294 C499 1331 487 1344 451 1344 L188 1344 C152 1344 139 1331 135 1294 L7 46 C6 42 6 37 6 30 C6 7 16 0 49 0 L180 0 C201 0 227 10 244 26 C265 44 275 66 276 91 L280 199 L358 199 L363 91 C364 66 375 45 396 26 C415 9 437 0 460 0 L591 0 C623 0 634 7 634 30 C634 37 634 42 633 46 L503 1294 Z M349 407 L289 407 L319 1103 L349 407 Z " />
<glyph glyph-name="B" unicode="B" horiz-adv-x="726" d="M369 0 C458 0 537 29 593 78 C648 126 679 191 679 262 L679 546 C679 605 654 651 604 684 C654 717 679 763 679 822 L679 1082 C679 1154 648 1219 593 1267 C536 1315 459 1344 368 1344 L96 1344 C57 1344 48 1333 48 1294 L48 50 C48 13 58 0 97 0 L369 0 Z M363 1124 C390 1124 413 1101 413 1080 L413 826 C413 807 386 787 366 787 L314 787 L314 1124 L363 1124 Z M366 582 C386 582 413 562 413 543 L413 264 C413 244 388 220 363 220 L314 220 L314 582 L366 582 Z " />
<glyph glyph-name="C" unicode="C" horiz-adv-x="731" d="M370 1370 C277 1370 195 1341 138 1293 C82 1245 50 1180 50 1109 L50 235 C50 164 80 99 135 52 C191 3 268 -26 359 -26 C452 -26 534 3 593 52 C649 99 681 164 681 235 L681 539 C681 568 667 584 634 584 L496 584 C475 584 456 578 441 567 C424 555 415 540 415 522 L415 247 C415 227 393 203 365 203 C340 203 316 226 316 247 L316 1097 C316 1117 341 1141 365 1141 C392 1141 416 1118 416 1097 L416 821 C416 803 425 788 442 776 C457 765 476 759 497 759 L635 759 C668 759 681 773 681 805 L681 1109 C681 1178 651 1243 596 1291 C539 1339 461 1369 370 1370 L370 1370 Z " />
<glyph glyph-name="D" unicode="D" horiz-adv-x="721" d="M359 0 C454 0 536 29 593 78 C649 126 681 191 681 262 L681 1082 C681 1154 650 1220 594 1268 C538 1316 459 1344 370 1344 L98 1344 C59 1344 50 1333 50 1294 L50 50 C50 11 59 0 98 0 L359 0 Z M316 1124 L365 1124 C392 1124 415 1101 415 1080 L415 264 C415 244 391 220 368 220 L316 220 L316 1124 Z " />
<glyph glyph-name="E" unicode="E" horiz-adv-x="576" d="M98 1344 C59 1344 50 1333 50 1294 L50 48 C50 12 60 0 96 0 L488 0 C520 0 540 17 540 48 L540 88 C540 172 499 220 427 220 L316 220 L316 556 L386 556 C457 556 498 607 498 688 L498 728 C498 759 478 776 446 776 L316 776 L316 1124 L427 1124 C499 1124 540 1175 540 1256 L540 1296 C540 1327 520 1344 488 1344 L98 1344 Z " />
<glyph glyph-name="F" unicode="F" horiz-adv-x="554" d="M96 1344 C57 1344 48 1333 48 1294 L48 49 C48 12 58 0 97 0 L226 0 C249 0 270 9 287 26 C303 42 314 65 314 89 L314 556 L384 556 C457 556 497 604 497 688 L497 728 C497 759 476 776 444 776 L314 776 L314 1124 L425 1124 C498 1124 538 1172 538 1256 L538 1296 C538 1327 518 1344 486 1344 L96 1344 Z " />
<glyph glyph-name="G" unicode="G" horiz-adv-x="724" d="M368 1370 C275 1370 193 1341 136 1293 C80 1245 48 1180 48 1109 L48 235 C48 164 78 99 133 52 C189 3 266 -26 357 -26 C450 -26 532 3 591 52 C647 99 679 164 679 235 L679 582 C679 613 665 627 632 627 L488 627 L393 627 C364 627 343 610 343 579 L343 517 C343 433 358 392 413 387 L413 247 C413 227 391 203 363 203 C338 203 314 226 314 247 L314 1097 C314 1117 339 1141 363 1141 C390 1141 414 1118 414 1097 L414 821 C414 803 423 788 440 776 C455 765 474 759 495 759 L634 759 C666 759 679 773 679 805 L679 1109 C679 1178 649 1243 594 1291 C537 1339 459 1369 368 1370 L368 1370 Z " />
<glyph glyph-name="H" unicode="H" horiz-adv-x="716" d="M668 1297 C668 1333 660 1344 621 1344 L488 1344 C467 1344 445 1334 429 1318 C413 1302 402 1277 402 1253 L402 794 L314 794 L314 1253 C314 1277 303 1302 287 1318 C268 1335 248 1344 227 1344 L94 1344 C55 1344 48 1334 48 1297 L48 51 C48 12 62 0 99 0 L222 0 C275 0 314 40 314 92 L314 579 L402 579 L402 92 C402 40 441 0 492 0 L617 0 C654 0 668 12 668 51 L668 1297 Z " />
<glyph glyph-name="I" unicode="I" horiz-adv-x="366" d="M316 1297 C316 1334 309 1344 269 1344 L137 1344 C114 1344 94 1335 77 1318 C61 1302 50 1277 50 1253 L50 50 C50 13 64 0 100 0 L266 0 C302 0 316 13 316 50 L316 1297 Z " />
<glyph glyph-name="J" unicode="J" horiz-adv-x="726" d="M679 1294 C679 1331 669 1344 630 1344 L501 1344 C478 1344 457 1335 440 1318 C424 1302 413 1279 413 1255 L413 247 C413 222 383 203 354 203 C334 207 314 228 314 247 L314 570 C314 587 305 602 288 615 C271 626 253 632 232 632 L93 632 C63 632 48 617 48 586 L48 235 C48 163 81 98 138 50 C194 2 276 -26 368 -26 C459 -26 537 2 593 51 C648 98 679 163 679 235 L679 1294 Z " />
<glyph glyph-name="K" unicode="K" horiz-adv-x="720" d="M410 91 C411 66 423 45 448 26 C470 9 493 0 516 0 L659 0 C688 0 696 6 696 23 C696 26 695 34 694 46 L597 681 L694 1298 C695 1310 696 1318 696 1321 C696 1338 688 1344 659 1344 L516 1344 C493 1344 471 1335 449 1318 C427 1300 414 1278 410 1253 L341 794 L314 794 L314 1255 C314 1279 303 1302 287 1318 C270 1334 247 1344 226 1344 L96 1344 C57 1344 48 1333 48 1294 L48 50 C48 13 58 0 97 0 L226 0 C249 0 270 9 287 26 C303 42 314 65 314 89 L314 579 L338 579 L410 91 Z " />
<glyph glyph-name="L" unicode="L" horiz-adv-x="574" d="M48 47 C48 12 60 0 96 0 L486 0 C518 0 538 17 538 48 L538 88 C538 172 498 220 425 220 L314 220 L314 1255 C314 1279 303 1302 287 1318 C270 1334 247 1344 226 1344 L96 1344 C57 1344 48 1333 48 1294 L48 47 Z " />
<glyph glyph-name="M" unicode="M" horiz-adv-x="1034" d="M380 50 C383 13 396 0 435 0 L599 0 C635 0 650 13 653 50 L765 948 L773 944 L720 92 C720 40 760 0 811 0 L936 0 C973 0 986 12 986 51 L986 1297 C986 1334 979 1344 939 1344 L702 1344 C681 1344 658 1334 641 1318 C624 1302 611 1277 608 1253 L517 389 L425 1253 C422 1280 411 1302 393 1318 C374 1334 351 1344 330 1344 L94 1344 C55 1344 48 1334 48 1297 L48 51 C48 12 62 0 99 0 L222 0 C249 0 271 9 289 27 C306 44 314 65 314 92 L261 944 L269 946 L380 50 Z " />
<glyph glyph-name="N" unicode="N" horiz-adv-x="717" d="M668 1297 C668 1333 660 1344 621 1344 L488 1344 C467 1344 444 1334 428 1318 C411 1302 401 1278 402 1253 L448 787 L313 1267 C302 1314 267 1344 227 1344 L94 1344 C55 1344 48 1334 48 1297 L48 51 C48 12 62 0 99 0 L222 0 C275 0 315 40 314 92 L268 553 L402 79 C410 35 447 0 492 0 L617 0 C654 0 668 12 668 51 L668 1297 Z " />
<glyph glyph-name="O" unicode="O" horiz-adv-x="726" d="M49 239 C49 167 80 101 136 53 C192 4 272 -24 365 -24 C456 -24 535 5 592 54 C648 102 680 168 680 239 L680 1108 C680 1180 649 1245 594 1293 C537 1342 457 1370 364 1370 C275 1370 194 1341 137 1293 C81 1245 49 1180 49 1108 L49 239 Z M315 1097 C315 1118 340 1141 364 1141 C391 1141 414 1118 414 1097 L414 248 C414 228 392 204 367 204 C340 204 315 225 315 248 L315 1097 Z " />
<glyph glyph-name="P" unicode="P" horiz-adv-x="707" d="M357 448 C450 448 532 477 591 526 C647 573 679 638 679 710 L679 1082 C679 1154 649 1219 594 1267 C538 1315 459 1344 368 1344 L96 1344 C57 1344 48 1333 48 1294 L48 50 C48 11 57 0 96 0 L226 0 C247 0 270 10 287 26 C303 42 314 65 314 89 L314 448 L357 448 Z M314 1124 L363 1124 C390 1124 413 1101 413 1080 L413 713 C413 693 389 669 366 669 L314 669 L314 1124 Z " />
<glyph glyph-name="Q" unicode="Q" horiz-adv-x="726" d="M49 239 C49 135 112 45 220 2 L220 -12 C220 -87 262 -133 339 -133 L451 -133 C478 -133 492 -115 492 -90 L492 -3 C549 17 594 49 629 93 C663 138 680 186 680 239 L680 1108 C680 1180 649 1245 594 1293 C537 1342 457 1370 364 1370 C275 1370 194 1341 137 1293 C81 1245 49 1180 49 1108 L49 239 Z M315 1097 C315 1118 340 1141 364 1141 C391 1141 414 1118 414 1097 L414 272 C395 277 374 280 352 280 C337 280 325 279 315 276 L315 1097 Z " />
<glyph glyph-name="R" unicode="R" horiz-adv-x="726" d="M679 454 C679 531 641 573 568 593 C640 625 679 676 679 753 L679 1082 C679 1153 648 1218 593 1266 C536 1315 457 1344 368 1344 L96 1344 C57 1344 48 1333 48 1294 L48 50 C48 13 58 0 97 0 L226 0 C249 0 270 9 287 26 C303 42 314 65 314 89 L314 496 L363 496 C390 496 413 473 413 452 L413 89 C413 65 424 42 440 26 C457 9 477 0 500 0 L630 0 C669 0 679 13 679 50 L679 454 Z M363 1124 C390 1124 413 1101 413 1080 L413 756 C413 737 389 715 366 715 L314 715 L314 1124 L363 1124 Z " />
<glyph glyph-name="S" unicode="S" horiz-adv-x="729" d="M363 -26 C456 -26 537 3 594 52 C649 99 679 164 679 235 C679 314 670 384 652 444 C620 550 568 647 497 734 C468 769 439 807 409 848 C348 933 314 1005 314 1097 C314 1116 338 1141 363 1141 C387 1141 413 1117 413 1097 L413 952 C413 935 422 920 439 908 C454 897 473 891 494 891 L632 891 C667 891 679 906 679 935 L679 1109 C679 1180 647 1245 591 1293 C532 1341 450 1370 357 1370 C268 1370 190 1341 134 1293 C79 1245 48 1180 48 1109 C48 1036 57 972 75 916 C106 818 158 724 231 635 C264 594 293 554 319 517 C379 428 413 347 413 247 C413 226 390 203 363 203 C339 203 314 227 314 247 L314 369 C314 386 305 400 288 413 C271 424 253 430 232 430 L93 430 C61 430 48 416 48 384 L48 235 C48 164 78 99 134 52 C190 3 270 -26 363 -26 L363 -26 Z " />
<glyph glyph-name="T" unicode="T" horiz-adv-x="617" d="M64 1344 C32 1344 12 1327 12 1296 L12 1256 C12 1172 53 1124 125 1124 L182 1124 L182 48 C182 11 191 0 230 0 L400 0 C436 0 448 11 448 48 L448 1124 L495 1124 C567 1124 608 1172 608 1256 L608 1296 C608 1327 588 1344 556 1344 L64 1344 Z " />
<glyph glyph-name="U" unicode="U" horiz-adv-x="726" d="M314 1255 C314 1279 303 1302 287 1318 C270 1334 247 1344 226 1344 L96 1344 C57 1344 48 1333 48 1294 L48 235 C48 163 80 98 136 51 C193 2 273 -26 368 -26 C459 -26 536 2 593 51 C648 98 679 163 679 235 L679 1294 C679 1331 669 1344 630 1344 L500 1344 C477 1344 457 1335 440 1318 C424 1302 413 1279 413 1255 L413 247 C413 226 390 203 363 203 C338 203 314 227 314 247 L314 1255 Z " />
<glyph glyph-name="V" unicode="V" horiz-adv-x="634" d="M629 1298 C630 1302 630 1307 630 1314 C630 1337 619 1344 587 1344 L455 1344 C433 1344 412 1335 393 1318 C374 1302 362 1278 359 1253 L316 243 L272 1253 C269 1280 258 1302 240 1318 C221 1334 198 1344 177 1344 L45 1344 C13 1344 2 1337 2 1314 C2 1307 2 1302 3 1298 L133 50 C136 13 149 0 186 0 L446 0 C482 0 496 13 499 50 L629 1298 Z " />
<glyph glyph-name="W" unicode="W" horiz-adv-x="1062" d="M559 50 C560 14 576 0 613 0 L873 0 C909 0 923 13 927 50 L1056 1298 L1057 1312 C1057 1336 1047 1344 1014 1344 L881 1344 C860 1344 839 1335 820 1318 C801 1301 788 1277 787 1253 L741 208 L677 1253 C676 1277 664 1302 645 1318 C628 1334 602 1344 581 1344 L481 1344 C436 1344 392 1304 385 1253 L321 208 L276 1253 C273 1280 262 1301 243 1318 C224 1334 201 1344 180 1344 L48 1344 C15 1344 5 1336 5 1312 L6 1298 L136 50 C139 13 153 0 189 0 L448 0 C487 0 502 13 503 50 L530 835 L559 50 Z " />
<glyph glyph-name="X" unicode="X" horiz-adv-x="615" d="M609 1287 C610 1290 610 1295 610 1301 C610 1330 594 1344 562 1344 L444 1344 C423 1344 397 1334 376 1318 C355 1301 339 1277 338 1253 L307 754 L277 1253 C276 1277 261 1301 240 1318 C219 1334 193 1344 172 1344 L54 1344 C22 1344 6 1330 6 1303 C6 1296 6 1291 7 1287 L118 672 L7 57 C6 53 6 48 6 41 C6 14 22 0 54 0 L172 0 C193 0 219 10 240 26 C264 45 276 67 277 91 L307 590 L338 91 C339 66 351 45 376 26 C397 10 423 0 444 0 L562 0 C594 0 610 14 610 43 C610 49 610 54 609 57 L498 672 L609 1287 Z " />
<glyph glyph-name="Y" unicode="Y" horiz-adv-x="618" d="M610 1287 C611 1290 611 1295 611 1301 C611 1330 595 1344 563 1344 L445 1344 C424 1344 398 1334 377 1318 C356 1301 340 1277 339 1253 L309 663 L278 1253 C277 1277 262 1301 241 1318 C220 1334 193 1344 172 1344 L55 1344 C23 1344 7 1330 7 1302 C7 1295 7 1290 8 1287 L176 359 L176 50 C176 13 189 0 226 0 L392 0 C428 0 442 13 442 50 L442 361 L610 1287 Z " />
<glyph glyph-name="Z" unicode="Z" horiz-adv-x="512" d="M69 1344 C41 1344 22 1327 22 1296 L22 1256 C22 1172 58 1124 122 1124 L179 1124 L18 91 C17 83 16 77 16 73 C16 30 45 0 84 0 L449 0 C477 0 496 17 496 48 L496 88 C496 172 459 221 394 221 L286 221 L481 1294 C483 1302 484 1309 484 1315 C484 1336 471 1344 442 1344 L69 1344 Z " />
<glyph glyph-name="bracketleft" unicode="&#x5b;" horiz-adv-x="448" d="M88 1503 C65 1503 50 1490 50 1467 L50 -123 C50 -146 65 -159 88 -159 L393 -159 C414 -159 431 -146 431 -123 L431 -115 C431 -51 394 -9 338 -9 L316 -9 L316 1353 L338 1353 C394 1353 431 1395 431 1458 L431 1467 C431 1490 414 1503 393 1503 L88 1503 Z " />
<glyph glyph-name="backslash" unicode="&#x5c;" horiz-adv-x="402" d="M277 1232 C272 1262 263 1286 249 1303 C226 1330 194 1344 151 1344 L46 1344 C19 1344 6 1331 6 1304 L7 1293 L123 91 C124 66 135 45 156 26 C175 9 196 0 218 0 L350 0 C383 0 393 7 393 31 L392 46 L277 1232 Z " />
<glyph glyph-name="bracketright" unicode="&#x5d;" horiz-adv-x="446" d="M358 -159 C381 -159 396 -146 396 -123 L396 1467 C396 1490 381 1503 358 1503 L53 1503 C32 1503 15 1490 15 1467 L15 1458 C15 1395 52 1353 108 1353 L129 1353 L129 -9 L108 -9 C52 -9 15 -51 15 -115 L15 -123 C15 -146 32 -159 53 -159 L358 -159 Z " />
<glyph glyph-name="asciicircum" unicode="&#x5e;" horiz-adv-x="704" d="M535 853 C530 873 524 886 518 892 C511 899 498 903 481 903 L222 903 C185 903 176 893 167 853 L53 456 C50 445 49 439 49 436 C49 417 63 410 95 410 L228 410 C272 410 315 450 323 502 L351 713 L380 502 C388 450 431 410 475 410 L607 410 C640 410 653 417 653 436 C653 441 652 448 650 456 L535 853 Z " />
<glyph glyph-name="underscore" unicode="&#x5f;" horiz-adv-x="505" d="M134 0 C83 0 46 -28 46 -76 L46 -100 C46 -119 51 -132 61 -140 C67 -145 78 -148 95 -148 L369 -148 C393 -148 418 -137 434 -121 C451 -104 460 -84 460 -61 L460 -48 C460 -7 450 0 413 0 L134 0 Z " />
<glyph glyph-name="grave" unicode="&#x60;" horiz-adv-x="253" d="M208 1432 C201 1460 177 1478 145 1478 L90 1478 C33 1478 4 1460 4 1424 C4 1412 8 1397 15 1379 L53 1289 C81 1221 101 1196 153 1196 L185 1196 C211 1196 224 1207 224 1229 C224 1232 223 1236 222 1243 L208 1432 Z " />
<glyph glyph-name="a" unicode="a" horiz-adv-x="606" d="M486 1083 C482 1120 470 1133 431 1133 L173 1133 C137 1133 122 1119 118 1083 L5 46 L4 32 C4 8 14 0 47 0 L179 0 C202 0 223 9 242 26 C261 44 271 66 272 91 L274 162 L329 162 L332 91 C333 66 343 45 363 26 C382 9 402 0 425 0 L557 0 C590 0 600 6 600 29 C600 36 600 41 599 46 L486 1083 Z M303 903 L323 349 L281 349 L300 903 L303 903 Z " />
<glyph glyph-name="b" unicode="b" horiz-adv-x="731" d="M371 0 C460 0 539 29 595 78 C650 126 681 191 681 262 L681 443 C681 504 655 548 606 580 C656 614 681 661 681 720 L681 882 C681 954 650 1019 595 1067 C538 1115 461 1144 370 1144 L98 1144 C59 1144 50 1133 50 1094 L50 50 C50 13 60 0 99 0 L371 0 Z M365 924 C392 924 415 901 415 880 L415 722 C415 705 389 684 368 684 L316 684 L316 924 L365 924 Z M368 478 C389 478 415 458 415 439 L415 264 C415 244 390 220 365 220 L316 220 L316 478 L368 478 Z " />
<glyph glyph-name="c" unicode="c" horiz-adv-x="731" d="M370 1158 C277 1158 195 1129 138 1081 C82 1033 50 968 50 897 L50 235 C50 164 80 99 135 52 C191 3 268 -26 359 -26 C452 -26 534 3 593 52 C649 99 681 164 681 235 L681 463 C681 492 667 508 634 508 L496 508 C475 508 456 502 441 491 C424 479 415 464 415 446 L415 247 C415 227 393 203 365 203 C340 203 316 226 316 247 L316 885 C316 905 341 929 365 929 C392 929 416 906 416 885 L416 677 C416 659 425 644 442 632 C457 621 476 615 497 615 L635 615 C668 615 681 630 681 661 L681 897 C681 966 651 1031 596 1079 C540 1127 462 1155 370 1158 L370 1158 Z " />
<glyph glyph-name="d" unicode="d" horiz-adv-x="726" d="M357 0 C450 0 533 29 590 78 C646 126 679 191 679 262 L679 871 C679 943 649 1009 593 1057 C536 1105 457 1133 368 1133 L96 1133 C57 1133 48 1122 48 1083 L48 50 C48 11 57 0 96 0 L357 0 Z M314 913 L363 913 C390 913 413 890 413 869 L413 264 C413 244 389 220 366 220 L314 220 L314 913 Z " />
<glyph glyph-name="e" unicode="e" horiz-adv-x="555" d="M486 0 C518 0 538 17 538 48 L538 88 C538 172 498 220 425 220 L314 220 L314 447 L387 447 C459 447 497 494 497 578 L497 618 C497 649 476 667 444 667 L314 667 L314 913 L425 913 C497 913 538 961 538 1045 L538 1085 C538 1116 518 1133 486 1133 L139 1133 L113 1133 C88 1133 74 1132 66 1128 C54 1123 48 1108 48 1083 L48 43 C49 11 59 0 95 0 L486 0 Z " />
<glyph glyph-name="f" unicode="f" horiz-adv-x="549" d="M226 0 C247 0 270 9 287 25 C305 43 314 64 314 89 L314 447 L384 447 C456 447 497 495 497 578 L497 618 C497 649 476 667 444 667 L314 667 L314 913 L425 913 C497 913 538 961 538 1045 L538 1084 C538 1115 518 1133 486 1133 L95 1133 C59 1133 48 1120 48 1083 L48 50 C48 11 57 0 96 0 L226 0 Z " />
<glyph glyph-name="g" unicode="g" horiz-adv-x="731" d="M368 1160 C275 1160 193 1131 136 1083 C80 1035 48 970 48 899 L48 235 C48 164 78 99 133 52 C189 3 266 -26 357 -26 C450 -26 532 3 591 52 C647 99 679 164 679 235 L679 557 C679 588 665 602 632 602 L488 602 L393 602 C364 602 343 585 343 553 L343 492 C343 408 358 367 413 362 L413 247 C413 227 391 203 363 203 C338 203 314 226 314 247 L314 887 C314 907 339 931 363 931 C390 931 414 908 414 887 L414 753 C414 736 423 721 440 709 C455 698 474 692 495 692 L634 692 C666 692 679 706 679 738 L679 899 C679 968 649 1033 594 1081 C537 1129 459 1159 368 1160 L368 1160 Z " />
<glyph glyph-name="h" unicode="h" horiz-adv-x="716" d="M668 1083 C668 1120 658 1133 619 1133 L490 1133 C467 1133 446 1124 429 1107 C413 1091 402 1068 402 1044 L402 673 L314 673 L314 1043 C314 1068 305 1089 287 1107 C270 1123 247 1133 226 1133 L96 1133 C57 1133 48 1122 48 1083 L48 50 C48 11 57 0 96 0 L226 0 C247 0 270 10 287 26 C303 42 314 65 314 89 L314 458 L402 458 L402 88 C402 64 413 41 430 25 C447 8 467 -1 490 -1 L620 -1 C659 -1 668 10 668 49 L668 1083 Z " />
<glyph glyph-name="i" unicode="i" horiz-adv-x="362" d="M314 1086 C314 1123 307 1133 266 1133 L135 1133 C112 1133 92 1124 75 1107 C59 1091 48 1066 48 1042 L48 50 C48 13 62 0 98 0 L264 0 C300 0 314 13 314 50 L314 1086 Z " />
<glyph glyph-name="j" unicode="j" horiz-adv-x="726" d="M679 1083 C679 1120 669 1133 630 1133 L501 1133 C478 1133 457 1124 440 1107 C424 1091 413 1068 413 1044 L413 247 C413 222 383 203 354 203 C334 207 314 228 314 247 L314 570 C314 587 305 602 288 615 C271 626 253 632 232 632 L93 632 C63 632 48 617 48 586 L48 235 C48 163 81 98 138 50 C194 2 276 -26 368 -26 C459 -26 537 2 593 51 C648 98 679 163 679 235 L679 1083 Z " />
<glyph glyph-name="k" unicode="k" horiz-adv-x="718" d="M226 0 C247 0 270 10 287 26 C303 42 314 65 314 89 L314 469 L342 469 L410 76 C413 56 426 38 449 22 C470 7 492 0 516 0 L659 0 C688 0 696 4 696 20 L694 40 L597 574 L694 1093 L696 1113 C696 1129 688 1133 659 1133 L516 1133 C493 1133 470 1126 449 1112 C427 1097 414 1079 410 1057 L343 684 L314 684 L314 1042 C314 1066 305 1088 287 1107 C270 1123 247 1133 226 1133 L96 1133 C57 1133 48 1122 48 1083 L48 50 C48 11 57 0 96 0 L226 0 Z " />
<glyph glyph-name="l" unicode="l" horiz-adv-x="541" d="M477 0 C509 0 528 17 528 48 L528 88 C528 172 489 220 417 220 L314 220 L314 1043 C314 1068 305 1089 287 1107 C270 1123 247 1133 226 1133 L96 1133 C57 1133 48 1122 48 1083 L48 50 C48 13 58 0 94 0 L477 0 Z " />
<glyph glyph-name="m" unicode="m" horiz-adv-x="1034" d="M380 50 C383 13 396 0 435 0 L588 0 C624 0 639 13 643 50 L747 744 L762 738 L710 92 C710 65 719 43 736 27 C753 9 775 0 802 0 L925 0 C962 0 976 12 976 51 L976 1086 C976 1123 968 1133 928 1133 L822 1133 C789 1133 765 1133 748 1134 C721 1134 697 1132 678 1127 C629 1116 602 1087 597 1042 L511 374 L425 1042 C422 1069 411 1091 393 1107 C374 1123 351 1133 330 1133 L94 1133 C55 1133 48 1123 48 1086 L48 51 C48 12 62 0 99 0 L222 0 C249 0 271 9 289 27 C306 44 314 65 314 92 L261 738 L275 743 L380 50 Z " />
<glyph glyph-name="n" unicode="n" horiz-adv-x="717" d="M668 1085 C668 1122 660 1133 621 1133 L488 1133 C467 1133 443 1123 427 1107 C410 1091 399 1066 402 1042 L462 587 L312 1064 C305 1082 294 1098 277 1113 C259 1126 242 1133 227 1133 L94 1133 C55 1133 48 1122 48 1085 L48 51 C48 12 62 0 99 0 L222 0 C249 0 272 9 290 27 C309 45 317 67 314 92 L255 550 L405 67 C416 27 449 0 492 0 L617 0 C654 0 668 12 668 51 L668 1085 Z " />
<glyph glyph-name="o" unicode="o" horiz-adv-x="731" d="M50 239 C50 167 81 101 137 53 C193 4 273 -24 366 -24 C457 -24 536 5 593 54 C649 102 681 168 681 239 L681 898 C681 970 650 1035 595 1083 C538 1132 458 1160 365 1160 C276 1160 195 1131 138 1083 C82 1035 50 970 50 898 L50 239 Z M316 887 C316 908 341 931 365 931 C392 931 415 908 415 887 L415 248 C415 228 393 204 368 204 C341 204 316 225 316 248 L316 887 Z " />
<glyph glyph-name="p" unicode="p" horiz-adv-x="703" d="M226 0 C247 0 270 10 287 26 C303 42 314 65 314 89 L314 355 L357 355 C450 355 532 384 591 433 C647 480 679 545 679 617 L679 871 C679 943 649 1008 594 1056 C538 1104 459 1133 368 1133 L96 1133 C57 1133 48 1122 48 1083 L48 50 C48 11 57 0 96 0 L226 0 Z M363 913 C390 913 413 890 413 869 L413 619 C413 599 389 575 366 575 L314 575 L314 913 L363 913 Z " />
<glyph glyph-name="q" unicode="q" horiz-adv-x="726" d="M50 239 C50 135 113 46 220 3 L220 -12 C220 -87 262 -133 339 -133 L451 -133 C478 -133 492 -115 492 -90 L492 -3 C550 18 596 49 630 92 C664 137 681 186 681 239 L681 898 C681 970 650 1035 595 1083 C538 1132 458 1160 365 1160 C276 1160 195 1131 138 1083 C82 1035 50 970 50 898 L50 239 Z M316 887 C316 908 341 931 365 931 C392 931 415 908 415 887 L415 272 C395 277 374 280 352 280 C338 280 326 279 316 276 L316 887 Z " />
<glyph glyph-name="r" unicode="r" horiz-adv-x="726" d="M679 358 C679 435 641 477 568 497 C640 529 679 580 679 657 L679 872 C679 943 648 1008 593 1056 C536 1105 457 1134 368 1134 L96 1134 C57 1134 48 1123 48 1084 L48 50 C48 13 58 0 97 0 L226 0 C249 0 270 9 287 26 C303 42 314 65 314 89 L314 400 L363 400 C390 400 413 377 413 356 L413 89 C413 65 424 42 440 26 C457 9 477 0 500 0 L630 0 C669 0 679 13 679 50 L679 358 Z M363 914 C390 914 413 891 413 870 L413 660 C413 641 389 619 366 619 L314 619 L314 914 L363 914 Z " />
<glyph glyph-name="s" unicode="s" horiz-adv-x="728" d="M363 -26 C456 -26 537 3 594 52 C649 99 679 164 679 235 C679 294 674 345 664 388 C645 467 611 528 564 573 C536 598 500 627 455 658 L430 676 C407 691 388 708 371 727 C334 766 314 815 314 887 C314 904 338 930 363 930 C387 930 413 906 413 885 L413 775 C413 758 422 743 439 731 C454 720 473 714 494 714 L632 714 C665 714 679 729 679 758 L679 897 C679 969 647 1034 591 1082 C532 1130 450 1159 357 1159 C268 1159 190 1130 134 1082 C79 1033 48 968 48 897 C48 798 67 716 105 652 C137 596 179 555 231 514 L251 498 C300 459 329 435 356 404 C393 361 413 312 413 247 C413 226 390 203 363 203 C339 203 314 227 314 247 L314 335 C314 352 305 366 288 379 C273 390 254 395 232 395 L93 395 C61 395 48 381 48 350 L48 235 C48 164 78 99 134 52 C190 3 270 -26 363 -26 L363 -26 Z " />
<glyph glyph-name="t" unicode="t" horiz-adv-x="617" d="M448 913 L495 913 C567 913 608 961 608 1045 L608 1085 C608 1116 588 1133 556 1133 L64 1133 C32 1133 12 1116 12 1085 L12 1045 C12 960 50 913 125 913 L182 913 L182 48 C182 11 191 0 230 0 L400 0 C436 0 448 11 448 48 L448 913 Z " />
<glyph glyph-name="u" unicode="u" horiz-adv-x="726" d="M314 1045 C314 1069 303 1092 287 1108 C270 1124 247 1134 226 1134 L96 1134 C57 1134 48 1123 48 1084 L48 235 C48 163 80 98 136 51 C193 2 273 -26 368 -26 C459 -26 536 2 593 51 C648 98 679 163 679 235 L679 1084 C679 1121 669 1134 630 1134 L500 1134 C477 1134 457 1125 440 1108 C424 1092 413 1069 413 1045 L413 247 C413 226 390 203 363 203 C338 203 314 227 314 247 L314 1045 Z " />
<glyph glyph-name="v" unicode="v" horiz-adv-x="606" d="M599 1087 C600 1091 600 1096 600 1103 C600 1126 590 1133 557 1133 L425 1133 C403 1133 382 1124 363 1107 C344 1090 331 1066 330 1042 L302 272 L274 1042 C269 1093 226 1133 179 1133 L47 1133 C14 1133 4 1125 4 1101 L5 1087 L118 50 C121 13 136 0 173 0 L431 0 C470 0 483 13 486 50 L599 1087 Z " />
<glyph glyph-name="w" unicode="w" horiz-adv-x="1021" d="M1013 1087 C1014 1091 1014 1096 1014 1103 C1014 1126 1003 1133 971 1133 L837 1133 C816 1133 794 1123 775 1107 C756 1090 743 1066 742 1042 L716 272 L666 1042 C665 1066 653 1091 634 1107 C617 1123 591 1133 570 1133 L451 1133 C430 1133 408 1123 389 1107 C370 1090 357 1066 356 1042 L306 272 L279 1042 C278 1066 266 1091 247 1107 C228 1123 205 1133 184 1133 L51 1133 C18 1133 7 1125 7 1100 L8 1087 L123 50 C127 13 138 0 177 0 L436 0 C475 0 489 13 490 50 L511 659 L532 50 C532 32 536 20 545 13 C556 2 574 -3 601 -3 C611 -3 618 -3 623 -2 C646 -1 662 0 673 0 L845 0 C884 0 894 11 898 50 L1013 1087 Z " />
<glyph glyph-name="x" unicode="x" horiz-adv-x="630" d="M606 1083 C607 1086 607 1090 607 1095 C607 1120 591 1133 559 1133 L442 1133 C419 1133 393 1125 374 1112 C351 1097 337 1077 336 1057 L315 642 L295 1057 C294 1077 279 1097 258 1112 C238 1125 212 1133 189 1133 L72 1133 C40 1133 24 1121 24 1098 C24 1095 25 1090 26 1083 L125 567 L26 49 C25 42 24 37 24 34 C24 11 40 0 72 0 L189 0 C210 0 237 8 258 21 C282 36 294 55 295 76 L315 493 L336 76 C337 55 349 36 374 21 C394 8 421 0 442 0 L559 0 C591 0 607 12 607 37 C607 42 607 46 606 49 L505 567 L606 1083 Z " />
<glyph glyph-name="y" unicode="y" horiz-adv-x="598" d="M591 1085 C592 1088 592 1091 592 1096 C592 1121 576 1133 543 1133 L426 1133 C403 1133 377 1125 358 1112 C335 1097 321 1077 320 1057 L299 622 L278 1057 C278 1077 264 1097 241 1112 C221 1125 195 1133 172 1133 L55 1133 C23 1133 7 1121 7 1097 C7 1092 7 1088 8 1085 L166 313 L166 43 C166 12 180 0 216 0 L382 0 C421 0 432 11 432 43 L432 315 L591 1085 Z " />
<glyph glyph-name="z" unicode="z" horiz-adv-x="517" d="M69 1133 C41 1133 22 1116 22 1085 L22 1045 C22 961 58 913 122 913 L173 913 L18 91 C17 87 17 81 17 74 C17 31 45 0 84 0 L449 0 C477 0 496 17 496 48 L496 88 C496 172 459 221 394 221 L292 221 L481 1083 C483 1091 484 1098 484 1104 C484 1125 473 1133 442 1133 L69 1133 Z " />
<glyph glyph-name="braceleft" unicode="&#x7b;" horiz-adv-x="534" d="M137 1081 C137 1067 139 1048 143 1025 C146 1001 148 986 149 981 C156 932 160 891 160 858 C160 814 125 782 80 782 C56 782 40 770 40 747 L40 597 C40 574 56 562 80 562 C125 562 160 530 160 486 C160 453 156 412 149 363 C148 358 146 343 143 320 C139 296 137 277 137 263 C137 95 165 -11 220 -72 C271 -129 345 -150 457 -150 C505 -150 530 -140 530 -117 L530 -87 C530 -66 526 -54 505 -51 C493 -51 465 -49 452 -40 C436 -28 424 -2 417 39 C408 83 404 157 404 260 C404 287 407 325 414 376 C421 427 424 465 424 492 C424 580 363 648 254 672 C363 696 424 764 424 852 C424 879 421 918 414 969 C407 1020 404 1058 404 1084 C404 1188 408 1262 417 1306 C424 1346 435 1372 452 1384 C469 1395 496 1395 505 1395 C526 1398 530 1410 530 1431 L530 1461 C530 1484 505 1494 457 1494 C346 1494 272 1474 220 1417 C165 1354 137 1249 137 1081 L137 1081 Z " />
<glyph glyph-name="bar" unicode="&#x7c;" horiz-adv-x="355" d="M314 1401 C314 1437 306 1448 266 1448 L135 1448 C112 1448 92 1439 75 1422 C59 1406 48 1381 48 1357 L48 -56 C48 -72 51 -83 56 -89 C64 -99 77 -104 96 -104 L228 -104 C253 -104 273 -95 290 -77 C306 -60 314 -39 314 -16 L314 1401 Z " />
<glyph glyph-name="braceright" unicode="&#x7d;" horiz-adv-x="534" d="M395 1081 C395 1250 369 1356 314 1417 C263 1474 188 1494 76 1494 C28 1494 3 1484 3 1461 L3 1431 C3 1410 7 1398 28 1395 C40 1395 68 1393 81 1384 C97 1372 109 1346 117 1306 C125 1260 129 1186 129 1084 C129 1058 126 1020 119 969 C112 918 109 879 109 852 C109 764 169 696 277 672 C169 647 109 580 109 492 C109 465 112 427 119 376 C126 325 129 287 129 260 C129 159 125 85 117 39 C109 -2 97 -28 81 -40 C64 -51 37 -51 28 -51 C7 -54 3 -66 3 -87 L3 -117 C3 -140 28 -150 76 -150 C188 -150 263 -129 314 -72 C369 -11 395 94 395 263 C395 276 394 290 392 307 L387 339 L384 363 C377 422 373 463 373 486 C373 530 408 562 452 562 C476 562 492 574 492 597 L492 747 C492 770 476 782 452 782 C408 782 373 814 373 858 C373 880 374 900 377 919 C379 944 384 983 392 1037 C394 1054 395 1069 395 1081 L395 1081 Z " />
<glyph glyph-name="asciitilde" unicode="&#x7e;" horiz-adv-x="504" d="M459 660 C459 683 457 697 452 702 C449 705 446 706 442 706 C440 706 436 705 431 704 C421 701 409 696 395 689 C379 682 362 678 343 678 C312 678 298 687 265 708 C236 728 212 738 176 738 C138 738 107 727 84 706 C58 683 45 651 45 609 L45 546 C45 523 48 508 54 503 C57 500 61 499 66 499 C77 499 98 508 119 517 C133 524 150 527 171 527 C196 527 212 518 253 497 C288 478 314 467 347 467 C414 467 459 518 459 602 L459 660 Z " />
<glyph glyph-name="exclamdown" unicode="&#xa1;" horiz-adv-x="381" d="M176 924 C276 924 322 967 322 1042 C322 1122 273 1162 176 1162 C79 1162 34 1118 34 1042 C34 967 79 924 176 924 L176 924 Z M57 -160 C57 -189 73 -209 102 -209 L222 -209 C261 -209 297 -196 321 -175 C345 -155 358 -125 355 -90 L305 702 C298 773 245 820 169 820 L102 820 C73 820 57 800 57 771 L57 -160 Z " />
<glyph glyph-name="cent" unicode="&#xa2;" horiz-adv-x="731" d="M359 -187 C384 -187 404 -178 421 -160 C437 -143 445 -122 445 -99 L445 -17 C516 -2 574 28 617 75 C658 119 681 175 681 235 L681 463 C681 492 667 508 634 508 L496 508 C475 508 456 502 441 491 C424 479 415 464 415 446 L415 247 C415 227 393 203 365 203 C340 203 316 226 316 247 L316 885 C316 905 341 929 365 929 C392 929 416 906 416 885 L416 677 C416 659 425 644 442 632 C457 621 476 615 497 615 L635 615 C668 615 681 630 681 661 L681 897 C681 956 660 1010 618 1057 C577 1102 516 1135 445 1150 L445 1274 C445 1311 438 1320 397 1320 L369 1320 C346 1320 325 1311 308 1294 C290 1276 281 1254 281 1229 L281 1148 C210 1133 154 1103 112 1056 C71 1009 50 956 50 897 L50 235 C50 175 72 118 112 74 C153 27 212 -5 281 -18 L281 -138 C281 -155 284 -166 290 -172 C298 -182 311 -187 330 -187 L359 -187 Z " />
<glyph glyph-name="sterling" unicode="&#xa3;" horiz-adv-x="821" d="M727 0 C750 0 765 13 765 36 L765 125 C765 188 728 230 672 230 L335 230 C358 267 375 303 386 339 C401 390 409 445 409 506 L409 586 L483 586 C539 586 576 628 576 692 L576 722 C576 745 559 758 538 758 L409 758 L409 1097 C409 1122 438 1141 467 1141 C488 1137 507 1116 507 1097 L507 987 C507 970 516 955 534 942 C549 931 567 926 589 926 L728 926 C759 926 774 941 774 971 L774 1109 C774 1181 741 1246 684 1294 C625 1342 544 1370 453 1370 C364 1370 285 1342 229 1294 C173 1246 142 1181 142 1109 L142 758 L88 758 C65 758 50 745 50 722 L50 692 C50 628 86 586 142 586 L142 506 C142 419 135 347 120 292 C111 259 96 229 75 200 C67 191 62 182 59 174 L57 170 L57 169 C52 158 50 143 50 125 L50 36 C50 13 67 0 88 0 L727 0 Z " />
<glyph glyph-name="currency" unicode="&#xa4;" horiz-adv-x="618" d="M305 165 C315 165 330 166 350 167 L372 91 C385 39 424 0 467 0 L523 0 C555 0 568 8 568 27 C568 33 567 39 565 46 L507 239 C546 278 566 325 566 378 L566 941 C566 995 545 1043 504 1084 L565 1294 C566 1302 567 1307 567 1310 C567 1333 553 1345 526 1345 L497 1345 C456 1345 424 1331 402 1303 C389 1286 379 1262 371 1233 L347 1152 C343 1153 337 1153 330 1153 L313 1153 L292 1153 C283 1153 276 1153 271 1152 L247 1233 C239 1261 233 1282 217 1303 C195 1331 163 1345 121 1345 L92 1345 C67 1345 51 1333 51 1310 C51 1303 52 1298 53 1294 L115 1083 C74 1043 53 996 53 941 L53 378 C53 325 73 276 109 239 L53 46 C51 39 50 33 50 27 C50 8 63 0 95 0 L151 0 C194 0 233 39 245 91 L267 166 L287 166 C291 165 297 165 305 165 L305 165 Z M312 353 C291 353 271 368 271 387 L271 932 C271 948 290 966 309 966 C329 966 349 948 349 932 L349 387 C349 371 332 353 312 353 L312 353 Z " />
<glyph glyph-name="yen" unicode="&#xa5;" horiz-adv-x="706" d="M128 340 C105 340 91 328 91 305 L91 274 C91 211 127 169 183 169 L220 169 L220 50 C220 13 231 0 270 0 L436 0 C472 0 486 13 486 50 L486 169 L524 169 C580 169 616 211 616 274 L616 305 C616 328 600 340 579 340 L486 340 L486 361 L491 388 L524 388 C580 388 616 430 616 493 L616 524 C616 547 600 559 579 559 L522 559 L654 1287 C655 1290 655 1295 655 1301 C655 1330 639 1344 607 1344 L489 1344 C468 1344 442 1334 421 1318 C400 1301 384 1277 383 1253 L353 663 L322 1253 C321 1277 306 1301 285 1318 C262 1335 239 1344 215 1344 L99 1344 C67 1344 51 1330 51 1303 C51 1296 51 1291 52 1287 L184 559 L128 559 C105 559 91 547 91 524 L91 493 C91 430 127 388 183 388 L215 388 L220 359 L220 340 L128 340 Z " />
<glyph glyph-name="brokenbar" unicode="&#xa6;" horiz-adv-x="366" d="M50 755 C50 718 64 705 101 705 L230 705 C250 705 273 716 289 732 C307 750 316 771 316 794 L316 1360 C316 1384 305 1409 289 1425 C273 1441 250 1451 229 1451 L98 1451 C57 1451 50 1442 50 1405 L50 755 Z M316 596 C316 633 309 642 268 642 L137 642 C114 642 94 633 77 616 C61 600 50 575 50 551 L50 -15 C50 -39 59 -60 76 -77 C94 -95 114 -104 136 -104 L265 -104 C302 -104 316 -91 316 -54 L316 596 Z " />
<glyph glyph-name="section" unicode="&#xa7;" horiz-adv-x="731" d="M365 -26 C458 -26 539 3 596 52 C651 99 681 164 681 235 C681 316 650 389 589 455 C649 503 681 571 681 644 C681 727 650 801 587 867 C540 916 494 949 411 1004 C346 1048 316 1072 316 1100 C316 1117 340 1143 365 1143 C389 1143 415 1119 415 1098 L415 1074 C415 1057 424 1042 441 1030 C456 1019 475 1013 496 1013 L634 1013 C667 1013 681 1027 681 1058 L681 1110 C681 1182 649 1247 593 1295 C534 1343 452 1372 359 1372 C270 1372 192 1343 136 1295 C81 1246 50 1181 50 1110 C50 1035 89 968 154 901 C87 852 50 781 50 701 C50 630 85 567 145 503 C165 481 186 461 207 443 C228 425 258 401 297 370 L321 351 C385 300 415 271 415 247 C415 226 392 203 365 203 C341 203 316 227 316 247 C316 264 307 278 290 291 C275 302 256 307 234 307 L95 307 C63 307 50 293 50 262 L50 235 C50 164 80 99 136 52 C192 3 272 -26 365 -26 L365 -26 Z M316 691 C316 706 333 725 354 732 C394 697 415 675 415 656 C415 640 400 622 381 615 C338 644 316 667 316 691 L316 691 Z " />
<glyph glyph-name="dieresis" unicode="&#xa8;" horiz-adv-x="516" d="M135 1432 C66 1432 34 1389 34 1317 C34 1242 66 1198 135 1198 C205 1198 240 1238 240 1317 C240 1389 207 1432 135 1432 L135 1432 Z M383 1432 C314 1432 282 1389 282 1317 C282 1242 314 1198 383 1198 C453 1198 488 1238 488 1317 C488 1389 455 1432 383 1432 L383 1432 Z " />
<glyph glyph-name="copyright" unicode="&#xa9;" horiz-adv-x="1293" d="M647 -232 C815 -232 952 -192 1048 -109 C1147 -24 1201 108 1201 281 L1201 856 C1201 1015 1149 1143 1052 1231 C956 1319 816 1365 647 1365 C476 1365 337 1319 241 1231 C144 1143 91 1015 91 856 L91 281 C91 108 145 -24 244 -109 C338 -191 472 -232 647 -232 L647 -232 Z M230 858 C230 982 274 1075 353 1138 C428 1197 531 1226 648 1226 C768 1226 873 1195 946 1135 C1024 1071 1063 979 1063 858 L1063 286 C1063 33 924 -94 647 -94 C369 -94 230 33 230 286 L230 858 Z M651 1127 C558 1127 476 1098 419 1050 C362 1002 330 937 330 865 L330 267 C330 196 361 132 416 84 C472 35 549 6 640 6 C733 6 816 35 873 84 C929 131 961 196 961 267 L961 464 C961 494 946 509 915 509 L777 509 C756 509 737 503 722 492 C704 479 695 464 695 447 L695 279 C695 260 674 239 653 235 L646 235 C619 235 596 258 596 279 L596 854 C596 874 622 898 646 898 C670 898 696 874 696 854 L696 675 C696 657 705 642 722 630 C737 619 756 614 778 614 L916 614 C949 614 962 628 962 659 L962 865 C962 936 933 1000 878 1048 C822 1096 743 1126 651 1127 L651 1127 Z " />
<glyph glyph-name="ordfeminine" unicode="&#xaa;" horiz-adv-x="590" d="M446 1312 C443 1341 432 1353 401 1353 L189 1353 C158 1353 147 1341 144 1312 L51 656 L50 644 C50 625 58 618 86 618 L184 618 C201 618 221 627 236 640 C252 654 261 672 262 693 L265 743 L325 743 L328 693 C329 672 338 655 355 640 C372 625 389 618 407 618 L505 618 C533 618 540 624 540 641 C540 647 540 652 539 656 L446 1312 Z M300 1199 L318 870 L272 870 L291 1199 L300 1199 Z M91 581 C64 581 53 577 53 556 L53 526 C53 498 62 478 79 466 C94 455 114 453 146 453 L443 453 C475 453 495 455 510 466 C527 478 536 498 536 526 L536 556 C536 577 523 581 498 581 L91 581 Z " />
<glyph glyph-name="guillemotleft" unicode="&#xab;" horiz-adv-x="636" d="M341 777 C342 780 343 781 343 782 C343 789 332 794 320 794 L222 794 C203 794 185 789 167 778 C147 767 135 755 130 743 L47 551 L130 359 C135 347 147 335 167 324 C188 312 206 306 222 306 L320 306 C336 306 346 313 341 324 L222 551 L341 777 Z M580 777 C581 780 582 781 582 782 C582 789 571 794 559 794 L461 794 C442 794 424 789 406 778 C386 767 374 755 369 743 L286 551 L369 359 C374 347 386 335 406 324 C427 312 445 306 461 306 L559 306 C575 306 585 313 580 324 L461 551 L580 777 Z " />
<glyph glyph-name="logicalnot" unicode="&#xac;" horiz-adv-x="634" d="M368 539 C368 501 378 472 397 451 C413 434 438 424 463 424 L537 424 C574 424 584 444 584 479 L584 712 C584 749 572 757 531 757 L169 757 C130 757 99 747 78 728 C59 711 50 689 50 662 L50 588 C50 551 70 540 105 540 L373 540 C372 539 371 539 368 539 L368 539 Z " />
<glyph glyph-name="uni00AD" unicode="&#xad;" horiz-adv-x="686" d="M135 664 C111 664 91 656 74 639 C56 621 47 600 47 575 L47 480 C47 461 52 448 62 440 C68 434 79 431 96 431 L551 431 C603 431 642 475 642 535 L642 617 C642 657 632 664 596 664 L135 664 Z " />
<glyph glyph-name="registered" unicode="&#xae;" horiz-adv-x="1249" d="M647 -232 C815 -232 952 -192 1048 -109 C1147 -24 1201 108 1201 281 L1201 856 C1201 1015 1149 1143 1052 1231 C956 1319 816 1365 647 1365 C472 1365 333 1319 237 1231 C141 1144 91 1016 91 856 L91 281 C91 108 145 -24 244 -109 C338 -191 472 -232 647 -232 L647 -232 Z M230 858 C230 981 268 1075 345 1138 C416 1197 517 1226 648 1226 C768 1226 873 1195 946 1135 C1024 1071 1063 979 1063 858 L1063 286 C1063 33 924 -94 647 -94 C369 -94 230 33 230 286 L230 858 Z M509 63 C538 63 558 65 569 69 C587 76 596 90 596 111 L596 399 L646 399 C671 399 695 376 695 355 L695 111 C695 87 704 76 723 69 C738 64 760 63 783 63 L913 63 C952 63 961 74 961 114 L961 358 C961 435 923 476 851 496 C924 527 961 580 961 653 L961 849 C961 920 931 985 876 1033 C820 1081 740 1110 651 1110 C537 1110 453 1088 398 1043 C351 1006 330 958 330 911 L330 114 C330 74 340 63 379 63 L509 63 Z M646 890 C671 890 695 867 695 846 L695 658 C695 639 670 619 649 619 L596 619 L596 869 C599 873 603 876 607 879 C619 886 632 890 646 890 L646 890 Z " />
<glyph glyph-name="overscore" unicode="&#xaf;" horiz-adv-x="417" d="M55 1359 C32 1359 18 1346 18 1323 L18 1293 C18 1229 54 1187 110 1187 L301 1187 C357 1187 393 1229 393 1293 L393 1323 C393 1346 377 1359 356 1359 L55 1359 Z " />
<glyph glyph-name="degree" unicode="&#xb0;" horiz-adv-x="433" d="M403 1154 C403 1285 331 1362 215 1362 C99 1362 28 1285 28 1154 C28 1022 99 945 215 945 C332 945 403 1023 403 1154 L403 1154 Z M165 1156 C166 1201 185 1223 214 1223 C243 1223 262 1201 263 1156 C263 1111 243 1087 214 1087 C183 1087 165 1109 165 1156 L165 1156 Z " />
<glyph glyph-name="plusminus" unicode="&#xb1;" horiz-adv-x="514" d="M392 674 C427 674 453 687 469 712 C480 730 486 754 486 783 L486 849 C486 886 476 896 441 896 L367 896 L367 923 C367 956 357 981 338 996 C323 1008 300 1014 270 1014 L193 1014 C174 1014 161 1009 153 999 C148 992 145 982 145 967 L145 896 L119 896 C84 896 60 886 46 867 C34 850 28 828 28 799 L28 722 C28 685 44 674 75 674 L145 674 L145 650 C145 614 158 588 184 573 C203 562 227 556 255 556 L320 556 C360 556 367 566 367 602 L367 674 L392 674 Z M160 514 C124 514 96 504 77 485 C59 467 50 444 50 417 L50 341 C50 322 55 309 65 301 C71 295 82 292 99 292 L351 292 C388 292 418 305 440 330 C456 349 464 372 464 401 L464 466 C464 507 454 514 417 514 L160 514 Z " />
<glyph glyph-name="uni00B2" unicode="&#xb2;" horiz-adv-x="601" d="M527 637 C552 637 570 652 570 676 L570 708 C570 776 538 814 479 814 L383 814 C406 843 426 868 445 891 C469 921 487 945 498 962 C533 1012 550 1055 550 1090 L550 1161 C550 1218 525 1270 481 1309 C436 1348 373 1370 301 1370 C226 1370 161 1348 116 1309 C71 1270 44 1217 44 1161 L44 1067 C44 1038 50 1029 81 1029 L187 1029 C224 1029 258 1061 258 1102 L258 1151 C258 1167 278 1186 297 1186 C316 1186 336 1167 336 1151 L336 1095 C336 1085 329 1069 316 1048 C287 1003 248 950 199 888 C172 853 150 824 133 800 C86 735 62 695 62 674 C62 649 74 637 99 637 L527 637 Z " />
<glyph glyph-name="uni00B3" unicode="&#xb3;" horiz-adv-x="599" d="M299 921 C318 921 338 903 338 887 L338 836 C338 821 321 802 301 802 C282 802 262 817 261 834 C261 854 253 872 238 887 C224 900 209 906 192 906 L86 906 C54 906 48 899 48 870 L48 827 C48 770 73 717 117 680 C161 641 224 619 295 619 C368 619 434 641 479 680 C526 721 550 770 550 827 L550 875 C550 936 522 973 467 994 C522 1014 550 1051 550 1112 L550 1162 C550 1218 526 1270 482 1309 C437 1348 375 1370 303 1370 C230 1370 166 1348 119 1309 C74 1272 48 1219 48 1162 L48 1127 C48 1099 54 1091 86 1091 L190 1091 C226 1091 258 1120 261 1159 L261 1155 C264 1171 282 1187 299 1187 C318 1187 338 1169 338 1153 L338 1108 C338 1093 321 1074 301 1074 L246 1074 C215 1074 208 1069 208 1041 L208 982 C208 950 240 921 280 921 L299 921 Z " />
<glyph glyph-name="acute" unicode="&#xb4;" horiz-adv-x="253" d="M-4 1243 C-7 1212 3 1196 32 1196 L65 1196 C91 1196 111 1204 126 1220 C138 1232 151 1255 164 1289 L202 1379 C209 1397 213 1412 213 1424 C213 1460 184 1478 127 1478 L73 1478 C41 1478 14 1460 10 1432 L-4 1243 Z " />
<glyph glyph-name="paragraph" unicode="&#xb6;" horiz-adv-x="1072" d="M679 1294 C679 1309 677 1320 673 1327 C665 1340 648 1345 619 1345 C609 1344 591 1344 565 1344 L357 1344 C270 1344 192 1317 136 1272 C80 1227 48 1165 48 1097 L48 702 C48 634 81 570 137 523 C194 476 275 448 368 448 L413 448 L413 -16 C413 -41 422 -62 440 -80 C457 -97 477 -106 500 -106 L630 -106 C669 -106 679 -94 679 -57 L679 1294 Z M1027 1255 C1027 1279 1016 1302 1000 1318 C983 1334 960 1344 939 1344 L809 1344 C770 1344 761 1333 761 1294 L761 -57 C761 -94 770 -106 809 -106 L939 -106 C960 -106 983 -96 1000 -80 C1018 -62 1027 -41 1027 -16 L1027 1255 Z " />
<glyph glyph-name="middot" unicode="&#xb7;" horiz-adv-x="355" d="M176 775 C79 775 34 732 34 657 C34 581 79 537 176 537 C273 537 322 577 322 657 C322 732 276 775 176 775 L176 775 Z " />
<glyph glyph-name="cedilla" unicode="&#xb8;" horiz-adv-x="322" d="M100 -254 C100 -265 108 -272 123 -275 C140 -278 165 -280 198 -280 C241 -280 273 -270 294 -251 C318 -230 330 -195 330 -146 C330 -102 319 -77 302 -49 C282 -18 274 -2 274 33 C274 44 269 44 253 44 L165 44 C142 44 131 41 131 34 C131 -14 138 -53 153 -82 C161 -98 174 -129 174 -146 C174 -151 173 -153 171 -153 C169 -154 164 -154 156 -154 C140 -154 128 -156 119 -160 C106 -165 99 -175 99 -188 L100 -254 Z " />
<glyph glyph-name="uni00B9" unicode="&#xb9;" horiz-adv-x="578" d="M48 1286 C27 1279 18 1272 18 1256 C18 1251 19 1245 21 1238 L30 1208 C40 1175 55 1153 74 1140 C83 1133 94 1130 105 1130 C113 1130 120 1131 125 1134 L125 804 L117 804 C50 804 19 778 19 705 L19 674 C19 645 32 636 61 636 L404 636 C432 636 443 646 443 675 L443 707 C443 782 419 804 346 804 L338 804 L338 1281 C338 1323 317 1344 275 1344 L242 1344 C218 1344 198 1337 163 1324 L48 1286 Z " />
<glyph glyph-name="ordmasculine" unicode="&#xba;" horiz-adv-x="610" d="M300 602 C376 602 442 624 489 664 C536 703 561 756 561 815 L561 1158 C561 1215 535 1269 491 1308 C444 1347 381 1370 308 1370 C233 1370 168 1348 121 1308 C74 1268 48 1217 48 1158 L48 815 C48 756 74 704 118 664 C163 624 227 602 300 602 L300 602 Z M307 790 C284 790 266 805 266 824 L266 1149 C266 1165 284 1183 303 1183 C324 1183 343 1165 343 1149 L343 824 C343 808 326 790 307 790 L307 790 Z M128 531 C101 531 90 528 90 507 L90 476 C90 447 99 428 116 417 C130 408 152 404 183 404 L417 404 C448 404 470 408 484 417 C501 428 510 447 510 476 L510 507 C510 528 497 531 472 531 L128 531 Z " />
<glyph glyph-name="guillemotright" unicode="&#xbb;" horiz-adv-x="636" d="M47 322 C46 319 45 318 45 317 C45 310 56 305 68 305 L166 305 C183 305 202 311 221 322 C241 334 253 345 258 356 L341 548 L258 740 C253 753 240 765 221 776 C202 787 183 793 166 793 L68 793 C52 793 42 786 47 775 L166 548 L47 322 Z M286 322 C285 319 284 318 284 317 C284 310 295 305 307 305 L405 305 C422 305 441 311 460 322 C480 334 492 345 497 356 L580 548 L497 740 C492 753 479 765 460 776 C441 787 422 793 405 793 L307 793 C291 793 281 786 286 775 L405 548 L286 322 Z " />
<glyph glyph-name="onequarter" unicode="&#xbc;" horiz-adv-x="1228" d="M79 1286 C58 1279 49 1272 49 1256 C49 1251 50 1245 52 1238 L61 1208 C71 1175 86 1153 105 1140 C114 1133 125 1130 136 1130 C144 1130 151 1131 156 1134 L156 804 L148 804 C81 804 50 778 50 705 L50 674 C50 645 63 636 92 636 L435 636 C463 636 474 646 474 675 L474 707 C474 782 450 804 377 804 L369 804 L369 1281 C369 1323 348 1344 306 1344 L273 1344 C249 1344 229 1337 194 1324 L79 1286 Z M330 46 C328 39 327 33 327 27 C327 8 340 0 372 0 L471 0 C514 0 553 39 566 91 L885 1293 C886 1297 887 1302 887 1309 C887 1332 871 1344 846 1344 L773 1344 C732 1344 700 1330 678 1302 C665 1285 655 1261 647 1232 L330 46 Z M1176 413 C1176 441 1170 450 1138 450 L1069 450 C1037 450 1017 449 1000 441 C976 431 964 411 964 381 L964 288 L899 288 L988 667 C991 694 981 708 957 708 L873 708 C841 708 816 697 798 676 C785 660 781 646 774 622 L661 151 C660 147 659 142 659 135 C659 119 669 114 696 114 L964 114 L964 66 C964 30 997 -2 1033 -2 L1135 -2 C1166 -2 1176 8 1176 39 L1176 413 Z " />
<glyph glyph-name="onehalf" unicode="&#xbd;" horiz-adv-x="1281" d="M79 1286 C58 1279 49 1272 49 1256 C49 1251 50 1245 52 1238 L61 1208 C71 1175 86 1153 105 1140 C114 1133 125 1130 136 1130 C144 1130 151 1131 156 1134 L156 804 L148 804 C81 804 50 778 50 705 L50 674 C50 645 63 636 92 636 L435 636 C463 636 474 646 474 675 L474 707 C474 782 450 804 377 804 L369 804 L369 1281 C369 1323 348 1344 306 1344 L273 1344 C249 1344 229 1337 194 1324 L79 1286 Z M330 46 C328 39 327 33 327 27 C327 8 340 0 372 0 L471 0 C514 0 553 39 566 91 L885 1293 C886 1297 887 1302 887 1309 C887 1332 871 1344 846 1344 L773 1344 C732 1344 700 1330 678 1302 C665 1285 655 1261 647 1232 L330 46 Z M1209 0 C1234 0 1252 15 1252 39 L1252 71 C1252 139 1220 177 1161 177 L1065 177 C1087 206 1108 231 1127 254 C1151 284 1169 308 1180 325 C1215 375 1232 418 1232 453 L1232 524 C1232 581 1207 633 1163 672 C1118 711 1055 733 983 733 C908 733 843 711 798 672 C753 633 726 580 726 524 L726 430 C726 401 732 392 763 392 L869 392 C906 392 940 424 940 465 L940 514 C940 530 960 549 979 549 C998 549 1018 530 1018 514 L1018 458 C1018 448 1011 432 998 411 C969 366 930 313 881 251 C854 216 832 187 815 163 C768 98 744 58 744 37 C744 12 756 0 781 0 L1209 0 Z " />
<glyph glyph-name="threequarters" unicode="&#xbe;" horiz-adv-x="1250" d="M298 921 C317 921 337 903 337 887 L337 836 C337 821 320 802 300 802 C281 802 261 817 260 834 C260 854 252 872 237 887 C223 900 208 906 191 906 L85 906 C53 906 47 899 47 870 L47 827 C47 770 72 717 116 680 C160 641 223 619 294 619 C367 619 433 641 478 680 C525 721 549 770 549 827 L549 875 C549 936 521 973 466 994 C521 1014 549 1051 549 1112 L549 1162 C549 1218 525 1270 481 1309 C436 1348 374 1370 302 1370 C229 1370 165 1348 118 1309 C73 1272 47 1219 47 1162 L47 1127 C47 1099 53 1091 85 1091 L189 1091 C225 1091 257 1120 260 1159 L260 1155 C263 1171 281 1187 298 1187 C317 1187 337 1169 337 1153 L337 1108 C337 1093 320 1074 300 1074 L245 1074 C214 1074 207 1069 207 1041 L207 982 C207 950 239 921 279 921 L298 921 Z M394 46 C392 39 391 33 391 27 C391 8 404 0 436 0 L535 0 C578 0 617 39 630 91 L949 1293 C950 1297 951 1302 951 1309 C951 1332 935 1344 910 1344 L837 1344 C796 1344 764 1330 742 1302 C729 1285 719 1261 711 1232 L394 46 Z M1240 413 C1240 441 1234 450 1202 450 L1133 450 C1101 450 1081 449 1064 441 C1040 431 1028 411 1028 381 L1028 288 L963 288 L1052 667 C1055 694 1045 708 1021 708 L937 708 C905 708 880 697 862 676 C849 660 845 646 838 622 L725 151 C724 147 723 142 723 135 C723 119 733 114 760 114 L1028 114 L1028 66 C1028 30 1061 -2 1097 -2 L1199 -2 C1230 -2 1240 8 1240 39 L1240 413 Z " />
<glyph glyph-name="questiondown" unicode="&#xbf;" horiz-adv-x="731" d="M392 924 C489 924 534 967 534 1042 C534 1118 489 1162 392 1162 C295 1162 246 1122 246 1042 C246 967 292 924 392 924 L392 924 Z M395 820 C303 820 259 774 259 654 C259 614 256 580 251 551 C240 502 221 464 193 436 L154 397 C123 365 100 330 81 278 C60 217 49 128 49 10 C49 -35 63 -74 90 -107 C145 -186 239 -233 359 -233 C450 -233 532 -206 589 -161 C648 -116 681 -54 681 14 L681 178 C681 210 669 223 634 223 L495 223 C474 223 455 217 440 206 C423 194 414 179 414 161 L414 40 C414 20 388 -4 364 -4 C339 -4 316 21 316 40 C316 83 319 119 325 147 C335 197 353 237 380 266 L417 306 C448 342 468 371 484 420 C503 480 513 564 512 672 L512 721 C511 732 511 748 511 769 C511 803 494 820 460 820 L395 820 Z " />
<glyph glyph-name="Agrave" unicode="&#xc0;" horiz-adv-x="643" d="M361 1632 C354 1660 330 1678 298 1678 L243 1678 C186 1678 157 1660 157 1624 C157 1612 161 1597 168 1579 L206 1489 C234 1421 254 1396 306 1396 L338 1396 C364 1396 377 1407 377 1429 C377 1432 376 1436 375 1443 L361 1632 Z M503 1294 C499 1331 487 1344 451 1344 L188 1344 C152 1344 139 1331 135 1294 L7 46 C6 42 6 37 6 30 C6 7 16 0 49 0 L180 0 C201 0 227 10 244 26 C265 44 275 66 276 91 L280 199 L358 199 L363 91 C364 66 375 45 396 26 C415 9 437 0 460 0 L591 0 C623 0 634 7 634 30 C634 37 634 42 633 46 L503 1294 Z M349 407 L289 407 L319 1103 L349 407 Z " />
<glyph glyph-name="Aacute" unicode="&#xc1;" horiz-adv-x="643" d="M253 1443 C250 1412 260 1396 289 1396 L322 1396 C348 1396 368 1404 383 1420 C395 1432 408 1455 421 1489 L459 1579 C466 1597 470 1612 470 1624 C470 1660 441 1678 384 1678 L330 1678 C298 1678 271 1660 267 1632 L253 1443 Z M503 1294 C499 1331 487 1344 451 1344 L188 1344 C152 1344 139 1331 135 1294 L7 46 C6 42 6 37 6 30 C6 7 16 0 49 0 L180 0 C201 0 227 10 244 26 C265 44 275 66 276 91 L280 199 L358 199 L363 91 C364 66 375 45 396 26 C415 9 437 0 460 0 L591 0 C623 0 634 7 634 30 C634 37 634 42 633 46 L503 1294 Z M349 407 L289 407 L319 1103 L349 407 Z " />
<glyph glyph-name="Acircumflex" unicode="&#xc2;" horiz-adv-x="643" d="M431 1659 C428 1671 417 1680 405 1680 L240 1680 C228 1680 217 1671 214 1659 L135 1413 L134 1409 C134 1398 144 1391 157 1391 L256 1391 C289 1391 311 1412 314 1443 L323 1595 L331 1443 C334 1412 356 1391 389 1391 L490 1391 C505 1391 514 1401 511 1413 L431 1659 Z M503 1294 C499 1331 487 1344 451 1344 L188 1344 C152 1344 139 1331 135 1294 L7 46 C6 42 6 37 6 30 C6 7 16 0 49 0 L180 0 C201 0 227 10 244 26 C265 44 275 66 276 91 L280 199 L358 199 L363 91 C364 66 375 45 396 26 C415 9 437 0 460 0 L591 0 C623 0 634 7 634 30 C634 37 634 42 633 46 L503 1294 Z M349 407 L289 407 L319 1103 L349 407 Z " />
<glyph glyph-name="Atilde" unicode="&#xc3;" horiz-adv-x="643" d="M411 1414 C435 1414 455 1405 458 1404 C461 1403 477 1393 500 1393 C516 1393 529 1406 529 1426 L529 1467 C529 1512 515 1545 486 1564 C465 1579 435 1586 397 1586 C368 1586 348 1581 319 1570 C291 1558 274 1553 250 1553 C235 1553 220 1556 204 1563 C200 1564 184 1572 161 1572 C145 1572 132 1560 132 1540 L132 1497 C132 1453 146 1421 175 1402 C198 1387 228 1379 266 1379 C291 1379 310 1385 341 1397 C354 1402 390 1414 411 1414 L411 1414 Z M503 1294 C499 1331 487 1344 451 1344 L188 1344 C152 1344 139 1331 135 1294 L7 46 C6 42 6 37 6 30 C6 7 16 0 49 0 L180 0 C201 0 227 10 244 26 C265 44 275 66 276 91 L280 199 L358 199 L363 91 C364 66 375 45 396 26 C415 9 437 0 460 0 L591 0 C623 0 634 7 634 30 C634 37 634 42 633 46 L503 1294 Z M349 407 L289 407 L319 1103 L349 407 Z " />
<glyph glyph-name="Adieresis" unicode="&#xc4;" horiz-adv-x="643" d="M197 1632 C128 1632 96 1589 96 1517 C96 1442 128 1398 197 1398 C267 1398 302 1438 302 1517 C302 1589 269 1632 197 1632 L197 1632 Z M445 1632 C376 1632 344 1589 344 1517 C344 1442 376 1398 445 1398 C515 1398 550 1438 550 1517 C550 1589 517 1632 445 1632 L445 1632 Z M503 1294 C499 1331 487 1344 451 1344 L188 1344 C152 1344 139 1331 135 1294 L7 46 C6 42 6 37 6 30 C6 7 16 0 49 0 L180 0 C201 0 227 10 244 26 C265 44 275 66 276 91 L280 199 L358 199 L363 91 C364 66 375 45 396 26 C415 9 437 0 460 0 L591 0 C623 0 634 7 634 30 C634 37 634 42 633 46 L503 1294 Z M349 407 L289 407 L319 1103 L349 407 Z " />
<glyph glyph-name="Aring" unicode="&#xc5;" horiz-adv-x="643" d="M319 1727 C192 1727 119 1669 119 1560 C119 1447 192 1387 319 1387 C450 1387 523 1447 523 1560 C523 1669 450 1727 319 1727 L319 1727 Z M319 1508 C279 1508 262 1524 262 1560 C262 1593 279 1609 319 1609 C358 1609 378 1593 378 1560 C378 1524 359 1508 319 1508 L319 1508 Z M503 1294 C499 1331 487 1344 451 1344 L188 1344 C152 1344 139 1331 135 1294 L7 46 C6 42 6 37 6 30 C6 7 16 0 49 0 L180 0 C201 0 227 10 244 26 C265 44 275 66 276 91 L280 199 L358 199 L363 91 C364 66 375 45 396 26 C415 9 437 0 460 0 L591 0 C623 0 634 7 634 30 C634 37 634 42 633 46 L503 1294 Z M349 407 L289 407 L319 1103 L349 407 Z " />
<glyph glyph-name="AE" unicode="&#xc6;" horiz-adv-x="954" d="M9 31 C9 7 18 0 51 0 L194 0 C215 0 240 9 257 25 C276 42 287 63 290 90 L311 199 L430 199 L430 48 C430 12 441 0 476 0 L869 0 C898 0 920 19 920 48 L920 88 C920 173 883 220 811 220 L695 220 L695 556 L766 556 C837 556 878 607 878 688 L878 728 C878 759 857 776 826 776 L695 776 L695 1124 L807 1124 C878 1124 920 1175 920 1256 L920 1296 C920 1325 898 1344 869 1344 L469 1344 L435 1345 C428 1346 419 1346 408 1346 C401 1346 390 1345 377 1344 C350 1339 335 1325 332 1294 L10 46 L9 31 Z M430 1022 L428 407 L350 407 L430 1022 Z " />
<glyph glyph-name="Ccedilla" unicode="&#xc7;" horiz-adv-x="731" d="M453 776 C468 765 487 759 508 759 L646 759 C679 759 692 773 692 805 L692 1109 C692 1178 662 1243 607 1291 C550 1339 472 1369 381 1370 C288 1370 206 1341 149 1293 C93 1245 61 1180 61 1109 L61 235 C61 164 91 99 146 52 C183 19 229 -4 283 -17 C286 -42 293 -64 302 -82 C309 -96 323 -124 323 -146 C323 -151 322 -153 320 -153 C318 -154 313 -154 305 -154 C289 -154 277 -156 268 -160 C255 -165 248 -175 248 -188 L249 -254 C249 -265 257 -272 272 -275 C289 -278 314 -280 347 -280 C390 -280 422 -270 443 -251 C467 -230 479 -195 479 -146 C479 -102 468 -77 451 -49 C443 -37 438 -28 435 -21 C502 -11 558 13 604 52 C660 99 692 164 692 235 L692 539 C692 568 678 584 645 584 L507 584 C486 584 467 578 452 567 C435 555 426 540 426 522 L426 247 C426 227 404 203 376 203 C351 203 327 226 327 247 L327 1097 C327 1117 352 1141 376 1141 C403 1141 427 1118 427 1097 L427 821 C427 803 436 788 453 776 L453 776 Z " />
<glyph glyph-name="Egrave" unicode="&#xc8;" horiz-adv-x="576" d="M328 1632 C321 1660 297 1678 265 1678 L210 1678 C153 1678 124 1660 124 1624 C124 1612 128 1597 135 1579 L173 1489 C201 1421 221 1396 273 1396 L305 1396 C331 1396 344 1407 344 1429 C344 1432 343 1436 342 1443 L328 1632 Z M98 1344 C59 1344 50 1333 50 1294 L50 48 C50 12 60 0 96 0 L488 0 C520 0 540 17 540 48 L540 88 C540 172 499 220 427 220 L316 220 L316 556 L386 556 C457 556 498 607 498 688 L498 728 C498 759 478 776 446 776 L316 776 L316 1124 L427 1124 C499 1124 540 1175 540 1256 L540 1296 C540 1327 520 1344 488 1344 L98 1344 Z " />
<glyph glyph-name="Eacute" unicode="&#xc9;" horiz-adv-x="576" d="M208 1443 C205 1412 215 1396 244 1396 L277 1396 C303 1396 323 1404 338 1420 C350 1432 363 1455 376 1489 L414 1579 C421 1597 425 1612 425 1624 C425 1660 396 1678 339 1678 L285 1678 C253 1678 226 1660 222 1632 L208 1443 Z M98 1344 C59 1344 50 1333 50 1294 L50 48 C50 12 60 0 96 0 L488 0 C520 0 540 17 540 48 L540 88 C540 172 499 220 427 220 L316 220 L316 556 L386 556 C457 556 498 607 498 688 L498 728 C498 759 478 776 446 776 L316 776 L316 1124 L427 1124 C499 1124 540 1175 540 1256 L540 1296 C540 1327 520 1344 488 1344 L98 1344 Z " />
<glyph glyph-name="Ecircumflex" unicode="&#xca;" horiz-adv-x="576" d="M395 1659 C392 1671 381 1680 369 1680 L204 1680 C192 1680 181 1671 178 1659 L99 1413 L98 1409 C98 1398 108 1391 121 1391 L220 1391 C253 1391 275 1412 278 1443 L287 1595 L295 1443 C298 1412 320 1391 353 1391 L454 1391 C469 1391 478 1401 475 1413 L395 1659 Z M98 1344 C59 1344 50 1333 50 1294 L50 48 C50 12 60 0 96 0 L488 0 C520 0 540 17 540 48 L540 88 C540 172 499 220 427 220 L316 220 L316 556 L386 556 C457 556 498 607 498 688 L498 728 C498 759 478 776 446 776 L316 776 L316 1124 L427 1124 C499 1124 540 1175 540 1256 L540 1296 C540 1327 520 1344 488 1344 L98 1344 Z " />
<glyph glyph-name="Edieresis" unicode="&#xcb;" horiz-adv-x="576" d="M162 1632 C93 1632 61 1589 61 1517 C61 1442 93 1398 162 1398 C232 1398 267 1438 267 1517 C267 1589 234 1632 162 1632 L162 1632 Z M410 1632 C341 1632 309 1589 309 1517 C309 1442 341 1398 410 1398 C480 1398 515 1438 515 1517 C515 1589 482 1632 410 1632 L410 1632 Z M98 1344 C59 1344 50 1333 50 1294 L50 48 C50 12 60 0 96 0 L488 0 C520 0 540 17 540 48 L540 88 C540 172 499 220 427 220 L316 220 L316 556 L386 556 C457 556 498 607 498 688 L498 728 C498 759 478 776 446 776 L316 776 L316 1124 L427 1124 C499 1124 540 1175 540 1256 L540 1296 C540 1327 520 1344 488 1344 L98 1344 Z " />
<glyph glyph-name="Igrave" unicode="&#xcc;" horiz-adv-x="366" d="M231 1632 C224 1660 200 1678 168 1678 L113 1678 C56 1678 27 1660 27 1624 C27 1612 31 1597 38 1579 L76 1489 C104 1421 124 1396 176 1396 L208 1396 C234 1396 247 1407 247 1429 C247 1432 246 1436 245 1443 L231 1632 Z M316 1297 C316 1334 309 1344 269 1344 L137 1344 C114 1344 94 1335 77 1318 C61 1302 50 1277 50 1253 L50 50 C50 13 64 0 100 0 L266 0 C302 0 316 13 316 50 L316 1297 Z " />
<glyph glyph-name="Iacute" unicode="&#xcd;" horiz-adv-x="366" d="M136 1443 C133 1412 143 1396 172 1396 L205 1396 C231 1396 251 1404 266 1420 C278 1432 291 1455 304 1489 L342 1579 C349 1597 353 1612 353 1624 C353 1660 324 1678 267 1678 L213 1678 C181 1678 154 1660 150 1632 L136 1443 Z M316 1297 C316 1334 309 1344 269 1344 L137 1344 C114 1344 94 1335 77 1318 C61 1302 50 1277 50 1253 L50 50 C50 13 64 0 100 0 L266 0 C302 0 316 13 316 50 L316 1297 Z " />
<glyph glyph-name="Icircumflex" unicode="&#xce;" horiz-adv-x="366" d="M292 1659 C289 1671 278 1680 266 1680 L101 1680 C89 1680 78 1671 75 1659 L-4 1413 L-5 1409 C-5 1398 5 1391 18 1391 L117 1391 C150 1391 172 1412 175 1443 L184 1595 L192 1443 C195 1412 217 1391 250 1391 L351 1391 C366 1391 375 1401 372 1413 L292 1659 Z M316 1297 C316 1334 309 1344 269 1344 L137 1344 C114 1344 94 1335 77 1318 C61 1302 50 1277 50 1253 L50 50 C50 13 64 0 100 0 L266 0 C302 0 316 13 316 50 L316 1297 Z " />
<glyph glyph-name="Idieresis" unicode="&#xcf;" horiz-adv-x="366" d="M57 1632 C-12 1632 -44 1589 -44 1517 C-44 1442 -12 1398 57 1398 C127 1398 162 1438 162 1517 C162 1589 129 1632 57 1632 L57 1632 Z M305 1632 C236 1632 204 1589 204 1517 C204 1442 236 1398 305 1398 C375 1398 410 1438 410 1517 C410 1589 377 1632 305 1632 L305 1632 Z M316 1297 C316 1334 309 1344 269 1344 L137 1344 C114 1344 94 1335 77 1318 C61 1302 50 1277 50 1253 L50 50 C50 13 64 0 100 0 L266 0 C302 0 316 13 316 50 L316 1297 Z " />
<glyph glyph-name="Eth" unicode="&#xd0;" horiz-adv-x="731" d="M359 0 C454 0 536 29 593 78 C649 126 681 191 681 262 L681 1082 C681 1154 650 1220 594 1268 C538 1316 459 1344 370 1344 L98 1344 C59 1344 50 1333 50 1294 L50 754 L4 754 C-19 754 -34 741 -34 718 L-34 655 C-34 595 -1 554 50 549 L50 50 C50 11 59 0 98 0 L359 0 Z M316 549 L350 549 C367 549 386 574 386 591 L386 718 C386 741 369 754 348 754 L316 754 L316 1124 L365 1124 C392 1124 415 1101 415 1080 L415 264 C415 244 391 220 368 220 L316 220 L316 549 Z " />
<glyph glyph-name="Ntilde" unicode="&#xd1;" horiz-adv-x="717" d="M446 1414 C470 1414 490 1405 493 1404 C496 1403 512 1393 535 1393 C551 1393 564 1406 564 1426 L564 1467 C564 1512 550 1545 521 1564 C500 1579 470 1586 432 1586 C403 1586 383 1581 354 1570 C326 1558 309 1553 285 1553 C270 1553 255 1556 239 1563 C235 1564 219 1572 196 1572 C180 1572 167 1560 167 1540 L167 1497 C167 1453 181 1421 210 1402 C233 1387 263 1379 301 1379 C326 1379 345 1385 376 1397 C389 1402 425 1414 446 1414 L446 1414 Z M668 1297 C668 1333 660 1344 621 1344 L488 1344 C467 1344 444 1334 428 1318 C411 1302 401 1278 402 1253 L448 787 L313 1267 C302 1314 267 1344 227 1344 L94 1344 C55 1344 48 1334 48 1297 L48 51 C48 12 62 0 99 0 L222 0 C275 0 315 40 314 92 L268 553 L402 79 C410 35 447 0 492 0 L617 0 C654 0 668 12 668 51 L668 1297 Z " />
<glyph glyph-name="Ograve" unicode="&#xd2;" horiz-adv-x="726" d="M400 1632 C393 1660 369 1678 337 1678 L282 1678 C225 1678 196 1660 196 1624 C196 1612 200 1597 207 1579 L245 1489 C273 1421 293 1396 345 1396 L377 1396 C403 1396 416 1407 416 1429 C416 1432 415 1436 414 1443 L400 1632 Z M49 239 C49 167 80 101 136 53 C192 4 272 -24 365 -24 C456 -24 535 5 592 54 C648 102 680 168 680 239 L680 1108 C680 1180 649 1245 594 1293 C537 1342 457 1370 364 1370 C275 1370 194 1341 137 1293 C81 1245 49 1180 49 1108 L49 239 Z M315 1097 C315 1118 340 1141 364 1141 C391 1141 414 1118 414 1097 L414 248 C414 228 392 204 367 204 C340 204 315 225 315 248 L315 1097 Z " />
<glyph glyph-name="Oacute" unicode="&#xd3;" horiz-adv-x="726" d="M310 1443 C307 1412 317 1396 346 1396 L379 1396 C404 1396 425 1404 440 1420 C452 1432 465 1455 478 1489 L516 1579 C523 1597 527 1612 527 1624 C527 1660 498 1678 441 1678 L387 1678 C355 1678 328 1660 324 1632 L310 1443 Z M49 239 C49 167 80 101 136 53 C192 4 272 -24 365 -24 C456 -24 535 5 592 54 C648 102 680 168 680 239 L680 1108 C680 1180 649 1245 594 1293 C537 1342 457 1370 364 1370 C275 1370 194 1341 137 1293 C81 1245 49 1180 49 1108 L49 239 Z M315 1097 C315 1118 340 1141 364 1141 C391 1141 414 1118 414 1097 L414 248 C414 228 392 204 367 204 C340 204 315 225 315 248 L315 1097 Z " />
<glyph glyph-name="Ocircumflex" unicode="&#xd4;" horiz-adv-x="726" d="M470 1659 C467 1671 456 1680 444 1680 L279 1680 C267 1680 256 1671 253 1659 L174 1413 L173 1409 C173 1398 183 1391 196 1391 L295 1391 C328 1391 350 1412 353 1443 L362 1595 L370 1443 C373 1412 395 1391 428 1391 L529 1391 C544 1391 553 1401 550 1413 L470 1659 Z M49 239 C49 167 80 101 136 53 C192 4 272 -24 365 -24 C456 -24 535 5 592 54 C648 102 680 168 680 239 L680 1108 C680 1180 649 1245 594 1293 C537 1342 457 1370 364 1370 C275 1370 194 1341 137 1293 C81 1245 49 1180 49 1108 L49 239 Z M315 1097 C315 1118 340 1141 364 1141 C391 1141 414 1118 414 1097 L414 248 C414 228 392 204 367 204 C340 204 315 225 315 248 L315 1097 Z " />
<glyph glyph-name="Otilde" unicode="&#xd5;" horiz-adv-x="726" d="M451 1441 C475 1441 495 1432 498 1431 C501 1430 517 1420 540 1420 C556 1420 569 1433 569 1453 L569 1494 C569 1539 555 1572 526 1591 C505 1606 475 1613 437 1613 C408 1613 388 1608 359 1597 C331 1585 314 1580 290 1580 C275 1580 260 1583 244 1590 C240 1591 224 1599 201 1599 C185 1599 172 1587 172 1567 L172 1524 C172 1480 186 1448 215 1429 C238 1414 268 1406 306 1406 C331 1406 350 1412 381 1424 C394 1429 430 1441 451 1441 L451 1441 Z M49 239 C49 167 80 101 136 53 C192 4 272 -24 365 -24 C456 -24 535 5 592 54 C648 102 680 168 680 239 L680 1108 C680 1180 649 1245 594 1293 C537 1342 457 1370 364 1370 C275 1370 194 1341 137 1293 C81 1245 49 1180 49 1108 L49 239 Z M315 1097 C315 1118 340 1141 364 1141 C391 1141 414 1118 414 1097 L414 248 C414 228 392 204 367 204 C340 204 315 225 315 248 L315 1097 Z " />
<glyph glyph-name="Odieresis" unicode="&#xd6;" horiz-adv-x="726" d="M237 1632 C168 1632 136 1589 136 1517 C136 1442 168 1398 237 1398 C307 1398 342 1438 342 1517 C342 1589 309 1632 237 1632 L237 1632 Z M485 1632 C416 1632 384 1589 384 1517 C384 1442 416 1398 485 1398 C555 1398 590 1438 590 1517 C590 1589 557 1632 485 1632 L485 1632 Z M49 239 C49 167 80 101 136 53 C192 4 272 -24 365 -24 C456 -24 535 5 592 54 C648 102 680 168 680 239 L680 1108 C680 1180 649 1245 594 1293 C537 1342 457 1370 364 1370 C275 1370 194 1341 137 1293 C81 1245 49 1180 49 1108 L49 239 Z M315 1097 C315 1118 340 1141 364 1141 C391 1141 414 1118 414 1097 L414 248 C414 228 392 204 367 204 C340 204 315 225 315 248 L315 1097 Z " />
<glyph glyph-name="multiply" unicode="&#xd7;" horiz-adv-x="570" d="M303 455 C322 432 344 421 369 421 C396 421 424 436 447 456 L496 500 C512 514 520 525 520 534 C520 541 514 551 503 564 L439 636 L476 668 C500 688 512 709 512 732 C512 753 501 776 480 801 L431 859 C420 872 408 879 395 879 C386 879 376 874 363 864 L293 803 L261 840 C241 864 220 876 197 876 C173 876 153 865 128 844 L72 795 C58 783 51 771 51 759 C51 749 56 738 66 727 L126 657 L91 626 C68 607 57 585 57 560 C57 534 69 508 92 482 L136 434 C149 419 160 411 169 411 C178 411 189 417 202 429 L273 490 L303 455 Z " />
<glyph glyph-name="Oslash" unicode="&#xd8;" horiz-adv-x="726" d="M49 239 C49 172 73 114 121 66 L79 -94 C77 -101 76 -108 76 -113 C76 -132 89 -140 121 -140 L165 -140 C208 -140 247 -101 260 -49 L269 -13 C302 -20 334 -24 365 -24 C456 -24 535 5 592 54 C648 102 680 168 680 239 L680 1108 C680 1165 662 1216 626 1260 L671 1433 C672 1437 673 1442 673 1449 C673 1472 657 1484 632 1484 L614 1484 C573 1484 541 1470 519 1442 C506 1425 496 1401 488 1372 L483 1352 C444 1364 404 1370 364 1370 C275 1370 194 1341 137 1293 C81 1245 49 1180 49 1108 L49 239 Z M315 1097 C315 1118 340 1141 364 1141 C391 1141 414 1118 414 1097 L414 248 C414 228 392 204 367 204 C340 204 315 225 315 248 L315 1097 Z " />
<glyph glyph-name="Ugrave" unicode="&#xd9;" horiz-adv-x="726" d="M406 1632 C399 1660 375 1678 343 1678 L288 1678 C231 1678 202 1660 202 1624 C202 1612 206 1597 213 1579 L251 1489 C279 1421 299 1396 351 1396 L383 1396 C409 1396 422 1407 422 1429 C422 1432 421 1436 420 1443 L406 1632 Z M314 1255 C314 1279 303 1302 287 1318 C270 1334 247 1344 226 1344 L96 1344 C57 1344 48 1333 48 1294 L48 235 C48 163 80 98 136 51 C193 2 273 -26 368 -26 C459 -26 536 2 593 51 C648 98 679 163 679 235 L679 1294 C679 1331 669 1344 630 1344 L500 1344 C477 1344 457 1335 440 1318 C424 1302 413 1279 413 1255 L413 247 C413 226 390 203 363 203 C338 203 314 227 314 247 L314 1255 Z " />
<glyph glyph-name="Uacute" unicode="&#xda;" horiz-adv-x="726" d="M297 1443 C294 1412 304 1396 333 1396 L366 1396 C392 1396 412 1404 427 1420 C439 1432 452 1455 465 1489 L503 1579 C510 1597 514 1612 514 1624 C514 1660 485 1678 428 1678 L374 1678 C342 1678 315 1660 311 1632 L297 1443 Z M314 1255 C314 1279 303 1302 287 1318 C270 1334 247 1344 226 1344 L96 1344 C57 1344 48 1333 48 1294 L48 235 C48 163 80 98 136 51 C193 2 273 -26 368 -26 C459 -26 536 2 593 51 C648 98 679 163 679 235 L679 1294 C679 1331 669 1344 630 1344 L500 1344 C477 1344 457 1335 440 1318 C424 1302 413 1279 413 1255 L413 247 C413 226 390 203 363 203 C338 203 314 227 314 247 L314 1255 Z " />
<glyph glyph-name="Ucircumflex" unicode="&#xdb;" horiz-adv-x="726" d="M470 1659 C467 1671 456 1680 444 1680 L279 1680 C267 1680 256 1671 253 1659 L174 1413 L173 1409 C173 1398 183 1391 196 1391 L295 1391 C328 1391 350 1412 353 1443 L362 1595 L370 1443 C373 1412 395 1391 428 1391 L529 1391 C544 1391 553 1401 550 1413 L470 1659 Z M314 1255 C314 1279 303 1302 287 1318 C270 1334 247 1344 226 1344 L96 1344 C57 1344 48 1333 48 1294 L48 235 C48 163 80 98 136 51 C193 2 273 -26 368 -26 C459 -26 536 2 593 51 C648 98 679 163 679 235 L679 1294 C679 1331 669 1344 630 1344 L500 1344 C477 1344 457 1335 440 1318 C424 1302 413 1279 413 1255 L413 247 C413 226 390 203 363 203 C338 203 314 227 314 247 L314 1255 Z " />
<glyph glyph-name="Udieresis" unicode="&#xdc;" horiz-adv-x="726" d="M237 1632 C168 1632 136 1589 136 1517 C136 1442 168 1398 237 1398 C307 1398 342 1438 342 1517 C342 1589 309 1632 237 1632 L237 1632 Z M485 1632 C416 1632 384 1589 384 1517 C384 1442 416 1398 485 1398 C555 1398 590 1438 590 1517 C590 1589 557 1632 485 1632 L485 1632 Z M314 1255 C314 1279 303 1302 287 1318 C270 1334 247 1344 226 1344 L96 1344 C57 1344 48 1333 48 1294 L48 235 C48 163 80 98 136 51 C193 2 273 -26 368 -26 C459 -26 536 2 593 51 C648 98 679 163 679 235 L679 1294 C679 1331 669 1344 630 1344 L500 1344 C477 1344 457 1335 440 1318 C424 1302 413 1279 413 1255 L413 247 C413 226 390 203 363 203 C338 203 314 227 314 247 L314 1255 Z " />
<glyph glyph-name="Yacute" unicode="&#xdd;" horiz-adv-x="618" d="M255 1443 C252 1412 262 1396 291 1396 L324 1396 C350 1396 370 1404 385 1420 C397 1432 410 1455 423 1489 L461 1579 C468 1597 472 1612 472 1624 C472 1660 443 1678 386 1678 L332 1678 C300 1678 273 1660 269 1632 L255 1443 Z M610 1287 C611 1290 611 1295 611 1301 C611 1330 595 1344 563 1344 L445 1344 C424 1344 398 1334 377 1318 C356 1301 340 1277 339 1253 L309 663 L278 1253 C277 1277 262 1301 241 1318 C220 1334 193 1344 172 1344 L55 1344 C23 1344 7 1330 7 1302 C7 1295 7 1290 8 1287 L176 359 L176 50 C176 13 189 0 226 0 L392 0 C428 0 442 13 442 50 L442 361 L610 1287 Z " />
<glyph glyph-name="Thorn" unicode="&#xde;" horiz-adv-x="707" d="M357 207 C450 207 532 236 591 285 C647 333 679 398 679 469 L679 842 C679 913 649 978 594 1026 C538 1074 459 1103 368 1103 L314 1103 L314 1257 C314 1280 305 1300 287 1318 C270 1334 247 1344 226 1344 L96 1344 C57 1344 48 1333 48 1294 L48 50 C48 11 57 0 96 0 L226 0 C247 0 270 10 287 26 C303 42 314 65 314 89 L314 207 L357 207 Z M363 883 C390 883 413 860 413 839 L413 472 C413 452 389 428 366 428 L314 428 L314 883 L363 883 Z " />
<glyph glyph-name="germandbls" unicode="&#xdf;" horiz-adv-x="726" d="M335 13 C335 -3 339 -14 348 -19 C355 -24 361 -26 368 -26 C461 -26 539 2 595 50 C650 97 679 163 679 235 L679 532 C679 608 643 654 575 682 C644 707 679 757 679 830 L679 1130 C679 1202 648 1267 593 1315 C537 1363 459 1391 368 1391 C275 1391 194 1363 137 1315 C80 1267 48 1201 48 1130 L48 47 C48 10 55 0 94 0 L226 0 C247 0 270 10 287 26 C305 44 314 65 314 90 L314 1118 C314 1139 339 1162 363 1162 C390 1162 413 1139 413 1118 L413 837 C413 808 412 793 399 793 L385 793 C350 793 348 789 348 752 L348 637 L348 609 C348 599 349 591 352 585 C358 569 372 561 394 561 L396 561 C412 561 413 548 413 516 L413 247 C413 224 401 203 377 203 C361 203 353 200 346 189 C339 179 335 158 335 125 L335 13 Z " />
<glyph glyph-name="agrave" unicode="&#xe0;" horiz-adv-x="606" d="M343 1431 C336 1459 312 1477 280 1477 L225 1477 C168 1477 139 1459 139 1423 C139 1411 143 1396 150 1378 L188 1288 C216 1220 236 1195 288 1195 L320 1195 C346 1195 359 1206 359 1228 C359 1231 358 1235 357 1242 L343 1431 Z M486 1083 C482 1120 470 1133 431 1133 L173 1133 C137 1133 122 1119 118 1083 L5 46 L4 32 C4 8 14 0 47 0 L179 0 C202 0 223 9 242 26 C261 44 271 66 272 91 L274 162 L329 162 L332 91 C333 66 343 45 363 26 C382 9 402 0 425 0 L557 0 C590 0 600 6 600 29 C600 36 600 41 599 46 L486 1083 Z M303 903 L323 349 L281 349 L300 903 L303 903 Z " />
<glyph glyph-name="aacute" unicode="&#xe1;" horiz-adv-x="606" d="M232 1243 C229 1212 239 1196 268 1196 L301 1196 C327 1196 347 1204 362 1220 C374 1232 387 1255 400 1289 L438 1379 C445 1397 449 1412 449 1424 C449 1460 420 1478 363 1478 L309 1478 C277 1478 250 1460 246 1432 L232 1243 Z M486 1083 C482 1120 470 1133 431 1133 L173 1133 C137 1133 122 1119 118 1083 L5 46 L4 32 C4 8 14 0 47 0 L179 0 C202 0 223 9 242 26 C261 44 271 66 272 91 L274 162 L329 162 L332 91 C333 66 343 45 363 26 C382 9 402 0 425 0 L557 0 C590 0 600 6 600 29 C600 36 600 41 599 46 L486 1083 Z M303 903 L323 349 L281 349 L300 903 L303 903 Z " />
<glyph glyph-name="acircumflex" unicode="&#xe2;" horiz-adv-x="606" d="M410 1459 C407 1471 396 1480 384 1480 L219 1480 C207 1480 196 1471 193 1459 L114 1213 L113 1209 C113 1198 123 1191 136 1191 L235 1191 C268 1191 290 1212 293 1243 L302 1395 L310 1243 C313 1212 335 1191 368 1191 L469 1191 C484 1191 493 1201 490 1213 L410 1459 Z M486 1083 C482 1120 470 1133 431 1133 L173 1133 C137 1133 122 1119 118 1083 L5 46 L4 32 C4 8 14 0 47 0 L179 0 C202 0 223 9 242 26 C261 44 271 66 272 91 L274 162 L329 162 L332 91 C333 66 343 45 363 26 C382 9 402 0 425 0 L557 0 C590 0 600 6 600 29 C600 36 600 41 599 46 L486 1083 Z M303 903 L323 349 L281 349 L300 903 L303 903 Z " />
<glyph glyph-name="atilde" unicode="&#xe3;" horiz-adv-x="606" d="M391 1214 C415 1214 435 1205 438 1204 C441 1203 457 1193 480 1193 C496 1193 509 1206 509 1226 L509 1267 C509 1312 495 1345 466 1364 C445 1379 415 1386 377 1386 C348 1386 328 1381 299 1370 C271 1358 254 1353 230 1353 C215 1353 200 1356 184 1363 C180 1364 164 1372 141 1372 C125 1372 112 1360 112 1340 L112 1297 C112 1253 126 1221 155 1202 C178 1187 208 1179 246 1179 C271 1179 290 1185 321 1197 C334 1202 370 1214 391 1214 L391 1214 Z M486 1083 C482 1120 470 1133 431 1133 L173 1133 C137 1133 122 1119 118 1083 L5 46 L4 32 C4 8 14 0 47 0 L179 0 C202 0 223 9 242 26 C261 44 271 66 272 91 L274 162 L329 162 L332 91 C333 66 343 45 363 26 C382 9 402 0 425 0 L557 0 C590 0 600 6 600 29 C600 36 600 41 599 46 L486 1083 Z M303 903 L323 349 L281 349 L300 903 L303 903 Z " />
<glyph glyph-name="adieresis" unicode="&#xe4;" horiz-adv-x="606" d="M177 1432 C108 1432 76 1389 76 1317 C76 1242 108 1198 177 1198 C247 1198 282 1238 282 1317 C282 1389 249 1432 177 1432 L177 1432 Z M425 1432 C356 1432 324 1389 324 1317 C324 1242 356 1198 425 1198 C495 1198 530 1238 530 1317 C530 1389 497 1432 425 1432 L425 1432 Z M486 1083 C482 1120 470 1133 431 1133 L173 1133 C137 1133 122 1119 118 1083 L5 46 L4 32 C4 8 14 0 47 0 L179 0 C202 0 223 9 242 26 C261 44 271 66 272 91 L274 162 L329 162 L332 91 C333 66 343 45 363 26 C382 9 402 0 425 0 L557 0 C590 0 600 6 600 29 C600 36 600 41 599 46 L486 1083 Z M303 903 L323 349 L281 349 L300 903 L303 903 Z " />
<glyph glyph-name="aring" unicode="&#xe5;" horiz-adv-x="606" d="M301 1527 C174 1527 101 1469 101 1360 C101 1247 174 1187 301 1187 C432 1187 505 1247 505 1360 C505 1469 432 1527 301 1527 L301 1527 Z M301 1308 C261 1308 244 1324 244 1360 C244 1393 261 1409 301 1409 C340 1409 360 1393 360 1360 C360 1324 341 1308 301 1308 L301 1308 Z M486 1083 C482 1120 470 1133 431 1133 L173 1133 C137 1133 122 1119 118 1083 L5 46 L4 32 C4 8 14 0 47 0 L179 0 C202 0 223 9 242 26 C261 44 271 66 272 91 L274 162 L329 162 L332 91 C333 66 343 45 363 26 C382 9 402 0 425 0 L557 0 C590 0 600 6 600 29 C600 36 600 41 599 46 L486 1083 Z M303 903 L323 349 L281 349 L300 903 L303 903 Z " />
<glyph glyph-name="ae" unicode="&#xe6;" horiz-adv-x="852" d="M771 0 C803 0 824 17 824 48 L824 88 C824 172 784 220 711 220 L600 220 L600 447 L671 447 C743 447 782 494 782 578 L782 598 C782 646 770 667 730 667 L600 667 L600 913 L711 913 C783 913 824 961 824 1045 L824 1085 C824 1116 803 1133 771 1133 L257 1133 L211 1133 C198 1133 187 1132 180 1129 C163 1122 154 1111 150 1083 L6 48 C5 44 5 38 5 31 C5 8 15 0 47 0 L131 0 C218 0 254 24 262 76 L277 162 L334 162 L334 48 C334 12 345 0 381 0 L771 0 Z M334 903 L334 371 L291 371 L321 903 L334 903 Z " />
<glyph glyph-name="ccedilla" unicode="&#xe7;" horiz-adv-x="731" d="M442 632 C457 621 476 615 497 615 L635 615 C668 615 681 630 681 661 L681 897 C681 966 651 1031 596 1079 C540 1127 462 1155 370 1158 C277 1158 195 1129 138 1081 C82 1033 50 968 50 897 L50 235 C50 164 80 99 135 52 C176 17 225 -7 283 -19 C287 -44 293 -65 302 -82 C309 -96 323 -124 323 -146 C323 -151 322 -153 320 -153 C318 -154 313 -154 305 -154 C289 -154 277 -156 268 -160 C255 -165 248 -175 248 -188 L249 -254 C249 -265 257 -272 272 -275 C289 -278 314 -280 347 -280 C390 -280 422 -270 443 -251 C467 -230 479 -195 479 -146 C479 -102 468 -77 451 -49 C441 -32 435 -23 434 -20 C498 -8 551 16 593 52 C649 99 681 164 681 235 L681 463 C681 492 667 508 634 508 L496 508 C475 508 456 502 441 491 C424 479 415 464 415 446 L415 247 C415 227 393 203 365 203 C340 203 316 226 316 247 L316 885 C316 905 341 929 365 929 C392 929 416 906 416 885 L416 677 C416 659 425 644 442 632 L442 632 Z " />
<glyph glyph-name="egrave" unicode="&#xe8;" horiz-adv-x="555" d="M325 1432 C318 1460 294 1478 262 1478 L207 1478 C150 1478 121 1460 121 1424 C121 1412 125 1397 132 1379 L170 1289 C198 1221 218 1196 270 1196 L302 1196 C328 1196 341 1207 341 1229 C341 1232 340 1236 339 1243 L325 1432 Z M486 0 C518 0 538 17 538 48 L538 88 C538 172 498 220 425 220 L314 220 L314 447 L387 447 C459 447 497 494 497 578 L497 618 C497 649 476 667 444 667 L314 667 L314 913 L425 913 C497 913 538 961 538 1045 L538 1085 C538 1116 518 1133 486 1133 L139 1133 L113 1133 C88 1133 74 1132 66 1128 C54 1123 48 1108 48 1083 L48 43 C49 11 59 0 95 0 L486 0 Z " />
<glyph glyph-name="eacute" unicode="&#xe9;" horiz-adv-x="555" d="M207 1243 C204 1212 214 1196 243 1196 L276 1196 C302 1196 322 1204 337 1220 C349 1232 362 1255 375 1289 L413 1379 C420 1397 424 1412 424 1424 C424 1460 395 1478 338 1478 L284 1478 C252 1478 225 1460 221 1432 L207 1243 Z M486 0 C518 0 538 17 538 48 L538 88 C538 172 498 220 425 220 L314 220 L314 447 L387 447 C459 447 497 494 497 578 L497 618 C497 649 476 667 444 667 L314 667 L314 913 L425 913 C497 913 538 961 538 1045 L538 1085 C538 1116 518 1133 486 1133 L139 1133 L113 1133 C88 1133 74 1132 66 1128 C54 1123 48 1108 48 1083 L48 43 C49 11 59 0 95 0 L486 0 Z " />
<glyph glyph-name="ecircumflex" unicode="&#xea;" horiz-adv-x="555" d="M385 1459 C382 1471 371 1480 359 1480 L194 1480 C182 1480 171 1471 168 1459 L89 1213 L88 1209 C88 1198 98 1191 111 1191 L210 1191 C243 1191 265 1212 268 1243 L277 1395 L285 1243 C288 1212 310 1191 343 1191 L444 1191 C459 1191 468 1201 465 1213 L385 1459 Z M486 0 C518 0 538 17 538 48 L538 88 C538 172 498 220 425 220 L314 220 L314 447 L387 447 C459 447 497 494 497 578 L497 618 C497 649 476 667 444 667 L314 667 L314 913 L425 913 C497 913 538 961 538 1045 L538 1085 C538 1116 518 1133 486 1133 L139 1133 L113 1133 C88 1133 74 1132 66 1128 C54 1123 48 1108 48 1083 L48 43 C49 11 59 0 95 0 L486 0 Z " />
<glyph glyph-name="edieresis" unicode="&#xeb;" horiz-adv-x="555" d="M150 1432 C81 1432 49 1389 49 1317 C49 1242 81 1198 150 1198 C220 1198 255 1238 255 1317 C255 1389 222 1432 150 1432 L150 1432 Z M398 1432 C329 1432 297 1389 297 1317 C297 1242 329 1198 398 1198 C468 1198 503 1238 503 1317 C503 1389 470 1432 398 1432 L398 1432 Z M486 0 C518 0 538 17 538 48 L538 88 C538 172 498 220 425 220 L314 220 L314 447 L387 447 C459 447 497 494 497 578 L497 618 C497 649 476 667 444 667 L314 667 L314 913 L425 913 C497 913 538 961 538 1045 L538 1085 C538 1116 518 1133 486 1133 L139 1133 L113 1133 C88 1133 74 1132 66 1128 C54 1123 48 1108 48 1083 L48 43 C49 11 59 0 95 0 L486 0 Z " />
<glyph glyph-name="igrave" unicode="&#xec;" horiz-adv-x="362" d="M226 1432 C219 1460 195 1478 163 1478 L108 1478 C51 1478 22 1460 22 1424 C22 1412 26 1397 33 1379 L71 1289 C99 1221 119 1196 171 1196 L203 1196 C229 1196 242 1207 242 1229 C242 1232 241 1236 240 1243 L226 1432 Z M314 1086 C314 1123 307 1133 266 1133 L135 1133 C112 1133 92 1124 75 1107 C59 1091 48 1066 48 1042 L48 50 C48 13 62 0 98 0 L264 0 C300 0 314 13 314 50 L314 1086 Z " />
<glyph glyph-name="iacute" unicode="&#xed;" horiz-adv-x="362" d="M123 1243 C120 1212 130 1196 159 1196 L192 1196 C218 1196 238 1204 253 1220 C265 1232 278 1255 291 1289 L329 1379 C336 1397 340 1412 340 1424 C340 1460 311 1478 254 1478 L200 1478 C168 1478 141 1460 137 1432 L123 1243 Z M314 1086 C314 1123 307 1133 266 1133 L135 1133 C112 1133 92 1124 75 1107 C59 1091 48 1066 48 1042 L48 50 C48 13 62 0 98 0 L264 0 C300 0 314 13 314 50 L314 1086 Z " />
<glyph glyph-name="icircumflex" unicode="&#xee;" horiz-adv-x="362" d="M290 1459 C287 1471 276 1480 264 1480 L99 1480 C87 1480 76 1471 73 1459 L-6 1213 L-7 1209 C-7 1198 3 1191 16 1191 L115 1191 C148 1191 170 1212 173 1243 L182 1395 L190 1243 C193 1212 215 1191 248 1191 L349 1191 C364 1191 373 1201 370 1213 L290 1459 Z M314 1086 C314 1123 307 1133 266 1133 L135 1133 C112 1133 92 1124 75 1107 C59 1091 48 1066 48 1042 L48 50 C48 13 62 0 98 0 L264 0 C300 0 314 13 314 50 L314 1086 Z " />
<glyph glyph-name="idieresis" unicode="&#xef;" horiz-adv-x="362" d="M55 1432 C-14 1432 -46 1389 -46 1317 C-46 1242 -14 1198 55 1198 C125 1198 160 1238 160 1317 C160 1389 127 1432 55 1432 L55 1432 Z M303 1432 C234 1432 202 1389 202 1317 C202 1242 234 1198 303 1198 C373 1198 408 1238 408 1317 C408 1389 375 1432 303 1432 L303 1432 Z M314 1086 C314 1123 307 1133 266 1133 L135 1133 C112 1133 92 1124 75 1107 C59 1091 48 1066 48 1042 L48 50 C48 13 62 0 98 0 L264 0 C300 0 314 13 314 50 L314 1086 Z " />
<glyph glyph-name="eth" unicode="&#xf0;" horiz-adv-x="726" d="M357 0 C450 0 533 29 590 78 C646 126 679 191 679 262 L679 871 C679 943 649 1009 593 1057 C536 1105 457 1133 368 1133 L96 1133 C57 1133 48 1122 48 1083 L48 659 L4 659 C-19 659 -34 646 -34 623 L-34 559 C-34 500 -1 461 48 454 L48 50 C48 11 57 0 96 0 L357 0 Z M314 454 L350 454 C369 454 386 477 386 496 L386 623 C386 646 369 659 348 659 L314 659 L314 913 L363 913 C390 913 413 890 413 869 L413 264 C413 244 389 220 366 220 L314 220 L314 454 Z " />
<glyph glyph-name="ntilde" unicode="&#xf1;" horiz-adv-x="717" d="M446 1214 C470 1214 490 1205 493 1204 C496 1203 512 1193 535 1193 C551 1193 564 1206 564 1226 L564 1267 C564 1312 550 1345 521 1364 C500 1379 470 1386 432 1386 C403 1386 383 1381 354 1370 C326 1358 309 1353 285 1353 C270 1353 255 1356 239 1363 C235 1364 219 1372 196 1372 C180 1372 167 1360 167 1340 L167 1297 C167 1253 181 1221 210 1202 C233 1187 263 1179 301 1179 C326 1179 345 1185 376 1197 C389 1202 425 1214 446 1214 L446 1214 Z M668 1085 C668 1122 660 1133 621 1133 L488 1133 C467 1133 443 1123 427 1107 C410 1091 399 1066 402 1042 L462 587 L312 1064 C305 1082 294 1098 277 1113 C259 1126 242 1133 227 1133 L94 1133 C55 1133 48 1122 48 1085 L48 51 C48 12 62 0 99 0 L222 0 C249 0 272 9 290 27 C309 45 317 67 314 92 L255 550 L405 67 C416 27 449 0 492 0 L617 0 C654 0 668 12 668 51 L668 1085 Z " />
<glyph glyph-name="ograve" unicode="&#xf2;" horiz-adv-x="731" d="M410 1432 C403 1460 379 1478 347 1478 L292 1478 C235 1478 206 1460 206 1424 C206 1412 210 1397 217 1379 L255 1289 C283 1221 303 1196 355 1196 L387 1196 C413 1196 426 1207 426 1229 C426 1232 425 1236 424 1243 L410 1432 Z M50 239 C50 167 81 101 137 53 C193 4 273 -24 366 -24 C457 -24 536 5 593 54 C649 102 681 168 681 239 L681 898 C681 970 650 1035 595 1083 C538 1132 458 1160 365 1160 C276 1160 195 1131 138 1083 C82 1035 50 970 50 898 L50 239 Z M316 887 C316 908 341 931 365 931 C392 931 415 908 415 887 L415 248 C415 228 393 204 368 204 C341 204 316 225 316 248 L316 887 Z " />
<glyph glyph-name="oacute" unicode="&#xf3;" horiz-adv-x="731" d="M292 1243 C289 1212 299 1196 328 1196 L361 1196 C387 1196 407 1204 422 1220 C434 1232 447 1255 460 1289 L498 1379 C505 1397 509 1412 509 1424 C509 1460 480 1478 423 1478 L369 1478 C337 1478 310 1460 306 1432 L292 1243 Z M50 239 C50 167 81 101 137 53 C193 4 273 -24 366 -24 C457 -24 536 5 593 54 C649 102 681 168 681 239 L681 898 C681 970 650 1035 595 1083 C538 1132 458 1160 365 1160 C276 1160 195 1131 138 1083 C82 1035 50 970 50 898 L50 239 Z M316 887 C316 908 341 931 365 931 C392 931 415 908 415 887 L415 248 C415 228 393 204 368 204 C341 204 316 225 316 248 L316 887 Z " />
<glyph glyph-name="ocircumflex" unicode="&#xf4;" horiz-adv-x="731" d="M473 1459 C470 1471 459 1480 447 1480 L282 1480 C270 1480 259 1471 256 1459 L177 1213 L176 1209 C176 1198 186 1191 199 1191 L298 1191 C331 1191 353 1212 356 1243 L365 1395 L373 1243 C376 1212 398 1191 431 1191 L532 1191 C547 1191 556 1201 553 1213 L473 1459 Z M50 239 C50 167 81 101 137 53 C193 4 273 -24 366 -24 C457 -24 536 5 593 54 C649 102 681 168 681 239 L681 898 C681 970 650 1035 595 1083 C538 1132 458 1160 365 1160 C276 1160 195 1131 138 1083 C82 1035 50 970 50 898 L50 239 Z M316 887 C316 908 341 931 365 931 C392 931 415 908 415 887 L415 248 C415 228 393 204 368 204 C341 204 316 225 316 248 L316 887 Z " />
<glyph glyph-name="otilde" unicode="&#xf5;" horiz-adv-x="731" d="M449 1236 C473 1236 493 1227 496 1226 C499 1225 515 1215 538 1215 C554 1215 567 1228 567 1248 L567 1289 C567 1334 553 1367 524 1386 C503 1401 473 1408 435 1408 C406 1408 386 1403 357 1392 C329 1380 312 1375 288 1375 C273 1375 258 1378 242 1385 C238 1386 222 1394 199 1394 C183 1394 170 1382 170 1362 L170 1319 C170 1275 184 1243 213 1224 C236 1209 266 1201 304 1201 C329 1201 348 1207 379 1219 C392 1224 428 1236 449 1236 L449 1236 Z M50 239 C50 167 81 101 137 53 C193 4 273 -24 366 -24 C457 -24 536 5 593 54 C649 102 681 168 681 239 L681 898 C681 970 650 1035 595 1083 C538 1132 458 1160 365 1160 C276 1160 195 1131 138 1083 C82 1035 50 970 50 898 L50 239 Z M316 887 C316 908 341 931 365 931 C392 931 415 908 415 887 L415 248 C415 228 393 204 368 204 C341 204 316 225 316 248 L316 887 Z " />
<glyph glyph-name="odieresis" unicode="&#xf6;" horiz-adv-x="731" d="M239 1432 C170 1432 138 1389 138 1317 C138 1242 170 1198 239 1198 C309 1198 344 1238 344 1317 C344 1389 311 1432 239 1432 L239 1432 Z M487 1432 C418 1432 386 1389 386 1317 C386 1242 418 1198 487 1198 C557 1198 592 1238 592 1317 C592 1389 559 1432 487 1432 L487 1432 Z M50 239 C50 167 81 101 137 53 C193 4 273 -24 366 -24 C457 -24 536 5 593 54 C649 102 681 168 681 239 L681 898 C681 970 650 1035 595 1083 C538 1132 458 1160 365 1160 C276 1160 195 1131 138 1083 C82 1035 50 970 50 898 L50 239 Z M316 887 C316 908 341 931 365 931 C392 931 415 908 415 887 L415 248 C415 228 393 204 368 204 C341 204 316 225 316 248 L316 887 Z " />
<glyph glyph-name="divide" unicode="&#xf7;" horiz-adv-x="574" d="M281 1024 C184 1024 139 981 139 906 C139 830 184 786 281 786 C378 786 427 826 427 906 C427 981 381 1024 281 1024 L281 1024 Z M176 757 C135 757 103 747 80 728 C59 711 49 689 49 662 L49 588 C49 571 55 558 67 549 C74 544 87 541 106 541 L395 541 C438 541 472 553 497 578 C516 597 525 620 525 647 L525 710 C525 750 514 757 471 757 L176 757 Z M277 507 C180 507 135 464 135 389 C135 313 180 269 277 269 C374 269 423 309 423 389 C423 464 377 507 277 507 L277 507 Z " />
<glyph glyph-name="oslash" unicode="&#xf8;" horiz-adv-x="731" d="M49 239 C49 172 73 114 121 66 L79 -94 C77 -101 76 -108 76 -113 C76 -132 89 -140 121 -140 L165 -140 C208 -140 247 -101 260 -49 L269 -13 C302 -20 334 -24 365 -24 C456 -24 535 5 592 54 C648 102 680 168 680 239 L680 898 C680 955 662 1006 626 1050 L671 1223 C672 1227 673 1232 673 1239 C673 1262 657 1274 632 1274 L614 1274 C573 1274 541 1260 519 1232 C506 1215 496 1191 488 1162 L483 1142 C444 1154 404 1160 364 1160 C275 1160 194 1131 137 1083 C81 1035 49 970 49 898 L49 239 Z M315 887 C315 908 340 931 364 931 C391 931 414 908 414 887 L414 248 C414 228 392 204 367 204 C340 204 315 225 315 248 L315 887 Z " />
<glyph glyph-name="ugrave" unicode="&#xf9;" horiz-adv-x="726" d="M406 1432 C399 1460 375 1478 343 1478 L288 1478 C231 1478 202 1460 202 1424 C202 1412 206 1397 213 1379 L251 1289 C279 1221 299 1196 351 1196 L383 1196 C409 1196 422 1207 422 1229 C422 1232 421 1236 420 1243 L406 1432 Z M314 1045 C314 1069 303 1092 287 1108 C270 1124 247 1134 226 1134 L96 1134 C57 1134 48 1123 48 1084 L48 235 C48 163 80 98 136 51 C193 2 273 -26 368 -26 C459 -26 536 2 593 51 C648 98 679 163 679 235 L679 1084 C679 1121 669 1134 630 1134 L500 1134 C477 1134 457 1125 440 1108 C424 1092 413 1069 413 1045 L413 247 C413 226 390 203 363 203 C338 203 314 227 314 247 L314 1045 Z " />
<glyph glyph-name="uacute" unicode="&#xfa;" horiz-adv-x="726" d="M294 1243 C291 1212 301 1196 330 1196 L363 1196 C389 1196 409 1204 424 1220 C436 1232 449 1255 462 1289 L500 1379 C507 1397 511 1412 511 1424 C511 1460 482 1478 425 1478 L371 1478 C339 1478 312 1460 308 1432 L294 1243 Z M314 1045 C314 1069 303 1092 287 1108 C270 1124 247 1134 226 1134 L96 1134 C57 1134 48 1123 48 1084 L48 235 C48 163 80 98 136 51 C193 2 273 -26 368 -26 C459 -26 536 2 593 51 C648 98 679 163 679 235 L679 1084 C679 1121 669 1134 630 1134 L500 1134 C477 1134 457 1125 440 1108 C424 1092 413 1069 413 1045 L413 247 C413 226 390 203 363 203 C338 203 314 227 314 247 L314 1045 Z " />
<glyph glyph-name="ucircumflex" unicode="&#xfb;" horiz-adv-x="726" d="M470 1459 C467 1471 456 1480 444 1480 L279 1480 C267 1480 256 1471 253 1459 L174 1213 L173 1209 C173 1198 183 1191 196 1191 L295 1191 C328 1191 350 1212 353 1243 L362 1395 L370 1243 C373 1212 395 1191 428 1191 L529 1191 C544 1191 553 1201 550 1213 L470 1459 Z M314 1045 C314 1069 303 1092 287 1108 C270 1124 247 1134 226 1134 L96 1134 C57 1134 48 1123 48 1084 L48 235 C48 163 80 98 136 51 C193 2 273 -26 368 -26 C459 -26 536 2 593 51 C648 98 679 163 679 235 L679 1084 C679 1121 669 1134 630 1134 L500 1134 C477 1134 457 1125 440 1108 C424 1092 413 1069 413 1045 L413 247 C413 226 390 203 363 203 C338 203 314 227 314 247 L314 1045 Z " />
<glyph glyph-name="udieresis" unicode="&#xfc;" horiz-adv-x="726" d="M237 1432 C168 1432 136 1389 136 1317 C136 1242 168 1198 237 1198 C307 1198 342 1238 342 1317 C342 1389 309 1432 237 1432 L237 1432 Z M485 1432 C416 1432 384 1389 384 1317 C384 1242 416 1198 485 1198 C555 1198 590 1238 590 1317 C590 1389 557 1432 485 1432 L485 1432 Z M314 1045 C314 1069 303 1092 287 1108 C270 1124 247 1134 226 1134 L96 1134 C57 1134 48 1123 48 1084 L48 235 C48 163 80 98 136 51 C193 2 273 -26 368 -26 C459 -26 536 2 593 51 C648 98 679 163 679 235 L679 1084 C679 1121 669 1134 630 1134 L500 1134 C477 1134 457 1125 440 1108 C424 1092 413 1069 413 1045 L413 247 C413 226 390 203 363 203 C338 203 314 227 314 247 L314 1045 Z " />
<glyph glyph-name="yacute" unicode="&#xfd;" horiz-adv-x="598" d="M239 1243 C236 1212 246 1196 275 1196 L308 1196 C334 1196 354 1204 369 1220 C381 1232 394 1255 407 1289 L445 1379 C452 1397 456 1412 456 1424 C456 1460 427 1478 370 1478 L316 1478 C284 1478 257 1460 253 1432 L239 1243 Z M591 1085 C592 1088 592 1091 592 1096 C592 1121 576 1133 543 1133 L426 1133 C403 1133 377 1125 358 1112 C335 1097 321 1077 320 1057 L299 622 L278 1057 C278 1077 264 1097 241 1112 C221 1125 195 1133 172 1133 L55 1133 C23 1133 7 1121 7 1097 C7 1092 7 1088 8 1085 L166 313 L166 43 C166 12 180 0 216 0 L382 0 C421 0 432 11 432 43 L432 315 L591 1085 Z " />
<glyph glyph-name="thorn" unicode="&#xfe;" horiz-adv-x="703" d="M226 0 C247 0 270 10 287 26 C303 42 314 65 314 89 L314 177 L357 177 C450 177 532 206 591 255 C647 303 679 368 679 439 L679 694 C679 765 649 830 594 878 C539 927 459 956 368 956 L314 956 L314 1043 C314 1068 305 1089 287 1107 C270 1123 247 1133 226 1133 L96 1133 C57 1133 48 1122 48 1083 L48 50 C48 11 57 0 96 0 L226 0 Z M363 736 C390 736 413 713 413 692 L413 442 C413 422 389 397 366 397 L314 397 L314 736 L363 736 Z " />
<glyph glyph-name="ydieresis" unicode="&#xff;" horiz-adv-x="598" d="M173 1432 C104 1432 72 1389 72 1317 C72 1242 104 1198 173 1198 C243 1198 278 1238 278 1317 C278 1389 245 1432 173 1432 L173 1432 Z M421 1432 C352 1432 320 1389 320 1317 C320 1242 352 1198 421 1198 C491 1198 526 1238 526 1317 C526 1389 493 1432 421 1432 L421 1432 Z M591 1085 C592 1088 592 1091 592 1096 C592 1121 576 1133 543 1133 L426 1133 C403 1133 377 1125 358 1112 C335 1097 321 1077 320 1057 L299 622 L278 1057 C278 1077 264 1097 241 1112 C221 1125 195 1133 172 1133 L55 1133 C23 1133 7 1121 7 1097 C7 1092 7 1088 8 1085 L166 313 L166 43 C166 12 180 0 216 0 L382 0 C421 0 432 11 432 43 L432 315 L591 1085 Z " />
<glyph glyph-name="Amacron" unicode="&#x100;" horiz-adv-x="643" d="M173 1559 C150 1559 136 1546 136 1523 L136 1493 C136 1429 172 1387 228 1387 L419 1387 C475 1387 511 1429 511 1493 L511 1523 C511 1546 495 1559 474 1559 L173 1559 Z M503 1294 C499 1331 487 1344 451 1344 L188 1344 C152 1344 139 1331 135 1294 L7 46 C6 42 6 37 6 30 C6 7 16 0 49 0 L180 0 C201 0 227 10 244 26 C265 44 275 66 276 91 L280 199 L358 199 L363 91 C364 66 375 45 396 26 C415 9 437 0 460 0 L591 0 C623 0 634 7 634 30 C634 37 634 42 633 46 L503 1294 Z M349 407 L289 407 L319 1103 L349 407 Z " />
<glyph glyph-name="amacron" unicode="&#x101;" horiz-adv-x="606" d="M153 1359 C130 1359 116 1346 116 1323 L116 1293 C116 1229 152 1187 208 1187 L399 1187 C455 1187 491 1229 491 1293 L491 1323 C491 1346 475 1359 454 1359 L153 1359 Z M486 1083 C482 1120 470 1133 431 1133 L173 1133 C137 1133 122 1119 118 1083 L5 46 L4 32 C4 8 14 0 47 0 L179 0 C202 0 223 9 242 26 C261 44 271 66 272 91 L274 162 L329 162 L332 91 C333 66 343 45 363 26 C382 9 402 0 425 0 L557 0 C590 0 600 6 600 29 C600 36 600 41 599 46 L486 1083 Z M303 903 L323 349 L281 349 L300 903 L303 903 Z " />
<glyph glyph-name="Abreve" unicode="&#x102;" horiz-adv-x="643" d="M506 1661 C506 1674 498 1684 485 1684 L396 1684 C380 1684 359 1681 352 1677 C337 1673 335 1644 335 1596 L332 1544 C330 1529 326 1521 319 1521 C314 1521 311 1525 309 1532 C305 1547 303 1569 303 1596 L300 1633 C297 1660 291 1675 283 1678 C272 1682 258 1684 245 1684 L155 1684 C142 1684 135 1676 135 1660 C135 1567 145 1504 172 1461 C200 1416 247 1393 319 1393 C451 1393 506 1481 506 1661 L506 1661 Z M503 1294 C499 1331 487 1344 451 1344 L188 1344 C152 1344 139 1331 135 1294 L7 46 C6 42 6 37 6 30 C6 7 16 0 49 0 L180 0 C201 0 227 10 244 26 C265 44 275 66 276 91 L280 199 L358 199 L363 91 C364 66 375 45 396 26 C415 9 437 0 460 0 L591 0 C623 0 634 7 634 30 C634 37 634 42 633 46 L503 1294 Z M349 407 L289 407 L319 1103 L349 407 Z " />
<glyph glyph-name="abreve" unicode="&#x103;" horiz-adv-x="606" d="M488 1461 C488 1474 480 1484 467 1484 L378 1484 C362 1484 341 1481 334 1477 C319 1473 317 1444 317 1396 L314 1344 C312 1329 308 1321 301 1321 C296 1321 293 1325 291 1332 C287 1347 285 1369 285 1396 L282 1433 C279 1460 273 1475 265 1478 C254 1482 240 1484 227 1484 L137 1484 C124 1484 117 1476 117 1460 C117 1367 127 1304 154 1261 C182 1216 229 1193 301 1193 C433 1193 488 1281 488 1461 L488 1461 Z M486 1083 C482 1120 470 1133 431 1133 L173 1133 C137 1133 122 1119 118 1083 L5 46 L4 32 C4 8 14 0 47 0 L179 0 C202 0 223 9 242 26 C261 44 271 66 272 91 L274 162 L329 162 L332 91 C333 66 343 45 363 26 C382 9 402 0 425 0 L557 0 C590 0 600 6 600 29 C600 36 600 41 599 46 L486 1083 Z M303 903 L323 349 L281 349 L300 903 L303 903 Z " />
<glyph glyph-name="Aogonek" unicode="&#x104;" horiz-adv-x="643" d="M592 -225 C503 -225 463 -190 463 -125 L463 -115 C463 -38 491 0 567 0 L591 0 C623 0 634 7 634 30 C634 37 634 42 633 46 L503 1294 C499 1331 487 1344 451 1344 L188 1344 C152 1344 139 1331 135 1294 L7 46 C6 42 6 37 6 30 C6 7 16 0 49 0 L180 0 C201 0 227 10 244 26 C265 44 275 66 276 91 L280 199 L358 199 L363 91 C364 74 369 59 379 45 C358 38 340 29 323 16 C276 -19 252 -67 252 -129 L252 -138 C252 -235 276 -307 323 -352 C364 -392 425 -412 506 -412 C542 -412 571 -404 594 -387 C618 -370 631 -343 634 -305 L636 -266 C639 -235 623 -225 592 -225 L592 -225 Z M289 407 L319 1103 L349 407 L289 407 Z " />
<glyph glyph-name="aogonek" unicode="&#x105;" horiz-adv-x="606" d="M556 -225 C467 -225 427 -190 427 -125 L427 -115 C427 -38 455 0 531 0 L557 0 C590 0 600 6 600 29 C600 36 600 41 599 46 L486 1083 C482 1120 470 1133 431 1133 L173 1133 C137 1133 122 1119 118 1083 L5 46 L4 32 C4 8 14 0 47 0 L179 0 C202 0 223 9 242 26 C261 44 271 66 272 91 L274 162 L329 162 L332 91 C333 74 337 60 346 47 C325 40 306 29 287 16 C240 -19 216 -67 216 -129 L216 -138 C216 -235 240 -307 287 -352 C328 -392 389 -412 470 -412 C506 -412 535 -404 558 -387 C582 -370 595 -343 598 -305 L600 -266 C603 -235 587 -225 556 -225 L556 -225 Z M281 349 L300 903 L303 903 L323 349 L281 349 Z " />
<glyph glyph-name="Cacute" unicode="&#x106;" horiz-adv-x="731" d="M315 1443 C312 1412 322 1396 351 1396 L384 1396 C410 1396 430 1404 445 1420 C457 1432 470 1455 483 1489 L521 1579 C528 1597 532 1612 532 1624 C532 1660 503 1678 446 1678 L392 1678 C360 1678 333 1660 329 1632 L315 1443 Z M381 1370 C288 1370 206 1341 149 1293 C93 1245 61 1180 61 1109 L61 235 C61 164 91 99 146 52 C202 3 279 -26 370 -26 C463 -26 545 3 604 52 C660 99 692 164 692 235 L692 539 C692 568 678 584 645 584 L507 584 C486 584 467 578 452 567 C435 555 426 540 426 522 L426 247 C426 227 404 203 376 203 C351 203 327 226 327 247 L327 1097 C327 1117 352 1141 376 1141 C403 1141 427 1118 427 1097 L427 821 C427 803 436 788 453 776 C468 765 487 759 508 759 L646 759 C679 759 692 773 692 805 L692 1109 C692 1178 662 1243 607 1291 C550 1339 472 1369 381 1370 L381 1370 Z " />
<glyph glyph-name="cacute" unicode="&#x107;" horiz-adv-x="731" d="M296 1243 C293 1212 303 1196 332 1196 L365 1196 C391 1196 411 1204 426 1220 C438 1232 451 1255 464 1289 L502 1379 C509 1397 513 1412 513 1424 C513 1460 484 1478 427 1478 L373 1478 C341 1478 314 1460 310 1432 L296 1243 Z M370 1158 C277 1158 195 1129 138 1081 C82 1033 50 968 50 897 L50 235 C50 164 80 99 135 52 C191 3 268 -26 359 -26 C452 -26 534 3 593 52 C649 99 681 164 681 235 L681 463 C681 492 667 508 634 508 L496 508 C475 508 456 502 441 491 C424 479 415 464 415 446 L415 247 C415 227 393 203 365 203 C340 203 316 226 316 247 L316 885 C316 905 341 929 365 929 C392 929 416 906 416 885 L416 677 C416 659 425 644 442 632 C457 621 476 615 497 615 L635 615 C668 615 681 630 681 661 L681 897 C681 966 651 1031 596 1079 C540 1127 462 1155 370 1158 L370 1158 Z " />
<glyph glyph-name="Ccircumflex" unicode="&#x108;" horiz-adv-x="731" d="M473 1659 C470 1671 459 1680 447 1680 L282 1680 C270 1680 259 1671 256 1659 L177 1413 L176 1409 C176 1398 186 1391 199 1391 L298 1391 C331 1391 353 1412 356 1443 L365 1595 L373 1443 C376 1412 398 1391 431 1391 L532 1391 C547 1391 556 1401 553 1413 L473 1659 Z M381 1370 C288 1370 206 1341 149 1293 C93 1245 61 1180 61 1109 L61 235 C61 164 91 99 146 52 C202 3 279 -26 370 -26 C463 -26 545 3 604 52 C660 99 692 164 692 235 L692 539 C692 568 678 584 645 584 L507 584 C486 584 467 578 452 567 C435 555 426 540 426 522 L426 247 C426 227 404 203 376 203 C351 203 327 226 327 247 L327 1097 C327 1117 352 1141 376 1141 C403 1141 427 1118 427 1097 L427 821 C427 803 436 788 453 776 C468 765 487 759 508 759 L646 759 C679 759 692 773 692 805 L692 1109 C692 1178 662 1243 607 1291 C550 1339 472 1369 381 1370 L381 1370 Z " />
<glyph glyph-name="ccircumflex" unicode="&#x109;" horiz-adv-x="731" d="M473 1459 C470 1471 459 1480 447 1480 L282 1480 C270 1480 259 1471 256 1459 L177 1213 L176 1209 C176 1198 186 1191 199 1191 L298 1191 C331 1191 353 1212 356 1243 L365 1395 L373 1243 C376 1212 398 1191 431 1191 L532 1191 C547 1191 556 1201 553 1213 L473 1459 Z M370 1158 C277 1158 195 1129 138 1081 C82 1033 50 968 50 897 L50 235 C50 164 80 99 135 52 C191 3 268 -26 359 -26 C452 -26 534 3 593 52 C649 99 681 164 681 235 L681 463 C681 492 667 508 634 508 L496 508 C475 508 456 502 441 491 C424 479 415 464 415 446 L415 247 C415 227 393 203 365 203 C340 203 316 226 316 247 L316 885 C316 905 341 929 365 929 C392 929 416 906 416 885 L416 677 C416 659 425 644 442 632 C457 621 476 615 497 615 L635 615 C668 615 681 630 681 661 L681 897 C681 966 651 1031 596 1079 C540 1127 462 1155 370 1158 L370 1158 Z " />
<glyph glyph-name="Cdotaccent" unicode="&#x10a;" horiz-adv-x="731" d="M364 1629 C267 1629 222 1586 222 1511 C222 1436 268 1392 364 1392 C464 1392 510 1436 510 1511 C510 1586 464 1629 364 1629 L364 1629 Z M381 1370 C288 1370 206 1341 149 1293 C93 1245 61 1180 61 1109 L61 235 C61 164 91 99 146 52 C202 3 279 -26 370 -26 C463 -26 545 3 604 52 C660 99 692 164 692 235 L692 539 C692 568 678 584 645 584 L507 584 C486 584 467 578 452 567 C435 555 426 540 426 522 L426 247 C426 227 404 203 376 203 C351 203 327 226 327 247 L327 1097 C327 1117 352 1141 376 1141 C403 1141 427 1118 427 1097 L427 821 C427 803 436 788 453 776 C468 765 487 759 508 759 L646 759 C679 759 692 773 692 805 L692 1109 C692 1178 662 1243 607 1291 C550 1339 472 1369 381 1370 L381 1370 Z " />
<glyph glyph-name="cdotaccent" unicode="&#x10b;" horiz-adv-x="731" d="M364 1429 C267 1429 222 1386 222 1311 C222 1236 268 1192 364 1192 C464 1192 510 1236 510 1311 C510 1386 464 1429 364 1429 L364 1429 Z M370 1158 C277 1158 195 1129 138 1081 C82 1033 50 968 50 897 L50 235 C50 164 80 99 135 52 C191 3 268 -26 359 -26 C452 -26 534 3 593 52 C649 99 681 164 681 235 L681 463 C681 492 667 508 634 508 L496 508 C475 508 456 502 441 491 C424 479 415 464 415 446 L415 247 C415 227 393 203 365 203 C340 203 316 226 316 247 L316 885 C316 905 341 929 365 929 C392 929 416 906 416 885 L416 677 C416 659 425 644 442 632 C457 621 476 615 497 615 L635 615 C668 615 681 630 681 661 L681 897 C681 966 651 1031 596 1079 C540 1127 462 1155 370 1158 L370 1158 Z " />
<glyph glyph-name="Ccaron" unicode="&#x10c;" horiz-adv-x="731" d="M554 1663 C554 1674 545 1680 532 1680 L431 1680 C396 1680 376 1660 373 1628 L365 1477 L356 1628 C353 1660 333 1680 298 1680 L199 1680 C184 1680 174 1671 177 1659 L256 1413 C259 1401 270 1391 282 1391 L447 1391 C459 1391 470 1401 473 1413 L553 1659 L554 1663 Z M381 1370 C288 1370 206 1341 149 1293 C93 1245 61 1180 61 1109 L61 235 C61 164 91 99 146 52 C202 3 279 -26 370 -26 C463 -26 545 3 604 52 C660 99 692 164 692 235 L692 539 C692 568 678 584 645 584 L507 584 C486 584 467 578 452 567 C435 555 426 540 426 522 L426 247 C426 227 404 203 376 203 C351 203 327 226 327 247 L327 1097 C327 1117 352 1141 376 1141 C403 1141 427 1118 427 1097 L427 821 C427 803 436 788 453 776 C468 765 487 759 508 759 L646 759 C679 759 692 773 692 805 L692 1109 C692 1178 662 1243 607 1291 C550 1339 472 1369 381 1370 L381 1370 Z " />
<glyph glyph-name="ccaron" unicode="&#x10d;" horiz-adv-x="731" d="M554 1463 C554 1474 545 1480 532 1480 L431 1480 C396 1480 376 1460 373 1428 L365 1277 L356 1428 C353 1460 333 1480 298 1480 L199 1480 C184 1480 174 1471 177 1459 L256 1213 C259 1201 270 1191 282 1191 L447 1191 C459 1191 470 1201 473 1213 L553 1459 L554 1463 Z M370 1158 C277 1158 195 1129 138 1081 C82 1033 50 968 50 897 L50 235 C50 164 80 99 135 52 C191 3 268 -26 359 -26 C452 -26 534 3 593 52 C649 99 681 164 681 235 L681 463 C681 492 667 508 634 508 L496 508 C475 508 456 502 441 491 C424 479 415 464 415 446 L415 247 C415 227 393 203 365 203 C340 203 316 226 316 247 L316 885 C316 905 341 929 365 929 C392 929 416 906 416 885 L416 677 C416 659 425 644 442 632 C457 621 476 615 497 615 L635 615 C668 615 681 630 681 661 L681 897 C681 966 651 1031 596 1079 C540 1127 462 1155 370 1158 L370 1158 Z " />
<glyph glyph-name="Dcaron" unicode="&#x10e;" horiz-adv-x="731" d="M540 1663 C540 1674 531 1680 518 1680 L417 1680 C382 1680 362 1660 359 1628 L351 1477 L342 1628 C339 1660 319 1680 284 1680 L185 1680 C170 1680 160 1671 163 1659 L242 1413 C245 1401 256 1391 268 1391 L433 1391 C445 1391 456 1401 459 1413 L539 1659 L540 1663 Z M359 0 C454 0 536 29 593 78 C649 126 681 191 681 262 L681 1082 C681 1154 650 1220 594 1268 C538 1316 459 1344 370 1344 L98 1344 C59 1344 50 1333 50 1294 L50 50 C50 11 59 0 98 0 L359 0 Z M316 1124 L365 1124 C392 1124 415 1101 415 1080 L415 264 C415 244 391 220 368 220 L316 220 L316 1124 Z " />
<glyph glyph-name="dcaron" unicode="&#x10f;" horiz-adv-x="813" d="M647 1073 C647 1042 651 1037 680 1037 L743 1037 C770 1037 790 1042 801 1053 C813 1064 822 1085 829 1117 L855 1251 C859 1267 861 1282 861 1295 C861 1308 859 1318 854 1325 C843 1342 819 1350 781 1350 L690 1350 C661 1350 647 1334 647 1303 L647 1073 Z M357 0 C450 0 533 29 590 78 C646 126 679 191 679 262 L679 871 C679 943 649 1009 593 1057 C536 1105 457 1133 368 1133 L96 1133 C57 1133 48 1122 48 1083 L48 50 C48 11 57 0 96 0 L357 0 Z M314 913 L363 913 C390 913 413 890 413 869 L413 264 C413 244 389 220 366 220 L314 220 L314 913 Z " />
<glyph glyph-name="Dcroat" unicode="&#x110;" horiz-adv-x="731" d="M359 0 C454 0 536 29 593 78 C649 126 681 191 681 262 L681 1082 C681 1154 650 1220 594 1268 C538 1316 459 1344 370 1344 L98 1344 C59 1344 50 1333 50 1294 L50 754 L4 754 C-19 754 -34 741 -34 718 L-34 655 C-34 595 -1 554 50 549 L50 50 C50 11 59 0 98 0 L359 0 Z M316 549 L350 549 C367 549 386 574 386 591 L386 718 C386 741 369 754 348 754 L316 754 L316 1124 L365 1124 C392 1124 415 1101 415 1080 L415 264 C415 244 391 220 368 220 L316 220 L316 549 Z " />
<glyph glyph-name="dslash" unicode="&#x111;" horiz-adv-x="726" d="M357 0 C450 0 533 29 590 78 C646 126 679 191 679 262 L679 871 C679 943 649 1009 593 1057 C536 1105 457 1133 368 1133 L96 1133 C57 1133 48 1122 48 1083 L48 659 L4 659 C-19 659 -34 646 -34 623 L-34 559 C-34 500 -1 461 48 454 L48 50 C48 11 57 0 96 0 L357 0 Z M314 454 L350 454 C369 454 386 477 386 496 L386 623 C386 646 369 659 348 659 L314 659 L314 913 L363 913 C390 913 413 890 413 869 L413 264 C413 244 389 220 366 220 L314 220 L314 454 Z " />
<glyph glyph-name="Emacron" unicode="&#x112;" horiz-adv-x="576" d="M138 1559 C115 1559 101 1546 101 1523 L101 1493 C101 1429 137 1387 193 1387 L384 1387 C440 1387 476 1429 476 1493 L476 1523 C476 1546 460 1559 439 1559 L138 1559 Z M98 1344 C59 1344 50 1333 50 1294 L50 48 C50 12 60 0 96 0 L488 0 C520 0 540 17 540 48 L540 88 C540 172 499 220 427 220 L316 220 L316 556 L386 556 C457 556 498 607 498 688 L498 728 C498 759 478 776 446 776 L316 776 L316 1124 L427 1124 C499 1124 540 1175 540 1256 L540 1296 C540 1327 520 1344 488 1344 L98 1344 Z " />
<glyph glyph-name="emacron" unicode="&#x113;" horiz-adv-x="555" d="M125 1359 C102 1359 88 1346 88 1323 L88 1293 C88 1229 124 1187 180 1187 L371 1187 C427 1187 463 1229 463 1293 L463 1323 C463 1346 447 1359 426 1359 L125 1359 Z M486 0 C518 0 538 17 538 48 L538 88 C538 172 498 220 425 220 L314 220 L314 447 L387 447 C459 447 497 494 497 578 L497 618 C497 649 476 667 444 667 L314 667 L314 913 L425 913 C497 913 538 961 538 1045 L538 1085 C538 1116 518 1133 486 1133 L139 1133 L113 1133 C88 1133 74 1132 66 1128 C54 1123 48 1108 48 1083 L48 43 C49 11 59 0 95 0 L486 0 Z " />
<glyph glyph-name="Ebreve" unicode="&#x114;" horiz-adv-x="576" d="M472 1661 C472 1674 464 1684 451 1684 L362 1684 C346 1684 325 1681 318 1677 C303 1673 301 1644 301 1596 L298 1544 C296 1529 292 1521 285 1521 C280 1521 277 1525 275 1532 C271 1547 269 1569 269 1596 L266 1633 C263 1660 257 1675 249 1678 C238 1682 224 1684 211 1684 L121 1684 C108 1684 101 1676 101 1660 C101 1567 111 1504 138 1461 C166 1416 213 1393 285 1393 C417 1393 472 1481 472 1661 L472 1661 Z M98 1344 C59 1344 50 1333 50 1294 L50 48 C50 12 60 0 96 0 L488 0 C520 0 540 17 540 48 L540 88 C540 172 499 220 427 220 L316 220 L316 556 L386 556 C457 556 498 607 498 688 L498 728 C498 759 478 776 446 776 L316 776 L316 1124 L427 1124 C499 1124 540 1175 540 1256 L540 1296 C540 1327 520 1344 488 1344 L98 1344 Z " />
<glyph glyph-name="ebreve" unicode="&#x115;" horiz-adv-x="555" d="M461 1461 C461 1474 453 1484 440 1484 L351 1484 C335 1484 314 1481 307 1477 C292 1473 290 1444 290 1396 L287 1344 C285 1329 281 1321 274 1321 C269 1321 266 1325 264 1332 C260 1347 258 1369 258 1396 L255 1433 C252 1460 246 1475 238 1478 C227 1482 213 1484 200 1484 L110 1484 C97 1484 90 1476 90 1460 C90 1367 100 1304 127 1261 C155 1216 202 1193 274 1193 C406 1193 461 1281 461 1461 L461 1461 Z M486 0 C518 0 538 17 538 48 L538 88 C538 172 498 220 425 220 L314 220 L314 447 L387 447 C459 447 497 494 497 578 L497 618 C497 649 476 667 444 667 L314 667 L314 913 L425 913 C497 913 538 961 538 1045 L538 1085 C538 1116 518 1133 486 1133 L139 1133 L113 1133 C88 1133 74 1132 66 1128 C54 1123 48 1108 48 1083 L48 43 C49 11 59 0 95 0 L486 0 Z " />
<glyph glyph-name="Edotaccent" unicode="&#x116;" horiz-adv-x="576" d="M286 1629 C189 1629 144 1586 144 1511 C144 1436 190 1392 286 1392 C386 1392 432 1436 432 1511 C432 1586 386 1629 286 1629 L286 1629 Z M98 1344 C59 1344 50 1333 50 1294 L50 48 C50 12 60 0 96 0 L488 0 C520 0 540 17 540 48 L540 88 C540 172 499 220 427 220 L316 220 L316 556 L386 556 C457 556 498 607 498 688 L498 728 C498 759 478 776 446 776 L316 776 L316 1124 L427 1124 C499 1124 540 1175 540 1256 L540 1296 C540 1327 520 1344 488 1344 L98 1344 Z " />
<glyph glyph-name="edotaccent" unicode="&#x117;" horiz-adv-x="555" d="M276 1429 C179 1429 134 1386 134 1311 C134 1236 180 1192 276 1192 C376 1192 422 1236 422 1311 C422 1386 376 1429 276 1429 L276 1429 Z M486 0 C518 0 538 17 538 48 L538 88 C538 172 498 220 425 220 L314 220 L314 447 L387 447 C459 447 497 494 497 578 L497 618 C497 649 476 667 444 667 L314 667 L314 913 L425 913 C497 913 538 961 538 1045 L538 1085 C538 1116 518 1133 486 1133 L139 1133 L113 1133 C88 1133 74 1132 66 1128 C54 1123 48 1108 48 1083 L48 43 C49 11 59 0 95 0 L486 0 Z " />
<glyph glyph-name="Eogonek" unicode="&#x118;" horiz-adv-x="576" d="M427 1124 C499 1124 540 1175 540 1256 L540 1296 C540 1327 520 1344 488 1344 L98 1344 C59 1344 50 1333 50 1294 L50 48 C50 12 60 0 96 0 L206 0 C171 -33 154 -76 154 -129 L154 -138 C154 -235 178 -307 225 -352 C266 -392 327 -412 408 -412 C444 -412 473 -404 496 -387 C520 -370 533 -343 536 -305 L538 -266 C541 -235 525 -225 494 -225 C405 -225 365 -190 365 -125 L365 -115 C365 -38 393 0 469 0 L488 0 C520 0 540 17 540 48 L540 88 C540 172 499 220 427 220 L316 220 L316 556 L386 556 C457 556 498 607 498 688 L498 728 C498 759 478 776 446 776 L316 776 L316 1124 L427 1124 Z " />
<glyph glyph-name="eogonek" unicode="&#x119;" horiz-adv-x="555" d="M425 913 C497 913 538 961 538 1045 L538 1085 C538 1116 518 1133 486 1133 L139 1133 C129 1133 82 1136 66 1128 C54 1123 48 1108 48 1083 L48 43 C49 11 59 0 95 0 L203 0 C168 -33 151 -76 151 -129 L151 -138 C151 -235 175 -307 222 -352 C263 -392 324 -412 405 -412 C441 -412 470 -404 493 -387 C517 -370 530 -343 533 -305 L535 -266 C538 -235 522 -225 491 -225 C402 -225 362 -190 362 -125 L362 -115 C362 -38 390 0 466 0 L486 0 C518 0 538 17 538 48 L538 88 C538 172 498 220 425 220 L314 220 L314 447 L387 447 C459 447 497 494 497 578 L497 618 C497 649 476 667 444 667 L314 667 L314 913 L425 913 Z " />
<glyph glyph-name="Ecaron" unicode="&#x11a;" horiz-adv-x="576" d="M476 1663 C476 1674 467 1680 454 1680 L353 1680 C318 1680 298 1660 295 1628 L287 1477 L278 1628 C275 1660 255 1680 220 1680 L121 1680 C106 1680 96 1671 99 1659 L178 1413 C181 1401 192 1391 204 1391 L369 1391 C381 1391 392 1401 395 1413 L475 1659 L476 1663 Z M98 1344 C59 1344 50 1333 50 1294 L50 48 C50 12 60 0 96 0 L488 0 C520 0 540 17 540 48 L540 88 C540 172 499 220 427 220 L316 220 L316 556 L386 556 C457 556 498 607 498 688 L498 728 C498 759 478 776 446 776 L316 776 L316 1124 L427 1124 C499 1124 540 1175 540 1256 L540 1296 C540 1327 520 1344 488 1344 L98 1344 Z " />
<glyph glyph-name="ecaron" unicode="&#x11b;" horiz-adv-x="555" d="M465 1463 C465 1474 456 1480 443 1480 L342 1480 C307 1480 287 1460 284 1428 L276 1277 L267 1428 C264 1460 244 1480 209 1480 L110 1480 C95 1480 85 1471 88 1459 L167 1213 C170 1201 181 1191 193 1191 L358 1191 C370 1191 381 1201 384 1213 L464 1459 L465 1463 Z M486 0 C518 0 538 17 538 48 L538 88 C538 172 498 220 425 220 L314 220 L314 447 L387 447 C459 447 497 494 497 578 L497 618 C497 649 476 667 444 667 L314 667 L314 913 L425 913 C497 913 538 961 538 1045 L538 1085 C538 1116 518 1133 486 1133 L139 1133 L113 1133 C88 1133 74 1132 66 1128 C54 1123 48 1108 48 1083 L48 43 C49 11 59 0 95 0 L486 0 Z " />
<glyph glyph-name="Gcircumflex" unicode="&#x11c;" horiz-adv-x="724" d="M469 1659 C466 1671 455 1680 443 1680 L278 1680 C266 1680 255 1671 252 1659 L173 1413 L172 1409 C172 1398 182 1391 195 1391 L294 1391 C327 1391 349 1412 352 1443 L361 1595 L369 1443 C372 1412 394 1391 427 1391 L528 1391 C543 1391 552 1401 549 1413 L469 1659 Z M368 1370 C275 1370 193 1341 136 1293 C80 1245 48 1180 48 1109 L48 235 C48 164 78 99 133 52 C189 3 266 -26 357 -26 C450 -26 532 3 591 52 C647 99 679 164 679 235 L679 582 C679 613 665 627 632 627 L488 627 L393 627 C364 627 343 610 343 579 L343 517 C343 433 358 392 413 387 L413 247 C413 227 391 203 363 203 C338 203 314 226 314 247 L314 1097 C314 1117 339 1141 363 1141 C390 1141 414 1118 414 1097 L414 821 C414 803 423 788 440 776 C455 765 474 759 495 759 L634 759 C666 759 679 773 679 805 L679 1109 C679 1178 649 1243 594 1291 C537 1339 459 1369 368 1370 L368 1370 Z " />
<glyph glyph-name="gcircumflex" unicode="&#x11d;" horiz-adv-x="731" d="M473 1459 C470 1471 459 1480 447 1480 L282 1480 C270 1480 259 1471 256 1459 L177 1213 L176 1209 C176 1198 186 1191 199 1191 L298 1191 C331 1191 353 1212 356 1243 L365 1395 L373 1243 C376 1212 398 1191 431 1191 L532 1191 C547 1191 556 1201 553 1213 L473 1459 Z M368 1160 C275 1160 193 1131 136 1083 C80 1035 48 970 48 899 L48 235 C48 164 78 99 133 52 C189 3 266 -26 357 -26 C450 -26 532 3 591 52 C647 99 679 164 679 235 L679 557 C679 588 665 602 632 602 L488 602 L393 602 C364 602 343 585 343 553 L343 492 C343 408 358 367 413 362 L413 247 C413 227 391 203 363 203 C338 203 314 226 314 247 L314 887 C314 907 339 931 363 931 C390 931 414 908 414 887 L414 753 C414 736 423 721 440 709 C455 698 474 692 495 692 L634 692 C666 692 679 706 679 738 L679 899 C679 968 649 1033 594 1081 C537 1129 459 1159 368 1160 L368 1160 Z " />
<glyph glyph-name="Gbreve" unicode="&#x11e;" horiz-adv-x="724" d="M547 1661 C547 1674 539 1684 526 1684 L437 1684 C421 1684 400 1681 393 1677 C378 1673 376 1644 376 1596 L373 1544 C371 1529 367 1521 360 1521 C355 1521 352 1525 350 1532 C346 1547 344 1569 344 1596 L341 1633 C338 1660 332 1675 324 1678 C313 1682 299 1684 286 1684 L196 1684 C183 1684 176 1676 176 1660 C176 1567 186 1504 213 1461 C241 1416 288 1393 360 1393 C492 1393 547 1481 547 1661 L547 1661 Z M368 1370 C275 1370 193 1341 136 1293 C80 1245 48 1180 48 1109 L48 235 C48 164 78 99 133 52 C189 3 266 -26 357 -26 C450 -26 532 3 591 52 C647 99 679 164 679 235 L679 582 C679 613 665 627 632 627 L488 627 L393 627 C364 627 343 610 343 579 L343 517 C343 433 358 392 413 387 L413 247 C413 227 391 203 363 203 C338 203 314 226 314 247 L314 1097 C314 1117 339 1141 363 1141 C390 1141 414 1118 414 1097 L414 821 C414 803 423 788 440 776 C455 765 474 759 495 759 L634 759 C666 759 679 773 679 805 L679 1109 C679 1178 649 1243 594 1291 C537 1339 459 1369 368 1370 L368 1370 Z " />
<glyph glyph-name="gbreve" unicode="&#x11f;" horiz-adv-x="731" d="M551 1461 C551 1474 543 1484 530 1484 L441 1484 C425 1484 404 1481 397 1477 C382 1473 380 1444 380 1396 L377 1344 C375 1329 371 1321 364 1321 C359 1321 356 1325 354 1332 C350 1347 348 1369 348 1396 L345 1433 C342 1460 336 1475 328 1478 C317 1482 303 1484 290 1484 L200 1484 C187 1484 180 1476 180 1460 C180 1367 190 1304 217 1261 C245 1216 292 1193 364 1193 C496 1193 551 1281 551 1461 L551 1461 Z M368 1160 C275 1160 193 1131 136 1083 C80 1035 48 970 48 899 L48 235 C48 164 78 99 133 52 C189 3 266 -26 357 -26 C450 -26 532 3 591 52 C647 99 679 164 679 235 L679 557 C679 588 665 602 632 602 L488 602 L393 602 C364 602 343 585 343 553 L343 492 C343 408 358 367 413 362 L413 247 C413 227 391 203 363 203 C338 203 314 226 314 247 L314 887 C314 907 339 931 363 931 C390 931 414 908 414 887 L414 753 C414 736 423 721 440 709 C455 698 474 692 495 692 L634 692 C666 692 679 706 679 738 L679 899 C679 968 649 1033 594 1081 C537 1129 459 1159 368 1160 L368 1160 Z " />
<glyph glyph-name="Gdotaccent" unicode="&#x120;" horiz-adv-x="724" d="M360 1629 C263 1629 218 1586 218 1511 C218 1436 264 1392 360 1392 C460 1392 506 1436 506 1511 C506 1586 460 1629 360 1629 L360 1629 Z M368 1370 C275 1370 193 1341 136 1293 C80 1245 48 1180 48 1109 L48 235 C48 164 78 99 133 52 C189 3 266 -26 357 -26 C450 -26 532 3 591 52 C647 99 679 164 679 235 L679 582 C679 613 665 627 632 627 L488 627 L393 627 C364 627 343 610 343 579 L343 517 C343 433 358 392 413 387 L413 247 C413 227 391 203 363 203 C338 203 314 226 314 247 L314 1097 C314 1117 339 1141 363 1141 C390 1141 414 1118 414 1097 L414 821 C414 803 423 788 440 776 C455 765 474 759 495 759 L634 759 C666 759 679 773 679 805 L679 1109 C679 1178 649 1243 594 1291 C537 1339 459 1369 368 1370 L368 1370 Z " />
<glyph glyph-name="gdotaccent" unicode="&#x121;" horiz-adv-x="731" d="M364 1429 C267 1429 222 1386 222 1311 C222 1236 268 1192 364 1192 C464 1192 510 1236 510 1311 C510 1386 464 1429 364 1429 L364 1429 Z M368 1160 C275 1160 193 1131 136 1083 C80 1035 48 970 48 899 L48 235 C48 164 78 99 133 52 C189 3 266 -26 357 -26 C450 -26 532 3 591 52 C647 99 679 164 679 235 L679 557 C679 588 665 602 632 602 L488 602 L393 602 C364 602 343 585 343 553 L343 492 C343 408 358 367 413 362 L413 247 C413 227 391 203 363 203 C338 203 314 226 314 247 L314 887 C314 907 339 931 363 931 C390 931 414 908 414 887 L414 753 C414 736 423 721 440 709 C455 698 474 692 495 692 L634 692 C666 692 679 706 679 738 L679 899 C679 968 649 1033 594 1081 C537 1129 459 1159 368 1160 L368 1160 Z " />
<glyph glyph-name="Gcommaaccent" unicode="&#x122;" horiz-adv-x="724" d="M359 1414 C359 1402 369 1396 378 1396 C406 1396 430 1412 450 1443 C471 1477 481 1522 481 1577 C481 1611 471 1638 452 1658 C429 1681 399 1692 361 1692 C285 1692 242 1658 242 1594 C242 1534 286 1498 359 1497 L359 1414 Z M368 1370 C275 1370 193 1341 136 1293 C80 1245 48 1180 48 1109 L48 235 C48 164 78 99 133 52 C189 3 266 -26 357 -26 C450 -26 532 3 591 52 C647 99 679 164 679 235 L679 582 C679 613 665 627 632 627 L488 627 L393 627 C364 627 343 610 343 579 L343 517 C343 433 358 392 413 387 L413 247 C413 227 391 203 363 203 C338 203 314 226 314 247 L314 1097 C314 1117 339 1141 363 1141 C390 1141 414 1118 414 1097 L414 821 C414 803 423 788 440 776 C455 765 474 759 495 759 L634 759 C666 759 679 773 679 805 L679 1109 C679 1178 649 1243 594 1291 C537 1339 459 1369 368 1370 L368 1370 Z " />
<glyph glyph-name="gcommaaccent" unicode="&#x123;" horiz-adv-x="731" d="M342 1244 C342 1232 352 1226 361 1226 C389 1226 413 1242 433 1273 C454 1307 464 1352 464 1407 C464 1441 454 1468 435 1488 C412 1511 382 1522 344 1522 C268 1522 225 1488 225 1424 C225 1364 269 1328 342 1327 L342 1244 Z M368 1160 C275 1160 193 1131 136 1083 C80 1035 48 970 48 899 L48 235 C48 164 78 99 133 52 C189 3 266 -26 357 -26 C450 -26 532 3 591 52 C647 99 679 164 679 235 L679 557 C679 588 665 602 632 602 L488 602 L393 602 C364 602 343 585 343 553 L343 492 C343 408 358 367 413 362 L413 247 C413 227 391 203 363 203 C338 203 314 226 314 247 L314 887 C314 907 339 931 363 931 C390 931 414 908 414 887 L414 753 C414 736 423 721 440 709 C455 698 474 692 495 692 L634 692 C666 692 679 706 679 738 L679 899 C679 968 649 1033 594 1081 C537 1129 459 1159 368 1160 L368 1160 Z " />
<glyph glyph-name="Hcircumflex" unicode="&#x124;" horiz-adv-x="716" d="M466 1659 C463 1671 452 1680 440 1680 L275 1680 C263 1680 252 1671 249 1659 L170 1413 L169 1409 C169 1398 179 1391 192 1391 L291 1391 C324 1391 346 1412 349 1443 L358 1595 L366 1443 C369 1412 391 1391 424 1391 L525 1391 C540 1391 549 1401 546 1413 L466 1659 Z M668 1297 C668 1333 660 1344 621 1344 L488 1344 C467 1344 445 1334 429 1318 C413 1302 402 1277 402 1253 L402 794 L314 794 L314 1253 C314 1277 303 1302 287 1318 C268 1335 248 1344 227 1344 L94 1344 C55 1344 48 1334 48 1297 L48 51 C48 12 62 0 99 0 L222 0 C275 0 314 40 314 92 L314 579 L402 579 L402 92 C402 40 441 0 492 0 L617 0 C654 0 668 12 668 51 L668 1297 Z " />
<glyph glyph-name="hcircumflex" unicode="&#x125;" horiz-adv-x="716" d="M466 1459 C463 1471 452 1480 440 1480 L275 1480 C263 1480 252 1471 249 1459 L170 1213 L169 1209 C169 1198 179 1191 192 1191 L291 1191 C324 1191 346 1212 349 1243 L358 1395 L366 1243 C369 1212 391 1191 424 1191 L525 1191 C540 1191 549 1201 546 1213 L466 1459 Z M668 1083 C668 1120 658 1133 619 1133 L490 1133 C467 1133 446 1124 429 1107 C413 1091 402 1068 402 1044 L402 673 L314 673 L314 1043 C314 1068 305 1089 287 1107 C270 1123 247 1133 226 1133 L96 1133 C57 1133 48 1122 48 1083 L48 50 C48 11 57 0 96 0 L226 0 C247 0 270 10 287 26 C303 42 314 65 314 89 L314 458 L402 458 L402 88 C402 64 413 41 430 25 C447 8 467 -1 490 -1 L620 -1 C659 -1 668 10 668 49 L668 1083 Z " />
<glyph glyph-name="Hbar" unicode="&#x126;" horiz-adv-x="716" d="M668 1297 C668 1333 660 1344 621 1344 L488 1344 C467 1344 445 1334 429 1318 C413 1302 402 1277 402 1253 L402 1089 L314 1089 L314 1253 C314 1277 303 1302 287 1318 C268 1335 248 1344 227 1344 L94 1344 C55 1344 48 1334 48 1297 L48 51 C48 12 62 0 99 0 L222 0 C275 0 314 40 314 92 L314 579 L402 579 L402 92 C402 40 441 0 492 0 L617 0 C654 0 668 12 668 51 L668 1297 Z M314 917 L402 917 L402 794 L314 794 L314 917 Z " />
<glyph glyph-name="hbar" unicode="&#x127;" horiz-adv-x="716" d="M668 1083 C668 1120 658 1133 619 1133 L490 1133 C467 1133 446 1124 429 1107 C413 1091 402 1068 402 1044 L402 960 L314 960 L314 1043 C314 1068 305 1089 287 1107 C270 1123 247 1133 226 1133 L96 1133 C57 1133 48 1122 48 1083 L48 50 C48 11 57 0 96 0 L226 0 C247 0 270 10 287 26 C303 42 314 65 314 89 L314 458 L402 458 L402 88 C402 64 413 41 430 25 C447 8 467 -1 490 -1 L620 -1 C659 -1 668 10 668 49 L668 1083 Z M314 788 L402 788 L402 673 L314 673 L314 788 Z " />
<glyph glyph-name="Itilde" unicode="&#x128;" horiz-adv-x="366" d="M272 1414 C296 1414 316 1405 319 1404 C322 1403 338 1393 361 1393 C377 1393 390 1406 390 1426 L390 1467 C390 1512 376 1545 347 1564 C326 1579 296 1586 258 1586 C229 1586 209 1581 180 1570 C152 1558 135 1553 111 1553 C96 1553 81 1556 65 1563 C61 1564 45 1572 22 1572 C6 1572 -7 1560 -7 1540 L-7 1497 C-7 1453 7 1421 36 1402 C59 1387 89 1379 127 1379 C152 1379 171 1385 202 1397 C215 1402 251 1414 272 1414 L272 1414 Z M316 1297 C316 1334 309 1344 269 1344 L137 1344 C114 1344 94 1335 77 1318 C61 1302 50 1277 50 1253 L50 50 C50 13 64 0 100 0 L266 0 C302 0 316 13 316 50 L316 1297 Z " />
<glyph glyph-name="itilde" unicode="&#x129;" horiz-adv-x="362" d="M270 1214 C294 1214 314 1205 317 1204 C320 1203 336 1193 359 1193 C375 1193 388 1206 388 1226 L388 1267 C388 1312 374 1345 345 1364 C324 1379 294 1386 256 1386 C227 1386 207 1381 178 1370 C150 1358 133 1353 109 1353 C94 1353 79 1356 63 1363 C59 1364 43 1372 20 1372 C4 1372 -9 1360 -9 1340 L-9 1297 C-9 1253 5 1221 34 1202 C57 1187 87 1179 125 1179 C150 1179 169 1185 200 1197 C213 1202 249 1214 270 1214 L270 1214 Z M314 1086 C314 1123 307 1133 266 1133 L135 1133 C112 1133 92 1124 75 1107 C59 1091 48 1066 48 1042 L48 50 C48 13 62 0 98 0 L264 0 C300 0 314 13 314 50 L314 1086 Z " />
<glyph glyph-name="Imacron" unicode="&#x12a;" horiz-adv-x="366" d="M33 1559 C10 1559 -4 1546 -4 1523 L-4 1493 C-4 1429 32 1387 88 1387 L279 1387 C335 1387 371 1429 371 1493 L371 1523 C371 1546 355 1559 334 1559 L33 1559 Z M316 1297 C316 1334 309 1344 269 1344 L137 1344 C114 1344 94 1335 77 1318 C61 1302 50 1277 50 1253 L50 50 C50 13 64 0 100 0 L266 0 C302 0 316 13 316 50 L316 1297 Z " />
<glyph glyph-name="imacron" unicode="&#x12b;" horiz-adv-x="362" d="M31 1359 C8 1359 -6 1346 -6 1323 L-6 1293 C-6 1229 30 1187 86 1187 L277 1187 C333 1187 369 1229 369 1293 L369 1323 C369 1346 353 1359 332 1359 L31 1359 Z M314 1086 C314 1123 307 1133 266 1133 L135 1133 C112 1133 92 1124 75 1107 C59 1091 48 1066 48 1042 L48 50 C48 13 62 0 98 0 L264 0 C300 0 314 13 314 50 L314 1086 Z " />
<glyph glyph-name="Ibreve" unicode="&#x12c;" horiz-adv-x="366" d="M369 1661 C369 1674 361 1684 348 1684 L259 1684 C243 1684 222 1681 215 1677 C200 1673 198 1644 198 1596 L195 1544 C193 1529 189 1521 182 1521 C177 1521 174 1525 172 1532 C168 1547 166 1569 166 1596 L163 1633 C160 1660 154 1675 146 1678 C135 1682 121 1684 108 1684 L18 1684 C5 1684 -2 1676 -2 1660 C-2 1567 8 1504 35 1461 C63 1416 110 1393 182 1393 C314 1393 369 1481 369 1661 L369 1661 Z M316 1297 C316 1334 309 1344 269 1344 L137 1344 C114 1344 94 1335 77 1318 C61 1302 50 1277 50 1253 L50 50 C50 13 64 0 100 0 L266 0 C302 0 316 13 316 50 L316 1297 Z " />
<glyph glyph-name="ibreve" unicode="&#x12d;" horiz-adv-x="362" d="M367 1461 C367 1474 359 1484 346 1484 L257 1484 C241 1484 220 1481 213 1477 C198 1473 196 1444 196 1396 L193 1344 C191 1329 187 1321 180 1321 C175 1321 172 1325 170 1332 C166 1347 164 1369 164 1396 L161 1433 C158 1460 152 1475 144 1478 C133 1482 119 1484 106 1484 L16 1484 C3 1484 -4 1476 -4 1460 C-4 1367 6 1304 33 1261 C61 1216 108 1193 180 1193 C312 1193 367 1281 367 1461 L367 1461 Z M314 1086 C314 1123 307 1133 266 1133 L135 1133 C112 1133 92 1124 75 1107 C59 1091 48 1066 48 1042 L48 50 C48 13 62 0 98 0 L264 0 C300 0 314 13 314 50 L314 1086 Z " />
<glyph glyph-name="Iogonek" unicode="&#x12e;" horiz-adv-x="366" d="M266 0 C302 0 316 13 316 50 L316 1297 C316 1334 309 1344 269 1344 L137 1344 C114 1344 94 1335 77 1318 C61 1302 50 1277 50 1253 L50 50 L50 43 C33 36 16 27 0 16 C-47 -19 -71 -67 -71 -129 L-71 -138 C-71 -235 -47 -307 0 -352 C41 -392 102 -412 183 -412 C219 -412 248 -404 271 -387 C295 -370 308 -343 311 -305 L313 -266 C316 -235 300 -225 269 -225 C180 -225 140 -190 140 -125 L140 -115 C140 -38 168 0 244 0 L266 0 Z " />
<glyph glyph-name="iogonek" unicode="&#x12f;" horiz-adv-x="362" d="M298 -225 C209 -225 169 -190 169 -125 L169 -115 C169 -38 197 0 273 0 C302 3 314 17 314 50 L314 1086 C314 1123 307 1133 266 1133 L135 1133 C112 1133 92 1124 75 1107 C59 1091 48 1066 48 1042 L48 50 C48 44 49 37 50 29 C41 24 34 19 29 16 C-18 -19 -42 -67 -42 -129 L-42 -138 C-42 -235 -18 -307 29 -352 C70 -392 131 -412 212 -412 C248 -412 277 -404 300 -387 C324 -370 337 -343 340 -305 L342 -266 C345 -235 329 -225 298 -225 L298 -225 Z " />
<glyph glyph-name="Idot" unicode="&#x130;" horiz-adv-x="366" d="M181 1629 C84 1629 39 1586 39 1511 C39 1436 85 1392 181 1392 C281 1392 327 1436 327 1511 C327 1586 281 1629 181 1629 L181 1629 Z M316 1297 C316 1334 309 1344 269 1344 L137 1344 C114 1344 94 1335 77 1318 C61 1302 50 1277 50 1253 L50 50 C50 13 64 0 100 0 L266 0 C302 0 316 13 316 50 L316 1297 Z " />
<glyph glyph-name="dotlessi" unicode="&#x131;" horiz-adv-x="362" d="M314 1086 C314 1123 307 1133 266 1133 L135 1133 C112 1133 92 1124 75 1107 C59 1091 48 1066 48 1042 L48 50 C48 13 62 0 98 0 L264 0 C300 0 314 13 314 50 L314 1086 Z " />
<glyph glyph-name="IJ" unicode="&#x132;" horiz-adv-x="1092" d="M316 1297 C316 1334 309 1344 269 1344 L137 1344 C114 1344 94 1335 77 1318 C61 1302 50 1277 50 1253 L50 50 C50 13 64 0 100 0 L266 0 C302 0 316 13 316 50 L316 1297 Z M1045 1294 C1045 1331 1035 1344 996 1344 L867 1344 C844 1344 823 1335 806 1318 C790 1302 779 1279 779 1255 L779 247 C779 222 749 203 720 203 C700 207 680 228 680 247 L680 570 C680 587 671 602 654 615 C637 626 619 632 598 632 L459 632 C429 632 414 617 414 586 L414 235 C414 163 447 98 504 50 C560 2 642 -26 734 -26 C825 -26 903 2 959 51 C1014 98 1045 163 1045 235 L1045 1294 Z " />
<glyph glyph-name="ij" unicode="&#x133;" horiz-adv-x="1088" d="M314 1086 C314 1123 307 1133 266 1133 L135 1133 C112 1133 92 1124 75 1107 C59 1091 48 1066 48 1042 L48 50 C48 13 62 0 98 0 L264 0 C300 0 314 13 314 50 L314 1086 Z M1041 1083 C1041 1120 1031 1133 992 1133 L863 1133 C840 1133 819 1124 802 1107 C786 1091 775 1068 775 1044 L775 247 C775 222 745 203 716 203 C696 207 676 228 676 247 L676 570 C676 587 667 602 650 615 C633 626 615 632 594 632 L455 632 C425 632 410 617 410 586 L410 235 C410 163 443 98 500 50 C556 2 638 -26 730 -26 C821 -26 899 2 955 51 C1010 98 1041 163 1041 235 L1041 1083 Z " />
<glyph glyph-name="Jcircumflex" unicode="&#x134;" horiz-adv-x="726" d="M654 1659 C651 1671 640 1680 628 1680 L463 1680 C451 1680 440 1671 437 1659 L358 1413 L357 1409 C357 1398 367 1391 380 1391 L479 1391 C512 1391 534 1412 537 1443 L546 1595 L554 1443 C557 1412 579 1391 612 1391 L713 1391 C728 1391 737 1401 734 1413 L654 1659 Z M679 1294 C679 1331 669 1344 630 1344 L501 1344 C478 1344 457 1335 440 1318 C424 1302 413 1279 413 1255 L413 247 C413 222 383 203 354 203 C334 207 314 228 314 247 L314 570 C314 587 305 602 288 615 C271 626 253 632 232 632 L93 632 C63 632 48 617 48 586 L48 235 C48 163 81 98 138 50 C194 2 276 -26 368 -26 C459 -26 537 2 593 51 C648 98 679 163 679 235 L679 1294 Z " />
<glyph glyph-name="jcircumflex" unicode="&#x135;" horiz-adv-x="726" d="M665 1459 C662 1471 651 1480 639 1480 L474 1480 C462 1480 451 1471 448 1459 L369 1213 L368 1209 C368 1198 378 1191 391 1191 L490 1191 C523 1191 545 1212 548 1243 L557 1395 L565 1243 C568 1212 590 1191 623 1191 L724 1191 C739 1191 748 1201 745 1213 L665 1459 Z M679 1083 C679 1120 669 1133 630 1133 L501 1133 C478 1133 457 1124 440 1107 C424 1091 413 1068 413 1044 L413 247 C413 222 383 203 354 203 C334 207 314 228 314 247 L314 570 C314 587 305 602 288 615 C271 626 253 632 232 632 L93 632 C63 632 48 617 48 586 L48 235 C48 163 81 98 138 50 C194 2 276 -26 368 -26 C459 -26 537 2 593 51 C648 98 679 163 679 235 L679 1083 Z " />
<glyph glyph-name="Kcommaaccent" unicode="&#x136;" horiz-adv-x="720" d="M357 1414 C357 1402 367 1396 376 1396 C404 1396 428 1412 448 1443 C469 1477 479 1522 479 1577 C479 1611 469 1638 450 1658 C427 1681 397 1692 359 1692 C283 1692 240 1658 240 1594 C240 1534 284 1498 357 1497 L357 1414 Z M410 91 C411 66 423 45 448 26 C470 9 493 0 516 0 L659 0 C688 0 696 6 696 23 C696 26 695 34 694 46 L597 681 L694 1298 C695 1310 696 1318 696 1321 C696 1338 688 1344 659 1344 L516 1344 C493 1344 471 1335 449 1318 C427 1300 414 1278 410 1253 L341 794 L314 794 L314 1255 C314 1279 303 1302 287 1318 C270 1334 247 1344 226 1344 L96 1344 C57 1344 48 1333 48 1294 L48 50 C48 13 58 0 97 0 L226 0 C249 0 270 9 287 26 C303 42 314 65 314 89 L314 579 L338 579 L410 91 Z " />
<glyph glyph-name="kcommaaccent" unicode="&#x137;" horiz-adv-x="718" d="M356 1214 C356 1202 366 1196 375 1196 C403 1196 427 1212 447 1243 C468 1277 478 1322 478 1377 C478 1411 468 1438 449 1458 C426 1481 396 1492 358 1492 C282 1492 239 1458 239 1394 C239 1334 283 1298 356 1297 L356 1214 Z M226 0 C247 0 270 10 287 26 C303 42 314 65 314 89 L314 469 L342 469 L410 76 C413 56 426 38 449 22 C470 7 492 0 516 0 L659 0 C688 0 696 4 696 20 L694 40 L597 574 L694 1093 L696 1113 C696 1129 688 1133 659 1133 L516 1133 C493 1133 470 1126 449 1112 C427 1097 414 1079 410 1057 L343 684 L314 684 L314 1042 C314 1066 305 1088 287 1107 C270 1123 247 1133 226 1133 L96 1133 C57 1133 48 1122 48 1083 L48 50 C48 11 57 0 96 0 L226 0 Z " />
<glyph glyph-name="kgreenlandic" unicode="&#x138;" horiz-adv-x="718" d="M226 0 C247 0 270 10 287 26 C303 42 314 65 314 89 L314 469 L342 469 L410 76 C413 56 426 38 449 22 C470 7 492 0 516 0 L659 0 C688 0 696 4 696 20 L694 40 L597 574 L694 1093 L696 1113 C696 1129 688 1133 659 1133 L516 1133 C493 1133 470 1126 449 1112 C427 1097 414 1079 410 1057 L343 684 L314 684 L314 1042 C314 1066 305 1088 287 1107 C270 1123 247 1133 226 1133 L96 1133 C57 1133 48 1122 48 1083 L48 50 C48 11 57 0 96 0 L226 0 Z " />
<glyph glyph-name="Lacute" unicode="&#x139;" horiz-adv-x="574" d="M122 1443 C119 1412 129 1396 158 1396 L191 1396 C216 1396 237 1404 252 1420 C264 1432 277 1455 290 1489 L328 1579 C335 1597 339 1612 339 1624 C339 1660 310 1678 253 1678 L199 1678 C167 1678 140 1660 136 1632 L122 1443 Z M48 47 C48 12 60 0 96 0 L486 0 C518 0 538 17 538 48 L538 88 C538 172 498 220 425 220 L314 220 L314 1255 C314 1279 303 1302 287 1318 C270 1334 247 1344 226 1344 L96 1344 C57 1344 48 1333 48 1294 L48 47 Z " />
<glyph glyph-name="lacute" unicode="&#x13a;" horiz-adv-x="541" d="M128 1243 C125 1212 135 1196 164 1196 L197 1196 C223 1196 243 1204 258 1220 C270 1232 283 1255 296 1289 L334 1379 C341 1397 345 1412 345 1424 C345 1460 316 1478 259 1478 L205 1478 C173 1478 146 1460 142 1432 L128 1243 Z M477 0 C509 0 528 17 528 48 L528 88 C528 172 489 220 417 220 L314 220 L314 1043 C314 1068 305 1089 287 1107 C270 1123 247 1133 226 1133 L96 1133 C57 1133 48 1122 48 1083 L48 50 C48 13 58 0 94 0 L477 0 Z " />
<glyph glyph-name="Lcommaaccent" unicode="&#x13b;" horiz-adv-x="574" d="M48 47 C48 12 60 0 96 0 L486 0 C518 0 538 17 538 48 L538 88 C538 172 498 220 425 220 L314 220 L314 1255 C314 1279 303 1302 287 1318 C270 1334 247 1344 226 1344 L96 1344 C57 1344 48 1333 48 1294 L48 47 Z M284 -391 C284 -403 294 -409 303 -409 C331 -409 355 -393 375 -362 C396 -328 406 -283 406 -228 C406 -194 396 -167 377 -147 C354 -124 324 -113 286 -113 C210 -113 167 -147 167 -211 C167 -271 211 -307 284 -308 L284 -391 Z " />
<glyph glyph-name="lcommaaccent" unicode="&#x13c;" horiz-adv-x="541" d="M477 0 C509 0 528 17 528 48 L528 88 C528 172 489 220 417 220 L314 220 L314 1043 C314 1068 305 1089 287 1107 C270 1123 247 1133 226 1133 L96 1133 C57 1133 48 1122 48 1083 L48 50 C48 13 58 0 94 0 L477 0 Z M206 -386 C206 -398 216 -404 225 -404 C253 -404 277 -388 297 -357 C318 -323 328 -278 328 -223 C328 -189 318 -162 299 -142 C276 -119 246 -108 208 -108 C132 -108 89 -142 89 -206 C89 -266 133 -302 206 -303 L206 -386 Z " />
<glyph glyph-name="Lcaron" unicode="&#x13d;" horiz-adv-x="574" d="M476 1663 C476 1674 467 1680 454 1680 L353 1680 C318 1680 298 1660 295 1628 L287 1477 L278 1628 C275 1660 255 1680 220 1680 L121 1680 C106 1680 96 1671 99 1659 L178 1413 C181 1401 192 1391 204 1391 L369 1391 C381 1391 392 1401 395 1413 L475 1659 L476 1663 Z M48 47 C48 12 60 0 96 0 L486 0 C518 0 538 17 538 48 L538 88 C538 172 498 220 425 220 L314 220 L314 1255 C314 1279 303 1302 287 1318 C270 1334 247 1344 226 1344 L96 1344 C57 1344 48 1333 48 1294 L48 47 Z " />
<glyph glyph-name="lcaron" unicode="&#x13e;" horiz-adv-x="543" d="M476 1462 C476 1473 467 1479 454 1479 L353 1479 C318 1479 298 1459 295 1427 L287 1276 L278 1427 C275 1459 255 1479 220 1479 L121 1479 C106 1479 96 1470 99 1458 L178 1212 C181 1200 192 1190 204 1190 L369 1190 C381 1190 392 1200 395 1212 L475 1458 L476 1462 Z M477 0 C509 0 528 17 528 48 L528 88 C528 172 489 220 417 220 L314 220 L314 1043 C314 1068 305 1089 287 1107 C270 1123 247 1133 226 1133 L96 1133 C57 1133 48 1122 48 1083 L48 50 C48 13 58 0 94 0 L477 0 Z " />
<glyph glyph-name="Ldot" unicode="&#x13f;" horiz-adv-x="574" d="M48 47 C48 12 60 0 96 0 L486 0 C518 0 538 17 538 48 L538 88 C538 172 498 220 425 220 L314 220 L314 1255 C314 1279 303 1302 287 1318 C270 1334 247 1344 226 1344 L96 1344 C57 1344 48 1333 48 1294 L48 47 Z M462 766 C381 766 343 723 343 650 C343 574 381 531 462 531 C543 531 584 571 584 650 C584 722 546 766 462 766 L462 766 Z " />
<glyph glyph-name="ldot" unicode="&#x140;" horiz-adv-x="545" d="M477 0 C509 0 528 17 528 48 L528 88 C528 172 489 220 417 220 L314 220 L314 1043 C314 1068 305 1089 287 1107 C270 1123 247 1133 226 1133 L96 1133 C57 1133 48 1122 48 1083 L48 50 C48 13 58 0 94 0 L477 0 Z M453 667 C374 667 337 625 337 553 C337 480 374 438 453 438 C533 438 573 476 573 553 C573 624 534 667 453 667 L453 667 Z " />
<glyph glyph-name="Lslash" unicode="&#x141;" horiz-adv-x="574" d="M48 718 C25 710 5 695 -11 672 C-28 649 -37 626 -37 601 L-37 518 C-37 493 -29 480 -12 480 C-6 480 2 482 12 485 L48 496 L48 47 C48 12 60 0 96 0 L486 0 C518 0 538 17 538 48 L538 88 C538 172 498 220 425 220 L314 220 L314 582 L358 596 C411 613 449 669 449 729 L449 799 C449 828 445 838 430 838 C423 838 414 836 403 832 L314 803 L314 1255 C314 1279 303 1302 287 1318 C270 1334 247 1344 226 1344 L96 1344 C57 1344 48 1333 48 1294 L48 718 Z " />
<glyph glyph-name="lslash" unicode="&#x142;" horiz-adv-x="574" d="M477 0 C509 0 528 17 528 48 L528 88 C528 172 489 220 417 220 L314 220 L314 477 L358 491 C411 508 449 564 449 624 L449 694 C449 723 445 733 430 733 C423 733 414 731 403 727 L314 698 L314 1043 C314 1068 305 1089 287 1107 C270 1123 247 1133 226 1133 L96 1133 C57 1133 48 1122 48 1083 L48 613 C25 605 5 590 -11 567 C-28 544 -37 521 -37 496 L-37 413 C-37 388 -29 375 -12 375 C-6 375 2 377 12 380 L48 391 L48 50 C48 13 58 0 94 0 L477 0 Z " />
<glyph glyph-name="Nacute" unicode="&#x143;" horiz-adv-x="717" d="M286 1443 C283 1412 293 1396 322 1396 L355 1396 C381 1396 401 1404 416 1420 C428 1432 441 1455 454 1489 L492 1579 C499 1597 503 1612 503 1624 C503 1660 474 1678 417 1678 L363 1678 C331 1678 304 1660 300 1632 L286 1443 Z M668 1297 C668 1333 660 1344 621 1344 L488 1344 C467 1344 444 1334 428 1318 C411 1302 401 1278 402 1253 L448 787 L313 1267 C302 1314 267 1344 227 1344 L94 1344 C55 1344 48 1334 48 1297 L48 51 C48 12 62 0 99 0 L222 0 C275 0 315 40 314 92 L268 553 L402 79 C410 35 447 0 492 0 L617 0 C654 0 668 12 668 51 L668 1297 Z " />
<glyph glyph-name="nacute" unicode="&#x144;" horiz-adv-x="717" d="M281 1243 C278 1212 288 1196 317 1196 L350 1196 C376 1196 396 1204 411 1220 C423 1232 436 1255 449 1289 L487 1379 C494 1397 498 1412 498 1424 C498 1460 469 1478 412 1478 L358 1478 C326 1478 299 1460 295 1432 L281 1243 Z M668 1085 C668 1122 660 1133 621 1133 L488 1133 C467 1133 443 1123 427 1107 C410 1091 399 1066 402 1042 L462 587 L312 1064 C305 1082 294 1098 277 1113 C259 1126 242 1133 227 1133 L94 1133 C55 1133 48 1122 48 1085 L48 51 C48 12 62 0 99 0 L222 0 C249 0 272 9 290 27 C309 45 317 67 314 92 L255 550 L405 67 C416 27 449 0 492 0 L617 0 C654 0 668 12 668 51 L668 1085 Z " />
<glyph glyph-name="Ncommaaccent" unicode="&#x145;" horiz-adv-x="717" d="M668 1297 C668 1333 660 1344 621 1344 L488 1344 C467 1344 444 1334 428 1318 C411 1302 401 1278 402 1253 L448 787 L313 1267 C302 1314 267 1344 227 1344 L94 1344 C55 1344 48 1334 48 1297 L48 51 C48 12 62 0 99 0 L222 0 C275 0 315 40 314 92 L268 553 L402 79 C410 35 447 0 492 0 L617 0 C654 0 668 12 668 51 L668 1297 Z M355 -403 C355 -415 365 -421 374 -421 C402 -421 426 -405 446 -374 C467 -340 477 -295 477 -240 C477 -206 467 -179 448 -159 C425 -136 395 -125 357 -125 C281 -125 238 -159 238 -223 C238 -283 282 -319 355 -320 L355 -403 Z " />
<glyph glyph-name="ncommaaccent" unicode="&#x146;" horiz-adv-x="717" d="M668 1085 C668 1122 660 1133 621 1133 L488 1133 C467 1133 443 1123 427 1107 C410 1091 399 1066 402 1042 L462 587 L312 1064 C305 1082 294 1098 277 1113 C259 1126 242 1133 227 1133 L94 1133 C55 1133 48 1122 48 1085 L48 51 C48 12 62 0 99 0 L222 0 C249 0 272 9 290 27 C309 45 317 67 314 92 L255 550 L405 67 C416 27 449 0 492 0 L617 0 C654 0 668 12 668 51 L668 1085 Z M355 -387 C355 -399 365 -405 374 -405 C402 -405 426 -389 446 -358 C467 -324 477 -279 477 -224 C477 -190 467 -163 448 -143 C425 -120 395 -109 357 -109 C281 -109 238 -143 238 -207 C238 -267 282 -303 355 -304 L355 -387 Z " />
<glyph glyph-name="Ncaron" unicode="&#x147;" horiz-adv-x="717" d="M547 1663 C547 1674 538 1680 525 1680 L424 1680 C389 1680 369 1660 366 1628 L358 1477 L349 1628 C346 1660 326 1680 291 1680 L192 1680 C177 1680 167 1671 170 1659 L249 1413 C252 1401 263 1391 275 1391 L440 1391 C452 1391 463 1401 466 1413 L546 1659 L547 1663 Z M668 1297 C668 1333 660 1344 621 1344 L488 1344 C467 1344 444 1334 428 1318 C411 1302 401 1278 402 1253 L448 787 L313 1267 C302 1314 267 1344 227 1344 L94 1344 C55 1344 48 1334 48 1297 L48 51 C48 12 62 0 99 0 L222 0 C275 0 315 40 314 92 L268 553 L402 79 C410 35 447 0 492 0 L617 0 C654 0 668 12 668 51 L668 1297 Z " />
<glyph glyph-name="ncaron" unicode="&#x148;" horiz-adv-x="717" d="M547 1463 C547 1474 538 1480 525 1480 L424 1480 C389 1480 369 1460 366 1428 L358 1277 L349 1428 C346 1460 326 1480 291 1480 L192 1480 C177 1480 167 1471 170 1459 L249 1213 C252 1201 263 1191 275 1191 L440 1191 C452 1191 463 1201 466 1213 L546 1459 L547 1463 Z M668 1085 C668 1122 660 1133 621 1133 L488 1133 C467 1133 443 1123 427 1107 C410 1091 399 1066 402 1042 L462 587 L312 1064 C305 1082 294 1098 277 1113 C259 1126 242 1133 227 1133 L94 1133 C55 1133 48 1122 48 1085 L48 51 C48 12 62 0 99 0 L222 0 C249 0 272 9 290 27 C309 45 317 67 314 92 L255 550 L405 67 C416 27 449 0 492 0 L617 0 C654 0 668 12 668 51 L668 1085 Z " />
<glyph glyph-name="napostrophe" unicode="&#x149;" horiz-adv-x="717" d="M682 1090 C682 1078 692 1072 701 1072 C729 1072 753 1088 773 1119 C794 1153 804 1198 804 1253 C804 1287 794 1314 775 1334 C752 1357 722 1368 684 1368 C608 1368 565 1334 565 1270 C565 1210 609 1174 682 1173 L682 1090 Z M668 1085 C668 1122 660 1133 621 1133 L488 1133 C467 1133 443 1123 427 1107 C410 1091 399 1066 402 1042 L462 587 L312 1064 C305 1082 294 1098 277 1113 C259 1126 242 1133 227 1133 L94 1133 C55 1133 48 1122 48 1085 L48 51 C48 12 62 0 99 0 L222 0 C249 0 272 9 290 27 C309 45 317 67 314 92 L255 550 L405 67 C416 27 449 0 492 0 L617 0 C654 0 668 12 668 51 L668 1085 Z " />
<glyph glyph-name="Eng" unicode="&#x14a;" horiz-adv-x="717" d="M668 1297 C668 1333 660 1344 621 1344 L488 1344 C467 1344 444 1334 428 1318 C411 1302 401 1278 402 1253 L448 787 L312 1275 C303 1315 264 1344 227 1344 L94 1344 C55 1344 48 1334 48 1297 L48 51 C48 12 62 0 99 0 L222 0 C275 0 315 40 314 92 L268 553 C290 495 312 431 335 362 C355 295 370 239 381 194 C395 129 402 77 402 40 L402 -103 C402 -130 380 -147 351 -147 C330 -142 311 -120 311 -103 L311 -101 C311 -84 302 -70 285 -57 C268 -46 250 -40 229 -40 L90 -40 C58 -40 45 -54 45 -85 L45 -121 C45 -194 78 -259 137 -304 C194 -349 276 -376 365 -376 C452 -376 527 -348 582 -301 C634 -254 665 -193 668 -125 L668 1297 Z " />
<glyph glyph-name="eng" unicode="&#x14b;" horiz-adv-x="717" d="M668 1096 C668 1133 660 1144 621 1144 L488 1144 C467 1144 443 1134 426 1118 C409 1103 401 1084 401 1063 C401 1058 401 1055 402 1053 L462 587 L335 996 C333 1001 329 1015 322 1038 C315 1061 307 1080 298 1096 C280 1128 256 1144 227 1144 L94 1144 C55 1144 48 1133 48 1096 L48 43 C48 8 62 0 99 0 L222 0 C249 0 272 9 290 27 C309 45 317 67 314 92 L255 550 C279 479 303 405 328 327 C348 264 365 205 379 148 C394 85 402 39 402 10 L402 -103 C402 -130 380 -147 351 -147 C330 -142 311 -120 311 -103 L311 -101 C311 -84 302 -70 285 -57 C268 -46 250 -40 229 -40 L90 -40 C58 -40 45 -54 45 -85 L45 -115 C45 -187 78 -252 135 -300 C191 -348 273 -376 365 -376 C456 -376 531 -348 586 -299 C638 -251 668 -187 668 -115 L668 1096 Z " />
<glyph glyph-name="Omacron" unicode="&#x14c;" horiz-adv-x="726" d="M212 1559 C189 1559 175 1546 175 1523 L175 1493 C175 1429 211 1387 267 1387 L458 1387 C514 1387 550 1429 550 1493 L550 1523 C550 1546 534 1559 513 1559 L212 1559 Z M49 239 C49 167 80 101 136 53 C192 4 272 -24 365 -24 C456 -24 535 5 592 54 C648 102 680 168 680 239 L680 1108 C680 1180 649 1245 594 1293 C537 1342 457 1370 364 1370 C275 1370 194 1341 137 1293 C81 1245 49 1180 49 1108 L49 239 Z M315 1097 C315 1118 340 1141 364 1141 C391 1141 414 1118 414 1097 L414 248 C414 228 392 204 367 204 C340 204 315 225 315 248 L315 1097 Z " />
<glyph glyph-name="omacron" unicode="&#x14d;" horiz-adv-x="731" d="M214 1359 C191 1359 177 1346 177 1323 L177 1293 C177 1229 213 1187 269 1187 L460 1187 C516 1187 552 1229 552 1293 L552 1323 C552 1346 536 1359 515 1359 L214 1359 Z M50 239 C50 167 81 101 137 53 C193 4 273 -24 366 -24 C457 -24 536 5 593 54 C649 102 681 168 681 239 L681 898 C681 970 650 1035 595 1083 C538 1132 458 1160 365 1160 C276 1160 195 1131 138 1083 C82 1035 50 970 50 898 L50 239 Z M316 887 C316 908 341 931 365 931 C392 931 415 908 415 887 L415 248 C415 228 393 204 368 204 C341 204 316 225 316 248 L316 887 Z " />
<glyph glyph-name="Obreve" unicode="&#x14e;" horiz-adv-x="726" d="M548 1661 C548 1674 540 1684 527 1684 L438 1684 C422 1684 401 1681 394 1677 C379 1673 377 1644 377 1596 L374 1544 C372 1529 368 1521 361 1521 C356 1521 353 1525 351 1532 C347 1547 345 1569 345 1596 L342 1633 C339 1660 333 1675 325 1678 C314 1682 300 1684 287 1684 L197 1684 C184 1684 177 1676 177 1660 C177 1567 187 1504 214 1461 C242 1416 289 1393 361 1393 C493 1393 548 1481 548 1661 L548 1661 Z M49 239 C49 167 80 101 136 53 C192 4 272 -24 365 -24 C456 -24 535 5 592 54 C648 102 680 168 680 239 L680 1108 C680 1180 649 1245 594 1293 C537 1342 457 1370 364 1370 C275 1370 194 1341 137 1293 C81 1245 49 1180 49 1108 L49 239 Z M315 1097 C315 1118 340 1141 364 1141 C391 1141 414 1118 414 1097 L414 248 C414 228 392 204 367 204 C340 204 315 225 315 248 L315 1097 Z " />
<glyph glyph-name="obreve" unicode="&#x14f;" horiz-adv-x="731" d="M551 1461 C551 1474 543 1484 530 1484 L441 1484 C425 1484 404 1481 397 1477 C382 1473 380 1444 380 1396 L377 1344 C375 1329 371 1321 364 1321 C359 1321 356 1325 354 1332 C350 1347 348 1369 348 1396 L345 1433 C342 1460 336 1475 328 1478 C317 1482 303 1484 290 1484 L200 1484 C187 1484 180 1476 180 1460 C180 1367 190 1304 217 1261 C245 1216 292 1193 364 1193 C496 1193 551 1281 551 1461 L551 1461 Z M50 239 C50 167 81 101 137 53 C193 4 273 -24 366 -24 C457 -24 536 5 593 54 C649 102 681 168 681 239 L681 898 C681 970 650 1035 595 1083 C538 1132 458 1160 365 1160 C276 1160 195 1131 138 1083 C82 1035 50 970 50 898 L50 239 Z M316 887 C316 908 341 931 365 931 C392 931 415 908 415 887 L415 248 C415 228 393 204 368 204 C341 204 316 225 316 248 L316 887 Z " />
<glyph glyph-name="Ohungarumlaut" unicode="&#x150;" horiz-adv-x="726" d="M205 1443 C204 1440 204 1435 204 1430 C204 1407 216 1396 240 1396 L274 1396 C329 1396 357 1424 372 1489 L391 1579 C398 1606 401 1625 401 1638 C401 1666 386 1678 335 1678 L281 1678 C249 1678 222 1660 219 1632 L205 1443 Z M392 1443 C389 1412 401 1396 429 1396 L461 1396 C516 1396 545 1424 560 1489 L579 1579 C586 1606 589 1625 589 1638 C589 1666 573 1678 524 1678 L469 1678 C437 1678 410 1660 406 1632 L392 1443 Z M49 239 C49 167 80 101 136 53 C192 4 272 -24 365 -24 C456 -24 535 5 592 54 C648 102 680 168 680 239 L680 1108 C680 1180 649 1245 594 1293 C537 1342 457 1370 364 1370 C275 1370 194 1341 137 1293 C81 1245 49 1180 49 1108 L49 239 Z M315 1097 C315 1118 340 1141 364 1141 C391 1141 414 1118 414 1097 L414 248 C414 228 392 204 367 204 C340 204 315 225 315 248 L315 1097 Z " />
<glyph glyph-name="ohungarumlaut" unicode="&#x151;" horiz-adv-x="731" d="M212 1243 C211 1240 211 1235 211 1230 C211 1207 223 1196 247 1196 L281 1196 C336 1196 364 1224 379 1289 L398 1379 C405 1406 408 1425 408 1438 C408 1466 393 1478 342 1478 L288 1478 C256 1478 229 1460 226 1432 L212 1243 Z M399 1243 C396 1212 408 1196 436 1196 L468 1196 C523 1196 552 1224 567 1289 L586 1379 C593 1406 596 1425 596 1438 C596 1466 580 1478 531 1478 L476 1478 C444 1478 417 1460 413 1432 L399 1243 Z M50 239 C50 167 81 101 137 53 C193 4 273 -24 366 -24 C457 -24 536 5 593 54 C649 102 681 168 681 239 L681 898 C681 970 650 1035 595 1083 C538 1132 458 1160 365 1160 C276 1160 195 1131 138 1083 C82 1035 50 970 50 898 L50 239 Z M316 887 C316 908 341 931 365 931 C392 931 415 908 415 887 L415 248 C415 228 393 204 368 204 C341 204 316 225 316 248 L316 887 Z " />
<glyph glyph-name="OE" unicode="&#x152;" horiz-adv-x="940" d="M60 239 C60 136 123 50 224 5 C272 -14 321 -24 370 -24 C419 -24 466 -16 510 0 L852 0 C884 0 905 17 905 48 L905 88 C905 172 864 220 792 220 L690 220 L691 556 L751 556 C822 556 862 606 862 687 L862 707 C862 754 850 776 811 776 L691 776 L691 922 L691 1020 L691 1079 C690 1088 690 1099 690 1110 L690 1122 L690 1124 L792 1124 C864 1124 905 1173 905 1256 L905 1296 C905 1327 884 1344 852 1344 L519 1344 C474 1361 426 1370 375 1370 C284 1370 204 1341 148 1293 C92 1245 60 1180 60 1108 L60 239 Z M326 1097 C326 1118 351 1141 375 1141 C402 1141 425 1118 425 1097 L425 248 C425 228 403 204 378 204 C351 204 326 225 326 248 L326 1097 Z " />
<glyph glyph-name="oe" unicode="&#x153;" horiz-adv-x="927" d="M49 239 C49 136 112 50 213 5 C261 -14 310 -24 359 -24 C408 -24 455 -16 499 0 L852 0 C884 0 905 17 905 48 L905 88 C905 172 864 220 792 220 L679 220 L680 446 L751 446 C822 446 862 496 862 577 L862 596 C862 644 850 666 811 666 L680 666 L680 784 L680 858 L680 898 L679 914 L792 914 C864 914 905 963 905 1046 L905 1086 C905 1117 884 1134 852 1134 L508 1134 C463 1151 415 1160 364 1160 C273 1160 193 1131 137 1083 C81 1035 49 970 49 898 L49 239 Z M315 887 C315 908 340 931 364 931 C391 931 414 908 414 887 L414 248 C414 228 392 204 367 204 C340 204 315 225 315 248 L315 887 Z " />
<glyph glyph-name="Racute" unicode="&#x154;" horiz-adv-x="726" d="M277 1443 C274 1412 284 1396 313 1396 L346 1396 C372 1396 392 1404 407 1420 C419 1432 432 1455 445 1489 L483 1579 C490 1597 494 1612 494 1624 C494 1660 465 1678 408 1678 L354 1678 C322 1678 295 1660 291 1632 L277 1443 Z M679 454 C679 531 641 573 568 593 C640 625 679 676 679 753 L679 1082 C679 1153 648 1218 593 1266 C536 1315 457 1344 368 1344 L96 1344 C57 1344 48 1333 48 1294 L48 50 C48 13 58 0 97 0 L226 0 C249 0 270 9 287 26 C303 42 314 65 314 89 L314 496 L363 496 C390 496 413 473 413 452 L413 89 C413 65 424 42 440 26 C457 9 477 0 500 0 L630 0 C669 0 679 13 679 50 L679 454 Z M363 1124 C390 1124 413 1101 413 1080 L413 756 C413 737 389 715 366 715 L314 715 L314 1124 L363 1124 Z " />
<glyph glyph-name="racute" unicode="&#x155;" horiz-adv-x="726" d="M289 1243 C286 1212 296 1196 325 1196 L358 1196 C384 1196 404 1204 419 1220 C431 1232 444 1255 457 1289 L495 1379 C502 1397 506 1412 506 1424 C506 1460 477 1478 420 1478 L366 1478 C334 1478 307 1460 303 1432 L289 1243 Z M679 358 C679 435 641 477 568 497 C640 529 679 580 679 657 L679 872 C679 943 648 1008 593 1056 C536 1105 457 1134 368 1134 L96 1134 C57 1134 48 1123 48 1084 L48 50 C48 13 58 0 97 0 L226 0 C249 0 270 9 287 26 C303 42 314 65 314 89 L314 400 L363 400 C390 400 413 377 413 356 L413 89 C413 65 424 42 440 26 C457 9 477 0 500 0 L630 0 C669 0 679 13 679 50 L679 358 Z M363 914 C390 914 413 891 413 870 L413 660 C413 641 389 619 366 619 L314 619 L314 914 L363 914 Z " />
<glyph glyph-name="Rcommaaccent" unicode="&#x156;" horiz-adv-x="726" d="M679 454 C679 531 641 573 568 593 C640 625 679 676 679 753 L679 1082 C679 1153 648 1218 593 1266 C536 1315 457 1344 368 1344 L96 1344 C57 1344 48 1333 48 1294 L48 50 C48 13 58 0 97 0 L226 0 C249 0 270 9 287 26 C303 42 314 65 314 89 L314 496 L363 496 C390 496 413 473 413 452 L413 89 C413 65 424 42 440 26 C457 9 477 0 500 0 L630 0 C669 0 679 13 679 50 L679 454 Z M363 1124 C390 1124 413 1101 413 1080 L413 756 C413 737 389 715 366 715 L314 715 L314 1124 L363 1124 Z M361 -405 C361 -417 371 -423 380 -423 C408 -423 432 -407 452 -376 C473 -342 483 -297 483 -242 C483 -208 473 -181 454 -161 C431 -138 401 -127 363 -127 C287 -127 244 -161 244 -225 C244 -285 288 -321 361 -322 L361 -405 Z " />
<glyph glyph-name="rcommaaccent" unicode="&#x157;" horiz-adv-x="726" d="M679 358 C679 435 641 477 568 497 C640 529 679 580 679 657 L679 872 C679 943 648 1008 593 1056 C536 1105 457 1134 368 1134 L96 1134 C57 1134 48 1123 48 1084 L48 50 C48 13 58 0 97 0 L226 0 C249 0 270 9 287 26 C303 42 314 65 314 89 L314 400 L363 400 C390 400 413 377 413 356 L413 89 C413 65 424 42 440 26 C457 9 477 0 500 0 L630 0 C669 0 679 13 679 50 L679 358 Z M363 914 C390 914 413 891 413 870 L413 660 C413 641 389 619 366 619 L314 619 L314 914 L363 914 Z M361 -400 C361 -412 371 -418 380 -418 C408 -418 432 -402 452 -371 C473 -337 483 -292 483 -237 C483 -203 473 -176 454 -156 C431 -133 401 -122 363 -122 C287 -122 244 -156 244 -220 C244 -280 288 -316 361 -317 L361 -400 Z " />
<glyph glyph-name="Rcaron" unicode="&#x158;" horiz-adv-x="726" d="M552 1663 C552 1674 543 1680 530 1680 L429 1680 C394 1680 374 1660 371 1628 L363 1477 L354 1628 C351 1660 331 1680 296 1680 L197 1680 C182 1680 172 1671 175 1659 L254 1413 C257 1401 268 1391 280 1391 L445 1391 C457 1391 468 1401 471 1413 L551 1659 L552 1663 Z M679 454 C679 531 641 573 568 593 C640 625 679 676 679 753 L679 1082 C679 1153 648 1218 593 1266 C536 1315 457 1344 368 1344 L96 1344 C57 1344 48 1333 48 1294 L48 50 C48 13 58 0 97 0 L226 0 C249 0 270 9 287 26 C303 42 314 65 314 89 L314 496 L363 496 C390 496 413 473 413 452 L413 89 C413 65 424 42 440 26 C457 9 477 0 500 0 L630 0 C669 0 679 13 679 50 L679 454 Z M363 1124 C390 1124 413 1101 413 1080 L413 756 C413 737 389 715 366 715 L314 715 L314 1124 L363 1124 Z " />
<glyph glyph-name="rcaron" unicode="&#x159;" horiz-adv-x="726" d="M552 1463 C552 1474 543 1480 530 1480 L429 1480 C394 1480 374 1460 371 1428 L363 1277 L354 1428 C351 1460 331 1480 296 1480 L197 1480 C182 1480 172 1471 175 1459 L254 1213 C257 1201 268 1191 280 1191 L445 1191 C457 1191 468 1201 471 1213 L551 1459 L552 1463 Z M679 358 C679 435 641 477 568 497 C640 529 679 580 679 657 L679 872 C679 943 648 1008 593 1056 C536 1105 457 1134 368 1134 L96 1134 C57 1134 48 1123 48 1084 L48 50 C48 13 58 0 97 0 L226 0 C249 0 270 9 287 26 C303 42 314 65 314 89 L314 400 L363 400 C390 400 413 377 413 356 L413 89 C413 65 424 42 440 26 C457 9 477 0 500 0 L630 0 C669 0 679 13 679 50 L679 358 Z M363 914 C390 914 413 891 413 870 L413 660 C413 641 389 619 366 619 L314 619 L314 914 L363 914 Z " />
<glyph glyph-name="Sacute" unicode="&#x15a;" horiz-adv-x="729" d="M309 1443 C306 1412 316 1396 345 1396 L378 1396 C404 1396 424 1404 439 1420 C451 1432 464 1455 477 1489 L515 1579 C522 1597 526 1612 526 1624 C526 1660 497 1678 440 1678 L386 1678 C354 1678 327 1660 323 1632 L309 1443 Z M363 -26 C456 -26 537 3 594 52 C649 99 679 164 679 235 C679 314 670 384 652 444 C620 550 568 647 497 734 C468 769 439 807 409 848 C348 933 314 1005 314 1097 C314 1116 338 1141 363 1141 C387 1141 413 1117 413 1097 L413 952 C413 935 422 920 439 908 C454 897 473 891 494 891 L632 891 C667 891 679 906 679 935 L679 1109 C679 1180 647 1245 591 1293 C532 1341 450 1370 357 1370 C268 1370 190 1341 134 1293 C79 1245 48 1180 48 1109 C48 1036 57 972 75 916 C106 818 158 724 231 635 C264 594 293 554 319 517 C379 428 413 347 413 247 C413 226 390 203 363 203 C339 203 314 227 314 247 L314 369 C314 386 305 400 288 413 C271 424 253 430 232 430 L93 430 C61 430 48 416 48 384 L48 235 C48 164 78 99 134 52 C190 3 270 -26 363 -26 L363 -26 Z " />
<glyph glyph-name="sacute" unicode="&#x15b;" horiz-adv-x="728" d="M294 1243 C291 1212 301 1196 330 1196 L363 1196 C389 1196 409 1204 424 1220 C436 1232 449 1255 462 1289 L500 1379 C507 1397 511 1412 511 1424 C511 1460 482 1478 425 1478 L371 1478 C339 1478 312 1460 308 1432 L294 1243 Z M363 -26 C456 -26 537 3 594 52 C649 99 679 164 679 235 C679 294 674 345 664 388 C645 467 611 528 564 573 C536 598 500 627 455 658 L430 676 C407 691 388 708 371 727 C334 766 314 815 314 887 C314 904 338 930 363 930 C387 930 413 906 413 885 L413 775 C413 758 422 743 439 731 C454 720 473 714 494 714 L632 714 C665 714 679 729 679 758 L679 897 C679 969 647 1034 591 1082 C532 1130 450 1159 357 1159 C268 1159 190 1130 134 1082 C79 1033 48 968 48 897 C48 798 67 716 105 652 C137 596 179 555 231 514 L251 498 C300 459 329 435 356 404 C393 361 413 312 413 247 C413 226 390 203 363 203 C339 203 314 227 314 247 L314 335 C314 352 305 366 288 379 C273 390 254 395 232 395 L93 395 C61 395 48 381 48 350 L48 235 C48 164 78 99 134 52 C190 3 270 -26 363 -26 L363 -26 Z " />
<glyph glyph-name="Scircumflex" unicode="&#x15c;" horiz-adv-x="729" d="M472 1659 C469 1671 458 1680 446 1680 L281 1680 C269 1680 258 1671 255 1659 L176 1413 L175 1409 C175 1398 185 1391 198 1391 L297 1391 C330 1391 352 1412 355 1443 L364 1595 L372 1443 C375 1412 397 1391 430 1391 L531 1391 C546 1391 555 1401 552 1413 L472 1659 Z M363 -26 C456 -26 537 3 594 52 C649 99 679 164 679 235 C679 314 670 384 652 444 C620 550 568 647 497 734 C468 769 439 807 409 848 C348 933 314 1005 314 1097 C314 1116 338 1141 363 1141 C387 1141 413 1117 413 1097 L413 952 C413 935 422 920 439 908 C454 897 473 891 494 891 L632 891 C667 891 679 906 679 935 L679 1109 C679 1180 647 1245 591 1293 C532 1341 450 1370 357 1370 C268 1370 190 1341 134 1293 C79 1245 48 1180 48 1109 C48 1036 57 972 75 916 C106 818 158 724 231 635 C264 594 293 554 319 517 C379 428 413 347 413 247 C413 226 390 203 363 203 C339 203 314 227 314 247 L314 369 C314 386 305 400 288 413 C271 424 253 430 232 430 L93 430 C61 430 48 416 48 384 L48 235 C48 164 78 99 134 52 C190 3 270 -26 363 -26 L363 -26 Z " />
<glyph glyph-name="scircumflex" unicode="&#x15d;" horiz-adv-x="728" d="M471 1459 C468 1471 457 1480 445 1480 L280 1480 C268 1480 257 1471 254 1459 L175 1213 L174 1209 C174 1198 184 1191 197 1191 L296 1191 C329 1191 351 1212 354 1243 L363 1395 L371 1243 C374 1212 396 1191 429 1191 L530 1191 C545 1191 554 1201 551 1213 L471 1459 Z M363 -26 C456 -26 537 3 594 52 C649 99 679 164 679 235 C679 294 674 345 664 388 C645 467 611 528 564 573 C536 598 500 627 455 658 L430 676 C407 691 388 708 371 727 C334 766 314 815 314 887 C314 904 338 930 363 930 C387 930 413 906 413 885 L413 775 C413 758 422 743 439 731 C454 720 473 714 494 714 L632 714 C665 714 679 729 679 758 L679 897 C679 969 647 1034 591 1082 C532 1130 450 1159 357 1159 C268 1159 190 1130 134 1082 C79 1033 48 968 48 897 C48 798 67 716 105 652 C137 596 179 555 231 514 L251 498 C300 459 329 435 356 404 C393 361 413 312 413 247 C413 226 390 203 363 203 C339 203 314 227 314 247 L314 335 C314 352 305 366 288 379 C273 390 254 395 232 395 L93 395 C61 395 48 381 48 350 L48 235 C48 164 78 99 134 52 C190 3 270 -26 363 -26 L363 -26 Z " />
<glyph glyph-name="Scedilla" unicode="&#x15e;" horiz-adv-x="729" d="M439 908 C454 897 473 891 494 891 L632 891 C667 891 679 906 679 935 L679 1109 C679 1180 647 1245 591 1293 C532 1341 450 1370 357 1370 C268 1370 190 1341 134 1293 C79 1245 48 1180 48 1109 C48 1036 57 972 75 916 C106 818 158 724 231 635 C264 594 293 554 319 517 C379 428 413 347 413 247 C413 226 390 203 363 203 C339 203 314 227 314 247 L314 369 C314 386 305 400 288 413 C271 424 253 430 232 430 L93 430 C61 430 48 416 48 384 L48 235 C48 164 78 99 134 52 C177 15 230 -9 293 -20 C297 -46 303 -67 311 -82 C318 -96 332 -124 332 -146 C332 -151 331 -153 329 -153 C327 -154 322 -154 314 -154 C298 -154 286 -156 277 -160 C264 -165 257 -175 257 -188 L258 -254 C258 -265 266 -272 281 -275 C298 -278 323 -280 356 -280 C399 -280 431 -270 452 -251 C476 -230 488 -195 488 -146 C488 -102 477 -77 460 -49 C456 -42 446 -28 442 -19 C501 -7 552 17 594 52 C649 99 679 164 679 235 C679 314 670 384 652 444 C620 550 568 647 497 734 C468 769 439 807 409 848 C348 933 314 1005 314 1097 C314 1116 338 1141 363 1141 C387 1141 413 1117 413 1097 L413 952 C413 935 422 920 439 908 L439 908 Z " />
<glyph glyph-name="scedilla" unicode="&#x15f;" horiz-adv-x="728" d="M439 731 C454 720 473 714 494 714 L632 714 C665 714 679 729 679 758 L679 897 C679 969 647 1034 591 1082 C532 1130 450 1159 357 1159 C268 1159 190 1130 134 1082 C79 1033 48 968 48 897 C48 798 67 716 105 652 C137 596 179 555 231 514 L251 498 C300 459 329 435 356 404 C393 361 413 312 413 247 C413 226 390 203 363 203 C339 203 314 227 314 247 L314 335 C314 352 305 366 288 379 C273 390 254 395 232 395 L93 395 C61 395 48 381 48 350 L48 235 C48 164 78 99 134 52 C175 17 225 -7 284 -19 C288 -44 294 -65 303 -82 C310 -96 324 -124 324 -146 C324 -151 323 -153 321 -153 C319 -154 314 -154 306 -154 C290 -154 278 -156 269 -160 C256 -165 249 -175 249 -188 L250 -254 C250 -265 258 -272 273 -275 C290 -278 315 -280 348 -280 C391 -280 423 -270 444 -251 C468 -230 480 -195 480 -146 C480 -102 469 -77 452 -49 C445 -39 440 -29 435 -20 C497 -9 550 15 594 52 C649 99 679 164 679 235 C679 294 674 345 664 388 C645 467 611 528 564 573 C536 598 500 627 455 658 L430 676 C407 691 388 708 371 727 C334 766 314 815 314 887 C314 904 338 930 363 930 C387 930 413 906 413 885 L413 775 C413 758 422 743 439 731 L439 731 Z " />
<glyph glyph-name="Scaron" unicode="&#x160;" horiz-adv-x="729" d="M553 1663 C553 1674 544 1680 531 1680 L430 1680 C395 1680 375 1660 372 1628 L364 1477 L355 1628 C352 1660 332 1680 297 1680 L198 1680 C183 1680 173 1671 176 1659 L255 1413 C258 1401 269 1391 281 1391 L446 1391 C458 1391 469 1401 472 1413 L552 1659 L553 1663 Z M363 -26 C456 -26 537 3 594 52 C649 99 679 164 679 235 C679 314 670 384 652 444 C620 550 568 647 497 734 C468 769 439 807 409 848 C348 933 314 1005 314 1097 C314 1116 338 1141 363 1141 C387 1141 413 1117 413 1097 L413 952 C413 935 422 920 439 908 C454 897 473 891 494 891 L632 891 C667 891 679 906 679 935 L679 1109 C679 1180 647 1245 591 1293 C532 1341 450 1370 357 1370 C268 1370 190 1341 134 1293 C79 1245 48 1180 48 1109 C48 1036 57 972 75 916 C106 818 158 724 231 635 C264 594 293 554 319 517 C379 428 413 347 413 247 C413 226 390 203 363 203 C339 203 314 227 314 247 L314 369 C314 386 305 400 288 413 C271 424 253 430 232 430 L93 430 C61 430 48 416 48 384 L48 235 C48 164 78 99 134 52 C190 3 270 -26 363 -26 L363 -26 Z " />
<glyph glyph-name="scaron" unicode="&#x161;" horiz-adv-x="728" d="M552 1463 C552 1474 543 1480 530 1480 L429 1480 C394 1480 374 1460 371 1428 L363 1277 L354 1428 C351 1460 331 1480 296 1480 L197 1480 C182 1480 172 1471 175 1459 L254 1213 C257 1201 268 1191 280 1191 L445 1191 C457 1191 468 1201 471 1213 L551 1459 L552 1463 Z M363 -26 C456 -26 537 3 594 52 C649 99 679 164 679 235 C679 294 674 345 664 388 C645 467 611 528 564 573 C536 598 500 627 455 658 L430 676 C407 691 388 708 371 727 C334 766 314 815 314 887 C314 904 338 930 363 930 C387 930 413 906 413 885 L413 775 C413 758 422 743 439 731 C454 720 473 714 494 714 L632 714 C665 714 679 729 679 758 L679 897 C679 969 647 1034 591 1082 C532 1130 450 1159 357 1159 C268 1159 190 1130 134 1082 C79 1033 48 968 48 897 C48 798 67 716 105 652 C137 596 179 555 231 514 L251 498 C300 459 329 435 356 404 C393 361 413 312 413 247 C413 226 390 203 363 203 C339 203 314 227 314 247 L314 335 C314 352 305 366 288 379 C273 390 254 395 232 395 L93 395 C61 395 48 381 48 350 L48 235 C48 164 78 99 134 52 C190 3 270 -26 363 -26 L363 -26 Z " />
<glyph glyph-name="uni0162" unicode="&#x162;" horiz-adv-x="617" d="M306 1414 C306 1402 316 1396 325 1396 C353 1396 377 1412 397 1443 C418 1477 428 1522 428 1577 C428 1611 418 1638 399 1658 C376 1681 346 1692 308 1692 C232 1692 189 1658 189 1594 C189 1534 233 1498 306 1497 L306 1414 Z M64 1344 C32 1344 12 1327 12 1296 L12 1256 C12 1172 53 1124 125 1124 L182 1124 L182 48 C182 11 191 0 230 0 L400 0 C436 0 448 11 448 48 L448 1124 L495 1124 C567 1124 608 1172 608 1256 L608 1296 C608 1327 588 1344 556 1344 L64 1344 Z " />
<glyph glyph-name="uni0163" unicode="&#x163;" horiz-adv-x="617" d="M306 1214 C306 1202 316 1196 325 1196 C353 1196 377 1212 397 1243 C418 1277 428 1322 428 1377 C428 1411 418 1438 399 1458 C376 1481 346 1492 308 1492 C232 1492 189 1458 189 1394 C189 1334 233 1298 306 1297 L306 1214 Z M448 913 L495 913 C567 913 608 961 608 1045 L608 1085 C608 1116 588 1133 556 1133 L64 1133 C32 1133 12 1116 12 1085 L12 1045 C12 960 50 913 125 913 L182 913 L182 48 C182 11 191 0 230 0 L400 0 C436 0 448 11 448 48 L448 913 Z " />
<glyph glyph-name="Tcaron" unicode="&#x164;" horiz-adv-x="617" d="M498 1674 C498 1685 489 1691 476 1691 L375 1691 C340 1691 320 1671 317 1639 L309 1488 L300 1639 C297 1671 277 1691 242 1691 L143 1691 C128 1691 118 1682 121 1670 L200 1424 C203 1412 214 1402 226 1402 L391 1402 C403 1402 414 1412 417 1424 L497 1670 L498 1674 Z M64 1344 C32 1344 12 1327 12 1296 L12 1256 C12 1172 53 1124 125 1124 L182 1124 L182 48 C182 11 191 0 230 0 L400 0 C436 0 448 11 448 48 L448 1124 L495 1124 C567 1124 608 1172 608 1256 L608 1296 C608 1327 588 1344 556 1344 L64 1344 Z " />
<glyph glyph-name="tcaron" unicode="&#x165;" horiz-adv-x="619" d="M498 1432 C498 1443 489 1449 476 1449 L375 1449 C340 1449 320 1429 317 1397 L309 1246 L300 1397 C297 1429 277 1449 242 1449 L143 1449 C128 1449 118 1440 121 1428 L200 1182 C203 1170 214 1160 226 1160 L391 1160 C403 1160 414 1170 417 1182 L497 1428 L498 1432 Z M448 913 L495 913 C567 913 608 961 608 1045 L608 1085 C608 1116 588 1133 556 1133 L64 1133 C32 1133 12 1116 12 1085 L12 1045 C12 960 50 913 125 913 L182 913 L182 48 C182 11 191 0 230 0 L400 0 C436 0 448 11 448 48 L448 913 Z " />
<glyph glyph-name="Tbar" unicode="&#x166;" horiz-adv-x="617" d="M140 781 C113 781 97 769 97 746 L97 717 C97 662 130 624 182 615 L182 48 C182 11 191 0 230 0 L400 0 C436 0 448 11 448 48 L448 616 C496 627 527 665 527 717 L527 746 C527 769 509 781 485 781 L448 781 L448 1124 L495 1124 C567 1124 608 1172 608 1256 L608 1296 C608 1327 588 1344 556 1344 L64 1344 C32 1344 12 1327 12 1296 L12 1256 C12 1172 53 1124 125 1124 L182 1124 L182 781 L140 781 Z " />
<glyph glyph-name="tbar" unicode="&#x167;" horiz-adv-x="617" d="M132 656 C104 656 87 642 87 618 L87 587 C87 527 125 485 182 478 L182 48 C182 11 191 0 230 0 L400 0 C436 0 448 11 448 48 L448 481 C497 492 529 532 529 587 L529 618 C529 641 509 656 485 656 L448 656 L448 913 L495 913 C567 913 608 961 608 1045 L608 1085 C608 1116 588 1133 556 1133 L64 1133 C32 1133 12 1116 12 1085 L12 1045 C12 960 50 913 125 913 L182 913 L182 656 L132 656 Z " />
<glyph glyph-name="Utilde" unicode="&#x168;" horiz-adv-x="726" d="M451 1414 C475 1414 495 1405 498 1404 C501 1403 517 1393 540 1393 C556 1393 569 1406 569 1426 L569 1467 C569 1512 555 1545 526 1564 C505 1579 475 1586 437 1586 C408 1586 388 1581 359 1570 C331 1558 314 1553 290 1553 C275 1553 260 1556 244 1563 C240 1564 224 1572 201 1572 C185 1572 172 1560 172 1540 L172 1497 C172 1453 186 1421 215 1402 C238 1387 268 1379 306 1379 C331 1379 350 1385 381 1397 C394 1402 430 1414 451 1414 L451 1414 Z M314 1255 C314 1279 303 1302 287 1318 C270 1334 247 1344 226 1344 L96 1344 C57 1344 48 1333 48 1294 L48 235 C48 163 80 98 136 51 C193 2 273 -26 368 -26 C459 -26 536 2 593 51 C648 98 679 163 679 235 L679 1294 C679 1331 669 1344 630 1344 L500 1344 C477 1344 457 1335 440 1318 C424 1302 413 1279 413 1255 L413 247 C413 226 390 203 363 203 C338 203 314 227 314 247 L314 1255 Z " />
<glyph glyph-name="utilde" unicode="&#x169;" horiz-adv-x="726" d="M451 1214 C475 1214 495 1205 498 1204 C501 1203 517 1193 540 1193 C556 1193 569 1206 569 1226 L569 1267 C569 1312 555 1345 526 1364 C505 1379 475 1386 437 1386 C408 1386 388 1381 359 1370 C331 1358 314 1353 290 1353 C275 1353 260 1356 244 1363 C240 1364 224 1372 201 1372 C185 1372 172 1360 172 1340 L172 1297 C172 1253 186 1221 215 1202 C238 1187 268 1179 306 1179 C331 1179 350 1185 381 1197 C394 1202 430 1214 451 1214 L451 1214 Z M314 1045 C314 1069 303 1092 287 1108 C270 1124 247 1134 226 1134 L96 1134 C57 1134 48 1123 48 1084 L48 235 C48 163 80 98 136 51 C193 2 273 -26 368 -26 C459 -26 536 2 593 51 C648 98 679 163 679 235 L679 1084 C679 1121 669 1134 630 1134 L500 1134 C477 1134 457 1125 440 1108 C424 1092 413 1069 413 1045 L413 247 C413 226 390 203 363 203 C338 203 314 227 314 247 L314 1045 Z " />
<glyph glyph-name="Umacron" unicode="&#x16a;" horiz-adv-x="726" d="M212 1570 C189 1570 175 1557 175 1534 L175 1504 C175 1440 211 1398 267 1398 L458 1398 C514 1398 550 1440 550 1504 L550 1534 C550 1557 534 1570 513 1570 L212 1570 Z M314 1255 C314 1279 303 1302 287 1318 C270 1334 247 1344 226 1344 L96 1344 C57 1344 48 1333 48 1294 L48 235 C48 163 80 98 136 51 C193 2 273 -26 368 -26 C459 -26 536 2 593 51 C648 98 679 163 679 235 L679 1294 C679 1331 669 1344 630 1344 L500 1344 C477 1344 457 1335 440 1318 C424 1302 413 1279 413 1255 L413 247 C413 226 390 203 363 203 C338 203 314 227 314 247 L314 1255 Z " />
<glyph glyph-name="umacron" unicode="&#x16b;" horiz-adv-x="726" d="M212 1359 C189 1359 175 1346 175 1323 L175 1293 C175 1229 211 1187 267 1187 L458 1187 C514 1187 550 1229 550 1293 L550 1323 C550 1346 534 1359 513 1359 L212 1359 Z M314 1045 C314 1069 303 1092 287 1108 C270 1124 247 1134 226 1134 L96 1134 C57 1134 48 1123 48 1084 L48 235 C48 163 80 98 136 51 C193 2 273 -26 368 -26 C459 -26 536 2 593 51 C648 98 679 163 679 235 L679 1084 C679 1121 669 1134 630 1134 L500 1134 C477 1134 457 1125 440 1108 C424 1092 413 1069 413 1045 L413 247 C413 226 390 203 363 203 C338 203 314 227 314 247 L314 1045 Z " />
<glyph glyph-name="Ubreve" unicode="&#x16c;" horiz-adv-x="726" d="M548 1661 C548 1674 540 1684 527 1684 L438 1684 C422 1684 401 1681 394 1677 C379 1673 377 1644 377 1596 L374 1544 C372 1529 368 1521 361 1521 C356 1521 353 1525 351 1532 C347 1547 345 1569 345 1596 L342 1633 C339 1660 333 1675 325 1678 C314 1682 300 1684 287 1684 L197 1684 C184 1684 177 1676 177 1660 C177 1567 187 1504 214 1461 C242 1416 289 1393 361 1393 C493 1393 548 1481 548 1661 L548 1661 Z M314 1255 C314 1279 303 1302 287 1318 C270 1334 247 1344 226 1344 L96 1344 C57 1344 48 1333 48 1294 L48 235 C48 163 80 98 136 51 C193 2 273 -26 368 -26 C459 -26 536 2 593 51 C648 98 679 163 679 235 L679 1294 C679 1331 669 1344 630 1344 L500 1344 C477 1344 457 1335 440 1318 C424 1302 413 1279 413 1255 L413 247 C413 226 390 203 363 203 C338 203 314 227 314 247 L314 1255 Z " />
<glyph glyph-name="ubreve" unicode="&#x16d;" horiz-adv-x="726" d="M548 1461 C548 1474 540 1484 527 1484 L438 1484 C422 1484 401 1481 394 1477 C379 1473 377 1444 377 1396 L374 1344 C372 1329 368 1321 361 1321 C356 1321 353 1325 351 1332 C347 1347 345 1369 345 1396 L342 1433 C339 1460 333 1475 325 1478 C314 1482 300 1484 287 1484 L197 1484 C184 1484 177 1476 177 1460 C177 1367 187 1304 214 1261 C242 1216 289 1193 361 1193 C493 1193 548 1281 548 1461 L548 1461 Z M314 1045 C314 1069 303 1092 287 1108 C270 1124 247 1134 226 1134 L96 1134 C57 1134 48 1123 48 1084 L48 235 C48 163 80 98 136 51 C193 2 273 -26 368 -26 C459 -26 536 2 593 51 C648 98 679 163 679 235 L679 1084 C679 1121 669 1134 630 1134 L500 1134 C477 1134 457 1125 440 1108 C424 1092 413 1069 413 1045 L413 247 C413 226 390 203 363 203 C338 203 314 227 314 247 L314 1045 Z " />
<glyph glyph-name="Uring" unicode="&#x16e;" horiz-adv-x="726" d="M361 1727 C234 1727 161 1669 161 1560 C161 1447 234 1387 361 1387 C492 1387 565 1447 565 1560 C565 1669 492 1727 361 1727 L361 1727 Z M361 1508 C321 1508 304 1524 304 1560 C304 1593 321 1609 361 1609 C400 1609 420 1593 420 1560 C420 1524 401 1508 361 1508 L361 1508 Z M314 1255 C314 1279 303 1302 287 1318 C270 1334 247 1344 226 1344 L96 1344 C57 1344 48 1333 48 1294 L48 235 C48 163 80 98 136 51 C193 2 273 -26 368 -26 C459 -26 536 2 593 51 C648 98 679 163 679 235 L679 1294 C679 1331 669 1344 630 1344 L500 1344 C477 1344 457 1335 440 1318 C424 1302 413 1279 413 1255 L413 247 C413 226 390 203 363 203 C338 203 314 227 314 247 L314 1255 Z " />
<glyph glyph-name="uring" unicode="&#x16f;" horiz-adv-x="726" d="M361 1527 C234 1527 161 1469 161 1360 C161 1247 234 1187 361 1187 C492 1187 565 1247 565 1360 C565 1469 492 1527 361 1527 L361 1527 Z M361 1308 C321 1308 304 1324 304 1360 C304 1393 321 1409 361 1409 C400 1409 420 1393 420 1360 C420 1324 401 1308 361 1308 L361 1308 Z M314 1045 C314 1069 303 1092 287 1108 C270 1124 247 1134 226 1134 L96 1134 C57 1134 48 1123 48 1084 L48 235 C48 163 80 98 136 51 C193 2 273 -26 368 -26 C459 -26 536 2 593 51 C648 98 679 163 679 235 L679 1084 C679 1121 669 1134 630 1134 L500 1134 C477 1134 457 1125 440 1108 C424 1092 413 1069 413 1045 L413 247 C413 226 390 203 363 203 C338 203 314 227 314 247 L314 1045 Z " />
<glyph glyph-name="Uhungarumlaut" unicode="&#x170;" horiz-adv-x="726" d="M214 1470 C213 1467 213 1462 213 1457 C213 1434 225 1423 249 1423 L283 1423 C338 1423 366 1451 381 1516 L400 1606 C407 1633 410 1652 410 1665 C410 1693 395 1705 344 1705 L290 1705 C258 1705 231 1687 228 1659 L214 1470 Z M401 1470 C398 1439 410 1423 438 1423 L470 1423 C525 1423 554 1451 569 1516 L588 1606 C595 1633 598 1652 598 1665 C598 1693 582 1705 533 1705 L478 1705 C446 1705 419 1687 415 1659 L401 1470 Z M314 1255 C314 1279 303 1302 287 1318 C270 1334 247 1344 226 1344 L96 1344 C57 1344 48 1333 48 1294 L48 235 C48 163 80 98 136 51 C193 2 273 -26 368 -26 C459 -26 536 2 593 51 C648 98 679 163 679 235 L679 1294 C679 1331 669 1344 630 1344 L500 1344 C477 1344 457 1335 440 1318 C424 1302 413 1279 413 1255 L413 247 C413 226 390 203 363 203 C338 203 314 227 314 247 L314 1255 Z " />
<glyph glyph-name="uhungarumlaut" unicode="&#x171;" horiz-adv-x="726" d="M213 1243 C212 1240 212 1235 212 1230 C212 1207 224 1196 248 1196 L282 1196 C337 1196 365 1224 380 1289 L399 1379 C406 1406 409 1425 409 1438 C409 1466 394 1478 343 1478 L289 1478 C257 1478 230 1460 227 1432 L213 1243 Z M400 1243 C397 1212 409 1196 437 1196 L469 1196 C524 1196 553 1224 568 1289 L587 1379 C594 1406 597 1425 597 1438 C597 1466 581 1478 532 1478 L477 1478 C445 1478 418 1460 414 1432 L400 1243 Z M314 1045 C314 1069 303 1092 287 1108 C270 1124 247 1134 226 1134 L96 1134 C57 1134 48 1123 48 1084 L48 235 C48 163 80 98 136 51 C193 2 273 -26 368 -26 C459 -26 536 2 593 51 C648 98 679 163 679 235 L679 1084 C679 1121 669 1134 630 1134 L500 1134 C477 1134 457 1125 440 1108 C424 1092 413 1069 413 1045 L413 247 C413 226 390 203 363 203 C338 203 314 227 314 247 L314 1045 Z " />
<glyph glyph-name="Uogonek" unicode="&#x172;" horiz-adv-x="726" d="M500 1344 C477 1344 457 1335 440 1318 C424 1302 413 1279 413 1255 L413 247 C413 226 390 203 363 203 C338 203 314 227 314 247 L314 1255 C314 1279 303 1302 287 1318 C270 1334 247 1344 226 1344 L96 1344 C57 1344 48 1333 48 1294 L48 235 C48 163 80 98 136 51 C163 28 192 11 224 -1 C183 -33 160 -81 160 -140 L160 -149 C160 -246 184 -318 231 -363 C272 -403 333 -423 414 -423 C450 -423 479 -415 502 -398 C526 -381 539 -354 542 -316 L544 -277 C547 -246 531 -236 500 -236 C411 -236 371 -201 371 -136 L371 -126 C371 -74 383 -40 415 -23 C486 -15 546 10 593 51 C648 98 679 163 679 235 L679 1294 C679 1331 669 1344 630 1344 L500 1344 Z " />
<glyph glyph-name="uogonek" unicode="&#x173;" horiz-adv-x="726" d="M500 1134 C477 1134 457 1125 440 1108 C424 1092 413 1069 413 1045 L413 247 C413 226 390 203 363 203 C338 203 314 227 314 247 L314 1045 C314 1069 303 1092 287 1108 C270 1124 247 1134 226 1134 L96 1134 C57 1134 48 1123 48 1084 L48 235 C48 163 80 98 136 51 C165 26 198 8 235 -5 C202 -38 185 -81 185 -132 L185 -141 C185 -238 209 -310 256 -355 C297 -395 358 -415 439 -415 C475 -415 504 -407 527 -390 C551 -373 564 -346 567 -308 L569 -269 C572 -238 556 -228 525 -228 C436 -228 396 -193 396 -128 L396 -118 C396 -71 407 -38 430 -21 C495 -11 549 13 593 51 C648 98 679 163 679 235 L679 1084 C679 1121 669 1134 630 1134 L500 1134 Z " />
<glyph glyph-name="Wcircumflex" unicode="&#x174;" horiz-adv-x="1062" d="M639 1659 C636 1671 625 1680 613 1680 L448 1680 C436 1680 425 1671 422 1659 L343 1413 L342 1409 C342 1398 352 1391 365 1391 L464 1391 C497 1391 519 1412 522 1443 L531 1595 L539 1443 C542 1412 564 1391 597 1391 L698 1391 C713 1391 722 1401 719 1413 L639 1659 Z M559 50 C560 14 576 0 613 0 L873 0 C909 0 923 13 927 50 L1056 1298 L1057 1312 C1057 1336 1047 1344 1014 1344 L881 1344 C860 1344 839 1335 820 1318 C801 1301 788 1277 787 1253 L741 208 L677 1253 C676 1277 664 1302 645 1318 C628 1334 602 1344 581 1344 L481 1344 C436 1344 392 1304 385 1253 L321 208 L276 1253 C273 1280 262 1301 243 1318 C224 1334 201 1344 180 1344 L48 1344 C15 1344 5 1336 5 1312 L6 1298 L136 50 C139 13 153 0 189 0 L448 0 C487 0 502 13 503 50 L530 835 L559 50 Z " />
<glyph glyph-name="wcircumflex" unicode="&#x175;" horiz-adv-x="1021" d="M618 1459 C615 1471 604 1480 592 1480 L427 1480 C415 1480 404 1471 401 1459 L322 1213 L321 1209 C321 1198 331 1191 344 1191 L443 1191 C476 1191 498 1212 501 1243 L510 1395 L518 1243 C521 1212 543 1191 576 1191 L677 1191 C692 1191 701 1201 698 1213 L618 1459 Z M1013 1087 C1014 1091 1014 1096 1014 1103 C1014 1126 1003 1133 971 1133 L837 1133 C816 1133 794 1123 775 1107 C756 1090 743 1066 742 1042 L716 272 L666 1042 C665 1066 653 1091 634 1107 C617 1123 591 1133 570 1133 L451 1133 C430 1133 408 1123 389 1107 C370 1090 357 1066 356 1042 L306 272 L279 1042 C278 1066 266 1091 247 1107 C228 1123 205 1133 184 1133 L51 1133 C18 1133 7 1125 7 1100 L8 1087 L123 50 C127 13 138 0 177 0 L436 0 C475 0 489 13 490 50 L511 659 L532 50 C532 32 536 20 545 13 C556 2 574 -3 601 -3 C611 -3 618 -3 623 -2 C646 -1 662 0 673 0 L845 0 C884 0 894 11 898 50 L1013 1087 Z " />
<glyph glyph-name="Ycircumflex" unicode="&#x176;" horiz-adv-x="618" d="M416 1659 C413 1671 402 1680 390 1680 L225 1680 C213 1680 202 1671 199 1659 L120 1413 L119 1409 C119 1398 129 1391 142 1391 L241 1391 C274 1391 296 1412 299 1443 L308 1595 L316 1443 C319 1412 341 1391 374 1391 L475 1391 C490 1391 499 1401 496 1413 L416 1659 Z M610 1287 C611 1290 611 1295 611 1301 C611 1330 595 1344 563 1344 L445 1344 C424 1344 398 1334 377 1318 C356 1301 340 1277 339 1253 L309 663 L278 1253 C277 1277 262 1301 241 1318 C220 1334 193 1344 172 1344 L55 1344 C23 1344 7 1330 7 1302 C7 1295 7 1290 8 1287 L176 359 L176 50 C176 13 189 0 226 0 L392 0 C428 0 442 13 442 50 L442 361 L610 1287 Z " />
<glyph glyph-name="ycircumflex" unicode="&#x177;" horiz-adv-x="598" d="M406 1459 C403 1471 392 1480 380 1480 L215 1480 C203 1480 192 1471 189 1459 L110 1213 L109 1209 C109 1198 119 1191 132 1191 L231 1191 C264 1191 286 1212 289 1243 L298 1395 L306 1243 C309 1212 331 1191 364 1191 L465 1191 C480 1191 489 1201 486 1213 L406 1459 Z M591 1085 C592 1088 592 1091 592 1096 C592 1121 576 1133 543 1133 L426 1133 C403 1133 377 1125 358 1112 C335 1097 321 1077 320 1057 L299 622 L278 1057 C278 1077 264 1097 241 1112 C221 1125 195 1133 172 1133 L55 1133 C23 1133 7 1121 7 1097 C7 1092 7 1088 8 1085 L166 313 L166 43 C166 12 180 0 216 0 L382 0 C421 0 432 11 432 43 L432 315 L591 1085 Z " />
<glyph glyph-name="Ydieresis" unicode="&#x178;" horiz-adv-x="618" d="M183 1632 C114 1632 82 1589 82 1517 C82 1442 114 1398 183 1398 C253 1398 288 1438 288 1517 C288 1589 255 1632 183 1632 L183 1632 Z M431 1632 C362 1632 330 1589 330 1517 C330 1442 362 1398 431 1398 C501 1398 536 1438 536 1517 C536 1589 503 1632 431 1632 L431 1632 Z M610 1287 C611 1290 611 1295 611 1301 C611 1330 595 1344 563 1344 L445 1344 C424 1344 398 1334 377 1318 C356 1301 340 1277 339 1253 L309 663 L278 1253 C277 1277 262 1301 241 1318 C220 1334 193 1344 172 1344 L55 1344 C23 1344 7 1330 7 1302 C7 1295 7 1290 8 1287 L176 359 L176 50 C176 13 189 0 226 0 L392 0 C428 0 442 13 442 50 L442 361 L610 1287 Z " />
<glyph glyph-name="Zacute" unicode="&#x179;" horiz-adv-x="512" d="M222 1454 C219 1423 229 1407 258 1407 L291 1407 C317 1407 337 1415 352 1431 C364 1443 377 1466 390 1500 L428 1590 C435 1608 439 1623 439 1635 C439 1671 410 1689 353 1689 L299 1689 C267 1689 240 1671 236 1643 L222 1454 Z M69 1344 C41 1344 22 1327 22 1296 L22 1256 C22 1172 58 1124 122 1124 L179 1124 L18 91 C17 83 16 77 16 73 C16 30 45 0 84 0 L449 0 C477 0 496 17 496 48 L496 88 C496 172 459 221 394 221 L286 221 L481 1294 C483 1302 484 1309 484 1315 C484 1336 471 1344 442 1344 L69 1344 Z " />
<glyph glyph-name="zacute" unicode="&#x17a;" horiz-adv-x="517" d="M201 1243 C198 1212 208 1196 237 1196 L270 1196 C295 1196 316 1204 331 1220 C343 1232 356 1255 369 1289 L407 1379 C414 1397 418 1412 418 1424 C418 1460 389 1478 332 1478 L278 1478 C246 1478 219 1460 215 1432 L201 1243 Z M69 1133 C41 1133 22 1116 22 1085 L22 1045 C22 961 58 913 122 913 L173 913 L18 91 C17 87 17 81 17 74 C17 31 45 0 84 0 L449 0 C477 0 496 17 496 48 L496 88 C496 172 459 221 394 221 L292 221 L481 1083 C483 1091 484 1098 484 1104 C484 1125 473 1133 442 1133 L69 1133 Z " />
<glyph glyph-name="Zdotaccent" unicode="&#x17b;" horiz-adv-x="512" d="M254 1640 C157 1640 112 1597 112 1522 C112 1447 158 1403 254 1403 C354 1403 400 1447 400 1522 C400 1597 354 1640 254 1640 L254 1640 Z M69 1344 C41 1344 22 1327 22 1296 L22 1256 C22 1172 58 1124 122 1124 L179 1124 L18 91 C17 83 16 77 16 73 C16 30 45 0 84 0 L449 0 C477 0 496 17 496 48 L496 88 C496 172 459 221 394 221 L286 221 L481 1294 C483 1302 484 1309 484 1315 C484 1336 471 1344 442 1344 L69 1344 Z " />
<glyph glyph-name="zdotaccent" unicode="&#x17c;" horiz-adv-x="517" d="M256 1429 C159 1429 114 1386 114 1311 C114 1236 160 1192 256 1192 C356 1192 402 1236 402 1311 C402 1386 356 1429 256 1429 L256 1429 Z M69 1133 C41 1133 22 1116 22 1085 L22 1045 C22 961 58 913 122 913 L173 913 L18 91 C17 87 17 81 17 74 C17 31 45 0 84 0 L449 0 C477 0 496 17 496 48 L496 88 C496 172 459 221 394 221 L292 221 L481 1083 C483 1091 484 1098 484 1104 C484 1125 473 1133 442 1133 L69 1133 Z " />
<glyph glyph-name="Zcaron" unicode="&#x17d;" horiz-adv-x="512" d="M445 1674 C445 1685 436 1691 423 1691 L322 1691 C287 1691 267 1671 264 1639 L256 1488 L247 1639 C244 1671 224 1691 189 1691 L90 1691 C75 1691 65 1682 68 1670 L147 1424 C150 1412 161 1402 173 1402 L338 1402 C350 1402 361 1412 364 1424 L444 1670 L445 1674 Z M69 1344 C41 1344 22 1327 22 1296 L22 1256 C22 1172 58 1124 122 1124 L179 1124 L18 91 C17 83 16 77 16 73 C16 30 45 0 84 0 L449 0 C477 0 496 17 496 48 L496 88 C496 172 459 221 394 221 L286 221 L481 1294 C483 1302 484 1309 484 1315 C484 1336 471 1344 442 1344 L69 1344 Z " />
<glyph glyph-name="zcaron" unicode="&#x17e;" horiz-adv-x="517" d="M447 1463 C447 1474 438 1480 425 1480 L324 1480 C289 1480 269 1460 266 1428 L258 1277 L249 1428 C246 1460 226 1480 191 1480 L92 1480 C77 1480 67 1471 70 1459 L149 1213 C152 1201 163 1191 175 1191 L340 1191 C352 1191 363 1201 366 1213 L446 1459 L447 1463 Z M69 1133 C41 1133 22 1116 22 1085 L22 1045 C22 961 58 913 122 913 L173 913 L18 91 C17 87 17 81 17 74 C17 31 45 0 84 0 L449 0 C477 0 496 17 496 48 L496 88 C496 172 459 221 394 221 L292 221 L481 1083 C483 1091 484 1098 484 1104 C484 1125 473 1133 442 1133 L69 1133 Z " />
<glyph glyph-name="longs" unicode="&#x17f;" horiz-adv-x="554" d="M96 1134 C57 1134 48 1123 48 1084 L48 -160 C48 -197 58 -210 97 -210 L226 -210 C249 -210 270 -201 287 -184 C303 -168 314 -145 314 -121 L314 435 L384 435 C457 435 497 483 497 567 L497 607 C497 638 476 655 444 655 L314 655 L314 914 L425 914 C498 914 538 962 538 1046 L538 1086 C538 1117 518 1134 486 1134 L96 1134 Z " />
<glyph glyph-name="florin" unicode="&#x192;" horiz-adv-x="562" d="M102 1134 C63 1134 54 1123 54 1084 L54 -4 C-17 -5 -56 -54 -56 -135 L-56 -175 C-56 -206 -36 -224 -4 -224 L103 -224 L232 -224 C255 -224 275 -215 294 -198 C310 -182 321 -159 321 -135 L321 435 L390 435 C465 435 503 482 503 567 L503 607 C503 638 483 655 451 655 L321 655 L321 914 L432 914 C505 914 545 962 545 1046 L545 1086 C545 1117 524 1134 492 1134 L102 1134 Z " />
<glyph glyph-name="AEacute" unicode="&#x1fc;" horiz-adv-x="954" d="M471 1443 C468 1412 478 1396 507 1396 L540 1396 C566 1396 586 1404 601 1420 C613 1432 626 1455 639 1489 L677 1579 C684 1597 688 1612 688 1624 C688 1660 659 1678 602 1678 L548 1678 C516 1678 489 1660 485 1632 L471 1443 Z M9 31 C9 7 18 0 51 0 L194 0 C215 0 240 9 257 25 C276 42 287 63 290 90 L311 199 L430 199 L430 48 C430 12 441 0 476 0 L869 0 C898 0 920 19 920 48 L920 88 C920 173 883 220 811 220 L695 220 L695 556 L766 556 C837 556 878 607 878 688 L878 728 C878 759 857 776 826 776 L695 776 L695 1124 L807 1124 C878 1124 920 1175 920 1256 L920 1296 C920 1325 898 1344 869 1344 L469 1344 L435 1345 C428 1346 419 1346 408 1346 C401 1346 390 1345 377 1344 C350 1339 335 1325 332 1294 L10 46 L9 31 Z M430 1022 L428 407 L350 407 L430 1022 Z " />
<glyph glyph-name="aeacute" unicode="&#x1fd;" horiz-adv-x="841" d="M287 1243 C284 1212 294 1196 323 1196 L356 1196 C381 1196 402 1204 417 1220 C429 1232 442 1255 455 1289 L493 1379 C500 1397 504 1412 504 1424 C504 1460 475 1478 418 1478 L364 1478 C332 1478 305 1460 301 1432 L287 1243 Z M771 0 C803 0 824 17 824 48 L824 88 C824 172 784 220 711 220 L600 220 L600 447 L671 447 C743 447 782 494 782 578 L782 598 C782 646 770 667 730 667 L600 667 L600 913 L711 913 C783 913 824 961 824 1045 L824 1085 C824 1116 803 1133 771 1133 L257 1133 L211 1133 C198 1133 187 1132 180 1129 C163 1122 154 1111 150 1083 L6 48 C5 44 5 38 5 31 C5 8 15 0 47 0 L131 0 C218 0 254 24 262 76 L277 162 L334 162 L334 48 C334 12 345 0 381 0 L771 0 Z M334 903 L334 371 L291 371 L321 903 L334 903 Z " />
<glyph glyph-name="Oslashacute" unicode="&#x1fe;" horiz-adv-x="726" d="M300 1443 C297 1412 307 1396 336 1396 L369 1396 C395 1396 415 1404 430 1420 C442 1432 455 1455 468 1489 L506 1579 C513 1597 517 1612 517 1624 C517 1660 488 1678 431 1678 L377 1678 C345 1678 318 1660 314 1632 L300 1443 Z M49 239 C49 172 73 114 121 66 L79 -94 C77 -101 76 -108 76 -113 C76 -132 89 -140 121 -140 L165 -140 C208 -140 247 -101 260 -49 L269 -13 C302 -20 334 -24 365 -24 C456 -24 535 5 592 54 C648 102 680 168 680 239 L680 1108 C680 1165 662 1216 626 1260 L671 1433 C672 1437 673 1442 673 1449 C673 1472 657 1484 632 1484 L614 1484 C573 1484 541 1470 519 1442 C506 1425 496 1401 488 1372 L483 1352 C444 1364 404 1370 364 1370 C275 1370 194 1341 137 1293 C81 1245 49 1180 49 1108 L49 239 Z M315 1097 C315 1118 340 1141 364 1141 C391 1141 414 1118 414 1097 L414 248 C414 228 392 204 367 204 C340 204 315 225 315 248 L315 1097 Z " />
<glyph glyph-name="oslashacute" unicode="&#x1ff;" horiz-adv-x="731" d="M287 1243 C284 1212 294 1196 323 1196 L356 1196 C381 1196 402 1204 417 1220 C429 1232 442 1255 455 1289 L493 1379 C500 1397 504 1412 504 1424 C504 1460 475 1478 418 1478 L364 1478 C332 1478 305 1460 301 1432 L287 1243 Z M49 239 C49 172 73 114 121 66 L79 -94 C77 -101 76 -108 76 -113 C76 -132 89 -140 121 -140 L165 -140 C208 -140 247 -101 260 -49 L269 -13 C302 -20 334 -24 365 -24 C456 -24 535 5 592 54 C648 102 680 168 680 239 L680 898 C680 955 662 1006 626 1050 L671 1223 C672 1227 673 1232 673 1239 C673 1262 657 1274 632 1274 L614 1274 C573 1274 541 1260 519 1232 C506 1215 496 1191 488 1162 L483 1142 C444 1154 404 1160 364 1160 C275 1160 194 1131 137 1083 C81 1035 49 970 49 898 L49 239 Z M315 887 C315 908 340 931 364 931 C391 931 414 908 414 887 L414 248 C414 228 392 204 367 204 C340 204 315 225 315 248 L315 887 Z " />
</font>
</svg>
