<?xml version="1.0" encoding="UTF-8"?>
<svg xmlns="http://www.w3.org/2000/svg" xmlns:xlink="http://www.w3.org/1999/xlink" version="1.2" >
<font id="Clarendon URW Extra Narrow Medium">
<font-face  font-family="Clarendon URW Extra Narrow" units-per-em="1000" ascent="667" descent="-333" font-style="normal" font-weight="500" font-stretch="semi-condensed" cap-height="667" x-height="469" underline-position="-59" underline-thickness="85" />
<missing-glyph  horiz-adv-x="250" d="" />
<glyph glyph-name="NULL" d="" />
<glyph glyph-name="CR" unicode="&#xd;" horiz-adv-x="250" d="" />
<glyph glyph-name="space" unicode="&#x20;" horiz-adv-x="250" d="" />
<glyph glyph-name="exclam" unicode="&#x21;" horiz-adv-x="313" d="M173 140 C134 140 102 105 102 63 C102 18 133 -17 173 -17 C212 -17 244 18 244 61 C244 105 212 140 173 140 L173 140 Z M208 199 C214 291 219 341 237 476 C247 547 249 568 249 593 C249 654 222 687 173 687 C125 687 98 653 98 594 C98 569 100 550 110 476 C128 334 133 291 139 199 L208 199 Z " />
<glyph glyph-name="quotedbl" unicode="&#x22;" horiz-adv-x="339" d="M128 399 L149 667 L26 667 L46 399 L128 399 Z M292 399 L313 667 L190 667 L210 399 L292 399 Z " />
<glyph glyph-name="numbersign" unicode="&#x23;" horiz-adv-x="563" d="M519 293 L426 293 L440 387 L531 387 L546 492 L454 492 L479 667 L371 667 L346 492 L258 492 L284 667 L178 667 L153 492 L61 492 L47 387 L139 387 L125 293 L32 293 L18 188 L111 188 L84 0 L189 0 L216 188 L303 188 L275 0 L385 0 L412 188 L505 188 L519 293 Z M332 387 L318 293 L232 293 L245 387 L332 387 Z " />
<glyph glyph-name="dollar" unicode="&#x24;" horiz-adv-x="563" d="M241 -110 L310 -110 L310 0 C388 9 423 21 459 51 C498 85 520 132 520 184 C520 246 491 297 441 325 C409 342 384 351 310 369 L310 541 C359 540 388 530 406 508 C377 493 365 478 365 452 C365 419 393 393 429 393 C471 393 498 422 498 467 C498 502 482 535 452 560 C418 589 383 600 310 606 L310 675 L241 675 L241 604 C170 591 139 579 107 552 C69 520 48 472 48 418 C48 362 70 317 111 290 C141 271 162 263 241 236 L241 61 C188 62 151 75 127 101 C164 112 179 128 179 159 C179 200 152 228 113 228 C70 228 38 191 38 141 C38 109 51 79 75 55 C110 19 152 5 241 -1 L241 -110 Z M310 224 C371 209 392 188 392 144 C392 98 368 74 310 64 L310 224 Z M241 383 C188 404 176 418 176 463 C176 508 196 532 241 538 L241 383 Z " />
<glyph glyph-name="percent" unicode="&#x25;" horiz-adv-x="862" d="M224 -17 L299 -17 L635 623 L560 623 L224 -17 Z M200 622 C100 622 31 545 31 433 C31 316 97 240 200 240 C301 240 368 317 368 432 C368 546 301 622 200 622 L200 622 Z M200 556 C235 556 251 517 251 431 C251 345 235 306 200 306 C164 306 148 345 148 433 C148 516 165 556 200 556 L200 556 Z M661 365 C561 365 492 288 492 176 C492 59 558 -17 661 -17 C761 -17 829 60 829 175 C829 289 761 365 661 365 L661 365 Z M661 297 C697 297 712 260 712 173 C712 87 696 50 660 50 C624 50 609 87 609 176 C609 259 625 297 661 297 L661 297 Z " />
<glyph glyph-name="ampersand" unicode="&#x26;" horiz-adv-x="778" d="M660 231 C660 134 637 89 586 89 C561 89 545 98 520 128 C559 187 573 211 585 234 C620 303 620 303 638 317 C652 328 669 333 693 333 C698 333 709 333 720 332 L720 414 L444 414 L444 332 L463 332 C508 332 521 328 521 313 C521 288 503 252 462 197 C415 259 392 296 350 375 C428 432 456 477 456 544 C456 629 399 688 318 688 C227 688 158 615 158 519 C158 485 164 459 187 405 C75 346 34 287 34 186 C34 62 122 -19 255 -19 C312 -19 349 -7 420 36 C487 -9 516 -20 567 -20 C632 -20 680 5 710 54 C730 88 738 126 738 191 C738 197 738 213 737 231 L660 231 Z M305 456 C289 499 284 523 284 551 C284 584 300 605 325 605 C347 605 362 583 362 550 C362 511 348 488 305 456 L305 456 Z M226 313 C276 219 312 162 358 102 C331 85 318 80 295 80 C231 80 188 133 188 212 C188 253 198 280 226 313 L226 313 Z " />
<glyph glyph-name="quotesingle" unicode="&#x27;" horiz-adv-x="175" d="M128 399 L149 667 L26 667 L47 399 L128 399 Z " />
<glyph glyph-name="parenleft" unicode="&#x28;" horiz-adv-x="357" d="M335 687 C254 670 213 650 165 603 C81 520 40 405 40 245 C40 86 81 -30 165 -112 C212 -157 254 -178 335 -196 L335 -119 C287 -97 266 -79 246 -37 C213 27 200 110 200 246 C200 381 213 464 246 528 C266 569 287 588 335 610 L335 687 Z " />
<glyph glyph-name="parenright" unicode="&#x29;" horiz-adv-x="357" d="M22 -196 C102 -179 143 -159 191 -112 C276 -29 317 86 317 245 C317 405 276 521 191 603 C144 648 103 669 22 687 L22 609 C70 588 90 569 111 528 C144 464 157 381 157 245 C157 110 144 27 111 -38 C90 -79 70 -98 22 -119 L22 -196 Z " />
<glyph glyph-name="asterisk" unicode="&#x2a;" horiz-adv-x="447" d="M214 492 C184 516 176 525 156 559 C131 603 123 610 99 610 C71 610 49 583 49 550 C49 532 57 516 70 508 C82 499 83 499 123 497 C160 495 178 490 204 474 C176 459 163 456 126 452 C89 450 85 449 74 443 C59 436 49 419 49 400 C49 367 72 339 99 339 C123 339 130 346 156 390 C178 428 189 440 215 456 C212 428 207 407 192 371 C173 329 173 329 173 312 C173 283 193 264 222 264 C252 264 273 285 273 314 C273 329 269 340 255 369 C239 403 235 416 232 458 C254 442 262 433 288 391 C318 343 323 338 344 338 C372 338 395 365 395 399 C395 420 388 434 373 443 C361 450 361 450 322 452 C285 455 267 460 240 476 C265 490 280 494 320 497 C361 500 361 500 372 507 C386 515 395 532 395 552 C395 583 372 611 346 611 C324 611 314 602 289 559 C268 523 256 510 230 493 C235 533 240 552 253 580 C271 618 272 621 272 636 C272 665 250 687 221 687 C192 687 172 667 172 637 C172 622 174 615 190 582 C205 550 210 530 214 492 L214 492 Z " />
<glyph glyph-name="plus" unicode="&#x2b;" horiz-adv-x="535" d="M66 366 L66 263 L213 263 L213 100 L321 100 L321 263 L469 263 L469 366 L321 366 L321 530 L213 530 L213 366 L66 366 Z " />
<glyph glyph-name="comma" unicode="&#x2c;" horiz-adv-x="241" d="M43 -144 C95 -133 119 -121 146 -94 C178 -62 197 -14 197 35 C197 96 163 140 115 140 C73 140 39 103 39 57 C39 21 64 -10 93 -10 C101 -10 113 -7 127 -1 C117 -60 102 -76 43 -94 L43 -144 Z " />
<glyph glyph-name="hyphen" unicode="&#x2d;" horiz-adv-x="247" d="M0 172 L247 172 L247 299 L0 299 L0 172 Z " />
<glyph glyph-name="period" unicode="&#x2e;" horiz-adv-x="282" d="M143 140 C104 140 72 105 72 63 C72 18 103 -17 143 -17 C182 -17 214 18 214 61 C214 105 182 140 143 140 L143 140 Z " />
<glyph glyph-name="slash" unicode="&#x2f;" horiz-adv-x="345" d="M79 -92 L309 686 L240 686 L9 -92 L79 -92 Z " />
<glyph glyph-name="zero" unicode="0" horiz-adv-x="563" d="M286 621 C130 621 27 493 27 301 C27 113 131 -17 283 -17 C434 -17 538 113 538 302 C538 489 434 621 286 621 L286 621 Z M282 539 C342 539 369 465 369 302 C369 141 341 65 283 65 C224 65 196 140 196 295 C196 463 223 539 282 539 L282 539 Z " />
<glyph glyph-name="one" unicode="1" horiz-adv-x="563" d="M213 444 L213 135 C212 85 207 78 169 76 L116 76 L116 0 L458 0 L458 76 L408 76 C371 78 366 86 366 135 L366 607 L259 607 C240 552 201 528 117 519 L117 444 L213 444 Z " />
<glyph glyph-name="two" unicode="2" horiz-adv-x="563" d="M115 0 C125 39 137 53 161 53 C175 53 195 47 223 33 C310 -9 335 -17 379 -17 C435 -17 481 12 503 61 C515 90 520 124 520 178 L520 213 L456 213 C454 142 438 118 394 118 C377 118 353 122 313 133 C277 143 253 147 237 147 C208 147 187 140 144 116 C173 172 197 190 288 219 C408 255 408 255 442 279 C483 309 507 362 507 422 C507 540 416 622 285 622 C213 622 156 601 112 558 C76 522 55 475 55 428 C55 367 91 324 142 324 C188 324 222 359 222 405 C222 443 197 472 165 472 C159 472 148 470 137 467 C151 517 180 539 231 539 C293 539 336 495 336 432 C336 381 315 347 261 315 C93 219 45 148 49 0 L115 0 Z " />
<glyph glyph-name="three" unicode="3" horiz-adv-x="563" d="M221 280 C271 278 288 275 305 263 C328 246 343 211 343 173 C343 102 299 58 228 58 C181 58 157 67 127 98 C177 106 198 127 198 170 C198 217 165 252 122 252 C70 252 35 210 35 148 C35 46 122 -18 263 -18 C419 -18 511 51 511 169 C511 215 495 253 464 280 C442 300 422 310 373 326 C464 352 498 389 498 462 C498 560 414 622 282 622 C151 622 54 553 54 460 C54 409 86 374 132 374 C175 374 207 406 207 448 C207 487 188 506 142 515 C170 540 199 551 236 551 C295 551 329 515 329 454 C329 419 317 391 296 377 C279 366 262 362 221 360 L221 280 Z " />
<glyph glyph-name="four" unicode="4" horiz-adv-x="563" d="M532 77 L477 77 C437 79 431 87 432 136 L432 177 L527 177 L527 264 L432 264 L432 607 L321 607 L31 260 L31 177 L299 177 L299 136 C297 86 291 79 251 77 L203 77 L203 -1 L532 -1 L532 77 Z M125 264 L301 465 L299 264 L125 264 Z " />
<glyph glyph-name="five" unicode="5" horiz-adv-x="563" d="M160 490 C208 483 236 480 258 480 C375 480 475 539 475 608 C475 616 473 619 469 619 C466 619 462 618 458 617 C399 597 376 594 303 594 C233 594 187 599 92 618 L71 302 L146 302 C175 341 200 355 237 355 C300 355 339 300 339 211 C339 118 295 58 227 58 C189 58 161 70 133 97 C184 108 205 130 205 171 C205 217 174 249 130 249 C79 249 43 207 43 149 C43 49 129 -18 256 -18 C410 -18 507 73 507 217 C507 349 419 434 283 434 C232 434 206 427 154 397 L160 490 Z " />
<glyph glyph-name="six" unicode="6" horiz-adv-x="563" d="M383 534 C358 515 349 499 349 474 C349 434 379 407 423 407 C470 407 501 439 501 488 C501 567 425 622 316 622 C152 622 49 494 49 289 C49 95 143 -19 303 -19 C435 -19 524 61 524 181 C524 298 447 378 336 378 C287 378 256 368 201 333 C202 414 209 452 226 488 C246 528 287 554 330 554 C353 554 365 549 383 534 L383 534 Z M290 294 C335 294 362 246 362 167 C362 96 338 57 295 57 C249 57 220 104 220 179 C220 249 248 294 290 294 L290 294 Z " />
<glyph glyph-name="seven" unicode="7" horiz-adv-x="563" d="M350 -2 C352 186 371 256 464 408 C529 512 536 530 536 590 L536 605 L477 605 C470 576 460 566 435 566 C423 566 410 569 400 573 C309 613 309 613 269 613 C211 613 181 592 148 532 L148 605 L67 605 L67 324 L148 324 C148 404 150 417 165 446 C177 468 198 480 226 480 C240 480 240 480 299 468 C318 464 337 462 352 462 C376 462 394 467 426 484 C394 439 393 439 335 371 C226 245 206 185 208 -2 L350 -2 Z " />
<glyph glyph-name="eight" unicode="8" horiz-adv-x="563" d="M139 295 C60 256 31 218 31 154 C31 48 124 -17 276 -17 C346 -17 414 1 452 30 C498 64 524 119 524 179 C524 227 509 268 480 297 C463 315 443 328 402 347 C472 382 499 416 499 471 C499 561 413 622 285 622 C144 622 54 551 54 439 C54 380 70 352 139 295 L139 295 Z M336 374 C253 408 248 411 234 418 C205 435 192 453 192 479 C192 519 228 546 282 546 C343 546 381 514 381 464 C381 426 369 403 336 374 L336 374 Z M207 257 C281 226 324 208 335 202 C366 187 381 168 381 143 C381 92 339 60 273 60 C197 60 150 99 150 163 C150 203 164 226 207 257 L207 257 Z " />
<glyph glyph-name="nine" unicode="9" horiz-adv-x="563" d="M180 69 C205 89 214 105 214 129 C214 169 184 197 140 197 C93 197 62 165 62 116 C62 36 138 -19 247 -19 C411 -19 514 109 514 314 C514 508 420 622 260 622 C128 622 39 542 39 422 C39 305 116 225 227 225 C276 225 307 235 362 270 C361 189 354 151 336 115 C317 75 276 49 233 49 C210 49 198 54 180 69 L180 69 Z M268 546 C314 546 343 499 343 424 C343 354 315 309 273 309 C229 309 198 361 198 434 C198 502 226 546 268 546 L268 546 Z " />
<glyph glyph-name="colon" unicode="&#x3a;" horiz-adv-x="313" d="M169 447 C130 447 98 412 98 370 C98 324 129 289 169 289 C208 289 240 324 240 368 C240 412 208 447 169 447 L169 447 Z M169 143 C130 143 98 108 98 66 C98 20 129 -15 169 -15 C208 -15 240 20 240 64 C240 108 209 143 169 143 L169 143 Z " />
<glyph glyph-name="semicolon" unicode="&#x3b;" horiz-adv-x="313" d="M176 447 C137 447 105 412 105 370 C105 324 136 289 176 289 C215 289 247 324 247 368 C247 412 215 447 176 447 L176 447 Z M101 -144 C153 -133 177 -121 204 -94 C236 -62 255 -14 255 35 C255 96 221 140 173 140 C131 140 97 103 97 57 C97 21 122 -10 151 -10 C159 -10 171 -7 185 -1 C175 -60 160 -76 101 -94 L101 -144 Z " />
<glyph glyph-name="less" unicode="&#x3c;" horiz-adv-x="450" d="M420 618 L30 393 L30 274 L420 49 L420 190 L165 333 L420 477 L420 618 Z " />
<glyph glyph-name="equal" unicode="&#x3d;" horiz-adv-x="535" d="M66 449 L66 352 L469 352 L469 449 L66 449 Z M66 282 L66 185 L469 185 L469 282 L66 282 Z " />
<glyph glyph-name="greater" unicode="&#x3e;" horiz-adv-x="450" d="M30 618 L30 477 L285 333 L30 190 L30 49 L420 274 L420 393 L30 618 Z " />
<glyph glyph-name="question" unicode="&#x3f;" horiz-adv-x="536" d="M252 140 C212 140 181 105 181 60 C181 18 213 -17 252 -17 C291 -17 323 18 323 61 C323 105 291 140 252 140 L252 140 Z M215 199 L291 199 C291 243 307 274 344 306 C411 358 411 358 423 370 C464 410 483 453 483 505 C483 611 395 687 273 687 C151 687 65 607 65 493 C65 421 103 373 159 373 C206 373 236 403 236 452 C236 492 211 521 176 521 C162 521 151 517 131 506 C135 536 141 555 151 568 C168 590 195 603 226 603 C280 603 321 560 321 505 C321 462 310 437 261 362 C225 309 215 278 215 227 L215 199 Z " />
<glyph glyph-name="at" unicode="&#x40;" horiz-adv-x="667" d="M433 493 L425 451 C408 484 375 504 335 504 C250 504 177 410 177 302 C177 211 232 143 305 143 C350 143 393 168 417 208 C425 174 453 151 487 151 C565 151 636 262 636 384 C636 555 514 681 350 681 C171 681 31 526 31 328 C31 233 66 139 126 76 C184 15 258 -15 351 -15 C420 -15 486 -3 540 18 L522 93 C471 72 415 61 355 61 C278 61 221 85 179 134 C136 185 112 254 112 327 C112 485 217 606 353 606 C476 606 562 515 562 383 C562 302 525 219 489 219 C476 219 468 233 468 254 C468 262 470 278 474 298 L508 493 L433 493 Z M350 415 C383 415 406 385 406 339 C406 279 371 227 330 227 C296 227 272 258 272 305 C272 363 308 415 350 415 L350 415 Z " />
<glyph glyph-name="A" unicode="A" horiz-adv-x="635" d="M644 82 L622 82 C579 81 572 88 551 149 L391 667 L238 667 L80 153 C66 101 51 85 12 82 L-18 82 L-18 0 L252 0 L252 82 L214 82 C180 82 169 88 169 108 C169 117 171 129 175 142 L198 214 L381 214 L403 145 C407 133 410 119 410 112 C410 88 399 82 356 82 L323 82 L323 0 L644 0 L644 82 Z M356 297 L223 297 L289 512 L356 297 Z " />
<glyph glyph-name="B" unicode="B" horiz-adv-x="657" d="M18 667 L18 585 L48 585 C92 586 98 578 98 524 L98 143 C98 89 92 81 48 82 L18 82 L18 0 L366 0 C464 0 514 10 554 39 C593 68 616 119 616 180 C616 231 601 272 572 303 C547 328 524 340 472 352 C514 368 531 378 551 398 C578 427 591 463 591 507 C591 558 572 604 539 629 C505 656 457 667 375 667 L18 667 Z M261 385 L261 585 L312 585 C358 585 380 579 396 562 C412 546 419 521 419 487 C419 412 389 385 307 385 L261 385 Z M261 81 L261 305 L315 305 C373 305 398 298 418 278 C436 260 445 233 445 195 C445 154 435 124 415 105 C396 87 371 81 316 81 L261 81 Z " />
<glyph glyph-name="C" unicode="C" horiz-adv-x="644" d="M517 258 C512 195 505 168 488 136 C464 94 422 69 374 69 C275 69 217 166 217 333 C217 502 275 599 376 599 C422 599 459 577 486 535 C508 502 516 472 523 404 L600 404 L600 675 L528 675 L511 621 C442 672 403 687 337 687 C161 687 31 536 31 334 C31 228 65 135 127 70 C185 10 256 -19 347 -19 C446 -19 509 11 555 80 C585 125 596 166 602 258 L517 258 Z " />
<glyph glyph-name="D" unicode="D" horiz-adv-x="719" d="M18 0 L336 0 C458 0 529 21 587 73 C652 130 684 218 684 334 C684 450 652 538 587 595 C529 647 458 667 336 667 L18 667 L18 586 L48 586 C93 587 99 579 99 524 L99 144 C99 89 93 81 48 82 L18 82 L18 0 Z M262 83 L262 585 L334 585 C396 585 442 563 464 521 C486 480 498 415 498 334 C498 253 486 187 464 147 C442 106 395 83 334 83 L262 83 Z " />
<glyph glyph-name="E" unicode="E" horiz-adv-x="670" d="M610 667 L18 667 L18 585 L49 585 C95 586 101 578 101 524 L101 143 C101 89 95 81 49 82 L18 82 L18 0 L609 0 L609 279 L535 279 C525 115 493 79 365 82 L264 82 L264 306 L295 306 C351 305 369 284 370 213 L370 182 L443 182 L443 500 L370 500 C367 405 358 390 295 389 L264 389 L264 585 L374 585 C498 588 526 558 537 408 L610 408 L610 667 Z " />
<glyph glyph-name="F" unicode="F" horiz-adv-x="617" d="M576 667 L18 667 L18 585 L49 585 C95 586 101 578 101 524 L101 143 C101 89 95 81 49 82 L18 82 L18 0 L352 0 L352 82 L315 82 C269 81 263 89 263 143 L263 306 L289 306 C334 306 347 285 349 213 L349 182 L421 182 L421 500 L349 500 C346 403 339 391 289 389 L264 389 L264 585 L340 585 C467 588 494 556 503 393 L576 393 L576 667 Z " />
<glyph glyph-name="G" unicode="G" horiz-adv-x="706" d="M686 273 L686 354 L373 354 L373 273 L417 273 C457 272 461 268 461 222 L461 168 C461 133 458 122 446 105 C429 83 400 69 367 69 C273 69 217 167 217 333 C217 502 274 599 373 599 C418 599 455 577 481 535 C503 501 511 472 518 404 L600 404 L600 675 L523 675 L505 621 C437 672 398 687 333 687 C159 687 31 536 31 332 C31 124 154 -20 332 -20 C401 -20 442 -4 509 47 L542 -7 L624 -7 L624 229 C625 264 631 273 659 273 L686 273 Z " />
<glyph glyph-name="H" unicode="H" horiz-adv-x="737" d="M340 667 L18 667 L18 585 L49 585 C95 586 101 578 101 524 L101 143 C101 88 95 81 49 82 L18 82 L18 0 L340 0 L340 82 L308 82 C269 81 264 89 264 143 L264 301 L474 301 L474 143 C474 89 469 81 429 82 L397 82 L397 0 L719 0 L719 82 L688 82 C643 81 637 88 637 143 L637 524 C637 579 643 586 688 585 L719 585 L719 667 L397 667 L397 585 L429 585 C469 586 474 578 474 524 L474 387 L264 387 L264 524 C264 578 269 586 308 585 L340 585 L340 667 Z " />
<glyph glyph-name="I" unicode="I" horiz-adv-x="371" d="M20 0 L351 0 L351 82 L318 82 C272 81 266 88 266 143 L266 524 C266 579 272 586 318 585 L351 585 L351 667 L20 667 L20 585 L51 585 C97 586 103 579 103 524 L103 143 C103 88 97 81 51 82 L20 82 L20 0 Z " />
<glyph glyph-name="J" unicode="J" horiz-adv-x="532" d="M183 585 L220 585 C266 586 272 578 272 524 L272 224 C272 145 268 120 253 99 C238 79 213 68 184 68 C149 68 133 76 110 106 C163 111 189 137 189 187 C189 236 156 271 110 271 C55 271 17 224 17 155 C17 53 106 -19 233 -19 C314 -19 376 9 407 61 C429 98 435 133 435 224 L435 524 C435 578 441 586 487 585 L514 585 L514 667 L183 667 L183 585 Z " />
<glyph glyph-name="K" unicode="K" horiz-adv-x="711" d="M335 667 L18 667 L18 585 L49 585 C95 586 101 578 101 524 L101 143 C101 88 95 81 49 82 L18 82 L18 0 L334 0 L334 82 L312 82 C267 81 261 88 261 143 L261 225 L350 319 L465 122 C470 112 473 105 473 100 C473 87 459 82 428 82 L395 82 L395 0 L724 0 L724 82 L691 82 C664 82 648 93 629 124 L452 418 L574 536 C612 572 639 585 669 585 L692 585 L692 667 L394 667 L394 585 L432 585 C455 585 463 581 463 569 C463 563 459 555 451 547 L261 351 L261 524 C261 578 267 586 312 585 L335 585 L335 667 Z " />
<glyph glyph-name="L" unicode="L" horiz-adv-x="617" d="M353 667 L18 667 L18 585 L49 585 C95 586 101 578 101 524 L101 143 C101 89 95 81 49 82 L18 82 L18 0 L583 0 L583 279 L509 279 C500 116 471 79 351 82 L264 82 L264 524 C264 578 270 586 316 585 L353 585 L353 667 Z " />
<glyph glyph-name="M" unicode="M" horiz-adv-x="876" d="M855 667 L563 667 L437 238 L314 667 L18 667 L18 585 L48 585 C96 586 102 579 102 524 L102 143 C102 88 96 81 48 82 L18 82 L18 0 L288 0 L288 82 L264 82 C217 81 211 88 211 143 L211 550 L364 0 L464 0 L619 550 L619 143 C619 88 613 81 567 82 L541 82 L541 0 L855 0 L855 82 L824 82 C778 81 772 89 772 143 L772 524 C772 579 778 586 824 585 L855 585 L855 667 Z " />
<glyph glyph-name="N" unicode="N" horiz-adv-x="733" d="M300 82 L262 82 C214 81 208 89 208 143 L208 522 L473 0 L635 0 L635 524 C635 578 641 586 688 585 L713 585 L713 667 L434 667 L434 585 L472 585 C520 586 526 578 526 524 L526 191 L283 667 L18 667 L18 585 L46 585 C93 586 99 578 99 524 L99 143 C99 89 93 81 46 82 L18 82 L18 0 L300 0 L300 82 Z " />
<glyph glyph-name="O" unicode="O" horiz-adv-x="728" d="M364 686 C165 686 31 544 31 334 C31 125 165 -19 359 -19 C564 -19 697 120 697 335 C697 545 563 686 364 686 L364 686 Z M366 599 C409 599 450 571 475 523 C500 477 511 418 511 333 C511 167 457 69 364 69 C272 69 217 167 217 332 C217 418 228 474 253 523 C279 573 318 599 366 599 L366 599 Z " />
<glyph glyph-name="P" unicode="P" horiz-adv-x="635" d="M18 585 L49 585 C95 586 101 578 101 524 L101 143 C101 89 95 81 49 82 L18 82 L18 0 L353 0 L353 82 L316 82 C270 81 264 89 264 143 L264 295 L368 295 C460 295 508 307 544 340 C580 373 600 422 600 480 C600 537 582 585 548 618 C512 653 461 667 368 667 L18 667 L18 585 Z M264 377 L264 585 L314 585 C364 585 387 579 405 561 C422 544 430 519 430 482 C430 405 398 377 310 377 L264 377 Z " />
<glyph glyph-name="Q" unicode="Q" horiz-adv-x="742" d="M700 152 C700 117 700 116 698 102 C695 78 685 66 669 66 C653 66 639 74 618 97 C674 178 693 237 693 333 C693 545 560 686 360 686 C161 686 27 544 27 334 C27 123 161 -19 360 -19 C420 -19 458 -10 517 18 C570 -42 596 -59 636 -59 C678 -59 713 -35 733 9 C751 46 755 75 755 152 L700 152 Z M453 103 C413 70 389 60 355 60 C307 60 274 89 274 131 C274 166 297 192 328 192 C366 192 397 170 453 103 L453 103 Z M504 213 C453 269 404 294 348 294 C314 294 283 281 261 256 C240 232 232 208 230 155 C215 227 212 258 212 320 C212 413 223 473 249 523 C274 572 314 599 360 599 C416 599 460 561 486 490 C501 448 508 391 508 311 C508 272 507 239 504 213 L504 213 Z " />
<glyph glyph-name="R" unicode="R" horiz-adv-x="702" d="M18 585 L49 585 C95 586 101 578 101 524 L101 143 C101 89 95 81 49 82 L18 82 L18 0 L353 0 L353 82 L316 82 C270 81 264 89 264 143 L264 310 L343 310 C399 313 427 281 429 211 L430 144 C431 74 438 47 460 22 C482 -4 520 -20 559 -20 C618 -20 662 10 681 63 C690 90 692 112 693 188 L629 188 C628 95 623 78 600 78 C582 78 577 91 575 142 L573 212 C568 297 548 323 470 344 C520 359 540 369 563 388 C595 415 613 455 613 504 C613 555 593 600 558 627 C522 655 470 667 389 667 L18 667 L18 585 Z M264 390 L264 585 L317 585 C386 585 398 583 417 564 C434 548 443 522 443 489 C443 454 433 425 416 410 C397 394 375 390 313 390 L264 390 Z " />
<glyph glyph-name="S" unicode="S" horiz-adv-x="590" d="M112 -5 L133 49 C201 -3 248 -20 326 -20 C474 -20 571 67 571 201 C571 265 545 321 500 352 C464 378 408 399 319 421 C215 448 190 466 190 517 C190 567 227 597 287 597 C335 597 381 578 411 546 C438 518 449 488 460 421 L536 421 L536 669 L470 669 L448 623 C382 671 340 686 271 686 C131 686 37 600 37 473 C37 411 62 356 103 326 C137 301 191 281 285 256 C389 229 415 210 415 157 C415 107 372 74 307 74 C259 74 214 92 180 126 C148 158 134 190 120 262 L42 262 L42 -5 L112 -5 Z " />
<glyph glyph-name="T" unicode="T" horiz-adv-x="612" d="M224 143 C224 89 218 81 172 82 L135 82 L135 0 L476 0 L476 82 L439 82 C393 81 387 89 387 143 L387 587 C482 588 515 541 516 402 L594 402 L594 667 L18 667 L18 402 L95 402 C96 541 129 588 224 587 L224 143 Z " />
<glyph glyph-name="U" unicode="U" horiz-adv-x="688" d="M668 667 L397 667 L397 585 L432 585 C476 586 482 578 482 524 L482 211 C482 158 476 130 459 112 C441 91 404 78 363 78 C331 78 307 87 289 104 C268 125 260 155 260 217 L260 524 C260 578 266 586 312 585 L349 585 L349 667 L18 667 L18 585 L45 585 C91 586 97 578 97 524 L97 206 C97 137 112 91 147 51 C191 2 252 -21 337 -21 C506 -21 592 58 592 213 L592 524 C592 579 598 586 641 585 L668 585 L668 667 Z " />
<glyph glyph-name="V" unicode="V" horiz-adv-x="635" d="M-13 585 L10 585 C48 584 64 569 82 519 L242 0 L386 0 L551 514 C568 569 581 583 619 585 L645 585 L645 667 L371 667 L371 587 L414 585 C454 583 458 581 458 561 C458 550 456 538 452 526 L339 169 L232 522 C227 538 225 551 225 560 C225 580 235 585 275 585 L315 585 L315 667 L-13 667 L-13 585 Z " />
<glyph glyph-name="W" unicode="W" horiz-adv-x="876" d="M318 585 C362 585 373 575 392 519 L402 486 L308 169 L220 523 C215 544 213 553 213 561 C213 581 221 585 259 585 L278 585 L278 667 L13 667 L13 585 C53 583 65 572 82 519 L213 0 L353 0 L444 316 L524 0 L663 0 L794 515 C808 568 822 584 856 585 L872 585 L872 667 L637 667 L637 587 L667 587 C697 587 708 580 708 562 C708 554 706 541 703 527 L619 169 L531 523 C524 549 524 551 524 557 C524 579 534 585 570 585 L598 585 L598 667 L318 667 L318 585 Z " />
<glyph glyph-name="X" unicode="X" horiz-adv-x="666" d="M8 585 L37 585 C65 584 76 577 96 550 L256 327 L109 145 C68 94 57 86 26 82 L-13 82 L-13 0 L283 0 L283 82 L258 82 C226 82 213 88 213 103 C213 112 218 124 230 139 L312 248 L391 133 C398 124 402 112 402 102 C402 90 387 82 364 82 L331 82 L331 0 L673 0 L673 82 L636 82 C609 83 597 90 577 117 L404 360 L556 547 C579 576 591 583 617 585 L651 585 L651 667 L374 667 L374 585 L394 585 C423 585 435 579 435 563 C435 555 431 548 417 530 L345 438 L281 534 C274 545 270 556 270 564 C270 577 284 585 309 585 L327 585 L327 667 L8 667 L8 585 Z " />
<glyph glyph-name="Y" unicode="Y" horiz-adv-x="630" d="M-13 585 L10 585 C42 587 71 564 100 514 L233 276 L233 143 C233 89 227 81 181 82 L139 82 L139 0 L491 0 L491 82 L449 82 C402 81 396 89 396 143 L396 276 L537 520 C568 571 586 586 621 585 L641 585 L641 667 L373 667 L373 587 L408 587 C436 587 450 579 450 563 C450 555 447 546 441 537 L342 389 L251 527 C243 540 238 551 238 559 C238 579 250 585 286 585 L315 585 L315 667 L-13 667 L-13 585 Z " />
<glyph glyph-name="Z" unicode="Z" horiz-adv-x="586" d="M18 0 L543 0 L543 286 L463 286 C455 124 426 85 306 81 L192 81 L543 575 L543 667 L37 667 L37 403 L111 403 C119 544 153 585 263 585 L371 585 L18 84 L18 0 Z " />
<glyph glyph-name="bracketleft" unicode="&#x5b;" horiz-adv-x="358" d="M341 -176 L341 -99 L250 -99 L250 590 L341 590 L341 667 L103 667 L103 -176 L341 -176 Z " />
<glyph glyph-name="backslash" unicode="&#x5c;" horiz-adv-x="345" d="M266 -92 L336 -92 L106 686 L36 686 L266 -92 Z " />
<glyph glyph-name="bracketright" unicode="&#x5d;" horiz-adv-x="357" d="M18 667 L18 590 L109 590 L109 -100 L18 -100 L18 -177 L256 -177 L256 667 L18 667 Z " />
<glyph glyph-name="asciicircum" unicode="&#x5e;" horiz-adv-x="450" d="M128 353 L225 575 L321 353 L434 353 L296 670 L154 670 L15 353 L128 353 Z " />
<glyph glyph-name="underscore" unicode="&#x5f;" horiz-adv-x="500" d="M0 -58 L0 -143 L500 -143 L500 -58 L0 -58 Z " />
<glyph glyph-name="grave" unicode="&#x60;" horiz-adv-x="476" d="M328 540 L193 683 C160 718 141 730 118 730 C87 730 64 707 64 677 C64 653 78 637 114 619 L273 540 L328 540 Z " />
<glyph glyph-name="a" unicode="a" horiz-adv-x="527" d="M515 173 L455 173 L455 120 C455 88 450 74 438 74 C427 74 421 89 421 120 L421 313 C421 393 415 415 384 442 C351 471 301 486 234 486 C113 486 37 436 37 358 C37 313 66 282 109 282 C146 282 176 310 176 345 C176 377 159 397 126 402 C147 423 165 430 196 430 C249 430 284 398 284 350 C284 302 260 281 187 264 C123 249 86 235 61 215 C34 193 18 157 18 116 C18 35 70 -18 151 -18 C207 -18 244 1 293 54 C316 1 344 -17 400 -17 C440 -17 470 -4 490 20 C509 45 515 70 515 127 L515 173 Z M280 169 C280 107 256 72 214 72 C189 72 172 94 172 127 C172 163 185 180 237 209 C244 213 261 224 280 237 L280 169 Z " />
<glyph glyph-name="b" unicode="b" horiz-adv-x="550" d="M4 593 L20 593 C57 588 62 581 62 534 L62 -4 L148 -4 L190 66 C231 4 268 -18 336 -18 C452 -18 516 71 516 235 C516 388 451 483 346 483 C286 483 250 458 205 385 L205 667 L4 667 L4 593 Z M283 393 C335 393 359 341 359 231 C359 119 335 66 284 66 C231 66 207 120 207 239 C207 343 232 393 283 393 L283 393 Z " />
<glyph glyph-name="c" unicode="c" horiz-adv-x="469" d="M347 179 C337 100 313 69 263 69 C207 69 179 126 179 242 C179 353 211 410 272 410 C297 410 312 403 338 379 C299 370 282 348 282 310 C282 267 312 236 353 236 C402 236 435 274 435 331 C435 421 359 487 256 487 C195 487 137 464 94 423 C46 376 22 313 22 230 C22 79 109 -18 244 -18 C314 -18 369 9 398 57 C418 89 425 117 426 179 L347 179 Z " />
<glyph glyph-name="d" unicode="d" horiz-adv-x="554" d="M335 394 C298 460 263 483 200 483 C88 483 22 392 22 235 C22 76 89 -17 203 -17 C238 -17 273 -7 299 12 C317 25 329 41 347 75 L347 0 L539 0 L539 70 L517 70 C482 73 478 80 478 130 L478 667 L249 667 L249 593 L268 593 C327 591 335 584 335 534 L335 394 Z M259 393 C283 393 302 382 317 358 C334 330 339 301 339 233 C339 121 312 67 258 67 C205 67 179 120 179 231 C179 342 204 393 259 393 L259 393 Z " />
<glyph glyph-name="e" unicode="e" horiz-adv-x="487" d="M362 161 C348 95 320 69 264 69 C228 69 203 82 187 109 C171 136 166 160 165 218 L459 218 C457 317 443 368 407 414 C369 462 312 488 245 488 C111 488 22 384 22 228 C22 79 110 -18 246 -18 C317 -18 375 8 412 55 C434 84 443 108 450 161 L362 161 Z M167 294 C168 337 172 356 183 375 C195 397 217 409 245 409 C272 409 294 397 307 375 C318 356 322 337 323 294 L167 294 Z " />
<glyph glyph-name="f" unicode="f" horiz-adv-x="335" d="M303 74 L273 74 C237 76 232 83 232 133 L232 389 L311 389 L311 469 L232 469 L232 528 C232 603 244 628 281 628 C292 628 300 625 315 616 C288 601 279 588 279 563 C279 529 304 504 336 504 C374 504 399 532 399 575 C399 640 342 685 257 685 C199 685 147 662 119 623 C97 594 89 562 89 507 L89 469 L22 469 L22 389 L89 389 L89 133 C88 83 83 76 46 74 L22 74 L22 0 L303 0 L303 74 Z " />
<glyph glyph-name="g" unicode="g" horiz-adv-x="572" d="M101 165 C46 138 27 113 27 68 C27 22 46 -4 97 -27 C39 -45 18 -67 18 -110 C18 -179 93 -214 242 -214 C418 -214 501 -163 501 -56 C501 30 446 74 338 74 C330 74 312 74 292 73 C263 72 237 72 227 72 C146 72 132 77 132 107 C132 119 135 126 145 139 C186 124 204 120 237 120 C359 120 438 188 438 293 C438 338 430 369 408 404 C432 429 448 439 463 439 C470 439 479 436 492 428 C468 416 457 398 457 373 C457 341 482 316 514 316 C551 316 575 345 575 389 C575 444 534 484 477 484 C443 484 422 474 383 440 C335 475 300 486 243 486 C122 486 44 415 44 306 C44 252 60 213 101 165 L101 165 Z M242 420 C279 420 292 388 292 299 C292 213 278 181 240 181 C206 181 190 219 190 296 C190 385 205 420 242 420 L242 420 Z M259 -46 C288 -46 327 -49 351 -52 C395 -58 409 -69 409 -97 C409 -135 361 -152 253 -152 C146 -152 105 -136 105 -95 C105 -72 118 -59 151 -53 C171 -49 221 -46 259 -46 L259 -46 Z " />
<glyph glyph-name="h" unicode="h" horiz-adv-x="590" d="M309 0 L572 0 L572 74 L553 74 C513 76 507 83 507 133 L507 311 C507 382 499 418 476 443 C453 469 415 484 373 484 C310 484 272 460 224 391 L224 667 L18 667 L18 593 L38 593 C75 591 80 584 81 534 L81 133 C80 83 75 76 38 74 L18 74 L18 0 L278 0 L278 74 L264 74 C229 76 224 83 224 133 L224 272 C224 348 258 401 308 401 C328 401 345 392 354 376 C362 361 364 347 364 309 L364 133 C364 83 359 76 323 74 L309 74 L309 0 Z " />
<glyph glyph-name="i" unicode="i" horiz-adv-x="317" d="M297 74 L272 74 C236 76 231 83 231 133 L231 469 L22 469 L22 395 L49 395 C89 393 95 386 96 336 L96 133 C95 83 89 76 49 74 L22 74 L22 0 L297 0 L297 74 Z M151 667 C109 667 74 633 74 591 C74 546 107 512 152 512 C195 512 229 546 229 590 C229 632 194 667 151 667 L151 667 Z " />
<glyph glyph-name="j" unicode="j" horiz-adv-x="310" d="M159 667 C117 667 82 633 82 591 C82 546 115 512 160 512 C203 512 237 546 237 590 C237 632 202 667 159 667 L159 667 Z M4 395 L37 395 C83 393 89 386 90 336 L90 -64 C90 -134 77 -157 39 -157 C30 -157 22 -155 7 -149 C36 -135 47 -121 47 -96 C47 -62 26 -38 -3 -38 C-36 -38 -59 -68 -59 -113 C-59 -176 -10 -214 73 -214 C158 -214 213 -176 228 -108 C233 -89 233 -83 233 -12 L233 469 L4 469 L4 395 Z " />
<glyph glyph-name="k" unicode="k" horiz-adv-x="585" d="M13 593 L40 593 C80 591 86 584 87 534 L87 133 C86 83 80 76 40 74 L13 74 L13 0 L269 0 L269 74 L259 74 C225 78 222 82 222 143 L292 215 L355 115 C362 104 365 95 365 89 C365 79 355 74 340 74 L312 74 L312 0 L572 0 L572 74 L557 74 C530 73 504 93 484 128 L384 295 L444 352 C475 383 490 391 521 395 L543 395 L543 469 L280 469 L280 395 L335 395 C351 395 357 393 357 385 C357 379 352 372 342 362 L222 243 L222 667 L13 667 L13 593 Z " />
<glyph glyph-name="l" unicode="l" horiz-adv-x="304" d="M222 667 L13 667 L13 593 L40 593 C80 591 86 584 87 534 L87 133 C86 83 80 76 40 74 L13 74 L13 0 L288 0 L288 74 L264 74 C227 76 222 83 222 133 L222 667 Z " />
<glyph glyph-name="m" unicode="m" horiz-adv-x="840" d="M18 0 L274 0 L274 74 L266 74 C232 76 227 84 227 133 L227 272 C227 347 261 401 309 401 C324 401 337 391 343 376 C349 361 351 347 351 309 L351 133 C351 83 347 76 321 74 L306 74 L306 0 L539 0 L539 74 L529 74 C498 77 494 85 494 133 L494 272 C494 348 528 401 576 401 C591 401 603 391 610 376 C615 361 617 347 617 309 L617 133 C617 83 614 76 588 74 L573 74 L573 0 L823 0 L823 74 L802 74 C765 76 760 83 760 133 L760 311 C760 382 752 417 732 443 C712 469 676 484 637 484 C581 484 546 461 489 390 C465 460 435 484 375 484 C311 484 273 461 218 391 L218 469 L18 469 L18 395 L41 395 C78 393 83 386 84 336 L84 133 C83 83 78 76 41 74 L18 74 L18 0 Z " />
<glyph glyph-name="n" unicode="n" horiz-adv-x="590" d="M313 0 L573 0 L573 74 L556 74 C516 76 510 83 510 133 L510 311 C510 382 501 418 478 443 C455 469 415 484 372 484 C311 484 276 462 218 385 L218 469 L18 469 L18 395 L41 395 C78 393 83 386 84 336 L84 133 C83 83 78 76 41 74 L18 74 L18 0 L281 0 L281 74 L267 74 C232 76 227 83 227 133 L227 272 C227 349 261 401 312 401 C332 401 348 392 357 376 C365 361 367 347 367 309 L367 133 C367 83 362 76 327 74 L313 74 L313 0 Z " />
<glyph glyph-name="o" unicode="o" horiz-adv-x="532" d="M266 486 C121 486 24 386 24 238 C24 82 118 -17 267 -17 C412 -17 507 83 507 234 C507 387 412 486 266 486 L266 486 Z M266 409 C322 409 350 351 350 234 C350 117 322 60 266 60 C208 60 181 117 181 237 C181 351 209 409 266 409 L266 409 Z " />
<glyph glyph-name="p" unicode="p" horiz-adv-x="563" d="M207 469 L13 469 L13 395 L31 395 C68 393 73 386 73 336 L73 -81 C73 -131 68 -138 31 -140 L13 -140 L13 -214 L290 -214 L290 -140 L271 -140 C223 -138 216 -131 216 -81 L216 78 C247 9 283 -17 349 -17 C459 -17 523 75 523 231 C523 388 458 484 352 484 C288 484 251 458 207 385 L207 469 Z M291 400 C341 400 366 346 366 235 C366 125 342 73 290 73 C266 73 248 84 234 108 C218 137 213 166 213 233 C213 346 238 400 291 400 L291 400 Z " />
<glyph glyph-name="q" unicode="q" horiz-adv-x="554" d="M264 -214 L543 -214 L543 -140 L523 -140 C486 -137 481 -130 480 -80 L480 336 C481 386 486 393 523 395 L543 395 L543 469 L347 469 L347 391 C302 462 266 487 205 487 C98 487 31 389 31 231 C31 75 95 -17 205 -17 C271 -17 307 9 338 78 L338 -80 C338 -130 331 -137 283 -140 L264 -140 L264 -214 Z M264 400 C288 400 305 388 320 361 C335 333 341 296 341 228 C341 123 316 73 264 73 C212 73 188 125 188 235 C188 347 212 400 264 400 L264 400 Z " />
<glyph glyph-name="r" unicode="r" horiz-adv-x="438" d="M214 469 L18 469 L18 395 L38 395 C75 393 80 386 81 336 L81 133 C80 83 75 76 38 74 L18 74 L18 0 L303 0 L303 74 L266 74 C229 76 224 84 224 133 L224 253 C224 321 230 353 248 383 C263 408 285 423 308 423 C316 423 322 421 333 414 C301 401 288 382 288 349 C288 312 314 285 350 285 C395 285 426 322 426 376 C426 440 386 482 325 482 C277 482 247 462 214 408 L214 469 Z " />
<glyph glyph-name="s" unicode="s" horiz-adv-x="487" d="M119 30 C176 -5 219 -18 274 -18 C378 -18 451 47 451 139 C451 190 429 234 391 258 C367 272 331 287 280 302 C199 325 187 334 187 365 C187 394 208 412 242 412 C264 412 288 404 307 391 C329 376 344 357 368 314 L428 314 L428 474 L368 474 L354 445 C304 476 269 487 217 487 C113 487 39 423 39 333 C39 290 56 255 88 230 C112 211 149 193 183 182 C269 157 271 156 286 145 C299 135 304 126 304 112 C304 81 279 61 238 61 C208 61 185 69 163 87 C137 108 126 127 111 176 L41 176 L41 -7 L103 -7 L119 30 Z " />
<glyph glyph-name="t" unicode="t" horiz-adv-x="389" d="M268 224 L268 180 C268 99 261 76 237 76 C216 76 210 92 210 144 L210 391 L312 391 L312 469 L203 469 L203 652 L131 652 C118 528 93 488 13 463 L13 391 L68 391 L68 170 C68 93 72 72 89 41 C112 3 152 -17 204 -17 C258 -17 294 1 317 38 C335 67 340 93 340 154 L340 224 L268 224 Z " />
<glyph glyph-name="u" unicode="u" horiz-adv-x="590" d="M18 395 L36 395 C86 393 93 386 93 336 L93 156 C93 84 101 49 124 24 C146 -2 185 -17 227 -17 C288 -17 327 7 378 76 L378 0 L573 0 L573 74 L549 74 C515 76 510 83 510 133 L510 469 L288 469 L288 395 L316 395 C361 393 367 385 367 336 L367 194 C367 118 335 66 287 66 C269 66 253 75 246 91 C238 106 236 120 236 157 L236 469 L18 469 L18 395 Z " />
<glyph glyph-name="v" unicode="v" horiz-adv-x="505" d="M274 108 L208 343 C205 352 203 364 203 370 C203 389 212 395 240 396 C243 396 249 396 255 395 L255 469 L4 469 L4 395 C53 393 64 383 81 329 L180 0 L319 0 L425 328 C444 390 450 395 493 395 L500 395 L500 469 L295 469 L295 395 L315 395 C340 395 353 388 353 376 C353 368 351 359 344 338 L274 108 Z " />
<glyph glyph-name="w" unicode="w" horiz-adv-x="751" d="M265 469 L4 469 L4 395 C58 393 71 382 90 329 L185 0 L309 0 L385 245 L449 0 L579 0 L674 328 C692 388 699 395 745 395 L745 469 L556 469 L556 395 L567 395 C591 395 604 388 604 376 C604 368 602 361 596 338 L533 112 L472 343 C469 353 467 364 467 370 C467 388 476 394 501 396 C504 396 508 396 513 395 L513 469 L293 469 L293 395 L307 395 C332 395 343 388 343 371 C343 365 343 365 336 338 L276 113 L225 343 C220 367 220 367 220 370 C220 389 229 395 256 395 L265 395 L265 469 Z " />
<glyph glyph-name="x" unicode="x" horiz-adv-x="577" d="M17 395 C61 393 79 383 115 341 L205 231 L100 123 C59 80 47 74 0 74 L0 0 L229 0 L229 74 L211 74 C193 74 185 77 185 86 C185 93 191 104 200 113 L256 172 L297 116 C302 110 307 94 307 86 C307 77 301 74 286 74 L273 74 L273 0 L553 0 L553 74 C502 76 490 82 450 128 L340 250 L445 345 C484 381 513 395 549 395 L558 395 L558 469 L313 469 L313 395 L322 396 C338 397 350 391 350 381 C350 376 348 372 337 359 L294 303 L260 352 C246 372 245 375 245 382 C245 390 256 396 271 396 C276 396 278 396 284 395 L284 469 L17 469 L17 395 Z " />
<glyph glyph-name="y" unicode="y" horiz-adv-x="509" d="M429 326 C450 386 461 395 508 396 L508 469 L306 469 L306 396 L324 396 C349 396 361 389 361 375 C361 366 358 352 353 338 L285 152 L211 343 C207 353 205 364 205 372 C205 389 215 396 243 396 L262 396 L262 469 L1 469 L1 396 C52 395 61 387 85 327 L218 -16 C198 -80 185 -106 162 -130 C147 -144 127 -154 110 -154 C94 -154 83 -148 66 -130 C92 -129 106 -125 117 -116 C131 -105 139 -85 139 -64 C139 -24 112 3 71 3 C26 3 -4 -34 -4 -90 C-4 -164 48 -216 120 -216 C195 -216 249 -161 294 -38 L429 326 Z " />
<glyph glyph-name="z" unicode="z" horiz-adv-x="478" d="M27 0 L427 0 L427 218 L356 218 C355 96 341 76 253 74 L177 74 L427 389 L427 469 L46 469 L46 267 L114 267 C115 382 127 398 216 395 L278 395 L27 83 L27 0 Z " />
<glyph glyph-name="braceleft" unicode="&#x7b;" horiz-adv-x="357" d="M254 510 C252 590 260 597 342 596 L342 668 C299 670 290 670 281 670 C214 670 180 662 155 639 C131 617 120 582 120 528 L120 361 C120 305 109 283 77 274 L77 205 C110 194 120 173 120 115 L120 -46 C120 -156 159 -191 278 -191 C295 -191 310 -191 342 -189 L342 -117 C259 -117 253 -112 254 -30 L254 115 C253 182 238 213 194 239 C239 267 252 293 254 363 L254 510 Z " />
<glyph glyph-name="bar" unicode="&#x7c;" horiz-adv-x="464" d="M161 667 L161 -167 L303 -167 L303 667 L161 667 Z " />
<glyph glyph-name="braceright" unicode="&#x7d;" horiz-adv-x="357" d="M104 -31 C106 -101 97 -114 50 -117 L31 -117 L16 -117 L16 -189 C58 -191 66 -191 77 -191 C144 -191 178 -183 203 -160 C227 -138 238 -103 238 -49 L238 118 C238 174 249 196 281 205 L281 274 C249 284 238 306 238 364 L238 525 C238 635 199 670 80 670 C64 670 55 670 16 668 L16 596 C99 597 105 590 104 509 L104 363 C105 297 120 266 164 239 C119 212 106 186 104 116 L104 -31 Z " />
<glyph glyph-name="asciitilde" unicode="&#x7e;" horiz-adv-x="648" d="M154 556 C179 602 198 619 226 619 C241 619 259 614 283 604 C390 558 394 557 419 557 C458 557 494 576 522 611 C538 631 549 652 567 692 L497 749 C472 704 452 686 424 686 C405 686 396 689 341 714 C284 739 257 747 230 747 C168 747 122 705 84 613 L154 556 Z " />
<glyph glyph-name="uni00A0" unicode="&#xa0;" horiz-adv-x="250" d="" />
<glyph glyph-name="exclamdown" unicode="&#xa1;" horiz-adv-x="282" d="M142 483 C103 483 71 448 71 405 C71 362 102 326 140 326 C181 326 213 360 213 405 C213 448 181 483 142 483 L142 483 Z M108 267 C102 174 97 131 79 -9 C69 -81 67 -102 67 -127 C67 -187 94 -220 143 -220 C191 -220 218 -186 218 -127 C218 -101 216 -81 206 -9 C188 125 183 174 177 267 L108 267 Z " />
<glyph glyph-name="cent" unicode="&#xa2;" horiz-adv-x="563" d="M122 -101 L180 -101 L231 9 C262 2 277 0 297 0 C405 0 476 71 476 181 L476 197 L397 197 C390 148 382 126 362 107 C348 94 329 86 310 86 C299 86 290 88 272 95 L356 274 C374 258 383 254 403 254 C452 254 485 292 485 348 C485 388 475 412 441 455 L496 570 L438 570 L398 485 C361 502 343 506 309 506 C166 506 72 403 72 247 C72 142 109 69 183 28 L122 -101 Z M236 139 C227 187 225 212 225 254 C225 368 259 428 322 428 C347 428 362 421 388 397 C361 390 358 387 342 365 L236 139 Z " />
<glyph glyph-name="sterling" unicode="&#xa3;" horiz-adv-x="563" d="M64 -16 C124 29 155 44 189 44 C212 44 229 39 303 7 C339 -8 373 -17 397 -17 C442 -17 485 16 507 66 C520 97 523 125 523 202 L465 202 C461 133 450 111 420 111 C407 111 389 115 372 123 C306 153 299 155 273 155 C249 155 228 149 179 128 C236 175 254 206 256 268 L361 268 L361 336 L251 336 C240 439 240 439 240 460 C240 518 275 555 329 555 C359 555 378 546 408 517 C376 498 364 481 364 453 C364 414 397 382 437 382 C482 382 513 417 513 468 C513 559 423 623 296 623 C215 623 154 598 114 549 C90 519 77 483 77 446 C77 414 84 388 107 336 L40 336 L40 268 L126 268 L127 232 C127 167 103 128 31 75 L64 -16 Z " />
<glyph glyph-name="currency" unicode="&#xa4;" horiz-adv-x="600" d="M18 137 L81 67 L173 169 C219 137 255 125 299 125 C345 125 385 139 427 170 L519 67 L582 138 L489 241 C518 289 529 328 529 377 C529 427 518 465 488 517 L579 619 L516 689 L424 587 C383 616 346 629 300 629 C254 629 216 616 174 586 L81 690 L17 619 L111 515 C83 469 71 428 71 378 C71 329 84 282 110 240 L18 137 Z M301 512 C361 512 410 451 410 377 C410 303 361 242 300 242 C240 242 190 303 190 377 C190 453 239 512 301 512 L301 512 Z " />
<glyph glyph-name="yen" unicode="&#xa5;" horiz-adv-x="631" d="M463 379 L518 472 C546 518 562 531 594 531 L612 531 L612 605 L369 605 L369 533 L401 533 C427 533 439 526 439 511 C439 503 436 495 431 487 L341 353 L258 478 C251 489 247 500 247 507 C247 525 258 531 291 531 L317 531 L317 605 L19 605 L19 531 L39 531 C69 532 94 512 121 466 L172 379 L86 379 L86 311 L209 311 L240 255 L95 255 L95 187 L242 187 L242 130 C242 80 237 73 195 74 L157 74 L157 0 L476 0 L476 74 L438 74 C395 73 390 80 390 130 L390 187 L537 187 L537 255 L393 255 L424 311 L546 311 L546 379 L463 379 Z " />
<glyph glyph-name="brokenbar" unicode="&#xa6;" horiz-adv-x="464" d="M161 667 L161 317 L303 317 L303 667 L161 667 Z M161 153 L161 -167 L303 -167 L303 153 L161 153 Z " />
<glyph glyph-name="section" unicode="&#xa7;" horiz-adv-x="536" d="M152 395 C75 349 49 311 49 243 C49 156 95 111 238 56 C335 19 360 -4 360 -54 C360 -111 314 -150 248 -150 C217 -150 196 -143 168 -123 C194 -104 203 -88 203 -62 C203 -23 180 2 145 2 C103 2 75 -31 75 -80 C75 -156 153 -211 261 -211 C387 -211 467 -141 467 -29 C467 32 449 64 389 109 C464 152 492 191 492 256 C492 308 468 355 426 384 C387 411 370 419 251 469 C203 489 185 509 185 545 C185 594 223 626 282 626 C311 626 325 622 355 605 C335 586 328 573 328 554 C328 519 352 494 387 494 C425 494 452 524 452 566 C452 637 379 688 276 688 C162 688 81 619 81 522 C81 469 101 433 152 395 L152 395 Z M208 352 C228 352 258 341 324 310 C380 283 398 263 398 226 C398 184 362 145 327 148 C312 149 244 177 195 201 C155 220 137 244 137 278 C137 321 167 352 208 352 L208 352 Z " />
<glyph glyph-name="dieresis" unicode="&#xa8;" horiz-adv-x="464" d="M148 699 C110 699 77 667 77 630 C77 591 108 560 148 560 C186 560 216 590 216 629 C216 668 185 699 148 699 L148 699 Z M318 699 C280 699 247 667 247 630 C247 591 278 560 318 560 C356 560 386 590 386 629 C386 668 355 699 318 699 L318 699 Z " />
<glyph glyph-name="copyright" unicode="&#xa9;" horiz-adv-x="717" d="M458 294 C455 257 452 242 442 224 C429 201 406 188 380 188 C325 188 294 241 294 334 C294 426 325 479 381 479 C428 479 454 444 462 370 L511 370 L511 528 L465 528 L456 499 C417 527 396 535 358 535 C257 535 181 449 181 334 C181 214 255 132 364 132 C421 132 458 149 485 189 C503 215 509 239 513 294 L458 294 Z M364 685 C177 685 31 530 31 333 C31 140 178 -18 359 -18 C540 -18 686 139 686 333 C686 525 540 685 364 685 L364 685 Z M363 622 C500 622 614 491 614 333 C614 174 500 45 359 45 C218 45 103 175 103 333 C103 495 217 622 363 622 L363 622 Z " />
<glyph glyph-name="ordfeminine" unicode="&#xaa;" horiz-adv-x="343" d="M335 437 L290 437 L290 403 C290 385 287 378 279 378 C272 378 269 386 269 403 L269 516 C269 565 265 579 245 595 C223 613 192 622 149 622 C73 622 24 591 24 543 C24 515 44 495 73 495 C99 495 120 513 120 535 C120 554 110 567 92 571 C102 579 113 582 131 582 C164 582 185 565 185 538 C185 512 170 500 124 491 C40 473 11 450 11 400 C11 350 46 318 100 318 C136 318 160 329 192 358 C207 329 225 318 260 318 C312 318 335 345 335 407 L335 437 Z M182 431 C182 397 167 378 141 378 C126 378 116 390 116 407 C116 427 124 435 157 452 C161 454 171 460 182 466 L182 431 Z " />
<glyph glyph-name="guillemotleft" unicode="&#xab;" horiz-adv-x="433" d="M137 403 L99 346 C68 299 49 257 49 237 C49 218 68 176 99 129 L137 72 L207 72 L181 139 C173 161 166 206 166 236 C166 268 174 312 184 336 L212 403 L137 403 Z M311 403 L274 346 C242 298 223 257 223 237 C223 218 242 177 274 129 L311 72 L381 72 L356 139 C347 161 340 205 340 236 C340 268 348 311 358 336 L386 403 L311 403 Z " />
<glyph glyph-name="logicalnot" unicode="&#xac;" horiz-adv-x="450" d="M282 0 L420 0 L420 289 L30 289 L30 165 L282 165 L282 0 Z " />
<glyph glyph-name="uni00AD" unicode="&#xad;" horiz-adv-x="247" d="M0 172 L247 172 L247 299 L0 299 L0 172 Z " />
<glyph glyph-name="registered" unicode="&#xae;" horiz-adv-x="717" d="M178 471 L198 471 C223 471 225 468 225 440 L225 226 C225 198 223 195 198 195 L178 195 L178 143 L375 143 L375 195 L352 195 C327 195 325 198 325 226 L325 316 L367 316 C397 317 411 301 412 265 L413 227 C414 186 418 171 431 156 C444 141 466 132 490 132 C517 132 542 145 554 164 C565 183 569 203 569 245 L569 255 L526 255 C526 203 524 193 513 193 C504 193 502 199 502 226 L500 265 C498 310 486 327 450 339 C501 355 523 383 523 428 C523 492 481 523 392 523 L178 523 L178 471 Z M325 368 L325 471 L352 471 C390 471 396 469 407 459 C416 451 420 438 420 420 C420 379 405 368 350 368 L325 368 Z M364 685 C177 685 31 530 31 333 C31 140 178 -18 359 -18 C540 -18 686 139 686 333 C686 525 540 685 364 685 L364 685 Z M363 622 C500 622 614 491 614 333 C614 174 500 45 359 45 C218 45 103 175 103 333 C103 495 217 622 363 622 L363 622 Z " />
<glyph glyph-name="macron" unicode="&#xaf;" horiz-adv-x="480" d="M91 588 L389 588 L389 670 L91 670 L91 588 Z " />
<glyph glyph-name="degree" unicode="&#xb0;" horiz-adv-x="400" d="M203 686 C117 686 50 619 50 534 C50 448 116 381 200 381 C284 381 350 448 350 533 C350 619 286 686 203 686 L203 686 Z M202 629 C252 629 293 586 293 534 C293 480 252 438 200 438 C148 438 106 481 106 533 C106 587 148 629 202 629 L202 629 Z " />
<glyph glyph-name="plusminus" unicode="&#xb1;" horiz-adv-x="549" d="M11 55 L11 0 L535 0 L535 55 L11 55 Z M302 662 L247 662 L247 423 L10 423 L10 368 L247 368 L247 129 L302 129 L302 368 L539 368 L539 423 L302 423 L302 662 Z " />
<glyph glyph-name="twosuperior" unicode="&#xb2;" horiz-adv-x="353" d="M71 266 C77 288 84 296 100 296 C109 296 121 292 139 285 C194 260 209 256 237 256 C297 256 326 292 326 366 L326 386 L286 386 C284 346 274 332 246 332 C235 332 221 335 195 341 C173 346 157 349 147 349 C130 349 116 345 89 332 C107 363 122 373 180 389 C255 410 255 410 277 423 C303 439 318 469 318 503 C318 569 260 615 178 615 C96 615 33 568 33 507 C33 473 56 449 88 449 C117 449 138 468 138 494 C138 515 122 531 102 531 C98 531 91 530 84 528 C93 556 112 569 144 569 C183 569 210 545 210 509 C210 480 197 462 163 443 C57 390 27 350 29 266 L71 266 Z " />
<glyph glyph-name="threesuperior" unicode="&#xb3;" horiz-adv-x="353" d="M139 424 C171 422 181 421 192 414 C207 405 216 385 216 364 C216 324 188 300 143 300 C114 300 99 305 80 321 C111 326 125 338 125 362 C125 388 104 408 77 408 C44 408 22 384 22 350 C22 293 77 257 165 257 C264 257 322 296 322 361 C322 407 298 431 235 450 C292 464 313 484 313 525 C313 580 260 615 177 615 C95 615 34 576 34 524 C34 496 54 476 83 476 C110 476 130 494 130 518 C130 539 118 550 89 555 C107 569 125 575 149 575 C185 575 207 555 207 521 C207 484 189 470 139 469 L139 424 Z " />
<glyph glyph-name="acute" unicode="&#xb4;" horiz-adv-x="476" d="M137 540 L192 540 L350 619 C387 637 401 653 401 677 C401 707 378 730 348 730 C324 730 305 718 272 683 L137 540 Z " />
<glyph glyph-name="mu" unicode="&#xb5;" horiz-adv-x="576" d="M442 500 L353 500 L354 131 C318 80 284 58 242 58 C184 58 150 99 150 169 L150 500 L62 500 L62 20 C62 -1 58 -26 51 -56 C34 -118 33 -123 33 -147 C33 -190 54 -219 83 -219 C112 -219 132 -189 132 -145 C132 -124 129 -110 113 -53 C102 -17 101 -8 101 21 L101 33 C143 -3 165 -13 200 -13 C250 -13 301 18 354 80 C362 48 367 36 377 21 C392 0 419 -13 449 -13 C510 -13 553 31 567 108 L540 109 C536 71 515 41 492 41 C462 41 442 77 442 131 L442 500 Z " />
<glyph glyph-name="paragraph" unicode="&#xb6;" horiz-adv-x="591" d="M194 -93 L299 -93 L299 572 L362 572 L362 -93 L467 -93 L467 572 L525 572 L525 667 L233 667 C177 667 128 657 99 639 C51 611 24 557 24 490 C24 389 89 320 183 320 C185 320 189 320 194 321 L194 -93 Z " />
<glyph glyph-name="periodcentered" unicode="&#xb7;" horiz-adv-x="282" d="M143 313 C104 313 72 278 72 236 C72 191 103 156 143 156 C182 156 214 191 214 234 C214 278 182 313 143 313 L143 313 Z " />
<glyph glyph-name="cedilla" unicode="&#xb8;" horiz-adv-x="450" d="M98 -181 C170 -217 200 -227 243 -227 C303 -227 341 -191 341 -136 C341 -88 310 -53 269 -53 C258 -53 247 -54 233 -56 L233 0 L191 0 L191 -99 C200 -97 210 -95 216 -95 C238 -95 251 -110 251 -134 C251 -157 238 -171 215 -171 C188 -171 156 -158 118 -132 L98 -181 Z " />
<glyph glyph-name="onesuperior" unicode="&#xb9;" horiz-adv-x="353" d="M148 515 L148 343 C147 315 144 311 121 310 L99 310 L99 267 L292 267 L292 310 L266 310 C247 311 244 315 244 343 L244 607 L177 607 C163 576 136 563 76 557 L76 515 L148 515 Z " />
<glyph glyph-name="ordmasculine" unicode="&#xba;" horiz-adv-x="346" d="M176 621 C78 621 16 562 16 469 C16 378 79 318 174 318 C269 318 331 378 331 469 C331 560 268 621 176 621 L176 621 Z M172 569 C206 569 224 534 224 468 C224 401 207 370 172 370 C136 370 120 401 120 469 C120 534 138 569 172 569 L172 569 Z " />
<glyph glyph-name="guillemotright" unicode="&#xbb;" horiz-adv-x="433" d="M124 72 L162 129 C193 176 212 218 212 238 C212 257 193 299 162 346 L124 403 L54 403 L80 336 C88 314 95 269 95 239 C95 207 87 163 77 139 L49 72 L124 72 Z M298 72 L336 129 C367 176 386 218 386 238 C386 257 367 299 336 346 L298 403 L228 403 L254 336 C262 315 269 270 269 239 C269 207 261 162 251 139 L223 72 L298 72 Z " />
<glyph glyph-name="onequarter" unicode="&#xbc;" horiz-adv-x="854" d="M148 515 L148 343 C147 315 143 311 116 310 L89 310 L89 267 L301 267 L301 310 L270 310 C247 311 244 315 244 343 L244 607 L177 607 C163 576 136 563 76 557 L76 515 L148 515 Z M217 -17 L290 -17 L656 622 L581 622 L217 -17 Z M834 43 L800 43 C775 44 772 48 772 76 L772 99 L831 99 L831 148 L772 148 L772 340 L703 340 L524 146 L524 99 L689 99 L689 76 C688 48 684 44 659 43 L630 43 L630 0 L834 0 L834 43 Z M582 148 L690 261 L689 148 L582 148 Z " />
<glyph glyph-name="onehalf" unicode="&#xbd;" horiz-adv-x="854" d="M148 515 L148 343 C147 315 143 311 116 310 L89 310 L89 267 L301 267 L301 310 L270 310 C247 311 244 315 244 343 L244 607 L177 607 C163 576 136 563 76 557 L76 515 L148 515 Z M217 -17 L290 -17 L656 622 L581 622 L217 -17 Z M574 0 C580 22 587 29 602 29 C611 29 623 25 640 18 C696 -6 709 -10 736 -10 C781 -10 813 15 820 56 C824 74 824 74 824 119 L785 119 C783 79 773 65 746 65 C735 65 721 68 696 74 C674 79 659 82 649 82 C632 82 618 78 591 65 C610 97 624 106 681 122 C755 143 755 143 776 156 C801 172 816 202 816 236 C816 302 760 348 679 348 C598 348 537 301 537 240 C537 206 559 182 591 182 C619 182 640 201 640 227 C640 248 625 264 605 264 C601 264 594 263 587 261 C596 289 613 302 644 302 C682 302 708 278 708 242 C708 213 695 195 662 176 C560 123 530 83 533 0 L574 0 Z " />
<glyph glyph-name="threequarters" unicode="&#xbe;" horiz-adv-x="854" d="M139 424 C171 422 181 421 192 414 C207 405 216 385 216 364 C216 324 188 300 143 300 C114 300 99 305 80 321 C111 326 125 338 125 362 C125 388 104 408 77 408 C44 408 22 384 22 350 C22 293 77 257 165 257 C264 257 322 296 322 361 C322 407 298 431 235 450 C292 464 313 484 313 525 C313 580 260 615 177 615 C95 615 34 576 34 524 C34 496 54 476 83 476 C110 476 130 494 130 518 C130 539 118 550 89 555 C107 569 125 575 149 575 C185 575 207 555 207 521 C207 484 189 470 139 469 L139 424 Z M205 -17 L280 -17 L652 622 L576 622 L205 -17 Z M834 43 L799 43 C773 44 769 49 770 76 L770 99 L830 99 L830 148 L770 148 L770 340 L700 340 L518 146 L518 99 L686 99 L686 76 C685 48 681 44 656 43 L626 43 L626 0 L834 0 L834 43 Z M577 148 L687 261 L686 148 L577 148 Z " />
<glyph glyph-name="questiondown" unicode="&#xbf;" horiz-adv-x="505" d="M276 483 C237 483 205 448 205 405 C205 362 236 326 274 326 C315 326 347 360 347 405 C347 448 315 483 276 483 L276 483 Z M237 267 C237 223 222 192 184 160 C118 109 118 109 105 97 C64 56 45 13 45 -38 C45 -144 133 -220 255 -220 C377 -220 463 -140 463 -26 C463 45 425 93 369 93 C322 93 292 63 292 14 C292 -26 317 -55 352 -55 C367 -55 377 -51 397 -39 C393 -69 387 -88 377 -101 C361 -122 333 -135 303 -135 C248 -135 207 -93 207 -37 C207 5 218 30 268 105 C303 158 314 189 314 240 C314 245 314 255 313 267 L237 267 Z " />
<glyph glyph-name="Agrave" unicode="&#xc0;" horiz-adv-x="635" d="M644 82 L622 82 C579 81 572 88 551 149 L391 667 L238 667 L80 153 C66 101 51 85 12 82 L-18 82 L-18 0 L252 0 L252 82 L214 82 C180 82 169 88 169 108 C169 117 171 129 175 142 L198 214 L381 214 L403 145 C407 133 410 119 410 112 C410 88 399 82 356 82 L323 82 L323 0 L644 0 L644 82 Z M356 297 L223 297 L289 512 L356 297 Z M351 721 L405 721 L268 842 C246 861 233 868 216 868 C191 868 170 847 170 822 C170 801 186 782 213 772 L351 721 Z " />
<glyph glyph-name="Aacute" unicode="&#xc1;" horiz-adv-x="635" d="M644 82 L622 82 C579 81 572 88 551 149 L391 667 L238 667 L80 153 C66 101 51 85 12 82 L-18 82 L-18 0 L252 0 L252 82 L214 82 C180 82 169 88 169 108 C169 117 171 129 175 142 L198 214 L381 214 L403 145 C407 133 410 119 410 112 C410 88 399 82 356 82 L323 82 L323 0 L644 0 L644 82 Z M356 297 L223 297 L289 512 L356 297 Z M275 721 L413 772 C439 782 456 801 456 822 C456 847 435 868 410 868 C394 868 381 862 359 842 L221 721 L275 721 Z " />
<glyph glyph-name="Acircumflex" unicode="&#xc2;" horiz-adv-x="635" d="M644 82 L622 82 C579 81 572 88 551 149 L391 667 L238 667 L80 153 C66 101 51 85 12 82 L-18 82 L-18 0 L252 0 L252 82 L214 82 C180 82 169 88 169 108 C169 117 171 129 175 142 L198 214 L381 214 L403 145 C407 133 410 119 410 112 C410 88 399 82 356 82 L323 82 L323 0 L644 0 L644 82 Z M356 297 L223 297 L289 512 L356 297 Z M163 721 L209 721 L317 776 L425 721 L471 721 L375 858 L259 858 L163 721 Z " />
<glyph glyph-name="Atilde" unicode="&#xc3;" horiz-adv-x="635" d="M644 82 L622 82 C579 81 572 88 551 149 L391 667 L238 667 L80 153 C66 101 51 85 12 82 L-18 82 L-18 0 L252 0 L252 82 L214 82 C180 82 169 88 169 108 C169 117 171 129 175 142 L198 214 L381 214 L403 145 C407 133 410 119 410 112 C410 88 399 82 356 82 L323 82 L323 0 L644 0 L644 82 Z M356 297 L223 297 L289 512 L356 297 Z M204 720 C212 748 226 761 246 761 C254 761 265 759 277 756 L331 741 C342 739 353 737 363 737 C389 737 412 748 430 769 C449 790 458 810 468 858 L430 858 C420 828 409 818 387 818 C381 818 373 819 366 821 L309 836 C297 839 285 841 273 841 C215 841 186 808 166 720 L204 720 Z " />
<glyph glyph-name="Adieresis" unicode="&#xc4;" horiz-adv-x="635" d="M644 82 L622 82 C579 81 572 88 551 149 L391 667 L238 667 L80 153 C66 101 51 85 12 82 L-18 82 L-18 0 L252 0 L252 82 L214 82 C180 82 169 88 169 108 C169 117 171 129 175 142 L198 214 L381 214 L403 145 C407 133 410 119 410 112 C410 88 399 82 356 82 L323 82 L323 0 L644 0 L644 82 Z M356 297 L223 297 L289 512 L356 297 Z M220 858 C184 858 152 826 152 791 C152 752 182 722 220 722 C257 722 288 753 288 789 C288 826 256 858 220 858 L220 858 Z M388 858 C352 858 320 826 320 791 C320 752 350 722 388 722 C425 722 456 753 456 789 C456 826 424 858 388 858 L388 858 Z " />
<glyph glyph-name="Aring" unicode="&#xc5;" horiz-adv-x="635" d="M644 82 L622 82 C579 81 572 88 551 149 L391 667 L238 667 L80 153 C66 101 51 85 12 82 L-18 82 L-18 0 L252 0 L252 82 L214 82 C180 82 169 88 169 108 C169 117 171 129 175 142 L198 214 L381 214 L403 145 C407 133 410 119 410 112 C410 88 399 82 356 82 L323 82 L323 0 L644 0 L644 82 Z M356 297 L223 297 L289 512 L356 297 Z M314 932 C255 932 206 885 206 828 C206 766 255 716 315 716 C372 716 422 767 422 826 C422 885 374 932 314 932 L314 932 Z M314 869 C339 869 359 849 359 824 C359 799 339 779 315 779 C289 779 269 799 269 825 C269 849 290 869 314 869 L314 869 Z " />
<glyph glyph-name="AE" unicode="&#xc6;" horiz-adv-x="965" d="M315 0 L908 0 L908 279 L833 279 C824 116 792 79 663 82 L563 82 L563 306 L594 306 C650 305 667 284 668 213 L668 182 L741 182 L741 500 L668 500 C666 405 656 390 594 389 L563 389 L563 585 L673 585 C798 587 821 562 837 408 L909 408 L909 667 L184 667 L184 585 L217 585 C259 585 271 579 271 556 C271 546 268 534 262 523 L79 144 C58 99 38 84 2 82 L-31 82 L-31 0 L254 0 L254 82 L218 82 C187 82 175 89 175 106 C175 114 178 123 186 139 L235 241 L404 241 L404 143 C404 89 398 81 352 82 L315 82 L315 0 Z M404 324 L276 324 L395 591 L404 591 L404 324 Z " />
<glyph glyph-name="Ccedilla" unicode="&#xc7;" horiz-adv-x="644" d="M343 -19 C507 -23 597 74 602 258 L518 258 C513 195 506 168 489 136 C465 94 423 69 375 69 C275 69 217 166 217 334 C217 502 275 599 376 599 C422 599 460 578 487 535 C508 502 517 472 524 404 L600 404 L600 675 L528 675 L512 621 C442 672 404 687 337 687 C162 687 31 536 31 334 C31 143 137 5 301 -16 L301 -101 C311 -98 321 -96 326 -96 C349 -96 363 -111 363 -135 C363 -157 349 -171 326 -171 C299 -171 267 -159 227 -132 L206 -181 C278 -217 310 -227 352 -227 C414 -227 454 -192 454 -136 C454 -89 422 -54 380 -54 C370 -54 357 -55 343 -58 L343 -19 Z " />
<glyph glyph-name="Egrave" unicode="&#xc8;" horiz-adv-x="670" d="M610 667 L18 667 L18 585 L49 585 C95 586 101 578 101 524 L101 143 C101 89 95 81 49 82 L18 82 L18 0 L609 0 L609 279 L535 279 C525 115 493 79 365 82 L264 82 L264 306 L295 306 C351 305 369 284 370 213 L370 182 L443 182 L443 500 L370 500 C367 405 358 390 295 389 L264 389 L264 585 L374 585 C498 588 526 558 537 408 L610 408 L610 667 Z M369 721 L423 721 L286 842 C264 861 251 868 234 868 C209 868 188 847 188 822 C188 801 204 782 232 772 L369 721 Z " />
<glyph glyph-name="Eacute" unicode="&#xc9;" horiz-adv-x="670" d="M610 667 L18 667 L18 585 L49 585 C95 586 101 578 101 524 L101 143 C101 89 95 81 49 82 L18 82 L18 0 L609 0 L609 279 L535 279 C525 115 493 79 365 82 L264 82 L264 306 L295 306 C351 305 369 284 370 213 L370 182 L443 182 L443 500 L370 500 C367 405 358 390 295 389 L264 389 L264 585 L374 585 C498 588 526 558 537 408 L610 408 L610 667 Z M294 721 L431 772 C458 782 474 801 474 822 C474 847 453 868 428 868 C412 868 399 862 377 842 L240 721 L294 721 Z " />
<glyph glyph-name="Ecircumflex" unicode="&#xca;" horiz-adv-x="670" d="M610 667 L18 667 L18 585 L49 585 C95 586 101 578 101 524 L101 143 C101 89 95 81 49 82 L18 82 L18 0 L609 0 L609 279 L535 279 C525 115 493 79 365 82 L264 82 L264 306 L295 306 C351 305 369 284 370 213 L370 182 L443 182 L443 500 L370 500 C367 405 358 390 295 389 L264 389 L264 585 L374 585 C498 588 526 558 537 408 L610 408 L610 667 Z M181 721 L228 721 L335 776 L443 721 L489 721 L393 858 L277 858 L181 721 Z " />
<glyph glyph-name="Edieresis" unicode="&#xcb;" horiz-adv-x="670" d="M610 667 L18 667 L18 585 L49 585 C95 586 101 578 101 524 L101 143 C101 89 95 81 49 82 L18 82 L18 0 L609 0 L609 279 L535 279 C525 115 493 79 365 82 L264 82 L264 306 L295 306 C351 305 369 284 370 213 L370 182 L443 182 L443 500 L370 500 C367 405 358 390 295 389 L264 389 L264 585 L374 585 C498 588 526 558 537 408 L610 408 L610 667 Z M251 858 C215 858 183 826 183 791 C183 752 213 722 252 722 C288 722 319 753 319 789 C319 826 288 858 251 858 L251 858 Z M419 858 C383 858 351 826 351 791 C351 752 381 722 420 722 C456 722 487 753 487 789 C487 826 456 858 419 858 L419 858 Z " />
<glyph glyph-name="Igrave" unicode="&#xcc;" horiz-adv-x="371" d="M20 0 L351 0 L351 82 L318 82 C272 81 266 88 266 143 L266 524 C266 579 272 586 318 585 L351 585 L351 667 L20 667 L20 585 L51 585 C97 586 103 579 103 524 L103 143 C103 88 97 81 51 82 L20 82 L20 0 Z M219 721 L273 721 L136 842 C114 862 101 868 85 868 C60 868 39 847 39 822 C39 801 55 782 82 772 L219 721 Z " />
<glyph glyph-name="Iacute" unicode="&#xcd;" horiz-adv-x="371" d="M20 0 L351 0 L351 82 L318 82 C272 81 266 88 266 143 L266 524 C266 579 272 586 318 585 L351 585 L351 667 L20 667 L20 585 L51 585 C97 586 103 579 103 524 L103 143 C103 88 97 81 51 82 L20 82 L20 0 Z M144 721 L281 772 C308 782 325 801 325 822 C325 847 304 868 279 868 C262 868 249 861 227 842 L90 721 L144 721 Z " />
<glyph glyph-name="Icircumflex" unicode="&#xce;" horiz-adv-x="371" d="M20 0 L351 0 L351 82 L318 82 C272 81 266 88 266 143 L266 524 C266 579 272 586 318 585 L351 585 L351 667 L20 667 L20 585 L51 585 C97 586 103 579 103 524 L103 143 C103 88 97 81 51 82 L20 82 L20 0 Z M31 721 L78 721 L185 776 L293 721 L340 721 L243 858 L128 858 L31 721 Z " />
<glyph glyph-name="Idieresis" unicode="&#xcf;" horiz-adv-x="371" d="M20 0 L351 0 L351 82 L318 82 C272 81 266 88 266 143 L266 524 C266 579 272 586 318 585 L351 585 L351 667 L20 667 L20 585 L51 585 C97 586 103 579 103 524 L103 143 C103 88 97 81 51 82 L20 82 L20 0 Z M105 858 C69 858 37 826 37 791 C37 752 67 722 106 722 C142 722 173 753 173 789 C173 826 142 858 105 858 L105 858 Z M266 858 C230 858 198 826 198 791 C198 752 228 722 267 722 C303 722 334 753 334 789 C334 826 303 858 266 858 L266 858 Z " />
<glyph glyph-name="Eth" unicode="&#xd0;" horiz-adv-x="729" d="M20 0 L336 0 C459 0 530 21 589 73 C653 130 686 218 686 333 C686 449 653 538 589 595 C531 647 459 667 336 667 L20 667 L20 586 L51 586 C97 587 103 579 103 524 L103 381 L0 381 L0 305 L103 305 L103 143 C103 89 97 81 51 82 L20 82 L20 0 Z M266 83 L266 305 L388 305 L388 381 L266 381 L266 585 L335 585 C397 585 444 562 466 521 C488 480 500 414 500 333 C500 252 488 186 466 146 C444 106 396 83 335 83 L266 83 Z " />
<glyph glyph-name="Ntilde" unicode="&#xd1;" horiz-adv-x="733" d="M300 82 L262 82 C214 81 208 89 208 143 L208 522 L473 0 L635 0 L635 524 C635 578 641 586 688 585 L713 585 L713 667 L434 667 L434 585 L472 585 C520 586 526 578 526 524 L526 191 L283 667 L18 667 L18 585 L46 585 C93 586 99 578 99 524 L99 143 C99 89 93 81 46 82 L18 82 L18 0 L300 0 L300 82 Z M258 720 C266 748 280 761 300 761 C308 761 319 759 331 756 L385 741 C396 739 407 737 416 737 C443 737 466 748 484 769 C503 790 512 810 522 858 L484 858 C474 828 463 818 441 818 C435 818 427 819 420 821 L363 836 C351 839 339 841 327 841 C269 841 240 808 220 720 L258 720 Z " />
<glyph glyph-name="Ograve" unicode="&#xd2;" horiz-adv-x="728" d="M364 686 C165 686 31 544 31 334 C31 125 165 -19 359 -19 C564 -19 697 120 697 335 C697 545 563 686 364 686 L364 686 Z M366 599 C409 599 450 571 475 523 C500 477 511 418 511 333 C511 167 457 69 364 69 C272 69 217 167 217 332 C217 418 228 474 253 523 C279 573 318 599 366 599 L366 599 Z M398 721 L452 721 L315 842 C293 861 280 868 263 868 C238 868 217 847 217 822 C217 801 233 782 260 772 L398 721 Z " />
<glyph glyph-name="Oacute" unicode="&#xd3;" horiz-adv-x="728" d="M364 686 C165 686 31 544 31 334 C31 125 165 -19 359 -19 C564 -19 697 120 697 335 C697 545 563 686 364 686 L364 686 Z M366 599 C409 599 450 571 475 523 C500 477 511 418 511 333 C511 167 457 69 364 69 C272 69 217 167 217 332 C217 418 228 474 253 523 C279 573 318 599 366 599 L366 599 Z M322 721 L460 772 C486 782 503 801 503 822 C503 847 482 868 457 868 C441 868 428 862 406 842 L268 721 L322 721 Z " />
<glyph glyph-name="Ocircumflex" unicode="&#xd4;" horiz-adv-x="728" d="M364 686 C165 686 31 544 31 334 C31 125 165 -19 359 -19 C564 -19 697 120 697 335 C697 545 563 686 364 686 L364 686 Z M366 599 C409 599 450 571 475 523 C500 477 511 418 511 333 C511 167 457 69 364 69 C272 69 217 167 217 332 C217 418 228 474 253 523 C279 573 318 599 366 599 L366 599 Z M210 721 L256 721 L364 776 L472 721 L518 721 L422 858 L306 858 L210 721 Z " />
<glyph glyph-name="Otilde" unicode="&#xd5;" horiz-adv-x="728" d="M364 686 C165 686 31 544 31 334 C31 125 165 -19 359 -19 C564 -19 697 120 697 335 C697 545 563 686 364 686 L364 686 Z M366 599 C409 599 450 571 475 523 C500 477 511 418 511 333 C511 167 457 69 364 69 C272 69 217 167 217 332 C217 418 228 474 253 523 C279 573 318 599 366 599 L366 599 Z M251 720 C259 748 273 761 293 761 C301 761 312 759 324 756 L378 741 C389 739 400 737 409 737 C436 737 459 748 477 769 C496 790 505 810 515 858 L477 858 C467 828 456 818 434 818 C428 818 420 819 413 821 L356 836 C344 839 332 841 320 841 C262 841 233 808 213 720 L251 720 Z " />
<glyph glyph-name="Odieresis" unicode="&#xd6;" horiz-adv-x="728" d="M364 686 C165 686 31 544 31 334 C31 125 165 -19 359 -19 C564 -19 697 120 697 335 C697 545 563 686 364 686 L364 686 Z M366 599 C409 599 450 571 475 523 C500 477 511 418 511 333 C511 167 457 69 364 69 C272 69 217 167 217 332 C217 418 228 474 253 523 C279 573 318 599 366 599 L366 599 Z M280 858 C244 858 212 826 212 791 C212 752 242 722 280 722 C317 722 348 753 348 789 C348 826 316 858 280 858 L280 858 Z M448 858 C412 858 380 826 380 791 C380 752 410 722 448 722 C485 722 516 753 516 789 C516 826 484 858 448 858 L448 858 Z " />
<glyph glyph-name="multiply" unicode="&#xd7;" horiz-adv-x="535" d="M74 172 L140 99 L268 242 L396 99 L462 172 L333 315 L462 457 L396 530 L268 387 L140 530 L74 457 L202 315 L74 172 Z " />
<glyph glyph-name="Oslash" unicode="&#xd8;" horiz-adv-x="728" d="M87 -39 L160 46 C221 1 282 -19 364 -19 C563 -19 697 122 697 333 C697 431 671 510 617 575 L682 650 L636 701 L567 622 C508 666 445 686 364 686 C165 686 31 544 31 334 C31 236 57 157 111 93 L41 12 L87 -39 Z M226 226 C220 261 217 296 217 336 C217 500 272 599 364 599 C412 599 451 571 477 518 L226 226 Z M502 442 C508 408 511 374 511 332 C511 167 456 69 364 69 C315 69 277 97 250 151 L502 442 Z " />
<glyph glyph-name="Ugrave" unicode="&#xd9;" horiz-adv-x="688" d="M668 667 L397 667 L397 585 L432 585 C476 586 482 578 482 524 L482 211 C482 158 476 130 459 112 C441 91 404 78 363 78 C331 78 307 87 289 104 C268 125 260 155 260 217 L260 524 C260 578 266 586 312 585 L349 585 L349 667 L18 667 L18 585 L45 585 C91 586 97 578 97 524 L97 206 C97 137 112 91 147 51 C191 2 252 -21 337 -21 C506 -21 592 58 592 213 L592 524 C592 579 598 586 641 585 L668 585 L668 667 Z M378 721 L432 721 L295 842 C273 861 260 868 243 868 C218 868 197 847 197 822 C197 801 213 782 240 772 L378 721 Z " />
<glyph glyph-name="Uacute" unicode="&#xda;" horiz-adv-x="688" d="M668 667 L397 667 L397 585 L432 585 C476 586 482 578 482 524 L482 211 C482 158 476 130 459 112 C441 91 404 78 363 78 C331 78 307 87 289 104 C268 125 260 155 260 217 L260 524 C260 578 266 586 312 585 L349 585 L349 667 L18 667 L18 585 L45 585 C91 586 97 578 97 524 L97 206 C97 137 112 91 147 51 C191 2 252 -21 337 -21 C506 -21 592 58 592 213 L592 524 C592 579 598 586 641 585 L668 585 L668 667 Z M302 721 L440 772 C467 782 483 801 483 822 C483 847 462 868 437 868 C421 868 408 862 386 842 L248 721 L302 721 Z " />
<glyph glyph-name="Ucircumflex" unicode="&#xdb;" horiz-adv-x="688" d="M668 667 L397 667 L397 585 L432 585 C476 586 482 578 482 524 L482 211 C482 158 476 130 459 112 C441 91 404 78 363 78 C331 78 307 87 289 104 C268 125 260 155 260 217 L260 524 C260 578 266 586 312 585 L349 585 L349 667 L18 667 L18 585 L45 585 C91 586 97 578 97 524 L97 206 C97 137 112 91 147 51 C191 2 252 -21 337 -21 C506 -21 592 58 592 213 L592 524 C592 579 598 586 641 585 L668 585 L668 667 Z M190 721 L237 721 L344 776 L452 721 L498 721 L402 858 L286 858 L190 721 Z " />
<glyph glyph-name="Udieresis" unicode="&#xdc;" horiz-adv-x="688" d="M668 667 L397 667 L397 585 L432 585 C476 586 482 578 482 524 L482 211 C482 158 476 130 459 112 C441 91 404 78 363 78 C331 78 307 87 289 104 C268 125 260 155 260 217 L260 524 C260 578 266 586 312 585 L349 585 L349 667 L18 667 L18 585 L45 585 C91 586 97 578 97 524 L97 206 C97 137 112 91 147 51 C191 2 252 -21 337 -21 C506 -21 592 58 592 213 L592 524 C592 579 598 586 641 585 L668 585 L668 667 Z M257 858 C221 858 189 826 189 791 C189 752 219 722 258 722 C294 722 325 753 325 789 C325 826 294 858 257 858 L257 858 Z M425 858 C389 858 357 826 357 791 C357 752 387 722 426 722 C462 722 493 753 493 789 C493 826 462 858 425 858 L425 858 Z " />
<glyph glyph-name="Yacute" unicode="&#xdd;" horiz-adv-x="630" d="M-13 585 L10 585 C42 587 71 564 100 514 L233 276 L233 143 C233 89 227 81 181 82 L139 82 L139 0 L491 0 L491 82 L449 82 C402 81 396 89 396 143 L396 276 L537 520 C568 571 586 586 621 585 L641 585 L641 667 L373 667 L373 587 L408 587 C436 587 450 579 450 563 C450 555 447 546 441 537 L342 389 L251 527 C243 540 238 551 238 559 C238 579 250 585 286 585 L315 585 L315 667 L-13 667 L-13 585 Z M274 721 L411 772 C438 782 455 801 455 822 C455 847 434 868 409 868 C392 868 379 861 357 842 L220 721 L274 721 Z " />
<glyph glyph-name="Thorn" unicode="&#xde;" horiz-adv-x="635" d="M18 0 L353 0 L353 82 L313 82 C262 81 256 89 256 143 L256 154 L368 154 C460 154 508 166 544 199 C580 232 600 281 600 339 C600 396 582 444 548 477 C512 512 461 526 368 526 L256 526 L256 534 C257 578 265 586 313 585 L353 585 L353 667 L18 667 L18 585 L52 585 C100 586 109 578 109 534 L109 143 C109 89 103 81 52 82 L18 82 L18 0 Z M256 236 L256 444 L310 444 C362 444 386 438 405 420 C422 403 430 378 430 341 C430 264 397 236 306 236 L256 236 Z " />
<glyph glyph-name="germandbls" unicode="&#xdf;" horiz-adv-x="559" d="M96 133 C95 84 88 76 43 74 L18 74 L18 0 L239 0 L239 508 C239 582 256 612 296 612 C330 612 349 583 349 534 C349 493 339 463 319 450 C310 444 299 441 274 440 L274 363 C322 363 332 360 348 340 C367 317 372 285 372 176 C372 105 372 97 366 77 C364 68 357 61 351 61 C340 61 333 80 333 107 L333 165 L262 165 L262 107 C262 26 300 -18 371 -18 C463 -18 525 74 525 210 C525 276 509 327 477 362 C457 384 437 396 391 411 C425 423 445 434 459 448 C480 471 493 506 493 543 C493 635 423 687 300 687 C229 687 175 666 138 623 C106 586 96 546 96 450 L96 133 Z " />
<glyph glyph-name="agrave" unicode="&#xe0;" horiz-adv-x="527" d="M515 173 L455 173 L455 120 C455 88 450 74 438 74 C427 74 421 89 421 120 L421 313 C421 393 415 415 384 442 C351 471 301 486 234 486 C113 486 37 436 37 358 C37 313 66 282 109 282 C146 282 176 310 176 345 C176 377 159 397 126 402 C147 423 165 430 196 430 C249 430 284 398 284 350 C284 302 260 281 187 264 C123 249 86 235 61 215 C34 193 18 157 18 116 C18 35 70 -18 151 -18 C207 -18 244 1 293 54 C316 1 344 -17 400 -17 C440 -17 470 -4 490 20 C509 45 515 70 515 127 L515 173 Z M280 169 C280 107 256 72 214 72 C189 72 172 94 172 127 C172 163 185 180 237 209 C244 213 261 224 280 237 L280 169 Z M353 540 L218 683 C185 718 166 730 143 730 C112 730 89 707 89 677 C89 653 103 637 140 619 L298 540 L353 540 Z " />
<glyph glyph-name="aacute" unicode="&#xe1;" horiz-adv-x="527" d="M515 173 L455 173 L455 120 C455 88 450 74 438 74 C427 74 421 89 421 120 L421 313 C421 393 415 415 384 442 C351 471 301 486 234 486 C113 486 37 436 37 358 C37 313 66 282 109 282 C146 282 176 310 176 345 C176 377 159 397 126 402 C147 423 165 430 196 430 C249 430 284 398 284 350 C284 302 260 281 187 264 C123 249 86 235 61 215 C34 193 18 157 18 116 C18 35 70 -18 151 -18 C207 -18 244 1 293 54 C316 1 344 -17 400 -17 C440 -17 470 -4 490 20 C509 45 515 70 515 127 L515 173 Z M280 169 C280 107 256 72 214 72 C189 72 172 94 172 127 C172 163 185 180 237 209 C244 213 261 224 280 237 L280 169 Z M162 540 L217 540 L376 619 C412 637 426 653 426 677 C426 707 403 730 373 730 C349 730 330 718 297 683 L162 540 Z " />
<glyph glyph-name="acircumflex" unicode="&#xe2;" horiz-adv-x="527" d="M515 173 L455 173 L455 120 C455 88 450 74 438 74 C427 74 421 89 421 120 L421 313 C421 393 415 415 384 442 C351 471 301 486 234 486 C113 486 37 436 37 358 C37 313 66 282 109 282 C146 282 176 310 176 345 C176 377 159 397 126 402 C147 423 165 430 196 430 C249 430 284 398 284 350 C284 302 260 281 187 264 C123 249 86 235 61 215 C34 193 18 157 18 116 C18 35 70 -18 151 -18 C207 -18 244 1 293 54 C316 1 344 -17 400 -17 C440 -17 470 -4 490 20 C509 45 515 70 515 127 L515 173 Z M280 169 C280 107 256 72 214 72 C189 72 172 94 172 127 C172 163 185 180 237 209 C244 213 261 224 280 237 L280 169 Z M108 540 L157 540 L264 623 L371 540 L420 540 L309 719 L219 719 L108 540 Z " />
<glyph glyph-name="atilde" unicode="&#xe3;" horiz-adv-x="527" d="M515 173 L455 173 L455 120 C455 88 450 74 438 74 C427 74 421 89 421 120 L421 313 C421 393 415 415 384 442 C351 471 301 486 234 486 C113 486 37 436 37 358 C37 313 66 282 109 282 C146 282 176 310 176 345 C176 377 159 397 126 402 C147 423 165 430 196 430 C249 430 284 398 284 350 C284 302 260 281 187 264 C123 249 86 235 61 215 C34 193 18 157 18 116 C18 35 70 -18 151 -18 C207 -18 244 1 293 54 C316 1 344 -17 400 -17 C440 -17 470 -4 490 20 C509 45 515 70 515 127 L515 173 Z M280 169 C280 107 256 72 214 72 C189 72 172 94 172 127 C172 163 185 180 237 209 C244 213 261 224 280 237 L280 169 Z M130 540 C138 568 151 581 172 581 C180 581 191 579 202 576 L257 561 C268 558 278 557 288 557 C314 557 338 568 356 589 C375 610 383 630 394 678 L356 678 C345 648 335 638 313 638 C307 638 299 639 291 641 L235 656 C223 659 210 661 198 661 C140 661 111 628 92 540 L130 540 Z " />
<glyph glyph-name="adieresis" unicode="&#xe4;" horiz-adv-x="527" d="M515 173 L455 173 L455 120 C455 88 450 74 438 74 C427 74 421 89 421 120 L421 313 C421 393 415 415 384 442 C351 471 301 486 234 486 C113 486 37 436 37 358 C37 313 66 282 109 282 C146 282 176 310 176 345 C176 377 159 397 126 402 C147 423 165 430 196 430 C249 430 284 398 284 350 C284 302 260 281 187 264 C123 249 86 235 61 215 C34 193 18 157 18 116 C18 35 70 -18 151 -18 C207 -18 244 1 293 54 C316 1 344 -17 400 -17 C440 -17 470 -4 490 20 C509 45 515 70 515 127 L515 173 Z M280 169 C280 107 256 72 214 72 C189 72 172 94 172 127 C172 163 185 180 237 209 C244 213 261 224 280 237 L280 169 Z M184 699 C146 699 113 667 113 630 C113 591 144 560 184 560 C222 560 252 590 252 629 C252 668 221 699 184 699 L184 699 Z M354 699 C316 699 283 667 283 630 C283 591 314 560 354 560 C392 560 422 590 422 629 C422 668 391 699 354 699 L354 699 Z " />
<glyph glyph-name="aring" unicode="&#xe5;" horiz-adv-x="527" d="M515 173 L455 173 L455 120 C455 88 450 74 438 74 C427 74 421 89 421 120 L421 313 C421 393 415 415 384 442 C351 471 301 486 234 486 C113 486 37 436 37 358 C37 313 66 282 109 282 C146 282 176 310 176 345 C176 377 159 397 126 402 C147 423 165 430 196 430 C249 430 284 398 284 350 C284 302 260 281 187 264 C123 249 86 235 61 215 C34 193 18 157 18 116 C18 35 70 -18 151 -18 C207 -18 244 1 293 54 C316 1 344 -17 400 -17 C440 -17 470 -4 490 20 C509 45 515 70 515 127 L515 173 Z M280 169 C280 107 256 72 214 72 C189 72 172 94 172 127 C172 163 185 180 237 209 C244 213 261 224 280 237 L280 169 Z M233 777 C163 777 104 720 104 651 C104 576 160 519 234 519 C305 519 362 577 362 648 C362 719 304 777 233 777 L233 777 Z M233 707 C265 707 292 680 292 648 C292 615 266 589 234 589 C199 589 174 615 174 649 C174 681 201 707 233 707 L233 707 Z " />
<glyph glyph-name="ae" unicode="&#xe6;" horiz-adv-x="733" d="M607 161 C593 95 565 69 509 69 C472 69 448 82 432 109 C415 136 410 161 409 218 L704 218 C702 300 695 336 673 381 C641 445 574 486 502 486 C455 486 425 474 366 435 C311 475 281 486 223 486 C113 486 38 434 38 358 C38 313 67 282 111 282 C149 282 180 310 180 345 C180 377 162 397 129 402 C151 423 169 430 202 430 C260 430 299 398 299 351 C299 302 274 282 191 263 C63 235 18 197 18 116 C18 32 73 -20 161 -20 C198 -20 235 -11 261 4 C282 16 298 29 330 64 C377 7 426 -17 497 -17 C563 -17 621 9 657 55 C679 84 688 108 694 161 L607 161 Z M297 169 C297 108 269 73 221 73 C191 73 172 95 172 128 C172 143 177 157 186 170 C196 183 205 189 248 209 C255 213 275 224 297 237 L297 169 Z M412 294 C413 337 416 355 427 375 C440 396 462 408 489 408 C517 408 539 396 552 375 C563 355 567 337 568 294 L412 294 Z " />
<glyph glyph-name="ccedilla" unicode="&#xe7;" horiz-adv-x="469" d="M243 -18 C364 -18 429 52 426 179 L348 179 C338 100 314 69 264 69 C207 69 179 126 179 242 C179 353 211 410 272 410 C298 410 313 403 339 379 C301 370 284 348 284 310 C284 267 313 236 354 236 C402 236 435 274 435 331 C435 421 359 487 256 487 C195 487 137 464 94 423 C46 376 22 313 22 230 C22 96 88 6 201 -15 L201 -99 C211 -97 221 -95 226 -95 C249 -95 262 -110 262 -134 C262 -157 248 -171 225 -171 C198 -171 165 -158 128 -132 L107 -181 C178 -217 211 -227 253 -227 C313 -227 352 -191 352 -136 C352 -88 321 -53 279 -53 C269 -53 257 -54 243 -57 L243 -18 Z " />
<glyph glyph-name="egrave" unicode="&#xe8;" horiz-adv-x="487" d="M362 161 C348 95 320 69 264 69 C228 69 203 82 187 109 C171 136 166 160 165 218 L459 218 C457 317 443 368 407 414 C369 462 312 488 245 488 C111 488 22 384 22 228 C22 79 110 -18 246 -18 C317 -18 375 8 412 55 C434 84 443 108 450 161 L362 161 Z M167 294 C168 337 172 356 183 375 C195 397 217 409 245 409 C272 409 294 397 307 375 C318 356 322 337 323 294 L167 294 Z M332 540 L198 683 C165 718 146 730 122 730 C92 730 69 707 69 677 C69 653 83 637 119 619 L278 540 L332 540 Z " />
<glyph glyph-name="eacute" unicode="&#xe9;" horiz-adv-x="487" d="M362 161 C348 95 320 69 264 69 C228 69 203 82 187 109 C171 136 166 160 165 218 L459 218 C457 317 443 368 407 414 C369 462 312 488 245 488 C111 488 22 384 22 228 C22 79 110 -18 246 -18 C317 -18 375 8 412 55 C434 84 443 108 450 161 L362 161 Z M167 294 C168 337 172 356 183 375 C195 397 217 409 245 409 C272 409 294 397 307 375 C318 356 322 337 323 294 L167 294 Z M142 540 L197 540 L355 619 C391 637 405 653 405 677 C405 707 382 730 352 730 C328 730 310 718 277 683 L142 540 Z " />
<glyph glyph-name="ecircumflex" unicode="&#xea;" horiz-adv-x="487" d="M362 161 C348 95 320 69 264 69 C228 69 203 82 187 109 C171 136 166 160 165 218 L459 218 C457 317 443 368 407 414 C369 462 312 488 245 488 C111 488 22 384 22 228 C22 79 110 -18 246 -18 C317 -18 375 8 412 55 C434 84 443 108 450 161 L362 161 Z M167 294 C168 337 172 356 183 375 C195 397 217 409 245 409 C272 409 294 397 307 375 C318 356 322 337 323 294 L167 294 Z M87 540 L136 540 L243 623 L350 540 L399 540 L288 719 L199 719 L87 540 Z " />
<glyph glyph-name="edieresis" unicode="&#xeb;" horiz-adv-x="487" d="M362 161 C348 95 320 69 264 69 C228 69 203 82 187 109 C171 136 166 160 165 218 L459 218 C457 317 443 368 407 414 C369 462 312 488 245 488 C111 488 22 384 22 228 C22 79 110 -18 246 -18 C317 -18 375 8 412 55 C434 84 443 108 450 161 L362 161 Z M167 294 C168 337 172 356 183 375 C195 397 217 409 245 409 C272 409 294 397 307 375 C318 356 322 337 323 294 L167 294 Z M160 699 C122 699 89 667 89 630 C89 591 120 560 160 560 C198 560 228 590 228 629 C228 668 197 699 160 699 L160 699 Z M330 699 C292 699 259 667 259 630 C259 591 290 560 330 560 C368 560 398 590 398 629 C398 668 367 699 330 699 L330 699 Z " />
<glyph glyph-name="igrave" unicode="&#xec;" horiz-adv-x="317" d="M297 74 L272 74 C236 76 231 83 231 133 L231 469 L22 469 L22 395 L49 395 C89 393 95 386 96 336 L96 133 C95 83 89 76 49 74 L22 74 L22 0 L297 0 L297 74 Z M225 537 L137 676 C114 711 94 726 69 726 C43 726 23 707 23 682 C23 660 36 639 64 619 L178 537 L225 537 Z " />
<glyph glyph-name="iacute" unicode="&#xed;" horiz-adv-x="317" d="M59 537 L105 537 L219 619 C248 640 261 660 261 682 C261 707 241 726 215 726 C190 726 169 711 147 676 L59 537 Z M297 74 L272 74 C236 76 231 83 231 133 L231 469 L22 469 L22 395 L49 395 C89 393 95 386 96 336 L96 133 C95 83 89 76 49 74 L22 74 L22 0 L297 0 L297 74 Z " />
<glyph glyph-name="icircumflex" unicode="&#xee;" horiz-adv-x="332" d="M16 537 L62 537 L159 628 L256 537 L302 537 L204 717 L114 717 L16 537 Z M311 74 L287 74 C250 76 245 83 245 133 L245 469 L36 469 L36 395 L63 395 C104 393 109 386 110 336 L110 133 C109 83 103 76 63 74 L36 74 L36 0 L311 0 L311 74 Z " />
<glyph glyph-name="idieresis" unicode="&#xef;" horiz-adv-x="325" d="M305 74 L280 74 C243 76 238 83 238 133 L238 469 L29 469 L29 395 L56 395 C97 393 102 386 103 336 L103 133 C102 83 96 76 56 74 L29 74 L29 0 L305 0 L305 74 Z M76 699 C38 699 5 667 5 630 C5 591 36 560 76 560 C114 560 144 590 144 629 C144 668 113 699 76 699 L76 699 Z M237 699 C199 699 166 667 166 630 C166 591 197 560 237 560 C275 560 305 590 305 629 C305 668 274 699 237 699 L237 699 Z " />
<glyph glyph-name="eth" unicode="&#xf0;" horiz-adv-x="535" d="M188 667 C203 645 207 639 229 604 L162 574 L186 517 L258 551 C268 534 269 532 288 498 L298 479 C280 483 268 485 251 485 C194 485 139 461 98 420 C52 373 29 312 29 235 C29 82 124 -17 271 -17 C415 -17 512 83 512 232 C512 313 490 378 432 463 C409 497 390 522 337 588 L403 617 L380 673 L297 638 C285 651 278 658 270 667 L188 667 Z M271 410 C327 410 355 352 355 235 C355 117 327 60 271 60 C213 60 186 117 186 237 C186 352 214 410 271 410 L271 410 Z " />
<glyph glyph-name="ntilde" unicode="&#xf1;" horiz-adv-x="590" d="M313 0 L573 0 L573 74 L556 74 C516 76 510 83 510 133 L510 311 C510 382 501 418 478 443 C455 469 415 484 372 484 C311 484 276 462 218 385 L218 469 L18 469 L18 395 L41 395 C78 393 83 386 84 336 L84 133 C83 83 78 76 41 74 L18 74 L18 0 L281 0 L281 74 L267 74 C232 76 227 83 227 133 L227 272 C227 349 261 401 312 401 C332 401 348 392 357 376 C365 361 367 347 367 309 L367 133 C367 83 362 76 327 74 L313 74 L313 0 Z M182 540 C190 568 203 581 224 581 C232 581 243 579 255 576 L309 561 C320 558 330 557 340 557 C367 557 390 568 408 589 C427 610 436 630 446 678 L408 678 C397 648 387 638 365 638 C359 638 351 639 344 641 L287 656 C275 659 263 661 250 661 C193 661 163 628 144 540 L182 540 Z " />
<glyph glyph-name="ograve" unicode="&#xf2;" horiz-adv-x="532" d="M355 540 L220 683 C187 718 168 730 145 730 C114 730 91 707 91 677 C91 653 105 637 141 619 L300 540 L355 540 Z M266 486 C121 486 24 386 24 238 C24 82 118 -17 267 -17 C412 -17 507 83 507 234 C507 387 412 486 266 486 L266 486 Z M266 409 C322 409 350 351 350 234 C350 117 322 60 266 60 C208 60 181 117 181 237 C181 351 209 409 266 409 L266 409 Z " />
<glyph glyph-name="oacute" unicode="&#xf3;" horiz-adv-x="532" d="M164 540 L219 540 L377 619 C414 637 428 653 428 677 C428 707 405 730 375 730 C351 730 332 718 299 683 L164 540 Z M266 486 C121 486 24 386 24 238 C24 82 118 -17 267 -17 C412 -17 507 83 507 234 C507 387 412 486 266 486 L266 486 Z M266 409 C322 409 350 351 350 234 C350 117 322 60 266 60 C208 60 181 117 181 237 C181 351 209 409 266 409 L266 409 Z " />
<glyph glyph-name="ocircumflex" unicode="&#xf4;" horiz-adv-x="532" d="M110 540 L159 540 L265 623 L373 540 L421 540 L310 719 L221 719 L110 540 Z M266 486 C121 486 24 386 24 238 C24 82 118 -17 267 -17 C412 -17 507 83 507 234 C507 387 412 486 266 486 L266 486 Z M266 409 C322 409 350 351 350 234 C350 117 322 60 266 60 C208 60 181 117 181 237 C181 351 209 409 266 409 L266 409 Z " />
<glyph glyph-name="otilde" unicode="&#xf5;" horiz-adv-x="532" d="M152 540 C161 568 174 581 195 581 C203 581 213 579 225 576 L280 561 C290 558 301 557 311 557 C337 557 361 568 379 589 C398 610 406 630 416 678 L379 678 C368 648 358 638 335 638 C330 638 321 639 314 641 L258 656 C246 659 233 661 221 661 C163 661 134 628 115 540 L152 540 Z M266 486 C121 486 24 386 24 238 C24 82 118 -17 267 -17 C412 -17 507 83 507 234 C507 387 412 486 266 486 L266 486 Z M266 409 C322 409 350 351 350 234 C350 117 322 60 266 60 C208 60 181 117 181 237 C181 351 209 409 266 409 L266 409 Z " />
<glyph glyph-name="odieresis" unicode="&#xf6;" horiz-adv-x="532" d="M179 699 C141 699 108 667 108 630 C108 591 139 560 179 560 C217 560 247 590 247 629 C247 667 216 699 179 699 L179 699 Z M348 699 C311 699 278 667 278 630 C278 591 309 560 349 560 C387 560 417 590 417 629 C417 667 386 699 348 699 L348 699 Z M266 486 C121 486 24 386 24 238 C24 82 118 -17 267 -17 C412 -17 507 83 507 234 C507 387 412 486 266 486 L266 486 Z M266 409 C322 409 350 351 350 234 C350 117 322 60 266 60 C208 60 181 117 181 237 C181 351 209 409 266 409 L266 409 Z " />
<glyph glyph-name="divide" unicode="&#xf7;" horiz-adv-x="549" d="M273 126 C239 126 211 99 211 64 C211 30 238 2 273 2 C306 2 334 30 334 64 C334 98 306 126 273 126 L273 126 Z M273 525 C239 525 211 498 211 463 C211 429 238 401 273 401 C306 401 334 429 334 463 C334 497 306 525 273 525 L273 525 Z M10 294 L10 239 L536 239 L536 294 L10 294 Z " />
<glyph glyph-name="oslash" unicode="&#xf8;" horiz-adv-x="532" d="M461 504 L408 445 C366 474 323 486 265 486 C120 486 24 386 24 235 C24 168 40 115 75 70 L22 10 L61 -38 L119 27 C164 -4 206 -17 266 -17 C411 -17 507 83 507 234 C507 303 490 357 453 403 L504 461 L461 504 Z M183 191 C181 209 181 218 181 234 C181 351 209 409 266 409 C296 409 318 393 332 359 L183 191 Z M348 285 C349 265 350 253 350 235 C350 117 322 60 266 60 C233 60 212 77 197 115 L348 285 Z " />
<glyph glyph-name="ugrave" unicode="&#xf9;" horiz-adv-x="590" d="M18 395 L36 395 C86 393 93 386 93 336 L93 156 C93 84 101 49 124 24 C146 -2 185 -17 227 -17 C288 -17 327 7 378 76 L378 0 L573 0 L573 74 L549 74 C515 76 510 83 510 133 L510 469 L288 469 L288 395 L316 395 C361 393 367 385 367 336 L367 194 C367 118 335 66 287 66 C269 66 253 75 246 91 C238 106 236 120 236 157 L236 469 L18 469 L18 395 Z M384 540 L249 683 C216 718 198 730 174 730 C144 730 121 707 121 677 C121 653 135 637 171 619 L329 540 L384 540 Z " />
<glyph glyph-name="uacute" unicode="&#xfa;" horiz-adv-x="590" d="M18 395 L36 395 C86 393 93 386 93 336 L93 156 C93 84 101 49 124 24 C146 -2 185 -17 227 -17 C288 -17 327 7 378 76 L378 0 L573 0 L573 74 L549 74 C515 76 510 83 510 133 L510 469 L288 469 L288 395 L316 395 C361 393 367 385 367 336 L367 194 C367 118 335 66 287 66 C269 66 253 75 246 91 C238 106 236 120 236 157 L236 469 L18 469 L18 395 Z M194 540 L249 540 L407 619 C443 637 457 653 457 677 C457 707 434 730 404 730 C380 730 361 718 329 683 L194 540 Z " />
<glyph glyph-name="ucircumflex" unicode="&#xfb;" horiz-adv-x="590" d="M18 395 L36 395 C86 393 93 386 93 336 L93 156 C93 84 101 49 124 24 C146 -2 185 -17 227 -17 C288 -17 327 7 378 76 L378 0 L573 0 L573 74 L549 74 C515 76 510 83 510 133 L510 469 L288 469 L288 395 L316 395 C361 393 367 385 367 336 L367 194 C367 118 335 66 287 66 C269 66 253 75 246 91 C238 106 236 120 236 157 L236 469 L18 469 L18 395 Z M139 540 L188 540 L295 623 L402 540 L451 540 L340 719 L250 719 L139 540 Z " />
<glyph glyph-name="udieresis" unicode="&#xfc;" horiz-adv-x="590" d="M18 395 L36 395 C86 393 93 386 93 336 L93 156 C93 84 101 49 124 24 C146 -2 185 -17 227 -17 C288 -17 327 7 378 76 L378 0 L573 0 L573 74 L549 74 C515 76 510 83 510 133 L510 469 L288 469 L288 395 L316 395 C361 393 367 385 367 336 L367 194 C367 118 335 66 287 66 C269 66 253 75 246 91 C238 106 236 120 236 157 L236 469 L18 469 L18 395 Z M210 699 C173 699 140 667 140 630 C140 591 171 560 211 560 C249 560 279 590 279 629 C279 667 248 699 210 699 L210 699 Z M381 699 C343 699 310 667 310 630 C310 591 341 560 381 560 C419 560 449 590 449 629 C449 668 418 699 381 699 L381 699 Z " />
<glyph glyph-name="yacute" unicode="&#xfd;" horiz-adv-x="509" d="M429 326 C450 386 461 395 508 396 L508 469 L306 469 L306 396 L324 396 C349 396 361 389 361 375 C361 366 358 352 353 338 L285 152 L211 343 C207 353 205 364 205 372 C205 389 215 396 243 396 L262 396 L262 469 L1 469 L1 396 C52 395 61 387 85 327 L218 -16 C198 -80 185 -106 162 -130 C147 -144 127 -154 110 -154 C94 -154 83 -148 66 -130 C92 -129 106 -125 117 -116 C131 -105 139 -85 139 -64 C139 -24 112 3 71 3 C26 3 -4 -34 -4 -90 C-4 -164 48 -216 120 -216 C195 -216 249 -161 294 -38 L429 326 Z M154 540 L209 540 L367 619 C403 637 417 653 417 677 C417 707 394 730 364 730 C340 730 321 718 289 683 L154 540 Z " />
<glyph glyph-name="thorn" unicode="&#xfe;" horiz-adv-x="571" d="M225 667 L15 667 L15 593 L39 593 C76 591 81 584 82 534 L82 -81 C82 -131 77 -138 40 -140 L21 -140 L21 -214 L299 -214 L299 -140 L280 -140 C232 -138 225 -130 225 -81 L225 78 C256 9 292 -17 358 -17 C468 -17 532 75 532 231 C532 388 469 484 365 484 C305 484 257 451 225 387 L225 667 Z M300 400 C351 400 375 346 375 235 C375 125 351 73 300 73 C276 73 258 85 245 108 C229 137 224 166 224 233 C224 345 249 400 300 400 L300 400 Z " />
<glyph glyph-name="ydieresis" unicode="&#xff;" horiz-adv-x="509" d="M429 326 C450 386 461 395 508 396 L508 469 L306 469 L306 396 L324 396 C349 396 361 389 361 375 C361 366 358 352 353 338 L285 152 L211 343 C207 353 205 364 205 372 C205 389 215 396 243 396 L262 396 L262 469 L1 469 L1 396 C52 395 61 387 85 327 L218 -16 C198 -80 185 -106 162 -130 C147 -144 127 -154 110 -154 C94 -154 83 -148 66 -130 C92 -129 106 -125 117 -116 C131 -105 139 -85 139 -64 C139 -24 112 3 71 3 C26 3 -4 -34 -4 -90 C-4 -164 48 -216 120 -216 C195 -216 249 -161 294 -38 L429 326 Z M172 699 C134 699 101 667 101 630 C101 591 132 560 172 560 C210 560 240 590 240 629 C240 668 209 699 172 699 L172 699 Z M342 699 C304 699 271 667 271 630 C271 591 302 560 342 560 C380 560 410 590 410 629 C410 668 379 699 342 699 L342 699 Z " />
<glyph glyph-name="Amacron" unicode="&#x100;" horiz-adv-x="479" d="M566 82 L544 82 C501 81 494 88 473 149 L313 667 L160 667 L2 153 C-12 101 -27 85 -66 82 L-96 82 L-96 0 L174 0 L174 82 L136 82 C102 82 91 88 91 108 C91 117 93 129 97 142 L120 214 L303 214 L325 145 C329 133 332 119 332 112 C332 88 321 82 278 82 L245 82 L245 0 L566 0 L566 82 Z M278 297 L145 297 L211 512 L278 297 Z M95 750 L384 750 L384 829 L95 829 L95 750 Z " />
<glyph glyph-name="amacron" unicode="&#x101;" horiz-adv-x="480" d="M491 173 L431 173 L431 120 C431 88 426 74 414 74 C403 74 397 89 397 120 L397 313 C397 393 391 415 360 442 C327 471 277 486 210 486 C89 486 13 436 13 358 C13 313 42 282 85 282 C122 282 152 310 152 345 C152 377 135 397 102 402 C123 423 141 430 172 430 C225 430 260 398 260 350 C260 302 236 281 163 264 C99 249 62 235 37 215 C10 193 -6 157 -6 116 C-6 35 46 -18 127 -18 C183 -18 220 1 269 54 C292 1 320 -17 376 -17 C416 -17 446 -4 466 20 C485 45 491 70 491 127 L491 173 Z M256 169 C256 107 232 72 190 72 C165 72 148 94 148 127 C148 163 161 180 213 209 C220 213 237 224 256 237 L256 169 Z M69 588 L367 588 L367 670 L69 670 L69 588 Z " />
<glyph glyph-name="Abreve" unicode="&#x102;" horiz-adv-x="481" d="M568 82 L546 82 C503 81 496 88 475 149 L315 667 L162 667 L4 153 C-10 101 -25 85 -64 82 L-94 82 L-94 0 L176 0 L176 82 L138 82 C104 82 93 88 93 108 C93 117 95 129 99 142 L122 214 L305 214 L327 145 C331 133 334 119 334 112 C334 88 323 82 280 82 L247 82 L247 0 L568 0 L568 82 Z M280 297 L147 297 L213 512 L280 297 Z M84 858 C95 808 106 786 127 764 C155 736 196 720 241 720 C286 720 328 736 356 764 C377 786 387 808 398 858 L353 858 C337 820 308 806 241 806 C175 806 147 819 129 858 L84 858 Z " />
<glyph glyph-name="abreve" unicode="&#x103;" horiz-adv-x="482" d="M492 173 L432 173 L432 120 C432 88 427 74 415 74 C404 74 398 89 398 120 L398 313 C398 393 392 415 361 442 C328 471 278 486 211 486 C90 486 14 436 14 358 C14 313 43 282 86 282 C123 282 153 310 153 345 C153 377 136 397 103 402 C124 423 142 430 173 430 C226 430 261 398 261 350 C261 302 237 281 164 264 C100 249 63 235 38 215 C11 193 -5 157 -5 116 C-5 35 47 -18 128 -18 C184 -18 221 1 270 54 C293 1 321 -17 377 -17 C417 -17 447 -4 467 20 C486 45 492 70 492 127 L492 173 Z M257 169 C257 107 233 72 191 72 C166 72 149 94 149 127 C149 163 162 180 214 209 C221 213 238 224 257 237 L257 169 Z M83 704 C94 649 105 624 127 600 C155 571 196 555 241 555 C286 555 328 572 355 600 C377 623 388 649 399 704 L354 704 C338 659 310 644 241 644 C172 644 146 658 128 704 L83 704 Z " />
<glyph glyph-name="Aogonek" unicode="&#x104;" horiz-adv-x="450" d="M552 0 L552 82 L530 82 C487 81 480 88 459 149 L299 667 L146 667 L-12 153 C-26 101 -41 85 -80 82 L-110 82 L-110 0 L160 0 L160 82 L122 82 C87 82 77 88 77 109 C77 116 79 130 83 142 L106 214 L289 214 L311 145 C315 133 318 119 318 111 C318 88 306 82 264 82 L231 82 L231 0 L493 0 C424 -49 388 -101 388 -152 C388 -198 417 -227 464 -227 C510 -227 542 -200 568 -140 L553 -130 C534 -160 528 -164 510 -164 C488 -164 476 -146 476 -113 C476 -75 492 -39 527 0 L552 0 Z M264 297 L131 297 L197 512 L264 297 Z " />
<glyph glyph-name="aogonek" unicode="&#x105;" horiz-adv-x="450" d="M476 173 L416 173 L416 120 C416 88 411 74 400 74 C388 74 382 88 382 120 L382 313 C382 393 376 415 345 442 C312 471 262 486 195 486 C74 486 -2 436 -2 357 C-2 313 28 282 69 282 C107 282 137 310 137 345 C137 377 120 397 87 402 C108 423 126 430 158 430 C210 430 245 398 245 350 C245 302 221 281 148 264 C84 249 47 235 22 215 C-5 193 -21 157 -21 116 C-21 35 31 -18 112 -18 C167 -18 205 1 254 54 C275 6 296 -11 345 -16 C297 -60 274 -100 274 -142 C274 -189 302 -217 349 -217 C394 -217 427 -190 452 -131 L437 -120 C419 -149 412 -154 394 -154 C372 -154 360 -136 360 -103 C360 -63 376 -32 407 -10 L451 20 C455 23 459 28 462 34 C471 49 476 81 476 127 L476 173 Z M241 169 C241 107 217 72 175 72 C150 72 133 94 133 127 C133 163 146 180 198 209 C205 213 222 224 241 237 L241 169 Z " />
<glyph glyph-name="Cacute" unicode="&#x106;" horiz-adv-x="473" d="M432 258 C427 195 420 168 403 136 C379 94 337 69 289 69 C190 69 132 166 132 333 C132 502 190 599 291 599 C337 599 374 577 401 535 C423 502 431 472 438 404 L515 404 L515 675 L443 675 L426 621 C357 672 318 687 252 687 C76 687 -54 536 -54 334 C-54 228 -20 135 42 70 C100 10 171 -19 262 -19 C361 -19 424 11 470 80 C500 125 511 166 517 258 L432 258 Z M195 721 L332 772 C359 782 376 801 376 822 C376 847 355 868 330 868 C313 868 300 861 278 842 L141 721 L195 721 Z " />
<glyph glyph-name="cacute" unicode="&#x107;" horiz-adv-x="476" d="M351 179 C341 100 317 69 267 69 C211 69 183 126 183 242 C183 353 215 410 276 410 C301 410 316 403 342 379 C303 370 286 348 286 310 C286 267 316 236 357 236 C406 236 439 274 439 331 C439 421 363 487 260 487 C199 487 141 464 98 423 C50 376 26 313 26 230 C26 79 113 -18 248 -18 C318 -18 373 9 402 57 C422 89 429 117 430 179 L351 179 Z M170 540 L225 540 L384 619 C420 637 434 653 434 677 C434 707 411 730 381 730 C357 730 338 718 305 683 L170 540 Z " />
<glyph glyph-name="Ccaron" unicode="&#x10c;" horiz-adv-x="481" d="M436 258 C431 195 424 168 407 136 C383 94 341 69 293 69 C194 69 136 166 136 333 C136 502 194 599 295 599 C341 599 378 577 405 535 C427 502 435 472 442 404 L519 404 L519 675 L447 675 L430 621 C361 672 322 687 256 687 C80 687 -50 536 -50 334 C-50 228 -16 135 46 70 C104 10 175 -19 266 -19 C365 -19 428 11 474 80 C504 125 515 166 521 258 L436 258 Z M86 858 L183 720 L298 720 L395 858 L348 858 L240 803 L133 858 L86 858 Z " />
<glyph glyph-name="ccaron" unicode="&#x10d;" horiz-adv-x="481" d="M353 179 C343 100 319 69 269 69 C213 69 185 126 185 242 C185 353 217 410 278 410 C303 410 318 403 344 379 C305 370 288 348 288 310 C288 267 318 236 359 236 C408 236 441 274 441 331 C441 421 365 487 262 487 C201 487 143 464 100 423 C52 376 28 313 28 230 C28 79 115 -18 250 -18 C320 -18 375 9 404 57 C424 89 431 117 432 179 L353 179 Z M396 719 L347 719 L240 636 L133 719 L85 719 L195 540 L285 540 L396 719 Z " />
<glyph glyph-name="Dcaron" unicode="&#x10e;" horiz-adv-x="481" d="M-101 0 L217 0 C339 0 410 21 468 73 C533 130 565 218 565 334 C565 450 533 538 468 595 C410 647 339 667 217 667 L-101 667 L-101 586 L-71 586 C-26 587 -20 579 -20 524 L-20 144 C-20 89 -26 81 -71 82 L-101 82 L-101 0 Z M143 83 L143 585 L215 585 C277 585 323 563 345 521 C367 480 379 415 379 334 C379 253 367 187 345 147 C323 106 276 83 215 83 L143 83 Z M18 858 L114 720 L230 720 L326 858 L280 858 L172 803 L65 858 L18 858 Z " />
<glyph glyph-name="dcaron" unicode="&#x10f;" horiz-adv-x="465" d="M291 394 C254 460 219 483 156 483 C44 483 -22 392 -22 235 C-22 76 45 -17 159 -17 C194 -17 229 -7 255 12 C273 25 285 41 303 75 L303 0 L495 0 L495 70 L473 70 C438 73 434 80 434 130 L434 667 L205 667 L205 593 L224 593 C283 591 291 584 291 534 L291 394 Z M215 393 C239 393 258 382 273 358 C290 330 295 301 295 233 C295 121 268 67 214 67 C161 67 135 120 135 231 C135 342 160 393 215 393 L215 393 Z M506 447 C547 452 572 462 594 482 C620 506 636 545 636 585 C636 638 603 674 554 674 C515 674 487 647 487 610 C487 576 510 555 546 555 C554 555 561 556 574 560 C568 516 549 497 506 491 L506 447 Z " />
<glyph glyph-name="Dcroat" unicode="&#x110;" horiz-adv-x="729" d="M20 0 L336 0 C459 0 530 21 589 73 C653 130 686 218 686 333 C686 449 653 538 589 595 C531 647 459 667 336 667 L20 667 L20 586 L51 586 C97 587 103 579 103 524 L103 381 L0 381 L0 305 L103 305 L103 143 C103 89 97 81 51 82 L20 82 L20 0 Z M266 83 L266 305 L388 305 L388 381 L266 381 L266 585 L335 585 C397 585 444 562 466 521 C488 480 500 414 500 333 C500 252 488 186 466 146 C444 106 396 83 335 83 L266 83 Z " />
<glyph glyph-name="dcroat" unicode="&#x111;" horiz-adv-x="554" d="M335 508 L335 394 C298 460 264 483 199 483 C87 483 22 392 22 235 C22 76 89 -17 203 -17 C238 -17 273 -7 299 12 C317 25 329 41 347 75 L347 0 L539 0 L539 70 L517 70 C482 73 478 80 478 130 L478 508 L529 508 L529 576 L478 576 L478 667 L249 667 L249 593 L268 593 C301 593 322 587 328 576 L208 576 L208 508 L335 508 Z M259 393 C284 393 302 382 317 358 C334 330 339 300 339 233 C339 121 312 67 258 67 C205 67 179 120 179 231 C179 342 204 393 259 393 L259 393 Z " />
<glyph glyph-name="Emacron" unicode="&#x112;" horiz-adv-x="479" d="M514 667 L-78 667 L-78 585 L-47 585 C-1 586 5 578 5 524 L5 143 C5 89 -1 81 -47 82 L-78 82 L-78 0 L513 0 L513 279 L439 279 C429 115 397 79 269 82 L168 82 L168 306 L199 306 C255 305 273 284 274 213 L274 182 L347 182 L347 500 L274 500 C271 405 262 390 199 389 L168 389 L168 585 L278 585 C402 588 430 558 441 408 L514 408 L514 667 Z M95 750 L384 750 L384 829 L95 829 L95 750 Z " />
<glyph glyph-name="emacron" unicode="&#x113;" horiz-adv-x="480" d="M359 161 C345 95 317 69 261 69 C225 69 200 82 184 109 C168 136 163 160 162 218 L456 218 C454 317 440 368 404 414 C366 462 309 488 242 488 C108 488 19 384 19 228 C19 79 107 -18 243 -18 C314 -18 372 8 409 55 C431 84 440 108 447 161 L359 161 Z M164 294 C165 337 169 356 180 375 C192 397 214 409 242 409 C269 409 291 397 304 375 C315 356 319 337 320 294 L164 294 Z M91 588 L389 588 L389 670 L91 670 L91 588 Z " />
<glyph glyph-name="Edotaccent" unicode="&#x116;" horiz-adv-x="464" d="M507 667 L-85 667 L-85 585 L-54 585 C-8 586 -2 578 -2 524 L-2 143 C-2 89 -8 81 -54 82 L-85 82 L-85 0 L506 0 L506 279 L432 279 C422 115 390 79 262 82 L161 82 L161 306 L192 306 C248 305 266 284 267 213 L267 182 L340 182 L340 500 L267 500 C264 405 255 390 192 389 L161 389 L161 585 L271 585 C395 588 423 558 434 408 L507 408 L507 667 Z M233 862 C196 862 162 829 162 792 C162 753 194 721 233 721 C271 721 303 753 303 791 C303 829 270 862 233 862 L233 862 Z " />
<glyph glyph-name="edotaccent" unicode="&#x117;" horiz-adv-x="464" d="M351 161 C337 95 309 69 253 69 C217 69 192 82 176 109 C160 136 155 160 154 218 L448 218 C446 317 432 368 396 414 C358 462 301 488 234 488 C100 488 11 384 11 228 C11 79 99 -18 235 -18 C306 -18 364 8 401 55 C423 84 432 108 439 161 L351 161 Z M156 294 C157 337 161 356 172 375 C184 397 206 409 234 409 C261 409 283 397 296 375 C307 356 311 337 312 294 L156 294 Z M234 702 C195 702 160 668 160 631 C160 590 193 557 234 557 C274 557 305 589 305 629 C305 669 273 702 234 702 L234 702 Z " />
<glyph glyph-name="Eogonek" unicode="&#x118;" horiz-adv-x="450" d="M499 0 L499 279 L425 279 C415 115 383 79 255 82 L154 82 L154 306 L185 306 C241 305 259 284 260 213 L260 182 L333 182 L333 500 L260 500 C257 405 248 390 185 389 L154 389 L154 585 L264 585 C388 588 416 558 427 408 L500 408 L500 667 L-92 667 L-92 585 L-61 585 C-15 586 -9 578 -9 524 L-9 143 C-9 89 -15 81 -61 82 L-92 82 L-92 0 L443 0 C375 -48 338 -101 338 -152 C338 -198 367 -227 414 -227 C459 -227 491 -200 517 -140 L502 -130 C483 -160 478 -164 460 -164 C438 -164 426 -146 426 -113 C426 -74 442 -38 476 0 L499 0 Z " />
<glyph glyph-name="eogonek" unicode="&#x119;" horiz-adv-x="450" d="M344 161 C330 95 302 69 246 69 C210 69 185 82 169 109 C153 136 148 160 147 218 L441 218 C439 317 425 368 389 414 C351 462 294 488 227 488 C93 488 4 384 4 228 C4 79 92 -18 228 -18 C239 -18 249 -17 261 -16 C206 -60 178 -107 178 -152 C178 -198 206 -227 253 -227 C298 -227 329 -201 356 -140 L341 -130 C322 -159 316 -164 298 -164 C276 -164 264 -146 264 -114 C264 -95 270 -71 279 -51 C289 -29 300 -16 327 2 C409 59 420 75 432 161 L344 161 Z M149 294 C150 337 154 356 165 375 C177 397 199 409 227 409 C254 409 276 397 289 375 C300 356 304 337 305 294 L149 294 Z " />
<glyph glyph-name="Ecaron" unicode="&#x11a;" horiz-adv-x="481" d="M515 667 L-77 667 L-77 585 L-46 585 C0 586 6 578 6 524 L6 143 C6 89 0 81 -46 82 L-77 82 L-77 0 L514 0 L514 279 L440 279 C430 115 398 79 270 82 L169 82 L169 306 L200 306 C256 305 274 284 275 213 L275 182 L348 182 L348 500 L275 500 C272 405 263 390 200 389 L169 389 L169 585 L279 585 C403 588 431 558 442 408 L515 408 L515 667 Z M86 858 L182 720 L298 720 L394 858 L348 858 L240 803 L133 858 L86 858 Z " />
<glyph glyph-name="ecaron" unicode="&#x11b;" horiz-adv-x="481" d="M359 161 C345 95 317 69 261 69 C225 69 200 82 184 109 C168 136 163 160 162 218 L456 218 C454 317 440 368 404 414 C366 462 309 488 242 488 C108 488 19 384 19 228 C19 79 107 -18 243 -18 C314 -18 372 8 409 55 C431 84 440 108 447 161 L359 161 Z M164 294 C165 337 169 356 180 375 C192 397 214 409 242 409 C269 409 291 397 304 375 C315 356 319 337 320 294 L164 294 Z M396 719 L347 719 L240 636 L133 719 L84 719 L195 540 L285 540 L396 719 Z " />
<glyph glyph-name="Gbreve" unicode="&#x11e;" horiz-adv-x="481" d="M574 273 L574 354 L261 354 L261 273 L305 273 C345 272 349 268 349 222 L349 168 C349 133 346 122 334 105 C317 83 288 69 255 69 C161 69 105 167 105 333 C105 502 162 599 261 599 C306 599 343 577 369 535 C391 501 399 472 406 404 L488 404 L488 675 L411 675 L393 621 C325 672 286 687 221 687 C47 687 -81 536 -81 332 C-81 124 42 -20 220 -20 C289 -20 330 -4 397 47 L430 -7 L512 -7 L512 229 C513 264 519 273 547 273 L574 273 Z M53 858 C64 808 74 786 96 764 C124 736 164 720 209 720 C254 720 296 736 324 764 C346 786 356 808 366 858 L321 858 C306 820 276 806 210 806 C143 806 115 819 98 858 L53 858 Z " />
<glyph glyph-name="gbreve" unicode="&#x11f;" horiz-adv-x="482" d="M56 165 C1 138 -18 113 -18 68 C-18 22 1 -4 52 -27 C-6 -45 -27 -67 -27 -110 C-27 -179 48 -214 197 -214 C373 -214 456 -163 456 -56 C456 30 401 74 293 74 C285 74 267 74 247 73 C218 72 192 72 182 72 C101 72 87 77 87 107 C87 119 90 126 100 139 C141 124 159 120 192 120 C314 120 393 188 393 293 C393 338 385 369 363 404 C387 429 403 439 418 439 C425 439 434 436 447 428 C423 416 412 398 412 373 C412 341 437 316 469 316 C506 316 530 345 530 389 C530 444 489 484 432 484 C398 484 377 474 338 440 C290 475 255 486 198 486 C77 486 -1 415 -1 306 C-1 252 15 213 56 165 L56 165 Z M197 420 C234 420 247 388 247 299 C247 213 233 181 195 181 C161 181 145 219 145 296 C145 385 160 420 197 420 L197 420 Z M214 -46 C243 -46 282 -49 306 -52 C350 -58 364 -69 364 -97 C364 -135 316 -152 208 -152 C101 -152 60 -136 60 -95 C60 -72 73 -59 106 -53 C126 -49 176 -46 214 -46 L214 -46 Z M53 704 C64 649 75 624 97 600 C125 571 166 555 211 555 C256 555 298 572 326 600 C348 623 358 649 369 704 L324 704 C308 659 281 644 211 644 C142 644 116 658 98 704 L53 704 Z " />
<glyph glyph-name="Gcommaaccent" unicode="&#x122;" horiz-adv-x="465" d="M566 273 L566 354 L253 354 L253 273 L297 273 C337 272 341 268 341 222 L341 168 C341 133 338 122 326 105 C309 83 280 69 247 69 C153 69 97 167 97 333 C97 502 154 599 253 599 C298 599 335 577 361 535 C383 501 391 472 398 404 L480 404 L480 675 L403 675 L385 621 C317 672 278 687 213 687 C39 687 -89 536 -89 332 C-89 124 34 -20 212 -20 C281 -20 322 -4 389 47 L422 -7 L504 -7 L504 229 C505 264 511 273 539 273 L566 273 Z M176 -281 C217 -276 241 -267 264 -246 C290 -222 306 -183 306 -143 C306 -90 273 -54 224 -54 C185 -54 157 -80 157 -118 C157 -152 180 -173 216 -173 C223 -173 230 -172 244 -168 C238 -212 219 -231 176 -237 L176 -281 Z " />
<glyph glyph-name="gcommaaccent" unicode="&#x123;" horiz-adv-x="465" d="M47 165 C-8 138 -27 113 -27 68 C-27 22 -8 -4 43 -27 C-15 -45 -36 -67 -36 -110 C-36 -179 39 -214 188 -214 C364 -214 447 -163 447 -56 C447 30 392 74 284 74 C276 74 258 74 238 73 C209 72 183 72 173 72 C92 72 78 77 78 107 C78 119 81 126 91 139 C132 124 150 120 183 120 C305 120 384 188 384 293 C384 338 376 369 354 404 C378 429 394 439 409 439 C416 439 425 436 438 428 C414 416 403 398 403 373 C403 341 428 316 460 316 C497 316 521 345 521 389 C521 444 480 484 423 484 C389 484 368 474 329 440 C281 475 246 486 189 486 C68 486 -10 415 -10 306 C-10 252 6 213 47 165 L47 165 Z M188 420 C225 420 238 388 238 299 C238 213 224 181 186 181 C152 181 136 219 136 296 C136 385 151 420 188 420 L188 420 Z M205 -46 C234 -46 273 -49 297 -52 C341 -58 355 -69 355 -97 C355 -135 307 -152 199 -152 C92 -152 51 -136 51 -95 C51 -72 64 -59 97 -53 C117 -49 167 -46 205 -46 L205 -46 Z M255 753 C214 748 189 738 167 718 C141 693 125 655 125 614 C125 561 158 525 207 525 C246 525 274 552 274 589 C274 623 251 645 215 645 C207 645 200 644 187 640 C193 684 212 703 255 709 L255 753 Z " />
<glyph glyph-name="Imacron" unicode="&#x12a;" horiz-adv-x="479" d="M74 0 L405 0 L405 82 L372 82 C326 81 320 88 320 143 L320 524 C320 579 326 586 372 585 L405 585 L405 667 L74 667 L74 585 L105 585 C151 586 157 579 157 524 L157 143 C157 88 151 81 105 82 L74 82 L74 0 Z M95 750 L384 750 L384 829 L95 829 L95 750 Z " />
<glyph glyph-name="imacron" unicode="&#x12b;" horiz-adv-x="480" d="M379 74 L354 74 C317 76 312 83 312 133 L312 469 L103 469 L103 395 L130 395 C170 393 176 386 177 336 L177 133 C176 83 170 76 130 74 L103 74 L103 0 L379 0 L379 74 Z M91 588 L389 588 L389 670 L91 670 L91 588 Z " />
<glyph glyph-name="Iogonek" unicode="&#x12e;" horiz-adv-x="450" d="M391 0 L391 82 L358 82 C312 81 306 88 306 143 L306 524 C306 579 312 586 358 585 L391 585 L391 667 L60 667 L60 585 L91 585 C137 586 143 579 143 524 L143 143 C143 88 137 81 91 82 L60 82 L60 0 L313 0 C244 -48 208 -101 208 -152 C208 -198 237 -227 284 -227 C330 -227 361 -200 388 -140 L372 -130 C353 -160 348 -164 330 -164 C308 -164 296 -146 296 -113 C296 -75 312 -38 346 0 L391 0 Z " />
<glyph glyph-name="iogonek" unicode="&#x12f;" horiz-adv-x="317" d="M297 0 L297 74 L272 74 C236 76 231 83 231 133 L231 469 L22 469 L22 395 L49 395 C89 393 95 386 96 336 L96 133 C95 83 89 76 49 74 L22 74 L22 0 L238 0 C171 -48 134 -101 134 -152 C134 -198 163 -227 210 -227 C255 -227 287 -201 313 -140 L298 -130 C279 -160 274 -164 256 -164 C234 -164 222 -146 222 -113 C222 -75 238 -37 272 0 L297 0 Z M152 667 C108 667 74 633 74 589 C74 546 108 512 151 512 C195 512 229 546 229 590 C229 632 194 667 152 667 L152 667 Z " />
<glyph glyph-name="Idotaccent" unicode="&#x130;" horiz-adv-x="464" d="M67 0 L398 0 L398 82 L365 82 C319 81 313 88 313 143 L313 524 C313 579 319 586 365 585 L398 585 L398 667 L67 667 L67 585 L98 585 C144 586 150 579 150 524 L150 143 C150 88 144 81 98 82 L67 82 L67 0 Z M233 862 C196 862 162 829 162 792 C162 753 194 721 233 721 C271 721 303 753 303 791 C303 829 270 862 233 862 L233 862 Z " />
<glyph glyph-name="dotlessi" unicode="&#x131;" horiz-adv-x="317" d="M297 74 L272 74 C236 76 231 83 231 133 L231 469 L22 469 L22 395 L49 395 C89 393 95 386 96 336 L96 133 C95 83 89 76 49 74 L22 74 L22 0 L297 0 L297 74 Z " />
<glyph glyph-name="Kcommaaccent" unicode="&#x136;" horiz-adv-x="465" d="M212 667 L-105 667 L-105 585 L-74 585 C-28 586 -22 578 -22 524 L-22 143 C-22 88 -28 81 -74 82 L-105 82 L-105 0 L211 0 L211 82 L189 82 C144 81 138 88 138 143 L138 225 L227 319 L342 122 C347 112 350 105 350 100 C350 87 336 82 305 82 L272 82 L272 0 L601 0 L601 82 L568 82 C541 82 525 93 506 124 L329 418 L451 536 C489 572 516 585 546 585 L569 585 L569 667 L271 667 L271 585 L309 585 C332 585 340 581 340 569 C340 563 336 555 328 547 L138 351 L138 524 C138 578 144 586 189 585 L212 585 L212 667 Z M176 -281 C217 -276 241 -267 264 -246 C290 -222 306 -183 306 -143 C306 -90 273 -54 224 -54 C185 -54 157 -80 157 -118 C157 -152 180 -173 216 -173 C223 -173 230 -172 244 -168 C238 -212 219 -231 176 -237 L176 -281 Z " />
<glyph glyph-name="kcommaaccent" unicode="&#x137;" horiz-adv-x="465" d="M-47 593 L-20 593 C20 591 26 584 27 534 L27 133 C26 83 20 76 -20 74 L-47 74 L-47 0 L209 0 L209 74 L199 74 C165 78 162 82 162 143 L232 215 L295 115 C302 104 305 95 305 89 C305 79 295 74 280 74 L252 74 L252 0 L512 0 L512 74 L497 74 C470 73 444 93 424 128 L324 295 L384 352 C415 383 430 391 461 395 L483 395 L483 469 L220 469 L220 395 L275 395 C291 395 297 393 297 385 C297 379 292 372 282 362 L162 243 L162 667 L-47 667 L-47 593 Z M176 -281 C217 -276 241 -267 264 -246 C290 -222 306 -183 306 -143 C306 -90 273 -54 224 -54 C185 -54 157 -80 157 -118 C157 -152 180 -173 216 -173 C223 -173 230 -172 244 -168 C238 -212 219 -231 176 -237 L176 -281 Z " />
<glyph glyph-name="Lacute" unicode="&#x139;" horiz-adv-x="473" d="M281 667 L-54 667 L-54 585 L-23 585 C23 586 29 578 29 524 L29 143 C29 89 23 81 -23 82 L-54 82 L-54 0 L511 0 L511 279 L437 279 C428 116 399 79 279 82 L192 82 L192 524 C192 578 198 586 244 585 L281 585 L281 667 Z M195 721 L332 772 C360 782 376 801 376 822 C376 847 355 868 330 868 C313 868 300 861 278 842 L141 721 L195 721 Z " />
<glyph glyph-name="lacute" unicode="&#x13a;" horiz-adv-x="476" d="M309 667 L100 667 L100 593 L127 593 C167 591 173 584 174 534 L174 133 C173 83 167 76 127 74 L100 74 L100 0 L375 0 L375 74 L351 74 C314 76 309 83 309 133 L309 667 Z M220 739 L275 739 L434 818 C470 836 484 852 484 876 C484 906 461 929 431 929 C407 929 388 917 355 882 L220 739 Z " />
<glyph glyph-name="Lcommaaccent" unicode="&#x13b;" horiz-adv-x="465" d="M277 667 L-58 667 L-58 585 L-27 585 C19 586 25 578 25 524 L25 143 C25 89 19 81 -27 82 L-58 82 L-58 0 L507 0 L507 279 L433 279 C424 116 395 79 275 82 L188 82 L188 524 C188 578 194 586 240 585 L277 585 L277 667 Z M176 -281 C217 -276 241 -267 264 -246 C290 -222 306 -183 306 -143 C306 -90 273 -54 224 -54 C185 -54 157 -80 157 -118 C157 -152 180 -173 216 -173 C223 -173 230 -172 244 -168 C238 -212 219 -231 176 -237 L176 -281 Z " />
<glyph glyph-name="lcommaaccent" unicode="&#x13c;" horiz-adv-x="465" d="M303 667 L94 667 L94 593 L121 593 C161 591 167 584 168 534 L168 133 C167 83 161 76 121 74 L94 74 L94 0 L369 0 L369 74 L345 74 C308 76 303 83 303 133 L303 667 Z M176 -281 C217 -276 241 -267 264 -246 C290 -222 306 -183 306 -143 C306 -90 273 -54 224 -54 C185 -54 157 -80 157 -118 C157 -152 180 -173 216 -173 C223 -173 230 -172 244 -168 C238 -212 219 -231 176 -237 L176 -281 Z " />
<glyph glyph-name="Lcaron" unicode="&#x13d;" horiz-adv-x="450" d="M270 667 L-65 667 L-65 585 L-34 585 C12 586 18 578 18 524 L18 143 C18 89 12 81 -34 82 L-65 82 L-65 0 L500 0 L500 279 L426 279 C417 116 388 79 268 82 L181 82 L181 524 C181 578 187 586 233 585 L270 585 L270 667 Z M346 453 C383 458 405 467 425 488 C449 512 463 551 463 591 C463 644 433 680 389 680 C354 680 329 654 329 616 C329 582 349 561 382 561 C389 561 395 562 408 566 C402 522 384 503 346 497 L346 453 Z " />
<glyph glyph-name="lcaron" unicode="&#x13e;" horiz-adv-x="465" d="M303 667 L94 667 L94 593 L121 593 C161 591 167 584 168 534 L168 133 C167 83 161 76 121 74 L94 74 L94 0 L369 0 L369 74 L345 74 C308 76 303 83 303 133 L303 667 Z M362 451 C403 456 427 466 450 486 C476 511 492 549 492 590 C492 643 459 679 410 679 C371 679 343 652 343 615 C343 581 366 559 402 559 C410 559 417 560 430 564 C424 520 405 501 362 495 L362 451 Z " />
<glyph glyph-name="Lslash" unicode="&#x141;" horiz-adv-x="626" d="M358 667 L23 667 L23 585 L54 585 C100 586 106 578 106 524 L106 324 L4 242 L4 154 L106 236 L106 143 C106 89 100 81 54 82 L23 82 L23 0 L588 0 L588 279 L514 279 C505 116 476 79 356 82 L269 82 L269 305 L412 419 L412 507 L269 393 L269 524 C269 578 275 586 321 585 L358 585 L358 667 Z " />
<glyph glyph-name="lslash" unicode="&#x142;" horiz-adv-x="313" d="M95 280 L95 133 C94 83 88 76 48 74 L21 74 L21 0 L296 0 L296 74 L272 74 C235 76 230 83 230 133 L230 334 L321 406 L321 476 L230 404 L230 667 L21 667 L21 593 L48 593 C88 591 94 584 95 534 L95 350 L4 283 L4 213 L95 280 Z " />
<glyph glyph-name="Nacute" unicode="&#x143;" horiz-adv-x="473" d="M170 82 L132 82 C84 81 78 89 78 143 L78 522 L343 0 L505 0 L505 524 C505 578 511 586 558 585 L583 585 L583 667 L304 667 L304 585 L342 585 C390 586 396 578 396 524 L396 191 L153 667 L-112 667 L-112 585 L-84 585 C-37 586 -31 578 -31 524 L-31 143 C-31 89 -37 81 -84 82 L-112 82 L-112 0 L170 0 L170 82 Z M195 721 L333 772 C359 782 376 801 376 822 C376 847 355 868 330 868 C313 868 300 861 278 842 L141 721 L195 721 Z " />
<glyph glyph-name="nacute" unicode="&#x144;" horiz-adv-x="476" d="M256 0 L516 0 L516 74 L499 74 C459 76 453 83 453 133 L453 311 C453 382 444 418 421 443 C398 469 358 484 315 484 C254 484 219 462 161 385 L161 469 L-39 469 L-39 395 L-16 395 C21 393 26 386 27 336 L27 133 C26 83 21 76 -16 74 L-39 74 L-39 0 L224 0 L224 74 L210 74 C175 76 170 83 170 133 L170 272 C170 349 204 401 255 401 C275 401 291 392 300 376 C308 361 310 347 310 309 L310 133 C310 83 305 76 270 74 L256 74 L256 0 Z M137 540 L192 540 L350 619 C386 637 400 653 400 677 C400 707 377 730 347 730 C323 730 304 718 271 683 L137 540 Z " />
<glyph glyph-name="Ncommaaccent" unicode="&#x145;" horiz-adv-x="465" d="M166 82 L128 82 C80 81 74 89 74 143 L74 522 L339 0 L501 0 L501 524 C501 578 507 586 554 585 L579 585 L579 667 L300 667 L300 585 L338 585 C386 586 392 578 392 524 L392 191 L149 667 L-116 667 L-116 585 L-88 585 C-41 586 -35 578 -35 524 L-35 143 C-35 89 -41 81 -88 82 L-116 82 L-116 0 L166 0 L166 82 Z M176 -281 C217 -276 241 -267 264 -246 C290 -222 306 -183 306 -143 C306 -90 273 -54 224 -54 C185 -54 157 -80 157 -118 C157 -152 180 -173 216 -173 C223 -173 230 -172 244 -168 C238 -212 219 -231 176 -237 L176 -281 Z " />
<glyph glyph-name="ncommaaccent" unicode="&#x146;" horiz-adv-x="465" d="M250 0 L510 0 L510 74 L493 74 C453 76 447 83 447 133 L447 311 C447 382 438 418 415 443 C392 469 352 484 309 484 C248 484 213 462 155 385 L155 469 L-45 469 L-45 395 L-22 395 C15 393 20 386 21 336 L21 133 C20 83 15 76 -22 74 L-45 74 L-45 0 L218 0 L218 74 L204 74 C169 76 164 83 164 133 L164 272 C164 349 198 401 249 401 C269 401 285 392 294 376 C302 361 304 347 304 309 L304 133 C304 83 299 76 264 74 L250 74 L250 0 Z M176 -281 C217 -276 241 -267 264 -246 C290 -222 306 -183 306 -143 C306 -90 273 -54 224 -54 C185 -54 157 -80 157 -118 C157 -152 180 -173 216 -173 C223 -173 230 -172 244 -168 C238 -212 219 -231 176 -237 L176 -281 Z " />
<glyph glyph-name="Ncaron" unicode="&#x147;" horiz-adv-x="481" d="M174 82 L136 82 C88 81 82 89 82 143 L82 522 L347 0 L509 0 L509 524 C509 578 515 586 562 585 L587 585 L587 667 L308 667 L308 585 L346 585 C394 586 400 578 400 524 L400 191 L157 667 L-108 667 L-108 585 L-80 585 C-33 586 -27 578 -27 524 L-27 143 C-27 89 -33 81 -80 82 L-108 82 L-108 0 L174 0 L174 82 Z M86 858 L183 720 L298 720 L395 858 L348 858 L240 803 L133 858 L86 858 Z " />
<glyph glyph-name="ncaron" unicode="&#x148;" horiz-adv-x="481" d="M259 0 L519 0 L519 74 L502 74 C462 76 456 83 456 133 L456 311 C456 382 447 418 424 443 C401 469 361 484 318 484 C257 484 222 462 164 385 L164 469 L-36 469 L-36 395 L-13 395 C24 393 29 386 30 336 L30 133 C29 83 24 76 -13 74 L-36 74 L-36 0 L227 0 L227 74 L213 74 C178 76 173 83 173 133 L173 272 C173 349 207 401 258 401 C278 401 294 392 303 376 C311 361 313 347 313 309 L313 133 C313 83 308 76 273 74 L259 74 L259 0 Z M397 719 L348 719 L241 636 L134 719 L85 719 L196 540 L286 540 L397 719 Z " />
<glyph glyph-name="Omacron" unicode="&#x14c;" horiz-adv-x="479" d="M239 686 C40 686 -94 544 -94 334 C-94 125 40 -19 234 -19 C439 -19 572 120 572 335 C572 545 438 686 239 686 L239 686 Z M241 599 C284 599 325 571 350 523 C375 477 386 418 386 333 C386 167 332 69 239 69 C147 69 92 167 92 332 C92 418 103 474 128 523 C154 573 193 599 241 599 L241 599 Z M95 750 L384 750 L384 829 L95 829 L95 750 Z " />
<glyph glyph-name="omacron" unicode="&#x14d;" horiz-adv-x="480" d="M240 486 C95 486 -2 386 -2 238 C-2 82 92 -17 241 -17 C386 -17 481 83 481 234 C481 387 386 486 240 486 L240 486 Z M240 409 C296 409 324 351 324 234 C324 117 296 60 240 60 C182 60 155 117 155 237 C155 351 183 409 240 409 L240 409 Z M91 588 L388 588 L388 670 L91 670 L91 588 Z " />
<glyph glyph-name="Ohungarumlaut" unicode="&#x150;" horiz-adv-x="468" d="M234 686 C35 686 -99 544 -99 334 C-99 125 35 -19 229 -19 C434 -19 567 120 567 335 C567 545 433 686 234 686 L234 686 Z M236 599 C279 599 320 571 345 523 C370 477 381 418 381 333 C381 167 327 69 234 69 C142 69 87 167 87 332 C87 418 98 474 123 523 C149 573 188 599 236 599 L236 599 Z M146 721 L241 786 C258 798 268 813 268 828 C268 850 248 869 226 869 C207 869 193 858 177 831 L108 721 L146 721 Z M264 721 L385 783 C409 795 420 809 420 826 C420 848 400 868 378 868 C362 868 347 859 329 838 L226 721 L264 721 Z " />
<glyph glyph-name="ohungarumlaut" unicode="&#x151;" horiz-adv-x="470" d="M236 486 C91 486 -6 386 -6 238 C-6 82 88 -17 237 -17 C382 -17 477 83 477 234 C477 387 382 486 236 486 L236 486 Z M236 409 C292 409 320 351 320 234 C320 117 292 60 236 60 C178 60 151 117 151 237 C151 351 179 409 236 409 L236 409 Z M166 540 L210 540 L318 637 C338 654 348 671 348 687 C348 711 328 731 303 731 C277 731 262 718 237 671 L166 540 Z M282 540 L326 540 L467 631 C493 648 506 665 506 682 C506 708 486 729 460 729 C435 729 422 719 391 680 L282 540 Z " />
<glyph glyph-name="OE" unicode="&#x152;" horiz-adv-x="1081" d="M1031 667 L728 667 C624 667 606 668 507 677 C452 683 398 686 363 686 C167 686 31 542 31 333 C31 124 167 -19 365 -19 C402 -19 450 -16 500 -11 C557 -6 613 -1 624 -1 L743 0 L1030 0 L1030 279 L956 279 C947 116 915 79 788 82 L689 82 L689 306 L719 306 C774 305 791 284 793 213 L793 182 L865 182 L865 500 L793 500 C790 405 781 390 719 389 L689 389 L689 585 L797 585 C921 587 944 562 960 408 L1031 408 L1031 667 Z M525 247 C525 167 518 126 498 102 C480 79 442 66 394 66 C276 66 217 155 217 333 C217 511 277 603 394 603 C441 603 481 589 499 567 C517 543 525 502 525 422 L525 247 Z " />
<glyph glyph-name="oe" unicode="&#x153;" horiz-adv-x="818" d="M695 161 C681 95 653 69 596 69 C560 69 536 82 520 109 C503 136 498 160 497 218 L791 218 C790 300 783 336 760 381 C728 447 660 487 583 487 C526 487 488 471 427 420 C375 468 329 486 259 486 C118 486 22 384 22 234 C22 86 118 -17 258 -17 C328 -17 375 3 427 55 C478 2 520 -17 585 -17 C651 -17 709 9 745 55 C767 84 776 108 782 161 L695 161 Z M500 294 C501 337 504 356 515 375 C528 397 550 409 577 409 C605 409 627 397 640 375 C651 356 654 337 656 294 L500 294 Z M266 409 C322 409 350 351 350 234 C350 117 322 60 266 60 C209 60 181 117 181 236 C181 351 209 409 266 409 L266 409 Z " />
<glyph glyph-name="Racute" unicode="&#x154;" horiz-adv-x="473" d="M-96 585 L-65 585 C-19 586 -13 578 -13 524 L-13 143 C-13 89 -19 81 -65 82 L-96 82 L-96 0 L239 0 L239 82 L202 82 C156 81 150 89 150 143 L150 310 L229 310 C285 313 313 281 315 211 L316 144 C317 74 324 47 346 22 C368 -4 406 -20 445 -20 C504 -20 548 10 567 63 C576 90 578 112 579 188 L515 188 C514 95 509 78 486 78 C468 78 463 91 461 142 L459 212 C454 297 434 323 356 344 C406 359 426 369 449 388 C481 415 499 455 499 504 C499 555 479 600 444 627 C408 655 356 667 275 667 L-96 667 L-96 585 Z M150 390 L150 585 L203 585 C272 585 284 583 303 564 C320 548 329 522 329 489 C329 454 319 425 302 410 C283 394 261 390 199 390 L150 390 Z M195 721 L333 772 C360 782 376 801 376 822 C376 847 355 868 330 868 C314 868 301 862 279 842 L141 721 L195 721 Z " />
<glyph glyph-name="racute" unicode="&#x155;" horiz-adv-x="476" d="M233 469 L37 469 L37 395 L57 395 C94 393 99 386 100 336 L100 133 C99 83 94 76 57 74 L37 74 L37 0 L322 0 L322 74 L285 74 C248 76 243 84 243 133 L243 253 C243 321 249 353 267 383 C282 408 304 423 327 423 C335 423 341 421 352 414 C320 401 307 382 307 349 C307 312 333 285 369 285 C414 285 445 322 445 376 C445 440 405 482 344 482 C296 482 266 462 233 408 L233 469 Z M137 540 L192 540 L350 619 C386 637 400 653 400 677 C400 707 377 730 347 730 C323 730 304 718 271 683 L137 540 Z " />
<glyph glyph-name="Rcommaaccent" unicode="&#x156;" horiz-adv-x="465" d="M-100 585 L-69 585 C-23 586 -17 578 -17 524 L-17 143 C-17 89 -23 81 -69 82 L-100 82 L-100 0 L235 0 L235 82 L198 82 C152 81 146 89 146 143 L146 310 L225 310 C281 313 309 281 311 211 L312 144 C313 74 320 47 342 22 C364 -4 402 -20 441 -20 C500 -20 544 10 563 63 C572 90 574 112 575 188 L511 188 C510 95 505 78 482 78 C464 78 459 91 457 142 L455 212 C450 297 430 323 352 344 C402 359 422 369 445 388 C477 415 495 455 495 504 C495 555 475 600 440 627 C404 655 352 667 271 667 L-100 667 L-100 585 Z M146 390 L146 585 L199 585 C268 585 280 583 299 564 C316 548 325 522 325 489 C325 454 315 425 298 410 C279 394 257 390 195 390 L146 390 Z M176 -281 C217 -276 241 -267 264 -246 C290 -222 306 -183 306 -143 C306 -90 273 -54 224 -54 C185 -54 157 -80 157 -118 C157 -152 180 -173 216 -173 C223 -173 230 -172 244 -168 C238 -212 219 -231 176 -237 L176 -281 Z " />
<glyph glyph-name="rcommaaccent" unicode="&#x157;" horiz-adv-x="465" d="M227 469 L31 469 L31 395 L51 395 C88 393 93 386 94 336 L94 133 C93 83 88 76 51 74 L31 74 L31 0 L316 0 L316 74 L279 74 C242 76 237 84 237 133 L237 253 C237 321 243 353 261 383 C276 408 298 423 321 423 C329 423 335 421 346 414 C314 401 301 382 301 349 C301 312 327 285 363 285 C408 285 439 322 439 376 C439 440 399 482 338 482 C290 482 260 462 227 408 L227 469 Z M112 -281 C153 -276 177 -267 200 -246 C226 -222 242 -183 242 -143 C242 -90 209 -54 160 -54 C121 -54 93 -80 93 -118 C93 -152 116 -173 152 -173 C159 -173 166 -172 180 -168 C174 -212 155 -231 112 -237 L112 -281 Z " />
<glyph glyph-name="Rcaron" unicode="&#x158;" horiz-adv-x="481" d="M-92 585 L-61 585 C-15 586 -9 578 -9 524 L-9 143 C-9 89 -15 81 -61 82 L-92 82 L-92 0 L243 0 L243 82 L206 82 C160 81 154 89 154 143 L154 310 L233 310 C289 313 317 281 319 211 L320 144 C321 74 328 47 350 22 C372 -4 410 -20 449 -20 C508 -20 552 10 571 63 C580 90 582 112 583 188 L519 188 C518 95 513 78 490 78 C472 78 467 91 465 142 L463 212 C458 297 438 323 360 344 C410 359 430 369 453 388 C485 415 503 455 503 504 C503 555 483 600 448 627 C412 655 360 667 279 667 L-92 667 L-92 585 Z M154 390 L154 585 L207 585 C276 585 288 583 307 564 C324 548 333 522 333 489 C333 454 323 425 306 410 C287 394 265 390 203 390 L154 390 Z M87 858 L183 720 L299 720 L395 858 L348 858 L241 803 L133 858 L87 858 Z " />
<glyph glyph-name="rcaron" unicode="&#x159;" horiz-adv-x="481" d="M235 469 L39 469 L39 395 L59 395 C96 393 101 386 102 336 L102 133 C101 83 96 76 59 74 L39 74 L39 0 L324 0 L324 74 L287 74 C250 76 245 84 245 133 L245 253 C245 321 251 353 269 383 C284 408 306 423 329 423 C337 423 343 421 354 414 C322 401 309 382 309 349 C309 312 335 285 371 285 C416 285 447 322 447 376 C447 440 407 482 346 482 C298 482 268 462 235 408 L235 469 Z M396 719 L347 719 L240 636 L133 719 L84 719 L195 540 L285 540 L396 719 Z " />
<glyph glyph-name="Sacute" unicode="&#x15a;" horiz-adv-x="473" d="M54 -5 L75 49 C143 -3 190 -20 268 -20 C416 -20 513 67 513 201 C513 265 487 321 442 352 C406 378 350 399 261 421 C157 448 132 466 132 517 C132 567 169 597 229 597 C277 597 323 578 353 546 C380 518 391 488 402 421 L478 421 L478 669 L412 669 L390 623 C324 671 282 686 213 686 C73 686 -21 600 -21 473 C-21 411 4 356 45 326 C79 301 133 281 227 256 C331 229 357 210 357 157 C357 107 314 74 249 74 C201 74 156 92 122 126 C90 158 76 190 62 262 L-16 262 L-16 -5 L54 -5 Z M195 721 L333 772 C360 782 376 801 376 822 C376 847 355 868 330 868 C313 868 300 862 278 842 L141 721 L195 721 Z " />
<glyph glyph-name="sacute" unicode="&#x15b;" horiz-adv-x="476" d="M114 30 C171 -5 214 -18 269 -18 C373 -18 446 47 446 139 C446 190 424 234 386 258 C362 272 326 287 275 302 C194 325 182 334 182 365 C182 394 203 412 237 412 C259 412 283 404 302 391 C324 376 339 357 363 314 L423 314 L423 474 L363 474 L349 445 C299 476 264 487 212 487 C108 487 34 423 34 333 C34 290 51 255 83 230 C107 211 144 193 178 182 C264 157 266 156 281 145 C294 135 299 126 299 112 C299 81 274 61 233 61 C203 61 180 69 158 87 C132 108 121 127 106 176 L36 176 L36 -7 L98 -7 L114 30 Z M137 540 L192 540 L350 619 C386 636 400 653 400 677 C400 707 377 730 347 730 C323 730 305 718 272 683 L137 540 Z " />
<glyph glyph-name="Scedilla" unicode="&#x15e;" horiz-adv-x="450" d="M239 -20 L252 -20 C405 -20 501 66 501 202 C501 265 474 322 430 352 C393 378 338 399 248 421 C144 448 119 466 119 517 C119 567 156 597 216 597 C264 597 310 578 341 546 C367 518 379 488 390 421 L466 421 L466 669 L400 669 L377 623 C311 671 269 686 200 686 C60 686 -33 600 -33 472 C-33 412 -8 356 33 326 C67 301 121 281 214 256 C318 229 344 209 344 157 C344 107 301 74 236 74 C188 74 143 92 110 126 C78 158 64 190 50 262 L-28 262 L-28 -5 L42 -5 L63 49 C110 12 150 -7 197 -15 L197 -101 C206 -99 216 -97 221 -97 C243 -97 256 -111 256 -136 C256 -157 242 -171 220 -171 C194 -171 162 -158 124 -132 L104 -181 C177 -218 206 -227 249 -227 C309 -227 349 -191 349 -137 C349 -90 317 -55 275 -55 C265 -55 253 -56 239 -58 L239 -20 Z " />
<glyph glyph-name="scedilla" unicode="&#x15f;" horiz-adv-x="450" d="M234 -17 C242 -18 248 -18 255 -18 C360 -18 433 47 433 139 C433 190 411 234 373 258 C349 273 313 287 261 302 C182 325 169 334 169 365 C169 394 190 412 224 412 C245 412 270 404 289 391 C311 376 326 357 349 314 L410 314 L410 474 L349 474 L336 445 C286 476 251 487 199 487 C95 487 21 423 21 334 C21 290 38 255 70 230 C94 212 131 193 165 183 C252 157 254 157 268 146 C281 136 286 127 286 113 C286 82 260 62 220 62 C190 62 167 70 145 88 C119 109 108 128 93 176 L23 176 L23 -7 L85 -7 L101 30 C136 9 160 -2 192 -10 L192 -99 C201 -97 211 -95 216 -95 C238 -95 251 -110 251 -134 C251 -157 238 -171 215 -171 C189 -171 158 -159 119 -132 L99 -181 C170 -217 201 -227 244 -227 C304 -227 342 -191 342 -136 C342 -88 311 -53 270 -53 C260 -53 247 -54 234 -56 L234 -17 Z " />
<glyph glyph-name="Scaron" unicode="&#x160;" horiz-adv-x="590" d="M112 -5 L133 49 C201 -3 248 -20 326 -20 C474 -20 571 67 571 201 C571 265 545 321 500 352 C464 378 408 399 319 421 C215 448 190 466 190 517 C190 567 227 597 287 597 C335 597 381 578 411 546 C438 518 449 488 460 421 L536 421 L536 669 L470 669 L448 623 C382 671 340 686 271 686 C131 686 37 600 37 473 C37 411 62 356 103 326 C137 301 191 281 285 256 C389 229 415 210 415 157 C415 107 372 74 307 74 C259 74 214 92 180 126 C148 158 134 190 120 262 L42 262 L42 -5 L112 -5 Z M141 858 L237 720 L353 720 L449 858 L402 858 L295 803 L187 858 L141 858 Z " />
<glyph glyph-name="scaron" unicode="&#x161;" horiz-adv-x="487" d="M119 30 C176 -5 219 -18 274 -18 C378 -18 451 47 451 139 C451 190 429 234 391 258 C367 272 331 287 280 302 C199 325 187 334 187 365 C187 394 208 412 242 412 C264 412 288 404 307 391 C329 376 344 357 368 314 L428 314 L428 474 L368 474 L354 445 C304 476 269 487 217 487 C113 487 39 423 39 333 C39 290 56 255 88 230 C112 211 149 193 183 182 C269 157 271 156 286 145 C299 135 304 126 304 112 C304 81 279 61 238 61 C208 61 185 69 163 87 C137 108 126 127 111 176 L41 176 L41 -7 L103 -7 L119 30 Z M399 719 L350 719 L244 636 L136 719 L88 719 L198 540 L288 540 L399 719 Z " />
<glyph glyph-name="Tcommaaccent" unicode="&#x162;" horiz-adv-x="465" d="M151 143 C151 89 145 81 99 82 L62 82 L62 0 L403 0 L403 82 L366 82 C320 81 314 89 314 143 L314 587 C409 588 442 541 443 402 L521 402 L521 667 L-55 667 L-55 402 L22 402 C23 541 56 588 151 587 L151 143 Z M176 -281 C217 -276 241 -267 264 -246 C290 -222 306 -183 306 -143 C306 -90 273 -54 224 -54 C185 -54 157 -80 157 -118 C157 -152 180 -173 216 -173 C223 -173 230 -172 244 -168 C238 -212 219 -231 176 -237 L176 -281 Z " />
<glyph glyph-name="tcommaaccent" unicode="&#x163;" horiz-adv-x="465" d="M306 224 L306 180 C306 99 299 76 275 76 C254 76 248 92 248 144 L248 391 L350 391 L350 469 L241 469 L241 652 L169 652 C156 528 131 488 51 463 L51 391 L106 391 L106 170 C106 93 110 72 127 41 C150 3 190 -17 242 -17 C296 -17 332 1 355 38 C373 67 378 93 378 154 L378 224 L306 224 Z M134 -281 C175 -276 199 -267 222 -246 C248 -222 264 -183 264 -143 C264 -90 231 -54 182 -54 C143 -54 115 -80 115 -118 C115 -152 138 -173 174 -173 C181 -173 188 -172 202 -168 C196 -212 177 -231 134 -237 L134 -281 Z " />
<glyph glyph-name="Tcaron" unicode="&#x164;" horiz-adv-x="481" d="M159 143 C159 89 153 81 107 82 L70 82 L70 0 L411 0 L411 82 L374 82 C328 81 322 89 322 143 L322 587 C417 588 450 541 451 402 L529 402 L529 667 L-47 667 L-47 402 L30 402 C31 541 64 588 159 587 L159 143 Z M87 858 L183 720 L299 720 L395 858 L348 858 L241 803 L133 858 L87 858 Z " />
<glyph glyph-name="tcaron" unicode="&#x165;" horiz-adv-x="465" d="M306 224 L306 180 C306 99 299 76 275 76 C254 76 248 92 248 144 L248 391 L350 391 L350 469 L241 469 L241 652 L169 652 C156 528 131 488 51 463 L51 391 L106 391 L106 170 C106 93 110 72 127 41 C150 3 190 -17 242 -17 C296 -17 332 1 355 38 C373 67 378 93 378 154 L378 224 L306 224 Z M335 531 C376 536 401 545 423 566 C449 590 465 629 465 669 C465 722 432 758 383 758 C344 758 316 731 316 694 C316 660 339 639 375 639 C383 639 390 640 403 644 C397 600 378 580 335 575 L335 531 Z " />
<glyph glyph-name="Umacron" unicode="&#x16a;" horiz-adv-x="479" d="M563 667 L292 667 L292 585 L327 585 C371 586 377 578 377 524 L377 211 C377 158 371 130 354 112 C336 91 299 78 258 78 C226 78 202 87 184 104 C163 125 155 155 155 217 L155 524 C155 578 161 586 207 585 L244 585 L244 667 L-87 667 L-87 585 L-60 585 C-14 586 -8 578 -8 524 L-8 206 C-8 137 7 91 42 51 C86 2 147 -21 232 -21 C401 -21 487 58 487 213 L487 524 C487 579 493 586 536 585 L563 585 L563 667 Z M95 750 L384 750 L384 829 L95 829 L95 750 Z " />
<glyph glyph-name="umacron" unicode="&#x16b;" horiz-adv-x="480" d="M-37 395 L-19 395 C31 393 38 386 38 336 L38 156 C38 84 46 49 69 24 C91 -2 130 -17 172 -17 C233 -17 272 7 323 76 L323 0 L518 0 L518 74 L494 74 C460 76 455 83 455 133 L455 469 L233 469 L233 395 L261 395 C306 393 312 385 312 336 L312 194 C312 118 280 66 232 66 C214 66 198 75 191 91 C183 106 181 120 181 157 L181 469 L-37 469 L-37 395 Z M91 588 L389 588 L389 670 L91 670 L91 588 Z " />
<glyph glyph-name="Uring" unicode="&#x16e;" horiz-adv-x="472" d="M560 667 L289 667 L289 585 L324 585 C368 586 374 578 374 524 L374 211 C374 158 368 130 351 112 C333 91 296 78 255 78 C223 78 199 87 181 104 C160 125 152 155 152 217 L152 524 C152 578 158 586 204 585 L241 585 L241 667 L-90 667 L-90 585 L-63 585 C-17 586 -11 578 -11 524 L-11 206 C-11 137 4 91 39 51 C83 2 144 -21 229 -21 C398 -21 484 58 484 213 L484 524 C484 579 490 586 533 585 L560 585 L560 667 Z M255 932 C196 932 147 885 147 828 C147 766 196 716 256 716 C313 716 363 767 363 826 C363 885 315 932 255 932 L255 932 Z M255 869 C280 869 300 849 300 824 C300 799 280 779 256 779 C230 779 210 799 210 825 C210 849 231 869 255 869 L255 869 Z " />
<glyph glyph-name="uring" unicode="&#x16f;" horiz-adv-x="476" d="M-39 395 L-21 395 C29 393 36 386 36 336 L36 156 C36 84 44 49 67 24 C89 -2 128 -17 170 -17 C231 -17 270 7 321 76 L321 0 L516 0 L516 74 L492 74 C458 76 453 83 453 133 L453 469 L231 469 L231 395 L259 395 C304 393 310 385 310 336 L310 194 C310 118 278 66 230 66 C212 66 196 75 189 91 C181 106 179 120 179 157 L179 469 L-39 469 L-39 395 Z M208 777 C138 777 79 720 79 651 C79 576 135 519 208 519 C279 519 336 577 336 648 C336 719 278 777 208 777 L208 777 Z M207 707 C240 707 266 680 266 648 C266 615 240 589 208 589 C174 589 149 615 149 649 C149 681 176 707 207 707 L207 707 Z " />
<glyph glyph-name="Uhungarumlaut" unicode="&#x170;" horiz-adv-x="468" d="M558 667 L287 667 L287 585 L322 585 C366 586 372 578 372 524 L372 211 C372 158 366 130 349 112 C331 91 294 78 253 78 C221 78 197 87 179 104 C158 125 150 155 150 217 L150 524 C150 578 156 586 202 585 L239 585 L239 667 L-92 667 L-92 585 L-65 585 C-19 586 -13 578 -13 524 L-13 206 C-13 137 2 91 37 51 C81 2 142 -21 227 -21 C396 -21 482 58 482 213 L482 524 C482 579 488 586 531 585 L558 585 L558 667 Z M208 721 L302 786 C321 798 330 813 330 828 C330 850 310 869 288 869 C269 869 255 858 238 831 L170 721 L208 721 Z M326 721 L447 783 C470 795 481 809 481 826 C481 848 461 868 439 868 C423 868 409 860 390 838 L287 721 L326 721 Z " />
<glyph glyph-name="uhungarumlaut" unicode="&#x171;" horiz-adv-x="470" d="M-42 395 L-24 395 C26 393 33 386 33 336 L33 156 C33 84 41 49 64 24 C86 -2 125 -17 167 -17 C228 -17 267 7 318 76 L318 0 L513 0 L513 74 L489 74 C455 76 450 83 450 133 L450 469 L228 469 L228 395 L256 395 C301 393 307 385 307 336 L307 194 C307 118 275 66 227 66 C209 66 193 75 186 91 C178 106 176 120 176 157 L176 469 L-42 469 L-42 395 Z M120 540 L164 540 L272 637 C292 654 302 671 302 687 C302 711 282 731 257 731 C231 731 216 718 191 671 L120 540 Z M237 540 L281 540 L421 631 C446 648 460 665 460 682 C460 708 440 729 414 729 C389 729 376 719 345 680 L237 540 Z " />
<glyph glyph-name="Uogonek" unicode="&#x172;" horiz-adv-x="450" d="M549 585 L549 667 L278 667 L278 585 L313 585 C357 586 363 578 363 524 L363 211 C363 158 357 130 340 112 C322 91 285 78 244 78 C212 78 188 87 170 104 C149 125 141 155 141 217 L141 524 C141 578 147 586 193 585 L230 585 L230 667 L-101 667 L-101 585 L-74 585 C-28 586 -22 578 -22 524 L-22 206 C-22 137 -7 91 28 51 C72 3 133 -21 217 -21 C245 -21 268 -19 291 -14 C229 -66 205 -105 205 -152 C205 -198 234 -227 281 -227 C327 -227 358 -201 385 -140 L370 -130 C351 -160 345 -164 328 -164 C306 -164 294 -146 294 -113 C294 -74 312 -36 339 -15 L406 36 C422 47 437 67 450 94 C466 128 473 162 473 213 L473 524 C473 579 479 586 522 585 L549 585 Z " />
<glyph glyph-name="uogonek" unicode="&#x173;" horiz-adv-x="450" d="M503 0 L503 74 L479 74 C445 76 440 83 440 133 L440 469 L218 469 L218 395 L246 395 C291 393 297 385 297 336 L297 194 C297 118 265 66 217 66 C199 66 183 75 176 91 C168 106 166 120 166 157 L166 469 L-52 469 L-52 395 L-34 395 C16 393 23 386 23 336 L23 156 C23 84 31 49 54 24 C76 -2 115 -17 157 -17 C218 -17 256 7 308 76 L308 0 L450 0 C382 -48 346 -101 346 -152 C346 -199 374 -227 421 -227 C466 -227 498 -200 524 -140 L509 -130 C490 -159 484 -164 466 -164 C444 -164 432 -146 432 -113 C432 -74 448 -39 483 0 L503 0 Z " />
<glyph glyph-name="Ydieresis" unicode="&#x178;" horiz-adv-x="630" d="M-13 585 L10 585 C42 587 71 564 100 514 L233 276 L233 143 C233 89 227 81 181 82 L139 82 L139 0 L491 0 L491 82 L449 82 C402 81 396 89 396 143 L396 276 L537 520 C568 571 586 586 621 585 L641 585 L641 667 L373 667 L373 587 L408 587 C436 587 450 579 450 563 C450 555 447 546 441 537 L342 389 L251 527 C243 540 238 551 238 559 C238 579 250 585 286 585 L315 585 L315 667 L-13 667 L-13 585 Z M232 858 C196 858 164 826 164 791 C164 752 194 722 233 722 C269 722 300 753 300 789 C300 826 269 858 232 858 L232 858 Z M399 858 C363 858 331 826 331 791 C331 752 361 722 400 722 C436 722 467 753 467 789 C467 826 436 858 399 858 L399 858 Z " />
<glyph glyph-name="Zacute" unicode="&#x179;" horiz-adv-x="473" d="M-38 0 L487 0 L487 286 L407 286 C399 124 370 85 250 81 L136 81 L487 575 L487 667 L-19 667 L-19 403 L55 403 C63 544 97 585 207 585 L315 585 L-38 84 L-38 0 Z M195 721 L333 772 C360 782 376 801 376 822 C376 847 355 868 330 868 C314 868 301 862 279 842 L141 721 L195 721 Z " />
<glyph glyph-name="zacute" unicode="&#x17a;" horiz-adv-x="476" d="M26 0 L426 0 L426 218 L355 218 C354 96 340 76 252 74 L176 74 L426 389 L426 469 L45 469 L45 267 L113 267 C114 382 126 398 215 395 L277 395 L26 83 L26 0 Z M188 540 L243 540 L401 619 C437 637 451 653 451 677 C451 707 428 730 398 730 C374 730 355 718 323 683 L188 540 Z " />
<glyph glyph-name="Zdotaccent" unicode="&#x17b;" horiz-adv-x="464" d="M-43 0 L482 0 L482 286 L402 286 C394 124 365 85 245 81 L131 81 L482 575 L482 667 L-24 667 L-24 403 L50 403 C58 544 92 585 202 585 L310 585 L-43 84 L-43 0 Z M232 862 C195 862 161 829 161 792 C161 753 193 721 232 721 C270 721 302 753 302 791 C302 829 269 862 232 862 L232 862 Z " />
<glyph glyph-name="zdotaccent" unicode="&#x17c;" horiz-adv-x="464" d="M20 0 L420 0 L420 218 L349 218 C348 96 334 76 246 74 L170 74 L420 389 L420 469 L39 469 L39 267 L107 267 C108 382 120 398 209 395 L271 395 L20 83 L20 0 Z M250 702 C211 702 176 668 176 631 C176 590 209 557 250 557 C290 557 321 589 321 629 C321 669 289 702 250 702 L250 702 Z " />
<glyph glyph-name="Zcaron" unicode="&#x17d;" horiz-adv-x="586" d="M18 0 L543 0 L543 286 L463 286 C455 124 426 85 306 81 L192 81 L543 575 L543 667 L37 667 L37 403 L111 403 C119 544 153 585 263 585 L371 585 L18 84 L18 0 Z M139 858 L235 720 L351 720 L447 858 L400 858 L293 803 L185 858 L139 858 Z " />
<glyph glyph-name="zcaron" unicode="&#x17e;" horiz-adv-x="478" d="M27 0 L427 0 L427 218 L356 218 C355 96 341 76 253 74 L177 74 L427 389 L427 469 L46 469 L46 267 L114 267 C115 382 127 398 216 395 L278 395 L27 83 L27 0 Z M395 719 L346 719 L239 636 L132 719 L84 719 L194 540 L284 540 L395 719 Z " />
<glyph glyph-name="florin" unicode="&#x192;" horiz-adv-x="575" d="M373 389 L460 389 L471 469 L385 469 L393 528 C404 603 420 628 461 628 C473 628 481 625 496 616 C463 600 449 583 449 555 C449 524 469 504 501 504 C543 504 575 540 575 589 C575 648 527 685 451 685 C394 685 340 662 307 623 C282 595 270 562 262 507 L256 469 L182 469 L171 389 L245 389 L188 -10 C177 -86 161 -110 120 -110 C109 -110 101 -107 85 -98 C118 -82 132 -65 132 -37 C132 -6 112 14 80 14 C38 14 6 -22 6 -71 C6 -130 54 -167 130 -167 C187 -167 241 -144 274 -105 C299 -77 312 -45 319 11 L373 389 Z " />
<glyph glyph-name="uni01D3" unicode="&#x1d3;" horiz-adv-x="481" d="M564 667 L293 667 L293 585 L328 585 C372 586 378 578 378 524 L378 211 C378 158 372 130 355 112 C337 91 300 78 259 78 C227 78 203 87 185 104 C164 125 156 155 156 217 L156 524 C156 578 162 586 208 585 L245 585 L245 667 L-86 667 L-86 585 L-59 585 C-13 586 -7 578 -7 524 L-7 206 C-7 137 8 91 43 51 C87 2 148 -21 233 -21 C402 -21 488 58 488 213 L488 524 C488 579 494 586 537 585 L564 585 L564 667 Z M86 858 L182 720 L298 720 L394 858 L348 858 L240 803 L133 858 L86 858 Z " />
<glyph glyph-name="Scommaaccent" unicode="&#x218;" horiz-adv-x="590" d="M112 -5 L133 49 C201 -3 248 -20 326 -20 C474 -20 571 67 571 201 C571 265 545 321 500 352 C464 378 408 399 319 421 C215 448 190 466 190 517 C190 567 227 597 287 597 C335 597 381 578 411 546 C438 518 449 488 460 421 L536 421 L536 669 L470 669 L448 623 C382 671 340 686 271 686 C131 686 37 600 37 473 C37 411 62 356 103 326 C137 301 191 281 285 256 C389 229 415 210 415 157 C415 107 372 74 307 74 C259 74 214 92 180 126 C148 158 134 190 120 262 L42 262 L42 -5 L112 -5 Z M237 -281 C278 -276 302 -267 325 -246 C351 -222 367 -183 367 -143 C367 -90 334 -54 285 -54 C246 -54 218 -80 218 -118 C218 -152 241 -173 277 -173 C284 -173 291 -172 305 -168 C299 -212 280 -231 237 -237 L237 -281 Z " />
<glyph glyph-name="scommaaccent" unicode="&#x219;" horiz-adv-x="465" d="M108 30 C165 -5 208 -18 263 -18 C367 -18 440 47 440 139 C440 190 418 234 380 258 C356 272 320 287 269 302 C188 325 176 334 176 365 C176 394 197 412 231 412 C253 412 277 404 296 391 C318 376 333 357 357 314 L417 314 L417 474 L357 474 L343 445 C293 476 258 487 206 487 C102 487 28 423 28 333 C28 290 45 255 77 230 C101 211 138 193 172 182 C258 157 260 156 275 145 C288 135 293 126 293 112 C293 81 268 61 227 61 C197 61 174 69 152 87 C126 108 115 127 100 176 L30 176 L30 -7 L92 -7 L108 30 Z M176 -281 C217 -276 241 -267 264 -246 C290 -222 306 -183 306 -143 C306 -90 273 -54 224 -54 C185 -54 157 -80 157 -118 C157 -152 180 -173 216 -173 C223 -173 230 -172 244 -168 C238 -212 219 -231 176 -237 L176 -281 Z " />
<glyph glyph-name="uni021A" unicode="&#x21a;" horiz-adv-x="465" d="M151 143 C151 89 145 81 99 82 L62 82 L62 0 L403 0 L403 82 L366 82 C320 81 314 89 314 143 L314 587 C409 588 442 541 443 402 L521 402 L521 667 L-55 667 L-55 402 L22 402 C23 541 56 588 151 587 L151 143 Z M176 -281 C217 -276 241 -267 264 -246 C290 -222 306 -183 306 -143 C306 -90 273 -54 224 -54 C185 -54 157 -80 157 -118 C157 -152 180 -173 216 -173 C223 -173 230 -172 244 -168 C238 -212 219 -231 176 -237 L176 -281 Z " />
<glyph glyph-name="uni021B" unicode="&#x21b;" horiz-adv-x="465" d="M306 224 L306 180 C306 99 299 76 275 76 C254 76 248 92 248 144 L248 391 L350 391 L350 469 L241 469 L241 652 L169 652 C156 528 131 488 51 463 L51 391 L106 391 L106 170 C106 93 110 72 127 41 C150 3 190 -17 242 -17 C296 -17 332 1 355 38 C373 67 378 93 378 154 L378 224 L306 224 Z M134 -281 C175 -276 199 -267 222 -246 C248 -222 264 -183 264 -143 C264 -90 231 -54 182 -54 C143 -54 115 -80 115 -118 C115 -152 138 -173 174 -173 C181 -173 188 -172 202 -168 C196 -212 177 -231 134 -237 L134 -281 Z " />
<glyph glyph-name="afii57929" unicode="&#x2bc;" horiz-adv-x="223" d="M34 403 C86 414 110 426 137 453 C169 485 188 533 188 582 C188 644 154 687 106 687 C64 687 30 650 30 604 C30 568 55 537 84 537 C92 537 104 540 118 546 C108 487 93 471 34 453 L34 403 Z " />
<glyph glyph-name="circumflex" unicode="&#x2c6;" horiz-adv-x="481" d="M85 540 L134 540 L241 623 L348 540 L396 540 L286 719 L196 719 L85 540 Z " />
<glyph glyph-name="caron" unicode="&#x2c7;" horiz-adv-x="481" d="M396 719 L348 719 L241 636 L134 719 L85 719 L196 540 L285 540 L396 719 Z " />
<glyph glyph-name="uni02C9" unicode="&#x2c9;" horiz-adv-x="480" d="M91 588 L389 588 L389 670 L91 670 L91 588 Z " />
<glyph glyph-name="breve" unicode="&#x2d8;" horiz-adv-x="482" d="M83 704 C94 649 105 624 127 600 C155 571 196 555 241 555 C286 555 328 572 356 600 C378 623 388 649 399 704 L354 704 C338 659 311 644 241 644 C172 644 146 658 128 704 L83 704 Z " />
<glyph glyph-name="dotaccent" unicode="&#x2d9;" horiz-adv-x="464" d="M234 702 C195 702 160 668 160 631 C160 590 193 557 234 557 C274 557 305 589 305 629 C305 669 273 702 234 702 L234 702 Z " />
<glyph glyph-name="ring" unicode="&#x2da;" horiz-adv-x="476" d="M207 777 C137 777 78 720 78 651 C78 576 134 519 208 519 C279 519 336 577 336 648 C336 719 278 777 207 777 L207 777 Z M207 707 C239 707 266 680 266 648 C266 615 240 589 208 589 C173 589 148 615 148 649 C148 681 175 707 207 707 L207 707 Z " />
<glyph glyph-name="ogonek" unicode="&#x2db;" horiz-adv-x="450" d="M261 14 C175 -44 136 -95 136 -152 C136 -198 164 -227 211 -227 C256 -227 288 -200 314 -140 L299 -130 C280 -159 274 -164 256 -164 C234 -164 222 -146 222 -114 C222 -69 238 -38 286 14 L261 14 Z " />
<glyph glyph-name="tilde" unicode="&#x2dc;" horiz-adv-x="480" d="M127 540 C135 568 148 581 169 581 C177 581 188 579 199 576 L254 561 C265 558 275 557 285 557 C312 557 335 568 353 589 C372 610 380 630 391 678 L353 678 C342 648 332 638 310 638 C304 638 296 639 288 641 L232 656 C220 659 207 661 195 661 C137 661 108 628 89 540 L127 540 Z " />
<glyph glyph-name="hungarumlaut" unicode="&#x2dd;" horiz-adv-x="470" d="M120 540 L164 540 L272 637 C292 654 302 671 302 687 C302 711 282 731 257 731 C231 731 216 718 191 671 L120 540 Z M237 540 L280 540 L421 631 C447 648 460 665 460 682 C460 708 440 729 414 729 C389 729 376 719 345 680 L237 540 Z " />
<glyph glyph-name="uni2011" unicode="&#x2011;" horiz-adv-x="247" d="M0 172 L247 172 L247 299 L0 299 L0 172 Z " />
<glyph glyph-name="figuredash" unicode="&#x2012;" horiz-adv-x="498" d="M26 187 L473 187 L473 284 L26 284 L26 187 Z " />
<glyph glyph-name="endash" unicode="&#x2013;" horiz-adv-x="498" d="M26 187 L473 187 L473 284 L26 284 L26 187 Z " />
<glyph glyph-name="emdash" unicode="&#x2014;" horiz-adv-x="662" d="M0 187 L662 187 L662 284 L0 284 L0 187 Z " />
<glyph glyph-name="afii00208" unicode="&#x2015;" horiz-adv-x="662" d="M0 187 L662 187 L662 284 L0 284 L0 187 Z " />
<glyph glyph-name="quoteleft" unicode="&#x2018;" horiz-adv-x="223" d="M184 687 C132 675 108 663 81 637 C49 604 30 557 30 508 C30 446 64 403 112 403 C155 403 188 439 188 485 C188 522 163 552 134 552 C126 552 114 549 100 543 C110 602 125 618 184 637 L184 687 Z " />
<glyph glyph-name="quoteright" unicode="&#x2019;" horiz-adv-x="223" d="M34 403 C86 414 110 426 137 453 C169 485 188 533 188 582 C188 644 154 687 106 687 C64 687 30 650 30 604 C30 568 55 537 84 537 C92 537 104 540 118 546 C108 487 93 471 34 453 L34 403 Z " />
<glyph glyph-name="quotesinglbase" unicode="&#x201a;" horiz-adv-x="223" d="M34 -144 C86 -133 110 -121 137 -94 C169 -62 188 -14 188 35 C188 97 154 140 106 140 C64 140 30 103 30 57 C30 21 55 -10 84 -10 C92 -10 104 -7 118 -1 C108 -60 93 -76 34 -94 L34 -144 Z " />
<glyph glyph-name="quotedblleft" unicode="&#x201c;" horiz-adv-x="433" d="M399 687 C347 675 323 663 296 637 C264 604 245 557 245 507 C245 446 279 403 327 403 C369 403 403 439 403 485 C403 521 378 552 349 552 C341 552 329 549 315 543 C325 602 340 618 399 637 L399 687 Z M189 687 C137 675 113 663 86 637 C54 604 35 557 35 508 C35 446 69 403 117 403 C159 403 193 439 193 485 C193 521 168 552 139 552 C131 552 119 549 105 543 C115 602 130 618 189 637 L189 687 Z " />
<glyph glyph-name="quotedblright" unicode="&#x201d;" horiz-adv-x="433" d="M244 403 C296 414 320 426 347 453 C379 485 398 533 398 582 C398 644 364 687 316 687 C274 687 240 650 240 604 C240 568 265 537 294 537 C302 537 314 540 328 546 C318 487 303 471 244 453 L244 403 Z M34 403 C86 414 110 426 137 453 C169 485 188 533 188 582 C188 644 154 687 106 687 C64 687 30 650 30 604 C30 568 55 537 84 537 C92 537 104 540 118 546 C108 487 93 471 34 453 L34 403 Z " />
<glyph glyph-name="quotedblbase" unicode="&#x201e;" horiz-adv-x="433" d="M39 -144 C91 -133 115 -121 142 -94 C174 -62 193 -14 193 35 C193 97 159 140 111 140 C69 140 35 103 35 57 C35 21 60 -10 89 -10 C97 -10 109 -7 123 -1 C113 -60 98 -76 39 -94 L39 -144 Z M249 -144 C301 -133 325 -121 352 -94 C384 -62 403 -14 403 35 C403 96 369 140 321 140 C279 140 245 103 245 57 C245 21 270 -10 299 -10 C307 -10 319 -7 333 -1 C323 -60 308 -76 249 -94 L249 -144 Z " />
<glyph glyph-name="dagger" unicode="&#x2020;" horiz-adv-x="536" d="M190 345 L202 349 C214 353 224 355 247 360 C246 345 246 334 245 329 L242 276 C237 181 236 166 222 28 C213 -60 211 -80 211 -106 C211 -174 230 -208 267 -208 C310 -208 328 -177 328 -102 C328 -75 326 -53 317 28 C303 164 294 300 294 360 C322 355 336 351 351 345 C406 324 412 322 434 322 C465 322 487 347 487 383 C487 422 465 446 430 446 C414 446 414 446 371 430 C365 428 353 424 336 419 C331 417 315 413 298 407 C298 456 301 473 317 545 C325 584 329 606 329 619 C329 663 308 687 270 687 C233 687 211 663 211 621 C211 606 215 583 224 546 C240 479 242 459 243 407 C226 413 211 417 205 419 C188 424 176 428 170 430 C127 446 127 446 112 446 C76 446 54 421 54 382 C54 346 74 322 106 322 C122 322 139 325 154 331 L190 345 Z " />
<glyph glyph-name="daggerdbl" unicode="&#x2021;" horiz-adv-x="536" d="M352 100 L340 96 C325 92 317 91 294 89 C301 162 310 198 332 238 C309 286 300 323 294 392 C321 389 333 387 353 380 C408 360 413 359 437 359 C469 359 491 382 491 415 C491 450 469 473 434 473 C417 473 409 471 372 458 C345 450 334 447 298 442 C298 476 299 482 308 517 C328 591 330 599 330 620 C330 661 306 687 270 687 C233 687 210 662 210 621 C210 599 214 581 231 517 C241 482 241 476 242 442 C206 447 195 449 168 458 C131 471 123 473 107 473 C72 473 49 450 49 415 C49 380 69 359 103 359 C119 359 137 362 152 367 C164 372 176 376 188 380 L200 384 C215 388 222 390 246 392 C240 321 231 287 208 238 C230 198 240 160 246 89 C219 91 208 93 187 100 C132 120 126 121 103 121 C70 121 49 99 49 65 C49 29 71 7 106 7 C123 7 130 9 168 22 C194 31 206 34 242 39 C241 5 241 -1 231 -36 C212 -105 209 -119 209 -140 C209 -180 233 -206 270 -206 C307 -206 330 -181 330 -140 C330 -117 327 -103 309 -36 C299 -2 298 5 298 39 C334 34 345 31 372 22 C410 9 417 7 433 7 C468 7 491 30 491 65 C491 100 471 121 437 121 C421 121 403 118 388 113 L352 100 Z " />
<glyph glyph-name="bullet" unicode="&#x2022;" horiz-adv-x="600" d="M301 480 C231 480 176 418 176 340 C176 262 231 200 300 200 C368 200 423 263 423 340 C423 417 368 480 301 480 L301 480 Z " />
<glyph glyph-name="ellipsis" unicode="&#x2026;" horiz-adv-x="845" d="M143 140 C104 140 72 105 72 63 C72 18 103 -17 143 -17 C182 -17 214 18 214 61 C214 105 182 140 143 140 L143 140 Z M425 140 C386 140 354 105 354 63 C354 18 385 -17 425 -17 C464 -17 496 18 496 61 C496 105 464 140 425 140 L425 140 Z M706 140 C667 140 635 105 635 63 C635 18 666 -17 706 -17 C745 -17 777 18 777 61 C777 105 745 140 706 140 L706 140 Z " />
<glyph glyph-name="perthousand" unicode="&#x2030;" horiz-adv-x="1245" d="M200 622 C100 622 31 545 31 433 C31 316 97 240 200 240 C301 240 368 317 368 432 C368 546 301 622 200 622 L200 622 Z M200 556 C235 556 251 517 251 431 C251 345 235 306 200 306 C164 306 148 345 148 433 C148 516 165 556 200 556 L200 556 Z M661 365 C561 365 492 288 492 176 C492 59 558 -17 661 -17 C761 -17 829 60 829 175 C829 289 761 365 661 365 L661 365 Z M661 297 C697 297 712 260 712 173 C712 87 696 50 660 50 C624 50 609 87 609 176 C609 259 625 297 661 297 L661 297 Z M224 -17 L299 -17 L635 623 L560 623 L224 -17 Z M1044 365 C944 365 875 288 875 176 C875 59 941 -17 1044 -17 C1144 -17 1212 60 1212 175 C1212 289 1144 365 1044 365 L1044 365 Z M1044 297 C1080 297 1095 260 1095 173 C1095 87 1079 50 1043 50 C1007 50 992 87 992 176 C992 259 1008 297 1044 297 L1044 297 Z " />
<glyph glyph-name="guilsinglleft" unicode="&#x2039;" horiz-adv-x="259" d="M137 403 L99 346 C68 299 49 257 49 237 C49 218 68 176 99 129 L137 72 L207 72 L181 139 C173 161 166 206 166 236 C166 268 174 312 184 336 L212 403 L137 403 Z " />
<glyph glyph-name="guilsinglright" unicode="&#x203a;" horiz-adv-x="259" d="M124 72 L162 129 C193 176 212 218 212 238 C212 257 193 299 162 346 L124 403 L54 403 L80 336 C88 314 95 269 95 239 C95 207 87 163 77 139 L49 72 L124 72 Z " />
<glyph glyph-name="uni203E" unicode="&#x203e;" horiz-adv-x="500" d="M0 787 L0 702 L500 702 L500 787 L0 787 Z " />
<glyph glyph-name="fraction" unicode="&#x2044;" horiz-adv-x="147" d="M-147 -17 L-72 -17 L300 622 L224 622 L-147 -17 Z " />
<glyph glyph-name="Euro" unicode="&#x20ac;" horiz-adv-x="693" d="M97 355 C96 348 96 344 96 333 C96 323 96 319 97 312 L53 312 L27 244 L105 244 C138 81 254 -19 411 -19 C511 -19 573 11 620 80 C650 125 661 166 667 258 L582 258 C577 195 570 168 553 136 C529 94 487 69 439 69 C361 69 304 135 288 244 L431 244 L457 312 L283 312 C282 318 282 323 282 329 C282 339 282 344 283 355 L473 355 L499 423 L288 423 C304 533 361 599 441 599 C487 599 524 577 551 535 C573 502 581 472 588 404 L665 404 L665 675 L593 675 L576 621 C507 672 468 687 402 687 C256 687 137 581 105 423 L53 423 L27 355 L97 355 Z " />
<glyph glyph-name="trademark" unicode="&#x2122;" horiz-adv-x="920" d="M137 371 C137 342 135 339 108 339 L82 339 L82 287 L297 287 L297 339 L272 339 C245 339 243 342 243 371 L243 615 C297 615 315 590 315 512 L368 512 L368 667 L11 667 L11 512 L64 512 C64 591 82 615 137 615 L137 371 Z M907 667 L723 667 L649 434 L576 667 L390 667 L390 615 L411 615 C439 615 441 612 441 584 L441 370 C441 342 439 339 411 339 L390 339 L390 287 L561 287 L561 339 L544 339 C516 339 514 342 514 370 L514 578 L602 287 L667 287 L756 579 L756 370 C756 342 754 339 727 339 L709 339 L709 287 L907 287 L907 339 L885 339 C858 339 856 342 856 370 L856 584 C856 612 858 615 885 615 L907 615 L907 667 Z " />
<glyph glyph-name="uni2126" unicode="&#x2126;" horiz-adv-x="768" d="M326 0 L308 155 C230 199 180 288 180 382 C180 434 195 493 221 540 C257 605 317 642 385 642 C453 642 513 605 549 540 C575 493 590 434 590 382 C590 288 540 199 462 155 L444 0 L736 0 L736 153 L712 153 C704 108 684 90 643 90 L497 90 L500 128 C535 141 557 151 580 166 C657 215 702 296 702 382 C702 449 673 522 625 578 C564 648 480 686 385 686 C290 686 206 648 145 578 C97 522 68 449 68 382 C68 296 113 215 190 166 C213 151 235 141 270 128 L273 90 L127 90 C86 90 66 108 58 153 L34 153 L34 0 L326 0 Z " />
<glyph glyph-name="partialdiff" unicode="&#x2202;" horiz-adv-x="494" d="M107 674 C152 697 184 706 219 706 C321 706 379 611 379 447 C379 418 377 394 372 346 C308 396 272 412 221 412 C172 412 131 394 95 355 C51 309 26 246 26 184 C26 76 109 -10 213 -10 C282 -10 341 22 383 84 C429 152 462 286 462 403 C462 519 428 611 360 681 C312 730 259 753 195 753 C155 753 122 746 66 725 L107 674 Z M366 312 C350 201 340 158 314 107 C288 54 245 21 201 21 C146 21 113 73 113 159 C113 273 180 367 261 367 C299 367 324 354 366 312 L366 312 Z " />
<glyph glyph-name="Delta" unicode="&#x2206;" horiz-adv-x="612" d="M6 0 L608 0 L327 688 L6 0 Z M77 51 L290 509 L479 51 L77 51 Z " />
<glyph glyph-name="product" unicode="&#x220f;" horiz-adv-x="823" d="M25 -124 L315 -124 L315 -98 L312 -98 C242 -94 221 -67 224 18 L224 594 C224 656 228 677 242 690 C260 707 272 708 413 708 C556 708 568 707 586 690 C600 677 604 656 604 594 L604 18 C607 -67 586 -94 516 -98 L513 -98 L513 -124 L803 -124 L803 -98 L800 -98 C730 -94 709 -67 712 18 L712 609 C709 694 730 721 800 725 L803 725 L803 751 L25 751 L25 725 L28 725 C98 721 119 694 116 609 L116 18 C119 -67 98 -94 28 -98 L25 -98 L25 -124 Z " />
<glyph glyph-name="summation" unicode="&#x2211;" horiz-adv-x="713" d="M176 711 L444 711 C560 710 590 688 606 587 L632 587 L622 752 L23 752 L256 285 L14 -123 L641 -123 L695 87 L669 87 C639 7 605 -12 491 -11 L163 -11 L364 341 L176 711 Z " />
<glyph glyph-name="minus" unicode="&#x2212;" horiz-adv-x="535" d="M66 366 L66 263 L469 263 L469 366 L66 366 Z " />
<glyph glyph-name="uni2215" unicode="&#x2215;" horiz-adv-x="147" d="M-147 -17 L-72 -17 L300 622 L224 622 L-147 -17 Z " />
<glyph glyph-name="uni2219" unicode="&#x2219;" horiz-adv-x="282" d="M143 313 C104 313 72 278 72 236 C72 191 103 156 143 156 C182 156 214 191 214 234 C214 278 182 313 143 313 L143 313 Z " />
<glyph glyph-name="radical" unicode="&#x221a;" horiz-adv-x="549" d="M363 -35 L515 908 L480 913 L353 123 L156 520 L10 449 L26 414 L121 461 L363 -35 Z " />
<glyph glyph-name="infinity" unicode="&#x221e;" horiz-adv-x="713" d="M357 227 C415 156 485 115 548 115 C631 115 688 176 688 266 C688 354 629 414 543 414 C476 414 412 376 357 303 C300 375 234 414 171 414 C86 414 26 351 26 263 C26 176 84 115 167 115 C224 115 281 142 327 192 L357 227 Z M391 264 C434 325 493 362 546 362 C600 362 638 321 638 264 C638 205 603 167 549 167 C495 167 461 188 391 264 L391 264 Z M324 266 C275 203 216 167 163 167 C111 167 76 207 76 266 C76 323 113 362 167 362 C218 362 258 337 324 266 L324 266 Z " />
<glyph glyph-name="integral" unicode="&#x222b;" horiz-adv-x="274" d="M180 576 C180 653 179 691 176 746 C174 774 173 800 173 815 C173 855 184 878 202 878 C208 878 213 876 215 872 C232 845 239 839 256 839 C276 839 291 853 291 871 C291 898 267 916 231 916 C186 916 152 887 138 838 C123 784 113 682 113 577 L113 232 C113 160 114 124 117 63 C119 34 120 4 120 -12 C120 -47 108 -70 89 -70 C81 -70 74 -65 68 -52 C59 -35 51 -30 37 -30 C17 -30 2 -44 2 -63 C2 -89 26 -107 62 -107 C107 -107 141 -78 155 -29 C170 25 180 126 180 232 L180 576 Z " />
<glyph glyph-name="approxequal" unicode="&#x2248;" horiz-adv-x="549" d="M489 251 C444 199 423 187 384 187 C365 187 354 190 285 211 C212 234 188 239 160 239 C101 239 54 211 14 155 L57 121 C103 174 120 184 159 184 C180 184 180 184 271 157 C350 133 354 132 385 132 C449 132 496 160 527 217 L489 251 Z M489 408 C444 356 423 344 384 344 C365 344 354 347 285 368 C212 391 188 396 160 396 C101 396 54 369 14 312 L57 278 C103 331 120 341 159 341 C180 341 180 341 271 314 C350 290 354 289 385 289 C449 289 496 318 527 375 L489 408 Z " />
<glyph glyph-name="notequal" unicode="&#x2260;" horiz-adv-x="549" d="M187 142 L115 -1 L161 -25 L246 142 L540 142 L540 197 L273 197 L344 336 L540 336 L540 391 L371 391 L439 525 L392 549 L312 391 L15 391 L15 336 L285 336 L215 197 L15 197 L15 142 L187 142 Z " />
<glyph glyph-name="lessequal" unicode="&#x2264;" horiz-adv-x="549" d="M526 55 L29 55 L29 0 L526 0 L526 55 Z M526 639 L29 405 L29 350 L526 117 L526 179 L108 378 L526 577 L526 639 Z " />
<glyph glyph-name="greaterequal" unicode="&#x2265;" horiz-adv-x="549" d="M526 55 L29 55 L29 0 L526 0 L526 55 Z M29 639 L29 577 L447 378 L29 179 L29 117 L526 350 L526 405 L29 639 Z " />
<glyph glyph-name="lozenge" unicode="&#x25ca;" horiz-adv-x="494" d="M209 0 L269 -1 L466 374 L277 740 L214 740 L18 377 L209 0 Z M240 58 L81 376 L245 683 L402 373 L240 58 Z " />
<glyph glyph-name="fi" unicode="&#xfb01;" horiz-adv-x="608" d="M286 74 L272 74 C237 76 232 83 232 133 L232 389 L338 389 C374 389 380 380 381 330 L381 133 C380 82 374 74 338 74 L326 74 L326 0 L586 0 L586 74 L564 74 C528 76 523 83 523 133 L523 469 L232 469 L232 528 C232 589 263 620 322 620 C341 620 353 617 378 607 C363 590 359 580 359 564 C359 527 388 502 431 502 C476 502 505 530 505 573 C505 642 433 684 314 684 C235 684 165 661 128 623 C102 597 89 557 89 507 L89 469 L22 469 L22 389 L89 389 L89 133 C88 83 83 76 46 74 L22 74 L22 0 L286 0 L286 74 Z " />
<glyph glyph-name="fl" unicode="&#xfb02;" horiz-adv-x="608" d="M285 74 L271 74 C236 76 231 83 231 133 L231 389 L327 389 L327 469 L231 469 L231 528 C231 589 262 620 322 620 C341 620 353 617 377 607 C363 590 359 580 359 562 C359 542 363 532 380 515 L380 133 C379 83 374 76 338 74 L326 74 L326 0 L586 0 L586 74 L563 74 C527 76 522 83 522 133 L522 667 L419 667 C367 681 342 685 303 685 C164 685 88 622 88 507 L88 469 L22 469 L22 389 L88 389 L88 133 C87 83 82 76 45 74 L22 74 L22 0 L285 0 L285 74 Z " />
</font>
</svg>
