<?xml version="1.0" encoding="UTF-8"?>
<svg xmlns="http://www.w3.org/2000/svg" xmlns:xlink="http://www.w3.org/1999/xlink" version="1.2" >
<font id="Clarendon URW Light">
<font-face  font-family="Clarendon URW" units-per-em="1000" ascent="668" descent="-332" font-style="normal" font-weight="300" font-stretch="normal" cap-height="668" x-height="469" underline-position="-75" underline-thickness="65" />
<missing-glyph  horiz-adv-x="250" d="" />
<glyph glyph-name="NULL" d="" />
<glyph glyph-name="CR" unicode="&#xd;" horiz-adv-x="250" d="" />
<glyph glyph-name="space" unicode="&#x20;" horiz-adv-x="250" d="" />
<glyph glyph-name="exclam" unicode="&#x21;" horiz-adv-x="298" d="M186 96 C155 96 129 71 129 41 C129 8 154 -17 186 -17 C217 -17 242 9 242 40 C242 70 217 96 186 96 L186 96 Z M207 181 C212 336 216 378 231 497 C241 595 242 602 242 617 C242 660 220 687 186 687 C150 687 129 660 129 617 C129 601 129 596 140 497 C155 377 158 339 163 181 L207 181 Z " />
<glyph glyph-name="quotedbl" unicode="&#x22;" horiz-adv-x="326" d="M119 399 L133 667 L45 667 L58 399 L119 399 Z M267 399 L281 667 L193 667 L206 399 L267 399 Z " />
<glyph glyph-name="numbersign" unicode="&#x23;" horiz-adv-x="600" d="M545 274 L437 274 L457 405 L565 405 L575 474 L466 474 L497 667 L418 667 L388 474 L256 474 L286 667 L209 667 L178 474 L68 474 L59 405 L169 405 L148 274 L37 274 L28 205 L139 205 L106 0 L183 0 L215 205 L347 205 L314 0 L394 0 L426 205 L536 205 L545 274 Z M378 405 L358 274 L227 274 L246 405 L378 405 Z " />
<glyph glyph-name="dollar" unicode="&#x24;" horiz-adv-x="611" d="M269 -104 L320 -104 L320 -2 C412 9 453 20 494 49 C537 78 560 122 560 173 C560 224 535 267 490 294 C451 317 416 329 320 349 L320 559 C399 556 441 540 462 505 C428 499 414 485 414 454 C414 422 435 402 470 402 C509 402 534 427 534 466 C534 492 522 519 498 543 C459 582 415 597 320 606 L320 681 L269 681 L269 606 C189 595 154 583 116 555 C77 526 55 485 55 441 C55 396 78 354 115 328 C150 303 184 291 269 272 L269 48 C165 60 132 73 105 115 C149 119 169 136 169 171 C169 203 144 225 108 225 C68 225 40 195 40 150 C40 113 62 73 98 47 C133 21 174 10 269 -2 L269 -104 Z M269 361 C215 371 194 378 173 391 C150 406 136 431 136 459 C136 487 149 512 172 529 C194 545 217 552 269 561 L269 361 Z M320 263 C382 251 408 243 433 229 C463 212 478 187 478 156 C478 121 459 90 426 73 C400 60 377 55 320 48 L320 263 Z " />
<glyph glyph-name="percent" unicode="&#x25;" horiz-adv-x="510" d="M137 650 C67 650 17 597 17 524 C17 447 66 394 138 394 C207 394 257 447 257 522 C257 597 208 650 137 650 L137 650 Z M137 623 C180 623 206 585 206 522 C206 459 180 421 137 421 C94 421 68 459 68 523 C68 585 94 623 137 623 L137 623 Z M27 0 L75 0 L484 658 L435 658 L27 0 Z M374 249 C304 249 254 196 254 123 C254 46 303 -7 375 -7 C444 -7 494 46 494 121 C494 196 445 249 374 249 L374 249 Z M374 222 C417 222 443 184 443 121 C443 58 417 20 374 20 C331 20 305 58 305 122 C305 184 331 222 374 222 L374 222 Z " />
<glyph glyph-name="ampersand" unicode="&#x26;" horiz-adv-x="819" d="M724 201 C720 151 717 137 710 114 C699 77 669 54 632 54 C598 54 573 67 531 107 C579 159 604 196 646 275 C675 335 696 350 752 352 L776 352 L776 405 L484 405 L484 352 L511 352 C560 352 585 338 585 311 C585 274 556 225 491 151 C425 227 413 243 333 373 C389 404 412 423 438 454 C465 489 479 524 479 561 C479 634 420 687 338 687 C248 687 178 619 178 533 C178 496 186 466 215 396 C161 368 126 345 105 325 C63 285 40 234 40 181 C40 130 63 76 100 41 C139 5 206 -20 267 -20 C336 -20 394 -1 462 43 C518 -3 557 -19 613 -19 C659 -19 695 -6 723 20 C760 56 774 101 777 201 L724 201 Z M417 89 C358 57 327 47 291 47 C205 47 139 112 139 196 C139 256 166 290 248 333 C329 196 345 172 417 89 L417 89 Z M300 431 C273 481 265 506 265 541 C265 597 293 632 336 632 C377 632 404 603 404 560 C404 508 384 483 300 431 L300 431 Z " />
<glyph glyph-name="quotesingle" unicode="&#x27;" horiz-adv-x="178" d="M119 399 L133 667 L45 667 L58 399 L119 399 Z " />
<glyph glyph-name="parenleft" unicode="&#x28;" horiz-adv-x="358" d="M334 -154 C273 -123 243 -96 204 -39 C155 33 130 131 130 248 C130 354 152 450 193 516 C233 582 269 616 334 649 L334 687 C250 653 210 625 157 562 C86 477 50 371 50 247 C50 132 81 32 143 -49 C197 -121 244 -156 334 -192 L334 -154 Z " />
<glyph glyph-name="parenright" unicode="&#x29;" horiz-adv-x="358" d="M20 -192 C104 -159 144 -131 197 -68 C268 17 304 123 304 247 C304 361 273 462 211 543 C157 615 110 650 20 686 L20 648 C80 617 110 590 149 533 C198 461 223 364 223 247 C223 139 201 44 160 -22 C120 -88 84 -122 20 -155 L20 -192 Z " />
<glyph glyph-name="asterisk" unicode="&#x2a;" horiz-adv-x="497" d="M258 469 C302 440 307 436 325 409 C344 380 346 377 352 372 C364 361 378 354 391 354 C414 354 436 380 436 406 C436 421 427 435 413 443 C399 451 391 452 350 455 C334 456 319 458 313 461 C309 462 296 468 277 477 C276 477 272 479 267 481 C294 498 318 507 350 509 C398 512 398 512 413 521 C428 529 437 543 437 557 C437 583 414 610 390 610 C368 610 355 599 324 554 C314 539 306 529 301 526 C290 518 279 510 268 501 L259 494 C260 540 263 553 277 582 C298 625 298 625 298 642 C298 670 280 687 252 687 C224 687 204 669 204 644 C204 629 208 617 225 581 C232 566 238 551 238 546 C239 543 241 528 242 507 C243 505 243 500 244 495 C200 524 195 529 177 555 C147 601 135 611 110 611 C87 611 65 585 65 559 C65 543 73 530 88 522 C103 514 109 513 151 510 C183 507 187 506 224 488 C226 487 231 485 234 483 C204 465 183 458 151 455 C104 452 104 452 89 444 C74 435 65 422 65 407 C65 381 89 354 112 354 C134 354 148 366 178 410 C188 425 196 435 201 439 L233 463 C235 464 238 467 242 470 C241 427 238 411 225 383 C203 340 203 340 203 323 C203 296 221 278 250 278 C278 278 298 296 298 321 C298 337 295 347 277 383 C270 398 264 413 263 418 C262 423 261 437 259 458 L258 469 Z " />
<glyph glyph-name="plus" unicode="&#x2b;" horiz-adv-x="506" d="M52 342 L52 276 L215 276 L215 114 L291 114 L291 276 L454 276 L454 342 L291 342 L291 504 L215 504 L215 342 L52 342 Z " />
<glyph glyph-name="comma" unicode="&#x2c;" horiz-adv-x="303" d="M79 -146 C132 -136 156 -125 180 -98 C205 -71 219 -33 219 6 C219 59 188 95 142 95 C107 95 84 73 84 39 C84 9 104 -11 134 -11 C147 -11 156 -8 172 3 L172 -13 C172 -35 166 -53 152 -72 C135 -95 118 -104 79 -111 L79 -146 Z " />
<glyph glyph-name="hyphen" unicode="&#x2d;" horiz-adv-x="258" d="M0 201 L258 201 L258 275 L0 275 L0 201 Z " />
<glyph glyph-name="period" unicode="&#x2e;" horiz-adv-x="279" d="M140 96 C109 96 83 71 83 41 C83 8 108 -17 140 -17 C171 -17 196 9 196 40 C196 70 171 96 140 96 L140 96 Z " />
<glyph glyph-name="slash" unicode="&#x2f;" horiz-adv-x="349" d="M66 -92 L309 686 L254 686 L11 -92 L66 -92 Z " />
<glyph glyph-name="zero" unicode="0" horiz-adv-x="611" d="M306 622 C149 622 35 490 35 307 C35 115 146 -17 308 -17 C465 -17 577 116 577 303 C577 490 465 622 306 622 L306 622 Z M306 569 C356 569 403 543 429 501 C458 454 475 382 475 303 C475 223 458 151 429 104 C404 64 354 36 306 36 C200 36 137 137 137 306 C137 382 154 454 183 501 C209 543 255 569 306 569 L306 569 Z " />
<glyph glyph-name="one" unicode="1" horiz-adv-x="611" d="M124 0 L496 0 L496 51 L450 51 C366 53 358 59 359 120 L359 622 L307 622 C278 546 246 527 128 518 L128 469 L269 469 L269 121 C270 57 265 54 172 51 L124 51 L124 0 Z " />
<glyph glyph-name="two" unicode="2" horiz-adv-x="611" d="M99 0 C103 50 118 66 161 66 C189 66 196 64 250 35 L300 9 C336 -10 365 -18 394 -18 C433 -18 466 -6 490 18 C527 56 541 103 544 201 L499 201 C495 106 475 75 414 75 C390 75 360 80 333 88 L266 109 C226 121 214 123 190 123 C165 123 152 120 123 107 C169 179 184 189 303 227 C379 251 430 271 455 286 C500 313 530 371 530 432 C530 546 437 622 295 622 C221 622 160 601 117 561 C84 530 64 488 64 448 C64 401 95 365 135 365 C171 365 197 392 197 428 C197 463 177 482 140 482 L124 482 C146 516 162 535 181 546 C206 560 239 568 274 568 C370 568 430 518 430 439 C430 372 405 344 309 304 C176 246 123 211 91 161 C59 109 50 74 51 0 L99 0 Z " />
<glyph glyph-name="three" unicode="3" horiz-adv-x="611" d="M232 299 C312 297 344 293 373 281 C418 263 443 225 443 171 C443 86 380 39 266 39 C190 39 154 54 109 106 C156 110 174 126 174 162 C174 196 150 219 114 219 C70 219 40 188 40 143 C40 55 148 -17 279 -17 C438 -17 548 59 548 170 C548 212 533 247 501 277 C474 302 450 314 394 327 C438 339 456 346 476 360 C509 382 530 422 530 463 C530 558 437 622 298 622 C175 622 67 554 67 477 C67 438 94 411 133 411 C169 411 192 432 192 467 C192 498 178 513 144 521 C195 558 233 571 286 571 C374 571 430 527 430 457 C430 412 408 380 366 366 C340 357 310 354 232 352 L232 299 Z " />
<glyph glyph-name="four" unicode="4" horiz-adv-x="611" d="M221 0 L570 0 L570 51 L514 51 C451 52 441 61 442 110 L442 180 L570 180 L570 237 L442 237 L442 622 L383 622 L30 231 L30 180 L355 180 L355 106 C353 58 345 52 283 51 L221 51 L221 0 Z M355 237 L110 237 L355 509 L355 237 Z " />
<glyph glyph-name="five" unicode="5" horiz-adv-x="611" d="M157 519 C218 510 246 508 284 508 C333 508 374 513 411 523 C461 538 487 560 523 622 C424 597 379 591 305 591 C236 591 196 597 106 620 L80 305 L129 305 C187 350 223 364 277 364 C382 364 448 302 448 205 C448 102 379 38 269 38 C241 38 212 43 187 51 C162 60 147 71 118 102 C164 107 183 124 183 159 C183 193 156 218 120 218 C78 218 49 186 49 141 C49 51 150 -17 283 -17 C356 -17 419 2 471 40 C526 80 550 132 550 206 C550 339 456 422 305 422 C252 422 218 413 146 382 L157 519 Z " />
<glyph glyph-name="six" unicode="6" horiz-adv-x="611" d="M453 539 C425 526 412 510 412 486 C412 455 440 431 475 431 C513 431 537 457 537 497 C537 568 451 622 337 622 C169 622 55 485 55 283 C55 194 80 119 127 63 C174 8 233 -17 318 -17 C464 -17 562 68 562 195 C562 309 466 395 339 395 C272 395 228 376 161 319 C167 415 178 460 206 501 C237 546 287 571 346 571 C386 571 413 563 453 539 L453 539 Z M315 336 C405 336 459 280 459 185 C459 95 402 38 312 38 C222 38 167 97 167 191 C167 280 225 336 315 336 L315 336 Z " />
<glyph glyph-name="seven" unicode="7" horiz-adv-x="611" d="M354 -5 L354 16 C354 206 362 232 462 380 C574 545 575 546 581 605 L529 605 C519 574 503 563 471 563 C454 563 434 568 395 583 C340 605 307 613 273 613 C215 613 181 594 132 534 L132 605 L74 605 L74 353 L128 353 C131 438 135 461 151 484 C169 511 204 527 241 527 C253 527 264 526 273 523 C370 498 374 497 407 497 C433 497 450 501 486 514 C447 455 442 450 389 389 C275 262 251 192 253 -5 L354 -5 Z " />
<glyph glyph-name="eight" unicode="8" horiz-adv-x="611" d="M182 307 C137 289 107 273 89 258 C57 230 40 194 40 153 C40 51 143 -17 299 -17 C454 -17 564 59 564 166 C564 201 552 233 527 261 C505 286 472 306 411 332 C448 347 473 360 489 372 C521 397 538 431 538 470 C538 558 439 622 303 622 C164 622 66 551 66 450 C66 384 97 346 182 307 L182 307 Z M347 256 C437 230 472 200 472 147 C472 80 405 39 298 39 C195 39 123 87 123 156 C123 186 137 216 159 236 C182 256 206 267 262 281 L347 256 Z M246 379 C182 397 154 425 154 471 C154 530 214 570 303 570 C398 570 455 534 455 472 C455 441 442 411 419 392 C401 376 382 367 337 354 L246 379 Z " />
<glyph glyph-name="nine" unicode="9" horiz-adv-x="611" d="M157 66 C186 78 199 95 199 119 C199 150 171 174 136 174 C98 174 74 148 74 108 C74 37 160 -17 274 -17 C442 -17 556 120 556 322 C556 411 531 486 484 542 C437 597 378 622 293 622 C147 622 49 537 49 410 C49 295 145 209 272 209 C339 209 383 228 450 286 C444 189 433 145 405 103 C374 59 323 34 265 34 C227 34 199 42 157 66 L157 66 Z M299 567 C330 567 363 557 387 541 C425 516 444 473 444 414 C444 325 386 268 296 268 C205 268 152 324 152 420 C152 510 209 567 299 567 L299 567 Z " />
<glyph glyph-name="colon" unicode="&#x3a;" horiz-adv-x="298" d="M186 96 C155 96 129 71 129 41 C129 8 154 -17 186 -17 C217 -17 242 9 242 40 C242 70 217 96 186 96 L186 96 Z M186 444 C155 444 129 419 129 389 C129 356 154 331 186 331 C217 331 242 357 242 388 C242 418 216 444 186 444 L186 444 Z " />
<glyph glyph-name="semicolon" unicode="&#x3b;" horiz-adv-x="298" d="M200 444 C169 444 143 419 143 389 C143 356 168 331 200 331 C231 331 256 357 256 388 C256 418 230 444 200 444 L200 444 Z M129 -146 C182 -136 206 -125 230 -98 C255 -71 269 -33 269 6 C269 59 238 95 192 95 C157 95 134 73 134 39 C134 9 154 -11 184 -11 C197 -11 206 -8 222 3 L222 -13 C222 -35 216 -53 202 -72 C185 -95 168 -104 129 -111 L129 -146 Z " />
<glyph glyph-name="less" unicode="&#x3c;" horiz-adv-x="500" d="M466 578 L33 371 L33 296 L466 89 L466 175 L125 333 L466 492 L466 578 Z " />
<glyph glyph-name="equal" unicode="&#x3d;" horiz-adv-x="506" d="M52 426 L52 363 L454 363 L454 426 L52 426 Z M52 274 L52 211 L454 211 L454 274 L52 274 Z " />
<glyph glyph-name="greater" unicode="&#x3e;" horiz-adv-x="500" d="M34 578 L34 492 L374 333 L34 175 L34 89 L467 296 L467 371 L34 578 Z " />
<glyph glyph-name="question" unicode="&#x3f;" horiz-adv-x="511" d="M247 96 C216 96 190 71 190 41 C190 8 215 -17 247 -17 C278 -17 303 9 303 40 C303 71 278 96 247 96 L247 96 Z M270 180 C275 265 281 274 354 329 C419 376 438 394 460 427 C476 452 486 484 486 515 C486 617 398 687 269 687 C142 687 50 615 50 515 C50 455 85 412 133 412 C171 412 196 435 196 469 C196 500 176 520 144 520 C130 520 121 517 103 507 C104 547 112 567 137 590 C164 617 210 633 256 633 C337 633 391 587 391 520 C391 473 374 440 326 397 C230 310 222 293 219 180 L270 180 Z " />
<glyph glyph-name="at" unicode="&#x40;" horiz-adv-x="747" d="M498 494 L487 435 C467 483 431 506 379 506 C282 506 203 414 203 303 C203 210 262 142 344 142 C395 142 440 167 469 211 C474 172 503 147 543 147 C630 147 707 258 707 383 C707 554 572 680 390 680 C193 680 40 527 40 332 C40 238 77 146 142 83 C206 19 292 -13 397 -13 C479 -13 553 2 619 31 L603 85 C539 56 473 42 398 42 C303 42 233 69 179 125 C128 179 99 253 99 331 C99 497 227 626 392 626 C545 626 653 525 653 383 C653 287 601 197 546 197 C525 197 512 214 512 241 C512 250 514 269 518 286 L558 494 L498 494 Z M386 443 C435 443 467 407 467 349 C467 267 419 202 358 202 C306 202 271 243 271 304 C271 380 323 443 386 443 L386 443 Z " />
<glyph glyph-name="A" unicode="A" horiz-adv-x="700" d="M-20 0 L268 0 L268 53 L218 53 C167 53 154 58 154 79 C154 89 159 106 168 130 L205 223 L459 223 L501 110 C506 96 509 84 509 79 C509 59 495 53 450 53 L397 53 L397 0 L713 0 L713 53 L685 53 C637 54 619 67 602 114 L390 667 L307 667 L92 111 C73 64 59 54 12 53 L-20 53 L-20 0 Z M225 276 L329 561 L437 276 L225 276 Z " />
<glyph glyph-name="B" unicode="B" horiz-adv-x="715" d="M30 0 L376 0 C479 0 541 13 592 46 C640 78 665 125 665 183 C665 241 640 288 596 316 C567 334 543 342 484 352 C538 365 559 373 584 390 C623 415 644 456 644 505 C644 610 556 667 393 667 L30 667 L30 614 L71 614 C135 612 142 604 141 541 L141 126 C142 63 135 55 71 53 L30 53 L30 0 Z M238 53 L238 322 L376 322 C450 322 481 315 514 292 C547 269 565 232 565 189 C565 100 500 53 376 53 L238 53 Z M238 375 L238 614 L384 614 C432 614 467 608 490 594 C525 574 545 538 545 494 C545 419 482 375 376 375 L238 375 Z " />
<glyph glyph-name="C" unicode="C" horiz-adv-x="705" d="M595 243 C583 174 571 144 545 110 C509 65 453 41 385 41 C310 41 246 72 207 127 C169 181 147 255 147 334 C147 506 243 631 376 631 C441 631 502 602 544 550 C576 511 587 480 597 408 L648 408 L648 667 L602 667 L577 607 C491 669 445 687 369 687 C181 687 39 534 39 331 C39 226 76 134 144 68 C205 8 279 -20 373 -20 C471 -20 544 9 593 69 C630 114 644 154 654 243 L595 243 Z " />
<glyph glyph-name="D" unicode="D" horiz-adv-x="785" d="M30 0 L352 0 C518 0 586 18 651 79 C715 138 750 230 750 336 C750 447 711 540 640 599 C576 652 514 667 354 667 L30 667 L30 614 L71 614 C135 612 142 604 141 541 L141 126 C142 63 135 55 71 53 L30 53 L30 0 Z M238 614 L353 614 C467 614 532 593 580 539 C623 491 642 430 642 341 C642 246 619 168 577 124 C532 78 454 53 352 53 L238 53 L238 614 Z " />
<glyph glyph-name="E" unicode="E" horiz-adv-x="740" d="M30 0 L661 0 L661 271 L610 271 C603 88 577 56 431 53 L238 53 L238 323 L306 323 C398 320 408 306 413 178 L464 178 L464 505 L413 505 C412 392 397 374 307 376 L238 376 L238 614 L418 614 C572 613 606 578 610 416 L661 416 L661 667 L30 667 L30 614 L71 614 C135 612 142 604 141 541 L141 126 C142 63 135 55 71 53 L30 53 L30 0 Z " />
<glyph glyph-name="F" unicode="F" horiz-adv-x="680" d="M30 0 L358 0 L358 53 L309 53 C244 55 237 63 238 126 L238 323 L290 323 C383 320 393 306 398 178 L448 178 L448 505 L398 505 C397 392 382 374 291 376 L238 376 L238 614 L397 614 C554 613 588 576 589 401 L640 401 L640 667 L30 667 L30 614 L71 614 C135 612 142 604 141 541 L141 126 C142 63 135 55 71 53 L30 53 L30 0 Z " />
<glyph glyph-name="G" unicode="G" horiz-adv-x="775" d="M666 -7 L666 232 C666 283 675 290 737 289 L776 289 L776 342 L440 342 L440 289 L493 289 C559 288 567 282 569 232 L569 191 C569 156 561 131 543 108 C511 68 444 41 379 41 C302 41 232 77 195 137 C164 187 148 253 148 334 C148 514 235 631 371 631 C429 631 484 607 525 565 C560 529 576 497 597 421 L650 421 L650 667 L603 667 L569 602 C488 669 444 687 362 687 C173 687 40 539 40 329 C40 121 169 -19 361 -19 C439 -19 486 -3 576 56 L612 -7 L666 -7 Z " />
<glyph glyph-name="H" unicode="H" horiz-adv-x="829" d="M28 0 L356 0 L356 53 L307 53 C242 55 235 63 236 126 L236 311 L592 311 L592 126 C593 63 586 55 522 53 L473 53 L473 0 L800 0 L800 53 L759 53 C695 55 688 63 689 126 L689 541 C688 604 695 612 759 614 L800 614 L800 667 L473 667 L473 614 L522 614 C586 612 593 604 592 541 L592 364 L236 364 L236 541 C235 604 242 612 307 614 L356 614 L356 667 L28 667 L28 614 L69 614 C133 612 140 604 139 541 L139 126 C140 63 133 55 69 53 L28 53 L28 0 Z " />
<glyph glyph-name="I" unicode="I" horiz-adv-x="387" d="M29 0 L357 0 L357 53 L312 53 C248 55 241 63 242 126 L242 541 C241 604 248 612 312 614 L357 614 L357 667 L29 667 L29 614 L74 614 C138 612 145 604 144 541 L144 126 C145 63 138 55 74 53 L29 53 L29 0 Z " />
<glyph glyph-name="J" unicode="J" horiz-adv-x="541" d="M195 614 L242 614 C306 612 313 604 312 541 L312 179 C312 84 271 36 188 36 C142 36 113 49 83 84 C129 87 151 108 151 148 C151 186 125 212 87 212 C42 212 10 178 10 130 C10 93 28 55 58 28 C94 -4 141 -19 203 -19 C280 -19 336 2 370 45 C400 82 409 119 409 210 L409 541 C408 604 415 612 480 614 L513 614 L513 667 L195 667 L195 614 Z " />
<glyph glyph-name="K" unicode="K" horiz-adv-x="765" d="M358 53 L309 53 C244 55 237 63 238 126 L238 237 L336 323 L520 121 C555 83 555 83 555 72 C555 60 541 53 516 53 L440 53 L440 0 L802 0 L802 53 L772 53 C716 56 695 66 656 111 L406 384 L574 536 C645 596 675 611 727 614 L767 614 L767 667 L433 667 L433 614 L483 614 C517 614 533 608 533 594 C533 585 527 576 515 565 L238 318 L238 541 C237 604 244 612 309 614 L358 614 L358 667 L30 667 L30 614 L71 614 C135 612 142 604 141 541 L141 126 C142 63 135 55 71 53 L30 53 L30 0 L358 0 L358 53 Z " />
<glyph glyph-name="L" unicode="L" horiz-adv-x="680" d="M30 667 L30 614 L71 614 C135 612 142 604 141 541 L141 126 C142 63 135 55 71 53 L30 53 L30 0 L640 0 L640 277 L589 277 C589 91 557 54 397 53 L238 53 L238 541 C237 604 244 612 309 614 L358 614 L358 667 L30 667 Z " />
<glyph glyph-name="M" unicode="M" horiz-adv-x="943" d="M30 614 L69 614 C133 612 140 604 139 541 L139 126 C140 63 133 55 69 53 L30 53 L30 0 L321 0 L321 53 L276 53 C212 55 205 63 206 126 L206 600 L440 0 L478 0 L713 586 L713 126 C714 63 707 55 642 53 L595 53 L595 0 L918 0 L918 53 L877 53 C813 55 806 63 807 126 L807 541 C806 604 813 612 877 614 L918 614 L918 667 L686 667 L476 145 L273 667 L30 667 L30 614 Z " />
<glyph glyph-name="N" unicode="N" horiz-adv-x="824" d="M699 -3 L699 541 C698 604 705 612 769 614 L801 614 L801 667 L509 667 L509 614 L562 614 C626 612 633 604 632 541 L632 131 L253 667 L30 667 L30 614 L69 614 C133 612 140 604 139 541 L139 126 C140 63 133 55 69 53 L30 53 L30 0 L327 0 L327 53 L277 53 C212 55 205 63 206 126 L206 577 L614 -3 L699 -3 Z " />
<glyph glyph-name="O" unicode="O" horiz-adv-x="794" d="M398 687 C194 687 40 537 40 339 C40 130 189 -19 398 -19 C604 -19 755 131 755 334 C755 538 604 687 398 687 L398 687 Z M398 632 C472 632 537 602 583 546 C626 493 647 423 647 334 C647 154 549 36 398 36 C322 36 258 66 212 122 C168 177 148 245 148 338 C148 515 248 632 398 632 L398 632 Z " />
<glyph glyph-name="P" unicode="P" horiz-adv-x="680" d="M358 53 L309 53 C244 55 237 63 238 126 L238 302 L348 302 C465 302 516 310 563 336 C614 364 644 419 644 485 C644 552 616 604 565 632 C515 658 459 667 340 667 L30 667 L30 614 L71 614 C135 612 142 604 141 541 L141 126 C142 63 135 55 71 53 L30 53 L30 0 L358 0 L358 53 Z M238 355 L238 614 L342 614 C401 614 438 610 466 600 C517 583 543 546 543 489 C543 397 482 355 348 355 L238 355 Z " />
<glyph glyph-name="Q" unicode="Q" horiz-adv-x="819" d="M770 113 C758 38 736 9 690 9 C663 9 646 19 616 52 C661 91 685 117 702 144 C737 198 755 264 755 333 C755 537 604 687 398 687 C191 687 40 538 40 333 C40 127 190 -19 401 -19 C450 -19 478 -14 537 5 C584 -50 617 -68 671 -68 C717 -68 753 -49 781 -10 C804 24 814 54 820 113 L770 113 Z M569 106 C529 159 511 179 484 200 C451 226 412 240 371 240 C302 240 248 195 248 138 C248 122 252 101 259 76 C216 113 198 133 183 164 C161 209 148 270 148 335 C148 514 247 632 398 632 C548 632 647 514 647 335 C647 283 639 231 624 192 C612 161 600 142 569 106 L569 106 Z M502 57 C453 40 428 35 401 35 C340 35 300 66 300 113 C300 151 326 176 366 176 C412 176 447 146 502 57 L502 57 Z " />
<glyph glyph-name="R" unicode="R" horiz-adv-x="770" d="M358 53 L309 53 C244 55 237 63 238 126 L238 320 L366 320 C473 319 520 275 524 174 L527 92 C530 19 565 -20 628 -20 C714 -20 742 24 743 163 L696 163 C693 65 686 45 657 45 C631 45 624 66 624 140 C624 271 594 315 487 342 C551 353 579 362 608 383 C646 410 666 450 666 501 C666 555 642 601 602 626 C556 654 485 667 376 667 L30 667 L30 614 L71 614 C135 612 142 604 141 541 L141 126 C142 63 135 55 71 53 L30 53 L30 0 L358 0 L358 53 Z M238 373 L238 614 L376 614 C417 614 473 608 493 601 C538 586 565 548 565 499 C565 414 500 373 366 373 L238 373 Z " />
<glyph glyph-name="S" unicode="S" horiz-adv-x="626" d="M45 0 L96 0 L128 74 C214 0 261 -20 351 -20 C496 -20 597 66 597 189 C597 301 535 355 364 388 L268 407 C172 426 132 459 132 519 C132 585 193 629 284 629 C351 629 411 606 449 565 C480 532 494 498 508 420 L561 420 L561 673 L515 673 L486 612 C403 672 361 687 279 687 C138 687 47 612 47 496 C47 438 68 393 109 364 C145 338 169 330 271 307 L353 289 C410 276 447 264 466 250 C493 230 507 202 507 168 C507 93 443 43 347 43 C278 43 215 69 169 118 C131 158 116 194 100 277 L45 277 L45 0 Z " />
<glyph glyph-name="T" unicode="T" horiz-adv-x="665" d="M27 405 L78 405 C84 570 120 612 253 614 L284 614 L284 126 C285 63 278 55 214 53 L152 53 L152 0 L514 0 L514 53 L451 53 C387 55 380 63 381 126 L381 614 L412 614 C546 612 581 570 587 405 L638 405 L638 667 L27 667 L27 405 Z " />
<glyph glyph-name="U" unicode="U" horiz-adv-x="760" d="M30 614 L62 614 C127 612 134 604 133 541 L133 209 C133 125 157 67 208 30 C253 -3 312 -20 382 -20 C462 -20 525 1 569 43 C615 87 635 147 635 244 L635 541 C634 604 641 612 706 614 L736 614 L736 667 L449 667 L449 614 L498 614 C562 612 569 604 568 541 L568 244 C568 162 556 120 526 91 C497 63 450 47 394 47 C282 47 230 98 230 209 L230 541 C229 604 236 612 300 614 L349 614 L349 667 L30 667 L30 614 Z " />
<glyph glyph-name="V" unicode="V" horiz-adv-x="680" d="M298 0 L375 0 L581 546 C602 603 614 613 670 614 L703 614 L703 667 L412 667 L412 614 L470 614 C510 614 524 607 524 586 C524 577 520 560 514 545 L355 118 L197 547 C193 559 190 573 190 585 C190 606 203 614 241 614 L303 614 L303 667 L-20 667 L-20 614 L10 614 C64 612 77 603 96 551 L298 0 Z " />
<glyph glyph-name="W" unicode="W" horiz-adv-x="958" d="M255 0 L332 0 L479 437 L615 0 L693 0 L853 531 C876 603 884 611 927 614 L954 614 L954 667 L702 667 L702 614 L749 614 C786 614 798 607 798 584 C798 571 794 549 787 527 L668 124 L537 555 C534 565 532 577 532 586 C532 609 542 614 586 614 L631 614 L631 667 L340 667 L340 614 L373 614 C418 613 429 606 441 571 L450 537 L312 124 L194 551 C191 562 189 574 189 584 C189 606 203 614 241 614 L281 614 L281 667 L0 667 L0 614 L30 614 C75 613 84 602 108 513 L255 0 Z " />
<glyph glyph-name="X" unicode="X" horiz-adv-x="735" d="M0 0 L292 0 L292 53 L248 53 C214 53 198 61 198 79 C198 87 202 94 213 108 L348 275 L481 103 C488 93 492 83 492 76 C492 61 470 53 427 53 L392 53 L392 0 L736 0 L736 53 L709 53 C655 56 613 81 577 130 L413 353 L565 542 C605 594 633 611 680 614 L713 614 L713 667 L427 667 L427 614 L474 614 C503 614 518 607 518 594 C518 584 509 568 492 548 L372 407 L257 560 C248 572 243 583 243 591 C243 606 259 614 292 614 L330 614 L330 667 L14 667 L14 614 L41 614 C89 610 113 594 155 537 L310 330 L156 138 C103 77 68 54 25 53 L0 53 L0 0 Z " />
<glyph glyph-name="Y" unicode="Y" horiz-adv-x="636" d="M266 263 L266 126 C267 63 260 55 196 53 L133 53 L133 0 L495 0 L495 53 L433 53 C369 55 362 63 363 126 L363 263 L528 532 C570 597 592 614 633 614 L656 614 L656 667 L386 667 L386 614 L453 614 C474 614 487 607 487 597 C487 588 483 575 476 564 L331 331 L196 555 C187 569 182 584 182 593 C182 607 194 614 217 614 L281 614 L281 667 L-25 667 L-25 614 L4 614 C38 612 64 593 90 550 L266 263 Z " />
<glyph glyph-name="Z" unicode="Z" horiz-adv-x="616" d="M25 0 L567 0 L567 287 L514 287 C504 88 482 59 333 53 L142 53 L568 611 L568 667 L44 667 L44 403 L96 403 C103 577 133 615 263 614 L453 614 L25 54 L25 0 Z " />
<glyph glyph-name="bracketleft" unicode="&#x5b;" horiz-adv-x="358" d="M104 -172 L324 -172 L324 -128 L178 -128 L178 623 L324 623 L324 667 L104 667 L104 -172 Z " />
<glyph glyph-name="backslash" unicode="&#x5c;" horiz-adv-x="349" d="M283 -92 L338 -92 L95 686 L40 686 L283 -92 Z " />
<glyph glyph-name="bracketright" unicode="&#x5d;" horiz-adv-x="358" d="M30 -172 L250 -172 L250 667 L30 667 L30 623 L176 623 L176 -128 L30 -128 L30 -172 Z " />
<glyph glyph-name="asciicircum" unicode="&#x5e;" horiz-adv-x="500" d="M110 371 L249 610 L389 371 L470 371 L299 669 L200 669 L29 371 L110 371 Z " />
<glyph glyph-name="underscore" unicode="&#x5f;" horiz-adv-x="500" d="M0 -74 L0 -139 L500 -139 L500 -74 L0 -74 Z " />
<glyph glyph-name="grave" unicode="&#x60;" horiz-adv-x="500" d="M310 540 L176 686 C160 703 140 715 125 715 C105 715 88 698 88 677 C88 660 98 648 129 629 L274 540 L310 540 Z " />
<glyph glyph-name="a" unicode="a" horiz-adv-x="551" d="M505 159 C502 60 493 37 460 37 C438 37 430 53 430 95 L430 327 C430 397 419 426 382 451 C347 474 299 486 246 486 C139 486 56 431 56 361 C56 326 82 300 116 300 C148 300 171 321 171 349 C171 376 157 391 124 399 C163 431 191 441 233 441 C304 441 350 407 350 354 C350 309 331 290 270 273 L192 251 C132 234 106 224 79 205 C47 182 30 149 30 110 C30 33 89 -18 177 -18 C242 -18 288 3 351 61 C368 5 395 -18 445 -18 C524 -18 550 26 551 159 L505 159 Z M346 199 C346 137 333 103 299 74 C275 54 237 41 202 41 C154 41 124 69 124 112 C124 156 150 181 217 203 L256 216 C285 225 296 230 346 253 L346 199 Z " />
<glyph glyph-name="b" unicode="b" horiz-adv-x="586" d="M128 -6 L169 81 C192 49 208 31 225 19 C256 -3 296 -15 337 -15 C464 -15 551 86 551 234 C551 384 464 485 336 485 C261 485 219 461 169 391 L169 667 L0 667 L0 619 L20 619 C74 617 85 608 84 562 L84 -6 L128 -6 Z M320 427 C406 427 455 357 455 233 C455 113 405 43 319 43 C227 43 169 118 169 238 C169 352 229 427 320 427 L320 427 Z " />
<glyph glyph-name="c" unicode="c" horiz-adv-x="511" d="M423 175 C412 130 404 111 389 91 C365 60 323 41 277 41 C183 41 126 114 126 236 C126 362 188 438 291 438 C319 438 347 432 369 421 C391 411 401 401 419 372 C380 365 364 350 364 320 C364 288 387 266 419 266 C459 266 486 294 486 336 C486 422 397 486 279 486 C133 486 30 379 30 228 C30 81 125 -18 267 -18 C339 -18 389 2 429 47 C457 81 469 109 481 175 L423 175 Z " />
<glyph glyph-name="d" unicode="d" horiz-adv-x="611" d="M320 619 L352 619 C407 617 418 608 417 562 L417 391 C367 461 325 485 250 485 C121 485 35 384 35 234 C35 86 121 -15 248 -15 C322 -15 367 11 417 81 L417 0 L591 0 L591 48 L566 48 C511 50 502 58 502 105 L502 667 L320 667 L320 619 Z M266 427 C358 427 417 352 417 234 C417 119 357 43 267 43 C181 43 131 113 131 234 C131 357 180 427 266 427 L266 427 Z " />
<glyph glyph-name="e" unicode="e" horiz-adv-x="526" d="M422 154 C407 110 396 91 375 74 C349 52 312 39 272 39 C222 39 181 59 157 95 C136 126 128 157 126 226 L495 226 C491 322 478 366 442 411 C403 462 346 486 270 486 C124 486 30 387 30 233 C30 82 125 -17 272 -17 C336 -17 385 1 423 38 C452 66 465 93 481 154 L422 154 Z M130 279 C136 337 143 362 164 390 C187 421 222 437 268 437 C311 437 346 422 367 394 C387 367 394 340 397 279 L130 279 Z " />
<glyph glyph-name="f" unicode="f" horiz-adv-x="343" d="M117 420 L117 105 C117 58 108 49 53 48 L25 48 L25 0 L314 0 L314 48 L266 48 C211 49 202 58 202 105 L202 420 L314 420 L314 469 L202 469 L202 506 C202 558 205 580 213 600 C223 625 249 639 283 639 C309 639 322 634 348 614 C321 607 308 592 308 569 C308 542 331 521 360 521 C394 521 415 544 415 580 C415 641 356 684 271 684 C224 684 186 671 159 645 C129 617 117 579 117 509 L117 469 L25 469 L25 420 L117 420 Z " />
<glyph glyph-name="g" unicode="g" horiz-adv-x="646" d="M210 60 C149 60 124 71 124 98 C124 123 149 147 174 147 C177 147 181 146 187 145 C239 130 249 128 282 128 C413 128 494 197 494 307 C494 342 489 360 468 397 C497 432 516 444 547 444 C565 444 570 441 582 427 C549 421 534 406 534 379 C534 352 556 331 585 331 C619 331 642 359 642 401 C642 451 604 486 550 486 C508 486 484 474 442 432 C384 472 341 486 275 486 C152 486 69 415 69 309 C69 254 86 219 133 176 C68 140 50 119 50 79 C50 38 72 14 126 -4 C96 -12 76 -20 64 -30 C43 -47 30 -72 30 -97 C30 -131 54 -164 94 -183 C139 -205 194 -214 274 -214 C460 -214 549 -166 549 -68 C549 15 484 60 363 60 L210 60 Z M279 439 C358 439 401 393 401 309 C401 224 359 180 280 180 C201 180 161 223 161 308 C161 390 205 439 279 439 L279 439 Z M317 -20 C432 -21 473 -38 473 -85 C473 -113 457 -131 421 -144 C388 -156 322 -164 258 -164 C159 -164 106 -138 106 -89 C106 -43 157 -20 259 -20 L317 -20 Z " />
<glyph glyph-name="h" unicode="h" horiz-adv-x="646" d="M30 619 L52 619 C107 617 116 608 116 562 L116 105 C116 58 107 50 52 48 L30 48 L30 0 L298 0 L298 48 L266 48 C210 50 201 58 201 105 L201 268 C201 319 213 352 242 384 C270 413 307 429 349 429 C424 429 451 390 451 281 L451 105 C451 58 442 50 386 48 L354 48 L354 0 L622 0 L622 48 L600 48 C545 50 536 58 536 105 L536 268 C536 357 530 389 507 423 C481 461 434 482 376 482 C340 482 303 473 273 458 C246 444 229 427 201 388 L201 667 L30 667 L30 619 Z " />
<glyph glyph-name="i" unicode="i" horiz-adv-x="328" d="M157 675 C126 675 100 650 100 620 C100 587 125 562 157 562 C188 562 213 588 213 619 C213 650 188 675 157 675 L157 675 Z M30 0 L302 0 L302 48 L276 48 C221 50 212 58 212 105 L212 469 L30 469 L30 421 L62 421 C117 419 126 411 126 364 L126 105 C126 58 117 50 62 48 L30 48 L30 0 Z " />
<glyph glyph-name="j" unicode="j" horiz-adv-x="318" d="M37 421 L69 421 C128 419 131 417 130 360 L130 -68 C130 -108 126 -128 114 -143 C102 -158 79 -167 54 -167 C31 -167 20 -163 -2 -148 C30 -140 43 -127 43 -101 C43 -71 20 -50 -11 -50 C-46 -50 -70 -76 -70 -113 C-70 -172 -15 -214 63 -214 C115 -214 156 -197 183 -164 C207 -135 215 -106 215 -45 L215 469 L37 469 L37 421 Z M159 675 C128 675 102 650 102 620 C102 587 127 562 159 562 C190 562 215 588 215 619 C215 649 189 675 159 675 L159 675 Z " />
<glyph glyph-name="k" unicode="k" horiz-adv-x="636" d="M197 229 L197 667 L25 667 L25 619 L52 619 C106 617 116 608 116 562 L116 105 C116 58 107 50 52 48 L25 48 L25 0 L283 0 L283 48 L261 48 C206 50 197 58 197 105 L197 165 L279 228 L407 89 C415 80 419 73 419 67 C419 55 398 48 362 48 L336 48 L336 0 L620 0 L620 48 L605 48 C566 49 534 64 507 93 L341 276 L467 377 C510 411 538 421 579 420 L594 420 L594 469 L301 469 L301 420 L347 420 C385 420 400 415 400 404 C400 394 390 381 370 365 L197 229 Z " />
<glyph glyph-name="l" unicode="l" horiz-adv-x="318" d="M203 667 L25 667 L25 619 L53 619 C108 617 117 609 117 562 L117 105 C117 58 108 50 53 48 L25 48 L25 0 L296 0 L296 48 L267 48 C212 50 203 58 203 105 L203 667 Z " />
<glyph glyph-name="m" unicode="m" horiz-adv-x="924" d="M30 0 L288 0 L288 48 L270 48 C215 50 206 58 206 105 L206 268 C206 327 213 351 240 383 C267 413 300 429 339 429 C407 429 428 394 428 281 L428 105 C429 58 419 50 363 48 L345 48 L345 0 L594 0 L594 48 L576 48 C521 50 512 58 512 105 L512 268 C512 327 519 351 546 383 C572 413 606 429 645 429 C712 429 733 394 733 281 L733 105 C733 58 724 50 669 48 L651 48 L651 0 L905 0 L905 48 L881 48 C826 50 817 58 817 105 L817 268 C817 364 812 393 790 426 C767 462 723 482 670 482 C603 482 565 461 502 390 C489 421 479 438 464 450 C440 470 403 482 364 482 C298 482 259 461 206 398 L206 469 L30 469 L30 421 L58 421 C113 419 122 410 122 364 L122 105 C122 58 113 50 58 48 L30 48 L30 0 Z " />
<glyph glyph-name="n" unicode="n" horiz-adv-x="650" d="M30 0 L304 0 L304 48 L272 48 C216 50 207 58 207 105 L207 268 C207 319 219 352 248 384 C276 413 313 429 355 429 C429 429 456 390 456 281 L456 105 C456 58 447 50 392 48 L360 48 L360 0 L628 0 L628 48 L606 48 C550 50 541 58 541 105 L541 268 C541 357 535 389 512 423 C486 461 439 482 381 482 C346 482 309 473 279 458 C252 444 235 427 207 388 L207 469 L30 469 L30 421 L58 421 C113 419 122 410 122 364 L122 105 C122 58 113 50 58 48 L30 48 L30 0 Z " />
<glyph glyph-name="o" unicode="o" horiz-adv-x="576" d="M288 486 C220 486 157 463 108 419 C58 375 31 312 31 238 C31 156 54 98 108 50 C155 7 219 -17 289 -17 C357 -17 421 7 468 50 C520 97 545 156 545 234 C545 313 520 372 468 419 C420 463 357 486 288 486 L288 486 Z M288 435 C390 435 448 363 448 234 C448 106 391 34 288 34 C184 34 128 106 128 237 C128 363 186 435 288 435 L288 435 Z " />
<glyph glyph-name="p" unicode="p" horiz-adv-x="606" d="M10 421 L32 421 C87 419 96 411 96 364 L96 -109 C96 -155 87 -164 32 -166 L10 -166 L10 -214 L277 -214 L277 -166 L245 -166 C190 -164 181 -155 181 -109 L181 78 C201 50 216 33 230 21 C260 -3 301 -16 347 -16 C476 -16 562 85 562 235 C562 383 476 484 349 484 C275 484 231 459 181 388 L181 469 L10 469 L10 421 Z M330 426 C415 426 465 355 465 235 C465 112 416 42 331 42 C239 42 181 117 181 236 C181 350 240 426 330 426 L330 426 Z " />
<glyph glyph-name="q" unicode="q" horiz-adv-x="611" d="M589 -166 L566 -166 C511 -164 502 -156 502 -109 L502 364 C502 411 511 419 566 421 L589 421 L589 469 L417 469 L417 388 C367 458 322 484 248 484 C121 484 35 383 35 235 C35 85 121 -16 249 -16 C325 -16 367 8 417 78 L417 -109 C417 -156 408 -164 352 -166 L320 -166 L320 -214 L589 -214 L589 -166 Z M266 426 C359 426 417 350 417 231 C417 117 357 42 266 42 C180 42 131 112 131 235 C131 356 181 426 266 426 L266 426 Z " />
<glyph glyph-name="r" unicode="r" horiz-adv-x="477" d="M320 48 L271 48 C216 49 207 58 207 105 L207 217 C207 273 216 315 235 352 C264 407 302 436 346 436 C371 436 382 431 403 408 C368 408 348 391 348 359 C348 330 372 308 403 308 C438 308 465 338 465 375 C465 438 418 483 352 483 C289 483 245 449 207 372 L207 469 L30 469 L30 421 L58 421 C113 419 122 410 122 364 L122 105 C122 58 113 49 58 48 L30 48 L30 0 L320 0 L320 48 Z " />
<glyph glyph-name="s" unicode="s" horiz-adv-x="497" d="M40 -4 L91 -4 L111 46 C169 -1 208 -16 274 -16 C388 -16 461 42 461 134 C461 206 406 256 306 275 L212 292 C158 302 129 327 129 364 C129 406 166 433 225 433 C271 433 311 418 340 390 C364 367 375 344 387 293 L437 293 L437 475 L392 475 L373 433 C316 471 275 485 216 485 C116 485 46 428 46 346 C46 275 104 221 202 202 L292 185 C351 173 379 151 379 114 C379 68 336 38 270 38 C225 38 181 55 148 85 C118 112 105 136 92 192 L40 192 L40 -4 Z " />
<glyph glyph-name="t" unicode="t" horiz-adv-x="402" d="M99 420 L99 95 C99 26 144 -17 217 -17 C271 -17 314 8 331 50 C343 80 347 106 350 192 L305 192 C304 135 300 103 292 80 C284 56 261 41 233 41 C199 41 184 58 184 95 L184 420 L327 420 L327 469 L184 469 L184 655 L137 655 C126 527 93 476 15 469 L15 420 L99 420 Z " />
<glyph glyph-name="u" unicode="u" horiz-adv-x="645" d="M25 421 L47 421 C102 419 111 411 111 364 L111 201 C111 112 117 80 140 46 C165 8 212 -13 271 -13 C308 -13 344 -4 374 11 C400 25 417 42 445 81 L445 0 L623 0 L623 48 L595 48 C540 50 529 59 530 105 L530 469 L343 469 L343 421 L381 421 C436 419 445 411 445 364 L445 201 C445 150 434 118 404 85 C377 55 340 40 297 40 C223 40 196 79 196 188 L196 469 L25 469 L25 421 Z " />
<glyph glyph-name="v" unicode="v" horiz-adv-x="556" d="M-5 420 L17 420 C52 418 57 414 74 375 L241 -5 L294 -5 L456 362 C479 414 484 418 522 420 L541 420 L541 469 L315 469 L315 420 L359 420 C395 420 406 415 406 399 C406 390 402 377 395 360 L286 107 L170 366 C165 377 161 391 161 398 C161 415 170 420 203 420 L239 420 L239 469 L-5 469 L-5 420 Z " />
<glyph glyph-name="w" unicode="w" horiz-adv-x="819" d="M236 -5 L293 -5 L407 285 L522 -5 L578 -5 L724 363 C741 408 755 420 791 421 L804 421 L804 469 L597 469 L597 421 L627 421 C662 421 673 416 673 401 C673 390 670 376 664 363 L561 107 L459 372 C456 382 453 393 453 398 C453 417 461 421 501 421 L530 421 L530 469 L296 469 L296 421 L318 421 C352 418 362 411 373 380 L379 362 L277 107 L174 372 C169 384 167 392 167 397 C167 414 178 421 204 421 L237 421 L237 469 L10 469 L10 421 L28 421 C63 419 71 412 88 370 L236 -5 Z " />
<glyph glyph-name="x" unicode="x" horiz-adv-x="601" d="M343 251 L451 368 C490 409 513 421 552 421 L571 421 L571 469 L337 469 L337 421 L365 421 C399 421 408 418 408 407 C408 401 405 394 400 389 L307 290 L229 379 C215 395 212 400 212 406 C212 416 221 421 243 421 L275 421 L275 469 L20 469 L20 421 L36 421 C78 419 107 404 142 364 L255 240 L124 98 C91 65 65 51 29 48 L15 48 L15 0 L257 0 L257 48 L220 48 C191 48 175 54 175 65 C175 71 179 77 187 86 L290 196 L385 89 C394 78 398 71 398 66 C398 56 380 48 359 48 L314 48 L314 0 L586 0 L586 48 L571 48 C542 47 512 63 482 94 L343 251 Z " />
<glyph glyph-name="y" unicode="y" horiz-adv-x="566" d="M255 -3 C226 -67 214 -89 197 -115 C174 -147 147 -164 116 -164 C90 -164 77 -157 58 -132 C100 -129 116 -116 116 -83 C116 -53 93 -30 63 -30 C24 -30 -5 -61 -5 -104 C-5 -134 7 -162 31 -184 C54 -206 76 -214 113 -214 C158 -214 195 -198 226 -165 C255 -134 274 -97 333 38 L472 359 C495 411 503 419 539 421 L569 421 L569 469 L331 469 L331 421 L371 421 C407 421 420 415 420 399 C420 391 418 381 414 372 L300 103 L187 367 C181 380 178 393 178 401 C178 416 187 421 212 421 L255 421 L255 469 L2 469 L2 421 L28 421 C66 419 75 412 93 374 L255 -3 Z " />
<glyph glyph-name="z" unicode="z" horiz-adv-x="497" d="M25 0 L459 0 L459 212 L411 212 C403 66 390 51 260 50 L132 50 L450 420 L450 469 L41 469 L41 272 L89 272 C98 406 114 423 226 420 L344 420 L25 50 L25 0 Z " />
<glyph glyph-name="braceleft" unicode="&#x7b;" horiz-adv-x="358" d="M189 549 C189 613 211 631 286 628 L313 628 L326 628 L326 671 C285 672 277 672 270 672 C157 672 115 634 115 532 L115 351 C113 299 99 278 59 268 L59 227 C101 216 115 193 115 137 L115 -32 C115 -138 157 -178 267 -178 C284 -178 298 -178 326 -177 L326 -133 C211 -136 190 -124 189 -52 L189 126 C188 190 173 222 128 247 C174 273 187 299 189 368 L189 549 Z " />
<glyph glyph-name="bar" unicode="&#x7c;" horiz-adv-x="500" d="M207 667 L207 -167 L294 -167 L294 667 L207 667 Z " />
<glyph glyph-name="braceright" unicode="&#x7d;" horiz-adv-x="358" d="M196 -55 C196 -119 174 -137 99 -134 L72 -133 L59 -133 L59 -177 C98 -178 108 -178 115 -178 C228 -178 270 -140 270 -38 L270 143 C272 196 286 216 326 226 L326 268 C284 278 270 301 270 358 L270 526 C270 632 228 672 118 672 C100 672 94 672 59 671 L59 627 L78 627 C173 630 196 614 196 547 L196 369 C197 304 212 272 257 247 C211 222 198 196 196 126 L196 -55 Z " />
<glyph glyph-name="asciitilde" unicode="&#x7e;" horiz-adv-x="667" d="M140 577 C170 630 194 650 227 650 C251 650 268 644 324 618 C389 586 411 579 437 579 C494 579 535 614 573 695 L528 731 C498 678 473 658 439 658 C415 658 401 663 344 691 C286 719 259 728 230 728 C174 728 131 692 94 613 L140 577 Z " />
<glyph glyph-name="uni00A0" unicode="&#xa0;" horiz-adv-x="250" d="" />
<glyph glyph-name="exclamdown" unicode="&#xa1;" horiz-adv-x="303" d="M150 484 C119 484 94 458 94 428 C94 397 120 371 150 371 C181 371 207 396 207 426 C207 459 182 484 150 484 L150 484 Z M128 285 C123 128 120 89 105 -31 C95 -128 94 -135 94 -150 C94 -193 116 -220 150 -220 C185 -220 207 -193 207 -150 C207 -134 207 -130 196 -31 C180 89 178 128 172 285 L128 285 Z " />
<glyph glyph-name="cent" unicode="&#xa2;" horiz-adv-x="611" d="M93 -87 L145 -87 L200 21 C245 4 266 -1 303 -1 C357 -1 402 11 434 33 C484 68 506 109 521 192 L463 192 C452 147 444 128 429 108 C405 77 363 58 317 58 C287 58 269 63 232 84 L413 435 C440 419 443 416 459 390 C420 382 404 367 404 337 C404 306 427 283 459 283 C499 283 526 311 526 353 C526 407 496 448 435 478 L488 582 L436 582 L391 494 C357 501 327 504 306 504 C248 504 184 476 140 431 C94 384 70 321 70 245 C70 202 78 160 94 126 C108 94 122 77 161 45 L93 -87 Z M199 120 C173 175 167 200 167 252 C167 313 181 364 208 399 C234 433 279 456 322 456 C333 456 350 454 370 451 L199 120 Z " />
<glyph glyph-name="sterling" unicode="&#xa3;" horiz-adv-x="611" d="M72 -14 C120 33 152 49 199 49 C228 49 248 44 301 22 L361 -3 C388 -15 405 -19 423 -19 C459 -19 490 -7 511 15 C546 54 559 100 560 192 L517 192 C512 99 492 64 444 64 C419 64 392 71 363 84 L317 106 C296 116 273 121 251 121 C223 121 204 115 170 93 L167 99 C239 167 256 200 254 276 L384 276 L384 320 L248 320 C240 341 239 344 220 373 C195 411 185 437 185 461 C185 524 249 574 330 574 C363 574 398 566 424 553 C442 544 450 536 464 515 C435 492 429 482 429 458 C429 425 451 404 484 404 C521 404 548 433 548 475 C548 507 532 536 501 563 C456 602 395 622 318 622 C185 622 87 550 87 453 C87 416 100 386 144 320 L48 320 L48 276 L157 276 C159 259 160 240 160 230 C160 204 154 181 141 154 C121 111 100 87 45 42 L72 -14 Z " />
<glyph glyph-name="currency" unicode="&#xa4;" horiz-adv-x="667" d="M51 125 L95 80 L191 176 C242 141 285 126 335 126 C387 126 433 142 478 176 L574 80 L618 125 L522 221 C557 269 571 310 571 362 C571 413 557 454 521 504 L617 599 L572 644 L476 549 C428 584 386 598 334 598 C281 598 240 584 190 548 L94 644 L49 599 L146 503 C111 454 96 413 96 362 C96 311 112 265 146 221 L51 125 Z M336 526 C424 526 497 452 497 362 C497 271 424 198 333 198 C243 198 170 271 170 361 C170 454 243 526 336 526 L336 526 Z " />
<glyph glyph-name="yen" unicode="&#xa5;" horiz-adv-x="653" d="M438 349 L520 482 C557 542 577 558 615 557 L636 557 L636 605 L390 605 L390 557 L452 557 C471 557 483 551 483 541 C483 534 479 522 473 512 L341 300 L219 503 C211 516 206 530 206 538 C206 551 217 557 238 557 L295 557 L295 605 L18 605 L18 557 L44 557 C75 556 98 538 122 499 L214 349 L93 349 L93 306 L240 306 L278 246 L106 246 L106 203 L282 203 L282 114 C283 57 276 50 218 48 L161 48 L161 0 L490 0 L490 48 L433 48 C375 50 369 56 370 114 L370 203 L547 203 L547 246 L374 246 L411 306 L560 306 L560 349 L438 349 Z " />
<glyph glyph-name="brokenbar" unicode="&#xa6;" horiz-adv-x="500" d="M207 667 L207 330 L294 330 L294 667 L207 667 Z M207 153 L207 -167 L294 -167 L294 153 L207 153 Z " />
<glyph glyph-name="section" unicode="&#xa7;" horiz-adv-x="591" d="M285 438 C190 475 172 492 172 541 C172 600 223 637 306 637 C346 637 365 631 407 607 C375 595 361 578 361 550 C361 517 387 494 425 494 C467 494 492 520 492 565 C492 639 418 687 304 687 C243 687 196 673 160 644 C122 614 98 566 98 523 C98 473 119 437 166 404 C87 367 55 326 55 265 C55 231 70 194 95 168 C116 145 142 131 189 115 L299 77 C390 46 427 10 427 -46 C427 -118 370 -160 273 -160 C236 -160 215 -155 171 -134 C204 -118 216 -102 216 -74 C216 -34 189 -7 150 -7 C109 -7 80 -37 80 -81 C80 -161 155 -211 276 -211 C416 -211 508 -138 508 -28 C508 32 486 67 426 105 C466 124 481 134 497 149 C524 173 539 209 539 247 C539 283 525 317 501 340 C479 361 466 368 395 395 L285 438 Z M211 188 C150 210 125 236 125 277 C125 323 152 352 222 378 L389 315 C449 292 470 272 470 236 C470 211 457 185 436 168 C420 156 407 149 368 131 L211 188 Z " />
<glyph glyph-name="dieresis" unicode="&#xa8;" horiz-adv-x="500" d="M157 674 C128 674 102 649 102 620 C102 588 126 565 157 565 C188 565 211 588 211 619 C211 649 186 674 157 674 L157 674 Z M343 674 C314 674 288 648 288 620 C288 589 312 565 344 565 C374 565 397 589 397 619 C397 649 372 674 343 674 L343 674 Z " />
<glyph glyph-name="copyright" unicode="&#xa9;" horiz-adv-x="799" d="M524 286 C518 246 511 229 496 211 C477 186 446 173 408 173 C328 173 276 236 276 334 C276 428 329 497 403 497 C439 497 473 481 496 453 C514 431 520 413 526 372 L561 372 L561 524 L529 524 L516 492 C468 526 442 535 399 535 C290 535 208 448 208 332 C208 214 288 132 402 132 C459 132 501 149 529 183 C551 209 559 233 565 286 L524 286 Z M405 681 C201 681 40 528 40 333 C40 142 202 -14 400 -14 C598 -14 759 141 759 333 C759 523 598 681 405 681 L405 681 Z M404 630 C565 630 700 495 700 333 C700 170 565 37 400 37 C234 37 98 170 98 333 C98 499 232 630 404 630 L404 630 Z " />
<glyph glyph-name="ordfeminine" unicode="&#xaa;" horiz-adv-x="347" d="M314 367 C312 307 307 295 289 295 C277 295 273 303 273 326 L273 463 C273 506 265 523 241 539 C219 553 188 560 154 560 C84 560 31 526 31 482 C31 460 49 443 72 443 C94 443 110 457 110 475 C110 492 102 501 84 507 C106 522 122 527 146 527 C189 527 216 508 216 479 C216 454 205 444 168 434 L119 421 C41 401 14 379 14 335 C14 288 53 256 110 256 C151 256 180 268 219 300 C231 267 247 256 280 256 C314 256 334 271 344 304 C348 319 349 331 349 367 L314 367 Z M213 387 C213 352 206 333 185 317 C170 305 147 298 126 298 C98 298 80 313 80 337 C80 360 96 374 137 386 L161 394 C177 399 190 404 213 414 L213 387 Z " />
<glyph glyph-name="guillemotleft" unicode="&#xab;" horiz-adv-x="457" d="M338 72 L389 72 L335 182 C324 205 318 224 318 238 C318 251 324 270 335 293 L389 403 L338 403 L290 333 C245 270 241 263 241 237 C241 212 245 204 290 142 L338 72 Z M167 72 L218 72 L164 182 C153 206 147 224 147 238 C147 251 153 270 164 293 L218 403 L167 403 L119 333 C74 270 70 263 70 237 C70 212 74 205 118 142 L167 72 Z " />
<glyph glyph-name="logicalnot" unicode="&#xac;" horiz-adv-x="500" d="M382 0 L466 0 L466 279 L33 279 L33 203 L382 203 L382 0 Z " />
<glyph glyph-name="uni00AD" unicode="&#xad;" horiz-adv-x="258" d="M0 201 L258 201 L258 275 L0 275 L0 201 Z " />
<glyph glyph-name="registered" unicode="&#xae;" horiz-adv-x="799" d="M393 179 L362 179 C327 181 324 183 325 217 L325 323 L394 323 C453 322 479 299 481 244 L483 198 C484 155 506 132 543 132 C595 132 612 158 613 241 L579 241 C577 185 574 175 560 175 C548 175 545 185 545 225 C545 295 529 323 478 338 C541 350 569 378 569 427 C569 495 519 523 400 523 L200 523 L200 487 L227 487 C261 486 264 483 263 450 L263 217 C264 183 261 181 227 179 L200 179 L200 143 L393 143 L393 179 Z M325 359 L325 487 L400 487 C475 487 505 470 505 426 C505 381 469 359 394 359 L325 359 Z M405 681 C201 681 40 528 40 333 C40 142 202 -14 400 -14 C598 -14 759 141 759 333 C759 523 598 681 405 681 L405 681 Z M404 630 C565 630 700 495 700 333 C700 170 565 37 400 37 C234 37 98 170 98 333 C98 499 232 630 404 630 L404 630 Z " />
<glyph glyph-name="macron" unicode="&#xaf;" horiz-adv-x="500" d="M119 585 L381 585 L381 653 L119 653 L119 585 Z " />
<glyph glyph-name="degree" unicode="&#xb0;" horiz-adv-x="500" d="M251 680 C193 680 145 634 145 578 C145 517 192 469 252 469 C309 469 356 517 356 575 C356 634 309 680 251 680 L251 680 Z M250 625 C279 625 302 602 302 574 C302 547 278 523 250 523 C222 523 199 546 199 576 C199 603 222 625 250 625 L250 625 Z " />
<glyph glyph-name="plusminus" unicode="&#xb1;" horiz-adv-x="506" d="M52 342 L52 276 L215 276 L215 114 L291 114 L291 276 L454 276 L454 342 L291 342 L291 504 L215 504 L215 342 L52 342 Z M52 66 L52 0 L454 0 L454 66 L52 66 Z " />
<glyph glyph-name="twosuperior" unicode="&#xb2;" horiz-adv-x="402" d="M68 267 C70 295 80 304 109 304 C127 304 129 303 167 287 L201 272 C226 260 243 256 262 256 C288 256 309 263 325 276 C350 297 359 324 361 379 L332 379 C328 324 316 308 276 308 C260 308 245 310 222 316 L178 327 C145 336 145 336 128 336 C111 336 103 334 84 326 C114 367 123 372 202 394 C255 408 285 418 302 427 C332 441 352 475 352 509 C352 573 290 615 197 615 C110 615 44 573 44 517 C44 491 65 471 91 471 C114 471 132 486 132 506 C132 526 119 537 94 537 L84 537 C112 573 136 585 183 585 C246 585 286 557 286 512 C286 475 269 459 206 437 C70 388 35 353 36 267 L68 267 Z " />
<glyph glyph-name="threesuperior" unicode="&#xb3;" horiz-adv-x="402" d="M152 434 C204 433 226 431 245 424 C275 414 291 392 291 363 C291 314 250 288 174 288 C124 288 101 296 71 326 C102 328 114 338 114 358 C114 377 98 390 74 390 C45 390 25 372 25 347 C25 298 96 257 183 257 C288 257 360 300 360 362 C360 407 327 436 258 450 C288 457 299 461 312 468 C334 480 348 503 348 526 C348 579 286 615 194 615 C113 615 42 577 42 534 C42 512 60 497 85 497 C110 497 125 509 125 528 C125 545 116 554 93 559 C128 579 152 586 187 586 C245 586 282 561 282 523 C282 497 267 480 240 471 C223 466 203 465 152 464 L152 434 Z " />
<glyph glyph-name="acute" unicode="&#xb4;" horiz-adv-x="500" d="M182 540 L218 540 L364 629 C393 647 404 660 404 677 C404 698 387 715 367 715 C352 715 332 704 316 686 L182 540 Z " />
<glyph glyph-name="mu" unicode="&#xb5;" horiz-adv-x="645" d="M530 469 L445 469 L445 201 C445 149 434 118 404 85 C376 56 339 40 296 40 C222 40 195 79 195 188 L195 469 L110 469 L110 33 L97 -234 L184 -234 L172 13 C200 -5 232 -13 271 -13 C307 -13 343 -4 373 11 C400 25 417 42 445 81 L445 0 L622 0 L622 48 L594 48 C539 50 530 58 530 105 L530 469 Z " />
<glyph glyph-name="paragraph" unicode="&#xb6;" horiz-adv-x="433" d="M238 315 L238 -73 C238 -137 214 -167 163 -167 C142 -167 127 -161 113 -148 C140 -147 158 -128 158 -101 C158 -71 135 -50 104 -50 C69 -50 45 -76 45 -113 C45 -170 100 -214 172 -214 C219 -214 257 -197 285 -164 C308 -135 316 -106 316 -45 L316 604 L399 604 L399 667 L236 667 C180 667 129 657 98 639 C45 610 14 554 14 488 C14 388 89 315 192 315 L211 315 L238 315 Z " />
<glyph glyph-name="periodcentered" unicode="&#xb7;" horiz-adv-x="303" d="M151 291 C120 291 94 266 94 236 C94 203 119 178 151 178 C182 178 207 204 207 235 C207 265 182 291 151 291 L151 291 Z " />
<glyph glyph-name="cedilla" unicode="&#xb8;" horiz-adv-x="500" d="M125 -178 C174 -203 225 -217 267 -217 C336 -217 377 -185 377 -130 C377 -82 343 -49 293 -49 C284 -49 270 -50 257 -51 L257 0 L226 0 L226 -94 C242 -89 250 -88 260 -88 C291 -88 308 -104 308 -132 C308 -160 289 -174 254 -174 C221 -174 179 -160 142 -135 L125 -178 Z " />
<glyph glyph-name="onesuperior" unicode="&#xb9;" horiz-adv-x="402" d="M79 267 L324 267 L324 295 L294 295 C239 296 233 300 234 334 L234 615 L200 615 C181 572 160 562 81 557 L81 530 L175 530 L175 334 C176 299 172 297 111 295 L79 295 L79 267 Z " />
<glyph glyph-name="ordmasculine" unicode="&#xba;" horiz-adv-x="390" d="M195 560 C99 560 29 497 29 411 C29 319 96 257 195 257 C291 257 360 320 360 408 C360 497 291 560 195 560 L195 560 Z M194 524 C257 524 292 483 292 408 C292 334 257 293 194 293 C130 293 96 334 96 410 C96 483 132 524 194 524 L194 524 Z " />
<glyph glyph-name="guillemotright" unicode="&#xbb;" horiz-adv-x="457" d="M121 72 L170 142 C215 205 218 212 218 237 C218 263 214 270 170 333 L121 403 L70 403 L124 293 C135 270 141 251 141 238 C141 224 135 205 124 182 L70 72 L121 72 Z M292 72 L341 142 C386 206 389 212 389 237 C389 263 385 270 341 333 L292 403 L241 403 L295 293 C306 270 312 251 312 238 C312 224 306 205 295 182 L241 72 L292 72 Z " />
<glyph glyph-name="onequarter" unicode="&#xbc;" horiz-adv-x="841" d="M79 267 L324 267 L324 295 L294 295 C239 296 233 300 234 334 L234 615 L200 615 C181 572 160 562 81 557 L81 530 L175 530 L175 334 C176 299 172 297 111 295 L79 295 L79 267 Z M188 0 L243 0 L652 605 L597 605 L188 0 Z M584 0 L814 0 L814 28 L777 28 C736 29 729 34 730 62 L730 101 L814 101 L814 133 L730 133 L730 348 L691 348 L458 129 L458 101 L672 101 L672 59 C671 32 666 29 625 28 L584 28 L584 0 Z M672 133 L510 133 L672 285 L672 133 Z " />
<glyph glyph-name="onehalf" unicode="&#xbd;" horiz-adv-x="841" d="M79 267 L324 267 L324 295 L294 295 C239 296 233 300 234 334 L234 615 L200 615 C181 572 160 562 81 557 L81 530 L175 530 L175 334 C176 299 172 297 111 295 L79 295 L79 267 Z M188 0 L243 0 L652 605 L597 605 L188 0 Z M505 0 C507 28 518 37 546 37 C564 37 569 36 604 20 L638 5 C661 -5 680 -10 700 -10 C725 -10 746 -3 762 10 C787 31 796 58 799 113 L769 113 C766 58 753 42 713 42 C697 42 678 45 659 49 L615 61 C587 68 581 69 565 69 C549 69 540 67 521 60 C552 101 560 106 639 127 C689 141 722 151 739 160 C769 175 789 208 789 242 C789 306 727 348 634 348 C547 348 482 306 482 250 C482 224 502 204 529 204 C552 204 570 219 570 239 C570 259 556 270 532 270 L521 270 C549 306 573 318 620 318 C683 318 723 290 723 246 C723 208 706 192 643 170 C508 122 472 86 473 0 L505 0 Z " />
<glyph glyph-name="threequarters" unicode="&#xbe;" horiz-adv-x="841" d="M152 434 C204 433 226 431 245 424 C275 414 291 392 291 363 C291 314 250 288 174 288 C124 288 101 296 71 326 C102 328 114 338 114 358 C114 377 98 390 74 390 C45 390 25 372 25 347 C25 298 96 257 183 257 C288 257 360 300 360 362 C360 407 327 436 258 450 C288 457 299 461 312 468 C334 480 348 503 348 526 C348 579 286 615 194 615 C113 615 42 577 42 534 C42 512 60 497 85 497 C110 497 125 509 125 528 C125 545 116 554 93 559 C128 579 152 586 187 586 C245 586 282 561 282 523 C282 497 267 480 240 471 C223 466 203 465 152 464 L152 434 Z M189 0 L244 0 L653 605 L597 605 L189 0 Z M585 0 L815 0 L815 28 L778 28 C737 29 730 34 731 62 L731 101 L815 101 L815 133 L731 133 L731 348 L692 348 L459 129 L459 101 L673 101 L673 59 C672 32 667 29 626 28 L585 28 L585 0 Z M673 133 L512 133 L673 285 L673 133 Z " />
<glyph glyph-name="questiondown" unicode="&#xbf;" horiz-adv-x="497" d="M274 484 C243 484 218 458 218 428 C218 397 244 371 274 371 C305 371 331 396 331 426 C331 459 306 484 274 484 L274 484 Z M250 287 C245 202 240 193 167 138 C101 90 82 72 60 40 C44 14 34 -18 34 -49 C34 -151 122 -221 251 -221 C378 -221 470 -149 470 -48 C470 11 435 55 387 55 C349 55 324 32 324 -2 C324 -33 344 -53 376 -53 C390 -53 399 -50 417 -40 C416 -81 408 -100 384 -124 C356 -151 310 -167 264 -167 C183 -167 129 -121 129 -53 C129 -7 146 26 194 70 C289 156 299 175 301 287 L250 287 Z " />
<glyph glyph-name="Agrave" unicode="&#xc0;" horiz-adv-x="700" d="M-20 0 L268 0 L268 53 L218 53 C167 53 154 58 154 79 C154 89 159 106 168 130 L205 223 L459 223 L501 110 C506 96 509 84 509 79 C509 59 495 53 450 53 L397 53 L397 0 L713 0 L713 53 L685 53 C637 54 619 67 602 114 L390 667 L307 667 L92 111 C73 64 59 54 12 53 L-20 53 L-20 0 Z M225 276 L329 561 L437 276 L225 276 Z M388 719 L423 719 L287 840 C274 852 259 859 247 859 C228 859 212 843 212 823 C212 805 222 794 245 783 L388 719 Z " />
<glyph glyph-name="Aacute" unicode="&#xc1;" horiz-adv-x="700" d="M-20 0 L268 0 L268 53 L218 53 C167 53 154 58 154 79 C154 89 159 106 168 130 L205 223 L459 223 L501 110 C506 96 509 84 509 79 C509 59 495 53 450 53 L397 53 L397 0 L713 0 L713 53 L685 53 C637 54 619 67 602 114 L390 667 L307 667 L92 111 C73 64 59 54 12 53 L-20 53 L-20 0 Z M225 276 L329 561 L437 276 L225 276 Z M313 719 L456 783 C480 794 490 805 490 823 C490 843 474 859 455 859 C443 859 428 852 415 840 L279 719 L313 719 Z " />
<glyph glyph-name="Acircumflex" unicode="&#xc2;" horiz-adv-x="700" d="M-20 0 L268 0 L268 53 L218 53 C167 53 154 58 154 79 C154 89 159 106 168 130 L205 223 L459 223 L501 110 C506 96 509 84 509 79 C509 59 495 53 450 53 L397 53 L397 0 L713 0 L713 53 L685 53 C637 54 619 67 602 114 L390 667 L307 667 L92 111 C73 64 59 54 12 53 L-20 53 L-20 0 Z M225 276 L329 561 L437 276 L225 276 Z M207 719 L239 719 L350 790 L461 719 L493 719 L387 851 L313 851 L207 719 Z " />
<glyph glyph-name="Atilde" unicode="&#xc3;" horiz-adv-x="700" d="M-20 0 L268 0 L268 53 L218 53 C167 53 154 58 154 79 C154 89 159 106 168 130 L205 223 L459 223 L501 110 C506 96 509 84 509 79 C509 59 495 53 450 53 L397 53 L397 0 L713 0 L713 53 L685 53 C637 54 619 67 602 114 L390 667 L307 667 L92 111 C73 64 59 54 12 53 L-20 53 L-20 0 Z M225 276 L329 561 L437 276 L225 276 Z M467 829 C455 805 445 797 427 797 C418 797 408 799 396 805 L347 827 C329 835 314 839 302 839 C273 839 242 818 225 788 C217 775 213 765 205 741 L233 741 C246 766 257 774 274 774 C285 774 293 771 312 763 L361 742 C373 736 387 733 399 733 C442 733 482 774 495 829 L467 829 Z " />
<glyph glyph-name="Adieresis" unicode="&#xc4;" horiz-adv-x="700" d="M-20 0 L268 0 L268 53 L218 53 C167 53 154 58 154 79 C154 89 159 106 168 130 L205 223 L459 223 L501 110 C506 96 509 84 509 79 C509 59 495 53 450 53 L397 53 L397 0 L713 0 L713 53 L685 53 C637 54 619 67 602 114 L390 667 L307 667 L92 111 C73 64 59 54 12 53 L-20 53 L-20 0 Z M225 276 L329 561 L437 276 L225 276 Z M258 821 C231 821 207 798 207 771 C207 742 229 720 259 720 C287 720 309 742 309 770 C309 797 286 821 258 821 L258 821 Z M437 821 C410 821 386 798 386 771 C386 742 408 720 438 720 C466 720 488 742 488 770 C488 797 465 821 437 821 L437 821 Z " />
<glyph glyph-name="Aring" unicode="&#xc5;" horiz-adv-x="700" d="M-20 0 L268 0 L268 53 L218 53 C167 53 154 58 154 79 C154 89 159 106 168 130 L205 223 L459 223 L501 110 C506 96 509 84 509 79 C509 59 495 53 450 53 L397 53 L397 0 L713 0 L713 53 L685 53 C637 54 619 67 602 114 L390 667 L307 667 L92 111 C73 64 59 54 12 53 L-20 53 L-20 0 Z M225 276 L329 561 L437 276 L225 276 Z M343 893 C291 893 247 851 247 800 C247 745 290 701 344 701 C396 701 439 745 439 798 C439 851 396 893 343 893 L343 893 Z M343 848 C371 848 394 825 394 797 C394 770 371 746 343 746 C314 746 292 769 292 799 C292 826 315 848 343 848 L343 848 Z " />
<glyph glyph-name="AE" unicode="&#xc6;" horiz-adv-x="1097" d="M256 270 L505 270 L505 126 C506 63 499 55 434 53 L385 53 L385 0 L1016 0 L1016 271 L965 271 C958 88 932 56 786 53 L593 53 L593 323 L661 323 C753 320 763 306 768 178 L819 178 L819 505 L768 505 C768 392 752 374 662 376 L593 376 L593 614 L774 614 C927 613 961 578 965 416 L1016 416 L1016 667 L272 667 L272 614 L321 614 C371 614 391 606 391 584 C391 575 383 559 371 541 L58 111 C24 66 1 52 -35 53 L-55 53 L-55 0 L215 0 L215 53 L190 53 C143 53 127 59 127 77 C127 88 135 104 154 130 L256 270 Z M293 323 L492 614 L505 614 L505 323 L293 323 Z " />
<glyph glyph-name="Ccedilla" unicode="&#xc7;" horiz-adv-x="705" d="M595 243 C583 174 571 144 545 110 C509 65 453 41 386 41 C311 41 247 72 208 127 C170 181 148 255 148 334 C148 505 244 631 376 631 C441 631 502 602 544 550 C576 511 587 480 597 408 L648 408 L648 667 L602 667 L577 607 C491 669 445 687 369 687 C182 687 40 534 40 331 C40 143 157 2 328 -17 L328 -101 C344 -96 352 -95 363 -95 C391 -95 409 -111 409 -135 C409 -160 390 -174 356 -174 C323 -174 281 -159 244 -135 L227 -178 C280 -204 327 -217 369 -217 C436 -217 479 -184 479 -133 C479 -89 443 -56 395 -56 C385 -56 372 -57 359 -58 L359 -19 C367 -20 371 -20 374 -20 C488 -20 569 21 616 103 C636 137 646 172 654 243 L595 243 Z " />
<glyph glyph-name="Egrave" unicode="&#xc8;" horiz-adv-x="740" d="M30 0 L661 0 L661 271 L610 271 C603 88 577 56 431 53 L238 53 L238 323 L306 323 C398 320 408 306 413 178 L464 178 L464 505 L413 505 C412 392 397 374 307 376 L238 376 L238 614 L418 614 C572 613 606 578 610 416 L661 416 L661 667 L30 667 L30 614 L71 614 C135 612 142 604 141 541 L141 126 C142 63 135 55 71 53 L30 53 L30 0 Z M408 719 L443 719 L307 840 C294 852 279 859 267 859 C248 859 232 843 232 823 C232 805 242 794 265 783 L408 719 Z " />
<glyph glyph-name="Eacute" unicode="&#xc9;" horiz-adv-x="740" d="M30 0 L661 0 L661 271 L610 271 C603 88 577 56 431 53 L238 53 L238 323 L306 323 C398 320 408 306 413 178 L464 178 L464 505 L413 505 C412 392 397 374 307 376 L238 376 L238 614 L418 614 C572 613 606 578 610 416 L661 416 L661 667 L30 667 L30 614 L71 614 C135 612 142 604 141 541 L141 126 C142 63 135 55 71 53 L30 53 L30 0 Z M334 719 L477 783 C500 794 510 806 510 823 C510 843 494 859 475 859 C463 859 448 852 435 840 L299 719 L334 719 Z " />
<glyph glyph-name="Ecircumflex" unicode="&#xca;" horiz-adv-x="740" d="M30 0 L661 0 L661 271 L610 271 C603 88 577 56 431 53 L238 53 L238 323 L306 323 C398 320 408 306 413 178 L464 178 L464 505 L413 505 C412 392 397 374 307 376 L238 376 L238 614 L418 614 C572 613 606 578 610 416 L661 416 L661 667 L30 667 L30 614 L71 614 C135 612 142 604 141 541 L141 126 C142 63 135 55 71 53 L30 53 L30 0 Z M227 719 L259 719 L370 790 L481 719 L513 719 L407 851 L333 851 L227 719 Z " />
<glyph glyph-name="Edieresis" unicode="&#xcb;" horiz-adv-x="740" d="M30 0 L661 0 L661 271 L610 271 C603 88 577 56 431 53 L238 53 L238 323 L306 323 C398 320 408 306 413 178 L464 178 L464 505 L413 505 C412 392 397 374 307 376 L238 376 L238 614 L418 614 C572 613 606 578 610 416 L661 416 L661 667 L30 667 L30 614 L71 614 C135 612 142 604 141 541 L141 126 C142 63 135 55 71 53 L30 53 L30 0 Z M281 821 C254 821 230 798 230 771 C230 742 252 720 281 720 C310 720 332 742 332 770 C332 797 309 821 281 821 L281 821 Z M460 821 C433 821 409 798 409 771 C409 742 431 720 460 720 C489 720 511 742 511 770 C511 797 488 821 460 821 L460 821 Z " />
<glyph glyph-name="Igrave" unicode="&#xcc;" horiz-adv-x="387" d="M29 0 L357 0 L357 53 L312 53 C248 55 241 63 242 126 L242 541 C241 604 248 612 312 614 L357 614 L357 667 L29 667 L29 614 L74 614 C138 612 145 604 144 541 L144 126 C145 63 138 55 74 53 L29 53 L29 0 Z M231 719 L266 719 L130 840 C117 852 102 859 90 859 C71 859 55 843 55 823 C55 805 65 794 88 783 L231 719 Z " />
<glyph glyph-name="Iacute" unicode="&#xcd;" horiz-adv-x="387" d="M29 0 L357 0 L357 53 L312 53 C248 55 241 63 242 126 L242 541 C241 604 248 612 312 614 L357 614 L357 667 L29 667 L29 614 L74 614 C138 612 145 604 144 541 L144 126 C145 63 138 55 74 53 L29 53 L29 0 Z M157 719 L300 783 C323 794 333 806 333 823 C333 843 317 859 298 859 C286 859 271 852 258 840 L122 719 L157 719 Z " />
<glyph glyph-name="Icircumflex" unicode="&#xce;" horiz-adv-x="387" d="M29 0 L357 0 L357 53 L312 53 C248 55 241 63 242 126 L242 541 C241 604 248 612 312 614 L357 614 L357 667 L29 667 L29 614 L74 614 C138 612 145 604 144 541 L144 126 C145 63 138 55 74 53 L29 53 L29 0 Z M51 719 L82 719 L193 790 L304 719 L336 719 L230 851 L156 851 L51 719 Z " />
<glyph glyph-name="Idieresis" unicode="&#xcf;" horiz-adv-x="387" d="M29 0 L357 0 L357 53 L312 53 C248 55 241 63 242 126 L242 541 C241 604 248 612 312 614 L357 614 L357 667 L29 667 L29 614 L74 614 C138 612 145 604 144 541 L144 126 C145 63 138 55 74 53 L29 53 L29 0 Z M114 821 C87 821 63 798 63 771 C63 742 85 720 114 720 C143 720 165 742 165 770 C165 797 142 821 114 821 L114 821 Z M273 821 C246 821 222 798 222 771 C222 742 244 720 273 720 C302 720 324 742 324 770 C324 797 301 821 273 821 L273 821 Z " />
<glyph glyph-name="Eth" unicode="&#xd0;" horiz-adv-x="789" d="M33 0 L355 0 C521 0 589 18 654 79 C718 138 753 230 753 336 C753 447 714 540 643 599 C579 652 517 667 357 667 L33 667 L33 614 L74 614 C139 612 146 604 145 541 L145 361 L5 361 L5 313 L145 313 L145 126 C146 63 139 55 74 53 L33 53 L33 0 Z M242 313 L432 313 L432 361 L242 361 L242 614 L357 614 C470 614 535 592 583 539 C626 491 645 429 645 340 C645 246 622 168 580 124 C535 78 457 53 355 53 L242 53 L242 313 Z " />
<glyph glyph-name="Ntilde" unicode="&#xd1;" horiz-adv-x="824" d="M699 -3 L699 541 C698 604 705 612 769 614 L801 614 L801 667 L509 667 L509 614 L562 614 C626 612 633 604 632 541 L632 131 L253 667 L30 667 L30 614 L69 614 C133 612 140 604 139 541 L139 126 C140 63 133 55 69 53 L30 53 L30 0 L327 0 L327 53 L277 53 C212 55 205 63 206 126 L206 577 L614 -3 L699 -3 Z M543 829 C531 805 520 797 502 797 C493 797 484 799 471 805 L423 827 C405 835 389 839 377 839 C349 839 318 818 301 788 C293 775 289 765 281 741 L308 741 C322 766 333 774 350 774 C360 774 369 771 388 763 L436 742 C449 736 463 733 475 733 C517 733 558 774 571 829 L543 829 Z " />
<glyph glyph-name="Ograve" unicode="&#xd2;" horiz-adv-x="794" d="M398 687 C194 687 40 537 40 339 C40 130 189 -19 398 -19 C604 -19 755 131 755 334 C755 538 604 687 398 687 L398 687 Z M398 632 C472 632 537 602 583 546 C626 493 647 423 647 334 C647 154 549 36 398 36 C322 36 258 66 212 122 C168 177 148 245 148 338 C148 515 248 632 398 632 L398 632 Z M436 719 L470 719 L334 840 C321 852 306 859 295 859 C275 859 260 843 260 823 C260 805 270 793 293 783 L436 719 Z " />
<glyph glyph-name="Oacute" unicode="&#xd3;" horiz-adv-x="794" d="M398 687 C194 687 40 537 40 339 C40 130 189 -19 398 -19 C604 -19 755 131 755 334 C755 538 604 687 398 687 L398 687 Z M398 632 C472 632 537 602 583 546 C626 493 647 423 647 334 C647 154 549 36 398 36 C322 36 258 66 212 122 C168 177 148 245 148 338 C148 515 248 632 398 632 L398 632 Z M361 719 L504 783 C527 793 537 806 537 823 C537 843 521 859 502 859 C491 859 475 852 462 840 L327 719 L361 719 Z " />
<glyph glyph-name="Ocircumflex" unicode="&#xd4;" horiz-adv-x="794" d="M398 687 C194 687 40 537 40 339 C40 130 189 -19 398 -19 C604 -19 755 131 755 334 C755 538 604 687 398 687 L398 687 Z M398 632 C472 632 537 602 583 546 C626 493 647 423 647 334 C647 154 549 36 398 36 C322 36 258 66 212 122 C168 177 148 245 148 338 C148 515 248 632 398 632 L398 632 Z M255 719 L287 719 L397 790 L508 719 L540 719 L434 851 L360 851 L255 719 Z " />
<glyph glyph-name="Otilde" unicode="&#xd5;" horiz-adv-x="794" d="M398 687 C194 687 40 537 40 339 C40 130 189 -19 398 -19 C604 -19 755 131 755 334 C755 538 604 687 398 687 L398 687 Z M398 632 C472 632 537 602 583 546 C626 493 647 423 647 334 C647 154 549 36 398 36 C322 36 258 66 212 122 C168 177 148 245 148 338 C148 515 248 632 398 632 L398 632 Z M515 829 C503 805 492 797 474 797 C465 797 456 799 443 805 L394 827 C377 835 361 839 349 839 C321 839 289 818 272 788 C265 775 261 765 253 741 L280 741 C294 766 304 774 322 774 C332 774 341 771 359 763 L408 742 C421 736 435 733 447 733 C489 733 530 774 542 829 L515 829 Z " />
<glyph glyph-name="Odieresis" unicode="&#xd6;" horiz-adv-x="794" d="M398 687 C194 687 40 537 40 339 C40 130 189 -19 398 -19 C604 -19 755 131 755 334 C755 538 604 687 398 687 L398 687 Z M398 632 C472 632 537 602 583 546 C626 493 647 423 647 334 C647 154 549 36 398 36 C322 36 258 66 212 122 C168 177 148 245 148 338 C148 515 248 632 398 632 L398 632 Z M308 821 C281 821 257 798 257 771 C257 742 279 720 308 720 C337 720 359 742 359 770 C359 797 336 821 308 821 L308 821 Z M487 821 C460 821 436 798 436 771 C436 742 458 720 487 720 C516 720 538 742 538 770 C538 797 515 821 487 821 L487 821 Z " />
<glyph glyph-name="multiply" unicode="&#xd7;" horiz-adv-x="507" d="M63 165 L109 118 L254 263 L398 118 L445 165 L300 309 L445 454 L398 500 L254 356 L109 500 L63 454 L207 309 L63 165 Z " />
<glyph glyph-name="Oslash" unicode="&#xd8;" horiz-adv-x="794" d="M60 7 L94 -28 L171 56 C257 -3 305 -19 395 -19 C606 -19 755 128 755 335 C755 433 733 490 658 581 L732 659 L698 694 L622 611 C544 667 484 687 394 687 C189 687 40 537 40 331 C40 236 62 179 134 88 L60 7 Z M600 517 C638 450 647 416 647 344 C647 245 627 177 583 122 C537 66 473 36 400 36 C331 36 292 52 222 110 L600 517 Z M193 150 C158 212 146 261 146 335 C146 509 249 632 395 632 C462 632 509 612 572 557 L193 150 Z " />
<glyph glyph-name="Ugrave" unicode="&#xd9;" horiz-adv-x="760" d="M30 614 L62 614 C127 612 134 604 133 541 L133 209 C133 125 157 67 208 30 C253 -3 312 -20 382 -20 C462 -20 525 1 569 43 C615 87 635 147 635 244 L635 541 C634 604 641 612 706 614 L736 614 L736 667 L449 667 L449 614 L498 614 C562 612 569 604 568 541 L568 244 C568 162 556 120 526 91 C497 63 450 47 394 47 C282 47 230 98 230 209 L230 541 C229 604 236 612 300 614 L349 614 L349 667 L30 667 L30 614 Z M438 719 L473 719 L337 840 C324 852 309 859 297 859 C278 859 262 843 262 823 C262 805 272 794 295 783 L438 719 Z " />
<glyph glyph-name="Uacute" unicode="&#xda;" horiz-adv-x="760" d="M30 614 L62 614 C127 612 134 604 133 541 L133 209 C133 125 157 67 208 30 C253 -3 312 -20 382 -20 C462 -20 525 1 569 43 C615 87 635 147 635 244 L635 541 C634 604 641 612 706 614 L736 614 L736 667 L449 667 L449 614 L498 614 C562 612 569 604 568 541 L568 244 C568 162 556 120 526 91 C497 63 450 47 394 47 C282 47 230 98 230 209 L230 541 C229 604 236 612 300 614 L349 614 L349 667 L30 667 L30 614 Z M364 719 L507 783 C530 794 540 805 540 823 C540 843 524 859 505 859 C493 859 478 852 465 840 L329 719 L364 719 Z " />
<glyph glyph-name="Ucircumflex" unicode="&#xdb;" horiz-adv-x="760" d="M30 614 L62 614 C127 612 134 604 133 541 L133 209 C133 125 157 67 208 30 C253 -3 312 -20 382 -20 C462 -20 525 1 569 43 C615 87 635 147 635 244 L635 541 C634 604 641 612 706 614 L736 614 L736 667 L449 667 L449 614 L498 614 C562 612 569 604 568 541 L568 244 C568 162 556 120 526 91 C497 63 450 47 394 47 C282 47 230 98 230 209 L230 541 C229 604 236 612 300 614 L349 614 L349 667 L30 667 L30 614 Z M257 719 L289 719 L400 790 L511 719 L543 719 L437 851 L363 851 L257 719 Z " />
<glyph glyph-name="Udieresis" unicode="&#xdc;" horiz-adv-x="760" d="M30 614 L62 614 C127 612 134 604 133 541 L133 209 C133 125 157 67 208 30 C253 -3 312 -20 382 -20 C462 -20 525 1 569 43 C615 87 635 147 635 244 L635 541 C634 604 641 612 706 614 L736 614 L736 667 L449 667 L449 614 L498 614 C562 612 569 604 568 541 L568 244 C568 162 556 120 526 91 C497 63 450 47 394 47 C282 47 230 98 230 209 L230 541 C229 604 236 612 300 614 L349 614 L349 667 L30 667 L30 614 Z M308 821 C281 821 257 798 257 771 C257 742 279 720 308 720 C337 720 359 742 359 770 C359 797 336 821 308 821 L308 821 Z M487 821 C460 821 436 798 436 771 C436 742 458 720 487 720 C516 720 538 742 538 770 C538 797 515 821 487 821 L487 821 Z " />
<glyph glyph-name="Yacute" unicode="&#xdd;" horiz-adv-x="636" d="M266 263 L266 126 C267 63 260 55 196 53 L133 53 L133 0 L495 0 L495 53 L433 53 C369 55 362 63 363 126 L363 263 L528 532 C570 597 592 614 633 614 L656 614 L656 667 L386 667 L386 614 L453 614 C474 614 487 607 487 597 C487 588 483 575 476 564 L331 331 L196 555 C187 569 182 584 182 593 C182 607 194 614 217 614 L281 614 L281 667 L-25 667 L-25 614 L4 614 C38 612 64 593 90 550 L266 263 Z M294 719 L437 783 C461 794 471 805 471 823 C471 843 455 859 436 859 C424 859 409 852 396 840 L260 719 L294 719 Z " />
<glyph glyph-name="Thorn" unicode="&#xde;" horiz-adv-x="680" d="M30 0 L358 0 L358 53 L309 53 C244 55 237 63 238 126 L238 158 L348 158 C465 158 515 166 563 192 C614 220 644 275 644 341 C644 407 616 459 565 487 C515 513 459 522 340 522 L238 522 L238 541 C237 604 244 612 309 614 L358 614 L358 667 L30 667 L30 614 L71 614 C135 612 142 604 141 541 L141 126 C142 63 135 55 71 53 L30 53 L30 0 Z M238 211 L238 469 L342 469 C401 469 437 465 466 455 C517 438 543 401 543 344 C543 253 482 211 348 211 L238 211 Z " />
<glyph glyph-name="germandbls" unicode="&#xdf;" horiz-adv-x="626" d="M15 0 L190 0 L190 442 C190 521 198 563 220 591 C241 619 274 634 315 634 C382 634 424 594 424 531 C424 495 410 469 380 451 C354 436 327 431 261 430 L261 379 C348 378 384 370 418 342 C453 314 472 261 472 192 C472 95 438 36 383 36 C356 36 333 51 323 75 C314 95 311 113 308 168 L254 168 C256 94 262 62 280 32 C300 -1 334 -17 383 -17 C491 -17 568 76 568 208 C568 269 551 316 515 352 C487 380 461 393 399 410 C484 435 517 471 517 537 C517 624 437 684 321 684 C181 684 105 599 105 442 L105 105 C105 58 96 50 41 48 L18 48 L15 0 Z " />
<glyph glyph-name="agrave" unicode="&#xe0;" horiz-adv-x="551" d="M505 159 C502 60 493 37 460 37 C438 37 430 53 430 95 L430 327 C430 397 419 426 382 451 C347 474 299 486 246 486 C139 486 56 431 56 361 C56 326 82 300 116 300 C148 300 171 321 171 349 C171 376 157 391 124 399 C163 431 191 441 233 441 C304 441 350 407 350 354 C350 309 331 290 270 273 L192 251 C132 234 106 224 79 205 C47 182 30 149 30 110 C30 33 89 -18 177 -18 C242 -18 288 3 351 61 C368 5 395 -18 445 -18 C524 -18 550 26 551 159 L505 159 Z M346 199 C346 137 333 103 299 74 C275 54 237 41 202 41 C154 41 124 69 124 112 C124 156 150 181 217 203 L256 216 C285 225 296 230 346 253 L346 199 Z M336 540 L202 686 C186 703 166 715 151 715 C131 715 114 698 114 677 C114 660 124 648 155 629 L300 540 L336 540 Z " />
<glyph glyph-name="aacute" unicode="&#xe1;" horiz-adv-x="551" d="M505 159 C502 60 493 37 460 37 C438 37 430 53 430 95 L430 327 C430 397 419 426 382 451 C347 474 299 486 246 486 C139 486 56 431 56 361 C56 326 82 300 116 300 C148 300 171 321 171 349 C171 376 157 391 124 399 C163 431 191 441 233 441 C304 441 350 407 350 354 C350 309 331 290 270 273 L192 251 C132 234 106 224 79 205 C47 182 30 149 30 110 C30 33 89 -18 177 -18 C242 -18 288 3 351 61 C368 5 395 -18 445 -18 C524 -18 550 26 551 159 L505 159 Z M346 199 C346 137 333 103 299 74 C275 54 237 41 202 41 C154 41 124 69 124 112 C124 156 150 181 217 203 L256 216 C285 225 296 230 346 253 L346 199 Z M207 540 L243 540 L389 629 C420 648 430 660 430 677 C430 698 413 715 393 715 C378 715 358 704 341 686 L207 540 Z " />
<glyph glyph-name="acircumflex" unicode="&#xe2;" horiz-adv-x="551" d="M505 159 C502 60 493 37 460 37 C438 37 430 53 430 95 L430 327 C430 397 419 426 382 451 C347 474 299 486 246 486 C139 486 56 431 56 361 C56 326 82 300 116 300 C148 300 171 321 171 349 C171 376 157 391 124 399 C163 431 191 441 233 441 C304 441 350 407 350 354 C350 309 331 290 270 273 L192 251 C132 234 106 224 79 205 C47 182 30 149 30 110 C30 33 89 -18 177 -18 C242 -18 288 3 351 61 C368 5 395 -18 445 -18 C524 -18 550 26 551 159 L505 159 Z M346 199 C346 137 333 103 299 74 C275 54 237 41 202 41 C154 41 124 69 124 112 C124 156 150 181 217 203 L256 216 C285 225 296 230 346 253 L346 199 Z M113 540 L148 540 L256 635 L363 540 L399 540 L288 709 L223 709 L113 540 Z " />
<glyph glyph-name="atilde" unicode="&#xe3;" horiz-adv-x="551" d="M505 159 C502 60 493 37 460 37 C438 37 430 53 430 95 L430 327 C430 397 419 426 382 451 C347 474 299 486 246 486 C139 486 56 431 56 361 C56 326 82 300 116 300 C148 300 171 321 171 349 C171 376 157 391 124 399 C163 431 191 441 233 441 C304 441 350 407 350 354 C350 309 331 290 270 273 L192 251 C132 234 106 224 79 205 C47 182 30 149 30 110 C30 33 89 -18 177 -18 C242 -18 288 3 351 61 C368 5 395 -18 445 -18 C524 -18 550 26 551 159 L505 159 Z M346 199 C346 137 333 103 299 74 C275 54 237 41 202 41 C154 41 124 69 124 112 C124 156 150 181 217 203 L256 216 C285 225 296 230 346 253 L346 199 Z M380 676 C368 652 357 644 339 644 C330 644 321 646 308 652 L259 674 C242 682 226 686 214 686 C186 686 154 665 137 635 C130 622 126 612 118 588 L145 588 C159 613 169 621 187 621 C197 621 206 618 224 610 L273 589 C286 583 300 580 312 580 C354 580 395 621 407 676 L380 676 Z " />
<glyph glyph-name="adieresis" unicode="&#xe4;" horiz-adv-x="551" d="M505 159 C502 60 493 37 460 37 C438 37 430 53 430 95 L430 327 C430 397 419 426 382 451 C347 474 299 486 246 486 C139 486 56 431 56 361 C56 326 82 300 116 300 C148 300 171 321 171 349 C171 376 157 391 124 399 C163 431 191 441 233 441 C304 441 350 407 350 354 C350 309 331 290 270 273 L192 251 C132 234 106 224 79 205 C47 182 30 149 30 110 C30 33 89 -18 177 -18 C242 -18 288 3 351 61 C368 5 395 -18 445 -18 C524 -18 550 26 551 159 L505 159 Z M346 199 C346 137 333 103 299 74 C275 54 237 41 202 41 C154 41 124 69 124 112 C124 156 150 181 217 203 L256 216 C285 225 296 230 346 253 L346 199 Z M179 674 C150 674 124 649 124 620 C124 588 148 565 179 565 C210 565 233 588 233 619 C233 649 209 674 179 674 L179 674 Z M365 674 C336 674 310 648 310 620 C310 589 334 565 365 565 C395 565 419 589 419 619 C419 649 394 674 365 674 L365 674 Z " />
<glyph glyph-name="aring" unicode="&#xe5;" horiz-adv-x="551" d="M505 159 C502 60 493 37 460 37 C438 37 430 53 430 95 L430 327 C430 397 419 426 382 451 C347 474 299 486 246 486 C139 486 56 431 56 361 C56 326 82 300 116 300 C148 300 171 321 171 349 C171 376 157 391 124 399 C163 431 191 441 233 441 C304 441 350 407 350 354 C350 309 331 290 270 273 L192 251 C132 234 106 224 79 205 C47 182 30 149 30 110 C30 33 89 -18 177 -18 C242 -18 288 3 351 61 C368 5 395 -18 445 -18 C524 -18 550 26 551 159 L505 159 Z M346 199 C346 137 333 103 299 74 C275 54 237 41 202 41 C154 41 124 69 124 112 C124 156 150 181 217 203 L256 216 C285 225 296 230 346 253 L346 199 Z M250 735 C198 735 154 693 154 642 C154 587 197 543 251 543 C303 543 346 587 346 640 C346 693 303 735 250 735 L250 735 Z M250 690 C278 690 301 667 301 639 C301 612 278 588 250 588 C221 588 199 611 199 641 C199 668 222 690 250 690 L250 690 Z " />
<glyph glyph-name="ae" unicode="&#xe6;" horiz-adv-x="834" d="M730 154 C715 110 704 91 683 74 C657 52 620 39 580 39 C530 39 489 59 465 95 C444 126 437 157 434 226 L803 226 C799 322 786 366 750 411 C711 461 654 486 579 486 C512 486 479 473 415 424 C389 450 375 460 354 468 C325 480 285 486 244 486 C129 486 46 433 46 360 C46 325 72 299 106 299 C138 299 161 320 161 348 C161 375 147 391 114 399 C155 432 184 442 231 442 C310 442 358 409 358 353 C358 305 335 285 260 268 L197 254 C75 227 20 182 20 110 C20 32 80 -18 175 -18 C209 -18 242 -11 272 1 C313 18 336 37 379 89 C404 53 420 35 440 21 C476 -3 527 -17 580 -17 C644 -17 693 1 731 38 C760 66 773 93 789 154 L730 154 Z M354 199 C354 137 341 103 307 75 C282 54 240 40 203 40 C147 40 114 67 114 113 C114 157 147 187 215 204 L261 216 C299 226 321 235 354 252 L354 199 Z M438 279 C444 337 451 363 471 390 C495 421 530 437 577 437 C619 437 654 422 675 394 C695 367 702 340 705 279 L438 279 Z " />
<glyph glyph-name="ccedilla" unicode="&#xe7;" horiz-adv-x="511" d="M423 175 C412 130 404 111 389 91 C364 60 323 41 277 41 C183 41 126 114 126 236 C126 362 188 438 291 438 C319 438 346 432 369 421 C391 411 401 401 419 372 C380 365 364 350 364 320 C364 288 387 266 419 266 C458 266 485 294 485 336 C485 422 396 486 278 486 C133 486 30 379 30 228 C30 94 107 1 233 -16 L233 -94 C249 -89 257 -88 267 -88 C298 -88 315 -104 315 -132 C315 -160 296 -174 261 -174 C228 -174 187 -160 149 -135 L132 -178 C185 -204 232 -217 274 -217 C343 -217 384 -185 384 -130 C384 -82 350 -49 300 -49 C291 -49 277 -50 264 -51 L264 -18 C387 -20 463 48 481 175 L423 175 Z " />
<glyph glyph-name="egrave" unicode="&#xe8;" horiz-adv-x="526" d="M422 154 C407 110 396 91 375 74 C349 52 312 39 272 39 C222 39 181 59 157 95 C136 126 128 157 126 226 L495 226 C491 322 478 366 442 411 C403 462 346 486 270 486 C124 486 30 387 30 233 C30 82 125 -17 272 -17 C336 -17 385 1 423 38 C452 66 465 93 481 154 L422 154 Z M130 279 C136 337 143 362 164 390 C187 421 222 437 268 437 C311 437 346 422 367 394 C387 367 394 340 397 279 L130 279 Z M324 540 L190 686 C174 703 154 715 139 715 C119 715 102 698 102 677 C102 660 112 647 142 629 L288 540 L324 540 Z " />
<glyph glyph-name="eacute" unicode="&#xe9;" horiz-adv-x="526" d="M422 154 C407 110 396 91 375 74 C349 52 312 39 272 39 C222 39 181 59 157 95 C136 126 128 157 126 226 L495 226 C491 322 478 366 442 411 C403 462 346 486 270 486 C124 486 30 387 30 233 C30 82 125 -17 272 -17 C336 -17 385 1 423 38 C452 66 465 93 481 154 L422 154 Z M130 279 C136 337 143 362 164 390 C187 421 222 437 268 437 C311 437 346 422 367 394 C387 367 394 340 397 279 L130 279 Z M195 540 L231 540 L377 629 C406 647 417 660 417 677 C417 698 400 715 380 715 C365 715 345 704 329 686 L195 540 Z " />
<glyph glyph-name="ecircumflex" unicode="&#xea;" horiz-adv-x="526" d="M422 154 C407 110 396 91 375 74 C349 52 312 39 272 39 C222 39 181 59 157 95 C136 126 128 157 126 226 L495 226 C491 322 478 366 442 411 C403 462 346 486 270 486 C124 486 30 387 30 233 C30 82 125 -17 272 -17 C336 -17 385 1 423 38 C452 66 465 93 481 154 L422 154 Z M130 279 C136 337 143 362 164 390 C187 421 222 437 268 437 C311 437 346 422 367 394 C387 367 394 340 397 279 L130 279 Z M121 540 L156 540 L263 635 L371 540 L406 540 L296 709 L231 709 L121 540 Z " />
<glyph glyph-name="edieresis" unicode="&#xeb;" horiz-adv-x="526" d="M422 154 C407 110 396 91 375 74 C349 52 312 39 272 39 C222 39 181 59 157 95 C136 126 128 157 126 226 L495 226 C491 322 478 366 442 411 C403 462 346 486 270 486 C124 486 30 387 30 233 C30 82 125 -17 272 -17 C336 -17 385 1 423 38 C452 66 465 93 481 154 L422 154 Z M130 279 C136 337 143 362 164 390 C187 421 222 437 268 437 C311 437 346 422 367 394 C387 367 394 340 397 279 L130 279 Z M171 674 C142 674 116 649 116 620 C116 588 140 565 171 565 C202 565 225 588 225 619 C225 649 200 674 171 674 L171 674 Z M357 674 C328 674 302 648 302 620 C302 589 326 565 358 565 C388 565 411 589 411 619 C411 649 386 674 357 674 L357 674 Z " />
<glyph glyph-name="igrave" unicode="&#xec;" horiz-adv-x="328" d="M30 0 L302 0 L302 48 L276 48 C221 50 212 58 212 105 L212 469 L30 469 L30 421 L62 421 C117 419 126 411 126 364 L126 105 C126 58 117 50 62 48 L30 48 L30 0 Z M191 540 L118 675 C103 704 89 715 69 715 C49 715 34 701 34 682 C34 665 36 661 71 628 L159 540 L191 540 Z " />
<glyph glyph-name="iacute" unicode="&#xed;" horiz-adv-x="346" d="M30 0 L302 0 L302 48 L276 48 C221 50 212 58 212 105 L212 469 L30 469 L30 421 L62 421 C117 419 126 411 126 364 L126 105 C126 58 117 50 62 48 L30 48 L30 0 Z M148 540 L180 540 L268 628 C303 661 305 664 305 682 C305 701 290 715 270 715 C250 715 236 704 220 675 L148 540 Z " />
<glyph glyph-name="icircumflex" unicode="&#xee;" horiz-adv-x="328" d="M30 0 L302 0 L302 48 L276 48 C221 50 212 58 212 105 L212 469 L30 469 L30 421 L62 421 C117 419 126 411 126 364 L126 105 C126 58 117 50 62 48 L30 48 L30 0 Z M21 540 L54 540 L150 635 L246 540 L280 540 L183 709 L118 709 L21 540 Z " />
<glyph glyph-name="idieresis" unicode="&#xef;" horiz-adv-x="328" d="M30 0 L302 0 L302 48 L276 48 C221 50 212 58 212 105 L212 469 L30 469 L30 421 L62 421 C117 419 126 411 126 364 L126 105 C126 58 117 50 62 48 L30 48 L30 0 Z M81 674 C52 674 26 649 26 620 C26 588 50 565 81 565 C112 565 135 588 135 619 C135 649 110 674 81 674 L81 674 Z M241 674 C212 674 186 648 186 620 C186 589 210 565 242 565 C272 565 295 589 295 619 C295 649 270 674 241 674 L241 674 Z " />
<glyph glyph-name="eth" unicode="&#xf0;" horiz-adv-x="576" d="M243 667 C267 638 274 629 291 606 L220 578 L242 537 L314 567 C347 519 356 504 372 474 C339 483 317 486 288 486 C219 486 155 462 108 419 C56 372 31 313 31 234 C31 156 56 97 108 50 C156 7 220 -17 289 -17 C437 -17 546 87 546 230 C546 332 497 431 369 591 L449 622 L426 663 L337 630 L300 667 L243 667 Z M288 435 C392 435 449 363 449 232 C449 106 390 34 288 34 C186 34 128 106 128 234 C128 363 186 435 288 435 L288 435 Z " />
<glyph glyph-name="ntilde" unicode="&#xf1;" horiz-adv-x="650" d="M30 0 L304 0 L304 48 L272 48 C216 50 207 58 207 105 L207 268 C207 319 219 352 248 384 C276 413 313 429 355 429 C429 429 456 390 456 281 L456 105 C456 58 447 50 392 48 L360 48 L360 0 L628 0 L628 48 L606 48 C550 50 541 58 541 105 L541 268 C541 357 535 389 512 423 C486 461 439 482 381 482 C346 482 309 473 279 458 C252 444 235 427 207 388 L207 469 L30 469 L30 421 L58 421 C113 419 122 410 122 364 L122 105 C122 58 113 50 58 48 L30 48 L30 0 Z M443 676 C431 652 420 644 402 644 C393 644 384 646 371 652 L322 674 C305 682 289 686 277 686 C249 686 217 665 200 635 C193 622 189 612 180 588 L208 588 C222 613 232 621 250 621 C260 621 269 618 287 610 L336 589 C349 583 363 580 375 580 C417 580 458 621 470 676 L443 676 Z " />
<glyph glyph-name="ograve" unicode="&#xf2;" horiz-adv-x="576" d="M288 486 C220 486 157 463 108 419 C58 375 31 312 31 238 C31 156 54 98 108 50 C155 7 219 -17 289 -17 C357 -17 421 7 468 50 C520 97 545 156 545 234 C545 313 520 372 468 419 C420 463 357 486 288 486 L288 486 Z M288 435 C390 435 448 363 448 234 C448 106 391 34 288 34 C184 34 128 106 128 237 C128 363 186 435 288 435 L288 435 Z M349 540 L215 686 C199 703 178 715 163 715 C143 715 126 698 126 677 C126 659 136 648 167 629 L313 540 L349 540 Z " />
<glyph glyph-name="oacute" unicode="&#xf3;" horiz-adv-x="576" d="M288 486 C220 486 157 463 108 419 C58 375 31 312 31 238 C31 156 54 98 108 50 C155 7 219 -17 289 -17 C357 -17 421 7 468 50 C520 97 545 156 545 234 C545 313 520 372 468 419 C420 463 357 486 288 486 L288 486 Z M288 435 C390 435 448 363 448 234 C448 106 391 34 288 34 C184 34 128 106 128 237 C128 363 186 435 288 435 L288 435 Z M220 540 L256 540 L401 629 C431 647 442 660 442 677 C442 698 425 715 405 715 C390 715 370 704 354 686 L220 540 Z " />
<glyph glyph-name="ocircumflex" unicode="&#xf4;" horiz-adv-x="576" d="M288 486 C220 486 157 463 108 419 C58 375 31 312 31 238 C31 156 54 98 108 50 C155 7 219 -17 289 -17 C357 -17 421 7 468 50 C520 97 545 156 545 234 C545 313 520 372 468 419 C420 463 357 486 288 486 L288 486 Z M288 435 C390 435 448 363 448 234 C448 106 391 34 288 34 C184 34 128 106 128 237 C128 363 186 435 288 435 L288 435 Z M145 540 L181 540 L288 635 L396 540 L431 540 L320 709 L256 709 L145 540 Z " />
<glyph glyph-name="otilde" unicode="&#xf5;" horiz-adv-x="576" d="M288 486 C220 486 157 463 108 419 C58 375 31 312 31 238 C31 156 54 98 108 50 C155 7 219 -17 289 -17 C357 -17 421 7 468 50 C520 97 545 156 545 234 C545 313 520 372 468 419 C420 463 357 486 288 486 L288 486 Z M288 435 C390 435 448 363 448 234 C448 106 391 34 288 34 C184 34 128 106 128 237 C128 363 186 435 288 435 L288 435 Z M406 676 C394 652 383 644 365 644 C356 644 347 646 334 652 L285 674 C268 682 252 686 240 686 C212 686 180 665 163 635 C156 622 151 612 143 588 L171 588 C184 613 195 621 213 621 C223 621 232 618 250 610 L299 589 C311 583 325 580 337 580 C380 580 420 621 433 676 L406 676 Z " />
<glyph glyph-name="odieresis" unicode="&#xf6;" horiz-adv-x="576" d="M288 486 C220 486 157 463 108 419 C58 375 31 312 31 238 C31 156 54 98 108 50 C155 7 219 -17 289 -17 C357 -17 421 7 468 50 C520 97 545 156 545 234 C545 313 520 372 468 419 C420 463 357 486 288 486 L288 486 Z M288 435 C390 435 448 363 448 234 C448 106 391 34 288 34 C184 34 128 106 128 237 C128 363 186 435 288 435 L288 435 Z M196 674 C167 674 141 649 141 620 C141 588 165 565 196 565 C227 565 250 588 250 619 C250 649 225 674 196 674 L196 674 Z M383 674 C354 674 328 648 328 620 C328 589 352 565 384 565 C414 565 437 589 437 619 C437 649 412 674 383 674 L383 674 Z " />
<glyph glyph-name="divide" unicode="&#xf7;" horiz-adv-x="506" d="M52 342 L52 276 L454 276 L454 342 L52 342 Z M254 515 C223 515 197 490 197 460 C197 427 222 402 254 402 C285 402 310 428 310 459 C310 489 285 515 254 515 L254 515 Z M254 217 C223 217 197 192 197 162 C197 129 222 104 254 104 C285 104 310 130 310 161 C310 191 285 217 254 217 L254 217 Z " />
<glyph glyph-name="oslash" unicode="&#xf8;" horiz-adv-x="576" d="M15 5 L46 -26 L116 41 C177 -2 220 -17 286 -17 C355 -17 419 7 467 50 C519 97 544 157 544 233 C544 297 531 336 488 398 L559 466 L528 497 L456 428 C395 472 354 486 288 486 C137 486 29 382 29 238 C29 178 41 143 85 73 L15 5 Z M429 341 C444 299 447 279 447 237 C447 105 390 33 286 33 C236 33 204 47 165 88 L429 341 Z M143 128 C129 170 125 189 125 229 C125 362 182 435 285 435 C337 435 373 420 408 382 L143 128 Z " />
<glyph glyph-name="ugrave" unicode="&#xf9;" horiz-adv-x="645" d="M25 421 L47 421 C102 419 111 411 111 364 L111 201 C111 112 117 80 140 46 C165 8 212 -13 271 -13 C308 -13 344 -4 374 11 C400 25 417 42 445 81 L445 0 L623 0 L623 48 L595 48 C540 50 529 59 530 105 L530 469 L343 469 L343 421 L381 421 C436 419 445 411 445 364 L445 201 C445 150 434 118 404 85 C377 55 340 40 297 40 C223 40 196 79 196 188 L196 469 L25 469 L25 421 Z M350 540 L216 686 C200 704 180 715 165 715 C145 715 128 698 128 677 C128 660 138 647 169 629 L314 540 L350 540 Z " />
<glyph glyph-name="uacute" unicode="&#xfa;" horiz-adv-x="645" d="M25 421 L47 421 C102 419 111 411 111 364 L111 201 C111 112 117 80 140 46 C165 8 212 -13 271 -13 C308 -13 344 -4 374 11 C400 25 417 42 445 81 L445 0 L623 0 L623 48 L595 48 C540 50 529 59 530 105 L530 469 L343 469 L343 421 L381 421 C436 419 445 411 445 364 L445 201 C445 150 434 118 404 85 C377 55 340 40 297 40 C223 40 196 79 196 188 L196 469 L25 469 L25 421 Z M255 540 L291 540 L436 629 C467 648 477 660 477 677 C477 698 460 715 440 715 C425 715 405 704 389 686 L255 540 Z " />
<glyph glyph-name="ucircumflex" unicode="&#xfb;" horiz-adv-x="645" d="M25 421 L47 421 C102 419 111 411 111 364 L111 201 C111 112 117 80 140 46 C165 8 212 -13 271 -13 C308 -13 344 -4 374 11 C400 25 417 42 445 81 L445 0 L623 0 L623 48 L595 48 C540 50 529 59 530 105 L530 469 L343 469 L343 421 L381 421 C436 419 445 411 445 364 L445 201 C445 150 434 118 404 85 C377 55 340 40 297 40 C223 40 196 79 196 188 L196 469 L25 469 L25 421 Z M180 540 L216 540 L323 635 L430 540 L466 540 L355 709 L291 709 L180 540 Z " />
<glyph glyph-name="udieresis" unicode="&#xfc;" horiz-adv-x="645" d="M25 421 L47 421 C102 419 111 411 111 364 L111 201 C111 112 117 80 140 46 C165 8 212 -13 271 -13 C308 -13 344 -4 374 11 C400 25 417 42 445 81 L445 0 L623 0 L623 48 L595 48 C540 50 529 59 530 105 L530 469 L343 469 L343 421 L381 421 C436 419 445 411 445 364 L445 201 C445 150 434 118 404 85 C377 55 340 40 297 40 C223 40 196 79 196 188 L196 469 L25 469 L25 421 Z M219 674 C190 674 164 649 164 620 C164 588 188 565 219 565 C250 565 273 588 273 619 C273 649 248 674 219 674 L219 674 Z M405 674 C376 674 350 648 350 620 C350 589 374 565 406 565 C436 565 459 589 459 619 C459 649 434 674 405 674 L405 674 Z " />
<glyph glyph-name="yacute" unicode="&#xfd;" horiz-adv-x="566" d="M255 -3 C226 -67 214 -89 197 -115 C174 -147 147 -164 116 -164 C90 -164 77 -157 58 -132 C100 -129 116 -116 116 -83 C116 -53 93 -30 63 -30 C24 -30 -5 -61 -5 -104 C-5 -134 7 -162 31 -184 C54 -206 76 -214 113 -214 C158 -214 195 -198 226 -165 C255 -134 274 -97 333 38 L472 359 C495 411 503 419 539 421 L569 421 L569 469 L331 469 L331 421 L371 421 C407 421 420 415 420 399 C420 391 418 381 414 372 L300 103 L187 367 C181 380 178 393 178 401 C178 416 187 421 212 421 L255 421 L255 469 L2 469 L2 421 L28 421 C66 419 75 412 93 374 L255 -3 Z M215 540 L251 540 L396 629 C427 648 437 660 437 677 C437 698 420 715 400 715 C385 715 365 704 349 686 L215 540 Z " />
<glyph glyph-name="thorn" unicode="&#xfe;" horiz-adv-x="615" d="M190 78 C210 50 224 33 239 21 C269 -3 311 -16 356 -16 C485 -16 571 85 571 235 C571 383 485 484 358 484 C305 484 257 465 225 433 C215 422 208 413 191 390 L191 667 L13 667 L13 619 L41 619 C95 617 106 608 105 562 L105 -109 C105 -155 96 -164 41 -166 L19 -166 L19 -214 L286 -214 L286 -166 L254 -166 C199 -164 189 -155 190 -109 L190 78 Z M339 426 C424 426 474 355 474 235 C474 112 425 42 340 42 C247 42 190 116 190 236 C190 351 249 426 339 426 L339 426 Z " />
<glyph glyph-name="ydieresis" unicode="&#xff;" horiz-adv-x="566" d="M255 -3 C226 -67 214 -89 197 -115 C174 -147 147 -164 116 -164 C90 -164 77 -157 58 -132 C100 -129 116 -116 116 -83 C116 -53 93 -30 63 -30 C24 -30 -5 -61 -5 -104 C-5 -134 7 -162 31 -184 C54 -206 76 -214 113 -214 C158 -214 195 -198 226 -165 C255 -134 274 -97 333 38 L472 359 C495 411 503 419 539 421 L569 421 L569 469 L331 469 L331 421 L371 421 C407 421 420 415 420 399 C420 391 418 381 414 372 L300 103 L187 367 C181 380 178 393 178 401 C178 416 187 421 212 421 L255 421 L255 469 L2 469 L2 421 L28 421 C66 419 75 412 93 374 L255 -3 Z M190 674 C161 674 135 649 135 620 C135 588 159 565 190 565 C221 565 244 588 244 619 C244 649 219 674 190 674 L190 674 Z M376 674 C347 674 321 648 321 620 C321 589 345 565 377 565 C407 565 430 589 430 619 C430 649 405 674 376 674 L376 674 Z " />
<glyph glyph-name="Amacron" unicode="&#x100;" horiz-adv-x="700" d="M-20 0 L268 0 L268 53 L218 53 C167 53 154 58 154 79 C154 89 159 106 168 130 L205 223 L459 223 L501 110 C506 96 509 84 509 79 C509 59 495 53 450 53 L397 53 L397 0 L713 0 L713 53 L685 53 C637 54 619 67 602 114 L390 667 L307 667 L92 111 C73 64 59 54 12 53 L-20 53 L-20 0 Z M225 276 L329 561 L437 276 L225 276 Z M224 751 L476 751 L476 816 L224 816 L224 751 Z " />
<glyph glyph-name="amacron" unicode="&#x101;" horiz-adv-x="551" d="M505 159 C502 60 493 37 460 37 C438 37 430 53 430 95 L430 327 C430 397 419 426 382 451 C347 474 299 486 246 486 C139 486 56 431 56 361 C56 326 82 300 116 300 C148 300 171 321 171 349 C171 376 157 391 124 399 C163 431 191 441 233 441 C304 441 350 407 350 354 C350 309 331 290 270 273 L192 251 C132 234 106 224 79 205 C47 182 30 149 30 110 C30 33 89 -18 177 -18 C242 -18 288 3 351 61 C368 5 395 -18 445 -18 C524 -18 550 26 551 159 L505 159 Z M346 199 C346 137 333 103 299 74 C275 54 237 41 202 41 C154 41 124 69 124 112 C124 156 150 181 217 203 L256 216 C285 225 296 230 346 253 L346 199 Z M125 585 L387 585 L387 653 L125 653 L125 585 Z " />
<glyph glyph-name="Abreve" unicode="&#x102;" horiz-adv-x="700" d="M-20 0 L268 0 L268 53 L218 53 C167 53 154 58 154 79 C154 89 159 106 168 130 L205 223 L459 223 L501 110 C506 96 509 84 509 79 C509 59 495 53 450 53 L397 53 L397 0 L713 0 L713 53 L685 53 C637 54 619 67 602 114 L390 667 L307 667 L92 111 C73 64 59 54 12 53 L-20 53 L-20 0 Z M225 276 L329 561 L437 276 L225 276 Z M206 847 C216 802 225 782 246 762 C271 737 308 723 350 723 C392 723 429 737 455 762 C475 781 484 802 494 847 L462 847 C448 806 418 791 350 791 C282 791 253 806 237 847 L206 847 Z " />
<glyph glyph-name="abreve" unicode="&#x103;" horiz-adv-x="551" d="M505 159 C502 60 493 37 460 37 C438 37 430 53 430 95 L430 327 C430 397 419 426 382 451 C347 474 299 486 246 486 C139 486 56 431 56 361 C56 326 82 300 116 300 C148 300 171 321 171 349 C171 376 157 391 124 399 C163 431 191 441 233 441 C304 441 350 407 350 354 C350 309 331 290 270 273 L192 251 C132 234 106 224 79 205 C47 182 30 149 30 110 C30 33 89 -18 177 -18 C242 -18 288 3 351 61 C368 5 395 -18 445 -18 C524 -18 550 26 551 159 L505 159 Z M346 199 C346 137 333 103 299 74 C275 54 237 41 202 41 C154 41 124 69 124 112 C124 156 150 181 217 203 L256 216 C285 225 296 230 346 253 L346 199 Z M117 692 C127 641 137 619 158 597 C184 571 220 557 262 557 C305 557 342 571 367 597 C388 618 398 641 408 692 L376 692 C361 644 333 628 262 628 C192 628 165 643 148 692 L117 692 Z " />
<glyph glyph-name="Aogonek" unicode="&#x104;" horiz-adv-x="700" d="M713 53 L685 53 C637 54 619 67 602 114 L390 667 L307 667 L92 111 C73 64 59 54 12 53 L-20 53 L-20 0 L268 0 L268 53 L218 53 C167 53 154 58 154 79 C154 89 159 106 168 130 L205 223 L459 223 L501 110 C506 96 509 84 509 79 C509 59 495 53 450 53 L397 53 L397 0 L664 0 C596 -49 562 -95 562 -142 C562 -188 593 -217 642 -217 C688 -217 723 -194 747 -148 L719 -127 C700 -150 692 -155 672 -155 C646 -155 628 -138 628 -113 C628 -77 648 -51 713 0 L713 53 Z M225 276 L329 561 L437 276 L225 276 Z " />
<glyph glyph-name="aogonek" unicode="&#x105;" horiz-adv-x="551" d="M505 159 C502 60 493 37 460 37 C438 37 430 53 430 95 L430 327 C430 397 419 426 382 451 C347 474 299 486 246 486 C139 486 56 431 56 361 C56 326 82 300 116 300 C148 300 171 321 171 349 C171 376 157 391 124 399 C163 431 191 441 233 441 C304 441 350 407 350 354 C350 309 331 290 270 273 L192 251 C132 234 106 224 79 205 C47 182 30 149 30 110 C30 33 89 -18 177 -18 C242 -18 288 3 351 61 C366 8 391 -14 442 -18 C386 -64 363 -100 363 -142 C363 -187 394 -217 443 -217 C488 -217 523 -194 548 -148 L520 -127 C500 -150 493 -155 473 -155 C447 -155 429 -138 429 -114 C429 -82 444 -58 490 -19 C540 24 551 56 551 159 L505 159 Z M346 199 C346 137 333 103 299 74 C275 54 237 41 202 41 C154 41 124 69 124 112 C124 156 150 181 217 203 L256 216 C285 225 296 230 346 253 L346 199 Z " />
<glyph glyph-name="Cacute" unicode="&#x106;" horiz-adv-x="705" d="M595 243 C583 174 571 144 545 110 C509 65 453 41 385 41 C310 41 246 72 207 127 C169 181 147 255 147 334 C147 506 243 631 376 631 C441 631 502 602 544 550 C576 511 587 480 597 408 L648 408 L648 667 L602 667 L577 607 C491 669 445 687 369 687 C181 687 39 534 39 331 C39 226 76 134 144 68 C205 8 279 -20 373 -20 C471 -20 544 9 593 69 C630 114 644 154 654 243 L595 243 Z M336 719 L479 783 C503 794 513 806 513 823 C513 843 497 859 478 859 C466 859 451 852 438 840 L302 719 L336 719 Z " />
<glyph glyph-name="cacute" unicode="&#x107;" horiz-adv-x="511" d="M423 175 C412 130 404 111 389 91 C365 60 323 41 277 41 C183 41 126 114 126 236 C126 362 188 438 291 438 C319 438 347 432 369 421 C391 411 401 401 419 372 C380 365 364 350 364 320 C364 288 387 266 419 266 C459 266 486 294 486 336 C486 422 397 486 279 486 C133 486 30 379 30 228 C30 81 125 -18 267 -18 C339 -18 389 2 429 47 C457 81 469 109 481 175 L423 175 Z M208 540 L244 540 L389 629 C420 648 430 660 430 677 C430 698 413 715 393 715 C378 715 358 704 342 686 L208 540 Z " />
<glyph glyph-name="Ccircumflex" unicode="&#x108;" horiz-adv-x="705" d="M595 243 C583 174 571 144 545 110 C509 65 453 41 385 41 C310 41 246 72 207 127 C169 181 147 255 147 334 C147 506 243 631 376 631 C441 631 502 602 544 550 C576 511 587 480 597 408 L648 408 L648 667 L602 667 L577 607 C491 669 445 687 369 687 C181 687 39 534 39 331 C39 226 76 134 144 68 C205 8 279 -20 373 -20 C471 -20 544 9 593 69 C630 114 644 154 654 243 L595 243 Z M230 719 L262 719 L373 790 L483 719 L515 719 L410 851 L336 851 L230 719 Z " />
<glyph glyph-name="ccircumflex" unicode="&#x109;" horiz-adv-x="511" d="M423 175 C412 130 404 111 389 91 C365 60 323 41 277 41 C183 41 126 114 126 236 C126 362 188 438 291 438 C319 438 347 432 369 421 C391 411 401 401 419 372 C380 365 364 350 364 320 C364 288 387 266 419 266 C459 266 486 294 486 336 C486 422 397 486 279 486 C133 486 30 379 30 228 C30 81 125 -18 267 -18 C339 -18 389 2 429 47 C457 81 469 109 481 175 L423 175 Z M135 540 L170 540 L278 635 L385 540 L421 540 L310 709 L245 709 L135 540 Z " />
<glyph glyph-name="Cdotaccent" unicode="&#x10a;" horiz-adv-x="705" d="M595 243 C583 174 571 144 545 110 C509 65 453 41 385 41 C310 41 246 72 207 127 C169 181 147 255 147 334 C147 506 243 631 376 631 C441 631 502 602 544 550 C576 511 587 480 597 408 L648 408 L648 667 L602 667 L577 607 C491 669 445 687 369 687 C181 687 39 534 39 331 C39 226 76 134 144 68 C205 8 279 -20 373 -20 C471 -20 544 9 593 69 C630 114 644 154 654 243 L595 243 Z M373 838 C344 838 319 813 319 785 C319 754 342 731 373 731 C402 731 426 755 426 784 C426 813 402 838 373 838 L373 838 Z " />
<glyph glyph-name="cdotaccent" unicode="&#x10b;" horiz-adv-x="511" d="M423 175 C412 130 404 111 389 91 C365 60 323 41 277 41 C183 41 126 114 126 236 C126 362 188 438 291 438 C319 438 347 432 369 421 C391 411 401 401 419 372 C380 365 364 350 364 320 C364 288 387 266 419 266 C459 266 486 294 486 336 C486 422 397 486 279 486 C133 486 30 379 30 228 C30 81 125 -18 267 -18 C339 -18 389 2 429 47 C457 81 469 109 481 175 L423 175 Z M277 677 C246 677 219 650 219 620 C219 587 244 562 277 562 C309 562 334 587 334 618 C334 650 307 677 277 677 L277 677 Z " />
<glyph glyph-name="Ccaron" unicode="&#x10c;" horiz-adv-x="705" d="M595 243 C583 174 571 144 545 110 C509 65 453 41 385 41 C310 41 246 72 207 127 C169 181 147 255 147 334 C147 506 243 631 376 631 C441 631 502 602 544 550 C576 511 587 480 597 408 L648 408 L648 667 L602 667 L577 607 C491 669 445 687 369 687 C181 687 39 534 39 331 C39 226 76 134 144 68 C205 8 279 -20 373 -20 C471 -20 544 9 593 69 C630 114 644 154 654 243 L595 243 Z M237 851 L342 719 L416 719 L522 851 L490 851 L379 780 L269 851 L237 851 Z " />
<glyph glyph-name="ccaron" unicode="&#x10d;" horiz-adv-x="511" d="M423 175 C412 130 404 111 389 91 C365 60 323 41 277 41 C183 41 126 114 126 236 C126 362 188 438 291 438 C319 438 347 432 369 421 C391 411 401 401 419 372 C380 365 364 350 364 320 C364 288 387 266 419 266 C459 266 486 294 486 336 C486 422 397 486 279 486 C133 486 30 379 30 228 C30 81 125 -18 267 -18 C339 -18 389 2 429 47 C457 81 469 109 481 175 L423 175 Z M133 709 L244 540 L308 540 L419 709 L383 709 L276 614 L169 709 L133 709 Z " />
<glyph glyph-name="Dcaron" unicode="&#x10e;" horiz-adv-x="785" d="M30 0 L352 0 C518 0 586 18 651 79 C715 138 750 230 750 336 C750 447 711 540 640 599 C576 652 514 667 354 667 L30 667 L30 614 L71 614 C135 612 142 604 141 541 L141 126 C142 63 135 55 71 53 L30 53 L30 0 Z M238 614 L353 614 C467 614 532 593 580 539 C623 491 642 430 642 341 C642 246 619 168 577 124 C532 78 454 53 352 53 L238 53 L238 614 Z M236 851 L342 719 L416 719 L522 851 L490 851 L379 780 L268 851 L236 851 Z " />
<glyph glyph-name="dcaron" unicode="&#x10f;" horiz-adv-x="654" d="M320 619 L352 619 C407 617 418 608 417 562 L417 391 C367 461 325 485 250 485 C121 485 35 384 35 234 C35 86 121 -15 248 -15 C322 -15 367 11 417 81 L417 0 L591 0 L591 48 L566 48 C511 50 502 58 502 105 L502 667 L320 667 L320 619 Z M266 427 C358 427 417 352 417 234 C417 119 357 43 267 43 C181 43 131 113 131 234 C131 357 180 427 266 427 L266 427 Z M549 472 C611 485 655 539 655 602 C655 649 626 681 585 681 C554 681 532 660 532 630 C532 605 552 586 577 586 C587 586 595 588 611 597 C613 552 588 514 549 504 L549 472 Z " />
<glyph glyph-name="Dcroat" unicode="&#x110;" horiz-adv-x="789" d="M33 0 L355 0 C521 0 589 18 654 79 C718 138 753 230 753 336 C753 447 714 540 643 599 C579 652 517 667 357 667 L33 667 L33 614 L74 614 C139 612 146 604 145 541 L145 361 L5 361 L5 313 L145 313 L145 126 C146 63 139 55 74 53 L33 53 L33 0 Z M242 313 L432 313 L432 361 L242 361 L242 614 L357 614 C470 614 535 592 583 539 C626 491 645 429 645 340 C645 246 622 168 580 124 C535 78 457 53 355 53 L242 53 L242 313 Z " />
<glyph glyph-name="dcroat" unicode="&#x111;" horiz-adv-x="611" d="M502 574 L502 667 L320 667 L320 619 L352 619 C403 617 416 609 417 574 L266 574 L266 521 L417 521 L417 391 C367 462 324 486 250 486 C122 486 35 385 35 234 C35 86 122 -15 248 -15 C285 -15 320 -6 350 12 C373 26 390 43 417 81 L417 0 L591 0 L591 48 L566 48 C511 50 502 58 502 105 L502 521 L591 521 L591 574 L502 574 Z M266 428 C358 428 417 353 417 234 C417 119 357 43 267 43 C181 43 131 113 131 234 C131 358 180 428 266 428 L266 428 Z " />
<glyph glyph-name="Emacron" unicode="&#x112;" horiz-adv-x="740" d="M30 0 L661 0 L661 271 L610 271 C603 88 577 56 431 53 L238 53 L238 323 L306 323 C398 320 408 306 413 178 L464 178 L464 505 L413 505 C412 392 397 374 307 376 L238 376 L238 614 L418 614 C572 613 606 578 610 416 L661 416 L661 667 L30 667 L30 614 L71 614 C135 612 142 604 141 541 L141 126 C142 63 135 55 71 53 L30 53 L30 0 Z M244 751 L496 751 L496 816 L244 816 L244 751 Z " />
<glyph glyph-name="emacron" unicode="&#x113;" horiz-adv-x="526" d="M422 154 C407 110 396 91 375 74 C349 52 312 39 272 39 C222 39 181 59 157 95 C136 126 128 157 126 226 L495 226 C491 322 478 366 442 411 C403 462 346 486 270 486 C124 486 30 387 30 233 C30 82 125 -17 272 -17 C336 -17 385 1 423 38 C452 66 465 93 481 154 L422 154 Z M130 279 C136 337 143 362 164 390 C187 421 222 437 268 437 C311 437 346 422 367 394 C387 367 394 340 397 279 L130 279 Z M133 585 L395 585 L395 653 L133 653 L133 585 Z " />
<glyph glyph-name="Ebreve" unicode="&#x114;" horiz-adv-x="740" d="M30 0 L661 0 L661 271 L610 271 C603 88 577 56 431 53 L238 53 L238 323 L306 323 C398 320 408 306 413 178 L464 178 L464 505 L413 505 C412 392 397 374 307 376 L238 376 L238 614 L418 614 C572 613 606 578 610 416 L661 416 L661 667 L30 667 L30 614 L71 614 C135 612 142 604 141 541 L141 126 C142 63 135 55 71 53 L30 53 L30 0 Z M226 847 C236 802 246 782 266 762 C292 737 328 723 370 723 C412 723 449 737 475 762 C495 781 504 802 514 847 L483 847 C468 806 438 791 370 791 C302 791 273 806 257 847 L226 847 Z " />
<glyph glyph-name="ebreve" unicode="&#x115;" horiz-adv-x="526" d="M422 154 C407 110 396 91 375 74 C349 52 312 39 272 39 C222 39 181 59 157 95 C136 126 128 157 126 226 L495 226 C491 322 478 366 442 411 C403 462 346 486 270 486 C124 486 30 387 30 233 C30 82 125 -17 272 -17 C336 -17 385 1 423 38 C452 66 465 93 481 154 L422 154 Z M130 279 C136 337 143 362 164 390 C187 421 222 437 268 437 C311 437 346 422 367 394 C387 367 394 340 397 279 L130 279 Z M118 692 C128 641 138 619 159 597 C185 571 221 557 263 557 C306 557 343 571 368 597 C389 618 399 641 409 692 L377 692 C362 644 334 628 263 628 C193 628 166 643 149 692 L118 692 Z " />
<glyph glyph-name="Edotaccent" unicode="&#x116;" horiz-adv-x="740" d="M30 0 L661 0 L661 271 L610 271 C603 88 577 56 431 53 L238 53 L238 323 L306 323 C398 320 408 306 413 178 L464 178 L464 505 L413 505 C412 392 397 374 307 376 L238 376 L238 614 L418 614 C572 613 606 578 610 416 L661 416 L661 667 L30 667 L30 614 L71 614 C135 612 142 604 141 541 L141 126 C142 63 135 55 71 53 L30 53 L30 0 Z M371 824 C342 824 317 799 317 771 C317 740 340 717 371 717 C400 717 424 741 424 770 C424 799 400 824 371 824 L371 824 Z " />
<glyph glyph-name="edotaccent" unicode="&#x117;" horiz-adv-x="526" d="M422 154 C407 110 396 91 375 74 C349 52 312 39 272 39 C222 39 181 59 157 95 C136 126 128 157 126 226 L495 226 C491 322 478 366 442 411 C403 462 346 486 270 486 C124 486 30 387 30 233 C30 82 125 -17 272 -17 C336 -17 385 1 423 38 C452 66 465 93 481 154 L422 154 Z M130 279 C136 337 143 362 164 390 C187 421 222 437 268 437 C311 437 346 422 367 394 C387 367 394 340 397 279 L130 279 Z M264 677 C233 677 206 650 206 620 C206 587 231 562 264 562 C296 562 321 587 321 618 C321 650 294 677 264 677 L264 677 Z " />
<glyph glyph-name="Eogonek" unicode="&#x118;" horiz-adv-x="740" d="M661 271 L610 271 C603 88 577 56 431 53 L238 53 L238 323 L306 323 C398 320 408 306 413 178 L464 178 L464 505 L413 505 C412 392 397 374 307 376 L238 376 L238 614 L418 614 C572 613 606 578 610 416 L661 416 L661 667 L30 667 L30 614 L71 614 C135 612 142 604 141 541 L141 126 C142 63 135 55 71 53 L30 53 L30 0 L612 0 C544 -49 511 -95 511 -142 C511 -187 542 -217 590 -217 C636 -217 670 -194 695 -148 L667 -127 C648 -150 640 -155 620 -155 C594 -155 576 -138 576 -114 C576 -88 592 -59 620 -33 C630 -24 638 -18 661 0 L661 271 Z " />
<glyph glyph-name="eogonek" unicode="&#x119;" horiz-adv-x="526" d="M495 226 C491 322 478 366 442 411 C403 462 346 486 270 486 C124 486 30 387 30 233 C30 82 126 -17 272 -17 C306 -17 333 -12 363 -2 C297 -49 263 -96 263 -142 C263 -187 295 -217 343 -217 C389 -217 424 -194 448 -148 L420 -127 C401 -150 393 -155 373 -155 C347 -155 329 -138 329 -114 C329 -92 342 -65 363 -43 C433 26 461 74 481 154 L422 154 C411 121 402 104 389 88 C363 57 320 39 273 39 C222 39 181 59 157 95 C136 126 128 157 126 226 L495 226 Z M130 279 C136 337 143 362 164 390 C187 421 222 437 268 437 C311 437 346 422 367 394 C387 367 394 340 397 279 L130 279 Z " />
<glyph glyph-name="Ecaron" unicode="&#x11a;" horiz-adv-x="740" d="M30 0 L661 0 L661 271 L610 271 C603 88 577 56 431 53 L238 53 L238 323 L306 323 C398 320 408 306 413 178 L464 178 L464 505 L413 505 C412 392 397 374 307 376 L238 376 L238 614 L418 614 C572 613 606 578 610 416 L661 416 L661 667 L30 667 L30 614 L71 614 C135 612 142 604 141 541 L141 126 C142 63 135 55 71 53 L30 53 L30 0 Z M227 851 L333 719 L407 719 L513 851 L481 851 L370 780 L259 851 L227 851 Z " />
<glyph glyph-name="ecaron" unicode="&#x11b;" horiz-adv-x="526" d="M422 154 C407 110 396 91 375 74 C349 52 312 39 272 39 C222 39 181 59 157 95 C136 126 128 157 126 226 L495 226 C491 322 478 366 442 411 C403 462 346 486 270 486 C124 486 30 387 30 233 C30 82 125 -17 272 -17 C336 -17 385 1 423 38 C452 66 465 93 481 154 L422 154 Z M130 279 C136 337 143 362 164 390 C187 421 222 437 268 437 C311 437 346 422 367 394 C387 367 394 340 397 279 L130 279 Z M121 709 L231 540 L296 540 L406 709 L371 709 L263 614 L156 709 L121 709 Z " />
<glyph glyph-name="Gcircumflex" unicode="&#x11c;" horiz-adv-x="775" d="M666 -7 L666 232 C666 283 675 290 737 289 L776 289 L776 342 L440 342 L440 289 L493 289 C559 288 567 282 569 232 L569 191 C569 156 561 131 543 108 C511 68 444 41 379 41 C302 41 232 77 195 137 C164 187 148 253 148 334 C148 514 235 631 371 631 C429 631 484 607 525 565 C560 529 576 497 597 421 L650 421 L650 667 L603 667 L569 602 C488 669 444 687 362 687 C173 687 40 539 40 329 C40 121 169 -19 361 -19 C439 -19 486 -3 576 56 L612 -7 L666 -7 Z M225 719 L257 719 L367 790 L478 719 L510 719 L405 851 L330 851 L225 719 Z " />
<glyph glyph-name="gcircumflex" unicode="&#x11d;" horiz-adv-x="646" d="M210 60 C149 60 124 71 124 98 C124 123 149 147 174 147 C177 147 181 146 187 145 C239 130 249 128 282 128 C413 128 494 197 494 307 C494 342 489 360 468 397 C497 432 516 444 547 444 C565 444 570 441 582 427 C549 421 534 406 534 379 C534 352 556 331 585 331 C619 331 642 359 642 401 C642 451 604 486 550 486 C508 486 484 474 442 432 C384 472 341 486 275 486 C152 486 69 415 69 309 C69 254 86 219 133 176 C68 140 50 119 50 79 C50 38 72 14 126 -4 C96 -12 76 -20 64 -30 C43 -47 30 -72 30 -97 C30 -131 54 -164 94 -183 C139 -205 194 -214 274 -214 C460 -214 549 -166 549 -68 C549 15 484 60 363 60 L210 60 Z M279 439 C358 439 401 393 401 309 C401 224 359 180 280 180 C201 180 161 223 161 308 C161 390 205 439 279 439 L279 439 Z M317 -20 C432 -21 473 -38 473 -85 C473 -113 457 -131 421 -144 C388 -156 322 -164 258 -164 C159 -164 106 -138 106 -89 C106 -43 157 -20 259 -20 L317 -20 Z M147 540 L182 540 L290 635 L397 540 L432 540 L322 709 L257 709 L147 540 Z " />
<glyph glyph-name="Gbreve" unicode="&#x11e;" horiz-adv-x="775" d="M666 -7 L666 232 C666 283 675 290 737 289 L776 289 L776 342 L440 342 L440 289 L493 289 C559 288 567 282 569 232 L569 191 C569 156 561 131 543 108 C511 68 444 41 379 41 C302 41 232 77 195 137 C164 187 148 253 148 334 C148 514 235 631 371 631 C429 631 484 607 525 565 C560 529 576 497 597 421 L650 421 L650 667 L603 667 L569 602 C488 669 444 687 362 687 C173 687 40 539 40 329 C40 121 169 -19 361 -19 C439 -19 486 -3 576 56 L612 -7 L666 -7 Z M223 847 C234 802 243 782 263 762 C289 737 325 723 367 723 C409 723 447 737 472 762 C492 781 502 802 512 847 L480 847 C465 806 436 791 368 791 C300 791 271 806 255 847 L223 847 Z " />
<glyph glyph-name="gbreve" unicode="&#x11f;" horiz-adv-x="646" d="M210 60 C149 60 124 71 124 98 C124 123 149 147 174 147 C177 147 181 146 187 145 C239 130 249 128 282 128 C413 128 494 197 494 307 C494 342 489 360 468 397 C497 432 516 444 547 444 C565 444 570 441 582 427 C549 421 534 406 534 379 C534 352 556 331 585 331 C619 331 642 359 642 401 C642 451 604 486 550 486 C508 486 484 474 442 432 C384 472 341 486 275 486 C152 486 69 415 69 309 C69 254 86 219 133 176 C68 140 50 119 50 79 C50 38 72 14 126 -4 C96 -12 76 -20 64 -30 C43 -47 30 -72 30 -97 C30 -131 54 -164 94 -183 C139 -205 194 -214 274 -214 C460 -214 549 -166 549 -68 C549 15 484 60 363 60 L210 60 Z M279 439 C358 439 401 393 401 309 C401 224 359 180 280 180 C201 180 161 223 161 308 C161 390 205 439 279 439 L279 439 Z M317 -20 C432 -21 473 -38 473 -85 C473 -113 457 -131 421 -144 C388 -156 322 -164 258 -164 C159 -164 106 -138 106 -89 C106 -43 157 -20 259 -20 L317 -20 Z M137 692 C148 641 158 619 179 597 C204 571 240 557 283 557 C325 557 362 571 388 597 C408 618 418 641 429 692 L397 692 C381 644 353 628 283 628 C213 628 186 643 169 692 L137 692 Z " />
<glyph glyph-name="Gdotaccent" unicode="&#x120;" horiz-adv-x="775" d="M666 -7 L666 232 C666 283 675 290 737 289 L776 289 L776 342 L440 342 L440 289 L493 289 C559 288 567 282 569 232 L569 191 C569 156 561 131 543 108 C511 68 444 41 379 41 C302 41 232 77 195 137 C164 187 148 253 148 334 C148 514 235 631 371 631 C429 631 484 607 525 565 C560 529 576 497 597 421 L650 421 L650 667 L603 667 L569 602 C488 669 444 687 362 687 C173 687 40 539 40 329 C40 121 169 -19 361 -19 C439 -19 486 -3 576 56 L612 -7 L666 -7 Z M368 824 C339 824 314 799 314 771 C314 740 337 717 368 717 C397 717 421 741 421 770 C421 799 397 824 368 824 L368 824 Z " />
<glyph glyph-name="gdotaccent" unicode="&#x121;" horiz-adv-x="646" d="M210 60 C149 60 124 71 124 98 C124 123 149 147 174 147 C177 147 181 146 187 145 C239 130 249 128 282 128 C413 128 494 197 494 307 C494 342 489 360 468 397 C497 432 516 444 547 444 C565 444 570 441 582 427 C549 421 534 406 534 379 C534 352 556 331 585 331 C619 331 642 359 642 401 C642 451 604 486 550 486 C508 486 484 474 442 432 C384 472 341 486 275 486 C152 486 69 415 69 309 C69 254 86 219 133 176 C68 140 50 119 50 79 C50 38 72 14 126 -4 C96 -12 76 -20 64 -30 C43 -47 30 -72 30 -97 C30 -131 54 -164 94 -183 C139 -205 194 -214 274 -214 C460 -214 549 -166 549 -68 C549 15 484 60 363 60 L210 60 Z M279 439 C358 439 401 393 401 309 C401 224 359 180 280 180 C201 180 161 223 161 308 C161 390 205 439 279 439 L279 439 Z M317 -20 C432 -21 473 -38 473 -85 C473 -113 457 -131 421 -144 C388 -156 322 -164 258 -164 C159 -164 106 -138 106 -89 C106 -43 157 -20 259 -20 L317 -20 Z M290 677 C259 677 232 650 232 620 C232 587 257 562 290 562 C322 562 347 587 347 618 C347 650 320 677 290 677 L290 677 Z " />
<glyph glyph-name="Gcommaaccent" unicode="&#x122;" horiz-adv-x="775" d="M666 -7 L666 232 C666 283 675 290 737 289 L776 289 L776 342 L440 342 L440 289 L493 289 C559 288 567 282 569 232 L569 191 C569 156 561 131 543 108 C511 68 444 41 379 41 C302 41 232 77 195 137 C164 187 148 253 148 334 C148 514 235 631 371 631 C429 631 484 607 525 565 C560 529 576 497 597 421 L650 421 L650 667 L603 667 L569 602 C488 669 444 687 362 687 C173 687 40 539 40 329 C40 121 169 -19 361 -19 C439 -19 486 -3 576 56 L612 -7 L666 -7 Z M344 -266 C407 -252 450 -198 450 -135 C450 -88 422 -56 380 -56 C350 -56 328 -77 328 -108 C328 -132 348 -152 373 -152 C383 -152 390 -149 406 -141 C408 -186 383 -223 344 -234 L344 -266 Z " />
<glyph glyph-name="gcommaaccent" unicode="&#x123;" horiz-adv-x="646" d="M210 60 C149 60 124 71 124 98 C124 123 149 147 174 147 C177 147 181 146 187 145 C239 130 249 128 282 128 C413 128 494 197 494 307 C494 342 489 360 468 397 C497 432 516 444 547 444 C565 444 570 441 582 427 C549 421 534 406 534 379 C534 352 556 331 585 331 C619 331 642 359 642 401 C642 451 604 486 550 486 C508 486 484 474 442 432 C384 472 341 486 275 486 C152 486 69 415 69 309 C69 254 86 219 133 176 C68 140 50 119 50 79 C50 38 72 14 126 -4 C96 -12 76 -20 64 -30 C43 -47 30 -72 30 -97 C30 -131 54 -164 94 -183 C139 -205 194 -214 274 -214 C460 -214 549 -166 549 -68 C549 15 484 60 363 60 L210 60 Z M279 439 C358 439 401 393 401 309 C401 224 359 180 280 180 C201 180 161 223 161 308 C161 390 205 439 279 439 L279 439 Z M317 -20 C432 -21 473 -38 473 -85 C473 -113 457 -131 421 -144 C388 -156 322 -164 258 -164 C159 -164 106 -138 106 -89 C106 -43 157 -20 259 -20 L317 -20 Z M336 735 C273 721 230 667 230 604 C230 557 258 525 300 525 C330 525 352 546 352 577 C352 601 332 621 307 621 C297 621 289 618 274 610 C271 655 296 692 336 703 L336 735 Z " />
<glyph glyph-name="Hcircumflex" unicode="&#x124;" horiz-adv-x="829" d="M28 0 L356 0 L356 53 L307 53 C242 55 235 63 236 126 L236 311 L592 311 L592 126 C593 63 586 55 522 53 L473 53 L473 0 L800 0 L800 53 L759 53 C695 55 688 63 689 126 L689 541 C688 604 695 612 759 614 L800 614 L800 667 L473 667 L473 614 L522 614 C586 612 593 604 592 541 L592 364 L236 364 L236 541 C235 604 242 612 307 614 L356 614 L356 667 L28 667 L28 614 L69 614 C133 612 140 604 139 541 L139 126 C140 63 133 55 69 53 L28 53 L28 0 Z M272 719 L303 719 L414 790 L525 719 L557 719 L451 851 L377 851 L272 719 Z " />
<glyph glyph-name="hcircumflex" unicode="&#x125;" horiz-adv-x="646" d="M30 619 L52 619 C107 617 116 608 116 562 L116 105 C116 58 107 50 52 48 L30 48 L30 0 L297 0 L297 48 L265 48 C210 50 201 58 201 105 L201 268 C201 319 213 352 242 384 C269 414 306 429 349 429 C423 429 450 390 450 281 L450 105 C450 58 441 50 386 48 L354 48 L354 0 L622 0 L622 48 L600 48 C544 50 535 58 535 105 L535 268 C535 357 529 389 506 423 C480 461 433 482 376 482 C339 482 302 473 272 458 C246 444 229 427 201 388 L201 667 L30 667 L30 619 Z M-24 719 L8 719 L119 790 L229 719 L261 719 L156 851 L82 851 L-24 719 Z " />
<glyph glyph-name="Hbar" unicode="&#x126;" horiz-adv-x="829" d="M139 469 L139 126 C140 63 133 55 69 53 L28 53 L28 0 L356 0 L356 53 L307 53 C242 55 235 63 236 126 L236 311 L592 311 L592 126 C593 63 586 55 522 53 L473 53 L473 0 L800 0 L800 53 L759 53 C695 55 688 63 689 126 L689 469 L800 469 L800 522 L689 522 L689 541 C688 604 695 612 759 614 L800 614 L800 667 L473 667 L473 614 L522 614 C586 612 593 604 592 541 L592 522 L236 522 L236 541 C235 604 242 612 307 614 L356 614 L356 667 L28 667 L28 614 L69 614 C133 612 140 604 139 541 L139 522 L28 522 L28 469 L139 469 Z M236 469 L592 469 L592 364 L236 364 L236 469 Z " />
<glyph glyph-name="hbar" unicode="&#x127;" horiz-adv-x="646" d="M201 561 L201 667 L30 667 L30 619 L52 619 C107 617 116 609 116 561 L30 561 L30 508 L116 508 L116 105 C116 58 107 50 52 48 L30 48 L30 0 L298 0 L298 48 L265 48 C210 50 201 58 201 105 L201 268 C201 319 213 352 242 384 C269 413 307 429 349 429 C424 429 451 390 451 281 L451 105 C451 58 442 50 386 48 L354 48 L354 0 L622 0 L622 48 L600 48 C545 50 536 58 536 105 L536 268 C536 358 530 389 507 423 C481 461 434 483 376 483 C340 483 304 474 273 458 C246 444 229 428 201 388 L201 508 L288 508 L288 561 L201 561 Z " />
<glyph glyph-name="Itilde" unicode="&#x128;" horiz-adv-x="646" d="M30 619 L52 619 C107 617 118 608 117 562 L117 105 C117 58 108 50 52 48 L30 48 L30 0 L298 0 L298 48 L266 48 C211 50 202 58 202 105 L202 268 C202 319 214 352 243 384 C270 414 307 429 350 429 C424 429 451 390 451 281 L451 105 C451 58 442 50 387 48 L355 48 L355 0 L622 0 L622 48 L600 48 C545 50 536 58 536 105 L536 268 C536 357 530 389 507 423 C481 461 434 482 377 482 C340 482 303 473 273 458 C247 444 230 427 202 388 L202 667 L30 667 L30 619 Z M250 829 C238 805 228 797 210 797 C201 797 191 799 179 805 L130 827 C112 835 97 839 85 839 C56 839 25 818 8 788 C0 775 -4 765 -12 741 L16 741 C29 766 40 774 57 774 C68 774 76 771 95 763 L144 742 C156 736 170 733 182 733 C225 733 265 774 278 829 L250 829 Z " />
<glyph glyph-name="itilde" unicode="&#x129;" horiz-adv-x="328" d="M29 0 L302 0 L302 48 L276 48 C220 50 211 58 211 105 L211 469 L29 469 L29 421 L61 421 C116 419 125 411 125 364 L125 105 C125 58 116 50 61 48 L29 48 L29 0 Z M246 676 C234 652 224 644 206 644 C197 644 187 646 175 652 L126 674 C108 682 93 686 81 686 C52 686 21 665 4 635 C-4 622 -8 612 -16 588 L12 588 C25 613 36 621 53 621 C64 621 72 618 91 610 L140 589 C152 583 166 580 178 580 C221 580 261 621 274 676 L246 676 Z " />
<glyph glyph-name="Imacron" unicode="&#x12a;" horiz-adv-x="387" d="M29 0 L357 0 L357 53 L312 53 C248 55 241 63 242 126 L242 541 C241 604 248 612 312 614 L357 614 L357 667 L29 667 L29 614 L74 614 C138 612 145 604 144 541 L144 126 C145 63 138 55 74 53 L29 53 L29 0 Z M67 751 L319 751 L319 816 L67 816 L67 751 Z " />
<glyph glyph-name="imacron" unicode="&#x12b;" horiz-adv-x="328" d="M30 0 L302 0 L302 48 L276 48 C221 50 212 58 212 105 L212 469 L30 469 L30 421 L62 421 C117 419 126 411 126 364 L126 105 C126 58 117 50 62 48 L30 48 L30 0 Z M33 585 L295 585 L295 653 L33 653 L33 585 Z " />
<glyph glyph-name="Ibreve" unicode="&#x12c;" horiz-adv-x="387" d="M29 0 L357 0 L357 53 L312 53 C248 55 241 63 242 126 L242 541 C241 604 248 612 312 614 L357 614 L357 667 L29 667 L29 614 L74 614 C138 612 145 604 144 541 L144 126 C145 63 138 55 74 53 L29 53 L29 0 Z M41 847 C51 802 61 782 81 762 C107 737 143 723 185 723 C227 723 264 737 290 762 C310 781 319 802 329 847 L298 847 C283 806 253 791 185 791 C117 791 88 806 73 847 L41 847 Z " />
<glyph glyph-name="ibreve" unicode="&#x12d;" horiz-adv-x="328" d="M29 0 L302 0 L302 48 L276 48 C220 50 211 58 211 105 L211 469 L29 469 L29 421 L61 421 C116 419 125 411 125 364 L125 105 C125 58 116 50 61 48 L29 48 L29 0 Z M18 692 C28 641 38 619 59 597 C85 571 121 557 163 557 C206 557 243 571 268 597 C289 618 299 641 309 692 L277 692 C262 644 234 628 163 628 C94 628 66 643 49 692 L18 692 Z " />
<glyph glyph-name="Iogonek" unicode="&#x12e;" horiz-adv-x="387" d="M357 53 L312 53 C248 55 241 63 242 126 L242 541 C241 604 248 612 312 614 L357 614 L357 667 L29 667 L29 614 L74 614 C138 612 145 604 144 541 L144 126 C145 63 138 55 74 53 L29 53 L29 0 L308 0 C240 -48 206 -96 206 -142 C206 -187 238 -217 286 -217 C331 -217 367 -194 391 -148 L363 -127 C344 -150 336 -155 316 -155 C290 -155 272 -138 272 -114 C272 -92 284 -66 306 -43 C316 -32 327 -23 357 0 L357 53 Z " />
<glyph glyph-name="iogonek" unicode="&#x12f;" horiz-adv-x="328" d="M302 48 L276 48 C221 50 212 58 212 105 L212 469 L30 469 L30 421 L62 421 C117 419 126 411 126 364 L126 105 C126 58 117 50 62 48 L30 48 L30 0 L253 0 C183 -50 151 -95 151 -142 C151 -187 182 -217 230 -217 C276 -217 312 -194 336 -148 L308 -127 C288 -150 280 -155 261 -155 C234 -155 216 -138 216 -114 C216 -88 232 -59 261 -33 C271 -24 272 -23 302 0 L302 48 Z M157 675 C126 675 100 650 100 620 C100 587 125 562 157 562 C188 562 213 588 213 619 C213 650 188 675 157 675 L157 675 Z " />
<glyph glyph-name="Idotaccent" unicode="&#x130;" horiz-adv-x="387" d="M29 0 L357 0 L357 53 L312 53 C248 55 241 63 242 126 L242 541 C241 604 248 612 312 614 L357 614 L357 667 L29 667 L29 614 L74 614 C138 612 145 604 144 541 L144 126 C145 63 138 55 74 53 L29 53 L29 0 Z M194 824 C165 824 140 799 140 771 C140 740 163 717 194 717 C223 717 247 741 247 770 C247 799 223 824 194 824 L194 824 Z " />
<glyph glyph-name="dotlessi" unicode="&#x131;" horiz-adv-x="328" d="M30 0 L302 0 L302 48 L276 48 C221 50 212 58 212 105 L212 469 L30 469 L30 421 L62 421 C117 419 126 411 126 364 L126 105 C126 58 117 50 62 48 L30 48 L30 0 Z " />
<glyph glyph-name="IJ" unicode="&#x132;" horiz-adv-x="928" d="M29 0 L357 0 L357 53 L312 53 C248 55 241 63 242 126 L242 541 C241 604 248 612 312 614 L357 614 L357 667 L29 667 L29 614 L74 614 C138 612 145 604 144 541 L144 126 C145 63 138 55 74 53 L29 53 L29 0 Z M582 614 L629 614 C693 612 700 604 699 541 L699 179 C699 84 658 36 575 36 C529 36 500 49 470 84 C516 87 538 108 538 148 C538 186 512 212 474 212 C429 212 397 178 397 130 C397 93 415 55 445 28 C481 -4 528 -19 590 -19 C667 -19 723 2 757 45 C787 82 796 119 796 210 L796 541 C795 604 802 612 866 614 L899 614 L899 667 L582 667 L582 614 Z " />
<glyph glyph-name="ij" unicode="&#x133;" horiz-adv-x="646" d="M157 675 C126 675 100 650 100 620 C100 587 125 562 157 562 C188 562 213 588 213 619 C213 650 188 675 157 675 L157 675 Z M30 0 L302 0 L302 48 L276 48 C221 50 212 58 212 105 L212 469 L30 469 L30 421 L62 421 C117 419 126 411 126 364 L126 105 C126 58 117 50 62 48 L30 48 L30 0 Z M365 421 L397 421 C456 419 459 417 458 360 L458 -68 C458 -108 454 -128 442 -143 C430 -158 407 -167 382 -167 C359 -167 348 -163 326 -148 C358 -140 371 -127 371 -101 C371 -71 348 -50 317 -50 C282 -50 258 -76 258 -113 C258 -172 313 -214 391 -214 C443 -214 484 -197 511 -164 C535 -135 543 -106 543 -45 L543 469 L365 469 L365 421 Z M487 675 C456 675 430 650 430 620 C430 587 455 562 487 562 C518 562 543 588 543 619 C543 649 517 675 487 675 L487 675 Z " />
<glyph glyph-name="Jcircumflex" unicode="&#x134;" horiz-adv-x="541" d="M195 614 L242 614 C306 612 313 604 312 541 L312 179 C312 84 271 36 188 36 C142 36 113 49 83 84 C129 87 151 108 151 148 C151 186 125 212 87 212 C42 212 10 178 10 130 C10 93 28 55 58 28 C94 -4 141 -19 203 -19 C280 -19 336 2 370 45 C400 82 409 119 409 210 L409 541 C408 604 415 612 480 614 L513 614 L513 667 L195 667 L195 614 Z M210 719 L242 719 L352 790 L463 719 L495 719 L389 851 L315 851 L210 719 Z " />
<glyph glyph-name="jcircumflex" unicode="&#x135;" horiz-adv-x="318" d="M37 421 L69 421 C128 419 131 417 130 360 L130 -68 C130 -108 126 -128 114 -143 C102 -158 79 -167 54 -167 C31 -167 20 -163 -2 -148 C30 -140 43 -127 43 -101 C43 -71 20 -50 -11 -50 C-46 -50 -70 -76 -70 -113 C-70 -172 -15 -214 63 -214 C115 -214 156 -197 183 -164 C207 -135 215 -106 215 -45 L215 469 L37 469 L37 421 Z M-7 547 L25 547 L135 618 L246 547 L278 547 L172 678 L98 678 L-7 547 Z " />
<glyph glyph-name="Kcommaaccent" unicode="&#x136;" horiz-adv-x="765" d="M358 53 L309 53 C244 55 237 63 238 126 L238 237 L336 323 L520 121 C555 83 555 83 555 72 C555 60 541 53 516 53 L440 53 L440 0 L802 0 L802 53 L772 53 C716 56 695 66 656 111 L406 384 L574 536 C645 596 675 611 727 614 L767 614 L767 667 L433 667 L433 614 L483 614 C517 614 533 608 533 594 C533 585 527 576 515 565 L238 318 L238 541 C237 604 244 612 309 614 L358 614 L358 667 L30 667 L30 614 L71 614 C135 612 142 604 141 541 L141 126 C142 63 135 55 71 53 L30 53 L30 0 L358 0 L358 53 Z M339 -266 C402 -252 445 -198 445 -135 C445 -88 417 -56 375 -56 C345 -56 323 -77 323 -108 C323 -132 343 -152 368 -152 C378 -152 385 -149 401 -141 C403 -186 378 -223 339 -234 L339 -266 Z " />
<glyph glyph-name="kcommaaccent" unicode="&#x137;" horiz-adv-x="636" d="M197 229 L197 667 L25 667 L25 619 L52 619 C106 617 116 608 116 562 L116 105 C116 58 107 50 52 48 L25 48 L25 0 L283 0 L283 48 L261 48 C206 50 197 58 197 105 L197 165 L279 228 L407 89 C415 80 419 73 419 67 C419 55 398 48 362 48 L336 48 L336 0 L620 0 L620 48 L605 48 C566 49 534 64 507 93 L341 276 L467 377 C510 411 538 421 579 420 L594 420 L594 469 L301 469 L301 420 L347 420 C385 420 400 415 400 404 C400 394 390 381 370 365 L197 229 Z M274 -266 C337 -252 380 -198 380 -135 C380 -88 352 -56 310 -56 C280 -56 258 -77 258 -108 C258 -132 278 -152 303 -152 C313 -152 321 -149 336 -141 C339 -186 314 -223 274 -234 L274 -266 Z " />
<glyph glyph-name="kgreenlandic" unicode="&#x138;" horiz-adv-x="636" d="M197 229 L197 469 L25 469 L25 420 L52 420 C106 419 116 410 116 364 L116 105 C116 58 107 50 52 48 L25 48 L25 0 L283 0 L283 48 L261 48 C206 50 197 58 197 105 L197 165 L279 228 L407 89 C415 80 419 73 419 67 C419 55 398 48 362 48 L336 48 L336 0 L620 0 L620 48 L605 48 C566 49 534 64 507 93 L341 276 L467 377 C510 411 538 421 579 420 L594 420 L594 469 L301 469 L301 420 L347 420 C385 420 400 415 400 404 C400 394 390 381 370 365 L197 229 Z " />
<glyph glyph-name="Lacute" unicode="&#x139;" horiz-adv-x="680" d="M30 667 L30 614 L71 614 C135 612 142 604 141 541 L141 126 C142 63 135 55 71 53 L30 53 L30 0 L640 0 L640 277 L589 277 C589 91 557 54 397 53 L238 53 L238 541 C237 604 244 612 309 614 L358 614 L358 667 L30 667 Z M204 719 L347 783 C370 793 380 806 380 823 C380 843 364 859 345 859 C334 859 318 852 305 840 L169 719 L204 719 Z " />
<glyph glyph-name="lacute" unicode="&#x13a;" horiz-adv-x="318" d="M203 667 L25 667 L25 619 L53 619 C108 617 117 609 117 562 L117 105 C117 58 108 50 53 48 L25 48 L25 0 L296 0 L296 48 L267 48 C212 50 203 58 203 105 L203 667 Z M156 719 L299 783 C322 793 332 806 332 823 C332 843 316 859 297 859 C286 859 270 852 257 840 L121 719 L156 719 Z " />
<glyph glyph-name="Lcommaaccent" unicode="&#x13b;" horiz-adv-x="680" d="M30 667 L30 614 L71 614 C135 612 142 604 141 541 L141 126 C142 63 135 55 71 53 L30 53 L30 0 L640 0 L640 277 L589 277 C589 91 557 54 397 53 L238 53 L238 541 C237 604 244 612 309 614 L358 614 L358 667 L30 667 Z M297 -266 C359 -252 403 -198 403 -135 C403 -88 374 -56 333 -56 C302 -56 280 -77 280 -108 C280 -132 300 -152 325 -152 C335 -152 343 -149 359 -141 C361 -186 336 -223 297 -234 L297 -266 Z " />
<glyph glyph-name="lcommaaccent" unicode="&#x13c;" horiz-adv-x="318" d="M203 667 L25 667 L25 619 L53 619 C108 617 117 609 117 562 L117 105 C117 58 108 50 53 48 L25 48 L25 0 L296 0 L296 48 L267 48 C212 50 203 58 203 105 L203 667 Z M116 -266 C178 -252 221 -198 221 -135 C221 -88 193 -56 151 -56 C121 -56 99 -77 99 -108 C99 -132 119 -152 144 -152 C154 -152 162 -149 177 -141 C180 -186 155 -223 116 -234 L116 -266 Z " />
<glyph glyph-name="Lcaron" unicode="&#x13d;" horiz-adv-x="680" d="M30 667 L30 614 L71 614 C135 612 142 604 141 541 L141 126 C142 63 135 55 71 53 L30 53 L30 0 L640 0 L640 277 L589 277 C589 91 557 54 397 53 L238 53 L238 541 C237 604 244 612 309 614 L358 614 L358 667 L30 667 Z M483 472 C545 485 589 539 589 602 C589 649 561 681 519 681 C489 681 467 660 467 630 C467 605 487 586 512 586 C522 586 530 589 545 597 C548 552 523 514 483 504 L483 472 Z " />
<glyph glyph-name="lcaron" unicode="&#x13e;" horiz-adv-x="364" d="M203 667 L25 667 L25 619 L53 619 C108 617 117 609 117 562 L117 105 C117 58 108 50 53 48 L25 48 L25 0 L296 0 L296 48 L267 48 C212 50 203 58 203 105 L203 667 Z M259 472 C321 485 365 539 365 602 C365 649 336 681 295 681 C264 681 242 660 242 630 C242 605 262 586 287 586 C297 586 305 588 321 597 C323 552 298 514 259 504 L259 472 Z " />
<glyph glyph-name="Ldot" unicode="&#x13f;" horiz-adv-x="680" d="M30 667 L30 614 L71 614 C135 612 142 604 141 541 L141 126 C142 63 135 55 71 53 L30 53 L30 0 L640 0 L640 277 L589 277 C589 91 557 54 397 53 L238 53 L238 541 C237 604 244 612 309 614 L358 614 L358 667 L30 667 Z M474 401 C437 401 406 371 406 335 C406 296 436 266 474 266 C511 266 541 297 541 334 C541 371 511 401 474 401 L474 401 Z " />
<glyph glyph-name="ldot" unicode="&#x140;" horiz-adv-x="318" d="M203 667 L25 667 L25 619 L53 619 C108 617 117 609 117 562 L117 105 C117 58 108 50 53 48 L25 48 L25 0 L296 0 L296 48 L267 48 C212 50 203 58 203 105 L203 667 Z M318 391 C287 391 261 366 261 336 C261 303 286 278 318 278 C349 278 374 304 374 335 C374 365 349 391 318 391 L318 391 Z " />
<glyph glyph-name="Lslash" unicode="&#x141;" horiz-adv-x="685" d="M144 266 L144 126 C145 63 138 55 74 53 L33 53 L33 0 L642 0 L642 277 L591 277 C591 91 559 54 399 53 L241 53 L241 311 L427 441 L427 497 L241 367 L241 541 C240 604 247 612 311 614 L360 614 L360 667 L33 667 L33 614 L74 614 C138 612 145 604 144 541 L144 323 L5 225 L5 169 L144 266 Z " />
<glyph glyph-name="lslash" unicode="&#x142;" horiz-adv-x="328" d="M120 300 L120 105 C120 58 111 50 56 48 L28 48 L28 0 L300 0 L300 48 L271 48 C215 50 206 58 206 105 L206 338 L327 423 L327 476 L206 392 L206 667 L28 667 L28 619 L56 619 C111 617 120 609 120 562 L120 353 L5 273 L5 219 L120 300 Z " />
<glyph glyph-name="Nacute" unicode="&#x143;" horiz-adv-x="824" d="M699 -3 L699 541 C698 604 705 612 769 614 L801 614 L801 667 L509 667 L509 614 L562 614 C626 612 633 604 632 541 L632 131 L253 667 L30 667 L30 614 L69 614 C133 612 140 604 139 541 L139 126 C140 63 133 55 69 53 L30 53 L30 0 L327 0 L327 53 L277 53 C212 55 205 63 206 126 L206 577 L614 -3 L699 -3 Z M409 719 L552 783 C575 793 585 805 585 823 C585 843 569 859 550 859 C539 859 524 852 511 840 L375 719 L409 719 Z " />
<glyph glyph-name="nacute" unicode="&#x144;" horiz-adv-x="650" d="M30 0 L304 0 L304 48 L272 48 C216 50 207 58 207 105 L207 268 C207 319 219 352 248 384 C276 413 313 429 355 429 C429 429 456 390 456 281 L456 105 C456 58 447 50 392 48 L360 48 L360 0 L628 0 L628 48 L606 48 C550 50 541 58 541 105 L541 268 C541 357 535 389 512 423 C486 461 439 482 381 482 C346 482 309 473 279 458 C252 444 235 427 207 388 L207 469 L30 469 L30 421 L58 421 C113 419 122 410 122 364 L122 105 C122 58 113 50 58 48 L30 48 L30 0 Z M290 540 L326 540 L472 629 C503 648 513 660 513 677 C513 698 496 715 476 715 C461 715 441 704 424 686 L290 540 Z " />
<glyph glyph-name="Ncommaaccent" unicode="&#x145;" horiz-adv-x="824" d="M699 -3 L699 541 C698 604 705 612 769 614 L801 614 L801 667 L509 667 L509 614 L562 614 C626 612 633 604 632 541 L632 131 L253 667 L30 667 L30 614 L69 614 C133 612 140 604 139 541 L139 126 C140 63 133 55 69 53 L30 53 L30 0 L327 0 L327 53 L277 53 C212 55 205 63 206 126 L206 577 L614 -3 L699 -3 Z M369 -266 C431 -252 475 -198 475 -135 C475 -88 446 -56 405 -56 C374 -56 352 -77 352 -108 C352 -132 372 -152 397 -152 C407 -152 415 -149 431 -141 C433 -186 408 -223 369 -234 L369 -266 Z " />
<glyph glyph-name="ncommaaccent" unicode="&#x146;" horiz-adv-x="650" d="M30 0 L304 0 L304 48 L272 48 C216 50 207 58 207 105 L207 268 C207 319 219 352 248 384 C276 413 313 429 355 429 C429 429 456 390 456 281 L456 105 C456 58 447 50 392 48 L360 48 L360 0 L628 0 L628 48 L606 48 C550 50 541 58 541 105 L541 268 C541 357 535 389 512 423 C486 461 439 482 381 482 C346 482 309 473 279 458 C252 444 235 427 207 388 L207 469 L30 469 L30 421 L58 421 C113 419 122 410 122 364 L122 105 C122 58 113 50 58 48 L30 48 L30 0 Z M282 -266 C344 -252 388 -198 388 -135 C388 -88 360 -56 318 -56 C288 -56 266 -77 266 -108 C266 -132 286 -152 311 -152 C320 -152 328 -149 344 -141 C346 -186 321 -223 282 -234 L282 -266 Z " />
<glyph glyph-name="Ncaron" unicode="&#x147;" horiz-adv-x="824" d="M699 -3 L699 541 C698 604 705 612 769 614 L801 614 L801 667 L509 667 L509 614 L562 614 C626 612 633 604 632 541 L632 131 L253 667 L30 667 L30 614 L69 614 C133 612 140 604 139 541 L139 126 C140 63 133 55 69 53 L30 53 L30 0 L327 0 L327 53 L277 53 C212 55 205 63 206 126 L206 577 L614 -3 L699 -3 Z M270 851 L375 719 L449 719 L555 851 L523 851 L412 780 L302 851 L270 851 Z " />
<glyph glyph-name="ncaron" unicode="&#x148;" horiz-adv-x="650" d="M30 0 L304 0 L304 48 L272 48 C216 50 207 58 207 105 L207 268 C207 319 219 352 248 384 C276 413 313 429 355 429 C429 429 456 390 456 281 L456 105 C456 58 447 50 392 48 L360 48 L360 0 L628 0 L628 48 L606 48 C550 50 541 58 541 105 L541 268 C541 357 535 389 512 423 C486 461 439 482 381 482 C346 482 309 473 279 458 C252 444 235 427 207 388 L207 469 L30 469 L30 421 L58 421 C113 419 122 410 122 364 L122 105 C122 58 113 50 58 48 L30 48 L30 0 Z M203 709 L313 540 L378 540 L488 709 L453 709 L345 614 L238 709 L203 709 Z " />
<glyph glyph-name="napostrophe" unicode="&#x149;" horiz-adv-x="779" d="M35 445 C87 455 111 466 136 494 C161 521 175 558 175 597 C175 651 144 687 98 687 C63 687 40 664 40 630 C40 601 60 580 90 580 C103 580 112 583 128 594 L128 578 C128 556 122 538 108 519 C91 497 74 487 35 480 L35 445 Z M158 0 L432 0 L432 48 L400 48 C345 50 336 58 336 105 L336 268 C336 319 348 352 377 384 C405 414 441 429 484 429 C558 429 585 390 585 281 L585 105 C585 58 576 50 521 48 L489 48 L489 0 L756 0 L756 48 L734 48 C679 50 670 58 670 105 L670 268 C670 357 664 389 641 423 C615 461 568 482 510 482 C474 482 437 473 407 458 C381 444 364 427 336 388 L336 469 L158 469 L158 421 L186 421 C242 419 251 411 251 364 L251 105 C251 58 242 50 186 48 L158 48 L158 0 Z " />
<glyph glyph-name="Eng" unicode="&#x14a;" horiz-adv-x="829" d="M236 667 L28 667 L28 614 L69 614 C133 612 140 604 139 541 L139 126 C140 63 133 55 69 53 L28 53 L28 0 L356 0 L356 53 L307 53 C242 55 235 63 236 126 L236 453 C236 553 321 625 441 625 C498 625 542 609 565 579 C584 554 592 517 592 458 L592 -95 C592 -140 587 -163 574 -180 C560 -197 534 -207 506 -207 C480 -207 461 -200 442 -185 C479 -177 494 -162 494 -132 C494 -98 469 -74 433 -74 C393 -74 366 -103 366 -145 C366 -213 428 -260 517 -260 C576 -260 621 -241 653 -203 C680 -170 689 -138 689 -69 L689 443 C689 545 681 582 649 619 C611 662 548 686 469 686 C365 686 292 653 236 580 L236 667 Z " />
<glyph glyph-name="eng" unicode="&#x14b;" horiz-adv-x="650" d="M207 469 L30 469 L30 421 L58 421 C113 419 122 410 122 364 L122 105 C122 58 113 50 58 48 L30 48 L30 0 L304 0 L304 48 L272 48 C216 50 207 58 207 105 L207 268 C207 319 219 352 248 384 C276 413 313 429 356 429 C430 429 456 390 456 281 L456 -68 C456 -108 452 -128 440 -143 C428 -158 405 -167 381 -167 C358 -167 339 -160 325 -147 C356 -141 370 -127 370 -101 C370 -71 348 -50 317 -50 C281 -50 257 -76 257 -113 C257 -172 312 -214 390 -214 C442 -214 482 -197 510 -164 C533 -135 541 -106 541 -45 L541 268 C541 357 535 389 512 423 C487 461 440 482 382 482 C346 482 309 473 279 458 C252 444 235 427 207 388 L207 469 Z " />
<glyph glyph-name="Omacron" unicode="&#x14c;" horiz-adv-x="794" d="M398 687 C194 687 40 537 40 339 C40 130 189 -19 398 -19 C604 -19 755 131 755 334 C755 538 604 687 398 687 L398 687 Z M398 632 C472 632 537 602 583 546 C626 493 647 423 647 334 C647 154 549 36 398 36 C322 36 258 66 212 122 C168 177 148 245 148 338 C148 515 248 632 398 632 L398 632 Z M272 751 L524 751 L524 816 L272 816 L272 751 Z " />
<glyph glyph-name="omacron" unicode="&#x14d;" horiz-adv-x="576" d="M288 486 C220 486 157 463 108 419 C58 375 31 312 31 238 C31 156 54 98 108 50 C155 7 219 -17 289 -17 C357 -17 421 7 468 50 C520 97 545 156 545 234 C545 313 520 372 468 419 C420 463 357 486 288 486 L288 486 Z M288 435 C390 435 448 363 448 234 C448 106 391 34 288 34 C184 34 128 106 128 237 C128 363 186 435 288 435 L288 435 Z M157 585 L419 585 L419 653 L157 653 L157 585 Z " />
<glyph glyph-name="Obreve" unicode="&#x14e;" horiz-adv-x="794" d="M398 687 C194 687 40 537 40 339 C40 130 189 -19 398 -19 C604 -19 755 131 755 334 C755 538 604 687 398 687 L398 687 Z M398 632 C472 632 537 602 583 546 C626 493 647 423 647 334 C647 154 549 36 398 36 C322 36 258 66 212 122 C168 177 148 245 148 338 C148 515 248 632 398 632 L398 632 Z M251 847 C261 802 271 782 291 762 C317 737 353 723 395 723 C437 723 474 737 500 762 C520 781 530 802 540 847 L508 847 C493 806 464 791 395 791 C328 791 299 806 283 847 L251 847 Z " />
<glyph glyph-name="obreve" unicode="&#x14f;" horiz-adv-x="576" d="M288 486 C220 486 157 463 108 419 C58 375 31 312 31 238 C31 156 54 98 108 50 C155 7 219 -17 289 -17 C357 -17 421 7 468 50 C520 97 545 156 545 234 C545 313 520 372 468 419 C420 463 357 486 288 486 L288 486 Z M288 435 C390 435 448 363 448 234 C448 106 391 34 288 34 C184 34 128 106 128 237 C128 363 186 435 288 435 L288 435 Z M141 692 C151 641 161 619 182 597 C208 571 243 557 286 557 C329 557 365 571 391 597 C411 618 421 641 432 692 L400 692 C384 644 357 628 286 628 C216 628 189 643 172 692 L141 692 Z " />
<glyph glyph-name="Ohungarumlaut" unicode="&#x150;" horiz-adv-x="794" d="M398 687 C194 687 40 537 40 339 C40 130 189 -19 398 -19 C604 -19 755 131 755 334 C755 538 604 687 398 687 L398 687 Z M398 632 C472 632 537 602 583 546 C626 493 647 423 647 334 C647 154 549 36 398 36 C322 36 258 66 212 122 C168 177 148 245 148 338 C148 515 248 632 398 632 L398 632 Z M330 719 L422 789 C435 799 443 812 443 824 C443 843 429 857 410 857 C396 857 382 847 371 829 L303 719 L330 719 Z M452 719 L564 787 C578 796 588 811 588 823 C588 842 573 858 555 858 C542 858 528 849 515 832 L425 719 L452 719 Z " />
<glyph glyph-name="ohungarumlaut" unicode="&#x151;" horiz-adv-x="576" d="M288 486 C220 486 157 463 108 419 C58 375 31 312 31 238 C31 156 54 98 108 50 C155 7 219 -17 289 -17 C357 -17 421 7 468 50 C520 97 545 156 545 234 C545 313 520 372 468 419 C420 463 357 486 288 486 L288 486 Z M288 435 C390 435 448 363 448 234 C448 106 391 34 288 34 C184 34 128 106 128 237 C128 363 186 435 288 435 L288 435 Z M193 540 L223 540 L312 634 C331 654 339 668 339 680 C339 698 322 715 304 715 C286 715 271 702 257 673 L193 540 Z M312 540 L341 540 L448 631 C470 651 479 664 479 680 C479 699 464 714 444 714 C427 714 411 702 396 678 L312 540 Z " />
<glyph glyph-name="OE" unicode="&#x152;" horiz-adv-x="1212" d="M1130 667 L691 667 L434 686 C345 686 279 671 218 638 C103 575 40 466 40 333 C40 210 94 108 195 43 C260 1 334 -19 428 -19 C463 -19 496 -17 528 -14 C558 -11 587 -7 616 -4 C643 -1 670 0 695 0 L1130 0 L1130 271 L1079 271 C1072 88 1046 56 900 53 L707 53 L707 323 L775 323 C867 320 877 306 882 178 L933 178 L933 505 L882 505 C881 392 866 374 776 376 L707 376 L707 614 L887 614 C1041 613 1075 578 1079 416 L1130 416 L1130 667 Z M610 126 C610 78 607 70 590 60 C562 45 502 33 448 33 C260 33 148 145 148 333 C148 523 259 634 449 634 C498 634 555 624 584 610 C607 599 610 592 610 541 L610 126 Z " />
<glyph glyph-name="oe" unicode="&#x153;" horiz-adv-x="933" d="M828 154 C813 110 802 91 781 74 C755 52 718 39 679 39 C629 39 587 59 563 95 C542 126 535 157 533 226 L901 226 C897 322 885 366 849 411 C809 461 752 486 676 486 C596 486 552 466 486 401 C422 462 367 486 287 486 C218 486 154 462 107 419 C55 372 30 313 30 234 C30 156 55 97 107 50 C154 7 219 -17 287 -17 C370 -17 424 7 487 73 C511 45 526 30 543 19 C577 -4 627 -17 678 -17 C742 -17 791 1 829 38 C859 66 872 93 887 154 L828 154 Z M287 435 C390 435 448 363 448 234 C448 106 390 34 288 34 C184 34 127 106 127 237 C127 363 186 435 287 435 L287 435 Z M536 279 C542 337 550 363 570 390 C594 421 628 437 675 437 C718 437 752 422 773 394 C793 367 800 340 804 279 L536 279 Z " />
<glyph glyph-name="Racute" unicode="&#x154;" horiz-adv-x="770" d="M358 53 L309 53 C244 55 237 63 238 126 L238 320 L366 320 C473 319 520 275 524 174 L527 92 C530 19 565 -20 628 -20 C714 -20 742 24 743 163 L696 163 C693 65 686 45 657 45 C631 45 624 66 624 140 C624 271 594 315 487 342 C551 353 579 362 608 383 C646 410 666 450 666 501 C666 555 642 601 602 626 C556 654 485 667 376 667 L30 667 L30 614 L71 614 C135 612 142 604 141 541 L141 126 C142 63 135 55 71 53 L30 53 L30 0 L358 0 L358 53 Z M238 373 L238 614 L376 614 C417 614 473 608 493 601 C538 586 565 548 565 499 C565 414 500 373 366 373 L238 373 Z M349 719 L492 783 C515 794 525 806 525 823 C525 843 509 859 490 859 C478 859 463 852 450 840 L314 719 L349 719 Z " />
<glyph glyph-name="racute" unicode="&#x155;" horiz-adv-x="477" d="M320 48 L271 48 C216 49 207 58 207 105 L207 217 C207 273 216 315 235 352 C264 407 302 436 346 436 C371 436 382 431 403 408 C368 408 348 391 348 359 C348 330 372 308 403 308 C438 308 465 338 465 375 C465 438 418 483 352 483 C289 483 245 449 207 372 L207 469 L30 469 L30 421 L58 421 C113 419 122 410 122 364 L122 105 C122 58 113 49 58 48 L30 48 L30 0 L320 0 L320 48 Z M217 540 L253 540 L398 629 C428 647 439 660 439 677 C439 698 422 715 402 715 C387 715 367 704 351 686 L217 540 Z " />
<glyph glyph-name="Rcommaaccent" unicode="&#x156;" horiz-adv-x="770" d="M358 53 L309 53 C244 55 237 63 238 126 L238 320 L366 320 C473 319 520 275 524 174 L527 92 C530 19 565 -20 628 -20 C714 -20 742 24 743 163 L696 163 C693 65 686 45 657 45 C631 45 624 66 624 140 C624 271 594 315 487 342 C551 353 579 362 608 383 C646 410 666 450 666 501 C666 555 642 601 602 626 C556 654 485 667 376 667 L30 667 L30 614 L71 614 C135 612 142 604 141 541 L141 126 C142 63 135 55 71 53 L30 53 L30 0 L358 0 L358 53 Z M238 373 L238 614 L376 614 C417 614 473 608 493 601 C538 586 565 548 565 499 C565 414 500 373 366 373 L238 373 Z M342 -266 C404 -252 447 -198 447 -135 C447 -88 419 -56 377 -56 C347 -56 325 -77 325 -108 C325 -132 345 -152 370 -152 C380 -152 388 -149 403 -141 C406 -186 381 -223 342 -234 L342 -266 Z " />
<glyph glyph-name="rcommaaccent" unicode="&#x157;" horiz-adv-x="477" d="M320 48 L271 48 C216 49 207 58 207 105 L207 217 C207 273 216 315 235 352 C264 407 302 436 346 436 C371 436 382 431 403 408 C368 408 348 391 348 359 C348 330 372 308 403 308 C438 308 465 338 465 375 C465 438 418 483 352 483 C289 483 245 449 207 372 L207 469 L30 469 L30 421 L58 421 C113 419 122 410 122 364 L122 105 C122 58 113 49 58 48 L30 48 L30 0 L320 0 L320 48 Z M128 -266 C190 -252 234 -198 234 -135 C234 -88 206 -56 164 -56 C134 -56 112 -77 112 -108 C112 -132 132 -152 157 -152 C167 -152 175 -149 190 -141 C193 -186 168 -223 128 -234 L128 -266 Z " />
<glyph glyph-name="Rcaron" unicode="&#x158;" horiz-adv-x="770" d="M358 53 L309 53 C244 55 237 63 238 126 L238 320 L366 320 C473 319 520 275 524 174 L527 92 C530 19 565 -20 628 -20 C714 -20 742 24 743 163 L696 163 C693 65 686 45 657 45 C631 45 624 66 624 140 C624 271 594 315 487 342 C551 353 579 362 608 383 C646 410 666 450 666 501 C666 555 642 601 602 626 C556 654 485 667 376 667 L30 667 L30 614 L71 614 C135 612 142 604 141 541 L141 126 C142 63 135 55 71 53 L30 53 L30 0 L358 0 L358 53 Z M238 373 L238 614 L376 614 C417 614 473 608 493 601 C538 586 565 548 565 499 C565 414 500 373 366 373 L238 373 Z M216 851 L321 719 L395 719 L501 851 L469 851 L358 780 L248 851 L216 851 Z " />
<glyph glyph-name="rcaron" unicode="&#x159;" horiz-adv-x="477" d="M320 48 L271 48 C216 49 207 58 207 105 L207 217 C207 273 216 315 235 352 C264 407 302 436 346 436 C371 436 382 431 403 408 C368 408 348 391 348 359 C348 330 372 308 403 308 C438 308 465 338 465 375 C465 438 418 483 352 483 C289 483 245 449 207 372 L207 469 L30 469 L30 421 L58 421 C113 419 122 410 122 364 L122 105 C122 58 113 49 58 48 L30 48 L30 0 L320 0 L320 48 Z M96 709 L206 540 L271 540 L381 709 L346 709 L238 614 L131 709 L96 709 Z " />
<glyph glyph-name="Sacute" unicode="&#x15a;" horiz-adv-x="626" d="M45 0 L96 0 L128 74 C214 0 261 -20 351 -20 C496 -20 597 66 597 189 C597 301 535 355 364 388 L268 407 C172 426 132 459 132 519 C132 585 193 629 284 629 C351 629 411 606 449 565 C480 532 494 498 508 420 L561 420 L561 673 L515 673 L486 612 C403 672 361 687 279 687 C138 687 47 612 47 496 C47 438 68 393 109 364 C145 338 169 330 271 307 L353 289 C410 276 447 264 466 250 C493 230 507 202 507 168 C507 93 443 43 347 43 C278 43 215 69 169 118 C131 158 116 194 100 277 L45 277 L45 0 Z M277 719 L420 783 C443 794 453 806 453 823 C453 843 437 859 418 859 C406 859 391 852 378 840 L242 719 L277 719 Z " />
<glyph glyph-name="sacute" unicode="&#x15b;" horiz-adv-x="497" d="M40 -4 L91 -4 L111 46 C169 -1 208 -16 274 -16 C388 -16 461 42 461 134 C461 206 406 256 306 275 L212 292 C158 302 129 327 129 364 C129 406 166 433 225 433 C271 433 311 418 340 390 C364 367 375 344 387 293 L437 293 L437 475 L392 475 L373 433 C316 471 275 485 216 485 C116 485 46 428 46 346 C46 275 104 221 202 202 L292 185 C351 173 379 151 379 114 C379 68 336 38 270 38 C225 38 181 55 148 85 C118 112 105 136 92 192 L40 192 L40 -4 Z M180 540 L216 540 L362 629 C393 648 403 660 403 677 C403 698 386 715 366 715 C351 715 331 704 314 686 L180 540 Z " />
<glyph glyph-name="Scircumflex" unicode="&#x15c;" horiz-adv-x="626" d="M45 0 L96 0 L128 74 C214 0 261 -20 351 -20 C496 -20 597 66 597 189 C597 301 535 355 364 388 L268 407 C172 426 132 459 132 519 C132 585 193 629 284 629 C351 629 411 606 449 565 C480 532 494 498 508 420 L561 420 L561 673 L515 673 L486 612 C403 672 361 687 279 687 C138 687 47 612 47 496 C47 438 68 393 109 364 C145 338 169 330 271 307 L353 289 C410 276 447 264 466 250 C493 230 507 202 507 168 C507 93 443 43 347 43 C278 43 215 69 169 118 C131 158 116 194 100 277 L45 277 L45 0 Z M170 719 L202 719 L313 790 L424 719 L456 719 L350 851 L276 851 L170 719 Z " />
<glyph glyph-name="scircumflex" unicode="&#x15d;" horiz-adv-x="497" d="M40 -4 L91 -4 L111 46 C169 -1 208 -16 274 -16 C388 -16 461 42 461 134 C461 206 406 256 306 275 L212 292 C158 302 129 327 129 364 C129 406 166 433 225 433 C271 433 311 418 340 390 C364 367 375 344 387 293 L437 293 L437 475 L392 475 L373 433 C316 471 275 485 216 485 C116 485 46 428 46 346 C46 275 104 221 202 202 L292 185 C351 173 379 151 379 114 C379 68 336 38 270 38 C225 38 181 55 148 85 C118 112 105 136 92 192 L40 192 L40 -4 Z M106 540 L141 540 L249 635 L356 540 L391 540 L281 709 L216 709 L106 540 Z " />
<glyph glyph-name="Scedilla" unicode="&#x15e;" horiz-adv-x="626" d="M319 -18 C334 -19 347 -20 353 -20 C495 -20 597 67 597 189 C597 246 577 293 540 323 C503 352 452 371 364 388 L267 407 C172 426 132 459 132 519 C132 585 193 629 284 629 C351 629 410 606 449 565 C479 533 494 498 508 420 L561 420 L561 673 L515 673 L486 612 C402 672 361 687 279 687 C138 687 47 612 47 496 C47 438 68 393 109 364 C145 338 168 330 270 307 L353 289 C410 276 447 264 465 250 C493 230 507 202 507 168 C507 93 443 43 347 43 C278 43 215 70 169 118 C131 158 116 194 100 277 L45 277 L45 0 L96 0 L128 74 C202 12 232 -5 288 -14 L288 -101 C304 -96 312 -95 323 -95 C351 -95 369 -111 369 -135 C369 -160 350 -174 316 -174 C283 -174 241 -159 204 -135 L187 -178 C239 -204 287 -217 329 -217 C397 -217 440 -184 440 -133 C440 -89 404 -56 355 -56 C345 -56 333 -57 319 -58 L319 -18 Z " />
<glyph glyph-name="scedilla" unicode="&#x15f;" horiz-adv-x="497" d="M256 -16 L275 -16 C388 -16 461 43 461 134 C461 206 406 256 305 275 L212 292 C158 302 129 327 129 364 C129 406 166 433 224 433 C270 433 310 418 339 390 C364 367 375 344 387 293 L437 293 L437 475 L392 475 L373 433 C316 471 275 485 216 485 C116 485 46 428 46 346 C46 275 104 221 201 202 L291 185 C351 173 379 151 379 114 C379 68 336 38 270 38 C225 38 181 55 148 85 C118 112 105 136 92 192 L40 192 L40 -4 L91 -4 L111 46 C158 8 178 -3 225 -12 L225 -95 C241 -90 249 -89 260 -89 C291 -89 308 -105 308 -133 C308 -160 289 -174 253 -174 C220 -174 179 -160 141 -135 L124 -178 C178 -205 224 -217 266 -217 C336 -217 377 -185 377 -130 C377 -83 342 -50 292 -50 C281 -50 270 -51 256 -52 L256 -16 Z " />
<glyph glyph-name="Scaron" unicode="&#x160;" horiz-adv-x="626" d="M45 0 L96 0 L128 74 C214 0 261 -20 351 -20 C496 -20 597 66 597 189 C597 301 535 355 364 388 L268 407 C172 426 132 459 132 519 C132 585 193 629 284 629 C351 629 411 606 449 565 C480 532 494 498 508 420 L561 420 L561 673 L515 673 L486 612 C403 672 361 687 279 687 C138 687 47 612 47 496 C47 438 68 393 109 364 C145 338 169 330 271 307 L353 289 C410 276 447 264 466 250 C493 230 507 202 507 168 C507 93 443 43 347 43 C278 43 215 69 169 118 C131 158 116 194 100 277 L45 277 L45 0 Z M170 851 L276 719 L350 719 L456 851 L424 851 L313 780 L202 851 L170 851 Z " />
<glyph glyph-name="scaron" unicode="&#x161;" horiz-adv-x="497" d="M40 -4 L91 -4 L111 46 C169 -1 208 -16 274 -16 C388 -16 461 42 461 134 C461 206 406 256 306 275 L212 292 C158 302 129 327 129 364 C129 406 166 433 225 433 C271 433 311 418 340 390 C364 367 375 344 387 293 L437 293 L437 475 L392 475 L373 433 C316 471 275 485 216 485 C116 485 46 428 46 346 C46 275 104 221 202 202 L292 185 C351 173 379 151 379 114 C379 68 336 38 270 38 C225 38 181 55 148 85 C118 112 105 136 92 192 L40 192 L40 -4 Z M106 709 L216 540 L281 540 L391 709 L356 709 L249 614 L141 709 L106 709 Z " />
<glyph glyph-name="Tcommaaccent" unicode="&#x162;" horiz-adv-x="665" d="M27 405 L78 405 C84 570 120 612 253 614 L284 614 L284 126 C285 63 278 55 214 53 L152 53 L152 0 L514 0 L514 53 L451 53 C387 55 380 63 381 126 L381 614 L412 614 C546 612 581 570 587 405 L638 405 L638 667 L27 667 L27 405 Z M289 -266 C352 -252 395 -198 395 -135 C395 -88 367 -56 325 -56 C295 -56 273 -77 273 -108 C273 -132 293 -152 318 -152 C328 -152 335 -149 351 -141 C353 -186 328 -223 289 -234 L289 -266 Z " />
<glyph glyph-name="tcommaaccent" unicode="&#x163;" horiz-adv-x="402" d="M99 420 L99 95 C99 26 144 -17 217 -17 C271 -17 314 8 331 50 C343 80 347 106 350 192 L305 192 C304 135 300 103 292 80 C284 56 261 41 233 41 C199 41 184 58 184 95 L184 420 L327 420 L327 469 L184 469 L184 655 L137 655 C126 527 93 476 15 469 L15 420 L99 420 Z M158 -266 C220 -252 264 -198 264 -135 C264 -88 235 -56 194 -56 C163 -56 141 -77 141 -108 C141 -132 161 -152 186 -152 C196 -152 204 -149 220 -141 C222 -186 197 -223 158 -234 L158 -266 Z " />
<glyph glyph-name="Tcaron" unicode="&#x164;" horiz-adv-x="665" d="M27 405 L78 405 C84 570 120 612 253 614 L284 614 L284 126 C285 63 278 55 214 53 L152 53 L152 0 L514 0 L514 53 L451 53 C387 55 380 63 381 126 L381 614 L412 614 C546 612 581 570 587 405 L638 405 L638 667 L27 667 L27 405 Z M190 851 L295 719 L370 719 L475 851 L443 851 L332 780 L222 851 L190 851 Z " />
<glyph glyph-name="tcaron" unicode="&#x165;" horiz-adv-x="402" d="M99 420 L99 95 C99 26 144 -17 217 -17 C271 -17 314 8 331 50 C343 80 347 106 350 192 L305 192 C304 135 300 103 292 80 C284 56 261 41 233 41 C199 41 184 58 184 95 L184 420 L327 420 L327 469 L184 469 L184 655 L137 655 C126 527 93 476 15 469 L15 420 L99 420 Z M234 505 C296 518 340 572 340 635 C340 682 312 714 270 714 C240 714 218 693 218 663 C218 638 238 619 263 619 C273 619 281 622 296 630 C299 585 274 547 234 537 L234 505 Z " />
<glyph glyph-name="Tbar" unicode="&#x166;" horiz-adv-x="665" d="M381 360 L381 614 L412 614 C546 612 581 570 587 405 L638 405 L638 667 L27 667 L27 405 L78 405 C84 570 119 612 253 614 L284 614 L284 360 L139 360 L139 307 L284 307 L284 126 C285 63 278 55 214 53 L152 53 L152 0 L514 0 L514 53 L451 53 C387 55 380 63 381 126 L381 307 L526 307 L526 360 L381 360 Z " />
<glyph glyph-name="tbar" unicode="&#x167;" horiz-adv-x="402" d="M184 327 L184 420 L327 420 L327 469 L184 469 L184 655 L137 655 C126 527 93 476 15 469 L15 420 L99 420 L99 327 L15 327 L15 274 L99 274 L99 95 C99 26 144 -17 217 -17 C271 -17 314 8 331 50 C343 80 347 105 350 192 L304 192 C303 135 300 103 292 80 C284 56 261 41 233 41 C199 41 184 58 184 95 L184 274 L295 274 L295 327 L184 327 Z " />
<glyph glyph-name="Utilde" unicode="&#x168;" horiz-adv-x="760" d="M30 614 L62 614 C127 612 134 604 133 541 L133 209 C133 125 157 67 208 30 C253 -3 312 -20 382 -20 C462 -20 525 1 569 43 C615 87 635 147 635 244 L635 541 C634 604 641 612 706 614 L736 614 L736 667 L449 667 L449 614 L498 614 C562 612 569 604 568 541 L568 244 C568 162 556 120 526 91 C497 63 450 47 394 47 C282 47 230 98 230 209 L230 541 C229 604 236 612 300 614 L349 614 L349 667 L30 667 L30 614 Z M512 829 C500 805 489 797 471 797 C462 797 453 799 440 805 L391 827 C374 835 358 839 346 839 C318 839 286 818 269 788 C262 775 257 765 249 741 L277 741 C290 766 301 774 319 774 C329 774 338 771 356 763 L405 742 C417 736 431 733 443 733 C486 733 526 774 539 829 L512 829 Z " />
<glyph glyph-name="utilde" unicode="&#x169;" horiz-adv-x="645" d="M25 421 L47 421 C102 419 111 411 111 364 L111 201 C111 112 117 80 140 46 C165 8 212 -13 271 -13 C308 -13 344 -4 374 11 C400 25 417 42 445 81 L445 0 L623 0 L623 48 L595 48 C540 50 529 59 530 105 L530 469 L343 469 L343 421 L381 421 C436 419 445 411 445 364 L445 201 C445 150 434 118 404 85 C377 55 340 40 297 40 C223 40 196 79 196 188 L196 469 L25 469 L25 421 Z M440 676 C428 652 418 644 400 644 C391 644 381 646 369 652 L320 674 C302 682 287 686 275 686 C246 686 215 665 198 635 C190 622 186 612 178 588 L206 588 C219 613 230 621 247 621 C258 621 266 618 285 610 L334 589 C346 583 360 580 372 580 C415 580 455 621 468 676 L440 676 Z " />
<glyph glyph-name="Umacron" unicode="&#x16a;" horiz-adv-x="760" d="M30 614 L62 614 C127 612 134 604 133 541 L133 209 C133 125 157 67 208 30 C253 -3 312 -20 382 -20 C462 -20 525 1 569 43 C615 87 635 147 635 244 L635 541 C634 604 641 612 706 614 L736 614 L736 667 L449 667 L449 614 L498 614 C562 612 569 604 568 541 L568 244 C568 162 556 120 526 91 C497 63 450 47 394 47 C282 47 230 98 230 209 L230 541 C229 604 236 612 300 614 L349 614 L349 667 L30 667 L30 614 Z M274 751 L526 751 L526 816 L274 816 L274 751 Z " />
<glyph glyph-name="umacron" unicode="&#x16b;" horiz-adv-x="645" d="M25 421 L47 421 C102 419 111 411 111 364 L111 201 C111 112 117 80 140 46 C165 8 212 -13 271 -13 C308 -13 344 -4 374 11 C400 25 417 42 445 81 L445 0 L623 0 L623 48 L595 48 C540 50 529 59 530 105 L530 469 L343 469 L343 421 L381 421 C436 419 445 411 445 364 L445 201 C445 150 434 118 404 85 C377 55 340 40 297 40 C223 40 196 79 196 188 L196 469 L25 469 L25 421 Z M192 585 L454 585 L454 653 L192 653 L192 585 Z " />
<glyph glyph-name="Ubreve" unicode="&#x16c;" horiz-adv-x="760" d="M30 614 L62 614 C127 612 134 604 133 541 L133 209 C133 125 157 67 208 30 C253 -3 312 -20 382 -20 C462 -20 525 1 569 43 C615 87 635 147 635 244 L635 541 C634 604 641 612 706 614 L736 614 L736 667 L449 667 L449 614 L498 614 C562 612 569 604 568 541 L568 244 C568 162 556 120 526 91 C497 63 450 47 394 47 C282 47 230 98 230 209 L230 541 C229 604 236 612 300 614 L349 614 L349 667 L30 667 L30 614 Z M228 847 C238 802 247 782 268 762 C293 737 330 723 372 723 C414 723 451 737 477 762 C497 781 506 802 516 847 L484 847 C470 806 440 791 372 791 C304 791 275 806 259 847 L228 847 Z " />
<glyph glyph-name="ubreve" unicode="&#x16d;" horiz-adv-x="645" d="M25 421 L47 421 C102 419 111 411 111 364 L111 201 C111 112 117 80 140 46 C165 8 212 -13 271 -13 C308 -13 344 -4 374 11 C400 25 417 42 445 81 L445 0 L623 0 L623 48 L595 48 C540 50 529 59 530 105 L530 469 L343 469 L343 421 L381 421 C436 419 445 411 445 364 L445 201 C445 150 434 118 404 85 C377 55 340 40 297 40 C223 40 196 79 196 188 L196 469 L25 469 L25 421 Z M177 692 C188 641 198 619 219 597 C244 571 280 557 323 557 C365 557 402 571 428 597 C448 618 458 641 468 692 L437 692 C421 644 393 628 323 628 C253 628 226 643 209 692 L177 692 Z " />
<glyph glyph-name="Uring" unicode="&#x16e;" horiz-adv-x="760" d="M30 614 L62 614 C127 612 134 604 133 541 L133 209 C133 125 157 67 208 30 C253 -3 312 -20 382 -20 C462 -20 525 1 569 43 C615 87 635 147 635 244 L635 541 C634 604 641 612 706 614 L736 614 L736 667 L449 667 L449 614 L498 614 C562 612 569 604 568 541 L568 244 C568 162 556 120 526 91 C497 63 450 47 394 47 C282 47 230 98 230 209 L230 541 C229 604 236 612 300 614 L349 614 L349 667 L30 667 L30 614 Z M400 893 C348 893 304 851 304 800 C304 745 347 701 401 701 C453 701 496 745 496 798 C496 851 453 893 400 893 L400 893 Z M400 848 C428 848 451 825 451 797 C451 770 428 746 400 746 C371 746 349 769 349 799 C349 826 372 848 400 848 L400 848 Z " />
<glyph glyph-name="uring" unicode="&#x16f;" horiz-adv-x="645" d="M25 421 L47 421 C102 419 111 411 111 364 L111 201 C111 112 117 80 140 46 C165 8 212 -13 271 -13 C308 -13 344 -4 374 11 C400 25 417 42 445 81 L445 0 L623 0 L623 48 L595 48 C540 50 529 59 530 105 L530 469 L343 469 L343 421 L381 421 C436 419 445 411 445 364 L445 201 C445 150 434 118 404 85 C377 55 340 40 297 40 C223 40 196 79 196 188 L196 469 L25 469 L25 421 Z M297 735 C245 735 201 693 201 642 C201 587 244 543 298 543 C350 543 393 587 393 640 C393 693 350 735 297 735 L297 735 Z M297 690 C325 690 348 667 348 639 C348 612 325 588 297 588 C268 588 246 611 246 641 C246 668 269 690 297 690 L297 690 Z " />
<glyph glyph-name="Uhungarumlaut" unicode="&#x170;" horiz-adv-x="760" d="M30 614 L62 614 C127 612 134 604 133 541 L133 209 C133 125 157 67 208 30 C253 -3 312 -20 382 -20 C462 -20 525 1 569 43 C615 87 635 147 635 244 L635 541 C634 604 641 612 706 614 L736 614 L736 667 L449 667 L449 614 L498 614 C562 612 569 604 568 541 L568 244 C568 162 556 120 526 91 C497 63 450 47 394 47 C282 47 230 98 230 209 L230 541 C229 604 236 612 300 614 L349 614 L349 667 L30 667 L30 614 Z M332 719 L425 789 C437 798 445 812 445 824 C445 843 431 857 412 857 C398 857 385 847 373 829 L305 719 L332 719 Z M455 719 L566 787 C581 796 591 811 591 823 C591 842 576 858 558 858 C544 858 531 849 517 832 L428 719 L455 719 Z " />
<glyph glyph-name="uhungarumlaut" unicode="&#x171;" horiz-adv-x="645" d="M25 421 L47 421 C102 419 111 411 111 364 L111 201 C111 112 117 80 140 46 C165 8 212 -13 271 -13 C308 -13 344 -4 374 11 C400 25 417 42 445 81 L445 0 L623 0 L623 48 L595 48 C540 50 529 59 530 105 L530 469 L343 469 L343 421 L381 421 C436 419 445 411 445 364 L445 201 C445 150 434 118 404 85 C377 55 340 40 297 40 C223 40 196 79 196 188 L196 469 L25 469 L25 421 Z M228 540 L257 540 L347 634 C366 655 374 668 374 680 C374 699 357 715 338 715 C320 715 305 701 292 673 L228 540 Z M347 540 L376 540 L483 631 C506 651 514 664 514 680 C514 699 499 714 479 714 C462 714 445 702 431 678 L347 540 Z " />
<glyph glyph-name="Uogonek" unicode="&#x172;" horiz-adv-x="760" d="M736 667 L449 667 L449 614 L498 614 C562 612 569 604 568 541 L568 244 C568 162 556 120 526 91 C497 63 450 47 394 47 C282 47 230 98 230 209 L230 541 C229 604 236 612 300 614 L349 614 L349 667 L30 667 L30 614 L62 614 C127 612 134 604 133 541 L133 209 C133 125 157 67 208 30 C253 -3 313 -20 381 -20 C430 -20 472 -12 511 4 C450 -45 419 -94 419 -141 C419 -187 450 -217 498 -217 C544 -217 578 -194 603 -148 L575 -127 C555 -151 548 -155 528 -155 C502 -155 484 -138 484 -114 C484 -92 493 -74 517 -43 C614 70 633 118 635 244 L635 541 C634 604 641 612 706 614 L736 614 L736 667 Z " />
<glyph glyph-name="uogonek" unicode="&#x173;" horiz-adv-x="645" d="M196 469 L25 469 L25 421 L47 421 C102 419 111 411 111 364 L111 201 C111 112 117 80 140 46 C165 8 212 -13 271 -13 C307 -13 344 -4 374 11 C400 25 417 42 445 81 L445 0 L574 0 C505 -50 472 -95 472 -142 C472 -188 503 -217 552 -217 C598 -217 632 -194 657 -148 L629 -127 C610 -150 602 -155 582 -155 C556 -155 538 -138 538 -114 C538 -88 554 -59 582 -33 C592 -24 600 -18 623 0 L623 48 L595 48 C540 50 529 59 530 105 L530 469 L343 469 L343 421 L381 421 C436 419 445 411 445 364 L445 201 C445 150 434 118 404 85 C377 55 340 40 297 40 C223 40 196 79 196 188 L196 469 Z " />
<glyph glyph-name="Wcircumflex" unicode="&#x174;" horiz-adv-x="958" d="M255 0 L332 0 L479 437 L615 0 L693 0 L853 531 C876 603 884 611 927 614 L954 614 L954 667 L702 667 L702 614 L749 614 C786 614 798 607 798 584 C798 571 794 549 787 527 L668 124 L537 555 C534 565 532 577 532 586 C532 609 542 614 586 614 L631 614 L631 667 L340 667 L340 614 L373 614 C418 613 429 606 441 571 L450 537 L312 124 L194 551 C191 562 189 574 189 584 C189 606 203 614 241 614 L281 614 L281 667 L0 667 L0 614 L30 614 C75 613 84 602 108 513 L255 0 Z M337 719 L368 719 L479 790 L590 719 L622 719 L516 851 L442 851 L337 719 Z " />
<glyph glyph-name="wcircumflex" unicode="&#x175;" horiz-adv-x="819" d="M236 -5 L293 -5 L407 285 L522 -5 L578 -5 L724 363 C741 408 755 420 791 421 L804 421 L804 469 L597 469 L597 421 L627 421 C662 421 673 416 673 401 C673 390 670 376 664 363 L561 107 L459 372 C456 382 453 393 453 398 C453 417 461 421 501 421 L530 421 L530 469 L296 469 L296 421 L318 421 C352 418 362 411 373 380 L379 362 L277 107 L174 372 C169 384 167 392 167 397 C167 414 178 421 204 421 L237 421 L237 469 L10 469 L10 421 L28 421 C63 419 71 412 88 370 L236 -5 Z M261 540 L297 540 L404 635 L511 540 L547 540 L436 709 L372 709 L261 540 Z " />
<glyph glyph-name="Ycircumflex" unicode="&#x176;" horiz-adv-x="636" d="M266 263 L266 126 C267 63 260 55 196 53 L133 53 L133 0 L495 0 L495 53 L433 53 C369 55 362 63 363 126 L363 263 L528 532 C570 597 592 614 633 614 L656 614 L656 667 L386 667 L386 614 L453 614 C474 614 487 607 487 597 C487 588 483 575 476 564 L331 331 L196 555 C187 569 182 584 182 593 C182 607 194 614 217 614 L281 614 L281 667 L-25 667 L-25 614 L4 614 C38 612 64 593 90 550 L266 263 Z M188 719 L220 719 L331 790 L442 719 L474 719 L368 851 L294 851 L188 719 Z " />
<glyph glyph-name="ycircumflex" unicode="&#x177;" horiz-adv-x="566" d="M255 -3 C226 -67 214 -89 197 -115 C174 -147 147 -164 116 -164 C90 -164 77 -157 58 -132 C100 -129 116 -116 116 -83 C116 -53 93 -30 63 -30 C24 -30 -5 -61 -5 -104 C-5 -134 7 -162 31 -184 C54 -206 76 -214 113 -214 C158 -214 195 -198 226 -165 C255 -134 274 -97 333 38 L472 359 C495 411 503 419 539 421 L569 421 L569 469 L331 469 L331 421 L371 421 C407 421 420 415 420 399 C420 391 418 381 414 372 L300 103 L187 367 C181 380 178 393 178 401 C178 416 187 421 212 421 L255 421 L255 469 L2 469 L2 421 L28 421 C66 419 75 412 93 374 L255 -3 Z M140 540 L176 540 L283 635 L390 540 L426 540 L315 709 L251 709 L140 540 Z " />
<glyph glyph-name="Ydieresis" unicode="&#x178;" horiz-adv-x="636" d="M266 263 L266 126 C267 63 260 55 196 53 L133 53 L133 0 L495 0 L495 53 L433 53 C369 55 362 63 363 126 L363 263 L528 532 C570 597 592 614 633 614 L656 614 L656 667 L386 667 L386 614 L453 614 C474 614 487 607 487 597 C487 588 483 575 476 564 L331 331 L196 555 C187 569 182 584 182 593 C182 607 194 614 217 614 L281 614 L281 667 L-25 667 L-25 614 L4 614 C38 612 64 593 90 550 L266 263 Z M242 821 C215 821 191 798 191 771 C191 742 213 720 242 720 C271 720 293 742 293 770 C293 797 270 821 242 821 L242 821 Z M420 821 C393 821 369 798 369 771 C369 742 391 720 420 720 C449 720 471 742 471 770 C471 797 448 821 420 821 L420 821 Z " />
<glyph glyph-name="Zacute" unicode="&#x179;" horiz-adv-x="616" d="M25 0 L567 0 L567 287 L514 287 C504 88 482 59 333 53 L142 53 L568 611 L568 667 L44 667 L44 403 L96 403 C103 577 133 615 263 614 L453 614 L25 54 L25 0 Z M292 719 L435 783 C458 794 468 806 468 823 C468 843 452 859 433 859 C421 859 406 852 393 840 L257 719 L292 719 Z " />
<glyph glyph-name="zacute" unicode="&#x17a;" horiz-adv-x="497" d="M25 0 L459 0 L459 212 L411 212 C403 66 390 51 260 50 L132 50 L450 420 L450 469 L41 469 L41 272 L89 272 C98 406 114 423 226 420 L344 420 L25 50 L25 0 Z M180 540 L216 540 L362 629 C391 647 402 660 402 677 C402 698 385 715 365 715 C350 715 331 704 314 686 L180 540 Z " />
<glyph glyph-name="Zdotaccent" unicode="&#x17b;" horiz-adv-x="616" d="M25 0 L567 0 L567 287 L514 287 C504 88 482 59 333 53 L142 53 L568 611 L568 667 L44 667 L44 403 L96 403 C103 577 133 615 263 614 L453 614 L25 54 L25 0 Z M309 824 C280 824 255 799 255 771 C255 740 278 717 309 717 C338 717 362 741 362 770 C362 799 338 824 309 824 L309 824 Z " />
<glyph glyph-name="zdotaccent" unicode="&#x17c;" horiz-adv-x="497" d="M25 0 L459 0 L459 212 L411 212 C403 66 390 51 260 50 L132 50 L450 420 L450 469 L41 469 L41 272 L89 272 C98 406 114 423 226 420 L344 420 L25 50 L25 0 Z M249 677 C218 677 191 650 191 620 C191 587 216 562 249 562 C281 562 306 587 306 618 C306 650 279 677 249 677 L249 677 Z " />
<glyph glyph-name="Zcaron" unicode="&#x17d;" horiz-adv-x="616" d="M25 0 L567 0 L567 287 L514 287 C504 88 482 59 333 53 L142 53 L568 611 L568 667 L44 667 L44 403 L96 403 C103 577 133 615 263 614 L453 614 L25 54 L25 0 Z M165 851 L271 719 L345 719 L451 851 L419 851 L308 780 L197 851 L165 851 Z " />
<glyph glyph-name="zcaron" unicode="&#x17e;" horiz-adv-x="497" d="M25 0 L459 0 L459 212 L411 212 C403 66 390 51 260 50 L132 50 L450 420 L450 469 L41 469 L41 272 L89 272 C98 406 114 423 226 420 L344 420 L25 50 L25 0 Z M106 709 L216 540 L281 540 L391 709 L356 709 L248 614 L141 709 L106 709 Z " />
<glyph glyph-name="uni018F" unicode="&#x18f;" horiz-adv-x="794" d="M40 337 C40 130 189 -19 398 -19 C604 -19 755 130 755 334 C755 538 604 687 397 687 C271 687 152 625 96 530 L189 509 C195 522 201 532 212 545 C263 604 322 632 397 632 C489 632 563 588 608 507 C633 463 645 408 647 337 L40 337 Z M643 272 C626 130 529 36 397 36 C265 36 173 125 152 272 L643 272 Z " />
<glyph glyph-name="florin" unicode="&#x192;" horiz-adv-x="608" d="M274 420 L214 45 C206 -5 203 -23 197 -39 C183 -82 154 -104 112 -104 C84 -104 73 -100 49 -79 C79 -71 96 -53 96 -28 C96 -4 78 13 51 13 C14 13 -13 -17 -13 -59 C-13 -114 37 -149 115 -149 C173 -149 221 -129 253 -90 C272 -67 287 -30 294 13 L359 420 L471 420 L478 469 L367 469 L372 506 C380 556 387 580 398 600 C412 624 441 639 472 639 C500 639 511 635 535 614 C505 606 488 588 488 562 C488 538 507 521 534 521 C571 521 598 552 598 593 C598 648 548 684 470 684 C423 684 382 671 351 645 C317 617 299 579 288 509 L282 469 L189 469 L182 420 L274 420 Z " />
<glyph glyph-name="uni01C4" unicode="&#x1c4;" horiz-adv-x="497" d="M274 687 C243 687 218 661 218 631 C218 600 244 574 274 574 C305 574 331 599 331 629 C331 662 306 687 274 687 L274 687 Z M250 489 C245 404 240 395 167 340 C102 293 82 275 60 242 C44 217 34 185 34 154 C34 52 122 -18 251 -18 C378 -18 470 54 470 154 C470 213 435 257 387 257 C349 257 324 234 324 200 C324 169 344 149 376 149 C390 149 399 152 417 162 C416 122 408 103 384 79 C356 52 310 36 264 36 C183 36 129 82 129 150 C129 196 146 229 194 272 C289 358 299 377 301 489 L250 489 Z " />
<glyph glyph-name="uni01CD" unicode="&#x1cd;" horiz-adv-x="700" d="M-20 0 L268 0 L268 53 L218 53 C167 53 154 58 154 79 C154 89 159 106 168 130 L205 223 L459 223 L501 110 C506 96 509 84 509 79 C509 59 495 53 450 53 L397 53 L397 0 L713 0 L713 53 L685 53 C637 54 619 67 602 114 L390 667 L307 667 L92 111 C73 64 59 54 12 53 L-20 53 L-20 0 Z M225 276 L329 561 L437 276 L225 276 Z M207 851 L313 719 L387 719 L493 851 L461 851 L350 780 L239 851 L207 851 Z " />
<glyph glyph-name="uni01CE" unicode="&#x1ce;" horiz-adv-x="551" d="M505 159 C502 60 493 37 460 37 C438 37 430 53 430 95 L430 327 C430 397 419 426 382 451 C347 474 299 486 246 486 C139 486 56 431 56 361 C56 326 82 300 116 300 C148 300 171 321 171 349 C171 376 157 391 124 399 C163 431 191 441 233 441 C304 441 350 407 350 354 C350 309 331 290 270 273 L192 251 C132 234 106 224 79 205 C47 182 30 149 30 110 C30 33 89 -18 177 -18 C242 -18 288 3 351 61 C368 5 395 -18 445 -18 C524 -18 550 26 551 159 L505 159 Z M346 199 C346 137 333 103 299 74 C275 54 237 41 202 41 C154 41 124 69 124 112 C124 156 150 181 217 203 L256 216 C285 225 296 230 346 253 L346 199 Z M120 709 L230 540 L295 540 L405 709 L370 709 L262 614 L155 709 L120 709 Z " />
<glyph glyph-name="uni01D1" unicode="&#x1d1;" horiz-adv-x="303" d="M150 687 C119 687 94 661 94 631 C94 600 120 574 150 574 C181 574 207 599 207 629 C207 662 182 687 150 687 L150 687 Z M128 488 C123 331 120 292 105 172 C95 75 94 68 94 53 C94 10 115 -17 150 -17 C185 -17 207 10 207 53 C207 69 207 73 196 172 C180 292 178 331 172 488 L128 488 Z " />
<glyph glyph-name="uni01D2" unicode="&#x1d2;" horiz-adv-x="576" d="M288 486 C220 486 157 463 108 419 C58 375 31 312 31 238 C31 156 54 98 108 50 C155 7 219 -17 289 -17 C357 -17 421 7 468 50 C520 97 545 156 545 234 C545 313 520 372 468 419 C420 463 357 486 288 486 L288 486 Z M288 435 C390 435 448 363 448 234 C448 106 391 34 288 34 C184 34 128 106 128 237 C128 363 186 435 288 435 L288 435 Z M144 709 L254 540 L319 540 L429 709 L394 709 L287 614 L179 709 L144 709 Z " />
<glyph glyph-name="uni01D3" unicode="&#x1d3;" horiz-adv-x="760" d="M30 614 L62 614 C127 612 134 604 133 541 L133 209 C133 125 157 67 208 30 C253 -3 312 -20 382 -20 C462 -20 525 1 569 43 C615 87 635 147 635 244 L635 541 C634 604 641 612 706 614 L736 614 L736 667 L449 667 L449 614 L498 614 C562 612 569 604 568 541 L568 244 C568 162 556 120 526 91 C497 63 450 47 394 47 C282 47 230 98 230 209 L230 541 C229 604 236 612 300 614 L349 614 L349 667 L30 667 L30 614 Z M257 851 L363 719 L437 719 L543 851 L511 851 L400 780 L289 851 L257 851 Z " />
<glyph glyph-name="uni01D4" unicode="&#x1d4;" horiz-adv-x="645" d="M25 421 L47 421 C102 419 111 411 111 364 L111 201 C111 112 117 80 140 46 C165 8 212 -13 271 -13 C308 -13 344 -4 374 11 C400 25 417 42 445 81 L445 0 L623 0 L623 48 L595 48 C540 50 529 59 530 105 L530 469 L343 469 L343 421 L381 421 C436 419 445 411 445 364 L445 201 C445 150 434 118 404 85 C377 55 340 40 297 40 C223 40 196 79 196 188 L196 469 L25 469 L25 421 Z M180 709 L291 540 L355 540 L466 709 L430 709 L323 614 L216 709 L180 709 Z " />
<glyph glyph-name="uni01DD" unicode="&#x1dd;" horiz-adv-x="526" d="M103 315 C118 359 129 378 150 395 C176 417 213 430 252 430 C302 430 344 410 368 374 C389 343 396 312 398 242 L30 242 C34 146 46 103 82 58 C122 7 179 -17 255 -17 C401 -17 495 82 495 235 C495 388 400 486 253 486 C189 486 140 468 102 431 C72 403 59 376 44 315 L103 315 Z M395 189 C389 132 381 106 361 79 C337 47 303 32 256 32 C214 32 179 47 158 75 C138 101 131 128 128 189 L395 189 Z " />
<glyph glyph-name="Gcaron" unicode="&#x1e6;" horiz-adv-x="775" d="M666 -7 L666 232 C666 283 675 290 737 289 L776 289 L776 342 L440 342 L440 289 L493 289 C559 288 567 282 569 232 L569 191 C569 156 561 131 543 108 C511 68 444 41 379 41 C302 41 232 77 195 137 C164 187 148 253 148 334 C148 514 235 631 371 631 C429 631 484 607 525 565 C560 529 576 497 597 421 L650 421 L650 667 L603 667 L569 602 C488 669 444 687 362 687 C173 687 40 539 40 329 C40 121 169 -19 361 -19 C439 -19 486 -3 576 56 L612 -7 L666 -7 Z M225 851 L330 719 L405 719 L510 851 L478 851 L367 780 L257 851 L225 851 Z " />
<glyph glyph-name="gcaron" unicode="&#x1e7;" horiz-adv-x="646" d="M210 60 C149 60 124 71 124 98 C124 123 149 147 174 147 C177 147 181 146 187 145 C239 130 249 128 282 128 C413 128 494 197 494 307 C494 342 489 360 468 397 C497 432 516 444 547 444 C565 444 570 441 582 427 C549 421 534 406 534 379 C534 352 556 331 585 331 C619 331 642 359 642 401 C642 451 604 486 550 486 C508 486 484 474 442 432 C384 472 341 486 275 486 C152 486 69 415 69 309 C69 254 86 219 133 176 C68 140 50 119 50 79 C50 38 72 14 126 -4 C96 -12 76 -20 64 -30 C43 -47 30 -72 30 -97 C30 -131 54 -164 94 -183 C139 -205 194 -214 274 -214 C460 -214 549 -166 549 -68 C549 15 484 60 363 60 L210 60 Z M279 439 C358 439 401 393 401 309 C401 224 359 180 280 180 C201 180 161 223 161 308 C161 390 205 439 279 439 L279 439 Z M317 -20 C432 -21 473 -38 473 -85 C473 -113 457 -131 421 -144 C388 -156 322 -164 258 -164 C159 -164 106 -138 106 -89 C106 -43 157 -20 259 -20 L317 -20 Z M147 709 L257 540 L322 540 L432 709 L397 709 L290 614 L182 709 L147 709 Z " />
<glyph glyph-name="uni01F4" unicode="&#x1f4;" horiz-adv-x="775" d="M666 -7 L666 232 C666 283 675 290 737 289 L776 289 L776 342 L440 342 L440 289 L493 289 C559 288 567 282 569 232 L569 191 C569 156 561 131 543 108 C511 68 444 41 379 41 C302 41 232 77 195 137 C164 187 148 253 148 334 C148 514 235 631 371 631 C429 631 484 607 525 565 C560 529 576 497 597 421 L650 421 L650 667 L603 667 L569 602 C488 669 444 687 362 687 C173 687 40 539 40 329 C40 121 169 -19 361 -19 C439 -19 486 -3 576 56 L612 -7 L666 -7 Z M351 719 L494 783 C517 793 527 806 527 823 C527 843 511 859 492 859 C481 859 465 852 452 840 L317 719 L351 719 Z " />
<glyph glyph-name="uni01F5" unicode="&#x1f5;" horiz-adv-x="646" d="M210 60 C149 60 124 71 124 98 C124 123 149 147 174 147 C177 147 181 146 187 145 C239 130 249 128 282 128 C413 128 494 197 494 307 C494 342 489 360 468 397 C497 432 516 444 547 444 C565 444 570 441 582 427 C549 421 534 406 534 379 C534 352 556 331 585 331 C619 331 642 359 642 401 C642 451 604 486 550 486 C508 486 484 474 442 432 C384 472 341 486 275 486 C152 486 69 415 69 309 C69 254 86 219 133 176 C68 140 50 119 50 79 C50 38 72 14 126 -4 C96 -12 76 -20 64 -30 C43 -47 30 -72 30 -97 C30 -131 54 -164 94 -183 C139 -205 194 -214 274 -214 C460 -214 549 -166 549 -68 C549 15 484 60 363 60 L210 60 Z M279 439 C358 439 401 393 401 309 C401 224 359 180 280 180 C201 180 161 223 161 308 C161 390 205 439 279 439 L279 439 Z M317 -20 C432 -21 473 -38 473 -85 C473 -113 457 -131 421 -144 C388 -156 322 -164 258 -164 C159 -164 106 -138 106 -89 C106 -43 157 -20 259 -20 L317 -20 Z M241 540 L277 540 L423 629 C452 647 463 660 463 677 C463 698 446 715 426 715 C411 715 391 704 375 686 L241 540 Z " />
<glyph glyph-name="Aringacute" unicode="&#x1fa;" horiz-adv-x="700" d="M-20 0 L268 0 L268 53 L218 53 C167 53 154 58 154 79 C154 89 159 106 168 130 L205 223 L459 223 L501 110 C506 96 509 84 509 79 C509 59 495 53 450 53 L397 53 L397 0 L713 0 L713 53 L685 53 C637 54 619 67 602 114 L390 667 L307 667 L92 111 C73 64 59 54 12 53 L-20 53 L-20 0 Z M225 276 L329 561 L437 276 L225 276 Z M340 893 C288 893 244 851 244 800 C244 745 287 701 341 701 C393 701 436 745 436 798 C436 851 393 893 340 893 L340 893 Z M340 848 C368 848 391 825 391 797 C391 770 368 746 340 746 C311 746 289 769 289 799 C289 826 312 848 340 848 L340 848 Z M234 884 L377 948 C400 959 410 971 410 988 C410 1008 394 1024 375 1024 C363 1024 348 1017 335 1005 L199 884 L234 884 Z " />
<glyph glyph-name="aringacute" unicode="&#x1fb;" horiz-adv-x="551" d="M505 159 C502 60 493 37 460 37 C438 37 430 53 430 95 L430 327 C430 397 419 426 382 451 C347 474 299 486 246 486 C139 486 56 431 56 361 C56 326 82 300 116 300 C148 300 171 321 171 349 C171 376 157 391 124 399 C163 431 191 441 233 441 C304 441 350 407 350 354 C350 309 331 290 270 273 L192 251 C132 234 106 224 79 205 C47 182 30 149 30 110 C30 33 89 -18 177 -18 C242 -18 288 3 351 61 C368 5 395 -18 445 -18 C524 -18 550 26 551 159 L505 159 Z M346 199 C346 137 333 103 299 74 C275 54 237 41 202 41 C154 41 124 69 124 112 C124 156 150 181 217 203 L256 216 C285 225 296 230 346 253 L346 199 Z M239 735 C186 735 143 693 143 642 C143 587 186 543 239 543 C291 543 334 587 334 640 C334 693 292 735 239 735 L239 735 Z M238 690 C266 690 289 667 289 639 C289 612 266 588 238 588 C210 588 188 611 188 641 C188 668 211 690 238 690 L238 690 Z M101 715 L137 715 L283 804 C312 822 323 835 323 852 C323 873 306 890 286 890 C271 890 251 879 235 861 L101 715 Z " />
<glyph glyph-name="AEacute" unicode="&#x1fc;" horiz-adv-x="1046" d="M256 270 L505 270 L505 126 C506 63 499 55 434 53 L385 53 L385 0 L1016 0 L1016 271 L965 271 C958 88 932 56 786 53 L593 53 L593 323 L661 323 C753 320 763 306 768 178 L819 178 L819 505 L768 505 C768 392 752 374 662 376 L593 376 L593 614 L774 614 C927 613 961 578 965 416 L1016 416 L1016 667 L272 667 L272 614 L321 614 C371 614 391 606 391 584 C391 575 383 559 371 541 L58 111 C24 66 1 52 -35 53 L-55 53 L-55 0 L215 0 L215 53 L190 53 C143 53 127 59 127 77 C127 88 135 104 154 130 L256 270 Z M293 323 L492 614 L505 614 L505 323 L293 323 Z M609 719 L752 783 C775 793 785 806 785 823 C785 843 769 859 750 859 C739 859 723 852 710 840 L574 719 L609 719 Z " />
<glyph glyph-name="aeacute" unicode="&#x1fd;" horiz-adv-x="834" d="M730 154 C715 110 704 91 683 74 C657 52 620 39 580 39 C530 39 489 59 465 95 C444 126 437 157 434 226 L803 226 C799 322 786 366 750 411 C711 461 654 486 579 486 C512 486 479 473 415 424 C389 450 375 460 354 468 C325 480 285 486 244 486 C129 486 46 433 46 360 C46 325 72 299 106 299 C138 299 161 320 161 348 C161 375 147 391 114 399 C155 432 184 442 231 442 C310 442 358 409 358 353 C358 305 335 285 260 268 L197 254 C75 227 20 182 20 110 C20 32 80 -18 175 -18 C209 -18 242 -11 272 1 C313 18 336 37 379 89 C404 53 420 35 440 21 C476 -3 527 -17 580 -17 C644 -17 693 1 731 38 C760 66 773 93 789 154 L730 154 Z M354 199 C354 137 341 103 307 75 C282 54 240 40 203 40 C147 40 114 67 114 113 C114 157 147 187 215 204 L261 216 C299 226 321 235 354 252 L354 199 Z M438 279 C444 337 451 363 471 390 C495 421 530 437 577 437 C619 437 654 422 675 394 C695 367 702 340 705 279 L438 279 Z M374 540 L410 540 L556 629 C587 648 597 660 597 677 C597 698 580 715 560 715 C545 715 525 704 508 686 L374 540 Z " />
<glyph glyph-name="Oslashacute" unicode="&#x1fe;" horiz-adv-x="794" d="M60 7 L94 -28 L171 56 C257 -3 305 -19 395 -19 C606 -19 755 128 755 335 C755 433 733 490 658 581 L732 659 L698 694 L622 611 C544 667 484 687 394 687 C189 687 40 537 40 331 C40 236 62 179 134 88 L60 7 Z M600 517 C638 450 647 416 647 344 C647 245 627 177 583 122 C537 66 473 36 400 36 C331 36 292 52 222 110 L600 517 Z M193 150 C158 212 146 261 146 335 C146 509 249 632 395 632 C462 632 509 612 572 557 L193 150 Z M389 719 L532 783 C555 793 565 806 565 823 C565 843 549 859 530 859 C519 859 503 852 490 840 L354 719 L389 719 Z " />
<glyph glyph-name="oslashacute" unicode="&#x1ff;" horiz-adv-x="576" d="M15 5 L46 -26 L116 41 C177 -2 220 -17 286 -17 C355 -17 419 7 467 50 C519 97 544 157 544 233 C544 297 531 336 488 398 L559 466 L528 497 L456 428 C395 472 354 486 288 486 C137 486 29 382 29 238 C29 178 41 143 85 73 L15 5 Z M429 341 C444 299 447 279 447 237 C447 105 390 33 286 33 C236 33 204 47 165 88 L429 341 Z M143 128 C129 170 125 189 125 229 C125 362 182 435 285 435 C337 435 373 420 408 382 L143 128 Z M236 540 L272 540 L417 629 C448 648 458 660 458 677 C458 698 441 715 421 715 C406 715 386 704 370 686 L236 540 Z " />
<glyph glyph-name="Scommaaccent" unicode="&#x218;" horiz-adv-x="626" d="M45 0 L96 0 L128 74 C214 0 261 -20 351 -20 C496 -20 597 66 597 189 C597 301 535 355 364 388 L268 407 C172 426 132 459 132 519 C132 585 193 629 284 629 C351 629 411 606 449 565 C480 532 494 498 508 420 L561 420 L561 673 L515 673 L486 612 C403 672 361 687 279 687 C138 687 47 612 47 496 C47 438 68 393 109 364 C145 338 169 330 271 307 L353 289 C410 276 447 264 466 250 C493 230 507 202 507 168 C507 93 443 43 347 43 C278 43 215 69 169 118 C131 158 116 194 100 277 L45 277 L45 0 Z M276 -266 C339 -252 382 -198 382 -135 C382 -88 354 -56 312 -56 C282 -56 260 -77 260 -108 C260 -132 280 -152 305 -152 C315 -152 323 -149 338 -141 C340 -186 316 -223 276 -234 L276 -266 Z " />
<glyph glyph-name="scommaaccent" unicode="&#x219;" horiz-adv-x="497" d="M40 -4 L91 -4 L111 46 C169 -1 208 -16 274 -16 C388 -16 461 42 461 134 C461 206 406 256 306 275 L212 292 C158 302 129 327 129 364 C129 406 166 433 225 433 C271 433 311 418 340 390 C364 367 375 344 387 293 L437 293 L437 475 L392 475 L373 433 C316 471 275 485 216 485 C116 485 46 428 46 346 C46 275 104 221 202 202 L292 185 C351 173 379 151 379 114 C379 68 336 38 270 38 C225 38 181 55 148 85 C118 112 105 136 92 192 L40 192 L40 -4 Z M205 -266 C268 -252 311 -198 311 -135 C311 -88 283 -56 241 -56 C211 -56 189 -77 189 -108 C189 -132 209 -152 234 -152 C244 -152 251 -149 267 -141 C269 -186 244 -223 205 -234 L205 -266 Z " />
<glyph glyph-name="uni021A" unicode="&#x21a;" horiz-adv-x="665" d="M27 405 L78 405 C84 570 120 612 253 614 L284 614 L284 126 C285 63 278 55 214 53 L152 53 L152 0 L514 0 L514 53 L451 53 C387 55 380 63 381 126 L381 614 L412 614 C546 612 581 570 587 405 L638 405 L638 667 L27 667 L27 405 Z M289 -266 C352 -252 395 -198 395 -135 C395 -88 367 -56 325 -56 C295 -56 273 -77 273 -108 C273 -132 293 -152 318 -152 C328 -152 335 -149 351 -141 C353 -186 328 -223 289 -234 L289 -266 Z " />
<glyph glyph-name="uni021B" unicode="&#x21b;" horiz-adv-x="402" d="M99 420 L99 95 C99 26 144 -17 217 -17 C271 -17 314 8 331 50 C343 80 347 106 350 192 L305 192 C304 135 300 103 292 80 C284 56 261 41 233 41 C199 41 184 58 184 95 L184 420 L327 420 L327 469 L184 469 L184 655 L137 655 C126 527 93 476 15 469 L15 420 L99 420 Z M158 -266 C220 -252 264 -198 264 -135 C264 -88 235 -56 194 -56 C163 -56 141 -77 141 -108 C141 -132 161 -152 186 -152 C196 -152 204 -149 220 -141 C222 -186 197 -223 158 -234 L158 -266 Z " />
<glyph glyph-name="uni0226" unicode="&#x226;" horiz-adv-x="700" d="M-20 0 L268 0 L268 53 L218 53 C167 53 154 58 154 79 C154 89 159 106 168 130 L205 223 L459 223 L501 110 C506 96 509 84 509 79 C509 59 495 53 450 53 L397 53 L397 0 L713 0 L713 53 L685 53 C637 54 619 67 602 114 L390 667 L307 667 L92 111 C73 64 59 54 12 53 L-20 53 L-20 0 Z M225 276 L329 561 L437 276 L225 276 Z M350 824 C321 824 296 799 296 771 C296 740 319 717 350 717 C379 717 403 741 403 770 C403 799 379 824 350 824 L350 824 Z " />
<glyph glyph-name="uni0227" unicode="&#x227;" horiz-adv-x="551" d="M505 159 C502 60 493 37 460 37 C438 37 430 53 430 95 L430 327 C430 397 419 426 382 451 C347 474 299 486 246 486 C139 486 56 431 56 361 C56 326 82 300 116 300 C148 300 171 321 171 349 C171 376 157 391 124 399 C163 431 191 441 233 441 C304 441 350 407 350 354 C350 309 331 290 270 273 L192 251 C132 234 106 224 79 205 C47 182 30 149 30 110 C30 33 89 -18 177 -18 C242 -18 288 3 351 61 C368 5 395 -18 445 -18 C524 -18 550 26 551 159 L505 159 Z M346 199 C346 137 333 103 299 74 C275 54 237 41 202 41 C154 41 124 69 124 112 C124 156 150 181 217 203 L256 216 C285 225 296 230 346 253 L346 199 Z M263 677 C232 677 205 650 205 620 C205 587 230 562 263 562 C295 562 320 587 320 618 C320 650 293 677 263 677 L263 677 Z " />
<glyph glyph-name="uni0237" unicode="&#x237;" horiz-adv-x="318" d="M37 421 L69 421 C128 419 131 417 130 360 L130 -68 C130 -108 126 -128 114 -143 C102 -158 79 -167 54 -167 C31 -167 20 -163 -2 -148 C30 -140 43 -127 43 -101 C43 -71 20 -50 -11 -50 C-46 -50 -70 -76 -70 -113 C-70 -172 -15 -214 63 -214 C115 -214 156 -197 183 -164 C207 -135 215 -106 215 -45 L215 469 L37 469 L37 421 Z " />
<glyph glyph-name="afii57929" unicode="&#x2bc;" horiz-adv-x="228" d="M35 445 C87 455 111 466 136 494 C161 521 175 558 175 597 C175 651 144 687 98 687 C63 687 40 664 40 630 C40 601 60 580 90 580 C103 580 112 583 128 594 L128 578 C128 556 122 538 108 519 C91 497 74 487 35 480 L35 445 Z " />
<glyph glyph-name="circumflex" unicode="&#x2c6;" horiz-adv-x="500" d="M107 540 L142 540 L250 635 L357 540 L393 540 L282 709 L217 709 L107 540 Z " />
<glyph glyph-name="caron" unicode="&#x2c7;" horiz-adv-x="500" d="M107 709 L217 540 L282 540 L393 709 L357 709 L250 614 L142 709 L107 709 Z " />
<glyph glyph-name="uni02C9" unicode="&#x2c9;" horiz-adv-x="500" d="M119 585 L381 585 L381 653 L119 653 L119 585 Z " />
<glyph glyph-name="breve" unicode="&#x2d8;" horiz-adv-x="500" d="M104 692 C114 641 124 619 145 597 C171 571 207 557 249 557 C292 557 329 571 354 597 C375 618 385 641 395 692 L363 692 C348 644 320 628 249 628 C180 628 152 643 135 692 L104 692 Z " />
<glyph glyph-name="dotaccent" unicode="&#x2d9;" horiz-adv-x="500" d="M251 677 C220 677 193 650 193 620 C193 587 218 562 251 562 C283 562 308 587 308 618 C308 650 281 677 251 677 L251 677 Z " />
<glyph glyph-name="ring" unicode="&#x2da;" horiz-adv-x="500" d="M224 735 C172 735 128 693 128 642 C128 587 171 543 225 543 C277 543 320 587 320 640 C320 693 277 735 224 735 L224 735 Z M224 690 C252 690 275 667 275 639 C275 612 252 588 224 588 C195 588 173 611 173 641 C173 668 196 690 224 690 L224 690 Z " />
<glyph glyph-name="ogonek" unicode="&#x2db;" horiz-adv-x="500" d="M285 17 C202 -33 157 -90 157 -142 C157 -187 188 -217 237 -217 C282 -217 317 -194 341 -148 L314 -127 C294 -150 286 -155 267 -155 C241 -155 223 -138 223 -114 C223 -92 235 -66 257 -43 C267 -32 278 -23 308 0 L285 17 Z " />
<glyph glyph-name="tilde" unicode="&#x2dc;" horiz-adv-x="500" d="M367 676 C355 652 345 644 327 644 C318 644 308 646 296 652 L247 674 C229 682 214 686 202 686 C173 686 142 665 125 635 C117 622 113 612 105 588 L133 588 C146 613 157 621 174 621 C185 621 193 618 212 610 L261 589 C273 583 287 580 299 580 C342 580 382 621 395 676 L367 676 Z " />
<glyph glyph-name="hungarumlaut" unicode="&#x2dd;" horiz-adv-x="500" d="M155 540 L184 540 L274 634 C294 655 301 667 301 680 C301 699 284 715 265 715 C247 715 232 701 219 673 L155 540 Z M274 540 L303 540 L410 631 C433 651 441 664 441 680 C441 699 426 714 406 714 C389 714 372 702 358 678 L274 540 Z " />
<glyph glyph-name="pi" unicode="&#x3c0;" horiz-adv-x="644" d="M347 48 L347 0 L621 0 L621 48 L593 48 C538 50 528 59 529 105 L529 364 C529 411 538 419 593 421 L621 421 L621 469 L23 469 L23 421 L51 421 C106 419 115 411 115 364 L115 105 C116 59 106 50 51 48 L23 48 L23 0 L297 0 L297 48 L265 48 C209 50 200 58 200 105 L200 364 C199 411 209 419 265 421 L379 421 C435 419 445 411 444 364 L444 105 C444 58 435 50 379 48 L347 48 Z " />
<glyph glyph-name="uni1E1E" unicode="&#x1e1e;" horiz-adv-x="680" d="M30 0 L358 0 L358 53 L309 53 C244 55 237 63 238 126 L238 323 L290 323 C383 320 393 306 398 178 L448 178 L448 505 L398 505 C397 392 382 374 291 376 L238 376 L238 614 L397 614 C554 613 588 576 589 401 L640 401 L640 667 L30 667 L30 614 L71 614 C135 612 142 604 141 541 L141 126 C142 63 135 55 71 53 L30 53 L30 0 Z M354 824 C325 824 300 799 300 771 C300 740 323 717 354 717 C383 717 407 741 407 770 C407 799 383 824 354 824 L354 824 Z " />
<glyph glyph-name="Wgrave" unicode="&#x1e80;" horiz-adv-x="958" d="M255 0 L332 0 L479 437 L615 0 L693 0 L853 531 C876 603 884 611 927 614 L954 614 L954 667 L702 667 L702 614 L749 614 C786 614 798 607 798 584 C798 571 794 549 787 527 L668 124 L537 555 C534 565 532 577 532 586 C532 609 542 614 586 614 L631 614 L631 667 L340 667 L340 614 L373 614 C418 613 429 606 441 571 L450 537 L312 124 L194 551 C191 562 189 574 189 584 C189 606 203 614 241 614 L281 614 L281 667 L0 667 L0 614 L30 614 C75 613 84 602 108 513 L255 0 Z M497 719 L531 719 L396 840 C383 852 367 859 356 859 C337 859 321 843 321 823 C321 806 331 793 354 783 L497 719 Z " />
<glyph glyph-name="wgrave" unicode="&#x1e81;" horiz-adv-x="293" d="M35 201 L293 201 L293 275 L35 275 L35 201 Z " />
<glyph glyph-name="Wacute" unicode="&#x1e82;" horiz-adv-x="326" d="M34 201 L292 201 L292 275 L34 275 L34 201 Z " />
<glyph glyph-name="wacute" unicode="&#x1e83;" horiz-adv-x="819" d="M236 -5 L293 -5 L407 285 L522 -5 L578 -5 L724 363 C741 408 755 420 791 421 L804 421 L804 469 L597 469 L597 421 L627 421 C662 421 673 416 673 401 C673 390 670 376 664 363 L561 107 L459 372 C456 382 453 393 453 398 C453 417 461 421 501 421 L530 421 L530 469 L296 469 L296 421 L318 421 C352 418 362 411 373 380 L379 362 L277 107 L174 372 C169 384 167 392 167 397 C167 414 178 421 204 421 L237 421 L237 469 L10 469 L10 421 L28 421 C63 419 71 412 88 370 L236 -5 Z M362 540 L398 540 L544 629 C573 647 584 660 584 677 C584 698 567 715 547 715 C532 715 512 704 496 686 L362 540 Z " />
<glyph glyph-name="Wdieresis" unicode="&#x1e84;" horiz-adv-x="958" d="M255 0 L332 0 L479 437 L615 0 L693 0 L853 531 C876 603 884 611 927 614 L954 614 L954 667 L702 667 L702 614 L749 614 C786 614 798 607 798 584 C798 571 794 549 787 527 L668 124 L537 555 C534 565 532 577 532 586 C532 609 542 614 586 614 L631 614 L631 667 L340 667 L340 614 L373 614 C418 613 429 606 441 571 L450 537 L312 124 L194 551 C191 562 189 574 189 584 C189 606 203 614 241 614 L281 614 L281 667 L0 667 L0 614 L30 614 C75 613 84 602 108 513 L255 0 Z M390 821 C363 821 339 798 339 771 C339 742 361 720 390 720 C419 720 441 742 441 770 C441 797 418 821 390 821 L390 821 Z M569 821 C542 821 518 798 518 771 C518 742 540 720 569 720 C598 720 620 742 620 770 C620 797 597 821 569 821 L569 821 Z " />
<glyph glyph-name="wdieresis" unicode="&#x1e85;" horiz-adv-x="819" d="M236 -5 L293 -5 L407 285 L522 -5 L578 -5 L724 363 C741 408 755 420 791 421 L804 421 L804 469 L597 469 L597 421 L627 421 C662 421 673 416 673 401 C673 390 670 376 664 363 L561 107 L459 372 C456 382 453 393 453 398 C453 417 461 421 501 421 L530 421 L530 469 L296 469 L296 421 L318 421 C352 418 362 411 373 380 L379 362 L277 107 L174 372 C169 384 167 392 167 397 C167 414 178 421 204 421 L237 421 L237 469 L10 469 L10 421 L28 421 C63 419 71 412 88 370 L236 -5 Z M315 674 C286 674 260 649 260 620 C260 588 284 565 315 565 C346 565 369 588 369 619 C369 649 344 674 315 674 L315 674 Z M502 674 C473 674 447 648 447 620 C447 589 471 565 503 565 C533 565 556 589 556 619 C556 649 531 674 502 674 L502 674 Z " />
<glyph glyph-name="Ygrave" unicode="&#x1ef2;" horiz-adv-x="636" d="M266 263 L266 126 C267 63 260 55 196 53 L133 53 L133 0 L495 0 L495 53 L433 53 C369 55 362 63 363 126 L363 263 L528 532 C570 597 592 614 633 614 L656 614 L656 667 L386 667 L386 614 L453 614 C474 614 487 607 487 597 C487 588 483 575 476 564 L331 331 L196 555 C187 569 182 584 182 593 C182 607 194 614 217 614 L281 614 L281 667 L-25 667 L-25 614 L4 614 C38 612 64 593 90 550 L266 263 Z M341 719 L376 719 L240 840 C227 852 212 859 200 859 C181 859 165 843 165 823 C165 805 175 794 198 783 L341 719 Z " />
<glyph glyph-name="ygrave" unicode="&#x1ef3;" horiz-adv-x="566" d="M255 -3 C226 -67 214 -89 197 -115 C174 -147 147 -164 116 -164 C90 -164 77 -157 58 -132 C100 -129 116 -116 116 -83 C116 -53 93 -30 63 -30 C24 -30 -5 -61 -5 -104 C-5 -134 7 -162 31 -184 C54 -206 76 -214 113 -214 C158 -214 195 -198 226 -165 C255 -134 274 -97 333 38 L472 359 C495 411 503 419 539 421 L569 421 L569 469 L331 469 L331 421 L371 421 C407 421 420 415 420 399 C420 391 418 381 414 372 L300 103 L187 367 C181 380 178 393 178 401 C178 416 187 421 212 421 L255 421 L255 469 L2 469 L2 421 L28 421 C66 419 75 412 93 374 L255 -3 Z M331 540 L197 686 C181 704 161 715 146 715 C126 715 109 698 109 677 C109 660 119 647 149 629 L295 540 L331 540 Z " />
<glyph glyph-name="uni2011" unicode="&#x2011;" horiz-adv-x="258" d="M0 201 L258 201 L258 275 L0 275 L0 201 Z " />
<glyph glyph-name="figuredash" unicode="&#x2012;" horiz-adv-x="548" d="M34 209 L514 209 L514 266 L34 266 L34 209 Z " />
<glyph glyph-name="endash" unicode="&#x2013;" horiz-adv-x="548" d="M34 209 L514 209 L514 266 L34 266 L34 209 Z " />
<glyph glyph-name="emdash" unicode="&#x2014;" horiz-adv-x="695" d="M0 209 L695 209 L695 266 L0 266 L0 209 Z " />
<glyph glyph-name="afii00208" unicode="&#x2015;" horiz-adv-x="695" d="M0 209 L695 209 L695 266 L0 266 L0 209 Z " />
<glyph glyph-name="underscoredbl" unicode="&#x2017;" horiz-adv-x="500" d="M0 -58 L0 -105 L500 -105 L500 -58 L0 -58 Z M0 -174 L0 -222 L500 -222 L500 -174 L0 -174 Z " />
<glyph glyph-name="quoteleft" unicode="&#x2018;" horiz-adv-x="228" d="M195 687 C145 684 122 673 94 643 C69 616 55 578 55 540 C55 486 86 450 133 450 C167 450 190 472 190 506 C190 536 170 556 140 556 C127 556 118 553 102 542 L102 558 C102 581 108 599 122 617 C139 640 157 650 195 657 L195 687 Z " />
<glyph glyph-name="quoteright" unicode="&#x2019;" horiz-adv-x="228" d="M35 445 C87 455 111 466 136 494 C161 521 175 558 175 597 C175 651 144 687 98 687 C63 687 40 664 40 630 C40 601 60 580 90 580 C103 580 112 583 128 594 L128 578 C128 556 122 538 108 519 C91 497 74 487 35 480 L35 445 Z " />
<glyph glyph-name="quotesinglbase" unicode="&#x201a;" horiz-adv-x="228" d="M35 -146 C87 -136 111 -125 136 -98 C161 -71 175 -33 175 5 C175 59 144 95 98 95 C63 95 40 73 40 39 C40 9 60 -11 90 -11 C103 -11 112 -8 128 3 L128 -13 C128 -36 122 -53 108 -72 C91 -95 74 -104 35 -111 L35 -146 Z " />
<glyph glyph-name="quotereversed" unicode="&#x201b;" horiz-adv-x="566" d="M255 -3 C226 -67 214 -89 197 -115 C174 -147 147 -164 116 -164 C90 -164 77 -157 58 -132 C100 -129 116 -116 116 -83 C116 -53 93 -30 63 -30 C24 -30 -5 -61 -5 -104 C-5 -134 7 -162 31 -184 C54 -206 76 -214 113 -214 C158 -214 195 -198 226 -165 C255 -134 274 -97 333 38 L472 359 C495 411 503 419 539 421 L569 421 L569 469 L331 469 L331 421 L371 421 C407 421 420 415 420 399 C420 391 418 381 414 372 L300 103 L187 367 C181 380 178 393 178 401 C178 416 187 421 212 421 L255 421 L255 469 L2 469 L2 421 L28 421 C66 419 75 412 93 374 L255 -3 Z M331 540 L197 686 C181 704 161 715 146 715 C126 715 109 698 109 677 C109 660 119 647 149 629 L295 540 L331 540 Z " />
<glyph glyph-name="quotedblleft" unicode="&#x201c;" horiz-adv-x="437" d="M402 687 C349 676 325 665 301 638 C276 611 262 573 262 535 C262 482 294 445 339 445 C374 445 397 467 397 501 C397 531 377 551 347 551 C334 551 325 548 309 537 L309 553 C309 576 315 594 329 612 C346 635 364 645 402 652 L402 687 Z M195 687 C143 677 119 665 94 638 C69 611 55 573 55 535 C55 481 87 445 133 445 C167 445 190 467 190 501 C190 531 170 551 140 551 C127 551 118 548 102 537 L102 553 C102 576 108 594 122 612 C139 635 157 645 195 652 L195 687 Z " />
<glyph glyph-name="quotedblright" unicode="&#x201d;" horiz-adv-x="437" d="M35 445 C87 455 111 466 136 494 C161 521 175 558 175 597 C175 651 144 687 98 687 C63 687 40 664 40 630 C40 601 60 580 90 580 C103 580 112 583 128 594 L128 578 C128 556 122 538 108 519 C91 497 74 487 35 480 L35 445 Z M242 445 C294 455 318 466 343 494 C368 521 382 558 382 597 C382 651 351 687 305 687 C270 687 247 664 247 631 C247 601 267 580 297 580 C310 580 319 583 335 594 L335 579 C335 555 329 538 315 519 C298 497 280 487 242 480 L242 445 Z " />
<glyph glyph-name="quotedblbase" unicode="&#x201e;" horiz-adv-x="437" d="M35 -146 C88 -136 112 -125 136 -98 C161 -71 175 -33 175 6 C175 59 144 95 98 95 C63 95 40 73 40 39 C40 9 60 -11 90 -11 C103 -11 112 -8 128 3 L128 -13 C128 -35 122 -53 108 -72 C91 -95 74 -104 35 -111 L35 -146 Z M242 -146 C295 -136 319 -125 343 -98 C368 -71 382 -33 382 6 C382 59 351 95 305 95 C270 95 247 73 247 39 C247 9 267 -11 297 -11 C310 -11 319 -8 335 3 L335 -12 C335 -36 329 -53 315 -72 C298 -95 280 -104 242 -111 L242 -146 Z " />
<glyph glyph-name="dagger" unicode="&#x2020;" horiz-adv-x="591" d="M272 366 C272 185 265 22 254 -60 C247 -112 245 -134 245 -145 C245 -189 263 -214 293 -214 C324 -214 342 -189 342 -147 C342 -134 340 -114 334 -60 C322 38 317 152 316 366 C354 365 371 363 398 358 C467 344 467 344 486 344 C516 344 533 359 533 384 C533 409 516 424 486 424 C475 424 458 422 444 419 C368 403 367 403 316 401 C318 468 321 504 326 532 C340 609 340 610 340 628 C340 665 323 687 294 687 C265 687 248 665 248 628 C248 617 250 599 253 583 C267 501 268 495 272 401 C234 402 218 404 190 410 C121 424 121 424 102 424 C72 424 55 409 55 384 C55 359 72 344 102 344 C113 344 130 346 144 349 C219 364 220 364 272 366 L272 366 Z " />
<glyph glyph-name="daggerdbl" unicode="&#x2021;" horiz-adv-x="591" d="M316 110 C316 159 324 193 345 236 C324 279 316 314 316 362 L316 390 C354 390 371 388 398 382 C466 368 467 368 486 368 C516 368 533 383 533 408 C533 433 516 448 486 448 C475 448 458 446 444 443 C369 428 368 428 316 426 C318 475 319 493 326 532 C340 609 340 610 340 628 C340 665 323 687 294 687 C265 687 248 665 248 628 C248 617 250 599 253 583 C269 490 269 487 272 426 C234 427 217 429 190 434 C121 448 121 448 102 448 C72 448 55 433 55 408 C55 383 72 368 102 368 C113 368 130 370 144 373 C219 389 220 389 272 390 C273 378 273 369 273 362 C273 313 265 279 243 236 C265 193 273 159 273 110 C273 103 273 94 272 82 C234 83 216 85 190 90 C121 104 121 104 102 104 C72 104 55 89 55 64 C55 39 72 24 102 24 C113 24 131 26 144 29 C220 45 221 45 272 46 C270 -3 268 -19 262 -60 C248 -136 248 -138 248 -155 C248 -192 265 -214 294 -214 C322 -214 340 -192 340 -155 C340 -144 338 -126 335 -110 C319 -19 318 -16 316 46 C354 46 370 44 398 38 C466 24 467 24 486 24 C516 24 533 39 533 64 C533 89 516 104 486 104 C475 104 458 102 444 99 C370 84 369 83 316 82 L316 110 Z " />
<glyph glyph-name="bullet" unicode="&#x2022;" horiz-adv-x="667" d="M335 479 C257 479 196 418 196 339 C196 262 258 200 334 200 C410 200 471 262 471 340 C471 416 410 479 335 479 L335 479 Z " />
<glyph glyph-name="ellipsis" unicode="&#x2026;" horiz-adv-x="678" d="M114 96 C83 96 57 71 57 41 C57 8 82 -17 114 -17 C145 -17 170 9 170 40 C170 70 145 96 114 96 L114 96 Z M340 96 C309 96 283 71 283 41 C283 8 308 -17 340 -17 C371 -17 396 9 396 40 C396 70 371 96 340 96 L340 96 Z M566 96 C535 96 509 71 509 41 C509 8 534 -17 566 -17 C597 -17 622 9 622 40 C622 70 597 96 566 96 L566 96 Z " />
<glyph glyph-name="perthousand" unicode="&#x2030;" horiz-adv-x="784" d="M137 650 C67 650 17 597 17 524 C17 447 66 394 138 394 C207 394 257 447 257 522 C257 597 208 650 137 650 L137 650 Z M137 623 C180 623 206 585 206 522 C206 459 180 421 137 421 C94 421 68 459 68 523 C68 585 94 623 137 623 L137 623 Z M27 0 L75 0 L484 658 L435 658 L27 0 Z M374 249 C304 249 254 196 254 123 C254 46 303 -7 375 -7 C444 -7 494 46 494 121 C494 196 445 249 374 249 L374 249 Z M374 222 C417 222 443 184 443 121 C443 58 417 20 374 20 C331 20 305 58 305 122 C305 184 331 222 374 222 L374 222 Z M647 249 C577 249 527 196 527 123 C527 46 576 -7 648 -7 C717 -7 767 46 767 121 C767 196 718 249 647 249 L647 249 Z M647 222 C690 222 716 184 716 121 C716 58 690 20 647 20 C604 20 578 58 578 122 C578 184 604 222 647 222 L647 222 Z " />
<glyph glyph-name="guilsinglleft" unicode="&#x2039;" horiz-adv-x="288" d="M167 72 L218 72 L164 182 C153 206 147 224 147 238 C147 251 153 270 164 293 L218 403 L167 403 L119 333 C74 270 70 263 70 237 C70 212 74 205 119 142 L167 72 Z " />
<glyph glyph-name="guilsinglright" unicode="&#x203a;" horiz-adv-x="288" d="M121 72 L170 142 C215 205 218 212 218 237 C218 263 214 270 170 333 L121 403 L70 403 L124 293 C135 270 141 251 141 238 C141 224 135 205 124 182 L70 72 L121 72 Z " />
<glyph glyph-name="uni203E" unicode="&#x203e;" horiz-adv-x="500" d="M0 806 L0 741 L500 741 L500 806 L0 806 Z " />
<glyph glyph-name="fraction" unicode="&#x2044;" horiz-adv-x="37" d="M-213 0 L-158 0 L250 605 L195 605 L-213 0 Z " />
<glyph glyph-name="franc" unicode="&#x20a3;" horiz-adv-x="924" d="M58 0 L355 0 L355 48 L311 48 C253 50 246 57 247 114 L247 293 L294 293 C377 290 387 277 391 161 L437 161 L437 458 L391 458 C391 355 377 339 295 341 L247 341 L247 557 L390 557 C533 557 564 532 564 417 L611 417 L611 605 L58 605 L58 557 L95 557 C153 555 160 548 159 491 L159 114 C160 57 153 50 95 48 L58 48 L58 0 Z M780 48 L731 48 C676 49 667 58 667 105 L667 117 C667 173 674 215 691 252 C715 307 747 337 782 337 C804 337 819 328 829 308 C794 308 774 291 774 259 C774 230 798 208 830 208 C864 208 891 238 891 276 C891 339 851 384 793 384 C739 384 700 353 667 285 L667 369 L490 369 L490 321 L518 321 C573 319 582 310 582 264 L582 105 C582 58 573 49 518 48 L490 48 L490 0 L780 0 L780 48 Z " />
<glyph glyph-name="lira" unicode="&#x20a4;" horiz-adv-x="611" d="M159 209 C145 141 117 99 45 42 L72 -14 C120 33 152 49 199 49 C228 49 248 44 301 22 L361 -3 C388 -15 405 -19 423 -19 C459 -19 490 -7 511 15 C546 54 559 100 560 192 L517 192 C512 99 492 64 444 64 C419 64 392 71 363 84 L317 106 C296 116 273 121 251 121 C223 121 204 115 170 93 L167 99 C219 148 236 172 247 209 L384 209 L384 253 L255 253 L255 266 C255 276 254 283 253 296 L384 296 L384 340 L240 340 C233 352 233 353 220 373 C195 411 185 437 185 461 C185 524 249 574 330 574 C363 574 398 566 424 553 C442 544 450 536 464 515 C435 492 429 482 429 458 C429 425 451 404 484 404 C521 404 548 433 548 475 C548 507 532 536 501 563 C456 602 395 622 318 622 C253 622 202 608 159 578 C115 548 87 500 87 455 C87 422 93 404 125 340 L48 340 L48 296 L148 296 C156 279 160 267 161 253 L48 253 L48 209 L159 209 Z " />
<glyph glyph-name="peseta" unicode="&#x20a7;" horiz-adv-x="1209" d="M324 48 L280 48 C222 50 215 57 216 114 L216 274 L275 274 C381 274 427 281 470 305 C516 330 543 380 543 440 C543 500 517 548 471 573 C426 597 375 605 268 605 L27 605 L27 557 L64 557 C122 555 129 548 128 491 L128 114 C129 57 122 50 64 48 L27 48 L27 0 L324 0 L324 48 Z M216 322 L216 557 L270 557 C323 557 356 553 381 545 C428 529 451 495 451 443 C451 360 396 322 275 322 L216 322 Z M604 274 L604 74 C604 22 640 -10 697 -10 C748 -10 782 14 793 58 C798 77 799 88 802 146 L759 146 C758 61 748 39 709 39 C685 39 676 49 676 74 L676 274 L784 274 L784 316 L676 316 L676 447 L633 447 C624 353 601 320 540 316 L540 274 L604 274 Z M844 0 L889 0 L904 33 C945 2 976 -9 1025 -9 C1114 -9 1170 34 1170 102 C1170 155 1127 192 1049 205 L979 217 C941 224 920 240 920 264 C920 292 946 309 988 309 C1028 309 1061 295 1083 268 C1094 254 1098 245 1107 210 L1152 210 L1152 347 L1112 347 L1098 319 C1058 344 1026 354 981 354 C903 354 849 312 849 251 C849 199 894 160 970 146 L1037 134 C1080 126 1100 111 1100 87 C1100 57 1069 37 1022 37 C983 37 945 54 920 82 C905 98 901 106 890 147 L844 147 L844 0 Z " />
<glyph glyph-name="Euro" unicode="&#x20ac;" horiz-adv-x="613" d="M-2 379 L-33 326 L40 326 C39 317 39 309 39 300 C39 287 39 278 41 265 L-2 265 L-33 212 L49 212 C57 179 69 150 86 121 C144 26 231 -19 354 -19 C436 -19 484 -6 554 36 L554 109 C485 55 435 36 361 36 C251 36 178 97 151 212 L340 212 L371 265 L142 265 C140 276 140 285 140 299 C140 310 140 317 141 326 L408 326 L439 379 L149 379 C175 498 250 569 350 569 C405 569 461 547 494 512 C518 486 530 461 540 409 L586 409 L586 604 L544 604 L522 569 C446 611 408 622 346 622 C198 622 80 526 48 379 L-2 379 Z " />
<glyph glyph-name="uni2101" unicode="&#x2101;" horiz-adv-x="1012" d="M-9 267 L179 267 L179 305 L144 305 C114 305 107 307 107 317 C107 322 110 331 116 345 L138 398 L294 398 L319 334 C322 327 324 320 324 317 C324 308 316 305 291 305 L254 305 L254 267 L459 267 L459 305 L438 305 C409 305 399 312 389 339 L255 667 L198 667 L62 337 C50 311 43 306 15 305 L-9 305 L-9 267 Z M154 436 L215 592 L278 436 L154 436 Z M284 -17 L346 -17 L781 622 L719 622 L284 -17 Z M637 0 L674 0 L694 42 C750 -2 775 -12 831 -12 C926 -12 991 40 991 115 C991 183 951 216 841 237 L781 248 C722 259 698 277 698 309 C698 347 734 371 790 371 C840 371 882 352 904 320 C916 303 920 291 928 249 L968 249 L968 404 L934 404 L916 370 C862 405 840 412 789 412 C697 412 638 367 638 297 C638 262 652 234 679 216 C702 200 717 195 781 181 L833 171 C905 156 927 139 927 102 C927 60 888 32 830 32 C780 32 735 53 707 91 C692 110 687 124 677 170 L637 170 L637 0 Z " />
<glyph glyph-name="afii61248" unicode="&#x2105;" horiz-adv-x="303" d="M151 366 C120 366 94 341 94 311 C94 278 119 253 151 253 C182 253 207 279 207 310 C207 340 182 366 151 366 L151 366 Z " />
<glyph glyph-name="afii61289" unicode="&#x2113;" horiz-adv-x="500" d="M249 269 C306 329 340 370 364 411 C402 475 425 545 425 598 C425 647 400 679 362 679 C317 679 278 638 247 559 C215 481 189 383 165 258 C155 246 125 214 115 206 C100 193 95 186 95 179 C95 171 102 163 109 163 C115 163 127 172 158 201 C149 119 148 102 148 74 C148 19 173 -14 215 -14 C243 -14 266 1 291 34 C307 56 317 79 317 94 C317 104 312 109 304 109 C296 109 291 105 285 91 C268 54 251 36 234 36 C222 36 216 44 216 61 C216 95 221 126 246 256 L249 269 Z M260 334 C281 449 302 541 321 594 C330 620 347 638 362 638 C376 638 385 620 385 593 C385 516 339 420 260 334 L260 334 Z " />
</font>
</svg>
