<?xml version="1.0" encoding="UTF-8"?>
<svg xmlns="http://www.w3.org/2000/svg" xmlns:xlink="http://www.w3.org/1999/xlink" version="1.2" >
<font id="Futura DC D Light">
<font-face  font-family="Futura DC D" units-per-em="1000" ascent="533" descent="-467" font-style="normal" font-weight="300" font-stretch="normal" cap-height="531" x-height="525" underline-position="-77" underline-thickness="37" />
<missing-glyph  horiz-adv-x="300" d="" />
<glyph glyph-name="NULL" d="" />
<glyph glyph-name="CR" unicode="&#xd;" horiz-adv-x="250" d="" />
<glyph glyph-name="space" unicode="&#x20;" horiz-adv-x="300" d="" />
<glyph glyph-name="exclam" unicode="&#x21;" horiz-adv-x="267" d="M134 84 C110 84 90 65 90 41 C90 17 109 -3 134 -3 C158 -3 177 17 177 41 C177 65 158 84 134 84 L134 84 Z M108 147 L160 147 L160 667 L108 667 L108 147 Z " />
<glyph glyph-name="quotedbl" unicode="&#x22;" horiz-adv-x="289" d="M77 438 L108 438 L116 667 L70 667 L77 438 Z M181 438 L212 438 L219 667 L174 667 L181 438 Z " />
<glyph glyph-name="numbersign" unicode="&#x23;" horiz-adv-x="532" d="M485 396 L387 396 L409 571 L369 576 L346 396 L215 396 L236 571 L196 576 L174 396 L68 396 L68 358 L169 358 L153 227 L47 227 L47 189 L148 189 L125 3 L165 -2 L189 189 L322 189 L298 3 L338 -2 L362 189 L465 189 L465 227 L367 227 L383 358 L485 358 L485 396 Z M341 358 L326 227 L194 227 L210 358 L341 358 Z " />
<glyph glyph-name="dollar" unicode="&#x24;" horiz-adv-x="460" d="M261 657 L221 657 L221 578 C142 571 88 513 88 435 C88 386 108 354 156 323 C170 314 176 311 221 288 L221 34 C169 34 122 67 100 120 L92 136 L55 119 C83 40 141 -4 221 -7 L221 -91 L261 -91 L261 -4 C343 12 404 82 404 161 C404 206 386 241 349 268 C331 281 314 291 261 316 L261 535 C294 529 320 508 345 467 L377 494 C355 537 310 569 261 576 L261 657 Z M261 269 C333 236 360 207 360 161 C360 105 318 53 261 38 L261 269 Z M221 336 C151 371 132 391 132 434 C132 488 171 532 221 537 L221 336 Z " />
<glyph glyph-name="percent" unicode="&#x25;" horiz-adv-x="757" d="M195 578 C107 578 34 499 34 404 C34 307 105 228 194 228 C282 228 353 307 353 405 C353 501 282 578 195 578 L195 578 Z M193 541 C259 541 312 479 312 403 C312 328 258 265 194 265 C126 265 75 325 75 403 C75 479 128 541 193 541 L193 541 Z M193 0 L229 -20 L564 573 L529 592 L193 0 Z M565 345 C477 345 404 266 404 171 C404 74 475 -5 564 -5 C652 -5 723 74 723 172 C723 268 652 345 565 345 L565 345 Z M563 308 C629 308 682 246 682 170 C682 95 628 32 564 32 C496 32 445 92 445 170 C445 246 498 308 563 308 L563 308 Z " />
<glyph glyph-name="ampersand" unicode="&#x26;" horiz-adv-x="590" d="M308 386 C399 451 427 489 427 548 C427 618 373 673 305 673 C233 673 174 615 174 543 C174 507 187 478 238 399 C103 320 45 249 45 161 C45 66 123 -12 218 -12 C287 -12 357 22 454 102 L530 0 L593 0 L491 136 C523 167 540 186 583 242 L538 262 C513 230 488 201 463 176 L308 386 Z M426 143 C345 72 273 34 220 34 C150 34 95 92 95 165 C95 223 131 275 207 323 L255 353 C255 354 261 357 266 361 L426 143 Z M279 425 C269 442 266 447 252 467 C230 499 223 517 223 540 C223 587 259 626 301 626 C345 626 378 593 378 550 C378 504 364 486 279 425 L279 425 Z " />
<glyph glyph-name="quotesingle" unicode="&#x27;" horiz-adv-x="186" d="M77 438 L108 438 L116 667 L70 667 L77 438 Z " />
<glyph glyph-name="parenleft" unicode="&#x28;" horiz-adv-x="257" d="M155 708 C107 613 71 427 71 267 C71 106 106 -79 155 -174 L194 -147 C145 -8 121 129 121 267 C121 405 145 542 194 680 L155 708 Z " />
<glyph glyph-name="parenright" unicode="&#x29;" horiz-adv-x="257" d="M102 -174 C151 -79 186 106 186 267 C186 427 151 612 102 708 L63 680 C111 544 136 405 136 267 C136 129 111 -10 63 -147 L102 -174 Z " />
<glyph glyph-name="asterisk" unicode="&#x2a;" horiz-adv-x="445" d="M200 507 L49 560 L33 511 L187 465 L89 338 L131 308 L222 440 L313 308 L355 338 L258 465 L411 511 L395 560 L244 507 L248 667 L196 667 L200 507 Z " />
<glyph glyph-name="plus" unicode="&#x2b;" horiz-adv-x="547" d="M31 267 L253 267 L253 48 L293 48 L293 267 L515 267 L515 307 L293 307 L293 525 L253 525 L253 307 L31 307 L31 267 Z " />
<glyph glyph-name="comma" unicode="&#x2c;" horiz-adv-x="220" d="M106 83 L34 -160 L66 -172 L155 69 L106 83 Z " />
<glyph glyph-name="hyphen" unicode="&#x2d;" horiz-adv-x="202" d="M0 272 L0 224 L202 224 L202 272 L0 272 Z " />
<glyph glyph-name="period" unicode="&#x2e;" horiz-adv-x="220" d="M110 85 C86 85 66 65 66 42 C66 17 86 -3 110 -3 C134 -3 154 17 154 41 C154 65 134 85 110 85 L110 85 Z " />
<glyph glyph-name="slash" unicode="&#x2f;" horiz-adv-x="500" d="M462 686 L0 -134 L38 -153 L500 667 L462 686 Z " />
<glyph glyph-name="zero" unicode="0" horiz-adv-x="491" d="M249 581 C133 581 37 449 37 288 C37 124 130 -8 246 -8 C362 -8 455 125 455 290 C455 451 363 581 249 581 L249 581 Z M246 540 C338 540 412 427 412 285 C412 149 337 33 248 33 C153 33 81 142 81 286 C81 426 155 540 246 540 L246 540 Z " />
<glyph glyph-name="one" unicode="1" horiz-adv-x="251" d="M124 533 L124 0 L167 0 L167 574 L53 574 L33 533 L124 533 Z " />
<glyph glyph-name="two" unicode="2" horiz-adv-x="431" d="M119 41 L263 201 C366 313 387 348 387 413 C387 507 311 581 215 581 C139 581 67 532 48 468 C43 451 42 443 40 406 L85 406 C86 428 87 437 90 450 C103 503 153 540 212 540 C285 540 343 485 343 416 C343 367 320 325 247 245 L24 0 L384 0 L384 41 L119 41 Z " />
<glyph glyph-name="three" unicode="3" horiz-adv-x="428" d="M196 277 C216 276 223 276 235 273 C289 260 324 216 324 160 C324 91 267 33 198 33 C152 33 105 62 89 101 C84 114 83 119 80 146 L37 146 C39 115 41 104 49 85 C72 29 131 -8 198 -8 C294 -8 368 65 368 160 C368 223 334 276 279 300 C331 327 360 374 360 430 C360 515 293 581 207 581 C142 581 91 547 70 490 C64 472 62 461 59 432 L100 432 C104 458 104 461 108 472 C121 514 160 540 209 540 C270 540 316 494 316 431 C316 386 291 347 250 329 C233 322 223 319 196 317 L196 277 Z " />
<glyph glyph-name="four" unicode="4" horiz-adv-x="465" d="M354 149 L354 600 L3 108 L311 108 L311 0 L354 0 L354 108 L434 108 L434 149 L354 149 Z M311 149 L83 149 L311 468 L311 149 Z " />
<glyph glyph-name="five" unicode="5" horiz-adv-x="421" d="M378 533 L378 574 L157 574 L80 323 C120 345 138 351 171 351 C263 351 333 283 333 193 C333 103 262 33 171 33 C115 33 71 57 36 107 L-3 91 C34 28 97 -8 171 -8 C288 -8 377 80 377 194 C377 307 292 392 180 392 C166 392 158 391 143 388 L188 533 L378 533 Z " />
<glyph glyph-name="six" unicode="6" horiz-adv-x="485" d="M264 582 L74 313 C50 280 37 237 37 195 C37 81 127 -8 241 -8 C354 -8 445 83 445 194 C445 306 355 396 244 396 C219 396 203 393 177 384 L298 556 L264 582 Z M241 355 C331 355 402 283 402 192 C402 105 329 33 242 33 C153 33 81 105 81 194 C81 283 153 355 241 355 L241 355 Z " />
<glyph glyph-name="seven" unicode="7" horiz-adv-x="478" d="M396 533 L32 18 L65 -8 L476 574 L55 574 L55 533 L396 533 Z " />
<glyph glyph-name="eight" unicode="8" horiz-adv-x="435" d="M139 298 C79 267 50 219 50 154 C50 62 122 -8 217 -8 C311 -8 385 64 385 157 C385 220 354 270 296 298 C343 325 374 377 374 430 C374 515 307 581 219 581 C131 581 64 515 64 429 C64 373 91 327 139 298 L139 298 Z M218 540 C280 540 329 490 329 429 C329 367 280 317 219 317 C157 317 108 367 108 430 C108 490 158 540 218 540 L218 540 Z M216 278 C285 278 340 223 340 155 C340 88 285 33 217 33 C148 33 93 88 93 157 C93 223 149 278 216 278 L216 278 Z " />
<glyph glyph-name="nine" unicode="9" horiz-adv-x="485" d="M221 -8 L411 261 C434 294 447 337 447 378 C447 492 358 581 243 581 C130 581 39 491 39 380 C39 269 130 179 241 179 C265 179 282 182 307 190 L186 18 L221 -8 Z M243 540 C332 540 404 469 404 380 C404 292 332 220 243 220 C153 220 82 292 82 382 C82 468 155 540 243 540 L243 540 Z " />
<glyph glyph-name="colon" unicode="&#x3a;" horiz-adv-x="220" d="M110 85 C86 85 66 65 66 42 C66 17 86 -3 110 -3 C134 -3 154 17 154 41 C154 65 134 85 110 85 L110 85 Z M110 501 C86 501 66 481 66 458 C66 433 86 413 110 413 C134 413 154 433 154 457 C154 481 134 501 110 501 L110 501 Z " />
<glyph glyph-name="semicolon" unicode="&#x3b;" horiz-adv-x="220" d="M106 83 L34 -160 L66 -172 L155 69 L106 83 Z M114 500 C91 500 71 480 71 457 C71 433 90 413 114 413 C138 413 158 433 158 457 C158 481 139 500 114 500 L114 500 Z " />
<glyph glyph-name="less" unicode="&#x3c;" horiz-adv-x="500" d="M466 505 L33 309 L33 264 L466 69 L466 119 L87 287 L466 455 L466 505 Z " />
<glyph glyph-name="equal" unicode="&#x3d;" horiz-adv-x="547" d="M31 320 L515 320 L515 360 L31 360 L31 320 Z M31 213 L515 213 L515 253 L31 253 L31 213 Z " />
<glyph glyph-name="greater" unicode="&#x3e;" horiz-adv-x="500" d="M34 505 L34 455 L413 287 L34 119 L34 69 L467 264 L467 309 L34 505 Z " />
<glyph glyph-name="question" unicode="&#x3f;" horiz-adv-x="427" d="M292 311 C287 245 263 217 213 217 C166 217 137 248 137 298 C137 343 154 361 206 377 C279 398 281 398 301 410 C337 431 359 476 359 530 C359 617 300 678 216 678 C132 678 68 617 68 537 C68 522 69 510 74 489 L122 489 C118 506 117 515 117 529 C117 593 154 632 213 632 C271 632 310 592 310 531 C310 497 298 466 278 450 C265 438 250 432 196 417 C118 395 86 362 86 301 C86 228 141 172 213 172 C257 172 295 191 318 224 C332 246 339 270 340 311 L292 311 Z M215 85 C191 85 171 65 171 42 C171 17 191 -3 215 -3 C239 -3 259 17 259 41 C259 65 239 85 215 85 L215 85 Z " />
<glyph glyph-name="at" unicode="&#x40;" horiz-adv-x="745" d="M556 504 L513 504 L504 434 C465 492 428 513 369 513 C268 513 192 430 192 321 C192 225 258 156 349 156 C402 156 435 173 480 227 L480 217 C480 185 510 158 546 158 C633 158 705 260 705 382 C705 549 568 676 388 676 C192 676 40 527 40 334 C40 209 103 97 207 38 C261 7 327 -9 401 -9 C487 -9 554 7 635 47 L621 84 C540 44 481 30 400 30 C334 30 277 43 230 70 C137 123 81 222 81 334 C81 504 215 637 387 637 C549 637 666 528 666 378 C666 282 614 197 556 197 C537 197 525 210 525 229 C525 240 526 259 529 280 L556 504 Z M374 472 C445 472 496 422 496 352 C496 269 429 197 353 197 C285 197 236 250 236 324 C236 408 295 472 374 472 L374 472 Z " />
<glyph glyph-name="A" unicode="A" horiz-adv-x="683" d="M513 129 L619 -134 L677 -134 L344 690 L7 -134 L65 -134 L171 129 L513 129 Z M493 177 L191 177 L343 556 L493 177 Z " />
<glyph glyph-name="B" unicode="B" horiz-adv-x="594" d="M80 -134 L298 -134 C370 -134 422 -118 467 -81 C519 -40 548 21 548 88 C548 151 521 210 475 247 C449 268 427 278 381 291 C449 334 475 379 475 457 C475 517 456 568 421 606 C381 649 331 667 254 667 L80 667 L80 -134 Z M132 304 L132 619 L234 619 C300 619 336 610 367 585 C402 559 421 513 421 457 C421 403 405 367 368 338 C334 310 308 304 234 304 L132 304 Z M132 -86 L132 256 L257 256 C326 256 371 249 407 233 C461 210 495 153 495 88 C495 38 476 -6 440 -38 C398 -76 362 -86 266 -86 L132 -86 Z " />
<glyph glyph-name="C" unicode="C" horiz-adv-x="771" d="M728 574 C644 646 561 678 459 678 C233 678 43 490 43 265 C43 42 235 -147 461 -147 C558 -147 640 -116 728 -48 L728 23 C698 -9 683 -22 659 -37 C598 -75 521 -98 458 -98 C378 -98 292 -64 222 -6 C141 63 97 157 97 262 C97 460 263 629 457 629 C516 629 579 612 635 581 C672 560 691 544 728 503 L728 574 Z " />
<glyph glyph-name="D" unicode="D" horiz-adv-x="693" d="M80 -134 L238 -134 C363 -134 454 -99 531 -23 C607 53 649 155 649 267 C649 378 607 481 531 556 C455 632 363 667 238 667 L80 667 L80 -134 Z M132 -86 L132 619 L237 619 C340 619 422 589 487 527 C556 461 595 368 595 267 C595 165 556 72 487 6 C421 -56 340 -86 237 -86 L132 -86 Z " />
<glyph glyph-name="E" unicode="E" horiz-adv-x="514" d="M464 619 L464 667 L80 667 L80 -134 L464 -134 L464 -86 L132 -86 L132 281 L456 281 L456 329 L132 329 L132 619 L464 619 Z " />
<glyph glyph-name="F" unicode="F" horiz-adv-x="447" d="M404 619 L404 667 L80 667 L80 -134 L132 -134 L132 281 L396 281 L396 329 L132 329 L132 619 L404 619 Z " />
<glyph glyph-name="G" unicode="G" horiz-adv-x="885" d="M504 250 L504 202 L786 202 C782 133 772 94 749 55 C696 -35 573 -99 456 -99 C260 -99 96 65 96 261 C96 461 262 629 459 629 C542 629 627 597 689 544 C714 523 732 502 766 457 L807 490 C768 541 744 566 711 592 C641 647 552 678 461 678 C231 678 43 491 43 263 C43 38 231 -148 457 -148 C596 -148 734 -73 797 37 C831 95 841 147 841 250 L504 250 Z " />
<glyph glyph-name="H" unicode="H" horiz-adv-x="749" d="M132 327 L132 667 L80 667 L80 -134 L132 -134 L132 279 L617 279 L617 -134 L669 -134 L669 667 L617 667 L617 327 L132 327 Z " />
<glyph glyph-name="I" unicode="I" horiz-adv-x="212" d="M132 667 L80 667 L80 -134 L132 -134 L132 667 Z " />
<glyph glyph-name="J" unicode="J" horiz-adv-x="262" d="M182 667 L130 667 L130 -132 C130 -213 102 -253 46 -253 C4 -253 -31 -230 -54 -186 L-92 -215 C-63 -272 -17 -302 43 -302 C90 -302 132 -282 155 -248 C175 -219 182 -190 182 -132 L182 667 Z " />
<glyph glyph-name="K" unicode="K" horiz-adv-x="604" d="M132 295 L132 667 L80 667 L80 -134 L132 -134 L132 227 L152 247 L527 -134 L603 -134 L187 281 L579 667 L508 667 L132 295 Z " />
<glyph glyph-name="L" unicode="L" horiz-adv-x="368" d="M132 667 L80 667 L80 -134 L335 -134 L335 -86 L132 -86 L132 667 Z " />
<glyph glyph-name="M" unicode="M" horiz-adv-x="997" d="M60 -134 L112 -134 L182 510 L496 -163 L812 510 L884 -134 L937 -134 L846 695 L496 -46 L151 695 L60 -134 Z " />
<glyph glyph-name="N" unicode="N" horiz-adv-x="884" d="M80 -134 L132 -134 L132 550 L804 -154 L804 667 L752 667 L752 -29 L80 676 L80 -134 Z " />
<glyph glyph-name="O" unicode="O" horiz-adv-x="917" d="M458 678 C235 678 43 490 43 272 C43 166 80 68 150 -9 C228 -95 343 -147 455 -147 C685 -147 873 39 873 266 C873 491 685 678 458 678 L458 678 Z M458 629 C545 629 636 593 702 531 C779 460 819 369 819 266 C819 66 655 -98 455 -98 C370 -98 281 -62 214 0 C137 70 97 163 97 271 C97 464 263 629 458 629 L458 629 Z " />
<glyph glyph-name="P" unicode="P" horiz-adv-x="500" d="M132 246 L235 246 C308 246 367 265 406 301 C444 337 467 396 467 456 C467 514 447 567 410 606 C368 648 316 667 234 667 L80 667 L80 -134 L132 -134 L132 246 Z M132 294 L132 619 L229 619 C296 619 338 605 370 574 C397 546 413 504 413 456 C413 358 344 294 237 294 L132 294 Z " />
<glyph glyph-name="Q" unicode="Q" horiz-adv-x="924" d="M866 -134 L760 -22 C845 79 877 159 877 265 C877 492 690 678 462 678 C234 678 47 491 47 263 C47 38 233 -148 459 -148 C556 -148 638 -119 724 -53 L797 -134 L866 -134 Z M561 193 L489 193 L688 -15 C611 -74 544 -99 462 -99 C375 -99 286 -63 217 -1 C142 66 101 160 101 262 C101 464 264 629 463 629 C662 629 823 465 823 261 C823 167 797 102 723 15 L561 193 Z " />
<glyph glyph-name="R" unicode="R" horiz-adv-x="507" d="M215 244 C279 247 312 254 342 270 C407 305 444 371 444 455 C444 529 415 590 364 626 C321 656 275 667 194 667 L80 667 L80 -134 L132 -134 L132 244 L156 244 L413 -134 L477 -134 L215 244 Z M132 292 L132 619 L197 619 C251 619 290 611 320 595 C364 571 391 518 391 456 C391 352 325 292 209 292 L132 292 Z " />
<glyph glyph-name="S" unicode="S" horiz-adv-x="554" d="M477 564 C435 637 364 678 282 678 C163 678 76 594 76 478 C76 392 113 348 235 288 C354 229 358 227 384 212 C436 182 463 140 463 88 C463 -14 374 -98 267 -98 C209 -98 153 -72 119 -30 C103 -11 94 6 75 46 L30 25 C47 -16 59 -38 80 -62 C126 -117 193 -147 266 -147 C405 -147 517 -41 517 89 C517 153 488 206 432 242 C397 265 373 277 273 326 C162 378 130 413 130 477 C130 563 195 629 281 629 C349 629 392 603 438 532 L477 564 Z " />
<glyph glyph-name="T" unicode="T" horiz-adv-x="499" d="M275 619 L483 619 L483 667 L17 667 L17 619 L223 619 L223 -134 L275 -134 L275 619 Z " />
<glyph glyph-name="U" unicode="U" horiz-adv-x="691" d="M125 667 L73 667 L73 152 C73 46 81 8 115 -38 C163 -105 252 -147 346 -147 C439 -147 528 -105 576 -38 C610 8 618 46 618 152 L618 667 L566 667 L566 166 C566 67 560 30 537 -6 C503 -59 423 -98 346 -98 C268 -98 188 -60 154 -6 C131 30 125 67 125 166 L125 667 Z " />
<glyph glyph-name="V" unicode="V" horiz-adv-x="592" d="M65 667 L7 667 L299 -166 L585 667 L530 667 L299 -9 L65 667 Z " />
<glyph glyph-name="W" unicode="W" horiz-adv-x="1161" d="M66 667 L7 667 L276 -164 L574 563 L845 -164 L1154 667 L1095 667 L845 -10 L574 710 L284 -10 L66 667 Z " />
<glyph glyph-name="X" unicode="X" horiz-adv-x="553" d="M246 275 L27 -134 L85 -134 L276 221 L467 -134 L526 -134 L306 275 L515 667 L456 667 L276 330 L95 667 L36 667 L246 275 Z " />
<glyph glyph-name="Y" unicode="Y" horiz-adv-x="598" d="M269 208 L269 -134 L321 -134 L321 208 L592 667 L530 667 L296 265 L68 667 L7 667 L269 208 Z " />
<glyph glyph-name="Z" unicode="Z" horiz-adv-x="620" d="M101 -86 L589 667 L58 667 L58 619 L500 619 L11 -134 L575 -134 L575 -86 L101 -86 Z " />
<glyph glyph-name="bracketleft" unicode="&#x5b;" horiz-adv-x="257" d="M115 653 L243 653 L243 701 L63 701 L63 -168 L243 -168 L243 -121 L115 -121 L115 653 Z " />
<glyph glyph-name="backslash" unicode="&#x5c;" horiz-adv-x="500" d="M0 667 L461 -153 L500 -134 L38 686 L0 667 Z " />
<glyph glyph-name="bracketright" unicode="&#x5d;" horiz-adv-x="257" d="M141 653 L141 -121 L13 -121 L13 -168 L193 -168 L193 701 L13 701 L13 653 L141 653 Z " />
<glyph glyph-name="asciicircum" unicode="&#x5e;" horiz-adv-x="500" d="M88 383 L249 633 L411 383 L463 383 L279 668 L221 668 L38 383 L88 383 Z " />
<glyph glyph-name="underscore" unicode="&#x5f;" horiz-adv-x="500" d="M0 -77 L0 -114 L500 -114 L500 -77 L0 -77 Z " />
<glyph glyph-name="grave" unicode="&#x60;" horiz-adv-x="500" d="M121 741 L248 587 L283 607 L173 771 L121 741 Z " />
<glyph glyph-name="a" unicode="a" horiz-adv-x="482" d="M353 170 L424 0 L477 0 L243 560 L6 0 L59 0 L130 170 L353 170 Z M333 216 L150 216 L242 439 L333 216 Z " />
<glyph glyph-name="b" unicode="b" horiz-adv-x="441" d="M68 0 L224 0 C328 0 401 61 401 150 C401 216 353 272 285 285 C328 302 354 342 354 393 C354 431 340 466 315 492 C287 520 250 533 195 533 L68 533 L68 0 Z M116 298 L116 488 L182 488 C267 488 305 458 305 390 C305 357 295 336 271 318 C249 302 232 298 182 298 L116 298 Z M116 45 L116 253 L198 253 C243 253 273 249 297 239 C330 225 352 190 352 151 C352 121 340 94 317 74 C290 51 266 45 204 45 L116 45 Z " />
<glyph glyph-name="c" unicode="c" horiz-adv-x="547" d="M510 466 C453 513 390 537 322 537 C166 537 37 412 37 262 C37 113 168 -12 324 -12 C390 -12 447 9 510 56 L510 124 C455 64 390 33 321 33 C195 33 86 138 86 260 C86 386 194 492 321 492 C391 492 453 461 510 397 L510 466 Z " />
<glyph glyph-name="d" unicode="d" horiz-adv-x="504" d="M68 0 L186 0 C271 0 334 23 386 74 C438 124 467 192 467 267 C467 341 438 409 386 460 C333 510 271 533 186 533 L68 533 L68 0 Z M116 45 L116 488 L185 488 C322 488 418 396 418 266 C418 137 321 45 185 45 L116 45 Z " />
<glyph glyph-name="e" unicode="e" horiz-adv-x="389" d="M347 488 L347 533 L68 533 L68 0 L347 0 L347 45 L116 45 L116 268 L341 268 L341 314 L116 314 L116 488 L347 488 Z " />
<glyph glyph-name="f" unicode="f" horiz-adv-x="345" d="M308 488 L308 533 L68 533 L68 0 L116 0 L116 268 L303 268 L303 314 L116 314 L116 488 L308 488 Z " />
<glyph glyph-name="g" unicode="g" horiz-adv-x="621" d="M351 259 L351 214 L533 214 C531 177 524 152 510 130 C474 73 395 33 319 33 C192 33 85 136 85 259 C85 386 193 492 321 492 C375 492 433 471 471 438 C489 422 503 407 526 376 L565 406 C490 499 419 537 322 537 C165 537 36 413 36 260 C36 112 165 -12 319 -12 C414 -12 510 38 553 111 C577 151 584 184 583 259 L351 259 Z " />
<glyph glyph-name="h" unicode="h" horiz-adv-x="548" d="M116 313 L116 533 L68 533 L68 0 L116 0 L116 268 L432 268 L432 0 L480 0 L480 533 L432 533 L432 313 L116 313 Z " />
<glyph glyph-name="i" unicode="i" horiz-adv-x="184" d="M116 533 L68 533 L68 0 L116 0 L116 533 Z " />
<glyph glyph-name="j" unicode="j" horiz-adv-x="199" d="M132 533 L84 533 L84 9 C84 -40 66 -63 29 -63 C-2 -63 -23 -48 -42 -15 L-78 -42 C-54 -87 -21 -108 27 -108 C63 -108 94 -94 112 -70 C127 -50 132 -30 132 9 L132 533 Z " />
<glyph glyph-name="k" unicode="k" horiz-adv-x="447" d="M116 295 L116 533 L68 533 L68 0 L116 0 L116 238 L125 247 L377 0 L447 0 L163 279 L432 533 L365 533 L116 295 Z " />
<glyph glyph-name="l" unicode="l" horiz-adv-x="291" d="M116 533 L68 533 L68 0 L263 0 L263 45 L116 45 L116 533 Z " />
<glyph glyph-name="m" unicode="m" horiz-adv-x="702" d="M51 0 L99 0 L146 401 L349 -28 L553 402 L602 0 L651 0 L584 570 L349 77 L117 570 L51 0 Z " />
<glyph glyph-name="n" unicode="n" horiz-adv-x="635" d="M68 0 L116 0 L116 432 L567 -24 L567 533 L519 533 L519 93 L68 550 L68 0 Z " />
<glyph glyph-name="o" unicode="o" horiz-adv-x="641" d="M321 537 C168 537 37 412 37 267 C37 114 164 -12 319 -12 C476 -12 605 112 605 263 C605 413 477 537 321 537 L321 537 Z M321 492 C449 492 556 388 556 263 C556 136 449 33 319 33 C191 33 86 138 86 266 C86 388 194 492 321 492 L321 492 Z " />
<glyph glyph-name="p" unicode="p" horiz-adv-x="377" d="M116 246 L184 246 C286 246 349 301 349 390 C349 429 334 465 308 491 C278 520 240 533 183 533 L68 533 L68 0 L116 0 L116 246 Z M116 292 L116 488 L179 488 C259 488 300 455 300 390 C300 330 255 292 185 292 L116 292 Z " />
<glyph glyph-name="q" unicode="q" horiz-adv-x="647" d="M534 0 L599 0 L526 77 C585 141 608 194 608 264 C608 414 480 537 324 537 C168 537 40 413 40 261 C40 112 167 -12 321 -12 C384 -12 439 7 492 47 L534 0 Z M391 223 L324 223 L459 82 C414 48 372 33 322 33 C195 33 89 137 89 261 C89 388 196 492 325 492 C454 492 559 388 559 261 C559 203 541 162 492 112 L391 223 Z " />
<glyph glyph-name="r" unicode="r" horiz-adv-x="387" d="M184 246 C238 251 263 259 289 282 C318 308 334 344 334 388 C334 439 313 481 276 506 C247 526 214 533 157 533 L68 533 L68 0 L116 0 L116 245 L128 245 L303 0 L361 0 L184 246 Z M116 290 L116 488 L159 488 C244 488 285 456 285 389 C285 326 243 290 166 290 L116 290 Z " />
<glyph glyph-name="s" unicode="s" horiz-adv-x="404" d="M350 454 C318 508 268 537 206 537 C120 537 58 479 58 401 C58 358 77 324 114 301 C136 287 164 273 218 249 C303 211 324 190 324 148 C324 85 266 33 196 33 C159 33 122 49 100 75 C89 88 83 99 68 130 L26 110 C40 78 48 63 64 45 C96 9 144 -12 196 -12 C294 -12 373 60 373 148 C373 192 352 228 311 253 C286 269 272 276 201 308 C128 341 107 361 107 400 C107 452 149 492 205 492 C253 492 279 476 314 424 L350 454 Z " />
<glyph glyph-name="t" unicode="t" horiz-adv-x="360" d="M203 488 L346 488 L346 533 L14 533 L14 488 L155 488 L155 0 L203 0 L203 488 Z " />
<glyph glyph-name="u" unicode="u" horiz-adv-x="507" d="M110 533 L62 533 L62 189 C62 119 68 94 91 62 C126 15 185 -12 254 -12 C322 -12 381 15 415 61 C439 94 445 120 445 189 L445 533 L397 533 L397 198 C397 135 393 112 378 90 C356 56 306 33 254 33 C201 33 151 56 129 90 C114 112 110 135 110 198 L110 533 Z " />
<glyph glyph-name="v" unicode="v" horiz-adv-x="422" d="M59 533 L6 533 L213 -35 L416 533 L365 533 L213 107 L59 533 Z " />
<glyph glyph-name="w" unicode="w" horiz-adv-x="790" d="M59 533 L6 533 L193 -33 L390 443 L570 -33 L785 533 L731 533 L570 104 L391 574 L200 105 L59 533 Z " />
<glyph glyph-name="x" unicode="x" horiz-adv-x="409" d="M231 272 L379 533 L324 533 L204 318 L83 533 L29 533 L177 272 L23 0 L77 0 L204 227 L332 0 L386 0 L231 272 Z " />
<glyph glyph-name="y" unicode="y" horiz-adv-x="431" d="M189 227 L189 0 L237 0 L237 227 L426 533 L369 533 L214 276 L62 533 L6 533 L189 227 Z " />
<glyph glyph-name="z" unicode="z" horiz-adv-x="452" d="M93 45 L425 533 L45 533 L45 488 L341 488 L9 0 L410 0 L410 45 L93 45 Z " />
<glyph glyph-name="braceleft" unicode="&#x7b;" horiz-adv-x="257" d="M237 -124 C203 -124 199 -124 190 -122 C163 -115 149 -82 149 -22 L149 145 C149 207 136 236 96 267 C139 300 149 327 149 414 L149 556 C149 613 162 647 186 654 C196 657 204 658 237 658 L237 702 L226 702 L210 702 C167 702 130 682 113 649 C102 627 97 598 97 553 L97 416 C97 326 84 301 27 285 L27 249 C79 234 97 207 97 144 L97 -19 C97 -63 102 -91 113 -115 C129 -147 167 -168 210 -168 L226 -168 L237 -168 L237 -124 Z " />
<glyph glyph-name="bar" unicode="&#x7c;" horiz-adv-x="500" d="M225 667 L225 -167 L275 -167 L275 667 L225 667 Z " />
<glyph glyph-name="braceright" unicode="&#x7d;" horiz-adv-x="257" d="M19 -168 L30 -168 L47 -168 C90 -168 128 -147 144 -115 C155 -91 160 -63 160 -19 L160 144 C160 206 178 234 229 249 L229 285 C173 301 160 327 160 416 L160 553 C160 598 155 627 144 649 C127 682 90 702 47 702 L30 702 L19 702 L19 658 C50 658 57 658 66 656 C94 649 108 616 108 556 L108 414 C108 327 118 300 161 267 C121 236 108 207 108 145 L108 -22 C108 -79 95 -112 70 -120 C61 -124 55 -124 19 -124 L19 -168 Z " />
<glyph glyph-name="asciitilde" unicode="&#x7e;" horiz-adv-x="667" d="M125 592 C158 649 185 671 223 671 C250 671 270 664 323 636 C389 602 413 593 442 593 C495 593 535 624 572 696 L542 718 C509 660 482 638 444 638 C417 638 400 644 341 675 C282 706 254 716 225 716 C172 716 132 685 95 614 L125 592 Z " />
<glyph glyph-name="uni00A0" unicode="&#xa0;" horiz-adv-x="300" d="" />
<glyph glyph-name="exclamdown" unicode="&#xa1;" horiz-adv-x="267" d="M133 541 C109 541 90 521 90 497 C90 473 109 454 133 454 C157 454 177 473 177 497 C177 521 158 541 133 541 L133 541 Z M160 391 L108 391 L108 -129 L160 -129 L160 391 Z " />
<glyph glyph-name="cent" unicode="&#xa2;" horiz-adv-x="460" d="M272 564 L232 564 L232 476 C138 463 74 388 74 290 C74 195 138 122 232 109 L232 11 L272 11 L272 108 C299 108 346 126 368 144 L380 152 C381 153 383 155 386 157 L386 213 L380 207 C350 172 312 151 272 146 L272 438 C315 433 343 417 381 377 L381 432 C348 459 311 474 272 477 L272 564 Z M232 147 C168 155 115 220 115 291 C115 365 163 424 232 437 L232 147 Z " />
<glyph glyph-name="sterling" unicode="&#xa3;" horiz-adv-x="460" d="M224 221 C214 247 207 260 155 345 C130 384 122 406 122 430 C122 490 170 539 228 539 C276 539 316 512 330 469 C335 456 336 447 337 423 L380 423 C380 452 378 463 371 483 C349 542 295 580 232 580 C146 580 78 515 78 432 C78 396 89 367 119 320 C153 269 159 259 178 221 L96 221 L96 180 L189 180 C190 172 191 165 191 161 C191 131 177 104 145 74 C110 75 68 53 41 22 L66 -10 C102 22 119 31 146 31 C161 31 176 27 214 13 C263 -5 287 -11 308 -11 C351 -11 385 14 420 71 L383 93 C358 50 336 33 304 33 C290 33 277 36 244 48 C217 57 217 57 194 65 C220 92 234 126 234 159 C234 165 234 170 232 180 L327 180 L327 221 L224 221 Z " />
<glyph glyph-name="currency" unicode="&#xa4;" horiz-adv-x="627" d="M53 53 L79 27 L169 117 C216 80 261 64 314 64 C367 64 414 82 459 118 L551 27 L576 53 L485 144 C522 191 539 235 539 288 C539 341 522 386 486 432 L576 522 L550 548 L459 458 C413 496 368 513 313 513 C259 513 214 496 166 457 L76 548 L50 522 L140 431 C104 385 88 341 88 289 C88 234 106 187 143 143 L53 53 Z M314 474 C414 474 498 390 498 290 C498 186 416 103 314 103 C212 103 129 186 129 288 C129 391 212 474 314 474 L314 474 Z " />
<glyph glyph-name="yen" unicode="&#xa5;" horiz-adv-x="460" d="M301 332 L425 332 L425 373 L325 373 L443 573 L391 573 L228 292 L68 573 L17 573 L132 373 L35 373 L35 332 L155 332 L201 252 L35 252 L35 211 L205 211 L205 0 L249 0 L249 211 L425 211 L425 252 L253 252 L301 332 Z " />
<glyph glyph-name="brokenbar" unicode="&#xa6;" horiz-adv-x="500" d="M225 667 L225 339 L275 339 L275 667 L225 667 Z M225 153 L225 -167 L275 -167 L275 153 L225 153 Z " />
<glyph glyph-name="section" unicode="&#xa7;" horiz-adv-x="547" d="M111 -57 C114 -110 114 -117 120 -141 C134 -200 192 -236 273 -236 C378 -236 440 -179 440 -84 C440 -13 412 31 347 61 C416 98 450 152 450 222 C450 273 431 320 399 349 C377 368 346 383 297 398 C234 417 225 421 203 438 C177 458 164 485 164 519 C164 588 209 632 281 632 C358 632 393 590 393 500 L444 500 C442 541 440 557 434 581 C418 642 361 679 282 679 C179 679 113 618 113 522 C113 457 139 415 200 383 C134 352 97 294 97 221 C97 138 140 85 235 52 C311 26 311 26 335 12 C371 -8 389 -39 389 -81 C389 -148 345 -189 274 -189 C197 -189 163 -154 163 -76 L163 -65 L163 -57 L111 -57 Z M273 347 C343 347 399 291 399 222 C399 153 343 97 274 97 C204 97 148 153 148 224 C148 291 205 347 273 347 L273 347 Z " />
<glyph glyph-name="dieresis" unicode="&#xa8;" horiz-adv-x="500" d="M151 701 C127 701 107 681 107 658 C107 634 126 614 151 614 C175 614 194 634 194 658 C194 682 175 701 151 701 L151 701 Z M349 701 C326 701 306 681 306 658 C306 634 325 614 350 614 C373 614 393 634 393 658 C393 682 374 701 349 701 L349 701 Z " />
<glyph glyph-name="copyright" unicode="&#xa9;" horiz-adv-x="740" d="M514 474 C472 510 433 526 384 526 C277 526 187 437 187 330 C187 224 278 134 385 134 C432 134 471 149 514 183 L514 242 C475 197 433 176 385 176 C303 176 232 246 232 328 C232 412 302 483 384 483 C434 483 474 462 514 414 L514 474 Z M376 677 C182 677 27 526 27 336 C27 144 180 -10 371 -10 C560 -10 714 144 714 334 C714 521 560 677 376 677 L376 677 Z M375 632 C535 632 669 496 669 334 C669 169 535 35 371 35 C205 35 72 169 72 336 C72 407 100 479 149 533 C209 599 284 632 375 632 L375 632 Z " />
<glyph glyph-name="ordfeminine" unicode="&#xaa;" horiz-adv-x="412" d="M319 573 L319 523 C289 560 245 580 194 580 C98 580 32 510 32 408 C32 306 101 231 195 231 C245 231 292 254 319 291 L319 240 L361 240 L361 573 L319 573 Z M198 540 C228 540 259 528 283 508 C310 484 322 454 322 410 C322 329 271 272 199 272 C128 272 76 330 76 410 C76 484 129 540 198 540 L198 540 Z " />
<glyph glyph-name="guillemotleft" unicode="&#xab;" horiz-adv-x="417" d="M225 267 L353 417 L323 446 L167 267 L323 87 L353 116 L225 267 Z M97 267 L225 417 L195 446 L40 267 L195 87 L225 116 L97 267 Z " />
<glyph glyph-name="logicalnot" unicode="&#xac;" horiz-adv-x="500" d="M417 0 L466 0 L466 272 L33 272 L33 228 L417 228 L417 0 Z " />
<glyph glyph-name="uni00AD" unicode="&#xad;" horiz-adv-x="202" d="M0 272 L0 224 L202 224 L202 272 L0 272 Z " />
<glyph glyph-name="registered" unicode="&#xae;" horiz-adv-x="740" d="M380 314 C447 324 479 357 479 417 C479 484 437 520 358 520 L286 520 L286 140 L330 140 L330 313 L448 140 L500 140 L380 314 Z M330 355 L330 478 L353 478 C408 478 434 458 434 417 C434 377 407 355 358 355 L330 355 Z M376 677 C182 677 27 526 27 336 C27 144 180 -10 371 -10 C560 -10 714 144 714 334 C714 521 560 677 376 677 L376 677 Z M375 632 C535 632 669 496 669 334 C669 169 535 35 371 35 C205 35 72 169 72 336 C72 408 100 479 149 533 C209 599 284 632 375 632 L375 632 Z " />
<glyph glyph-name="macron" unicode="&#xaf;" horiz-adv-x="500" d="M110 665 L110 618 L390 618 L390 665 L110 665 Z " />
<glyph glyph-name="degree" unicode="&#xb0;" horiz-adv-x="360" d="M182 670 C107 670 47 611 47 537 C47 464 107 404 181 404 C254 404 314 464 314 537 C314 610 254 670 182 670 L182 670 Z M182 629 C232 629 273 587 273 537 C273 486 232 445 181 445 C130 445 88 486 88 537 C88 588 129 629 182 629 L182 629 Z " />
<glyph glyph-name="plusminus" unicode="&#xb1;" horiz-adv-x="547" d="M31 317 L253 317 L253 99 L293 99 L293 317 L515 317 L515 357 L293 357 L293 576 L253 576 L253 357 L31 357 L31 317 Z M31 0 L515 0 L515 40 L31 40 L31 0 Z " />
<glyph glyph-name="twosuperior" unicode="&#xb2;" horiz-adv-x="373" d="M128 204 L227 308 C304 386 320 411 320 458 C320 524 261 578 188 578 C130 578 75 543 61 497 C57 485 56 475 55 449 L96 449 C97 471 98 473 100 482 C109 517 145 541 187 541 C238 541 279 505 279 460 C279 427 262 399 209 344 L37 167 L318 167 L318 204 L128 204 Z " />
<glyph glyph-name="threesuperior" unicode="&#xb3;" horiz-adv-x="373" d="M176 359 C194 359 199 358 208 356 C246 348 270 320 270 283 C270 237 230 199 181 199 C149 199 115 219 105 243 C101 252 100 256 98 277 L58 277 C59 251 61 243 67 229 C85 189 130 162 181 162 C254 162 311 215 311 283 C311 325 291 358 252 379 C288 402 305 431 305 469 C305 531 254 578 188 578 C138 578 98 553 83 512 C78 499 77 491 74 466 L113 466 C116 487 116 489 119 497 C128 524 155 541 189 541 C232 541 264 511 264 469 C264 440 246 415 218 403 C206 398 200 397 176 395 L176 359 Z " />
<glyph glyph-name="acute" unicode="&#xb4;" horiz-adv-x="500" d="M368 741 L316 771 L206 607 L241 587 L368 741 Z " />
<glyph glyph-name="mu" unicode="&#xb5;" horiz-adv-x="477" d="M110 -134 L110 38 C148 3 187 -13 239 -13 C295 -13 347 10 379 47 C405 79 414 112 414 181 L414 490 L366 490 L366 198 C366 142 362 113 350 90 C332 56 286 32 238 32 C189 32 144 56 126 90 C114 113 110 142 110 198 L110 490 L62 490 L62 -134 L110 -134 Z " />
<glyph glyph-name="paragraph" unicode="&#xb6;" horiz-adv-x="643" d="M318 -134 L318 623 L456 623 L456 -134 L504 -134 L504 623 L557 623 L578 667 L286 667 C216 667 157 648 124 615 C89 579 68 524 68 467 C68 353 145 272 253 272 L270 272 L270 -134 L318 -134 Z " />
<glyph glyph-name="periodcentered" unicode="&#xb7;" horiz-adv-x="220" d="M110 311 C86 311 66 291 66 268 C66 243 86 223 110 223 C134 223 154 243 154 267 C154 291 134 311 110 311 L110 311 Z " />
<glyph glyph-name="cedilla" unicode="&#xb8;" horiz-adv-x="500" d="M329 -84 L270 -60 L171 -214 L211 -233 L329 -84 Z " />
<glyph glyph-name="onesuperior" unicode="&#xb9;" horiz-adv-x="373" d="M178 536 L178 167 L219 167 L219 573 L127 573 L108 536 L178 536 Z " />
<glyph glyph-name="ordmasculine" unicode="&#xba;" horiz-adv-x="413" d="M207 580 C111 580 32 503 32 409 C32 310 108 232 205 232 C304 232 381 308 381 406 C381 504 305 580 207 580 L207 580 Z M205 539 C280 539 337 481 337 406 C337 331 280 273 204 273 C132 273 76 332 76 408 C76 481 134 539 205 539 L205 539 Z " />
<glyph glyph-name="guillemotright" unicode="&#xbb;" horiz-adv-x="417" d="M192 267 L64 116 L94 87 L250 267 L94 446 L64 417 L192 267 Z M320 267 L191 116 L222 87 L377 267 L222 446 L191 417 L320 267 Z " />
<glyph glyph-name="onequarter" unicode="&#xbc;" horiz-adv-x="824" d="M184 536 L184 167 L225 167 L225 573 L133 573 L114 536 L184 536 Z M226 0 L262 -20 L597 573 L562 592 L226 0 Z M731 112 L731 434 L457 75 L690 75 L690 0 L731 0 L731 75 L790 75 L790 112 L731 112 Z M690 112 L534 112 L690 317 L690 112 Z " />
<glyph glyph-name="onehalf" unicode="&#xbd;" horiz-adv-x="824" d="M178 536 L178 167 L219 167 L219 573 L127 573 L108 536 L178 536 Z M226 0 L262 -20 L597 573 L562 592 L226 0 Z M578 37 L677 141 C753 218 770 245 770 291 C770 357 711 411 638 411 C580 411 525 376 511 330 C507 318 506 308 505 282 L546 282 C547 304 548 306 550 315 C559 350 594 374 636 374 C688 374 729 338 729 293 C729 260 712 232 659 178 L487 0 L768 0 L768 37 L578 37 Z " />
<glyph glyph-name="threequarters" unicode="&#xbe;" horiz-adv-x="824" d="M176 359 C194 359 199 358 208 356 C246 348 270 320 270 283 C270 237 230 199 181 199 C149 199 115 219 105 243 C101 252 100 256 98 277 L58 277 C59 251 61 243 67 229 C85 189 130 162 181 162 C254 162 311 215 311 283 C311 325 291 358 252 379 C288 402 305 431 305 469 C305 531 254 578 188 578 C138 578 98 553 83 512 C78 499 77 491 74 466 L113 466 C116 487 116 489 119 497 C128 524 155 541 189 541 C232 541 264 511 264 469 C264 440 246 415 218 403 C206 398 200 397 176 395 L176 359 Z M227 0 L262 -20 L597 573 L562 592 L227 0 Z M732 112 L732 434 L458 75 L691 75 L691 0 L732 0 L732 75 L791 75 L791 112 L732 112 Z M691 112 L535 112 L691 317 L691 112 Z " />
<glyph glyph-name="questiondown" unicode="&#xbf;" horiz-adv-x="427" d="M134 226 C140 292 164 320 214 320 C261 320 290 289 290 239 C290 195 273 176 221 161 C148 140 147 139 126 128 C90 107 68 61 68 8 C68 -79 127 -140 211 -140 C295 -140 359 -79 359 1 C359 16 357 28 353 49 L305 49 C309 32 310 23 310 9 C310 -55 273 -94 214 -94 C156 -94 117 -53 117 7 C117 41 129 72 149 88 C162 100 176 105 231 120 C309 142 341 175 341 236 C341 309 286 365 214 365 C169 365 132 346 109 313 C95 291 88 267 86 226 L134 226 Z M212 541 C188 541 168 521 168 497 C168 473 188 453 212 453 C236 453 256 473 256 496 C256 521 236 541 212 541 L212 541 Z " />
<glyph glyph-name="Agrave" unicode="&#xc0;" horiz-adv-x="683" d="M513 129 L619 -134 L677 -134 L344 690 L7 -134 L65 -134 L171 129 L513 129 Z M493 177 L191 177 L343 556 L493 177 Z M192 846 L351 723 L393 754 L247 884 L192 846 Z " />
<glyph glyph-name="Aacute" unicode="&#xc1;" horiz-adv-x="683" d="M513 129 L619 -134 L677 -134 L344 690 L7 -134 L65 -134 L171 129 L513 129 Z M493 177 L191 177 L343 556 L493 177 Z M496 846 L441 884 L295 754 L337 723 L496 846 Z " />
<glyph glyph-name="Acircumflex" unicode="&#xc2;" horiz-adv-x="683" d="M513 129 L619 -134 L677 -134 L344 690 L7 -134 L65 -134 L171 129 L513 129 Z M493 177 L191 177 L343 556 L493 177 Z M192 758 L235 724 L342 814 L448 724 L492 757 L342 884 L192 758 Z " />
<glyph glyph-name="Atilde" unicode="&#xc3;" horiz-adv-x="683" d="M513 129 L619 -134 L677 -134 L344 690 L7 -134 L65 -134 L171 129 L513 129 Z M493 177 L191 177 L343 556 L493 177 Z M225 748 C238 782 249 793 272 793 C287 793 300 789 345 770 C379 756 398 751 417 751 C458 751 485 774 502 823 L467 849 C453 815 441 804 419 804 C404 804 385 810 349 825 C312 842 297 846 275 846 C237 846 214 827 190 774 L225 748 Z " />
<glyph glyph-name="Adieresis" unicode="&#xc4;" horiz-adv-x="683" d="M513 129 L619 -134 L677 -134 L344 690 L7 -134 L65 -134 L171 129 L513 129 Z M493 177 L191 177 L343 556 L493 177 Z M230 844 C205 844 184 823 184 799 C184 773 205 752 230 752 C255 752 276 773 276 798 C276 824 256 844 230 844 L230 844 Z M454 844 C429 844 408 824 408 799 C408 773 428 752 454 752 C479 752 500 773 500 798 C500 824 480 844 454 844 L454 844 Z " />
<glyph glyph-name="Aring" unicode="&#xc5;" horiz-adv-x="683" d="M513 129 L619 -134 L677 -134 L344 690 L7 -134 L65 -134 L171 129 L513 129 Z M493 177 L191 177 L343 556 L493 177 Z M342 907 C290 907 246 864 246 812 C246 758 289 715 342 715 C395 715 438 758 438 811 C438 864 395 907 342 907 L342 907 Z M342 860 C370 860 392 838 392 811 C392 783 370 761 342 761 C314 761 292 783 292 811 C292 838 315 860 342 860 L342 860 Z " />
<glyph glyph-name="AE" unicode="&#xc6;" horiz-adv-x="1011" d="M511 129 L618 -134 L1005 -134 L986 -86 L655 -86 L506 280 L828 280 L808 328 L486 328 L367 619 L697 619 L679 667 L330 667 L7 -134 L65 -134 L168 129 L511 129 Z M491 177 L189 177 L338 554 L491 177 Z " />
<glyph glyph-name="Ccedilla" unicode="&#xc7;" horiz-adv-x="771" d="M728 574 C644 646 561 678 459 678 C233 678 43 490 43 265 C43 42 235 -147 461 -147 C558 -147 640 -116 728 -48 L728 23 C698 -9 683 -22 659 -37 C598 -75 521 -98 458 -98 C378 -98 292 -64 222 -6 C141 63 97 157 97 262 C97 460 263 629 457 629 C516 629 579 612 635 581 C672 560 691 544 728 503 L728 574 Z M484 -220 L424 -190 L318 -350 L361 -372 L484 -220 Z " />
<glyph glyph-name="Egrave" unicode="&#xc8;" horiz-adv-x="514" d="M464 619 L464 667 L80 667 L80 -134 L464 -134 L464 -86 L132 -86 L132 281 L456 281 L456 329 L132 329 L132 619 L464 619 Z M152 846 L311 723 L353 754 L207 884 L152 846 Z " />
<glyph glyph-name="Eacute" unicode="&#xc9;" horiz-adv-x="514" d="M464 619 L464 667 L80 667 L80 -134 L464 -134 L464 -86 L132 -86 L132 281 L456 281 L456 329 L132 329 L132 619 L464 619 Z M412 846 L357 884 L211 754 L252 723 L412 846 Z " />
<glyph glyph-name="Ecircumflex" unicode="&#xca;" horiz-adv-x="514" d="M464 619 L464 667 L80 667 L80 -134 L464 -134 L464 -86 L132 -86 L132 281 L456 281 L456 329 L132 329 L132 619 L464 619 Z M124 758 L166 724 L273 814 L380 724 L423 757 L273 884 L124 758 Z " />
<glyph glyph-name="Edieresis" unicode="&#xcb;" horiz-adv-x="514" d="M464 619 L464 667 L80 667 L80 -134 L464 -134 L464 -86 L132 -86 L132 281 L456 281 L456 329 L132 329 L132 619 L464 619 Z M162 844 C137 844 116 824 116 799 C116 773 136 752 162 752 C187 752 208 773 208 798 C208 824 188 844 162 844 L162 844 Z M385 844 C360 844 339 823 339 799 C339 773 360 752 385 752 C410 752 431 773 431 798 C431 824 411 844 385 844 L385 844 Z " />
<glyph glyph-name="Igrave" unicode="&#xcc;" horiz-adv-x="212" d="M132 667 L80 667 L80 -134 L132 -134 L132 667 Z M-32 846 L111 723 L153 754 L22 884 L-32 846 Z " />
<glyph glyph-name="Iacute" unicode="&#xcd;" horiz-adv-x="212" d="M132 667 L80 667 L80 -134 L132 -134 L132 667 Z M244 846 L191 884 L59 754 L101 723 L244 846 Z " />
<glyph glyph-name="Icircumflex" unicode="&#xce;" horiz-adv-x="212" d="M132 667 L80 667 L80 -134 L132 -134 L132 667 Z M-32 758 L9 724 L106 814 L202 724 L243 757 L106 884 L-32 758 Z " />
<glyph glyph-name="Idieresis" unicode="&#xcf;" horiz-adv-x="212" d="M132 667 L80 667 L80 -134 L132 -134 L132 667 Z M30 844 C5 844 -16 823 -16 799 C-16 773 5 752 30 752 C56 752 76 773 76 798 C76 824 56 844 30 844 L30 844 Z M181 844 C156 844 135 823 135 799 C135 773 156 752 181 752 C206 752 227 773 227 798 C227 824 207 844 181 844 L181 844 Z " />
<glyph glyph-name="Eth" unicode="&#xd0;" horiz-adv-x="706" d="M93 -134 L251 -134 C375 -134 467 -99 544 -23 C620 52 662 155 662 266 C662 378 620 481 544 556 C467 632 376 667 251 667 L93 667 L93 326 L13 326 L13 278 L93 278 L93 -134 Z M145 -86 L145 278 L345 278 L345 326 L145 326 L145 619 L250 619 C353 619 435 589 500 527 C569 461 608 368 608 266 C608 164 570 72 500 6 C434 -56 353 -86 250 -86 L145 -86 Z " />
<glyph glyph-name="Ntilde" unicode="&#xd1;" horiz-adv-x="884" d="M80 -134 L132 -134 L132 550 L804 -154 L804 667 L752 667 L752 -29 L80 676 L80 -134 Z M321 748 C334 782 346 793 368 793 C383 793 396 789 441 770 C476 756 494 751 513 751 C554 751 581 774 598 823 L563 849 C549 815 537 804 515 804 C500 804 481 810 445 825 C408 842 393 846 371 846 C333 846 310 827 286 774 L321 748 Z " />
<glyph glyph-name="Ograve" unicode="&#xd2;" horiz-adv-x="917" d="M458 678 C235 678 43 490 43 272 C43 166 80 68 150 -9 C228 -95 343 -147 455 -147 C685 -147 873 39 873 266 C873 491 685 678 458 678 L458 678 Z M458 629 C545 629 636 593 702 531 C779 460 819 369 819 266 C819 66 655 -98 455 -98 C370 -98 281 -62 214 0 C137 70 97 163 97 271 C97 464 263 629 458 629 L458 629 Z M331 846 L490 723 L532 754 L386 884 L331 846 Z " />
<glyph glyph-name="Oacute" unicode="&#xd3;" horiz-adv-x="917" d="M458 678 C235 678 43 490 43 272 C43 166 80 68 150 -9 C228 -95 343 -147 455 -147 C685 -147 873 39 873 266 C873 491 685 678 458 678 L458 678 Z M458 629 C545 629 636 593 702 531 C779 460 819 369 819 266 C819 66 655 -98 455 -98 C370 -98 281 -62 214 0 C137 70 97 163 97 271 C97 464 263 629 458 629 L458 629 Z M604 846 L549 884 L403 754 L445 723 L604 846 Z " />
<glyph glyph-name="Ocircumflex" unicode="&#xd4;" horiz-adv-x="917" d="M458 678 C235 678 43 490 43 272 C43 166 80 68 150 -9 C228 -95 343 -147 455 -147 C685 -147 873 39 873 266 C873 491 685 678 458 678 L458 678 Z M458 629 C545 629 636 593 702 531 C779 460 819 369 819 266 C819 66 655 -98 455 -98 C370 -98 281 -62 214 0 C137 70 97 163 97 271 C97 464 263 629 458 629 L458 629 Z M309 758 L351 724 L458 814 L565 724 L608 757 L458 884 L309 758 Z " />
<glyph glyph-name="Otilde" unicode="&#xd5;" horiz-adv-x="917" d="M458 678 C235 678 43 490 43 272 C43 166 80 68 150 -9 C228 -95 343 -147 455 -147 C685 -147 873 39 873 266 C873 491 685 678 458 678 L458 678 Z M458 629 C545 629 636 593 702 531 C779 460 819 369 819 266 C819 66 655 -98 455 -98 C370 -98 281 -62 214 0 C137 70 97 163 97 271 C97 464 263 629 458 629 L458 629 Z M345 748 C359 782 370 793 392 793 C408 793 421 789 466 770 C500 756 518 751 537 751 C578 751 605 774 622 823 L587 849 C573 815 561 804 539 804 C524 804 506 810 470 825 C432 842 417 846 396 846 C357 846 334 827 310 774 L345 748 Z " />
<glyph glyph-name="Odieresis" unicode="&#xd6;" horiz-adv-x="917" d="M458 678 C235 678 43 490 43 272 C43 166 80 68 150 -9 C228 -95 343 -147 455 -147 C685 -147 873 39 873 266 C873 491 685 678 458 678 L458 678 Z M458 629 C545 629 636 593 702 531 C779 460 819 369 819 266 C819 66 655 -98 455 -98 C370 -98 281 -62 214 0 C137 70 97 163 97 271 C97 464 263 629 458 629 L458 629 Z M346 844 C321 844 300 823 300 799 C300 773 321 752 346 752 C371 752 392 773 392 798 C392 824 372 844 346 844 L346 844 Z M570 844 C545 844 524 823 524 799 C524 773 545 752 570 752 C595 752 616 773 616 798 C616 824 596 844 570 844 L570 844 Z " />
<glyph glyph-name="multiply" unicode="&#xd7;" horiz-adv-x="547" d="M77 456 L246 287 L77 117 L104 90 L273 260 L443 90 L470 117 L301 287 L470 456 L443 483 L273 314 L104 483 L77 456 Z " />
<glyph glyph-name="Oslash" unicode="&#xd8;" horiz-adv-x="917" d="M51 -106 L81 -138 L178 -38 C268 -113 355 -147 459 -147 C684 -147 873 41 873 264 C873 371 836 465 761 546 L857 642 L825 675 L728 577 C646 645 557 678 457 678 C232 678 43 490 43 267 C43 166 79 72 147 -6 L51 -106 Z M184 28 C126 98 97 177 97 266 C97 464 261 629 457 629 C542 629 623 599 691 543 L184 28 Z M723 512 C787 442 819 359 819 265 C819 67 655 -98 459 -98 C370 -98 287 -66 216 -4 L723 512 Z " />
<glyph glyph-name="Ugrave" unicode="&#xd9;" horiz-adv-x="691" d="M125 667 L73 667 L73 152 C73 46 81 8 115 -38 C163 -105 252 -147 346 -147 C439 -147 528 -105 576 -38 C610 8 618 46 618 152 L618 667 L566 667 L566 166 C566 67 560 30 537 -6 C503 -59 423 -98 346 -98 C268 -98 188 -60 154 -6 C131 30 125 67 125 166 L125 667 Z M211 846 L371 723 L413 754 L267 884 L211 846 Z " />
<glyph glyph-name="Uacute" unicode="&#xda;" horiz-adv-x="691" d="M125 667 L73 667 L73 152 C73 46 81 8 115 -38 C163 -105 252 -147 346 -147 C439 -147 528 -105 576 -38 C610 8 618 46 618 152 L618 667 L566 667 L566 166 C566 67 560 30 537 -6 C503 -59 423 -98 346 -98 C268 -98 188 -60 154 -6 C131 30 125 67 125 166 L125 667 Z M487 846 L432 884 L286 754 L328 723 L487 846 Z " />
<glyph glyph-name="Ucircumflex" unicode="&#xdb;" horiz-adv-x="691" d="M125 667 L73 667 L73 152 C73 46 81 8 115 -38 C163 -105 252 -147 346 -147 C439 -147 528 -105 576 -38 C610 8 618 46 618 152 L618 667 L566 667 L566 166 C566 67 560 30 537 -6 C503 -59 423 -98 346 -98 C268 -98 188 -60 154 -6 C131 30 125 67 125 166 L125 667 Z M196 758 L238 724 L345 814 L452 724 L495 757 L345 884 L196 758 Z " />
<glyph glyph-name="Udieresis" unicode="&#xdc;" horiz-adv-x="691" d="M125 667 L73 667 L73 152 C73 46 81 8 115 -38 C163 -105 252 -147 346 -147 C439 -147 528 -105 576 -38 C610 8 618 46 618 152 L618 667 L566 667 L566 166 C566 67 560 30 537 -6 C503 -59 423 -98 346 -98 C268 -98 188 -60 154 -6 C131 30 125 67 125 166 L125 667 Z M234 844 C209 844 188 823 188 799 C188 773 209 752 234 752 C259 752 280 773 280 798 C280 824 260 844 234 844 L234 844 Z M457 844 C432 844 411 823 411 799 C411 773 432 752 457 752 C483 752 503 773 503 798 C503 824 483 844 457 844 L457 844 Z " />
<glyph glyph-name="Yacute" unicode="&#xdd;" horiz-adv-x="598" d="M269 208 L269 -134 L321 -134 L321 208 L592 667 L530 667 L296 265 L68 667 L7 667 L269 208 Z M442 846 L386 884 L240 754 L282 723 L442 846 Z " />
<glyph glyph-name="Thorn" unicode="&#xde;" horiz-adv-x="507" d="M132 126 L235 126 C308 126 367 145 406 181 C444 217 467 276 467 337 C467 394 447 447 410 486 C368 528 315 547 234 547 L132 547 L132 667 L80 667 L80 -134 L132 -134 L132 126 Z M132 174 L132 499 L229 499 C296 499 338 486 370 454 C397 427 413 384 413 336 C413 238 344 174 237 174 L132 174 Z " />
<glyph glyph-name="germandbls" unicode="&#xdf;" horiz-adv-x="808" d="M350 454 C318 508 268 537 206 537 C120 537 58 479 58 401 C58 358 77 324 114 301 C136 287 164 273 218 249 C303 211 324 190 324 148 C324 85 266 33 196 33 C159 33 122 49 100 75 C89 88 83 99 68 130 L26 110 C40 78 48 63 64 45 C96 9 144 -12 196 -12 C294 -12 373 60 373 148 C373 192 352 228 311 253 C286 269 272 276 201 308 C128 341 107 361 107 400 C107 452 149 492 205 492 C253 492 279 476 314 424 L350 454 Z M754 454 C722 508 672 537 610 537 C524 537 462 479 462 401 C462 357 481 324 519 301 C540 287 569 273 623 249 C708 210 729 190 729 148 C729 85 671 33 601 33 C563 33 527 49 505 75 C494 88 487 99 472 130 L430 110 C444 78 452 63 468 45 C501 9 548 -12 600 -12 C699 -12 778 60 778 148 C778 192 757 228 716 253 C691 269 677 275 605 308 C532 341 511 361 511 400 C511 452 553 492 609 492 C657 492 683 475 718 424 L754 454 Z " />
<glyph glyph-name="agrave" unicode="&#xe0;" horiz-adv-x="482" d="M353 170 L424 0 L477 0 L243 560 L6 0 L59 0 L130 170 L353 170 Z M333 216 L150 216 L242 439 L333 216 Z M113 741 L239 587 L275 607 L165 771 L113 741 Z " />
<glyph glyph-name="aacute" unicode="&#xe1;" horiz-adv-x="482" d="M353 170 L424 0 L477 0 L243 560 L6 0 L59 0 L130 170 L353 170 Z M333 216 L150 216 L242 439 L333 216 Z M359 741 L307 771 L197 607 L233 587 L359 741 Z " />
<glyph glyph-name="acircumflex" unicode="&#xe2;" horiz-adv-x="482" d="M353 170 L424 0 L477 0 L243 560 L6 0 L59 0 L130 170 L353 170 Z M333 216 L150 216 L242 439 L333 216 Z M95 617 L133 587 L241 669 L348 587 L388 617 L241 730 L95 617 Z " />
<glyph glyph-name="atilde" unicode="&#xe3;" horiz-adv-x="482" d="M353 170 L424 0 L477 0 L243 560 L6 0 L59 0 L130 170 L353 170 Z M333 216 L150 216 L242 439 L333 216 Z M120 611 C131 643 144 656 167 656 C182 656 207 648 242 634 C283 616 293 613 308 613 C347 613 380 639 394 682 L364 705 C351 675 335 661 312 661 C299 661 280 667 244 683 C206 700 192 704 173 704 C136 704 109 682 89 635 L120 611 Z " />
<glyph glyph-name="adieresis" unicode="&#xe4;" horiz-adv-x="482" d="M353 170 L424 0 L477 0 L243 560 L6 0 L59 0 L130 170 L353 170 Z M333 216 L150 216 L242 439 L333 216 Z M141 701 C118 701 98 681 98 658 C98 634 117 614 142 614 C165 614 185 634 185 658 C185 682 166 701 141 701 L141 701 Z M341 701 C318 701 298 681 298 658 C298 634 317 614 341 614 C365 614 385 634 385 658 C385 682 366 701 341 701 L341 701 Z " />
<glyph glyph-name="aring" unicode="&#xe5;" horiz-adv-x="482" d="M353 170 L424 0 L477 0 L243 560 L6 0 L59 0 L130 170 L353 170 Z M333 216 L150 216 L242 439 L333 216 Z M241 778 C191 778 149 737 149 687 C149 635 190 594 242 594 C293 594 334 635 334 686 C334 737 293 778 241 778 L241 778 Z M241 735 C270 735 292 713 292 686 C292 658 270 636 242 636 C213 636 191 658 191 686 C191 713 214 735 241 735 L241 735 Z " />
<glyph glyph-name="ae" unicode="&#xe6;" horiz-adv-x="694" d="M346 170 L415 0 L689 0 L671 45 L449 45 L358 268 L575 268 L556 313 L340 313 L269 488 L490 488 L472 533 L221 533 L6 0 L59 0 L126 170 L346 170 Z M327 215 L145 215 L235 444 L327 215 Z " />
<glyph glyph-name="ccedilla" unicode="&#xe7;" horiz-adv-x="547" d="M510 466 C453 513 390 537 322 537 C166 537 37 412 37 262 C37 113 168 -12 324 -12 C390 -12 447 9 510 56 L510 124 C455 64 390 33 321 33 C195 33 86 138 86 260 C86 386 194 492 321 492 C391 492 453 461 510 397 L510 466 Z M381 -84 L322 -60 L223 -214 L263 -233 L381 -84 Z " />
<glyph glyph-name="egrave" unicode="&#xe8;" horiz-adv-x="389" d="M347 488 L347 533 L68 533 L68 0 L347 0 L347 45 L116 45 L116 268 L341 268 L341 314 L116 314 L116 488 L347 488 Z M80 741 L207 587 L242 607 L133 771 L80 741 Z " />
<glyph glyph-name="eacute" unicode="&#xe9;" horiz-adv-x="389" d="M347 488 L347 533 L68 533 L68 0 L347 0 L347 45 L116 45 L116 268 L341 268 L341 314 L116 314 L116 488 L347 488 Z M327 741 L275 771 L165 607 L201 587 L327 741 Z " />
<glyph glyph-name="ecircumflex" unicode="&#xea;" horiz-adv-x="389" d="M346 488 L346 533 L68 533 L68 0 L346 0 L346 45 L116 45 L116 268 L341 268 L341 314 L116 314 L116 488 L346 488 Z M63 617 L101 587 L209 669 L315 587 L355 617 L209 730 L63 617 Z " />
<glyph glyph-name="edieresis" unicode="&#xeb;" horiz-adv-x="389" d="M347 488 L347 533 L68 533 L68 0 L347 0 L347 45 L116 45 L116 268 L341 268 L341 314 L116 314 L116 488 L347 488 Z M110 701 C86 701 66 681 66 658 C66 634 85 614 110 614 C134 614 153 634 153 658 C153 682 134 701 110 701 L110 701 Z M308 701 C285 701 265 681 265 658 C265 634 284 614 309 614 C332 614 352 634 352 658 C352 682 333 701 308 701 L308 701 Z " />
<glyph glyph-name="igrave" unicode="&#xec;" horiz-adv-x="184" d="M116 533 L68 533 L68 0 L116 0 L116 533 Z M-37 741 L90 587 L125 607 L15 771 L-37 741 Z " />
<glyph glyph-name="iacute" unicode="&#xed;" horiz-adv-x="184" d="M116 533 L68 533 L68 0 L116 0 L116 533 Z M210 741 L158 771 L48 607 L83 587 L210 741 Z " />
<glyph glyph-name="icircumflex" unicode="&#xee;" horiz-adv-x="184" d="M116 533 L68 533 L68 0 L116 0 L116 533 Z M-54 617 L-16 587 L92 669 L198 587 L238 617 L92 730 L-54 617 Z " />
<glyph glyph-name="idieresis" unicode="&#xef;" horiz-adv-x="184" d="M116 533 L68 533 L68 0 L116 0 L116 533 Z M21 701 C-3 701 -23 681 -23 658 C-23 634 -4 614 21 614 C45 614 64 634 64 658 C64 682 45 701 21 701 L21 701 Z M164 701 C140 701 120 681 120 658 C120 634 139 614 164 614 C188 614 207 634 207 658 C207 682 188 701 164 701 L164 701 Z " />
<glyph glyph-name="eth" unicode="&#xf0;" horiz-adv-x="515" d="M79 245 L79 0 L197 0 C282 0 345 23 397 74 C449 124 478 192 478 266 C478 341 449 409 397 459 C345 510 282 533 197 533 L79 533 L79 291 L11 291 L11 245 L79 245 Z M127 245 L262 245 L262 291 L127 291 L127 488 L196 488 C333 488 429 396 429 266 C429 137 333 45 196 45 L127 45 L127 245 Z " />
<glyph glyph-name="ntilde" unicode="&#xf1;" horiz-adv-x="635" d="M68 0 L116 0 L116 432 L567 -24 L567 533 L519 533 L519 93 L68 550 L68 0 Z M196 611 C207 643 220 656 243 656 C257 656 283 648 318 634 C358 616 369 613 384 613 C423 613 456 639 470 682 L439 705 C427 675 411 661 388 661 C375 661 356 667 320 683 C282 700 268 704 249 704 C212 704 185 682 165 635 L196 611 Z " />
<glyph glyph-name="ograve" unicode="&#xf2;" horiz-adv-x="641" d="M321 537 C168 537 37 412 37 267 C37 114 164 -12 319 -12 C476 -12 605 112 605 263 C605 413 477 537 321 537 L321 537 Z M321 492 C449 492 556 388 556 263 C556 136 449 33 319 33 C191 33 86 138 86 266 C86 388 194 492 321 492 L321 492 Z M192 741 L319 587 L354 607 L244 771 L192 741 Z " />
<glyph glyph-name="oacute" unicode="&#xf3;" horiz-adv-x="641" d="M321 537 C168 537 37 412 37 267 C37 114 164 -12 319 -12 C476 -12 605 112 605 263 C605 413 477 537 321 537 L321 537 Z M321 492 C449 492 556 388 556 263 C556 136 449 33 319 33 C191 33 86 138 86 266 C86 388 194 492 321 492 L321 492 Z M439 741 L386 771 L277 607 L312 587 L439 741 Z " />
<glyph glyph-name="ocircumflex" unicode="&#xf4;" horiz-adv-x="641" d="M321 537 C168 537 37 412 37 267 C37 114 164 -12 319 -12 C476 -12 605 112 605 263 C605 413 477 537 321 537 L321 537 Z M321 492 C449 492 556 388 556 263 C556 136 449 33 319 33 C191 33 86 138 86 266 C86 388 194 492 321 492 L321 492 Z M175 617 L213 587 L321 669 L427 587 L467 617 L321 730 L175 617 Z " />
<glyph glyph-name="otilde" unicode="&#xf5;" horiz-adv-x="641" d="M321 537 C168 537 37 412 37 267 C37 114 164 -12 319 -12 C476 -12 605 112 605 263 C605 413 477 537 321 537 L321 537 Z M321 492 C449 492 556 388 556 263 C556 136 449 33 319 33 C191 33 86 138 86 266 C86 388 194 492 321 492 L321 492 Z M199 611 C210 643 224 656 246 656 C261 656 287 648 321 634 C362 616 373 613 387 613 C426 613 459 639 474 682 L443 705 C430 675 414 661 392 661 C378 661 360 667 323 683 C286 700 271 704 252 704 C216 704 189 682 168 635 L199 611 Z " />
<glyph glyph-name="odieresis" unicode="&#xf6;" horiz-adv-x="641" d="M321 537 C168 537 37 412 37 267 C37 114 164 -12 319 -12 C476 -12 605 112 605 263 C605 413 477 537 321 537 L321 537 Z M321 492 C449 492 556 388 556 263 C556 136 449 33 319 33 C191 33 86 138 86 266 C86 388 194 492 321 492 L321 492 Z M222 701 C198 701 178 681 178 658 C178 634 197 614 222 614 C246 614 265 634 265 658 C265 682 246 701 222 701 L222 701 Z M420 701 C397 701 377 681 377 658 C377 634 396 614 421 614 C444 614 464 634 464 658 C464 682 445 701 420 701 L420 701 Z " />
<glyph glyph-name="divide" unicode="&#xf7;" horiz-adv-x="547" d="M31 270 L515 270 L515 310 L31 310 L31 270 Z M273 217 C253 217 236 201 236 181 C236 160 252 144 273 144 C293 144 309 160 309 181 C309 201 293 217 273 217 L273 217 Z M273 430 C253 430 236 414 236 394 C236 373 252 357 273 357 C293 357 309 373 309 394 C309 414 293 430 273 430 L273 430 Z " />
<glyph glyph-name="oslash" unicode="&#xf8;" horiz-adv-x="641" d="M502 473 C447 516 386 537 320 537 C166 537 37 412 37 263 C37 196 62 132 110 80 L43 13 L72 -15 L140 52 C193 10 256 -12 322 -12 C476 -12 605 113 605 262 C605 330 580 392 533 444 L599 509 L569 540 L502 473 Z M143 113 C105 157 86 208 86 263 C86 388 193 492 320 492 C374 492 422 475 469 440 L143 113 Z M500 411 C538 366 556 318 556 262 C556 137 449 33 322 33 C268 33 219 50 173 85 L500 411 Z " />
<glyph glyph-name="ugrave" unicode="&#xf9;" horiz-adv-x="507" d="M110 533 L62 533 L62 189 C62 119 68 94 91 62 C126 15 185 -12 254 -12 C322 -12 381 15 415 61 C439 94 445 120 445 189 L445 533 L397 533 L397 198 C397 135 393 112 378 90 C356 56 306 33 254 33 C201 33 151 56 129 90 C114 112 110 135 110 198 L110 533 Z M124 741 L251 587 L286 607 L177 771 L124 741 Z " />
<glyph glyph-name="uacute" unicode="&#xfa;" horiz-adv-x="507" d="M110 533 L62 533 L62 189 C62 119 68 94 91 62 C126 15 185 -12 254 -12 C322 -12 381 15 415 61 C439 94 445 120 445 189 L445 533 L397 533 L397 198 C397 135 393 112 378 90 C356 56 306 33 254 33 C201 33 151 56 129 90 C114 112 110 135 110 198 L110 533 Z M371 741 L319 771 L209 607 L245 587 L371 741 Z " />
<glyph glyph-name="ucircumflex" unicode="&#xfb;" horiz-adv-x="507" d="M110 533 L62 533 L62 189 C62 119 68 94 91 62 C126 15 185 -12 254 -12 C322 -12 381 15 415 61 C439 94 445 120 445 189 L445 533 L397 533 L397 198 C397 135 393 112 378 90 C356 56 306 33 254 33 C201 33 151 56 129 90 C114 112 110 135 110 198 L110 533 Z M107 617 L145 587 L253 669 L360 587 L400 617 L253 730 L107 617 Z " />
<glyph glyph-name="udieresis" unicode="&#xfc;" horiz-adv-x="507" d="M110 533 L62 533 L62 189 C62 119 68 94 91 62 C126 15 185 -12 254 -12 C322 -12 381 15 415 61 C439 94 445 120 445 189 L445 533 L397 533 L397 198 C397 135 393 112 378 90 C356 56 306 33 254 33 C201 33 151 56 129 90 C114 112 110 135 110 198 L110 533 Z M154 701 C130 701 110 681 110 658 C110 634 129 614 154 614 C178 614 197 634 197 658 C197 682 178 701 154 701 L154 701 Z M353 701 C330 701 310 681 310 658 C310 634 329 614 354 614 C377 614 397 634 397 658 C397 682 378 701 353 701 L353 701 Z " />
<glyph glyph-name="yacute" unicode="&#xfd;" horiz-adv-x="431" d="M189 227 L189 0 L237 0 L237 227 L426 533 L369 533 L214 276 L62 533 L6 533 L189 227 Z M334 741 L281 771 L172 607 L207 587 L334 741 Z " />
<glyph glyph-name="thorn" unicode="&#xfe;" horiz-adv-x="383" d="M116 126 L184 126 C286 126 349 181 349 269 C349 309 334 345 308 370 C278 399 240 412 183 412 L116 412 L116 533 L68 533 L68 0 L116 0 L116 126 Z M116 172 L116 367 L179 367 C259 367 300 334 300 269 C300 210 255 172 185 172 L116 172 Z " />
<glyph glyph-name="ydieresis" unicode="&#xff;" horiz-adv-x="431" d="M189 227 L189 0 L237 0 L237 227 L426 533 L369 533 L214 276 L62 533 L6 533 L189 227 Z M116 701 C92 701 72 681 72 658 C72 634 91 614 116 614 C140 614 159 634 159 658 C159 682 140 701 116 701 L116 701 Z M315 701 C292 701 272 681 272 658 C272 634 291 614 316 614 C339 614 359 634 359 658 C359 682 340 701 315 701 L315 701 Z " />
<glyph glyph-name="Amacron" unicode="&#x100;" horiz-adv-x="683" d="M513 129 L619 -134 L677 -134 L344 690 L7 -134 L65 -134 L171 129 L513 129 Z M493 177 L191 177 L343 556 L493 177 Z M178 823 L178 771 L506 771 L506 823 L178 823 Z " />
<glyph glyph-name="amacron" unicode="&#x101;" horiz-adv-x="482" d="M353 170 L424 0 L477 0 L243 560 L6 0 L59 0 L130 170 L353 170 Z M333 216 L150 216 L242 439 L333 216 Z M101 665 L101 618 L382 618 L382 665 L101 665 Z " />
<glyph glyph-name="Abreve" unicode="&#x102;" horiz-adv-x="683" d="M513 129 L619 -134 L677 -134 L344 690 L7 -134 L65 -134 L171 129 L513 129 Z M493 177 L191 177 L343 556 L493 177 Z M193 869 C203 781 260 727 342 727 C424 727 481 781 491 869 L441 869 C425 808 394 780 342 780 C290 780 259 808 243 869 L193 869 Z " />
<glyph glyph-name="abreve" unicode="&#x103;" horiz-adv-x="482" d="M353 170 L424 0 L477 0 L243 560 L6 0 L59 0 L130 170 L353 170 Z M333 216 L150 216 L242 439 L333 216 Z M91 714 C102 646 161 602 241 602 C322 602 381 646 392 714 L346 714 C329 669 296 648 242 648 C187 648 154 669 137 714 L91 714 Z " />
<glyph glyph-name="Aogonek" unicode="&#x104;" horiz-adv-x="683" d="M344 690 L7 -134 L65 -134 L171 129 L513 129 L619 -134 C545 -179 523 -208 523 -262 C523 -322 563 -359 628 -359 C653 -359 670 -355 698 -343 L711 -293 C679 -310 664 -315 640 -315 C600 -315 578 -294 578 -254 C578 -211 607 -176 677 -134 L344 690 Z M493 177 L191 177 L343 556 L493 177 Z " />
<glyph glyph-name="aogonek" unicode="&#x105;" horiz-adv-x="482" d="M243 560 L6 0 L59 0 L130 170 L353 170 L424 0 L429 0 C373 -40 350 -75 350 -118 C350 -174 400 -217 463 -217 C480 -217 491 -215 519 -208 L530 -164 C496 -173 484 -175 467 -175 C425 -175 396 -151 396 -115 C396 -80 417 -51 477 0 L243 560 Z M333 216 L150 216 L242 439 L333 216 Z " />
<glyph glyph-name="Cacute" unicode="&#x106;" horiz-adv-x="771" d="M728 574 C644 646 561 678 459 678 C233 678 43 490 43 265 C43 42 235 -147 461 -147 C558 -147 640 -116 728 -48 L728 23 C698 -9 683 -22 659 -37 C598 -75 521 -98 458 -98 C378 -98 292 -64 222 -6 C141 63 97 157 97 262 C97 460 263 629 457 629 C516 629 579 612 635 581 C672 560 691 544 728 503 L728 574 Z M596 846 L540 884 L394 754 L436 723 L596 846 Z " />
<glyph glyph-name="cacute" unicode="&#x107;" horiz-adv-x="547" d="M510 466 C453 513 390 537 322 537 C166 537 37 412 37 262 C37 113 168 -12 324 -12 C390 -12 447 9 510 56 L510 124 C455 64 390 33 321 33 C195 33 86 138 86 260 C86 386 194 492 321 492 C391 492 453 461 510 397 L510 466 Z M444 741 L391 771 L282 607 L317 587 L444 741 Z " />
<glyph glyph-name="cdotaccent" unicode="&#x10b;" horiz-adv-x="547" d="M510 466 C453 513 390 537 322 537 C166 537 37 412 37 262 C37 113 168 -12 324 -12 C390 -12 447 9 510 56 L510 124 C455 64 390 33 321 33 C195 33 86 138 86 260 C86 386 194 492 321 492 C391 492 453 461 510 397 L510 466 Z M326 706 C301 706 280 685 280 661 C280 635 300 614 326 614 C351 614 372 635 372 660 C372 685 351 706 326 706 L326 706 Z " />
<glyph glyph-name="Ccaron" unicode="&#x10c;" horiz-adv-x="771" d="M728 574 C644 646 561 678 459 678 C233 678 43 490 43 265 C43 42 235 -147 461 -147 C558 -147 640 -116 728 -48 L728 23 C698 -9 683 -22 659 -37 C598 -75 521 -98 458 -98 C378 -98 292 -64 222 -6 C141 63 97 157 97 262 C97 460 263 629 457 629 C516 629 579 612 635 581 C672 560 691 544 728 503 L728 574 Z M607 850 L564 884 L457 794 L351 884 L308 850 L457 724 L607 850 Z " />
<glyph glyph-name="ccaron" unicode="&#x10d;" horiz-adv-x="547" d="M510 466 C453 513 390 537 322 537 C166 537 37 412 37 262 C37 113 168 -12 324 -12 C390 -12 447 9 510 56 L510 124 C455 64 390 33 321 33 C195 33 86 138 86 260 C86 386 194 492 321 492 C391 492 453 461 510 397 L510 466 Z M472 698 L434 729 L326 647 L220 729 L180 698 L326 585 L472 698 Z " />
<glyph glyph-name="Dcaron" unicode="&#x10e;" horiz-adv-x="693" d="M80 -134 L238 -134 C363 -134 454 -99 531 -23 C607 53 649 155 649 267 C649 378 607 481 531 556 C455 632 363 667 238 667 L80 667 L80 -134 Z M132 -86 L132 619 L237 619 C340 619 422 589 487 527 C556 461 595 368 595 267 C595 165 556 72 487 6 C421 -56 340 -86 237 -86 L132 -86 Z M442 850 L399 884 L292 794 L185 884 L142 850 L292 724 L442 850 Z " />
<glyph glyph-name="dcaron" unicode="&#x10f;" horiz-adv-x="523" d="M68 0 L186 0 C271 0 334 23 386 74 C438 124 467 192 467 267 C467 341 438 409 386 460 C333 510 271 533 186 533 L68 533 L68 0 Z M116 45 L116 488 L185 488 C322 488 418 396 418 266 C418 137 321 45 185 45 L116 45 Z M364 698 L325 729 L218 647 L111 729 L71 698 L218 585 L364 698 Z " />
<glyph glyph-name="Dcroat" unicode="&#x110;" horiz-adv-x="706" d="M93 -134 L251 -134 C375 -134 467 -99 544 -23 C620 52 662 155 662 266 C662 378 620 481 544 556 C467 632 376 667 251 667 L93 667 L93 326 L13 326 L13 278 L93 278 L93 -134 Z M145 -86 L145 278 L345 278 L345 326 L145 326 L145 619 L250 619 C353 619 435 589 500 527 C569 461 608 368 608 266 C608 164 570 72 500 6 C434 -56 353 -86 250 -86 L145 -86 Z " />
<glyph glyph-name="dcroat" unicode="&#x111;" horiz-adv-x="515" d="M79 245 L79 0 L197 0 C282 0 345 23 397 74 C449 124 478 192 478 266 C478 341 449 409 397 459 C345 510 282 533 197 533 L79 533 L79 291 L11 291 L11 245 L79 245 Z M127 245 L262 245 L262 291 L127 291 L127 488 L196 488 C333 488 429 396 429 266 C429 137 333 45 196 45 L127 45 L127 245 Z " />
<glyph glyph-name="Emacron" unicode="&#x112;" horiz-adv-x="514" d="M464 619 L464 667 L80 667 L80 -134 L464 -134 L464 -86 L132 -86 L132 281 L456 281 L456 329 L132 329 L132 619 L464 619 Z M108 823 L108 771 L436 771 L436 823 L108 823 Z " />
<glyph glyph-name="emacron" unicode="&#x113;" horiz-adv-x="389" d="M347 488 L347 533 L68 533 L68 0 L347 0 L347 45 L116 45 L116 268 L342 268 L342 314 L116 314 L116 488 L347 488 Z M67 665 L67 618 L347 618 L347 665 L67 665 Z " />
<glyph glyph-name="Ebreve" unicode="&#x114;" horiz-adv-x="514" d="M464 619 L464 667 L80 667 L80 -134 L464 -134 L464 -86 L132 -86 L132 281 L456 281 L456 329 L132 329 L132 619 L464 619 Z M124 869 C135 781 192 727 273 727 C355 727 412 781 422 869 L372 869 C356 808 326 780 273 780 C221 780 191 808 175 869 L124 869 Z " />
<glyph glyph-name="ebreve" unicode="&#x115;" horiz-adv-x="389" d="M347 488 L347 533 L68 533 L68 0 L347 0 L347 45 L116 45 L116 268 L342 268 L342 314 L116 314 L116 488 L347 488 Z M45 714 C56 646 114 602 195 602 C276 602 335 646 345 714 L299 714 C283 669 250 648 195 648 C141 648 108 669 91 714 L45 714 Z " />
<glyph glyph-name="Edotaccent" unicode="&#x116;" horiz-adv-x="514" d="M464 619 L464 667 L80 667 L80 -134 L464 -134 L464 -86 L132 -86 L132 281 L456 281 L456 329 L132 329 L132 619 L464 619 Z M273 849 C246 849 224 827 224 801 C224 774 246 752 273 752 C299 752 321 774 321 801 C321 828 300 849 273 849 L273 849 Z " />
<glyph glyph-name="edotaccent" unicode="&#x117;" horiz-adv-x="389" d="M347 488 L347 533 L68 533 L68 0 L347 0 L347 45 L116 45 L116 268 L341 268 L341 314 L116 314 L116 488 L347 488 Z M209 706 C184 706 163 685 163 661 C163 635 183 614 209 614 C234 614 255 635 255 660 C255 686 234 706 209 706 L209 706 Z " />
<glyph glyph-name="Eogonek" unicode="&#x118;" horiz-adv-x="514" d="M464 -86 L132 -86 L132 281 L456 281 L456 329 L132 329 L132 619 L464 619 L464 667 L80 667 L80 -134 L408 -134 C338 -171 310 -208 310 -261 C310 -322 350 -359 415 -359 C440 -359 457 -355 486 -343 L498 -293 C467 -310 451 -315 427 -315 C387 -315 365 -294 365 -255 C365 -211 394 -176 464 -134 L464 -86 Z " />
<glyph glyph-name="eogonek" unicode="&#x119;" horiz-adv-x="389" d="M347 45 L116 45 L116 268 L341 268 L341 314 L116 314 L116 488 L347 488 L347 533 L68 533 L68 0 L298 0 C242 -40 219 -74 219 -118 C219 -174 269 -217 333 -217 C350 -217 361 -215 389 -208 L400 -164 C366 -173 354 -175 336 -175 C294 -175 265 -151 265 -115 C265 -80 292 -43 347 0 L347 45 Z " />
<glyph glyph-name="Ecaron" unicode="&#x11a;" horiz-adv-x="514" d="M464 619 L464 667 L80 667 L80 -134 L464 -134 L464 -86 L132 -86 L132 281 L456 281 L456 329 L132 329 L132 619 L464 619 Z M423 850 L380 884 L273 794 L167 884 L124 850 L273 724 L423 850 Z " />
<glyph glyph-name="ecaron" unicode="&#x11b;" horiz-adv-x="389" d="M346 488 L346 533 L68 533 L68 0 L346 0 L346 45 L116 45 L116 268 L341 268 L341 314 L116 314 L116 488 L346 488 Z M355 698 L317 729 L209 647 L103 729 L63 698 L209 585 L355 698 Z " />
<glyph glyph-name="Gbreve" unicode="&#x11e;" horiz-adv-x="885" d="M504 250 L504 202 L786 202 C782 133 772 94 749 55 C696 -35 573 -99 456 -99 C260 -99 96 65 96 261 C96 461 262 629 459 629 C542 629 627 597 689 544 C714 523 732 502 766 457 L807 490 C768 541 744 566 711 592 C641 647 552 678 461 678 C231 678 43 491 43 263 C43 38 231 -148 457 -148 C596 -148 734 -73 797 37 C831 95 841 147 841 250 L504 250 Z M313 869 C324 781 381 727 462 727 C544 727 600 781 611 869 L561 869 C545 808 514 780 462 780 C410 780 380 807 364 869 L313 869 Z " />
<glyph glyph-name="gbreve" unicode="&#x11f;" horiz-adv-x="621" d="M351 259 L351 214 L533 214 C531 177 524 152 510 130 C474 73 395 33 319 33 C192 33 85 136 85 259 C85 386 193 492 321 492 C375 492 433 471 471 438 C489 422 503 407 526 376 L565 406 C490 499 419 537 322 537 C165 537 36 413 36 260 C36 112 165 -12 319 -12 C414 -12 510 38 553 111 C577 151 584 184 583 259 L351 259 Z M178 714 C189 646 248 602 329 602 C409 602 468 646 479 714 L433 714 C416 669 383 648 329 648 C274 648 241 669 224 714 L178 714 Z " />
<glyph glyph-name="Gcommaaccent" unicode="&#x122;" horiz-adv-x="885" d="M504 250 L504 202 L786 202 C782 133 772 94 749 55 C696 -35 573 -99 456 -99 C260 -99 96 65 96 261 C96 461 262 629 459 629 C542 629 627 597 689 544 C714 523 732 502 766 457 L807 490 C768 541 744 566 711 592 C641 647 552 678 461 678 C231 678 43 491 43 263 C43 38 231 -148 457 -148 C596 -148 734 -73 797 37 C831 95 841 147 841 250 L504 250 Z M422 -190 L371 -369 L409 -380 L481 -207 L422 -190 Z " />
<glyph glyph-name="gcommaaccent" unicode="&#x123;" horiz-adv-x="621" d="M351 259 L351 214 L533 214 C531 177 524 152 510 130 C474 73 395 33 319 33 C192 33 85 136 85 259 C85 386 193 492 321 492 C375 492 433 471 471 438 C489 422 503 407 526 376 L565 406 C490 499 419 537 322 537 C165 537 36 413 36 260 C36 112 165 -12 319 -12 C414 -12 510 38 553 111 C577 151 584 184 583 259 L351 259 Z M297 -58 L244 -233 L282 -246 L346 -73 L297 -58 Z " />
<glyph glyph-name="Imacron" unicode="&#x12a;" horiz-adv-x="212" d="M132 667 L80 667 L80 -134 L132 -134 L132 667 Z M-14 823 L-14 771 L226 771 L226 823 L-14 823 Z " />
<glyph glyph-name="imacron" unicode="&#x12b;" horiz-adv-x="184" d="M116 533 L68 533 L68 0 L116 0 L116 533 Z M5 665 L5 618 L179 618 L179 665 L5 665 Z " />
<glyph glyph-name="Iogonek" unicode="&#x12e;" horiz-adv-x="212" d="M132 667 L80 667 L80 -134 C35 -168 14 -207 14 -258 C14 -319 52 -359 111 -359 C130 -359 144 -355 162 -346 L174 -296 C151 -311 139 -315 122 -315 C88 -315 69 -292 69 -252 C69 -204 88 -168 132 -134 L132 667 Z " />
<glyph glyph-name="iogonek" unicode="&#x12f;" horiz-adv-x="184" d="M116 533 L68 533 L68 0 C12 -40 -11 -74 -11 -118 C-11 -174 39 -217 103 -217 C119 -217 130 -215 158 -207 L169 -164 C133 -173 123 -175 106 -175 C64 -175 35 -151 35 -115 C35 -80 57 -49 116 0 L116 533 Z " />
<glyph glyph-name="Idotaccent" unicode="&#x130;" horiz-adv-x="212" d="M132 667 L80 667 L80 -134 L132 -134 L132 667 Z M106 849 C79 849 57 827 57 801 C57 774 79 752 106 752 C132 752 154 774 154 801 C154 828 133 849 106 849 L106 849 Z " />
<glyph glyph-name="dotlessi" unicode="&#x131;" horiz-adv-x="184" d="M116 533 L68 533 L68 0 L116 0 L116 533 Z " />
<glyph glyph-name="Kcommaaccent" unicode="&#x136;" horiz-adv-x="604" d="M132 295 L132 667 L80 667 L80 -134 L132 -134 L132 227 L152 247 L527 -134 L603 -134 L187 281 L579 667 L508 667 L132 295 Z M290 -190 L239 -369 L276 -380 L349 -207 L290 -190 Z " />
<glyph glyph-name="kcommaaccent" unicode="&#x137;" horiz-adv-x="447" d="M116 295 L116 533 L68 533 L68 0 L116 0 L116 238 L125 247 L377 0 L447 0 L163 279 L432 533 L365 533 L116 295 Z M197 -58 L143 -233 L181 -246 L245 -73 L197 -58 Z " />
<glyph glyph-name="Lacute" unicode="&#x139;" horiz-adv-x="368" d="M132 667 L80 667 L80 -134 L335 -134 L335 -86 L132 -86 L132 667 Z M275 846 L220 884 L74 754 L116 723 L275 846 Z " />
<glyph glyph-name="lacute" unicode="&#x13a;" horiz-adv-x="291" d="M116 533 L68 533 L68 0 L263 0 L263 45 L116 45 L116 533 Z M237 741 L185 771 L75 607 L111 587 L237 741 Z " />
<glyph glyph-name="Lcommaaccent" unicode="&#x13b;" horiz-adv-x="368" d="M132 667 L80 667 L80 -134 L335 -134 L335 -86 L132 -86 L132 667 Z M188 -190 L136 -369 L174 -380 L246 -207 L188 -190 Z " />
<glyph glyph-name="lcommaaccent" unicode="&#x13c;" horiz-adv-x="291" d="M116 533 L68 533 L68 0 L263 0 L263 45 L116 45 L116 533 Z M136 -58 L83 -233 L121 -246 L185 -73 L136 -58 Z " />
<glyph glyph-name="Lcaron" unicode="&#x13d;" horiz-adv-x="368" d="M132 667 L80 667 L80 -134 L335 -134 L335 -86 L132 -86 L132 667 Z M249 675 L197 488 L235 477 L308 659 L249 675 Z " />
<glyph glyph-name="lcaron" unicode="&#x13e;" horiz-adv-x="297" d="M116 533 L68 533 L68 0 L263 0 L263 45 L116 45 L116 533 Z M221 537 L167 362 L205 349 L269 523 L221 537 Z " />
<glyph glyph-name="Lslash" unicode="&#x141;" horiz-adv-x="381" d="M146 310 L146 667 L94 667 L94 284 L12 221 L12 164 L94 227 L94 -134 L348 -134 L348 -86 L146 -86 L146 253 L281 353 L281 411 L146 310 Z " />
<glyph glyph-name="lslash" unicode="&#x142;" horiz-adv-x="303" d="M127 291 L127 533 L79 533 L79 257 L27 220 L27 162 L79 199 L79 0 L274 0 L274 45 L127 45 L127 233 L234 309 L234 367 L127 291 Z " />
<glyph glyph-name="Nacute" unicode="&#x143;" horiz-adv-x="884" d="M80 -134 L132 -134 L132 550 L804 -154 L804 667 L752 667 L752 -29 L80 676 L80 -134 Z M588 846 L533 884 L387 754 L429 723 L588 846 Z " />
<glyph glyph-name="nacute" unicode="&#x144;" horiz-adv-x="635" d="M68 0 L116 0 L116 432 L567 -24 L567 533 L519 533 L519 93 L68 550 L68 0 Z M435 741 L383 771 L273 607 L309 587 L435 741 Z " />
<glyph glyph-name="Ncommaaccent" unicode="&#x145;" horiz-adv-x="884" d="M80 -134 L132 -134 L132 550 L804 -154 L804 667 L752 667 L752 -29 L80 676 L80 -134 Z M418 -190 L367 -369 L404 -380 L477 -207 L418 -190 Z " />
<glyph glyph-name="ncommaaccent" unicode="&#x146;" horiz-adv-x="635" d="M68 0 L116 0 L116 432 L567 -24 L567 533 L519 533 L519 93 L68 550 L68 0 Z M302 -58 L249 -233 L287 -246 L351 -73 L302 -58 Z " />
<glyph glyph-name="Ncaron" unicode="&#x147;" horiz-adv-x="884" d="M80 -134 L132 -134 L132 550 L804 -154 L804 667 L752 667 L752 -29 L80 676 L80 -134 Z M592 850 L549 884 L442 794 L336 884 L292 850 L442 724 L592 850 Z " />
<glyph glyph-name="ncaron" unicode="&#x148;" horiz-adv-x="635" d="M68 0 L116 0 L116 432 L567 -24 L567 533 L519 533 L519 93 L68 550 L68 0 Z M464 698 L425 729 L318 647 L211 729 L171 698 L318 585 L464 698 Z " />
<glyph glyph-name="Omacron" unicode="&#x14c;" horiz-adv-x="917" d="M458 678 C235 678 43 490 43 272 C43 166 80 68 150 -9 C228 -95 343 -147 455 -147 C685 -147 873 39 873 266 C873 491 685 678 458 678 L458 678 Z M458 629 C545 629 636 593 702 531 C779 460 819 369 819 266 C819 66 655 -98 455 -98 C370 -98 281 -62 214 0 C137 70 97 163 97 271 C97 464 263 629 458 629 L458 629 Z M294 823 L294 771 L622 771 L622 823 L294 823 Z " />
<glyph glyph-name="omacron" unicode="&#x14d;" horiz-adv-x="641" d="M321 537 C168 537 37 412 37 267 C37 114 164 -12 319 -12 C476 -12 605 112 605 263 C605 413 477 537 321 537 L321 537 Z M321 492 C449 492 556 388 556 263 C556 136 449 33 319 33 C191 33 86 138 86 266 C86 388 194 492 321 492 L321 492 Z M181 665 L181 618 L461 618 L461 665 L181 665 Z " />
<glyph glyph-name="Ohungarumlaut" unicode="&#x150;" horiz-adv-x="917" d="M458 678 C235 678 43 490 43 272 C43 166 80 68 150 -9 C228 -95 343 -147 455 -147 C685 -147 873 39 873 266 C873 491 685 678 458 678 L458 678 Z M458 629 C545 629 636 593 702 531 C779 460 819 369 819 266 C819 66 655 -98 455 -98 C370 -98 281 -62 214 0 C137 70 97 163 97 271 C97 464 263 629 458 629 L458 629 Z M697 846 L645 884 L499 754 L538 723 L697 846 Z M529 846 L477 884 L331 754 L370 723 L529 846 Z " />
<glyph glyph-name="ohungarumlaut" unicode="&#x151;" horiz-adv-x="641" d="M321 537 C168 537 37 412 37 267 C37 114 164 -12 319 -12 C476 -12 605 112 605 263 C605 413 477 537 321 537 L321 537 Z M321 492 C449 492 556 388 556 263 C556 136 449 33 319 33 C191 33 86 138 86 266 C86 388 194 492 321 492 L321 492 Z M370 741 L320 771 L219 607 L252 587 L370 741 Z M503 741 L453 771 L352 607 L385 587 L503 741 Z " />
<glyph glyph-name="OE" unicode="&#x152;" horiz-adv-x="1252" d="M1202 619 L1202 667 L819 667 L819 459 C748 595 611 678 460 678 C231 678 43 491 43 265 C43 41 234 -148 461 -148 C551 -148 640 -116 714 -57 C762 -19 788 14 819 72 L819 -134 L1202 -134 L1202 -86 L871 -86 L871 280 L1194 280 L1194 328 L871 328 L871 619 L1202 619 Z M460 629 C657 629 818 465 818 265 C818 65 654 -99 455 -99 C373 -99 285 -64 217 -4 C138 67 97 161 97 269 C97 462 266 629 460 629 L460 629 Z " />
<glyph glyph-name="oe" unicode="&#x153;" horiz-adv-x="859" d="M817 488 L817 533 L547 533 L547 415 C515 456 494 476 470 492 C425 521 370 537 317 537 C164 537 37 413 37 262 C37 113 165 -12 318 -12 C360 -12 403 -2 444 18 C481 36 504 57 547 110 L547 0 L817 0 L817 45 L595 45 L595 268 L812 268 L812 313 L595 313 L595 488 L817 488 Z M318 493 C444 493 547 389 547 263 C547 136 443 32 315 32 C190 32 86 138 86 265 C86 387 194 493 318 493 L318 493 Z " />
<glyph glyph-name="Racute" unicode="&#x154;" horiz-adv-x="507" d="M215 244 C279 247 312 254 342 270 C407 305 444 371 444 455 C444 529 415 590 364 626 C321 656 275 667 194 667 L80 667 L80 -134 L132 -134 L132 244 L156 244 L413 -134 L477 -134 L215 244 Z M132 292 L132 619 L197 619 C251 619 290 611 320 595 C364 571 391 518 391 456 C391 352 325 292 209 292 L132 292 Z M370 846 L315 884 L169 754 L211 723 L370 846 Z " />
<glyph glyph-name="racute" unicode="&#x155;" horiz-adv-x="387" d="M184 246 C238 251 263 259 289 282 C318 308 334 344 334 388 C334 439 313 481 276 506 C247 526 214 533 157 533 L68 533 L68 0 L116 0 L116 245 L128 245 L303 0 L361 0 L184 246 Z M116 290 L116 488 L159 488 C244 488 285 456 285 389 C285 326 243 290 166 290 L116 290 Z M307 741 L254 771 L145 607 L180 587 L307 741 Z " />
<glyph glyph-name="Rcommaaccent" unicode="&#x156;" horiz-adv-x="507" d="M215 244 C279 247 312 254 342 270 C407 305 444 371 444 455 C444 529 415 590 364 626 C321 656 275 667 194 667 L80 667 L80 -134 L132 -134 L132 244 L156 244 L413 -134 L477 -134 L215 244 Z M132 292 L132 619 L197 619 C251 619 290 611 320 595 C364 571 391 518 391 456 C391 352 325 292 209 292 L132 292 Z M235 -190 L183 -369 L221 -380 L293 -207 L235 -190 Z " />
<glyph glyph-name="rcommaaccent" unicode="&#x157;" horiz-adv-x="387" d="M184 246 C238 251 263 259 289 282 C318 308 334 344 334 388 C334 439 313 481 276 506 C247 526 214 533 157 533 L68 533 L68 0 L116 0 L116 245 L128 245 L303 0 L361 0 L184 246 Z M116 290 L116 488 L159 488 C244 488 285 456 285 389 C285 326 243 290 166 290 L116 290 Z M174 -58 L120 -233 L158 -246 L222 -73 L174 -58 Z " />
<glyph glyph-name="Rcaron" unicode="&#x158;" horiz-adv-x="507" d="M215 244 C279 247 312 254 342 270 C407 305 444 371 444 455 C444 529 415 590 364 626 C321 656 275 667 194 667 L80 667 L80 -134 L132 -134 L132 244 L156 244 L413 -134 L477 -134 L215 244 Z M132 292 L132 619 L197 619 C251 619 290 611 320 595 C364 571 391 518 391 456 C391 352 325 292 209 292 L132 292 Z M386 850 L343 884 L236 794 L130 884 L86 850 L236 724 L386 850 Z " />
<glyph glyph-name="rcaron" unicode="&#x159;" horiz-adv-x="387" d="M184 246 C238 251 263 259 289 282 C318 308 334 344 334 388 C334 439 313 481 276 506 C247 526 214 533 157 533 L68 533 L68 0 L116 0 L116 245 L128 245 L303 0 L361 0 L184 246 Z M116 290 L116 488 L159 488 C244 488 285 456 285 389 C285 326 243 290 166 290 L116 290 Z M335 698 L297 729 L189 647 L83 729 L43 698 L189 585 L335 698 Z " />
<glyph glyph-name="Sacute" unicode="&#x15a;" horiz-adv-x="554" d="M477 564 C435 637 364 678 282 678 C163 678 76 594 76 478 C76 392 113 348 235 288 C354 229 358 227 384 212 C436 182 463 140 463 88 C463 -14 374 -98 267 -98 C209 -98 153 -72 119 -30 C103 -11 94 6 75 46 L30 25 C47 -16 59 -38 80 -62 C126 -117 193 -147 266 -147 C405 -147 517 -41 517 89 C517 153 488 206 432 242 C397 265 373 277 273 326 C162 378 130 413 130 477 C130 563 195 629 281 629 C349 629 392 603 438 532 L477 564 Z M420 846 L364 884 L218 754 L260 723 L420 846 Z " />
<glyph glyph-name="sacute" unicode="&#x15b;" horiz-adv-x="404" d="M350 454 C318 508 268 537 206 537 C120 537 58 479 58 401 C58 358 77 324 114 301 C136 287 164 273 218 249 C303 211 324 190 324 148 C324 85 266 33 196 33 C159 33 122 49 100 75 C89 88 83 99 68 130 L26 110 C40 78 48 63 64 45 C96 9 144 -12 196 -12 C294 -12 373 60 373 148 C373 192 352 228 311 253 C286 269 272 276 201 308 C128 341 107 361 107 400 C107 452 149 492 205 492 C253 492 279 476 314 424 L350 454 Z M334 741 L281 771 L172 607 L207 587 L334 741 Z " />
<glyph glyph-name="scircumflex" unicode="&#x15d;" horiz-adv-x="404" d="M350 454 C318 508 268 537 206 537 C120 537 58 479 58 401 C58 358 77 324 114 301 C136 287 164 273 218 249 C303 211 324 190 324 148 C324 85 266 33 196 33 C159 33 122 49 100 75 C89 88 83 99 68 130 L26 110 C40 78 48 63 64 45 C96 9 144 -12 196 -12 C294 -12 373 60 373 148 C373 192 352 228 311 253 C286 269 272 276 201 308 C128 341 107 361 107 400 C107 452 149 492 205 492 C253 492 279 476 314 424 L350 454 Z M70 617 L108 587 L215 669 L322 587 L362 617 L215 730 L70 617 Z " />
<glyph glyph-name="Scedilla" unicode="&#x15e;" horiz-adv-x="554" d="M477 564 C435 637 364 678 282 678 C163 678 76 594 76 478 C76 392 113 348 235 288 C354 229 358 227 384 212 C436 182 463 140 463 88 C463 -14 374 -98 267 -98 C209 -98 153 -72 119 -30 C103 -11 94 6 75 46 L30 25 C47 -16 59 -38 80 -62 C126 -117 193 -147 266 -147 C405 -147 517 -41 517 89 C517 153 488 206 432 242 C397 265 373 277 273 326 C162 378 130 413 130 477 C130 563 195 629 281 629 C349 629 392 603 438 532 L477 564 Z M316 -220 L256 -190 L151 -350 L193 -372 L316 -220 Z " />
<glyph glyph-name="scedilla" unicode="&#x15f;" horiz-adv-x="404" d="M350 454 C318 508 268 537 206 537 C120 537 58 479 58 401 C58 358 77 324 114 301 C136 287 164 273 218 249 C303 211 324 190 324 148 C324 85 266 33 196 33 C159 33 122 49 100 75 C89 88 83 99 68 130 L26 110 C40 78 48 63 64 45 C96 9 144 -12 196 -12 C294 -12 373 60 373 148 C373 192 352 228 311 253 C286 269 272 276 201 308 C128 341 107 361 107 400 C107 452 149 492 205 492 C253 492 279 476 314 424 L350 454 Z M265 -84 L206 -60 L108 -214 L148 -233 L265 -84 Z " />
<glyph glyph-name="Scaron" unicode="&#x160;" horiz-adv-x="554" d="M477 564 C435 637 364 678 282 678 C163 678 76 594 76 478 C76 392 113 348 235 288 C354 229 358 227 384 212 C436 182 463 140 463 88 C463 -14 374 -98 267 -98 C209 -98 153 -72 119 -30 C103 -11 94 6 75 46 L30 25 C47 -16 59 -38 80 -62 C126 -117 193 -147 266 -147 C405 -147 517 -41 517 89 C517 153 488 206 432 242 C397 265 373 277 273 326 C162 378 130 413 130 477 C130 563 195 629 281 629 C349 629 392 603 438 532 L477 564 Z M434 850 L391 884 L284 794 L177 884 L134 850 L284 724 L434 850 Z " />
<glyph glyph-name="scaron" unicode="&#x161;" horiz-adv-x="404" d="M350 454 C318 508 268 537 206 537 C120 537 58 479 58 401 C58 358 77 324 114 301 C136 287 164 273 218 249 C303 211 324 190 324 148 C324 85 266 33 196 33 C159 33 122 49 100 75 C89 88 83 99 68 130 L26 110 C40 78 48 63 64 45 C96 9 144 -12 196 -12 C294 -12 373 60 373 148 C373 192 352 228 311 253 C286 269 272 276 201 308 C128 341 107 361 107 400 C107 452 149 492 205 492 C253 492 279 476 314 424 L350 454 Z M362 698 L324 729 L216 647 L110 729 L70 698 L216 585 L362 698 Z " />
<glyph glyph-name="Tcommaaccent" unicode="&#x162;" horiz-adv-x="499" d="M275 619 L483 619 L483 667 L17 667 L17 619 L223 619 L223 -134 L275 -134 L275 619 Z M219 -190 L168 -369 L206 -380 L278 -207 L219 -190 Z " />
<glyph glyph-name="tcommaaccent" unicode="&#x163;" horiz-adv-x="360" d="M203 488 L346 488 L346 533 L14 533 L14 488 L155 488 L155 0 L203 0 L203 488 Z M165 -58 L111 -233 L149 -246 L213 -73 L165 -58 Z " />
<glyph glyph-name="Tcaron" unicode="&#x164;" horiz-adv-x="499" d="M275 619 L483 619 L483 667 L17 667 L17 619 L223 619 L223 -134 L275 -134 L275 619 Z M400 850 L357 884 L250 794 L144 884 L100 850 L250 724 L400 850 Z " />
<glyph glyph-name="tcaron" unicode="&#x165;" horiz-adv-x="360" d="M203 488 L346 488 L346 533 L14 533 L14 488 L155 488 L155 0 L203 0 L203 488 Z M326 698 L288 729 L180 647 L74 729 L34 698 L180 585 L326 698 Z " />
<glyph glyph-name="Umacron" unicode="&#x16a;" horiz-adv-x="691" d="M125 667 L73 667 L73 152 C73 46 81 8 115 -38 C163 -105 252 -147 346 -147 C439 -147 528 -105 576 -38 C610 8 618 46 618 152 L618 667 L566 667 L566 166 C566 67 560 30 537 -6 C503 -59 423 -98 346 -98 C268 -98 188 -60 154 -6 C131 30 125 67 125 166 L125 667 Z M181 823 L181 771 L510 771 L510 823 L181 823 Z " />
<glyph glyph-name="umacron" unicode="&#x16b;" horiz-adv-x="507" d="M110 533 L62 533 L62 189 C62 119 68 94 91 62 C126 15 185 -12 254 -12 C322 -12 381 15 415 61 C439 94 445 120 445 189 L445 533 L397 533 L397 198 C397 135 393 112 378 90 C356 56 306 33 254 33 C201 33 151 56 129 90 C114 112 110 135 110 198 L110 533 Z M113 665 L113 618 L394 618 L394 665 L113 665 Z " />
<glyph glyph-name="Uring" unicode="&#x16e;" horiz-adv-x="691" d="M125 667 L73 667 L73 152 C73 46 81 8 115 -38 C163 -105 252 -147 346 -147 C439 -147 528 -105 576 -38 C610 8 618 46 618 152 L618 667 L566 667 L566 166 C566 67 560 30 537 -6 C503 -59 423 -98 346 -98 C268 -98 188 -60 154 -6 C131 30 125 67 125 166 L125 667 Z M345 907 C293 907 249 864 249 812 C249 758 292 715 345 715 C398 715 441 758 441 811 C441 864 398 907 345 907 L345 907 Z M345 860 C373 860 395 838 395 811 C395 783 373 761 345 761 C317 761 295 783 295 811 C295 838 318 860 345 860 L345 860 Z " />
<glyph glyph-name="uring" unicode="&#x16f;" horiz-adv-x="507" d="M110 533 L62 533 L62 189 C62 119 68 94 91 62 C126 15 185 -12 254 -12 C322 -12 381 15 415 61 C439 94 445 120 445 189 L445 533 L397 533 L397 198 C397 135 393 112 378 90 C356 56 306 33 254 33 C201 33 151 56 129 90 C114 112 110 135 110 198 L110 533 Z M253 778 C203 778 161 737 161 687 C161 635 202 594 254 594 C305 594 346 635 346 686 C346 737 305 778 253 778 L253 778 Z M253 735 C282 735 304 713 304 686 C304 658 282 636 254 636 C225 636 203 658 203 686 C203 713 226 735 253 735 L253 735 Z " />
<glyph glyph-name="Uhungarumlaut" unicode="&#x170;" horiz-adv-x="691" d="M125 667 L73 667 L73 152 C73 46 81 8 115 -38 C163 -105 252 -147 346 -147 C439 -147 528 -105 576 -38 C610 8 618 46 618 152 L618 667 L566 667 L566 166 C566 67 560 30 537 -6 C503 -59 423 -98 346 -98 C268 -98 188 -60 154 -6 C131 30 125 67 125 166 L125 667 Z M581 846 L528 884 L382 754 L421 723 L581 846 Z M412 846 L360 884 L214 754 L253 723 L412 846 Z " />
<glyph glyph-name="uhungarumlaut" unicode="&#x171;" horiz-adv-x="507" d="M110 533 L62 533 L62 189 C62 119 68 94 91 62 C126 15 185 -12 254 -12 C322 -12 381 15 415 61 C439 94 445 120 445 189 L445 533 L397 533 L397 198 C397 135 393 112 378 90 C356 56 306 33 254 33 C201 33 151 56 129 90 C114 112 110 135 110 198 L110 533 Z M303 741 L252 771 L151 607 L184 587 L303 741 Z M436 741 L385 771 L284 607 L317 587 L436 741 Z " />
<glyph glyph-name="Uogonek" unicode="&#x172;" horiz-adv-x="691" d="M545 -277 C515 -294 498 -299 474 -299 C434 -299 412 -277 412 -240 C412 -197 441 -156 509 -103 C600 -32 618 9 618 152 L618 667 L566 667 L566 166 C566 67 560 30 537 -6 C503 -59 423 -98 346 -98 C268 -98 188 -60 154 -6 C131 30 125 67 125 166 L125 667 L73 667 L73 152 C73 46 81 8 115 -38 C163 -105 252 -147 346 -147 C373 -147 391 -145 424 -137 C376 -169 357 -200 357 -246 C357 -306 397 -343 463 -343 C487 -343 504 -339 533 -327 L545 -277 Z " />
<glyph glyph-name="uogonek" unicode="&#x173;" horiz-adv-x="507" d="M397 533 L397 198 C397 135 393 112 378 90 C356 56 306 33 254 33 C201 33 151 56 129 90 C114 112 110 135 110 198 L110 533 L62 533 L62 189 C62 119 68 94 91 62 C126 15 185 -12 253 -12 C265 -12 273 -11 288 -10 C263 -37 250 -65 250 -94 C250 -150 300 -193 364 -193 C380 -193 390 -191 419 -184 L430 -140 C395 -149 384 -151 367 -151 C325 -151 296 -127 296 -91 C296 -57 321 -22 380 27 C433 70 445 99 445 189 L445 533 L397 533 Z " />
<glyph glyph-name="Ydieresis" unicode="&#x178;" horiz-adv-x="598" d="M269 208 L269 -134 L321 -134 L321 208 L592 667 L530 667 L296 265 L68 667 L7 667 L269 208 Z M188 844 C163 844 142 823 142 799 C142 773 162 752 188 752 C213 752 234 773 234 798 C234 824 214 844 188 844 L188 844 Z M411 844 C386 844 365 823 365 799 C365 773 386 752 411 752 C436 752 457 773 457 798 C457 824 437 844 411 844 L411 844 Z " />
<glyph glyph-name="Zacute" unicode="&#x179;" horiz-adv-x="620" d="M101 -86 L589 667 L58 667 L58 619 L500 619 L11 -134 L575 -134 L575 -86 L101 -86 Z M462 846 L407 884 L261 754 L303 723 L462 846 Z " />
<glyph glyph-name="zacute" unicode="&#x17a;" horiz-adv-x="452" d="M93 45 L425 533 L45 533 L45 488 L341 488 L9 0 L410 0 L410 45 L93 45 Z M335 741 L283 771 L173 607 L209 587 L335 741 Z " />
<glyph glyph-name="Zdotaccent" unicode="&#x17b;" horiz-adv-x="620" d="M101 -86 L589 667 L58 667 L58 619 L500 619 L11 -134 L575 -134 L575 -86 L101 -86 Z M324 849 C298 849 276 827 276 801 C276 774 297 752 325 752 C351 752 373 774 373 801 C373 828 351 849 324 849 L324 849 Z " />
<glyph glyph-name="zdotaccent" unicode="&#x17c;" horiz-adv-x="452" d="M93 45 L425 533 L45 533 L45 488 L341 488 L9 0 L410 0 L410 45 L93 45 Z M217 706 C192 706 171 685 171 661 C171 635 191 614 217 614 C242 614 263 635 263 660 C263 685 242 706 217 706 L217 706 Z " />
<glyph glyph-name="Zcaron" unicode="&#x17d;" horiz-adv-x="620" d="M101 -86 L589 667 L58 667 L58 619 L500 619 L11 -134 L575 -134 L575 -86 L101 -86 Z M474 850 L431 884 L324 794 L218 884 L175 850 L324 724 L474 850 Z " />
<glyph glyph-name="zcaron" unicode="&#x17e;" horiz-adv-x="452" d="M93 45 L425 533 L45 533 L45 488 L341 488 L9 0 L410 0 L410 45 L93 45 Z M364 698 L325 729 L218 647 L111 729 L71 698 L218 585 L364 698 Z " />
<glyph glyph-name="florin" unicode="&#x192;" horiz-adv-x="331" d="M174 372 L200 514 C206 548 210 562 215 573 C223 588 239 597 260 597 C275 597 280 596 302 586 L310 624 C286 635 278 637 259 637 C229 637 201 624 186 603 C176 589 170 571 164 539 L133 372 L82 372 L73 333 L125 333 L65 18 C53 -46 39 -65 3 -65 C-13 -65 -24 -62 -50 -53 L-59 -91 C-33 -100 -15 -104 4 -104 C41 -104 67 -89 84 -58 C94 -40 101 -15 111 40 L166 333 L253 333 L261 372 L174 372 Z " />
<glyph glyph-name="uni01D3" unicode="&#x1d3;" horiz-adv-x="691" d="M125 667 L73 667 L73 152 C73 46 81 8 115 -38 C163 -105 252 -147 346 -147 C439 -147 528 -105 576 -38 C610 8 618 46 618 152 L618 667 L566 667 L566 166 C566 67 560 30 537 -6 C503 -59 423 -98 346 -98 C268 -98 188 -60 154 -6 C131 30 125 67 125 166 L125 667 Z M495 850 L452 884 L345 794 L239 884 L196 850 L345 724 L495 850 Z " />
<glyph glyph-name="uni01D4" unicode="&#x1d4;" horiz-adv-x="507" d="M110 533 L62 533 L62 189 C62 119 68 94 91 62 C126 15 185 -12 254 -12 C322 -12 381 15 415 61 C439 94 445 120 445 189 L445 533 L397 533 L397 198 C397 135 393 112 378 90 C356 56 306 33 254 33 C201 33 151 56 129 90 C114 112 110 135 110 198 L110 533 Z M400 698 L361 729 L254 647 L147 729 L107 698 L254 585 L400 698 Z " />
<glyph glyph-name="Scommaaccent" unicode="&#x218;" horiz-adv-x="554" d="M477 564 C435 637 364 678 282 678 C163 678 76 594 76 478 C76 392 113 348 235 288 C354 229 358 227 384 212 C436 182 463 140 463 88 C463 -14 374 -98 267 -98 C209 -98 153 -72 119 -30 C103 -11 94 6 75 46 L30 25 C47 -16 59 -38 80 -62 C126 -117 193 -147 266 -147 C405 -147 517 -41 517 89 C517 153 488 206 432 242 C397 265 373 277 273 326 C162 378 130 413 130 477 C130 563 195 629 281 629 C349 629 392 603 438 532 L477 564 Z M256 -190 L204 -369 L242 -380 L315 -207 L256 -190 Z " />
<glyph glyph-name="scommaaccent" unicode="&#x219;" horiz-adv-x="404" d="M350 454 C318 508 268 537 206 537 C120 537 58 479 58 401 C58 358 77 324 114 301 C136 287 164 273 218 249 C303 211 324 190 324 148 C324 85 266 33 196 33 C159 33 122 49 100 75 C89 88 83 99 68 130 L26 110 C40 78 48 63 64 45 C96 9 144 -12 196 -12 C294 -12 373 60 373 148 C373 192 352 228 311 253 C286 269 272 276 201 308 C128 341 107 361 107 400 C107 452 149 492 205 492 C253 492 279 476 314 424 L350 454 Z M185 -58 L131 -233 L169 -246 L233 -73 L185 -58 Z " />
<glyph glyph-name="uni021A" unicode="&#x21a;" horiz-adv-x="499" d="M275 619 L483 619 L483 667 L17 667 L17 619 L223 619 L223 -134 L275 -134 L275 619 Z M219 -190 L168 -369 L206 -380 L278 -207 L219 -190 Z " />
<glyph glyph-name="uni021B" unicode="&#x21b;" horiz-adv-x="360" d="M203 488 L346 488 L346 533 L14 533 L14 488 L155 488 L155 0 L203 0 L203 488 Z M165 -58 L111 -233 L149 -246 L213 -73 L165 -58 Z " />
<glyph glyph-name="circumflex" unicode="&#x2c6;" horiz-adv-x="500" d="M104 617 L142 587 L250 669 L356 587 L396 617 L250 730 L104 617 Z " />
<glyph glyph-name="caron" unicode="&#x2c7;" horiz-adv-x="500" d="M396 698 L358 729 L250 647 L144 729 L104 698 L250 585 L396 698 Z " />
<glyph glyph-name="uni02C9" unicode="&#x2c9;" horiz-adv-x="500" d="M110 665 L110 618 L390 618 L390 665 L110 665 Z " />
<glyph glyph-name="breve" unicode="&#x2d8;" horiz-adv-x="500" d="M100 714 C111 646 169 602 250 602 C331 602 390 646 400 714 L354 714 C338 669 305 648 250 648 C196 648 163 669 146 714 L100 714 Z " />
<glyph glyph-name="dotaccent" unicode="&#x2d9;" horiz-adv-x="500" d="M250 706 C225 706 204 685 204 661 C204 635 224 614 250 614 C275 614 296 635 296 660 C296 686 275 706 250 706 L250 706 Z " />
<glyph glyph-name="ring" unicode="&#x2da;" horiz-adv-x="500" d="M250 778 C200 778 158 737 158 687 C158 635 199 594 250 594 C301 594 342 635 342 686 C342 737 301 778 250 778 L250 778 Z M250 735 C278 735 300 713 300 686 C300 658 278 636 250 636 C222 636 200 658 200 686 C200 713 223 735 250 735 L250 735 Z " />
<glyph glyph-name="ogonek" unicode="&#x2db;" horiz-adv-x="500" d="M363 0 C308 -39 284 -75 284 -118 C284 -174 334 -217 398 -217 C414 -217 425 -215 453 -208 L464 -164 C431 -173 418 -175 401 -175 C359 -175 330 -151 330 -115 C330 -81 354 -47 411 0 L363 0 Z " />
<glyph glyph-name="tilde" unicode="&#x2dc;" horiz-adv-x="500" d="M128 611 C139 643 153 656 175 656 C190 656 215 648 250 634 C291 616 302 613 316 613 C355 613 388 639 403 682 L372 705 C359 675 343 661 321 661 C307 661 288 667 252 683 C215 700 200 704 181 704 C145 704 118 682 97 635 L128 611 Z " />
<glyph glyph-name="hungarumlaut" unicode="&#x2dd;" horiz-adv-x="500" d="M300 741 L249 771 L148 607 L181 587 L300 741 Z M433 741 L382 771 L281 607 L314 587 L433 741 Z " />
<glyph glyph-name="uni2011" unicode="&#x2011;" horiz-adv-x="202" d="M0 272 L0 224 L202 224 L202 272 L0 272 Z " />
<glyph glyph-name="figuredash" unicode="&#x2012;" horiz-adv-x="497" d="M70 272 L70 224 L427 224 L427 272 L70 272 Z " />
<glyph glyph-name="endash" unicode="&#x2013;" horiz-adv-x="497" d="M70 272 L70 224 L427 224 L427 272 L70 272 Z " />
<glyph glyph-name="emdash" unicode="&#x2014;" horiz-adv-x="606" d="M0 272 L0 224 L606 224 L606 272 L0 272 Z " />
<glyph glyph-name="afii00208" unicode="&#x2015;" horiz-adv-x="606" d="M0 272 L0 224 L606 224 L606 272 L0 272 Z " />
<glyph glyph-name="quoteleft" unicode="&#x2018;" horiz-adv-x="220" d="M99 427 L171 670 L139 682 L50 441 L99 427 Z " />
<glyph glyph-name="quoteright" unicode="&#x2019;" horiz-adv-x="220" d="M122 682 L50 438 L82 427 L171 667 L122 682 Z " />
<glyph glyph-name="quotesinglbase" unicode="&#x201a;" horiz-adv-x="220" d="M122 83 L50 -160 L82 -172 L171 69 L122 83 Z " />
<glyph glyph-name="quotedblleft" unicode="&#x201c;" horiz-adv-x="359" d="M237 427 L310 670 L278 682 L189 441 L237 427 Z M99 427 L171 670 L139 682 L50 441 L99 427 Z " />
<glyph glyph-name="quotedblright" unicode="&#x201d;" horiz-adv-x="359" d="M122 682 L50 438 L82 427 L171 667 L122 682 Z M261 682 L189 438 L221 427 L310 667 L261 682 Z " />
<glyph glyph-name="quotedblbase" unicode="&#x201e;" horiz-adv-x="359" d="M122 83 L50 -160 L82 -172 L171 69 L122 83 Z M261 83 L189 -160 L221 -172 L310 69 L261 83 Z " />
<glyph glyph-name="dagger" unicode="&#x2020;" horiz-adv-x="547" d="M248 667 L248 455 L57 455 L57 407 L248 407 L248 -134 L300 -134 L300 407 L490 407 L490 455 L300 455 L300 667 L248 667 Z " />
<glyph glyph-name="daggerdbl" unicode="&#x2021;" horiz-adv-x="547" d="M248 667 L248 455 L57 455 L57 407 L248 407 L248 125 L57 125 L57 77 L248 77 L248 -134 L300 -134 L300 77 L490 77 L490 125 L300 125 L300 407 L490 407 L490 455 L300 455 L300 667 L248 667 Z " />
<glyph glyph-name="bullet" unicode="&#x2022;" horiz-adv-x="667" d="M336 404 C258 404 196 343 196 265 C196 189 258 127 335 127 C411 127 473 189 473 266 C473 341 411 404 336 404 L336 404 Z " />
<glyph glyph-name="ellipsis" unicode="&#x2026;" horiz-adv-x="660" d="M110 85 C86 85 66 65 66 42 C66 17 86 -3 110 -3 C134 -3 154 17 154 41 C154 65 134 85 110 85 L110 85 Z M330 85 C306 85 286 65 286 42 C286 17 306 -3 330 -3 C354 -3 374 17 374 41 C374 65 354 85 330 85 L330 85 Z M550 85 C526 85 506 65 506 42 C506 17 526 -3 550 -3 C574 -3 594 17 594 41 C594 65 574 85 550 85 L550 85 Z " />
<glyph glyph-name="perthousand" unicode="&#x2030;" horiz-adv-x="1111" d="M195 578 C107 578 34 499 34 404 C34 307 105 228 194 228 C282 228 353 307 353 405 C353 501 282 578 195 578 L195 578 Z M193 541 C259 541 312 479 312 403 C312 328 258 265 194 265 C126 265 75 325 75 403 C75 479 128 541 193 541 L193 541 Z M193 0 L229 -20 L564 573 L529 592 L193 0 Z M565 345 C477 345 404 266 404 171 C404 74 475 -5 564 -5 C652 -5 723 74 723 172 C723 268 652 345 565 345 L565 345 Z M563 308 C629 308 682 246 682 170 C682 95 628 32 564 32 C496 32 445 92 445 170 C445 246 498 308 563 308 L563 308 Z M918 345 C831 345 758 266 758 171 C758 74 829 -5 917 -5 C1005 -5 1076 74 1076 172 C1076 268 1006 345 918 345 L918 345 Z M917 308 C982 308 1035 246 1035 170 C1035 95 981 32 917 32 C850 32 799 92 799 170 C799 246 852 308 917 308 L917 308 Z " />
<glyph glyph-name="guilsinglleft" unicode="&#x2039;" horiz-adv-x="290" d="M97 267 L225 417 L195 446 L40 267 L195 87 L226 116 L97 267 Z " />
<glyph glyph-name="guilsinglright" unicode="&#x203a;" horiz-adv-x="290" d="M192 267 L64 116 L94 87 L250 267 L94 446 L64 417 L192 267 Z " />
<glyph glyph-name="uni203E" unicode="&#x203e;" horiz-adv-x="500" d="M0 849 L0 807 L500 807 L500 849 L0 849 Z " />
<glyph glyph-name="fraction" unicode="&#x2044;" horiz-adv-x="90" d="M-140 0 L-105 -20 L230 573 L195 592 L-140 0 Z " />
<glyph glyph-name="franc" unicode="&#x20a3;" horiz-adv-x="460" d="M306 533 L306 574 L70 574 L70 0 L114 0 L114 293 L300 293 L300 334 L114 334 L114 533 L306 533 Z M318 249 L318 0 L356 0 L356 134 C356 178 358 192 368 204 C377 215 390 222 402 222 C408 222 410 221 421 216 L440 251 C420 258 419 258 407 258 C385 258 369 250 356 232 L356 249 L318 249 Z " />
<glyph glyph-name="peseta" unicode="&#x20a7;" horiz-adv-x="647" d="M114 269 L184 269 C287 269 351 327 351 421 C351 463 336 501 309 529 C279 561 242 574 183 574 L70 574 L70 0 L114 0 L114 269 Z M114 310 L114 533 L179 533 C263 533 306 495 306 421 C306 354 258 310 185 310 L114 310 Z M390 214 L436 214 L436 249 L390 249 L390 336 L352 336 L352 249 L323 249 L323 214 L352 214 L352 0 L390 0 L390 214 Z M601 210 C583 243 562 257 529 257 C489 257 456 227 456 188 C456 156 476 136 529 118 C564 106 574 95 574 73 C574 46 554 26 527 26 C499 26 481 41 469 74 L436 63 C451 15 481 -8 527 -8 C577 -8 613 26 613 74 C613 114 596 132 540 153 C504 166 495 174 495 190 C495 208 511 222 530 222 C547 222 557 215 568 196 L601 210 Z " />
<glyph glyph-name="Euro" unicode="&#x20ac;" horiz-adv-x="560" d="M27 419 L5 362 L79 362 C78 348 78 337 78 328 L78 304 L27 304 L4 247 L84 247 C114 76 204 -13 348 -13 C405 -13 466 2 510 27 L510 125 C430 82 396 71 350 71 C263 71 205 132 183 247 L393 247 L417 304 L174 304 L174 325 C174 338 174 348 176 362 L442 362 L465 419 L185 419 C206 529 264 591 346 591 C399 591 438 575 510 526 L544 608 C480 654 422 674 353 674 C212 674 119 586 86 419 L27 419 Z " />
<glyph glyph-name="afii61248" unicode="&#x2105;" horiz-adv-x="273" d="M137 327 C115 327 97 309 97 288 C97 265 115 247 137 247 C159 247 177 265 177 287 C177 309 159 327 137 327 L137 327 Z " />
<glyph glyph-name="trademark" unicode="&#x2122;" horiz-adv-x="734" d="M146 628 L240 628 L240 667 L13 667 L13 628 L105 628 L105 287 L146 287 L146 628 Z M279 287 L319 287 L348 551 L486 265 L625 551 L654 287 L695 287 L650 697 L486 353 L324 698 L279 287 Z " />
<glyph glyph-name="uni2126" unicode="&#x2126;" horiz-adv-x="667" d="M28 0 L284 0 L284 40 C237 66 214 82 186 108 C114 175 75 261 75 355 C75 517 187 640 334 640 C479 640 591 516 591 356 C591 273 560 195 502 131 C470 95 439 72 382 40 L382 0 L638 0 L638 42 L438 42 C568 115 639 227 639 360 C639 544 507 683 332 683 C160 683 27 543 27 360 C27 228 98 115 228 42 L28 42 L28 0 Z " />
<glyph glyph-name="partialdiff" unicode="&#x2202;" horiz-adv-x="500" d="M97 632 C257 608 364 511 407 348 C388 375 378 387 364 399 C336 422 293 436 250 436 C130 436 38 339 38 214 C38 88 132 -13 250 -13 C317 -13 381 19 419 74 C449 115 463 166 463 234 C463 366 415 490 333 568 C273 626 205 657 103 673 L97 632 Z M259 398 C351 398 418 323 418 218 C418 108 348 27 253 27 C159 27 83 110 83 212 C83 318 159 398 259 398 L259 398 Z " />
<glyph glyph-name="emptyset" unicode="&#x2205;" horiz-adv-x="618" d="M496 655 L448 680 L395 574 C364 586 340 590 310 590 C175 590 67 482 67 347 C67 265 107 191 176 144 L123 38 L172 13 L225 119 C255 108 279 104 309 104 C444 104 552 212 552 347 C552 429 513 502 443 550 L496 655 Z M417 500 C468 462 496 408 496 347 C496 243 413 160 309 160 C288 160 273 163 251 169 L417 500 Z M202 194 C150 233 123 286 123 347 C123 451 206 534 310 534 C331 534 347 531 369 524 L202 194 Z " />
<glyph glyph-name="Delta" unicode="&#x2206;" horiz-adv-x="611" d="M5 0 L605 0 L329 667 L280 667 L5 0 Z M69 42 L305 614 L541 42 L69 42 Z " />
<glyph glyph-name="product" unicode="&#x220f;" horiz-adv-x="667" d="M30 750 L30 710 L105 710 L105 -210 L30 -210 L30 -250 L228 -250 L228 -210 L149 -210 L149 710 L518 710 L518 -210 L437 -210 L437 -250 L636 -250 L636 -210 L562 -210 L562 710 L636 710 L636 750 L30 750 Z " />
<glyph glyph-name="summation" unicode="&#x2211;" horiz-adv-x="667" d="M588 750 L35 750 L35 700 L283 271 L35 -198 L35 -250 L597 -250 L597 -33 L551 -33 L549 -206 L88 -206 L340 271 L88 705 L540 705 L543 532 L588 532 L588 750 Z " />
<glyph glyph-name="minus" unicode="&#x2212;" horiz-adv-x="547" d="M31 267 L515 267 L515 307 L31 307 L31 267 Z " />
<glyph glyph-name="uni2219" unicode="&#x2219;" horiz-adv-x="220" d="M110 311 C86 311 66 291 66 268 C66 243 86 223 110 223 C134 223 154 243 154 267 C154 291 134 311 110 311 L110 311 Z " />
<glyph glyph-name="radical" unicode="&#x221a;" horiz-adv-x="667" d="M667 827 L429 827 L194 64 L106 351 L0 351 L0 310 L76 310 L172 0 L220 0 L464 786 L667 786 L667 827 Z " />
<glyph glyph-name="infinity" unicode="&#x221e;" horiz-adv-x="667" d="M333 260 C390 173 438 139 504 139 C588 139 647 199 647 285 C647 373 589 434 505 434 C437 434 392 403 332 314 C276 400 227 435 162 435 C79 435 19 374 19 290 C19 201 77 139 161 139 C229 139 273 170 333 260 L333 260 Z M352 287 C408 372 445 400 501 400 C563 400 608 353 608 287 C608 220 564 173 502 173 C446 173 405 204 352 287 L352 287 Z M313 286 C257 201 221 173 165 173 C103 173 58 220 58 286 C58 354 101 401 163 401 C220 401 261 369 313 286 L313 286 Z " />
<glyph glyph-name="integral" unicode="&#x222b;" horiz-adv-x="500" d="M119 -239 C139 -247 149 -250 165 -250 C203 -250 241 -232 259 -205 C272 -184 275 -166 275 -90 L275 599 C275 647 277 664 283 678 C290 695 308 705 330 705 C343 705 353 702 369 695 L381 739 C353 748 345 750 327 750 C281 750 244 727 233 690 C227 671 225 647 225 581 L225 -89 C225 -147 224 -163 218 -177 C211 -194 192 -205 169 -205 C156 -205 146 -202 131 -195 L119 -239 Z " />
<glyph glyph-name="approxequal" unicode="&#x2248;" horiz-adv-x="500" d="M41 302 C74 358 101 379 138 379 C166 379 186 372 239 344 C304 310 329 301 359 301 C411 301 451 333 488 405 L458 424 C425 367 398 346 359 346 C333 346 314 353 257 383 C198 414 170 424 141 424 C88 424 50 394 11 322 L41 302 Z M41 149 C74 206 101 227 138 227 C166 227 186 220 239 192 C304 158 330 149 359 149 C411 149 451 180 488 252 L458 272 C425 215 398 194 359 194 C333 194 316 200 257 231 C198 262 170 272 141 272 C88 272 49 242 11 169 L41 149 Z " />
<glyph glyph-name="notequal" unicode="&#x2260;" horiz-adv-x="547" d="M291 363 L31 363 L31 323 L273 323 L241 256 L31 256 L31 216 L223 216 L161 85 L195 76 L261 216 L515 216 L515 256 L280 256 L311 323 L515 323 L515 363 L330 363 L389 488 L355 498 L291 363 Z " />
<glyph glyph-name="lessequal" unicode="&#x2264;" horiz-adv-x="500" d="M466 527 L33 347 L33 302 L466 121 L466 169 L88 324 L466 479 L466 527 Z M466 90 L33 90 L33 46 L466 46 L466 90 Z " />
<glyph glyph-name="greaterequal" unicode="&#x2265;" horiz-adv-x="500" d="M33 527 L33 479 L411 324 L33 169 L33 121 L466 302 L466 346 L33 527 Z M33 90 L33 46 L466 46 L466 90 L33 90 Z " />
<glyph glyph-name="fi" unicode="&#xfb01;" horiz-adv-x="523" d="M308 488 L308 533 L68 533 L68 0 L116 0 L116 268 L303 268 L303 314 L116 314 L116 488 L308 488 Z M455 533 L407 533 L407 0 L455 0 L455 533 Z " />
<glyph glyph-name="fl" unicode="&#xfb02;" horiz-adv-x="630" d="M308 488 L308 533 L68 533 L68 0 L116 0 L116 268 L303 268 L303 314 L116 314 L116 488 L308 488 Z M455 533 L407 533 L407 0 L602 0 L602 45 L455 45 L455 533 Z " />
</font>
</svg>
