<?xml version="1.0" encoding="UTF-8"?>
<svg xmlns="http://www.w3.org/2000/svg" xmlns:xlink="http://www.w3.org/1999/xlink" version="1.2" >
<font id="Baskerville URW Extra Wide Extra Bold Oblique">
<font-face  font-family="Baskerville URW Extra Wide" units-per-em="1000" ascent="679" descent="-321" font-style="italic" font-weight="800" font-stretch="normal" cap-height="665" x-height="403" underline-position="-94" underline-thickness="89" />
<missing-glyph  horiz-adv-x="250" d="" />
<glyph glyph-name="NULL" d="" />
<glyph glyph-name="CR" unicode="&#xd;" horiz-adv-x="250" d="" />
<glyph glyph-name="space" unicode="&#x20;" horiz-adv-x="250" d="" />
<glyph glyph-name="exclam" unicode="&#x21;" horiz-adv-x="369" d="M190 220 L313 557 C327 596 331 612 331 627 C331 663 309 679 258 679 C182 679 156 649 151 554 L130 220 L190 220 Z M148 160 C85 160 28 109 28 54 C28 13 62 -18 107 -18 C170 -18 227 33 227 88 C227 129 193 160 148 160 L148 160 Z " />
<glyph glyph-name="quotedbl" unicode="&#x22;" horiz-adv-x="542" d="M190 399 L302 667 L109 667 L108 399 L190 399 Z M462 399 L575 667 L382 667 L381 399 L462 399 Z " />
<glyph glyph-name="numbersign" unicode="&#x23;" horiz-adv-x="632" d="M399 227 L517 227 L544 293 L434 293 L483 388 L601 388 L628 454 L518 454 L629 667 L548 667 L437 454 L329 454 L440 667 L360 667 L248 454 L121 454 L94 388 L213 388 L164 293 L35 293 L8 227 L129 227 L10 0 L91 0 L209 227 L317 227 L199 0 L280 0 L399 227 Z M402 388 L352 293 L244 293 L294 388 L402 388 Z " />
<glyph glyph-name="dollar" unicode="&#x24;" horiz-adv-x="600" d="M161 -133 L217 -133 L243 -13 C402 3 521 105 521 225 C521 293 472 349 377 389 L344 403 L332 408 L372 594 C412 587 425 575 432 540 C440 503 440 503 449 492 C458 479 474 471 490 471 C528 471 564 504 564 540 C564 599 486 646 383 649 L390 679 L333 679 L326 647 C265 638 230 626 195 605 C132 564 90 497 90 434 C90 403 101 374 121 347 C142 319 164 305 218 280 C228 276 229 275 246 267 L198 43 C170 49 150 68 142 96 C130 138 117 150 83 150 C41 150 6 120 6 82 C6 29 71 -6 186 -15 L161 -133 Z M296 240 C305 235 305 235 312 232 C343 217 343 217 352 211 C379 193 390 175 390 150 C390 92 342 54 254 42 L296 240 Z M276 432 C242 447 224 471 224 503 C224 544 255 578 300 590 C306 591 309 593 311 594 L276 432 Z " />
<glyph glyph-name="percent" unicode="&#x25;" horiz-adv-x="867" d="M285 681 C212 681 160 657 115 602 C82 561 63 510 63 460 C63 379 114 333 203 333 C274 333 327 357 369 408 C402 450 421 500 421 551 C421 633 371 681 285 681 L285 681 Z M271 639 C301 639 315 621 315 582 C315 529 295 450 273 412 C258 386 239 374 216 374 C184 374 168 393 168 432 C168 466 187 552 201 584 C218 622 240 639 271 639 L271 639 Z M213 0 L732 668 L654 668 L135 0 L213 0 Z M667 334 C594 334 542 310 497 255 C464 215 445 164 445 113 C445 32 496 -13 588 -13 C656 -13 710 12 751 62 C784 104 803 154 803 204 C803 286 753 334 667 334 L667 334 Z M653 292 C683 292 697 274 697 235 C697 182 678 105 655 66 C640 41 622 29 598 29 C566 29 550 48 550 86 C550 120 569 205 583 238 C600 275 622 292 653 292 L653 292 Z " />
<glyph glyph-name="ampersand" unicode="&#x26;" horiz-adv-x="854" d="M481 293 L419 388 C517 429 572 490 572 556 C572 617 516 654 424 654 C345 654 277 626 239 578 C215 547 200 505 200 467 C200 437 207 413 230 364 C83 296 10 221 10 135 C10 53 91 -14 191 -14 C270 -14 336 6 432 60 C472 11 523 -13 585 -13 C645 -13 705 12 740 53 C761 76 774 103 785 145 L725 145 C709 96 689 76 655 76 C625 76 602 96 573 146 C570 152 569 154 564 162 C589 186 613 213 647 255 C708 326 731 343 782 354 L793 407 L588 407 L577 354 C604 353 616 344 616 327 C616 326 616 326 615 321 C612 299 588 266 535 211 L481 293 Z M262 305 L286 268 L320 216 L356 161 L390 109 L393 105 C364 87 330 77 300 77 C226 77 165 139 165 215 C165 255 197 288 258 312 L262 305 Z M377 439 C355 474 343 507 343 531 C343 569 370 597 407 597 C438 597 458 576 458 545 C458 505 433 471 377 439 L377 439 Z " />
<glyph glyph-name="quotesingle" unicode="&#x27;" horiz-adv-x="299" d="M207 399 L320 667 L120 667 L119 399 L207 399 Z " />
<glyph glyph-name="parenleft" unicode="&#x28;" horiz-adv-x="381" d="M231 -245 C166 -120 145 -44 145 65 C145 211 193 368 280 503 C316 559 343 591 427 679 L343 679 C172 523 64 284 64 59 C64 -53 90 -149 147 -245 L231 -245 Z " />
<glyph glyph-name="parenright" unicode="&#x29;" horiz-adv-x="381" d="M-11 -245 C172 -64 268 150 268 377 C268 495 241 596 186 679 L101 679 C167 559 188 484 188 370 C188 232 145 86 66 -45 C33 -100 -9 -152 -95 -245 L-11 -245 Z " />
<glyph glyph-name="asterisk" unicode="&#x2a;" horiz-adv-x="588" d="M304 385 C317 366 323 350 324 326 C325 261 325 258 331 242 C340 221 357 208 378 208 C425 208 476 248 476 285 C476 310 464 322 411 353 C382 369 360 390 349 412 C369 420 386 423 414 423 C428 423 446 422 466 420 C484 419 494 418 500 418 C551 418 590 451 590 494 C590 527 567 552 536 552 C513 552 489 543 462 524 C401 480 378 467 345 458 C345 482 355 506 388 555 C419 601 424 613 424 634 C424 662 401 679 363 679 C317 679 279 647 279 609 C279 597 279 595 291 549 C296 529 299 506 299 494 C299 483 297 473 291 458 C271 460 249 474 213 509 C181 540 165 549 140 549 C99 549 56 506 56 464 C56 433 80 416 126 416 C135 416 142 416 149 417 C189 421 189 421 204 421 C236 421 253 418 267 412 C250 390 228 376 170 349 C106 319 82 296 82 265 C82 235 114 208 149 208 C189 208 215 231 241 291 C263 342 282 371 304 385 L304 385 Z " />
<glyph glyph-name="plus" unicode="&#x2b;" horiz-adv-x="550" d="M19 414 L0 325 L225 325 L182 120 L275 120 L318 325 L545 325 L564 414 L337 414 L381 617 L288 617 L244 414 L19 414 Z " />
<glyph glyph-name="comma" unicode="&#x2c;" horiz-adv-x="369" d="M-40 -200 C111 -195 230 -83 230 53 C230 119 194 156 131 156 C64 156 9 106 9 46 C9 9 39 -18 81 -18 C89 -18 96 -17 103 -15 C117 -12 122 -11 128 -11 C138 -11 145 -18 145 -27 C145 -79 64 -134 -28 -142 L-40 -200 Z " />
<glyph glyph-name="hyphen" unicode="&#x2d;" horiz-adv-x="381" d="M17 254 L1 180 L320 180 L336 254 L17 254 Z " />
<glyph glyph-name="period" unicode="&#x2e;" horiz-adv-x="369" d="M148 160 C85 160 28 109 28 54 C28 13 62 -18 107 -18 C170 -18 227 33 227 88 C227 129 193 160 148 160 L148 160 Z " />
<glyph glyph-name="slash" unicode="&#x2f;" horiz-adv-x="381" d="M430 694 L308 694 L-145 -267 L-26 -267 L430 694 Z " />
<glyph glyph-name="zero" unicode="0" horiz-adv-x="600" d="M373 677 C264 677 166 615 106 509 C59 426 26 299 26 201 C26 71 104 -14 223 -14 C341 -14 450 63 508 186 C544 262 571 383 571 465 C571 591 491 677 373 677 L373 677 Z M390 333 L381 294 C370 238 364 209 364 209 C341 90 305 44 239 44 C195 44 173 68 173 116 C173 192 233 476 265 548 C287 599 317 621 362 621 C405 621 430 595 430 549 C430 524 425 494 409 422 L390 333 Z " />
<glyph glyph-name="one" unicode="1" horiz-adv-x="600" d="M409 679 C345 642 277 624 176 620 L165 567 L175 567 C241 567 265 555 265 525 C265 515 263 500 261 488 L181 114 C170 72 147 55 96 55 L67 55 L55 0 L417 0 L429 55 L399 55 C361 55 340 67 340 89 C340 100 342 116 344 128 L461 679 L409 679 Z " />
<glyph glyph-name="two" unicode="2" horiz-adv-x="600" d="M-6 0 L352 0 C381 0 389 -4 389 -16 C389 -20 388 -23 386 -27 L381 -40 L438 -40 L495 100 L186 100 C311 196 478 340 518 388 C558 434 576 479 576 532 C576 620 497 677 374 677 C260 677 157 628 115 555 C103 533 99 516 99 484 C99 448 106 428 117 428 C123 428 132 430 143 435 L145 435 C150 437 156 439 162 441 C165 442 172 445 182 448 C193 453 203 456 209 458 C220 462 225 465 225 470 C225 472 223 477 218 484 C209 498 205 512 205 527 C205 574 261 617 324 617 C380 617 411 586 411 531 C411 396 259 215 4 46 L-6 0 Z " />
<glyph glyph-name="three" unicode="3" horiz-adv-x="600" d="M177 469 C231 487 240 491 240 497 C240 499 239 502 236 504 C220 519 212 531 212 543 C212 580 271 618 330 618 C375 618 408 590 408 551 C408 486 351 424 244 373 C197 351 181 338 181 321 C181 308 195 294 209 294 C220 294 233 300 255 315 C279 330 291 335 309 335 C339 335 353 322 353 295 L353 294 L353 285 C353 234 333 152 313 115 C288 71 237 41 187 41 C156 41 139 56 131 89 C125 116 124 120 116 130 C105 143 88 151 69 151 C23 151 -21 115 -21 78 L-21 75 C-15 44 -15 44 -8 35 C15 6 80 -15 149 -15 C347 -15 517 116 517 270 C517 344 463 389 373 391 C464 436 506 462 530 490 C552 516 566 547 566 573 C566 635 493 677 385 677 C233 677 101 595 101 500 C101 474 111 454 124 454 C133 454 147 458 163 464 L177 469 Z " />
<glyph glyph-name="four" unicode="4" horiz-adv-x="600" d="M271 228 L249 125 C238 71 220 58 158 55 L128 55 L117 0 L486 0 L498 55 L468 55 C430 55 406 69 406 91 C406 101 408 118 410 129 L431 228 L534 228 L570 322 L532 322 L524 313 C511 297 510 297 489 296 L461 296 L446 296 L526 674 L441 674 L31 302 L15 228 L271 228 Z M286 296 L99 296 L328 494 L286 296 Z " />
<glyph glyph-name="five" unicode="5" horiz-adv-x="600" d="M166 336 C199 374 226 388 266 388 C322 388 354 361 354 313 C354 266 332 174 307 118 C287 73 244 43 197 43 C164 43 137 59 127 86 C116 115 116 115 112 122 C100 139 83 148 62 148 C17 148 -23 114 -23 76 C-23 25 53 -14 151 -14 C355 -14 515 116 515 282 C515 380 433 449 317 449 C265 449 215 435 176 409 L215 565 L414 565 L436 565 C473 563 476 566 540 658 C542 661 544 665 547 668 L180 668 L98 336 L166 336 Z " />
<glyph glyph-name="six" unicode="6" horiz-adv-x="600" d="M258 401 C275 471 301 526 338 575 C359 602 387 618 415 618 C441 618 457 609 469 586 C485 555 503 541 527 541 C566 541 604 574 604 607 C604 647 549 677 476 677 C361 677 245 622 167 531 C88 438 37 303 37 185 C37 67 120 -14 240 -14 C407 -14 544 113 544 269 C544 322 525 363 489 388 C454 412 408 425 360 425 C324 425 291 417 258 401 L258 401 Z M314 369 C350 369 368 347 368 303 C368 232 339 113 311 70 C300 53 276 42 253 42 C219 42 200 66 200 109 C200 141 211 217 223 269 C238 333 270 369 314 369 L314 369 Z " />
<glyph glyph-name="seven" unicode="7" horiz-adv-x="600" d="M624 668 L284 668 C262 668 256 671 256 681 C256 685 257 688 260 695 L201 695 L85 493 L144 493 C170 537 184 546 234 544 L485 544 L170 132 C129 77 115 53 115 34 C115 6 142 -14 179 -14 C224 -14 257 12 293 76 L624 668 Z " />
<glyph glyph-name="eight" unicode="8" horiz-adv-x="600" d="M390 356 C515 386 582 452 582 545 C582 629 503 681 377 681 C213 681 96 596 96 476 C96 415 142 372 228 356 C158 345 111 326 76 295 C32 256 5 197 5 137 C5 108 12 84 28 62 C61 16 141 -14 230 -14 C406 -14 532 87 532 226 C532 299 490 338 390 356 L390 356 Z M367 626 C408 626 429 606 429 568 C429 533 415 469 399 432 C385 399 353 379 314 379 C266 379 244 398 244 438 C244 463 251 505 262 540 C281 603 309 626 367 626 L367 626 Z M303 325 C353 325 376 305 376 263 C376 235 366 178 354 138 C331 64 305 41 239 41 C187 41 162 62 162 107 C162 137 171 186 184 227 C208 303 235 325 303 325 L303 325 Z " />
<glyph glyph-name="nine" unicode="9" horiz-adv-x="600" d="M341 262 C324 192 299 137 262 88 C241 61 212 45 184 45 C158 45 142 54 131 77 C114 108 96 122 72 122 C33 122 -5 89 -5 56 C-5 16 50 -14 123 -14 C238 -14 354 41 432 132 C511 225 562 360 562 478 C562 596 479 677 359 677 C191 677 55 550 55 394 C55 341 74 300 110 275 C145 251 192 238 240 238 C276 238 309 246 341 262 L341 262 Z M347 621 C381 621 400 597 400 555 C400 523 389 445 377 394 C362 330 329 294 286 294 C249 294 231 316 231 362 C231 390 234 411 243 460 C268 581 293 621 347 621 L347 621 Z " />
<glyph glyph-name="colon" unicode="&#x3a;" horiz-adv-x="369" d="M151 160 C88 160 31 109 31 54 C31 13 65 -18 110 -18 C173 -18 230 33 230 88 C230 129 196 160 151 160 L151 160 Z M206 419 C143 419 86 368 86 313 C86 271 120 240 165 240 C228 240 285 291 285 347 C285 388 251 419 206 419 L206 419 Z " />
<glyph glyph-name="semicolon" unicode="&#x3b;" horiz-adv-x="369" d="M-40 -200 C111 -195 230 -83 230 53 C230 119 194 156 131 156 C64 156 9 106 9 46 C9 9 39 -18 81 -18 C89 -18 96 -17 103 -15 C117 -12 122 -11 128 -11 C138 -11 145 -18 145 -27 C145 -79 64 -134 -28 -142 L-40 -200 Z M203 419 C140 419 83 368 83 313 C83 272 117 241 163 241 C225 241 282 292 282 347 C282 388 248 419 203 419 L203 419 Z " />
<glyph glyph-name="less" unicode="&#x3c;" horiz-adv-x="550" d="M575 644 L51 381 L49 372 L454 78 L497 278 L285 431 L559 569 L575 644 Z " />
<glyph glyph-name="equal" unicode="&#x3d;" horiz-adv-x="550" d="M56 490 L37 403 L543 403 L561 490 L56 490 Z M2 335 L-16 248 L530 248 L548 335 L2 335 Z " />
<glyph glyph-name="greater" unicode="&#x3e;" horiz-adv-x="550" d="M-13 78 L511 341 L513 350 L107 644 L65 444 L277 291 L3 153 L-13 78 Z " />
<glyph glyph-name="question" unicode="&#x3f;" horiz-adv-x="531" d="M155 160 C92 160 34 110 34 54 C34 13 69 -18 115 -18 C179 -18 237 33 237 88 C237 129 202 160 155 160 L155 160 Z M136 222 L197 222 L217 312 C242 305 262 302 286 302 C413 302 520 401 520 520 C520 619 443 679 315 679 C203 679 94 621 94 562 C94 540 119 522 148 522 C182 522 207 539 225 572 C239 597 241 599 248 605 C260 616 281 623 300 623 C341 623 365 593 365 543 C365 510 359 471 350 444 C333 395 301 369 259 369 C240 369 227 374 218 385 L171 385 L136 222 Z " />
<glyph glyph-name="at" unicode="&#x40;" horiz-adv-x="867" d="M577 481 C555 512 525 526 483 526 C408 526 328 480 265 400 C224 347 199 288 199 245 C199 182 243 137 305 137 C343 137 370 148 436 191 C440 161 468 141 507 141 C577 141 663 182 724 245 C780 302 812 375 812 443 C812 577 690 677 527 677 C284 677 65 483 65 267 C65 108 195 -10 371 -10 C514 -10 651 57 747 172 L678 173 C597 90 492 45 383 45 C234 45 121 145 121 279 C121 464 305 625 515 625 C653 625 758 540 758 429 C758 369 725 303 669 253 C630 218 575 189 547 189 C536 189 527 197 527 207 C527 213 531 223 539 236 C541 238 546 247 551 256 L696 513 C661 511 639 511 595 511 L577 481 Z M474 309 C441 253 436 246 419 229 C386 195 356 179 326 179 C299 179 282 194 282 218 C282 261 334 358 390 420 C429 464 463 483 501 483 C524 483 541 466 541 442 C541 431 536 416 526 400 L474 309 Z " />
<glyph glyph-name="A" unicode="A" horiz-adv-x="720" d="M665 0 L676 55 L671 55 C621 60 606 78 584 162 L464 679 L401 679 L75 177 C28 101 -21 59 -67 55 L-73 55 L-85 0 L157 0 L169 55 L161 55 C124 55 101 67 101 87 C101 100 111 123 131 153 L148 180 L374 180 L380 155 C387 129 392 100 392 91 C392 66 369 55 319 55 L313 55 L301 0 L665 0 Z M362 236 L184 236 L313 436 L362 236 Z " />
<glyph glyph-name="B" unicode="B" horiz-adv-x="755" d="M100 663 L88 609 L97 609 C156 609 181 593 181 555 C181 544 180 536 178 527 L95 136 C85 79 47 53 -21 55 L-29 55 L-41 0 L339 0 C463 0 542 18 601 60 C653 98 683 151 683 207 C683 251 661 287 618 315 C590 334 556 345 499 355 C571 371 609 386 649 413 C695 445 721 490 721 537 C721 575 702 610 671 630 C624 660 559 671 434 671 C396 671 396 671 262 667 L100 663 Z M309 323 C314 324 318 324 324 324 C414 324 452 317 471 298 C487 282 495 262 495 239 C495 188 481 132 461 108 C436 76 393 59 340 59 C292 59 266 76 266 106 C266 114 269 132 272 150 L309 323 Z M322 383 L371 613 L373 613 L380 613 C491 613 530 593 530 535 C530 488 512 440 486 417 C455 391 424 383 345 383 L325 383 L322 383 Z " />
<glyph glyph-name="C" unicode="C" horiz-adv-x="816" d="M676 256 C647 194 597 131 556 104 C505 70 443 51 385 51 C289 51 225 108 225 195 C225 277 251 395 286 473 C327 562 408 615 505 615 C623 615 690 545 700 412 L760 412 L805 658 L745 658 C731 632 723 617 710 599 C656 654 591 679 498 679 C352 679 219 615 129 502 C70 428 37 340 37 257 C37 95 161 -14 347 -14 C441 -14 540 18 606 70 C616 54 621 34 623 6 L683 6 L737 256 L676 256 Z " />
<glyph glyph-name="D" unicode="D" horiz-adv-x="876" d="M101 667 L89 613 L98 613 C154 613 182 596 182 561 C182 550 181 541 179 531 L95 136 C85 79 48 53 -21 55 L-29 55 L-41 0 L221 0 C330 0 330 0 363 2 C483 6 540 19 616 58 C751 128 836 261 836 401 C836 501 787 580 696 625 C630 659 525 673 349 673 C265 673 232 672 104 667 L101 667 Z M371 615 C377 616 382 616 388 616 C479 616 521 607 564 577 C615 543 640 494 640 429 C640 311 594 188 526 123 C483 82 417 59 341 59 C295 59 267 78 267 108 C267 118 269 136 274 156 L371 615 Z " />
<glyph glyph-name="E" unicode="E" horiz-adv-x="738" d="M620 219 C559 99 498 57 390 59 L370 59 C301 59 268 74 268 107 C268 114 270 123 276 154 L311 319 L384 319 C437 319 455 307 455 273 C455 265 454 253 452 243 L450 235 L514 235 L562 461 L498 461 L497 455 C480 394 461 379 395 378 L324 378 L373 608 L515 608 C600 609 622 589 639 494 L699 494 L725 667 L101 667 L89 613 L104 613 C157 613 185 596 185 562 C185 550 184 542 182 531 L98 136 C88 80 51 53 -15 55 L-29 55 L-41 0 L630 0 L681 219 L620 219 Z " />
<glyph glyph-name="F" unicode="F" horiz-adv-x="658" d="M716 667 L101 667 L89 613 L103 613 C161 613 185 598 185 560 C185 553 184 541 181 531 L97 136 C87 79 54 55 -16 55 L-27 55 L-39 0 L356 0 L368 55 L351 55 C298 55 268 73 268 106 C268 114 269 126 272 136 L310 318 L372 318 C424 318 438 306 438 264 C438 254 437 245 436 237 L435 231 L496 231 L545 460 L484 460 L482 453 C464 394 445 379 386 378 L323 378 L372 608 L499 608 C585 609 609 586 622 490 L683 490 L716 667 Z " />
<glyph glyph-name="G" unicode="G" horiz-adv-x="866" d="M499 308 L487 254 L496 253 C541 249 560 235 560 205 C560 202 559 196 558 190 L553 166 C545 131 537 111 522 94 C497 66 449 49 395 49 C349 49 305 59 276 77 C246 95 226 136 226 182 C226 252 251 370 281 444 C327 557 401 609 513 609 C624 609 688 552 705 439 L759 439 L803 672 L750 672 C743 647 732 626 715 602 C659 654 588 679 501 679 C357 679 218 611 127 495 C69 422 36 336 36 258 C36 168 79 86 151 37 C201 4 268 -14 344 -14 C389 -14 417 -10 527 10 C599 23 647 29 682 29 C690 29 697 29 709 28 L739 168 C751 228 764 241 818 252 L830 254 L842 308 L499 308 Z " />
<glyph glyph-name="H" unicode="H" horiz-adv-x="937" d="M624 319 L585 136 C574 77 540 54 467 55 L455 0 L836 0 L848 55 L838 55 C785 55 756 72 756 105 C756 113 757 125 760 136 L844 531 C856 590 888 613 957 612 L966 612 L978 667 L597 667 L585 612 L589 612 C648 612 672 597 672 559 C672 548 671 540 669 531 L637 381 L319 381 L351 531 C363 590 396 613 465 612 L471 612 L483 667 L101 667 L89 612 L98 612 C153 612 180 595 180 561 C180 552 179 541 177 531 L93 136 C81 78 52 57 -21 55 L-29 55 L-41 0 L341 0 L353 55 L347 55 C310 55 293 59 280 71 C269 82 263 93 263 104 C263 111 265 124 267 136 L306 319 L624 319 Z " />
<glyph glyph-name="I" unicode="I" horiz-adv-x="448" d="M89 612 L99 612 C156 612 181 597 181 562 C181 553 180 542 177 531 L93 136 C83 79 49 55 -20 55 L-29 55 L-41 0 L347 0 L358 55 L346 55 C292 55 264 71 264 103 C264 113 265 125 268 136 L352 531 C364 590 395 613 465 612 L477 612 L489 667 L101 667 L89 612 Z " />
<glyph glyph-name="J" unicode="J" horiz-adv-x="447" d="M102 667 L90 612 L111 612 C167 612 192 597 192 563 C192 554 191 542 188 531 L77 8 C45 -142 14 -182 -69 -182 C-92 -182 -107 -175 -107 -164 C-107 -159 -103 -154 -96 -148 C-79 -135 -75 -129 -75 -114 C-75 -85 -103 -66 -144 -66 C-207 -66 -258 -105 -258 -153 C-258 -203 -191 -237 -91 -237 C4 -237 86 -214 145 -170 C207 -123 235 -70 261 53 L363 531 C375 591 406 613 476 612 L486 612 L498 667 L102 667 Z " />
<glyph glyph-name="K" unicode="K" horiz-adv-x="878" d="M315 345 L354 531 C367 591 398 613 467 612 L480 612 L492 667 L101 667 L89 612 L102 612 C159 612 184 597 184 562 C184 555 182 542 180 531 L96 136 C85 79 53 55 -17 55 L-29 55 L-41 0 L340 0 L352 55 L349 55 C293 55 267 70 267 104 C267 114 268 125 271 136 L298 264 L393 327 L495 142 C496 137 499 130 504 121 C512 106 516 96 516 89 C516 66 489 55 434 55 L428 55 L416 0 L837 0 L849 55 L843 55 C778 54 737 86 700 167 L556 440 L635 496 C754 581 810 608 882 612 L890 612 L902 667 L577 667 L565 612 L574 612 C608 612 625 604 625 588 C625 568 601 541 558 511 L315 345 Z " />
<glyph glyph-name="L" unicode="L" horiz-adv-x="716" d="M678 222 L619 222 C568 111 494 60 385 60 L370 60 C298 60 266 74 266 107 C266 114 269 130 273 150 L354 531 C366 591 397 613 467 612 L482 612 L494 667 L101 667 L89 612 L101 612 C158 612 183 597 183 562 C183 554 182 542 179 531 L95 136 C85 79 52 55 -18 55 L-29 55 L-41 0 L627 0 L678 222 Z " />
<glyph glyph-name="M" unicode="M" horiz-adv-x="1103" d="M375 667 L99 667 L87 612 L93 612 C142 612 163 598 163 565 C163 551 162 540 159 528 L85 178 C71 94 40 60 -27 55 L-31 55 L-43 0 L202 0 L213 55 L209 55 C163 55 134 80 134 119 C134 129 136 140 143 175 L216 520 L379 0 L423 0 L824 528 L741 136 C730 79 696 55 626 55 L610 55 L598 0 L1002 0 L1013 55 L995 55 C940 55 911 71 911 104 C911 112 913 125 915 136 L999 531 C1012 591 1043 613 1114 612 L1130 612 L1142 667 L853 667 L516 229 L375 667 Z " />
<glyph glyph-name="N" unicode="N" horiz-adv-x="863" d="M617 -11 L680 -11 L788 501 C800 570 829 601 891 612 L899 612 L910 667 L666 667 L654 612 L660 612 C701 612 732 585 732 549 C732 538 730 522 726 503 L674 259 L349 667 L99 667 L87 612 L92 612 C149 612 178 587 178 536 C178 526 177 519 176 511 L103 170 C93 123 89 111 79 100 C59 74 13 54 -22 55 L-27 55 L-39 0 L240 0 L252 55 L236 55 C195 54 158 84 158 117 C158 126 161 146 166 171 L231 477 L617 -11 Z " />
<glyph glyph-name="O" unicode="O" horiz-adv-x="912" d="M537 679 C387 679 255 630 164 540 C85 462 37 356 37 263 C37 208 53 156 83 110 C137 31 244 -14 382 -14 C522 -14 643 30 736 114 C822 191 873 297 873 399 C873 491 829 573 753 623 C699 659 623 679 537 679 L537 679 Z M518 615 C592 615 645 584 664 531 C671 512 674 489 674 458 C674 371 649 256 615 186 C572 96 498 50 397 50 C292 50 236 106 236 211 C236 307 274 449 317 512 C364 582 429 615 518 615 L518 615 Z " />
<glyph glyph-name="P" unicode="P" horiz-adv-x="736" d="M101 667 L89 612 L108 612 C165 612 190 597 190 562 C190 552 189 542 187 531 L103 136 C92 78 59 55 -10 55 L-24 55 L-36 0 L362 0 L373 55 L355 55 C301 55 273 71 273 103 C273 111 275 124 277 136 L311 295 L404 295 C503 295 569 307 627 336 C703 375 750 444 750 520 C750 567 728 608 690 631 C635 664 590 673 469 673 C410 673 410 673 266 670 L182 668 L101 667 Z M324 354 L378 613 L390 613 C462 613 493 608 523 590 C547 577 560 549 560 514 C560 468 541 421 510 394 C479 366 434 354 362 354 L324 354 Z " />
<glyph glyph-name="Q" unicode="Q" horiz-adv-x="910" d="M503 -2 C599 19 675 57 739 116 C823 193 873 299 873 397 C873 490 828 574 753 624 C699 660 621 679 531 679 C408 679 301 646 212 580 C104 500 37 379 37 263 C37 173 80 90 149 46 C204 11 290 -13 358 -13 L368 -13 L345 -23 C262 -63 206 -94 177 -118 C169 -125 164 -135 164 -146 C164 -162 175 -173 192 -173 C206 -173 222 -165 242 -150 C293 -110 314 -101 353 -101 C391 -101 428 -118 461 -151 C514 -204 514 -204 527 -214 C566 -243 613 -256 676 -256 C811 -256 915 -188 960 -70 L901 -70 C865 -106 808 -128 748 -128 C715 -128 653 -118 632 -110 C556 -79 556 -79 508 -65 C479 -57 431 -47 422 -47 C420 -47 417 -47 411 -48 L503 -2 Z M518 615 C567 615 617 596 641 569 C664 543 675 506 675 457 C675 354 641 223 596 155 C551 87 482 51 400 51 C295 51 238 103 238 198 C238 236 247 315 255 354 C292 528 380 615 518 615 L518 615 Z " />
<glyph glyph-name="R" unicode="R" horiz-adv-x="812" d="M773 0 L784 55 L777 55 C733 57 707 86 659 185 C621 266 596 303 566 326 C683 359 753 432 753 521 C753 578 719 622 657 647 C621 661 505 669 336 669 C322 669 312 669 303 668 L287 668 L101 667 L89 612 L105 612 C162 612 187 597 187 562 C187 555 185 542 183 531 L99 136 C88 78 56 55 -14 55 L-29 55 L-41 0 L354 0 L366 55 L352 55 C298 55 270 71 270 104 C270 115 271 125 273 136 L307 294 L318 294 C394 297 416 282 447 205 C502 72 521 32 543 0 L773 0 Z M320 354 L373 606 C385 607 392 607 404 607 C529 607 570 585 570 517 C570 470 550 421 518 392 C487 364 446 354 358 354 L320 354 Z " />
<glyph glyph-name="S" unicode="S" horiz-adv-x="623" d="M-7 11 L58 11 C67 33 75 49 88 65 C123 16 191 -14 269 -14 C423 -14 560 101 560 229 C560 264 548 299 526 325 C497 360 448 389 352 429 C265 464 237 489 237 529 C237 580 288 620 352 620 C432 620 488 560 494 470 L554 470 L596 667 L533 667 C533 665 532 663 531 663 L529 656 C522 641 516 632 506 622 C473 658 419 679 358 679 C217 679 88 567 88 443 C88 378 129 327 217 284 C319 234 332 228 360 210 C386 193 400 172 400 146 C400 94 341 49 271 49 C208 49 157 80 129 137 C117 162 111 190 107 239 L41 239 L-7 11 Z " />
<glyph glyph-name="T" unicode="T" horiz-adv-x="766" d="M107 477 C148 583 180 607 285 608 L351 608 L251 136 C239 77 207 54 138 55 L119 55 L108 0 L513 0 L524 55 L504 55 C447 55 422 70 422 105 C422 115 423 126 425 136 L526 608 L593 608 C688 608 712 583 719 477 L780 477 L820 667 L86 667 L46 477 L107 477 Z " />
<glyph glyph-name="U" unicode="U" horiz-adv-x="853" d="M653 667 L641 612 L647 612 C696 612 726 587 726 546 C726 537 724 524 721 510 L674 286 C657 206 646 177 624 148 C580 90 506 55 431 55 C344 55 284 103 284 172 C284 198 288 231 296 268 L352 531 C365 592 392 613 459 612 L471 612 L483 667 L90 667 L78 612 L86 612 C139 612 162 598 162 565 C162 552 161 542 159 531 L103 268 C93 221 91 208 91 185 C91 63 193 -14 356 -14 C452 -14 549 14 611 59 C671 103 714 178 734 274 L784 507 C796 574 822 600 887 612 L893 612 L904 667 L653 667 Z " />
<glyph glyph-name="V" unicode="V" horiz-adv-x="786" d="M372 -14 L695 460 L723 501 C785 594 803 610 845 613 L860 612 L872 667 L633 667 L621 612 L626 612 C666 612 688 599 688 575 C688 563 674 530 661 510 L454 207 L360 510 C354 529 350 550 350 567 C350 598 376 612 433 612 L441 612 L452 667 L57 667 L45 612 L50 612 C119 611 129 600 155 498 L300 -14 L372 -14 Z " />
<glyph glyph-name="W" unicode="W" horiz-adv-x="1037" d="M715 -14 L964 466 C1025 581 1050 609 1098 613 L1110 613 L1121 667 L887 667 L875 613 L880 613 C913 613 937 596 937 571 C937 556 930 536 915 507 L776 236 L682 667 L598 667 L352 236 L312 534 C311 542 311 549 311 559 C311 597 329 613 374 613 L380 613 L392 667 L58 667 L46 613 L56 613 L57 613 L61 613 C100 613 112 593 122 515 L188 -14 L275 -14 L535 434 L631 -14 L715 -14 Z " />
<glyph glyph-name="X" unicode="X" horiz-adv-x="883" d="M917 667 L624 667 L613 612 L621 612 C661 612 678 605 678 589 C678 577 664 556 645 541 L510 429 L434 547 C428 557 424 570 424 581 C424 604 441 612 485 612 L493 612 L504 667 L90 667 L79 612 L84 612 C159 608 166 604 231 500 L354 307 L158 147 C79 81 22 54 -33 55 L-38 55 L-50 0 L272 0 L284 55 L265 54 C227 54 206 66 206 87 C206 104 218 120 248 144 L386 258 L466 135 C476 120 481 106 481 96 C481 67 455 55 390 55 L384 55 L373 0 L821 0 L832 55 L830 55 L826 54 L825 54 C751 63 737 75 671 178 L543 382 L694 506 C795 588 828 605 906 613 L917 667 Z " />
<glyph glyph-name="Y" unicode="Y" horiz-adv-x="732" d="M435 353 L362 534 C355 550 351 567 351 575 C351 599 371 612 408 612 L414 612 L425 667 L58 667 L46 612 L52 612 C95 610 114 594 139 539 L266 273 L236 136 C226 78 193 55 123 55 L110 55 L99 0 L492 0 L503 55 L492 55 C437 55 409 71 409 104 C409 113 410 125 413 136 L444 284 L656 512 C726 590 752 608 800 612 L805 612 L817 667 L565 667 L553 612 L559 612 C597 612 616 601 616 578 C616 562 603 537 585 517 L435 353 Z " />
<glyph glyph-name="Z" unicode="Z" horiz-adv-x="749" d="M-33 0 L626 0 L681 198 L620 198 C554 85 505 57 382 59 L214 59 L748 622 L758 667 L141 667 L91 489 L149 489 C205 590 243 609 389 608 L508 608 L-24 44 L-33 0 Z " />
<glyph glyph-name="bracketleft" unicode="&#x5b;" horiz-adv-x="473" d="M328 -235 L340 -182 L241 -182 C199 -182 181 -172 181 -150 C181 -141 182 -132 184 -124 L328 556 C337 600 357 614 410 614 L509 614 L520 667 L209 667 L17 -235 L328 -235 Z " />
<glyph glyph-name="backslash" unicode="&#x5c;" horiz-adv-x="550" d="M371 -126 L236 669 L153 669 L290 -126 L371 -126 Z " />
<glyph glyph-name="bracketright" unicode="&#x5d;" horiz-adv-x="473" d="M-97 -235 L214 -235 L406 667 L95 667 L83 614 L182 614 C224 614 242 604 242 582 C242 574 241 565 239 556 L95 -124 C86 -168 67 -182 13 -182 L-86 -182 L-97 -235 Z " />
<glyph glyph-name="asciicircum" unicode="&#x5e;" horiz-adv-x="550" d="M573 275 L375 700 L364 700 L-49 275 L171 275 L386 497 L491 275 L573 275 Z " />
<glyph glyph-name="underscore" unicode="&#x5f;" horiz-adv-x="500" d="M-88 -93 L-107 -182 L389 -182 L408 -93 L-88 -93 Z " />
<glyph glyph-name="grave" unicode="&#x60;" horiz-adv-x="526" d="M349 486 L317 643 L138 643 L136 632 L306 486 L349 486 Z " />
<glyph glyph-name="a" unicode="a" horiz-adv-x="621" d="M520 90 C512 72 499 62 483 62 C469 62 460 71 460 83 C460 87 462 100 463 105 L502 291 C507 313 508 321 508 330 C508 391 451 419 328 419 C235 419 172 407 117 378 C75 357 51 329 51 302 C51 276 74 259 110 259 C154 259 181 276 196 313 C203 331 211 342 218 348 C231 357 257 364 281 364 C326 364 347 352 347 327 C347 320 346 311 344 303 L337 266 C164 217 94 190 37 152 C7 131 -14 96 -14 65 C-14 19 30 -10 99 -10 C169 -10 236 8 298 43 C313 8 352 -10 411 -10 C494 -10 551 26 567 90 L520 90 Z M300 96 C270 75 235 63 203 63 C172 63 145 83 145 106 C145 144 192 172 325 211 L300 96 Z " />
<glyph glyph-name="b" unicode="b" horiz-adv-x="681" d="M69 593 L73 593 C101 593 125 586 135 575 C140 569 142 562 142 550 C142 544 141 535 139 527 L25 -11 L66 -11 L73 -5 L117 25 C133 36 149 47 154 51 L159 54 C162 56 165 58 168 61 C210 14 269 -12 338 -12 C490 -12 618 109 618 253 C618 353 543 419 430 419 C373 419 324 404 265 369 L330 679 L325 679 C311 676 280 672 224 665 C210 664 153 656 80 645 L69 593 Z M250 301 C294 335 333 350 373 350 C426 350 450 323 450 264 C450 203 431 139 403 101 C381 72 339 53 296 53 C267 53 244 60 231 73 C223 81 211 102 210 109 L210 111 L250 301 Z " />
<glyph glyph-name="c" unicode="c" horiz-adv-x="545" d="M419 124 C382 74 333 49 270 49 C201 49 171 79 171 148 C171 180 181 231 195 275 C214 330 261 366 314 366 C342 366 354 357 356 334 C357 303 358 298 367 284 C377 268 397 258 420 258 C467 258 507 294 507 335 C507 388 448 419 349 419 C157 419 3 300 3 152 C3 50 89 -16 221 -16 C332 -16 421 26 470 102 L419 124 Z " />
<glyph glyph-name="d" unicode="d" horiz-adv-x="677" d="M605 66 L596 66 C551 66 530 80 530 110 C530 116 531 125 533 132 L649 679 L643 679 C618 674 610 673 568 666 L463 650 L414 642 L403 590 L407 590 C446 590 460 580 460 551 C460 543 459 534 457 525 L423 366 C395 400 342 419 279 419 C122 419 4 297 4 133 C4 47 72 -10 173 -10 C237 -10 293 10 357 56 C354 41 353 29 353 18 C353 9 354 3 355 -9 C418 1 489 7 594 11 L605 66 Z M372 124 C338 86 293 64 245 64 C201 64 173 91 173 132 C173 162 184 224 194 253 C216 316 258 348 317 348 C352 348 380 336 411 307 L372 124 Z " />
<glyph glyph-name="e" unicode="e" horiz-adv-x="567" d="M417 104 C372 64 329 45 283 45 C224 45 188 81 188 140 C188 163 193 192 198 206 L503 206 C508 230 510 244 510 264 C510 297 502 325 485 349 C454 391 386 419 313 419 C145 419 8 302 8 159 C8 54 95 -16 225 -16 C313 -16 407 21 461 77 L417 104 Z M210 255 C224 305 230 321 245 339 C256 354 280 364 300 364 C334 364 351 344 351 305 C351 291 350 278 347 255 L210 255 Z " />
<glyph glyph-name="f" unicode="f" horiz-adv-x="405" d="M396 403 L297 403 L302 428 C326 540 330 556 338 575 C353 607 370 623 390 623 C407 623 419 612 421 595 C424 559 426 553 435 539 C446 523 467 513 490 513 C540 513 587 554 587 599 C587 649 530 679 433 679 C353 679 284 659 232 620 C174 577 151 532 126 417 L123 403 L34 403 L22 350 L112 350 L63 118 C52 68 34 54 -22 52 L-41 52 L-52 0 L311 0 L322 52 L293 52 C250 52 233 64 233 94 C233 99 234 109 236 118 L285 350 L385 350 L396 403 Z " />
<glyph glyph-name="g" unicode="g" horiz-adv-x="591" d="M43 -106 L49 -99 L51 -96 C32 -88 20 -85 6 -85 C-33 -85 -68 -120 -68 -157 C-68 -218 5 -249 148 -249 C268 -249 348 -229 408 -186 C460 -147 489 -97 489 -42 C489 3 464 36 419 51 C383 62 348 66 274 66 L247 66 L207 65 L157 65 C127 64 109 72 109 85 C109 112 149 128 220 128 C388 128 500 199 500 303 C500 318 497 330 491 345 C503 354 509 356 517 356 C526 356 530 354 540 345 C550 334 557 331 568 331 C594 331 614 353 614 383 C614 406 598 419 569 419 C542 419 519 410 465 376 C429 405 382 418 309 418 C144 418 34 352 34 253 C34 199 67 161 133 144 C42 124 -3 83 -3 21 C-3 -40 59 -64 216 -64 C293 -64 330 -65 346 -68 C376 -73 389 -85 389 -104 C389 -162 302 -197 157 -197 C76 -197 25 -174 25 -137 C25 -129 29 -121 40 -109 L43 -106 Z M286 365 C326 365 351 344 351 311 C351 278 338 238 319 213 C306 196 281 185 252 185 C208 185 186 206 186 248 C186 318 226 365 286 365 L286 365 Z " />
<glyph glyph-name="h" unicode="h" horiz-adv-x="668" d="M332 679 L326 679 C311 675 277 670 224 663 C182 657 138 650 85 640 L74 588 L77 588 C121 588 143 576 143 554 C143 552 140 525 139 522 L53 118 C42 69 22 54 -37 52 L-40 52 L-51 0 L250 0 L261 52 L257 52 C224 53 210 66 210 95 C210 103 211 110 212 118 L245 272 C295 317 329 335 363 335 C394 335 410 321 410 294 C410 286 409 279 408 272 L375 118 C365 74 347 57 305 53 L298 52 L287 0 L589 0 L600 52 L594 52 C552 52 534 65 534 96 C534 103 535 110 536 118 L565 255 C571 281 574 303 574 318 C574 378 521 419 443 419 C377 419 316 395 261 348 L332 679 Z " />
<glyph glyph-name="i" unicode="i" horiz-adv-x="359" d="M265 679 C208 679 155 627 155 571 C155 531 185 501 225 501 C282 501 335 553 335 609 C335 649 305 679 265 679 L265 679 Z M286 419 L280 419 C249 413 248 413 148 398 C59 385 55 384 28 382 L17 330 L30 330 C72 330 90 319 90 293 C90 286 89 274 87 264 L55 118 C44 67 27 54 -29 52 L-42 52 L-53 0 L278 0 L289 52 L284 52 C238 52 219 65 219 97 C219 101 220 111 222 118 L286 419 Z " />
<glyph glyph-name="j" unicode="j" horiz-adv-x="339" d="M300 419 L294 419 C257 413 257 413 134 394 L66 383 L52 381 L40 329 L56 329 C95 329 111 319 111 293 C111 284 110 274 108 264 L39 -61 C23 -132 18 -147 1 -170 C-9 -184 -22 -191 -36 -191 C-50 -191 -62 -183 -64 -171 C-72 -130 -87 -116 -122 -116 C-166 -116 -204 -148 -204 -186 C-204 -224 -159 -247 -84 -247 C22 -247 123 -201 167 -131 C186 -102 196 -70 214 18 L300 419 Z M270 679 C213 679 160 627 160 571 C160 531 190 501 230 501 C288 501 341 553 341 609 C341 650 311 679 270 679 L270 679 Z " />
<glyph glyph-name="k" unicode="k" horiz-adv-x="659" d="M393 403 L382 351 L387 351 C411 351 421 347 421 338 C421 333 419 329 412 322 L415 323 L409 319 C401 314 399 313 379 302 C365 294 349 285 332 277 C313 266 297 258 288 253 L234 225 L331 679 L325 679 C311 676 280 671 224 663 C183 657 172 655 85 640 L74 588 L82 588 C107 588 129 582 137 572 C140 568 142 562 142 553 C142 544 141 533 139 523 L53 118 C41 69 21 54 -37 52 L-42 52 L-53 0 L253 0 L264 52 L259 52 C224 54 209 67 209 95 C209 102 210 110 212 118 L221 160 L280 190 L344 100 C348 94 356 77 356 74 C356 61 342 52 322 52 L319 52 L308 0 L584 0 L595 52 L589 53 C561 56 557 60 504 137 L416 266 L458 292 C535 339 565 351 607 351 L610 351 L621 403 L393 403 Z " />
<glyph glyph-name="l" unicode="l" horiz-adv-x="358" d="M332 679 L326 679 C309 676 233 663 98 642 L86 640 L74 588 L82 588 C107 588 130 581 138 572 C141 568 143 562 143 553 C143 545 141 533 139 522 L53 118 C42 68 22 54 -37 52 L-41 52 L-52 0 L271 0 L282 52 L277 52 C231 52 210 65 210 93 C210 103 211 109 212 118 L332 679 Z " />
<glyph glyph-name="m" unicode="m" horiz-adv-x="972" d="M18 320 L22 320 C66 320 87 305 87 274 C87 271 86 265 85 260 L55 118 C44 69 24 54 -35 52 L-37 52 L-48 0 L247 0 L258 52 L253 52 C224 53 211 66 211 93 C211 99 212 109 214 118 L247 274 L248 275 C306 324 326 335 355 335 C381 335 394 323 394 297 C394 290 393 279 391 270 L358 118 C348 70 339 59 309 53 L305 52 L294 0 L548 0 L559 52 L556 52 C535 53 521 65 521 83 C521 88 524 111 525 118 L559 272 C612 317 644 334 675 334 C702 334 717 320 716 297 C716 291 715 283 713 275 L679 118 C669 72 654 58 614 53 L608 52 L597 0 L892 0 L904 52 L898 52 C856 52 838 65 838 96 C838 101 839 110 841 118 L870 257 C879 300 880 304 880 318 C880 379 829 419 752 419 C689 419 621 390 563 338 C551 389 505 419 440 419 C380 419 318 394 267 350 C270 363 271 374 271 386 C271 395 270 400 269 408 L265 408 C247 404 230 402 178 394 C159 392 119 386 29 372 L18 320 Z " />
<glyph glyph-name="n" unicode="n" horiz-adv-x="670" d="M264 408 C241 404 226 401 178 394 C100 383 70 378 29 372 L18 320 L22 320 C66 320 87 305 87 274 C87 268 87 264 86 260 L56 118 C44 69 25 54 -34 52 L-37 52 L-48 0 L253 0 L264 52 L259 52 C227 53 212 67 212 95 C212 102 213 110 214 118 L247 273 C302 318 334 335 366 335 C397 335 414 320 414 295 C414 292 413 286 412 281 L377 118 C367 73 349 57 307 53 L300 52 L289 0 L590 0 L601 52 L597 52 C554 52 536 65 536 96 C536 101 537 110 539 118 L568 258 C575 287 577 304 577 318 C577 379 525 419 447 419 C384 419 321 395 267 350 C270 367 271 379 271 391 C271 398 271 401 269 408 L264 408 Z " />
<glyph glyph-name="o" unicode="o" horiz-adv-x="622" d="M332 419 C149 419 7 304 7 155 C7 114 19 79 43 54 C83 10 157 -16 237 -16 C416 -16 559 102 559 250 C559 283 550 310 532 336 C495 386 416 419 332 419 L332 419 Z M319 364 C370 364 399 339 399 294 C399 265 386 198 371 146 C350 73 311 38 250 38 C199 38 168 66 168 110 C168 179 196 285 224 325 C241 349 278 364 319 364 L319 364 Z " />
<glyph glyph-name="p" unicode="p" horiz-adv-x="679" d="M253 419 C233 415 215 412 162 404 C111 397 51 388 23 383 L12 331 L16 331 C63 331 82 318 82 287 C82 278 81 273 80 266 L-2 -120 C-13 -168 -33 -183 -94 -185 L-98 -185 L-109 -237 L228 -237 L239 -185 L220 -185 C174 -185 155 -172 155 -141 C155 -133 156 -127 157 -120 L191 40 C237 1 281 -16 336 -16 C487 -16 617 110 617 257 C617 350 545 419 449 419 C381 419 314 395 254 349 C257 376 259 394 259 402 C259 408 259 411 258 419 L253 419 Z M242 282 C282 324 326 346 373 346 C422 346 451 317 451 268 C451 233 440 178 426 141 C406 91 358 58 303 58 C266 58 228 74 204 100 L242 282 Z " />
<glyph glyph-name="q" unicode="q" horiz-adv-x="649" d="M455 349 C408 397 357 418 289 418 C132 418 6 297 6 145 C6 44 76 -16 192 -16 C252 -16 299 -1 361 37 L328 -120 C317 -167 294 -183 237 -185 L221 -185 L210 -237 L545 -237 L556 -185 L551 -185 C504 -185 485 -172 485 -140 C485 -131 485 -126 487 -120 L601 419 L559 419 L552 414 L509 385 L463 355 L455 349 Z M375 102 C333 71 290 55 249 55 C199 55 173 81 173 132 C173 171 184 227 199 267 C220 321 261 351 315 351 C357 351 382 337 416 295 L375 102 Z " />
<glyph glyph-name="r" unicode="r" horiz-adv-x="522" d="M243 416 L178 404 L100 389 L39 378 L30 376 L18 324 L23 324 C69 324 88 311 88 279 C88 273 87 265 86 258 L56 118 C44 69 24 54 -33 52 L-38 52 L-49 0 L279 0 L290 52 L278 52 C232 52 213 65 213 96 C213 103 214 110 215 118 L225 162 C247 269 281 318 332 318 C347 318 359 312 370 298 C393 270 401 265 428 265 C477 265 518 304 518 352 C518 392 487 419 440 419 C372 419 307 384 252 318 C257 348 259 370 259 392 C259 403 259 408 257 419 L243 416 Z " />
<glyph glyph-name="s" unicode="s" horiz-adv-x="504" d="M-26 -12 L22 -12 C31 0 39 8 50 15 C57 13 57 13 65 10 C111 -9 147 -16 191 -16 C279 -16 348 12 389 63 C412 91 425 126 425 158 C425 184 414 209 392 230 C367 254 310 273 230 284 C181 290 151 307 151 328 C151 354 189 373 242 373 C316 373 367 343 377 292 L425 292 L451 415 L406 415 C396 404 388 396 379 391 C329 410 285 419 239 419 C128 419 32 346 32 261 C32 236 42 212 59 199 C98 168 124 158 238 132 C278 123 298 109 298 89 C298 59 250 35 189 35 C116 35 67 68 56 123 L3 123 L-26 -12 Z " />
<glyph glyph-name="t" unicode="t" horiz-adv-x="395" d="M388 349 L399 403 L265 403 L293 536 L236 536 C207 458 125 402 42 402 C40 402 33 402 26 403 L15 349 L80 349 L30 115 C27 101 26 89 26 78 C26 62 32 44 42 28 C61 -1 98 -16 152 -16 C237 -16 308 18 346 78 L296 94 C275 64 256 53 231 53 C211 53 201 64 201 86 C201 95 205 119 209 140 L254 349 L388 349 Z " />
<glyph glyph-name="u" unicode="u" horiz-adv-x="655" d="M576 403 L351 403 L340 351 L344 351 C381 351 395 341 395 313 C395 303 394 294 392 285 L359 131 C317 88 280 68 243 68 C217 68 199 83 199 105 C199 114 201 128 203 140 L259 403 L25 403 L14 351 L17 351 C60 351 78 338 78 307 C78 302 77 293 75 285 L42 131 C38 111 36 95 36 83 C36 24 88 -16 163 -16 C227 -16 287 8 343 55 L342 49 L338 31 L334 9 C332 2 331 -4 329 -10 C329 -11 329 -13 328 -16 L334 -16 C369 -8 501 1 572 0 L584 52 L580 52 C533 52 513 65 513 97 C513 101 514 111 516 118 L576 403 Z " />
<glyph glyph-name="v" unicode="v" horiz-adv-x="565" d="M574 351 L585 403 L428 403 L417 351 L421 351 C441 351 454 344 454 334 C454 328 448 316 439 305 L305 130 L243 302 C240 310 238 319 238 326 C238 342 255 351 285 351 L290 351 L301 403 L8 403 L-3 351 L2 351 C33 350 40 342 66 272 L163 -7 L267 -7 L469 258 C530 341 533 344 570 351 L574 351 Z " />
<glyph glyph-name="w" unicode="w" horiz-adv-x="865" d="M603 -9 L772 254 C822 335 835 348 874 351 L876 351 L887 403 L709 403 L698 351 L702 351 C734 351 751 343 751 328 C751 322 750 321 743 309 L739 300 L642 145 L561 403 L465 403 L277 145 L239 296 C236 308 234 322 234 328 C234 344 252 351 290 351 L295 351 L306 403 L6 403 L-5 351 L0 351 C34 350 43 341 58 291 L138 -9 L235 -9 L421 249 L504 -9 L603 -9 Z " />
<glyph glyph-name="x" unicode="x" horiz-adv-x="592" d="M562 351 L573 403 L387 403 L376 351 L379 351 C402 351 410 348 410 340 C410 333 398 321 374 305 L326 272 L293 314 C284 324 281 330 281 335 C281 346 292 351 314 351 L320 351 L331 403 L24 403 L13 351 L20 351 C43 348 67 326 103 278 L178 175 L88 111 C41 77 6 61 -34 54 L-41 53 L-52 0 L137 0 L148 53 L145 52 L136 52 L130 52 C118 52 110 57 110 64 C110 71 121 82 139 93 L215 140 L255 88 C262 79 265 74 265 70 C265 59 251 52 229 52 L222 52 L217 52 L209 53 L198 0 L513 0 L524 53 L519 53 C503 57 488 70 458 107 L351 236 L457 305 C503 335 535 350 559 351 L562 351 Z " />
<glyph glyph-name="y" unicode="y" horiz-adv-x="577" d="M8 403 L-3 351 L5 350 C33 347 40 338 62 282 L193 -18 L175 -44 C140 -90 115 -104 32 -121 C-27 -133 -57 -158 -57 -196 C-57 -229 -29 -251 11 -251 C73 -251 113 -222 189 -121 L453 230 C522 332 535 346 567 350 L575 351 L586 403 L423 403 L412 351 L421 351 C436 352 450 341 450 330 C450 322 439 302 421 278 L318 139 L251 295 C248 303 245 318 245 328 C245 342 256 350 280 351 L289 351 L300 403 L8 403 Z " />
<glyph glyph-name="z" unicode="z" horiz-adv-x="541" d="M-39 0 L425 0 L468 138 L410 138 C364 71 339 53 295 53 L196 53 L507 357 L517 403 L73 403 L36 279 L95 279 C142 345 148 350 182 350 L284 350 L-30 41 L-39 0 Z " />
<glyph glyph-name="braceleft" unicode="&#x7b;" horiz-adv-x="456" d="M44 199 C99 196 118 181 118 143 C118 132 116 113 112 98 L74 -80 C71 -95 70 -109 70 -126 C70 -167 83 -195 110 -212 C132 -226 178 -232 266 -232 L306 -232 L312 -201 C245 -199 213 -176 213 -128 C213 -113 216 -89 222 -63 L254 89 C257 103 259 119 259 131 C259 174 223 202 155 214 L156 221 C252 238 295 272 309 346 L341 497 C359 597 399 634 490 636 L497 667 L457 667 C364 666 314 660 292 646 C247 624 215 579 201 515 L163 336 C146 261 122 240 52 235 L44 199 Z " />
<glyph glyph-name="bar" unicode="&#x7c;" horiz-adv-x="539" d="M280 667 L103 -167 L225 -167 L402 667 L280 667 Z " />
<glyph glyph-name="braceright" unicode="&#x7d;" horiz-adv-x="458" d="M365 235 C310 239 291 254 291 292 C291 303 293 321 296 336 L334 515 C337 530 339 545 339 561 C339 601 326 629 299 646 C277 661 231 667 143 667 L103 667 L97 636 C164 634 196 610 196 563 C196 549 193 524 187 497 L155 346 C152 332 150 317 150 304 C150 261 186 232 254 221 L252 214 C156 197 114 162 100 89 L68 -63 C49 -162 10 -199 -81 -201 L-88 -232 L-48 -232 C45 -231 95 -225 117 -212 C162 -190 193 -144 208 -80 L246 98 C263 173 287 194 357 199 L365 235 Z " />
<glyph glyph-name="asciitilde" unicode="&#x7e;" horiz-adv-x="695" d="M597 733 C569 707 543 694 522 694 C507 694 475 702 444 713 C414 724 382 732 368 732 C327 732 278 694 217 614 L239 598 C277 632 291 638 320 638 C340 638 357 633 395 617 C424 605 442 600 463 600 C493 600 517 610 542 631 C574 660 599 687 620 717 L597 733 Z " />
<glyph glyph-name="uni00A0" unicode="&#xa0;" horiz-adv-x="250" d="" />
<glyph glyph-name="exclamdown" unicode="&#xa1;" horiz-adv-x="369" d="M131 210 L10 -124 C-4 -161 -9 -181 -9 -198 C-9 -232 15 -248 66 -248 C104 -248 130 -238 147 -216 C163 -195 168 -177 171 -127 L191 210 L131 210 Z M212 448 C150 448 92 397 92 342 C92 301 126 270 172 270 C235 270 292 321 292 376 C292 417 258 448 212 448 L212 448 Z " />
<glyph glyph-name="cent" unicode="&#xa2;" horiz-adv-x="600" d="M462 124 C429 77 369 46 312 46 C300 46 290 49 280 56 L404 345 C408 344 409 342 409 337 L408 322 C407 318 407 315 407 312 C407 282 433 257 464 257 C509 257 552 294 552 334 C552 375 508 406 435 416 L520 613 L462 613 L378 419 L372 419 C365 419 341 416 316 413 C265 405 243 398 205 379 C104 328 44 243 44 151 C44 66 93 14 194 -9 L115 -190 L173 -190 L249 -16 C260 -17 265 -18 272 -18 C311 -18 379 -2 415 17 C459 39 489 65 513 102 L462 124 Z M238 95 C224 113 217 138 217 171 C217 281 271 357 355 365 L238 95 Z " />
<glyph glyph-name="sterling" unicode="&#xa3;" horiz-adv-x="800" d="M3 198 L166 198 C140 140 116 95 87 51 C-8 5 -57 -38 -57 -76 C-57 -99 -28 -120 4 -120 C20 -120 38 -114 53 -103 C79 -84 80 -82 126 -19 L135 -8 L139 -1 L141 1 C154 6 163 8 173 8 C193 8 218 -8 253 -44 C306 -98 350 -120 405 -120 C467 -120 535 -98 588 -63 C650 -20 695 45 695 92 C695 126 672 148 635 148 C597 148 563 118 563 82 C563 72 565 59 568 51 C580 19 580 18 580 8 C580 -16 549 -39 517 -39 C484 -39 454 -20 399 34 C356 77 314 97 268 97 C251 97 235 94 204 86 C246 129 277 166 300 198 L490 198 L527 275 L352 275 C391 332 415 383 498 578 C541 680 580 721 631 721 C663 721 679 710 695 679 C716 638 727 628 758 628 C801 628 840 662 840 699 C840 746 775 781 686 781 C558 781 457 726 366 607 C315 540 266 442 210 296 C209 294 209 292 208 291 L206 285 L204 280 L202 275 L41 275 L3 198 Z " />
<glyph glyph-name="currency" unicode="&#xa4;" horiz-adv-x="734" d="M-32 88 L21 28 L154 130 C206 98 249 86 312 86 C372 86 425 99 490 130 L580 29 L659 88 L566 193 C623 258 651 326 651 398 C651 431 646 452 630 492 L770 599 L717 659 L579 553 C527 584 476 598 418 598 C359 598 295 582 244 555 L154 657 L76 597 L165 497 C102 419 78 363 78 291 C78 257 84 227 100 188 L-32 88 Z M394 466 C466 466 519 423 519 364 C519 287 434 218 339 218 C268 218 214 263 214 320 C214 397 299 466 394 466 L394 466 Z " />
<glyph glyph-name="yen" unicode="&#xa5;" horiz-adv-x="577" d="M440 479 L291 479 L271 533 C265 549 261 565 261 574 C261 599 280 612 314 612 L319 612 L330 667 L-1 667 L-12 612 L-7 612 C37 608 48 596 75 524 L92 479 L-3 479 L-15 424 L113 424 L178 274 L-38 274 L-50 219 L167 219 L149 136 C136 74 112 55 45 55 L34 55 L22 0 L376 0 L387 55 L378 55 C327 55 303 68 303 98 C303 107 305 123 308 136 L325 219 L542 219 L554 274 L344 274 L346 285 L463 424 L595 424 L606 479 L508 479 C592 583 628 614 667 612 L671 612 L682 667 L456 667 L444 612 L449 612 C486 612 508 601 508 581 C508 570 500 553 487 537 L440 479 Z M394 424 L337 353 L311 424 L394 424 Z " />
<glyph glyph-name="brokenbar" unicode="&#xa6;" horiz-adv-x="539" d="M280 667 L203 304 L325 304 L402 667 L280 667 Z M171 153 L103 -167 L225 -167 L293 153 L171 153 Z " />
<glyph glyph-name="section" unicode="&#xa7;" horiz-adv-x="565" d="M167 372 C66 352 2 284 2 196 C2 133 41 81 138 15 C224 -43 232 -49 247 -62 C271 -82 282 -101 282 -122 C282 -160 238 -191 185 -191 C146 -191 121 -172 117 -138 C112 -94 112 -92 102 -82 C91 -69 74 -62 56 -62 C8 -62 -32 -99 -32 -143 C-32 -203 40 -246 141 -246 C287 -246 403 -163 403 -59 C403 -15 382 26 344 56 C397 71 419 82 445 105 C481 139 504 191 504 243 C504 276 493 307 472 335 C450 365 424 385 335 441 C237 504 221 520 221 554 C221 591 267 623 320 623 C347 623 370 613 380 598 C385 590 388 581 392 560 C397 530 399 525 405 516 C414 503 428 496 449 496 C499 496 541 532 541 575 C541 633 466 677 368 677 C220 677 102 593 102 488 C102 440 121 406 167 372 L167 372 Z M186 331 C213 331 263 307 309 272 C365 229 392 193 392 161 C392 129 359 102 319 102 C286 102 251 120 188 170 C135 211 112 243 112 273 C112 302 149 331 186 331 L186 331 Z " />
<glyph glyph-name="dieresis" unicode="&#xa8;" horiz-adv-x="461" d="M169 638 C124 638 82 597 82 554 C82 522 106 498 138 498 C183 498 225 539 225 583 C225 614 201 638 169 638 L169 638 Z M424 638 C379 638 337 597 337 553 C337 522 361 498 393 498 C438 498 480 539 480 583 C480 614 456 638 424 638 L424 638 Z " />
<glyph glyph-name="copyright" unicode="&#xa9;" horiz-adv-x="884" d="M521 680 C277 680 54 483 54 268 C54 107 187 -13 364 -13 C609 -13 831 183 831 399 C831 562 700 680 521 680 L521 680 Z M508 633 C666 633 783 530 783 390 C783 203 589 34 375 34 C219 34 102 139 102 278 C102 343 129 414 175 471 C258 574 380 633 508 633 L508 633 Z M572 292 C540 220 486 179 423 179 C374 179 342 210 342 256 C342 299 357 366 375 409 C397 458 439 487 488 487 C548 487 583 447 586 376 L617 376 L642 513 L611 513 L609 510 C603 497 599 490 593 481 C563 512 533 524 486 524 C359 524 246 414 246 289 C246 201 308 142 400 142 C451 142 498 158 535 188 C540 178 541 171 543 153 L574 153 L604 292 L572 292 Z " />
<glyph glyph-name="ordfeminine" unicode="&#xaa;" horiz-adv-x="386" d="M349 329 C343 316 337 311 327 311 C319 311 314 316 314 324 C314 329 314 332 315 335 L340 453 C344 470 344 472 344 479 C344 517 309 536 237 536 C141 536 67 502 67 458 C67 441 82 429 104 429 C132 429 150 441 160 467 C169 491 181 498 207 498 C231 498 244 491 243 477 C243 472 242 466 241 460 L236 439 L224 435 C220 434 217 433 210 431 C189 425 176 421 171 419 C116 401 68 377 51 359 C35 343 27 326 27 309 C27 278 54 260 99 260 C137 260 174 270 213 292 C222 271 246 260 282 260 C336 260 373 285 383 329 L349 329 Z M228 400 L213 328 C212 328 212 328 211 327 C192 315 175 309 160 309 C140 309 124 321 124 335 C124 355 153 377 197 390 C211 394 220 397 221 397 L228 400 Z " />
<glyph glyph-name="guillemotleft" unicode="&#xab;" horiz-adv-x="623" d="M-16 217 L153 0 L215 0 L175 217 L306 433 L244 433 L-16 217 Z M276 217 L445 0 L506 0 L467 217 L598 433 L536 433 L276 217 Z " />
<glyph glyph-name="logicalnot" unicode="&#xac;" horiz-adv-x="550" d="M449 0 L506 267 L15 267 L-2 185 L296 185 L257 0 L449 0 Z " />
<glyph glyph-name="uni00AD" unicode="&#xad;" horiz-adv-x="381" d="M17 254 L1 180 L320 180 L336 254 L17 254 Z " />
<glyph glyph-name="registered" unicode="&#xae;" horiz-adv-x="884" d="M521 680 C277 680 54 483 54 268 C54 107 187 -13 364 -13 C609 -13 831 183 831 399 C831 562 700 680 521 680 L521 680 Z M508 633 C666 633 783 530 783 390 C783 203 589 34 375 34 C219 34 102 139 102 278 C102 343 129 414 175 471 C258 574 380 633 508 633 L508 633 Z M211 150 L414 150 L420 181 L412 181 C384 181 372 189 372 208 C372 215 372 220 374 225 L392 312 L397 312 C440 313 446 307 473 234 C485 201 493 182 496 175 C500 166 505 156 510 150 L627 150 L634 181 L630 181 C607 182 592 201 570 253 C553 295 543 312 525 330 C581 345 621 389 621 438 C621 464 610 485 589 498 C564 514 523 519 411 519 L393 519 L384 519 L289 518 L283 487 L291 487 C321 487 332 479 332 460 C332 454 331 448 330 443 L284 225 C277 193 264 183 227 181 L218 181 L211 150 Z M399 346 L428 483 C437 484 442 484 449 484 C506 484 527 471 527 436 C527 413 519 390 505 373 C490 353 465 346 420 346 L412 346 L399 346 Z " />
<glyph glyph-name="macron" unicode="&#xaf;" horiz-adv-x="414" d="M88 591 L75 529 L423 529 L436 591 L88 591 Z " />
<glyph glyph-name="degree" unicode="&#xb0;" horiz-adv-x="400" d="M204 686 C118 686 50 619 50 534 C50 449 116 381 200 381 C284 381 350 448 350 534 C350 619 286 686 204 686 L204 686 Z M202 629 C252 629 293 586 293 534 C293 480 252 438 200 438 C148 438 106 481 106 533 C106 587 148 629 202 629 L202 629 Z " />
<glyph glyph-name="plusminus" unicode="&#xb1;" horiz-adv-x="550" d="M19 414 L0 325 L225 325 L182 120 L275 120 L318 325 L545 325 L564 414 L337 414 L381 617 L288 617 L244 414 L19 414 Z M-50 89 L-69 -1 L476 -1 L495 89 L-50 89 Z " />
<glyph glyph-name="twosuperior" unicode="&#xb2;" horiz-adv-x="400" d="M33 267 L264 267 C283 267 283 267 283 260 C283 255 281 251 276 243 L322 243 L360 333 L170 333 C281 418 336 463 362 491 C391 522 407 554 407 584 C407 637 353 672 273 672 C172 672 94 622 94 556 C94 537 103 519 111 519 C114 519 124 522 142 528 C186 543 186 543 186 547 C186 548 185 550 183 552 C176 559 171 572 171 582 C171 608 205 632 241 632 C270 632 293 611 293 584 C293 504 201 400 40 299 L33 267 Z " />
<glyph glyph-name="threesuperior" unicode="&#xb3;" horiz-adv-x="400" d="M175 593 C175 612 208 631 242 631 C269 631 290 615 290 595 C290 556 250 517 187 492 C161 482 148 471 148 460 C148 449 158 441 171 441 C181 441 190 444 204 454 C217 463 223 465 233 465 C251 465 257 459 257 441 C257 411 249 370 237 345 C225 318 192 297 161 297 C144 297 134 305 129 324 C122 352 110 363 85 363 C52 363 23 341 23 315 C23 282 68 258 130 258 C262 258 370 334 370 428 C370 471 347 493 291 504 C345 530 364 543 383 567 C391 578 399 598 399 608 C399 645 348 673 280 673 C181 673 96 624 96 567 C96 549 104 535 115 535 C125 535 182 553 191 558 C193 560 194 561 194 563 C194 566 192 568 189 571 C179 578 176 583 175 592 L175 593 Z " />
<glyph glyph-name="acute" unicode="&#xb4;" horiz-adv-x="526" d="M239 486 L282 486 L514 632 L516 643 L338 643 L239 486 Z " />
<glyph glyph-name="mu" unicode="&#xb5;" horiz-adv-x="576" d="M442 500 L353 500 L354 131 C318 80 284 58 242 58 C184 58 150 99 150 169 L150 500 L62 500 L62 20 C62 -1 58 -26 51 -56 C34 -118 33 -123 33 -147 C33 -190 54 -219 83 -219 C112 -219 132 -189 132 -146 C132 -124 129 -111 113 -53 C103 -17 101 -8 101 21 L101 33 C143 -3 165 -13 200 -13 C250 -13 301 18 354 80 C362 48 367 36 377 21 C392 0 419 -13 449 -13 C510 -13 553 31 567 108 L540 109 C536 71 515 41 492 41 C462 41 442 77 442 131 L442 500 Z " />
<glyph glyph-name="paragraph" unicode="&#xb6;" horiz-adv-x="728" d="M717 667 L401 667 L322 667 C267 666 236 659 198 640 C132 605 87 538 87 471 C87 429 106 393 140 370 C173 349 214 340 281 340 L318 340 L246 4 C244 -7 242 -14 241 -20 C237 -41 232 -43 169 -43 L143 -43 L135 -79 L317 -79 L467 628 L544 628 L394 -79 L544 -79 L552 -43 L533 -43 C501 -43 493 -41 493 -35 C493 -31 493 -27 494 -23 C495 -22 495 -20 495 -17 C497 -10 498 -5 498 -2 L618 561 C626 596 632 616 639 622 C645 628 663 631 697 631 L710 631 L717 667 Z M380 631 L326 380 L299 380 C254 379 228 409 227 463 L227 466 C227 509 247 563 274 598 C294 624 310 630 360 631 L380 631 Z " />
<glyph glyph-name="periodcentered" unicode="&#xb7;" horiz-adv-x="323" d="M174 422 C111 422 54 371 54 315 C54 274 88 243 134 243 C196 243 253 294 253 349 C253 391 219 422 174 422 L174 422 Z " />
<glyph glyph-name="cedilla" unicode="&#xb8;" horiz-adv-x="550" d="M174 0 C160 -46 147 -79 134 -103 C163 -104 180 -116 180 -134 C180 -156 161 -169 130 -169 C109 -169 90 -166 64 -160 C57 -182 56 -185 48 -205 C66 -212 86 -216 112 -216 C204 -216 267 -172 267 -107 C267 -70 246 -48 203 -44 C211 -23 213 -20 219 0 L174 0 Z " />
<glyph glyph-name="onesuperior" unicode="&#xb9;" horiz-adv-x="400" d="M289 674 C252 652 206 641 149 639 L141 601 L150 601 L153 601 C193 601 197 600 197 586 C197 579 196 568 194 558 L147 338 C141 313 133 307 99 306 L72 306 L64 267 L308 267 L317 306 L291 306 C267 306 254 312 255 323 C255 328 256 334 257 340 L328 674 L289 674 Z " />
<glyph glyph-name="ordmasculine" unicode="&#xba;" horiz-adv-x="386" d="M238 537 C126 537 40 462 40 365 C40 300 94 257 175 257 C285 257 373 333 373 429 C373 493 317 537 238 537 L238 537 Z M227 496 C257 496 273 482 273 456 C273 439 267 402 259 373 C243 317 224 297 185 297 C158 297 141 313 141 340 C141 368 154 433 165 456 C177 483 198 496 227 496 L227 496 Z " />
<glyph glyph-name="guillemotright" unicode="&#xbb;" horiz-adv-x="623" d="M572 217 L404 433 L342 433 L381 217 L249 0 L310 0 L572 217 Z M280 217 L112 433 L50 433 L89 217 L-43 0 L18 0 L280 217 Z " />
<glyph glyph-name="onequarter" unicode="&#xbc;" horiz-adv-x="996" d="M287 674 C251 652 204 641 147 639 L139 601 L149 601 L151 601 C190 601 195 600 195 587 C195 580 193 567 191 558 L145 338 C139 313 131 307 97 306 L72 306 L64 267 L304 267 L312 306 L288 306 C264 306 253 311 253 323 C253 327 254 334 255 340 L326 674 L287 674 Z M310 0 L831 668 L752 668 L231 0 L310 0 Z M743 134 L731 77 C725 47 716 40 680 39 L655 39 L647 0 L892 0 L900 39 L875 39 C851 39 840 45 840 61 C840 67 841 73 842 79 L854 134 L919 134 L944 201 L911 201 L907 195 C900 186 889 181 874 181 L864 181 L911 404 L850 404 L590 182 L580 134 L743 134 Z M753 181 L649 181 L775 283 L753 181 Z " />
<glyph glyph-name="onehalf" unicode="&#xbd;" horiz-adv-x="996" d="M287 674 C251 652 204 641 147 639 L139 601 L149 601 L151 601 C190 601 195 600 195 587 C195 580 193 567 191 558 L145 338 C139 313 131 307 97 306 L72 306 L64 267 L304 267 L313 306 L288 306 C264 306 253 311 253 323 C253 327 254 334 255 340 L326 674 L287 674 Z M288 0 L809 668 L730 668 L209 0 L288 0 Z M569 0 L801 0 C820 -1 821 -1 821 -6 C821 -9 819 -13 814 -24 L861 -24 L899 66 L707 66 C911 221 945 257 945 316 C945 370 892 405 811 405 C709 405 630 355 630 289 C630 271 638 253 646 253 C652 253 666 257 680 262 C690 265 699 268 708 271 C717 274 722 277 722 280 C722 281 721 283 719 285 C714 291 707 308 707 315 C707 340 742 365 778 365 C810 365 831 344 831 314 C831 237 736 132 576 32 L569 0 Z " />
<glyph glyph-name="threequarters" unicode="&#xbe;" horiz-adv-x="996" d="M175 593 C175 612 208 631 242 631 C269 631 290 615 290 595 C290 556 250 517 187 492 C161 482 148 471 148 460 C148 449 158 441 171 441 C181 441 190 444 204 454 C217 463 223 465 233 465 C251 465 257 459 257 441 C257 411 249 370 237 345 C225 318 192 297 161 297 C144 297 134 305 129 324 C122 352 110 363 85 363 C52 363 23 341 23 315 C23 282 68 258 130 258 C262 258 370 334 370 428 C370 471 347 493 291 504 C345 530 364 543 383 567 C391 578 399 598 399 608 C399 645 348 673 280 673 C181 673 96 624 96 567 C96 549 104 535 115 535 C125 535 182 553 191 558 C193 560 194 561 194 563 C194 566 192 568 189 571 C179 578 176 583 175 592 L175 593 Z M307 0 L826 668 L748 668 L229 0 L307 0 Z M745 134 L733 77 C726 47 717 40 682 39 L657 39 L649 0 L892 0 L901 39 L876 39 C852 39 840 46 841 60 C841 66 842 72 844 79 L855 134 L920 134 L944 201 L913 201 L908 195 C901 186 890 181 876 181 L865 181 L913 404 L852 404 L593 182 L583 134 L745 134 Z M755 181 L651 181 L777 283 L755 181 Z " />
<glyph glyph-name="questiondown" unicode="&#xbf;" horiz-adv-x="531" d="M345 445 C281 445 223 395 223 340 C223 298 258 267 304 267 C368 267 426 317 426 373 C426 414 391 445 345 445 L345 445 Z M323 205 L262 205 L243 115 C220 122 200 125 175 125 C47 125 -60 26 -60 -93 C-60 -192 18 -252 145 -252 C257 -252 366 -194 366 -135 C366 -114 341 -95 312 -95 C279 -95 252 -112 235 -145 C221 -170 220 -172 212 -178 C201 -189 179 -196 160 -196 C119 -196 95 -166 95 -115 C95 -82 101 -42 111 -15 C128 32 160 58 201 58 C220 58 233 53 242 42 L289 42 L323 205 Z " />
<glyph glyph-name="Agrave" unicode="&#xc0;" horiz-adv-x="720" d="M665 0 L676 55 L671 55 C621 60 606 78 584 162 L464 679 L401 679 L75 177 C28 101 -21 59 -67 55 L-73 55 L-85 0 L157 0 L169 55 L161 55 C124 55 101 67 101 87 C101 100 111 123 131 153 L148 180 L374 180 L380 155 C387 129 392 100 392 91 C392 66 369 55 319 55 L313 55 L301 0 L665 0 Z M362 236 L184 236 L313 436 L362 236 Z M492 732 L532 732 L467 892 L267 892 L264 880 L492 732 Z " />
<glyph glyph-name="Aacute" unicode="&#xc1;" horiz-adv-x="720" d="M665 0 L676 55 L671 55 C621 60 606 78 584 162 L464 679 L401 679 L75 177 C28 101 -21 59 -67 55 L-73 55 L-85 0 L157 0 L169 55 L161 55 C124 55 101 67 101 87 C101 100 111 123 131 153 L148 180 L374 180 L380 155 C387 129 392 100 392 91 C392 66 369 55 319 55 L313 55 L301 0 L665 0 Z M362 236 L184 236 L313 436 L362 236 Z M398 732 L438 732 L729 880 L731 892 L531 892 L398 732 Z " />
<glyph glyph-name="Acircumflex" unicode="&#xc2;" horiz-adv-x="720" d="M665 0 L676 55 L671 55 C621 60 606 78 584 162 L464 679 L401 679 L75 177 C28 101 -21 59 -67 55 L-73 55 L-85 0 L157 0 L169 55 L161 55 C124 55 101 67 101 87 C101 100 111 123 131 153 L148 180 L374 180 L380 155 C387 129 392 100 392 91 C392 66 369 55 319 55 L313 55 L301 0 L665 0 Z M362 236 L184 236 L313 436 L362 236 Z M379 887 L245 728 L284 728 L459 821 L603 728 L641 728 L572 887 L379 887 Z " />
<glyph glyph-name="Atilde" unicode="&#xc3;" horiz-adv-x="720" d="M665 0 L676 55 L671 55 C621 60 606 78 584 162 L464 679 L401 679 L75 177 C28 101 -21 59 -67 55 L-73 55 L-85 0 L157 0 L169 55 L161 55 C124 55 101 67 101 87 C101 100 111 123 131 153 L148 180 L374 180 L380 155 C387 129 392 100 392 91 C392 66 369 55 319 55 L313 55 L301 0 L665 0 Z M362 236 L184 236 L313 436 L362 236 Z M285 724 C289 753 317 775 347 775 C359 775 372 772 390 763 C466 727 484 721 525 721 C605 721 660 776 674 869 L635 869 C619 833 600 815 575 815 C558 815 541 821 493 843 C447 864 425 870 393 870 C311 870 259 819 244 724 L285 724 Z " />
<glyph glyph-name="Adieresis" unicode="&#xc4;" horiz-adv-x="720" d="M665 0 L676 55 L671 55 C621 60 606 78 584 162 L464 679 L401 679 L75 177 C28 101 -21 59 -67 55 L-73 55 L-85 0 L157 0 L169 55 L161 55 C124 55 101 67 101 87 C101 100 111 123 131 153 L148 180 L374 180 L380 155 C387 129 392 100 392 91 C392 66 369 55 319 55 L313 55 L301 0 L665 0 Z M362 236 L184 236 L313 436 L362 236 Z M323 881 C273 881 227 836 227 787 C227 752 253 726 288 726 C338 726 384 771 384 820 C384 855 358 881 323 881 L323 881 Z M624 881 C574 881 528 836 528 787 C528 752 554 726 590 726 C640 726 686 771 686 820 C686 855 660 881 624 881 L624 881 Z " />
<glyph glyph-name="Aring" unicode="&#xc5;" horiz-adv-x="720" d="M75 177 C28 101 -21 59 -67 55 L-73 55 L-85 0 L157 0 L169 55 L161 55 C124 55 101 67 101 87 C101 100 111 123 131 153 L148 180 L374 180 L380 155 C387 129 392 100 392 91 C392 66 369 55 319 55 L313 55 L301 0 L665 0 L676 55 L671 55 C621 60 606 78 584 162 L466 668 C521 688 559 738 559 790 C559 839 523 875 474 875 C405 875 341 813 341 746 C341 710 361 680 394 667 L75 177 Z M362 236 L184 236 L313 435 L362 236 Z M463 828 C490 828 511 808 511 781 C511 743 475 708 436 708 C409 708 389 728 389 755 C389 793 425 828 463 828 L463 828 Z " />
<glyph glyph-name="AE" unicode="&#xc6;" horiz-adv-x="1049" d="M448 318 L409 136 C399 79 365 55 295 55 L280 55 L268 0 L944 0 L996 219 L934 219 C875 103 808 56 707 59 L692 59 C613 59 582 73 582 110 C582 121 584 138 587 153 L622 318 L703 318 C751 318 763 308 763 270 C763 262 763 259 761 236 L826 236 L874 460 L809 460 C788 391 768 375 704 377 L635 377 L684 608 L841 608 C912 612 936 587 954 494 L1015 494 L1040 667 L312 667 L301 613 L330 613 C374 613 390 608 390 593 C390 581 382 566 356 535 L69 179 C-4 85 -36 59 -85 55 L-97 0 L115 0 L126 55 L121 55 C95 55 78 66 78 84 C78 96 93 123 110 144 L257 318 L448 318 Z M461 377 L306 377 L513 625 L461 377 Z " />
<glyph glyph-name="Ccedilla" unicode="&#xc7;" horiz-adv-x="816" d="M371 -13 C455 -9 546 23 606 70 C616 54 621 34 623 6 L683 6 L737 256 L676 256 C647 194 597 131 556 104 C505 70 443 51 385 51 C290 51 225 108 225 193 C225 276 251 395 286 473 C327 562 408 615 505 615 C623 615 690 545 700 412 L760 412 L805 658 L745 658 C731 632 723 617 710 599 C656 654 591 679 498 679 C352 679 219 615 129 503 C70 428 37 340 37 257 C37 106 139 5 311 -12 C291 -66 279 -94 267 -114 C306 -116 330 -129 330 -149 C330 -174 305 -188 264 -188 C235 -188 210 -185 176 -177 C168 -202 167 -205 157 -227 C182 -236 209 -240 241 -240 C363 -240 444 -193 444 -122 C444 -79 414 -54 356 -49 L371 -13 Z " />
<glyph glyph-name="Egrave" unicode="&#xc8;" horiz-adv-x="738" d="M620 219 C559 99 498 57 390 59 L370 59 C301 59 268 74 268 107 C268 114 270 123 276 154 L311 319 L384 319 C437 319 455 307 455 273 C455 265 454 253 452 243 L450 235 L514 235 L562 461 L498 461 L497 455 C480 394 461 379 395 378 L324 378 L373 608 L515 608 C600 609 622 589 639 494 L699 494 L725 667 L101 667 L89 613 L104 613 C157 613 185 596 185 562 C185 550 184 542 182 531 L98 136 C88 80 51 53 -15 55 L-29 55 L-41 0 L630 0 L681 219 L620 219 Z M547 732 L587 732 L522 892 L322 892 L320 880 L547 732 Z " />
<glyph glyph-name="Eacute" unicode="&#xc9;" horiz-adv-x="738" d="M620 219 C559 99 498 57 390 59 L370 59 C301 59 268 74 268 107 C268 114 270 123 276 154 L311 319 L384 319 C437 319 455 307 455 273 C455 265 454 253 452 243 L450 235 L514 235 L562 461 L498 461 L497 455 C480 394 461 379 395 378 L324 378 L373 608 L515 608 C600 609 622 589 639 494 L699 494 L725 667 L101 667 L89 613 L104 613 C157 613 185 596 185 562 C185 550 184 542 182 531 L98 136 C88 80 51 53 -15 55 L-29 55 L-41 0 L630 0 L681 219 L620 219 Z M401 732 L440 732 L731 880 L734 892 L534 892 L401 732 Z " />
<glyph glyph-name="Ecircumflex" unicode="&#xca;" horiz-adv-x="738" d="M620 219 C559 99 498 57 390 59 L370 59 C301 59 268 74 268 107 C268 114 270 123 276 154 L311 319 L384 319 C437 319 455 307 455 273 C455 265 454 253 452 243 L450 235 L514 235 L562 461 L498 461 L497 455 C480 394 461 379 395 378 L324 378 L373 608 L515 608 C600 609 622 589 639 494 L699 494 L725 667 L101 667 L89 613 L104 613 C157 613 185 596 185 562 C185 550 184 542 182 531 L98 136 C88 80 51 53 -15 55 L-29 55 L-41 0 L630 0 L681 219 L620 219 Z M411 887 L277 728 L316 728 L491 821 L635 728 L673 728 L604 887 L411 887 Z " />
<glyph glyph-name="Edieresis" unicode="&#xcb;" horiz-adv-x="738" d="M620 219 C559 99 498 57 390 59 L370 59 C301 59 268 74 268 107 C268 114 270 123 276 154 L311 319 L384 319 C437 319 455 307 455 273 C455 265 454 253 452 243 L450 235 L514 235 L562 461 L498 461 L497 455 C480 394 461 379 395 378 L324 378 L373 608 L515 608 C600 609 622 589 639 494 L699 494 L725 667 L101 667 L89 613 L104 613 C157 613 185 596 185 562 C185 550 184 542 182 531 L98 136 C88 80 51 53 -15 55 L-29 55 L-41 0 L630 0 L681 219 L620 219 Z M361 881 C311 881 265 836 265 787 C265 752 291 726 327 726 C377 726 423 771 423 820 C423 855 397 881 361 881 L361 881 Z M663 881 C613 881 567 836 567 787 C567 752 593 726 628 726 C678 726 724 771 724 820 C724 855 698 881 663 881 L663 881 Z " />
<glyph glyph-name="Igrave" unicode="&#xcc;" horiz-adv-x="448" d="M89 612 L99 612 C156 612 181 597 181 562 C181 553 180 542 177 531 L93 136 C83 79 49 55 -20 55 L-29 55 L-41 0 L347 0 L358 55 L346 55 C292 55 264 71 264 103 C264 113 265 125 268 136 L352 531 C364 590 395 613 465 612 L477 612 L489 667 L101 667 L89 612 Z M403 732 L443 732 L378 892 L178 892 L176 880 L403 732 Z " />
<glyph glyph-name="Iacute" unicode="&#xcd;" horiz-adv-x="448" d="M89 612 L99 612 C156 612 181 597 181 562 C181 553 180 542 177 531 L93 136 C83 79 49 55 -20 55 L-29 55 L-41 0 L347 0 L358 55 L346 55 C292 55 264 71 264 103 C264 113 265 125 268 136 L352 531 C364 590 395 613 465 612 L477 612 L489 667 L101 667 L89 612 Z M284 732 L324 732 L615 880 L617 892 L418 892 L284 732 Z " />
<glyph glyph-name="Icircumflex" unicode="&#xce;" horiz-adv-x="448" d="M89 612 L99 612 C156 612 181 597 181 562 C181 553 180 542 177 531 L93 136 C83 79 49 55 -20 55 L-29 55 L-41 0 L347 0 L358 55 L346 55 C292 55 264 71 264 103 C264 113 265 125 268 136 L352 531 C364 590 395 613 465 612 L477 612 L489 667 L101 667 L89 612 Z M246 887 L113 728 L151 728 L326 821 L470 728 L509 728 L439 887 L246 887 Z " />
<glyph glyph-name="Idieresis" unicode="&#xcf;" horiz-adv-x="448" d="M89 612 L99 612 C156 612 181 597 181 562 C181 553 180 542 177 531 L93 136 C83 79 49 55 -20 55 L-29 55 L-41 0 L347 0 L358 55 L346 55 C292 55 264 71 264 103 C264 113 265 125 268 136 L352 531 C364 590 395 613 465 612 L477 612 L489 667 L101 667 L89 612 Z M211 881 C161 881 115 836 115 787 C115 752 141 726 177 726 C227 726 273 771 273 820 C273 855 247 881 211 881 L211 881 Z M467 881 C417 881 371 836 371 787 C371 752 397 726 433 726 C483 726 529 771 529 820 C529 855 503 881 467 881 L467 881 Z " />
<glyph glyph-name="Eth" unicode="&#xd0;" horiz-adv-x="880" d="M148 365 L33 365 L19 301 L134 301 L99 136 C89 79 52 54 -17 55 L-25 55 L-37 0 L225 0 C334 0 334 0 367 2 C487 6 544 19 620 58 C754 129 840 262 840 401 C840 501 791 580 700 625 C634 659 529 673 353 673 C269 673 236 672 108 667 L105 667 L93 613 L102 613 C158 613 186 596 186 561 C186 550 185 541 183 531 L148 365 Z M322 365 L375 615 C381 616 386 616 392 616 C483 616 525 607 568 577 C619 543 644 494 644 429 C644 312 598 188 530 123 C487 82 421 59 345 59 C299 59 271 78 271 108 C271 119 273 136 278 156 L308 301 L461 301 L474 365 L322 365 Z " />
<glyph glyph-name="Ntilde" unicode="&#xd1;" horiz-adv-x="863" d="M617 -11 L680 -11 L788 501 C800 570 829 601 891 612 L899 612 L910 667 L666 667 L654 612 L660 612 C701 612 732 585 732 549 C732 538 730 522 726 503 L674 259 L349 667 L99 667 L87 612 L92 612 C149 612 178 587 178 536 C178 526 177 519 176 511 L103 170 C93 123 89 111 79 100 C59 74 13 54 -22 55 L-27 55 L-39 0 L240 0 L252 55 L236 55 C195 54 158 84 158 117 C158 126 161 146 166 171 L231 477 L617 -11 Z M370 724 C375 753 402 775 432 775 C445 775 458 772 476 763 C552 727 570 721 610 721 C691 721 746 776 760 869 L721 869 C705 833 685 815 661 815 C643 815 627 821 578 843 C532 864 510 870 479 870 C397 870 345 819 330 724 L370 724 Z " />
<glyph glyph-name="Ograve" unicode="&#xd2;" horiz-adv-x="912" d="M537 679 C387 679 255 630 164 540 C85 462 37 356 37 263 C37 208 53 156 83 110 C137 31 244 -14 382 -14 C522 -14 643 30 736 114 C822 191 873 297 873 399 C873 491 829 573 753 623 C699 659 623 679 537 679 L537 679 Z M518 615 C592 615 645 584 664 531 C671 512 674 489 674 458 C674 371 649 256 615 186 C572 96 498 50 397 50 C292 50 236 106 236 211 C236 307 274 449 317 512 C364 582 429 615 518 615 L518 615 Z M602 732 L641 732 L576 892 L377 892 L374 880 L602 732 Z " />
<glyph glyph-name="Oacute" unicode="&#xd3;" horiz-adv-x="912" d="M537 679 C387 679 255 630 164 540 C85 462 37 356 37 263 C37 208 53 156 83 110 C137 31 244 -14 382 -14 C522 -14 643 30 736 114 C822 191 873 297 873 399 C873 491 829 573 753 623 C699 659 623 679 537 679 L537 679 Z M518 615 C592 615 645 584 664 531 C671 512 674 489 674 458 C674 371 649 256 615 186 C572 96 498 50 397 50 C292 50 236 106 236 211 C236 307 274 449 317 512 C364 582 429 615 518 615 L518 615 Z M483 732 L522 732 L813 880 L815 892 L616 892 L483 732 Z " />
<glyph glyph-name="Ocircumflex" unicode="&#xd4;" horiz-adv-x="912" d="M537 679 C387 679 255 630 164 540 C85 462 37 356 37 263 C37 208 53 156 83 110 C137 31 244 -14 382 -14 C522 -14 643 30 736 114 C822 191 873 297 873 399 C873 491 829 573 753 623 C699 659 623 679 537 679 L537 679 Z M518 615 C592 615 645 584 664 531 C671 512 674 489 674 458 C674 371 649 256 615 186 C572 96 498 50 397 50 C292 50 236 106 236 211 C236 307 274 449 317 512 C364 582 429 615 518 615 L518 615 Z M483 887 L349 728 L387 728 L562 821 L707 728 L745 728 L675 887 L483 887 Z " />
<glyph glyph-name="Otilde" unicode="&#xd5;" horiz-adv-x="912" d="M537 679 C387 679 255 630 164 540 C85 462 37 356 37 263 C37 208 53 156 83 110 C137 31 244 -14 382 -14 C522 -14 643 30 736 114 C822 191 873 297 873 399 C873 491 829 573 753 623 C699 659 623 679 537 679 L537 679 Z M518 615 C592 615 645 584 664 531 C671 512 674 489 674 458 C674 371 649 256 615 186 C572 96 498 50 397 50 C292 50 236 106 236 211 C236 307 274 449 317 512 C364 582 429 615 518 615 L518 615 Z M386 724 C391 752 418 775 448 775 C461 775 473 771 492 763 C567 727 585 721 626 721 C706 721 761 776 775 869 L736 869 C721 833 701 815 677 815 C659 815 642 821 594 843 C548 864 526 870 495 870 C413 870 359 817 345 724 L386 724 Z " />
<glyph glyph-name="Odieresis" unicode="&#xd6;" horiz-adv-x="912" d="M537 679 C387 679 255 630 164 540 C85 462 37 356 37 263 C37 208 53 156 83 110 C137 31 244 -14 382 -14 C522 -14 643 30 736 114 C822 191 873 297 873 399 C873 491 829 573 753 623 C699 659 623 679 537 679 L537 679 Z M518 615 C592 615 645 584 664 531 C671 512 674 489 674 458 C674 371 649 256 615 186 C572 96 498 50 397 50 C292 50 236 106 236 211 C236 307 274 449 317 512 C364 582 429 615 518 615 L518 615 Z M422 881 C372 881 326 836 326 787 C326 752 352 726 388 726 C438 726 484 771 484 820 C484 855 458 881 422 881 L422 881 Z M724 881 C674 881 628 836 628 787 C628 752 654 726 689 726 C739 726 785 771 785 820 C785 855 759 881 724 881 L724 881 Z " />
<glyph glyph-name="multiply" unicode="&#xd7;" horiz-adv-x="550" d="M169 576 L86 513 L214 371 L22 226 L80 160 L271 306 L398 162 L481 225 L352 368 L544 513 L486 579 L295 433 L169 576 Z " />
<glyph glyph-name="Oslash" unicode="&#xd8;" horiz-adv-x="909" d="M861 643 L825 680 L755 621 C694 661 624 679 532 679 C367 679 230 620 134 508 C72 435 36 346 36 264 C36 190 61 128 111 76 L48 23 L87 -13 L152 43 C214 6 298 -14 387 -14 C544 -14 684 47 776 157 C837 229 871 315 871 397 C871 473 847 534 795 588 L861 643 Z M672 483 L672 457 C672 344 634 204 587 141 C544 83 475 50 397 50 C326 50 277 76 251 127 L672 483 Z M236 182 C235 193 235 199 235 207 C235 305 266 429 309 501 C353 575 425 615 512 615 C588 615 633 591 658 539 L236 182 Z " />
<glyph glyph-name="Ugrave" unicode="&#xd9;" horiz-adv-x="853" d="M653 667 L641 612 L647 612 C696 612 726 587 726 546 C726 537 724 524 721 510 L674 286 C657 206 646 177 624 148 C580 90 506 55 431 55 C344 55 284 103 284 172 C284 198 288 231 296 268 L352 531 C365 592 392 613 459 612 L471 612 L483 667 L90 667 L78 612 L86 612 C139 612 162 598 162 565 C162 552 161 542 159 531 L103 268 C93 221 91 208 91 185 C91 63 193 -14 356 -14 C452 -14 549 14 611 59 C671 103 714 178 734 274 L784 507 C796 574 822 600 887 612 L893 612 L904 667 L653 667 Z M602 732 L641 732 L576 892 L376 892 L374 880 L602 732 Z " />
<glyph glyph-name="Uacute" unicode="&#xda;" horiz-adv-x="853" d="M653 667 L641 612 L647 612 C696 612 726 587 726 546 C726 537 724 524 721 510 L674 286 C657 206 646 177 624 148 C580 90 506 55 431 55 C344 55 284 103 284 172 C284 198 288 231 296 268 L352 531 C365 592 392 613 459 612 L471 612 L483 667 L90 667 L78 612 L86 612 C139 612 162 598 162 565 C162 552 161 542 159 531 L103 268 C93 221 91 208 91 185 C91 63 193 -14 356 -14 C452 -14 549 14 611 59 C671 103 714 178 734 274 L784 507 C796 574 822 600 887 612 L893 612 L904 667 L653 667 Z M489 732 L528 732 L819 880 L822 892 L622 892 L489 732 Z " />
<glyph glyph-name="Ucircumflex" unicode="&#xdb;" horiz-adv-x="853" d="M653 667 L641 612 L647 612 C696 612 726 587 726 546 C726 537 724 524 721 510 L674 286 C657 206 646 177 624 148 C580 90 506 55 431 55 C344 55 284 103 284 172 C284 198 288 231 296 268 L352 531 C365 592 392 613 459 612 L471 612 L483 667 L90 667 L78 612 L86 612 C139 612 162 598 162 565 C162 552 161 542 159 531 L103 268 C93 221 91 208 91 185 C91 63 193 -14 356 -14 C452 -14 549 14 611 59 C671 103 714 178 734 274 L784 507 C796 574 822 600 887 612 L893 612 L904 667 L653 667 Z M476 887 L342 728 L381 728 L556 821 L700 728 L738 728 L669 887 L476 887 Z " />
<glyph glyph-name="Udieresis" unicode="&#xdc;" horiz-adv-x="853" d="M653 667 L641 612 L647 612 C696 612 726 587 726 546 C726 537 724 524 721 510 L674 286 C657 206 646 177 624 148 C580 90 506 55 431 55 C344 55 284 103 284 172 C284 198 288 231 296 268 L352 531 C365 592 392 613 459 612 L471 612 L483 667 L90 667 L78 612 L86 612 C139 612 162 598 162 565 C162 552 161 542 159 531 L103 268 C93 221 91 208 91 185 C91 63 193 -14 356 -14 C452 -14 549 14 611 59 C671 103 714 178 734 274 L784 507 C796 574 822 600 887 612 L893 612 L904 667 L653 667 Z M426 881 C376 881 330 836 330 787 C330 752 356 726 392 726 C442 726 488 771 488 820 C488 855 462 881 426 881 L426 881 Z M728 881 C678 881 632 836 632 787 C632 752 658 726 693 726 C743 726 789 771 789 820 C789 855 763 881 728 881 L728 881 Z " />
<glyph glyph-name="Yacute" unicode="&#xdd;" horiz-adv-x="732" d="M435 353 L362 534 C355 550 351 567 351 575 C351 599 371 612 408 612 L414 612 L425 667 L58 667 L46 612 L52 612 C95 610 114 594 139 539 L266 273 L236 136 C226 78 193 55 123 55 L110 55 L99 0 L492 0 L503 55 L492 55 C437 55 409 71 409 104 C409 113 410 125 413 136 L444 284 L656 512 C726 590 752 608 800 612 L805 612 L817 667 L565 667 L553 612 L559 612 C597 612 616 601 616 578 C616 562 603 537 585 517 L435 353 Z M423 732 L462 732 L753 880 L756 892 L556 892 L423 732 Z " />
<glyph glyph-name="Thorn" unicode="&#xde;" horiz-adv-x="743" d="M504 667 L101 667 L89 612 L108 612 C165 612 190 597 190 562 C190 552 189 542 187 531 L103 136 C92 78 59 55 -10 55 L-24 55 L-36 0 L362 0 L373 55 L355 55 C321 55 290 63 279 76 C275 81 273 88 273 98 C273 110 274 123 277 136 L279 145 L372 144 C470 144 537 157 594 186 C670 225 717 294 717 367 C717 415 694 456 656 479 C598 513 537 523 395 523 L376 523 L368 523 L359 522 C372 591 396 610 474 612 L492 612 L504 667 Z M292 204 L347 463 C350 464 352 464 357 464 C433 464 462 459 491 441 C515 427 528 400 528 365 C528 327 515 288 492 259 C462 221 412 204 330 204 L292 204 Z " />
<glyph glyph-name="germandbls" unicode="&#xdf;" horiz-adv-x="684" d="M50 118 C39 67 23 55 -38 52 L-42 52 L-53 0 L239 0 L250 52 L244 52 C217 53 205 63 205 86 C205 94 206 100 207 107 L293 510 C302 556 308 572 322 590 C338 612 370 624 413 624 C472 624 496 602 496 548 C496 502 478 454 450 427 C432 411 397 399 357 395 L355 395 L352 395 L341 343 L343 343 L354 343 C411 343 450 304 450 247 C450 221 446 189 436 137 C421 63 405 39 373 39 C352 39 337 55 340 72 L341 77 C343 87 336 94 324 94 C302 94 285 77 285 55 C285 17 324 -9 381 -9 C508 -9 613 92 613 215 C613 294 563 346 463 371 C577 394 650 463 650 546 C650 630 569 679 428 679 C335 679 268 660 215 620 C164 581 138 530 117 432 L50 118 Z " />
<glyph glyph-name="agrave" unicode="&#xe0;" horiz-adv-x="621" d="M520 90 C512 72 499 62 483 62 C469 62 460 71 460 83 C460 87 462 100 463 105 L502 291 C507 313 508 321 508 330 C508 391 451 419 328 419 C235 419 172 407 117 378 C75 357 51 329 51 302 C51 276 74 259 110 259 C154 259 181 276 196 313 C203 331 211 342 218 348 C231 357 257 364 281 364 C326 364 347 352 347 327 C347 320 346 311 344 303 L337 266 C164 217 94 190 37 152 C7 131 -14 96 -14 65 C-14 19 30 -10 99 -10 C169 -10 236 8 298 43 C313 8 352 -10 411 -10 C494 -10 551 26 567 90 L520 90 Z M300 96 C270 75 235 63 203 63 C172 63 145 83 145 106 C145 144 192 172 325 211 L300 96 Z M437 486 L405 643 L227 643 L224 632 L395 486 L437 486 Z " />
<glyph glyph-name="aacute" unicode="&#xe1;" horiz-adv-x="621" d="M520 90 C512 72 499 62 483 62 C469 62 460 71 460 83 C460 87 462 100 463 105 L502 291 C507 313 508 321 508 330 C508 391 451 419 328 419 C235 419 172 407 117 378 C75 357 51 329 51 302 C51 276 74 259 110 259 C154 259 181 276 196 313 C203 331 211 342 218 348 C231 357 257 364 281 364 C326 364 347 352 347 327 C347 320 346 311 344 303 L337 266 C164 217 94 190 37 152 C7 131 -14 96 -14 65 C-14 19 30 -10 99 -10 C169 -10 236 8 298 43 C313 8 352 -10 411 -10 C494 -10 551 26 567 90 L520 90 Z M300 96 C270 75 235 63 203 63 C172 63 145 83 145 106 C145 144 192 172 325 211 L300 96 Z M298 486 L340 486 L573 632 L575 643 L397 643 L298 486 Z " />
<glyph glyph-name="acircumflex" unicode="&#xe2;" horiz-adv-x="621" d="M520 90 C512 72 499 62 483 62 C469 62 460 71 460 83 C460 87 462 100 463 105 L502 291 C507 313 508 321 508 330 C508 391 451 419 328 419 C235 419 172 407 117 378 C75 357 51 329 51 302 C51 276 74 259 110 259 C154 259 181 276 196 313 C203 331 211 342 218 348 C231 357 257 364 281 364 C326 364 347 352 347 327 C347 320 346 311 344 303 L337 266 C164 217 94 190 37 152 C7 131 -14 96 -14 65 C-14 19 30 -10 99 -10 C169 -10 236 8 298 43 C313 8 352 -10 411 -10 C494 -10 551 26 567 90 L520 90 Z M300 96 C270 75 235 63 203 63 C172 63 145 83 145 106 C145 144 192 172 325 211 L300 96 Z M455 484 L498 484 L449 647 L317 647 L193 484 L233 484 L365 568 L455 484 Z " />
<glyph glyph-name="atilde" unicode="&#xe3;" horiz-adv-x="621" d="M520 90 C512 72 499 62 483 62 C469 62 460 71 460 83 C460 87 462 100 463 105 L502 291 C507 313 508 321 508 330 C508 391 451 419 328 419 C235 419 172 407 117 378 C75 357 51 329 51 302 C51 276 74 259 110 259 C154 259 181 276 196 313 C203 331 211 342 218 348 C231 357 257 364 281 364 C326 364 347 352 347 327 C347 320 346 311 344 303 L337 266 C164 217 94 190 37 152 C7 131 -14 96 -14 65 C-14 19 30 -10 99 -10 C169 -10 236 8 298 43 C313 8 352 -10 411 -10 C494 -10 551 26 567 90 L520 90 Z M300 96 C270 75 235 63 203 63 C172 63 145 83 145 106 C145 144 192 172 325 211 L300 96 Z M222 493 C235 519 249 529 270 529 C283 529 311 521 338 510 C369 497 386 493 403 493 C464 493 510 545 528 633 L489 633 C480 604 462 588 439 588 C427 588 409 592 394 598 C346 618 328 623 306 623 C277 623 239 604 222 580 C205 559 195 533 186 493 L222 493 Z " />
<glyph glyph-name="adieresis" unicode="&#xe4;" horiz-adv-x="621" d="M520 90 C512 72 499 62 483 62 C469 62 460 71 460 83 C460 87 462 100 463 105 L502 291 C507 313 508 321 508 330 C508 391 451 419 328 419 C235 419 172 407 117 378 C75 357 51 329 51 302 C51 276 74 259 110 259 C154 259 181 276 196 313 C203 331 211 342 218 348 C231 357 257 364 281 364 C326 364 347 352 347 327 C347 320 346 311 344 303 L337 266 C164 217 94 190 37 152 C7 131 -14 96 -14 65 C-14 19 30 -10 99 -10 C169 -10 236 8 298 43 C313 8 352 -10 411 -10 C494 -10 551 26 567 90 L520 90 Z M300 96 C270 75 235 63 203 63 C172 63 145 83 145 106 C145 144 192 172 325 211 L300 96 Z M243 638 C198 638 156 597 156 554 C156 522 180 498 212 498 C257 498 299 539 299 583 C299 614 275 638 243 638 L243 638 Z M498 638 C453 638 411 597 411 553 C411 522 435 498 466 498 C511 498 553 539 553 582 C553 614 529 638 498 638 L498 638 Z " />
<glyph glyph-name="aring" unicode="&#xe5;" horiz-adv-x="621" d="M520 90 C512 72 499 62 483 62 C469 62 460 71 460 83 C460 87 462 100 463 105 L502 291 C507 313 508 321 508 330 C508 391 451 419 328 419 C235 419 172 407 117 378 C75 357 51 329 51 302 C51 276 74 259 110 259 C154 259 181 276 196 313 C203 331 211 342 218 348 C231 357 257 364 281 364 C326 364 347 352 347 327 C347 320 346 311 344 303 L337 266 C164 217 94 190 37 152 C7 131 -14 96 -14 65 C-14 19 30 -10 99 -10 C169 -10 236 8 298 43 C313 8 352 -10 411 -10 C494 -10 551 26 567 90 L520 90 Z M300 96 C270 75 235 63 203 63 C172 63 145 83 145 106 C145 144 192 172 325 211 L300 96 Z M386 682 C317 682 253 620 253 554 C253 505 290 469 338 469 C407 469 471 531 471 598 C471 646 435 682 386 682 L386 682 Z M375 633 C401 633 421 614 421 588 C421 552 386 518 349 518 C323 518 304 537 304 563 C304 600 338 633 375 633 L375 633 Z " />
<glyph glyph-name="ae" unicode="&#xe6;" horiz-adv-x="831" d="M677 105 C637 70 594 52 551 52 C497 52 469 86 469 150 C469 167 470 185 473 196 L475 206 L766 206 C770 228 771 240 771 256 C771 297 761 329 741 354 C709 394 650 419 587 419 C543 419 501 411 465 395 C399 415 375 419 307 419 C159 419 44 367 44 301 C44 278 69 261 104 261 C141 261 172 281 183 311 C191 336 192 336 198 343 C210 356 235 364 261 364 C297 364 321 347 321 322 C321 316 319 306 317 293 L311 266 C160 221 94 194 40 155 C7 132 -15 95 -15 66 C-15 25 32 -9 90 -9 C157 -9 231 15 309 62 C351 15 414 -9 495 -9 C587 -9 670 22 722 77 L677 105 Z M485 256 C504 334 530 366 574 366 C602 366 622 343 622 311 C622 301 620 284 615 256 L485 256 Z M275 95 C248 76 216 65 189 65 C164 65 143 83 143 105 C143 144 191 177 299 211 L275 95 Z " />
<glyph glyph-name="ccedilla" unicode="&#xe7;" horiz-adv-x="545" d="M419 124 C382 74 333 49 270 49 C201 49 171 79 171 149 C171 180 181 231 196 275 C214 330 261 366 314 366 C342 366 354 357 356 334 C357 303 358 298 367 284 C377 268 397 258 420 258 C467 258 507 294 507 335 C507 388 448 419 349 419 C157 419 3 300 3 152 C3 55 78 -8 201 -15 C189 -54 180 -77 166 -102 C195 -104 212 -116 212 -134 C212 -156 193 -169 162 -169 C141 -169 122 -166 96 -159 C89 -181 88 -185 80 -205 C97 -212 118 -216 144 -216 C236 -216 299 -172 299 -107 C299 -69 278 -48 235 -44 C241 -28 243 -24 246 -15 C345 -9 429 35 470 102 L419 124 Z " />
<glyph glyph-name="egrave" unicode="&#xe8;" horiz-adv-x="567" d="M417 104 C372 64 329 45 283 45 C224 45 188 81 188 140 C188 163 193 192 198 206 L503 206 C508 230 510 244 510 264 C510 297 502 325 485 349 C454 391 386 419 313 419 C145 419 8 302 8 159 C8 54 95 -16 225 -16 C313 -16 407 21 461 77 L417 104 Z M210 255 C224 305 230 321 245 339 C256 354 280 364 300 364 C334 364 351 344 351 305 C351 291 350 278 347 255 L210 255 Z M426 486 L394 643 L215 643 L213 632 L383 486 L426 486 Z " />
<glyph glyph-name="eacute" unicode="&#xe9;" horiz-adv-x="567" d="M417 104 C372 64 329 45 283 45 C224 45 188 81 188 140 C188 163 193 192 198 206 L503 206 C508 230 510 244 510 264 C510 297 502 325 485 349 C454 391 386 419 313 419 C145 419 8 302 8 159 C8 54 95 -16 225 -16 C313 -16 407 21 461 77 L417 104 Z M210 255 C224 305 230 321 245 339 C256 354 280 364 300 364 C334 364 351 344 351 305 C351 291 350 278 347 255 L210 255 Z M288 486 L331 486 L564 632 L566 643 L388 643 L288 486 Z " />
<glyph glyph-name="ecircumflex" unicode="&#xea;" horiz-adv-x="567" d="M417 104 C372 64 329 45 283 45 C224 45 188 81 188 140 C188 163 193 192 198 206 L503 206 C508 230 510 244 510 264 C510 297 502 325 485 349 C454 391 386 419 313 419 C145 419 8 302 8 159 C8 54 95 -16 225 -16 C313 -16 407 21 461 77 L417 104 Z M210 255 C224 305 230 321 245 339 C256 354 280 364 300 364 C334 364 351 344 351 305 C351 291 350 278 347 255 L210 255 Z M443 484 L487 484 L438 647 L306 647 L182 484 L222 484 L354 568 L443 484 Z " />
<glyph glyph-name="edieresis" unicode="&#xeb;" horiz-adv-x="567" d="M417 104 C372 64 329 45 283 45 C224 45 188 81 188 140 C188 163 193 192 198 206 L503 206 C508 230 510 244 510 264 C510 297 502 325 485 349 C454 391 386 419 313 419 C145 419 8 302 8 159 C8 54 95 -16 225 -16 C313 -16 407 21 461 77 L417 104 Z M210 255 C224 305 230 321 245 339 C256 354 280 364 300 364 C334 364 351 344 351 305 C351 291 350 278 347 255 L210 255 Z M232 638 C187 638 145 597 145 554 C145 522 169 498 200 498 C245 498 287 539 287 583 C287 614 263 638 232 638 L232 638 Z M487 638 C442 638 400 597 400 553 C400 522 424 498 455 498 C500 498 542 539 542 582 C542 614 518 638 487 638 L487 638 Z " />
<glyph glyph-name="igrave" unicode="&#xec;" horiz-adv-x="359" d="M286 419 L280 419 C249 413 248 413 148 398 C59 385 55 384 28 382 L17 330 L30 330 C72 330 90 319 90 293 C90 286 89 274 87 264 L55 118 C44 67 27 54 -29 52 L-42 52 L-53 0 L278 0 L289 52 L284 52 C238 52 219 65 219 97 C219 101 220 111 222 118 L286 419 Z M307 486 L275 643 L97 643 L94 632 L265 486 L307 486 Z " />
<glyph glyph-name="iacute" unicode="&#xed;" horiz-adv-x="359" d="M286 419 L280 419 C249 413 248 413 148 398 C59 385 55 384 28 382 L17 330 L30 330 C72 330 90 319 90 293 C90 286 89 274 87 264 L55 118 C44 67 27 54 -29 52 L-42 52 L-53 0 L278 0 L289 52 L284 52 C238 52 219 65 219 97 C219 101 220 111 222 118 L286 419 Z M174 486 L217 486 L449 632 L451 643 L273 643 L174 486 Z " />
<glyph glyph-name="icircumflex" unicode="&#xee;" horiz-adv-x="359" d="M286 419 L280 419 C249 413 248 413 148 398 C59 385 55 384 28 382 L17 330 L30 330 C72 330 90 319 90 293 C90 286 89 274 87 264 L55 118 C44 67 27 54 -29 52 L-42 52 L-53 0 L278 0 L289 52 L284 52 C238 52 219 65 219 97 C219 101 220 111 222 118 L286 419 Z M325 484 L368 484 L319 647 L187 647 L63 484 L103 484 L235 568 L325 484 Z " />
<glyph glyph-name="idieresis" unicode="&#xef;" horiz-adv-x="359" d="M286 419 L280 419 C249 413 248 413 148 398 C59 385 55 384 28 382 L17 330 L30 330 C72 330 90 319 90 293 C90 286 89 274 87 264 L55 118 C44 67 27 54 -29 52 L-42 52 L-53 0 L278 0 L289 52 L284 52 C238 52 219 65 219 97 C219 101 220 111 222 118 L286 419 Z M151 638 C106 638 64 597 64 554 C64 522 88 498 120 498 C165 498 207 539 207 583 C207 614 183 638 151 638 L151 638 Z M352 638 C306 638 265 597 265 553 C265 522 289 498 320 498 C365 498 407 539 407 583 C407 614 383 638 352 638 L352 638 Z " />
<glyph glyph-name="eth" unicode="&#xf0;" horiz-adv-x="621" d="M232 604 C266 583 271 580 300 557 L187 508 L202 461 L338 519 C361 492 385 438 388 406 C369 414 355 417 327 417 C148 417 8 304 8 158 C8 50 95 -14 243 -14 C339 -14 414 15 477 77 C534 134 570 228 570 325 C570 418 538 495 466 573 L553 611 L535 658 L426 611 C396 634 363 654 312 677 L232 604 Z M317 361 C364 361 393 332 393 283 C393 239 379 173 361 128 C338 72 299 41 252 41 C198 41 172 68 172 124 C172 163 186 232 201 272 C224 332 262 361 317 361 L317 361 Z " />
<glyph glyph-name="ntilde" unicode="&#xf1;" horiz-adv-x="670" d="M264 408 C241 404 226 401 178 394 C100 383 70 378 29 372 L18 320 L22 320 C66 320 87 305 87 274 C87 268 87 264 86 260 L56 118 C44 69 25 54 -34 52 L-37 52 L-48 0 L253 0 L264 52 L259 52 C227 53 212 67 212 95 C212 102 213 110 214 118 L247 273 C302 318 334 335 366 335 C397 335 414 320 414 295 C414 292 413 286 412 281 L377 118 C367 73 349 57 307 53 L300 52 L289 0 L590 0 L601 52 L597 52 C554 52 536 65 536 96 C536 101 537 110 539 118 L568 258 C575 287 577 304 577 318 C577 379 525 419 447 419 C384 419 321 395 267 350 C270 367 271 379 271 391 C271 398 271 401 269 408 L264 408 Z M252 493 C265 519 278 529 299 529 C312 529 341 521 368 510 C399 497 416 493 433 493 C493 493 540 545 557 633 L519 633 C510 604 492 588 469 588 C457 588 439 592 424 598 C376 618 358 623 336 623 C307 623 269 604 251 580 C235 559 225 533 216 493 L252 493 Z " />
<glyph glyph-name="ograve" unicode="&#xf2;" horiz-adv-x="622" d="M332 419 C149 419 7 304 7 155 C7 114 19 79 43 54 C83 10 157 -16 237 -16 C416 -16 559 102 559 250 C559 283 550 310 532 336 C495 386 416 419 332 419 L332 419 Z M319 364 C370 364 399 339 399 294 C399 265 386 198 371 146 C350 73 311 38 250 38 C199 38 168 66 168 110 C168 179 196 285 224 325 C241 349 278 364 319 364 L319 364 Z M428 486 L396 643 L218 643 L215 632 L386 486 L428 486 Z " />
<glyph glyph-name="oacute" unicode="&#xf3;" horiz-adv-x="622" d="M332 419 C149 419 7 304 7 155 C7 114 19 79 43 54 C83 10 157 -16 237 -16 C416 -16 559 102 559 250 C559 283 550 310 532 336 C495 386 416 419 332 419 L332 419 Z M319 364 C370 364 399 339 399 294 C399 265 386 198 371 146 C350 73 311 38 250 38 C199 38 168 66 168 110 C168 179 196 285 224 325 C241 349 278 364 319 364 L319 364 Z M303 486 L346 486 L579 632 L581 643 L403 643 L303 486 Z " />
<glyph glyph-name="ocircumflex" unicode="&#xf4;" horiz-adv-x="622" d="M332 419 C149 419 7 304 7 155 C7 114 19 79 43 54 C83 10 157 -16 237 -16 C416 -16 559 102 559 250 C559 283 550 310 532 336 C495 386 416 419 332 419 L332 419 Z M319 364 C370 364 399 339 399 294 C399 265 386 198 371 146 C350 73 311 38 250 38 C199 38 168 66 168 110 C168 179 196 285 224 325 C241 349 278 364 319 364 L319 364 Z M452 484 L495 484 L447 647 L314 647 L190 484 L230 484 L362 568 L452 484 Z " />
<glyph glyph-name="otilde" unicode="&#xf5;" horiz-adv-x="622" d="M332 419 C149 419 7 304 7 155 C7 114 19 79 43 54 C83 10 157 -16 237 -16 C416 -16 559 102 559 250 C559 283 550 310 532 336 C495 386 416 419 332 419 L332 419 Z M319 364 C370 364 399 339 399 294 C399 265 386 198 371 146 C350 73 311 38 250 38 C199 38 168 66 168 110 C168 179 196 285 224 325 C241 349 278 364 319 364 L319 364 Z M233 493 C245 519 259 529 280 529 C293 529 321 521 348 510 C379 497 396 493 413 493 C474 493 520 545 538 633 L499 633 C491 605 472 588 449 588 C437 588 419 592 404 598 C356 618 338 623 316 623 C287 623 250 604 232 580 C215 559 205 533 196 493 L233 493 Z " />
<glyph glyph-name="odieresis" unicode="&#xf6;" horiz-adv-x="622" d="M332 419 C149 419 7 304 7 155 C7 114 19 79 43 54 C83 10 157 -16 237 -16 C416 -16 559 102 559 250 C559 283 550 310 532 336 C495 386 416 419 332 419 L332 419 Z M319 364 C370 364 399 339 399 294 C399 265 386 198 371 146 C350 73 311 38 250 38 C199 38 168 66 168 110 C168 179 196 285 224 325 C241 349 278 364 319 364 L319 364 Z M255 638 C210 638 168 597 168 554 C168 522 192 498 224 498 C269 498 311 539 311 583 C311 614 287 638 255 638 L255 638 Z M510 638 C465 638 423 597 423 553 C423 522 447 498 479 498 C524 498 566 539 566 583 C566 614 542 638 510 638 L510 638 Z " />
<glyph glyph-name="divide" unicode="&#xf7;" horiz-adv-x="550" d="M19 414 L0 325 L545 325 L564 414 L19 414 Z M259 251 C201 251 147 204 147 152 C147 114 179 85 222 85 C280 85 334 132 334 184 C334 222 302 251 259 251 L259 251 Z M344 648 C285 648 232 601 232 549 C232 511 264 482 306 482 C365 482 418 529 418 581 C418 619 386 648 344 648 L344 648 Z " />
<glyph glyph-name="oslash" unicode="&#xf8;" horiz-adv-x="622" d="M561 407 L525 442 L463 390 C424 409 375 419 325 419 C148 419 7 302 7 156 C7 107 22 71 56 42 L3 -3 L40 -38 L100 13 C137 -5 188 -16 238 -16 C416 -16 558 102 558 249 C558 296 541 333 508 362 L561 407 Z M396 267 C373 99 334 38 250 38 C212 38 187 51 175 78 L396 267 Z M170 140 C182 240 206 313 235 337 C256 354 285 364 316 364 C352 364 381 351 392 329 L170 140 Z " />
<glyph glyph-name="ugrave" unicode="&#xf9;" horiz-adv-x="655" d="M576 403 L351 403 L340 351 L344 351 C381 351 395 341 395 313 C395 303 394 294 392 285 L359 131 C317 88 280 68 243 68 C217 68 199 83 199 105 C199 114 201 128 203 140 L259 403 L25 403 L14 351 L17 351 C60 351 78 338 78 307 C78 302 77 293 75 285 L42 131 C38 111 36 95 36 83 C36 24 88 -16 163 -16 C227 -16 287 8 343 55 L342 49 L338 31 L334 9 C332 2 331 -4 329 -10 C329 -11 329 -13 328 -16 L334 -16 C369 -8 501 1 572 0 L584 52 L580 52 C533 52 513 65 513 97 C513 101 514 111 516 118 L576 403 Z M449 486 L417 643 L238 643 L236 632 L406 486 L449 486 Z " />
<glyph glyph-name="uacute" unicode="&#xfa;" horiz-adv-x="655" d="M576 403 L351 403 L340 351 L344 351 C381 351 395 341 395 313 C395 303 394 294 392 285 L359 131 C317 88 280 68 243 68 C217 68 199 83 199 105 C199 114 201 128 203 140 L259 403 L25 403 L14 351 L17 351 C60 351 78 338 78 307 C78 302 77 293 75 285 L42 131 C38 111 36 95 36 83 C36 24 88 -16 163 -16 C227 -16 287 8 343 55 L342 49 L338 31 L334 9 C332 2 331 -4 329 -10 C329 -11 329 -13 328 -16 L334 -16 C369 -8 501 1 572 0 L584 52 L580 52 C533 52 513 65 513 97 C513 101 514 111 516 118 L576 403 Z M313 486 L356 486 L588 632 L591 643 L413 643 L313 486 Z " />
<glyph glyph-name="ucircumflex" unicode="&#xfb;" horiz-adv-x="655" d="M576 403 L351 403 L340 351 L344 351 C381 351 395 341 395 313 C395 303 394 294 392 285 L359 131 C317 88 280 68 243 68 C217 68 199 83 199 105 C199 114 201 128 203 140 L259 403 L25 403 L14 351 L17 351 C60 351 78 338 78 307 C78 302 77 293 75 285 L42 131 C38 111 36 95 36 83 C36 24 88 -16 163 -16 C227 -16 287 8 343 55 L342 49 L338 31 L334 9 C332 2 331 -4 329 -10 C329 -11 329 -13 328 -16 L334 -16 C369 -8 501 1 572 0 L584 52 L580 52 C533 52 513 65 513 97 C513 101 514 111 516 118 L576 403 Z M472 484 L516 484 L467 647 L335 647 L211 484 L251 484 L383 568 L472 484 Z " />
<glyph glyph-name="udieresis" unicode="&#xfc;" horiz-adv-x="655" d="M576 403 L351 403 L340 351 L344 351 C381 351 395 341 395 313 C395 303 394 294 392 285 L359 131 C317 88 280 68 243 68 C217 68 199 83 199 105 C199 114 201 128 203 140 L259 403 L25 403 L14 351 L17 351 C60 351 78 338 78 307 C78 302 77 293 75 285 L42 131 C38 111 36 95 36 83 C36 24 88 -16 163 -16 C227 -16 287 8 343 55 L342 49 L338 31 L334 9 C332 2 331 -4 329 -10 C329 -11 329 -13 328 -16 L334 -16 C369 -8 501 1 572 0 L584 52 L580 52 C533 52 513 65 513 97 C513 101 514 111 516 118 L576 403 Z M269 638 C224 638 182 597 182 554 C182 522 206 498 238 498 C283 498 325 539 325 583 C325 614 301 638 269 638 L269 638 Z M524 638 C479 638 437 597 437 553 C437 522 461 498 493 498 C538 498 580 539 580 583 C580 614 556 638 524 638 L524 638 Z " />
<glyph glyph-name="yacute" unicode="&#xfd;" horiz-adv-x="577" d="M8 403 L-3 351 L5 350 C33 347 40 338 62 282 L193 -18 L175 -44 C140 -90 115 -104 32 -121 C-27 -133 -57 -158 -57 -196 C-57 -229 -29 -251 11 -251 C73 -251 113 -222 189 -121 L453 230 C522 332 535 346 567 350 L575 351 L586 403 L423 403 L412 351 L421 351 C436 352 450 341 450 330 C450 322 439 302 421 278 L318 139 L251 295 C248 303 245 318 245 328 C245 342 256 350 280 351 L289 351 L300 403 L8 403 Z M315 486 L358 486 L590 632 L593 643 L415 643 L315 486 Z " />
<glyph glyph-name="thorn" unicode="&#xfe;" horiz-adv-x="679" d="M318 679 C296 674 214 660 131 648 C99 644 89 642 77 640 L66 588 L71 588 C118 588 137 575 137 543 C137 538 136 529 134 522 L-2 -120 C-13 -168 -34 -183 -94 -185 L-98 -185 L-109 -237 L228 -237 L239 -185 L220 -185 C174 -185 155 -172 155 -141 C155 -132 155 -127 157 -120 L191 40 C237 2 281 -16 331 -16 C487 -16 617 108 617 256 C617 352 546 419 444 419 C379 419 315 396 254 349 L324 679 L318 679 Z M242 282 C281 324 326 346 373 346 C422 346 452 317 452 269 C452 235 439 172 426 137 C408 91 357 58 304 58 C267 58 227 75 204 100 L242 282 Z " />
<glyph glyph-name="ydieresis" unicode="&#xff;" horiz-adv-x="577" d="M8 403 L-3 351 L5 350 C33 347 40 338 62 282 L193 -18 L175 -44 C140 -90 115 -104 32 -121 C-27 -133 -57 -158 -57 -196 C-57 -229 -29 -251 11 -251 C73 -251 113 -222 189 -121 L453 230 C522 332 535 346 567 350 L575 351 L586 403 L423 403 L412 351 L421 351 C436 352 450 341 450 330 C450 322 439 302 421 278 L318 139 L251 295 C248 303 245 318 245 328 C245 342 256 350 280 351 L289 351 L300 403 L8 403 Z M246 638 C201 638 159 597 159 554 C159 522 183 498 215 498 C259 498 301 539 301 583 C301 614 277 638 246 638 L246 638 Z M501 638 C456 638 414 597 414 553 C414 522 438 498 469 498 C514 498 556 539 556 583 C556 614 532 638 501 638 L501 638 Z " />
<glyph glyph-name="Amacron" unicode="&#x100;" horiz-adv-x="720" d="M665 0 L676 55 L671 55 C621 60 606 78 584 162 L464 679 L401 679 L75 177 C28 101 -21 59 -67 55 L-73 55 L-85 0 L157 0 L169 55 L161 55 C124 55 101 67 101 87 C101 100 111 123 131 153 L148 180 L374 180 L380 155 C387 129 392 100 392 91 C392 66 369 55 319 55 L313 55 L301 0 L665 0 Z M362 236 L184 236 L313 436 L362 236 Z M269 818 L256 756 L645 756 L659 818 L269 818 Z " />
<glyph glyph-name="amacron" unicode="&#x101;" horiz-adv-x="621" d="M520 90 C512 72 499 62 483 62 C469 62 460 71 460 83 C460 87 462 100 463 105 L502 291 C507 313 508 321 508 330 C508 391 451 419 328 419 C235 419 172 407 117 378 C75 357 51 329 51 302 C51 276 74 259 110 259 C154 259 181 276 196 313 C203 331 211 342 218 348 C231 357 257 364 281 364 C326 364 347 352 347 327 C347 320 346 311 344 303 L337 266 C164 217 94 190 37 152 C7 131 -14 96 -14 65 C-14 19 30 -10 99 -10 C169 -10 236 8 298 43 C313 8 352 -10 411 -10 C494 -10 551 26 567 90 L520 90 Z M300 96 C270 75 235 63 203 63 C172 63 145 83 145 106 C145 144 192 172 325 211 L300 96 Z M190 591 L177 529 L525 529 L538 591 L190 591 Z " />
<glyph glyph-name="Abreve" unicode="&#x102;" horiz-adv-x="720" d="M665 0 L676 55 L671 55 C621 60 606 78 584 162 L464 679 L401 679 L75 177 C28 101 -21 59 -67 55 L-73 55 L-85 0 L157 0 L169 55 L161 55 C124 55 101 67 101 87 C101 100 111 123 131 153 L148 180 L374 180 L380 155 C387 129 392 100 392 91 C392 66 369 55 319 55 L313 55 L301 0 L665 0 Z M362 236 L184 236 L313 436 L362 236 Z M275 882 C288 784 353 725 448 725 C540 725 627 784 680 882 L621 882 C587 840 529 815 461 815 C395 815 355 837 336 882 L275 882 Z " />
<glyph glyph-name="abreve" unicode="&#x103;" horiz-adv-x="621" d="M520 90 C512 72 499 62 483 62 C469 62 460 71 460 83 C460 87 462 100 463 105 L502 291 C507 313 508 321 508 330 C508 391 451 419 328 419 C235 419 172 407 117 378 C75 357 51 329 51 302 C51 276 74 259 110 259 C154 259 181 276 196 313 C203 331 211 342 218 348 C231 357 257 364 281 364 C326 364 347 352 347 327 C347 320 346 311 344 303 L337 266 C164 217 94 190 37 152 C7 131 -14 96 -14 65 C-14 19 30 -10 99 -10 C169 -10 236 8 298 43 C313 8 352 -10 411 -10 C494 -10 551 26 567 90 L520 90 Z M300 96 C270 75 235 63 203 63 C172 63 145 83 145 106 C145 144 192 172 325 211 L300 96 Z M232 647 C229 633 228 623 228 610 C228 533 278 478 347 478 C431 478 510 550 533 647 L500 647 C471 593 427 566 368 566 C308 566 272 595 266 647 L232 647 Z " />
<glyph glyph-name="Aogonek" unicode="&#x104;" horiz-adv-x="720" d="M665 0 L676 55 L671 55 C621 60 606 78 584 162 L464 679 L401 679 L75 177 C28 101 -21 59 -67 55 L-73 55 L-85 0 L157 0 L169 55 L161 55 C124 55 101 67 101 87 C101 100 111 123 131 153 L148 180 L374 180 L380 155 C387 129 392 100 392 91 C392 66 369 55 319 55 L313 55 L301 0 L526 0 C447 -36 401 -87 401 -138 C401 -185 450 -219 519 -219 C565 -219 601 -209 656 -180 L645 -149 C618 -158 603 -161 583 -161 C539 -161 510 -140 510 -107 C510 -71 539 -35 595 0 L665 0 Z M362 236 L184 236 L313 436 L362 236 Z " />
<glyph glyph-name="aogonek" unicode="&#x105;" horiz-adv-x="621" d="M520 90 C512 72 499 62 483 62 C469 62 460 71 460 83 C460 87 462 100 463 105 L502 291 C507 313 508 321 508 330 C508 391 451 419 328 419 C235 419 172 407 117 378 C75 357 51 329 51 302 C51 276 74 259 110 259 C154 259 181 276 196 313 C203 331 211 342 218 348 C231 357 257 364 281 364 C326 364 347 352 347 327 C347 320 346 311 344 303 L337 266 C164 217 94 190 37 152 C7 131 -14 96 -14 65 C-14 19 30 -10 99 -10 C169 -10 236 8 298 43 C308 19 328 4 364 -4 C305 -38 273 -80 273 -121 C273 -165 318 -196 382 -196 C424 -196 459 -186 508 -160 L498 -131 C472 -139 459 -141 441 -141 C402 -141 376 -122 376 -94 C376 -67 396 -34 429 -9 C506 -1 552 32 567 90 L520 90 Z M300 96 C270 75 235 63 203 63 C172 63 145 83 145 106 C145 144 192 172 325 211 L300 96 Z " />
<glyph glyph-name="Cacute" unicode="&#x106;" horiz-adv-x="816" d="M676 256 C647 194 597 131 556 104 C505 70 443 51 385 51 C289 51 225 108 225 195 C225 277 251 395 286 473 C327 562 408 615 505 615 C623 615 690 545 700 412 L760 412 L805 658 L745 658 C731 632 723 617 710 599 C656 654 591 679 498 679 C352 679 219 615 129 502 C70 428 37 340 37 257 C37 95 161 -14 347 -14 C441 -14 540 18 606 70 C616 54 621 34 623 6 L683 6 L737 256 L676 256 Z M468 732 L508 732 L799 880 L801 892 L602 892 L468 732 Z " />
<glyph glyph-name="cacute" unicode="&#x107;" horiz-adv-x="545" d="M419 124 C382 74 333 49 270 49 C201 49 171 79 171 148 C171 180 181 231 195 275 C214 330 261 366 314 366 C342 366 354 357 356 334 C357 303 358 298 367 284 C377 268 397 258 420 258 C467 258 507 294 507 335 C507 388 448 419 349 419 C157 419 3 300 3 152 C3 50 89 -16 221 -16 C332 -16 421 26 470 102 L419 124 Z M279 486 L322 486 L554 632 L557 643 L378 643 L279 486 Z " />
<glyph glyph-name="Ccircumflex" unicode="&#x108;" horiz-adv-x="816" d="M676 256 C647 194 597 131 556 104 C505 70 443 51 385 51 C289 51 225 108 225 195 C225 277 251 395 286 473 C327 562 408 615 505 615 C623 615 690 545 700 412 L760 412 L805 658 L745 658 C731 632 723 617 710 599 C656 654 591 679 498 679 C352 679 219 615 129 502 C70 428 37 340 37 257 C37 95 161 -14 347 -14 C441 -14 540 18 606 70 C616 54 621 34 623 6 L683 6 L737 256 L676 256 Z M456 887 L322 728 L360 728 L535 821 L680 728 L718 728 L648 887 L456 887 Z " />
<glyph glyph-name="Cdotaccent" unicode="&#x10a;" horiz-adv-x="816" d="M676 256 C647 194 597 131 556 104 C505 70 443 51 385 51 C289 51 225 108 225 195 C225 277 251 395 286 473 C327 562 408 615 505 615 C623 615 690 545 700 412 L760 412 L805 658 L745 658 C731 632 723 617 710 599 C656 654 591 679 498 679 C352 679 219 615 129 502 C70 428 37 340 37 257 C37 95 161 -14 347 -14 C441 -14 540 18 606 70 C616 54 621 34 623 6 L683 6 L737 256 L676 256 Z M548 881 C498 881 452 836 452 787 C452 752 478 726 514 726 C564 726 610 771 610 820 C610 855 584 881 548 881 L548 881 Z " />
<glyph glyph-name="cdotaccent" unicode="&#x10b;" horiz-adv-x="545" d="M419 124 C382 74 333 49 270 49 C201 49 171 79 171 148 C171 180 181 231 195 275 C214 330 261 366 314 366 C342 366 354 357 356 334 C357 303 358 298 367 284 C377 268 397 258 420 258 C467 258 507 294 507 335 C507 388 448 419 349 419 C157 419 3 300 3 152 C3 50 89 -16 221 -16 C332 -16 421 26 470 102 L419 124 Z M373 638 C328 638 286 597 286 554 C286 522 310 498 342 498 C387 498 429 539 429 583 C429 614 405 638 373 638 L373 638 Z " />
<glyph glyph-name="Ccaron" unicode="&#x10c;" horiz-adv-x="816" d="M676 256 C647 194 597 131 556 104 C505 70 443 51 385 51 C289 51 225 108 225 195 C225 277 251 395 286 473 C327 562 408 615 505 615 C623 615 690 545 700 412 L760 412 L805 658 L745 658 C731 632 723 617 710 599 C656 654 591 679 498 679 C352 679 219 615 129 502 C70 428 37 340 37 257 C37 95 161 -14 347 -14 C441 -14 540 18 606 70 C616 54 621 34 623 6 L683 6 L737 256 L676 256 Z M609 728 L746 887 L708 887 L532 795 L389 887 L350 887 L416 728 L609 728 Z " />
<glyph glyph-name="ccaron" unicode="&#x10d;" horiz-adv-x="545" d="M419 124 C382 74 333 49 270 49 C201 49 171 79 171 148 C171 180 181 231 195 275 C214 330 261 366 314 366 C342 366 354 357 356 334 C357 303 358 298 367 284 C377 268 397 258 420 258 C467 258 507 294 507 335 C507 388 448 419 349 419 C157 419 3 300 3 152 C3 50 89 -16 221 -16 C332 -16 421 26 470 102 L419 124 Z M257 654 L217 654 L272 491 L404 491 L522 654 L479 654 L354 570 L257 654 Z " />
<glyph glyph-name="Dcaron" unicode="&#x10e;" horiz-adv-x="876" d="M101 667 L89 613 L98 613 C154 613 182 596 182 561 C182 550 181 541 179 531 L95 136 C85 79 48 53 -21 55 L-29 55 L-41 0 L221 0 C330 0 330 0 363 2 C483 6 540 19 616 58 C751 128 836 261 836 401 C836 501 787 580 696 625 C630 659 525 673 349 673 C265 673 232 672 104 667 L101 667 Z M371 615 C377 616 382 616 388 616 C479 616 521 607 564 577 C615 543 640 494 640 429 C640 311 594 188 526 123 C483 82 417 59 341 59 C295 59 267 78 267 108 C267 118 269 136 274 156 L371 615 Z M570 728 L707 887 L669 887 L493 795 L349 887 L311 887 L377 728 L570 728 Z " />
<glyph glyph-name="dcaron" unicode="&#x10f;" horiz-adv-x="800" d="M605 66 L596 66 C551 66 530 80 530 110 C530 116 531 125 533 132 L649 679 L643 679 C618 674 610 673 568 666 L463 650 L414 642 L403 590 L407 590 C446 590 460 580 460 551 C460 543 459 534 457 525 L423 366 C395 400 342 419 279 419 C122 419 4 297 4 133 C4 47 72 -10 173 -10 C237 -10 293 10 357 56 C354 41 353 29 353 18 C353 9 354 3 355 -9 C418 1 489 7 594 11 L605 66 Z M372 124 C338 86 293 64 245 64 C201 64 173 91 173 132 C173 162 184 224 194 253 C216 316 258 348 317 348 C352 348 380 336 411 307 L372 124 Z M651 432 C762 434 847 507 847 602 C847 651 818 679 768 679 C717 679 674 644 674 602 C674 575 697 555 726 555 C732 555 740 556 747 558 C753 559 760 560 764 560 C771 560 776 554 776 546 C776 534 766 517 749 504 C728 486 701 477 660 474 L651 432 Z " />
<glyph glyph-name="Dcroat" unicode="&#x110;" horiz-adv-x="880" d="M148 365 L33 365 L19 301 L134 301 L99 136 C89 79 52 54 -17 55 L-25 55 L-37 0 L225 0 C334 0 334 0 367 2 C487 6 544 19 620 58 C754 129 840 262 840 401 C840 501 791 580 700 625 C634 659 529 673 353 673 C269 673 236 672 108 667 L105 667 L93 613 L102 613 C158 613 186 596 186 561 C186 550 185 541 183 531 L148 365 Z M322 365 L375 615 C381 616 386 616 392 616 C483 616 525 607 568 577 C619 543 644 494 644 429 C644 312 598 188 530 123 C487 82 421 59 345 59 C299 59 271 78 271 108 C271 119 273 136 278 156 L308 301 L461 301 L474 365 L322 365 Z " />
<glyph glyph-name="dcroat" unicode="&#x111;" horiz-adv-x="677" d="M447 475 L423 366 C396 399 342 419 279 419 C122 419 4 297 4 133 C4 47 72 -10 173 -10 C237 -10 293 10 357 56 C354 41 353 29 353 18 C353 9 354 3 355 -9 C418 1 489 7 594 11 L605 66 L596 66 C551 66 530 80 530 110 C530 116 531 125 533 132 L606 475 L692 475 L705 537 L619 537 L649 679 L643 679 C618 674 610 673 568 666 L463 650 L414 642 L403 590 L407 590 C446 590 460 580 460 551 C460 547 460 543 459 537 L275 537 L262 475 L447 475 Z M372 124 C338 86 293 64 245 64 C201 64 173 91 173 132 C173 162 184 224 194 253 C216 316 258 348 317 348 C352 348 380 336 411 307 L372 124 Z " />
<glyph glyph-name="Emacron" unicode="&#x112;" horiz-adv-x="738" d="M620 219 C559 99 498 57 390 59 L370 59 C301 59 268 74 268 107 C268 114 270 123 276 154 L311 319 L384 319 C437 319 455 307 455 273 C455 265 454 253 452 243 L450 235 L514 235 L562 461 L498 461 L497 455 C480 394 461 379 395 378 L324 378 L373 608 L515 608 C600 609 622 589 639 494 L699 494 L725 667 L101 667 L89 613 L104 613 C157 613 185 596 185 562 C185 550 184 542 182 531 L98 136 C88 80 51 53 -15 55 L-29 55 L-41 0 L630 0 L681 219 L620 219 Z M288 818 L275 756 L665 756 L678 818 L288 818 Z " />
<glyph glyph-name="emacron" unicode="&#x113;" horiz-adv-x="567" d="M417 104 C372 64 329 45 283 45 C224 45 188 81 188 140 C188 163 193 192 198 206 L503 206 C508 230 510 244 510 264 C510 297 502 325 485 349 C454 391 386 419 313 419 C145 419 8 302 8 159 C8 54 95 -16 225 -16 C313 -16 407 21 461 77 L417 104 Z M210 255 C224 305 230 321 245 339 C256 354 280 364 300 364 C334 364 351 344 351 305 C351 291 350 278 347 255 L210 255 Z M175 591 L161 529 L509 529 L522 591 L175 591 Z " />
<glyph glyph-name="Ebreve" unicode="&#x114;" horiz-adv-x="738" d="M620 219 C559 99 498 57 390 59 L370 59 C301 59 268 74 268 107 C268 114 270 123 276 154 L311 319 L384 319 C437 319 455 307 455 273 C455 265 454 253 452 243 L450 235 L514 235 L562 461 L498 461 L497 455 C480 394 461 379 395 378 L324 378 L373 608 L515 608 C600 609 622 589 639 494 L699 494 L725 667 L101 667 L89 613 L104 613 C157 613 185 596 185 562 C185 550 184 542 182 531 L98 136 C88 80 51 53 -15 55 L-29 55 L-41 0 L630 0 L681 219 L620 219 Z M300 882 C313 784 379 725 474 725 C565 725 653 784 706 882 L646 882 C613 840 554 815 486 815 C421 815 380 837 362 882 L300 882 Z " />
<glyph glyph-name="ebreve" unicode="&#x115;" horiz-adv-x="567" d="M417 104 C372 64 329 45 283 45 C224 45 188 81 188 140 C188 163 193 192 198 206 L503 206 C508 230 510 244 510 264 C510 297 502 325 485 349 C454 391 386 419 313 419 C145 419 8 302 8 159 C8 54 95 -16 225 -16 C313 -16 407 21 461 77 L417 104 Z M210 255 C224 305 230 321 245 339 C256 354 280 364 300 364 C334 364 351 344 351 305 C351 291 350 278 347 255 L210 255 Z M215 647 C211 633 210 623 210 610 C210 533 260 478 329 478 C413 478 494 551 515 647 L482 647 C454 594 409 566 351 566 C290 566 254 595 249 647 L215 647 Z " />
<glyph glyph-name="Edotaccent" unicode="&#x116;" horiz-adv-x="738" d="M620 219 C559 99 498 57 390 59 L370 59 C301 59 268 74 268 107 C268 114 270 123 276 154 L311 319 L384 319 C437 319 455 307 455 273 C455 265 454 253 452 243 L450 235 L514 235 L562 461 L498 461 L497 455 C480 394 461 379 395 378 L324 378 L373 608 L515 608 C600 609 622 589 639 494 L699 494 L725 667 L101 667 L89 613 L104 613 C157 613 185 596 185 562 C185 550 184 542 182 531 L98 136 C88 80 51 53 -15 55 L-29 55 L-41 0 L630 0 L681 219 L620 219 Z M501 881 C451 881 405 836 405 787 C405 752 431 726 467 726 C517 726 563 771 563 820 C563 855 537 881 501 881 L501 881 Z " />
<glyph glyph-name="edotaccent" unicode="&#x117;" horiz-adv-x="567" d="M417 104 C372 64 329 45 283 45 C224 45 188 81 188 140 C188 163 193 192 198 206 L503 206 C508 230 510 244 510 264 C510 297 502 325 485 349 C454 391 386 419 313 419 C145 419 8 302 8 159 C8 54 95 -16 225 -16 C313 -16 407 21 461 77 L417 104 Z M210 255 C224 305 230 321 245 339 C256 354 280 364 300 364 C334 364 351 344 351 305 C351 291 350 278 347 255 L210 255 Z M368 638 C323 638 281 597 281 554 C281 522 305 498 336 498 C381 498 423 539 423 583 C423 614 399 638 368 638 L368 638 Z " />
<glyph glyph-name="Eogonek" unicode="&#x118;" horiz-adv-x="738" d="M630 0 L681 219 L620 219 C559 99 498 57 390 59 L370 59 C301 59 268 74 268 107 C268 114 270 123 276 154 L311 319 L384 319 C437 319 455 307 455 273 C455 265 454 253 452 243 L450 235 L514 235 L562 461 L498 461 L497 455 C480 394 461 379 395 378 L324 378 L373 608 L515 608 C600 609 622 589 639 494 L699 494 L725 667 L101 667 L89 613 L104 613 C157 613 185 596 185 562 C185 550 184 542 182 531 L98 136 C88 80 51 53 -15 55 L-29 55 L-41 0 L463 0 C384 -36 338 -87 338 -138 C338 -185 387 -219 456 -219 C502 -219 539 -209 593 -180 L582 -149 C555 -158 541 -161 520 -161 C476 -161 447 -140 447 -107 C447 -71 475 -36 533 0 L630 0 Z " />
<glyph glyph-name="eogonek" unicode="&#x119;" horiz-adv-x="567" d="M417 104 C372 64 329 45 283 45 C224 45 188 81 188 139 C188 163 193 192 198 206 L503 206 C508 230 510 244 510 264 C510 297 502 325 485 349 C454 391 386 419 313 419 C145 419 8 302 8 159 C8 55 95 -16 222 -16 C230 -16 235 -16 246 -15 C201 -46 174 -85 174 -121 C174 -165 218 -196 282 -196 C325 -196 360 -186 409 -160 L398 -131 C373 -139 360 -141 342 -141 C302 -141 277 -122 277 -94 C277 -59 302 -26 355 9 C398 26 439 53 461 77 L417 104 Z M210 255 C224 305 230 321 245 339 C256 354 280 364 300 364 C334 364 351 344 351 305 C351 291 350 278 347 255 L210 255 Z " />
<glyph glyph-name="Ecaron" unicode="&#x11a;" horiz-adv-x="738" d="M620 219 C559 99 498 57 390 59 L370 59 C301 59 268 74 268 107 C268 114 270 123 276 154 L311 319 L384 319 C437 319 455 307 455 273 C455 265 454 253 452 243 L450 235 L514 235 L562 461 L498 461 L497 455 C480 394 461 379 395 378 L324 378 L373 608 L515 608 C600 609 622 589 639 494 L699 494 L725 667 L101 667 L89 613 L104 613 C157 613 185 596 185 562 C185 550 184 542 182 531 L98 136 C88 80 51 53 -15 55 L-29 55 L-41 0 L630 0 L681 219 L620 219 Z M567 728 L704 887 L666 887 L490 795 L346 887 L308 887 L374 728 L567 728 Z " />
<glyph glyph-name="ecaron" unicode="&#x11b;" horiz-adv-x="567" d="M417 104 C372 64 329 45 283 45 C224 45 188 81 188 140 C188 163 193 192 198 206 L503 206 C508 230 510 244 510 264 C510 297 502 325 485 349 C454 391 386 419 313 419 C145 419 8 302 8 159 C8 54 95 -16 225 -16 C313 -16 407 21 461 77 L417 104 Z M210 255 C224 305 230 321 245 339 C256 354 280 364 300 364 C334 364 351 344 351 305 C351 291 350 278 347 255 L210 255 Z M253 654 L213 654 L268 491 L401 491 L518 654 L475 654 L350 570 L253 654 Z " />
<glyph glyph-name="Gcircumflex" unicode="&#x11c;" horiz-adv-x="866" d="M499 308 L487 254 L496 253 C541 249 560 235 560 205 C560 202 559 196 558 190 L553 166 C545 131 537 111 522 94 C497 66 449 49 395 49 C349 49 305 59 276 77 C246 95 226 136 226 182 C226 252 251 370 281 444 C327 557 401 609 513 609 C624 609 688 552 705 439 L759 439 L803 672 L750 672 C743 647 732 626 715 602 C659 654 588 679 501 679 C357 679 218 611 127 495 C69 422 36 336 36 258 C36 168 79 86 151 37 C201 4 268 -14 344 -14 C389 -14 417 -10 527 10 C599 23 647 29 682 29 C690 29 697 29 709 28 L739 168 C751 228 764 241 818 252 L830 254 L842 308 L499 308 Z M463 887 L329 728 L367 728 L542 821 L687 728 L725 728 L655 887 L463 887 Z " />
<glyph glyph-name="gcircumflex" unicode="&#x11d;" horiz-adv-x="591" d="M43 -106 L49 -99 L51 -96 C32 -88 20 -85 6 -85 C-33 -85 -68 -120 -68 -157 C-68 -218 5 -249 148 -249 C268 -249 348 -229 408 -186 C460 -147 489 -97 489 -42 C489 3 464 36 419 51 C383 62 348 66 274 66 L247 66 L207 65 L157 65 C127 64 109 72 109 85 C109 112 149 128 220 128 C388 128 500 199 500 303 C500 318 497 330 491 345 C503 354 509 356 517 356 C526 356 530 354 540 345 C550 334 557 331 568 331 C594 331 614 353 614 383 C614 406 598 419 569 419 C542 419 519 410 465 376 C429 405 382 418 309 418 C144 418 34 352 34 253 C34 199 67 161 133 144 C42 124 -3 83 -3 21 C-3 -40 59 -64 216 -64 C293 -64 330 -65 346 -68 C376 -73 389 -85 389 -104 C389 -162 302 -197 157 -197 C76 -197 25 -174 25 -137 C25 -129 29 -121 40 -109 L43 -106 Z M286 365 C326 365 351 344 351 311 C351 278 338 238 319 213 C306 196 281 185 252 185 C208 185 186 206 186 248 C186 318 226 365 286 365 L286 365 Z M441 484 L484 484 L435 647 L303 647 L179 484 L219 484 L351 568 L441 484 Z " />
<glyph glyph-name="Gbreve" unicode="&#x11e;" horiz-adv-x="866" d="M499 308 L487 254 L496 253 C541 249 560 235 560 205 C560 202 559 196 558 190 L553 166 C545 131 537 111 522 94 C497 66 449 49 395 49 C349 49 305 59 276 77 C246 95 226 136 226 182 C226 252 251 370 281 444 C327 557 401 609 513 609 C624 609 688 552 705 439 L759 439 L803 672 L750 672 C743 647 732 626 715 602 C659 654 588 679 501 679 C357 679 218 611 127 495 C69 422 36 336 36 258 C36 168 79 86 151 37 C201 4 268 -14 344 -14 C389 -14 417 -10 527 10 C599 23 647 29 682 29 C690 29 697 29 709 28 L739 168 C751 228 764 241 818 252 L830 254 L842 308 L499 308 Z M352 882 C365 784 430 725 525 725 C617 725 704 784 757 882 L698 882 C664 840 606 815 538 815 C473 815 432 837 413 882 L352 882 Z " />
<glyph glyph-name="gbreve" unicode="&#x11f;" horiz-adv-x="591" d="M43 -106 L49 -99 L51 -96 C32 -88 20 -85 6 -85 C-33 -85 -68 -120 -68 -157 C-68 -218 5 -249 148 -249 C268 -249 348 -229 408 -186 C460 -147 489 -97 489 -42 C489 3 464 36 419 51 C383 62 348 66 274 66 L247 66 L207 65 L157 65 C127 64 109 72 109 85 C109 112 149 128 220 128 C388 128 500 199 500 303 C500 318 497 330 491 345 C503 354 509 356 517 356 C526 356 530 354 540 345 C550 334 557 331 568 331 C594 331 614 353 614 383 C614 406 598 419 569 419 C542 419 519 410 465 376 C429 405 382 418 309 418 C144 418 34 352 34 253 C34 199 67 161 133 144 C42 124 -3 83 -3 21 C-3 -40 59 -64 216 -64 C293 -64 330 -65 346 -68 C376 -73 389 -85 389 -104 C389 -162 302 -197 157 -197 C76 -197 25 -174 25 -137 C25 -129 29 -121 40 -109 L43 -106 Z M286 365 C326 365 351 344 351 311 C351 278 338 238 319 213 C306 196 281 185 252 185 C208 185 186 206 186 248 C186 318 226 365 286 365 L286 365 Z M208 647 C204 632 203 622 203 610 C203 581 212 553 228 528 C249 494 280 478 323 478 C406 478 486 550 508 647 L475 647 C446 593 402 566 344 566 C283 566 247 595 242 647 L208 647 Z " />
<glyph glyph-name="Gdotaccent" unicode="&#x120;" horiz-adv-x="866" d="M499 308 L487 254 L496 253 C541 249 560 235 560 205 C560 202 559 196 558 190 L553 166 C545 131 537 111 522 94 C497 66 449 49 395 49 C349 49 305 59 276 77 C246 95 226 136 226 182 C226 252 251 370 281 444 C327 557 401 609 513 609 C624 609 688 552 705 439 L759 439 L803 672 L750 672 C743 647 732 626 715 602 C659 654 588 679 501 679 C357 679 218 611 127 495 C69 422 36 336 36 258 C36 168 79 86 151 37 C201 4 268 -14 344 -14 C389 -14 417 -10 527 10 C599 23 647 29 682 29 C690 29 697 29 709 28 L739 168 C751 228 764 241 818 252 L830 254 L842 308 L499 308 Z M555 881 C505 881 459 836 459 787 C459 752 485 726 521 726 C571 726 617 771 617 820 C617 855 591 881 555 881 L555 881 Z " />
<glyph glyph-name="gdotaccent" unicode="&#x121;" horiz-adv-x="591" d="M43 -106 L49 -99 L51 -96 C32 -88 20 -85 6 -85 C-33 -85 -68 -120 -68 -157 C-68 -218 5 -249 148 -249 C268 -249 348 -229 408 -186 C460 -147 489 -97 489 -42 C489 3 464 36 419 51 C383 62 348 66 274 66 L247 66 L207 65 L157 65 C127 64 109 72 109 85 C109 112 149 128 220 128 C388 128 500 199 500 303 C500 318 497 330 491 345 C503 354 509 356 517 356 C526 356 530 354 540 345 C550 334 557 331 568 331 C594 331 614 353 614 383 C614 406 598 419 569 419 C542 419 519 410 465 376 C429 405 382 418 309 418 C144 418 34 352 34 253 C34 199 67 161 133 144 C42 124 -3 83 -3 21 C-3 -40 59 -64 216 -64 C293 -64 330 -65 346 -68 C376 -73 389 -85 389 -104 C389 -162 302 -197 157 -197 C76 -197 25 -174 25 -137 C25 -129 29 -121 40 -109 L43 -106 Z M286 365 C326 365 351 344 351 311 C351 278 338 238 319 213 C306 196 281 185 252 185 C208 185 186 206 186 248 C186 318 226 365 286 365 L286 365 Z M356 638 C311 638 269 597 269 554 C269 522 293 498 325 498 C370 498 412 539 412 583 C412 614 388 638 356 638 L356 638 Z " />
<glyph glyph-name="Gcommaaccent" unicode="&#x122;" horiz-adv-x="866" d="M499 308 L487 254 L496 253 C541 249 560 235 560 205 C560 202 559 196 558 190 L553 166 C545 131 537 111 522 94 C497 66 449 49 395 49 C349 49 305 59 276 77 C246 95 226 136 226 182 C226 252 251 370 281 444 C327 557 401 609 513 609 C624 609 688 552 705 439 L759 439 L803 672 L750 672 C743 647 732 626 715 602 C659 654 588 679 501 679 C357 679 218 611 127 495 C69 422 36 336 36 258 C36 168 79 86 151 37 C201 4 268 -14 344 -14 C389 -14 417 -10 527 10 C599 23 647 29 682 29 C690 29 697 29 709 28 L739 168 C751 228 764 241 818 252 L830 254 L842 308 L499 308 Z M206 -339 C265 -337 307 -324 346 -293 C393 -256 422 -199 422 -142 C422 -89 391 -59 337 -59 C281 -59 234 -104 234 -157 C234 -188 257 -212 288 -212 C294 -212 302 -211 310 -209 C314 -208 318 -207 319 -207 L326 -206 L327 -205 L329 -205 C334 -205 339 -212 339 -218 C339 -231 328 -247 312 -260 C287 -279 259 -288 216 -290 L206 -339 Z " />
<glyph glyph-name="gcommaaccent" unicode="&#x123;" horiz-adv-x="591" d="M43 -106 L49 -99 L51 -96 C32 -88 20 -85 6 -85 C-33 -85 -68 -120 -68 -157 C-68 -218 5 -249 148 -249 C268 -249 348 -229 408 -186 C460 -147 489 -97 489 -42 C489 3 464 36 419 51 C383 62 348 66 274 66 L247 66 L207 65 L157 65 C127 64 109 72 109 85 C109 112 149 128 220 128 C388 128 500 199 500 303 C500 318 497 330 491 345 C503 354 509 356 517 356 C526 356 530 354 540 345 C550 334 557 331 568 331 C594 331 614 353 614 383 C614 406 598 419 569 419 C542 419 519 410 465 376 C429 405 382 418 309 418 C144 418 34 352 34 253 C34 199 67 161 133 144 C42 124 -3 83 -3 21 C-3 -40 59 -64 216 -64 C293 -64 330 -65 346 -68 C376 -73 389 -85 389 -104 C389 -162 302 -197 157 -197 C76 -197 25 -174 25 -137 C25 -129 29 -121 40 -109 L43 -106 Z M286 365 C326 365 351 344 351 311 C351 278 338 238 319 213 C306 196 281 185 252 185 C208 185 186 206 186 248 C186 318 226 365 286 365 L286 365 Z M449 710 C338 709 253 635 253 540 C253 491 282 463 333 463 C384 463 427 498 427 540 C427 567 404 587 374 587 C368 587 361 586 354 584 C347 583 340 582 337 582 C329 582 324 588 324 596 C324 608 335 625 351 639 C372 657 399 666 441 669 L449 710 Z " />
<glyph glyph-name="Hcircumflex" unicode="&#x124;" horiz-adv-x="937" d="M624 319 L585 136 C574 77 540 54 467 55 L455 0 L836 0 L848 55 L838 55 C785 55 756 72 756 105 C756 113 757 125 760 136 L844 531 C856 590 888 613 957 612 L966 612 L978 667 L597 667 L585 612 L589 612 C648 612 672 597 672 559 C672 548 671 540 669 531 L637 381 L319 381 L351 531 C363 590 396 613 465 612 L471 612 L483 667 L101 667 L89 612 L98 612 C153 612 180 595 180 561 C180 552 179 541 177 531 L93 136 C81 78 52 57 -21 55 L-29 55 L-41 0 L341 0 L353 55 L347 55 C310 55 293 59 280 71 C269 82 263 93 263 104 C263 111 265 124 267 136 L306 319 L624 319 Z M491 887 L357 728 L396 728 L571 821 L715 728 L753 728 L684 887 L491 887 Z " />
<glyph glyph-name="Hbar" unicode="&#x126;" horiz-adv-x="937" d="M156 435 L93 136 C81 78 52 57 -21 55 L-29 55 L-41 0 L341 0 L353 55 L347 55 C310 55 293 59 280 71 C269 82 263 93 263 104 C263 111 265 124 267 136 L306 319 L624 319 L585 136 C574 77 540 54 467 55 L455 0 L836 0 L848 55 L838 55 C785 55 756 72 756 105 C756 113 757 125 760 136 L823 435 L908 435 L921 497 L836 497 L844 531 C856 590 888 613 957 612 L966 612 L978 667 L597 667 L585 612 L589 612 C648 612 672 597 672 559 C672 548 671 540 669 531 L662 497 L344 497 L351 531 C363 590 396 613 465 612 L471 612 L483 667 L101 667 L89 612 L98 612 C153 612 180 595 180 561 C180 552 179 541 177 531 L169 497 L86 497 L72 435 L156 435 Z M331 435 L649 435 L637 381 L319 381 L331 435 Z " />
<glyph glyph-name="hbar" unicode="&#x127;" horiz-adv-x="668" d="M129 475 L53 118 C42 69 22 54 -37 52 L-40 52 L-51 0 L250 0 L261 52 L257 52 C224 53 210 66 210 95 C210 103 211 110 212 118 L245 272 C295 317 329 335 363 335 C394 335 410 321 410 294 C410 286 409 279 408 272 L375 118 C365 74 347 57 305 53 L298 52 L287 0 L589 0 L600 52 L594 52 C552 52 534 65 534 96 C534 103 535 110 536 118 L565 255 C571 281 574 303 574 318 C574 379 521 419 443 419 C377 419 317 395 261 348 L288 475 L459 475 L473 537 L301 537 L332 679 L326 679 C311 675 277 670 224 663 C182 657 138 650 85 640 L74 588 L77 588 C121 588 143 577 143 554 L143 550 L142 540 L142 537 L62 537 L49 475 L129 475 Z " />
<glyph glyph-name="Imacron" unicode="&#x12a;" horiz-adv-x="448" d="M89 612 L99 612 C156 612 181 597 181 562 C181 553 180 542 177 531 L93 136 C83 79 49 55 -20 55 L-29 55 L-41 0 L347 0 L358 55 L346 55 C292 55 264 71 264 103 C264 113 265 125 268 136 L352 531 C364 590 395 613 465 612 L477 612 L489 667 L101 667 L89 612 Z M132 818 L119 756 L509 756 L522 818 L132 818 Z " />
<glyph glyph-name="imacron" unicode="&#x12b;" horiz-adv-x="359" d="M286 419 L280 419 C249 413 248 413 148 398 C59 385 55 384 28 382 L17 330 L30 330 C72 330 90 319 90 293 C90 286 89 274 87 264 L55 118 C44 67 27 54 -29 52 L-42 52 L-53 0 L278 0 L289 52 L284 52 C238 52 219 65 219 97 C219 101 220 111 222 118 L286 419 Z M64 591 L51 529 L365 529 L378 591 L64 591 Z " />
<glyph glyph-name="ibreve" unicode="&#x12d;" horiz-adv-x="359" d="M286 419 L280 419 C249 413 248 413 148 398 C59 385 55 384 28 382 L17 330 L30 330 C72 330 90 319 90 293 C90 286 89 274 87 264 L55 118 C44 67 27 54 -29 52 L-42 52 L-53 0 L278 0 L289 52 L284 52 C238 52 219 65 219 97 C219 101 220 111 222 118 L286 419 Z M94 647 C90 633 89 622 89 610 C89 533 139 478 209 478 C292 478 373 552 394 647 L361 647 C333 594 289 566 230 566 C170 566 133 595 128 647 L94 647 Z " />
<glyph glyph-name="Iogonek" unicode="&#x12e;" horiz-adv-x="448" d="M347 0 L358 55 L346 55 C292 55 264 71 264 103 C264 113 265 125 268 136 L352 531 C364 590 395 613 465 612 L477 612 L489 667 L101 667 L89 612 L99 612 C156 612 181 597 181 562 C181 553 180 542 177 531 L93 136 C83 79 49 55 -20 55 L-29 55 L-41 0 L198 0 C119 -36 73 -87 73 -138 C73 -186 122 -219 191 -219 C237 -219 273 -209 328 -180 L317 -149 C290 -158 275 -161 255 -161 C211 -161 182 -140 182 -107 C182 -71 210 -35 267 0 L347 0 Z " />
<glyph glyph-name="iogonek" unicode="&#x12f;" horiz-adv-x="359" d="M192 0 L278 0 L289 52 L284 52 C238 52 219 65 219 97 C219 101 220 111 222 118 L286 419 L280 419 C249 413 248 413 148 398 C59 385 55 384 28 382 L17 330 L30 330 C72 330 90 319 90 293 C90 286 89 274 87 264 L55 118 C44 67 27 54 -29 52 L-42 52 L-53 0 L122 0 C62 -32 24 -78 24 -121 C24 -165 68 -196 132 -196 C175 -196 209 -186 259 -160 L248 -131 C222 -139 210 -141 192 -141 C152 -141 127 -122 127 -94 C127 -65 150 -29 186 -4 L192 0 Z M265 679 C208 679 155 627 155 571 C155 531 185 501 225 501 C282 501 335 553 335 609 C335 649 305 679 265 679 L265 679 Z " />
<glyph glyph-name="Idotaccent" unicode="&#x130;" horiz-adv-x="448" d="M89 612 L99 612 C156 612 181 597 181 562 C181 553 180 542 177 531 L93 136 C83 79 49 55 -20 55 L-29 55 L-41 0 L347 0 L358 55 L346 55 C292 55 264 71 264 103 C264 113 265 125 268 136 L352 531 C364 590 395 613 465 612 L477 612 L489 667 L101 667 L89 612 Z M341 881 C291 881 245 836 245 787 C245 752 271 726 307 726 C357 726 403 771 403 820 C403 855 377 881 341 881 L341 881 Z " />
<glyph glyph-name="dotlessi" unicode="&#x131;" horiz-adv-x="359" d="M286 419 L280 419 C249 413 248 413 148 398 C59 385 55 384 28 382 L17 330 L30 330 C72 330 90 319 90 293 C90 286 89 274 87 264 L55 118 C44 67 27 54 -29 52 L-42 52 L-53 0 L278 0 L289 52 L284 52 C238 52 219 65 219 97 C219 101 220 111 222 118 L286 419 Z " />
<glyph glyph-name="Kcommaaccent" unicode="&#x136;" horiz-adv-x="878" d="M315 345 L354 531 C367 591 398 613 467 612 L480 612 L492 667 L101 667 L89 612 L102 612 C159 612 184 597 184 562 C184 555 182 542 180 531 L96 136 C85 79 53 55 -17 55 L-29 55 L-41 0 L340 0 L352 55 L349 55 C293 55 267 70 267 104 C267 114 268 125 271 136 L298 264 L393 327 L495 142 C496 137 499 130 504 121 C512 106 516 96 516 89 C516 66 489 55 434 55 L428 55 L416 0 L837 0 L849 55 L843 55 C778 54 737 86 700 167 L556 440 L635 496 C754 581 810 608 882 612 L890 612 L902 667 L577 667 L565 612 L574 612 C608 612 625 604 625 588 C625 568 601 541 558 511 L315 345 Z M201 -339 C260 -337 302 -324 341 -293 C389 -256 417 -199 417 -142 C417 -90 386 -59 333 -59 C277 -59 230 -104 230 -157 C230 -188 253 -212 283 -212 C289 -212 297 -211 305 -209 C310 -208 313 -207 314 -207 L321 -206 L322 -205 L324 -205 C329 -205 334 -212 334 -218 C334 -231 324 -246 307 -260 C282 -279 254 -288 211 -290 L201 -339 Z " />
<glyph glyph-name="kcommaaccent" unicode="&#x137;" horiz-adv-x="659" d="M393 403 L382 351 L387 351 C411 351 421 347 421 338 C421 333 419 329 412 322 L415 323 L409 319 C401 314 399 313 379 302 C365 294 349 285 332 277 C313 266 297 258 288 253 L234 225 L331 679 L325 679 C311 676 280 671 224 663 C183 657 172 655 85 640 L74 588 L82 588 C107 588 129 582 137 572 C140 568 142 562 142 553 C142 544 141 533 139 523 L53 118 C41 69 21 54 -37 52 L-42 52 L-53 0 L253 0 L264 52 L259 52 C224 54 209 67 209 95 C209 102 210 110 212 118 L221 160 L280 190 L344 100 C348 94 356 77 356 74 C356 61 342 52 322 52 L319 52 L308 0 L584 0 L595 52 L589 53 C561 56 557 60 504 137 L416 266 L458 292 C535 339 565 351 607 351 L610 351 L621 403 L393 403 Z M126 -306 C237 -305 322 -231 322 -136 C322 -87 293 -59 243 -59 C192 -59 149 -94 149 -136 C149 -163 172 -183 201 -183 C207 -183 215 -182 222 -180 C228 -179 235 -178 239 -178 C246 -178 251 -184 251 -192 C251 -204 240 -221 224 -234 C203 -252 176 -261 135 -264 L126 -306 Z " />
<glyph glyph-name="Lacute" unicode="&#x139;" horiz-adv-x="716" d="M678 222 L619 222 C568 111 494 60 385 60 L370 60 C298 60 266 74 266 107 C266 114 269 130 273 150 L354 531 C366 591 397 613 467 612 L482 612 L494 667 L101 667 L89 612 L101 612 C158 612 183 597 183 562 C183 554 182 542 179 531 L95 136 C85 79 52 55 -18 55 L-29 55 L-41 0 L627 0 L678 222 Z M300 732 L340 732 L631 880 L633 892 L433 892 L300 732 Z " />
<glyph glyph-name="lacute" unicode="&#x13a;" horiz-adv-x="358" d="M332 679 L326 679 C309 676 233 663 98 642 L86 640 L74 588 L82 588 C107 588 130 581 138 572 C141 568 143 562 143 553 C143 545 141 533 139 522 L53 118 C42 68 22 54 -37 52 L-41 52 L-52 0 L271 0 L282 52 L277 52 C231 52 210 65 210 93 C210 103 211 109 212 118 L332 679 Z M220 732 L260 732 L550 880 L553 892 L353 892 L220 732 Z " />
<glyph glyph-name="Lcommaaccent" unicode="&#x13b;" horiz-adv-x="716" d="M678 222 L619 222 C568 111 494 60 385 60 L370 60 C298 60 266 74 266 107 C266 114 269 130 273 150 L354 531 C366 591 397 613 467 612 L482 612 L494 667 L101 667 L89 612 L101 612 C158 612 183 597 183 562 C183 554 182 542 179 531 L95 136 C85 79 52 55 -18 55 L-29 55 L-41 0 L627 0 L678 222 Z M140 -339 C199 -337 241 -324 280 -293 C328 -256 356 -199 356 -142 C356 -90 324 -59 271 -59 C215 -59 168 -104 168 -157 C168 -188 191 -212 222 -212 C228 -212 236 -211 244 -209 C248 -208 252 -207 253 -207 L260 -206 L261 -205 L263 -205 C268 -205 273 -212 273 -218 C273 -231 263 -246 246 -260 C221 -279 193 -288 150 -290 L140 -339 Z " />
<glyph glyph-name="lcommaaccent" unicode="&#x13c;" horiz-adv-x="358" d="M332 679 L326 679 C309 676 233 663 98 642 L86 640 L74 588 L82 588 C107 588 130 581 138 572 C141 568 143 562 143 553 C143 545 141 533 139 522 L53 118 C42 68 22 54 -37 52 L-41 52 L-52 0 L271 0 L282 52 L277 52 C231 52 210 65 210 93 C210 103 211 109 212 118 L332 679 Z M-30 -306 C81 -305 166 -231 166 -136 C166 -87 137 -59 87 -59 C36 -59 -7 -94 -7 -136 C-7 -163 16 -183 45 -183 C51 -183 59 -182 66 -180 C72 -179 79 -178 83 -178 C90 -178 95 -184 95 -192 C95 -204 84 -221 68 -234 C47 -252 20 -261 -21 -264 L-30 -306 Z " />
<glyph glyph-name="Lcaron" unicode="&#x13d;" horiz-adv-x="716" d="M678 222 L619 222 C568 111 494 60 385 60 L370 60 C298 60 266 74 266 107 C266 114 269 130 273 150 L354 531 C366 591 397 613 467 612 L482 612 L494 667 L101 667 L89 612 L101 612 C158 612 183 597 183 562 C183 554 182 542 179 531 L95 136 C85 79 52 55 -18 55 L-29 55 L-41 0 L627 0 L678 222 Z M482 388 C541 389 583 403 622 433 C670 470 698 527 698 584 C698 637 667 667 614 667 C558 667 511 623 511 570 C511 539 534 515 564 515 C571 515 578 516 586 518 C590 519 594 519 595 520 L602 521 L605 521 C610 521 615 514 615 508 C615 495 605 480 588 466 C563 447 536 438 493 436 L482 388 Z " />
<glyph glyph-name="lcaron" unicode="&#x13e;" horiz-adv-x="484" d="M332 679 L326 679 C309 676 233 663 98 642 L86 640 L74 588 L82 588 C107 588 130 581 138 572 C141 568 143 562 143 553 C143 545 141 533 139 522 L53 118 C42 68 22 54 -37 52 L-41 52 L-52 0 L271 0 L282 52 L277 52 C231 52 210 65 210 93 C210 103 211 109 212 118 L332 679 Z M335 432 C446 433 531 507 531 602 C531 651 502 679 452 679 C401 679 358 644 358 602 C358 575 381 555 410 555 C416 555 424 556 431 558 C437 559 444 560 448 560 C455 560 460 554 460 546 C460 534 450 517 433 504 C412 486 385 477 344 474 L335 432 Z " />
<glyph glyph-name="Ldot" unicode="&#x13f;" horiz-adv-x="716" d="M678 222 L619 222 C568 111 494 60 385 60 L370 60 C298 60 266 74 266 107 C266 114 269 130 273 150 L354 531 C366 591 397 613 467 612 L482 612 L494 667 L101 667 L89 612 L101 612 C158 612 183 597 183 562 C183 554 182 542 179 531 L95 136 C85 79 52 55 -18 55 L-29 55 L-41 0 L627 0 L678 222 Z M474 394 C429 394 387 354 387 310 C387 278 411 255 443 255 C488 255 530 296 530 339 C530 371 506 394 474 394 L474 394 Z " />
<glyph glyph-name="ldot" unicode="&#x140;" horiz-adv-x="428" d="M332 679 L326 679 C309 676 233 663 98 642 L86 640 L74 588 L82 588 C107 588 130 581 138 572 C141 568 143 562 143 553 C143 545 141 533 139 522 L53 118 C42 68 22 54 -37 52 L-41 52 L-52 0 L271 0 L282 52 L277 52 C231 52 210 65 210 93 C210 103 211 109 212 118 L332 679 Z M381 403 C336 403 294 362 294 319 C294 287 318 263 350 263 C394 263 436 304 436 348 C436 379 412 403 381 403 L381 403 Z " />
<glyph glyph-name="Lslash" unicode="&#x141;" horiz-adv-x="716" d="M-29 55 L-41 0 L627 0 L678 222 L619 222 C571 113 491 58 385 60 L370 60 C298 60 266 74 266 107 C266 114 269 130 273 150 L312 336 L470 410 L484 476 L326 402 L354 531 C366 591 397 613 467 612 L482 612 L494 667 L101 667 L89 612 L100 612 C158 612 183 597 183 562 C183 553 182 542 179 531 L133 311 L20 258 L6 192 L119 245 L95 136 C85 79 52 55 -18 55 L-29 55 Z " />
<glyph glyph-name="lslash" unicode="&#x142;" horiz-adv-x="358" d="M269 395 L330 679 L324 679 C276 670 238 663 165 653 C134 649 103 644 97 642 C94 642 91 641 84 640 L72 588 L80 588 C106 588 128 581 136 572 C140 568 141 562 141 553 C141 545 139 532 137 522 L90 300 L0 252 L-12 191 L77 240 L51 118 C40 69 20 54 -39 52 L-43 52 L-54 0 L269 0 L280 52 L274 52 C230 52 208 65 208 93 C208 104 209 109 210 118 L256 334 L361 392 L374 454 L269 395 Z " />
<glyph glyph-name="Nacute" unicode="&#x143;" horiz-adv-x="863" d="M617 -11 L680 -11 L788 501 C800 570 829 601 891 612 L899 612 L910 667 L666 667 L654 612 L660 612 C701 612 732 585 732 549 C732 538 730 522 726 503 L674 259 L349 667 L99 667 L87 612 L92 612 C149 612 178 587 178 536 C178 526 177 519 176 511 L103 170 C93 123 89 111 79 100 C59 74 13 54 -22 55 L-27 55 L-39 0 L240 0 L252 55 L236 55 C195 54 158 84 158 117 C158 126 161 146 166 171 L231 477 L617 -11 Z M494 732 L534 732 L825 880 L827 892 L628 892 L494 732 Z " />
<glyph glyph-name="nacute" unicode="&#x144;" horiz-adv-x="670" d="M264 408 C241 404 226 401 178 394 C100 383 70 378 29 372 L18 320 L22 320 C66 320 87 305 87 274 C87 268 87 264 86 260 L56 118 C44 69 25 54 -34 52 L-37 52 L-48 0 L253 0 L264 52 L259 52 C227 53 212 67 212 95 C212 102 213 110 214 118 L247 273 C302 318 334 335 366 335 C397 335 414 320 414 295 C414 292 413 286 412 281 L377 118 C367 73 349 57 307 53 L300 52 L289 0 L590 0 L601 52 L597 52 C554 52 536 65 536 96 C536 101 537 110 539 118 L568 258 C575 287 577 304 577 318 C577 379 525 419 447 419 C384 419 321 395 267 350 C270 367 271 379 271 391 C271 398 271 401 269 408 L264 408 Z M327 486 L370 486 L603 632 L605 643 L427 643 L327 486 Z " />
<glyph glyph-name="Ncommaaccent" unicode="&#x145;" horiz-adv-x="863" d="M617 -11 L680 -11 L788 501 C800 570 829 601 891 612 L899 612 L910 667 L666 667 L654 612 L660 612 C701 612 732 585 732 549 C732 538 730 522 726 503 L674 259 L349 667 L99 667 L87 612 L92 612 C149 612 178 587 178 536 C178 526 177 519 176 511 L103 170 C93 123 89 111 79 100 C59 74 13 54 -22 55 L-27 55 L-39 0 L240 0 L252 55 L236 55 C195 54 158 84 158 117 C158 126 161 146 166 171 L231 477 L617 -11 Z M208 -339 C267 -337 309 -324 348 -293 C396 -256 424 -199 424 -142 C424 -90 392 -59 339 -59 C283 -59 236 -104 236 -157 C236 -188 259 -212 290 -212 C296 -212 304 -211 312 -209 C316 -208 320 -207 321 -207 L328 -206 L329 -205 L331 -205 C336 -205 341 -212 341 -218 C341 -231 331 -246 314 -260 C289 -279 261 -288 218 -290 L208 -339 Z " />
<glyph glyph-name="ncommaaccent" unicode="&#x146;" horiz-adv-x="670" d="M264 408 C241 404 226 401 178 394 C100 383 70 378 29 372 L18 320 L22 320 C66 320 87 305 87 274 C87 268 87 264 86 260 L56 118 C44 69 25 54 -34 52 L-37 52 L-48 0 L253 0 L264 52 L259 52 C227 53 212 67 212 95 C212 102 213 110 214 118 L247 273 C302 318 334 335 366 335 C397 335 414 320 414 295 C414 292 413 286 412 281 L377 118 C367 73 349 57 307 53 L300 52 L289 0 L590 0 L601 52 L597 52 C554 52 536 65 536 96 C536 101 537 110 539 118 L568 258 C575 287 577 304 577 318 C577 379 525 419 447 419 C384 419 321 395 267 350 C270 367 271 379 271 391 C271 398 271 401 269 408 L264 408 Z M131 -306 C242 -305 327 -231 327 -136 C327 -87 298 -59 247 -59 C196 -59 153 -94 153 -136 C153 -163 176 -183 206 -183 C212 -183 219 -182 226 -180 C233 -179 240 -178 243 -178 C251 -178 256 -184 256 -192 C256 -204 245 -221 229 -234 C208 -252 181 -261 140 -264 L131 -306 Z " />
<glyph glyph-name="Ncaron" unicode="&#x147;" horiz-adv-x="863" d="M617 -11 L680 -11 L788 501 C800 570 829 601 891 612 L899 612 L910 667 L666 667 L654 612 L660 612 C701 612 732 585 732 549 C732 538 730 522 726 503 L674 259 L349 667 L99 667 L87 612 L92 612 C149 612 178 587 178 536 C178 526 177 519 176 511 L103 170 C93 123 89 111 79 100 C59 74 13 54 -22 55 L-27 55 L-39 0 L240 0 L252 55 L236 55 C195 54 158 84 158 117 C158 126 161 146 166 171 L231 477 L617 -11 Z M635 728 L772 887 L734 887 L558 795 L414 887 L376 887 L442 728 L635 728 Z " />
<glyph glyph-name="ncaron" unicode="&#x148;" horiz-adv-x="670" d="M264 408 C241 404 226 401 178 394 C100 383 70 378 29 372 L18 320 L22 320 C66 320 87 305 87 274 C87 268 87 264 86 260 L56 118 C44 69 25 54 -34 52 L-37 52 L-48 0 L253 0 L264 52 L259 52 C227 53 212 67 212 95 C212 102 213 110 214 118 L247 273 C302 318 334 335 366 335 C397 335 414 320 414 295 C414 292 413 286 412 281 L377 118 C367 73 349 57 307 53 L300 52 L289 0 L590 0 L601 52 L597 52 C554 52 536 65 536 96 C536 101 537 110 539 118 L568 258 C575 287 577 304 577 318 C577 379 525 419 447 419 C384 419 321 395 267 350 C270 367 271 379 271 391 C271 398 271 401 269 408 L264 408 Z M299 654 L259 654 L314 491 L446 491 L564 654 L521 654 L396 570 L299 654 Z " />
<glyph glyph-name="Omacron" unicode="&#x14c;" horiz-adv-x="912" d="M537 679 C387 679 255 630 164 540 C85 462 37 356 37 263 C37 208 53 156 83 110 C137 31 244 -14 382 -14 C522 -14 643 30 736 114 C822 191 873 297 873 399 C873 491 829 573 753 623 C699 659 623 679 537 679 L537 679 Z M518 615 C592 615 645 584 664 531 C671 512 674 489 674 458 C674 371 649 256 615 186 C572 96 498 50 397 50 C292 50 236 106 236 211 C236 307 274 449 317 512 C364 582 429 615 518 615 L518 615 Z M364 818 L351 756 L740 756 L754 818 L364 818 Z " />
<glyph glyph-name="omacron" unicode="&#x14d;" horiz-adv-x="622" d="M332 419 C149 419 7 304 7 155 C7 114 19 79 43 54 C83 10 157 -16 237 -16 C416 -16 559 102 559 250 C559 283 550 310 532 336 C495 386 416 419 332 419 L332 419 Z M319 364 C370 364 399 339 399 294 C399 265 386 198 371 146 C350 73 311 38 250 38 C199 38 168 66 168 110 C168 179 196 285 224 325 C241 349 278 364 319 364 L319 364 Z M192 591 L179 529 L526 529 L539 591 L192 591 Z " />
<glyph glyph-name="Ohungarumlaut" unicode="&#x150;" horiz-adv-x="912" d="M537 679 C387 679 255 630 164 540 C85 462 37 356 37 263 C37 208 53 156 83 110 C137 31 244 -14 382 -14 C522 -14 643 30 736 114 C822 191 873 297 873 399 C873 491 829 573 753 623 C699 659 623 679 537 679 L537 679 Z M518 615 C592 615 645 584 664 531 C671 512 674 489 674 458 C674 371 649 256 615 186 C572 96 498 50 397 50 C292 50 236 106 236 211 C236 307 274 449 317 512 C364 582 429 615 518 615 L518 615 Z M401 732 L441 732 L694 880 L697 892 L534 892 L401 732 Z M640 732 L679 732 L933 880 L935 892 L773 892 L640 732 Z " />
<glyph glyph-name="ohungarumlaut" unicode="&#x151;" horiz-adv-x="622" d="M332 419 C149 419 7 304 7 155 C7 114 19 79 43 54 C83 10 157 -16 237 -16 C416 -16 559 102 559 250 C559 283 550 310 532 336 C495 386 416 419 332 419 L332 419 Z M319 364 C370 364 399 339 399 294 C399 265 386 198 371 146 C350 73 311 38 250 38 C199 38 168 66 168 110 C168 179 196 285 224 325 C241 349 278 364 319 364 L319 364 Z M222 486 L265 486 L460 632 L462 643 L321 643 L222 486 Z M421 486 L464 486 L659 632 L661 643 L521 643 L421 486 Z " />
<glyph glyph-name="OE" unicode="&#x152;" horiz-adv-x="1099" d="M1045 219 L985 219 C929 110 861 62 760 61 L745 61 C711 61 694 64 682 72 C666 82 659 93 659 105 C659 111 660 120 662 129 L702 318 L769 318 C816 318 831 305 831 265 C831 260 830 251 829 245 L828 235 L892 235 L940 461 L876 461 L873 451 C855 395 836 379 784 378 L715 378 L764 608 L872 608 C960 612 986 588 1002 492 L1064 492 L1090 667 L606 667 L559 667 C546 668 545 668 536 668 C388 668 294 642 209 577 C105 498 40 376 40 261 C40 188 67 122 115 77 C168 26 256 0 370 0 L401 0 C419 1 469 1 510 1 L993 0 L1045 219 Z M490 142 C484 112 479 99 470 88 C457 72 426 61 391 61 C291 61 233 123 233 230 C233 313 256 404 295 472 C346 561 418 607 508 607 C555 607 576 592 576 561 C576 550 575 537 572 527 L490 142 Z " />
<glyph glyph-name="oe" unicode="&#x153;" horiz-adv-x="889" d="M738 104 C696 65 651 45 607 45 C552 45 520 79 520 137 C520 163 524 189 530 206 L824 206 C830 229 832 243 832 261 C832 355 755 419 640 419 C582 419 530 403 479 369 C437 402 382 419 319 419 C150 419 7 298 7 154 C7 120 16 91 35 66 C71 16 148 -16 230 -16 C296 -16 354 1 409 37 C441 5 494 -16 545 -16 C634 -16 727 20 782 75 L738 104 Z M541 255 C560 331 587 364 632 364 C663 364 680 344 680 306 C680 291 679 278 674 255 L541 255 Z M309 363 C355 363 382 338 382 296 C382 255 360 155 340 106 C323 64 284 37 242 37 C196 37 168 63 168 106 C168 159 190 263 210 302 C230 343 263 363 309 363 L309 363 Z " />
<glyph glyph-name="Racute" unicode="&#x154;" horiz-adv-x="812" d="M773 0 L784 55 L777 55 C733 57 707 86 659 185 C621 266 596 303 566 326 C683 359 753 432 753 521 C753 578 719 622 657 647 C621 661 505 669 336 669 C322 669 312 669 303 668 L287 668 L101 667 L89 612 L105 612 C162 612 187 597 187 562 C187 555 185 542 183 531 L99 136 C88 78 56 55 -14 55 L-29 55 L-41 0 L354 0 L366 55 L352 55 C298 55 270 71 270 104 C270 115 271 125 273 136 L307 294 L318 294 C394 297 416 282 447 205 C502 72 521 32 543 0 L773 0 Z M320 354 L373 606 C385 607 392 607 404 607 C529 607 570 585 570 517 C570 470 550 421 518 392 C487 364 446 354 358 354 L320 354 Z M409 732 L449 732 L739 880 L742 892 L542 892 L409 732 Z " />
<glyph glyph-name="racute" unicode="&#x155;" horiz-adv-x="522" d="M243 416 L178 404 L100 389 L39 378 L30 376 L18 324 L23 324 C69 324 88 311 88 279 C88 273 87 265 86 258 L56 118 C44 69 24 54 -33 52 L-38 52 L-49 0 L279 0 L290 52 L278 52 C232 52 213 65 213 96 C213 103 214 110 215 118 L225 162 C247 269 281 318 332 318 C347 318 359 312 370 298 C393 270 401 265 428 265 C477 265 518 304 518 352 C518 392 487 419 440 419 C372 419 307 384 252 318 C257 348 259 370 259 392 C259 403 259 408 257 419 L243 416 Z M257 486 L299 486 L532 632 L534 643 L356 643 L257 486 Z " />
<glyph glyph-name="Rcommaaccent" unicode="&#x156;" horiz-adv-x="812" d="M773 0 L784 55 L777 55 C733 57 707 86 659 185 C621 266 596 303 566 326 C683 359 753 432 753 521 C753 578 719 622 657 647 C621 661 505 669 336 669 C322 669 312 669 303 668 L287 668 L101 667 L89 612 L105 612 C162 612 187 597 187 562 C187 555 185 542 183 531 L99 136 C88 78 56 55 -14 55 L-29 55 L-41 0 L354 0 L366 55 L352 55 C298 55 270 71 270 104 C270 115 271 125 273 136 L307 294 L318 294 C394 297 416 282 447 205 C502 72 521 32 543 0 L773 0 Z M320 354 L373 606 C385 607 392 607 404 607 C529 607 570 585 570 517 C570 470 550 421 518 392 C487 364 446 354 358 354 L320 354 Z M194 -339 C253 -337 295 -324 334 -293 C382 -256 410 -199 410 -142 C410 -90 379 -59 326 -59 C270 -59 223 -104 223 -157 C223 -188 246 -212 276 -212 C282 -212 290 -211 298 -209 C303 -208 306 -207 307 -207 L314 -206 L315 -205 L317 -205 C322 -205 327 -212 327 -218 C327 -231 317 -246 300 -260 C275 -279 247 -288 204 -290 L194 -339 Z " />
<glyph glyph-name="rcommaaccent" unicode="&#x157;" horiz-adv-x="522" d="M243 416 L178 404 L100 389 L39 378 L30 376 L18 324 L23 324 C69 324 88 311 88 279 C88 273 87 265 86 258 L56 118 C44 69 24 54 -33 52 L-38 52 L-49 0 L279 0 L290 52 L278 52 C232 52 213 65 213 96 C213 103 214 110 215 118 L225 162 C247 269 281 318 332 318 C347 318 359 312 370 298 C393 270 401 265 428 265 C477 265 518 304 518 352 C518 392 487 419 440 419 C372 419 307 384 252 318 C257 348 259 370 259 392 C259 403 259 408 257 419 L243 416 Z M-20 -306 C91 -305 176 -231 176 -136 C176 -87 147 -59 97 -59 C46 -59 3 -94 3 -136 C3 -163 26 -183 55 -183 C61 -183 69 -182 76 -180 C82 -179 89 -178 93 -178 C100 -178 105 -184 105 -192 C105 -204 94 -221 78 -234 C57 -252 30 -261 -11 -264 L-20 -306 Z " />
<glyph glyph-name="Rcaron" unicode="&#x158;" horiz-adv-x="812" d="M773 0 L784 55 L777 55 C733 57 707 86 659 185 C621 266 596 303 566 326 C683 359 753 432 753 521 C753 578 719 622 657 647 C621 661 505 669 336 669 C322 669 312 669 303 668 L287 668 L101 667 L89 612 L105 612 C162 612 187 597 187 562 C187 555 185 542 183 531 L99 136 C88 78 56 55 -14 55 L-29 55 L-41 0 L354 0 L366 55 L352 55 C298 55 270 71 270 104 C270 115 271 125 273 136 L307 294 L318 294 C394 297 416 282 447 205 C502 72 521 32 543 0 L773 0 Z M320 354 L373 606 C385 607 392 607 404 607 C529 607 570 585 570 517 C570 470 550 421 518 392 C487 364 446 354 358 354 L320 354 Z M575 728 L712 887 L674 887 L498 795 L354 887 L316 887 L382 728 L575 728 Z " />
<glyph glyph-name="rcaron" unicode="&#x159;" horiz-adv-x="522" d="M243 416 L178 404 L100 389 L39 378 L30 376 L18 324 L23 324 C69 324 88 311 88 279 C88 273 87 265 86 258 L56 118 C44 69 24 54 -33 52 L-38 52 L-49 0 L279 0 L290 52 L278 52 C232 52 213 65 213 96 C213 103 214 110 215 118 L225 162 C247 269 281 318 332 318 C347 318 359 312 370 298 C393 270 401 265 428 265 C477 265 518 304 518 352 C518 392 487 419 440 419 C372 419 307 384 252 318 C257 348 259 370 259 392 C259 403 259 408 257 419 L243 416 Z M215 654 L175 654 L230 491 L363 491 L480 654 L437 654 L312 570 L215 654 Z " />
<glyph glyph-name="Sacute" unicode="&#x15a;" horiz-adv-x="623" d="M-7 11 L58 11 C67 33 75 49 88 65 C123 16 191 -14 269 -14 C423 -14 560 101 560 229 C560 264 548 299 526 325 C497 360 448 389 352 429 C265 464 237 489 237 529 C237 580 288 620 352 620 C432 620 488 560 494 470 L554 470 L596 667 L533 667 C533 665 532 663 531 663 L529 656 C522 641 516 632 506 622 C473 658 419 679 358 679 C217 679 88 567 88 443 C88 378 129 327 217 284 C319 234 332 228 360 210 C386 193 400 172 400 146 C400 94 341 49 271 49 C208 49 157 80 129 137 C117 162 111 190 107 239 L41 239 L-7 11 Z M342 732 L382 732 L673 880 L675 892 L475 892 L342 732 Z " />
<glyph glyph-name="sacute" unicode="&#x15b;" horiz-adv-x="504" d="M-26 -12 L22 -12 C31 0 39 8 50 15 C57 13 57 13 65 10 C111 -9 147 -16 191 -16 C279 -16 348 12 389 63 C412 91 425 126 425 158 C425 184 414 209 392 230 C367 254 310 273 230 284 C181 290 151 307 151 328 C151 354 189 373 242 373 C316 373 367 343 377 292 L425 292 L451 415 L406 415 C396 404 388 396 379 391 C329 410 285 419 239 419 C128 419 32 346 32 261 C32 236 42 212 59 199 C98 168 124 158 238 132 C278 123 298 109 298 89 C298 59 250 35 189 35 C116 35 67 68 56 123 L3 123 L-26 -12 Z M237 486 L280 486 L512 632 L514 643 L336 643 L237 486 Z " />
<glyph glyph-name="Scircumflex" unicode="&#x15c;" horiz-adv-x="623" d="M-7 11 L58 11 C67 33 75 49 88 65 C123 16 191 -14 269 -14 C423 -14 560 101 560 229 C560 264 548 299 526 325 C497 360 448 389 352 429 C265 464 237 489 237 529 C237 580 288 620 352 620 C432 620 488 560 494 470 L554 470 L596 667 L533 667 C533 665 532 663 531 663 L529 656 C522 641 516 632 506 622 C473 658 419 679 358 679 C217 679 88 567 88 443 C88 378 129 327 217 284 C319 234 332 228 360 210 C386 193 400 172 400 146 C400 94 341 49 271 49 C208 49 157 80 129 137 C117 162 111 190 107 239 L41 239 L-7 11 Z M344 887 L210 728 L249 728 L424 821 L568 728 L606 728 L537 887 L344 887 Z " />
<glyph glyph-name="scircumflex" unicode="&#x15d;" horiz-adv-x="504" d="M-26 -12 L22 -12 C31 0 39 8 50 15 C57 13 57 13 65 10 C111 -9 147 -16 191 -16 C279 -16 348 12 389 63 C412 91 425 126 425 158 C425 184 414 209 392 230 C367 254 310 273 230 284 C181 290 151 307 151 328 C151 354 189 373 242 373 C316 373 367 343 377 292 L425 292 L451 415 L406 415 C396 404 388 396 379 391 C329 410 285 419 239 419 C128 419 32 346 32 261 C32 236 42 212 59 199 C98 168 124 158 238 132 C278 123 298 109 298 89 C298 59 250 35 189 35 C116 35 67 68 56 123 L3 123 L-26 -12 Z M405 484 L448 484 L399 647 L267 647 L143 484 L183 484 L315 568 L405 484 Z " />
<glyph glyph-name="Scedilla" unicode="&#x15e;" horiz-adv-x="623" d="M554 470 L596 667 L533 667 C533 665 532 663 531 663 L529 656 C522 641 516 632 506 622 C473 658 419 679 358 679 C217 679 88 567 88 443 C88 378 129 327 217 284 C319 234 332 228 360 210 C386 193 400 172 400 146 C400 94 341 49 271 49 C208 49 157 80 129 137 C117 162 111 190 107 239 L41 239 L-7 11 L58 11 C67 33 75 49 88 65 C113 28 166 -1 224 -10 C205 -61 192 -92 179 -114 C217 -116 241 -129 241 -149 C241 -174 216 -188 175 -188 C146 -188 122 -185 88 -177 C79 -202 78 -205 68 -227 C93 -236 120 -240 153 -240 C274 -240 356 -193 356 -123 C356 -79 326 -54 268 -49 C276 -30 279 -23 282 -14 C430 -8 560 105 560 229 C560 265 548 299 526 325 C497 361 449 389 352 429 C265 465 237 489 237 529 C237 580 288 620 352 620 C432 620 488 560 494 470 L554 470 Z " />
<glyph glyph-name="scedilla" unicode="&#x15f;" horiz-adv-x="504" d="M425 292 L451 415 L406 415 C396 404 388 396 379 391 C329 410 285 419 239 419 C128 419 32 346 32 261 C32 236 42 212 59 198 C98 167 123 157 238 132 C278 123 298 108 298 89 C298 58 250 34 189 34 C116 34 67 67 56 123 L3 123 L-26 -12 L22 -12 C31 1 39 8 50 15 C57 13 57 13 65 10 C99 -4 128 -12 155 -14 C145 -48 135 -74 120 -103 C149 -104 166 -116 166 -134 C166 -156 147 -169 116 -169 C94 -169 76 -167 50 -160 C43 -182 42 -185 34 -205 C51 -212 72 -216 97 -216 C189 -216 252 -172 252 -108 C252 -70 231 -49 189 -44 C195 -29 196 -24 199 -16 C262 -15 319 2 356 30 C398 62 425 112 425 157 C425 184 414 209 392 230 C368 254 310 273 230 284 C182 290 151 307 151 328 C151 354 190 373 242 373 C316 373 367 343 377 292 L425 292 Z " />
<glyph glyph-name="Scaron" unicode="&#x160;" horiz-adv-x="623" d="M-7 11 L58 11 C67 33 75 49 88 65 C123 16 191 -14 269 -14 C423 -14 560 101 560 229 C560 264 548 299 526 325 C497 360 448 389 352 429 C265 464 237 489 237 529 C237 580 288 620 352 620 C432 620 488 560 494 470 L554 470 L596 667 L533 667 C533 665 532 663 531 663 L529 656 C522 641 516 632 506 622 C473 658 419 679 358 679 C217 679 88 567 88 443 C88 378 129 327 217 284 C319 234 332 228 360 210 C386 193 400 172 400 146 C400 94 341 49 271 49 C208 49 157 80 129 137 C117 162 111 190 107 239 L41 239 L-7 11 Z M489 728 L626 887 L588 887 L412 795 L269 887 L230 887 L296 728 L489 728 Z " />
<glyph glyph-name="scaron" unicode="&#x161;" horiz-adv-x="504" d="M-26 -12 L22 -12 C31 0 39 8 50 15 C57 13 57 13 65 10 C111 -9 147 -16 191 -16 C279 -16 348 12 389 63 C412 91 425 126 425 158 C425 184 414 209 392 230 C367 254 310 273 230 284 C181 290 151 307 151 328 C151 354 189 373 242 373 C316 373 367 343 377 292 L425 292 L451 415 L406 415 C396 404 388 396 379 391 C329 410 285 419 239 419 C128 419 32 346 32 261 C32 236 42 212 59 199 C98 168 124 158 238 132 C278 123 298 109 298 89 C298 59 250 35 189 35 C116 35 67 68 56 123 L3 123 L-26 -12 Z M213 654 L172 654 L227 491 L360 491 L477 654 L434 654 L310 570 L213 654 Z " />
<glyph glyph-name="Tcommaaccent" unicode="&#x162;" horiz-adv-x="766" d="M107 477 C148 583 180 607 285 608 L351 608 L251 136 C239 77 207 54 138 55 L119 55 L108 0 L513 0 L524 55 L504 55 C447 55 422 70 422 105 C422 115 423 126 425 136 L526 608 L593 608 C688 608 712 583 719 477 L780 477 L820 667 L86 667 L46 477 L107 477 Z M157 -339 C216 -337 258 -324 297 -293 C344 -256 373 -199 373 -142 C373 -90 342 -59 288 -59 C232 -59 185 -104 185 -157 C185 -188 208 -212 239 -212 C245 -212 253 -211 261 -209 C265 -208 269 -207 270 -207 L277 -206 L278 -205 L280 -205 C285 -205 290 -212 290 -218 C290 -231 280 -246 263 -260 C238 -279 210 -288 167 -290 L157 -339 Z " />
<glyph glyph-name="tcommaaccent" unicode="&#x163;" horiz-adv-x="395" d="M388 349 L399 403 L265 403 L293 536 L236 536 C206 458 125 402 42 402 C40 402 33 402 26 403 L15 349 L80 349 L30 115 C27 101 26 89 26 78 C26 62 32 44 42 28 C61 -1 99 -16 152 -16 C237 -16 308 18 346 78 L296 94 C275 65 256 53 231 53 C210 53 200 64 200 86 C200 95 202 104 209 140 L254 349 L388 349 Z M-2 -306 C109 -305 194 -231 194 -136 C194 -87 165 -59 115 -59 C64 -59 21 -94 21 -137 C21 -163 44 -183 73 -183 C79 -183 87 -182 94 -180 C100 -179 107 -178 111 -178 C118 -178 123 -184 123 -192 C123 -204 113 -221 96 -234 C75 -252 48 -261 7 -264 L-2 -306 Z " />
<glyph glyph-name="Tcaron" unicode="&#x164;" horiz-adv-x="766" d="M107 477 C148 583 180 607 285 608 L351 608 L251 136 C239 77 207 54 138 55 L119 55 L108 0 L513 0 L524 55 L504 55 C447 55 422 70 422 105 C422 115 423 126 425 136 L526 608 L593 608 C688 608 712 583 719 477 L780 477 L820 667 L86 667 L46 477 L107 477 Z M558 728 L696 887 L657 887 L481 795 L338 887 L299 887 L366 728 L558 728 Z " />
<glyph glyph-name="tcaron" unicode="&#x165;" horiz-adv-x="474" d="M388 349 L399 403 L265 403 L293 536 L236 536 C207 458 125 402 42 402 C40 402 33 402 26 403 L15 349 L80 349 L30 115 C27 101 26 89 26 78 C26 62 32 44 42 28 C61 -1 98 -16 152 -16 C237 -16 308 18 346 78 L296 94 C275 64 256 53 231 53 C211 53 201 64 201 86 C201 95 205 119 209 140 L254 349 L388 349 Z M333 468 C444 469 529 542 529 637 C529 686 500 714 449 714 C398 714 355 679 355 637 C355 611 378 591 408 591 C415 591 421 592 428 593 C435 594 441 595 445 595 C453 595 458 589 458 581 C458 569 448 553 431 539 C410 521 383 512 341 509 L333 468 Z " />
<glyph glyph-name="utilde" unicode="&#x169;" horiz-adv-x="655" d="M576 403 L351 403 L340 351 L344 351 C381 351 395 341 395 313 C395 303 394 294 392 285 L359 131 C317 88 280 68 243 68 C217 68 199 83 199 105 C199 114 201 128 203 140 L259 403 L25 403 L14 351 L17 351 C60 351 78 338 78 307 C78 302 77 293 75 285 L42 131 C38 111 36 95 36 83 C36 24 88 -16 163 -16 C227 -16 287 8 343 55 L342 49 L338 31 L334 9 C332 2 331 -4 329 -10 C329 -11 329 -13 328 -16 L334 -16 C369 -8 501 1 572 0 L584 52 L580 52 C533 52 513 65 513 97 C513 101 514 111 516 118 L576 403 Z M249 493 C261 519 275 529 296 529 C309 529 338 521 364 510 C396 497 412 493 430 493 C490 493 536 545 554 633 L515 633 C507 605 488 588 465 588 C453 588 435 592 420 598 C372 618 354 623 332 623 C304 623 266 604 248 580 C232 559 221 533 212 493 L249 493 Z " />
<glyph glyph-name="Umacron" unicode="&#x16a;" horiz-adv-x="853" d="M653 667 L641 612 L647 612 C696 612 726 587 726 546 C726 537 724 524 721 510 L674 286 C657 206 646 177 624 148 C580 90 506 55 431 55 C344 55 284 103 284 172 C284 198 288 231 296 268 L352 531 C365 592 392 613 459 612 L471 612 L483 667 L90 667 L78 612 L86 612 C139 612 162 598 162 565 C162 552 161 542 159 531 L103 268 C93 221 91 208 91 185 C91 63 193 -14 356 -14 C452 -14 549 14 611 59 C671 103 714 178 734 274 L784 507 C796 574 822 600 887 612 L893 612 L904 667 L653 667 Z M353 818 L340 756 L730 756 L743 818 L353 818 Z " />
<glyph glyph-name="umacron" unicode="&#x16b;" horiz-adv-x="655" d="M576 403 L351 403 L340 351 L344 351 C381 351 395 341 395 313 C395 303 394 294 392 285 L359 131 C317 88 280 68 243 68 C217 68 199 83 199 105 C199 114 201 128 203 140 L259 403 L25 403 L14 351 L17 351 C60 351 78 338 78 307 C78 302 77 293 75 285 L42 131 C38 111 36 95 36 83 C36 24 88 -16 163 -16 C227 -16 287 8 343 55 L342 49 L338 31 L334 9 C332 2 331 -4 329 -10 C329 -11 329 -13 328 -16 L334 -16 C369 -8 501 1 572 0 L584 52 L580 52 C533 52 513 65 513 97 C513 101 514 111 516 118 L576 403 Z M197 591 L184 529 L532 529 L545 591 L197 591 Z " />
<glyph glyph-name="ubreve" unicode="&#x16d;" horiz-adv-x="655" d="M576 403 L351 403 L340 351 L344 351 C381 351 395 341 395 313 C395 303 394 294 392 285 L359 131 C317 88 280 68 243 68 C217 68 199 83 199 105 C199 114 201 128 203 140 L259 403 L25 403 L14 351 L17 351 C60 351 78 338 78 307 C78 302 77 293 75 285 L42 131 C38 111 36 95 36 83 C36 24 88 -16 163 -16 C227 -16 287 8 343 55 L342 49 L338 31 L334 9 C332 2 331 -4 329 -10 C329 -11 329 -13 328 -16 L334 -16 C369 -8 501 1 572 0 L584 52 L580 52 C533 52 513 65 513 97 C513 101 514 111 516 118 L576 403 Z M246 647 C242 632 241 622 241 610 C241 534 292 478 361 478 C444 478 524 551 546 647 L513 647 C484 593 441 566 382 566 C322 566 285 595 280 647 L246 647 Z " />
<glyph glyph-name="Uring" unicode="&#x16e;" horiz-adv-x="853" d="M653 667 L641 612 L647 612 C696 612 726 587 726 546 C726 537 724 524 721 510 L674 286 C657 206 646 177 624 148 C580 90 506 55 431 55 C344 55 284 103 284 172 C284 198 288 231 296 268 L352 531 C365 592 392 613 459 612 L471 612 L483 667 L90 667 L78 612 L86 612 C139 612 162 598 162 565 C162 552 161 542 159 531 L103 268 C93 221 91 208 91 185 C91 63 193 -14 356 -14 C452 -14 549 14 611 59 C671 103 714 178 734 274 L784 507 C796 574 822 600 887 612 L893 612 L904 667 L653 667 Z M590 911 C521 911 457 849 457 782 C457 733 494 697 542 697 C611 697 675 759 675 826 C675 875 639 911 590 911 L590 911 Z M579 864 C606 864 627 844 627 817 C627 779 591 744 552 744 C525 744 505 764 505 791 C505 829 541 864 579 864 L579 864 Z " />
<glyph glyph-name="uring" unicode="&#x16f;" horiz-adv-x="655" d="M576 403 L351 403 L340 351 L344 351 C381 351 395 341 395 313 C395 303 394 294 392 285 L359 131 C317 88 280 68 243 68 C217 68 199 83 199 105 C199 114 201 128 203 140 L259 403 L25 403 L14 351 L17 351 C60 351 78 338 78 307 C78 302 77 293 75 285 L42 131 C38 111 36 95 36 83 C36 24 88 -16 163 -16 C227 -16 287 8 343 55 L342 49 L338 31 L334 9 C332 2 331 -4 329 -10 C329 -11 329 -13 328 -16 L334 -16 C369 -8 501 1 572 0 L584 52 L580 52 C533 52 513 65 513 97 C513 101 514 111 516 118 L576 403 Z M406 682 C337 682 273 620 273 553 C273 505 310 469 358 469 C427 469 491 531 491 597 C491 646 455 682 406 682 L406 682 Z M395 633 C421 633 441 614 441 588 C441 552 406 518 369 518 C343 518 324 537 324 563 C324 599 358 633 395 633 L395 633 Z " />
<glyph glyph-name="Uhungarumlaut" unicode="&#x170;" horiz-adv-x="853" d="M653 667 L641 612 L647 612 C696 612 726 587 726 546 C726 537 724 524 721 510 L674 286 C657 206 646 177 624 148 C580 90 506 55 431 55 C344 55 284 103 284 172 C284 198 288 231 296 268 L352 531 C365 592 392 613 459 612 L471 612 L483 667 L90 667 L78 612 L86 612 C139 612 162 598 162 565 C162 552 161 542 159 531 L103 268 C93 221 91 208 91 185 C91 63 193 -14 356 -14 C452 -14 549 14 611 59 C671 103 714 178 734 274 L784 507 C796 574 822 600 887 612 L893 612 L904 667 L653 667 Z M388 732 L428 732 L681 880 L684 892 L521 892 L388 732 Z M627 732 L667 732 L920 880 L922 892 L760 892 L627 732 Z " />
<glyph glyph-name="uhungarumlaut" unicode="&#x171;" horiz-adv-x="655" d="M576 403 L351 403 L340 351 L344 351 C381 351 395 341 395 313 C395 303 394 294 392 285 L359 131 C317 88 280 68 243 68 C217 68 199 83 199 105 C199 114 201 128 203 140 L259 403 L25 403 L14 351 L17 351 C60 351 78 338 78 307 C78 302 77 293 75 285 L42 131 C38 111 36 95 36 83 C36 24 88 -16 163 -16 C227 -16 287 8 343 55 L342 49 L338 31 L334 9 C332 2 331 -4 329 -10 C329 -11 329 -13 328 -16 L334 -16 C369 -8 501 1 572 0 L584 52 L580 52 C533 52 513 65 513 97 C513 101 514 111 516 118 L576 403 Z M217 486 L260 486 L455 632 L457 643 L316 643 L217 486 Z M416 486 L459 486 L654 632 L657 643 L516 643 L416 486 Z " />
<glyph glyph-name="Uogonek" unicode="&#x172;" horiz-adv-x="853" d="M578 -149 C551 -158 537 -161 516 -161 C472 -161 443 -140 443 -107 C443 -88 454 -64 470 -46 C487 -29 505 -15 552 17 C663 88 697 136 734 274 L784 507 C796 574 822 600 887 612 L893 612 L904 667 L653 667 L641 612 L647 612 C696 612 726 587 726 546 C726 537 724 524 721 510 L674 286 C657 206 646 177 624 148 C580 90 506 55 431 55 C344 55 284 103 284 172 C284 198 288 231 296 268 L352 531 C365 592 392 613 459 612 L471 612 L483 667 L90 667 L78 612 L86 612 C139 612 162 598 162 565 C162 552 161 542 159 531 L103 268 C93 222 91 208 91 185 C91 63 193 -14 354 -14 C385 -14 414 -11 447 -5 C378 -39 334 -90 334 -138 C334 -185 383 -219 452 -219 C498 -219 535 -208 589 -180 L578 -149 Z " />
<glyph glyph-name="uogonek" unicode="&#x173;" horiz-adv-x="655" d="M584 52 L580 52 C533 52 513 65 513 97 C513 101 514 111 516 118 L576 403 L351 403 L340 351 L344 351 C381 351 395 341 395 313 C395 303 394 294 392 285 L359 131 C317 88 280 68 243 68 C217 68 199 83 199 105 C199 114 201 128 203 140 L259 403 L25 403 L14 351 L17 351 C60 351 78 338 78 307 C78 302 77 293 75 285 L42 131 C38 111 36 95 36 83 C36 24 88 -16 163 -16 C227 -16 287 8 343 55 L342 49 L338 31 L334 9 C332 2 331 -4 329 -10 C329 -11 329 -13 328 -16 L334 -16 C355 -12 369 -10 394 -8 C338 -43 310 -81 310 -121 C310 -165 354 -196 418 -196 C461 -196 496 -186 545 -160 L534 -131 C509 -139 496 -141 478 -141 C439 -141 413 -122 413 -94 C413 -64 436 -29 475 -2 C509 0 534 0 572 0 L584 52 Z " />
<glyph glyph-name="Wcircumflex" unicode="&#x174;" horiz-adv-x="1037" d="M715 -14 L964 466 C1025 581 1050 609 1098 613 L1110 613 L1121 667 L887 667 L875 613 L880 613 C913 613 937 596 937 571 C937 556 930 536 915 507 L776 236 L682 667 L598 667 L352 236 L312 534 C311 542 311 549 311 559 C311 597 329 613 374 613 L380 613 L392 667 L58 667 L46 613 L56 613 L57 613 L61 613 C100 613 112 593 122 515 L188 -14 L275 -14 L535 434 L631 -14 L715 -14 Z M575 887 L441 728 L479 728 L654 821 L799 728 L837 728 L767 887 L575 887 Z " />
<glyph glyph-name="Ycircumflex" unicode="&#x176;" horiz-adv-x="732" d="M435 353 L362 534 C355 550 351 567 351 575 C351 599 371 612 408 612 L414 612 L425 667 L58 667 L46 612 L52 612 C95 610 114 594 139 539 L266 273 L236 136 C226 78 193 55 123 55 L110 55 L99 0 L492 0 L503 55 L492 55 C437 55 409 71 409 104 C409 113 410 125 413 136 L444 284 L656 512 C726 590 752 608 800 612 L805 612 L817 667 L565 667 L553 612 L559 612 C597 612 616 601 616 578 C616 562 603 537 585 517 L435 353 Z M410 887 L276 728 L315 728 L489 821 L634 728 L672 728 L603 887 L410 887 Z " />
<glyph glyph-name="ycircumflex" unicode="&#x177;" horiz-adv-x="577" d="M8 403 L-3 351 L5 350 C33 347 40 338 62 282 L193 -18 L175 -44 C140 -90 115 -104 32 -121 C-27 -133 -57 -158 -57 -196 C-57 -229 -29 -251 11 -251 C73 -251 113 -222 189 -121 L453 230 C522 332 535 346 567 350 L575 351 L586 403 L423 403 L412 351 L421 351 C436 352 450 341 450 330 C450 322 439 302 421 278 L318 139 L251 295 C248 303 245 318 245 328 C245 342 256 350 280 351 L289 351 L300 403 L8 403 Z M458 484 L501 484 L452 647 L320 647 L196 484 L236 484 L368 568 L458 484 Z " />
<glyph glyph-name="Ydieresis" unicode="&#x178;" horiz-adv-x="732" d="M435 353 L362 534 C355 550 351 567 351 575 C351 599 371 612 408 612 L414 612 L425 667 L58 667 L46 612 L52 612 C95 610 114 594 139 539 L266 273 L236 136 C226 78 193 55 123 55 L110 55 L99 0 L492 0 L503 55 L492 55 C437 55 409 71 409 104 C409 113 410 125 413 136 L444 284 L656 512 C726 590 752 608 800 612 L805 612 L817 667 L565 667 L553 612 L559 612 C597 612 616 601 616 578 C616 562 603 537 585 517 L435 353 Z M351 881 C301 881 255 836 255 787 C255 752 281 726 317 726 C367 726 413 771 413 820 C413 855 387 881 351 881 L351 881 Z M653 881 C603 881 557 836 557 787 C557 752 583 726 618 726 C669 726 715 771 715 820 C715 855 689 881 653 881 L653 881 Z " />
<glyph glyph-name="Zacute" unicode="&#x179;" horiz-adv-x="749" d="M-33 0 L626 0 L681 198 L620 198 C554 85 505 57 382 59 L214 59 L748 622 L758 667 L141 667 L91 489 L149 489 C205 590 243 609 389 608 L508 608 L-24 44 L-33 0 Z M424 732 L464 732 L754 880 L757 892 L557 892 L424 732 Z " />
<glyph glyph-name="zacute" unicode="&#x17a;" horiz-adv-x="541" d="M-39 0 L425 0 L468 138 L410 138 C364 71 339 53 295 53 L196 53 L507 357 L517 403 L73 403 L36 279 L95 279 C142 345 148 350 182 350 L284 350 L-30 41 L-39 0 Z M285 486 L327 486 L560 632 L562 643 L384 643 L285 486 Z " />
<glyph glyph-name="Zdotaccent" unicode="&#x17b;" horiz-adv-x="749" d="M-33 0 L626 0 L681 198 L620 198 C554 85 505 57 382 59 L214 59 L748 622 L758 667 L141 667 L91 489 L149 489 C205 590 243 609 389 608 L508 608 L-24 44 L-33 0 Z M512 881 C462 881 416 836 416 787 C416 752 442 726 478 726 C528 726 574 771 574 820 C574 855 548 881 512 881 L512 881 Z " />
<glyph glyph-name="zdotaccent" unicode="&#x17c;" horiz-adv-x="541" d="M-39 0 L425 0 L468 138 L410 138 C364 71 339 53 295 53 L196 53 L507 357 L517 403 L73 403 L36 279 L95 279 C142 345 148 350 182 350 L284 350 L-30 41 L-39 0 Z M359 638 C314 638 272 597 272 554 C272 522 296 498 328 498 C373 498 415 539 415 583 C415 614 391 638 359 638 L359 638 Z " />
<glyph glyph-name="Zcaron" unicode="&#x17d;" horiz-adv-x="749" d="M-33 0 L626 0 L681 198 L620 198 C554 85 505 57 382 59 L214 59 L748 622 L758 667 L141 667 L91 489 L149 489 C205 590 243 609 389 608 L508 608 L-24 44 L-33 0 Z M569 728 L706 887 L668 887 L492 795 L348 887 L310 887 L376 728 L569 728 Z " />
<glyph glyph-name="zcaron" unicode="&#x17e;" horiz-adv-x="541" d="M-39 0 L425 0 L468 138 L410 138 C364 71 339 53 295 53 L196 53 L507 357 L517 403 L73 403 L36 279 L95 279 C142 345 148 350 182 350 L284 350 L-30 41 L-39 0 Z M245 654 L205 654 L260 491 L393 491 L510 654 L467 654 L342 570 L245 654 Z " />
<glyph glyph-name="florin" unicode="&#x192;" horiz-adv-x="599" d="M443 445 C461 491 464 501 470 548 C475 594 481 614 494 632 C506 648 530 660 549 660 C557 660 563 656 563 651 C563 647 559 642 549 633 C536 621 527 608 527 599 C527 577 543 563 567 563 C605 563 638 595 638 632 C638 664 610 683 560 683 C485 683 435 649 374 557 C311 459 297 449 214 445 L188 385 L264 385 C260 375 260 374 255 362 C239 325 225 293 217 274 C202 241 187 207 173 174 C131 76 121 53 112 21 L80 -125 C77 -143 75 -148 67 -159 C54 -175 34 -187 19 -187 C11 -187 3 -182 3 -179 C3 -177 4 -176 6 -174 C26 -155 26 -155 26 -142 C26 -124 8 -111 -16 -111 C-50 -111 -85 -140 -85 -169 C-85 -195 -53 -217 -17 -217 C23 -217 63 -204 102 -179 C175 -133 230 -49 305 126 C307 130 308 133 311 140 L418 385 L501 385 L526 445 L443 445 Z " />
<glyph glyph-name="uni01CD" unicode="&#x1cd;" horiz-adv-x="720" d="M665 0 L676 55 L671 55 C621 60 606 78 584 162 L464 679 L401 679 L75 177 C28 101 -21 59 -67 55 L-73 55 L-85 0 L157 0 L169 55 L161 55 C124 55 101 67 101 87 C101 100 111 123 131 153 L148 180 L374 180 L380 155 C387 129 392 100 392 91 C392 66 369 55 319 55 L313 55 L301 0 L665 0 Z M362 236 L184 236 L313 436 L362 236 Z M539 728 L676 887 L638 887 L462 795 L318 887 L280 887 L346 728 L539 728 Z " />
<glyph glyph-name="uni01CE" unicode="&#x1ce;" horiz-adv-x="621" d="M520 90 C512 72 499 62 483 62 C469 62 460 71 460 83 C460 87 462 100 463 105 L502 291 C507 313 508 321 508 330 C508 391 451 419 328 419 C235 419 172 407 117 378 C75 357 51 329 51 302 C51 276 74 259 110 259 C154 259 181 276 196 313 C203 331 211 342 218 348 C231 357 257 364 281 364 C326 364 347 352 347 327 C347 320 346 311 344 303 L337 266 C164 217 94 190 37 152 C7 131 -14 96 -14 65 C-14 19 30 -10 99 -10 C169 -10 236 8 298 43 C313 8 352 -10 411 -10 C494 -10 551 26 567 90 L520 90 Z M300 96 C270 75 235 63 203 63 C172 63 145 83 145 106 C145 144 192 172 325 211 L300 96 Z M273 654 L233 654 L288 491 L420 491 L538 654 L495 654 L370 570 L273 654 Z " />
<glyph glyph-name="uni01D3" unicode="&#x1d3;" horiz-adv-x="853" d="M653 667 L641 612 L647 612 C696 612 726 587 726 546 C726 537 724 524 721 510 L674 286 C657 206 646 177 624 148 C580 90 506 55 431 55 C344 55 284 103 284 172 C284 198 288 231 296 268 L352 531 C365 592 392 613 459 612 L471 612 L483 667 L90 667 L78 612 L86 612 C139 612 162 598 162 565 C162 552 161 542 159 531 L103 268 C93 221 91 208 91 185 C91 63 193 -14 356 -14 C452 -14 549 14 611 59 C671 103 714 178 734 274 L784 507 C796 574 822 600 887 612 L893 612 L904 667 L653 667 Z M627 728 L764 887 L726 887 L550 795 L407 887 L368 887 L435 728 L627 728 Z " />
<glyph glyph-name="uni01D4" unicode="&#x1d4;" horiz-adv-x="655" d="M576 403 L351 403 L340 351 L344 351 C381 351 395 341 395 313 C395 303 394 294 392 285 L359 131 C317 88 280 68 243 68 C217 68 199 83 199 105 C199 114 201 128 203 140 L259 403 L25 403 L14 351 L17 351 C60 351 78 338 78 307 C78 302 77 293 75 285 L42 131 C38 111 36 95 36 83 C36 24 88 -16 163 -16 C227 -16 287 8 343 55 L342 49 L338 31 L334 9 C332 2 331 -4 329 -10 C329 -11 329 -13 328 -16 L334 -16 C369 -8 501 1 572 0 L584 52 L580 52 C533 52 513 65 513 97 C513 101 514 111 516 118 L576 403 Z M289 654 L249 654 L304 491 L436 491 L554 654 L511 654 L386 570 L289 654 Z " />
<glyph glyph-name="Gcaron" unicode="&#x1e6;" horiz-adv-x="866" d="M499 308 L487 254 L496 253 C541 249 560 235 560 205 C560 202 559 196 558 190 L553 166 C545 131 537 111 522 94 C497 66 449 49 395 49 C349 49 305 59 276 77 C246 95 226 136 226 182 C226 252 251 370 281 444 C327 557 401 609 513 609 C624 609 688 552 705 439 L759 439 L803 672 L750 672 C743 647 732 626 715 602 C659 654 588 679 501 679 C357 679 218 611 127 495 C69 422 36 336 36 258 C36 168 79 86 151 37 C201 4 268 -14 344 -14 C389 -14 417 -10 527 10 C599 23 647 29 682 29 C690 29 697 29 709 28 L739 168 C751 228 764 241 818 252 L830 254 L842 308 L499 308 Z M614 728 L751 887 L713 887 L537 795 L393 887 L355 887 L421 728 L614 728 Z " />
<glyph glyph-name="gcaron" unicode="&#x1e7;" horiz-adv-x="591" d="M43 -106 L49 -99 L51 -96 C32 -88 20 -85 6 -85 C-33 -85 -68 -120 -68 -157 C-68 -218 5 -249 148 -249 C268 -249 348 -229 408 -186 C460 -147 489 -97 489 -42 C489 3 464 36 419 51 C383 62 348 66 274 66 L247 66 L207 65 L157 65 C127 64 109 72 109 85 C109 112 149 128 220 128 C388 128 500 199 500 303 C500 318 497 330 491 345 C503 354 509 356 517 356 C526 356 530 354 540 345 C550 334 557 331 568 331 C594 331 614 353 614 383 C614 406 598 419 569 419 C542 419 519 410 465 376 C429 405 382 418 309 418 C144 418 34 352 34 253 C34 199 67 161 133 144 C42 124 -3 83 -3 21 C-3 -40 59 -64 216 -64 C293 -64 330 -65 346 -68 C376 -73 389 -85 389 -104 C389 -162 302 -197 157 -197 C76 -197 25 -174 25 -137 C25 -129 29 -121 40 -109 L43 -106 Z M286 365 C326 365 351 344 351 311 C351 278 338 238 319 213 C306 196 281 185 252 185 C208 185 186 206 186 248 C186 318 226 365 286 365 L286 365 Z M244 654 L204 654 L259 491 L392 491 L509 654 L466 654 L341 570 L244 654 Z " />
<glyph glyph-name="Scommaaccent" unicode="&#x218;" horiz-adv-x="623" d="M-7 11 L58 11 C67 33 75 49 88 65 C123 16 191 -14 269 -14 C423 -14 560 101 560 229 C560 264 548 299 526 325 C497 360 448 389 352 429 C265 464 237 489 237 529 C237 580 288 620 352 620 C432 620 488 560 494 470 L554 470 L596 667 L533 667 C533 665 532 663 531 663 L529 656 C522 641 516 632 506 622 C473 658 419 679 358 679 C217 679 88 567 88 443 C88 378 129 327 217 284 C319 234 332 228 360 210 C386 193 400 172 400 146 C400 94 341 49 271 49 C208 49 157 80 129 137 C117 162 111 190 107 239 L41 239 L-7 11 Z M98 -339 C157 -337 199 -324 238 -293 C285 -256 314 -199 314 -142 C314 -89 283 -59 229 -59 C173 -59 126 -104 126 -157 C126 -188 149 -212 180 -212 C186 -212 194 -211 202 -209 C206 -208 210 -207 211 -207 L218 -206 L219 -205 L221 -205 C226 -205 231 -212 231 -218 C231 -231 221 -246 204 -260 C179 -279 151 -288 108 -290 L98 -339 Z " />
<glyph glyph-name="scommaaccent" unicode="&#x219;" horiz-adv-x="504" d="M-26 -12 L22 -12 C31 0 39 8 50 15 C57 13 57 13 65 10 C111 -9 147 -16 191 -16 C279 -16 348 12 389 63 C412 91 425 126 425 158 C425 184 414 209 392 230 C367 254 310 273 230 284 C181 290 151 307 151 328 C151 354 189 373 242 373 C316 373 367 343 377 292 L425 292 L451 415 L406 415 C396 404 388 396 379 391 C329 410 285 419 239 419 C128 419 32 346 32 261 C32 236 42 212 59 199 C98 168 124 158 238 132 C278 123 298 109 298 89 C298 59 250 35 189 35 C116 35 67 68 56 123 L3 123 L-26 -12 Z M45 -306 C156 -305 241 -231 241 -136 C241 -87 212 -59 162 -59 C110 -59 67 -94 67 -136 C67 -163 90 -183 120 -183 C126 -183 133 -182 140 -180 C147 -179 154 -178 157 -178 C165 -178 170 -184 170 -192 C170 -204 159 -221 143 -234 C122 -252 95 -261 53 -264 L45 -306 Z " />
<glyph glyph-name="uni021A" unicode="&#x21a;" horiz-adv-x="766" d="M107 477 C148 583 180 607 285 608 L351 608 L251 136 C239 77 207 54 138 55 L119 55 L108 0 L513 0 L524 55 L504 55 C447 55 422 70 422 105 C422 115 423 126 425 136 L526 608 L593 608 C688 608 712 583 719 477 L780 477 L820 667 L86 667 L46 477 L107 477 Z M157 -339 C216 -337 258 -324 297 -293 C344 -256 373 -199 373 -142 C373 -90 342 -59 288 -59 C232 -59 185 -104 185 -157 C185 -188 208 -212 239 -212 C245 -212 253 -211 261 -209 C265 -208 269 -207 270 -207 L277 -206 L278 -205 L280 -205 C285 -205 290 -212 290 -218 C290 -231 280 -246 263 -260 C238 -279 210 -288 167 -290 L157 -339 Z " />
<glyph glyph-name="uni021B" unicode="&#x21b;" horiz-adv-x="395" d="M388 349 L399 403 L265 403 L293 536 L236 536 C206 458 125 402 42 402 C40 402 33 402 26 403 L15 349 L80 349 L30 115 C27 101 26 89 26 78 C26 62 32 44 42 28 C61 -1 99 -16 152 -16 C237 -16 308 18 346 78 L296 94 C275 65 256 53 231 53 C210 53 200 64 200 86 C200 95 202 104 209 140 L254 349 L388 349 Z M-2 -306 C109 -305 194 -231 194 -136 C194 -87 165 -59 115 -59 C64 -59 21 -94 21 -137 C21 -163 44 -183 73 -183 C79 -183 87 -182 94 -180 C100 -179 107 -178 111 -178 C118 -178 123 -184 123 -192 C123 -204 113 -221 96 -234 C75 -252 48 -261 7 -264 L-2 -306 Z " />
<glyph glyph-name="afii57929" unicode="&#x2bc;" horiz-adv-x="367" d="M78 328 C224 331 341 442 341 577 C341 642 305 679 243 679 C177 679 122 629 122 570 C122 533 152 505 189 505 C197 505 206 506 217 508 C235 511 238 512 240 512 C249 512 256 504 256 495 C256 445 177 392 90 386 L78 328 Z " />
<glyph glyph-name="circumflex" unicode="&#x2c6;" horiz-adv-x="520" d="M401 484 L444 484 L395 647 L263 647 L139 484 L179 484 L311 568 L401 484 Z " />
<glyph glyph-name="caron" unicode="&#x2c7;" horiz-adv-x="520" d="M215 654 L175 654 L230 491 L362 491 L480 654 L437 654 L312 570 L215 654 Z " />
<glyph glyph-name="uni02C9" unicode="&#x2c9;" horiz-adv-x="414" d="M88 591 L75 529 L423 529 L436 591 L88 591 Z " />
<glyph glyph-name="breve" unicode="&#x2d8;" horiz-adv-x="520" d="M171 647 C167 633 166 623 166 610 C166 533 216 478 285 478 C369 478 450 551 471 647 L438 647 C410 593 365 566 307 566 C246 566 210 595 205 647 L171 647 Z " />
<glyph glyph-name="dotaccent" unicode="&#x2d9;" horiz-adv-x="536" d="M334 638 C289 638 247 597 247 554 C247 522 271 498 303 498 C348 498 390 539 390 583 C390 614 366 638 334 638 L334 638 Z " />
<glyph glyph-name="ring" unicode="&#x2da;" horiz-adv-x="500" d="M323 682 C254 682 190 620 190 554 C190 505 227 469 275 469 C344 469 408 531 408 598 C408 646 372 682 323 682 L323 682 Z M312 633 C338 633 358 613 358 588 C358 552 323 518 286 518 C260 518 241 537 241 563 C241 600 275 633 312 633 L312 633 Z " />
<glyph glyph-name="ogonek" unicode="&#x2db;" horiz-adv-x="500" d="M273 17 C227 -3 207 -16 182 -39 C156 -62 139 -95 139 -121 C139 -165 184 -196 247 -196 C290 -196 324 -186 374 -160 L363 -131 C338 -139 325 -141 307 -141 C268 -141 242 -122 242 -94 C242 -56 269 -23 333 17 L273 17 Z " />
<glyph glyph-name="tilde" unicode="&#x2dc;" horiz-adv-x="519" d="M171 493 C183 519 197 529 218 529 C231 529 260 521 286 510 C317 497 334 493 351 493 C412 493 459 546 476 633 L437 633 C429 605 410 588 387 588 C375 588 357 592 343 598 C294 618 276 623 254 623 C226 623 188 604 170 580 C154 559 143 533 134 493 L171 493 Z " />
<glyph glyph-name="hungarumlaut" unicode="&#x2dd;" horiz-adv-x="529" d="M146 486 L189 486 L384 632 L386 643 L245 643 L146 486 Z M345 486 L388 486 L583 632 L586 643 L445 643 L345 486 Z " />
<glyph glyph-name="Wdieresis" unicode="&#x1e84;" horiz-adv-x="1037" d="M715 -14 L964 466 C1025 581 1050 609 1098 613 L1110 613 L1121 667 L887 667 L875 613 L880 613 C913 613 937 596 937 571 C937 556 930 536 915 507 L776 236 L682 667 L598 667 L352 236 L312 534 C311 542 311 549 311 559 C311 597 329 613 374 613 L380 613 L392 667 L58 667 L46 613 L56 613 L57 613 L61 613 C100 613 112 593 122 515 L188 -14 L275 -14 L535 434 L631 -14 L715 -14 Z M518 881 C468 881 422 836 422 787 C422 752 448 726 484 726 C534 726 580 771 580 820 C580 855 554 881 518 881 L518 881 Z M820 881 C770 881 724 836 724 787 C724 752 750 726 785 726 C836 726 882 771 882 820 C882 855 856 881 820 881 L820 881 Z " />
<glyph glyph-name="uni2011" unicode="&#x2011;" horiz-adv-x="381" d="M17 254 L1 180 L320 180 L336 254 L17 254 Z " />
<glyph glyph-name="figuredash" unicode="&#x2012;" horiz-adv-x="611" d="M6 254 L-8 190 L559 190 L572 254 L6 254 Z " />
<glyph glyph-name="endash" unicode="&#x2013;" horiz-adv-x="611" d="M6 254 L-8 190 L559 190 L572 254 L6 254 Z " />
<glyph glyph-name="emdash" unicode="&#x2014;" horiz-adv-x="974" d="M6 254 L-8 190 L922 190 L935 254 L6 254 Z " />
<glyph glyph-name="afii00208" unicode="&#x2015;" horiz-adv-x="974" d="M6 254 L-8 190 L922 190 L935 254 L6 254 Z " />
<glyph glyph-name="quoteleft" unicode="&#x2018;" horiz-adv-x="367" d="M362 679 C215 675 99 565 99 429 C99 364 135 327 197 327 C262 327 318 377 318 436 C318 474 288 501 247 501 C239 501 231 500 223 498 C213 495 205 494 201 494 C191 494 184 502 184 511 C184 528 197 550 217 569 C250 599 295 616 350 620 L362 679 Z " />
<glyph glyph-name="quoteright" unicode="&#x2019;" horiz-adv-x="332" d="M61 328 C207 331 324 442 324 577 C324 642 288 679 226 679 C160 679 105 629 105 570 C105 533 135 505 172 505 C180 505 189 506 200 508 C218 511 221 512 223 512 C232 512 239 504 239 495 C239 445 160 392 73 386 L61 328 Z " />
<glyph glyph-name="quotesinglbase" unicode="&#x201a;" horiz-adv-x="369" d="M-33 -196 C117 -191 233 -82 233 53 C233 119 197 156 134 156 C67 156 11 106 11 47 C11 9 41 -18 84 -18 C92 -18 100 -17 108 -15 C118 -12 127 -11 131 -11 C141 -11 148 -18 148 -28 C148 -45 135 -67 115 -86 C83 -115 36 -133 -21 -137 L-33 -196 Z " />
<glyph glyph-name="quotedblleft" unicode="&#x201c;" horiz-adv-x="655" d="M356 679 C209 675 93 565 93 429 C93 364 129 327 191 327 C256 327 312 377 312 436 C312 474 282 501 241 501 C233 501 225 500 217 498 C207 495 199 494 195 494 C185 494 178 502 178 511 C178 528 191 550 211 569 C244 599 289 616 344 620 L356 679 Z M653 679 C506 675 390 565 390 429 C390 364 426 327 488 327 C553 327 609 377 609 436 C609 474 579 501 538 501 C530 501 522 500 514 498 C504 495 496 494 492 494 C482 494 475 501 475 511 C475 562 554 614 641 620 L653 679 Z " />
<glyph glyph-name="quotedblright" unicode="&#x201d;" horiz-adv-x="655" d="M71 328 C217 331 334 442 334 577 C334 642 298 679 236 679 C170 679 115 629 115 570 C115 533 145 505 182 505 C190 505 199 506 210 508 C228 511 231 512 233 512 C242 512 249 504 249 495 C249 445 170 392 83 386 L71 328 Z M371 328 C517 331 634 442 634 577 C634 642 599 679 536 679 C470 679 415 629 415 570 C415 534 445 505 482 505 C489 505 499 506 510 508 C528 511 532 512 533 512 C542 512 549 504 549 495 C549 445 469 392 383 386 L371 328 Z " />
<glyph glyph-name="quotedblbase" unicode="&#x201e;" horiz-adv-x="658" d="M-46 -196 C103 -192 220 -82 220 54 C220 118 183 156 121 156 C55 156 -3 104 -3 46 C-3 11 29 -18 67 -18 C75 -18 85 -17 95 -15 C100 -13 106 -12 107 -12 L116 -12 L120 -10 C126 -10 135 -20 135 -26 C135 -43 121 -68 101 -86 C70 -115 22 -133 -34 -137 L-46 -196 Z M253 -196 C402 -192 519 -82 519 54 C519 118 482 156 420 156 C355 156 297 104 297 46 C297 11 329 -18 366 -18 C375 -18 385 -17 394 -15 C400 -13 404 -13 406 -13 C411 -12 414 -12 415 -12 C418 -11 420 -10 420 -10 C426 -10 434 -19 434 -26 C434 -79 356 -130 266 -137 L253 -196 Z " />
<glyph glyph-name="dagger" unicode="&#x2020;" horiz-adv-x="588" d="M207 -245 L224 -166 C254 -40 270 19 294 92 C339 227 347 260 349 320 L349 325 C348 349 347 358 343 370 C358 367 359 366 382 357 C436 336 464 328 492 328 C544 328 583 367 583 418 C583 451 560 471 522 471 C496 471 461 463 422 450 C411 446 400 442 388 438 L377 434 C368 432 363 431 350 427 C412 520 440 581 440 622 C440 655 413 679 378 679 C312 679 272 632 272 554 C272 521 281 465 292 427 C279 429 274 430 257 437 C180 468 165 473 136 473 C85 473 47 433 47 378 C47 349 72 328 109 328 C133 328 169 336 225 355 C230 356 235 358 241 360 C249 363 255 365 258 365 C266 368 270 368 280 370 C245 328 224 262 215 167 C196 -6 195 -14 166 -164 L149 -245 L207 -245 Z " />
<glyph glyph-name="daggerdbl" unicode="&#x2021;" horiz-adv-x="611" d="M330 252 C335 269 339 277 350 298 C364 324 368 337 368 356 C368 375 365 388 356 408 C380 400 402 393 409 390 C465 369 480 365 507 365 C557 365 597 406 597 458 C597 492 573 513 535 513 C510 513 486 507 441 491 C417 483 402 477 397 476 C387 473 382 471 369 468 C375 481 379 488 398 519 C437 581 447 603 447 631 C447 661 423 679 383 679 C321 679 285 644 285 583 C285 566 287 552 293 529 C303 491 304 488 304 468 C290 471 285 473 266 480 C200 507 180 512 152 512 C102 512 61 471 61 421 C61 387 83 365 117 365 C135 365 175 373 203 382 C265 402 265 402 291 408 C263 372 250 345 250 326 C250 325 250 325 251 303 C253 281 253 281 253 274 C253 268 253 262 252 252 L330 252 Z M236 179 C229 159 226 152 214 128 C202 105 198 94 198 81 C198 64 202 45 210 23 C193 27 185 30 166 37 C103 60 80 66 54 66 C7 66 -34 24 -34 -25 C-34 -58 -11 -80 25 -80 C54 -80 76 -75 154 -48 C176 -41 182 -39 197 -36 C188 -56 185 -60 160 -97 C131 -139 118 -171 118 -197 C118 -229 143 -247 188 -247 C245 -247 278 -213 278 -154 C278 -140 277 -125 275 -115 C266 -72 262 -50 262 -36 C276 -40 287 -44 296 -48 C367 -77 379 -81 409 -81 C462 -81 503 -40 503 13 C503 45 479 66 444 66 C422 66 393 60 360 49 C342 43 330 39 325 38 C314 35 305 32 288 27 L275 23 C302 56 316 86 316 112 C316 116 316 124 315 133 C313 154 313 154 313 159 C313 164 313 169 315 179 L236 179 Z " />
<glyph glyph-name="bullet" unicode="&#x2022;" horiz-adv-x="733" d="M400 480 C303 480 214 400 214 313 C214 248 266 200 338 200 C433 200 522 280 522 367 C522 432 470 480 400 480 L400 480 Z " />
<glyph glyph-name="ellipsis" unicode="&#x2026;" horiz-adv-x="1108" d="M147 160 C84 160 27 109 27 54 C27 13 61 -18 106 -18 C169 -18 226 33 226 88 C226 129 192 160 147 160 L147 160 Z M514 160 C451 160 394 109 394 54 C394 13 428 -18 474 -18 C536 -18 594 33 594 88 C594 129 560 160 514 160 L514 160 Z M880 160 C817 160 760 109 760 54 C760 13 794 -18 840 -18 C902 -18 960 33 960 88 C960 129 926 160 880 160 L880 160 Z " />
<glyph glyph-name="perthousand" unicode="&#x2030;" horiz-adv-x="1278" d="M291 680 C218 680 166 656 121 601 C88 561 69 509 69 459 C69 379 120 333 209 333 C280 333 334 357 375 408 C408 449 427 500 427 550 C427 632 377 680 291 680 L291 680 Z M277 638 C307 638 321 620 321 581 C321 528 302 450 279 412 C264 387 246 375 222 375 C190 375 174 394 174 432 C174 466 193 551 207 584 C223 621 246 638 277 638 L277 638 Z M219 0 L738 668 L660 668 L141 0 L219 0 Z M673 334 C600 334 548 310 503 255 C470 215 451 163 451 113 C451 33 502 -13 591 -13 C662 -13 716 11 757 62 C790 103 809 154 809 204 C809 286 759 334 673 334 L673 334 Z M659 292 C689 292 703 274 703 235 C703 182 684 105 661 66 C646 41 628 29 604 29 C572 29 556 48 556 86 C556 120 574 205 589 238 C605 275 628 292 659 292 L659 292 Z M1072 334 C999 334 948 310 903 255 C870 215 851 163 851 113 C851 33 902 -13 991 -13 C1061 -13 1115 11 1156 62 C1189 103 1208 154 1208 204 C1208 286 1158 334 1072 334 L1072 334 Z M1059 292 C1088 292 1102 275 1102 236 C1102 178 1081 96 1058 61 C1042 39 1026 29 1003 29 C972 29 956 48 956 86 C956 120 975 205 989 238 C1005 275 1027 292 1059 292 L1059 292 Z " />
<glyph glyph-name="guilsinglleft" unicode="&#x2039;" horiz-adv-x="335" d="M1 217 L170 0 L232 0 L192 217 L323 433 L261 433 L1 217 Z " />
<glyph glyph-name="guilsinglright" unicode="&#x203a;" horiz-adv-x="335" d="M278 217 L110 433 L48 433 L87 217 L-45 0 L16 0 L278 217 Z " />
<glyph glyph-name="uni203E" unicode="&#x203e;" horiz-adv-x="500" d="M110 847 L101 807 L601 807 L610 847 L110 847 Z " />
<glyph glyph-name="fraction" unicode="&#x2044;" horiz-adv-x="196" d="M-122 0 L397 668 L319 668 L-200 0 L-122 0 Z " />
<glyph glyph-name="franc" unicode="&#x20a3;" horiz-adv-x="996" d="M716 667 L101 667 L89 613 L103 613 C161 613 185 598 185 560 C185 553 184 541 181 531 L97 136 C87 79 54 55 -16 55 L-27 55 L-39 0 L356 0 L368 55 L351 55 C298 55 268 73 268 106 C268 114 269 126 272 136 L310 318 L372 318 C424 318 438 306 438 264 C438 254 437 245 436 237 L435 231 L496 231 L545 460 L484 460 L482 453 C464 394 445 379 386 378 L323 378 L372 608 L499 608 C585 609 609 586 622 490 L683 490 L716 667 Z M746 369 L687 357 L615 344 L560 333 L551 332 L541 284 L545 284 C587 284 604 272 604 244 C604 234 604 231 602 225 L577 107 C567 62 549 49 497 48 L492 48 L482 0 L781 0 L791 48 L780 48 C738 48 721 59 721 88 C721 96 721 101 723 107 L729 137 C750 234 781 279 827 279 C840 279 851 273 861 261 C882 235 890 231 914 231 C959 231 996 267 996 310 C996 347 968 371 925 371 C863 371 804 339 753 279 C758 306 760 325 760 345 C760 355 760 361 759 371 L746 369 Z " />
<glyph glyph-name="Euro" unicode="&#x20ac;" horiz-adv-x="865" d="M323 390 C337 436 351 472 365 495 C410 573 483 615 571 615 C690 615 757 545 767 412 L826 412 L871 658 L812 658 C798 632 789 617 776 599 C723 654 657 679 565 679 C371 679 205 568 130 390 L80 390 L42 335 L113 335 C112 331 109 316 107 306 L62 306 L24 251 L104 251 C107 92 230 -14 414 -14 C508 -14 608 18 673 70 C683 54 688 35 690 6 L750 6 L803 256 L743 256 C710 190 664 132 623 104 C572 70 510 51 452 51 C354 51 292 108 292 197 C292 211 293 228 295 251 L536 251 L574 306 L303 306 L304 309 C308 327 308 327 308 328 L309 335 L593 335 L631 390 L323 390 Z " />
<glyph glyph-name="trademark" unicode="&#x2122;" horiz-adv-x="1072" d="M465 563 L488 667 L86 667 L64 563 L86 563 C102 619 132 641 192 641 L221 641 L159 347 C152 314 142 308 102 306 L86 306 L82 287 L330 287 L335 306 L318 306 C289 306 277 312 277 328 C277 334 278 341 279 347 L342 641 L370 641 C422 641 445 623 445 582 C445 577 445 573 443 563 L465 563 Z M502 667 L498 648 C540 647 550 644 550 632 C550 625 550 624 549 620 L491 347 C486 319 469 308 427 306 L423 287 L568 287 L572 306 C538 308 523 317 523 334 C523 339 523 343 524 347 L579 605 L665 287 L686 287 L912 595 L859 347 C852 314 844 308 804 306 L787 306 L783 287 L1024 287 L1028 306 L1012 306 C985 306 974 312 974 327 C974 331 975 340 977 347 L1032 607 C1039 640 1047 646 1084 648 L1104 648 L1108 667 L924 667 L759 447 L701 667 L502 667 Z " />
<glyph glyph-name="uni2126" unicode="&#x2126;" horiz-adv-x="768" d="M326 0 L308 155 C230 199 180 288 180 383 C180 434 196 493 221 540 C257 605 316 642 385 642 C454 642 513 605 549 540 C575 493 590 435 590 381 C590 288 540 199 462 155 L444 0 L736 0 L736 153 L712 153 C704 108 684 90 643 90 L497 90 L500 128 C535 141 557 151 580 166 C657 215 702 296 702 382 C702 449 673 522 625 578 C564 648 480 686 385 686 C290 686 206 648 145 578 C97 522 68 448 68 382 C68 296 114 215 190 166 C213 151 234 141 270 128 L273 90 L127 90 C86 90 66 108 58 153 L34 153 L34 0 L326 0 Z " />
<glyph glyph-name="partialdiff" unicode="&#x2202;" horiz-adv-x="494" d="M107 674 C152 697 184 706 219 706 C321 706 379 611 379 448 C379 418 377 395 372 346 C308 396 272 412 221 412 C172 412 131 394 95 355 C51 309 26 246 26 184 C26 76 109 -10 213 -10 C282 -10 341 23 383 84 C429 152 462 286 462 403 C462 519 428 611 360 681 C312 730 259 753 194 753 C155 753 121 746 66 725 L107 674 Z M366 312 C350 201 340 158 314 107 C288 54 245 21 201 21 C147 21 113 74 113 159 C113 273 180 367 261 367 C299 367 324 354 366 312 L366 312 Z " />
<glyph glyph-name="Delta" unicode="&#x2206;" horiz-adv-x="612" d="M6 0 L608 0 L327 688 L6 0 Z M77 51 L290 509 L479 51 L77 51 Z " />
<glyph glyph-name="product" unicode="&#x220f;" horiz-adv-x="823" d="M25 -124 L315 -124 L315 -98 L312 -98 C242 -94 221 -67 224 18 L224 594 C224 656 228 677 242 690 C260 707 271 708 413 708 C557 708 567 707 586 690 C600 677 604 656 604 594 L604 18 C607 -67 586 -94 516 -98 L513 -98 L513 -124 L803 -124 L803 -98 L800 -98 C730 -94 709 -67 712 18 L712 609 C709 694 730 721 800 725 L803 725 L803 751 L25 751 L25 725 L28 725 C98 721 119 694 116 609 L116 18 C119 -67 98 -94 28 -98 L25 -98 L25 -124 Z " />
<glyph glyph-name="summation" unicode="&#x2211;" horiz-adv-x="713" d="M176 711 L444 711 C560 710 590 688 606 587 L632 587 L622 752 L23 752 L256 285 L14 -123 L641 -123 L695 87 L669 87 C639 7 605 -12 491 -11 L163 -11 L364 341 L176 711 Z " />
<glyph glyph-name="minus" unicode="&#x2212;" horiz-adv-x="550" d="M19 414 L0 325 L546 325 L565 414 L19 414 Z " />
<glyph glyph-name="uni2215" unicode="&#x2215;" horiz-adv-x="196" d="M-122 0 L397 668 L319 668 L-200 0 L-122 0 Z " />
<glyph glyph-name="uni2219" unicode="&#x2219;" horiz-adv-x="323" d="M174 422 C111 422 54 371 54 315 C54 274 88 243 134 243 C196 243 253 294 253 349 C253 391 219 422 174 422 L174 422 Z " />
<glyph glyph-name="radical" unicode="&#x221a;" horiz-adv-x="549" d="M363 -35 L515 908 L480 913 L353 123 L156 520 L10 449 L26 414 L121 461 L363 -35 Z " />
<glyph glyph-name="infinity" unicode="&#x221e;" horiz-adv-x="713" d="M357 303 C300 375 234 414 171 414 C87 414 26 351 26 263 C26 176 84 115 167 115 C224 115 282 143 327 192 C335 201 340 207 357 228 C415 156 485 115 549 115 C631 115 688 176 688 266 C688 354 629 414 543 414 C476 414 412 376 357 303 L357 303 Z M391 265 C434 325 493 362 546 362 C600 362 638 321 638 264 C638 205 603 167 549 167 C495 167 461 188 391 265 L391 265 Z M324 266 C275 203 216 167 163 167 C111 167 76 208 76 266 C76 323 113 362 167 362 C218 362 259 337 324 266 L324 266 Z " />
<glyph glyph-name="integral" unicode="&#x222b;" horiz-adv-x="274" d="M180 576 C180 653 179 691 176 746 C174 774 173 800 173 815 C173 855 184 878 202 878 C208 878 213 876 215 872 C232 845 239 839 256 839 C276 839 291 853 291 871 C291 898 267 916 231 916 C186 916 152 887 138 838 C123 784 113 682 113 577 L113 232 C113 160 114 124 117 63 C119 34 120 4 120 -12 C120 -47 108 -70 89 -70 C81 -70 75 -65 68 -52 C59 -35 51 -30 37 -30 C17 -30 2 -44 2 -63 C2 -89 26 -107 62 -107 C107 -107 141 -79 155 -29 C170 25 180 126 180 232 L180 576 Z " />
<glyph glyph-name="approxequal" unicode="&#x2248;" horiz-adv-x="549" d="M489 251 C444 199 423 187 384 187 C365 187 354 190 285 211 C212 234 188 239 160 239 C101 239 54 212 14 155 L57 121 C103 174 120 184 159 184 C180 184 180 184 271 157 C350 133 354 132 385 132 C449 132 496 160 527 217 L489 251 Z M489 408 C443 356 424 344 384 344 C365 344 354 347 285 369 C211 392 188 397 160 397 C101 397 54 369 14 312 L57 279 C104 332 119 342 159 342 C181 342 181 342 271 315 C351 290 354 289 385 289 C449 289 496 318 527 375 L489 408 Z " />
<glyph glyph-name="notequal" unicode="&#x2260;" horiz-adv-x="549" d="M187 142 L115 -1 L161 -25 L246 142 L540 142 L540 197 L273 197 L344 336 L540 336 L540 391 L371 391 L439 525 L392 549 L312 391 L15 391 L15 336 L285 336 L215 197 L15 197 L15 142 L187 142 Z " />
<glyph glyph-name="lessequal" unicode="&#x2264;" horiz-adv-x="549" d="M467 55 L-30 55 L-42 0 L455 0 L467 55 Z M591 639 L44 405 L32 350 L480 117 L493 179 L117 378 L578 577 L591 639 Z " />
<glyph glyph-name="greaterequal" unicode="&#x2265;" horiz-adv-x="549" d="M467 55 L-30 55 L-42 0 L455 0 L467 55 Z M94 639 L81 577 L457 378 L-4 179 L-17 117 L529 350 L541 405 L94 639 Z " />
<glyph glyph-name="lozenge" unicode="&#x25ca;" horiz-adv-x="494" d="M209 0 L269 -1 L466 374 L277 740 L214 740 L18 377 L209 0 Z M240 58 L81 376 L245 683 L402 373 L240 58 Z " />
<glyph glyph-name="fi" unicode="&#xfb01;" horiz-adv-x="724" d="M19 350 L103 350 L54 117 C42 67 25 54 -31 52 L-44 52 L-55 0 L274 0 L285 52 L282 52 C242 52 225 64 225 94 C225 104 225 109 227 117 L276 350 L379 350 C438 350 455 341 455 308 C455 303 454 296 453 290 L416 117 C404 67 386 53 332 52 L327 52 L316 0 L642 0 L653 52 L638 52 C592 52 573 65 573 96 C573 102 574 110 575 117 L639 415 L633 415 C593 407 524 403 437 403 L288 403 L305 483 C318 544 326 569 341 588 C359 611 390 624 426 624 C468 624 486 610 494 569 C504 525 521 508 556 508 C607 508 657 549 657 591 C657 610 643 632 621 647 C589 668 533 679 456 679 C377 679 319 667 264 640 C186 600 143 539 121 436 L114 403 L31 403 L19 350 Z " />
<glyph glyph-name="fl" unicode="&#xfb02;" horiz-adv-x="723" d="M116 403 L32 403 L20 350 L104 350 L55 117 C43 67 26 54 -30 52 L-43 52 L-54 0 L275 0 L286 52 L283 52 C243 52 226 64 226 93 C226 102 227 109 228 117 L278 350 L465 350 L415 117 C404 69 385 54 331 52 L327 52 L316 0 L641 0 L652 52 L637 52 C591 52 572 65 572 96 C572 103 573 110 574 117 L694 679 L691 679 L685 678 L687 679 C627 668 617 666 584 664 C552 674 510 679 468 679 C361 679 274 655 218 609 C171 571 138 510 120 422 L116 403 Z M289 403 L309 494 C319 541 327 562 342 584 C360 608 394 623 432 623 C467 623 496 607 504 585 C507 575 509 570 509 569 C510 568 510 567 511 567 L476 403 L289 403 Z " />
</font>
</svg>
