<?xml version="1.0" encoding="UTF-8"?>
<svg xmlns="http://www.w3.org/2000/svg" xmlns:xlink="http://www.w3.org/1999/xlink" version="1.2" >
<font id="Baskerville URW Narrow Extra Bold">
<font-face  font-family="Baskerville URW Narrow" units-per-em="1000" ascent="679" descent="-321" font-style="normal" font-weight="800" font-stretch="semi-condensed" cap-height="665" x-height="403" underline-position="-94" underline-thickness="89" />
<missing-glyph  horiz-adv-x="250" d="" />
<glyph glyph-name="NULL" d="" />
<glyph glyph-name="CR" unicode="&#xd;" horiz-adv-x="250" d="" />
<glyph glyph-name="space" unicode="&#x20;" horiz-adv-x="250" d="" />
<glyph glyph-name="exclam" unicode="&#x21;" horiz-adv-x="319" d="M185 220 L229 557 C232 580 234 601 234 611 C234 656 209 679 162 679 C110 679 85 657 85 611 C85 598 87 576 90 554 L133 220 L185 220 Z M159 160 C112 160 74 120 74 71 C74 23 112 -18 157 -18 C205 -18 243 21 243 71 C243 120 205 160 159 160 L159 160 Z " />
<glyph glyph-name="quotedbl" unicode="&#x22;" horiz-adv-x="469" d="M151 399 L200 667 L33 667 L81 399 L151 399 Z M387 399 L435 667 L269 667 L316 399 L387 399 Z " />
<glyph glyph-name="numbersign" unicode="&#x23;" horiz-adv-x="545" d="M364 227 L465 227 L476 293 L382 293 L407 388 L509 388 L519 454 L425 454 L482 667 L411 667 L354 454 L261 454 L318 667 L249 667 L192 454 L81 454 L71 388 L174 388 L148 293 L37 293 L26 227 L131 227 L70 0 L139 0 L200 227 L293 227 L232 0 L303 0 L364 227 Z M336 388 L311 293 L218 293 L243 388 L336 388 Z " />
<glyph glyph-name="dollar" unicode="&#x24;" horiz-adv-x="518" d="M277 -133 L277 -13 C396 1 473 81 473 190 C473 275 421 342 318 389 L288 403 C284 405 282 406 277 408 L277 594 C312 587 325 575 338 540 C352 500 352 500 364 488 C374 477 388 471 400 471 C427 471 451 497 451 526 C451 591 372 646 277 649 L277 679 L221 679 L221 647 C176 639 148 628 122 608 C83 579 56 522 56 466 C56 413 78 365 121 326 C140 309 154 300 207 274 L221 267 L221 43 C194 51 179 65 162 101 C144 139 131 150 104 150 C73 150 50 127 50 95 C50 36 113 -5 221 -15 L221 -133 L277 -133 Z M277 240 C283 235 283 235 305 222 C340 198 356 171 356 132 C356 82 331 53 277 42 L277 240 Z M221 432 C219 433 219 434 217 434 C181 450 157 484 157 519 C157 554 177 580 212 590 C217 591 220 593 221 594 L221 432 Z " />
<glyph glyph-name="percent" unicode="&#x25;" horiz-adv-x="749" d="M180 680 C139 680 105 668 82 645 C48 612 27 559 27 505 C27 398 84 333 176 333 C268 333 327 401 327 508 C327 612 269 680 180 680 L180 680 Z M178 638 C205 638 217 597 217 507 C217 418 204 374 178 374 C147 374 137 410 137 524 C137 602 150 638 178 638 L178 638 Z M245 0 L570 668 L503 668 L177 0 L245 0 Z M573 334 C533 334 499 322 475 299 C441 266 420 213 420 158 C420 53 477 -13 568 -13 C609 -13 645 -1 669 22 C700 51 721 106 721 162 C721 267 663 334 573 334 L573 334 Z M530 191 C529 255 544 292 572 292 C598 292 611 250 611 162 C611 72 598 29 571 29 C561 29 550 36 545 46 C533 69 531 87 530 175 L530 191 Z " />
<glyph glyph-name="ampersand" unicode="&#x26;" horiz-adv-x="737" d="M407 293 L340 388 C405 424 439 474 439 533 C439 606 383 654 297 654 C201 654 142 597 142 502 C142 460 151 430 182 376 C185 369 186 368 188 364 C92 306 44 240 44 165 C44 68 127 -14 226 -14 C288 -14 338 7 408 60 C456 11 505 -13 562 -13 C615 -13 666 12 689 49 C705 75 712 103 713 145 L661 145 C655 96 640 76 608 76 C579 76 554 96 515 146 C511 152 510 154 503 162 C523 187 541 215 565 255 C610 327 629 344 674 354 L674 407 L476 407 L476 354 C491 353 498 351 505 347 C511 343 519 330 519 324 L519 323 L518 319 L518 315 C519 299 499 259 466 211 L407 293 Z M368 105 C349 87 327 77 303 77 C244 77 184 156 184 235 C184 263 197 291 220 312 L225 305 L252 268 L288 216 L328 161 L365 109 L368 105 Z M308 439 C269 485 252 518 252 548 C252 577 273 597 304 597 C341 597 368 568 368 528 C368 494 350 467 308 439 L308 439 Z " />
<glyph glyph-name="quotesingle" unicode="&#x27;" horiz-adv-x="258" d="M168 399 L216 667 L43 667 L91 399 L168 399 Z " />
<glyph glyph-name="parenleft" unicode="&#x28;" horiz-adv-x="329" d="M306 -245 C269 -183 246 -138 229 -98 C191 -4 171 103 171 217 C171 348 198 474 248 577 C260 601 277 631 306 679 L233 679 C142 558 91 392 91 216 C91 43 136 -104 233 -245 L306 -245 Z " />
<glyph glyph-name="parenright" unicode="&#x29;" horiz-adv-x="329" d="M97 -245 C194 -101 238 43 238 216 C238 393 187 559 97 679 L24 679 C51 634 68 604 81 577 C131 473 158 348 158 217 C158 104 138 -5 100 -98 C84 -137 61 -182 24 -245 L97 -245 Z " />
<glyph glyph-name="asterisk" unicode="&#x2a;" horiz-adv-x="508" d="M253 385 C268 366 275 350 281 326 C294 261 295 258 303 242 C315 220 331 208 350 208 C386 208 421 241 421 276 C421 305 408 319 352 353 C323 369 300 390 287 412 C303 420 317 423 340 423 C353 423 370 422 386 420 C398 419 411 418 416 418 C455 418 481 443 481 479 C481 519 454 552 421 552 C402 552 384 543 364 524 C319 480 302 467 275 458 C273 466 273 470 273 475 C273 493 280 520 294 555 C310 595 312 603 312 621 C312 656 288 679 251 679 C214 679 189 656 189 622 C189 611 191 599 195 589 C226 510 230 499 230 479 C230 472 230 468 228 458 C211 460 190 474 152 509 C118 540 103 549 80 549 C50 549 23 515 23 477 C23 438 49 416 94 416 C101 416 108 416 114 417 C147 421 147 421 159 421 C187 421 203 418 216 412 C205 390 188 376 144 349 C98 321 82 302 82 275 C82 240 116 208 153 208 C186 208 205 234 216 291 C225 341 237 371 253 385 L253 385 Z " />
<glyph glyph-name="plus" unicode="&#x2b;" horiz-adv-x="475" d="M2 414 L2 325 L190 325 L190 120 L283 120 L283 325 L473 325 L473 414 L283 414 L283 617 L190 617 L190 414 L2 414 Z " />
<glyph glyph-name="comma" unicode="&#x2c;" horiz-adv-x="319" d="M64 -200 C177 -195 255 -111 255 8 C255 99 213 156 147 156 C95 156 59 119 59 64 C59 18 89 -18 129 -18 C135 -18 141 -17 147 -15 C161 -11 161 -11 165 -11 C176 -11 183 -20 183 -34 C183 -89 134 -133 64 -142 L64 -200 Z " />
<glyph glyph-name="hyphen" unicode="&#x2d;" horiz-adv-x="329" d="M29 254 L29 180 L305 180 L305 254 L29 254 Z " />
<glyph glyph-name="period" unicode="&#x2e;" horiz-adv-x="319" d="M159 160 C112 160 74 120 74 71 C74 23 112 -18 157 -18 C205 -18 243 21 243 71 C243 120 205 160 159 160 L159 160 Z " />
<glyph glyph-name="slash" unicode="&#x2f;" horiz-adv-x="329" d="M304 694 L199 694 L-16 -267 L87 -267 L304 694 Z " />
<glyph glyph-name="zero" unicode="0" horiz-adv-x="518" d="M257 677 C186 677 123 638 84 570 C53 517 35 428 35 328 C35 225 50 152 86 90 C121 27 189 -14 255 -14 C338 -14 404 32 444 118 C469 173 480 238 480 334 C480 441 466 510 430 571 C392 638 328 677 257 677 L257 677 Z M320 333 L320 255 L320 235 L320 228 L320 212 C320 148 315 104 308 84 C298 58 280 44 258 44 C233 44 217 62 208 100 C200 130 195 231 195 336 C195 560 209 621 259 621 C280 621 297 607 308 583 C317 559 320 524 320 422 L320 333 Z " />
<glyph glyph-name="one" unicode="1" horiz-adv-x="518" d="M99 567 L108 567 C174 564 184 554 185 488 L185 114 C183 70 170 56 130 55 L108 55 L108 0 L421 0 L421 55 L399 55 C354 57 344 71 345 128 L345 679 L293 679 C243 641 187 624 99 620 L99 567 Z " />
<glyph glyph-name="two" unicode="2" horiz-adv-x="518" d="M56 0 L365 0 C392 0 400 -5 400 -21 L400 -27 L398 -37 L397 -40 L447 -40 L471 100 L203 100 C241 141 261 163 310 221 C441 374 465 417 465 491 C465 603 383 677 259 677 C147 677 54 607 54 522 C54 497 63 455 73 436 C75 432 81 428 85 428 C91 428 98 430 106 435 L107 436 C112 438 117 440 122 443 C123 443 130 447 140 452 C140 452 149 457 157 461 C164 464 167 467 167 471 C167 473 166 477 164 481 C158 492 154 518 154 537 C154 583 184 617 224 617 C270 617 300 570 300 498 C300 407 269 322 198 215 C158 156 113 102 56 46 L56 0 Z " />
<glyph glyph-name="three" unicode="3" horiz-adv-x="518" d="M315 394 L314 393 L331 404 C411 465 411 465 417 473 C437 503 446 527 446 554 C446 626 373 677 271 677 C150 677 54 608 54 521 C54 484 70 454 89 454 C93 454 96 455 98 456 L105 460 C107 461 110 462 111 463 L122 465 C122 465 127 468 134 471 C136 472 139 474 144 476 C180 491 181 492 173 508 C162 524 158 536 158 550 C158 586 189 617 226 617 C267 617 293 583 293 530 C293 470 261 417 197 373 C170 355 158 340 158 327 C158 310 170 295 183 295 C193 295 201 300 214 315 C227 330 236 335 251 335 C287 335 298 303 298 197 C298 149 291 112 278 88 C261 60 232 42 201 42 C174 42 159 55 147 89 C131 136 116 151 86 151 C54 151 28 123 28 90 C28 28 94 -14 189 -14 C345 -14 462 88 462 226 C462 299 434 350 380 376 C366 382 332 391 322 391 C318 391 318 391 317 392 L315 394 Z " />
<glyph glyph-name="four" unicode="4" horiz-adv-x="518" d="M242 228 L242 125 C242 70 231 57 183 55 L161 55 L161 0 L481 0 L481 55 L458 55 C413 57 400 74 402 129 L402 228 L482 228 L494 322 L465 322 L461 313 C453 297 451 297 436 296 L434 296 L424 296 L414 296 L402 296 L402 674 L317 674 L32 302 L32 228 L242 228 Z M242 296 L92 296 L242 494 L242 296 Z " />
<glyph glyph-name="five" unicode="5" horiz-adv-x="518" d="M142 336 C161 374 179 388 210 388 C237 388 262 375 273 354 C287 329 292 297 292 228 C292 155 285 109 269 81 C256 58 233 44 207 44 C181 44 157 60 144 86 C122 135 109 148 82 148 C52 148 26 120 26 88 C26 31 101 -14 197 -14 C266 -14 335 10 383 52 C433 97 459 157 459 231 C459 292 440 346 405 383 C366 424 309 449 253 449 C207 449 167 435 138 409 L142 565 L315 565 L334 565 L340 565 C364 562 374 575 402 647 C405 655 406 658 410 668 L94 668 L84 336 L142 336 Z " />
<glyph glyph-name="six" unicode="6" horiz-adv-x="518" d="M208 401 C208 465 225 537 252 585 C263 605 285 618 307 618 C329 618 345 608 359 586 C379 554 397 541 419 541 C448 541 473 567 473 598 C473 643 418 677 347 677 C169 677 48 516 48 280 C48 205 61 146 88 98 C128 28 197 -14 274 -14 C397 -14 487 83 487 214 C487 341 414 421 298 421 C258 421 231 415 208 401 L208 401 Z M333 162 C333 78 315 42 273 42 C246 42 229 56 217 87 C208 111 202 178 202 264 C202 331 224 368 264 368 C300 368 320 343 328 288 C331 270 331 270 333 181 L333 162 Z " />
<glyph glyph-name="seven" unicode="7" horiz-adv-x="518" d="M477 668 L183 668 C162 668 156 672 156 684 C156 687 156 690 158 695 L107 695 L44 492 C58 491 75 490 83 490 C86 490 88 490 89 492 L92 494 C93 494 95 493 95 492 C95 492 96 495 97 497 C105 535 120 545 163 544 L380 544 L186 137 L185 134 L179 121 C159 76 154 59 154 44 C154 11 182 -14 219 -14 C258 -14 280 11 300 76 L477 668 Z " />
<glyph glyph-name="eight" unicode="8" horiz-adv-x="518" d="M333 356 C423 382 467 433 467 511 C467 614 386 681 261 681 C135 681 54 615 54 510 C54 429 102 376 193 356 C147 347 121 337 94 316 C58 288 37 238 37 181 C37 129 53 85 81 54 C120 12 190 -14 260 -14 C395 -14 484 63 484 179 C484 281 438 335 333 356 L333 356 Z M263 626 C297 626 311 589 311 501 C311 415 297 379 262 379 C223 379 209 415 209 515 C209 589 227 626 263 626 L263 626 Z M261 325 C306 325 321 289 321 181 C321 77 306 41 261 41 C213 41 198 81 198 209 C198 288 218 325 261 325 L261 325 Z " />
<glyph glyph-name="nine" unicode="9" horiz-adv-x="518" d="M327 260 C321 186 312 133 300 106 C284 67 257 45 226 45 C205 45 189 55 174 76 C150 110 138 118 114 118 C84 118 60 94 60 64 C60 18 111 -14 187 -14 C366 -14 482 142 482 384 C482 462 469 520 441 569 C402 638 337 677 260 677 C136 677 46 581 46 447 C46 321 126 234 242 234 C275 234 298 241 327 260 L327 260 Z M264 622 C281 622 298 613 305 599 C318 575 331 509 331 466 C331 405 323 339 314 318 C307 303 289 293 269 293 C243 293 225 306 214 334 C205 360 202 391 202 483 C202 550 205 575 218 596 C227 612 245 622 264 622 L264 622 Z " />
<glyph glyph-name="colon" unicode="&#x3a;" horiz-adv-x="319" d="M161 160 C114 160 76 120 76 71 C76 23 114 -18 159 -18 C207 -18 245 21 245 71 C245 120 207 160 161 160 L161 160 Z M161 418 C115 418 76 378 76 331 C76 281 113 241 161 241 C207 241 245 281 245 330 C245 379 207 418 161 418 L161 418 Z " />
<glyph glyph-name="semicolon" unicode="&#x3b;" horiz-adv-x="319" d="M64 -200 C177 -195 255 -111 255 8 C255 99 213 156 147 156 C95 156 59 119 59 64 C59 18 89 -18 129 -18 C135 -18 141 -17 147 -15 C161 -11 161 -11 165 -11 C176 -11 183 -20 183 -34 C183 -89 134 -133 64 -142 L64 -200 Z M159 419 C112 419 74 379 74 330 C74 282 112 241 157 241 C205 241 243 280 243 330 C243 379 205 419 159 419 L159 419 Z " />
<glyph glyph-name="less" unicode="&#x3c;" horiz-adv-x="475" d="M439 644 L35 381 L35 372 L439 78 L439 278 L228 431 L439 569 L439 644 Z " />
<glyph glyph-name="equal" unicode="&#x3d;" horiz-adv-x="495" d="M2 490 L2 403 L494 403 L494 490 L2 490 Z M12 335 L12 248 L484 248 L484 335 L12 335 Z " />
<glyph glyph-name="greater" unicode="&#x3e;" horiz-adv-x="475" d="M36 78 L440 341 L440 350 L36 644 L36 444 L247 291 L36 153 L36 78 Z " />
<glyph glyph-name="question" unicode="&#x3f;" horiz-adv-x="458" d="M166 160 C119 160 82 120 82 71 C82 23 120 -18 165 -18 C213 -18 250 21 250 71 C250 120 213 160 166 160 L166 160 Z M135 222 L196 222 L196 312 C218 305 235 302 255 302 C349 302 418 377 418 480 C418 598 333 679 210 679 C114 679 38 630 38 569 C38 544 62 522 88 522 C113 522 131 539 139 571 C146 596 147 600 154 608 C161 617 176 623 190 623 C235 623 261 567 261 469 C261 405 242 368 211 368 C199 368 189 374 182 385 L135 385 L135 222 Z " />
<glyph glyph-name="at" unicode="&#x40;" horiz-adv-x="749" d="M474 481 C449 512 421 526 383 526 C343 526 310 511 276 477 C222 423 189 346 189 272 C189 198 240 137 302 137 C332 137 346 142 383 167 C389 171 391 173 394 176 L402 185 L407 184 L407 186 C425 154 445 141 476 141 C587 141 689 261 689 393 C689 551 557 677 391 677 C207 677 60 525 60 334 C60 143 207 -10 389 -10 C510 -10 618 58 677 172 L618 173 C564 91 483 45 392 45 C238 45 114 175 114 337 C114 499 235 625 391 625 C527 625 637 520 637 390 C637 336 616 280 580 239 C553 209 523 189 502 189 C492 189 482 199 482 210 C482 214 483 221 485 229 C486 230 487 233 488 237 C490 245 492 253 493 256 L571 513 C541 511 523 511 484 511 L474 481 Z M417 309 C402 263 392 236 386 226 C367 195 344 179 322 179 C296 179 279 200 279 231 C279 287 302 365 337 428 C356 463 382 483 409 483 C432 483 451 461 451 434 L451 431 L451 429 L450 427 C450 418 448 408 445 400 L417 309 Z " />
<glyph glyph-name="A" unicode="A" horiz-adv-x="622" d="M634 0 L634 55 L629 55 C585 60 569 78 535 162 L336 679 L282 679 L97 188 L93 177 C65 99 32 60 -7 55 L-13 55 L-13 0 L196 0 L196 55 L189 55 C154 55 130 70 130 92 C130 104 135 126 145 153 L155 180 L350 180 L369 131 C378 108 383 91 383 83 C383 64 364 55 325 55 L320 55 L320 0 L634 0 Z M329 236 L175 236 L250 436 L329 236 Z " />
<glyph glyph-name="B" unicode="B" horiz-adv-x="652" d="M26 663 L26 609 L32 609 C85 608 101 590 103 527 L103 136 C104 77 85 56 32 55 L26 55 L26 0 L360 0 C440 0 491 10 537 34 C585 60 616 115 616 176 C616 236 588 286 534 319 C506 336 480 346 431 355 C537 384 588 435 588 510 C588 562 561 609 517 634 C471 661 412 671 308 671 C274 671 274 671 157 667 L26 663 Z M277 324 L286 324 C352 324 372 320 390 302 C414 277 424 239 424 171 C424 135 420 115 410 97 C396 73 369 59 336 59 C288 59 277 77 277 150 L277 324 Z M277 383 L277 613 C302 613 319 612 335 608 C381 597 399 567 399 498 C399 456 391 427 375 409 C357 388 341 383 291 383 L279 383 L277 383 Z " />
<glyph glyph-name="C" unicode="C" horiz-adv-x="704" d="M598 256 C591 224 578 186 563 155 C534 94 468 51 402 51 C347 51 295 80 270 125 C246 167 235 229 235 328 C235 433 246 496 273 543 C299 590 343 615 398 615 C494 615 561 544 590 412 L641 412 L635 658 L584 658 C583 656 583 656 583 654 C578 634 572 618 564 599 C509 654 447 679 367 679 C179 679 39 529 39 328 C39 131 176 -14 363 -14 C445 -14 524 18 571 70 C583 54 591 35 598 6 L650 6 L650 256 L598 256 Z " />
<glyph glyph-name="D" unicode="D" horiz-adv-x="756" d="M26 613 L33 613 C86 612 101 594 103 531 L103 136 C104 76 86 56 33 55 L26 55 L26 0 L255 0 C420 1 457 4 504 19 C636 63 716 180 716 330 C716 455 656 566 562 617 C487 658 399 673 237 673 C196 673 139 672 88 670 L81 670 C70 670 67 670 52 669 C35 668 32 668 26 667 L26 613 Z M277 615 C281 616 286 616 292 616 C360 616 401 603 439 570 C491 523 517 445 517 331 C517 227 497 147 460 105 C436 77 389 59 342 59 C316 59 297 68 287 86 C279 101 277 114 277 156 L277 615 Z " />
<glyph glyph-name="E" unicode="E" horiz-adv-x="638" d="M558 219 C528 99 485 57 392 59 L376 59 C299 60 279 80 283 154 L283 319 L343 319 C395 318 410 301 411 243 L411 235 L463 235 L463 461 L411 461 L411 455 C408 394 394 379 341 378 L283 378 L283 608 L399 608 C471 609 491 590 523 494 L575 494 L566 667 L26 667 L26 613 L37 613 C91 611 108 591 109 531 L109 136 C111 79 90 55 37 55 L26 55 L26 0 L606 0 L610 219 L558 219 Z " />
<glyph glyph-name="F" unicode="F" horiz-adv-x="568" d="M557 667 L26 667 L26 613 L37 613 C92 611 107 595 109 531 L109 136 C108 75 92 57 37 55 L28 55 L28 0 L369 0 L369 55 L356 55 C303 55 282 79 283 136 L283 318 L330 318 C379 316 389 304 394 237 L395 231 L447 231 L447 460 L395 460 L394 453 C389 392 378 379 331 378 L283 378 L283 608 L381 608 C455 609 479 587 508 490 L561 490 L557 667 Z " />
<glyph glyph-name="G" unicode="G" horiz-adv-x="748" d="M435 308 L435 254 L442 253 C490 248 506 232 508 190 L508 166 C508 125 503 107 485 86 C464 62 431 49 390 49 C286 49 241 125 241 301 C241 413 254 494 281 542 C304 584 352 609 406 609 C496 609 557 552 588 439 L642 439 L636 672 L584 672 C582 646 576 625 564 602 C506 654 442 679 367 679 C184 679 39 523 39 326 C39 132 179 -14 366 -14 C407 -14 441 -9 522 10 C575 22 626 29 658 29 C663 29 669 29 679 28 L679 168 C680 231 685 241 723 252 L731 254 L731 308 L435 308 Z " />
<glyph glyph-name="H" unicode="H" horiz-adv-x="810" d="M530 319 L530 136 C532 78 511 54 458 55 L454 31 L454 0 L784 0 L784 55 L777 55 C723 55 703 78 704 136 L704 531 C706 594 721 610 777 612 L784 612 L784 667 L454 667 L454 612 L458 612 C506 614 530 587 530 531 L530 381 L279 381 L279 531 C281 593 297 611 351 612 L356 612 L356 667 L26 667 L26 612 L33 612 C86 612 103 593 105 531 L105 136 C107 79 85 55 33 55 L26 55 L26 0 L356 0 L356 55 L351 55 C299 55 277 79 279 136 L279 319 L530 319 Z " />
<glyph glyph-name="I" unicode="I" horiz-adv-x="387" d="M26 612 L33 612 C88 611 103 594 105 531 L105 136 C104 75 88 57 33 55 L26 55 L26 0 L361 0 L361 55 L352 55 C296 57 280 75 279 136 L279 531 C281 594 296 611 352 612 L361 612 L361 667 L26 667 L26 612 Z " />
<glyph glyph-name="J" unicode="J" horiz-adv-x="386" d="M26 667 L26 612 L42 612 C97 611 112 594 114 531 L114 8 C114 -136 98 -183 48 -183 C29 -183 21 -178 19 -161 C18 -157 17 -154 17 -153 C14 -145 14 -145 14 -141 C14 -139 14 -137 15 -135 C17 -121 17 -121 17 -119 C17 -91 -15 -66 -53 -66 C-100 -66 -135 -97 -135 -139 C-135 -198 -68 -237 34 -237 C137 -237 219 -198 256 -132 C280 -89 288 -42 288 53 L288 531 C290 594 305 611 360 612 L368 612 L368 667 L26 667 Z " />
<glyph glyph-name="K" unicode="K" horiz-adv-x="758" d="M282 345 L282 531 C284 594 299 611 355 612 L364 612 L364 667 L26 667 L26 612 L36 612 C91 611 106 594 108 531 L108 136 C107 75 91 57 36 55 L26 55 L26 0 L357 0 L357 55 L355 55 C299 56 283 74 282 136 L282 264 L344 327 L462 142 L464 138 L468 131 L471 126 C471 126 475 120 478 115 C487 102 491 93 491 84 C491 64 471 55 426 55 L421 55 L421 0 L784 0 L784 55 L779 55 C724 53 682 87 635 167 L461 440 L518 496 C606 581 651 608 711 612 L718 612 L718 667 L437 667 L437 612 L444 612 C477 612 494 602 494 582 C494 564 481 543 449 511 L282 345 Z " />
<glyph glyph-name="L" unicode="L" horiz-adv-x="619" d="M606 222 L555 222 C530 110 477 60 382 60 L370 60 C294 62 279 78 281 150 L281 531 C283 594 298 611 353 612 L365 612 L365 667 L26 667 L26 612 L35 612 C90 611 105 594 107 531 L107 136 C106 75 90 57 35 55 L26 55 L26 0 L603 0 L606 222 Z " />
<glyph glyph-name="M" unicode="M" horiz-adv-x="952" d="M286 667 L24 667 L24 612 L29 612 C88 611 113 586 111 528 L111 178 C115 95 92 60 29 55 L24 55 L24 0 L261 0 L261 55 L257 55 C192 59 166 94 170 175 L170 520 L405 0 L441 0 L667 528 L667 136 C666 75 651 57 596 55 L584 55 L584 0 L926 0 L926 55 L913 55 C857 57 842 75 841 136 L841 531 C843 595 857 611 913 612 L925 612 L925 667 L667 667 L478 229 L286 667 Z " />
<glyph glyph-name="N" unicode="N" horiz-adv-x="745" d="M641 -11 L641 501 C639 572 659 600 718 612 L725 612 L725 667 L488 667 L488 612 L494 612 C552 610 580 572 578 503 L578 259 L237 667 L24 667 L24 612 L28 612 C82 612 110 579 112 511 L112 170 C112 118 111 110 102 95 C89 72 59 54 33 55 L31 55 L27 55 L27 0 L263 0 L263 55 L257 55 L251 55 C193 62 171 96 175 171 L175 477 L578 -11 L641 -11 Z " />
<glyph glyph-name="O" unicode="O" horiz-adv-x="787" d="M400 679 C298 679 214 650 150 592 C81 530 39 429 39 328 C39 241 70 159 125 95 C188 25 282 -14 393 -14 C491 -14 580 17 640 73 C708 137 748 231 748 330 C748 419 717 503 660 568 C596 641 507 679 400 679 L400 679 Z M393 615 C498 615 544 524 544 317 C544 227 531 155 508 115 C484 73 444 50 396 50 C347 50 308 73 282 118 C256 163 244 233 244 337 C244 525 292 615 393 615 L393 615 Z " />
<glyph glyph-name="P" unicode="P" horiz-adv-x="635" d="M26 667 L26 612 L41 612 C96 611 111 594 113 531 L113 136 C112 75 96 57 41 55 L30 55 L30 0 L374 0 L374 55 L360 55 C304 57 288 75 287 136 L287 295 L332 295 L362 295 C437 295 486 305 532 330 C585 359 617 417 617 483 C617 549 586 606 533 636 C482 665 441 673 339 673 L332 673 C279 673 254 672 140 670 L79 668 L26 667 Z M287 354 L287 613 L289 613 C342 613 358 611 377 599 C410 581 428 539 428 479 C428 440 417 401 401 382 C386 364 355 354 316 354 L287 354 Z " />
<glyph glyph-name="Q" unicode="Q" horiz-adv-x="786" d="M496 -2 C651 39 748 167 748 330 C748 420 716 504 659 569 C595 642 506 679 395 679 C298 679 210 648 149 591 C79 526 39 430 39 330 C39 206 101 91 200 35 C247 7 321 -13 373 -13 L381 -13 L364 -23 C294 -66 248 -101 233 -123 C230 -126 229 -133 229 -140 C229 -158 243 -173 259 -173 C271 -173 284 -166 298 -150 C335 -110 351 -101 385 -101 C417 -101 453 -118 487 -151 C543 -204 543 -204 558 -215 C597 -244 638 -256 691 -256 C810 -256 885 -189 903 -70 L853 -70 C828 -106 782 -128 730 -128 C702 -128 647 -118 627 -110 C555 -79 555 -79 512 -65 C485 -57 442 -47 434 -47 C433 -47 430 -47 425 -48 L496 -2 Z M392 615 C494 615 543 518 543 318 C543 140 494 51 394 51 C336 51 290 87 269 148 C255 189 244 286 244 367 C244 524 298 615 392 615 L392 615 Z " />
<glyph glyph-name="R" unicode="R" horiz-adv-x="702" d="M729 0 L729 55 L723 55 C685 56 648 93 597 185 C560 251 520 304 491 326 C574 355 619 412 619 488 C619 554 586 608 528 637 C491 656 409 666 286 668 C229 669 192 669 177 669 L143 669 L133 668 L121 668 L110 667 L26 667 L26 612 L38 612 C93 611 108 594 110 531 L110 136 C109 75 93 57 38 55 L26 55 L26 0 L367 0 L367 55 L356 55 C301 57 285 75 284 136 L284 294 L292 294 C360 295 368 289 409 214 C478 81 508 28 531 0 L729 0 Z M284 354 L284 606 C292 607 297 607 304 607 C372 607 401 596 420 563 C432 542 437 517 437 484 C437 443 426 403 409 383 C392 363 360 354 310 354 L306 354 L284 354 Z " />
<glyph glyph-name="S" unicode="S" horiz-adv-x="538" d="M53 11 L109 11 C113 34 118 51 125 65 C165 16 229 -14 296 -14 C415 -14 507 76 507 192 C507 230 498 265 478 299 C452 344 393 388 299 429 C218 464 186 497 186 544 C186 589 218 620 264 620 C328 620 382 561 402 470 L454 470 L454 667 L400 667 C399 664 399 664 398 660 C395 643 391 631 385 622 C350 658 299 679 247 679 C138 679 53 591 53 479 C53 444 61 413 77 384 C100 342 158 296 244 253 C328 212 361 178 361 133 C361 84 324 49 273 49 C225 49 182 77 150 128 C133 155 122 184 109 239 L53 239 L53 11 Z " />
<glyph glyph-name="T" unicode="T" horiz-adv-x="662" d="M66 477 C81 585 103 607 190 608 L241 608 L241 136 C242 76 223 56 169 55 L154 55 L154 0 L504 0 L504 55 L488 55 C433 56 414 76 415 136 L415 608 L468 608 C547 608 571 583 594 477 L647 477 L647 667 L13 667 L13 477 L66 477 Z " />
<glyph glyph-name="U" unicode="U" horiz-adv-x="737" d="M475 667 L475 612 L481 612 C539 613 574 574 572 510 L572 286 C572 201 567 167 548 134 C519 84 469 55 411 55 C357 55 312 80 287 124 C269 157 263 192 263 268 L263 531 C265 593 280 611 337 612 L347 612 L347 667 L16 667 L16 612 L23 612 C80 611 96 593 98 531 L98 281 L98 268 C97 181 108 136 142 89 C190 22 270 -14 369 -14 C441 -14 511 9 557 48 C607 91 635 171 635 274 L635 284 L635 499 L635 507 C633 574 653 599 715 612 L720 612 L720 667 L475 667 Z " />
<glyph glyph-name="V" unicode="V" horiz-adv-x="679" d="M370 -14 L562 460 C617 589 634 612 676 613 L686 612 L691 612 L691 667 L458 667 L458 612 L462 612 C504 612 532 595 532 569 C532 554 527 533 518 510 L396 207 L271 510 C258 541 251 566 251 580 C251 600 275 612 315 612 L321 612 L321 667 L-13 667 L-13 612 L-8 612 C44 612 59 598 92 520 L101 498 L315 -14 L370 -14 Z " />
<glyph glyph-name="W" unicode="W" horiz-adv-x="896" d="M682 -14 L809 465 C840 580 858 609 898 613 L903 612 L908 612 L908 667 L705 667 L705 612 L710 612 C743 612 767 590 767 560 C767 545 764 527 759 507 L688 236 L528 667 L455 667 L322 236 L233 534 C228 551 225 568 225 580 C225 601 241 612 272 612 L277 612 L277 667 L-11 667 L-11 612 L-6 612 L-3 613 L1 613 L2 613 C38 610 47 597 72 515 L226 -14 L301 -14 L443 434 L609 -14 L682 -14 Z " />
<glyph glyph-name="X" unicode="X" horiz-adv-x="762" d="M730 667 L477 667 L477 612 L484 612 C520 612 538 603 538 585 C538 572 530 555 518 541 L422 429 L335 547 C325 561 319 577 319 588 C319 606 333 612 367 612 L373 612 L373 667 L16 667 L16 612 L20 612 C86 609 93 603 168 500 L310 307 L170 147 C113 81 70 54 21 55 L17 55 L17 0 L296 0 L296 55 L289 55 L280 54 C245 54 222 69 222 93 C222 108 230 126 244 140 L248 144 L346 258 L438 135 C451 117 458 101 458 88 C458 64 439 55 387 55 L382 55 L382 0 L769 0 L769 55 L768 55 L763 54 L762 54 C697 63 683 75 607 178 L459 382 L567 506 C621 569 668 605 696 607 C707 609 719 611 730 612 L729 613 L730 622 L730 667 Z " />
<glyph glyph-name="Y" unicode="Y" horiz-adv-x="632" d="M-12 667 L-12 612 L-7 612 C35 609 51 594 90 525 L228 273 L228 136 C227 75 211 57 156 55 L146 55 L146 0 L485 0 L485 55 L476 55 C421 57 406 74 405 136 L405 284 L520 489 L527 500 C586 596 599 608 640 612 L644 612 L644 667 L426 667 L426 612 L431 612 C467 612 487 597 487 571 C487 556 481 536 471 517 L381 353 L273 534 C259 557 253 571 253 583 C253 603 269 612 301 612 L306 612 L306 667 L-12 667 Z " />
<glyph glyph-name="Z" unicode="Z" horiz-adv-x="646" d="M32 0 L602 0 L613 198 L560 198 C523 85 487 57 380 59 L235 59 L593 622 L593 667 L60 667 L50 489 L100 489 C131 591 159 609 285 608 L388 608 L32 44 L32 0 Z " />
<glyph glyph-name="bracketleft" unicode="&#x5b;" horiz-adv-x="409" d="M388 -235 L388 -182 L314 -182 C275 -182 263 -169 262 -123 L262 -115 L262 -96 L262 528 L262 543 L262 555 C262 600 275 614 314 614 L388 614 L388 667 L119 667 L119 -235 L388 -235 Z " />
<glyph glyph-name="backslash" unicode="&#x5c;" horiz-adv-x="475" d="M404 -126 L141 669 L70 669 L334 -126 L404 -126 Z " />
<glyph glyph-name="bracketright" unicode="&#x5d;" horiz-adv-x="409" d="M20 -235 L289 -235 L289 667 L20 667 L20 614 L94 614 C133 614 145 601 146 555 L146 547 L146 528 L146 -96 L146 -111 L146 -123 C146 -167 133 -182 94 -182 L20 -182 L20 -235 Z " />
<glyph glyph-name="asciicircum" unicode="&#x5e;" horiz-adv-x="475" d="M507 275 L257 700 L248 700 L-31 275 L159 275 L304 497 L435 275 L507 275 Z " />
<glyph glyph-name="underscore" unicode="&#x5f;" horiz-adv-x="500" d="M2 -93 L2 -182 L498 -182 L498 -93 L2 -93 Z " />
<glyph glyph-name="grave" unicode="&#x60;" horiz-adv-x="487" d="M306 486 L241 643 L62 643 L62 632 L264 486 L306 486 Z " />
<glyph glyph-name="a" unicode="a" horiz-adv-x="537" d="M496 90 C493 72 483 62 470 62 C454 62 446 76 446 105 L446 291 C446 338 442 354 422 376 C395 406 348 419 270 419 C204 419 157 411 117 392 C73 371 48 342 48 311 C48 280 71 259 104 259 C140 259 159 276 164 312 C167 331 172 344 178 349 C188 357 209 363 228 363 C272 363 288 347 288 303 L288 266 L268 259 C262 256 251 252 237 247 C165 223 106 191 67 155 C48 138 35 108 35 82 C35 25 78 -10 147 -10 C201 -10 252 8 297 43 C317 8 357 -10 411 -10 C486 -10 531 26 534 90 L496 90 Z M288 211 L288 96 C270 74 250 62 231 62 C206 62 186 84 186 112 C186 151 215 179 285 210 L288 211 Z " />
<glyph glyph-name="b" unicode="b" horiz-adv-x="588" d="M12 645 L12 593 L15 593 C58 590 69 578 70 527 L70 -11 L111 -11 C122 -1 129 5 156 26 L182 47 L186 50 L192 56 L198 61 C243 14 298 -12 356 -12 C470 -12 553 80 553 205 C553 330 472 419 359 419 C312 419 272 404 229 369 L229 679 L224 679 C198 673 173 669 141 665 C125 664 105 661 27 647 L12 645 Z M229 301 C255 335 281 350 309 350 C361 350 385 300 385 195 C385 100 357 53 300 53 C280 53 265 58 253 71 C241 82 229 103 229 111 L229 301 Z " />
<glyph glyph-name="c" unicode="c" horiz-adv-x="470" d="M400 124 C381 74 346 49 298 49 C229 49 200 100 200 223 C200 319 227 366 281 366 C304 366 315 357 320 334 C331 279 349 258 383 258 C415 258 439 286 439 322 C439 381 379 419 284 419 C137 419 32 325 32 193 C32 70 124 -16 256 -16 C351 -16 420 27 448 102 L400 124 Z " />
<glyph glyph-name="d" unicode="d" horiz-adv-x="584" d="M572 66 L566 66 C526 68 515 82 514 132 L514 679 L508 679 C480 674 470 672 455 669 C433 666 416 663 401 660 L350 652 L343 651 L296 643 L291 642 L291 590 L294 590 C340 588 354 573 355 525 L355 366 C324 400 277 419 223 419 C154 419 99 387 64 328 C44 293 35 253 35 196 C35 143 43 108 62 75 C94 20 145 -9 210 -9 C265 -9 309 11 355 56 L355 53 L355 51 C355 28 359 10 367 -9 C417 1 490 8 572 11 L572 66 Z M355 124 C335 85 307 65 272 65 C225 65 203 110 203 205 C203 304 227 348 281 348 C306 348 326 337 355 307 L355 124 Z " />
<glyph glyph-name="e" unicode="e" horiz-adv-x="490" d="M402 104 C375 66 338 45 300 45 C235 45 196 99 196 190 C196 195 196 200 197 206 L458 206 L458 218 C458 339 377 419 254 419 C126 419 35 329 35 204 C35 76 129 -16 258 -16 C334 -16 409 21 446 77 L402 104 Z M314 255 L197 255 C199 310 202 325 213 344 C220 356 238 365 254 365 C293 365 314 328 314 262 L314 255 Z " />
<glyph glyph-name="f" unicode="f" horiz-adv-x="349" d="M329 403 L244 403 L244 428 L244 490 C244 549 246 574 252 591 C259 612 270 623 284 623 C299 623 311 612 316 595 C325 558 329 550 341 536 C352 522 372 513 390 513 C428 513 459 546 459 585 C459 642 401 679 311 679 C224 679 155 646 122 588 C98 547 92 510 92 417 L92 403 L16 403 L16 350 L92 350 L92 118 C91 68 79 55 32 52 L16 52 L16 0 L329 0 L329 52 L304 52 C259 54 245 69 244 118 L244 350 L329 350 L329 403 Z " />
<glyph glyph-name="g" unicode="g" horiz-adv-x="511" d="M264 -63 L274 -63 L310 -63 C376 -63 404 -78 404 -113 C404 -164 343 -197 249 -197 C217 -197 189 -193 169 -186 C141 -176 132 -168 126 -148 C121 -132 120 -126 120 -122 L123 -105 L123 -98 L123 -97 L123 -96 C105 -88 94 -85 82 -85 C54 -85 30 -111 30 -143 C30 -213 102 -249 238 -249 C315 -249 369 -238 412 -213 C465 -183 494 -133 494 -72 C494 -36 483 -3 462 21 C436 50 383 67 317 66 L261 65 L209 65 L202 65 C168 65 153 72 153 89 C153 115 181 128 237 128 C363 129 440 185 440 277 C440 302 435 323 422 345 C431 354 435 356 442 356 C450 356 455 354 464 345 C475 334 482 331 492 331 C511 331 523 346 523 370 C523 401 505 419 476 419 C452 419 432 409 394 376 C357 406 314 418 249 418 C120 418 42 365 42 277 C42 213 81 164 149 144 C82 125 53 95 53 42 C53 -28 110 -64 221 -64 L264 -63 Z M242 365 C273 365 290 335 290 282 C290 216 275 185 245 185 C211 185 195 217 195 285 C195 335 213 365 242 365 L242 365 Z " />
<glyph glyph-name="h" unicode="h" horiz-adv-x="577" d="M228 679 C202 672 178 668 144 663 C118 660 82 653 17 640 L17 588 L20 588 C66 585 74 575 75 522 L75 118 C74 66 64 54 20 52 L17 52 L17 0 L277 0 L277 52 L274 52 C245 55 235 71 234 118 L234 272 C236 275 236 275 237 278 C253 308 286 335 308 335 C338 335 353 315 353 272 L353 118 C352 71 344 57 314 53 L309 52 L309 0 L569 0 L569 52 L565 52 C526 54 515 68 514 118 L514 255 C514 306 509 334 495 358 C475 395 427 419 376 419 C320 419 272 394 234 348 L234 679 L228 679 Z " />
<glyph glyph-name="i" unicode="i" horiz-adv-x="310" d="M165 679 C117 679 77 639 77 591 C77 541 116 501 165 501 C214 501 253 541 253 590 C253 639 214 679 165 679 L165 679 Z M237 419 C209 413 209 413 121 398 C43 385 39 384 16 382 L16 330 L27 330 C75 327 86 315 87 264 L87 118 C86 67 74 54 27 52 L16 52 L16 0 L302 0 L302 52 L298 52 C255 54 243 68 242 118 L242 419 L237 419 Z " />
<glyph glyph-name="j" unicode="j" horiz-adv-x="312" d="M257 419 L251 419 L237 416 L211 412 C194 409 157 403 99 394 L34 383 L21 381 L21 329 L36 329 C85 327 97 313 98 264 L98 -61 C98 -137 96 -152 83 -175 C78 -185 69 -191 59 -191 C47 -191 36 -183 32 -171 C18 -130 4 -116 -25 -116 C-58 -116 -82 -141 -82 -174 C-82 -219 -36 -247 37 -247 C132 -247 214 -202 242 -134 C254 -105 257 -73 257 18 L257 419 Z M176 679 C128 679 88 639 88 591 C88 541 127 501 175 501 C225 501 264 541 264 590 C264 639 225 679 176 679 L176 679 Z " />
<glyph glyph-name="k" unicode="k" horiz-adv-x="563" d="M309 403 L309 351 L313 351 C339 351 350 346 350 335 C350 329 348 326 338 316 L334 312 L331 309 L326 305 C289 270 263 247 252 239 L233 225 L233 679 L227 679 C201 672 177 668 143 663 C117 660 81 653 17 640 L17 588 L22 588 C65 585 73 576 74 523 L74 118 C73 66 64 54 22 52 L15 52 L15 0 L278 0 L278 52 L275 52 C243 56 234 70 233 118 L233 160 L268 190 L327 100 C335 88 340 77 340 70 C340 59 331 52 315 52 L312 52 L312 0 L558 0 L558 52 L555 53 C534 53 515 71 468 137 L373 274 C377 277 382 279 383 281 C383 281 386 283 389 287 C459 338 489 352 529 351 L532 351 L532 403 L309 403 Z " />
<glyph glyph-name="l" unicode="l" horiz-adv-x="304" d="M16 640 L16 588 L25 588 C66 585 73 576 74 522 L74 118 C73 64 65 54 25 52 L16 52 L16 0 L288 0 L288 52 L284 52 C243 54 234 66 233 118 L233 679 L227 679 C192 671 167 666 101 655 C76 651 65 649 16 640 L16 640 Z " />
<glyph glyph-name="m" unicode="m" horiz-adv-x="839" d="M18 372 L18 320 L21 320 C61 319 75 303 77 260 L77 118 C76 66 66 54 22 52 L20 52 L20 0 L275 0 L275 52 L272 52 C245 55 237 71 236 118 L236 274 C239 276 242 280 245 284 C270 320 289 335 311 335 C336 335 349 313 349 270 L349 118 C348 70 341 57 314 53 L309 52 L309 0 L547 0 L547 52 L544 52 C517 55 508 71 507 118 L507 272 C537 316 558 334 582 334 C607 334 621 314 621 275 L621 118 C620 70 613 58 584 53 L581 52 L581 0 L832 0 L832 52 L828 52 C789 54 778 68 777 118 L777 257 C777 316 774 333 759 360 C738 396 693 419 644 419 C591 419 539 390 498 338 C477 390 433 419 375 419 C323 419 275 395 238 350 L238 353 L238 355 L238 356 C238 375 235 391 229 408 L225 408 C200 402 180 398 155 395 L18 372 Z " />
<glyph glyph-name="n" unicode="n" horiz-adv-x="579" d="M224 408 C198 402 179 399 155 395 C119 390 80 383 18 372 L18 320 L22 320 C61 319 75 303 77 260 L77 118 C76 66 66 54 22 52 L20 52 L20 0 L280 0 L280 52 L278 52 C247 55 237 70 236 118 L236 273 C268 319 288 335 313 335 C339 335 355 314 355 281 L355 274 L355 118 C354 71 346 58 314 53 L311 52 L311 0 L571 0 L571 52 L567 52 C528 54 517 68 516 118 L516 258 C516 309 511 334 498 358 C477 395 430 419 379 419 C326 419 276 395 238 350 C237 377 234 395 229 408 L224 408 Z " />
<glyph glyph-name="o" unicode="o" horiz-adv-x="537" d="M270 419 C130 419 35 331 35 201 C35 142 53 93 87 56 C129 11 197 -16 267 -16 C405 -16 502 75 502 204 C502 261 485 308 451 344 C408 391 340 419 270 419 L270 419 Z M269 364 C294 364 313 349 323 322 C330 302 334 254 334 193 C334 85 314 38 269 38 C222 38 203 87 203 209 C203 277 208 310 221 335 C231 353 249 364 269 364 L269 364 Z " />
<glyph glyph-name="p" unicode="p" horiz-adv-x="587" d="M210 419 C184 413 162 409 135 405 C118 402 111 401 22 386 L10 383 L10 331 L13 331 C57 329 69 316 70 266 L70 -120 C69 -171 58 -183 13 -185 L10 -185 L10 -237 L301 -237 L301 -185 L287 -185 C243 -183 230 -169 229 -120 L229 40 C274 1 314 -16 361 -16 C471 -16 552 78 552 205 C552 328 476 419 372 419 C320 419 268 394 226 349 C224 388 223 395 216 419 L210 419 Z M229 282 C250 323 279 346 310 346 C361 346 384 299 384 197 C384 147 379 117 365 93 C354 73 330 58 307 58 C280 58 251 73 229 100 L229 282 Z " />
<glyph glyph-name="q" unicode="q" horiz-adv-x="560" d="M473 419 L391 355 L383 349 C336 396 288 418 230 418 C114 418 35 329 35 198 C35 68 109 -16 224 -16 C273 -16 310 -1 356 37 L356 -120 C355 -169 342 -183 298 -185 L286 -185 L286 -237 L575 -237 L575 -185 L571 -185 C528 -183 516 -169 515 -120 L515 419 L473 419 Z M356 102 C331 72 302 55 275 55 C261 55 248 60 235 69 C214 86 203 133 203 203 C203 307 225 351 276 351 C307 351 330 335 356 295 L356 102 Z " />
<glyph glyph-name="r" unicode="r" horiz-adv-x="451" d="M202 416 L146 404 L78 389 L26 378 L18 376 L18 324 L22 324 C64 322 76 308 77 258 L77 118 C76 66 65 54 23 52 L19 52 L19 0 L303 0 L303 52 L294 52 C250 54 237 68 236 118 L236 162 C236 268 256 318 298 318 C310 318 321 312 333 298 C357 269 364 265 385 265 C421 265 446 294 446 335 C446 384 413 419 367 419 C313 419 262 381 230 318 C228 360 223 393 214 419 L202 416 Z " />
<glyph glyph-name="s" unicode="s" horiz-adv-x="435" d="M40 -12 L82 -12 C87 0 93 8 101 15 C107 13 108 13 115 10 C159 -9 191 -16 228 -16 C334 -16 401 41 401 131 C401 169 388 200 363 227 C339 252 294 269 219 284 C171 293 146 310 146 333 C146 357 172 373 210 373 C271 373 316 343 332 292 L374 292 L374 415 L335 415 C329 404 324 397 317 391 C267 411 231 419 188 419 C104 419 38 359 38 284 C38 217 84 172 176 147 C257 125 257 125 274 111 C282 105 287 94 287 83 C287 55 254 35 209 35 C149 35 104 68 86 123 L40 123 L40 -12 Z " />
<glyph glyph-name="t" unicode="t" horiz-adv-x="341" d="M332 349 L332 403 L217 403 L217 536 L167 536 C156 458 96 402 22 402 C21 402 15 402 10 403 L10 349 L65 349 L65 115 C65 30 111 -16 196 -16 C269 -16 324 19 346 78 L300 94 C286 64 273 53 251 53 C224 53 217 69 217 140 L217 349 L332 349 Z " />
<glyph glyph-name="u" unicode="u" horiz-adv-x="566" d="M498 403 L287 403 L287 351 L290 351 C329 349 338 337 339 285 L339 131 C339 129 338 128 335 123 C334 122 334 121 333 119 C313 85 291 68 267 68 C241 68 228 92 228 140 L228 403 L9 403 L9 351 L12 351 C54 349 68 333 69 285 L69 131 C69 87 73 67 86 44 C107 7 151 -16 200 -16 C254 -16 302 9 339 55 L339 51 L339 50 L339 41 L339 29 L339 27 L339 19 L339 16 L339 10 L339 -3 L339 -5 L339 -12 L339 -13 L339 -16 L344 -16 C373 -8 498 1 556 0 L556 52 L553 52 C511 54 499 67 498 118 L498 403 Z " />
<glyph glyph-name="v" unicode="v" horiz-adv-x="488" d="M284 -7 L411 258 C450 338 457 346 489 351 L493 351 L493 403 L341 403 L341 351 L345 351 C365 351 380 343 380 332 C380 325 377 316 372 305 L291 130 L211 302 C206 314 203 324 203 332 C203 343 217 351 238 351 L243 351 L243 403 L-5 403 L-5 351 L-1 351 C25 351 33 342 68 272 L200 -7 L284 -7 Z " />
<glyph glyph-name="w" unicode="w" horiz-adv-x="747" d="M563 -9 L672 254 C703 335 714 348 751 351 L753 351 L753 403 L579 403 L579 351 L582 351 C617 351 636 341 636 323 C636 320 636 320 629 300 L568 145 L457 403 L378 403 L269 145 L209 296 C203 314 199 327 199 333 C199 345 214 351 243 351 L247 351 L247 403 L-8 403 L-8 351 L-4 351 C27 350 34 343 59 284 L178 -9 L260 -9 L369 249 L482 -9 L563 -9 Z " />
<glyph glyph-name="x" unicode="x" horiz-adv-x="511" d="M378 286 L399 305 C436 338 460 351 481 351 L481 403 L321 403 L321 351 L324 351 L332 351 L333 351 C346 351 353 346 353 338 C353 331 344 320 328 305 L293 272 L256 313 C246 325 243 331 243 338 C243 347 251 351 268 351 L273 351 L273 403 L10 403 L10 351 L9 351 L15 349 C18 348 20 347 22 345 L31 337 C32 337 35 335 40 333 C50 329 72 309 101 277 L194 175 L120 110 C85 79 46 59 14 54 L7 52 L7 0 L191 0 L191 52 L188 52 L179 52 L173 52 C160 52 152 57 152 66 C152 73 155 77 172 93 L222 140 L265 88 C274 77 277 73 277 68 C277 57 266 52 244 52 L239 52 L233 52 L233 0 L503 0 L503 52 L498 53 C486 56 468 71 436 106 L321 236 L378 286 Z " />
<glyph glyph-name="y" unicode="y" horiz-adv-x="498" d="M-6 403 L-6 351 L1 350 C21 349 33 337 55 296 L62 282 L228 -18 L217 -44 C195 -91 176 -104 109 -121 C65 -132 46 -151 46 -184 C46 -222 76 -251 114 -251 C137 -251 161 -242 178 -226 C197 -208 197 -208 246 -109 L252 -96 L399 230 C405 242 412 258 426 287 C447 332 463 349 485 350 L493 351 L493 403 L334 403 L334 351 L339 351 L343 351 C357 352 375 339 375 328 C375 321 371 308 364 291 L358 278 L298 139 L220 295 L218 299 L217 302 L216 305 C208 327 208 327 208 332 C208 344 216 350 235 351 L242 351 L242 403 L-6 403 Z " />
<glyph glyph-name="z" unicode="z" horiz-adv-x="467" d="M28 0 L428 0 L441 138 L391 138 C363 71 345 53 306 53 L221 53 L434 357 L434 403 L51 403 L42 279 L93 279 C122 346 125 350 155 350 L243 350 L28 41 L28 0 Z " />
<glyph glyph-name="braceleft" unicode="&#x7b;" horiz-adv-x="393" d="M63 199 C116 195 130 174 131 98 L131 -80 C140 -207 175 -233 338 -232 L369 -232 L369 -201 C299 -199 273 -161 275 -63 L275 89 C276 163 243 196 149 214 L149 217 L149 221 C243 238 276 272 275 346 L275 497 C273 596 299 634 369 636 L369 667 L338 667 C255 666 209 660 191 647 C153 627 132 581 131 515 L131 336 C130 260 116 240 63 235 L63 199 Z " />
<glyph glyph-name="bar" unicode="&#x7c;" horiz-adv-x="481" d="M181 667 L181 -167 L301 -167 L301 667 L181 667 Z " />
<glyph glyph-name="braceright" unicode="&#x7d;" horiz-adv-x="396" d="M333 235 C280 240 267 261 266 336 L266 515 C265 581 244 627 205 647 C188 660 141 666 59 667 L28 667 L28 636 C98 634 124 596 122 497 L122 346 C120 272 154 238 247 221 L247 218 L247 214 C154 197 120 163 122 89 L122 -63 C124 -161 98 -199 28 -201 L28 -232 L59 -232 C222 -233 257 -207 266 -80 L266 98 C267 174 281 195 333 199 L333 235 Z " />
<glyph glyph-name="asciitilde" unicode="&#x7e;" horiz-adv-x="652" d="M490 733 C468 707 446 694 424 694 C402 694 374 701 342 713 C310 725 283 732 261 732 C221 732 180 693 136 614 L162 598 C192 631 205 638 234 638 C255 638 272 633 313 617 C345 605 364 600 385 600 C416 600 437 609 457 631 C483 660 502 687 517 717 L490 733 Z " />
<glyph glyph-name="uni00A0" unicode="&#xa0;" horiz-adv-x="250" d="" />
<glyph glyph-name="exclamdown" unicode="&#xa1;" horiz-adv-x="319" d="M136 210 L93 -124 C90 -146 88 -167 88 -181 C88 -225 113 -248 164 -248 C210 -248 236 -224 236 -180 C236 -163 235 -147 232 -127 L188 210 L136 210 Z M162 448 C115 448 77 408 77 359 C77 311 115 270 160 270 C208 270 246 309 246 358 C246 408 209 448 162 448 L162 448 Z " />
<glyph glyph-name="cent" unicode="&#xa2;" horiz-adv-x="518" d="M438 124 C418 77 372 45 322 45 C312 45 302 49 293 56 L348 345 C352 343 353 340 355 322 C357 286 384 258 417 258 C451 258 478 286 478 321 C478 369 434 405 361 416 L399 613 L348 613 L311 419 L306 419 C284 419 220 406 201 397 C117 359 68 283 68 192 C68 89 126 17 230 -9 L196 -190 L246 -190 L279 -16 C289 -17 294 -18 299 -18 C332 -18 386 -3 413 14 C449 37 472 64 486 102 L438 124 Z M250 95 C238 120 230 174 230 225 C230 313 253 358 301 365 L250 95 Z " />
<glyph glyph-name="sterling" unicode="&#xa3;" horiz-adv-x="691" d="M28 198 L168 198 C157 142 144 97 127 51 C58 8 25 -30 25 -67 C25 -95 54 -120 87 -120 C100 -120 114 -114 124 -104 C144 -85 145 -83 174 -19 L179 -8 L182 -1 L183 1 C193 6 200 8 209 8 C227 8 253 -9 288 -44 C341 -97 386 -120 439 -120 C546 -120 646 -26 646 76 C646 118 619 148 583 148 C551 148 531 125 531 90 C531 74 534 57 539 41 C547 15 547 14 547 3 C547 -20 527 -39 503 -39 C475 -39 444 -19 392 34 C351 76 311 97 273 97 C258 97 245 94 221 86 C250 130 270 166 284 198 L448 198 L466 275 L315 275 C337 325 364 445 385 578 C400 675 429 721 474 721 C501 721 517 711 537 679 C561 640 576 628 601 628 C633 628 659 655 659 687 C659 741 594 781 508 781 C340 781 240 643 197 350 L197 347 L196 344 L196 341 C192 321 189 300 186 280 C185 278 185 278 185 275 L46 275 L28 198 Z " />
<glyph glyph-name="currency" unicode="&#xa4;" horiz-adv-x="633" d="M17 88 L74 28 L171 130 C224 97 257 86 311 86 C365 86 410 99 460 130 L557 29 L614 88 L514 193 C544 244 555 286 555 344 C555 400 545 436 515 492 L616 599 L560 659 L459 553 C409 584 363 598 313 598 C261 598 208 582 170 555 L74 657 L17 597 L112 497 C80 436 70 399 70 347 C70 293 83 244 113 188 L17 88 Z M315 466 C378 466 427 411 427 340 C427 273 377 218 316 218 C253 218 203 273 203 342 C203 411 253 466 315 466 L315 466 Z " />
<glyph glyph-name="yen" unicode="&#xa5;" horiz-adv-x="498" d="M353 479 L222 479 L194 533 C181 559 176 572 176 583 C176 603 190 612 219 612 L224 612 L224 667 L-62 667 L-62 612 L-57 612 C-18 608 -9 598 30 524 L53 479 L-30 479 L-30 424 L80 424 L154 274 L-22 274 L-22 219 L154 219 L154 136 C153 70 143 58 89 55 L80 55 L80 0 L386 0 L386 55 L377 55 C324 58 314 70 313 136 L313 219 L489 219 L489 274 L309 274 L309 285 L383 424 L497 424 L497 479 L412 479 C467 587 488 611 525 612 L528 612 L528 667 L332 667 L332 612 L337 612 C371 612 394 598 394 577 C394 564 390 551 383 537 L353 479 Z M326 424 L289 353 L251 424 L326 424 Z " />
<glyph glyph-name="brokenbar" unicode="&#xa6;" horiz-adv-x="481" d="M181 667 L181 304 L301 304 L301 667 L181 667 Z M181 153 L181 -167 L301 -167 L301 153 L181 153 Z " />
<glyph glyph-name="section" unicode="&#xa7;" horiz-adv-x="488" d="M137 372 C64 354 24 304 24 229 C24 151 65 91 170 15 C252 -44 259 -49 273 -62 C300 -86 313 -109 313 -133 C313 -166 283 -191 246 -191 C213 -191 190 -172 180 -138 C169 -95 168 -92 158 -82 C147 -69 132 -62 117 -62 C84 -62 58 -91 58 -126 C58 -194 132 -246 228 -246 C340 -246 422 -180 422 -89 C422 -34 394 20 348 56 C425 83 455 124 455 203 C455 254 441 295 410 335 C386 365 363 384 278 441 C227 476 211 488 195 503 C175 521 164 543 164 564 C164 597 195 623 234 623 C271 623 289 607 303 560 C311 536 313 531 317 523 C327 505 342 496 362 496 C397 496 424 524 424 560 C424 625 348 677 255 677 C140 677 57 609 57 516 C57 459 83 412 137 372 L137 372 Z M168 331 C194 331 250 296 298 250 C340 210 358 179 358 151 C358 124 337 102 311 102 C285 102 256 119 197 170 C145 214 120 251 120 282 C120 307 143 331 168 331 L168 331 Z " />
<glyph glyph-name="dieresis" unicode="&#xa8;" horiz-adv-x="421" d="M103 637 C64 637 33 606 33 568 C33 530 64 498 102 498 C141 498 172 529 172 568 C172 606 141 637 103 637 L103 637 Z M318 637 C279 637 248 606 248 567 C248 530 279 498 316 498 C356 498 387 529 387 568 C387 606 356 637 318 637 L318 637 Z " />
<glyph glyph-name="copyright" unicode="&#xa9;" horiz-adv-x="764" d="M381 680 C199 680 52 525 52 334 C52 142 200 -13 382 -13 C561 -13 711 142 711 328 C711 526 566 680 381 680 L381 680 Z M381 633 C539 633 664 499 664 329 C664 168 535 34 382 34 C225 34 99 168 99 334 C99 499 225 633 381 633 L381 633 Z M501 292 C487 220 451 179 402 179 C376 179 349 194 336 216 C323 240 317 274 317 330 C317 438 342 487 399 487 C448 487 485 444 497 376 L524 376 L520 513 L493 513 L493 510 C490 497 487 490 484 481 C452 512 424 524 383 524 C287 524 216 442 216 331 C216 222 286 142 381 142 C423 142 461 158 488 188 C494 176 497 168 501 153 L528 153 L528 292 L501 292 Z " />
<glyph glyph-name="ordfeminine" unicode="&#xaa;" horiz-adv-x="333" d="M304 329 C301 317 297 312 289 312 C280 312 275 320 275 336 L275 453 C275 513 245 537 171 537 C89 537 34 508 34 465 C34 445 49 430 70 430 C92 430 106 443 109 468 C111 491 120 499 144 499 C168 499 176 489 176 460 L176 440 L166 435 C163 434 156 431 148 428 C106 413 72 393 48 371 C35 359 27 340 27 322 C27 285 54 261 95 261 C127 261 159 272 183 292 C198 271 221 261 252 261 C302 261 330 285 332 329 L304 329 Z M176 400 L176 329 C166 316 156 310 146 310 C131 310 120 323 120 341 C120 363 137 383 170 398 L176 400 Z " />
<glyph glyph-name="guillemotleft" unicode="&#xab;" horiz-adv-x="538" d="M8 217 L194 0 L247 0 L173 217 L246 433 L193 433 L8 217 Z M260 217 L446 0 L499 0 L425 217 L498 433 L445 433 L260 217 Z " />
<glyph glyph-name="logicalnot" unicode="&#xac;" horiz-adv-x="475" d="M450 0 L450 267 L26 267 L26 185 L257 185 L257 0 L450 0 Z " />
<glyph glyph-name="uni00AD" unicode="&#xad;" horiz-adv-x="329" d="M29 254 L29 180 L305 180 L305 254 L29 254 Z " />
<glyph glyph-name="registered" unicode="&#xae;" horiz-adv-x="764" d="M381 680 C199 680 52 525 52 334 C52 142 200 -13 382 -13 C561 -13 711 142 711 328 C711 526 566 680 381 680 L381 680 Z M381 633 C539 633 664 499 664 329 C664 168 535 34 382 34 C225 34 99 168 99 334 C99 499 225 633 381 633 L381 633 Z M215 150 L389 150 L389 181 L383 181 C355 183 348 191 347 225 L347 312 L352 312 L356 312 C383 313 394 302 420 248 C439 205 458 169 472 150 L574 150 L574 181 L570 181 C550 182 532 202 506 253 C485 292 472 311 453 330 C493 343 517 377 517 419 C517 454 500 485 472 501 C449 515 415 519 336 519 L303 519 L296 519 L215 518 L215 487 L222 487 C250 486 257 478 258 443 L258 225 C257 191 250 183 222 181 L215 181 L215 150 Z M347 346 L347 483 C379 483 388 482 401 475 C415 468 424 444 424 415 C424 364 407 346 360 346 L359 346 L347 346 Z " />
<glyph glyph-name="macron" unicode="&#xaf;" horiz-adv-x="383" d="M33 591 L33 529 L349 529 L349 591 L33 591 Z " />
<glyph glyph-name="degree" unicode="&#xb0;" horiz-adv-x="400" d="M203 686 C117 686 50 619 50 534 C50 448 116 381 200 381 C284 381 350 448 350 533 C350 619 286 686 203 686 L203 686 Z M202 629 C252 629 293 586 293 534 C293 480 252 438 200 438 C148 438 106 481 106 533 C106 587 148 629 202 629 L202 629 Z " />
<glyph glyph-name="plusminus" unicode="&#xb1;" horiz-adv-x="475" d="M2 414 L2 325 L190 325 L190 120 L283 120 L283 325 L473 325 L473 414 L283 414 L283 617 L190 617 L190 414 L2 414 Z M2 89 L2 -1 L473 -1 L473 89 L2 89 Z " />
<glyph glyph-name="twosuperior" unicode="&#xb2;" horiz-adv-x="346" d="M40 267 L239 267 C256 267 257 266 257 254 C257 252 257 250 256 249 C255 246 254 245 254 245 L254 243 L295 243 L311 333 L146 333 C194 384 221 413 227 420 C293 496 307 522 307 565 C307 628 251 673 172 673 C95 673 39 630 39 571 C39 547 51 519 61 519 C65 519 79 523 86 527 C91 529 97 532 105 534 C116 538 121 542 121 547 C121 549 121 549 119 552 C114 558 111 567 111 578 C111 608 129 631 151 631 C176 631 194 603 194 563 C194 483 142 392 40 299 L40 267 Z " />
<glyph glyph-name="threesuperior" unicode="&#xb3;" horiz-adv-x="345" d="M220 504 C275 537 295 562 295 597 C295 641 246 673 180 673 C102 673 40 631 40 579 C40 557 51 535 63 535 C71 535 111 550 123 557 C125 559 126 560 126 563 C126 565 125 568 123 570 C116 581 114 587 114 596 C114 615 131 631 152 631 C174 631 189 612 189 583 C189 547 170 519 129 492 C112 481 105 472 105 463 C105 451 114 441 125 441 C132 441 138 444 146 454 C155 462 159 465 167 465 C185 465 192 446 192 391 C192 357 189 341 180 325 C171 310 153 299 135 299 C121 299 113 306 106 325 C96 352 84 363 64 363 C41 363 23 345 23 323 C23 286 67 259 129 259 C230 259 305 321 305 405 C305 461 279 492 220 504 L220 504 Z " />
<glyph glyph-name="acute" unicode="&#xb4;" horiz-adv-x="487" d="M178 486 L221 486 L422 632 L422 643 L244 643 L178 486 Z " />
<glyph glyph-name="mu" unicode="&#xb5;" horiz-adv-x="576" d="M442 500 L353 500 L354 131 C318 80 284 58 242 58 C184 58 150 99 150 169 L150 500 L62 500 L62 20 C62 -1 58 -26 51 -56 C34 -118 33 -123 33 -147 C33 -190 54 -219 83 -219 C112 -219 132 -189 132 -145 C132 -124 129 -110 113 -53 C102 -17 101 -8 101 21 L101 33 C143 -3 165 -13 200 -13 C250 -13 301 18 354 80 C362 48 367 36 377 21 C392 0 419 -13 449 -13 C510 -13 553 31 567 108 L540 109 C536 71 515 41 492 41 C462 41 442 77 442 131 L442 500 Z " />
<glyph glyph-name="paragraph" unicode="&#xb6;" horiz-adv-x="629" d="M558 667 L281 667 C186 667 184 667 161 661 C91 642 47 581 47 503 C47 442 76 390 124 363 C152 347 187 340 235 340 L267 340 L267 4 L267 -21 C266 -41 266 -42 213 -43 L193 -43 L193 -79 L355 -79 L355 628 L410 628 L410 -79 L546 -79 L546 -43 L533 -43 L515 -43 L514 -43 L513 -43 C500 -42 499 -40 498 -2 L498 561 C498 595 501 620 506 624 C509 628 527 631 547 631 L558 631 L558 667 Z M267 631 L267 380 L245 380 C212 380 188 433 188 507 C188 553 199 601 214 619 C221 627 233 631 251 631 L267 631 Z " />
<glyph glyph-name="periodcentered" unicode="&#xb7;" horiz-adv-x="279" d="M133 421 C86 421 48 381 48 333 C48 284 86 244 131 244 C179 244 217 283 217 333 C217 382 179 421 133 421 L133 421 Z " />
<glyph glyph-name="cedilla" unicode="&#xb8;" horiz-adv-x="475" d="M211 0 C207 -45 202 -78 196 -103 C217 -104 231 -118 231 -140 C231 -159 220 -169 198 -169 C181 -169 167 -167 146 -160 C144 -181 143 -185 140 -205 C157 -212 175 -216 197 -216 C269 -216 313 -182 313 -125 C313 -79 288 -49 245 -44 C248 -23 248 -20 250 0 L211 0 Z " />
<glyph glyph-name="onesuperior" unicode="&#xb9;" horiz-adv-x="345" d="M68 601 L71 601 L84 601 L87 601 L101 601 L108 601 C125 600 126 597 127 558 L127 338 C127 311 123 307 100 306 L84 306 L84 267 L280 267 L280 306 L264 306 C240 307 237 311 237 340 L237 674 L198 674 C166 652 122 640 68 639 L68 601 Z " />
<glyph glyph-name="ordmasculine" unicode="&#xba;" horiz-adv-x="333" d="M166 537 C83 537 26 479 26 395 C26 315 84 257 164 257 C250 257 308 314 308 399 C308 480 250 537 166 537 L166 537 Z M167 496 C195 496 203 470 203 387 C203 325 192 297 168 297 C141 297 131 326 131 406 C131 468 142 496 167 496 L167 496 Z " />
<glyph glyph-name="guillemotright" unicode="&#xbb;" horiz-adv-x="538" d="M515 217 L330 433 L277 433 L350 217 L276 0 L329 0 L515 217 Z M263 217 L78 433 L25 433 L98 217 L24 0 L77 0 L263 217 Z " />
<glyph glyph-name="onequarter" unicode="&#xbc;" horiz-adv-x="860" d="M68 601 L71 601 L82 601 L84 601 L92 601 L95 601 L96 601 L98 601 L106 601 C125 600 126 597 127 558 L127 338 C126 311 122 307 97 306 L79 306 L79 267 L284 267 L284 306 L266 306 C241 307 237 312 237 340 L237 674 L198 674 C167 653 122 641 68 639 L68 601 Z M337 0 L660 668 L593 668 L270 0 L337 0 Z M674 134 L674 77 C673 46 669 40 642 39 L624 39 L624 0 L832 0 L832 39 L814 39 C789 40 785 47 784 79 L784 134 L832 134 L840 201 L816 201 L815 197 C810 186 804 181 792 181 L784 181 L784 404 L723 404 L543 182 L543 134 L674 134 Z M674 181 L593 181 L674 283 L674 181 Z " />
<glyph glyph-name="onehalf" unicode="&#xbd;" horiz-adv-x="860" d="M68 601 L71 601 L82 601 L84 601 L92 601 L95 601 L96 601 L98 601 L106 601 C125 600 126 597 127 558 L127 338 C126 311 122 307 97 306 L79 306 L79 267 L284 267 L284 306 L266 306 C241 307 237 312 237 340 L237 674 L198 674 C167 653 122 641 68 639 L68 601 Z M318 0 L641 668 L574 668 L251 0 L318 0 Z M558 0 L755 0 C771 0 773 -1 773 -9 C773 -10 773 -10 772 -12 L771 -22 L770 -24 L810 -24 L826 66 L663 66 C799 211 822 244 822 296 C822 361 767 406 688 406 C612 406 557 364 557 305 C557 281 569 253 579 253 C586 253 593 255 601 261 L603 262 L606 264 L608 265 L610 266 C610 267 614 269 618 271 C630 277 635 282 635 286 C635 287 635 288 634 290 C630 298 628 307 628 316 C628 344 644 364 666 364 C692 364 709 337 709 296 C709 216 658 126 558 32 L558 0 Z " />
<glyph glyph-name="threequarters" unicode="&#xbe;" horiz-adv-x="860" d="M220 504 C275 537 295 562 295 597 C295 641 246 673 180 673 C102 673 40 631 40 579 C40 557 51 535 63 535 C71 535 111 550 123 557 C125 559 126 560 126 563 C126 565 125 568 123 570 C116 581 114 587 114 596 C114 615 131 631 152 631 C174 631 189 612 189 583 C189 547 170 519 129 492 C112 481 105 472 105 463 C105 451 114 441 125 441 C132 441 138 444 146 454 C155 462 159 465 167 465 C185 465 192 446 192 391 C192 357 189 341 180 325 C171 310 153 299 135 299 C121 299 113 306 106 325 C96 352 84 363 64 363 C41 363 23 345 23 323 C23 286 67 259 129 259 C230 259 305 321 305 405 C305 461 279 492 220 504 L220 504 Z M327 0 L652 668 L585 668 L259 0 L327 0 Z M673 134 L673 77 C672 46 668 40 640 39 L622 39 L622 0 L832 0 L832 39 L814 39 C789 40 784 47 783 79 L783 134 L832 134 L840 201 L816 201 L814 197 C810 186 804 182 791 181 L783 181 L783 404 L722 404 L541 182 L541 134 L673 134 Z M673 181 L591 181 L673 283 L673 181 Z " />
<glyph glyph-name="questiondown" unicode="&#xbf;" horiz-adv-x="458" d="M274 445 C228 445 190 405 190 356 C190 308 228 267 273 267 C320 267 358 306 358 355 C358 405 321 445 274 445 L274 445 Z M305 205 L244 205 L244 115 C223 122 206 125 186 125 C91 125 22 51 22 -52 C22 -170 107 -251 230 -251 C326 -251 402 -202 402 -141 C402 -117 378 -95 352 -95 C327 -95 309 -111 301 -143 C294 -169 292 -172 286 -180 C279 -189 264 -195 250 -195 C205 -195 179 -139 179 -41 C179 22 198 59 230 59 C241 59 251 53 258 42 L305 42 L305 205 Z " />
<glyph glyph-name="Agrave" unicode="&#xc0;" horiz-adv-x="622" d="M634 0 L634 55 L629 55 C585 60 569 78 535 162 L336 679 L282 679 L97 188 L93 177 C65 99 32 60 -7 55 L-13 55 L-13 0 L196 0 L196 55 L189 55 C154 55 130 70 130 92 C130 104 135 126 145 153 L155 180 L350 180 L369 131 C378 108 383 91 383 83 C383 64 364 55 325 55 L320 55 L320 0 L634 0 Z M329 236 L175 236 L250 436 L329 236 Z M365 732 L404 732 L305 892 L105 892 L105 880 L365 732 Z " />
<glyph glyph-name="Aacute" unicode="&#xc1;" horiz-adv-x="622" d="M634 0 L634 55 L629 55 C585 60 569 78 535 162 L336 679 L282 679 L97 188 L93 177 C65 99 32 60 -7 55 L-13 55 L-13 0 L196 0 L196 55 L189 55 C154 55 130 70 130 92 C130 104 135 126 145 153 L155 180 L350 180 L369 131 C378 108 383 91 383 83 C383 64 364 55 325 55 L320 55 L320 0 L634 0 Z M329 236 L175 236 L250 436 L329 236 Z M258 732 L298 732 L557 880 L557 892 L357 892 L258 732 Z " />
<glyph glyph-name="Acircumflex" unicode="&#xc2;" horiz-adv-x="622" d="M634 0 L634 55 L629 55 C585 60 569 78 535 162 L336 679 L282 679 L97 188 L93 177 C65 99 32 60 -7 55 L-13 55 L-13 0 L196 0 L196 55 L189 55 C154 55 130 70 130 92 C130 104 135 126 145 153 L155 180 L350 180 L369 131 C378 108 383 91 383 83 C383 64 364 55 325 55 L320 55 L320 0 L634 0 Z M329 236 L175 236 L250 436 L329 236 Z M209 887 L109 728 L147 728 L303 821 L467 728 L505 728 L402 887 L209 887 Z " />
<glyph glyph-name="Atilde" unicode="&#xc3;" horiz-adv-x="622" d="M634 0 L634 55 L629 55 C585 60 569 78 535 162 L336 679 L282 679 L97 188 L93 177 C65 99 32 60 -7 55 L-13 55 L-13 0 L196 0 L196 55 L189 55 C154 55 130 70 130 92 C130 104 135 126 145 153 L155 180 L350 180 L369 131 C378 108 383 91 383 83 C383 64 364 55 325 55 L320 55 L320 0 L634 0 Z M329 236 L175 236 L250 436 L329 236 Z M168 724 C168 753 186 775 212 775 C226 775 243 769 278 752 C319 731 354 721 386 721 C451 721 494 771 494 846 C494 851 494 861 493 869 L454 869 C448 833 434 815 414 815 C397 815 367 825 332 843 C297 861 263 870 234 870 C168 870 127 822 127 745 C127 739 127 734 128 724 L168 724 Z " />
<glyph glyph-name="Adieresis" unicode="&#xc4;" horiz-adv-x="622" d="M634 0 L634 55 L629 55 C585 60 569 78 535 162 L336 679 L282 679 L97 188 L93 177 C65 99 32 60 -7 55 L-13 55 L-13 0 L196 0 L196 55 L189 55 C154 55 130 70 130 92 C130 104 135 126 145 153 L155 180 L350 180 L369 131 C378 108 383 91 383 83 C383 64 364 55 325 55 L320 55 L320 0 L634 0 Z M329 236 L175 236 L250 436 L329 236 Z M181 880 C138 880 104 846 104 803 C104 761 139 726 180 726 C224 726 258 760 258 803 C258 846 224 880 181 880 L181 880 Z M440 880 C398 880 363 846 363 804 C363 760 397 726 440 726 C483 726 517 760 517 803 C517 846 483 880 440 880 L440 880 Z " />
<glyph glyph-name="Aring" unicode="&#xc5;" horiz-adv-x="622" d="M97 188 L93 177 C65 99 32 60 -7 55 L-13 55 L-13 0 L196 0 L196 55 L189 55 C154 55 130 70 130 92 C130 104 135 126 145 153 L155 180 L350 180 L369 131 C378 108 383 91 383 83 C383 64 364 55 325 55 L320 55 L320 0 L634 0 L634 55 L629 55 C585 60 569 78 535 162 L341 666 C386 680 417 721 417 768 C417 827 369 875 310 875 C251 875 203 827 203 768 C203 722 233 681 277 666 L97 188 Z M329 236 L175 236 L250 435 L329 236 Z M310 828 C343 828 370 801 370 768 C370 735 343 708 309 708 C276 708 250 735 250 769 C250 801 277 828 310 828 L310 828 Z " />
<glyph glyph-name="AE" unicode="&#xc6;" horiz-adv-x="906" d="M383 318 L383 136 C382 75 367 57 311 55 L300 55 L300 0 L876 0 L880 219 L828 219 C800 103 754 57 669 59 L656 59 C574 60 557 77 557 153 L557 318 L621 318 C665 316 673 308 679 257 C680 254 680 251 681 247 L681 241 L682 236 L733 236 L733 460 L682 460 L681 454 C675 389 663 375 612 377 L557 377 L557 608 L681 608 C742 610 761 590 795 494 L847 494 L837 667 L218 667 L218 613 L242 613 C280 613 297 606 297 591 C297 579 289 556 275 528 L101 179 C54 90 20 56 -23 55 L-23 0 L183 0 L183 55 L178 55 C151 55 130 69 130 88 C130 102 136 119 146 139 L149 144 L234 318 L383 318 Z M383 377 L265 377 L383 625 L383 377 Z " />
<glyph glyph-name="Ccedilla" unicode="&#xc7;" horiz-adv-x="704" d="M650 6 L650 256 L598 256 C591 224 578 186 563 155 C534 94 468 51 402 51 C347 51 295 80 270 125 C246 167 235 229 235 328 C235 433 246 496 273 543 C299 590 343 615 398 615 C494 615 561 544 590 412 L641 412 L635 658 L584 658 C583 656 583 656 583 654 C578 634 572 618 564 599 C509 654 447 679 367 679 C179 679 39 529 39 328 C39 146 158 5 327 -12 C322 -59 316 -91 308 -114 C336 -115 354 -132 354 -155 C354 -177 339 -188 311 -188 C288 -188 269 -185 241 -177 C238 -201 238 -205 233 -227 C257 -236 281 -240 310 -240 C405 -240 464 -201 464 -139 C464 -88 430 -55 373 -49 C376 -29 378 -21 379 -13 C449 -12 528 22 571 70 C583 54 591 35 598 6 L650 6 Z " />
<glyph glyph-name="Egrave" unicode="&#xc8;" horiz-adv-x="638" d="M558 219 C528 99 485 57 392 59 L376 59 C299 60 279 80 283 154 L283 319 L343 319 C395 318 410 301 411 243 L411 235 L463 235 L463 461 L411 461 L411 455 C408 394 394 379 341 378 L283 378 L283 608 L399 608 C471 609 491 590 523 494 L575 494 L566 667 L26 667 L26 613 L37 613 C91 611 108 591 109 531 L109 136 C111 79 90 55 37 55 L26 55 L26 0 L606 0 L610 219 L558 219 Z M397 732 L436 732 L337 892 L138 892 L138 880 L397 732 Z " />
<glyph glyph-name="Eacute" unicode="&#xc9;" horiz-adv-x="638" d="M558 219 C528 99 485 57 392 59 L376 59 C299 60 279 80 283 154 L283 319 L343 319 C395 318 410 301 411 243 L411 235 L463 235 L463 461 L411 461 L411 455 C408 394 394 379 341 378 L283 378 L283 608 L399 608 C471 609 491 590 523 494 L575 494 L566 667 L26 667 L26 613 L37 613 C91 611 108 591 109 531 L109 136 C111 79 90 55 37 55 L26 55 L26 0 L606 0 L610 219 L558 219 Z M254 732 L294 732 L553 880 L553 892 L353 892 L254 732 Z " />
<glyph glyph-name="Ecircumflex" unicode="&#xca;" horiz-adv-x="638" d="M558 219 C528 99 485 57 392 59 L376 59 C299 60 279 80 283 154 L283 319 L343 319 C395 318 410 301 411 243 L411 235 L463 235 L463 461 L411 461 L411 455 C408 394 394 379 341 378 L283 378 L283 608 L399 608 C471 609 491 590 523 494 L575 494 L566 667 L26 667 L26 613 L37 613 C91 611 108 591 109 531 L109 136 C111 79 90 55 37 55 L26 55 L26 0 L606 0 L610 219 L558 219 Z M229 887 L128 728 L167 728 L322 821 L486 728 L524 728 L421 887 L229 887 Z " />
<glyph glyph-name="Edieresis" unicode="&#xcb;" horiz-adv-x="638" d="M558 219 C528 99 485 57 392 59 L376 59 C299 60 279 80 283 154 L283 319 L343 319 C395 318 410 301 411 243 L411 235 L463 235 L463 461 L411 461 L411 455 C408 394 394 379 341 378 L283 378 L283 608 L399 608 C471 609 491 590 523 494 L575 494 L566 667 L26 667 L26 613 L37 613 C91 611 108 591 109 531 L109 136 C111 79 90 55 37 55 L26 55 L26 0 L606 0 L610 219 L558 219 Z M188 880 C145 880 111 846 111 803 C111 761 146 726 187 726 C231 726 265 760 265 803 C265 846 231 880 188 880 L188 880 Z M447 880 C405 880 370 846 370 804 C370 760 404 726 447 726 C490 726 524 760 524 803 C524 846 490 880 447 880 L447 880 Z " />
<glyph glyph-name="Igrave" unicode="&#xcc;" horiz-adv-x="387" d="M26 612 L33 612 C88 611 103 594 105 531 L105 136 C104 75 88 57 33 55 L26 55 L26 0 L361 0 L361 55 L352 55 C296 57 280 75 279 136 L279 531 C281 594 296 611 352 612 L361 612 L361 667 L26 667 L26 612 Z M283 732 L323 732 L224 892 L24 892 L24 880 L283 732 Z " />
<glyph glyph-name="Iacute" unicode="&#xcd;" horiz-adv-x="387" d="M26 612 L33 612 C88 611 103 594 105 531 L105 136 C104 75 88 57 33 55 L26 55 L26 0 L361 0 L361 55 L352 55 C296 57 280 75 279 136 L279 531 C281 594 296 611 352 612 L361 612 L361 667 L26 667 L26 612 Z M134 732 L174 732 L433 880 L433 892 L234 892 L134 732 Z " />
<glyph glyph-name="Icircumflex" unicode="&#xce;" horiz-adv-x="387" d="M26 612 L33 612 C88 611 103 594 105 531 L105 136 C104 75 88 57 33 55 L26 55 L26 0 L361 0 L361 55 L352 55 C296 57 280 75 279 136 L279 531 C281 594 296 611 352 612 L361 612 L361 667 L26 667 L26 612 Z M98 887 L-2 728 L36 728 L192 821 L356 728 L394 728 L291 887 L98 887 Z " />
<glyph glyph-name="Idieresis" unicode="&#xcf;" horiz-adv-x="387" d="M26 612 L33 612 C88 611 103 594 105 531 L105 136 C104 75 88 57 33 55 L26 55 L26 0 L361 0 L361 55 L352 55 C296 57 280 75 279 136 L279 531 C281 594 296 611 352 612 L361 612 L361 667 L26 667 L26 612 Z M83 880 C40 880 6 846 6 803 C6 761 41 726 82 726 C126 726 160 760 160 803 C160 846 126 880 83 880 L83 880 Z M304 880 C262 880 227 846 227 804 C227 760 261 726 304 726 C347 726 381 761 381 803 C381 846 347 880 304 880 L304 880 Z " />
<glyph glyph-name="Eth" unicode="&#xd0;" horiz-adv-x="760" d="M106 365 L22 365 L22 301 L106 301 L106 136 C107 76 89 56 36 55 L29 55 L29 0 L258 0 C424 1 461 4 508 19 C640 63 720 180 720 330 C720 455 660 566 566 617 C491 658 403 673 240 673 C199 673 142 672 91 670 L84 670 C73 670 70 670 55 669 C38 668 35 668 29 667 L29 613 L36 613 C89 612 104 594 106 531 L106 365 Z M280 365 L280 615 C284 616 289 616 295 616 C364 616 405 603 443 570 C495 523 521 445 521 331 C521 227 501 147 464 105 C439 77 393 59 345 59 C319 59 301 68 290 86 C282 101 280 114 280 156 L280 301 L404 301 L404 365 L280 365 Z " />
<glyph glyph-name="Ntilde" unicode="&#xd1;" horiz-adv-x="745" d="M641 -11 L641 501 C639 572 659 600 718 612 L725 612 L725 667 L488 667 L488 612 L494 612 C552 610 580 572 578 503 L578 259 L237 667 L24 667 L24 612 L28 612 C82 612 110 579 112 511 L112 170 C112 118 111 110 102 95 C89 72 59 54 33 55 L31 55 L27 55 L27 0 L263 0 L263 55 L257 55 L251 55 C193 62 171 96 175 171 L175 477 L578 -11 L641 -11 Z M236 724 C245 764 255 775 281 775 C295 775 312 769 346 752 C388 731 422 721 455 721 C519 721 562 771 562 846 C562 851 562 861 561 869 L523 869 C516 834 502 815 482 815 C465 815 435 825 401 843 C365 861 332 870 302 870 C237 870 196 822 196 745 L196 724 L236 724 Z " />
<glyph glyph-name="Ograve" unicode="&#xd2;" horiz-adv-x="787" d="M400 679 C298 679 214 650 150 592 C81 530 39 429 39 328 C39 241 70 159 125 95 C188 25 282 -14 393 -14 C491 -14 580 17 640 73 C708 137 748 231 748 330 C748 419 717 503 660 568 C596 641 507 679 400 679 L400 679 Z M393 615 C498 615 544 524 544 317 C544 227 531 155 508 115 C484 73 444 50 396 50 C347 50 308 73 282 118 C256 163 244 233 244 337 C244 525 292 615 393 615 L393 615 Z M456 732 L495 732 L396 892 L197 892 L197 880 L456 732 Z " />
<glyph glyph-name="Oacute" unicode="&#xd3;" horiz-adv-x="787" d="M400 679 C298 679 214 650 150 592 C81 530 39 429 39 328 C39 241 70 159 125 95 C188 25 282 -14 393 -14 C491 -14 580 17 640 73 C708 137 748 231 748 330 C748 419 717 503 660 568 C596 641 507 679 400 679 L400 679 Z M393 615 C498 615 544 524 544 317 C544 227 531 155 508 115 C484 73 444 50 396 50 C347 50 308 73 282 118 C256 163 244 233 244 337 C244 525 292 615 393 615 L393 615 Z M337 732 L376 732 L635 880 L635 892 L436 892 L337 732 Z " />
<glyph glyph-name="Ocircumflex" unicode="&#xd4;" horiz-adv-x="787" d="M400 679 C298 679 214 650 150 592 C81 530 39 429 39 328 C39 241 70 159 125 95 C188 25 282 -14 393 -14 C491 -14 580 17 640 73 C708 137 748 231 748 330 C748 419 717 503 660 568 C596 641 507 679 400 679 L400 679 Z M393 615 C498 615 544 524 544 317 C544 227 531 155 508 115 C484 73 444 50 396 50 C347 50 308 73 282 118 C256 163 244 233 244 337 C244 525 292 615 393 615 L393 615 Z M302 887 L202 728 L241 728 L396 821 L560 728 L598 728 L495 887 L302 887 Z " />
<glyph glyph-name="Otilde" unicode="&#xd5;" horiz-adv-x="787" d="M400 679 C298 679 214 650 150 592 C81 530 39 429 39 328 C39 241 70 159 125 95 C188 25 282 -14 393 -14 C491 -14 580 17 640 73 C708 137 748 231 748 330 C748 419 717 503 660 568 C596 641 507 679 400 679 L400 679 Z M393 615 C498 615 544 524 544 317 C544 227 531 155 508 115 C484 73 444 50 396 50 C347 50 308 73 282 118 C256 163 244 233 244 337 C244 525 292 615 393 615 L393 615 Z M259 724 C268 764 278 775 304 775 C318 775 335 769 369 752 C411 731 445 721 478 721 C542 721 585 771 585 846 C585 851 585 861 584 869 L546 869 C539 834 525 815 505 815 C488 815 458 825 424 843 C388 861 355 870 325 870 C260 870 219 822 219 745 L219 724 L259 724 Z " />
<glyph glyph-name="Odieresis" unicode="&#xd6;" horiz-adv-x="787" d="M400 679 C298 679 214 650 150 592 C81 530 39 429 39 328 C39 241 70 159 125 95 C188 25 282 -14 393 -14 C491 -14 580 17 640 73 C708 137 748 231 748 330 C748 419 717 503 660 568 C596 641 507 679 400 679 L400 679 Z M393 615 C498 615 544 524 544 317 C544 227 531 155 508 115 C484 73 444 50 396 50 C347 50 308 73 282 118 C256 163 244 233 244 337 C244 525 292 615 393 615 L393 615 Z M264 880 C221 880 187 846 187 803 C187 761 222 726 263 726 C307 726 341 760 341 803 C341 846 307 880 264 880 L264 880 Z M523 880 C481 880 446 846 446 804 C446 760 480 726 523 726 C566 726 600 760 600 803 C600 846 566 880 523 880 L523 880 Z " />
<glyph glyph-name="multiply" unicode="&#xd7;" horiz-adv-x="475" d="M102 576 L42 513 L178 371 L39 226 L101 160 L239 306 L376 162 L436 225 L298 368 L437 513 L375 579 L237 433 L102 576 Z " />
<glyph glyph-name="Oslash" unicode="&#xd8;" horiz-adv-x="792" d="M644 588 L690 643 L653 680 L603 621 C547 659 475 679 397 679 C301 679 215 648 153 592 C84 529 42 429 42 330 C42 231 79 141 147 76 L147 75 L103 23 L143 -13 L189 43 C251 5 319 -14 397 -14 C495 -14 583 17 643 73 C711 137 751 231 751 330 C751 429 714 518 644 588 L644 588 Z M536 458 C544 414 547 374 547 321 C547 227 535 156 511 115 C487 73 447 50 399 50 C341 50 302 78 273 143 L536 458 Z M257 207 C250 256 247 296 247 341 C247 526 296 615 396 615 C456 615 495 586 520 522 L257 207 Z " />
<glyph glyph-name="Ugrave" unicode="&#xd9;" horiz-adv-x="737" d="M475 667 L475 612 L481 612 C539 613 574 574 572 510 L572 286 C572 201 567 167 548 134 C519 84 469 55 411 55 C357 55 312 80 287 124 C269 157 263 192 263 268 L263 531 C265 593 280 611 337 612 L347 612 L347 667 L16 667 L16 612 L23 612 C80 611 96 593 98 531 L98 281 L98 268 C97 181 108 136 142 89 C190 22 270 -14 369 -14 C441 -14 511 9 557 48 C607 91 635 171 635 274 L635 284 L635 499 L635 507 C633 574 653 599 715 612 L720 612 L720 667 L475 667 Z M437 732 L476 732 L377 892 L177 892 L177 880 L437 732 Z " />
<glyph glyph-name="Uacute" unicode="&#xda;" horiz-adv-x="737" d="M475 667 L475 612 L481 612 C539 613 574 574 572 510 L572 286 C572 201 567 167 548 134 C519 84 469 55 411 55 C357 55 312 80 287 124 C269 157 263 192 263 268 L263 531 C265 593 280 611 337 612 L347 612 L347 667 L16 667 L16 612 L23 612 C80 611 96 593 98 531 L98 281 L98 268 C97 181 108 136 142 89 C190 22 270 -14 369 -14 C441 -14 511 9 557 48 C607 91 635 171 635 274 L635 284 L635 499 L635 507 C633 574 653 599 715 612 L720 612 L720 667 L475 667 Z M330 732 L369 732 L629 880 L629 892 L429 892 L330 732 Z " />
<glyph glyph-name="Ucircumflex" unicode="&#xdb;" horiz-adv-x="737" d="M475 667 L475 612 L481 612 C539 613 574 574 572 510 L572 286 C572 201 567 167 548 134 C519 84 469 55 411 55 C357 55 312 80 287 124 C269 157 263 192 263 268 L263 531 C265 593 280 611 337 612 L347 612 L347 667 L16 667 L16 612 L23 612 C80 611 96 593 98 531 L98 281 L98 268 C97 181 108 136 142 89 C190 22 270 -14 369 -14 C441 -14 511 9 557 48 C607 91 635 171 635 274 L635 284 L635 499 L635 507 C633 574 653 599 715 612 L720 612 L720 667 L475 667 Z M287 887 L187 728 L226 728 L381 821 L545 728 L583 728 L480 887 L287 887 Z " />
<glyph glyph-name="Udieresis" unicode="&#xdc;" horiz-adv-x="737" d="M475 667 L475 612 L481 612 C539 613 574 574 572 510 L572 286 C572 201 567 167 548 134 C519 84 469 55 411 55 C357 55 312 80 287 124 C269 157 263 192 263 268 L263 531 C265 593 280 611 337 612 L347 612 L347 667 L16 667 L16 612 L23 612 C80 611 96 593 98 531 L98 281 L98 268 C97 181 108 136 142 89 C190 22 270 -14 369 -14 C441 -14 511 9 557 48 C607 91 635 171 635 274 L635 284 L635 499 L635 507 C633 574 653 599 715 612 L720 612 L720 667 L475 667 Z M264 880 C221 880 187 846 187 803 C187 761 222 726 263 726 C307 726 341 760 341 803 C341 846 307 880 264 880 L264 880 Z M522 880 C480 880 445 846 445 804 C445 760 479 726 522 726 C565 726 599 760 599 803 C599 846 565 880 522 880 L522 880 Z " />
<glyph glyph-name="Yacute" unicode="&#xdd;" horiz-adv-x="632" d="M-12 667 L-12 612 L-7 612 C35 609 51 594 90 525 L228 273 L228 136 C227 75 211 57 156 55 L146 55 L146 0 L485 0 L485 55 L476 55 C421 57 406 74 405 136 L405 284 L520 489 L527 500 C586 596 599 608 640 612 L644 612 L644 667 L426 667 L426 612 L431 612 C467 612 487 597 487 571 C487 556 481 536 471 517 L381 353 L273 534 C259 557 253 571 253 583 C253 603 269 612 301 612 L306 612 L306 667 L-12 667 Z M297 732 L336 732 L595 880 L595 892 L396 892 L297 732 Z " />
<glyph glyph-name="Thorn" unicode="&#xde;" horiz-adv-x="642" d="M374 667 L26 667 L26 612 L41 612 C96 611 111 594 113 531 L113 136 C112 75 97 57 41 55 L30 55 L30 0 L374 0 L374 55 L360 55 C300 58 287 72 287 136 L287 145 L332 145 L362 145 C402 145 437 148 465 155 C563 178 617 241 617 333 C617 398 586 455 535 484 C484 513 431 523 321 523 L313 523 C309 523 303 523 287 522 C287 595 298 609 360 612 L374 612 L374 667 Z M287 204 L287 463 L289 463 L298 463 C344 463 372 455 391 435 C415 411 428 372 428 325 C428 288 417 251 401 232 C386 214 355 204 316 204 L287 204 Z " />
<glyph glyph-name="germandbls" unicode="&#xdf;" horiz-adv-x="590" d="M71 118 C70 64 62 55 18 52 L15 52 L15 0 L267 0 L267 52 L263 52 C238 55 231 66 230 107 L230 510 C230 598 246 625 299 625 C316 625 332 620 343 611 C360 596 372 555 372 513 C372 460 358 420 335 407 C325 402 303 395 295 395 L294 395 L292 395 L292 343 L298 343 C322 344 350 326 365 300 C383 266 389 225 390 137 L390 111 L390 104 C390 62 379 39 360 39 C347 39 337 52 333 73 C331 88 327 94 317 94 C305 94 296 81 296 66 C296 22 336 -9 392 -9 C488 -9 555 66 555 173 C555 273 498 342 393 371 C476 392 525 446 525 517 C525 616 440 679 305 679 C211 679 150 656 111 607 C83 571 71 519 71 432 L71 118 Z " />
<glyph glyph-name="agrave" unicode="&#xe0;" horiz-adv-x="537" d="M496 90 C493 72 483 62 470 62 C454 62 446 76 446 105 L446 291 C446 338 442 354 422 376 C395 406 348 419 270 419 C204 419 157 411 117 392 C73 371 48 342 48 311 C48 280 71 259 104 259 C140 259 159 276 164 312 C167 331 172 344 178 349 C188 357 209 363 228 363 C272 363 288 347 288 303 L288 266 L268 259 C262 256 251 252 237 247 C165 223 106 191 67 155 C48 138 35 108 35 82 C35 25 78 -10 147 -10 C201 -10 252 8 297 43 C317 8 357 -10 411 -10 C486 -10 531 26 534 90 L496 90 Z M288 211 L288 96 C270 74 250 62 231 62 C206 62 186 84 186 112 C186 151 215 179 285 210 L288 211 Z M364 486 L299 643 L120 643 L120 632 L322 486 L364 486 Z " />
<glyph glyph-name="aacute" unicode="&#xe1;" horiz-adv-x="537" d="M496 90 C493 72 483 62 470 62 C454 62 446 76 446 105 L446 291 C446 338 442 354 422 376 C395 406 348 419 270 419 C204 419 157 411 117 392 C73 371 48 342 48 311 C48 280 71 259 104 259 C140 259 159 276 164 312 C167 331 172 344 178 349 C188 357 209 363 228 363 C272 363 288 347 288 303 L288 266 L268 259 C262 256 251 252 237 247 C165 223 106 191 67 155 C48 138 35 108 35 82 C35 25 78 -10 147 -10 C201 -10 252 8 297 43 C317 8 357 -10 411 -10 C486 -10 531 26 534 90 L496 90 Z M288 211 L288 96 C270 74 250 62 231 62 C206 62 186 84 186 112 C186 151 215 179 285 210 L288 211 Z M238 486 L281 486 L482 632 L482 643 L304 643 L238 486 Z " />
<glyph glyph-name="acircumflex" unicode="&#xe2;" horiz-adv-x="537" d="M496 90 C493 72 483 62 470 62 C454 62 446 76 446 105 L446 291 C446 338 442 354 422 376 C395 406 348 419 270 419 C204 419 157 411 117 392 C73 371 48 342 48 311 C48 280 71 259 104 259 C140 259 159 276 164 312 C167 331 172 344 178 349 C188 357 209 363 228 363 C272 363 288 347 288 303 L288 266 L268 259 C262 256 251 252 237 247 C165 223 106 191 67 155 C48 138 35 108 35 82 C35 25 78 -10 147 -10 C201 -10 252 8 297 43 C317 8 357 -10 411 -10 C486 -10 531 26 534 90 L496 90 Z M288 211 L288 96 C270 74 250 62 231 62 C206 62 186 84 186 112 C186 151 215 179 285 210 L288 211 Z M383 484 L426 484 L343 647 L211 647 L121 484 L162 484 L276 568 L383 484 Z " />
<glyph glyph-name="atilde" unicode="&#xe3;" horiz-adv-x="537" d="M496 90 C493 72 483 62 470 62 C454 62 446 76 446 105 L446 291 C446 338 442 354 422 376 C395 406 348 419 270 419 C204 419 157 411 117 392 C73 371 48 342 48 311 C48 280 71 259 104 259 C140 259 159 276 164 312 C167 331 172 344 178 349 C188 357 209 363 228 363 C272 363 288 347 288 303 L288 266 L268 259 C262 256 251 252 237 247 C165 223 106 191 67 155 C48 138 35 108 35 82 C35 25 78 -10 147 -10 C201 -10 252 8 297 43 C317 8 357 -10 411 -10 C486 -10 531 26 534 90 L496 90 Z M288 211 L288 96 C270 74 250 62 231 62 C206 62 186 84 186 112 C186 151 215 179 285 210 L288 211 Z M158 493 C165 518 177 529 196 529 C214 529 240 522 270 510 C296 499 323 493 343 493 C398 493 429 541 433 633 L395 633 C393 605 377 588 356 588 C339 588 314 595 286 606 C259 617 234 623 213 623 C186 623 152 604 140 583 C127 561 122 534 121 493 L158 493 Z " />
<glyph glyph-name="adieresis" unicode="&#xe4;" horiz-adv-x="537" d="M496 90 C493 72 483 62 470 62 C454 62 446 76 446 105 L446 291 C446 338 442 354 422 376 C395 406 348 419 270 419 C204 419 157 411 117 392 C73 371 48 342 48 311 C48 280 71 259 104 259 C140 259 159 276 164 312 C167 331 172 344 178 349 C188 357 209 363 228 363 C272 363 288 347 288 303 L288 266 L268 259 C262 256 251 252 237 247 C165 223 106 191 67 155 C48 138 35 108 35 82 C35 25 78 -10 147 -10 C201 -10 252 8 297 43 C317 8 357 -10 411 -10 C486 -10 531 26 534 90 L496 90 Z M288 211 L288 96 C270 74 250 62 231 62 C206 62 186 84 186 112 C186 151 215 179 285 210 L288 211 Z M162 637 C123 637 92 606 92 568 C92 530 123 498 161 498 C200 498 231 529 231 568 C231 606 200 637 162 637 L162 637 Z M378 637 C339 637 308 606 308 567 C308 530 339 498 376 498 C416 498 447 529 447 568 C447 606 416 637 378 637 L378 637 Z " />
<glyph glyph-name="aring" unicode="&#xe5;" horiz-adv-x="537" d="M496 90 C493 72 483 62 470 62 C454 62 446 76 446 105 L446 291 C446 338 442 354 422 376 C395 406 348 419 270 419 C204 419 157 411 117 392 C73 371 48 342 48 311 C48 280 71 259 104 259 C140 259 159 276 164 312 C167 331 172 344 178 349 C188 357 209 363 228 363 C272 363 288 347 288 303 L288 266 L268 259 C262 256 251 252 237 247 C165 223 106 191 67 155 C48 138 35 108 35 82 C35 25 78 -10 147 -10 C201 -10 252 8 297 43 C317 8 357 -10 411 -10 C486 -10 531 26 534 90 L496 90 Z M288 211 L288 96 C270 74 250 62 231 62 C206 62 186 84 186 112 C186 151 215 179 285 210 L288 211 Z M276 682 C217 682 169 634 169 575 C169 518 217 469 274 469 C334 469 382 516 382 576 C382 634 334 682 276 682 L276 682 Z M276 633 C307 633 333 607 333 576 C333 544 307 518 275 518 C243 518 218 544 218 576 C218 607 244 633 276 633 L276 633 Z " />
<glyph glyph-name="ae" unicode="&#xe6;" horiz-adv-x="717" d="M627 105 C599 70 565 52 529 52 C470 52 434 108 434 196 L434 206 L685 206 C682 263 672 301 649 337 C618 387 554 419 486 419 C450 419 420 412 390 395 C328 416 310 419 253 419 C129 419 43 375 43 312 C43 282 68 262 102 262 C135 262 158 281 162 311 C165 336 165 337 170 345 C178 356 198 364 219 364 C244 364 263 355 273 338 C280 327 281 319 281 293 L281 266 C206 238 153 215 123 197 C63 162 35 125 35 82 C35 31 83 -9 144 -9 C198 -9 257 15 317 62 C362 15 420 -9 490 -9 C569 -9 635 22 671 77 L627 105 Z M545 256 L434 256 C435 306 438 324 450 345 C457 357 474 366 489 366 C509 366 527 352 537 328 C542 314 544 301 545 266 L545 256 Z M281 95 C265 77 244 65 225 65 C203 65 185 87 185 114 C185 151 213 179 281 211 L281 95 Z " />
<glyph glyph-name="ccedilla" unicode="&#xe7;" horiz-adv-x="470" d="M400 124 C380 74 346 49 298 49 C229 49 200 100 200 223 C200 319 227 366 281 366 C304 366 315 357 320 334 C331 279 349 258 383 258 C415 258 439 286 439 322 C439 381 379 419 284 419 C137 419 32 325 32 194 C32 78 113 -5 233 -15 C229 -56 226 -78 219 -102 C241 -104 254 -118 254 -139 C254 -159 243 -169 221 -169 C204 -169 190 -166 169 -159 C167 -181 167 -184 163 -205 C180 -212 199 -216 220 -216 C292 -216 336 -182 336 -125 C336 -79 311 -49 268 -44 C270 -29 271 -24 272 -15 C360 -10 424 33 448 102 L400 124 Z " />
<glyph glyph-name="egrave" unicode="&#xe8;" horiz-adv-x="490" d="M402 104 C375 66 338 45 300 45 C235 45 196 99 196 190 C196 195 196 200 197 206 L458 206 L458 218 C458 339 377 419 254 419 C126 419 35 329 35 204 C35 76 129 -16 258 -16 C334 -16 409 21 446 77 L402 104 Z M314 255 L197 255 C199 310 202 325 213 344 C220 356 238 365 254 365 C293 365 314 328 314 262 L314 255 Z M333 486 L267 643 L88 643 L88 632 L290 486 L333 486 Z " />
<glyph glyph-name="eacute" unicode="&#xe9;" horiz-adv-x="490" d="M402 104 C375 66 338 45 300 45 C235 45 196 99 196 190 C196 195 196 200 197 206 L458 206 L458 218 C458 339 377 419 254 419 C126 419 35 329 35 204 C35 76 129 -16 258 -16 C334 -16 409 21 446 77 L402 104 Z M314 255 L197 255 C199 310 202 325 213 344 C220 356 238 365 254 365 C293 365 314 328 314 262 L314 255 Z M215 486 L257 486 L459 632 L459 643 L280 643 L215 486 Z " />
<glyph glyph-name="ecircumflex" unicode="&#xea;" horiz-adv-x="490" d="M402 104 C375 66 338 45 300 45 C235 45 196 99 196 190 C196 195 196 200 197 206 L458 206 L458 218 C458 339 377 419 254 419 C126 419 35 329 35 204 C35 76 129 -16 258 -16 C334 -16 409 21 446 77 L402 104 Z M314 255 L197 255 C199 310 202 325 213 344 C220 356 238 365 254 365 C293 365 314 328 314 262 L314 255 Z M366 484 L409 484 L326 647 L194 647 L104 484 L145 484 L259 568 L366 484 Z " />
<glyph glyph-name="edieresis" unicode="&#xeb;" horiz-adv-x="490" d="M402 104 C375 66 338 45 300 45 C235 45 196 99 196 190 C196 195 196 200 197 206 L458 206 L458 218 C458 339 377 419 254 419 C126 419 35 329 35 204 C35 76 129 -16 258 -16 C334 -16 409 21 446 77 L402 104 Z M314 255 L197 255 C199 310 202 325 213 344 C220 356 238 365 254 365 C293 365 314 328 314 262 L314 255 Z M156 637 C117 637 86 606 86 568 C86 530 117 498 155 498 C194 498 225 529 225 568 C225 606 194 637 156 637 L156 637 Z M371 637 C332 637 301 606 301 567 C301 530 332 498 369 498 C409 498 440 529 440 568 C440 606 409 637 371 637 L371 637 Z " />
<glyph glyph-name="igrave" unicode="&#xec;" horiz-adv-x="310" d="M237 419 C209 413 209 413 121 398 C43 385 39 384 16 382 L16 330 L27 330 C75 327 86 315 87 264 L87 118 C86 67 74 54 27 52 L16 52 L16 0 L301 0 L301 52 L297 52 C255 54 243 68 242 118 L242 419 L237 419 Z M255 486 L190 643 L11 643 L11 632 L213 486 L255 486 Z " />
<glyph glyph-name="iacute" unicode="&#xed;" horiz-adv-x="310" d="M237 419 C209 413 209 413 121 398 C43 385 39 384 16 382 L16 330 L27 330 C75 327 86 315 87 264 L87 118 C86 67 74 54 27 52 L16 52 L16 0 L302 0 L302 52 L298 52 C255 54 243 68 242 118 L242 419 L237 419 Z M115 486 L157 486 L358 632 L358 643 L180 643 L115 486 Z " />
<glyph glyph-name="icircumflex" unicode="&#xee;" horiz-adv-x="310" d="M237 419 C209 413 209 413 121 398 C43 385 39 384 16 382 L16 330 L27 330 C75 327 86 315 87 264 L87 118 C86 67 74 54 27 52 L16 52 L16 0 L301 0 L301 52 L297 52 C255 54 243 68 242 118 L242 419 L237 419 Z M268 484 L311 484 L228 647 L95 647 L6 484 L46 484 L160 568 L268 484 Z " />
<glyph glyph-name="idieresis" unicode="&#xef;" horiz-adv-x="310" d="M237 419 C209 413 209 413 121 398 C43 385 39 384 16 382 L16 330 L27 330 C75 327 86 315 87 264 L87 118 C86 67 74 54 27 52 L16 52 L16 0 L302 0 L302 52 L298 52 C255 54 243 68 242 118 L242 419 L237 419 Z M73 637 C34 637 3 606 3 568 C3 530 34 498 72 498 C111 498 142 529 142 568 C142 606 111 637 73 637 L73 637 Z M246 637 C207 637 176 606 176 567 C176 530 207 498 244 498 C284 498 315 529 315 568 C315 606 284 637 246 637 L246 637 Z " />
<glyph glyph-name="eth" unicode="&#xf0;" horiz-adv-x="536" d="M151 604 C184 583 189 580 218 557 L129 508 L151 461 L257 519 C282 492 313 438 322 406 C304 414 291 417 265 417 C129 417 35 329 35 201 C35 73 129 -14 267 -14 C416 -14 501 79 501 243 C501 368 455 474 358 573 L426 611 L402 658 L317 611 C288 634 257 652 206 677 L151 604 Z M268 361 C310 361 331 309 331 204 C331 94 311 41 268 41 C221 41 203 89 203 215 C203 312 225 361 268 361 L268 361 Z " />
<glyph glyph-name="ntilde" unicode="&#xf1;" horiz-adv-x="579" d="M224 408 C198 402 179 399 155 395 C119 390 80 383 18 372 L18 320 L22 320 C61 319 75 303 77 260 L77 118 C76 66 66 54 22 52 L20 52 L20 0 L280 0 L280 52 L278 52 C247 55 237 70 236 118 L236 273 C268 319 288 335 313 335 C339 335 355 314 355 281 L355 274 L355 118 C354 71 346 58 314 53 L311 52 L311 0 L571 0 L571 52 L567 52 C528 54 517 68 516 118 L516 258 C516 309 511 334 498 358 C477 395 430 419 379 419 C326 419 276 395 238 350 C237 377 234 395 229 408 L224 408 Z M177 493 C184 518 195 529 215 529 C233 529 259 522 289 510 C315 499 342 493 362 493 C417 493 451 546 452 633 L414 633 C411 605 396 588 375 588 C358 588 332 595 304 606 C278 617 253 623 232 623 C205 623 171 604 159 583 C146 561 141 534 140 493 L177 493 Z " />
<glyph glyph-name="ograve" unicode="&#xf2;" horiz-adv-x="537" d="M270 419 C130 419 35 331 35 201 C35 142 53 93 87 56 C129 11 197 -16 267 -16 C405 -16 502 75 502 204 C502 261 485 308 451 344 C408 391 340 419 270 419 L270 419 Z M269 364 C294 364 313 349 323 322 C330 302 334 254 334 193 C334 85 314 38 269 38 C222 38 203 87 203 209 C203 277 208 310 221 335 C231 353 249 364 269 364 L269 364 Z M370 486 L304 643 L125 643 L125 632 L327 486 L370 486 Z " />
<glyph glyph-name="oacute" unicode="&#xf3;" horiz-adv-x="537" d="M270 419 C130 419 35 331 35 201 C35 142 53 93 87 56 C129 11 197 -16 267 -16 C405 -16 502 75 502 204 C502 261 485 308 451 344 C408 391 340 419 270 419 L270 419 Z M269 364 C294 364 313 349 323 322 C330 302 334 254 334 193 C334 85 314 38 269 38 C222 38 203 87 203 209 C203 277 208 310 221 335 C231 353 249 364 269 364 L269 364 Z M235 486 L278 486 L479 632 L479 643 L301 643 L235 486 Z " />
<glyph glyph-name="ocircumflex" unicode="&#xf4;" horiz-adv-x="537" d="M270 419 C130 419 35 331 35 201 C35 142 53 93 87 56 C129 11 197 -16 267 -16 C405 -16 502 75 502 204 C502 261 485 308 451 344 C408 391 340 419 270 419 L270 419 Z M269 364 C294 364 313 349 323 322 C330 302 334 254 334 193 C334 85 314 38 269 38 C222 38 203 87 203 209 C203 277 208 310 221 335 C231 353 249 364 269 364 L269 364 Z M386 484 L430 484 L346 647 L214 647 L125 484 L165 484 L279 568 L386 484 Z " />
<glyph glyph-name="otilde" unicode="&#xf5;" horiz-adv-x="537" d="M270 419 C130 419 35 331 35 201 C35 142 53 93 87 56 C129 11 197 -16 267 -16 C405 -16 502 75 502 204 C502 261 485 308 451 344 C408 391 340 419 270 419 L270 419 Z M269 364 C294 364 313 349 323 322 C330 302 334 254 334 193 C334 85 314 38 269 38 C222 38 203 87 203 209 C203 277 208 310 221 335 C231 353 249 364 269 364 L269 364 Z M157 493 C164 518 176 529 195 529 C213 529 240 522 269 510 C296 499 323 493 342 493 C396 493 437 553 433 625 C433 627 433 630 432 633 L394 633 C392 605 376 588 355 588 C338 588 313 595 285 606 C258 617 233 623 212 623 C185 623 151 604 139 583 C127 561 121 534 120 493 L157 493 Z " />
<glyph glyph-name="odieresis" unicode="&#xf6;" horiz-adv-x="537" d="M270 419 C130 419 35 331 35 201 C35 142 53 93 87 56 C129 11 197 -16 267 -16 C405 -16 502 75 502 204 C502 261 485 308 451 344 C408 391 340 419 270 419 L270 419 Z M269 364 C294 364 313 349 323 322 C330 302 334 254 334 193 C334 85 314 38 269 38 C222 38 203 87 203 209 C203 277 208 310 221 335 C231 353 249 364 269 364 L269 364 Z M166 637 C127 637 96 606 96 568 C96 530 127 498 165 498 C204 498 235 529 235 568 C235 606 204 637 166 637 L166 637 Z M381 637 C342 637 311 606 311 567 C311 530 342 498 379 498 C419 498 450 529 450 568 C450 606 419 637 381 637 L381 637 Z " />
<glyph glyph-name="divide" unicode="&#xf7;" horiz-adv-x="475" d="M2 414 L2 325 L473 325 L473 414 L2 414 Z M234 246 C190 246 154 209 154 163 C154 117 190 79 232 79 C278 79 313 116 313 163 C313 209 278 246 234 246 L234 246 Z M234 641 C190 641 154 604 154 559 C154 511 189 474 234 474 C277 474 313 511 313 558 C313 604 278 641 234 641 L234 641 Z " />
<glyph glyph-name="oslash" unicode="&#xf8;" horiz-adv-x="537" d="M390 390 C350 410 312 419 267 419 C130 419 35 329 35 200 C35 133 57 82 102 42 L65 -3 L103 -38 L145 13 C186 -7 223 -16 268 -16 C405 -16 502 75 502 204 C502 271 482 319 434 362 L471 407 L434 442 L391 390 L390 390 Z M204 165 C203 189 203 195 203 214 C203 322 222 364 269 364 C297 364 316 346 326 312 L204 165 Z M333 240 C334 225 334 205 334 193 C334 85 314 38 269 38 C241 38 223 56 212 94 L333 240 Z " />
<glyph glyph-name="ugrave" unicode="&#xf9;" horiz-adv-x="566" d="M498 403 L287 403 L287 351 L290 351 C329 349 338 337 339 285 L339 131 C339 129 338 128 335 123 C334 122 334 121 333 119 C313 85 291 68 267 68 C241 68 228 92 228 140 L228 403 L9 403 L9 351 L12 351 C54 349 68 333 69 285 L69 131 C69 87 73 67 86 44 C107 7 151 -16 200 -16 C254 -16 302 9 339 55 L339 51 L339 50 L339 41 L339 29 L339 27 L339 19 L339 16 L339 10 L339 -3 L339 -5 L339 -12 L339 -13 L339 -16 L344 -16 C373 -8 498 1 556 0 L556 52 L553 52 C511 54 499 67 498 118 L498 403 Z M383 486 L318 643 L139 643 L139 632 L341 486 L383 486 Z " />
<glyph glyph-name="uacute" unicode="&#xfa;" horiz-adv-x="566" d="M498 403 L287 403 L287 351 L290 351 C329 349 338 337 339 285 L339 131 C339 129 338 128 335 123 C334 122 334 121 333 119 C313 85 291 68 267 68 C241 68 228 92 228 140 L228 403 L9 403 L9 351 L12 351 C54 349 68 333 69 285 L69 131 C69 87 73 67 86 44 C107 7 151 -16 200 -16 C254 -16 302 9 339 55 L339 51 L339 50 L339 41 L339 29 L339 27 L339 19 L339 16 L339 10 L339 -3 L339 -5 L339 -12 L339 -13 L339 -16 L344 -16 C373 -8 498 1 556 0 L556 52 L553 52 C511 54 499 67 498 118 L498 403 Z M240 486 L283 486 L484 632 L484 643 L306 643 L240 486 Z " />
<glyph glyph-name="ucircumflex" unicode="&#xfb;" horiz-adv-x="566" d="M498 403 L287 403 L287 351 L290 351 C329 349 338 337 339 285 L339 131 C339 129 338 128 335 123 C334 122 334 121 333 119 C313 85 291 68 267 68 C241 68 228 92 228 140 L228 403 L9 403 L9 351 L12 351 C54 349 68 333 69 285 L69 131 C69 87 73 67 86 44 C107 7 151 -16 200 -16 C254 -16 302 9 339 55 L339 51 L339 50 L339 41 L339 29 L339 27 L339 19 L339 16 L339 10 L339 -3 L339 -5 L339 -12 L339 -13 L339 -16 L344 -16 C373 -8 498 1 556 0 L556 52 L553 52 C511 54 499 67 498 118 L498 403 Z M387 484 L431 484 L348 647 L215 647 L126 484 L166 484 L280 568 L387 484 Z " />
<glyph glyph-name="udieresis" unicode="&#xfc;" horiz-adv-x="566" d="M498 403 L287 403 L287 351 L290 351 C329 349 338 337 339 285 L339 131 C339 129 338 128 335 123 C334 122 334 121 333 119 C313 85 291 68 267 68 C241 68 228 92 228 140 L228 403 L9 403 L9 351 L12 351 C54 349 68 333 69 285 L69 131 C69 87 73 67 86 44 C107 7 151 -16 200 -16 C254 -16 302 9 339 55 L339 51 L339 50 L339 41 L339 29 L339 27 L339 19 L339 16 L339 10 L339 -3 L339 -5 L339 -12 L339 -13 L339 -16 L344 -16 C373 -8 498 1 556 0 L556 52 L553 52 C511 54 499 67 498 118 L498 403 Z M179 637 C140 637 109 606 109 568 C109 530 140 498 178 498 C217 498 248 529 248 568 C248 606 217 637 179 637 L179 637 Z M395 637 C356 637 325 606 325 567 C325 530 356 498 393 498 C433 498 464 529 464 568 C464 606 433 637 395 637 L395 637 Z " />
<glyph glyph-name="yacute" unicode="&#xfd;" horiz-adv-x="498" d="M-6 403 L-6 351 L1 350 C21 349 33 337 55 296 L62 282 L228 -18 L217 -44 C195 -91 176 -104 109 -121 C65 -132 46 -151 46 -184 C46 -222 76 -251 114 -251 C137 -251 161 -242 178 -226 C197 -208 197 -208 246 -109 L252 -96 L399 230 C405 242 412 258 426 287 C447 332 463 349 485 350 L493 351 L493 403 L334 403 L334 351 L339 351 L343 351 C357 352 375 339 375 328 C375 321 371 308 364 291 L358 278 L298 139 L220 295 L218 299 L217 302 L216 305 C208 327 208 327 208 332 C208 344 216 350 235 351 L242 351 L242 403 L-6 403 Z M229 486 L271 486 L473 632 L473 643 L294 643 L229 486 Z " />
<glyph glyph-name="thorn" unicode="&#xfe;" horiz-adv-x="587" d="M10 588 L13 588 C57 586 69 573 70 522 L70 -120 C69 -171 58 -183 13 -185 L10 -185 L10 -237 L301 -237 L301 -185 L287 -185 C243 -183 230 -169 229 -120 L229 40 C274 1 314 -16 361 -16 C471 -16 552 79 552 206 C552 329 476 419 371 419 C319 419 270 395 226 349 L226 679 L221 679 C176 669 122 659 61 649 C44 647 29 644 10 640 L10 588 Z M229 100 L229 282 C250 323 279 346 311 346 C360 346 384 298 384 203 L384 198 L384 185 C384 141 380 117 367 95 C354 72 331 58 308 58 C280 58 251 73 229 100 L229 100 Z " />
<glyph glyph-name="ydieresis" unicode="&#xff;" horiz-adv-x="498" d="M-6 403 L-6 351 L1 350 C21 349 33 337 55 296 L62 282 L228 -18 L217 -44 C195 -91 176 -104 109 -121 C65 -132 46 -151 46 -184 C46 -222 76 -251 114 -251 C137 -251 161 -242 178 -226 C197 -208 197 -208 246 -109 L252 -96 L399 230 C405 242 412 258 426 287 C447 332 463 349 485 350 L493 351 L493 403 L334 403 L334 351 L339 351 L343 351 C357 352 375 339 375 328 C375 321 371 308 364 291 L358 278 L298 139 L220 295 L218 299 L217 302 L216 305 C208 327 208 327 208 332 C208 344 216 350 235 351 L242 351 L242 403 L-6 403 Z M157 637 C118 637 87 606 87 568 C87 530 118 498 156 498 C195 498 226 529 226 568 C226 606 195 637 157 637 L157 637 Z M373 637 C334 637 303 606 303 567 C303 530 334 498 371 498 C411 498 442 529 442 568 C442 606 411 637 373 637 L373 637 Z " />
<glyph glyph-name="Amacron" unicode="&#x100;" horiz-adv-x="622" d="M634 0 L634 55 L629 55 C585 60 569 78 535 162 L336 679 L282 679 L97 188 L93 177 C65 99 32 60 -7 55 L-13 55 L-13 0 L196 0 L196 55 L189 55 C154 55 130 70 130 92 C130 104 135 126 145 153 L155 180 L350 180 L369 131 C378 108 383 91 383 83 C383 64 364 55 325 55 L320 55 L320 0 L634 0 Z M329 236 L175 236 L250 436 L329 236 Z M137 818 L137 756 L484 756 L484 818 L137 818 Z " />
<glyph glyph-name="amacron" unicode="&#x101;" horiz-adv-x="537" d="M496 90 C493 72 483 62 470 62 C454 62 446 76 446 105 L446 291 C446 338 442 354 422 376 C395 406 348 419 270 419 C204 419 157 411 117 392 C73 371 48 342 48 311 C48 280 71 259 104 259 C140 259 159 276 164 312 C167 331 172 344 178 349 C188 357 209 363 228 363 C272 363 288 347 288 303 L288 266 L268 259 C262 256 251 252 237 247 C165 223 106 191 67 155 C48 138 35 108 35 82 C35 25 78 -10 147 -10 C201 -10 252 8 297 43 C317 8 357 -10 411 -10 C486 -10 531 26 534 90 L496 90 Z M288 211 L288 96 C270 74 250 62 231 62 C206 62 186 84 186 112 C186 151 215 179 285 210 L288 211 Z M108 591 L108 529 L424 529 L424 591 L108 591 Z " />
<glyph glyph-name="Abreve" unicode="&#x102;" horiz-adv-x="622" d="M634 0 L634 55 L629 55 C585 60 569 78 535 162 L336 679 L282 679 L97 188 L93 177 C65 99 32 60 -7 55 L-13 55 L-13 0 L196 0 L196 55 L189 55 C154 55 130 70 130 92 C130 104 135 126 145 153 L155 180 L350 180 L369 131 C378 108 383 91 383 83 C383 64 364 55 325 55 L320 55 L320 0 L634 0 Z M329 236 L175 236 L250 436 L329 236 Z M117 882 C149 785 224 725 315 725 C403 725 475 784 506 882 L448 882 C425 839 378 817 312 817 C244 817 204 836 176 882 L117 882 Z " />
<glyph glyph-name="abreve" unicode="&#x103;" horiz-adv-x="537" d="M496 90 C493 72 483 62 470 62 C454 62 446 76 446 105 L446 291 C446 338 442 354 422 376 C395 406 348 419 270 419 C204 419 157 411 117 392 C73 371 48 342 48 311 C48 280 71 259 104 259 C140 259 159 276 164 312 C167 331 172 344 178 349 C188 357 209 363 228 363 C272 363 288 347 288 303 L288 266 L268 259 C262 256 251 252 237 247 C165 223 106 191 67 155 C48 138 35 108 35 82 C35 25 78 -10 147 -10 C201 -10 252 8 297 43 C317 8 357 -10 411 -10 C486 -10 531 26 534 90 L496 90 Z M288 211 L288 96 C270 74 250 62 231 62 C206 62 186 84 186 112 C186 151 215 179 285 210 L288 211 Z M129 647 L129 642 C129 602 146 560 174 527 C203 494 238 478 280 478 C364 478 428 551 430 647 L397 647 C379 593 341 566 283 566 C222 566 180 595 163 647 L129 647 Z " />
<glyph glyph-name="Aogonek" unicode="&#x104;" horiz-adv-x="622" d="M634 0 L634 55 L629 55 C585 60 569 78 535 162 L336 679 L282 679 L97 188 L93 177 C65 99 32 60 -7 55 L-13 55 L-13 0 L196 0 L196 55 L189 55 C154 55 130 70 130 92 C130 104 135 126 145 153 L155 180 L350 180 L369 131 C378 108 383 91 383 83 C383 64 364 55 325 55 L320 55 L320 0 L507 0 C448 -33 418 -74 418 -122 C418 -177 467 -218 534 -218 C572 -218 601 -208 641 -180 L625 -150 C606 -157 597 -159 583 -159 C546 -159 521 -132 521 -94 C521 -60 534 -34 568 0 L634 0 Z M329 236 L175 236 L250 436 L329 236 Z " />
<glyph glyph-name="aogonek" unicode="&#x105;" horiz-adv-x="537" d="M496 90 C493 72 483 62 470 62 C454 62 446 76 446 105 L446 291 C446 338 442 354 422 376 C395 406 348 419 270 419 C204 419 157 411 117 392 C73 371 48 342 48 311 C48 280 71 259 104 259 C140 259 159 276 164 312 C167 331 172 344 178 349 C188 357 209 363 228 363 C272 363 288 347 288 303 L288 266 L268 259 C262 256 251 252 237 247 C165 223 106 191 67 155 C48 138 35 108 35 82 C35 25 78 -10 147 -10 C201 -10 252 8 297 43 C311 18 330 6 367 -4 C327 -31 304 -68 304 -107 C304 -158 349 -196 409 -196 C444 -196 471 -186 507 -160 L492 -132 C476 -139 467 -141 455 -141 C420 -141 397 -116 397 -80 C397 -55 405 -34 425 -9 C495 -2 532 31 534 90 L496 90 Z M288 211 L288 96 C270 74 250 62 231 62 C206 62 186 84 186 112 C186 151 215 179 285 210 L288 211 Z " />
<glyph glyph-name="Cacute" unicode="&#x106;" horiz-adv-x="704" d="M598 256 C591 224 578 186 563 155 C534 94 468 51 402 51 C347 51 295 80 270 125 C246 167 235 229 235 328 C235 433 246 496 273 543 C299 590 343 615 398 615 C494 615 561 544 590 412 L641 412 L635 658 L584 658 C583 656 583 656 583 654 C578 634 572 618 564 599 C509 654 447 679 367 679 C179 679 39 529 39 328 C39 131 176 -14 363 -14 C445 -14 524 18 571 70 C583 54 591 35 598 6 L650 6 L650 256 L598 256 Z M323 732 L363 732 L622 880 L622 892 L422 892 L323 732 Z " />
<glyph glyph-name="cacute" unicode="&#x107;" horiz-adv-x="470" d="M400 124 C381 74 346 49 298 49 C229 49 200 100 200 223 C200 319 227 366 281 366 C304 366 315 357 320 334 C331 279 349 258 383 258 C415 258 439 286 439 322 C439 381 379 419 284 419 C137 419 32 325 32 193 C32 70 124 -16 256 -16 C351 -16 420 27 448 102 L400 124 Z M219 486 L262 486 L463 632 L463 643 L284 643 L219 486 Z " />
<glyph glyph-name="Ccircumflex" unicode="&#x108;" horiz-adv-x="704" d="M598 256 C591 224 578 186 563 155 C534 94 468 51 402 51 C347 51 295 80 270 125 C246 167 235 229 235 328 C235 433 246 496 273 543 C299 590 343 615 398 615 C494 615 561 544 590 412 L641 412 L635 658 L584 658 C583 656 583 656 583 654 C578 634 572 618 564 599 C509 654 447 679 367 679 C179 679 39 529 39 328 C39 131 176 -14 363 -14 C445 -14 524 18 571 70 C583 54 591 35 598 6 L650 6 L650 256 L598 256 Z M283 887 L182 728 L221 728 L376 821 L540 728 L578 728 L475 887 L283 887 Z " />
<glyph glyph-name="Cdotaccent" unicode="&#x10a;" horiz-adv-x="704" d="M598 256 C591 224 578 186 563 155 C534 94 468 51 402 51 C347 51 295 80 270 125 C246 167 235 229 235 328 C235 433 246 496 273 543 C299 590 343 615 398 615 C494 615 561 544 590 412 L641 412 L635 658 L584 658 C583 656 583 656 583 654 C578 634 572 618 564 599 C509 654 447 679 367 679 C179 679 39 529 39 328 C39 131 176 -14 363 -14 C445 -14 524 18 571 70 C583 54 591 35 598 6 L650 6 L650 256 L598 256 Z M369 880 C326 880 292 846 292 803 C292 761 327 726 368 726 C412 726 446 760 446 803 C446 846 412 880 369 880 L369 880 Z " />
<glyph glyph-name="cdotaccent" unicode="&#x10b;" horiz-adv-x="470" d="M400 124 C381 74 346 49 298 49 C229 49 200 100 200 223 C200 319 227 366 281 366 C304 366 315 357 320 334 C331 279 349 258 383 258 C415 258 439 286 439 322 C439 381 379 419 284 419 C137 419 32 325 32 193 C32 70 124 -16 256 -16 C351 -16 420 27 448 102 L400 124 Z M276 637 C237 637 206 606 206 568 C206 530 237 498 275 498 C314 498 345 529 345 568 C345 606 314 637 276 637 L276 637 Z " />
<glyph glyph-name="Ccaron" unicode="&#x10c;" horiz-adv-x="704" d="M598 256 C591 224 578 186 563 155 C534 94 468 51 402 51 C347 51 295 80 270 125 C246 167 235 229 235 328 C235 433 246 496 273 543 C299 590 343 615 398 615 C494 615 561 544 590 412 L641 412 L635 658 L584 658 C583 656 583 656 583 654 C578 634 572 618 564 599 C509 654 447 679 367 679 C179 679 39 529 39 328 C39 131 176 -14 363 -14 C445 -14 524 18 571 70 C583 54 591 35 598 6 L650 6 L650 256 L598 256 Z M466 728 L570 887 L531 887 L375 795 L212 887 L173 887 L274 728 L466 728 Z " />
<glyph glyph-name="ccaron" unicode="&#x10d;" horiz-adv-x="470" d="M400 124 C381 74 346 49 298 49 C229 49 200 100 200 223 C200 319 227 366 281 366 C304 366 315 357 320 334 C331 279 349 258 383 258 C415 258 439 286 439 322 C439 381 379 419 284 419 C137 419 32 325 32 193 C32 70 124 -16 256 -16 C351 -16 420 27 448 102 L400 124 Z M153 654 L113 654 L202 491 L335 491 L418 654 L375 654 L268 570 L153 654 Z " />
<glyph glyph-name="Dcaron" unicode="&#x10e;" horiz-adv-x="756" d="M26 613 L33 613 C86 612 101 594 103 531 L103 136 C104 76 86 56 33 55 L26 55 L26 0 L255 0 C420 1 457 4 504 19 C636 63 716 180 716 330 C716 455 656 566 562 617 C487 658 399 673 237 673 C196 673 139 672 88 670 L81 670 C70 670 67 670 52 669 C35 668 32 668 26 667 L26 613 Z M277 615 C281 616 286 616 292 616 C360 616 401 603 439 570 C491 523 517 445 517 331 C517 227 497 147 460 105 C436 77 389 59 342 59 C316 59 297 68 287 86 C279 101 277 114 277 156 L277 615 Z M436 728 L540 887 L502 887 L345 795 L182 887 L144 887 L244 728 L436 728 Z " />
<glyph glyph-name="dcaron" unicode="&#x10f;" horiz-adv-x="719" d="M572 66 L566 66 C526 68 515 82 514 132 L514 679 L508 679 C480 674 470 672 455 669 C433 666 416 663 401 660 L350 652 L343 651 L296 643 L291 642 L291 590 L294 590 C340 588 354 573 355 525 L355 366 C324 400 277 419 223 419 C154 419 99 387 64 328 C44 293 35 253 35 196 C35 143 43 108 62 75 C94 20 145 -9 210 -9 C265 -9 309 11 355 56 L355 53 L355 51 C355 28 359 10 367 -9 C417 1 490 8 572 11 L572 66 Z M355 124 C335 85 307 65 272 65 C225 65 203 110 203 205 C203 304 227 348 281 348 C306 348 326 337 355 307 L355 124 Z M560 432 C654 434 712 488 712 575 C712 638 677 679 623 679 C580 679 550 650 550 608 C550 572 576 544 608 544 C613 544 619 545 625 547 C629 548 631 548 632 549 L638 549 L640 550 C646 550 652 542 652 534 C652 502 614 477 560 475 L560 432 Z " />
<glyph glyph-name="Dcroat" unicode="&#x110;" horiz-adv-x="760" d="M106 365 L22 365 L22 301 L106 301 L106 136 C107 76 89 56 36 55 L29 55 L29 0 L258 0 C424 1 461 4 508 19 C640 63 720 180 720 330 C720 455 660 566 566 617 C491 658 403 673 240 673 C199 673 142 672 91 670 L84 670 C73 670 70 670 55 669 C38 668 35 668 29 667 L29 613 L36 613 C89 612 104 594 106 531 L106 365 Z M280 365 L280 615 C284 616 289 616 295 616 C364 616 405 603 443 570 C495 523 521 445 521 331 C521 227 501 147 464 105 C439 77 393 59 345 59 C319 59 301 68 290 86 C282 101 280 114 280 156 L280 301 L404 301 L404 365 L280 365 Z " />
<glyph glyph-name="dcroat" unicode="&#x111;" horiz-adv-x="584" d="M355 477 L355 366 C325 400 277 419 223 419 C107 419 35 334 35 196 C35 143 43 108 62 75 C94 20 145 -9 210 -9 C265 -9 309 11 355 56 L355 53 L355 51 C355 28 359 10 367 -9 C417 1 490 8 572 11 L572 66 L566 66 C526 68 515 82 514 132 L514 477 L572 477 L572 539 L514 539 L514 679 L508 679 C480 674 470 672 455 669 C433 666 416 663 401 660 L350 652 L343 651 L296 643 L291 642 L291 590 L294 590 C336 588 349 577 354 539 L218 539 L218 477 L355 477 Z M355 124 C335 85 307 65 272 65 C225 65 203 110 203 205 C203 305 227 348 281 348 C306 348 326 337 355 307 L355 124 Z " />
<glyph glyph-name="Emacron" unicode="&#x112;" horiz-adv-x="638" d="M558 219 C528 99 485 57 392 59 L376 59 C299 60 279 80 283 154 L283 319 L343 319 C395 318 410 301 411 243 L411 235 L463 235 L463 461 L411 461 L411 455 C408 394 394 379 341 378 L283 378 L283 608 L399 608 C471 609 491 590 523 494 L575 494 L566 667 L26 667 L26 613 L37 613 C91 611 108 591 109 531 L109 136 C111 79 90 55 37 55 L26 55 L26 0 L606 0 L610 219 L558 219 Z M151 818 L151 756 L497 756 L497 818 L151 818 Z " />
<glyph glyph-name="emacron" unicode="&#x113;" horiz-adv-x="490" d="M402 104 C375 66 338 45 300 45 C235 45 196 99 196 190 C196 195 196 200 197 206 L458 206 L458 218 C458 339 377 419 254 419 C126 419 35 329 35 204 C35 76 129 -16 258 -16 C334 -16 409 21 446 77 L402 104 Z M314 255 L197 255 C199 310 202 325 213 344 C220 356 238 365 254 365 C293 365 314 328 314 262 L314 255 Z M99 591 L99 529 L415 529 L415 591 L99 591 Z " />
<glyph glyph-name="Ebreve" unicode="&#x114;" horiz-adv-x="638" d="M558 219 C528 99 485 57 392 59 L376 59 C299 60 279 80 283 154 L283 319 L343 319 C395 318 410 301 411 243 L411 235 L463 235 L463 461 L411 461 L411 455 C408 394 394 379 341 378 L283 378 L283 608 L399 608 C471 609 491 590 523 494 L575 494 L566 667 L26 667 L26 613 L37 613 C91 611 108 591 109 531 L109 136 C111 79 90 55 37 55 L26 55 L26 0 L606 0 L610 219 L558 219 Z M132 882 C164 785 239 725 330 725 C418 725 491 784 521 882 L463 882 C441 839 394 817 327 817 C259 817 219 836 192 882 L132 882 Z " />
<glyph glyph-name="ebreve" unicode="&#x115;" horiz-adv-x="490" d="M402 104 C375 66 338 45 300 45 C235 45 196 99 196 190 C196 195 196 200 197 206 L458 206 L458 218 C458 339 377 419 254 419 C126 419 35 329 35 204 C35 76 129 -16 258 -16 C334 -16 409 21 446 77 L402 104 Z M314 255 L197 255 C199 310 202 325 213 344 C220 356 238 365 254 365 C293 365 314 328 314 262 L314 255 Z M100 647 C104 549 168 478 251 478 C334 478 399 551 400 647 L367 647 C350 593 312 566 253 566 C192 566 150 595 134 647 L100 647 Z " />
<glyph glyph-name="Edotaccent" unicode="&#x116;" horiz-adv-x="638" d="M558 219 C528 99 485 57 392 59 L376 59 C299 60 279 80 283 154 L283 319 L343 319 C395 318 410 301 411 243 L411 235 L463 235 L463 461 L411 461 L411 455 C408 394 394 379 341 378 L283 378 L283 608 L399 608 C471 609 491 590 523 494 L575 494 L566 667 L26 667 L26 613 L37 613 C91 611 108 591 109 531 L109 136 C111 79 90 55 37 55 L26 55 L26 0 L606 0 L610 219 L558 219 Z M328 880 C285 880 251 846 251 803 C251 761 286 726 327 726 C371 726 405 760 405 803 C405 846 371 880 328 880 L328 880 Z " />
<glyph glyph-name="edotaccent" unicode="&#x117;" horiz-adv-x="490" d="M402 104 C375 66 338 45 300 45 C235 45 196 99 196 190 C196 195 196 200 197 206 L458 206 L458 218 C458 339 377 419 254 419 C126 419 35 329 35 204 C35 76 129 -16 258 -16 C334 -16 409 21 446 77 L402 104 Z M314 255 L197 255 C199 310 202 325 213 344 C220 356 238 365 254 365 C293 365 314 328 314 262 L314 255 Z M266 637 C227 637 196 606 196 568 C196 530 227 498 265 498 C304 498 335 529 335 568 C335 606 304 637 266 637 L266 637 Z " />
<glyph glyph-name="Eogonek" unicode="&#x118;" horiz-adv-x="638" d="M606 0 L610 219 L558 219 C528 99 485 57 392 59 L376 59 C299 60 279 80 283 154 L283 319 L343 319 C395 318 410 301 411 243 L411 235 L463 235 L463 461 L411 461 L411 455 C408 394 394 379 341 378 L283 378 L283 608 L399 608 C471 609 491 590 523 494 L575 494 L566 667 L26 667 L26 613 L37 613 C91 611 108 591 109 531 L109 136 C111 79 90 55 37 55 L26 55 L26 0 L475 0 C417 -31 385 -74 385 -122 C385 -177 435 -218 502 -218 C540 -218 569 -208 609 -180 L593 -150 C574 -157 564 -159 550 -159 C513 -159 488 -132 488 -94 C488 -59 501 -34 536 0 L606 0 Z " />
<glyph glyph-name="eogonek" unicode="&#x119;" horiz-adv-x="490" d="M402 104 C375 66 338 45 300 45 C235 45 196 99 196 190 C196 195 196 200 197 206 L458 206 L458 218 C458 339 377 419 254 419 C126 419 35 329 35 204 C35 77 129 -16 257 -16 C262 -16 267 -16 278 -15 C247 -41 230 -73 230 -107 C230 -158 275 -196 336 -196 C370 -196 397 -186 433 -160 L418 -132 C402 -139 393 -141 381 -141 C348 -141 324 -116 324 -81 C324 -46 334 -27 371 11 C401 28 432 55 446 77 L402 104 Z M314 255 L197 255 C199 310 202 325 213 344 C220 356 238 365 254 365 C293 365 314 328 314 262 L314 255 Z " />
<glyph glyph-name="Ecaron" unicode="&#x11a;" horiz-adv-x="638" d="M558 219 C528 99 485 57 392 59 L376 59 C299 60 279 80 283 154 L283 319 L343 319 C395 318 410 301 411 243 L411 235 L463 235 L463 461 L411 461 L411 455 C408 394 394 379 341 378 L283 378 L283 608 L399 608 C471 609 491 590 523 494 L575 494 L566 667 L26 667 L26 613 L37 613 C91 611 108 591 109 531 L109 136 C111 79 90 55 37 55 L26 55 L26 0 L606 0 L610 219 L558 219 Z M423 728 L526 887 L488 887 L332 795 L168 887 L130 887 L230 728 L423 728 Z " />
<glyph glyph-name="ecaron" unicode="&#x11b;" horiz-adv-x="490" d="M402 104 C375 66 338 45 300 45 C235 45 196 99 196 190 C196 195 196 200 197 206 L458 206 L458 218 C458 339 377 419 254 419 C126 419 35 329 35 204 C35 76 129 -16 258 -16 C334 -16 409 21 446 77 L402 104 Z M314 255 L197 255 C199 310 202 325 213 344 C220 356 238 365 254 365 C293 365 314 328 314 262 L314 255 Z M149 654 L109 654 L198 491 L331 491 L414 654 L371 654 L264 570 L149 654 Z " />
<glyph glyph-name="Gcircumflex" unicode="&#x11c;" horiz-adv-x="748" d="M435 308 L435 254 L442 253 C490 248 506 232 508 190 L508 166 C508 125 503 107 485 86 C464 62 431 49 390 49 C286 49 241 125 241 301 C241 413 254 494 281 542 C304 584 352 609 406 609 C496 609 557 552 588 439 L642 439 L636 672 L584 672 C582 646 576 625 564 602 C506 654 442 679 367 679 C184 679 39 523 39 326 C39 132 179 -14 366 -14 C407 -14 441 -9 522 10 C575 22 626 29 658 29 C663 29 669 29 679 28 L679 168 C680 231 685 241 723 252 L731 254 L731 308 L435 308 Z M296 887 L196 728 L235 728 L390 821 L554 728 L592 728 L489 887 L296 887 Z " />
<glyph glyph-name="gcircumflex" unicode="&#x11d;" horiz-adv-x="511" d="M264 -63 L274 -63 L310 -63 C376 -63 404 -78 404 -113 C404 -164 343 -197 249 -197 C217 -197 189 -193 169 -186 C141 -176 132 -168 126 -148 C121 -132 120 -126 120 -122 L123 -105 L123 -98 L123 -97 L123 -96 C105 -88 94 -85 82 -85 C54 -85 30 -111 30 -143 C30 -213 102 -249 238 -249 C315 -249 369 -238 412 -213 C465 -183 494 -133 494 -72 C494 -36 483 -3 462 21 C436 50 383 67 317 66 L261 65 L209 65 L202 65 C168 65 153 72 153 89 C153 115 181 128 237 128 C363 129 440 185 440 277 C440 302 435 323 422 345 C431 354 435 356 442 356 C450 356 455 354 464 345 C475 334 482 331 492 331 C511 331 523 346 523 370 C523 401 505 419 476 419 C452 419 432 409 394 376 C357 406 314 418 249 418 C120 418 42 365 42 277 C42 213 81 164 149 144 C82 125 53 95 53 42 C53 -28 110 -64 221 -64 L264 -63 Z M242 365 C273 365 290 335 290 282 C290 216 275 185 245 185 C211 185 195 217 195 285 C195 335 213 365 242 365 L242 365 Z M369 484 L412 484 L329 647 L196 647 L107 484 L147 484 L261 568 L369 484 Z " />
<glyph glyph-name="Gbreve" unicode="&#x11e;" horiz-adv-x="748" d="M435 308 L435 254 L442 253 C490 248 506 232 508 190 L508 166 C508 125 503 107 485 86 C464 62 431 49 390 49 C286 49 241 125 241 301 C241 413 254 494 281 542 C304 584 352 609 406 609 C496 609 557 552 588 439 L642 439 L636 672 L584 672 C582 646 576 625 564 602 C506 654 442 679 367 679 C184 679 39 523 39 326 C39 132 179 -14 366 -14 C407 -14 441 -9 522 10 C575 22 626 29 658 29 C663 29 669 29 679 28 L679 168 C680 231 685 241 723 252 L731 254 L731 308 L435 308 Z M187 882 C219 785 295 725 385 725 C473 725 546 784 576 882 L519 882 C496 839 449 817 382 817 C314 817 274 836 247 882 L187 882 Z " />
<glyph glyph-name="gbreve" unicode="&#x11f;" horiz-adv-x="511" d="M264 -63 L274 -63 L310 -63 C376 -63 404 -78 404 -113 C404 -164 343 -197 249 -197 C217 -197 189 -193 169 -186 C141 -176 132 -168 126 -148 C121 -132 120 -126 120 -122 L123 -105 L123 -98 L123 -97 L123 -96 C105 -88 94 -85 82 -85 C54 -85 30 -111 30 -143 C30 -213 102 -249 238 -249 C315 -249 369 -238 412 -213 C465 -183 494 -133 494 -72 C494 -36 483 -3 462 21 C436 50 383 67 317 66 L261 65 L209 65 L202 65 C168 65 153 72 153 89 C153 115 181 128 237 128 C363 129 440 185 440 277 C440 302 435 323 422 345 C431 354 435 356 442 356 C450 356 455 354 464 345 C475 334 482 331 492 331 C511 331 523 346 523 370 C523 401 505 419 476 419 C452 419 432 409 394 376 C357 406 314 418 249 418 C120 418 42 365 42 277 C42 213 81 164 149 144 C82 125 53 95 53 42 C53 -28 110 -64 221 -64 L264 -63 Z M242 365 C273 365 290 335 290 282 C290 216 275 185 245 185 C211 185 195 217 195 285 C195 335 213 365 242 365 L242 365 Z M100 647 L100 642 C100 602 117 560 145 527 C174 494 209 478 251 478 C334 478 399 551 401 647 L367 647 C350 593 312 566 253 566 C193 566 151 595 134 647 L100 647 Z " />
<glyph glyph-name="Gdotaccent" unicode="&#x120;" horiz-adv-x="748" d="M435 308 L435 254 L442 253 C490 248 506 232 508 190 L508 166 C508 125 503 107 485 86 C464 62 431 49 390 49 C286 49 241 125 241 301 C241 413 254 494 281 542 C304 584 352 609 406 609 C496 609 557 552 588 439 L642 439 L636 672 L584 672 C582 646 576 625 564 602 C506 654 442 679 367 679 C184 679 39 523 39 326 C39 132 179 -14 366 -14 C407 -14 441 -9 522 10 C575 22 626 29 658 29 C663 29 669 29 679 28 L679 168 C680 231 685 241 723 252 L731 254 L731 308 L435 308 Z M377 880 C334 880 300 846 300 803 C300 761 335 726 376 726 C420 726 454 760 454 803 C454 846 420 880 377 880 L377 880 Z " />
<glyph glyph-name="gdotaccent" unicode="&#x121;" horiz-adv-x="511" d="M264 -63 L274 -63 L310 -63 C376 -63 404 -78 404 -113 C404 -164 343 -197 249 -197 C217 -197 189 -193 169 -186 C141 -176 132 -168 126 -148 C121 -132 120 -126 120 -122 L123 -105 L123 -98 L123 -97 L123 -96 C105 -88 94 -85 82 -85 C54 -85 30 -111 30 -143 C30 -213 102 -249 238 -249 C315 -249 369 -238 412 -213 C465 -183 494 -133 494 -72 C494 -36 483 -3 462 21 C436 50 383 67 317 66 L261 65 L209 65 L202 65 C168 65 153 72 153 89 C153 115 181 128 237 128 C363 129 440 185 440 277 C440 302 435 323 422 345 C431 354 435 356 442 356 C450 356 455 354 464 345 C475 334 482 331 492 331 C511 331 523 346 523 370 C523 401 505 419 476 419 C452 419 432 409 394 376 C357 406 314 418 249 418 C120 418 42 365 42 277 C42 213 81 164 149 144 C82 125 53 95 53 42 C53 -28 110 -64 221 -64 L264 -63 Z M242 365 C273 365 290 335 290 282 C290 216 275 185 245 185 C211 185 195 217 195 285 C195 335 213 365 242 365 L242 365 Z M251 637 C212 637 181 606 181 568 C181 530 212 498 250 498 C289 498 320 529 320 568 C320 606 289 637 251 637 L251 637 Z " />
<glyph glyph-name="Gcommaaccent" unicode="&#x122;" horiz-adv-x="748" d="M435 308 L435 254 L442 253 C490 248 506 232 508 190 L508 166 C508 125 503 107 485 86 C464 62 431 49 390 49 C286 49 241 125 241 301 C241 413 254 494 281 542 C304 584 352 609 406 609 C496 609 557 552 588 439 L642 439 L636 672 L584 672 C582 646 576 625 564 602 C506 654 442 679 367 679 C184 679 39 523 39 326 C39 132 179 -14 366 -14 C407 -14 441 -9 522 10 C575 22 626 29 658 29 C663 29 669 29 679 28 L679 168 C680 231 685 241 723 252 L731 254 L731 308 L435 308 Z M282 -339 C389 -336 454 -275 454 -177 C454 -105 414 -59 353 -59 C304 -59 270 -92 270 -140 C270 -180 299 -212 336 -212 C341 -212 348 -211 355 -209 C360 -208 363 -207 364 -207 L370 -206 L372 -205 L373 -205 C379 -205 386 -214 386 -223 C386 -259 343 -287 282 -290 L282 -339 Z " />
<glyph glyph-name="gcommaaccent" unicode="&#x123;" horiz-adv-x="511" d="M264 -63 L274 -63 L310 -63 C376 -63 404 -78 404 -113 C404 -164 343 -197 249 -197 C217 -197 189 -193 169 -186 C141 -176 132 -168 126 -148 C121 -132 120 -126 120 -122 L123 -105 L123 -98 L123 -97 L123 -96 C105 -88 94 -85 82 -85 C54 -85 30 -111 30 -143 C30 -213 102 -249 238 -249 C315 -249 369 -238 412 -213 C465 -183 494 -133 494 -72 C494 -36 483 -3 462 21 C436 50 383 67 317 66 L261 65 L209 65 L202 65 C168 65 153 72 153 89 C153 115 181 128 237 128 C363 129 440 185 440 277 C440 302 435 323 422 345 C431 354 435 356 442 356 C450 356 455 354 464 345 C475 334 482 331 492 331 C511 331 523 346 523 370 C523 401 505 419 476 419 C452 419 432 409 394 376 C357 406 314 418 249 418 C120 418 42 365 42 277 C42 213 81 164 149 144 C82 125 53 95 53 42 C53 -28 110 -64 221 -64 L264 -63 Z M242 365 C273 365 290 335 290 282 C290 216 275 185 245 185 C211 185 195 217 195 285 C195 335 213 365 242 365 L242 365 Z M321 710 C227 708 169 654 169 567 C169 504 204 463 258 463 C301 463 331 492 331 534 C331 570 305 598 273 598 C268 598 262 597 256 595 C252 594 250 594 249 593 L243 593 L241 592 C235 592 229 600 229 608 C229 640 267 664 321 667 L321 710 Z " />
<glyph glyph-name="Hcircumflex" unicode="&#x124;" horiz-adv-x="810" d="M530 319 L530 136 C532 78 511 54 458 55 L454 31 L454 0 L784 0 L784 55 L777 55 C723 55 703 78 704 136 L704 531 C706 594 721 610 777 612 L784 612 L784 667 L454 667 L454 612 L458 612 C506 614 530 587 530 531 L530 381 L279 381 L279 531 C281 593 297 611 351 612 L356 612 L356 667 L26 667 L26 612 L33 612 C86 612 103 593 105 531 L105 136 C107 79 85 55 33 55 L26 55 L26 0 L356 0 L356 55 L351 55 C299 55 277 79 279 136 L279 319 L530 319 Z M309 887 L209 728 L248 728 L403 821 L567 728 L605 728 L502 887 L309 887 Z " />
<glyph glyph-name="Hbar" unicode="&#x126;" horiz-adv-x="810" d="M105 435 L105 136 C107 80 85 55 33 55 L26 55 L26 0 L356 0 L356 55 L351 55 C299 55 277 79 279 136 L279 319 L530 319 L530 136 C532 78 511 54 458 55 L454 31 L454 0 L784 0 L784 55 L776 55 C723 55 703 77 704 136 L704 435 L767 435 L767 497 L704 497 L704 531 C706 594 720 610 777 612 L784 612 L784 667 L454 667 L454 612 L458 612 C506 615 530 587 530 531 L530 497 L279 497 L279 531 C281 593 297 611 351 612 L356 612 L356 667 L26 667 L26 612 L33 612 C86 612 103 593 105 531 L105 497 L42 497 L42 435 L105 435 Z M279 435 L530 435 L530 381 L279 381 L279 435 Z " />
<glyph glyph-name="hbar" unicode="&#x127;" horiz-adv-x="577" d="M234 539 L234 679 L228 679 C202 672 178 668 144 663 C112 659 74 652 17 640 L17 588 L19 588 C61 585 72 576 74 539 L17 539 L17 477 L75 477 L75 118 C74 66 64 54 19 52 L17 52 L17 0 L277 0 L277 52 L274 52 C245 55 235 71 234 118 L234 272 C235 274 236 275 236 276 L237 278 C254 309 286 336 308 336 C338 336 353 315 353 272 L353 118 C352 71 344 57 314 53 L309 52 L309 0 L569 0 L569 52 L565 52 C526 54 515 68 514 118 L514 255 C514 306 509 334 495 358 C474 395 426 419 375 419 C320 419 271 394 234 348 L234 477 L388 477 L388 539 L234 539 Z " />
<glyph glyph-name="Imacron" unicode="&#x12a;" horiz-adv-x="387" d="M26 612 L33 612 C88 611 103 594 105 531 L105 136 C104 75 88 57 33 55 L26 55 L26 0 L361 0 L361 55 L352 55 C296 57 280 75 279 136 L279 531 C281 594 296 611 352 612 L361 612 L361 667 L26 667 L26 612 Z M20 818 L20 756 L367 756 L367 818 L20 818 Z " />
<glyph glyph-name="imacron" unicode="&#x12b;" horiz-adv-x="310" d="M237 419 C209 413 209 413 121 398 C43 385 39 384 16 382 L16 330 L27 330 C75 327 86 315 87 264 L87 118 C86 67 74 54 27 52 L16 52 L16 0 L302 0 L302 52 L298 52 C255 54 243 68 242 118 L242 419 L237 419 Z M1 591 L1 529 L294 529 L294 591 L1 591 Z " />
<glyph glyph-name="ibreve" unicode="&#x12d;" horiz-adv-x="310" d="M237 419 C209 413 209 413 121 398 C43 385 39 384 16 382 L16 330 L27 330 C75 327 86 315 87 264 L87 118 C86 67 74 54 27 52 L16 52 L16 0 L302 0 L302 52 L298 52 C255 54 243 68 242 118 L242 419 L237 419 Z M10 647 L10 642 C10 603 27 560 55 527 C84 494 119 478 161 478 C244 478 309 551 311 647 L277 647 C260 593 222 566 163 566 C103 566 61 595 44 647 L10 647 Z " />
<glyph glyph-name="Iogonek" unicode="&#x12e;" horiz-adv-x="387" d="M361 0 L361 55 L352 55 C296 57 280 75 279 136 L279 531 C281 594 296 611 352 612 L361 612 L361 667 L26 667 L26 612 L33 612 C88 611 103 594 105 531 L105 136 C104 75 88 57 33 55 L26 55 L26 0 L234 0 C177 -31 145 -75 145 -122 C145 -177 194 -218 261 -218 C299 -218 329 -207 369 -180 L352 -150 C333 -157 324 -159 309 -159 C272 -159 247 -133 247 -94 C247 -59 260 -34 295 0 L361 0 Z " />
<glyph glyph-name="iogonek" unicode="&#x12f;" horiz-adv-x="310" d="M302 0 L302 52 L298 52 C255 54 243 68 242 118 L242 419 L237 419 C209 413 209 413 121 398 C43 385 39 384 16 382 L16 330 L27 330 C75 327 86 315 87 264 L87 118 C86 67 74 54 27 52 L16 52 L16 0 L175 0 C131 -29 107 -66 107 -107 C107 -158 152 -196 212 -196 C247 -196 275 -186 310 -160 L295 -132 C279 -139 270 -141 257 -141 C224 -141 200 -116 200 -80 C200 -51 211 -26 236 0 L302 0 Z M165 679 C117 679 77 639 77 591 C77 541 116 501 165 501 C214 501 253 541 253 590 C253 639 214 679 165 679 L165 679 Z " />
<glyph glyph-name="Idotaccent" unicode="&#x130;" horiz-adv-x="387" d="M26 612 L33 612 C88 611 103 594 105 531 L105 136 C104 75 88 57 33 55 L26 55 L26 0 L361 0 L361 55 L352 55 C296 57 280 75 279 136 L279 531 C281 594 296 611 352 612 L361 612 L361 667 L26 667 L26 612 Z M193 880 C150 880 116 846 116 803 C116 761 151 726 192 726 C236 726 270 760 270 803 C270 846 236 880 193 880 L193 880 Z " />
<glyph glyph-name="dotlessi" unicode="&#x131;" horiz-adv-x="310" d="M237 419 C209 413 209 413 121 398 C43 385 39 384 16 382 L16 330 L27 330 C75 327 86 315 87 264 L87 118 C86 67 74 54 27 52 L16 52 L16 0 L302 0 L302 52 L298 52 C255 54 243 68 242 118 L242 419 L237 419 Z " />
<glyph glyph-name="Kcommaaccent" unicode="&#x136;" horiz-adv-x="758" d="M282 345 L282 531 C284 594 299 611 355 612 L364 612 L364 667 L26 667 L26 612 L36 612 C91 611 106 594 108 531 L108 136 C107 75 91 57 36 55 L26 55 L26 0 L357 0 L357 55 L355 55 C299 56 283 74 282 136 L282 264 L344 327 L462 142 L464 138 L468 131 L471 126 C471 126 475 120 478 115 C487 102 491 93 491 84 C491 64 471 55 426 55 L421 55 L421 0 L784 0 L784 55 L779 55 C724 53 682 87 635 167 L461 440 L518 496 C606 581 651 608 711 612 L718 612 L718 667 L437 667 L437 612 L444 612 C477 612 494 602 494 582 C494 564 481 543 449 511 L282 345 Z M285 -339 C392 -336 457 -275 457 -177 C457 -105 417 -59 356 -59 C307 -59 273 -92 273 -140 C273 -180 302 -212 339 -212 C344 -212 351 -211 358 -209 C363 -208 366 -207 367 -207 L373 -206 L375 -205 L376 -205 C382 -205 389 -214 389 -223 C389 -259 346 -287 285 -290 L285 -339 Z " />
<glyph glyph-name="kcommaaccent" unicode="&#x137;" horiz-adv-x="563" d="M309 403 L309 351 L313 351 C339 351 350 346 350 335 C350 329 348 326 338 316 L334 312 L331 309 L326 305 C289 270 263 247 252 239 L233 225 L233 679 L227 679 C201 672 177 668 143 663 C117 660 81 653 17 640 L17 588 L22 588 C65 585 73 576 74 523 L74 118 C73 66 64 54 22 52 L15 52 L15 0 L278 0 L278 52 L275 52 C243 56 234 70 233 118 L233 160 L268 190 L327 100 C335 88 340 77 340 70 C340 59 331 52 315 52 L312 52 L312 0 L558 0 L558 52 L555 53 C534 53 515 71 468 137 L373 274 C377 277 382 279 383 281 C383 281 386 283 389 287 C459 338 489 352 529 351 L532 351 L532 403 L309 403 Z M226 -306 C320 -304 378 -250 378 -163 C378 -100 343 -59 289 -59 C246 -59 216 -88 216 -130 C216 -166 242 -194 274 -194 C279 -194 285 -193 291 -191 C295 -190 297 -190 298 -189 L304 -189 L306 -188 C312 -188 318 -196 318 -204 C318 -236 280 -261 226 -264 L226 -306 Z " />
<glyph glyph-name="Lacute" unicode="&#x139;" horiz-adv-x="619" d="M606 222 L555 222 C530 110 477 60 382 60 L370 60 C294 62 279 78 281 150 L281 531 C283 594 298 611 353 612 L365 612 L365 667 L26 667 L26 612 L35 612 C90 611 105 594 107 531 L107 136 C106 75 90 57 35 55 L26 55 L26 0 L603 0 L606 222 Z M179 732 L219 732 L478 880 L478 892 L278 892 L179 732 Z " />
<glyph glyph-name="lacute" unicode="&#x13a;" horiz-adv-x="304" d="M16 640 L16 588 L25 588 C66 585 73 576 74 522 L74 118 C73 64 65 54 25 52 L16 52 L16 0 L288 0 L288 52 L284 52 C243 54 234 66 233 118 L233 679 L227 679 C192 671 167 666 101 655 C76 651 65 649 16 640 L16 640 Z M95 732 L135 732 L394 880 L394 892 L194 892 L95 732 Z " />
<glyph glyph-name="Lcommaaccent" unicode="&#x13b;" horiz-adv-x="619" d="M606 222 L555 222 C530 110 477 60 382 60 L370 60 C294 62 279 78 281 150 L281 531 C283 594 298 611 353 612 L365 612 L365 667 L26 667 L26 612 L35 612 C90 611 105 594 107 531 L107 136 C106 75 90 57 35 55 L26 55 L26 0 L603 0 L606 222 Z M244 -339 C351 -336 416 -275 416 -177 C416 -105 376 -59 315 -59 C266 -59 232 -92 232 -140 C232 -180 261 -212 298 -212 C303 -212 310 -211 317 -209 C322 -208 325 -207 326 -207 L332 -206 L334 -205 L335 -205 C341 -205 348 -214 348 -223 C348 -259 305 -287 244 -290 L244 -339 Z " />
<glyph glyph-name="lcommaaccent" unicode="&#x13c;" horiz-adv-x="304" d="M16 640 L16 588 L25 588 C66 585 73 576 74 522 L74 118 C73 64 65 54 25 52 L16 52 L16 0 L288 0 L288 52 L284 52 C243 54 234 66 233 118 L233 679 L227 679 C192 671 167 666 101 655 C76 651 65 649 16 640 L16 640 Z M85 -306 C179 -304 237 -250 237 -163 C237 -100 202 -59 148 -59 C105 -59 75 -88 75 -130 C75 -166 101 -194 133 -194 C138 -194 144 -193 150 -191 C154 -190 156 -190 157 -189 L163 -189 L165 -188 C171 -188 177 -196 177 -204 C177 -236 139 -261 85 -264 L85 -306 Z " />
<glyph glyph-name="Lcaron" unicode="&#x13d;" horiz-adv-x="619" d="M606 222 L555 222 C530 110 477 60 382 60 L370 60 C294 62 279 78 281 150 L281 531 C283 594 298 611 353 612 L365 612 L365 667 L26 667 L26 612 L35 612 C90 611 105 594 107 531 L107 136 C106 75 90 57 35 55 L26 55 L26 0 L603 0 L606 222 Z M404 388 C511 390 576 451 576 549 C576 621 536 667 475 667 C426 667 392 635 392 587 C392 547 421 515 458 515 C464 515 470 516 477 518 C481 519 484 520 486 520 L492 521 L495 521 C501 521 508 512 508 503 C508 467 465 439 404 436 L404 388 Z " />
<glyph glyph-name="lcaron" unicode="&#x13e;" horiz-adv-x="439" d="M16 640 L16 588 L25 588 C66 585 73 576 74 522 L74 118 C73 64 65 54 25 52 L16 52 L16 0 L288 0 L288 52 L284 52 C243 54 234 66 233 118 L233 679 L227 679 C192 671 167 666 101 655 C76 651 65 649 16 640 L16 640 Z M280 432 C374 434 432 488 432 575 C432 638 397 679 343 679 C300 679 270 650 270 608 C270 572 296 544 328 544 C333 544 339 545 345 547 C349 548 351 548 352 549 L358 549 L360 550 C366 550 372 542 372 534 C372 502 334 477 280 475 L280 432 Z " />
<glyph glyph-name="Ldot" unicode="&#x13f;" horiz-adv-x="619" d="M606 222 L555 222 C530 110 477 60 382 60 L370 60 C294 62 279 78 281 150 L281 531 C283 594 298 611 353 612 L365 612 L365 667 L26 667 L26 612 L35 612 C90 611 105 594 107 531 L107 136 C106 75 90 57 35 55 L26 55 L26 0 L603 0 L606 222 Z M407 400 C368 400 337 369 337 331 C337 293 368 261 406 261 C445 261 476 292 476 331 C476 369 445 400 407 400 L407 400 Z " />
<glyph glyph-name="ldot" unicode="&#x140;" horiz-adv-x="399" d="M16 640 L16 588 L25 588 C66 585 73 576 74 522 L74 118 C73 64 65 54 25 52 L16 52 L16 0 L288 0 L288 52 L284 52 C243 54 234 66 233 118 L233 679 L227 679 C192 671 167 666 101 655 C76 651 65 649 16 640 L16 640 Z M350 415 C311 415 280 384 280 346 C280 308 311 276 349 276 C388 276 419 307 419 346 C419 384 388 415 350 415 L350 415 Z " />
<glyph glyph-name="Lslash" unicode="&#x141;" horiz-adv-x="619" d="M26 55 L26 0 L603 0 L606 222 L555 222 C531 111 477 60 382 60 L370 60 C294 62 279 78 281 150 L281 346 L392 422 L392 488 L281 412 L281 531 C283 594 298 611 353 612 L365 612 L365 667 L26 667 L26 612 L36 612 C90 611 105 594 107 531 L107 292 L32 239 L32 174 L107 226 L107 136 C106 75 91 57 36 55 L26 55 Z " />
<glyph glyph-name="lslash" unicode="&#x142;" horiz-adv-x="303" d="M226 679 C191 671 166 666 100 655 C75 651 64 649 15 640 L15 588 L23 588 C65 585 72 576 73 522 L73 277 L16 229 L16 168 L73 216 L73 118 C72 65 64 54 23 52 L16 52 L16 0 L287 0 L287 52 L283 52 C242 54 233 66 232 118 L232 354 L294 408 L294 471 L232 415 L232 679 L226 679 Z " />
<glyph glyph-name="Nacute" unicode="&#x143;" horiz-adv-x="745" d="M641 -11 L641 501 C639 572 659 600 718 612 L725 612 L725 667 L488 667 L488 612 L494 612 C552 610 580 572 578 503 L578 259 L237 667 L24 667 L24 612 L28 612 C82 612 110 579 112 511 L112 170 C112 118 111 110 102 95 C89 72 59 54 33 55 L31 55 L27 55 L27 0 L263 0 L263 55 L257 55 L251 55 C193 62 171 96 175 171 L175 477 L578 -11 L641 -11 Z M324 732 L364 732 L623 880 L623 892 L423 892 L324 732 Z " />
<glyph glyph-name="nacute" unicode="&#x144;" horiz-adv-x="579" d="M224 408 C198 402 179 399 155 395 C119 390 80 383 18 372 L18 320 L22 320 C61 319 75 303 77 260 L77 118 C76 66 66 54 22 52 L20 52 L20 0 L280 0 L280 52 L278 52 C247 55 237 70 236 118 L236 273 C268 319 288 335 313 335 C339 335 355 314 355 281 L355 274 L355 118 C354 71 346 58 314 53 L311 52 L311 0 L571 0 L571 52 L567 52 C528 54 517 68 516 118 L516 258 C516 309 511 334 498 358 C477 395 430 419 379 419 C326 419 276 395 238 350 C237 377 234 395 229 408 L224 408 Z M244 486 L287 486 L488 632 L488 643 L310 643 L244 486 Z " />
<glyph glyph-name="Ncommaaccent" unicode="&#x145;" horiz-adv-x="745" d="M641 -11 L641 501 C639 572 659 600 718 612 L725 612 L725 667 L488 667 L488 612 L494 612 C552 610 580 572 578 503 L578 259 L237 667 L24 667 L24 612 L28 612 C82 612 110 579 112 511 L112 170 C112 118 111 110 102 95 C89 72 59 54 33 55 L31 55 L27 55 L27 0 L263 0 L263 55 L257 55 L251 55 C193 62 171 96 175 171 L175 477 L578 -11 L641 -11 Z M302 -339 C409 -336 474 -275 474 -177 C474 -105 434 -59 373 -59 C324 -59 290 -92 290 -140 C290 -180 319 -212 356 -212 C361 -212 368 -211 375 -209 C380 -208 383 -207 384 -207 L390 -206 L392 -205 L393 -205 C399 -205 406 -214 406 -223 C406 -259 363 -287 302 -290 L302 -339 Z " />
<glyph glyph-name="ncommaaccent" unicode="&#x146;" horiz-adv-x="579" d="M224 408 C198 402 179 399 155 395 C119 390 80 383 18 372 L18 320 L22 320 C61 319 75 303 77 260 L77 118 C76 66 66 54 22 52 L20 52 L20 0 L280 0 L280 52 L278 52 C247 55 237 70 236 118 L236 273 C268 319 288 335 313 335 C339 335 355 314 355 281 L355 274 L355 118 C354 71 346 58 314 53 L311 52 L311 0 L571 0 L571 52 L567 52 C528 54 517 68 516 118 L516 258 C516 309 511 334 498 358 C477 395 430 419 379 419 C326 419 276 395 238 350 C237 377 234 395 229 408 L224 408 Z M222 -306 C316 -304 374 -250 374 -163 C374 -100 339 -59 285 -59 C242 -59 212 -88 212 -130 C212 -166 238 -194 270 -194 C275 -194 281 -193 287 -191 C291 -190 293 -190 294 -189 L300 -189 L302 -188 C308 -188 314 -196 314 -204 C314 -236 276 -261 222 -264 L222 -306 Z " />
<glyph glyph-name="Ncaron" unicode="&#x147;" horiz-adv-x="745" d="M641 -11 L641 501 C639 572 659 600 718 612 L725 612 L725 667 L488 667 L488 612 L494 612 C552 610 580 572 578 503 L578 259 L237 667 L24 667 L24 612 L28 612 C82 612 110 579 112 511 L112 170 C112 118 111 110 102 95 C89 72 59 54 33 55 L31 55 L27 55 L27 0 L263 0 L263 55 L257 55 L251 55 C193 62 171 96 175 171 L175 477 L578 -11 L641 -11 Z M478 728 L581 887 L543 887 L386 795 L223 887 L185 887 L285 728 L478 728 Z " />
<glyph glyph-name="ncaron" unicode="&#x148;" horiz-adv-x="579" d="M224 408 C198 402 179 399 155 395 C119 390 80 383 18 372 L18 320 L22 320 C61 319 75 303 77 260 L77 118 C76 66 66 54 22 52 L20 52 L20 0 L280 0 L280 52 L278 52 C247 55 237 70 236 118 L236 273 C268 319 288 335 313 335 C339 335 355 314 355 281 L355 274 L355 118 C354 71 346 58 314 53 L311 52 L311 0 L571 0 L571 52 L567 52 C528 54 517 68 516 118 L516 258 C516 309 511 334 498 358 C477 395 430 419 379 419 C326 419 276 395 238 350 C237 377 234 395 229 408 L224 408 Z M187 654 L146 654 L236 491 L368 491 L451 654 L408 654 L301 570 L187 654 Z " />
<glyph glyph-name="Omacron" unicode="&#x14c;" horiz-adv-x="787" d="M400 679 C298 679 214 650 150 592 C81 530 39 429 39 328 C39 241 70 159 125 95 C188 25 282 -14 393 -14 C491 -14 580 17 640 73 C708 137 748 231 748 330 C748 419 717 503 660 568 C596 641 507 679 400 679 L400 679 Z M393 615 C498 615 544 524 544 317 C544 227 531 155 508 115 C484 73 444 50 396 50 C347 50 308 73 282 118 C256 163 244 233 244 337 C244 525 292 615 393 615 L393 615 Z M220 818 L220 756 L567 756 L567 818 L220 818 Z " />
<glyph glyph-name="omacron" unicode="&#x14d;" horiz-adv-x="537" d="M270 419 C130 419 35 331 35 201 C35 142 53 93 87 56 C129 11 197 -16 267 -16 C405 -16 502 75 502 204 C502 261 485 308 451 344 C408 391 340 419 270 419 L270 419 Z M269 364 C294 364 313 349 323 322 C330 302 334 254 334 193 C334 85 314 38 269 38 C222 38 203 87 203 209 C203 277 208 310 221 335 C231 353 249 364 269 364 L269 364 Z M113 591 L113 529 L429 529 L429 591 L113 591 Z " />
<glyph glyph-name="Ohungarumlaut" unicode="&#x150;" horiz-adv-x="787" d="M400 679 C298 679 214 650 150 592 C81 530 39 429 39 328 C39 241 70 159 125 95 C188 25 282 -14 393 -14 C491 -14 580 17 640 73 C708 137 748 231 748 330 C748 419 717 503 660 568 C596 641 507 679 400 679 L400 679 Z M393 615 C498 615 544 524 544 317 C544 227 531 155 508 115 C484 73 444 50 396 50 C347 50 308 73 282 118 C256 163 244 233 244 337 C244 525 292 615 393 615 L393 615 Z M274 732 L313 732 L535 880 L535 892 L373 892 L274 732 Z M480 732 L520 732 L741 880 L741 892 L579 892 L480 732 Z " />
<glyph glyph-name="ohungarumlaut" unicode="&#x151;" horiz-adv-x="537" d="M270 419 C130 419 35 331 35 201 C35 142 53 93 87 56 C129 11 197 -16 267 -16 C405 -16 502 75 502 204 C502 261 485 308 451 344 C408 391 340 419 270 419 L270 419 Z M269 364 C294 364 313 349 323 322 C330 302 334 254 334 193 C334 85 314 38 269 38 C222 38 203 87 203 209 C203 277 208 310 221 335 C231 353 249 364 269 364 L269 364 Z M169 486 L211 486 L375 632 L375 643 L234 643 L169 486 Z M341 486 L384 486 L548 632 L548 643 L407 643 L341 486 Z " />
<glyph glyph-name="OE" unicode="&#x152;" horiz-adv-x="949" d="M924 219 L872 219 C844 107 801 62 716 59 L714 59 L701 60 C701 60 697 60 692 61 C689 61 686 61 683 62 C635 66 627 77 627 138 L627 155 L627 318 L680 318 C723 317 735 302 740 245 L740 235 L790 235 L790 461 L740 461 L740 451 C735 394 723 379 681 378 L627 378 L627 608 L713 608 C784 611 806 591 838 492 L891 492 L881 667 L495 667 L463 667 L462 667 L453 667 L422 667 C410 668 410 668 402 668 C313 668 244 654 197 626 C102 569 42 455 42 330 C42 245 71 162 122 101 C177 35 268 0 386 0 L397 0 C416 0 420 0 441 1 L501 1 L473 0 L919 0 L924 219 Z M453 128 C453 106 450 92 444 83 C434 69 414 61 392 61 C361 61 333 73 307 96 C263 135 238 219 238 327 C238 412 254 492 282 540 C306 583 345 607 390 607 C437 607 453 587 453 527 L453 128 Z " />
<glyph glyph-name="oe" unicode="&#x153;" horiz-adv-x="768" d="M680 104 C652 66 615 45 579 45 C516 45 480 98 480 191 C480 196 480 201 481 206 L735 206 C736 211 736 217 736 218 C736 336 653 419 537 419 C487 419 446 403 407 369 C365 402 316 419 261 419 C131 419 35 325 35 198 C35 74 131 -16 263 -16 C319 -16 365 1 408 37 C443 3 490 -16 542 -16 C612 -16 686 21 722 75 L680 104 Z M482 255 C484 332 501 364 539 364 C577 364 593 333 597 255 L482 255 Z M200 219 C200 321 221 363 271 363 C299 363 325 340 332 309 C337 284 339 255 339 197 C339 80 320 37 270 37 C219 37 200 85 200 212 L200 219 Z " />
<glyph glyph-name="Racute" unicode="&#x154;" horiz-adv-x="702" d="M729 0 L729 55 L723 55 C685 56 648 93 597 185 C560 251 520 304 491 326 C574 355 619 412 619 488 C619 554 586 608 528 637 C491 656 409 666 286 668 C229 669 192 669 177 669 L143 669 L133 668 L121 668 L110 667 L26 667 L26 612 L38 612 C93 611 108 594 110 531 L110 136 C109 75 93 57 38 55 L26 55 L26 0 L367 0 L367 55 L356 55 C301 57 285 75 284 136 L284 294 L292 294 C360 295 368 289 409 214 C478 81 508 28 531 0 L729 0 Z M284 354 L284 606 C292 607 297 607 304 607 C372 607 401 596 420 563 C432 542 437 517 437 484 C437 443 426 403 409 383 C392 363 360 354 310 354 L306 354 L284 354 Z M272 732 L312 732 L571 880 L571 892 L371 892 L272 732 Z " />
<glyph glyph-name="racute" unicode="&#x155;" horiz-adv-x="451" d="M202 416 L146 404 L78 389 L26 378 L18 376 L18 324 L22 324 C64 322 76 308 77 258 L77 118 C76 66 65 54 23 52 L19 52 L19 0 L303 0 L303 52 L294 52 C250 54 237 68 236 118 L236 162 C236 268 256 318 298 318 C310 318 321 312 333 298 C357 269 364 265 385 265 C421 265 446 294 446 335 C446 384 413 419 367 419 C313 419 262 381 230 318 C228 360 223 393 214 419 L202 416 Z M198 486 L241 486 L442 632 L442 643 L264 643 L198 486 Z " />
<glyph glyph-name="Rcommaaccent" unicode="&#x156;" horiz-adv-x="702" d="M729 0 L729 55 L723 55 C685 56 648 93 597 185 C560 251 520 304 491 326 C574 355 619 412 619 488 C619 554 586 608 528 637 C491 656 409 666 286 668 C229 669 192 669 177 669 L143 669 L133 668 L121 668 L110 667 L26 667 L26 612 L38 612 C93 611 108 594 110 531 L110 136 C109 75 93 57 38 55 L26 55 L26 0 L367 0 L367 55 L356 55 C301 57 285 75 284 136 L284 294 L292 294 C360 295 368 289 409 214 C478 81 508 28 531 0 L729 0 Z M284 354 L284 606 C292 607 297 607 304 607 C372 607 401 596 420 563 C432 542 437 517 437 484 C437 443 426 403 409 383 C392 363 360 354 310 354 L306 354 L284 354 Z M269 -339 C376 -336 441 -275 441 -177 C441 -105 401 -59 340 -59 C291 -59 257 -92 257 -140 C257 -180 286 -212 323 -212 C328 -212 335 -211 342 -209 C347 -208 350 -207 351 -207 L357 -206 L359 -205 L360 -205 C366 -205 373 -214 373 -223 C373 -259 330 -287 269 -290 L269 -339 Z " />
<glyph glyph-name="rcommaaccent" unicode="&#x157;" horiz-adv-x="451" d="M202 416 L146 404 L78 389 L26 378 L18 376 L18 324 L22 324 C64 322 76 308 77 258 L77 118 C76 66 65 54 23 52 L19 52 L19 0 L303 0 L303 52 L294 52 C250 54 237 68 236 118 L236 162 C236 268 256 318 298 318 C310 318 321 312 333 298 C357 269 364 265 385 265 C421 265 446 294 446 335 C446 384 413 419 367 419 C313 419 262 381 230 318 C228 360 223 393 214 419 L202 416 Z M94 -306 C188 -304 246 -250 246 -163 C246 -100 211 -59 157 -59 C114 -59 84 -88 84 -130 C84 -166 110 -194 142 -194 C147 -194 153 -193 159 -191 C163 -190 165 -190 166 -189 L172 -189 L174 -188 C180 -188 186 -196 186 -204 C186 -236 148 -261 94 -264 L94 -306 Z " />
<glyph glyph-name="Rcaron" unicode="&#x158;" horiz-adv-x="702" d="M729 0 L729 55 L723 55 C685 56 648 93 597 185 C560 251 520 304 491 326 C574 355 619 412 619 488 C619 554 586 608 528 637 C491 656 409 666 286 668 C229 669 192 669 177 669 L143 669 L133 668 L121 668 L110 667 L26 667 L26 612 L38 612 C93 611 108 594 110 531 L110 136 C109 75 93 57 38 55 L26 55 L26 0 L367 0 L367 55 L356 55 C301 57 285 75 284 136 L284 294 L292 294 C360 295 368 289 409 214 C478 81 508 28 531 0 L729 0 Z M284 354 L284 606 C292 607 297 607 304 607 C372 607 401 596 420 563 C432 542 437 517 437 484 C437 443 426 403 409 383 C392 363 360 354 310 354 L306 354 L284 354 Z M421 728 L525 887 L487 887 L330 795 L167 887 L129 887 L229 728 L421 728 Z " />
<glyph glyph-name="rcaron" unicode="&#x159;" horiz-adv-x="451" d="M202 416 L146 404 L78 389 L26 378 L18 376 L18 324 L22 324 C64 322 76 308 77 258 L77 118 C76 66 65 54 23 52 L19 52 L19 0 L303 0 L303 52 L294 52 C250 54 237 68 236 118 L236 162 C236 268 256 318 298 318 C310 318 321 312 333 298 C357 269 364 265 385 265 C421 265 446 294 446 335 C446 384 413 419 367 419 C313 419 262 381 230 318 C228 360 223 393 214 419 L202 416 Z M115 654 L75 654 L164 491 L297 491 L380 654 L337 654 L230 570 L115 654 Z " />
<glyph glyph-name="Sacute" unicode="&#x15a;" horiz-adv-x="538" d="M53 11 L109 11 C113 34 118 51 125 65 C165 16 229 -14 296 -14 C415 -14 507 76 507 192 C507 230 498 265 478 299 C452 344 393 388 299 429 C218 464 186 497 186 544 C186 589 218 620 264 620 C328 620 382 561 402 470 L454 470 L454 667 L400 667 C399 664 399 664 398 660 C395 643 391 631 385 622 C350 658 299 679 247 679 C138 679 53 591 53 479 C53 444 61 413 77 384 C100 342 158 296 244 253 C328 212 361 178 361 133 C361 84 324 49 273 49 C225 49 182 77 150 128 C133 155 122 184 109 239 L53 239 L53 11 Z M219 732 L258 732 L518 880 L518 892 L318 892 L219 732 Z " />
<glyph glyph-name="sacute" unicode="&#x15b;" horiz-adv-x="435" d="M40 -12 L82 -12 C87 0 93 8 101 15 C107 13 108 13 115 10 C159 -9 191 -16 228 -16 C334 -16 401 41 401 131 C401 169 388 200 363 227 C339 252 294 269 219 284 C171 293 146 310 146 333 C146 357 172 373 210 373 C271 373 316 343 332 292 L374 292 L374 415 L335 415 C329 404 324 397 317 391 C267 411 231 419 188 419 C104 419 38 359 38 284 C38 217 84 172 176 147 C257 125 257 125 274 111 C282 105 287 94 287 83 C287 55 254 35 209 35 C149 35 104 68 86 123 L40 123 L40 -12 Z M179 486 L222 486 L423 632 L423 643 L245 643 L179 486 Z " />
<glyph glyph-name="Scircumflex" unicode="&#x15c;" horiz-adv-x="538" d="M53 11 L109 11 C113 34 118 51 125 65 C165 16 229 -14 296 -14 C415 -14 507 76 507 192 C507 230 498 265 478 299 C452 344 393 388 299 429 C218 464 186 497 186 544 C186 589 218 620 264 620 C328 620 382 561 402 470 L454 470 L454 667 L400 667 C399 664 399 664 398 660 C395 643 391 631 385 622 C350 658 299 679 247 679 C138 679 53 591 53 479 C53 444 61 413 77 384 C100 342 158 296 244 253 C328 212 361 178 361 133 C361 84 324 49 273 49 C225 49 182 77 150 128 C133 155 122 184 109 239 L53 239 L53 11 Z M180 887 L80 728 L119 728 L274 821 L438 728 L476 728 L373 887 L180 887 Z " />
<glyph glyph-name="scircumflex" unicode="&#x15d;" horiz-adv-x="435" d="M40 -12 L82 -12 C87 0 93 8 101 15 C107 13 108 13 115 10 C159 -9 191 -16 228 -16 C334 -16 401 41 401 131 C401 169 388 200 363 227 C339 252 294 269 219 284 C171 293 146 310 146 333 C146 357 172 373 210 373 C271 373 316 343 332 292 L374 292 L374 415 L335 415 C329 404 324 397 317 391 C267 411 231 419 188 419 C104 419 38 359 38 284 C38 217 84 172 176 147 C257 125 257 125 274 111 C282 105 287 94 287 83 C287 55 254 35 209 35 C149 35 104 68 86 123 L40 123 L40 -12 Z M333 484 L376 484 L293 647 L161 647 L71 484 L111 484 L226 568 L333 484 Z " />
<glyph glyph-name="Scedilla" unicode="&#x15e;" horiz-adv-x="538" d="M454 470 L454 667 L400 667 C399 664 399 664 398 660 C395 643 391 631 385 622 C350 658 299 679 247 679 C138 679 53 591 53 479 C53 444 61 413 77 384 C100 342 158 296 244 253 C328 212 361 178 361 133 C361 84 324 49 273 49 C225 49 182 77 150 128 C133 155 122 184 109 239 L53 239 L53 11 L109 11 C113 34 118 51 125 65 C153 29 196 4 248 -9 C243 -56 238 -84 228 -114 C256 -116 274 -132 274 -155 C274 -177 259 -188 231 -188 C208 -188 189 -185 161 -177 C159 -201 158 -205 154 -227 C177 -236 201 -240 230 -240 C325 -240 384 -202 384 -139 C384 -88 350 -55 293 -49 C297 -29 298 -21 299 -14 C417 -12 507 77 507 192 C507 230 498 265 478 299 C452 345 393 388 299 429 C218 464 186 497 186 544 C186 589 218 620 264 620 C328 620 382 561 402 470 L454 470 Z " />
<glyph glyph-name="scedilla" unicode="&#x15f;" horiz-adv-x="435" d="M374 292 L374 415 L335 415 C329 404 324 397 317 391 C267 411 231 419 188 419 C104 419 38 359 38 283 C38 217 84 171 176 146 C257 124 257 124 274 111 C282 104 287 93 287 83 C287 54 254 34 209 34 C149 34 104 67 86 123 L40 123 L40 -12 L82 -12 C87 0 93 8 101 15 C107 13 108 13 115 10 C146 -3 178 -13 200 -15 C196 -54 192 -81 186 -103 C207 -104 221 -118 221 -140 C221 -159 210 -169 188 -169 C170 -169 157 -167 136 -160 C134 -182 133 -185 130 -205 C147 -213 165 -216 187 -216 C259 -216 303 -182 303 -125 C303 -79 278 -49 235 -44 C237 -29 238 -24 239 -16 C343 -10 401 43 401 131 C401 168 388 200 363 227 C339 251 294 269 219 284 C171 293 146 310 146 333 C146 357 172 373 210 373 C271 373 316 343 332 292 L374 292 Z " />
<glyph glyph-name="Scaron" unicode="&#x160;" horiz-adv-x="538" d="M53 11 L109 11 C113 34 118 51 125 65 C165 16 229 -14 296 -14 C415 -14 507 76 507 192 C507 230 498 265 478 299 C452 344 393 388 299 429 C218 464 186 497 186 544 C186 589 218 620 264 620 C328 620 382 561 402 470 L454 470 L454 667 L400 667 C399 664 399 664 398 660 C395 643 391 631 385 622 C350 658 299 679 247 679 C138 679 53 591 53 479 C53 444 61 413 77 384 C100 342 158 296 244 253 C328 212 361 178 361 133 C361 84 324 49 273 49 C225 49 182 77 150 128 C133 155 122 184 109 239 L53 239 L53 11 Z M372 728 L476 887 L437 887 L281 795 L118 887 L80 887 L180 728 L372 728 Z " />
<glyph glyph-name="scaron" unicode="&#x161;" horiz-adv-x="435" d="M40 -12 L82 -12 C87 0 93 8 101 15 C107 13 108 13 115 10 C159 -9 191 -16 228 -16 C334 -16 401 41 401 131 C401 169 388 200 363 227 C339 252 294 269 219 284 C171 293 146 310 146 333 C146 357 172 373 210 373 C271 373 316 343 332 292 L374 292 L374 415 L335 415 C329 404 324 397 317 391 C267 411 231 419 188 419 C104 419 38 359 38 284 C38 217 84 172 176 147 C257 125 257 125 274 111 C282 105 287 94 287 83 C287 55 254 35 209 35 C149 35 104 68 86 123 L40 123 L40 -12 Z M113 654 L73 654 L163 491 L295 491 L378 654 L335 654 L228 570 L113 654 Z " />
<glyph glyph-name="Tcommaaccent" unicode="&#x162;" horiz-adv-x="662" d="M66 477 C81 585 103 607 190 608 L241 608 L241 136 C242 76 223 56 169 55 L154 55 L154 0 L504 0 L504 55 L488 55 C433 56 414 76 415 136 L415 608 L468 608 C547 608 571 583 594 477 L647 477 L647 667 L13 667 L13 477 L66 477 Z M256 -339 C363 -336 428 -275 428 -177 C428 -105 388 -59 327 -59 C278 -59 244 -92 244 -140 C244 -180 273 -212 310 -212 C315 -212 322 -211 329 -209 C334 -208 337 -207 338 -207 L344 -206 L346 -205 L347 -205 C353 -205 360 -214 360 -223 C360 -259 317 -287 256 -290 L256 -339 Z " />
<glyph glyph-name="tcommaaccent" unicode="&#x163;" horiz-adv-x="341" d="M332 349 L332 403 L217 403 L217 536 L167 536 C156 458 96 402 22 402 C21 402 15 402 10 403 L10 349 L65 349 L65 115 C65 30 111 -16 196 -16 C269 -16 324 19 346 78 L300 94 C286 64 273 53 251 53 C224 53 217 69 217 140 L217 349 L332 349 Z M118 -306 C212 -304 270 -250 270 -163 C270 -100 235 -59 181 -59 C138 -59 108 -88 108 -130 C108 -166 134 -194 166 -194 C171 -194 177 -193 183 -191 C187 -190 189 -190 190 -189 L196 -189 L198 -188 C204 -188 210 -196 210 -204 C210 -236 172 -261 118 -264 L118 -306 Z " />
<glyph glyph-name="Tcaron" unicode="&#x164;" horiz-adv-x="662" d="M66 477 C81 585 103 607 190 608 L241 608 L241 136 C242 76 223 56 169 55 L154 55 L154 0 L504 0 L504 55 L488 55 C433 56 414 76 415 136 L415 608 L468 608 C547 608 571 583 594 477 L647 477 L647 667 L13 667 L13 477 L66 477 Z M422 728 L526 887 L488 887 L331 795 L168 887 L130 887 L230 728 L422 728 Z " />
<glyph glyph-name="tcaron" unicode="&#x165;" horiz-adv-x="421" d="M332 349 L332 403 L217 403 L217 536 L167 536 C156 458 96 402 22 402 C21 402 15 402 10 403 L10 349 L65 349 L65 115 C65 30 111 -16 196 -16 C269 -16 324 19 346 78 L300 94 C286 64 273 53 251 53 C224 53 217 69 217 140 L217 349 L332 349 Z M262 467 C356 469 414 523 414 610 C414 673 379 714 325 714 C282 714 252 686 252 644 C252 608 278 580 310 580 C315 580 321 581 327 582 C331 583 333 584 334 584 L340 585 L342 585 C348 585 354 577 354 569 C354 537 316 513 262 510 L262 467 Z " />
<glyph glyph-name="utilde" unicode="&#x169;" horiz-adv-x="566" d="M498 403 L287 403 L287 351 L290 351 C329 349 338 337 339 285 L339 131 C339 129 338 128 335 123 C334 122 334 121 333 119 C313 85 291 68 267 68 C241 68 228 92 228 140 L228 403 L9 403 L9 351 L12 351 C54 349 68 333 69 285 L69 131 C69 87 73 67 86 44 C107 7 151 -16 200 -16 C254 -16 302 9 339 55 L339 51 L339 50 L339 41 L339 29 L339 27 L339 19 L339 16 L339 10 L339 -3 L339 -5 L339 -12 L339 -13 L339 -16 L344 -16 C373 -8 498 1 556 0 L556 52 L553 52 C511 54 499 67 498 118 L498 403 Z M173 493 C180 518 191 529 211 529 C229 529 255 522 285 510 C311 499 338 493 358 493 C413 493 447 546 448 633 L410 633 C407 605 392 588 371 588 C354 588 328 595 300 606 C274 617 249 623 228 623 C201 623 167 604 155 583 C142 561 137 534 136 493 L173 493 Z " />
<glyph glyph-name="Umacron" unicode="&#x16a;" horiz-adv-x="737" d="M475 667 L475 612 L481 612 C539 613 574 574 572 510 L572 286 C572 201 567 167 548 134 C519 84 469 55 411 55 C357 55 312 80 287 124 C269 157 263 192 263 268 L263 531 C265 593 280 611 337 612 L347 612 L347 667 L16 667 L16 612 L23 612 C80 611 96 593 98 531 L98 281 L98 268 C97 181 108 136 142 89 C190 22 270 -14 369 -14 C441 -14 511 9 557 48 C607 91 635 171 635 274 L635 284 L635 499 L635 507 C633 574 653 599 715 612 L720 612 L720 667 L475 667 Z M205 818 L205 756 L552 756 L552 818 L205 818 Z " />
<glyph glyph-name="umacron" unicode="&#x16b;" horiz-adv-x="566" d="M498 403 L287 403 L287 351 L290 351 C329 349 338 337 339 285 L339 131 C339 129 338 128 335 123 C334 122 334 121 333 119 C313 85 291 68 267 68 C241 68 228 92 228 140 L228 403 L9 403 L9 351 L12 351 C54 349 68 333 69 285 L69 131 C69 87 73 67 86 44 C107 7 151 -16 200 -16 C254 -16 302 9 339 55 L339 51 L339 50 L339 41 L339 29 L339 27 L339 19 L339 16 L339 10 L339 -3 L339 -5 L339 -12 L339 -13 L339 -16 L344 -16 C373 -8 498 1 556 0 L556 52 L553 52 C511 54 499 67 498 118 L498 403 Z M133 591 L133 529 L449 529 L449 591 L133 591 Z " />
<glyph glyph-name="ubreve" unicode="&#x16d;" horiz-adv-x="566" d="M498 403 L287 403 L287 351 L290 351 C329 349 338 337 339 285 L339 131 C339 129 338 128 335 123 C334 122 334 121 333 119 C313 85 291 68 267 68 C241 68 228 92 228 140 L228 403 L9 403 L9 351 L12 351 C54 349 68 333 69 285 L69 131 C69 87 73 67 86 44 C107 7 151 -16 200 -16 C254 -16 302 9 339 55 L339 51 L339 50 L339 41 L339 29 L339 27 L339 19 L339 16 L339 10 L339 -3 L339 -5 L339 -12 L339 -13 L339 -16 L344 -16 C373 -8 498 1 556 0 L556 52 L553 52 C511 54 499 67 498 118 L498 403 Z M136 647 C142 547 204 478 286 478 C370 478 434 551 436 647 L403 647 C386 593 348 566 289 566 C228 566 186 595 170 647 L136 647 Z " />
<glyph glyph-name="Uring" unicode="&#x16e;" horiz-adv-x="737" d="M475 667 L475 612 L481 612 C539 613 574 574 572 510 L572 286 C572 201 567 167 548 134 C519 84 469 55 411 55 C357 55 312 80 287 124 C269 157 263 192 263 268 L263 531 C265 593 280 611 337 612 L347 612 L347 667 L16 667 L16 612 L23 612 C80 611 96 593 98 531 L98 281 L98 268 C97 181 108 136 142 89 C190 22 270 -14 369 -14 C441 -14 511 9 557 48 C607 91 635 171 635 274 L635 284 L635 499 L635 507 C633 574 653 599 715 612 L720 612 L720 667 L475 667 Z M399 911 C340 911 292 863 292 804 C292 746 340 697 397 697 C458 697 506 744 506 804 C506 863 458 911 399 911 L399 911 Z M399 864 C432 864 459 837 459 804 C459 771 432 744 398 744 C365 744 339 771 339 805 C339 837 366 864 399 864 L399 864 Z " />
<glyph glyph-name="uring" unicode="&#x16f;" horiz-adv-x="566" d="M498 403 L287 403 L287 351 L290 351 C329 349 338 337 339 285 L339 131 C339 129 338 128 335 123 C334 122 334 121 333 119 C313 85 291 68 267 68 C241 68 228 92 228 140 L228 403 L9 403 L9 351 L12 351 C54 349 68 333 69 285 L69 131 C69 87 73 67 86 44 C107 7 151 -16 200 -16 C254 -16 302 9 339 55 L339 51 L339 50 L339 41 L339 29 L339 27 L339 19 L339 16 L339 10 L339 -3 L339 -5 L339 -12 L339 -13 L339 -16 L344 -16 C373 -8 498 1 556 0 L556 52 L553 52 C511 54 499 67 498 118 L498 403 Z M297 682 C238 682 190 634 190 575 C190 518 238 469 295 469 C356 469 404 516 404 576 C404 634 356 682 297 682 L297 682 Z M297 633 C329 633 355 607 355 576 C355 544 329 518 296 518 C264 518 239 544 239 576 C239 607 265 633 297 633 L297 633 Z " />
<glyph glyph-name="Uhungarumlaut" unicode="&#x170;" horiz-adv-x="737" d="M475 667 L475 612 L481 612 C539 613 574 574 572 510 L572 286 C572 201 567 167 548 134 C519 84 469 55 411 55 C357 55 312 80 287 124 C269 157 263 192 263 268 L263 531 C265 593 280 611 337 612 L347 612 L347 667 L16 667 L16 612 L23 612 C80 611 96 593 98 531 L98 281 L98 268 C97 181 108 136 142 89 C190 22 270 -14 369 -14 C441 -14 511 9 557 48 C607 91 635 171 635 274 L635 284 L635 499 L635 507 C633 574 653 599 715 612 L720 612 L720 667 L475 667 Z M248 732 L288 732 L510 880 L510 892 L347 892 L248 732 Z M454 732 L494 732 L716 880 L716 892 L554 892 L454 732 Z " />
<glyph glyph-name="uhungarumlaut" unicode="&#x171;" horiz-adv-x="566" d="M498 403 L287 403 L287 351 L290 351 C329 349 338 337 339 285 L339 131 C339 129 338 128 335 123 C334 122 334 121 333 119 C313 85 291 68 267 68 C241 68 228 92 228 140 L228 403 L9 403 L9 351 L12 351 C54 349 68 333 69 285 L69 131 C69 87 73 67 86 44 C107 7 151 -16 200 -16 C254 -16 302 9 339 55 L339 51 L339 50 L339 41 L339 29 L339 27 L339 19 L339 16 L339 10 L339 -3 L339 -5 L339 -12 L339 -13 L339 -16 L344 -16 C373 -8 498 1 556 0 L556 52 L553 52 C511 54 499 67 498 118 L498 403 Z M159 486 L202 486 L366 632 L366 643 L225 643 L159 486 Z M331 486 L374 486 L538 632 L538 643 L397 643 L331 486 Z " />
<glyph glyph-name="Uogonek" unicode="&#x172;" horiz-adv-x="737" d="M564 -150 C546 -157 536 -159 522 -159 C485 -159 460 -132 460 -93 C460 -52 486 -14 552 44 C603 81 633 164 635 274 L635 499 L635 507 C633 574 653 599 715 612 L720 612 L720 667 L475 667 L475 612 L481 612 C539 613 574 574 572 510 L572 286 C572 201 567 167 548 134 C519 84 469 55 411 55 C357 55 312 80 287 124 C269 157 263 192 263 268 L263 531 C265 593 280 611 337 612 L347 612 L347 667 L16 667 L16 612 L23 612 C80 611 96 593 98 531 L98 281 L98 268 C97 181 108 136 142 89 C191 22 270 -14 369 -14 C392 -14 412 -12 434 -7 C383 -39 357 -78 357 -122 C357 -177 407 -218 474 -218 C511 -218 541 -208 581 -180 L564 -150 Z " />
<glyph glyph-name="uogonek" unicode="&#x173;" horiz-adv-x="566" d="M556 52 L553 52 C511 54 499 67 498 118 L498 403 L287 403 L287 351 L290 351 C329 349 338 337 339 285 L339 131 C339 129 338 128 335 123 C334 122 334 121 333 119 C313 85 291 68 267 68 C241 68 228 92 228 140 L228 403 L9 403 L9 351 L12 351 C54 349 68 333 69 285 L69 131 C69 87 73 67 86 44 C107 7 151 -16 200 -16 C254 -16 302 9 339 55 L339 51 L339 50 L339 41 L339 29 L339 27 L339 19 L339 16 L339 10 L339 -3 L339 -5 L339 -12 L339 -13 L339 -16 L344 -16 C363 -12 386 -9 426 -5 C385 -35 365 -68 365 -106 C365 -158 410 -196 470 -196 C505 -196 532 -186 568 -160 L553 -132 C537 -139 528 -141 516 -141 C482 -141 459 -116 459 -80 C459 -52 471 -24 494 -1 C517 0 530 0 556 0 L556 52 Z " />
<glyph glyph-name="Wcircumflex" unicode="&#x174;" horiz-adv-x="896" d="M682 -14 L809 465 C840 580 858 609 898 613 L903 612 L908 612 L908 667 L705 667 L705 612 L710 612 C743 612 767 590 767 560 C767 545 764 527 759 507 L688 236 L528 667 L455 667 L322 236 L233 534 C228 551 225 568 225 580 C225 601 241 612 272 612 L277 612 L277 667 L-11 667 L-11 612 L-6 612 L-3 613 L1 613 L2 613 C38 610 47 597 72 515 L226 -14 L301 -14 L443 434 L609 -14 L682 -14 Z M391 887 L291 728 L329 728 L484 821 L649 728 L687 728 L583 887 L391 887 Z " />
<glyph glyph-name="Ycircumflex" unicode="&#x176;" horiz-adv-x="632" d="M-12 667 L-12 612 L-7 612 C35 609 51 594 90 525 L228 273 L228 136 C227 75 211 57 156 55 L146 55 L146 0 L485 0 L485 55 L476 55 C421 57 406 74 405 136 L405 284 L520 489 L527 500 C586 596 599 608 640 612 L644 612 L644 667 L426 667 L426 612 L431 612 C467 612 487 597 487 571 C487 556 481 536 471 517 L381 353 L273 534 C259 557 253 571 253 583 C253 603 269 612 301 612 L306 612 L306 667 L-12 667 Z M235 887 L135 728 L173 728 L329 821 L493 728 L531 728 L428 887 L235 887 Z " />
<glyph glyph-name="ycircumflex" unicode="&#x177;" horiz-adv-x="498" d="M-6 403 L-6 351 L1 350 C21 349 33 337 55 296 L62 282 L228 -18 L217 -44 C195 -91 176 -104 109 -121 C65 -132 46 -151 46 -184 C46 -222 76 -251 114 -251 C137 -251 161 -242 178 -226 C197 -208 197 -208 246 -109 L252 -96 L399 230 C405 242 412 258 426 287 C447 332 463 349 485 350 L493 351 L493 403 L334 403 L334 351 L339 351 L343 351 C357 352 375 339 375 328 C375 321 371 308 364 291 L358 278 L298 139 L220 295 L218 299 L217 302 L216 305 C208 327 208 327 208 332 C208 344 216 350 235 351 L242 351 L242 403 L-6 403 Z M378 484 L421 484 L338 647 L206 647 L116 484 L156 484 L271 568 L378 484 Z " />
<glyph glyph-name="Ydieresis" unicode="&#x178;" horiz-adv-x="632" d="M-12 667 L-12 612 L-7 612 C35 609 51 594 90 525 L228 273 L228 136 C227 75 211 57 156 55 L146 55 L146 0 L485 0 L485 55 L476 55 C421 57 406 74 405 136 L405 284 L520 489 L527 500 C586 596 599 608 640 612 L644 612 L644 667 L426 667 L426 612 L431 612 C467 612 487 597 487 571 C487 556 481 536 471 517 L381 353 L273 534 C259 557 253 571 253 583 C253 603 269 612 301 612 L306 612 L306 667 L-12 667 Z M201 880 C158 880 124 846 124 803 C124 761 159 726 200 726 C244 726 278 760 278 803 C278 846 244 880 201 880 L201 880 Z M460 880 C418 880 383 846 383 804 C383 760 417 726 460 726 C503 726 537 760 537 803 C537 846 503 880 460 880 L460 880 Z " />
<glyph glyph-name="Zacute" unicode="&#x179;" horiz-adv-x="646" d="M32 0 L602 0 L613 198 L560 198 C523 85 487 57 380 59 L235 59 L593 622 L593 667 L60 667 L50 489 L100 489 C131 591 159 609 285 608 L388 608 L32 44 L32 0 Z M293 732 L332 732 L591 880 L591 892 L392 892 L293 732 Z " />
<glyph glyph-name="zacute" unicode="&#x17a;" horiz-adv-x="467" d="M28 0 L428 0 L441 138 L391 138 C363 71 345 53 306 53 L221 53 L434 357 L434 403 L51 403 L42 279 L93 279 C122 346 125 350 155 350 L243 350 L28 41 L28 0 Z M211 486 L254 486 L455 632 L455 643 L277 643 L211 486 Z " />
<glyph glyph-name="Zdotaccent" unicode="&#x17b;" horiz-adv-x="646" d="M32 0 L602 0 L613 198 L560 198 C523 85 487 57 380 59 L235 59 L593 622 L593 667 L60 667 L50 489 L100 489 C131 591 159 609 285 608 L388 608 L32 44 L32 0 Z M345 880 C302 880 268 846 268 803 C268 761 303 726 344 726 C388 726 422 760 422 803 C422 846 388 880 345 880 L345 880 Z " />
<glyph glyph-name="zdotaccent" unicode="&#x17c;" horiz-adv-x="467" d="M28 0 L428 0 L441 138 L391 138 C363 71 345 53 306 53 L221 53 L434 357 L434 403 L51 403 L42 279 L93 279 C122 346 125 350 155 350 L243 350 L28 41 L28 0 Z M262 637 C223 637 192 606 192 568 C192 530 223 498 261 498 C300 498 331 529 331 568 C331 606 300 637 262 637 L262 637 Z " />
<glyph glyph-name="Zcaron" unicode="&#x17d;" horiz-adv-x="646" d="M32 0 L602 0 L613 198 L560 198 C523 85 487 57 380 59 L235 59 L593 622 L593 667 L60 667 L50 489 L100 489 C131 591 159 609 285 608 L388 608 L32 44 L32 0 Z M431 728 L535 887 L497 887 L340 795 L177 887 L139 887 L239 728 L431 728 Z " />
<glyph glyph-name="zcaron" unicode="&#x17e;" horiz-adv-x="467" d="M28 0 L428 0 L441 138 L391 138 C363 71 345 53 306 53 L221 53 L434 357 L434 403 L51 403 L42 279 L93 279 C122 346 125 350 155 350 L243 350 L28 41 L28 0 Z M141 654 L101 654 L190 491 L323 491 L406 654 L363 654 L256 570 L141 654 Z " />
<glyph glyph-name="florin" unicode="&#x192;" horiz-adv-x="517" d="M363 445 C368 475 369 489 369 506 C369 514 368 529 366 549 C365 564 364 581 364 591 C364 632 381 660 405 660 C412 660 417 656 417 650 C417 646 416 640 413 633 C409 624 407 613 407 605 C407 581 425 563 449 563 C477 563 498 587 498 620 C498 659 468 683 420 683 C355 683 318 648 283 557 C246 459 235 449 165 445 L153 385 L219 385 L218 376 C207 317 202 292 200 280 L181 184 C156 54 153 32 152 -61 L151 -123 L151 -126 L151 -136 C151 -167 139 -187 121 -187 C116 -187 109 -182 109 -179 L109 -174 C109 -174 109 -172 108 -169 L108 -166 L108 -164 C111 -155 111 -155 111 -150 C111 -127 93 -111 67 -111 C41 -111 19 -133 19 -160 C19 -192 51 -217 90 -217 C140 -217 188 -186 224 -131 C251 -88 277 -3 304 140 L352 385 L423 385 L434 445 L363 445 Z " />
<glyph glyph-name="uni01CD" unicode="&#x1cd;" horiz-adv-x="622" d="M634 0 L634 55 L629 55 C585 60 569 78 535 162 L336 679 L282 679 L97 188 L93 177 C65 99 32 60 -7 55 L-13 55 L-13 0 L196 0 L196 55 L189 55 C154 55 130 70 130 92 C130 104 135 126 145 153 L155 180 L350 180 L369 131 C378 108 383 91 383 83 C383 64 364 55 325 55 L320 55 L320 0 L634 0 Z M329 236 L175 236 L250 436 L329 236 Z M403 728 L506 887 L468 887 L312 795 L149 887 L110 887 L210 728 L403 728 Z " />
<glyph glyph-name="uni01CE" unicode="&#x1ce;" horiz-adv-x="537" d="M496 90 C493 72 483 62 470 62 C454 62 446 76 446 105 L446 291 C446 338 442 354 422 376 C395 406 348 419 270 419 C204 419 157 411 117 392 C73 371 48 342 48 311 C48 280 71 259 104 259 C140 259 159 276 164 312 C167 331 172 344 178 349 C188 357 209 363 228 363 C272 363 288 347 288 303 L288 266 L268 259 C262 256 251 252 237 247 C165 223 106 191 67 155 C48 138 35 108 35 82 C35 25 78 -10 147 -10 C201 -10 252 8 297 43 C317 8 357 -10 411 -10 C486 -10 531 26 534 90 L496 90 Z M288 211 L288 96 C270 74 250 62 231 62 C206 62 186 84 186 112 C186 151 215 179 285 210 L288 211 Z M164 654 L124 654 L213 491 L346 491 L429 654 L385 654 L278 570 L164 654 Z " />
<glyph glyph-name="uni01D3" unicode="&#x1d3;" horiz-adv-x="737" d="M475 667 L475 612 L481 612 C539 613 574 574 572 510 L572 286 C572 201 567 167 548 134 C519 84 469 55 411 55 C357 55 312 80 287 124 C269 157 263 192 263 268 L263 531 C265 593 280 611 337 612 L347 612 L347 667 L16 667 L16 612 L23 612 C80 611 96 593 98 531 L98 281 L98 268 C97 181 108 136 142 89 C190 22 270 -14 369 -14 C441 -14 511 9 557 48 C607 91 635 171 635 274 L635 284 L635 499 L635 507 C633 574 653 599 715 612 L720 612 L720 667 L475 667 Z M483 728 L587 887 L549 887 L392 795 L229 887 L191 887 L291 728 L483 728 Z " />
<glyph glyph-name="uni01D4" unicode="&#x1d4;" horiz-adv-x="566" d="M498 403 L287 403 L287 351 L290 351 C329 349 338 337 339 285 L339 131 C339 129 338 128 335 123 C334 122 334 121 333 119 C313 85 291 68 267 68 C241 68 228 92 228 140 L228 403 L9 403 L9 351 L12 351 C54 349 68 333 69 285 L69 131 C69 87 73 67 86 44 C107 7 151 -16 200 -16 C254 -16 302 9 339 55 L339 51 L339 50 L339 41 L339 29 L339 27 L339 19 L339 16 L339 10 L339 -3 L339 -5 L339 -12 L339 -13 L339 -16 L344 -16 C373 -8 498 1 556 0 L556 52 L553 52 C511 54 499 67 498 118 L498 403 Z M178 654 L138 654 L228 491 L360 491 L443 654 L400 654 L293 570 L178 654 Z " />
<glyph glyph-name="Gcaron" unicode="&#x1e6;" horiz-adv-x="748" d="M435 308 L435 254 L442 253 C490 248 506 232 508 190 L508 166 C508 125 503 107 485 86 C464 62 431 49 390 49 C286 49 241 125 241 301 C241 413 254 494 281 542 C304 584 352 609 406 609 C496 609 557 552 588 439 L642 439 L636 672 L584 672 C582 646 576 625 564 602 C506 654 442 679 367 679 C184 679 39 523 39 326 C39 132 179 -14 366 -14 C407 -14 441 -9 522 10 C575 22 626 29 658 29 C663 29 669 29 679 28 L679 168 C680 231 685 241 723 252 L731 254 L731 308 L435 308 Z M480 728 L583 887 L545 887 L389 795 L226 887 L187 887 L287 728 L480 728 Z " />
<glyph glyph-name="gcaron" unicode="&#x1e7;" horiz-adv-x="511" d="M264 -63 L274 -63 L310 -63 C376 -63 404 -78 404 -113 C404 -164 343 -197 249 -197 C217 -197 189 -193 169 -186 C141 -176 132 -168 126 -148 C121 -132 120 -126 120 -122 L123 -105 L123 -98 L123 -97 L123 -96 C105 -88 94 -85 82 -85 C54 -85 30 -111 30 -143 C30 -213 102 -249 238 -249 C315 -249 369 -238 412 -213 C465 -183 494 -133 494 -72 C494 -36 483 -3 462 21 C436 50 383 67 317 66 L261 65 L209 65 L202 65 C168 65 153 72 153 89 C153 115 181 128 237 128 C363 129 440 185 440 277 C440 302 435 323 422 345 C431 354 435 356 442 356 C450 356 455 354 464 345 C475 334 482 331 492 331 C511 331 523 346 523 370 C523 401 505 419 476 419 C452 419 432 409 394 376 C357 406 314 418 249 418 C120 418 42 365 42 277 C42 213 81 164 149 144 C82 125 53 95 53 42 C53 -28 110 -64 221 -64 L264 -63 Z M242 365 C273 365 290 335 290 282 C290 216 275 185 245 185 C211 185 195 217 195 285 C195 335 213 365 242 365 L242 365 Z M135 654 L94 654 L184 491 L316 491 L399 654 L356 654 L249 570 L135 654 Z " />
<glyph glyph-name="Scommaaccent" unicode="&#x218;" horiz-adv-x="538" d="M53 11 L109 11 C113 34 118 51 125 65 C165 16 229 -14 296 -14 C415 -14 507 76 507 192 C507 230 498 265 478 299 C452 344 393 388 299 429 C218 464 186 497 186 544 C186 589 218 620 264 620 C328 620 382 561 402 470 L454 470 L454 667 L400 667 C399 664 399 664 398 660 C395 643 391 631 385 622 C350 658 299 679 247 679 C138 679 53 591 53 479 C53 444 61 413 77 384 C100 342 158 296 244 253 C328 212 361 178 361 133 C361 84 324 49 273 49 C225 49 182 77 150 128 C133 155 122 184 109 239 L53 239 L53 11 Z M210 -339 C317 -336 382 -275 382 -177 C382 -105 342 -59 281 -59 C232 -59 198 -92 198 -140 C198 -180 227 -212 264 -212 C269 -212 276 -211 283 -209 C288 -208 291 -207 292 -207 L298 -206 L300 -205 L301 -205 C307 -205 314 -214 314 -223 C314 -259 271 -287 210 -290 L210 -339 Z " />
<glyph glyph-name="scommaaccent" unicode="&#x219;" horiz-adv-x="435" d="M40 -12 L82 -12 C87 0 93 8 101 15 C107 13 108 13 115 10 C159 -9 191 -16 228 -16 C334 -16 401 41 401 131 C401 169 388 200 363 227 C339 252 294 269 219 284 C171 293 146 310 146 333 C146 357 172 373 210 373 C271 373 316 343 332 292 L374 292 L374 415 L335 415 C329 404 324 397 317 391 C267 411 231 419 188 419 C104 419 38 359 38 284 C38 217 84 172 176 147 C257 125 257 125 274 111 C282 105 287 94 287 83 C287 55 254 35 209 35 C149 35 104 68 86 123 L40 123 L40 -12 Z M149 -306 C243 -304 301 -250 301 -163 C301 -100 266 -59 212 -59 C169 -59 139 -88 139 -130 C139 -166 165 -194 197 -194 C202 -194 208 -193 214 -191 C218 -190 220 -190 221 -189 L227 -189 L229 -188 C235 -188 241 -196 241 -204 C241 -236 203 -261 149 -264 L149 -306 Z " />
<glyph glyph-name="uni021A" unicode="&#x21a;" horiz-adv-x="662" d="M66 477 C81 585 103 607 190 608 L241 608 L241 136 C242 76 223 56 169 55 L154 55 L154 0 L504 0 L504 55 L488 55 C433 56 414 76 415 136 L415 608 L468 608 C547 608 571 583 594 477 L647 477 L647 667 L13 667 L13 477 L66 477 Z M256 -339 C363 -336 428 -275 428 -177 C428 -105 388 -59 327 -59 C278 -59 244 -92 244 -140 C244 -180 273 -212 310 -212 C315 -212 322 -211 329 -209 C334 -208 337 -207 338 -207 L344 -206 L346 -205 L347 -205 C353 -205 360 -214 360 -223 C360 -259 317 -287 256 -290 L256 -339 Z " />
<glyph glyph-name="uni021B" unicode="&#x21b;" horiz-adv-x="341" d="M332 349 L332 403 L217 403 L217 536 L167 536 C156 458 96 402 22 402 C21 402 15 402 10 403 L10 349 L65 349 L65 115 C65 30 111 -16 196 -16 C269 -16 324 19 346 78 L300 94 C286 64 273 53 251 53 C224 53 217 69 217 140 L217 349 L332 349 Z M118 -306 C212 -304 270 -250 270 -163 C270 -100 235 -59 181 -59 C138 -59 108 -88 108 -130 C108 -166 134 -194 166 -194 C171 -194 177 -193 183 -191 C187 -190 189 -190 190 -189 L196 -189 L198 -188 C204 -188 210 -196 210 -204 C210 -236 172 -261 118 -264 L118 -306 Z " />
<glyph glyph-name="afii57929" unicode="&#x2bc;" horiz-adv-x="320" d="M69 328 C182 331 258 414 258 532 C258 622 216 679 149 679 C97 679 61 641 61 588 C61 541 92 505 133 505 C139 505 145 506 151 508 C159 511 166 512 169 512 C179 512 186 502 186 488 C186 435 137 392 69 386 L69 328 Z " />
<glyph glyph-name="circumflex" unicode="&#x2c6;" horiz-adv-x="490" d="M355 484 L398 484 L315 647 L182 647 L93 484 L133 484 L247 568 L355 484 Z " />
<glyph glyph-name="caron" unicode="&#x2c7;" horiz-adv-x="490" d="M133 654 L93 654 L182 491 L315 491 L398 654 L355 654 L248 570 L133 654 Z " />
<glyph glyph-name="uni02C9" unicode="&#x2c9;" horiz-adv-x="383" d="M33 591 L33 529 L349 529 L349 591 L33 591 Z " />
<glyph glyph-name="breve" unicode="&#x2d8;" horiz-adv-x="490" d="M90 647 L90 642 C90 603 107 560 135 527 C164 494 199 478 241 478 C324 478 389 551 391 647 L357 647 C340 593 302 566 243 566 C183 566 141 595 124 647 L90 647 Z " />
<glyph glyph-name="dotaccent" unicode="&#x2d9;" horiz-adv-x="482" d="M241 637 C202 637 171 606 171 568 C171 530 202 498 240 498 C279 498 310 529 310 568 C310 606 279 637 241 637 L241 637 Z " />
<glyph glyph-name="ring" unicode="&#x2da;" horiz-adv-x="500" d="M248 682 C189 682 141 634 141 575 C141 518 189 469 246 469 C306 469 354 516 354 576 C354 634 306 682 248 682 L248 682 Z M248 633 C279 633 305 607 305 576 C305 544 279 518 247 518 C215 518 190 544 190 576 C190 607 216 633 248 633 L248 633 Z " />
<glyph glyph-name="ogonek" unicode="&#x2db;" horiz-adv-x="500" d="M329 15 C262 -21 234 -57 234 -106 C234 -158 279 -196 340 -196 C374 -196 401 -186 437 -160 L422 -132 C406 -139 397 -141 385 -141 C351 -141 328 -116 328 -80 C328 -46 341 -22 379 15 L329 15 Z " />
<glyph glyph-name="tilde" unicode="&#x2dc;" horiz-adv-x="491" d="M124 493 C131 518 142 529 162 529 C180 529 206 522 236 510 C262 499 289 493 308 493 C364 493 399 548 399 633 L361 633 C358 605 343 588 322 588 C305 588 279 595 251 606 C225 617 200 623 179 623 C152 623 118 604 106 583 C93 561 88 534 87 493 L124 493 Z " />
<glyph glyph-name="hungarumlaut" unicode="&#x2dd;" horiz-adv-x="485" d="M99 486 L142 486 L305 632 L305 643 L165 643 L99 486 Z M271 486 L314 486 L478 632 L478 643 L337 643 L271 486 Z " />
<glyph glyph-name="Wdieresis" unicode="&#x1e84;" horiz-adv-x="896" d="M682 -14 L809 465 C840 580 858 609 898 613 L903 612 L908 612 L908 667 L705 667 L705 612 L710 612 C743 612 767 590 767 560 C767 545 764 527 759 507 L688 236 L528 667 L455 667 L322 236 L233 534 C228 551 225 568 225 580 C225 601 241 612 272 612 L277 612 L277 667 L-11 667 L-11 612 L-6 612 L-3 613 L1 613 L2 613 C38 610 47 597 72 515 L226 -14 L301 -14 L443 434 L609 -14 L682 -14 Z M361 880 C318 880 284 846 284 803 C284 761 319 726 360 726 C404 726 438 760 438 803 C438 846 404 880 361 880 L361 880 Z M620 880 C578 880 543 846 543 804 C543 760 577 726 620 726 C663 726 697 760 697 803 C697 846 663 880 620 880 L620 880 Z " />
<glyph glyph-name="uni2011" unicode="&#x2011;" horiz-adv-x="329" d="M29 254 L29 180 L305 180 L305 254 L29 254 Z " />
<glyph glyph-name="figuredash" unicode="&#x2012;" horiz-adv-x="528" d="M19 254 L19 190 L509 190 L509 254 L19 254 Z " />
<glyph glyph-name="endash" unicode="&#x2013;" horiz-adv-x="528" d="M19 254 L19 190 L509 190 L509 254 L19 254 Z " />
<glyph glyph-name="emdash" unicode="&#x2014;" horiz-adv-x="841" d="M19 254 L19 190 L822 190 L822 254 L19 254 Z " />
<glyph glyph-name="afii00208" unicode="&#x2015;" horiz-adv-x="841" d="M19 254 L19 190 L822 190 L822 254 L19 254 Z " />
<glyph glyph-name="quoteleft" unicode="&#x2018;" horiz-adv-x="320" d="M252 679 C139 675 63 593 63 475 C63 385 105 328 172 328 C223 328 260 365 260 419 C260 465 229 501 189 501 C182 501 176 500 170 498 C162 496 156 495 152 495 C142 495 135 505 135 519 C135 572 184 614 252 620 L252 679 Z " />
<glyph glyph-name="quoteright" unicode="&#x2019;" horiz-adv-x="290" d="M54 328 C167 331 243 414 243 532 C243 622 201 679 134 679 C82 679 46 641 46 588 C46 541 77 505 118 505 C124 505 130 506 136 508 C144 511 151 512 154 512 C164 512 171 502 171 488 C171 435 122 392 54 386 L54 328 Z " />
<glyph glyph-name="quotesinglbase" unicode="&#x201a;" horiz-adv-x="319" d="M69 -196 C181 -192 257 -110 257 8 C257 99 215 156 149 156 C97 156 61 118 61 65 C61 18 92 -18 132 -18 C138 -18 144 -17 150 -15 C159 -12 165 -11 168 -11 C178 -11 185 -21 185 -35 C185 -88 137 -131 69 -137 L69 -196 Z " />
<glyph glyph-name="quotedblleft" unicode="&#x201c;" horiz-adv-x="569" d="M248 679 C135 675 59 593 59 475 C59 385 101 328 168 328 C219 328 256 365 256 419 C256 465 225 501 185 501 C178 501 172 500 166 498 C158 496 152 495 148 495 C138 495 131 505 131 519 C131 572 180 614 248 620 L248 679 Z M505 679 C392 675 316 593 316 475 C316 385 358 328 425 328 C476 328 513 366 513 419 C513 465 482 501 441 501 C435 501 429 500 423 498 C415 496 409 495 405 495 C395 495 388 505 388 519 C388 572 437 614 505 620 L505 679 Z " />
<glyph glyph-name="quotedblright" unicode="&#x201d;" horiz-adv-x="569" d="M62 328 C175 331 251 414 251 532 C251 622 209 679 142 679 C90 679 54 641 54 588 C54 541 85 505 126 505 C132 505 138 506 144 508 C152 511 159 512 162 512 C172 512 179 502 179 488 C179 435 130 392 62 386 L62 328 Z M321 328 C434 331 510 414 510 532 C510 622 468 679 401 679 C349 679 313 641 313 588 C313 541 344 505 385 505 C390 505 397 506 403 508 C411 511 418 512 421 512 C431 512 438 502 438 488 C438 435 389 392 321 386 L321 328 Z " />
<glyph glyph-name="quotedblbase" unicode="&#x201e;" horiz-adv-x="568" d="M57 -196 C168 -192 245 -109 245 8 C245 99 203 156 137 156 C85 156 49 118 49 65 C49 19 80 -18 118 -18 C124 -18 131 -17 138 -14 C143 -13 146 -12 148 -12 L155 -11 C157 -10 158 -9 159 -9 C160 -9 161 -10 166 -15 C173 -21 173 -22 173 -30 C173 -88 126 -131 57 -137 L57 -196 Z M316 -196 C427 -192 504 -109 504 8 C504 99 462 156 396 156 C344 156 308 119 308 65 C308 19 339 -18 377 -18 C382 -18 389 -17 397 -15 C402 -13 405 -13 407 -13 L410 -12 L416 -11 C417 -10 418 -10 418 -10 C424 -10 432 -22 432 -31 C432 -88 385 -131 316 -137 L316 -196 Z " />
<glyph glyph-name="dagger" unicode="&#x2020;" horiz-adv-x="508" d="M288 -245 L288 -166 C290 -43 293 19 301 92 C312 205 312 210 312 243 C312 296 305 344 292 370 C305 367 307 366 328 357 C376 336 402 328 426 328 C464 328 488 356 488 399 C488 443 464 471 425 471 C403 471 375 463 345 450 L318 438 L309 434 C302 432 298 431 288 427 C318 505 331 558 331 599 C331 647 302 679 259 679 C214 679 187 646 187 593 C187 555 205 487 230 427 C219 429 214 430 199 437 C128 468 114 473 90 473 C53 473 30 445 30 400 C30 356 54 328 93 328 C114 328 141 336 187 355 C201 361 210 365 213 365 C219 368 222 368 230 370 C214 337 207 301 207 245 C207 221 208 205 211 167 C227 -7 227 -17 230 -164 L230 -245 L288 -245 Z " />
<glyph glyph-name="daggerdbl" unicode="&#x2021;" horiz-adv-x="528" d="M299 252 C301 268 303 278 308 298 C313 317 315 325 315 336 C315 359 308 382 293 408 L304 404 C333 394 335 393 342 390 C394 369 408 365 431 365 C469 365 494 394 494 438 C494 483 468 512 428 512 C406 512 387 507 351 491 C332 482 320 477 316 476 C308 472 304 471 293 468 C296 481 299 490 309 519 C328 571 332 589 332 614 C332 655 308 679 267 679 C223 679 197 654 197 612 C197 588 203 563 217 529 C232 492 233 487 237 468 C225 471 220 473 202 480 C141 506 122 512 98 512 C60 512 34 482 34 439 C34 397 60 366 95 366 C111 366 142 373 166 383 L184 390 C195 394 203 397 208 399 C219 403 224 405 237 408 C223 380 215 354 215 337 C215 329 217 320 221 303 C228 279 230 270 232 252 L299 252 Z M231 179 C230 160 228 154 221 128 C217 112 215 101 215 94 C215 77 223 51 237 23 C222 27 215 30 197 37 C138 60 118 66 95 66 C60 66 34 35 34 -7 C34 -50 60 -80 98 -80 C122 -80 140 -74 202 -48 C220 -41 224 -39 237 -36 C233 -55 231 -60 217 -97 C203 -132 197 -155 197 -180 C197 -222 223 -247 267 -247 C308 -247 332 -223 332 -182 C332 -166 326 -134 319 -115 C301 -67 297 -53 293 -36 C314 -43 316 -44 351 -60 C386 -75 407 -81 428 -81 C468 -81 494 -52 494 -7 C494 37 469 66 431 66 C413 66 389 60 362 49 C348 43 338 40 334 38 C329 36 329 36 304 27 L293 23 C308 50 315 72 315 95 C315 105 313 115 308 133 C302 154 301 162 299 179 L231 179 Z " />
<glyph glyph-name="bullet" unicode="&#x2022;" horiz-adv-x="633" d="M317 480 C245 480 186 417 186 340 C186 264 245 200 315 200 C389 200 447 262 447 340 C447 418 389 480 317 480 L317 480 Z " />
<glyph glyph-name="ellipsis" unicode="&#x2026;" horiz-adv-x="957" d="M158 160 C111 160 73 120 73 72 C73 22 110 -18 158 -18 C204 -18 242 22 242 71 C242 120 204 160 158 160 L158 160 Z M476 160 C428 160 390 121 390 72 C390 22 428 -18 475 -18 C521 -18 559 22 559 71 C559 120 521 160 476 160 L476 160 Z M792 160 C744 160 706 121 706 72 C706 22 743 -18 791 -18 C837 -18 875 22 875 71 C875 120 837 160 792 160 L792 160 Z " />
<glyph glyph-name="perthousand" unicode="&#x2030;" horiz-adv-x="1104" d="M186 680 C145 680 111 668 87 645 C54 612 33 559 33 505 C33 399 90 333 181 333 C221 333 257 346 281 368 C313 397 333 452 333 508 C333 613 275 680 186 680 L186 680 Z M184 638 C211 638 223 597 223 508 C223 418 210 375 183 375 C155 375 143 412 143 502 C143 597 155 638 184 638 L184 638 Z M251 0 L576 668 L509 668 L183 0 L251 0 Z M579 334 C539 334 505 322 481 299 C447 266 426 213 426 159 C426 53 483 -13 575 -13 C615 -13 651 0 675 22 C706 51 727 106 727 162 C727 267 669 334 579 334 L579 334 Z M536 191 C535 255 550 292 578 292 C604 292 617 250 617 162 C617 72 604 29 577 29 C567 29 556 36 551 46 C539 69 537 87 536 175 L536 191 Z M925 334 C884 334 850 322 826 299 C792 267 771 213 771 159 C771 52 828 -13 920 -13 C960 -13 995 -1 1019 21 C1051 51 1072 106 1072 162 C1072 267 1014 334 925 334 L925 334 Z M881 190 C880 253 895 292 921 292 C951 292 962 247 962 135 C962 67 947 29 922 29 C911 29 901 36 896 46 C884 69 882 87 881 175 L881 190 Z " />
<glyph glyph-name="guilsinglleft" unicode="&#x2039;" horiz-adv-x="289" d="M23 217 L209 0 L262 0 L188 217 L261 433 L208 433 L23 217 Z " />
<glyph glyph-name="guilsinglright" unicode="&#x203a;" horiz-adv-x="289" d="M262 217 L77 433 L24 433 L97 217 L23 0 L76 0 L262 217 Z " />
<glyph glyph-name="uni203E" unicode="&#x203e;" horiz-adv-x="500" d="M0 847 L0 807 L500 807 L500 847 L0 847 Z " />
<glyph glyph-name="fraction" unicode="&#x2044;" horiz-adv-x="169" d="M-44 0 L281 668 L214 668 L-112 0 L-44 0 Z " />
<glyph glyph-name="franc" unicode="&#x20a3;" horiz-adv-x="849" d="M557 667 L26 667 L26 613 L37 613 C92 611 107 595 109 531 L109 136 C108 75 92 57 37 55 L28 55 L28 0 L369 0 L369 55 L356 55 C303 55 282 79 283 136 L283 318 L330 318 C379 316 389 304 394 237 L395 231 L447 231 L447 460 L395 460 L394 453 C389 392 378 379 331 378 L283 378 L283 608 L381 608 C455 609 479 587 508 490 L561 490 L557 667 Z M651 373 L601 362 L540 349 L493 338 L486 337 L486 290 L489 290 C527 289 538 276 539 231 L539 105 C538 59 529 48 491 47 L487 47 L487 0 L741 0 L741 47 L733 47 C694 48 683 61 682 105 L682 145 C682 240 699 285 736 285 C747 285 757 279 768 267 C789 242 795 238 815 238 C847 238 869 264 869 301 C869 345 839 376 798 376 C750 376 706 343 676 285 C675 322 671 352 662 375 L651 373 Z " />
<glyph glyph-name="Euro" unicode="&#x20ac;" horiz-adv-x="744" d="M294 390 C298 446 303 479 311 502 C335 575 386 615 454 615 C550 615 617 544 646 412 L697 412 L691 658 L640 658 C639 656 639 656 639 654 C634 634 628 618 620 599 C565 654 503 679 423 679 C256 679 132 568 100 390 L57 390 L35 335 L95 335 L95 332 L95 328 L96 306 L57 306 L35 251 L103 251 C140 86 259 -14 419 -14 C501 -14 581 18 627 70 C639 54 647 35 654 6 L706 6 L706 256 L654 256 C646 223 634 185 619 155 C590 94 525 51 458 51 C391 51 336 91 313 155 C303 181 298 208 295 251 L477 251 L499 306 L292 306 L292 335 L511 335 L533 390 L294 390 Z " />
<glyph glyph-name="trademark" unicode="&#x2122;" horiz-adv-x="926" d="M360 563 L360 667 L13 667 L13 563 L32 563 C36 620 55 640 105 641 L126 641 L126 347 C126 314 120 308 91 306 L79 306 L79 287 L294 287 L294 306 L282 306 C252 308 247 314 247 347 L247 641 L268 641 C317 641 338 619 341 563 L360 563 Z M372 667 L372 648 C414 647 419 644 419 620 L419 347 C419 319 408 308 373 306 L373 287 L499 287 L499 306 C464 309 452 320 452 347 L452 605 L583 287 L601 287 L732 595 L732 347 C732 314 727 308 698 306 L685 306 L685 287 L893 287 L893 306 L881 306 C854 308 849 314 849 347 L849 607 C849 640 854 646 881 648 L895 648 L895 667 L730 667 L635 447 L544 667 L372 667 Z " />
<glyph glyph-name="uni2126" unicode="&#x2126;" horiz-adv-x="768" d="M326 0 L308 155 C230 199 180 288 180 382 C180 434 195 493 221 540 C257 605 317 642 385 642 C453 642 513 605 549 540 C575 493 590 434 590 382 C590 288 540 199 462 155 L444 0 L736 0 L736 153 L712 153 C704 108 684 90 643 90 L497 90 L500 128 C535 141 557 151 580 166 C657 215 702 296 702 382 C702 449 673 522 625 578 C564 648 480 686 385 686 C290 686 206 648 145 578 C97 522 68 449 68 382 C68 296 113 215 190 166 C213 151 235 141 270 128 L273 90 L127 90 C86 90 66 108 58 153 L34 153 L34 0 L326 0 Z " />
<glyph glyph-name="partialdiff" unicode="&#x2202;" horiz-adv-x="494" d="M107 674 C152 697 184 706 219 706 C321 706 379 611 379 448 C379 418 377 395 372 346 C308 396 272 412 221 412 C172 412 131 394 95 355 C51 309 26 246 26 184 C26 76 109 -10 213 -10 C282 -10 341 22 383 84 C429 152 462 286 462 403 C462 519 428 611 360 681 C312 730 259 753 195 753 C156 753 122 746 66 725 L107 674 Z M366 312 C350 201 339 158 314 107 C288 54 245 21 201 21 C146 21 113 73 113 159 C113 273 180 367 261 367 C299 367 324 354 366 312 L366 312 Z " />
<glyph glyph-name="Delta" unicode="&#x2206;" horiz-adv-x="612" d="M6 0 L608 0 L327 688 L6 0 Z M77 51 L290 509 L479 51 L77 51 Z " />
<glyph glyph-name="product" unicode="&#x220f;" horiz-adv-x="823" d="M25 -124 L315 -124 L315 -98 L312 -98 C242 -94 221 -67 224 18 L224 594 C224 656 228 677 242 690 C260 707 272 708 413 708 C556 708 568 707 586 690 C600 677 604 656 604 594 L604 18 C607 -67 586 -94 516 -98 L513 -98 L513 -124 L803 -124 L803 -98 L800 -98 C730 -94 709 -67 712 18 L712 609 C709 694 730 721 800 725 L803 725 L803 751 L25 751 L25 725 L28 725 C98 721 119 694 116 609 L116 18 C119 -67 98 -94 28 -98 L25 -98 L25 -124 Z " />
<glyph glyph-name="summation" unicode="&#x2211;" horiz-adv-x="713" d="M176 711 L444 711 C560 710 590 688 606 587 L632 587 L622 752 L23 752 L256 285 L14 -123 L641 -123 L695 87 L669 87 C639 7 605 -12 491 -11 L163 -11 L364 341 L176 711 Z " />
<glyph glyph-name="minus" unicode="&#x2212;" horiz-adv-x="475" d="M2 414 L2 325 L473 325 L473 414 L2 414 Z " />
<glyph glyph-name="uni2215" unicode="&#x2215;" horiz-adv-x="169" d="M-44 0 L281 668 L214 668 L-112 0 L-44 0 Z " />
<glyph glyph-name="uni2219" unicode="&#x2219;" horiz-adv-x="279" d="M133 421 C86 421 48 381 48 333 C48 284 86 244 131 244 C179 244 217 283 217 333 C217 382 179 421 133 421 L133 421 Z " />
<glyph glyph-name="radical" unicode="&#x221a;" horiz-adv-x="549" d="M363 -35 L515 908 L480 913 L353 123 L156 520 L10 449 L26 414 L121 461 L363 -35 Z " />
<glyph glyph-name="infinity" unicode="&#x221e;" horiz-adv-x="713" d="M357 303 C300 375 234 414 171 414 C86 414 26 351 26 263 C26 176 84 115 167 115 C224 115 282 143 327 192 C335 201 340 207 357 228 C415 156 485 115 548 115 C631 115 688 176 688 266 C688 354 629 414 543 414 C476 414 412 376 357 303 L357 303 Z M391 265 C434 325 493 362 546 362 C600 362 638 321 638 264 C638 205 603 167 549 167 C495 167 461 188 391 265 L391 265 Z M324 266 C275 203 216 167 163 167 C111 167 76 207 76 266 C76 323 113 362 167 362 C218 362 259 337 324 266 L324 266 Z " />
<glyph glyph-name="integral" unicode="&#x222b;" horiz-adv-x="274" d="M180 576 C180 653 179 691 176 746 C174 774 173 800 173 815 C173 855 184 878 202 878 C208 878 213 876 215 872 C232 845 239 839 256 839 C276 839 291 853 291 871 C291 898 267 916 231 916 C186 916 152 887 138 838 C123 784 113 682 113 577 L113 232 C113 160 114 124 117 63 C119 34 120 4 120 -12 C120 -47 108 -70 89 -70 C81 -70 74 -65 68 -52 C59 -35 51 -30 37 -30 C17 -30 2 -44 2 -63 C2 -89 26 -107 62 -107 C107 -107 141 -78 155 -29 C170 25 180 126 180 232 L180 576 Z " />
<glyph glyph-name="approxequal" unicode="&#x2248;" horiz-adv-x="549" d="M489 251 C444 199 423 187 384 187 C365 187 354 190 285 211 C212 234 188 239 160 239 C101 239 54 211 14 155 L57 121 C103 174 120 184 159 184 C180 184 180 184 271 157 C350 133 354 132 385 132 C449 132 496 160 527 217 L489 251 Z M489 408 C443 356 424 344 384 344 C365 344 354 347 285 369 C212 392 188 397 160 397 C101 397 54 369 14 312 L57 279 C104 332 119 342 159 342 C181 342 181 342 271 315 C351 290 354 289 385 289 C449 289 496 318 527 375 L489 408 Z " />
<glyph glyph-name="notequal" unicode="&#x2260;" horiz-adv-x="549" d="M187 142 L115 -1 L161 -25 L246 142 L540 142 L540 197 L273 197 L344 336 L540 336 L540 391 L371 391 L439 525 L392 549 L312 391 L15 391 L15 336 L285 336 L215 197 L15 197 L15 142 L187 142 Z " />
<glyph glyph-name="lessequal" unicode="&#x2264;" horiz-adv-x="549" d="M526 55 L29 55 L29 0 L526 0 L526 55 Z M526 639 L29 405 L29 350 L526 117 L526 179 L108 378 L526 577 L526 639 Z " />
<glyph glyph-name="greaterequal" unicode="&#x2265;" horiz-adv-x="549" d="M526 55 L29 55 L29 0 L526 0 L526 55 Z M29 639 L29 577 L447 378 L29 179 L29 117 L526 350 L526 405 L29 639 Z " />
<glyph glyph-name="lozenge" unicode="&#x25ca;" horiz-adv-x="494" d="M209 0 L269 -1 L466 374 L277 740 L214 740 L18 377 L209 0 Z M240 58 L81 376 L245 683 L402 373 L240 58 Z " />
<glyph glyph-name="fi" unicode="&#xfb01;" horiz-adv-x="625" d="M13 350 L84 350 L84 117 C83 67 71 54 24 52 L13 52 L13 0 L297 0 L297 52 L294 52 C251 53 237 69 236 117 L236 350 L324 350 C376 349 385 340 388 290 L388 117 C386 65 377 53 337 52 L333 52 L333 0 L615 0 L615 52 L604 52 C561 54 548 68 547 117 L547 415 L541 415 C505 407 440 403 357 403 L236 403 L236 483 C236 547 239 573 250 592 C262 612 286 624 317 624 C354 624 372 610 388 569 C404 524 423 508 456 508 C495 508 529 541 529 578 C529 606 510 634 478 651 C446 670 398 679 336 679 C269 679 223 669 180 644 C113 606 84 543 84 436 L84 403 L13 403 L13 350 Z " />
<glyph glyph-name="fl" unicode="&#xfb02;" horiz-adv-x="625" d="M87 403 L15 403 L15 350 L87 350 L87 117 C86 67 74 54 27 52 L15 52 L15 0 L299 0 L299 52 L296 52 C254 54 240 69 239 117 L239 350 L388 350 L388 117 C387 66 377 54 337 52 L334 52 L334 0 L615 0 L615 52 L604 52 C561 54 548 68 547 117 L547 679 L545 679 L539 678 L541 679 C482 667 472 666 441 664 C411 674 375 679 338 679 C250 679 181 656 141 613 C105 575 87 510 87 422 L87 403 Z M239 403 L239 494 C239 589 259 623 316 623 C344 623 369 608 379 585 C381 580 383 575 385 571 L386 569 L388 567 L388 403 L239 403 Z " />
</font>
</svg>
