<?xml version="1.0" encoding="UTF-8"?>
<svg xmlns="http://www.w3.org/2000/svg" xmlns:xlink="http://www.w3.org/1999/xlink" version="1.2" >
<font id="Baskerville URW Extra Wide Bold">
<font-face  font-family="Baskerville URW Extra Wide" units-per-em="1000" ascent="678" descent="-322" font-style="normal" font-weight="700" font-stretch="normal" cap-height="666" x-height="403" underline-position="-92" underline-thickness="73" />
<missing-glyph  horiz-adv-x="250" d="" />
<glyph glyph-name="NULL" d="" />
<glyph glyph-name="CR" unicode="&#xd;" horiz-adv-x="250" d="" />
<glyph glyph-name="space" unicode="&#x20;" horiz-adv-x="250" d="" />
<glyph glyph-name="exclam" unicode="&#x21;" horiz-adv-x="326" d="M183 210 L227 551 C230 574 232 593 232 608 C232 649 205 673 160 673 C113 673 86 650 86 607 C86 596 88 573 91 549 L135 210 L183 210 Z M158 136 C112 136 74 102 74 59 C74 18 112 -17 157 -17 C205 -17 243 17 243 60 C243 102 205 136 158 136 L158 136 Z " />
<glyph glyph-name="quotedbl" unicode="&#x22;" horiz-adv-x="482" d="M156 399 L201 667 L45 667 L89 399 L156 399 Z M392 399 L437 667 L281 667 L325 399 L392 399 Z " />
<glyph glyph-name="numbersign" unicode="&#x23;" horiz-adv-x="638" d="M426 227 L546 227 L557 283 L443 283 L472 397 L592 397 L603 453 L489 453 L548 667 L480 667 L421 453 L292 453 L351 667 L284 667 L225 453 L96 453 L85 397 L208 397 L179 283 L49 283 L38 227 L162 227 L99 0 L166 0 L229 227 L358 227 L295 0 L363 0 L426 227 Z M404 397 L375 283 L246 283 L275 397 L404 397 Z " />
<glyph glyph-name="dollar" unicode="&#x24;" horiz-adv-x="584" d="M259 -123 L304 -123 L304 -13 C441 -1 530 77 530 185 C530 272 473 332 344 381 C334 385 324 389 315 393 L304 397 L304 609 C357 601 383 582 395 542 C410 496 428 478 457 478 C484 478 507 500 507 526 C507 591 414 648 304 652 L304 680 L258 680 L258 650 C211 644 179 635 154 621 C97 590 64 535 64 476 C64 424 89 378 137 341 C161 323 177 315 239 289 L247 286 L258 281 L259 31 C212 36 180 60 166 100 C153 131 136 144 110 144 C80 144 57 123 57 96 C57 38 141 -8 259 -15 L259 -123 Z M304 259 C309 257 313 255 315 254 C319 253 330 248 346 241 C410 215 436 185 436 139 C436 80 386 38 304 30 L304 259 Z M256 416 C235 424 222 430 216 433 C178 454 159 482 159 517 C159 561 195 599 241 605 C245 605 248 605 249 606 C250 606 253 607 255 608 L256 416 Z " />
<glyph glyph-name="percent" unicode="&#x25;" horiz-adv-x="821" d="M197 680 C152 680 113 666 87 641 C52 608 31 556 31 505 C31 401 94 334 191 334 C240 334 281 347 307 373 C340 404 360 455 360 507 C360 554 344 599 318 631 C289 664 250 680 197 680 L197 680 Z M197 645 C243 645 264 605 264 514 C264 411 243 366 196 366 C146 366 127 405 127 502 C127 608 145 645 197 645 L197 645 Z M254 0 L630 660 L567 660 L191 0 L254 0 Z M627 333 C582 333 542 319 516 294 C482 261 461 210 461 159 C461 55 524 -12 621 -12 C671 -12 711 1 737 27 C770 58 790 109 790 161 C790 207 774 253 748 284 C720 317 680 333 627 333 L627 333 Z M627 300 C673 300 694 259 694 172 C694 66 674 22 626 22 C576 22 557 60 557 157 C557 263 575 300 627 300 L627 300 Z " />
<glyph glyph-name="ampersand" unicode="&#x26;" horiz-adv-x="827" d="M759 121 C750 79 731 61 695 61 C658 61 627 83 580 143 C576 148 572 153 569 157 C589 182 606 207 619 231 C666 321 696 350 753 363 L753 406 L539 406 L539 363 C578 360 597 346 597 318 C597 291 575 246 537 196 C475 271 421 336 375 391 C460 431 506 481 506 537 C506 606 438 654 342 654 C236 654 165 596 165 509 C165 467 180 430 223 368 C98 299 48 242 48 166 C48 67 146 -15 265 -15 C336 -15 401 10 477 67 C529 13 587 -14 650 -14 C706 -14 757 9 783 46 C796 66 803 87 807 121 L759 121 Z M389 165 L436 108 L440 103 C408 77 371 62 333 62 C250 62 164 144 164 222 C164 261 197 299 255 327 C263 317 292 283 341 224 L389 165 Z M335 431 C295 484 278 518 278 549 C278 584 303 609 339 609 C378 609 408 577 408 535 C408 495 387 465 335 431 L335 431 Z " />
<glyph glyph-name="quotesingle" unicode="&#x27;" horiz-adv-x="268" d="M170 399 L214 667 L53 667 L98 399 L170 399 Z " />
<glyph glyph-name="parenleft" unicode="&#x28;" horiz-adv-x="342" d="M326 -243 C217 -130 152 44 152 218 C152 394 206 538 324 677 L256 677 C149 558 88 391 88 218 C88 46 155 -135 258 -243 L326 -243 Z " />
<glyph glyph-name="parenright" unicode="&#x29;" horiz-adv-x="342" d="M84 -243 C186 -139 254 46 254 219 C254 392 194 555 87 677 L18 677 C138 534 190 395 190 218 C190 44 125 -130 16 -243 L84 -243 Z " />
<glyph glyph-name="asterisk" unicode="&#x2a;" horiz-adv-x="546" d="M238 428 C226 413 196 396 150 378 C95 357 73 337 73 309 C73 279 105 252 142 252 C176 252 196 271 213 320 C231 369 250 397 272 406 C284 402 309 371 320 347 C350 272 367 252 401 252 C437 252 470 279 470 309 C470 338 446 358 386 381 C343 398 320 410 304 428 C325 438 363 446 386 446 C394 446 402 446 414 444 C424 443 432 443 440 443 C482 443 516 469 516 503 C516 536 489 564 456 564 C434 564 413 553 384 528 C340 489 322 476 291 464 C290 469 290 472 290 474 C290 494 298 524 311 555 C329 595 332 606 332 624 C332 653 305 676 269 676 C235 676 207 653 207 624 C207 607 216 578 231 547 C244 521 251 495 251 476 C251 473 251 470 250 464 C230 469 202 488 169 516 C132 550 112 561 87 561 C56 561 28 533 28 502 C28 466 61 442 111 442 C117 442 122 442 126 443 C153 445 153 445 158 445 C176 445 223 435 238 428 L238 428 Z " />
<glyph glyph-name="plus" unicode="&#x2b;" horiz-adv-x="550" d="M10 396 L10 323 L236 323 L236 123 L312 123 L312 323 L540 323 L540 396 L312 396 L312 596 L236 596 L236 396 L10 396 Z " />
<glyph glyph-name="comma" unicode="&#x2c;" horiz-adv-x="338" d="M65 -197 C183 -187 264 -107 264 -1 C264 79 219 133 152 133 C101 133 66 101 66 56 C66 15 99 -15 144 -15 C151 -15 156 -15 162 -13 C178 -10 178 -10 183 -10 C197 -10 206 -21 206 -37 C206 -90 147 -138 65 -150 L65 -197 Z " />
<glyph glyph-name="hyphen" unicode="&#x2d;" horiz-adv-x="369" d="M35 247 L35 182 L336 182 L336 247 L35 247 Z " />
<glyph glyph-name="period" unicode="&#x2e;" horiz-adv-x="338" d="M168 136 C122 136 84 102 84 59 C84 18 122 -17 167 -17 C215 -17 253 17 253 60 C253 102 215 136 168 136 L168 136 Z " />
<glyph glyph-name="slash" unicode="&#x2f;" horiz-adv-x="350" d="M313 681 L221 681 L-16 -253 L75 -253 L313 681 Z " />
<glyph glyph-name="zero" unicode="0" horiz-adv-x="584" d="M291 672 C209 672 134 628 93 555 C59 496 43 421 43 325 C43 232 58 163 92 104 C133 31 209 -15 289 -15 C370 -15 435 20 481 90 C522 150 540 224 540 330 C540 427 525 494 492 552 C448 629 375 672 291 672 L291 672 Z M403 303 L403 270 C403 198 403 184 398 143 C389 70 353 31 293 31 C248 31 219 52 202 96 C188 131 180 219 180 331 C180 425 188 518 198 551 C214 603 245 627 294 627 C332 627 365 609 380 580 C397 546 404 501 404 419 L404 406 L403 388 L403 329 L403 303 Z " />
<glyph glyph-name="one" unicode="1" horiz-adv-x="584" d="M322 672 C269 639 216 625 130 622 L130 579 L145 579 C218 578 236 560 236 488 L236 122 C233 60 218 44 165 44 L139 44 L139 0 L461 0 L461 44 L434 44 C376 45 363 61 364 131 L364 672 L322 672 Z " />
<glyph glyph-name="two" unicode="2" horiz-adv-x="584" d="M63 0 L408 0 C440 0 450 -5 450 -20 C450 -24 450 -25 448 -33 L446 -44 L492 -44 L521 86 L200 86 C234 116 268 147 330 208 C486 360 519 409 519 487 C519 534 504 572 476 603 C435 645 364 672 290 672 C165 672 63 601 63 512 C63 469 87 416 107 416 C112 416 120 418 128 422 L130 422 C134 424 139 426 144 428 C147 430 153 432 159 435 C165 439 169 441 170 441 C184 448 190 452 190 456 C190 460 186 465 177 472 C157 488 145 512 145 534 C145 584 195 624 258 624 C336 624 382 572 382 486 C382 356 261 188 63 41 L63 0 Z " />
<glyph glyph-name="three" unicode="3" horiz-adv-x="584" d="M333 380 C391 414 422 432 425 434 C474 470 499 509 499 548 C499 621 418 672 303 672 C175 672 73 605 73 521 C73 487 93 451 111 451 C116 451 126 453 137 458 C138 458 142 460 146 461 C190 476 198 480 198 486 C198 488 196 491 192 494 C166 514 158 526 158 548 C158 589 209 625 268 625 C330 625 370 588 370 530 C370 467 326 413 236 367 C200 348 182 334 182 322 C182 307 195 294 210 294 C222 294 228 297 247 314 C267 330 283 337 305 337 C358 337 382 295 382 204 C382 151 375 112 360 88 C339 52 297 29 250 29 C211 29 188 45 172 82 C155 125 139 138 107 138 C74 138 46 114 46 85 C46 29 126 -15 229 -15 C397 -15 519 82 519 216 C519 313 450 380 350 380 L333 380 Z " />
<glyph glyph-name="four" unicode="4" horiz-adv-x="584" d="M298 226 L298 129 C298 62 283 44 224 44 L198 44 L198 0 L523 0 L523 44 L500 44 C442 45 427 63 428 132 L428 226 L544 226 L559 314 L526 314 L520 304 C509 284 507 283 491 281 L447 281 L428 281 L428 669 L361 669 L37 285 L37 226 L298 226 Z M298 281 L93 281 L298 518 L298 281 Z " />
<glyph glyph-name="five" unicode="5" horiz-adv-x="584" d="M159 337 C185 377 216 395 260 395 C289 395 317 385 338 367 C364 345 377 301 377 232 C377 165 369 122 351 87 C333 52 294 30 250 30 C210 30 182 46 165 79 C140 125 126 137 95 137 C64 137 37 114 37 88 C37 31 123 -15 228 -15 C397 -15 515 85 515 228 C515 352 418 445 289 445 C236 445 192 429 156 397 L162 570 L358 570 L373 570 C408 567 419 579 455 660 L118 660 L104 337 L159 337 Z " />
<glyph glyph-name="six" unicode="6" horiz-adv-x="584" d="M211 379 C211 529 262 624 343 624 C375 624 393 614 412 587 C432 558 450 546 473 546 C502 546 525 567 525 593 C525 636 458 672 377 672 C188 672 57 514 57 284 C57 213 71 153 97 106 C141 29 219 -15 309 -15 C444 -15 545 81 545 210 C545 332 453 418 324 418 C277 418 248 408 211 379 L211 379 Z M299 373 C366 373 398 317 398 201 C398 79 372 30 306 30 C240 30 206 102 206 240 C206 327 238 373 299 373 L299 373 Z " />
<glyph glyph-name="seven" unicode="7" horiz-adv-x="584" d="M528 660 L208 660 C180 660 170 664 170 676 C170 678 170 679 171 683 L125 683 L62 504 L109 504 C125 549 137 557 182 556 L185 556 L193 556 L438 556 L209 118 C175 53 175 53 175 32 C175 6 202 -15 235 -15 C275 -15 301 14 326 87 L528 660 Z " />
<glyph glyph-name="eight" unicode="8" horiz-adv-x="584" d="M365 349 C468 373 521 427 521 506 C521 606 428 674 293 674 C157 674 66 607 66 506 C66 427 124 369 224 349 C106 330 45 270 45 174 C45 128 60 89 89 58 C132 14 212 -15 293 -15 C444 -15 542 60 542 177 C542 272 480 332 365 349 L365 349 Z M294 631 C362 631 391 592 391 501 C391 407 362 368 294 368 C222 368 195 406 195 509 C195 592 227 631 294 631 L294 631 Z M293 324 C376 324 407 284 407 174 C407 70 376 29 296 29 C211 29 180 70 180 179 C180 281 213 324 293 324 L293 324 Z " />
<glyph glyph-name="nine" unicode="9" horiz-adv-x="584" d="M374 278 C374 235 365 170 355 140 C332 69 295 33 242 33 C210 33 191 43 173 69 C153 99 135 110 112 110 C83 110 60 89 60 63 C60 20 127 -15 207 -15 C396 -15 527 143 527 373 C527 444 513 504 487 551 C443 628 365 672 275 672 C140 672 39 576 39 447 C39 325 131 239 260 239 C308 239 336 249 374 278 L374 278 Z M278 627 C344 627 378 555 378 417 C378 330 346 284 285 284 C218 284 186 340 186 456 C186 578 212 627 278 627 L278 627 Z " />
<glyph glyph-name="colon" unicode="&#x3a;" horiz-adv-x="338" d="M170 136 C124 136 86 102 86 59 C86 18 124 -17 169 -17 C217 -17 255 17 255 60 C255 102 217 136 170 136 L170 136 Z M171 423 C125 423 86 388 86 347 C86 303 123 269 171 269 C217 269 255 304 255 346 C255 389 217 423 171 423 L171 423 Z " />
<glyph glyph-name="semicolon" unicode="&#x3b;" horiz-adv-x="338" d="M65 -197 C183 -187 264 -107 264 -1 C264 79 219 133 152 133 C101 133 66 101 66 56 C66 15 99 -15 144 -15 C151 -15 156 -15 162 -13 C178 -10 178 -10 183 -10 C197 -10 206 -21 206 -37 C206 -90 147 -138 65 -150 L65 -197 Z M163 423 C117 423 79 388 79 346 C79 304 117 269 162 269 C210 269 248 303 248 346 C248 389 210 423 163 423 L163 423 Z " />
<glyph glyph-name="less" unicode="&#x3c;" horiz-adv-x="550" d="M507 633 L43 369 L43 361 L507 73 L507 239 L228 411 L507 571 L507 633 Z " />
<glyph glyph-name="equal" unicode="&#x3d;" horiz-adv-x="550" d="M23 471 L23 400 L527 400 L527 471 L23 471 Z M10 320 L10 249 L540 249 L540 320 L10 320 Z " />
<glyph glyph-name="greater" unicode="&#x3e;" horiz-adv-x="550" d="M43 73 L507 337 L507 346 L43 633 L43 468 L321 296 L43 136 L43 73 Z " />
<glyph glyph-name="question" unicode="&#x3f;" horiz-adv-x="500" d="M176 136 C128 136 90 102 90 60 C90 18 128 -17 174 -17 C223 -17 261 17 261 59 C261 102 223 136 176 136 L176 136 Z M151 209 L199 209 L199 326 C224 314 247 309 274 309 C375 309 450 381 450 478 C450 593 358 673 226 673 C129 673 47 629 47 576 C47 554 70 536 98 536 C125 536 142 549 154 578 C169 616 186 629 222 629 C283 629 320 574 320 483 C320 406 291 363 240 363 C219 363 203 371 189 387 L151 387 L151 209 Z " />
<glyph glyph-name="at" unicode="&#x40;" horiz-adv-x="861" d="M551 477 C523 510 491 525 449 525 C402 525 360 506 318 467 C263 415 227 337 227 268 C227 195 280 137 348 137 C388 137 433 162 477 208 C490 161 514 140 556 140 C679 140 795 267 795 401 C795 560 651 679 460 679 C240 679 66 523 66 327 C66 139 229 -12 432 -12 C517 -12 606 17 667 65 C693 86 716 109 748 146 L693 150 C661 120 645 107 628 95 C573 56 505 35 435 35 C260 35 116 165 116 323 C116 385 141 457 180 508 C241 586 347 634 461 634 C624 634 749 531 749 397 C749 345 728 290 691 248 C656 208 612 182 580 182 C564 182 551 195 551 211 C551 219 553 230 558 242 C561 251 563 258 566 266 L646 515 C617 512 598 512 561 511 L551 477 Z M471 488 C502 488 527 463 527 432 C527 423 524 415 490 314 C459 224 414 175 361 175 C327 175 304 199 304 234 C304 303 345 401 396 454 C416 476 444 488 471 488 L471 488 Z " />
<glyph glyph-name="A" unicode="A" horiz-adv-x="723" d="M737 0 L737 44 L731 44 C678 50 663 66 620 157 L385 678 L336 678 L110 170 C74 86 42 51 -7 44 L-15 44 L-15 0 L219 0 L219 44 L211 44 C169 44 141 63 141 91 C141 107 145 120 167 170 L181 202 L425 202 L452 144 C471 102 477 86 477 75 C477 53 456 44 406 44 L399 44 L399 0 L737 0 Z M406 247 L200 247 L302 475 L406 247 Z " />
<glyph glyph-name="B" unicode="B" horiz-adv-x="733" d="M34 665 L34 621 L45 621 C122 622 143 600 145 518 L145 149 C146 70 119 42 47 44 L31 44 L31 0 L379 0 C472 0 533 8 577 26 C648 55 688 110 688 177 C688 236 657 284 597 318 C562 337 523 348 459 356 C511 367 542 377 568 390 C624 419 653 461 653 512 C653 560 626 605 582 630 C530 660 460 672 344 672 C308 672 308 672 183 668 L34 665 Z M293 330 C301 331 304 331 315 331 C405 331 451 323 476 303 C511 275 525 239 525 175 C525 144 520 121 511 104 C489 68 442 47 379 47 C310 47 293 70 293 165 L293 330 Z M293 378 L293 625 C303 626 313 626 322 626 C449 626 493 593 493 501 C493 408 449 378 315 378 L293 378 Z " />
<glyph glyph-name="C" unicode="C" horiz-adv-x="810" d="M692 254 C678 190 643 126 605 96 C560 60 500 40 442 40 C360 40 287 79 251 141 C227 184 215 246 215 326 C215 415 228 481 255 529 C291 593 355 628 437 628 C512 628 585 596 625 545 C653 510 671 469 686 412 L733 412 L726 661 L679 661 C673 635 666 615 654 593 C594 649 514 679 421 679 C318 679 225 646 161 588 C89 521 47 425 47 326 C47 130 202 -13 414 -13 C513 -13 600 18 660 76 C676 58 684 40 692 10 L740 10 L740 254 L692 254 Z " />
<glyph glyph-name="D" unicode="D" horiz-adv-x="866" d="M32 622 L45 622 C123 623 145 601 146 519 L146 149 C146 70 121 43 47 44 L31 44 L31 0 L314 0 C473 0 532 5 587 22 C731 67 818 182 818 329 C818 446 759 549 661 603 C572 652 457 672 270 672 C243 672 220 672 182 671 C153 671 149 671 103 669 C77 667 58 666 32 665 L32 622 Z M294 626 C314 627 324 627 341 627 C426 627 476 617 524 589 C610 538 650 454 650 322 C650 229 624 153 576 103 C542 68 470 47 385 47 C312 47 294 72 294 171 L294 626 Z " />
<glyph glyph-name="E" unicode="E" horiz-adv-x="722" d="M640 215 C605 91 548 45 435 47 L404 47 C313 44 288 70 291 164 L291 327 L367 327 C440 327 457 312 460 243 L460 235 L511 235 L511 462 L460 462 L459 455 C455 386 444 377 365 374 L291 374 L291 621 L421 621 C523 624 559 598 591 496 L640 496 L627 667 L36 667 L36 624 L49 624 C118 625 143 599 143 521 L143 149 C144 70 119 42 46 44 L31 44 L31 0 L681 0 L689 215 L640 215 Z " />
<glyph glyph-name="F" unicode="F" horiz-adv-x="644" d="M629 667 L31 667 L31 624 L45 624 C121 625 141 605 143 521 L143 149 C143 69 120 43 46 44 L31 44 L31 0 L408 0 L408 44 L388 44 C316 42 291 70 291 149 L291 326 L356 326 C426 325 442 311 448 237 L448 230 L497 230 L497 461 L448 461 L448 454 C442 388 426 374 357 373 L291 373 L291 621 L425 621 C520 624 558 595 585 494 L635 494 L629 667 Z " />
<glyph glyph-name="G" unicode="G" horiz-adv-x="860" d="M504 300 L504 256 L515 256 C577 252 594 238 597 186 L597 161 C597 129 592 111 581 94 C558 59 504 37 441 37 C355 37 288 70 254 129 C230 172 218 235 218 319 C218 411 231 479 258 529 C290 588 361 625 444 625 C565 625 650 558 683 436 L728 436 L724 667 L680 667 C678 640 671 618 659 595 C593 653 517 680 424 680 C322 680 232 647 164 585 C91 517 47 420 47 324 C47 132 206 -13 417 -13 C472 -13 510 -7 593 13 C645 26 696 34 732 34 C737 34 744 34 755 32 L755 149 C754 232 766 250 828 255 L838 256 L838 300 L504 300 Z " />
<glyph glyph-name="H" unicode="H" horiz-adv-x="919" d="M631 325 L631 149 C631 66 605 40 523 44 L523 0 L888 0 L888 44 L876 44 C804 42 779 70 779 149 L779 521 C780 603 801 624 878 623 L888 623 L888 667 L523 667 L523 623 L533 623 C608 625 629 603 631 521 L631 377 L288 377 L288 521 C289 603 310 624 386 623 L395 623 L395 667 L31 667 L31 623 L42 623 C117 625 139 602 140 521 L140 149 C141 71 115 42 44 44 L31 44 L31 0 L395 0 L395 44 L384 44 C314 42 287 71 288 149 L288 325 L631 325 Z " />
<glyph glyph-name="I" unicode="I" horiz-adv-x="432" d="M31 623 L43 623 C120 624 139 604 141 521 L141 149 C141 69 118 43 45 44 L31 44 L31 0 L401 0 L401 44 L385 44 C312 43 289 69 289 149 L289 521 C290 604 310 624 387 623 L401 623 L401 667 L31 667 L31 623 Z " />
<glyph glyph-name="J" unicode="J" horiz-adv-x="433" d="M34 667 L34 623 L54 623 C131 624 151 604 152 521 L152 27 C152 -72 147 -109 127 -143 C107 -177 73 -194 23 -194 C-9 -194 -30 -184 -30 -169 C-30 -164 -27 -160 -21 -154 C-11 -143 -8 -138 -8 -129 C-8 -97 -39 -74 -81 -74 C-128 -74 -163 -103 -163 -141 C-163 -199 -89 -238 21 -238 C108 -238 182 -215 230 -172 C284 -124 300 -73 300 57 L300 521 C301 604 321 624 398 623 L411 623 L411 667 L34 667 Z " />
<glyph glyph-name="K" unicode="K" horiz-adv-x="859" d="M292 339 L292 521 C293 604 313 624 390 623 L403 623 L403 667 L34 667 L34 623 L45 623 C123 624 143 604 144 521 L144 149 C144 69 121 43 47 44 L31 44 L31 0 L395 0 L395 44 L388 44 C315 43 292 69 292 149 L292 274 L364 330 L528 144 C575 89 577 86 577 74 C577 53 551 44 496 44 L487 44 L487 0 L894 0 L894 44 L888 44 C821 45 782 70 709 160 L483 426 L572 501 C682 594 728 619 797 623 L805 623 L805 667 L497 667 L497 623 L504 623 C544 623 567 611 567 589 C567 569 548 545 506 511 L292 339 Z " />
<glyph glyph-name="L" unicode="L" horiz-adv-x="703" d="M688 213 L640 213 C604 90 552 48 435 47 L406 47 C308 47 289 65 291 151 L291 521 C292 603 312 624 389 623 L410 623 L410 667 L31 667 L31 623 L45 623 C122 624 142 603 143 521 L143 148 C143 69 120 43 46 44 L31 44 L31 0 L684 0 L688 213 Z " />
<glyph glyph-name="M" unicode="M" horiz-adv-x="1081" d="M285 667 L26 667 L26 623 L37 623 C109 623 126 604 126 519 L126 189 C130 87 107 52 32 44 L26 44 L26 0 L277 0 L277 44 L272 44 C194 51 169 86 173 186 L173 546 L453 0 L491 0 L782 552 L782 149 C782 69 758 43 685 44 L665 44 L665 0 L1050 0 L1050 44 L1027 44 C954 43 930 69 930 149 L930 521 C932 604 952 626 1029 623 L1049 623 L1049 667 L784 667 L531 190 L285 667 Z " />
<glyph glyph-name="N" unicode="N" horiz-adv-x="855" d="M686 -12 L735 -12 L735 513 C732 583 755 612 823 623 L831 623 L831 667 L580 667 L580 623 L589 623 C658 618 687 587 685 517 L685 221 L265 667 L26 667 L26 623 L32 623 C108 624 132 597 137 507 L137 162 C137 111 135 99 128 88 C115 64 73 45 31 44 L26 44 L26 0 L303 0 L303 44 L290 44 C262 43 232 54 212 71 C190 92 187 100 187 163 L187 522 L686 -12 Z " />
<glyph glyph-name="O" unicode="O" horiz-adv-x="908" d="M459 679 C336 679 234 646 158 580 C89 520 47 427 47 331 C47 250 77 172 132 110 C202 32 320 -13 457 -13 C570 -13 682 25 750 86 C820 149 860 238 860 332 C860 533 692 679 459 679 L459 679 Z M454 628 C513 628 571 609 608 576 C658 533 686 441 686 322 C686 252 672 184 647 134 C639 119 625 102 605 86 C568 55 516 38 455 38 C385 38 331 59 287 103 C243 147 221 229 221 347 C221 436 246 521 285 563 C324 605 383 628 454 628 L454 628 Z " />
<glyph glyph-name="P" unicode="P" horiz-adv-x="701" d="M31 667 L31 623 L48 623 C125 624 145 604 146 521 L146 148 C146 69 123 43 50 44 L34 44 L34 0 L411 0 L411 44 L390 44 C317 43 293 69 294 148 L294 301 L385 301 C469 301 522 309 567 327 C638 356 679 414 679 487 C679 556 642 610 575 642 C523 665 472 673 366 673 C304 673 249 672 116 669 L31 667 Z M294 349 L294 625 C303 626 310 626 318 626 C364 626 395 624 415 619 C482 603 519 556 519 485 C519 433 499 393 463 372 C436 356 397 349 338 349 L294 349 Z " />
<glyph glyph-name="Q" unicode="Q" horiz-adv-x="906" d="M581 1 C753 44 860 170 860 331 C860 413 830 492 773 555 C703 634 586 679 450 679 C216 679 47 534 47 332 C47 214 111 102 211 46 C276 10 364 -13 439 -13 C446 -13 453 -13 463 -12 L416 -36 C289 -103 266 -119 266 -140 C266 -157 278 -169 295 -169 C308 -169 322 -162 341 -145 C379 -110 403 -99 440 -99 C487 -99 541 -120 593 -158 C658 -206 658 -206 673 -215 C719 -241 766 -253 823 -253 C950 -253 1034 -189 1053 -78 L1006 -78 C983 -117 936 -139 876 -139 C842 -139 779 -130 755 -121 C674 -93 674 -93 654 -87 C585 -68 521 -56 487 -56 C483 -56 479 -56 472 -57 L581 1 Z M452 628 C510 628 568 608 607 574 C658 530 686 443 686 331 C686 258 672 189 646 137 C639 124 628 110 613 95 C575 58 520 38 456 38 C371 38 299 72 270 127 C241 180 221 273 221 351 C221 415 237 486 262 530 C296 591 368 628 452 628 L452 628 Z " />
<glyph glyph-name="R" unicode="R" horiz-adv-x="797" d="M832 0 L832 44 L826 44 C770 46 730 77 655 179 C589 268 555 306 517 329 C562 340 585 349 607 362 C657 392 686 440 686 493 C686 560 647 612 573 643 C531 660 420 672 295 672 C269 672 250 672 230 671 C210 670 195 669 193 669 L33 667 L33 623 L48 623 C125 624 145 604 146 521 L146 149 C146 69 123 43 50 44 L31 44 L31 0 L411 0 L411 44 L390 44 C317 43 294 69 294 149 L294 303 L301 303 C372 308 398 291 466 195 C527 103 573 41 614 0 L832 0 Z M294 351 L294 621 C310 622 320 622 334 622 C403 622 443 615 473 599 C509 580 529 540 529 488 C529 435 509 393 475 374 C444 357 403 351 320 351 L313 351 L294 351 Z " />
<glyph glyph-name="S" unicode="S" horiz-adv-x="615" d="M62 10 L114 10 C119 35 125 51 135 67 C184 16 256 -13 335 -13 C471 -13 573 73 573 188 C573 237 553 285 517 319 C482 353 431 380 325 420 C213 463 174 496 174 547 C174 597 218 632 282 632 C367 632 436 573 463 478 L511 478 L511 667 L462 667 L461 664 L460 657 C457 642 451 630 441 617 C395 659 341 679 279 679 C158 679 64 598 64 492 C64 443 85 397 123 362 C156 333 210 304 313 262 C411 223 453 185 453 136 C453 79 399 37 325 37 C258 37 198 69 158 127 C140 153 128 184 114 233 L62 233 L62 10 Z " />
<glyph glyph-name="T" unicode="T" horiz-adv-x="763" d="M64 487 C86 599 111 620 223 620 L305 620 L305 149 C305 69 281 43 209 44 L183 44 L183 0 L575 0 L575 44 L549 44 C477 43 453 69 453 149 L453 620 L539 620 C642 620 668 598 696 487 L745 487 L743 667 L17 667 L16 487 L64 487 Z " />
<glyph glyph-name="U" unicode="U" horiz-adv-x="853" d="M583 667 L583 623 L589 623 C661 620 690 588 688 511 L688 286 C688 189 682 159 659 128 C617 74 553 44 477 44 C401 44 339 74 310 124 C292 156 286 194 286 275 L286 521 C287 605 304 623 380 623 L393 623 L393 667 L20 667 L20 623 L31 623 C107 624 125 605 126 521 L125 254 C125 156 145 106 202 58 C257 12 336 -13 429 -13 C522 -13 611 14 662 58 C711 101 738 173 738 260 L738 519 C736 585 760 613 825 623 L832 623 L832 667 L583 667 Z " />
<glyph glyph-name="V" unicode="V" horiz-adv-x="781" d="M434 -14 L655 458 L676 503 C720 600 737 620 782 623 L795 623 L795 667 L561 667 L561 623 L568 623 C612 623 641 604 641 575 C641 562 628 520 617 495 L466 170 L290 520 C275 550 266 575 266 590 C266 612 294 623 347 623 L354 623 L354 667 L-15 667 L-15 623 L-8 623 C59 620 73 608 115 520 C118 512 121 505 122 503 L375 -14 L434 -14 Z " />
<glyph glyph-name="W" unicode="W" horiz-adv-x="1035" d="M779 -14 L931 472 C968 592 987 619 1038 623 L1047 623 L1047 667 L824 667 L824 623 L829 623 C870 623 898 601 898 567 C898 555 892 528 884 500 L792 201 L596 667 L530 667 L363 201 L251 529 C242 554 237 577 237 588 C237 610 257 622 297 623 L303 623 L303 667 L-11 667 L-11 623 L-2 623 C49 621 60 608 93 511 L271 -14 L337 -14 L512 468 L715 -14 L779 -14 Z " />
<glyph glyph-name="X" unicode="X" horiz-adv-x="873" d="M830 667 L543 667 L543 623 L551 623 C599 623 622 613 622 592 C622 579 610 560 588 536 L473 415 L361 544 C341 566 331 584 331 597 C331 616 347 623 389 623 L397 623 L397 667 L17 667 L17 623 L23 623 C86 622 105 609 180 522 L191 509 L365 310 L216 159 C138 74 91 47 24 44 L18 44 L18 0 L327 0 L327 44 L313 44 C269 44 242 60 242 87 C242 104 253 122 284 153 L399 272 L513 140 C539 111 550 93 550 79 C550 54 524 44 464 44 L458 44 L458 0 L877 0 L877 44 C803 47 781 61 685 172 L508 378 L629 505 C717 597 753 618 830 623 L830 667 Z " />
<glyph glyph-name="Y" unicode="Y" horiz-adv-x="728" d="M420 332 L288 541 C270 570 265 581 265 592 C265 613 285 623 324 623 L330 623 L330 667 L-14 667 L-14 623 L-7 623 C39 621 58 606 105 535 L290 267 L290 149 C290 69 267 44 194 44 L181 44 L181 0 L547 0 L547 44 L536 44 C462 43 439 68 439 149 L439 277 L604 512 C661 597 684 616 736 623 L742 623 L742 667 L494 667 L494 623 L500 623 C545 623 571 606 571 576 C571 560 562 539 546 515 L420 332 Z " />
<glyph glyph-name="Z" unicode="Z" horiz-adv-x="731" d="M36 0 L673 0 L690 190 L641 190 C594 70 557 45 422 47 L235 47 L668 630 L668 667 L75 667 L59 497 L106 497 C142 601 181 625 313 621 L469 621 L36 35 L36 0 Z " />
<glyph glyph-name="bracketleft" unicode="&#x5b;" horiz-adv-x="442" d="M433 -235 L433 -192 L324 -192 C270 -191 256 -178 256 -131 L256 563 C256 611 270 623 324 624 L433 624 L433 667 L140 667 L140 -235 L433 -235 Z " />
<glyph glyph-name="backslash" unicode="&#x5c;" horiz-adv-x="550" d="M468 -116 L152 687 L82 687 L400 -116 L468 -116 Z " />
<glyph glyph-name="bracketright" unicode="&#x5d;" horiz-adv-x="442" d="M8 -235 L301 -235 L301 667 L8 667 L8 624 L117 624 C171 623 185 611 185 563 L185 -131 C185 -178 171 -191 117 -192 L8 -192 L8 -235 Z " />
<glyph glyph-name="asciicircum" unicode="&#x5e;" horiz-adv-x="550" d="M583 279 L293 700 L284 700 L-33 279 L149 279 L338 532 L514 279 L583 279 Z " />
<glyph glyph-name="underscore" unicode="&#x5f;" horiz-adv-x="502" d="M10 -92 L10 -165 L492 -165 L492 -92 L10 -92 Z " />
<glyph glyph-name="grave" unicode="&#x60;" horiz-adv-x="527" d="M315 488 L235 649 L82 649 L82 642 L281 488 L315 488 Z " />
<glyph glyph-name="a" unicode="a" horiz-adv-x="587" d="M543 84 C538 61 525 49 507 49 C485 49 476 65 476 108 L476 287 C476 334 472 349 452 371 C422 403 368 419 286 419 C212 419 153 407 113 383 C76 362 58 340 58 316 C58 290 82 272 115 272 C151 272 172 288 179 323 C183 341 188 352 194 358 C205 368 232 375 259 375 C286 375 313 368 326 357 C339 347 344 329 344 298 L344 267 L300 251 C279 244 263 238 252 234 C172 207 110 177 73 146 C55 132 42 104 42 80 C42 26 93 -10 167 -10 C227 -10 290 10 350 49 C369 9 406 -10 462 -10 C534 -10 578 25 581 84 L543 84 Z M344 93 C308 65 270 50 238 50 C201 50 170 76 170 107 C170 123 181 143 196 155 C229 181 248 190 344 223 L344 93 Z " />
<glyph glyph-name="b" unicode="b" horiz-adv-x="646" d="M14 649 L14 606 L19 606 C77 605 93 588 95 526 L95 -12 L129 -12 C140 1 150 11 165 24 C170 29 175 33 193 50 C197 54 198 55 204 60 C250 11 307 -13 377 -13 C509 -13 605 78 605 204 C605 329 511 419 380 419 C324 419 276 403 224 365 L224 678 L217 678 C199 673 146 665 112 662 C101 662 90 660 25 650 L14 649 Z M224 311 C266 348 304 365 348 365 C425 365 466 308 466 200 C466 94 420 37 335 37 C293 37 259 53 241 82 C234 93 224 122 224 131 L224 311 Z " />
<glyph glyph-name="c" unicode="c" horiz-adv-x="521" d="M450 116 C427 63 381 36 315 36 C221 36 177 94 177 219 C177 324 216 376 296 376 C330 376 346 366 352 340 C365 292 383 274 422 274 C455 274 481 297 481 327 C481 381 411 419 311 419 C155 419 38 323 38 194 C38 71 141 -16 287 -16 C390 -16 466 26 495 101 L450 116 Z " />
<glyph glyph-name="d" unicode="d" horiz-adv-x="643" d="M630 50 L621 50 C565 51 550 68 547 133 L547 678 L540 678 C491 668 423 657 346 647 L346 605 L352 605 C406 603 416 591 418 522 L418 364 C380 398 321 419 259 419 C130 419 40 328 40 198 C40 73 125 -12 248 -12 C312 -12 369 11 419 56 L419 50 C419 27 422 10 429 -12 C480 -2 540 3 630 6 L630 50 Z M418 111 C387 70 342 47 294 47 C218 47 179 100 179 205 C179 310 218 361 300 361 C340 361 376 347 418 315 L418 111 Z " />
<glyph glyph-name="e" unicode="e" horiz-adv-x="538" d="M448 100 C418 58 373 34 321 34 C235 34 190 92 190 202 C190 206 190 216 191 227 L500 227 L500 234 C500 343 410 419 281 419 C142 419 40 327 40 202 C40 76 144 -16 286 -16 C374 -16 454 22 490 81 L448 100 Z M194 266 C200 312 204 328 217 346 C228 364 254 376 279 376 C329 376 351 346 358 266 L194 266 Z " />
<glyph glyph-name="f" unicode="f" horiz-adv-x="370" d="M344 403 L246 403 L246 430 L246 481 C246 551 250 580 262 603 C273 622 291 634 309 634 C330 634 349 621 357 600 C370 567 373 563 383 552 C394 540 414 532 433 532 C469 532 498 558 498 590 C498 642 433 678 337 678 C267 678 210 659 169 624 C122 582 107 535 107 424 L107 403 L18 403 L18 360 L107 360 L107 125 C107 60 92 43 36 42 L21 42 L21 0 L342 0 L342 42 L315 42 C261 43 249 57 246 125 L246 360 L344 360 L344 403 Z " />
<glyph glyph-name="g" unicode="g" horiz-adv-x="567" d="M167 139 C95 123 60 93 60 44 C60 -25 126 -53 290 -53 C419 -53 464 -69 464 -117 C464 -174 392 -208 270 -208 C172 -208 108 -177 108 -130 C108 -114 114 -104 132 -83 C114 -77 105 -75 93 -75 C60 -75 33 -102 33 -135 C33 -166 53 -196 86 -215 C125 -238 187 -249 269 -249 C440 -249 540 -188 540 -83 C540 -22 506 21 442 41 C408 51 359 56 266 56 C162 57 140 62 140 84 C140 110 173 122 247 124 C308 125 338 130 376 144 C442 170 479 216 479 275 C479 301 472 325 456 348 C467 360 476 365 487 365 C496 365 501 362 512 351 C523 339 532 335 544 335 C564 335 578 350 578 372 C578 400 557 418 524 418 C495 418 470 406 430 373 C387 405 338 419 270 419 C137 419 50 362 50 276 C50 213 96 160 167 139 L167 139 Z M264 376 C322 376 354 340 354 277 C354 205 326 169 268 169 C207 169 176 205 176 276 C176 339 208 376 264 376 L264 376 Z " />
<glyph glyph-name="h" unicode="h" horiz-adv-x="641" d="M231 678 L224 678 C150 663 129 660 23 645 L23 603 L28 603 C88 601 101 587 102 528 L102 125 C100 58 86 43 28 42 L22 42 L22 0 L297 0 L297 42 L293 42 C243 45 233 58 231 125 L231 282 C268 331 305 354 347 354 C397 354 419 327 419 268 L419 125 C417 59 407 46 358 43 L350 42 L350 0 L628 0 L628 42 L621 42 C566 43 553 58 550 125 L550 253 C550 304 545 332 532 355 C510 394 455 419 395 419 C330 419 275 394 231 344 L231 678 Z " />
<glyph glyph-name="i" unicode="i" horiz-adv-x="331" d="M171 678 C129 678 95 644 95 603 C95 559 128 525 170 525 C212 525 246 559 246 601 C246 644 213 678 171 678 L171 678 Z M237 419 L230 419 C197 411 63 390 18 386 L18 343 L32 343 C88 343 103 327 103 263 L103 125 C101 56 89 43 33 42 L18 42 L18 0 L318 0 L318 42 L311 42 C255 43 240 59 237 125 L237 419 Z " />
<glyph glyph-name="j" unicode="j" horiz-adv-x="311" d="M248 419 L241 419 C196 410 151 402 36 385 L36 343 L51 343 C106 343 119 328 119 263 L119 -58 C119 -131 117 -149 103 -172 C92 -191 74 -203 54 -203 C36 -203 20 -193 13 -178 C-3 -141 -17 -129 -47 -129 C-80 -129 -104 -150 -104 -179 C-104 -220 -53 -248 20 -248 C110 -248 192 -209 224 -152 C243 -118 248 -86 248 7 L248 419 Z M174 678 C133 678 99 644 99 603 C99 559 132 525 175 525 C216 525 250 559 250 602 C250 644 216 678 174 678 L174 678 Z " />
<glyph glyph-name="k" unicode="k" horiz-adv-x="608" d="M349 403 L349 361 L355 361 C379 361 391 355 391 343 C391 339 391 339 388 332 C388 326 351 299 276 253 L227 224 L227 678 L220 678 C146 663 125 660 21 645 L21 603 L29 603 C86 601 97 588 98 529 L98 125 C95 58 82 43 25 42 L16 42 L16 0 L295 0 L295 42 L290 42 C241 45 229 60 227 125 L227 173 L271 198 L366 97 C381 81 389 69 389 62 C389 50 376 43 353 42 L349 42 L349 0 L606 0 L606 42 L600 43 C573 45 561 55 501 119 L371 262 L423 299 C491 348 517 360 556 361 L560 361 L560 403 L349 403 Z " />
<glyph glyph-name="l" unicode="l" horiz-adv-x="329" d="M230 678 L223 678 C192 670 116 658 23 645 L23 603 L31 603 C89 601 100 588 101 527 L101 125 C98 58 85 43 27 42 L19 42 L19 0 L313 0 L313 42 L305 42 C249 42 231 62 230 125 L230 678 Z " />
<glyph glyph-name="m" unicode="m" horiz-adv-x="945" d="M24 381 L24 338 L29 338 C82 339 98 321 102 259 L102 125 C100 58 86 43 29 42 L26 42 L26 0 L294 0 L294 42 L289 42 C243 45 233 59 231 125 L231 284 L234 287 L256 309 C282 336 314 351 343 351 C388 351 407 325 407 264 L407 125 C406 55 402 48 360 43 L355 42 L355 0 L596 0 L596 42 L593 42 C549 46 543 57 541 125 L542 280 C589 331 621 351 660 351 C704 351 723 327 723 274 L723 125 C721 57 714 47 666 43 L661 42 L661 0 L931 0 L931 42 L925 42 C870 43 857 58 854 125 L854 258 C854 318 852 332 837 357 C815 394 763 419 706 419 C642 419 588 393 534 335 C513 389 463 419 396 419 C335 419 279 393 234 345 L234 351 C234 373 230 391 222 412 L217 412 C206 409 144 399 34 382 L24 381 Z " />
<glyph glyph-name="n" unicode="n" horiz-adv-x="642" d="M216 412 C185 405 178 404 34 382 L24 380 L24 338 L30 338 C83 338 100 320 104 259 L104 125 C102 58 88 43 31 42 L26 42 L26 0 L300 0 L300 42 L295 42 C245 45 235 58 233 125 L233 283 C275 332 311 353 353 353 C395 353 421 328 421 288 L421 125 C419 59 409 46 361 43 L353 42 L353 0 L629 0 L629 42 L623 42 C568 43 555 58 552 125 L552 260 C552 312 548 333 535 356 C513 394 461 419 403 419 C340 419 280 393 235 346 C234 375 231 396 224 412 L216 412 Z " />
<glyph glyph-name="o" unicode="o" horiz-adv-x="599" d="M40 200 C40 72 146 -16 301 -16 C450 -16 558 76 558 203 C558 329 449 419 297 419 C149 419 40 327 40 203 L40 200 Z M299 375 C344 375 381 357 398 328 C412 303 419 263 419 202 C419 77 385 27 301 27 C251 27 216 47 197 86 C186 109 179 158 179 218 C179 328 215 375 299 375 L299 375 Z " />
<glyph glyph-name="p" unicode="p" horiz-adv-x="644" d="M201 419 C178 414 154 409 103 402 C50 394 32 391 9 387 L9 345 L17 345 C74 345 89 328 92 263 L92 -116 C89 -183 75 -198 17 -199 L9 -199 L9 -241 L310 -241 L310 -199 L295 -199 C238 -198 224 -182 221 -116 L221 42 C273 1 319 -16 377 -16 C508 -16 604 78 604 207 C604 329 513 419 390 419 C327 419 268 395 219 350 C218 387 216 396 209 419 L201 419 Z M221 295 C256 339 297 361 345 361 C423 361 465 306 465 205 C465 147 453 103 431 81 C408 56 374 42 340 42 C298 42 256 60 221 92 L221 295 Z " />
<glyph glyph-name="q" unicode="q" horiz-adv-x="623" d="M422 -116 C419 -182 404 -198 348 -199 L331 -199 L331 -241 L633 -241 L633 -199 L625 -199 C569 -198 554 -182 551 -116 L551 419 L518 419 C484 389 462 371 440 355 C385 398 330 419 268 419 C136 419 40 326 40 197 C40 69 129 -16 263 -16 C321 -16 367 -1 422 36 L422 -116 Z M422 87 C382 56 338 40 294 40 C218 40 179 95 179 203 C179 312 218 365 298 365 C343 365 382 347 422 309 L422 87 Z " />
<glyph glyph-name="r" unicode="r" horiz-adv-x="481" d="M24 339 L31 339 C87 338 102 322 105 256 L105 125 C102 58 89 43 33 42 L25 42 L25 0 L322 0 L322 42 L309 42 C252 43 237 59 234 125 L234 178 C234 238 239 265 258 296 C276 325 296 340 320 340 C334 340 344 334 358 319 C382 291 392 285 416 285 C450 285 476 310 476 342 C476 386 438 419 388 419 C324 419 264 381 229 317 C227 360 222 393 213 419 C127 400 62 387 24 381 L24 339 Z " />
<glyph glyph-name="s" unicode="s" horiz-adv-x="459" d="M46 -12 L85 -12 C91 2 98 12 108 20 C113 19 114 18 120 15 C158 -5 200 -16 246 -16 C350 -16 420 39 420 121 C420 186 372 236 291 255 C209 274 202 276 173 288 C147 299 131 316 131 333 C131 360 165 381 210 381 C275 381 331 345 350 290 L389 290 L389 414 L352 414 C344 400 338 391 331 386 C289 406 238 419 205 419 C116 419 45 363 45 292 C45 235 97 188 187 163 C282 138 283 137 309 119 C320 110 328 95 328 82 C328 49 290 25 236 25 C165 25 112 60 88 122 L46 122 L46 -12 Z " />
<glyph glyph-name="t" unicode="t" horiz-adv-x="371" d="M357 359 L357 403 L222 403 L222 534 L179 534 C165 457 102 402 27 402 C26 402 22 402 17 403 L17 359 L83 359 L83 127 C83 33 130 -16 221 -16 C292 -16 349 15 374 68 L333 82 C316 53 298 41 272 41 C253 41 240 48 232 63 C224 78 222 89 222 139 L222 359 L357 359 Z " />
<glyph glyph-name="u" unicode="u" horiz-adv-x="629" d="M533 403 L333 403 L333 361 L339 361 C393 360 402 348 404 279 L404 145 C399 132 398 129 398 127 C383 86 332 51 284 51 C267 51 251 57 238 68 C224 79 219 97 219 134 L219 403 L15 403 L15 361 L20 361 C74 360 87 344 90 279 L90 130 C90 88 94 68 106 47 C128 9 181 -16 238 -16 C302 -16 359 11 404 63 C404 34 405 18 410 -16 L415 -16 C448 -7 547 1 611 0 L611 42 L607 42 C551 43 536 60 533 125 L533 403 Z " />
<glyph glyph-name="v" unicode="v" horiz-adv-x="546" d="M550 361 L550 403 L396 403 L396 361 L401 361 C425 360 441 351 441 337 C441 328 436 313 427 296 L326 106 L220 303 C211 320 206 333 206 341 C206 353 223 361 251 361 L257 361 L257 403 L-5 403 L-5 361 L0 361 C33 360 42 350 79 284 L236 -10 L315 -10 L461 263 C500 342 511 355 545 361 L550 361 Z " />
<glyph glyph-name="w" unicode="w" horiz-adv-x="826" d="M627 -11 L749 271 C779 346 789 358 828 361 L831 361 L831 403 L665 403 L665 361 L671 361 C704 360 722 351 722 335 C722 330 721 328 712 304 L637 124 L502 403 L431 403 L297 124 L220 297 C205 331 205 331 205 340 C205 354 222 361 256 361 L262 361 L262 403 L-5 403 L-5 361 L1 361 C34 360 46 350 68 306 L213 -11 L285 -11 L418 268 L553 -11 L627 -11 Z " />
<glyph glyph-name="x" unicode="x" horiz-adv-x="571" d="M534 361 L534 403 L351 403 L351 361 L355 361 C382 360 396 355 396 344 C396 338 388 329 369 310 L317 262 L263 320 C249 334 245 340 245 346 C245 356 255 361 278 361 L284 361 L284 403 L10 403 L10 361 L18 361 C45 358 71 339 119 287 L215 181 L134 105 C93 67 56 47 22 43 L15 42 L15 0 L201 0 L201 42 L199 42 L193 42 C166 42 154 48 154 59 C154 66 163 77 179 91 L250 152 L314 84 C330 66 331 65 331 59 C331 48 312 41 285 42 L278 42 L278 0 L562 0 L562 42 L556 43 C532 47 514 60 474 100 L344 233 L417 298 C466 339 509 363 531 361 L534 361 Z " />
<glyph glyph-name="y" unicode="y" horiz-adv-x="553" d="M-6 403 L-6 361 L2 361 C31 360 46 346 76 293 L261 -15 L239 -65 C218 -106 200 -118 132 -135 C86 -147 64 -166 64 -196 C64 -227 92 -250 130 -250 C181 -250 217 -217 262 -128 L454 251 C494 337 507 353 543 360 L550 361 L550 403 L389 403 L389 361 L398 361 C417 361 439 348 438 337 C438 329 431 311 418 286 L335 118 L228 301 C221 313 216 328 216 338 C216 353 225 359 249 361 L256 361 L256 403 L-6 403 Z " />
<glyph glyph-name="z" unicode="z" horiz-adv-x="515" d="M31 0 L468 0 L482 134 L436 134 C402 59 382 44 318 43 L212 43 L474 366 L474 403 L55 403 L46 283 L91 283 C124 353 133 361 173 360 L295 360 L31 33 L31 0 Z " />
<glyph glyph-name="braceleft" unicode="&#x7b;" horiz-adv-x="430" d="M68 202 C149 196 165 176 166 87 L166 -80 C167 -147 185 -187 227 -213 C252 -227 290 -232 380 -232 L413 -232 L413 -204 C317 -202 283 -167 282 -70 L282 94 C284 162 250 198 172 214 L172 216 L172 221 C250 236 283 273 282 340 L282 505 C283 602 317 636 413 638 L413 667 L380 667 C290 666 252 662 227 648 C186 622 167 582 166 515 L166 348 C165 258 149 239 68 233 L68 202 Z " />
<glyph glyph-name="bar" unicode="&#x7c;" horiz-adv-x="543" d="M222 667 L222 -167 L322 -167 L322 667 L222 667 Z " />
<glyph glyph-name="braceright" unicode="&#x7d;" horiz-adv-x="437" d="M369 233 C289 239 272 258 271 348 L271 515 C270 582 251 622 210 648 C185 662 147 666 57 667 L24 667 L24 638 C120 636 154 602 155 505 L155 340 C153 273 187 236 265 221 L265 219 L265 214 C187 198 154 162 155 94 L155 -70 C154 -167 120 -202 24 -204 L24 -232 L57 -232 C147 -232 185 -227 210 -213 C252 -187 270 -147 271 -80 L271 87 C272 176 289 196 369 202 L369 233 Z " />
<glyph glyph-name="asciitilde" unicode="&#x7e;" horiz-adv-x="694" d="M522 734 C498 704 472 689 445 689 C424 689 395 696 364 708 C331 721 301 728 280 728 C236 728 193 692 150 617 L172 604 C205 642 219 650 250 650 C273 650 294 645 342 626 C374 614 392 610 411 610 C461 610 508 649 544 720 L522 734 Z " />
<glyph glyph-name="uni00A0" unicode="&#xa0;" horiz-adv-x="250" d="" />
<glyph glyph-name="exclamdown" unicode="&#xa1;" horiz-adv-x="338" d="M146 221 L102 -118 C99 -141 97 -162 97 -176 C97 -218 124 -242 171 -242 C216 -242 243 -217 243 -176 C243 -165 241 -144 238 -120 L194 221 L146 221 Z M170 448 C123 448 85 414 85 371 C85 330 123 295 168 295 C216 295 254 329 254 372 C254 414 216 448 170 448 L170 448 Z " />
<glyph glyph-name="cent" unicode="&#xa2;" horiz-adv-x="584" d="M492 115 C469 65 417 33 359 33 C335 33 314 40 299 53 L386 360 C394 359 400 351 402 342 C405 316 407 312 414 301 C425 284 445 274 466 274 C499 274 525 298 525 328 C525 370 475 405 400 415 L454 613 L408 613 L354 418 C349 419 347 419 341 419 C307 419 248 407 219 394 C131 356 79 281 79 194 C79 95 136 24 238 -3 L186 -190 L233 -190 L282 -11 C303 -16 315 -17 333 -17 C431 -17 508 28 537 101 L492 115 Z M261 86 C234 115 218 166 218 222 C218 316 264 374 337 375 L343 375 L261 86 Z " />
<glyph glyph-name="sterling" unicode="&#xa3;" horiz-adv-x="791" d="M31 198 L197 198 C179 131 164 85 147 44 C67 -1 27 -42 27 -77 C27 -101 53 -121 85 -121 C103 -121 119 -113 136 -94 C144 -85 174 -37 186 -14 C189 -9 192 -4 194 1 L197 5 C209 11 218 13 228 13 C253 13 275 0 325 -42 C395 -102 436 -121 497 -121 C614 -121 725 -28 725 69 C725 109 698 138 661 138 C632 138 610 119 610 94 C610 82 615 68 623 55 C643 22 645 18 645 4 C645 -25 610 -52 572 -52 C538 -52 505 -35 446 15 C389 63 344 83 294 83 C274 83 258 80 233 71 C267 120 292 161 311 198 L506 198 L522 257 L338 257 C361 300 387 382 413 487 C440 602 450 635 470 669 C495 712 527 733 569 733 C602 733 624 721 645 691 C672 654 683 646 710 646 C740 646 764 668 764 695 C764 743 692 781 601 781 C521 781 454 754 395 699 C332 639 273 517 241 379 C233 343 224 306 215 269 C214 264 214 264 214 262 C213 261 213 260 213 257 L48 257 L31 198 Z " />
<glyph glyph-name="currency" unicode="&#xa4;" horiz-adv-x="733" d="M37 93 L91 43 L199 141 C263 107 305 95 363 95 C423 95 473 109 532 142 L640 44 L695 93 L583 194 C621 250 634 288 634 342 C634 395 621 433 584 491 L697 593 L643 642 L531 542 C464 577 422 589 365 589 C305 589 246 573 198 543 L90 641 L36 592 L143 494 C105 435 92 395 92 343 C92 290 107 245 144 190 L37 93 Z M365 483 C458 483 531 420 531 340 C531 264 456 201 366 201 C274 201 199 264 199 342 C199 420 273 483 365 483 L365 483 Z " />
<glyph glyph-name="yen" unicode="&#xa5;" horiz-adv-x="565" d="M401 461 L251 461 L201 541 C188 563 181 580 181 592 C181 613 199 623 235 623 L240 623 L240 667 L-70 667 L-70 623 L-67 623 C-18 620 -9 612 43 526 L82 461 L-43 461 L-43 415 L109 415 L198 274 L-37 274 L-37 228 L203 228 L203 148 C203 65 185 44 116 44 L105 44 L105 0 L435 0 L435 44 L425 44 C355 44 337 65 337 148 L337 228 L578 228 L578 274 L345 274 L345 281 L428 415 L584 415 L584 461 L456 461 C534 594 558 619 607 623 L610 623 L610 667 L387 667 L387 623 L392 623 C435 623 462 607 462 580 C462 567 456 552 442 529 L401 461 Z M372 415 L323 332 L277 415 L372 415 Z " />
<glyph glyph-name="brokenbar" unicode="&#xa6;" horiz-adv-x="543" d="M222 667 L222 314 L322 314 L322 667 L222 667 Z M222 153 L222 -167 L322 -167 L322 153 L222 153 Z " />
<glyph glyph-name="section" unicode="&#xa7;" horiz-adv-x="523" d="M172 367 C136 361 116 355 95 343 C55 319 31 276 31 228 C31 179 53 135 99 92 C132 62 165 39 236 -6 C334 -68 360 -96 360 -137 C360 -175 322 -202 272 -202 C233 -202 204 -183 195 -152 C184 -114 183 -112 175 -102 C163 -88 147 -80 129 -80 C97 -80 71 -104 71 -135 C71 -196 149 -245 247 -245 C365 -245 447 -184 447 -96 C447 -40 413 14 350 58 C399 72 407 75 426 88 C463 114 483 154 483 204 C483 249 467 287 434 325 C407 355 383 373 285 434 C182 499 153 528 153 566 C153 603 192 631 243 631 C273 631 297 621 311 602 C318 593 322 585 331 556 C340 525 357 511 387 511 C422 511 448 535 448 566 C448 625 367 674 270 674 C153 674 68 611 68 524 C68 467 98 421 172 367 L172 367 Z M184 333 C220 333 276 305 333 260 C382 221 406 187 406 156 C406 122 373 96 330 96 C293 96 258 113 193 162 C138 205 108 244 108 274 C108 306 143 333 184 333 L184 333 Z " />
<glyph glyph-name="dieresis" unicode="&#xa8;" horiz-adv-x="426" d="M93 633 C60 633 33 606 33 573 C33 540 60 513 92 513 C126 513 153 539 153 573 C153 606 126 633 93 633 L93 633 Z M333 633 C300 633 273 606 273 573 C273 540 300 513 332 513 C366 513 393 539 393 573 C393 606 366 633 333 633 L333 633 Z " />
<glyph glyph-name="copyright" unicode="&#xa9;" horiz-adv-x="884" d="M442 680 C232 680 61 525 61 334 C61 142 232 -13 443 -13 C651 -13 824 143 824 329 C824 526 656 680 442 680 L442 680 Z M442 638 C632 638 782 502 782 329 C782 166 628 29 443 29 C255 29 103 165 103 334 C103 502 255 638 442 638 L442 638 Z M585 293 C583 279 579 268 570 248 C548 200 508 174 455 174 C426 174 399 184 377 203 C350 226 337 269 337 332 C337 440 376 495 453 495 C519 495 567 452 582 377 L610 377 L606 516 L578 516 C576 503 572 490 567 480 C530 512 493 526 443 526 C330 526 247 443 247 331 C247 222 329 142 441 142 C493 142 537 158 570 191 C578 179 581 171 585 155 L613 155 L613 293 L585 293 Z " />
<glyph glyph-name="ordfeminine" unicode="&#xaa;" horiz-adv-x="365" d="M331 325 C327 311 321 304 311 304 C299 304 293 314 293 337 L293 450 C293 482 290 492 276 507 C258 526 226 536 178 536 C99 536 40 507 40 468 C40 451 55 438 77 438 C100 438 114 450 118 473 C122 497 133 505 162 505 C197 505 209 493 209 457 L209 440 L185 430 C177 427 167 423 157 420 C109 403 73 384 50 364 C38 354 30 336 30 319 C30 284 61 260 107 260 C142 260 178 272 214 296 C227 272 249 261 282 261 C329 261 358 285 359 325 L331 325 Z M209 407 L209 327 L207 326 L205 324 C187 310 166 301 149 301 C127 301 109 317 109 336 C109 361 132 379 194 401 L209 407 Z " />
<glyph glyph-name="guillemotleft" unicode="&#xab;" horiz-adv-x="588" d="M18 216 L228 8 L279 8 L180 216 L279 423 L227 423 L18 216 Z M289 216 L500 8 L550 8 L451 216 L550 423 L499 423 L289 216 Z " />
<glyph glyph-name="logicalnot" unicode="&#xac;" horiz-adv-x="550" d="M517 0 L517 267 L33 267 L33 199 L358 199 L358 0 L517 0 Z " />
<glyph glyph-name="uni00AD" unicode="&#xad;" horiz-adv-x="369" d="M35 247 L35 182 L336 182 L336 247 L35 247 Z " />
<glyph glyph-name="registered" unicode="&#xae;" horiz-adv-x="884" d="M442 680 C232 680 61 525 61 334 C61 142 232 -13 443 -13 C651 -13 824 143 824 329 C824 526 656 680 442 680 L442 680 Z M442 638 C632 638 782 502 782 329 C782 166 628 29 443 29 C255 29 103 165 103 334 C103 502 255 638 442 638 L442 638 Z M251 150 L452 150 L452 177 L439 177 C400 178 392 187 390 233 L390 317 L394 317 C430 319 441 310 478 258 C519 194 540 165 556 150 L673 150 L673 177 L667 177 C638 179 618 196 578 251 C543 301 535 310 509 332 C562 344 595 379 595 423 C595 455 578 483 549 499 C520 515 476 522 399 522 C381 522 369 522 336 521 L251 520 L251 493 L261 493 C303 492 308 486 311 438 L311 233 C309 187 301 178 262 177 L251 177 L251 150 Z M390 346 L390 491 C450 490 460 489 481 479 C499 471 511 448 511 419 C511 364 485 346 406 346 L401 346 L390 346 Z " />
<glyph glyph-name="macron" unicode="&#xaf;" horiz-adv-x="393" d="M33 541 L360 541 L360 590 L33 590 L33 541 Z " />
<glyph glyph-name="degree" unicode="&#xb0;" horiz-adv-x="400" d="M203 686 C117 686 50 619 50 534 C50 448 116 381 200 381 C284 381 350 448 350 533 C350 619 286 686 203 686 L203 686 Z M202 629 C252 629 293 586 293 534 C293 480 252 438 200 438 C148 438 106 481 106 533 C106 587 148 629 202 629 L202 629 Z " />
<glyph glyph-name="plusminus" unicode="&#xb1;" horiz-adv-x="550" d="M10 396 L10 323 L236 323 L236 123 L312 123 L312 323 L540 323 L540 396 L312 396 L312 596 L236 596 L236 396 L10 396 Z M10 75 L10 2 L540 2 L540 75 L10 75 Z " />
<glyph glyph-name="twosuperior" unicode="&#xb2;" horiz-adv-x="383" d="M42 266 L264 266 C286 266 286 266 286 257 C286 254 285 250 282 241 L322 241 L342 324 L144 324 C204 377 237 406 243 411 C322 488 340 515 340 561 C340 625 277 670 189 670 C107 670 42 626 42 572 C42 544 59 512 74 512 C91 512 132 531 132 539 C132 541 130 543 127 545 C112 556 103 571 103 585 C103 613 133 635 170 635 C215 635 245 605 245 560 C245 481 174 388 42 295 L42 266 Z " />
<glyph glyph-name="threesuperior" unicode="&#xb3;" horiz-adv-x="383" d="M235 499 C303 535 326 559 326 595 C326 638 271 670 197 670 C115 670 48 629 48 579 C48 555 62 533 77 533 C93 533 137 550 137 556 C137 559 135 561 131 564 C116 574 111 582 111 593 C111 616 141 635 175 635 C212 635 235 614 235 582 C235 546 209 516 151 488 C128 477 116 468 116 460 C116 449 127 440 140 440 C149 440 155 443 167 453 C180 463 188 466 200 466 C230 466 244 442 244 390 C244 324 218 291 166 291 C143 291 131 298 121 320 C109 346 98 355 75 355 C51 355 31 339 31 321 C31 285 84 258 152 258 C260 258 339 317 339 397 C339 456 303 490 235 499 L235 499 Z " />
<glyph glyph-name="acute" unicode="&#xb4;" horiz-adv-x="527" d="M206 488 L240 488 L438 642 L438 649 L286 649 L206 488 Z " />
<glyph glyph-name="mu" unicode="&#xb5;" horiz-adv-x="576" d="M442 500 L353 500 L354 131 C318 80 284 58 242 58 C184 58 150 99 150 169 L150 500 L62 500 L62 20 C62 -1 58 -26 51 -56 C34 -118 33 -123 33 -147 C33 -190 54 -219 83 -219 C112 -219 132 -189 132 -145 C132 -124 129 -110 113 -53 C102 -17 101 -8 101 21 L101 33 C143 -3 165 -13 200 -13 C250 -13 301 18 354 80 C362 48 367 36 377 21 C392 0 419 -13 449 -13 C510 -13 553 31 567 108 L540 109 C536 71 515 41 492 41 C462 41 442 77 442 131 L442 500 Z " />
<glyph glyph-name="paragraph" unicode="&#xb6;" horiz-adv-x="688" d="M622 667 L326 667 C212 667 210 667 181 660 C103 641 54 581 54 506 C54 449 83 400 134 372 C170 352 211 343 273 343 L308 343 L308 2 L307 -20 L307 -24 C307 -48 297 -52 238 -52 L213 -52 L213 -84 L381 -84 L381 633 L467 633 L467 -84 L611 -84 L611 -52 L589 -52 L574 -52 L564 -51 C542 -50 540 -47 540 -2 L540 563 C540 597 544 622 550 626 C553 631 577 635 606 635 L622 635 L622 667 Z M307 635 L307 379 L273 379 C210 379 168 429 168 503 C168 543 180 585 198 608 C213 627 237 635 280 635 L307 635 Z " />
<glyph glyph-name="periodcentered" unicode="&#xb7;" horiz-adv-x="315" d="M153 410 C106 410 68 375 68 333 C68 291 106 256 151 256 C199 256 237 290 237 333 C237 376 199 410 153 410 L153 410 Z " />
<glyph glyph-name="cedilla" unicode="&#xb8;" horiz-adv-x="550" d="M247 0 C241 -48 236 -73 229 -100 C264 -102 285 -118 285 -142 C285 -165 266 -179 236 -179 C215 -179 198 -176 172 -169 C169 -187 168 -189 165 -205 C188 -213 208 -217 232 -217 C307 -217 356 -182 356 -129 C356 -84 326 -55 275 -49 C279 -26 280 -22 283 0 L247 0 Z " />
<glyph glyph-name="onesuperior" unicode="&#xb9;" horiz-adv-x="383" d="M204 670 C180 652 137 641 87 640 L87 609 L109 609 C144 609 147 605 147 558 L147 343 C145 306 139 300 107 300 L84 300 L84 267 L300 267 L300 300 L277 300 C244 300 238 307 237 344 L237 670 L204 670 Z " />
<glyph glyph-name="ordmasculine" unicode="&#xba;" horiz-adv-x="372" d="M30 395 C30 314 94 257 186 257 C276 257 341 316 341 397 C341 478 276 536 184 536 C95 536 30 477 30 397 L30 395 Z M185 503 C234 503 254 474 254 404 C254 319 237 290 187 290 C136 290 117 320 117 401 C117 474 136 503 185 503 L185 503 Z " />
<glyph glyph-name="guillemotright" unicode="&#xbb;" horiz-adv-x="588" d="M559 216 L350 423 L298 423 L397 216 L298 8 L349 8 L559 216 Z M288 216 L78 423 L27 423 L126 216 L27 8 L77 8 L288 216 Z " />
<glyph glyph-name="onequarter" unicode="&#xbc;" horiz-adv-x="952" d="M203 670 C176 652 136 641 86 640 L86 609 L96 608 L98 608 L107 609 L114 609 L118 609 C141 610 146 601 146 558 L146 343 C144 306 138 300 106 300 L84 300 L84 267 L298 267 L298 300 L275 300 C243 300 237 306 236 344 L236 670 L203 670 Z M343 0 L721 660 L658 660 L280 0 L343 0 Z M754 133 L754 80 C752 40 747 33 712 33 L690 33 L690 0 L906 0 L906 33 L885 33 C852 33 847 39 845 81 L845 133 L919 133 L929 195 L899 195 L896 188 C889 175 884 173 862 172 L845 172 L845 402 L796 402 L588 172 L588 133 L754 133 Z M754 172 L638 172 L754 297 L754 172 Z " />
<glyph glyph-name="onehalf" unicode="&#xbd;" horiz-adv-x="952" d="M203 670 C176 652 136 641 86 640 L86 609 L96 608 L98 608 L117 609 C142 609 146 602 146 558 L146 343 C144 306 138 300 106 300 L84 300 L84 267 L298 267 L298 300 L275 300 C243 300 237 306 236 344 L236 670 L203 670 Z M321 0 L699 660 L636 660 L258 0 L321 0 Z M605 0 L829 0 C849 0 850 -1 850 -10 C850 -11 850 -11 849 -16 L847 -25 L847 -26 L887 -26 L906 58 L708 58 C768 111 801 140 807 145 C886 221 904 249 904 294 C904 358 841 403 753 403 C672 403 606 359 606 305 C606 277 623 245 638 245 C652 245 696 265 696 272 C696 274 694 276 691 278 C676 289 667 304 667 318 C667 346 697 368 734 368 C779 368 809 338 809 293 C809 214 737 121 605 29 L605 0 Z " />
<glyph glyph-name="threequarters" unicode="&#xbe;" horiz-adv-x="952" d="M235 499 C303 535 326 559 326 595 C326 638 271 670 197 670 C115 670 48 629 48 579 C48 555 62 533 77 533 C93 533 137 550 137 556 C137 559 135 561 131 564 C116 574 111 582 111 593 C111 616 141 635 175 635 C212 635 235 614 235 582 C235 546 209 516 151 488 C128 477 116 468 116 460 C116 449 127 440 140 440 C149 440 155 443 167 453 C180 463 188 466 200 466 C230 466 244 442 244 390 C244 324 218 291 166 291 C143 291 131 298 121 320 C109 346 98 355 75 355 C51 355 31 339 31 321 C31 285 84 258 152 258 C260 258 339 317 339 397 C339 456 303 490 235 499 L235 499 Z M344 0 L721 660 L658 660 L281 0 L344 0 Z M756 133 L756 80 C754 40 749 33 715 33 L692 33 L692 0 L907 0 L907 33 L887 33 C854 33 849 39 847 81 L847 133 L920 133 L930 195 L901 195 L897 188 C890 174 886 173 863 172 L847 172 L847 402 L798 402 L591 172 L591 133 L756 133 Z M756 172 L641 172 L756 297 L756 172 Z " />
<glyph glyph-name="questiondown" unicode="&#xbf;" horiz-adv-x="500" d="M294 445 C246 445 208 411 208 369 C208 327 247 292 292 292 C341 292 379 326 379 369 C379 411 341 445 294 445 L294 445 Z M319 219 L271 219 L271 102 C247 114 224 119 197 119 C95 119 20 47 20 -50 C20 -166 112 -245 247 -245 C341 -245 423 -200 423 -148 C423 -126 400 -108 372 -108 C345 -108 328 -121 316 -150 C301 -188 284 -201 248 -201 C187 -201 150 -146 150 -54 C150 22 179 65 230 65 C251 65 267 57 281 41 L319 41 L319 219 Z " />
<glyph glyph-name="Agrave" unicode="&#xc0;" horiz-adv-x="723" d="M737 0 L737 44 L731 44 C678 50 663 66 620 157 L385 678 L336 678 L110 170 C74 86 42 51 -7 44 L-15 44 L-15 0 L219 0 L219 44 L211 44 C169 44 141 63 141 91 C141 107 145 120 167 170 L181 202 L425 202 L452 144 C471 102 477 86 477 75 C477 53 456 44 406 44 L399 44 L399 0 L737 0 Z M406 247 L200 247 L302 475 L406 247 Z M410 729 L443 729 L343 877 L164 877 L164 869 L410 729 Z " />
<glyph glyph-name="Aacute" unicode="&#xc1;" horiz-adv-x="723" d="M737 0 L737 44 L731 44 C678 50 663 66 620 157 L385 678 L336 678 L110 170 C74 86 42 51 -7 44 L-15 44 L-15 0 L219 0 L219 44 L211 44 C169 44 141 63 141 91 C141 107 145 120 167 170 L181 202 L425 202 L452 144 C471 102 477 86 477 75 C477 53 456 44 406 44 L399 44 L399 0 L737 0 Z M406 247 L200 247 L302 475 L406 247 Z M317 729 L350 729 L596 869 L596 877 L417 877 L317 729 Z " />
<glyph glyph-name="Acircumflex" unicode="&#xc2;" horiz-adv-x="723" d="M737 0 L737 44 L731 44 C678 50 663 66 620 157 L385 678 L336 678 L110 170 C74 86 42 51 -7 44 L-15 44 L-15 0 L219 0 L219 44 L211 44 C169 44 141 63 141 91 C141 107 145 120 167 170 L181 202 L425 202 L452 144 C471 102 477 86 477 75 C477 53 456 44 406 44 L399 44 L399 0 L737 0 Z M406 247 L200 247 L302 475 L406 247 Z M284 879 L175 729 L207 729 L353 817 L518 729 L550 729 L440 879 L284 879 Z " />
<glyph glyph-name="Atilde" unicode="&#xc3;" horiz-adv-x="723" d="M737 0 L737 44 L731 44 C678 50 663 66 620 157 L385 678 L336 678 L110 170 C74 86 42 51 -7 44 L-15 44 L-15 0 L219 0 L219 44 L211 44 C169 44 141 63 141 91 C141 107 145 120 167 170 L181 202 L425 202 L452 144 C471 102 477 86 477 75 C477 53 456 44 406 44 L399 44 L399 0 L737 0 Z M406 247 L200 247 L302 475 L406 247 Z M205 726 L205 729 C205 757 227 779 253 779 C268 779 288 773 320 758 C372 735 408 725 443 725 C504 725 547 775 547 845 C547 847 547 855 546 861 L513 861 C507 826 491 806 468 806 C451 806 423 814 392 829 C348 849 307 861 278 861 C214 861 171 812 171 740 L171 726 L205 726 Z " />
<glyph glyph-name="Adieresis" unicode="&#xc4;" horiz-adv-x="723" d="M737 0 L737 44 L731 44 C678 50 663 66 620 157 L385 678 L336 678 L110 170 C74 86 42 51 -7 44 L-15 44 L-15 0 L219 0 L219 44 L211 44 C169 44 141 63 141 91 C141 107 145 120 167 170 L181 202 L425 202 L452 144 C471 102 477 86 477 75 C477 53 456 44 406 44 L399 44 L399 0 L737 0 Z M406 247 L200 247 L302 475 L406 247 Z M214 861 C176 861 146 831 146 793 C146 756 177 725 213 725 C252 725 282 755 282 793 C282 831 252 861 214 861 L214 861 Z M509 861 C472 861 441 830 441 794 C441 755 471 725 509 725 C546 725 577 756 577 793 C577 831 547 861 509 861 L509 861 Z " />
<glyph glyph-name="Aring" unicode="&#xc5;" horiz-adv-x="723" d="M110 170 C74 86 42 52 -7 44 L-15 44 L-15 0 L219 0 L219 44 L211 44 C169 44 141 63 141 91 C141 107 145 120 167 170 L181 202 L425 202 L452 144 C471 102 477 86 477 75 C477 53 456 44 406 44 L399 44 L399 0 L737 0 L737 44 L731 44 C678 50 663 65 620 157 L388 670 C433 683 465 725 465 772 C465 831 417 879 359 879 C300 879 252 831 252 772 C252 724 284 682 332 669 L110 170 Z M406 247 L200 247 L302 475 L406 247 Z M358 840 C396 840 426 810 426 773 C426 735 395 705 358 705 C321 705 291 735 291 773 C291 810 322 840 358 840 L358 840 Z " />
<glyph glyph-name="AE" unicode="&#xc6;" horiz-adv-x="1019" d="M445 322 L445 148 C445 69 421 43 348 44 L332 44 L332 0 L984 0 L990 213 L941 213 C905 89 851 44 741 47 L714 47 C616 45 592 67 593 158 L593 322 L676 322 C740 320 751 310 757 248 C758 241 758 239 759 231 L811 231 L811 457 L759 457 C754 382 738 366 668 368 L593 368 L593 621 L745 621 C826 625 860 596 894 496 L943 496 L929 667 L254 667 L254 625 L279 625 C334 625 350 619 350 600 C350 588 346 577 330 550 L114 175 C62 82 29 50 -22 44 L-22 0 L196 0 L196 44 L191 44 C154 44 130 61 130 85 C130 98 140 124 153 146 L258 322 L445 322 Z M445 368 L286 368 L445 633 L445 368 Z " />
<glyph glyph-name="Ccedilla" unicode="&#xc7;" horiz-adv-x="810" d="M740 10 L740 254 L692 254 C678 190 643 126 605 96 C560 60 500 40 442 40 C360 40 287 79 251 141 C227 184 215 246 215 326 C215 415 228 481 255 529 C291 593 355 628 437 628 C512 628 585 596 625 545 C653 510 671 469 686 412 L733 412 L726 661 L679 661 C673 635 666 615 654 593 C594 649 514 679 421 679 C318 679 225 646 161 588 C89 521 47 425 47 326 C47 137 187 0 392 -12 C384 -59 378 -89 370 -111 C416 -113 445 -131 445 -158 C445 -183 420 -199 380 -199 C351 -199 328 -196 294 -188 C290 -208 290 -210 285 -228 C316 -238 342 -242 376 -242 C474 -242 539 -203 539 -144 C539 -94 499 -60 432 -54 C435 -41 437 -27 440 -12 C529 -7 609 25 660 76 C676 58 684 40 692 10 L740 10 Z " />
<glyph glyph-name="Egrave" unicode="&#xc8;" horiz-adv-x="722" d="M640 215 C605 91 548 45 435 47 L404 47 C313 44 288 70 291 164 L291 327 L367 327 C440 327 457 312 460 243 L460 235 L511 235 L511 462 L460 462 L459 455 C455 386 444 377 365 374 L291 374 L291 621 L421 621 C523 624 559 598 591 496 L640 496 L627 667 L36 667 L36 624 L49 624 C118 625 143 599 143 521 L143 149 C144 70 119 42 46 44 L31 44 L31 0 L681 0 L689 215 L640 215 Z M453 729 L486 729 L386 877 L207 877 L207 869 L453 729 Z " />
<glyph glyph-name="Eacute" unicode="&#xc9;" horiz-adv-x="722" d="M640 215 C605 91 548 45 435 47 L404 47 C313 44 288 70 291 164 L291 327 L367 327 C440 327 457 312 460 243 L460 235 L511 235 L511 462 L460 462 L459 455 C455 386 444 377 365 374 L291 374 L291 621 L421 621 C523 624 559 598 591 496 L640 496 L627 667 L36 667 L36 624 L49 624 C118 625 143 599 143 521 L143 149 C144 70 119 42 46 44 L31 44 L31 0 L681 0 L689 215 L640 215 Z M310 729 L343 729 L589 869 L589 877 L409 877 L310 729 Z " />
<glyph glyph-name="Ecircumflex" unicode="&#xca;" horiz-adv-x="722" d="M640 215 C605 91 548 45 435 47 L404 47 C313 44 288 70 291 164 L291 327 L367 327 C440 327 457 312 460 243 L460 235 L511 235 L511 462 L460 462 L459 455 C455 386 444 377 365 374 L291 374 L291 621 L421 621 C523 624 559 598 591 496 L640 496 L627 667 L36 667 L36 624 L49 624 C118 625 143 599 143 521 L143 149 C144 70 119 42 46 44 L31 44 L31 0 L681 0 L689 215 L640 215 Z M295 879 L187 729 L219 729 L365 817 L529 729 L561 729 L451 879 L295 879 Z " />
<glyph glyph-name="Edieresis" unicode="&#xcb;" horiz-adv-x="722" d="M640 215 C605 91 548 45 435 47 L404 47 C313 44 288 70 291 164 L291 327 L367 327 C440 327 457 312 460 243 L460 235 L511 235 L511 462 L460 462 L459 455 C455 386 444 377 365 374 L291 374 L291 621 L421 621 C523 624 559 598 591 496 L640 496 L627 667 L36 667 L36 624 L49 624 C118 625 143 599 143 521 L143 149 C144 70 119 42 46 44 L31 44 L31 0 L681 0 L689 215 L640 215 Z M223 861 C185 861 155 831 155 793 C155 756 186 725 222 725 C261 725 291 755 291 793 C291 831 261 861 223 861 L223 861 Z M518 861 C481 861 450 830 450 794 C450 755 480 725 518 725 C555 725 586 756 586 793 C586 831 556 861 518 861 L518 861 Z " />
<glyph glyph-name="Igrave" unicode="&#xcc;" horiz-adv-x="432" d="M31 623 L43 623 C120 624 139 604 141 521 L141 149 C141 69 118 43 45 44 L31 44 L31 0 L401 0 L401 44 L385 44 C312 43 289 69 289 149 L289 521 C290 604 310 624 387 623 L401 623 L401 667 L31 667 L31 623 Z M303 729 L336 729 L236 877 L57 877 L57 869 L303 729 Z " />
<glyph glyph-name="Iacute" unicode="&#xcd;" horiz-adv-x="432" d="M31 623 L43 623 C120 624 139 604 141 521 L141 149 C141 69 118 43 45 44 L31 44 L31 0 L401 0 L401 44 L385 44 C312 43 289 69 289 149 L289 521 C290 604 310 624 387 623 L401 623 L401 667 L31 667 L31 623 Z M176 729 L209 729 L456 869 L456 877 L276 877 L176 729 Z " />
<glyph glyph-name="Icircumflex" unicode="&#xce;" horiz-adv-x="432" d="M31 623 L43 623 C120 624 139 604 141 521 L141 149 C141 69 118 43 45 44 L31 44 L31 0 L401 0 L401 44 L385 44 C312 43 289 69 289 149 L289 521 C290 604 310 624 387 623 L401 623 L401 667 L31 667 L31 623 Z M141 879 L33 729 L64 729 L210 817 L375 729 L407 729 L297 879 L141 879 Z " />
<glyph glyph-name="Idieresis" unicode="&#xcf;" horiz-adv-x="432" d="M31 623 L43 623 C120 624 139 604 141 521 L141 149 C141 69 118 43 45 44 L31 44 L31 0 L401 0 L401 44 L385 44 C312 43 289 69 289 149 L289 521 C290 604 310 624 387 623 L401 623 L401 667 L31 667 L31 623 Z M91 861 C53 861 23 831 23 793 C23 756 54 725 90 725 C129 725 159 755 159 793 C159 831 129 861 91 861 L91 861 Z M339 861 C302 861 271 831 271 794 C271 755 301 725 339 725 C377 725 407 755 407 793 C407 831 377 861 339 861 L339 861 Z " />
<glyph glyph-name="Eth" unicode="&#xd0;" horiz-adv-x="869" d="M149 358 L28 358 L28 306 L149 306 L149 149 C149 70 124 43 50 44 L34 44 L34 0 L317 0 C476 0 535 5 590 22 C734 67 821 182 821 329 C821 446 762 549 664 603 C575 652 460 672 273 672 C246 672 223 672 185 671 C156 671 152 671 106 669 C80 667 61 666 35 665 L35 622 L48 622 C126 623 148 601 149 519 L149 358 Z M297 358 L297 626 C317 627 327 627 343 627 C429 627 479 617 527 589 C613 538 653 454 653 322 C653 228 627 153 579 103 C545 68 472 47 388 47 C315 47 297 72 297 171 L297 306 L462 306 L462 358 L297 358 Z " />
<glyph glyph-name="Ntilde" unicode="&#xd1;" horiz-adv-x="855" d="M686 -12 L735 -12 L735 513 C732 583 755 612 823 623 L831 623 L831 667 L580 667 L580 623 L589 623 C658 618 687 587 685 517 L685 221 L265 667 L26 667 L26 623 L32 623 C108 624 132 597 137 507 L137 162 C137 111 135 99 128 88 C115 64 73 45 31 44 L26 44 L26 0 L303 0 L303 44 L290 44 C262 43 232 54 212 71 C190 92 187 100 187 163 L187 522 L686 -12 Z M288 726 C287 728 287 729 287 729 C285 755 309 779 335 779 C350 779 370 773 402 758 C454 735 490 725 525 725 C585 725 629 775 629 845 L629 861 L595 861 C590 826 573 806 550 806 C533 806 505 814 475 829 C430 849 389 861 360 861 C296 861 253 813 253 740 C253 738 253 731 254 726 L288 726 Z " />
<glyph glyph-name="Ograve" unicode="&#xd2;" horiz-adv-x="908" d="M459 679 C336 679 234 646 158 580 C89 520 47 427 47 331 C47 250 77 172 132 110 C202 32 320 -13 457 -13 C570 -13 682 25 750 86 C820 149 860 238 860 332 C860 533 692 679 459 679 L459 679 Z M454 628 C513 628 571 609 608 576 C658 533 686 441 686 322 C686 252 672 184 647 134 C639 119 625 102 605 86 C568 55 516 38 455 38 C385 38 331 59 287 103 C243 147 221 229 221 347 C221 436 246 521 285 563 C324 605 383 628 454 628 L454 628 Z M522 729 L555 729 L455 877 L276 877 L276 869 L522 729 Z " />
<glyph glyph-name="Oacute" unicode="&#xd3;" horiz-adv-x="908" d="M459 679 C336 679 234 646 158 580 C89 520 47 427 47 331 C47 250 77 172 132 110 C202 32 320 -13 457 -13 C570 -13 682 25 750 86 C820 149 860 238 860 332 C860 533 692 679 459 679 L459 679 Z M454 628 C513 628 571 609 608 576 C658 533 686 441 686 322 C686 252 672 184 647 134 C639 119 625 102 605 86 C568 55 516 38 455 38 C385 38 331 59 287 103 C243 147 221 229 221 347 C221 436 246 521 285 563 C324 605 383 628 454 628 L454 628 Z M395 729 L428 729 L674 869 L674 877 L495 877 L395 729 Z " />
<glyph glyph-name="Ocircumflex" unicode="&#xd4;" horiz-adv-x="908" d="M459 679 C336 679 234 646 158 580 C89 520 47 427 47 331 C47 250 77 172 132 110 C202 32 320 -13 457 -13 C570 -13 682 25 750 86 C820 149 860 238 860 332 C860 533 692 679 459 679 L459 679 Z M454 628 C513 628 571 609 608 576 C658 533 686 441 686 322 C686 252 672 184 647 134 C639 119 625 102 605 86 C568 55 516 38 455 38 C385 38 331 59 287 103 C243 147 221 229 221 347 C221 436 246 521 285 563 C324 605 383 628 454 628 L454 628 Z M380 879 L272 729 L304 729 L450 817 L615 729 L647 729 L537 879 L380 879 Z " />
<glyph glyph-name="Otilde" unicode="&#xd5;" horiz-adv-x="908" d="M459 679 C336 679 234 646 158 580 C89 520 47 427 47 331 C47 250 77 172 132 110 C202 32 320 -13 457 -13 C570 -13 682 25 750 86 C820 149 860 238 860 332 C860 533 692 679 459 679 L459 679 Z M454 628 C513 628 571 609 608 576 C658 533 686 441 686 322 C686 252 672 184 647 134 C639 119 625 102 605 86 C568 55 516 38 455 38 C385 38 331 59 287 103 C243 147 221 229 221 347 C221 436 246 521 285 563 C324 605 383 628 454 628 L454 628 Z M304 726 C304 756 324 779 352 779 C367 779 387 773 419 758 C471 735 507 725 542 725 C603 725 646 775 646 845 L645 861 L612 861 C606 826 590 806 567 806 C550 806 522 814 491 829 C447 849 406 861 377 861 C313 861 270 812 270 740 L270 726 L304 726 Z " />
<glyph glyph-name="Odieresis" unicode="&#xd6;" horiz-adv-x="908" d="M459 679 C336 679 234 646 158 580 C89 520 47 427 47 331 C47 250 77 172 132 110 C202 32 320 -13 457 -13 C570 -13 682 25 750 86 C820 149 860 238 860 332 C860 533 692 679 459 679 L459 679 Z M454 628 C513 628 571 609 608 576 C658 533 686 441 686 322 C686 252 672 184 647 134 C639 119 625 102 605 86 C568 55 516 38 455 38 C385 38 331 59 287 103 C243 147 221 229 221 347 C221 436 246 521 285 563 C324 605 383 628 454 628 L454 628 Z M306 861 C268 861 238 831 238 793 C238 756 269 725 305 725 C344 725 374 755 374 793 C374 831 344 861 306 861 L306 861 Z M601 861 C564 861 533 830 533 794 C533 755 563 725 601 725 C638 725 669 756 669 793 C669 831 639 861 601 861 L601 861 Z " />
<glyph glyph-name="multiply" unicode="&#xd7;" horiz-adv-x="550" d="M111 560 L54 508 L218 361 L52 211 L111 157 L276 308 L439 159 L496 210 L332 359 L498 508 L438 562 L274 412 L111 560 Z " />
<glyph glyph-name="Oslash" unicode="&#xd8;" horiz-adv-x="912" d="M214 45 C290 5 367 -13 458 -13 C694 -13 862 130 862 332 C862 434 818 526 738 591 L794 650 L758 679 L700 618 C633 657 542 679 452 679 C218 679 49 534 49 332 C49 230 93 138 175 71 L121 15 L158 -13 L214 45 Z M657 507 C678 454 688 392 688 325 C688 229 667 150 630 109 C589 62 531 38 458 38 C382 38 326 62 280 114 L657 507 Z M255 154 C234 201 223 266 223 341 C223 441 251 530 297 572 C335 608 393 628 456 628 C533 628 592 602 633 549 L255 154 Z " />
<glyph glyph-name="Ugrave" unicode="&#xd9;" horiz-adv-x="853" d="M583 667 L583 623 L589 623 C661 620 690 588 688 511 L688 286 C688 189 682 159 659 128 C617 74 553 44 477 44 C401 44 339 74 310 124 C292 156 286 194 286 275 L286 521 C287 605 304 623 380 623 L393 623 L393 667 L20 667 L20 623 L31 623 C107 624 125 605 126 521 L125 254 C125 156 145 106 202 58 C257 12 336 -13 429 -13 C522 -13 611 14 662 58 C711 101 738 173 738 260 L738 519 C736 585 760 613 825 623 L832 623 L832 667 L583 667 Z M526 729 L559 729 L459 877 L280 877 L280 869 L526 729 Z " />
<glyph glyph-name="Uacute" unicode="&#xda;" horiz-adv-x="853" d="M583 667 L583 623 L589 623 C661 620 690 588 688 511 L688 286 C688 189 682 159 659 128 C617 74 553 44 477 44 C401 44 339 74 310 124 C292 156 286 194 286 275 L286 521 C287 605 304 623 380 623 L393 623 L393 667 L20 667 L20 623 L31 623 C107 624 125 605 126 521 L125 254 C125 156 145 106 202 58 C257 12 336 -13 429 -13 C522 -13 611 14 662 58 C711 101 738 173 738 260 L738 519 C736 585 760 613 825 623 L832 623 L832 667 L583 667 Z M429 729 L462 729 L708 869 L708 877 L529 877 L429 729 Z " />
<glyph glyph-name="Ucircumflex" unicode="&#xdb;" horiz-adv-x="853" d="M583 667 L583 623 L589 623 C661 620 690 588 688 511 L688 286 C688 189 682 159 659 128 C617 74 553 44 477 44 C401 44 339 74 310 124 C292 156 286 194 286 275 L286 521 C287 605 304 623 380 623 L393 623 L393 667 L20 667 L20 623 L31 623 C107 624 125 605 126 521 L125 254 C125 156 145 106 202 58 C257 12 336 -13 429 -13 C522 -13 611 14 662 58 C711 101 738 173 738 260 L738 519 C736 585 760 613 825 623 L832 623 L832 667 L583 667 Z M380 879 L272 729 L304 729 L450 817 L615 729 L647 729 L537 879 L380 879 Z " />
<glyph glyph-name="Udieresis" unicode="&#xdc;" horiz-adv-x="853" d="M583 667 L583 623 L589 623 C661 620 690 588 688 511 L688 286 C688 189 682 159 659 128 C617 74 553 44 477 44 C401 44 339 74 310 124 C292 156 286 194 286 275 L286 521 C287 605 304 623 380 623 L393 623 L393 667 L20 667 L20 623 L31 623 C107 624 125 605 126 521 L125 254 C125 156 145 106 202 58 C257 12 336 -13 429 -13 C522 -13 611 14 662 58 C711 101 738 173 738 260 L738 519 C736 585 760 613 825 623 L832 623 L832 667 L583 667 Z M310 861 C272 861 242 831 242 793 C242 756 273 725 309 725 C348 725 378 755 378 793 C378 831 348 861 310 861 L310 861 Z M605 861 C568 861 537 830 537 794 C537 755 567 725 605 725 C642 725 673 756 673 793 C673 831 643 861 605 861 L605 861 Z " />
<glyph glyph-name="Yacute" unicode="&#xdd;" horiz-adv-x="728" d="M420 332 L288 541 C270 570 265 581 265 592 C265 613 285 623 324 623 L330 623 L330 667 L-14 667 L-14 623 L-7 623 C39 621 58 606 105 535 L290 267 L290 149 C290 69 267 44 194 44 L181 44 L181 0 L547 0 L547 44 L536 44 C462 43 439 68 439 149 L439 277 L604 512 C661 597 684 616 736 623 L742 623 L742 667 L494 667 L494 623 L500 623 C545 623 571 606 571 576 C571 560 562 539 546 515 L420 332 Z M354 729 L387 729 L633 869 L633 877 L454 877 L354 729 Z " />
<glyph glyph-name="Thorn" unicode="&#xde;" horiz-adv-x="709" d="M411 667 L31 667 L31 623 L48 623 C125 624 145 604 146 521 L146 149 C146 69 123 44 50 44 L34 44 L34 0 L411 0 L411 44 L390 44 C311 46 293 64 294 138 L294 148 L361 148 L385 148 C465 148 524 156 567 174 C638 203 679 261 679 333 C679 402 642 455 572 487 C520 512 458 520 327 520 C325 520 308 520 294 519 C293 602 313 623 390 623 L411 623 L411 667 Z M294 196 L294 472 C303 473 307 473 321 473 C394 473 428 467 459 449 C497 428 519 384 519 332 C519 280 499 240 463 219 C436 203 396 196 338 196 L294 196 Z " />
<glyph glyph-name="germandbls" unicode="&#xdf;" horiz-adv-x="648" d="M96 125 C96 60 81 43 24 42 L17 42 L17 0 L285 0 L285 42 L280 42 C235 44 227 56 225 118 L225 479 C225 534 226 546 229 562 C239 612 273 635 334 635 C407 635 445 593 445 511 C445 461 428 423 399 408 C379 397 347 390 320 390 L316 390 L316 348 C367 348 400 338 424 316 C460 284 471 236 471 121 C471 61 455 32 423 32 C404 32 388 43 381 61 C373 79 367 84 353 84 C336 84 323 72 323 57 C323 19 366 -8 425 -8 C532 -8 608 68 608 175 C608 277 543 346 423 371 C519 394 574 448 574 519 C574 616 482 678 338 678 C250 678 189 657 147 613 C110 573 96 521 96 427 L96 125 Z " />
<glyph glyph-name="agrave" unicode="&#xe0;" horiz-adv-x="587" d="M543 84 C538 61 525 49 507 49 C485 49 476 65 476 108 L476 287 C476 334 472 349 452 371 C422 403 368 419 286 419 C212 419 153 407 113 383 C76 362 58 340 58 316 C58 290 82 272 115 272 C151 272 172 288 179 323 C183 341 188 352 194 358 C205 368 232 375 259 375 C286 375 313 368 326 357 C339 347 344 329 344 298 L344 267 L300 251 C279 244 263 238 252 234 C172 207 110 177 73 146 C55 132 42 104 42 80 C42 26 93 -10 167 -10 C227 -10 290 10 350 49 C369 9 406 -10 462 -10 C534 -10 578 25 581 84 L543 84 Z M344 93 C308 65 270 50 238 50 C201 50 170 76 170 107 C170 123 181 143 196 155 C229 181 248 190 344 223 L344 93 Z M381 488 L301 649 L148 649 L148 642 L347 488 L381 488 Z " />
<glyph glyph-name="aacute" unicode="&#xe1;" horiz-adv-x="587" d="M543 84 C538 61 525 49 507 49 C485 49 476 65 476 108 L476 287 C476 334 472 349 452 371 C422 403 368 419 286 419 C212 419 153 407 113 383 C76 362 58 340 58 316 C58 290 82 272 115 272 C151 272 172 288 179 323 C183 341 188 352 194 358 C205 368 232 375 259 375 C286 375 313 368 326 357 C339 347 344 329 344 298 L344 267 L300 251 C279 244 263 238 252 234 C172 207 110 177 73 146 C55 132 42 104 42 80 C42 26 93 -10 167 -10 C227 -10 290 10 350 49 C369 9 406 -10 462 -10 C534 -10 578 25 581 84 L543 84 Z M344 93 C308 65 270 50 238 50 C201 50 170 76 170 107 C170 123 181 143 196 155 C229 181 248 190 344 223 L344 93 Z M254 488 L287 488 L486 642 L486 649 L334 649 L254 488 Z " />
<glyph glyph-name="acircumflex" unicode="&#xe2;" horiz-adv-x="587" d="M543 84 C538 61 525 49 507 49 C485 49 476 65 476 108 L476 287 C476 334 472 349 452 371 C422 403 368 419 286 419 C212 419 153 407 113 383 C76 362 58 340 58 316 C58 290 82 272 115 272 C151 272 172 288 179 323 C183 341 188 352 194 358 C205 368 232 375 259 375 C286 375 313 368 326 357 C339 347 344 329 344 298 L344 267 L300 251 C279 244 263 238 252 234 C172 207 110 177 73 146 C55 132 42 104 42 80 C42 26 93 -10 167 -10 C227 -10 290 10 350 49 C369 9 406 -10 462 -10 C534 -10 578 25 581 84 L543 84 Z M344 93 C308 65 270 50 238 50 C201 50 170 76 170 107 C170 123 181 143 196 155 C229 181 248 190 344 223 L344 93 Z M405 489 L440 489 L354 652 L250 652 L160 489 L193 489 L297 578 L405 489 Z " />
<glyph glyph-name="atilde" unicode="&#xe3;" horiz-adv-x="587" d="M543 84 C538 61 525 49 507 49 C485 49 476 65 476 108 L476 287 C476 334 472 349 452 371 C422 403 368 419 286 419 C212 419 153 407 113 383 C76 362 58 340 58 316 C58 290 82 272 115 272 C151 272 172 288 179 323 C183 341 188 352 194 358 C205 368 232 375 259 375 C286 375 313 368 326 357 C339 347 344 329 344 298 L344 267 L300 251 C279 244 263 238 252 234 C172 207 110 177 73 146 C55 132 42 104 42 80 C42 26 93 -10 167 -10 C227 -10 290 10 350 49 C369 9 406 -10 462 -10 C534 -10 578 25 581 84 L543 84 Z M344 93 C308 65 270 50 238 50 C201 50 170 76 170 107 C170 123 181 143 196 155 C229 181 248 190 344 223 L344 93 Z M163 503 C169 535 182 550 207 550 C223 550 239 544 273 526 C307 509 326 503 347 503 C406 503 442 551 442 629 L442 635 L411 635 C409 600 393 582 366 582 C352 582 340 586 318 598 C274 621 252 629 227 629 C197 629 165 611 151 587 C139 564 134 540 133 503 L163 503 Z " />
<glyph glyph-name="adieresis" unicode="&#xe4;" horiz-adv-x="587" d="M543 84 C538 61 525 49 507 49 C485 49 476 65 476 108 L476 287 C476 334 472 349 452 371 C422 403 368 419 286 419 C212 419 153 407 113 383 C76 362 58 340 58 316 C58 290 82 272 115 272 C151 272 172 288 179 323 C183 341 188 352 194 358 C205 368 232 375 259 375 C286 375 313 368 326 357 C339 347 344 329 344 298 L344 267 L300 251 C279 244 263 238 252 234 C172 207 110 177 73 146 C55 132 42 104 42 80 C42 26 93 -10 167 -10 C227 -10 290 10 350 49 C369 9 406 -10 462 -10 C534 -10 578 25 581 84 L543 84 Z M344 93 C308 65 270 50 238 50 C201 50 170 76 170 107 C170 123 181 143 196 155 C229 181 248 190 344 223 L344 93 Z M164 633 C131 633 104 606 104 573 C104 540 131 513 163 513 C197 513 224 539 224 573 C224 606 197 633 164 633 L164 633 Z M404 633 C371 633 344 606 344 573 C344 540 371 513 403 513 C437 513 464 539 464 573 C464 606 437 633 404 633 L404 633 Z " />
<glyph glyph-name="aring" unicode="&#xe5;" horiz-adv-x="587" d="M543 84 C538 61 525 49 507 49 C485 49 476 65 476 108 L476 287 C476 334 472 349 452 371 C422 403 368 419 286 419 C212 419 153 407 113 383 C76 362 58 340 58 316 C58 290 82 272 115 272 C151 272 172 288 179 323 C183 341 188 352 194 358 C205 368 232 375 259 375 C286 375 313 368 326 357 C339 347 344 329 344 298 L344 267 L300 251 C279 244 263 238 252 234 C172 207 110 177 73 146 C55 132 42 104 42 80 C42 26 93 -10 167 -10 C227 -10 290 10 350 49 C369 9 406 -10 462 -10 C534 -10 578 25 581 84 L543 84 Z M344 93 C308 65 270 50 238 50 C201 50 170 76 170 107 C170 123 181 143 196 155 C229 181 248 190 344 223 L344 93 Z M298 682 C239 682 191 634 191 575 C191 518 239 469 296 469 C357 469 405 516 405 576 C405 634 357 682 298 682 L298 682 Z M298 643 C335 643 366 613 366 576 C366 538 335 508 297 508 C260 508 230 538 230 576 C230 613 261 643 298 643 L298 643 Z " />
<glyph glyph-name="ae" unicode="&#xe6;" horiz-adv-x="789" d="M696 99 C667 61 623 39 577 39 C500 39 457 100 457 210 L457 226 L751 226 C741 345 659 419 537 419 C491 419 452 408 419 386 C416 388 408 391 394 396 C350 414 319 419 261 419 C142 419 49 374 49 317 C49 293 73 275 105 275 C138 275 161 294 168 326 C172 349 172 349 178 355 C188 368 211 376 237 376 C269 376 293 365 304 346 C312 332 314 321 314 291 L314 266 C114 203 40 153 40 82 C40 31 95 -11 162 -11 C222 -11 287 17 346 67 C391 16 457 -11 538 -11 C627 -11 700 22 737 79 L696 99 Z M457 266 C460 336 488 376 535 376 C570 376 596 354 606 318 C610 301 611 294 613 266 L457 266 Z M314 96 C288 69 256 53 227 53 C192 53 164 79 164 112 C164 156 206 187 314 222 L314 96 Z " />
<glyph glyph-name="ccedilla" unicode="&#xe7;" horiz-adv-x="521" d="M297 -16 C398 -11 470 31 495 101 L450 116 C427 63 381 36 315 36 C221 36 177 94 177 219 C177 324 216 376 296 376 C330 376 346 366 352 340 C365 292 383 274 422 274 C455 274 481 297 481 327 C481 381 411 419 311 419 C155 419 38 323 38 194 C38 79 127 -4 262 -15 C256 -56 252 -77 246 -100 C281 -102 302 -118 302 -142 C302 -165 283 -179 253 -179 C232 -179 215 -176 188 -169 C186 -186 185 -189 182 -205 C205 -213 225 -217 249 -217 C324 -217 373 -182 373 -129 C373 -84 343 -55 292 -49 C295 -32 296 -28 297 -19 L297 -16 Z " />
<glyph glyph-name="egrave" unicode="&#xe8;" horiz-adv-x="538" d="M448 100 C418 58 373 34 321 34 C235 34 190 92 190 202 C190 206 190 216 191 227 L500 227 L500 234 C500 343 410 419 281 419 C142 419 40 327 40 202 C40 76 144 -16 286 -16 C374 -16 454 22 490 81 L448 100 Z M194 266 C200 312 204 328 217 346 C228 364 254 376 279 376 C329 376 351 346 358 266 L194 266 Z M382 488 L302 649 L149 649 L149 642 L349 488 L382 488 Z " />
<glyph glyph-name="eacute" unicode="&#xe9;" horiz-adv-x="538" d="M448 100 C418 58 373 34 321 34 C235 34 190 92 190 202 C190 206 190 216 191 227 L500 227 L500 234 C500 343 410 419 281 419 C142 419 40 327 40 202 C40 76 144 -16 286 -16 C374 -16 454 22 490 81 L448 100 Z M194 266 C200 312 204 328 217 346 C228 364 254 376 279 376 C329 376 351 346 358 266 L194 266 Z M257 488 L290 488 L489 642 L489 649 L337 649 L257 488 Z " />
<glyph glyph-name="ecircumflex" unicode="&#xea;" horiz-adv-x="538" d="M448 100 C418 58 373 34 321 34 C235 34 190 92 190 202 C190 206 190 216 191 227 L500 227 L500 234 C500 343 410 419 281 419 C142 419 40 327 40 202 C40 76 144 -16 286 -16 C374 -16 454 22 490 81 L448 100 Z M194 266 C200 312 204 328 217 346 C228 364 254 376 279 376 C329 376 351 346 358 266 L194 266 Z M400 489 L435 489 L349 652 L244 652 L155 489 L188 489 L292 578 L400 489 Z " />
<glyph glyph-name="edieresis" unicode="&#xeb;" horiz-adv-x="538" d="M448 100 C418 58 373 34 321 34 C235 34 190 92 190 202 C190 206 190 216 191 227 L500 227 L500 234 C500 343 410 419 281 419 C142 419 40 327 40 202 C40 76 144 -16 286 -16 C374 -16 454 22 490 81 L448 100 Z M194 266 C200 312 204 328 217 346 C228 364 254 376 279 376 C329 376 351 346 358 266 L194 266 Z M169 633 C136 633 109 606 109 573 C109 540 136 513 168 513 C202 513 229 539 229 573 C229 606 202 633 169 633 L169 633 Z M409 633 C376 633 349 606 349 573 C349 540 376 513 408 513 C442 513 469 539 469 573 C469 606 442 633 409 633 L409 633 Z " />
<glyph glyph-name="igrave" unicode="&#xec;" horiz-adv-x="331" d="M237 419 L230 419 C197 411 63 390 18 386 L18 343 L32 343 C88 343 103 327 103 263 L103 125 C101 56 89 43 33 42 L18 42 L18 0 L318 0 L318 42 L311 42 C255 43 240 59 237 125 L237 419 Z M261 488 L181 649 L28 649 L28 642 L228 488 L261 488 Z " />
<glyph glyph-name="iacute" unicode="&#xed;" horiz-adv-x="331" d="M237 419 L230 419 C197 411 63 390 18 386 L18 343 L32 343 C88 343 103 327 103 263 L103 125 C101 56 89 43 33 42 L18 42 L18 0 L318 0 L318 42 L311 42 C255 43 240 59 237 125 L237 419 Z M142 488 L176 488 L374 642 L374 649 L222 649 L142 488 Z " />
<glyph glyph-name="icircumflex" unicode="&#xee;" horiz-adv-x="331" d="M237 419 L230 419 C197 411 63 390 18 386 L18 343 L32 343 C88 343 103 327 103 263 L103 125 C101 56 89 43 33 42 L18 42 L18 0 L318 0 L318 42 L311 42 C255 43 240 59 237 125 L237 419 Z M268 489 L304 489 L217 652 L113 652 L24 489 L57 489 L161 578 L268 489 Z " />
<glyph glyph-name="idieresis" unicode="&#xef;" horiz-adv-x="331" d="M236 419 L229 419 C196 411 62 390 17 386 L17 343 L31 343 C87 343 102 327 102 263 L102 125 C100 56 88 43 32 42 L17 42 L17 0 L317 0 L317 42 L310 42 C254 43 239 59 236 125 L236 419 Z M72 633 C39 633 12 606 12 573 C12 540 39 513 71 513 C105 513 132 539 132 573 C132 606 105 633 72 633 L72 633 Z M262 633 C229 633 202 606 202 573 C202 540 229 513 261 513 C295 513 322 539 322 573 C322 606 295 633 262 633 L262 633 Z " />
<glyph glyph-name="eth" unicode="&#xf0;" horiz-adv-x="598" d="M163 616 C207 592 214 588 252 560 L134 504 L155 466 L289 529 C329 493 367 437 381 396 C354 414 334 419 295 419 C147 419 40 328 40 202 C40 75 146 -14 296 -14 C459 -14 557 79 557 233 C557 363 503 472 387 576 L480 620 L458 657 L349 606 C308 635 271 655 220 678 L163 616 Z M300 374 C378 374 417 320 417 210 C417 87 379 30 297 30 C216 30 179 85 179 204 C179 320 217 374 300 374 L300 374 Z " />
<glyph glyph-name="ntilde" unicode="&#xf1;" horiz-adv-x="642" d="M216 412 C185 405 178 404 34 382 L24 380 L24 338 L30 338 C83 338 100 320 104 259 L104 125 C102 58 88 43 31 42 L26 42 L26 0 L300 0 L300 42 L295 42 C245 45 235 58 233 125 L233 283 C275 332 311 353 353 353 C395 353 421 328 421 288 L421 125 C419 59 409 46 361 43 L353 42 L353 0 L629 0 L629 42 L623 42 C568 43 555 58 552 125 L552 260 C552 312 548 333 535 356 C513 394 461 419 403 419 C340 419 280 393 235 346 C234 375 231 396 224 412 L216 412 Z M208 503 C213 535 227 550 252 550 C268 550 284 544 318 526 C352 509 371 503 392 503 C451 503 487 551 487 629 L487 635 L456 635 C454 600 438 582 411 582 C397 582 385 586 363 598 C319 621 297 629 272 629 C242 629 209 611 196 587 C184 564 179 540 178 503 L208 503 Z " />
<glyph glyph-name="ograve" unicode="&#xf2;" horiz-adv-x="599" d="M40 200 C40 72 146 -16 301 -16 C450 -16 558 76 558 203 C558 329 449 419 297 419 C149 419 40 327 40 203 L40 200 Z M299 375 C344 375 381 357 398 328 C412 303 419 263 419 202 C419 77 385 27 301 27 C251 27 216 47 197 86 C186 109 179 158 179 218 C179 328 215 375 299 375 L299 375 Z M384 488 L304 649 L151 649 L151 642 L350 488 L384 488 Z " />
<glyph glyph-name="oacute" unicode="&#xf3;" horiz-adv-x="599" d="M40 200 C40 72 146 -16 301 -16 C450 -16 558 76 558 203 C558 329 449 419 297 419 C149 419 40 327 40 203 L40 200 Z M299 375 C344 375 381 357 398 328 C412 303 419 263 419 202 C419 77 385 27 301 27 C251 27 216 47 197 86 C186 109 179 158 179 218 C179 328 215 375 299 375 L299 375 Z M273 488 L307 488 L505 642 L505 649 L353 649 L273 488 Z " />
<glyph glyph-name="ocircumflex" unicode="&#xf4;" horiz-adv-x="599" d="M40 200 C40 72 146 -16 301 -16 C450 -16 558 76 558 203 C558 329 449 419 297 419 C149 419 40 327 40 203 L40 200 Z M299 375 C344 375 381 357 398 328 C412 303 419 263 419 202 C419 77 385 27 301 27 C251 27 216 47 197 86 C186 109 179 158 179 218 C179 328 215 375 299 375 L299 375 Z M408 489 L443 489 L357 652 L252 652 L163 489 L196 489 L300 578 L408 489 Z " />
<glyph glyph-name="otilde" unicode="&#xf5;" horiz-adv-x="599" d="M40 200 C40 72 146 -16 301 -16 C450 -16 558 76 558 203 C558 329 449 419 297 419 C149 419 40 327 40 203 L40 200 Z M299 375 C344 375 381 357 398 328 C412 303 419 263 419 202 C419 77 385 27 301 27 C251 27 216 47 197 86 C186 109 179 158 179 218 C179 328 215 375 299 375 L299 375 Z M180 503 C186 535 200 550 224 550 C240 550 256 544 291 526 C324 509 343 503 364 503 C402 503 430 523 447 560 C454 576 457 592 459 635 L429 635 C427 600 411 582 383 582 C370 582 358 586 336 598 C292 621 270 629 244 629 C214 629 182 611 169 587 C156 564 151 540 151 503 L180 503 Z " />
<glyph glyph-name="odieresis" unicode="&#xf6;" horiz-adv-x="599" d="M40 200 C40 72 146 -16 301 -16 C450 -16 558 76 558 203 C558 329 449 419 297 419 C149 419 40 327 40 203 L40 200 Z M299 375 C344 375 381 357 398 328 C412 303 419 263 419 202 C419 77 385 27 301 27 C251 27 216 47 197 86 C186 109 179 158 179 218 C179 328 215 375 299 375 L299 375 Z M185 633 C152 633 125 606 125 573 C125 540 152 513 184 513 C218 513 245 539 245 573 C245 606 218 633 185 633 L185 633 Z M426 633 C393 633 366 606 366 573 C366 540 393 513 425 513 C459 513 486 539 486 573 C486 606 459 633 426 633 L426 633 Z " />
<glyph glyph-name="divide" unicode="&#xf7;" horiz-adv-x="550" d="M10 396 L10 323 L540 323 L540 396 L10 396 Z M276 248 C230 248 192 213 192 171 C192 129 230 94 275 94 C323 94 361 128 361 171 C361 214 323 248 276 248 L276 248 Z M277 622 C231 622 192 588 192 547 C192 503 229 469 277 469 C323 469 361 503 361 546 C361 588 323 622 277 622 L277 622 Z " />
<glyph glyph-name="oslash" unicode="&#xf8;" horiz-adv-x="599" d="M152 18 C199 -5 248 -16 301 -16 C450 -16 558 76 558 203 C558 268 531 323 480 362 L527 411 L493 439 L441 385 C396 408 347 419 296 419 C149 419 40 327 40 203 L40 200 C40 135 66 81 114 43 L66 -7 L101 -35 L152 18 Z M412 290 C417 262 419 234 419 201 C419 76 385 27 300 27 C257 27 224 43 204 73 L412 290 Z M187 119 C182 143 179 178 179 217 C179 274 191 322 210 342 C229 363 262 375 298 375 C340 375 374 361 393 335 L187 119 Z " />
<glyph glyph-name="ugrave" unicode="&#xf9;" horiz-adv-x="629" d="M533 403 L333 403 L333 361 L339 361 C393 360 402 348 404 279 L404 145 C399 132 398 129 398 127 C383 86 332 51 284 51 C267 51 251 57 238 68 C224 79 219 97 219 134 L219 403 L15 403 L15 361 L20 361 C74 360 87 344 90 279 L90 130 C90 88 94 68 106 47 C128 9 181 -16 238 -16 C302 -16 359 11 404 63 C404 34 405 18 410 -16 L415 -16 C448 -7 547 1 611 0 L611 42 L607 42 C551 43 536 60 533 125 L533 403 Z M407 488 L327 649 L174 649 L174 642 L373 488 L407 488 Z " />
<glyph glyph-name="uacute" unicode="&#xfa;" horiz-adv-x="629" d="M533 403 L333 403 L333 361 L339 361 C393 360 402 348 404 279 L404 145 C399 132 398 129 398 127 C383 86 332 51 284 51 C267 51 251 57 238 68 C224 79 219 97 219 134 L219 403 L15 403 L15 361 L20 361 C74 360 87 344 90 279 L90 130 C90 88 94 68 106 47 C128 9 181 -16 238 -16 C302 -16 359 11 404 63 C404 34 405 18 410 -16 L415 -16 C448 -7 547 1 611 0 L611 42 L607 42 C551 43 536 60 533 125 L533 403 Z M283 488 L317 488 L515 642 L515 649 L363 649 L283 488 Z " />
<glyph glyph-name="ucircumflex" unicode="&#xfb;" horiz-adv-x="629" d="M533 403 L333 403 L333 361 L339 361 C393 360 402 348 404 279 L404 145 C399 132 398 129 398 127 C383 86 332 51 284 51 C267 51 251 57 238 68 C224 79 219 97 219 134 L219 403 L15 403 L15 361 L20 361 C74 360 87 344 90 279 L90 130 C90 88 94 68 106 47 C128 9 181 -16 238 -16 C302 -16 359 11 404 63 C404 34 405 18 410 -16 L415 -16 C448 -7 547 1 611 0 L611 42 L607 42 C551 43 536 60 533 125 L533 403 Z M422 489 L457 489 L371 652 L267 652 L177 489 L211 489 L315 578 L422 489 Z " />
<glyph glyph-name="udieresis" unicode="&#xfc;" horiz-adv-x="629" d="M533 403 L333 403 L333 361 L339 361 C393 360 402 348 404 279 L404 145 C399 132 398 129 398 127 C383 86 332 51 284 51 C267 51 251 57 238 68 C224 79 219 97 219 134 L219 403 L15 403 L15 361 L20 361 C74 360 87 344 90 279 L90 130 C90 88 94 68 106 47 C128 9 181 -16 238 -16 C302 -16 359 11 404 63 C404 34 405 18 410 -16 L415 -16 C448 -7 547 1 611 0 L611 42 L607 42 C551 43 536 60 533 125 L533 403 Z M200 633 C167 633 140 606 140 573 C140 540 167 513 199 513 C233 513 260 539 260 573 C260 606 233 633 200 633 L200 633 Z M440 633 C407 633 380 606 380 573 C380 540 407 513 439 513 C473 513 500 539 500 573 C500 606 473 633 440 633 L440 633 Z " />
<glyph glyph-name="yacute" unicode="&#xfd;" horiz-adv-x="553" d="M-6 403 L-6 361 L2 361 C31 360 46 346 76 293 L261 -15 L239 -65 C218 -106 200 -118 132 -135 C86 -147 64 -166 64 -196 C64 -227 92 -250 130 -250 C181 -250 217 -217 262 -128 L454 251 C494 337 507 353 543 360 L550 361 L550 403 L389 403 L389 361 L398 361 C417 361 439 348 438 337 C438 329 431 311 418 286 L335 118 L228 301 C221 313 216 328 216 338 C216 353 225 359 249 361 L256 361 L256 403 L-6 403 Z M269 488 L303 488 L501 642 L501 649 L350 649 L269 488 Z " />
<glyph glyph-name="thorn" unicode="&#xfe;" horiz-adv-x="644" d="M211 678 C178 670 125 661 9 644 L9 602 L17 602 C74 602 89 585 92 520 L92 -116 C89 -183 75 -198 17 -199 L9 -199 L9 -241 L310 -241 L310 -199 L295 -199 C238 -198 224 -182 221 -116 L221 42 C274 1 319 -16 377 -16 C508 -16 604 78 604 207 C604 329 513 419 389 419 C326 419 269 396 219 350 L219 678 L211 678 Z M221 295 C257 340 297 361 345 361 C388 361 425 341 444 307 C458 282 465 248 465 202 C465 155 459 123 446 101 C426 65 384 42 341 42 C298 42 256 59 221 92 L221 295 Z " />
<glyph glyph-name="ydieresis" unicode="&#xff;" horiz-adv-x="553" d="M-6 403 L-6 361 L2 361 C31 360 46 346 76 293 L261 -15 L239 -65 C218 -106 200 -118 132 -135 C86 -147 64 -166 64 -196 C64 -227 92 -250 130 -250 C181 -250 217 -217 262 -128 L454 251 C494 337 507 353 543 360 L550 361 L550 403 L389 403 L389 361 L398 361 C417 361 439 348 438 337 C438 329 431 311 418 286 L335 118 L228 301 C221 313 216 328 216 338 C216 353 225 359 249 361 L256 361 L256 403 L-6 403 Z M180 633 C147 633 120 606 120 573 C120 540 147 513 179 513 C213 513 240 539 240 573 C240 606 213 633 180 633 L180 633 Z M420 633 C387 633 360 606 360 573 C360 540 387 513 419 513 C453 513 480 539 480 573 C480 606 453 633 420 633 L420 633 Z " />
<glyph glyph-name="Amacron" unicode="&#x100;" horiz-adv-x="723" d="M737 0 L737 44 L731 44 C678 50 663 66 620 157 L385 678 L336 678 L110 170 C74 86 42 51 -7 44 L-15 44 L-15 0 L219 0 L219 44 L211 44 C169 44 141 63 141 91 C141 107 145 120 167 170 L181 202 L425 202 L452 144 C471 102 477 86 477 75 C477 53 456 44 406 44 L399 44 L399 0 L737 0 Z M406 247 L200 247 L302 475 L406 247 Z M178 810 L178 758 L544 758 L544 810 L178 810 Z " />
<glyph glyph-name="amacron" unicode="&#x101;" horiz-adv-x="587" d="M543 84 C538 61 525 49 507 49 C485 49 476 65 476 108 L476 287 C476 334 472 349 452 371 C422 403 368 419 286 419 C212 419 153 407 113 383 C76 362 58 340 58 316 C58 290 82 272 115 272 C151 272 172 288 179 323 C183 341 188 352 194 358 C205 368 232 375 259 375 C286 375 313 368 326 357 C339 347 344 329 344 298 L344 267 L300 251 C279 244 263 238 252 234 C172 207 110 177 73 146 C55 132 42 104 42 80 C42 26 93 -10 167 -10 C227 -10 290 10 350 49 C369 9 406 -10 462 -10 C534 -10 578 25 581 84 L543 84 Z M344 93 C308 65 270 50 238 50 C201 50 170 76 170 107 C170 123 181 143 196 155 C229 181 248 190 344 223 L344 93 Z M118 541 L445 541 L445 590 L118 590 L118 541 Z " />
<glyph glyph-name="Abreve" unicode="&#x102;" horiz-adv-x="723" d="M737 0 L737 44 L731 44 C678 50 663 66 620 157 L385 678 L336 678 L110 170 C74 86 42 51 -7 44 L-15 44 L-15 0 L219 0 L219 44 L211 44 C169 44 141 63 141 91 C141 107 145 120 167 170 L181 202 L425 202 L452 144 C471 102 477 86 477 75 C477 53 456 44 406 44 L399 44 L399 0 L737 0 Z M406 247 L200 247 L302 475 L406 247 Z M173 880 C200 782 273 720 362 720 C450 720 523 783 548 880 L503 880 C477 835 426 810 360 810 C293 810 249 832 218 880 L173 880 Z " />
<glyph glyph-name="abreve" unicode="&#x103;" horiz-adv-x="587" d="M543 84 C538 61 525 49 507 49 C485 49 476 65 476 108 L476 287 C476 334 472 349 452 371 C422 403 368 419 286 419 C212 419 153 407 113 383 C76 362 58 340 58 316 C58 290 82 272 115 272 C151 272 172 288 179 323 C183 341 188 352 194 358 C205 368 232 375 259 375 C286 375 313 368 326 357 C339 347 344 329 344 298 L344 267 L300 251 C279 244 263 238 252 234 C172 207 110 177 73 146 C55 132 42 104 42 80 C42 26 93 -10 167 -10 C227 -10 290 10 350 49 C369 9 406 -10 462 -10 C534 -10 578 25 581 84 L543 84 Z M344 93 C308 65 270 50 238 50 C201 50 170 76 170 107 C170 123 181 143 196 155 C229 181 248 190 344 223 L344 93 Z M150 648 C155 556 215 489 293 489 C371 489 431 556 435 648 L407 648 C390 596 353 571 295 571 C234 571 193 598 178 648 L150 648 Z " />
<glyph glyph-name="Aogonek" unicode="&#x104;" horiz-adv-x="723" d="M737 0 L737 44 L731 44 C678 50 663 66 620 157 L385 678 L336 678 L110 170 C74 86 42 51 -7 44 L-15 44 L-15 0 L219 0 L219 44 L211 44 C169 44 141 63 141 91 C141 107 145 120 167 170 L181 202 L425 202 L452 144 C471 102 477 86 477 75 C477 53 456 44 406 44 L399 44 L399 0 L583 0 C524 -26 490 -68 490 -112 C490 -169 543 -209 619 -209 C662 -209 695 -199 740 -171 L724 -144 C698 -156 683 -160 663 -160 C616 -160 584 -133 584 -92 C584 -57 597 -31 630 0 L737 0 Z M406 247 L200 247 L302 475 L406 247 Z " />
<glyph glyph-name="aogonek" unicode="&#x105;" horiz-adv-x="587" d="M543 84 C538 61 525 49 507 49 C485 49 476 65 476 108 L476 287 C476 334 472 349 452 371 C422 403 368 419 286 419 C212 419 153 407 113 383 C76 362 58 340 58 316 C58 290 82 272 115 272 C151 272 172 288 179 323 C183 341 188 352 194 358 C205 368 232 375 259 375 C286 375 313 368 326 357 C339 347 344 329 344 298 L344 267 L300 251 C279 244 263 238 252 234 C172 207 110 177 73 146 C55 132 42 104 42 80 C42 26 93 -10 167 -10 C227 -10 290 10 350 49 C364 18 388 1 428 -7 C387 -30 360 -70 360 -107 C360 -156 407 -192 471 -192 C508 -192 535 -183 576 -158 L562 -135 C541 -144 529 -147 513 -147 C471 -147 442 -121 442 -83 C442 -56 452 -31 472 -9 C539 -5 579 29 581 84 L543 84 Z M344 93 C308 65 270 50 238 50 C201 50 170 76 170 107 C170 123 181 143 196 155 C229 181 248 190 344 223 L344 93 Z " />
<glyph glyph-name="Cacute" unicode="&#x106;" horiz-adv-x="810" d="M692 254 C678 190 643 126 605 96 C560 60 500 40 442 40 C360 40 287 79 251 141 C227 184 215 246 215 326 C215 415 228 481 255 529 C291 593 355 628 437 628 C512 628 585 596 625 545 C653 510 671 469 686 412 L733 412 L726 661 L679 661 C673 635 666 615 654 593 C594 649 514 679 421 679 C318 679 225 646 161 588 C89 521 47 425 47 326 C47 130 202 -13 414 -13 C513 -13 600 18 660 76 C676 58 684 40 692 10 L740 10 L740 254 L692 254 Z M381 729 L414 729 L660 869 L660 877 L481 877 L381 729 Z " />
<glyph glyph-name="cacute" unicode="&#x107;" horiz-adv-x="521" d="M450 116 C427 63 381 36 315 36 C221 36 177 94 177 219 C177 324 216 376 296 376 C330 376 346 366 352 340 C365 292 383 274 422 274 C455 274 481 297 481 327 C481 381 411 419 311 419 C155 419 38 323 38 194 C38 71 141 -16 287 -16 C390 -16 466 26 495 101 L450 116 Z M243 488 L276 488 L475 642 L475 649 L323 649 L243 488 Z " />
<glyph glyph-name="Ccircumflex" unicode="&#x108;" horiz-adv-x="810" d="M692 254 C678 190 643 126 605 96 C560 60 500 40 442 40 C360 40 287 79 251 141 C227 184 215 246 215 326 C215 415 228 481 255 529 C291 593 355 628 437 628 C512 628 585 596 625 545 C653 510 671 469 686 412 L733 412 L726 661 L679 661 C673 635 666 615 654 593 C594 649 514 679 421 679 C318 679 225 646 161 588 C89 521 47 425 47 326 C47 130 202 -13 414 -13 C513 -13 600 18 660 76 C676 58 684 40 692 10 L740 10 L740 254 L692 254 Z M350 879 L242 729 L274 729 L420 817 L584 729 L616 729 L506 879 L350 879 Z " />
<glyph glyph-name="Cdotaccent" unicode="&#x10a;" horiz-adv-x="810" d="M692 254 C678 190 643 126 605 96 C560 60 500 40 442 40 C360 40 287 79 251 141 C227 184 215 246 215 326 C215 415 228 481 255 529 C291 593 355 628 437 628 C512 628 585 596 625 545 C653 510 671 469 686 412 L733 412 L726 661 L679 661 C673 635 666 615 654 593 C594 649 514 679 421 679 C318 679 225 646 161 588 C89 521 47 425 47 326 C47 130 202 -13 414 -13 C513 -13 600 18 660 76 C676 58 684 40 692 10 L740 10 L740 254 L692 254 Z M427 861 C389 861 359 831 359 793 C359 756 390 725 426 725 C465 725 495 755 495 793 C495 831 465 861 427 861 L427 861 Z " />
<glyph glyph-name="cdotaccent" unicode="&#x10b;" horiz-adv-x="521" d="M450 116 C427 63 381 36 315 36 C221 36 177 94 177 219 C177 324 216 376 296 376 C330 376 346 366 352 340 C365 292 383 274 422 274 C455 274 481 297 481 327 C481 381 411 419 311 419 C155 419 38 323 38 194 C38 71 141 -16 287 -16 C390 -16 466 26 495 101 L450 116 Z M300 633 C267 633 240 606 240 573 C240 540 267 513 299 513 C333 513 360 539 360 573 C360 606 333 633 300 633 L300 633 Z " />
<glyph glyph-name="Ccaron" unicode="&#x10c;" horiz-adv-x="810" d="M692 254 C678 190 643 126 605 96 C560 60 500 40 442 40 C360 40 287 79 251 141 C227 184 215 246 215 326 C215 415 228 481 255 529 C291 593 355 628 437 628 C512 628 585 596 625 545 C653 510 671 469 686 412 L733 412 L726 661 L679 661 C673 635 666 615 654 593 C594 649 514 679 421 679 C318 679 225 646 161 588 C89 521 47 425 47 326 C47 130 202 -13 414 -13 C513 -13 600 18 660 76 C676 58 684 40 692 10 L740 10 L740 254 L692 254 Z M501 729 L611 879 L579 879 L433 791 L269 879 L237 879 L344 729 L501 729 Z " />
<glyph glyph-name="ccaron" unicode="&#x10d;" horiz-adv-x="521" d="M450 116 C427 63 381 36 315 36 C221 36 177 94 177 219 C177 324 216 376 296 376 C330 376 346 366 352 340 C365 292 383 274 422 274 C455 274 481 297 481 327 C481 381 411 419 311 419 C155 419 38 323 38 194 C38 71 141 -16 287 -16 C390 -16 466 26 495 101 L450 116 Z M187 655 L154 655 L244 491 L349 491 L434 655 L398 655 L299 566 L187 655 Z " />
<glyph glyph-name="Dcaron" unicode="&#x10e;" horiz-adv-x="866" d="M32 622 L45 622 C123 623 145 601 146 519 L146 149 C146 70 121 43 47 44 L31 44 L31 0 L314 0 C473 0 532 5 587 22 C731 67 818 182 818 329 C818 446 759 549 661 603 C572 652 457 672 270 672 C243 672 220 672 182 671 C153 671 149 671 103 669 C77 667 58 666 32 665 L32 622 Z M294 626 C314 627 324 627 341 627 C426 627 476 617 524 589 C610 538 650 454 650 322 C650 229 624 153 576 103 C542 68 470 47 385 47 C312 47 294 72 294 171 L294 626 Z M479 729 L589 879 L558 879 L411 791 L247 879 L215 879 L323 729 L479 729 Z " />
<glyph glyph-name="dcaron" unicode="&#x10f;" horiz-adv-x="753" d="M630 50 L621 50 C565 51 550 68 547 133 L547 678 L540 678 C491 668 423 657 346 647 L346 605 L352 605 C406 603 416 591 418 522 L418 364 C380 398 321 419 259 419 C130 419 40 328 40 198 C40 73 125 -12 248 -12 C312 -12 369 11 419 56 L419 50 C419 27 422 10 429 -12 C480 -2 540 3 630 6 L630 50 Z M418 111 C387 70 342 47 294 47 C218 47 179 100 179 205 C179 310 218 361 300 361 C340 361 376 347 418 315 L418 111 Z M596 436 C686 445 746 504 746 583 C746 641 713 678 660 678 C618 678 588 653 588 619 C588 590 613 566 645 566 C650 566 655 567 661 568 C675 571 675 571 677 571 C686 571 693 562 693 550 C693 514 651 482 596 476 L596 436 Z " />
<glyph glyph-name="Dcroat" unicode="&#x110;" horiz-adv-x="869" d="M149 358 L28 358 L28 306 L149 306 L149 149 C149 70 124 43 50 44 L34 44 L34 0 L317 0 C476 0 535 5 590 22 C734 67 821 182 821 329 C821 446 762 549 664 603 C575 652 460 672 273 672 C246 672 223 672 185 671 C156 671 152 671 106 669 C80 667 61 666 35 665 L35 622 L48 622 C126 623 148 601 149 519 L149 358 Z M297 358 L297 626 C317 627 327 627 343 627 C429 627 479 617 527 589 C613 538 653 454 653 322 C653 228 627 153 579 103 C545 68 472 47 388 47 C315 47 297 72 297 171 L297 306 L462 306 L462 358 L297 358 Z " />
<glyph glyph-name="dcroat" unicode="&#x111;" horiz-adv-x="643" d="M418 490 L418 364 C380 399 321 419 259 419 C130 419 40 329 40 198 C40 73 125 -12 248 -12 C312 -12 369 11 419 56 L419 50 C419 27 422 10 429 -12 C480 -2 540 3 630 6 L630 50 L621 50 C565 51 550 68 547 133 L547 490 L630 490 L630 535 L547 535 L547 678 L540 678 C491 668 421 657 346 647 L346 604 L352 604 C404 603 414 592 418 535 L234 535 L234 490 L418 490 Z M418 111 C387 70 343 47 294 47 C218 47 179 100 179 205 C179 311 218 362 300 362 C340 362 375 348 418 315 L418 111 Z " />
<glyph glyph-name="Emacron" unicode="&#x112;" horiz-adv-x="722" d="M640 215 C605 91 548 45 435 47 L404 47 C313 44 288 70 291 164 L291 327 L367 327 C440 327 457 312 460 243 L460 235 L511 235 L511 462 L460 462 L459 455 C455 386 444 377 365 374 L291 374 L291 621 L421 621 C523 624 559 598 591 496 L640 496 L627 667 L36 667 L36 624 L49 624 C118 625 143 599 143 521 L143 149 C144 70 119 42 46 44 L31 44 L31 0 L681 0 L689 215 L640 215 Z M187 810 L187 758 L554 758 L554 810 L187 810 Z " />
<glyph glyph-name="emacron" unicode="&#x113;" horiz-adv-x="538" d="M448 100 C418 58 373 34 321 34 C235 34 190 92 190 202 C190 206 190 216 191 227 L500 227 L500 234 C500 343 410 419 281 419 C142 419 40 327 40 202 C40 76 144 -16 286 -16 C374 -16 454 22 490 81 L448 100 Z M194 266 C200 312 204 328 217 346 C228 364 254 376 279 376 C329 376 351 346 358 266 L194 266 Z M117 541 L444 541 L444 590 L117 590 L117 541 Z " />
<glyph glyph-name="Ebreve" unicode="&#x114;" horiz-adv-x="722" d="M640 215 C605 91 548 45 435 47 L404 47 C313 44 288 70 291 164 L291 327 L367 327 C440 327 457 312 460 243 L460 235 L511 235 L511 462 L460 462 L459 455 C455 386 444 377 365 374 L291 374 L291 621 L421 621 C523 624 559 598 591 496 L640 496 L627 667 L36 667 L36 624 L49 624 C118 625 143 599 143 521 L143 149 C144 70 119 42 46 44 L31 44 L31 0 L681 0 L689 215 L640 215 Z M182 880 C209 782 282 720 371 720 C459 720 532 783 557 880 L512 880 C486 835 435 810 369 810 C303 810 259 832 228 880 L182 880 Z " />
<glyph glyph-name="ebreve" unicode="&#x115;" horiz-adv-x="538" d="M448 100 C418 58 373 34 321 34 C235 34 190 92 190 202 C190 206 190 216 191 227 L500 227 L500 234 C500 343 410 419 281 419 C142 419 40 327 40 202 C40 76 144 -16 286 -16 C374 -16 454 22 490 81 L448 100 Z M194 266 C200 312 204 328 217 346 C228 364 254 376 279 376 C329 376 351 346 358 266 L194 266 Z M149 648 C154 556 214 489 292 489 C370 489 430 556 434 648 L406 648 C389 596 352 571 294 571 C233 571 192 598 177 648 L149 648 Z " />
<glyph glyph-name="Edotaccent" unicode="&#x116;" horiz-adv-x="722" d="M640 215 C605 91 548 45 435 47 L404 47 C313 44 288 70 291 164 L291 327 L367 327 C440 327 457 312 460 243 L460 235 L511 235 L511 462 L460 462 L459 455 C455 386 444 377 365 374 L291 374 L291 621 L421 621 C523 624 559 598 591 496 L640 496 L627 667 L36 667 L36 624 L49 624 C118 625 143 599 143 521 L143 149 C144 70 119 42 46 44 L31 44 L31 0 L681 0 L689 215 L640 215 Z M370 861 C332 861 302 831 302 793 C302 756 333 725 369 725 C408 725 438 755 438 793 C438 831 408 861 370 861 L370 861 Z " />
<glyph glyph-name="edotaccent" unicode="&#x117;" horiz-adv-x="538" d="M448 100 C418 58 373 34 321 34 C235 34 190 92 190 202 C190 206 190 216 191 227 L500 227 L500 234 C500 343 410 419 281 419 C142 419 40 327 40 202 C40 76 144 -16 286 -16 C374 -16 454 22 490 81 L448 100 Z M194 266 C200 312 204 328 217 346 C228 364 254 376 279 376 C329 376 351 346 358 266 L194 266 Z M291 633 C258 633 231 606 231 573 C231 540 258 513 290 513 C324 513 351 539 351 573 C351 606 324 633 291 633 L291 633 Z " />
<glyph glyph-name="Eogonek" unicode="&#x118;" horiz-adv-x="722" d="M681 0 L689 215 L640 215 C605 91 548 45 435 47 L404 47 C313 44 288 70 291 164 L291 327 L367 327 C440 327 457 312 460 243 L460 235 L511 235 L511 462 L460 462 L459 455 C455 386 444 377 365 374 L291 374 L291 621 L421 621 C523 624 559 598 591 496 L640 496 L627 667 L36 667 L36 624 L49 624 C118 625 143 599 143 521 L143 149 C144 70 119 42 46 44 L31 44 L31 0 L522 0 C462 -26 428 -67 428 -112 C428 -169 481 -209 558 -209 C600 -209 633 -199 678 -171 L662 -144 C636 -156 621 -160 601 -160 C554 -160 522 -133 522 -92 C522 -57 535 -31 569 0 L681 0 Z " />
<glyph glyph-name="eogonek" unicode="&#x119;" horiz-adv-x="538" d="M448 100 C418 58 373 34 321 34 C235 34 190 92 190 202 C190 206 190 216 191 227 L500 227 L500 234 C500 343 410 419 281 419 C142 419 40 327 40 202 C40 77 144 -16 285 -16 C299 -16 309 -15 323 -14 C287 -39 266 -73 266 -107 C266 -156 314 -192 378 -192 C415 -192 442 -183 482 -158 L469 -135 C447 -144 436 -147 419 -147 C378 -147 348 -121 348 -83 C348 -51 361 -26 393 4 C435 21 472 50 490 81 L448 100 Z M194 266 C200 312 204 328 217 346 C228 364 254 376 279 376 C329 376 351 346 358 266 L194 266 Z " />
<glyph glyph-name="Ecaron" unicode="&#x11a;" horiz-adv-x="722" d="M640 215 C605 91 548 45 435 47 L404 47 C313 44 288 70 291 164 L291 327 L367 327 C440 327 457 312 460 243 L460 235 L511 235 L511 462 L460 462 L459 455 C455 386 444 377 365 374 L291 374 L291 621 L421 621 C523 624 559 598 591 496 L640 496 L627 667 L36 667 L36 624 L49 624 C118 625 143 599 143 521 L143 149 C144 70 119 42 46 44 L31 44 L31 0 L681 0 L689 215 L640 215 Z M450 729 L560 879 L529 879 L382 791 L218 879 L186 879 L294 729 L450 729 Z " />
<glyph glyph-name="ecaron" unicode="&#x11b;" horiz-adv-x="538" d="M448 100 C418 58 373 34 321 34 C235 34 190 92 190 202 C190 206 190 216 191 227 L500 227 L500 234 C500 343 410 419 281 419 C142 419 40 327 40 202 C40 76 144 -16 286 -16 C374 -16 454 22 490 81 L448 100 Z M194 266 C200 312 204 328 217 346 C228 364 254 376 279 376 C329 376 351 346 358 266 L194 266 Z M182 655 L149 655 L239 491 L344 491 L429 655 L393 655 L294 566 L182 655 Z " />
<glyph glyph-name="Gcircumflex" unicode="&#x11c;" horiz-adv-x="860" d="M504 300 L504 256 L515 256 C577 252 594 238 597 186 L597 161 C597 129 592 111 581 94 C558 59 504 37 441 37 C355 37 288 70 254 129 C230 172 218 235 218 319 C218 411 231 479 258 529 C290 588 361 625 444 625 C565 625 650 558 683 436 L728 436 L724 667 L680 667 C678 640 671 618 659 595 C593 653 517 680 424 680 C322 680 232 647 164 585 C91 517 47 420 47 324 C47 132 206 -13 417 -13 C472 -13 510 -7 593 13 C645 26 696 34 732 34 C737 34 744 34 755 32 L755 149 C754 232 766 250 828 255 L838 256 L838 300 L504 300 Z M363 879 L255 729 L287 729 L433 817 L598 729 L629 729 L519 879 L363 879 Z " />
<glyph glyph-name="gcircumflex" unicode="&#x11d;" horiz-adv-x="567" d="M167 139 C95 123 60 93 60 44 C60 -25 126 -53 290 -53 C419 -53 464 -69 464 -117 C464 -174 392 -208 270 -208 C172 -208 108 -177 108 -130 C108 -114 114 -104 132 -83 C114 -77 105 -75 93 -75 C60 -75 33 -102 33 -135 C33 -166 53 -196 86 -215 C125 -238 187 -249 269 -249 C440 -249 540 -188 540 -83 C540 -22 506 21 442 41 C408 51 359 56 266 56 C162 57 140 62 140 84 C140 110 173 122 247 124 C308 125 338 130 376 144 C442 170 479 216 479 275 C479 301 472 325 456 348 C467 360 476 365 487 365 C496 365 501 362 512 351 C523 339 532 335 544 335 C564 335 578 350 578 372 C578 400 557 418 524 418 C495 418 470 406 430 373 C387 405 338 419 270 419 C137 419 50 362 50 276 C50 213 96 160 167 139 L167 139 Z M264 376 C322 376 354 340 354 277 C354 205 326 169 268 169 C207 169 176 205 176 276 C176 339 208 376 264 376 L264 376 Z M379 489 L414 489 L328 652 L223 652 L134 489 L167 489 L271 578 L379 489 Z " />
<glyph glyph-name="Gbreve" unicode="&#x11e;" horiz-adv-x="860" d="M504 300 L504 256 L515 256 C577 252 594 238 597 186 L597 161 C597 129 592 111 581 94 C558 59 504 37 441 37 C355 37 288 70 254 129 C230 172 218 235 218 319 C218 411 231 479 258 529 C290 588 361 625 444 625 C565 625 650 558 683 436 L728 436 L724 667 L680 667 C678 640 671 618 659 595 C593 653 517 680 424 680 C322 680 232 647 164 585 C91 517 47 420 47 324 C47 132 206 -13 417 -13 C472 -13 510 -7 593 13 C645 26 696 34 732 34 C737 34 744 34 755 32 L755 149 C754 232 766 250 828 255 L838 256 L838 300 L504 300 Z M250 880 C277 782 350 720 439 720 C527 720 601 783 625 880 L580 880 C554 835 503 810 437 810 C371 810 327 832 296 880 L250 880 Z " />
<glyph glyph-name="gbreve" unicode="&#x11f;" horiz-adv-x="567" d="M167 139 C95 123 60 93 60 44 C60 -25 126 -53 290 -53 C419 -53 464 -69 464 -117 C464 -174 392 -208 270 -208 C172 -208 108 -177 108 -130 C108 -114 114 -104 132 -83 C114 -77 105 -75 93 -75 C60 -75 33 -102 33 -135 C33 -166 53 -196 86 -215 C125 -238 187 -249 269 -249 C440 -249 540 -188 540 -83 C540 -22 506 21 442 41 C408 51 359 56 266 56 C162 57 140 62 140 84 C140 110 173 122 247 124 C308 125 338 130 376 144 C442 170 479 216 479 275 C479 301 472 325 456 348 C467 360 476 365 487 365 C496 365 501 362 512 351 C523 339 532 335 544 335 C564 335 578 350 578 372 C578 400 557 418 524 418 C495 418 470 406 430 373 C387 405 338 419 270 419 C137 419 50 362 50 276 C50 213 96 160 167 139 L167 139 Z M264 376 C322 376 354 340 354 277 C354 205 326 169 268 169 C207 169 176 205 176 276 C176 339 208 376 264 376 L264 376 Z M134 648 L134 645 C134 607 150 567 178 535 C205 504 237 489 277 489 C355 489 415 556 419 648 L392 648 C374 596 337 571 279 571 C218 571 178 598 162 648 L134 648 Z " />
<glyph glyph-name="Gdotaccent" unicode="&#x120;" horiz-adv-x="860" d="M504 300 L504 256 L515 256 C577 252 594 238 597 186 L597 161 C597 129 592 111 581 94 C558 59 504 37 441 37 C355 37 288 70 254 129 C230 172 218 235 218 319 C218 411 231 479 258 529 C290 588 361 625 444 625 C565 625 650 558 683 436 L728 436 L724 667 L680 667 C678 640 671 618 659 595 C593 653 517 680 424 680 C322 680 232 647 164 585 C91 517 47 420 47 324 C47 132 206 -13 417 -13 C472 -13 510 -7 593 13 C645 26 696 34 732 34 C737 34 744 34 755 32 L755 149 C754 232 766 250 828 255 L838 256 L838 300 L504 300 Z M441 861 C403 861 373 831 373 793 C373 756 404 725 440 725 C479 725 509 755 509 793 C509 831 479 861 441 861 L441 861 Z " />
<glyph glyph-name="gdotaccent" unicode="&#x121;" horiz-adv-x="567" d="M167 139 C95 123 60 93 60 44 C60 -25 126 -53 290 -53 C419 -53 464 -69 464 -117 C464 -174 392 -208 270 -208 C172 -208 108 -177 108 -130 C108 -114 114 -104 132 -83 C114 -77 105 -75 93 -75 C60 -75 33 -102 33 -135 C33 -166 53 -196 86 -215 C125 -238 187 -249 269 -249 C440 -249 540 -188 540 -83 C540 -22 506 21 442 41 C408 51 359 56 266 56 C162 57 140 62 140 84 C140 110 173 122 247 124 C308 125 338 130 376 144 C442 170 479 216 479 275 C479 301 472 325 456 348 C467 360 476 365 487 365 C496 365 501 362 512 351 C523 339 532 335 544 335 C564 335 578 350 578 372 C578 400 557 418 524 418 C495 418 470 406 430 373 C387 405 338 419 270 419 C137 419 50 362 50 276 C50 213 96 160 167 139 L167 139 Z M264 376 C322 376 354 340 354 277 C354 205 326 169 268 169 C207 169 176 205 176 276 C176 339 208 376 264 376 L264 376 Z M276 633 C243 633 216 606 216 573 C216 540 243 513 275 513 C309 513 336 539 336 573 C336 606 309 633 276 633 L276 633 Z " />
<glyph glyph-name="Gcommaaccent" unicode="&#x122;" horiz-adv-x="860" d="M504 300 L504 256 L515 256 C577 252 594 238 597 186 L597 161 C597 129 592 111 581 94 C558 59 504 37 441 37 C355 37 288 70 254 129 C230 172 218 235 218 319 C218 411 231 479 258 529 C290 588 361 625 444 625 C565 625 650 558 683 436 L728 436 L724 667 L680 667 C678 640 671 618 659 595 C593 653 517 680 424 680 C322 680 232 647 164 585 C91 517 47 420 47 324 C47 132 206 -13 417 -13 C472 -13 510 -7 593 13 C645 26 696 34 732 34 C737 34 744 34 755 32 L755 149 C754 232 766 250 828 255 L838 256 L838 300 L504 300 Z M334 -327 C436 -318 502 -257 502 -171 C502 -104 464 -59 407 -59 C361 -59 328 -89 328 -130 C328 -166 356 -194 391 -194 C398 -194 402 -193 417 -190 C423 -188 424 -188 427 -188 C436 -188 444 -198 444 -210 C444 -246 398 -277 334 -284 L334 -327 Z " />
<glyph glyph-name="gcommaaccent" unicode="&#x123;" horiz-adv-x="567" d="M167 139 C95 123 60 93 60 44 C60 -25 126 -53 290 -53 C419 -53 464 -69 464 -117 C464 -174 392 -208 270 -208 C172 -208 108 -177 108 -130 C108 -114 114 -104 132 -83 C114 -77 105 -75 93 -75 C60 -75 33 -102 33 -135 C33 -166 53 -196 86 -215 C125 -238 187 -249 269 -249 C440 -249 540 -188 540 -83 C540 -22 506 21 442 41 C408 51 359 56 266 56 C162 57 140 62 140 84 C140 110 173 122 247 124 C308 125 338 130 376 144 C442 170 479 216 479 275 C479 301 472 325 456 348 C467 360 476 365 487 365 C496 365 501 362 512 351 C523 339 532 335 544 335 C564 335 578 350 578 372 C578 400 557 418 524 418 C495 418 470 406 430 373 C387 405 338 419 270 419 C137 419 50 362 50 276 C50 213 96 160 167 139 L167 139 Z M264 376 C322 376 354 340 354 277 C354 205 326 169 268 169 C207 169 176 205 176 276 C176 339 208 376 264 376 L264 376 Z M347 707 C257 698 197 640 197 560 C197 502 230 465 283 465 C325 465 355 490 355 524 C355 553 330 577 298 577 C293 577 288 576 282 575 C268 572 268 572 266 572 C257 572 250 581 250 593 C250 630 292 662 347 668 L347 707 Z " />
<glyph glyph-name="Hcircumflex" unicode="&#x124;" horiz-adv-x="919" d="M631 325 L631 149 C631 66 605 40 523 44 L523 0 L888 0 L888 44 L876 44 C804 42 779 70 779 149 L779 521 C780 603 801 624 878 623 L888 623 L888 667 L523 667 L523 623 L533 623 C608 625 629 603 631 521 L631 377 L288 377 L288 521 C289 603 310 624 386 623 L395 623 L395 667 L31 667 L31 623 L42 623 C117 625 139 602 140 521 L140 149 C141 71 115 42 44 44 L31 44 L31 0 L395 0 L395 44 L384 44 C314 42 287 71 288 149 L288 325 L631 325 Z M382 879 L274 729 L306 729 L452 817 L616 729 L648 729 L538 879 L382 879 Z " />
<glyph glyph-name="Hbar" unicode="&#x126;" horiz-adv-x="919" d="M140 426 L140 149 C141 71 114 42 43 44 L31 44 L31 0 L395 0 L395 44 L384 44 C314 42 287 71 288 149 L288 325 L631 325 L631 149 C631 66 605 40 523 44 L523 0 L888 0 L888 44 L876 44 C804 42 779 70 779 149 L779 426 L861 426 L861 478 L779 478 L779 521 C780 603 801 624 878 623 L888 623 L888 667 L523 667 L523 623 L533 623 C608 625 629 603 631 521 L631 478 L288 478 L288 521 C289 603 310 624 386 623 L395 623 L395 667 L31 667 L31 623 L41 623 C117 625 139 602 140 521 L140 478 L55 478 L55 426 L140 426 Z M288 426 L631 426 L631 377 L288 377 L288 426 Z " />
<glyph glyph-name="hbar" unicode="&#x127;" horiz-adv-x="641" d="M102 490 L102 125 C100 58 86 43 28 42 L22 42 L22 0 L297 0 L297 42 L293 42 C243 45 233 58 231 125 L231 282 C268 331 305 354 347 354 C397 354 419 328 419 268 L419 125 C417 58 408 46 358 43 L350 42 L350 0 L628 0 L628 42 L621 42 C566 43 553 58 550 125 L550 253 C550 304 545 332 532 355 C510 394 455 419 395 419 C330 419 275 394 231 344 L231 490 L398 490 L398 535 L231 535 L231 678 L224 678 C150 663 127 659 23 645 L23 603 L28 603 C86 601 100 588 102 535 L23 535 L23 490 L102 490 Z " />
<glyph glyph-name="Imacron" unicode="&#x12a;" horiz-adv-x="432" d="M31 623 L43 623 C120 624 139 604 141 521 L141 149 C141 69 118 43 45 44 L31 44 L31 0 L401 0 L401 44 L385 44 C312 43 289 69 289 149 L289 521 C290 604 310 624 387 623 L401 623 L401 667 L31 667 L31 623 Z M33 810 L33 758 L399 758 L399 810 L33 810 Z " />
<glyph glyph-name="imacron" unicode="&#x12b;" horiz-adv-x="331" d="M236 419 L229 419 C197 411 64 390 18 386 L18 343 L31 343 C87 343 102 327 102 263 L102 125 C100 56 89 43 33 42 L18 42 L18 0 L317 0 L317 42 L310 42 C254 43 239 59 236 125 L236 419 Z M4 541 L301 541 L301 590 L4 590 L4 541 Z " />
<glyph glyph-name="ibreve" unicode="&#x12d;" horiz-adv-x="331" d="M237 419 L230 419 C197 411 63 390 18 386 L18 343 L32 343 C88 343 103 327 103 263 L103 125 C101 56 89 43 33 42 L18 42 L18 0 L318 0 L318 42 L311 42 C255 43 240 59 237 125 L237 419 Z M22 648 C21 646 21 645 21 645 C19 611 36 568 65 535 C92 504 124 489 164 489 C243 489 302 556 307 648 L279 648 C261 596 225 571 167 571 C105 571 65 598 49 648 L22 648 Z " />
<glyph glyph-name="Iogonek" unicode="&#x12e;" horiz-adv-x="432" d="M401 0 L401 44 L385 44 C312 43 289 69 289 149 L289 521 C290 604 310 624 387 623 L401 623 L401 667 L31 667 L31 623 L43 623 C120 624 139 604 141 521 L141 149 C141 69 118 43 45 44 L31 44 L31 0 L255 0 C196 -26 161 -67 161 -112 C161 -169 215 -209 291 -209 C334 -209 367 -199 412 -171 L396 -144 C370 -156 355 -160 335 -160 C287 -160 255 -133 255 -92 C255 -57 268 -32 302 0 L401 0 Z " />
<glyph glyph-name="iogonek" unicode="&#x12f;" horiz-adv-x="331" d="M318 0 L318 42 L311 42 C255 43 240 59 237 125 L237 419 L230 419 C197 411 63 390 18 386 L18 343 L32 343 C88 343 103 327 103 263 L103 125 C101 56 89 43 33 42 L18 42 L18 0 L201 0 C152 -24 120 -65 120 -106 C120 -156 167 -192 232 -192 C269 -192 296 -183 336 -158 L323 -135 C301 -144 290 -147 273 -147 C232 -147 202 -120 202 -83 C202 -53 215 -26 242 0 L318 0 Z M171 678 C129 678 95 644 95 603 C95 559 128 525 170 525 C212 525 246 559 246 601 C246 644 213 678 171 678 L171 678 Z " />
<glyph glyph-name="Idotaccent" unicode="&#x130;" horiz-adv-x="432" d="M31 623 L43 623 C120 624 139 604 141 521 L141 149 C141 69 118 43 45 44 L31 44 L31 0 L401 0 L401 44 L385 44 C312 43 289 69 289 149 L289 521 C290 604 310 624 387 623 L401 623 L401 667 L31 667 L31 623 Z M218 861 C180 861 150 831 150 793 C150 756 181 725 217 725 C256 725 286 755 286 793 C286 831 256 861 218 861 L218 861 Z " />
<glyph glyph-name="dotlessi" unicode="&#x131;" horiz-adv-x="331" d="M237 419 L230 419 C197 411 63 390 18 386 L18 343 L32 343 C88 343 103 327 103 263 L103 125 C101 56 89 43 33 42 L18 42 L18 0 L318 0 L318 42 L311 42 C255 43 240 59 237 125 L237 419 Z " />
<glyph glyph-name="Kcommaaccent" unicode="&#x136;" horiz-adv-x="859" d="M292 339 L292 521 C293 604 313 624 390 623 L403 623 L403 667 L34 667 L34 623 L45 623 C123 624 143 604 144 521 L144 149 C144 69 121 43 47 44 L31 44 L31 0 L395 0 L395 44 L388 44 C315 43 292 69 292 149 L292 274 L364 330 L528 144 C575 89 577 86 577 74 C577 53 551 44 496 44 L487 44 L487 0 L894 0 L894 44 L888 44 C821 45 782 70 709 160 L483 426 L572 501 C682 594 728 619 797 623 L805 623 L805 667 L497 667 L497 623 L504 623 C544 623 567 611 567 589 C567 569 548 545 506 511 L292 339 Z M342 -327 C444 -318 510 -257 510 -171 C510 -104 472 -59 415 -59 C369 -59 336 -89 336 -130 C336 -166 364 -194 399 -194 C406 -194 410 -193 425 -190 C431 -188 432 -188 435 -188 C444 -188 452 -198 452 -210 C452 -246 406 -277 342 -284 L342 -327 Z " />
<glyph glyph-name="kcommaaccent" unicode="&#x137;" horiz-adv-x="608" d="M349 403 L349 361 L355 361 C379 361 391 355 391 343 C391 339 391 339 388 332 C388 326 351 299 276 253 L227 224 L227 678 L220 678 C146 663 125 660 21 645 L21 603 L29 603 C86 601 97 588 98 529 L98 125 C95 58 82 43 25 42 L16 42 L16 0 L295 0 L295 42 L290 42 C241 45 229 60 227 125 L227 173 L271 198 L366 97 C381 81 389 69 389 62 C389 50 376 43 353 42 L349 42 L349 0 L606 0 L606 42 L600 43 C573 45 561 55 501 119 L371 262 L423 299 C491 348 517 360 556 361 L560 361 L560 403 L349 403 Z M240 -301 C330 -292 390 -233 390 -154 C390 -96 357 -59 304 -59 C262 -59 232 -84 232 -118 C232 -147 257 -171 289 -171 C294 -171 299 -170 305 -169 C319 -166 319 -166 321 -166 C330 -166 337 -175 337 -187 C337 -223 295 -256 240 -262 L240 -301 Z " />
<glyph glyph-name="Lacute" unicode="&#x139;" horiz-adv-x="703" d="M688 213 L640 213 C604 90 552 48 435 47 L406 47 C308 47 289 65 291 151 L291 521 C292 603 312 624 389 623 L410 623 L410 667 L31 667 L31 623 L45 623 C122 624 142 603 143 521 L143 148 C143 69 120 43 46 44 L31 44 L31 0 L684 0 L688 213 Z M206 729 L239 729 L485 869 L485 877 L306 877 L206 729 Z " />
<glyph glyph-name="lacute" unicode="&#x13a;" horiz-adv-x="329" d="M230 678 L223 678 C192 670 116 658 23 645 L23 603 L31 603 C89 601 100 588 101 527 L101 125 C98 58 85 43 27 42 L19 42 L19 0 L313 0 L313 42 L305 42 C249 42 231 62 230 125 L230 678 Z M116 729 L149 729 L395 869 L395 877 L216 877 L116 729 Z " />
<glyph glyph-name="Lcommaaccent" unicode="&#x13b;" horiz-adv-x="703" d="M688 213 L640 213 C604 90 552 48 435 47 L406 47 C308 47 289 65 291 151 L291 521 C292 603 312 624 389 623 L410 623 L410 667 L31 667 L31 623 L45 623 C122 624 142 603 143 521 L143 148 C143 69 120 43 46 44 L31 44 L31 0 L684 0 L688 213 Z M278 -327 C380 -318 446 -257 446 -171 C446 -104 408 -59 351 -59 C305 -59 272 -89 272 -130 C272 -166 300 -194 335 -194 C342 -194 346 -193 361 -190 C367 -188 368 -188 371 -188 C380 -188 388 -198 388 -210 C388 -246 342 -277 278 -284 L278 -327 Z " />
<glyph glyph-name="lcommaaccent" unicode="&#x13c;" horiz-adv-x="329" d="M230 678 L223 678 C192 670 116 658 23 645 L23 603 L31 603 C89 601 100 588 101 527 L101 125 C98 58 85 43 27 42 L19 42 L19 0 L313 0 L313 42 L305 42 C249 42 231 62 230 125 L230 678 Z M95 -301 C185 -292 245 -233 245 -154 C245 -96 212 -59 159 -59 C117 -59 87 -84 87 -118 C87 -147 112 -171 144 -171 C149 -171 154 -170 160 -169 C174 -166 174 -166 176 -166 C185 -166 192 -175 192 -187 C192 -223 150 -256 95 -262 L95 -301 Z " />
<glyph glyph-name="Lcaron" unicode="&#x13d;" horiz-adv-x="703" d="M688 213 L640 213 C604 90 552 48 435 47 L406 47 C308 47 289 65 291 151 L291 521 C292 603 312 624 389 623 L410 623 L410 667 L31 667 L31 623 L45 623 C122 624 142 603 143 521 L143 148 C143 69 120 43 46 44 L31 44 L31 0 L684 0 L688 213 Z M447 399 C549 408 615 469 615 555 C615 622 577 667 520 667 C474 667 441 637 441 596 C441 561 469 533 504 533 C509 533 515 534 522 535 C537 538 537 538 540 538 C549 538 557 528 557 516 C557 480 511 449 447 442 L447 399 Z " />
<glyph glyph-name="lcaron" unicode="&#x13e;" horiz-adv-x="430" d="M230 678 L223 678 C192 670 116 658 23 645 L23 603 L31 603 C89 601 100 588 101 527 L101 125 C98 58 85 43 27 42 L19 42 L19 0 L313 0 L313 42 L305 42 C249 42 231 62 230 125 L230 678 Z M274 436 C364 445 424 504 424 583 C424 641 391 678 338 678 C296 678 266 653 266 619 C266 590 291 566 323 566 C328 566 333 567 339 568 C353 571 353 571 355 571 C364 571 371 562 371 550 C371 514 329 482 274 476 L274 436 Z " />
<glyph glyph-name="Ldot" unicode="&#x13f;" horiz-adv-x="703" d="M688 213 L640 213 C604 90 552 48 435 47 L406 47 C308 47 289 65 291 151 L291 521 C292 603 312 624 389 623 L410 623 L410 667 L31 667 L31 623 L45 623 C122 624 142 603 143 521 L143 148 C143 69 120 43 46 44 L31 44 L31 0 L684 0 L688 213 Z M437 385 C404 385 377 358 377 325 C377 292 404 265 436 265 C470 265 497 291 497 325 C497 358 470 385 437 385 L437 385 Z " />
<glyph glyph-name="ldot" unicode="&#x140;" horiz-adv-x="396" d="M230 678 L223 678 C192 670 116 658 23 645 L23 603 L31 603 C89 601 100 588 101 527 L101 125 C98 58 85 43 27 42 L19 42 L19 0 L313 0 L313 42 L305 42 C249 42 231 62 230 125 L230 678 Z M336 385 C303 385 276 358 276 325 C276 292 303 265 335 265 C369 265 396 291 396 325 C396 358 369 385 336 385 L336 385 Z " />
<glyph glyph-name="Lslash" unicode="&#x141;" horiz-adv-x="703" d="M31 44 L31 0 L684 0 L688 213 L641 213 C609 94 550 46 435 47 L406 47 C308 47 289 65 291 151 L291 339 L436 427 L436 482 L291 395 L291 521 C292 603 312 624 389 623 L410 623 L410 667 L31 667 L31 623 L44 623 C122 624 142 604 143 521 L143 305 L38 243 L38 187 L143 250 L143 148 C143 69 120 43 46 44 L31 44 Z " />
<glyph glyph-name="lslash" unicode="&#x142;" horiz-adv-x="333" d="M230 380 L230 678 L223 678 C193 670 117 658 23 645 L23 603 L31 603 C89 601 100 588 101 527 L101 301 L20 251 L20 198 L101 249 L101 125 C98 58 85 43 27 42 L19 42 L19 0 L313 0 L313 42 L305 42 C249 42 231 62 230 125 L230 328 L313 378 L313 431 L230 380 Z " />
<glyph glyph-name="Nacute" unicode="&#x143;" horiz-adv-x="855" d="M686 -12 L735 -12 L735 513 C732 583 755 612 823 623 L831 623 L831 667 L580 667 L580 623 L589 623 C658 618 687 587 685 517 L685 221 L265 667 L26 667 L26 623 L32 623 C108 624 132 597 137 507 L137 162 C137 111 135 99 128 88 C115 64 73 45 31 44 L26 44 L26 0 L303 0 L303 44 L290 44 C262 43 232 54 212 71 C190 92 187 100 187 163 L187 522 L686 -12 Z M395 729 L428 729 L674 869 L674 877 L495 877 L395 729 Z " />
<glyph glyph-name="nacute" unicode="&#x144;" horiz-adv-x="642" d="M216 412 C185 405 178 404 34 382 L24 380 L24 338 L30 338 C83 338 100 320 104 259 L104 125 C102 58 88 43 31 42 L26 42 L26 0 L300 0 L300 42 L295 42 C245 45 235 58 233 125 L233 283 C275 332 311 353 353 353 C395 353 421 328 421 288 L421 125 C419 59 409 46 361 43 L353 42 L353 0 L629 0 L629 42 L623 42 C568 43 555 58 552 125 L552 260 C552 312 548 333 535 356 C513 394 461 419 403 419 C340 419 280 393 235 346 C234 375 231 396 224 412 L216 412 Z M286 488 L320 488 L518 642 L518 649 L366 649 L286 488 Z " />
<glyph glyph-name="Ncommaaccent" unicode="&#x145;" horiz-adv-x="855" d="M686 -12 L735 -12 L735 513 C732 583 755 612 823 623 L831 623 L831 667 L580 667 L580 623 L589 623 C658 618 687 587 685 517 L685 221 L265 667 L26 667 L26 623 L32 623 C108 624 132 597 137 507 L137 162 C137 111 135 99 128 88 C115 64 73 45 31 44 L26 44 L26 0 L303 0 L303 44 L290 44 C262 43 232 54 212 71 C190 92 187 100 187 163 L187 522 L686 -12 Z M348 -327 C450 -318 516 -257 516 -171 C516 -104 478 -59 421 -59 C375 -59 342 -89 342 -130 C342 -166 370 -194 405 -194 C412 -194 416 -193 431 -190 C437 -188 438 -188 441 -188 C450 -188 458 -198 458 -210 C458 -246 412 -277 348 -284 L348 -327 Z " />
<glyph glyph-name="ncommaaccent" unicode="&#x146;" horiz-adv-x="642" d="M216 412 C185 405 178 404 34 382 L24 380 L24 338 L30 338 C83 338 100 320 104 259 L104 125 C102 58 88 43 31 42 L26 42 L26 0 L300 0 L300 42 L295 42 C245 45 235 58 233 125 L233 283 C275 332 311 353 353 353 C395 353 421 328 421 288 L421 125 C419 59 409 46 361 43 L353 42 L353 0 L629 0 L629 42 L623 42 C568 43 555 58 552 125 L552 260 C552 312 548 333 535 356 C513 394 461 419 403 419 C340 419 280 393 235 346 C234 375 231 396 224 412 L216 412 Z M255 -301 C345 -292 405 -233 405 -154 C405 -96 372 -59 319 -59 C277 -59 247 -84 247 -118 C247 -147 272 -171 304 -171 C309 -171 314 -170 320 -169 C334 -166 334 -166 336 -166 C345 -166 352 -175 352 -187 C352 -223 310 -256 255 -262 L255 -301 Z " />
<glyph glyph-name="Ncaron" unicode="&#x147;" horiz-adv-x="855" d="M686 -12 L735 -12 L735 513 C732 583 755 612 823 623 L831 623 L831 667 L580 667 L580 623 L589 623 C658 618 687 587 685 517 L685 221 L265 667 L26 667 L26 623 L32 623 C108 624 132 597 137 507 L137 162 C137 111 135 99 128 88 C115 64 73 45 31 44 L26 44 L26 0 L303 0 L303 44 L290 44 C262 43 232 54 212 71 C190 92 187 100 187 163 L187 522 L686 -12 Z M515 729 L625 879 L593 879 L447 791 L283 879 L251 879 L358 729 L515 729 Z " />
<glyph glyph-name="ncaron" unicode="&#x148;" horiz-adv-x="642" d="M216 412 C185 405 178 404 34 382 L24 380 L24 338 L30 338 C83 338 100 320 104 259 L104 125 C102 58 88 43 31 42 L26 42 L26 0 L300 0 L300 42 L295 42 C245 45 235 58 233 125 L233 283 C275 332 311 353 353 353 C395 353 421 328 421 288 L421 125 C419 59 409 46 361 43 L353 42 L353 0 L629 0 L629 42 L623 42 C568 43 555 58 552 125 L552 260 C552 312 548 333 535 356 C513 394 461 419 403 419 C340 419 280 393 235 346 C234 375 231 396 224 412 L216 412 Z M228 655 L195 655 L285 491 L390 491 L475 655 L439 655 L340 566 L228 655 Z " />
<glyph glyph-name="Omacron" unicode="&#x14c;" horiz-adv-x="908" d="M459 679 C336 679 234 646 158 580 C89 520 47 427 47 331 C47 250 77 172 132 110 C202 32 320 -13 457 -13 C570 -13 682 25 750 86 C820 149 860 238 860 332 C860 533 692 679 459 679 L459 679 Z M454 628 C513 628 571 609 608 576 C658 533 686 441 686 322 C686 252 672 184 647 134 C639 119 625 102 605 86 C568 55 516 38 455 38 C385 38 331 59 287 103 C243 147 221 229 221 347 C221 436 246 521 285 563 C324 605 383 628 454 628 L454 628 Z M270 810 L270 758 L637 758 L637 810 L270 810 Z " />
<glyph glyph-name="omacron" unicode="&#x14d;" horiz-adv-x="599" d="M40 200 C40 72 146 -16 301 -16 C450 -16 558 76 558 203 C558 329 449 419 297 419 C149 419 40 327 40 203 L40 200 Z M299 375 C344 375 381 357 398 328 C412 303 419 263 419 202 C419 77 385 27 301 27 C251 27 216 47 197 86 C186 109 179 158 179 218 C179 328 215 375 299 375 L299 375 Z M136 541 L462 541 L462 590 L136 590 L136 541 Z " />
<glyph glyph-name="Ohungarumlaut" unicode="&#x150;" horiz-adv-x="908" d="M459 679 C336 679 234 646 158 580 C89 520 47 427 47 331 C47 250 77 172 132 110 C202 32 320 -13 457 -13 C570 -13 682 25 750 86 C820 149 860 238 860 332 C860 533 692 679 459 679 L459 679 Z M454 628 C513 628 571 609 608 576 C658 533 686 441 686 322 C686 252 672 184 647 134 C639 119 625 102 605 86 C568 55 516 38 455 38 C385 38 331 59 287 103 C243 147 221 229 221 347 C221 436 246 521 285 563 C324 605 383 628 454 628 L454 628 Z M315 729 L348 729 L570 869 L570 877 L415 877 L315 729 Z M540 729 L573 729 L794 869 L794 877 L639 877 L540 729 Z " />
<glyph glyph-name="ohungarumlaut" unicode="&#x151;" horiz-adv-x="599" d="M40 200 C40 72 146 -16 301 -16 C450 -16 558 76 558 203 C558 329 449 419 297 419 C149 419 40 327 40 203 L40 200 Z M299 375 C344 375 381 357 398 328 C412 303 419 263 419 202 C419 77 385 27 301 27 C251 27 216 47 197 86 C186 109 179 158 179 218 C179 328 215 375 299 375 L299 375 Z M189 488 L223 488 L396 642 L396 649 L269 649 L189 488 Z M381 488 L415 488 L588 642 L588 649 L461 649 L381 488 Z " />
<glyph glyph-name="OE" unicode="&#x152;" horiz-adv-x="1075" d="M1046 216 L998 216 C960 91 911 48 802 48 L773 48 C713 49 705 52 687 80 C675 100 671 115 671 149 L671 326 L743 326 C806 325 819 312 825 245 L826 236 L877 236 L877 465 L826 465 L825 456 C819 389 806 374 745 373 L671 373 L671 620 L791 620 C880 624 911 600 946 497 L996 497 L984 667 L552 667 L497 667 C463 669 461 669 448 669 C351 669 274 652 214 618 C113 559 49 447 49 329 C49 249 78 173 131 112 C196 39 302 -1 433 -1 C441 -1 459 -1 474 0 C535 1 535 1 548 1 L574 0 L1037 0 L1046 216 Z M523 146 C523 106 518 81 508 71 C494 57 465 48 434 48 C382 48 334 66 297 98 C247 143 217 232 217 334 C217 512 300 620 436 620 C473 620 502 610 512 595 C520 582 523 563 523 531 L523 146 Z " />
<glyph glyph-name="oe" unicode="&#x153;" horiz-adv-x="881" d="M790 100 C761 58 715 33 665 33 C584 33 535 94 535 195 C535 207 536 216 538 227 L842 227 L842 234 C842 338 748 419 626 419 C566 419 514 400 469 360 C421 398 359 419 293 419 C149 419 40 324 40 199 C40 76 148 -16 294 -16 C364 -16 422 5 470 47 C509 7 568 -16 633 -16 C714 -16 794 22 830 78 L790 100 Z M540 267 C544 335 575 376 624 376 C674 376 700 340 703 267 L540 267 Z M292 375 C333 375 369 357 385 329 C399 303 404 273 404 205 C404 135 399 105 382 73 C367 44 332 26 291 26 C241 26 209 49 192 97 C183 122 179 155 179 210 C179 265 185 301 199 327 C215 357 250 375 292 375 L292 375 Z " />
<glyph glyph-name="Racute" unicode="&#x154;" horiz-adv-x="797" d="M832 0 L832 44 L826 44 C770 46 730 77 655 179 C589 268 555 306 517 329 C562 340 585 349 607 362 C657 392 686 440 686 493 C686 560 647 612 573 643 C531 660 420 672 295 672 C269 672 250 672 230 671 C210 670 195 669 193 669 L33 667 L33 623 L48 623 C125 624 145 604 146 521 L146 149 C146 69 123 43 50 44 L31 44 L31 0 L411 0 L411 44 L390 44 C317 43 294 69 294 149 L294 303 L301 303 C372 308 398 291 466 195 C527 103 573 41 614 0 L832 0 Z M294 351 L294 621 C310 622 320 622 334 622 C403 622 443 615 473 599 C509 580 529 540 529 488 C529 435 509 393 475 374 C444 357 403 351 320 351 L313 351 L294 351 Z M314 729 L347 729 L593 869 L593 877 L414 877 L314 729 Z " />
<glyph glyph-name="racute" unicode="&#x155;" horiz-adv-x="481" d="M24 339 L31 339 C87 338 102 322 105 256 L105 125 C102 58 89 43 33 42 L25 42 L25 0 L322 0 L322 42 L309 42 C252 43 237 59 234 125 L234 178 C234 238 239 265 258 296 C276 325 296 340 320 340 C334 340 344 334 358 319 C382 291 392 285 416 285 C450 285 476 310 476 342 C476 386 438 419 388 419 C324 419 264 381 229 317 C227 360 222 393 213 419 C127 400 62 387 24 381 L24 339 Z M224 488 L258 488 L456 642 L456 649 L304 649 L224 488 Z " />
<glyph glyph-name="Rcommaaccent" unicode="&#x156;" horiz-adv-x="797" d="M832 0 L832 44 L826 44 C770 46 730 77 655 179 C589 268 555 306 517 329 C562 340 585 349 607 362 C657 392 686 440 686 493 C686 560 647 612 573 643 C531 660 420 672 295 672 C269 672 250 672 230 671 C210 670 195 669 193 669 L33 667 L33 623 L48 623 C125 624 145 604 146 521 L146 149 C146 69 123 43 50 44 L31 44 L31 0 L411 0 L411 44 L390 44 C317 43 294 69 294 149 L294 303 L301 303 C372 308 398 291 466 195 C527 103 573 41 614 0 L832 0 Z M294 351 L294 621 C310 622 320 622 334 622 C403 622 443 615 473 599 C509 580 529 540 529 488 C529 435 509 393 475 374 C444 357 403 351 320 351 L313 351 L294 351 Z M328 -327 C430 -318 496 -257 496 -171 C496 -104 458 -59 401 -59 C355 -59 322 -89 322 -130 C322 -166 350 -194 385 -194 C392 -194 396 -193 411 -190 C417 -188 418 -188 421 -188 C430 -188 438 -198 438 -210 C438 -246 392 -277 328 -284 L328 -327 Z " />
<glyph glyph-name="rcommaaccent" unicode="&#x157;" horiz-adv-x="481" d="M24 339 L31 339 C87 338 102 322 105 256 L105 125 C102 58 89 43 33 42 L25 42 L25 0 L322 0 L322 42 L309 42 C252 43 237 59 234 125 L234 178 C234 238 239 265 258 296 C276 325 296 340 320 340 C334 340 344 334 358 319 C382 291 392 285 416 285 C450 285 476 310 476 342 C476 386 438 419 388 419 C324 419 264 381 229 317 C227 360 222 393 213 419 C127 400 62 387 24 381 L24 339 Z M107 -301 C197 -292 257 -233 257 -154 C257 -96 224 -59 171 -59 C129 -59 99 -84 99 -118 C99 -147 124 -171 156 -171 C161 -171 166 -170 172 -169 C186 -166 186 -166 188 -166 C197 -166 204 -175 204 -187 C204 -223 162 -256 107 -262 L107 -301 Z " />
<glyph glyph-name="Rcaron" unicode="&#x158;" horiz-adv-x="797" d="M832 0 L832 44 L826 44 C770 46 730 77 655 179 C589 268 555 306 517 329 C562 340 585 349 607 362 C657 392 686 440 686 493 C686 560 647 612 573 643 C531 660 420 672 295 672 C269 672 250 672 230 671 C210 670 195 669 193 669 L33 667 L33 623 L48 623 C125 624 145 604 146 521 L146 149 C146 69 123 43 50 44 L31 44 L31 0 L411 0 L411 44 L390 44 C317 43 294 69 294 149 L294 303 L301 303 C372 308 398 291 466 195 C527 103 573 41 614 0 L832 0 Z M294 351 L294 621 C310 622 320 622 334 622 C403 622 443 615 473 599 C509 580 529 540 529 488 C529 435 509 393 475 374 C444 357 403 351 320 351 L313 351 L294 351 Z M446 729 L556 879 L525 879 L378 791 L214 879 L182 879 L290 729 L446 729 Z " />
<glyph glyph-name="rcaron" unicode="&#x159;" horiz-adv-x="481" d="M24 339 L31 339 C87 338 102 322 105 256 L105 125 C102 58 89 43 33 42 L25 42 L25 0 L322 0 L322 42 L309 42 C252 43 237 59 234 125 L234 178 C234 238 239 265 258 296 C276 325 296 340 320 340 C334 340 344 334 358 319 C382 291 392 285 416 285 C450 285 476 310 476 342 C476 386 438 419 388 419 C324 419 264 381 229 317 C227 360 222 393 213 419 C127 400 62 387 24 381 L24 339 Z M149 655 L116 655 L207 491 L311 491 L396 655 L361 655 L262 566 L149 655 Z " />
<glyph glyph-name="Sacute" unicode="&#x15a;" horiz-adv-x="615" d="M62 10 L114 10 C119 35 125 51 135 67 C184 16 256 -13 335 -13 C471 -13 573 73 573 188 C573 237 553 285 517 319 C482 353 431 380 325 420 C213 463 174 496 174 547 C174 597 218 632 282 632 C367 632 436 573 463 478 L511 478 L511 667 L462 667 L461 664 L460 657 C457 642 451 630 441 617 C395 659 341 679 279 679 C158 679 64 598 64 492 C64 443 85 397 123 362 C156 333 210 304 313 262 C411 223 453 185 453 136 C453 79 399 37 325 37 C258 37 198 69 158 127 C140 153 128 184 114 233 L62 233 L62 10 Z M253 729 L286 729 L532 869 L532 877 L353 877 L253 729 Z " />
<glyph glyph-name="sacute" unicode="&#x15b;" horiz-adv-x="459" d="M46 -12 L85 -12 C91 2 98 12 108 20 C113 19 114 18 120 15 C158 -5 200 -16 246 -16 C350 -16 420 39 420 121 C420 186 372 236 291 255 C209 274 202 276 173 288 C147 299 131 316 131 333 C131 360 165 381 210 381 C275 381 331 345 350 290 L389 290 L389 414 L352 414 C344 400 338 391 331 386 C289 406 238 419 205 419 C116 419 45 363 45 292 C45 235 97 188 187 163 C282 138 283 137 309 119 C320 110 328 95 328 82 C328 49 290 25 236 25 C165 25 112 60 88 122 L46 122 L46 -12 Z M190 488 L224 488 L422 642 L422 649 L270 649 L190 488 Z " />
<glyph glyph-name="Scircumflex" unicode="&#x15c;" horiz-adv-x="615" d="M62 10 L114 10 C119 35 125 51 135 67 C184 16 256 -13 335 -13 C471 -13 573 73 573 188 C573 237 553 285 517 319 C482 353 431 380 325 420 C213 463 174 496 174 547 C174 597 218 632 282 632 C367 632 436 573 463 478 L511 478 L511 667 L462 667 L461 664 L460 657 C457 642 451 630 441 617 C395 659 341 679 279 679 C158 679 64 598 64 492 C64 443 85 397 123 362 C156 333 210 304 313 262 C411 223 453 185 453 136 C453 79 399 37 325 37 C258 37 198 69 158 127 C140 153 128 184 114 233 L62 233 L62 10 Z M238 879 L130 729 L162 729 L308 817 L473 729 L504 729 L395 879 L238 879 Z " />
<glyph glyph-name="scircumflex" unicode="&#x15d;" horiz-adv-x="459" d="M46 -12 L85 -12 C91 2 98 12 108 20 C113 19 114 18 120 15 C158 -5 200 -16 246 -16 C350 -16 420 39 420 121 C420 186 372 236 291 255 C209 274 202 276 173 288 C147 299 131 316 131 333 C131 360 165 381 210 381 C275 381 331 345 350 290 L389 290 L389 414 L352 414 C344 400 338 391 331 386 C289 406 238 419 205 419 C116 419 45 363 45 292 C45 235 97 188 187 163 C282 138 283 137 309 119 C320 110 328 95 328 82 C328 49 290 25 236 25 C165 25 112 60 88 122 L46 122 L46 -12 Z M348 489 L383 489 L297 652 L192 652 L103 489 L136 489 L240 578 L348 489 Z " />
<glyph glyph-name="Scedilla" unicode="&#x15e;" horiz-adv-x="615" d="M339 -13 C474 -11 573 74 573 188 C573 237 553 285 517 319 C482 353 431 380 325 420 C213 463 174 496 174 547 C174 597 218 632 282 632 C367 632 436 573 463 478 L511 478 L511 667 L462 667 L461 664 L460 657 C457 642 451 630 441 617 C395 659 341 679 279 679 C158 679 64 598 64 492 C64 443 85 397 123 362 C156 333 210 304 313 262 C411 223 453 185 453 136 C453 79 399 37 325 37 C258 37 198 69 158 127 C140 153 128 184 114 233 L62 233 L62 10 L114 10 C119 35 125 51 135 67 C172 27 225 1 292 -10 C283 -60 277 -90 270 -112 C315 -114 344 -131 344 -158 C344 -183 319 -199 279 -199 C250 -199 227 -196 193 -188 C189 -208 189 -210 184 -228 C215 -238 242 -242 275 -242 C373 -242 438 -203 438 -144 C438 -94 398 -61 331 -55 L339 -13 Z " />
<glyph glyph-name="scedilla" unicode="&#x15f;" horiz-adv-x="459" d="M246 -16 C350 -16 420 39 420 121 C420 186 372 236 291 255 C209 275 202 276 173 288 C147 299 131 316 131 333 C131 360 165 381 210 381 C275 381 331 345 350 290 L389 290 L389 414 L352 414 C344 400 338 391 331 386 C289 406 238 419 205 419 C116 419 45 363 45 292 C45 235 97 188 187 163 C282 137 283 137 309 118 C320 110 328 95 328 81 C328 49 290 25 236 25 C165 25 112 60 88 122 L46 122 L46 -12 L85 -12 C91 2 98 12 108 20 C113 19 113 18 120 15 C147 0 178 -9 211 -14 C204 -59 201 -78 195 -100 C230 -102 251 -118 251 -142 C251 -165 232 -179 202 -179 C181 -179 163 -176 137 -169 C135 -187 134 -189 131 -205 C154 -214 173 -217 198 -217 C273 -217 322 -182 322 -129 C322 -84 292 -55 241 -49 L246 -22 L246 -16 Z " />
<glyph glyph-name="Scaron" unicode="&#x160;" horiz-adv-x="615" d="M62 10 L114 10 C119 35 125 51 135 67 C184 16 256 -13 335 -13 C471 -13 573 73 573 188 C573 237 553 285 517 319 C482 353 431 380 325 420 C213 463 174 496 174 547 C174 597 218 632 282 632 C367 632 436 573 463 478 L511 478 L511 667 L462 667 L461 664 L460 657 C457 642 451 630 441 617 C395 659 341 679 279 679 C158 679 64 598 64 492 C64 443 85 397 123 362 C156 333 210 304 313 262 C411 223 453 185 453 136 C453 79 399 37 325 37 C258 37 198 69 158 127 C140 153 128 184 114 233 L62 233 L62 10 Z M383 729 L493 879 L461 879 L315 791 L151 879 L119 879 L226 729 L383 729 Z " />
<glyph glyph-name="scaron" unicode="&#x161;" horiz-adv-x="459" d="M46 -12 L85 -12 C91 2 98 12 108 20 C113 19 114 18 120 15 C158 -5 200 -16 246 -16 C350 -16 420 39 420 121 C420 186 372 236 291 255 C209 274 202 276 173 288 C147 299 131 316 131 333 C131 360 165 381 210 381 C275 381 331 345 350 290 L389 290 L389 414 L352 414 C344 400 338 391 331 386 C289 406 238 419 205 419 C116 419 45 363 45 292 C45 235 97 188 187 163 C282 138 283 137 309 119 C320 110 328 95 328 82 C328 49 290 25 236 25 C165 25 112 60 88 122 L46 122 L46 -12 Z M130 655 L97 655 L187 491 L292 491 L377 655 L341 655 L242 566 L130 655 Z " />
<glyph glyph-name="Tcommaaccent" unicode="&#x162;" horiz-adv-x="763" d="M64 487 C86 599 111 620 223 620 L305 620 L305 149 C305 69 281 43 209 44 L183 44 L183 0 L575 0 L575 44 L549 44 C477 43 453 69 453 149 L453 620 L539 620 C642 620 668 598 696 487 L745 487 L743 667 L17 667 L16 487 L64 487 Z M299 -327 C401 -318 467 -257 467 -171 C467 -104 429 -59 372 -59 C326 -59 293 -89 293 -130 C293 -166 321 -194 356 -194 C363 -194 367 -193 382 -190 C388 -188 389 -188 392 -188 C401 -188 409 -198 409 -210 C409 -246 363 -277 299 -284 L299 -327 Z " />
<glyph glyph-name="tcommaaccent" unicode="&#x163;" horiz-adv-x="371" d="M357 359 L357 403 L222 403 L222 534 L179 534 C165 457 102 402 27 402 C26 402 22 402 17 403 L17 359 L83 359 L83 127 C83 33 130 -16 221 -16 C292 -16 349 15 374 68 L333 82 C316 53 298 41 272 41 C253 41 240 48 232 63 C224 78 222 89 222 139 L222 359 L357 359 Z M135 -301 C225 -292 285 -233 285 -154 C285 -96 252 -59 199 -59 C157 -59 127 -84 127 -118 C127 -147 152 -171 184 -171 C189 -171 194 -170 200 -169 C214 -166 214 -166 216 -166 C225 -166 232 -175 232 -187 C232 -223 190 -256 135 -262 L135 -301 Z " />
<glyph glyph-name="Tcaron" unicode="&#x164;" horiz-adv-x="763" d="M64 487 C86 599 111 620 223 620 L305 620 L305 149 C305 69 281 43 209 44 L183 44 L183 0 L575 0 L575 44 L549 44 C477 43 453 69 453 149 L453 620 L539 620 C642 620 668 598 696 487 L745 487 L743 667 L17 667 L16 487 L64 487 Z M458 729 L568 879 L537 879 L390 791 L226 879 L194 879 L302 729 L458 729 Z " />
<glyph glyph-name="tcaron" unicode="&#x165;" horiz-adv-x="430" d="M357 359 L357 403 L222 403 L222 534 L179 534 C165 457 102 402 27 402 C26 402 22 402 17 403 L17 359 L83 359 L83 127 C83 33 130 -16 221 -16 C292 -16 349 15 374 68 L333 82 C316 53 298 41 272 41 C253 41 240 48 232 63 C224 78 222 89 222 139 L222 359 L357 359 Z M273 474 C363 483 423 541 423 621 C423 679 390 716 337 716 C295 716 265 691 265 657 C265 628 290 604 322 604 C327 604 332 605 338 606 C352 609 352 609 354 609 C363 609 370 600 370 588 C370 551 328 519 273 513 L273 474 Z " />
<glyph glyph-name="utilde" unicode="&#x169;" horiz-adv-x="629" d="M533 403 L333 403 L333 361 L339 361 C393 360 402 348 404 279 L404 145 C399 132 398 129 398 127 C383 86 332 51 284 51 C267 51 251 57 238 68 C224 79 219 97 219 134 L219 403 L15 403 L15 361 L20 361 C74 360 87 344 90 279 L90 130 C90 88 94 68 106 47 C128 9 181 -16 238 -16 C302 -16 359 11 404 63 C404 34 405 18 410 -16 L415 -16 C448 -7 547 1 611 0 L611 42 L607 42 C551 43 536 60 533 125 L533 403 Z M199 503 C205 535 219 550 243 550 C259 550 275 544 309 526 C343 509 362 503 383 503 C442 503 478 551 478 629 L478 635 L448 635 C445 600 429 582 402 582 C388 582 376 586 354 598 C310 621 288 629 263 629 C233 629 201 611 187 587 C175 564 170 540 169 503 L199 503 Z " />
<glyph glyph-name="Umacron" unicode="&#x16a;" horiz-adv-x="853" d="M583 667 L583 623 L589 623 C661 620 690 588 688 511 L688 286 C688 189 682 159 659 128 C617 74 553 44 477 44 C401 44 339 74 310 124 C292 156 286 194 286 275 L286 521 C287 605 304 623 380 623 L393 623 L393 667 L20 667 L20 623 L31 623 C107 624 125 605 126 521 L125 254 C125 156 145 106 202 58 C257 12 336 -13 429 -13 C522 -13 611 14 662 58 C711 101 738 173 738 260 L738 519 C736 585 760 613 825 623 L832 623 L832 667 L583 667 Z M262 810 L262 758 L628 758 L628 810 L262 810 Z " />
<glyph glyph-name="umacron" unicode="&#x16b;" horiz-adv-x="629" d="M533 403 L333 403 L333 361 L339 361 C393 360 402 348 404 279 L404 145 C399 132 398 129 398 127 C383 86 332 51 284 51 C267 51 251 57 238 68 C224 79 219 97 219 134 L219 403 L15 403 L15 361 L20 361 C74 360 87 344 90 279 L90 130 C90 88 94 68 106 47 C128 9 181 -16 238 -16 C302 -16 359 11 404 63 C404 34 405 18 410 -16 L415 -16 C448 -7 547 1 611 0 L611 42 L607 42 C551 43 536 60 533 125 L533 403 Z M156 541 L483 541 L483 590 L156 590 L156 541 Z " />
<glyph glyph-name="ubreve" unicode="&#x16d;" horiz-adv-x="629" d="M533 403 L333 403 L333 361 L339 361 C393 360 402 348 404 279 L404 145 C399 132 398 129 398 127 C383 86 332 51 284 51 C267 51 251 57 238 68 C224 79 219 97 219 134 L219 403 L15 403 L15 361 L20 361 C74 360 87 344 90 279 L90 130 C90 88 94 68 106 47 C128 9 181 -16 238 -16 C302 -16 359 11 404 63 C404 34 405 18 410 -16 L415 -16 C448 -7 547 1 611 0 L611 42 L607 42 C551 43 536 60 533 125 L533 403 Z M173 648 L173 645 C173 606 189 567 217 535 C244 504 276 489 316 489 C395 489 454 556 458 648 L431 648 C413 596 376 571 318 571 C257 571 217 598 201 648 L173 648 Z " />
<glyph glyph-name="Uring" unicode="&#x16e;" horiz-adv-x="853" d="M583 667 L583 623 L589 623 C661 620 690 588 688 511 L688 286 C688 189 682 159 659 128 C617 74 553 44 477 44 C401 44 339 74 310 124 C292 156 286 194 286 275 L286 521 C287 605 304 623 380 623 L393 623 L393 667 L20 667 L20 623 L31 623 C107 624 125 605 126 521 L125 254 C125 156 145 106 202 58 C257 12 336 -13 429 -13 C522 -13 611 14 662 58 C711 101 738 173 738 260 L738 519 C736 585 760 613 825 623 L832 623 L832 667 L583 667 Z M466 911 C407 911 359 863 359 804 C359 746 407 697 464 697 C524 697 572 744 572 804 C572 863 524 911 466 911 L466 911 Z M465 872 C503 872 533 842 533 804 C533 767 502 736 465 736 C428 736 398 767 398 805 C398 841 429 872 465 872 L465 872 Z " />
<glyph glyph-name="uring" unicode="&#x16f;" horiz-adv-x="629" d="M533 403 L333 403 L333 361 L339 361 C393 360 402 348 404 279 L404 145 C399 132 398 129 398 127 C383 86 332 51 284 51 C267 51 251 57 238 68 C224 79 219 97 219 134 L219 403 L15 403 L15 361 L20 361 C74 360 87 344 90 279 L90 130 C90 88 94 68 106 47 C128 9 181 -16 238 -16 C302 -16 359 11 404 63 C404 34 405 18 410 -16 L415 -16 C448 -7 547 1 611 0 L611 42 L607 42 C551 43 536 60 533 125 L533 403 Z M324 682 C265 682 217 634 217 575 C217 518 265 469 322 469 C382 469 430 516 430 576 C430 634 382 682 324 682 L324 682 Z M323 643 C361 643 391 613 391 576 C391 538 360 508 323 508 C286 508 256 538 256 576 C256 613 287 643 323 643 L323 643 Z " />
<glyph glyph-name="Uhungarumlaut" unicode="&#x170;" horiz-adv-x="853" d="M583 667 L583 623 L589 623 C661 620 690 588 688 511 L688 286 C688 189 682 159 659 128 C617 74 553 44 477 44 C401 44 339 74 310 124 C292 156 286 194 286 275 L286 521 C287 605 304 623 380 623 L393 623 L393 667 L20 667 L20 623 L31 623 C107 624 125 605 126 521 L125 254 C125 156 145 106 202 58 C257 12 336 -13 429 -13 C522 -13 611 14 662 58 C711 101 738 173 738 260 L738 519 C736 585 760 613 825 623 L832 623 L832 667 L583 667 Z M315 729 L348 729 L570 869 L570 877 L415 877 L315 729 Z M540 729 L572 729 L794 869 L794 877 L639 877 L540 729 Z " />
<glyph glyph-name="uhungarumlaut" unicode="&#x171;" horiz-adv-x="629" d="M533 403 L333 403 L333 361 L339 361 C393 360 402 348 404 279 L404 145 C399 132 398 129 398 127 C383 86 332 51 284 51 C267 51 251 57 238 68 C224 79 219 97 219 134 L219 403 L15 403 L15 361 L20 361 C74 360 87 344 90 279 L90 130 C90 88 94 68 106 47 C128 9 181 -16 238 -16 C302 -16 359 11 404 63 C404 34 405 18 410 -16 L415 -16 C448 -7 547 1 611 0 L611 42 L607 42 C551 43 536 60 533 125 L533 403 Z M178 488 L212 488 L386 642 L386 649 L258 649 L178 488 Z M370 488 L404 488 L577 642 L577 649 L450 649 L370 488 Z " />
<glyph glyph-name="Uogonek" unicode="&#x172;" horiz-adv-x="853" d="M738 519 C736 585 760 613 825 623 L832 623 L832 667 L583 667 L583 623 L589 623 C661 620 690 588 688 511 L688 286 C688 189 682 159 659 128 C617 74 553 44 477 44 C401 44 339 74 310 124 C292 156 286 194 286 275 L286 521 C287 605 304 623 380 623 L393 623 L393 667 L20 667 L20 623 L31 623 C107 624 125 605 126 521 L125 254 C125 156 145 106 202 58 C256 12 337 -13 426 -13 C461 -13 492 -10 527 -3 C473 -27 439 -69 439 -114 C439 -169 494 -209 569 -209 C612 -209 644 -199 690 -171 L673 -144 C647 -156 633 -160 612 -160 C565 -160 533 -133 533 -92 C533 -47 554 -16 618 29 C694 63 736 144 738 260 L738 519 Z " />
<glyph glyph-name="uogonek" unicode="&#x173;" horiz-adv-x="629" d="M611 42 L607 42 C551 43 536 60 533 125 L533 403 L333 403 L333 361 L339 361 C393 360 402 348 404 279 L404 145 C399 132 398 129 398 127 C383 86 332 51 284 51 C267 51 251 57 238 68 C224 79 219 97 219 134 L219 403 L15 403 L15 361 L20 361 C74 360 87 344 90 279 L90 130 C90 88 94 68 106 47 C128 9 181 -16 238 -16 C302 -16 359 11 404 63 C404 34 405 18 410 -16 L415 -16 C434 -12 447 -9 476 -7 C435 -31 408 -70 408 -107 C408 -156 456 -192 520 -192 C557 -192 583 -183 624 -158 L611 -135 C589 -144 578 -147 561 -147 C519 -147 490 -120 490 -82 C490 -54 502 -28 528 -2 C561 0 581 0 611 0 L611 42 Z " />
<glyph glyph-name="Wcircumflex" unicode="&#x174;" horiz-adv-x="1035" d="M779 -14 L931 472 C968 592 987 619 1038 623 L1047 623 L1047 667 L824 667 L824 623 L829 623 C870 623 898 601 898 567 C898 555 892 528 884 500 L792 201 L596 667 L530 667 L363 201 L251 529 C242 554 237 577 237 588 C237 610 257 622 297 623 L303 623 L303 667 L-11 667 L-11 623 L-2 623 C49 621 60 608 93 511 L271 -14 L337 -14 L512 468 L715 -14 L779 -14 Z M476 879 L368 729 L400 729 L546 817 L711 729 L742 729 L633 879 L476 879 Z " />
<glyph glyph-name="Ycircumflex" unicode="&#x176;" horiz-adv-x="728" d="M420 332 L288 541 C270 570 265 581 265 592 C265 613 285 623 324 623 L330 623 L330 667 L-14 667 L-14 623 L-7 623 C39 621 58 606 105 535 L290 267 L290 149 C290 69 267 44 194 44 L181 44 L181 0 L547 0 L547 44 L536 44 C462 43 439 68 439 149 L439 277 L604 512 C661 597 684 616 736 623 L742 623 L742 667 L494 667 L494 623 L500 623 C545 623 571 606 571 576 C571 560 562 539 546 515 L420 332 Z M306 879 L197 729 L229 729 L375 817 L540 729 L572 729 L462 879 L306 879 Z " />
<glyph glyph-name="ycircumflex" unicode="&#x177;" horiz-adv-x="553" d="M-6 403 L-6 361 L2 361 C31 360 46 346 76 293 L261 -15 L239 -65 C218 -106 200 -118 132 -135 C86 -147 64 -166 64 -196 C64 -227 92 -250 130 -250 C181 -250 217 -217 262 -128 L454 251 C494 337 507 353 543 360 L550 361 L550 403 L389 403 L389 361 L398 361 C417 361 439 348 438 337 C438 329 431 311 418 286 L335 118 L228 301 C221 313 216 328 216 338 C216 353 225 359 249 361 L256 361 L256 403 L-6 403 Z M412 489 L448 489 L361 652 L257 652 L168 489 L201 489 L305 578 L412 489 Z " />
<glyph glyph-name="Ydieresis" unicode="&#x178;" horiz-adv-x="728" d="M420 332 L288 541 C270 570 265 581 265 592 C265 613 285 623 324 623 L330 623 L330 667 L-14 667 L-14 623 L-7 623 C39 621 58 606 105 535 L290 267 L290 149 C290 69 267 44 194 44 L181 44 L181 0 L547 0 L547 44 L536 44 C462 43 439 68 439 149 L439 277 L604 512 C661 597 684 616 736 623 L742 623 L742 667 L494 667 L494 623 L500 623 C545 623 571 606 571 576 C571 560 562 539 546 515 L420 332 Z M242 861 C204 861 174 831 174 793 C174 756 205 725 241 725 C280 725 310 755 310 793 C310 831 280 861 242 861 L242 861 Z M537 861 C500 861 469 830 469 794 C469 755 499 725 537 725 C574 725 605 756 605 793 C605 831 575 861 537 861 L537 861 Z " />
<glyph glyph-name="Zacute" unicode="&#x179;" horiz-adv-x="731" d="M36 0 L673 0 L690 190 L641 190 C594 70 557 45 422 47 L235 47 L668 630 L668 667 L75 667 L59 497 L106 497 C142 601 181 625 313 621 L469 621 L36 35 L36 0 Z M323 729 L356 729 L602 869 L602 877 L423 877 L323 729 Z " />
<glyph glyph-name="zacute" unicode="&#x17a;" horiz-adv-x="515" d="M31 0 L468 0 L482 134 L436 134 C402 59 382 44 318 43 L212 43 L474 366 L474 403 L55 403 L46 283 L91 283 C124 353 133 361 173 360 L295 360 L31 33 L31 0 Z M233 488 L267 488 L465 642 L465 649 L313 649 L233 488 Z " />
<glyph glyph-name="Zdotaccent" unicode="&#x17b;" horiz-adv-x="731" d="M36 0 L673 0 L690 190 L641 190 C594 70 557 45 422 47 L235 47 L668 630 L668 667 L75 667 L59 497 L106 497 C142 601 181 625 313 621 L469 621 L36 35 L36 0 Z M380 861 C342 861 312 831 312 793 C312 756 343 725 379 725 C418 725 448 755 448 793 C448 831 418 861 380 861 L380 861 Z " />
<glyph glyph-name="zdotaccent" unicode="&#x17c;" horiz-adv-x="515" d="M31 0 L468 0 L482 134 L436 134 C402 59 382 44 318 43 L212 43 L474 366 L474 403 L55 403 L46 283 L91 283 C124 353 133 361 173 360 L295 360 L31 33 L31 0 Z M280 633 C247 633 220 606 220 573 C220 540 247 513 279 513 C313 513 340 539 340 573 C340 606 313 633 280 633 L280 633 Z " />
<glyph glyph-name="Zcaron" unicode="&#x17d;" horiz-adv-x="731" d="M36 0 L673 0 L690 190 L641 190 C594 70 557 45 422 47 L235 47 L668 630 L668 667 L75 667 L59 497 L106 497 C142 601 181 625 313 621 L469 621 L36 35 L36 0 Z M457 729 L568 879 L536 879 L389 791 L225 879 L193 879 L301 729 L457 729 Z " />
<glyph glyph-name="zcaron" unicode="&#x17e;" horiz-adv-x="515" d="M31 0 L468 0 L482 134 L436 134 C402 59 382 44 318 43 L212 43 L474 366 L474 403 L55 403 L46 283 L91 283 C124 353 133 361 173 360 L295 360 L31 33 L31 0 Z M166 655 L133 655 L224 491 L328 491 L413 655 L378 655 L279 566 L166 655 Z " />
<glyph glyph-name="florin" unicode="&#x192;" horiz-adv-x="583" d="M405 444 C412 482 415 512 415 550 C415 599 422 634 435 646 C448 659 462 665 477 665 C487 665 495 660 495 654 C495 651 492 646 486 639 C478 631 472 619 473 613 C473 594 493 577 516 577 C545 577 567 598 567 627 C567 664 534 688 481 688 C408 688 362 648 323 548 C282 456 274 449 195 444 L189 444 L178 393 L262 393 L260 384 C249 336 239 294 213 190 C185 74 182 51 176 -40 C171 -120 171 -120 166 -134 C154 -164 130 -187 110 -187 C101 -187 93 -182 93 -178 C93 -176 94 -174 96 -172 C108 -160 110 -157 110 -150 C110 -129 91 -114 65 -114 C36 -114 13 -135 13 -161 C13 -193 47 -217 90 -217 C139 -217 189 -188 227 -137 C277 -71 319 44 354 214 C356 222 357 229 358 230 L394 393 L481 393 L493 444 L405 444 Z " />
<glyph glyph-name="uni01CD" unicode="&#x1cd;" horiz-adv-x="723" d="M737 0 L737 44 L731 44 C678 50 663 66 620 157 L385 678 L336 678 L110 170 C74 86 42 51 -7 44 L-15 44 L-15 0 L219 0 L219 44 L211 44 C169 44 141 63 141 91 C141 107 145 120 167 170 L181 202 L425 202 L452 144 C471 102 477 86 477 75 C477 53 456 44 406 44 L399 44 L399 0 L737 0 Z M406 247 L200 247 L302 475 L406 247 Z M439 729 L549 879 L517 879 L371 791 L206 879 L174 879 L282 729 L439 729 Z " />
<glyph glyph-name="uni01CE" unicode="&#x1ce;" horiz-adv-x="587" d="M543 84 C538 61 525 49 507 49 C485 49 476 65 476 108 L476 287 C476 334 472 349 452 371 C422 403 368 419 286 419 C212 419 153 407 113 383 C76 362 58 340 58 316 C58 290 82 272 115 272 C151 272 172 288 179 323 C183 341 188 352 194 358 C205 368 232 375 259 375 C286 375 313 368 326 357 C339 347 344 329 344 298 L344 267 L300 251 C279 244 263 238 252 234 C172 207 110 177 73 146 C55 132 42 104 42 80 C42 26 93 -10 167 -10 C227 -10 290 10 350 49 C369 9 406 -10 462 -10 C534 -10 578 25 581 84 L543 84 Z M344 93 C308 65 270 50 238 50 C201 50 170 76 170 107 C170 123 181 143 196 155 C229 181 248 190 344 223 L344 93 Z M183 655 L150 655 L240 491 L345 491 L430 655 L395 655 L295 566 L183 655 Z " />
<glyph glyph-name="uni01D3" unicode="&#x1d3;" horiz-adv-x="853" d="M583 667 L583 623 L589 623 C661 620 690 588 688 511 L688 286 C688 189 682 159 659 128 C617 74 553 44 477 44 C401 44 339 74 310 124 C292 156 286 194 286 275 L286 521 C287 605 304 623 380 623 L393 623 L393 667 L20 667 L20 623 L31 623 C107 624 125 605 126 521 L125 254 C125 156 145 106 202 58 C257 12 336 -13 429 -13 C522 -13 611 14 662 58 C711 101 738 173 738 260 L738 519 C736 585 760 613 825 623 L832 623 L832 667 L583 667 Z M537 729 L648 879 L616 879 L469 791 L305 879 L273 879 L381 729 L537 729 Z " />
<glyph glyph-name="uni01D4" unicode="&#x1d4;" horiz-adv-x="629" d="M533 403 L333 403 L333 361 L339 361 C393 360 402 348 404 279 L404 145 C399 132 398 129 398 127 C383 86 332 51 284 51 C267 51 251 57 238 68 C224 79 219 97 219 134 L219 403 L15 403 L15 361 L20 361 C74 360 87 344 90 279 L90 130 C90 88 94 68 106 47 C128 9 181 -16 238 -16 C302 -16 359 11 404 63 C404 34 405 18 410 -16 L415 -16 C448 -7 547 1 611 0 L611 42 L607 42 C551 43 536 60 533 125 L533 403 Z M215 655 L181 655 L272 491 L377 491 L461 655 L426 655 L327 566 L215 655 Z " />
<glyph glyph-name="Gcaron" unicode="&#x1e6;" horiz-adv-x="860" d="M504 300 L504 256 L515 256 C577 252 594 238 597 186 L597 161 C597 129 592 111 581 94 C558 59 504 37 441 37 C355 37 288 70 254 129 C230 172 218 235 218 319 C218 411 231 479 258 529 C290 588 361 625 444 625 C565 625 650 558 683 436 L728 436 L724 667 L680 667 C678 640 671 618 659 595 C593 653 517 680 424 680 C322 680 232 647 164 585 C91 517 47 420 47 324 C47 132 206 -13 417 -13 C472 -13 510 -7 593 13 C645 26 696 34 732 34 C737 34 744 34 755 32 L755 149 C754 232 766 250 828 255 L838 256 L838 300 L504 300 Z M512 729 L622 879 L590 879 L444 791 L280 879 L248 879 L355 729 L512 729 Z " />
<glyph glyph-name="gcaron" unicode="&#x1e7;" horiz-adv-x="567" d="M167 139 C95 123 60 93 60 44 C60 -25 126 -53 290 -53 C419 -53 464 -69 464 -117 C464 -174 392 -208 270 -208 C172 -208 108 -177 108 -130 C108 -114 114 -104 132 -83 C114 -77 105 -75 93 -75 C60 -75 33 -102 33 -135 C33 -166 53 -196 86 -215 C125 -238 187 -249 269 -249 C440 -249 540 -188 540 -83 C540 -22 506 21 442 41 C408 51 359 56 266 56 C162 57 140 62 140 84 C140 110 173 122 247 124 C308 125 338 130 376 144 C442 170 479 216 479 275 C479 301 472 325 456 348 C467 360 476 365 487 365 C496 365 501 362 512 351 C523 339 532 335 544 335 C564 335 578 350 578 372 C578 400 557 418 524 418 C495 418 470 406 430 373 C387 405 338 419 270 419 C137 419 50 362 50 276 C50 213 96 160 167 139 L167 139 Z M264 376 C322 376 354 340 354 277 C354 205 326 169 268 169 C207 169 176 205 176 276 C176 339 208 376 264 376 L264 376 Z M163 655 L130 655 L220 491 L325 491 L410 655 L375 655 L275 566 L163 655 Z " />
<glyph glyph-name="Scommaaccent" unicode="&#x218;" horiz-adv-x="615" d="M62 10 L114 10 C119 35 125 51 135 67 C184 16 256 -13 335 -13 C471 -13 573 73 573 188 C573 237 553 285 517 319 C482 353 431 380 325 420 C213 463 174 496 174 547 C174 597 218 632 282 632 C367 632 436 573 463 478 L511 478 L511 667 L462 667 L461 664 L460 657 C457 642 451 630 441 617 C395 659 341 679 279 679 C158 679 64 598 64 492 C64 443 85 397 123 362 C156 333 210 304 313 262 C411 223 453 185 453 136 C453 79 399 37 325 37 C258 37 198 69 158 127 C140 153 128 184 114 233 L62 233 L62 10 Z M237 -327 C339 -318 405 -257 405 -171 C405 -104 367 -59 310 -59 C264 -59 231 -89 231 -130 C231 -166 259 -194 294 -194 C301 -194 305 -193 320 -190 C326 -188 327 -188 330 -188 C339 -188 347 -198 347 -210 C347 -246 301 -277 237 -284 L237 -327 Z " />
<glyph glyph-name="scommaaccent" unicode="&#x219;" horiz-adv-x="459" d="M46 -12 L85 -12 C91 2 98 12 108 20 C113 19 114 18 120 15 C158 -5 200 -16 246 -16 C350 -16 420 39 420 121 C420 186 372 236 291 255 C209 274 202 276 173 288 C147 299 131 316 131 333 C131 360 165 381 210 381 C275 381 331 345 350 290 L389 290 L389 414 L352 414 C344 400 338 391 331 386 C289 406 238 419 205 419 C116 419 45 363 45 292 C45 235 97 188 187 163 C282 138 283 137 309 119 C320 110 328 95 328 82 C328 49 290 25 236 25 C165 25 112 60 88 122 L46 122 L46 -12 Z M161 -301 C251 -292 311 -233 311 -154 C311 -96 278 -59 225 -59 C183 -59 153 -84 153 -118 C153 -147 178 -171 210 -171 C215 -171 220 -170 226 -169 C240 -166 240 -166 242 -166 C251 -166 258 -175 258 -187 C258 -223 216 -256 161 -262 L161 -301 Z " />
<glyph glyph-name="uni021A" unicode="&#x21a;" horiz-adv-x="763" d="M64 487 C86 599 111 620 223 620 L305 620 L305 149 C305 69 281 43 209 44 L183 44 L183 0 L575 0 L575 44 L549 44 C477 43 453 69 453 149 L453 620 L539 620 C642 620 668 598 696 487 L745 487 L743 667 L17 667 L16 487 L64 487 Z M299 -327 C401 -318 467 -257 467 -171 C467 -104 429 -59 372 -59 C326 -59 293 -89 293 -130 C293 -166 321 -194 356 -194 C363 -194 367 -193 382 -190 C388 -188 389 -188 392 -188 C401 -188 409 -198 409 -210 C409 -246 363 -277 299 -284 L299 -327 Z " />
<glyph glyph-name="uni021B" unicode="&#x21b;" horiz-adv-x="371" d="M357 359 L357 403 L222 403 L222 534 L179 534 C165 457 102 402 27 402 C26 402 22 402 17 403 L17 359 L83 359 L83 127 C83 33 130 -16 221 -16 C292 -16 349 15 374 68 L333 82 C316 53 298 41 272 41 C253 41 240 48 232 63 C224 78 222 89 222 139 L222 359 L357 359 Z M135 -301 C225 -292 285 -233 285 -154 C285 -96 252 -59 199 -59 C157 -59 127 -84 127 -118 C127 -147 152 -171 184 -171 C189 -171 194 -170 200 -169 C214 -166 214 -166 216 -166 C225 -166 232 -175 232 -187 C232 -223 190 -256 135 -262 L135 -301 Z " />
<glyph glyph-name="afii57929" unicode="&#x2bc;" horiz-adv-x="332" d="M79 355 C190 363 264 437 264 540 C264 621 221 675 155 675 C106 675 71 643 71 599 C71 558 104 527 146 527 C153 527 161 528 168 530 C176 532 182 533 186 533 C197 533 206 521 206 506 C206 454 152 411 79 403 L79 355 Z " />
<glyph glyph-name="circumflex" unicode="&#x2c6;" horiz-adv-x="522" d="M366 489 L401 489 L315 652 L210 652 L121 489 L154 489 L258 578 L366 489 Z " />
<glyph glyph-name="caron" unicode="&#x2c7;" horiz-adv-x="522" d="M154 655 L121 655 L212 491 L316 491 L401 655 L366 655 L267 566 L154 655 Z " />
<glyph glyph-name="uni02C9" unicode="&#x2c9;" horiz-adv-x="393" d="M33 541 L360 541 L360 590 L33 590 L33 541 Z " />
<glyph glyph-name="breve" unicode="&#x2d8;" horiz-adv-x="521" d="M114 648 L114 645 C114 608 130 566 158 535 C184 504 217 489 257 489 C335 489 395 556 399 648 L372 648 C354 596 317 571 259 571 C198 571 158 598 142 648 L114 648 Z " />
<glyph glyph-name="dotaccent" unicode="&#x2d9;" horiz-adv-x="538" d="M269 633 C236 633 209 606 209 573 C209 540 236 513 268 513 C302 513 329 539 329 573 C329 606 302 633 269 633 L269 633 Z " />
<glyph glyph-name="ring" unicode="&#x2da;" horiz-adv-x="500" d="M248 682 C189 682 141 634 141 575 C141 518 189 469 246 469 C306 469 354 516 354 576 C354 634 306 682 248 682 L248 682 Z M247 643 C285 643 315 613 315 576 C315 538 284 508 247 508 C210 508 180 538 180 576 C180 613 211 643 247 643 L247 643 Z " />
<glyph glyph-name="ogonek" unicode="&#x2db;" horiz-adv-x="500" d="M338 8 C273 -20 238 -59 238 -106 C238 -156 285 -192 350 -192 C387 -192 414 -183 454 -158 L441 -135 C419 -144 408 -147 391 -147 C350 -147 320 -121 320 -83 C320 -50 334 -24 369 8 L338 8 Z " />
<glyph glyph-name="tilde" unicode="&#x2dc;" horiz-adv-x="519" d="M132 503 C138 535 152 550 176 550 C192 550 208 544 243 526 C276 509 295 503 316 503 C354 503 382 523 399 560 C406 576 409 592 411 635 L381 635 C379 600 363 582 335 582 C322 582 310 586 288 598 C244 621 222 629 196 629 C166 629 134 611 121 587 C108 564 103 540 103 503 L132 503 Z " />
<glyph glyph-name="hungarumlaut" unicode="&#x2dd;" horiz-adv-x="529" d="M128 488 L162 488 L335 642 L335 649 L208 649 L128 488 Z M320 488 L353 488 L527 642 L527 649 L400 649 L320 488 Z " />
<glyph glyph-name="Wdieresis" unicode="&#x1e84;" horiz-adv-x="1035" d="M779 -14 L931 472 C968 592 987 619 1038 623 L1047 623 L1047 667 L824 667 L824 623 L829 623 C870 623 898 601 898 567 C898 555 892 528 884 500 L792 201 L596 667 L530 667 L363 201 L251 529 C242 554 237 577 237 588 C237 610 257 622 297 623 L303 623 L303 667 L-11 667 L-11 623 L-2 623 C49 621 60 608 93 511 L271 -14 L337 -14 L512 468 L715 -14 L779 -14 Z M408 861 C370 861 340 831 340 793 C340 756 371 725 407 725 C446 725 476 755 476 793 C476 831 446 861 408 861 L408 861 Z M703 861 C666 861 635 830 635 794 C635 755 665 725 703 725 C740 725 771 756 771 793 C771 831 741 861 703 861 L703 861 Z " />
<glyph glyph-name="uni2011" unicode="&#x2011;" horiz-adv-x="369" d="M35 247 L35 182 L336 182 L336 247 L35 247 Z " />
<glyph glyph-name="figuredash" unicode="&#x2012;" horiz-adv-x="611" d="M22 243 L22 193 L589 193 L589 243 L22 243 Z " />
<glyph glyph-name="endash" unicode="&#x2013;" horiz-adv-x="611" d="M22 243 L22 193 L589 193 L589 243 L22 243 Z " />
<glyph glyph-name="emdash" unicode="&#x2014;" horiz-adv-x="964" d="M22 243 L22 193 L942 193 L942 243 L22 243 Z " />
<glyph glyph-name="afii00208" unicode="&#x2015;" horiz-adv-x="964" d="M22 243 L22 193 L942 193 L942 243 L22 243 Z " />
<glyph glyph-name="quoteleft" unicode="&#x2018;" horiz-adv-x="332" d="M258 675 C146 667 73 594 73 491 C73 409 116 355 182 355 C230 355 266 387 266 431 C266 472 233 503 191 503 C184 503 176 502 169 500 C161 498 155 497 151 497 C140 497 131 509 131 524 C131 576 185 619 258 627 L258 675 Z " />
<glyph glyph-name="quoteright" unicode="&#x2019;" horiz-adv-x="297" d="M61 355 C172 363 246 437 246 540 C246 621 203 675 137 675 C88 675 53 643 53 599 C53 558 86 527 128 527 C135 527 143 528 150 530 C158 532 164 533 168 533 C179 533 188 521 188 506 C188 454 134 411 61 403 L61 355 Z " />
<glyph glyph-name="quotesinglbase" unicode="&#x201a;" horiz-adv-x="338" d="M79 -186 C195 -179 270 -106 270 -1 C270 80 225 133 158 133 C108 133 71 101 71 57 C71 16 105 -15 149 -15 C157 -15 165 -14 173 -12 C181 -10 187 -9 191 -9 C202 -9 212 -21 212 -36 C212 -89 158 -131 79 -139 L79 -186 Z " />
<glyph glyph-name="quotedblleft" unicode="&#x201c;" horiz-adv-x="601" d="M254 675 C142 667 69 594 69 491 C69 409 112 355 178 355 C226 355 262 387 262 431 C262 472 229 503 187 503 C180 503 172 502 165 500 C157 498 151 497 147 497 C136 497 127 509 127 524 C127 576 181 619 254 627 L254 675 Z M533 675 C421 667 348 594 348 491 C348 409 391 355 457 355 C506 355 541 387 541 431 C541 472 508 503 466 503 C459 503 451 502 444 500 C436 498 430 497 426 497 C415 497 406 509 406 524 C406 576 459 619 533 627 L533 675 Z " />
<glyph glyph-name="quotedblright" unicode="&#x201d;" horiz-adv-x="601" d="M68 355 C179 363 253 437 253 540 C253 621 210 675 144 675 C95 675 60 643 60 599 C60 558 93 527 135 527 C142 527 150 528 157 530 C165 532 171 533 175 533 C186 533 195 521 195 506 C195 454 141 411 68 403 L68 355 Z M349 355 C460 363 534 437 534 540 C534 621 491 675 425 675 C376 675 341 643 341 599 C341 558 374 527 416 527 C423 527 431 528 438 530 C446 532 452 533 455 533 C467 533 476 521 476 506 C476 454 422 411 349 403 L349 355 Z " />
<glyph glyph-name="quotedblbase" unicode="&#x201e;" horiz-adv-x="607" d="M64 -186 C180 -178 255 -105 255 -1 C255 80 210 133 143 133 C93 133 56 101 56 57 C56 17 90 -15 131 -15 C138 -15 148 -14 158 -12 C163 -11 168 -10 169 -10 C172 -10 174 -10 175 -9 L178 -8 C189 -9 197 -20 197 -34 C197 -89 143 -131 64 -139 L64 -186 Z M345 -186 C461 -178 536 -105 536 -1 C536 80 491 133 424 133 C374 133 337 101 337 57 C337 17 371 -15 412 -15 C420 -15 429 -14 439 -12 C444 -11 449 -10 450 -10 C453 -10 455 -10 456 -9 L459 -8 C469 -8 478 -21 478 -35 C478 -89 424 -131 345 -139 L345 -186 Z " />
<glyph glyph-name="dagger" unicode="&#x2020;" horiz-adv-x="550" d="M300 -243 L300 -118 C300 -77 308 90 312 119 C323 225 323 226 323 254 C323 297 316 346 308 365 C304 373 303 375 303 388 C322 385 339 381 355 375 C414 353 429 349 458 349 C496 349 522 375 522 411 C522 448 495 473 457 473 C436 473 405 466 375 455 C335 440 325 437 300 433 C301 436 302 439 302 440 L304 447 C305 449 307 454 309 461 L312 469 C314 477 317 484 319 490 C321 495 322 499 326 511 C341 552 347 579 347 600 C347 646 319 675 276 675 C232 675 205 646 205 599 C205 575 210 552 225 512 C230 498 231 496 233 490 L241 469 L243 463 C245 456 247 450 248 447 L250 441 C251 440 252 437 253 433 C229 435 218 438 172 456 C144 466 115 473 95 473 C60 473 34 447 34 411 C34 375 60 350 98 350 C121 350 156 358 191 371 C217 381 232 385 253 388 C253 375 253 374 247 363 C237 341 231 299 231 255 C231 240 232 224 233 209 L236 170 C236 167 237 150 238 123 C239 117 241 80 243 44 C250 -57 253 -145 253 -190 L253 -243 L300 -243 Z " />
<glyph glyph-name="daggerdbl" unicode="&#x2021;" horiz-adv-x="565" d="M313 255 C314 265 315 273 317 279 C324 305 328 331 328 349 C328 374 322 397 308 427 C332 421 353 415 365 411 C420 391 434 388 460 388 C497 388 524 414 524 450 C524 488 497 512 453 512 C434 512 412 507 376 494 C338 480 327 477 308 473 C311 491 316 508 327 534 C348 585 350 593 350 619 C350 653 323 677 283 677 C241 677 214 653 214 615 C214 595 220 574 234 541 C249 509 256 486 258 473 C241 476 226 479 206 487 C142 509 131 512 103 512 C67 512 39 485 39 450 C39 416 66 388 101 388 C121 388 148 394 176 403 C216 417 232 422 258 427 C243 393 237 370 237 348 C237 337 239 324 244 307 C251 279 251 277 253 255 L313 255 Z M253 178 C251 156 249 138 244 117 C239 95 237 80 237 73 C237 53 243 34 257 5 C244 7 224 12 198 21 C139 41 128 44 102 44 C67 44 39 17 39 -18 C39 -54 66 -79 106 -79 C127 -79 150 -73 200 -56 C225 -47 244 -42 257 -40 C256 -54 248 -76 233 -111 C220 -142 214 -162 214 -181 C214 -221 241 -245 284 -245 C323 -245 350 -221 350 -186 C350 -167 345 -145 336 -122 C317 -74 315 -67 308 -40 C323 -42 347 -49 383 -62 C411 -73 439 -79 459 -79 C496 -79 524 -52 524 -16 C524 19 497 45 461 45 C442 45 417 40 392 31 C359 19 348 16 308 5 C323 31 329 51 329 73 C329 83 327 97 323 114 C317 140 314 156 313 178 L253 178 Z " />
<glyph glyph-name="bullet" unicode="&#x2022;" horiz-adv-x="733" d="M367 480 C285 480 216 417 216 342 C216 263 283 200 367 200 C450 200 518 263 518 340 C518 418 451 480 367 480 L367 480 Z " />
<glyph glyph-name="ellipsis" unicode="&#x2026;" horiz-adv-x="1108" d="M186 136 C138 136 100 102 100 59 C100 17 138 -17 185 -17 C231 -17 269 17 269 60 C269 101 231 136 186 136 L186 136 Z M553 136 C505 136 467 102 467 60 C467 17 505 -17 552 -17 C598 -17 636 17 636 59 C636 101 598 136 553 136 L553 136 Z M920 136 C872 136 834 102 834 59 C834 17 872 -17 918 -17 C965 -17 1003 17 1003 60 C1003 101 965 136 920 136 L920 136 Z " />
<glyph glyph-name="perthousand" unicode="&#x2030;" horiz-adv-x="1212" d="M201 679 C156 679 116 665 90 640 C56 607 35 556 35 505 C35 401 98 334 195 334 C245 334 285 347 311 373 C344 404 364 455 364 508 C364 554 349 599 322 630 C294 663 254 679 201 679 L201 679 Z M201 646 C247 646 268 605 268 518 C268 412 248 368 200 368 C150 368 131 406 131 504 C131 609 149 646 201 646 L201 646 Z M258 0 L634 660 L571 660 L195 0 L258 0 Z M631 333 C586 333 546 319 520 294 C486 261 465 210 465 159 C465 53 527 -12 628 -12 C674 -12 715 2 741 27 C774 58 794 109 794 161 C794 207 778 253 752 284 C724 317 684 333 631 333 L631 333 Z M631 300 C677 300 698 259 698 172 C698 66 678 22 630 22 C580 22 561 60 561 158 C561 263 579 300 631 300 L631 300 Z M1014 333 C969 333 929 319 903 294 C869 261 848 210 848 159 C848 54 910 -12 1011 -12 C1057 -12 1098 2 1124 27 C1157 58 1177 109 1177 162 C1177 208 1162 253 1135 284 C1107 317 1067 333 1014 333 L1014 333 Z M1014 300 C1060 300 1081 259 1081 172 C1081 66 1061 22 1013 22 C963 22 944 60 944 158 C944 262 962 300 1014 300 L1014 300 Z " />
<glyph glyph-name="guilsinglleft" unicode="&#x2039;" horiz-adv-x="323" d="M30 216 L240 8 L291 8 L192 216 L290 423 L239 423 L30 216 Z " />
<glyph glyph-name="guilsinglright" unicode="&#x203a;" horiz-adv-x="323" d="M289 216 L79 423 L28 423 L127 216 L28 8 L78 8 L289 216 Z " />
<glyph glyph-name="uni203E" unicode="&#x203e;" horiz-adv-x="500" d="M0 847 L0 807 L500 807 L500 847 L0 847 Z " />
<glyph glyph-name="fraction" unicode="&#x2044;" horiz-adv-x="179" d="M-67 0 L310 660 L247 660 L-130 0 L-67 0 Z " />
<glyph glyph-name="franc" unicode="&#x20a3;" horiz-adv-x="923" d="M629 667 L31 667 L31 624 L45 624 C121 625 141 605 143 521 L143 149 C143 69 120 43 46 44 L31 44 L31 0 L408 0 L408 44 L388 44 C316 42 291 70 291 149 L291 326 L356 326 C426 325 442 311 448 237 L448 230 L497 230 L497 461 L448 461 L448 454 C442 388 426 374 357 373 L291 373 L291 621 L425 621 C520 624 558 595 585 494 L635 494 L629 667 Z M533 288 L540 288 C591 288 604 273 607 213 L607 113 C605 52 593 39 541 38 L534 38 L534 0 L803 0 L803 38 L791 38 C740 39 727 54 724 113 L724 142 C724 197 729 221 746 249 C762 276 780 289 801 289 C814 289 824 284 836 270 C858 244 867 239 888 239 C919 239 943 262 943 291 C943 331 908 361 863 361 C805 361 751 327 719 269 C718 306 714 336 705 361 C595 337 574 333 533 326 L533 288 Z " />
<glyph glyph-name="Euro" unicode="&#x20ac;" horiz-adv-x="849" d="M281 381 C285 427 292 466 302 493 C334 581 404 628 501 628 C575 628 649 595 689 545 C716 510 735 470 750 412 L797 412 L790 661 L743 661 C737 635 730 615 718 593 C658 649 577 679 485 679 C340 679 227 619 160 507 C136 467 121 425 115 381 L64 381 L43 335 L111 335 L111 307 L64 307 L43 261 L117 261 C149 96 292 -13 478 -13 C577 -13 663 18 724 76 C739 58 748 40 756 10 L804 10 L804 254 L756 254 C742 190 707 126 669 96 C624 60 564 40 505 40 C412 40 335 88 303 165 C293 192 286 222 282 261 L553 261 L575 307 L279 307 L279 323 L279 335 L589 335 L610 381 L281 381 Z " />
<glyph glyph-name="trademark" unicode="&#x2122;" horiz-adv-x="1029" d="M402 565 L402 667 L16 667 L16 565 L37 565 C41 623 62 642 125 643 L159 643 L159 348 C159 313 153 307 113 305 L92 305 L92 287 L325 287 L325 305 L305 305 C264 307 258 312 258 348 L258 643 L292 643 C355 643 378 623 381 565 L402 565 Z M418 667 L418 649 C468 648 476 644 475 620 L475 347 C476 318 462 308 420 305 L420 287 L562 287 L562 305 C520 308 504 320 505 347 L505 613 L661 287 L678 287 L839 603 L839 347 C839 314 832 307 793 305 L776 305 L776 287 L995 287 L995 305 L979 305 C943 307 936 314 936 347 L936 607 C936 640 943 647 979 649 L998 649 L998 667 L837 667 L710 420 L594 667 L418 667 Z " />
<glyph glyph-name="uni2126" unicode="&#x2126;" horiz-adv-x="768" d="M326 0 L308 155 C230 199 180 288 180 382 C180 434 195 493 221 540 C257 605 317 642 385 642 C453 642 513 605 549 540 C575 493 590 434 590 382 C590 288 540 199 462 155 L444 0 L736 0 L736 153 L712 153 C704 108 684 90 643 90 L497 90 L500 128 C535 141 557 151 580 166 C657 215 702 296 702 382 C702 449 673 522 625 578 C564 648 480 686 385 686 C290 686 206 648 145 578 C97 522 68 449 68 382 C68 296 113 215 190 166 C213 151 235 141 270 128 L273 90 L127 90 C86 90 66 108 58 153 L34 153 L34 0 L326 0 Z " />
<glyph glyph-name="partialdiff" unicode="&#x2202;" horiz-adv-x="494" d="M107 674 C152 697 184 706 219 706 C321 706 379 611 379 448 C379 418 377 395 372 346 C308 396 272 412 221 412 C172 412 131 394 95 355 C51 309 26 246 26 184 C26 76 109 -10 213 -10 C282 -10 341 22 383 84 C429 152 462 286 462 403 C462 519 428 611 360 681 C312 730 259 753 195 753 C156 753 122 746 66 725 L107 674 Z M366 312 C350 201 339 158 314 107 C288 54 245 21 201 21 C146 21 113 73 113 159 C113 273 180 367 261 367 C299 367 324 354 366 312 L366 312 Z " />
<glyph glyph-name="Delta" unicode="&#x2206;" horiz-adv-x="612" d="M6 0 L608 0 L327 688 L6 0 Z M77 51 L290 509 L479 51 L77 51 Z " />
<glyph glyph-name="product" unicode="&#x220f;" horiz-adv-x="823" d="M25 -124 L315 -124 L315 -98 L312 -98 C242 -94 221 -67 224 18 L224 594 C224 656 228 677 242 690 C260 707 272 708 413 708 C556 708 568 707 586 690 C600 677 604 656 604 594 L604 18 C607 -67 586 -94 516 -98 L513 -98 L513 -124 L803 -124 L803 -98 L800 -98 C730 -94 709 -67 712 18 L712 609 C709 694 730 721 800 725 L803 725 L803 751 L25 751 L25 725 L28 725 C98 721 119 694 116 609 L116 18 C119 -67 98 -94 28 -98 L25 -98 L25 -124 Z " />
<glyph glyph-name="summation" unicode="&#x2211;" horiz-adv-x="713" d="M176 711 L444 711 C560 710 590 688 606 587 L632 587 L622 752 L23 752 L256 285 L14 -123 L641 -123 L695 87 L669 87 C639 7 605 -12 491 -11 L163 -11 L364 341 L176 711 Z " />
<glyph glyph-name="minus" unicode="&#x2212;" horiz-adv-x="550" d="M10 396 L10 323 L540 323 L540 396 L10 396 Z " />
<glyph glyph-name="uni2215" unicode="&#x2215;" horiz-adv-x="179" d="M-67 0 L310 660 L247 660 L-130 0 L-67 0 Z " />
<glyph glyph-name="uni2219" unicode="&#x2219;" horiz-adv-x="315" d="M153 410 C106 410 68 375 68 333 C68 291 106 256 151 256 C199 256 237 290 237 333 C237 376 199 410 153 410 L153 410 Z " />
<glyph glyph-name="radical" unicode="&#x221a;" horiz-adv-x="549" d="M363 -35 L515 908 L480 913 L353 123 L156 520 L10 449 L26 414 L121 461 L363 -35 Z " />
<glyph glyph-name="infinity" unicode="&#x221e;" horiz-adv-x="713" d="M357 303 C300 375 234 414 171 414 C86 414 26 351 26 263 C26 176 84 115 167 115 C224 115 282 143 327 192 C335 201 340 207 357 228 C415 156 485 115 548 115 C631 115 688 176 688 266 C688 354 629 414 543 414 C476 414 412 376 357 303 L357 303 Z M391 265 C434 325 493 362 546 362 C600 362 638 321 638 264 C638 205 603 167 549 167 C495 167 461 188 391 265 L391 265 Z M324 266 C275 203 216 167 163 167 C111 167 76 207 76 266 C76 323 113 362 167 362 C218 362 259 337 324 266 L324 266 Z " />
<glyph glyph-name="integral" unicode="&#x222b;" horiz-adv-x="274" d="M180 576 C180 653 179 691 176 746 C174 774 173 800 173 815 C173 855 184 878 202 878 C208 878 213 876 215 872 C232 845 239 839 256 839 C276 839 291 853 291 871 C291 898 267 916 231 916 C186 916 152 887 138 838 C123 784 113 682 113 577 L113 232 C113 160 114 124 117 63 C119 34 120 4 120 -12 C120 -47 108 -70 89 -70 C81 -70 74 -65 68 -52 C59 -35 51 -30 37 -30 C17 -30 2 -44 2 -63 C2 -89 26 -107 62 -107 C107 -107 141 -78 155 -29 C170 25 180 126 180 232 L180 576 Z " />
<glyph glyph-name="approxequal" unicode="&#x2248;" horiz-adv-x="549" d="M489 251 C444 199 423 187 384 187 C365 187 354 190 285 211 C212 234 188 239 160 239 C101 239 54 211 14 155 L57 121 C103 174 120 184 159 184 C180 184 180 184 271 157 C350 133 354 132 385 132 C449 132 496 160 527 217 L489 251 Z M489 408 C443 356 424 344 384 344 C365 344 354 347 285 369 C212 392 188 397 160 397 C101 397 54 369 14 312 L57 279 C104 332 119 342 159 342 C181 342 181 342 271 315 C351 290 354 289 385 289 C449 289 496 318 527 375 L489 408 Z " />
<glyph glyph-name="notequal" unicode="&#x2260;" horiz-adv-x="549" d="M187 142 L115 -1 L161 -25 L246 142 L540 142 L540 197 L273 197 L344 336 L540 336 L540 391 L371 391 L439 525 L392 549 L312 391 L15 391 L15 336 L285 336 L215 197 L15 197 L15 142 L187 142 Z " />
<glyph glyph-name="lessequal" unicode="&#x2264;" horiz-adv-x="549" d="M526 55 L29 55 L29 0 L526 0 L526 55 Z M526 639 L29 405 L29 350 L526 117 L526 179 L108 378 L526 577 L526 639 Z " />
<glyph glyph-name="greaterequal" unicode="&#x2265;" horiz-adv-x="549" d="M526 55 L29 55 L29 0 L526 0 L526 55 Z M29 639 L29 577 L447 378 L29 179 L29 117 L526 350 L526 405 L29 639 Z " />
<glyph glyph-name="lozenge" unicode="&#x25ca;" horiz-adv-x="494" d="M209 0 L269 -1 L466 374 L277 740 L214 740 L18 377 L209 0 Z M240 58 L81 376 L245 683 L402 373 L240 58 Z " />
<glyph glyph-name="fi" unicode="&#xfb01;" horiz-adv-x="673" d="M15 360 L101 360 L101 124 C99 56 87 43 31 42 L20 42 L20 0 L314 0 L314 42 L309 42 C255 43 243 57 240 124 L240 360 L360 360 C431 360 443 349 446 288 L446 124 C443 57 432 43 376 42 L369 42 L369 0 L662 0 L662 42 L650 42 C593 42 578 59 575 124 L575 416 L567 416 C533 408 468 403 386 403 L240 403 L240 467 C240 537 244 569 256 590 C272 617 306 634 347 634 C386 634 408 620 426 583 C447 543 464 530 495 530 C531 530 561 557 561 588 C561 610 545 632 516 649 C481 669 433 678 365 678 C277 678 215 659 167 618 C120 577 101 526 101 438 L101 403 L15 403 L15 360 Z " />
<glyph glyph-name="fl" unicode="&#xfb02;" horiz-adv-x="672" d="M102 403 L16 403 L16 360 L102 360 L102 124 C100 56 88 43 33 42 L21 42 L21 0 L314 0 L314 42 L309 42 C255 43 243 57 241 124 L241 360 L446 360 L446 124 C444 57 431 43 376 42 L369 42 L369 0 L662 0 L662 42 L650 42 C594 43 579 59 576 124 L576 678 L570 678 C509 666 505 665 484 664 C453 673 414 678 372 678 C291 678 223 660 179 628 C126 588 102 526 102 429 L102 403 Z M241 403 L241 474 C241 532 246 566 258 587 C275 616 310 633 350 633 C393 633 416 620 438 585 C441 580 444 577 446 575 L446 403 L241 403 Z " />
</font>
</svg>
