<?xml version="1.0" encoding="UTF-8"?>
<svg xmlns="http://www.w3.org/2000/svg" xmlns:xlink="http://www.w3.org/1999/xlink" version="1.2" >
<font id="Baskerville URW Extra Narrow Ultra Bold">
<font-face  font-family="Baskerville URW Extra Narrow" units-per-em="1000" ascent="679" descent="-321" font-style="normal" font-weight="800" font-stretch="semi-condensed" cap-height="665" x-height="403" underline-position="-95" underline-thickness="101" />
<missing-glyph  horiz-adv-x="250" d="" />
<glyph glyph-name="NULL" d="" />
<glyph glyph-name="CR" unicode="&#xd;" horiz-adv-x="250" d="" />
<glyph glyph-name="space" unicode="&#x20;" horiz-adv-x="250" d="" />
<glyph glyph-name="exclam" unicode="&#x21;" horiz-adv-x="328" d="M194 227 L240 562 C242 581 244 600 244 613 C244 661 220 684 170 684 C111 684 88 663 88 609 C88 598 90 576 92 558 L137 227 L194 227 Z M165 178 C117 178 77 134 77 81 C77 26 116 -18 165 -18 C214 -18 253 26 253 80 C253 134 214 178 165 178 L165 178 Z " />
<glyph glyph-name="quotedbl" unicode="&#x22;" horiz-adv-x="481" d="M155 400 L207 667 L27 667 L79 400 L155 400 Z M400 400 L453 667 L273 667 L325 400 L400 400 Z " />
<glyph glyph-name="numbersign" unicode="&#x23;" horiz-adv-x="513" d="M342 226 L437 226 L448 300 L361 300 L385 381 L480 381 L491 455 L404 455 L463 667 L388 667 L330 455 L254 455 L312 667 L238 667 L180 455 L76 455 L65 381 L161 381 L137 300 L32 300 L20 226 L117 226 L55 0 L129 0 L191 226 L267 226 L205 0 L279 0 L342 226 Z M310 381 L286 300 L211 300 L234 381 L310 381 Z " />
<glyph glyph-name="dollar" unicode="&#x24;" horiz-adv-x="500" d="M207 -140 L272 -140 L272 -11 C384 2 458 84 458 194 C458 277 406 350 316 395 C305 400 294 406 284 411 L272 417 L272 584 C299 575 308 566 319 537 C332 499 333 498 345 485 C355 472 369 465 382 465 C411 465 436 493 436 527 C436 590 361 646 272 647 L272 677 L207 677 L207 644 C174 637 155 630 140 622 C88 593 53 528 53 459 C53 413 69 370 99 333 C120 307 136 295 177 273 C186 269 196 264 207 257 L207 53 C188 60 175 77 162 111 C148 142 132 155 106 155 C71 155 48 130 48 93 C48 35 102 -2 207 -14 L207 -140 Z M272 226 L281 217 C296 203 296 203 300 199 C316 181 324 157 324 127 C324 83 311 64 272 52 L272 226 Z M207 445 C174 466 158 490 158 521 C158 547 174 571 195 578 C204 581 206 582 207 583 L207 445 Z " />
<glyph glyph-name="percent" unicode="&#x25;" horiz-adv-x="737" d="M176 680 C136 680 101 666 77 641 C46 608 27 557 27 505 C27 398 83 333 173 333 C265 333 323 401 323 507 C323 614 267 680 176 680 L176 680 Z M175 632 C193 632 202 592 202 507 C202 421 193 381 175 381 C155 381 148 414 148 508 C148 599 155 632 175 632 L175 632 Z M251 0 L560 675 L487 675 L178 0 L251 0 Z M564 335 C524 335 489 321 465 296 C434 263 415 211 415 159 C415 53 471 -13 561 -13 C653 -13 711 55 711 162 C711 269 655 335 564 335 L564 335 Z M563 287 C581 287 590 247 590 161 C590 75 581 35 563 35 C543 35 536 68 536 163 C536 254 543 287 563 287 L563 287 Z " />
<glyph glyph-name="ampersand" unicode="&#x26;" horiz-adv-x="715" d="M389 298 L330 385 C384 419 413 468 413 528 C413 608 363 655 279 655 C185 655 131 598 131 499 C131 453 137 433 168 367 L171 361 C87 307 41 238 41 165 C41 69 120 -14 211 -14 C267 -14 319 7 381 56 C425 10 474 -12 529 -12 C587 -12 641 17 664 60 C679 89 685 118 685 163 L627 163 C624 108 610 88 578 88 C552 88 530 105 492 153 C490 156 486 161 481 167 C506 198 525 224 534 237 C587 320 608 339 653 347 L653 408 L455 408 L455 347 C478 347 491 338 491 324 L491 322 L490 320 L490 314 C488 295 480 281 440 222 L389 298 Z M210 294 L246 240 C261 218 279 192 301 159 L335 110 L338 106 C325 94 310 87 295 87 C274 87 257 97 239 121 C214 154 198 203 198 245 C198 265 201 288 205 301 L210 294 Z M302 444 C266 486 248 520 248 548 C248 574 266 590 293 590 C327 590 352 562 352 525 C352 495 337 469 302 444 L302 444 Z " />
<glyph glyph-name="quotesingle" unicode="&#x27;" horiz-adv-x="263" d="M173 400 L225 667 L38 667 L90 400 L173 400 Z " />
<glyph glyph-name="parenleft" unicode="&#x28;" horiz-adv-x="335" d="M306 -246 C290 -212 275 -182 262 -152 C213 -39 190 79 190 216 C190 345 214 473 257 576 C266 598 281 628 308 680 L229 680 C147 571 97 393 97 214 C97 41 144 -123 228 -246 L306 -246 Z " />
<glyph glyph-name="parenright" unicode="&#x29;" horiz-adv-x="335" d="M109 -246 C194 -122 240 40 240 214 C240 393 191 567 108 680 L29 680 C56 628 71 596 80 576 C123 473 147 346 147 216 C147 89 125 -32 82 -135 C69 -167 57 -191 30 -246 L109 -246 Z " />
<glyph glyph-name="asterisk" unicode="&#x2a;" horiz-adv-x="507" d="M229 309 C231 323 234 335 239 344 L248 362 C248 363 251 369 254 375 C266 355 272 331 279 268 C287 204 305 175 336 175 C373 175 410 213 410 251 C410 274 397 294 367 316 C322 349 307 365 289 399 C301 405 308 407 319 407 L325 407 L332 405 L349 405 C358 405 370 404 385 402 C400 400 414 399 424 399 C458 399 481 424 481 461 C481 506 452 543 418 543 C394 543 384 537 345 499 C321 476 297 460 277 454 C275 464 275 469 275 475 C275 494 281 516 296 556 C309 588 313 605 313 623 C313 658 288 681 252 681 C212 681 187 658 187 621 C187 605 192 588 208 550 C220 523 227 496 227 477 C227 472 227 467 225 454 C208 453 189 465 148 503 C120 529 100 540 81 540 C48 540 21 503 21 459 C21 418 43 397 86 397 C101 397 119 399 141 403 C154 405 164 406 169 406 C188 406 204 403 212 399 C202 374 193 363 147 328 C109 299 92 275 92 249 C92 212 129 175 166 175 C196 175 220 213 225 271 L229 309 Z " />
<glyph glyph-name="plus" unicode="&#x2b;" horiz-adv-x="450" d="M-3 427 L-3 326 L171 326 L171 119 L276 119 L276 326 L453 326 L453 427 L276 427 L276 633 L171 633 L171 427 L-3 427 Z " />
<glyph glyph-name="comma" unicode="&#x2c;" horiz-adv-x="321" d="M65 -202 C180 -202 260 -113 260 16 C260 112 218 172 149 172 C94 172 57 130 57 70 C57 19 88 -20 127 -20 C135 -20 137 -20 152 -14 C162 -13 162 -13 163 -13 C171 -13 177 -22 177 -34 C177 -88 129 -131 65 -135 L65 -202 Z " />
<glyph glyph-name="hyphen" unicode="&#x2d;" horiz-adv-x="319" d="M26 260 L26 179 L298 179 L298 260 L26 260 Z " />
<glyph glyph-name="period" unicode="&#x2e;" horiz-adv-x="321" d="M159 178 C111 178 71 134 71 81 C71 26 110 -18 159 -18 C208 -18 247 26 247 80 C247 134 208 178 159 178 L159 178 Z " />
<glyph glyph-name="slash" unicode="&#x2f;" horiz-adv-x="330" d="M312 704 L195 704 L-16 -277 L99 -277 L312 704 Z " />
<glyph glyph-name="zero" unicode="0" horiz-adv-x="500" d="M250 681 C179 681 120 645 80 577 C47 523 31 437 31 326 C31 230 44 159 73 103 C110 30 177 -14 250 -14 C330 -14 399 38 436 127 C457 177 466 241 466 336 C466 441 454 508 423 567 C387 636 320 681 250 681 L250 681 Z M250 617 C283 617 294 580 293 472 C292 392 292 392 292 223 C292 136 292 121 289 104 C283 70 269 52 249 52 C232 52 220 65 214 91 C209 112 205 208 205 335 C205 438 208 548 212 569 C218 601 231 617 250 617 L250 617 Z " />
<glyph glyph-name="one" unicode="1" horiz-adv-x="500" d="M288 683 C229 640 179 624 85 618 L85 557 L90 557 C156 556 164 548 164 488 L164 108 C163 75 151 64 115 63 L94 63 L94 0 L415 0 L415 63 L395 63 C356 65 347 79 348 125 L348 683 L288 683 Z " />
<glyph glyph-name="two" unicode="2" horiz-adv-x="500" d="M55 0 L356 0 C382 0 388 -5 388 -24 C388 -30 388 -31 387 -34 L386 -38 L439 -38 L461 111 L215 111 C257 161 284 195 350 282 C436 395 452 429 452 496 C452 607 372 681 253 681 C140 681 51 612 51 525 C51 483 63 438 74 438 C79 438 81 439 113 452 L129 459 C130 460 142 464 153 468 C167 473 171 476 171 482 C171 485 170 489 169 494 C164 509 163 518 163 531 C163 581 183 612 215 612 C246 612 267 567 267 501 C267 359 195 205 55 51 L55 0 Z " />
<glyph glyph-name="three" unicode="3" horiz-adv-x="500" d="M123 476 C126 477 140 483 156 491 C161 494 164 495 165 496 C170 498 172 500 172 504 C172 506 171 510 170 513 C165 529 163 540 163 554 C163 585 186 612 212 612 C241 612 262 578 262 531 C262 472 236 421 183 378 C159 358 151 346 151 332 C151 313 162 295 175 295 C182 295 191 300 197 308 C215 332 218 334 231 334 C241 334 249 329 252 320 C257 307 261 243 261 183 C261 134 253 100 237 80 C221 61 200 50 180 50 C160 50 148 63 139 93 C124 142 107 161 78 161 C45 161 18 130 18 91 C18 28 79 -14 172 -14 C330 -14 446 93 446 237 C446 330 402 384 313 400 C388 440 433 498 433 556 C433 631 362 681 256 681 C144 681 45 609 45 528 C45 490 58 457 73 457 C81 457 94 462 110 470 L123 476 Z " />
<glyph glyph-name="four" unicode="4" horiz-adv-x="500" d="M221 229 L221 121 C223 78 211 64 168 63 L147 63 L147 0 L477 0 L477 63 L453 63 C414 66 402 82 404 126 L404 229 L465 229 L477 328 L449 328 L445 319 C439 308 438 307 426 307 L422 307 L419 307 L412 307 L404 307 L404 678 L305 678 L31 314 L31 229 L221 229 Z M221 307 L96 307 L221 477 L221 307 Z " />
<glyph glyph-name="five" unicode="5" horiz-adv-x="500" d="M139 335 C155 371 167 381 193 381 C215 381 237 366 245 346 C255 322 257 299 257 233 C257 154 253 114 242 88 C233 68 212 53 192 53 C172 53 149 70 140 91 C123 128 123 128 112 140 C103 150 90 156 77 156 C47 156 21 125 21 90 C21 30 91 -14 185 -14 C257 -14 327 13 376 59 C422 102 445 160 445 233 C445 292 428 343 398 378 C359 424 300 451 242 451 C199 451 160 439 134 417 L137 563 L303 563 L334 563 C355 560 365 575 397 661 C397 663 399 669 402 675 L84 675 L75 335 L139 335 Z " />
<glyph glyph-name="six" unicode="6" horiz-adv-x="500" d="M213 418 C216 456 217 463 222 490 C241 577 263 613 297 613 C316 613 331 604 343 585 C364 551 382 537 404 537 C435 537 462 567 462 601 C462 647 412 681 343 681 C267 681 192 647 139 587 C76 516 43 407 43 270 C43 202 54 150 79 103 C117 31 187 -14 264 -14 C316 -14 368 7 407 46 C449 86 472 147 472 219 C472 306 445 365 389 400 C357 420 320 430 280 430 C254 430 237 427 213 418 L213 418 Z M309 207 L309 141 C310 74 298 50 263 50 C231 50 211 79 208 129 C207 155 206 187 206 230 L206 283 C206 335 224 366 255 366 C271 366 289 354 296 340 C304 323 309 283 309 245 L309 207 Z " />
<glyph glyph-name="seven" unicode="7" horiz-adv-x="500" d="M467 675 L176 675 C160 675 155 678 155 691 C155 695 155 698 157 704 L100 704 L35 485 L90 485 C101 527 115 539 152 537 L362 537 L177 142 C155 95 147 71 147 51 C147 14 178 -14 220 -14 C259 -14 280 8 297 69 L467 675 Z " />
<glyph glyph-name="eight" unicode="8" horiz-adv-x="500" d="M329 361 C415 388 455 437 455 514 C455 621 379 686 255 686 C127 686 49 621 49 513 C49 458 69 417 110 388 C129 376 146 369 183 361 C144 353 127 347 109 337 C61 309 34 255 34 185 C34 133 48 89 74 58 C111 14 180 -14 252 -14 C385 -14 470 63 470 184 C470 253 449 302 407 331 C389 344 368 351 329 361 L329 361 Z M253 623 C275 623 280 599 280 504 C280 411 274 387 253 387 C246 387 240 391 234 400 C225 415 223 433 223 505 C223 572 225 592 232 606 C238 617 245 623 253 623 L253 623 Z M253 325 C281 325 287 302 287 187 C287 73 281 49 253 49 C243 49 235 54 229 64 C218 79 218 86 216 187 C217 284 218 291 226 307 C232 318 242 325 253 325 L253 325 Z " />
<glyph glyph-name="nine" unicode="9" horiz-adv-x="500" d="M302 247 C296 181 289 142 279 114 C265 74 244 53 218 53 C202 53 186 63 174 81 C149 117 137 126 112 126 C81 126 55 98 55 65 C55 18 99 -14 165 -14 C356 -14 467 134 467 389 C467 466 457 519 432 567 C394 640 329 681 253 681 C132 681 44 584 44 450 C44 389 60 334 88 300 C123 258 177 233 233 233 C262 233 282 237 302 247 L302 247 Z M306 418 C306 345 306 345 300 327 C294 311 277 300 259 300 C234 300 215 323 214 355 C211 420 210 439 210 507 C210 591 221 618 256 618 C291 618 306 579 306 488 L306 447 L306 418 Z " />
<glyph glyph-name="colon" unicode="&#x3a;" horiz-adv-x="321" d="M161 178 C113 178 73 134 73 81 C73 26 112 -18 161 -18 C210 -18 249 26 249 80 C249 134 210 178 161 178 L161 178 Z M161 415 C113 415 73 371 73 319 C73 263 112 219 160 219 C210 219 249 263 249 317 C249 371 210 415 161 415 L161 415 Z " />
<glyph glyph-name="semicolon" unicode="&#x3b;" horiz-adv-x="321" d="M65 -202 C180 -202 260 -113 260 16 C260 112 218 172 149 172 C94 172 57 130 57 70 C57 19 88 -20 127 -20 C135 -20 137 -20 152 -14 C162 -13 162 -13 163 -13 C171 -13 177 -22 177 -34 C177 -88 129 -131 65 -135 L65 -202 Z M161 416 C113 416 73 372 73 319 C73 264 112 220 162 220 C210 220 250 264 250 318 C250 372 210 416 161 416 L161 416 Z " />
<glyph glyph-name="less" unicode="&#x3c;" horiz-adv-x="450" d="M417 652 L32 390 L32 380 L417 82 L417 307 L237 446 L417 567 L417 652 Z " />
<glyph glyph-name="equal" unicode="&#x3d;" horiz-adv-x="501" d="M-3 505 L-3 407 L504 407 L504 505 L-3 505 Z M22 346 L22 248 L478 248 L478 346 L22 346 Z " />
<glyph glyph-name="greater" unicode="&#x3e;" horiz-adv-x="450" d="M32 82 L417 344 L417 354 L32 652 L32 427 L212 288 L32 167 L32 82 Z " />
<glyph glyph-name="question" unicode="&#x3f;" horiz-adv-x="453" d="M168 178 C120 178 81 134 81 81 C81 26 119 -18 168 -18 C215 -18 254 26 254 80 C254 134 215 178 168 178 L168 178 Z M132 230 L203 230 L203 302 C227 297 242 295 257 295 C349 295 417 373 417 479 C417 602 333 684 209 684 C112 684 35 631 35 564 C35 536 60 511 87 511 C116 511 133 532 141 580 C146 606 159 620 180 620 C219 620 240 567 240 466 C240 402 228 371 204 371 C196 371 190 375 185 383 L132 383 L132 230 Z " />
<glyph glyph-name="at" unicode="&#x40;" horiz-adv-x="712" d="M460 510 L450 484 C429 512 399 527 364 527 C321 527 287 510 253 472 C205 420 176 346 176 278 C176 200 227 138 293 138 C310 138 342 147 354 155 C362 161 371 166 380 172 C380 172 381 173 383 173 L383 177 C398 153 420 141 449 141 C558 141 656 256 656 386 C656 544 526 675 369 675 C196 675 57 526 57 339 C57 147 202 -9 381 -9 C505 -9 628 78 666 192 L602 189 C593 167 580 149 557 126 C506 76 449 51 387 51 C234 51 114 180 114 345 C114 428 141 495 196 547 C244 592 305 617 367 617 C493 617 599 510 599 383 C599 312 564 244 507 205 C498 198 485 193 479 193 C470 193 462 201 462 209 C462 213 463 219 466 226 C467 229 469 237 473 248 L552 511 C528 510 517 510 504 510 L486 510 L460 510 Z M389 295 C371 231 371 231 355 209 C343 192 328 183 312 183 C290 183 276 202 276 229 C276 280 294 351 323 416 C340 456 367 480 392 480 C411 480 427 459 427 433 C427 425 426 414 424 408 L389 295 Z " />
<glyph glyph-name="A" unicode="A" horiz-adv-x="588" d="M600 0 L600 63 L596 63 C556 67 538 87 507 167 L322 679 L262 679 L87 182 C62 110 28 66 -7 63 L-12 63 L-12 0 L191 0 L191 63 L185 63 C148 63 130 74 130 99 C130 109 133 123 139 141 L147 164 L321 164 L332 134 C342 102 343 100 343 91 C343 72 327 63 291 63 L287 63 L287 0 L600 0 Z M298 229 L168 229 L231 407 L298 229 Z " />
<glyph glyph-name="B" unicode="B" horiz-adv-x="631" d="M26 0 L365 0 C440 0 487 10 527 35 C576 65 601 112 601 173 C601 266 544 327 434 353 C529 384 576 435 576 508 C576 572 541 622 480 647 C441 664 392 670 307 670 C272 670 213 669 152 667 L24 663 L24 600 L29 600 C70 598 86 580 86 535 L86 126 C88 81 71 63 28 62 L26 62 L26 0 Z M280 318 C342 318 351 315 365 296 C382 273 388 238 388 167 C388 97 370 67 328 67 C309 67 294 73 287 85 C281 94 280 101 280 138 L280 318 Z M280 387 L280 604 C310 603 316 602 326 598 C354 585 366 555 366 493 C366 416 348 387 302 387 L288 387 L280 387 Z " />
<glyph glyph-name="C" unicode="C" horiz-adv-x="671" d="M566 258 C560 231 546 188 535 161 C509 103 450 60 392 60 C345 60 299 89 279 131 C261 171 253 231 253 333 C253 431 261 490 281 532 C303 580 341 605 389 605 C445 605 488 574 520 514 C537 481 549 446 557 410 L613 410 L607 655 L551 655 C543 632 537 615 533 602 C477 657 425 679 352 679 C268 679 193 648 139 592 C74 525 36 428 36 329 C36 244 64 160 115 96 C171 24 252 -14 347 -14 C423 -14 500 17 542 66 C552 51 560 31 566 3 L623 3 L623 258 L566 258 Z " />
<glyph glyph-name="D" unicode="D" horiz-adv-x="722" d="M24 669 L24 606 L28 606 C69 604 86 585 85 540 L85 127 C86 81 71 64 27 63 L25 63 L25 0 L230 0 C403 1 437 4 482 19 C608 62 686 182 686 331 C686 470 620 584 508 639 C452 666 391 675 262 675 L242 675 C208 675 180 675 163 674 L31 669 L24 669 Z M279 607 C322 607 345 602 367 588 C435 546 464 470 464 332 C464 160 421 68 340 68 C311 68 292 78 284 97 C279 109 279 112 279 144 L279 607 Z " />
<glyph glyph-name="E" unicode="E" horiz-adv-x="614" d="M534 222 C506 105 468 66 386 68 L378 68 C302 71 290 82 293 147 L293 314 L345 314 C385 314 403 292 402 242 L402 235 L456 235 L456 460 L402 460 L402 454 C398 398 386 383 344 382 L293 382 L293 599 L405 599 C458 601 476 582 506 492 L563 492 L555 667 L24 667 L24 605 L35 605 C84 603 99 586 99 539 L99 127 C101 83 83 64 36 63 L27 63 L27 0 L588 0 L590 222 L534 222 Z " />
<glyph glyph-name="F" unicode="F" horiz-adv-x="547" d="M537 667 L24 667 L24 605 L33 605 C78 603 94 585 94 539 L94 127 C95 80 81 66 32 63 L27 63 L27 0 L361 0 L361 63 L352 63 C305 64 286 83 288 127 L288 313 L327 313 C366 311 374 299 379 237 L379 232 L436 232 L436 459 L379 459 L379 451 C374 397 364 383 328 382 L288 382 L288 599 L370 599 C433 600 454 579 483 488 L541 488 L537 667 Z " />
<glyph glyph-name="G" unicode="G" horiz-adv-x="713" d="M411 314 L411 252 L416 251 C458 243 474 228 475 194 L475 170 C475 97 442 59 378 59 C289 59 259 120 259 301 C259 421 267 483 290 532 C310 574 349 598 398 598 C473 598 522 549 555 441 L616 441 L609 676 L549 676 C547 650 541 630 530 608 C474 656 415 679 346 679 C266 679 196 649 139 590 C73 522 35 426 35 328 C35 135 171 -14 345 -14 C392 -14 418 -10 501 8 C555 20 605 26 641 26 C644 26 650 26 661 25 L661 182 C661 225 665 235 690 250 L697 252 L697 314 L411 314 Z " />
<glyph glyph-name="H" unicode="H" horiz-adv-x="778" d="M493 315 L493 126 C495 82 478 64 433 62 L433 0 L754 0 L754 62 L749 62 C702 64 685 82 687 126 L687 538 C687 584 702 601 748 604 L754 604 L754 667 L433 667 L433 604 C475 603 494 583 493 538 L493 384 L284 384 L284 538 C284 585 299 601 344 604 L347 604 L347 667 L24 667 L24 604 L29 604 C72 603 91 582 90 538 L90 126 C92 83 75 65 28 62 L24 62 L24 0 L347 0 L347 62 L345 62 C300 64 282 83 284 126 L284 315 L493 315 Z " />
<glyph glyph-name="I" unicode="I" horiz-adv-x="376" d="M24 604 L29 604 C75 602 90 586 90 539 L90 127 C91 80 77 66 28 63 L24 63 L24 0 L352 0 L352 63 L346 63 C297 66 283 80 284 127 L284 539 C284 586 299 602 345 604 L352 604 L352 667 L24 667 L24 604 Z " />
<glyph glyph-name="J" unicode="J" horiz-adv-x="374" d="M24 667 L24 604 L38 604 C84 602 99 586 99 539 L99 -7 C99 -143 92 -176 61 -176 C44 -176 33 -167 33 -152 C33 -149 33 -147 34 -146 C36 -134 36 -134 36 -131 C36 -89 7 -61 -38 -61 C-87 -61 -123 -94 -123 -138 C-123 -199 -57 -238 44 -238 C122 -238 187 -216 229 -175 C277 -128 293 -74 293 49 L293 539 C293 586 308 602 354 604 L359 604 L359 667 L24 667 Z " />
<glyph glyph-name="K" unicode="K" horiz-adv-x="730" d="M288 349 L288 539 C288 586 303 602 349 604 L358 604 L358 667 L24 667 L24 604 L33 604 C79 602 94 586 94 539 L94 127 C95 80 81 66 32 63 L26 63 L26 0 L350 0 L350 63 C302 64 287 80 288 127 L288 256 L346 324 L445 140 C446 134 449 128 452 122 C459 112 463 101 463 91 C463 72 443 63 405 63 L401 63 L401 0 L754 0 L754 63 L750 63 C698 59 654 96 619 173 L469 450 L510 492 C585 570 635 602 690 605 L697 604 L697 667 L422 667 L422 604 L429 605 C458 605 473 596 473 577 C473 559 463 540 436 511 L288 349 Z " />
<glyph glyph-name="L" unicode="L" horiz-adv-x="594" d="M582 228 L528 228 C510 126 452 68 367 69 L364 69 C299 71 284 87 286 150 L286 538 C286 586 301 602 347 604 L354 604 L354 667 L24 667 L24 604 L31 604 C77 602 92 586 92 538 L92 127 C93 79 79 66 30 63 L24 63 L24 0 L580 0 L582 228 Z " />
<glyph glyph-name="M" unicode="M" horiz-adv-x="915" d="M300 667 L24 667 L24 604 L26 604 C88 601 109 583 108 535 L108 170 C112 99 88 67 28 63 L24 63 L24 0 L264 0 L264 63 L260 63 C199 65 172 98 176 167 L176 500 L394 0 L430 0 L628 511 L628 127 C629 80 616 66 568 63 L560 63 L560 0 L891 0 L891 63 L882 63 C834 66 821 80 822 127 L822 539 C823 587 836 602 881 604 L889 604 L889 667 L627 667 L466 257 L300 667 Z " />
<glyph glyph-name="N" unicode="N" horiz-adv-x="710" d="M612 -9 L612 492 C610 563 629 592 685 604 L692 604 L692 667 L453 667 L453 604 L457 604 C511 603 541 561 539 493 L539 287 L230 667 L24 667 L24 604 L28 604 C73 602 104 564 103 513 L103 176 C103 131 102 120 94 104 C84 81 57 62 36 62 L33 62 L30 62 L30 0 L250 0 L250 62 L244 62 L238 62 C218 62 197 79 186 102 C177 120 176 132 176 176 L176 444 L538 -9 L612 -9 Z " />
<glyph glyph-name="O" unicode="O" horiz-adv-x="748" d="M380 679 C279 679 195 647 138 587 C74 519 36 424 36 333 C36 245 63 164 114 100 C173 26 264 -14 372 -14 C479 -14 558 18 620 85 C679 151 712 237 712 330 C712 436 669 536 593 603 C536 654 466 679 380 679 L380 679 Z M374 605 C455 605 485 527 485 316 C485 219 478 164 460 121 C444 83 412 60 376 60 C335 60 305 86 286 139 C271 181 265 237 265 343 C265 530 296 605 374 605 L374 605 Z " />
<glyph glyph-name="P" unicode="P" horiz-adv-x="623" d="M24 667 L24 604 L38 604 C84 602 99 586 99 539 L99 127 C100 79 87 66 37 63 L29 63 L29 0 L367 0 L367 63 L356 63 C306 66 292 79 293 127 L293 290 L327 290 C412 290 430 291 465 301 C555 327 605 391 605 479 C605 546 574 606 523 636 C474 665 435 673 339 673 C281 673 260 673 163 670 C158 670 115 669 75 668 L24 667 Z M293 358 L293 604 C332 604 345 601 360 589 C383 570 395 531 395 477 C395 393 372 358 316 358 L293 358 Z " />
<glyph glyph-name="Q" unicode="Q" horiz-adv-x="747" d="M797 -65 C771 -100 723 -122 672 -122 C624 -122 579 -108 512 -72 C477 -53 443 -42 421 -42 L415 -42 L467 -4 C616 34 712 165 712 329 C712 435 668 537 594 603 C536 654 466 679 377 679 C278 679 200 649 138 586 C73 521 36 426 36 328 C36 193 109 69 217 19 C259 0 302 -11 348 -14 C307 -43 286 -58 285 -59 C229 -102 217 -116 217 -141 C217 -161 232 -178 249 -178 C261 -178 274 -170 286 -155 C317 -116 337 -103 366 -103 C395 -103 418 -116 445 -147 C478 -186 510 -217 528 -229 C558 -249 600 -260 642 -260 C759 -260 834 -190 852 -65 L797 -65 Z M373 605 C417 605 451 576 465 525 C478 479 485 407 485 313 C485 138 451 60 376 60 C327 60 293 97 276 164 C268 198 264 261 264 352 C264 526 298 605 373 605 L373 605 Z " />
<glyph glyph-name="R" unicode="R" horiz-adv-x="674" d="M25 0 L357 0 L357 63 L352 63 C303 66 289 80 290 127 L290 287 L299 287 C355 288 373 278 392 235 C411 192 425 161 434 143 C478 42 482 34 504 0 L698 0 L698 63 L692 63 C659 66 635 95 588 189 C557 251 521 304 496 324 C561 349 605 413 605 484 C605 534 587 579 554 612 C523 643 488 657 432 663 C401 666 338 667 191 667 L24 667 L24 604 L35 604 C81 602 96 586 96 539 L96 127 C97 80 83 66 34 63 L25 63 L25 0 Z M290 595 C295 596 299 596 302 596 C337 596 360 591 372 581 C394 562 404 530 404 479 C404 426 393 387 373 371 C361 360 344 356 313 356 C308 356 301 356 290 357 L290 595 Z " />
<glyph glyph-name="S" unicode="S" horiz-adv-x="514" d="M51 13 L112 13 C115 36 119 49 125 64 C162 16 223 -14 286 -14 C397 -14 488 81 488 197 C488 249 471 297 440 335 C413 369 377 394 294 437 C218 476 199 498 199 543 C199 584 225 612 263 612 C317 612 363 554 381 465 L438 465 L438 667 L379 667 C375 647 371 633 367 625 C335 659 286 679 239 679 C133 679 49 587 49 472 C49 425 63 379 88 348 C116 311 126 304 215 249 C281 208 283 206 292 198 C313 181 324 158 324 132 C324 90 295 60 255 60 C213 60 176 88 147 140 C132 167 123 194 112 245 L51 245 L51 13 Z " />
<glyph glyph-name="T" unicode="T" horiz-adv-x="629" d="M70 470 C82 571 105 598 179 598 L215 598 L215 127 C216 81 200 64 153 63 L144 63 L144 0 L483 0 L483 63 L472 63 C424 64 408 80 409 127 L409 598 L445 598 C512 598 536 571 558 470 L616 470 L617 667 L12 667 L13 470 L70 470 Z " />
<glyph glyph-name="U" unicode="U" horiz-adv-x="698" d="M430 667 L430 605 L436 605 C491 606 529 566 527 509 L527 286 C527 218 524 185 514 158 C494 100 446 64 389 64 C341 64 302 90 279 136 C264 168 259 198 259 262 L259 539 C259 586 275 602 326 605 L335 605 L335 667 L15 667 L15 605 L19 605 C71 602 88 586 88 539 L88 278 C88 217 88 213 93 187 C102 141 122 99 151 66 C197 14 264 -14 343 -14 C449 -14 535 33 570 111 C594 162 600 199 600 285 L600 498 C600 547 603 559 621 578 C636 594 658 605 676 605 L679 605 L683 605 L683 667 L430 667 Z " />
<glyph glyph-name="V" unicode="V" horiz-adv-x="646" d="M347 -13 L531 461 C553 520 578 567 598 587 C609 600 622 605 643 605 L653 605 L658 605 L658 667 L416 667 L416 605 L419 605 C463 606 489 589 489 561 C489 555 484 530 481 521 L372 235 L271 502 C260 533 253 559 253 573 C253 592 275 605 309 605 L315 605 L315 667 L-12 667 L-12 605 L-9 605 C42 603 53 593 78 529 L92 494 L292 -13 L347 -13 Z " />
<glyph glyph-name="W" unicode="W" horiz-adv-x="850" d="M652 -13 L770 460 C797 571 817 605 853 605 L857 605 L862 605 L862 667 L663 667 L663 605 L667 605 C700 605 721 583 721 550 C721 543 718 520 716 512 L655 262 L509 667 L429 667 L310 262 L232 538 C229 548 228 558 228 570 C228 594 242 606 269 605 L273 605 L273 667 L-12 667 L-12 605 L-8 605 L-4 605 C31 605 43 589 63 518 L209 -13 L293 -13 L421 409 L571 -13 L652 -13 Z " />
<glyph glyph-name="X" unicode="X" horiz-adv-x="728" d="M450 384 L554 507 C611 577 638 595 702 604 L702 667 L458 667 L458 604 L464 604 C497 604 511 596 511 578 C511 567 506 552 499 544 L410 439 L335 550 C332 555 327 573 327 580 C327 598 338 604 371 604 L376 604 L376 667 L17 667 L17 604 L20 604 C83 603 98 591 162 494 L291 304 L150 138 C108 89 65 62 25 62 L21 62 L18 62 L18 0 L290 0 L290 62 L283 62 L271 62 C239 62 220 76 220 99 C220 111 226 127 234 134 L237 137 L331 248 L412 130 C419 120 423 108 423 96 C423 70 410 63 359 62 L354 62 L354 0 L737 0 L737 62 L735 62 L731 62 C723 62 689 71 676 78 C654 90 630 117 586 182 L450 384 Z " />
<glyph glyph-name="Y" unicode="Y" horiz-adv-x="601" d="M371 368 L274 529 C261 551 255 565 255 577 C255 595 270 605 299 605 L304 605 L304 667 L-11 667 L-11 605 L-7 605 C33 600 49 586 81 524 L202 278 L202 127 C203 80 189 66 140 63 L131 63 L131 0 L469 0 L469 63 L460 63 C411 66 398 80 399 127 L399 290 L498 484 C514 516 546 566 562 583 C573 595 592 605 606 605 L609 605 L612 605 L612 667 L403 667 L403 605 L408 605 C441 605 458 591 458 565 C458 551 453 534 446 518 L371 368 Z " />
<glyph glyph-name="Z" unicode="Z" horiz-adv-x="623" d="M31 0 L584 0 L592 205 L535 205 C504 98 464 65 371 68 L244 68 L573 617 L573 667 L53 667 L46 483 L100 483 C126 581 154 599 280 599 L355 599 L31 50 L31 0 Z " />
<glyph glyph-name="bracketleft" unicode="&#x5b;" horiz-adv-x="406" d="M378 -235 L378 -174 L320 -174 C287 -175 273 -158 275 -118 L275 550 C273 590 287 607 320 606 L378 606 L378 667 L112 667 L112 -235 L378 -235 Z " />
<glyph glyph-name="backslash" unicode="&#x5c;" horiz-adv-x="450" d="M383 -133 L141 655 L66 655 L309 -133 L383 -133 Z " />
<glyph glyph-name="bracketright" unicode="&#x5d;" horiz-adv-x="406" d="M29 -235 L295 -235 L295 667 L29 667 L29 606 L87 606 C120 607 134 590 132 550 L132 -118 C134 -158 120 -175 87 -174 L29 -174 L29 -235 Z " />
<glyph glyph-name="asciicircum" unicode="&#x5e;" horiz-adv-x="450" d="M481 272 L245 700 L236 700 L-32 272 L171 272 L296 472 L405 272 L481 272 Z " />
<glyph glyph-name="underscore" unicode="&#x5f;" horiz-adv-x="501" d="M-3 -95 L-3 -196 L504 -196 L504 -95 L-3 -95 Z " />
<glyph glyph-name="grave" unicode="&#x60;" horiz-adv-x="475" d="M307 484 L252 639 L54 639 L54 626 L257 484 L307 484 Z " />
<glyph glyph-name="a" unicode="a" horiz-adv-x="529" d="M489 94 C486 79 479 71 468 71 C454 71 447 81 447 102 L447 295 C447 339 443 354 425 375 C399 406 356 419 275 419 C201 419 156 412 115 393 C69 372 44 341 44 306 C44 273 68 249 102 249 C138 249 159 268 162 305 C166 342 181 355 219 355 C253 355 266 341 266 306 L266 266 L260 264 C200 245 173 234 134 211 C62 169 33 132 33 83 C33 25 73 -9 142 -9 C195 -9 240 7 277 39 C299 7 338 -9 396 -9 C479 -9 525 27 528 94 L489 94 Z M266 203 L266 99 C257 81 246 72 233 72 C216 72 201 92 201 117 C201 147 224 179 260 199 L266 203 Z " />
<glyph glyph-name="b" unicode="b" horiz-adv-x="578" d="M241 679 L237 679 C225 677 216 676 212 675 C206 674 187 671 161 667 C111 660 69 652 11 642 L11 583 L13 583 C50 581 59 570 60 528 L60 -9 L106 -9 C151 23 183 46 203 61 C247 15 302 -10 358 -10 C467 -10 545 80 545 205 C545 330 469 419 361 419 C317 419 281 405 241 372 L241 679 Z M241 294 C261 325 280 339 301 339 C338 339 355 295 355 203 C355 101 338 64 289 64 C275 64 263 69 253 80 C245 89 241 94 241 96 L241 294 Z " />
<glyph glyph-name="c" unicode="c" horiz-adv-x="460" d="M387 131 C369 83 340 59 299 59 C244 59 219 104 219 205 C219 259 220 276 223 291 C231 334 253 359 282 359 C299 359 308 350 312 330 C324 269 342 245 375 245 C407 245 432 276 432 316 C432 380 376 419 283 419 C131 419 30 328 30 193 C30 69 120 -16 251 -16 C343 -16 412 27 439 102 L387 131 Z " />
<glyph glyph-name="d" unicode="d" horiz-adv-x="574" d="M561 78 L556 78 C524 81 516 91 515 131 L515 679 L510 679 C497 677 487 675 483 675 L429 666 C291 643 290 643 269 639 L269 579 L270 579 C319 578 333 566 334 526 L334 368 C306 401 263 419 211 419 C142 419 87 385 57 326 C40 291 33 252 33 194 C33 142 39 107 55 76 C82 22 133 -8 196 -8 C249 -8 289 11 333 56 C333 28 337 11 346 -8 C396 3 470 10 561 14 L561 78 Z M334 134 C321 97 298 77 270 77 C251 77 236 92 229 120 C225 134 223 170 223 221 C223 299 242 338 280 338 C298 338 314 327 334 301 L334 134 Z " />
<glyph glyph-name="e" unicode="e" horiz-adv-x="482" d="M391 107 C362 72 331 54 299 54 C265 54 233 75 219 106 C208 129 205 147 205 191 L452 191 L452 204 C452 250 444 288 427 320 C395 381 327 419 247 419 C121 419 33 331 33 205 C33 76 124 -16 253 -16 C325 -16 399 20 437 73 L391 107 Z M205 248 C205 286 206 301 208 313 C213 341 227 356 249 356 C270 356 285 342 293 318 C297 304 299 290 301 248 L205 248 Z " />
<glyph glyph-name="f" unicode="f" horiz-adv-x="352" d="M336 403 L254 403 L254 545 C254 592 263 615 282 615 C293 615 303 605 306 591 C313 554 315 547 327 530 C340 510 361 499 383 499 C424 499 458 536 458 581 C458 644 404 680 308 680 C219 680 149 644 117 581 C95 539 91 515 91 411 L91 403 L17 403 L17 342 L91 342 L91 112 C91 72 80 62 33 60 L15 60 L15 0 L337 0 L337 60 L312 60 C268 61 255 73 254 112 L254 342 L336 342 L336 403 Z " />
<glyph glyph-name="g" unicode="g" horiz-adv-x="498" d="M327 -71 C370 -71 387 -82 387 -112 C387 -160 330 -190 241 -190 C186 -190 142 -174 137 -153 C132 -135 130 -125 128 -121 C126 -116 125 -112 122 -107 C103 -97 91 -94 78 -94 C51 -94 29 -120 29 -150 C29 -217 96 -250 229 -250 C310 -250 364 -238 408 -211 C459 -179 487 -128 487 -64 C487 -13 469 26 435 48 C407 67 377 73 317 73 C302 73 287 73 273 72 L200 71 C176 71 165 78 165 93 C165 119 189 131 240 132 C362 132 434 187 434 279 C434 304 430 320 419 342 C425 349 428 350 433 350 C441 350 445 348 454 340 C465 331 471 328 480 328 C499 328 511 344 511 369 C511 401 495 420 467 420 C445 420 431 412 389 378 C352 407 312 418 249 418 C114 418 38 368 38 279 C38 242 54 204 79 181 C96 165 112 156 144 147 C75 126 50 97 50 40 C50 -38 104 -72 230 -72 C240 -72 240 -72 290 -71 L327 -71 Z M238 358 C256 358 266 332 266 283 C266 224 258 197 241 197 C220 197 211 226 211 288 C211 331 221 358 238 358 L238 358 Z " />
<glyph glyph-name="h" unicode="h" horiz-adv-x="563" d="M245 679 L241 679 C207 673 185 668 162 664 C139 660 115 656 91 652 L66 647 C47 643 38 641 15 636 L15 577 L17 577 C56 575 64 565 64 518 L64 112 C63 71 54 61 17 60 L16 60 L16 0 L278 0 L278 60 L276 60 C255 64 245 81 245 112 L245 265 C273 310 284 322 301 322 C318 322 329 304 329 276 L329 112 C329 82 321 67 301 60 L298 60 L298 0 L560 0 L560 60 L557 60 C525 61 513 75 513 112 L513 256 C513 304 509 328 497 353 C478 392 429 419 378 419 C328 419 281 395 245 350 L245 679 Z " />
<glyph glyph-name="i" unicode="i" horiz-adv-x="311" d="M170 679 C114 679 71 636 71 581 C71 527 115 483 169 483 C222 483 266 527 266 581 C266 635 223 679 170 679 L170 679 Z M254 419 L250 419 C239 417 230 415 226 414 L161 403 L106 393 C77 388 58 385 49 384 C33 381 27 380 15 379 L15 319 L25 319 C72 317 82 307 82 265 L82 112 C81 70 71 61 24 60 L15 60 L15 0 L305 0 L305 60 L303 60 C266 61 255 73 254 112 L254 419 Z " />
<glyph glyph-name="j" unicode="j" horiz-adv-x="321" d="M269 419 L265 419 L249 417 L176 405 L67 388 C43 384 35 383 8 378 L8 318 L24 318 C76 316 88 306 88 264 L88 -65 C88 -158 83 -182 63 -182 C54 -182 45 -175 43 -166 C30 -122 15 -107 -14 -107 C-47 -107 -72 -135 -72 -171 C-72 -219 -28 -247 46 -247 C147 -247 230 -200 256 -128 C267 -100 269 -72 269 25 L269 419 Z M184 679 C129 679 85 636 85 581 C85 527 129 483 183 483 C236 483 280 527 280 581 C280 635 237 679 184 679 L184 679 Z " />
<glyph glyph-name="k" unicode="k" horiz-adv-x="555" d="M296 403 L296 343 L299 343 C325 344 337 340 337 329 C337 326 337 326 325 313 L246 226 L246 679 L242 679 C196 670 191 669 163 664 C110 655 78 649 66 647 C47 643 38 641 15 636 L15 577 L22 577 C58 575 65 565 65 518 L65 112 C64 71 56 61 22 60 L15 60 L15 0 L279 0 L279 60 L276 60 C255 64 246 79 246 112 L246 152 L276 185 L317 102 L319 93 C322 81 322 81 322 77 C322 66 316 60 304 60 L302 60 L302 0 L549 0 L549 60 L547 60 C524 63 505 83 461 150 L382 280 L394 287 C473 338 479 340 527 344 L536 343 L536 403 L296 403 Z " />
<glyph glyph-name="l" unicode="l" horiz-adv-x="296" d="M246 679 L242 679 C196 670 191 669 163 664 L92 652 L66 647 C47 643 38 641 15 636 L15 576 L32 576 C59 575 65 565 65 518 L65 112 C65 71 58 61 32 60 L18 60 L18 0 L282 0 L282 60 L280 60 C253 61 246 73 246 112 L246 679 Z " />
<glyph glyph-name="m" unicode="m" horiz-adv-x="812" d="M238 405 C218 401 210 400 174 394 C103 382 65 375 15 366 L15 306 L17 306 C53 305 63 295 66 260 L66 112 C65 71 56 61 18 60 L17 60 L17 0 L275 0 L275 60 L273 60 C256 63 247 81 247 112 L247 265 C273 307 287 322 302 322 C319 322 329 305 329 276 L329 112 C330 83 321 65 305 60 L300 60 L300 0 L538 0 L538 60 L535 60 C515 64 505 81 505 112 L505 265 C532 310 545 322 562 322 C580 322 591 304 591 276 L591 112 C591 82 583 67 564 60 L561 60 L561 0 L808 0 L808 60 L805 60 C774 61 763 74 762 112 L762 256 C762 311 760 326 747 353 C728 392 682 419 633 419 C583 419 530 389 495 341 C474 390 431 419 374 419 C327 419 285 397 249 354 C248 382 247 392 242 405 L238 405 Z " />
<glyph glyph-name="n" unicode="n" horiz-adv-x="565" d="M238 405 C218 401 210 400 174 394 C103 382 65 375 15 366 L15 306 L17 306 C53 305 63 295 66 260 L66 112 C65 71 56 61 18 60 L17 60 L17 0 L279 0 L279 60 L277 60 C257 64 247 81 247 112 L247 265 C273 309 285 322 303 322 C320 322 331 304 331 276 L331 112 C331 82 323 67 303 60 L300 60 L300 0 L561 0 L561 60 L558 60 C527 61 516 74 515 112 L515 256 C515 304 511 328 499 353 C480 392 431 419 379 419 C331 419 283 395 249 354 C248 383 246 392 242 405 L238 405 Z " />
<glyph glyph-name="o" unicode="o" horiz-adv-x="523" d="M260 419 C126 419 33 330 33 202 C33 139 52 88 88 51 C130 9 194 -16 262 -16 C396 -16 490 75 490 204 C490 260 475 306 445 341 C402 390 335 419 260 419 L260 419 Z M261 356 C270 356 279 351 285 341 C298 322 300 302 300 209 C300 79 292 46 261 46 C249 46 238 57 232 76 C224 101 224 101 222 210 C223 302 224 318 233 336 C240 348 250 356 261 356 L261 356 Z " />
<glyph glyph-name="p" unicode="p" horiz-adv-x="577" d="M225 419 C215 417 206 415 203 414 C196 413 180 410 156 406 C140 404 48 387 12 381 L12 321 L13 321 C50 320 61 308 62 268 L62 -122 C61 -164 52 -174 13 -175 L12 -175 L12 -235 L309 -235 L309 -175 L294 -175 C255 -174 244 -162 243 -122 L243 40 C286 1 323 -16 367 -16 C468 -16 544 80 544 207 C544 328 472 419 377 419 C328 419 280 394 239 348 C238 363 237 375 237 387 C236 391 234 401 229 419 L225 419 Z M243 272 C259 314 280 335 306 335 C341 335 355 297 355 199 C355 138 351 114 339 95 C329 79 315 70 301 70 C281 70 258 84 243 106 L243 272 Z " />
<glyph glyph-name="q" unicode="q" horiz-adv-x="547" d="M465 419 C428 393 401 372 366 344 C316 399 277 418 217 418 C105 418 33 331 33 196 C33 68 103 -16 210 -16 C257 -16 290 -2 332 37 L332 -122 C331 -162 320 -174 281 -175 L271 -175 L271 -235 L565 -235 L565 -175 L563 -175 C525 -174 514 -162 513 -122 L513 419 L465 419 Z M332 113 C313 82 293 66 272 66 C256 66 241 78 234 97 C225 119 224 126 224 172 L223 217 C223 305 238 342 273 342 C294 342 306 332 325 297 C328 293 329 290 332 285 L332 113 Z " />
<glyph glyph-name="r" unicode="r" horiz-adv-x="452" d="M15 313 L17 313 C53 311 64 299 65 260 L65 112 C64 72 55 61 18 60 L16 60 L16 0 L304 0 L304 60 L297 60 C259 61 248 73 247 112 L247 149 C247 202 251 251 257 270 C262 288 278 301 296 301 C308 301 319 295 330 283 C355 255 362 251 383 251 C420 251 446 283 446 330 C446 382 415 419 369 419 C317 419 274 386 240 318 C238 363 234 390 224 419 C107 394 63 384 15 372 L15 313 Z " />
<glyph glyph-name="s" unicode="s" horiz-adv-x="440" d="M39 -12 L84 -12 C89 0 93 5 102 12 C172 -13 190 -17 232 -17 C340 -17 407 42 407 137 C407 181 391 218 362 244 C341 263 300 277 223 293 C174 303 159 312 159 332 C159 354 181 367 219 367 C281 367 320 342 336 293 L381 293 L381 416 L339 416 C333 405 330 401 322 394 C278 411 235 420 201 420 C103 420 36 363 36 277 C36 228 58 189 100 164 C123 150 158 138 231 121 C263 113 276 102 276 84 C276 60 244 42 201 42 C147 42 104 73 89 124 L39 124 L39 -12 Z " />
<glyph glyph-name="t" unicode="t" horiz-adv-x="338" d="M331 341 L331 403 L222 403 L222 538 L167 538 C156 458 96 402 22 402 C19 402 13 402 6 403 L6 341 L59 341 L59 105 C59 29 105 -16 184 -16 C266 -16 323 19 344 85 L293 102 C281 72 269 62 249 62 C226 62 222 73 222 141 L222 341 L331 341 Z " />
<glyph glyph-name="u" unicode="u" horiz-adv-x="552" d="M499 403 L282 403 L282 343 L284 343 C309 342 318 329 318 291 L318 120 C315 116 315 116 301 101 C292 89 279 81 272 81 C255 81 247 102 247 144 L247 403 L6 403 L6 343 L8 343 C50 342 66 328 66 291 L66 132 C66 89 69 72 80 50 C100 9 142 -16 191 -16 C239 -16 280 5 318 49 L317 4 L315 -8 C315 -8 314 -12 314 -16 L319 -16 C362 -7 464 1 526 1 C528 1 535 1 546 0 L546 60 L544 60 C510 61 500 72 499 112 L499 403 Z " />
<glyph glyph-name="v" unicode="v" horiz-adv-x="474" d="M276 -5 L398 255 C406 271 424 304 433 318 C445 337 457 344 474 344 L476 344 L479 344 L479 403 L321 403 L321 344 L324 344 C343 345 358 338 358 327 C358 323 357 317 354 312 L281 148 L214 302 C209 313 208 318 208 324 C208 337 219 344 240 344 L244 344 L244 403 L-6 403 L-6 344 L-3 344 C23 343 27 338 63 264 L186 -5 L276 -5 Z " />
<glyph glyph-name="w" unicode="w" horiz-adv-x="732" d="M549 -7 L655 242 C673 285 685 311 691 319 C701 334 719 344 734 344 L737 344 L739 344 L739 403 L553 403 L553 344 L555 344 C557 344 583 341 591 339 C604 337 612 327 612 316 C612 312 612 312 608 303 L607 298 L552 161 L450 403 L364 403 L265 161 L213 296 C209 309 206 320 206 326 C206 339 218 344 247 344 L250 344 L250 403 L-9 403 L-9 344 L-6 344 C23 343 30 335 53 279 L167 -7 L258 -7 L356 235 L460 -7 L549 -7 Z " />
<glyph glyph-name="x" unicode="x" horiz-adv-x="497" d="M471 344 L471 403 L319 403 L319 344 L327 344 C341 344 344 342 344 334 C344 328 331 310 321 301 L293 279 L266 309 C257 320 254 325 254 333 C254 340 261 344 276 344 L281 344 L281 403 L14 403 L14 343 C35 334 44 327 97 271 L193 171 L121 114 C85 87 46 67 14 61 L6 59 L6 0 L197 0 L197 59 L193 59 C170 58 161 61 161 70 C161 77 163 80 178 94 L217 131 L250 91 C259 80 260 78 260 74 C260 64 249 59 227 59 L225 59 L218 59 L218 0 L491 0 L491 59 L486 60 C477 63 463 76 433 111 L323 237 L372 278 C377 282 386 290 398 301 C414 316 429 328 442 335 C450 340 464 344 470 344 L471 344 Z " />
<glyph glyph-name="y" unicode="y" horiz-adv-x="486" d="M-6 403 L-6 344 L0 343 C20 340 28 331 57 274 L219 -20 L215 -29 C190 -80 171 -94 100 -110 C56 -121 37 -141 37 -176 C37 -219 69 -252 111 -252 C142 -252 170 -237 192 -209 C204 -193 228 -145 254 -86 L383 215 C389 229 402 254 420 290 C438 331 446 338 471 343 L480 344 L480 403 L315 403 L315 344 L319 344 L325 344 C340 344 354 332 354 318 C354 310 354 310 337 273 L288 155 L227 291 L218 309 C215 315 213 320 213 324 L213 325 C214 337 220 342 238 343 L246 344 L246 403 L-6 403 Z " />
<glyph glyph-name="z" unicode="z" horiz-adv-x="458" d="M27 0 L422 0 L434 140 L379 140 C353 77 339 60 312 61 L236 61 L428 349 L428 403 L50 403 L41 276 L97 276 C123 339 126 342 150 342 L222 342 L27 48 L27 0 Z " />
<glyph glyph-name="braceleft" unicode="&#x7b;" horiz-adv-x="388" d="M63 197 C102 193 116 171 117 106 L117 -81 C118 -137 133 -176 160 -200 C186 -226 223 -233 327 -233 L357 -233 L357 -201 C298 -198 278 -160 281 -58 L281 84 C283 162 246 197 143 213 L143 217 L143 220 C246 237 283 272 281 350 L281 491 C277 594 298 632 357 634 L357 667 L327 667 C229 667 189 660 165 638 C134 613 119 574 117 515 L117 327 C116 263 102 240 63 236 L63 197 Z " />
<glyph glyph-name="bar" unicode="&#x7c;" horiz-adv-x="464" d="M164 667 L164 -167 L302 -167 L302 667 L164 667 Z " />
<glyph glyph-name="braceright" unicode="&#x7d;" horiz-adv-x="388" d="M326 236 C287 240 273 263 272 327 L272 515 C271 570 256 609 229 634 C203 659 166 667 62 667 L32 667 L32 634 C91 631 111 594 108 491 L108 350 C106 272 143 237 246 220 L246 217 L246 213 C143 197 106 162 108 84 L108 -58 C112 -160 91 -198 32 -201 L32 -233 L62 -233 C160 -233 200 -226 224 -205 C255 -179 270 -140 272 -81 L272 106 C273 171 287 193 326 197 L326 236 Z " />
<glyph glyph-name="asciitilde" unicode="&#x7e;" horiz-adv-x="637" d="M474 733 C453 708 434 697 414 697 C393 697 364 704 333 717 C304 729 277 736 258 736 C215 736 181 702 133 612 L161 594 C191 625 200 630 229 630 C248 630 262 626 299 611 C330 597 351 592 373 592 C404 592 424 601 443 623 C468 654 489 686 504 715 L474 733 Z " />
<glyph glyph-name="uni00A0" unicode="&#xa0;" horiz-adv-x="250" d="" />
<glyph glyph-name="exclamdown" unicode="&#xa1;" horiz-adv-x="321" d="M136 202 L91 -129 C88 -148 86 -170 86 -180 C86 -233 109 -254 167 -254 C216 -254 242 -230 242 -183 C242 -169 241 -152 238 -133 L192 202 L136 202 Z M163 448 C115 448 75 404 75 351 C75 296 114 252 163 252 C212 252 251 296 251 350 C251 404 212 448 163 448 L163 448 Z " />
<glyph glyph-name="cent" unicode="&#xa2;" horiz-adv-x="500" d="M423 130 C404 85 360 54 317 54 C312 54 308 55 301 57 L339 333 C340 307 342 298 348 286 C360 260 381 245 405 245 C441 245 470 277 470 316 C470 347 451 378 420 396 C403 406 385 412 353 416 L382 614 L327 614 L299 419 C220 411 196 403 157 375 C96 330 64 268 64 192 C64 84 125 10 235 -15 L210 -191 L265 -191 L289 -21 C394 -4 446 30 475 102 L423 130 Z M254 101 C245 127 240 166 240 219 C240 304 253 342 289 358 L254 101 Z " />
<glyph glyph-name="sterling" unicode="&#xa3;" horiz-adv-x="660" d="M27 197 L158 197 C152 162 134 93 121 56 C53 12 25 -21 25 -58 C25 -91 56 -119 92 -119 C128 -119 156 -82 182 -3 C192 2 198 4 206 4 C222 4 245 -11 277 -45 C330 -98 371 -119 422 -119 C529 -119 627 -23 627 80 C627 123 600 154 562 154 C527 154 506 129 506 88 C506 72 507 66 513 25 C515 11 515 7 515 2 C515 -17 502 -29 484 -29 C461 -29 444 -16 379 48 C337 90 306 107 272 107 C260 107 249 104 224 96 C250 134 265 162 280 197 L433 197 L452 288 L315 288 C332 326 363 479 376 597 C385 678 403 712 439 712 C464 712 477 702 494 670 C515 630 534 615 561 615 C595 615 624 646 624 682 C624 739 560 781 473 781 C362 781 287 723 238 599 C210 529 209 521 178 301 L177 294 L176 288 L47 288 L27 197 Z " />
<glyph glyph-name="currency" unicode="&#xa4;" horiz-adv-x="600" d="M6 84 L67 16 L161 121 C206 90 242 79 297 79 C350 79 387 90 437 121 L531 17 L591 84 L495 192 C521 240 531 283 531 344 C531 402 522 440 495 492 L594 603 L533 670 L436 562 C392 590 345 604 295 604 C244 604 195 590 161 564 L67 668 L6 601 L99 498 C69 437 60 403 60 348 C60 292 71 244 98 186 L6 84 Z M299 453 C347 453 385 403 385 340 C385 280 346 230 300 230 C251 230 212 280 212 342 C212 403 251 453 299 453 L299 453 Z " />
<glyph glyph-name="yen" unicode="&#xa5;" horiz-adv-x="479" d="M340 493 L217 493 L198 528 C186 551 181 565 181 576 C181 595 194 604 220 604 L225 604 L225 667 L-59 667 L-59 604 L-54 604 C-17 598 -6 587 24 523 L38 493 L-22 493 L-22 432 L67 432 L136 273 L-13 273 L-13 212 L133 212 L133 127 C132 74 124 65 77 63 L69 63 L69 0 L373 0 L373 63 L365 63 C319 65 311 75 310 127 L310 212 L457 212 L457 273 L299 273 L299 287 L373 432 L466 432 L466 493 L403 493 C450 584 468 604 498 604 L502 604 L502 667 L314 667 L314 604 L318 604 C351 604 371 592 371 572 C371 563 368 552 364 544 L340 493 Z M313 432 L279 368 L248 432 L313 432 Z " />
<glyph glyph-name="brokenbar" unicode="&#xa6;" horiz-adv-x="464" d="M164 667 L164 297 L302 297 L302 667 L164 667 Z M164 153 L164 -167 L302 -167 L302 153 L164 153 Z " />
<glyph glyph-name="section" unicode="&#xa7;" horiz-adv-x="489" d="M122 374 C64 363 21 302 21 231 C21 144 60 85 171 3 C225 -36 252 -57 266 -69 C289 -90 300 -110 300 -132 C300 -161 274 -185 242 -185 C210 -185 190 -167 180 -129 C168 -82 166 -78 157 -68 C146 -57 130 -50 116 -50 C81 -50 54 -82 54 -122 C54 -194 128 -248 227 -248 C341 -248 426 -177 426 -84 C426 -29 402 22 362 53 C427 74 458 122 458 200 C458 258 444 301 413 342 C389 372 363 394 285 447 C220 490 220 490 206 502 C187 518 176 540 176 562 C176 592 204 617 237 617 C268 617 286 602 298 567 C311 527 311 527 315 518 C327 495 341 485 362 485 C399 485 428 517 428 557 C428 625 352 680 257 680 C139 680 53 608 53 510 C53 453 76 408 122 374 L122 374 Z M166 329 C189 329 247 289 291 241 C330 199 346 172 346 146 C346 123 331 105 312 105 C296 105 281 112 254 134 C227 155 206 174 186 193 C151 226 131 260 131 286 C131 307 149 329 166 329 L166 329 Z " />
<glyph glyph-name="dieresis" unicode="&#xa8;" horiz-adv-x="436" d="M110 642 C68 642 33 607 33 566 C33 523 67 488 110 488 C153 488 187 523 187 565 C187 608 153 642 110 642 L110 642 Z M326 642 C284 642 249 607 249 566 C249 522 283 488 326 488 C368 488 403 523 403 565 C403 607 368 642 326 642 L326 642 Z " />
<glyph glyph-name="copyright" unicode="&#xa9;" horiz-adv-x="723" d="M362 680 C190 680 50 525 50 333 C50 145 190 -13 358 -13 C535 -13 674 140 674 335 C674 526 535 680 362 680 L362 680 Z M362 629 C506 629 623 497 623 334 C623 168 507 38 358 38 C218 38 101 173 101 333 C101 497 218 629 362 629 L362 629 Z M473 291 C459 222 428 183 386 183 C363 183 340 199 330 222 C321 244 317 276 317 332 C317 438 337 482 385 482 C424 482 455 443 468 375 L496 375 L493 510 L465 510 C462 498 461 495 456 481 C427 511 402 523 366 523 C276 523 208 441 208 331 C208 223 274 142 363 142 C401 142 439 159 460 186 C466 176 470 166 473 151 L501 151 L501 291 L473 291 Z " />
<glyph glyph-name="ordfeminine" unicode="&#xaa;" horiz-adv-x="328" d="M300 332 C298 322 294 318 287 318 C278 318 275 322 275 334 L275 456 C275 516 248 537 171 537 C84 537 31 509 31 463 C31 440 47 424 68 424 C91 424 105 438 107 464 C108 485 116 493 136 493 C156 493 162 486 162 463 L162 440 L160 439 C71 409 25 370 25 323 C25 284 50 261 92 261 C123 261 147 270 171 289 C184 271 209 261 242 261 C298 261 327 285 329 332 L300 332 Z M162 330 C157 320 152 315 146 315 C136 315 128 328 128 343 C128 363 138 378 162 395 L162 330 Z " />
<glyph glyph-name="guillemotleft" unicode="&#xab;" horiz-adv-x="531" d="M2 217 L181 -6 L238 -6 L176 217 L237 440 L180 440 L2 217 Z M253 217 L432 -6 L489 -6 L427 217 L488 440 L431 440 L253 217 Z " />
<glyph glyph-name="logicalnot" unicode="&#xac;" horiz-adv-x="450" d="M428 0 L428 267 L22 267 L22 175 L210 175 L210 0 L428 0 Z " />
<glyph glyph-name="uni00AD" unicode="&#xad;" horiz-adv-x="319" d="M26 260 L26 179 L298 179 L298 260 L26 260 Z " />
<glyph glyph-name="registered" unicode="&#xae;" horiz-adv-x="723" d="M362 680 C190 680 50 525 50 333 C50 145 190 -13 358 -13 C535 -13 674 140 674 335 C674 526 535 680 362 680 L362 680 Z M362 629 C506 629 623 497 623 334 C623 168 507 38 358 38 C218 38 101 173 101 333 C101 497 218 629 362 629 L362 629 Z M204 150 L371 150 L371 184 L368 184 C344 186 337 194 337 220 L337 308 L341 308 C369 309 378 304 387 282 C387 281 390 274 393 267 C400 251 406 238 409 229 C431 173 433 168 444 150 L541 150 L541 184 L538 184 C522 186 509 203 486 254 C472 287 453 316 440 328 C473 342 495 377 495 416 C495 472 462 509 409 515 C391 516 363 517 287 517 L204 517 L204 483 L209 483 C232 481 240 472 240 446 L240 220 C240 194 234 186 208 184 L204 184 L204 150 Z M337 346 L337 477 C339 478 342 478 343 478 C382 478 395 463 395 414 C395 363 384 346 350 346 L337 346 Z " />
<glyph glyph-name="macron" unicode="&#xaf;" horiz-adv-x="370" d="M33 530 L336 530 L336 593 L33 593 L33 530 Z " />
<glyph glyph-name="degree" unicode="&#xb0;" horiz-adv-x="400" d="M203 686 C117 686 50 619 50 534 C50 448 116 381 200 381 C284 381 350 448 350 533 C350 619 286 686 203 686 L203 686 Z M202 629 C252 629 293 586 293 534 C293 480 252 438 200 438 C148 438 106 481 106 533 C106 587 148 629 202 629 L202 629 Z " />
<glyph glyph-name="plusminus" unicode="&#xb1;" horiz-adv-x="450" d="M-3 465 L-3 364 L171 364 L171 157 L276 157 L276 364 L453 364 L453 465 L276 465 L276 671 L171 671 L171 465 L-3 465 Z M-3 101 L-3 1 L453 1 L453 101 L-3 101 Z " />
<glyph glyph-name="twosuperior" unicode="&#xb2;" horiz-adv-x="338" d="M42 267 L236 267 C252 267 252 266 252 255 C252 250 252 249 249 245 L292 245 L307 339 L155 339 C282 487 301 516 301 565 C301 630 247 675 170 675 C96 675 40 633 40 578 C40 551 49 525 58 525 C62 525 70 527 78 531 C86 535 95 539 109 543 C120 547 121 548 120 556 L120 573 C120 599 120 599 124 608 C127 620 137 628 147 628 C163 628 175 602 175 566 C175 482 132 396 42 301 L42 267 Z " />
<glyph glyph-name="threesuperior" unicode="&#xb3;" horiz-adv-x="338" d="M221 509 C270 538 289 564 289 599 C289 643 242 675 176 675 C98 675 36 632 36 579 C36 556 46 536 58 536 C65 536 88 545 115 558 C124 562 125 563 125 567 C125 570 125 572 123 575 C120 583 119 591 119 599 C119 614 132 628 146 628 C161 628 172 608 172 582 C172 547 157 520 122 494 C109 484 103 475 103 466 C103 453 112 441 121 441 C127 441 134 445 138 450 C148 464 149 464 156 464 C161 464 165 462 166 458 C168 451 171 411 171 379 C171 331 154 304 124 304 C113 304 107 310 102 327 C93 356 80 369 60 369 C38 369 19 349 19 325 C19 286 60 259 120 259 C222 259 297 323 297 410 C297 464 275 492 221 509 L221 509 Z " />
<glyph glyph-name="acute" unicode="&#xb4;" horiz-adv-x="475" d="M169 484 L218 484 L422 626 L422 639 L224 639 L169 484 Z " />
<glyph glyph-name="mu" unicode="&#xb5;" horiz-adv-x="576" d="M442 500 L353 500 L354 131 C318 80 284 58 242 58 C184 58 150 99 150 169 L150 500 L62 500 L62 20 C62 -1 58 -26 51 -56 C34 -118 33 -123 33 -147 C33 -190 54 -219 83 -219 C112 -219 132 -189 132 -145 C132 -124 129 -110 113 -53 C102 -17 101 -8 101 21 L101 33 C143 -3 165 -13 200 -13 C250 -13 301 18 354 80 C362 48 367 36 377 21 C392 0 419 -13 449 -13 C510 -13 553 31 567 108 L540 109 C536 71 515 41 492 41 C462 41 442 77 442 131 L442 500 Z " />
<glyph glyph-name="paragraph" unicode="&#xb6;" horiz-adv-x="621" d="M545 667 L267 667 C177 667 176 667 154 661 C88 642 46 579 46 501 C46 431 80 374 136 350 C156 341 187 337 235 337 L256 337 L256 5 L256 -18 C255 -34 254 -36 238 -36 L221 -36 L208 -36 L190 -36 L190 -76 L355 -76 L355 624 L394 624 L394 -76 L531 -76 L531 -36 L519 -36 L506 -36 C502 -37 502 -37 501 -37 C494 -37 494 -36 494 -1 L494 560 L495 596 C495 605 497 614 499 618 C501 625 510 627 536 628 L545 628 L545 667 Z M256 628 L256 380 L240 380 C219 380 206 427 206 508 C206 549 212 597 220 614 C224 624 231 628 245 628 L256 628 Z " />
<glyph glyph-name="periodcentered" unicode="&#xb7;" horiz-adv-x="269" d="M127 430 C79 430 39 386 39 333 C39 278 78 234 127 234 C176 234 215 278 215 332 C215 386 176 430 127 430 L127 430 Z " />
<glyph glyph-name="cedilla" unicode="&#xb8;" horiz-adv-x="450" d="M198 0 C194 -48 190 -81 183 -105 C198 -106 208 -119 208 -138 C208 -155 201 -162 183 -162 C167 -162 155 -160 135 -153 C134 -178 133 -182 130 -205 C144 -212 163 -216 185 -216 C256 -216 299 -181 299 -123 C299 -75 276 -45 236 -40 C239 -21 239 -18 241 0 L198 0 Z " />
<glyph glyph-name="onesuperior" unicode="&#xb9;" horiz-adv-x="338" d="M204 676 C161 650 124 640 61 638 L61 596 L93 596 L99 595 L100 595 L111 596 C120 596 123 587 123 558 L123 334 C122 313 121 311 104 311 L92 311 L92 267 L278 267 L278 311 L266 311 C250 312 248 314 248 336 L248 676 L204 676 Z " />
<glyph glyph-name="ordmasculine" unicode="&#xba;" horiz-adv-x="324" d="M161 537 C80 537 24 479 24 397 C24 313 79 257 162 257 C243 257 300 316 300 399 C300 481 244 537 161 537 L161 537 Z M162 490 C177 490 181 472 181 407 C181 322 177 303 162 303 C147 303 142 325 142 398 C142 473 146 490 162 490 L162 490 Z " />
<glyph glyph-name="guillemotright" unicode="&#xbb;" horiz-adv-x="531" d="M510 217 L333 440 L275 440 L337 217 L275 -6 L331 -6 L510 217 Z M259 217 L81 440 L24 440 L85 217 L23 -6 L80 -6 L259 217 Z " />
<glyph glyph-name="onequarter" unicode="&#xbc;" horiz-adv-x="842" d="M204 676 C162 650 125 640 61 638 L61 596 L82 596 L91 595 L92 595 L107 596 C120 596 123 588 123 558 L123 334 C122 313 120 311 97 311 L81 311 L81 267 L288 267 L288 311 L272 311 C250 312 248 314 248 336 L248 676 L204 676 Z M348 0 L651 675 L579 675 L276 0 L348 0 Z M655 135 L655 75 C655 49 651 45 627 44 L610 44 L610 0 L823 0 L823 44 L805 44 C784 45 779 52 779 78 L779 135 L816 135 L823 206 L801 206 L799 200 C796 193 789 188 783 188 L779 188 L779 406 L710 406 L539 190 L539 135 L655 135 Z M655 188 L590 188 L655 274 L655 188 Z " />
<glyph glyph-name="onehalf" unicode="&#xbd;" horiz-adv-x="842" d="M204 676 C162 650 125 640 61 638 L61 596 L82 596 L91 595 L92 595 L107 596 C120 596 123 588 123 558 L123 334 C122 313 120 311 97 311 L81 311 L81 267 L288 267 L288 311 L272 311 C250 312 248 314 248 336 L248 676 L204 676 Z M330 0 L633 675 L561 675 L258 0 L330 0 Z M553 0 L743 0 C758 0 759 -1 759 -10 C759 -13 758 -17 757 -20 L756 -22 L798 -22 L813 72 L664 72 C788 219 807 249 807 299 C807 364 754 409 678 409 C606 409 551 367 551 311 C551 285 559 258 568 258 C570 258 582 262 593 267 C603 271 611 274 617 276 C627 280 628 281 628 289 L628 306 L628 324 C628 345 640 362 653 362 C670 362 681 336 681 300 C681 215 639 129 553 34 L553 0 Z " />
<glyph glyph-name="threequarters" unicode="&#xbe;" horiz-adv-x="842" d="M330 0 L638 675 L565 675 L257 0 L330 0 Z M653 135 L653 75 C653 49 649 45 623 44 L606 44 L606 0 L823 0 L823 44 L804 44 C782 45 777 52 777 78 L777 135 L816 135 L823 206 L800 206 L798 200 C795 194 787 188 781 188 L777 188 L777 406 L708 406 L533 190 L533 135 L653 135 Z M653 188 L586 188 L653 274 L653 188 Z M221 509 C270 538 289 564 289 599 C289 643 242 675 176 675 C98 675 36 632 36 579 C36 556 46 536 58 536 C65 536 88 545 115 558 C124 562 125 563 125 567 C125 570 125 572 123 575 C120 583 119 591 119 599 C119 614 132 628 146 628 C161 628 172 608 172 582 C172 547 157 520 122 494 C109 484 103 475 103 466 C103 453 112 441 121 441 C127 441 134 445 138 450 C148 464 149 464 156 464 C161 464 165 462 166 458 C168 451 171 411 171 379 C171 331 154 304 124 304 C113 304 107 310 102 327 C93 356 80 369 60 369 C38 369 19 349 19 325 C19 286 60 259 120 259 C222 259 297 323 297 410 C297 464 275 492 221 509 L221 509 Z " />
<glyph glyph-name="questiondown" unicode="&#xbf;" horiz-adv-x="453" d="M274 445 C227 445 188 401 188 349 C188 293 226 249 274 249 C322 249 360 293 360 347 C360 401 322 445 274 445 L274 445 Z M309 197 L238 197 L238 125 C216 130 203 132 185 132 C92 132 24 54 24 -52 C24 -175 108 -257 232 -257 C329 -257 406 -204 406 -137 C406 -109 381 -84 353 -84 C325 -84 308 -105 300 -153 C295 -179 282 -193 261 -193 C222 -193 201 -140 201 -38 C201 25 213 56 237 56 C245 56 251 52 256 44 L309 44 L309 197 Z " />
<glyph glyph-name="Agrave" unicode="&#xc0;" horiz-adv-x="588" d="M600 0 L600 63 L596 63 C556 67 538 87 507 167 L322 679 L262 679 L87 182 C62 110 28 66 -7 63 L-12 63 L-12 0 L191 0 L191 63 L185 63 C148 63 130 74 130 99 C130 109 133 123 139 141 L147 164 L321 164 L332 134 C342 102 343 100 343 91 C343 72 327 63 291 63 L287 63 L287 0 L600 0 Z M298 229 L168 229 L231 407 L298 229 Z M392 734 L293 903 L78 903 L78 889 L347 734 L392 734 Z " />
<glyph glyph-name="Aacute" unicode="&#xc1;" horiz-adv-x="588" d="M600 0 L600 63 L596 63 C556 67 538 87 507 167 L322 679 L262 679 L87 182 C62 110 28 66 -7 63 L-12 63 L-12 0 L191 0 L191 63 L185 63 C148 63 130 74 130 99 C130 109 133 123 139 141 L147 164 L321 164 L332 134 C342 102 343 100 343 91 C343 72 327 63 291 63 L287 63 L287 0 L600 0 Z M298 229 L168 229 L231 407 L298 229 Z M240 734 L285 734 L554 889 L554 903 L339 903 L240 734 Z " />
<glyph glyph-name="Acircumflex" unicode="&#xc2;" horiz-adv-x="588" d="M600 0 L600 63 L596 63 C556 67 538 87 507 167 L322 679 L262 679 L87 182 C62 110 28 66 -7 63 L-12 63 L-12 0 L191 0 L191 63 L185 63 C148 63 130 74 130 99 C130 109 133 123 139 141 L147 164 L321 164 L332 134 C342 102 343 100 343 91 C343 72 327 63 291 63 L287 63 L287 0 L600 0 Z M298 229 L168 229 L231 407 L298 229 Z M176 898 L82 732 L126 732 L288 828 L451 732 L494 732 L396 898 L176 898 Z " />
<glyph glyph-name="Atilde" unicode="&#xc3;" horiz-adv-x="588" d="M600 0 L600 63 L596 63 C556 67 538 87 507 167 L322 679 L262 679 L87 182 C62 110 28 66 -7 63 L-12 63 L-12 0 L191 0 L191 63 L185 63 C148 63 130 74 130 99 C130 109 133 123 139 141 L147 164 L321 164 L332 134 C342 102 343 100 343 91 C343 72 327 63 291 63 L287 63 L287 0 L600 0 Z M298 229 L168 229 L231 407 L298 229 Z M153 727 C155 758 170 776 195 776 C210 776 225 770 264 751 C302 733 335 724 368 724 C440 724 483 773 483 855 C483 861 483 870 482 879 L437 879 C430 844 417 827 398 827 C380 827 348 838 309 858 C278 873 250 880 221 880 C146 880 105 835 105 753 C105 744 105 741 106 727 L153 727 Z " />
<glyph glyph-name="Adieresis" unicode="&#xc4;" horiz-adv-x="588" d="M600 0 L600 63 L596 63 C556 67 538 87 507 167 L322 679 L262 679 L87 182 C62 110 28 66 -7 63 L-12 63 L-12 0 L191 0 L191 63 L185 63 C148 63 130 74 130 99 C130 109 133 123 139 141 L147 164 L321 164 L332 134 C342 102 343 100 343 91 C343 72 327 63 291 63 L287 63 L287 0 L600 0 Z M298 229 L168 229 L231 407 L298 229 Z M165 897 C119 897 81 859 81 814 C81 767 118 729 165 729 C211 729 249 767 249 813 C249 860 212 897 165 897 L165 897 Z M415 897 C369 897 331 859 331 814 C331 767 368 729 414 729 C461 729 499 766 499 813 C499 860 462 897 415 897 L415 897 Z " />
<glyph glyph-name="Aring" unicode="&#xc5;" horiz-adv-x="588" d="M87 182 C62 110 28 66 -7 63 L-12 63 L-12 0 L191 0 L191 63 L185 63 C148 63 130 74 130 99 C130 109 133 123 139 141 L147 164 L321 164 L332 134 C342 102 343 100 343 91 C343 72 327 63 291 63 L287 63 L287 0 L600 0 L600 63 L596 63 C556 67 538 88 507 167 L326 670 C377 686 411 732 411 785 C411 851 358 904 292 904 C226 904 173 851 173 785 C173 731 208 685 259 670 L87 182 Z M298 229 L168 229 L231 407 L298 229 Z M294 846 C326 846 353 818 353 786 C353 752 325 724 292 724 C259 724 232 751 232 785 C232 819 259 846 294 846 L294 846 Z " />
<glyph glyph-name="AE" unicode="&#xc6;" horiz-adv-x="877" d="M365 316 L365 126 C365 79 352 66 304 62 L295 62 L295 0 L849 0 L853 223 L796 223 C771 115 726 65 654 68 L650 68 C570 71 559 81 559 148 L559 316 L615 316 C648 315 657 305 662 263 C663 260 663 257 664 253 L664 244 L665 238 L718 238 L718 461 L665 461 L664 455 C658 396 647 382 606 384 L559 384 L559 599 L673 599 C720 603 741 579 769 491 L826 491 L818 667 L205 667 L205 606 L231 606 L234 606 C271 604 279 599 279 580 C279 566 274 552 261 523 L97 182 C52 97 18 63 -24 62 L-24 0 L183 0 L183 62 L177 62 C153 62 135 75 135 93 C135 104 139 117 147 130 C150 135 152 139 153 141 L229 316 L365 316 Z M365 384 L264 384 L365 619 L365 384 Z " />
<glyph glyph-name="Ccedilla" unicode="&#xc7;" horiz-adv-x="671" d="M379 -12 C440 -7 504 24 542 66 C552 51 560 31 566 3 L623 3 L623 258 L566 258 C560 231 546 188 535 161 C509 103 450 60 392 60 C345 60 299 89 279 131 C261 171 253 231 253 333 C253 431 261 490 281 532 C303 580 341 605 389 605 C445 605 488 574 520 514 C537 481 549 446 557 410 L613 410 L607 655 L551 655 C543 632 537 615 533 602 C477 657 425 679 352 679 C268 679 193 648 139 592 C74 525 36 428 36 329 C36 205 96 88 188 30 C227 5 272 -9 322 -13 C317 -62 312 -93 304 -116 C323 -118 337 -133 337 -153 C337 -172 327 -180 303 -180 C282 -180 266 -177 240 -170 C238 -198 237 -202 233 -228 C254 -236 276 -240 304 -240 C401 -240 458 -202 458 -136 C458 -84 427 -50 374 -45 L379 -12 Z " />
<glyph glyph-name="Egrave" unicode="&#xc8;" horiz-adv-x="614" d="M534 222 C506 105 468 66 386 68 L378 68 C302 71 290 82 293 147 L293 314 L345 314 C385 314 403 292 402 242 L402 235 L456 235 L456 460 L402 460 L402 454 C398 398 386 383 344 382 L293 382 L293 599 L405 599 C458 601 476 582 506 492 L563 492 L555 667 L24 667 L24 605 L35 605 C84 603 99 586 99 539 L99 127 C101 83 83 64 36 63 L27 63 L27 0 L588 0 L590 222 L534 222 Z M449 734 L350 903 L135 903 L135 889 L404 734 L449 734 Z " />
<glyph glyph-name="Eacute" unicode="&#xc9;" horiz-adv-x="614" d="M534 222 C506 105 468 66 386 68 L378 68 C302 71 290 82 293 147 L293 314 L345 314 C385 314 403 292 402 242 L402 235 L456 235 L456 460 L402 460 L402 454 C398 398 386 383 344 382 L293 382 L293 599 L405 599 C458 601 476 582 506 492 L563 492 L555 667 L24 667 L24 605 L35 605 C84 603 99 586 99 539 L99 127 C101 83 83 64 36 63 L27 63 L27 0 L588 0 L590 222 L534 222 Z M237 734 L282 734 L550 889 L550 903 L336 903 L237 734 Z " />
<glyph glyph-name="Ecircumflex" unicode="&#xca;" horiz-adv-x="614" d="M534 222 C506 105 468 66 386 68 L378 68 C302 71 290 82 293 147 L293 314 L345 314 C385 314 403 292 402 242 L402 235 L456 235 L456 460 L402 460 L402 454 C398 398 386 383 344 382 L293 382 L293 599 L405 599 C458 601 476 582 506 492 L563 492 L555 667 L24 667 L24 605 L35 605 C84 603 99 586 99 539 L99 127 C101 83 83 64 36 63 L27 63 L27 0 L588 0 L590 222 L534 222 Z M206 898 L112 732 L156 732 L318 828 L482 732 L524 732 L426 898 L206 898 Z " />
<glyph glyph-name="Edieresis" unicode="&#xcb;" horiz-adv-x="614" d="M534 222 C506 105 468 66 386 68 L378 68 C302 71 290 82 293 147 L293 314 L345 314 C385 314 403 292 402 242 L402 235 L456 235 L456 460 L402 460 L402 454 C398 398 386 383 344 382 L293 382 L293 599 L405 599 C458 601 476 582 506 492 L563 492 L555 667 L24 667 L24 605 L35 605 C84 603 99 586 99 539 L99 127 C101 83 83 64 36 63 L27 63 L27 0 L588 0 L590 222 L534 222 Z M193 897 C147 897 109 859 109 814 C109 767 146 729 193 729 C239 729 277 767 277 813 C277 860 240 897 193 897 L193 897 Z M443 897 C397 897 359 859 359 814 C359 767 396 729 442 729 C489 729 527 766 527 813 C527 860 490 897 443 897 L443 897 Z " />
<glyph glyph-name="Igrave" unicode="&#xcc;" horiz-adv-x="376" d="M24 604 L29 604 C75 602 90 586 90 539 L90 127 C91 80 77 66 28 63 L24 63 L24 0 L352 0 L352 63 L346 63 C297 66 283 80 284 127 L284 539 C284 586 299 602 345 604 L352 604 L352 667 L24 667 L24 604 Z M319 734 L221 903 L6 903 L6 889 L275 734 L319 734 Z " />
<glyph glyph-name="Iacute" unicode="&#xcd;" horiz-adv-x="376" d="M24 604 L29 604 C75 602 90 586 90 539 L90 127 C91 80 77 66 28 63 L24 63 L24 0 L352 0 L352 63 L346 63 C297 66 283 80 284 127 L284 539 C284 586 299 602 345 604 L352 604 L352 667 L24 667 L24 604 Z M122 734 L167 734 L435 889 L435 903 L221 903 L122 734 Z " />
<glyph glyph-name="Icircumflex" unicode="&#xce;" horiz-adv-x="376" d="M24 604 L29 604 C75 602 90 586 90 539 L90 127 C91 80 77 66 28 63 L24 63 L24 0 L352 0 L352 63 L346 63 C297 66 283 80 284 127 L284 539 C284 586 299 602 345 604 L352 604 L352 667 L24 667 L24 604 Z M77 898 L-17 732 L26 732 L188 828 L352 732 L395 732 L297 898 L77 898 Z " />
<glyph glyph-name="Idieresis" unicode="&#xcf;" horiz-adv-x="376" d="M24 604 L29 604 C74 602 89 586 89 539 L89 127 C90 80 76 66 28 63 L24 63 L24 0 L352 0 L352 63 L346 63 C296 66 282 80 283 127 L283 539 C283 586 298 602 345 604 L352 604 L352 667 L24 667 L24 604 Z M79 897 C33 897 -5 859 -5 814 C-5 767 32 729 79 729 C125 729 163 767 163 813 C163 860 126 897 79 897 L79 897 Z M293 897 C247 897 209 859 209 814 C209 767 246 729 292 729 C339 729 377 766 377 813 C377 860 340 897 293 897 L293 897 Z " />
<glyph glyph-name="Eth" unicode="&#xd0;" horiz-adv-x="726" d="M89 370 L20 370 L20 297 L89 297 L89 127 C90 81 75 64 31 63 L29 63 L29 0 L234 0 C408 1 442 4 487 19 C613 62 691 182 691 332 C691 470 625 584 513 639 C457 666 396 675 266 675 L246 675 C212 675 184 675 167 674 L35 669 L28 669 L28 606 L32 606 C73 604 90 585 89 540 L89 370 Z M283 370 L283 607 C327 607 350 602 372 588 C440 546 469 470 469 332 C469 160 426 68 344 68 C315 68 296 78 288 97 C283 109 283 112 283 144 L283 297 L387 297 L387 370 L283 370 Z " />
<glyph glyph-name="Ntilde" unicode="&#xd1;" horiz-adv-x="710" d="M612 -9 L612 492 C610 563 629 592 685 604 L692 604 L692 667 L453 667 L453 604 L457 604 C511 603 541 561 539 493 L539 287 L230 667 L24 667 L24 604 L28 604 C73 602 104 564 103 513 L103 176 C103 131 102 120 94 104 C84 81 57 62 36 62 L33 62 L30 62 L30 0 L250 0 L250 62 L244 62 L238 62 C218 62 197 79 186 102 C177 120 176 132 176 176 L176 444 L538 -9 L612 -9 Z M221 727 L221 732 C221 756 240 776 263 776 C278 776 294 770 332 751 C370 733 403 724 437 724 C509 724 552 773 552 855 L551 879 L506 879 C498 843 486 827 466 827 C449 827 416 838 377 858 C346 873 318 880 289 880 C214 880 173 835 173 753 C173 745 173 740 174 727 L221 727 Z " />
<glyph glyph-name="Ograve" unicode="&#xd2;" horiz-adv-x="748" d="M380 679 C279 679 195 647 138 587 C74 519 36 424 36 333 C36 245 63 164 114 100 C173 26 264 -14 372 -14 C479 -14 558 18 620 85 C679 151 712 237 712 330 C712 436 669 536 593 603 C536 654 466 679 380 679 L380 679 Z M374 605 C455 605 485 527 485 316 C485 219 478 164 460 121 C444 83 412 60 376 60 C335 60 305 86 286 139 C271 181 265 237 265 343 C265 530 296 605 374 605 L374 605 Z M493 734 L394 903 L179 903 L179 889 L448 734 L493 734 Z " />
<glyph glyph-name="Oacute" unicode="&#xd3;" horiz-adv-x="748" d="M380 679 C279 679 195 647 138 587 C74 519 36 424 36 333 C36 245 63 164 114 100 C173 26 264 -14 372 -14 C479 -14 558 18 620 85 C679 151 712 237 712 330 C712 436 669 536 593 603 C536 654 466 679 380 679 L380 679 Z M374 605 C455 605 485 527 485 316 C485 219 478 164 460 121 C444 83 412 60 376 60 C335 60 305 86 286 139 C271 181 265 237 265 343 C265 530 296 605 374 605 L374 605 Z M323 734 L367 734 L636 889 L636 903 L421 903 L323 734 Z " />
<glyph glyph-name="Ocircumflex" unicode="&#xd4;" horiz-adv-x="748" d="M380 679 C279 679 195 647 138 587 C74 519 36 424 36 333 C36 245 63 164 114 100 C173 26 264 -14 372 -14 C479 -14 558 18 620 85 C679 151 712 237 712 330 C712 436 669 536 593 603 C536 654 466 679 380 679 L380 679 Z M374 605 C455 605 485 527 485 316 C485 219 478 164 460 121 C444 83 412 60 376 60 C335 60 305 86 286 139 C271 181 265 237 265 343 C265 530 296 605 374 605 L374 605 Z M269 898 L175 732 L218 732 L380 828 L544 732 L587 732 L489 898 L269 898 Z " />
<glyph glyph-name="Otilde" unicode="&#xd5;" horiz-adv-x="748" d="M380 679 C279 679 195 647 138 587 C74 519 36 424 36 333 C36 245 63 164 114 100 C173 26 264 -14 372 -14 C479 -14 558 18 620 85 C679 151 712 237 712 330 C712 436 669 536 593 603 C536 654 466 679 380 679 L380 679 Z M374 605 C455 605 485 527 485 316 C485 219 478 164 460 121 C444 83 412 60 376 60 C335 60 305 86 286 139 C271 181 265 237 265 343 C265 530 296 605 374 605 L374 605 Z M237 727 C237 756 254 776 279 776 C294 776 310 770 348 751 C386 733 419 724 453 724 C525 724 568 772 568 855 L567 879 L521 879 C514 843 502 827 482 827 C464 827 432 838 393 858 C362 873 334 880 305 880 C230 880 189 835 189 753 C189 746 189 740 190 727 L237 727 Z " />
<glyph glyph-name="Odieresis" unicode="&#xd6;" horiz-adv-x="748" d="M380 679 C279 679 195 647 138 587 C74 519 36 424 36 333 C36 245 63 164 114 100 C173 26 264 -14 372 -14 C479 -14 558 18 620 85 C679 151 712 237 712 330 C712 436 669 536 593 603 C536 654 466 679 380 679 L380 679 Z M374 605 C455 605 485 527 485 316 C485 219 478 164 460 121 C444 83 412 60 376 60 C335 60 305 86 286 139 C271 181 265 237 265 343 C265 530 296 605 374 605 L374 605 Z M251 897 C205 897 167 859 167 814 C167 767 204 729 251 729 C297 729 335 767 335 813 C335 860 298 897 251 897 L251 897 Z M501 897 C455 897 417 859 417 814 C417 767 454 729 500 729 C547 729 585 766 585 813 C585 860 548 897 501 897 L501 897 Z " />
<glyph glyph-name="multiply" unicode="&#xd7;" horiz-adv-x="450" d="M99 588 L35 517 L161 378 L32 236 L99 162 L227 305 L352 164 L417 236 L290 375 L418 517 L351 591 L224 448 L99 588 Z " />
<glyph glyph-name="Oslash" unicode="&#xd8;" horiz-adv-x="748" d="M89 28 L132 -13 L176 42 C230 6 301 -14 376 -14 C479 -14 559 19 620 85 C679 151 712 237 712 330 C712 427 675 520 610 587 L651 639 L610 680 L566 625 C513 661 453 679 380 679 C279 679 194 647 138 587 C73 519 36 424 36 328 C36 235 69 148 131 81 L89 28 Z M267 250 C266 277 265 306 265 338 C265 530 295 605 374 605 C423 605 453 574 470 505 L267 250 Z M481 425 C484 390 485 352 485 314 C485 218 478 164 460 121 C444 83 412 60 376 60 C327 60 292 99 277 169 L481 425 Z " />
<glyph glyph-name="Ugrave" unicode="&#xd9;" horiz-adv-x="698" d="M430 667 L430 605 L436 605 C491 606 529 566 527 509 L527 286 C527 218 524 185 514 158 C494 100 446 64 389 64 C341 64 302 90 279 136 C264 168 259 198 259 262 L259 539 C259 586 275 602 326 605 L335 605 L335 667 L15 667 L15 605 L19 605 C71 602 88 586 88 539 L88 278 C88 217 88 213 93 187 C102 141 122 99 151 66 C197 14 264 -14 343 -14 C449 -14 535 33 570 111 C594 162 600 199 600 285 L600 498 C600 547 603 559 621 578 C636 594 658 605 676 605 L679 605 L683 605 L683 667 L430 667 Z M470 734 L371 903 L156 903 L156 889 L425 734 L470 734 Z " />
<glyph glyph-name="Uacute" unicode="&#xda;" horiz-adv-x="698" d="M430 667 L430 605 L436 605 C491 606 529 566 527 509 L527 286 C527 218 524 185 514 158 C494 100 446 64 389 64 C341 64 302 90 279 136 C264 168 259 198 259 262 L259 539 C259 586 275 602 326 605 L335 605 L335 667 L15 667 L15 605 L19 605 C71 602 88 586 88 539 L88 278 C88 217 88 213 93 187 C102 141 122 99 151 66 C197 14 264 -14 343 -14 C449 -14 535 33 570 111 C594 162 600 199 600 285 L600 498 C600 547 603 559 621 578 C636 594 658 605 676 605 L679 605 L683 605 L683 667 L430 667 Z M289 734 L334 734 L603 889 L603 903 L388 903 L289 734 Z " />
<glyph glyph-name="Ucircumflex" unicode="&#xdb;" horiz-adv-x="698" d="M430 667 L430 605 L436 605 C491 606 529 566 527 509 L527 286 C527 218 524 185 514 158 C494 100 446 64 389 64 C341 64 302 90 279 136 C264 168 259 198 259 262 L259 539 C259 586 275 602 326 605 L335 605 L335 667 L15 667 L15 605 L19 605 C71 602 88 586 88 539 L88 278 C88 217 88 213 93 187 C102 141 122 99 151 66 C197 14 264 -14 343 -14 C449 -14 535 33 570 111 C594 162 600 199 600 285 L600 498 C600 547 603 559 621 578 C636 594 658 605 676 605 L679 605 L683 605 L683 667 L430 667 Z M255 898 L160 732 L204 732 L366 828 L530 732 L572 732 L474 898 L255 898 Z " />
<glyph glyph-name="Udieresis" unicode="&#xdc;" horiz-adv-x="698" d="M430 667 L430 605 L436 605 C491 606 529 566 527 509 L527 286 C527 218 524 185 514 158 C494 100 446 64 389 64 C341 64 302 90 279 136 C264 168 259 198 259 262 L259 539 C259 586 275 602 326 605 L335 605 L335 667 L15 667 L15 605 L19 605 C71 602 88 586 88 539 L88 278 C88 217 88 213 93 187 C102 141 122 99 151 66 C197 14 264 -14 343 -14 C449 -14 535 33 570 111 C594 162 600 199 600 285 L600 498 C600 547 603 559 621 578 C636 594 658 605 676 605 L679 605 L683 605 L683 667 L430 667 Z M239 897 C193 897 155 859 155 814 C155 767 192 729 239 729 C285 729 323 767 323 813 C323 860 286 897 239 897 L239 897 Z M489 897 C443 897 405 859 405 814 C405 767 442 729 488 729 C535 729 573 766 573 813 C573 860 536 897 489 897 L489 897 Z " />
<glyph glyph-name="Yacute" unicode="&#xdd;" horiz-adv-x="601" d="M371 368 L274 529 C261 551 255 565 255 577 C255 595 270 605 299 605 L304 605 L304 667 L-11 667 L-11 605 L-7 605 C33 600 49 586 81 524 L202 278 L202 127 C203 80 189 66 140 63 L131 63 L131 0 L469 0 L469 63 L460 63 C411 66 398 80 399 127 L399 290 L498 484 C514 516 546 566 562 583 C573 595 592 605 606 605 L609 605 L612 605 L612 667 L403 667 L403 605 L408 605 C441 605 458 591 458 565 C458 551 453 534 446 518 L371 368 Z M260 734 L304 734 L573 889 L573 903 L358 903 L260 734 Z " />
<glyph glyph-name="Thorn" unicode="&#xde;" horiz-adv-x="629" d="M367 667 L24 667 L24 604 L38 604 C84 602 99 586 99 539 L99 126 C100 79 86 66 37 63 L29 63 L29 0 L367 0 L367 63 L356 63 C303 66 292 78 293 135 L293 142 L327 142 C412 142 430 143 465 153 C555 179 605 243 605 332 C605 415 559 482 483 507 C439 522 418 524 293 525 C292 588 301 600 356 604 L367 604 L367 667 Z M293 210 L293 456 C339 455 346 453 360 441 C383 420 395 383 395 329 C395 245 372 210 316 210 L293 210 Z " />
<glyph glyph-name="germandbls" unicode="&#xdf;" horiz-adv-x="581" d="M62 112 C61 68 57 64 16 60 L15 60 L15 0 L268 0 L268 60 L265 60 C249 63 243 75 243 99 L243 533 C243 594 256 618 291 618 C329 618 347 583 347 510 C347 462 338 426 322 412 C315 406 307 402 291 398 L291 339 L294 339 C307 339 322 330 333 317 C355 288 361 248 362 129 L362 104 C362 65 355 44 341 44 C330 44 321 58 321 74 L321 84 C321 95 317 101 311 101 C302 101 294 88 294 72 C294 24 335 -10 391 -10 C483 -10 548 65 548 170 C548 270 495 338 392 371 C471 390 518 445 518 516 C518 619 435 680 292 680 C211 680 156 663 116 626 C75 588 62 541 62 436 L62 112 Z " />
<glyph glyph-name="agrave" unicode="&#xe0;" horiz-adv-x="529" d="M489 94 C486 79 479 71 468 71 C454 71 447 81 447 102 L447 295 C447 339 443 354 425 375 C399 406 356 419 275 419 C201 419 156 412 115 393 C69 372 44 341 44 306 C44 273 68 249 102 249 C138 249 159 268 162 305 C166 342 181 355 219 355 C253 355 266 341 266 306 L266 266 L260 264 C200 245 173 234 134 211 C62 169 33 132 33 83 C33 25 73 -9 142 -9 C195 -9 240 7 277 39 C299 7 338 -9 396 -9 C479 -9 525 27 528 94 L489 94 Z M266 203 L266 99 C257 81 246 72 233 72 C216 72 201 92 201 117 C201 147 224 179 260 199 L266 203 Z M379 484 L324 639 L126 639 L126 626 L329 484 L379 484 Z " />
<glyph glyph-name="aacute" unicode="&#xe1;" horiz-adv-x="529" d="M489 94 C486 79 479 71 468 71 C454 71 447 81 447 102 L447 295 C447 339 443 354 425 375 C399 406 356 419 275 419 C201 419 156 412 115 393 C69 372 44 341 44 306 C44 273 68 249 102 249 C138 249 159 268 162 305 C166 342 181 355 219 355 C253 355 266 341 266 306 L266 266 L260 264 C200 245 173 234 134 211 C62 169 33 132 33 83 C33 25 73 -9 142 -9 C195 -9 240 7 277 39 C299 7 338 -9 396 -9 C479 -9 525 27 528 94 L489 94 Z M266 203 L266 99 C257 81 246 72 233 72 C216 72 201 92 201 117 C201 147 224 179 260 199 L266 203 Z M235 484 L285 484 L488 626 L488 639 L290 639 L235 484 Z " />
<glyph glyph-name="acircumflex" unicode="&#xe2;" horiz-adv-x="529" d="M489 94 C486 79 479 71 468 71 C454 71 447 81 447 102 L447 295 C447 339 443 354 425 375 C399 406 356 419 275 419 C201 419 156 412 115 393 C69 372 44 341 44 306 C44 273 68 249 102 249 C138 249 159 268 162 305 C166 342 181 355 219 355 C253 355 266 341 266 306 L266 266 L260 264 C200 245 173 234 134 211 C62 169 33 132 33 83 C33 25 73 -9 142 -9 C195 -9 240 7 277 39 C299 7 338 -9 396 -9 C479 -9 525 27 528 94 L489 94 Z M266 203 L266 99 C257 81 246 72 233 72 C216 72 201 92 201 117 C201 147 224 179 260 199 L266 203 Z M389 481 L438 481 L358 644 L204 644 L115 481 L160 481 L282 561 L389 481 Z " />
<glyph glyph-name="atilde" unicode="&#xe3;" horiz-adv-x="529" d="M489 94 C486 79 479 71 468 71 C454 71 447 81 447 102 L447 295 C447 339 443 354 425 375 C399 406 356 419 275 419 C201 419 156 412 115 393 C69 372 44 341 44 306 C44 273 68 249 102 249 C138 249 159 268 162 305 C166 342 181 355 219 355 C253 355 266 341 266 306 L266 266 L260 264 C200 245 173 234 134 211 C62 169 33 132 33 83 C33 25 73 -9 142 -9 C195 -9 240 7 277 39 C299 7 338 -9 396 -9 C479 -9 525 27 528 94 L489 94 Z M266 203 L266 99 C257 81 246 72 233 72 C216 72 201 92 201 117 C201 147 224 179 260 199 L266 203 Z M156 485 C164 506 172 512 194 512 C210 512 225 509 252 502 C304 488 316 486 335 486 C392 486 429 540 429 622 C429 623 429 628 428 632 L384 632 C381 606 368 594 342 594 C327 594 313 596 301 599 C230 619 230 619 210 619 C176 619 141 598 128 571 C118 550 115 531 114 485 L156 485 Z " />
<glyph glyph-name="adieresis" unicode="&#xe4;" horiz-adv-x="529" d="M489 94 C486 79 479 71 468 71 C454 71 447 81 447 102 L447 295 C447 339 443 354 425 375 C399 406 356 419 275 419 C201 419 156 412 115 393 C69 372 44 341 44 306 C44 273 68 249 102 249 C138 249 159 268 162 305 C166 342 181 355 219 355 C253 355 266 341 266 306 L266 266 L260 264 C200 245 173 234 134 211 C62 169 33 132 33 83 C33 25 73 -9 142 -9 C195 -9 240 7 277 39 C299 7 338 -9 396 -9 C479 -9 525 27 528 94 L489 94 Z M266 203 L266 99 C257 81 246 72 233 72 C216 72 201 92 201 117 C201 147 224 179 260 199 L266 203 Z M175 642 C133 642 98 607 98 566 C98 523 132 488 175 488 C218 488 252 523 252 565 C252 608 218 642 175 642 L175 642 Z M391 642 C349 642 314 607 314 566 C314 522 348 488 391 488 C433 488 468 523 468 565 C468 607 433 642 391 642 L391 642 Z " />
<glyph glyph-name="aring" unicode="&#xe5;" horiz-adv-x="529" d="M489 94 C486 79 479 71 468 71 C454 71 447 81 447 102 L447 295 C447 339 443 354 425 375 C399 406 356 419 275 419 C201 419 156 412 115 393 C69 372 44 341 44 306 C44 273 68 249 102 249 C138 249 159 268 162 305 C166 342 181 355 219 355 C253 355 266 341 266 306 L266 266 L260 264 C200 245 173 234 134 211 C62 169 33 132 33 83 C33 25 73 -9 142 -9 C195 -9 240 7 277 39 C299 7 338 -9 396 -9 C479 -9 525 27 528 94 L489 94 Z M266 203 L266 99 C257 81 246 72 233 72 C216 72 201 92 201 117 C201 147 224 179 260 199 L266 203 Z M277 671 C218 671 170 623 170 567 C170 506 217 459 277 459 C335 459 383 507 383 565 C383 624 336 671 277 671 L277 671 Z M277 619 C306 619 331 594 331 565 C331 536 306 511 276 511 C246 511 222 535 222 565 C222 595 247 619 277 619 L277 619 Z " />
<glyph glyph-name="ae" unicode="&#xe6;" horiz-adv-x="705" d="M612 108 C586 78 554 62 523 62 C474 62 438 114 438 185 L438 191 L675 191 C673 238 670 264 662 287 C637 365 564 419 483 419 C450 419 413 412 390 401 C350 413 306 419 250 419 C125 419 41 373 41 306 C41 274 67 251 105 251 C139 251 163 270 165 301 C167 328 167 328 172 336 C179 348 196 356 217 356 C240 356 259 346 267 331 C273 321 273 318 273 295 L273 266 L260 261 C90 194 33 149 33 82 C33 30 78 -7 141 -7 C193 -7 256 17 313 58 C358 15 415 -7 482 -7 C559 -7 624 23 659 75 L612 108 Z M528 248 L438 248 C438 286 438 298 440 310 C445 341 460 358 481 358 C495 358 510 347 517 333 C525 316 526 307 528 260 L528 248 Z M273 94 C264 83 246 74 233 74 C216 74 202 92 202 115 C202 147 223 172 273 203 L273 94 Z " />
<glyph glyph-name="ccedilla" unicode="&#xe7;" horiz-adv-x="460" d="M387 131 C369 83 340 59 299 59 C244 59 219 104 219 204 C219 258 220 276 223 291 C231 333 254 358 282 358 C299 358 308 349 312 329 C324 269 342 245 375 245 C407 245 432 276 432 316 C432 380 376 419 283 419 C131 419 30 328 30 192 C30 73 111 -9 236 -16 C232 -61 228 -86 223 -105 C238 -106 248 -119 248 -138 C248 -155 241 -162 223 -162 C207 -162 195 -160 175 -153 C173 -178 173 -182 169 -205 C184 -212 201 -216 224 -216 C296 -216 339 -181 339 -123 C339 -76 316 -45 275 -40 C277 -27 278 -22 279 -15 C357 -7 418 38 439 102 L387 131 Z " />
<glyph glyph-name="egrave" unicode="&#xe8;" horiz-adv-x="482" d="M391 107 C362 72 331 54 299 54 C265 54 233 75 219 106 C208 129 205 147 205 191 L452 191 L452 204 C452 250 444 288 427 320 C395 381 327 419 247 419 C121 419 33 331 33 205 C33 76 124 -16 253 -16 C325 -16 399 20 437 73 L391 107 Z M205 248 C205 286 206 301 208 313 C213 341 227 356 249 356 C270 356 285 342 293 318 C297 304 299 290 301 248 L205 248 Z M338 484 L283 639 L86 639 L86 626 L289 484 L338 484 Z " />
<glyph glyph-name="eacute" unicode="&#xe9;" horiz-adv-x="482" d="M391 107 C362 72 331 54 299 54 C265 54 233 75 219 106 C208 129 205 147 205 191 L452 191 L452 204 C452 250 444 288 427 320 C395 381 327 419 247 419 C121 419 33 331 33 205 C33 76 124 -16 253 -16 C325 -16 399 20 437 73 L391 107 Z M205 248 C205 286 206 301 208 313 C213 341 227 356 249 356 C270 356 285 342 293 318 C297 304 299 290 301 248 L205 248 Z M207 484 L257 484 L460 626 L460 639 L262 639 L207 484 Z " />
<glyph glyph-name="ecircumflex" unicode="&#xea;" horiz-adv-x="482" d="M391 107 C362 72 331 54 299 54 C265 54 233 75 219 106 C208 129 205 147 205 191 L452 191 L452 204 C452 250 444 288 427 320 C395 381 327 419 247 419 C121 419 33 331 33 205 C33 76 124 -16 253 -16 C325 -16 399 20 437 73 L391 107 Z M205 248 C205 286 206 301 208 313 C213 341 227 356 249 356 C270 356 285 342 293 318 C297 304 299 290 301 248 L205 248 Z M370 481 L419 481 L338 644 L185 644 L95 481 L141 481 L262 561 L370 481 Z " />
<glyph glyph-name="edieresis" unicode="&#xeb;" horiz-adv-x="482" d="M391 107 C362 72 331 54 299 54 C265 54 233 75 219 106 C208 129 205 147 205 191 L452 191 L452 204 C452 250 444 288 427 320 C395 381 327 419 247 419 C121 419 33 331 33 205 C33 76 124 -16 253 -16 C325 -16 399 20 437 73 L391 107 Z M205 248 C205 286 206 301 208 313 C213 341 227 356 249 356 C270 356 285 342 293 318 C297 304 299 290 301 248 L205 248 Z M149 642 C107 642 72 607 72 566 C72 523 106 488 149 488 C192 488 226 523 226 565 C226 608 192 642 149 642 L149 642 Z M365 642 C323 642 288 607 288 566 C288 522 322 488 365 488 C407 488 442 523 442 565 C442 607 407 642 365 642 L365 642 Z " />
<glyph glyph-name="igrave" unicode="&#xec;" horiz-adv-x="311" d="M254 419 L250 419 C239 417 230 415 226 414 L161 403 L106 393 C77 388 58 385 49 384 C33 381 27 380 15 379 L15 319 L25 319 C72 317 82 307 82 265 L82 112 C81 70 71 61 24 60 L15 60 L15 0 L305 0 L305 60 L303 60 C266 61 255 73 254 112 L254 419 Z M268 484 L213 639 L16 639 L16 626 L219 484 L268 484 Z " />
<glyph glyph-name="iacute" unicode="&#xed;" horiz-adv-x="311" d="M254 419 L250 419 C239 417 230 415 226 414 L161 403 L106 393 C77 388 58 385 49 384 C33 381 27 380 15 379 L15 319 L25 319 C72 317 82 307 82 265 L82 112 C81 70 71 61 24 60 L15 60 L15 0 L305 0 L305 60 L303 60 C266 61 255 73 254 112 L254 419 Z M123 484 L172 484 L375 626 L375 639 L178 639 L123 484 Z " />
<glyph glyph-name="icircumflex" unicode="&#xee;" horiz-adv-x="311" d="M254 419 L250 419 C239 417 230 415 226 414 L161 403 L106 393 C77 388 58 385 49 384 C33 381 27 380 15 379 L15 319 L25 319 C72 317 82 307 82 265 L82 112 C81 70 71 61 24 60 L15 60 L15 0 L304 0 L304 60 L302 60 C266 61 255 73 254 112 L254 419 Z M276 481 L326 481 L245 644 L92 644 L2 481 L47 481 L169 561 L276 481 Z " />
<glyph glyph-name="idieresis" unicode="&#xef;" horiz-adv-x="311" d="M254 419 L250 419 C239 417 230 415 226 414 L161 403 L106 393 C77 388 58 385 49 384 C33 381 27 380 15 379 L15 319 L25 319 C72 317 82 307 82 265 L82 112 C81 70 71 61 24 60 L15 60 L15 0 L304 0 L304 60 L302 60 C266 61 255 73 254 112 L254 419 Z M70 642 C28 642 -7 607 -7 566 C-7 523 27 488 70 488 C113 488 147 523 147 565 C147 608 113 642 70 642 L70 642 Z M262 642 C220 642 185 607 185 566 C185 522 219 488 262 488 C304 488 339 523 339 565 C339 607 304 642 262 642 L262 642 Z " />
<glyph glyph-name="eth" unicode="&#xf0;" horiz-adv-x="522" d="M149 594 C177 577 181 574 206 554 L131 512 L155 457 L249 511 C267 489 294 437 299 413 C286 415 280 416 267 416 C202 416 153 402 115 374 C61 333 33 273 33 200 C33 71 123 -15 260 -15 C348 -15 405 12 447 76 C475 118 489 173 489 243 C489 372 449 471 355 572 L411 604 L386 659 L310 614 C274 641 247 657 206 677 L149 594 Z M260 351 C288 351 298 309 298 196 C298 93 287 49 261 49 C233 49 223 94 223 213 C223 309 234 351 260 351 L260 351 Z " />
<glyph glyph-name="ntilde" unicode="&#xf1;" horiz-adv-x="565" d="M238 405 C218 401 210 400 174 394 C103 382 65 375 15 366 L15 306 L17 306 C53 305 63 295 66 260 L66 112 C65 71 56 61 18 60 L17 60 L17 0 L279 0 L279 60 L277 60 C257 64 247 81 247 112 L247 265 C273 309 285 322 303 322 C320 322 331 304 331 276 L331 112 C331 82 323 67 303 60 L300 60 L300 0 L561 0 L561 60 L558 60 C527 61 516 74 515 112 L515 256 C515 304 511 328 499 353 C480 392 431 419 379 419 C331 419 283 395 249 354 C248 383 246 392 242 405 L238 405 Z M180 485 C189 506 196 512 218 512 C234 512 249 509 276 502 C328 488 340 486 359 486 C416 486 453 540 453 622 L453 632 L408 632 C405 606 392 594 366 594 C352 594 337 596 325 599 C254 619 254 619 234 619 C201 619 165 598 152 571 C142 550 139 531 138 485 L180 485 Z " />
<glyph glyph-name="ograve" unicode="&#xf2;" horiz-adv-x="523" d="M260 419 C126 419 33 330 33 202 C33 139 52 88 88 51 C130 9 194 -16 262 -16 C396 -16 490 75 490 204 C490 260 475 306 445 341 C402 390 335 419 260 419 L260 419 Z M261 356 C270 356 279 351 285 341 C298 322 300 302 300 209 C300 79 292 46 261 46 C249 46 238 57 232 76 C224 101 224 101 222 210 C223 302 224 318 233 336 C240 348 250 356 261 356 L261 356 Z M370 484 L315 639 L117 639 L117 626 L321 484 L370 484 Z " />
<glyph glyph-name="oacute" unicode="&#xf3;" horiz-adv-x="523" d="M260 419 C126 419 33 330 33 202 C33 139 52 88 88 51 C130 9 194 -16 262 -16 C396 -16 490 75 490 204 C490 260 475 306 445 341 C402 390 335 419 260 419 L260 419 Z M261 356 C270 356 279 351 285 341 C298 322 300 302 300 209 C300 79 292 46 261 46 C249 46 238 57 232 76 C224 101 224 101 222 210 C223 302 224 318 233 336 C240 348 250 356 261 356 L261 356 Z M216 484 L265 484 L469 626 L469 639 L271 639 L216 484 Z " />
<glyph glyph-name="ocircumflex" unicode="&#xf4;" horiz-adv-x="523" d="M260 419 C126 419 33 330 33 202 C33 139 52 88 88 51 C130 9 194 -16 262 -16 C396 -16 490 75 490 204 C490 260 475 306 445 341 C402 390 335 419 260 419 L260 419 Z M261 356 C270 356 279 351 285 341 C298 322 300 302 300 209 C300 79 292 46 261 46 C249 46 238 57 232 76 C224 101 224 101 222 210 C223 302 224 318 233 336 C240 348 250 356 261 356 L261 356 Z M383 481 L432 481 L351 644 L198 644 L108 481 L153 481 L275 561 L383 481 Z " />
<glyph glyph-name="otilde" unicode="&#xf5;" horiz-adv-x="523" d="M260 419 C126 419 33 330 33 202 C33 139 52 88 88 51 C130 9 194 -16 262 -16 C396 -16 490 75 490 204 C490 260 475 306 445 341 C402 390 335 419 260 419 L260 419 Z M261 356 C270 356 279 351 285 341 C298 322 300 302 300 209 C300 79 292 46 261 46 C249 46 238 57 232 76 C224 101 224 101 222 210 C223 302 224 318 233 336 C240 348 250 356 261 356 L261 356 Z M156 485 C164 506 172 512 194 512 C209 512 224 509 251 502 C303 488 315 486 335 486 C391 486 427 538 428 622 L428 632 L384 632 C381 606 367 594 341 594 C327 594 313 596 301 599 C230 619 230 619 210 619 C176 619 140 598 127 571 C117 550 114 531 113 485 L156 485 Z " />
<glyph glyph-name="odieresis" unicode="&#xf6;" horiz-adv-x="523" d="M260 419 C126 419 33 330 33 202 C33 139 52 88 88 51 C130 9 194 -16 262 -16 C396 -16 490 75 490 204 C490 260 475 306 445 341 C402 390 335 419 260 419 L260 419 Z M261 356 C270 356 279 351 285 341 C298 322 300 302 300 209 C300 79 292 46 261 46 C249 46 238 57 232 76 C224 101 224 101 222 210 C223 302 224 318 233 336 C240 348 250 356 261 356 L261 356 Z M156 642 C114 642 79 607 79 566 C79 523 113 488 156 488 C199 488 233 523 233 565 C233 608 199 642 156 642 L156 642 Z M371 642 C329 642 294 607 294 566 C294 522 328 488 371 488 C413 488 448 523 448 565 C448 607 413 642 371 642 L371 642 Z " />
<glyph glyph-name="divide" unicode="&#xf7;" horiz-adv-x="450" d="M-3 427 L-3 326 L453 326 L453 427 L-3 427 Z M222 267 C177 267 140 226 140 177 C140 126 176 85 222 85 C267 85 304 126 304 176 C304 226 267 267 222 267 L222 267 Z M222 662 C177 662 140 621 140 573 C140 521 176 480 221 480 C267 480 304 520 304 571 C304 621 267 662 222 662 L222 662 Z " />
<glyph glyph-name="oslash" unicode="&#xf8;" horiz-adv-x="523" d="M457 404 L416 445 L375 393 C339 410 301 419 260 419 C125 419 33 330 33 199 C33 132 54 80 98 41 L66 0 L108 -40 L147 10 C185 -8 221 -16 261 -16 C395 -16 490 75 490 204 C490 271 468 324 424 362 L457 404 Z M300 204 C299 146 298 110 295 95 C290 62 279 46 262 46 C243 46 230 68 225 109 L300 204 Z M223 199 C222 203 222 203 222 210 C219 251 226 321 233 336 C240 348 250 356 261 356 C281 356 296 332 298 295 L223 199 Z " />
<glyph glyph-name="ugrave" unicode="&#xf9;" horiz-adv-x="552" d="M499 403 L282 403 L282 343 L284 343 C309 342 318 329 318 291 L318 120 C315 116 315 116 301 101 C292 89 279 81 272 81 C255 81 247 102 247 144 L247 403 L6 403 L6 343 L8 343 C50 342 66 328 66 291 L66 132 C66 89 69 72 80 50 C100 9 142 -16 191 -16 C239 -16 280 5 318 49 L317 4 L315 -8 C315 -8 314 -12 314 -16 L319 -16 C362 -7 464 1 526 1 C528 1 535 1 546 0 L546 60 L544 60 C510 61 500 72 499 112 L499 403 Z M376 484 L321 639 L123 639 L123 626 L327 484 L376 484 Z " />
<glyph glyph-name="uacute" unicode="&#xfa;" horiz-adv-x="552" d="M499 403 L282 403 L282 343 L284 343 C309 342 318 329 318 291 L318 120 C315 116 315 116 301 101 C292 89 279 81 272 81 C255 81 247 102 247 144 L247 403 L6 403 L6 343 L8 343 C50 342 66 328 66 291 L66 132 C66 89 69 72 80 50 C100 9 142 -16 191 -16 C239 -16 280 5 318 49 L317 4 L315 -8 C315 -8 314 -12 314 -16 L319 -16 C362 -7 464 1 526 1 C528 1 535 1 546 0 L546 60 L544 60 C510 61 500 72 499 112 L499 403 Z M245 484 L295 484 L498 626 L498 639 L300 639 L245 484 Z " />
<glyph glyph-name="ucircumflex" unicode="&#xfb;" horiz-adv-x="552" d="M499 403 L282 403 L282 343 L284 343 C309 342 318 329 318 291 L318 120 C315 116 315 116 301 101 C292 89 279 81 272 81 C255 81 247 102 247 144 L247 403 L6 403 L6 343 L8 343 C50 342 66 328 66 291 L66 132 C66 89 69 72 80 50 C100 9 142 -16 191 -16 C239 -16 280 5 318 49 L317 4 L315 -8 C315 -8 314 -12 314 -16 L319 -16 C362 -7 464 1 526 1 C528 1 535 1 546 0 L546 60 L544 60 C510 61 500 72 499 112 L499 403 Z M399 481 L448 481 L368 644 L214 644 L125 481 L170 481 L292 561 L399 481 Z " />
<glyph glyph-name="udieresis" unicode="&#xfc;" horiz-adv-x="552" d="M499 403 L282 403 L282 343 L284 343 C309 342 318 329 318 291 L318 120 C315 116 315 116 301 101 C292 89 279 81 272 81 C255 81 247 102 247 144 L247 403 L6 403 L6 343 L8 343 C50 342 66 328 66 291 L66 132 C66 89 69 72 80 50 C100 9 142 -16 191 -16 C239 -16 280 5 318 49 L317 4 L315 -8 C315 -8 314 -12 314 -16 L319 -16 C362 -7 464 1 526 1 C528 1 535 1 546 0 L546 60 L544 60 C510 61 500 72 499 112 L499 403 Z M181 642 C139 642 104 607 104 566 C104 523 138 488 181 488 C224 488 258 523 258 565 C258 608 224 642 181 642 L181 642 Z M396 642 C354 642 319 607 319 566 C319 522 353 488 396 488 C438 488 473 523 473 565 C473 607 438 642 396 642 L396 642 Z " />
<glyph glyph-name="yacute" unicode="&#xfd;" horiz-adv-x="486" d="M-6 403 L-6 344 L0 343 C20 340 28 331 57 274 L219 -20 L215 -29 C190 -80 171 -94 100 -110 C56 -121 37 -141 37 -176 C37 -219 69 -252 111 -252 C142 -252 170 -237 192 -209 C204 -193 228 -145 254 -86 L383 215 C389 229 402 254 420 290 C438 331 446 338 471 343 L480 344 L480 403 L315 403 L315 344 L319 344 L325 344 C340 344 354 332 354 318 C354 310 354 310 337 273 L288 155 L227 291 L218 309 C215 315 213 320 213 324 L213 325 C214 337 220 342 238 343 L246 344 L246 403 L-6 403 Z M213 484 L262 484 L465 626 L465 639 L268 639 L213 484 Z " />
<glyph glyph-name="thorn" unicode="&#xfe;" horiz-adv-x="577" d="M236 679 C219 675 181 668 73 648 C47 644 29 641 12 637 L12 577 L13 577 C50 576 61 564 62 525 L62 -122 C61 -164 52 -174 13 -175 L12 -175 L12 -235 L309 -235 L309 -175 L295 -175 C255 -174 244 -162 243 -122 L243 40 C286 1 323 -16 367 -16 C468 -16 544 80 544 207 C544 329 472 419 375 419 C328 419 282 395 239 348 L239 679 L236 679 Z M243 272 C258 314 280 335 306 335 C340 335 355 296 355 207 C355 160 354 138 352 127 C345 93 325 70 303 70 C281 70 259 84 243 106 L243 272 Z " />
<glyph glyph-name="ydieresis" unicode="&#xff;" horiz-adv-x="486" d="M-6 403 L-6 344 L0 343 C20 340 28 331 57 274 L219 -20 L215 -29 C190 -80 171 -94 100 -110 C56 -121 37 -141 37 -176 C37 -219 69 -252 111 -252 C142 -252 170 -237 192 -209 C204 -193 228 -145 254 -86 L383 215 C389 229 402 254 420 290 C438 331 446 338 471 343 L480 344 L480 403 L315 403 L315 344 L319 344 L325 344 C340 344 354 332 354 318 C354 310 354 310 337 273 L288 155 L227 291 L218 309 C215 315 213 320 213 324 L213 325 C214 337 220 342 238 343 L246 344 L246 403 L-6 403 Z M148 642 C106 642 71 607 71 566 C71 523 105 488 148 488 C191 488 225 523 225 565 C225 608 191 642 148 642 L148 642 Z M364 642 C322 642 287 607 287 566 C287 522 321 488 364 488 C406 488 441 523 441 565 C441 607 406 642 364 642 L364 642 Z " />
<glyph glyph-name="Amacron" unicode="&#x100;" horiz-adv-x="588" d="M600 0 L600 63 L596 63 C556 67 538 87 507 167 L322 679 L262 679 L87 182 C62 110 28 66 -7 63 L-12 63 L-12 0 L191 0 L191 63 L185 63 C148 63 130 74 130 99 C130 109 133 123 139 141 L147 164 L321 164 L332 134 C342 102 343 100 343 91 C343 72 327 63 291 63 L287 63 L287 0 L600 0 Z M298 229 L168 229 L231 407 L298 229 Z M120 826 L120 757 L459 757 L459 826 L120 826 Z " />
<glyph glyph-name="amacron" unicode="&#x101;" horiz-adv-x="529" d="M489 94 C486 79 479 71 468 71 C454 71 447 81 447 102 L447 295 C447 339 443 354 425 375 C399 406 356 419 275 419 C201 419 156 412 115 393 C69 372 44 341 44 306 C44 273 68 249 102 249 C138 249 159 268 162 305 C166 342 181 355 219 355 C253 355 266 341 266 306 L266 266 L260 264 C200 245 173 234 134 211 C62 169 33 132 33 83 C33 25 73 -9 142 -9 C195 -9 240 7 277 39 C299 7 338 -9 396 -9 C479 -9 525 27 528 94 L489 94 Z M266 203 L266 99 C257 81 246 72 233 72 C216 72 201 92 201 117 C201 147 224 179 260 199 L266 203 Z M114 530 L418 530 L418 593 L114 593 L114 530 Z " />
<glyph glyph-name="Abreve" unicode="&#x102;" horiz-adv-x="588" d="M600 0 L600 63 L596 63 C556 67 538 87 507 167 L322 679 L262 679 L87 182 C62 110 28 66 -7 63 L-12 63 L-12 0 L191 0 L191 63 L185 63 C148 63 130 74 130 99 C130 109 133 123 139 141 L147 164 L321 164 L332 134 C342 102 343 100 343 91 C343 72 327 63 291 63 L287 63 L287 0 L600 0 Z M298 229 L168 229 L231 407 L298 229 Z M92 881 C105 842 120 815 143 790 C182 747 243 720 299 720 C388 720 463 781 496 881 L429 881 C408 838 363 817 296 817 C224 817 187 835 161 881 L92 881 Z " />
<glyph glyph-name="abreve" unicode="&#x103;" horiz-adv-x="529" d="M489 94 C486 79 479 71 468 71 C454 71 447 81 447 102 L447 295 C447 339 443 354 425 375 C399 406 356 419 275 419 C201 419 156 412 115 393 C69 372 44 341 44 306 C44 273 68 249 102 249 C138 249 159 268 162 305 C166 342 181 355 219 355 C253 355 266 341 266 306 L266 266 L260 264 C200 245 173 234 134 211 C62 169 33 132 33 83 C33 25 73 -9 142 -9 C195 -9 240 7 277 39 C299 7 338 -9 396 -9 C479 -9 525 27 528 94 L489 94 Z M266 203 L266 99 C257 81 246 72 233 72 C216 72 201 92 201 117 C201 147 224 179 260 199 L266 203 Z M117 650 C117 552 187 474 274 474 C361 474 429 551 429 650 L391 650 C374 594 336 566 277 566 C216 566 173 596 156 650 L117 650 Z " />
<glyph glyph-name="Aogonek" unicode="&#x104;" horiz-adv-x="588" d="M600 0 L600 63 L596 63 C556 67 538 87 507 167 L322 679 L262 679 L87 182 C62 110 28 66 -7 63 L-12 63 L-12 0 L191 0 L191 63 L185 63 C148 63 130 74 130 99 C130 109 133 123 139 141 L147 164 L321 164 L332 134 C342 102 343 100 343 91 C343 72 327 63 291 63 L287 63 L287 0 L469 0 C414 -31 382 -77 382 -126 C382 -183 430 -225 494 -225 C531 -225 559 -214 598 -185 L580 -150 C567 -157 560 -159 549 -159 C518 -159 497 -134 497 -98 C497 -64 508 -32 530 0 L600 0 Z M298 229 L168 229 L231 407 L298 229 Z " />
<glyph glyph-name="aogonek" unicode="&#x105;" horiz-adv-x="529" d="M489 94 C486 79 479 71 468 71 C454 71 447 81 447 102 L447 295 C447 339 443 354 425 375 C399 406 356 419 275 419 C201 419 156 412 115 393 C69 372 44 341 44 306 C44 273 68 249 102 249 C138 249 159 268 162 305 C166 342 181 355 219 355 C253 355 266 341 266 306 L266 266 L260 264 C200 245 173 234 134 211 C62 169 33 132 33 83 C33 25 73 -9 142 -9 C195 -9 240 7 277 39 C292 14 319 0 368 -7 C330 -37 311 -72 311 -110 C311 -164 354 -204 412 -204 C445 -204 471 -194 505 -167 L491 -136 C477 -142 470 -144 460 -144 C433 -144 415 -120 415 -83 C415 -56 421 -33 436 -6 C496 6 527 39 528 94 L489 94 Z M266 203 L266 99 C257 81 246 72 233 72 C216 72 201 92 201 117 C201 147 224 179 260 199 L266 203 Z " />
<glyph glyph-name="Cacute" unicode="&#x106;" horiz-adv-x="671" d="M566 258 C560 231 546 188 535 161 C509 103 450 60 392 60 C345 60 299 89 279 131 C261 171 253 231 253 333 C253 431 261 490 281 532 C303 580 341 605 389 605 C445 605 488 574 520 514 C537 481 549 446 557 410 L613 410 L607 655 L551 655 C543 632 537 615 533 602 C477 657 425 679 352 679 C268 679 193 648 139 592 C74 525 36 428 36 329 C36 244 64 160 115 96 C171 24 252 -14 347 -14 C423 -14 500 17 542 66 C552 51 560 31 566 3 L623 3 L623 258 L566 258 Z M282 734 L327 734 L596 889 L596 903 L381 903 L282 734 Z " />
<glyph glyph-name="cacute" unicode="&#x107;" horiz-adv-x="460" d="M387 131 C369 83 340 59 299 59 C244 59 219 104 219 205 C219 259 220 276 223 291 C231 334 253 359 282 359 C299 359 308 350 312 330 C324 269 342 245 375 245 C407 245 432 276 432 316 C432 380 376 419 283 419 C131 419 30 328 30 193 C30 69 120 -16 251 -16 C343 -16 412 27 439 102 L387 131 Z M191 484 L241 484 L444 626 L444 639 L246 639 L191 484 Z " />
<glyph glyph-name="Ccircumflex" unicode="&#x108;" horiz-adv-x="671" d="M566 258 C560 231 546 188 535 161 C509 103 450 60 392 60 C345 60 299 89 279 131 C261 171 253 231 253 333 C253 431 261 490 281 532 C303 580 341 605 389 605 C445 605 488 574 520 514 C537 481 549 446 557 410 L613 410 L607 655 L551 655 C543 632 537 615 533 602 C477 657 425 679 352 679 C268 679 193 648 139 592 C74 525 36 428 36 329 C36 244 64 160 115 96 C171 24 252 -14 347 -14 C423 -14 500 17 542 66 C552 51 560 31 566 3 L623 3 L623 258 L566 258 Z M258 898 L164 732 L207 732 L369 828 L533 732 L576 732 L478 898 L258 898 Z " />
<glyph glyph-name="Cdotaccent" unicode="&#x10a;" horiz-adv-x="671" d="M566 258 C560 231 546 188 535 161 C509 103 450 60 392 60 C345 60 299 89 279 131 C261 171 253 231 253 333 C253 431 261 490 281 532 C303 580 341 605 389 605 C445 605 488 574 520 514 C537 481 549 446 557 410 L613 410 L607 655 L551 655 C543 632 537 615 533 602 C477 657 425 679 352 679 C268 679 193 648 139 592 C74 525 36 428 36 329 C36 244 64 160 115 96 C171 24 252 -14 347 -14 C423 -14 500 17 542 66 C552 51 560 31 566 3 L623 3 L623 258 L566 258 Z M355 897 C309 897 271 859 271 814 C271 767 308 729 355 729 C401 729 439 767 439 813 C439 860 402 897 355 897 L355 897 Z " />
<glyph glyph-name="cdotaccent" unicode="&#x10b;" horiz-adv-x="460" d="M387 131 C369 83 340 59 299 59 C244 59 219 104 219 205 C219 259 220 276 223 291 C231 334 253 359 282 359 C299 359 308 350 312 330 C324 269 342 245 375 245 C407 245 432 276 432 316 C432 380 376 419 283 419 C131 419 30 328 30 193 C30 69 120 -16 251 -16 C343 -16 412 27 439 102 L387 131 Z M266 642 C224 642 189 607 189 566 C189 523 223 488 266 488 C309 488 343 523 343 565 C343 608 309 642 266 642 L266 642 Z " />
<glyph glyph-name="Ccaron" unicode="&#x10c;" horiz-adv-x="671" d="M566 258 C560 231 546 188 535 161 C509 103 450 60 392 60 C345 60 299 89 279 131 C261 171 253 231 253 333 C253 431 261 490 281 532 C303 580 341 605 389 605 C445 605 488 574 520 514 C537 481 549 446 557 410 L613 410 L607 655 L551 655 C543 632 537 615 533 602 C477 657 425 679 352 679 C268 679 193 648 139 592 C74 525 36 428 36 329 C36 244 64 160 115 96 C171 24 252 -14 347 -14 C423 -14 500 17 542 66 C552 51 560 31 566 3 L623 3 L623 258 L566 258 Z M467 732 L565 898 L522 898 L358 802 L196 898 L153 898 L247 732 L467 732 Z " />
<glyph glyph-name="ccaron" unicode="&#x10d;" horiz-adv-x="460" d="M387 131 C369 83 340 59 299 59 C244 59 219 104 219 205 C219 259 220 276 223 291 C231 334 253 359 282 359 C299 359 308 350 312 330 C324 269 342 245 375 245 C407 245 432 276 432 316 C432 380 376 419 283 419 C131 419 30 328 30 193 C30 69 120 -16 251 -16 C343 -16 412 27 439 102 L387 131 Z M141 653 L96 653 L185 491 L338 491 L420 653 L370 653 L258 573 L141 653 Z " />
<glyph glyph-name="Dcaron" unicode="&#x10e;" horiz-adv-x="722" d="M24 669 L24 606 L28 606 C69 604 86 585 85 540 L85 127 C86 81 71 64 27 63 L25 63 L25 0 L230 0 C403 1 437 4 482 19 C608 62 686 182 686 331 C686 470 620 584 508 639 C452 666 391 675 262 675 L242 675 C208 675 180 675 163 674 L31 669 L24 669 Z M279 607 C322 607 345 602 367 588 C435 546 464 470 464 332 C464 160 421 68 340 68 C311 68 292 78 284 97 C279 109 279 112 279 144 L279 607 Z M431 732 L529 898 L486 898 L323 802 L161 898 L117 898 L212 732 L431 732 Z " />
<glyph glyph-name="dcaron" unicode="&#x10f;" horiz-adv-x="725" d="M561 78 L556 78 C524 81 516 91 515 131 L515 679 L510 679 C497 677 487 675 483 675 L429 666 C291 643 290 643 269 639 L269 579 L270 579 C319 578 333 566 334 526 L334 368 C306 401 263 419 211 419 C142 419 87 385 57 326 C40 291 33 252 33 194 C33 142 39 107 55 76 C82 22 133 -8 196 -8 C249 -8 289 11 333 56 C333 28 337 11 346 -8 C396 3 470 10 561 14 L561 78 Z M334 134 C321 97 298 77 270 77 C251 77 236 92 229 120 C225 134 223 170 223 221 C223 299 242 338 280 338 C298 338 314 327 334 301 L334 134 Z M562 431 L568 431 C592 431 621 438 644 450 C693 474 718 516 718 573 C718 639 684 679 628 679 C583 679 552 651 552 611 C552 578 579 551 611 551 C617 551 623 552 630 553 C636 554 640 554 644 554 C652 554 658 547 658 539 C658 505 616 478 562 477 L562 431 Z " />
<glyph glyph-name="Dcroat" unicode="&#x110;" horiz-adv-x="726" d="M89 370 L20 370 L20 297 L89 297 L89 127 C90 81 75 64 31 63 L29 63 L29 0 L234 0 C408 1 442 4 487 19 C613 62 691 182 691 332 C691 470 625 584 513 639 C457 666 396 675 266 675 L246 675 C212 675 184 675 167 674 L35 669 L28 669 L28 606 L32 606 C73 604 90 585 89 540 L89 370 Z M283 370 L283 607 C327 607 350 602 372 588 C440 546 469 470 469 332 C469 160 426 68 344 68 C315 68 296 78 288 97 C283 109 283 112 283 144 L283 297 L387 297 L387 370 L283 370 Z " />
<glyph glyph-name="dcroat" unicode="&#x111;" horiz-adv-x="574" d="M334 471 L334 368 C306 401 263 419 211 419 C142 419 87 385 57 326 C40 291 33 252 33 194 C33 142 39 107 55 76 C82 22 133 -8 196 -8 C249 -8 289 11 333 56 C333 28 337 11 346 -8 C396 3 470 10 561 14 L561 78 L556 78 C524 81 516 91 515 131 L515 471 L561 471 L561 534 L515 534 L515 679 L510 679 C497 677 487 675 483 675 L429 666 C291 643 290 643 269 639 L269 579 L270 579 C316 578 330 568 334 534 L185 534 L185 471 L334 471 Z M334 134 C321 97 298 77 270 77 C251 77 236 92 229 120 C225 134 223 170 223 221 C223 299 242 338 280 338 C298 338 314 327 334 301 L334 134 Z " />
<glyph glyph-name="Emacron" unicode="&#x112;" horiz-adv-x="614" d="M534 222 C506 105 468 66 386 68 L378 68 C302 71 290 82 293 147 L293 314 L345 314 C385 314 403 292 402 242 L402 235 L456 235 L456 460 L402 460 L402 454 C398 398 386 383 344 382 L293 382 L293 599 L405 599 C458 601 476 582 506 492 L563 492 L555 667 L24 667 L24 605 L35 605 C84 603 99 586 99 539 L99 127 C101 83 83 64 36 63 L27 63 L27 0 L588 0 L590 222 L534 222 Z M146 826 L146 757 L485 757 L485 826 L146 826 Z " />
<glyph glyph-name="emacron" unicode="&#x113;" horiz-adv-x="482" d="M391 107 C362 72 331 54 299 54 C265 54 233 75 219 106 C208 129 205 147 205 191 L452 191 L452 204 C452 250 444 288 427 320 C395 381 327 419 247 419 C121 419 33 331 33 205 C33 76 124 -16 253 -16 C325 -16 399 20 437 73 L391 107 Z M205 248 C205 286 206 301 208 313 C213 341 227 356 249 356 C270 356 285 342 293 318 C297 304 299 290 301 248 L205 248 Z M97 530 L400 530 L400 593 L97 593 L97 530 Z " />
<glyph glyph-name="Ebreve" unicode="&#x114;" horiz-adv-x="614" d="M534 222 C506 105 468 66 386 68 L378 68 C302 71 290 82 293 147 L293 314 L345 314 C385 314 403 292 402 242 L402 235 L456 235 L456 460 L402 460 L402 454 C398 398 386 383 344 382 L293 382 L293 599 L405 599 C458 601 476 582 506 492 L563 492 L555 667 L24 667 L24 605 L35 605 C84 603 99 586 99 539 L99 127 C101 83 83 64 36 63 L27 63 L27 0 L588 0 L590 222 L534 222 Z M117 881 C131 842 146 815 169 790 C208 747 269 720 325 720 C414 720 489 781 522 881 L455 881 C434 838 389 817 322 817 C250 817 213 835 187 881 L117 881 Z " />
<glyph glyph-name="ebreve" unicode="&#x115;" horiz-adv-x="482" d="M391 107 C362 72 331 54 299 54 C265 54 233 75 219 106 C208 129 205 147 205 191 L452 191 L452 204 C452 250 444 288 427 320 C395 381 327 419 247 419 C121 419 33 331 33 205 C33 76 124 -16 253 -16 C325 -16 399 20 437 73 L391 107 Z M205 248 C205 286 206 301 208 313 C213 341 227 356 249 356 C270 356 285 342 293 318 C297 304 299 290 301 248 L205 248 Z M102 650 C106 549 172 474 259 474 C346 474 414 551 414 650 L376 650 C359 594 320 566 262 566 C201 566 157 596 140 650 L102 650 Z " />
<glyph glyph-name="Edotaccent" unicode="&#x116;" horiz-adv-x="614" d="M534 222 C506 105 468 66 386 68 L378 68 C302 71 290 82 293 147 L293 314 L345 314 C385 314 403 292 402 242 L402 235 L456 235 L456 460 L402 460 L402 454 C398 398 386 383 344 382 L293 382 L293 599 L405 599 C458 601 476 582 506 492 L563 492 L555 667 L24 667 L24 605 L35 605 C84 603 99 586 99 539 L99 127 C101 83 83 64 36 63 L27 63 L27 0 L588 0 L590 222 L534 222 Z M316 897 C270 897 232 859 232 814 C232 767 269 729 316 729 C362 729 400 767 400 813 C400 860 363 897 316 897 L316 897 Z " />
<glyph glyph-name="edotaccent" unicode="&#x117;" horiz-adv-x="482" d="M391 107 C362 72 331 54 299 54 C265 54 233 75 219 106 C208 129 205 147 205 191 L452 191 L452 204 C452 250 444 288 427 320 C395 381 327 419 247 419 C121 419 33 331 33 205 C33 76 124 -16 253 -16 C325 -16 399 20 437 73 L391 107 Z M205 248 C205 286 206 301 208 313 C213 341 227 356 249 356 C270 356 285 342 293 318 C297 304 299 290 301 248 L205 248 Z M257 642 C215 642 180 607 180 566 C180 523 214 488 257 488 C300 488 334 523 334 565 C334 608 300 642 257 642 L257 642 Z " />
<glyph glyph-name="Eogonek" unicode="&#x118;" horiz-adv-x="614" d="M588 0 L590 222 L534 222 C506 105 468 66 386 68 L378 68 C302 71 290 82 293 147 L293 314 L345 314 C385 314 403 292 402 242 L402 235 L456 235 L456 460 L402 460 L402 454 C398 398 386 383 344 382 L293 382 L293 599 L405 599 C458 601 476 582 506 492 L563 492 L555 667 L24 667 L24 605 L35 605 C84 603 99 586 99 539 L99 127 C101 83 83 64 36 63 L27 63 L27 0 L461 0 C406 -32 375 -77 375 -126 C375 -183 422 -225 486 -225 C523 -225 551 -214 589 -185 L572 -150 C559 -157 552 -159 542 -159 C511 -159 490 -134 490 -98 C490 -63 499 -36 522 0 L588 0 Z " />
<glyph glyph-name="eogonek" unicode="&#x119;" horiz-adv-x="482" d="M391 107 C362 72 331 54 299 54 C265 54 233 75 219 106 C208 129 205 147 205 191 L452 191 L452 204 C452 250 444 288 427 320 C395 381 327 419 247 419 C121 419 33 331 33 205 C33 76 124 -16 253 -16 L269 -16 C238 -43 222 -75 222 -111 C222 -164 266 -204 324 -204 C357 -204 383 -193 416 -167 L402 -136 C388 -142 382 -144 372 -144 C344 -144 326 -120 326 -83 C326 -51 335 -25 355 7 C389 24 424 53 437 73 L391 107 Z M205 248 C205 286 206 301 208 313 C213 341 227 356 249 356 C270 356 285 342 293 318 C297 304 299 290 301 248 L205 248 Z " />
<glyph glyph-name="Ecaron" unicode="&#x11a;" horiz-adv-x="614" d="M534 222 C506 105 468 66 386 68 L378 68 C302 71 290 82 293 147 L293 314 L345 314 C385 314 403 292 402 242 L402 235 L456 235 L456 460 L402 460 L402 454 C398 398 386 383 344 382 L293 382 L293 599 L405 599 C458 601 476 582 506 492 L563 492 L555 667 L24 667 L24 605 L35 605 C84 603 99 586 99 539 L99 127 C101 83 83 64 36 63 L27 63 L27 0 L588 0 L590 222 L534 222 Z M425 732 L523 898 L480 898 L317 802 L155 898 L111 898 L206 732 L425 732 Z " />
<glyph glyph-name="ecaron" unicode="&#x11b;" horiz-adv-x="482" d="M391 107 C362 72 331 54 299 54 C265 54 233 75 219 106 C208 129 205 147 205 191 L452 191 L452 204 C452 250 444 288 427 320 C395 381 327 419 247 419 C121 419 33 331 33 205 C33 76 124 -16 253 -16 C325 -16 399 20 437 73 L391 107 Z M205 248 C205 286 206 301 208 313 C213 341 227 356 249 356 C270 356 285 342 293 318 C297 304 299 290 301 248 L205 248 Z M132 653 L87 653 L176 491 L329 491 L411 653 L361 653 L249 573 L132 653 Z " />
<glyph glyph-name="Gcircumflex" unicode="&#x11c;" horiz-adv-x="713" d="M411 314 L411 252 L416 251 C458 243 474 228 475 194 L475 170 C475 97 442 59 378 59 C289 59 259 120 259 301 C259 421 267 483 290 532 C310 574 349 598 398 598 C473 598 522 549 555 441 L616 441 L609 676 L549 676 C547 650 541 630 530 608 C474 656 415 679 346 679 C266 679 196 649 139 590 C73 522 35 426 35 328 C35 135 171 -14 345 -14 C392 -14 418 -10 501 8 C555 20 605 26 641 26 C644 26 650 26 661 25 L661 182 C661 225 665 235 690 250 L697 252 L697 314 L411 314 Z M282 898 L188 732 L232 732 L394 828 L557 732 L600 732 L502 898 L282 898 Z " />
<glyph glyph-name="gcircumflex" unicode="&#x11d;" horiz-adv-x="498" d="M327 -71 C370 -71 387 -82 387 -112 C387 -160 330 -190 241 -190 C186 -190 142 -174 137 -153 C132 -135 130 -125 128 -121 C126 -116 125 -112 122 -107 C103 -97 91 -94 78 -94 C51 -94 29 -120 29 -150 C29 -217 96 -250 229 -250 C310 -250 364 -238 408 -211 C459 -179 487 -128 487 -64 C487 -13 469 26 435 48 C407 67 377 73 317 73 C302 73 287 73 273 72 L200 71 C176 71 165 78 165 93 C165 119 189 131 240 132 C362 132 434 187 434 279 C434 304 430 320 419 342 C425 349 428 350 433 350 C441 350 445 348 454 340 C465 331 471 328 480 328 C499 328 511 344 511 369 C511 401 495 420 467 420 C445 420 431 412 389 378 C352 407 312 418 249 418 C114 418 38 368 38 279 C38 242 54 204 79 181 C96 165 112 156 144 147 C75 126 50 97 50 40 C50 -38 104 -72 230 -72 C240 -72 240 -72 290 -71 L327 -71 Z M238 358 C256 358 266 332 266 283 C266 224 258 197 241 197 C220 197 211 226 211 288 C211 331 221 358 238 358 L238 358 Z M366 481 L415 481 L334 644 L181 644 L91 481 L137 481 L259 561 L366 481 Z " />
<glyph glyph-name="Gbreve" unicode="&#x11e;" horiz-adv-x="713" d="M411 314 L411 252 L416 251 C458 243 474 228 475 194 L475 170 C475 97 442 59 378 59 C289 59 259 120 259 301 C259 421 267 483 290 532 C310 574 349 598 398 598 C473 598 522 549 555 441 L616 441 L609 676 L549 676 C547 650 541 630 530 608 C474 656 415 679 346 679 C266 679 196 649 139 590 C73 522 35 426 35 328 C35 135 171 -14 345 -14 C392 -14 418 -10 501 8 C555 20 605 26 641 26 C644 26 650 26 661 25 L661 182 C661 225 665 235 690 250 L697 252 L697 314 L411 314 Z M164 881 C177 842 193 815 215 790 C255 747 316 720 371 720 C461 720 535 781 569 881 L501 881 C480 838 436 817 369 817 C297 817 259 835 234 881 L164 881 Z " />
<glyph glyph-name="gbreve" unicode="&#x11f;" horiz-adv-x="498" d="M327 -71 C370 -71 387 -82 387 -112 C387 -160 330 -190 241 -190 C186 -190 142 -174 137 -153 C132 -135 130 -125 128 -121 C126 -116 125 -112 122 -107 C103 -97 91 -94 78 -94 C51 -94 29 -120 29 -150 C29 -217 96 -250 229 -250 C310 -250 364 -238 408 -211 C459 -179 487 -128 487 -64 C487 -13 469 26 435 48 C407 67 377 73 317 73 C302 73 287 73 273 72 L200 71 C176 71 165 78 165 93 C165 119 189 131 240 132 C362 132 434 187 434 279 C434 304 430 320 419 342 C425 349 428 350 433 350 C441 350 445 348 454 340 C465 331 471 328 480 328 C499 328 511 344 511 369 C511 401 495 420 467 420 C445 420 431 412 389 378 C352 407 312 418 249 418 C114 418 38 368 38 279 C38 242 54 204 79 181 C96 165 112 156 144 147 C75 126 50 97 50 40 C50 -38 104 -72 230 -72 C240 -72 240 -72 290 -71 L327 -71 Z M238 358 C256 358 266 332 266 283 C266 224 258 197 241 197 C220 197 211 226 211 288 C211 331 221 358 238 358 L238 358 Z M98 650 C100 550 168 474 255 474 C342 474 410 551 410 650 L372 650 C355 594 316 566 258 566 C197 566 153 596 137 650 L98 650 Z " />
<glyph glyph-name="Gdotaccent" unicode="&#x120;" horiz-adv-x="713" d="M411 314 L411 252 L416 251 C458 243 474 228 475 194 L475 170 C475 97 442 59 378 59 C289 59 259 120 259 301 C259 421 267 483 290 532 C310 574 349 598 398 598 C473 598 522 549 555 441 L616 441 L609 676 L549 676 C547 650 541 630 530 608 C474 656 415 679 346 679 C266 679 196 649 139 590 C73 522 35 426 35 328 C35 135 171 -14 345 -14 C392 -14 418 -10 501 8 C555 20 605 26 641 26 C644 26 650 26 661 25 L661 182 C661 225 665 235 690 250 L697 252 L697 314 L411 314 Z M364 897 C318 897 280 859 280 814 C280 767 317 729 364 729 C410 729 448 767 448 813 C448 860 411 897 364 897 L364 897 Z " />
<glyph glyph-name="gdotaccent" unicode="&#x121;" horiz-adv-x="498" d="M327 -71 C370 -71 387 -82 387 -112 C387 -160 330 -190 241 -190 C186 -190 142 -174 137 -153 C132 -135 130 -125 128 -121 C126 -116 125 -112 122 -107 C103 -97 91 -94 78 -94 C51 -94 29 -120 29 -150 C29 -217 96 -250 229 -250 C310 -250 364 -238 408 -211 C459 -179 487 -128 487 -64 C487 -13 469 26 435 48 C407 67 377 73 317 73 C302 73 287 73 273 72 L200 71 C176 71 165 78 165 93 C165 119 189 131 240 132 C362 132 434 187 434 279 C434 304 430 320 419 342 C425 349 428 350 433 350 C441 350 445 348 454 340 C465 331 471 328 480 328 C499 328 511 344 511 369 C511 401 495 420 467 420 C445 420 431 412 389 378 C352 407 312 418 249 418 C114 418 38 368 38 279 C38 242 54 204 79 181 C96 165 112 156 144 147 C75 126 50 97 50 40 C50 -38 104 -72 230 -72 C240 -72 240 -72 290 -71 L327 -71 Z M238 358 C256 358 266 332 266 283 C266 224 258 197 241 197 C220 197 211 226 211 288 C211 331 221 358 238 358 L238 358 Z M249 642 C207 642 172 607 172 566 C172 523 206 488 249 488 C292 488 326 523 326 565 C326 608 292 642 249 642 L249 642 Z " />
<glyph glyph-name="Gcommaaccent" unicode="&#x122;" horiz-adv-x="713" d="M411 314 L411 252 L416 251 C458 243 474 228 475 194 L475 170 C475 97 442 59 378 59 C289 59 259 120 259 301 C259 421 267 483 290 532 C310 574 349 598 398 598 C473 598 522 549 555 441 L616 441 L609 676 L549 676 C547 650 541 630 530 608 C474 656 415 679 346 679 C266 679 196 649 139 590 C73 522 35 426 35 328 C35 135 171 -14 345 -14 C392 -14 418 -10 501 8 C555 20 605 26 641 26 C644 26 650 26 661 25 L661 182 C661 225 665 235 690 250 L697 252 L697 314 L411 314 Z M297 -344 C392 -344 456 -282 456 -188 C456 -108 419 -59 360 -59 C312 -59 279 -93 279 -142 C279 -183 307 -217 342 -217 C347 -217 354 -216 362 -214 C365 -213 368 -212 369 -212 L376 -212 C377 -211 377 -211 378 -211 C385 -211 391 -220 391 -229 C391 -262 350 -288 297 -289 L297 -344 Z " />
<glyph glyph-name="gcommaaccent" unicode="&#x123;" horiz-adv-x="498" d="M327 -71 C370 -71 387 -82 387 -112 C387 -160 330 -190 241 -190 C186 -190 142 -174 137 -153 C132 -135 130 -125 128 -121 C126 -116 125 -112 122 -107 C103 -97 91 -94 78 -94 C51 -94 29 -120 29 -150 C29 -217 96 -250 229 -250 C310 -250 364 -238 408 -211 C459 -179 487 -128 487 -64 C487 -13 469 26 435 48 C407 67 377 73 317 73 C302 73 287 73 273 72 L200 71 C176 71 165 78 165 93 C165 119 189 131 240 132 C362 132 434 187 434 279 C434 304 430 320 419 342 C425 349 428 350 433 350 C441 350 445 348 454 340 C465 331 471 328 480 328 C499 328 511 344 511 369 C511 401 495 420 467 420 C445 420 431 412 389 378 C352 407 312 418 249 418 C114 418 38 368 38 279 C38 242 54 204 79 181 C96 165 112 156 144 147 C75 126 50 97 50 40 C50 -38 104 -72 230 -72 C240 -72 240 -72 290 -71 L327 -71 Z M238 358 C256 358 266 332 266 283 C266 224 258 197 241 197 C220 197 211 226 211 288 C211 331 221 358 238 358 L238 358 Z M328 704 C302 702 282 699 269 695 C206 673 172 627 172 562 C172 496 206 456 262 456 C307 456 338 484 338 524 C338 557 311 585 279 585 C274 585 267 584 260 583 C254 582 250 581 246 581 C238 581 232 588 232 597 C232 631 274 658 328 659 L328 704 Z " />
<glyph glyph-name="Hcircumflex" unicode="&#x124;" horiz-adv-x="778" d="M493 315 L493 126 C495 82 478 64 433 62 L433 0 L754 0 L754 62 L749 62 C702 64 685 82 687 126 L687 538 C687 584 702 601 748 604 L754 604 L754 667 L433 667 L433 604 C475 603 494 583 493 538 L493 384 L284 384 L284 538 C284 585 299 601 344 604 L347 604 L347 667 L24 667 L24 604 L29 604 C72 603 91 582 90 538 L90 126 C92 83 75 65 28 62 L24 62 L24 0 L347 0 L347 62 L345 62 C300 64 282 83 284 126 L284 315 L493 315 Z M278 898 L184 732 L227 732 L389 828 L553 732 L596 732 L497 898 L278 898 Z " />
<glyph glyph-name="Hbar" unicode="&#x126;" horiz-adv-x="778" d="M90 443 L90 126 C92 83 75 65 28 62 L24 62 L24 0 L347 0 L347 62 L345 62 C300 64 282 83 284 126 L284 315 L493 315 L493 126 C495 82 478 64 433 62 L433 0 L754 0 L754 62 L749 62 C702 64 685 82 687 126 L687 443 L739 443 L739 512 L687 512 L687 538 C687 584 702 601 748 604 L754 604 L754 667 L433 667 L433 604 C475 603 494 583 493 538 L493 512 L284 512 L284 538 C284 585 299 601 344 604 L347 604 L347 667 L24 667 L24 604 L29 604 C72 603 91 582 90 538 L90 512 L39 512 L39 443 L90 443 Z M284 443 L493 443 L493 384 L284 384 L284 443 Z " />
<glyph glyph-name="hbar" unicode="&#x127;" horiz-adv-x="563" d="M64 471 L64 112 C63 71 54 61 17 60 L16 60 L16 0 L278 0 L278 60 L276 60 C255 64 245 81 245 112 L245 265 C273 310 284 322 301 322 C318 322 329 304 329 276 L329 112 C329 82 321 67 301 60 L298 60 L298 0 L560 0 L560 60 L557 60 C525 61 513 75 513 112 L513 256 C513 304 509 328 497 353 C478 392 429 419 378 419 C328 419 281 395 245 350 L245 471 L393 471 L393 534 L245 534 L245 679 L241 679 C207 673 185 668 162 664 C139 660 115 656 91 652 L66 647 C47 643 38 641 15 636 L15 576 L17 576 C51 575 61 566 63 537 L63 534 L16 534 L16 471 L64 471 Z " />
<glyph glyph-name="Imacron" unicode="&#x12a;" horiz-adv-x="376" d="M24 604 L29 604 C74 602 89 586 89 539 L89 127 C90 80 76 66 28 63 L24 63 L24 0 L352 0 L352 63 L346 63 C296 66 282 80 283 127 L283 539 C283 586 298 602 345 604 L352 604 L352 667 L24 667 L24 604 Z M18 826 L18 757 L357 757 L357 826 L18 826 Z " />
<glyph glyph-name="imacron" unicode="&#x12b;" horiz-adv-x="311" d="M254 419 L250 419 C239 417 230 415 226 414 L161 403 L106 393 C77 388 58 385 49 384 C33 381 27 380 15 379 L15 319 L25 319 C72 317 82 307 82 265 L82 112 C81 70 71 61 24 60 L15 60 L15 0 L305 0 L305 60 L303 60 C266 61 255 73 254 112 L254 419 Z M8 530 L299 530 L299 593 L8 593 L8 530 Z " />
<glyph glyph-name="ibreve" unicode="&#x12d;" horiz-adv-x="311" d="M255 419 L251 419 C240 417 230 415 227 414 L162 403 L71 387 L50 384 C35 381 27 380 15 379 L15 319 L25 319 C73 317 83 307 83 265 L83 112 C82 71 71 61 24 60 L15 60 L15 0 L305 0 L305 60 L303 60 C267 61 256 73 255 112 L255 419 Z M11 650 L11 644 C11 604 28 559 57 526 C87 491 124 474 168 474 C255 474 323 551 323 650 L286 650 C268 594 230 566 171 566 C110 566 67 596 50 650 L11 650 Z " />
<glyph glyph-name="Iogonek" unicode="&#x12e;" horiz-adv-x="376" d="M352 0 L352 63 L346 63 C297 66 283 80 284 127 L284 539 C284 586 299 602 345 604 L352 604 L352 667 L24 667 L24 604 L29 604 C75 602 90 586 90 539 L90 127 C91 80 77 66 28 63 L24 63 L24 0 L226 0 C170 -32 140 -77 140 -126 C140 -183 187 -225 252 -225 C288 -225 316 -214 355 -185 L337 -150 C325 -157 318 -159 307 -159 C276 -159 255 -134 255 -98 C255 -63 265 -34 288 0 L352 0 Z " />
<glyph glyph-name="iogonek" unicode="&#x12f;" horiz-adv-x="311" d="M305 0 L305 60 L303 60 C266 61 255 73 254 112 L254 419 L250 419 C239 417 230 415 226 414 L161 403 L106 393 C77 388 58 385 49 384 C33 381 27 380 15 379 L15 319 L25 319 C72 317 82 307 82 265 L82 112 C81 70 71 61 24 60 L15 60 L15 0 L181 0 C137 -30 114 -68 114 -111 C114 -164 157 -204 215 -204 C248 -204 275 -193 309 -167 L294 -136 C281 -142 274 -144 264 -144 C236 -144 218 -120 218 -83 C218 -55 228 -23 243 0 L305 0 Z M170 679 C114 679 71 636 71 581 C71 527 115 483 169 483 C222 483 266 527 266 581 C266 635 223 679 170 679 L170 679 Z " />
<glyph glyph-name="Idotaccent" unicode="&#x130;" horiz-adv-x="376" d="M24 604 L29 604 C75 602 90 586 90 539 L90 127 C91 80 77 66 28 63 L24 63 L24 0 L352 0 L352 63 L346 63 C297 66 283 80 284 127 L284 539 C284 586 299 602 345 604 L352 604 L352 667 L24 667 L24 604 Z M188 897 C142 897 104 859 104 814 C104 767 141 729 188 729 C234 729 272 767 272 813 C272 860 235 897 188 897 L188 897 Z " />
<glyph glyph-name="dotlessi" unicode="&#x131;" horiz-adv-x="311" d="M254 419 L250 419 C239 417 230 415 226 414 L161 403 L106 393 C77 388 58 385 49 384 C33 381 27 380 15 379 L15 319 L25 319 C72 317 82 307 82 265 L82 112 C81 70 71 61 24 60 L15 60 L15 0 L305 0 L305 60 L303 60 C266 61 255 73 254 112 L254 419 Z " />
<glyph glyph-name="Kcommaaccent" unicode="&#x136;" horiz-adv-x="730" d="M288 349 L288 539 C288 586 303 602 349 604 L358 604 L358 667 L24 667 L24 604 L33 604 C79 602 94 586 94 539 L94 127 C95 80 81 66 32 63 L26 63 L26 0 L350 0 L350 63 C302 64 287 80 288 127 L288 256 L346 324 L445 140 C446 134 449 128 452 122 C459 112 463 101 463 91 C463 72 443 63 405 63 L401 63 L401 0 L754 0 L754 63 L750 63 C698 59 654 96 619 173 L469 450 L510 492 C585 570 635 602 690 605 L697 604 L697 667 L422 667 L422 604 L429 605 C458 605 473 596 473 577 C473 559 463 540 436 511 L288 349 Z M296 -344 C391 -344 455 -282 455 -188 C455 -108 418 -59 359 -59 C311 -59 278 -93 278 -142 C278 -183 306 -217 341 -217 C346 -217 353 -216 361 -214 C364 -213 367 -212 368 -212 L375 -212 C376 -211 376 -211 377 -211 C384 -211 390 -220 390 -229 C390 -262 349 -288 296 -289 L296 -344 Z " />
<glyph glyph-name="kcommaaccent" unicode="&#x137;" horiz-adv-x="555" d="M296 403 L296 343 L299 343 C325 344 337 340 337 329 C337 326 337 326 325 313 L246 226 L246 679 L242 679 C196 670 191 669 163 664 C110 655 78 649 66 647 C47 643 38 641 15 636 L15 577 L22 577 C58 575 65 565 65 518 L65 112 C64 71 56 61 22 60 L15 60 L15 0 L279 0 L279 60 L276 60 C255 64 246 79 246 112 L246 152 L276 185 L317 102 L319 93 C322 81 322 81 322 77 C322 66 316 60 304 60 L302 60 L302 0 L549 0 L549 60 L547 60 C524 63 505 83 461 150 L382 280 L394 287 C473 338 479 340 527 344 L536 343 L536 403 L296 403 Z M209 -307 C302 -307 365 -250 365 -165 C365 -99 331 -59 275 -59 C230 -59 199 -87 199 -127 C199 -160 226 -188 258 -188 C263 -188 270 -187 277 -186 C283 -185 287 -184 291 -184 C299 -184 305 -191 305 -199 C305 -233 263 -261 209 -262 L209 -307 Z " />
<glyph glyph-name="Lacute" unicode="&#x139;" horiz-adv-x="594" d="M582 228 L528 228 C510 126 452 68 367 69 L364 69 C299 71 284 87 286 150 L286 538 C286 586 301 602 347 604 L354 604 L354 667 L24 667 L24 604 L31 604 C77 602 92 586 92 538 L92 127 C93 79 79 66 30 63 L24 63 L24 0 L580 0 L582 228 Z M166 734 L210 734 L479 889 L479 903 L264 903 L166 734 Z " />
<glyph glyph-name="lacute" unicode="&#x13a;" horiz-adv-x="296" d="M246 679 L242 679 C196 670 191 669 163 664 L92 652 L66 647 C47 643 38 641 15 636 L15 576 L32 576 C59 575 65 565 65 518 L65 112 C65 71 58 61 32 60 L18 60 L18 0 L282 0 L282 60 L280 60 C253 61 246 73 246 112 L246 679 Z M99 734 L144 734 L413 889 L413 903 L198 903 L99 734 Z " />
<glyph glyph-name="Lcommaaccent" unicode="&#x13b;" horiz-adv-x="594" d="M582 228 L528 228 C510 126 452 68 367 69 L364 69 C299 71 284 87 286 150 L286 538 C286 586 301 602 347 604 L354 604 L354 667 L24 667 L24 604 L31 604 C77 602 92 586 92 538 L92 127 C93 79 79 66 30 63 L24 63 L24 0 L580 0 L582 228 Z M236 -344 C331 -344 395 -282 395 -188 C395 -108 358 -59 299 -59 C251 -59 218 -93 218 -142 C218 -183 246 -217 281 -217 C286 -217 293 -216 301 -214 C304 -213 307 -212 308 -212 L315 -212 C316 -211 316 -211 317 -211 C324 -211 330 -220 330 -229 C330 -262 289 -288 236 -289 L236 -344 Z " />
<glyph glyph-name="lcommaaccent" unicode="&#x13c;" horiz-adv-x="296" d="M246 679 L242 679 C196 670 191 669 163 664 L92 652 L66 647 C47 643 38 641 15 636 L15 576 L32 576 C59 575 65 565 65 518 L65 112 C65 71 58 61 32 60 L18 60 L18 0 L282 0 L282 60 L280 60 C253 61 246 73 246 112 L246 679 Z M84 -307 C177 -307 240 -250 240 -165 C240 -99 206 -59 150 -59 C105 -59 74 -87 74 -127 C74 -160 101 -188 133 -188 C138 -188 145 -187 152 -186 C158 -185 162 -184 166 -184 C174 -184 180 -191 180 -199 C180 -233 138 -261 84 -262 L84 -307 Z " />
<glyph glyph-name="Lcaron" unicode="&#x13d;" horiz-adv-x="594" d="M582 228 L528 228 C510 126 452 68 367 69 L364 69 C299 71 284 87 286 150 L286 538 C286 586 301 602 347 604 L354 604 L354 667 L24 667 L24 604 L31 604 C77 602 92 586 92 538 L92 127 C93 79 79 66 30 63 L24 63 L24 0 L580 0 L582 228 Z M406 382 C501 382 565 445 565 538 C565 618 528 667 469 667 C421 667 388 633 388 584 C388 543 416 509 451 509 C456 509 463 510 471 512 C474 513 477 514 478 514 L485 514 C486 515 486 515 487 515 C494 515 500 506 500 497 C500 464 460 439 406 438 L406 382 Z " />
<glyph glyph-name="lcaron" unicode="&#x13e;" horiz-adv-x="457" d="M246 679 L242 679 C196 670 191 669 163 664 L92 652 L66 647 C47 643 38 641 15 636 L15 576 L32 576 C59 575 65 565 65 518 L65 112 C65 71 58 61 32 60 L18 60 L18 0 L282 0 L282 60 L280 60 C253 61 246 73 246 112 L246 679 Z M294 431 L300 431 C324 431 353 438 376 450 C425 474 450 516 450 573 C450 639 416 679 360 679 C315 679 284 651 284 611 C284 578 311 551 343 551 C349 551 355 552 362 553 C368 554 372 554 376 554 C384 554 390 547 390 539 C390 505 348 478 294 477 L294 431 Z " />
<glyph glyph-name="Ldot" unicode="&#x13f;" horiz-adv-x="594" d="M582 228 L528 228 C510 126 452 68 367 69 L364 69 C299 71 284 87 286 150 L286 538 C286 586 301 602 347 604 L354 604 L354 667 L24 667 L24 604 L31 604 C77 602 92 586 92 538 L92 127 C93 79 79 66 30 63 L24 63 L24 0 L580 0 L582 228 Z M415 417 C373 417 338 382 338 341 C338 298 372 263 415 263 C458 263 492 298 492 340 C492 383 458 417 415 417 L415 417 Z " />
<glyph glyph-name="ldot" unicode="&#x140;" horiz-adv-x="431" d="M246 679 L242 679 C196 670 191 669 163 664 L92 652 L66 647 C47 643 38 641 15 636 L15 576 L32 576 C59 575 65 565 65 518 L65 112 C65 71 58 61 32 60 L18 60 L18 0 L282 0 L282 60 L280 60 C253 61 246 73 246 112 L246 679 Z M361 411 C319 411 284 376 284 335 C284 292 318 257 361 257 C404 257 438 292 438 334 C438 377 404 411 361 411 L361 411 Z " />
<glyph glyph-name="Lslash" unicode="&#x141;" horiz-adv-x="594" d="M92 213 L92 127 C93 79 79 66 30 63 L24 63 L24 0 L581 0 L583 228 L528 228 C509 125 452 69 368 69 L364 69 C299 71 284 87 286 150 L286 352 L383 420 L383 493 L286 425 L286 538 C286 586 301 602 347 604 L354 604 L354 667 L24 667 L24 604 L31 604 C77 602 92 586 92 538 L92 286 L29 240 L29 167 L92 213 Z " />
<glyph glyph-name="lslash" unicode="&#x142;" horiz-adv-x="297" d="M246 449 L246 679 L242 679 C208 673 185 668 163 664 C110 655 77 649 66 647 C47 643 38 641 15 636 L15 576 L30 576 C59 575 65 565 65 518 L65 262 L19 216 L19 149 L65 195 L65 112 C64 71 58 61 30 60 L19 60 L19 0 L283 0 L283 60 L281 60 C254 61 246 73 246 112 L246 382 L291 430 L291 494 L246 449 Z " />
<glyph glyph-name="Nacute" unicode="&#x143;" horiz-adv-x="710" d="M612 -9 L612 492 C610 563 629 592 685 604 L692 604 L692 667 L453 667 L453 604 L457 604 C511 603 541 561 539 493 L539 287 L230 667 L24 667 L24 604 L28 604 C73 602 104 564 103 513 L103 176 C103 131 102 120 94 104 C84 81 57 62 36 62 L33 62 L30 62 L30 0 L250 0 L250 62 L244 62 L238 62 C218 62 197 79 186 102 C177 120 176 132 176 176 L176 444 L538 -9 L612 -9 Z M309 734 L354 734 L622 889 L622 903 L408 903 L309 734 Z " />
<glyph glyph-name="nacute" unicode="&#x144;" horiz-adv-x="565" d="M238 405 C218 401 210 400 174 394 C103 382 65 375 15 366 L15 306 L17 306 C53 305 63 295 66 260 L66 112 C65 71 56 61 18 60 L17 60 L17 0 L279 0 L279 60 L277 60 C257 64 247 81 247 112 L247 265 C273 309 285 322 303 322 C320 322 331 304 331 276 L331 112 C331 82 323 67 303 60 L300 60 L300 0 L561 0 L561 60 L558 60 C527 61 516 74 515 112 L515 256 C515 304 511 328 499 353 C480 392 431 419 379 419 C331 419 283 395 249 354 C248 383 246 392 242 405 L238 405 Z M239 484 L288 484 L491 626 L491 639 L293 639 L239 484 Z " />
<glyph glyph-name="Ncommaaccent" unicode="&#x145;" horiz-adv-x="710" d="M612 -9 L612 492 C610 563 629 592 685 604 L692 604 L692 667 L453 667 L453 604 L457 604 C511 603 541 561 539 493 L539 287 L230 667 L24 667 L24 604 L28 604 C73 602 104 564 103 513 L103 176 C103 131 102 120 94 104 C84 81 57 62 36 62 L33 62 L30 62 L30 0 L250 0 L250 62 L244 62 L238 62 C218 62 197 79 186 102 C177 120 176 132 176 176 L176 444 L538 -9 L612 -9 Z M291 -344 C386 -344 450 -282 450 -188 C450 -108 413 -59 354 -59 C306 -59 273 -93 273 -142 C273 -183 301 -217 336 -217 C341 -217 348 -216 356 -214 C359 -213 362 -212 363 -212 L370 -212 C371 -211 371 -211 372 -211 C379 -211 385 -220 385 -229 C385 -262 344 -288 291 -289 L291 -344 Z " />
<glyph glyph-name="ncommaaccent" unicode="&#x146;" horiz-adv-x="565" d="M238 405 C218 401 210 400 174 394 C103 382 65 375 15 366 L15 306 L17 306 C53 305 63 295 66 260 L66 112 C65 71 56 61 18 60 L17 60 L17 0 L279 0 L279 60 L277 60 C257 64 247 81 247 112 L247 265 C273 309 285 322 303 322 C320 322 331 304 331 276 L331 112 C331 82 323 67 303 60 L300 60 L300 0 L561 0 L561 60 L558 60 C527 61 516 74 515 112 L515 256 C515 304 511 328 499 353 C480 392 431 419 379 419 C331 419 283 395 249 354 C248 383 246 392 242 405 L238 405 Z M219 -307 C312 -307 375 -250 375 -165 C375 -99 341 -59 285 -59 C240 -59 209 -87 209 -127 C209 -160 236 -188 268 -188 C273 -188 280 -187 287 -186 C293 -185 297 -184 301 -184 C309 -184 315 -191 315 -199 C315 -233 273 -261 219 -262 L219 -307 Z " />
<glyph glyph-name="Ncaron" unicode="&#x147;" horiz-adv-x="710" d="M612 -9 L612 492 C610 563 629 592 685 604 L692 604 L692 667 L453 667 L453 604 L457 604 C511 603 541 561 539 493 L539 287 L230 667 L24 667 L24 604 L28 604 C73 602 104 564 103 513 L103 176 C103 131 102 120 94 104 C84 81 57 62 36 62 L33 62 L30 62 L30 0 L250 0 L250 62 L244 62 L238 62 C218 62 197 79 186 102 C177 120 176 132 176 176 L176 444 L538 -9 L612 -9 Z M478 732 L577 898 L534 898 L370 802 L208 898 L164 898 L259 732 L478 732 Z " />
<glyph glyph-name="ncaron" unicode="&#x148;" horiz-adv-x="565" d="M238 405 C218 401 210 400 174 394 C103 382 65 375 15 366 L15 306 L17 306 C53 305 63 295 66 260 L66 112 C65 71 56 61 18 60 L17 60 L17 0 L279 0 L279 60 L277 60 C257 64 247 81 247 112 L247 265 C273 309 285 322 303 322 C320 322 331 304 331 276 L331 112 C331 82 323 67 303 60 L300 60 L300 0 L561 0 L561 60 L558 60 C527 61 516 74 515 112 L515 256 C515 304 511 328 499 353 C480 392 431 419 379 419 C331 419 283 395 249 354 C248 383 246 392 242 405 L238 405 Z M172 653 L126 653 L215 491 L368 491 L450 653 L401 653 L288 573 L172 653 Z " />
<glyph glyph-name="Omacron" unicode="&#x14c;" horiz-adv-x="748" d="M380 679 C279 679 195 647 138 587 C74 519 36 424 36 333 C36 245 63 164 114 100 C173 26 264 -14 372 -14 C479 -14 558 18 620 85 C679 151 712 237 712 330 C712 436 669 536 593 603 C536 654 466 679 380 679 L380 679 Z M374 605 C455 605 485 527 485 316 C485 219 478 164 460 121 C444 83 412 60 376 60 C335 60 305 86 286 139 C271 181 265 237 265 343 C265 530 296 605 374 605 L374 605 Z M205 826 L205 757 L544 757 L544 826 L205 826 Z " />
<glyph glyph-name="omacron" unicode="&#x14d;" horiz-adv-x="523" d="M260 419 C126 419 33 330 33 202 C33 139 52 88 88 51 C130 9 194 -16 262 -16 C396 -16 490 75 490 204 C490 260 475 306 445 341 C402 390 335 419 260 419 L260 419 Z M261 356 C270 356 279 351 285 341 C298 322 300 302 300 209 C300 79 292 46 261 46 C249 46 238 57 232 76 C224 101 224 101 222 210 C223 302 224 318 233 336 C240 348 250 356 261 356 L261 356 Z M110 530 L413 530 L413 593 L110 593 L110 530 Z " />
<glyph glyph-name="Ohungarumlaut" unicode="&#x150;" horiz-adv-x="748" d="M380 679 C279 679 195 647 138 587 C74 519 36 424 36 333 C36 245 63 164 114 100 C173 26 264 -14 372 -14 C479 -14 558 18 620 85 C679 151 712 237 712 330 C712 436 669 536 593 603 C536 654 466 679 380 679 L380 679 Z M374 605 C455 605 485 527 485 316 C485 219 478 164 460 121 C444 83 412 60 376 60 C335 60 305 86 286 139 C271 181 265 237 265 343 C265 530 296 605 374 605 L374 605 Z M248 734 L293 734 L515 889 L515 903 L347 903 L248 734 Z M452 734 L497 734 L719 889 L719 903 L551 903 L452 734 Z " />
<glyph glyph-name="ohungarumlaut" unicode="&#x151;" horiz-adv-x="523" d="M260 419 C126 419 33 330 33 202 C33 139 52 88 88 51 C130 9 194 -16 262 -16 C396 -16 490 75 490 204 C490 260 475 306 445 341 C402 390 335 419 260 419 L260 419 Z M261 356 C270 356 279 351 285 341 C298 322 300 302 300 209 C300 79 292 46 261 46 C249 46 238 57 232 76 C224 101 224 101 222 210 C223 302 224 318 233 336 C240 348 250 356 261 356 L261 356 Z M153 484 L203 484 L359 626 L359 639 L208 639 L153 484 Z M321 484 L371 484 L527 626 L527 639 L376 639 L321 484 Z " />
<glyph glyph-name="OE" unicode="&#x152;" horiz-adv-x="913" d="M889 221 L834 221 C810 118 764 69 689 69 C637 69 623 78 624 114 L624 312 L668 312 C702 311 715 294 719 246 L719 236 L771 236 L771 459 L719 459 L719 449 C712 396 702 382 670 381 L624 381 L624 599 L695 599 C758 603 780 581 808 489 L865 489 L856 667 L464 667 L425 667 C316 667 281 664 240 651 C120 613 39 484 39 330 C39 190 109 70 215 26 C262 7 307 1 409 1 L453 1 L462 1 L887 0 L889 221 Z M430 165 C429 110 429 109 425 98 C420 83 402 72 381 72 C342 72 306 100 284 148 C266 187 256 250 256 324 C256 500 300 597 379 597 C415 597 430 575 430 524 L430 165 Z " />
<glyph glyph-name="oe" unicode="&#x153;" horiz-adv-x="732" d="M702 191 C701 238 699 257 693 279 C671 362 595 419 506 419 C458 419 422 406 387 376 C347 404 301 419 251 419 C124 419 33 327 33 199 C33 139 52 87 88 51 C129 10 194 -16 257 -16 C306 -16 347 -2 388 30 C421 -1 462 -16 510 -16 C576 -16 651 22 688 73 L642 107 C613 72 581 54 551 54 C520 54 492 75 480 106 C470 130 468 147 467 191 L702 191 Z M467 248 C468 285 468 300 471 313 C476 341 490 356 511 356 C530 356 544 343 550 318 C554 303 556 288 557 248 L467 248 Z M264 355 C280 355 295 344 302 327 C310 308 312 285 312 208 C312 123 310 98 299 72 C293 56 280 46 266 46 C245 46 230 62 222 93 C218 111 218 111 216 209 C217 295 217 299 225 325 C231 342 247 355 264 355 L264 355 Z " />
<glyph glyph-name="Racute" unicode="&#x154;" horiz-adv-x="674" d="M25 0 L357 0 L357 63 L352 63 C303 66 289 80 290 127 L290 287 L299 287 C355 288 373 278 392 235 C411 192 425 161 434 143 C478 42 482 34 504 0 L698 0 L698 63 L692 63 C659 66 635 95 588 189 C557 251 521 304 496 324 C561 349 605 413 605 484 C605 534 587 579 554 612 C523 643 488 657 432 663 C401 666 338 667 191 667 L24 667 L24 604 L35 604 C81 602 96 586 96 539 L96 127 C97 80 83 66 34 63 L25 63 L25 0 Z M290 595 C295 596 299 596 302 596 C337 596 360 591 372 581 C394 562 404 530 404 479 C404 426 393 387 373 371 C361 360 344 356 313 356 C308 356 301 356 290 357 L290 595 Z M245 734 L289 734 L558 889 L558 903 L343 903 L245 734 Z " />
<glyph glyph-name="racute" unicode="&#x155;" horiz-adv-x="452" d="M15 313 L17 313 C53 311 64 299 65 260 L65 112 C64 72 55 61 18 60 L16 60 L16 0 L304 0 L304 60 L297 60 C259 61 248 73 247 112 L247 149 C247 202 251 251 257 270 C262 288 278 301 296 301 C308 301 319 295 330 283 C355 255 362 251 383 251 C420 251 446 283 446 330 C446 382 415 419 369 419 C317 419 274 386 240 318 C238 363 234 390 224 419 C107 394 63 384 15 372 L15 313 Z M191 484 L241 484 L444 626 L444 639 L246 639 L191 484 Z " />
<glyph glyph-name="Rcommaaccent" unicode="&#x156;" horiz-adv-x="674" d="M25 0 L357 0 L357 63 L352 63 C303 66 289 80 290 127 L290 287 L299 287 C355 288 373 278 392 235 C411 192 425 161 434 143 C478 42 482 34 504 0 L698 0 L698 63 L692 63 C659 66 635 95 588 189 C557 251 521 304 496 324 C561 349 605 413 605 484 C605 534 587 579 554 612 C523 643 488 657 432 663 C401 666 338 667 191 667 L24 667 L24 604 L35 604 C81 602 96 586 96 539 L96 127 C97 80 83 66 34 63 L25 63 L25 0 Z M290 595 C295 596 299 596 302 596 C337 596 360 591 372 581 C394 562 404 530 404 479 C404 426 393 387 373 371 C361 360 344 356 313 356 C308 356 301 356 290 357 L290 595 Z M283 -344 C378 -344 442 -282 442 -188 C442 -108 405 -59 346 -59 C298 -59 265 -93 265 -142 C265 -183 293 -217 328 -217 C333 -217 340 -216 348 -214 C351 -213 354 -212 355 -212 L362 -212 C363 -211 363 -211 364 -211 C371 -211 377 -220 377 -229 C377 -262 336 -288 283 -289 L283 -344 Z " />
<glyph glyph-name="rcommaaccent" unicode="&#x157;" horiz-adv-x="452" d="M15 313 L17 313 C53 311 64 299 65 260 L65 112 C64 72 55 61 18 60 L16 60 L16 0 L304 0 L304 60 L297 60 C259 61 248 73 247 112 L247 149 C247 202 251 251 257 270 C262 288 278 301 296 301 C308 301 319 295 330 283 C355 255 362 251 383 251 C420 251 446 283 446 330 C446 382 415 419 369 419 C317 419 274 386 240 318 C238 363 234 390 224 419 C107 394 63 384 15 372 L15 313 Z M88 -307 C181 -307 244 -250 244 -165 C244 -99 210 -59 154 -59 C109 -59 78 -87 78 -127 C78 -160 105 -188 137 -188 C142 -188 149 -187 156 -186 C162 -185 166 -184 170 -184 C178 -184 184 -191 184 -199 C184 -233 142 -261 88 -262 L88 -307 Z " />
<glyph glyph-name="Rcaron" unicode="&#x158;" horiz-adv-x="674" d="M25 0 L357 0 L357 63 L352 63 C303 66 289 80 290 127 L290 287 L299 287 C355 288 373 278 392 235 C411 192 425 161 434 143 C478 42 482 34 504 0 L698 0 L698 63 L692 63 C659 66 635 95 588 189 C557 251 521 304 496 324 C561 349 605 413 605 484 C605 534 587 579 554 612 C523 643 488 657 432 663 C401 666 338 667 191 667 L24 667 L24 604 L35 604 C81 602 96 586 96 539 L96 127 C97 80 83 66 34 63 L25 63 L25 0 Z M290 595 C295 596 299 596 302 596 C337 596 360 591 372 581 C394 562 404 530 404 479 C404 426 393 387 373 371 C361 360 344 356 313 356 C308 356 301 356 290 357 L290 595 Z M425 732 L523 898 L480 898 L316 802 L154 898 L111 898 L205 732 L425 732 Z " />
<glyph glyph-name="rcaron" unicode="&#x159;" horiz-adv-x="452" d="M15 313 L17 313 C53 311 64 299 65 260 L65 112 C64 72 55 61 18 60 L16 60 L16 0 L304 0 L304 60 L297 60 C259 61 248 73 247 112 L247 149 C247 202 251 251 257 270 C262 288 278 301 296 301 C308 301 319 295 330 283 C355 255 362 251 383 251 C420 251 446 283 446 330 C446 382 415 419 369 419 C317 419 274 386 240 318 C238 363 234 390 224 419 C107 394 63 384 15 372 L15 313 Z M114 653 L69 653 L157 491 L311 491 L392 653 L343 653 L230 573 L114 653 Z " />
<glyph glyph-name="Sacute" unicode="&#x15a;" horiz-adv-x="514" d="M51 13 L112 13 C115 36 119 49 125 64 C162 16 223 -14 286 -14 C397 -14 488 81 488 197 C488 249 471 297 440 335 C413 369 377 394 294 437 C218 476 199 498 199 543 C199 584 225 612 263 612 C317 612 363 554 381 465 L438 465 L438 667 L379 667 C375 647 371 633 367 625 C335 659 286 679 239 679 C133 679 49 587 49 472 C49 425 63 379 88 348 C116 311 126 304 215 249 C281 208 283 206 292 198 C313 181 324 158 324 132 C324 90 295 60 255 60 C213 60 176 88 147 140 C132 167 123 194 112 245 L51 245 L51 13 Z M192 734 L237 734 L505 889 L505 903 L291 903 L192 734 Z " />
<glyph glyph-name="sacute" unicode="&#x15b;" horiz-adv-x="440" d="M39 -12 L84 -12 C89 0 93 5 102 12 C172 -13 190 -17 232 -17 C340 -17 407 42 407 137 C407 181 391 218 362 244 C341 263 300 277 223 293 C174 303 159 312 159 332 C159 354 181 367 219 367 C281 367 320 342 336 293 L381 293 L381 416 L339 416 C333 405 330 401 322 394 C278 411 235 420 201 420 C103 420 36 363 36 277 C36 228 58 189 100 164 C123 150 158 138 231 121 C263 113 276 102 276 84 C276 60 244 42 201 42 C147 42 104 73 89 124 L39 124 L39 -12 Z M172 484 L221 484 L425 626 L425 639 L227 639 L172 484 Z " />
<glyph glyph-name="Scircumflex" unicode="&#x15c;" horiz-adv-x="514" d="M51 13 L112 13 C115 36 119 49 125 64 C162 16 223 -14 286 -14 C397 -14 488 81 488 197 C488 249 471 297 440 335 C413 369 377 394 294 437 C218 476 199 498 199 543 C199 584 225 612 263 612 C317 612 363 554 381 465 L438 465 L438 667 L379 667 C375 647 371 633 367 625 C335 659 286 679 239 679 C133 679 49 587 49 472 C49 425 63 379 88 348 C116 311 126 304 215 249 C281 208 283 206 292 198 C313 181 324 158 324 132 C324 90 295 60 255 60 C213 60 176 88 147 140 C132 167 123 194 112 245 L51 245 L51 13 Z M164 898 L70 732 L113 732 L275 828 L439 732 L482 732 L383 898 L164 898 Z " />
<glyph glyph-name="scircumflex" unicode="&#x15d;" horiz-adv-x="440" d="M39 -12 L84 -12 C89 0 93 5 102 12 C172 -13 190 -17 232 -17 C340 -17 407 42 407 137 C407 181 391 218 362 244 C341 263 300 277 223 293 C174 303 159 312 159 332 C159 354 181 367 219 367 C281 367 320 342 336 293 L381 293 L381 416 L339 416 C333 405 330 401 322 394 C278 411 235 420 201 420 C103 420 36 363 36 277 C36 228 58 189 100 164 C123 150 158 138 231 121 C263 113 276 102 276 84 C276 60 244 42 201 42 C147 42 104 73 89 124 L39 124 L39 -12 Z M343 481 L392 481 L311 644 L158 644 L68 481 L113 481 L235 561 L343 481 Z " />
<glyph glyph-name="Scedilla" unicode="&#x15e;" horiz-adv-x="514" d="M299 -13 C407 -5 488 86 488 197 C488 249 471 297 440 335 C413 369 377 394 294 437 C218 476 199 498 199 543 C199 584 225 612 263 612 C317 612 363 554 381 465 L438 465 L438 667 L379 667 C375 647 371 633 367 625 C335 659 286 679 239 679 C133 679 49 587 49 472 C49 425 63 379 88 348 C116 311 126 304 215 249 C281 208 283 206 292 198 C313 181 324 158 324 132 C324 90 295 60 255 60 C213 60 176 88 147 140 C132 167 123 194 112 245 L51 245 L51 13 L112 13 C115 36 119 49 125 64 C150 29 191 4 243 -9 C238 -61 232 -93 224 -116 C243 -117 257 -133 257 -153 C257 -172 247 -180 224 -180 C202 -180 186 -177 160 -170 C158 -198 158 -202 153 -228 C174 -236 196 -240 224 -240 C321 -240 378 -202 378 -136 C378 -84 347 -49 294 -44 L299 -13 Z " />
<glyph glyph-name="scedilla" unicode="&#x15f;" horiz-adv-x="440" d="M381 293 L381 416 L339 416 C333 405 330 401 322 394 C278 411 235 420 201 420 C103 420 36 363 36 278 C36 228 58 189 100 164 C123 150 158 138 231 121 C263 114 276 103 276 84 C276 60 244 42 201 42 C147 42 104 73 89 124 L39 124 L39 -12 L84 -12 C89 0 93 4 102 11 C107 9 120 5 139 -2 C157 -8 178 -12 200 -15 C197 -57 193 -79 186 -105 C201 -106 211 -119 211 -138 C211 -155 204 -162 186 -162 C170 -162 158 -160 139 -153 C137 -178 137 -182 133 -205 C148 -212 166 -216 188 -216 C259 -216 302 -181 302 -123 C302 -76 279 -45 239 -40 C241 -28 242 -23 242 -16 C345 -12 407 45 407 138 C407 181 391 218 362 244 C341 263 299 278 223 293 C174 303 159 312 159 332 C159 354 181 367 219 367 C281 367 320 342 336 293 L381 293 Z " />
<glyph glyph-name="Scaron" unicode="&#x160;" horiz-adv-x="514" d="M51 13 L112 13 C115 36 119 49 125 64 C162 16 223 -14 286 -14 C397 -14 488 81 488 197 C488 249 471 297 440 335 C413 369 377 394 294 437 C218 476 199 498 199 543 C199 584 225 612 263 612 C317 612 363 554 381 465 L438 465 L438 667 L379 667 C375 647 371 633 367 625 C335 659 286 679 239 679 C133 679 49 587 49 472 C49 425 63 379 88 348 C116 311 126 304 215 249 C281 208 283 206 292 198 C313 181 324 158 324 132 C324 90 295 60 255 60 C213 60 176 88 147 140 C132 167 123 194 112 245 L51 245 L51 13 Z M383 732 L481 898 L438 898 L274 802 L112 898 L69 898 L163 732 L383 732 Z " />
<glyph glyph-name="scaron" unicode="&#x161;" horiz-adv-x="440" d="M39 -12 L84 -12 C89 0 93 5 102 12 C172 -13 190 -17 232 -17 C340 -17 407 42 407 137 C407 181 391 218 362 244 C341 263 300 277 223 293 C174 303 159 312 159 332 C159 354 181 367 219 367 C281 367 320 342 336 293 L381 293 L381 416 L339 416 C333 405 330 401 322 394 C278 411 235 420 201 420 C103 420 36 363 36 277 C36 228 58 189 100 164 C123 150 158 138 231 121 C263 113 276 102 276 84 C276 60 244 42 201 42 C147 42 104 73 89 124 L39 124 L39 -12 Z M111 653 L66 653 L155 491 L308 491 L390 653 L341 653 L228 573 L111 653 Z " />
<glyph glyph-name="Tcommaaccent" unicode="&#x162;" horiz-adv-x="629" d="M70 470 C82 571 105 598 179 598 L215 598 L215 127 C216 81 200 64 153 63 L144 63 L144 0 L483 0 L483 63 L472 63 C424 64 408 80 409 127 L409 598 L445 598 C512 598 536 571 558 470 L616 470 L617 667 L12 667 L13 470 L70 470 Z M247 -344 C342 -344 406 -282 406 -188 C406 -108 369 -59 309 -59 C262 -59 229 -93 229 -142 C229 -183 257 -217 292 -217 C297 -217 304 -216 311 -214 C315 -213 318 -212 319 -212 L326 -212 C327 -211 327 -211 328 -211 C334 -211 341 -220 341 -229 C341 -262 300 -288 247 -289 L247 -344 Z " />
<glyph glyph-name="tcommaaccent" unicode="&#x163;" horiz-adv-x="338" d="M331 341 L331 403 L222 403 L222 538 L167 538 C156 458 96 402 22 402 C19 402 13 402 6 403 L6 341 L59 341 L59 105 C59 29 105 -16 184 -16 C266 -16 323 19 344 85 L293 102 C281 72 269 62 249 62 C226 62 222 73 222 141 L222 341 L331 341 Z M98 -307 C191 -307 254 -250 254 -165 C254 -99 220 -59 164 -59 C119 -59 88 -87 88 -127 C88 -160 115 -188 147 -188 C152 -188 159 -187 166 -186 C172 -185 176 -184 180 -184 C188 -184 194 -191 194 -199 C194 -233 152 -261 98 -262 L98 -307 Z " />
<glyph glyph-name="Tcaron" unicode="&#x164;" horiz-adv-x="629" d="M70 470 C82 571 105 598 179 598 L215 598 L215 127 C216 81 200 64 153 63 L144 63 L144 0 L483 0 L483 63 L472 63 C424 64 408 80 409 127 L409 598 L445 598 C512 598 536 571 558 470 L616 470 L617 667 L12 667 L13 470 L70 470 Z M422 732 L520 898 L477 898 L314 802 L151 898 L108 898 L202 732 L422 732 Z " />
<glyph glyph-name="tcaron" unicode="&#x165;" horiz-adv-x="426" d="M331 341 L331 403 L222 403 L222 538 L167 538 C156 458 96 402 22 402 C19 402 13 402 6 403 L6 341 L59 341 L59 105 C59 29 105 -16 184 -16 C266 -16 323 19 344 85 L293 102 C281 72 269 62 249 62 C226 62 222 73 222 141 L222 341 L331 341 Z M264 465 C289 466 309 469 323 474 C386 496 420 542 420 607 C420 673 386 713 330 713 C285 713 254 685 254 645 C254 612 281 584 313 584 C318 584 325 585 332 586 C338 587 342 588 346 588 C354 588 360 581 360 573 C360 538 318 511 264 510 L264 465 Z " />
<glyph glyph-name="utilde" unicode="&#x169;" horiz-adv-x="552" d="M499 403 L282 403 L282 343 L284 343 C309 342 318 329 318 291 L318 120 C315 116 315 116 301 101 C292 89 279 81 272 81 C255 81 247 102 247 144 L247 403 L6 403 L6 343 L8 343 C50 342 66 328 66 291 L66 132 C66 89 69 72 80 50 C100 9 142 -16 191 -16 C239 -16 280 5 318 49 L317 4 L315 -8 C315 -8 314 -12 314 -16 L319 -16 C362 -7 464 1 526 1 C528 1 535 1 546 0 L546 60 L544 60 C510 61 500 72 499 112 L499 403 Z M174 485 C183 506 191 512 213 512 C228 512 243 509 270 502 C322 488 334 486 354 486 C410 486 447 540 447 622 L447 632 L402 632 C400 606 386 594 360 594 C346 594 332 596 319 599 C249 619 249 619 228 619 C195 619 159 598 146 571 C136 550 133 531 132 485 L174 485 Z " />
<glyph glyph-name="Umacron" unicode="&#x16a;" horiz-adv-x="698" d="M430 667 L430 605 L436 605 C491 606 529 566 527 509 L527 286 C527 218 524 185 514 158 C494 100 446 64 389 64 C341 64 302 90 279 136 C264 168 259 198 259 262 L259 539 C259 586 275 602 326 605 L335 605 L335 667 L15 667 L15 605 L19 605 C71 602 88 586 88 539 L88 278 C88 217 88 213 93 187 C102 141 122 99 151 66 C197 14 264 -14 343 -14 C449 -14 535 33 570 111 C594 162 600 199 600 285 L600 498 C600 547 603 559 621 578 C636 594 658 605 676 605 L679 605 L683 605 L683 667 L430 667 Z M192 826 L192 757 L531 757 L531 826 L192 826 Z " />
<glyph glyph-name="umacron" unicode="&#x16b;" horiz-adv-x="552" d="M499 403 L282 403 L282 343 L284 343 C309 342 318 329 318 291 L318 120 C315 116 315 116 301 101 C292 89 279 81 272 81 C255 81 247 102 247 144 L247 403 L6 403 L6 343 L8 343 C50 342 66 328 66 291 L66 132 C66 89 69 72 80 50 C100 9 142 -16 191 -16 C239 -16 280 5 318 49 L317 4 L315 -8 C315 -8 314 -12 314 -16 L319 -16 C362 -7 464 1 526 1 C528 1 535 1 546 0 L546 60 L544 60 C510 61 500 72 499 112 L499 403 Z M135 530 L438 530 L438 593 L135 593 L135 530 Z " />
<glyph glyph-name="ubreve" unicode="&#x16d;" horiz-adv-x="552" d="M499 403 L282 403 L282 343 L284 343 C309 342 318 329 318 291 L318 120 C315 116 315 116 301 101 C292 89 279 81 272 81 C255 81 247 102 247 144 L247 403 L6 403 L6 343 L8 343 C50 342 66 328 66 291 L66 132 C66 89 69 72 80 50 C100 9 142 -16 191 -16 C239 -16 280 5 318 49 L317 4 L315 -8 C315 -8 314 -12 314 -16 L319 -16 C362 -7 464 1 526 1 C528 1 535 1 546 0 L546 60 L544 60 C510 61 500 72 499 112 L499 403 Z M123 650 C127 549 193 474 280 474 C367 474 435 551 435 650 L397 650 C380 594 341 566 283 566 C222 566 178 596 161 650 L123 650 Z " />
<glyph glyph-name="Uring" unicode="&#x16e;" horiz-adv-x="698" d="M430 667 L430 605 L436 605 C491 606 529 566 527 509 L527 286 C527 218 524 185 514 158 C494 100 446 64 389 64 C341 64 302 90 279 136 C264 168 259 198 259 262 L259 539 C259 586 275 602 326 605 L335 605 L335 667 L15 667 L15 605 L19 605 C71 602 88 586 88 539 L88 278 C88 217 88 213 93 187 C102 141 122 99 151 66 C197 14 264 -14 343 -14 C449 -14 535 33 570 111 C594 162 600 199 600 285 L600 498 C600 547 603 559 621 578 C636 594 658 605 676 605 L679 605 L683 605 L683 667 L430 667 Z M370 935 C305 935 251 881 251 817 C251 749 303 696 370 696 C436 696 489 750 489 816 C489 882 436 935 370 935 L370 935 Z M372 877 C404 877 431 849 431 816 C431 782 403 754 370 754 C337 754 310 781 310 815 C310 849 337 877 372 877 L372 877 Z " />
<glyph glyph-name="uring" unicode="&#x16f;" horiz-adv-x="552" d="M499 403 L282 403 L282 343 L284 343 C309 342 318 329 318 291 L318 120 C315 116 315 116 301 101 C292 89 279 81 272 81 C255 81 247 102 247 144 L247 403 L6 403 L6 343 L8 343 C50 342 66 328 66 291 L66 132 C66 89 69 72 80 50 C100 9 142 -16 191 -16 C239 -16 280 5 318 49 L317 4 L315 -8 C315 -8 314 -12 314 -16 L319 -16 C362 -7 464 1 526 1 C528 1 535 1 546 0 L546 60 L544 60 C510 61 500 72 499 112 L499 403 Z M289 671 C230 671 182 623 182 567 C182 506 229 459 289 459 C347 459 395 507 395 565 C395 624 348 671 289 671 L289 671 Z M289 619 C318 619 343 594 343 565 C343 536 318 511 288 511 C258 511 234 535 234 565 C234 595 259 619 289 619 L289 619 Z " />
<glyph glyph-name="Uhungarumlaut" unicode="&#x170;" horiz-adv-x="698" d="M430 667 L430 605 L436 605 C491 606 529 566 527 509 L527 286 C527 218 524 185 514 158 C494 100 446 64 389 64 C341 64 302 90 279 136 C264 168 259 198 259 262 L259 539 C259 586 275 602 326 605 L335 605 L335 667 L15 667 L15 605 L19 605 C71 602 88 586 88 539 L88 278 C88 217 88 213 93 187 C102 141 122 99 151 66 C197 14 264 -14 343 -14 C449 -14 535 33 570 111 C594 162 600 199 600 285 L600 498 C600 547 603 559 621 578 C636 594 658 605 676 605 L679 605 L683 605 L683 667 L430 667 Z M215 734 L259 734 L482 889 L482 903 L313 903 L215 734 Z M419 734 L463 734 L686 889 L686 903 L517 903 L419 734 Z " />
<glyph glyph-name="uhungarumlaut" unicode="&#x171;" horiz-adv-x="552" d="M499 403 L282 403 L282 343 L284 343 C309 342 318 329 318 291 L318 120 C315 116 315 116 301 101 C292 89 279 81 272 81 C255 81 247 102 247 144 L247 403 L6 403 L6 343 L8 343 C50 342 66 328 66 291 L66 132 C66 89 69 72 80 50 C100 9 142 -16 191 -16 C239 -16 280 5 318 49 L317 4 L315 -8 C315 -8 314 -12 314 -16 L319 -16 C362 -7 464 1 526 1 C528 1 535 1 546 0 L546 60 L544 60 C510 61 500 72 499 112 L499 403 Z M159 484 L209 484 L365 626 L365 639 L214 639 L159 484 Z M327 484 L377 484 L533 626 L533 639 L382 639 L327 484 Z " />
<glyph glyph-name="Uogonek" unicode="&#x172;" horiz-adv-x="698" d="M600 498 C600 547 603 559 621 578 C636 594 658 605 676 605 L679 605 L683 605 L683 667 L430 667 L430 605 L436 605 C491 606 529 566 527 509 L527 286 C527 218 524 185 514 158 C494 100 446 64 389 64 C341 64 302 90 279 136 C264 168 259 198 259 262 L259 539 C259 586 275 602 326 605 L335 605 L335 667 L15 667 L15 605 L19 605 C71 602 88 586 88 539 L88 278 C88 217 88 213 93 187 C102 141 122 99 151 66 C197 14 265 -14 343 -14 C367 -14 386 -12 408 -8 C359 -40 334 -80 334 -126 C334 -183 381 -225 446 -225 C482 -225 510 -214 549 -185 L531 -150 C519 -157 512 -159 501 -159 C470 -159 449 -134 449 -97 C449 -50 466 -15 515 40 C575 89 603 168 600 285 L600 498 Z " />
<glyph glyph-name="uogonek" unicode="&#x173;" horiz-adv-x="552" d="M546 60 L544 60 C510 61 500 72 499 112 L499 403 L282 403 L282 343 L284 343 C309 342 318 329 318 291 L318 120 C315 116 315 116 301 101 C292 89 279 81 272 81 C255 81 247 102 247 144 L247 403 L6 403 L6 343 L8 343 C50 342 66 328 66 291 L66 132 C66 89 69 72 80 50 C100 9 142 -16 191 -16 C239 -16 280 5 318 49 L317 4 L315 -8 C315 -8 314 -12 314 -16 L319 -16 C348 -10 368 -8 397 -6 L408 -5 C370 -34 349 -71 349 -111 C349 -164 392 -204 450 -204 C483 -204 509 -193 542 -167 L528 -136 C515 -142 508 -144 498 -144 C471 -144 453 -120 453 -83 C453 -54 460 -29 477 -1 C504 0 517 1 525 1 C528 1 537 1 546 0 L546 60 Z " />
<glyph glyph-name="Wcircumflex" unicode="&#x174;" horiz-adv-x="850" d="M652 -13 L770 460 C797 571 817 605 853 605 L857 605 L862 605 L862 667 L663 667 L663 605 L667 605 C700 605 721 583 721 550 C721 543 718 520 716 512 L655 262 L509 667 L429 667 L310 262 L232 538 C229 548 228 558 228 570 C228 594 242 606 269 605 L273 605 L273 667 L-12 667 L-12 605 L-8 605 L-4 605 C31 605 43 589 63 518 L209 -13 L293 -13 L421 409 L571 -13 L652 -13 Z M341 898 L247 732 L290 732 L452 828 L616 732 L659 732 L560 898 L341 898 Z " />
<glyph glyph-name="Ycircumflex" unicode="&#x176;" horiz-adv-x="601" d="M371 368 L274 529 C261 551 255 565 255 577 C255 595 270 605 299 605 L304 605 L304 667 L-11 667 L-11 605 L-7 605 C33 600 49 586 81 524 L202 278 L202 127 C203 80 189 66 140 63 L131 63 L131 0 L469 0 L469 63 L460 63 C411 66 398 80 399 127 L399 290 L498 484 C514 516 546 566 562 583 C573 595 592 605 606 605 L609 605 L612 605 L612 667 L403 667 L403 605 L408 605 C441 605 458 591 458 565 C458 551 453 534 446 518 L371 368 Z M202 898 L108 732 L151 732 L313 828 L477 732 L520 732 L421 898 L202 898 Z " />
<glyph glyph-name="ycircumflex" unicode="&#x177;" horiz-adv-x="486" d="M-6 403 L-6 344 L0 343 C20 340 28 331 57 274 L219 -20 L215 -29 C190 -80 171 -94 100 -110 C56 -121 37 -141 37 -176 C37 -219 69 -252 111 -252 C142 -252 170 -237 192 -209 C204 -193 228 -145 254 -86 L383 215 C389 229 402 254 420 290 C438 331 446 338 471 343 L480 344 L480 403 L315 403 L315 344 L319 344 L325 344 C340 344 354 332 354 318 C354 310 354 310 337 273 L288 155 L227 291 L218 309 C215 315 213 320 213 324 L213 325 C214 337 220 342 238 343 L246 344 L246 403 L-6 403 Z M371 481 L420 481 L339 644 L186 644 L96 481 L142 481 L263 561 L371 481 Z " />
<glyph glyph-name="Ydieresis" unicode="&#x178;" horiz-adv-x="601" d="M371 368 L274 529 C261 551 255 565 255 577 C255 595 270 605 299 605 L304 605 L304 667 L-11 667 L-11 605 L-7 605 C33 600 49 586 81 524 L202 278 L202 127 C203 80 189 66 140 63 L131 63 L131 0 L469 0 L469 63 L460 63 C411 66 398 80 399 127 L399 290 L498 484 C514 516 546 566 562 583 C573 595 592 605 606 605 L609 605 L612 605 L612 667 L403 667 L403 605 L408 605 C441 605 458 591 458 565 C458 551 453 534 446 518 L371 368 Z M190 897 C144 897 106 859 106 814 C106 767 143 729 190 729 C236 729 274 767 274 813 C274 860 237 897 190 897 L190 897 Z M440 897 C394 897 356 859 356 814 C356 767 393 729 439 729 C486 729 524 766 524 813 C524 860 487 897 440 897 L440 897 Z " />
<glyph glyph-name="Zacute" unicode="&#x179;" horiz-adv-x="623" d="M31 0 L584 0 L592 205 L535 205 C504 98 464 65 371 68 L244 68 L573 617 L573 667 L53 667 L46 483 L100 483 C126 581 154 599 280 599 L355 599 L31 50 L31 0 Z M273 734 L317 734 L586 889 L586 903 L371 903 L273 734 Z " />
<glyph glyph-name="zacute" unicode="&#x17a;" horiz-adv-x="458" d="M27 0 L422 0 L434 140 L379 140 C353 77 339 60 312 61 L236 61 L428 349 L428 403 L50 403 L41 276 L97 276 C123 339 126 342 150 342 L222 342 L27 48 L27 0 Z M204 484 L253 484 L457 626 L457 639 L259 639 L204 484 Z " />
<glyph glyph-name="Zdotaccent" unicode="&#x17b;" horiz-adv-x="623" d="M31 0 L584 0 L592 205 L535 205 C504 98 464 65 371 68 L244 68 L573 617 L573 667 L53 667 L46 483 L100 483 C126 581 154 599 280 599 L355 599 L31 50 L31 0 Z M324 897 C278 897 240 859 240 814 C240 767 277 729 324 729 C370 729 408 767 408 813 C408 860 371 897 324 897 L324 897 Z " />
<glyph glyph-name="zdotaccent" unicode="&#x17c;" horiz-adv-x="458" d="M27 0 L422 0 L434 140 L379 140 C353 77 339 60 312 61 L236 61 L428 349 L428 403 L50 403 L41 276 L97 276 C123 339 126 342 150 342 L222 342 L27 48 L27 0 Z M251 642 C209 642 174 607 174 566 C174 523 208 488 251 488 C294 488 328 523 328 565 C328 608 294 642 251 642 L251 642 Z " />
<glyph glyph-name="Zcaron" unicode="&#x17d;" horiz-adv-x="623" d="M31 0 L584 0 L592 205 L535 205 C504 98 464 65 371 68 L244 68 L573 617 L573 667 L53 667 L46 483 L100 483 C126 581 154 599 280 599 L355 599 L31 50 L31 0 Z M440 732 L538 898 L495 898 L332 802 L169 898 L126 898 L220 732 L440 732 Z " />
<glyph glyph-name="zcaron" unicode="&#x17e;" horiz-adv-x="458" d="M27 0 L422 0 L434 140 L379 140 C353 77 339 60 312 61 L236 61 L428 349 L428 403 L50 403 L41 276 L97 276 C123 339 126 342 150 342 L222 342 L27 48 L27 0 Z M129 653 L84 653 L172 491 L326 491 L407 653 L358 653 L245 573 L129 653 Z " />
<glyph glyph-name="florin" unicode="&#x192;" horiz-adv-x="500" d="M352 447 C356 473 357 483 357 495 C357 506 355 525 352 547 C350 565 348 585 348 596 C348 629 362 655 381 655 C386 655 390 651 390 645 C390 642 389 636 388 629 C386 620 384 605 384 598 C384 573 402 554 426 554 C455 554 477 580 477 614 C477 654 448 678 400 678 C339 678 302 646 270 563 C233 463 221 450 156 447 L144 380 L202 380 L201 370 C195 335 190 300 184 266 C181 251 175 215 165 162 C148 71 143 29 143 -14 C143 -48 146 -140 148 -147 C149 -154 150 -159 150 -161 C150 -174 140 -188 131 -188 C126 -188 122 -184 121 -178 L120 -177 L116 -161 C116 -160 116 -158 115 -155 C115 -126 100 -110 72 -110 C45 -110 23 -132 23 -160 C23 -193 55 -218 98 -218 C144 -218 196 -189 220 -150 C246 -108 261 -55 285 73 L341 380 L406 380 L417 447 L352 447 Z " />
<glyph glyph-name="uni01CD" unicode="&#x1cd;" horiz-adv-x="588" d="M600 0 L600 63 L596 63 C556 67 538 87 507 167 L322 679 L262 679 L87 182 C62 110 28 66 -7 63 L-12 63 L-12 0 L191 0 L191 63 L185 63 C148 63 130 74 130 99 C130 109 133 123 139 141 L147 164 L321 164 L332 134 C342 102 343 100 343 91 C343 72 327 63 291 63 L287 63 L287 0 L600 0 Z M298 229 L168 229 L231 407 L298 229 Z M402 732 L500 898 L457 898 L293 802 L131 898 L88 898 L182 732 L402 732 Z " />
<glyph glyph-name="uni01CE" unicode="&#x1ce;" horiz-adv-x="529" d="M489 94 C486 79 479 71 468 71 C454 71 447 81 447 102 L447 295 C447 339 443 354 425 375 C399 406 356 419 275 419 C201 419 156 412 115 393 C69 372 44 341 44 306 C44 273 68 249 102 249 C138 249 159 268 162 305 C166 342 181 355 219 355 C253 355 266 341 266 306 L266 266 L260 264 C200 245 173 234 134 211 C62 169 33 132 33 83 C33 25 73 -9 142 -9 C195 -9 240 7 277 39 C299 7 338 -9 396 -9 C479 -9 525 27 528 94 L489 94 Z M266 203 L266 99 C257 81 246 72 233 72 C216 72 201 92 201 117 C201 147 224 179 260 199 L266 203 Z M162 653 L117 653 L206 491 L359 491 L440 653 L391 653 L279 573 L162 653 Z " />
<glyph glyph-name="uni01D3" unicode="&#x1d3;" horiz-adv-x="698" d="M430 667 L430 605 L436 605 C491 606 529 566 527 509 L527 286 C527 218 524 185 514 158 C494 100 446 64 389 64 C341 64 302 90 279 136 C264 168 259 198 259 262 L259 539 C259 586 275 602 326 605 L335 605 L335 667 L15 667 L15 605 L19 605 C71 602 88 586 88 539 L88 278 C88 217 88 213 93 187 C102 141 122 99 151 66 C197 14 264 -14 343 -14 C449 -14 535 33 570 111 C594 162 600 199 600 285 L600 498 C600 547 603 559 621 578 C636 594 658 605 676 605 L679 605 L683 605 L683 667 L430 667 Z M473 732 L572 898 L529 898 L365 802 L203 898 L159 898 L254 732 L473 732 Z " />
<glyph glyph-name="uni01D4" unicode="&#x1d4;" horiz-adv-x="552" d="M499 403 L282 403 L282 343 L284 343 C309 342 318 329 318 291 L318 120 C315 116 315 116 301 101 C292 89 279 81 272 81 C255 81 247 102 247 144 L247 403 L6 403 L6 343 L8 343 C50 342 66 328 66 291 L66 132 C66 89 69 72 80 50 C100 9 142 -16 191 -16 C239 -16 280 5 318 49 L317 4 L315 -8 C315 -8 314 -12 314 -16 L319 -16 C362 -7 464 1 526 1 C528 1 535 1 546 0 L546 60 L544 60 C510 61 500 72 499 112 L499 403 Z M170 653 L125 653 L213 491 L367 491 L448 653 L399 653 L287 573 L170 653 Z " />
<glyph glyph-name="Gcaron" unicode="&#x1e6;" horiz-adv-x="713" d="M411 314 L411 252 L416 251 C458 243 474 228 475 194 L475 170 C475 97 442 59 378 59 C289 59 259 120 259 301 C259 421 267 483 290 532 C310 574 349 598 398 598 C473 598 522 549 555 441 L616 441 L609 676 L549 676 C547 650 541 630 530 608 C474 656 415 679 346 679 C266 679 196 649 139 590 C73 522 35 426 35 328 C35 135 171 -14 345 -14 C392 -14 418 -10 501 8 C555 20 605 26 641 26 C644 26 650 26 661 25 L661 182 C661 225 665 235 690 250 L697 252 L697 314 L411 314 Z M472 732 L570 898 L527 898 L364 802 L201 898 L158 898 L252 732 L472 732 Z " />
<glyph glyph-name="gcaron" unicode="&#x1e7;" horiz-adv-x="498" d="M327 -71 C370 -71 387 -82 387 -112 C387 -160 330 -190 241 -190 C186 -190 142 -174 137 -153 C132 -135 130 -125 128 -121 C126 -116 125 -112 122 -107 C103 -97 91 -94 78 -94 C51 -94 29 -120 29 -150 C29 -217 96 -250 229 -250 C310 -250 364 -238 408 -211 C459 -179 487 -128 487 -64 C487 -13 469 26 435 48 C407 67 377 73 317 73 C302 73 287 73 273 72 L200 71 C176 71 165 78 165 93 C165 119 189 131 240 132 C362 132 434 187 434 279 C434 304 430 320 419 342 C425 349 428 350 433 350 C441 350 445 348 454 340 C465 331 471 328 480 328 C499 328 511 344 511 369 C511 401 495 420 467 420 C445 420 431 412 389 378 C352 407 312 418 249 418 C114 418 38 368 38 279 C38 242 54 204 79 181 C96 165 112 156 144 147 C75 126 50 97 50 40 C50 -38 104 -72 230 -72 C240 -72 240 -72 290 -71 L327 -71 Z M238 358 C256 358 266 332 266 283 C266 224 258 197 241 197 C220 197 211 226 211 288 C211 331 221 358 238 358 L238 358 Z M126 653 L81 653 L170 491 L323 491 L404 653 L355 653 L243 573 L126 653 Z " />
<glyph glyph-name="Scommaaccent" unicode="&#x218;" horiz-adv-x="514" d="M51 13 L112 13 C115 36 119 49 125 64 C162 16 223 -14 286 -14 C397 -14 488 81 488 197 C488 249 471 297 440 335 C413 369 377 394 294 437 C218 476 199 498 199 543 C199 584 225 612 263 612 C317 612 363 554 381 465 L438 465 L438 667 L379 667 C375 647 371 633 367 625 C335 659 286 679 239 679 C133 679 49 587 49 472 C49 425 63 379 88 348 C116 311 126 304 215 249 C281 208 283 206 292 198 C313 181 324 158 324 132 C324 90 295 60 255 60 C213 60 176 88 147 140 C132 167 123 194 112 245 L51 245 L51 13 Z M195 -344 C290 -344 354 -282 354 -188 C354 -108 317 -59 258 -59 C210 -59 177 -93 177 -142 C177 -183 205 -217 240 -217 C245 -217 252 -216 260 -214 C263 -213 266 -212 267 -212 L274 -212 C275 -211 275 -211 276 -211 C283 -211 289 -220 289 -229 C289 -262 248 -288 195 -289 L195 -344 Z " />
<glyph glyph-name="scommaaccent" unicode="&#x219;" horiz-adv-x="440" d="M39 -12 L84 -12 C89 0 93 5 102 12 C172 -13 190 -17 232 -17 C340 -17 407 42 407 137 C407 181 391 218 362 244 C341 263 300 277 223 293 C174 303 159 312 159 332 C159 354 181 367 219 367 C281 367 320 342 336 293 L381 293 L381 416 L339 416 C333 405 330 401 322 394 C278 411 235 420 201 420 C103 420 36 363 36 277 C36 228 58 189 100 164 C123 150 158 138 231 121 C263 113 276 102 276 84 C276 60 244 42 201 42 C147 42 104 73 89 124 L39 124 L39 -12 Z M146 -307 C239 -307 302 -250 302 -165 C302 -99 268 -59 212 -59 C167 -59 136 -87 136 -127 C136 -160 163 -188 195 -188 C200 -188 207 -187 214 -186 C220 -185 224 -184 228 -184 C236 -184 242 -191 242 -199 C242 -233 200 -261 146 -262 L146 -307 Z " />
<glyph glyph-name="uni021A" unicode="&#x21a;" horiz-adv-x="629" d="M70 470 C82 571 105 598 179 598 L215 598 L215 127 C216 81 200 64 153 63 L144 63 L144 0 L483 0 L483 63 L472 63 C424 64 408 80 409 127 L409 598 L445 598 C512 598 536 571 558 470 L616 470 L617 667 L12 667 L13 470 L70 470 Z M247 -344 C342 -344 406 -282 406 -188 C406 -108 369 -59 309 -59 C262 -59 229 -93 229 -142 C229 -183 257 -217 292 -217 C297 -217 304 -216 311 -214 C315 -213 318 -212 319 -212 L326 -212 C327 -211 327 -211 328 -211 C334 -211 341 -220 341 -229 C341 -262 300 -288 247 -289 L247 -344 Z " />
<glyph glyph-name="uni021B" unicode="&#x21b;" horiz-adv-x="338" d="M331 341 L331 403 L222 403 L222 538 L167 538 C156 458 96 402 22 402 C19 402 13 402 6 403 L6 341 L59 341 L59 105 C59 29 105 -16 184 -16 C266 -16 323 19 344 85 L293 102 C281 72 269 62 249 62 C226 62 222 73 222 141 L222 341 L331 341 Z M98 -307 C191 -307 254 -250 254 -165 C254 -99 220 -59 164 -59 C119 -59 88 -87 88 -127 C88 -160 115 -188 147 -188 C152 -188 159 -187 166 -186 C172 -185 176 -184 180 -184 C188 -184 194 -191 194 -199 C194 -233 152 -261 98 -262 L98 -307 Z " />
<glyph glyph-name="afii57929" unicode="&#x2bc;" horiz-adv-x="321" d="M65 307 C98 307 127 315 158 331 C224 368 260 436 260 526 C260 622 218 682 149 682 C94 682 57 641 57 580 C57 529 88 490 127 490 C135 490 137 490 152 496 C162 497 162 497 163 497 C171 497 177 488 177 476 C177 422 129 378 65 374 L65 307 Z " />
<glyph glyph-name="circumflex" unicode="&#x2c6;" horiz-adv-x="482" d="M353 481 L403 481 L322 644 L169 644 L79 481 L124 481 L246 561 L353 481 Z " />
<glyph glyph-name="caron" unicode="&#x2c7;" horiz-adv-x="482" d="M125 653 L80 653 L169 491 L322 491 L404 653 L354 653 L242 573 L125 653 Z " />
<glyph glyph-name="uni02C9" unicode="&#x2c9;" horiz-adv-x="370" d="M33 530 L336 530 L336 593 L33 593 L33 530 Z " />
<glyph glyph-name="breve" unicode="&#x2d8;" horiz-adv-x="481" d="M79 650 L79 644 C79 604 96 559 125 526 C155 491 192 474 236 474 C323 474 391 551 391 650 L354 650 C336 594 298 566 239 566 C178 566 135 596 118 650 L79 650 Z " />
<glyph glyph-name="dotaccent" unicode="&#x2d9;" horiz-adv-x="465" d="M233 642 C191 642 156 607 156 566 C156 523 190 488 233 488 C276 488 310 523 310 565 C310 608 276 642 233 642 L233 642 Z " />
<glyph glyph-name="ring" unicode="&#x2da;" horiz-adv-x="412" d="M206 671 C148 671 100 623 100 567 C100 506 147 459 206 459 C264 459 312 507 312 565 C312 624 265 671 206 671 L206 671 Z M207 619 C236 619 260 594 260 565 C260 536 235 511 205 511 C176 511 152 535 152 565 C152 595 176 619 207 619 L207 619 Z " />
<glyph glyph-name="ogonek" unicode="&#x2db;" horiz-adv-x="500" d="M315 15 C250 -23 223 -60 223 -111 C223 -164 266 -204 324 -204 C357 -204 384 -193 417 -167 L403 -136 C389 -142 383 -144 373 -144 C345 -144 327 -120 327 -83 C327 -48 336 -22 362 15 L315 15 Z " />
<glyph glyph-name="tilde" unicode="&#x2dc;" horiz-adv-x="482" d="M122 485 C131 506 138 512 160 512 C176 512 191 509 218 502 C270 488 282 486 301 486 C358 486 395 540 395 622 L395 632 L350 632 C347 606 334 594 308 594 C294 594 279 596 267 599 C196 619 196 619 176 619 C143 619 107 598 94 571 C84 550 81 531 80 485 L122 485 Z " />
<glyph glyph-name="hungarumlaut" unicode="&#x2dd;" horiz-adv-x="471" d="M85 484 L134 484 L291 626 L291 639 L140 639 L85 484 Z M253 484 L302 484 L459 626 L459 639 L308 639 L253 484 Z " />
<glyph glyph-name="Wdieresis" unicode="&#x1e84;" horiz-adv-x="850" d="M652 -13 L770 460 C797 571 817 605 853 605 L857 605 L862 605 L862 667 L663 667 L663 605 L667 605 C700 605 721 583 721 550 C721 543 718 520 716 512 L655 262 L509 667 L429 667 L310 262 L232 538 C229 548 228 558 228 570 C228 594 242 606 269 605 L273 605 L273 667 L-12 667 L-12 605 L-8 605 L-4 605 C31 605 43 589 63 518 L209 -13 L293 -13 L421 409 L571 -13 L652 -13 Z M338 897 C292 897 254 859 254 814 C254 767 291 729 338 729 C384 729 422 767 422 813 C422 860 385 897 338 897 L338 897 Z M588 897 C542 897 504 859 504 814 C504 767 541 729 587 729 C634 729 672 766 672 813 C672 860 635 897 588 897 L588 897 Z " />
<glyph glyph-name="uni2011" unicode="&#x2011;" horiz-adv-x="319" d="M26 260 L26 179 L298 179 L298 260 L26 260 Z " />
<glyph glyph-name="figuredash" unicode="&#x2012;" horiz-adv-x="500" d="M18 261 L18 187 L482 187 L482 261 L18 261 Z " />
<glyph glyph-name="endash" unicode="&#x2013;" horiz-adv-x="500" d="M18 261 L18 187 L482 187 L482 261 L18 261 Z " />
<glyph glyph-name="emdash" unicode="&#x2014;" horiz-adv-x="803" d="M18 261 L18 187 L785 187 L785 261 L18 261 Z " />
<glyph glyph-name="afii00208" unicode="&#x2015;" horiz-adv-x="803" d="M18 261 L18 187 L785 187 L785 261 L18 261 Z " />
<glyph glyph-name="quoteleft" unicode="&#x2018;" horiz-adv-x="321" d="M256 682 C141 681 61 592 61 464 C61 367 103 307 172 307 C226 307 264 348 264 409 C264 460 233 499 194 499 C188 499 182 498 177 496 C166 493 163 492 158 492 C149 492 143 500 143 513 C143 567 191 610 256 615 L256 682 Z " />
<glyph glyph-name="quoteright" unicode="&#x2019;" horiz-adv-x="293" d="M51 307 C84 307 113 315 144 331 C210 368 246 436 246 526 C246 622 204 682 135 682 C80 682 43 641 43 580 C43 529 74 490 113 490 C121 490 123 490 138 496 C148 497 148 497 149 497 C157 497 163 488 163 476 C163 422 115 378 51 374 L51 307 Z " />
<glyph glyph-name="quotesinglbase" unicode="&#x201a;" horiz-adv-x="321" d="M65 -202 C180 -202 260 -113 260 16 C260 112 218 172 149 172 C94 172 57 130 57 70 C57 19 88 -20 127 -20 C135 -20 137 -20 152 -14 C162 -13 162 -13 163 -13 C171 -13 177 -22 177 -34 C177 -88 129 -131 65 -135 L65 -202 Z " />
<glyph glyph-name="quotedblleft" unicode="&#x201c;" horiz-adv-x="569" d="M250 682 C135 681 55 592 55 464 C55 367 97 307 166 307 C220 307 258 348 258 409 C258 460 227 499 188 499 C182 499 176 498 171 496 C160 493 157 492 152 492 C143 492 137 500 137 513 C137 567 185 610 250 615 L250 682 Z M503 682 C388 681 308 592 308 463 C308 367 350 307 419 307 C473 307 511 349 511 409 C511 460 480 499 441 499 C435 499 430 498 424 496 C414 493 411 492 405 492 C397 492 391 500 391 513 C391 567 439 610 503 615 L503 682 Z " />
<glyph glyph-name="quotedblright" unicode="&#x201d;" horiz-adv-x="569" d="M61 307 C94 307 123 315 154 331 C220 368 256 436 256 526 C256 622 214 682 145 682 C90 682 53 641 53 580 C53 529 84 490 123 490 C131 490 133 490 148 496 C158 497 158 497 159 497 C167 497 173 488 173 476 C173 422 125 378 61 374 L61 307 Z M318 307 C352 307 380 315 411 331 C477 368 513 436 513 526 C513 622 471 682 402 682 C347 682 310 641 310 580 C310 529 341 490 380 490 C389 490 390 490 406 496 C416 497 416 497 417 497 C425 497 431 488 431 475 C431 422 382 378 318 374 L318 307 Z " />
<glyph glyph-name="quotedblbase" unicode="&#x201e;" horiz-adv-x="569" d="M55 -203 C89 -203 117 -195 148 -178 C214 -142 250 -74 250 16 C250 112 208 172 139 172 C84 172 47 131 47 70 C47 20 77 -20 115 -20 C121 -20 127 -19 134 -17 C138 -15 141 -15 142 -14 L149 -14 C150 -14 150 -14 150 -13 C151 -12 152 -12 152 -12 C160 -12 167 -22 167 -34 C167 -88 119 -132 55 -136 L55 -203 Z M312 -203 C427 -203 507 -113 507 15 C507 112 465 172 396 172 C341 172 304 130 304 70 C304 20 334 -20 372 -20 C378 -20 384 -19 391 -17 C395 -15 398 -15 399 -15 C403 -14 406 -14 406 -14 C407 -14 407 -14 407 -13 C408 -12 409 -12 409 -12 C417 -12 424 -23 424 -35 C424 -88 376 -132 312 -136 L312 -203 Z " />
<glyph glyph-name="dagger" unicode="&#x2020;" horiz-adv-x="505" d="M294 -246 L294 -203 C296 -78 299 -7 307 71 C319 188 320 204 320 252 C320 308 316 330 299 357 C304 355 305 354 313 350 C359 326 401 312 427 312 C466 312 490 342 490 391 C490 440 466 470 426 470 C402 470 366 459 326 438 L311 430 C307 429 303 427 299 425 L294 423 C322 485 336 543 336 599 C336 648 305 682 260 682 C212 682 184 647 184 588 C184 542 202 471 227 423 C223 424 216 426 208 430 C143 462 113 473 90 473 C51 473 29 443 29 391 C29 344 54 312 90 312 C116 312 158 325 204 347 C215 353 220 355 227 357 C208 320 203 296 203 230 C203 205 204 197 208 164 C220 79 224 11 227 -145 L227 -246 L294 -246 Z " />
<glyph glyph-name="daggerdbl" unicode="&#x2021;" horiz-adv-x="529" d="M305 251 C306 266 311 292 315 304 C319 314 321 321 321 329 C321 347 312 372 298 395 C301 394 304 392 309 390 C315 388 320 385 325 383 L344 375 C397 352 410 348 435 348 C473 348 499 381 499 428 C499 481 473 513 430 513 C408 513 381 504 339 483 C317 472 310 469 298 464 C300 471 301 475 303 481 C307 490 310 500 313 508 C334 569 337 583 337 616 C337 657 311 681 269 681 C223 681 195 655 195 614 C195 586 203 552 216 520 C229 489 231 483 236 464 C231 466 227 468 218 472 C155 501 123 512 98 512 C59 512 33 480 33 431 C33 385 59 350 93 350 C116 350 147 358 181 374 C210 386 222 391 236 395 C221 370 212 346 212 332 C212 326 214 314 219 301 C224 282 227 268 229 251 L305 251 Z M229 181 C228 170 227 164 223 153 C213 122 212 119 212 110 C212 92 218 72 236 37 C233 39 231 39 223 42 C222 41 195 53 171 63 C143 76 115 83 92 83 C59 83 33 48 33 1 C33 -46 59 -81 96 -81 C123 -81 166 -67 213 -43 L227 -36 L236 -33 C233 -45 229 -57 225 -66 C202 -125 196 -147 196 -178 C196 -225 222 -249 270 -249 C311 -249 336 -225 336 -184 C336 -152 333 -138 313 -82 C309 -71 307 -63 304 -55 C301 -46 300 -45 298 -33 L321 -44 C390 -78 403 -82 431 -82 C472 -82 498 -50 498 2 C498 50 473 83 435 83 C414 83 388 76 361 64 C354 61 346 57 342 56 L325 49 C312 44 303 40 298 37 C313 64 321 89 321 111 C321 123 319 135 314 148 C308 164 306 170 305 181 L229 181 Z " />
<glyph glyph-name="bullet" unicode="&#x2022;" horiz-adv-x="600" d="M301 480 C231 480 176 418 176 340 C176 263 232 200 300 200 C368 200 423 263 423 340 C423 416 368 480 301 480 L301 480 Z " />
<glyph glyph-name="ellipsis" unicode="&#x2026;" horiz-adv-x="906" d="M149 178 C99 178 60 135 60 80 C60 26 100 -18 148 -18 C197 -18 236 26 236 80 C236 134 197 178 149 178 L149 178 Z M450 178 C399 178 360 135 360 80 C360 26 400 -18 449 -18 C497 -18 537 26 537 80 C537 134 497 178 450 178 L450 178 Z M749 178 C699 178 660 135 660 80 C660 26 700 -18 748 -18 C797 -18 836 26 836 80 C836 134 797 178 749 178 L749 178 Z " />
<glyph glyph-name="perthousand" unicode="&#x2030;" horiz-adv-x="1086" d="M182 680 C142 680 107 666 83 641 C52 608 33 557 33 505 C33 398 89 333 179 333 C271 333 329 401 329 507 C329 614 273 680 182 680 L182 680 Z M181 632 C199 632 208 592 208 507 C208 421 199 381 181 381 C161 381 154 414 154 508 C154 599 161 632 181 632 L181 632 Z M257 0 L566 675 L493 675 L184 0 L257 0 Z M570 335 C530 335 495 321 471 296 C440 263 421 211 421 159 C421 53 477 -13 567 -13 C659 -13 717 55 717 162 C717 269 661 335 570 335 L570 335 Z M569 287 C587 287 596 247 596 161 C596 75 587 35 569 35 C549 35 542 68 542 163 C542 254 549 287 569 287 L569 287 Z M908 335 C867 335 832 321 808 296 C777 263 758 212 758 159 C758 53 814 -13 904 -13 C996 -13 1054 55 1054 162 C1054 269 998 335 908 335 L908 335 Z M906 287 C924 287 933 247 933 161 C933 76 924 35 906 35 C886 35 879 68 879 163 C879 253 886 287 906 287 L906 287 Z " />
<glyph glyph-name="guilsinglleft" unicode="&#x2039;" horiz-adv-x="281" d="M19 217 L198 -6 L255 -6 L193 217 L254 440 L197 440 L19 217 Z " />
<glyph glyph-name="guilsinglright" unicode="&#x203a;" horiz-adv-x="281" d="M256 217 L78 440 L21 440 L82 217 L20 -6 L77 -6 L256 217 Z " />
<glyph glyph-name="uni203E" unicode="&#x203e;" horiz-adv-x="500" d="M0 847 L0 807 L500 807 L500 847 L0 847 Z " />
<glyph glyph-name="fraction" unicode="&#x2044;" horiz-adv-x="171" d="M-32 0 L277 675 L204 675 L-105 0 L-32 0 Z " />
<glyph glyph-name="franc" unicode="&#x20a3;" horiz-adv-x="870" d="M537 667 L24 667 L24 605 L33 605 C78 603 94 585 94 539 L94 127 C95 80 81 66 32 63 L27 63 L27 0 L361 0 L361 63 L352 63 C305 64 286 83 288 127 L288 313 L327 313 C366 311 374 299 379 237 L379 232 L436 232 L436 459 L379 459 L379 451 C374 397 364 383 328 382 L288 382 L288 599 L370 599 C433 600 454 579 483 488 L541 488 L537 667 Z M483 325 L475 324 L475 268 L478 268 C511 267 521 255 522 219 L522 105 C521 67 513 57 479 56 L477 56 L477 0 L744 0 L744 56 L738 56 C702 57 692 68 691 105 L691 116 C691 151 692 171 695 201 C699 241 711 257 737 257 C747 257 758 251 768 240 C791 214 798 210 817 210 C852 210 876 240 876 284 C876 333 847 367 805 367 C756 367 716 336 684 273 C683 315 679 341 670 367 C642 361 637 360 533 337 L483 325 Z " />
<glyph glyph-name="Euro" unicode="&#x20ac;" horiz-adv-x="712" d="M309 394 C312 443 316 477 323 498 C343 568 385 605 444 605 C499 605 542 574 573 514 C591 481 603 446 611 410 L667 410 L660 655 L604 655 C597 632 591 615 587 602 C531 657 478 679 406 679 C248 679 124 566 95 394 L54 394 L31 333 L90 333 L90 309 L54 309 L31 248 L98 248 C135 85 249 -14 401 -14 C477 -14 554 17 596 66 C606 51 613 31 620 3 L677 3 L677 258 L620 258 C614 232 600 188 588 161 C563 103 504 60 447 60 C388 60 341 98 323 159 C316 181 314 194 310 248 L453 248 L476 309 L307 309 L307 333 L485 333 L509 394 L309 394 Z " />
<glyph glyph-name="trademark" unicode="&#x2122;" horiz-adv-x="904" d="M350 561 L350 667 L12 667 L12 561 L31 561 C34 615 55 640 98 639 L113 639 L113 347 C113 316 107 308 83 306 L75 306 L75 287 L287 287 L287 306 L279 306 C254 308 249 316 249 347 L249 639 L264 639 C307 640 329 614 331 561 L350 561 Z M360 667 L360 648 C398 647 404 643 404 619 L404 348 C404 320 394 309 362 306 L362 287 L483 287 L483 306 C451 309 439 321 440 348 L440 598 L561 287 L580 287 L699 588 L699 348 C699 315 694 308 669 306 L658 306 L658 287 L870 287 L870 306 L859 306 C837 308 832 315 832 348 L832 606 C832 639 837 646 859 648 L872 648 L872 667 L697 667 L617 466 L537 667 L360 667 Z " />
<glyph glyph-name="uni2126" unicode="&#x2126;" horiz-adv-x="768" d="M326 0 L308 155 C230 199 180 288 180 382 C180 434 195 493 221 540 C257 605 317 642 385 642 C453 642 513 605 549 540 C575 493 590 434 590 382 C590 288 540 199 462 155 L444 0 L736 0 L736 153 L712 153 C704 108 684 90 643 90 L497 90 L500 128 C535 141 557 151 580 166 C657 215 702 296 702 382 C702 449 673 522 625 578 C564 648 480 686 385 686 C290 686 206 648 145 578 C97 522 68 449 68 382 C68 296 113 215 190 166 C213 151 235 141 270 128 L273 90 L127 90 C86 90 66 108 58 153 L34 153 L34 0 L326 0 Z " />
<glyph glyph-name="partialdiff" unicode="&#x2202;" horiz-adv-x="494" d="M107 674 C152 697 184 706 219 706 C321 706 379 611 379 448 C379 418 377 395 372 346 C308 396 272 412 221 412 C172 412 131 394 95 355 C51 309 26 246 26 184 C26 76 109 -10 213 -10 C282 -10 341 22 383 84 C429 152 462 286 462 403 C462 519 428 611 360 681 C312 730 259 753 195 753 C156 753 122 746 66 725 L107 674 Z M366 312 C350 201 339 158 314 107 C288 54 245 21 201 21 C146 21 113 73 113 159 C113 273 180 367 261 367 C299 367 324 354 366 312 L366 312 Z " />
<glyph glyph-name="Delta" unicode="&#x2206;" horiz-adv-x="612" d="M6 0 L608 0 L327 688 L6 0 Z M77 51 L290 509 L479 51 L77 51 Z " />
<glyph glyph-name="product" unicode="&#x220f;" horiz-adv-x="823" d="M25 -124 L315 -124 L315 -98 L312 -98 C242 -94 221 -67 224 18 L224 594 C224 656 228 677 242 690 C260 707 272 708 413 708 C556 708 568 707 586 690 C600 677 604 656 604 594 L604 18 C607 -67 586 -94 516 -98 L513 -98 L513 -124 L803 -124 L803 -98 L800 -98 C730 -94 709 -67 712 18 L712 609 C709 694 730 721 800 725 L803 725 L803 751 L25 751 L25 725 L28 725 C98 721 119 694 116 609 L116 18 C119 -67 98 -94 28 -98 L25 -98 L25 -124 Z " />
<glyph glyph-name="summation" unicode="&#x2211;" horiz-adv-x="713" d="M176 711 L444 711 C560 710 590 688 606 587 L632 587 L622 752 L23 752 L256 285 L14 -123 L641 -123 L695 87 L669 87 C639 7 605 -12 491 -11 L163 -11 L364 341 L176 711 Z " />
<glyph glyph-name="minus" unicode="&#x2212;" horiz-adv-x="450" d="M-3 427 L-3 326 L453 326 L453 427 L-3 427 Z " />
<glyph glyph-name="uni2215" unicode="&#x2215;" horiz-adv-x="171" d="M-32 0 L277 675 L204 675 L-105 0 L-32 0 Z " />
<glyph glyph-name="uni2219" unicode="&#x2219;" horiz-adv-x="269" d="M127 430 C79 430 39 386 39 333 C39 278 78 234 127 234 C176 234 215 278 215 332 C215 386 176 430 127 430 L127 430 Z " />
<glyph glyph-name="radical" unicode="&#x221a;" horiz-adv-x="549" d="M363 -35 L515 908 L480 913 L353 123 L156 520 L10 449 L26 414 L121 461 L363 -35 Z " />
<glyph glyph-name="infinity" unicode="&#x221e;" horiz-adv-x="713" d="M357 303 C300 375 234 414 171 414 C86 414 26 351 26 263 C26 176 84 115 167 115 C224 115 282 143 327 192 C335 201 340 207 357 228 C415 156 485 115 548 115 C631 115 688 176 688 266 C688 354 629 414 543 414 C476 414 412 376 357 303 L357 303 Z M391 265 C434 325 493 362 546 362 C600 362 638 321 638 264 C638 205 603 167 549 167 C495 167 461 188 391 265 L391 265 Z M324 266 C275 203 216 167 163 167 C111 167 76 207 76 266 C76 323 113 362 167 362 C218 362 259 337 324 266 L324 266 Z " />
<glyph glyph-name="integral" unicode="&#x222b;" horiz-adv-x="274" d="M180 576 C180 653 179 691 176 746 C174 774 173 800 173 815 C173 855 184 878 202 878 C208 878 213 876 215 872 C232 845 239 839 256 839 C276 839 291 853 291 871 C291 898 267 916 231 916 C186 916 152 887 138 838 C123 784 113 682 113 577 L113 232 C113 160 114 124 117 63 C119 34 120 4 120 -12 C120 -47 108 -70 89 -70 C81 -70 74 -65 68 -52 C59 -35 51 -30 37 -30 C17 -30 2 -44 2 -63 C2 -89 26 -107 62 -107 C107 -107 141 -78 155 -29 C170 25 180 126 180 232 L180 576 Z " />
<glyph glyph-name="approxequal" unicode="&#x2248;" horiz-adv-x="549" d="M489 251 C444 199 423 187 384 187 C365 187 354 190 285 211 C212 234 188 239 160 239 C101 239 54 211 14 155 L57 121 C103 174 120 184 159 184 C180 184 180 184 271 157 C350 133 354 132 385 132 C449 132 496 160 527 217 L489 251 Z M489 408 C443 356 424 344 384 344 C365 344 354 347 285 369 C212 392 188 397 160 397 C101 397 54 369 14 312 L57 279 C104 332 119 342 159 342 C181 342 181 342 271 315 C351 290 354 289 385 289 C449 289 496 318 527 375 L489 408 Z " />
<glyph glyph-name="notequal" unicode="&#x2260;" horiz-adv-x="549" d="M187 142 L115 -1 L161 -25 L246 142 L540 142 L540 197 L273 197 L344 336 L540 336 L540 391 L371 391 L439 525 L392 549 L312 391 L15 391 L15 336 L285 336 L215 197 L15 197 L15 142 L187 142 Z " />
<glyph glyph-name="lessequal" unicode="&#x2264;" horiz-adv-x="549" d="M526 55 L29 55 L29 0 L526 0 L526 55 Z M526 639 L29 405 L29 350 L526 117 L526 179 L108 378 L526 577 L526 639 Z " />
<glyph glyph-name="greaterequal" unicode="&#x2265;" horiz-adv-x="549" d="M526 55 L29 55 L29 0 L526 0 L526 55 Z M29 639 L29 577 L447 378 L29 179 L29 117 L526 350 L526 405 L29 639 Z " />
<glyph glyph-name="lozenge" unicode="&#x25ca;" horiz-adv-x="494" d="M209 0 L269 -1 L466 374 L277 740 L214 740 L18 377 L209 0 Z M240 58 L81 376 L245 683 L402 373 L240 58 Z " />
<glyph glyph-name="fi" unicode="&#xfb01;" horiz-adv-x="623" d="M16 342 L83 342 L83 111 C82 70 72 61 25 59 L13 59 L13 0 L304 0 L304 59 L302 59 C261 61 247 74 246 111 L246 342 L320 342 C364 340 371 333 374 291 L374 111 C373 71 364 60 332 59 L329 59 L329 0 L617 0 L617 59 L606 59 C567 61 556 73 555 111 L555 414 L551 414 C517 407 426 402 359 403 L246 403 L246 495 C246 556 247 565 257 587 C266 605 287 615 314 615 C352 615 369 601 383 558 C398 510 418 491 453 491 C497 491 535 528 535 571 C535 599 517 628 489 647 C457 668 403 679 333 679 C246 679 187 660 143 619 C101 578 83 524 83 434 L83 403 L16 403 L16 342 Z " />
<glyph glyph-name="fl" unicode="&#xfb02;" horiz-adv-x="623" d="M85 403 L18 403 L18 342 L85 342 L85 111 C84 70 74 61 27 60 L15 60 L15 0 L306 0 L306 60 L304 60 C262 61 249 74 248 111 L248 342 L373 342 L373 111 C372 73 363 61 332 60 L330 60 L330 0 L617 0 L617 60 L606 60 C566 61 555 73 554 111 L554 679 L549 679 C483 668 463 666 437 665 C402 676 373 680 334 680 C242 680 174 657 135 610 C100 571 85 512 85 418 L85 403 Z M248 403 L248 508 C248 588 264 615 311 615 C341 615 361 597 373 560 L373 403 L248 403 Z " />
</font>
</svg>
