<?xml version="1.0" standalone="no"?>
<!DOCTYPE svg PUBLIC "-//W3C//DTD SVG 1.1//EN" "http://www.w3.org/Graphics/SVG/1.1/DTD/svg11.dtd" >
<svg xmlns="http://www.w3.org/2000/svg">
<metadata>
Created by FontPrep 20130207 at Tue Jul 25 16:15:01 2017
 By Louise Stroud
Copyright (c) 2017 by Emil Bertell. All rights reserved.
</metadata>
<defs>
<font id="7f13147e7b83f492601d06410cbbee36" horiz-adv-x='1024' >
  <font-face 
    font-family="Karu-Medium"
    font-weight="500"
    font-stretch="normal"
    units-per-em="2048"
    panose-1="0 0 6 0 0 0 0 0 0 0"
    ascent="1638"
    descent="-410"
    x-height="977"
    cap-height="1425"
    bbox="-987 -702 2451 2138"
    underline-thickness="102"
    underline-position="-102"
    unicode-range="U+0020-FB02"
  />
<missing-glyph horiz-adv-x="1015" 
d="M676 -135h-336v-68h141l-141 -94v-68h336v68h-207l143 94h64v68zM610 74v-94h-204v94h204zM676 141h-336v-229h336v229zM676 494h-203v-115h70v47h67v-96h-204v164h-66v-232h336v232zM676 741h-66v-135h-270v-69h336v204zM676 862h-336v-67h133v-74h-133v-68h203v142h133
v67zM473 1059v-72h-67v72h67zM543 1128h-203v-210h336v69h-133v141zM676 1391h-334v-68h131v-74h-133v-67h336v67h-133v74h133v68zM834 1528v-2034h-646v2034h646z" />
    <glyph glyph-name="fi" unicode="fi" horiz-adv-x="1148" 
d="M772 977h246v-977h-246v977zM426 1106v-129h227v-189h-227v-788h-246v788h-129v189h129v145q0 228 106 332t302 104q197 0 319 -75l-76 -197q-88 61 -213 62q-192 0 -192 -242z" />
    <glyph glyph-name="fl" unicode="fl" horiz-adv-x="1120" 
d="M180 1135q0 227 108 325t338 99q232 0 386 -82v-1477h-246v1333q-61 15 -146 15q-86 0 -140 -52t-54 -161v-158h227v-189h-227v-788h-246v788h-129v189h129v158z" />
    <glyph glyph-name="f_b" unicode="fb" horiz-adv-x="1810" 
d="M1264 190q104 0 177 74t73 224t-70 225t-164 75q-188 -1 -268 -190v-217q46 -121 145 -168q50 -23 107 -23zM1343 1008q167 0 291 -126q123 -126 123 -397q0 -131 -37 -233t-99 -162q-126 -123 -298 -123q-209 0 -311 170v-137h-246v1331q-59 17 -147 17q-89 0 -141 -54
t-52 -178v-139h227v-189h-227v-788h-246v788h-129v189h129v139q0 242 116 342t344 100t372 -77v-641q118 168 331 168z" />
    <glyph glyph-name="f_f_i" unicode="ffi" horiz-adv-x="1816" 
 />
    <glyph glyph-name="f_f_l" unicode="ffl" horiz-adv-x="1777" 
d="M838 1135q0 227 108 325t338 99q232 0 385 -82v-1477h-246v1333q-61 15 -146 15t-139 -52t-55 -161v-158h228v-189h-228v-788h-245v788h-129v189h129v158zM180 1208q0 351 330 351q164 0 283 -84l-68 -183q-66 55 -170 56q-129 0 -129 -170v-201h227v-189h-227v-788h-246
v788h-129v189h129v231z" />
    <glyph glyph-name="f_h" unicode="fh" horiz-adv-x="1744" 
d="M1642 0h-245v580q0 108 -48 158t-124 50q-141 0 -213 -161v-627h-246v1327q-61 20 -133 21q-207 0 -207 -226v-145h227v-189h-227v-788h-246v788h-129v189h129v156q0 229 109 327t339 98t384 -83v-650q98 185 304 185t286 -160q41 -82 40 -201v-649z" />
    <glyph glyph-name="f_k" unicode="fk" horiz-adv-x="1693" 
d="M1012 0h-246v1327q-66 20 -139 21q-201 0 -201 -218v-153h227v-189h-227v-788h-246v788h-129v189h129v162q0 227 104 323t318 97q114 0 228 -23t182 -57v-938l364 436h291l-307 -344l328 -633h-293l-219 428l-164 -182v-246z" />
    <glyph glyph-name=".notdef" horiz-adv-x="1015" 
d="M676 -135h-336v-68h141l-141 -94v-68h336v68h-207l143 94h64v68zM610 74v-94h-204v94h204zM676 141h-336v-229h336v229zM676 494h-203v-115h70v47h67v-96h-204v164h-66v-232h336v232zM676 741h-66v-135h-270v-69h336v204zM676 862h-336v-67h133v-74h-133v-68h203v142h133
v67zM473 1059v-72h-67v72h67zM543 1128h-203v-210h336v69h-133v141zM676 1391h-334v-68h131v-74h-133v-67h336v67h-133v74h133v68zM834 1528v-2034h-646v2034h646z" />
    <glyph glyph-name=".null" 
 />
    <glyph glyph-name="nonmarkingreturn" horiz-adv-x="681" 
 />
    <glyph glyph-name="space" unicode=" " horiz-adv-x="382" 
 />
    <glyph glyph-name="exclam" unicode="!" horiz-adv-x="610" 
d="M143 129q0 68 47 116t115 48t115 -48t47 -116t-47 -115t-116 -47t-115 47t-46 115zM436 1425l-14 -1015h-236l-16 1015h266z" />
    <glyph glyph-name="quotedbl" unicode="&#x22;" horiz-adv-x="765" 
d="M684 1528l-53 -584h-182l-21 584h256zM338 1528l-21 -584h-182l-51 584h254z" />
    <glyph glyph-name="numbersign" unicode="#" horiz-adv-x="1280" 
d="M741 563l76 344h-303l-74 -344h301zM1249 907h-196l-74 -344h172v-209h-217l-78 -354h-235l75 354h-301l-76 -354h-237l78 354h-129v209h174l74 344h-152v209h197l67 309h236l-66 -309h301l66 309h237l-67 -309h151v-209z" />
    <glyph glyph-name="dollar" unicode="$" horiz-adv-x="1026" 
d="M973 420q0 -158 -85 -257t-233 -132v-176h-225v161q-207 18 -385 134l64 231q178 -133 376 -133q111 0 173 42t62 122t-56 120q-57 40 -191 80q-197 58 -291 160t-94 261t89 256t255 120v152h225v-152q162 -23 295 -96l-88 -217q-156 96 -321 96q-93 0 -145 -37t-52 -111
t53 -118q53 -45 157 -77t166 -62q62 -29 124 -77q126 -96 127 -290z" />
    <glyph glyph-name="percent" unicode="%" horiz-adv-x="1691" 
d="M1128 331q0 -92 48 -146t130 -54q81 0 129 54t48 126q1 72 -23 105q-63 88 -155 88q-51 0 -93 -27q-84 -54 -84 -146zM1305 -33q-154 0 -248 98t-94 251t94 250t248 98q102 0 181 -46t122 -124t43 -178t-43 -179q-43 -80 -122 -125t-181 -45zM563 1096q0 125 -83 175
q-42 25 -94 25t-93 -26q-86 -54 -84 -160q0 -78 48 -131t129 -53t129 53t48 117zM1255 1425l-563 -1425h-248l564 1425h247zM43 1109q0 153 94 251t248 98t250 -98t96 -250q0 -100 -43 -179t-122 -125t-181 -46q-154 0 -248 98t-94 251z" />
    <glyph glyph-name="ampersand" unicode="&#x26;" horiz-adv-x="1298" 
d="M301 355q1 -81 63 -130t181 -49t225 53l-307 351q-84 -40 -123 -92t-39 -133zM599 1247q-89 0 -139 -46t-50 -120q0 -123 143 -280l8 -10q227 106 227 274q0 82 -50 132t-139 50zM519 -33q-228 0 -342 92t-114 263q0 262 291 380q-55 70 -90 124q-82 127 -82 280
q0 154 109 253t304 98t303 -92t108 -262t-110 -277t-228 -154l268 -303q90 131 90 327h219q0 -301 -162 -493l181 -203h-293l-56 63q-168 -96 -396 -96z" />
    <glyph glyph-name="quotesingle" unicode="'" horiz-adv-x="421" 
d="M338 1528l-37 -584h-182l-35 584h254z" />
    <glyph glyph-name="parenleft" unicode="(" horiz-adv-x="589" 
d="M328 645q0 -590 231 -977l-197 -112q-130 194 -208 482t-78 607t78 607q77 288 208 483l197 -113q-231 -387 -231 -977z" />
    <glyph glyph-name="parenright" unicode=")" horiz-adv-x="593" 
d="M227 1745q287 -424 287 -1151q0 -268 -78 -556t-209 -482l-198 112q233 387 233 982t-233 982z" />
    <glyph glyph-name="asterisk" unicode="*" horiz-adv-x="919" 
d="M858 1167l-285 -71l209 -248l-176 -103l-137 302l-135 -302l-176 103l207 246l-297 73l73 189l267 -152l-50 314h205l-41 -312l264 150z" />
    <glyph glyph-name="plus" unicode="+" horiz-adv-x="1116" 
d="M1012 795v-217h-342v-371h-224v371h-342v217h342v356h224v-356h342z" />
    <glyph glyph-name="comma" unicode="," horiz-adv-x="512" 
d="M259 287q73 -1 119 -61t46 -173q0 -168 -80 -306t-215 -200l-84 123q184 102 219 297q-10 -2 -20 -2q-61 0 -105 43q-43 43 -43 116t45 118t118 45z" />
    <glyph glyph-name="hyphen" unicode="-" horiz-adv-x="823" 
d="M66 461v209h692v-209h-692z" />
    <glyph glyph-name="period" unicode="." horiz-adv-x="532" 
d="M98 129q0 68 47 116t116 48t115 -48q46 -49 46 -105q0 -105 -80 -151q-38 -22 -94 -22t-103 47t-47 115z" />
    <glyph glyph-name="slash" unicode="/" horiz-adv-x="985" 
d="M940 1661l-647 -1890h-248l647 1890h248z" />
    <glyph glyph-name="zero" unicode="0" horiz-adv-x="1343" 
d="M676 215q158 0 244 131t86 368t-85 367q-85 131 -244 130t-249 -129t-90 -366t90 -369q90 -132 248 -132zM1276 716q0 -353 -156 -551t-443 -198q-286 0 -448 200q-161 200 -161 548t166 545q168 196 444 196t437 -194t161 -546z" />
    <glyph glyph-name="one" unicode="1" horiz-adv-x="585" 
d="M432 1425v-1425h-258v1202h-119v223h377z" />
    <glyph glyph-name="two" unicode="2" horiz-adv-x="1093" 
d="M1065 229v-229h-977v211l266 252q164 155 247 279t83 239t-62 173t-163 58q-164 0 -334 -137l-125 193q219 188 502 188q202 0 328 -112t126 -306q0 -196 -96 -351t-270 -312l-160 -146h635z" />
    <glyph glyph-name="three" unicode="3" horiz-adv-x="1089" 
d="M516 213q112 0 182 52t70 160t-78 160t-198 52h-109l2 176h100q109 0 182 57q73 58 73 156t-61 144q-60 46 -161 47q-186 0 -340 -130l-112 187q203 184 512 184q178 0 306 -89t128 -282q0 -129 -64 -219t-174 -133q121 -41 196 -132t74 -230q0 -203 -138 -304t-365 -102
q-293 0 -504 183l123 204q88 -76 166 -108t190 -33z" />
    <glyph glyph-name="four" unicode="4" horiz-adv-x="1200" 
d="M727 485v693l-397 -693h397zM1182 485v-223h-205v-262h-250v262h-666v219l578 951h338v-947h205z" />
    <glyph glyph-name="five" unicode="5" horiz-adv-x="1107" 
d="M624 872q130 0 218 -42t141 -138t53 -229q0 -368 -316 -467q-92 -29 -224 -29t-256 50t-209 126l108 215q152 -145 348 -145q117 0 196 65q79 64 79 180t-57 169t-152 53q-143 0 -227 -111l-187 64v792h803v-233h-559v-391q111 71 241 71z" />
    <glyph glyph-name="six" unicode="6" horiz-adv-x="1226" 
d="M684 686q-96 0 -160 -29t-99 -82q-36 -53 -36 -139t72 -157q73 -72 187 -72q114 -1 188 67t74 182t-65 172t-161 58zM719 1217q-225 0 -315 -220q-46 -113 -46 -272v-39q106 193 379 193q197 0 316 -109q119 -108 119 -320t-141 -348q-140 -136 -397 -135
q-258 -1 -402 185t-144 544q0 240 76 412t215 261t328 89q244 0 411 -153l-139 -199q-113 111 -260 111z" />
    <glyph glyph-name="seven" unicode="7" horiz-adv-x="989" 
d="M23 1423h925l-422 -1423h-282l379 1192h-600v231z" />
    <glyph glyph-name="eight" unicode="8" horiz-adv-x="1224" 
d="M342 423q0 -101 72 -157t198 -57q126 0 199 56q72 57 72 157t-74 154t-198 55q-125 1 -197 -53t-72 -155zM846 1018q0 96 -62 149t-154 53q-165 1 -222 -93q-29 -46 -29 -109q0 -98 64 -158q65 -59 168 -59q103 1 169 61t66 156zM82 371q0 267 248 354q-92 47 -147 134
q-54 87 -54 212q0 175 122 281q121 106 361 106t362 -106t122 -281q0 -123 -54 -211t-147 -135q119 -43 183 -133t65 -221q0 -203 -139 -303q-140 -100 -392 -100t-391 100t-139 303z" />
    <glyph glyph-name="nine" unicode="9" horiz-adv-x="1230" 
d="M373 975q1 -113 65 -171t170 -59q106 0 184 65t78 166t-67 172q-68 71 -179 71t-181 -65q-70 -66 -70 -179zM518 209q184 0 284 119q99 119 99 354q0 31 -2 59q-109 -188 -364 -188q-188 0 -306 109q-117 110 -117 322t136 343t384 131t394 -187t146 -550t-158 -559
t-448 -195q-290 0 -482 174l127 209q123 -141 307 -141z" />
    <glyph glyph-name="colon" unicode=":" horiz-adv-x="641" 
d="M98 135q0 68 47 116t116 48t115 -48t46 -116t-46 -115t-115 -47t-116 47t-47 115zM98 844q0 68 47 116t116 48t115 -48t46 -116t-46 -115t-115 -47t-116 47t-47 115z" />
    <glyph glyph-name="semicolon" unicode=";" horiz-adv-x="602" 
d="M259 287q73 -1 119 -61t46 -173q0 -168 -80 -306t-215 -200l-84 123q184 102 219 297q-10 -2 -20 -2q-61 0 -105 43q-43 43 -43 116t45 118t118 45zM257 682q-69 0 -116 47t-47 115t47 116t116 48t115 -48t46 -116t-46 -115t-115 -47z" />
    <glyph glyph-name="less" unicode="&#x3c;" horiz-adv-x="970" 
d="M864 1153v-242l-622 -241l622 -250v-242l-823 365v256z" />
    <glyph glyph-name="equal" unicode="=" horiz-adv-x="1122" 
d="M104 537h914v-215h-914v215zM104 999h914v-217h-914v217z" />
    <glyph glyph-name="greater" unicode="&#x3e;" horiz-adv-x="970" 
d="M106 1153l822 -354v-256l-822 -365v242l621 250l-621 241v242z" />
    <glyph glyph-name="question" unicode="?" horiz-adv-x="1028" 
d="M474 293q69 0 116 -48q47 -49 47 -105q0 -105 -80 -151q-37 -22 -95 -22t-103 47q-46 47 -46 115t46 116t115 48zM490 1456q116 0 189 -22q265 -78 265 -375q0 -167 -92 -273t-250 -135l-6 -213h-234l-8 344h49q129 0 204 64t75 168q0 106 -62 157t-159 52
q-162 0 -297 -129l-119 176q84 80 206 133q123 53 239 53z" />
    <glyph glyph-name="at" unicode="@" horiz-adv-x="1867" 
d="M924 289q62 0 119 42q56 42 77 122v155q-36 180 -200 182q-78 0 -132 -65q-54 -66 -55 -167q0 -181 89 -243q40 -26 102 -26zM1319 940v-491q0 -186 104 -187q154 0 154 334q0 402 -255 567q-153 99 -359 99q-270 0 -461 -191q-92 -92 -146 -238t-55 -309q0 -163 40 -286
q85 -261 325 -363q128 -53 286 -53t274 26t236 84l43 -155q-242 -119 -549 -119q-373 -2 -600 221t-227 629q0 213 67 388q129 336 448 466q151 61 316 61q334 0 553 -193q111 -97 173 -260t63 -370q0 -207 -77 -345q-85 -155 -271 -155q-92 0 -159 43t-97 123
q-102 -158 -287 -157q-145 0 -236 106q-92 105 -92 319t96 324t259 109q162 0 243 -150l17 123h174z" />
    <glyph glyph-name="A" unicode="A" horiz-adv-x="1261" 
d="M426 514h381l-199 639zM965 0l-95 305h-503l-86 -305h-254l438 1425h301l471 -1425h-272z" />
    <glyph glyph-name="B" unicode="B" horiz-adv-x="1294" 
d="M743 227q106 -1 171 57t65 164q0 202 -238 201h-319v-422h321zM907 1020q0 178 -217 178h-268v-383h274q90 0 151 54q60 55 60 151zM1237 422q0 -198 -125 -310t-364 -112h-584v1425h581q199 0 307 -87t107 -261q0 -216 -194 -315q127 -27 199 -114t73 -226z" />
    <glyph glyph-name="C" unicode="C" horiz-adv-x="1357" 
d="M718 -33q-198 0 -346.5 88t-229.5 257t-81 401q0 342 202 542.5t514 200.5t521 -190l-141 -213q-147 154 -375 153q-129 0 -230 -58t-160.5 -170t-59.5 -261q0 -233 113.5 -364.5t306.5 -131.5q283 0 440 219l123 -221q-92 -119 -245.5 -185.5t-351.5 -66.5z" />
    <glyph glyph-name="D" unicode="D" horiz-adv-x="1429" 
d="M592 1194h-170v-963h170q231 0 358 135.5t129 366.5q1 305 -221 410q-108 51 -266 51zM612 1425q344 0 542 -172t198 -522t-201 -540.5t-539 -190.5h-448v1425h448z" />
    <glyph glyph-name="E" unicode="E" horiz-adv-x="1179" 
d="M1100 1194h-688v-348h536v-209h-536v-406h688v-231h-946v1425h946v-231z" />
    <glyph glyph-name="F" unicode="F" horiz-adv-x="1146" 
d="M1096 1192h-674v-363h522v-213h-522v-616h-258v1425h932v-233z" />
    <glyph glyph-name="G" unicode="G" horiz-adv-x="1396" 
d="M705 815h598v-745q-281 -102 -577 -102t-481.5 196t-185.5 544t195 548q194 200 518 200t524 -196l-157 -191q-145 139 -357 139t-334 -135t-122 -363t116.5 -361.5t319.5 -133.5q162 0 282 51v340h-339v209z" />
    <glyph glyph-name="H" unicode="H" horiz-adv-x="1423" 
d="M1012 1425h258v-1425h-258v618h-600v-618h-258v1425h258v-571h600v571z" />
    <glyph glyph-name="I" unicode="I" horiz-adv-x="565" 
d="M412 1425v-1425h-258v1425h258z" />
    <glyph glyph-name="J" unicode="J" horiz-adv-x="933" 
d="M324 201q108 0 170.5 69.5t62.5 249.5v905h258v-882q0 -323 -134.5 -449.5t-336.5 -126.5q-106 0 -198.5 39t-151.5 98l69 248q50 -86 151 -128q54 -22 110 -23z" />
    <glyph glyph-name="K" unicode="K" horiz-adv-x="1282" 
d="M422 0h-258v1425h258v-632l508 632h301l-432 -526l454 -899h-305l-336 672l-190 -234v-438z" />
    <glyph glyph-name="L" unicode="L" horiz-adv-x="997" 
d="M154 1425h258v-1194h567v-231h-825v1425z" />
    <glyph glyph-name="M" unicode="M" horiz-adv-x="1720" 
d="M1317 0v973l-363 -883h-196l-365 889v-979h-239v1425h303l411 -948l392 948h294l13 -1425h-250z" />
    <glyph glyph-name="N" unicode="N" horiz-adv-x="1392" 
d="M999 1425h240v-1425h-246l-600 946v-946h-239v1425h241l604 -960v960z" />
    <glyph glyph-name="O" unicode="O" horiz-adv-x="1536" 
d="M769 217q198 0 317.5 135t119.5 363.5t-120.5 360.5t-317.5 132t-317.5 -132t-120.5 -359t120.5 -363.5t318.5 -136.5zM768 -33q-319 0 -514 202t-195 546t200 542.5t509 198.5q201 0 360.5 -85t254 -254t94.5 -398q0 -350 -195 -551t-514 -201z" />
    <glyph glyph-name="P" unicode="P" horiz-adv-x="1222" 
d="M688 762q113 0 175 58q63 58 63 162q1 209 -238 210h-266v-430h266zM711 1425q233 -1 359 -109t126 -331t-127 -336t-356 -112h-291v-537h-258v1425h547z" />
    <glyph glyph-name="Q" unicode="Q" horiz-adv-x="1536" 
d="M1337 -352h-764v205h764v-205zM769 217q198 0 317.5 135t119.5 363.5t-120.5 360.5t-317.5 132t-317.5 -132t-120.5 -359t120.5 -363.5t318.5 -136.5zM768 -33q-319 0 -514 202t-195 546t200 542.5t509 198.5q201 0 360.5 -85t254 -254t94.5 -398q0 -350 -195 -551
t-514 -201z" />
    <glyph glyph-name="R" unicode="R" horiz-adv-x="1331" 
d="M422 1192v-420h289q141 0 197 96q28 50 28 135.5t-61.5 137t-163.5 51.5h-289zM422 563v-563h-258v1425h571q223 0 347 -107.5t124 -316.5q0 -154 -76.5 -262t-216.5 -151l342 -588h-305l-303 563h-225z" />
    <glyph glyph-name="S" unicode="S" horiz-adv-x="1062" 
d="M879 1110q-143 111 -338 111t-195 -161q0 -81 55.5 -127t151.5 -75q95 -30 151 -52q143 -58 221.5 -151.5t78.5 -251.5q0 -217 -135.5 -326.5t-383 -109.5t-444.5 131l90 236q152 -127 365 -127q152 0 214 83q32 42 31 95q0 101 -67.5 141.5t-181.5 75.5
q-203 59 -305.5 165.5t-102.5 288t117.5 291t356.5 109.5t439 -125z" />
    <glyph glyph-name="T" unicode="T" horiz-adv-x="1040" 
d="M1036 1425v-237h-377v-1188h-258v1188h-376v237h1011z" />
    <glyph glyph-name="U" unicode="U" horiz-adv-x="1368" 
d="M686 -33q-258 0 -409.5 164t-151.5 457v837h258v-852q0 -166 82 -262t221 -96t219 96.5t80 261.5v852h258v-837q0 -297 -149.5 -459t-407.5 -162z" />
    <glyph glyph-name="V" unicode="V" horiz-adv-x="1341" 
d="M1036 1425h264l-493 -1425h-301l-453 1425h275l282 -931q45 -193 56 -242q25 104 65 260z" />
    <glyph glyph-name="W" unicode="W" horiz-adv-x="1892" 
d="M1591 1425h262l-344 -1425h-299l-211 762q-25 96 -59 252q-39 -164 -63 -252l-232 -762h-299l-309 1425h278l170 -929q25 -186 25 -195q25 121 45 193l274 919h246l246 -899q25 -100 43 -203q31 190 33 201z" />
    <glyph glyph-name="X" unicode="X" horiz-adv-x="1251" 
d="M1212 0h-282l-309 588l-297 -588h-285l414 745l-394 680h281l291 -538l282 538h279l-389 -677z" />
    <glyph glyph-name="Y" unicode="Y" horiz-adv-x="1181" 
d="M721 0h-258v528l-445 897h283l293 -651l291 651h278l-442 -882v-543z" />
    <glyph glyph-name="Z" unicode="Z" horiz-adv-x="1095" 
d="M1067 229v-229h-999v215l618 977h-647v233h973v-217l-637 -979h692z" />
    <glyph glyph-name="bracketleft" unicode="[" horiz-adv-x="542" 
d="M496 1501h-156v-1716h156v-195h-402v2106h402v-195z" />
    <glyph glyph-name="backslash" unicode="\" horiz-adv-x="944" 
d="M940 -229h-248l-647 1890h248z" />
    <glyph glyph-name="bracketright" unicode="]" horiz-adv-x="542" 
d="M47 1696h402v-2106h-402v195h156v1716h-156v195z" />
    <glyph glyph-name="asciicircum" unicode="^" horiz-adv-x="1101" 
d="M1038 705h-241l-242 622l-250 -622h-242l365 823h256z" />
    <glyph glyph-name="underscore" unicode="_" horiz-adv-x="1003" 
d="M66 -221v174h872v-174h-872z" />
    <glyph glyph-name="grave" unicode="`" horiz-adv-x="1228" 
d="M471 1128h-170l-260 443h248z" />
    <glyph glyph-name="a" unicode="a" horiz-adv-x="1011" 
d="M446 135q76 0 133.5 38t88.5 101v91q-94 72 -219 71q-74 0 -122 -40t-48 -110.5t45.5 -110.5t121.5 -40zM504 1008q401 0 401 -416v-592h-237v104q-113 -137 -308 -137q-139 0 -226 79t-87 234t98.5 236.5t250 81.5t272.5 -78v51q0 227 -215 228q-156 0 -275 -74l-84 172
q166 111 410 111z" />
    <glyph glyph-name="b" unicode="b" horiz-adv-x="1153" 
d="M614 190q96 0 169 74t73 224t-70 225t-164 75q-186 -1 -268 -190v-217q73 -191 260 -191zM686 1008q170 0 292 -126t122 -397q0 -131 -37 -233q-67 -185 -238 -254q-76 -31 -159 -31q-209 0 -312 170v-137h-245v1528h245v-688q119 168 332 168z" />
    <glyph glyph-name="c" unicode="c" horiz-adv-x="956" 
d="M520 -33q-209 0 -338 136.5t-129 382.5t140 384t355.5 138t366.5 -142l-149 -166q-86 88 -226 88t-210 -136q-35 -68 -35 -160q0 -145 69.5 -222t194.5 -77t223 106l140 -166q-85 -101 -241 -145q-77 -22 -161 -21z" />
    <glyph glyph-name="d" unicode="d" horiz-adv-x="1153" 
d="M532 188q192 0 269 183v250q-33 84 -99 128q-64 44 -132 44q-118 0 -195.5 -73t-77.5 -228t69 -229.5t166 -74.5zM801 1528h246v-1528h-246v137q-123 -170 -332 -170q-178 0 -297 131t-119 389q0 133 37 235q36 104 98 164q125 123 299 122q207 0 314 -162v682z" />
    <glyph glyph-name="e" unicode="e" horiz-adv-x="1013" 
d="M524 817q-113 -1 -178 -103q-35 -56 -47 -132h426q-23 235 -201 235zM965 510v-86h-668q29 -242 266 -242q170 0 320 90l82 -180q-174 -125 -417.5 -125t-369 136.5t-125.5 378t133 384t346 142.5q266 0 376 -220q56 -114 57 -278z" />
    <glyph glyph-name="f" unicode="f" horiz-adv-x="657" 
d="M180 1208q0 351 330 351q164 0 283 -84l-68 -183q-66 56 -170 56q-129 0 -129 -170v-201h227v-189h-227v-788h-246v788h-129v189h129v231z" />
    <glyph glyph-name="g" unicode="g" horiz-adv-x="950" 
d="M469 -346q121 0 192.5 38t71.5 104q0 128 -147 128h-250q-109 -33 -109 -131q0 -139 242 -139zM460 829q-85 0 -140.5 -49t-55.5 -139t55.5 -138t139.5 -48q140 0 180 103q14 36 14 83q0 90 -54 139t-139 49zM606 117q160 0 253 -77t93 -222q0 -178 -130 -266.5
t-353 -88.5q-451 0 -451 291q0 139 121 215q-100 68 -100 197q0 63 32.5 121.5t90.5 95.5q-96 100 -96 266t105 262.5t278 96.5q102 0 184 -31h295v-180h-105q29 -70 29 -154q0 -172 -112.5 -272.5t-290.5 -100.5q-90 0 -164 31q-49 -41 -49 -92q0 -92 102 -92h268z" />
    <glyph glyph-name="h" unicode="h" horiz-adv-x="1087" 
d="M666 1010q147 0 233 -91.5t86 -269.5v-649h-246v580q0 109 -48 158.5t-124 49.5q-141 0 -213 -161v-627h-245v1528h245v-703q99 185 312 185z" />
    <glyph glyph-name="i" unicode="i" horiz-adv-x="501" 
d="M129 0v977h246v-977h-246zM401 1296q0 -76 -73 -118q-35 -20 -86 -21q-51 0 -97 44q-45 43 -45 107t45 108t107 44t106 -44q43 -44 43 -120z" />
    <glyph glyph-name="j" unicode="j" horiz-adv-x="512" 
d="M127 -133v1110h246v-1110q0 -197 -82 -295t-266 -119l-68 207q170 12 170 207zM113 1328q0 62 44 108t106 45q63 0 107 -45t44 -107t-42 -106q-42 -45 -107 -45q-64 0 -108 44t-44 106z" />
    <glyph glyph-name="k" unicode="k" horiz-adv-x="1036" 
d="M354 0h-245v1528h245v-987l365 436h291l-308 -344l330 -633h-295l-219 428l-164 -182v-246z" />
    <glyph glyph-name="l" unicode="l" horiz-adv-x="462" 
d="M354 1528v-1528h-245v1528h245z" />
    <glyph glyph-name="m" unicode="m" horiz-adv-x="1665" 
d="M1563 649v-649h-246v584q0 151 -97 191q-28 11 -61 11q-137 0 -196 -165v-621h-246v584q0 104 -46 153t-120 49q-127 0 -193 -157v-629h-245v977h245v-150q92 180 297 181q109 0 185 -56t104 -164q94 220 313 220q143 0 225 -90t81 -269z" />
    <glyph glyph-name="n" unicode="n" horiz-adv-x="1095" 
d="M674 1008q145 0 231 -91.5t86 -267.5v-649h-246v578q0 109 -47 158.5t-123 49.5q-145 0 -217 -159v-627h-245v977h245v-154q101 185 316 185z" />
    <glyph glyph-name="o" unicode="o" horiz-adv-x="1114" 
d="M557 195q113 0 187.5 76.5t74.5 218t-74.5 219t-188.5 76.5t-187.5 -75.5t-73.5 -220t74.5 -220t187.5 -74.5zM557 -33q-225 0 -365.5 139.5t-140.5 381.5t140.5 381t365.5 139t365.5 -138.5t140.5 -381.5t-140.5 -382t-365.5 -139z" />
    <glyph glyph-name="p" unicode="p" horiz-adv-x="1155" 
d="M608 193q104 1 176 75t72 219q0 214 -151 279q-43 18 -93 18q-186 0 -258 -202v-174q41 -135 141 -189q50 -26 113 -26zM1007 848q93 -133 93 -356t-86 -350q-121 -172 -339 -173q-218 -2 -321 168v-639h-245v1479h245v-182q115 213 328 213t325 -160z" />
    <glyph glyph-name="q" unicode="q" horiz-adv-x="1150" 
d="M297 489q0 -153 69 -227t166 -74q192 0 269 183v250q-68 169 -248 172q-106 0 -181 -76t-75 -228zM801 977h246v-1483h-246v643q-125 -170 -332 -170q-178 0 -297 131t-119 389q0 133 37 235q68 187 237 255q77 31 162 31q205 0 312 -162v131z" />
    <glyph glyph-name="r" unicode="r" horiz-adv-x="720" 
d="M639 1006q39 0 68 -11l-2 -219q-135 23 -225.5 -53t-121.5 -236v-487h-245v977h245v-236q35 119 109 192t172 73z" />
    <glyph glyph-name="s" unicode="s" horiz-adv-x="854" 
d="M57 716q0 138 97.5 216t287 78t334.5 -80l-80 -180q-115 66 -262.5 65.5t-146.5 -98.5q0 -91 170 -131q158 -31 243.5 -100.5t85.5 -204.5q0 -100 -49 -171q-99 -143 -354 -143q-209 0 -336 80l64 184q123 -72 266 -71q86 0 132 30.5t46 70.5q0 71 -47.5 94.5
t-118.5 39.5q-162 37 -247 110t-85 211z" />
    <glyph glyph-name="t" unicode="t" horiz-adv-x="751" 
d="M451 -33q-299 0 -299 363v458h-115v189h115v299h245v-299h277v-189h-277v-428q0 -174 121 -174q84 1 158 54l69 -191q-127 -82 -294 -82z" />
    <glyph glyph-name="u" unicode="u" horiz-adv-x="1081" 
d="M723 977h246v-977h-246v152q-96 -184 -311 -185q-145 0 -228.5 91.5t-83.5 269.5v649h246v-580q0 -155 102 -197q28 -12 66 -12q139 0 209 160v629z" />
    <glyph glyph-name="v" unicode="v" horiz-adv-x="1040" 
d="M770 977h264l-391 -977h-283l-354 977h260l246 -768z" />
    <glyph glyph-name="w" unicode="w" horiz-adv-x="1452" 
d="M1180 977h258l-293 -977h-242l-190 643l-215 -643h-236l-248 977h254l135 -670l207 666h221l191 -651z" />
    <glyph glyph-name="x" unicode="x" horiz-adv-x="954" 
d="M938 0h-262l-199 354l-194 -354h-267l314 485l-305 492h262l200 -354l181 354h264l-299 -481z" />
    <glyph glyph-name="y" unicode="y" horiz-adv-x="1034" 
d="M762 977h258l-588 -1483h-256l217 510l-379 973h262l238 -698z" />
    <glyph glyph-name="z" unicode="z" horiz-adv-x="792" 
d="M772 193v-193h-735v190l418 594h-435v193h719v-189l-428 -595h461z" />
    <glyph glyph-name="braceleft" unicode="{" horiz-adv-x="681" 
d="M490 1536q-62 0 -99 -34t-37 -102t54 -236q54 -167 53 -279q0 -176 -142 -221q141 -47 142 -222q0 -116 -53 -282q-54 -166 -54 -235t37 -101t99 -33q62 0 133 29v-203q-111 -29 -232 -29t-203 71t-82 220q0 75 58 269t57 271q0 77 -36 109t-122 33v205q86 0 122 32
t36 110t-57 270q-57 193 -58 270q0 147 82 218t203 71t232 -29v-203q-71 31 -133 31z" />
    <glyph glyph-name="bar" unicode="|" horiz-adv-x="593" 
d="M420 1653v-1874h-246v1874h246z" />
    <glyph glyph-name="braceright" unicode="}" horiz-adv-x="681" 
d="M618 561q-86 0 -122 -33q-36 -34 -37 -110q0 -76 58 -270t58 -269q1 -151 -81 -221t-204 -70t-233 29v203q69 -31 133 -31t101 34q37 35 37 103t-54 235q-53 167 -53 281q0 174 141 222q-141 45 -141 221q0 113 53 279q54 166 54 236q0 68 -37 102t-101 34t-133 -31v203
q111 29 233 29t204 -71t81 -218q0 -78 -58 -270t-58 -271q0 -77 37 -109t122 -32v-205z" />
    <glyph glyph-name="asciitilde" unicode="~" horiz-adv-x="970" 
d="M289 686q-98 0 -223 -119v217q109 117 231 117q68 0 197 -74q129 -73 189 -73q59 0 109 30t113 88v-221q-100 -113 -233 -112q-75 0 -165 52q-38 23 -101 59t-117 36z" />
    <glyph glyph-name="exclamdown" unicode="&#xa1;" horiz-adv-x="610" 
d="M436 -442h-266l16 1015h236zM292 1016q106 0 153 -80q22 -38 22 -94t-47 -104t-115 -48t-115 48t-47 116t46 115q45 47 103 47z" />
    <glyph glyph-name="cent" unicode="&#xa2;" horiz-adv-x="929" 
d="M295 768q0 -209 143 -276v561q-143 -76 -143 -285zM662 0h-224v248q-176 27 -281 162t-105 355t106 357t280 170v238h224v-238q137 -25 241 -106l-112 -180q-63 49 -129 65v-590q86 25 145 86l98 -184q-80 -86 -243 -123v-260z" />
    <glyph glyph-name="sterling" unicode="&#xa3;" horiz-adv-x="1132" 
d="M1085 231v-231h-1015v231h231q-10 59 -47 189t-53 196h-154v209h117q-6 74 -6 144q0 243 129 365t354 122q121 0 233 -35t189 -88l-115 -211q-123 96 -259 96q-135 0 -199 -70q-64 -71 -64 -194q0 -61 6 -129h463v-209h-430q25 -117 82 -319l16 -66h522z" />
    <glyph glyph-name="currency" unicode="&#xa4;" horiz-adv-x="1142" 
d="M279 742q-1 -96 39 -166q78 -139 253 -138q80 0 147 36t106 107q40 71 40 161t-41 161q-84 143 -254 142q-169 -1 -249 -138q-40 -70 -41 -165zM1098 739q0 -209 -121 -346l123 -172l-185 -127l-120 170q-101 -41 -219 -41t-214 35l-116 -164l-185 127l115 160
q-131 139 -131 358t133 361l-117 164l185 127l121 -168q95 35 209 35t215 -41l124 174l185 -127l-125 -177q123 -139 123 -348z" />
    <glyph glyph-name="yen" unicode="&#xa5;" horiz-adv-x="1286" 
d="M1128 856v-209h-356v-164h356v-209h-356v-274h-256v274h-356v209h356v164h-356v209h246l-318 569h283l276 -563l268 563h279l-317 -569h251z" />
    <glyph glyph-name="brokenbar" unicode="&#xa6;" horiz-adv-x="593" 
d="M420 641v-862h-246v862h246zM420 1653v-862h-246v862h246z" />
    <glyph glyph-name="section" unicode="&#xa7;" horiz-adv-x="1136" 
d="M313 616q0 -150 228 -206q115 -28 174 -48q74 -2 119 39t45 109t-69 112t-200 76t-182 52q-115 -25 -115 -134zM528 -119q258 0 258 135q0 66 -72 105q-73 39 -270 80q-176 43 -271 127t-95 233q0 98 51 169t143 101q-129 98 -129 285q0 146 111 242t346 98
q285 -2 485 -98l-94 -209q-176 92 -388 92t-212 -133q1 -72 61 -117t194 -75t206 -56q176 -65 230 -165q32 -58 32 -149t-58 -164q-59 -72 -159 -101q139 -90 139 -248t-114 -263q-114 -104 -375 -104q-260 0 -465 109l90 200q150 -94 356 -94z" />
    <glyph glyph-name="dieresis" unicode="&#xa8;" horiz-adv-x="1228" 
d="M483 1371.5q0 58.5 42 100.5q43 42 101 41.5t100 -42t42 -100t-42 -100.5t-100 -42t-100.5 42t-42.5 100.5zM41 1371.5q0 58.5 41 100t100.5 41.5t100.5 -41.5t41 -100t-41 -100.5t-100.5 -42t-100.5 42t-41 100.5z" />
    <glyph glyph-name="copyright" unicode="&#xa9;" horiz-adv-x="1832" 
d="M949 1247q193 0 327 -104l-123 -168q-78 61 -181 61t-169 -68t-66 -194q1 -126 63 -194t173 -68t203 80l114 -162q-138 -133 -342 -133t-327 123t-122 348t129 352t321 127zM1608 734q0 357 -205 547t-488 192q-137 1 -262 -49t-220 -139t-151 -225t-56 -326t93 -351
q94 -162 249 -243q156 -81 348 -81t348 81t250 243q94 161 94 351zM121 760q0 352 216 577t577 225q362 0 580 -230q218 -232 218 -571t-217 -567t-582 -228t-579 220q-214 222 -213 574z" />
    <glyph glyph-name="guillemotleft" unicode="&#xab;" horiz-adv-x="1077" 
d="M1028 1047v-244l-326 -225l326 -238v-244l-479 373v223zM43 469v223l483 355v-244l-327 -225l327 -238v-244z" />
    <glyph glyph-name="logicalnot" unicode="&#xac;" horiz-adv-x="1132" 
d="M1034 850v-508h-219v293h-711v215h930z" />
    <glyph glyph-name="registered" unicode="&#xae;" horiz-adv-x="1126" 
d="M489 1264v-148h70q98 0 98 74q0 39 -20 56t-66 18h-82zM782 1196q0 -109 -92 -152l109 -200h-137l-87 178h-86v-178h-118v528h219q192 0 192 -176zM563 666q178 0 296 112t118 308t-118 311t-296 115t-296 -116q-117 -114 -117 -311t118 -308t295 -111zM563 1587
q272 0 411 -204q87 -128 87 -298q0 -215 -135 -356q-136 -141 -364 -141t-362 138t-134 359t134 361t363 141z" />
    <glyph glyph-name="macron" unicode="&#xaf;" horiz-adv-x="1228" 
d="M41 1464h709v-207h-709v207z" />
    <glyph glyph-name="degree" unicode="&#xb0;" horiz-adv-x="749" 
d="M195 1150q1 -204 195 -204q68 0 116 51q49 51 49 137t-49 138q-49 51 -130 51t-131 -51q-50 -50 -50 -122zM375 799q-154 0 -245 93t-91 242q0 150 91 242t245 92q102 0 179 -45q157 -92 157 -290q0 -145 -91 -239t-245 -95z" />
    <glyph glyph-name="plusminus" unicode="&#xb1;" horiz-adv-x="1118" 
d="M104 317h910v-215h-910v215zM446 477v277h-342v215h342v274h224v-274h342v-215h-342v-277h-224z" />
    <glyph glyph-name="acute" unicode="&#xb4;" horiz-adv-x="1228" 
d="M471 1571l-262 -443h-170l182 443h250z" />
    <glyph glyph-name="paragraph" unicode="&#xb6;" horiz-adv-x="995" 
d="M582 1425h276v-1634h-256v701h-22q-242 0 -374 116t-132 357q0 460 508 460z" />
    <glyph glyph-name="periodcentered" unicode="&#xb7;" horiz-adv-x="532" 
d="M261 539q-69 1 -116 47t-47 102q0 103 81 153q81 49 161 2q82 -49 82 -155q0 -56 -46 -102t-115 -47z" />
    <glyph glyph-name="cedilla" unicode="&#xb8;" horiz-adv-x="1228" 
d="M428 -139q57 1 102 -23q95 -50 95 -179.5t-83 -194t-226.5 -64.5t-247.5 72l59 133q20 -16 74.5 -39t116 -23t97.5 28t36 73q0 92 -86 92q-66 0 -107 -45l-119 41l111 291h156l-82 -183q47 21 104 21z" />
    <glyph glyph-name="guillemotright" unicode="&#xbb;" horiz-adv-x="1077" 
d="M551 1047l481 -355v-223l-481 -373v244l326 238l-326 225v244zM47 803v244l481 -355v-223l-481 -373v244l326 238z" />
    <glyph glyph-name="questiondown" unicode="&#xbf;" horiz-adv-x="1028" 
d="M528 -473q-118 -1 -191 21q-263 77 -263 376q0 168 91 274t251 134l4 213h235l9 -344h-52q-126 1 -202 -63t-76 -170t63 -156q63 -51 160 -52q160 0 297 129l117 -176q-84 -80 -205 -133q-120 -53 -238 -53zM542 1016q70 0 116 -47t46 -127t-80 -130q-36 -22 -94 -22
t-103 48q-46 48 -46 116t46 115t115 47z" />
    <glyph glyph-name="Agrave" unicode="&#xc0;" horiz-adv-x="1261" 
d="M426 514h381l-199 639zM965 0l-95 305h-503l-86 -305h-254l438 1425h301l471 -1425h-272zM692 1575h-174l-280 442h247z" />
    <glyph glyph-name="Aacute" unicode="&#xc1;" horiz-adv-x="1261" 
d="M426 514h381l-199 639zM965 0l-95 305h-503l-86 -305h-254l438 1425h303l469 -1425h-272zM1034 1999l-342 -424h-194l268 424h268z" />
    <glyph glyph-name="Acircumflex" unicode="&#xc2;" horiz-adv-x="1261" 
d="M426 514h381l-199 639zM965 0l-95 305h-503l-86 -305h-254l438 1425h301l471 -1425h-272zM606 1823l-178 -256h-197l271 461h207l270 -461h-195z" />
    <glyph glyph-name="Atilde" unicode="&#xc3;" horiz-adv-x="1261" 
d="M426 514h381l-199 639zM965 0l-95 305h-503l-86 -305h-254l438 1425h303l469 -1425h-272zM401 1944q95 0 217 -130q76 -81 121 -81q80 0 78 206h170q18 -420 -201 -419q-72 0 -133.5 48.5t-83.5 76.5q-29 27 -56 54t-58 27q-76 1 -72 -200h-172q-18 418 190 418z" />
    <glyph glyph-name="Adieresis" unicode="&#xc4;" horiz-adv-x="1261" 
d="M426 514h381l-199 639zM965 0l-95 305h-503l-86 -305h-254l438 1425h301l471 -1425h-272zM816 1608q-60 0 -102 42t-42 101t42 102t102 43t102.5 -43t42.5 -102t-42.5 -101t-102.5 -42zM413 1608q-49 0 -83 20q-70 41 -70 111.5t42 113.5t91 43t82 -19q70 -40 70 -126
q0 -59 -41.5 -101t-90.5 -42z" />
    <glyph glyph-name="Aring" unicode="&#xc5;" horiz-adv-x="1261" 
d="M426 514h381l-199 639zM965 0l-95 305h-503l-86 -305h-254l438 1425h301l471 -1425h-272zM727 1806q0 132 -126 133q-44 0 -75.5 -34.5t-31.5 -90t31.5 -87t85 -31.5t85 31t31.5 79zM620 1561q-134 0 -204 69.5t-70 185.5t70.5 185.5t192.5 69.5t193.5 -72t71.5 -184
q0 -155 -124 -221q-60 -32 -130 -33z" />
    <glyph glyph-name="AE" unicode="&#xc6;" horiz-adv-x="1681" 
d="M831 514l-24 682h-72l-268 -682h364zM1604 1194h-539l12 -348h375v-209h-367l15 -406h504v-231h-754l-12 305h-453l-119 -305h-254l576 1425h1016v-231z" />
    <glyph glyph-name="Ccedilla" unicode="&#xc7;" horiz-adv-x="1357" 
d="M752 -436q135 0 135 106q0 37 -22.5 61.5t-76 24.5t-94.5 -47l-119 43l82 219q-182 14 -316 105.5t-207 254.5t-73 382q0 342 202 542.5t514 200.5t521 -190l-141 -213q-147 154 -375 153q-129 0 -230 -58t-160.5 -170t-59.5 -261q0 -233 113.5 -364.5t306.5 -131.5
q283 0 440 219l123 -221q-172 -218 -504 -248l-51 -110q47 18 100 18q94 0 147.5 -52t53.5 -165t-82 -177.5t-226 -64.5t-249 72l61 133q28 -28 87 -44.5t100 -16.5z" />
    <glyph glyph-name="Egrave" unicode="&#xc8;" horiz-adv-x="1179" 
d="M1100 1194h-688v-348h536v-209h-536v-406h688v-231h-946v1425h946v-231zM668 1575h-174l-283 442h250z" />
    <glyph glyph-name="Eacute" unicode="&#xc9;" horiz-adv-x="1179" 
d="M1100 1194h-688v-348h536v-209h-536v-406h688v-231h-946v1425h946v-231zM1010 1999l-342 -424h-195l266 424h271z" />
    <glyph glyph-name="Ecircumflex" unicode="&#xca;" horiz-adv-x="1179" 
d="M1100 1194h-688v-348h536v-209h-536v-406h688v-231h-946v1425h946v-231zM582 1823l-181 -256h-194l270 461h205l272 -461h-196z" />
    <glyph glyph-name="Edieresis" unicode="&#xcb;" horiz-adv-x="1179" 
d="M1100 1194h-688v-348h536v-209h-536v-406h688v-231h-946v1425h946v-231zM792 1608q-60 0 -102.5 42t-42.5 101t42 102t102.5 43t101.5 -43t41 -102t-41 -101t-101 -42zM377.5 1608q-60.5 0 -102.5 42t-42 101t42 102t102.5 43t101.5 -43t41 -102t-41 -101t-101.5 -42z
" />
    <glyph glyph-name="Igrave" unicode="&#xcc;" horiz-adv-x="565" 
d="M412 1425v-1425h-258v1425h258zM193 1575l-283 442h250l207 -442h-174z" />
    <glyph glyph-name="Iacute" unicode="&#xcd;" horiz-adv-x="565" 
d="M412 1425v-1425h-258v1425h258zM709 1999l-342 -424h-195l266 424h271z" />
    <glyph glyph-name="Icircumflex" unicode="&#xce;" horiz-adv-x="565" 
d="M154 0v1425h258v-1425h-258zM381 2028l272 -461h-196l-178 256l-179 -256h-194l270 461h205z" />
    <glyph glyph-name="Idieresis" unicode="&#xcf;" horiz-adv-x="565" 
d="M412 1425v-1425h-258v1425h258zM490 1608q-60 0 -102 42t-42 101t42 102t102 43t101.5 -43t41.5 -102t-41.5 -101t-101.5 -42zM76.5 1608q-60.5 0 -102.5 42t-42 101t42 102t102.5 43t101.5 -43t41 -102t-41 -101t-101.5 -42z" />
    <glyph glyph-name="Eth" unicode="&#xd0;" horiz-adv-x="1429" 
d="M592 1194h-170v-367h291v-209h-291v-387h170q231 0 358 135.5t129 366.5q1 305 -221 410q-108 51 -266 51zM612 1425q344 0 542 -172t198 -522t-201 -540.5t-539 -190.5h-448v618h-146v209h146v598h448z" />
    <glyph glyph-name="Ntilde" unicode="&#xd1;" horiz-adv-x="1392" 
d="M999 1425h240v-1425h-246l-600 946v-946h-239v1425h241l604 -960v960zM489 1944q60 0 107 -34t86 -74l56 -56q46 -46 89 -47q80 0 76 206h172q16 -420 -201 -419q-59 0 -100 28q-86 58 -117 97q-29 27 -56 54t-60 27q-74 1 -70 -200h-172q-18 418 190 418z" />
    <glyph glyph-name="Ograve" unicode="&#xd2;" horiz-adv-x="1536" 
d="M769 217q198 0 317.5 135t119.5 363.5t-120.5 360.5t-317.5 132t-317.5 -132t-120.5 -359t120.5 -363.5t318.5 -136.5zM768 -33q-319 0 -514 202t-195 546t200 542.5t509 198.5q201 0 360.5 -85t254 -254t94.5 -398q0 -350 -195 -551t-514 -201zM678 1575l-283 442h248
l209 -442h-174z" />
    <glyph glyph-name="Oacute" unicode="&#xd3;" horiz-adv-x="1536" 
d="M769 217q198 0 317.5 135t119.5 363.5t-120.5 360.5t-317.5 132t-317.5 -132t-120.5 -359t120.5 -363.5t318.5 -136.5zM768 -33q-319 0 -514 202t-195 546t200 542.5t509 198.5q201 0 360.5 -85t254 -254t94.5 -398q0 -350 -195 -551t-514 -201zM1194 1999l-342 -424
h-195l267 424h270z" />
    <glyph glyph-name="Ocircumflex" unicode="&#xd4;" horiz-adv-x="1536" 
d="M769 217q198 0 317.5 135t119.5 363.5t-120.5 360.5t-317.5 132t-317.5 -132t-120.5 -359t120.5 -363.5t318.5 -136.5zM768 1456q201 0 360.5 -85t254 -254t94.5 -398q0 -350 -195 -551t-514 -201q-209 0 -368.5 89t-250 260t-90.5 403q0 340 200 538.5t509 198.5z
M764 1823l-178 -256h-195l271 461h204l273 -461h-197z" />
    <glyph glyph-name="Otilde" unicode="&#xd5;" horiz-adv-x="1536" 
d="M769 217q198 0 317.5 135t119.5 363.5t-120.5 360.5t-317.5 132t-317.5 -132t-120.5 -359t120.5 -363.5t318.5 -136.5zM768 -33q-319 0 -514 202t-195 546t200 542.5t509 198.5q201 0 360.5 -85t254 -254t94.5 -398q0 -350 -195 -551t-514 -201zM561 1944q59 0 109 -36
t139 -128q45 -46 90 -47q78 0 76 206h172q16 -420 -201 -419q-59 0 -100 28q-80 54 -110 85q-86 93 -124 93q-74 0 -71 -200h-170q-18 418 190 418z" />
    <glyph glyph-name="Odieresis" unicode="&#xd6;" horiz-adv-x="1536" 
d="M769 217q198 0 317.5 135t119.5 363.5t-120.5 360.5t-317.5 132t-317.5 -132t-120.5 -359t120.5 -363.5t318.5 -136.5zM768 -33q-319 0 -514 202t-195 546t200 542.5t509 198.5q201 0 360.5 -85t254 -254t94.5 -398q0 -350 -195 -551t-514 -201zM974.5 1608
q-59.5 0 -101.5 42t-42 101t42 102t101.5 43t101.5 -43t42 -102t-42 -101t-101.5 -42zM561 1608q-39 0 -71 20q-72 43 -72 112.5t42 112.5t91 43t82 -19t52.5 -53t19.5 -73t-19.5 -71.5t-52.5 -52t-72 -19.5z" />
    <glyph glyph-name="multiply" unicode="&#xd7;" horiz-adv-x="1075" 
d="M975 1012l-295 -318l295 -317l-154 -141l-284 305l-283 -305l-154 141l295 317l-295 318l154 141l283 -305l284 305z" />
    <glyph glyph-name="Oslash" unicode="&#xd8;" horiz-adv-x="1536" 
d="M1219 719q0 141 -50 252l-639 -703q102 -63 238 -63q205 0 328 138t123 376zM317 719q0 -154 58 -270l641 704q-106 70 -248 70q-203 0 -327 -136.5t-124 -367.5zM1477 719q0 -350 -195 -551t-514 -201q-236 0 -408 115l-118 -131l-197 135l145 160q-131 193 -131 473
q0 340 200 538.5t509 198.5q238 0 414 -119l116 127l195 -135l-143 -158q127 -186 127 -452z" />
    <glyph glyph-name="Ugrave" unicode="&#xd9;" horiz-adv-x="1368" 
d="M686 -33q-258 0 -409.5 164t-151.5 457v837h258v-852q0 -166 82 -262t221 -96t219 96.5t80 261.5v852h258v-837q0 -297 -149.5 -459t-407.5 -162zM594 1575l-281 442h248l207 -442h-174z" />
    <glyph glyph-name="Uacute" unicode="&#xda;" horiz-adv-x="1368" 
d="M686 -33q-258 0 -409.5 164t-151.5 457v837h258v-852q0 -166 82 -262t221 -96t219 96.5t80 261.5v852h258v-837q0 -297 -149.5 -459t-407.5 -162zM1110 1999l-342 -424h-195l269 424h268z" />
    <glyph glyph-name="Ucircumflex" unicode="&#xdb;" horiz-adv-x="1368" 
d="M985 1425h258v-837q0 -297 -149.5 -459t-407.5 -162t-409.5 164t-151.5 457v837h258v-852q0 -166 82 -262t221 -96t219 96.5t80 261.5v852zM682 1823l-178 -256h-197l271 461h206l271 -461h-195z" />
    <glyph glyph-name="Udieresis" unicode="&#xdc;" horiz-adv-x="1368" 
d="M686 -33q-258 0 -409.5 164t-151.5 457v837h258v-852q0 -166 82 -262t221 -96t219 96.5t80 261.5v852h258v-837q0 -297 -149.5 -459t-407.5 -162zM892 1608q-60 0 -102 42t-42 101t41.5 102t102 43t102.5 -43t42 -102t-42 -101t-102 -42zM479.5 1608q-59.5 0 -101.5 42
t-42 101t42 102t101.5 43t100.5 -43t41 -102t-41 -101t-100.5 -42z" />
    <glyph glyph-name="Yacute" unicode="&#xdd;" horiz-adv-x="1181" 
d="M721 0h-258v528l-445 897h283l293 -651l291 651h278l-442 -882v-543zM1016 1999l-342 -424h-195l266 424h271z" />
    <glyph glyph-name="Thorn" unicode="&#xde;" horiz-adv-x="1189" 
d="M616 514q113 0 179 58t65 165q0 136 -114 185q-54 23 -132 22h-202v-430h204zM635 1178q316 0 430 -191q59 -98 59 -248q0 -225 -128 -338t-359 -112h-225v-289h-258v1425h258v-247h223z" />
    <glyph glyph-name="germandbls" unicode="&#xdf;" horiz-adv-x="1116" 
d="M614 172q88 0 142 64t53 174q0 112 -70 183t-192 71h-49v184h47q88 0 150 78q63 78 63 194t-56 176t-151 60t-151 -66t-56 -241v-1049h-246v985q0 332 122 458q111 116 335 116q195 0 315 -97q119 -97 119 -307q0 -156 -109 -281q-56 -63 -130 -98q137 -40 216 -150
t78 -259q0 -189 -102 -287t-283 -103q-115 -2 -213 33l21 195q59 -33 147 -33z" />
    <glyph glyph-name="agrave" unicode="&#xe0;" horiz-adv-x="1011" 
d="M442 135q155 0 226 139v91q-94 72 -219 71q-74 0 -122 -40t-48 -110.5t45.5 -110.5t117.5 -40zM504 1008q401 0 401 -416v-592h-237v104q-113 -137 -308 -137q-139 0 -226 79t-87 234t98.5 236.5t250 81.5t272.5 -78v51q0 227 -215 228q-156 0 -275 -74l-84 172
q166 111 410 111zM612 1128h-170l-260 443h248z" />
    <glyph glyph-name="aacute" unicode="&#xe1;" horiz-adv-x="1011" 
d="M446 135q76 0 133.5 38t88.5 101v91q-94 72 -219 71q-74 0 -122 -40t-48 -110.5t45.5 -110.5t121.5 -40zM504 1008q401 0 401 -416v-592h-237v104q-113 -137 -308 -137q-139 0 -226 79t-87 234t98.5 236.5t250 81.5t272.5 -78v51q0 227 -215 228q-156 0 -275 -74l-84 172
q166 111 410 111zM854 1571l-260 -443h-170l182 443h248z" />
    <glyph glyph-name="acircumflex" unicode="&#xe2;" horiz-adv-x="1011" 
d="M446 135q76 0 133.5 38t88.5 101v91q-94 71 -207 71q-182 -2 -182 -162q0 -60 45.5 -99.5t121.5 -39.5zM504 1008q401 0 401 -416v-592h-237v104q-113 -137 -308 -137q-139 0 -226 79t-87 234t98.5 236.5t250 81.5t272.5 -78v51q0 227 -215 228q-156 0 -275 -74l-84 172
q166 111 410 111zM520 1403l-180 -275h-174l250 451h207l249 -451h-174z" />
    <glyph glyph-name="atilde" unicode="&#xe3;" horiz-adv-x="1011" 
d="M446 135q76 0 133.5 38t88.5 101v91q-94 71 -207 71q-182 -2 -182 -162q0 -60 45.5 -99.5t121.5 -39.5zM504 1008q401 0 401 -416v-592h-237v104q-113 -137 -308 -137q-139 0 -226 79t-87 233q0 105 49 179q92 140 289 140q162 0 283 -78v51q0 227 -215 228
q-156 0 -275 -74l-84 174q166 109 410 109zM328 1554q57 0 105 -32q72 -46 153 -136q42 -46 80 -47q74 0 71 209h170q16 -412 -192 -411q-49 0 -74 11t-35 15q-13 5 -65 46.5t-56 52.5l-43 43q-41 41 -71 41q-72 0 -68 -203h-172q-19 411 197 411z" />
    <glyph glyph-name="adieresis" unicode="&#xe4;" horiz-adv-x="1011" 
d="M442 135q155 0 226 139v91q-94 72 -219 71q-74 0 -122 -40t-48 -110.5t45.5 -110.5t117.5 -40zM504 1008q401 0 401 -416v-592h-237v104q-113 -137 -308 -137q-139 0 -226 79t-87 234t98.5 236.5t250 81.5t272.5 -78v51q0 227 -215 228q-156 0 -275 -74l-84 172
q166 111 410 111zM741.5 1229q-59.5 0 -100.5 42t-41 100.5t41 100t90 41.5t82 -19q70 -40 70 -111.5t-41 -112.5t-100.5 -41zM298 1229q-58 0 -100 42t-42 100.5t42 100t100 41.5t99 -41.5t41 -101t-41 -100.5t-99 -41z" />
    <glyph glyph-name="aring" unicode="&#xe5;" horiz-adv-x="1011" 
d="M442 135q155 0 226 139v91q-94 72 -219 71q-74 0 -122 -40t-48 -110.5t45.5 -110.5t117.5 -40zM504 1008q401 0 401 -416v-592h-237v104q-113 -137 -308 -137q-139 0 -226 79t-87 234t98.5 236.5t250 81.5t272.5 -78v51q0 227 -215 228q-156 0 -275 -74l-84 172
q166 111 410 111zM520.5 1559q-57.5 0 -93.5 -38t-36 -98.5t35 -95.5t93.5 -35t93 35t34.5 96.5t-34.5 98.5t-92 37zM519 1159q-126 0 -199.5 74t-73.5 190.5t73.5 191.5t198.5 75t201 -77t76 -190.5t-75 -188.5t-201 -75z" />
    <glyph glyph-name="ae" unicode="&#xe6;" horiz-adv-x="1624" 
d="M448 135q76 0 133.5 38t86.5 101v78q-82 92 -215 92q-76 0 -125 -41t-49 -114.5t46.5 -113.5t122.5 -40zM1132 817q-87 0 -147.5 -62.5t-73.5 -187.5h424q-8 129 -62 189.5t-141 60.5zM1167 -33q-285 0 -379 205q-57 -96 -165.5 -150.5t-248 -54.5t-233.5 78t-94 233
t95.5 227.5t250 72.5t275.5 -80v73q0 227 -213 228q-158 0 -275 -74l-86 172q166 111 406 111t319 -164q117 164 344 164q178 0 290 -123t112 -365v-63h-658q18 -274 269 -275q167 0 317 90l82 -180q-174 -125 -408 -125z" />
    <glyph glyph-name="ccedilla" unicode="&#xe7;" horiz-adv-x="956" 
d="M600 -158q94 0 147.5 -53t53.5 -166t-83 -177t-226 -64t-248 71l59 135q20 -18 73.5 -40.5t114.5 -22.5t98.5 27.5t37.5 70.5q1 43 -21 68q-22 26 -76 26t-96 -45l-121 41l101 264q-166 33 -263.5 164t-97.5 361t140 368t355.5 138t366.5 -142l-149 -166q-86 88 -226 88
t-210 -136q-35 -68 -35 -160q0 -145 69.5 -222t194.5 -77t223 106l140 -166q-129 -147 -357 -164l-67 -147q49 20 102 20z" />
    <glyph glyph-name="egrave" unicode="&#xe8;" horiz-adv-x="1013" 
d="M524 817q-113 -1 -178 -103q-35 -56 -47 -132h426q-23 235 -201 235zM965 510v-86h-668q29 -242 266 -242q170 0 320 90l82 -180q-174 -125 -417.5 -125t-369 136.5t-125.5 378t133 384t346 142.5q266 0 376 -220q56 -114 57 -278zM625 1128h-170l-262 443h249z" />
    <glyph glyph-name="eacute" unicode="&#xe9;" horiz-adv-x="1013" 
d="M524 817q-113 -1 -178 -103q-35 -56 -47 -132h426q-23 235 -201 235zM965 510v-86h-668q29 -242 266 -242q170 0 320 90l82 -180q-174 -125 -417.5 -125t-369 136.5t-125.5 378t133 384t346 142.5q266 0 376 -220q56 -114 57 -278zM866 1571l-260 -443h-170l182 443h248z
" />
    <glyph glyph-name="ecircumflex" unicode="&#xea;" horiz-adv-x="1013" 
d="M524 817q-113 -1 -178 -103q-35 -56 -47 -132h426q-23 235 -201 235zM965 510v-86h-668q29 -242 266 -242q170 0 320 90l82 -180q-174 -125 -417.5 -125t-369 136.5t-125.5 378t133 384t346 142.5q266 0 376 -220q56 -114 57 -278zM530 1403l-178 -275h-174l250 451h207
l250 -451h-174z" />
    <glyph glyph-name="edieresis" unicode="&#xeb;" horiz-adv-x="1013" 
d="M524 817q-113 -1 -178 -103q-35 -56 -47 -132h426q-23 235 -201 235zM965 510v-86h-668q29 -242 266 -242q170 0 320 90l82 -180q-174 -125 -417.5 -125t-369 136.5t-125.5 378t133 384t346 142.5q266 0 376 -220q56 -114 57 -278zM753.5 1229q-59.5 0 -101.5 42
t-42 100.5t42 100t101.5 41.5t100.5 -41.5t41 -100t-41 -100.5t-100.5 -42zM310.5 1229q-58.5 0 -100.5 42t-42 100.5t42 100t100.5 41.5t99.5 -41.5t41 -100t-41 -100.5t-99.5 -42z" />
    <glyph glyph-name="igrave" unicode="&#xec;" horiz-adv-x="501" 
d="M373 977v-977h-246v977h246zM344 1128h-170l-260 443h248z" />
    <glyph glyph-name="iacute" unicode="&#xed;" horiz-adv-x="501" 
d="M373 977v-977h-246v977h246zM586 1571l-260 -443h-170l182 443h248z" />
    <glyph glyph-name="icircumflex" unicode="&#xee;" horiz-adv-x="501" 
d="M127 0v977h246v-977h-246zM354 1579l250 -451h-174l-178 275l-180 -275h-174l249 451h207z" />
    <glyph glyph-name="idieresis" unicode="&#xef;" horiz-adv-x="501" 
d="M373 977v-977h-246v977h246zM332 1381q0 48 41 90t100 42t100 -41.5t41 -100t-41 -100.5t-90 -42t-81.5 19.5t-51 52t-18.5 80.5zM-113 1371.5q0 58.5 42 100t100.5 41.5t99.5 -41.5t41 -100t-41 -100.5t-99.5 -42t-100.5 42t-42 100.5z" />
    <glyph glyph-name="eth" unicode="&#xf0;" horiz-adv-x="1110" 
d="M536 207q96 0 158 67q62 68 62 167t-66 161t-158 62t-152 -58t-60 -162t60 -170t156 -67zM473 842q211 0 313 -174q2 29 2 57q0 221 -102 360l-313 -194l-84 131l280 174q-170 111 -456 94l-11 228q432 23 684 -189l170 105l82 -129l-143 -91q154 -207 154 -512
q-1 -356 -137 -545t-398 -190q-215 0 -336 124t-121 329q0 206 117 314t299 108z" />
    <glyph glyph-name="ntilde" unicode="&#xf1;" horiz-adv-x="1095" 
d="M674 1008q145 0 231 -91.5t86 -267.5v-649h-246v578q0 109 -47 158.5t-123 49.5q-145 0 -217 -159v-627h-245v977h245v-154q101 185 316 185zM356 1554q91 0 199 -108q45 -44 59 -60q43 -46 80 -47q74 0 70 211h172q16 -414 -193 -413q-49 0 -72 10l-31 14
q-9 4 -21.5 13.5t-20.5 14.5q-35 22 -129 116q-41 41 -70 41q-39 0 -54 -49.5t-13 -153.5h-172q-19 411 196 411z" />
    <glyph glyph-name="ograve" unicode="&#xf2;" horiz-adv-x="1114" 
d="M557 195q113 0 187.5 76.5t74.5 218t-74.5 219t-188.5 76.5t-187.5 -75.5t-73.5 -220t74.5 -220t187.5 -74.5zM557 -33q-225 0 -365.5 139.5t-140.5 381.5t140.5 381t365.5 139t365.5 -138.5t140.5 -381.5t-140.5 -382t-365.5 -139zM649 1128h-170l-260 443h248z" />
    <glyph glyph-name="oacute" unicode="&#xf3;" horiz-adv-x="1114" 
d="M557 195q113 0 187.5 76.5t74.5 218t-74.5 219t-188.5 76.5t-187.5 -75.5t-73.5 -220t74.5 -220t187.5 -74.5zM557 -33q-225 0 -365.5 139.5t-140.5 381.5t140.5 381t365.5 139t365.5 -138.5t140.5 -381.5t-140.5 -382t-365.5 -139zM891 1571l-260 -443h-170l182 443h248
z" />
    <glyph glyph-name="ocircumflex" unicode="&#xf4;" horiz-adv-x="1114" 
d="M557 195q113 0 187.5 76.5t74.5 218t-74.5 219t-188.5 76.5t-187.5 -75.5t-73.5 -220t74.5 -220t187.5 -74.5zM557 1008q225 0 365.5 -138.5t140.5 -381.5t-140.5 -382t-365.5 -139t-365.5 139.5t-140.5 381.5t140.5 381t365.5 139zM557 1403l-178 -275h-174l250 451h204
l250 -451h-172z" />
    <glyph glyph-name="otilde" unicode="&#xf5;" horiz-adv-x="1114" 
d="M557 195q113 0 187.5 76.5t74.5 218t-74.5 219t-188.5 76.5t-187.5 -75.5t-73.5 -220t74.5 -220t187.5 -74.5zM557 -33q-225 0 -365.5 139.5t-140.5 382t140.5 381t365.5 138.5t365.5 -138.5t140.5 -381.5t-140.5 -382t-365.5 -139zM365 1554q57 0 105 -31.5t110 -88.5
q52 -59 78 -77t47 -18q72 0 69 211h170q18 -414 -190 -413q-61 0 -89 16t-37.5 21.5t-26.5 19.5t-38 29.5t-32 28t-23 24.5l-22 22q-48 48 -76 48q-74 0 -70 -203h-170q-19 411 195 411z" />
    <glyph glyph-name="odieresis" unicode="&#xf6;" horiz-adv-x="1114" 
d="M557 195q113 0 187.5 76.5t74.5 218t-74.5 219t-188.5 76.5t-187.5 -75.5t-73.5 -220t74.5 -220t187.5 -74.5zM557 -33q-225 0 -365.5 139.5t-140.5 381.5t140.5 381t365.5 139t365.5 -138.5t140.5 -381.5t-140.5 -382t-365.5 -139zM637 1371.5q0 58.5 41 100t100.5 41.5
t100.5 -41.5t41 -100t-41 -100.5t-100.5 -42t-100.5 42t-41 100.5zM195 1371.5q0 58.5 40.5 100t100 41.5t100.5 -41.5t41 -100t-41 -100.5t-100.5 -42t-100 42t-40.5 100.5z" />
    <glyph glyph-name="divide" unicode="&#xf7;" horiz-adv-x="1142" 
d="M406 285q0 72 50 122t121 50t121 -50t50 -122t-50 -121t-122 -49q-70 0 -120 49t-50 121zM94 803h955v-215h-955v215zM406 1104q0 72 50 122t110 50q112 0 159 -85q23 -41 23 -99t-50 -108t-122 -50q-70 0 -120 49t-50 121z" />
    <glyph glyph-name="oslash" unicode="&#xf8;" horiz-adv-x="1114" 
d="M557 172q123 0 202 84t79 218t-54 216l-333 -500q49 -18 106 -18zM276 504.5q0 -138.5 54 -217.5l336 501q-51 18 -109 19q-123 0 -202 -82t-79 -220.5zM1063 491.5q0 -246.5 -140.5 -385.5t-365.5 -139q-125 0 -225 45l-99 -145l-127 86l97 143q-152 141 -152 388
t140.5 385.5t365.5 138.5q125 0 225 -43l92 137l136 -78l-99 -145q152 -141 152 -387.5z" />
    <glyph glyph-name="ugrave" unicode="&#xf9;" horiz-adv-x="1081" 
d="M723 977h246v-977h-246v152q-96 -184 -311 -185q-145 0 -228.5 91.5t-83.5 269.5v649h246v-580q0 -155 102 -197q28 -12 66 -12q139 0 209 160v629zM633 1128h-170l-260 443h248z" />
    <glyph glyph-name="uacute" unicode="&#xfa;" horiz-adv-x="1081" 
d="M723 977h246v-977h-246v152q-96 -184 -311 -185q-145 0 -228.5 91.5t-83.5 269.5v649h246v-580q0 -155 102 -197q28 -12 66 -12q139 0 209 160v629zM874 1571l-260 -443h-170l183 443h247z" />
    <glyph glyph-name="ucircumflex" unicode="&#xfb;" horiz-adv-x="1081" 
d="M723 977h246v-977h-246v152q-96 -184 -302 -184t-282 159q-39 82 -39 201v649h246v-580q0 -155 102 -197q28 -12 66 -12q139 0 209 160v629zM541 1403l-179 -275h-174l248 451h207l250 -451h-172z" />
    <glyph glyph-name="udieresis" unicode="&#xfc;" horiz-adv-x="1081" 
d="M723 977h246v-977h-246v152q-96 -184 -311 -185q-145 0 -228.5 91.5t-83.5 269.5v649h246v-580q0 -155 102 -197q28 -12 66 -12q139 0 209 160v629zM761.5 1229q-59.5 0 -100 42t-40.5 100.5t40.5 100t90.5 41.5t82 -19q70 -41 69 -124q0 -57 -41 -99t-100.5 -42z
M319.5 1229q-59.5 0 -100.5 42t-41 100.5t41 100t100.5 41.5t100.5 -41.5t41 -100t-41 -100.5t-100.5 -42z" />
    <glyph glyph-name="yacute" unicode="&#xfd;" horiz-adv-x="1034" 
d="M762 977h258l-588 -1483h-256l217 510l-379 973h262l238 -698zM852 1571l-260 -443h-170l180 443h250z" />
    <glyph glyph-name="thorn" unicode="&#xfe;" horiz-adv-x="1155" 
d="M608 193q104 1 176 75t72 219q0 214 -151 279q-43 18 -93 18q-186 0 -258 -202v-174q41 -135 141 -189q50 -26 113 -26zM1007 848q93 -133 93 -356t-86 -350q-121 -172 -339 -173q-218 -2 -321 168v-639h-245v2030h245v-733q115 213 328 213t325 -160z" />
    <glyph glyph-name="ydieresis" unicode="&#xff;" horiz-adv-x="1034" 
d="M762 977h258l-588 -1483h-256l217 510l-379 973h262l238 -698zM739.5 1229q-59.5 0 -101.5 42t-42 100.5t42 100t101.5 41.5t100.5 -41.5t41 -100t-41 -100.5t-100.5 -42zM305 1229q-49 -1 -81 19q-70 44 -70 112.5t42 110.5t100 42t99 -41.5t41 -100t-41 -100.5t-90 -42
z" />
    <glyph glyph-name="Amacron" unicode="&#x100;" horiz-adv-x="1261" 
d="M426 514h381l-199 639zM965 0l-95 305h-503l-86 -305h-254l438 1425h301l471 -1425h-272zM967 1884v-207h-709v207h709z" />
    <glyph glyph-name="amacron" unicode="&#x101;" horiz-adv-x="1011" 
d="M442 135q155 0 226 139v91q-94 72 -219 71q-74 0 -122 -40t-48 -110.5t45.5 -110.5t117.5 -40zM504 1008q401 0 401 -416v-592h-237v104q-113 -137 -308 -137q-139 0 -226 79t-87 234t98.5 236.5t250 81.5t272.5 -78v51q0 227 -215 228q-156 0 -275 -74l-84 172
q166 111 410 111zM872 1462v-205h-706v205h706z" />
    <glyph glyph-name="Abreve" unicode="&#x102;" horiz-adv-x="1261" 
d="M426 514h381l-199 639zM965 0l-95 305h-503l-86 -305h-254l438 1425h301l471 -1425h-272zM612.5 1587q-184.5 0 -277.5 106.5t-83 313.5h192q-8 -258 167 -258t167 258h193q10 -207 -82 -313.5t-276.5 -106.5z" />
    <glyph glyph-name="abreve" unicode="&#x103;" horiz-adv-x="1011" 
d="M446 135q76 0 133.5 38t88.5 101v91q-94 72 -219 71q-74 0 -122 -40t-48 -110.5t45.5 -110.5t121.5 -40zM504 1008q401 0 401 -416v-592h-237v104q-113 -137 -308 -137q-139 0 -226 79t-87 234t98.5 236.5t250 81.5t272.5 -78v51q0 227 -215 228q-156 0 -275 -74l-84 172
q166 111 410 111zM520.5 1157q-184.5 0 -277.5 106.5t-83 313.5h194q-10 -258 165 -258t167 258h193q10 -207 -82 -313.5t-276.5 -106.5z" />
    <glyph glyph-name="Aogonek" unicode="&#x104;" horiz-adv-x="1261" 
d="M426 514h381l-199 639zM1028 -420q88 0 168 47l41 -166q-127 -63 -267 -63t-200.5 62.5t-60.5 164.5q0 225 307 375h-51l-95 305h-503l-86 -305h-254l438 1425h301l471 -1425h-10q-303 -150 -303 -313q0 -107 104 -107z" />
    <glyph glyph-name="aogonek" unicode="&#x105;" horiz-adv-x="1011" 
d="M446 135q76 0 133.5 38t88.5 101v91q-94 72 -216.5 71.5t-159.5 -84.5q-13 -30 -13 -83.5t45.5 -93.5t121.5 -40zM676 -602q-80 0 -134 28q-102 53 -102 183q0 223 285 391h-57v104q-113 -137 -308 -137q-139 0 -226 79t-87 234t98.5 236.5t250 81.5t272.5 -78v51
q0 227 -215 228q-156 0 -275 -74l-84 172q166 111 410 111q401 0 401 -416v-592q-199 -155 -233 -238q-18 -45 -19 -92q0 -90 97 -90q82 0 168 53l38 -165q-129 -70 -280 -70z" />
    <glyph glyph-name="Cacute" unicode="&#x106;" horiz-adv-x="1357" 
d="M723 -33q-305 0 -483.5 199t-178.5 544t202 545.5t514 200.5t521 -190l-141 -213q-147 153 -361 153t-339 -132t-125 -361t113.5 -360.5t306.5 -131.5q283 0 440 219l123 -221q-92 -119 -245.5 -185.5t-346.5 -66.5zM1098 2019l-262 -442h-170l182 442h250z" />
    <glyph glyph-name="cacute" unicode="&#x107;" horiz-adv-x="956" 
d="M520 -33q-209 0 -338 136.5t-129 382.5t140 384t355.5 138t366.5 -142l-149 -166q-86 88 -226 88t-210 -136q-35 -68 -35 -160q0 -145 69.5 -222t194.5 -77t223 106l140 -166q-85 -101 -241 -145q-77 -22 -161 -21zM868 1571l-260 -443h-170l183 443h247z" />
    <glyph glyph-name="Cdotaccent" unicode="&#x10a;" horiz-adv-x="1357" 
d="M723 -33q-305 0 -483.5 199t-178.5 544t202 545.5t514 200.5t521 -190l-141 -213q-147 154 -360.5 153.5t-339 -132.5t-125.5 -357q0 -157 52 -269q105 -228 378 -227.5t430 219.5l123 -221q-92 -119 -245.5 -185.5t-346.5 -66.5zM621 1760.5q0 62.5 44 106.5t106 44
t106.5 -44t44.5 -96.5t-20 -86.5q-46 -75 -119.5 -74.5t-117.5 44.5t-44 106.5z" />
    <glyph glyph-name="cdotaccent" unicode="&#x10b;" horiz-adv-x="956" 
d="M520 -33q-209 0 -338 136.5t-129 382t139.5 384t355.5 138.5t367 -142l-149 -166q-86 88 -226 88t-210 -136q-35 -68 -35 -160q0 -145 69.5 -222t194.5 -77t223 106l140 -166q-66 -76 -171.5 -121t-230.5 -45zM393 1311.5q0 62.5 43 106.5t106.5 44t106.5 -44t43 -106.5
t-43 -106.5t-106.5 -44t-106.5 44t-43 106.5z" />
    <glyph glyph-name="Ccaron" unicode="&#x10c;" horiz-adv-x="1357" 
d="M723 -33q-305 0 -483.5 199t-178.5 544t202 545.5t514 200.5t521 -190l-141 -213q-147 154 -375 153q-129 0 -230 -58t-160.5 -170t-59.5 -261q0 -233 113.5 -364.5t306.5 -131.5q282 0 440 219l123 -221q-92 -119 -246 -185.5t-346 -66.5zM870 1575h-204l-271 461h195
l178 -258l178 258h197z" />
    <glyph glyph-name="ccaron" unicode="&#x10d;" horiz-adv-x="956" 
d="M520 -33q-209 0 -338 136.5t-129 382t139.5 384t355.5 138.5t367 -142l-149 -166q-86 88 -226 88t-210 -136q-35 -68 -35 -160q0 -145 69.5 -222t194.5 -77t223 106l140 -166q-66 -76 -171.5 -121t-230.5 -45zM637 1128h-207l-250 451h174l181 -274l178 274h174z" />
    <glyph glyph-name="Dcaron" unicode="&#x10e;" horiz-adv-x="1429" 
d="M592 1194h-170v-963h170q231 0 358 135.5t129 366.5q1 305 -221 410q-108 51 -266 51zM612 1425q344 0 542 -172t198 -522t-201 -540.5t-539 -190.5h-448v1425h448zM782 1575h-204l-271 461h195l178 -258l178 258h197z" />
    <glyph glyph-name="dcaron" unicode="&#x10f;" horiz-adv-x="1308" 
d="M532 188q192 0 269 183v250q-33 84 -99 128q-64 44 -132 44q-118 0 -195.5 -73t-77.5 -228t69 -229.5t166 -74.5zM801 1528h246v-1528h-246v137q-123 -170 -332 -170q-178 0 -297 131t-119 389q0 133 37 235q36 104 98 164q125 123 299 122q208 0 314 -162v682z
M1135 1532h247l-94 -617h-170z" />
    <glyph glyph-name="Dcroat" unicode="&#x110;" horiz-adv-x="1429" 
d="M592 1194h-170v-367h291v-209h-291v-387h170q231 0 358 135.5t129 366.5q1 305 -221 410q-108 51 -266 51zM612 1425q344 0 542 -172t198 -522t-201 -540.5t-539 -190.5h-448v618h-146v209h146v598h448z" />
    <glyph glyph-name="dcroat" unicode="&#x111;" horiz-adv-x="1153" 
d="M532 188q192 0 269 183v250q-33 84 -99 128q-64 44 -132 44q-118 0 -195.5 -73t-77.5 -228t69 -229.5t166 -74.5zM1153 1395v-189h-106v-1206h-246v137q-123 -170 -332 -170q-178 0 -297 131t-119 389q0 133 37 235q36 104 98 164q125 123 299 122q207 0 314 -162v360
h-395v189h395v133h246v-133h106z" />
    <glyph glyph-name="Emacron" unicode="&#x112;" horiz-adv-x="1179" 
d="M1100 1194h-688v-348h536v-209h-536v-406h688v-231h-946v1425h946v-231zM942 1884v-207h-709v207h709z" />
    <glyph glyph-name="emacron" unicode="&#x113;" horiz-adv-x="1013" 
d="M518 817q-47 0 -92 -23.5t-80 -79t-47 -132.5h426q-18 179 -127 222q-33 13 -80 13zM965 510v-86h-668q29 -242 266 -242q170 0 320 90l82 -180q-174 -125 -417.5 -125t-369 136.5t-125.5 378t133 384t346 142.5q266 0 376 -220q56 -114 57 -278zM885 1464v-207h-707v207
h707z" />
    <glyph glyph-name="Edotaccent" unicode="&#x116;" horiz-adv-x="1179" 
d="M1100 1194h-688v-348h536v-209h-536v-406h688v-231h-946v1425h946v-231zM442 1759q0 41 20 76q45 76 132 76q61 0 105 -44t44 -107t-43.5 -106.5t-96 -43.5t-86.5 20.5t-54.5 54t-20.5 74.5z" />
    <glyph glyph-name="edotaccent" unicode="&#x117;" horiz-adv-x="1013" 
d="M524 817q-113 -1 -178 -103q-35 -56 -47 -132h426q-23 235 -201 235zM965 510v-86h-668q29 -242 266 -242q170 0 320 90l82 -180q-174 -125 -417.5 -125t-369 136.5t-125.5 378t133 384t346 142.5q266 0 376 -220q56 -114 57 -278zM551 1161q-51 0 -86 20.5t-55.5 54.5
t-20.5 75q1 41 21 75q45 76 119 76t117.5 -43.5t43.5 -106t-44 -107t-95 -44.5z" />
    <glyph glyph-name="Eogonek" unicode="&#x118;" horiz-adv-x="1179" 
d="M1100 1194h-688v-348h536v-209h-536v-406h688v-231h-80q-262 -141 -262 -295q0 -104 104 -104q86 0 168 47l39 -166q-125 -64 -265 -64t-200.5 62.5t-60.5 165.5q0 209 268 354h-657v1425h946v-231z" />
    <glyph glyph-name="eogonek" unicode="&#x119;" horiz-adv-x="1013" 
d="M510 817q-68 0 -130.5 -59.5t-80.5 -175.5h426q-16 162 -107 212q-40 22 -108 23zM732 -510q-134 0 -193.5 58.5t-59.5 152.5q0 147 123 270q-33 -4 -67 -4q-231 0 -356.5 136.5t-125.5 378t133 384t346 142.5q266 0 376 -220q56 -114 57 -278v-86h-668q29 -242 266 -242
q170 0 320 90l82 -180q-39 -27 -82 -49q-92 -74 -141.5 -139.5t-49.5 -141.5q0 -90 90 -89.5t174 53.5l41 -166q-131 -70 -265 -70z" />
    <glyph glyph-name="Ecaron" unicode="&#x11a;" horiz-adv-x="1179" 
d="M1100 1194h-688v-348h536v-209h-536v-406h688v-231h-946v1425h946v-231zM694 1575h-207l-270 461h197l178 -258l178 258h195z" />
    <glyph glyph-name="ecaron" unicode="&#x11b;" horiz-adv-x="1013" 
d="M524 817q-113 -1 -178 -103q-35 -56 -47 -132h426q-23 235 -201 235zM965 510v-86h-668q29 -242 266 -242q170 0 320 90l82 -180q-174 -125 -417.5 -125t-369 136.5t-125.5 378t133 384t346 142.5q266 0 376 -220q56 -114 57 -278zM635 1128h-207l-250 451h174l178 -274
l181 274h174z" />
    <glyph glyph-name="Gbreve" unicode="&#x11e;" horiz-adv-x="1396" 
d="M705 815h598v-745q-281 -102 -577 -102.5t-481.5 196t-185.5 545t195 548t518.5 199.5t523.5 -196l-157 -191q-145 139 -357.5 139t-334 -135t-121.5 -363t116.5 -361.5t319.5 -133.5q162 0 282 51v340h-339v209zM760 1606q-184 0 -277.5 106.5t-83.5 312.5h193
q-8 -258 167 -258t165 258h192q18 -311 -196 -393q-68 -26 -160 -26z" />
    <glyph glyph-name="gbreve" unicode="&#x11f;" horiz-adv-x="950" 
d="M469 -346q121 0 192.5 38t71.5 104q0 128 -147 128h-250q-109 -33 -109 -131q0 -139 242 -139zM460 829q-85 0 -140.5 -49t-55.5 -139t55.5 -138t139.5 -48q140 0 180 103q14 36 14 83q0 90 -54 139t-139 49zM606 117q160 0 253 -77t93 -222q0 -178 -130 -266.5
t-353 -88.5q-451 0 -451 291q0 139 121 215q-100 68 -100 197q0 63 32.5 121.5t90.5 95.5q-96 100 -96 266t105 262.5t278 96.5q102 0 184 -31h295v-180h-105q29 -70 29 -154q0 -172 -112.5 -272.5t-290.5 -100.5q-90 0 -164 31q-49 -41 -49 -92q0 -92 102 -92h268z
M487.5 1157q-184.5 0 -277.5 106.5t-83 313.5h195q-10 -258 164.5 -258t166.5 258h193q10 -207 -82 -313.5t-276.5 -106.5z" />
    <glyph glyph-name="Gdotaccent" unicode="&#x120;" horiz-adv-x="1396" 
d="M705 815h598v-745q-281 -102 -577 -102.5t-481.5 196t-185.5 545t195 548t518.5 199.5t523.5 -196l-157 -191q-145 139 -357.5 139t-334 -135t-121.5 -363t116.5 -361.5t319.5 -133.5q162 0 282 51v340h-339v209zM757 1610q-52 0 -96.5 44t-44.5 106.5t44.5 106.5
t106.5 44t106.5 -44t44.5 -96.5t-20.5 -86t-54.5 -54t-86 -20.5z" />
    <glyph glyph-name="gdotaccent" unicode="&#x121;" horiz-adv-x="950" 
d="M469 -346q121 0 192.5 38t71.5 104q0 128 -147 128h-250q-109 -33 -109 -131q0 -139 242 -139zM460 829q-85 0 -140.5 -49t-55.5 -139t55.5 -138t139.5 -48q140 0 180 103q14 36 14 83q0 90 -54 139t-139 49zM606 117q160 0 253 -77t93 -222q0 -178 -130 -266.5
t-353 -88.5q-451 0 -451 291q0 139 121 215q-100 68 -100 197q0 63 32.5 121.5t90.5 95.5q-96 100 -96 266t105 262.5t278 96.5q102 0 184 -31h295v-180h-105q29 -70 29 -154q0 -172 -112.5 -272.5t-290.5 -100.5q-90 0 -164 31q-49 -41 -49 -92q0 -92 102 -92h268z
M507 1161q-52 1 -87 21q-74 43 -74 135.5t92 132.5q28 12 58 12q61 0 105 -42t44 -106t-43 -108.5t-95 -44.5z" />
    <glyph glyph-name="Gcommaaccent" unicode="&#x122;" horiz-adv-x="1396" 
d="M737.5 -111q71.5 0 120.5 -59t49 -162q0 -254 -256 -370l-84 122q76 35 119 74t64 100q-14 -2 -29 -2q-57 0 -99 39t-42 107t43 109.5t114.5 41.5zM705 815h598v-745q-281 -102 -577 -102.5t-481.5 196t-185.5 545t195 548t518.5 199.5t523.5 -196l-157 -191
q-145 139 -357.5 139t-334 -135t-121.5 -363t116.5 -361.5t319.5 -133.5q162 0 282 51v340h-339v209z" />
    <glyph glyph-name="gcommaaccent" unicode="&#x123;" horiz-adv-x="950" 
d="M469 -346q121 0 192.5 38t71.5 104q0 128 -147 128h-250q-109 -33 -109 -131q0 -139 242 -139zM264 632q0 -81 55.5 -129t139.5 -48q140 0 180 103q14 36 14 83q0 90 -54 139t-147 49q-92 1 -148 -67q-40 -48 -40 -130zM606 117q160 0 253 -77t93 -222
q0 -178 -130 -266.5t-353 -88.5q-451 0 -451 291q0 139 121 215q-100 68 -100 197q0 63 32.5 121.5t90.5 95.5q-96 100 -96 266t105 262.5t278 96.5q102 0 184 -31h295v-180h-105q29 -70 29 -154q0 -172 -112.5 -272.5t-290.5 -100.5q-90 0 -164 31q-49 -41 -49 -92
q0 -92 102 -92h268zM464.5 1165q-73.5 0 -119.5 57.5t-46 137.5q0 138 63.5 239t192.5 148l82 -121q-107 -52 -141.5 -98.5t-46.5 -91.5q25 8 62.5 8t76.5 -34t39 -100.5t-44.5 -105.5t-118 -39z" />
    <glyph glyph-name="Hbar" unicode="&#x126;" horiz-adv-x="1423" 
d="M1012 772v240h-600v-240h600zM1372 1223v-211h-102v-1012h-258v545h-600v-545h-258v1012h-103v211h103v202h258v-202h600v202h258v-202h102z" />
    <glyph glyph-name="hbar" unicode="&#x127;" horiz-adv-x="1087" 
d="M666 1010q147 0 233 -91.5t86 -269.5v-649h-246v580q0 109 -48 158.5t-124 49.5q-141 0 -213 -161v-627h-245v1161h-95v191h95v176h245v-176h406v-191h-406v-336q99 185 312 185z" />
    <glyph glyph-name="Imacron" unicode="&#x12a;" horiz-adv-x="565" 
d="M412 1425v-1425h-258v1425h258zM-68 1677v207h707v-207h-707z" />
    <glyph glyph-name="imacron" unicode="&#x12b;" horiz-adv-x="501" 
d="M373 977v-977h-246v977h246zM-102 1464h708v-207h-708v207z" />
    <glyph glyph-name="Iogonek" unicode="&#x12e;" horiz-adv-x="565" 
d="M157.5 -602q-139.5 0 -201.5 62.5t-62 164.5q0 225 307 375h-47v1425h258v-1425q-303 -150 -303 -315q0 -104 104 -105q88 0 168 47l41 -166q-125 -63 -264.5 -63z" />
    <glyph glyph-name="iogonek" unicode="&#x12f;" horiz-adv-x="501" 
d="M163.5 -592q-135.5 0 -193.5 58.5t-58 152.5q0 217 266 381h-51v977h246v-963l4 -4l-4 -2v-8h-8q-183 -140 -221 -229q-18 -43 -19 -90q0 -90 96 -91q82 1 168 54l39 -164q-129 -72 -264.5 -72zM271 1161q-52 0 -86.5 20.5t-54 54.5t-19.5 75q-1 41 19 75q43 75 118 75.5
t118.5 -43.5t43.5 -106.5t-43.5 -106.5t-95.5 -44z" />
    <glyph glyph-name="Idotaccent" unicode="&#x130;" horiz-adv-x="565" 
d="M412 1425v-1425h-258v1425h258zM141 1770q0 52 44 96.5t106.5 44.5t106.5 -44t44 -106.5t-44 -106.5t-96 -44t-86 20.5t-54.5 54t-20.5 85.5z" />
    <glyph glyph-name="dotlessi" unicode="&#x131;" horiz-adv-x="501" 
d="M373 977v-977h-246v977h246z" />
    <glyph glyph-name="Kcommaaccent" unicode="&#x136;" horiz-adv-x="1282" 
d="M648.5 -111q72.5 0 120.5 -59t48 -162q0 -254 -256 -370l-82 122q74 35 117 74t63 100q-12 -2 -26 -2q-59 0 -100 39t-41 108t42 109.5t114.5 40.5zM422 0h-258v1425h258v-632l508 632h301l-432 -526l454 -899h-305l-336 672l-190 -234v-438z" />
    <glyph glyph-name="kcommaaccent" unicode="&#x137;" horiz-adv-x="1036" 
d="M525 -111q73 0 121 -59t48 -162q0 -254 -256 -370l-82 122q96 45 132 88t51 86q-14 -2 -29 -2q-59 0 -100 39t-41 108t41.5 109.5t114.5 40.5zM354 0h-245v1528h245v-987l365 436h291l-308 -344l330 -633h-295l-219 428l-164 -182v-246z" />
    <glyph glyph-name="Lacute" unicode="&#x139;" horiz-adv-x="997" 
d="M154 1425h258v-1194h567v-231h-825v1425zM616 2019l-260 -442h-170l183 442h247z" />
    <glyph glyph-name="lacute" unicode="&#x13a;" horiz-adv-x="462" 
d="M354 1528v-1528h-245v1528h245zM571 2048l-262 -442h-168l181 442h249z" />
    <glyph glyph-name="Lcommaaccent" unicode="&#x13b;" horiz-adv-x="997" 
d="M574 -111q60 -1 99 -27q83 -55 83 -194q0 -254 -256 -370l-82 122q93 44 130.5 87.5t51.5 86.5q-14 -2 -29 -2q-59 0 -100 39t-41 108t42 109.5t102 40.5zM412 231h567v-231h-825v1425h258v-1194z" />
    <glyph glyph-name="lcommaaccent" unicode="&#x13c;" horiz-adv-x="462" 
d="M238 -111q73 0 121.5 -59t48.5 -162q0 -254 -256 -370l-82 122q93 44 130.5 87.5t49.5 86.5q-12 -2 -27 -2q-59 0 -100 39t-41 108t41.5 109.5t114.5 40.5zM354 1528v-1528h-245v1528h245z" />
    <glyph glyph-name="Lcaron" unicode="&#x13d;" horiz-adv-x="997" 
d="M412 231h567v-231h-825v1425h258v-1194zM391 1575h-207l-270 461h197l178 -258l178 258h197z" />
    <glyph glyph-name="lcaron" unicode="&#x13e;" horiz-adv-x="608" 
d="M354 1528v-1528h-245v1528h245zM729 1528l-94 -617h-170l16 617h248z" />
    <glyph glyph-name="Lslash" unicode="&#x141;" horiz-adv-x="997" 
d="M412 231h567v-231h-825v504l-150 -86l-90 192l240 131v684h258v-559l358 207l90 -190l-448 -252v-400z" />
    <glyph glyph-name="lslash" unicode="&#x142;" horiz-adv-x="813" 
d="M520 0h-246v647l-151 -94l-121 188l272 174v613h246v-457l189 121l114 -193l-303 -194v-805z" />
    <glyph glyph-name="Nacute" unicode="&#x143;" horiz-adv-x="1392" 
d="M999 1425h240v-1425h-246l-600 946v-946h-239v1425h241l604 -960v960zM1032 2019l-260 -442h-170l180 442h250z" />
    <glyph glyph-name="nacute" unicode="&#x144;" horiz-adv-x="1095" 
d="M674 1008q145 0 231 -91.5t86 -267.5v-649h-246v578q0 109 -47 158.5t-123 49.5q-145 0 -217 -159v-627h-245v977h245v-154q101 185 316 185zM883 1571l-260 -443h-170l182 443h248z" />
    <glyph glyph-name="Ncommaaccent" unicode="&#x145;" horiz-adv-x="1392" 
d="M682 -111q97 0 143.5 -59.5t46.5 -161.5q0 -254 -256 -370l-81 122q94 44 130.5 87.5t51.5 86.5q-14 -2 -36 -2q-49 0 -91.5 36.5t-42.5 108t41.5 112t93.5 40.5zM999 1425h240v-1425h-246l-600 946v-946h-239v1425h241l604 -960v960z" />
    <glyph glyph-name="ncommaaccent" unicode="&#x146;" horiz-adv-x="1095" 
d="M554 -111q73 0 122 -59t49 -162q0 -254 -258 -370l-82 122q96 45 132 88t50 86q-14 -2 -28 -2q-59 0 -100.5 39t-41.5 108t42 109.5t115 40.5zM674 1008q145 0 231 -91.5t86 -267.5v-649h-246v578q0 109 -47 158.5t-123 49.5q-145 0 -217 -159v-627h-245v977h245v-154
q101 185 316 185z" />
    <glyph glyph-name="Ncaron" unicode="&#x147;" horiz-adv-x="1392" 
d="M999 1425h240v-1425h-246l-600 946v-946h-239v1425h241l604 -960v960zM807 1575h-207l-270 461h196l179 -258l178 258h194z" />
    <glyph glyph-name="ncaron" unicode="&#x148;" horiz-adv-x="1095" 
d="M674 1008q145 0 231 -91.5t86 -267.5v-649h-246v578q0 109 -47 158.5t-123 49.5q-145 0 -217 -159v-627h-245v977h245v-154q101 185 316 185zM651 1128h-207l-249 451h174l178 -274l180 274h174z" />
    <glyph glyph-name="Eng" unicode="&#x14a;" horiz-adv-x="1384" 
d="M1239 1425v-1357q0 -281 -113 -410t-311 -129q-162 0 -280 65l55 220q82 -59 198 -60q195 0 211 238l-606 954v-946h-239v1425h241l604 -960v960h240z" />
    <glyph glyph-name="eng" unicode="&#x14b;" horiz-adv-x="1095" 
d="M674 1008q147 0 232 -92t85 -273v-606q0 -244 -94 -366t-295 -146l-67 207q211 18 210 288v551q0 115 -47 165t-123 50q-145 0 -217 -159v-627h-245v977h245v-154q101 185 316 185z" />
    <glyph glyph-name="Omacron" unicode="&#x14c;" horiz-adv-x="1536" 
d="M769 217q198 0 317.5 135t119.5 363.5t-120.5 360.5t-317.5 132t-317.5 -132t-120.5 -359t120.5 -363.5t318.5 -136.5zM768 -33q-319 0 -514 202t-195 546t200 542.5t509 198.5q201 0 360.5 -85t254 -254t94.5 -398q0 -350 -195 -551t-514 -201zM416 1677v207h708v-207
h-708z" />
    <glyph glyph-name="omacron" unicode="&#x14d;" horiz-adv-x="1114" 
d="M557 195q113 0 187.5 76.5t74.5 218t-74.5 219t-188.5 76.5t-187.5 -75.5t-73.5 -220t74.5 -220t187.5 -74.5zM557 -33q-225 0 -365.5 139.5t-140.5 381.5t140.5 381t365.5 139t365.5 -138.5t140.5 -381.5t-140.5 -382t-365.5 -139zM203 1464h708v-207h-708v207z" />
    <glyph glyph-name="Ohungarumlaut" unicode="&#x150;" horiz-adv-x="1536" 
d="M769 217q198 0 317.5 135t119.5 363.5t-120.5 360.5t-317.5 132t-317.5 -132t-120.5 -359t120.5 -363.5t318.5 -136.5zM768 -33q-319 0 -514 202t-195 546t200 542.5t509 198.5q201 0 360.5 -85t254 -254t94.5 -398q0 -350 -195 -551t-514 -201zM1323 2015l-336 -440
h-172l258 440h250zM881 2015l-209 -440h-154l123 440h240z" />
    <glyph glyph-name="ohungarumlaut" unicode="&#x151;" horiz-adv-x="1114" 
d="M557 195q113 0 187.5 76.5t74.5 218t-74.5 219t-188.5 76.5t-187.5 -75.5t-73.5 -220t74.5 -220t187.5 -74.5zM557 -33q-225 0 -365.5 139.5t-140.5 381.5t140.5 381t365.5 139t365.5 -138.5t140.5 -381.5t-140.5 -382t-365.5 -139zM1118 1571l-336 -443h-170l256 443
h250zM674 1571l-209 -443h-152l121 443h240z" />
    <glyph glyph-name="OE" unicode="&#x152;" horiz-adv-x="2086" 
d="M780 217q203 0 310 109v768q-111 115 -311.5 114.5t-324.5 -132.5t-124 -359t123.5 -363.5t326.5 -136.5zM2007 1194h-668v-348h516v-209h-516v-406h668v-231h-917v20q-150 -53 -337.5 -53t-349 89t-253 260t-91.5 403q0 340 203 538.5t516 198.5q158 0 312 -61v30h917
v-231z" />
    <glyph glyph-name="oe" unicode="&#x153;" horiz-adv-x="1781" 
d="M557 195q113 1 187 77t75 217q0 141 -75 219q-74 78 -188 78q-114 -2 -188 -76t-73 -220t75 -220t187 -75zM1288 817q-86 0 -148 -62t-77 -188h428q-9 129 -63 189t-140 61zM1731 520v-63h-672q18 -274 270 -275q170 0 318 90l84 -180q-173 -125 -425 -125t-368 176
q-134 -176 -370 -176t-377 139q-140 139 -140 382t140 381q140 139 380 139t373 -185q123 184 354 185q199 0 316 -122t117 -366z" />
    <glyph glyph-name="Racute" unicode="&#x154;" horiz-adv-x="1331" 
d="M422 1192v-420h289q141 0 197 96q28 50 28 135.5t-61.5 137t-163.5 51.5h-289zM422 563v-563h-258v1425h571q223 0 347 -107.5t124 -316.5q0 -154 -76.5 -262t-216.5 -151l342 -588h-305l-303 563h-225zM1001 2019l-260 -442h-170l183 442h247z" />
    <glyph glyph-name="racute" unicode="&#x155;" horiz-adv-x="720" 
d="M639 1006q39 0 68 -11l-2 -219q-135 23 -225.5 -53t-121.5 -236v-487h-245v977h245v-236q35 119 109 192t172 73zM696 1571l-262 -443h-170l182 443h250z" />
    <glyph glyph-name="Rcommaaccent" unicode="&#x156;" horiz-adv-x="1331" 
d="M673 -111q73 0 121 -59t48 -162q0 -254 -256 -370l-82 122q76 35 119 74t63 100q-14 -2 -29 -2q-59 0 -100 39t-41 108t42 109.5t115 40.5zM422 1192v-420h289q141 0 197 96q28 50 28 135.5t-61.5 137t-163.5 51.5h-289zM422 563v-563h-258v1425h571q223 0 347 -107.5
t124 -316.5q0 -154 -77 -262t-216 -151l342 -588h-305l-303 563h-225z" />
    <glyph glyph-name="rcommaaccent" unicode="&#x157;" horiz-adv-x="720" 
d="M251 -111q73 0 121 -59t48 -162q0 -254 -256 -370l-82 122q76 35 119 74t63 100q-14 -2 -28 -2q-59 0 -100.5 39t-41.5 108t42 109.5t115 40.5zM639 1006q39 0 68 -11l-2 -219q-135 23 -225.5 -53t-121.5 -236v-487h-245v977h245v-236q35 119 109 192t172 73z" />
    <glyph glyph-name="Rcaron" unicode="&#x158;" horiz-adv-x="1331" 
d="M422 1192v-420h289q141 0 197 96q28 50 28 135.5t-61.5 137t-163.5 51.5h-289zM422 563v-563h-258v1425h571q223 0 347 -107.5t124 -316.5q0 -154 -76.5 -262t-216.5 -151l342 -588h-305l-303 563h-225zM776 1575h-207l-270 461h197l178 -258l178 258h195z" />
    <glyph glyph-name="rcaron" unicode="&#x159;" horiz-adv-x="720" 
d="M639 1006q39 0 68 -11l-2 -219q-135 23 -225.5 -53t-121.5 -236v-487h-245v977h245v-236q35 119 109 192t172 73zM463 1128h-205l-250 451h174l178 -274l181 274h174z" />
    <glyph glyph-name="Sacute" unicode="&#x15a;" horiz-adv-x="1062" 
d="M879 1110q-143 111 -338 111t-195 -161q0 -81 55.5 -127t151.5 -75q95 -30 151 -52q143 -58 221.5 -151.5t78.5 -251.5q0 -217 -135.5 -326.5t-383 -109.5t-444.5 131l90 236q152 -127 365 -127q152 0 214 83q32 42 31 95q0 101 -67.5 141.5t-181.5 75.5
q-203 59 -305.5 165.5t-102.5 288t117.5 291t356.5 109.5t439 -125zM866 2019l-260 -442h-170l182 442h248z" />
    <glyph glyph-name="sacute" unicode="&#x15b;" horiz-adv-x="854" 
d="M57 716q0 138 97.5 216t287 78t334.5 -80l-80 -180q-115 66 -262.5 65.5t-146.5 -98.5q0 -91 170 -131q158 -31 243.5 -100.5t85.5 -204.5q0 -100 -49 -171q-99 -143 -354 -143q-209 0 -336 80l64 184q123 -72 266 -71q86 0 132 30.5t46 70.5q0 71 -47.5 94.5
t-118.5 39.5q-162 37 -247 110t-85 211zM760 1571l-260 -443h-170l180 443h250z" />
    <glyph glyph-name="Scedilla" unicode="&#x15e;" horiz-adv-x="1062" 
d="M879 1110q-143 111 -338 111t-195 -161q0 -81 55.5 -127t151.5 -75q95 -30 151 -52q143 -58 221.5 -151.5t78.5 -266.5t-104.5 -280.5t-287.5 -132.5l-69 -153q47 20 100 20q94 0 147.5 -53t53.5 -166t-83 -177t-226 -64t-248 71l61 135q20 -18 73.5 -40.5t93.5 -22.5
t58.5 3t34.5 9q62 24 62 95q0 85 -98 85q-54 0 -95 -45l-119 41l97 256q-236 10 -414 129l90 236q152 -127 365 -127q152 0 214 83q32 42 31 95q0 101 -67.5 141.5t-181.5 75.5q-203 59 -305.5 165.5t-102.5 288t117.5 291t356.5 109.5t439 -125z" />
    <glyph glyph-name="scedilla" unicode="&#x15f;" horiz-adv-x="854" 
d="M535 -369q0 86 -99 86q-53 0 -94 -45l-119 41l96 258q-168 10 -272 76l64 184q123 -72 266 -71q86 0 132 30.5t46 70.5q0 71 -47.5 94.5t-118.5 39.5q-162 37 -247 110t-85 211t97.5 216t287 78t334.5 -80l-80 -180q-115 66 -262.5 65.5t-146.5 -98.5q0 -48 36.5 -76.5
t133.5 -54.5q158 -31 243.5 -100.5t85.5 -202.5t-81.5 -212t-229.5 -98l-69 -151q49 20 102 20q94 0 147.5 -53t53.5 -166t-83 -177t-226.5 -64t-247.5 71l59 135q20 -18 74.5 -40.5t104.5 -22.5q145 0 145 106z" />
    <glyph glyph-name="Scaron" unicode="&#x160;" horiz-adv-x="1062" 
d="M879 1110q-143 111 -338 111t-195 -161q0 -81 55 -127t151 -75q96 -30 152 -52q143 -58 221.5 -151.5t78.5 -251.5q0 -217 -135.5 -326.5t-383 -109.5t-444.5 131l90 236q152 -127 365 -127q113 0 179 47t66 139.5t-67.5 133t-181.5 75.5q-203 59 -305.5 165.5
t-102.5 288t117.5 291t356.5 109.5t439 -125zM641 1575h-207l-270 461h196l179 -258l178 258h194z" />
    <glyph glyph-name="scaron" unicode="&#x161;" horiz-adv-x="854" 
d="M786 273.5q0 -142.5 -106.5 -224.5t-306 -82t-326.5 80l64 184q123 -72 266 -71q86 0 132 30.5t46 83.5t-41 77t-125 44q-162 37 -247 110t-85 211t97.5 216t287 78t334.5 -80l-80 -180q-115 66 -262.5 65.5t-146.5 -98.5q0 -63 73 -99q38 -18 97 -32
q158 -31 243.5 -100.5t85.5 -212zM526 1128h-204l-250 451h174l178 -274l180 274h174z" />
    <glyph glyph-name="uni0162" unicode="&#x162;" horiz-adv-x="1040" 
d="M659 -369q-1 86 -101 86q-54 0 -91 -45l-121 41l109 287h-54v1188h-376v237h1011v-237h-377v-1188h-47l-82 -178q47 20 121 20t128.5 -53t54.5 -166t-83 -177t-226.5 -64t-248.5 71l60 135q27 -27 86 -45t100 -18t72 12q65 25 65 94z" />
    <glyph glyph-name="uni0163" unicode="&#x163;" horiz-adv-x="751" 
d="M479 -158q94 0 147.5 -53t53.5 -166t-83 -177t-226 -64t-248 71l59 135q23 -18 76 -40.5t115 -22.5t97.5 27.5t35.5 83.5t-50 75q-16 6 -36 6q-66 0 -107 -45l-118 43l106 283q-150 76 -149 332v458h-115v189h115v299h245v-299h277v-189h-277v-428q0 -174 121 -174
q84 0 158 54l69 -191q-127 -82 -294 -82h-7l-65 -145q47 20 100 20z" />
    <glyph glyph-name="Tcaron" unicode="&#x164;" horiz-adv-x="1040" 
d="M1036 1425v-237h-377v-1188h-258v1188h-376v237h1011zM639 1575h-205l-270 461h194l179 -258l178 258h196z" />
    <glyph glyph-name="tcaron" unicode="&#x165;" horiz-adv-x="753" 
d="M451 -33q-299 0 -299 363v458h-115v189h115v299h245v-299h277v-189h-277v-428q0 -174 121 -174q84 1 158 54l69 -191q-127 -82 -294 -82zM735 1618l-102 -514h-150l25 514h227z" />
    <glyph glyph-name="Tbar" unicode="&#x166;" horiz-adv-x="1040" 
d="M1036 1188h-377v-492h244v-209h-244v-487h-258v487h-243v209h243v492h-376v237h1011v-237z" />
    <glyph glyph-name="tbar" unicode="&#x167;" horiz-adv-x="753" 
d="M451 -33q-299 0 -299 363v129h-113v137h113v215h-115v166h115v299h245v-299h277v-166h-277v-215h273v-137h-273v-119q0 -164 127 -164q90 0 164 53l57 -180q-127 -82 -294 -82z" />
    <glyph glyph-name="Umacron" unicode="&#x16a;" horiz-adv-x="1368" 
d="M686 -33q-258 0 -409.5 164t-151.5 457v837h258v-852q0 -166 82 -262t221 -96t219 96.5t80 261.5v852h258v-837q0 -297 -149.5 -459t-407.5 -162zM334 1677v207h708v-207h-708z" />
    <glyph glyph-name="umacron" unicode="&#x16b;" horiz-adv-x="1081" 
d="M723 977h246v-977h-246v152q-96 -184 -311 -185q-145 0 -228.5 91.5t-83.5 269.5v649h246v-580q0 -155 102 -197q28 -12 66 -12q139 0 209 160v629zM895 1464v-207h-709v207h709z" />
    <glyph glyph-name="Uring" unicode="&#x16e;" horiz-adv-x="1368" 
d="M686 -33q-258 0 -409.5 164t-151.5 457v837h258v-852q0 -166 82 -262t221 -96t219 96.5t80 261.5v852h258v-837q0 -297 -149.5 -459t-407.5 -162zM813 1862q-1 52 -17 82q-34 63 -100.5 63t-102.5 -38t-36 -88q1 -49 17 -79q34 -61 101.5 -61t102.5 35t35 86zM412 1872
q0 117 74.5 191.5t200.5 74.5t200 -78t74 -190.5t-75 -187t-201 -74.5t-199.5 73.5t-73.5 190.5z" />
    <glyph glyph-name="uring" unicode="&#x16f;" horiz-adv-x="1081" 
d="M723 977h246v-977h-246v152q-96 -184 -302 -184t-282 159q-39 82 -39 201v649h246v-580q0 -109 46 -159t122 -50q139 0 209 160v629zM540.5 1559q-57.5 0 -92 -38t-34.5 -98.5t34.5 -95.5t92 -35t92.5 35t35 96.5t-35 98.5t-92.5 37zM541 1159q-127 0 -201 74t-74 190.5
t75 191.5t200 75t199.5 -76t74.5 -191q1 -155 -127 -228q-62 -36 -147 -36z" />
    <glyph glyph-name="Uhungarumlaut" unicode="&#x170;" horiz-adv-x="1368" 
d="M686 -33q-258 0 -409.5 164t-151.5 457v837h258v-852q0 -166 82 -262t221 -96t219 96.5t80 261.5v852h258v-837q0 -297 -149.5 -459t-407.5 -162zM1239 2015l-336 -440h-172l260 440h248zM797 2015l-207 -440h-154l121 440h240z" />
    <glyph glyph-name="uhungarumlaut" unicode="&#x171;" horiz-adv-x="1081" 
d="M723 977h246v-977h-246v152q-96 -184 -311 -185q-145 0 -228.5 91.5t-83.5 269.5v649h246v-580q0 -155 102 -197q28 -12 66 -12q139 0 209 160v629zM764 1128h-170l258 443h250zM657 1571l-208 -443h-154l123 443h239z" />
    <glyph glyph-name="Uogonek" unicode="&#x172;" horiz-adv-x="1368" 
d="M985 1425h258v-837q0 -229 -92 -380t-258 -208q-264 -141 -264 -295q0 -104 104 -104q88 0 168 47l41 -166q-125 -63 -283 -64q-82 0 -138 31q-107 59 -107 197q0 186 219 323q-319 25 -445 298q-62 136 -63 321v837h258v-852q0 -166 82 -262t221 -96t219 96.5t80 261.5
v852z" />
    <glyph glyph-name="uogonek" unicode="&#x173;" horiz-adv-x="1081" 
d="M756.5 -602q-134.5 0 -193.5 58.5t-59 152.5q0 223 284 391h-65v152q-96 -184 -311 -185q-145 0 -228.5 91.5t-83.5 269.5v649h246v-580q0 -109 46 -159t122 -50q139 0 209 160v629h246v-977q-199 -155 -233 -238q-18 -45 -19 -92q0 -90 96 -90q82 0 168 53l39 -165
q-129 -70 -263.5 -70z" />
    <glyph glyph-name="Wcircumflex" unicode="&#x174;" horiz-adv-x="1892" 
d="M1591 1425h262l-344 -1425h-299l-211 762q-25 96 -59 252q-39 -164 -63 -252l-232 -762h-299l-309 1425h278l170 -929q25 -186 25 -195q25 121 45 193l274 919h246l246 -899q25 -100 43 -203q31 190 33 201zM942 1823l-178 -256h-197l271 461h206l271 -461h-195z" />
    <glyph glyph-name="wcircumflex" unicode="&#x175;" horiz-adv-x="1452" 
d="M1180 977h258l-293 -977h-242l-190 643l-215 -643h-236l-248 977h254l135 -670l207 666h221l191 -651zM715 1403l-180 -275h-175l250 451h207l250 -451h-174z" />
    <glyph glyph-name="Ycircumflex" unicode="&#x176;" horiz-adv-x="1181" 
d="M721 0h-258v528l-445 897h283l293 -651l291 651h278l-442 -882v-543zM588 1823l-180 -256h-195l270 461h205l273 -461h-197z" />
    <glyph glyph-name="ycircumflex" unicode="&#x177;" horiz-adv-x="1034" 
d="M762 977h258l-588 -1483h-256l217 510l-379 973h262l238 -698zM516 1403l-178 -275h-174l250 451h207l249 -451h-174z" />
    <glyph glyph-name="Ydieresis" unicode="&#x178;" horiz-adv-x="1181" 
d="M721 0h-258v528l-445 897h283l293 -651l291 651h278l-442 -882v-543zM798 1608q-60 0 -102.5 42t-42.5 101t42 102t102.5 43t101.5 -43t41 -102t-41 -101t-101 -42zM384 1608q-60 0 -102 42t-42 101t42 102t102 43t101 -43t41 -102t-41 -101t-101 -42z" />
    <glyph glyph-name="Zacute" unicode="&#x179;" horiz-adv-x="1095" 
d="M1067 229v-229h-999v215l618 977h-647v233h973v-217l-637 -979h692zM913 2019l-260 -442h-170l183 442h247z" />
    <glyph glyph-name="zacute" unicode="&#x17a;" horiz-adv-x="792" 
d="M772 193v-193h-735v190l418 594h-435v193h719v-189l-428 -595h461zM731 1571l-260 -443h-170l182 443h248z" />
    <glyph glyph-name="Zdotaccent" unicode="&#x17b;" horiz-adv-x="1095" 
d="M1067 229v-229h-999v215l618 977h-647v233h973v-217l-637 -979h692zM482.5 1652.5q-44.5 42.5 -44.5 106t44 108t106.5 44.5t105.5 -44t43 -96.5t-19.5 -86t-54 -54t-85.5 -20.5t-95.5 42.5z" />
    <glyph glyph-name="zdotaccent" unicode="&#x17c;" horiz-adv-x="792" 
d="M772 193v-193h-735v190l418 594h-435v193h719v-189l-428 -595h461zM405.5 1161q-63.5 0 -106.5 44t-43 106.5t43 106.5t106.5 44t106.5 -44t43 -106.5t-43 -106.5t-106.5 -44z" />
    <glyph glyph-name="Zcaron" unicode="&#x17d;" horiz-adv-x="1095" 
d="M1067 229v-229h-999v215l618 977h-647v233h973v-217l-637 -979h692zM688 1575h-205l-272 461h197l178 -258l178 258h197z" />
    <glyph glyph-name="zcaron" unicode="&#x17e;" horiz-adv-x="792" 
d="M772 193v-193h-735v190l418 594h-435v193h719v-189l-428 -595h461zM500 1128h-207l-250 451h174l180 -274l178 274h175z" />
    <glyph glyph-name="uni01CD" unicode="&#x1cd;" horiz-adv-x="1261" 
d="M426 514h381l-199 639zM965 0l-95 305h-503l-86 -305h-254l438 1425h301l471 -1425h-272zM719 1575h-207l-270 461h196l178 -258l179 258h194z" />
    <glyph glyph-name="uni01CE" unicode="&#x1ce;" horiz-adv-x="1011" 
d="M442 135q155 0 226 139v91q-94 72 -219 71q-74 0 -122 -40t-48 -110.5t45.5 -110.5t117.5 -40zM504 1008q401 0 401 -416v-592h-237v104q-113 -137 -308 -137q-139 0 -226 79t-87 234t98.5 236.5t250 81.5t272.5 -78v51q0 227 -215 228q-156 0 -275 -74l-84 172
q166 111 410 111zM623 1128h-207l-250 451h174l180 -274l178 274h174z" />
    <glyph glyph-name="uni01CF" unicode="&#x1cf;" horiz-adv-x="565" 
d="M154 0v1425h258v-1425h-258zM393 1575h-207l-270 461h195l180 -258l176 258h197z" />
    <glyph glyph-name="uni01D0" unicode="&#x1d0;" horiz-adv-x="501" 
d="M127 0v977h246v-977h-246zM354 1128h-207l-249 451h174l180 -274l178 274h174z" />
    <glyph glyph-name="uni01D1" unicode="&#x1d1;" horiz-adv-x="1536" 
d="M769 217q198 0 317.5 135t119.5 363.5t-120.5 360.5t-317.5 132t-317.5 -132t-120.5 -359t120.5 -363.5t318.5 -136.5zM768 1456q201 0 360.5 -85t254 -254t94.5 -398q0 -350 -195 -551t-514 -201q-209 0 -368.5 89t-250 260t-90.5 403q0 340 200 538.5t509 198.5z
M877 1575h-205l-271 461h195l178 -258l178 258h197z" />
    <glyph glyph-name="uni01D2" unicode="&#x1d2;" horiz-adv-x="1114" 
d="M557 195q113 0 187.5 76.5t74.5 218t-74.5 219t-188.5 76.5t-187.5 -75.5t-73.5 -220t74.5 -220t187.5 -74.5zM557 1008q225 0 365.5 -138.5t140.5 -381.5t-140.5 -382t-365.5 -139t-365.5 139.5t-140.5 381.5t140.5 381t365.5 139zM659 1128h-204l-250 451h174l178 -274
l180 274h172z" />
    <glyph glyph-name="uni01D3" unicode="&#x1d3;" horiz-adv-x="1368" 
d="M985 1425h258v-837q0 -297 -149.5 -459t-407.5 -162t-409.5 164t-151.5 457v837h258v-852q0 -166 82 -262t221 -96t219 96.5t80 261.5v852zM795 1575h-207l-271 461h197l178 -258l178 258h195z" />
    <glyph glyph-name="uni01D4" unicode="&#x1d4;" horiz-adv-x="1081" 
d="M723 977h246v-977h-246v152q-96 -184 -302 -184t-282 159q-39 82 -39 201v649h246v-580q0 -155 102 -197q28 -12 66 -12q139 0 209 160v629zM643 1128h-207l-248 451h172l181 -274l180 274h172z" />
    <glyph glyph-name="Scommaaccent" unicode="&#x218;" horiz-adv-x="1062" 
d="M549.5 -111q71.5 0 120.5 -59t49 -162q0 -254 -256 -370l-84 122q98 44 133 87.5t49 86.5q-14 -2 -29 -2q-57 0 -99 39t-42 108t43.5 109.5t115 40.5zM879 1110q-143 111 -338 111t-195 -161q0 -81 55 -127t144 -72.5t137 -44.5t100 -46q94 -50 158 -138t64 -229
q0 -217 -135.5 -326.5t-383 -109.5t-444.5 131l90 236q152 -127 365 -127q152 0 214 83q32 42 31 95q0 101 -67.5 141.5t-181.5 75.5q-203 59 -305.5 165.5t-102.5 288t117.5 291t356.5 109.5t439 -125z" />
    <glyph glyph-name="scommaaccent" unicode="&#x219;" horiz-adv-x="854" 
d="M413 -111q73 0 121 -59t48 -162q0 -254 -256 -370l-82 122q93 44 130.5 87.5t49.5 86.5q-12 -2 -27 -2q-59 0 -100 39t-41 108t42 109.5t115 40.5zM786 273.5q0 -142.5 -106.5 -224.5t-306 -82t-326.5 80l64 184q123 -72 266 -71q86 0 132 30.5t46 83.5t-41 77t-125 44
q-162 37 -247 110t-85 211t97.5 216t287 78t334.5 -80l-80 -180q-115 66 -262.5 65.5t-146.5 -98.5q0 -63 73 -99q38 -18 97 -32q158 -31 243.5 -100.5t85.5 -212z" />
    <glyph glyph-name="uni021A" unicode="&#x21a;" horiz-adv-x="1040" 
d="M537.5 -111q72.5 0 121 -59t48.5 -162q0 -254 -256 -370l-82 122q94 44 130 87.5t50 86.5q-14 -2 -29 -2q-57 0 -98 39t-41 108t42 109.5t114.5 40.5zM25 1425h1011v-237h-377v-1188h-258v1188h-376v237z" />
    <glyph glyph-name="uni021B" unicode="&#x21b;" horiz-adv-x="751" 
d="M555 -332q0 -254 -256 -370l-84 122q97 47 122 76q46 54 60 98q-14 -2 -28 -2q-59 0 -100.5 39t-41.5 114q-1 75 59 119q35 25 103 25t117 -59t49 -162zM451 -33q-299 0 -299 363v458h-115v189h115v299h245v-299h277v-189h-277v-428q0 -174 121 -174q84 0 158 54l69 -191
q-126 -82 -294 -82z" />
    <glyph glyph-name="circumflex" unicode="&#x2c6;" horiz-adv-x="1228" 
d="M739 1128h-174l-180 275l-178 -275h-174l250 451h206z" />
    <glyph glyph-name="caron" unicode="&#x2c7;" horiz-adv-x="1228" 
d="M573 1579h175l-252 -451h-205l-250 451h174l178 -274z" />
    <glyph glyph-name="breve" unicode="&#x2d8;" horiz-adv-x="1228" 
d="M402.5 1319q174.5 0 164.5 258h193q12 -207 -80 -313.5t-276.5 -106.5t-278.5 106.5t-82 313.5h193q-8 -258 166.5 -258z" />
    <glyph glyph-name="dotaccent" unicode="&#x2d9;" horiz-adv-x="1228" 
d="M41 1311q0 41 19.5 75.5t54.5 55t87 20.5t95 -44t43 -106.5t-43 -106.5t-95 -44t-87 20.5t-54.5 54.5t-19.5 75z" />
    <glyph glyph-name="ring" unicode="&#x2da;" horiz-adv-x="940" 
d="M422 1423.5q0 61.5 -35 98.5t-82 37q-47 1 -77 -17q-60 -36 -60 -108t35 -107t92 -35t92 35t35 96.5zM20 1423.5q0 116.5 75 191.5t200 75q189 0 255 -163q20 -48 19 -104q0 -115 -74.5 -189.5t-200.5 -74.5t-200 74t-74 190.5z" />
    <glyph glyph-name="ogonek" unicode="&#x2db;" horiz-adv-x="1228" 
d="M304 -555q-134 0 -193 58t-60 153q0 264 404 453l63 -62q-195 -145 -234 -237q-19 -45 -20 -93q0 -90 96 -90q84 0 168 54l41 -166q-131 -70 -265 -70z" />
    <glyph glyph-name="tilde" unicode="&#x2dc;" horiz-adv-x="1228" 
d="M238 1554q59 0 106 -31.5t109 -88.5q83 -95 125 -95q74 0 69 211h172q16 -414 -192 -413q-49 0 -74 11t-35 15q-12 5 -61.5 44t-71 62.5t-48 50t-54.5 26.5q-39 0 -54.5 -49.5t-15.5 -153.5h-170q-19 411 195 411z" />
    <glyph glyph-name="hungarumlaut" unicode="&#x2dd;" horiz-adv-x="1228" 
d="M834 1571l-336 -443h-170l258 443h248zM391 1571l-209 -443h-153l121 443h241z" />
    <glyph glyph-name="gravecomb" unicode="&#x300;" 
d="M-41 1128h-170l-260 443h248z" />
    <glyph glyph-name="acutecomb" unicode="&#x301;" 
d="M-39 1571l-260 -443h-170l182 443h248z" />
    <glyph glyph-name="uni0302" unicode="&#x302;" 
d="M-33 1128h-174l-180 275l-178 -275h-174l250 451h206z" />
    <glyph glyph-name="tildecomb" unicode="&#x303;" 
d="M-623 1554q57 0 105.5 -31.5t109.5 -88.5q83 -95 125 -95q72 0 70 211h170q18 -414 -190 -413q-51 0 -75 11t-35 15t-32.5 21.5t-27 21.5t-33.5 28t-44 41q-65 71 -103 71q-68 0 -64 -203h-170q-10 215 39 313t155 98z" />
    <glyph glyph-name="uni0304" unicode="&#x304;" 
d="M-750 1464h709v-207h-709v207z" />
    <glyph glyph-name="uni0306" unicode="&#x306;" 
d="M-400 1319q175 0 164 258h193q12 -207 -80 -313.5t-276.5 -106.5t-277.5 106.5t-83 313.5h193q-8 -258 167 -258z" />
    <glyph glyph-name="uni0307" unicode="&#x307;" 
d="M-324 1311q0 41 20 75q43 75 118 75.5t118 -43.5t43 -106.5t-43 -106.5t-95 -44t-87 20.5t-54.5 54.5t-19.5 75z" />
    <glyph glyph-name="uni0308" unicode="&#x308;" 
d="M-324 1381q0 48 41 90t100.5 42t100.5 -41.5t41 -100t-41 -100.5t-90 -42t-82 19.5t-51.5 52t-18.5 80.5zM-768 1371.5q0 58.5 42 100t100.5 41.5t99.5 -41.5t41 -100t-41 -100.5t-99.5 -42t-100.5 42t-42 100.5z" />
    <glyph glyph-name="uni030A" unicode="&#x30a;" 
d="M-156 1423.5q0 61.5 -35.5 98.5t-92 37t-92.5 -38t-36 -98.5t35 -95.5t92.5 -35t93 35t35.5 96.5zM-559 1423.5q0 116.5 74.5 191.5t199.5 75q85 0 147 -36q128 -74 128 -231q0 -115 -74 -189.5t-200 -74.5t-200.5 74t-74.5 190.5z" />
    <glyph glyph-name="uni030B" unicode="&#x30b;" 
d="M-31 1571l-336 -443h-170l258 443h248zM-475 1571l-207 -443h-154l121 443h240z" />
    <glyph glyph-name="uni030C" unicode="&#x30c;" 
d="M-215 1579h174l-250 -451h-207l-250 451h175l178 -274z" />
    <glyph glyph-name="uni0312" unicode="&#x312;" 
d="M-169 1444q38 0 77 -34t39 -100.5t-44 -105.5t-118 -39t-119 57.5t-45 137.5q0 297 256 387l80 -121q-107 -52 -141.5 -98.5t-46.5 -91.5q24 8 62 8z" />
    <glyph glyph-name="uni0326" unicode="&#x326;" 
d="M-256.5 -111q72.5 0 120.5 -59t48 -162q0 -254 -256 -370l-84 122q98 44 133 87.5t49 86.5q-14 -2 -28 -2q-57 0 -99.5 39t-42.5 108t43.5 109.5t116 40.5z" />
    <glyph glyph-name="uni0327" unicode="&#x327;" 
d="M-283 -139q94 0 147.5 -53.5t53.5 -166t-83 -177t-226 -64.5t-248 72l59 133q20 -16 74.5 -39t116.5 -23t97.5 28t35.5 66t-9 57q-20 42 -81.5 42t-102.5 -45l-118 41l110 291h156l-82 -183q47 21 100 21z" />
    <glyph glyph-name="uni0328" unicode="&#x328;" 
d="M-316.5 -555q-134.5 0 -193.5 58.5t-59 152.5q0 264 403 453l64 -62q-114 -89 -164 -140q-90 -92 -90 -190q0 -90 96 -90q84 0 168 54l41 -166q-131 -70 -265.5 -70z" />
    <glyph glyph-name="uni0335" unicode="&#x335;" 
d="M-786 461v209h745v-209h-745z" />
    <glyph glyph-name="uni0336" unicode="&#x336;" 
 />
    <glyph glyph-name="uni0337" unicode="&#x337;" 
d="M-788 137l-199 156l764 862l207 -147z" />
    <glyph glyph-name="uni0338" unicode="&#x338;" 
 />
    <glyph glyph-name="Wgrave" unicode="&#x1e80;" horiz-adv-x="1892" 
d="M1591 1425h262l-344 -1425h-299l-211 762q-25 96 -59 252q-39 -164 -63 -252l-232 -762h-299l-309 1425h278l170 -929q25 -186 25 -195q25 121 45 193l274 919h246l246 -899q25 -100 43 -203q31 190 33 201zM1028 1575h-174l-281 442h248z" />
    <glyph glyph-name="wgrave" unicode="&#x1e81;" horiz-adv-x="1452" 
d="M1180 977h258l-293 -977h-242l-190 643l-215 -643h-236l-248 977h254l135 -670l207 666h221l191 -651zM807 1128h-170l-260 443h248z" />
    <glyph glyph-name="Wacute" unicode="&#x1e82;" horiz-adv-x="1892" 
d="M1591 1425h262l-344 -1425h-299l-211 762q-25 96 -59 252q-39 -164 -63 -252l-232 -762h-299l-309 1425h278l170 -929q25 -186 25 -195q25 121 45 193l274 919h246l246 -899q25 -100 43 -203q31 190 33 201zM1370 1999l-342 -424h-194l268 424h268z" />
    <glyph glyph-name="wacute" unicode="&#x1e83;" horiz-adv-x="1452" 
d="M1180 977h258l-293 -977h-242l-190 643l-215 -643h-236l-248 977h254l135 -670l207 666h221l191 -651zM1049 1571l-261 -443h-170l183 443h248z" />
    <glyph glyph-name="Wdieresis" unicode="&#x1e84;" horiz-adv-x="1892" 
d="M1591 1425h262l-344 -1425h-299l-211 762q-25 96 -59 252q-39 -164 -63 -252l-232 -762h-299l-309 1425h278l170 -929q25 -186 25 -195q25 121 45 193l274 919h246l246 -899q25 -100 43 -203q31 190 33 201zM1152 1608q-60 0 -101 42t-41 91t18 83q39 72 125 72
q59 0 101 -43t42 -102t-42 -101t-102 -42zM729 1608q-49 0 -91 42t-42 101t42 102t91 43t82 -19t51.5 -53t18.5 -73t-18.5 -71.5t-51.5 -52t-82 -19.5z" />
    <glyph glyph-name="wdieresis" unicode="&#x1e85;" horiz-adv-x="1452" 
d="M1180 977h258l-293 -977h-242l-190 643l-215 -643h-236l-248 977h254l135 -670l207 666h221l191 -651zM936 1229q-59 0 -100 42t-41 100.5t41 100t100 41.5t100 -41.5t41 -100t-41 -100.5t-100 -42zM492.5 1229q-58.5 0 -99.5 42t-41 100.5t41 100t89 41.5q50 0 82 -19
q70 -41 69 -124q0 -57 -41 -99t-99.5 -42z" />
    <glyph glyph-name="Ygrave" unicode="&#x1ef2;" horiz-adv-x="1181" 
d="M721 0h-258v528l-445 897h283l293 -651l291 651h278l-442 -882v-543zM674 1575h-174l-283 442h250z" />
    <glyph glyph-name="ygrave" unicode="&#x1ef3;" horiz-adv-x="1034" 
d="M762 977h258l-588 -1483h-256l217 510l-379 973h262l238 -698zM610 1128h-170l-262 443h250z" />
    <glyph glyph-name="endash" unicode="&#x2013;" horiz-adv-x="1118" 
d="M66 461v209h987v-209h-987z" />
    <glyph glyph-name="emdash" unicode="&#x2014;" horiz-adv-x="1368" 
d="M66 461v209h1237v-209h-1237z" />
    <glyph glyph-name="quoteleft" unicode="&#x2018;" horiz-adv-x="499" 
d="M273 1157q30 0 59 -14q63 -30 63 -105t-39 -113q-40 -38 -112 -38t-119 62t-47 190t73 239t195 166l80 -121q-86 -31 -141 -101t-62 -159v-12q20 6 50 6z" />
    <glyph glyph-name="quoteright" unicode="&#x2019;" horiz-adv-x="499" 
d="M256 1546q72 0 119 -62t47 -189t-72 -239t-194 -165l-82 119q86 30 142 100t63 160v12q-23 -6 -62 -6t-76 35t-37 97t39 100q41 38 113 38z" />
    <glyph glyph-name="quotesinglbase" unicode="&#x201a;" horiz-adv-x="913" 
d="M258 287q78 -1 124 -61t46 -173q0 -168 -80 -306t-215 -200l-84 123q184 102 219 297q-10 -2 -20 -2q-61 0 -105 43q-43 44 -43 104q0 113 79 155q36 20 79 20z" />
    <glyph glyph-name="quotedblleft" unicode="&#x201c;" horiz-adv-x="894" 
d="M282 1157q39 0 76 -35t37 -97t-39 -100q-40 -38 -112 -38t-119 62t-47 190t73 239t195 166l80 -121q-118 -41 -172 -146q-31 -61 -31 -126q20 6 59 6zM676 1159q39 0 76 -35q36 -35 36 -108t-66 -111q-30 -16 -73 -16q-84 0 -131 62t-47 189t73 239t195 165l80 -119
q-86 -31 -141 -101t-62 -159v-14q21 8 60 8z" />
    <glyph glyph-name="quotedblright" unicode="&#x201d;" horiz-adv-x="899" 
d="M821 1292q-1 -128 -73 -240q-72 -110 -195 -165l-82 121q86 28 143 97q56 69 62 161v14q-20 -6 -59 -6t-76 35t-37 86t17 83q35 66 121 66q85 0 132 -62t47 -190zM256 1546q72 0 119 -62t47 -189t-72 -239t-194 -165l-82 119q86 30 142 100t63 160v12q-23 -6 -62 -6
t-76 35t-37 97t39 100q41 38 113 38z" />
    <glyph glyph-name="quotedblbase" unicode="&#x201e;" horiz-adv-x="917" 
d="M664 287q113 0 157 -105q23 -53 23 -129q0 -168 -80 -306t-217 -200l-82 123q184 102 219 297q-10 -2 -20 -2q-61 0 -105 43q-43 43 -43 116t45 118t103 45zM109 124q1 73 45 118t116 45q72 -1 118 -61t46 -173q0 -168 -79 -306t-216 -200l-82 123q184 102 219 297
q-10 -2 -20 -2q-63 0 -105 43t-42 116z" />
    <glyph glyph-name="dagger" unicode="&#x2020;" horiz-adv-x="778" 
d="M752 975v-209h-242v-1143h-246v1143h-239v209h239v450h246v-450h242z" />
    <glyph glyph-name="daggerdbl" unicode="&#x2021;" horiz-adv-x="778" 
d="M752 766h-242v-504h242v-209h-242v-430h-246v430h-239v209h239v504h-239v209h239v450h246v-450h242v-209z" />
    <glyph glyph-name="bullet" unicode="&#x2022;" horiz-adv-x="567" 
d="M59 670q0 78 29 130t81 82t130 30q77 0 143 -66t66 -160t-66 -159t-160 -65t-158 66q-65 64 -65 142z" />
    <glyph glyph-name="ellipsis" unicode="&#x2026;" horiz-adv-x="1323" 
d="M891 140q0 56 46 105q46 48 115 48q70 0 116 -48q46 -49 46 -105q0 -105 -79 -151q-37 -22 -82 -22t-83 22q-38 23 -58 59t-21 92zM496 129q0 68 47 116t115 48t114 -48q47 -49 47 -105q0 -106 -80 -151q-37 -22 -93 -22t-104 47q-46 47 -46 115zM98 129q0 68 47 116
t116 48t115 -48q46 -49 46 -105q0 -105 -80 -151q-38 -22 -94 -22t-103 47t-47 115z" />
    <glyph glyph-name="perthousand" unicode="&#x2030;" horiz-adv-x="2414" 
d="M2206 316q0 76 -49 132t-128 56t-128 -55t-49 -119q-1 -120 81 -172q41 -27 109 -27t116 54t48 131zM1128 331q0 -92 48 -146t130 -54q81 0 129 54t48 126q1 72 -23 105q-63 88 -155 88q-51 0 -93 -27q-84 -54 -84 -146zM1686 316q0 153 94 250q94 98 248 98t250 -98
t96 -251q0 -151 -96 -249t-250 -98t-248 97q-94 98 -94 251zM1305 -33q-154 0 -248 98t-94 251t94 250t248 98q102 0 181 -46t122 -124t43 -178t-43 -179q-43 -80 -122 -125t-181 -45zM563 1096q0 125 -83 175q-42 25 -94 25t-93 -26q-86 -54 -84 -160q0 -78 48 -131
t129 -53t129 53t48 117zM1255 1425l-563 -1425h-248l564 1425h247zM43 1109q0 153 94 251t248 98t250 -98t96 -250q0 -100 -43 -179t-122 -125t-181 -46q-154 0 -248 98t-94 251z" />
    <glyph glyph-name="guilsinglleft" unicode="&#x2039;" horiz-adv-x="729" 
d="M631 1047v-244l-408 -225l408 -238v-244l-586 373v223z" />
    <glyph glyph-name="guilsinglright" unicode="&#x203a;" horiz-adv-x="727" 
d="M98 1047l586 -355v-223l-586 -373v244l408 238l-408 225v244z" />
    <glyph glyph-name="fraction" unicode="&#x2044;" horiz-adv-x="919" 
d="M889 1425l-610 -1425h-248l610 1425h248z" />
    <glyph glyph-name="Euro" unicode="&#x20ac;" horiz-adv-x="1337" 
d="M723 -33q-256 1 -423 145t-212 406h-151v139h137q-2 27 -2 60t2 67h-137v140h157q60 250 244 391t442 141q309 0 518 -190l-141 -213q-147 154 -375 153q-147 0 -255 -72t-154 -210h485v-140h-514q-2 -34 -2 -66t2 -61h514v-139h-491q41 -143 141 -220t244 -77
q282 0 440 219l123 -221q-92 -119 -246 -185t-346 -67z" />
    <glyph glyph-name="trademark" unicode="&#x2122;" horiz-adv-x="1505" 
d="M1303 702v297q0 76 6 193l-187 -422h-102l-182 422q4 -92 4 -193v-297h-154v723h197l192 -467l189 467h190l6 -723h-159zM23 1268v157h583v-157h-207v-566h-178v566h-198z" />
    <glyph glyph-name="partialdiff" unicode="&#x2202;" horiz-adv-x="1228" 
 />
    <glyph glyph-name="emptyset" unicode="&#x2205;" horiz-adv-x="1228" 
 />
    <glyph glyph-name="product" unicode="&#x220f;" horiz-adv-x="1228" 
 />
    <glyph glyph-name="summation" unicode="&#x2211;" horiz-adv-x="1228" 
 />
    <glyph glyph-name="minus" unicode="&#x2212;" horiz-adv-x="1122" 
d="M104 786h914v-215h-914v215z" />
    <glyph glyph-name="radical" unicode="&#x221a;" horiz-adv-x="1228" 
 />
    <glyph glyph-name="infinity" unicode="&#x221e;" horiz-adv-x="1228" 
 />
    <glyph glyph-name="integral" unicode="&#x222b;" horiz-adv-x="1228" 
 />
    <glyph glyph-name="approxequal" unicode="&#x2248;" horiz-adv-x="1228" 
 />
    <glyph glyph-name="notequal" unicode="&#x2260;" horiz-adv-x="1122" 
d="M1018 782h-281l-123 -245h404v-215h-512l-103 -207l-186 80l64 127h-177v215h285l123 245h-408v217h517l90 183l186 -80l-51 -103h172v-217z" />
    <glyph glyph-name="lessequal" unicode="&#x2264;" horiz-adv-x="1228" 
 />
    <glyph glyph-name="greaterequal" unicode="&#x2265;" horiz-adv-x="1228" 
 />
    <glyph glyph-name="lozenge" unicode="&#x25ca;" horiz-adv-x="1228" 
 />
    <glyph glyph-name="G.ss01" horiz-adv-x="1503" 
d="M727 823h684v-94q0 -383 -193 -573q-193 -189 -492.5 -189t-482 199t-182.5 545t196 545.5t513 199.5q227 0 398 -99q83 -48 143 -114l-172 -184q-145 147 -357.5 147t-334 -134t-121.5 -359t112.5 -357.5t288.5 -132.5t288.5 96.5t133.5 286.5h-422v217z" />
    <glyph glyph-name="Gbreve.ss01" horiz-adv-x="1503" 
d="M727 823h684v-94q0 -383 -193.5 -572.5t-492.5 -189.5t-481.5 199t-182.5 545t196 545.5t513 199.5q227 0 398 -99q83 -48 143 -114l-172 -184q-145 147 -357.5 147t-334 -134t-121.5 -359t112.5 -357.5t288.5 -132.5t288.5 96.5t133.5 286.5h-422v217zM755 1587
q-183 0 -277.5 106.5t-82.5 313.5h193q-8 -258 166 -258t166 258h192q12 -207 -81 -313.5t-276 -106.5z" />
    <glyph glyph-name="Gcommaaccent.ss01" horiz-adv-x="1503" 
d="M759.5 -111q72.5 0 120.5 -59t48 -162q0 -254 -256 -370l-82 122q96 45 132 88t48 86q-12 -2 -27 -2q-59 0 -100 39t-41 108t42.5 109.5t115 40.5zM727 823h684v-94q0 -383 -193.5 -572.5t-492.5 -189.5t-481.5 199t-182.5 545t196 545.5t513 199.5q227 0 398 -99
q83 -48 143 -114l-172 -184q-145 147 -357.5 147t-334 -134t-121.5 -359t112.5 -357.5t288.5 -132.5t288.5 96.5t133.5 286.5h-422v217z" />
    <glyph glyph-name="Q.ss01" horiz-adv-x="1536" 
d="M330 717q0 -227 120.5 -363.5t318.5 -136.5t317.5 135t119.5 363.5t-120.5 360.5t-317.5 132t-317.5 -132t-120.5 -359zM1477 719q0 -377 -224 -580l160 -202l-192 -156l-183 231q-125 -45 -270 -45q-319 0 -514 202t-195 546t200 542.5t509 198.5q201 0 360.5 -85
t254 -254t94.5 -398z" />
    <glyph glyph-name="W.ss01" horiz-adv-x="2113" 
d="M1845 1425h262l-571 -1425h-266l-230 561l-249 -561h-269l-516 1425h277l391 -1134l248 565l-232 569h262l105 -260l112 258h256l-247 -555l231 -571z" />
    <glyph glyph-name="Gdotaccent.sso1" horiz-adv-x="1396" 
d="M705 815h598v-745q-281 -102 -577 -102t-481.5 196t-185.5 544t195 548q194 200 518 200t524 -196l-157 -191q-145 139 -357 139t-334 -135t-122 -363t116.5 -361.5t319.5 -133.5q162 0 282 51v340h-339v209zM759.5 1608q-61.5 0 -104.5 43t-43 103.5t43 103.5t104.5 43
t103.5 -43t42 -103.5t-42 -103.5t-103.5 -43z" />
    <glyph glyph-name="A.swsh" horiz-adv-x="1665" 
d="M829 514h381l-198 639zM592 1214q-352 0 -352 -239q0 -223 258 -227l-56 -197q-314 21 -399 275q-23 68 -23 153q0 175 129.5 309.5t475.5 134.5h243v2h303l469 -1425h-270l-96 305h-504l-86 -305h-254l375 1214h-213z" />
    <glyph glyph-name="Aacute.swsh" horiz-adv-x="1665" 
d="M829 514h381l-198 639zM592 1214q-352 0 -352 -239q0 -223 258 -227l-56 -197q-314 21 -399 275q-23 68 -23 153q0 175 129.5 309.5t475.5 134.5h243v2h303l469 -1425h-270l-96 305h-504l-86 -305h-254l375 1214h-213zM1436 1999l-342 -424h-195l266 424h271z" />
    <glyph glyph-name="Abreve.swsh" horiz-adv-x="1665" 
d="M829 514h381l-198 639zM592 1214q-352 0 -352 -239q0 -223 258 -227l-56 -197q-314 21 -399 275q-23 68 -23 153q0 175 129.5 309.5t475.5 134.5h243v2h303l469 -1425h-270l-96 305h-504l-86 -305h-254l375 1214h-213zM1013 1587q-183 0 -277.5 106.5t-82.5 313.5h193
q-8 -258 166 -258t166 258h192q12 -207 -81 -313.5t-276 -106.5z" />
    <glyph glyph-name="uni01CD.swsh" horiz-adv-x="1665" 
d="M829 514h381l-198 639zM592 1214q-352 0 -352 -239q0 -223 258 -227l-56 -197q-314 21 -399 275q-23 68 -23 153q0 175 129.5 309.5t475.5 134.5h243v2h303l469 -1425h-270l-96 305h-504l-86 -305h-254l375 1214h-213zM1118 1575h-205l-270 461h195l178 -258l178 258h197
z" />
    <glyph glyph-name="Acircumflex.swsh" horiz-adv-x="1665" 
d="M829 514h381l-198 639zM592 1214q-352 0 -352 -239q0 -223 258 -227l-56 -197q-314 21 -399 275q-23 68 -23 153q0 175 129.5 309.5t475.5 134.5h243v2h303l469 -1425h-270l-96 305h-504l-86 -305h-254l375 1214h-213zM1006 1823l-179 -256h-196l272 461h205l272 -461
h-196z" />
    <glyph glyph-name="Adieresis.swsh" horiz-adv-x="1665" 
d="M829 514h381l-198 639zM592 1214q-352 0 -352 -239q0 -223 258 -227l-56 -197q-314 21 -399 275q-23 68 -23 153q0 175 129.5 309.5t475.5 134.5h243v2h303l469 -1425h-270l-96 305h-504l-86 -305h-254l375 1214h-213zM1216.5 1608q-59.5 0 -101.5 42t-42 101t42 102
t101.5 43t101.5 -43t42 -102t-42 -101t-101.5 -42zM802.5 1608q-59.5 0 -101.5 42t-42 101t42 102t101.5 43t101.5 -43t42 -102t-42 -101t-101.5 -42z" />
    <glyph glyph-name="Agrave.swsh" horiz-adv-x="1665" 
d="M829 514h381l-198 639zM592 1214q-352 0 -352 -239q0 -223 258 -227l-56 -197q-314 21 -399 275q-23 68 -23 153q0 175 129.5 309.5t475.5 134.5h243v2h303l469 -1425h-270l-96 305h-504l-86 -305h-254l375 1214h-213zM1094 1575h-174l-283 442h248z" />
    <glyph glyph-name="Amacron.swsh" horiz-adv-x="1665" 
d="M829 514h381l-198 639zM592 1214q-352 0 -352 -239q0 -223 258 -227l-56 -197q-314 21 -399 275q-23 68 -23 153q0 175 129.5 309.5t475.5 134.5h243v2h303l469 -1425h-270l-96 305h-504l-86 -305h-254l375 1214h-213zM1366 1884v-207h-709v207h709z" />
    <glyph glyph-name="Aogonek.swsh" horiz-adv-x="1665" 
d="M829 514h381l-198 639zM1376 -602q-139 0 -200.5 62.5t-61.5 164.5q0 225 307 375h-51l-96 305h-504l-86 -305h-254l375 1214h-213q-352 0 -352 -239q0 -223 258 -227l-56 -197q-314 21 -399 275q-23 68 -23 153q0 175 129.5 309.5t475.5 134.5h243v2h303l469 -1425h-8
q-305 -150 -305 -315q0 -104 107 -105q86 0 168 47l38 -166q-125 -63 -264 -63z" />
    <glyph glyph-name="Aring.swsh" horiz-adv-x="1665" 
d="M829 514h381l-198 639zM592 1214q-352 0 -352 -239q0 -223 258 -227l-56 -197q-314 21 -399 275q-23 68 -23 153q0 175 129.5 309.5t475.5 134.5h243v2h303l469 -1425h-270l-96 305h-504l-86 -305h-254l375 1214h-213zM999 1696q127 0 127 120q0 56 -31.5 89.5
t-83.5 33.5t-85 -34.5t-33 -80.5q1 -46 15 -74q28 -54 91 -54zM1010 1561q-123 0 -194 69.5t-71 185.5t72 185.5t192.5 69.5t192.5 -72t72 -184q0 -155 -122 -221q-60 -32 -142 -33z" />
    <glyph glyph-name="Atilde.swsh" horiz-adv-x="1665" 
d="M829 514h381l-198 639zM592 1214q-352 0 -352 -239q0 -223 258 -227l-56 -197q-314 21 -399 275q-23 68 -23 153q0 175 129.5 309.5t475.5 134.5h243v2h303l469 -1425h-270l-96 305h-504l-86 -305h-254l375 1214h-213zM803 1944q60 0 109.5 -36.5t102 -90.5t78 -69
t48.5 -15q78 0 76 206h169q18 -420 -198 -419q-98 0 -228 134q-18 18 -46 45t-60 27q-74 1 -72 -200h-170q-18 418 191 418z" />
    <glyph glyph-name="B.swsh" horiz-adv-x="1753" 
d="M1204 227q144 0 205 101q31 51 31 138t-65 135t-173 48h-321v-422h323zM1366 1020q0 178 -217 178h-268v-383h274q92 0 152 54q59 55 59 151zM1696 422q0 -198 -125 -310t-363 -112h-585v1200h-68q-346 0 -346 -244q1 -113 67 -175t197 -62v-211q-260 0 -378 136
q-117 136 -116 323t126 322q125 134 458 134h60v2h581q200 0 308 -87t108 -261q0 -106 -52 -188t-145 -127q170 -32 239 -176q34 -72 34 -164z" />
    <glyph glyph-name="C.swsh" horiz-adv-x="1357" 
d="M723 -74q-307 0 -484.5 202t-177.5 555.5t199 563t510 209.5q232 0 372 -158q70 -80 99 -217t4 -321h-239q35 211 -36 328.5t-238 117.5t-283.5 -142t-116.5 -379.5t112.5 -374t305.5 -136.5q276 0 450 215l115 -225q-92 -102 -245.5 -170t-346.5 -68z" />
    <glyph glyph-name="Cacute.swsh" horiz-adv-x="1357" 
d="M723 -74q-307 0 -484.5 202t-177.5 555.5t199 563t510 209.5q232 0 372 -158q70 -80 99 -217t4 -321h-239q35 211 -36 328.5t-238 117.5t-283.5 -142t-116.5 -379.5t112.5 -374t305.5 -136.5q276 0 450 215l115 -225q-92 -102 -245.5 -170t-346.5 -68zM1182 1999
l-342 -424h-195l268 424h269z" />
    <glyph glyph-name="Ccaron.swsh" horiz-adv-x="1357" 
d="M723 -74q-307 0 -484.5 202t-177.5 555.5t199 563t510 209.5q232 0 372 -158q70 -80 99 -217t4 -321h-239q35 211 -36 328.5t-238 117.5t-283.5 -142t-116.5 -379.5t112.5 -374t305.5 -136.5q276 0 450 215l115 -225q-92 -102 -246 -170t-346 -68zM866 1575h-207
l-270 461h197l178 -258l178 258h195z" />
    <glyph glyph-name="Ccedilla.swsh" horiz-adv-x="1357" 
d="M846 -164q94 0 147.5 -53t53.5 -166t-83 -177.5t-226.5 -64.5t-248.5 72l62 133q20 -18 73.5 -39.5t115 -21.5t97 27.5t35.5 78.5q0 86 -86 86q-66 0 -106 -45l-119 41l84 223q-272 27 -428 224.5t-156 517.5q0 365 199 574.5t510 209.5q232 0 372 -158q70 -80 99 -217
t4 -321h-239q35 211 -36 328.5t-238 117.5t-283.5 -142t-116.5 -379.5t112.5 -374t305.5 -136.5q276 0 450 215l115 -225q-82 -92 -216 -156.5t-302 -77.5l-52 -114q47 20 101 20z" />
    <glyph glyph-name="Cdotaccent.swsh" horiz-adv-x="1357" 
d="M723 -74q-307 0 -484.5 202t-177.5 555.5t199 563t510 209.5q232 0 372 -158q70 -80 99 -217t4 -321h-239q35 211 -36 328.5t-238 117.5t-283.5 -142t-116.5 -379.5t112.5 -374t305.5 -136.5q276 0 450 215l115 -225q-92 -102 -245.5 -170t-346.5 -68zM612 1754.5
q0 60.5 42 103.5t103.5 43t103.5 -43t42 -110q-1 -66 -59 -112q-36 -28 -91.5 -28t-98 43t-42.5 103.5z" />
    <glyph glyph-name="D.swsh" horiz-adv-x="1888" 
d="M1536 733q0 306 -222 410q-108 51 -263 51h-172v-963h172q229 0 357 135.5t128 366.5zM588 1200q-359 0 -359 -244q0 -150 113 -208q57 -30 141 -29v-211q-355 0 -455 284q-28 78 -28 172q0 190 129 324.5t475 134.5h19v2h446q344 0 541.5 -172t197.5 -522t-199.5 -540.5
t-539.5 -190.5h-446v1200h-35z" />
    <glyph glyph-name="Eth.swsh" horiz-adv-x="2000" 
d="M1163 1194h-172v-379h318v-209h-318v-375h172q231 0 358.5 135.5t128.5 364.5t-125 346t-362 117zM1182 1425q338 0 539 -168q200 -168 200 -522t-199.5 -544.5t-539.5 -190.5h-447v606h-172v209h172v385h-65q-231 0 -337 -83t-106 -229.5t76 -234.5t232 -88v-211
q-139 0 -246 43t-169 118q-122 146 -122 364q0 296 214 435q168 109 484 109h39v2h447z" />
    <glyph glyph-name="Dcaron.swsh" horiz-adv-x="1888" 
d="M1536 714q0 480 -485 480h-172v-963h172q154 0 263 62.5t165.5 174.5t56.5 246zM588 1200q-359 0 -359 -244q0 -150 113 -208q57 -30 141 -29v-211q-355 0 -455 284q-28 78 -28 172q0 190 129 324.5t475 134.5h19v2h446q344 0 541.5 -172t197.5 -522t-199.5 -540.5
t-539.5 -190.5h-446v1200h-35zM1241 1575h-207l-270 461h197l178 -258l178 258h194z" />
    <glyph glyph-name="Dcroat.swsh" horiz-adv-x="2000" 
d="M1163 1194h-172v-379h318v-209h-318v-375h172q231 0 358.5 135.5t128.5 364.5t-125 346t-362 117zM1182 1425q338 0 539 -168q200 -168 200 -522t-199.5 -544.5t-539.5 -190.5h-447v606h-172v209h172v385h-65q-231 0 -337 -83t-106 -229.5t76 -234.5t232 -88v-211
q-139 0 -246 43t-169 118q-122 146 -122 364q0 296 214 435q168 109 484 109h39v2h447z" />
    <glyph glyph-name="E.swsh" horiz-adv-x="1695" 
d="M1606 1194h-686v-348h534v-209h-534v-406h686v-231h-947v1200h-81q-348 0 -349 -244q0 -113 64.5 -175t189.5 -62v-211q-355 0 -455 284q-28 78 -28 172q0 189 127.5 324t468.5 135h63v2h947v-231z" />
    <glyph glyph-name="Eacute.swsh" horiz-adv-x="1695" 
d="M1606 1194h-686v-348h534v-209h-534v-406h686v-231h-947v1200h-81q-348 0 -349 -244q0 -113 64.5 -175t189.5 -62v-211q-355 0 -455 284q-28 78 -28 172q0 189 127.5 324t468.5 135h63v2h947v-231zM1350 1999l-344 -424h-195l268 424h271z" />
    <glyph glyph-name="Ecaron.swsh" horiz-adv-x="1695" 
d="M1606 1194h-686v-348h534v-209h-534v-406h686v-231h-947v1200h-81q-348 0 -349 -244q0 -113 64.5 -175t189.5 -62v-211q-355 0 -455 284q-28 78 -28 172q0 189 127.5 324t468.5 135h63v2h947v-231zM1032 1575h-207l-270 461h197l178 -258l178 258h197z" />
    <glyph glyph-name="Ecircumflex.swsh" horiz-adv-x="1695" 
d="M1606 1194h-686v-348h534v-209h-534v-406h686v-231h-947v1200h-81q-348 0 -349 -244q0 -113 64.5 -175t189.5 -62v-211q-355 0 -455 284q-28 78 -28 172q0 189 127.5 324t468.5 135h63v2h947v-231zM920 1823l-179 -256h-196l270 461h207l272 -461h-196z" />
    <glyph glyph-name="Edieresis.swsh" horiz-adv-x="1695" 
d="M1606 1194h-686v-348h534v-209h-534v-406h686v-231h-947v1200h-81q-348 0 -349 -244q0 -113 64.5 -175t189.5 -62v-211q-355 0 -455 284q-28 78 -28 172q0 189 127.5 324t468.5 135h63v2h947v-231zM1130.5 1608q-59.5 0 -101.5 42t-42 101t42 102t101.5 43t101.5 -43
t42 -102t-42 -101t-101.5 -42zM716.5 1608q-59.5 0 -101.5 42t-42 101t42 102t101.5 43t101.5 -43t42 -102t-42 -101t-101.5 -42z" />
    <glyph glyph-name="Edotaccent.swsh" horiz-adv-x="1695" 
d="M1606 1194h-686v-348h534v-209h-534v-406h686v-231h-947v1200h-81q-348 0 -349 -244q0 -113 64.5 -175t189.5 -62v-211q-355 0 -455 284q-28 78 -28 172q0 189 127.5 324t468.5 135h63v2h947v-231zM914 1608q-51 0 -93.5 43t-42.5 103.5t43 103.5t103.5 43t103.5 -43
t43 -93.5t-19.5 -84t-53 -53t-84.5 -19.5z" />
    <glyph glyph-name="Egrave.swsh" horiz-adv-x="1695" 
d="M1606 1194h-686v-348h534v-209h-534v-406h686v-231h-947v1200h-81q-348 0 -349 -244q0 -113 64.5 -175t189.5 -62v-211q-355 0 -455 284q-28 78 -28 172q0 189 127.5 324t468.5 135h63v2h947v-231zM1006 1575h-175l-280 442h248z" />
    <glyph glyph-name="Emacron.swsh" horiz-adv-x="1695" 
d="M1606 1194h-686v-348h534v-209h-534v-406h686v-231h-947v1200h-81q-348 0 -349 -244q0 -113 64.5 -175t189.5 -62v-211q-355 0 -455 284q-28 78 -28 172q0 189 127.5 324t468.5 135h63v2h947v-231zM1280 1884v-207h-709v207h709z" />
    <glyph glyph-name="Eogonek.swsh" horiz-adv-x="1695" 
d="M1347.5 -602q-139.5 0 -201 62.5t-61.5 164.5q0 225 308 375h-734v1200h-81q-348 0 -349 -244q0 -113 64.5 -175t189.5 -62v-211q-355 0 -455 284q-28 78 -28 172q0 189 127.5 324t468.5 135h63v2h947v-231h-686v-348h534v-209h-534v-406h686v-231h-2
q-303 -150 -304 -315q0 -104 105 -105q88 0 168 47l41 -166q-127 -63 -266.5 -63z" />
    <glyph glyph-name="F.swsh" horiz-adv-x="1673" 
d="M1622 1192h-674v-363h522v-213h-522v-616h-258v1200h-100q-350 0 -350 -244q0 -113 66 -175t198 -62v-211q-257 0 -375 135q-119 135 -119 323t126 322q126 135 460 135h94v2h932v-233z" />
    <glyph glyph-name="G.swsh" horiz-adv-x="1396" 
d="M687 -528q-112 0 -216 22q-177 37 -278 119l86 227q63 -57 168.5 -96t205.5 -39q101 -1 149 9q246 48 245 333q-145 -57 -338 -57q-313 0 -491.5 186t-178.5 534.5t194.5 547t503.5 198.5q567 0 510 -629h-246q23 174 -41.5 277.5t-245.5 103.5t-295 -134t-114 -359.5
t115 -351t304 -125.5t320 57l-2 301h258l3 -500q1 -415 -255 -551q-80 -43 -164.5 -58t-196.5 -15z" />
    <glyph glyph-name="Gbreve.swsh" horiz-adv-x="1396" 
d="M687 -528q-112 0 -216 22q-177 37 -278 119l86 227q63 -57 168.5 -96t213 -39t166 15.5t110.5 51.5q110 75 110 275q-145 -57 -338 -57q-313 0 -491.5 186t-178.5 534.5t194.5 547t503.5 198.5q567 0 510 -629h-246q23 174 -41.5 277.5t-245.5 103.5t-295 -134
t-114 -359.5t115 -351t304 -125.5t320 57l-2 301h258l3 -500q1 -415 -255 -551q-80 -43 -164.5 -58t-196.5 -15zM762 1587q-184 0 -278.5 106.5t-82.5 313.5h193q-8 -258 166 -258t166 258h192q12 -207 -80 -313.5t-276 -106.5z" />
    <glyph glyph-name="Gdotaccent.swsh" horiz-adv-x="1396" 
d="M687 -528q-112 0 -216 22q-177 37 -278 119l86 227q63 -57 168.5 -96t205.5 -39q101 -1 149 9q246 48 245 333q-145 -57 -338 -57q-313 0 -491.5 186t-178.5 534.5t194.5 547t503.5 198.5q567 0 510 -629h-246q23 174 -41.5 277.5t-245.5 103.5t-295 -134t-114 -359.5
t115 -351t304 -125.5t320 57l-2 301h258l3 -500q1 -415 -255 -551q-80 -43 -164.5 -58t-196.5 -15zM759.5 1608q-61.5 0 -104.5 43t-43 103.5t43 103.5t104.5 43t103.5 -43t42 -103.5t-42 -103.5t-103.5 -43z" />
    <glyph glyph-name="H.swsh" horiz-adv-x="1951" 
d="M1542 1425h256v-1425h-256v618h-602v-618h-258v1200h-102q-350 0 -351 -242q0 -113 66.5 -176t198.5 -63v-211q-259 0 -377 134q-117 134 -117 324q0 191 127 324t459 133h96v2h258v-571h602v571z" />
    <glyph glyph-name="I.swsh" horiz-adv-x="1052" 
d="M641 1425h258v-1425h-258v1200h-51q-360 0 -361 -242q0 -113 66.5 -176t198.5 -63v-211q-259 0 -377 134q-117 134 -117 325t128 324q128 132 466 132h47v2z" />
    <glyph glyph-name="Iacute.swsh" horiz-adv-x="1052" 
d="M641 1423v2h258v-1425h-258v1200h-51q-360 0 -361 -242q0 -113 66.5 -176t198.5 -63v-211q-259 0 -377 134q-117 134 -117 325t128 324q128 132 466 132h47zM1204 1999l-342 -426h-194l266 426h270z" />
    <glyph glyph-name="uni01CF.swsh" horiz-adv-x="1052" 
d="M641 1423v2h258v-1425h-258v1200h-51q-360 0 -361 -242q0 -113 66.5 -176t198.5 -63v-211q-259 0 -377 134q-117 134 -117 325t128 324q128 132 466 132h47zM887 1573h-205l-270 463h194l178 -258l179 258h196z" />
    <glyph glyph-name="Icircumflex.swsh" horiz-adv-x="1052" 
d="M641 1423v2h258v-1425h-258v1200h-51q-360 0 -361 -242q0 -113 66.5 -176t198.5 -63v-211q-259 0 -377 134q-117 134 -117 325t128 324q128 132 466 132h47zM877 2028l272 -461h-197l-178 256l-178 -256h-195l271 461h205z" />
    <glyph glyph-name="Idieresis.swsh" horiz-adv-x="1052" 
d="M641 1423v2h258v-1425h-258v1200h-51q-360 0 -361 -242q0 -113 66.5 -176t198.5 -63v-211q-259 0 -377 134q-117 134 -117 325t128 324q128 132 466 132h47zM985 1896q59 0 101 -43t42 -102t-42 -101t-101 -42t-101 42t-42 101t42 102t101 43zM571.5 1608
q-59.5 0 -101.5 42t-42 101t42 102t101.5 43t101.5 -43t42 -102t-42 -101t-101.5 -42z" />
    <glyph glyph-name="Idotaccent.swsh" horiz-adv-x="1052" 
d="M641 1423v2h258v-1425h-258v1200h-51q-360 0 -361 -242q0 -113 66.5 -176t198.5 -63v-211q-259 0 -376.5 134t-117.5 325t128.5 323.5t465.5 132.5h47zM780 1608q-61 0 -104 43t-43 103.5t43 103.5t103 43t103.5 -43t43.5 -103.5t-42.5 -103.5t-103.5 -43z" />
    <glyph glyph-name="Igrave.swsh" horiz-adv-x="1052" 
d="M641 1425h258v-1425h-258v1200h-51q-360 0 -361 -242q0 -113 66.5 -176t198.5 -63v-211q-259 0 -377 134q-117 134 -117 325t128 324q128 132 466 132h47v2zM862 1573h-174l-282 444h247z" />
    <glyph glyph-name="Imacron.swsh" horiz-adv-x="1052" 
d="M641 1423v2h258v-1425h-258v1200h-51q-360 0 -361 -242q0 -113 66.5 -176t198.5 -63v-211q-259 0 -377 134q-117 134 -117 325t128 324q128 132 466 132h47zM428 1884h707v-207h-707v207z" />
    <glyph glyph-name="Iogonek.swsh" horiz-adv-x="1052" 
d="M371 -365q0 217 286 365h-16v1200h-51q-360 0 -361 -242q0 -113 66.5 -176t198.5 -63v-211q-259 0 -377 134q-117 134 -117 325t128 324q128 132 466 132h47v2h258v-1425h-31q-283 -145 -282 -303q0 -106 104 -107q88 1 168 48l41 -166q-125 -63 -264.5 -63.5t-201.5 62
t-62 164.5z" />
    <glyph glyph-name="J.swsh" horiz-adv-x="1181" 
d="M805 1425h256v-1187q0 -348 -160 -490q-160 -141 -389 -141t-370.5 133t-141.5 385q0 209 150 363q74 76 197.5 120.5t283.5 44.5v-215q-170 0 -279.5 -86t-109.5 -222t66.5 -214t198.5 -80t215 94.5t83 288.5v981h-430v223h430v2z" />
    <glyph glyph-name="K.swsh" horiz-adv-x="1767" 
d="M907 0h-256v1200h-76q-346 0 -346 -244q0 -113 66.5 -175t198.5 -62v-211q-259 0 -377 134q-117 134 -117 322q0 189 126 324t458 135h67v2h256v-632l510 632h301l-432 -526l453 -899h-305l-334 672l-193 -234v-438z" />
    <glyph glyph-name="Kcommaaccent.swsh" horiz-adv-x="1767" 
d="M1131 -111q49 -1 89 -27q86 -56 85 -194q0 -254 -256 -370l-84 122q95 43 131.5 87t50.5 87q-14 -2 -29 -2q-57 0 -99 39t-42 96.5t19.5 91.5t53 52t81.5 18zM907 0h-256v1200h-76q-346 0 -346 -244q0 -113 66.5 -175t198.5 -62v-211q-259 0 -376.5 134t-117.5 322.5
t126 323.5t458 135h67v2h256v-632l510 632h301l-432 -526l453 -899h-305l-334 672l-193 -234v-438z" />
    <glyph glyph-name="L.swsh" horiz-adv-x="1531" 
d="M946 231h567v-231h-825v1200h-113q-346 0 -346 -244q0 -113 66.5 -175t198.5 -62v-211q-259 0 -377 134q-117 134 -117 322q0 189 126 324t458 135h104v2h258v-1194z" />
    <glyph glyph-name="Lacute.swsh" horiz-adv-x="1531" 
d="M946 231h567v-231h-825v1200h-113q-346 0 -346 -244q0 -113 66.5 -175t198.5 -62v-211q-259 0 -377 134q-117 134 -117 322q0 189 126 324t458 135h104v2h258v-1194zM1253 1997l-342 -424h-194l266 424h270z" />
    <glyph glyph-name="Lcaron.swsh" horiz-adv-x="1531" 
d="M946 231h567v-231h-825v1200h-113q-346 0 -346 -244q0 -113 66.5 -175t198.5 -62v-211q-259 0 -377 134q-117 134 -117 322q0 189 126 324t458 135h104v2h258v-1194zM936 1573h-205l-270 463h194l179 -258l178 258h196z" />
    <glyph glyph-name="Lcommaaccent.swsh" horiz-adv-x="1531" 
d="M1126 -111q93 0 141 -59.5t48 -161.5q0 -254 -256 -370l-82 122q76 35 119 74t61 100q-12 -2 -27 -2q-59 0 -100 39t-41 108t42.5 109.5t94.5 40.5zM946 231h567v-231h-825v1200h-113q-346 0 -346 -244q0 -113 66.5 -175t198.5 -62v-211q-259 0 -376.5 134t-117.5 322.5
t126 323.5t458 135h104v2h258v-1194z" />
    <glyph glyph-name="Lslash.swsh" horiz-adv-x="1458" 
d="M872 231h568v-231h-826v444l-204 -118l-95 180l299 174v520h-100q-145 0 -221 -64q-76 -62 -76 -172t86 -194l-182 -96q-121 134 -121 320t131 307.5t399 121.5h84v2h258v-596l289 168l105 -174l-394 -227v-365z" />
    <glyph glyph-name="M.swsh" horiz-adv-x="2250" 
d="M1847 0v973l-362 -883h-197l-366 889v-979h-238v1200h-109q-346 0 -346 -244q0 -113 67 -175t198 -62v-211q-365 0 -466 284q-28 79 -28 173q0 188 126 323t458 135h100v2h303l412 -948l391 948h295l12 -1425h-250z" />
    <glyph glyph-name="N.swsh" horiz-adv-x="1894" 
d="M1501 1425h240v-1425h-246l-602 946v-946h-238v1200h-80q-346 0 -346 -244q0 -113 66.5 -175t198.5 -62v-211q-259 0 -377 134q-117 134 -117 322q0 189 126 324t458 135h71v2h240l606 -960v960z" />
    <glyph glyph-name="Nacute.swsh" horiz-adv-x="1894" 
d="M1501 1425h240v-1425h-246l-602 946v-946h-238v1200h-80q-346 0 -346 -244q0 -113 66.5 -175t198.5 -62v-211q-259 0 -377 134q-117 134 -117 322q0 189 126 324t458 135h71v2h240l606 -960v960zM1624 1999l-342 -424h-195l267 424h270z" />
    <glyph glyph-name="Ncaron.swsh" horiz-adv-x="1894" 
d="M1501 1425h240v-1425h-246l-602 946v-946h-238v1200h-80q-346 0 -346 -244q0 -113 66.5 -175t198.5 -62v-211q-259 0 -377 134q-117 134 -117 322q0 189 126 324t458 135h71v2h240l606 -960v960zM1307 1575h-205l-271 461h195l178 -258l178 258h197z" />
    <glyph glyph-name="Ncommaaccent.swsh" horiz-adv-x="1894" 
d="M1185 -111q94 0 141.5 -59t47.5 -162q0 -254 -256 -370l-82 122q96 45 132 88t49 86q-12 -2 -27 -2q-59 0 -100 39t-41 108t42 109.5t94 40.5zM1501 1425h240v-1425h-246l-602 946v-946h-238v1200h-80q-346 0 -346 -244q0 -113 66.5 -175t198.5 -62v-211
q-259 0 -376.5 134t-117.5 322.5t126 323.5t458 135h71v2h240l606 -960v960z" />
    <glyph glyph-name="Ntilde.swsh" horiz-adv-x="1894" 
d="M1501 1425h240v-1425h-246l-602 946v-946h-238v1200h-80q-346 0 -346 -244q0 -113 66.5 -175t198.5 -62v-211q-259 0 -376.5 134t-117.5 322.5t126 323.5t458 135h71v2h240l606 -960v960zM991 1944q90 0 191 -107q42 -44 77.5 -74t69.5 -30q80 0 76 206h172
q16 -420 -201 -419q-95 0 -207 112q-4 4 -10 13q-29 27 -56 54t-61 27q-73 1 -71 -200h-170q-18 418 190 418z" />
    <glyph glyph-name="O.swsh" horiz-adv-x="1536" 
d="M771 217q200 0 323 121t120.5 291t-90.5 264q-59 -117 -188 -176.5t-301 -59.5l2 215q144 0 222 76q44 44 45 98q2 54 -22 90q-48 72 -158 72t-200 -58t-142 -167t-52 -250q0 -240 120.5 -378t320.5 -138zM59 714q0 345 200 543.5t509 198.5q195 0 298 -103.5t101 -269.5
q0 -27 -4 -51l97 82q96 -61 157.5 -177t63.5 -280q6 -303 -191.5 -496.5t-522.5 -192.5t-516.5 201t-191.5 545z" />
    <glyph glyph-name="Oacute.swsh" horiz-adv-x="1536" 
d="M771 217q200 0 323 121t120.5 291t-90.5 264q-59 -117 -188 -176.5t-301 -59.5l2 215q144 0 222 76q44 44 45 98q2 54 -22 90q-48 72 -158 72t-200 -58t-142 -167t-52 -250q0 -240 120.5 -378t320.5 -138zM59 714q0 345 200 543.5t509 198.5q195 0 298 -103.5t101 -269.5
q0 -27 -4 -51l97 82q96 -61 157.5 -177t63.5 -280q6 -303 -191.5 -496.5t-522.5 -192.5t-516.5 201t-191.5 545zM1219 1999l-342 -424h-195l266 424h271z" />
    <glyph glyph-name="uni01D1.swsh" horiz-adv-x="1536" 
d="M771 217q200 0 323 121t120.5 291t-90.5 264q-59 -117 -188 -176.5t-301 -59.5l2 215q144 0 222 76q44 44 45 98q2 54 -22 90q-48 72 -158 72t-200 -58t-142 -167t-52 -250q0 -240 120.5 -378t320.5 -138zM59 714q0 345 200 543.5t509 198.5q195 0 298 -103.5t101 -269.5
q0 -27 -4 -51l97 82q96 -61 157.5 -177t63.5 -280q6 -303 -191.5 -496.5t-522.5 -192.5t-516.5 201t-191.5 545zM901 1575h-205l-270 461h195l180 -258l176 258h197z" />
    <glyph glyph-name="Ocircumflex.swsh" horiz-adv-x="1536" 
d="M771 217q200 0 323 121t120.5 291t-90.5 264q-59 -117 -188 -176.5t-301 -59.5l2 215q144 0 222 76q44 44 45 98q2 54 -22 90q-48 72 -158 72t-200 -58t-142 -167t-52 -250q0 -240 120.5 -378t320.5 -138zM59 714q0 345 200 543.5t509 198.5q195 0 298 -103.5t101 -269.5
q0 -27 -4 -51l97 82q96 -61 157.5 -177t63.5 -280q6 -303 -191.5 -496.5t-522.5 -192.5t-516.5 201t-191.5 545zM788 1823l-178 -256h-194l270 461h205l272 -461h-196z" />
    <glyph glyph-name="Odieresis.swsh" horiz-adv-x="1536" 
d="M771 217q200 0 323 121t120.5 291t-90.5 264q-59 -117 -188 -176.5t-301 -59.5l2 215q144 0 222 76q44 44 45 98q2 54 -22 90q-48 72 -158 72t-200 -58t-142 -167t-52 -250q0 -240 120.5 -378t320.5 -138zM59 714q0 345 200 543.5t509 198.5q195 0 298 -103.5t101 -269.5
q0 -27 -4 -51l97 82q96 -61 157.5 -177t63.5 -280q6 -303 -191.5 -496.5t-522.5 -192.5t-516.5 201t-191.5 545zM1000 1608q-60 0 -102 42t-42 101t42 102t102 43t101.5 -43t41.5 -102t-41.5 -101t-101.5 -42zM597 1608q-50 0 -83 20q-72 43 -72 112.5t42 112.5t92 43
q52 0 84 -19q70 -41 69 -126q0 -59 -41 -101t-91 -42z" />
    <glyph glyph-name="Ograve.swsh" horiz-adv-x="1536" 
d="M771 217q200 0 323 121t120.5 291t-90.5 264q-59 -117 -188 -176.5t-301 -59.5l2 215q144 0 222 76q44 44 45 98q2 54 -22 90q-48 72 -155 72q-174 0 -285.5 -131t-111.5 -357.5t120.5 -364.5t320.5 -138zM59 719q0 340 200 538.5t509 198.5q195 0 298 -103.5t101 -269.5
q0 -27 -4 -51l97 82q96 -61 157.5 -177t63.5 -280q6 -303 -191.5 -496.5t-521.5 -193.5q-215 2 -373.5 91t-247 259t-88.5 402zM877 1575h-175l-282 442h250z" />
    <glyph glyph-name="Ohungarumlaut.swsh" horiz-adv-x="1536" 
d="M771 217q200 0 323 121t120.5 291t-90.5 264q-59 -117 -188 -176.5t-301 -59.5l2 215q144 0 222 76q44 44 45 98q2 54 -22 90q-48 72 -155 72q-174 0 -285.5 -131t-111.5 -357.5t120.5 -364.5t320.5 -138zM59 719q0 340 200 538.5t509 198.5q195 0 298 -103.5t101 -269.5
q0 -27 -4 -51l97 82q96 -61 157.5 -177t63.5 -280q6 -303 -191.5 -496.5t-521.5 -193.5q-215 2 -373.5 91t-247 259t-88.5 402zM1012 1575h-172l258 440h250zM905 2015l-207 -440h-153l121 440h239z" />
    <glyph glyph-name="Omacron.swsh" horiz-adv-x="1536" 
d="M771 217q200 0 323 121t120.5 291t-90.5 264q-59 -117 -188 -176.5t-301 -59.5l2 215q144 0 222 76q44 44 45 98q2 54 -22 90q-48 72 -155 72q-174 0 -285.5 -131t-111.5 -357.5t120.5 -364.5t320.5 -138zM59 719q0 340 200 538.5t509 198.5q195 0 298 -103.5t101 -269.5
q0 -27 -4 -51l97 82q96 -61 157.5 -177t63.5 -280q6 -303 -191.5 -496.5t-521.5 -193.5q-215 2 -373.5 91t-247 259t-88.5 402zM1149 1884v-207h-707v207h707z" />
    <glyph glyph-name="Otilde.swsh" horiz-adv-x="1536" 
d="M771 217q200 0 323 121t120.5 291t-90.5 264q-59 -117 -188 -176.5t-301 -59.5l2 215q144 0 222 76q44 44 45 98q2 54 -22 90q-48 72 -158 72t-200 -58t-142 -167t-52 -250q0 -240 120.5 -378t320.5 -138zM59 719q0 340 200 538.5t509 198.5q195 0 298 -103.5t101 -269.5
q0 -27 -4 -51l97 82q96 -61 157.5 -177t63.5 -280q6 -303 -191.5 -496.5t-521.5 -193.5q-215 2 -373.5 91t-247 259t-88.5 402zM586 1944q39 0 79 -19.5t63.5 -40t55.5 -54.5l50 -50q46 -46 90 -47q80 0 75 206h172q16 -420 -200 -419q-74 0 -138 51.5t-79 73.5
q-29 27 -57 54t-60 27q-74 1 -72 -200h-170q-18 418 191 418z" />
    <glyph glyph-name="P.swsh" horiz-adv-x="1691" 
d="M1139 762q111 0 174 58t63 162t-62 158q-62 52 -177 52h-267v-430h269zM1161 1425q310 0 426 -190q59 -98 60 -248q0 -225 -127 -338t-357 -112h-293v-537h-256v1200h-39q-346 0 -346 -244q0 -113 67 -175t198 -62v-211q-365 0 -466 284q-28 79 -28 173q0 188 126 323
t458 135h30v2h547z" />
    <glyph glyph-name="Q.swsh" horiz-adv-x="1536" 
d="M330 719.5q0 -226.5 120.5 -364.5t320.5 -138t323 121t120.5 291t-90.5 264q-59 -117 -188 -176.5t-301 -59.5l2 215q144 0 222 76q44 44 45 98q2 54 -22 90q-48 72 -155 72q-172 0 -284.5 -131t-112.5 -357.5zM1272 -393q-195 0 -389.5 107.5t-325.5 107.5t-307 -90
l-19 223q117 55 230 72q-190 80 -296 258t-106 434q0 340 200 538.5t509 198.5q195 0 298 -103.5t101 -269.5q0 -27 -4 -51l97 82q96 -61 157.5 -177t63.5 -280q6 -285 -168 -473t-465 -213q35 -16 98.5 -48t101.5 -49q230 -104 422 13l19 -229q-104 -51 -217 -51z" />
    <glyph glyph-name="R.swsh" horiz-adv-x="1820" 
d="M911 1192v-420h289q102 0 163.5 56.5t61.5 159t-61 153.5t-164 51h-289zM911 563v-563h-258v1200h-78q-346 0 -346 -244q0 -113 66.5 -175t198.5 -62v-211q-259 0 -377 134q-117 134 -117 322q0 189 126 324t458 135h69v2h572q223 0 347 -107.5t124 -316.5
q0 -154 -77 -262t-216 -151l340 -588h-303l-303 563h-226z" />
    <glyph glyph-name="Racute.swsh" horiz-adv-x="1820" 
d="M911 1192v-420h289q102 0 163.5 56.5t61.5 159t-61 153.5t-164 51h-289zM911 563v-563h-258v1200h-78q-346 0 -346 -244q0 -113 66.5 -175t198.5 -62v-211q-259 0 -377 134q-117 134 -117 322q0 189 126 324t458 135h69v2h572q223 0 347 -107.5t124 -316.5
q0 -154 -77 -262t-216 -151l340 -588h-303l-303 563h-226zM1581 1999l-342 -424h-195l267 424h270z" />
    <glyph glyph-name="Rcaron.swsh" horiz-adv-x="1820" 
d="M911 1192v-420h289q102 0 163.5 56.5t61.5 159t-61 153.5t-164 51h-289zM911 563v-563h-258v1200h-78q-346 0 -346 -244q0 -113 66.5 -175t198.5 -62v-211q-259 0 -377 134q-117 134 -117 322q0 189 126 324t458 135h69v2h572q223 0 347 -107.5t124 -316.5
q0 -154 -77 -262t-216 -151l340 -588h-303l-303 563h-226zM1266 1575h-207l-271 461h195l180 -258l178 258h195z" />
    <glyph glyph-name="Rcommaaccent.swsh" horiz-adv-x="1820" 
d="M1142 -111q94 0 141.5 -59t47.5 -162q0 -254 -256 -370l-82 122q96 45 132 88t49 86q-12 -2 -27 -2q-59 0 -100 39t-41 108t42 109.5t94 40.5zM911 1192v-420h289q102 0 163.5 56.5t61.5 159t-61 153.5t-164 51h-289zM911 563v-563h-258v1200h-78q-346 0 -346 -244
q0 -113 66.5 -175t198.5 -62v-211q-259 0 -376.5 134t-117.5 322.5t126 323.5t458 135h69v2h572q223 0 347 -107.5t124 -316.5q0 -154 -77 -262t-216 -151l340 -588h-303l-303 563h-226z" />
    <glyph glyph-name="S.swsh" horiz-adv-x="1122" 
d="M550 -309q-241 0 -386.5 140t-151.5 423l238 39q0 -186 82 -276.5t213 -90.5t199.5 53.5t68.5 155.5t-65.5 172t-202.5 146q-211 113 -316.5 250t-105.5 326.5t122 308t335 118.5t338.5 -125.5t89.5 -415.5l-232 3q25 193 -66 265q-48 38 -110 38q-112 0 -165.5 -56
t-53.5 -150.5t70.5 -169.5t193.5 -143.5t187 -116.5q66 -49 124 -113q118 -130 117.5 -337t-141.5 -325.5t-382 -118.5z" />
    <glyph glyph-name="Sacute.swsh" horiz-adv-x="1122" 
d="M550 -309q-241 0 -386.5 140t-151.5 423l238 39q0 -186 82 -276.5t213 -90.5t199.5 53.5t68.5 155.5t-65.5 172t-202.5 146q-211 113 -316.5 250t-105.5 326.5t122 308t335 118.5t338.5 -125.5t89.5 -415.5l-232 3q18 141 -29 222t-151 81t-159.5 -55.5t-55.5 -150.5
t70.5 -170t193.5 -143.5t187 -116.5q66 -49 124 -113q118 -130 117.5 -337t-141.5 -325.5t-382 -118.5zM1008 1999l-342 -424h-195l268 424h269z" />
    <glyph glyph-name="Scaron.swsh" horiz-adv-x="1122" 
d="M1073 137q0 -209 -141 -327.5t-382 -118.5t-386.5 140t-151.5 423l238 39q0 -186 82 -276.5t213 -90.5t199.5 53.5t68.5 155.5t-65.5 172t-202.5 146q-211 113 -316.5 250t-105.5 326.5t122 308t335 118.5t338.5 -125.5t89.5 -415.5l-232 3q25 193 -66 265
q-48 38 -110 38q-112 0 -165.5 -56t-53.5 -150.5t70.5 -169.5t248 -174.5t258 -200.5t98 -183t17.5 -150zM692 1575h-207l-270 461h197l178 -258l178 258h195z" />
    <glyph glyph-name="T.swsh" horiz-adv-x="1449" 
d="M1425 1423v-233h-372v-1190h-258v1190h-220q-346 0 -346 -256q0 -117 69 -181.5t206 -64.5v-213q-132 0 -232 39q-100 40 -158 106q-114 132 -114 326t126 336q126 141 458 141h841z" />
    <glyph glyph-name="Tbar.swsh" horiz-adv-x="1449" 
d="M1425 1190h-372v-545h243v-209h-243v-436h-258v436h-244v209h244v545h-258q-220 0 -286 -98q-32 -48 -32 -129.5t59.5 -132t174.5 -50.5v-213q-343 -1 -437 257q-26 70 -26 158q0 184 128.5 312.5t454.5 128.5h852v-233z" />
    <glyph glyph-name="Tcaron.swsh" horiz-adv-x="1449" 
d="M1425 1423v-233h-372v-1190h-258v1190h-220q-346 0 -346 -256q0 -117 69 -181.5t206 -64.5v-213q-132 0 -232 39q-100 40 -158 106q-114 132 -114 326t126 336q126 141 458 141h841zM1032 1575h-205l-270 461h195l178 -258l178 258h197z" />
    <glyph glyph-name="uni0162.swsh" horiz-adv-x="1449" 
d="M1057 -340q-1 94 -99 94q-54 0 -94 -47l-121 43l97 250h-45v1190h-220q-346 0 -346 -256q0 -117 69 -181.5t206 -64.5v-213q-132 0 -232 39q-100 40 -158 106q-114 132 -114 326t126.5 335.5t457.5 141.5h841v-233h-372v-1190h-60l-65 -143q49 20 102 20q94 0 147.5 -53
t53.5 -166t-83 -176.5t-226 -63.5t-248 72l59 133q20 -18 74.5 -40.5t116.5 -22.5t97.5 27.5t35.5 72.5z" />
    <glyph glyph-name="uni021A.swsh" horiz-adv-x="1449" 
d="M911 -111q93 0 141 -59.5t48 -161.5q0 -254 -256 -370l-82 122q74 35 117 74t63 100q-12 -2 -27 -2q-59 0 -100 39t-41 108t42.5 109.5t94.5 40.5zM584 1423h841v-233h-372v-1190h-258v1190h-220q-346 0 -346 -256q0 -117 69 -181.5t206 -64.5v-213q-132 0 -232 39
q-100 40 -158 106q-114 132 -114 326t126.5 335.5t457.5 141.5z" />
    <glyph glyph-name="U.swsh" horiz-adv-x="1896" 
d="M1513 1425h256v-837q0 -297 -149.5 -459t-407.5 -162t-408.5 164t-150.5 457v612h-78q-346 0 -346 -244q0 -113 66.5 -175t198.5 -62v-211q-259 0 -377 134q-117 134 -117 321q0 305 270 413q118 48 314 47h69v2h256v-852q0 -166 83 -262t220 -96q188 0 264 167
q36 81 37 191v852z" />
    <glyph glyph-name="Uacute.swsh" horiz-adv-x="1896" 
d="M1513 1425h256v-837q0 -297 -149.5 -459t-407.5 -162t-408.5 164t-150.5 457v612h-78q-346 0 -346 -244q0 -113 66.5 -175t198.5 -62v-211q-259 0 -377 134q-117 134 -117 321q0 305 270 413q118 48 314 47h69v2h256v-852q0 -166 83 -262t220 -96q188 0 264 167
q36 81 37 191v852zM1659 1999l-342 -424h-195l267 424h270z" />
    <glyph glyph-name="uni01D3.swsh" horiz-adv-x="1896" 
d="M1513 1425h256v-837q0 -297 -149.5 -459t-407.5 -162t-408.5 164t-150.5 457v612h-78q-346 0 -346 -244q0 -113 66.5 -175t198.5 -62v-211q-259 0 -377 134q-117 134 -117 321q0 247 182 368q138 92 402 92h69v2h256v-852q0 -166 83 -262t221 -96t219 96.5t81 261.5v852z
M1341 1575h-204l-271 461h195l178 -258l178 258h197z" />
    <glyph glyph-name="Ucircumflex.swsh" horiz-adv-x="1896" 
d="M1513 1425h256v-837q0 -297 -149.5 -459t-407.5 -162t-408.5 164t-150.5 457v612h-78q-346 0 -346 -244q0 -113 66.5 -175t198.5 -62v-211q-259 0 -377 134q-117 134 -117 321q0 305 270 413q118 48 314 47h69v2h256v-852q0 -166 83 -262t220 -96q188 0 264 167
q36 81 37 191v852zM1229 1823l-178 -256h-195l270 461h205l273 -461h-197z" />
    <glyph glyph-name="Udieresis.swsh" horiz-adv-x="1896" 
d="M1513 1425h256v-837q0 -297 -149.5 -459t-407.5 -162t-408.5 164t-150.5 457v612h-78q-346 0 -346 -244q0 -113 66.5 -175t198.5 -62v-211q-259 0 -376.5 134t-117.5 321q0 305 270 413q118 48 314 47h69v2h256v-852q0 -166 83 -262t220 -96q188 0 264 167q36 81 37 191
v852zM1441 1608q-60 0 -102.5 42t-42.5 91t20 83q41 72 113 72t113 -43t41 -102t-41 -101t-101 -42zM1027 1608q-60 0 -102 42t-42 101t42 102t101 43t101 -43t42 -102t-41 -101t-101 -42z" />
    <glyph glyph-name="Ugrave.swsh" horiz-adv-x="1896" 
d="M1513 1425h256v-837q0 -297 -149.5 -459t-407.5 -162t-408.5 164t-150.5 457v612h-78q-346 0 -346 -244q0 -113 66.5 -175t198.5 -62v-211q-259 0 -377 134q-117 134 -117 321q0 247 182 368q138 92 402 92h69v2h256v-852q0 -166 83 -262t220 -96q188 0 264 167
q36 81 37 191v852zM1317 1575h-174l-283 442h250z" />
    <glyph glyph-name="Uhungarumlaut.swsh" horiz-adv-x="1896" 
d="M1513 573v852h256v-837q0 -297 -149.5 -459t-407.5 -162t-408.5 164t-150.5 457v612h-78q-346 0 -346 -244q0 -113 66.5 -175t198.5 -62v-211q-259 0 -377 134q-117 134 -117 321q0 305 270 413q118 48 314 47h69v2h256v-852q0 -166 83 -262t220 -96q188 1 264 167
q36 80 37 191zM1452 1575h-172l258 440h250zM1346 2015l-209 -440h-152l121 440h240z" />
    <glyph glyph-name="Umacron.swsh" horiz-adv-x="1896" 
d="M1513 1425h256v-837q0 -297 -149.5 -459t-407.5 -162t-408.5 164t-150.5 457v612h-78q-346 0 -346 -244q0 -113 66.5 -175t198.5 -62v-211q-259 0 -377 134q-117 134 -117 321q0 305 270 413q118 48 314 47h69v2h256v-852q0 -166 83 -262t220 -96q188 0 264 167
q36 81 37 191v852zM1589 1884v-207h-706v207h706z" />
    <glyph glyph-name="Uogonek.swsh" horiz-adv-x="1896" 
d="M1513 1425h256v-837q0 -225 -87 -373.5t-246 -208.5q-274 -143 -275 -301q0 -104 105 -104q88 0 168 47l41 -166q-125 -63 -283 -64q-82 0 -138 31q-108 59 -108 197q0 186 217 323q-156 10 -270.5 86t-177 212t-62.5 321v612h-78q-346 0 -346 -244q0 -113 66.5 -175
t198.5 -62v-211q-259 0 -377 134q-117 134 -117 321q0 305 270 413q118 48 314 47h69v2h256v-852q0 -166 83 -262t220 -96q188 0 264 167q36 81 37 191v852z" />
    <glyph glyph-name="Uring.swsh" horiz-adv-x="1896" 
d="M1513 1425h256v-837q0 -297 -149.5 -459t-407.5 -162t-408.5 164t-150.5 457v612h-78q-346 0 -346 -244q0 -113 66.5 -175t198.5 -62v-211q-259 0 -376.5 134t-117.5 321q0 247 182 368q138 92 402 92h69v2h256v-852q0 -166 83 -262t220 -96q188 0 264 167q36 81 37 191
v852zM1234 1939q-52 0 -85 -34.5t-33 -90t32 -87t85 -31.5t85 31.5t32 88t-32 90t-84 33.5zM1233 1561q-123 0 -193.5 69.5t-70.5 185.5t71.5 185.5t192.5 69.5t192.5 -72t71.5 -184.5t-70.5 -183t-193.5 -70.5z" />
    <glyph glyph-name="V.swsh" horiz-adv-x="1871" 
d="M575 1200q-346 0 -346 -254q0 -118 78 -182t228 -64v-213q-322 0 -457 198q-78 114 -78 267q0 194 126 333q126 138 456 138v2h276l281 -931q45 -193 55 -242q25 104 68 260l303 913h266l-494 -1425h-303l-381 1200h-78z" />
    <glyph glyph-name="W.swsh" horiz-adv-x="2490" 
d="M575 1200q-338 0 -337 -254q0 -121 72.5 -188.5t213.5 -67.5v-213q-377 0 -486 297q-30 82 -30 179q0 192 124.5 331t451.5 139h51v2h276l172 -929q25 -186 25 -195q25 121 45 193l274 919h246l246 -899q25 -100 43 -203q31 190 33 201l194 913h262l-344 -1425h-299
l-211 762q-25 96 -59 252q-39 -164 -63 -252l-232 -762h-299l-260 1200h-109z" />
    <glyph glyph-name="Wacute.swsh" horiz-adv-x="2490" 
d="M575 1200q-338 0 -337 -254q0 -121 72.5 -188.5t213.5 -67.5v-213q-377 0 -486 297q-30 82 -30 179q0 192 124.5 331t451.5 139h51v2h276l172 -929q25 -186 25 -195q25 121 45 193l274 919h246l246 -899q25 -100 43 -203q31 190 33 201l194 913h262l-344 -1425h-299
l-211 762q-25 96 -59 252q-39 -164 -63 -252l-232 -762h-299l-260 1200h-109zM1968 1999l-342 -424h-194l268 424h268z" />
    <glyph glyph-name="Wcircumflex.swsh" horiz-adv-x="2490" 
d="M575 1200q-338 0 -337 -254q0 -121 72.5 -188.5t213.5 -67.5v-213q-377 0 -486 297q-30 82 -30 179q0 192 124.5 331t451.5 139h51v2h276l172 -929q25 -186 25 -195q25 121 45 193l274 919h246l246 -899q25 -100 43 -203q31 190 33 201l194 913h262l-344 -1425h-299
l-211 762q-25 96 -59 252q-39 -164 -63 -252l-232 -762h-299l-260 1200h-109zM1540 1823l-178 -256h-197l271 461h206l271 -461h-195z" />
    <glyph glyph-name="Wdieresis.swsh" horiz-adv-x="2490" 
d="M575 1200q-338 0 -337 -254q0 -121 72.5 -188.5t213.5 -67.5v-213q-377 0 -486 297q-30 82 -30 179q0 192 124.5 331t451.5 139h51v2h276l172 -929q25 -186 25 -195q25 121 45 193l274 919h246l246 -899q25 -100 43 -203q31 190 33 201l194 913h262l-344 -1425h-299
l-211 762q-25 96 -59 252q-39 -164 -63 -252l-232 -762h-299l-260 1200h-109zM1750 1608q-60 0 -102 42t-42 101t42 102t102 43t102 -43t42 -102t-42 -101t-102 -42zM1337.5 1608q-59.5 0 -101.5 42t-42 101t42 102t101.5 43t100.5 -43t41 -102t-41 -101t-100.5 -42z" />
    <glyph glyph-name="Wgrave.swsh" horiz-adv-x="2490" 
d="M575 1200q-338 0 -337 -254q0 -121 72.5 -188.5t213.5 -67.5v-213q-377 0 -486 297q-30 82 -30 179q0 192 124.5 331t451.5 139h51v2h276l172 -929q25 -186 25 -195q25 121 45 193l274 919h246l246 -899q25 -100 43 -203q31 190 33 201l194 913h262l-344 -1425h-299
l-211 762q-25 96 -59 252q-39 -164 -63 -252l-232 -762h-299l-260 1200h-109zM1626 1575h-174l-281 442h248z" />
    <glyph glyph-name="X.swsh" horiz-adv-x="1742" 
d="M229 956q0 -113 67 -175t198 -62v-211q-365 0 -466 284q-28 79 -28 171q0 190 114 313q126 139 437 147v2h280l291 -538l281 538h280l-389 -677l410 -748h-283l-309 588l-297 -588h-285l414 745l-264 455h-105q-346 -2 -346 -244z" />
    <glyph glyph-name="Y.swsh" horiz-adv-x="1695" 
d="M1225 0h-256v496q-87 370 -237 564q-107 138 -219 138t-178.5 -61t-66.5 -169t79 -173.5t228 -65.5v-213q-139 0 -245.5 38t-168 103.5t-92 145.5t-30.5 170q0 187 115 318.5t341 131.5q433 0 615 -655q111 352 309 657h281q-299 -471 -475 -907v-518z" />
    <glyph glyph-name="Yacute.swsh" horiz-adv-x="1695" 
d="M1225 0h-256v496q-119 490 -319 646q-72 56 -136 56q-114 0 -180 -61t-66 -169t79 -173.5t228 -65.5v-213q-139 0 -245.5 38t-168 103.5t-92 145.5t-30.5 170q0 187 115 318.5t341 131.5q433 0 615 -655q111 352 309 657h281q-299 -471 -475 -907v-518zM1520 1999
l-342 -424h-195l268 424h269z" />
    <glyph glyph-name="Ycircumflex.swsh" horiz-adv-x="1695" 
d="M1225 0h-256v496q-87 370 -237 564q-107 138 -219 138t-178.5 -61t-66.5 -169t79 -173.5t228 -65.5v-213q-139 0 -245.5 38t-168 103.5t-92 145.5t-30.5 170q0 187 115 318.5t341 131.5q433 0 615 -655q111 352 309 657h281q-299 -471 -475 -907v-518zM1092 1823
l-179 -256h-196l270 461h207l270 -461h-194z" />
    <glyph glyph-name="Ydieresis.swsh" horiz-adv-x="1695" 
d="M1225 0h-256v496q-87 370 -237 564q-107 138 -219 138t-178.5 -61t-66.5 -169t79 -173.5t228 -65.5v-213q-139 0 -245.5 38t-168 103.5t-92 145.5t-30.5 170q0 187 115 318.5t341 131.5q433 0 615 -655q111 352 309 657h281q-299 -471 -475 -907v-518zM1302 1608
q-60 0 -101.5 42t-41.5 101t42 102t101.5 43t101.5 -43t42 -102t-42 -101t-102 -42zM888.5 1608q-59.5 0 -101.5 42t-42 101t42 102t91.5 43t81.5 -19q72 -42 72 -113.5t-42 -113.5t-101.5 -42z" />
    <glyph glyph-name="Ygrave.swsh" horiz-adv-x="1695" 
d="M1225 0h-256v496q-87 370 -237 564q-107 138 -219 138t-178.5 -61t-66.5 -169t79 -173.5t228 -65.5v-213q-139 0 -245.5 38t-168 103.5t-92 145.5t-30.5 170q0 187 115 318.5t341 131.5q433 0 615 -655q111 352 309 657h281q-299 -471 -475 -907v-518zM1178 1575h-174
l-281 442h248z" />
    <glyph glyph-name="Z.swsh" horiz-adv-x="1228" 
d="M1221 255q0 -202 -124 -312.5t-315 -110.5q-145 0 -306.5 76t-247 76t-160.5 -41l-60 215l719 1034h-686v233h1020v-217l-711 -997q55 -8 184.5 -68.5t228.5 -60.5t158.5 54t59.5 152.5t-40 162t-114 116.5l140 187q102 -53 178 -175t76 -324z" />
    <glyph glyph-name="Zacute.swsh" horiz-adv-x="1228" 
d="M1221 255q0 -202 -124 -312.5t-315 -110.5q-145 0 -306.5 76t-247 76t-160.5 -41l-60 215l719 1034h-686v233h1020v-217l-711 -997q55 -8 184.5 -68.5t228.5 -60.5t158.5 54t59.5 152.5t-40 162t-114 116.5l140 187q102 -53 178 -175t76 -324zM1063 1999l-342 -424h-195
l269 424h268z" />
    <glyph glyph-name="Zcaron.swsh" horiz-adv-x="1228" 
d="M1221 255q0 -202 -124 -312.5t-315 -110.5q-145 0 -306.5 76t-247 76t-160.5 -41l-60 215l719 1034h-686v233h1020v-217l-711 -997q55 -8 184.5 -68.5t228.5 -60.5t158.5 54t59.5 152.5t-40 162t-114 116.5l140 187q102 -53 178 -175t76 -324zM748 1575h-207l-271 461
h197l178 -258l178 258h195z" />
    <glyph glyph-name="Zdotaccent.swsh" horiz-adv-x="1228" 
d="M1221 255q0 -202 -124 -312.5t-315 -110.5q-145 0 -306.5 76t-247 76t-160.5 -41l-60 215l719 1034h-686v233h1020v-217l-711 -997q55 -8 184.5 -68.5t228.5 -60.5t158.5 54t59.5 152.5t-40 162t-114 116.5l140 187q102 -53 178 -175t76 -324zM639 1608q-61 0 -104 43
t-43 103.5t43 103.5t94 43q51 1 83 -19q72 -43 72 -129q0 -59 -42 -102t-103 -43z" />
    <glyph glyph-name="i.loclTRK" horiz-adv-x="501" 
d="M373 977v-977h-246v977h246zM111 1311q-1 41 19 75q43 75 118 75.5t118.5 -43.5t43.5 -106.5t-43 -106.5t-95.5 -44t-87 20.5t-54 54.5t-19.5 75z" />
    <glyph glyph-name="a.ss01" horiz-adv-x="1155" 
d="M528 188q191 0 269 185v248q-33 84 -97 128t-132 44q-122 0 -198.5 -74.5t-76.5 -228t69 -228t166 -74.5zM797 977h245v-977h-245v139q-125 -172 -320.5 -172t-311.5 130t-116 390q0 133 36 235q37 104 97 164q122 122 315 122t300 -162v131z" />
    <glyph glyph-name="aacute.ss01" horiz-adv-x="1155" 
d="M528 188q191 0 269 185v248q-33 84 -97 128t-132 44q-122 0 -198.5 -74.5t-76.5 -228t69 -228t166 -74.5zM797 977h245v-977h-245v139q-125 -172 -320.5 -172t-311.5 130t-116 390q0 133 36 235q37 104 97 164q122 122 315 122t300 -162v131zM948 1571l-260 -443h-170
l182 443h248z" />
    <glyph glyph-name="abreve.ss01" horiz-adv-x="1155" 
d="M528 188q191 0 269 185v248q-33 84 -97 128t-132 44q-122 0 -198.5 -74.5t-76.5 -228t69 -228t166 -74.5zM797 977h245v-977h-245v139q-125 -172 -320.5 -172t-311.5 130t-116 390q0 133 36 235q37 104 97 164q122 122 315 122t300 -162v131zM614.5 1157
q-184.5 0 -277.5 106.5t-81 313.5h193q-10 -258 164.5 -258t166.5 258h193q10 -207 -82 -313.5t-276.5 -106.5z" />
    <glyph glyph-name="acircumflex.ss01" horiz-adv-x="1155" 
d="M528 188q191 0 269 185v248q-33 84 -97 128t-132 44q-122 0 -198.5 -74.5t-76.5 -228t69 -228t166 -74.5zM797 977h245v-977h-245v139q-125 -172 -320.5 -172t-311.5 130t-116 390q0 133 36 235q37 104 97 164q122 122 315 122t300 -162v131zM614 1403l-180 -275h-174
l250 451h207l250 -451h-174z" />
    <glyph glyph-name="adieresis.ss01" horiz-adv-x="1155" 
d="M528 188q191 0 269 185v248q-33 84 -97 128t-132 44q-122 0 -198.5 -74.5t-76.5 -228t69 -228t166 -74.5zM797 977h245v-977h-245v139q-125 -172 -320.5 -172t-311.5 130t-116 390q0 133 36 235q37 104 97 164q122 122 315 122t300 -162v131zM835.5 1229
q-59.5 0 -100.5 42t-41 100.5t41 100t100.5 41.5t100.5 -41.5t41 -100t-41 -100.5t-100.5 -42zM392.5 1229q-58.5 0 -100.5 42t-42 90t20 81q42 71 111 71t110 -41.5t41 -100t-40.5 -100.5t-99 -42z" />
    <glyph glyph-name="agrave.ss01" horiz-adv-x="1155" 
d="M528 188q191 0 269 185v248q-33 84 -97 128t-132 44q-122 0 -198.5 -74.5t-76.5 -228t69 -228t166 -74.5zM797 977h245v-977h-245v139q-125 -172 -320.5 -172t-311.5 130t-116 390q0 133 36 235q37 104 97 164q122 122 315 122t300 -162v131zM707 1128h-170l-261 443h248
z" />
    <glyph glyph-name="amacron.ss01" horiz-adv-x="1155" 
d="M528 188q191 0 269 185v248q-33 84 -97 128t-132 44q-122 0 -198.5 -74.5t-76.5 -228t69 -228t166 -74.5zM797 977h245v-977h-245v139q-125 -172 -320.5 -172t-311.5 130t-116 390q0 133 36 235q37 104 97 164q122 122 315 122t300 -162v131zM969 1464v-207h-709v207h709
z" />
    <glyph glyph-name="aogonek.ss01" horiz-adv-x="1155" 
d="M528 188q191 0 269 185v248q-33 84 -97 128t-132 44q-122 0 -198.5 -74.5t-76.5 -228t69 -228t166 -74.5zM828.5 -602q-134.5 0 -194 58.5t-59.5 152.5q0 223 285 391h-63v139q-125 -172 -320.5 -172t-311.5 130t-116 390q0 133 36 235q37 104 97 164q122 122 315 122
t300 -162v131h245v-977q-114 -89 -165 -141q-89 -92 -89 -185.5t90.5 -93.5t174.5 53l41 -165q-131 -70 -265.5 -70z" />
    <glyph glyph-name="aring.ss01" horiz-adv-x="1155" 
d="M528 188q191 0 269 185v248q-33 84 -97 128t-132 44q-122 0 -198.5 -74.5t-76.5 -228t69 -228t166 -74.5zM797 977h245v-977h-245v139q-125 -172 -320.5 -172t-311.5 130t-116 390q0 133 36 235q37 104 97 164q122 122 315 122t300 -162v131zM614.5 1559
q-57.5 0 -93.5 -38q-36 -39 -36 -89q1 -50 17 -80q34 -60 101.5 -60t102.5 35t35 96.5t-34.5 98.5t-92 37zM614 1159q-84 0 -148 35q-126 70 -126 229q0 117 74.5 192t199.5 75q82 0 146 -36q130 -73 129 -231q0 -115 -75 -189.5t-200 -74.5z" />
    <glyph glyph-name="atilde.ss01" horiz-adv-x="1155" 
d="M293 490.5q0 -153.5 69 -228t166 -74.5q191 0 269 185v248q-69 172 -246 172q-105 0 -181.5 -74.5t-76.5 -228zM797 977h245v-977h-245v139q-125 -172 -320.5 -172t-311.5 130t-116 390q0 133 36 235q37 104 97 164q122 122 315 122t300 -162v131zM422 1554
q57 0 105 -31.5t108 -88.5q31 -32 45 -48q42 -47 80 -47q74 0 71 211h170q18 -414 -192 -413q-48 0 -72 11q-23 11 -35 15q-14 5 -65.5 46t-56.5 53q-84 84 -113 84q-74 0 -70 -203h-172q-8 215 41 313t156 98z" />
    <glyph glyph-name="g.ss01" horiz-adv-x="1144" 
d="M797 621q-69 172 -257 172q-96 0 -171.5 -76t-75.5 -227.5t69 -226.5t175 -75q184 0 260 185v248zM797 977h245v-928q0 -236 -85.5 -366.5t-206.5 -176t-242 -45.5q-264 0 -420 164l105 187q113 -139 296 -140q139 0 223.5 79t84.5 259v125q-123 -168 -319.5 -168
t-312.5 129t-116 391q-1 380 271 490q76 31 165 31q205 0 312 -160v129z" />
    <glyph glyph-name="gbreve.ss01" horiz-adv-x="1144" 
d="M797 621q-69 172 -257 172q-96 0 -171.5 -76t-75.5 -227.5t69 -226.5t175 -75q184 0 260 185v248zM797 977h245v-928q0 -139 -34 -245q-32 -106 -84 -170q-140 -172 -410 -172.5t-426 163.5l105 187q113 -139 296 -140q139 0 223.5 79t84.5 259v125
q-123 -168 -319.5 -168t-312.5 129t-116 391q-1 380 271 490q76 31 165 31q205 0 312 -160v129zM622 1157q-183 0 -277.5 106.5t-82.5 313.5h193q-8 -258 166 -258t165 258h193q12 -207 -81 -313.5t-276 -106.5z" />
    <glyph glyph-name="gcommaaccent.ss01" horiz-adv-x="1144" 
d="M797 621q-69 172 -257 172q-96 0 -171.5 -76t-75.5 -227.5t69 -226.5t175 -75q184 0 260 185v248zM797 977h245v-928q0 -236 -85.5 -366.5t-206.5 -176t-242 -45.5q-264 0 -420 164l105 187q113 -139 296 -140q139 0 223.5 79t84.5 259v125q-123 -168 -319.5 -168
t-312.5 129t-116 391q-1 380 271 490q76 31 165 31q205 0 312 -160v129zM434 1360q0 297 256 387l80 -121q-159 -72 -186 -190q23 8 61.5 8t76.5 -34t38 -89t-22 -89q-42 -67 -128 -67t-131 57.5t-45 137.5z" />
    <glyph glyph-name="gdotaccent.ss01" horiz-adv-x="1144" 
d="M797 621q-69 172 -257 172q-96 0 -171.5 -76t-75.5 -227.5t69 -226.5t175 -75q184 0 260 185v248zM797 977h245v-928q0 -236 -85.5 -366.5t-206.5 -176t-242 -45.5q-264 0 -420 164l105 187q113 -139 296 -140q139 0 223.5 79t84.5 259v125q-123 -168 -319.5 -168
t-312.5 129t-116 391q-1 380 271 490q76 31 165 31q205 0 312 -160v129zM640 1161q-52 0 -87 20.5t-54.5 54.5t-19.5 75t19.5 75.5t54.5 55t76 20.5t75 -20q74 -44 74 -131q0 -61 -43 -105.5t-95 -44.5z" />
    <glyph glyph-name="w.ss01" horiz-adv-x="1406" 
d="M1151 977h242l-299 -977h-246l-160 412l-182 -412h-236l-254 977h244l162 -758l170 449l-119 309h467l-129 -291l154 -450z" />
    <glyph glyph-name="wacute.ss01" horiz-adv-x="1406" 
d="M1151 977h242l-299 -977h-246l-160 412l-182 -412h-236l-254 977h244l162 -758l170 449l-119 309h467l-129 -291l154 -450zM1038 1571l-260 -443h-170l183 443h247z" />
    <glyph glyph-name="wcircumflex.ss01" horiz-adv-x="1406" 
d="M1151 977h242l-299 -977h-246l-160 412l-182 -412h-236l-254 977h244l162 -758l170 449l-119 309h467l-129 -291l154 -450zM705 1403l-181 -275h-172l248 451h207l250 -451h-174z" />
    <glyph glyph-name="wdieresis.ss01" horiz-adv-x="1406" 
d="M1151 977h242l-299 -977h-246l-160 412l-182 -412h-236l-254 977h244l162 -758l170 449l-119 309h467l-129 -291l154 -450zM925.5 1229q-59.5 0 -100.5 42t-41 100.5t41 100t100.5 41.5t100.5 -41.5t41 -100t-41 -100.5t-100.5 -42zM493 1229q-49 -1 -81 19
q-70 42 -70 111.5t41 111.5t99.5 42t99.5 -41.5t41 -100t-40.5 -100.5t-89.5 -42z" />
    <glyph glyph-name="wgrave.ss01" horiz-adv-x="1406" 
d="M1151 977h242l-299 -977h-246l-160 412l-182 -412h-236l-254 977h244l162 -758l170 449l-119 309h467l-129 -291l154 -450zM797 1128h-170l-260 443h247z" />
    <glyph glyph-name="y.ss01" horiz-adv-x="1028" 
d="M193.5 -530q-128.5 0 -218.5 69l58 217q70 -63 133 -63q102 0 178 170l51 114l-389 1000h262l246 -717l248 717h258l-453 -1170q-66 -170 -155.5 -253.5t-218 -83.5z" />
    <glyph glyph-name="yacute.ss01" horiz-adv-x="1028" 
d="M193.5 -530q-128.5 0 -218.5 69l58 217q70 -63 133 -63q102 0 178 170l51 114l-389 1000h262l246 -717l248 717h258l-453 -1170q-66 -170 -155.5 -253.5t-218 -83.5zM850 1571l-260 -443h-170l180 443h250z" />
    <glyph glyph-name="ycircumflex.ss01" horiz-adv-x="1028" 
d="M193.5 -530q-128.5 0 -218.5 69l58 217q70 -63 133 -63q102 0 178 170l51 114l-389 1000h262l246 -717l248 717h258l-453 -1170q-66 -170 -155.5 -253.5t-218 -83.5zM514 1403l-178 -275h-174l250 451h204l252 -451h-174z" />
    <glyph glyph-name="ydieresis.ss01" horiz-adv-x="1028" 
d="M193.5 -530q-128.5 0 -218.5 69l58 217q70 -63 133 -63q102 0 178 170l51 114l-389 1000h262l246 -717l248 717h258l-453 -1170q-66 -170 -155.5 -253.5t-218 -83.5zM737.5 1229q-59.5 0 -101.5 42t-42 100.5t42 100t101.5 41.5t100.5 -41.5t41 -100t-41 -100.5
t-100.5 -42zM294 1229q-58 0 -100 42t-42 100.5t42 100t100 41.5t99 -41.5t41 -100t-41 -100.5t-99 -42z" />
    <glyph glyph-name="a.sc" horiz-adv-x="1179" 
d="M406 371h342l-179 487zM883 0l-72 199h-465l-65 -199h-240l387 1055h295l416 -1055h-256z" />
    <glyph glyph-name="aacute.sc" horiz-adv-x="1179" 
d="M406 371h342l-179 487zM883 0l-72 199h-465l-65 -199h-240l387 1055h295l416 -1055h-256zM915 1645l-260 -441h-170l183 441h247z" />
    <glyph glyph-name="abreve.sc" horiz-adv-x="1179" 
d="M406 371h342l-179 487zM883 0l-72 199h-465l-65 -199h-240l387 1055h295l416 -1055h-256zM582 1231q-184 0 -277.5 106.5t-83.5 315.5h195q-10 -258 165 -258t167 258h192q12 -280 -154 -375q-82 -47 -204 -47z" />
    <glyph glyph-name="uni01CE.sc" horiz-adv-x="1179" 
d="M406 371h342l-179 487zM883 0l-72 199h-465l-65 -199h-240l387 1055h295l416 -1055h-256zM684 1204h-207l-250 451h174l181 -277l178 277h174z" />
    <glyph glyph-name="acircumflex.sc" horiz-adv-x="1179" 
d="M406 371h342l-179 487zM883 0l-72 199h-465l-65 -199h-240l387 1055h295l416 -1055h-256zM582 1479l-181 -275h-174l250 451h207l250 -451h-174z" />
    <glyph glyph-name="adieresis.sc" horiz-adv-x="1179" 
d="M406 371h342l-179 487zM883 0l-72 199h-465l-65 -199h-240l387 1055h295l416 -1055h-256zM802.5 1305q-59.5 0 -100 40.5t-40.5 100t40.5 101.5t100 42t100.5 -42t41 -101.5t-41 -100t-100.5 -40.5zM359.5 1305q-58.5 0 -100.5 40.5t-42 100t42 101.5t100.5 42t99.5 -42
t41 -101.5t-41 -100t-99.5 -40.5z" />
    <glyph glyph-name="agrave.sc" horiz-adv-x="1179" 
d="M406 371h342l-179 487zM883 0l-72 199h-465l-65 -199h-240l387 1055h295l416 -1055h-256zM674 1204h-170l-260 441h248z" />
    <glyph glyph-name="amacron.sc" horiz-adv-x="1179" 
d="M406 371h342l-179 487zM883 0l-72 199h-465l-65 -199h-240l387 1055h295l416 -1055h-256zM934 1538v-205h-707v205h707z" />
    <glyph glyph-name="aogonek.sc" horiz-adv-x="1179" 
d="M406 371h342l-179 487zM920 -389q80 0 165 51l39 -166q-127 -68 -262 -68q-254 1 -254 226q0 102 70 195.5t201 162.5l-68 187h-465l-65 -199h-240l387 1055h295l416 -1055h-58q-121 -72 -190.5 -140.5t-69.5 -150.5q1 -98 99 -98z" />
    <glyph glyph-name="aring.sc" horiz-adv-x="1179" 
d="M406 371h342l-179 487zM883 0l-72 199h-465l-65 -199h-240l387 1055h295l416 -1055h-256zM572 1632q-47 0 -83 -36.5t-36 -87t16 -80.5q33 -60 101 -60q139 0 139 132t-137 132zM581 1235q-126 0 -200 73.5t-74 190.5t74 190.5t199 73.5t200.5 -75.5t75.5 -189.5
t-74.5 -188.5t-200.5 -74.5z" />
    <glyph glyph-name="atilde.sc" horiz-adv-x="1179" 
d="M406 371h342l-179 487zM883 0l-72 199h-465l-65 -199h-240l387 1057h295l416 -1057h-256zM432 1419q-71 0 -67 -202h-172q-8 217 41 314t155 97q73 0 147 -60q28 -23 91 -88t100 -65q74 0 72 209h170q16 -414 -193 -414q-41 0 -69.5 12.5t-38.5 16.5q-13 5 -55 38
q-43 34 -94.5 88t-86.5 54z" />
    <glyph glyph-name="ae.sc" horiz-adv-x="1394" 
d="M705 381l-19 465h-61l-176 -465h256zM1323 846h-397l8 -213l289 -2v-182h-283l8 -238h375v-211h-606l-6 209h-328l-80 -209h-242l426 1055h836v-209z" />
    <glyph glyph-name="b.sc" horiz-adv-x="1099" 
d="M639 213q70 0 110 33t39 94q0 117 -155 117h-244v-244h250zM743 743q0 100 -133 101h-221v-219h234q47 0 84 32q36 33 36 86zM1028 309q0 -141 -102 -225t-301 -84h-478v1055h484q338 0 338 -250q0 -89 -46 -155t-130 -93q146 -12 205 -118q30 -54 30 -130z" />
    <glyph glyph-name="c.sc" horiz-adv-x="1120" 
d="M623 -29q-254 0 -400.5 147.5t-146.5 410.5t158.5 408.5t402.5 145.5t405 -127l-133 -200q-111 90 -252 90t-229 -85t-88 -230.5t84 -232.5t234.5 -87t283.5 102l100 -213q-165 -129 -419 -129z" />
    <glyph glyph-name="cacute.sc" horiz-adv-x="1120" 
d="M623 -29q-254 0 -400.5 147.5t-146.5 410.5t158.5 408.5t402.5 145.5t405 -127l-133 -200q-111 90 -252 90t-229 -85t-88 -230.5t84 -232.5t234.5 -87t283.5 102l100 -213q-165 -129 -419 -129zM973 1651l-260 -443h-170l182 443h248z" />
    <glyph glyph-name="ccaron.sc" horiz-adv-x="1120" 
d="M658.5 211q150.5 0 283.5 102l100 -213q-166 -129 -419.5 -129t-400 147.5t-146.5 410.5t158.5 408.5t402.5 145.5t405 -127l-133 -200q-111 90 -252 90t-229 -85t-88 -230.5t84 -232.5t234.5 -87zM741 1208h-206l-250 451h174l180 -275l178 275h174z" />
    <glyph glyph-name="ccedilla.sc" horiz-adv-x="1120" 
d="M727 -158q94 0 147.5 -53t53.5 -145.5t-40 -149.5q-79 -112 -265 -112q-147 0 -252 71l59 135q20 -18 74.5 -40.5t116 -22.5t97.5 27.5t36 72.5q0 92 -86 92q-66 0 -107 -45l-121 41l101 262q-219 24 -342 168t-123 396.5t158.5 398t402.5 145.5t405 -127l-133 -200
q-111 90 -252 90t-229 -85t-88 -230.5t84 -232.5t234.5 -87t283.5 102l100 -213q-139 -109 -348 -125l-69 -153q49 20 102 20z" />
    <glyph glyph-name="cdotaccent.sc" horiz-adv-x="1120" 
d="M623 -29q-254 0 -400.5 147.5t-146.5 410.5t158.5 408.5t402.5 145.5t405 -127l-133 -200q-111 90 -252 90t-229 -85t-88 -230.5t84 -232.5t234.5 -87t283.5 102l100 -213q-165 -129 -419 -129zM498 1391q0 41 20 75q43 76 129 76q61 0 105.5 -42.5t44.5 -106t-43 -108
t-95.5 -44.5t-87 19.5t-54 54.5t-19.5 76z" />
    <glyph glyph-name="d.sc" horiz-adv-x="1202" 
d="M530 829h-131v-602h131q156 0 243 84.5t89 229.5q0 214 -192 270q-62 18 -140 18zM532 1055q285 0 440.5 -125t155.5 -389t-157.5 -402.5t-438.5 -138.5h-385v1055h385z" />
    <glyph glyph-name="eth.sc" horiz-adv-x="1202" 
d="M530 829h-131v-196h269v-178h-269v-228h131q156 0 243 84.5t89 229.5q0 214 -192 270q-62 18 -140 18zM532 1055q285 0 440.5 -125t155.5 -389t-157.5 -402.5t-438.5 -138.5h-385v455h-100v178h100v422h385z" />
    <glyph glyph-name="dcaron.sc" horiz-adv-x="1202" 
d="M530 829h-131v-602h131q156 0 243 84.5t89 229.5q0 214 -192 270q-62 18 -140 18zM532 1055q285 0 440.5 -125t155.5 -389t-157.5 -402.5t-438.5 -138.5h-385v1055h385zM694 1208h-207l-247 451h172l180 -275l178 275h174z" />
    <glyph glyph-name="dcroat.sc" horiz-adv-x="1202" 
d="M530 829h-131v-196h269v-178h-269v-228h131q156 0 243 84.5t89 229.5q0 214 -192 270q-62 18 -140 18zM532 1055q285 0 440.5 -125t155.5 -389t-157.5 -402.5t-438.5 -138.5h-385v455h-100v178h100v422h385z" />
    <glyph glyph-name="e.sc" horiz-adv-x="985" 
d="M913 840h-518v-207h396v-180h-396v-236h518v-217h-772v1055h772v-215z" />
    <glyph glyph-name="eacute.sc" horiz-adv-x="985" 
d="M913 840h-518v-207h396v-180h-396v-236h518v-217h-772v1055h772v-215zM879 1651l-261 -443h-169l182 443h248z" />
    <glyph glyph-name="ecaron.sc" horiz-adv-x="985" 
d="M913 840h-518v-207h396v-180h-396v-236h518v-217h-772v1055h772v-215zM647 1208h-207l-250 451h175l180 -275l178 275h174z" />
    <glyph glyph-name="ecircumflex.sc" horiz-adv-x="985" 
d="M913 840h-518v-207h396v-180h-396v-236h518v-217h-772v1055h772v-215zM545 1483l-180 -275h-175l250 451h207l250 -451h-174z" />
    <glyph glyph-name="edieresis.sc" horiz-adv-x="985" 
d="M913 840h-518v-207h396v-180h-396v-236h518v-217h-772v1055h772v-215zM756 1309q-49 0 -90 42t-41 100t41 100t100 42t100 -42t41 -90t-18.5 -80.5t-51 -52t-81.5 -19.5zM314 1309q-49 0 -90.5 42t-41.5 100t41 100t99.5 42t99.5 -42t41 -90t-18.5 -80.5t-50 -52
t-80.5 -19.5z" />
    <glyph glyph-name="edotaccent.sc" horiz-adv-x="985" 
d="M913 840h-518v-207h396v-180h-396v-236h518v-217h-772v1055h772v-215zM548 1241q-36 0 -71 19.5t-54.5 54.5t-19.5 76q-1 41 19 75q43 76 118.5 76t118.5 -44t43 -91t-11 -74.5t-31.5 -47t-48 -32t-63.5 -12.5z" />
    <glyph glyph-name="egrave.sc" horiz-adv-x="985" 
d="M913 840h-518v-207h396v-180h-396v-236h518v-217h-772v1055h772v-215zM637 1208h-170l-260 443h248z" />
    <glyph glyph-name="emacron.sc" horiz-adv-x="985" 
d="M913 840h-518v-207h396v-180h-396v-236h518v-217h-772v1055h772v-215zM899 1544v-207h-709v207h709z" />
    <glyph glyph-name="eogonek.sc" horiz-adv-x="985" 
d="M141 0v1055h772v-215h-518v-207h396v-180h-396v-236h518v-217q-121 -72 -190.5 -140.5t-69.5 -150.5q0 -98 99 -98q80 0 166 51l38 -166q-127 -68 -262 -67.5t-195.5 60.5t-60.5 177q0 116 114 232q56 56 136 102h-547z" />
    <glyph glyph-name="f.sc" horiz-adv-x="952" 
d="M903 842h-508v-252h387v-191h-387v-399h-254v1055h762v-213z" />
    <glyph glyph-name="g.sc" horiz-adv-x="1175" 
d="M584 621h491v-572q-221 -74 -464.5 -74t-393 144.5t-149.5 405.5t156.5 407.5t411.5 146.5t425 -137l-148 -194q-106 90 -270 90q-195 0 -276 -146q-39 -70 -39 -166q0 -143 82 -225t209 -82t204 27v172h-239v203z" />
    <glyph glyph-name="gbreve.sc" horiz-adv-x="1175" 
d="M584 621h491v-572q-221 -74 -465 -74t-393 144.5t-149 405.5t156.5 407.5t411.5 146.5t425 -137l-148 -194q-105 90 -259 90t-240 -85t-86 -227t82 -224.5t209 -82.5t204 27v172h-239v203zM635 1237q-184 0 -278.5 106.5t-82.5 313.5h193q-8 -258 166 -258t166 258h192
q12 -207 -80 -313.5t-276 -106.5z" />
    <glyph glyph-name="gcommaaccent.sc" horiz-adv-x="1175" 
d="M623 -111q73 0 121.5 -59t48.5 -162q0 -254 -256 -370l-82 122q93 44 130.5 87.5t49.5 86.5q-12 -2 -27 -2q-59 0 -100 39t-41 108t41.5 109.5t114.5 40.5zM584 621h491v-572q-221 -74 -464.5 -74t-393 144.5t-149.5 405.5t156.5 407.5t411.5 146.5t425 -137l-148 -194
q-106 90 -270 90q-195 0 -276 -146q-39 -70 -39 -166q0 -143 82 -225t209 -82t204 27v172h-239v203z" />
    <glyph glyph-name="gdotaccent.sc" horiz-adv-x="1175" 
d="M584 621h491v-572q-221 -74 -464.5 -74t-393 144.5t-149.5 405.5t156.5 407.5t411.5 146.5t425 -137l-148 -194q-106 90 -270 90q-195 0 -276 -146q-39 -70 -39 -166q0 -143 82 -225t209 -82t204 27v172h-239v203zM642 1241q-62 0 -106 44t-44 106.5t44 106.5t106 44
t105.5 -44t43.5 -106.5t-43.5 -106.5t-105.5 -44z" />
    <glyph glyph-name="h.sc" horiz-adv-x="1214" 
d="M821 1055h252v-1055h-252v434h-428v-434h-252v1055h252v-400h428v400z" />
    <glyph glyph-name="hbar.sc" horiz-adv-x="1196" 
d="M801 555v172h-408v-172h408zM1126 907v-180h-73v-727h-252v354h-408v-354h-252v727h-73v180h73v148h252v-148h408v148h252v-148h73z" />
    <glyph glyph-name="i.sc" horiz-adv-x="534" 
d="M393 1055v-1055h-252v1055h252z" />
    <glyph glyph-name="iacute.sc" horiz-adv-x="534" 
d="M393 1055v-1055h-252v1055h252zM602 1651l-260 -443h-170l182 443h248z" />
    <glyph glyph-name="uni01D0.sc" horiz-adv-x="534" 
d="M141 0v1055h252v-1055h-252zM371 1208h-207l-248 451h172l180 -275l181 275h172z" />
    <glyph glyph-name="icircumflex.sc" horiz-adv-x="534" 
d="M141 0v1055h252v-1055h-252zM371 1659l250 -451h-172l-181 275l-180 -275h-172l248 451h207z" />
    <glyph glyph-name="idieresis.sc" horiz-adv-x="534" 
d="M393 1055v-1055h-252v1055h252zM348 1461q0 48 41 90t100.5 42t100.5 -42t41 -90t-18.5 -80.5t-51.5 -52t-71.5 -19.5t-71.5 19.5t-51.5 52t-18.5 80.5zM-94 1461q0 48 41 90t90 42q49 1 81 -19q70 -43 70 -112t-41 -111t-90 -42t-81.5 19.5t-51 52t-18.5 80.5z" />
    <glyph glyph-name="i.sc.loclTRK" horiz-adv-x="534" 
d="M393 1055v-1055h-252v1055h252zM127 1407q0 47 44 91t106 44t105.5 -44t43.5 -106.5t-43 -106.5t-105 -44t-107 43q-44 43 -44 123z" />
    <glyph glyph-name="igrave.sc" horiz-adv-x="534" 
d="M393 1055v-1055h-252v1055h252zM360 1208h-170l-260 443h248z" />
    <glyph glyph-name="imacron.sc" horiz-adv-x="534" 
d="M393 1055v-1055h-252v1055h252zM-86 1544h709v-207h-709v207z" />
    <glyph glyph-name="iogonek.sc" horiz-adv-x="534" 
d="M-80 -349.5q0 101.5 64.5 191.5t185.5 158h-29v1055h252v-1055q-121 -72 -189.5 -140.5t-68.5 -150.5q0 -98 98 -98q80 0 164 51l41 -166q-129 -68 -263 -67.5t-194.5 60.5t-60.5 161.5z" />
    <glyph glyph-name="j.sc" horiz-adv-x="827" 
d="M289 203q170 0 170 215v637h252v-643q0 -260 -110 -348.5t-284 -88.5t-284 93l61 231q72 -96 195 -96z" />
    <glyph glyph-name="k.sc" horiz-adv-x="1105" 
d="M399 0h-252v1055h252v-455l369 455h281l-320 -379l338 -676h-295l-225 461l-148 -174v-287z" />
    <glyph glyph-name="kcommaaccent.sc" horiz-adv-x="1105" 
d="M555.5 -111q71.5 0 120.5 -59t49 -162q0 -254 -256 -370l-84 122q76 35 119 74t63 100q-14 -2 -39.5 -2t-57.5 15.5t-52.5 50.5t-20.5 92.5t43.5 98t115 40.5zM399 0h-252v1055h252v-455l369 455h281l-320 -379l338 -676h-295l-225 461l-148 -174v-287z" />
    <glyph glyph-name="l.sc" horiz-adv-x="856" 
d="M395 217h426v-217h-680v1055h254v-838z" />
    <glyph glyph-name="lacute.sc" horiz-adv-x="856" 
d="M395 217h426v-217h-680v1055h254v-838zM700 1651l-260 -443h-170l183 443h247z" />
    <glyph glyph-name="lcaron.sc" horiz-adv-x="856" 
d="M395 217h426v-217h-680v1055h254v-838zM469 1208h-207l-250 451h174l181 -275l178 275h174z" />
    <glyph glyph-name="lcommaaccent.sc" horiz-adv-x="856" 
d="M507 -111q73 0 122 -59t49 -162q0 -254 -256 -370l-84 122q76 35 119 74t63 100q-14 -2 -39.5 -2t-57.5 15.5t-52.5 50.5t-20.5 92.5t42 98t115 40.5zM395 217h426v-217h-680v1055h254v-838z" />
    <glyph glyph-name="lslash.sc" horiz-adv-x="907" 
d="M434 217h428v-217h-682v426l-119 -51l-69 182l188 76v422h254v-322l258 107l68 -181l-326 -133v-309z" />
    <glyph glyph-name="m.sc" horiz-adv-x="1431" 
d="M1049 0v528q0 70 4 146q-31 -94 -56 -154l-215 -444h-141l-213 436q-27 68 -61 162q4 -82 4 -142v-532h-230v1055h275l309 -649l289 649h262l14 -1055h-241z" />
    <glyph glyph-name="n.sc" horiz-adv-x="1171" 
d="M805 1055h225v-1055h-229l-434 633v-633h-226v1055h228l436 -645v645z" />
    <glyph glyph-name="nacute.sc" horiz-adv-x="1171" 
d="M805 1055h225v-1055h-229l-434 633v-633h-226v1055h228l436 -645v645zM922 1651l-260 -443h-170l182 443h248z" />
    <glyph glyph-name="ncaron.sc" horiz-adv-x="1171" 
d="M805 1055h225v-1055h-229l-434 633v-633h-226v1055h228l436 -645v645zM690 1208h-207l-250 451h175l180 -275l178 275h174z" />
    <glyph glyph-name="ncommaaccent.sc" horiz-adv-x="1171" 
d="M764 -332q0 -254 -256 -370l-84 122q100 47 134 89t48 85q-14 -2 -28 -2q-59 0 -100.5 39t-41.5 108t42.5 109.5t101.5 40.5q59 -1 99 -27q85 -56 85 -194zM805 1055h225v-1055h-229l-434 633v-633h-226v1055h228l436 -645v645z" />
    <glyph glyph-name="eng.sc" horiz-adv-x="1165" 
d="M1030 41q0 -303 -208 -383q-65 -25 -165 -25t-182 41l47 213q51 -35 127 -34q135 0 148 143l-422 637v-633h-234v1055h236l420 -643v643l233 2v-1016z" />
    <glyph glyph-name="ntilde.sc" horiz-adv-x="1171" 
d="M805 1057h225v-1057h-229l-434 633v-633h-226v1057h228l436 -647v647zM594 1526q46 -46 60 -61q44 -46 79 -46q74 0 72 211h170q16 -414 -193 -413q-111 0 -237 131q-74 77 -109 77q-69 0 -65 -202h-172q-8 215 41 313t148 98t206 -108z" />
    <glyph glyph-name="o.sc" horiz-adv-x="1282" 
d="M642 215q138 0 221 86t83 228t-84 227.5t-221 85.5t-222 -85t-85 -226.5t85 -228.5t223 -87zM640 -29q-263 0 -417.5 149.5t-154.5 408.5t158.5 406.5t414.5 147.5q166 0 295 -63.5t202.5 -189t73.5 -298.5q0 -264 -154.5 -412.5t-417.5 -148.5z" />
    <glyph glyph-name="oacute.sc" horiz-adv-x="1282" 
d="M642 215q138 0 221 86t83 228t-84 227.5t-221 85.5t-222 -85t-85 -226.5t85 -228.5t223 -87zM640 -29q-263 0 -417.5 149.5t-154.5 408.5t158.5 406.5t414.5 147.5q166 0 295 -63.5t202.5 -189t73.5 -298.5q0 -264 -154.5 -412.5t-417.5 -148.5zM975 1651l-260 -443h-170
l182 443h248z" />
    <glyph glyph-name="uni01D2.sc" horiz-adv-x="1282" 
d="M642 215q138 0 221 86t83 228t-84 227.5t-221 85.5t-222 -85t-85 -226.5t85 -228.5t223 -87zM641 1083q166 0 295 -63.5t202.5 -189t73.5 -298.5q0 -264 -154.5 -412.5t-417.5 -148.5t-417.5 149.5t-154.5 408.5t158.5 406.5t414.5 147.5zM743 1208h-206l-250 451h174
l180 -275l178 275h174z" />
    <glyph glyph-name="ocircumflex.sc" horiz-adv-x="1282" 
d="M642 215q138 0 221 86t83 228t-84 227.5t-221 85.5t-222 -85t-85 -226.5t85 -228.5t223 -87zM641 1083q166 0 295 -63.5t202.5 -189t73.5 -298.5q0 -264 -154.5 -412.5t-417.5 -148.5t-417.5 149.5t-154.5 408.5t158.5 406.5t414.5 147.5zM641 1483l-180 -275h-174
l250 451h206l250 -451h-174z" />
    <glyph glyph-name="odieresis.sc" horiz-adv-x="1282" 
d="M642 215q138 0 221 86t83 228t-84 227.5t-221 85.5t-222 -85t-85 -226.5t85 -228.5t223 -87zM640 -29q-263 0 -417.5 149.5t-154.5 408.5t158.5 406.5t414.5 147.5q166 0 295 -63.5t202.5 -189t73.5 -298.5q0 -264 -154.5 -412.5t-417.5 -148.5zM721 1451q0 58 41 100
t100.5 42t100.5 -42t41 -90q0 -49 -18 -81q-41 -72 -112 -71.5t-112 42.5t-41 100zM279 1451q0 58 40.5 100t99 42t99.5 -42t41 -90q-1 -49 -19 -81q-41 -72 -110 -71.5t-110 42.5t-41 100z" />
    <glyph glyph-name="ograve.sc" horiz-adv-x="1282" 
d="M642 215q138 0 221 86t83 228t-84 227.5t-221 85.5t-222 -85t-85 -226.5t85 -228.5t223 -87zM640 -29q-263 0 -417.5 149.5t-154.5 408.5t158.5 406.5t414.5 147.5q166 0 295 -63.5t202.5 -189t73.5 -298.5q0 -264 -154.5 -412.5t-417.5 -148.5zM733 1208h-170l-260 443
h248z" />
    <glyph glyph-name="ohungarumlaut.sc" horiz-adv-x="1282" 
d="M642 215q138 0 221 86t83 228t-84 227.5t-221 85.5t-222 -85t-85 -226.5t85 -228.5t223 -87zM640 -29q-263 0 -417.5 149.5t-154.5 408.5t158.5 406.5t414.5 147.5q166 0 295 -63.5t202.5 -189t73.5 -298.5q0 -264 -154.5 -412.5t-417.5 -148.5zM1200 1651l-336 -443
h-170l258 443h248zM758 1651l-209 -443h-154l121 443h242z" />
    <glyph glyph-name="omacron.sc" horiz-adv-x="1282" 
d="M642 215q138 0 221 86t83 228t-84 227.5t-221 85.5t-222 -85t-85 -226.5t85 -228.5t223 -87zM640 -29q-263 0 -417.5 149.5t-154.5 408.5t158.5 406.5t414.5 147.5q166 0 295 -63.5t202.5 -189t73.5 -298.5q0 -264 -154.5 -412.5t-417.5 -148.5zM287 1544h708v-207h-708
v207z" />
    <glyph glyph-name="oslash.sc" horiz-adv-x="1298" 
d="M971 530q0 76 -25 138l-426 -441q59 -23 129 -22q147 0 234.5 87.5t87.5 237.5zM328 530q0 -80 26 -145l430 442q-61 25 -135 25q-145 0 -233 -87.5t-88 -234.5zM649 -25q-174 0 -307 70l-90 -94l-193 131l111 113q-96 137 -96 335q0 254 161.5 401.5t413.5 147.5
q174 0 309 -71l91 92l192 -129l-111 -115q94 -135 95 -326q0 -260 -158 -407.5t-418 -147.5z" />
    <glyph glyph-name="otilde.sc" horiz-adv-x="1282" 
d="M642 215q138 0 221 86t83 228t-84 227.5t-221 85.5t-222 -85t-85 -226.5t85 -228.5t223 -87zM640 -29q-263 0 -417.5 149.5t-154.5 408.5t158.5 406.5t414.5 147.5q166 0 295 -63.5t202.5 -189t73.5 -298.5q0 -264 -154.5 -412.5t-417.5 -148.5zM449 1634q57 0 105 -31.5
t110 -89.5q83 -94 124 -94q72 0 70 211h170q18 -414 -190 -413q-51 0 -75 11t-35 15t-32.5 21.5t-53.5 43t-36 33.5q-31 31 -56.5 57.5t-55.5 26.5q-74 0 -70 -202h-170q-10 215 39 313t156 98z" />
    <glyph glyph-name="oe.sc" horiz-adv-x="1673" 
d="M635 219q131 0 215 51v521q-86 47 -216 47t-215 -83t-85 -224.5t85 -226.5t216 -85zM1599 840h-505v-228h385v-139h-385v-256h505v-217h-751v6q-106 -31 -249 -31t-264.5 61.5t-194 188.5t-72.5 305q0 262 155.5 407.5t394.5 145.5q119 0 230 -34v6h751v-215z" />
    <glyph glyph-name="p.sc" horiz-adv-x="1030" 
d="M557 514q116 0 161 80q22 40 22 104t-49 104q-48 40 -134 40h-164v-328h164zM559 1055q143 0 237 -35q196 -73 197 -328q0 -182 -105 -275t-294 -93h-201v-324h-252v1055h418z" />
    <glyph glyph-name="thorn.sc" horiz-adv-x="1019" 
d="M545 401q78 0 122 40t44 106q0 65 -44 101t-122 36h-152v-283h152zM553 891q187 0 291 -84t104 -258t-104 -261t-289 -87h-162v-201h-252v1055h252v-164h160z" />
    <glyph glyph-name="q.sc" horiz-adv-x="1296" 
d="M1108 -299h-623v188h623v-188zM642 215q138 0 221 86t83 228t-84 227.5t-221 85.5t-222 -85t-85 -226.5t85 -228.5t223 -87zM640 -29q-263 0 -417.5 149.5t-154.5 408.5t158.5 406.5t414.5 147.5q166 0 295 -63.5t202.5 -189t73.5 -298.5q0 -264 -154.5 -412.5
t-417.5 -148.5z" />
    <glyph glyph-name="r.sc" horiz-adv-x="1107" 
d="M389 842v-273h201q106 0 146 65q20 32 20 75q2 133 -166 133h-201zM1008 735q0 -235 -201 -321l242 -414h-289l-193 381h-178v-381h-248v1055h459q408 0 408 -320z" />
    <glyph glyph-name="racute.sc" horiz-adv-x="1107" 
d="M389 842v-273h201q106 0 146 65q20 32 20 75q2 133 -166 133h-201zM1008 735q0 -235 -201 -321l242 -414h-289l-193 381h-178v-381h-248v1055h459q408 0 408 -320zM893 1651l-262 -443h-170l182 443h250z" />
    <glyph glyph-name="rcaron.sc" horiz-adv-x="1107" 
d="M389 842v-273h201q78 0 122 37t44 103q2 133 -166 133h-201zM1008 735q0 -235 -201 -321l242 -414h-289l-193 381h-178v-381h-248v1055h459q408 0 408 -320zM659 1208h-204l-250 451h174l178 -275l180 275h174z" />
    <glyph glyph-name="rcommaaccent.sc" horiz-adv-x="1107" 
d="M564.5 -111q72.5 0 120.5 -59t48 -162q0 -254 -256 -370l-82 122q96 45 132 88t48 86q-12 -2 -26 -2q-59 0 -100 39t-41 108t42 109.5t114.5 40.5zM389 842v-273h201q106 0 146 65q20 32 20 75q2 133 -166 133h-201zM1008 735q0 -235 -201 -321l242 -414h-289l-193 381
h-178v-381h-248v1055h459q408 0 408 -320z" />
    <glyph glyph-name="s.sc" horiz-adv-x="897" 
d="M340 772q0 -55 39 -85t123 -52q160 -43 244.5 -122t84.5 -230.5t-106.5 -233.5t-310 -82t-363.5 94l78 207q119 -90 289 -90q72 0 114.5 31t42.5 74t-12 63q-25 43 -155 80q-326 76 -326 350q0 145 98.5 228t301 83t352.5 -83l-99 -203q-109 72 -252 71.5t-143 -100.5z
" />
    <glyph glyph-name="sacute.sc" horiz-adv-x="897" 
d="M340 772q0 -55 39 -85t123 -52q160 -43 244.5 -122t84.5 -230.5t-106.5 -233.5t-310 -82t-363.5 94l78 207q119 -90 289 -90q72 0 114.5 31t42.5 74t-12 63q-25 43 -155 80q-326 76 -326 350q0 145 98.5 228t301 83t352.5 -83l-99 -203q-109 72 -252 71.5t-143 -100.5z
M782 1651l-262 -443h-170l182 443h250z" />
    <glyph glyph-name="scaron.sc" horiz-adv-x="897" 
d="M340 772q0 -55 39 -84.5t123 -52.5q160 -43 244.5 -122t84.5 -230.5t-106.5 -233.5t-310 -82t-363.5 94l78 207q119 -90 289 -90q72 0 114.5 31t42.5 86t-40.5 80.5t-126.5 50.5q-326 76 -326 350q0 145 98.5 228t301 83t352.5 -83l-99 -203q-109 72 -252 71.5
t-143 -100.5zM549 1208h-205l-250 451h174l178 -275l181 275h174z" />
    <glyph glyph-name="scedilla.sc" horiz-adv-x="897" 
d="M582 -354q0 92 -99 92q-52 0 -94 -45l-121 43l90 233q-176 14 -307 92l78 207q119 -90 289 -90q72 0 114.5 31t42.5 74t-12 63q-25 43 -155 80q-326 76 -326 350q0 145 98.5 228t301 83t352.5 -83l-99 -203q-109 72 -252 71.5t-143 -100.5q0 -55 39 -85t123 -52
q160 -43 244.5 -122t84.5 -221t-86 -224t-233 -97l-59 -129q47 20 120.5 20.5t128 -53t54.5 -166t-83 -176t-226 -63.5t-248 72l59 133q20 -18 73.5 -41t114.5 -23t98.5 28t37.5 73z" />
    <glyph glyph-name="scommaaccent.sc" horiz-adv-x="897" 
d="M460.5 -111q72.5 0 120.5 -59t48 -162q0 -254 -256 -370l-82 122q74 35 117 74t63 100q-12 -2 -39 -2q-26 0 -58 16q-70 35 -71 132q0 68 42.5 108.5t115 40.5zM340 772q0 -55 39 -84.5t123 -52.5q160 -43 244.5 -122t84.5 -230.5t-106.5 -233.5t-310 -82t-363.5 94
l78 207q119 -90 289 -90q72 0 114.5 31t42.5 86t-40.5 80.5t-126.5 50.5q-326 76 -326 350q0 145 98.5 228t301 83t352.5 -83l-99 -203q-109 72 -252 71.5t-143 -100.5z" />
    <glyph glyph-name="t.sc" horiz-adv-x="989" 
d="M942 1055v-213h-321v-842h-252v842h-322v213h895z" />
    <glyph glyph-name="tcaron.sc" horiz-adv-x="989" 
d="M942 1055v-213h-321v-842h-252v842h-322v213h895zM598 1208h-207l-250 451h174l181 -275l178 275h174z" />
    <glyph glyph-name="uni0163.sc" horiz-adv-x="911" 
d="M584 -369q0 86 -100 86q-54 0 -93 -45l-121 41l111 287h-12v842h-322v213h895v-213h-321v-842h-84l-82 -178q47 20 120.5 20t128 -53t54.5 -166t-83 -177t-226 -64t-248 71l59 135q20 -18 73.5 -40.5t103.5 -22.5q147 0 147 106z" />
    <glyph glyph-name="uni021B.sc" horiz-adv-x="989" 
d="M670 -332q0 -254 -256 -370l-82 122q74 35 117 74t63 100q-12 -2 -27 -2q-59 0 -100 39t-41 96.5t20 91.5q40 70 125 70t133 -59t48 -162zM47 1055h895v-213h-321v-842h-252v842h-322v213z" />
    <glyph glyph-name="u.sc" horiz-adv-x="1140" 
d="M571 -29q-213 0 -335.5 121t-122.5 340v623h252v-609q0 -109 56 -171t150.5 -62t148.5 61.5t54 171.5v609h252v-623q0 -221 -121 -341t-334 -120z" />
    <glyph glyph-name="uacute.sc" horiz-adv-x="1140" 
d="M571 -29q-213 0 -335.5 121t-122.5 340v623h252v-609q0 -109 56 -171t150.5 -62t148.5 61.5t54 171.5v609h252v-623q0 -221 -121 -341t-334 -120zM905 1651l-260 -443h-170l182 443h248z" />
    <glyph glyph-name="uni01D4.sc" horiz-adv-x="1140" 
d="M774 1055h252v-623q0 -221 -121 -341t-334 -120q-289 -1 -402 211q-56 104 -56 250v623h252v-609q0 -109 56 -171t150.5 -62t148.5 61.5t54 171.5v609zM674 1208h-207l-250 451h174l180 -275l179 275h174z" />
    <glyph glyph-name="ucircumflex.sc" horiz-adv-x="1140" 
d="M774 1055h252v-623q0 -221 -121 -341t-334 -120t-335.5 121t-122.5 340v623h252v-609q0 -109 56 -171t150.5 -62t148.5 61.5t54 171.5v609zM571 1483l-180 -275h-174l250 451h207l250 -451h-174z" />
    <glyph glyph-name="udieresis.sc" horiz-adv-x="1140" 
d="M571 -29q-213 0 -335.5 121t-122.5 340v623h252v-609q0 -109 56 -171t150.5 -62t148.5 61.5t54 171.5v609h252v-623q0 -221 -121 -341t-334 -120zM651 1451q0 58 41 100t100.5 42t100.5 -42t41 -90q0 -49 -18 -81q-41 -72 -111.5 -71.5t-112 42.5t-41.5 100zM209 1451
q0 58 41 100t89 42q48 1 81 -19q69 -41 69 -124q0 -57 -40.5 -99t-99 -42t-99.5 42t-41 100z" />
    <glyph glyph-name="ugrave.sc" horiz-adv-x="1140" 
d="M571 -29q-213 0 -335.5 121t-122.5 340v623h252v-609q0 -109 56 -171t150.5 -62t148.5 61.5t54 171.5v609h252v-623q0 -221 -121 -341t-334 -120zM664 1208h-170l-261 443h248z" />
    <glyph glyph-name="uhungarumlaut.sc" horiz-adv-x="1140" 
d="M571 -29q-213 0 -335.5 121t-122.5 340v623h252v-609q0 -109 56 -171t150.5 -62t148.5 61.5t54 171.5v609h252v-623q0 -221 -121 -341t-334 -120zM1130 1651l-335 -443h-170l258 443h247zM688 1651l-209 -443h-153l120 443h242z" />
    <glyph glyph-name="umacron.sc" horiz-adv-x="1140" 
d="M571 -29q-213 0 -335.5 121t-122.5 340v623h252v-609q0 -109 56 -171t150.5 -62t148.5 61.5t54 171.5v609h252v-623q0 -221 -121 -341t-334 -120zM217 1544h709v-207h-709v207z" />
    <glyph glyph-name="uogonek.sc" horiz-adv-x="1140" 
d="M774 1055h252v-623q0 -160 -63.5 -267.5t-182.5 -156.5q-115 -70 -181.5 -137.5t-66.5 -146.5q0 -98 99 -99q80 0 164 53l41 -165q-130 -70 -264 -70t-194.5 60.5t-60.5 164.5q0 174 187 307q-184 18 -287.5 137t-103.5 320v623h252v-609q0 -109 56 -171t150.5 -62
t148.5 61.5t54 171.5v609z" />
    <glyph glyph-name="uring.sc" horiz-adv-x="1140" 
d="M571 -29q-213 0 -335.5 121t-122.5 340v623h252v-609q0 -109 56 -171t150.5 -62t148.5 61.5t54 171.5v609h252v-623q0 -221 -121 -341t-334 -120zM698 1503.5q0 61.5 -34.5 98t-92 36.5t-92.5 -37.5t-35 -88t16 -80.5q32 -60 100 -60t103 35t35 96.5zM297 1503
q0 117 74.5 191.5t198.5 74.5t200 -75.5t76 -190.5q0 -154 -128 -228q-62 -36 -147 -36q-127 0 -200.5 73.5t-73.5 190.5z" />
    <glyph glyph-name="v.sc" horiz-adv-x="1161" 
d="M821 1057l281 -2l-381 -1055h-315l-349 1055l291 2l184 -627q35 -201 39 -237q12 70 50 245z" />
    <glyph glyph-name="w.sc" horiz-adv-x="1589" 
d="M1278 1057l258 -2l-264 -1055h-289l-137 457q-27 109 -55 233q-33 -145 -58 -233l-149 -457h-291l-238 1057h269l118 -596q4 -68 13 -207q23 121 43 205l184 581h240l161 -565q33 -143 43 -213q10 102 19 211z" />
    <glyph glyph-name="wacute.sc" horiz-adv-x="1589" 
d="M1278 1057l258 -2l-264 -1055h-289l-137 457q-27 109 -55 233q-33 -145 -58 -233l-149 -457h-291l-238 1057h269l118 -596q4 -68 13 -207q23 121 43 205l184 581h240l161 -565q33 -143 43 -213q10 102 19 211zM1130 1651l-262 -443h-170l183 443h249z" />
    <glyph glyph-name="wcircumflex.sc" horiz-adv-x="1589" 
d="M1278 1057l258 -2l-264 -1055h-289l-137 457q-27 109 -55 233q-33 -145 -58 -233l-149 -457h-291l-238 1055l269 2l118 -596q4 -68 13 -207q23 121 43 205l184 581h240l161 -565q33 -143 43 -213q10 102 19 211zM795 1483l-179 -275h-174l250 451h205l252 -451h-174z" />
    <glyph glyph-name="wdieresis.sc" horiz-adv-x="1589" 
d="M1278 1057l258 -2l-264 -1055h-289l-137 457q-27 109 -55 233q-33 -145 -58 -233l-149 -457h-291l-238 1057h269l118 -596q4 -68 13 -207q23 121 43 205l184 581h240l161 -565q33 -143 43 -213q10 102 19 211zM1017 1309q-58 0 -100.5 42t-42.5 100t42 100t90 42
q50 1 82 -19q70 -42 69.5 -111.5t-41.5 -111.5t-99 -42zM472.5 1351.5q-40.5 42.5 -40.5 100t41 99.5t100.5 42t100.5 -42t41 -90t-18.5 -80.5t-51.5 -52t-82.5 -19.5t-90 42.5z" />
    <glyph glyph-name="wgrave.sc" horiz-adv-x="1589" 
d="M1278 1057l258 -2l-264 -1055h-289l-137 457q-27 109 -55 233q-33 -145 -58 -233l-149 -457h-291l-238 1057h269l118 -596q4 -68 13 -207q23 121 43 205l184 581h240l161 -565q33 -143 43 -213q10 102 19 211zM887 1208h-170l-260 443h250z" />
    <glyph glyph-name="x.sc" horiz-adv-x="1075" 
d="M1024 0h-274l-213 418l-209 -418h-279l309 553l-292 502h274l203 -387l192 387h273l-285 -504z" />
    <glyph glyph-name="y.sc" horiz-adv-x="1032" 
d="M645 0h-252v360l-350 695h274l201 -475l199 475h272l-344 -688v-367z" />
    <glyph glyph-name="yacute.sc" horiz-adv-x="1032" 
d="M645 0h-252v360l-350 695h274l201 -475l199 475h272l-344 -688v-367zM850 1651l-260 -443h-170l182 443h248z" />
    <glyph glyph-name="ycircumflex.sc" horiz-adv-x="1032" 
d="M645 0h-252v360l-350 695h274l201 -475l199 475h272l-344 -688v-367zM516 1483l-180 -275h-174l250 451h206l250 -451h-174z" />
    <glyph glyph-name="ydieresis.sc" horiz-adv-x="1032" 
d="M645 0h-252v360l-350 695h274l201 -475l199 475h272l-344 -688v-367zM727 1309q-49 0 -90 42t-41 100t41 100t100.5 42t100.5 -42t41 -90t-18.5 -80.5t-51.5 -52t-82 -19.5zM285 1309q-49 0 -90 42t-41 100t41 100t99 42t99 -42t41 -90t-18.5 -80.5t-50 -52t-80.5 -19.5z
" />
    <glyph glyph-name="ygrave.sc" horiz-adv-x="1032" 
d="M645 0h-252v360l-350 695h274l201 -475l199 475h272l-344 -688v-367zM608 1208h-170l-260 443h248z" />
    <glyph glyph-name="z.sc" horiz-adv-x="927" 
d="M883 217v-217h-811v211l452 631h-475v213h795v-209l-461 -629h500z" />
    <glyph glyph-name="zacute.sc" horiz-adv-x="927" 
d="M883 217v-217h-811v211l452 631h-475v213h795v-209l-461 -629h500zM815 1651l-260 -443h-170l182 443h248z" />
    <glyph glyph-name="zcaron.sc" horiz-adv-x="927" 
d="M883 217v-217h-811v211l452 631h-475v213h795v-209l-461 -629h500zM584 1208h-207l-250 451h174l180 -275l178 275h175z" />
    <glyph glyph-name="zdotaccent.sc" horiz-adv-x="927" 
d="M883 217v-217h-811v211l452 631h-475v213h795v-209l-461 -629h500zM500 1241q-52 0 -86.5 19.5t-55 54.5t-20.5 76t20 75q45 76 131 76q61 0 105.5 -42.5t44.5 -106t-43.5 -108t-95.5 -44.5z" />
    <glyph glyph-name="zero.lf" horiz-adv-x="1343" 
d="M676 215q158 0 244 131t86 368t-85 367q-85 131 -244 130t-249 -129t-90 -366t90 -369q90 -132 248 -132zM1276 716q0 -353 -156 -551t-443 -198q-286 0 -448 200q-161 200 -161 548t166 545q168 196 444 196t437 -194t161 -546z" />
    <glyph glyph-name="one.lf" horiz-adv-x="585" 
d="M432 1425v-1425h-258v1202h-119v223h377z" />
    <glyph glyph-name="two.lf" horiz-adv-x="1093" 
d="M1065 229v-229h-977v211l266 252q164 155 247 279t83 239t-62 173t-163 58q-164 0 -334 -137l-125 193q219 188 502 188q202 0 328 -112t126 -306q0 -196 -96 -351t-270 -312l-160 -146h635z" />
    <glyph glyph-name="three.lf" horiz-adv-x="1089" 
d="M516 213q112 0 182 52t70 160t-78 160t-198 52h-109l2 176h100q109 0 182 57q73 58 73 156t-61 144q-60 46 -161 47q-186 0 -340 -130l-112 187q203 184 512 184q178 0 306 -89t128 -282q0 -129 -64 -219t-174 -133q121 -41 196 -132t74 -230q0 -203 -138 -304t-365 -102
q-293 0 -504 183l123 204q88 -76 166 -108t190 -33z" />
    <glyph glyph-name="four.lf" horiz-adv-x="1200" 
d="M727 485v693l-397 -693h397zM1182 485v-223h-205v-262h-250v262h-666v219l578 951h338v-947h205z" />
    <glyph glyph-name="five.lf" horiz-adv-x="1107" 
d="M624 872q130 0 218 -42t141 -138t53 -229q0 -368 -316 -467q-92 -29 -224 -29t-256 50t-209 126l108 215q152 -145 348 -145q117 0 196 65q79 64 79 180t-57 169t-152 53q-143 0 -227 -111l-187 64v792h803v-233h-559v-391q111 71 241 71z" />
    <glyph glyph-name="six.lf" horiz-adv-x="1226" 
d="M684 686q-96 0 -160 -29t-99 -82q-36 -53 -36 -139t72 -157q73 -72 187 -72q114 -1 188 67t74 182t-65 172t-161 58zM719 1217q-225 0 -315 -220q-46 -113 -46 -272v-39q106 193 379 193q197 0 316 -109q119 -108 119 -320t-141 -348q-140 -136 -397 -135
q-258 -1 -402 185t-144 544q0 240 76 412t215 261t328 89q244 0 411 -153l-139 -199q-113 111 -260 111z" />
    <glyph glyph-name="seven.lf" horiz-adv-x="989" 
d="M23 1423h925l-422 -1423h-282l379 1192h-600v231z" />
    <glyph glyph-name="eight.lf" horiz-adv-x="1224" 
d="M342 423q0 -101 72 -157t198 -57q126 0 199 56q72 57 72 157t-74 154t-198 55q-125 1 -197 -53t-72 -155zM846 1018q0 96 -62 149t-154 53q-165 1 -222 -93q-29 -46 -29 -109q0 -98 64 -158q65 -59 168 -59q103 1 169 61t66 156zM82 371q0 267 248 354q-92 47 -147 134
q-54 87 -54 212q0 175 122 281q121 106 361 106t362 -106t122 -281q0 -123 -54 -211t-147 -135q119 -43 183 -133t65 -221q0 -203 -139 -303q-140 -100 -392 -100t-391 100t-139 303z" />
    <glyph glyph-name="nine.lf" horiz-adv-x="1230" 
d="M373 975q1 -113 65 -171t170 -59q106 0 184 65t78 166t-67 172q-68 71 -179 71t-181 -65q-70 -66 -70 -179zM518 209q184 0 284 119q99 119 99 354q0 31 -2 59q-109 -188 -364 -188q-188 0 -306 109q-117 110 -117 322t136 343t384 131t394 -187t146 -550t-158 -559
t-448 -195q-290 0 -482 174l127 209q123 -141 307 -141z" />
    <glyph glyph-name="zero.osf" horiz-adv-x="1234" 
d="M616 199q131 0 218 90q86 91 86 245t-85 241t-217 87t-218 -88q-85 -88 -85 -242t85 -244t216 -89zM616 -33q-250 0 -398 154q-148 155 -148 411t149 406t397 150t399 -150t151 -407t-150 -411t-400 -153z" />
    <glyph glyph-name="one.osf" horiz-adv-x="567" 
d="M426 1057v-1057h-252v842h-86v215h338z" />
    <glyph glyph-name="two.osf" horiz-adv-x="1001" 
d="M973 203v-203h-895l2 203q543 227 543 473q-1 113 -67 153q-66 39 -140 39q-182 0 -324 -127l-106 185q203 162 489 161q174 0 292 -83t118 -273q0 -266 -312 -450q-77 -47 -161 -78h561z" />
    <glyph glyph-name="three.osf" horiz-adv-x="966" 
d="M2 926q180 161 480 161q168 0 284 -90q117 -90 117 -276q0 -131 -71 -231t-200 -144q133 -33 211 -121t78 -229q0 -186 -130 -286t-331 -101q-144 0 -250 38t-206 105l102 193q143 -115 317 -115q121 0 188 54t67 156t-80 157t-207 55h-121v174h98q131 0 210 62t79 169
q-1 107 -63 158t-164 51q-174 0 -304 -108z" />
    <glyph glyph-name="four.osf" horiz-adv-x="1118" 
d="M672 199v655l-416 -655h416zM1094 199v-201h-174v-354h-248v354h-649v199l557 860h340v-858h174z" />
    <glyph glyph-name="five.osf" horiz-adv-x="1009" 
d="M577 494q242 0 335 -178q48 -92 48 -202t-26 -188q-50 -144 -174 -216t-289 -72q-240 0 -418 129l76 217q139 -123 320 -123q117 0 191 61t75 175q-1 114 -59 168t-137 54q-79 1 -140 -33t-96 -81l-170 59v793h764v-234h-541v-405q117 76 241 76z" />
    <glyph glyph-name="six.osf" horiz-adv-x="1122" 
d="M600 694q-100 0 -179 -68t-79 -176q0 -106 67 -180t172 -73t175 71t69 187q0 117 -63 178q-62 61 -162 61zM680 874q170 0 281 -108t111 -322q0 -213 -134 -345q-133 -132 -348 -132q-520 0 -520 729q0 360 158 561q159 201 436 199q223 -2 399 -102l-102 -197
q-125 80 -287 82t-257 -128t-95 -380q0 -31 2 -63q49 96 141 151t215 55z" />
    <glyph glyph-name="seven.osf" horiz-adv-x="917" 
d="M14 1057h869l-367 -1379h-276l335 1149h-561v230z" />
    <glyph glyph-name="eight.osf" horiz-adv-x="1116" 
d="M307 424q0 -106 68 -166q67 -60 183 -61q116 0 184 60q68 61 67 167q0 106 -70 164q-69 58 -181 59q-112 -1 -182 -59t-69 -164zM776 1022q0 100 -58 156t-160 57q-102 0 -160 -56q-58 -55 -58 -157t60 -164t158 -63q98 0 158 63q60 64 60 164zM70 373q0 131 62 221
t177 129q-88 45 -140 133t-52 215q0 176 113 282q114 105 328 105t328 -105t113 -282q0 -127 -52 -215t-140 -131q113 -39 176 -130t64 -222q-1 -203 -133 -304t-356 -101t-356 100q-132 102 -132 305z" />
    <glyph glyph-name="nine.osf" horiz-adv-x="1112" 
d="M543 365q98 -1 173 69t75 176t-67 178t-169 72q-140 0 -207 -119q-33 -59 -33 -137q0 -117 65 -178t163 -61zM560 1085q232 0 367 -190q134 -189 134 -545t-158 -549t-428 -192q-221 2 -403 104l71 207q131 -94 305 -94t271 124q98 124 98 351q0 37 -2 70
q-47 -84 -136 -135t-198 -52q-184 0 -298 113q-113 113 -113 323t129 337q129 128 361 128z" />
    <glyph glyph-name="three.ss01" horiz-adv-x="1077" 
d="M750 458q0 124 -92 190t-281 52v109l303 383h-576v233h900v-202l-332 -408q172 -25 260 -133t88 -266q0 -229 -135 -339t-363 -110q-295 0 -491 183l116 210q157 -149 336 -149q117 0 192 62q75 61 75 185z" />
    <glyph glyph-name="uni0308.case" 
d="M-187 1159q-50 0 -92.5 42t-42.5 101.5t42 102.5t102.5 43t102.5 -43t42 -92t-19.5 -82t-52 -52.5t-82.5 -19.5zM-589.5 1159q-59.5 0 -101.5 42t-42 101.5t42 102.5t101.5 43t100 -43t40.5 -102.5t-40.5 -101.5t-100 -42z" />
    <glyph glyph-name="uni0307.case" 
d="M-182.5 1452q61.5 0 103.5 -43t42 -93q1 -50 -19 -84q-42 -73 -121 -73q-79 -1 -124 59q-29 38 -29 93t43 98t104.5 43z" />
    <glyph glyph-name="gravecomb.case" 
d="M-219 1126l-281 443h248l207 -443h-174z" />
    <glyph glyph-name="acutecomb.case" 
d="M68 1550l-342 -424h-195l266 424h271z" />
    <glyph glyph-name="uni030B.case" 
d="M-12 1567l-336 -441h-172l258 441h250zM-455 1567l-209 -441h-151l121 441h239z" />
    <glyph glyph-name="uni0302.case" 
d="M-23 1126h-196l-178 256l-178 -256h-195l270 461h205z" />
    <glyph glyph-name="uni030C.case" 
d="M-205 1587h195l-271 -461h-206l-271 461h197l178 -258z" />
    <glyph glyph-name="uni0306.case" 
d="M-399 1139q-184 0 -277.5 106.5t-83.5 313.5h193q-8 -258 168 -259q174 0 163 259h193q16 -277 -153 -373q-83 -47 -203 -47z" />
    <glyph glyph-name="uni030A.case" 
d="M-178 1367q0 56 -32 90t-71 34q-68 0 -99.5 -35t-31.5 -81q0 -45 16 -73q31 -54 92.5 -54.5t93.5 31.5t32 88zM-559 1367q0 116 71.5 185.5t192.5 69.5q80 0 140.5 -33t92 -91t31.5 -132t-30.5 -131t-91 -90t-142.5 -33q-123 0 -193.5 69.5t-70.5 185.5z" />
    <glyph glyph-name="tildecomb.case" 
d="M-575 1350q-76 0 -72 -201h-170q-18 420 188 420q75 -1 143 -61q24 -22 58 -56t50 -48q51 -46 89 -46q78 0 76 207h170q18 -422 -201 -422q-62 0 -112 37t-73.5 59t-37.5 37q-69 74 -108 74z" />
    <glyph glyph-name="uni0304.case" 
d="M-750 1229v207h709v-207h-709z" />
    <glyph glyph-name="uni0327.case" 
d="M-352 -414q137 0 137 107q0 37 -22.5 61.5t-75.5 24.5t-95 -47l-120 43l110 291h158l-84 -183q49 19 106 19q56 0 102 -22q94 -47 94.5 -177.5t-82.5 -195t-226 -64.5t-248 72l59 133q36 -30 91 -46t96 -16z" />
    <glyph glyph-name="uni0328.case" 
d="M-421.5 -555q-139.5 0 -201 62.5t-61.5 164.5q0 133 113.5 244t320.5 184l84 -53q-303 -150 -303 -315q0 -104 104 -105q88 0 168 47l41 -166q-126 -63 -265.5 -63z" />
    <glyph glyph-name="caron.alt" horiz-adv-x="358" 
d="M317 1532l-94 -617h-170l17 617h247z" />
    <glyph glyph-name="uni0328.sc" horiz-adv-x="610" 
d="M43 -330q0 129 112 243t314 179l49 -76q-120 -72 -190 -140t-70 -150q0 -98 98 -99q80 0 166 51l39 -165q-126 -68 -281 -68t-211 106q-26 49 -26 119z" />
    <glyph glyph-name="ogonek.sc" horiz-adv-x="610" 
d="M304 -555q-134 0 -193 58t-60 155q1 139 105 257t317 204l45 -72q-254 -164 -254 -328q0 -92 96 -92q84 0 168 54l41 -166q-131 -70 -265 -70z" />
    </font>
</defs>
</svg>
