<?xml version="1.0" standalone="no"?>
<!DOCTYPE svg PUBLIC "-//W3C//DTD SVG 1.1//EN" "http://www.w3.org/Graphics/SVG/1.1/DTD/svg11.dtd" >
<svg xmlns="http://www.w3.org/2000/svg">
<metadata>
Created by FontPrep 20130207 at Fri May 26 16:01:34 2017
 By Lizzy Knight
Copyright 2016 by URW++ Design &#38; Development GmbH
</metadata>
<defs>
<font id="cb6aa150263ea3cd951134e1efb2292c" horiz-adv-x='1024' >
  <font-face 
    font-family="URWDINCond-Medium"
    font-weight="500"
    font-stretch="normal"
    units-per-em="2048"
    panose-1="0 0 6 0 0 0 0 0 0 0"
    ascent="1462"
    descent="-586"
    x-height="1040"
    cap-height="1462"
    bbox="-135 -498 1921 2087"
    underline-thickness="129"
    underline-position="-168"
    unicode-range="U+0020-FB04"
  />
<missing-glyph horiz-adv-x="327" 
 />
    <glyph glyph-name="ff" unicode="ff" horiz-adv-x="970" 
d="M606 893h-82v147h82v136q-2 170 50 230t198 56h84v-139h-43q-72 2 -90 -26t-19 -132v-125h156v-147h-156v-893h-180v893zM141 893h-92v147h92v136q-2 170 50 230t198 56h78v-139h-35q-72 4 -91 -25t-19 -133v-125h120v-147h-120v-893h-181v893z" />
    <glyph glyph-name="fi" unicode="fi" horiz-adv-x="909" 
d="M614 0v1040h181v-1040h-181zM614 1241v227h181v-227h-181zM141 893h-92v147h92v136q-2 170 50 230t198 56h84v-139h-43q-72 2 -90 -26t-18 -132v-125h153v-147h-153v-893h-181v893z" />
    <glyph glyph-name="fl" unicode="fl" horiz-adv-x="958" 
d="M614 1462h181v-1118q-3 -112 25 -152t100 -42h26v-150h-33q-184 2 -242 72t-57 288v1102zM141 893h-92v147h92v136q-2 170 50 230t198 56h84v-139h-43q-72 2 -90 -26t-18 -132v-125h153v-147h-153v-893h-181v893z" />
    <glyph glyph-name="ffi" unicode="ffi" horiz-adv-x="1374" 
d="M1079 0v1040h181v-1040h-181zM1079 1241v227h181v-227h-181zM606 893h-82v147h82v136q-2 170 50 230t198 56h84v-139h-43q-72 2 -90 -26t-19 -132v-125h156v-147h-156v-893h-180v893zM141 893h-92v147h92v136q-2 170 50 230t198 56h78v-139h-35q-72 4 -91 -25t-19 -133
v-125h120v-147h-120v-893h-181v893z" />
    <glyph glyph-name="ffl" unicode="ffl" horiz-adv-x="1425" 
d="M1077 1462h180v-1118q-2 -111 26 -153t99 -41h27v-150h-33q-184 2 -241 72t-58 288v1102zM606 893h-82v147h82v136q-2 170 50 230t198 56h84v-139h-43q-72 2 -90 -26t-19 -132v-125h156v-147h-156v-893h-180v893zM141 893h-92v147h92v136q-2 170 50 230t198 56h78v-139
h-35q-72 4 -91 -25t-19 -133v-125h120v-147h-120v-893h-181v893z" />
    <glyph glyph-name=".notdef" horiz-adv-x="327" 
 />
    <glyph glyph-name=".null" horiz-adv-x="0" 
 />
    <glyph glyph-name="nonmarkingreturn" horiz-adv-x="681" 
 />
    <glyph glyph-name="space" unicode=" " horiz-adv-x="327" 
 />
    <glyph glyph-name="exclam" unicode="!" horiz-adv-x="477" 
d="M150 0v215h180v-215h-180zM164 395l-27 1067h203l-27 -1067h-149z" />
    <glyph glyph-name="quotedbl" unicode="&#x22;" horiz-adv-x="630" 
d="M389 913l-14 549h186l-12 -549h-160zM84 913l-14 549h186l-14 -549h-158z" />
    <glyph glyph-name="numbersign" unicode="#" 
d="M344 590h150l22 233h-149zM195 590l24 233h-162l17 121h157l37 354h150l-37 -354h149l35 354h150l-35 -354h158l-17 -121h-155l-23 -233h158l-19 -121h-153l-37 -363h-150l37 363h-149l-37 -363h-150l39 363h-162l17 121h158z" />
    <glyph glyph-name="dollar" unicode="$" 
d="M602 412q0 175 -96 227q-27 14 -119 47q-147 54 -212 148t-64 253q0 309 239 353v223h185v-231q215 -55 213 -355h-175q-2 119 -35 170q-34 51 -110 51q-141 0 -141 -202q0 -100 43 -158t145 -98q102 -42 137 -60q166 -88 166 -354q0 -350 -243 -401v-297h-185v292
q-143 31 -205 128q-61 98 -59 288h172q2 -145 42 -210t130 -64q172 0 172 250z" />
    <glyph glyph-name="percent" unicode="%" horiz-adv-x="1372" 
d="M442 0l320 1462h168l-322 -1462h-166zM1163 266v205q0 90 -20 127q-21 37 -71 37t-70 -37t-21 -127v-205q0 -90 20 -127q21 -37 71 -37t71 37q20 37 20 127zM819 281v176q1 159 59 227t194 68t194 -69t59 -226v-176q0 -158 -58 -227q-59 -68 -195 -68t-194 68t-59 227z
M391 995v205q0 90 -20 127q-21 37 -71 37t-70 -37t-21 -127v-205q0 -90 20 -127q21 -37 71 -37t71 37q20 37 20 127zM47 1010v176q0 158 58 226q59 68 195 69q136 0 194 -69t59 -226v-176q0 -158 -58 -227q-59 -69 -195 -69t-195 69q-58 69 -58 227z" />
    <glyph glyph-name="ampersand" unicode="&#x26;" horiz-adv-x="1130" 
d="M283 311q0 -221 168 -221q86 0 165 68q10 10 35 42t33 40l-231 407q-90 -73 -130 -151t-40 -185zM647 1165q0 188 -119 189q-115 0 -114 -170q0 -139 92 -303q141 123 141 284zM434 -63q-340 0 -340 374q0 205 129 359q29 36 73 70t62 51q-76 153 -100 227t-22 153
q0 156 75 242q76 86 216 86t219 -89t79 -249q0 -248 -231 -416l188 -342q43 127 68 273h174q-41 -250 -133 -434l145 -242h-207l-51 98q-20 -16 -67 -63q-103 -98 -277 -98z" />
    <glyph glyph-name="quotesingle" unicode="'" horiz-adv-x="325" 
d="M84 913l-14 549h186l-14 -549h-158z" />
    <glyph glyph-name="parenleft" unicode="(" horiz-adv-x="641" 
d="M178 706q0 581 256 955l121 -82q-188 -353 -188 -873t188 -874l-121 -82q-256 375 -256 956z" />
    <glyph glyph-name="parenright" unicode=")" horiz-adv-x="641" 
d="M461 706q0 -578 -256 -956l-121 82q188 354 188 874t-188 873l121 82q256 -377 256 -955z" />
    <glyph glyph-name="asterisk" unicode="*" 
d="M430 1073l-133 -262l-147 82l163 258l-247 68l47 147l241 -96l-12 301h174l-10 -301l239 96l48 -147l-248 -68l164 -258l-148 -82z" />
    <glyph glyph-name="plus" unicode="+" 
d="M88 670v143h264v322h154v-322h266v-143h-266v-322h-154v322h-264z" />
    <glyph glyph-name="comma" unicode="," horiz-adv-x="411" 
d="M57 -385l68 596h199l-105 -596h-162z" />
    <glyph glyph-name="hyphen" unicode="-" horiz-adv-x="653" 
d="M111 664v155h432v-155h-432z" />
    <glyph glyph-name="period" unicode="." horiz-adv-x="415" 
d="M113 0v215h188v-215h-188z" />
    <glyph glyph-name="slash" unicode="/" horiz-adv-x="571" 
d="M29 -43l340 1548h176l-340 -1548h-176z" />
    <glyph glyph-name="zero" unicode="0" 
d="M586 461v540q0 178 -36 253t-120 75t-120 -75t-36 -253v-540q0 -178 36 -253t120 -75t120 75t36 253zM90 442v578q0 242 81 352t259 111q178 0 259 -111t81 -352v-578q0 -242 -81 -352t-259 -110t-259 110t-81 352z" />
    <glyph glyph-name="one" unicode="1" 
d="M358 0v1251l-172 -94l-77 141l311 164h127v-1462h-189z" />
    <glyph glyph-name="two" unicode="2" 
d="M68 0v131l311 502q166 272 166 469q0 119 -32 173q-31 54 -105 54t-109 -61t-39 -203h-174q2 176 51 264q82 154 277 154q158 0 240 -95q82 -94 81 -270q0 -176 -67 -321q-39 -84 -166 -289l-213 -352h442v-156h-663z" />
    <glyph glyph-name="three" unicode="3" 
d="M270 696v148h101q174 0 174 243t-137 242q-98 0 -127 -112q-12 -45 -15 -138h-174q2 168 49 252q84 152 275 152q156 -1 236 -99t81 -284q0 -242 -137 -328q88 -49 127 -138t39 -239q0 -416 -334 -415q-348 0 -346 428h172q2 -145 40 -210t122 -65q158 0 157 264
q0 141 -50 220t-140 79h-113z" />
    <glyph glyph-name="four" unicode="4" 
d="M510 0v268h-438v115l346 1079h188l-332 -1040h236v395h176v-395h102v-154h-102v-268h-176z" />
    <glyph glyph-name="five" unicode="5" 
d="M723 1462v-155h-393l-21 -443q66 45 158 45q155 0 223 -102t68 -352t-76 -363t-264 -112q-240 0 -320 198q-33 82 -32 230h172q2 -145 41 -210t125 -65t126 73q39 73 39 248q1 176 -31 242t-120 66t-152 -90l-135 28l37 762h555z" />
    <glyph glyph-name="six" unicode="6" 
d="M435 770q-85 0 -119 -76t-34 -253t34 -245t117 -69q83 0 116 70t33 252t-29 241q-33 80 -118 80zM498 909q156 0 219 -133q47 -94 47 -287t-18 -273t-60 -132q-92 -104 -262 -104t-260 122q-63 90 -64 326q0 139 15 211q14 72 73 217l248 606h205l-238 -573q47 20 95 20z
" />
    <glyph glyph-name="seven" unicode="7" 
d="M102 1307v155h619v-112l-338 -1350h-201l350 1307h-430z" />
    <glyph glyph-name="eight" unicode="8" 
d="M430 696q-90 0 -126 -62t-36 -222t36 -222t126 -63q90 0 126 62q36 61 36 221t-36 223t-126 63zM571 1092q-1 138 -31 194q-30 57 -114 57t-117 -77q-20 -42 -20 -184t24 -185q37 -68 122 -68t118 82q18 43 18 181zM440 1483q304 -1 303 -363q1 -172 -21 -236
q-22 -65 -87 -110q75 -39 107 -122t32 -246q0 -231 -78 -322q-86 -104 -272 -104t-274 120q-64 90 -64 280t31 272q30 83 106 122q-61 39 -84 108t-22 210q0 219 80 305q81 86 243 86z" />
    <glyph glyph-name="nine" unicode="9" 
d="M580 1050q0 160 -34 222t-122 63q-88 0 -121 -88q-23 -53 -23 -211t29 -213q35 -73 119 -73t118 70t34 230zM98 1004q0 182 18 258t62 122q88 98 260 98t258 -114q66 -82 66 -305q0 -131 -14 -199t-72 -209l-275 -655h-204l266 629q-53 -18 -94 -19q-158 0 -224 125
q-47 88 -47 269z" />
    <glyph glyph-name="colon" unicode=":" horiz-adv-x="415" 
d="M113 819v215h188v-215h-188zM113 0v215h188v-215h-188z" />
    <glyph glyph-name="semicolon" unicode=";" horiz-adv-x="411" 
d="M131 819v215h188v-215h-188zM57 -385l68 596h199l-105 -596h-162z" />
    <glyph glyph-name="less" unicode="&#x3c;" 
d="M279 748l423 -254v-166l-604 374v93l604 372v-166z" />
    <glyph glyph-name="equal" unicode="=" 
d="M113 821v137h637v-137h-637zM113 526v140h637v-140h-637z" />
    <glyph glyph-name="greater" unicode="&#x3e;" 
d="M582 748l-424 253v166l604 -372v-93l-604 -374v166z" />
    <glyph glyph-name="question" unicode="?" horiz-adv-x="821" 
d="M317 0v215h181v-215h-181zM332 391v72q0 119 24 191t96 165q72 95 92 149t19 138q0 219 -143 219q-78 0 -111 -57t-39 -203h-172q-2 414 330 414q324 0 324 -367q0 -164 -68 -278q-23 -37 -115 -156q-90 -109 -90 -232v-55h-147z" />
    <glyph glyph-name="at" unicode="@" horiz-adv-x="1382" 
d="M729 950q-66 0 -114 -123t-48 -291t68 -167q70 0 121 136q51 137 51 291t-78 154zM973 365q90 -1 144 115t54 311q-1 273 -121 423t-348 150t-359 -203q-130 -203 -130 -557t122 -509t384 -154q102 0 176 19t178 73l47 -107q-112 -61 -200 -86q-88 -24 -220 -24t-263 48
q-130 48 -208 132q-172 188 -172 606t170 652t484 235q281 -1 447 -189t165 -509q0 -246 -101 -399t-264 -152q-72 0 -110 32t-47 107q-39 -78 -82 -111t-109 -32q-96 0 -146 74t-50 212q0 242 88 408q78 145 207 145t159 -108l15 86h110l-69 -492q-10 -86 -11 -112
q0 -84 60 -84z" />
    <glyph glyph-name="A" unicode="A" horiz-adv-x="882" 
d="M598 467l-156 731l-153 -731h309zM631 315h-377l-68 -315h-202l381 1462h157l379 -1462h-203z" />
    <glyph glyph-name="B" unicode="B" horiz-adv-x="954" 
d="M324 154h147q111 0 156 60t45 202t-54 209q-41 49 -126 49h-168v-520zM324 827h151q178 0 178 238q0 131 -45 187t-147 57h-137v-482zM135 0v1462h330q115 0 178 -19t109 -69q90 -102 90 -295q0 -240 -135 -315q154 -94 153 -371q0 -211 -98 -315q-72 -78 -250 -78h-377z
" />
    <glyph glyph-name="C" unicode="C" horiz-adv-x="907" 
d="M825 422q0 -170 -49 -266q-90 -176 -302 -176t-302 141q-61 100 -61 328v563q0 250 77 348q90 119 275 119q227 0 311 -183q37 -78 39 -231h-174q-6 143 -44 201t-129 59q-91 0 -129 -73t-38 -251v-542q0 -180 39 -253t134 -73q95 -1 137 67t44 222h172z" />
    <glyph glyph-name="D" unicode="D" horiz-adv-x="974" 
d="M324 154h141q119 0 164 66t47 235v553q-2 170 -47 236t-164 65h-141v-1155zM135 0v1462h326q211 4 309 -97t94 -325v-616q2 -224 -94 -326t-309 -98h-326z" />
    <glyph glyph-name="E" unicode="E" horiz-adv-x="835" 
d="M135 0v1462h627v-155h-438v-490h370v-155h-370v-506h442v-156h-631z" />
    <glyph glyph-name="F" unicode="F" horiz-adv-x="794" 
d="M135 0v1462h619v-155h-430v-502h360v-156h-360v-649h-189z" />
    <glyph glyph-name="G" unicode="G" horiz-adv-x="950" 
d="M504 627v147h356v-291q0 -252 -69 -358q-97 -145 -309 -145t-306 141q-66 100 -65 328v563q0 248 79 348q94 119 285 119q231 0 316 -187q35 -80 36 -227h-172q-4 141 -45 201t-136 59q-95 0 -135 -73t-40 -251v-542q0 -176 43 -251t142 -75t145 75q45 75 45 236v183
h-170z" />
    <glyph glyph-name="H" unicode="H" horiz-adv-x="987" 
d="M135 0v1462h189v-645h340v645h188v-1462h-188v662h-340v-662h-189z" />
    <glyph glyph-name="I" unicode="I" horiz-adv-x="458" 
d="M135 0v1462h189v-1462h-189z" />
    <glyph glyph-name="J" unicode="J" horiz-adv-x="661" 
d="M346 1462h189v-1001q0 -250 -37 -332q-72 -147 -265 -147q-160 0 -278 127l111 116q82 -90 153 -90q90 0 115 113q12 49 12 209v1005z" />
    <glyph glyph-name="K" unicode="K" horiz-adv-x="890" 
d="M137 0v1462h189v-676l358 676h203l-346 -606l366 -856h-205l-272 698l-104 -200v-498h-189z" />
    <glyph glyph-name="L" unicode="L" horiz-adv-x="794" 
d="M135 0v1462h189v-1306h450v-156h-639z" />
    <glyph glyph-name="M" unicode="M" horiz-adv-x="1181" 
d="M135 0v1462h178l279 -887l276 887h179v-1462h-181v1034l-217 -733h-117l-217 733v-1034h-180z" />
    <glyph glyph-name="N" unicode="N" horiz-adv-x="1036" 
d="M135 0v1462h189l399 -1073v1073h178v-1462h-180l-408 1081v-1081h-178z" />
    <glyph glyph-name="O" unicode="O" horiz-adv-x="974" 
d="M674 449v565q0 170 -43 242t-145 73q-102 0 -144 -73q-43 -73 -43 -242v-565q0 -170 43 -243t144 -73t145 73q43 73 43 243zM111 430v602q0 236 89 344q88 108 286 107t287 -107t89 -344v-602q0 -238 -89 -344t-287 -106t-286 107t-89 343z" />
    <glyph glyph-name="P" unicode="P" horiz-adv-x="880" 
d="M319 715h111q119 0 163 75q44 74 44 226t-51 229q-45 63 -154 64h-113v-594zM324 561v-561h-189v1462h297q121 0 193 -28q200 -76 200 -422q0 -236 -96 -350q-88 -100 -297 -101h-108z" />
    <glyph glyph-name="Q" unicode="Q" horiz-adv-x="974" 
d="M674 449v565q0 170 -43 242t-145 73q-102 0 -144 -73q-43 -73 -43 -242v-565q0 -172 43 -244t145 -72q70 0 115 39l-182 180l108 99l138 -136q8 49 8 134zM111 430v602q0 236 89 344q88 108 286 107t287 -107t89 -344v-602q0 -166 -43 -266l113 -111l-109 -100l-94 94
q-92 -68 -244 -67q-197 0 -285 108t-89 342z" />
    <glyph glyph-name="R" unicode="R" horiz-adv-x="935" 
d="M322 778h112q70 0 107 14t63 52q49 66 49 205t-51 199t-162 61h-118v-531zM326 631v-631h-189v1462h309q119 0 190 -24q206 -68 206 -387q0 -175 -46 -267t-155 -135l229 -649h-206l-205 631h-133z" />
    <glyph glyph-name="S" unicode="S" horiz-adv-x="851" 
d="M414 133q96 -1 139 63t43 196t-49 188q-23 29 -51 43t-123 49q-155 55 -223 150q-68 94 -68 272t85 281t243 104q217 0 299 -185q37 -80 36 -229h-172q-4 141 -39 201q-36 59 -118 59q-154 0 -154 -238q0 -104 45 -162q45 -57 153 -99t144 -60q172 -84 172 -358
q0 -428 -356 -428q-238 0 -322 182q-37 84 -39 260h172q2 -154 45 -222q42 -68 138 -67z" />
    <glyph glyph-name="T" unicode="T" horiz-adv-x="737" 
d="M274 0v1307h-254v155h697v-155h-254v-1307h-189z" />
    <glyph glyph-name="U" unicode="U" horiz-adv-x="993" 
d="M131 1462h188v-1044q0 -141 27 -195q41 -88 146 -88q68 0 104 24t58 78q21 54 22 181v1044h188v-1044q0 -123 -13 -189t-48 -116q-94 -131 -313 -131t-310 151q-49 84 -49 285v1044z" />
    <glyph glyph-name="V" unicode="V" horiz-adv-x="882" 
d="M358 0l-340 1462h189l233 -1145l234 1145h190l-342 -1462h-164z" />
    <glyph glyph-name="W" unicode="W" horiz-adv-x="1337" 
d="M279 0l-232 1462h186l142 -1106l221 1106h143l224 -1106l139 1106h186l-231 -1462h-166l-223 1081l-222 -1081h-167z" />
    <glyph glyph-name="X" unicode="X" horiz-adv-x="851" 
d="M319 774l-280 688h203l211 -528l174 528h196l-284 -721l303 -741h-203l-231 580l-195 -580h-197z" />
    <glyph glyph-name="Y" unicode="Y" horiz-adv-x="800" 
d="M307 0v526l-325 936h196l223 -704l224 704h198l-327 -936v-526h-189z" />
    <glyph glyph-name="Z" unicode="Z" horiz-adv-x="772" 
d="M45 0v100l447 1207h-410v155h616v-100l-448 -1206h467v-156h-672z" />
    <glyph glyph-name="bracketleft" unicode="[" horiz-adv-x="641" 
d="M213 -201v1813h322v-135h-142v-1543h142v-135h-322z" />
    <glyph glyph-name="backslash" unicode="\" horiz-adv-x="571" 
d="M543 -43h-176l-340 1548h176z" />
    <glyph glyph-name="bracketright" unicode="]" horiz-adv-x="641" 
d="M424 1612v-1813h-320v135h140v1543h-140v135h320z" />
    <glyph glyph-name="asciicircum" unicode="^" 
d="M430 1251l-160 -473h-200l307 695h104l307 -695h-198z" />
    <glyph glyph-name="underscore" unicode="_" horiz-adv-x="667" 
d="M-35 -360v129h740v-129h-740z" />
    <glyph glyph-name="grave" unicode="`" horiz-adv-x="1024" 
d="M612 1190h-133l-184 295h203z" />
    <glyph glyph-name="a" unicode="a" horiz-adv-x="794" 
d="M510 477h-100q-92 0 -131 -43t-39 -139t30 -132t108 -36q76 0 104 40t28 144v166zM510 612v62q0 131 -28 183t-96 52t-98 -43q-28 -43 -28 -141h-168q0 152 45 221q72 113 241 113q168 0 240 -93t72 -304v-662h-141l-10 55q-35 -41 -80 -58t-121 -17q-150 0 -214 72
t-65 242q0 171 70 245t233 73h148z" />
    <glyph glyph-name="b" unicode="b" horiz-adv-x="835" 
d="M557 385v295q0 225 -127 225q-139 0 -139 -297v-176q0 -297 139 -297q127 0 127 250zM111 0v1462h180v-479q41 43 80 59t100 17q137 0 202 -94t64 -295v-264q0 -223 -65 -325q-66 -101 -198 -101t-212 94l-12 -74h-139z" />
    <glyph glyph-name="c" unicode="c" horiz-adv-x="757" 
d="M530 332h168q0 -160 -45 -234q-35 -55 -103 -87t-153 -31q-182 0 -252 131q-49 90 -49 278v262q0 215 72 313t229 97q195 0 262 -148q31 -68 31 -200h-166q0 199 -123 198q-69 0 -97 -57t-28 -190v-287q0 -135 29 -191t97 -57q68 0 98 48q30 49 30 155z" />
    <glyph glyph-name="d" unicode="d" horiz-adv-x="835" 
d="M276 680v-293q0 -252 127 -252q139 0 140 297v176q0 297 -140 297q-127 0 -127 -225zM96 406v264q0 201 65 295t201 94q60 -1 100 -17t81 -59v479h180v-1462h-139l-13 74q-69 -95 -206 -95q-137 1 -203 102t-66 325z" />
    <glyph glyph-name="e" unicode="e" horiz-adv-x="813" 
d="M276 621h275v59q0 127 -32 179q-31 52 -107 52t-106 -52t-30 -179v-59zM276 483v-114q0 -131 31 -185t105 -55q74 0 106 47t31 150h168q-2 -154 -43 -224q-72 -122 -251 -122t-253 100t-74 326v225q0 229 73 328t241 99t242 -98q74 -100 73 -329v-148h-449z" />
    <glyph glyph-name="f" unicode="f" horiz-adv-x="505" 
d="M141 893h-92v147h92v136q-2 170 50 230t198 56h84v-139h-43q-72 2 -90 -26t-18 -132v-125h153v-147h-153v-893h-181v893z" />
    <glyph glyph-name="g" unicode="g" horiz-adv-x="835" 
d="M276 680v-291q0 -254 130 -254q137 0 137 297v176q0 297 -140 297q-127 0 -127 -225zM543 -84v127q-78 -63 -172 -63q-143 0 -209 101t-66 325v264q0 201 65 295t204 94q69 -1 111 -21t87 -75l21 77h139v-1099q0 -221 -75 -321q-74 -100 -250 -99q-176 0 -238 131
q-27 66 -27 180h160q1 -90 27 -129t95 -39t99 56t29 196z" />
    <glyph glyph-name="h" unicode="h" horiz-adv-x="839" 
d="M111 0v1462h180v-469q72 66 180 66q174 0 236 -154q27 -72 26 -231v-674h-180v651q0 141 -28 197q-29 56 -101 57t-102 -65t-31 -224v-616h-180z" />
    <glyph glyph-name="i" unicode="i" horiz-adv-x="409" 
d="M115 0v1040h180v-1040h-180zM115 1241v227h180v-227h-180z" />
    <glyph glyph-name="j" unicode="j" horiz-adv-x="417" 
d="M123 1241v227h180v-227h-180zM123 1040h180v-1052q6 -260 -70 -360t-278 -99v152q94 -5 132 61t36 227v1071z" />
    <glyph glyph-name="k" unicode="k" horiz-adv-x="798" 
d="M117 0v1462h180v-927l274 505h191l-260 -436l272 -604h-196l-185 467l-96 -180v-287h-180z" />
    <glyph glyph-name="l" unicode="l" horiz-adv-x="460" 
d="M115 1462h180v-1118q-2 -112 26 -152t99 -42h26v-150h-32q-184 2 -243 72q-58 70 -56 288v1102z" />
    <glyph glyph-name="m" unicode="m" horiz-adv-x="1243" 
d="M111 0v1040h135l14 -86q49 64 90 84t117 21q150 0 211 -113q39 61 86 87t119 26q172 0 229 -154q27 -72 27 -233v-672h-181v651q0 141 -25 198q-27 56 -93 56q-66 -1 -96 -65t-29 -213v-627h-180v651q0 143 -26 199q-27 56 -93 55q-66 1 -96 -65t-29 -224v-616h-180z" />
    <glyph glyph-name="n" unicode="n" horiz-adv-x="839" 
d="M111 0v1040h135l14 -86q49 61 92 83t117 22q176 0 238 -154q27 -72 26 -233v-672h-180v651q0 141 -28 197q-29 56 -101 57t-102 -65t-31 -224v-616h-180z" />
    <glyph glyph-name="o" unicode="o" horiz-adv-x="827" 
d="M551 371v301q0 131 -31 184q-30 53 -106 53t-107 -53t-31 -184v-301q0 -133 31 -187t107 -55q76 1 106 55t31 187zM96 385v270q0 215 74 309t244 95q170 0 244 -94t73 -310v-270q0 -215 -75 -310q-74 -95 -242 -95t-243 95t-75 310z" />
    <glyph glyph-name="p" unicode="p" horiz-adv-x="835" 
d="M557 385v295q0 225 -127 225q-139 0 -139 -297v-176q0 -297 139 -297q127 0 127 250zM111 -461v1501h139l20 -77q45 53 89 75t112 21q137 0 202 -94t64 -295v-264q0 -221 -65 -324q-66 -102 -207 -102q-104 0 -174 63v-504h-180z" />
    <glyph glyph-name="q" unicode="q" horiz-adv-x="835" 
d="M276 680v-293q0 -252 127 -252q139 0 140 297v176q0 297 -140 297q-127 0 -127 -225zM543 -461v504q-66 -63 -174 -63q-141 0 -207 102t-66 324v264q0 201 65 295t204 94q69 -1 111 -21t87 -75l21 77h139v-1501h-180z" />
    <glyph glyph-name="r" unicode="r" horiz-adv-x="583" 
d="M111 0v1040h137l24 -86q31 57 70 81q40 24 108 24t142 -58l-82 -149q-51 53 -100 53q-64 0 -92 -93t-27 -306v-506h-180z" />
    <glyph glyph-name="s" unicode="s" horiz-adv-x="739" 
d="M219 332q0 -94 19 -129q33 -74 133 -74q147 0 147 162q0 82 -45 117q-25 18 -153 57t-175 92q-67 72 -67 213t72 215t208 74q199 0 265 -141q29 -61 30 -187h-166q-1 178 -121 178t-120 -143q0 -92 63 -133q31 -19 156 -55t173 -100t48 -189q0 -182 -104 -252
q-86 -57 -215 -57q-217 0 -289 161q-25 58 -27 191h168z" />
    <glyph glyph-name="t" unicode="t" horiz-adv-x="514" 
d="M137 893h-92v147h92l10 320h170v-320h144v-147h-144v-580q-2 -94 22 -129t87 -32h37v-152h-53q-170 0 -223 62q-52 62 -50 268v563z" />
    <glyph glyph-name="u" unicode="u" horiz-adv-x="819" 
d="M104 1040h181v-651q0 -141 25 -198q26 -56 94 -56t96 66q29 66 28 223v616h181v-1040h-136l-14 86q-47 -63 -88 -85t-113 -21q-172 0 -229 155q-25 72 -25 232v673z" />
    <glyph glyph-name="v" unicode="v" horiz-adv-x="739" 
d="M285 0l-254 1040h182l156 -786l157 786h183l-254 -1040h-170z" />
    <glyph glyph-name="w" unicode="w" horiz-adv-x="1128" 
d="M254 0l-209 1040h182l117 -743l156 743h127l155 -743l119 743h180l-209 -1040h-153l-156 725l-155 -725h-154z" />
    <glyph glyph-name="x" unicode="x" horiz-adv-x="696" 
d="M246 535l-226 505h197l143 -352l132 352h192l-238 -516l234 -524h-197l-151 369l-135 -369h-195z" />
    <glyph glyph-name="y" unicode="y" horiz-adv-x="741" 
d="M283 -8l-254 1048h180l164 -813l151 813h183l-265 -1194q-44 -193 -114 -254t-248 -63v152q88 -3 119 29t59 153z" />
    <glyph glyph-name="z" unicode="z" horiz-adv-x="663" 
d="M41 0v102l344 789h-311v149h518v-102l-346 -788h366v-150h-571z" />
    <glyph glyph-name="braceleft" unicode="{" horiz-adv-x="641" 
d="M395 1167v-106q2 -172 -13 -226t-73 -90q57 -33 73 -90t13 -227v-184q0 -195 23 -258t92 -62h33v-125h-74q-160 0 -210 79t-46 321v231q2 162 -17 210t-83 50h-13v111h13q66 2 84 50t16 210v151q-4 242 46 321t210 79h74v-125h-33q-70 3 -92 -61t-23 -259z" />
    <glyph glyph-name="bar" unicode="|" 
d="M352 -201v1813h156v-1813h-156z" />
    <glyph glyph-name="braceright" unicode="}" horiz-adv-x="641" 
d="M244 244v184q-2 170 13 227t73 90q-56 37 -72 91t-14 225v106q0 195 -23 258t-92 62h-33v125h74q160 0 210 -79t46 -321v-151q-2 -162 16 -210t84 -50h13v-111h-13q-62 -2 -82 -50t-18 -210v-231q4 -242 -46 -321t-210 -79h-74v125h33q71 -2 93 62t22 258z" />
    <glyph glyph-name="asciitilde" unicode="~" 
d="M305 885q43 1 65 -11t82 -64t74 -61t37 -10q57 0 90 135l105 -32q-59 -240 -207 -240q-33 0 -57 12t-79 62t-73 60q-18 11 -41 12q-57 -1 -90 -144l-107 27q51 254 201 254z" />
    <glyph glyph-name="uni00A0" unicode="&#xa0;" horiz-adv-x="327" 
 />
    <glyph glyph-name="exclamdown" unicode="&#xa1;" horiz-adv-x="477" 
d="M328 1030v-215h-181v215h181zM313 635l27 -1067h-203l27 1067h149z" />
    <glyph glyph-name="cent" unicode="&#xa2;" 
d="M371 82v227q-119 23 -174 118t-54 273v263q-1 184 53 276t175 119v219h184v-221q113 -25 164 -105t49 -229h-172q0 201 -137 201q-74 -1 -105 -57t-30 -191v-287q0 -133 30 -188q30 -56 106 -56q74 0 108 50t34 161h172q4 -157 -48 -239t-171 -105v-229h-184z" />
    <glyph glyph-name="sterling" unicode="&#xa3;" 
d="M84 0v133q84 37 131 127t47 182t-20 176h-160v156h108q-47 123 -61 188t-14 146q0 371 336 371q215 0 292 -164q43 -90 45 -250h-174q-2 98 -20 160q-35 100 -135 100q-156 0 -156 -233q0 -66 15 -122t69 -196h258v-156h-219q14 -78 14 -133q0 -205 -102 -329h473v-156
h-727z" />
    <glyph glyph-name="currency" unicode="&#xa4;" 
d="M432 958q-92 0 -146 -74t-54 -203q0 -128 54 -203t146 -75t147 76q54 76 54 202t-54 202q-55 75 -147 75zM111 182l-93 84l129 156q-67 102 -67 257t67 261l-129 156l93 86l122 -154q89 64 197 64t199 -64l125 154l90 -86l-127 -156q67 -106 67 -259t-67 -259l127 -156
l-90 -84l-125 152q-89 -64 -195 -64t-201 64z" />
    <glyph glyph-name="yen" unicode="&#xa5;" 
d="M338 0v305h-229v123h229v104h-229v123h188l-289 807h197l227 -714l225 714h199l-291 -807h189v-123h-228v-104h228v-123h-228v-305h-188z" />
    <glyph glyph-name="brokenbar" unicode="&#xa6;" horiz-adv-x="712" 
d="M268 0v518h174v-518h-174zM268 922v540h174v-540h-174z" />
    <glyph glyph-name="section" unicode="&#xa7;" 
d="M604 593q0 81 -34 122t-140 90l-84 39l-10 -10q-44 -39 -62 -75q-18 -35 -18 -103t33 -107t141 -90l84 -39q28 28 37 39q53 53 53 134zM393 -68q178 0 178 164q0 82 -41 124t-181 93t-203 121q-62 70 -62 174t32 161q32 56 124 134q-61 45 -87 103t-26 155q0 322 307 322
q199 0 273 -142q29 -59 30 -182h-159q-4 176 -140 176q-61 0 -96 -43q-35 -44 -35 -124t39 -124q38 -44 178 -97q140 -54 191 -113q61 -74 61 -178t-36 -166q-36 -64 -119 -130q71 -47 101 -102t30 -143q0 -162 -89 -246t-264 -84q-231 0 -305 160q-26 59 -28 186h161
q2 -107 40 -153t126 -46z" />
    <glyph glyph-name="dieresis" unicode="&#xa8;" horiz-adv-x="1024" 
d="M580 1204v221h159v-221h-159zM285 1204v221h159v-221h-159z" />
    <glyph glyph-name="copyright" unicode="&#xa9;" horiz-adv-x="1544" 
d="M772 1366q-246 0 -404 -177t-157 -457q0 -280 158 -458q159 -178 403 -178t402 178t158 454t-157 458q-157 180 -403 180zM772 1491q307 0 506 -216t199 -545t-199 -544t-506 -215t-507 214q-199 214 -199 547t199 546q200 213 507 213zM997 575q0 -96 -39 -141
q-61 -66 -184 -66t-176 72t-53 236v108q0 164 53 236t179 72t181 -80q27 -37 29 -125h-127q-6 53 -24 75t-64 22t-65 -43q-20 -42 -21 -144v-131q0 -104 22 -146t72 -43q80 0 88 98h129z" />
    <glyph glyph-name="ordfeminine" unicode="&#xaa;" horiz-adv-x="505" 
d="M315 1104h-69q-82 0 -82 -103q0 -55 16 -77t56 -23q80 0 79 98v105zM305 1194v49q0 78 -14 104q-14 25 -51 25q-36 0 -50 -15t-22 -59h-113q8 176 191 177q139 0 180 -84q23 -43 23 -164v-416h-113l-6 37q-47 -49 -133 -49t-126 45q-40 44 -40 150t49 153t162 47h63z" />
    <glyph glyph-name="guillemotleft" unicode="&#xab;" horiz-adv-x="690" 
d="M227 604l121 -258l-110 -74l-203 332l203 332l110 -74zM532 604l121 -258l-110 -74l-203 332l203 332l110 -74z" />
    <glyph glyph-name="logicalnot" unicode="&#xac;" 
d="M104 670v143h619v-514h-174v371h-445z" />
    <glyph glyph-name="uni00AD" unicode="&#xad;" horiz-adv-x="653" 
d="M111 664v155h432v-155h-432z" />
    <glyph glyph-name="registered" unicode="&#xae;" horiz-adv-x="1202" 
d="M598 1653q-192 0 -303 -129q-119 -135 -119 -337t119 -339q106 -129 306 -129t306 129q119 137 119 340t-118 334t-310 131zM602 604q-242 0 -400 165t-159 418q1 253 159 417t400 163t400 -167t157 -416q0 -250 -158 -415q-157 -165 -399 -165zM545 1204h65q68 0 68 88
t-66 88h-67v-176zM547 1128v-225h-121v565h199q90 0 132 -40t42 -128q0 -127 -80 -159l98 -238h-129l-82 225h-59z" />
    <glyph glyph-name="macron" unicode="&#xaf;" horiz-adv-x="1024" 
d="M297 1262v131h432v-131h-432z" />
    <glyph glyph-name="degree" unicode="&#xb0;" horiz-adv-x="616" 
d="M309 1413q-141 0 -141 -171t139 -171t139 172q0 82 -35 126q-36 44 -102 44zM307 1528q137 0 215 -77t78 -210t-78 -209t-215 -76t-215 76t-78 210t78 210t215 76z" />
    <glyph glyph-name="plusminus" unicode="&#xb1;" 
d="M88 80v143h684v-143h-684zM88 670v143h264v322h154v-322h266v-143h-266v-322h-154v322h-264z" />
    <glyph glyph-name="twosuperior" unicode="&#xb2;" horiz-adv-x="589" 
d="M47 791v98l201 293q106 154 106 266t-78 113q-43 0 -62 -35t-19 -117h-136q0 113 27 166q53 102 199 102q221 0 221 -229q0 -92 -26 -152t-128 -206l-119 -181h269v-118h-455z" />
    <glyph glyph-name="threesuperior" unicode="&#xb3;" horiz-adv-x="589" 
d="M176 1198v107h72q110 0 110 128t-86 128q-45 0 -62 -29t-22 -105h-133q1 133 53 191t173 59q221 0 221 -231q0 -131 -76 -193q92 -63 92 -207t-56 -204q-56 -61 -177 -62q-176 0 -222 125q-16 47 -16 139h133q2 -82 24 -114t75 -33q96 0 96 135q0 166 -119 166h-80z" />
    <glyph glyph-name="acute" unicode="&#xb4;" horiz-adv-x="1024" 
d="M414 1190l114 295h203l-184 -295h-133z" />
    <glyph glyph-name="mu" unicode="&#xb5;" 
d="M135 1030h174v-624q0 -156 26 -216q27 -60 93 -59q66 0 96 72t29 235v592h174v-1030h-119l-22 113q-33 -76 -69 -105q-35 -28 -101 -28t-107 49v-490h-174v1491z" />
    <glyph glyph-name="paragraph" unicode="&#xb6;" horiz-adv-x="999" 
d="M332 -279v971h-33q-100 0 -160 47q-127 98 -127 349t135 335q41 27 80 33t156 6h448v-1741h-169v1594h-160v-1594h-170z" />
    <glyph glyph-name="periodcentered" unicode="&#xb7;" horiz-adv-x="413" 
d="M113 635v213h188v-213h-188z" />
    <glyph glyph-name="cedilla" unicode="&#xb8;" horiz-adv-x="1024" 
d="M395 -459l70 318h176l-125 -318h-121z" />
    <glyph glyph-name="onesuperior" unicode="&#xb9;" horiz-adv-x="589" 
d="M250 791v727l-105 -54l-49 92l201 111h100v-876h-147z" />
    <glyph glyph-name="ordmasculine" unicode="&#xba;" horiz-adv-x="516" 
d="M336 1028v217q0 121 -78 121t-78 -121v-217q0 -119 78 -119t78 119zM41 1040v193q0 127 51 184t166 57t166 -56q51 -58 51 -185v-193q0 -125 -51 -182t-166 -57t-166 57t-51 182z" />
    <glyph glyph-name="guillemotright" unicode="&#xbb;" horiz-adv-x="690" 
d="M461 604l-121 258l111 74l202 -332l-202 -332l-111 74zM156 604l-121 258l110 74l203 -332l-203 -332l-110 74z" />
    <glyph glyph-name="onequarter" unicode="&#xbc;" horiz-adv-x="1437" 
d="M1100 0v156h-299v88l219 633h145l-204 -605h139v230h125v-230h65v-116h-65v-156h-125zM426 0l322 1462h165l-321 -1462h-166zM256 586v719l-111 -56l-55 113l213 100h100v-876h-147z" />
    <glyph glyph-name="onehalf" unicode="&#xbd;" horiz-adv-x="1437" 
d="M834 0v98l200 293q104 155 104 267t-75 112q-43 0 -61 -35t-21 -117h-135q0 144 52 206t173 63q219 0 219 -228q0 -92 -24 -151t-127 -209l-119 -180h268v-119h-454zM397 0l322 1462h166l-322 -1462h-166zM236 586v719l-111 -56l-55 113l213 100h100v-876h-147z" />
    <glyph glyph-name="threequarters" unicode="&#xbe;" horiz-adv-x="1437" 
d="M492 0l321 1462h166l-322 -1462h-165zM1153 0v156h-297v88l217 633h146l-205 -605h139v230h125v-230h65v-116h-65v-156h-125zM197 993v107h71q111 0 111 128t-86 128q-45 0 -63 -29t-21 -104h-133q0 133 52 191t173 59q221 0 221 -232q0 -131 -76 -192q92 -63 92 -207
t-56 -205t-177 -62q-176 0 -221 125q-16 47 -16 140h133q1 -82 23 -115t75 -33q96 0 96 135q0 166 -119 166h-79z" />
    <glyph glyph-name="questiondown" unicode="&#xbf;" horiz-adv-x="823" 
d="M524 1030v-215h-180v215h180zM90 -80q0 162 68 277q18 31 111 149t93 238v55h148v-72q2 -117 -24 -187t-97 -168q-71 -96 -91 -150t-19 -136q0 -221 143 -221q78 0 112 58t37 204h172q-1 -213 -81 -314t-248 -102q-324 0 -324 369z" />
    <glyph glyph-name="Agrave" unicode="&#xc0;" horiz-adv-x="882" 
d="M522 1612h-133l-184 297h203zM598 467l-156 731l-153 -731h309zM631 315h-377l-68 -315h-202l381 1462h157l379 -1462h-203z" />
    <glyph glyph-name="Aacute" unicode="&#xc1;" horiz-adv-x="882" 
d="M356 1612l115 297h203l-185 -297h-133zM598 467l-156 731l-153 -731h309zM631 315h-377l-68 -315h-202l381 1462h157l379 -1462h-203z" />
    <glyph glyph-name="Acircumflex" unicode="&#xc2;" horiz-adv-x="882" 
d="M440 1786l-82 -164h-172l191 279h127l192 -279h-172zM598 467l-156 731l-153 -731h309zM631 315h-377l-68 -315h-202l381 1462h157l379 -1462h-203z" />
    <glyph glyph-name="Atilde" unicode="&#xc3;" horiz-adv-x="882" 
d="M350 1882q64 0 114 -63t68 -64q39 0 52 113h108q-10 -130 -47 -186t-111 -56t-118 68q-43 59 -62 59q-43 0 -57 -113h-109q31 242 162 242zM598 467l-156 731l-153 -731h309zM631 315h-377l-68 -315h-202l381 1462h157l379 -1462h-203z" />
    <glyph glyph-name="Adieresis" unicode="&#xc4;" horiz-adv-x="882" 
d="M512 1628v219h160v-219h-160zM211 1628v219h160v-219h-160zM598 467l-156 731l-153 -731h309zM631 315h-377l-68 -315h-202l381 1462h157l379 -1462h-203z" />
    <glyph glyph-name="Aring" unicode="&#xc5;" horiz-adv-x="882" 
d="M530 1808q0 120 -89 119q-89 0 -89 -120t88 -119q90 0 90 120zM238 1809q0 95 56 153t147 57q91 0 147 -58q56 -57 57 -151q0 -94 -57 -154q-58 -60 -148 -60t-146 58q-56 60 -56 155zM598 467l-156 731l-153 -731h309zM631 315h-377l-68 -315h-202l381 1462h157
l379 -1462h-203z" />
    <glyph glyph-name="AE" unicode="&#xc6;" horiz-adv-x="1372" 
d="M674 487v820h-23l-317 -820h340zM674 334h-400l-129 -334h-217l623 1462h747v-155h-440v-490h373v-155h-373v-506h447v-156h-631v334z" />
    <glyph glyph-name="Ccedilla" unicode="&#xc7;" horiz-adv-x="907" 
d="M328 -459l69 318h176l-124 -318h-121zM825 422q0 -170 -49 -266q-90 -176 -302 -176t-302 141q-61 100 -61 328v563q0 250 77 348q90 119 275 119q227 0 311 -183q37 -78 39 -231h-174q-6 143 -44 201t-129 59q-91 0 -129 -73t-38 -251v-542q0 -180 39 -253t134 -73
q95 -1 137 67t44 222h172z" />
    <glyph glyph-name="Egrave" unicode="&#xc8;" horiz-adv-x="835" 
d="M551 1612h-133l-185 297h203zM135 0v1462h627v-155h-438v-490h370v-155h-370v-506h442v-156h-631z" />
    <glyph glyph-name="Eacute" unicode="&#xc9;" horiz-adv-x="835" 
d="M350 1612l115 297h203l-185 -297h-133zM135 0v1462h627v-155h-438v-490h370v-155h-370v-506h442v-156h-631z" />
    <glyph glyph-name="Ecircumflex" unicode="&#xca;" horiz-adv-x="835" 
d="M438 1786l-82 -164h-172l191 279h127l192 -279h-172zM135 0v1462h627v-155h-438v-490h370v-155h-370v-506h442v-156h-631z" />
    <glyph glyph-name="Edieresis" unicode="&#xcb;" horiz-adv-x="835" 
d="M516 1628v219h160v-219h-160zM215 1628v219h160v-219h-160zM135 0v1462h627v-155h-438v-490h370v-155h-370v-506h442v-156h-631z" />
    <glyph glyph-name="Igrave" unicode="&#xcc;" horiz-adv-x="458" 
d="M311 1612h-133l-184 297h203zM135 0v1462h189v-1462h-189z" />
    <glyph glyph-name="Iacute" unicode="&#xcd;" horiz-adv-x="458" 
d="M137 1612l115 297h203l-185 -297h-133zM127 0v1462h188v-1462h-188z" />
    <glyph glyph-name="Icircumflex" unicode="&#xce;" horiz-adv-x="458" 
d="M227 1786l-82 -164h-172l191 279h127l192 -279h-172zM133 0v1462h189v-1462h-189z" />
    <glyph glyph-name="Idieresis" unicode="&#xcf;" horiz-adv-x="458" 
d="M299 1628v219h160v-219h-160zM-2 1628v219h160v-219h-160zM133 0v1462h189v-1462h-189z" />
    <glyph glyph-name="Eth" unicode="&#xd0;" horiz-adv-x="974" 
d="M322 815h182v-151h-182v-510h143q119 0 164 66t47 235v553q-2 170 -47 236t-164 65h-143v-494zM133 815v647h326q213 4 310 -96t93 -326v-618q4 -226 -93 -326t-310 -96h-326v664h-108v151h108z" />
    <glyph glyph-name="Ntilde" unicode="&#xd1;" horiz-adv-x="1036" 
d="M438 1882q64 0 114 -63t69 -64q39 0 51 113h108q-10 -130 -47 -186t-111 -56t-118 68q-43 59 -62 59q-43 0 -57 -113h-109q31 242 162 242zM135 0v1462h189l399 -1073v1073h178v-1462h-180l-408 1081v-1081h-178z" />
    <glyph glyph-name="Ograve" unicode="&#xd2;" horiz-adv-x="974" 
d="M586 1612h-133l-185 297h203zM674 449v565q0 170 -43 242t-145 73q-102 0 -144 -73q-43 -73 -43 -242v-565q0 -170 43 -243t144 -73t145 73q43 73 43 243zM111 430v602q0 236 89 344q88 108 286 107t287 -107t89 -344v-602q0 -238 -89 -344t-287 -106t-286 107t-89 343z
" />
    <glyph glyph-name="Oacute" unicode="&#xd3;" horiz-adv-x="974" 
d="M389 1612l115 297h203l-185 -297h-133zM674 449v565q0 170 -43 242t-145 73q-102 0 -144 -73q-43 -73 -43 -242v-565q0 -170 43 -243t144 -73t145 73q43 73 43 243zM111 430v602q0 236 89 344q88 108 286 107t287 -107t89 -344v-602q0 -238 -89 -344t-287 -106t-286 107
t-89 343z" />
    <glyph glyph-name="Ocircumflex" unicode="&#xd4;" horiz-adv-x="974" 
d="M485 1786l-82 -164h-172l191 279h127l192 -279h-172zM674 449v565q0 170 -43 242t-145 73q-102 0 -144 -73q-43 -73 -43 -242v-565q0 -170 43 -243t144 -73t145 73q43 73 43 243zM111 430v602q0 236 89 344q88 108 286 107t287 -107t89 -344v-602q0 -238 -89 -344
t-287 -106t-286 107t-89 343z" />
    <glyph glyph-name="Otilde" unicode="&#xd5;" horiz-adv-x="974" 
d="M397 1882q63 0 113 -63t70 -64q39 0 51 113h108q-10 -130 -47 -186q-36 -56 -110 -56t-119 68q-43 59 -62 59q-43 0 -57 -113h-108q31 242 161 242zM674 449v565q0 170 -43 242t-145 73q-102 0 -144 -73q-43 -73 -43 -242v-565q0 -170 43 -243t144 -73t145 73
q43 73 43 243zM111 430v602q0 236 89 344q88 108 286 107t287 -107t89 -344v-602q0 -238 -89 -344t-287 -106t-286 107t-89 343z" />
    <glyph glyph-name="Odieresis" unicode="&#xd6;" horiz-adv-x="974" 
d="M557 1628v219h160v-219h-160zM256 1628v219h160v-219h-160zM674 449v565q0 170 -43 242t-145 73q-102 0 -144 -73q-43 -73 -43 -242v-565q0 -170 43 -243t144 -73t145 73q43 73 43 243zM111 430v602q0 236 89 344q88 108 286 107t287 -107t89 -344v-602q0 -238 -89 -344
t-287 -106t-286 107t-89 343z" />
    <glyph glyph-name="multiply" unicode="&#xd7;" 
d="M328 741l-260 260l102 101l260 -260l260 260l101 -101l-261 -260l261 -260l-101 -100l-260 260l-260 -260l-102 100z" />
    <glyph glyph-name="Oslash" unicode="&#xd8;" horiz-adv-x="974" 
d="M490 1329q-104 0 -148 -73q-43 -73 -43 -242v-512l344 739q-49 88 -153 88zM485 133q104 0 149 73q44 73 44 243v507l-342 -737q45 -86 149 -86zM864 1032v-602q0 -236 -89 -344t-286 -106q-150 0 -237 61l-35 -76l-137 64l70 149q-37 92 -37 252v602q0 236 89 344
t283 107q152 0 240 -64l33 74l139 -63l-70 -148q37 -98 37 -250z" />
    <glyph glyph-name="Ugrave" unicode="&#xd9;" horiz-adv-x="993" 
d="M596 1612h-133l-184 297h202zM131 1462h188v-1044q0 -141 27 -195q41 -88 146 -88q68 0 104 24t58 78q21 54 22 181v1044h188v-1044q0 -123 -13 -189t-48 -116q-94 -131 -313 -131t-310 151q-49 84 -49 285v1044z" />
    <glyph glyph-name="Uacute" unicode="&#xda;" horiz-adv-x="993" 
d="M399 1612l115 297h203l-185 -297h-133zM131 1462h188v-1044q0 -141 27 -195q41 -88 146 -88q68 0 104 24t58 78q21 54 22 181v1044h188v-1044q0 -123 -13 -189t-48 -116q-94 -131 -313 -131t-310 151q-49 84 -49 285v1044z" />
    <glyph glyph-name="Ucircumflex" unicode="&#xdb;" horiz-adv-x="993" 
d="M498 1786l-82 -164h-172l190 279h127l193 -279h-172zM131 1462h188v-1044q0 -141 27 -195q41 -88 146 -88q68 0 104 24t58 78q21 54 22 181v1044h188v-1044q0 -123 -13 -189t-48 -116q-94 -131 -313 -131t-310 151q-49 84 -49 285v1044z" />
    <glyph glyph-name="Udieresis" unicode="&#xdc;" horiz-adv-x="993" 
d="M567 1628v219h160v-219h-160zM266 1628v219h160v-219h-160zM131 1462h188v-1044q0 -141 27 -195q41 -88 146 -88q68 0 104 24t58 78q21 54 22 181v1044h188v-1044q0 -123 -13 -189t-48 -116q-94 -131 -313 -131t-310 151q-49 84 -49 285v1044z" />
    <glyph glyph-name="Yacute" unicode="&#xdd;" horiz-adv-x="800" 
d="M322 1612l114 297h203l-184 -297h-133zM307 0v526l-325 936h196l223 -704l224 704h198l-327 -936v-526h-189z" />
    <glyph glyph-name="Thorn" unicode="&#xde;" horiz-adv-x="880" 
d="M319 481h111q119 0 163 75q44 74 44 226t-51 230q-45 63 -154 63h-113v-594zM324 328v-328h-189v1462h189v-233h108q121 0 193 -28q200 -78 200 -423q0 -238 -92 -344t-301 -106h-108z" />
    <glyph glyph-name="germandbls" unicode="&#xdf;" horiz-adv-x="835" 
d="M438 948q88 0 88 194t-125 193q-59 0 -85 -48t-25 -161v-1126h-180v1124q1 184 69 269t215 85t223 -81q76 -82 76 -238t-67 -248q123 -88 121 -397v-74q2 -244 -64 -341t-229 -99h-62v147h41q84 3 109 55t24 226v96q-2 180 -27 237q-26 56 -104 54h-22v133h24z" />
    <glyph glyph-name="agrave" unicode="&#xe0;" horiz-adv-x="794" 
d="M506 1190h-133l-185 295h203zM510 477h-100q-92 0 -131 -43t-39 -139t30 -132t108 -36q76 0 104 40t28 144v166zM510 612v62q0 131 -28 183t-96 52t-98 -43q-28 -43 -28 -141h-168q0 152 45 221q72 113 241 113q168 0 240 -93t72 -304v-662h-141l-10 55q-35 -41 -80 -58
t-121 -17q-150 0 -214 72t-65 242q0 171 70 245t233 73h148z" />
    <glyph glyph-name="aacute" unicode="&#xe1;" horiz-adv-x="794" 
d="M309 1190l115 295h203l-185 -295h-133zM510 477h-100q-92 0 -131 -43t-39 -139t30 -132t108 -36q76 0 104 40t28 144v166zM510 612v62q0 131 -28 183t-96 52t-98 -43q-28 -43 -28 -141h-168q0 152 45 221q72 113 241 113q168 0 240 -93t72 -304v-662h-141l-10 55
q-35 -41 -80 -58t-121 -17q-150 0 -214 72t-65 242q0 171 70 245t233 73h148z" />
    <glyph glyph-name="acircumflex" unicode="&#xe2;" horiz-adv-x="794" 
d="M406 1364l-82 -164h-172l190 277h127l193 -277h-173zM510 477h-100q-92 0 -131 -43t-39 -139t30 -132t108 -36q76 0 104 40t28 144v166zM510 612v62q0 131 -28 183t-96 52t-98 -43q-28 -43 -28 -141h-168q0 152 45 221q72 113 241 113q168 0 240 -93t72 -304v-662h-141
l-10 55q-35 -41 -80 -58t-121 -17q-150 0 -214 72t-65 242q0 171 70 245t233 73h148z" />
    <glyph glyph-name="atilde" unicode="&#xe3;" horiz-adv-x="794" 
d="M262 1219h-108q29 242 161 241q63 0 113 -63t70 -64q39 0 51 113h108q-10 -129 -47 -185q-38 -57 -110 -57t-117 64t-64 63q-43 1 -57 -112zM510 477h-100q-92 0 -131 -43t-39 -139t30 -132t108 -36q76 0 104 40t28 144v166zM510 612v62q0 131 -28 183t-96 52t-98 -43
q-28 -43 -28 -141h-168q0 152 45 221q72 113 241 113q168 0 240 -93t72 -304v-662h-141l-10 55q-35 -41 -80 -58t-121 -17q-150 0 -214 72t-65 242q0 171 70 245t233 73h148z" />
    <glyph glyph-name="adieresis" unicode="&#xe4;" horiz-adv-x="794" 
d="M473 1204v221h160v-221h-160zM178 1204v221h160v-221h-160zM510 477h-100q-92 0 -131 -43t-39 -139t30 -132t108 -36q76 0 104 40t28 144v166zM510 612v62q0 131 -28 183t-96 52t-98 -43q-28 -43 -28 -141h-168q0 152 45 221q72 113 241 113q168 0 240 -93t72 -304v-662
h-141l-10 55q-35 -41 -80 -58t-121 -17q-150 0 -214 72t-65 242q0 171 70 245t233 73h148z" />
    <glyph glyph-name="aring" unicode="&#xe5;" horiz-adv-x="794" 
d="M496 1384q0 118 -89 119q-89 0 -89 -119t88 -118q90 0 90 118zM407 1595q91 0 147 -58q56 -57 56 -151t-56 -153t-146 -59t-148 59q-57 59 -57 153t56 152q57 57 148 57zM510 477h-100q-92 0 -131 -43t-39 -139t30 -132t108 -36q76 0 104 40t28 144v166zM510 612v62
q0 131 -28 183t-96 52t-98 -43q-28 -43 -28 -141h-168q0 152 45 221q72 113 241 113q168 0 240 -93t72 -304v-662h-141l-10 55q-35 -41 -80 -58t-121 -17q-150 0 -214 72t-65 242q0 171 70 245t233 73h148z" />
    <glyph glyph-name="ae" unicode="&#xe6;" horiz-adv-x="1228" 
d="M690 618h279v66q0 125 -33 176t-109 51q-77 0 -107 -51t-30 -176v-66zM510 481h-100q-92 0 -131 -43t-39 -140t30 -134t108 -37q76 0 104 40t28 146v168zM260 725h-168q2 156 45 221q70 113 240 113q84 0 133 -24t94 -83q82 106 239 106t227 -98q70 -100 71 -327v-150
h-451v-114q0 -131 31 -185t105 -55q74 0 106 47q33 47 33 150h168q-2 -150 -41 -224q-70 -122 -243 -122t-249 110q-88 -110 -251 -110t-226 72t-63 245q0 172 69 246q70 74 233 73h148v58q0 131 -28 183t-96 52t-98 -43q-28 -43 -28 -141z" />
    <glyph glyph-name="ccedilla" unicode="&#xe7;" horiz-adv-x="757" 
d="M248 -459l69 318h177l-125 -318h-121zM530 332h168q0 -160 -45 -234q-35 -55 -103 -87t-153 -31q-182 0 -252 131q-49 90 -49 278v262q0 215 72 313t229 97q195 0 262 -148q31 -68 31 -200h-166q0 199 -123 198q-69 0 -97 -57t-28 -190v-287q0 -135 29 -191t97 -57
q68 0 98 48q30 49 30 155z" />
    <glyph glyph-name="egrave" unicode="&#xe8;" horiz-adv-x="813" 
d="M516 1190h-133l-184 295h202zM276 621h275v59q0 127 -32 179q-31 52 -107 52t-106 -52t-30 -179v-59zM276 483v-114q0 -131 31 -185t105 -55q74 0 106 47t31 150h168q-2 -154 -43 -224q-72 -122 -251 -122t-253 100t-74 326v225q0 229 73 328t241 99t242 -98
q74 -100 73 -329v-148h-449z" />
    <glyph glyph-name="eacute" unicode="&#xe9;" horiz-adv-x="813" 
d="M319 1190l115 295h203l-184 -295h-134zM276 621h275v59q0 127 -32 179q-31 52 -107 52t-106 -52t-30 -179v-59zM276 483v-114q0 -131 31 -185t105 -55q74 0 106 47t31 150h168q-2 -154 -43 -224q-72 -122 -251 -122t-253 100t-74 326v225q0 229 73 328t241 99t242 -98
q74 -100 73 -329v-148h-449z" />
    <glyph glyph-name="ecircumflex" unicode="&#xea;" horiz-adv-x="813" 
d="M416 1364l-82 -164h-172l190 277h127l193 -277h-172zM276 621h275v59q0 127 -32 179q-31 52 -107 52t-106 -52t-30 -179v-59zM276 483v-114q0 -131 31 -185t105 -55q74 0 106 47t31 150h168q-2 -154 -43 -224q-72 -122 -251 -122t-253 100t-74 326v225q0 229 73 328
t241 99t242 -98q74 -100 73 -329v-148h-449z" />
    <glyph glyph-name="edieresis" unicode="&#xeb;" horiz-adv-x="813" 
d="M485 1204v221h160v-221h-160zM190 1204v221h160v-221h-160zM276 621h275v59q0 127 -32 179q-31 52 -107 52t-106 -52t-30 -179v-59zM276 483v-114q0 -131 31 -185t105 -55q74 0 106 47t31 150h168q-2 -154 -43 -224q-72 -122 -251 -122t-253 100t-74 326v225
q0 229 73 328t241 99t242 -98q74 -100 73 -329v-148h-449z" />
    <glyph glyph-name="igrave" unicode="&#xec;" horiz-adv-x="409" 
d="M305 1190h-133l-184 295h202zM117 0v1040h180v-1040h-180z" />
    <glyph glyph-name="iacute" unicode="&#xed;" horiz-adv-x="409" 
d="M106 1190l115 295h203l-184 -295h-134zM115 0v1040h180v-1040h-180z" />
    <glyph glyph-name="icircumflex" unicode="&#xee;" horiz-adv-x="409" 
d="M205 1364l-82 -164h-172l190 277h127l193 -277h-172zM115 0v1040h180v-1040h-180z" />
    <glyph glyph-name="idieresis" unicode="&#xef;" horiz-adv-x="409" 
d="M272 1204v221h160v-221h-160zM-23 1204v221h160v-221h-160zM115 0v1040h180v-1040h-180z" />
    <glyph glyph-name="eth" unicode="&#xf0;" horiz-adv-x="827" 
d="M551 377v268q0 133 -32 191q-31 58 -105 57q-74 0 -106 -57t-32 -191v-268q0 -133 32 -191t106 -57q74 -1 106 57t31 191zM96 369v284q0 197 62 285q78 104 217 104q80 0 125 -36q-8 41 -33 104t-43 92l-145 -88l-62 88l127 78q-12 8 -35 31q-47 37 -102 53l22 123
q145 -20 252 -119l125 76l62 -88l-105 -62q162 -215 168 -659v-266q0 -207 -74 -298q-73 -91 -243 -91t-244 91t-74 298z" />
    <glyph glyph-name="ntilde" unicode="&#xf1;" horiz-adv-x="839" 
d="M276 1219h-108q29 242 162 241q63 0 113 -63t69 -64q39 0 51 113h109q-10 -129 -47 -185q-37 -57 -110 -57t-118 64t-63 63q-44 1 -58 -112zM111 0v1040h135l14 -86q49 61 92 83t117 22q176 0 238 -154q27 -72 26 -233v-672h-180v651q0 141 -28 197q-29 56 -101 57
t-102 -65t-31 -224v-616h-180z" />
    <glyph glyph-name="ograve" unicode="&#xf2;" horiz-adv-x="827" 
d="M512 1190h-133l-184 295h202zM551 371v301q0 131 -31 184q-30 53 -106 53t-107 -53t-31 -184v-301q0 -133 31 -187t107 -55q76 1 106 55t31 187zM96 385v270q0 215 74 309t244 95q170 0 244 -94t73 -310v-270q0 -215 -75 -310q-74 -95 -242 -95t-243 95t-75 310z" />
    <glyph glyph-name="oacute" unicode="&#xf3;" horiz-adv-x="827" 
d="M315 1190l115 295h203l-184 -295h-134zM551 371v301q0 131 -31 184q-30 53 -106 53t-107 -53t-31 -184v-301q0 -133 31 -187t107 -55q76 1 106 55t31 187zM96 385v270q0 215 74 309t244 95q170 0 244 -94t73 -310v-270q0 -215 -75 -310q-74 -95 -242 -95t-243 95t-75 310
z" />
    <glyph glyph-name="ocircumflex" unicode="&#xf4;" horiz-adv-x="827" 
d="M412 1364l-82 -164h-172l190 277h127l193 -277h-172zM551 371v301q0 131 -31 184q-30 53 -106 53t-107 -53t-31 -184v-301q0 -133 31 -187t107 -55q76 1 106 55t31 187zM96 385v270q0 215 74 309t244 95q170 0 244 -94t73 -310v-270q0 -215 -75 -310q-74 -95 -242 -95
t-243 95t-75 310z" />
    <glyph glyph-name="otilde" unicode="&#xf5;" horiz-adv-x="827" 
d="M270 1219h-108q29 242 162 241q63 0 113 -63t69 -64q39 0 51 113h109q-10 -129 -48 -185q-38 -57 -110 -57t-117 64t-63 63q-44 1 -58 -112zM551 371v301q0 131 -31 184q-30 53 -106 53t-107 -53t-31 -184v-301q0 -133 31 -187t107 -55q76 1 106 55t31 187zM96 385v270
q0 215 74 309t244 95q170 0 244 -94t73 -310v-270q0 -215 -75 -310q-74 -95 -242 -95t-243 95t-75 310z" />
    <glyph glyph-name="odieresis" unicode="&#xf6;" horiz-adv-x="827" 
d="M481 1204v221h160v-221h-160zM186 1204v221h160v-221h-160zM551 371v301q0 131 -31 184q-30 53 -106 53t-107 -53t-31 -184v-301q0 -133 31 -187t107 -55q76 1 106 55t31 187zM96 385v270q0 215 74 309t244 95q170 0 244 -94t73 -310v-270q0 -215 -75 -310
q-74 -95 -242 -95t-243 95t-75 310z" />
    <glyph glyph-name="divide" unicode="&#xf7;" 
d="M348 961v188h162v-188h-162zM348 334v188h162v-188h-162zM88 670v143h684v-143h-684z" />
    <glyph glyph-name="oslash" unicode="&#xf8;" horiz-adv-x="827" 
d="M412 909q-70 -1 -103 -67t-33 -213v-240l238 463q-32 57 -102 57zM415 131q71 0 103 67t33 214v247l-240 -469q33 -59 104 -59zM731 618v-196q0 -225 -77 -333t-238 -107q-113 0 -185 51l-36 -70l-107 55l57 115q-49 100 -49 289v196q0 228 76 334t240 107q109 0 182 -49
l35 67l108 -55l-57 -111q51 -98 51 -293z" />
    <glyph glyph-name="ugrave" unicode="&#xf9;" horiz-adv-x="819" 
d="M508 1190h-133l-185 295h203zM104 1040h181v-651q0 -141 25 -198q26 -56 94 -56t96 66q29 66 28 223v616h181v-1040h-136l-14 86q-47 -63 -88 -85t-113 -21q-172 0 -229 155q-25 72 -25 232v673z" />
    <glyph glyph-name="uacute" unicode="&#xfa;" horiz-adv-x="819" 
d="M311 1190l115 295h203l-185 -295h-133zM104 1040h181v-651q0 -141 25 -198q26 -56 94 -56t96 66q29 66 28 223v616h181v-1040h-136l-14 86q-47 -63 -88 -85t-113 -21q-172 0 -229 155q-25 72 -25 232v673z" />
    <glyph glyph-name="ucircumflex" unicode="&#xfb;" horiz-adv-x="819" 
d="M408 1364l-82 -164h-172l190 277h127l193 -277h-172zM104 1040h181v-651q0 -141 25 -198q26 -56 94 -56t96 66q29 66 28 223v616h181v-1040h-136l-14 86q-47 -63 -88 -85t-113 -21q-172 0 -229 155q-25 72 -25 232v673z" />
    <glyph glyph-name="udieresis" unicode="&#xfc;" horiz-adv-x="819" 
d="M477 1204v221h160v-221h-160zM182 1204v221h160v-221h-160zM104 1040h181v-651q0 -141 25 -198q26 -56 94 -56t96 66q29 66 28 223v616h181v-1040h-136l-14 86q-47 -63 -88 -85t-113 -21q-172 0 -229 155q-25 72 -25 232v673z" />
    <glyph glyph-name="yacute" unicode="&#xfd;" horiz-adv-x="741" 
d="M289 1190l114 295h203l-184 -295h-133zM283 -8l-254 1048h180l164 -813l151 813h183l-265 -1194q-44 -193 -114 -254t-248 -63v152q88 -3 119 29t59 153z" />
    <glyph glyph-name="thorn" unicode="&#xfe;" horiz-adv-x="833" 
d="M559 385v295q0 225 -127 225q-141 0 -141 -297v-176q0 -297 141 -297q127 0 127 250zM737 406q0 -426 -257 -426q-126 0 -187 63v-504h-180v1923h180v-479q55 76 186 76t195 -94t63 -295v-264z" />
    <glyph glyph-name="ydieresis" unicode="&#xff;" horiz-adv-x="741" 
d="M438 1204v221h160v-221h-160zM143 1204v221h160v-221h-160zM283 -8l-254 1048h180l164 -813l151 813h183l-265 -1194q-44 -193 -114 -254t-248 -63v152q88 -3 119 29t59 153z" />
    <glyph glyph-name="Amacron" unicode="&#x100;" horiz-adv-x="882" 
d="M225 1683v132h432v-132h-432zM598 467l-156 731l-153 -731h309zM631 315h-377l-68 -315h-202l381 1462h157l379 -1462h-203z" />
    <glyph glyph-name="amacron" unicode="&#x101;" horiz-adv-x="794" 
d="M182 1262v131h432v-131h-432zM510 477h-100q-92 0 -131 -43t-39 -139t30 -132t108 -36q76 0 104 40t28 144v166zM510 612v62q0 131 -28 183t-96 52t-98 -43q-28 -43 -28 -141h-168q0 152 45 221q72 113 241 113q168 0 240 -93t72 -304v-662h-141l-10 55q-35 -41 -80 -58
t-121 -17q-150 0 -214 72t-65 242q0 171 70 245t233 73h148z" />
    <glyph glyph-name="Abreve" unicode="&#x102;" horiz-adv-x="882" 
d="M205 1890h117q6 -88 32 -122t85 -34q60 0 87 34t33 122h115q-2 -131 -27 -176q-49 -110 -213 -110t-211 129q-16 42 -18 157zM598 467l-156 731l-153 -731h309zM631 315h-377l-68 -315h-202l381 1462h157l379 -1462h-203z" />
    <glyph glyph-name="abreve" unicode="&#x103;" horiz-adv-x="794" 
d="M407 1313q60 0 86 34t33 121h115q-2 -131 -27 -176q-48 -110 -212 -110t-212 129q-16 42 -18 157h117q6 -88 32 -122t86 -33zM510 477h-100q-92 0 -131 -43t-39 -139t30 -132t108 -36q76 0 104 40t28 144v166zM510 612v62q0 131 -28 183t-96 52t-98 -43q-28 -43 -28 -141
h-168q0 152 45 221q72 113 241 113q168 0 240 -93t72 -304v-662h-141l-10 55q-35 -41 -80 -58t-121 -17q-150 0 -214 72t-65 242q0 171 70 245t233 73h148z" />
    <glyph glyph-name="Aogonek" unicode="&#x104;" horiz-adv-x="882" 
d="M598 467l-156 731l-153 -731h309zM768 -219q0 -72 72 -72q39 0 86 17l22 -99q-74 -29 -151 -28q-190 0 -191 147q0 70 36 127t122 127h-66l-67 315h-377l-68 -315h-202l381 1462h157l379 -1462q-6 -8 -14 -16q-67 -64 -93 -108t-26 -95z" />
    <glyph glyph-name="aogonek" unicode="&#x105;" horiz-adv-x="794" 
d="M510 477h-100q-92 0 -131 -43t-39 -139t30 -132t108 -36q76 0 104 40t28 144v166zM555 -219q0 -72 74 -72q31 0 86 17l20 -99q-72 -29 -149 -28q-193 0 -193 147q0 129 160 254h-4l-10 55q-35 -41 -80 -58t-121 -17q-150 0 -214 72t-65 242q0 171 70 245t233 73h148v62
q0 131 -28 183t-96 52t-98 -43q-28 -43 -28 -141h-168q0 152 45 221q72 113 241 113q168 0 240 -93t72 -304v-662l-16 -16q-61 -59 -78 -86q-41 -61 -41 -117z" />
    <glyph glyph-name="Cacute" unicode="&#x106;" horiz-adv-x="907" 
d="M369 1612l114 297h203l-184 -297h-133zM825 422q0 -170 -49 -266q-90 -176 -302 -176t-302 141q-61 100 -61 328v563q0 250 77 348q90 119 275 119q227 0 311 -183q37 -78 39 -231h-174q-6 143 -44 201t-129 59q-91 0 -129 -73t-38 -251v-542q0 -180 39 -253t134 -73
q95 -1 137 67t44 222h172z" />
    <glyph glyph-name="cacute" unicode="&#x107;" horiz-adv-x="757" 
d="M311 1190l115 295h203l-185 -295h-133zM530 332h168q0 -160 -45 -234q-35 -55 -103 -87t-153 -31q-182 0 -252 131q-49 90 -49 278v262q0 215 72 313t229 97q195 0 262 -148q31 -68 31 -200h-166q0 199 -123 198q-69 0 -97 -57t-28 -190v-287q0 -135 29 -191t97 -57
q68 0 98 48q30 49 30 155z" />
    <glyph glyph-name="Ccircumflex" unicode="&#x108;" horiz-adv-x="907" 
d="M465 1786l-82 -164h-172l190 279h127l193 -279h-172zM825 422q0 -170 -49 -266q-90 -176 -302 -176t-302 141q-61 100 -61 328v563q0 250 77 348q90 119 275 119q227 0 311 -183q37 -78 39 -231h-174q-6 143 -44 201t-129 59q-91 0 -129 -73t-38 -251v-542
q0 -180 39 -253t134 -73q95 -1 137 67t44 222h172z" />
    <glyph glyph-name="ccircumflex" unicode="&#x109;" horiz-adv-x="757" 
d="M395 1364l-82 -164h-172l191 277h127l192 -277h-172zM530 332h168q0 -160 -45 -234q-35 -55 -103 -87t-153 -31q-182 0 -252 131q-49 90 -49 278v262q0 215 72 313t229 97q195 0 262 -148q31 -68 31 -200h-166q0 199 -123 198q-69 0 -97 -57t-28 -190v-287
q0 -135 29 -191t97 -57q68 0 98 48q30 49 30 155z" />
    <glyph glyph-name="Cdotaccent" unicode="&#x10a;" horiz-adv-x="907" 
d="M383 1626v221h174v-221h-174zM825 422q0 -170 -49 -266q-90 -176 -302 -176t-302 141q-61 100 -61 328v563q0 250 77 348q90 119 275 119q227 0 311 -183q37 -78 39 -231h-174q-6 143 -44 201t-129 59q-91 0 -129 -73t-38 -251v-542q0 -180 39 -253t134 -73q95 -1 137 67
t44 222h172z" />
    <glyph glyph-name="cdotaccent" unicode="&#x10b;" horiz-adv-x="757" 
d="M315 1204v221h174v-221h-174zM530 332h168q0 -160 -45 -234q-35 -55 -103 -87t-153 -31q-182 0 -252 131q-49 90 -49 278v262q0 215 72 313t229 97q195 0 262 -148q31 -68 31 -200h-166q0 199 -123 198q-69 0 -97 -57t-28 -190v-287q0 -135 29 -191t97 -57q68 0 98 48
q30 49 30 155z" />
    <glyph glyph-name="Ccaron" unicode="&#x10c;" horiz-adv-x="907" 
d="M477 1733l84 163h172l-190 -278h-129l-191 278h172zM825 422q0 -170 -49 -266q-90 -176 -302 -176t-302 141q-61 100 -61 328v563q0 250 77 348q90 119 275 119q227 0 311 -183q37 -78 39 -231h-174q-6 143 -44 201t-129 59q-91 0 -129 -73t-38 -251v-542q0 -180 39 -253
t134 -73q95 -1 137 67t44 222h172z" />
    <glyph glyph-name="ccaron" unicode="&#x10d;" horiz-adv-x="757" 
d="M397 1311l84 164h172l-190 -279h-129l-191 279h172zM530 332h168q0 -160 -45 -234q-35 -55 -103 -87t-153 -31q-182 0 -252 131q-49 90 -49 278v262q0 215 72 313t229 97q195 0 262 -148q31 -68 31 -200h-166q0 199 -123 198q-69 0 -97 -57t-28 -190v-287q0 -135 29 -191
t97 -57q68 0 98 48q30 49 30 155z" />
    <glyph glyph-name="Dcaron" unicode="&#x10e;" horiz-adv-x="974" 
d="M453 1733l84 163h172l-191 -278h-129l-190 278h172zM324 154h141q119 0 164 66t47 235v553q-2 170 -47 236t-164 65h-141v-1155zM135 0v1462h326q211 4 309 -97t94 -325v-616q2 -224 -94 -326t-309 -98h-326z" />
    <glyph glyph-name="dcaron" unicode="&#x10f;" horiz-adv-x="987" 
d="M807 997l45 484h172l-92 -484h-125zM276 680v-293q0 -252 127 -252q139 0 140 297v176q0 297 -140 297q-127 0 -127 -225zM96 406v264q0 201 65 295t201 94q60 -1 100 -17t81 -59v479h180v-1462h-139l-13 74q-69 -95 -206 -95q-137 1 -203 102t-66 325z" />
    <glyph glyph-name="Dcroat" unicode="&#x110;" horiz-adv-x="974" 
d="M322 815h182v-151h-182v-510h143q119 0 164 66t47 235v553q-2 170 -47 236t-164 65h-143v-494zM133 815v647h326q213 4 310 -96t93 -326v-618q4 -226 -93 -326t-310 -96h-326v664h-108v151h108z" />
    <glyph glyph-name="dcroat" unicode="&#x111;" horiz-adv-x="833" 
d="M274 680v-293q0 -252 127 -252q139 0 140 297v176q0 297 -140 297q-127 0 -127 -225zM96 406v264q0 203 64 296t202 93q60 1 98 -15t81 -61v191h-209v129h209v159h180v-159h106v-129h-106v-1174h-139l-13 74q-69 -95 -205 -95q-136 1 -202 102t-66 325z" />
    <glyph glyph-name="Emacron" unicode="&#x112;" horiz-adv-x="835" 
d="M225 1683v132h432v-132h-432zM135 0v1462h627v-155h-438v-490h370v-155h-370v-506h442v-156h-631z" />
    <glyph glyph-name="emacron" unicode="&#x113;" horiz-adv-x="813" 
d="M197 1262v131h432v-131h-432zM276 621h275v59q0 127 -32 179q-31 52 -107 52t-106 -52t-30 -179v-59zM276 483v-114q0 -131 31 -185t105 -55q74 0 106 47t31 150h168q-2 -154 -43 -224q-72 -122 -251 -122t-253 100t-74 326v225q0 229 73 328t241 99t242 -98
q74 -100 73 -329v-148h-449z" />
    <glyph glyph-name="Ebreve" unicode="&#x114;" horiz-adv-x="835" 
d="M219 1890h117q6 -88 32 -122t86 -34t87 34t32 122h115q-2 -131 -26 -176q-49 -110 -213 -110t-211 129q-17 42 -19 157zM135 0v1462h627v-155h-438v-490h370v-155h-370v-506h442v-156h-631z" />
    <glyph glyph-name="ebreve" unicode="&#x115;" horiz-adv-x="813" 
d="M421 1313q60 0 86 34t34 121h114q-2 -131 -26 -176q-49 -110 -213 -110t-211 129q-17 42 -19 157h117q6 -88 32 -122t86 -33zM276 621h275v59q0 127 -32 179q-31 52 -107 52t-106 -52t-30 -179v-59zM276 483v-114q0 -131 31 -185t105 -55q74 0 106 47t31 150h168
q-2 -154 -43 -224q-72 -122 -251 -122t-253 100t-74 326v225q0 229 73 328t241 99t242 -98q74 -100 73 -329v-148h-449z" />
    <glyph glyph-name="Edotaccent" unicode="&#x116;" horiz-adv-x="835" 
d="M373 1626v221h174v-221h-174zM135 0v1462h627v-155h-438v-490h370v-155h-370v-506h442v-156h-631z" />
    <glyph glyph-name="edotaccent" unicode="&#x117;" horiz-adv-x="813" 
d="M330 1204v221h174v-221h-174zM276 621h275v59q0 127 -32 179q-31 52 -107 52t-106 -52t-30 -179v-59zM276 483v-114q0 -131 31 -185t105 -55q74 0 106 47t31 150h168q-2 -154 -43 -224q-72 -122 -251 -122t-253 100t-74 326v225q0 229 73 328t241 99t242 -98
q74 -100 73 -329v-148h-449z" />
    <glyph glyph-name="Eogonek" unicode="&#x118;" horiz-adv-x="835" 
d="M135 0v1462h627v-155h-438v-490h370v-155h-370v-506h442v-156l-31 -31q-102 -100 -102 -180t72 -80q35 0 86 17l20 -99q-68 -29 -149 -28q-190 0 -190 145t159 256h-496z" />
    <glyph glyph-name="eogonek" unicode="&#x119;" horiz-adv-x="813" 
d="M281 621h274v59q0 127 -32 179q-31 52 -107 52t-106 -52t-29 -179v-59zM281 483v-114q0 -131 30 -185q31 -53 105 -53t106 46t31 149h168q2 -219 -113 -295l-18 -19q-129 -127 -129 -229q0 -74 74 -74q35 0 86 19l20 -101q-72 -29 -149 -28q-193 0 -193 149
q0 121 113 234q-166 4 -240 104t-72 320v225q0 229 73 328t241 99t242 -98q74 -100 73 -329v-148h-448z" />
    <glyph glyph-name="Ecaron" unicode="&#x11a;" horiz-adv-x="835" 
d="M455 1733l84 163h172l-191 -278h-129l-190 278h172zM135 0v1462h627v-155h-438v-490h370v-155h-370v-506h442v-156h-631z" />
    <glyph glyph-name="ecaron" unicode="&#x11b;" horiz-adv-x="813" 
d="M416 1311l84 164h172l-191 -279h-129l-190 279h172zM276 621h275v59q0 127 -32 179q-31 52 -107 52t-106 -52t-30 -179v-59zM276 483v-114q0 -131 31 -185t105 -55q74 0 106 47t31 150h168q-2 -154 -43 -224q-72 -122 -251 -122t-253 100t-74 326v225q0 229 73 328
t241 99t242 -98q74 -100 73 -329v-148h-449z" />
    <glyph glyph-name="Gcircumflex" unicode="&#x11c;" horiz-adv-x="950" 
d="M479 1786l-82 -164h-172l191 279h127l192 -279h-172zM504 627v147h356v-291q0 -252 -69 -358q-97 -145 -309 -145t-306 141q-66 100 -65 328v563q0 248 79 348q94 119 285 119q231 0 316 -187q35 -80 36 -227h-172q-4 141 -45 201t-136 59q-95 0 -135 -73t-40 -251v-542
q0 -176 43 -251t142 -75t145 75q45 75 45 236v183h-170z" />
    <glyph glyph-name="gcircumflex" unicode="&#x11d;" horiz-adv-x="835" 
d="M422 1364l-82 -164h-172l190 277h127l193 -277h-172zM276 680v-291q0 -254 130 -254q137 0 137 297v176q0 297 -140 297q-127 0 -127 -225zM543 -84v127q-78 -63 -172 -63q-143 0 -209 101t-66 325v264q0 201 65 295t204 94q69 -1 111 -21t87 -75l21 77h139v-1099
q0 -221 -75 -321q-74 -100 -250 -99q-176 0 -238 131q-27 66 -27 180h160q1 -90 27 -129t95 -39t99 56t29 196z" />
    <glyph glyph-name="Gbreve" unicode="&#x11e;" horiz-adv-x="950" 
d="M240 1890h116q6 -88 32 -122t86 -34t87 34t33 122h115q-2 -131 -27 -176q-49 -110 -213 -110t-211 129q-16 42 -18 157zM504 627v147h356v-291q0 -252 -69 -358q-97 -145 -309 -145t-306 141q-66 100 -65 328v563q0 248 79 348q94 119 285 119q231 0 316 -187
q35 -80 36 -227h-172q-4 141 -45 201t-136 59q-95 0 -135 -73t-40 -251v-542q0 -176 43 -251t142 -75t145 75q45 75 45 236v183h-170z" />
    <glyph glyph-name="gbreve" unicode="&#x11f;" horiz-adv-x="835" 
d="M429 1313q60 0 86 34t34 121h115q-2 -131 -27 -176q-49 -110 -213 -110t-211 129q-16 42 -18 157h116q6 -88 32 -122t86 -33zM276 680v-291q0 -254 130 -254q137 0 137 297v176q0 297 -140 297q-127 0 -127 -225zM543 -84v127q-78 -63 -172 -63q-143 0 -209 101t-66 325
v264q0 201 65 295t204 94q69 -1 111 -21t87 -75l21 77h139v-1099q0 -221 -75 -321q-74 -100 -250 -99q-176 0 -238 131q-27 66 -27 180h160q1 -90 27 -129t95 -39t99 56t29 196z" />
    <glyph glyph-name="Gdotaccent" unicode="&#x120;" horiz-adv-x="950" 
d="M387 1626v221h174v-221h-174zM504 627v147h356v-291q0 -252 -69 -358q-97 -145 -309 -145t-306 141q-66 100 -65 328v563q0 248 79 348q94 119 285 119q231 0 316 -187q35 -80 36 -227h-172q-4 141 -45 201t-136 59q-95 0 -135 -73t-40 -251v-542q0 -176 43 -251t142 -75
t145 75q45 75 45 236v183h-170z" />
    <glyph glyph-name="gdotaccent" unicode="&#x121;" horiz-adv-x="835" 
d="M356 1204v221h174v-221h-174zM276 680v-291q0 -254 130 -254q137 0 137 297v176q0 297 -140 297q-127 0 -127 -225zM543 -84v127q-78 -63 -172 -63q-143 0 -209 101t-66 325v264q0 201 65 295t204 94q69 -1 111 -21t87 -75l21 77h139v-1099q0 -221 -75 -321
q-74 -100 -250 -99q-176 0 -238 131q-27 66 -27 180h160q1 -90 27 -129t95 -39t99 56t29 196z" />
    <glyph glyph-name="Gcommaaccent" unicode="&#x122;" horiz-adv-x="950" 
d="M342 -459l70 318h176l-125 -318h-121zM504 627v147h356v-291q0 -252 -69 -358q-97 -145 -309 -145t-306 141q-66 100 -65 328v563q0 248 79 348q94 119 285 119q231 0 316 -187q35 -80 36 -227h-172q-4 141 -45 201t-136 59q-95 0 -135 -73t-40 -251v-542q0 -176 43 -251
t142 -75t145 75q45 75 45 236v183h-170z" />
    <glyph glyph-name="gcommaaccent" unicode="&#x123;" horiz-adv-x="835" 
d="M332 1190l184 295h133l-114 -295h-203zM276 680v-291q0 -254 130 -254q137 0 137 297v176q0 297 -140 297q-127 0 -127 -225zM543 -84v127q-78 -63 -172 -63q-143 0 -209 101t-66 325v264q0 201 65 295t204 94q69 -1 111 -21t87 -75l21 77h139v-1099q0 -221 -75 -321
q-74 -100 -250 -99q-176 0 -238 131q-27 66 -27 180h160q1 -90 27 -129t95 -39t99 56t29 196z" />
    <glyph glyph-name="Hcircumflex" unicode="&#x124;" horiz-adv-x="987" 
d="M494 1786l-82 -164h-172l190 279h127l193 -279h-172zM135 0v1462h189v-645h340v645h188v-1462h-188v662h-340v-662h-189z" />
    <glyph glyph-name="hcircumflex" unicode="&#x125;" horiz-adv-x="839" 
d="M266 1786l-82 -164h-172l191 279h127l192 -279h-172zM111 0v1462h180v-469q72 66 180 66q174 0 236 -154q27 -72 26 -231v-674h-180v651q0 141 -28 197q-29 56 -101 57t-102 -65t-31 -224v-616h-180z" />
    <glyph glyph-name="Hbar" unicode="&#x126;" horiz-adv-x="987" 
d="M324 817h340v199h-340v-199zM135 0v1016h-104v137h104v309h189v-309h340v309h188v-309h104v-137h-104v-1016h-188v662h-340v-662h-189z" />
    <glyph glyph-name="hbar" unicode="&#x127;" horiz-adv-x="843" 
d="M113 1174h-109v129h109v159h180v-159h207v-129h-207v-181q74 66 180 66q178 0 236 -154q27 -72 26 -231v-674h-180v651q0 143 -27 199q-28 56 -100 55q-72 1 -104 -65t-31 -224v-616h-180v1174z" />
    <glyph glyph-name="Itilde" unicode="&#x128;" horiz-adv-x="458" 
d="M139 1882q63 0 113 -63t70 -64q39 0 51 113h108q-10 -130 -47 -186q-36 -56 -110 -56t-119 68q-43 59 -62 59q-43 0 -57 -113h-109q31 242 162 242zM135 0v1462h189v-1462h-189z" />
    <glyph glyph-name="itilde" unicode="&#x129;" horiz-adv-x="409" 
d="M61 1219h-108q29 242 162 241q63 0 113 -63t69 -64q39 0 51 113h109q-10 -129 -47 -185q-37 -57 -110 -57t-118 64t-63 63q-44 1 -58 -112zM115 0v1040h180v-1040h-180z" />
    <glyph glyph-name="Imacron" unicode="&#x12a;" horiz-adv-x="458" 
d="M12 1683v132h432v-132h-432zM133 0v1462h189v-1462h-189z" />
    <glyph glyph-name="imacron" unicode="&#x12b;" horiz-adv-x="409" 
d="M-10 1262v131h432v-131h-432zM115 0v1040h180v-1040h-180z" />
    <glyph glyph-name="Ibreve" unicode="&#x12c;" horiz-adv-x="458" 
d="M-6 1890h117q5 -88 31 -122t86 -34t87 34t33 122h115q-2 -131 -27 -176q-49 -110 -213 -110t-211 129q-16 42 -18 157zM135 0v1462h189v-1462h-189z" />
    <glyph glyph-name="ibreve" unicode="&#x12d;" horiz-adv-x="409" 
d="M204 1313q60 0 86 34t34 121h114q-2 -131 -26 -176q-49 -110 -213 -110t-211 129q-17 42 -19 157h117q6 -88 32 -122t86 -33zM115 0v1040h180v-1040h-180z" />
    <glyph glyph-name="Iogonek" unicode="&#x12e;" horiz-adv-x="458" 
d="M188 -219q0 -72 74 -72q31 0 86 17l21 -99q-72 -29 -150 -28q-193 0 -192 147q0 137 161 254h-53v1462h189v-1462l-17 -16q-67 -66 -93 -109t-26 -94z" />
    <glyph glyph-name="iogonek" unicode="&#x12f;" horiz-adv-x="409" 
d="M115 1241v227h180v-227h-180zM233 -291q37 0 86 17l21 -99q-72 -29 -150 -28q-193 0 -192 147q0 133 160 254h-43v1040h180v-1040l-16 -16q-68 -66 -94 -109t-25 -94q0 -72 73 -72z" />
    <glyph glyph-name="Idotaccent" unicode="&#x130;" horiz-adv-x="458" 
d="M141 1626v221h174v-221h-174zM135 0v1462h189v-1462h-189z" />
    <glyph glyph-name="dotlessi" unicode="&#x131;" horiz-adv-x="409" 
d="M115 0v1040h180v-1040h-180z" />
    <glyph glyph-name="IJ" unicode="&#x132;" horiz-adv-x="915" 
d="M594 1462h188v-1480q0 -250 -37 -332q-68 -147 -262 -148q-78 0 -159 33l71 141q35 -20 72 -20q90 0 115 113q12 49 12 208v1485zM135 0v1462h189v-1462h-189z" />
    <glyph glyph-name="ij" unicode="&#x133;" horiz-adv-x="817" 
d="M520 1241v227h180v-227h-180zM520 1040h180v-1052q6 -260 -69 -361q-76 -100 -279 -98v152q94 -5 132 61t36 227v1071zM115 0v1040h180v-1040h-180zM115 1241v227h180v-227h-180z" />
    <glyph glyph-name="Jcircumflex" unicode="&#x134;" horiz-adv-x="661" 
d="M412 1786l-82 -164h-172l190 279h127l193 -279h-172zM346 1462h189v-1001q0 -250 -37 -332q-72 -147 -265 -147q-160 0 -278 127l111 116q82 -90 153 -90q90 0 115 113q12 49 12 209v1005z" />
    <glyph glyph-name="jcircumflex" unicode="&#x135;" horiz-adv-x="417" 
d="M205 1364l-82 -164h-172l190 277h127l193 -277h-172zM119 1040h180v-1052q6 -260 -70 -360t-278 -99v152q94 -5 132 61t36 227v1071z" />
    <glyph glyph-name="Kcommaaccent" unicode="&#x136;" horiz-adv-x="890" 
d="M350 -459l70 318h176l-125 -318h-121zM137 0v1462h189v-676l358 676h203l-346 -606l366 -856h-205l-272 698l-104 -200v-498h-189z" />
    <glyph glyph-name="kcommaaccent" unicode="&#x137;" horiz-adv-x="798" 
d="M276 -459l70 318h176l-125 -318h-121zM117 0v1462h180v-927l274 505h191l-260 -436l272 -604h-196l-185 467l-96 -180v-287h-180z" />
    <glyph glyph-name="kgreenlandic" unicode="&#x138;" horiz-adv-x="798" 
d="M117 0v1040h180v-505l274 505h191l-260 -436l272 -604h-196l-185 467l-96 -180v-287h-180z" />
    <glyph glyph-name="Lacute" unicode="&#x139;" horiz-adv-x="794" 
d="M182 1612l115 297h203l-185 -297h-133zM135 0v1462h189v-1306h450v-156h-639z" />
    <glyph glyph-name="lacute" unicode="&#x13a;" horiz-adv-x="460" 
d="M131 1612l115 295h203l-185 -295h-133zM115 1462h180v-1118q-2 -112 26 -152t99 -42h26v-150h-32q-184 2 -243 72q-58 70 -56 288v1102z" />
    <glyph glyph-name="Lcommaaccent" unicode="&#x13b;" horiz-adv-x="794" 
d="M295 -459l70 318h176l-125 -318h-121zM135 0v1462h189v-1306h450v-156h-639z" />
    <glyph glyph-name="lcommaaccent" unicode="&#x13c;" horiz-adv-x="460" 
d="M111 -459l69 318h176l-125 -318h-120zM113 1462h180v-1118q-3 -112 25 -152t100 -42h26v-150h-32q-184 2 -243 72q-58 70 -56 288v1102z" />
    <glyph glyph-name="Lcaron" unicode="&#x13d;" horiz-adv-x="794" 
d="M473 997l45 484h172l-92 -484h-125zM135 0v1462h189v-1306h450v-156h-639z" />
    <glyph glyph-name="lcaron" unicode="&#x13e;" horiz-adv-x="587" 
d="M408 997l45 484h172l-93 -484h-124zM115 1462h180v-1118q-2 -112 26 -152t99 -42h26v-150h-32q-184 2 -243 72q-58 70 -56 288v1102z" />
    <glyph glyph-name="Ldot" unicode="&#x13f;" horiz-adv-x="794" 
d="M530 635v213h158v-213h-158zM135 0v1462h189v-1306h450v-156h-639z" />
    <glyph glyph-name="ldot" unicode="&#x140;" horiz-adv-x="559" 
d="M399 635v213h158v-213h-158zM115 1462h180v-1118q-2 -111 26 -153t99 -41h26v-150h-32q-184 2 -243 72q-58 70 -56 288v1102z" />
    <glyph glyph-name="Lslash" unicode="&#x141;" horiz-adv-x="794" 
d="M135 0v420l-100 -92v176l100 92v866h189v-719l260 244v-176l-260 -246v-409h448v-156h-637z" />
    <glyph glyph-name="lslash" unicode="&#x142;" horiz-adv-x="489" 
d="M129 1462h180v-585l162 143v-182l-162 -144v-350q-2 -111 26 -153t99 -41h27v-150h-33q-180 2 -239 70q-58 68 -60 274v213l-125 -113v185l125 112v721z" />
    <glyph glyph-name="Nacute" unicode="&#x143;" horiz-adv-x="1036" 
d="M444 1612l115 297h203l-184 -297h-134zM135 0v1462h189l399 -1073v1073h178v-1462h-180l-408 1081v-1081h-178z" />
    <glyph glyph-name="nacute" unicode="&#x144;" horiz-adv-x="839" 
d="M322 1190l114 295h203l-184 -295h-133zM111 0v1040h135l14 -86q49 61 92 83t117 22q176 0 238 -154q27 -72 26 -233v-672h-180v651q0 141 -28 197q-29 56 -101 57t-102 -65t-31 -224v-616h-180z" />
    <glyph glyph-name="Ncommaaccent" unicode="&#x145;" horiz-adv-x="1036" 
d="M375 -459l69 318h177l-125 -318h-121zM135 0v1462h189l399 -1073v1073h178v-1462h-180l-408 1081v-1081h-178z" />
    <glyph glyph-name="ncommaaccent" unicode="&#x146;" horiz-adv-x="839" 
d="M279 -459l69 318h176l-125 -318h-120zM111 0v1040h135l14 -86q49 61 92 83t117 22q176 0 238 -154q27 -72 26 -233v-672h-180v651q0 141 -28 197q-29 56 -101 57t-102 -65t-31 -224v-616h-180z" />
    <glyph glyph-name="Ncaron" unicode="&#x147;" horiz-adv-x="1036" 
d="M528 1733l84 163h172l-190 -278h-129l-191 278h172zM135 0v1462h189l399 -1073v1073h178v-1462h-180l-408 1081v-1081h-178z" />
    <glyph glyph-name="ncaron" unicode="&#x148;" horiz-adv-x="839" 
d="M418 1311l84 164h172l-191 -279h-129l-190 279h172zM111 0v1040h135l14 -86q49 61 92 83t117 22q176 0 238 -154q27 -72 26 -233v-672h-180v651q0 141 -28 197q-29 56 -101 57t-102 -65t-31 -224v-616h-180z" />
    <glyph glyph-name="napostrophe" unicode="&#x149;" horiz-adv-x="958" 
d="M4 967l47 495h193l-84 -495h-156zM229 0v1040h136l14 -104q35 51 57 72q55 51 154 51q178 0 235 -154q27 -72 27 -233v-672h-180v651q0 141 -28 197t-100 57t-104 -65q-31 -66 -30 -224v-616h-181z" />
    <glyph glyph-name="Eng" unicode="&#x14a;" horiz-adv-x="1036" 
d="M135 0v1462h189l399 -1073v1073h178v-1493q4 -248 -71 -345t-269 -95v145q88 -8 128 59t38 214v53l-414 1081v-1081h-178z" />
    <glyph glyph-name="eng" unicode="&#x14b;" horiz-adv-x="839" 
d="M111 0v1040h135l14 -104q37 53 57 72q57 51 156 51q176 0 234 -154q27 -72 26 -231v-686q6 -260 -70 -361q-77 -100 -276 -98v152q90 -7 129 61t37 227v682q0 141 -27 197q-28 56 -100 57t-104 -65t-31 -224v-616h-180z" />
    <glyph glyph-name="Omacron" unicode="&#x14c;" horiz-adv-x="974" 
d="M270 1683v132h432v-132h-432zM674 449v565q0 170 -43 242t-145 73q-102 0 -144 -73q-43 -73 -43 -242v-565q0 -170 43 -243t144 -73t145 73q43 73 43 243zM111 430v602q0 236 89 344q88 108 286 107t287 -107t89 -344v-602q0 -238 -89 -344t-287 -106t-286 107t-89 343z
" />
    <glyph glyph-name="omacron" unicode="&#x14d;" horiz-adv-x="827" 
d="M197 1262v131h432v-131h-432zM551 371v301q0 131 -31 184q-30 53 -106 53t-107 -53t-31 -184v-301q0 -133 31 -187t107 -55q76 1 106 55t31 187zM96 385v270q0 215 74 309t244 95q170 0 244 -94t73 -310v-270q0 -215 -75 -310q-74 -95 -242 -95t-243 95t-75 310z" />
    <glyph glyph-name="Obreve" unicode="&#x14e;" horiz-adv-x="974" 
d="M252 1890h117q5 -88 31 -122t86 -34t87 34t33 122h115q-2 -131 -27 -176q-49 -110 -213 -110t-211 129q-16 42 -18 157zM674 449v565q0 170 -43 242t-145 73q-102 0 -144 -73q-43 -73 -43 -242v-565q0 -170 43 -243t144 -73t145 73q43 73 43 243zM111 430v602
q0 236 89 344q88 108 286 107t287 -107t89 -344v-602q0 -238 -89 -344t-287 -106t-286 107t-89 343z" />
    <glyph glyph-name="obreve" unicode="&#x14f;" horiz-adv-x="827" 
d="M413 1313q60 0 86 34t33 121h115q-2 -131 -26 -176q-49 -110 -213 -110t-211 129q-17 42 -19 157h117q6 -88 32 -122t86 -33zM551 371v301q0 131 -31 184q-30 53 -106 53t-107 -53t-31 -184v-301q0 -133 31 -187t107 -55q76 1 106 55t31 187zM96 385v270q0 215 74 309
t244 95q170 0 244 -94t73 -310v-270q0 -215 -75 -310q-74 -95 -242 -95t-243 95t-75 310z" />
    <glyph glyph-name="Ohungarumlaut" unicode="&#x150;" horiz-adv-x="974" 
d="M524 1612l92 295h185l-152 -295h-125zM291 1612l92 295h182l-149 -295h-125zM674 449v565q0 170 -43 242t-145 73q-102 0 -144 -73q-43 -73 -43 -242v-565q0 -170 43 -243t144 -73t145 73q43 73 43 243zM111 430v602q0 236 89 344q88 108 286 107t287 -107t89 -344v-602
q0 -238 -89 -344t-287 -106t-286 107t-89 343z" />
    <glyph glyph-name="ohungarumlaut" unicode="&#x151;" horiz-adv-x="827" 
d="M453 1190l92 295h184l-151 -295h-125zM219 1190l92 295h183l-150 -295h-125zM551 371v301q0 131 -31 184q-30 53 -106 53t-107 -53t-31 -184v-301q0 -133 31 -187t107 -55q76 1 106 55t31 187zM96 385v270q0 215 74 309t244 95q170 0 244 -94t73 -310v-270
q0 -215 -75 -310q-74 -95 -242 -95t-243 95t-75 310z" />
    <glyph glyph-name="OE" unicode="&#x152;" horiz-adv-x="1374" 
d="M297 1014v-565q0 -170 43 -243t145 -73t147 73q44 73 44 243v565q0 172 -44 244t-146 71t-146 -73q-43 -72 -43 -242zM705 0v76q-74 -96 -249 -96t-260 108t-85 342v602q0 233 84 342t258 109t252 -97v76h595v-155h-438v-490h373v-155h-373v-506h445v-156h-602z" />
    <glyph glyph-name="oe" unicode="&#x153;" horiz-adv-x="1269" 
d="M731 623h279v59q0 125 -33 177t-109 52t-106 -52t-31 -177v-59zM551 369v301q0 131 -31 185q-30 54 -106 54t-107 -54t-31 -185v-301q0 -131 31 -185t107 -55q76 1 106 55t31 185zM96 385v268q0 217 71 311t237 95q166 0 239 -111q78 111 238 111q161 1 231 -99t70 -329
v-150h-451v-112q0 -131 31 -185q30 -54 104 -55q74 0 107 47t33 150h168q-2 -150 -41 -224q-70 -123 -256 -122q-150 0 -234 112q-80 -112 -242 -112q-161 0 -233 95t-72 310z" />
    <glyph glyph-name="Racute" unicode="&#x154;" horiz-adv-x="935" 
d="M371 1612l114 297h203l-184 -297h-133zM322 778h112q70 0 107 14t63 52q49 66 49 205t-51 199t-162 61h-118v-531zM326 631v-631h-189v1462h309q119 0 190 -24q206 -68 206 -387q0 -175 -46 -267t-155 -135l229 -649h-206l-205 631h-133z" />
    <glyph glyph-name="racute" unicode="&#x155;" horiz-adv-x="583" 
d="M223 1190l115 295h203l-185 -295h-133zM111 0v1040h137l24 -86q31 57 70 81q40 24 108 24t142 -58l-82 -149q-51 53 -100 53q-64 0 -92 -93t-27 -306v-506h-180z" />
    <glyph glyph-name="Rcommaaccent" unicode="&#x156;" horiz-adv-x="935" 
d="M346 -459l70 318h176l-125 -318h-121zM322 778h112q70 0 107 14t63 52q49 66 49 205t-51 199t-162 61h-118v-531zM326 631v-631h-189v1462h309q119 0 190 -24q206 -68 206 -387q0 -175 -46 -267t-155 -135l229 -649h-206l-205 631h-133z" />
    <glyph glyph-name="rcommaaccent" unicode="&#x157;" horiz-adv-x="583" 
d="M51 -459l70 318h176l-125 -318h-121zM111 0v1040h139l22 -86q31 57 70 81q40 24 108 24t142 -58l-82 -149q-51 53 -100 53q-64 0 -92 -93t-27 -306v-506h-180z" />
    <glyph glyph-name="Rcaron" unicode="&#x158;" horiz-adv-x="935" 
d="M436 1733l84 163h172l-190 -278h-129l-191 278h172zM322 778h112q70 0 107 14t63 52q49 66 49 205t-51 199t-162 61h-118v-531zM326 631v-631h-189v1462h309q119 0 190 -24q206 -68 206 -387q0 -175 -46 -267t-155 -135l229 -649h-206l-205 631h-133z" />
    <glyph glyph-name="rcaron" unicode="&#x159;" horiz-adv-x="583" 
d="M319 1311l84 164h172l-190 -279h-129l-190 279h172zM113 0v1040h137l24 -86q31 57 70 81q40 24 108 24t142 -58l-82 -149q-51 53 -100 53q-63 0 -91 -93t-28 -306v-506h-180z" />
    <glyph glyph-name="Sacute" unicode="&#x15a;" horiz-adv-x="851" 
d="M336 1612l115 297h202l-184 -297h-133zM414 133q96 -1 139 63t43 196t-49 188q-23 29 -51 43t-123 49q-155 55 -223 150q-68 94 -68 272t85 281t243 104q217 0 299 -185q37 -80 36 -229h-172q-4 141 -39 201q-36 59 -118 59q-154 0 -154 -238q0 -104 45 -162
q45 -57 153 -99t144 -60q172 -84 172 -358q0 -428 -356 -428q-238 0 -322 182q-37 84 -39 260h172q2 -154 45 -222q42 -68 138 -67z" />
    <glyph glyph-name="sacute" unicode="&#x15b;" horiz-adv-x="739" 
d="M272 1190l115 295h203l-184 -295h-134zM219 332q0 -94 19 -129q33 -74 133 -74q147 0 147 162q0 82 -45 117q-25 18 -153 57t-175 92q-67 72 -67 213t72 215t208 74q199 0 265 -141q29 -61 30 -187h-166q-1 178 -121 178t-120 -143q0 -92 63 -133q31 -19 156 -55
t173 -100t48 -189q0 -182 -104 -252q-86 -57 -215 -57q-217 0 -289 161q-25 58 -27 191h168z" />
    <glyph glyph-name="Scircumflex" unicode="&#x15c;" horiz-adv-x="851" 
d="M424 1786l-82 -164h-172l190 279h127l193 -279h-172zM414 133q96 -1 139 63t43 196t-49 188q-23 29 -51 43t-123 49q-155 55 -223 150q-68 94 -68 272t85 281t243 104q217 0 299 -185q37 -80 36 -229h-172q-4 141 -39 201q-36 59 -118 59q-154 0 -154 -238
q0 -104 45 -162q45 -57 153 -99t144 -60q172 -84 172 -358q0 -428 -356 -428q-238 0 -322 182q-37 84 -39 260h172q2 -154 45 -222q42 -68 138 -67z" />
    <glyph glyph-name="scircumflex" unicode="&#x15d;" horiz-adv-x="739" 
d="M371 1364l-82 -164h-172l190 277h127l193 -277h-172zM219 332q0 -94 19 -129q33 -74 133 -74q147 0 147 162q0 82 -45 117q-25 18 -153 57t-175 92q-67 72 -67 213t72 215t208 74q199 0 265 -141q29 -61 30 -187h-166q-1 178 -121 178t-120 -143q0 -92 63 -133
q31 -19 156 -55t173 -100t48 -189q0 -182 -104 -252q-86 -57 -215 -57q-217 0 -289 161q-25 58 -27 191h168z" />
    <glyph glyph-name="Scedilla" unicode="&#x15e;" horiz-adv-x="851" 
d="M266 -459l70 318h176l-125 -318h-121zM414 133q96 -1 139 63t43 196t-49 188q-23 29 -51 43t-123 49q-155 55 -223 150q-68 94 -68 272t85 281t243 104q217 0 299 -185q37 -80 36 -229h-172q-4 141 -39 201q-36 59 -118 59q-154 0 -154 -238q0 -104 45 -162
q45 -57 153 -99t144 -60q172 -84 172 -358q0 -428 -356 -428q-238 0 -322 182q-37 84 -39 260h172q2 -154 45 -222q42 -68 138 -67z" />
    <glyph glyph-name="scedilla" unicode="&#x15f;" horiz-adv-x="739" 
d="M227 -459l70 318h176l-125 -318h-121zM219 332q0 -94 19 -129q33 -74 133 -74q147 0 147 162q0 82 -45 117q-25 18 -153 57t-175 92q-67 72 -67 213t72 215t208 74q199 0 265 -141q29 -61 30 -187h-166q-1 178 -121 178t-120 -143q0 -92 63 -133q31 -19 156 -55t173 -100
t48 -189q0 -182 -104 -252q-86 -57 -215 -57q-217 0 -289 161q-25 58 -27 191h168z" />
    <glyph glyph-name="Scaron" unicode="&#x160;" horiz-adv-x="851" 
d="M418 1733l84 163h172l-191 -278h-129l-190 278h172zM414 133q96 -1 139 63t43 196t-49 188q-23 29 -51 43t-123 49q-155 55 -223 150q-68 94 -68 272t85 281t243 104q217 0 299 -185q37 -80 36 -229h-172q-4 141 -39 201q-36 59 -118 59q-154 0 -154 -238q0 -104 45 -162
q45 -57 153 -99t144 -60q172 -84 172 -358q0 -428 -356 -428q-238 0 -322 182q-37 84 -39 260h172q2 -154 45 -222q42 -68 138 -67z" />
    <glyph glyph-name="scaron" unicode="&#x161;" horiz-adv-x="739" 
d="M371 1311l84 164h172l-191 -279h-129l-190 279h172zM219 332q0 -94 19 -129q33 -74 133 -74q147 0 147 162q0 82 -45 117q-25 18 -153 57t-175 92q-67 72 -67 213t72 215t208 74q199 0 265 -141q29 -61 30 -187h-166q-1 178 -121 178t-120 -143q0 -92 63 -133
q31 -19 156 -55t173 -100t48 -189q0 -182 -104 -252q-86 -57 -215 -57q-217 0 -289 161q-25 58 -27 191h168z" />
    <glyph glyph-name="Tcommaaccent" unicode="&#x162;" horiz-adv-x="737" 
d="M213 -459l70 318h176l-125 -318h-121zM274 0v1307h-254v155h697v-155h-254v-1307h-189z" />
    <glyph glyph-name="tcommaaccent" unicode="&#x163;" horiz-adv-x="514" 
d="M143 -459l70 318h176l-125 -318h-121zM137 893h-92v147h92l10 320h170v-320h144v-147h-144v-580q-2 -94 22 -129t87 -32h37v-152h-53q-170 0 -223 62q-52 62 -50 268v563z" />
    <glyph glyph-name="Tcaron" unicode="&#x164;" horiz-adv-x="737" 
d="M369 1733l84 163h172l-191 -278h-129l-190 278h172zM274 0v1307h-254v155h697v-155h-254v-1307h-189z" />
    <glyph glyph-name="tcaron" unicode="&#x165;" horiz-adv-x="647" 
d="M477 1106l35 414h172l-82 -414h-125zM137 893h-92v147h92l10 320h170v-320h144v-147h-144v-580q-2 -94 22 -129t87 -32h37v-152h-53q-170 0 -223 62q-52 62 -50 268v563z" />
    <glyph glyph-name="Tbar" unicode="&#x166;" horiz-adv-x="737" 
d="M274 0v666h-178v149h178v492h-254v155h697v-155h-254v-492h180v-149h-180v-666h-189z" />
    <glyph glyph-name="tbar" unicode="&#x167;" horiz-adv-x="514" 
d="M137 893h-92v147h92l10 320h170v-320h144v-147h-144v-174h140v-129h-140v-277q-2 -94 22 -129t89 -32h35v-152h-53q-170 0 -223 62q-52 62 -50 268v260h-92v129h92v174z" />
    <glyph glyph-name="Utilde" unicode="&#x168;" horiz-adv-x="993" 
d="M408 1882q63 0 113 -63t69 -64q39 0 51 113h109q-10 -130 -48 -186t-110 -56q-74 0 -119 68q-43 59 -61 59q-44 0 -58 -113h-108q31 242 162 242zM131 1462h188v-1044q0 -141 27 -195q41 -88 146 -88q68 0 104 24t58 78q21 54 22 181v1044h188v-1044q0 -123 -13 -189
t-48 -116q-94 -131 -313 -131t-310 151q-49 84 -49 285v1044z" />
    <glyph glyph-name="utilde" unicode="&#x169;" horiz-adv-x="819" 
d="M266 1219h-108q29 242 161 241q63 0 113 -63t70 -64q39 0 51 113h109q-10 -129 -48 -185q-38 -57 -110 -57t-117 64t-63 63q-44 1 -58 -112zM104 1040h181v-651q0 -141 25 -198q26 -56 94 -56t96 66q29 66 28 223v616h181v-1040h-136l-14 86q-47 -63 -88 -85t-113 -21
q-172 0 -229 155q-25 72 -25 232v673z" />
    <glyph glyph-name="Umacron" unicode="&#x16a;" horiz-adv-x="993" 
d="M283 1683v132h432v-132h-432zM131 1462h188v-1044q0 -141 27 -195q41 -88 146 -88q68 0 104 24t58 78q21 54 22 181v1044h188v-1044q0 -123 -13 -189t-48 -116q-94 -131 -313 -131t-310 151q-49 84 -49 285v1044z" />
    <glyph glyph-name="umacron" unicode="&#x16b;" horiz-adv-x="819" 
d="M193 1262v131h432v-131h-432zM104 1040h181v-651q0 -141 25 -198q26 -56 94 -56t96 66q29 66 28 223v616h181v-1040h-136l-14 86q-47 -63 -88 -85t-113 -21q-172 0 -229 155q-25 72 -25 232v673z" />
    <glyph glyph-name="Ubreve" unicode="&#x16c;" horiz-adv-x="993" 
d="M262 1890h117q6 -88 32 -122t86 -34t87 34t32 122h115q-2 -131 -26 -176q-49 -110 -213 -110t-211 129q-17 42 -19 157zM131 1462h188v-1044q0 -141 27 -195q41 -88 146 -88q68 0 104 24t58 78q21 54 22 181v1044h188v-1044q0 -123 -13 -189t-48 -116q-94 -131 -313 -131
t-310 151q-49 84 -49 285v1044z" />
    <glyph glyph-name="ubreve" unicode="&#x16d;" horiz-adv-x="819" 
d="M409 1313q60 0 86 34t33 121h115q-2 -131 -27 -176q-48 -110 -212 -110t-211 129q-17 42 -19 157h117q6 -88 32 -122t86 -33zM104 1040h181v-651q0 -141 25 -198q26 -56 94 -56t96 66q29 66 28 223v616h181v-1040h-136l-14 86q-47 -63 -88 -85t-113 -21q-172 0 -229 155
q-25 72 -25 232v673z" />
    <glyph glyph-name="Uring" unicode="&#x16e;" horiz-adv-x="993" 
d="M586 1808q0 120 -89 119q-89 0 -89 -120t88 -119q90 0 90 120zM497 2019q91 0 147 -58q56 -57 56 -151t-57 -154t-147 -60t-146 58q-56 60 -57 155q0 95 56 153q57 57 148 57zM131 1462h188v-1044q0 -141 27 -195q41 -88 146 -88q68 0 104 24t58 78q21 54 22 181v1044
h188v-1044q0 -123 -13 -189t-48 -116q-94 -131 -313 -131t-310 151q-49 84 -49 285v1044z" />
    <glyph glyph-name="uring" unicode="&#x16f;" horiz-adv-x="819" 
d="M498 1384q0 118 -89 119q-89 0 -89 -119t88 -118q90 0 90 118zM409 1595q91 0 147 -58q56 -57 56 -151t-56 -153t-146 -59t-148 59q-57 59 -57 153t56 152q57 57 148 57zM104 1040h181v-651q0 -141 25 -198q26 -56 94 -56t96 66q29 66 28 223v616h181v-1040h-136l-14 86
q-47 -63 -88 -85t-113 -21q-172 0 -229 155q-25 72 -25 232v673z" />
    <glyph glyph-name="Uhungarumlaut" unicode="&#x170;" horiz-adv-x="993" 
d="M537 1612l92 295h184l-151 -295h-125zM303 1612l92 295h183l-150 -295h-125zM131 1462h188v-1044q0 -141 27 -195q41 -88 146 -88q68 0 104 24t58 78q21 54 22 181v1044h188v-1044q0 -123 -13 -189t-48 -116q-94 -131 -313 -131t-310 151q-49 84 -49 285v1044z" />
    <glyph glyph-name="uhungarumlaut" unicode="&#x171;" horiz-adv-x="819" 
d="M449 1190l92 295h184l-152 -295h-124zM215 1190l92 295h182l-149 -295h-125zM104 1040h181v-651q0 -141 25 -198q26 -56 94 -56t96 66q29 66 28 223v616h181v-1040h-136l-14 86q-47 -63 -88 -85t-113 -21q-172 0 -229 155q-25 72 -25 232v673z" />
    <glyph glyph-name="Uogonek" unicode="&#x172;" horiz-adv-x="993" 
d="M143 1462h189v-1044q0 -141 26 -195q41 -88 146 -88q68 0 104 24t58 78t22 181v1044h189v-1044q4 -172 -40 -266t-153 -144q-123 -119 -123 -227q0 -72 74 -72q37 0 84 17l22 -99q-74 -29 -149 -28q-193 0 -193 151q0 125 115 232q-199 -2 -289 106t-82 330v1044z" />
    <glyph glyph-name="uogonek" unicode="&#x173;" horiz-adv-x="819" 
d="M573 -219q0 -72 74 -72q37 0 86 17l21 -99q-72 -29 -150 -28q-193 0 -192 147q0 72 34 127q35 55 127 129l-14 84q-47 -63 -88 -85t-113 -21q-172 0 -229 155q-25 72 -25 232v673h181v-651q0 -141 25 -198q26 -56 94 -56t96 66q29 66 28 223v616h181v-1040l-17 -16
q-68 -66 -94 -109t-25 -94z" />
    <glyph glyph-name="Wcircumflex" unicode="&#x174;" horiz-adv-x="1337" 
d="M668 1786l-82 -164h-172l190 279h127l193 -279h-172zM279 0l-232 1462h186l142 -1106l221 1106h143l224 -1106l139 1106h186l-231 -1462h-166l-223 1081l-222 -1081h-167z" />
    <glyph glyph-name="wcircumflex" unicode="&#x175;" horiz-adv-x="1128" 
d="M563 1364l-82 -164h-172l191 277h127l192 -277h-172zM254 0l-209 1040h182l117 -743l156 743h127l155 -743l119 743h180l-209 -1040h-153l-156 725l-155 -725h-154z" />
    <glyph glyph-name="Ycircumflex" unicode="&#x176;" horiz-adv-x="800" 
d="M399 1786l-82 -164h-172l191 279h127l192 -279h-172zM307 0v526l-325 936h196l223 -704l224 704h198l-327 -936v-526h-189z" />
    <glyph glyph-name="ycircumflex" unicode="&#x177;" horiz-adv-x="741" 
d="M369 1364l-82 -164h-172l190 277h127l193 -277h-172zM283 -8l-254 1048h180l164 -813l151 813h183l-265 -1194q-44 -193 -114 -254t-248 -63v152q88 -3 119 29t59 153z" />
    <glyph glyph-name="Ydieresis" unicode="&#x178;" horiz-adv-x="800" 
d="M471 1628v219h160v-219h-160zM170 1628v219h160v-219h-160zM307 0v526l-325 936h196l223 -704l224 704h198l-327 -936v-526h-189z" />
    <glyph glyph-name="Zacute" unicode="&#x179;" horiz-adv-x="772" 
d="M332 1612l114 297h203l-184 -297h-133zM45 0v100l447 1207h-410v155h616v-100l-448 -1206h467v-156h-672z" />
    <glyph glyph-name="zacute" unicode="&#x17a;" horiz-adv-x="663" 
d="M270 1190l115 295h203l-185 -295h-133zM41 0v102l344 789h-311v149h518v-102l-346 -788h366v-150h-571z" />
    <glyph glyph-name="Zdotaccent" unicode="&#x17b;" horiz-adv-x="772" 
d="M332 1626v221h174v-221h-174zM45 0v100l447 1207h-410v155h616v-100l-448 -1206h467v-156h-672z" />
    <glyph glyph-name="zdotaccent" unicode="&#x17c;" horiz-adv-x="663" 
d="M264 1204v221h174v-221h-174zM41 0v102l344 789h-311v149h518v-102l-346 -788h366v-150h-571z" />
    <glyph glyph-name="Zcaron" unicode="&#x17d;" horiz-adv-x="772" 
d="M422 1733l84 163h172l-191 -278h-129l-190 278h172zM45 0v100l447 1207h-410v155h616v-100l-448 -1206h467v-156h-672z" />
    <glyph glyph-name="zcaron" unicode="&#x17e;" horiz-adv-x="663" 
d="M356 1311l84 164h172l-190 -279h-129l-191 279h172zM41 0v102l344 789h-311v149h518v-102l-346 -788h366v-150h-571z" />
    <glyph glyph-name="Ohorn" unicode="&#x1a0;" horiz-adv-x="1040" 
d="M674 449v565q0 170 -43 242t-145 71q-102 0 -145 -72q-42 -72 -42 -241v-565q0 -170 43 -243t144 -73t145 73q43 73 43 243zM1063 1368q0 -76 -41 -138q-41 -64 -162 -149l2 -22v-629q0 -238 -89 -344t-287 -106t-286 108t-89 342v602q0 236 89 342t267 106t264 -66
q86 -67 119 -214q74 76 74 151t-29 132h156q12 -39 12 -115z" />
    <glyph glyph-name="ohorn" unicode="&#x1a1;" horiz-adv-x="897" 
d="M551 371v301q0 131 -31 185q-30 54 -106 54t-107 -54t-31 -185v-301q0 -133 31 -187t107 -55q76 1 106 55t31 187zM731 643v-258q0 -215 -75 -310q-74 -95 -242 -95t-243 95t-75 310v270q0 215 74 309t230 95q156 0 231 -66q74 -66 94 -213l33 49q27 39 27 104t-25 120
h153q12 -47 13 -95q0 -176 -197 -303q2 -6 2 -12z" />
    <glyph glyph-name="Uhorn" unicode="&#x1af;" horiz-adv-x="1099" 
d="M131 1462h188v-1044q0 -141 27 -195q41 -88 146 -88q68 0 104 24t58 78q21 54 22 181v1044h188v-307q129 94 129 215q0 61 -24 113h153q12 -41 13 -92q0 -141 -127 -256q-20 -16 -144 -101v-616q0 -123 -13 -189t-48 -116q-94 -131 -313 -131t-310 151q-49 84 -49 285
v1044z" />
    <glyph glyph-name="uhorn" unicode="&#x1b0;" horiz-adv-x="942" 
d="M104 1040h181v-651q0 -141 25 -198q26 -56 94 -56t96 66q29 66 28 223v616h181v-315q69 49 99 99t30 114t-25 115h154q12 -41 12 -90q0 -107 -58 -185t-212 -174v-604h-136l-14 86q-49 -63 -90 -85t-111 -21q-172 0 -229 155q-25 72 -25 234v671z" />
    <glyph glyph-name="uni01C4" unicode="&#x1c4;" horiz-adv-x="1716" 
d="M1368 1733l84 163h172l-192 -278h-127l-191 278h170zM991 0v100l447 1207h-410v155h614v-100l-446 -1206h467v-156h-672zM324 154h141q119 0 164 66t47 235v553q-2 170 -47 236t-164 65h-141v-1155zM135 0v1462h326q211 4 309 -97t94 -325v-616q2 -224 -94 -326t-309 -98
h-326z" />
    <glyph glyph-name="uni01C5" unicode="&#x1c5;" horiz-adv-x="1638" 
d="M1335 1311l82 164h172l-190 -279h-127l-193 279h172zM1018 0v102l344 789h-311v149h518v-102l-346 -788h366v-150h-571zM324 154h141q119 0 164 66t47 235v553q-2 170 -47 236t-164 65h-141v-1155zM135 0v1462h326q211 4 309 -97t94 -325v-616q2 -224 -94 -326t-309 -98
h-326z" />
    <glyph glyph-name="uni01C6" unicode="&#x1c6;" horiz-adv-x="1497" 
d="M1192 1311l84 164h172l-191 -279h-129l-190 279h172zM877 0v102l344 789h-312v149h518v-102l-346 -788h367v-150h-571zM276 680v-293q0 -252 127 -252q139 0 140 297v176q0 297 -140 297q-127 0 -127 -225zM96 406v264q0 201 65 295t201 94q60 -1 100 -17t81 -59v479h180
v-1462h-139l-13 74q-69 -95 -206 -95q-137 1 -203 102t-66 325z" />
    <glyph glyph-name="uni01C7" unicode="&#x1c7;" horiz-adv-x="1253" 
d="M930 1462h188v-1480q0 -250 -37 -332q-68 -147 -258 -148q-82 0 -164 33l72 141q35 -20 72 -20q90 0 115 113q12 49 12 208v1485zM135 0v1462h189v-1306h450v-156h-639z" />
    <glyph glyph-name="uni01C8" unicode="&#x1c8;" horiz-adv-x="1212" 
d="M918 1040h180v-1052q6 -260 -70 -360t-278 -99v152q94 -5 132 61t36 227v1071zM918 1241v227h180v-227h-180zM135 0v1462h189v-1306h450v-156h-639z" />
    <glyph glyph-name="uni01C9" unicode="&#x1c9;" horiz-adv-x="878" 
d="M584 1040h180v-1052q6 -260 -70 -360t-278 -99v152q94 -5 133 61t35 227v1071zM584 1241v227h180v-227h-180zM115 1462h180v-1118q-2 -112 26 -152t99 -42h26v-150h-32q-184 2 -243 72q-58 70 -56 288v1102z" />
    <glyph glyph-name="uni01CA" unicode="&#x1ca;" horiz-adv-x="1492" 
d="M1171 1462h189v-1480q0 -252 -37 -332q-68 -147 -258 -148q-82 0 -164 33l72 141q35 -20 71 -20q90 0 115 113q12 47 12 208v1485zM135 0v1462h189l401 -1073v1073h178v-1462h-180l-410 1081v-1081h-178z" />
    <glyph glyph-name="uni01CB" unicode="&#x1cb;" horiz-adv-x="1454" 
d="M1159 1241v227h180v-227h-180zM1159 1040h180v-1052q6 -260 -69 -361q-76 -100 -279 -98v152q92 -5 131 61t37 227v1071zM135 0v1462h189l401 -1073v1073h178v-1462h-180l-410 1081v-1081h-178z" />
    <glyph glyph-name="uni01CC" unicode="&#x1cc;" horiz-adv-x="1257" 
d="M961 1241v227h180v-227h-180zM961 1040h180v-1052q6 -260 -70 -360t-276 -99v152q92 -5 130 61t36 227v1071zM111 0v1040h135l14 -86q49 61 92 83t117 22q176 0 238 -154q27 -72 26 -233v-672h-180v651q0 141 -28 197q-29 56 -101 57t-102 -65t-31 -224v-616h-180z" />
    <glyph glyph-name="uni01CD" unicode="&#x1cd;" horiz-adv-x="882" 
d="M440 1733l84 163h172l-190 -278h-129l-191 278h172zM598 467l-156 731l-153 -731h309zM631 315h-377l-68 -315h-202l381 1462h157l379 -1462h-203z" />
    <glyph glyph-name="uni01CE" unicode="&#x1ce;" horiz-adv-x="794" 
d="M406 1311l83 164h173l-191 -279h-129l-190 279h172zM510 477h-100q-92 0 -131 -43t-39 -139t30 -132t108 -36q76 0 104 40t28 144v166zM510 612v62q0 131 -28 183t-96 52t-98 -43q-28 -43 -28 -141h-168q0 152 45 221q72 113 241 113q168 0 240 -93t72 -304v-662h-141
l-10 55q-35 -41 -80 -58t-121 -17q-150 0 -214 72t-65 242q0 171 70 245t233 73h148z" />
    <glyph glyph-name="uni01CF" unicode="&#x1cf;" horiz-adv-x="458" 
d="M227 1733l84 163h172l-190 -278h-129l-191 278h172zM133 0v1462h189v-1462h-189z" />
    <glyph glyph-name="uni01D0" unicode="&#x1d0;" horiz-adv-x="409" 
d="M205 1311l84 164h172l-191 -279h-129l-190 279h172zM115 0v1040h180v-1040h-180z" />
    <glyph glyph-name="uni01D1" unicode="&#x1d1;" horiz-adv-x="974" 
d="M487 1733l82 163h172l-190 -278h-127l-193 278h172zM674 449v565q0 170 -43 242t-145 73q-102 0 -144 -73q-43 -73 -43 -242v-565q0 -170 43 -243t144 -73t145 73q43 73 43 243zM111 430v602q0 236 89 344q88 108 286 107t287 -107t89 -344v-602q0 -238 -89 -344
t-287 -106t-286 107t-89 343z" />
    <glyph glyph-name="uni01D2" unicode="&#x1d2;" horiz-adv-x="827" 
d="M412 1311l84 164h172l-191 -279h-129l-190 279h172zM551 371v301q0 131 -31 184q-30 53 -106 53t-107 -53t-31 -184v-301q0 -133 31 -187t107 -55q76 1 106 55t31 187zM96 385v270q0 215 74 309t244 95q170 0 244 -94t73 -310v-270q0 -215 -75 -310q-74 -95 -242 -95
t-243 95t-75 310z" />
    <glyph glyph-name="uni01D3" unicode="&#x1d3;" horiz-adv-x="993" 
d="M498 1733l84 163h172l-191 -278h-129l-190 278h172zM131 1462h188v-1044q0 -141 27 -195q41 -88 146 -88q68 0 104 24t58 78q21 54 22 181v1044h188v-1044q0 -123 -13 -189t-48 -116q-94 -131 -313 -131t-310 151q-49 84 -49 285v1044z" />
    <glyph glyph-name="uni01D4" unicode="&#x1d4;" horiz-adv-x="819" 
d="M408 1311l84 164h172l-191 -279h-129l-190 279h172zM104 1040h181v-651q0 -141 25 -198q26 -56 94 -56t96 66q29 66 28 223v616h181v-1040h-136l-14 86q-47 -63 -88 -85t-113 -21q-172 0 -229 155q-25 72 -25 232v673z" />
    <glyph glyph-name="Gcaron" unicode="&#x1e6;" horiz-adv-x="950" 
d="M473 1733l84 163h172l-190 -278h-129l-191 278h172zM504 627v147h356v-291q0 -252 -69 -358q-97 -145 -309 -145t-306 141q-66 100 -65 328v563q0 248 79 348q94 119 285 119q231 0 316 -187q35 -80 36 -227h-172q-4 141 -45 201t-136 59q-95 0 -135 -73t-40 -251v-542
q0 -176 43 -251t142 -75t145 75q45 75 45 236v183h-170z" />
    <glyph glyph-name="gcaron" unicode="&#x1e7;" horiz-adv-x="835" 
d="M426 1311l84 164h172l-190 -279h-130l-190 279h172zM276 680v-291q0 -254 130 -254q137 0 137 297v176q0 297 -140 297q-127 0 -127 -225zM543 -84v127q-78 -63 -172 -63q-143 0 -209 101t-66 325v264q0 201 65 295t204 94q69 -1 111 -21t87 -75l21 77h139v-1099
q0 -221 -75 -321q-74 -100 -250 -99q-176 0 -238 131q-27 66 -27 180h160q1 -90 27 -129t95 -39t99 56t29 196z" />
    <glyph glyph-name="uni01EA" unicode="&#x1ea;" horiz-adv-x="974" 
d="M678 449v565q0 170 -43 242t-145 73q-102 0 -144 -73q-43 -73 -43 -242v-565q0 -170 42 -242t144 -72t146 72q43 72 43 242zM866 1032v-602q6 -338 -204 -422q-68 -72 -95 -120t-26 -105q0 -74 73 -74q37 0 86 17l21 -99q-72 -29 -150 -28q-193 0 -192 149q0 119 115 232
q-199 0 -291 110t-88 340v602q0 236 89 344q88 108 286 107t287 -107t89 -344z" />
    <glyph glyph-name="uni01EB" unicode="&#x1eb;" horiz-adv-x="827" 
d="M555 371v301q0 131 -31 184q-30 53 -106 53t-107 -53t-30 -184v-301q0 -131 30 -186q31 -54 107 -54q76 1 106 55t31 185zM735 655v-270q0 -156 -35 -242t-116 -129q-115 -127 -115 -233q0 -72 74 -72q35 0 84 19l22 -101q-72 -29 -149 -28q-193 0 -193 151
q0 121 103 232q-166 4 -239 99t-71 304v270q0 215 74 309t244 95q170 0 244 -94q73 -95 73 -310z" />
    <glyph glyph-name="uni01F1" unicode="&#x1f1;" horiz-adv-x="1716" 
d="M991 0v100l447 1207h-410v155h614v-100l-446 -1206h467v-156h-672zM324 154h141q119 0 164 66t47 235v553q-2 170 -47 236t-164 65h-141v-1155zM135 0v1462h326q211 4 309 -97t94 -325v-616q2 -224 -94 -326t-309 -98h-326z" />
    <glyph glyph-name="uni01F2" unicode="&#x1f2;" horiz-adv-x="1638" 
d="M1018 0v102l344 789h-311v149h518v-102l-346 -788h366v-150h-571zM324 154h141q119 0 164 66t47 235v553q-2 170 -47 236t-164 65h-141v-1155zM135 0v1462h326q211 4 309 -97t94 -325v-616q2 -224 -94 -326t-309 -98h-326z" />
    <glyph glyph-name="uni01F3" unicode="&#x1f3;" horiz-adv-x="1497" 
d="M877 0v102l344 789h-312v149h518v-102l-346 -788h367v-150h-571zM276 680v-293q0 -252 127 -252q139 0 140 297v176q0 297 -140 297q-127 0 -127 -225zM96 406v264q0 201 65 295t201 94q60 -1 100 -17t81 -59v479h180v-1462h-139l-13 74q-69 -95 -206 -95
q-137 1 -203 102t-66 325z" />
    <glyph glyph-name="uni01F4" unicode="&#x1f4;" horiz-adv-x="950" 
d="M383 1612l115 297h202l-184 -297h-133zM504 627v147h356v-291q0 -252 -69 -358q-97 -145 -309 -145t-306 141q-66 100 -65 328v563q0 248 79 348q94 119 285 119q231 0 316 -187q35 -80 36 -227h-172q-4 141 -45 201t-136 59q-95 0 -135 -73t-40 -251v-542
q0 -176 43 -251t142 -75t145 75q45 75 45 236v183h-170z" />
    <glyph glyph-name="uni01F5" unicode="&#x1f5;" horiz-adv-x="835" 
d="M356 1190l115 295h203l-185 -295h-133zM276 680v-291q0 -254 130 -254q137 0 137 297v176q0 297 -140 297q-127 0 -127 -225zM543 -84v127q-78 -63 -172 -63q-143 0 -209 101t-66 325v264q0 201 65 295t204 94q69 -1 111 -21t87 -75l21 77h139v-1099q0 -221 -75 -321
q-74 -100 -250 -99q-176 0 -238 131q-27 66 -27 180h160q1 -90 27 -129t95 -39t99 56t29 196z" />
    <glyph glyph-name="Aringacute" unicode="&#x1fa;" horiz-adv-x="882" 
d="M354 1837l105 250h235l-215 -250h-125zM441 1704q-89 0 -89 -120t89 -120t89 120t-89 120zM598 467l-156 731l-153 -731h309zM441 1796q91 0 147 -57t57 -135q0 -147 -106 -209l362 -1395h-203l-67 315h-377l-68 -315h-202l362 1393q-109 59 -108 194q0 93 56 151t147 58
z" />
    <glyph glyph-name="aringacute" unicode="&#x1fb;" horiz-adv-x="794" 
d="M317 1638l103 248h235l-213 -248h-125zM402 1468q-89 0 -89 -118t89 -119q89 1 89 119t-89 118zM199 1352q1 94 57 152t147 57t147 -59t56 -151t-57 -153t-147 -59q-90 0 -147 59q-56 60 -56 154zM510 477h-100q-92 0 -131 -43t-39 -139t30 -132t108 -36q76 0 104 40
t28 144v166zM510 612v62q0 131 -28 183t-96 52t-98 -43q-28 -43 -28 -141h-168q0 152 45 221q72 113 241 113q168 0 240 -93t72 -304v-662h-141l-10 55q-35 -41 -80 -58t-121 -17q-150 0 -214 72t-65 242q0 171 70 245t233 73h148z" />
    <glyph glyph-name="AEacute" unicode="&#x1fc;" horiz-adv-x="1372" 
d="M823 1612l115 297h203l-185 -297h-133zM674 487v820h-23l-317 -820h340zM674 334h-400l-129 -334h-217l623 1462h747v-155h-440v-490h373v-155h-373v-506h447v-156h-631v334z" />
    <glyph glyph-name="aeacute" unicode="&#x1fd;" horiz-adv-x="1228" 
d="M516 1190l115 295h203l-185 -295h-133zM690 618h279v66q0 125 -33 176t-109 51q-77 0 -107 -51t-30 -176v-66zM510 481h-100q-92 0 -131 -43t-39 -140t30 -134t108 -37q76 0 104 40t28 146v168zM260 725h-168q2 156 45 221q70 113 240 113q84 0 133 -24t94 -83
q82 106 239 106t227 -98q70 -100 71 -327v-150h-451v-114q0 -131 31 -185t105 -55q74 0 106 47q33 47 33 150h168q-2 -150 -41 -224q-70 -122 -243 -122t-249 110q-88 -110 -251 -110t-226 72t-63 245q0 172 69 246q70 74 233 73h148v58q0 131 -28 183t-96 52t-98 -43
q-28 -43 -28 -141z" />
    <glyph glyph-name="Oslashacute" unicode="&#x1fe;" horiz-adv-x="974" 
d="M389 1612l115 297h203l-185 -297h-133zM490 1329q-104 0 -148 -73q-43 -73 -43 -242v-512l344 739q-49 88 -153 88zM485 133q104 0 149 73q44 73 44 243v507l-342 -737q45 -86 149 -86zM864 1032v-602q0 -236 -89 -344t-286 -106q-150 0 -237 61l-35 -76l-137 64l70 149
q-37 92 -37 252v602q0 236 89 344t283 107q152 0 240 -64l33 74l139 -63l-70 -148q37 -98 37 -250z" />
    <glyph glyph-name="oslashacute" unicode="&#x1ff;" horiz-adv-x="827" 
d="M315 1190l115 295h203l-184 -295h-134zM412 909q-70 -1 -103 -67t-33 -213v-240l238 463q-32 57 -102 57zM415 131q71 0 103 67t33 214v247l-240 -469q33 -59 104 -59zM731 618v-196q0 -225 -77 -333t-238 -107q-113 0 -185 51l-36 -70l-107 55l57 115q-49 100 -49 289
v196q0 228 76 334t240 107q109 0 182 -49l35 67l108 -55l-57 -111q51 -98 51 -293z" />
    <glyph glyph-name="uni0200" unicode="&#x200;" horiz-adv-x="882" 
d="M401 1612h-122l-152 295h184zM637 1612h-125l-152 295h185zM598 467l-156 731l-153 -731h309zM631 315h-377l-68 -315h-202l381 1462h157l379 -1462h-203z" />
    <glyph glyph-name="uni0201" unicode="&#x201;" horiz-adv-x="794" 
d="M350 1190h-123l-151 295h184zM586 1190h-125l-152 295h185zM502 477h-101q-92 0 -131 -43t-39 -139t31 -132t108 -36q76 0 104 40t28 144v166zM502 612v62q0 131 -28 183t-96 52t-98 -43q-28 -43 -28 -141h-168q0 152 45 221q72 113 241 113q168 0 240 -93t72 -304v-662
h-141l-11 55q-36 -41 -80 -58t-120 -17q-150 0 -214 72t-65 242q0 171 70 245t233 73h148z" />
    <glyph glyph-name="uni0202" unicode="&#x202;" horiz-adv-x="882" 
d="M441 1778q-60 0 -86 -34t-31 -122h-117q4 131 26 176q53 111 215 111t209 -129q17 -43 19 -158h-115q-8 88 -34 122t-86 34zM598 467l-156 731l-153 -731h309zM631 315h-377l-68 -315h-202l381 1462h157l379 -1462h-203z" />
    <glyph glyph-name="uni0203" unicode="&#x203;" horiz-adv-x="794" 
d="M398 1356q-60 0 -86 -34t-31 -122h-117q4 131 26 176q53 111 215 111t209 -129q17 -43 19 -158h-115q-8 88 -34 122t-86 34zM510 477h-100q-92 0 -131 -43t-39 -139t30 -132t108 -36q76 0 104 40t28 144v166zM510 612v62q0 131 -28 183t-96 52t-98 -43q-28 -43 -28 -141
h-168q0 152 45 221q72 113 241 113q168 0 240 -93t72 -304v-662h-141l-10 55q-35 -41 -80 -58t-121 -17q-150 0 -214 72t-65 242q0 171 70 245t233 73h148z" />
    <glyph glyph-name="uni0204" unicode="&#x204;" horiz-adv-x="835" 
d="M397 1612h-123l-151 295h184zM633 1612h-125l-152 295h185zM131 0v1462h627v-155h-439v-490h371v-155h-371v-506h443v-156h-631z" />
    <glyph glyph-name="uni0205" unicode="&#x205;" horiz-adv-x="813" 
d="M358 1190h-122l-152 295h184zM594 1190h-125l-152 295h185zM268 621h275v59q0 127 -32 179t-108 52q-75 0 -105 -51t-30 -180v-59zM268 483v-114q0 -131 31 -185t105 -55q74 0 106 47t31 150h168q-2 -154 -43 -224q-70 -122 -250 -122t-254 100t-74 326v225q0 229 73 328
t241 99t241 -98q74 -100 74 -329v-148h-449z" />
    <glyph glyph-name="uni0206" unicode="&#x206;" horiz-adv-x="835" 
d="M441 1778q-60 0 -86 -34t-31 -122h-117q4 131 26 176q53 111 215 111t209 -129q17 -43 19 -158h-115q-8 88 -34 122t-86 34zM135 0v1462h627v-155h-438v-490h370v-155h-370v-506h442v-156h-631z" />
    <glyph glyph-name="uni0207" unicode="&#x207;" horiz-adv-x="813" 
d="M407 1356q-60 0 -86 -34t-32 -122h-117q4 131 27 176q53 111 215 111t209 -129q16 -43 18 -158h-115q-8 88 -33 122q-26 34 -86 34zM276 621h275v59q0 127 -32 179q-31 52 -107 52t-106 -52t-30 -179v-59zM276 483v-114q0 -131 31 -185t105 -55q74 0 106 47t31 150h168
q-2 -154 -43 -224q-72 -122 -251 -122t-253 100t-74 326v225q0 229 73 328t241 99t242 -98q74 -100 73 -329v-148h-449z" />
    <glyph glyph-name="uni0208" unicode="&#x208;" horiz-adv-x="458" 
d="M188 1612h-122l-152 295h184zM424 1612h-125l-152 295h185zM133 0v1462h189v-1462h-189z" />
    <glyph glyph-name="uni0209" unicode="&#x209;" horiz-adv-x="409" 
d="M166 1190h-123l-152 295h185zM401 1190h-125l-151 295h184zM117 0v1040h180v-1040h-180z" />
    <glyph glyph-name="uni020A" unicode="&#x20a;" horiz-adv-x="458" 
d="M228 1778q-60 0 -86 -34t-31 -122h-117q4 131 26 176q53 111 215 111t209 -129q17 -43 19 -158h-115q-8 88 -34 122t-86 34zM133 0v1462h189v-1462h-189z" />
    <glyph glyph-name="uni020B" unicode="&#x20b;" horiz-adv-x="409" 
d="M206 1356q-60 0 -86 -34t-32 -122h-117q4 131 27 176q53 111 215 111t209 -129q16 -43 18 -158h-114q-8 88 -34 122t-86 34zM117 0v1040h180v-1040h-180z" />
    <glyph glyph-name="uni020C" unicode="&#x20c;" horiz-adv-x="974" 
d="M446 1612h-122l-152 295h184zM682 1612h-125l-151 295h184zM674 449v565q0 170 -43 242t-145 73q-102 0 -144 -73q-43 -73 -43 -242v-565q0 -170 43 -243t144 -73t145 73q43 73 43 243zM111 430v602q0 236 89 344q88 108 286 107t287 -107t89 -344v-602q0 -238 -89 -344
t-287 -106t-286 107t-89 343z" />
    <glyph glyph-name="uni020D" unicode="&#x20d;" horiz-adv-x="827" 
d="M365 1190h-123l-152 295h184zM600 1190h-125l-151 295h184zM541 371v301q0 131 -31 184t-107 53q-77 0 -107 -53t-30 -184v-301q0 -133 31 -187t107 -55q76 1 106 55q31 54 31 187zM86 385v270q0 215 74 309t244 95q170 0 243 -94q74 -94 74 -310v-270q0 -215 -75 -310
t-243 -95q-169 0 -243 95t-74 310z" />
    <glyph glyph-name="uni020E" unicode="&#x20e;" horiz-adv-x="974" 
d="M486 1778q-60 0 -86 -34t-31 -122h-117q4 131 27 176q53 111 215 111t208 -129q17 -43 19 -158h-115q-8 88 -34 122t-86 34zM674 449v565q0 170 -43 242t-145 73q-102 0 -144 -73q-43 -73 -43 -242v-565q0 -170 43 -243t144 -73t145 73q43 73 43 243zM111 430v602
q0 236 89 344q88 108 286 107t287 -107t89 -344v-602q0 -238 -89 -344t-287 -106t-286 107t-89 343z" />
    <glyph glyph-name="uni020F" unicode="&#x20f;" horiz-adv-x="827" 
d="M413 1356q-60 0 -86 -34t-32 -122h-117q4 131 27 176q53 111 215 111t209 -129q16 -43 18 -158h-115q-8 88 -33 122q-26 34 -86 34zM551 371v301q0 131 -31 184q-30 53 -106 53t-107 -53t-31 -184v-301q0 -133 31 -187t107 -55q76 1 106 55t31 187zM96 385v270
q0 215 74 309t244 95q170 0 244 -94t73 -310v-270q0 -215 -75 -310q-74 -95 -242 -95t-243 95t-75 310z" />
    <glyph glyph-name="uni0210" unicode="&#x210;" horiz-adv-x="935" 
d="M360 1612h-122l-152 295h184zM596 1612h-125l-152 295h185zM322 778h112q70 0 107 14t63 52q49 66 49 205t-51 199t-162 61h-118v-531zM326 631v-631h-189v1462h309q119 0 190 -24q206 -68 206 -387q0 -175 -46 -267t-155 -135l229 -649h-206l-205 631h-133z" />
    <glyph glyph-name="uni0211" unicode="&#x211;" horiz-adv-x="583" 
d="M279 1190h-123l-152 295h184zM514 1190h-125l-151 295h184zM113 0v1040h139l20 -86q59 104 170 105q78 0 152 -58l-82 -149q-51 53 -100 53q-63 0 -91 -93t-28 -306v-506h-180z" />
    <glyph glyph-name="uni0212" unicode="&#x212;" horiz-adv-x="935" 
d="M427 1778q-60 0 -86 -34t-32 -122h-116q4 131 26 176q53 111 215 111t209 -129q17 -43 19 -158h-115q-8 88 -34 122t-86 34zM322 778h112q70 0 107 14t63 52q49 66 49 205t-51 199t-162 61h-118v-531zM326 631v-631h-189v1462h309q119 0 190 -24q206 -68 206 -387
q0 -175 -46 -267t-155 -135l229 -649h-206l-205 631h-133z" />
    <glyph glyph-name="uni0213" unicode="&#x213;" horiz-adv-x="583" 
d="M318 1356q-60 0 -86 -34t-31 -122h-117q4 131 27 176q53 111 215 111t209 -129q16 -43 18 -158h-115q-8 88 -34 122t-86 34zM111 0v1040h137l24 -86q31 57 70 81q40 24 108 24t142 -58l-82 -149q-51 53 -100 53q-64 0 -92 -93t-27 -306v-506h-180z" />
    <glyph glyph-name="uni0214" unicode="&#x214;" horiz-adv-x="993" 
d="M459 1612h-123l-152 295h185zM694 1612h-125l-151 295h184zM131 1462h188v-1044q0 -141 27 -195q41 -88 146 -88q68 0 104 24t58 78q21 54 22 181v1044h188v-1044q0 -123 -13 -189t-48 -116q-94 -131 -313 -131t-310 151q-49 84 -49 285v1044z" />
    <glyph glyph-name="uni0215" unicode="&#x215;" horiz-adv-x="819" 
d="M365 1190h-123l-152 295h184zM600 1190h-125l-151 295h184zM100 1040h181v-651q0 -141 25 -198q26 -56 92 -56t96 66q29 66 28 223v616h180v-1040h-135l-14 86q-47 -63 -88 -85t-111 -21q-172 0 -229 155q-25 74 -25 232v673z" />
    <glyph glyph-name="uni0216" unicode="&#x216;" horiz-adv-x="993" 
d="M497 1778q-60 0 -86 -34t-32 -122h-117q4 131 27 176q53 111 215 111t209 -129q16 -43 18 -158h-115q-8 88 -33 122q-26 34 -86 34zM131 1462h188v-1044q0 -141 27 -195q41 -88 146 -88q68 0 104 24t58 78q21 54 22 181v1044h188v-1044q0 -123 -13 -189t-48 -116
q-94 -131 -313 -131t-310 151q-49 84 -49 285v1044z" />
    <glyph glyph-name="uni0217" unicode="&#x217;" horiz-adv-x="819" 
d="M409 1356q-60 0 -86 -34t-32 -122h-117q4 131 27 176q53 111 215 111t209 -129q16 -43 18 -158h-115q-8 88 -33 122q-26 34 -86 34zM104 1040h181v-651q0 -141 25 -198q26 -56 94 -56t96 66q29 66 28 223v616h181v-1040h-136l-14 86q-47 -63 -88 -85t-113 -21
q-172 0 -229 155q-25 72 -25 232v673z" />
    <glyph glyph-name="Scommaaccent" unicode="&#x218;" horiz-adv-x="851" 
d="M266 -459l70 318h176l-125 -318h-121zM414 133q96 -1 139 63t43 196t-49 188q-23 29 -51 43t-123 49q-155 55 -223 150q-68 94 -68 272t85 281t243 104q217 0 299 -185q37 -80 36 -229h-172q-4 141 -39 201q-36 59 -118 59q-154 0 -154 -238q0 -104 45 -162
q45 -57 153 -99t144 -60q172 -84 172 -358q0 -428 -356 -428q-238 0 -322 182q-37 84 -39 260h172q2 -154 45 -222q42 -68 138 -67z" />
    <glyph glyph-name="scommaaccent" unicode="&#x219;" horiz-adv-x="739" 
d="M217 -459l70 318h176l-125 -318h-121zM219 332q0 -94 19 -129q33 -74 133 -74q147 0 147 162q0 82 -45 117q-25 18 -153 57t-175 92q-67 72 -67 213t72 215t208 74q199 0 265 -141q29 -61 30 -187h-166q-1 178 -121 178t-120 -143q0 -92 63 -133q31 -19 156 -55t173 -100
t48 -189q0 -182 -104 -252q-86 -57 -215 -57q-217 0 -289 161q-25 58 -27 191h168z" />
    <glyph glyph-name="uni021A" unicode="&#x21a;" horiz-adv-x="737" 
d="M213 -459l70 318h176l-125 -318h-121zM274 0v1307h-254v155h697v-155h-254v-1307h-189z" />
    <glyph glyph-name="uni021B" unicode="&#x21b;" horiz-adv-x="514" 
d="M143 -459l70 318h176l-125 -318h-121zM137 893h-92v147h92l10 320h170v-320h144v-147h-144v-580q-2 -94 22 -129t87 -32h37v-152h-53q-170 0 -223 62q-52 62 -50 268v563z" />
    <glyph glyph-name="uni0226" unicode="&#x226;" horiz-adv-x="882" 
d="M354 1626v221h174v-221h-174zM598 467l-156 731l-153 -731h309zM631 315h-377l-68 -315h-202l381 1462h157l379 -1462h-203z" />
    <glyph glyph-name="uni0227" unicode="&#x227;" horiz-adv-x="794" 
d="M311 1204v221h174v-221h-174zM510 477h-100q-92 0 -131 -43t-39 -139t30 -132t108 -36q76 0 104 40t28 144v166zM510 612v62q0 131 -28 183t-96 52t-98 -43q-28 -43 -28 -141h-168q0 152 45 221q72 113 241 113q168 0 240 -93t72 -304v-662h-141l-10 55q-35 -41 -80 -58
t-121 -17q-150 0 -214 72t-65 242q0 171 70 245t233 73h148z" />
    <glyph glyph-name="uni0237" unicode="&#x237;" horiz-adv-x="417" 
d="M123 1040h180v-1052q6 -260 -70 -360t-278 -99v152q94 -5 132 61t36 227v1071z" />
    <glyph glyph-name="afii57929" unicode="&#x2bc;" horiz-adv-x="307" 
d="M37 969l47 493h186l-82 -493h-151z" />
    <glyph glyph-name="uni02C0" unicode="&#x2c0;" horiz-adv-x="1024" 
d="M586 1587h-133q0 76 8 104t49 83q18 27 18 51q0 43 -50 43t-109 -29l-37 117q96 33 178 33t129 -40t47 -114q0 -37 -10 -59t-55 -74q-23 -30 -29 -50t-6 -65z" />
    <glyph glyph-name="circumflex" unicode="&#x2c6;" horiz-adv-x="1024" 
d="M512 1364l-82 -164h-172l191 277h126l193 -277h-172z" />
    <glyph glyph-name="caron" unicode="&#x2c7;" horiz-adv-x="1024" 
d="M512 1311l84 164h172l-190 -279h-129l-191 279h172z" />
    <glyph glyph-name="uni02C9" unicode="&#x2c9;" horiz-adv-x="1024" 
d="M297 1262v131h432v-131h-432z" />
    <glyph glyph-name="breve" unicode="&#x2d8;" horiz-adv-x="1024" 
d="M511 1313q60 0 86 34t34 121h114q-2 -131 -26 -176q-49 -110 -213 -110t-211 129q-17 42 -19 157h117q6 -88 32 -122t86 -33z" />
    <glyph glyph-name="dotaccent" unicode="&#x2d9;" horiz-adv-x="1024" 
d="M424 1204v221h174v-221h-174z" />
    <glyph glyph-name="ring" unicode="&#x2da;" horiz-adv-x="1024" 
d="M602 1384q0 118 -89 119q-89 0 -89 -119t88 -118q90 0 90 118zM513 1595q91 0 147 -58q56 -57 56 -151t-56 -153t-146 -59t-147 59t-58 153q1 94 57 152t147 57z" />
    <glyph glyph-name="ogonek" unicode="&#x2db;" horiz-adv-x="1024" 
d="M563 -211q0 -80 74 -80q37 0 86 17l20 -99q-72 -29 -149 -28q-193 0 -193 147q0 70 36 126t124 128h137l-55 -55q-80 -76 -80 -156z" />
    <glyph glyph-name="tilde" unicode="&#x2dc;" horiz-adv-x="1024" 
d="M369 1219h-109q29 242 162 241q64 0 114 -63t68 -64q39 0 51 113h109q-10 -129 -47 -185q-37 -57 -110 -57t-118 64t-63 63q-43 1 -57 -112z" />
    <glyph glyph-name="hungarumlaut" unicode="&#x2dd;" horiz-adv-x="1024" 
d="M551 1190l92 295h184l-151 -295h-125zM317 1190l93 295h182l-150 -295h-125z" />
    <glyph glyph-name="uni0309" unicode="&#x309;" horiz-adv-x="1024" 
d="M586 1178h-133q0 76 8 104t49 82q18 29 18 51q0 43 -48 43t-111 -28l-37 116q98 33 179 33t128 -40t47 -116q0 -35 -10 -57t-44 -64q-34 -41 -40 -60t-6 -64z" />
    <glyph glyph-name="uni0312" unicode="&#x312;" horiz-adv-x="1024" 
d="M414 1190l184 295h133l-115 -295h-202z" />
    <glyph glyph-name="uni0313" unicode="&#x313;" horiz-adv-x="153" 
d="M-23 997l46 484h172l-93 -484h-125z" />
    <glyph glyph-name="uni031B" unicode="&#x31b;" horiz-adv-x="153" 
d="M-23 997l46 484h172l-93 -484h-125z" />
    <glyph glyph-name="uni0323" unicode="&#x323;" horiz-adv-x="1024" 
d="M424 -403v221h174v-221h-174z" />
    <glyph glyph-name="uni037E" unicode="&#x37e;" horiz-adv-x="411" 
d="M131 819v215h188v-215h-188zM57 -385l68 596h199l-105 -596h-162z" />
    <glyph glyph-name="uni0387" unicode="&#x387;" horiz-adv-x="413" 
d="M113 635v213h188v-213h-188z" />
    <glyph glyph-name="uni04D4" unicode="&#x4d4;" horiz-adv-x="1372" 
d="M674 487v820h-23l-317 -820h340zM674 334h-400l-129 -334h-217l623 1462h747v-155h-440v-490h373v-155h-373v-506h447v-156h-631v334z" />
    <glyph glyph-name="uni04D5" unicode="&#x4d5;" horiz-adv-x="1228" 
d="M690 618h279v66q0 125 -33 176t-109 51q-77 0 -107 -51t-30 -176v-66zM510 481h-100q-92 0 -131 -43t-39 -140t30 -134t108 -37q76 0 104 40t28 146v168zM260 725h-168q2 156 45 221q70 113 240 113q84 0 133 -24t94 -83q82 106 239 106t227 -98q70 -100 71 -327v-150
h-451v-114q0 -131 31 -185t105 -55q74 0 106 47q33 47 33 150h168q-2 -150 -41 -224q-70 -122 -243 -122t-249 110q-88 -110 -251 -110t-226 72t-63 245q0 172 69 246q70 74 233 73h148v58q0 131 -28 183t-96 52t-98 -43q-28 -43 -28 -141z" />
    <glyph glyph-name="uni1E02" unicode="&#x1e02;" horiz-adv-x="954" 
d="M356 1626v221h174v-221h-174zM324 154h147q111 0 156 60t45 202t-54 209q-41 49 -126 49h-168v-520zM324 827h151q178 0 178 238q0 131 -45 187t-147 57h-137v-482zM135 0v1462h330q115 0 178 -19t109 -69q90 -102 90 -295q0 -240 -135 -315q154 -94 153 -371
q0 -211 -98 -315q-72 -78 -250 -78h-377z" />
    <glyph glyph-name="uni1E03" unicode="&#x1e03;" horiz-adv-x="835" 
d="M444 1204v221h174v-221h-174zM557 385v295q0 225 -127 225q-139 0 -139 -297v-176q0 -297 139 -297q127 0 127 250zM111 0v1462h180v-479q41 43 80 59t100 17q137 0 202 -94t64 -295v-264q0 -223 -65 -325q-66 -101 -198 -101t-212 94l-12 -74h-139z" />
    <glyph glyph-name="uni1E0C" unicode="&#x1e0c;" horiz-adv-x="974" 
d="M356 -403v221h174v-221h-174zM324 154h141q119 0 164 66t47 235v553q-2 170 -47 236t-164 65h-141v-1155zM135 0v1462h326q211 4 309 -97t94 -325v-616q2 -224 -94 -326t-309 -98h-326z" />
    <glyph glyph-name="uni1E0D" unicode="&#x1e0d;" horiz-adv-x="835" 
d="M358 -403v221h174v-221h-174zM276 680v-293q0 -252 127 -252q139 0 140 297v176q0 297 -140 297q-127 0 -127 -225zM96 406v264q0 201 65 295t201 94q60 -1 100 -17t81 -59v479h180v-1462h-139l-13 74q-69 -95 -206 -95q-137 1 -203 102t-66 325z" />
    <glyph glyph-name="uni1E1E" unicode="&#x1e1e;" horiz-adv-x="794" 
d="M367 1626v221h174v-221h-174zM135 0v1462h619v-155h-430v-502h360v-156h-360v-649h-189z" />
    <glyph glyph-name="uni1E1F" unicode="&#x1e1f;" horiz-adv-x="505" 
d="M238 1626v221h174v-221h-174zM141 893h-92v147h92v136q-2 170 50 230t198 56h84v-139h-43q-72 2 -90 -26t-18 -132v-125h153v-147h-153v-893h-181v893z" />
    <glyph glyph-name="uni1E24" unicode="&#x1e24;" horiz-adv-x="987" 
d="M406 -403v221h174v-221h-174zM135 0v1462h189v-645h340v645h188v-1462h-188v662h-340v-662h-189z" />
    <glyph glyph-name="uni1E25" unicode="&#x1e25;" horiz-adv-x="839" 
d="M332 -403v221h174v-221h-174zM111 0v1462h180v-469q72 66 180 66q174 0 236 -154q27 -72 26 -231v-674h-180v651q0 141 -28 197q-29 56 -101 57t-102 -65t-31 -224v-616h-180z" />
    <glyph glyph-name="uni1E44" unicode="&#x1e44;" horiz-adv-x="1036" 
d="M451 1626v221h174v-221h-174zM135 0v1462h189l399 -1073v1073h178v-1462h-180l-408 1081v-1081h-178z" />
    <glyph glyph-name="uni1E45" unicode="&#x1e45;" horiz-adv-x="839" 
d="M332 1204v221h174v-221h-174zM111 0v1040h135l14 -86q49 61 92 83t117 22q176 0 238 -154q27 -72 26 -233v-672h-180v651q0 141 -28 197q-29 56 -101 57t-102 -65t-31 -224v-616h-180z" />
    <glyph glyph-name="uni1E5A" unicode="&#x1e5a;" horiz-adv-x="935" 
d="M385 -403v221h174v-221h-174zM322 778h112q70 0 107 14t63 52q49 66 49 205t-51 199t-162 61h-118v-531zM326 631v-631h-189v1462h309q119 0 190 -24q206 -68 206 -387q0 -175 -46 -267t-155 -135l229 -649h-206l-205 631h-133z" />
    <glyph glyph-name="uni1E5B" unicode="&#x1e5b;" horiz-adv-x="583" 
d="M115 -403v221h174v-221h-174zM111 0v1040h137l24 -86q31 57 70 81q40 24 108 24t142 -58l-82 -149q-51 53 -100 53q-64 0 -92 -93t-27 -306v-506h-180z" />
    <glyph glyph-name="uni1E62" unicode="&#x1e62;" horiz-adv-x="851" 
d="M313 -403v221h174v-221h-174zM414 133q96 -1 139 63t43 196t-49 188q-23 29 -51 43t-123 49q-155 55 -223 150q-68 94 -68 272t85 281t243 104q217 0 299 -185q37 -80 36 -229h-172q-4 141 -39 201q-36 59 -118 59q-154 0 -154 -238q0 -104 45 -162q45 -57 153 -99
t144 -60q172 -84 172 -358q0 -428 -356 -428q-238 0 -322 182q-37 84 -39 260h172q2 -154 45 -222q42 -68 138 -67z" />
    <glyph glyph-name="uni1E63" unicode="&#x1e63;" horiz-adv-x="739" 
d="M262 -403v221h174v-221h-174zM219 332q0 -94 19 -129q33 -74 133 -74q147 0 147 162q0 82 -45 117q-25 18 -153 57t-175 92q-67 72 -67 213t72 215t208 74q199 0 265 -141q29 -61 30 -187h-166q-1 178 -121 178t-120 -143q0 -92 63 -133q31 -19 156 -55t173 -100t48 -189
q0 -182 -104 -252q-86 -57 -215 -57q-217 0 -289 161q-25 58 -27 191h168z" />
    <glyph glyph-name="uni1E6C" unicode="&#x1e6c;" horiz-adv-x="737" 
d="M283 -403v221h174v-221h-174zM274 0v1307h-254v155h697v-155h-254v-1307h-189z" />
    <glyph glyph-name="uni1E6D" unicode="&#x1e6d;" horiz-adv-x="514" 
d="M168 -403v221h174v-221h-174zM137 893h-92v147h92l10 320h170v-320h144v-147h-144v-580q-2 -94 22 -129t87 -32h37v-152h-53q-170 0 -223 62q-52 62 -50 268v563z" />
    <glyph glyph-name="Wgrave" unicode="&#x1e80;" horiz-adv-x="1337" 
d="M768 1612h-133l-184 297h202zM279 0l-232 1462h186l142 -1106l221 1106h143l224 -1106l139 1106h186l-231 -1462h-166l-223 1081l-222 -1081h-167z" />
    <glyph glyph-name="wgrave" unicode="&#x1e81;" horiz-adv-x="1128" 
d="M664 1190h-134l-184 295h203zM254 0l-209 1040h182l117 -743l156 743h127l155 -743l119 743h180l-209 -1040h-153l-156 725l-155 -725h-154z" />
    <glyph glyph-name="Wacute" unicode="&#x1e82;" horiz-adv-x="1337" 
d="M569 1612l115 297h203l-185 -297h-133zM279 0l-232 1462h186l142 -1106l221 1106h143l224 -1106l139 1106h186l-231 -1462h-166l-223 1081l-222 -1081h-167z" />
    <glyph glyph-name="wacute" unicode="&#x1e83;" horiz-adv-x="1128" 
d="M465 1190l115 295h202l-184 -295h-133zM254 0l-209 1040h182l117 -743l156 743h127l155 -743l119 743h180l-209 -1040h-153l-156 725l-155 -725h-154z" />
    <glyph glyph-name="Wdieresis" unicode="&#x1e84;" horiz-adv-x="1337" 
d="M739 1628v219h160v-219h-160zM438 1628v219h160v-219h-160zM279 0l-232 1462h186l142 -1106l221 1106h143l224 -1106l139 1106h186l-231 -1462h-166l-223 1081l-222 -1081h-167z" />
    <glyph glyph-name="wdieresis" unicode="&#x1e85;" horiz-adv-x="1128" 
d="M631 1204v221h160v-221h-160zM336 1204v221h160v-221h-160zM254 0l-209 1040h182l117 -743l156 743h127l155 -743l119 743h180l-209 -1040h-153l-156 725l-155 -725h-154z" />
    <glyph glyph-name="uni1E92" unicode="&#x1e92;" horiz-adv-x="772" 
d="M322 -403v221h174v-221h-174zM45 0v100l447 1207h-410v155h616v-100l-448 -1206h467v-156h-672z" />
    <glyph glyph-name="uni1E93" unicode="&#x1e93;" horiz-adv-x="663" 
d="M262 -403v221h174v-221h-174zM41 0v102l344 789h-311v149h518v-102l-346 -788h366v-150h-571z" />
    <glyph glyph-name="uni1EA0" unicode="&#x1ea0;" horiz-adv-x="882" 
d="M354 -403v221h174v-221h-174zM598 467l-156 731l-153 -731h309zM631 315h-377l-68 -315h-202l381 1462h157l379 -1462h-203z" />
    <glyph glyph-name="uni1EA1" unicode="&#x1ea1;" horiz-adv-x="794" 
d="M311 -403v221h174v-221h-174zM510 477h-100q-92 0 -131 -43t-39 -139t30 -132t108 -36q76 0 104 40t28 144v166zM510 612v62q0 131 -28 183t-96 52t-98 -43q-28 -43 -28 -141h-168q0 152 45 221q72 113 241 113q168 0 240 -93t72 -304v-662h-141l-10 55q-35 -41 -80 -58
t-121 -17q-150 0 -214 72t-65 242q0 171 70 245t233 73h148z" />
    <glyph glyph-name="uni1EA2" unicode="&#x1ea2;" horiz-adv-x="882" 
d="M516 1587h-135q2 78 10 105q7 27 37 68t31 65q1 43 -49 43t-113 -29l-35 117q96 33 177 33t129 -40t48 -116q0 -35 -11 -57t-44 -63q-33 -39 -39 -59t-6 -67zM598 467l-156 731l-153 -731h309zM631 315h-377l-68 -315h-202l381 1462h157l379 -1462h-203z" />
    <glyph glyph-name="uni1EA3" unicode="&#x1ea3;" horiz-adv-x="794" 
d="M473 1178h-135q2 78 10 104t49 82q18 29 19 51q0 43 -48 43t-114 -28l-35 116q98 33 179 33t128 -40t47 -116q0 -35 -10 -57t-44 -64q-34 -41 -40 -60t-6 -64zM510 477h-100q-92 0 -131 -43t-39 -139t30 -132t108 -36q76 0 104 40t28 144v166zM510 612v62q0 131 -28 183
t-96 52t-98 -43q-28 -43 -28 -141h-168q0 152 45 221q72 113 241 113q168 0 240 -93t72 -304v-662h-141l-10 55q-35 -41 -80 -58t-121 -17q-150 0 -214 72t-65 242q0 171 70 245t233 73h148z" />
    <glyph glyph-name="uni1EA4" unicode="&#x1ea4;" horiz-adv-x="882" 
d="M440 1675l-90 -114h-164l197 223h117l196 -223h-164zM377 1839l90 236h147l-139 -236h-98zM598 467l-156 731l-153 -731h309zM631 315h-377l-68 -315h-202l381 1462h157l379 -1462h-203z" />
    <glyph glyph-name="uni1EA5" unicode="&#x1ea5;" horiz-adv-x="794" 
d="M408 1253l-93 -114h-161l194 223h117l197 -223h-164zM342 1417l90 234h148l-140 -234h-98zM510 477h-100q-92 0 -131 -43t-39 -139t30 -132t108 -36q76 0 104 40t28 144v166zM510 612v62q0 131 -28 183t-96 52t-98 -43q-28 -43 -28 -141h-168q0 152 45 221
q72 113 241 113q168 0 240 -93t72 -304v-662h-141l-10 55q-35 -41 -80 -58t-121 -17q-150 0 -214 72t-65 242q0 171 70 245t233 73h148z" />
    <glyph glyph-name="uni1EA6" unicode="&#x1ea6;" horiz-adv-x="882" 
d="M440 1675l-90 -114h-164l197 223h117l196 -223h-164zM504 1839h-101l-139 236h148zM598 467l-156 731l-153 -731h309zM631 315h-377l-68 -315h-202l381 1462h157l379 -1462h-203z" />
    <glyph glyph-name="uni1EA7" unicode="&#x1ea7;" horiz-adv-x="794" 
d="M408 1253l-93 -114h-163l196 223h119l195 -223h-164zM469 1417h-98l-140 234h148zM510 477h-100q-92 0 -131 -43t-39 -139t30 -132t108 -36q76 0 104 40t28 144v166zM510 612v62q0 131 -28 183t-96 52t-98 -43q-28 -43 -28 -141h-168q0 152 45 221q72 113 241 113
q168 0 240 -93t72 -304v-662h-141l-10 55q-35 -41 -80 -58t-121 -17q-150 0 -214 72t-65 242q0 171 70 245t233 73h148z" />
    <glyph glyph-name="uni1EA8" unicode="&#x1ea8;" horiz-adv-x="882" 
d="M438 1671l-90 -110h-164l197 211h117l196 -211h-164zM385 1806q0 68 25 107t24 59q0 27 -28 27t-70 -21l-27 84q57 25 117 25t94 -30q35 -30 35 -74t-43 -101q-18 -27 -20 -76h-107zM598 467l-156 731l-153 -731h309zM631 315h-377l-68 -315h-202l381 1462h157l379 -1462
h-203z" />
    <glyph glyph-name="uni1EA9" unicode="&#x1ea9;" horiz-adv-x="794" 
d="M406 1249l-93 -110h-163l196 211h117l196 -211h-163zM367 1577q-20 0 -66 -23l-25 84q52 27 114 27t96 -31t34 -75t-43 -99q-18 -27 -20 -76h-107q2 72 25 107t22 59q0 27 -30 27zM510 477h-100q-92 0 -131 -43t-39 -139t30 -132t108 -36q76 0 104 40t28 144v166z
M510 612v62q0 131 -28 183t-96 52t-98 -43q-28 -43 -28 -141h-168q0 152 45 221q72 113 241 113q168 0 240 -93t72 -304v-662h-141l-10 55q-35 -41 -80 -58t-121 -17q-150 0 -214 72t-65 242q0 171 70 245t233 73h148z" />
    <glyph glyph-name="uni1EAA" unicode="&#x1eaa;" horiz-adv-x="882" 
d="M444 1675l-90 -114h-164l197 223h117l196 -223h-163zM364 2056q56 0 100 -51t60 -51q35 0 43 94h95q-16 -115 -46 -160t-89 -45q-60 0 -101 51q-41 52 -57 52t-32 -27t-22 -68h-94q18 111 52 158q35 47 91 47zM598 467l-156 731l-153 -731h309zM631 315h-377l-68 -315
h-202l381 1462h157l379 -1462h-203z" />
    <glyph glyph-name="uni1EAB" unicode="&#x1eab;" horiz-adv-x="794" 
d="M412 1253l-93 -114h-163l196 223h117l197 -223h-164zM331 1634q56 0 100 -51t58 -51q33 0 46 94h92q-14 -115 -44 -160t-89 -45q-58 -1 -100 51t-58 52t-32 -28t-23 -66h-93q18 112 52 158t91 46zM510 477h-100q-92 0 -131 -43t-39 -139t30 -132t108 -36q76 0 104 40
t28 144v166zM510 612v62q0 131 -28 183t-96 52t-98 -43q-28 -43 -28 -141h-168q0 152 45 221q72 113 241 113q168 0 240 -93t72 -304v-662h-141l-10 55q-35 -41 -80 -58t-121 -17q-150 0 -214 72t-65 242q0 171 70 245t233 73h148z" />
    <glyph glyph-name="uni1EAC" unicode="&#x1eac;" horiz-adv-x="882" 
d="M354 -403v221h174v-221h-174zM440 1786l-82 -164h-172l191 279h127l192 -279h-172zM598 467l-156 731l-153 -731h309zM631 315h-377l-68 -315h-202l381 1462h157l379 -1462h-203z" />
    <glyph glyph-name="uni1EAD" unicode="&#x1ead;" horiz-adv-x="794" 
d="M295 -403v221h174v-221h-174zM406 1364l-82 -164h-172l190 277h129l191 -277h-173zM510 477h-100q-92 0 -131 -43t-39 -139t30 -132t108 -36q76 0 104 40t28 144v166zM510 612v62q0 131 -28 183t-96 52t-98 -43q-28 -43 -28 -141h-168q0 152 45 221q72 113 241 113
q168 0 240 -93t72 -304v-662h-141l-10 55q-35 -41 -80 -58t-121 -17q-150 0 -214 72t-65 242q0 171 70 245t233 73h148z" />
    <glyph glyph-name="uni1EAE" unicode="&#x1eae;" horiz-adv-x="882" 
d="M440 1681q63 0 91 29t38 107h107q-4 -115 -29 -162q-51 -103 -211 -103t-209 119q-14 40 -20 146h106q8 -76 36 -106t91 -30zM377 1839l90 236h147l-139 -236h-98zM598 467l-156 731l-153 -731h309zM631 315h-377l-68 -315h-202l381 1462h157l379 -1462h-203z" />
    <glyph glyph-name="uni1EAF" unicode="&#x1eaf;" horiz-adv-x="794" 
d="M164 1395h106q8 -76 36 -106q28 -29 91 -29t91 30t38 105h107q-4 -115 -29 -162q-53 -103 -212 -103t-208 119q-14 40 -20 146zM334 1417l90 234h147l-139 -234h-98zM510 477h-100q-92 0 -131 -43t-39 -139t30 -132t108 -36q76 0 104 40t28 144v166zM510 612v62
q0 131 -28 183t-96 52t-98 -43q-28 -43 -28 -141h-168q0 152 45 221q72 113 241 113q168 0 240 -93t72 -304v-662h-141l-10 55q-35 -41 -80 -58t-121 -17q-150 0 -214 72t-65 242q0 171 70 245t233 73h148z" />
    <glyph glyph-name="uni1EB0" unicode="&#x1eb0;" horiz-adv-x="882" 
d="M440 1681q63 0 91 29t38 107h107q-4 -115 -29 -162q-51 -103 -211 -103t-209 119q-14 40 -20 146h106q8 -76 36 -106t91 -30zM512 1839h-98l-140 236h148zM598 467l-156 731l-153 -731h309zM631 315h-377l-68 -315h-202l381 1462h157l379 -1462h-203z" />
    <glyph glyph-name="uni1EB1" unicode="&#x1eb1;" horiz-adv-x="794" 
d="M164 1395h106q8 -76 36 -106q28 -29 91 -29t91 30t38 105h107q-4 -115 -29 -162q-53 -103 -212 -103t-208 119q-14 40 -20 146zM469 1417h-98l-140 234h148zM510 477h-100q-92 0 -131 -43t-39 -139t30 -132t108 -36q76 0 104 40t28 144v166zM510 612v62q0 131 -28 183
t-96 52t-98 -43q-28 -43 -28 -141h-168q0 152 45 221q72 113 241 113q168 0 240 -93t72 -304v-662h-141l-10 55q-35 -41 -80 -58t-121 -17q-150 0 -214 72t-65 242q0 171 70 245t233 73h148z" />
    <glyph glyph-name="uni1EB2" unicode="&#x1eb2;" horiz-adv-x="882" 
d="M442 1677q64 0 93 32t36 108h105q-4 -115 -29 -162q-51 -103 -211 -103t-209 119q-14 40 -20 146h104q10 -78 38 -109q29 -31 93 -31zM492 1790h-107q2 72 26 112t23 62q0 35 -33 35q-23 0 -65 -21l-27 84q61 25 119 25t92 -32q35 -32 35 -78t-41 -99q-22 -37 -22 -88z
M598 467l-156 731l-153 -731h309zM631 315h-377l-68 -315h-202l381 1462h157l379 -1462h-203z" />
    <glyph glyph-name="uni1EB3" unicode="&#x1eb3;" horiz-adv-x="794" 
d="M398 1255q64 0 94 32q29 32 36 108h105q-4 -115 -29 -162q-53 -103 -212 -103t-208 119q-14 40 -20 146h104q10 -78 38 -109t92 -31zM449 1368h-107q0 72 25 111q23 39 22 63q0 35 -33 35q-20 0 -63 -23l-27 84q56 27 116 27t95 -32t35 -78t-41 -99q-22 -37 -22 -88z
M510 477h-100q-92 0 -131 -43t-39 -139t30 -132t108 -36q76 0 104 40t28 144v166zM510 612v62q0 131 -28 183t-96 52t-98 -43q-28 -43 -28 -141h-168q0 152 45 221q72 113 241 113q168 0 240 -93t72 -304v-662h-141l-10 55q-35 -41 -80 -58t-121 -17q-150 0 -214 72t-65 242
q0 171 70 245t233 73h148z" />
    <glyph glyph-name="uni1EB4" unicode="&#x1eb4;" horiz-adv-x="882" 
d="M430 1671q63 0 91 29t36 100h100q-4 -111 -26 -151q-51 -97 -206 -97t-202 111q-14 37 -20 137h102q8 -72 35 -100t90 -29zM516 1972q31 0 43 94h94q-16 -116 -45 -160t-89 -44t-101 51t-58 51q-37 0 -55 -94h-92q30 202 142 204q56 0 100 -51q47 -51 61 -51zM598 467
l-156 731l-153 -731h309zM631 315h-377l-68 -315h-202l381 1462h157l379 -1462h-203z" />
    <glyph glyph-name="uni1EB5" unicode="&#x1eb5;" horiz-adv-x="794" 
d="M388 1249q62 0 90 29t36 100h100q-2 -106 -26 -151q-51 -97 -206 -97t-202 111q-14 39 -20 137h102q6 -70 35 -100t91 -29zM312 1653q56 0 100 -51t61 -52q35 0 43 95h94q-16 -115 -45 -160t-89 -45t-101 51t-58 51q-37 0 -55 -94h-92q18 109 52 157t90 48zM510 477h-100
q-92 0 -131 -43t-39 -139t30 -132t108 -36q76 0 104 40t28 144v166zM510 612v62q0 131 -28 183t-96 52t-98 -43q-28 -43 -28 -141h-168q0 152 45 221q72 113 241 113q168 0 240 -93t72 -304v-662h-141l-10 55q-35 -41 -80 -58t-121 -17q-150 0 -214 72t-65 242q0 171 70 245
t233 73h148z" />
    <glyph glyph-name="uni1EB6" unicode="&#x1eb6;" horiz-adv-x="882" 
d="M354 -403v221h174v-221h-174zM205 1890h117q8 -88 34 -122t85 -34q60 0 86 34t32 122h117q-4 -131 -27 -176q-53 -110 -215 -110t-209 129q-16 40 -20 157zM598 467l-156 731l-153 -731h309zM631 315h-377l-68 -315h-202l381 1462h157l379 -1462h-203z" />
    <glyph glyph-name="uni1EB7" unicode="&#x1eb7;" horiz-adv-x="794" 
d="M311 -403v221h174v-221h-174zM407 1313q60 0 86 34t31 121h117q-4 -131 -27 -176q-52 -110 -214 -110t-210 129q-16 42 -18 157h115q8 -88 34 -122t86 -33zM510 477h-100q-92 0 -131 -43t-39 -139t30 -132t108 -36q76 0 104 40t28 144v166zM510 612v62q0 131 -28 183
t-96 52t-98 -43q-28 -43 -28 -141h-168q0 152 45 221q72 113 241 113q168 0 240 -93t72 -304v-662h-141l-10 55q-35 -41 -80 -58t-121 -17q-150 0 -214 72t-65 242q0 171 70 245t233 73h148z" />
    <glyph glyph-name="uni1EB8" unicode="&#x1eb8;" horiz-adv-x="835" 
d="M381 -403v221h174v-221h-174zM135 0v1462h627v-155h-438v-490h370v-155h-370v-506h442v-156h-631z" />
    <glyph glyph-name="uni1EB9" unicode="&#x1eb9;" horiz-adv-x="813" 
d="M319 -403v221h175v-221h-175zM276 621h275v59q0 127 -32 179q-31 52 -107 52t-106 -52t-30 -179v-59zM276 483v-114q0 -131 31 -185t105 -55q74 0 106 47t31 150h168q-2 -154 -43 -224q-72 -122 -251 -122t-253 100t-74 326v225q0 229 73 328t241 99t242 -98
q74 -100 73 -329v-148h-449z" />
    <glyph glyph-name="uni1EBA" unicode="&#x1eba;" horiz-adv-x="835" 
d="M530 1587h-133q2 78 11 105q8 27 38 68t29 65q0 43 -49 43t-113 -29l-34 117q96 33 178 33t129 -40t47 -114q0 -37 -11 -59q-12 -22 -46 -62t-40 -60t-6 -67zM135 0v1462h627v-155h-438v-490h370v-155h-370v-506h442v-156h-631z" />
    <glyph glyph-name="uni1EBB" unicode="&#x1ebb;" horiz-adv-x="813" 
d="M479 1178h-133q2 78 9 104t37 67q30 42 32 66q0 43 -48 43t-114 -28l-35 116q96 33 170 33q184 0 185 -156q0 -35 -10 -57t-45 -64q-34 -41 -41 -61t-7 -63zM276 621h275v59q0 127 -32 179q-31 52 -107 52t-106 -52t-30 -179v-59zM276 483v-114q0 -131 31 -185t105 -55
q74 0 106 47t31 150h168q-2 -154 -43 -224q-72 -122 -251 -122t-253 100t-74 326v225q0 229 73 328t241 99t242 -98q74 -100 73 -329v-148h-449z" />
    <glyph glyph-name="uni1EBC" unicode="&#x1ebc;" horiz-adv-x="835" 
d="M360 1882q64 0 114 -63t69 -64q39 0 51 113h108q-10 -130 -47 -186t-111 -56t-118 68q-43 59 -61 59q-44 0 -58 -113h-108q31 242 161 242zM135 0v1462h627v-155h-438v-490h370v-155h-370v-506h442v-156h-631z" />
    <glyph glyph-name="uni1EBD" unicode="&#x1ebd;" horiz-adv-x="813" 
d="M262 1219h-108q29 242 161 241q63 0 113 -63t70 -64q39 0 51 113h108q-10 -129 -47 -185q-38 -57 -110 -57t-117 64t-64 63q-43 1 -57 -112zM276 621h275v59q0 127 -32 179q-31 52 -107 52t-106 -52t-30 -179v-59zM276 483v-114q0 -131 31 -185t105 -55q74 0 106 47
t31 150h168q-2 -154 -43 -224q-72 -122 -251 -122t-253 100t-74 326v225q0 229 73 328t241 99t242 -98q74 -100 73 -329v-148h-449z" />
    <glyph glyph-name="uni1EBE" unicode="&#x1ebe;" horiz-adv-x="835" 
d="M442 1675l-92 -114h-164l197 223h117l196 -223h-164zM377 1839l90 236h147l-139 -236h-98zM135 0v1462h627v-155h-438v-490h370v-155h-370v-506h442v-156h-631z" />
    <glyph glyph-name="uni1EBF" unicode="&#x1ebf;" horiz-adv-x="813" 
d="M406 1253l-91 -114h-163l196 223h117l197 -223h-164zM340 1417l92 234h148l-140 -234h-100zM276 621h275v59q0 127 -32 179q-31 52 -107 52t-106 -52t-30 -179v-59zM276 483v-114q0 -131 31 -185t105 -55q74 0 106 47t31 150h168q-2 -154 -43 -224q-72 -122 -251 -122
t-253 100t-74 326v225q0 229 73 328t241 99t242 -98q74 -100 73 -329v-148h-449z" />
    <glyph glyph-name="uni1EC0" unicode="&#x1ec0;" horiz-adv-x="835" 
d="M442 1675l-92 -114h-164l197 223h117l196 -223h-164zM504 1839h-98l-140 236h148zM135 0v1462h627v-155h-438v-490h370v-155h-370v-506h442v-156h-631z" />
    <glyph glyph-name="uni1EC1" unicode="&#x1ec1;" horiz-adv-x="813" 
d="M406 1253l-91 -114h-163l196 223h117l197 -223h-164zM467 1417h-98l-140 234h148zM276 621h275v59q0 127 -32 179q-31 52 -107 52t-106 -52t-30 -179v-59zM276 483v-114q0 -131 31 -185t105 -55q74 0 106 47t31 150h168q-2 -154 -43 -224q-72 -122 -251 -122t-253 100
t-74 326v225q0 229 73 328t241 99t242 -98q74 -100 73 -329v-148h-449z" />
    <glyph glyph-name="uni1EC2" unicode="&#x1ec2;" horiz-adv-x="835" 
d="M440 1671l-92 -110h-164l197 211h117l196 -211h-164zM406 1999q-28 0 -70 -21l-27 84q57 25 117 25t94 -30q35 -30 35 -74t-43 -101q-18 -27 -20 -76h-107q2 74 26 110t23 56q0 27 -28 27zM135 0v1462h627v-155h-438v-490h370v-155h-370v-506h442v-156h-631z" />
    <glyph glyph-name="uni1EC3" unicode="&#x1ec3;" horiz-adv-x="813" 
d="M403 1249l-92 -110h-161l194 211h119l194 -211h-161zM457 1384h-107q0 68 25 107t24 59q1 27 -27 27t-71 -23l-27 84q56 27 116 27t95 -30t35 -74t-43 -101q-20 -31 -20 -76zM276 621h275v59q0 127 -32 179q-31 52 -107 52t-106 -52t-30 -179v-59zM276 483v-114
q0 -131 31 -185t105 -55q74 0 106 47t31 150h168q-2 -154 -43 -224q-72 -122 -251 -122t-253 100t-74 326v225q0 229 73 328t241 99t242 -98q74 -100 73 -329v-148h-449z" />
    <glyph glyph-name="uni1EC4" unicode="&#x1ec4;" horiz-adv-x="835" 
d="M446 1675l-92 -114h-164l197 223h117l196 -223h-163zM364 2056q58 0 101 -51t59 -51q33 0 45 94h93q-14 -115 -44 -160t-91 -45q-60 0 -101 51q-41 52 -57 52t-32 -28t-22 -67h-92q16 111 50 158q33 47 91 47zM135 0v1462h627v-155h-438v-490h370v-155h-370v-506h442
v-156h-631z" />
    <glyph glyph-name="uni1EC5" unicode="&#x1ec5;" horiz-adv-x="813" 
d="M410 1253l-91 -114h-163l194 223h119l197 -223h-164zM329 1634q56 0 100 -51t60 -51q33 0 43 94h93q-12 -113 -43 -159q-30 -46 -90 -46q-60 -1 -101 51t-57 52t-32 -28t-23 -66h-93q20 112 54 158t89 46zM276 621h275v59q0 127 -32 179q-31 52 -107 52t-106 -52
t-30 -179v-59zM276 483v-114q0 -131 31 -185t105 -55q74 0 106 47t31 150h168q-2 -154 -43 -224q-72 -122 -251 -122t-253 100t-74 326v225q0 229 73 328t241 99t242 -98q74 -100 73 -329v-148h-449z" />
    <glyph glyph-name="uni1EC6" unicode="&#x1ec6;" horiz-adv-x="835" 
d="M358 -403v221h174v-221h-174zM438 1786l-84 -164h-170l191 279h127l190 -279h-170zM135 0v1462h627v-155h-438v-490h370v-155h-370v-506h442v-156h-631z" />
    <glyph glyph-name="uni1EC7" unicode="&#x1ec7;" horiz-adv-x="813" 
d="M319 -403v221h175v-221h-175zM418 1364l-84 -164h-172l192 277h127l191 -277h-170zM276 621h275v59q0 127 -32 179q-31 52 -107 52t-106 -52t-30 -179v-59zM276 483v-114q0 -131 31 -185t105 -55q74 0 106 47t31 150h168q-2 -154 -43 -224q-72 -122 -251 -122t-253 100
t-74 326v225q0 229 73 328t241 99t242 -98q74 -100 73 -329v-148h-449z" />
    <glyph glyph-name="uni1EC8" unicode="&#x1ec8;" horiz-adv-x="458" 
d="M303 1587h-133q0 76 8 104t38 69t30 65q0 43 -50 43t-110 -29l-37 117q96 33 178 33t129 -40t47 -114q0 -37 -10 -59t-55 -74q-23 -30 -29 -50t-6 -65zM135 0v1462h189v-1462h-189z" />
    <glyph glyph-name="uni1EC9" unicode="&#x1ec9;" horiz-adv-x="409" 
d="M281 1178h-134q1 76 9 104t49 82q18 29 18 51q0 43 -48 43t-112 -28l-36 116q98 33 179 33t128 -40t47 -116q0 -35 -10 -57q-11 -22 -45 -64q-34 -41 -40 -60t-5 -64zM117 0v1040h180v-1040h-180z" />
    <glyph glyph-name="uni1ECA" unicode="&#x1eca;" horiz-adv-x="458" 
d="M141 -403v221h174v-221h-174zM135 0v1462h189v-1462h-189z" />
    <glyph glyph-name="uni1ECB" unicode="&#x1ecb;" horiz-adv-x="409" 
d="M117 -403v221h174v-221h-174zM115 0v1040h180v-1040h-180zM115 1241v227h180v-227h-180z" />
    <glyph glyph-name="uni1ECC" unicode="&#x1ecc;" horiz-adv-x="974" 
d="M399 -403v221h174v-221h-174zM674 449v565q0 170 -43 242t-145 73q-102 0 -144 -73q-43 -73 -43 -242v-565q0 -170 43 -243t144 -73t145 73q43 73 43 243zM111 430v602q0 236 89 344q88 108 286 107t287 -107t89 -344v-602q0 -238 -89 -344t-287 -106t-286 107t-89 343z
" />
    <glyph glyph-name="uni1ECD" unicode="&#x1ecd;" horiz-adv-x="827" 
d="M326 -403v221h174v-221h-174zM551 371v301q0 131 -31 184q-30 53 -106 53t-107 -53t-31 -184v-301q0 -133 31 -187t107 -55q76 1 106 55t31 187zM96 385v270q0 215 74 309t244 95q170 0 244 -94t73 -310v-270q0 -215 -75 -310q-74 -95 -242 -95t-243 95t-75 310z" />
    <glyph glyph-name="uni1ECE" unicode="&#x1ece;" horiz-adv-x="974" 
d="M561 1587h-133q0 76 8 104t38 70t32 64q0 43 -48 43t-114 -29l-37 117q96 33 178 33t130 -40t49 -114q0 -37 -12 -59t-56 -74q-23 -30 -29 -50t-6 -65zM674 449v565q0 170 -43 242t-145 73q-102 0 -144 -73q-43 -73 -43 -242v-565q0 -170 43 -243t144 -73t145 73
q43 73 43 243zM111 430v602q0 236 89 344q88 108 286 107t287 -107t89 -344v-602q0 -238 -89 -344t-287 -106t-286 107t-89 343z" />
    <glyph glyph-name="uni1ECF" unicode="&#x1ecf;" horiz-adv-x="827" 
d="M487 1178h-133q2 80 10 106t38 67q30 42 30 64q0 43 -49 43t-113 -28l-37 116q97 33 179 33t130 -40t48 -116q0 -35 -10 -57t-46 -64q-36 -41 -41 -60q-6 -19 -6 -64zM551 371v301q0 131 -31 184q-30 53 -106 53t-107 -53t-31 -184v-301q0 -133 31 -187t107 -55
q76 1 106 55t31 187zM96 385v270q0 215 74 309t244 95q170 0 244 -94t73 -310v-270q0 -215 -75 -310q-74 -95 -242 -95t-243 95t-75 310z" />
    <glyph glyph-name="uni1ED0" unicode="&#x1ed0;" horiz-adv-x="974" 
d="M487 1675l-92 -114h-164l197 223h117l196 -223h-163zM422 1839l90 236h147l-139 -236h-98zM674 449v565q0 170 -43 242t-145 73q-102 0 -144 -73q-43 -73 -43 -242v-565q0 -170 43 -243t144 -73t145 73q43 73 43 243zM111 430v602q0 236 89 344q88 108 286 107t287 -107
t89 -344v-602q0 -238 -89 -344t-287 -106t-286 107t-89 343z" />
    <glyph glyph-name="uni1ED1" unicode="&#x1ed1;" horiz-adv-x="827" 
d="M414 1253l-92 -114h-162l194 223h117l197 -223h-164zM348 1417l90 234h148l-140 -234h-98zM551 371v301q0 131 -31 184q-30 53 -106 53t-107 -53t-31 -184v-301q0 -133 31 -187t107 -55q76 1 106 55t31 187zM96 385v270q0 215 74 309t244 95q170 0 244 -94t73 -310v-270
q0 -215 -75 -310q-74 -95 -242 -95t-243 95t-75 310z" />
    <glyph glyph-name="uni1ED2" unicode="&#x1ed2;" horiz-adv-x="974" 
d="M487 1675l-92 -114h-164l197 223h117l196 -223h-163zM549 1839h-98l-140 236h148zM674 449v565q0 170 -43 242t-145 73q-102 0 -144 -73q-43 -73 -43 -242v-565q0 -170 43 -243t144 -73t145 73q43 73 43 243zM111 430v602q0 236 89 344q88 108 286 107t287 -107t89 -344
v-602q0 -238 -89 -344t-287 -106t-286 107t-89 343z" />
    <glyph glyph-name="uni1ED3" unicode="&#x1ed3;" horiz-adv-x="827" 
d="M414 1253l-92 -114h-164l196 223h119l195 -223h-164zM475 1417h-98l-139 234h147zM551 371v301q0 131 -31 184q-30 53 -106 53t-107 -53t-31 -184v-301q0 -133 31 -187t107 -55q76 1 106 55t31 187zM96 385v270q0 215 74 309t244 95q170 0 244 -94t73 -310v-270
q0 -215 -75 -310q-74 -95 -242 -95t-243 95t-75 310z" />
    <glyph glyph-name="uni1ED4" unicode="&#x1ed4;" horiz-adv-x="974" 
d="M483 1671l-90 -110h-164l197 211h117l196 -211h-164zM451 1999q-28 0 -70 -21l-27 84q60 25 118 25t93 -30t35 -74t-43 -101q-18 -31 -20 -76h-107q2 74 26 110t23 56q0 27 -28 27zM674 449v565q0 170 -43 242t-145 73q-102 0 -144 -73q-43 -73 -43 -242v-565
q0 -170 43 -243t144 -73t145 73q43 73 43 243zM111 430v602q0 236 89 344q88 108 286 107t287 -107t89 -344v-602q0 -238 -89 -344t-287 -106t-286 107t-89 343z" />
    <glyph glyph-name="uni1ED5" unicode="&#x1ed5;" horiz-adv-x="827" 
d="M412 1249l-93 -110h-163l196 211h117l197 -211h-164zM406 1550q0 27 -33 27q-20 0 -66 -23l-26 84q55 27 116 27q129 0 129 -113q0 -37 -43 -92q-18 -27 -20 -76h-107q2 72 26 109t24 57zM551 371v301q0 131 -31 184q-30 53 -106 53t-107 -53t-31 -184v-301
q0 -133 31 -187t107 -55q76 1 106 55t31 187zM96 385v270q0 215 74 309t244 95q170 0 244 -94t73 -310v-270q0 -215 -75 -310q-74 -95 -242 -95t-243 95t-75 310z" />
    <glyph glyph-name="uni1ED6" unicode="&#x1ed6;" horiz-adv-x="974" 
d="M492 1675l-93 -114h-163l196 223h117l196 -223h-163zM410 2056q58 0 100 -51q43 -51 59 -51q33 0 45 94h93q-14 -115 -44 -160q-31 -45 -91 -45t-101 51q-41 52 -57 52t-32 -28t-22 -67h-94q18 111 52 158t92 47zM674 449v565q0 170 -43 242t-145 73q-102 0 -144 -73
q-43 -73 -43 -242v-565q0 -170 43 -243t144 -73t145 73q43 73 43 243zM111 430v602q0 236 89 344q88 108 286 107t287 -107t89 -344v-602q0 -238 -89 -344t-287 -106t-286 107t-89 343z" />
    <glyph glyph-name="uni1ED7" unicode="&#x1ed7;" horiz-adv-x="827" 
d="M418 1253l-92 -114h-164l196 223h117l197 -223h-164zM337 1634q56 0 99 -51t60 -51q33 0 45 94h92q-14 -115 -44 -160t-89 -45q-60 -1 -102 51t-58 52t-32 -28t-21 -66h-92q18 112 52 158t90 46zM551 371v301q0 131 -31 184q-30 53 -106 53t-107 -53t-31 -184v-301
q0 -133 31 -187t107 -55q76 1 106 55t31 187zM96 385v270q0 215 74 309t244 95q170 0 244 -94t73 -310v-270q0 -215 -75 -310q-74 -95 -242 -95t-243 95t-75 310z" />
    <glyph glyph-name="uni1ED8" unicode="&#x1ed8;" horiz-adv-x="974" 
d="M399 -403v221h174v-221h-174zM487 1786l-84 -164h-172l191 279h129l190 -279h-172zM674 449v565q0 170 -43 242t-145 73q-102 0 -144 -73q-43 -73 -43 -242v-565q0 -170 43 -243t144 -73t145 73q43 73 43 243zM111 430v602q0 236 89 344q88 108 286 107t287 -107t89 -344
v-602q0 -238 -89 -344t-287 -106t-286 107t-89 343z" />
    <glyph glyph-name="uni1ED9" unicode="&#x1ed9;" horiz-adv-x="827" 
d="M326 -403v221h174v-221h-174zM414 1364l-84 -164h-172l192 277h127l191 -277h-170zM551 371v301q0 131 -31 184q-30 53 -106 53t-107 -53t-31 -184v-301q0 -133 31 -187t107 -55q76 1 106 55t31 187zM96 385v270q0 215 74 309t244 95q170 0 244 -94t73 -310v-270
q0 -215 -75 -310q-74 -95 -242 -95t-243 95t-75 310z" />
    <glyph glyph-name="uni1EDA" unicode="&#x1eda;" horiz-adv-x="1040" 
d="M428 1612l115 297h202l-184 -297h-133zM674 449v565q0 170 -43 242t-145 71q-102 0 -145 -72q-42 -72 -42 -241v-565q0 -170 43 -243t144 -73t145 73q43 73 43 243zM1063 1368q0 -76 -41 -138q-41 -64 -162 -149l2 -22v-629q0 -238 -89 -344t-287 -106t-286 108t-89 342
v602q0 236 89 342t267 106t264 -66q86 -67 119 -214q74 76 74 151t-29 132h156q12 -39 12 -115z" />
    <glyph glyph-name="uni1EDB" unicode="&#x1edb;" horiz-adv-x="897" 
d="M352 1190l115 295h203l-185 -295h-133zM551 371v301q0 131 -31 185q-30 54 -106 54t-107 -54t-31 -185v-301q0 -133 31 -187t107 -55q76 1 106 55t31 187zM731 643v-258q0 -215 -75 -310q-74 -95 -242 -95t-243 95t-75 310v270q0 215 74 309t230 95q156 0 231 -66
q74 -66 94 -213l33 49q27 39 27 104t-25 120h153q12 -47 13 -95q0 -176 -197 -303q2 -6 2 -12z" />
    <glyph glyph-name="uni1EDC" unicode="&#x1edc;" horiz-adv-x="1040" 
d="M590 1612h-135l-183 297h201zM674 449v565q0 170 -43 242t-145 71q-102 0 -145 -72q-42 -72 -42 -241v-565q0 -170 43 -243t144 -73t145 73q43 73 43 243zM1063 1368q0 -76 -41 -138q-41 -64 -162 -149l2 -22v-629q0 -238 -89 -344t-287 -106t-286 108t-89 342v602
q0 236 89 342t267 106t264 -66q86 -67 119 -214q74 76 74 151t-29 132h156q12 -39 12 -115z" />
    <glyph glyph-name="uni1EDD" unicode="&#x1edd;" horiz-adv-x="897" 
d="M518 1190h-133l-184 295h202zM551 371v301q0 131 -31 185q-30 54 -106 54t-107 -54t-31 -185v-301q0 -133 31 -187t107 -55q76 1 106 55t31 187zM731 643v-258q0 -215 -75 -310q-74 -95 -242 -95t-243 95t-75 310v270q0 215 74 309t230 95q156 0 231 -66q74 -66 94 -213
l33 49q27 39 27 104t-25 120h153q12 -47 13 -95q0 -176 -197 -303q2 -6 2 -12z" />
    <glyph glyph-name="uni1EDE" unicode="&#x1ede;" horiz-adv-x="1040" 
d="M567 1587h-133q0 76 8 104t39 70t31 64q0 43 -49 43t-113 -29l-37 117q96 33 178 33q83 0 131 -40t48 -116q0 -35 -12 -57t-45 -64q-34 -40 -40 -60t-6 -65zM674 449v565q0 170 -43 242t-145 71q-102 0 -145 -72q-42 -72 -42 -241v-565q0 -170 43 -243t144 -73t145 73
q43 73 43 243zM1063 1368q0 -76 -41 -138q-41 -64 -162 -149l2 -22v-629q0 -238 -89 -344t-287 -106t-286 108t-89 342v602q0 236 89 342t267 106t264 -66q86 -67 119 -214q74 76 74 151t-29 132h156q12 -39 12 -115z" />
    <glyph glyph-name="uni1EDF" unicode="&#x1edf;" horiz-adv-x="897" 
d="M492 1178h-134q0 76 8 102t40 69q30 42 30 66q0 43 -49 43t-113 -28l-36 116q98 33 179 33t129 -40t48 -116q0 -35 -11 -57t-45 -63q-34 -42 -40 -61t-6 -64zM551 371v301q0 131 -31 185q-30 54 -106 54t-107 -54t-31 -185v-301q0 -133 31 -187t107 -55q76 1 106 55
t31 187zM731 643v-258q0 -215 -75 -310q-74 -95 -242 -95t-243 95t-75 310v270q0 215 74 309t230 95q156 0 231 -66q74 -66 94 -213l33 49q27 39 27 104t-25 120h153q12 -47 13 -95q0 -176 -197 -303q2 -6 2 -12z" />
    <glyph glyph-name="uni1EE0" unicode="&#x1ee0;" horiz-adv-x="1040" 
d="M408 1882q63 0 113 -63t69 -64q39 0 51 113h109q-10 -130 -48 -186t-110 -56t-117 64t-63 63q-44 0 -58 -113h-108q31 242 162 242zM674 449v565q0 170 -43 242t-145 71q-102 0 -145 -72q-42 -72 -42 -241v-565q0 -170 43 -243t144 -73t145 73q43 73 43 243zM1063 1368
q0 -76 -41 -138q-41 -64 -162 -149l2 -22v-629q0 -238 -89 -344t-287 -106t-286 108t-89 342v602q0 236 89 342t267 106t264 -66q86 -67 119 -214q74 76 74 151t-29 132h156q12 -39 12 -115z" />
    <glyph glyph-name="uni1EE1" unicode="&#x1ee1;" horiz-adv-x="897" 
d="M308 1460q66 0 116 -63t68 -64q39 0 51 113h108q-8 -129 -46 -185q-39 -57 -109 -57t-117 64t-66 63q-43 1 -57 -112h-109q15 127 55 184t106 57zM551 371v301q0 131 -31 185q-30 54 -106 54t-107 -54t-31 -185v-301q0 -133 31 -187t107 -55q76 1 106 55t31 187zM731 643
v-258q0 -215 -75 -310q-74 -95 -242 -95t-243 95t-75 310v270q0 215 74 309t230 95q156 0 231 -66q74 -66 94 -213l33 49q27 39 27 104t-25 120h153q12 -47 13 -95q0 -176 -197 -303q2 -6 2 -12z" />
    <glyph glyph-name="uni1EE2" unicode="&#x1ee2;" horiz-adv-x="1040" 
d="M401 -403v221h174v-221h-174zM674 449v565q0 170 -43 242t-145 71q-102 0 -145 -72q-42 -72 -42 -241v-565q0 -170 43 -243t144 -73t145 73q43 73 43 243zM1063 1368q0 -76 -41 -138q-41 -64 -162 -149l2 -22v-629q0 -238 -89 -344t-287 -106t-286 108t-89 342v602
q0 236 89 342t267 106t264 -66q86 -67 119 -214q74 76 74 151t-29 132h156q12 -39 12 -115z" />
    <glyph glyph-name="uni1EE3" unicode="&#x1ee3;" horiz-adv-x="897" 
d="M338 -403v221h174v-221h-174zM551 371v301q0 131 -31 185q-30 54 -106 54t-107 -54t-31 -185v-301q0 -133 31 -187t107 -55q76 1 106 55t31 187zM731 643v-258q0 -215 -75 -310q-74 -95 -242 -95t-243 95t-75 310v270q0 215 74 309t230 95q156 0 231 -66q74 -66 94 -213
l33 49q27 39 27 104t-25 120h153q12 -47 13 -95q0 -176 -197 -303q2 -6 2 -12z" />
    <glyph glyph-name="uni1EE4" unicode="&#x1ee4;" horiz-adv-x="993" 
d="M410 -403v221h174v-221h-174zM131 1462h188v-1044q0 -141 27 -195q41 -88 146 -88q68 0 104 24t58 78q21 54 22 181v1044h188v-1044q0 -123 -13 -189t-48 -116q-94 -131 -313 -131t-310 151q-49 84 -49 285v1044z" />
    <glyph glyph-name="uni1EE5" unicode="&#x1ee5;" horiz-adv-x="819" 
d="M322 -403v221h174v-221h-174zM104 1040h181v-651q0 -141 25 -198q26 -56 94 -56t96 66q29 66 28 223v616h181v-1040h-136l-14 86q-47 -63 -88 -85t-113 -21q-172 0 -229 155q-25 72 -25 232v673z" />
    <glyph glyph-name="uni1EE6" unicode="&#x1ee6;" horiz-adv-x="993" 
d="M571 1587h-133q0 76 8 103t39 70t31 65q0 43 -49 43t-113 -29l-37 117q98 33 179 33q82 0 130 -40t48 -114q0 -37 -11 -59t-45 -63t-41 -61q-6 -20 -6 -65zM131 1462h188v-1044q0 -141 27 -195q41 -88 146 -88q68 0 104 24t58 78q21 54 22 181v1044h188v-1044
q0 -123 -13 -189t-48 -116q-94 -131 -313 -131t-310 151q-49 84 -49 285v1044z" />
    <glyph glyph-name="uni1EE7" unicode="&#x1ee7;" horiz-adv-x="819" 
d="M483 1178h-133q2 80 9 106t38 67q31 42 31 64q0 43 -49 43t-113 -28l-37 116q98 33 179 33q82 0 130 -40t48 -116q0 -35 -10 -57t-46 -64q-35 -41 -41 -60t-6 -64zM104 1040h181v-651q0 -141 25 -198q26 -56 94 -56t96 66q29 66 28 223v616h181v-1040h-136l-14 86
q-47 -63 -88 -85t-113 -21q-172 0 -229 155q-25 72 -25 232v673z" />
    <glyph glyph-name="uni1EE8" unicode="&#x1ee8;" horiz-adv-x="1099" 
d="M444 1612l115 297h203l-184 -297h-134zM131 1462h188v-1044q0 -141 27 -195q41 -88 146 -88q68 0 104 24t58 78q21 54 22 181v1044h188v-307q129 94 129 215q0 61 -24 113h153q12 -41 13 -92q0 -141 -127 -256q-20 -16 -144 -101v-616q0 -123 -13 -189t-48 -116
q-94 -131 -313 -131t-310 151q-49 84 -49 285v1044z" />
    <glyph glyph-name="uni1EE9" unicode="&#x1ee9;" horiz-adv-x="942" 
d="M362 1190l115 295h203l-184 -295h-134zM104 1040h181v-651q0 -141 25 -198q26 -56 94 -56t96 66q29 66 28 223v616h181v-315q69 49 99 99t30 114t-25 115h154q12 -41 12 -90q0 -107 -58 -185t-212 -174v-604h-136l-14 86q-49 -63 -90 -85t-111 -21q-172 0 -229 155
q-25 72 -25 234v671z" />
    <glyph glyph-name="uni1EEA" unicode="&#x1eea;" horiz-adv-x="1099" 
d="M586 1612h-133l-185 297h201zM131 1462h188v-1044q0 -141 27 -195q41 -88 146 -88q68 0 104 24t58 78q21 54 22 181v1044h188v-307q129 94 129 215q0 61 -24 113h153q12 -41 13 -92q0 -141 -127 -256q-20 -16 -144 -101v-616q0 -123 -13 -189t-48 -116
q-94 -131 -313 -131t-310 151q-49 84 -49 285v1044z" />
    <glyph glyph-name="uni1EEB" unicode="&#x1eeb;" horiz-adv-x="942" 
d="M510 1190h-133l-184 295h200zM104 1040h181v-651q0 -141 25 -198q26 -56 94 -56t96 66q29 66 28 223v616h181v-315q69 49 99 99t30 114t-25 115h154q12 -41 12 -90q0 -107 -58 -185t-212 -174v-604h-136l-14 86q-49 -63 -90 -85t-111 -21q-172 0 -229 155q-25 72 -25 234
v671z" />
    <glyph glyph-name="uni1EEC" unicode="&#x1eec;" horiz-adv-x="1099" 
d="M571 1587h-133q0 78 8 105t50 82q18 27 18 51q0 43 -50 43t-110 -29l-37 117q98 33 179 33q80 0 128 -40t48 -114q0 -37 -12 -59t-44 -63q-33 -39 -39 -59t-6 -67zM131 1462h188v-1044q0 -141 27 -195q41 -88 146 -88q68 0 104 24t58 78q21 54 22 181v1044h188v-307
q129 94 129 215q0 61 -24 113h153q12 -41 13 -92q0 -141 -127 -256q-20 -16 -144 -101v-616q0 -123 -13 -189t-48 -116q-94 -131 -313 -131t-310 151q-49 84 -49 285v1044z" />
    <glyph glyph-name="uni1EED" unicode="&#x1eed;" horiz-adv-x="942" 
d="M481 1178h-133q0 76 8 102t39 69q31 42 31 66q0 43 -49 43t-113 -28l-37 116q100 33 172 33q184 0 185 -156q0 -35 -10 -57t-46 -64q-35 -41 -41 -60t-6 -64zM104 1040h181v-651q0 -141 25 -198q26 -56 94 -56t96 66q29 66 28 223v616h181v-315q69 49 99 99t30 114
t-25 115h154q12 -41 12 -90q0 -107 -58 -185t-212 -174v-604h-136l-14 86q-49 -63 -90 -85t-111 -21q-172 0 -229 155q-25 72 -25 234v671z" />
    <glyph glyph-name="uni1EEE" unicode="&#x1eee;" horiz-adv-x="1099" 
d="M402 1882q66 0 117 -63q50 -63 69 -64q39 0 51 113h109q-8 -94 -27 -144q-39 -98 -131 -98q-72 0 -117 64t-65 63q-46 0 -56 -113h-108q16 126 54 184t104 58zM131 1462h188v-1044q0 -141 27 -195q41 -88 146 -88q68 0 104 24t58 78q21 54 22 181v1044h188v-307
q129 94 129 215q0 61 -24 113h153q12 -41 13 -92q0 -141 -127 -256q-20 -16 -144 -101v-616q0 -123 -13 -189t-48 -116q-94 -131 -313 -131t-310 151q-49 84 -49 285v1044z" />
    <glyph glyph-name="uni1EEF" unicode="&#x1eef;" horiz-adv-x="942" 
d="M314 1460q66 0 116 -63t70 -64q39 0 51 113h108q-10 -129 -47 -185q-38 -57 -110 -57t-117 64t-63 63q-48 1 -58 -112h-108q16 127 54 184t104 57zM104 1040h181v-651q0 -141 25 -198q26 -56 94 -56t96 66q29 66 28 223v616h181v-315q69 49 99 99t30 114t-25 115h154
q12 -41 12 -90q0 -107 -58 -185t-212 -174v-604h-136l-14 86q-49 -63 -90 -85t-111 -21q-172 0 -229 155q-25 72 -25 234v671z" />
    <glyph glyph-name="uni1EF0" unicode="&#x1ef0;" horiz-adv-x="1099" 
d="M428 -403v221h174v-221h-174zM131 1462h188v-1044q0 -141 27 -195q41 -88 146 -88q68 0 104 24t58 78q21 54 22 181v1044h188v-307q129 94 129 215q0 61 -24 113h153q12 -41 13 -92q0 -141 -127 -256q-20 -16 -144 -101v-616q0 -123 -13 -189t-48 -116
q-94 -131 -313 -131t-310 151q-49 84 -49 285v1044z" />
    <glyph glyph-name="uni1EF1" unicode="&#x1ef1;" horiz-adv-x="942" 
d="M352 -403v221h174v-221h-174zM104 1040h181v-651q0 -141 25 -198q26 -56 94 -56t96 66q29 66 28 223v616h181v-315q69 49 99 99t30 114t-25 115h154q12 -41 12 -90q0 -107 -58 -185t-212 -174v-604h-136l-14 86q-49 -63 -90 -85t-111 -21q-172 0 -229 155q-25 72 -25 234
v671z" />
    <glyph glyph-name="Ygrave" unicode="&#x1ef2;" horiz-adv-x="800" 
d="M500 1612h-133l-185 297h203zM307 0v526l-325 936h196l223 -704l224 704h198l-327 -936v-526h-189z" />
    <glyph glyph-name="ygrave" unicode="&#x1ef3;" horiz-adv-x="741" 
d="M459 1190h-133l-185 295h203zM283 -8l-254 1048h180l164 -813l151 813h183l-265 -1194q-44 -193 -114 -254t-248 -63v152q88 -3 119 29t59 153z" />
    <glyph glyph-name="uni1EF4" unicode="&#x1ef4;" horiz-adv-x="800" 
d="M313 -403v221h174v-221h-174zM307 0v526l-325 936h196l223 -704l224 704h198l-327 -936v-526h-189z" />
    <glyph glyph-name="uni1EF5" unicode="&#x1ef5;" horiz-adv-x="741" 
d="M516 -403v221h174v-221h-174zM283 -8l-254 1048h180l164 -813l151 813h183l-265 -1194q-44 -193 -114 -254t-248 -63v152q88 -3 119 29t59 153z" />
    <glyph glyph-name="uni1EF6" unicode="&#x1ef6;" horiz-adv-x="800" 
d="M368 1868q-50 0 -112 -29l-35 117q96 33 178 33t129 -40t47 -114q0 -37 -11 -59t-54 -74q-23 -30 -29 -50t-8 -65h-133q2 78 10 104t38 69t30 65q0 43 -50 43zM307 0v526l-325 936h196l223 -704l224 704h198l-327 -936v-526h-189z" />
    <glyph glyph-name="uni1EF7" unicode="&#x1ef7;" horiz-adv-x="741" 
d="M444 1178h-133q0 76 8 104t50 82q20 31 20 51q0 43 -49 43t-113 -28l-37 116q98 33 179 33t129 -40t49 -116q0 -35 -11 -57q-12 -22 -46 -63q-34 -42 -40 -61t-6 -64zM283 -8l-254 1048h180l164 -813l151 813h183l-265 -1194q-44 -193 -114 -254t-248 -63v152
q88 -3 119 29t59 153z" />
    <glyph glyph-name="uni1EF8" unicode="&#x1ef8;" horiz-adv-x="800" 
d="M311 1882q63 0 113 -63t68 -64q41 0 51 113h108q-8 -102 -26 -144q-35 -98 -129 -98q-74 0 -119 64t-64 63q-43 0 -57 -113h-109q31 242 164 242zM307 0v526l-325 936h196l223 -704l224 704h198l-327 -936v-526h-189z" />
    <glyph glyph-name="uni1EF9" unicode="&#x1ef9;" horiz-adv-x="741" 
d="M280 1460q66 0 115 -63t68 -64q39 0 51 113h109q-8 -129 -46 -185q-38 -57 -109 -57t-118 64t-65 63q-44 1 -58 -112h-108q16 127 55 184q40 57 106 57zM283 -8l-254 1048h180l164 -813l151 813h183l-265 -1194q-44 -193 -114 -254t-248 -63v152q88 -3 119 29t59 153z
" />
    <glyph glyph-name="uni2002" unicode="&#x2002;" horiz-adv-x="1024" 
 />
    <glyph glyph-name="uni2003" unicode="&#x2003;" horiz-adv-x="2048" 
 />
    <glyph glyph-name="uni2004" unicode="&#x2004;" horiz-adv-x="681" 
 />
    <glyph glyph-name="uni2005" unicode="&#x2005;" horiz-adv-x="512" 
 />
    <glyph glyph-name="uni2006" unicode="&#x2006;" horiz-adv-x="342" 
 />
    <glyph glyph-name="uni2007" unicode="&#x2007;" 
 />
    <glyph glyph-name="uni2008" unicode="&#x2008;" horiz-adv-x="0" 
 />
    <glyph glyph-name="uni2009" unicode="&#x2009;" horiz-adv-x="409" 
 />
    <glyph glyph-name="uni200A" unicode="&#x200a;" horiz-adv-x="256" 
 />
    <glyph glyph-name="uni2011" unicode="&#x2011;" horiz-adv-x="653" 
d="M111 664v155h432v-155h-432z" />
    <glyph glyph-name="figuredash" unicode="&#x2012;" 
d="M119 664v155h624v-155h-624z" />
    <glyph glyph-name="endash" unicode="&#x2013;" 
d="M119 664v155h624v-155h-624z" />
    <glyph glyph-name="emdash" unicode="&#x2014;" 
d="M41 664v155h776v-155h-776z" />
    <glyph glyph-name="afii00208" unicode="&#x2015;" 
d="M41 664v155h776v-155h-776z" />
    <glyph glyph-name="underscoredbl" unicode="&#x2017;" horiz-adv-x="667" 
d="M-35 -264v104h740v-104h-740zM-35 -444v104h740v-104h-740z" />
    <glyph glyph-name="quoteleft" unicode="&#x2018;" horiz-adv-x="307" 
d="M270 1462l-47 -493h-186l84 493h149z" />
    <glyph glyph-name="quoteright" unicode="&#x2019;" horiz-adv-x="307" 
d="M37 969l47 493h186l-82 -493h-151z" />
    <glyph glyph-name="quotesinglbase" unicode="&#x201a;" horiz-adv-x="307" 
d="M37 -283l47 494h186l-82 -494h-151z" />
    <glyph glyph-name="quotedblleft" unicode="&#x201c;" horiz-adv-x="602" 
d="M270 1462l-47 -493h-186l84 493h149zM565 1462l-47 -493h-186l84 493h149z" />
    <glyph glyph-name="quotedblright" unicode="&#x201d;" horiz-adv-x="602" 
d="M332 969l47 493h186l-82 -493h-151zM37 969l47 493h186l-82 -493h-151z" />
    <glyph glyph-name="quotedblbase" unicode="&#x201e;" horiz-adv-x="602" 
d="M332 -283l47 494h186l-82 -494h-151zM37 -283l47 494h186l-82 -494h-151z" />
    <glyph glyph-name="dagger" unicode="&#x2020;" 
d="M338 858h-250v154h250v450h184v-450h250v-154h-250v-1177h-184v1177z" />
    <glyph glyph-name="daggerdbl" unicode="&#x2021;" 
d="M338 858h-250v154h250v450h184v-450h250v-154h-250v-311h230v-154h-230v-712h-184v712h-232v154h232v311z" />
    <glyph glyph-name="bullet" unicode="&#x2022;" 
d="M431 1069q145 0 245 -95q100 -96 100 -238t-99 -238t-247 -96t-246 96t-98 238t99 238q100 95 246 95z" />
    <glyph glyph-name="ellipsis" unicode="&#x2026;" horiz-adv-x="1243" 
d="M942 0v215h188v-215h-188zM526 0v215h189v-215h-189zM113 0v215h188v-215h-188z" />
    <glyph glyph-name="perthousand" unicode="&#x2030;" horiz-adv-x="1970" 
d="M442 0l320 1462h168l-322 -1462h-166zM1759 266v205q0 90 -20 127q-21 37 -71 37t-70 -37t-21 -127v-205q0 -90 20 -127q21 -37 71 -37t71 37q20 37 20 127zM1415 281v176q1 159 59 227t194 68t194 -69t59 -226v-176q0 -158 -58 -227q-59 -68 -195 -68t-194 68t-59 227z
M1163 266v205q0 90 -20 127q-19 37 -71 37t-72 -37t-21 -127v-205q0 -90 20 -127q19 -37 71 -37t73 37q20 37 20 127zM817 281v176q1 159 59 227t195 68t195 -69t59 -226v-176q0 -158 -58 -227q-57 -68 -195 -68t-196 68t-59 227zM391 995v205q0 90 -20 127q-21 37 -71 37
t-70 -37t-21 -127v-205q0 -90 20 -127q21 -37 71 -37t71 37q20 37 20 127zM47 1010v176q0 158 58 226q59 68 195 69q136 0 194 -69t59 -226v-176q0 -158 -58 -227q-59 -69 -195 -69t-195 69q-58 69 -58 227z" />
    <glyph glyph-name="guilsinglleft" unicode="&#x2039;" horiz-adv-x="385" 
d="M227 604l121 -258l-110 -74l-203 332l203 332l110 -74z" />
    <glyph glyph-name="guilsinglright" unicode="&#x203a;" horiz-adv-x="385" 
d="M156 604l-121 258l110 74l203 -332l-203 -332l-110 74z" />
    <glyph glyph-name="uni203E" unicode="&#x203e;" horiz-adv-x="667" 
d="M-35 1661v129h740v-129h-740z" />
    <glyph glyph-name="fraction" unicode="&#x2044;" horiz-adv-x="258" 
d="M-96 0l321 1462h166l-321 -1462h-166z" />
    <glyph glyph-name="zerosuperior" unicode="&#x2070;" horiz-adv-x="589" 
d="M387 1071v315q0 94 -20 134q-21 40 -71 41q-50 0 -70 -39t-21 -136v-315q0 -96 20 -135q21 -39 71 -39t71 40q20 40 20 134zM57 1071v315q1 156 57 224t183 68t182 -68t56 -224v-315q1 -155 -55 -223t-184 -68t-184 68t-55 223z" />
    <glyph glyph-name="foursuperior" unicode="&#x2074;" horiz-adv-x="589" 
d="M348 791v155h-297v88l217 633h146l-205 -604h139v229h125v-229h66v-117h-66v-155h-125z" />
    <glyph glyph-name="fivesuperior" unicode="&#x2075;" horiz-adv-x="589" 
d="M498 1667v-119h-258l-13 -221q47 18 95 19q106 0 152 -64t46 -217t-53 -219t-180 -66t-183 62t-57 202h133q2 -82 24 -114t75 -33q53 0 75 36t23 128q-1 92 -19 132t-69 40t-90 -55l-111 20l25 469h385z" />
    <glyph glyph-name="sixsuperior" unicode="&#x2076;" horiz-adv-x="589" 
d="M296 1233q-50 0 -70 -39t-21 -135q0 -96 19 -131q20 -35 70 -35t70 36q19 36 19 132t-18 134q-19 38 -69 38zM342 1341q106 0 152 -79q32 -57 32 -203q0 -147 -53 -213t-180 -66t-187 72q-45 59 -45 172t11 155q10 42 51 130l170 358h168l-160 -328q23 2 41 2z" />
    <glyph glyph-name="sevensuperior" unicode="&#x2077;" horiz-adv-x="589" 
d="M63 1548v119h429v-86l-222 -790h-161l233 757h-279z" />
    <glyph glyph-name="eightsuperior" unicode="&#x2078;" horiz-adv-x="589" 
d="M295 1192q-55 0 -75 -32t-21 -117q0 -85 20 -117q21 -32 77 -33q56 0 77 32q20 33 20 117t-21 117q-22 33 -77 33zM383 1436q-1 80 -19 108t-68 29q-50 0 -68 -29q-18 -28 -19 -108q0 -80 18 -109q17 -29 69 -29t70 29q17 29 17 109zM76 1464q0 104 51 160q51 55 170 55
t169 -55q50 -54 50 -160t-14 -146t-53 -63q51 -27 69 -75t18 -166q0 -117 -56 -175q-56 -59 -184 -59t-184 58t-56 176q0 116 18 165t69 76q-39 23 -53 64t-14 145z" />
    <glyph glyph-name="ninesuperior" unicode="&#x2079;" horiz-adv-x="589" 
d="M295 1565q-51 0 -69 -32t-19 -123q0 -91 18 -124q17 -33 69 -33t72 36q19 36 19 124t-19 120q-20 32 -71 32zM252 1145q-106 0 -156 76q-33 53 -33 191q1 138 55 202t178 63q124 0 178 -58t54 -196q0 -86 -9 -125t-52 -127l-176 -380h-170l174 360q-29 -6 -43 -6z" />
    <glyph glyph-name="zeroinferior" unicode="&#x2080;" horiz-adv-x="589" 
d="M387 76v315q0 96 -20 136q-21 40 -71 40t-70 -40t-21 -136v-315q0 -96 20 -135q21 -39 71 -39t71 40q20 40 20 134zM57 76v315q-1 157 55 225t184 68t183 -68t56 -225v-315q1 -156 -55 -224t-184 -67q-128 -1 -184 67t-55 224z" />
    <glyph glyph-name="oneinferior" unicode="&#x2081;" horiz-adv-x="589" 
d="M250 -205v727l-105 -53l-49 92l201 111h100v-877h-147z" />
    <glyph glyph-name="twoinferior" unicode="&#x2082;" horiz-adv-x="589" 
d="M47 -205v99l201 292q106 158 106 268t-78 111q-43 0 -62 -35t-19 -116h-136q0 113 27 166q53 102 199 102q221 0 221 -229q0 -91 -26 -151t-128 -208l-119 -180h269v-119h-455z" />
    <glyph glyph-name="threeinferior" unicode="&#x2083;" horiz-adv-x="589" 
d="M176 203v106h72q110 0 110 128t-86 128q-45 -1 -62 -29t-22 -104h-133q1 134 53 192t173 58q221 0 221 -231q0 -131 -76 -193q92 -62 92 -206t-56 -206t-177 -61q-176 0 -222 125q-16 47 -16 139h133q2 -82 24 -115t75 -32q96 0 96 135q0 166 -119 166h-80z" />
    <glyph glyph-name="fourinferior" unicode="&#x2084;" horiz-adv-x="589" 
d="M348 -205v156h-297v88l217 633h146l-205 -604h139v229h125v-229h66v-117h-66v-156h-125z" />
    <glyph glyph-name="fiveinferior" unicode="&#x2085;" horiz-adv-x="589" 
d="M498 672v-119h-258l-13 -221q47 18 95 18q106 0 152 -63t46 -217t-53 -220t-180 -66t-184 63q-56 62 -56 202h133q2 -82 24 -115q22 -32 75 -32t75 36t23 128q-1 92 -19 132t-69 40t-90 -56l-111 21l25 469h385z" />
    <glyph glyph-name="sixinferior" unicode="&#x2086;" horiz-adv-x="589" 
d="M296 238q-50 0 -70 -39t-21 -135q0 -96 19 -132q20 -34 70 -34t70 35q19 37 19 133t-18 134q-19 38 -69 38zM342 346q106 0 152 -80q32 -56 32 -202t-53 -212t-179 -67q-126 0 -188 72q-45 59 -45 171t11 155q10 42 51 130l170 359h168l-160 -328q20 2 41 2z" />
    <glyph glyph-name="seveninferior" unicode="&#x2087;" horiz-adv-x="589" 
d="M63 553v119h429v-86l-222 -791h-161l233 758h-279z" />
    <glyph glyph-name="eightinferior" unicode="&#x2088;" horiz-adv-x="589" 
d="M295 197q-55 0 -75 -32t-21 -117q0 -85 20 -118q21 -32 77 -32t77 31q20 32 20 117t-21 118q-22 33 -77 33zM296 578q-50 0 -68 -29t-19 -109q0 -80 18 -108q17 -28 69 -29q52 0 70 29q17 28 17 108t-18 109q-19 29 -69 29zM76 469q0 103 51 159t170 56t169 -55t50 -161
t-14 -146t-53 -62q51 -27 69 -76q18 -50 18 -166t-56 -174t-184 -59q-128 0 -184 58t-56 175t18 165t69 77q-39 23 -53 64t-14 145z" />
    <glyph glyph-name="nineinferior" unicode="&#x2089;" horiz-adv-x="589" 
d="M295 571q-51 0 -70 -31q-18 -32 -18 -124t18 -125q17 -33 69 -33t72 36q19 36 19 124t-19 121q-20 32 -71 32zM252 150q-106 0 -156 75q-33 53 -33 193q1 140 55 202q54 64 178 64t178 -59t54 -170t-9 -151t-52 -128l-176 -381h-170l174 361q-29 -6 -43 -6z" />
    <glyph glyph-name="franc" unicode="&#x20a3;" horiz-adv-x="1167" 
d="M715 0v887h133l18 -86q43 63 76 85q32 22 96 22t140 -52l-78 -143q-49 51 -88 51q-66 0 -94 -96t-29 -310v-358h-174zM127 0v1462h567v-155h-383v-502h316v-156h-316v-649h-184z" />
    <glyph glyph-name="lira" unicode="&#x20a4;" 
d="M86 0v133q78 35 127 124t49 198q0 18 -2 53h-184v110h168q-12 61 -41 132h-127v110h84q-43 133 -43 248q0 371 336 371q211 0 290 -164q43 -88 45 -250h-172q-4 139 -39 200q-36 60 -116 60q-156 0 -156 -231q0 -113 55 -234h293v-110h-252q20 -53 31 -132h221v-110h-217
q2 -20 2 -45q0 -178 -100 -307h473v-156h-725z" />
    <glyph glyph-name="peseta" unicode="&#x20a7;" 
d="M336 1067h264q-8 135 -54 193t-138 55h-72v-248zM336 946v-254h70q180 -12 196 254h-266zM156 946h-131v121h131v395h243q185 6 277 -89t102 -306h113v-121h-113q-10 -213 -101 -310t-276 -91h-61v-545h-184v946z" />
    <glyph glyph-name="uni20AB" unicode="&#x20ab;" 
d="M264 680v-293q0 -252 127 -252q139 0 139 297v176q0 297 -139 297q-127 0 -127 -225zM86 406v264q0 203 64 296t202 93q60 1 98 -15t80 -61v191h-208v129h208v159h181v-159h106v-129h-106v-1174h-140l-12 74q-69 -95 -206 -95q-135 1 -201 102t-66 325zM96 -360v129h682
v-129h-682z" />
    <glyph glyph-name="Euro" unicode="&#x20ac;" 
d="M129 625v118h-131l45 123h86v146q0 250 74 350q88 121 262 121q334 0 334 -418h-172q-4 143 -40 203t-118 61q-82 0 -117 -75t-35 -253v-135h402l-43 -123h-359v-118h324l-43 -123h-281q2 -152 13 -221q23 -147 147 -148q84 0 123 55t39 179h172q0 -145 -45 -226
q-88 -162 -295 -161q-121 0 -202 57t-109 159t-31 306h-131l45 123h86z" />
    <glyph glyph-name="uni20B4" unicode="&#x20b4;" 
d="M750 1121q0 -167 -66 -281l127 -45l-31 -105l-176 64q-29 -23 -139 -76q-41 -23 -51 -27l340 -121l-29 -104l-416 145q-47 -71 -47 -199t41 -184t130 -55q89 0 127 44t40 145h172q-2 -156 -53 -226q-88 -117 -291 -116q-346 0 -346 397q0 150 51 252l-102 37l30 104
l146 -51q39 33 105 63t83 41l-309 107l31 104l385 -133q68 80 67 213q0 211 -143 211q-66 0 -98 -40t-33 -128h-174q5 322 311 322q156 1 237 -95t81 -263z" />
    <glyph glyph-name="uni2101" unicode="&#x2101;" horiz-adv-x="1310" 
d="M1124 244q0 59 -23 86q-24 28 -112 60t-129 91t-41 167q1 108 61 174t169 65q154 0 208 -127l-112 -68q-39 78 -98 78q-82 0 -82 -119q-1 -57 25 -90t102 -61t112 -64q66 -59 66 -196q0 -252 -234 -252q-189 0 -250 145l117 68q39 -96 119 -97q102 0 102 140zM395 866
l-96 412l-94 -412h190zM588 676l172 786h147l-321 -1462h-148l129 586h-106l-41 176h-242l-39 -176h-153l254 876h120z" />
    <glyph glyph-name="afii61248" unicode="&#x2105;" horiz-adv-x="1329" 
d="M416 0l321 1462h146l-322 -1462h-145zM1135 295v219q0 188 -113 188t-113 -188v-219q0 -186 113 -186t113 186zM762 289v231q0 158 62 231t198 73t198 -73t62 -231v-231q0 -156 -62 -229q-62 -72 -198 -72t-198 72q-62 73 -62 229zM193 989q0 -229 99 -229q48 0 70 18
t54 70l110 -66q-76 -143 -233 -143q-246 0 -246 342v145q0 348 242 349q152 0 229 -142l-110 -65q-42 86 -104 86t-87 -56t-24 -178v-131z" />
    <glyph glyph-name="afii61289" unicode="&#x2113;" horiz-adv-x="768" 
d="M588 1257q0 100 -53 101q-59 0 -96 -138t-72 -485q221 291 221 522zM33 297q-12 0 -26 22q-13 23 -13 49t62 94q62 66 112 134q51 489 131 694t221 205q82 0 132 -62t50 -165q0 -193 -124 -404q-70 -123 -222 -286q-30 -270 -30 -374t51 -104q29 0 47 20t44 80t56 60
q41 0 41 -51q-1 -86 -69 -167t-160 -81t-134 71t-42 222q0 57 4 172q-100 -129 -131 -129z" />
    <glyph glyph-name="afii61352" unicode="&#x2116;" horiz-adv-x="1667" 
d="M1024 0v143h565v-143h-565zM1413 686v152q1 217 -107 217t-108 -217v-152q0 -217 108 -217t107 217zM1024 678v170q0 182 69 267t214 85t214 -85t68 -267v-170q-1 -182 -69 -268t-213 -86t-214 86t-69 268zM125 0v1462h188l402 -1073v1073h178v-1462h-180l-410 1081
v-1081h-178z" />
    <glyph glyph-name="trademark" unicode="&#x2122;" horiz-adv-x="1253" 
d="M565 586v876h144l161 -516l162 516h144v-876h-136v563l-116 -387h-107l-117 387v-563h-135zM182 586v757h-178v119h498v-119h-172v-757h-148z" />
    <glyph glyph-name="uni2126" unicode="&#x2126;" horiz-adv-x="952" 
d="M84 0v135h184v64q-90 47 -130 152t-38 286v395q0 236 89 344t287 107t287 -107t89 -344v-395q2 -179 -38 -285t-128 -153v-64h182v-135h-329v299q68 29 97 109q30 80 28 235v371q0 170 -43 242t-145 73q-102 0 -144 -73q-43 -73 -43 -242v-371q-3 -155 27 -235t98 -109
v-299h-330z" />
    <glyph glyph-name="estimated" unicode="&#x212e;" horiz-adv-x="854" 
d="M612 768v231q-43 258 -184 258q-66 0 -106 -58t-70 -198v-233h360zM252 651v-268q27 -150 69 -212q43 -62 115 -62t119 60t78 191h129q-29 -150 -74 -221q-98 -159 -265 -159t-262 181t-95 515t101 522t263 188q109 0 192 -84q82 -84 122 -231q40 -146 42 -420h-534z" />
    <glyph glyph-name="onethird" unicode="&#x2153;" horiz-adv-x="1437" 
d="M963 408v106h71q111 0 111 128t-86 128q-45 0 -63 -30t-21 -103h-135q2 109 30 156q55 94 197 94q221 0 221 -232q0 -131 -76 -192q92 -63 92 -207t-56 -204q-56 -62 -177 -62q-176 0 -221 125q-16 43 -16 139h133q1 -82 23 -115t75 -33q96 0 96 136q0 166 -119 166h-79z
M397 0l322 1462h166l-322 -1462h-166zM236 586v719l-111 -56l-55 113l213 100h100v-876h-147z" />
    <glyph glyph-name="twothirds" unicode="&#x2154;" horiz-adv-x="1437" 
d="M475 0l322 1462h166l-322 -1462h-166zM1006 408v106h71q111 0 111 128t-86 128q-46 0 -64 -30t-20 -103h-135q2 109 30 156q55 94 197 94q221 0 221 -232q0 -135 -76 -192q93 -63 93 -207t-56 -204q-56 -62 -178 -62q-176 0 -221 125q-16 47 -16 139h133q2 -82 24 -115
t74 -33q96 0 96 136q0 166 -119 166h-79zM61 586v98l201 293q106 155 106 267t-77 112q-43 0 -63 -35t-19 -117h-135q0 113 26 166q53 102 199 103q221 0 221 -228q0 -92 -26 -152t-127 -208l-119 -180h268v-119h-455z" />
    <glyph glyph-name="uni2155" unicode="&#x2155;" horiz-adv-x="1437" 
d="M1284 877v-119h-258l-12 -221q47 18 94 18q106 0 152 -63t45 -217t-53 -220t-181 -65q-180 0 -221 129q-16 43 -16 135h133q3 -80 25 -114t74 -34t74 36t22 128t-19 132t-69 40t-89 -55l-111 21l25 469h385zM406 0l321 1462h166l-322 -1462h-165zM254 586v719l-111 -56
l-55 113l213 100h100v-876h-147z" />
    <glyph glyph-name="uni2156" unicode="&#x2156;" horiz-adv-x="1437" 
d="M481 0l322 1462h166l-322 -1462h-166zM1333 877v-119h-258l-12 -221q45 18 94 18q107 0 153 -63t46 -217t-53 -220t-181 -65q-178 0 -223 129q-16 47 -16 135h133q2 -80 24 -114t75 -34q52 0 75 36q22 36 22 128t-18 132t-70 40t-90 -55l-110 21l24 469h385zM59 586v98
l201 293q106 155 106 267t-77 112q-43 0 -63 -35t-19 -117h-135q0 113 26 166q53 102 199 103q221 0 221 -228q0 -92 -26 -152t-127 -208l-119 -180h268v-119h-455z" />
    <glyph glyph-name="uni2157" unicode="&#x2157;" horiz-adv-x="1437" 
d="M487 0l320 1462h168l-322 -1462h-166zM1339 877v-119h-258l-12 -221q47 18 94 18q107 0 153 -63t46 -217t-53 -220t-181 -65q-178 0 -223 129q-16 47 -16 135h133q2 -80 25 -114t75 -34t74 36q23 36 23 128q-1 92 -19 132t-69 40t-91 -55l-110 21l24 469h385zM190 993
v107h72q111 0 111 128t-86 128q-45 0 -63 -29t-21 -104h-133q0 133 52 191t173 59q221 0 221 -232q0 -131 -76 -192q92 -63 92 -207t-56 -205t-177 -62q-176 0 -221 125q-16 47 -17 140h134q1 -82 23 -115t75 -33q96 0 96 135q0 166 -119 166h-80z" />
    <glyph glyph-name="uni2158" unicode="&#x2158;" horiz-adv-x="1437" 
d="M483 0l322 1462h166l-322 -1462h-166zM1335 877v-119h-258l-12 -221q45 18 94 18q107 0 153 -63t46 -217t-53 -220t-181 -65q-178 0 -223 129q-16 47 -16 135h133q2 -82 24 -115t74 -33q53 0 76 36q22 36 22 128t-18 132t-70 40t-90 -55l-110 21l24 469h385zM356 586v155
h-297v88l217 633h146l-205 -604h139v229h125v-229h66v-117h-66v-155h-125z" />
    <glyph glyph-name="uni2159" unicode="&#x2159;" horiz-adv-x="1437" 
d="M1048 442q-50 0 -70 -39t-22 -135q0 -96 20 -131t69 -35q50 0 70 36q19 36 20 132q-1 96 -19 134t-68 38zM1094 551q106 0 151 -80q33 -57 33 -203t-53 -212t-180 -66t-187 71q-45 59 -45 173t10 155t51 129l170 359h170l-161 -328q23 2 41 2zM412 0l319 1462h168
l-321 -1462h-166zM246 586v719l-111 -56l-55 113l213 100h100v-876h-147z" />
    <glyph glyph-name="uni215A" unicode="&#x215a;" horiz-adv-x="1437" 
d="M483 0l322 1462h166l-322 -1462h-166zM1089 442q-51 0 -71 -40t-20 -135t18 -130q20 -35 71 -35t70 36t19 133t-18 134t-69 37zM1137 551q104 0 149 -80q33 -57 33 -203t-54 -212q-55 -66 -179 -66t-178 62t-54 206q0 88 10 131t54 129l167 359h170l-161 -328q23 2 43 2z
M506 1462v-119h-258l-12 -221q47 18 94 19q106 1 152 -63t46 -218t-53 -220t-180 -65t-183 63t-57 202h133q2 -82 24 -115t75 -33t75 36t23 128q0 92 -18 132q-17 40 -69 40t-91 -55l-111 20l25 469h385z" />
    <glyph glyph-name="oneeighth" unicode="&#x215b;" horiz-adv-x="1437" 
d="M1081 401q-55 1 -75 -31t-20 -117t20 -118t76 -33t77 32t21 117t-22 117t-77 33zM1082 782q-50 0 -68 -28t-18 -109t18 -109t69 -28t69 29q17 29 17 109t-18 108q-19 28 -69 28zM1083 889q119 0 169 -55t50 -161t-14 -146t-53 -62q49 -29 69 -78t19 -165q0 -116 -56 -174
q-57 -58 -185 -58t-184 58t-56 175t18 165q19 48 70 77q-39 25 -53 65q-15 40 -15 144t51 160t170 55zM408 0l321 1462h166l-322 -1462h-165zM246 586v719l-111 -56l-55 113l213 100h100v-876h-147z" />
    <glyph glyph-name="threeeighths" unicode="&#x215c;" horiz-adv-x="1437" 
d="M467 0l321 1462h166l-321 -1462h-166zM1126 401q-55 1 -75 -31q-21 -32 -21 -117t20 -118t76 -33q55 0 76 33q20 33 21 117q0 84 -21 116t-76 33zM1126 782q-49 0 -67 -28q-19 -28 -19 -109t18 -109t68 -28q51 0 69 29q17 29 17 107t-18 109q-19 29 -68 29zM1127 889
q118 0 168 -55q51 -55 51 -160t-14 -146t-52 -63q50 -27 68 -76t18 -165t-55 -176q-55 -58 -185 -58t-184 58q-55 58 -55 174t18 165q19 49 68 78q-37 23 -51 63t-14 146q0 104 50 160q51 56 169 55zM184 993v107h72q111 0 111 128t-86 128q-45 0 -63 -29t-21 -104h-134
q1 133 53 191t173 59q221 0 221 -232q0 -131 -76 -192q92 -63 92 -207t-56 -205t-177 -62q-176 0 -221 125q-16 47 -17 140h133q2 -82 24 -115t75 -33q96 0 96 135q0 166 -119 166h-80z" />
    <glyph glyph-name="fiveeighths" unicode="&#x215d;" horiz-adv-x="1437" 
d="M471 0l322 1462h165l-319 -1462h-168zM1135 401q-55 0 -76 -31q-21 -32 -21 -117t20 -118t76 -33t76 33t21 117q-1 84 -21 116t-75 33zM1135 782q-49 0 -68 -28q-18 -29 -18 -109q0 -81 18 -109q19 -28 69 -28t67 29t17 109t-18 108t-67 28zM1135 889q119 0 169 -55
t50 -187q0 -78 -14 -119t-52 -63q46 -29 66 -78t20 -165t-56 -174t-184 -58t-184 58q-55 58 -55 175t18 165q19 48 68 77q-37 23 -51 63t-14 146q0 104 50 160t169 55zM508 1462v-119h-258l-12 -221q47 18 94 19q106 1 152 -63t46 -218t-53 -220t-180 -65t-183 63t-57 202
h133q2 -82 24 -115t75 -33t76 36t23 128t-19 132q-17 40 -69 40t-91 -55l-111 20l25 469h385z" />
    <glyph glyph-name="seveneighths" unicode="&#x215e;" horiz-adv-x="1437" 
d="M444 0l322 1462h166l-320 -1462h-168zM1108 401q-55 0 -76 -31q-20 -32 -20 -117t20 -118t74 -33t77 33q22 33 21 117q0 84 -20 117q-21 32 -76 32zM1108 782q-49 0 -68 -28q-18 -29 -18 -109q0 -81 18 -109t68 -28t69 29q17 29 17 109t-18 108q-19 28 -68 28zM889 674
q0 104 51 160t169 55q118 0 168 -55t50 -187q0 -78 -14 -119t-51 -63q49 -27 67 -76q19 -49 19 -165t-56 -176q-56 -58 -184 -58q-129 0 -184 58q-56 58 -56 175t19 165q18 48 67 77q-37 23 -51 63q-14 42 -14 146zM115 1343v119h428v-86l-221 -790h-162l233 757h-278z" />
    <glyph glyph-name="arrowleft" unicode="&#x2190;" horiz-adv-x="1638" 
d="M1497 664h-1141l373 -375l-111 -111l-516 531v65l516 531l111 -111l-373 -375h1141v-155z" />
    <glyph glyph-name="arrowup" unicode="&#x2191;" horiz-adv-x="1638" 
d="M713 0v1221l-375 -375l-111 110l531 517h67l531 -517l-111 -110l-373 375v-1221h-159z" />
    <glyph glyph-name="arrowright" unicode="&#x2192;" horiz-adv-x="1638" 
d="M141 664v155h1141l-373 375l111 111l516 -531v-65l-516 -531l-111 111l373 375h-1141z" />
    <glyph glyph-name="arrowdown" unicode="&#x2193;" horiz-adv-x="1638" 
d="M713 1462h159v-1220l373 374l111 -110l-531 -516h-67l-531 516l111 110l375 -374v1220z" />
    <glyph glyph-name="arrowboth" unicode="&#x2194;" horiz-adv-x="1638" 
d="M1323 664h-1006l326 -328l-113 -111l-467 484v65l467 483l113 -110l-326 -328h1006l-326 328l111 110l469 -483v-65l-469 -484l-111 111z" />
    <glyph glyph-name="arrowupdn" unicode="&#x2195;" horiz-adv-x="1638" 
d="M715 211v1040l-328 -327l-111 110l482 467h69l482 -467l-111 -110l-326 327v-1040l326 328l111 -111l-482 -467h-69l-482 467l111 111z" />
    <glyph glyph-name="uni2196" unicode="&#x2196;" horiz-adv-x="1638" 
d="M457 479h-158v735l61 62h738v-156h-531l815 -817l-110 -110l-815 817v-531z" />
    <glyph glyph-name="uni2197" unicode="&#x2197;" horiz-adv-x="1638" 
d="M541 1120v156h737l61 -62v-735h-157v531l-815 -817l-111 110l815 817h-530z" />
    <glyph glyph-name="uni2198" unicode="&#x2198;" horiz-adv-x="1638" 
d="M1182 991h157v-735l-61 -61h-737v155h530l-815 817l111 111l815 -817v530z" />
    <glyph glyph-name="uni2199" unicode="&#x2199;" horiz-adv-x="1638" 
d="M1098 350v-155h-738l-61 61v735h158v-530l815 817l110 -111l-815 -817h531z" />
    <glyph glyph-name="partialdiff" unicode="&#x2202;" 
d="M563 371v272q0 133 -31 191q-32 58 -104 57q-72 0 -102 -57t-31 -191v-272q0 -135 31 -193q32 -58 104 -57q72 -1 102 57t31 193zM121 365v284q0 385 262 385q84 0 133 -49q-80 324 -297 373l23 119q483 -68 495 -848v-264q1 -207 -71 -296t-237 -89t-237 89t-71 296z
" />
    <glyph glyph-name="emptyset" unicode="&#x2205;" 
d="M436 422q104 0 169 90t65 242t-84 258l-203 -584q35 -6 53 -6zM426 1079q-110 0 -174 -89t-64 -251t99 -262l207 592q-33 10 -68 10zM807 752q-1 -203 -105 -326t-274 -123q-51 0 -86 10l-135 -385l-101 37l136 385q-188 121 -189 400q1 204 105 326t274 122
q54 0 103 -14l118 338l99 -37l-119 -344q174 -123 174 -389z" />
    <glyph glyph-name="Delta" unicode="&#x2206;" 
d="M643 152l-211 1046l-211 -1046h422zM891 0h-918l381 1462h158z" />
    <glyph glyph-name="product" unicode="&#x220f;" horiz-adv-x="970" 
d="M133 -424v1886h705v-1886h-181v1727h-344v-1727h-180z" />
    <glyph glyph-name="summation" unicode="&#x2211;" horiz-adv-x="915" 
d="M125 -424v117l287 880l-271 764v125h660v-155h-465l260 -732l-262 -843h487v-156h-696z" />
    <glyph glyph-name="minus" unicode="&#x2212;" 
d="M88 670v143h684v-143h-684z" />
    <glyph glyph-name="uni2215" unicode="&#x2215;" horiz-adv-x="258" 
d="M-96 0l321 1462h166l-321 -1462h-166z" />
    <glyph glyph-name="uni2218" unicode="&#x2218;" 
d="M430 975q-104 0 -174 -68t-70 -171t69 -172q69 -68 173 -68t174 68t70 171q0 102 -69 171t-173 69zM430 1079q150 0 252 -99q102 -98 102 -244t-102 -246t-254 -99q-152 0 -253 99q-101 100 -101 246t103 244t253 99z" />
    <glyph glyph-name="uni2219" unicode="&#x2219;" horiz-adv-x="413" 
d="M113 635v213h188v-213h-188z" />
    <glyph glyph-name="radical" unicode="&#x221a;" 
d="M55 604v152h230l102 -516l262 1550h414v-129h-264l-312 -1661h-184l-149 604h-99z" />
    <glyph glyph-name="infinity" unicode="&#x221e;" horiz-adv-x="1243" 
d="M891 555q61 0 99 51t38 135q0 83 -38 135t-93 52t-95 -35t-100 -131l-12 -21l15 -22q85 -128 131 -152q23 -12 55 -12zM348 928q-53 0 -91 -52t-38 -134t38 -135q38 -52 98 -52t118 63q16 20 66 101l16 22l-14 21q-57 94 -99 130t-94 36zM328 424q-110 0 -182 85
q-71 85 -70 232q0 147 70 233q71 85 193 85t214 -92q10 -17 70 -111q5 7 26 44q21 38 35 57t47 44q77 57 187 57t181 -84t71 -232t-72 -233q-70 -85 -195 -85t-211 92q-18 25 -69 111l-15 -25q-37 -60 -50 -78t-44 -43q-76 -57 -186 -57z" />
    <glyph glyph-name="integral" unicode="&#x222b;" horiz-adv-x="892" 
d="M379 184v1000q0 221 22 303q37 135 181 135q70 0 137 -23l-33 -141q-35 18 -59 19q-45 -1 -59 -49t-15 -197v-1006q0 -223 -23 -301q-39 -135 -184 -135q-65 1 -133 21l33 141q95 -46 119 31q14 47 14 202z" />
    <glyph glyph-name="similar" unicode="&#x223c;" 
d="M305 885q43 1 65 -11t82 -64t74 -61t37 -10q57 0 90 135l105 -32q-59 -240 -207 -240q-33 0 -57 12t-79 62t-73 60q-18 11 -41 12q-57 -1 -90 -144l-107 27q51 254 201 254z" />
    <glyph glyph-name="uni2243" unicode="&#x2243;" 
d="M301 1040q41 0 66 -13t77 -60t72 -61t43 -13q59 0 90 135l105 -33q-59 -240 -207 -239q-33 0 -55 12t-79 60q-55 48 -75 60t-41 13q-55 0 -90 -141l-107 24q51 256 201 256zM109 526v140h636v-140h-636z" />
    <glyph glyph-name="approxequal" unicode="&#x2248;" 
d="M305 1040q41 0 66 -13t91 -73t101 -61q59 0 90 135l105 -33q-59 -240 -207 -239q-33 0 -55 12t-79 60q-55 48 -75 60t-41 13q-55 0 -90 -141l-107 24q51 256 201 256zM305 729q41 0 65 -12q24 -13 78 -61t74 -60t41 -12q57 0 90 135l105 -33q-33 -123 -82 -181t-125 -59
q-33 0 -57 12t-79 62q-55 48 -73 60t-41 12q-57 0 -90 -141l-107 24q51 254 201 254z" />
    <glyph glyph-name="notequal" unicode="&#x2260;" 
d="M113 526v140h215l53 155h-268v137h317l84 252l137 -49l-65 -203h164v-137h-215l-52 -155h267v-140h-318l-84 -252l-137 50l65 202h-163z" />
    <glyph glyph-name="lessequal" unicode="&#x2264;" 
d="M115 80v143h585v-143h-585zM276 748l424 -254v-166l-604 374v93l604 372v-166z" />
    <glyph glyph-name="greaterequal" unicode="&#x2265;" 
d="M160 80v143h585v-143h-585zM584 748l-424 253v166l604 -372v-93l-604 -374v166z" />
    <glyph glyph-name="dotmath" unicode="&#x22c5;" horiz-adv-x="413" 
d="M113 635v213h188v-213h-188z" />
    <glyph glyph-name="filledrect" unicode="&#x25ac;" 
d="M117 422v625h624v-625h-624z" />
    <glyph glyph-name="uni25B4" unicode="&#x25b4;" 
d="M59 412l371 737l369 -737h-740z" />
    <glyph glyph-name="uni25B8" unicode="&#x25b8;" 
d="M137 365v739l740 -369z" />
    <glyph glyph-name="uni25BE" unicode="&#x25be;" 
d="M59 1059h740l-369 -737z" />
    <glyph glyph-name="uni25C2" unicode="&#x25c2;" 
d="M723 365l-739 370l739 369v-739z" />
    <glyph glyph-name="lozenge" unicode="&#x25ca;" 
d="M197 715l231 -469l234 469l-234 469zM12 715l416 772l418 -772l-418 -772z" />
    <glyph glyph-name="openbullet" unicode="&#x25e6;" 
d="M430 975q-104 0 -174 -68t-70 -171t69 -172q69 -68 173 -68t174 68t70 171q0 102 -69 171t-173 69zM430 1079q150 0 252 -99q102 -98 102 -244t-102 -246t-254 -99q-152 0 -253 99q-101 100 -101 246t103 244t253 99z" />
    <glyph glyph-name="commaaccent" unicode="&#xf6c3;" horiz-adv-x="1024" 
d="M395 -459l70 318h176l-125 -318h-121z" />
    <glyph glyph-name="Acute" unicode="&#xf6c9;" horiz-adv-x="1024" 
d="M414 1612l114 297h203l-184 -297h-133z" />
    <glyph glyph-name="Caron" unicode="&#xf6ca;" horiz-adv-x="1024" 
d="M512 1733l84 163h172l-190 -278h-129l-191 278h172z" />
    <glyph glyph-name="Dieresis" unicode="&#xf6cb;" horiz-adv-x="1024" 
d="M584 1628v219h159v-219h-159zM283 1628v219h159v-219h-159z" />
    <glyph glyph-name="Grave" unicode="&#xf6ce;" horiz-adv-x="1024" 
d="M612 1612h-133l-184 297h203z" />
    <glyph glyph-name="Hungarumlaut" unicode="&#xf6cf;" horiz-adv-x="1024" 
d="M551 1612l92 295h184l-151 -295h-125zM317 1612l93 295h182l-150 -295h-125z" />
    <glyph glyph-name="Macron" unicode="&#xf6d0;" horiz-adv-x="1024" 
d="M297 1683v132h432v-132h-432z" />
    <glyph glyph-name="zerooldstyle" unicode="&#xf730;" horiz-adv-x="874" 
d="M588 430v248q0 164 -34 230t-117 65q-83 0 -117 -66t-33 -227v-252q0 -164 34 -230q35 -66 117 -65t116 67t34 230zM102 406v294q0 222 81 324t254 102t254 -102t81 -322v-299q0 -219 -81 -321t-254 -102t-254 102t-81 324z" />
    <glyph glyph-name="oneoldstyle" unicode="&#xf731;" horiz-adv-x="559" 
d="M213 0v903l-162 -92l-71 141l294 156h127v-1108h-188z" />
    <glyph glyph-name="twooldstyle" unicode="&#xf732;" horiz-adv-x="741" 
d="M27 0v129l303 360q90 109 127 181t37 141q0 162 -136 162q-76 0 -110 -46t-37 -155h-172q4 182 83 268q80 86 236 86t236 -78t80 -210t-42 -214t-188 -251l-188 -221h414v-152h-643z" />
    <glyph glyph-name="threeoldstyle" unicode="&#xf733;" horiz-adv-x="782" 
d="M215 367v149h94q102 0 152 57q49 57 49 179q0 221 -131 221q-117 0 -129 -174h-174q4 163 84 245t228 82t230 -93q80 -93 80 -269q0 -227 -147 -322q178 -90 178 -364q0 -197 -89 -298t-263 -102q-219 0 -291 154q-33 68 -35 191h172q2 -190 146 -191q82 0 127 67t45 193
q1 126 -57 201q-58 74 -162 74h-107z" />
    <glyph glyph-name="fouroldstyle" unicode="&#xf734;" horiz-adv-x="757" 
d="M469 -303v303h-461v117l346 991h193l-332 -954h254v395h172v-395h115v-154h-115v-303h-172z" />
    <glyph glyph-name="fiveoldstyle" unicode="&#xf735;" horiz-adv-x="833" 
d="M694 1108v-156h-387l-24 -420q72 41 153 41q152 0 222 -103q70 -104 71 -332q0 -228 -72 -331q-84 -129 -282 -129q-324 0 -324 345h172q0 -190 144 -191q174 0 174 303q0 155 -35 223t-119 68t-147 -90l-136 29l41 743h549z" />
    <glyph glyph-name="sixoldstyle" unicode="&#xf736;" horiz-adv-x="839" 
d="M428 770q-84 0 -118 -76t-34 -253t34 -245t117 -69q83 0 116 70t32 252q0 182 -28 241q-35 80 -119 80zM487 909q156 0 224 -133q47 -94 47 -287t-18 -273t-60 -132q-92 -104 -262 -104t-260 122q-63 90 -64 326q0 133 18 219q17 86 70 209l248 571h205l-238 -538
q49 20 90 20z" />
    <glyph glyph-name="sevenoldstyle" unicode="&#xf737;" horiz-adv-x="595" 
d="M-31 952v156h588v-113l-307 -1298h-201l320 1255h-400z" />
    <glyph glyph-name="eightoldstyle" unicode="&#xf738;" 
d="M592 402q0 154 -36 216t-126 62t-126 -60t-36 -216t36 -217q36 -60 126 -60t126 60t36 215zM426 1309q-82 0 -117 -74q-18 -47 -18 -180t24 -176q33 -66 118 -66t116 78q18 43 18 175t-24 181q-35 62 -117 62zM436 1448q162 0 242 -102q61 -84 61 -250q1 -166 -23 -231
t-91 -107q85 -41 117 -121t32 -242q0 -227 -78 -313q-88 -102 -274 -102t-272 118q-64 88 -64 274t33 265q33 80 117 121q-66 40 -92 108t-25 203q0 209 78 294q77 85 239 85z" />
    <glyph glyph-name="nineoldstyle" unicode="&#xf739;" horiz-adv-x="839" 
d="M413 338q83 0 117 75t33 252q1 177 -33 245t-122 69q-88 0 -121 -96q-23 -61 -23 -233t29 -232q37 -80 120 -80zM350 199q-154 0 -221 133q-47 88 -47 282t17 276q17 81 61 132q92 104 261 104t261 -120q63 -90 63 -326q0 -137 -17 -222t-73 -208l-245 -565h-207l237 532
l-10 -2l-37 -12q-12 -4 -43 -4z" />
    <glyph glyph-name="Dbreve" horiz-adv-x="974" 
d="M231 1890h117q6 -88 32 -122t86 -34t87 34t33 122h114q-2 -131 -26 -176q-49 -110 -213 -110t-211 129q-17 42 -19 157zM324 154h141q119 0 164 66t47 235v553q-2 170 -47 236t-164 65h-141v-1155zM135 0v1462h326q211 4 309 -97t94 -325v-616q2 -224 -94 -326t-309 -98
h-326z" />
    <glyph glyph-name="ahungarumlaut" horiz-adv-x="794" 
d="M436 1190l92 295h185l-152 -295h-125zM203 1190l92 295h182l-149 -295h-125zM510 477h-100q-92 0 -131 -43t-39 -139t30 -132t108 -36q76 0 104 40t28 144v166zM510 612v62q0 131 -28 183t-96 52t-98 -43q-28 -43 -28 -141h-168q0 152 45 221q72 113 241 113
q168 0 240 -93t72 -304v-662h-141l-10 55q-35 -41 -80 -58t-121 -17q-150 0 -214 72t-65 242q0 171 70 245t233 73h148z" />
    <glyph glyph-name="uni0204.sc" horiz-adv-x="716" 
d="M342 1253h-123l-151 295h184zM578 1253h-125l-152 295h184zM117 0v1110h534v-149h-350v-328h295v-152h-295v-329h354v-152h-538z" />
    <glyph glyph-name="uni0206.sc" horiz-adv-x="716" 
d="M382 1417q-60 0 -86 -34t-32 -121h-117q4 131 27 176q53 110 215 110t209 -129q16 -42 18 -157h-114q-8 88 -34 122t-86 33zM123 0v1110h534v-149h-350v-328h297v-152h-297v-329h355v-152h-539z" />
    <glyph glyph-name="uni0208.sc" horiz-adv-x="425" 
d="M174 1253h-123l-151 295h184zM410 1253h-125l-152 295h184zM121 0v1108h184v-1108h-184z" />
    <glyph glyph-name="uni020A.sc" horiz-adv-x="425" 
d="M214 1417q-60 0 -86 -34t-32 -121h-116q4 131 26 176q53 110 215 110t209 -129q17 -42 19 -157h-115q-8 88 -34 122t-86 33zM121 0v1108h184v-1108h-184z" />
    <glyph glyph-name="uni020C.sc" horiz-adv-x="835" 
d="M358 1253h-122l-152 295h184zM594 1253h-125l-152 295h185zM535 362v383q0 125 -31 177t-107 51q-77 0 -107 -51t-30 -177v-383q0 -125 31 -176t107 -51t106 51q31 51 31 176zM78 348v412q0 196 75 280t245 84t244 -85q75 -85 75 -279v-412q0 -196 -75 -280t-245 -84
q-171 0 -245 84t-74 280z" />
    <glyph glyph-name="uni020E.sc" horiz-adv-x="835" 
d="M415 1417q-60 0 -86 -34t-32 -121h-117q4 131 27 176q53 110 215 110t209 -129q16 -42 18 -157h-114q-8 88 -34 122t-86 33zM555 362v383q0 125 -31 177q-30 52 -106 51q-76 0 -107 -51t-30 -177v-383q1 -125 31 -176t106 -51t106 51t31 176zM98 348v412q0 196 75 280
t245 84t245 -85t74 -279v-412q-1 -196 -75 -280t-244 -84t-245 84t-75 280z" />
    <glyph glyph-name="uni0210.sc" horiz-adv-x="813" 
d="M319 1253h-122l-152 295h184zM555 1253h-125l-151 295h184zM303 604h80q84 0 121 41t37 136t-36 137t-118 43h-84v-357zM307 461v-461h-184v1110h250q188 0 270 -75t82 -245t-72 -237q-47 -43 -90 -61l199 -492h-205l-160 461h-90z" />
    <glyph glyph-name="uni0212.sc" horiz-adv-x="813" 
d="M386 1417q-60 0 -86 -34t-32 -121h-116q4 131 26 176q53 110 215 110t209 -129q17 -42 19 -157h-115q-8 88 -34 122t-86 33zM303 604h80q88 0 123 44t35 136t-36 134t-118 43h-84v-357zM307 459v-459h-184v1110h250q188 0 270 -75t82 -245t-72 -237q-41 -41 -90 -61
l199 -492h-199l-168 459h-88z" />
    <glyph glyph-name="uni0214.sc" horiz-adv-x="858" 
d="M369 1253h-123l-152 295h185zM604 1253h-125l-151 295h184zM96 1108h185v-784q0 -104 27 -147q28 -42 101 -42t101 40t27 149v784h184v-784q0 -98 -11 -148t-44 -90q-80 -102 -264 -102t-263 116q-43 68 -43 224v784z" />
    <glyph glyph-name="uni0216.sc" horiz-adv-x="858" 
d="M429 1417q-60 0 -86 -34t-32 -121h-116q4 131 26 176q53 110 215 110t209 -129q17 -42 19 -157h-115q-8 88 -34 122t-86 33zM117 1108h184v-784q0 -104 28 -146q27 -42 99 -43q72 0 100 40t27 149v784h184v-784q0 -98 -11 -148t-44 -90q-80 -102 -263 -102t-261 116
q-43 68 -43 224v784z" />
    <glyph glyph-name="uni1E24.sc" horiz-adv-x="862" 
d="M344 -403v221h174v-221h-174zM121 0v1108h184v-475h252v475h184v-1108h-184v481h-252v-481h-184z" />
    <glyph glyph-name="uni1E5A.sc" horiz-adv-x="813" 
d="M319 -403v221h175v-221h-175zM303 604h80q88 0 123 44t35 136t-36 134t-118 43h-84v-357zM307 459v-459h-184v1110h250q188 0 270 -75t82 -245t-72 -237q-41 -41 -90 -61l199 -492h-199l-168 459h-88z" />
    <glyph glyph-name="uni1E62.sc" horiz-adv-x="718" 
d="M272 -403v221h174v-221h-174zM348 135q131 0 131 178q0 78 -35 119q-20 20 -42 30t-95 34q-129 42 -184 114t-55 212t70 220t208 80q190 0 258 -147q27 -57 29 -191h-168q-4 102 -29 144t-82 43q-109 0 -108 -158q0 -72 34 -111q34 -38 142 -74t151 -75q84 -72 84 -238
q0 -332 -305 -331q-211 0 -278 157q-25 58 -27 199h170q2 -113 32 -159t99 -46z" />
    <glyph glyph-name="uni1E6C.sc" horiz-adv-x="608" 
d="M217 -403v221h174v-221h-174zM213 0v961h-205v149h594v-149h-205v-961h-184z" />
    <glyph glyph-name="uni1E92.sc" horiz-adv-x="647" 
d="M238 -403v221h174v-221h-174zM33 0v102l352 859h-319v149h524v-100l-350 -858h366v-152h-573z" />
    <glyph glyph-name="uni1E44.sc" horiz-adv-x="892" 
d="M367 1266v221h174v-221h-174zM121 0v1108h180l299 -733v733h172v-1108h-158l-321 762v-762h-172z" />
    <glyph glyph-name="uni1E0C.sc" horiz-adv-x="837" 
d="M297 -403v221h174v-221h-174zM305 147h92q94 0 126 43t32 170v388q0 127 -32 170t-126 43h-92v-814zM121 0v1110h268q193 2 274 -77t76 -265v-428q3 -186 -77 -265t-273 -75h-268z" />
    <glyph glyph-name="uni1E02.sc" horiz-adv-x="821" 
d="M293 1266v221h174v-221h-174zM305 147h105q78 0 112 39t33 130q0 92 -31 134t-98 42h-121v-345zM305 639h109q127 0 127 160q0 86 -33 124t-105 38h-98v-322zM121 0v1110h289q172 0 244 -75t71 -231q0 -156 -92 -229q53 -45 69 -79q37 -78 37 -193q0 -166 -82 -242
q-63 -61 -208 -61h-328z" />
    <glyph glyph-name="idotaccent" horiz-adv-x="409" 
d="M115 0v1040h180v-1040h-180zM115 1241v227h180v-227h-180z" />
    <glyph glyph-name="one.fitted" horiz-adv-x="559" 
d="M213 0v1251l-168 -88l-76 140l305 159h127v-1462h-188z" />
    <glyph glyph-name="two.fitted" horiz-adv-x="768" 
d="M6 0v131l311 502q166 272 166 469q0 119 -31 173q-32 54 -106 54t-108 -61t-39 -203h-174q2 176 51 264q82 154 276 154q158 0 240 -95q82 -94 82 -270t-68 -321q-39 -84 -166 -289l-213 -352h443v-156h-664z" />
    <glyph glyph-name="three.fitted" horiz-adv-x="772" 
d="M221 696v148h101q174 0 174 243t-138 242q-98 0 -127 -112q-12 -45 -14 -138h-174q2 168 49 252q84 152 275 152q157 -1 237 -99t80 -284q0 -242 -137 -328q88 -49 127 -138t39 -239q0 -416 -334 -415q-348 0 -346 428h172q2 -145 40 -210t122 -65q158 0 157 264
q0 141 -50 220t-140 79h-113z" />
    <glyph glyph-name="four.fitted" horiz-adv-x="815" 
d="M479 0v268h-438v115l346 1079h188l-331 -1040h235v395h176v-395h103v-154h-103v-268h-176z" />
    <glyph glyph-name="five.fitted" horiz-adv-x="833" 
d="M702 1462v-155h-393l-20 -443q66 45 157 45q156 0 224 -102t68 -352t-76 -363t-265 -112q-240 0 -319 198q-33 82 -33 230h172q2 -145 41 -210t126 -65t126 73t39 248q0 176 -32 242t-120 66t-151 -90l-135 28l36 762h555z" />
    <glyph glyph-name="six.fitted" horiz-adv-x="839" 
d="M428 770q-84 0 -118 -76t-34 -253t34 -245t117 -69q83 0 116 70t32 252q0 182 -28 241q-35 80 -119 80zM492 909q156 0 219 -133q47 -94 47 -287t-18 -273t-60 -132q-92 -104 -262 -104t-260 122q-63 90 -64 326q0 139 15 211q14 72 73 217l248 606h205l-238 -573
q47 20 95 20z" />
    <glyph glyph-name="seven.fitted" horiz-adv-x="595" 
d="M-31 1307v155h588v-112l-307 -1350h-201l320 1307h-400z" />
    <glyph glyph-name="eight.fitted" 
d="M430 696q-90 0 -126 -62t-36 -222t36 -222t126 -63q90 0 126 62q36 61 36 221t-36 223t-126 63zM571 1092q-1 138 -31 194q-30 57 -114 57t-117 -77q-20 -42 -20 -184t24 -185q37 -68 122 -68t118 82q18 43 18 181zM440 1483q304 -1 303 -363q1 -172 -21 -236
q-22 -65 -87 -110q75 -39 107 -122t32 -246q0 -231 -78 -322q-86 -104 -272 -104t-274 120q-64 90 -64 280t31 272q30 83 106 122q-61 39 -84 108t-22 210q0 219 80 305q81 86 243 86z" />
    <glyph glyph-name="nine.fitted" horiz-adv-x="839" 
d="M563 1050q1 160 -33 222t-122 63q-88 0 -121 -88q-23 -53 -23 -211t29 -213q35 -73 119 -73t118 70t33 230zM82 1004q0 182 17 258t63 122q88 98 260 98t258 -114q66 -82 65 -305q0 -131 -14 -199t-72 -209l-274 -655h-205l266 629q-53 -18 -94 -19q-158 0 -223 125
q-47 88 -47 269z" />
    <glyph glyph-name="zero.fitted" horiz-adv-x="886" 
d="M598 461v540q0 178 -36 253t-120 75t-120 -75t-35 -253v-540q0 -178 36 -253q35 -75 119 -75t120 75t36 253zM102 442v578q0 242 81 352t259 111q178 0 259 -111t81 -352v-578q0 -242 -81 -352t-259 -110t-259 110t-81 352z" />
    <glyph glyph-name="sterling.fitted" horiz-adv-x="835" 
d="M82 0v133q84 37 131 127t47 182t-20 176h-160v156h108q-47 123 -61 188t-14 146q0 371 336 371q215 0 292 -164q43 -90 45 -250h-174q-2 98 -20 160q-35 100 -135 100q-156 0 -156 -233q0 -66 15 -122t69 -196h258v-156h-219q14 -78 14 -133q0 -205 -102 -329h473v-156
h-727z" />
    <glyph glyph-name="dollar.fitted" horiz-adv-x="782" 
d="M561 412q0 175 -96 227q-27 14 -119 47q-147 54 -212 148t-64 253q0 309 239 353v223h185v-231q215 -55 213 -355h-175q-2 119 -35 170q-34 51 -110 51q-141 0 -141 -202q0 -100 43 -158t145 -98q102 -42 137 -60q166 -88 166 -354q0 -350 -243 -401v-297h-185v292
q-143 31 -205 128q-61 98 -59 288h172q2 -145 42 -210t130 -64q172 0 172 250z" />
    <glyph glyph-name="cent.fitted" horiz-adv-x="839" 
d="M350 82v227q-119 23 -174 118t-53 273v263q0 184 53 276t174 119v219h185v-221q113 -25 163 -106t50 -228h-173q0 201 -137 201q-74 1 -104 -57t-31 -191v-287q0 -133 31 -188q32 -56 106 -56t108 50t34 161h172q4 -157 -48 -239t-171 -105v-229h-185z" />
    <glyph glyph-name="Euro.fitted" horiz-adv-x="827" 
d="M123 625v118h-131l45 123h86v146q0 250 74 350q88 121 262 121q334 0 334 -418h-172q-4 143 -40 203t-118 61q-82 0 -117 -75t-35 -253v-135h402l-43 -123h-359v-118h324l-43 -123h-281q2 -152 13 -221q20 -147 147 -148q84 0 123 55t39 179h172q0 -145 -45 -226
q-88 -162 -295 -161q-121 0 -202 57t-109 159t-31 306h-131l45 123h86z" />
    <glyph glyph-name="yen.fitted" horiz-adv-x="831" 
d="M322 0v305h-230v123h230v104h-230v123h189l-289 807h196l228 -714l225 714h199l-291 -807h188v-123h-227v-104h227v-123h-227v-305h-188z" />
    <glyph glyph-name="one.numerator" horiz-adv-x="589" 
d="M236 586v719l-111 -56l-55 113l213 100h100v-876h-147z" />
    <glyph glyph-name="two.numerator" horiz-adv-x="589" 
d="M47 586v98l201 293q106 155 106 267t-78 112q-43 0 -62 -35t-19 -117h-136q0 113 27 166q53 102 199 103q221 0 221 -228q0 -92 -26 -152t-128 -208l-119 -180h269v-119h-455z" />
    <glyph glyph-name="three.numerator" horiz-adv-x="589" 
d="M176 993v107h72q110 0 110 128t-86 128q-45 0 -62 -29t-22 -104h-133q1 133 53 191t173 59q221 0 221 -232q0 -131 -76 -192q92 -63 92 -207t-56 -205t-177 -62q-176 0 -222 125q-16 47 -16 140h133q2 -82 24 -115t75 -33q96 0 96 135q0 166 -119 166h-80z" />
    <glyph glyph-name="four.numerator" horiz-adv-x="589" 
d="M348 586v155h-297v88l217 633h146l-205 -604h139v229h125v-229h66v-117h-66v-155h-125z" />
    <glyph glyph-name="five.numerator" horiz-adv-x="589" 
d="M498 1462v-119h-258l-13 -221q47 18 95 19q106 1 152 -63t46 -218t-53 -220t-180 -65t-183 63t-57 202h133q2 -82 24 -115t75 -33t75 36t23 128q-1 92 -19 132t-69 40t-90 -55l-111 20l25 469h385z" />
    <glyph glyph-name="six.numerator" horiz-adv-x="589" 
d="M296 1028q-50 0 -70 -40t-21 -135q0 -95 19 -130q20 -35 70 -35t70 36q19 36 19 132t-18 134q-19 38 -69 38zM342 1137q106 0 152 -80q32 -57 32 -203t-53 -212t-178 -67q-125 1 -179 63t-54 179t10 160t51 127l170 358h168l-160 -327q23 2 41 2z" />
    <glyph glyph-name="seven.numerator" horiz-adv-x="589" 
d="M70 1343v119h428v-86l-222 -790h-161l233 757h-278z" />
    <glyph glyph-name="eight.numerator" horiz-adv-x="589" 
d="M393 837q1 85 -21 117t-77 33q-55 0 -75 -32q-20 -33 -21 -117q0 -84 20 -117q21 -33 77 -33t77 32q20 32 20 117zM383 1230q-1 80 -19 108t-68 28t-68 -29t-19 -107q0 -78 18 -108q17 -28 69 -28t70 28q17 29 17 108zM76 1258q0 104 51 159t170 55t169 -54
q50 -56 50 -160t-14 -145q-14 -40 -53 -62q51 -27 69 -76t18 -166t-56 -175t-184 -58t-184 58t-56 174t18 166q18 48 69 77q-39 23 -53 63t-14 144z" />
    <glyph glyph-name="nine.numerator" horiz-adv-x="589" 
d="M295 1360q-51 0 -69 -32t-19 -124q0 -92 17 -124q18 -32 70 -32t72 35q19 35 19 124t-19 121q-20 32 -71 32zM252 940q-109 0 -156 76q-33 57 -33 193q1 135 55 199t178 64t178 -58t54 -170t-9 -150q-9 -39 -52 -127l-176 -381h-170l174 360q-29 -6 -43 -6z" />
    <glyph glyph-name="zero.numerator" horiz-adv-x="589" 
d="M387 866v316q0 94 -20 134q-21 40 -71 40t-70 -39t-21 -135v-316q0 -96 20 -135q21 -39 71 -39t71 40q20 40 20 134zM57 866v316q1 156 57 224t183 67q127 0 182 -68t56 -223v-316q1 -156 -55 -224t-184 -67q-128 -1 -184 67t-55 224z" />
    <glyph glyph-name="one.denominator" horiz-adv-x="589" 
d="M236 0v719l-111 -55l-55 112l213 101h100v-877h-147z" />
    <glyph glyph-name="two.denominator" horiz-adv-x="589" 
d="M47 0v98l201 293q106 159 106 269t-78 110q-43 0 -62 -35t-19 -117h-136q0 113 27 166q53 102 199 103q221 0 221 -230q0 -92 -26 -151t-128 -207l-119 -180h269v-119h-455z" />
    <glyph glyph-name="three.denominator" horiz-adv-x="589" 
d="M176 408v106h72q110 0 110 128t-86 128q-45 0 -62 -29t-22 -104h-133q1 133 53 191t173 59q221 0 221 -232q0 -131 -76 -192q92 -63 92 -207t-56 -204q-56 -62 -177 -62q-176 0 -222 125q-16 47 -16 139h133q2 -82 24 -115t75 -33q96 0 96 136q0 166 -119 166h-80z" />
    <glyph glyph-name="four.denominator" horiz-adv-x="589" 
d="M348 0v156h-297v88l217 633h146l-205 -605h139v230h125v-230h66v-116h-66v-156h-125z" />
    <glyph glyph-name="five.denominator" horiz-adv-x="589" 
d="M498 877v-119h-258l-13 -221q47 18 95 18q106 0 152 -63q46 -64 46 -218t-53 -220t-180 -64q-127 0 -184 62q-56 62 -56 202h133q2 -82 24 -115t75 -33t75 36t23 128q-1 92 -19 132t-69 40t-90 -55l-111 21l25 469h385z" />
    <glyph glyph-name="six.denominator" horiz-adv-x="589" 
d="M296 442q-50 0 -70 -39t-21 -135q0 -96 19 -131q20 -35 70 -35t70 36q19 36 19 132t-18 134q-19 38 -69 38zM342 551q106 0 152 -80q32 -57 32 -203t-53 -212t-180 -66t-187 71q-45 59 -45 172t11 155q10 42 51 130l170 359h168l-160 -328q23 2 41 2z" />
    <glyph glyph-name="seven.denominator" horiz-adv-x="589" 
d="M70 758v119h428v-86l-222 -791h-161l233 758h-278z" />
    <glyph glyph-name="eight.denominator" horiz-adv-x="589" 
d="M295 401q-55 0 -76 -31q-20 -32 -20 -117t20 -118q21 -33 77 -33t77 32q20 32 20 117t-21 118q-22 32 -77 32zM296 782q-50 0 -69 -28q-18 -29 -18 -109q0 -81 18 -109q17 -28 69 -28t70 29q17 29 17 109t-18 108q-19 28 -69 28zM76 674q0 104 51 160t170 55
q119 0 169 -55t50 -161t-14 -146t-53 -62q51 -27 69 -76t18 -165t-56 -176q-56 -58 -184 -58t-184 58t-56 175t18 165t69 77q-39 23 -53 63q-14 42 -14 146z" />
    <glyph glyph-name="nine.denominator" horiz-adv-x="589" 
d="M385 623q1 89 -19 121t-71 32t-69 -32t-19 -124q0 -92 18 -124q17 -33 69 -33t72 36q19 36 19 124zM252 354q-106 0 -156 76q-33 53 -33 192q1 138 55 202t178 64t178 -58q54 -60 54 -170t-9 -151q-9 -40 -52 -128l-176 -381h-170l174 360q-29 -6 -43 -6z" />
    <glyph glyph-name="zero.denominator" horiz-adv-x="589" 
d="M387 281v315q0 96 -20 136q-21 40 -71 40t-70 -40t-21 -136v-315q0 -95 20 -135q21 -40 71 -40t71 40q20 41 20 135zM57 281v315q-1 158 55 226t184 67q128 0 183 -68t56 -225v-315q1 -156 -55 -224q-56 -67 -184 -67t-184 68t-55 223z" />
    <glyph glyph-name="oneone" horiz-adv-x="1437" 
d="M1026 0v719l-111 -55l-55 112l211 101h103v-877h-148zM412 0l321 1462h166l-321 -1462h-166zM250 586v719l-111 -56l-55 113l213 100h100v-876h-147z" />
    <glyph glyph-name="Dotaccent" horiz-adv-x="1024" 
d="M424 1626v221h174v-221h-174z" />
    <glyph glyph-name="Ring" horiz-adv-x="1024" 
d="M602 1808q0 120 -89 119q-89 0 -89 -120t88 -119q90 0 90 120zM513 2019q91 0 147 -58q56 -57 56 -151t-56 -154q-58 -60 -148 -60t-146 58q-56 60 -56 155t56 153t147 57z" />
    <glyph glyph-name="Circumflex" horiz-adv-x="1024" 
d="M512 1786l-82 -164h-172l191 279h126l193 -279h-172z" />
    <glyph glyph-name="Breve" horiz-adv-x="1024" 
d="M276 1890h117q6 -88 32 -122t86 -34t87 34t33 122h114q-2 -131 -26 -176q-49 -110 -213 -110t-211 129q-17 42 -19 157z" />
    <glyph glyph-name="Tilde" horiz-adv-x="1024" 
d="M422 1882q64 0 114 -63t68 -64q39 0 51 113h109q-10 -130 -47 -186t-111 -56t-119 68q-43 59 -61 59q-43 0 -57 -113h-109q31 242 162 242z" />
    <glyph glyph-name="Cedilla" horiz-adv-x="1024" 
d="M395 -459l70 318h176l-125 -318h-121z" />
    <glyph glyph-name="Ogonek" horiz-adv-x="1024" 
d="M563 -211q0 -80 74 -80q37 0 86 17l20 -99q-72 -29 -149 -28q-193 0 -193 147q0 70 36 126t124 128h137l-55 -55q-80 -76 -80 -156z" />
    <glyph glyph-name="Commaaccent" horiz-adv-x="1024" 
d="M395 -459l70 318h176l-125 -318h-121z" />
    <glyph glyph-name="Comma.high" horiz-adv-x="210" 
d="M-2 997l45 484h172l-92 -484h-125z" />
    <glyph glyph-name="Croatumlaut" horiz-adv-x="1024" 
d="M473 1612h-123l-151 295h184zM709 1612h-125l-152 295h184z" />
    <glyph glyph-name="Croatbreve" horiz-adv-x="1024" 
d="M513 1778q-60 0 -86 -34t-32 -122h-116q4 131 26 176q53 111 215 111t209 -129q17 -43 19 -158h-115q-8 88 -34 122t-86 34z" />
    <glyph glyph-name="Cicumflexacute" horiz-adv-x="1024" 
d="M700 1729l115 294h186l-184 -294h-117zM512 1786l-82 -164h-172l191 279h126l193 -279h-172z" />
    <glyph glyph-name="Ringacute" horiz-adv-x="1024" 
d="M426 1837l104 250h236l-215 -250h-125zM602 1585q0 119 -89 119t-89 -119t89 -119t89 119zM513 1796q91 0 147 -58t56 -152t-56 -152q-58 -60 -148 -60t-146 60t-56 154q0 96 56 152t147 56z" />
    <glyph glyph-name="croatumlaut" horiz-adv-x="1024" 
d="M473 1190h-123l-151 295h184zM709 1190h-125l-152 295h184z" />
    <glyph glyph-name="croatbreve" horiz-adv-x="1024" 
d="M513 1356q-60 0 -86 -34t-32 -122h-116q4 131 26 176q53 111 215 111t209 -129q17 -43 19 -158h-115q-8 88 -34 122t-86 34z" />
    <glyph glyph-name="cicumflexacute" horiz-adv-x="1024" 
d="M700 1305l115 294h186l-184 -294h-117zM512 1362l-82 -164h-172l191 277h126l193 -277h-172z" />
    <glyph glyph-name="ringacute" horiz-adv-x="1024" 
d="M426 1638l104 248h236l-215 -248h-125zM602 1384q0 118 -89 119q-89 0 -89 -119t88 -118q90 0 90 118zM513 1595q91 0 147 -58q56 -57 56 -151t-56 -153t-146 -59t-147 59t-58 153q1 94 57 152t147 57z" />
    <glyph glyph-name="Ohorn.sc" horiz-adv-x="903" 
d="M555 362v383q0 125 -31 177q-30 52 -106 51q-76 0 -107 -51t-30 -177v-383q1 -125 31 -176t106 -51t106 51t31 176zM932 1026q0 -170 -195 -301v-377q-1 -196 -75 -280t-244 -84t-245 85t-75 279v412q0 194 75 278t234 84t235 -66t91 -204q55 74 55 162q1 53 -24 106h154
q14 -55 14 -94z" />
    <glyph glyph-name="Uhorn.sc" horiz-adv-x="972" 
d="M117 1108h184v-784q0 -104 28 -146q27 -42 99 -43q72 0 100 40t27 149v784h184v-315q129 92 129 219q0 57 -24 108h155q10 -41 11 -88q0 -143 -127 -258q-43 -37 -144 -102v-348q0 -98 -11 -148t-44 -90q-80 -102 -263 -102t-261 116q-43 68 -43 224v784z" />
    <glyph glyph-name="uni1EA0.sc" horiz-adv-x="729" 
d="M279 -403v221h174v-221h-174zM481 371l-114 510l-115 -510h229zM512 229h-291l-51 -229h-199l310 1108h172l311 -1108h-199z" />
    <glyph glyph-name="uni1EA2.sc" horiz-adv-x="729" 
d="M432 1241h-133q2 78 10 104q7 27 37 69t31 65q1 43 -49 43t-113 -31l-37 119q98 33 172 32q184 0 185 -155q-1 -37 -11 -59t-45 -64t-41 -60q-6 -20 -6 -63zM481 371l-114 510l-115 -510h229zM512 229h-291l-51 -229h-199l310 1108h172l311 -1108h-199z" />
    <glyph glyph-name="uni1EA4.sc" horiz-adv-x="729" 
d="M367 1315l-93 -115h-163l196 225h117l197 -225h-164zM301 1479l90 235h148l-140 -235h-98zM481 371l-114 510l-115 -510h229zM512 229h-291l-51 -229h-199l310 1108h172l311 -1108h-199z" />
    <glyph glyph-name="uni1EA6.sc" horiz-adv-x="729" 
d="M367 1315l-93 -115h-163l196 225h117l197 -225h-164zM428 1479h-100l-138 235h148zM481 371l-114 510l-115 -510h229zM512 229h-291l-51 -229h-199l310 1108h172l311 -1108h-199z" />
    <glyph glyph-name="uni1EA8.sc" horiz-adv-x="729" 
d="M362 1313l-90 -113h-163l196 213h117l196 -213h-163zM479 1623q0 -44 -43 -101q-18 -27 -20 -76h-107q2 72 26 108t23 58q0 54 -98 4l-27 86q57 24 117 24t94 -30q35 -30 35 -73zM481 371l-114 510l-115 -510h229zM512 229h-291l-51 -229h-199l310 1108h172l311 -1108
h-199z" />
    <glyph glyph-name="uni1EAA.sc" horiz-adv-x="729" 
d="M369 1315l-90 -115h-164l196 225h117l197 -225h-164zM289 1696q57 0 100 -51t60 -52q33 0 43 95h94q-14 -115 -44 -160t-90 -45t-102 51t-57 51q-16 0 -32 -26q-15 -27 -21 -68h-95q19 113 53 159t91 46zM481 371l-114 510l-115 -510h229zM512 229h-291l-51 -229h-199
l310 1108h172l311 -1108h-199z" />
    <glyph glyph-name="uni1EAC.sc" horiz-adv-x="729" 
d="M279 -403v221h174v-221h-174zM365 1425l-82 -163h-172l190 278h129l191 -278h-172zM481 371l-114 510l-115 -510h229zM512 229h-291l-51 -229h-199l310 1108h172l311 -1108h-199z" />
    <glyph glyph-name="uni1EAE.sc" horiz-adv-x="729" 
d="M366 1321q64 0 92 30t36 105h106q-4 -115 -29 -162q-51 -102 -211 -102t-208 119q-15 41 -21 145h107q8 -76 36 -106t92 -29zM301 1479l90 235h148l-140 -235h-98zM481 371l-114 510l-115 -510h229zM512 229h-291l-51 -229h-199l310 1108h172l311 -1108h-199z" />
    <glyph glyph-name="uni1EB0.sc" horiz-adv-x="729" 
d="M366 1321q64 0 92 30t36 105h106q-4 -115 -29 -162q-51 -102 -211 -102t-208 119q-15 41 -21 145h107q8 -76 36 -106t92 -29zM436 1479h-98l-139 235h147zM481 371l-114 510l-115 -510h229zM512 229h-291l-51 -229h-199l310 1108h172l311 -1108h-199z" />
    <glyph glyph-name="uni1EB2.sc" horiz-adv-x="729" 
d="M366 1317q64 0 92 31t38 108h104q-4 -115 -29 -162q-51 -102 -211 -102t-208 119q-15 41 -21 145h105q8 -78 36 -108t94 -31zM416 1430h-107q2 76 25 110q23 43 22 64q0 35 -32 34q-20 0 -64 -22l-27 86q61 24 119 24t92 -32q35 -32 35 -76q0 -45 -41 -100
q-22 -35 -22 -88zM481 371l-114 510l-115 -510h229zM512 229h-291l-51 -229h-199l310 1108h172l311 -1108h-199z" />
    <glyph glyph-name="uni1EB4.sc" horiz-adv-x="729" 
d="M353 1192q-155 0 -201 111q-19 45 -21 137h102q8 -72 35 -101t90 -29t92 29q28 29 35 101h101q-4 -111 -27 -152q-51 -96 -206 -96zM284 1714q56 0 99 -51t61 -51q31 0 43 94h93q-14 -115 -44 -160t-90 -45t-100 51q-41 51 -57 52q-38 -1 -56 -95h-92q19 111 53 158
t90 47zM481 371l-114 510l-115 -510h229zM512 229h-291l-51 -229h-199l310 1108h172l311 -1108h-199z" />
    <glyph glyph-name="uni1EB6.sc" horiz-adv-x="729" 
d="M279 -403v221h174v-221h-174zM366 1374q60 0 86 34t31 122h117q-4 -131 -27 -176q-53 -111 -215 -111t-208 129q-17 43 -19 158h115q8 -88 34 -122t86 -34zM481 371l-114 510l-115 -510h229zM512 229h-291l-51 -229h-199l310 1108h172l311 -1108h-199z" />
    <glyph glyph-name="uni1EB8.sc" horiz-adv-x="716" 
d="M311 -403v221h174v-221h-174zM123 0v1110h534v-149h-350v-328h297v-152h-297v-329h355v-152h-539z" />
    <glyph glyph-name="uni1EBA.sc" horiz-adv-x="716" 
d="M451 1241h-134q0 78 9 104q8 26 49 82q18 31 18 52q0 43 -49 43t-111 -31l-36 119q98 33 170 32q184 0 184 -155q0 -37 -10 -59q-11 -22 -45 -62t-40 -60t-5 -65zM123 0v1110h534v-149h-350v-328h297v-152h-297v-329h355v-152h-539z" />
    </font>
</defs>
</svg>
