<?xml version="1.0" encoding="UTF-8"?>
<svg xmlns="http://www.w3.org/2000/svg" xmlns:xlink="http://www.w3.org/1999/xlink" version="1.2" >
<font id="Bodoni URW Wide Medium">
<font-face  font-family="Bodoni URW Wide" units-per-em="1000" ascent="678" descent="-322" font-style="normal" font-weight="500" font-stretch="normal" cap-height="667" x-height="393" underline-position="-91" underline-thickness="69" />
<missing-glyph  horiz-adv-x="250" d="" />
<glyph glyph-name="NULL" d="" />
<glyph glyph-name="CR" unicode="&#xd;" horiz-adv-x="250" d="" />
<glyph glyph-name="space" unicode="&#x20;" horiz-adv-x="250" d="" />
<glyph glyph-name="exclam" unicode="&#x21;" horiz-adv-x="304" d="M152 228 L165 228 C166 340 175 389 223 545 C230 568 234 589 234 602 C234 646 199 679 153 679 C106 679 71 646 71 602 C71 589 75 568 82 545 C130 390 139 338 140 228 L152 228 Z M151 147 C107 147 70 112 70 71 C70 27 106 -7 151 -7 C195 -7 231 28 231 70 C231 113 195 147 151 147 L151 147 Z " />
<glyph glyph-name="quotedbl" unicode="&#x22;" horiz-adv-x="301" d="M67 413 L94 413 L121 567 C124 584 126 601 126 614 C126 650 106 677 80 677 C53 677 35 650 35 612 C35 597 36 582 39 567 L67 413 Z M207 413 L234 413 L262 567 C265 584 266 598 266 614 C266 650 246 677 220 677 C194 677 176 650 176 611 C176 593 177 582 180 567 L207 413 Z " />
<glyph glyph-name="numbersign" unicode="&#x23;" horiz-adv-x="525" d="M238 444 L268 647 L155 647 L125 444 L38 444 L38 414 L121 414 L95 241 L8 241 L8 211 L91 211 L60 0 L172 0 L203 211 L288 211 L257 0 L370 0 L401 211 L488 211 L487 241 L405 241 L431 414 L518 414 L517 444 L435 444 L465 647 L353 647 L323 444 L238 444 Z M233 414 L318 414 L293 241 L208 241 L233 414 Z " />
<glyph glyph-name="dollar" unicode="&#x24;" horiz-adv-x="525" d="M232 -99 L269 -99 L269 0 C399 8 484 92 484 213 C484 277 456 337 410 370 C386 387 355 398 269 421 L269 637 C339 625 388 565 400 479 L427 479 L427 650 L400 650 L372 621 C335 645 307 657 269 664 L269 747 L232 747 L232 666 C115 660 34 579 34 467 C34 415 54 369 89 338 C111 319 131 310 180 295 C199 289 207 286 232 278 L232 27 C147 40 82 103 63 192 L36 192 L36 16 L62 16 L95 56 C142 24 180 9 232 2 L232 -99 Z M230 432 L223 434 C144 458 117 484 117 536 C117 594 164 638 230 641 L230 432 Z M269 267 L282 263 C327 250 347 242 367 226 C388 210 403 178 403 147 C403 84 347 33 269 26 L269 267 Z " />
<glyph glyph-name="percent" unicode="&#x25;" horiz-adv-x="752" d="M177 650 C95 650 28 574 28 483 C28 392 96 316 177 316 C257 316 325 392 325 481 C325 575 259 650 177 650 L177 650 Z M176 628 C194 628 210 620 216 608 C227 587 233 542 233 479 C233 426 226 376 217 358 C211 346 194 338 176 338 C163 338 153 342 144 349 C130 361 120 415 120 482 C120 548 129 602 141 615 C151 624 161 628 176 628 L176 628 Z M547 643 L507 643 L205 0 L244 0 L547 643 Z M575 327 C493 327 426 251 426 161 C426 70 493 -6 575 -6 C654 -6 723 70 723 158 C723 252 657 327 575 327 L575 327 Z M574 305 C592 305 608 297 614 285 C625 264 631 219 631 156 C631 104 624 54 615 36 C609 24 592 16 574 16 C561 16 551 20 542 27 C528 39 518 92 518 160 C518 225 527 279 539 292 C549 301 560 305 574 305 L574 305 Z " />
<glyph glyph-name="ampersand" unicode="&#x26;" horiz-adv-x="659" d="M344 336 C442 376 475 406 475 454 C475 513 411 557 324 557 C270 557 232 543 201 513 C177 489 164 459 164 428 C164 396 177 364 213 310 C99 272 33 204 33 125 C33 44 109 -18 208 -18 C276 -18 340 6 391 50 L425 0 L632 0 L632 25 L561 25 L483 140 C512 185 533 223 544 254 C562 303 571 310 615 310 L638 310 L638 336 L437 336 L437 310 L489 310 C519 310 527 306 527 291 C527 276 513 237 498 207 C492 196 486 187 469 161 L344 336 Z M283 428 C262 459 257 469 257 485 C257 515 284 537 322 537 C367 537 393 507 393 454 C393 404 372 371 330 360 L283 428 Z M378 69 C349 43 318 30 285 30 C249 30 220 50 191 96 C160 145 145 185 145 216 C145 254 170 278 227 293 L378 69 Z " />
<glyph glyph-name="quotesingle" unicode="&#x27;" horiz-adv-x="160" d="M67 413 L94 413 L121 567 C124 584 126 601 126 614 C126 650 106 677 80 677 C53 677 35 650 35 612 C35 597 36 582 39 567 L67 413 Z " />
<glyph glyph-name="parenleft" unicode="&#x28;" horiz-adv-x="314" d="M288 -173 C195 -52 157 66 157 226 C157 334 178 445 218 541 C238 591 251 613 288 661 L269 677 C171 596 117 530 76 442 C49 382 33 309 33 245 C33 150 64 57 125 -35 C164 -93 197 -129 269 -190 L288 -173 Z " />
<glyph glyph-name="parenright" unicode="&#x29;" horiz-adv-x="314" d="M26 661 C118 537 157 419 157 263 C157 162 133 39 97 -52 C78 -97 62 -124 26 -173 L45 -190 C144 -105 197 -40 238 49 C265 108 281 180 281 243 C281 336 250 429 189 520 C150 579 116 616 45 677 L26 661 Z " />
<glyph glyph-name="asterisk" unicode="&#x2a;" horiz-adv-x="525" d="M279 520 C295 576 304 622 304 642 C304 664 286 680 263 680 C239 680 221 664 221 642 C221 624 234 563 250 502 C247 504 244 506 240 508 C209 526 192 536 188 538 C137 567 121 574 106 574 C84 574 66 555 66 533 C66 509 80 498 116 492 C141 488 196 482 243 480 C236 474 231 470 228 467 C214 456 200 445 186 433 C135 390 125 378 125 359 C125 339 146 320 168 320 C187 320 198 329 213 357 C224 379 247 428 263 466 C266 458 269 452 270 448 C294 390 314 350 329 332 C335 325 347 320 357 320 C380 320 401 339 401 360 C401 377 388 393 341 432 C294 470 294 470 282 480 C375 487 426 493 436 498 C451 505 459 517 459 533 C459 555 441 574 419 574 C401 574 361 555 292 512 C290 511 282 506 275 502 L279 520 Z " />
<glyph glyph-name="plus" unicode="&#x2b;" horiz-adv-x="525" d="M246 307 L246 128 L279 128 L279 307 L479 307 L479 340 L279 340 L279 519 L246 519 L246 340 L47 340 L47 307 L246 307 Z " />
<glyph glyph-name="comma" unicode="&#x2c;" horiz-adv-x="273" d="M111 -172 C197 -105 233 -47 233 24 C233 93 185 147 124 147 C77 147 40 113 40 70 C40 29 74 -5 115 -5 C144 -5 167 9 182 35 C188 20 190 12 190 -2 C190 -54 154 -110 93 -151 L111 -172 Z " />
<glyph glyph-name="hyphen" unicode="&#x2d;" horiz-adv-x="226" d="M0 250 L0 167 L226 167 L226 250 L0 250 Z " />
<glyph glyph-name="period" unicode="&#x2e;" horiz-adv-x="273" d="M137 147 C93 147 56 112 56 71 C56 27 92 -7 137 -7 C181 -7 217 28 217 70 C217 113 181 147 137 147 L137 147 Z " />
<glyph glyph-name="slash" unicode="&#x2f;" horiz-adv-x="461" d="M430 667 L330 667 L-49 -180 L52 -180 L430 667 Z " />
<glyph glyph-name="zero" unicode="0" horiz-adv-x="525" d="M264 654 C139 654 36 503 36 322 C36 142 140 -10 263 -10 C384 -10 489 142 489 316 C489 423 461 510 404 579 C366 626 313 654 264 654 L264 654 Z M263 627 C301 627 327 604 337 561 C347 520 356 412 356 328 C356 284 352 204 346 138 C343 101 336 72 326 52 C315 32 289 17 263 17 C231 17 205 35 193 64 C180 96 169 214 169 322 C169 450 181 556 199 592 C210 612 236 627 263 627 L263 627 Z " />
<glyph glyph-name="one" unicode="1" horiz-adv-x="525" d="M218 25 L101 25 L101 0 L461 0 L461 25 L350 25 L350 662 C313 652 242 644 191 644 L128 644 L101 644 L101 616 L218 616 L218 25 Z " />
<glyph glyph-name="two" unicode="2" horiz-adv-x="525" d="M466 208 L438 208 C433 114 433 113 380 113 L115 113 C141 133 142 133 167 151 C258 215 258 215 279 233 C407 333 462 409 462 484 C462 580 375 654 264 654 C143 654 49 576 49 475 C49 422 82 383 126 383 C161 383 190 411 190 446 C190 482 158 510 117 510 L109 510 C105 509 100 509 98 509 C92 509 87 514 87 520 C87 531 97 550 112 567 C137 596 169 611 204 611 C275 611 323 552 323 464 C323 421 315 382 301 356 C262 283 183 198 72 109 C58 98 45 87 32 76 L32 0 L455 0 L466 208 Z " />
<glyph glyph-name="three" unicode="3" horiz-adv-x="525" d="M124 334 C145 335 154 335 167 335 C280 335 328 292 328 189 C328 76 284 18 199 18 C158 18 118 35 118 53 C118 59 121 62 130 67 C155 80 171 104 171 129 C171 167 141 197 104 197 C68 197 39 165 39 126 C39 49 119 -10 225 -10 C361 -10 471 76 471 184 C471 283 387 347 253 350 C367 372 434 433 434 514 C434 597 355 654 241 654 C141 654 69 605 69 537 C69 497 95 468 130 468 C164 468 188 491 188 523 C188 550 174 575 153 587 C145 591 143 593 143 598 C143 613 182 629 216 629 C276 629 303 592 303 511 C303 406 263 363 164 363 C157 363 139 364 124 365 L124 334 Z " />
<glyph glyph-name="four" unicode="4" horiz-adv-x="525" d="M252 170 L252 25 L175 25 L175 0 L462 0 L462 25 L379 25 L379 170 L435 170 C476 171 484 165 484 128 L484 96 L511 96 L511 267 L484 267 L484 246 C484 205 477 199 435 200 L379 200 L379 643 L304 643 L15 200 L15 170 L252 170 Z M252 200 L50 200 L252 508 L252 200 Z " />
<glyph glyph-name="five" unicode="5" horiz-adv-x="525" d="M127 528 L350 528 C383 528 391 530 405 542 C428 566 445 622 444 674 L415 674 C413 651 402 642 375 643 L159 643 C114 643 102 631 100 584 L86 350 L115 334 C150 355 179 364 210 364 C283 364 342 283 342 184 C342 88 286 14 214 14 C175 14 120 35 120 50 C120 54 123 58 129 61 C164 76 179 96 179 127 C179 165 148 195 109 195 C70 195 40 161 40 118 C40 45 118 -10 220 -10 C290 -10 359 14 408 56 C452 94 474 140 474 197 C474 313 372 397 233 397 C187 397 152 389 115 370 L127 528 Z " />
<glyph glyph-name="six" unicode="6" horiz-adv-x="525" d="M426 671 C361 671 322 663 276 638 C137 564 44 418 44 275 C44 117 146 -10 274 -10 C391 -10 489 98 489 227 C489 337 409 425 309 425 C265 425 227 408 195 374 C204 520 300 632 426 645 L426 671 Z M288 392 C311 392 333 382 342 367 C359 340 368 283 368 199 C368 71 339 17 272 17 C202 17 174 72 174 205 C174 270 182 314 198 341 C216 372 252 392 288 392 L288 392 Z " />
<glyph glyph-name="seven" unicode="7" horiz-adv-x="525" d="M64 431 L96 431 L108 471 C126 526 130 529 190 530 L422 530 C266 266 207 138 207 60 C207 17 237 -16 276 -16 C316 -16 343 17 343 66 C343 80 342 97 340 118 C338 142 337 164 337 181 C337 255 355 326 393 404 C475 572 475 572 482 583 C493 600 499 615 499 624 C499 629 494 636 490 639 C482 643 482 643 451 643 L123 643 L64 431 Z " />
<glyph glyph-name="eight" unicode="8" horiz-adv-x="525" d="M331 336 C425 370 475 425 475 493 C475 582 381 654 263 654 C145 654 51 582 51 493 C51 425 101 371 195 336 C94 309 28 241 28 165 C28 67 131 -10 262 -10 C394 -10 497 67 497 165 C497 241 431 309 331 336 L331 336 Z M264 627 C290 627 314 616 325 597 C338 575 343 544 343 476 C343 381 324 350 264 350 C201 350 184 378 184 485 C184 541 189 575 200 594 C212 615 235 627 264 627 L264 627 Z M265 321 C296 321 325 307 338 285 C354 259 360 227 360 162 C360 109 355 80 342 56 C328 32 299 17 264 17 C230 17 201 32 187 56 C174 81 169 108 169 163 C169 223 174 255 188 281 C202 306 230 321 265 321 L265 321 Z " />
<glyph glyph-name="nine" unicode="9" horiz-adv-x="525" d="M82 -43 C183 -40 254 -11 330 55 C425 140 484 259 484 368 C484 522 375 654 248 654 C136 654 33 544 33 424 C33 312 119 218 221 218 C265 218 299 232 333 264 C313 96 234 7 82 -17 L82 -43 Z M254 627 C286 627 313 612 327 587 C342 561 349 510 349 428 C349 361 343 326 327 297 C312 269 282 252 247 252 C182 252 158 304 158 442 C158 511 165 561 178 587 C190 610 221 627 254 627 L254 627 Z " />
<glyph glyph-name="colon" unicode="&#x3a;" horiz-adv-x="273" d="M137 147 C93 147 56 112 56 71 C56 27 92 -7 137 -7 C181 -7 217 28 217 70 C217 113 181 147 137 147 L137 147 Z M137 400 C93 400 56 365 56 324 C56 280 92 246 137 246 C181 246 217 281 217 323 C217 366 181 400 137 400 L137 400 Z " />
<glyph glyph-name="semicolon" unicode="&#x3b;" horiz-adv-x="273" d="M122 400 C78 400 41 366 41 324 C41 280 77 246 122 246 C166 246 202 281 202 323 C202 366 166 400 122 400 L122 400 Z M111 -172 C197 -105 233 -47 233 24 C233 93 185 147 124 147 C77 147 40 113 40 70 C40 29 74 -5 115 -5 C144 -5 167 9 182 35 C188 21 190 13 190 -1 C190 -54 154 -109 93 -151 L111 -172 Z " />
<glyph glyph-name="less" unicode="&#x3c;" horiz-adv-x="525" d="M478 607 L46 340 L46 334 L478 61 L478 140 L131 360 L478 577 L478 607 Z " />
<glyph glyph-name="equal" unicode="&#x3d;" horiz-adv-x="525" d="M47 280 L47 247 L479 247 L479 280 L47 280 Z M47 400 L47 367 L479 367 L479 400 L47 400 Z " />
<glyph glyph-name="greater" unicode="&#x3e;" horiz-adv-x="525" d="M46 61 L478 328 L478 333 L46 607 L46 527 L393 307 L46 91 L46 61 Z " />
<glyph glyph-name="question" unicode="&#x3f;" horiz-adv-x="414" d="M169 205 C164 217 162 223 162 230 C162 264 184 291 236 322 C337 382 381 441 381 516 C381 606 302 679 205 679 C116 679 31 615 31 547 C31 513 56 488 91 488 C127 488 154 511 154 541 C154 567 140 583 105 597 C89 604 89 604 89 607 C89 625 151 652 194 652 C254 652 297 618 297 572 C297 544 286 528 246 494 C163 425 129 369 129 299 C129 269 135 237 148 205 L169 205 Z M165 147 C121 147 84 112 84 71 C84 27 120 -7 165 -7 C209 -7 245 28 245 70 C245 113 209 147 165 147 L165 147 Z " />
<glyph glyph-name="at" unicode="&#x40;" horiz-adv-x="799" d="M498 494 L487 447 C472 488 448 505 406 505 C297 505 200 400 200 281 C200 203 248 148 316 148 C366 148 400 170 438 227 C443 168 462 148 514 148 C568 148 622 173 667 217 C716 265 740 322 740 389 C740 548 599 671 417 671 C218 671 56 516 56 325 C56 134 212 -13 415 -13 C479 -13 544 3 592 32 C619 49 635 62 662 93 L608 93 C557 50 490 27 413 27 C235 27 99 157 99 326 C99 494 241 630 415 630 C489 630 562 604 617 557 C670 512 697 455 697 388 C697 334 678 282 643 242 C613 209 577 187 550 187 C544 187 540 191 540 199 C540 202 540 206 541 209 L605 494 L498 494 Z M413 483 C446 483 476 441 473 397 C470 355 452 297 427 252 C401 206 357 173 320 173 C305 173 296 183 296 198 C296 237 326 355 351 418 C371 465 388 483 413 483 L413 483 Z " />
<glyph glyph-name="A" unicode="A" horiz-adv-x="658" d="M385 179 L442 25 L352 25 L352 0 L665 0 L665 25 L591 25 L352 667 L319 667 L98 82 C81 30 75 26 25 25 L-11 25 L-11 0 L206 0 L206 25 L150 25 C126 25 115 29 115 38 C115 43 118 54 123 67 L165 179 L385 179 Z M375 204 L175 204 L274 469 L375 204 Z " />
<glyph glyph-name="B" unicode="B" horiz-adv-x="685" d="M117 25 L32 25 L32 0 L337 0 C467 0 507 6 561 35 C612 62 644 118 644 176 C644 274 562 339 427 348 C539 359 611 422 611 506 C611 556 581 606 535 632 C481 663 454 667 322 667 L32 667 L32 642 L117 642 L117 25 Z M257 358 L257 642 L322 642 C388 642 414 636 435 617 C457 597 468 560 468 503 C468 394 433 358 325 358 L257 358 Z M257 25 L257 333 L325 333 C406 333 424 329 450 305 C477 280 489 242 489 183 C489 124 479 87 456 59 C432 31 413 25 337 25 L257 25 Z " />
<glyph glyph-name="C" unicode="C" horiz-adv-x="650" d="M589 667 L561 667 L542 626 C499 665 446 684 380 684 C192 684 40 521 40 320 C40 127 182 -17 373 -17 C442 -17 487 0 539 48 L568 0 L596 0 L605 186 L577 186 C540 74 465 10 369 10 C310 10 261 36 238 78 C213 126 206 169 206 278 L206 299 C207 488 212 526 240 580 C265 628 320 657 386 657 C482 657 542 603 569 493 L597 493 L589 667 Z " />
<glyph glyph-name="D" unicode="D" horiz-adv-x="748" d="M117 25 L32 25 L32 0 L355 0 C419 0 448 1 467 4 C518 11 566 34 605 71 C672 133 708 225 708 332 C708 466 651 577 553 633 C504 661 471 667 354 667 L32 667 L32 642 L117 642 L117 25 Z M257 25 L257 642 L355 642 C390 642 413 640 428 636 C460 627 487 606 504 574 C532 526 541 468 541 334 C541 199 532 141 504 93 C475 41 440 25 355 25 L257 25 Z " />
<glyph glyph-name="E" unicode="E" horiz-adv-x="658" d="M116 25 L32 25 L32 0 L608 0 L622 212 L594 212 C559 64 508 23 358 25 L256 25 L256 326 L284 326 C386 324 413 298 418 197 L447 197 L447 469 L418 469 C417 383 380 350 287 351 L256 351 L256 642 L384 642 C500 646 547 609 573 497 L601 497 L584 667 L32 667 L32 642 L116 642 L116 25 Z " />
<glyph glyph-name="F" unicode="F" horiz-adv-x="598" d="M109 25 L25 25 L25 0 L363 0 L363 25 L249 25 L249 326 L293 326 C394 324 421 298 426 197 L454 197 L454 469 L426 469 C425 383 389 350 295 351 L249 351 L249 642 L363 642 C474 648 540 593 563 474 L591 474 L581 667 L25 667 L25 642 L109 642 L109 25 Z " />
<glyph glyph-name="G" unicode="G" horiz-adv-x="695" d="M594 667 L566 667 L533 635 C483 668 429 684 370 684 C291 684 212 653 150 597 C75 530 36 437 36 324 C36 126 166 -17 346 -17 C407 -17 477 3 531 37 C560 55 581 73 616 109 L616 224 L686 224 L686 249 L371 249 L371 224 L476 224 L476 109 C476 51 420 10 341 10 C308 10 275 19 253 34 C229 50 218 74 211 125 C208 146 202 317 202 375 C202 480 212 551 232 593 C252 632 306 657 372 657 C434 657 489 634 520 597 C544 566 555 539 566 480 L594 480 L594 667 Z " />
<glyph glyph-name="H" unicode="H" horiz-adv-x="770" d="M116 25 L32 25 L32 0 L352 0 L352 25 L256 25 L256 330 L515 330 L515 25 L419 25 L419 0 L739 0 L739 25 L655 25 L655 642 L739 642 L739 667 L419 667 L419 642 L515 642 L515 355 L256 355 L256 642 L352 642 L352 667 L32 667 L32 642 L116 642 L116 25 Z " />
<glyph glyph-name="I" unicode="I" horiz-adv-x="371" d="M116 25 L32 25 L32 0 L340 0 L340 25 L256 25 L256 642 L340 642 L340 667 L32 667 L32 642 L116 642 L116 25 Z " />
<glyph glyph-name="J" unicode="J" horiz-adv-x="468" d="M216 642 L216 54 C216 2 213 -17 202 -38 C190 -60 167 -76 146 -76 C131 -76 119 -67 119 -55 C119 -50 121 -45 127 -39 C145 -19 148 -12 148 3 C148 37 117 64 78 64 C37 64 7 34 7 -7 C7 -63 58 -103 130 -103 C210 -103 290 -61 327 0 C350 39 356 70 356 151 L356 642 L426 642 L426 667 L132 667 L132 642 L216 642 Z " />
<glyph glyph-name="K" unicode="K" horiz-adv-x="730" d="M116 25 L32 25 L32 0 L347 0 L347 25 L256 25 L256 642 L347 642 L347 667 L32 667 L32 642 L116 642 L116 25 Z M391 427 L558 596 C599 637 609 641 658 642 L680 642 L680 667 L445 667 L445 642 L502 642 C527 642 537 638 537 629 C537 623 534 618 523 607 L270 347 L502 25 L419 25 L419 0 L730 0 L730 25 L680 25 L391 427 Z " />
<glyph glyph-name="L" unicode="L" horiz-adv-x="611" d="M116 25 L32 25 L32 0 L566 0 L587 210 L559 210 C529 86 454 20 348 25 L256 25 L256 642 L347 642 L347 667 L32 667 L32 642 L116 642 L116 25 Z " />
<glyph glyph-name="M" unicode="M" horiz-adv-x="826" d="M109 642 L109 97 C109 31 105 26 52 25 L25 25 L25 0 L225 0 L225 25 L197 25 C143 26 139 31 139 97 L139 642 L340 0 L364 0 L571 635 L571 25 L469 25 L469 0 L795 0 L795 25 L711 25 L711 642 L795 642 L795 667 L547 667 L411 254 L284 667 L25 667 L25 642 L109 642 Z " />
<glyph glyph-name="N" unicode="N" horiz-adv-x="727" d="M595 -7 L619 -7 L619 570 C618 636 623 641 675 642 L703 642 L703 667 L503 667 L503 642 L531 642 C585 641 589 636 589 570 L589 241 L252 667 L25 667 L25 642 L53 642 C107 641 111 636 111 570 L111 97 C111 31 107 26 53 25 L25 25 L25 0 L238 0 L238 25 L197 25 C145 26 140 31 141 97 L141 585 L595 -7 Z " />
<glyph glyph-name="O" unicode="O" horiz-adv-x="769" d="M385 684 C296 684 214 653 155 599 C81 529 40 435 40 334 C40 246 73 159 130 94 C194 21 282 -17 384 -17 C473 -17 553 13 613 68 C684 134 728 234 728 328 C728 532 581 684 385 684 L385 684 Z M388 657 C449 657 494 635 521 592 C551 544 561 475 561 314 C561 204 549 124 525 82 C498 33 453 10 384 10 C309 10 263 37 236 95 C216 138 207 214 207 333 C207 446 215 522 233 565 C259 629 306 657 388 657 L388 657 Z " />
<glyph glyph-name="P" unicode="P" horiz-adv-x="657" d="M116 25 L32 25 L32 0 L358 0 L358 25 L256 25 L256 312 L340 312 C468 312 509 318 555 344 C603 371 636 429 636 489 C636 549 603 608 553 635 C506 661 466 667 339 667 L32 667 L32 642 L116 642 L116 25 Z M256 337 L256 642 L338 642 C455 642 484 612 484 487 C484 375 448 337 339 337 L256 337 Z " />
<glyph glyph-name="Q" unicode="Q" horiz-adv-x="769" d="M457 -10 C616 22 728 165 728 334 C728 422 696 507 637 573 C574 646 486 684 384 684 C295 684 215 654 155 599 C83 532 40 434 40 334 C40 166 152 23 308 -9 L308 -24 C310 -130 322 -158 379 -189 C436 -221 497 -233 609 -233 C632 -233 643 -233 671 -231 L671 -202 C648 -203 634 -204 621 -204 C548 -204 499 -184 479 -146 C463 -118 457 -82 457 -25 L457 -17 L457 -10 Z M388 657 C449 657 494 635 521 592 C551 544 561 475 561 314 C561 204 549 124 525 82 C498 33 453 10 384 10 C309 10 263 37 236 95 C216 138 207 214 207 333 C207 446 215 522 233 565 C259 629 306 657 388 657 L388 657 Z " />
<glyph glyph-name="R" unicode="R" horiz-adv-x="725" d="M116 25 L32 25 L32 0 L347 0 L347 25 L256 25 L256 343 L319 343 C404 346 429 314 438 192 C442 120 450 85 469 53 C493 16 533 -4 587 -4 C626 -4 661 2 705 18 L705 44 C681 36 669 33 653 33 C619 33 602 56 602 105 L603 134 C604 143 604 153 604 158 C604 259 529 336 410 355 C470 358 487 360 509 368 C577 392 618 446 618 512 C618 565 591 613 547 635 C497 662 462 667 340 667 L32 667 L32 642 L116 642 L116 25 Z M256 368 L256 642 L340 642 C401 642 425 637 445 619 C467 600 476 569 476 515 C476 398 448 368 340 368 L256 368 Z " />
<glyph glyph-name="S" unicode="S" horiz-adv-x="557" d="M457 667 L429 667 L400 636 C350 670 308 684 258 684 C137 684 45 593 45 475 C45 412 72 358 121 326 C144 311 144 311 259 275 C365 244 368 243 395 222 C416 205 431 171 431 139 C431 67 364 10 280 10 C225 10 170 35 131 77 C102 108 88 136 76 186 L48 186 L48 0 L75 0 L110 42 C172 1 225 -17 286 -17 C417 -17 516 79 516 206 C516 282 481 347 421 380 C396 394 337 414 261 434 C159 461 124 490 124 546 C124 610 181 657 257 657 C350 657 413 594 429 487 L457 487 L457 667 Z " />
<glyph glyph-name="T" unicode="T" horiz-adv-x="646" d="M254 25 L159 25 L159 0 L488 0 L488 25 L394 25 L394 642 L417 642 C531 649 596 588 608 462 L636 462 L623 667 L24 667 L11 462 L39 462 C51 588 114 649 225 642 L254 642 L254 25 Z " />
<glyph glyph-name="U" unicode="U" horiz-adv-x="702" d="M105 642 L105 213 C105 125 107 108 123 81 C158 21 250 -17 361 -17 C480 -17 562 25 590 101 C599 125 601 150 601 213 L601 570 C601 636 605 641 658 642 L685 642 L685 667 L485 667 L485 642 L513 642 C567 641 571 636 571 570 L571 214 C571 144 566 116 549 86 C524 43 470 18 398 18 C334 18 287 40 263 82 C249 106 245 136 245 213 L245 642 L347 642 L347 667 L21 667 L21 642 L105 642 Z " />
<glyph glyph-name="V" unicode="V" horiz-adv-x="652" d="M213 642 L297 642 L297 667 L-6 667 L-6 642 L59 642 L326 -13 L354 -13 L560 580 C577 629 591 640 637 642 L654 642 L654 667 L452 667 L452 642 L481 642 C525 642 539 637 539 622 C539 617 537 609 534 601 L395 197 L213 642 Z " />
<glyph glyph-name="W" unicode="W" horiz-adv-x="943" d="M647 642 L706 642 L706 667 L-2 667 L-2 642 L69 642 L328 -13 L352 -13 L490 292 L614 -13 L642 -13 L851 579 C870 629 884 641 927 642 L946 642 L946 667 L752 667 L752 642 L788 642 C818 642 830 636 830 622 C830 617 827 606 822 592 L682 192 L571 469 L647 642 Z M611 642 L554 510 L504 642 L611 642 Z M350 642 L473 333 L403 179 L220 642 L350 642 Z " />
<glyph glyph-name="X" unicode="X" horiz-adv-x="652" d="M269 304 L114 78 C84 33 73 28 12 25 L-4 25 L-4 0 L219 0 L219 25 L180 25 C146 25 133 30 133 42 C133 50 137 59 150 77 L286 275 L432 25 L349 25 L349 0 L662 0 L662 25 L600 25 L376 405 L504 592 C534 637 541 640 593 642 L607 642 L607 667 L408 667 L408 642 L441 642 C476 642 485 639 485 627 C485 620 481 610 473 598 L359 434 L235 642 L305 642 L305 667 L-4 667 L-4 642 L70 642 L269 304 Z " />
<glyph glyph-name="Y" unicode="Y" horiz-adv-x="629" d="M244 25 L149 25 L149 0 L478 0 L478 25 L384 25 L384 307 L541 590 C564 634 573 640 617 642 L636 642 L636 667 L433 667 L433 642 L485 642 C512 642 522 638 522 627 C522 622 518 611 511 598 L376 351 L203 642 L300 642 L300 667 L-22 667 L-22 642 L42 642 L244 307 L244 25 Z " />
<glyph glyph-name="Z" unicode="Z" horiz-adv-x="591" d="M21 32 L21 0 L542 0 L549 213 L521 213 C495 82 416 17 293 25 L182 25 L542 648 L542 667 L69 667 L57 490 L85 490 C110 600 176 648 293 642 L373 642 L21 32 Z " />
<glyph glyph-name="bracketleft" unicode="&#x5b;" horiz-adv-x="314" d="M66 -180 L291 -180 L291 -155 L171 -155 L171 642 L291 642 L291 667 L66 667 L66 -180 Z " />
<glyph glyph-name="backslash" unicode="&#x5c;" horiz-adv-x="461" d="M32 667 L410 -180 L511 -180 L132 667 L32 667 Z " />
<glyph glyph-name="bracketright" unicode="&#x5d;" horiz-adv-x="314" d="M248 667 L23 667 L23 642 L143 642 L143 -155 L23 -155 L23 -180 L248 -180 L248 667 Z " />
<glyph glyph-name="asciicircum" unicode="&#x5e;" horiz-adv-x="525" d="M555 280 L278 700 L269 700 L-31 280 L133 280 L319 542 L494 280 L555 280 Z " />
<glyph glyph-name="underscore" unicode="&#x5f;" horiz-adv-x="501" d="M12 -91 L12 -160 L490 -160 L490 -91 L12 -91 Z " />
<glyph glyph-name="grave" unicode="&#x60;" horiz-adv-x="516" d="M228 621 L131 621 L131 596 L291 471 L308 480 L228 621 Z " />
<glyph glyph-name="a" unicode="a" horiz-adv-x="480" d="M460 56 C450 45 441 40 431 40 C414 40 409 49 409 81 L409 263 C409 321 405 339 386 358 C359 386 304 403 240 403 C143 403 69 359 69 301 C69 272 92 249 121 249 C153 249 180 272 180 299 C180 311 176 321 165 333 C158 341 155 346 155 350 C155 365 183 376 222 376 C261 376 282 367 291 346 C296 335 296 335 297 258 L297 233 C128 221 33 167 33 84 C33 28 80 -10 149 -10 C208 -10 258 12 297 56 C318 16 349 -5 387 -5 C419 -5 452 11 477 40 L460 56 Z M297 156 C297 112 294 95 285 77 C273 55 249 42 221 42 C177 42 145 73 145 116 C145 175 197 205 297 206 L297 156 Z " />
<glyph glyph-name="b" unicode="b" horiz-adv-x="571" d="M75 25 L4 25 L4 0 L195 0 L195 59 C234 11 279 -10 340 -10 C452 -10 538 81 538 200 C538 315 452 403 339 403 C277 403 232 380 195 330 L195 678 C151 670 120 668 37 667 L4 667 L4 642 L75 642 L75 25 Z M328 373 C359 373 383 360 394 339 C404 318 408 288 408 230 C408 125 401 65 388 47 C375 29 353 20 323 20 C243 20 190 89 190 192 C190 252 205 302 230 329 C257 358 291 373 328 373 L328 373 Z " />
<glyph glyph-name="c" unicode="c" horiz-adv-x="453" d="M417 118 C381 53 331 20 270 20 C191 20 163 65 163 196 C163 332 190 376 271 376 C300 376 315 371 334 355 C309 339 296 317 296 291 C296 257 324 231 361 231 C397 231 428 260 428 295 C428 354 356 403 268 403 C138 403 33 309 33 192 C33 80 132 -10 256 -10 C341 -10 402 28 441 106 L417 118 Z " />
<glyph glyph-name="d" unicode="d" horiz-adv-x="549" d="M356 0 L546 0 L546 25 L476 25 L476 678 C432 670 400 668 315 667 L280 667 L280 642 L356 642 L356 335 C316 384 279 403 225 403 C120 403 33 308 33 193 C33 79 119 -10 228 -10 C284 -10 324 12 356 60 L356 0 Z M250 373 C283 373 318 350 338 315 C352 291 360 245 360 192 C360 93 314 21 251 21 C225 21 200 35 189 56 C173 87 163 148 163 213 C163 318 193 373 250 373 L250 373 Z " />
<glyph glyph-name="e" unicode="e" horiz-adv-x="462" d="M437 221 L437 233 C437 327 353 403 247 403 C125 403 33 315 33 197 C33 144 51 98 84 62 C127 17 191 -10 254 -10 C331 -10 392 30 437 110 L412 121 C375 55 325 20 268 20 C227 20 196 40 183 75 C176 94 176 94 176 199 L176 221 L437 221 Z M176 246 L176 274 C176 322 178 335 186 351 C194 367 215 376 243 376 C270 376 291 367 299 351 C307 335 309 322 309 274 L309 246 L176 246 Z " />
<glyph glyph-name="f" unicode="f" horiz-adv-x="333" d="M84 25 L14 25 L14 0 L306 0 L306 25 L204 25 L204 368 L306 368 L306 393 L204 393 L204 555 C204 590 206 606 214 619 C224 636 245 647 268 647 C284 647 297 640 297 632 C297 629 294 625 287 620 C275 611 269 601 269 589 C269 565 293 545 323 545 C356 545 380 568 380 599 C380 641 339 674 289 674 C219 674 151 635 116 574 C94 537 84 490 84 426 L84 393 L14 393 L14 368 L84 368 L84 25 Z " />
<glyph glyph-name="g" unicode="g" horiz-adv-x="518" d="M230 35 L142 35 L132 35 L129 35 C95 35 78 44 78 64 C78 89 108 116 149 127 C183 112 213 106 249 106 C359 106 437 169 437 256 C437 283 431 303 417 327 C417 339 421 345 429 345 C432 345 434 344 438 340 C449 328 460 323 472 323 C495 323 512 340 512 363 C512 389 492 408 465 408 C436 408 414 389 400 350 C356 387 312 403 252 403 C144 403 63 339 63 254 C63 208 83 172 126 140 C68 124 28 76 28 23 C28 -25 56 -59 106 -73 C57 -86 30 -114 30 -154 C30 -222 120 -271 242 -271 C388 -271 482 -202 482 -93 C482 -44 460 -3 422 18 C400 31 372 36 328 36 L230 35 Z M319 217 C319 187 317 174 310 162 C300 144 277 133 249 133 C222 133 199 144 189 162 C182 174 180 187 180 217 L180 292 C180 322 182 335 189 347 C199 365 222 376 250 376 C277 376 300 365 310 347 C317 335 319 322 319 292 L319 217 Z M371 -81 C406 -81 425 -98 425 -131 C425 -196 351 -244 248 -244 C163 -244 107 -205 107 -146 C107 -122 117 -102 139 -81 L371 -81 Z " />
<glyph glyph-name="h" unicode="h" horiz-adv-x="575" d="M81 25 L11 25 L11 0 L263 0 L263 25 L201 25 L201 196 C201 248 206 275 221 302 C239 337 279 360 318 360 C340 360 359 351 368 336 C374 324 376 312 376 271 L376 25 L320 25 L320 0 L572 0 L572 25 L496 25 L496 271 C496 316 493 335 483 353 C465 385 421 403 364 403 C296 403 248 380 201 326 L201 678 C157 670 126 668 44 667 L11 667 L11 642 L81 642 L81 25 Z " />
<glyph glyph-name="i" unicode="i" horiz-adv-x="293" d="M95 25 L19 25 L19 0 L285 0 L285 25 L215 25 L215 404 C171 396 139 394 54 393 L19 393 L19 368 L95 368 L95 25 Z M139 635 C102 635 72 605 72 570 C72 532 101 502 138 502 C175 502 205 532 205 569 C205 605 175 635 139 635 L139 635 Z " />
<glyph glyph-name="j" unicode="j" horiz-adv-x="253" d="M76 368 L76 -144 C76 -202 75 -212 68 -226 C63 -236 50 -243 34 -243 C21 -243 12 -238 12 -232 C12 -229 14 -227 17 -223 C27 -213 30 -206 30 -197 C30 -173 7 -153 -20 -153 C-49 -153 -73 -175 -73 -202 C-73 -242 -36 -270 17 -270 C75 -270 121 -240 156 -181 C186 -129 196 -77 196 18 L196 404 C153 396 122 394 38 393 L5 393 L5 368 L76 368 Z M122 635 C85 635 55 605 55 570 C55 532 84 502 121 502 C158 502 188 531 188 569 C188 605 158 635 122 635 L122 635 Z " />
<glyph glyph-name="k" unicode="k" horiz-adv-x="558" d="M80 25 L4 25 L4 0 L256 0 L256 25 L200 25 L200 678 C156 670 124 668 39 667 L4 667 L4 642 L80 642 L80 25 Z M314 268 L382 328 C422 365 427 367 470 368 L495 368 L495 393 L285 393 L285 368 L330 368 C357 368 364 366 364 357 C364 351 358 344 340 328 L207 212 L352 25 L296 25 L296 0 L554 0 L554 25 L503 25 L314 268 Z " />
<glyph glyph-name="l" unicode="l" horiz-adv-x="273" d="M80 25 L4 25 L4 0 L270 0 L270 25 L200 25 L200 678 C156 670 124 668 39 667 L4 667 L4 642 L80 642 L80 25 Z " />
<glyph glyph-name="m" unicode="m" horiz-adv-x="858" d="M95 25 L25 25 L25 0 L277 0 L277 25 L215 25 L215 217 C215 261 216 272 224 293 C241 334 282 363 324 363 C343 363 360 354 368 340 C376 325 377 320 377 269 L377 25 L321 25 L321 0 L559 0 L559 25 L497 25 L497 217 C497 262 501 283 515 307 C535 341 572 363 608 363 C628 363 646 354 653 341 C659 328 659 328 659 269 L659 25 L603 25 L603 0 L855 0 L855 25 L779 25 L779 269 C779 315 776 333 767 350 C747 383 703 403 650 403 C584 403 536 378 497 325 C478 374 430 403 367 403 C308 403 256 379 215 333 L215 404 C171 396 140 394 58 393 L25 393 L25 368 L95 368 L95 25 Z " />
<glyph glyph-name="n" unicode="n" horiz-adv-x="585" d="M95 25 L25 25 L25 0 L277 0 L277 25 L215 25 L215 218 C215 264 218 281 230 302 C252 339 293 363 333 363 C352 363 368 354 377 339 C384 327 386 310 386 274 L386 25 L330 25 L330 0 L582 0 L582 25 L506 25 L506 274 C506 314 503 333 494 349 C474 383 430 403 376 403 C311 403 256 378 215 331 L215 404 C171 396 140 394 58 393 L25 393 L25 368 L95 368 L95 25 Z " />
<glyph glyph-name="o" unicode="o" horiz-adv-x="537" d="M268 403 C136 403 33 313 33 197 C33 80 136 -10 269 -10 C399 -10 504 81 504 194 C504 313 402 403 268 403 L268 403 Z M269 376 C307 376 342 360 355 335 C369 310 374 267 374 174 C374 107 365 66 347 46 C329 28 300 17 269 17 C211 17 178 44 168 99 C166 111 163 181 163 215 C163 289 171 327 190 347 C209 366 236 376 269 376 L269 376 Z " />
<glyph glyph-name="p" unicode="p" horiz-adv-x="549" d="M74 -242 L4 -242 L4 -267 L270 -267 L270 -242 L194 -242 L194 70 C236 12 273 -10 328 -10 C431 -10 516 85 516 199 C516 310 429 403 326 403 C272 403 235 382 194 329 L194 404 C151 396 120 394 37 393 L4 393 L4 368 L74 368 L74 -242 Z M308 373 C362 373 386 321 386 204 C386 75 363 20 309 20 C241 20 189 95 189 193 C189 293 241 373 306 373 L308 373 Z " />
<glyph glyph-name="q" unicode="q" horiz-adv-x="550" d="M357 -242 L281 -242 L281 -267 L547 -267 L547 -242 L477 -242 L477 368 L547 368 L547 393 L505 393 C439 393 399 396 357 405 L357 337 C319 384 283 403 230 403 C121 403 33 311 33 199 C33 83 119 -10 225 -10 C281 -10 316 9 357 63 L357 -242 Z M246 373 C315 373 361 308 361 210 C361 162 348 106 329 73 C311 42 274 20 240 20 C224 20 210 25 198 36 C176 55 163 112 163 187 C163 321 186 373 246 373 L246 373 Z " />
<glyph glyph-name="r" unicode="r" horiz-adv-x="433" d="M89 25 L19 25 L19 0 L296 0 L296 25 L209 25 L209 200 C209 255 218 285 247 322 C265 346 294 367 309 367 C313 367 317 363 317 359 C317 356 316 354 313 352 C300 340 296 331 296 317 C296 285 323 261 357 261 C395 261 423 288 423 325 C423 369 386 403 337 403 C284 403 239 373 209 318 L209 404 C166 396 134 394 48 393 L19 393 L19 368 L89 368 L89 25 Z " />
<glyph glyph-name="s" unicode="s" horiz-adv-x="391" d="M329 403 L303 403 C301 383 297 376 287 376 C282 376 272 379 261 383 C232 396 202 403 175 403 C101 403 40 345 40 275 C40 242 56 209 83 188 C103 172 135 160 194 146 C272 129 297 112 297 78 C297 44 257 17 208 17 C129 17 69 70 62 146 L35 146 L35 0 L62 0 C63 17 68 26 79 26 C84 26 89 24 99 18 C130 -1 164 -10 201 -10 C292 -10 359 50 359 134 C359 169 345 200 320 220 C298 237 248 254 167 273 C126 282 106 299 106 325 C106 354 136 376 178 376 C243 376 293 340 303 286 L329 286 L329 403 Z " />
<glyph glyph-name="t" unicode="t" horiz-adv-x="320" d="M73 368 L73 89 C73 23 107 -10 176 -10 C254 -10 300 25 317 97 L287 102 C274 55 258 37 230 37 C205 37 193 54 193 89 L193 368 L286 368 L286 393 L193 393 L193 564 L166 564 C132 482 76 419 4 384 L4 368 L73 368 Z " />
<glyph glyph-name="u" unicode="u" horiz-adv-x="552" d="M359 0 L549 0 L549 25 L479 25 L479 404 C435 396 403 394 318 393 L283 393 L283 368 L359 368 L359 171 C359 129 355 107 344 88 C324 56 286 33 250 33 C232 33 214 42 207 55 C201 66 200 73 200 110 L200 404 C156 396 124 394 39 393 L4 393 L4 368 L80 368 L80 133 C80 85 84 61 95 40 C114 7 151 -10 204 -10 C267 -10 311 12 359 69 L359 0 Z " />
<glyph glyph-name="v" unicode="v" horiz-adv-x="468" d="M165 368 L231 368 L231 393 L-13 393 L-13 368 L34 368 L222 -13 L250 -13 L393 320 C414 366 415 367 456 368 L480 368 L480 393 L302 393 L302 368 L341 368 C364 368 374 364 374 354 C374 348 371 339 367 329 L282 132 L165 368 Z " />
<glyph glyph-name="w" unicode="w" horiz-adv-x="673" d="M172 368 L241 368 L241 393 L-13 393 L-13 368 L37 368 L198 -13 L224 -13 L327 237 L441 -13 L464 -13 L597 322 C614 363 619 367 661 368 L685 368 L685 393 L507 393 L507 368 L550 368 C569 368 577 364 577 355 C577 351 574 341 570 329 L501 149 L396 393 L364 393 L262 149 L172 368 Z " />
<glyph glyph-name="x" unicode="x" horiz-adv-x="512" d="M206 168 L110 69 C72 31 62 25 28 25 L-2 25 L-2 0 L181 0 L181 25 L138 25 C125 25 120 27 120 33 C120 39 126 47 142 64 L222 148 L317 25 L257 25 L257 0 L510 0 L510 25 L467 25 L302 234 L402 339 C426 364 435 367 473 368 L493 368 L493 393 L317 393 L317 368 L347 368 C375 368 379 366 379 359 C379 355 378 353 365 339 L286 254 L195 368 L257 368 L257 393 L-2 393 L-2 368 L46 368 L206 168 Z " />
<glyph glyph-name="y" unicode="y" horiz-adv-x="469" d="M220 2 L170 -126 C149 -179 136 -200 124 -200 C118 -200 115 -198 110 -191 C92 -168 77 -158 55 -158 C25 -158 1 -182 1 -211 C1 -245 30 -270 69 -270 C120 -270 148 -240 191 -139 L393 329 C409 364 415 367 456 368 L481 368 L481 393 L303 393 L303 368 L336 368 C360 368 369 364 369 352 C369 347 366 335 360 322 L284 145 L178 368 L229 368 L229 393 L-13 393 L-13 368 L39 368 L220 2 Z " />
<glyph glyph-name="z" unicode="z" horiz-adv-x="452" d="M414 393 L58 393 L53 246 L77 246 C97 336 143 373 228 368 L274 368 L28 20 L28 0 L414 0 L424 163 L396 163 C371 64 320 21 230 25 L170 25 L414 373 L414 393 Z " />
<glyph glyph-name="braceleft" unicode="&#x7b;" horiz-adv-x="314" d="M19 247 C71 241 74 235 75 105 L75 22 C73 -158 97 -182 275 -180 L275 -155 C190 -151 178 -132 180 7 L180 103 C183 210 161 250 93 256 L93 260 C118 260 136 269 155 288 C176 312 179 325 180 403 L180 495 C176 603 198 636 275 642 L275 667 C157 664 142 661 112 636 C80 601 73 570 75 469 L75 398 C73 283 68 271 19 269 L19 247 Z " />
<glyph glyph-name="bar" unicode="&#x7c;" horiz-adv-x="520" d="M215 667 L215 -167 L306 -167 L306 667 L215 667 Z " />
<glyph glyph-name="braceright" unicode="&#x7d;" horiz-adv-x="314" d="M295 269 C245 271 240 283 239 398 L239 469 C243 630 212 667 73 666 C67 666 55 666 39 667 L39 642 C79 641 106 626 122 597 C132 578 134 560 134 495 L134 403 C133 339 137 316 153 294 C173 270 193 260 221 260 L221 256 C153 249 131 211 134 103 L134 7 C135 -131 123 -151 39 -155 L39 -180 C217 -182 241 -157 239 22 L239 105 C240 235 243 242 295 247 L295 269 Z " />
<glyph glyph-name="asciitilde" unicode="&#x7e;" horiz-adv-x="509" d="M112 284 C131 309 148 320 171 320 C189 320 219 313 249 301 C272 292 292 287 306 287 C327 287 354 300 373 317 C387 331 396 342 415 372 L396 382 C379 357 364 347 347 347 C332 347 307 354 280 365 C255 375 230 381 210 381 C165 381 128 353 93 293 L112 284 Z " />
<glyph glyph-name="uni00A0" unicode="&#xa0;" horiz-adv-x="250" d="" />
<glyph glyph-name="exclamdown" unicode="&#xa1;" horiz-adv-x="304" d="M151 181 L139 181 C138 70 128 17 81 -137 C74 -159 70 -180 70 -193 C70 -237 105 -270 151 -270 C198 -270 233 -237 233 -193 C233 -180 229 -159 222 -136 C174 20 165 68 164 181 L151 181 Z M153 415 C109 415 73 381 73 339 C73 296 109 262 153 262 C197 262 234 296 234 337 C234 381 199 415 153 415 L153 415 Z " />
<glyph glyph-name="cent" unicode="&#xa2;" horiz-adv-x="525" d="M263 41 L297 41 L297 136 C378 142 438 182 470 251 L445 264 C411 199 359 165 297 166 L297 522 C332 521 345 517 362 501 C337 484 324 463 324 437 C324 403 352 377 389 377 C426 377 456 406 456 441 C456 500 387 547 297 549 L297 639 L263 639 L263 547 C142 527 62 444 62 338 C62 233 144 151 263 137 L263 41 Z M263 173 C235 183 224 192 213 212 C199 238 192 278 192 336 C192 456 209 499 263 517 L263 173 Z " />
<glyph glyph-name="sterling" unicode="&#xa3;" horiz-adv-x="525" d="M187 271 C233 222 243 202 243 161 C243 149 242 141 236 127 C189 143 154 150 114 150 C47 150 -8 113 -8 67 C-8 24 42 -10 104 -10 C151 -10 178 -1 236 34 C283 2 337 -18 382 -18 C473 -18 527 54 526 173 L495 173 C494 143 490 127 478 108 C463 85 436 69 411 69 C384 69 342 81 291 104 C305 134 311 160 311 196 C311 226 307 247 297 271 L423 271 L423 307 L281 307 C272 320 272 320 225 376 C194 412 172 471 172 516 C172 589 230 649 300 649 C328 649 353 640 372 625 C383 615 393 601 393 594 C393 589 390 586 383 582 C357 567 342 546 342 524 C342 491 373 464 411 464 C451 464 482 495 482 536 C482 617 390 680 273 680 C139 680 42 604 42 499 C42 433 77 373 152 307 L46 307 L46 271 L187 271 Z M195 58 C174 38 136 26 98 26 C61 26 31 44 31 68 C31 85 49 98 72 98 C107 98 153 83 195 58 L195 58 Z " />
<glyph glyph-name="currency" unicode="&#xa4;" horiz-adv-x="525" d="M399 485 C360 516 312 532 262 532 C212 532 167 516 126 485 L56 552 L28 525 L98 459 C66 421 49 376 49 328 C49 281 65 239 98 198 L28 132 L56 106 L125 172 C164 142 213 125 262 125 C312 125 361 142 399 172 L469 106 L497 132 L427 198 C459 236 476 281 476 329 C476 376 460 420 427 459 L497 525 L469 552 L399 485 Z M262 457 C339 457 401 399 401 329 C401 257 339 200 260 200 C186 200 124 258 124 329 C124 400 186 457 262 457 L262 457 Z " />
<glyph glyph-name="yen" unicode="&#xa5;" horiz-adv-x="525" d="M196 298 L196 25 L108 25 L108 0 L420 0 L420 25 L326 25 L326 298 L477 298 L477 323 L343 323 L385 431 L501 431 L501 456 L394 456 L439 569 C455 609 466 616 510 618 L520 618 L520 643 L339 643 L339 618 L385 618 L398 619 C409 619 417 613 417 604 C417 598 416 596 408 577 L313 344 L197 618 L281 618 L281 643 L-12 643 L-12 618 L40 618 L119 456 L18 456 L18 431 L131 431 L183 323 L46 323 L46 298 L196 298 Z " />
<glyph glyph-name="brokenbar" unicode="&#xa6;" horiz-adv-x="520" d="M215 667 L215 316 L306 316 L306 667 L215 667 Z M215 153 L215 -167 L306 -167 L306 153 L215 153 Z " />
<glyph glyph-name="section" unicode="&#xa7;" horiz-adv-x="525" d="M367 108 C443 140 483 193 483 264 C483 296 471 329 453 347 C427 373 424 375 296 445 C194 499 194 499 178 516 C166 528 158 547 158 565 C158 617 208 653 279 653 C326 653 371 634 371 614 C371 609 367 605 361 602 C330 591 316 574 316 550 C316 522 343 499 376 499 C414 499 442 526 442 564 C442 629 366 680 267 680 C227 680 194 672 165 655 C115 626 83 574 83 523 C83 478 102 443 150 403 C77 368 42 319 42 252 C42 216 54 184 75 160 C90 144 108 132 147 111 C180 93 207 79 225 69 C262 49 287 35 299 29 C368 -5 391 -30 391 -68 C391 -124 330 -166 248 -166 C192 -166 117 -139 117 -118 C117 -114 121 -111 132 -109 C164 -103 186 -79 186 -49 C186 -14 159 12 122 12 C84 12 53 -20 53 -60 C53 -137 135 -193 250 -193 C377 -193 470 -124 470 -30 C470 33 436 78 367 108 L367 108 Z M171 216 C123 241 99 268 99 297 C99 337 136 375 175 375 C194 375 207 371 239 353 C274 333 303 317 321 309 C397 272 423 245 423 206 C423 170 390 139 351 139 C323 139 291 151 222 189 L171 216 Z " />
<glyph glyph-name="dieresis" unicode="&#xa8;" horiz-adv-x="385" d="M95 610 C61 610 33 582 33 549 C33 514 60 487 95 487 C129 487 156 515 156 549 C156 583 129 610 95 610 L95 610 Z M290 610 C256 610 228 582 228 549 C228 514 255 487 290 487 C324 487 351 515 351 549 C351 583 324 610 290 610 L290 610 Z " />
<glyph glyph-name="copyright" unicode="&#xa9;" horiz-adv-x="824" d="M412 684 C207 684 40 527 40 333 C40 143 207 -17 405 -17 C615 -17 783 137 783 331 C783 527 618 684 412 684 L412 684 Z M412 644 C591 644 735 505 735 331 C735 160 589 23 406 23 C233 23 88 165 88 333 C88 505 233 644 412 644 L412 644 Z M560 523 L538 523 L527 502 C501 523 468 533 429 533 C313 533 218 440 218 326 C218 216 306 134 425 134 C466 134 494 144 525 168 L542 143 L564 143 L570 254 L547 254 C525 191 480 156 422 156 C386 156 357 170 344 195 C329 221 326 243 326 310 C326 410 329 438 345 468 C359 495 391 511 433 511 C491 511 526 482 542 419 L565 419 L560 523 Z " />
<glyph glyph-name="ordfeminine" unicode="&#xaa;" horiz-adv-x="350" d="M341 330 L9 330 L9 297 L341 297 L341 330 Z M313 444 C307 435 301 432 295 432 C287 432 284 438 284 457 L284 578 C284 614 282 624 275 635 C259 659 220 674 172 674 C107 674 58 643 58 603 C58 582 74 566 93 566 C116 566 134 582 134 603 C134 611 132 618 126 627 C123 631 122 634 122 636 C122 645 138 651 160 651 C180 651 193 646 197 637 C202 626 202 625 203 574 L203 560 C96 552 35 515 35 458 C35 419 66 393 112 393 C148 393 182 408 205 435 C219 411 240 397 265 397 C288 397 310 408 328 429 L313 444 Z M202 506 C202 453 190 433 159 433 C133 433 115 453 115 480 C115 517 145 536 202 537 L202 506 Z " />
<glyph glyph-name="guillemotleft" unicode="&#xab;" horiz-adv-x="388" d="M42 213 L128 113 L210 113 L128 213 L210 303 L128 303 L42 213 Z M172 213 L257 113 L339 113 L257 213 L339 303 L257 303 L172 213 Z " />
<glyph glyph-name="logicalnot" unicode="&#xac;" horiz-adv-x="525" d="M343 0 L492 0 L492 267 L32 267 L32 203 L343 203 L343 0 Z " />
<glyph glyph-name="uni00AD" unicode="&#xad;" horiz-adv-x="226" d="M0 250 L0 167 L226 167 L226 250 L0 250 Z " />
<glyph glyph-name="registered" unicode="&#xae;" horiz-adv-x="824" d="M412 684 C207 684 40 527 40 333 C40 143 207 -17 405 -17 C615 -17 783 137 783 331 C783 527 618 684 412 684 L412 684 Z M412 644 C591 644 735 505 735 331 C735 160 589 23 406 23 C233 23 88 165 88 333 C88 505 233 644 412 644 L412 644 Z M265 164 L214 164 L214 143 L413 143 L413 164 L357 164 L357 335 L392 335 C442 337 455 321 461 254 C466 172 492 141 556 141 C581 141 602 145 631 154 L631 176 C613 170 606 169 596 169 C574 169 569 180 569 222 C572 282 541 321 474 343 C538 349 578 383 578 433 C578 463 562 489 536 503 C503 520 482 523 405 523 L214 523 L214 502 L265 502 L265 164 Z M357 356 L357 502 L405 502 C469 502 484 489 484 435 C484 371 469 356 405 356 L357 356 Z " />
<glyph glyph-name="macron" unicode="&#xaf;" horiz-adv-x="512" d="M123 563 L123 516 L390 516 L390 563 L123 563 Z " />
<glyph glyph-name="degree" unicode="&#xb0;" horiz-adv-x="400" d="M203 686 C117 686 50 619 50 534 C50 448 116 380 200 380 C284 380 350 447 350 533 C350 619 286 686 203 686 L203 686 Z M202 629 C252 629 293 586 293 533 C293 479 252 437 200 437 C148 437 106 480 106 532 C106 587 148 629 202 629 L202 629 Z " />
<glyph glyph-name="plusminus" unicode="&#xb1;" horiz-adv-x="525" d="M246 307 L246 128 L279 128 L279 307 L479 307 L479 340 L279 340 L279 519 L246 519 L246 340 L47 340 L47 307 L246 307 Z M47 13 L479 13 L479 46 L47 46 L47 13 Z " />
<glyph glyph-name="twosuperior" unicode="&#xb2;" horiz-adv-x="354" d="M311 387 L286 387 C284 363 282 347 279 337 C277 333 271 331 252 331 L93 331 L161 376 C224 417 270 460 297 502 C304 514 308 530 308 547 C308 605 251 650 178 650 C98 650 37 603 37 541 C37 509 60 484 90 484 C114 484 134 502 134 524 C134 548 110 566 78 565 C70 565 68 566 68 570 C68 574 73 582 81 592 C97 609 117 618 140 618 C182 618 212 585 212 537 C212 512 207 488 199 474 C174 431 124 381 53 328 C45 322 38 317 26 307 L26 257 L303 257 L311 387 Z " />
<glyph glyph-name="threesuperior" unicode="&#xb3;" horiz-adv-x="354" d="M85 454 C98 455 106 455 114 455 C186 455 215 431 215 373 C215 308 188 275 136 275 C114 275 88 284 88 292 C88 294 90 296 94 298 C110 305 121 321 121 337 C121 361 101 380 76 380 L75 380 C50 380 30 360 30 335 C30 288 83 252 153 252 C242 252 313 304 313 370 C313 423 273 457 196 469 C260 490 290 520 290 564 C290 615 238 650 164 650 C97 650 49 619 49 577 C49 552 67 533 92 533 C116 533 133 548 133 569 C133 586 123 603 108 610 C105 612 103 613 103 614 C103 620 128 629 146 629 C184 629 200 609 200 564 C200 502 176 478 114 478 L85 479 L85 454 Z " />
<glyph glyph-name="acute" unicode="&#xb4;" horiz-adv-x="516" d="M288 621 L208 480 L225 471 L385 596 L385 621 L288 621 Z " />
<glyph glyph-name="mu" unicode="&#xb5;" horiz-adv-x="576" d="M442 500 L353 500 L354 131 C318 80 284 58 242 58 C184 58 150 99 150 169 L150 500 L62 500 L62 20 C62 -1 58 -26 51 -56 C34 -118 33 -123 33 -147 C33 -190 54 -219 83 -219 C112 -219 132 -189 132 -145 C132 -124 129 -110 113 -53 C102 -17 101 -8 101 21 L101 33 C143 -3 165 -13 200 -13 C250 -13 301 18 354 80 C362 48 367 36 377 21 C392 0 419 -13 449 -13 C510 -13 553 31 567 108 L540 109 C536 71 515 41 492 41 C462 41 442 77 442 131 L442 500 Z " />
<glyph glyph-name="paragraph" unicode="&#xb6;" horiz-adv-x="525" d="M240 -155 L157 -155 L157 -180 L498 -180 L498 -155 L433 -155 L433 642 L498 642 L498 667 L240 667 C173 667 116 650 84 619 C47 585 26 535 26 483 C26 374 106 301 226 301 L240 301 L240 -155 Z M295 -155 L295 642 L378 642 L378 -155 L295 -155 Z " />
<glyph glyph-name="periodcentered" unicode="&#xb7;" horiz-adv-x="273" d="M137 280 C93 280 56 246 56 205 C56 161 92 127 137 127 C181 127 217 161 217 204 C217 246 181 280 137 280 L137 280 Z " />
<glyph glyph-name="cedilla" unicode="&#xb8;" horiz-adv-x="525" d="M288 0 L262 0 L234 -72 C272 -74 295 -94 295 -125 C295 -154 270 -180 241 -180 C223 -180 203 -165 203 -151 C203 -149 203 -148 204 -145 C206 -140 207 -136 207 -134 C207 -123 195 -114 182 -114 C166 -114 155 -125 155 -140 C155 -172 196 -197 249 -197 C314 -197 370 -159 370 -115 C370 -77 333 -49 282 -49 C280 -49 274 -49 269 -50 L288 0 Z " />
<glyph glyph-name="onesuperior" unicode="&#xb9;" horiz-adv-x="354" d="M145 280 L70 280 L70 257 L307 257 L307 280 L236 280 L236 655 C201 646 172 643 131 643 L90 643 L70 643 L70 620 L145 620 L145 280 Z " />
<glyph glyph-name="ordmasculine" unicode="&#xba;" horiz-adv-x="350" d="M341 330 L9 330 L9 297 L341 297 L341 330 Z M176 674 C88 674 20 613 20 533 C20 455 88 393 175 393 C261 393 330 455 330 532 C330 612 263 674 176 674 L176 674 Z M175 651 C197 651 217 641 225 627 C234 610 237 580 237 517 C237 443 221 416 175 416 C150 416 131 427 122 446 C116 460 113 492 113 546 C113 625 128 651 175 651 L175 651 Z " />
<glyph glyph-name="guillemotright" unicode="&#xbb;" horiz-adv-x="388" d="M346 203 L261 303 L179 303 L261 203 L179 113 L261 113 L346 203 Z M217 203 L131 303 L49 303 L131 203 L49 113 L131 113 L217 203 Z " />
<glyph glyph-name="onequarter" unicode="&#xbc;" horiz-adv-x="822" d="M145 280 L70 280 L70 257 L307 257 L307 280 L236 280 L236 655 C201 646 172 643 131 643 L90 643 L70 643 L70 620 L145 620 L145 280 Z M605 643 L561 643 L259 0 L303 0 L605 643 Z M635 100 L635 23 L586 23 L586 0 L777 0 L777 23 L727 23 L727 100 L757 100 C782 99 783 98 784 79 L784 65 L808 65 L808 161 L784 161 L784 148 C783 125 783 125 757 124 L727 124 L727 386 L674 386 L483 122 L483 100 L635 100 Z M637 124 L516 124 L637 293 L637 124 Z " />
<glyph glyph-name="onehalf" unicode="&#xbd;" horiz-adv-x="822" d="M145 280 L70 280 L70 257 L307 257 L307 280 L236 280 L236 655 C201 646 172 643 131 643 L90 643 L70 643 L70 620 L145 620 L145 280 Z M584 643 L540 643 L238 0 L282 0 L584 643 Z M779 130 L754 130 C752 106 750 89 747 80 C745 76 739 74 720 74 L561 74 C589 92 596 97 629 119 C692 159 738 202 765 245 C772 257 776 272 776 290 C776 347 719 392 646 392 C566 392 505 345 505 283 C505 251 528 226 558 226 C582 226 602 244 602 266 C602 289 580 307 552 307 L546 307 C544 306 542 306 541 306 C538 306 536 308 536 311 C536 315 541 324 549 333 C565 351 585 360 608 360 C650 360 680 327 680 280 C680 254 675 231 667 216 C643 174 592 124 521 71 C507 61 502 56 494 50 L494 0 L771 0 L779 130 Z " />
<glyph glyph-name="threequarters" unicode="&#xbe;" horiz-adv-x="822" d="M85 454 C98 455 106 455 114 455 C186 455 215 431 215 373 C215 308 188 275 136 275 C114 275 88 284 88 292 C88 294 90 296 94 298 C110 305 121 321 121 337 C121 361 101 380 76 380 L75 380 C50 380 30 360 30 335 C30 288 83 252 153 252 C242 252 313 304 313 370 C313 423 273 457 196 469 C260 490 290 520 290 564 C290 615 238 650 164 650 C97 650 49 619 49 577 C49 552 67 533 92 533 C116 533 133 548 133 569 C133 586 123 603 108 610 C105 612 103 613 103 614 C103 620 128 629 146 629 C184 629 200 609 200 564 C200 502 176 478 114 478 L85 479 L85 454 Z M605 643 L561 643 L259 0 L303 0 L605 643 Z M635 100 L635 23 L586 23 L586 0 L777 0 L777 23 L727 23 L727 100 L757 100 C782 99 783 98 784 79 L784 65 L808 65 L808 161 L784 161 L784 148 C783 125 783 125 757 124 L727 124 L727 386 L674 386 L483 122 L483 100 L635 100 Z M637 124 L516 124 L637 293 L637 124 Z " />
<glyph glyph-name="questiondown" unicode="&#xbf;" horiz-adv-x="414" d="M245 204 C250 192 252 185 252 178 C252 145 230 117 178 86 C77 26 33 -33 33 -107 C33 -197 112 -270 209 -270 C298 -270 383 -206 383 -139 C383 -105 358 -80 323 -80 C287 -80 260 -103 260 -133 C260 -158 274 -174 309 -189 C324 -195 324 -195 324 -199 C324 -217 262 -243 220 -243 C160 -243 117 -210 117 -163 C117 -135 128 -119 168 -86 C251 -16 285 40 285 110 C285 139 278 171 266 204 L245 204 Z M249 415 C205 415 169 381 169 338 C169 296 205 262 250 262 C293 262 330 296 330 337 C330 381 294 415 249 415 L249 415 Z " />
<glyph glyph-name="Agrave" unicode="&#xc0;" horiz-adv-x="659" d="M293 846 L159 846 L159 821 L412 726 L424 740 L293 846 Z M385 179 L442 25 L352 25 L352 0 L665 0 L665 25 L591 25 L352 667 L319 667 L98 82 C81 30 75 26 25 25 L-11 25 L-11 0 L206 0 L206 25 L150 25 C126 25 115 29 115 38 C115 43 118 54 123 67 L165 179 L385 179 Z M375 204 L175 204 L274 469 L375 204 Z " />
<glyph glyph-name="Aacute" unicode="&#xc1;" horiz-adv-x="659" d="M426 846 L295 740 L306 726 L560 821 L560 846 L426 846 Z M385 179 L442 25 L352 25 L352 0 L665 0 L665 25 L591 25 L352 667 L319 667 L98 82 C81 30 75 26 25 25 L-11 25 L-11 0 L206 0 L206 25 L150 25 C126 25 115 29 115 38 C115 43 118 54 123 67 L165 179 L385 179 Z M375 204 L175 204 L274 469 L375 204 Z " />
<glyph glyph-name="Acircumflex" unicode="&#xc2;" horiz-adv-x="659" d="M177 726 L334 775 L491 726 L505 742 L352 846 L316 846 L163 742 L177 726 Z M385 179 L442 25 L352 25 L352 0 L665 0 L665 25 L591 25 L352 667 L319 667 L98 82 C81 30 75 26 25 25 L-11 25 L-11 0 L206 0 L206 25 L150 25 C126 25 115 29 115 38 C115 43 118 54 123 67 L165 179 L385 179 Z M375 204 L175 204 L274 469 L375 204 Z " />
<glyph glyph-name="Atilde" unicode="&#xc3;" horiz-adv-x="659" d="M198 737 C218 762 235 773 258 773 C276 773 306 766 336 754 C359 745 379 740 393 740 C414 740 441 753 460 770 C474 784 482 795 502 825 L483 836 C466 810 451 800 434 800 C419 800 394 807 367 818 C341 828 317 834 297 834 C252 834 215 806 180 746 L198 737 Z M385 179 L442 25 L352 25 L352 0 L665 0 L665 25 L591 25 L352 667 L319 667 L98 82 C81 30 75 26 25 25 L-11 25 L-11 0 L206 0 L206 25 L150 25 C126 25 115 29 115 38 C115 43 118 54 123 67 L165 179 L385 179 Z M375 204 L175 204 L274 469 L375 204 Z " />
<glyph glyph-name="Adieresis" unicode="&#xc4;" horiz-adv-x="659" d="M221 850 C188 850 160 822 160 789 C160 755 187 727 222 727 C255 727 283 755 283 789 C283 823 256 850 221 850 L221 850 Z M450 850 C417 850 389 822 389 789 C389 755 416 727 451 727 C484 727 512 755 512 789 C512 823 485 850 450 850 L450 850 Z M385 179 L442 25 L352 25 L352 0 L665 0 L665 25 L591 25 L352 667 L319 667 L98 82 C81 30 75 26 25 25 L-11 25 L-11 0 L206 0 L206 25 L150 25 C126 25 115 29 115 38 C115 43 118 54 123 67 L165 179 L385 179 Z M375 204 L175 204 L274 469 L375 204 Z " />
<glyph glyph-name="Aring" unicode="&#xc5;" horiz-adv-x="659" d="M334 877 C286 877 246 840 246 795 C246 748 285 710 333 710 C383 710 422 747 422 794 C422 840 383 877 334 877 L334 877 Z M334 838 C360 838 380 818 380 794 C380 769 359 749 334 749 C308 749 288 769 288 794 C288 818 309 838 334 838 L334 838 Z M385 179 L442 25 L352 25 L352 0 L665 0 L665 25 L591 25 L352 667 L319 667 L98 82 C81 30 75 26 25 25 L-11 25 L-11 0 L206 0 L206 25 L150 25 C126 25 115 29 115 38 C115 43 118 54 123 67 L165 179 L385 179 Z M375 204 L175 204 L274 469 L375 204 Z " />
<glyph glyph-name="AE" unicode="&#xc6;" horiz-adv-x="973" d="M430 182 L430 25 L346 25 L346 0 L922 0 L936 212 L908 212 C873 64 822 24 672 25 L570 25 L570 326 L598 326 C700 324 727 298 732 197 L761 197 L761 469 L732 469 C731 383 695 349 601 351 L570 351 L570 642 L698 642 C814 646 861 609 887 497 L915 497 L898 667 L344 667 L344 642 L382 642 C408 642 417 638 417 627 C417 620 413 610 404 596 L84 64 C63 34 44 24 5 25 L-21 25 L-21 0 L199 0 L199 25 L155 25 C120 25 111 29 111 43 C111 49 114 57 122 70 L189 182 L430 182 Z M430 207 L206 207 L430 582 L430 207 Z " />
<glyph glyph-name="Ccedilla" unicode="&#xc7;" horiz-adv-x="650" d="M380 -17 C446 -15 491 3 539 48 L568 0 L596 0 L605 186 L577 186 C540 74 465 10 369 10 C310 10 261 36 238 78 C213 126 206 169 206 278 L206 299 C207 488 212 526 240 580 C265 628 320 657 386 657 C482 657 542 603 569 493 L597 493 L589 667 L561 667 L542 626 C499 665 446 684 380 684 C192 684 40 521 40 320 C40 136 162 2 348 -16 L324 -76 C363 -87 375 -98 375 -122 C375 -156 351 -180 318 -180 C295 -180 273 -167 273 -153 C273 -152 274 -148 276 -144 C280 -137 282 -131 282 -126 C283 -114 271 -104 257 -104 C240 -104 226 -118 226 -135 C226 -176 279 -207 346 -207 C420 -207 474 -172 474 -125 C474 -86 439 -59 387 -59 C382 -59 374 -60 363 -62 L380 -17 Z " />
<glyph glyph-name="Egrave" unicode="&#xc8;" horiz-adv-x="658" d="M305 846 L171 846 L171 821 L424 726 L436 740 L305 846 Z M116 25 L32 25 L32 0 L608 0 L622 212 L594 212 C559 64 508 23 358 25 L256 25 L256 326 L284 326 C386 324 413 298 418 197 L447 197 L447 469 L418 469 C417 383 380 350 287 351 L256 351 L256 642 L384 642 C500 646 547 609 573 497 L601 497 L584 667 L32 667 L32 642 L116 642 L116 25 Z " />
<glyph glyph-name="Eacute" unicode="&#xc9;" horiz-adv-x="658" d="M403 846 L272 740 L283 726 L537 821 L537 846 L403 846 Z M116 25 L32 25 L32 0 L608 0 L622 212 L594 212 C559 64 508 23 358 25 L256 25 L256 326 L284 326 C386 324 413 298 418 197 L447 197 L447 469 L418 469 C417 383 380 350 287 351 L256 351 L256 642 L384 642 C500 646 547 609 573 497 L601 497 L584 667 L32 667 L32 642 L116 642 L116 25 Z " />
<glyph glyph-name="Ecircumflex" unicode="&#xca;" horiz-adv-x="658" d="M186 726 L343 775 L500 726 L514 742 L361 846 L326 846 L173 742 L186 726 Z M116 25 L32 25 L32 0 L608 0 L622 212 L594 212 C559 64 508 23 358 25 L256 25 L256 326 L284 326 C386 324 413 298 418 197 L447 197 L447 469 L418 469 C417 383 380 350 287 351 L256 351 L256 642 L384 642 C500 646 547 609 573 497 L601 497 L584 667 L32 667 L32 642 L116 642 L116 25 Z " />
<glyph glyph-name="Edieresis" unicode="&#xcb;" horiz-adv-x="658" d="M216 850 C182 850 154 822 154 789 C154 755 181 727 216 727 C249 727 277 755 277 789 C277 823 250 850 216 850 L216 850 Z M445 850 C411 850 383 822 383 789 C383 755 410 727 445 727 C478 727 506 755 506 789 C506 823 479 850 445 850 L445 850 Z M116 25 L32 25 L32 0 L608 0 L622 212 L594 212 C559 64 508 23 358 25 L256 25 L256 326 L284 326 C386 324 413 298 418 197 L447 197 L447 469 L418 469 C417 383 380 350 287 351 L256 351 L256 642 L384 642 C500 646 547 609 573 497 L601 497 L584 667 L32 667 L32 642 L116 642 L116 25 Z " />
<glyph glyph-name="Igrave" unicode="&#xcc;" horiz-adv-x="371" d="M116 25 L32 25 L32 0 L340 0 L340 25 L256 25 L256 642 L340 642 L340 667 L32 667 L32 642 L116 642 L116 25 Z M167 846 L33 846 L33 821 L286 726 L298 740 L167 846 Z " />
<glyph glyph-name="Iacute" unicode="&#xcd;" horiz-adv-x="371" d="M116 25 L32 25 L32 0 L340 0 L340 25 L256 25 L256 642 L340 642 L340 667 L32 667 L32 642 L116 642 L116 25 Z M249 846 L118 740 L130 726 L383 821 L383 846 L249 846 Z " />
<glyph glyph-name="Icircumflex" unicode="&#xce;" horiz-adv-x="371" d="M116 25 L32 25 L32 0 L340 0 L340 25 L256 25 L256 642 L340 642 L340 667 L32 667 L32 642 L116 642 L116 25 Z M29 726 L186 775 L343 726 L356 742 L203 846 L168 846 L15 742 L29 726 Z " />
<glyph glyph-name="Idieresis" unicode="&#xcf;" horiz-adv-x="371" d="M116 25 L32 25 L32 0 L340 0 L340 25 L256 25 L256 642 L340 642 L340 667 L32 667 L32 642 L116 642 L116 25 Z M97 850 C63 850 35 822 35 789 C35 755 62 727 97 727 C130 727 158 755 158 789 C158 823 131 850 97 850 L97 850 Z M275 850 C242 850 214 822 214 789 C214 755 241 727 276 727 C309 727 337 755 337 789 C337 823 310 850 275 850 L275 850 Z " />
<glyph glyph-name="Eth" unicode="&#xd0;" horiz-adv-x="748" d="M117 355 L32 355 L32 330 L117 330 L117 25 L32 25 L32 0 L355 0 C419 0 448 1 467 4 C518 11 566 34 605 71 C672 133 708 225 708 332 C708 466 651 577 553 633 C504 661 471 667 354 667 L32 667 L32 642 L117 642 L117 355 Z M257 355 L257 642 L355 642 C390 642 413 640 428 636 C460 627 487 605 504 574 C532 526 541 468 541 334 C541 199 532 141 504 93 C475 41 440 25 355 25 L257 25 L257 330 L410 330 L410 355 L257 355 Z " />
<glyph glyph-name="Ntilde" unicode="&#xd1;" horiz-adv-x="727" d="M238 737 C258 762 275 773 298 773 C316 773 346 766 376 754 C399 745 419 740 433 740 C454 740 481 753 500 770 C514 784 522 795 542 825 L523 836 C506 810 491 800 474 800 C459 800 434 807 407 818 C382 828 357 834 337 834 C292 834 255 806 220 746 L238 737 Z M595 -7 L619 -7 L619 570 C618 636 623 641 675 642 L703 642 L703 667 L503 667 L503 642 L531 642 C585 641 589 636 589 570 L589 241 L252 667 L25 667 L25 642 L53 642 C107 641 111 636 111 570 L111 97 C111 31 107 26 53 25 L25 25 L25 0 L238 0 L238 25 L197 25 C145 26 140 31 141 97 L141 585 L595 -7 Z " />
<glyph glyph-name="Ograve" unicode="&#xd2;" horiz-adv-x="769" d="M349 846 L214 846 L214 821 L468 726 L480 740 L349 846 Z M385 684 C296 684 214 653 155 599 C81 529 40 435 40 334 C40 246 73 159 130 94 C194 21 282 -17 384 -17 C473 -17 553 13 613 68 C684 134 728 234 728 328 C728 532 581 684 385 684 L385 684 Z M388 657 C449 657 494 635 521 592 C551 544 561 475 561 314 C561 204 549 124 525 82 C498 33 453 10 384 10 C309 10 263 37 236 95 C216 138 207 214 207 333 C207 446 215 522 233 565 C259 629 306 657 388 657 L388 657 Z " />
<glyph glyph-name="Oacute" unicode="&#xd3;" horiz-adv-x="769" d="M452 846 L321 740 L332 726 L586 821 L586 846 L452 846 Z M385 684 C296 684 214 653 155 599 C81 529 40 435 40 334 C40 246 73 159 130 94 C194 21 282 -17 384 -17 C473 -17 553 13 613 68 C684 134 728 234 728 328 C728 532 581 684 385 684 L385 684 Z M388 657 C449 657 494 635 521 592 C551 544 561 475 561 314 C561 204 549 124 525 82 C498 33 453 10 384 10 C309 10 263 37 236 95 C216 138 207 214 207 333 C207 446 215 522 233 565 C259 629 306 657 388 657 L388 657 Z " />
<glyph glyph-name="Ocircumflex" unicode="&#xd4;" horiz-adv-x="769" d="M231 726 L388 775 L545 726 L558 742 L405 846 L370 846 L217 742 L231 726 Z M385 684 C296 684 214 653 155 599 C81 529 40 435 40 334 C40 246 73 159 130 94 C194 21 282 -17 384 -17 C473 -17 553 13 613 68 C684 134 728 234 728 328 C728 532 581 684 385 684 L385 684 Z M388 657 C449 657 494 635 521 592 C551 544 561 475 561 314 C561 204 549 124 525 82 C498 33 453 10 384 10 C309 10 263 37 236 95 C216 138 207 214 207 333 C207 446 215 522 233 565 C259 629 306 657 388 657 L388 657 Z " />
<glyph glyph-name="Otilde" unicode="&#xd5;" horiz-adv-x="769" d="M255 737 C274 762 292 773 315 773 C333 773 362 766 393 754 C415 745 435 740 450 740 C470 740 498 753 516 770 C530 784 539 795 559 825 L540 836 C522 810 508 800 490 800 C476 800 451 807 423 818 C398 828 373 834 353 834 C308 834 271 806 236 746 L255 737 Z M385 684 C296 684 214 653 155 599 C81 529 40 435 40 334 C40 246 73 159 130 94 C194 21 282 -17 384 -17 C473 -17 553 13 613 68 C684 134 728 234 728 328 C728 532 581 684 385 684 L385 684 Z M388 657 C449 657 494 635 521 592 C551 544 561 475 561 314 C561 204 549 124 525 82 C498 33 453 10 384 10 C309 10 263 37 236 95 C216 138 207 214 207 333 C207 446 215 522 233 565 C259 629 306 657 388 657 L388 657 Z " />
<glyph glyph-name="Odieresis" unicode="&#xd6;" horiz-adv-x="769" d="M274 850 C241 850 213 822 213 789 C213 755 240 727 275 727 C308 727 336 755 336 789 C336 823 309 850 274 850 L274 850 Z M504 850 C471 850 443 822 443 789 C443 755 470 727 505 727 C538 727 566 755 566 789 C566 823 539 850 504 850 L504 850 Z M385 684 C296 684 214 653 155 599 C81 529 40 435 40 334 C40 246 73 159 130 94 C194 21 282 -17 384 -17 C473 -17 553 13 613 68 C684 134 728 234 728 328 C728 532 581 684 385 684 L385 684 Z M388 657 C449 657 494 635 521 592 C551 544 561 475 561 314 C561 204 549 124 525 82 C498 33 453 10 384 10 C309 10 263 37 236 95 C216 138 207 214 207 333 C207 446 215 522 233 565 C259 629 306 657 388 657 L388 657 Z " />
<glyph glyph-name="multiply" unicode="&#xd7;" horiz-adv-x="525" d="M263 300 L418 152 L442 175 L287 323 L442 471 L418 494 L263 346 L107 494 L83 471 L238 323 L83 175 L107 152 L263 300 Z " />
<glyph glyph-name="Oslash" unicode="&#xd8;" horiz-adv-x="769" d="M716 662 L693 683 L612 599 C548 657 475 684 386 684 C295 684 215 655 155 599 C83 532 40 434 40 334 C40 243 71 162 133 91 L52 5 L76 -17 L156 68 C221 10 293 -17 382 -17 C473 -17 553 12 613 68 C685 135 728 234 728 334 C728 423 697 505 635 577 L716 662 Z M553 494 C559 447 561 401 561 336 C561 189 548 109 516 67 C485 27 445 10 380 10 C294 10 243 51 223 134 L553 494 Z M215 173 C209 219 207 266 207 329 C207 446 215 522 233 565 C259 629 307 657 388 657 C474 657 526 616 545 532 L215 173 Z " />
<glyph glyph-name="Ugrave" unicode="&#xd9;" horiz-adv-x="702" d="M337 846 L202 846 L202 821 L456 726 L467 740 L337 846 Z M105 642 L105 213 C105 125 107 108 123 81 C158 21 250 -17 361 -17 C480 -17 562 25 590 101 C599 125 601 150 601 213 L601 570 C601 636 605 641 658 642 L685 642 L685 667 L485 667 L485 642 L513 642 C567 641 571 636 571 570 L571 214 C571 144 566 116 549 86 C524 43 470 18 398 18 C334 18 287 40 263 82 C249 106 245 136 245 213 L245 642 L347 642 L347 667 L21 667 L21 642 L105 642 Z " />
<glyph glyph-name="Uacute" unicode="&#xda;" horiz-adv-x="702" d="M454 846 L323 740 L334 726 L588 821 L588 846 L454 846 Z M105 642 L105 213 C105 125 107 108 123 81 C158 21 250 -17 361 -17 C480 -17 562 25 590 101 C599 125 601 150 601 213 L601 570 C601 636 605 641 658 642 L685 642 L685 667 L485 667 L485 642 L513 642 C567 641 571 636 571 570 L571 214 C571 144 566 116 549 86 C524 43 470 18 398 18 C334 18 287 40 263 82 C249 106 245 136 245 213 L245 642 L347 642 L347 667 L21 667 L21 642 L105 642 Z " />
<glyph glyph-name="Ucircumflex" unicode="&#xdb;" horiz-adv-x="702" d="M220 726 L377 775 L534 726 L548 742 L394 846 L359 846 L206 742 L220 726 Z M105 642 L105 213 C105 125 107 108 123 81 C158 21 250 -17 361 -17 C480 -17 562 25 590 101 C599 125 601 150 601 213 L601 570 C601 636 605 641 658 642 L685 642 L685 667 L485 667 L485 642 L513 642 C567 641 571 636 571 570 L571 214 C571 144 566 116 549 86 C524 43 470 18 398 18 C334 18 287 40 263 82 C249 106 245 136 245 213 L245 642 L347 642 L347 667 L21 667 L21 642 L105 642 Z " />
<glyph glyph-name="Udieresis" unicode="&#xdc;" horiz-adv-x="702" d="M264 850 C230 850 202 822 202 789 C202 755 229 727 264 727 C297 727 325 755 325 789 C325 823 298 850 264 850 L264 850 Z M494 850 C460 850 432 822 432 789 C432 755 459 727 494 727 C527 727 555 755 555 789 C555 823 528 850 494 850 L494 850 Z M105 642 L105 213 C105 125 107 108 123 81 C158 21 250 -17 361 -17 C480 -17 562 25 590 101 C599 125 601 150 601 213 L601 570 C601 636 605 641 658 642 L685 642 L685 667 L485 667 L485 642 L513 642 C567 641 571 636 571 570 L571 214 C571 144 566 116 549 86 C524 43 470 18 398 18 C334 18 287 40 263 82 C249 106 245 136 245 213 L245 642 L347 642 L347 667 L21 667 L21 642 L105 642 Z " />
<glyph glyph-name="Yacute" unicode="&#xdd;" horiz-adv-x="629" d="M427 846 L296 740 L308 726 L562 821 L562 846 L427 846 Z M244 25 L149 25 L149 0 L478 0 L478 25 L384 25 L384 307 L541 590 C564 634 573 640 617 642 L636 642 L636 667 L433 667 L433 642 L485 642 C512 642 522 638 522 627 C522 622 518 611 511 598 L376 351 L203 642 L300 642 L300 667 L-22 667 L-22 642 L42 642 L244 307 L244 25 Z " />
<glyph glyph-name="Thorn" unicode="&#xde;" horiz-adv-x="660" d="M116 25 L32 25 L32 0 L358 0 L358 25 L256 25 L256 200 L340 200 C468 200 509 206 555 232 C603 259 636 317 636 377 C636 437 603 496 553 523 C506 549 466 555 339 555 L256 555 L256 642 L358 642 L358 667 L32 667 L32 642 L116 642 L116 25 Z M256 225 L256 530 L338 530 C455 530 484 500 484 375 C484 263 448 225 339 225 L256 225 Z " />
<glyph glyph-name="germandbls" unicode="&#xdf;" horiz-adv-x="580" d="M11 25 L11 0 L263 0 L263 25 L201 25 L201 250 C201 289 203 303 213 318 C233 351 284 376 331 376 C377 376 414 346 414 308 C414 282 397 262 367 251 C352 245 345 244 308 244 L295 244 L279 244 L279 219 L315 219 C349 219 368 215 386 204 C415 188 432 153 432 114 C432 62 400 20 361 20 C348 20 337 27 337 35 C337 38 339 41 343 44 C362 60 366 68 366 82 C366 105 346 123 321 123 C292 123 270 102 270 74 C270 25 321 -10 392 -10 C479 -10 546 45 546 115 C546 173 499 215 420 228 C479 234 517 266 517 308 C517 337 499 364 469 381 C442 396 408 403 358 403 C287 403 246 389 201 349 L201 504 C201 569 204 592 215 612 C229 636 262 652 296 652 C321 652 345 642 345 631 C345 628 343 626 337 621 C326 613 320 602 320 589 C320 564 342 545 373 545 C404 545 429 568 429 597 C429 642 379 674 308 674 C225 674 143 634 112 578 C89 537 81 488 81 393 L81 25 L11 25 Z " />
<glyph glyph-name="agrave" unicode="&#xe0;" horiz-adv-x="480" d="M240 621 L143 621 L143 596 L303 471 L320 480 L240 621 Z M460 56 C450 45 441 40 431 40 C414 40 409 49 409 81 L409 263 C409 321 405 339 386 358 C359 386 304 403 240 403 C143 403 69 359 69 301 C69 272 92 249 121 249 C153 249 180 272 180 299 C180 311 176 321 165 333 C158 341 155 346 155 350 C155 365 183 376 222 376 C261 376 282 367 291 346 C296 335 296 335 297 258 L297 233 C128 221 33 167 33 84 C33 28 80 -10 149 -10 C208 -10 258 12 297 56 C318 16 349 -5 387 -5 C419 -5 452 11 477 40 L460 56 Z M297 156 C297 112 294 95 285 77 C273 55 249 42 221 42 C177 42 145 73 145 116 C145 175 197 205 297 206 L297 156 Z " />
<glyph glyph-name="aacute" unicode="&#xe1;" horiz-adv-x="480" d="M306 621 L226 480 L243 471 L403 596 L403 621 L306 621 Z M460 56 C450 45 441 40 431 40 C414 40 409 49 409 81 L409 263 C409 321 405 339 386 358 C359 386 304 403 240 403 C143 403 69 359 69 301 C69 272 92 249 121 249 C153 249 180 272 180 299 C180 311 176 321 165 333 C158 341 155 346 155 350 C155 365 183 376 222 376 C261 376 282 367 291 346 C296 335 296 335 297 258 L297 233 C128 221 33 167 33 84 C33 28 80 -10 149 -10 C208 -10 258 12 297 56 C318 16 349 -5 387 -5 C419 -5 452 11 477 40 L460 56 Z M297 156 C297 112 294 95 285 77 C273 55 249 42 221 42 C177 42 145 73 145 116 C145 175 197 205 297 206 L297 156 Z " />
<glyph glyph-name="acircumflex" unicode="&#xe2;" horiz-adv-x="480" d="M141 472 L256 534 L371 472 L385 485 L268 621 L244 621 L127 485 L141 472 Z M460 56 C450 45 441 40 431 40 C414 40 409 49 409 81 L409 263 C409 321 405 339 386 358 C359 386 304 403 240 403 C143 403 69 359 69 301 C69 272 92 249 121 249 C153 249 180 272 180 299 C180 311 176 321 165 333 C158 341 155 346 155 350 C155 365 183 376 222 376 C261 376 282 367 291 346 C296 335 296 335 297 258 L297 233 C128 221 33 167 33 84 C33 28 80 -10 149 -10 C208 -10 258 12 297 56 C318 16 349 -5 387 -5 C419 -5 452 11 477 40 L460 56 Z M297 156 C297 112 294 95 285 77 C273 55 249 42 221 42 C177 42 145 73 145 116 C145 175 197 205 297 206 L297 156 Z " />
<glyph glyph-name="atilde" unicode="&#xe3;" horiz-adv-x="480" d="M128 495 C145 518 159 527 178 527 C198 527 223 521 249 511 C275 500 285 497 297 497 C335 497 369 525 398 581 L378 591 C365 569 350 558 334 558 C321 558 300 564 276 574 C254 584 232 589 213 589 C174 589 144 565 108 505 L128 495 Z M460 56 C450 45 441 40 431 40 C414 40 409 49 409 81 L409 263 C409 321 405 339 386 358 C359 386 304 403 240 403 C143 403 69 359 69 301 C69 272 92 249 121 249 C153 249 180 272 180 299 C180 311 176 321 165 333 C158 341 155 346 155 350 C155 365 183 376 222 376 C261 376 282 367 291 346 C296 335 296 335 297 258 L297 233 C128 221 33 167 33 84 C33 28 80 -10 149 -10 C208 -10 258 12 297 56 C318 16 349 -5 387 -5 C419 -5 452 11 477 40 L460 56 Z M297 156 C297 112 294 95 285 77 C273 55 249 42 221 42 C177 42 145 73 145 116 C145 175 197 205 297 206 L297 156 Z " />
<glyph glyph-name="adieresis" unicode="&#xe4;" horiz-adv-x="480" d="M154 610 C120 610 92 582 92 549 C92 514 119 487 154 487 C188 487 215 515 215 549 C215 583 188 610 154 610 L154 610 Z M349 610 C315 610 287 582 287 549 C287 514 314 487 349 487 C383 487 410 515 410 549 C410 583 383 610 349 610 L349 610 Z M460 56 C450 45 441 40 431 40 C414 40 409 49 409 81 L409 263 C409 321 405 339 386 358 C359 386 304 403 240 403 C143 403 69 359 69 301 C69 272 92 249 121 249 C153 249 180 272 180 299 C180 311 176 321 165 333 C158 341 155 346 155 350 C155 365 183 376 222 376 C261 376 282 367 291 346 C296 335 296 335 297 258 L297 233 C128 221 33 167 33 84 C33 28 80 -10 149 -10 C208 -10 258 12 297 56 C318 16 349 -5 387 -5 C419 -5 452 11 477 40 L460 56 Z M297 156 C297 112 294 95 285 77 C273 55 249 42 221 42 C177 42 145 73 145 116 C145 175 197 205 297 206 L297 156 Z " />
<glyph glyph-name="aring" unicode="&#xe5;" horiz-adv-x="480" d="M259 630 C211 630 171 591 171 545 C171 497 210 460 260 460 C309 460 348 497 348 544 C348 592 309 630 259 630 L259 630 Z M259 591 C285 591 306 570 306 544 C306 519 285 499 260 499 C233 499 213 519 213 544 C213 570 234 591 259 591 L259 591 Z M460 56 C450 45 441 40 431 40 C414 40 409 49 409 81 L409 263 C409 321 405 339 386 358 C359 386 304 403 240 403 C143 403 69 359 69 301 C69 272 92 249 121 249 C153 249 180 272 180 299 C180 311 176 321 165 333 C158 341 155 346 155 350 C155 365 183 376 222 376 C261 376 282 367 291 346 C296 335 296 335 297 258 L297 233 C128 221 33 167 33 84 C33 28 80 -10 149 -10 C208 -10 258 12 297 56 C318 16 349 -5 387 -5 C419 -5 452 11 477 40 L460 56 Z M297 156 C297 112 294 95 285 77 C273 55 249 42 221 42 C177 42 145 73 145 116 C145 175 197 205 297 206 L297 156 Z " />
<glyph glyph-name="ae" unicode="&#xe6;" horiz-adv-x="706" d="M682 221 C672 332 595 403 484 403 C439 403 402 393 357 368 C326 392 290 403 237 403 C142 403 66 355 66 296 C66 267 91 244 122 244 C151 244 173 265 173 295 C173 310 168 324 157 337 C153 342 151 346 151 348 C151 361 188 376 221 376 C266 376 284 358 284 313 L284 228 C138 228 33 169 33 85 C33 30 83 -10 153 -10 C219 -10 274 19 318 77 C346 20 402 -10 483 -10 C577 -10 630 22 682 110 L659 122 C617 53 567 20 503 20 C461 20 430 36 413 65 C404 82 401 100 401 141 L401 221 L682 221 Z M401 246 L401 274 C401 319 403 334 411 350 C419 367 440 376 470 376 C500 376 521 367 530 350 C538 334 539 320 539 274 L539 246 L401 246 Z M284 141 C284 103 282 87 275 75 C262 53 235 39 206 39 C167 39 142 67 142 109 C142 166 191 203 267 203 C273 203 277 203 284 202 L284 141 Z " />
<glyph glyph-name="ccedilla" unicode="&#xe7;" horiz-adv-x="453" d="M259 -10 C339 -10 409 34 441 106 L417 118 C381 53 331 20 270 20 C191 20 163 65 163 196 C163 332 190 376 271 376 C300 376 315 371 334 355 C309 339 296 317 296 291 C296 257 324 231 361 231 C398 231 428 260 428 295 C428 354 355 403 268 403 C137 403 33 309 33 192 C33 88 119 2 233 -9 L209 -72 C247 -74 270 -94 270 -125 C270 -154 245 -180 216 -180 C198 -180 178 -165 178 -151 C178 -149 178 -148 179 -145 C181 -140 182 -136 182 -134 C182 -123 170 -114 157 -114 C141 -114 130 -125 130 -140 C130 -172 171 -197 224 -197 C289 -197 345 -159 345 -115 C345 -77 307 -49 256 -49 C255 -49 249 -49 244 -50 L259 -10 Z " />
<glyph glyph-name="egrave" unicode="&#xe8;" horiz-adv-x="462" d="M230 621 L134 621 L134 596 L294 471 L311 480 L230 621 Z M437 221 L437 233 C437 327 353 403 247 403 C125 403 33 315 33 197 C33 144 51 98 84 62 C127 17 191 -10 254 -10 C331 -10 392 30 437 110 L412 121 C375 55 325 20 268 20 C227 20 196 40 183 75 C176 94 176 94 176 199 L176 221 L437 221 Z M176 246 L176 274 C176 322 178 335 186 351 C194 367 215 376 243 376 C270 376 291 367 299 351 C307 335 309 322 309 274 L309 246 L176 246 Z " />
<glyph glyph-name="eacute" unicode="&#xe9;" horiz-adv-x="462" d="M297 621 L217 480 L234 471 L394 596 L394 621 L297 621 Z M437 221 L437 233 C437 327 353 403 247 403 C125 403 33 315 33 197 C33 144 51 98 84 62 C127 17 191 -10 254 -10 C331 -10 392 30 437 110 L412 121 C375 55 325 20 268 20 C227 20 196 40 183 75 C176 94 176 94 176 199 L176 221 L437 221 Z M176 246 L176 274 C176 322 178 335 186 351 C194 367 215 376 243 376 C270 376 291 367 299 351 C307 335 309 322 309 274 L309 246 L176 246 Z " />
<glyph glyph-name="ecircumflex" unicode="&#xea;" horiz-adv-x="462" d="M137 472 L253 534 L368 472 L382 485 L265 621 L241 621 L124 485 L137 472 Z M437 221 L437 233 C437 327 353 403 247 403 C125 403 33 315 33 197 C33 144 51 98 84 62 C127 17 191 -10 254 -10 C331 -10 392 30 437 110 L412 121 C375 55 325 20 268 20 C227 20 196 40 183 75 C176 94 176 94 176 199 L176 221 L437 221 Z M176 246 L176 274 C176 322 178 335 186 351 C194 367 215 376 243 376 C270 376 291 367 299 351 C307 335 309 322 309 274 L309 246 L176 246 Z " />
<glyph glyph-name="edieresis" unicode="&#xeb;" horiz-adv-x="462" d="M147 610 C114 610 86 582 86 549 C86 514 113 487 148 487 C181 487 209 515 209 549 C209 583 182 610 147 610 L147 610 Z M343 610 C310 610 282 582 282 549 C282 514 309 487 344 487 C377 487 405 515 405 549 C405 583 378 610 343 610 L343 610 Z M437 221 L437 233 C437 327 353 403 247 403 C125 403 33 315 33 197 C33 144 51 98 84 62 C127 17 191 -10 254 -10 C331 -10 392 30 437 110 L412 121 C375 55 325 20 268 20 C227 20 196 40 183 75 C176 94 176 94 176 199 L176 221 L437 221 Z M176 246 L176 274 C176 322 178 335 186 351 C194 367 215 376 243 376 C270 376 291 367 299 351 C307 335 309 322 309 274 L309 246 L176 246 Z " />
<glyph glyph-name="igrave" unicode="&#xec;" horiz-adv-x="293" d="M95 25 L19 25 L19 0 L285 0 L285 25 L215 25 L215 404 C171 396 139 394 54 393 L19 393 L19 368 L95 368 L95 25 Z M133 621 L37 621 L37 596 L197 471 L214 480 L133 621 Z " />
<glyph glyph-name="iacute" unicode="&#xed;" horiz-adv-x="293" d="M95 25 L19 25 L19 0 L285 0 L285 25 L215 25 L215 404 C171 396 139 394 54 393 L19 393 L19 368 L95 368 L95 25 Z M196 621 L116 480 L133 471 L293 596 L293 621 L196 621 Z " />
<glyph glyph-name="icircumflex" unicode="&#xee;" horiz-adv-x="293" d="M95 25 L19 25 L19 0 L285 0 L285 25 L215 25 L215 404 C171 396 139 394 54 393 L19 393 L19 368 L95 368 L95 25 Z M38 472 L153 534 L269 472 L282 485 L165 621 L141 621 L24 485 L38 472 Z " />
<glyph glyph-name="idieresis" unicode="&#xef;" horiz-adv-x="293" d="M95 25 L19 25 L19 0 L285 0 L285 25 L215 25 L215 404 C171 396 139 394 54 393 L19 393 L19 368 L95 368 L95 25 Z M74 610 C40 610 12 582 12 549 C12 514 39 487 74 487 C108 487 135 515 135 549 C135 583 108 610 74 610 L74 610 Z M238 610 C204 610 176 582 176 549 C176 514 203 487 238 487 C272 487 299 515 299 549 C299 583 272 610 238 610 L238 610 Z " />
<glyph glyph-name="eth" unicode="&#xf0;" horiz-adv-x="537" d="M185 517 L201 497 L287 555 C317 513 334 467 352 383 C319 399 304 403 268 403 C136 403 33 313 33 197 C33 150 52 103 86 64 C128 16 193 -10 268 -10 C404 -10 504 79 504 200 C504 322 442 458 330 581 L417 639 L400 660 L313 602 C303 610 297 615 295 617 C284 626 273 635 261 645 C250 654 232 667 207 684 L188 661 C211 646 251 607 273 578 L185 517 Z M269 376 C307 376 342 360 355 335 C369 310 374 267 374 174 C374 107 365 66 347 46 C329 28 300 17 269 17 C211 17 178 44 168 99 C166 111 163 181 163 215 C163 289 171 327 190 347 C209 366 236 376 269 376 L269 376 Z " />
<glyph glyph-name="ntilde" unicode="&#xf1;" horiz-adv-x="585" d="M190 495 C207 518 221 527 240 527 C260 527 285 521 311 511 C337 500 347 497 359 497 C397 497 431 525 460 581 L440 591 C427 569 411 558 396 558 C383 558 362 564 338 574 C316 584 294 589 275 589 C236 589 206 565 170 505 L190 495 Z M95 25 L25 25 L25 0 L277 0 L277 25 L215 25 L215 218 C215 264 218 281 230 302 C252 339 293 363 333 363 C352 363 368 354 377 339 C384 327 386 310 386 274 L386 25 L330 25 L330 0 L582 0 L582 25 L506 25 L506 274 C506 314 503 333 494 349 C474 383 430 403 376 403 C311 403 256 378 215 331 L215 404 C171 396 140 394 58 393 L25 393 L25 368 L95 368 L95 25 Z " />
<glyph glyph-name="ograve" unicode="&#xf2;" horiz-adv-x="537" d="M251 621 L155 621 L155 596 L315 471 L332 480 L251 621 Z M268 403 C136 403 33 313 33 197 C33 80 136 -10 269 -10 C399 -10 504 81 504 194 C504 313 402 403 268 403 L268 403 Z M269 376 C307 376 342 360 355 335 C369 310 374 267 374 174 C374 107 365 66 347 46 C329 28 300 17 269 17 C211 17 178 44 168 99 C166 111 163 181 163 215 C163 289 171 327 190 347 C209 366 236 376 269 376 L269 376 Z " />
<glyph glyph-name="oacute" unicode="&#xf3;" horiz-adv-x="537" d="M325 621 L245 480 L262 471 L422 596 L422 621 L325 621 Z M268 403 C136 403 33 313 33 197 C33 80 136 -10 269 -10 C399 -10 504 81 504 194 C504 313 402 403 268 403 L268 403 Z M269 376 C307 376 342 360 355 335 C369 310 374 267 374 174 C374 107 365 66 347 46 C329 28 300 17 269 17 C211 17 178 44 168 99 C166 111 163 181 163 215 C163 289 171 327 190 347 C209 366 236 376 269 376 L269 376 Z " />
<glyph glyph-name="ocircumflex" unicode="&#xf4;" horiz-adv-x="537" d="M161 472 L276 534 L392 472 L405 485 L288 621 L264 621 L147 485 L161 472 Z M268 403 C136 403 33 313 33 197 C33 80 136 -10 269 -10 C399 -10 504 81 504 194 C504 313 402 403 268 403 L268 403 Z M269 376 C307 376 342 360 355 335 C369 310 374 267 374 174 C374 107 365 66 347 46 C329 28 300 17 269 17 C211 17 178 44 168 99 C166 111 163 181 163 215 C163 289 171 327 190 347 C209 366 236 376 269 376 L269 376 Z " />
<glyph glyph-name="otilde" unicode="&#xf5;" horiz-adv-x="537" d="M149 495 C167 518 181 527 200 527 C220 527 245 521 270 511 C297 500 307 497 319 497 C357 497 391 525 420 581 L400 591 C386 569 371 558 355 558 C343 558 322 564 298 574 C276 584 254 589 235 589 C196 589 165 565 129 505 L149 495 Z M268 403 C136 403 33 313 33 197 C33 80 136 -10 269 -10 C399 -10 504 81 504 194 C504 313 402 403 268 403 L268 403 Z M269 376 C307 376 342 360 355 335 C369 310 374 267 374 174 C374 107 365 66 347 46 C329 28 300 17 269 17 C211 17 178 44 168 99 C166 111 163 181 163 215 C163 289 171 327 190 347 C209 366 236 376 269 376 L269 376 Z " />
<glyph glyph-name="odieresis" unicode="&#xf6;" horiz-adv-x="537" d="M174 610 C141 610 113 582 113 549 C113 514 140 487 175 487 C208 487 236 515 236 549 C236 583 209 610 174 610 L174 610 Z M369 610 C336 610 308 582 308 549 C308 514 335 487 370 487 C403 487 431 515 431 549 C431 583 404 610 369 610 L369 610 Z M268 403 C136 403 33 313 33 197 C33 80 136 -10 269 -10 C399 -10 504 81 504 194 C504 313 402 403 268 403 L268 403 Z M269 376 C307 376 342 360 355 335 C369 310 374 267 374 174 C374 107 365 66 347 46 C329 28 300 17 269 17 C211 17 178 44 168 99 C166 111 163 181 163 215 C163 289 171 327 190 347 C209 366 236 376 269 376 L269 376 Z " />
<glyph glyph-name="divide" unicode="&#xf7;" horiz-adv-x="525" d="M47 307 L479 307 L479 340 L47 340 L47 307 Z M263 241 C228 241 199 211 199 175 C199 137 227 107 263 107 C298 107 327 137 327 174 C327 211 299 241 263 241 L263 241 Z M263 542 C228 542 199 512 199 476 C199 438 227 408 263 408 C298 408 327 438 327 475 C327 512 299 542 263 542 L263 542 Z " />
<glyph glyph-name="oslash" unicode="&#xf8;" horiz-adv-x="537" d="M482 397 L459 417 L409 364 C366 391 323 403 269 403 C135 403 33 313 33 196 C33 139 56 91 105 46 L56 -5 L79 -25 L130 28 C173 2 215 -10 268 -10 C401 -10 504 80 504 197 C504 253 480 302 433 345 L482 397 Z M370 283 C372 260 374 203 374 179 C374 105 366 66 347 46 C329 28 300 17 268 17 C221 17 190 35 175 72 L370 283 Z M167 107 C164 137 163 168 163 217 C163 281 173 329 190 347 C208 365 237 376 269 376 C317 376 349 356 362 319 L167 107 Z " />
<glyph glyph-name="ugrave" unicode="&#xf9;" horiz-adv-x="552" d="M284 621 L187 621 L187 596 L348 471 L364 480 L284 621 Z M359 0 L549 0 L549 25 L479 25 L479 404 C435 396 403 394 318 393 L283 393 L283 368 L359 368 L359 171 C359 129 355 107 344 88 C324 56 286 33 250 33 C232 33 214 42 207 55 C201 66 200 73 200 110 L200 404 C156 396 124 394 39 393 L4 393 L4 368 L80 368 L80 133 C80 85 84 61 95 40 C114 7 151 -10 204 -10 C267 -10 311 12 359 69 L359 0 Z " />
<glyph glyph-name="uacute" unicode="&#xfa;" horiz-adv-x="552" d="M342 621 L262 480 L278 471 L439 596 L439 621 L342 621 Z M359 0 L549 0 L549 25 L479 25 L479 404 C435 396 403 394 318 393 L283 393 L283 368 L359 368 L359 171 C359 129 355 107 344 88 C324 56 286 33 250 33 C232 33 214 42 207 55 C201 66 200 73 200 110 L200 404 C156 396 124 394 39 393 L4 393 L4 368 L80 368 L80 133 C80 85 84 61 95 40 C114 7 151 -10 204 -10 C267 -10 311 12 359 69 L359 0 Z " />
<glyph glyph-name="ucircumflex" unicode="&#xfb;" horiz-adv-x="552" d="M177 472 L293 534 L408 472 L422 485 L305 621 L281 621 L164 485 L177 472 Z M359 0 L549 0 L549 25 L479 25 L479 404 C435 396 403 394 318 393 L283 393 L283 368 L359 368 L359 171 C359 129 355 107 344 88 C324 56 286 33 250 33 C232 33 214 42 207 55 C201 66 200 73 200 110 L200 404 C156 396 124 394 39 393 L4 393 L4 368 L80 368 L80 133 C80 85 84 61 95 40 C114 7 151 -10 204 -10 C267 -10 311 12 359 69 L359 0 Z " />
<glyph glyph-name="udieresis" unicode="&#xfc;" horiz-adv-x="552" d="M196 610 C162 610 134 582 134 549 C134 514 161 487 196 487 C230 487 257 515 257 549 C257 583 230 610 196 610 L196 610 Z M391 610 C357 610 329 582 329 549 C329 514 356 487 391 487 C425 487 452 515 452 549 C452 583 425 610 391 610 L391 610 Z M359 0 L549 0 L549 25 L479 25 L479 404 C435 396 403 394 318 393 L283 393 L283 368 L359 368 L359 171 C359 129 355 107 344 88 C324 56 286 33 250 33 C232 33 214 42 207 55 C201 66 200 73 200 110 L200 404 C156 396 124 394 39 393 L4 393 L4 368 L80 368 L80 133 C80 85 84 61 95 40 C114 7 151 -10 204 -10 C267 -10 311 12 359 69 L359 0 Z " />
<glyph glyph-name="yacute" unicode="&#xfd;" horiz-adv-x="469" d="M297 621 L217 480 L234 471 L394 596 L394 621 L297 621 Z M220 2 L170 -126 C149 -179 136 -200 124 -200 C118 -200 115 -198 110 -191 C92 -168 77 -158 55 -158 C25 -158 1 -182 1 -211 C1 -245 30 -270 69 -270 C120 -270 148 -240 191 -139 L393 329 C409 364 415 367 456 368 L481 368 L481 393 L303 393 L303 368 L336 368 C360 368 369 364 369 352 C369 347 366 335 360 322 L284 145 L178 368 L229 368 L229 393 L-13 393 L-13 368 L39 368 L220 2 Z " />
<glyph glyph-name="thorn" unicode="&#xfe;" horiz-adv-x="549" d="M74 -242 L4 -242 L4 -267 L270 -267 L270 -242 L194 -242 L194 70 C236 12 273 -10 328 -10 C431 -10 516 85 516 199 C516 310 429 403 326 403 C272 403 235 382 194 329 L194 678 C151 670 120 668 37 667 L4 667 L4 642 L74 642 L74 -242 Z M308 373 C362 373 386 321 386 204 C386 75 363 20 309 20 C241 20 189 95 189 193 C189 294 241 373 306 373 L308 373 Z " />
<glyph glyph-name="ydieresis" unicode="&#xff;" horiz-adv-x="469" d="M147 610 C113 610 85 582 85 549 C85 514 112 487 147 487 C181 487 208 515 208 549 C208 583 181 610 147 610 L147 610 Z M342 610 C308 610 280 582 280 549 C280 514 307 487 342 487 C376 487 403 515 403 549 C403 583 376 610 342 610 L342 610 Z M220 2 L170 -126 C149 -179 136 -200 124 -200 C118 -200 115 -198 110 -191 C92 -168 77 -158 55 -158 C25 -158 1 -182 1 -211 C1 -245 30 -270 69 -270 C120 -270 148 -240 191 -139 L393 329 C409 364 415 367 456 368 L481 368 L481 393 L303 393 L303 368 L336 368 C360 368 369 364 369 352 C369 347 366 335 360 322 L284 145 L178 368 L229 368 L229 393 L-13 393 L-13 368 L39 368 L220 2 Z " />
<glyph glyph-name="Amacron" unicode="&#x100;" horiz-adv-x="658" d="M385 179 L442 25 L352 25 L352 0 L665 0 L665 25 L591 25 L352 667 L319 667 L98 82 C81 30 75 26 25 25 L-11 25 L-11 0 L206 0 L206 25 L150 25 C126 25 115 29 115 38 C115 43 118 54 123 67 L165 179 L385 179 Z M375 204 L175 204 L274 469 L375 204 Z M181 807 L181 761 L481 761 L481 807 L181 807 Z " />
<glyph glyph-name="amacron" unicode="&#x101;" horiz-adv-x="480" d="M460 56 C450 45 441 40 431 40 C414 40 409 49 409 81 L409 263 C409 321 405 339 386 358 C359 386 304 403 240 403 C143 403 69 359 69 301 C69 272 92 249 121 249 C153 249 180 272 180 299 C180 311 176 321 165 333 C158 341 155 346 155 350 C155 365 183 376 222 376 C261 376 282 367 291 346 C296 335 296 335 297 258 L297 233 C128 221 33 167 33 84 C33 28 80 -10 149 -10 C208 -10 258 12 297 56 C318 16 349 -5 387 -5 C419 -5 452 11 477 40 L460 56 Z M297 156 C297 112 294 95 285 77 C273 55 249 42 221 42 C177 42 145 73 145 116 C145 175 197 205 297 206 L297 156 Z M115 563 L115 516 L382 516 L382 563 L115 563 Z " />
<glyph glyph-name="Abreve" unicode="&#x102;" horiz-adv-x="658" d="M385 179 L442 25 L352 25 L352 0 L665 0 L665 25 L591 25 L352 667 L319 667 L98 82 C81 30 75 26 25 25 L-11 25 L-11 0 L206 0 L206 25 L150 25 C126 25 115 29 115 38 C115 43 118 54 123 67 L165 179 L385 179 Z M375 204 L175 204 L274 469 L375 204 Z M189 848 C210 772 266 726 338 726 C409 726 465 772 486 848 L459 848 C431 811 395 796 338 796 C280 796 245 811 216 848 L189 848 Z " />
<glyph glyph-name="abreve" unicode="&#x103;" horiz-adv-x="480" d="M460 56 C450 45 441 40 431 40 C414 40 409 49 409 81 L409 263 C409 321 405 339 386 358 C359 386 304 403 240 403 C143 403 69 359 69 301 C69 272 92 249 121 249 C153 249 180 272 180 299 C180 311 176 321 165 333 C158 341 155 346 155 350 C155 365 183 376 222 376 C261 376 282 367 291 346 C296 335 296 335 297 258 L297 233 C128 221 33 167 33 84 C33 28 80 -10 149 -10 C208 -10 258 12 297 56 C318 16 349 -5 387 -5 C419 -5 452 11 477 40 L460 56 Z M297 156 C297 112 294 95 285 77 C273 55 249 42 221 42 C177 42 145 73 145 116 C145 175 197 205 297 206 L297 156 Z M348 615 C326 571 297 552 253 552 C211 552 179 574 164 615 L138 615 C147 531 193 477 256 477 C319 477 362 528 372 615 L348 615 Z " />
<glyph glyph-name="Aogonek" unicode="&#x104;" horiz-adv-x="658" d="M602 0 L665 0 L665 25 L591 25 L352 667 L319 667 L98 82 C81 30 75 26 25 25 L-11 25 L-11 0 L206 0 L206 25 L150 25 C126 25 115 29 115 38 C115 43 118 54 123 67 L165 179 L385 179 L442 25 L352 25 L352 0 L554 0 C476 -36 446 -65 446 -106 C446 -152 481 -178 542 -178 C580 -178 603 -172 644 -154 L644 -127 C623 -134 613 -136 597 -136 C555 -136 530 -118 530 -86 C530 -57 548 -35 599 -2 L602 0 Z M375 204 L175 204 L274 469 L375 204 Z " />
<glyph glyph-name="aogonek" unicode="&#x105;" horiz-adv-x="480" d="M460 56 C450 45 441 41 431 41 C414 41 409 50 409 81 L409 263 C409 321 405 339 386 358 C359 386 304 403 240 403 C143 403 69 359 69 301 C69 272 92 249 121 249 C153 249 180 272 180 299 C180 311 176 321 165 333 C158 341 155 346 155 350 C155 365 183 376 222 376 C261 376 282 367 291 346 C296 335 296 335 297 258 L297 233 C128 221 33 167 33 84 C33 28 80 -10 149 -10 C208 -10 258 12 297 56 C313 22 343 0 377 -4 C312 -37 285 -66 285 -103 C285 -145 318 -169 373 -169 C408 -169 430 -164 475 -145 L475 -121 C454 -127 445 -129 428 -129 C388 -129 363 -112 363 -84 C363 -56 382 -32 435 7 C452 15 463 24 477 40 L460 56 Z M297 156 C297 112 294 95 285 77 C273 55 249 42 221 42 C177 42 145 73 145 116 C145 175 197 205 297 206 L297 156 Z " />
<glyph glyph-name="Cacute" unicode="&#x106;" horiz-adv-x="650" d="M589 667 L561 667 L542 626 C499 665 446 684 380 684 C192 684 40 521 40 320 C40 127 182 -17 373 -17 C442 -17 487 0 539 48 L568 0 L596 0 L605 186 L577 186 C540 74 465 10 369 10 C310 10 261 36 238 78 C213 126 206 169 206 278 L206 299 C207 488 212 526 240 580 C265 628 320 657 386 657 C482 657 542 603 569 493 L597 493 L589 667 Z M440 846 L309 740 L321 726 L574 821 L574 846 L440 846 Z " />
<glyph glyph-name="cacute" unicode="&#x107;" horiz-adv-x="453" d="M417 118 C381 53 331 20 270 20 C191 20 163 65 163 196 C163 332 190 376 271 376 C300 376 315 371 334 355 C309 339 296 317 296 291 C296 257 324 231 361 231 C397 231 428 260 428 295 C428 354 356 403 268 403 C138 403 33 309 33 192 C33 80 132 -10 256 -10 C341 -10 402 28 441 106 L417 118 Z M301 621 L221 480 L238 471 L398 596 L398 621 L301 621 Z " />
<glyph glyph-name="Ccircumflex" unicode="&#x108;" horiz-adv-x="650" d="M589 667 L561 667 L542 626 C499 665 446 684 380 684 C192 684 40 521 40 320 C40 127 182 -17 373 -17 C442 -17 487 0 539 48 L568 0 L596 0 L605 186 L577 186 C540 74 465 10 369 10 C310 10 261 36 238 78 C213 126 206 169 206 278 L206 299 C207 488 212 526 240 580 C265 628 320 657 386 657 C482 657 542 603 569 493 L597 493 L589 667 Z M222 726 L379 775 L536 726 L550 742 L397 846 L362 846 L208 742 L222 726 Z " />
<glyph glyph-name="Cdotaccent" unicode="&#x10a;" horiz-adv-x="650" d="M589 667 L561 667 L542 626 C499 665 446 684 380 684 C192 684 40 521 40 320 C40 127 182 -17 373 -17 C442 -17 487 0 539 48 L568 0 L596 0 L605 186 L577 186 C540 74 465 10 369 10 C310 10 261 36 238 78 C213 126 206 169 206 278 L206 299 C207 488 212 526 240 580 C265 628 320 657 386 657 C482 657 542 603 569 493 L597 493 L589 667 Z M375 850 C341 850 313 822 313 789 C313 755 340 727 375 727 C408 727 436 755 436 789 C436 823 409 850 375 850 L375 850 Z " />
<glyph glyph-name="cdotaccent" unicode="&#x10b;" horiz-adv-x="453" d="M417 118 C381 53 331 20 270 20 C191 20 163 65 163 196 C163 332 190 376 271 376 C300 376 315 371 334 355 C309 339 296 317 296 291 C296 257 324 231 361 231 C397 231 428 260 428 295 C428 354 356 403 268 403 C138 403 33 309 33 192 C33 80 132 -10 256 -10 C341 -10 402 28 441 106 L417 118 Z M256 610 C222 610 194 582 194 549 C194 514 221 487 256 487 C290 487 317 515 317 549 C317 583 290 610 256 610 L256 610 Z " />
<glyph glyph-name="Ccaron" unicode="&#x10c;" horiz-adv-x="650" d="M589 667 L561 667 L542 626 C499 665 446 684 380 684 C192 684 40 521 40 320 C40 127 182 -17 373 -17 C442 -17 487 0 539 48 L568 0 L596 0 L605 186 L577 186 C540 74 465 10 369 10 C310 10 261 36 238 78 C213 126 206 169 206 278 L206 299 C207 488 212 526 240 580 C265 628 320 657 386 657 C482 657 542 603 569 493 L597 493 L589 667 Z M530 847 L373 798 L216 847 L202 831 L355 727 L390 727 L544 831 L530 847 Z " />
<glyph glyph-name="ccaron" unicode="&#x10d;" horiz-adv-x="453" d="M417 118 C381 53 331 20 270 20 C191 20 163 65 163 196 C163 332 190 376 271 376 C300 376 315 371 334 355 C309 339 296 317 296 291 C296 257 324 231 361 231 C397 231 428 260 428 295 C428 354 356 403 268 403 C138 403 33 309 33 192 C33 80 132 -10 256 -10 C341 -10 402 28 441 106 L417 118 Z M376 621 L260 559 L145 621 L131 608 L249 472 L272 472 L389 608 L376 621 Z " />
<glyph glyph-name="Dcaron" unicode="&#x10e;" horiz-adv-x="748" d="M117 25 L32 25 L32 0 L355 0 C419 0 448 1 467 4 C518 11 566 34 605 71 C672 133 708 225 708 332 C708 466 651 577 553 633 C504 661 471 667 354 667 L32 667 L32 642 L117 642 L117 25 Z M257 25 L257 642 L355 642 C390 642 413 640 428 636 C460 627 487 606 504 574 C532 526 541 468 541 334 C541 199 532 141 504 93 C475 41 440 25 355 25 L257 25 Z M502 847 L345 798 L188 847 L174 831 L328 727 L363 727 L516 831 L502 847 Z " />
<glyph glyph-name="dcaron" unicode="&#x10f;" horiz-adv-x="679" d="M356 0 L546 0 L546 25 L476 25 L476 678 C432 670 400 668 315 667 L280 667 L280 642 L356 642 L356 335 C316 384 279 403 225 403 C120 403 33 308 33 193 C33 79 119 -10 228 -10 C284 -10 324 12 356 60 L356 0 Z M250 373 C283 373 318 350 338 315 C352 291 360 245 360 192 C360 93 314 21 251 21 C225 21 200 35 189 56 C173 87 163 148 163 213 C163 318 193 373 250 373 L250 373 Z M573 434 C644 484 672 525 672 577 C672 633 632 678 582 678 C543 678 512 650 512 615 C512 581 540 553 574 553 C598 553 617 564 629 585 C634 574 636 567 636 557 C636 520 608 484 557 454 L573 434 Z " />
<glyph glyph-name="Dcroat" unicode="&#x110;" horiz-adv-x="748" d="M117 355 L32 355 L32 330 L117 330 L117 25 L32 25 L32 0 L355 0 C419 0 448 1 467 4 C518 11 566 34 605 71 C672 133 708 225 708 332 C708 466 651 577 553 633 C504 661 471 667 354 667 L32 667 L32 642 L117 642 L117 355 Z M257 355 L257 642 L355 642 C390 642 413 640 428 636 C460 627 487 605 504 574 C532 526 541 468 541 334 C541 199 532 141 504 93 C475 41 440 25 355 25 L257 25 L257 330 L410 330 L410 355 L257 355 Z " />
<glyph glyph-name="dcroat" unicode="&#x111;" horiz-adv-x="549" d="M356 534 L356 335 C316 384 279 403 225 403 C120 403 33 308 33 193 C33 79 119 -10 228 -10 C284 -10 324 12 356 60 L356 0 L546 0 L546 25 L476 25 L476 534 L545 534 L545 559 L476 559 L476 678 C432 670 400 668 315 667 L280 667 L280 642 L356 642 L356 559 L196 559 L196 534 L356 534 Z M250 373 C283 373 318 350 338 315 C352 291 360 245 360 192 C360 93 314 21 251 21 C225 21 200 35 189 56 C173 87 163 148 163 213 C163 318 193 373 250 373 L250 373 Z " />
<glyph glyph-name="Emacron" unicode="&#x112;" horiz-adv-x="658" d="M116 25 L32 25 L32 0 L608 0 L622 212 L594 212 C559 64 508 23 358 25 L256 25 L256 326 L284 326 C386 324 413 298 418 197 L447 197 L447 469 L418 469 C417 383 380 350 287 351 L256 351 L256 642 L384 642 C500 646 547 609 573 497 L601 497 L584 667 L32 667 L32 642 L116 642 L116 25 Z M200 807 L200 761 L500 761 L500 807 L200 807 Z " />
<glyph glyph-name="emacron" unicode="&#x113;" horiz-adv-x="462" d="M437 221 L437 233 C437 327 353 403 247 403 C125 403 33 315 33 197 C33 144 51 98 84 62 C127 17 191 -10 254 -10 C331 -10 392 30 437 110 L412 121 C375 55 325 20 268 20 C227 20 196 40 183 75 C176 94 176 94 176 199 L176 221 L437 221 Z M176 246 L176 274 C176 322 178 335 186 351 C194 367 215 376 243 376 C270 376 291 367 299 351 C307 335 309 322 309 274 L309 246 L176 246 Z M110 563 L110 516 L377 516 L377 563 L110 563 Z " />
<glyph glyph-name="Ebreve" unicode="&#x114;" horiz-adv-x="658" d="M116 25 L32 25 L32 0 L608 0 L622 212 L594 212 C559 64 508 23 358 25 L256 25 L256 326 L284 326 C386 324 413 298 418 197 L447 197 L447 469 L418 469 C417 383 380 350 287 351 L256 351 L256 642 L384 642 C500 646 547 609 573 497 L601 497 L584 667 L32 667 L32 642 L116 642 L116 25 Z M197 848 C219 772 275 726 346 726 C417 726 473 772 495 848 L468 848 C439 811 404 796 346 796 C288 796 253 811 224 848 L197 848 Z " />
<glyph glyph-name="ebreve" unicode="&#x115;" horiz-adv-x="462" d="M437 221 L437 233 C437 327 353 403 247 403 C125 403 33 315 33 197 C33 144 51 98 84 62 C127 17 191 -10 254 -10 C331 -10 392 30 437 110 L412 121 C375 55 325 20 268 20 C227 20 196 40 183 75 C176 94 176 94 176 199 L176 221 L437 221 Z M176 246 L176 274 C176 322 178 335 186 351 C194 367 215 376 243 376 C270 376 291 367 299 351 C307 335 309 322 309 274 L309 246 L176 246 Z M341 615 C318 571 290 552 246 552 C203 552 172 574 156 615 L130 615 C139 531 185 477 249 477 C312 477 354 528 365 615 L341 615 Z " />
<glyph glyph-name="Edotaccent" unicode="&#x116;" horiz-adv-x="658" d="M116 25 L32 25 L32 0 L608 0 L622 212 L594 212 C559 64 508 23 358 25 L256 25 L256 326 L284 326 C386 324 413 298 418 197 L447 197 L447 469 L418 469 C417 383 380 350 287 351 L256 351 L256 642 L384 642 C500 646 547 609 573 497 L601 497 L584 667 L32 667 L32 642 L116 642 L116 25 Z M349 850 C315 850 287 822 287 789 C287 755 314 727 349 727 C382 727 410 755 410 789 C410 823 383 850 349 850 L349 850 Z " />
<glyph glyph-name="edotaccent" unicode="&#x117;" horiz-adv-x="462" d="M437 221 L437 233 C437 327 353 403 247 403 C125 403 33 315 33 197 C33 144 51 98 84 62 C127 17 191 -10 254 -10 C331 -10 392 30 437 110 L412 121 C375 55 325 20 268 20 C227 20 196 40 183 75 C176 94 176 94 176 199 L176 221 L437 221 Z M176 246 L176 274 C176 322 178 335 186 351 C194 367 215 376 243 376 C270 376 291 367 299 351 C307 335 309 322 309 274 L309 246 L176 246 Z M248 610 C214 610 186 582 186 549 C186 514 213 487 248 487 C282 487 309 515 309 549 C309 583 282 610 248 610 L248 610 Z " />
<glyph glyph-name="Eogonek" unicode="&#x118;" horiz-adv-x="658" d="M556 0 L608 0 L622 212 L594 212 C559 64 508 23 358 25 L256 25 L256 326 L284 326 C386 324 413 298 418 197 L447 197 L447 469 L418 469 C417 383 380 350 287 351 L256 351 L256 642 L384 642 C500 646 547 609 573 497 L601 497 L584 667 L32 667 L32 642 L116 642 L116 25 L32 25 L32 0 L508 0 C430 -36 400 -65 400 -106 C400 -152 435 -178 496 -178 C534 -178 557 -172 598 -154 L598 -127 C577 -134 567 -136 551 -136 C509 -136 484 -118 484 -86 C484 -57 502 -35 553 -2 L556 0 Z " />
<glyph glyph-name="eogonek" unicode="&#x119;" horiz-adv-x="462" d="M412 121 C375 55 325 20 268 20 C227 20 196 40 183 75 C176 94 176 94 176 199 L176 221 L437 221 L437 233 C437 327 353 403 247 403 C125 403 33 315 33 197 C33 144 51 98 84 62 C127 17 191 -10 253 -10 C267 -10 277 -9 290 -7 C233 -36 206 -67 206 -103 C206 -145 239 -169 294 -169 C329 -169 351 -164 396 -145 L396 -121 C375 -127 365 -129 349 -129 C308 -129 284 -112 284 -83 C284 -54 302 -29 365 25 C394 45 416 71 437 110 L412 121 Z M176 246 L176 274 C176 322 178 335 186 351 C194 367 215 376 243 376 C270 376 291 367 299 351 C307 335 309 322 309 274 L309 246 L176 246 Z " />
<glyph glyph-name="Ecaron" unicode="&#x11a;" horiz-adv-x="658" d="M116 25 L32 25 L32 0 L608 0 L622 212 L594 212 C559 64 508 23 358 25 L256 25 L256 326 L284 326 C386 324 413 298 418 197 L447 197 L447 469 L418 469 C417 383 380 350 287 351 L256 351 L256 642 L384 642 C500 646 547 609 573 497 L601 497 L584 667 L32 667 L32 642 L116 642 L116 25 Z M507 847 L350 798 L194 847 L180 831 L333 727 L368 727 L521 831 L507 847 Z " />
<glyph glyph-name="ecaron" unicode="&#x11b;" horiz-adv-x="462" d="M437 221 L437 233 C437 327 353 403 247 403 C125 403 33 315 33 197 C33 144 51 98 84 62 C127 17 191 -10 254 -10 C331 -10 392 30 437 110 L412 121 C375 55 325 20 268 20 C227 20 196 40 183 75 C176 94 176 94 176 199 L176 221 L437 221 Z M176 246 L176 274 C176 322 178 335 186 351 C194 367 215 376 243 376 C270 376 291 367 299 351 C307 335 309 322 309 274 L309 246 L176 246 Z M363 621 L248 559 L132 621 L119 608 L236 472 L260 472 L377 608 L363 621 Z " />
<glyph glyph-name="Gcircumflex" unicode="&#x11c;" horiz-adv-x="695" d="M594 667 L566 667 L533 635 C483 668 429 684 370 684 C291 684 212 653 150 597 C75 530 36 437 36 324 C36 126 166 -17 346 -17 C407 -17 477 3 531 37 C560 55 581 73 616 109 L616 224 L686 224 L686 249 L371 249 L371 224 L476 224 L476 109 C476 51 420 10 341 10 C308 10 275 19 253 34 C229 50 218 74 211 125 C208 146 202 317 202 375 C202 480 212 551 232 593 C252 632 306 657 372 657 C434 657 489 634 520 597 C544 566 555 539 566 480 L594 480 L594 667 Z M211 726 L368 775 L524 726 L538 742 L385 846 L350 846 L197 742 L211 726 Z " />
<glyph glyph-name="gcircumflex" unicode="&#x11d;" horiz-adv-x="518" d="M230 35 L142 35 L132 35 L129 35 C95 35 78 44 78 64 C78 89 108 116 149 127 C183 112 213 106 249 106 C359 106 437 169 437 256 C437 283 431 303 417 327 C417 339 421 345 429 345 C432 345 434 344 438 340 C449 328 460 323 472 323 C495 323 512 340 512 363 C512 389 492 408 465 408 C436 408 414 389 400 350 C356 387 312 403 252 403 C144 403 63 339 63 254 C63 208 83 172 126 140 C68 124 28 76 28 23 C28 -25 56 -59 106 -73 C57 -86 30 -114 30 -154 C30 -222 120 -271 242 -271 C388 -271 482 -202 482 -93 C482 -44 460 -3 422 18 C400 31 372 36 328 36 L230 35 Z M319 217 C319 187 317 174 310 162 C300 144 277 133 249 133 C222 133 199 144 189 162 C182 174 180 187 180 217 L180 292 C180 322 182 335 189 347 C199 365 222 376 250 376 C277 376 300 365 310 347 C317 335 319 322 319 292 L319 217 Z M371 -81 C406 -81 425 -98 425 -131 C425 -196 351 -244 248 -244 C163 -244 107 -205 107 -146 C107 -122 117 -102 139 -81 L371 -81 Z M146 472 L262 534 L377 472 L391 485 L273 621 L250 621 L133 485 L146 472 Z " />
<glyph glyph-name="Gbreve" unicode="&#x11e;" horiz-adv-x="695" d="M594 667 L566 667 L533 635 C483 668 429 684 370 684 C291 684 212 653 150 597 C75 530 36 437 36 324 C36 126 166 -17 346 -17 C407 -17 477 3 531 37 C560 55 581 73 616 109 L616 224 L686 224 L686 249 L371 249 L371 224 L476 224 L476 109 C476 51 420 10 341 10 C308 10 275 19 253 34 C229 50 218 74 211 125 C208 146 202 317 202 375 C202 480 212 551 232 593 C252 632 306 657 372 657 C434 657 489 634 520 597 C544 566 555 539 566 480 L594 480 L594 667 Z M212 848 C234 772 290 726 361 726 C433 726 488 772 510 848 L483 848 C454 811 419 796 361 796 C303 796 268 811 239 848 L212 848 Z " />
<glyph glyph-name="gbreve" unicode="&#x11f;" horiz-adv-x="518" d="M230 35 L142 35 L132 35 L129 35 C95 35 78 44 78 64 C78 89 108 116 149 127 C183 112 213 106 249 106 C359 106 437 169 437 256 C437 283 431 303 417 327 C417 339 421 345 429 345 C432 345 434 344 438 340 C449 328 460 323 472 323 C495 323 512 340 512 363 C512 389 492 408 465 408 C436 408 414 389 400 350 C356 387 312 403 252 403 C144 403 63 339 63 254 C63 208 83 172 126 140 C68 124 28 76 28 23 C28 -25 56 -59 106 -73 C57 -86 30 -114 30 -154 C30 -222 120 -271 242 -271 C388 -271 482 -202 482 -93 C482 -44 460 -3 422 18 C400 31 372 36 328 36 L230 35 Z M319 217 C319 187 317 174 310 162 C300 144 277 133 249 133 C222 133 199 144 189 162 C182 174 180 187 180 217 L180 292 C180 322 182 335 189 347 C199 365 222 376 250 376 C277 376 300 365 310 347 C317 335 319 322 319 292 L319 217 Z M371 -81 C406 -81 425 -98 425 -131 C425 -196 351 -244 248 -244 C163 -244 107 -205 107 -146 C107 -122 117 -102 139 -81 L371 -81 Z M346 615 C324 571 296 552 252 552 C209 552 178 574 162 615 L136 615 C145 531 191 477 254 477 C317 477 360 528 371 615 L346 615 Z " />
<glyph glyph-name="Gdotaccent" unicode="&#x120;" horiz-adv-x="695" d="M594 667 L566 667 L533 635 C483 668 429 684 370 684 C291 684 212 653 150 597 C75 530 36 437 36 324 C36 126 166 -17 346 -17 C407 -17 477 3 531 37 C560 55 581 73 616 109 L616 224 L686 224 L686 249 L371 249 L371 224 L476 224 L476 109 C476 51 420 10 341 10 C308 10 275 19 253 34 C229 50 218 74 211 125 C208 146 202 317 202 375 C202 480 212 551 232 593 C252 632 306 657 372 657 C434 657 489 634 520 597 C544 566 555 539 566 480 L594 480 L594 667 Z M368 850 C334 850 306 822 306 789 C306 755 333 727 368 727 C401 727 429 755 429 789 C429 823 402 850 368 850 L368 850 Z " />
<glyph glyph-name="gdotaccent" unicode="&#x121;" horiz-adv-x="518" d="M230 35 L142 35 L132 35 L129 35 C95 35 78 44 78 64 C78 89 108 116 149 127 C183 112 213 106 249 106 C359 106 437 169 437 256 C437 283 431 303 417 327 C417 339 421 345 429 345 C432 345 434 344 438 340 C449 328 460 323 472 323 C495 323 512 340 512 363 C512 389 492 408 465 408 C436 408 414 389 400 350 C356 387 312 403 252 403 C144 403 63 339 63 254 C63 208 83 172 126 140 C68 124 28 76 28 23 C28 -25 56 -59 106 -73 C57 -86 30 -114 30 -154 C30 -222 120 -271 242 -271 C388 -271 482 -202 482 -93 C482 -44 460 -3 422 18 C400 31 372 36 328 36 L230 35 Z M319 217 C319 187 317 174 310 162 C300 144 277 133 249 133 C222 133 199 144 189 162 C182 174 180 187 180 217 L180 292 C180 322 182 335 189 347 C199 365 222 376 250 376 C277 376 300 365 310 347 C317 335 319 322 319 292 L319 217 Z M371 -81 C406 -81 425 -98 425 -131 C425 -196 351 -244 248 -244 C163 -244 107 -205 107 -146 C107 -122 117 -102 139 -81 L371 -81 Z M254 610 C220 610 192 582 192 549 C192 514 219 487 254 487 C288 487 315 515 315 549 C315 583 288 610 254 610 L254 610 Z " />
<glyph glyph-name="Gcommaaccent" unicode="&#x122;" horiz-adv-x="695" d="M594 667 L566 667 L533 635 C483 668 429 684 370 684 C291 684 212 653 150 597 C75 530 36 437 36 324 C36 126 166 -17 346 -17 C407 -17 477 3 531 37 C560 55 581 73 616 109 L616 224 L686 224 L686 249 L371 249 L371 224 L476 224 L476 109 C476 51 420 10 341 10 C308 10 275 19 253 34 C229 50 218 74 211 125 C208 146 202 317 202 375 C202 480 212 551 232 593 C252 632 306 657 372 657 C434 657 489 634 520 597 C544 566 555 539 566 480 L594 480 L594 667 Z M322 -322 C399 -266 431 -219 431 -159 C431 -98 387 -49 332 -49 C290 -49 256 -80 256 -118 C256 -155 287 -186 324 -186 C350 -186 371 -173 384 -150 C390 -162 392 -170 392 -181 C392 -224 360 -268 305 -301 L322 -322 Z " />
<glyph glyph-name="gcommaaccent" unicode="&#x123;" horiz-adv-x="518" d="M230 35 L142 35 L132 35 L129 35 C95 35 78 44 78 64 C78 89 108 116 149 127 C183 112 213 106 249 106 C359 106 437 169 437 256 C437 283 431 303 417 327 C417 339 421 345 429 345 C432 345 434 344 438 340 C449 328 460 323 472 323 C495 323 512 340 512 363 C512 389 492 408 465 408 C436 408 414 389 400 350 C356 387 312 403 252 403 C144 403 63 339 63 254 C63 208 83 172 126 140 C68 124 28 76 28 23 C28 -25 56 -59 106 -73 C57 -86 30 -114 30 -154 C30 -222 120 -271 242 -271 C388 -271 482 -202 482 -93 C482 -44 460 -3 422 18 C400 31 372 36 328 36 L230 35 Z M319 217 C319 187 317 174 310 162 C300 144 277 133 249 133 C222 133 199 144 189 162 C182 174 180 187 180 217 L180 292 C180 322 182 335 189 347 C199 365 222 376 250 376 C277 376 300 365 310 347 C317 335 319 322 319 292 L319 217 Z M371 -81 C406 -81 425 -98 425 -131 C425 -196 351 -244 248 -244 C163 -244 107 -205 107 -146 C107 -122 117 -102 139 -81 L371 -81 Z M279 703 C209 654 180 612 180 560 C180 504 220 459 270 459 C308 459 339 487 339 522 C339 556 311 584 277 584 C253 584 234 573 222 552 C217 563 216 569 216 580 C216 617 244 654 295 684 L279 703 Z " />
<glyph glyph-name="Hcircumflex" unicode="&#x124;" horiz-adv-x="770" d="M116 25 L32 25 L32 0 L352 0 L352 25 L256 25 L256 330 L515 330 L515 25 L419 25 L419 0 L739 0 L739 25 L655 25 L655 642 L739 642 L739 667 L419 667 L419 642 L515 642 L515 355 L256 355 L256 642 L352 642 L352 667 L32 667 L32 642 L116 642 L116 25 Z M229 726 L385 775 L542 726 L556 742 L403 846 L368 846 L215 742 L229 726 Z " />
<glyph glyph-name="Hbar" unicode="&#x126;" horiz-adv-x="770" d="M116 458 L116 25 L32 25 L32 0 L352 0 L352 25 L256 25 L256 330 L515 330 L515 25 L419 25 L419 0 L739 0 L739 25 L655 25 L655 458 L721 458 L721 483 L655 483 L655 642 L739 642 L739 667 L419 667 L419 642 L515 642 L515 483 L256 483 L256 642 L352 642 L352 667 L32 667 L32 642 L116 642 L116 483 L44 483 L44 458 L116 458 Z M256 458 L515 458 L515 355 L256 355 L256 458 Z " />
<glyph glyph-name="hbar" unicode="&#x127;" horiz-adv-x="575" d="M80 534 L80 25 L10 25 L10 0 L262 0 L262 25 L200 25 L200 196 C200 248 205 275 220 302 C238 337 278 360 317 360 C339 360 358 351 367 336 C373 324 375 312 375 271 L375 25 L319 25 L319 0 L571 0 L571 25 L495 25 L495 271 C495 316 492 335 482 353 C464 385 420 403 363 403 C295 403 247 380 200 326 L200 534 L367 534 L367 559 L200 559 L200 678 C156 670 125 668 43 667 L10 667 L10 642 L80 642 L80 559 L10 559 L10 534 L80 534 Z " />
<glyph glyph-name="Imacron" unicode="&#x12a;" horiz-adv-x="371" d="M116 25 L32 25 L32 0 L340 0 L340 25 L256 25 L256 642 L340 642 L340 667 L32 667 L32 642 L116 642 L116 25 Z M36 807 L36 761 L336 761 L336 807 L36 807 Z " />
<glyph glyph-name="imacron" unicode="&#x12b;" horiz-adv-x="294" d="M95 25 L19 25 L19 0 L285 0 L285 25 L215 25 L215 404 C171 396 139 394 54 393 L19 393 L19 368 L95 368 L95 25 Z M23 563 L23 516 L267 516 L267 563 L23 563 Z " />
<glyph glyph-name="ibreve" unicode="&#x12d;" horiz-adv-x="293" d="M95 25 L19 25 L19 0 L285 0 L285 25 L215 25 L215 404 C171 396 139 394 54 393 L19 393 L19 368 L95 368 L95 25 Z M245 615 C223 571 194 552 150 552 C108 552 76 574 61 615 L35 615 C44 531 90 477 153 477 C216 477 259 528 269 615 L245 615 Z " />
<glyph glyph-name="Iogonek" unicode="&#x12e;" horiz-adv-x="371" d="M340 0 L340 25 L256 25 L256 642 L340 642 L340 667 L32 667 L32 642 L116 642 L116 25 L32 25 L32 0 L234 0 C157 -35 127 -65 127 -106 C127 -152 162 -178 223 -178 C260 -178 284 -172 324 -154 L324 -127 C304 -134 293 -136 277 -136 C236 -136 211 -118 211 -86 C211 -56 229 -34 283 0 L340 0 Z " />
<glyph glyph-name="iogonek" unicode="&#x12f;" horiz-adv-x="293" d="M285 0 L285 25 L215 25 L215 404 C171 396 139 394 54 393 L19 393 L19 368 L95 368 L95 25 L19 25 L19 0 L190 0 C113 -35 83 -64 83 -104 C83 -145 116 -169 171 -169 C206 -169 228 -164 273 -145 L273 -121 C252 -127 242 -129 226 -129 C186 -129 161 -112 161 -84 C161 -56 180 -33 231 0 L285 0 Z M139 635 C102 635 72 605 72 570 C72 532 101 502 138 502 C175 502 205 532 205 569 C205 605 175 635 139 635 L139 635 Z " />
<glyph glyph-name="Idotaccent" unicode="&#x130;" horiz-adv-x="371" d="M116 25 L32 25 L32 0 L340 0 L340 25 L256 25 L256 642 L340 642 L340 667 L32 667 L32 642 L116 642 L116 25 Z M186 850 C152 850 124 822 124 789 C124 755 151 727 186 727 C219 727 247 755 247 789 C247 823 220 850 186 850 L186 850 Z " />
<glyph glyph-name="dotlessi" unicode="&#x131;" horiz-adv-x="293" d="M95 25 L19 25 L19 0 L285 0 L285 25 L215 25 L215 404 C171 396 139 394 54 393 L19 393 L19 368 L95 368 L95 25 Z " />
<glyph glyph-name="Kcommaaccent" unicode="&#x136;" horiz-adv-x="730" d="M116 25 L32 25 L32 0 L347 0 L347 25 L256 25 L256 642 L347 642 L347 667 L32 667 L32 642 L116 642 L116 25 Z M391 427 L558 596 C599 637 609 641 658 642 L680 642 L680 667 L445 667 L445 642 L502 642 C527 642 537 638 537 629 C537 623 534 618 523 607 L270 347 L502 25 L419 25 L419 0 L730 0 L730 25 L680 25 L391 427 Z M348 -322 C426 -266 457 -219 457 -159 C457 -98 413 -49 358 -49 C316 -49 282 -80 282 -118 C282 -155 313 -186 350 -186 C376 -186 397 -173 410 -150 C416 -162 418 -170 418 -181 C418 -224 386 -268 331 -301 L348 -322 Z " />
<glyph glyph-name="kcommaaccent" unicode="&#x137;" horiz-adv-x="558" d="M80 25 L4 25 L4 0 L256 0 L256 25 L200 25 L200 678 C156 670 124 668 39 667 L4 667 L4 642 L80 642 L80 25 Z M314 268 L382 328 C422 365 427 367 470 368 L495 368 L495 393 L285 393 L285 368 L330 368 C357 368 364 366 364 357 C364 351 358 344 340 328 L207 212 L352 25 L296 25 L296 0 L554 0 L554 25 L503 25 L314 268 Z M255 -293 C327 -243 355 -202 355 -149 C355 -94 315 -49 265 -49 C226 -49 195 -77 195 -112 C195 -146 223 -174 257 -174 C281 -174 300 -163 312 -141 C317 -153 319 -159 319 -169 C319 -207 291 -244 240 -273 L255 -293 Z " />
<glyph glyph-name="Lacute" unicode="&#x139;" horiz-adv-x="611" d="M116 25 L32 25 L32 0 L566 0 L587 210 L559 210 C529 86 454 20 348 25 L256 25 L256 642 L347 642 L347 667 L32 667 L32 642 L116 642 L116 25 Z M297 846 L166 740 L177 726 L431 821 L431 846 L297 846 Z " />
<glyph glyph-name="lacute" unicode="&#x13a;" horiz-adv-x="273" d="M80 25 L4 25 L4 0 L270 0 L270 25 L200 25 L200 678 C156 670 124 668 39 667 L4 667 L4 642 L80 642 L80 25 Z M198 846 L67 740 L79 726 L332 821 L332 846 L198 846 Z " />
<glyph glyph-name="Lcommaaccent" unicode="&#x13b;" horiz-adv-x="611" d="M116 25 L32 25 L32 0 L566 0 L587 210 L559 210 C529 86 454 20 348 25 L256 25 L256 642 L347 642 L347 667 L32 667 L32 642 L116 642 L116 25 Z M298 -322 C375 -266 406 -219 406 -159 C406 -98 362 -49 308 -49 C266 -49 232 -80 232 -118 C232 -155 263 -186 300 -186 C326 -186 347 -173 359 -150 C365 -162 367 -170 367 -181 C367 -224 335 -268 281 -301 L298 -322 Z " />
<glyph glyph-name="lcommaaccent" unicode="&#x13c;" horiz-adv-x="273" d="M80 25 L4 25 L4 0 L270 0 L270 25 L200 25 L200 678 C156 670 124 668 39 667 L4 667 L4 642 L80 642 L80 25 Z M134 -293 C205 -243 234 -202 234 -149 C234 -94 194 -49 144 -49 C105 -49 74 -77 74 -112 C74 -146 102 -174 136 -174 C160 -174 179 -163 191 -141 C196 -153 198 -159 198 -169 C198 -207 170 -244 119 -273 L134 -293 Z " />
<glyph glyph-name="Lcaron" unicode="&#x13d;" horiz-adv-x="611" d="M116 25 L32 25 L32 0 L566 0 L587 210 L559 210 C529 86 454 20 348 25 L256 25 L256 642 L347 642 L347 667 L32 667 L32 642 L116 642 L116 25 Z M436 393 C513 450 545 497 545 556 C545 618 501 667 446 667 C404 667 370 636 370 598 C370 561 401 530 438 530 C464 530 485 543 498 565 C504 553 506 546 506 534 C506 492 474 447 419 414 L436 393 Z " />
<glyph glyph-name="lcaron" unicode="&#x13e;" horiz-adv-x="396" d="M80 25 L4 25 L4 0 L270 0 L270 25 L200 25 L200 678 C156 670 124 668 39 667 L4 667 L4 642 L80 642 L80 25 Z M294 434 C366 484 394 525 394 577 C394 633 354 678 304 678 C265 678 234 650 234 615 C234 581 262 553 296 553 C320 553 339 564 351 585 C356 574 358 567 358 557 C358 520 330 484 278 454 L294 434 Z " />
<glyph glyph-name="Ldot" unicode="&#x13f;" horiz-adv-x="611" d="M116 25 L32 25 L32 0 L566 0 L587 210 L559 210 C529 86 454 20 348 25 L256 25 L256 642 L347 642 L347 667 L32 667 L32 642 L116 642 L116 25 Z M383 389 C349 389 321 361 321 328 C321 293 348 266 383 266 C417 266 444 294 444 328 C444 362 417 389 383 389 L383 389 Z " />
<glyph glyph-name="ldot" unicode="&#x140;" horiz-adv-x="345" d="M80 25 L4 25 L4 0 L270 0 L270 25 L200 25 L200 678 C156 670 124 668 39 667 L4 667 L4 642 L80 642 L80 25 Z M297 389 C263 389 235 361 235 328 C235 293 262 266 297 266 C331 266 358 294 358 328 C358 362 331 389 297 389 L297 389 Z " />
<glyph glyph-name="Lslash" unicode="&#x141;" horiz-adv-x="611" d="M116 292 L32 230 L32 197 L116 259 L116 25 L32 25 L32 0 L566 0 L587 210 L559 210 C529 86 454 20 348 25 L256 25 L256 333 L414 443 L414 476 L256 366 L256 642 L347 642 L347 667 L32 667 L32 642 L116 642 L116 292 Z " />
<glyph glyph-name="lslash" unicode="&#x142;" horiz-adv-x="273" d="M78 341 L8 289 L8 257 L78 309 L78 25 L4 25 L4 0 L270 0 L270 25 L198 25 L198 373 L274 424 L274 456 L198 404 L198 678 C145 669 119 668 36 667 L4 667 L4 642 L78 642 L78 341 Z " />
<glyph glyph-name="Nacute" unicode="&#x143;" horiz-adv-x="727" d="M595 -7 L619 -7 L619 570 C618 636 623 641 675 642 L703 642 L703 667 L503 667 L503 642 L531 642 C585 641 589 636 589 570 L589 241 L252 667 L25 667 L25 642 L53 642 C107 641 111 636 111 570 L111 97 C111 31 107 26 53 25 L25 25 L25 0 L238 0 L238 25 L197 25 C145 26 140 31 141 97 L141 585 L595 -7 Z M452 846 L321 740 L333 726 L586 821 L586 846 L452 846 Z " />
<glyph glyph-name="nacute" unicode="&#x144;" horiz-adv-x="585" d="M95 25 L25 25 L25 0 L277 0 L277 25 L215 25 L215 218 C215 264 218 281 230 302 C252 339 293 363 333 363 C352 363 368 354 377 339 C384 327 386 310 386 274 L386 25 L330 25 L330 0 L582 0 L582 25 L506 25 L506 274 C506 314 503 333 494 349 C474 383 430 403 376 403 C311 403 256 378 215 331 L215 404 C171 396 140 394 58 393 L25 393 L25 368 L95 368 L95 25 Z M349 621 L269 480 L285 471 L446 596 L446 621 L349 621 Z " />
<glyph glyph-name="Ncommaaccent" unicode="&#x145;" horiz-adv-x="727" d="M595 -7 L619 -7 L619 570 C618 636 623 641 675 642 L703 642 L703 667 L503 667 L503 642 L531 642 C585 641 589 636 589 570 L589 241 L252 667 L25 667 L25 642 L53 642 C107 641 111 636 111 570 L111 97 C111 31 107 26 53 25 L25 25 L25 0 L238 0 L238 25 L197 25 C145 26 140 31 141 97 L141 585 L595 -7 Z M352 -322 C429 -266 461 -219 461 -159 C461 -98 417 -49 362 -49 C319 -49 286 -80 286 -118 C286 -155 316 -186 354 -186 C380 -186 401 -173 413 -150 C420 -162 422 -170 422 -181 C422 -224 389 -268 335 -301 L352 -322 Z " />
<glyph glyph-name="ncommaaccent" unicode="&#x146;" horiz-adv-x="585" d="M95 25 L25 25 L25 0 L277 0 L277 25 L215 25 L215 218 C215 264 218 281 230 302 C252 339 293 363 333 363 C352 363 368 354 377 339 C384 327 386 310 386 274 L386 25 L330 25 L330 0 L582 0 L582 25 L506 25 L506 274 C506 314 503 333 494 349 C474 383 430 403 376 403 C311 403 256 378 215 331 L215 404 C171 396 140 394 58 393 L25 393 L25 368 L95 368 L95 25 Z M301 -293 C372 -243 400 -202 400 -149 C400 -94 360 -49 310 -49 C271 -49 240 -77 240 -112 C240 -146 268 -174 303 -174 C327 -174 346 -163 357 -141 C362 -153 364 -159 364 -169 C364 -207 336 -243 285 -273 L301 -293 Z " />
<glyph glyph-name="Ncaron" unicode="&#x147;" horiz-adv-x="727" d="M595 -7 L619 -7 L619 570 C618 636 623 641 675 642 L703 642 L703 667 L503 667 L503 642 L531 642 C585 641 589 636 589 570 L589 241 L252 667 L25 667 L25 642 L53 642 C107 641 111 636 111 570 L111 97 C111 31 107 26 53 25 L25 25 L25 0 L238 0 L238 25 L197 25 C145 26 140 31 141 97 L141 585 L595 -7 Z M537 847 L380 798 L224 847 L210 831 L363 727 L398 727 L551 831 L537 847 Z " />
<glyph glyph-name="ncaron" unicode="&#x148;" horiz-adv-x="585" d="M95 25 L25 25 L25 0 L277 0 L277 25 L215 25 L215 218 C215 264 218 281 230 302 C252 339 293 363 333 363 C352 363 368 354 377 339 C384 327 386 310 386 274 L386 25 L330 25 L330 0 L582 0 L582 25 L506 25 L506 274 C506 314 503 333 494 349 C474 383 430 403 376 403 C311 403 256 378 215 331 L215 404 C171 396 140 394 58 393 L25 393 L25 368 L95 368 L95 25 Z M430 621 L314 559 L199 621 L185 608 L302 472 L326 472 L443 608 L430 621 Z " />
<glyph glyph-name="Omacron" unicode="&#x14c;" horiz-adv-x="769" d="M385 684 C296 684 214 653 155 599 C81 529 40 435 40 334 C40 246 73 159 130 94 C194 21 282 -17 384 -17 C473 -17 553 13 613 68 C684 134 728 234 728 328 C728 532 581 684 385 684 L385 684 Z M388 657 C449 657 494 635 521 592 C551 544 561 475 561 314 C561 204 549 124 525 82 C498 33 453 10 384 10 C309 10 263 37 236 95 C216 138 207 214 207 333 C207 446 215 522 233 565 C259 629 306 657 388 657 L388 657 Z M234 807 L234 761 L534 761 L534 807 L234 807 Z " />
<glyph glyph-name="omacron" unicode="&#x14d;" horiz-adv-x="537" d="M268 403 C136 403 33 313 33 197 C33 80 136 -10 269 -10 C399 -10 504 81 504 194 C504 313 402 403 268 403 L268 403 Z M269 376 C307 376 342 360 355 335 C369 310 374 267 374 174 C374 107 365 66 347 46 C329 28 300 17 269 17 C211 17 178 44 168 99 C166 111 163 181 163 215 C163 289 171 327 190 347 C209 366 236 376 269 376 L269 376 Z M135 563 L135 516 L402 516 L402 563 L135 563 Z " />
<glyph glyph-name="Ohungarumlaut" unicode="&#x150;" horiz-adv-x="769" d="M385 684 C296 684 214 653 155 599 C81 529 40 435 40 334 C40 246 73 159 130 94 C194 21 282 -17 384 -17 C473 -17 553 13 613 68 C684 134 728 234 728 328 C728 532 581 684 385 684 L385 684 Z M388 657 C449 657 494 635 521 592 C551 544 561 475 561 314 C561 204 549 124 525 82 C498 33 453 10 384 10 C309 10 263 37 236 95 C216 138 207 214 207 333 C207 446 215 522 233 565 C259 629 306 657 388 657 L388 657 Z M381 846 L265 737 L274 726 L502 823 L502 846 L381 846 Z M586 846 L470 737 L479 726 L707 823 L707 846 L586 846 Z " />
<glyph glyph-name="ohungarumlaut" unicode="&#x151;" horiz-adv-x="537" d="M268 403 C136 403 33 313 33 197 C33 80 136 -10 269 -10 C399 -10 504 81 504 194 C504 313 402 403 268 403 L268 403 Z M269 376 C307 376 342 360 355 335 C369 310 374 267 374 174 C374 107 365 66 347 46 C329 28 300 17 269 17 C211 17 178 44 168 99 C166 111 163 181 163 215 C163 289 171 327 190 347 C209 366 236 376 269 376 L269 376 Z M252 621 L188 478 L201 471 L338 599 L338 621 L252 621 Z M395 621 L331 478 L345 471 L482 599 L482 621 L395 621 Z " />
<glyph glyph-name="OE" unicode="&#x152;" horiz-adv-x="1052" d="M464 667 C427 679 401 684 368 684 C188 684 40 521 40 324 C40 129 180 -17 366 -17 C402 -17 432 -12 476 0 L1001 0 L1015 212 L987 212 C952 64 901 23 751 25 L649 25 L649 326 L677 326 C779 324 806 298 811 197 L840 197 L840 469 L811 469 C810 383 773 350 680 351 L649 351 L649 642 L777 642 C893 646 940 609 966 497 L994 497 L977 667 L464 667 Z M509 143 C509 96 507 84 497 66 C477 30 433 10 378 10 C311 10 263 37 239 88 C218 132 206 233 206 357 C206 465 219 551 241 590 C265 632 315 657 375 657 C424 657 470 638 490 609 C504 590 509 566 509 520 L509 143 Z " />
<glyph glyph-name="oe" unicode="&#x153;" horiz-adv-x="777" d="M752 221 C741 337 671 403 560 403 C505 403 462 389 419 358 C360 391 319 403 268 403 C141 403 33 308 33 195 C33 85 139 -10 264 -10 C316 -10 361 2 419 33 C461 4 506 -10 556 -10 C641 -10 705 30 752 113 L727 125 C687 55 638 20 580 20 C541 20 505 41 490 74 C483 90 481 108 481 154 C481 169 481 171 482 221 L752 221 Z M482 246 L482 274 C482 318 484 338 491 350 C501 368 519 376 548 376 C576 376 595 368 605 350 C612 338 614 318 614 274 L614 246 L482 246 Z M260 376 C297 376 332 359 344 335 C357 311 362 272 362 195 C362 123 357 84 346 60 C333 35 299 17 260 17 C219 17 186 35 172 65 C163 85 158 137 158 216 C158 291 165 327 184 347 C203 366 229 376 260 376 L260 376 Z " />
<glyph glyph-name="Racute" unicode="&#x154;" horiz-adv-x="725" d="M116 25 L32 25 L32 0 L347 0 L347 25 L256 25 L256 343 L319 343 C404 346 429 314 438 192 C442 120 450 85 469 53 C493 16 533 -4 587 -4 C626 -4 661 2 705 18 L705 44 C681 36 669 33 653 33 C619 33 602 56 602 105 L603 134 C604 143 604 153 604 158 C604 259 529 336 410 355 C470 358 487 360 509 368 C577 392 618 446 618 512 C618 565 591 613 547 635 C497 662 462 667 340 667 L32 667 L32 642 L116 642 L116 25 Z M256 368 L256 642 L340 642 C401 642 425 637 445 619 C467 600 476 569 476 515 C476 398 448 368 340 368 L256 368 Z M387 846 L256 740 L268 726 L521 821 L521 846 L387 846 Z " />
<glyph glyph-name="racute" unicode="&#x155;" horiz-adv-x="433" d="M89 25 L19 25 L19 0 L296 0 L296 25 L209 25 L209 200 C209 255 218 285 247 322 C265 346 294 367 309 367 C313 367 317 363 317 359 C317 356 316 354 313 352 C300 340 296 331 296 317 C296 285 323 261 357 261 C395 261 423 288 423 325 C423 369 386 403 337 403 C284 403 239 373 209 318 L209 404 C166 396 134 394 48 393 L19 393 L19 368 L89 368 L89 25 Z M283 621 L203 480 L220 471 L380 596 L380 621 L283 621 Z " />
<glyph glyph-name="Rcommaaccent" unicode="&#x156;" horiz-adv-x="725" d="M116 25 L32 25 L32 0 L347 0 L347 25 L256 25 L256 343 L319 343 C404 346 429 314 438 192 C442 120 450 85 469 53 C493 16 533 -4 587 -4 C626 -4 661 2 705 18 L705 44 C681 36 669 33 653 33 C619 33 602 56 602 105 L603 134 C604 143 604 153 604 158 C604 259 529 336 410 355 C470 358 487 360 509 368 C577 392 618 446 618 512 C618 565 591 613 547 635 C497 662 462 667 340 667 L32 667 L32 642 L116 642 L116 25 Z M256 368 L256 642 L340 642 C401 642 425 637 445 619 C467 600 476 569 476 515 C476 398 448 368 340 368 L256 368 Z M342 -322 C418 -266 450 -219 450 -159 C450 -98 406 -49 352 -49 C310 -49 276 -80 276 -118 C276 -155 307 -186 344 -186 C370 -186 391 -173 403 -150 C409 -162 411 -170 411 -181 C411 -224 379 -268 325 -301 L342 -322 Z " />
<glyph glyph-name="rcommaaccent" unicode="&#x157;" horiz-adv-x="433" d="M89 25 L19 25 L19 0 L296 0 L296 25 L209 25 L209 200 C209 255 218 285 247 322 C265 346 294 367 309 367 C313 367 317 363 317 359 C317 356 316 354 313 352 C300 340 296 331 296 317 C296 285 323 261 357 261 C395 261 423 288 423 325 C423 369 386 403 337 403 C284 403 239 373 209 318 L209 404 C166 396 134 394 48 393 L19 393 L19 368 L89 368 L89 25 Z M137 -293 C208 -243 236 -202 236 -149 C236 -94 196 -49 146 -49 C107 -49 76 -77 76 -112 C76 -146 104 -174 138 -174 C162 -174 181 -163 193 -141 C198 -153 200 -159 200 -169 C200 -207 172 -243 121 -273 L137 -293 Z " />
<glyph glyph-name="Rcaron" unicode="&#x158;" horiz-adv-x="725" d="M116 25 L32 25 L32 0 L347 0 L347 25 L256 25 L256 343 L319 343 C404 346 429 314 438 192 C442 120 450 85 469 53 C493 16 533 -4 587 -4 C626 -4 661 2 705 18 L705 44 C681 36 669 33 653 33 C619 33 602 56 602 105 L603 134 C604 143 604 153 604 158 C604 259 529 336 410 355 C470 358 487 360 509 368 C577 392 618 446 618 512 C618 565 591 613 547 635 C497 662 462 667 340 667 L32 667 L32 642 L116 642 L116 25 Z M256 368 L256 642 L340 642 C401 642 425 637 445 619 C467 600 476 569 476 515 C476 398 448 368 340 368 L256 368 Z M500 847 L343 798 L186 847 L172 831 L326 727 L361 727 L514 831 L500 847 Z " />
<glyph glyph-name="rcaron" unicode="&#x159;" horiz-adv-x="433" d="M89 25 L19 25 L19 0 L296 0 L296 25 L209 25 L209 200 C209 255 218 285 247 322 C265 346 294 367 309 367 C313 367 317 363 317 359 C317 356 316 354 313 352 C300 340 296 331 296 317 C296 285 323 261 357 261 C395 261 423 288 423 325 C423 369 386 403 337 403 C284 403 239 373 209 318 L209 404 C166 396 134 394 48 393 L19 393 L19 368 L89 368 L89 25 Z M349 621 L234 559 L118 621 L105 608 L222 472 L246 472 L363 608 L349 621 Z " />
<glyph glyph-name="Sacute" unicode="&#x15a;" horiz-adv-x="557" d="M457 667 L429 667 L400 636 C350 670 308 684 258 684 C137 684 45 593 45 475 C45 412 72 358 121 326 C144 311 144 311 259 275 C365 244 368 243 395 222 C416 205 431 171 431 139 C431 67 364 10 280 10 C225 10 170 35 131 77 C102 108 88 136 76 186 L48 186 L48 0 L75 0 L110 42 C172 1 225 -17 286 -17 C417 -17 516 79 516 206 C516 282 481 347 421 380 C396 394 337 414 261 434 C159 461 124 490 124 546 C124 610 181 657 257 657 C350 657 413 594 429 487 L457 487 L457 667 Z M333 846 L202 740 L214 726 L468 821 L468 846 L333 846 Z " />
<glyph glyph-name="sacute" unicode="&#x15b;" horiz-adv-x="391" d="M329 403 L303 403 C301 383 297 376 287 376 C282 376 272 379 261 383 C232 396 202 403 175 403 C101 403 40 345 40 275 C40 242 56 209 83 188 C103 172 135 160 194 146 C272 129 297 112 297 78 C297 44 257 17 208 17 C129 17 69 70 62 146 L35 146 L35 0 L62 0 C63 17 68 26 79 26 C84 26 89 24 99 18 C130 -1 164 -10 201 -10 C292 -10 359 50 359 134 C359 169 345 200 320 220 C298 237 248 254 167 273 C126 282 106 299 106 325 C106 354 136 376 178 376 C243 376 293 340 303 286 L329 286 L329 403 Z M244 621 L164 480 L181 471 L341 596 L341 621 L244 621 Z " />
<glyph glyph-name="Scircumflex" unicode="&#x15c;" horiz-adv-x="557" d="M457 667 L429 667 L400 636 C350 670 308 684 258 684 C137 684 45 593 45 475 C45 412 72 358 121 326 C144 311 144 311 259 275 C365 244 368 243 395 222 C416 205 431 171 431 139 C431 67 364 10 280 10 C225 10 170 35 131 77 C102 108 88 136 76 186 L48 186 L48 0 L75 0 L110 42 C172 1 225 -17 286 -17 C417 -17 516 79 516 206 C516 282 481 347 421 380 C396 394 337 414 261 434 C159 461 124 490 124 546 C124 610 181 657 257 657 C350 657 413 594 429 487 L457 487 L457 667 Z M118 726 L275 775 L431 726 L445 742 L292 846 L257 846 L104 742 L118 726 Z " />
<glyph glyph-name="scircumflex" unicode="&#x15d;" horiz-adv-x="391" d="M329 403 L303 403 C301 383 297 376 287 376 C282 376 272 379 261 383 C232 396 202 403 175 403 C101 403 40 345 40 275 C40 242 56 209 83 188 C103 172 135 160 194 146 C272 129 297 112 297 78 C297 44 257 17 208 17 C129 17 69 70 62 146 L35 146 L35 0 L62 0 C63 17 68 26 79 26 C84 26 89 24 99 18 C130 -1 164 -10 201 -10 C292 -10 359 50 359 134 C359 169 345 200 320 220 C298 237 248 254 167 273 C126 282 106 299 106 325 C106 354 136 376 178 376 C243 376 293 340 303 286 L329 286 L329 403 Z M90 472 L205 534 L321 472 L334 485 L217 621 L194 621 L76 485 L90 472 Z " />
<glyph glyph-name="Scedilla" unicode="&#x15e;" horiz-adv-x="557" d="M298 -16 C426 -9 516 83 516 207 C516 282 481 347 421 380 C396 395 338 414 261 434 C160 461 124 490 124 546 C124 610 181 657 257 657 C350 657 413 594 429 487 L457 487 L457 667 L429 667 L400 636 C350 670 308 684 258 684 C137 684 45 593 45 475 C45 412 72 358 121 326 C144 311 144 311 259 275 C365 244 368 243 395 222 C416 205 431 171 431 139 C431 67 364 10 280 10 C225 10 170 35 131 77 C102 108 88 136 76 186 L48 186 L48 0 L75 0 L110 42 C161 7 207 -10 266 -16 L242 -76 C281 -87 293 -98 293 -122 C293 -156 270 -180 236 -180 C214 -180 192 -167 192 -153 C192 -151 193 -148 195 -144 C198 -137 200 -130 200 -126 C200 -114 189 -104 175 -104 C158 -104 145 -118 145 -135 C145 -176 197 -207 264 -207 C338 -207 392 -172 392 -125 C392 -86 357 -59 305 -59 C300 -59 292 -60 281 -62 L298 -16 Z " />
<glyph glyph-name="scedilla" unicode="&#x15f;" horiz-adv-x="391" d="M213 -10 C299 -5 359 55 359 134 C359 169 345 200 320 220 C298 237 248 254 167 273 C126 282 106 299 106 325 C106 354 136 376 178 376 C243 376 293 340 303 286 L329 286 L329 403 L303 403 C301 383 297 376 287 376 C282 376 272 379 261 383 C232 396 202 403 175 403 C101 403 40 345 40 275 C40 242 56 209 83 188 C103 172 135 160 194 146 C272 129 297 112 297 78 C297 44 257 17 208 17 C129 17 69 70 62 146 L35 146 L35 0 L62 0 C63 17 68 26 79 26 C84 26 89 24 99 18 C126 2 158 -8 186 -9 L162 -72 C200 -74 223 -94 223 -125 C223 -154 198 -180 169 -180 C151 -180 131 -165 131 -151 C131 -149 131 -148 132 -145 C134 -140 135 -136 135 -134 C135 -123 123 -114 110 -114 C94 -114 83 -125 83 -140 C83 -172 124 -197 177 -197 C242 -197 298 -159 298 -115 C298 -77 261 -49 210 -49 C208 -49 202 -49 197 -50 L213 -10 Z " />
<glyph glyph-name="Scaron" unicode="&#x160;" horiz-adv-x="557" d="M431 847 L275 798 L118 847 L104 831 L257 727 L292 727 L445 831 L431 847 Z M457 667 L429 667 L400 636 C350 670 308 684 258 684 C137 684 45 593 45 475 C45 412 72 358 121 326 C144 311 144 311 259 275 C365 244 368 243 395 222 C416 205 431 171 431 139 C431 67 364 10 280 10 C225 10 170 35 131 77 C102 108 88 136 76 186 L48 186 L48 0 L75 0 L110 42 C172 1 225 -17 286 -17 C417 -17 516 79 516 206 C516 282 481 347 421 380 C396 394 337 414 261 434 C159 461 124 490 124 546 C124 610 181 657 257 657 C350 657 413 594 429 487 L457 487 L457 667 Z " />
<glyph glyph-name="scaron" unicode="&#x161;" horiz-adv-x="391" d="M316 621 L200 559 L85 621 L72 608 L189 472 L212 472 L329 608 L316 621 Z M329 403 L303 403 C301 383 297 376 287 376 C282 376 272 379 261 383 C232 396 202 403 175 403 C101 403 40 345 40 275 C40 242 56 209 83 188 C103 172 135 160 194 146 C272 129 297 112 297 78 C297 44 257 17 208 17 C129 17 69 70 62 146 L35 146 L35 0 L62 0 C63 17 68 26 79 26 C84 26 89 24 99 18 C130 -1 164 -10 201 -10 C292 -10 359 50 359 134 C359 169 345 200 320 220 C298 237 248 254 167 273 C126 282 106 299 106 325 C106 354 136 376 178 376 C243 376 293 340 303 286 L329 286 L329 403 Z " />
<glyph glyph-name="Tcommaaccent" unicode="&#x162;" horiz-adv-x="646" d="M254 25 L159 25 L159 0 L488 0 L488 25 L394 25 L394 642 L417 642 C531 649 596 588 608 462 L636 462 L623 667 L24 667 L11 462 L39 462 C51 588 114 649 225 642 L254 642 L254 25 Z M311 -322 C388 -266 420 -219 420 -159 C420 -98 376 -49 321 -49 C279 -49 246 -80 246 -118 C246 -155 276 -186 313 -186 C339 -186 360 -173 373 -150 C379 -162 381 -170 381 -181 C381 -224 349 -268 294 -301 L311 -322 Z " />
<glyph glyph-name="tcommaaccent" unicode="&#x163;" horiz-adv-x="320" d="M73 368 L73 89 C73 23 107 -10 176 -10 C254 -10 300 25 317 97 L287 102 C274 55 258 37 230 37 C205 37 193 54 193 89 L193 368 L286 368 L286 393 L193 393 L193 564 L166 564 C132 482 76 419 4 384 L4 368 L73 368 Z M152 -293 C223 -243 251 -202 251 -149 C251 -94 211 -49 161 -49 C122 -49 91 -77 91 -112 C91 -146 119 -174 154 -174 C177 -174 197 -163 208 -141 C213 -153 215 -159 215 -169 C215 -207 187 -243 136 -273 L152 -293 Z " />
<glyph glyph-name="Tcaron" unicode="&#x164;" horiz-adv-x="646" d="M254 25 L159 25 L159 0 L488 0 L488 25 L394 25 L394 642 L417 642 C531 649 596 588 608 462 L636 462 L623 667 L24 667 L11 462 L39 462 C51 588 114 649 225 642 L254 642 L254 25 Z M480 847 L323 798 L166 847 L153 831 L306 727 L341 727 L494 831 L480 847 Z " />
<glyph glyph-name="tcaron" unicode="&#x165;" horiz-adv-x="386" d="M73 368 L73 89 C73 23 107 -10 176 -10 C254 -10 300 25 317 97 L287 102 C274 55 258 37 230 37 C205 37 193 54 193 89 L193 368 L286 368 L286 393 L193 393 L193 564 L166 564 C132 482 76 419 4 384 L4 368 L73 368 Z M280 457 C350 506 379 548 379 600 C379 656 339 701 289 701 C251 701 220 673 220 638 C220 604 248 576 282 576 C306 576 325 587 337 608 C342 597 343 591 343 580 C343 543 315 506 264 476 L280 457 Z " />
<glyph glyph-name="utilde" unicode="&#x169;" horiz-adv-x="552" d="M359 0 L549 0 L549 25 L479 25 L479 404 C435 396 403 394 318 393 L283 393 L283 368 L359 368 L359 171 C359 129 355 107 344 88 C324 56 286 33 250 33 C232 33 214 42 207 55 C201 66 200 73 200 110 L200 404 C156 396 124 394 39 393 L4 393 L4 368 L80 368 L80 133 C80 85 84 61 95 40 C114 7 151 -10 204 -10 C267 -10 311 12 359 69 L359 0 Z M168 495 C186 518 199 527 218 527 C238 527 264 521 289 511 C315 500 325 497 338 497 C376 497 409 525 439 581 L418 591 C405 569 390 558 374 558 C362 558 341 564 316 574 C295 584 273 589 254 589 C215 589 184 565 148 505 L168 495 Z " />
<glyph glyph-name="Umacron" unicode="&#x16a;" horiz-adv-x="702" d="M105 642 L105 213 C105 125 107 108 123 81 C158 21 250 -17 361 -17 C480 -17 562 25 590 101 C599 125 601 150 601 213 L601 570 C601 636 605 641 658 642 L685 642 L685 667 L485 667 L485 642 L513 642 C567 641 571 636 571 570 L571 214 C571 144 566 116 549 86 C524 43 470 18 398 18 C334 18 287 40 263 82 C249 106 245 136 245 213 L245 642 L347 642 L347 667 L21 667 L21 642 L105 642 Z M220 807 L220 761 L520 761 L520 807 L220 807 Z " />
<glyph glyph-name="umacron" unicode="&#x16b;" horiz-adv-x="552" d="M359 0 L549 0 L549 25 L479 25 L479 404 C435 396 403 394 318 393 L283 393 L283 368 L359 368 L359 171 C359 129 355 107 344 88 C324 56 286 33 250 33 C232 33 214 42 207 55 C201 66 200 73 200 110 L200 404 C156 396 124 394 39 393 L4 393 L4 368 L80 368 L80 133 C80 85 84 61 95 40 C114 7 151 -10 204 -10 C267 -10 311 12 359 69 L359 0 Z M152 563 L152 516 L419 516 L419 563 L152 563 Z " />
<glyph glyph-name="ubreve" unicode="&#x16d;" horiz-adv-x="552" d="M359 0 L549 0 L549 25 L479 25 L479 404 C435 396 403 394 318 393 L283 393 L283 368 L359 368 L359 171 C359 129 355 107 344 88 C324 56 286 33 250 33 C232 33 214 42 207 55 C201 66 200 73 200 110 L200 404 C156 396 124 394 39 393 L4 393 L4 368 L80 368 L80 133 C80 85 84 61 95 40 C114 7 151 -10 204 -10 C267 -10 311 12 359 69 L359 0 Z M376 615 C354 571 325 552 281 552 C239 552 207 574 192 615 L166 615 C174 531 221 477 284 477 C347 477 390 528 400 615 L376 615 Z " />
<glyph glyph-name="Uring" unicode="&#x16e;" horiz-adv-x="702" d="M105 642 L105 213 C105 125 107 108 123 81 C158 21 250 -17 361 -17 C480 -17 562 25 590 101 C599 125 601 150 601 213 L601 570 C601 636 605 641 658 642 L685 642 L685 667 L485 667 L485 642 L513 642 C567 641 571 636 571 570 L571 214 C571 144 566 116 549 86 C524 43 470 18 398 18 C334 18 287 40 263 82 C249 106 245 136 245 213 L245 642 L347 642 L347 667 L21 667 L21 642 L105 642 Z M382 877 C334 877 294 840 294 795 C294 748 333 710 382 710 C431 710 471 747 471 794 C471 840 432 877 382 877 L382 877 Z M383 838 C408 838 429 818 429 793 C429 769 408 749 383 749 C357 749 336 769 336 794 C336 818 357 838 383 838 L383 838 Z " />
<glyph glyph-name="uring" unicode="&#x16f;" horiz-adv-x="552" d="M359 0 L549 0 L549 25 L479 25 L479 404 C435 396 403 394 318 393 L283 393 L283 368 L359 368 L359 171 C359 129 355 107 344 88 C324 56 286 33 250 33 C232 33 214 42 207 55 C201 66 200 73 200 110 L200 404 C156 396 124 394 39 393 L4 393 L4 368 L80 368 L80 133 C80 85 84 61 95 40 C114 7 151 -10 204 -10 C267 -10 311 12 359 69 L359 0 Z M297 630 C249 630 209 591 209 545 C209 497 248 460 298 460 C347 460 386 497 386 544 C386 592 347 630 297 630 L297 630 Z M297 591 C323 591 344 570 344 544 C344 519 323 499 298 499 C271 499 251 519 251 544 C251 570 272 591 297 591 L297 591 Z " />
<glyph glyph-name="Uhungarumlaut" unicode="&#x170;" horiz-adv-x="702" d="M105 642 L105 213 C105 125 107 108 123 81 C158 21 250 -17 361 -17 C480 -17 562 25 590 101 C599 125 601 150 601 213 L601 570 C601 636 605 641 658 642 L685 642 L685 667 L485 667 L485 642 L513 642 C567 641 571 636 571 570 L571 214 C571 144 566 116 549 86 C524 43 470 18 398 18 C334 18 287 40 263 82 C249 106 245 136 245 213 L245 642 L347 642 L347 667 L21 667 L21 642 L105 642 Z M356 846 L240 737 L249 726 L477 823 L477 846 L356 846 Z M561 846 L445 737 L454 726 L682 823 L682 846 L561 846 Z " />
<glyph glyph-name="uhungarumlaut" unicode="&#x171;" horiz-adv-x="552" d="M359 0 L549 0 L549 25 L479 25 L479 404 C435 396 403 394 318 393 L283 393 L283 368 L359 368 L359 171 C359 129 355 107 344 88 C324 56 286 33 250 33 C232 33 214 42 207 55 C201 66 200 73 200 110 L200 404 C156 396 124 394 39 393 L4 393 L4 368 L80 368 L80 133 C80 85 84 61 95 40 C114 7 151 -10 204 -10 C267 -10 311 12 359 69 L359 0 Z M258 621 L194 478 L207 471 L344 599 L344 621 L258 621 Z M401 621 L338 478 L351 471 L488 599 L488 621 L401 621 Z " />
<glyph glyph-name="Uogonek" unicode="&#x172;" horiz-adv-x="702" d="M577 -127 C556 -134 547 -136 530 -136 C488 -136 464 -117 464 -85 C464 -53 481 -26 530 21 C592 79 602 106 601 213 L601 570 C601 636 605 641 658 642 L685 642 L685 667 L485 667 L485 642 L513 642 C567 641 571 636 571 570 L571 214 C571 144 566 116 549 86 C524 43 470 18 398 18 C334 18 287 40 263 82 C249 106 245 136 245 213 L245 642 L347 642 L347 667 L21 667 L21 642 L105 642 L105 213 C105 125 107 108 123 81 C159 21 250 -17 359 -17 C391 -17 422 -13 454 -6 C404 -36 380 -68 380 -105 C380 -152 415 -178 476 -178 C513 -178 537 -172 577 -154 L577 -127 Z " />
<glyph glyph-name="uogonek" unicode="&#x173;" horiz-adv-x="552" d="M549 0 L549 25 L479 25 L479 404 C435 396 403 394 318 393 L283 393 L283 368 L359 368 L359 171 C359 129 355 107 344 88 C324 56 286 33 250 33 C232 33 214 42 207 55 C201 66 200 73 200 110 L200 404 C156 396 124 394 39 393 L4 393 L4 368 L80 368 L80 133 C80 85 84 61 95 40 C114 7 151 -10 204 -10 C267 -10 311 12 359 69 L359 0 L449 0 C372 -35 342 -64 342 -104 C342 -145 375 -169 430 -169 C465 -169 487 -164 532 -145 L532 -121 C511 -127 501 -129 484 -129 C445 -129 420 -112 420 -84 C420 -56 439 -33 490 0 L549 0 Z " />
<glyph glyph-name="Wcircumflex" unicode="&#x174;" horiz-adv-x="943" d="M647 642 L706 642 L706 667 L-2 667 L-2 642 L69 642 L328 -13 L352 -13 L490 292 L614 -13 L642 -13 L851 579 C870 629 884 641 927 642 L946 642 L946 667 L752 667 L752 642 L788 642 C818 642 830 636 830 622 C830 617 827 606 822 592 L682 192 L571 469 L647 642 Z M611 642 L554 510 L504 642 L611 642 Z M350 642 L473 333 L403 179 L220 642 L350 642 Z M355 726 L512 775 L669 726 L683 742 L530 846 L495 846 L342 742 L355 726 Z " />
<glyph glyph-name="Ycircumflex" unicode="&#x176;" horiz-adv-x="629" d="M244 25 L149 25 L149 0 L478 0 L478 25 L384 25 L384 307 L541 590 C564 634 573 640 617 642 L636 642 L636 667 L433 667 L433 642 L485 642 C512 642 522 638 522 627 C522 622 518 611 511 598 L376 351 L203 642 L300 642 L300 667 L-22 667 L-22 642 L42 642 L244 307 L244 25 Z M174 726 L330 775 L487 726 L501 742 L348 846 L313 846 L160 742 L174 726 Z " />
<glyph glyph-name="ycircumflex" unicode="&#x177;" horiz-adv-x="469" d="M220 2 L170 -126 C149 -179 136 -200 124 -200 C118 -200 115 -198 110 -191 C92 -168 77 -158 55 -158 C25 -158 1 -182 1 -211 C1 -245 30 -270 69 -270 C120 -270 148 -240 191 -139 L393 329 C409 364 415 367 456 368 L481 368 L481 393 L303 393 L303 368 L336 368 C360 368 369 364 369 352 C369 347 366 335 360 322 L284 145 L178 368 L229 368 L229 393 L-13 393 L-13 368 L39 368 L220 2 Z M131 472 L247 534 L362 472 L376 485 L259 621 L235 621 L118 485 L131 472 Z " />
<glyph glyph-name="Ydieresis" unicode="&#x178;" horiz-adv-x="629" d="M212 850 C178 850 150 822 150 789 C150 755 177 727 212 727 C245 727 273 755 273 789 C273 823 246 850 212 850 L212 850 Z M441 850 C407 850 379 822 379 789 C379 755 406 727 441 727 C474 727 502 755 502 789 C502 823 475 850 441 850 L441 850 Z M244 25 L149 25 L149 0 L478 0 L478 25 L384 25 L384 307 L541 590 C564 634 573 640 617 642 L636 642 L636 667 L433 667 L433 642 L485 642 C512 642 522 638 522 627 C522 622 518 611 511 598 L376 351 L203 642 L300 642 L300 667 L-22 667 L-22 642 L42 642 L244 307 L244 25 Z " />
<glyph glyph-name="Zacute" unicode="&#x179;" horiz-adv-x="591" d="M21 32 L21 0 L542 0 L549 213 L521 213 C495 82 416 17 293 25 L182 25 L542 648 L542 667 L69 667 L57 490 L85 490 C110 600 176 648 293 642 L373 642 L21 32 Z M373 846 L242 740 L254 726 L508 821 L508 846 L373 846 Z " />
<glyph glyph-name="zacute" unicode="&#x17a;" horiz-adv-x="452" d="M414 393 L58 393 L53 246 L77 246 C97 336 143 373 228 368 L274 368 L28 20 L28 0 L414 0 L424 163 L396 163 C371 64 320 21 230 25 L170 25 L414 373 L414 393 Z M282 621 L201 480 L218 471 L378 596 L378 621 L282 621 Z " />
<glyph glyph-name="Zdotaccent" unicode="&#x17b;" horiz-adv-x="591" d="M21 32 L21 0 L542 0 L549 213 L521 213 C495 82 416 17 293 25 L182 25 L542 648 L542 667 L69 667 L57 490 L85 490 C110 600 176 648 293 642 L373 642 L21 32 Z M315 850 C281 850 253 822 253 789 C253 755 280 727 315 727 C348 727 376 755 376 789 C376 823 349 850 315 850 L315 850 Z " />
<glyph glyph-name="zdotaccent" unicode="&#x17c;" horiz-adv-x="452" d="M414 393 L58 393 L53 246 L77 246 C97 336 143 373 228 368 L274 368 L28 20 L28 0 L414 0 L424 163 L396 163 C371 64 320 21 230 25 L170 25 L414 373 L414 393 Z M245 610 C211 610 183 582 183 549 C183 514 210 487 245 487 C279 487 306 515 306 549 C306 583 279 610 245 610 L245 610 Z " />
<glyph glyph-name="Zcaron" unicode="&#x17d;" horiz-adv-x="591" d="M471 847 L314 798 L157 847 L143 831 L296 727 L332 727 L485 831 L471 847 Z M21 32 L21 0 L542 0 L549 213 L521 213 C495 82 416 17 293 25 L182 25 L542 648 L542 667 L69 667 L57 490 L85 490 C110 600 176 648 293 642 L373 642 L21 32 Z " />
<glyph glyph-name="zcaron" unicode="&#x17e;" horiz-adv-x="452" d="M363 621 L248 559 L132 621 L119 608 L236 472 L260 472 L377 608 L363 621 Z M414 393 L58 393 L53 246 L77 246 C97 336 143 373 228 368 L274 368 L28 20 L28 0 L414 0 L424 163 L396 163 C371 64 320 21 230 25 L170 25 L414 373 L414 393 Z " />
<glyph glyph-name="florin" unicode="&#x192;" horiz-adv-x="525" d="M200 315 L126 -48 C103 -161 95 -187 73 -218 C61 -236 41 -247 20 -247 C7 -247 -3 -242 -3 -237 C-3 -235 -2 -233 1 -230 C10 -221 13 -214 13 -206 C13 -187 -3 -173 -25 -173 C-48 -173 -66 -190 -66 -213 C-66 -244 -31 -268 15 -268 C81 -268 136 -229 179 -152 C209 -97 223 -53 247 62 L298 315 L394 315 L399 340 L303 340 L326 450 C355 593 393 659 448 659 C456 659 460 656 460 651 C460 648 458 645 455 643 C440 636 433 628 432 615 L432 614 C432 594 452 578 475 578 C503 578 525 598 525 624 C525 656 492 680 448 680 C379 680 317 637 272 557 C242 506 229 462 205 340 L113 340 L108 315 L200 315 Z " />
<glyph glyph-name="uni01CD" unicode="&#x1cd;" horiz-adv-x="658" d="M385 179 L442 25 L352 25 L352 0 L665 0 L665 25 L591 25 L352 667 L319 667 L98 82 C81 30 75 26 25 25 L-11 25 L-11 0 L206 0 L206 25 L150 25 C126 25 115 29 115 38 C115 43 118 54 123 67 L165 179 L385 179 Z M375 204 L175 204 L274 469 L375 204 Z M492 847 L335 798 L179 847 L165 831 L318 727 L353 727 L506 831 L492 847 Z " />
<glyph glyph-name="uni01CE" unicode="&#x1ce;" horiz-adv-x="480" d="M460 56 C450 45 441 40 431 40 C414 40 409 49 409 81 L409 263 C409 321 405 339 386 358 C359 386 304 403 240 403 C143 403 69 359 69 301 C69 272 92 249 121 249 C153 249 180 272 180 299 C180 311 176 321 165 333 C158 341 155 346 155 350 C155 365 183 376 222 376 C261 376 282 367 291 346 C296 335 296 335 297 258 L297 233 C128 221 33 167 33 84 C33 28 80 -10 149 -10 C208 -10 258 12 297 56 C318 16 349 -5 387 -5 C419 -5 452 11 477 40 L460 56 Z M297 156 C297 112 294 95 285 77 C273 55 249 42 221 42 C177 42 145 73 145 116 C145 175 197 205 297 206 L297 156 Z M373 621 L257 559 L142 621 L128 608 L245 472 L269 472 L386 608 L373 621 Z " />
<glyph glyph-name="uni01D3" unicode="&#x1d3;" horiz-adv-x="702" d="M105 642 L105 213 C105 125 107 108 123 81 C158 21 250 -17 361 -17 C480 -17 562 25 590 101 C599 125 601 150 601 213 L601 570 C601 636 605 641 658 642 L685 642 L685 667 L485 667 L485 642 L513 642 C567 641 571 636 571 570 L571 214 C571 144 566 116 549 86 C524 43 470 18 398 18 C334 18 287 40 263 82 C249 106 245 136 245 213 L245 642 L347 642 L347 667 L21 667 L21 642 L105 642 Z M529 847 L372 798 L215 847 L201 831 L354 727 L390 727 L543 831 L529 847 Z " />
<glyph glyph-name="uni01D4" unicode="&#x1d4;" horiz-adv-x="552" d="M359 0 L549 0 L549 25 L479 25 L479 404 C435 396 403 394 318 393 L283 393 L283 368 L359 368 L359 171 C359 129 355 107 344 88 C324 56 286 33 250 33 C232 33 214 42 207 55 C201 66 200 73 200 110 L200 404 C156 396 124 394 39 393 L4 393 L4 368 L80 368 L80 133 C80 85 84 61 95 40 C114 7 151 -10 204 -10 C267 -10 311 12 359 69 L359 0 Z M409 621 L293 559 L178 621 L165 608 L282 472 L305 472 L422 608 L409 621 Z " />
<glyph glyph-name="Gcaron" unicode="&#x1e6;" horiz-adv-x="695" d="M594 667 L566 667 L533 635 C483 668 429 684 370 684 C291 684 212 653 150 597 C75 530 36 437 36 324 C36 126 166 -17 346 -17 C407 -17 477 3 531 37 C560 55 581 73 616 109 L616 224 L686 224 L686 249 L371 249 L371 224 L476 224 L476 109 C476 51 420 10 341 10 C308 10 275 19 253 34 C229 50 218 74 211 125 C208 146 202 317 202 375 C202 480 212 551 232 593 C252 632 306 657 372 657 C434 657 489 634 520 597 C544 566 555 539 566 480 L594 480 L594 667 Z M522 847 L365 798 L209 847 L195 831 L348 727 L383 727 L536 831 L522 847 Z " />
<glyph glyph-name="gcaron" unicode="&#x1e7;" horiz-adv-x="518" d="M230 35 L142 35 L132 35 L129 35 C95 35 78 44 78 64 C78 89 108 116 149 127 C183 112 213 106 249 106 C359 106 437 169 437 256 C437 283 431 303 417 327 C417 339 421 345 429 345 C432 345 434 344 438 340 C449 328 460 323 472 323 C495 323 512 340 512 363 C512 389 492 408 465 408 C436 408 414 389 400 350 C356 387 312 403 252 403 C144 403 63 339 63 254 C63 208 83 172 126 140 C68 124 28 76 28 23 C28 -25 56 -59 106 -73 C57 -86 30 -114 30 -154 C30 -222 120 -271 242 -271 C388 -271 482 -202 482 -93 C482 -44 460 -3 422 18 C400 31 372 36 328 36 L230 35 Z M319 217 C319 187 317 174 310 162 C300 144 277 133 249 133 C222 133 199 144 189 162 C182 174 180 187 180 217 L180 292 C180 322 182 335 189 347 C199 365 222 376 250 376 C277 376 300 365 310 347 C317 335 319 322 319 292 L319 217 Z M371 -81 C406 -81 425 -98 425 -131 C425 -196 351 -244 248 -244 C163 -244 107 -205 107 -146 C107 -122 117 -102 139 -81 L371 -81 Z M375 621 L259 559 L144 621 L131 608 L248 472 L271 472 L388 608 L375 621 Z " />
<glyph glyph-name="Scommaaccent" unicode="&#x218;" horiz-adv-x="557" d="M457 667 L429 667 L400 636 C350 670 308 684 258 684 C137 684 45 593 45 475 C45 412 72 358 121 326 C144 311 144 311 259 275 C365 244 368 243 395 222 C416 205 431 171 431 139 C431 67 364 10 280 10 C225 10 170 35 131 77 C102 108 88 136 76 186 L48 186 L48 0 L75 0 L110 42 C172 1 225 -17 286 -17 C417 -17 516 79 516 206 C516 282 481 347 421 380 C396 394 337 414 261 434 C159 461 124 490 124 546 C124 610 181 657 257 657 C350 657 413 594 429 487 L457 487 L457 667 Z M263 -322 C340 -266 371 -219 371 -159 C371 -98 327 -49 273 -49 C231 -49 197 -80 197 -118 C197 -155 228 -186 265 -186 C291 -186 312 -173 324 -150 C330 -162 332 -170 332 -181 C332 -224 300 -268 246 -301 L263 -322 Z " />
<glyph glyph-name="scommaaccent" unicode="&#x219;" horiz-adv-x="391" d="M329 403 L303 403 C301 383 297 376 287 376 C282 376 272 379 261 383 C232 396 202 403 175 403 C101 403 40 345 40 275 C40 242 56 209 83 188 C103 172 135 160 194 146 C272 129 297 112 297 78 C297 44 257 17 208 17 C129 17 69 70 62 146 L35 146 L35 0 L62 0 C63 17 68 26 79 26 C84 26 89 24 99 18 C130 -1 164 -10 201 -10 C292 -10 359 50 359 134 C359 169 345 200 320 220 C298 237 248 254 167 273 C126 282 106 299 106 325 C106 354 136 376 178 376 C243 376 293 340 303 286 L329 286 L329 403 Z M182 -293 C252 -243 281 -202 281 -149 C281 -94 241 -49 191 -49 C152 -49 121 -77 121 -112 C121 -146 149 -174 184 -174 C207 -174 227 -162 238 -141 C243 -153 245 -159 245 -169 C245 -207 217 -243 166 -273 L182 -293 Z " />
<glyph glyph-name="uni021A" unicode="&#x21a;" horiz-adv-x="646" d="M254 25 L159 25 L159 0 L488 0 L488 25 L394 25 L394 642 L417 642 C531 649 596 588 608 462 L636 462 L623 667 L24 667 L11 462 L39 462 C51 588 114 649 225 642 L254 642 L254 25 Z M311 -322 C388 -266 420 -219 420 -159 C420 -98 376 -49 321 -49 C279 -49 246 -80 246 -118 C246 -155 276 -186 313 -186 C339 -186 360 -173 373 -150 C379 -162 381 -170 381 -181 C381 -224 349 -268 294 -301 L311 -322 Z " />
<glyph glyph-name="uni021B" unicode="&#x21b;" horiz-adv-x="320" d="M73 368 L73 89 C73 23 107 -10 176 -10 C254 -10 300 25 317 97 L287 102 C274 55 258 37 230 37 C205 37 193 54 193 89 L193 368 L286 368 L286 393 L193 393 L193 564 L166 564 C132 482 76 419 4 384 L4 368 L73 368 Z M152 -293 C223 -243 251 -202 251 -149 C251 -94 211 -49 161 -49 C122 -49 91 -77 91 -112 C91 -146 119 -174 154 -174 C177 -174 197 -163 208 -141 C213 -153 215 -159 215 -169 C215 -207 187 -243 136 -273 L152 -293 Z " />
<glyph glyph-name="circumflex" unicode="&#x2c6;" horiz-adv-x="512" d="M140 472 L256 534 L371 472 L385 485 L268 621 L244 621 L127 485 L140 472 Z " />
<glyph glyph-name="caron" unicode="&#x2c7;" horiz-adv-x="512" d="M371 621 L256 559 L140 621 L127 608 L244 472 L268 472 L385 608 L371 621 Z " />
<glyph glyph-name="uni02C9" unicode="&#x2c9;" horiz-adv-x="512" d="M123 563 L123 516 L390 516 L390 563 L123 563 Z " />
<glyph glyph-name="breve" unicode="&#x2d8;" horiz-adv-x="513" d="M349 615 C327 571 299 552 255 552 C212 552 181 574 165 615 L139 615 C148 531 194 477 258 477 C320 477 363 528 374 615 L349 615 Z " />
<glyph glyph-name="dotaccent" unicode="&#x2d9;" horiz-adv-x="519" d="M260 610 C226 610 198 582 198 549 C198 514 225 487 260 487 C294 487 321 515 321 549 C321 583 294 610 260 610 L260 610 Z " />
<glyph glyph-name="ring" unicode="&#x2da;" horiz-adv-x="516" d="M258 630 C210 630 170 591 170 545 C170 497 209 460 258 460 C307 460 346 497 346 544 C346 592 307 630 258 630 L258 630 Z M258 591 C283 591 304 570 304 544 C304 519 284 499 258 499 C232 499 212 519 212 544 C212 570 233 591 258 591 L258 591 Z " />
<glyph glyph-name="ogonek" unicode="&#x2db;" horiz-adv-x="525" d="M416 0 C339 -36 309 -64 309 -104 C309 -145 342 -169 397 -169 C432 -169 454 -164 499 -145 L499 -121 C478 -127 469 -129 452 -129 C412 -129 387 -112 387 -84 C387 -56 408 -31 458 0 L416 0 Z " />
<glyph glyph-name="tilde" unicode="&#x2dc;" horiz-adv-x="510" d="M130 495 C148 518 161 527 180 527 C200 527 226 521 251 511 C277 500 287 497 299 497 C338 497 371 525 401 581 L380 591 C367 569 352 558 336 558 C324 558 303 564 278 574 C257 584 234 589 216 589 C176 589 146 565 110 505 L130 495 Z " />
<glyph glyph-name="hungarumlaut" unicode="&#x2dd;" horiz-adv-x="518" d="M215 621 L151 478 L164 471 L301 599 L301 621 L215 621 Z M358 621 L295 478 L308 471 L445 599 L445 621 L358 621 Z " />
<glyph glyph-name="Wdieresis" unicode="&#x1e84;" horiz-adv-x="943" d="M647 642 L706 642 L706 667 L-2 667 L-2 642 L69 642 L328 -13 L352 -13 L490 292 L614 -13 L642 -13 L851 579 C870 629 884 641 927 642 L946 642 L946 667 L752 667 L752 642 L788 642 C818 642 830 636 830 622 C830 617 827 606 822 592 L682 192 L571 469 L647 642 Z M611 642 L554 510 L504 642 L611 642 Z M350 642 L473 333 L403 179 L220 642 L350 642 Z M379 850 C345 850 317 822 317 789 C317 755 344 727 379 727 C412 727 440 755 440 789 C440 823 413 850 379 850 L379 850 Z M608 850 C574 850 546 822 546 789 C546 755 573 727 607 727 C641 727 669 754 669 789 C669 823 642 850 608 850 L608 850 Z " />
<glyph glyph-name="uni2011" unicode="&#x2011;" horiz-adv-x="226" d="M0 250 L0 167 L226 167 L226 250 L0 250 Z " />
<glyph glyph-name="figuredash" unicode="&#x2012;" horiz-adv-x="525" d="M36 250 L36 167 L489 167 L489 250 L36 250 Z " />
<glyph glyph-name="endash" unicode="&#x2013;" horiz-adv-x="525" d="M36 250 L36 167 L489 167 L489 250 L36 250 Z " />
<glyph glyph-name="emdash" unicode="&#x2014;" horiz-adv-x="689" d="M0 250 L0 167 L689 167 L689 250 L0 250 Z " />
<glyph glyph-name="afii00208" unicode="&#x2015;" horiz-adv-x="689" d="M0 250 L0 167 L689 167 L689 250 L0 250 Z " />
<glyph glyph-name="quoteleft" unicode="&#x2018;" horiz-adv-x="277" d="M165 680 C79 614 42 555 42 485 C42 416 90 362 151 362 C198 362 235 396 235 438 C235 479 201 513 160 513 C132 513 108 499 94 474 C86 488 84 497 84 510 C84 562 121 618 182 659 L165 680 Z " />
<glyph glyph-name="quoteright" unicode="&#x2019;" horiz-adv-x="277" d="M113 358 C199 425 235 482 235 552 C235 620 187 674 126 674 C79 674 42 640 42 599 C42 559 76 525 117 525 C146 525 169 539 184 565 C190 551 192 542 192 529 C192 476 156 421 95 379 L113 358 Z " />
<glyph glyph-name="quotesinglbase" unicode="&#x201a;" horiz-adv-x="277" d="M113 -172 C199 -105 235 -47 235 24 C235 93 187 147 126 147 C79 147 42 113 42 70 C42 29 76 -5 117 -5 C146 -5 169 9 184 35 C190 20 192 12 192 -2 C192 -54 156 -110 95 -151 L113 -172 Z " />
<glyph glyph-name="quotedblleft" unicode="&#x201c;" horiz-adv-x="524" d="M164 680 C78 614 42 555 42 485 C42 416 90 362 151 362 C198 362 235 396 235 438 C235 479 201 513 160 513 C132 513 108 499 94 474 C87 488 85 497 85 510 C85 563 121 618 182 659 L164 680 Z M411 680 C325 613 289 555 289 485 C289 416 337 362 398 362 C445 362 482 396 482 438 C482 479 448 513 406 513 C378 513 355 499 340 474 C334 488 332 496 332 509 C332 563 366 616 429 659 L411 680 Z " />
<glyph glyph-name="quotedblright" unicode="&#x201d;" horiz-adv-x="526" d="M113 358 C199 424 235 482 235 552 C235 620 187 674 126 674 C79 674 42 641 42 599 C42 559 76 525 117 525 C146 525 169 539 184 565 C190 551 192 542 192 529 C192 476 156 420 95 379 L113 358 Z M361 358 C447 424 484 482 484 552 C484 620 436 674 374 674 C327 674 290 641 290 599 C290 559 324 525 365 525 C394 525 418 539 432 565 C439 551 442 542 442 529 C442 476 405 420 343 379 L361 358 Z " />
<glyph glyph-name="quotedblbase" unicode="&#x201e;" horiz-adv-x="523" d="M113 -172 C199 -105 235 -47 235 24 C235 93 187 147 126 147 C79 147 42 113 42 70 C42 29 76 -5 117 -5 C146 -5 169 9 184 35 C190 20 192 12 192 -2 C192 -54 156 -110 95 -151 L113 -172 Z M359 -172 C445 -105 481 -47 481 24 C481 93 433 147 372 147 C325 147 288 113 288 70 C288 29 322 -5 364 -5 C392 -5 415 9 430 35 C436 20 438 12 438 -2 C438 -54 402 -110 341 -151 L359 -172 Z " />
<glyph glyph-name="dagger" unicode="&#x2020;" horiz-adv-x="525" d="M254 370 C146 414 117 423 77 423 C42 423 11 390 11 353 C11 316 42 288 83 288 C106 288 115 290 174 312 C231 333 231 333 254 342 C222 206 196 22 196 -70 C196 -141 229 -193 273 -193 C312 -193 343 -148 343 -90 C343 -14 319 142 282 310 C281 314 279 327 275 342 C351 310 416 290 443 290 C486 290 514 317 514 356 C514 396 484 423 441 423 C414 423 400 418 276 370 C283 391 288 407 292 417 C321 501 339 572 339 608 C339 648 307 680 267 680 C227 680 197 650 197 610 C197 583 206 539 220 493 C229 462 237 434 254 370 L254 370 Z " />
<glyph glyph-name="daggerdbl" unicode="&#x2021;" horiz-adv-x="525" d="M239 42 C186 -78 186 -79 186 -120 C186 -162 215 -193 255 -193 C297 -193 328 -160 328 -116 C328 -90 328 -89 302 -7 C285 51 285 51 280 67 C385 27 415 18 444 18 C486 18 514 45 514 83 C514 123 484 150 441 150 C414 150 414 150 303 108 L280 98 C282 133 303 208 323 254 C302 300 289 344 280 401 C368 365 412 352 444 352 C486 352 514 378 514 417 C514 457 484 484 441 484 C419 484 401 479 358 463 C339 455 320 448 280 433 C323 550 328 569 328 607 C328 650 299 680 259 680 C216 680 187 649 187 603 C187 578 193 556 211 517 C234 466 234 466 249 433 C150 474 115 484 77 484 C42 484 11 451 11 414 C11 377 42 349 83 349 C106 349 116 352 174 373 C230 394 230 394 249 401 C245 356 234 315 209 254 C230 202 242 156 249 100 C210 114 194 120 173 128 C137 142 103 150 78 150 C42 150 11 117 11 80 C11 43 42 15 83 15 C108 15 135 23 249 67 L239 42 Z " />
<glyph glyph-name="bullet" unicode="&#x2022;" horiz-adv-x="700" d="M353 480 C270 480 206 418 206 340 C206 263 271 200 351 200 C430 200 495 263 495 340 C495 417 430 480 353 480 L353 480 Z " />
<glyph glyph-name="ellipsis" unicode="&#x2026;" horiz-adv-x="819" d="M137 147 C93 147 56 112 56 71 C56 27 92 -7 137 -7 C181 -7 217 28 217 70 C217 113 181 147 137 147 L137 147 Z M410 147 C366 147 329 112 329 71 C329 27 365 -7 410 -7 C454 -7 490 28 490 70 C490 113 454 147 410 147 L410 147 Z M683 147 C639 147 602 112 602 71 C602 27 638 -7 683 -7 C727 -7 763 28 763 70 C763 113 727 147 683 147 L683 147 Z " />
<glyph glyph-name="perthousand" unicode="&#x2030;" horiz-adv-x="1105" d="M177 650 C95 650 28 574 28 483 C28 392 96 316 177 316 C257 316 325 392 325 481 C325 575 259 650 177 650 L177 650 Z M176 628 C194 628 210 620 216 608 C227 587 233 542 233 479 C233 426 226 376 217 358 C211 346 194 338 176 338 C163 338 153 342 144 349 C130 361 120 415 120 482 C120 548 129 602 141 615 C151 624 161 628 176 628 L176 628 Z M547 643 L507 643 L205 0 L244 0 L547 643 Z M575 327 C493 327 426 251 426 161 C426 70 493 -6 575 -6 C654 -6 723 70 723 158 C723 252 657 327 575 327 L575 327 Z M574 305 C592 305 608 297 614 285 C625 264 631 219 631 156 C631 104 624 54 615 36 C609 24 592 16 574 16 C561 16 551 20 542 27 C528 39 518 92 518 160 C518 225 527 279 539 292 C549 301 560 305 574 305 L574 305 Z M929 327 C847 327 780 251 780 161 C780 70 848 -6 929 -6 C1009 -6 1077 70 1077 158 C1077 252 1011 327 929 327 L929 327 Z M928 305 C946 305 962 297 968 285 C979 264 985 219 985 156 C985 104 978 54 969 36 C963 24 946 16 928 16 C915 16 905 20 896 27 C882 39 872 92 872 160 C872 225 881 279 893 292 C903 301 914 305 928 305 L928 305 Z " />
<glyph glyph-name="guilsinglleft" unicode="&#x2039;" horiz-adv-x="259" d="M42 213 L128 113 L210 113 L127 213 L210 303 L127 303 L42 213 Z " />
<glyph glyph-name="guilsinglright" unicode="&#x203a;" horiz-adv-x="259" d="M217 203 L131 303 L49 303 L131 203 L49 113 L131 113 L217 203 Z " />
<glyph glyph-name="uni203E" unicode="&#x203e;" horiz-adv-x="500" d="M0 847 L0 807 L500 807 L500 847 L0 847 Z " />
<glyph glyph-name="fraction" unicode="&#x2044;" horiz-adv-x="115" d="M230 643 L186 643 L-116 0 L-72 0 L230 643 Z " />
<glyph glyph-name="franc" unicode="&#x20a3;" horiz-adv-x="870" d="M109 25 L25 25 L25 0 L363 0 L363 25 L249 25 L249 326 L293 326 C394 324 421 298 426 197 L454 197 L454 469 L426 469 C425 383 389 350 295 351 L249 351 L249 642 L363 642 C474 648 540 593 563 474 L591 474 L581 667 L25 667 L25 642 L109 642 L109 25 Z M569 25 L499 25 L499 0 L776 0 L776 25 L689 25 L689 179 C689 234 698 264 727 301 C745 325 774 346 789 346 C793 346 797 342 797 338 C797 335 796 333 793 331 C780 319 776 310 776 296 C776 264 803 240 837 240 C875 240 903 267 903 304 C903 348 866 382 817 382 C764 382 719 352 689 297 L689 383 C646 375 614 373 528 372 L499 372 L499 347 L569 347 L569 25 Z " />
<glyph glyph-name="Euro" unicode="&#x20ac;" horiz-adv-x="692" d="M259 386 C262 495 268 535 292 580 C317 628 372 657 439 657 C534 657 594 603 621 493 L649 493 L641 667 L613 667 L594 626 C551 665 498 684 432 684 C268 684 125 556 98 386 L52 386 L36 350 L93 350 C92 335 92 327 92 317 L52 317 L36 281 L94 281 C100 228 114 184 136 145 C193 46 305 -17 424 -17 C494 -17 538 0 591 48 L620 0 L648 0 L656 186 L628 186 C592 74 517 10 421 10 C344 10 296 46 273 120 C262 157 258 196 258 281 L469 281 L485 317 L259 317 L259 322 L259 330 L259 350 L500 350 L516 386 L259 386 Z " />
<glyph glyph-name="trademark" unicode="&#x2122;" horiz-adv-x="906" d="M157 309 L101 309 L101 287 L308 287 L308 309 L248 309 L248 645 L262 645 C328 649 365 615 371 545 L396 545 L387 667 L22 667 L14 545 L38 545 C44 615 80 649 144 645 L157 645 L157 309 Z M458 645 L458 345 C458 327 456 316 453 314 C452 311 442 309 429 309 L408 309 L408 287 L535 287 L535 309 L514 309 C501 309 490 311 489 314 C486 316 484 327 484 345 L484 623 L596 287 L616 287 L731 619 L731 309 L671 309 L671 287 L872 287 L872 309 L822 309 L822 645 L872 645 L872 667 L718 667 L640 446 L568 667 L408 667 L408 645 L458 645 Z " />
<glyph glyph-name="uni2126" unicode="&#x2126;" horiz-adv-x="768" d="M326 0 L308 155 C230 199 180 288 180 382 C180 434 195 493 221 540 C257 605 317 642 385 642 C453 642 513 605 549 540 C575 493 590 434 590 382 C590 288 540 199 462 155 L444 0 L736 0 L736 153 L712 153 C704 108 684 90 643 90 L497 90 L500 128 C535 141 557 151 580 166 C657 215 702 296 702 382 C702 449 673 522 625 578 C564 648 480 686 385 686 C290 686 206 648 145 578 C97 522 68 449 68 382 C68 296 113 215 190 166 C213 151 235 141 270 128 L273 90 L127 90 C86 90 66 108 58 153 L34 153 L34 0 L326 0 Z " />
<glyph glyph-name="partialdiff" unicode="&#x2202;" horiz-adv-x="494" d="M107 673 C152 697 184 706 219 706 C321 706 379 611 379 447 C379 418 377 394 372 346 C308 396 272 412 221 412 C172 412 131 394 95 355 C51 309 26 246 26 184 C26 76 109 -10 213 -10 C282 -10 341 22 383 84 C429 152 462 286 462 402 C462 519 429 610 360 681 C312 730 259 753 195 753 C156 753 121 745 66 724 L107 673 Z M366 312 C350 201 340 158 314 106 C288 54 245 21 201 21 C146 21 113 73 113 159 C113 273 180 367 261 367 C299 367 324 354 366 312 L366 312 Z " />
<glyph glyph-name="Delta" unicode="&#x2206;" horiz-adv-x="612" d="M6 0 L608 0 L327 688 L6 0 Z M77 51 L290 509 L479 51 L77 51 Z " />
<glyph glyph-name="product" unicode="&#x220f;" horiz-adv-x="823" d="M25 -124 L315 -124 L315 -98 L312 -98 C242 -94 221 -67 224 18 L224 594 C224 656 228 677 242 690 C260 707 272 708 413 708 C556 708 568 707 586 690 C600 677 604 656 604 594 L604 18 C607 -67 586 -94 516 -98 L513 -98 L513 -124 L803 -124 L803 -98 L800 -98 C730 -94 709 -67 712 18 L712 609 C709 694 730 721 800 725 L803 725 L803 751 L25 751 L25 725 L28 725 C98 721 119 694 116 609 L116 18 C119 -67 98 -94 28 -98 L25 -98 L25 -124 Z " />
<glyph glyph-name="summation" unicode="&#x2211;" horiz-adv-x="713" d="M176 711 L444 711 C560 710 590 688 606 587 L632 587 L622 752 L23 752 L256 285 L14 -123 L641 -123 L695 87 L669 87 C639 7 605 -12 491 -11 L163 -11 L364 341 L176 711 Z " />
<glyph glyph-name="minus" unicode="&#x2212;" horiz-adv-x="525" d="M47 340 L47 307 L479 307 L479 340 L47 340 Z " />
<glyph glyph-name="uni2215" unicode="&#x2215;" horiz-adv-x="115" d="M230 643 L186 643 L-116 0 L-72 0 L230 643 Z " />
<glyph glyph-name="uni2219" unicode="&#x2219;" horiz-adv-x="273" d="M137 280 C93 280 56 246 56 205 C56 161 92 127 137 127 C181 127 217 161 217 204 C217 246 181 280 137 280 L137 280 Z " />
<glyph glyph-name="radical" unicode="&#x221a;" horiz-adv-x="549" d="M363 -35 L515 908 L480 913 L353 123 L156 520 L10 449 L26 414 L121 461 L363 -35 Z " />
<glyph glyph-name="infinity" unicode="&#x221e;" horiz-adv-x="713" d="M357 227 C415 156 485 115 548 115 C631 115 688 176 688 266 C688 354 629 414 543 414 C476 414 412 376 357 303 C300 375 234 414 171 414 C86 414 26 351 26 263 C26 176 84 115 167 115 C224 115 281 142 327 192 L357 227 Z M391 264 C434 325 493 362 546 362 C600 362 638 321 638 264 C638 205 603 167 549 167 C495 167 461 188 391 264 L391 264 Z M324 266 C275 203 216 167 163 167 C111 167 76 207 76 266 C76 323 113 362 167 362 C218 362 258 337 324 266 L324 266 Z " />
<glyph glyph-name="integral" unicode="&#x222b;" horiz-adv-x="274" d="M180 576 C180 653 179 691 176 746 C174 774 173 800 173 815 C173 855 184 878 202 878 C208 878 213 876 215 872 C232 845 239 839 256 839 C276 839 291 853 291 871 C291 898 267 916 231 916 C186 916 152 887 138 838 C123 784 113 682 113 577 L113 232 C113 160 114 124 117 63 C119 34 120 4 120 -12 C120 -47 108 -70 89 -70 C81 -70 74 -65 68 -52 C59 -35 51 -30 37 -30 C17 -30 2 -44 2 -63 C2 -89 26 -107 62 -107 C107 -107 141 -78 155 -29 C170 25 180 126 180 232 L180 576 Z " />
<glyph glyph-name="approxequal" unicode="&#x2248;" horiz-adv-x="549" d="M489 251 C444 199 423 187 384 187 C365 187 354 190 285 211 C212 234 188 239 160 239 C101 239 54 211 14 155 L57 121 C103 174 120 184 159 184 C180 184 180 184 271 157 C350 133 354 132 385 132 C449 132 496 160 527 217 L489 251 Z M489 408 C443 356 423 344 384 344 C365 344 354 347 285 368 C212 391 188 396 160 396 C101 396 54 369 14 312 L57 278 C103 331 119 341 159 341 C180 341 180 341 271 314 C350 290 354 289 385 289 C449 289 496 317 527 374 L489 408 Z " />
<glyph glyph-name="notequal" unicode="&#x2260;" horiz-adv-x="549" d="M187 142 L115 -1 L161 -25 L246 142 L540 142 L540 197 L273 197 L344 336 L540 336 L540 391 L371 391 L439 525 L392 549 L312 391 L15 391 L15 336 L285 336 L215 197 L15 197 L15 142 L187 142 Z " />
<glyph glyph-name="lessequal" unicode="&#x2264;" horiz-adv-x="549" d="M526 55 L29 55 L29 0 L526 0 L526 55 Z M526 639 L29 405 L29 350 L526 117 L526 179 L108 378 L526 577 L526 639 Z " />
<glyph glyph-name="greaterequal" unicode="&#x2265;" horiz-adv-x="549" d="M526 55 L29 55 L29 0 L526 0 L526 55 Z M29 639 L29 577 L447 378 L29 179 L29 117 L526 350 L526 405 L29 639 Z " />
<glyph glyph-name="lozenge" unicode="&#x25ca;" horiz-adv-x="494" d="M209 0 L269 -1 L466 374 L277 740 L214 740 L18 377 L209 0 Z M240 58 L81 376 L245 683 L402 373 L240 58 Z " />
<glyph glyph-name="fi" unicode="&#xfb01;" horiz-adv-x="569" d="M204 393 L204 555 C204 620 239 647 322 647 C361 647 388 639 388 628 C388 624 385 620 377 613 C361 600 355 587 355 568 C355 530 382 503 420 503 C457 503 484 530 484 567 C484 625 409 674 319 674 C232 674 155 633 115 565 C94 530 84 485 84 426 L84 393 L14 393 L14 368 L84 368 L84 25 L14 25 L14 0 L266 0 L266 25 L204 25 L204 368 L371 368 L371 25 L309 25 L309 0 L561 0 L561 25 L491 25 L491 404 C447 396 415 394 329 393 L204 393 Z " />
<glyph glyph-name="fl" unicode="&#xfb02;" horiz-adv-x="564" d="M491 678 C453 671 425 668 379 668 C355 672 340 674 318 674 C228 674 154 636 115 570 C94 533 84 487 84 426 L84 393 L14 393 L14 368 L84 368 L84 25 L14 25 L14 0 L266 0 L266 25 L204 25 L204 368 L306 368 L306 393 L204 393 L204 555 C204 619 233 647 301 647 C332 647 356 637 363 623 C370 610 371 602 371 560 L371 25 L309 25 L309 0 L561 0 L561 25 L491 25 L491 678 Z " />
</font>
</svg>
