<?xml version="1.0" encoding="UTF-8"?>
<svg xmlns="http://www.w3.org/2000/svg" xmlns:xlink="http://www.w3.org/1999/xlink" version="1.2" >
<font id="Cinematografica ExtraLight">
<font-face  font-family="Cinematografica" units-per-em="1920" ascent="1133" descent="-72" font-style="normal" font-weight="100" font-stretch="normal" cap-height="1344" x-height="1133" underline-position="-48" underline-thickness="96" />
<missing-glyph  horiz-adv-x="172" d="" />
<glyph glyph-name="NULL" d="" />
<glyph glyph-name="CR" unicode="&#xd;" horiz-adv-x="480" d="" />
<glyph glyph-name="space" unicode="&#x20;" horiz-adv-x="172" d="" />
<glyph glyph-name="exclam" unicode="&#x21;" horiz-adv-x="167" d="M50 203 C50 194 54 190 63 190 L79 190 C99 190 115 203 116 222 L132 1313 C133 1332 119 1346 96 1346 L63 1346 C54 1346 50 1341 50 1332 L50 203 Z M81 82 C46 82 28 64 28 36 C28 8 46 -10 81 -10 C116 -10 134 8 134 36 C134 64 116 82 81 82 L81 82 Z " />
<glyph glyph-name="quotedbl" unicode="&#x22;" horiz-adv-x="275" d="M50 1038 C50 1030 54 1026 61 1026 L80 1026 C99 1026 113 1038 113 1054 L113 1317 C113 1334 99 1345 80 1345 L61 1345 C54 1345 50 1341 50 1334 L50 1038 Z M163 1038 C163 1030 167 1026 174 1026 L193 1026 C212 1026 226 1038 226 1054 L226 1317 C226 1334 212 1345 193 1345 L174 1345 C167 1345 163 1341 163 1334 L163 1038 Z " />
<glyph glyph-name="numbersign" unicode="&#x23;" horiz-adv-x="558" d="M275 10 C275 3 279 0 287 0 L311 0 C331 0 347 11 350 30 L394 449 L457 449 C466 449 470 453 470 462 L471 483 C472 503 462 516 442 516 L401 516 L430 791 L494 791 C503 791 507 795 508 804 L509 826 C510 845 499 858 480 858 L437 858 L486 1330 L487 1335 C487 1341 483 1344 476 1344 L445 1344 C430 1344 420 1335 415 1318 L366 858 L242 858 L292 1330 L292 1333 C292 1340 289 1344 282 1344 L251 1344 C232 1344 222 1331 221 1318 L171 858 L101 858 C90 858 89 858 89 847 L87 826 C87 806 97 791 116 791 L164 791 L135 516 L63 516 C55 516 51 512 51 505 L50 483 C49 463 60 449 79 449 L128 449 L81 14 L81 10 C81 2 84 0 93 0 L117 0 C137 0 153 11 156 30 L200 449 L322 449 L276 14 L275 10 Z M359 791 L329 516 L207 516 L236 791 L359 791 Z " />
<glyph glyph-name="dollar" unicode="&#x24;" horiz-adv-x="362" d="M181 1295 C222 1295 242 1277 242 1241 L242 894 C242 873 260 865 277 865 L301 865 C310 865 314 868 314 874 L314 1145 C314 1214 314 1246 303 1281 C288 1325 258 1351 211 1358 L211 1467 L211 1484 C211 1493 211 1499 210 1503 C209 1518 205 1525 199 1525 L187 1525 C177 1525 170 1523 165 1518 C156 1509 151 1495 151 1476 L151 1451 L151 1359 C91 1348 56 1311 51 1258 C50 1247 50 1228 50 1203 C50 1116 58 1032 74 950 C91 858 119 748 156 620 C171 567 185 513 198 458 C227 329 242 210 242 103 C242 68 222 50 181 50 C138 50 120 72 120 103 L120 448 C120 468 102 477 86 477 L61 477 C52 477 48 474 48 468 L48 199 C48 130 48 99 59 64 C72 21 99 -5 151 -13 L151 -168 C151 -177 153 -182 165 -182 L176 -182 C186 -182 193 -180 198 -175 C207 -167 211 -153 211 -133 L211 -108 L211 -13 C242 -8 265 3 282 20 C314 52 312 105 312 152 C312 166 311 187 310 215 C306 284 299 347 288 403 C269 502 242 615 206 740 C191 788 177 842 163 902 C135 1023 119 1129 119 1241 C119 1273 137 1295 181 1295 L181 1295 Z " />
<glyph glyph-name="percent" unicode="&#x25;" horiz-adv-x="745" d="M175 611 C221 611 255 624 277 649 C294 668 302 693 302 722 L302 1242 C302 1275 294 1300 277 1319 C255 1343 221 1355 176 1355 C131 1355 97 1343 75 1319 C58 1300 50 1275 50 1242 L50 722 C50 692 57 668 72 650 C93 624 128 611 175 611 L175 611 Z M210 14 C210 13 209 11 210 10 C210 3 214 0 222 0 L241 0 C261 0 276 11 280 30 L539 1330 L540 1335 C540 1341 536 1344 529 1344 L502 1344 C487 1344 477 1335 472 1318 L210 14 Z M176 671 C133 671 116 692 116 723 L116 1241 C116 1274 132 1294 176 1294 C217 1294 236 1272 236 1241 L236 723 C236 688 216 671 176 671 L176 671 Z M567 -9 C613 -9 647 4 669 29 C686 48 694 73 694 102 L694 622 C694 655 686 680 669 699 C647 723 613 735 568 735 C523 735 489 723 467 699 C450 680 442 655 442 622 L442 102 C442 72 449 48 464 30 C485 4 520 -9 567 -9 L567 -9 Z M568 51 C525 51 508 72 508 103 L508 621 C508 654 524 674 568 674 C609 674 628 652 628 621 L628 103 C628 68 608 51 568 51 L568 51 Z " />
<glyph glyph-name="ampersand" unicode="&#x26;" horiz-adv-x="1030" d="M50 1056 C33 1055 25 1044 25 1022 L25 1009 C25 1002 29 999 36 999 L976 1070 C993 1073 1002 1084 1002 1105 L1002 1117 C1002 1128 1000 1128 992 1127 L50 1056 Z M841 193 C893 196 926 224 941 277 C948 303 951 343 951 398 L951 443 L951 822 C951 832 951 841 952 848 C953 852 953 858 953 865 C953 897 946 933 927 956 C910 976 885 986 852 986 L836 985 L732 978 C725 977 721 972 721 965 L721 195 C721 187 725 184 732 185 L841 193 Z M605 958 C605 966 604 968 595 968 L577 966 C558 965 545 951 545 935 L551 412 L446 878 C438 929 425 954 406 954 L386 952 C378 952 376 948 376 939 L376 160 C376 153 379 150 386 151 L405 152 C424 155 436 167 435 183 L430 716 L537 235 C541 211 545 195 549 187 C556 172 564 165 577 165 L595 167 C603 167 605 171 605 179 L605 958 Z M212 922 C211 933 205 939 194 938 L153 934 C139 933 131 927 130 916 L47 145 L47 142 C47 136 50 133 57 134 L75 136 C94 137 108 148 109 164 L118 268 L222 276 L232 173 C235 157 250 147 267 150 L284 151 C291 152 295 157 294 165 L212 922 Z M781 926 L836 929 C875 933 892 915 892 886 L892 302 C892 273 876 252 841 249 L781 245 L781 926 Z M172 796 L218 327 L123 320 L169 796 L172 796 Z M50 61 C33 60 25 49 25 27 L25 14 C25 5 28 4 36 4 L976 73 C993 76 1002 88 1002 109 L1002 122 C1002 130 1001 131 992 131 L50 61 Z " />
<glyph glyph-name="quotesingle" unicode="&#x27;" horiz-adv-x="163" d="M50 1038 C50 1030 54 1026 61 1026 L80 1026 C99 1026 113 1038 113 1054 L113 1317 C113 1334 99 1345 80 1345 L61 1345 C54 1345 50 1341 50 1334 L50 1038 Z " />
<glyph glyph-name="parenleft" unicode="&#x28;" horiz-adv-x="251" d="M122 742 C122 931 133 1079 155 1188 C170 1264 191 1321 218 1358 C227 1372 235 1382 242 1387 C249 1392 252 1398 252 1405 C252 1409 251 1413 249 1417 L241 1430 C239 1433 236 1434 233 1434 C230 1434 226 1433 222 1432 C175 1405 137 1352 109 1273 C70 1161 50 995 50 775 L50 568 C50 417 59 290 78 189 C93 107 116 41 145 -9 C167 -46 193 -72 222 -88 C226 -89 230 -90 233 -90 C236 -90 239 -89 241 -86 L249 -73 C251 -69 252 -65 252 -61 C252 -54 249 -48 242 -42 C235 -37 227 -28 218 -13 C191 23 170 79 155 156 C133 265 122 413 122 601 L122 742 Z " />
<glyph glyph-name="parenright" unicode="&#x29;" horiz-adv-x="253" d="M130 601 C130 413 119 265 97 156 C82 81 61 24 35 -13 C26 -28 18 -37 11 -42 C4 -49 0 -55 0 -60 C0 -64 1 -68 4 -73 L12 -86 C13 -89 15 -90 20 -90 C23 -90 27 -89 31 -88 C59 -73 85 -46 108 -9 C136 36 158 102 175 189 C194 284 203 411 203 568 L203 775 C203 995 183 1161 144 1273 C116 1352 78 1405 31 1432 C27 1433 23 1434 20 1434 C15 1434 13 1433 12 1430 L4 1417 C1 1412 0 1408 0 1404 C0 1399 4 1394 11 1387 C18 1382 26 1372 35 1358 C61 1319 82 1263 97 1188 C119 1079 130 931 130 742 L130 601 Z " />
<glyph glyph-name="asterisk" unicode="&#x2a;" horiz-adv-x="449" d="M81 689 C62 696 50 675 50 654 L50 633 C50 622 52 621 63 621 L182 625 L115 542 C110 537 108 533 108 528 C108 518 116 508 131 498 L149 488 C152 486 155 485 157 485 C160 485 163 487 165 492 L220 595 L259 499 C260 488 269 483 280 483 C288 483 296 486 305 491 L323 501 C328 504 330 507 330 510 C330 513 329 515 327 518 L265 617 L368 602 C387 595 399 615 399 638 L399 658 C399 669 395 670 386 670 L270 667 L334 748 C339 752 341 757 341 763 C341 774 332 785 320 792 L302 803 C300 804 297 805 294 805 C291 805 287 802 284 797 L228 694 L190 791 C188 802 181 808 168 808 C159 808 151 806 144 801 L127 791 C122 787 120 784 120 781 C120 779 121 776 123 773 L184 673 L81 689 Z " />
<glyph glyph-name="plus" unicode="&#x2b;" horiz-adv-x="448" d="M297 612 L331 612 C344 612 355 613 365 616 C388 621 400 632 400 651 L400 663 C400 684 380 679 370 679 L258 679 L258 719 L258 752 C258 764 257 775 255 786 C250 810 239 822 222 822 L208 822 C203 822 199 821 196 819 C191 815 189 809 190 802 L190 791 L190 679 L151 679 C137 679 126 679 118 680 C105 680 94 679 84 677 C59 672 47 661 47 644 L47 629 C47 606 72 612 78 612 L190 612 L190 573 L190 539 C190 525 191 514 194 505 C199 481 211 469 230 469 L246 469 C257 469 258 472 258 481 L258 612 L297 612 Z " />
<glyph glyph-name="comma" unicode="&#x2c;" horiz-adv-x="162" d="M81 -69 C81 -75 84 -78 89 -78 C101 -78 112 -68 122 -47 C131 -25 136 -1 136 24 C136 57 116 82 81 82 C46 82 28 67 28 36 C28 6 46 -10 81 -11 L81 -69 Z " />
<glyph glyph-name="hyphen" unicode="&#x2d;" horiz-adv-x="379" d="M77 564 C57 564 45 549 45 529 L45 509 C45 497 50 495 59 495 L302 495 C322 495 334 512 334 533 L334 552 C334 563 332 564 321 564 L77 564 Z " />
<glyph glyph-name="period" unicode="&#x2e;" horiz-adv-x="163" d="M81 82 C46 82 28 64 28 36 C28 8 46 -10 81 -10 C116 -10 134 8 134 36 C134 64 116 82 81 82 L81 82 Z " />
<glyph glyph-name="slash" unicode="&#x2f;" horiz-adv-x="314" d="M20 10 C20 2 23 0 32 0 L55 0 C75 0 91 11 94 30 L275 1330 L275 1333 C275 1340 272 1344 265 1344 L234 1344 C215 1344 205 1331 204 1318 L20 14 L20 10 Z " />
<glyph glyph-name="zero" unicode="0" horiz-adv-x="363" d="M181 -16 C229 -16 265 -3 288 24 C306 45 315 70 315 101 L315 1242 C315 1275 306 1302 288 1323 C266 1348 231 1361 182 1361 C133 1361 97 1348 75 1323 C57 1302 48 1275 48 1242 L48 101 C48 69 56 44 72 25 C93 -2 130 -16 181 -16 L181 -16 Z M120 1240 C120 1275 137 1295 181 1295 C225 1295 243 1273 243 1241 L243 753 L120 637 L120 1240 Z M182 50 C138 50 120 72 120 103 L120 577 L243 693 L243 103 C243 72 226 50 182 50 L182 50 Z " />
<glyph glyph-name="one" unicode="1" horiz-adv-x="284" d="M26 1310 C21 1308 18 1305 18 1302 C18 1301 19 1297 20 1292 L24 1280 C29 1261 38 1251 53 1251 C57 1251 62 1252 67 1254 L106 1264 L106 65 L60 65 C35 65 21 55 21 28 L21 16 C21 4 22 0 33 0 L252 0 C259 0 263 6 263 17 L263 28 C263 56 252 65 224 65 L178 65 L178 1327 C178 1338 172 1344 161 1344 L149 1344 C140 1344 131 1342 123 1339 L26 1310 Z " />
<glyph glyph-name="two" unicode="2" horiz-adv-x="362" d="M305 0 C316 0 317 5 317 17 L317 28 C317 53 304 66 279 66 L109 66 C132 133 158 221 186 331 C223 477 253 604 274 713 C301 859 315 969 315 1044 L315 1242 C315 1275 306 1302 288 1323 C266 1348 231 1361 182 1361 C133 1361 97 1348 75 1323 C57 1302 48 1275 48 1242 L48 910 C48 902 52 898 61 898 L85 898 C106 898 120 911 120 930 L120 1240 C120 1275 137 1295 181 1295 C225 1295 243 1273 243 1241 L243 1045 C243 986 238 922 227 854 C208 723 177 580 136 424 C107 316 81 222 58 142 C57 135 52 119 45 94 C34 58 29 36 29 27 C29 12 38 0 57 0 L305 0 Z " />
<glyph glyph-name="three" unicode="3" horiz-adv-x="363" d="M181 649 C225 649 243 628 243 597 L243 103 C243 72 226 50 182 50 C138 50 120 72 120 103 L120 432 C120 452 105 466 86 466 L61 466 C50 466 48 463 48 452 L48 101 C48 69 56 44 72 25 C93 -2 130 -16 181 -16 C229 -16 265 -3 288 24 C306 45 315 70 315 101 L315 597 C315 638 302 667 266 684 C303 701 315 731 315 768 L315 1242 C315 1275 306 1302 288 1323 C266 1348 231 1361 182 1361 C133 1361 97 1348 75 1323 C57 1302 48 1275 48 1242 L48 910 C48 902 52 898 61 898 L85 898 C106 898 120 911 120 930 L120 1240 C120 1275 137 1295 181 1295 C225 1295 243 1273 243 1241 L243 769 C243 738 226 717 182 717 L133 717 C122 717 120 716 120 705 L120 683 C120 663 134 649 153 649 L181 649 Z " />
<glyph glyph-name="four" unicode="4" horiz-adv-x="371" d="M323 831 C323 840 322 844 311 844 L286 844 C266 844 250 831 250 811 L250 363 L111 363 L247 1330 L247 1333 C247 1340 243 1344 236 1344 L206 1344 C191 1344 181 1335 176 1318 L30 309 C29 308 29 306 29 304 C29 296 35 295 48 295 L250 295 L250 32 C250 12 265 0 285 0 L309 0 C321 0 323 2 323 18 L323 831 Z " />
<glyph glyph-name="five" unicode="5" horiz-adv-x="364" d="M48 664 C48 653 49 651 60 651 L87 651 C107 651 121 665 125 685 C133 714 159 738 194 738 C222 738 243 714 243 686 L243 103 C243 72 226 50 182 50 C138 50 120 72 120 103 L120 432 C120 452 105 466 86 466 L61 466 C50 466 48 463 48 452 L48 101 C48 69 56 44 72 25 C93 -2 130 -16 181 -16 C229 -16 265 -3 288 24 C306 45 315 70 315 101 L315 686 C315 728 306 759 287 780 C270 798 246 807 217 807 C164 807 123 779 120 752 L120 1278 L259 1278 C285 1278 298 1291 298 1316 L298 1327 C298 1338 294 1344 286 1344 L61 1344 C50 1344 48 1342 48 1331 L48 664 Z " />
<glyph glyph-name="six" unicode="6" horiz-adv-x="363" d="M181 1295 C222 1295 242 1277 242 1241 L242 921 C242 901 260 893 277 893 L301 893 C310 893 314 896 314 902 L314 1243 C314 1272 305 1298 286 1321 C261 1348 226 1361 181 1361 C134 1361 99 1348 76 1321 C57 1298 48 1272 48 1242 L48 101 C48 29 89 -16 181 -16 C221 -16 252 -7 275 12 C302 33 315 63 315 101 L315 661 C315 696 306 724 288 746 C269 770 241 782 206 782 C154 782 124 758 120 727 L120 1241 C120 1277 140 1295 181 1295 L181 1295 Z M182 50 C138 50 120 72 120 103 L120 643 C120 661 125 677 135 691 C146 707 162 715 181 715 C228 715 243 697 243 662 L243 103 C243 72 226 50 182 50 L182 50 Z " />
<glyph glyph-name="seven" unicode="7" horiz-adv-x="355" d="M50 1344 C39 1344 38 1339 38 1327 L38 1316 C38 1291 51 1278 76 1278 L247 1278 L58 14 L57 10 C57 3 61 0 69 0 L92 0 C113 0 129 11 132 30 L325 1330 L325 1333 C325 1340 321 1344 314 1344 L50 1344 Z " />
<glyph glyph-name="eight" unicode="8" horiz-adv-x="363" d="M181 -16 C229 -16 265 -3 288 24 C306 45 315 70 315 101 L315 598 C315 639 302 668 266 684 C299 700 315 728 315 768 L315 1242 C315 1275 306 1302 288 1323 C266 1348 231 1361 182 1361 C133 1361 97 1348 75 1323 C57 1302 48 1275 48 1242 L48 768 C48 731 58 701 95 684 C60 668 48 639 48 598 L48 101 C48 69 56 44 72 25 C93 -2 130 -16 181 -16 L181 -16 Z M182 717 C138 717 120 738 120 769 L120 1240 C120 1275 137 1295 181 1295 C225 1295 243 1273 243 1241 L243 769 C243 738 226 717 182 717 L182 717 Z M182 50 C138 50 120 72 120 103 L120 596 C120 632 137 651 181 651 C225 651 243 629 243 598 L243 103 C243 70 223 53 182 50 L182 50 Z " />
<glyph glyph-name="nine" unicode="9" horiz-adv-x="363" d="M182 1361 C134 1361 98 1348 75 1321 C57 1300 48 1274 48 1243 L48 702 C48 669 56 642 73 619 C92 594 120 581 157 581 C208 581 239 610 243 643 L243 103 C243 72 225 50 181 50 L174 50 C139 53 121 70 121 103 L121 441 C121 461 103 469 86 469 L62 469 C53 469 49 466 49 460 L49 102 C49 31 99 -16 182 -16 C265 -16 315 31 315 102 L315 1243 C315 1274 307 1300 291 1320 C270 1347 233 1361 182 1361 L182 1361 Z M181 1295 C225 1295 243 1273 243 1241 L243 720 C243 701 238 685 229 672 C218 657 201 647 181 647 C136 647 120 666 120 701 L120 1241 C120 1273 137 1295 181 1295 L181 1295 Z " />
<glyph glyph-name="colon" unicode="&#x3a;" horiz-adv-x="163" d="M81 996 C46 996 28 978 28 950 C28 922 46 904 81 904 C116 904 134 922 134 950 C134 978 116 996 81 996 L81 996 Z M81 81 C46 81 28 63 28 35 C28 7 46 -11 81 -11 C116 -11 134 7 134 35 C134 63 116 81 81 81 L81 81 Z " />
<glyph glyph-name="semicolon" unicode="&#x3b;" horiz-adv-x="163" d="M81 996 C46 996 28 978 28 950 C28 922 46 904 81 904 C116 904 134 922 134 950 C134 978 116 996 81 996 L81 996 Z M81 -69 C81 -75 84 -78 89 -78 C101 -78 112 -68 122 -47 C131 -25 136 -1 136 24 C136 57 116 82 81 82 C46 82 28 67 28 36 C28 6 46 -10 81 -11 L81 -69 Z " />
<glyph glyph-name="less" unicode="&#x3c;" horiz-adv-x="291" d="M241 959 C241 964 236 967 229 967 L198 967 C179 967 170 958 162 939 L33 671 L162 403 C171 384 179 375 198 375 L229 375 C236 375 243 381 240 386 L100 671 L240 956 L241 959 Z " />
<glyph glyph-name="equal" unicode="&#x3d;" horiz-adv-x="437" d="M81 769 C57 769 46 754 46 734 L46 716 C46 707 51 702 60 702 L358 702 C381 702 394 720 394 741 L394 757 C394 768 390 769 381 769 L81 769 Z M81 587 C57 587 46 572 46 552 L46 534 C46 525 51 520 60 520 L358 520 C381 520 394 538 394 559 L394 575 C394 586 390 587 381 587 L81 587 Z " />
<glyph glyph-name="greater" unicode="&#x3e;" horiz-adv-x="291" d="M42 383 C42 378 47 375 54 375 L85 375 C104 375 113 384 121 403 L250 671 L121 939 C112 958 104 967 85 967 L54 967 C47 967 40 961 43 956 L183 671 L43 386 L42 383 Z " />
<glyph glyph-name="question" unicode="&#x3f;" horiz-adv-x="369" d="M171 190 C181 190 189 198 194 213 C203 239 209 278 210 330 L212 385 C215 432 219 475 224 514 C235 591 248 663 264 731 L285 838 C301 930 311 1015 315 1092 C316 1121 317 1144 317 1160 C317 1192 316 1225 314 1260 C307 1323 260 1361 185 1361 C118 1361 83 1332 66 1281 C54 1246 52 1208 52 1152 L52 1120 L52 912 C52 906 56 903 65 903 L90 903 C106 903 124 911 124 931 L124 1241 C124 1273 142 1295 185 1295 C229 1295 247 1273 247 1241 C247 1178 244 1117 239 1058 C229 955 214 855 194 756 C183 698 174 648 169 607 C151 490 142 366 142 235 L142 203 C142 194 146 190 153 190 L171 190 Z M173 82 C138 82 120 64 120 36 C120 8 138 -10 173 -10 C208 -10 226 8 226 36 C226 64 208 82 173 82 L173 82 Z " />
<glyph glyph-name="at" unicode="&#x40;" horiz-adv-x="713" d="M225 107 C225 77 235 51 254 30 C277 3 311 -11 358 -11 C402 -11 434 3 453 32 C473 6 506 -7 551 -7 C582 -7 608 2 629 21 C652 42 663 70 663 105 L663 1026 C663 1113 634 1186 582 1238 C529 1290 452 1318 360 1318 C265 1318 191 1292 136 1239 C83 1187 53 1113 53 1026 L53 104 C53 19 81 -51 138 -104 C193 -155 269 -183 361 -183 L423 -183 C431 -183 433 -180 433 -172 L433 -151 C433 -136 426 -129 411 -129 L360 -129 C275 -129 211 -106 169 -61 C128 -18 108 43 108 122 L108 1014 C108 1090 129 1151 171 1196 C211 1240 272 1263 348 1263 C432 1263 497 1240 544 1195 C587 1150 609 1090 609 1014 L609 106 C609 73 586 49 555 49 C522 49 492 73 492 106 L492 1026 C492 1057 481 1087 461 1108 C438 1133 403 1145 358 1145 C313 1145 279 1133 256 1108 C236 1087 225 1057 225 1026 L225 107 Z M297 1026 C297 1058 314 1080 358 1080 C399 1080 419 1062 419 1026 L419 108 C419 73 399 55 359 55 C318 55 297 73 297 108 L297 1026 Z " />
<glyph glyph-name="A" unicode="A" horiz-adv-x="345" d="M222 1325 C221 1342 213 1344 190 1344 L155 1344 C134 1344 123 1342 122 1325 L20 14 C20 2 21 0 32 0 L64 0 C83 0 93 10 94 30 L109 243 L235 243 L250 30 C251 10 262 0 281 0 L313 0 C324 0 324 2 324 14 L222 1325 Z M231 308 L113 308 L172 1176 L231 308 Z " />
<glyph glyph-name="B" unicode="B" horiz-adv-x="363" d="M176 0 C229 0 267 15 290 44 C306 64 314 89 314 119 L314 551 L314 588 C314 601 313 613 311 625 C306 651 296 671 279 685 C289 694 296 703 301 714 C310 734 314 760 314 792 L314 834 L314 1224 C314 1255 306 1281 290 1301 C267 1330 231 1344 181 1344 L61 1344 C50 1344 48 1342 48 1331 L48 13 C48 2 49 0 60 0 L176 0 Z M181 1278 C222 1278 242 1260 242 1224 L242 817 C242 803 242 792 243 785 C243 772 242 761 239 752 C232 729 215 717 187 717 L120 717 L120 1278 L181 1278 Z M187 652 C204 652 216 649 223 642 C236 631 243 612 243 585 C242 577 242 566 242 552 L242 120 C242 84 222 66 181 66 L120 66 L120 652 L187 652 Z " />
<glyph glyph-name="C" unicode="C" horiz-adv-x="367" d="M184 1361 C101 1361 50 1314 50 1243 L50 102 C50 31 101 -16 184 -16 C267 -16 317 31 317 102 L317 577 C317 582 313 585 304 585 L279 585 C263 585 245 577 245 557 L245 103 C245 88 241 77 233 68 C222 56 206 50 184 50 C140 50 122 72 122 103 L122 1241 C122 1273 142 1295 183 1295 C226 1295 245 1273 245 1241 L245 786 C245 766 264 757 280 757 L304 757 C313 757 317 760 317 767 L317 1243 C317 1314 267 1361 184 1361 L184 1361 Z " />
<glyph glyph-name="D" unicode="D" horiz-adv-x="365" d="M183 0 C270 0 316 36 316 121 L316 1224 C316 1259 307 1287 289 1307 C266 1332 231 1344 183 1344 L63 1344 C52 1344 50 1342 50 1331 L50 13 C50 1 54 0 70 0 L183 0 Z M122 1278 L183 1278 C224 1278 244 1260 244 1224 L244 120 C244 89 228 66 189 66 L122 66 L122 1278 Z " />
<glyph glyph-name="E" unicode="E" horiz-adv-x="306" d="M63 1344 C52 1344 50 1342 50 1331 L50 14 C50 2 52 0 72 0 L259 0 C266 0 270 6 270 17 L270 28 C270 53 258 66 233 66 L122 66 L122 632 L224 632 C249 632 261 645 261 671 L261 683 C261 693 257 698 250 698 L122 698 L122 1278 L233 1278 C258 1278 270 1291 270 1316 L270 1327 C270 1338 266 1344 259 1344 L63 1344 Z " />
<glyph glyph-name="F" unicode="F" horiz-adv-x="278" d="M61 1344 C50 1344 48 1342 48 1331 L48 16 C48 4 49 0 60 0 L85 0 C105 0 120 13 120 32 L120 632 L222 632 C247 632 259 645 259 671 L259 682 C259 693 255 698 248 698 L120 698 L120 1278 L231 1278 C256 1278 268 1291 268 1316 L268 1327 C268 1338 264 1344 257 1344 L61 1344 Z " />
<glyph glyph-name="G" unicode="G" horiz-adv-x="362" d="M181 1361 C98 1361 47 1314 47 1243 L47 102 C47 31 98 -16 181 -16 C264 -16 314 31 314 102 L314 616 C314 623 310 627 303 627 L195 627 C184 627 183 623 183 611 L183 594 C183 569 195 556 218 556 L242 556 L242 103 C242 88 238 77 230 68 C219 56 203 50 181 50 C137 50 119 72 119 103 L119 1241 C119 1273 138 1295 181 1295 C222 1295 242 1273 242 1241 L242 786 C242 766 261 757 277 757 L301 757 C310 757 314 760 314 767 L314 1243 C314 1314 264 1361 181 1361 L181 1361 Z " />
<glyph glyph-name="H" unicode="H" horiz-adv-x="362" d="M314 1331 C314 1342 312 1344 301 1344 L277 1344 C256 1344 241 1331 241 1311 L241 715 L120 715 L120 1311 C120 1331 106 1344 86 1344 L61 1344 C50 1344 48 1342 48 1331 L48 13 C48 4 52 0 61 0 L85 0 C106 0 120 11 120 34 L120 651 L241 651 L241 34 C241 11 256 0 277 0 L301 0 C310 0 314 4 314 13 L314 1331 Z " />
<glyph glyph-name="I" unicode="I" horiz-adv-x="172" d="M122 1331 C122 1342 121 1344 110 1344 L86 1344 C66 1344 50 1331 50 1311 L50 20 C50 7 56 0 69 0 L103 0 C116 0 122 7 122 20 L122 1331 Z " />
<glyph glyph-name="J" unicode="J" horiz-adv-x="362" d="M314 1331 C314 1342 313 1344 302 1344 L278 1344 C258 1344 242 1331 242 1312 L242 104 C242 91 239 80 232 71 C221 57 204 50 180 50 C137 51 120 72 120 103 L120 596 C120 616 102 625 86 625 L61 625 C52 625 48 622 48 616 L48 102 C48 78 55 50 74 27 C98 -2 134 -16 182 -16 C227 -16 261 -3 284 23 C304 45 314 72 314 103 L314 1331 Z " />
<glyph glyph-name="K" unicode="K" horiz-adv-x="366" d="M269 30 C270 11 289 0 309 0 L334 0 C346 0 347 2 346 14 L238 681 L346 1330 L346 1335 C346 1342 343 1344 334 1344 L309 1344 C289 1344 272 1333 269 1314 L172 714 L120 714 L120 1312 C120 1331 105 1344 85 1344 L61 1344 C50 1344 48 1342 48 1331 L48 13 C48 2 49 0 60 0 L85 0 C105 0 120 13 120 32 L120 651 L171 651 L269 30 Z " />
<glyph glyph-name="L" unicode="L" horiz-adv-x="285" d="M48 15 C48 3 49 0 60 0 L257 0 C264 0 268 6 268 17 L268 28 C268 53 256 66 231 66 L120 66 L120 1312 C120 1331 105 1344 85 1344 L61 1344 C50 1344 48 1342 48 1331 L48 15 Z " />
<glyph glyph-name="M" unicode="M" horiz-adv-x="477" d="M195 19 C196 6 203 0 216 0 L262 0 C276 0 283 6 283 19 L364 1026 L365 927 L359 34 C359 11 373 0 394 0 L418 0 C429 0 430 4 430 13 L430 1331 C430 1342 429 1344 418 1344 L363 1344 C342 1344 324 1333 323 1314 L239 188 L155 1314 C154 1333 137 1344 116 1344 L69 1344 C50 1344 48 1343 48 1331 L48 13 C48 4 52 0 61 0 L85 0 C106 0 120 11 120 34 L114 927 L115 1025 L195 19 Z " />
<glyph glyph-name="N" unicode="N" horiz-adv-x="362" d="M314 1331 C314 1342 312 1344 301 1344 L277 1344 C256 1344 241 1331 241 1311 L247 402 L120 1315 C117 1332 105 1344 86 1344 L61 1344 C50 1344 48 1342 48 1331 L48 13 C48 4 52 0 61 0 L85 0 C106 0 121 13 120 34 L114 945 L241 29 C244 10 257 0 277 0 L301 0 C310 0 314 4 314 13 L314 1331 Z " />
<glyph glyph-name="O" unicode="O" horiz-adv-x="363" d="M48 103 C48 73 58 47 77 26 C100 -1 135 -15 182 -15 C229 -15 264 -1 288 26 C306 47 315 73 315 103 L315 1242 C315 1271 305 1302 285 1323 C262 1348 227 1360 182 1360 C137 1360 102 1348 79 1323 C59 1302 48 1271 48 1242 L48 103 Z M120 1241 C120 1273 138 1295 182 1295 C223 1295 243 1277 243 1241 L243 104 C243 68 223 50 182 50 C138 50 120 72 120 104 L120 1241 Z " />
<glyph glyph-name="P" unicode="P" horiz-adv-x="343" d="M181 527 C264 527 314 573 314 645 L314 1225 C314 1298 264 1344 181 1344 L61 1344 C50 1344 48 1342 48 1331 L48 13 C48 2 50 0 61 0 L85 0 C105 0 120 13 120 32 L120 527 L181 527 Z M120 1278 L181 1278 C222 1278 242 1260 242 1224 L242 647 C242 616 226 593 187 593 L120 593 L120 1278 Z " />
<glyph glyph-name="Q" unicode="Q" horiz-adv-x="363" d="M48 103 C48 76 55 54 68 36 C85 12 110 -4 142 -11 L142 -47 C142 -67 153 -80 176 -80 L208 -80 C215 -80 219 -76 219 -68 L219 -11 C252 -4 278 11 295 36 C308 55 315 78 315 103 L315 1242 C315 1271 305 1302 285 1323 C262 1348 227 1360 182 1360 C137 1360 102 1348 79 1323 C59 1302 48 1271 48 1242 L48 103 Z M120 1241 C120 1273 138 1295 182 1295 C223 1295 243 1277 243 1241 L243 104 C243 82 235 67 219 58 C216 77 205 86 180 86 C158 86 145 77 142 59 C127 69 120 84 120 104 L120 1241 Z " />
<glyph glyph-name="R" unicode="R" horiz-adv-x="362" d="M314 529 C314 569 303 596 271 615 C303 639 314 676 314 731 L314 1224 C314 1258 305 1285 287 1306 C265 1331 230 1344 181 1344 L61 1344 C50 1344 48 1342 48 1331 L48 13 C48 2 49 0 60 0 L85 0 C105 0 120 13 120 32 L120 582 L181 582 C222 582 242 564 242 529 L242 32 C242 13 257 0 277 0 L301 0 C312 0 314 2 314 13 L314 529 Z M181 1278 C222 1278 242 1260 242 1224 L242 733 C242 707 239 688 233 676 C224 658 209 649 187 649 L120 649 L120 1278 L181 1278 Z " />
<glyph glyph-name="S" unicode="S" horiz-adv-x="362" d="M181 -16 C264 -16 314 31 314 102 C314 175 309 247 300 316 C282 438 254 564 217 693 C198 758 183 817 170 870 C138 1002 119 1117 119 1241 C119 1273 137 1295 181 1295 C222 1295 242 1277 242 1241 L242 894 C242 873 260 865 277 865 L301 865 C310 865 314 868 314 874 L314 1243 C314 1314 264 1361 181 1361 C98 1361 47 1314 47 1243 C47 1170 52 1100 62 1035 C78 924 106 801 145 668 C158 624 173 565 192 490 C224 354 242 235 242 103 C242 68 222 50 181 50 C138 50 120 72 120 103 L120 448 C120 468 102 477 86 477 L61 477 C52 477 48 474 48 468 L48 102 C48 31 98 -16 181 -16 L181 -16 Z " />
<glyph glyph-name="T" unicode="T" horiz-adv-x="305" d="M26 1344 C19 1344 15 1338 15 1327 L15 1316 C15 1291 27 1278 52 1278 L118 1278 L118 20 C118 7 124 0 137 0 L171 0 C184 0 191 7 191 20 L191 1278 L255 1278 C280 1278 292 1291 292 1316 L292 1327 C292 1338 288 1344 281 1344 L26 1344 Z " />
<glyph glyph-name="U" unicode="U" horiz-adv-x="363" d="M120 1312 C120 1331 105 1344 85 1344 L61 1344 C50 1344 48 1342 48 1331 L48 102 C48 70 59 43 81 21 C106 -4 139 -16 182 -16 C227 -16 262 -2 286 25 C305 46 314 72 314 102 L314 1331 C314 1342 312 1344 301 1344 L277 1344 C257 1344 242 1331 242 1312 L242 103 C242 70 225 50 181 50 C159 50 143 56 132 68 C124 77 120 88 120 103 L120 1312 Z " />
<glyph glyph-name="V" unicode="V" horiz-adv-x="336" d="M319 1335 C319 1342 317 1344 308 1344 L285 1344 C264 1344 246 1333 246 1314 L168 170 L90 1314 C87 1333 70 1344 50 1344 L28 1344 C16 1344 15 1342 15 1330 L117 19 C119 6 126 0 138 0 L196 0 C210 0 217 6 217 19 L319 1330 L319 1335 Z " />
<glyph glyph-name="W" unicode="W" horiz-adv-x="573" d="M356 19 C356 6 363 0 376 0 L421 0 L422 1 L423 0 C444 0 453 2 456 19 L558 1330 C558 1342 557 1344 545 1344 L522 1344 C502 1344 486 1333 483 1314 L406 170 L333 1314 C332 1330 318 1343 302 1343 L270 1343 C254 1343 242 1330 239 1314 L167 177 L90 1314 C89 1333 71 1344 51 1344 L28 1344 C18 1344 14 1339 16 1330 L118 19 C119 6 125 0 138 0 L196 0 C210 0 217 6 218 19 L286 1095 L356 19 Z " />
<glyph glyph-name="X" unicode="X" horiz-adv-x="329" d="M312 1334 C312 1341 308 1344 299 1344 L277 1344 C257 1344 239 1333 236 1314 L164 747 L92 1314 C89 1333 71 1344 51 1344 L29 1344 C18 1344 14 1339 16 1329 L112 672 L16 15 L16 10 C16 3 20 0 29 0 L51 0 C71 0 89 11 92 30 L164 598 L236 30 C239 11 257 0 277 0 L299 0 C310 0 314 5 312 15 L216 672 L312 1329 L312 1334 Z " />
<glyph glyph-name="Y" unicode="Y" horiz-adv-x="328" d="M312 1329 L312 1334 C312 1341 308 1344 299 1344 L277 1344 C257 1344 239 1333 236 1314 L164 655 L92 1314 C89 1333 71 1344 51 1344 L29 1344 C18 1344 14 1339 16 1329 L128 472 L128 20 C128 7 134 0 147 0 L181 0 C194 0 200 7 200 20 L200 472 L312 1329 Z " />
<glyph glyph-name="Z" unicode="Z" horiz-adv-x="297" d="M49 1344 C41 1344 39 1339 39 1327 L39 1316 C39 1291 51 1278 74 1278 L182 1278 L30 30 C26 9 43 0 67 0 L259 0 C266 0 269 6 269 17 L269 28 C269 54 257 67 233 67 L105 67 L260 1325 L261 1331 C261 1342 255 1344 240 1344 L49 1344 Z " />
<glyph glyph-name="bracketleft" unicode="&#x5b;" horiz-adv-x="256" d="M62 1419 C54 1419 50 1416 50 1409 L50 -64 C50 -71 54 -74 62 -74 L220 -74 C228 -74 232 -71 232 -64 L232 -51 C232 -32 220 -19 204 -19 L122 -19 L122 1363 L204 1363 C220 1363 232 1377 232 1396 L232 1409 C232 1416 228 1419 220 1419 L62 1419 Z " />
<glyph glyph-name="backslash" unicode="&#x5c;" horiz-adv-x="314" d="M91 1318 C90 1331 80 1344 61 1344 L30 1344 C22 1344 19 1339 20 1330 L201 30 C204 11 220 0 240 0 L264 0 C275 0 276 2 275 14 L91 1318 Z " />
<glyph glyph-name="bracketright" unicode="&#x5d;" horiz-adv-x="247" d="M185 -74 C193 -74 197 -71 197 -64 L197 1409 C197 1416 193 1419 185 1419 L27 1419 C19 1419 15 1416 15 1409 L15 1396 C15 1377 27 1363 43 1363 L125 1363 L125 -19 L43 -19 C27 -19 15 -32 15 -51 L15 -64 C15 -71 19 -74 27 -74 L185 -74 Z " />
<glyph glyph-name="asciicircum" unicode="&#x5e;" horiz-adv-x="369" d="M235 861 C232 873 226 879 214 879 L156 879 C143 879 139 874 135 861 L51 461 L51 457 C51 451 55 448 64 448 L87 448 C107 448 122 458 126 477 L184 778 L243 477 C247 458 263 448 283 448 L306 448 C316 448 320 452 317 461 L235 861 Z " />
<glyph glyph-name="underscore" unicode="&#x5f;" horiz-adv-x="436" d="M78 -30 C58 -30 46 -43 46 -63 L46 -74 C46 -83 51 -88 60 -88 L361 -88 C381 -88 394 -71 394 -51 L394 -42 C394 -31 390 -30 381 -30 L78 -30 Z " />
<glyph glyph-name="grave" unicode="&#x60;" horiz-adv-x="253" d="M143 1444 C143 1452 136 1458 125 1458 L99 1458 C80 1458 71 1451 71 1438 C71 1433 72 1428 73 1425 L138 1228 C146 1207 154 1196 173 1196 L183 1196 C191 1196 197 1203 196 1211 L143 1444 Z " />
<glyph glyph-name="a" unicode="a" horiz-adv-x="316" d="M208 1114 C206 1127 199 1133 187 1133 L128 1133 C115 1133 109 1127 108 1114 L15 14 L15 12 C15 4 19 0 28 0 L51 0 C71 0 87 11 90 30 L103 216 L211 216 L225 30 C226 11 244 0 264 0 L287 0 C298 0 299 2 299 14 L208 1114 Z M157 974 L207 278 L108 278 L157 968 L157 974 Z " />
<glyph glyph-name="b" unicode="b" horiz-adv-x="367" d="M178 0 C231 0 269 15 292 44 C308 64 316 89 316 119 L316 444 C316 475 314 500 310 520 C305 548 293 567 275 578 C310 599 316 637 316 708 L316 1015 C316 1046 308 1071 292 1091 C269 1120 233 1134 183 1134 L63 1134 C52 1134 50 1132 50 1121 L50 13 C50 2 51 0 62 0 L178 0 Z M183 1068 C224 1068 244 1050 244 1014 L244 710 C244 680 242 658 237 645 C229 622 213 610 189 610 L122 610 L122 1068 L183 1068 Z M189 544 C212 544 228 532 237 509 C242 496 244 474 244 444 L244 120 C244 84 224 66 183 66 L122 66 L122 544 L189 544 Z " />
<glyph glyph-name="c" unicode="c" horiz-adv-x="367" d="M184 1151 C101 1151 50 1104 50 1032 L50 102 C50 31 101 -16 184 -16 C267 -16 317 31 317 102 L317 483 C317 488 313 491 304 491 L279 491 C263 491 245 484 245 463 L245 103 C245 88 241 77 233 68 C222 56 206 50 184 50 C140 50 122 72 122 103 L122 1031 C122 1062 142 1084 183 1084 C226 1084 245 1062 245 1031 L245 660 C245 640 263 632 280 632 L304 632 C313 632 317 635 317 641 L317 1032 C317 1103 267 1151 184 1151 L184 1151 Z " />
<glyph glyph-name="d" unicode="d" horiz-adv-x="362" d="M187 0 C267 0 314 41 314 122 L314 1012 C314 1043 306 1069 290 1090 C266 1119 230 1133 181 1133 L61 1133 C50 1133 48 1131 48 1120 L48 13 C48 2 50 0 61 0 L187 0 Z M120 1067 L181 1067 C222 1067 242 1049 242 1013 L242 120 C242 89 226 66 187 66 L120 66 L120 1067 Z " />
<glyph glyph-name="e" unicode="e" horiz-adv-x="289" d="M257 0 C264 0 268 6 268 17 L268 28 C268 53 256 66 231 66 L120 66 L120 526 L192 526 C213 526 228 528 237 531 C252 536 259 547 259 564 L259 575 C259 586 255 592 248 592 L120 592 L120 1067 L231 1067 C256 1067 268 1080 268 1105 L268 1116 C268 1127 264 1133 257 1133 L75 1133 L63 1133 C50 1133 48 1132 48 1120 L48 15 C48 2 49 0 69 0 L257 0 Z " />
<glyph glyph-name="f" unicode="f" horiz-adv-x="278" d="M85 0 C109 0 120 15 120 34 L120 526 L222 526 C247 526 259 539 259 564 L259 575 C259 586 255 592 248 592 L120 592 L120 1067 L231 1067 C256 1067 268 1080 268 1105 L268 1119 C268 1128 264 1133 257 1133 L69 1133 C50 1133 48 1131 48 1120 L48 13 C48 2 50 0 61 0 L85 0 Z " />
<glyph glyph-name="g" unicode="g" horiz-adv-x="367" d="M181 1150 C98 1150 47 1102 47 1031 L47 102 C47 31 98 -16 181 -16 C264 -16 314 31 314 102 L314 545 C314 552 310 556 303 556 L195 556 C184 556 183 552 183 540 L183 523 C183 498 195 485 218 485 L242 485 L242 103 C242 88 238 77 230 68 C219 56 203 50 181 50 C137 50 119 72 119 103 L119 1029 C119 1061 138 1083 181 1083 C222 1083 242 1061 242 1029 L242 693 C242 673 261 664 277 664 L301 664 C310 664 314 667 314 673 L314 1031 C314 1102 264 1149 181 1150 L181 1150 Z " />
<glyph glyph-name="h" unicode="h" horiz-adv-x="362" d="M314 1120 C314 1131 312 1133 301 1133 L277 1133 C257 1133 241 1120 241 1101 L241 600 L120 600 L120 1096 C120 1121 108 1133 85 1133 L61 1133 C50 1133 48 1131 48 1120 L48 13 C48 2 50 0 61 0 L85 0 C105 0 120 13 120 32 L120 537 L241 537 L241 32 C241 13 256 0 276 0 L301 0 C312 0 314 2 314 13 L314 1120 Z " />
<glyph glyph-name="i" unicode="i" horiz-adv-x="168" d="M120 1120 C120 1131 119 1133 108 1133 L84 1133 C64 1133 48 1119 48 1100 L48 20 C48 7 54 0 67 0 L101 0 C114 0 120 7 120 20 L120 1120 Z " />
<glyph glyph-name="j" unicode="j" horiz-adv-x="361" d="M314 1120 C314 1131 313 1133 302 1133 L278 1133 C258 1133 242 1120 242 1101 L242 104 C242 91 239 80 232 71 C221 57 204 50 180 50 C137 51 120 72 120 103 L120 596 C120 616 102 625 86 625 L61 625 C52 625 48 622 48 616 L48 102 C48 78 55 50 74 27 C98 -2 134 -16 182 -16 C227 -16 261 -3 284 23 C304 45 314 72 314 103 L314 1120 Z " />
<glyph glyph-name="k" unicode="k" horiz-adv-x="372" d="M85 0 C105 0 120 13 120 32 L120 540 L173 540 L269 25 C272 9 289 0 309 0 L334 0 C345 0 347 3 346 12 L238 574 L346 1121 L346 1125 C346 1130 342 1133 334 1133 L309 1133 C289 1133 272 1124 269 1108 L172 602 L120 602 L120 1105 C120 1121 108 1133 85 1133 L61 1133 C50 1133 48 1131 48 1120 L48 13 C48 2 50 0 61 0 L85 0 Z " />
<glyph glyph-name="l" unicode="l" horiz-adv-x="272" d="M256 0 C263 0 267 6 267 17 L267 28 C267 53 255 66 230 66 L120 66 L120 1096 C120 1121 108 1133 85 1133 L61 1133 C50 1133 48 1131 48 1120 L48 15 C48 3 49 0 61 0 L256 0 Z " />
<glyph glyph-name="m" unicode="m" horiz-adv-x="479" d="M195 19 C196 6 203 0 216 0 L261 0 C274 0 281 6 282 19 L362 857 L364 672 L357 34 C357 11 372 0 393 0 L417 0 C425 0 429 4 429 13 L429 1120 C429 1131 428 1133 417 1133 L378 1133 C343 1133 324 1123 321 1103 L239 165 L155 1103 C154 1122 137 1133 116 1133 L61 1133 C50 1133 48 1131 48 1120 L48 13 C48 4 52 0 61 0 L85 0 C106 0 120 11 120 34 L114 672 L115 857 L195 19 Z " />
<glyph glyph-name="n" unicode="n" horiz-adv-x="362" d="M314 1120 C314 1131 312 1133 301 1133 L277 1133 C256 1133 241 1119 241 1100 L249 330 L131 1047 C126 1077 120 1099 114 1112 C107 1126 98 1133 86 1133 L61 1133 C50 1133 48 1131 48 1120 L48 13 C48 4 52 0 61 0 L85 0 C106 0 121 13 120 34 L113 806 L232 80 L238 51 C239 43 241 35 245 26 C252 9 263 0 277 0 L301 0 C310 0 314 4 314 13 L314 1120 Z " />
<glyph glyph-name="o" unicode="o" horiz-adv-x="367" d="M50 103 C50 73 60 47 79 26 C102 -1 137 -15 184 -15 C231 -15 266 -1 290 26 C308 47 317 73 317 103 L317 1031 C317 1062 307 1089 286 1112 C263 1137 228 1150 183 1150 C137 1150 103 1137 81 1112 C60 1089 50 1062 50 1031 L50 103 Z M122 1030 C122 1062 139 1084 183 1084 C227 1084 245 1062 245 1030 L245 104 C245 68 225 50 184 50 C140 50 122 72 122 104 L122 1030 Z " />
<glyph glyph-name="p" unicode="p" horiz-adv-x="337" d="M85 0 C105 0 120 13 120 32 L120 406 L181 406 C264 406 314 452 314 524 L314 1014 C314 1086 264 1133 181 1133 L61 1133 C50 1133 48 1131 48 1120 L48 13 C48 2 50 0 61 0 L85 0 Z M181 1067 C222 1067 242 1049 242 1013 L242 525 C242 494 226 472 187 472 L120 472 L120 1067 L181 1067 Z " />
<glyph glyph-name="q" unicode="q" horiz-adv-x="363" d="M50 103 C50 78 57 56 70 36 C85 13 109 -3 142 -10 L142 -47 C142 -67 153 -80 176 -80 L208 -80 C215 -80 219 -76 219 -68 L219 -12 C252 -6 278 10 296 35 C310 54 317 77 317 103 L317 1031 C317 1062 307 1089 286 1112 C263 1137 228 1150 183 1150 C137 1150 103 1137 81 1112 C60 1089 50 1062 50 1031 L50 103 Z M122 1030 C122 1062 139 1084 183 1084 C227 1084 245 1062 245 1030 L245 104 C245 81 236 65 219 57 C216 76 205 86 180 86 C158 86 145 77 142 60 C129 70 122 85 122 104 L122 1030 Z " />
<glyph glyph-name="r" unicode="r" horiz-adv-x="362" d="M314 442 C314 481 302 509 271 528 C302 551 314 589 314 644 L314 1014 C314 1048 305 1075 287 1096 C265 1121 230 1134 181 1134 L61 1134 C50 1134 48 1132 48 1121 L48 13 C48 2 49 0 60 0 L85 0 C105 0 120 13 120 32 L120 495 L181 495 C222 495 242 477 242 442 L242 32 C242 13 257 0 277 0 L301 0 C312 0 314 2 314 13 L314 442 Z M181 1068 C222 1068 242 1050 242 1014 L242 646 C242 619 239 600 233 588 C224 570 209 561 187 561 L120 561 L120 1068 L181 1068 Z " />
<glyph glyph-name="s" unicode="s" horiz-adv-x="362" d="M181 -16 C264 -16 314 31 314 102 C314 175 309 241 300 300 C282 402 254 497 217 586 C198 631 183 674 170 713 C138 810 119 905 119 1029 C119 1061 137 1084 181 1084 C222 1084 242 1066 242 1030 L242 754 C242 734 261 725 277 725 L301 725 C310 725 314 728 314 734 L314 1031 C314 1103 264 1149 181 1149 C98 1149 47 1103 47 1031 C47 958 52 894 62 839 C78 745 106 652 145 560 C158 528 174 486 192 434 C224 334 242 232 242 103 C242 68 222 50 181 50 C138 50 120 72 120 103 L120 377 C120 397 102 405 86 405 L61 405 C52 405 48 402 48 396 L48 102 C48 31 98 -16 181 -16 L181 -16 Z " />
<glyph glyph-name="t" unicode="t" horiz-adv-x="306" d="M191 1067 L255 1067 C280 1067 292 1080 292 1105 L292 1116 C292 1127 288 1133 281 1133 L26 1133 C19 1133 15 1127 15 1116 L15 1105 C15 1080 27 1067 52 1067 L118 1067 L118 20 C118 7 124 0 137 0 L171 0 C184 0 191 7 191 20 L191 1067 Z " />
<glyph glyph-name="u" unicode="u" horiz-adv-x="363" d="M120 1102 C120 1121 105 1134 85 1134 L61 1134 C50 1134 48 1132 48 1121 L48 102 C48 70 59 43 81 21 C106 -4 139 -16 182 -16 C227 -16 262 -2 286 25 C305 46 314 72 314 102 L314 1121 C314 1132 312 1134 301 1134 L277 1134 C257 1134 242 1121 242 1102 L242 103 C242 70 225 50 181 50 C159 50 143 56 132 68 C124 77 120 88 120 103 L120 1102 Z " />
<glyph glyph-name="v" unicode="v" horiz-adv-x="315" d="M300 1123 C299 1130 295 1133 287 1133 L264 1133 C244 1133 227 1122 224 1103 L157 165 L90 1103 C87 1122 71 1133 51 1133 L28 1133 C18 1133 14 1128 15 1119 L108 19 C108 6 115 0 128 0 L187 0 C199 0 206 6 208 19 L299 1119 L300 1123 Z " />
<glyph glyph-name="w" unicode="w" horiz-adv-x="540" d="M526 1123 C525 1130 521 1133 513 1133 L491 1133 C470 1133 452 1122 451 1103 L383 165 L322 1103 C319 1122 302 1133 282 1133 L258 1133 C238 1133 221 1122 220 1103 L158 165 L90 1103 C89 1122 72 1133 51 1133 L28 1133 C17 1133 15 1130 16 1119 L108 19 C109 6 116 0 129 0 L187 0 C200 0 207 6 208 19 L270 941 L333 19 C336 3 346 0 366 0 L412 0 C425 0 432 6 434 19 L525 1119 L526 1123 Z " />
<glyph glyph-name="x" unicode="x" horiz-adv-x="329" d="M312 1123 C312 1130 308 1133 299 1133 L277 1133 C257 1133 239 1124 236 1108 L165 628 L94 1108 C91 1124 73 1133 53 1133 L31 1133 C22 1133 17 1129 18 1120 L113 567 L18 13 L18 10 C18 3 22 0 31 0 L53 0 C73 0 91 9 94 25 L165 506 L236 25 C239 9 257 0 277 0 L299 0 C308 0 313 4 312 13 L217 567 L312 1120 L312 1123 Z " />
<glyph glyph-name="y" unicode="y" horiz-adv-x="307" d="M293 1120 L293 1123 C293 1130 289 1133 280 1133 L258 1133 C238 1133 219 1123 218 1108 L155 563 L92 1108 C89 1124 71 1133 51 1133 L29 1133 C18 1133 14 1129 16 1120 L118 399 L118 17 C118 6 125 0 138 0 L171 0 C184 0 190 6 190 17 L190 399 L293 1120 Z " />
<glyph glyph-name="z" unicode="z" horiz-adv-x="294" d="M49 1133 C41 1133 39 1128 39 1116 L39 1105 C39 1080 51 1067 74 1067 L181 1067 L30 30 C26 9 43 0 67 0 L259 0 C266 0 269 6 269 17 L269 28 C269 54 257 67 233 67 L107 67 L260 1114 L261 1121 C261 1129 254 1133 241 1133 L49 1133 Z " />
<glyph glyph-name="braceleft" unicode="&#x7b;" horiz-adv-x="306" d="M94 1063 C94 1049 95 1029 97 1003 L103 920 L109 834 C111 806 112 783 112 765 C112 724 92 705 59 705 C43 705 36 703 36 691 L36 654 C36 641 43 639 59 639 C92 639 112 620 112 579 C112 561 111 538 109 510 L103 424 L97 341 C95 315 94 295 94 281 C94 210 96 154 101 113 C110 30 127 -26 152 -54 C171 -75 197 -86 229 -86 L284 -85 C295 -85 300 -82 300 -75 L300 -60 C300 -53 298 -49 295 -48 C286 -45 278 -43 270 -43 C255 -43 243 -42 236 -41 C215 -38 200 -21 189 22 C177 67 170 154 167 281 C167 303 168 330 171 363 L175 421 L179 480 C182 522 184 551 184 568 C184 628 162 660 118 672 C162 683 184 718 184 776 C184 793 182 823 179 865 L175 924 L171 982 C168 1014 167 1041 167 1063 C168 1184 175 1270 189 1323 C195 1345 202 1361 210 1370 C225 1386 241 1388 265 1387 L270 1387 C278 1387 286 1389 295 1392 C298 1393 300 1397 300 1404 L300 1419 C300 1426 295 1429 284 1429 L227 1430 C216 1430 203 1428 190 1425 C159 1415 136 1386 121 1339 C103 1282 94 1190 94 1063 L94 1063 Z " />
<glyph glyph-name="bar" unicode="&#x7c;" horiz-adv-x="248" d="M122 1436 C122 1447 121 1449 110 1449 L85 1449 C65 1449 49 1436 49 1416 L49 -89 C49 -98 54 -103 63 -103 L87 -103 C108 -103 122 -91 122 -71 L122 1436 Z " />
<glyph glyph-name="braceright" unicode="&#x7d;" horiz-adv-x="306" d="M211 1063 C211 1134 209 1190 204 1232 C195 1315 179 1371 154 1399 C135 1420 109 1430 76 1430 L21 1429 C11 1429 6 1426 6 1419 L6 1404 C6 1397 8 1393 11 1392 C22 1388 32 1386 41 1387 C65 1388 80 1386 95 1370 C103 1361 110 1346 117 1323 C129 1278 136 1191 139 1063 C139 1049 137 1022 134 982 L130 924 L126 865 C123 823 121 793 121 776 C121 718 143 683 186 672 C143 660 121 625 121 568 C121 551 123 522 126 480 L130 421 L134 363 C137 322 139 294 139 281 C136 154 129 67 117 22 C110 -1 102 -17 95 -26 C80 -42 65 -44 41 -43 L36 -43 C28 -43 20 -45 11 -48 C8 -49 6 -53 6 -60 L6 -75 C6 -82 11 -85 21 -85 L78 -86 C91 -86 103 -84 115 -80 C146 -71 169 -43 184 6 C202 63 211 155 211 281 C211 295 210 315 208 341 L202 424 L196 510 C194 538 193 561 193 579 C193 620 213 639 246 639 C262 639 269 641 269 654 L269 691 C269 703 262 705 246 705 C213 705 193 724 193 765 C193 783 194 806 196 834 L202 920 L208 1003 C210 1029 211 1049 211 1063 L211 1063 Z " />
<glyph glyph-name="asciitilde" unicode="&#x7e;" horiz-adv-x="436" d="M392 627 C392 633 390 636 386 636 C379 636 367 629 362 628 C333 615 311 609 295 609 C276 609 263 618 230 639 C199 658 177 669 145 669 C119 669 96 663 76 650 C55 637 44 622 44 603 L44 587 C44 579 46 575 51 575 C55 575 62 577 71 582 C96 595 116 603 141 603 C166 603 198 580 209 573 C237 554 263 543 296 543 C319 543 344 549 361 561 C382 575 392 592 392 612 L392 627 Z " />
<glyph glyph-name="exclamdown" unicode="&#xa1;" horiz-adv-x="169" d="M81 1053 C116 1053 134 1071 134 1099 C134 1127 116 1145 81 1145 C46 1145 28 1127 28 1099 C28 1071 46 1053 81 1053 L81 1053 Z M50 -197 C50 -206 54 -211 63 -211 L96 -211 C119 -211 133 -197 132 -178 L116 913 C115 932 99 945 79 945 L63 945 C54 945 50 941 50 932 L50 -197 Z " />
<glyph glyph-name="cent" unicode="&#xa2;" horiz-adv-x="367" d="M179 -182 C199 -182 214 -170 214 -150 L214 -14 C278 -3 317 42 317 102 L317 483 C317 488 313 491 304 491 L279 491 C263 491 245 484 245 463 L245 103 C245 88 241 77 233 68 C222 56 206 50 184 50 C140 50 122 72 122 103 L122 1031 C122 1062 142 1084 183 1084 C226 1084 245 1062 245 1031 L245 660 C245 640 263 632 280 632 L304 632 C313 632 317 635 317 641 L317 1032 C317 1092 278 1137 214 1148 L214 1304 C214 1313 213 1317 202 1317 L190 1317 C170 1317 154 1304 154 1284 L154 1149 C87 1138 50 1093 50 1032 L50 102 C50 41 87 -3 154 -14 L154 -168 C154 -177 156 -182 168 -182 L179 -182 Z " />
<glyph glyph-name="sterling" unicode="&#xa3;" horiz-adv-x="461" d="M399 0 C407 0 411 4 411 11 L411 33 C411 53 399 66 382 66 L129 66 C132 73 139 90 148 116 C157 140 165 171 172 208 C191 303 200 415 200 544 L200 642 L297 642 C314 642 326 655 326 675 L326 690 C326 697 322 700 314 700 L200 700 L200 1240 C200 1253 204 1264 211 1274 C221 1287 238 1294 262 1294 C305 1293 322 1272 322 1241 L322 929 C322 909 340 901 356 901 L382 901 C390 901 394 904 394 910 L394 1242 C394 1266 387 1294 368 1317 C344 1346 308 1360 260 1360 C215 1360 181 1347 158 1322 C138 1299 128 1272 128 1241 L128 700 L67 700 C59 700 55 697 55 690 L55 675 C55 655 67 642 84 642 L128 642 L128 542 C128 467 125 399 120 339 C109 234 94 156 76 105 C72 94 69 87 67 83 C64 73 60 63 56 54 C52 49 50 42 50 33 L50 11 C50 4 54 0 62 0 L399 0 Z " />
<glyph glyph-name="currency" unicode="&#xa4;" horiz-adv-x="426" d="M214 132 C245 132 268 137 283 148 L310 30 C314 11 329 0 349 0 L363 0 C373 0 377 5 375 14 L331 200 C338 214 341 228 341 243 L341 1088 C341 1107 337 1123 329 1138 L375 1330 L376 1335 C376 1341 372 1344 365 1344 L343 1344 C328 1344 318 1335 313 1318 L282 1186 C265 1196 243 1201 215 1201 C183 1201 159 1195 144 1184 L113 1318 C109 1335 99 1344 83 1344 L61 1344 C52 1344 49 1339 51 1330 L98 1131 C92 1117 89 1103 89 1088 L89 243 C89 226 92 213 97 204 L51 14 C51 13 50 11 51 10 C51 3 55 0 63 0 L77 0 C97 0 112 11 116 30 L143 148 C158 137 182 132 214 132 L214 132 Z M215 192 C172 192 155 213 155 244 L155 1086 C155 1121 171 1140 215 1140 C256 1140 275 1118 275 1087 L275 244 C275 213 256 192 215 192 L215 192 Z " />
<glyph glyph-name="yen" unicode="&#xa5;" horiz-adv-x="399" d="M77 394 C69 394 65 391 65 384 L65 368 C65 349 77 336 93 336 L163 336 L163 20 C163 7 170 0 183 0 L216 0 C229 0 236 7 236 20 L236 336 L307 336 C323 336 335 349 335 368 L335 384 C335 391 331 394 323 394 L236 394 L236 468 L307 468 C323 468 335 482 335 501 L335 516 C335 523 331 527 323 527 L243 527 L348 1329 L348 1331 C348 1340 344 1344 335 1344 L313 1344 C292 1344 274 1333 271 1314 L199 655 L127 1314 C124 1333 107 1344 86 1344 L64 1344 C55 1344 50 1339 51 1329 L156 527 L77 527 C69 527 65 523 65 516 L65 501 C65 482 77 468 93 468 L163 468 L163 394 L77 394 Z " />
<glyph glyph-name="brokenbar" unicode="&#xa6;" horiz-adv-x="174" d="M51 724 C51 708 52 706 64 706 L89 706 C109 706 124 718 124 738 L124 1418 C124 1437 108 1450 88 1450 L63 1450 C52 1450 51 1448 51 1437 L51 724 Z M123 628 C123 639 122 641 111 641 L86 641 C66 641 50 628 50 609 L50 -71 C50 -91 65 -103 85 -103 L110 -103 C122 -103 123 -101 123 -85 L123 628 Z " />
<glyph glyph-name="section" unicode="&#xa7;" horiz-adv-x="367" d="M184 -16 C267 -16 317 31 317 102 C317 185 309 256 294 314 C283 355 265 396 240 437 C289 454 317 495 317 547 C317 643 307 722 287 784 C271 833 253 864 220 915 C188 962 169 991 153 1035 C132 1091 122 1159 122 1240 C122 1272 140 1294 184 1294 C227 1294 245 1272 245 1240 L245 1089 C245 1069 263 1060 279 1060 L304 1060 C313 1060 317 1063 317 1069 L317 1241 C317 1313 267 1360 184 1360 C101 1360 50 1313 50 1242 C50 1156 59 1085 76 1030 C89 986 108 945 134 908 C79 893 50 853 50 797 C50 706 60 631 81 570 C97 522 117 488 148 444 C183 392 199 366 215 321 C235 263 245 190 245 103 C245 68 225 50 184 50 C141 50 123 72 123 103 L123 270 C123 290 105 298 89 298 L64 298 C55 298 51 295 51 289 L51 102 C51 31 101 -16 184 -16 L184 -16 Z M122 795 C122 828 139 845 174 848 C197 810 214 773 224 736 C238 680 245 617 245 548 C245 519 230 502 201 496 C177 533 159 570 146 609 C130 658 122 720 122 795 L122 795 Z " />
<glyph glyph-name="dieresis" unicode="&#xa8;" horiz-adv-x="257" d="M68 1285 C41 1285 28 1269 28 1241 C28 1212 41 1198 68 1198 C95 1198 108 1212 108 1241 C108 1269 95 1285 68 1285 L68 1285 Z M189 1285 C164 1285 149 1268 149 1241 C149 1214 164 1198 189 1198 C216 1198 230 1214 230 1241 C230 1269 216 1285 189 1285 L189 1285 Z " />
<glyph glyph-name="copyright" unicode="&#xa9;" horiz-adv-x="715" d="M361 -183 C450 -183 526 -155 579 -104 C635 -50 663 19 663 104 L663 1026 C663 1113 634 1186 582 1238 C529 1290 452 1318 360 1318 C265 1318 191 1292 136 1239 C83 1187 53 1113 53 1026 L53 104 C53 19 81 -51 138 -104 C193 -155 269 -183 361 -183 L361 -183 Z M108 1014 C108 1090 129 1151 171 1196 C211 1240 272 1263 348 1263 C432 1263 497 1240 544 1195 C587 1150 609 1090 609 1014 L609 122 C609 43 589 -18 548 -61 C506 -106 443 -129 360 -129 C275 -129 211 -106 169 -61 C128 -18 108 43 108 122 L108 1014 Z M358 -11 C441 -11 492 35 492 106 L492 483 C492 489 488 492 480 492 L454 492 C446 492 439 490 433 487 C424 482 419 475 419 464 L419 107 C419 78 402 57 365 54 L359 54 C315 54 297 76 297 107 L297 1026 C297 1058 315 1080 358 1080 C401 1080 419 1058 419 1026 L419 659 C419 648 424 641 433 636 C439 633 446 631 454 631 L480 631 C488 631 492 634 492 640 L492 1026 C492 1098 441 1145 358 1145 C275 1144 224 1098 224 1026 L224 106 C224 35 275 -11 358 -11 L358 -11 Z " />
<glyph glyph-name="ordfeminine" unicode="&#xaa;" horiz-adv-x="357" d="M224 1335 C223 1346 216 1352 205 1352 L152 1352 C139 1352 133 1346 133 1335 L52 637 L52 633 C52 626 55 624 63 624 L82 624 C102 624 118 633 119 652 L132 778 L223 778 L237 652 C238 633 255 624 275 624 L294 624 C303 624 306 628 304 637 L224 1335 Z M179 1202 L218 832 L138 832 L178 1197 L179 1202 Z M62 581 C54 581 50 578 50 572 L50 557 C50 538 62 528 79 528 L278 528 C297 528 306 538 306 557 L306 572 C306 578 302 581 295 581 L62 581 Z " />
<glyph glyph-name="guillemotleft" unicode="&#xab;" horiz-adv-x="457" d="M271 789 C271 793 267 795 259 795 L231 795 C216 795 204 788 195 773 L67 557 L195 342 C205 327 217 319 231 319 L259 319 C262 319 265 320 268 322 C271 324 271 326 270 327 L132 557 L270 787 L271 789 Z M424 789 C424 793 420 795 412 795 L383 795 C369 795 357 788 348 773 L220 557 L348 342 C358 327 370 319 383 319 L412 319 C415 319 418 320 421 322 C424 324 424 326 423 327 L285 557 L423 787 L424 789 Z " />
<glyph glyph-name="logicalnot" unicode="&#xac;" horiz-adv-x="515" d="M399 575 L399 564 C399 557 400 548 401 536 C404 508 415 494 434 494 L451 494 C463 494 465 500 465 509 L465 660 C465 676 464 679 452 679 L139 679 L109 679 C99 679 89 678 80 676 C60 671 50 661 50 644 L50 626 C50 617 55 612 65 612 L399 612 L399 575 Z " />
<glyph glyph-name="uni00AD" unicode="&#xad;" horiz-adv-x="609" d="M77 564 C57 564 45 549 45 529 L45 509 C45 497 50 495 59 495 L532 495 C552 495 564 512 564 533 L564 552 C564 563 562 564 551 564 L77 564 Z " />
<glyph glyph-name="registered" unicode="&#xae;" horiz-adv-x="711" d="M361 -183 C450 -183 526 -155 579 -104 C635 -50 663 19 663 104 L663 1026 C663 1113 634 1186 582 1238 C529 1290 452 1318 360 1318 C265 1318 188 1291 135 1239 C82 1187 53 1114 53 1026 L53 104 C53 19 81 -51 138 -104 C193 -155 269 -183 361 -183 L361 -183 Z M108 1014 C108 1091 129 1151 170 1196 C210 1240 272 1263 348 1263 C432 1263 497 1240 544 1195 C587 1150 609 1090 609 1014 L609 122 C609 43 589 -18 548 -61 C506 -106 443 -129 360 -129 C275 -129 211 -106 169 -61 C128 -18 108 43 108 122 L108 1014 Z M263 8 C283 8 298 16 298 35 L298 495 L358 495 C399 495 419 477 419 441 L419 35 C419 16 434 8 455 8 L479 8 C488 8 492 12 492 21 L492 437 C492 479 478 509 450 527 C467 540 479 561 486 590 C490 606 492 630 492 661 L492 1024 C492 1057 483 1084 465 1105 C441 1132 406 1146 359 1146 C328 1146 304 1145 286 1143 C267 1141 253 1139 246 1136 C232 1131 225 1124 225 1113 L225 21 C225 10 227 8 238 8 L263 8 Z M358 1079 C399 1079 419 1061 419 1026 L419 661 C419 633 416 611 411 596 C403 573 387 561 364 561 L298 561 L298 1077 C313 1077 330 1078 347 1079 L358 1079 Z " />
<glyph glyph-name="overscore" unicode="&#xaf;" horiz-adv-x="417" d="M100 1253 C93 1253 89 1250 89 1243 L89 1228 C89 1208 100 1195 117 1195 L285 1195 C302 1195 314 1208 314 1228 L314 1243 C314 1250 310 1253 302 1253 L100 1253 Z " />
<glyph glyph-name="degree" unicode="&#xb0;" horiz-adv-x="240" d="M212 1250 C212 1315 177 1352 118 1352 C62 1352 27 1314 27 1250 C27 1186 62 1147 118 1147 C177 1147 212 1185 212 1250 L212 1250 Z M79 1250 C82 1283 97 1300 118 1300 C143 1300 156 1283 159 1250 C159 1217 142 1201 118 1201 C95 1201 79 1217 79 1250 L79 1250 Z " />
<glyph glyph-name="plusminus" unicode="&#xb1;" horiz-adv-x="448" d="M297 673 L331 673 C344 673 355 674 365 677 C388 682 400 693 400 712 L400 724 C400 745 380 740 370 740 L258 740 L258 780 L258 813 C258 825 257 836 255 847 C250 871 239 883 222 883 L208 883 C203 883 199 882 196 880 C191 876 189 870 190 863 L190 852 L190 740 L151 740 C137 740 126 740 118 741 C105 741 94 740 84 738 C59 733 47 722 47 705 L47 690 C47 667 72 673 78 673 L190 673 L190 634 L190 600 C190 586 191 575 194 566 C199 542 211 530 230 530 L246 530 C257 530 258 533 258 542 L258 673 L297 673 Z M85 476 C61 476 50 461 50 441 L50 423 C50 414 55 409 64 409 L362 409 C385 409 398 427 398 448 L398 464 C398 475 394 476 385 476 L85 476 Z " />
<glyph glyph-name="uni00B2" unicode="&#xb2;" horiz-adv-x="346" d="M292 638 C299 638 303 643 303 653 L303 663 C303 687 291 699 268 699 L117 699 C129 721 143 749 160 782 L189 838 C221 903 246 957 264 1002 C287 1060 299 1103 299 1130 L299 1248 C299 1281 291 1306 274 1325 C252 1349 219 1361 174 1361 C128 1361 94 1349 72 1325 C55 1306 47 1281 47 1248 L47 1086 C47 1079 51 1075 59 1075 L81 1075 C100 1075 113 1088 113 1105 L113 1247 C113 1280 129 1300 173 1300 C216 1300 233 1279 233 1248 L233 1136 C233 1119 228 1095 219 1066 C199 1009 171 945 134 875 C93 794 65 738 50 706 C40 685 35 671 35 664 C35 651 44 638 61 638 L292 638 Z " />
<glyph glyph-name="uni00B3" unicode="&#xb3;" horiz-adv-x="347" d="M173 957 C213 957 233 940 233 906 L233 728 C233 697 215 676 174 676 C134 676 114 693 114 728 L114 805 C114 824 100 836 81 836 L60 836 C49 836 48 835 48 824 L48 727 C48 697 55 673 69 655 C89 629 124 616 173 616 C218 616 252 629 274 654 C291 673 299 698 299 727 L299 903 C299 944 283 971 252 986 C288 1002 299 1030 299 1066 L299 1248 C299 1281 291 1306 274 1325 C252 1349 219 1361 174 1361 C129 1361 95 1349 73 1325 C56 1306 48 1281 48 1248 L48 1124 C48 1116 49 1114 60 1114 L81 1114 C100 1114 114 1126 114 1143 L114 1247 C114 1282 129 1300 173 1300 C213 1300 233 1283 233 1248 L233 1065 C233 1032 213 1015 174 1015 L131 1015 C120 1015 119 1014 119 1003 L119 989 C119 969 132 957 149 957 L173 957 Z " />
<glyph glyph-name="acute" unicode="&#xb4;" horiz-adv-x="253" d="M68 1207 C68 1202 74 1196 81 1196 L91 1196 C110 1196 119 1207 127 1228 L191 1425 C192 1428 193 1433 193 1438 C193 1450 183 1458 166 1458 L140 1458 C129 1458 122 1452 121 1444 L69 1211 L68 1207 Z " />
<glyph glyph-name="paragraph" unicode="&#xb6;" horiz-adv-x="493" d="M314 1331 C314 1348 296 1344 282 1344 L181 1344 C113 1344 77 1313 61 1260 C50 1228 48 1192 48 1140 L48 1094 L48 710 C48 650 53 611 70 580 C91 545 128 527 182 527 L242 527 L242 -70 C242 -89 258 -103 277 -103 L301 -103 C312 -103 314 -100 314 -89 L314 1331 Z M441 1312 C441 1331 424 1344 404 1344 L380 1344 C369 1344 367 1342 367 1331 L367 -89 C367 -100 369 -103 380 -103 L404 -103 C424 -103 441 -89 441 -70 L441 1312 Z " />
<glyph glyph-name="middot" unicode="&#xb7;" horiz-adv-x="163" d="M81 635 C46 635 28 617 28 589 C28 561 46 543 81 543 C116 543 134 561 134 589 C134 617 116 635 81 635 L81 635 Z " />
<glyph glyph-name="cedilla" unicode="&#xb8;" horiz-adv-x="322" d="M90 -243 C90 -248 96 -251 108 -251 C148 -251 178 -246 197 -236 C222 -224 234 -204 234 -175 C234 -140 224 -118 205 -89 C185 -57 175 -40 175 -11 C175 -4 169 -1 164 -1 L135 -1 C123 -1 120 -2 120 -17 C120 -37 123 -55 129 -71 C137 -94 149 -119 165 -147 C170 -156 173 -165 173 -172 C173 -180 170 -186 165 -189 C156 -196 143 -199 126 -199 L111 -199 C99 -199 89 -206 89 -218 L90 -243 Z " />
<glyph glyph-name="uni00B9" unicode="&#xb9;" horiz-adv-x="283" d="M25 1312 C20 1311 18 1309 18 1304 L20 1296 L23 1285 C26 1272 31 1264 39 1261 C43 1259 47 1258 51 1258 C63 1258 78 1265 82 1266 C89 1269 96 1270 102 1271 L102 697 L57 697 C33 697 21 687 21 662 L21 652 C21 640 23 637 31 637 L239 637 C247 637 249 640 249 652 L249 662 C249 687 237 697 213 697 L168 697 L168 1329 C168 1339 163 1344 153 1344 L142 1344 C132 1344 124 1343 118 1340 L25 1312 Z " />
<glyph glyph-name="ordmasculine" unicode="&#xba;" horiz-adv-x="350" d="M173 617 C219 617 253 630 275 655 C292 674 300 699 300 728 L300 1248 C300 1281 292 1306 275 1325 C253 1349 219 1361 174 1361 C129 1361 95 1349 73 1325 C56 1306 48 1281 48 1248 L48 728 C48 698 55 674 70 656 C91 630 126 617 173 617 L173 617 Z M174 677 C131 677 114 698 114 729 L114 1247 C114 1280 130 1300 174 1300 C217 1300 234 1279 234 1248 L234 729 C234 694 214 677 174 677 L174 677 Z M71 575 C63 575 59 572 59 565 L59 550 C59 531 71 522 88 522 L262 522 C279 522 290 531 290 550 L290 565 C290 572 286 575 278 575 L71 575 Z " />
<glyph glyph-name="guillemotright" unicode="&#xbb;" horiz-adv-x="457" d="M66 325 C66 321 70 319 78 319 L107 319 C121 319 133 326 142 341 L270 557 L142 772 C132 787 120 795 107 795 L78 795 C75 795 72 794 69 792 C66 790 66 788 67 787 L205 557 L67 327 L66 325 Z M219 325 C219 321 223 319 231 319 L259 319 C274 319 286 326 295 341 L423 557 L295 772 C285 787 273 795 259 795 L231 795 C228 795 225 794 222 792 C219 790 219 788 220 787 L358 557 L220 327 L219 325 Z " />
<glyph glyph-name="onequarter" unicode="&#xbc;" horiz-adv-x="708" d="M54 1312 C49 1311 47 1309 47 1304 L49 1296 L52 1285 C55 1272 60 1264 68 1261 C72 1259 76 1258 80 1258 C92 1258 107 1265 111 1266 C118 1269 125 1270 131 1271 L131 697 L86 697 C62 697 50 687 50 662 L50 652 C50 640 52 637 60 637 L268 637 C276 637 278 640 278 652 L278 662 C278 687 266 697 242 697 L197 697 L197 1329 C197 1339 192 1344 182 1344 L171 1344 C161 1344 153 1343 147 1340 L54 1312 Z M194 14 C194 13 193 11 194 10 C194 3 198 0 206 0 L225 0 C245 0 260 11 264 30 L523 1330 L524 1335 C524 1341 520 1344 513 1344 L486 1344 C471 1344 461 1335 456 1318 L194 14 Z M656 448 C656 459 656 460 645 460 L629 460 C612 460 601 453 595 439 C592 430 590 416 590 395 L590 207 L455 207 L551 710 L551 713 C551 720 548 723 541 723 L514 723 C507 723 502 721 498 717 C491 710 487 699 484 683 C483 675 481 670 480 666 L380 158 L380 156 C380 149 384 146 392 146 L590 146 L590 67 L590 45 C590 37 591 30 593 24 C597 9 606 1 623 1 L644 1 C655 1 656 3 656 18 L656 448 Z " />
<glyph glyph-name="onehalf" unicode="&#xbd;" horiz-adv-x="741" d="M54 1312 C49 1311 47 1309 47 1304 L49 1296 L52 1285 C55 1272 60 1264 68 1261 C72 1259 76 1258 80 1258 C92 1258 107 1265 111 1266 C118 1269 125 1270 131 1271 L131 697 L86 697 C62 697 50 687 50 662 L50 652 C50 640 52 637 60 637 L268 637 C276 637 278 640 278 652 L278 662 C278 687 266 697 242 697 L197 697 L197 1329 C197 1339 192 1344 182 1344 L171 1344 C161 1344 153 1343 147 1340 L54 1312 Z M194 14 C194 13 193 11 194 10 C194 3 198 0 206 0 L225 0 C245 0 260 11 264 30 L523 1330 L524 1335 C524 1341 520 1344 513 1344 L486 1344 C471 1344 461 1335 456 1318 L194 14 Z M676 1 C683 1 687 6 687 16 L687 26 C687 50 675 62 652 62 L501 62 C513 84 527 112 544 145 L573 201 C605 266 630 320 648 365 C671 423 683 466 683 493 L683 611 C683 644 675 669 658 688 C636 712 603 724 558 724 C512 724 478 712 456 688 C439 669 431 644 431 611 L431 449 C431 442 435 438 443 438 L465 438 C484 438 497 451 497 468 L497 610 C497 643 513 663 557 663 C600 663 617 642 617 611 L617 499 C617 482 612 458 603 429 C583 372 555 308 518 238 C477 157 449 101 434 69 C424 48 419 34 419 27 C419 14 428 1 445 1 L676 1 Z " />
<glyph glyph-name="threequarters" unicode="&#xbe;" horiz-adv-x="1056" d="M174 957 C214 957 234 940 234 906 L234 728 C234 697 216 676 175 676 C135 676 115 693 115 728 L115 805 C115 824 101 836 82 836 L61 836 C50 836 49 835 49 824 L49 727 C49 697 56 673 70 655 C90 629 125 616 174 616 C219 616 253 629 275 654 C292 673 300 698 300 727 L300 903 C300 944 284 971 253 986 C289 1002 300 1030 300 1066 L300 1248 C300 1281 292 1306 275 1325 C253 1349 220 1361 175 1361 C130 1361 96 1349 74 1325 C57 1306 49 1281 49 1248 L49 1124 C49 1116 50 1114 61 1114 L82 1114 C101 1114 115 1126 115 1143 L115 1247 C115 1282 130 1300 174 1300 C214 1300 234 1283 234 1248 L234 1065 C234 1032 214 1015 175 1015 L132 1015 C121 1015 120 1014 120 1003 L120 989 C120 969 133 957 150 957 L174 957 Z M208 14 C208 13 207 11 208 10 C208 3 212 0 220 0 L239 0 C259 0 274 11 278 30 L537 1330 L538 1335 C538 1341 534 1344 527 1344 L500 1344 C485 1344 475 1335 470 1318 L208 14 Z M671 448 C671 459 671 460 660 460 L644 460 C627 460 616 453 610 439 C607 430 605 416 605 395 L605 207 L470 207 L566 710 L566 713 C566 720 563 723 556 723 L529 723 C522 723 517 721 513 717 C506 710 502 699 499 683 C498 675 496 670 495 666 L395 158 L395 156 C395 149 399 146 407 146 L605 146 L605 67 L605 45 C605 37 606 30 608 24 C612 9 621 1 638 1 L659 1 C670 1 671 3 671 18 L671 448 Z " />
<glyph glyph-name="questiondown" unicode="&#xbf;" horiz-adv-x="367" d="M196 1054 C231 1054 249 1072 249 1100 C249 1128 231 1146 196 1146 C161 1146 143 1128 143 1100 C143 1072 161 1054 196 1054 L196 1054 Z M198 946 C187 946 180 939 175 924 C166 898 160 859 159 806 L157 751 C154 704 150 661 145 622 C135 549 122 477 106 405 C99 377 92 342 84 299 C68 208 58 123 54 44 C53 15 52 -8 52 -24 C52 -56 53 -89 55 -124 C62 -187 109 -225 184 -225 C251 -225 286 -196 303 -144 C315 -109 317 -72 317 -16 L317 16 L317 224 C317 230 313 233 304 233 L279 233 C263 233 245 225 245 205 L245 -105 C245 -137 227 -159 184 -159 C140 -159 122 -137 122 -105 C122 -41 125 20 130 79 C140 180 155 281 175 380 C186 435 194 484 201 529 C218 649 227 773 227 901 L227 933 C227 942 223 946 216 946 L198 946 Z " />
<glyph glyph-name="Agrave" unicode="&#xc0;" horiz-adv-x="345" d="M124 1654 C124 1662 117 1668 106 1668 L80 1668 C61 1668 52 1661 52 1648 C52 1643 53 1638 54 1635 L119 1438 C127 1417 135 1406 154 1406 L164 1406 C172 1406 178 1413 177 1421 L124 1654 Z M222 1325 C221 1342 213 1344 190 1344 L155 1344 C134 1344 123 1342 122 1325 L20 14 C20 2 21 0 32 0 L64 0 C83 0 93 10 94 30 L109 243 L235 243 L250 30 C251 10 262 0 281 0 L313 0 C324 0 324 2 324 14 L222 1325 Z M231 308 L113 308 L172 1176 L231 308 Z " />
<glyph glyph-name="Aacute" unicode="&#xc1;" horiz-adv-x="345" d="M138 1417 C138 1412 144 1406 151 1406 L161 1406 C180 1406 189 1417 197 1438 L261 1635 C262 1638 263 1643 263 1648 C263 1660 253 1668 236 1668 L210 1668 C199 1668 192 1662 191 1654 L139 1421 L138 1417 Z M222 1325 C221 1342 213 1344 190 1344 L155 1344 C134 1344 123 1342 122 1325 L20 14 C20 2 21 0 32 0 L64 0 C83 0 93 10 94 30 L109 243 L235 243 L250 30 C251 10 262 0 281 0 L313 0 C324 0 324 2 324 14 L222 1325 Z M231 308 L113 308 L172 1176 L231 308 Z " />
<glyph glyph-name="Acircumflex" unicode="&#xc2;" horiz-adv-x="345" d="M193 1659 C192 1665 188 1668 181 1668 L133 1668 C126 1668 122 1665 121 1659 L58 1416 C57 1415 57 1414 57 1413 C57 1409 62 1406 67 1406 L92 1406 C109 1406 118 1415 121 1431 L157 1618 L193 1431 C196 1414 206 1406 221 1406 L247 1406 C252 1406 258 1409 257 1416 L193 1659 Z M222 1325 C221 1342 213 1344 190 1344 L155 1344 C134 1344 123 1342 122 1325 L20 14 C20 2 21 0 32 0 L64 0 C83 0 93 10 94 30 L109 243 L235 243 L250 30 C251 10 262 0 281 0 L313 0 C324 0 324 2 324 14 L222 1325 Z M231 308 L113 308 L172 1176 L231 308 Z " />
<glyph glyph-name="Atilde" unicode="&#xc3;" horiz-adv-x="345" d="M209 1437 C220 1437 228 1436 233 1434 C240 1431 247 1427 255 1422 C258 1420 263 1419 269 1419 C282 1419 291 1424 291 1435 L291 1445 C291 1478 252 1497 204 1497 C186 1497 168 1492 151 1481 C134 1470 122 1465 105 1465 C88 1465 81 1469 72 1474 C71 1475 64 1483 47 1483 C34 1483 28 1478 28 1467 L28 1456 C28 1425 64 1405 112 1405 C131 1405 143 1410 162 1421 C182 1432 192 1437 209 1437 L209 1437 Z M222 1325 C221 1342 213 1344 190 1344 L155 1344 C134 1344 123 1342 122 1325 L20 14 C20 2 21 0 32 0 L64 0 C83 0 93 10 94 30 L109 243 L235 243 L250 30 C251 10 262 0 281 0 L313 0 C324 0 324 2 324 14 L222 1325 Z M231 308 L113 308 L172 1176 L231 308 Z " />
<glyph glyph-name="Adieresis" unicode="&#xc4;" horiz-adv-x="345" d="M97 1495 C70 1495 57 1479 57 1451 C57 1422 70 1408 97 1408 C124 1408 137 1422 137 1451 C137 1479 124 1495 97 1495 L97 1495 Z M218 1495 C193 1495 178 1478 178 1451 C178 1424 193 1408 218 1408 C245 1408 259 1424 259 1451 C259 1479 245 1495 218 1495 L218 1495 Z M222 1325 C221 1342 213 1344 190 1344 L155 1344 C134 1344 123 1342 122 1325 L20 14 C20 2 21 0 32 0 L64 0 C83 0 93 10 94 30 L109 243 L235 243 L250 30 C251 10 262 0 281 0 L313 0 C324 0 324 2 324 14 L222 1325 Z M231 308 L113 308 L172 1176 L231 308 Z " />
<glyph glyph-name="Aring" unicode="&#xc5;" horiz-adv-x="345" d="M158 1569 C98 1569 64 1539 64 1487 C64 1435 98 1404 158 1404 C218 1404 252 1435 252 1487 C252 1539 218 1569 158 1569 L158 1569 Z M158 1452 C134 1452 122 1464 122 1487 C122 1511 133 1524 158 1524 C182 1524 194 1511 194 1487 C194 1464 182 1452 158 1452 L158 1452 Z M222 1325 C221 1342 213 1344 190 1344 L155 1344 C134 1344 123 1342 122 1325 L20 14 C20 2 21 0 32 0 L64 0 C83 0 93 10 94 30 L109 243 L235 243 L250 30 C251 10 262 0 281 0 L313 0 C324 0 324 2 324 14 L222 1325 Z M231 308 L113 308 L172 1176 L231 308 Z " />
<glyph glyph-name="AE" unicode="&#xc6;" horiz-adv-x="471" d="M20 11 C20 2 24 0 39 0 L64 0 C85 0 93 15 97 39 L122 243 L230 243 L230 14 C230 2 233 0 253 0 L440 0 C447 0 451 6 451 17 L451 28 C451 45 444 56 429 62 C420 65 405 66 382 66 L303 66 L303 632 L404 632 C429 632 442 645 442 671 L442 683 C442 695 441 698 430 698 L303 698 L303 1278 L413 1278 C438 1278 451 1291 451 1316 L451 1327 C451 1338 447 1344 440 1344 L235 1344 C215 1344 204 1341 203 1325 L20 14 L20 11 Z M230 1115 L230 308 L133 308 L230 1115 Z " />
<glyph glyph-name="Ccedilla" unicode="&#xc7;" horiz-adv-x="367" d="M305 757 C314 757 318 760 318 767 L318 1243 C318 1314 268 1361 185 1361 C102 1361 51 1314 51 1243 L51 102 C51 41 89 -4 153 -13 L153 -17 C153 -37 156 -55 162 -71 C170 -94 182 -119 198 -147 C203 -156 206 -165 206 -172 C206 -180 203 -186 198 -189 C189 -196 176 -199 159 -199 L144 -199 C132 -199 122 -206 122 -218 L123 -243 C123 -248 129 -251 141 -251 C181 -251 211 -246 230 -236 C255 -224 267 -204 267 -175 C267 -140 257 -118 238 -89 C218 -57 209 -42 208 -15 C277 -6 318 39 318 102 L318 577 C318 582 314 585 305 585 L280 585 C264 585 246 577 246 557 L246 103 C246 88 242 77 234 68 C223 56 207 50 185 50 C141 50 123 72 123 103 L123 1241 C123 1273 143 1295 184 1295 C227 1295 246 1273 246 1241 L246 786 C246 766 265 757 281 757 L305 757 Z " />
<glyph glyph-name="Egrave" unicode="&#xc8;" horiz-adv-x="306" d="M129 1654 C129 1662 122 1668 111 1668 L85 1668 C66 1668 57 1661 57 1648 C57 1643 58 1638 59 1635 L124 1438 C132 1417 140 1406 159 1406 L169 1406 C177 1406 183 1413 182 1421 L129 1654 Z M63 1344 C52 1344 50 1342 50 1331 L50 14 C50 2 52 0 72 0 L259 0 C266 0 270 6 270 17 L270 28 C270 53 258 66 233 66 L122 66 L122 632 L224 632 C249 632 261 645 261 671 L261 683 C261 693 257 698 250 698 L122 698 L122 1278 L233 1278 C258 1278 270 1291 270 1316 L270 1327 C270 1338 266 1344 259 1344 L63 1344 Z " />
<glyph glyph-name="Eacute" unicode="&#xc9;" horiz-adv-x="306" d="M126 1417 C126 1412 132 1406 139 1406 L149 1406 C168 1406 177 1417 185 1438 L249 1635 C250 1638 251 1643 251 1648 C251 1660 241 1668 224 1668 L198 1668 C187 1668 180 1662 179 1654 L127 1421 L126 1417 Z M63 1344 C52 1344 50 1342 50 1331 L50 14 C50 2 52 0 72 0 L259 0 C266 0 270 6 270 17 L270 28 C270 53 258 66 233 66 L122 66 L122 632 L224 632 C249 632 261 645 261 671 L261 683 C261 693 257 698 250 698 L122 698 L122 1278 L233 1278 C258 1278 270 1291 270 1316 L270 1327 C270 1338 266 1344 259 1344 L63 1344 Z " />
<glyph glyph-name="Ecircumflex" unicode="&#xca;" horiz-adv-x="306" d="M189 1659 C188 1665 184 1668 177 1668 L129 1668 C122 1668 118 1665 117 1659 L54 1416 C53 1415 53 1414 53 1413 C53 1409 58 1406 63 1406 L88 1406 C105 1406 114 1415 117 1431 L153 1618 L189 1431 C192 1414 202 1406 217 1406 L243 1406 C248 1406 254 1409 253 1416 L189 1659 Z M63 1344 C52 1344 50 1342 50 1331 L50 14 C50 2 52 0 72 0 L259 0 C266 0 270 6 270 17 L270 28 C270 53 258 66 233 66 L122 66 L122 632 L224 632 C249 632 261 645 261 671 L261 683 C261 693 257 698 250 698 L122 698 L122 1278 L233 1278 C258 1278 270 1291 270 1316 L270 1327 C270 1338 266 1344 259 1344 L63 1344 Z " />
<glyph glyph-name="Edieresis" unicode="&#xcb;" horiz-adv-x="306" d="M92 1495 C65 1495 52 1479 52 1451 C52 1422 65 1408 92 1408 C119 1408 132 1422 132 1451 C132 1479 119 1495 92 1495 L92 1495 Z M213 1495 C188 1495 173 1478 173 1451 C173 1424 188 1408 213 1408 C240 1408 254 1424 254 1451 C254 1479 240 1495 213 1495 L213 1495 Z M63 1344 C52 1344 50 1342 50 1331 L50 14 C50 2 52 0 72 0 L259 0 C266 0 270 6 270 17 L270 28 C270 53 258 66 233 66 L122 66 L122 632 L224 632 C249 632 261 645 261 671 L261 683 C261 693 257 698 250 698 L122 698 L122 1278 L233 1278 C258 1278 270 1291 270 1316 L270 1327 C270 1338 266 1344 259 1344 L63 1344 Z " />
<glyph glyph-name="Igrave" unicode="&#xcc;" horiz-adv-x="172" d="M57 1654 C57 1662 50 1668 39 1668 L13 1668 C-6 1668 -15 1661 -15 1648 C-15 1643 -14 1638 -13 1635 L52 1438 C60 1417 68 1406 87 1406 L97 1406 C105 1406 111 1413 110 1421 L57 1654 Z M122 1331 C122 1342 121 1344 110 1344 L86 1344 C66 1344 50 1331 50 1311 L50 20 C50 7 56 0 69 0 L103 0 C116 0 122 7 122 20 L122 1331 Z " />
<glyph glyph-name="Iacute" unicode="&#xcd;" horiz-adv-x="172" d="M66 1417 C66 1412 72 1406 79 1406 L89 1406 C108 1406 117 1417 125 1438 L189 1635 C190 1638 191 1643 191 1648 C191 1660 181 1668 164 1668 L138 1668 C127 1668 120 1662 119 1654 L67 1421 L66 1417 Z M122 1331 C122 1342 121 1344 110 1344 L86 1344 C66 1344 50 1331 50 1311 L50 20 C50 7 56 0 69 0 L103 0 C116 0 122 7 122 20 L122 1331 Z " />
<glyph glyph-name="Icircumflex" unicode="&#xce;" horiz-adv-x="172" d="M122 1659 C121 1665 117 1668 110 1668 L62 1668 C55 1668 51 1665 50 1659 L-13 1416 C-14 1415 -14 1414 -14 1413 C-14 1409 -9 1406 -4 1406 L21 1406 C38 1406 47 1415 50 1431 L86 1618 L122 1431 C125 1414 135 1406 150 1406 L176 1406 C181 1406 187 1409 186 1416 L122 1659 Z M122 1331 C122 1342 121 1344 110 1344 L86 1344 C66 1344 50 1331 50 1311 L50 20 C50 7 56 0 69 0 L103 0 C116 0 122 7 122 20 L122 1331 Z " />
<glyph glyph-name="Idieresis" unicode="&#xcf;" horiz-adv-x="172" d="M26 1495 C-1 1495 -14 1479 -14 1451 C-14 1422 -1 1408 26 1408 C53 1408 66 1422 66 1451 C66 1479 53 1495 26 1495 L26 1495 Z M147 1495 C122 1495 107 1478 107 1451 C107 1424 122 1408 147 1408 C174 1408 188 1424 188 1451 C188 1479 174 1495 147 1495 L147 1495 Z M122 1331 C122 1342 121 1344 110 1344 L86 1344 C66 1344 50 1331 50 1311 L50 20 C50 7 56 0 69 0 L103 0 C116 0 122 7 122 20 L122 1331 Z " />
<glyph glyph-name="Eth" unicode="&#xd0;" horiz-adv-x="366" d="M183 0 C270 0 316 36 316 121 L316 1224 C316 1259 307 1287 289 1307 C266 1332 231 1344 183 1344 L63 1344 C52 1344 50 1342 50 1331 L50 678 L-7 678 C-15 678 -19 674 -19 667 L-19 648 C-19 629 -7 615 9 615 L50 615 L50 13 C50 1 54 0 70 0 L183 0 Z M122 615 L190 615 C202 615 211 625 211 640 L211 667 C211 674 207 678 200 678 L122 678 L122 1278 L183 1278 C224 1278 244 1260 244 1224 L244 120 C244 89 228 66 189 66 L122 66 L122 615 Z " />
<glyph glyph-name="Ntilde" unicode="&#xd1;" horiz-adv-x="362" d="M231 1437 C242 1437 250 1436 255 1434 C262 1431 269 1427 277 1422 C280 1420 285 1419 291 1419 C304 1419 313 1424 313 1435 L313 1445 C313 1478 274 1497 226 1497 C208 1497 190 1492 173 1481 C156 1470 144 1465 127 1465 C110 1465 103 1469 94 1474 C93 1475 86 1483 69 1483 C56 1483 50 1478 50 1467 L50 1456 C50 1425 86 1405 134 1405 C153 1405 165 1410 184 1421 C204 1432 214 1437 231 1437 L231 1437 Z M314 1331 C314 1342 312 1344 301 1344 L277 1344 C256 1344 241 1331 241 1311 L247 402 L120 1315 C117 1332 105 1344 86 1344 L61 1344 C50 1344 48 1342 48 1331 L48 13 C48 4 52 0 61 0 L85 0 C106 0 121 13 120 34 L114 945 L241 29 C244 10 257 0 277 0 L301 0 C310 0 314 4 314 13 L314 1331 Z " />
<glyph glyph-name="Ograve" unicode="&#xd2;" horiz-adv-x="363" d="M148 1654 C148 1662 141 1668 130 1668 L104 1668 C85 1668 76 1661 76 1648 C76 1643 77 1638 78 1635 L143 1438 C151 1417 159 1406 178 1406 L188 1406 C196 1406 202 1413 201 1421 L148 1654 Z M48 103 C48 73 58 47 77 26 C100 -1 135 -15 182 -15 C229 -15 264 -1 288 26 C306 47 315 73 315 103 L315 1242 C315 1271 305 1302 285 1323 C262 1348 227 1360 182 1360 C137 1360 102 1348 79 1323 C59 1302 48 1271 48 1242 L48 103 Z M120 1241 C120 1273 138 1295 182 1295 C223 1295 243 1277 243 1241 L243 104 C243 68 223 50 182 50 C138 50 120 72 120 104 L120 1241 Z " />
<glyph glyph-name="Oacute" unicode="&#xd3;" horiz-adv-x="363" d="M158 1417 C158 1412 164 1406 171 1406 L181 1406 C200 1406 209 1417 217 1438 L281 1635 C282 1638 283 1643 283 1648 C283 1660 273 1668 256 1668 L230 1668 C219 1668 212 1662 211 1654 L159 1421 L158 1417 Z M48 103 C48 73 58 47 77 26 C100 -1 135 -15 182 -15 C229 -15 264 -1 288 26 C306 47 315 73 315 103 L315 1242 C315 1271 305 1302 285 1323 C262 1348 227 1360 182 1360 C137 1360 102 1348 79 1323 C59 1302 48 1271 48 1242 L48 103 Z M120 1241 C120 1273 138 1295 182 1295 C223 1295 243 1277 243 1241 L243 104 C243 68 223 50 182 50 C138 50 120 72 120 104 L120 1241 Z " />
<glyph glyph-name="Ocircumflex" unicode="&#xd4;" horiz-adv-x="363" d="M217 1659 C216 1665 212 1668 205 1668 L157 1668 C150 1668 146 1665 145 1659 L82 1416 C81 1415 81 1414 81 1413 C81 1409 86 1406 91 1406 L116 1406 C133 1406 142 1415 145 1431 L181 1618 L217 1431 C220 1414 230 1406 245 1406 L271 1406 C276 1406 282 1409 281 1416 L217 1659 Z M48 103 C48 73 58 47 77 26 C100 -1 135 -15 182 -15 C229 -15 264 -1 288 26 C306 47 315 73 315 103 L315 1242 C315 1271 305 1302 285 1323 C262 1348 227 1360 182 1360 C137 1360 102 1348 79 1323 C59 1302 48 1271 48 1242 L48 103 Z M120 1241 C120 1273 138 1295 182 1295 C223 1295 243 1277 243 1241 L243 104 C243 68 223 50 182 50 C138 50 120 72 120 104 L120 1241 Z " />
<glyph glyph-name="Otilde" unicode="&#xd5;" horiz-adv-x="363" d="M232 1440 C243 1440 251 1439 256 1437 C263 1434 270 1430 278 1425 C281 1423 285 1422 292 1422 C305 1422 314 1427 314 1438 L314 1448 C314 1481 275 1500 227 1500 C209 1500 191 1495 174 1484 C157 1473 145 1468 128 1468 C111 1468 104 1472 95 1477 C94 1478 87 1486 70 1486 C57 1486 51 1481 51 1470 L51 1459 C51 1428 87 1408 135 1408 C154 1408 166 1413 185 1424 C205 1435 215 1440 232 1440 L232 1440 Z M48 103 C48 73 58 47 77 26 C100 -1 135 -15 182 -15 C229 -15 264 -1 288 26 C306 47 315 73 315 103 L315 1242 C315 1271 305 1302 285 1323 C262 1348 227 1360 182 1360 C137 1360 102 1348 79 1323 C59 1302 48 1271 48 1242 L48 103 Z M120 1241 C120 1273 138 1295 182 1295 C223 1295 243 1277 243 1241 L243 104 C243 68 223 50 182 50 C138 50 120 72 120 104 L120 1241 Z " />
<glyph glyph-name="Odieresis" unicode="&#xd6;" horiz-adv-x="363" d="M120 1495 C93 1495 80 1479 80 1451 C80 1422 93 1408 120 1408 C147 1408 160 1422 160 1451 C160 1479 147 1495 120 1495 L120 1495 Z M241 1495 C216 1495 201 1478 201 1451 C201 1424 216 1408 241 1408 C268 1408 282 1424 282 1451 C282 1479 268 1495 241 1495 L241 1495 Z M48 103 C48 73 58 47 77 26 C100 -1 135 -15 182 -15 C229 -15 264 -1 288 26 C306 47 315 73 315 103 L315 1242 C315 1271 305 1302 285 1323 C262 1348 227 1360 182 1360 C137 1360 102 1348 79 1323 C59 1302 48 1271 48 1242 L48 103 Z M120 1241 C120 1273 138 1295 182 1295 C223 1295 243 1277 243 1241 L243 104 C243 68 223 50 182 50 C138 50 120 72 120 104 L120 1241 Z " />
<glyph glyph-name="multiply" unicode="&#xd7;" horiz-adv-x="391" d="M224 568 C241 549 257 533 273 522 C282 515 292 511 301 511 C310 511 317 514 324 521 L336 532 C341 537 342 542 338 547 L324 562 L244 644 L274 673 L298 697 C307 705 314 713 320 722 C327 733 331 742 331 750 C331 758 328 765 322 771 L310 785 C303 791 297 792 292 787 L277 773 L197 693 L168 723 L145 748 C136 757 127 765 119 770 C108 777 99 781 90 781 C82 781 75 778 69 772 L55 760 C52 757 51 754 51 751 C51 740 66 729 67 728 L148 647 L118 617 L94 594 C83 583 75 574 71 568 C64 557 60 548 60 539 C60 530 63 523 70 516 L82 504 C85 500 88 498 90 498 C92 498 95 500 99 504 L194 597 L224 568 Z " />
<glyph glyph-name="Oslash" unicode="&#xd8;" horiz-adv-x="363" d="M48 103 C48 77 54 55 67 37 L34 -126 L33 -130 C33 -137 37 -140 45 -140 L58 -140 C78 -140 93 -129 97 -110 L118 -4 C137 -11 158 -15 182 -15 C229 -15 264 -1 288 26 C306 47 315 73 315 103 L315 1242 C315 1264 310 1284 299 1303 L332 1470 L333 1475 C333 1481 329 1484 322 1484 L302 1484 C287 1484 277 1475 272 1458 L249 1347 C231 1356 209 1360 182 1360 C137 1360 102 1348 79 1323 C59 1302 48 1271 48 1242 L48 103 Z M120 1241 C120 1273 138 1295 182 1295 C223 1295 243 1277 243 1241 L243 104 C243 68 223 50 182 50 C138 50 120 72 120 104 L120 1241 Z " />
<glyph glyph-name="Ugrave" unicode="&#xd9;" horiz-adv-x="363" d="M144 1654 C144 1662 137 1668 126 1668 L100 1668 C81 1668 72 1661 72 1648 C72 1643 73 1638 74 1635 L139 1438 C147 1417 155 1406 174 1406 L184 1406 C192 1406 198 1413 197 1421 L144 1654 Z M120 1312 C120 1331 105 1344 85 1344 L61 1344 C50 1344 48 1342 48 1331 L48 102 C48 70 59 43 81 21 C106 -4 139 -16 182 -16 C227 -16 262 -2 286 25 C305 46 314 72 314 102 L314 1331 C314 1342 312 1344 301 1344 L277 1344 C257 1344 242 1331 242 1312 L242 103 C242 70 225 50 181 50 C159 50 143 56 132 68 C124 77 120 88 120 103 L120 1312 Z " />
<glyph glyph-name="Uacute" unicode="&#xda;" horiz-adv-x="363" d="M160 1417 C160 1412 166 1406 173 1406 L183 1406 C202 1406 211 1417 219 1438 L283 1635 C284 1638 285 1643 285 1648 C285 1660 275 1668 258 1668 L232 1668 C221 1668 214 1662 213 1654 L161 1421 L160 1417 Z M120 1312 C120 1331 105 1344 85 1344 L61 1344 C50 1344 48 1342 48 1331 L48 102 C48 70 59 43 81 21 C106 -4 139 -16 182 -16 C227 -16 262 -2 286 25 C305 46 314 72 314 102 L314 1331 C314 1342 312 1344 301 1344 L277 1344 C257 1344 242 1331 242 1312 L242 103 C242 70 225 50 181 50 C159 50 143 56 132 68 C124 77 120 88 120 103 L120 1312 Z " />
<glyph glyph-name="Ucircumflex" unicode="&#xdb;" horiz-adv-x="363" d="M217 1659 C216 1665 212 1668 205 1668 L157 1668 C150 1668 146 1665 145 1659 L82 1416 C81 1415 81 1414 81 1413 C81 1409 86 1406 91 1406 L116 1406 C133 1406 142 1415 145 1431 L181 1618 L217 1431 C220 1414 230 1406 245 1406 L271 1406 C276 1406 282 1409 281 1416 L217 1659 Z M120 1312 C120 1331 105 1344 85 1344 L61 1344 C50 1344 48 1342 48 1331 L48 102 C48 70 59 43 81 21 C106 -4 139 -16 182 -16 C227 -16 262 -2 286 25 C305 46 314 72 314 102 L314 1331 C314 1342 312 1344 301 1344 L277 1344 C257 1344 242 1331 242 1312 L242 103 C242 70 225 50 181 50 C159 50 143 56 132 68 C124 77 120 88 120 103 L120 1312 Z " />
<glyph glyph-name="Udieresis" unicode="&#xdc;" horiz-adv-x="363" d="M120 1495 C93 1495 80 1479 80 1451 C80 1422 93 1408 120 1408 C147 1408 160 1422 160 1451 C160 1479 147 1495 120 1495 L120 1495 Z M241 1495 C216 1495 201 1478 201 1451 C201 1424 216 1408 241 1408 C268 1408 282 1424 282 1451 C282 1479 268 1495 241 1495 L241 1495 Z M120 1312 C120 1331 105 1344 85 1344 L61 1344 C50 1344 48 1342 48 1331 L48 102 C48 70 59 43 81 21 C106 -4 139 -16 182 -16 C227 -16 262 -2 286 25 C305 46 314 72 314 102 L314 1331 C314 1342 312 1344 301 1344 L277 1344 C257 1344 242 1331 242 1312 L242 103 C242 70 225 50 181 50 C159 50 143 56 132 68 C124 77 120 88 120 103 L120 1312 Z " />
<glyph glyph-name="Yacute" unicode="&#xdd;" horiz-adv-x="328" d="M139 1417 C139 1412 145 1406 152 1406 L162 1406 C181 1406 190 1417 198 1438 L262 1635 C263 1638 264 1643 264 1648 C264 1660 254 1668 237 1668 L211 1668 C200 1668 193 1662 192 1654 L140 1421 L139 1417 Z M312 1329 L312 1334 C312 1341 308 1344 299 1344 L277 1344 C257 1344 239 1333 236 1314 L164 655 L92 1314 C89 1333 71 1344 51 1344 L29 1344 C18 1344 14 1339 16 1329 L128 472 L128 20 C128 7 134 0 147 0 L181 0 C194 0 200 7 200 20 L200 472 L312 1329 Z " />
<glyph glyph-name="Thorn" unicode="&#xde;" horiz-adv-x="343" d="M181 272 C264 272 314 318 314 390 L314 970 C314 1043 264 1089 181 1089 L120 1089 L120 1295 C120 1328 108 1344 85 1344 L61 1344 C50 1344 48 1342 48 1331 L48 13 C48 2 50 0 61 0 L85 0 C105 0 120 13 120 32 L120 272 L181 272 Z M181 1023 C222 1023 242 1005 242 969 L242 392 C242 361 226 338 187 338 L120 338 L120 1023 L181 1023 Z " />
<glyph glyph-name="germandbls" unicode="&#xdf;" horiz-adv-x="363" d="M162 -4 C162 -15 166 -16 182 -16 C230 -16 266 -3 289 24 C306 44 315 70 315 101 L315 589 C315 630 302 659 266 676 C303 693 315 722 315 759 L315 1058 C315 1092 306 1119 288 1140 C266 1165 231 1178 182 1178 C133 1178 97 1165 75 1140 C57 1119 48 1092 48 1058 L48 12 C48 4 52 0 61 0 L85 0 C106 0 120 13 120 32 L120 1057 C120 1093 140 1111 181 1111 C222 1111 243 1093 243 1058 L243 760 C243 725 224 708 186 708 L168 708 C157 708 157 708 157 696 L157 675 C157 652 166 640 184 640 L186 640 C224 640 243 623 243 588 L243 103 C243 72 226 50 183 50 C169 50 162 41 162 22 L162 -4 Z " />
<glyph glyph-name="agrave" unicode="&#xe0;" horiz-adv-x="316" d="M124 1453 C124 1461 117 1467 106 1467 L80 1467 C61 1467 52 1460 52 1447 C52 1442 53 1437 54 1434 L119 1237 C127 1216 135 1205 154 1205 L164 1205 C172 1205 178 1212 177 1220 L124 1453 Z M208 1114 C206 1127 199 1133 187 1133 L128 1133 C115 1133 109 1127 108 1114 L15 14 L15 12 C15 4 19 0 28 0 L51 0 C71 0 87 11 90 30 L103 216 L211 216 L225 30 C226 11 244 0 264 0 L287 0 C298 0 299 2 299 14 L208 1114 Z M157 974 L207 278 L108 278 L157 968 L157 974 Z " />
<glyph glyph-name="aacute" unicode="&#xe1;" horiz-adv-x="316" d="M133 1207 C133 1202 139 1196 146 1196 L156 1196 C175 1196 184 1207 192 1228 L256 1425 C257 1428 258 1433 258 1438 C258 1450 248 1458 231 1458 L205 1458 C194 1458 187 1452 186 1444 L134 1211 L133 1207 Z M208 1114 C206 1127 199 1133 187 1133 L128 1133 C115 1133 109 1127 108 1114 L15 14 L15 12 C15 4 19 0 28 0 L51 0 C71 0 87 11 90 30 L103 216 L211 216 L225 30 C226 11 244 0 264 0 L287 0 C298 0 299 2 299 14 L208 1114 Z M157 974 L207 278 L108 278 L157 968 L157 974 Z " />
<glyph glyph-name="acircumflex" unicode="&#xe2;" horiz-adv-x="316" d="M193 1449 C192 1455 188 1458 181 1458 L133 1458 C126 1458 122 1455 121 1449 L58 1206 C57 1205 57 1204 57 1203 C57 1199 62 1196 67 1196 L92 1196 C109 1196 118 1205 121 1221 L157 1408 L193 1221 C196 1204 206 1196 221 1196 L247 1196 C252 1196 258 1199 257 1206 L193 1449 Z M208 1114 C206 1127 199 1133 187 1133 L128 1133 C115 1133 109 1127 108 1114 L15 14 L15 12 C15 4 19 0 28 0 L51 0 C71 0 87 11 90 30 L103 216 L211 216 L225 30 C226 11 244 0 264 0 L287 0 C298 0 299 2 299 14 L208 1114 Z M157 974 L207 278 L108 278 L157 968 L157 974 Z " />
<glyph glyph-name="atilde" unicode="&#xe3;" horiz-adv-x="316" d="M209 1227 C220 1227 228 1226 233 1224 C240 1221 247 1217 255 1212 C258 1210 263 1209 269 1209 C282 1209 291 1214 291 1225 L291 1235 C291 1268 252 1287 204 1287 C186 1287 168 1282 151 1271 C134 1260 122 1255 105 1255 C88 1255 81 1259 72 1264 C71 1265 64 1273 47 1273 C34 1273 28 1268 28 1257 L28 1246 C28 1215 64 1195 112 1195 C131 1195 143 1200 162 1211 C182 1222 192 1227 209 1227 L209 1227 Z M208 1114 C206 1127 199 1133 187 1133 L128 1133 C115 1133 109 1127 108 1114 L15 14 L15 12 C15 4 19 0 28 0 L51 0 C71 0 87 11 90 30 L103 216 L211 216 L225 30 C226 11 244 0 264 0 L287 0 C298 0 299 2 299 14 L208 1114 Z M157 974 L207 278 L108 278 L157 968 L157 974 Z " />
<glyph glyph-name="adieresis" unicode="&#xe4;" horiz-adv-x="316" d="M97 1285 C70 1285 57 1269 57 1241 C57 1212 70 1198 97 1198 C124 1198 137 1212 137 1241 C137 1269 124 1285 97 1285 L97 1285 Z M218 1285 C193 1285 178 1268 178 1241 C178 1214 193 1198 218 1198 C245 1198 259 1214 259 1241 C259 1269 245 1285 218 1285 L218 1285 Z M208 1114 C206 1127 199 1133 187 1133 L128 1133 C115 1133 109 1127 108 1114 L15 14 L15 12 C15 4 19 0 28 0 L51 0 C71 0 87 11 90 30 L103 216 L211 216 L225 30 C226 11 244 0 264 0 L287 0 C298 0 299 2 299 14 L208 1114 Z M157 974 L207 278 L108 278 L157 968 L157 974 Z " />
<glyph glyph-name="aring" unicode="&#xe5;" horiz-adv-x="316" d="M158 1359 C98 1359 64 1329 64 1277 C64 1225 98 1194 158 1194 C218 1194 252 1225 252 1277 C252 1329 218 1359 158 1359 L158 1359 Z M158 1242 C134 1242 122 1254 122 1277 C122 1301 133 1314 158 1314 C182 1314 194 1301 194 1277 C194 1254 182 1242 158 1242 L158 1242 Z M208 1114 C206 1127 199 1133 187 1133 L128 1133 C115 1133 109 1127 108 1114 L15 14 L15 12 C15 4 19 0 28 0 L51 0 C71 0 87 11 90 30 L103 216 L211 216 L225 30 C226 11 244 0 264 0 L287 0 C298 0 299 2 299 14 L208 1114 Z M157 974 L207 278 L108 278 L157 968 L157 974 Z " />
<glyph glyph-name="ae" unicode="&#xe6;" horiz-adv-x="446" d="M411 0 C422 0 423 5 423 17 L423 28 C423 53 410 66 385 66 L274 66 L274 526 L360 526 C396 526 413 536 413 567 L413 573 C413 588 413 592 402 592 L274 592 L274 1067 L385 1067 C410 1067 423 1080 423 1105 L423 1116 C423 1128 422 1133 411 1133 L185 1133 C168 1133 161 1129 158 1114 L16 14 C15 12 15 10 15 7 C15 2 19 0 26 0 L53 0 C76 0 85 9 88 26 L112 216 L202 216 L202 13 C202 2 204 0 215 0 L411 0 Z M202 974 L202 281 L118 281 L199 974 L202 974 Z " />
<glyph glyph-name="ccedilla" unicode="&#xe7;" horiz-adv-x="367" d="M304 632 C313 632 317 635 317 641 L317 1032 C317 1103 267 1151 184 1151 C101 1151 50 1104 50 1032 L50 102 C50 41 88 -4 152 -13 L152 -17 C152 -37 155 -55 161 -71 C169 -94 181 -119 197 -147 C202 -156 205 -165 205 -172 C205 -180 202 -186 197 -189 C188 -196 175 -199 158 -199 L143 -199 C131 -199 121 -206 121 -218 L122 -243 C122 -248 128 -251 140 -251 C180 -251 210 -246 229 -236 C254 -224 266 -204 266 -175 C266 -140 256 -118 237 -89 C217 -57 208 -42 207 -15 C276 -6 317 39 317 102 L317 483 C317 488 313 491 304 491 L279 491 C263 491 245 484 245 463 L245 103 C245 88 241 77 233 68 C222 56 206 50 184 50 C140 50 122 72 122 103 L122 1031 C122 1062 142 1084 183 1084 C226 1084 245 1062 245 1031 L245 660 C245 640 263 632 280 632 L304 632 Z " />
<glyph glyph-name="egrave" unicode="&#xe8;" horiz-adv-x="289" d="M125 1444 C125 1452 118 1458 107 1458 L81 1458 C62 1458 53 1451 53 1438 C53 1433 54 1428 55 1425 L120 1228 C128 1207 136 1196 155 1196 L165 1196 C173 1196 179 1203 178 1211 L125 1444 Z M257 0 C264 0 268 6 268 17 L268 28 C268 53 256 66 231 66 L120 66 L120 526 L192 526 C213 526 228 528 237 531 C252 536 259 547 259 564 L259 575 C259 586 255 592 248 592 L120 592 L120 1067 L231 1067 C256 1067 268 1080 268 1105 L268 1116 C268 1127 264 1133 257 1133 L75 1133 L63 1133 C50 1133 48 1132 48 1120 L48 15 C48 2 49 0 69 0 L257 0 Z " />
<glyph glyph-name="eacute" unicode="&#xe9;" horiz-adv-x="289" d="M132 1207 C132 1202 138 1196 145 1196 L155 1196 C174 1196 183 1207 191 1228 L255 1425 C256 1428 257 1433 257 1438 C257 1450 247 1458 230 1458 L204 1458 C193 1458 186 1452 185 1444 L133 1211 L132 1207 Z M257 0 C264 0 268 6 268 17 L268 28 C268 53 256 66 231 66 L120 66 L120 526 L192 526 C213 526 228 528 237 531 C252 536 259 547 259 564 L259 575 C259 586 255 592 248 592 L120 592 L120 1067 L231 1067 C256 1067 268 1080 268 1105 L268 1116 C268 1127 264 1133 257 1133 L75 1133 L63 1133 C50 1133 48 1132 48 1120 L48 15 C48 2 49 0 69 0 L257 0 Z " />
<glyph glyph-name="ecircumflex" unicode="&#xea;" horiz-adv-x="289" d="M187 1449 C186 1455 182 1458 175 1458 L127 1458 C120 1458 116 1455 115 1449 L52 1206 C51 1205 51 1204 51 1203 C51 1199 56 1196 61 1196 L86 1196 C103 1196 112 1205 115 1221 L151 1408 L187 1221 C190 1204 200 1196 215 1196 L241 1196 C246 1196 252 1199 251 1206 L187 1449 Z M257 0 C264 0 268 6 268 17 L268 28 C268 53 256 66 231 66 L120 66 L120 526 L192 526 C213 526 228 528 237 531 C252 536 259 547 259 564 L259 575 C259 586 255 592 248 592 L120 592 L120 1067 L231 1067 C256 1067 268 1080 268 1105 L268 1116 C268 1127 264 1133 257 1133 L75 1133 L63 1133 C50 1133 48 1132 48 1120 L48 15 C48 2 49 0 69 0 L257 0 Z " />
<glyph glyph-name="edieresis" unicode="&#xeb;" horiz-adv-x="289" d="M90 1285 C63 1285 50 1269 50 1241 C50 1212 63 1198 90 1198 C117 1198 130 1212 130 1241 C130 1269 117 1285 90 1285 L90 1285 Z M211 1285 C186 1285 171 1268 171 1241 C171 1214 186 1198 211 1198 C238 1198 252 1214 252 1241 C252 1269 238 1285 211 1285 L211 1285 Z M257 0 C264 0 268 6 268 17 L268 28 C268 53 256 66 231 66 L120 66 L120 526 L192 526 C213 526 228 528 237 531 C252 536 259 547 259 564 L259 575 C259 586 255 592 248 592 L120 592 L120 1067 L231 1067 C256 1067 268 1080 268 1105 L268 1116 C268 1127 264 1133 257 1133 L75 1133 L63 1133 C50 1133 48 1132 48 1120 L48 15 C48 2 49 0 69 0 L257 0 Z " />
<glyph glyph-name="igrave" unicode="&#xec;" horiz-adv-x="168" d="M55 1444 C55 1452 48 1458 37 1458 L11 1458 C-8 1458 -17 1451 -17 1438 C-17 1433 -16 1428 -15 1425 L50 1228 C58 1207 66 1196 85 1196 L95 1196 C103 1196 109 1203 108 1211 L55 1444 Z M120 1120 C120 1131 119 1133 108 1133 L84 1133 C64 1133 48 1119 48 1100 L48 20 C48 7 54 0 67 0 L101 0 C114 0 120 7 120 20 L120 1120 Z " />
<glyph glyph-name="iacute" unicode="&#xed;" horiz-adv-x="168" d="M64 1207 C64 1202 70 1196 77 1196 L87 1196 C106 1196 115 1207 123 1228 L187 1425 C188 1428 189 1433 189 1438 C189 1450 179 1458 162 1458 L136 1458 C125 1458 118 1452 117 1444 L65 1211 L64 1207 Z M120 1120 C120 1131 119 1133 108 1133 L84 1133 C64 1133 48 1119 48 1100 L48 20 C48 7 54 0 67 0 L101 0 C114 0 120 7 120 20 L120 1120 Z " />
<glyph glyph-name="icircumflex" unicode="&#xee;" horiz-adv-x="168" d="M120 1449 C119 1455 115 1458 108 1458 L60 1458 C53 1458 49 1455 48 1449 L-15 1206 C-16 1205 -16 1204 -16 1203 C-16 1199 -11 1196 -6 1196 L19 1196 C36 1196 45 1205 48 1221 L84 1408 L120 1221 C123 1204 133 1196 148 1196 L174 1196 C179 1196 185 1199 184 1206 L120 1449 Z M120 1120 C120 1131 119 1133 108 1133 L84 1133 C64 1133 48 1119 48 1100 L48 20 C48 7 54 0 67 0 L101 0 C114 0 120 7 120 20 L120 1120 Z " />
<glyph glyph-name="idieresis" unicode="&#xef;" horiz-adv-x="168" d="M24 1285 C-3 1285 -16 1269 -16 1241 C-16 1212 -3 1198 24 1198 C51 1198 64 1212 64 1241 C64 1269 51 1285 24 1285 L24 1285 Z M145 1285 C120 1285 105 1268 105 1241 C105 1214 120 1198 145 1198 C172 1198 186 1214 186 1241 C186 1269 172 1285 145 1285 L145 1285 Z M120 1120 C120 1131 119 1133 108 1133 L84 1133 C64 1133 48 1119 48 1100 L48 20 C48 7 54 0 67 0 L101 0 C114 0 120 7 120 20 L120 1120 Z " />
<glyph glyph-name="eth" unicode="&#xf0;" horiz-adv-x="362" d="M187 0 C267 0 314 41 314 122 L314 1012 C314 1043 306 1069 290 1090 C266 1119 230 1133 181 1133 L61 1133 C50 1133 48 1131 48 1120 L48 604 L-7 604 C-15 604 -19 600 -19 593 L-19 574 C-19 555 -7 541 9 541 L48 541 L48 13 C48 2 50 0 61 0 L187 0 Z M120 541 L190 541 C202 541 211 551 211 566 L211 593 C211 600 207 604 200 604 L120 604 L120 1067 L181 1067 C222 1067 242 1049 242 1013 L242 120 C242 89 226 66 187 66 L120 66 L120 541 Z " />
<glyph glyph-name="ntilde" unicode="&#xf1;" horiz-adv-x="362" d="M231 1227 C242 1227 250 1226 255 1224 C262 1221 269 1217 277 1212 C280 1210 285 1209 291 1209 C304 1209 313 1214 313 1225 L313 1235 C313 1268 274 1287 226 1287 C208 1287 190 1282 173 1271 C156 1260 144 1255 127 1255 C110 1255 103 1259 94 1264 C93 1265 86 1273 69 1273 C56 1273 50 1268 50 1257 L50 1246 C50 1215 86 1195 134 1195 C153 1195 165 1200 184 1211 C204 1222 214 1227 231 1227 L231 1227 Z M314 1120 C314 1131 312 1133 301 1133 L277 1133 C256 1133 241 1119 241 1100 L249 330 L131 1047 C126 1077 120 1099 114 1112 C107 1126 98 1133 86 1133 L61 1133 C50 1133 48 1131 48 1120 L48 13 C48 4 52 0 61 0 L85 0 C106 0 121 13 120 34 L113 806 L232 80 L238 51 C239 43 241 35 245 26 C252 9 263 0 277 0 L301 0 C310 0 314 4 314 13 L314 1120 Z " />
<glyph glyph-name="ograve" unicode="&#xf2;" horiz-adv-x="367" d="M153 1442 C153 1450 146 1456 135 1456 L109 1456 C90 1456 81 1449 81 1436 C81 1431 82 1426 83 1423 L148 1226 C156 1205 164 1194 183 1194 L193 1194 C201 1194 207 1201 206 1209 L153 1442 Z M50 103 C50 73 60 47 79 26 C102 -1 137 -15 184 -15 C231 -15 266 -1 290 26 C308 47 317 73 317 103 L317 1031 C317 1062 307 1089 286 1112 C263 1137 228 1150 183 1150 C137 1150 103 1137 81 1112 C60 1089 50 1062 50 1031 L50 103 Z M122 1030 C122 1062 139 1084 183 1084 C227 1084 245 1062 245 1030 L245 104 C245 68 225 50 184 50 C140 50 122 72 122 104 L122 1030 Z " />
<glyph glyph-name="oacute" unicode="&#xf3;" horiz-adv-x="367" d="M160 1207 C160 1202 166 1196 173 1196 L183 1196 C202 1196 211 1207 219 1228 L283 1425 C284 1428 285 1433 285 1438 C285 1450 275 1458 258 1458 L232 1458 C221 1458 214 1452 213 1444 L161 1211 L160 1207 Z M50 103 C50 73 60 47 79 26 C102 -1 137 -15 184 -15 C231 -15 266 -1 290 26 C308 47 317 73 317 103 L317 1031 C317 1062 307 1089 286 1112 C263 1137 228 1150 183 1150 C137 1150 103 1137 81 1112 C60 1089 50 1062 50 1031 L50 103 Z M122 1030 C122 1062 139 1084 183 1084 C227 1084 245 1062 245 1030 L245 104 C245 68 225 50 184 50 C140 50 122 72 122 104 L122 1030 Z " />
<glyph glyph-name="ocircumflex" unicode="&#xf4;" horiz-adv-x="367" d="M219 1449 C218 1455 214 1458 207 1458 L159 1458 C152 1458 148 1455 147 1449 L84 1206 C83 1205 83 1204 83 1203 C83 1199 88 1196 93 1196 L118 1196 C135 1196 144 1205 147 1221 L183 1408 L219 1221 C222 1204 232 1196 247 1196 L273 1196 C278 1196 284 1199 283 1206 L219 1449 Z M50 103 C50 73 60 47 79 26 C102 -1 137 -15 184 -15 C231 -15 266 -1 290 26 C308 47 317 73 317 103 L317 1031 C317 1062 307 1089 286 1112 C263 1137 228 1150 183 1150 C137 1150 103 1137 81 1112 C60 1089 50 1062 50 1031 L50 103 Z M122 1030 C122 1062 139 1084 183 1084 C227 1084 245 1062 245 1030 L245 104 C245 68 225 50 184 50 C140 50 122 72 122 104 L122 1030 Z " />
<glyph glyph-name="otilde" unicode="&#xf5;" horiz-adv-x="367" d="M234 1230 C245 1230 253 1229 258 1227 C265 1224 272 1220 280 1215 C283 1213 288 1212 294 1212 C307 1212 316 1217 316 1228 L316 1238 C316 1271 277 1290 229 1290 C211 1290 193 1285 176 1274 C159 1263 147 1258 130 1258 C113 1258 106 1262 97 1267 C96 1268 89 1276 72 1276 C59 1276 53 1271 53 1260 L53 1249 C53 1218 89 1198 137 1198 C156 1198 168 1203 187 1214 C207 1225 217 1230 234 1230 L234 1230 Z M50 103 C50 73 60 47 79 26 C102 -1 137 -15 184 -15 C231 -15 266 -1 290 26 C308 47 317 73 317 103 L317 1031 C317 1062 307 1089 286 1112 C263 1137 228 1150 183 1150 C137 1150 103 1137 81 1112 C60 1089 50 1062 50 1031 L50 103 Z M122 1030 C122 1062 139 1084 183 1084 C227 1084 245 1062 245 1030 L245 104 C245 68 225 50 184 50 C140 50 122 72 122 104 L122 1030 Z " />
<glyph glyph-name="odieresis" unicode="&#xf6;" horiz-adv-x="367" d="M122 1285 C95 1285 82 1269 82 1241 C82 1212 95 1198 122 1198 C149 1198 162 1212 162 1241 C162 1269 149 1285 122 1285 L122 1285 Z M243 1285 C218 1285 203 1268 203 1241 C203 1214 218 1198 243 1198 C270 1198 284 1214 284 1241 C284 1269 270 1285 243 1285 L243 1285 Z M50 103 C50 73 60 47 79 26 C102 -1 137 -15 184 -15 C231 -15 266 -1 290 26 C308 47 317 73 317 103 L317 1031 C317 1062 307 1089 286 1112 C263 1137 228 1150 183 1150 C137 1150 103 1137 81 1112 C60 1089 50 1062 50 1031 L50 103 Z M122 1030 C122 1062 139 1084 183 1084 C227 1084 245 1062 245 1030 L245 104 C245 68 225 50 184 50 C140 50 122 72 122 104 L122 1030 Z " />
<glyph glyph-name="divide" unicode="&#xf7;" horiz-adv-x="455" d="M231 845 C196 845 178 827 178 799 C178 771 196 753 231 753 C266 753 284 771 284 799 C284 827 266 845 231 845 L231 845 Z M86 679 C62 679 50 667 50 644 L50 626 C50 617 55 612 64 612 L368 612 C391 612 405 631 405 651 L405 667 C405 678 402 679 391 679 L86 679 Z M228 537 C193 537 175 519 175 491 C175 463 193 445 228 445 C263 445 281 463 281 491 C281 519 263 537 228 537 L228 537 Z " />
<glyph glyph-name="oslash" unicode="&#xf8;" horiz-adv-x="367" d="M48 103 C48 77 54 55 67 37 L34 -126 L33 -130 C33 -137 37 -140 45 -140 L58 -140 C78 -140 93 -129 97 -110 L118 -4 C137 -11 158 -15 182 -15 C229 -15 264 -1 288 26 C306 47 315 73 315 103 L315 1032 C315 1054 310 1074 299 1093 L332 1260 L333 1265 C333 1271 329 1274 322 1274 L302 1274 C287 1274 277 1265 272 1248 L249 1137 C231 1146 209 1150 182 1150 C137 1150 102 1138 79 1113 C59 1092 48 1061 48 1032 L48 103 Z M120 1031 C120 1063 138 1085 182 1085 C223 1085 243 1067 243 1031 L243 104 C243 68 223 50 182 50 C138 50 120 72 120 104 L120 1031 Z " />
<glyph glyph-name="ugrave" unicode="&#xf9;" horiz-adv-x="362" d="M145 1444 C145 1452 138 1458 127 1458 L101 1458 C82 1458 73 1451 73 1438 C73 1433 74 1428 75 1425 L140 1228 C148 1207 156 1196 175 1196 L185 1196 C193 1196 199 1203 198 1211 L145 1444 Z M120 1102 C120 1121 105 1134 85 1134 L61 1134 C50 1134 48 1132 48 1121 L48 102 C48 70 59 43 81 21 C106 -4 139 -16 182 -16 C227 -16 262 -2 286 25 C305 46 314 72 314 102 L314 1121 C314 1132 312 1134 301 1134 L277 1134 C257 1134 242 1121 242 1102 L242 103 C242 70 225 50 181 50 C159 50 143 56 132 68 C124 77 120 88 120 103 L120 1102 Z " />
<glyph glyph-name="uacute" unicode="&#xfa;" horiz-adv-x="362" d="M152 1207 C152 1202 158 1196 165 1196 L175 1196 C194 1196 203 1207 211 1228 L275 1425 C276 1428 277 1433 277 1438 C277 1450 267 1458 250 1458 L224 1458 C213 1458 206 1452 205 1444 L153 1211 L152 1207 Z M120 1102 C120 1121 105 1134 85 1134 L61 1134 C50 1134 48 1132 48 1121 L48 102 C48 70 59 43 81 21 C106 -4 139 -16 182 -16 C227 -16 262 -2 286 25 C305 46 314 72 314 102 L314 1121 C314 1132 312 1134 301 1134 L277 1134 C257 1134 242 1121 242 1102 L242 103 C242 70 225 50 181 50 C159 50 143 56 132 68 C124 77 120 88 120 103 L120 1102 Z " />
<glyph glyph-name="ucircumflex" unicode="&#xfb;" horiz-adv-x="362" d="M217 1449 C216 1455 212 1458 205 1458 L157 1458 C150 1458 146 1455 145 1449 L82 1206 C81 1205 81 1204 81 1203 C81 1199 86 1196 91 1196 L116 1196 C133 1196 142 1205 145 1221 L181 1408 L217 1221 C220 1204 230 1196 245 1196 L271 1196 C276 1196 282 1199 281 1206 L217 1449 Z M120 1102 C120 1121 105 1134 85 1134 L61 1134 C50 1134 48 1132 48 1121 L48 102 C48 70 59 43 81 21 C106 -4 139 -16 182 -16 C227 -16 262 -2 286 25 C305 46 314 72 314 102 L314 1121 C314 1132 312 1134 301 1134 L277 1134 C257 1134 242 1121 242 1102 L242 103 C242 70 225 50 181 50 C159 50 143 56 132 68 C124 77 120 88 120 103 L120 1102 Z " />
<glyph glyph-name="udieresis" unicode="&#xfc;" horiz-adv-x="362" d="M120 1285 C93 1285 80 1269 80 1241 C80 1212 93 1198 120 1198 C147 1198 160 1212 160 1241 C160 1269 147 1285 120 1285 L120 1285 Z M241 1285 C216 1285 201 1268 201 1241 C201 1214 216 1198 241 1198 C268 1198 282 1214 282 1241 C282 1269 268 1285 241 1285 L241 1285 Z M120 1102 C120 1121 105 1134 85 1134 L61 1134 C50 1134 48 1132 48 1121 L48 102 C48 70 59 43 81 21 C106 -4 139 -16 182 -16 C227 -16 262 -2 286 25 C305 46 314 72 314 102 L314 1121 C314 1132 312 1134 301 1134 L277 1134 C257 1134 242 1121 242 1102 L242 103 C242 70 225 50 181 50 C159 50 143 56 132 68 C124 77 120 88 120 103 L120 1102 Z " />
<glyph glyph-name="yacute" unicode="&#xfd;" horiz-adv-x="307" d="M133 1207 C133 1202 139 1196 146 1196 L156 1196 C175 1196 184 1207 192 1228 L256 1425 C257 1428 258 1433 258 1438 C258 1450 248 1458 231 1458 L205 1458 C194 1458 187 1452 186 1444 L134 1211 L133 1207 Z M293 1120 L293 1123 C293 1130 289 1133 280 1133 L258 1133 C238 1133 219 1123 218 1108 L155 563 L92 1108 C89 1124 71 1133 51 1133 L29 1133 C18 1133 14 1129 16 1120 L118 399 L118 17 C118 6 125 0 138 0 L171 0 C184 0 190 6 190 17 L190 399 L293 1120 Z " />
<glyph glyph-name="thorn" unicode="&#xfe;" horiz-adv-x="337" d="M85 0 C105 0 120 13 120 32 L120 201 L181 201 C264 201 314 248 314 320 L314 810 C314 882 264 929 181 929 L120 929 L120 1096 C120 1121 108 1133 85 1133 L61 1133 C50 1133 48 1131 48 1120 L48 13 C48 2 50 0 61 0 L85 0 Z M181 863 C222 863 242 845 242 809 L242 321 C242 290 226 268 187 268 L120 268 L120 863 L181 863 Z " />
<glyph glyph-name="ydieresis" unicode="&#xff;" horiz-adv-x="307" d="M93 1285 C66 1285 53 1269 53 1241 C53 1212 66 1198 93 1198 C120 1198 133 1212 133 1241 C133 1269 120 1285 93 1285 L93 1285 Z M214 1285 C189 1285 174 1268 174 1241 C174 1214 189 1198 214 1198 C241 1198 255 1214 255 1241 C255 1269 241 1285 214 1285 L214 1285 Z M293 1120 L293 1123 C293 1130 289 1133 280 1133 L258 1133 C238 1133 219 1123 218 1108 L155 563 L92 1108 C89 1124 71 1133 51 1133 L29 1133 C18 1133 14 1129 16 1120 L118 399 L118 17 C118 6 125 0 138 0 L171 0 C184 0 190 6 190 17 L190 399 L293 1120 Z " />
<glyph glyph-name="Amacron" unicode="&#x100;" horiz-adv-x="345" d="M57 1463 C50 1463 46 1460 46 1453 L46 1438 C46 1418 57 1405 74 1405 L242 1405 C259 1405 271 1418 271 1438 L271 1453 C271 1460 267 1463 259 1463 L57 1463 Z M222 1325 C221 1342 213 1344 190 1344 L155 1344 C134 1344 123 1342 122 1325 L20 14 C20 2 21 0 32 0 L64 0 C83 0 93 10 94 30 L109 243 L235 243 L250 30 C251 10 262 0 281 0 L313 0 C324 0 324 2 324 14 L222 1325 Z M231 308 L113 308 L172 1176 L231 308 Z " />
<glyph glyph-name="amacron" unicode="&#x101;" horiz-adv-x="316" d="M57 1253 C50 1253 46 1250 46 1243 L46 1228 C46 1208 57 1195 74 1195 L242 1195 C259 1195 271 1208 271 1228 L271 1243 C271 1250 267 1253 259 1253 L57 1253 Z M208 1114 C206 1127 199 1133 187 1133 L128 1133 C115 1133 109 1127 108 1114 L15 14 L15 12 C15 4 19 0 28 0 L51 0 C71 0 87 11 90 30 L103 216 L211 216 L225 30 C226 11 244 0 264 0 L287 0 C298 0 299 2 299 14 L208 1114 Z M157 974 L207 278 L108 278 L157 968 L157 974 Z " />
<glyph glyph-name="Abreve" unicode="&#x102;" horiz-adv-x="345" d="M278 1640 C278 1648 274 1652 267 1652 L251 1652 C235 1652 227 1642 226 1622 C223 1558 217 1513 207 1488 C198 1464 186 1452 171 1452 C154 1452 141 1464 133 1488 C123 1517 118 1562 117 1623 C116 1643 104 1652 92 1652 L76 1652 C69 1652 66 1645 66 1640 C66 1556 73 1497 88 1462 C104 1423 130 1406 171 1406 C210 1406 237 1424 254 1461 C270 1498 278 1558 278 1640 L278 1640 Z M222 1325 C221 1342 213 1344 190 1344 L155 1344 C134 1344 123 1342 122 1325 L20 14 C20 2 21 0 32 0 L64 0 C83 0 93 10 94 30 L109 243 L235 243 L250 30 C251 10 262 0 281 0 L313 0 C324 0 324 2 324 14 L222 1325 Z M231 308 L113 308 L172 1176 L231 308 Z " />
<glyph glyph-name="abreve" unicode="&#x103;" horiz-adv-x="316" d="M264 1430 C264 1438 260 1442 253 1442 L237 1442 C221 1442 213 1432 212 1412 C209 1348 203 1303 193 1278 C184 1254 172 1242 157 1242 C140 1242 127 1254 119 1278 C109 1307 104 1352 103 1413 C102 1433 90 1442 78 1442 L62 1442 C55 1442 52 1435 52 1430 C52 1346 59 1287 74 1252 C90 1213 116 1196 157 1196 C196 1196 223 1214 240 1251 C256 1288 264 1348 264 1430 L264 1430 Z M208 1114 C206 1127 199 1133 187 1133 L128 1133 C115 1133 109 1127 108 1114 L15 14 L15 12 C15 4 19 0 28 0 L51 0 C71 0 87 11 90 30 L103 216 L211 216 L225 30 C226 11 244 0 264 0 L287 0 C298 0 299 2 299 14 L208 1114 Z M157 974 L207 278 L108 278 L157 968 L157 974 Z " />
<glyph glyph-name="Aogonek" unicode="&#x104;" horiz-adv-x="345" d="M222 1325 C221 1342 213 1344 190 1344 L155 1344 C134 1344 123 1342 122 1325 L20 14 C20 2 21 0 32 0 L64 0 C83 0 93 10 94 30 L109 243 L235 243 L250 30 L251 22 C222 20 201 14 186 5 C162 -10 150 -36 150 -71 L150 -103 C150 -180 198 -223 279 -223 C294 -223 310 -212 310 -191 L310 -177 C311 -167 306 -162 295 -162 C242 -162 215 -138 215 -102 L215 -69 C215 -23 238 0 283 0 L313 0 C324 0 324 2 324 14 L222 1325 Z M113 308 L172 1176 L231 308 L113 308 Z " />
<glyph glyph-name="aogonek" unicode="&#x105;" horiz-adv-x="316" d="M294 -162 C241 -162 214 -138 214 -102 L214 -69 C214 -23 237 0 282 0 L287 0 C298 0 299 2 299 14 L208 1114 C206 1127 199 1133 187 1133 L128 1133 C115 1133 109 1127 108 1114 L15 14 C14 5 18 0 28 0 L51 0 C71 0 87 11 90 30 L103 216 L211 216 L225 30 C225 27 226 23 228 20 C209 17 194 12 185 5 C161 -10 149 -36 149 -71 L149 -103 C149 -180 197 -223 278 -223 C293 -223 309 -212 309 -191 L309 -177 C310 -167 305 -162 294 -162 L294 -162 Z M108 278 L157 968 L157 974 L207 278 L108 278 Z " />
<glyph glyph-name="Cacute" unicode="&#x106;" horiz-adv-x="367" d="M157 1417 C157 1412 163 1406 170 1406 L180 1406 C199 1406 208 1417 216 1438 L280 1635 C281 1638 282 1643 282 1648 C282 1660 272 1668 255 1668 L229 1668 C218 1668 211 1662 210 1654 L158 1421 L157 1417 Z M185 1361 C102 1361 51 1314 51 1243 L51 102 C51 31 102 -16 185 -16 C268 -16 318 31 318 102 L318 577 C318 582 314 585 305 585 L280 585 C264 585 246 577 246 557 L246 103 C246 88 242 77 234 68 C223 56 207 50 185 50 C141 50 123 72 123 103 L123 1241 C123 1273 143 1295 184 1295 C227 1295 246 1273 246 1241 L246 786 C246 766 265 757 281 757 L305 757 C314 757 318 760 318 767 L318 1243 C318 1314 268 1361 185 1361 L185 1361 Z " />
<glyph glyph-name="cacute" unicode="&#x107;" horiz-adv-x="367" d="M151 1207 C151 1202 157 1196 164 1196 L174 1196 C193 1196 202 1207 210 1228 L274 1425 C275 1428 276 1433 276 1438 C276 1450 266 1458 249 1458 L223 1458 C212 1458 205 1452 204 1444 L152 1211 L151 1207 Z M184 1151 C101 1151 50 1104 50 1032 L50 102 C50 31 101 -16 184 -16 C267 -16 317 31 317 102 L317 483 C317 488 313 491 304 491 L279 491 C263 491 245 484 245 463 L245 103 C245 88 241 77 233 68 C222 56 206 50 184 50 C140 50 122 72 122 103 L122 1031 C122 1062 142 1084 183 1084 C226 1084 245 1062 245 1031 L245 660 C245 640 263 632 280 632 L304 632 C313 632 317 635 317 641 L317 1032 C317 1103 267 1151 184 1151 L184 1151 Z " />
<glyph glyph-name="Ccircumflex" unicode="&#x108;" horiz-adv-x="367" d="M219 1659 C218 1665 214 1668 207 1668 L159 1668 C152 1668 148 1665 147 1659 L84 1416 C83 1415 83 1414 83 1413 C83 1409 88 1406 93 1406 L118 1406 C135 1406 144 1415 147 1431 L183 1618 L219 1431 C222 1414 232 1406 247 1406 L273 1406 C278 1406 284 1409 283 1416 L219 1659 Z M185 1361 C102 1361 51 1314 51 1243 L51 102 C51 31 102 -16 185 -16 C268 -16 318 31 318 102 L318 577 C318 582 314 585 305 585 L280 585 C264 585 246 577 246 557 L246 103 C246 88 242 77 234 68 C223 56 207 50 185 50 C141 50 123 72 123 103 L123 1241 C123 1273 143 1295 184 1295 C227 1295 246 1273 246 1241 L246 786 C246 766 265 757 281 757 L305 757 C314 757 318 760 318 767 L318 1243 C318 1314 268 1361 185 1361 L185 1361 Z " />
<glyph glyph-name="ccircumflex" unicode="&#x109;" horiz-adv-x="367" d="M219 1449 C218 1455 214 1458 207 1458 L159 1458 C152 1458 148 1455 147 1449 L84 1206 C83 1205 83 1204 83 1203 C83 1199 88 1196 93 1196 L118 1196 C135 1196 144 1205 147 1221 L183 1408 L219 1221 C222 1204 232 1196 247 1196 L273 1196 C278 1196 284 1199 283 1206 L219 1449 Z M184 1151 C101 1151 50 1104 50 1032 L50 102 C50 31 101 -16 184 -16 C267 -16 317 31 317 102 L317 483 C317 488 313 491 304 491 L279 491 C263 491 245 484 245 463 L245 103 C245 88 241 77 233 68 C222 56 206 50 184 50 C140 50 122 72 122 103 L122 1031 C122 1062 142 1084 183 1084 C226 1084 245 1062 245 1031 L245 660 C245 640 263 632 280 632 L304 632 C313 632 317 635 317 641 L317 1032 C317 1103 267 1151 184 1151 L184 1151 Z " />
<glyph glyph-name="Cdotaccent" unicode="&#x10a;" horiz-adv-x="367" d="M183 1505 C148 1505 130 1487 130 1459 C130 1431 148 1413 183 1413 C218 1413 236 1431 236 1459 C236 1487 218 1505 183 1505 L183 1505 Z M185 1361 C102 1361 51 1314 51 1243 L51 102 C51 31 102 -16 185 -16 C268 -16 318 31 318 102 L318 577 C318 582 314 585 305 585 L280 585 C264 585 246 577 246 557 L246 103 C246 88 242 77 234 68 C223 56 207 50 185 50 C141 50 123 72 123 103 L123 1241 C123 1273 143 1295 184 1295 C227 1295 246 1273 246 1241 L246 786 C246 766 265 757 281 757 L305 757 C314 757 318 760 318 767 L318 1243 C318 1314 268 1361 185 1361 L185 1361 Z " />
<glyph glyph-name="cdotaccent" unicode="&#x10b;" horiz-adv-x="367" d="M183 1295 C148 1295 130 1277 130 1249 C130 1221 148 1203 183 1203 C218 1203 236 1221 236 1249 C236 1277 218 1295 183 1295 L183 1295 Z M184 1151 C101 1151 50 1104 50 1032 L50 102 C50 31 101 -16 184 -16 C267 -16 317 31 317 102 L317 483 C317 488 313 491 304 491 L279 491 C263 491 245 484 245 463 L245 103 C245 88 241 77 233 68 C222 56 206 50 184 50 C140 50 122 72 122 103 L122 1031 C122 1062 142 1084 183 1084 C226 1084 245 1062 245 1031 L245 660 C245 640 263 632 280 632 L304 632 C313 632 317 635 317 641 L317 1032 C317 1103 267 1151 184 1151 L184 1151 Z " />
<glyph glyph-name="Ccaron" unicode="&#x10c;" horiz-adv-x="367" d="M283 1660 C283 1665 278 1668 273 1668 L247 1668 C230 1668 221 1660 219 1643 L183 1456 L147 1643 C145 1660 135 1668 118 1668 L93 1668 C88 1668 81 1663 84 1659 L147 1416 C148 1409 152 1406 159 1406 L207 1406 C214 1406 218 1409 219 1416 L283 1659 L283 1660 Z M185 1361 C102 1361 51 1314 51 1243 L51 102 C51 31 102 -16 185 -16 C268 -16 318 31 318 102 L318 577 C318 582 314 585 305 585 L280 585 C264 585 246 577 246 557 L246 103 C246 88 242 77 234 68 C223 56 207 50 185 50 C141 50 123 72 123 103 L123 1241 C123 1273 143 1295 184 1295 C227 1295 246 1273 246 1241 L246 786 C246 766 265 757 281 757 L305 757 C314 757 318 760 318 767 L318 1243 C318 1314 268 1361 185 1361 L185 1361 Z " />
<glyph glyph-name="ccaron" unicode="&#x10d;" horiz-adv-x="367" d="M283 1450 C283 1455 278 1458 273 1458 L247 1458 C230 1458 221 1450 219 1433 L183 1246 L147 1433 C145 1450 135 1458 118 1458 L93 1458 C88 1458 81 1453 84 1449 L147 1206 C148 1199 152 1196 159 1196 L207 1196 C214 1196 218 1199 219 1206 L283 1449 L283 1450 Z M184 1151 C101 1151 50 1104 50 1032 L50 102 C50 31 101 -16 184 -16 C267 -16 317 31 317 102 L317 483 C317 488 313 491 304 491 L279 491 C263 491 245 484 245 463 L245 103 C245 88 241 77 233 68 C222 56 206 50 184 50 C140 50 122 72 122 103 L122 1031 C122 1062 142 1084 183 1084 C226 1084 245 1062 245 1031 L245 660 C245 640 263 632 280 632 L304 632 C313 632 317 635 317 641 L317 1032 C317 1103 267 1151 184 1151 L184 1151 Z " />
<glyph glyph-name="Dcaron" unicode="&#x10e;" horiz-adv-x="366" d="M281 1660 C281 1665 276 1668 271 1668 L245 1668 C228 1668 219 1660 217 1643 L181 1456 L145 1643 C143 1660 133 1668 116 1668 L91 1668 C86 1668 79 1663 82 1659 L145 1416 C146 1409 150 1406 157 1406 L205 1406 C212 1406 216 1409 217 1416 L281 1659 L281 1660 Z M183 0 C270 0 316 36 316 121 L316 1224 C316 1259 307 1287 289 1307 C266 1332 231 1344 183 1344 L63 1344 C52 1344 50 1342 50 1331 L50 13 C50 1 54 0 70 0 L183 0 Z M122 1278 L183 1278 C224 1278 244 1260 244 1224 L244 120 C244 89 228 66 189 66 L122 66 L122 1278 Z " />
<glyph glyph-name="dcaron" unicode="&#x10f;" horiz-adv-x="404" d="M324 1074 C324 1067 330 1062 337 1062 L353 1062 C372 1062 379 1072 382 1093 L400 1313 L401 1321 C401 1338 391 1346 372 1346 L338 1346 C328 1346 323 1341 323 1332 L324 1076 L324 1074 Z M187 0 C267 0 314 41 314 122 L314 1012 C314 1043 306 1069 290 1090 C266 1119 230 1133 181 1133 L61 1133 C50 1133 48 1131 48 1120 L48 13 C48 2 50 0 61 0 L187 0 Z M120 1067 L181 1067 C222 1067 242 1049 242 1013 L242 120 C242 89 226 66 187 66 L120 66 L120 1067 Z " />
<glyph glyph-name="Dcroat" unicode="&#x110;" horiz-adv-x="366" d="M183 0 C270 0 316 36 316 121 L316 1224 C316 1259 307 1287 289 1307 C266 1332 231 1344 183 1344 L63 1344 C52 1344 50 1342 50 1331 L50 678 L-7 678 C-15 678 -19 674 -19 667 L-19 648 C-19 629 -7 615 9 615 L50 615 L50 13 C50 1 54 0 70 0 L183 0 Z M122 615 L190 615 C202 615 211 625 211 640 L211 667 C211 674 207 678 200 678 L122 678 L122 1278 L183 1278 C224 1278 244 1260 244 1224 L244 120 C244 89 228 66 189 66 L122 66 L122 615 Z " />
<glyph glyph-name="dslash" unicode="&#x111;" horiz-adv-x="362" d="M187 0 C267 0 314 41 314 122 L314 1012 C314 1043 306 1069 290 1090 C266 1119 230 1133 181 1133 L61 1133 C50 1133 48 1131 48 1120 L48 604 L-7 604 C-15 604 -19 600 -19 593 L-19 574 C-19 555 -7 541 9 541 L48 541 L48 13 C48 2 50 0 61 0 L187 0 Z M120 541 L190 541 C202 541 211 551 211 566 L211 593 C211 600 207 604 200 604 L120 604 L120 1067 L181 1067 C222 1067 242 1049 242 1013 L242 120 C242 89 226 66 187 66 L120 66 L120 541 Z " />
<glyph glyph-name="Emacron" unicode="&#x112;" horiz-adv-x="306" d="M52 1463 C45 1463 41 1460 41 1453 L41 1438 C41 1418 52 1405 69 1405 L237 1405 C254 1405 266 1418 266 1438 L266 1453 C266 1460 262 1463 254 1463 L52 1463 Z M63 1344 C52 1344 50 1342 50 1331 L50 14 C50 2 52 0 72 0 L259 0 C266 0 270 6 270 17 L270 28 C270 53 258 66 233 66 L122 66 L122 632 L224 632 C249 632 261 645 261 671 L261 683 C261 693 257 698 250 698 L122 698 L122 1278 L233 1278 C258 1278 270 1291 270 1316 L270 1327 C270 1338 266 1344 259 1344 L63 1344 Z " />
<glyph glyph-name="emacron" unicode="&#x113;" horiz-adv-x="289" d="M52 1253 C45 1253 41 1250 41 1243 L41 1228 C41 1208 52 1195 69 1195 L237 1195 C254 1195 266 1208 266 1228 L266 1243 C266 1250 262 1253 254 1253 L52 1253 Z M257 0 C264 0 268 6 268 17 L268 28 C268 53 256 66 231 66 L120 66 L120 526 L192 526 C213 526 228 528 237 531 C252 536 259 547 259 564 L259 575 C259 586 255 592 248 592 L120 592 L120 1067 L231 1067 C256 1067 268 1080 268 1105 L268 1116 C268 1127 264 1133 257 1133 L75 1133 L63 1133 C50 1133 48 1132 48 1120 L48 15 C48 2 49 0 69 0 L257 0 Z " />
<glyph glyph-name="Ebreve" unicode="&#x114;" horiz-adv-x="306" d="M267 1640 C267 1648 263 1652 256 1652 L240 1652 C224 1652 216 1642 215 1622 C212 1558 206 1513 196 1488 C187 1464 175 1452 160 1452 C143 1452 130 1464 122 1488 C112 1517 107 1562 106 1623 C105 1643 93 1652 81 1652 L65 1652 C58 1652 55 1645 55 1640 C55 1556 62 1497 77 1462 C93 1423 119 1406 160 1406 C199 1406 226 1424 243 1461 C259 1498 267 1558 267 1640 L267 1640 Z M63 1344 C52 1344 50 1342 50 1331 L50 14 C50 2 52 0 72 0 L259 0 C266 0 270 6 270 17 L270 28 C270 53 258 66 233 66 L122 66 L122 632 L224 632 C249 632 261 645 261 671 L261 683 C261 693 257 698 250 698 L122 698 L122 1278 L233 1278 C258 1278 270 1291 270 1316 L270 1327 C270 1338 266 1344 259 1344 L63 1344 Z " />
<glyph glyph-name="ebreve" unicode="&#x115;" horiz-adv-x="289" d="M262 1430 C262 1438 258 1442 251 1442 L235 1442 C219 1442 211 1432 210 1412 C207 1348 201 1303 191 1278 C182 1254 170 1242 155 1242 C138 1242 125 1254 117 1278 C107 1307 102 1352 101 1413 C100 1433 88 1442 76 1442 L60 1442 C53 1442 50 1435 50 1430 C50 1346 57 1287 72 1252 C88 1213 114 1196 155 1196 C194 1196 221 1214 238 1251 C254 1288 262 1348 262 1430 L262 1430 Z M257 0 C264 0 268 6 268 17 L268 28 C268 53 256 66 231 66 L120 66 L120 526 L192 526 C213 526 228 528 237 531 C252 536 259 547 259 564 L259 575 C259 586 255 592 248 592 L120 592 L120 1067 L231 1067 C256 1067 268 1080 268 1105 L268 1116 C268 1127 264 1133 257 1133 L75 1133 L63 1133 C50 1133 48 1132 48 1120 L48 15 C48 2 49 0 69 0 L257 0 Z " />
<glyph glyph-name="Edotaccent" unicode="&#x116;" horiz-adv-x="306" d="M153 1505 C118 1505 100 1487 100 1459 C100 1431 118 1413 153 1413 C188 1413 206 1431 206 1459 C206 1487 188 1505 153 1505 L153 1505 Z M63 1344 C52 1344 50 1342 50 1331 L50 14 C50 2 52 0 72 0 L259 0 C266 0 270 6 270 17 L270 28 C270 53 258 66 233 66 L122 66 L122 632 L224 632 C249 632 261 645 261 671 L261 683 C261 693 257 698 250 698 L122 698 L122 1278 L233 1278 C258 1278 270 1291 270 1316 L270 1327 C270 1338 266 1344 259 1344 L63 1344 Z " />
<glyph glyph-name="edotaccent" unicode="&#x117;" horiz-adv-x="289" d="M144 1295 C109 1295 91 1277 91 1249 C91 1221 109 1203 144 1203 C179 1203 197 1221 197 1249 C197 1277 179 1295 144 1295 L144 1295 Z M257 0 C264 0 268 6 268 17 L268 28 C268 53 256 66 231 66 L120 66 L120 526 L192 526 C213 526 228 528 237 531 C252 536 259 547 259 564 L259 575 C259 586 255 592 248 592 L120 592 L120 1067 L231 1067 C256 1067 268 1080 268 1105 L268 1116 C268 1127 264 1133 257 1133 L75 1133 L63 1133 C50 1133 48 1132 48 1120 L48 15 C48 2 49 0 69 0 L257 0 Z " />
<glyph glyph-name="Eogonek" unicode="&#x118;" horiz-adv-x="306" d="M255 -162 C202 -162 175 -138 175 -102 L175 -69 C175 -23 198 0 243 0 L259 0 C266 0 270 6 270 17 L270 28 C270 53 258 66 233 66 L122 66 L122 632 L224 632 C249 632 261 645 261 671 L261 683 C261 693 257 698 250 698 L122 698 L122 1278 L233 1278 C258 1278 270 1291 270 1316 L270 1327 C270 1338 266 1344 259 1344 L63 1344 C52 1344 50 1342 50 1331 L50 14 C50 2 52 0 72 0 L139 0 C120 -15 110 -39 110 -71 L110 -103 C110 -180 158 -223 239 -223 C254 -223 270 -212 270 -191 L270 -177 C271 -167 266 -162 255 -162 L255 -162 Z " />
<glyph glyph-name="eogonek" unicode="&#x119;" horiz-adv-x="289" d="M261 -162 C208 -162 181 -138 181 -102 L181 -69 C181 -23 204 0 249 0 L257 0 C264 0 268 6 268 17 L268 28 C268 53 256 66 231 66 L120 66 L120 526 L192 526 C213 526 228 528 237 531 C252 536 259 547 259 564 L259 575 C259 586 255 592 248 592 L120 592 L120 1067 L231 1067 C256 1067 268 1080 268 1105 L268 1116 C268 1127 264 1133 257 1133 L75 1133 C63 1133 48 1137 48 1120 L48 15 C48 2 49 0 69 0 L145 0 C126 -15 116 -39 116 -71 L116 -103 C116 -180 164 -223 245 -223 C260 -223 276 -212 276 -191 L276 -177 C277 -167 272 -162 261 -162 L261 -162 Z " />
<glyph glyph-name="Ecaron" unicode="&#x11a;" horiz-adv-x="306" d="M253 1660 C253 1665 248 1668 243 1668 L217 1668 C200 1668 191 1660 189 1643 L153 1456 L117 1643 C115 1660 105 1668 88 1668 L63 1668 C58 1668 51 1663 54 1659 L117 1416 C118 1409 122 1406 129 1406 L177 1406 C184 1406 188 1409 189 1416 L253 1659 L253 1660 Z M63 1344 C52 1344 50 1342 50 1331 L50 14 C50 2 52 0 72 0 L259 0 C266 0 270 6 270 17 L270 28 C270 53 258 66 233 66 L122 66 L122 632 L224 632 C249 632 261 645 261 671 L261 683 C261 693 257 698 250 698 L122 698 L122 1278 L233 1278 C258 1278 270 1291 270 1316 L270 1327 C270 1338 266 1344 259 1344 L63 1344 Z " />
<glyph glyph-name="ecaron" unicode="&#x11b;" horiz-adv-x="289" d="M252 1450 C252 1455 247 1458 242 1458 L216 1458 C199 1458 190 1450 188 1433 L152 1246 L116 1433 C114 1450 104 1458 87 1458 L62 1458 C57 1458 50 1453 53 1449 L116 1206 C117 1199 121 1196 128 1196 L176 1196 C183 1196 187 1199 188 1206 L252 1449 L252 1450 Z M257 0 C264 0 268 6 268 17 L268 28 C268 53 256 66 231 66 L120 66 L120 526 L192 526 C213 526 228 528 237 531 C252 536 259 547 259 564 L259 575 C259 586 255 592 248 592 L120 592 L120 1067 L231 1067 C256 1067 268 1080 268 1105 L268 1116 C268 1127 264 1133 257 1133 L75 1133 L63 1133 C50 1133 48 1132 48 1120 L48 15 C48 2 49 0 69 0 L257 0 Z " />
<glyph glyph-name="Gcircumflex" unicode="&#x11c;" horiz-adv-x="362" d="M217 1659 C216 1665 212 1668 205 1668 L157 1668 C150 1668 146 1665 145 1659 L82 1416 C81 1415 81 1414 81 1413 C81 1409 86 1406 91 1406 L116 1406 C133 1406 142 1415 145 1431 L181 1618 L217 1431 C220 1414 230 1406 245 1406 L271 1406 C276 1406 282 1409 281 1416 L217 1659 Z M181 1361 C98 1361 47 1314 47 1243 L47 102 C47 31 98 -16 181 -16 C264 -16 314 31 314 102 L314 616 C314 623 310 627 303 627 L195 627 C184 627 183 623 183 611 L183 594 C183 569 195 556 218 556 L242 556 L242 103 C242 88 238 77 230 68 C219 56 203 50 181 50 C137 50 119 72 119 103 L119 1241 C119 1273 138 1295 181 1295 C222 1295 242 1273 242 1241 L242 786 C242 766 261 757 277 757 L301 757 C310 757 314 760 314 767 L314 1243 C314 1314 264 1361 181 1361 L181 1361 Z " />
<glyph glyph-name="gcircumflex" unicode="&#x11d;" horiz-adv-x="367" d="M219 1449 C218 1455 214 1458 207 1458 L159 1458 C152 1458 148 1455 147 1449 L84 1206 C83 1205 83 1204 83 1203 C83 1199 88 1196 93 1196 L118 1196 C135 1196 144 1205 147 1221 L183 1408 L219 1221 C222 1204 232 1196 247 1196 L273 1196 C278 1196 284 1199 283 1206 L219 1449 Z M181 1150 C98 1150 47 1102 47 1031 L47 102 C47 31 98 -16 181 -16 C264 -16 314 31 314 102 L314 545 C314 552 310 556 303 556 L195 556 C184 556 183 552 183 540 L183 523 C183 498 195 485 218 485 L242 485 L242 103 C242 88 238 77 230 68 C219 56 203 50 181 50 C137 50 119 72 119 103 L119 1029 C119 1061 138 1083 181 1083 C222 1083 242 1061 242 1029 L242 693 C242 673 261 664 277 664 L301 664 C310 664 314 667 314 673 L314 1031 C314 1102 264 1149 181 1150 L181 1150 Z " />
<glyph glyph-name="Gbreve" unicode="&#x11e;" horiz-adv-x="362" d="M287 1640 C287 1648 283 1652 276 1652 L260 1652 C244 1652 236 1642 235 1622 C232 1558 226 1513 216 1488 C207 1464 195 1452 180 1452 C163 1452 150 1464 142 1488 C132 1517 127 1562 126 1623 C125 1643 113 1652 101 1652 L85 1652 C78 1652 75 1645 75 1640 C75 1556 82 1497 97 1462 C113 1423 139 1406 180 1406 C219 1406 246 1424 263 1461 C279 1498 287 1558 287 1640 L287 1640 Z M181 1361 C98 1361 47 1314 47 1243 L47 102 C47 31 98 -16 181 -16 C264 -16 314 31 314 102 L314 616 C314 623 310 627 303 627 L195 627 C184 627 183 623 183 611 L183 594 C183 569 195 556 218 556 L242 556 L242 103 C242 88 238 77 230 68 C219 56 203 50 181 50 C137 50 119 72 119 103 L119 1241 C119 1273 138 1295 181 1295 C222 1295 242 1273 242 1241 L242 786 C242 766 261 757 277 757 L301 757 C310 757 314 760 314 767 L314 1243 C314 1314 264 1361 181 1361 L181 1361 Z " />
<glyph glyph-name="gbreve" unicode="&#x11f;" horiz-adv-x="367" d="M289 1430 C289 1438 285 1442 278 1442 L262 1442 C246 1442 238 1432 237 1412 C234 1348 228 1303 218 1278 C209 1254 197 1242 182 1242 C165 1242 152 1254 144 1278 C134 1307 129 1352 128 1413 C127 1433 115 1442 103 1442 L87 1442 C80 1442 77 1435 77 1430 C77 1346 84 1287 99 1252 C115 1213 141 1196 182 1196 C221 1196 248 1214 265 1251 C281 1288 289 1348 289 1430 L289 1430 Z M181 1150 C98 1150 47 1102 47 1031 L47 102 C47 31 98 -16 181 -16 C264 -16 314 31 314 102 L314 545 C314 552 310 556 303 556 L195 556 C184 556 183 552 183 540 L183 523 C183 498 195 485 218 485 L242 485 L242 103 C242 88 238 77 230 68 C219 56 203 50 181 50 C137 50 119 72 119 103 L119 1029 C119 1061 138 1083 181 1083 C222 1083 242 1061 242 1029 L242 693 C242 673 261 664 277 664 L301 664 C310 664 314 667 314 673 L314 1031 C314 1102 264 1149 181 1150 L181 1150 Z " />
<glyph glyph-name="Gdotaccent" unicode="&#x120;" horiz-adv-x="362" d="M180 1505 C145 1505 127 1487 127 1459 C127 1431 145 1413 180 1413 C215 1413 233 1431 233 1459 C233 1487 215 1505 180 1505 L180 1505 Z M181 1361 C98 1361 47 1314 47 1243 L47 102 C47 31 98 -16 181 -16 C264 -16 314 31 314 102 L314 616 C314 623 310 627 303 627 L195 627 C184 627 183 623 183 611 L183 594 C183 569 195 556 218 556 L242 556 L242 103 C242 88 238 77 230 68 C219 56 203 50 181 50 C137 50 119 72 119 103 L119 1241 C119 1273 138 1295 181 1295 C222 1295 242 1273 242 1241 L242 786 C242 766 261 757 277 757 L301 757 C310 757 314 760 314 767 L314 1243 C314 1314 264 1361 181 1361 L181 1361 Z " />
<glyph glyph-name="gdotaccent" unicode="&#x121;" horiz-adv-x="367" d="M183 1295 C148 1295 130 1277 130 1249 C130 1221 148 1203 183 1203 C218 1203 236 1221 236 1249 C236 1277 218 1295 183 1295 L183 1295 Z M181 1150 C98 1150 47 1102 47 1031 L47 102 C47 31 98 -16 181 -16 C264 -16 314 31 314 102 L314 545 C314 552 310 556 303 556 L195 556 C184 556 183 552 183 540 L183 523 C183 498 195 485 218 485 L242 485 L242 103 C242 88 238 77 230 68 C219 56 203 50 181 50 C137 50 119 72 119 103 L119 1029 C119 1061 138 1083 181 1083 C222 1083 242 1061 242 1029 L242 693 C242 673 261 664 277 664 L301 664 C310 664 314 667 314 673 L314 1031 C314 1102 264 1149 181 1150 L181 1150 Z " />
<glyph glyph-name="Gcommaaccent" unicode="&#x122;" horiz-adv-x="362" d="M179 1414 C179 1409 182 1406 187 1406 C198 1406 208 1416 217 1436 C226 1457 231 1480 231 1503 C231 1532 211 1558 179 1558 C147 1558 129 1541 129 1514 C129 1486 146 1471 179 1470 L179 1414 Z M181 1361 C98 1361 47 1314 47 1243 L47 102 C47 31 98 -16 181 -16 C264 -16 314 31 314 102 L314 616 C314 623 310 627 303 627 L195 627 C184 627 183 623 183 611 L183 594 C183 569 195 556 218 556 L242 556 L242 103 C242 88 238 77 230 68 C219 56 203 50 181 50 C137 50 119 72 119 103 L119 1241 C119 1273 138 1295 181 1295 C222 1295 242 1273 242 1241 L242 786 C242 766 261 757 277 757 L301 757 C310 757 314 760 314 767 L314 1243 C314 1314 264 1361 181 1361 L181 1361 Z " />
<glyph glyph-name="gcommaaccent" unicode="&#x123;" horiz-adv-x="367" d="M177 1196 C177 1191 180 1188 185 1188 C196 1188 206 1198 215 1218 C224 1239 229 1262 229 1285 C229 1314 209 1340 177 1340 C145 1340 127 1323 127 1296 C127 1268 144 1253 177 1252 L177 1196 Z M181 1150 C98 1150 47 1102 47 1031 L47 102 C47 31 98 -16 181 -16 C264 -16 314 31 314 102 L314 545 C314 552 310 556 303 556 L195 556 C184 556 183 552 183 540 L183 523 C183 498 195 485 218 485 L242 485 L242 103 C242 88 238 77 230 68 C219 56 203 50 181 50 C137 50 119 72 119 103 L119 1029 C119 1061 138 1083 181 1083 C222 1083 242 1061 242 1029 L242 693 C242 673 261 664 277 664 L301 664 C310 664 314 667 314 673 L314 1031 C314 1102 264 1149 181 1150 L181 1150 Z " />
<glyph glyph-name="Hcircumflex" unicode="&#x124;" horiz-adv-x="362" d="M216 1659 C215 1665 211 1668 204 1668 L156 1668 C149 1668 145 1665 144 1659 L81 1416 C80 1415 80 1414 80 1413 C80 1409 85 1406 90 1406 L115 1406 C132 1406 141 1415 144 1431 L180 1618 L216 1431 C219 1414 229 1406 244 1406 L270 1406 C275 1406 281 1409 280 1416 L216 1659 Z M314 1331 C314 1342 312 1344 301 1344 L277 1344 C256 1344 241 1331 241 1311 L241 715 L120 715 L120 1311 C120 1331 106 1344 86 1344 L61 1344 C50 1344 48 1342 48 1331 L48 13 C48 4 52 0 61 0 L85 0 C106 0 120 11 120 34 L120 651 L241 651 L241 34 C241 11 256 0 277 0 L301 0 C310 0 314 4 314 13 L314 1331 Z " />
<glyph glyph-name="hcircumflex" unicode="&#x125;" horiz-adv-x="362" d="M216 1449 C215 1455 211 1458 204 1458 L156 1458 C149 1458 145 1455 144 1449 L81 1206 C80 1205 80 1204 80 1203 C80 1199 85 1196 90 1196 L115 1196 C132 1196 141 1205 144 1221 L180 1408 L216 1221 C219 1204 229 1196 244 1196 L270 1196 C275 1196 281 1199 280 1206 L216 1449 Z M314 1120 C314 1131 312 1133 301 1133 L277 1133 C257 1133 241 1120 241 1101 L241 600 L120 600 L120 1096 C120 1121 108 1133 85 1133 L61 1133 C50 1133 48 1131 48 1120 L48 13 C48 2 50 0 61 0 L85 0 C105 0 120 13 120 32 L120 537 L241 537 L241 32 C241 13 256 0 276 0 L301 0 C312 0 314 2 314 13 L314 1120 Z " />
<glyph glyph-name="Hbar" unicode="&#x126;" horiz-adv-x="362" d="M314 1331 C314 1342 312 1344 301 1344 L277 1344 C256 1344 241 1331 241 1311 L241 968 L120 968 L120 1311 C120 1331 106 1344 86 1344 L61 1344 C50 1344 48 1342 48 1331 L48 13 C48 4 52 0 61 0 L85 0 C106 0 120 11 120 34 L120 651 L241 651 L241 34 C241 11 256 0 277 0 L301 0 C310 0 314 4 314 13 L314 1331 Z M120 909 L241 909 L241 715 L120 715 L120 909 Z " />
<glyph glyph-name="hbar" unicode="&#x127;" horiz-adv-x="362" d="M314 1120 C314 1131 312 1133 301 1133 L277 1133 C257 1133 241 1120 241 1101 L241 785 L120 785 L120 1096 C120 1121 108 1133 85 1133 L61 1133 C50 1133 48 1131 48 1120 L48 13 C48 2 50 0 61 0 L85 0 C105 0 120 13 120 32 L120 537 L241 537 L241 32 C241 13 256 0 276 0 L301 0 C312 0 314 2 314 13 L314 1120 Z M120 727 L241 727 L241 600 L120 600 L120 727 Z " />
<glyph glyph-name="Itilde" unicode="&#x128;" horiz-adv-x="172" d="M137 1437 C148 1437 156 1436 161 1434 C168 1431 175 1427 183 1422 C186 1420 191 1419 197 1419 C210 1419 219 1424 219 1435 L219 1445 C219 1478 180 1497 132 1497 C114 1497 96 1492 79 1481 C62 1470 50 1465 33 1465 C16 1465 9 1469 0 1474 C-1 1475 -8 1483 -25 1483 C-38 1483 -44 1478 -44 1467 L-44 1456 C-44 1425 -8 1405 40 1405 C59 1405 71 1410 90 1421 C110 1432 120 1437 137 1437 L137 1437 Z M122 1331 C122 1342 121 1344 110 1344 L86 1344 C66 1344 50 1331 50 1311 L50 20 C50 7 56 0 69 0 L103 0 C116 0 122 7 122 20 L122 1331 Z " />
<glyph glyph-name="itilde" unicode="&#x129;" horiz-adv-x="168" d="M135 1227 C146 1227 154 1226 159 1224 C166 1221 173 1217 181 1212 C184 1210 189 1209 195 1209 C208 1209 217 1214 217 1225 L217 1235 C217 1268 178 1287 130 1287 C112 1287 94 1282 77 1271 C60 1260 48 1255 31 1255 C14 1255 7 1259 -2 1264 C-3 1265 -10 1273 -27 1273 C-40 1273 -46 1268 -46 1257 L-46 1246 C-46 1215 -10 1195 38 1195 C57 1195 69 1200 88 1211 C108 1222 118 1227 135 1227 L135 1227 Z M120 1120 C120 1131 119 1133 108 1133 L84 1133 C64 1133 48 1119 48 1100 L48 20 C48 7 54 0 67 0 L101 0 C114 0 120 7 120 20 L120 1120 Z " />
<glyph glyph-name="Imacron" unicode="&#x12a;" horiz-adv-x="172" d="M-15 1463 C-22 1463 -26 1460 -26 1453 L-26 1438 C-26 1418 -15 1405 2 1405 L170 1405 C187 1405 199 1418 199 1438 L199 1453 C199 1460 195 1463 187 1463 L-15 1463 Z M122 1331 C122 1342 121 1344 110 1344 L86 1344 C66 1344 50 1331 50 1311 L50 20 C50 7 56 0 69 0 L103 0 C116 0 122 7 122 20 L122 1331 Z " />
<glyph glyph-name="imacron" unicode="&#x12b;" horiz-adv-x="168" d="M-17 1253 C-24 1253 -28 1250 -28 1243 L-28 1228 C-28 1208 -17 1195 0 1195 L168 1195 C185 1195 197 1208 197 1228 L197 1243 C197 1250 193 1253 185 1253 L-17 1253 Z M120 1120 C120 1131 119 1133 108 1133 L84 1133 C64 1133 48 1119 48 1100 L48 20 C48 7 54 0 67 0 L101 0 C114 0 120 7 120 20 L120 1120 Z " />
<glyph glyph-name="Ibreve" unicode="&#x12c;" horiz-adv-x="172" d="M193 1640 C193 1648 189 1652 182 1652 L166 1652 C150 1652 142 1642 141 1622 C138 1558 132 1513 122 1488 C113 1464 101 1452 86 1452 C69 1452 56 1464 48 1488 C38 1517 33 1562 32 1623 C31 1643 19 1652 7 1652 L-9 1652 C-16 1652 -19 1645 -19 1640 C-19 1556 -12 1497 3 1462 C19 1423 45 1406 86 1406 C125 1406 152 1424 169 1461 C185 1498 193 1558 193 1640 L193 1640 Z M122 1331 C122 1342 121 1344 110 1344 L86 1344 C66 1344 50 1331 50 1311 L50 20 C50 7 56 0 69 0 L103 0 C116 0 122 7 122 20 L122 1331 Z " />
<glyph glyph-name="ibreve" unicode="&#x12d;" horiz-adv-x="168" d="M191 1430 C191 1438 187 1442 180 1442 L164 1442 C148 1442 140 1432 139 1412 C136 1348 130 1303 120 1278 C111 1254 99 1242 84 1242 C67 1242 54 1254 46 1278 C36 1307 31 1352 30 1413 C29 1433 17 1442 5 1442 L-11 1442 C-18 1442 -21 1435 -21 1430 C-21 1346 -14 1287 1 1252 C17 1213 43 1196 84 1196 C123 1196 150 1214 167 1251 C183 1288 191 1348 191 1430 L191 1430 Z M120 1120 C120 1131 119 1133 108 1133 L84 1133 C64 1133 48 1119 48 1100 L48 20 C48 7 54 0 67 0 L101 0 C114 0 120 7 120 20 L120 1120 Z " />
<glyph glyph-name="Iogonek" unicode="&#x12e;" horiz-adv-x="172" d="M112 -162 C59 -162 32 -138 32 -102 L32 -69 C32 -23 55 0 100 0 L103 0 C116 0 122 7 122 20 L122 1331 C122 1342 121 1344 110 1344 L86 1344 C66 1344 50 1331 50 1311 L50 20 C30 18 14 13 3 5 C-21 -10 -33 -36 -33 -71 L-33 -103 C-33 -180 15 -223 96 -223 C111 -223 127 -212 127 -191 L127 -177 C128 -167 123 -162 112 -162 L112 -162 Z " />
<glyph glyph-name="iogonek" unicode="&#x12f;" horiz-adv-x="168" d="M114 -162 C61 -162 34 -138 34 -102 L34 -69 C34 -23 57 0 102 0 C114 0 120 7 120 20 L120 1120 C120 1131 119 1133 108 1133 L84 1133 C64 1133 48 1119 48 1100 L48 20 C29 17 14 12 5 5 C-19 -10 -31 -36 -31 -71 L-31 -103 C-31 -180 17 -223 98 -223 C113 -223 129 -212 129 -191 L129 -177 C130 -167 125 -162 114 -162 L114 -162 Z " />
<glyph glyph-name="Idot" unicode="&#x130;" horiz-adv-x="172" d="M86 1505 C51 1505 33 1487 33 1459 C33 1431 51 1413 86 1413 C121 1413 139 1431 139 1459 C139 1487 121 1505 86 1505 L86 1505 Z M122 1331 C122 1342 121 1344 110 1344 L86 1344 C66 1344 50 1331 50 1311 L50 20 C50 7 56 0 69 0 L103 0 C116 0 122 7 122 20 L122 1331 Z " />
<glyph glyph-name="dotlessi" unicode="&#x131;" horiz-adv-x="168" d="M120 1120 C120 1131 119 1133 108 1133 L84 1133 C64 1133 48 1119 48 1100 L48 20 C48 7 54 0 67 0 L101 0 C114 0 120 7 120 20 L120 1120 Z " />
<glyph glyph-name="IJ" unicode="&#x132;" horiz-adv-x="534" d="M122 1331 C122 1342 121 1344 110 1344 L86 1344 C66 1344 50 1331 50 1311 L50 20 C50 7 56 0 69 0 L103 0 C116 0 122 7 122 20 L122 1331 Z M486 1331 C486 1342 485 1344 474 1344 L450 1344 C430 1344 414 1331 414 1312 L414 104 C414 91 411 80 404 71 C393 57 376 50 352 50 C309 51 292 72 292 103 L292 596 C292 616 274 625 258 625 L233 625 C224 625 220 622 220 616 L220 102 C220 78 227 50 246 27 C270 -2 306 -16 354 -16 C399 -16 433 -3 456 23 C476 45 486 72 486 103 L486 1331 Z " />
<glyph glyph-name="ij" unicode="&#x133;" horiz-adv-x="529" d="M120 1120 C120 1131 119 1133 108 1133 L84 1133 C64 1133 48 1119 48 1100 L48 20 C48 7 54 0 67 0 L101 0 C114 0 120 7 120 20 L120 1120 Z M482 1120 C482 1131 481 1133 470 1133 L446 1133 C426 1133 410 1120 410 1101 L410 104 C410 91 407 80 400 71 C389 57 372 50 348 50 C305 51 288 72 288 103 L288 596 C288 616 270 625 254 625 L229 625 C220 625 216 622 216 616 L216 102 C216 78 223 50 242 27 C266 -2 302 -16 350 -16 C395 -16 429 -3 452 23 C472 45 482 72 482 103 L482 1120 Z " />
<glyph glyph-name="Jcircumflex" unicode="&#x134;" horiz-adv-x="362" d="M315 1659 C314 1665 310 1668 303 1668 L255 1668 C248 1668 244 1665 243 1659 L180 1416 C179 1415 179 1414 179 1413 C179 1409 184 1406 189 1406 L214 1406 C231 1406 240 1415 243 1431 L279 1618 L315 1431 C318 1414 328 1406 343 1406 L369 1406 C374 1406 380 1409 379 1416 L315 1659 Z M314 1331 C314 1342 313 1344 302 1344 L278 1344 C258 1344 242 1331 242 1312 L242 104 C242 91 239 80 232 71 C221 57 204 50 180 50 C137 51 120 72 120 103 L120 596 C120 616 102 625 86 625 L61 625 C52 625 48 622 48 616 L48 102 C48 78 55 50 74 27 C98 -2 134 -16 182 -16 C227 -16 261 -3 284 23 C304 45 314 72 314 103 L314 1331 Z " />
<glyph glyph-name="jcircumflex" unicode="&#x135;" horiz-adv-x="361" d="M241 1449 C240 1455 236 1458 229 1458 L181 1458 C174 1458 170 1455 169 1449 L106 1206 C105 1205 105 1204 105 1203 C105 1199 110 1196 115 1196 L140 1196 C157 1196 166 1205 169 1221 L205 1408 L241 1221 C244 1204 254 1196 269 1196 L295 1196 C300 1196 306 1199 305 1206 L241 1449 Z M314 1120 C314 1131 313 1133 302 1133 L278 1133 C258 1133 242 1120 242 1101 L242 104 C242 91 239 80 232 71 C221 57 204 50 180 50 C137 51 120 72 120 103 L120 596 C120 616 102 625 86 625 L61 625 C52 625 48 622 48 616 L48 102 C48 78 55 50 74 27 C98 -2 134 -16 182 -16 C227 -16 261 -3 284 23 C304 45 314 72 314 103 L314 1120 Z " />
<glyph glyph-name="Kcommaaccent" unicode="&#x136;" horiz-adv-x="366" d="M182 1414 C182 1409 185 1406 190 1406 C201 1406 211 1416 220 1436 C229 1457 234 1480 234 1503 C234 1532 214 1558 182 1558 C150 1558 132 1541 132 1514 C132 1486 149 1471 182 1470 L182 1414 Z M269 30 C270 11 289 0 309 0 L334 0 C346 0 347 2 346 14 L238 681 L346 1330 L346 1335 C346 1342 343 1344 334 1344 L309 1344 C289 1344 272 1333 269 1314 L172 714 L120 714 L120 1312 C120 1331 105 1344 85 1344 L61 1344 C50 1344 48 1342 48 1331 L48 13 C48 2 49 0 60 0 L85 0 C105 0 120 13 120 32 L120 651 L171 651 L269 30 Z " />
<glyph glyph-name="kcommaaccent" unicode="&#x137;" horiz-adv-x="372" d="M184 1204 C184 1199 187 1196 192 1196 C203 1196 213 1206 222 1226 C231 1247 236 1270 236 1293 C236 1322 216 1348 184 1348 C152 1348 134 1331 134 1304 C134 1276 151 1261 184 1260 L184 1204 Z M85 0 C105 0 120 13 120 32 L120 540 L173 540 L269 25 C272 9 289 0 309 0 L334 0 C345 0 347 3 346 12 L238 574 L346 1121 L346 1125 C346 1130 342 1133 334 1133 L309 1133 C289 1133 272 1124 269 1108 L172 602 L120 602 L120 1105 C120 1121 108 1133 85 1133 L61 1133 C50 1133 48 1131 48 1120 L48 13 C48 2 50 0 61 0 L85 0 Z " />
<glyph glyph-name="kgreenlandic" unicode="&#x138;" horiz-adv-x="372" d="M85 0 C105 0 120 13 120 32 L120 540 L173 540 L269 25 C272 9 289 0 309 0 L334 0 C345 0 347 3 346 12 L238 574 L346 1121 L346 1125 C346 1130 342 1133 334 1133 L309 1133 C289 1133 272 1124 269 1108 L172 602 L120 602 L120 1105 C120 1121 108 1133 85 1133 L61 1133 C50 1133 48 1131 48 1120 L48 13 C48 2 50 0 61 0 L85 0 Z " />
<glyph glyph-name="Lacute" unicode="&#x139;" horiz-adv-x="285" d="M72 1417 C72 1412 78 1406 85 1406 L95 1406 C114 1406 123 1417 131 1438 L195 1635 C196 1638 197 1643 197 1648 C197 1660 187 1668 170 1668 L144 1668 C133 1668 126 1662 125 1654 L73 1421 L72 1417 Z M48 15 C48 3 49 0 60 0 L257 0 C264 0 268 6 268 17 L268 28 C268 53 256 66 231 66 L120 66 L120 1312 C120 1331 105 1344 85 1344 L61 1344 C50 1344 48 1342 48 1331 L48 15 Z " />
<glyph glyph-name="lacute" unicode="&#x13a;" horiz-adv-x="272" d="M68 1207 C68 1202 74 1196 81 1196 L91 1196 C110 1196 119 1207 127 1228 L191 1425 C192 1428 193 1433 193 1438 C193 1450 183 1458 166 1458 L140 1458 C129 1458 122 1452 121 1444 L69 1211 L68 1207 Z M256 0 C263 0 267 6 267 17 L267 28 C267 53 255 66 230 66 L120 66 L120 1096 C120 1121 108 1133 85 1133 L61 1133 C50 1133 48 1131 48 1120 L48 15 C48 3 49 0 61 0 L256 0 Z " />
<glyph glyph-name="Lcommaaccent" unicode="&#x13b;" horiz-adv-x="285" d="M48 15 C48 3 49 0 60 0 L257 0 C264 0 268 6 268 17 L268 28 C268 53 256 66 231 66 L120 66 L120 1312 C120 1331 105 1344 85 1344 L61 1344 C50 1344 48 1342 48 1331 L48 15 Z M141 -238 C141 -243 144 -246 149 -246 C160 -246 170 -236 179 -216 C188 -195 193 -173 193 -149 C193 -120 173 -94 141 -94 C109 -94 91 -111 91 -138 C91 -166 108 -181 141 -182 L141 -238 Z " />
<glyph glyph-name="lcommaaccent" unicode="&#x13c;" horiz-adv-x="272" d="M256 0 C263 0 267 6 267 17 L267 28 C267 53 255 66 230 66 L120 66 L120 1096 C120 1121 108 1133 85 1133 L61 1133 C50 1133 48 1131 48 1120 L48 15 C48 3 49 0 61 0 L256 0 Z M127 -222 C127 -227 130 -230 135 -230 C146 -230 156 -220 165 -200 C174 -179 179 -157 179 -133 C179 -104 159 -78 127 -78 C95 -78 77 -95 77 -122 C77 -150 94 -165 127 -166 L127 -222 Z " />
<glyph glyph-name="Lcaron" unicode="&#x13d;" horiz-adv-x="285" d="M253 1660 C253 1665 248 1668 243 1668 L217 1668 C200 1668 191 1660 189 1643 L153 1456 L117 1643 C115 1660 105 1668 88 1668 L63 1668 C58 1668 51 1663 54 1659 L117 1416 C118 1409 122 1406 129 1406 L177 1406 C184 1406 188 1409 189 1416 L253 1659 L253 1660 Z M48 15 C48 3 49 0 60 0 L257 0 C264 0 268 6 268 17 L268 28 C268 53 256 66 231 66 L120 66 L120 1312 C120 1331 105 1344 85 1344 L61 1344 C50 1344 48 1342 48 1331 L48 15 Z " />
<glyph glyph-name="lcaron" unicode="&#x13e;" horiz-adv-x="277" d="M253 1448 C253 1453 248 1456 243 1456 L217 1456 C200 1456 191 1448 189 1431 L153 1244 L117 1431 C115 1448 105 1456 88 1456 L63 1456 C58 1456 51 1451 54 1447 L117 1204 C118 1197 122 1194 129 1194 L177 1194 C184 1194 188 1197 189 1204 L253 1447 L253 1448 Z M256 0 C263 0 267 6 267 17 L267 28 C267 53 255 66 230 66 L120 66 L120 1096 C120 1121 108 1133 85 1133 L61 1133 C50 1133 48 1131 48 1120 L48 15 C48 3 49 0 61 0 L256 0 Z " />
<glyph glyph-name="Ldot" unicode="&#x13f;" horiz-adv-x="285" d="M48 15 C48 3 49 0 60 0 L257 0 C264 0 268 6 268 17 L268 28 C268 53 256 66 231 66 L120 66 L120 1312 C120 1331 105 1344 85 1344 L61 1344 C50 1344 48 1342 48 1331 L48 15 Z M236 689 C203 689 184 671 184 643 C184 615 203 597 236 597 C271 597 288 614 288 643 C288 672 271 689 236 689 L236 689 Z " />
<glyph glyph-name="ldot" unicode="&#x140;" horiz-adv-x="282" d="M256 0 C263 0 267 6 267 17 L267 28 C267 53 255 66 230 66 L120 66 L120 1096 C120 1121 108 1133 85 1133 L61 1133 C50 1133 48 1131 48 1120 L48 15 C48 3 49 0 61 0 L256 0 Z M217 623 C184 623 165 605 165 577 C165 549 184 531 217 531 C252 531 269 548 269 577 C269 606 252 623 217 623 L217 623 Z " />
<glyph glyph-name="Lslash" unicode="&#x141;" horiz-adv-x="285" d="M48 667 L5 654 C-15 647 -27 629 -27 609 L-27 589 C-27 578 -22 575 -13 579 L48 597 L48 15 C48 3 49 0 60 0 L257 0 C264 0 268 6 268 17 L268 28 C268 53 256 66 231 66 L120 66 L120 619 L192 641 C212 648 225 667 225 690 L225 708 C225 719 221 719 212 716 L120 688 L120 1312 C120 1331 105 1344 85 1344 L61 1344 C50 1344 48 1342 48 1331 L48 667 Z " />
<glyph glyph-name="lslash" unicode="&#x142;" horiz-adv-x="285" d="M256 0 C263 0 267 6 267 17 L267 28 C267 53 255 66 230 66 L120 66 L120 562 L192 584 C212 591 225 610 225 633 L225 651 C225 662 221 662 212 659 L120 631 L120 1096 C120 1121 108 1133 85 1133 L61 1133 C50 1133 48 1131 48 1120 L48 610 L5 597 C-15 590 -27 572 -27 552 L-27 532 C-27 521 -22 518 -13 522 L48 540 L48 15 C48 3 49 0 61 0 L256 0 Z " />
<glyph glyph-name="Nacute" unicode="&#x143;" horiz-adv-x="362" d="M149 1417 C149 1412 155 1406 162 1406 L172 1406 C191 1406 200 1417 208 1438 L272 1635 C273 1638 274 1643 274 1648 C274 1660 264 1668 247 1668 L221 1668 C210 1668 203 1662 202 1654 L150 1421 L149 1417 Z M314 1331 C314 1342 312 1344 301 1344 L277 1344 C256 1344 241 1331 241 1311 L247 402 L120 1315 C117 1332 105 1344 86 1344 L61 1344 C50 1344 48 1342 48 1331 L48 13 C48 4 52 0 61 0 L85 0 C106 0 121 13 120 34 L114 945 L241 29 C244 10 257 0 277 0 L301 0 C310 0 314 4 314 13 L314 1331 Z " />
<glyph glyph-name="nacute" unicode="&#x144;" horiz-adv-x="362" d="M155 1207 C155 1202 161 1196 168 1196 L178 1196 C197 1196 206 1207 214 1228 L278 1425 C279 1428 280 1433 280 1438 C280 1450 270 1458 253 1458 L227 1458 C216 1458 209 1452 208 1444 L156 1211 L155 1207 Z M314 1120 C314 1131 312 1133 301 1133 L277 1133 C256 1133 241 1119 241 1100 L249 330 L131 1047 C126 1077 120 1099 114 1112 C107 1126 98 1133 86 1133 L61 1133 C50 1133 48 1131 48 1120 L48 13 C48 4 52 0 61 0 L85 0 C106 0 121 13 120 34 L113 806 L232 80 L238 51 C239 43 241 35 245 26 C252 9 263 0 277 0 L301 0 C310 0 314 4 314 13 L314 1120 Z " />
<glyph glyph-name="Ncommaaccent" unicode="&#x145;" horiz-adv-x="362" d="M314 1331 C314 1342 312 1344 301 1344 L277 1344 C256 1344 241 1331 241 1311 L247 402 L120 1315 C117 1332 105 1344 86 1344 L61 1344 C50 1344 48 1342 48 1331 L48 13 C48 4 52 0 61 0 L85 0 C106 0 121 13 120 34 L114 945 L241 29 C244 10 257 0 277 0 L301 0 C310 0 314 4 314 13 L314 1331 Z M180 -223 C180 -228 183 -231 188 -231 C199 -231 209 -221 218 -201 C227 -180 232 -158 232 -134 C232 -105 212 -79 180 -79 C148 -79 130 -96 130 -123 C130 -151 147 -166 180 -167 L180 -223 Z " />
<glyph glyph-name="ncommaaccent" unicode="&#x146;" horiz-adv-x="362" d="M314 1120 C314 1131 312 1133 301 1133 L277 1133 C256 1133 241 1119 241 1100 L249 330 L131 1047 C126 1077 120 1099 114 1112 C107 1126 98 1133 86 1133 L61 1133 C50 1133 48 1131 48 1120 L48 13 C48 4 52 0 61 0 L85 0 C106 0 121 13 120 34 L113 806 L232 80 L238 51 C239 43 241 35 245 26 C252 9 263 0 277 0 L301 0 C310 0 314 4 314 13 L314 1120 Z M180 -217 C180 -222 183 -225 188 -225 C199 -225 209 -215 218 -195 C227 -174 232 -152 232 -128 C232 -99 212 -73 180 -73 C148 -73 130 -90 130 -117 C130 -145 147 -160 180 -161 L180 -217 Z " />
<glyph glyph-name="Ncaron" unicode="&#x147;" horiz-adv-x="362" d="M280 1660 C280 1665 275 1668 270 1668 L244 1668 C227 1668 218 1660 216 1643 L180 1456 L144 1643 C142 1660 132 1668 115 1668 L90 1668 C85 1668 78 1663 81 1659 L144 1416 C145 1409 149 1406 156 1406 L204 1406 C211 1406 215 1409 216 1416 L280 1659 L280 1660 Z M314 1331 C314 1342 312 1344 301 1344 L277 1344 C256 1344 241 1331 241 1311 L247 402 L120 1315 C117 1332 105 1344 86 1344 L61 1344 C50 1344 48 1342 48 1331 L48 13 C48 4 52 0 61 0 L85 0 C106 0 121 13 120 34 L114 945 L241 29 C244 10 257 0 277 0 L301 0 C310 0 314 4 314 13 L314 1331 Z " />
<glyph glyph-name="ncaron" unicode="&#x148;" horiz-adv-x="362" d="M280 1450 C280 1455 275 1458 270 1458 L244 1458 C227 1458 218 1450 216 1433 L180 1246 L144 1433 C142 1450 132 1458 115 1458 L90 1458 C85 1458 78 1453 81 1449 L144 1206 C145 1199 149 1196 156 1196 L204 1196 C211 1196 215 1199 216 1206 L280 1449 L280 1450 Z M314 1120 C314 1131 312 1133 301 1133 L277 1133 C256 1133 241 1119 241 1100 L249 330 L131 1047 C126 1077 120 1099 114 1112 C107 1126 98 1133 86 1133 L61 1133 C50 1133 48 1131 48 1120 L48 13 C48 4 52 0 61 0 L85 0 C106 0 121 13 120 34 L113 806 L232 80 L238 51 C239 43 241 35 245 26 C252 9 263 0 277 0 L301 0 C310 0 314 4 314 13 L314 1120 Z " />
<glyph glyph-name="napostrophe" unicode="&#x149;" horiz-adv-x="362" d="M354 1111 C354 1106 357 1103 362 1103 C373 1103 383 1113 392 1133 C401 1154 406 1177 406 1200 C406 1229 386 1255 354 1255 C322 1255 304 1238 304 1211 C304 1183 321 1168 354 1167 L354 1111 Z M314 1120 C314 1131 312 1133 301 1133 L277 1133 C256 1133 241 1119 241 1100 L249 330 L131 1047 C126 1077 120 1099 114 1112 C107 1126 98 1133 86 1133 L61 1133 C50 1133 48 1131 48 1120 L48 13 C48 4 52 0 61 0 L85 0 C106 0 121 13 120 34 L113 806 L232 80 L238 51 C239 43 241 35 245 26 C252 9 263 0 277 0 L301 0 C310 0 314 4 314 13 L314 1120 Z " />
<glyph glyph-name="Eng" unicode="&#x14a;" horiz-adv-x="362" d="M314 1331 C314 1342 312 1344 301 1344 L277 1344 C256 1344 241 1331 241 1311 L247 402 L130 1248 C127 1267 126 1280 125 1287 C124 1298 122 1309 119 1318 C114 1335 105 1344 86 1344 L61 1344 C50 1344 48 1342 48 1331 L48 15 C48 5 52 0 61 0 L85 0 C106 0 121 13 120 34 L114 945 L177 494 L201 323 C212 244 223 152 236 48 C239 11 241 -10 241 -16 L241 -183 C241 -198 238 -209 232 -217 C222 -230 205 -237 181 -237 C141 -236 121 -219 121 -184 L121 -91 C121 -71 103 -63 87 -63 L61 -63 C52 -63 48 -66 48 -72 L48 -131 L48 -170 C48 -188 52 -207 59 -227 C78 -278 120 -303 183 -303 C270 -303 314 -264 314 -186 L314 1331 Z " />
<glyph glyph-name="eng" unicode="&#x14b;" horiz-adv-x="362" d="M314 1121 C314 1132 312 1134 301 1134 L277 1134 C256 1134 241 1121 241 1102 L249 330 L136 1024 C129 1061 124 1087 119 1101 C110 1122 101 1134 86 1134 L61 1134 C50 1134 48 1132 48 1121 L48 81 L48 58 C48 36 50 20 53 10 C54 3 56 0 61 0 L85 0 C106 0 121 13 120 34 L113 804 L120 764 L135 677 L156 559 L179 423 C192 346 207 258 222 159 C235 70 241 17 241 0 L241 -183 C241 -198 238 -209 232 -217 C222 -230 205 -237 181 -237 C141 -236 121 -219 121 -184 L121 -91 C121 -71 103 -63 87 -63 L61 -63 C52 -63 48 -66 48 -72 L48 -185 C48 -209 55 -237 74 -260 C98 -289 134 -303 183 -303 C228 -303 261 -290 284 -264 C304 -242 314 -215 314 -184 L314 1121 Z " />
<glyph glyph-name="Omacron" unicode="&#x14c;" horiz-adv-x="363" d="M81 1463 C74 1463 70 1460 70 1453 L70 1438 C70 1418 81 1405 98 1405 L266 1405 C283 1405 295 1418 295 1438 L295 1453 C295 1460 291 1463 283 1463 L81 1463 Z M48 103 C48 73 58 47 77 26 C100 -1 135 -15 182 -15 C229 -15 264 -1 288 26 C306 47 315 73 315 103 L315 1242 C315 1271 305 1302 285 1323 C262 1348 227 1360 182 1360 C137 1360 102 1348 79 1323 C59 1302 48 1271 48 1242 L48 103 Z M120 1241 C120 1273 138 1295 182 1295 C223 1295 243 1277 243 1241 L243 104 C243 68 223 50 182 50 C138 50 120 72 120 104 L120 1241 Z " />
<glyph glyph-name="omacron" unicode="&#x14d;" horiz-adv-x="367" d="M83 1253 C76 1253 72 1250 72 1243 L72 1228 C72 1208 83 1195 100 1195 L268 1195 C285 1195 297 1208 297 1228 L297 1243 C297 1250 293 1253 285 1253 L83 1253 Z M50 103 C50 73 60 47 79 26 C102 -1 137 -15 184 -15 C231 -15 266 -1 290 26 C308 47 317 73 317 103 L317 1031 C317 1062 307 1089 286 1112 C263 1137 228 1150 183 1150 C137 1150 103 1137 81 1112 C60 1089 50 1062 50 1031 L50 103 Z M122 1030 C122 1062 139 1084 183 1084 C227 1084 245 1062 245 1030 L245 104 C245 68 225 50 184 50 C140 50 122 72 122 104 L122 1030 Z " />
<glyph glyph-name="Obreve" unicode="&#x14e;" horiz-adv-x="363" d="M287 1640 C287 1648 283 1652 276 1652 L260 1652 C244 1652 236 1642 235 1622 C232 1558 226 1513 216 1488 C207 1464 195 1452 180 1452 C163 1452 150 1464 142 1488 C132 1517 127 1562 126 1623 C125 1643 113 1652 101 1652 L85 1652 C78 1652 75 1645 75 1640 C75 1556 82 1497 97 1462 C113 1423 139 1406 180 1406 C219 1406 246 1424 263 1461 C279 1498 287 1558 287 1640 L287 1640 Z M48 103 C48 73 58 47 77 26 C100 -1 135 -15 182 -15 C229 -15 264 -1 288 26 C306 47 315 73 315 103 L315 1242 C315 1271 305 1302 285 1323 C262 1348 227 1360 182 1360 C137 1360 102 1348 79 1323 C59 1302 48 1271 48 1242 L48 103 Z M120 1241 C120 1273 138 1295 182 1295 C223 1295 243 1277 243 1241 L243 104 C243 68 223 50 182 50 C138 50 120 72 120 104 L120 1241 Z " />
<glyph glyph-name="obreve" unicode="&#x14f;" horiz-adv-x="367" d="M289 1430 C289 1438 285 1442 278 1442 L262 1442 C246 1442 238 1432 237 1412 C234 1348 228 1303 218 1278 C209 1254 197 1242 182 1242 C165 1242 152 1254 144 1278 C134 1307 129 1352 128 1413 C127 1433 115 1442 103 1442 L87 1442 C80 1442 77 1435 77 1430 C77 1346 84 1287 99 1252 C115 1213 141 1196 182 1196 C221 1196 248 1214 265 1251 C281 1288 289 1348 289 1430 L289 1430 Z M50 103 C50 73 60 47 79 26 C102 -1 137 -15 184 -15 C231 -15 266 -1 290 26 C308 47 317 73 317 103 L317 1031 C317 1062 307 1089 286 1112 C263 1137 228 1150 183 1150 C137 1150 103 1137 81 1112 C60 1089 50 1062 50 1031 L50 103 Z M122 1030 C122 1062 139 1084 183 1084 C227 1084 245 1062 245 1030 L245 104 C245 68 225 50 184 50 C140 50 122 72 122 104 L122 1030 Z " />
<glyph glyph-name="Ohungarumlaut" unicode="&#x150;" horiz-adv-x="363" d="M92 1417 C92 1412 98 1406 105 1406 L115 1406 C134 1406 143 1417 151 1438 L212 1635 C213 1642 214 1646 214 1649 C214 1662 206 1668 190 1668 L164 1668 C153 1668 146 1662 145 1654 L93 1421 L92 1417 Z M228 1421 C228 1413 233 1406 241 1406 L251 1406 C270 1406 282 1417 287 1438 L348 1635 C350 1640 351 1645 351 1650 C351 1662 343 1668 326 1668 L299 1668 C288 1668 282 1662 281 1654 L228 1421 Z M48 103 C48 73 58 47 77 26 C100 -1 135 -15 182 -15 C229 -15 264 -1 288 26 C306 47 315 73 315 103 L315 1242 C315 1271 305 1302 285 1323 C262 1348 227 1360 182 1360 C137 1360 102 1348 79 1323 C59 1302 48 1271 48 1242 L48 103 Z M120 1241 C120 1273 138 1295 182 1295 C223 1295 243 1277 243 1241 L243 104 C243 68 223 50 182 50 C138 50 120 72 120 104 L120 1241 Z " />
<glyph glyph-name="ohungarumlaut" unicode="&#x151;" horiz-adv-x="367" d="M92 1207 C92 1202 98 1196 105 1196 L115 1196 C134 1196 143 1207 151 1228 L212 1425 C213 1432 214 1436 214 1439 C214 1452 206 1458 190 1458 L164 1458 C153 1458 146 1452 145 1444 L93 1211 L92 1207 Z M228 1211 C228 1203 233 1196 241 1196 L251 1196 C270 1196 282 1207 287 1228 L348 1425 C350 1430 351 1435 351 1440 C351 1452 343 1458 326 1458 L299 1458 C288 1458 282 1452 281 1444 L228 1211 Z M50 103 C50 73 60 47 79 26 C102 -1 137 -15 184 -15 C231 -15 266 -1 290 26 C308 47 317 73 317 103 L317 1031 C317 1062 307 1089 286 1112 C263 1137 228 1150 183 1150 C137 1150 103 1137 81 1112 C60 1089 50 1062 50 1031 L50 103 Z M122 1030 C122 1062 139 1084 183 1084 C227 1084 245 1062 245 1030 L245 104 C245 68 225 50 184 50 C140 50 122 72 122 104 L122 1030 Z " />
<glyph glyph-name="OE" unicode="&#x152;" horiz-adv-x="500" d="M51 103 C51 76 59 52 74 31 C93 5 124 -9 166 -12 C179 -13 189 -14 195 -14 C220 -14 242 -9 259 1 C261 0 268 0 281 0 L454 0 C461 0 465 6 465 17 L465 28 C465 53 453 66 428 66 L318 66 L318 632 L418 632 C443 632 456 646 456 674 L456 680 C456 693 455 698 444 698 L318 698 L318 1278 L428 1278 C453 1278 465 1291 465 1316 L465 1327 C465 1338 461 1344 454 1344 L265 1344 L263 1344 L261 1343 C240 1354 214 1360 185 1360 C97 1360 51 1310 51 1242 L51 103 Z M124 1241 C124 1277 144 1295 185 1295 C226 1295 246 1277 246 1241 L246 104 C246 68 226 50 185 50 C144 50 124 68 124 104 L124 1241 Z " />
<glyph glyph-name="oe" unicode="&#x153;" horiz-adv-x="483" d="M50 103 C50 76 58 52 73 31 C92 5 123 -9 164 -12 C177 -13 187 -14 194 -14 C219 -14 240 -9 257 1 C259 0 267 0 280 0 L454 0 C461 0 465 6 465 17 L465 28 C465 53 453 66 428 66 L317 66 L317 525 L418 525 C443 525 456 539 456 567 L456 573 C456 586 455 592 444 592 L317 592 L317 1068 L428 1068 C453 1068 465 1081 465 1106 L465 1117 C465 1128 461 1134 454 1134 L264 1134 L261 1134 L259 1133 C240 1144 214 1150 183 1150 C95 1150 50 1100 50 1032 L50 103 Z M122 1031 C122 1063 139 1085 183 1085 C227 1085 245 1063 245 1031 L245 104 C245 68 225 50 184 50 C140 50 122 72 122 104 L122 1031 Z " />
<glyph glyph-name="Racute" unicode="&#x154;" horiz-adv-x="362" d="M141 1417 C141 1412 147 1406 154 1406 L164 1406 C183 1406 192 1417 200 1438 L264 1635 C265 1638 266 1643 266 1648 C266 1660 256 1668 239 1668 L213 1668 C202 1668 195 1662 194 1654 L142 1421 L141 1417 Z M314 529 C314 569 303 596 271 615 C303 639 314 676 314 731 L314 1224 C314 1258 305 1285 287 1306 C265 1331 230 1344 181 1344 L61 1344 C50 1344 48 1342 48 1331 L48 13 C48 2 49 0 60 0 L85 0 C105 0 120 13 120 32 L120 582 L181 582 C222 582 242 564 242 529 L242 32 C242 13 257 0 277 0 L301 0 C312 0 314 2 314 13 L314 529 Z M181 1278 C222 1278 242 1260 242 1224 L242 733 C242 707 239 688 233 676 C224 658 209 649 187 649 L120 649 L120 1278 L181 1278 Z " />
<glyph glyph-name="racute" unicode="&#x155;" horiz-adv-x="362" d="M142 1207 C142 1202 148 1196 155 1196 L165 1196 C184 1196 193 1207 201 1228 L265 1425 C266 1428 267 1433 267 1438 C267 1450 257 1458 240 1458 L214 1458 C203 1458 196 1452 195 1444 L143 1211 L142 1207 Z M314 442 C314 481 302 509 271 528 C302 551 314 589 314 644 L314 1014 C314 1048 305 1075 287 1096 C265 1121 230 1134 181 1134 L61 1134 C50 1134 48 1132 48 1121 L48 13 C48 2 49 0 60 0 L85 0 C105 0 120 13 120 32 L120 495 L181 495 C222 495 242 477 242 442 L242 32 C242 13 257 0 277 0 L301 0 C312 0 314 2 314 13 L314 442 Z M181 1068 C222 1068 242 1050 242 1014 L242 646 C242 619 239 600 233 588 C224 570 209 561 187 561 L120 561 L120 1068 L181 1068 Z " />
<glyph glyph-name="Rcommaaccent" unicode="&#x156;" horiz-adv-x="362" d="M314 529 C314 569 303 596 271 615 C303 639 314 676 314 731 L314 1224 C314 1258 305 1285 287 1306 C265 1331 230 1344 181 1344 L61 1344 C50 1344 48 1342 48 1331 L48 13 C48 2 49 0 60 0 L85 0 C105 0 120 13 120 32 L120 582 L181 582 C222 582 242 564 242 529 L242 32 C242 13 257 0 277 0 L301 0 C312 0 314 2 314 13 L314 529 Z M181 1278 C222 1278 242 1260 242 1224 L242 733 C242 707 239 688 233 676 C224 658 209 649 187 649 L120 649 L120 1278 L181 1278 Z M172 -213 C172 -218 175 -221 180 -221 C191 -221 201 -211 210 -191 C219 -170 224 -148 224 -124 C224 -95 204 -69 172 -69 C140 -69 122 -86 122 -113 C122 -141 139 -156 172 -157 L172 -213 Z " />
<glyph glyph-name="rcommaaccent" unicode="&#x157;" horiz-adv-x="362" d="M314 442 C314 481 302 509 271 528 C302 551 314 589 314 644 L314 1014 C314 1048 305 1075 287 1096 C265 1121 230 1134 181 1134 L61 1134 C50 1134 48 1132 48 1121 L48 13 C48 2 49 0 60 0 L85 0 C105 0 120 13 120 32 L120 495 L181 495 C222 495 242 477 242 442 L242 32 C242 13 257 0 277 0 L301 0 C312 0 314 2 314 13 L314 442 Z M181 1068 C222 1068 242 1050 242 1014 L242 646 C242 619 239 600 233 588 C224 570 209 561 187 561 L120 561 L120 1068 L181 1068 Z M174 -215 C174 -220 177 -223 182 -223 C193 -223 203 -213 212 -193 C221 -172 226 -150 226 -126 C226 -97 206 -71 174 -71 C142 -71 124 -88 124 -115 C124 -143 141 -158 174 -159 L174 -215 Z " />
<glyph glyph-name="Rcaron" unicode="&#x158;" horiz-adv-x="362" d="M275 1660 C275 1665 270 1668 265 1668 L239 1668 C222 1668 213 1660 211 1643 L175 1456 L139 1643 C137 1660 127 1668 110 1668 L85 1668 C80 1668 73 1663 76 1659 L139 1416 C140 1409 144 1406 151 1406 L199 1406 C206 1406 210 1409 211 1416 L275 1659 L275 1660 Z M314 529 C314 569 303 596 271 615 C303 639 314 676 314 731 L314 1224 C314 1258 305 1285 287 1306 C265 1331 230 1344 181 1344 L61 1344 C50 1344 48 1342 48 1331 L48 13 C48 2 49 0 60 0 L85 0 C105 0 120 13 120 32 L120 582 L181 582 C222 582 242 564 242 529 L242 32 C242 13 257 0 277 0 L301 0 C312 0 314 2 314 13 L314 529 Z M181 1278 C222 1278 242 1260 242 1224 L242 733 C242 707 239 688 233 676 C224 658 209 649 187 649 L120 649 L120 1278 L181 1278 Z " />
<glyph glyph-name="rcaron" unicode="&#x159;" horiz-adv-x="362" d="M275 1450 C275 1455 270 1458 265 1458 L239 1458 C222 1458 213 1450 211 1433 L175 1246 L139 1433 C137 1450 127 1458 110 1458 L85 1458 C80 1458 73 1453 76 1449 L139 1206 C140 1199 144 1196 151 1196 L199 1196 C206 1196 210 1199 211 1206 L275 1449 L275 1450 Z M314 442 C314 481 302 509 271 528 C302 551 314 589 314 644 L314 1014 C314 1048 305 1075 287 1096 C265 1121 230 1134 181 1134 L61 1134 C50 1134 48 1132 48 1121 L48 13 C48 2 49 0 60 0 L85 0 C105 0 120 13 120 32 L120 495 L181 495 C222 495 242 477 242 442 L242 32 C242 13 257 0 277 0 L301 0 C312 0 314 2 314 13 L314 442 Z M181 1068 C222 1068 242 1050 242 1014 L242 646 C242 619 239 600 233 588 C224 570 209 561 187 561 L120 561 L120 1068 L181 1068 Z " />
<glyph glyph-name="Sacute" unicode="&#x15a;" horiz-adv-x="362" d="M159 1417 C159 1412 165 1406 172 1406 L182 1406 C201 1406 210 1417 218 1438 L282 1635 C283 1638 284 1643 284 1648 C284 1660 274 1668 257 1668 L231 1668 C220 1668 213 1662 212 1654 L160 1421 L159 1417 Z M181 -16 C264 -16 314 31 314 102 C314 175 309 247 300 316 C282 438 254 564 217 693 C198 758 183 817 170 870 C138 1002 119 1117 119 1241 C119 1273 137 1295 181 1295 C222 1295 242 1277 242 1241 L242 894 C242 873 260 865 277 865 L301 865 C310 865 314 868 314 874 L314 1243 C314 1314 264 1361 181 1361 C98 1361 47 1314 47 1243 C47 1170 52 1100 62 1035 C78 924 106 801 145 668 C158 624 173 565 192 490 C224 354 242 235 242 103 C242 68 222 50 181 50 C138 50 120 72 120 103 L120 448 C120 468 102 477 86 477 L61 477 C52 477 48 474 48 468 L48 102 C48 31 98 -16 181 -16 L181 -16 Z " />
<glyph glyph-name="sacute" unicode="&#x15b;" horiz-adv-x="362" d="M155 1207 C155 1202 161 1196 168 1196 L178 1196 C197 1196 206 1207 214 1228 L278 1425 C279 1428 280 1433 280 1438 C280 1450 270 1458 253 1458 L227 1458 C216 1458 209 1452 208 1444 L156 1211 L155 1207 Z M181 -16 C264 -16 314 31 314 102 C314 175 309 241 300 300 C282 402 254 497 217 586 C198 631 183 674 170 713 C138 810 119 905 119 1029 C119 1061 137 1084 181 1084 C222 1084 242 1066 242 1030 L242 754 C242 734 261 725 277 725 L301 725 C310 725 314 728 314 734 L314 1031 C314 1103 264 1149 181 1149 C98 1149 47 1103 47 1031 C47 958 52 894 62 839 C78 745 106 652 145 560 C158 528 174 486 192 434 C224 334 242 232 242 103 C242 68 222 50 181 50 C138 50 120 72 120 103 L120 377 C120 397 102 405 86 405 L61 405 C52 405 48 402 48 396 L48 102 C48 31 98 -16 181 -16 L181 -16 Z " />
<glyph glyph-name="Scircumflex" unicode="&#x15c;" horiz-adv-x="362" d="M217 1659 C216 1665 212 1668 205 1668 L157 1668 C150 1668 146 1665 145 1659 L82 1416 C81 1415 81 1414 81 1413 C81 1409 86 1406 91 1406 L116 1406 C133 1406 142 1415 145 1431 L181 1618 L217 1431 C220 1414 230 1406 245 1406 L271 1406 C276 1406 282 1409 281 1416 L217 1659 Z M181 -16 C264 -16 314 31 314 102 C314 175 309 247 300 316 C282 438 254 564 217 693 C198 758 183 817 170 870 C138 1002 119 1117 119 1241 C119 1273 137 1295 181 1295 C222 1295 242 1277 242 1241 L242 894 C242 873 260 865 277 865 L301 865 C310 865 314 868 314 874 L314 1243 C314 1314 264 1361 181 1361 C98 1361 47 1314 47 1243 C47 1170 52 1100 62 1035 C78 924 106 801 145 668 C158 624 173 565 192 490 C224 354 242 235 242 103 C242 68 222 50 181 50 C138 50 120 72 120 103 L120 448 C120 468 102 477 86 477 L61 477 C52 477 48 474 48 468 L48 102 C48 31 98 -16 181 -16 L181 -16 Z " />
<glyph glyph-name="scircumflex" unicode="&#x15d;" horiz-adv-x="362" d="M217 1449 C216 1455 212 1458 205 1458 L157 1458 C150 1458 146 1455 145 1449 L82 1206 C81 1205 81 1204 81 1203 C81 1199 86 1196 91 1196 L116 1196 C133 1196 142 1205 145 1221 L181 1408 L217 1221 C220 1204 230 1196 245 1196 L271 1196 C276 1196 282 1199 281 1206 L217 1449 Z M181 -16 C264 -16 314 31 314 102 C314 175 309 241 300 300 C282 402 254 497 217 586 C198 631 183 674 170 713 C138 810 119 905 119 1029 C119 1061 137 1084 181 1084 C222 1084 242 1066 242 1030 L242 754 C242 734 261 725 277 725 L301 725 C310 725 314 728 314 734 L314 1031 C314 1103 264 1149 181 1149 C98 1149 47 1103 47 1031 C47 958 52 894 62 839 C78 745 106 652 145 560 C158 528 174 486 192 434 C224 334 242 232 242 103 C242 68 222 50 181 50 C138 50 120 72 120 103 L120 377 C120 397 102 405 86 405 L61 405 C52 405 48 402 48 396 L48 102 C48 31 98 -16 181 -16 L181 -16 Z " />
<glyph glyph-name="Scedilla" unicode="&#x15e;" horiz-adv-x="362" d="M301 865 C310 865 314 868 314 874 L314 1243 C314 1314 264 1361 181 1361 C98 1361 47 1314 47 1243 C47 1170 52 1100 62 1035 C78 924 106 801 145 668 C158 624 173 565 192 490 C224 354 242 235 242 103 C242 68 222 50 181 50 C138 50 120 72 120 103 L120 448 C120 468 102 477 86 477 L61 477 C52 477 48 474 48 468 L48 102 C48 41 87 -5 154 -14 L154 -17 C154 -37 157 -55 163 -71 C171 -94 183 -119 199 -147 C204 -156 207 -165 207 -172 C207 -180 204 -186 199 -189 C190 -196 177 -199 160 -199 L145 -199 C133 -199 123 -206 123 -218 L124 -243 C124 -248 130 -251 142 -251 C182 -251 212 -246 231 -236 C256 -224 268 -204 268 -175 C268 -140 258 -118 239 -89 C220 -61 210 -42 209 -14 C276 -5 314 41 314 102 C314 175 309 247 300 316 C282 438 254 564 217 693 C198 758 183 817 170 870 C138 1002 119 1117 119 1241 C119 1273 137 1295 181 1295 C222 1295 242 1277 242 1241 L242 894 C242 873 260 865 277 865 L301 865 Z " />
<glyph glyph-name="scedilla" unicode="&#x15f;" horiz-adv-x="362" d="M301 725 C310 725 314 728 314 734 L314 1031 C314 1103 264 1149 181 1149 C98 1149 47 1103 47 1031 C47 958 52 894 62 839 C78 745 106 652 145 560 C158 528 174 486 192 434 C224 334 242 232 242 103 C242 68 222 50 181 50 C138 50 120 72 120 103 L120 377 C120 397 102 405 86 405 L61 405 C52 405 48 402 48 396 L48 102 C48 45 82 2 139 -11 L139 -17 C139 -37 142 -55 148 -71 C156 -94 168 -119 184 -147 C189 -156 192 -165 192 -172 C192 -180 189 -186 184 -189 C175 -196 162 -199 145 -199 L130 -199 C118 -199 108 -206 108 -218 L109 -243 C109 -248 115 -251 127 -251 C167 -251 197 -246 216 -236 C241 -224 253 -204 253 -175 C253 -140 243 -118 224 -89 C204 -57 195 -43 194 -16 C269 -11 314 35 314 102 C314 175 309 241 300 300 C282 402 254 497 217 586 C198 631 183 674 170 713 C138 810 119 905 119 1029 C119 1061 137 1084 181 1084 C222 1084 242 1066 242 1030 L242 754 C242 734 261 725 277 725 L301 725 Z " />
<glyph glyph-name="Scaron" unicode="&#x160;" horiz-adv-x="362" d="M281 1660 C281 1665 276 1668 271 1668 L245 1668 C228 1668 219 1660 217 1643 L181 1456 L145 1643 C143 1660 133 1668 116 1668 L91 1668 C86 1668 79 1663 82 1659 L145 1416 C146 1409 150 1406 157 1406 L205 1406 C212 1406 216 1409 217 1416 L281 1659 L281 1660 Z M181 -16 C264 -16 314 31 314 102 C314 175 309 247 300 316 C282 438 254 564 217 693 C198 758 183 817 170 870 C138 1002 119 1117 119 1241 C119 1273 137 1295 181 1295 C222 1295 242 1277 242 1241 L242 894 C242 873 260 865 277 865 L301 865 C310 865 314 868 314 874 L314 1243 C314 1314 264 1361 181 1361 C98 1361 47 1314 47 1243 C47 1170 52 1100 62 1035 C78 924 106 801 145 668 C158 624 173 565 192 490 C224 354 242 235 242 103 C242 68 222 50 181 50 C138 50 120 72 120 103 L120 448 C120 468 102 477 86 477 L61 477 C52 477 48 474 48 468 L48 102 C48 31 98 -16 181 -16 L181 -16 Z " />
<glyph glyph-name="scaron" unicode="&#x161;" horiz-adv-x="362" d="M281 1450 C281 1455 276 1458 271 1458 L245 1458 C228 1458 219 1450 217 1433 L181 1246 L145 1433 C143 1450 133 1458 116 1458 L91 1458 C86 1458 79 1453 82 1449 L145 1206 C146 1199 150 1196 157 1196 L205 1196 C212 1196 216 1199 217 1206 L281 1449 L281 1450 Z M181 -16 C264 -16 314 31 314 102 C314 175 309 241 300 300 C282 402 254 497 217 586 C198 631 183 674 170 713 C138 810 119 905 119 1029 C119 1061 137 1084 181 1084 C222 1084 242 1066 242 1030 L242 754 C242 734 261 725 277 725 L301 725 C310 725 314 728 314 734 L314 1031 C314 1103 264 1149 181 1149 C98 1149 47 1103 47 1031 C47 958 52 894 62 839 C78 745 106 652 145 560 C158 528 174 486 192 434 C224 334 242 232 242 103 C242 68 222 50 181 50 C138 50 120 72 120 103 L120 377 C120 397 102 405 86 405 L61 405 C52 405 48 402 48 396 L48 102 C48 31 98 -16 181 -16 L181 -16 Z " />
<glyph glyph-name="uni0162" unicode="&#x162;" horiz-adv-x="305" d="M152 1414 C152 1409 155 1406 160 1406 C171 1406 181 1416 190 1436 C199 1457 204 1480 204 1503 C204 1532 184 1558 152 1558 C120 1558 102 1541 102 1514 C102 1486 119 1471 152 1470 L152 1414 Z M26 1344 C19 1344 15 1338 15 1327 L15 1316 C15 1291 27 1278 52 1278 L118 1278 L118 20 C118 7 124 0 137 0 L171 0 C184 0 191 7 191 20 L191 1278 L255 1278 C280 1278 292 1291 292 1316 L292 1327 C292 1338 288 1344 281 1344 L26 1344 Z " />
<glyph glyph-name="uni0163" unicode="&#x163;" horiz-adv-x="306" d="M152 1204 C152 1199 155 1196 160 1196 C171 1196 181 1206 190 1226 C199 1247 204 1270 204 1293 C204 1322 184 1348 152 1348 C120 1348 102 1331 102 1304 C102 1276 119 1261 152 1260 L152 1204 Z M191 1067 L255 1067 C280 1067 292 1080 292 1105 L292 1116 C292 1127 288 1133 281 1133 L26 1133 C19 1133 15 1127 15 1116 L15 1105 C15 1080 27 1067 52 1067 L118 1067 L118 20 C118 7 124 0 137 0 L171 0 C184 0 191 7 191 20 L191 1067 Z " />
<glyph glyph-name="Tcaron" unicode="&#x164;" horiz-adv-x="305" d="M252 1661 C252 1666 247 1669 242 1669 L216 1669 C199 1669 190 1661 188 1644 L152 1457 L116 1644 C114 1661 104 1669 87 1669 L62 1669 C57 1669 50 1664 53 1660 L116 1417 C117 1410 121 1407 128 1407 L176 1407 C183 1407 187 1410 188 1417 L252 1660 L252 1661 Z M26 1344 C19 1344 15 1338 15 1327 L15 1316 C15 1291 27 1278 52 1278 L118 1278 L118 20 C118 7 124 0 137 0 L171 0 C184 0 191 7 191 20 L191 1278 L255 1278 C280 1278 292 1291 292 1316 L292 1327 C292 1338 288 1344 281 1344 L26 1344 Z " />
<glyph glyph-name="tcaron" unicode="&#x165;" horiz-adv-x="307" d="M252 1409 C252 1414 247 1417 242 1417 L216 1417 C199 1417 190 1409 188 1392 L152 1205 L116 1392 C114 1409 104 1417 87 1417 L62 1417 C57 1417 50 1412 53 1408 L116 1165 C117 1158 121 1155 128 1155 L176 1155 C183 1155 187 1158 188 1165 L252 1408 L252 1409 Z M191 1067 L255 1067 C280 1067 292 1080 292 1105 L292 1116 C292 1127 288 1133 281 1133 L26 1133 C19 1133 15 1127 15 1116 L15 1105 C15 1080 27 1067 52 1067 L118 1067 L118 20 C118 7 124 0 137 0 L171 0 C184 0 191 7 191 20 L191 1067 Z " />
<glyph glyph-name="Tbar" unicode="&#x166;" horiz-adv-x="305" d="M50 723 C42 723 38 720 38 713 L38 698 C38 678 49 665 68 665 L118 665 L118 20 C118 7 124 0 137 0 L171 0 C184 0 191 7 191 20 L191 665 L240 665 C257 665 270 679 270 698 L270 713 C270 720 266 723 257 723 L191 723 L191 1278 L255 1278 C280 1278 292 1291 292 1316 L292 1327 C292 1338 288 1344 281 1344 L26 1344 C19 1344 15 1338 15 1327 L15 1316 C15 1291 27 1278 52 1278 L118 1278 L118 723 L50 723 Z " />
<glyph glyph-name="tbar" unicode="&#x167;" horiz-adv-x="306" d="M49 598 C40 598 36 594 36 587 L36 571 C36 552 48 538 67 538 L118 538 L118 20 C118 7 124 0 137 0 L171 0 C184 0 191 7 191 20 L191 538 L239 538 C258 538 270 552 270 571 L270 587 C270 594 266 598 257 598 L191 598 L191 1067 L255 1067 C280 1067 292 1080 292 1105 L292 1116 C292 1127 288 1133 281 1133 L26 1133 C19 1133 15 1127 15 1116 L15 1105 C15 1080 27 1067 52 1067 L118 1067 L118 598 L49 598 Z " />
<glyph glyph-name="Utilde" unicode="&#x168;" horiz-adv-x="363" d="M232 1437 C243 1437 251 1436 256 1434 C263 1431 270 1427 278 1422 C281 1420 285 1419 292 1419 C305 1419 314 1424 314 1435 L314 1445 C314 1478 275 1497 227 1497 C209 1497 191 1492 174 1481 C157 1470 145 1465 128 1465 C111 1465 104 1469 95 1474 C94 1475 87 1483 70 1483 C57 1483 51 1478 51 1467 L51 1456 C51 1425 87 1405 135 1405 C154 1405 166 1410 185 1421 C205 1432 215 1437 232 1437 L232 1437 Z M120 1312 C120 1331 105 1344 85 1344 L61 1344 C50 1344 48 1342 48 1331 L48 102 C48 70 59 43 81 21 C106 -4 139 -16 182 -16 C227 -16 262 -2 286 25 C305 46 314 72 314 102 L314 1331 C314 1342 312 1344 301 1344 L277 1344 C257 1344 242 1331 242 1312 L242 103 C242 70 225 50 181 50 C159 50 143 56 132 68 C124 77 120 88 120 103 L120 1312 Z " />
<glyph glyph-name="utilde" unicode="&#x169;" horiz-adv-x="362" d="M231 1227 C242 1227 250 1226 255 1224 C262 1221 269 1217 277 1212 C280 1210 285 1209 291 1209 C304 1209 313 1214 313 1225 L313 1235 C313 1268 274 1287 226 1287 C208 1287 190 1282 173 1271 C156 1260 144 1255 127 1255 C110 1255 103 1259 94 1264 C93 1265 86 1273 69 1273 C56 1273 50 1268 50 1257 L50 1246 C50 1215 86 1195 134 1195 C153 1195 165 1200 184 1211 C204 1222 214 1227 231 1227 L231 1227 Z M120 1102 C120 1121 105 1134 85 1134 L61 1134 C50 1134 48 1132 48 1121 L48 102 C48 70 59 43 81 21 C106 -4 139 -16 182 -16 C227 -16 262 -2 286 25 C305 46 314 72 314 102 L314 1121 C314 1132 312 1134 301 1134 L277 1134 C257 1134 242 1121 242 1102 L242 103 C242 70 225 50 181 50 C159 50 143 56 132 68 C124 77 120 88 120 103 L120 1102 Z " />
<glyph glyph-name="Umacron" unicode="&#x16a;" horiz-adv-x="363" d="M81 1464 C74 1464 70 1461 70 1454 L70 1439 C70 1419 81 1406 98 1406 L266 1406 C283 1406 295 1419 295 1439 L295 1454 C295 1461 291 1464 283 1464 L81 1464 Z M120 1312 C120 1331 105 1344 85 1344 L61 1344 C50 1344 48 1342 48 1331 L48 102 C48 70 59 43 81 21 C106 -4 139 -16 182 -16 C227 -16 262 -2 286 25 C305 46 314 72 314 102 L314 1331 C314 1342 312 1344 301 1344 L277 1344 C257 1344 242 1331 242 1312 L242 103 C242 70 225 50 181 50 C159 50 143 56 132 68 C124 77 120 88 120 103 L120 1312 Z " />
<glyph glyph-name="umacron" unicode="&#x16b;" horiz-adv-x="362" d="M80 1253 C73 1253 69 1250 69 1243 L69 1228 C69 1208 80 1195 97 1195 L265 1195 C282 1195 294 1208 294 1228 L294 1243 C294 1250 290 1253 282 1253 L80 1253 Z M120 1102 C120 1121 105 1134 85 1134 L61 1134 C50 1134 48 1132 48 1121 L48 102 C48 70 59 43 81 21 C106 -4 139 -16 182 -16 C227 -16 262 -2 286 25 C305 46 314 72 314 102 L314 1121 C314 1132 312 1134 301 1134 L277 1134 C257 1134 242 1121 242 1102 L242 103 C242 70 225 50 181 50 C159 50 143 56 132 68 C124 77 120 88 120 103 L120 1102 Z " />
<glyph glyph-name="Ubreve" unicode="&#x16c;" horiz-adv-x="363" d="M287 1640 C287 1648 283 1652 276 1652 L260 1652 C244 1652 236 1642 235 1622 C232 1558 226 1513 216 1488 C207 1464 195 1452 180 1452 C163 1452 150 1464 142 1488 C132 1517 127 1562 126 1623 C125 1643 113 1652 101 1652 L85 1652 C78 1652 75 1645 75 1640 C75 1556 82 1497 97 1462 C113 1423 139 1406 180 1406 C219 1406 246 1424 263 1461 C279 1498 287 1558 287 1640 L287 1640 Z M120 1312 C120 1331 105 1344 85 1344 L61 1344 C50 1344 48 1342 48 1331 L48 102 C48 70 59 43 81 21 C106 -4 139 -16 182 -16 C227 -16 262 -2 286 25 C305 46 314 72 314 102 L314 1331 C314 1342 312 1344 301 1344 L277 1344 C257 1344 242 1331 242 1312 L242 103 C242 70 225 50 181 50 C159 50 143 56 132 68 C124 77 120 88 120 103 L120 1312 Z " />
<glyph glyph-name="ubreve" unicode="&#x16d;" horiz-adv-x="362" d="M287 1430 C287 1438 283 1442 276 1442 L260 1442 C244 1442 236 1432 235 1412 C232 1348 226 1303 216 1278 C207 1254 195 1242 180 1242 C163 1242 150 1254 142 1278 C132 1307 127 1352 126 1413 C125 1433 113 1442 101 1442 L85 1442 C78 1442 75 1435 75 1430 C75 1346 82 1287 97 1252 C113 1213 139 1196 180 1196 C219 1196 246 1214 263 1251 C279 1288 287 1348 287 1430 L287 1430 Z M120 1102 C120 1121 105 1134 85 1134 L61 1134 C50 1134 48 1132 48 1121 L48 102 C48 70 59 43 81 21 C106 -4 139 -16 182 -16 C227 -16 262 -2 286 25 C305 46 314 72 314 102 L314 1121 C314 1132 312 1134 301 1134 L277 1134 C257 1134 242 1121 242 1102 L242 103 C242 70 225 50 181 50 C159 50 143 56 132 68 C124 77 120 88 120 103 L120 1102 Z " />
<glyph glyph-name="Uring" unicode="&#x16e;" horiz-adv-x="363" d="M181 1569 C121 1569 87 1539 87 1487 C87 1435 121 1404 181 1404 C241 1404 275 1435 275 1487 C275 1539 241 1569 181 1569 L181 1569 Z M181 1452 C157 1452 145 1464 145 1487 C145 1511 156 1524 181 1524 C205 1524 217 1511 217 1487 C217 1464 205 1452 181 1452 L181 1452 Z M120 1312 C120 1331 105 1344 85 1344 L61 1344 C50 1344 48 1342 48 1331 L48 102 C48 70 59 43 81 21 C106 -4 139 -16 182 -16 C227 -16 262 -2 286 25 C305 46 314 72 314 102 L314 1331 C314 1342 312 1344 301 1344 L277 1344 C257 1344 242 1331 242 1312 L242 103 C242 70 225 50 181 50 C159 50 143 56 132 68 C124 77 120 88 120 103 L120 1312 Z " />
<glyph glyph-name="uring" unicode="&#x16f;" horiz-adv-x="362" d="M181 1359 C121 1359 87 1329 87 1277 C87 1225 121 1194 181 1194 C241 1194 275 1225 275 1277 C275 1329 241 1359 181 1359 L181 1359 Z M181 1242 C157 1242 145 1254 145 1277 C145 1301 156 1314 181 1314 C205 1314 217 1301 217 1277 C217 1254 205 1242 181 1242 L181 1242 Z M120 1102 C120 1121 105 1134 85 1134 L61 1134 C50 1134 48 1132 48 1121 L48 102 C48 70 59 43 81 21 C106 -4 139 -16 182 -16 C227 -16 262 -2 286 25 C305 46 314 72 314 102 L314 1121 C314 1132 312 1134 301 1134 L277 1134 C257 1134 242 1121 242 1102 L242 103 C242 70 225 50 181 50 C159 50 143 56 132 68 C124 77 120 88 120 103 L120 1102 Z " />
<glyph glyph-name="Uhungarumlaut" unicode="&#x170;" horiz-adv-x="363" d="M56 1420 C56 1415 62 1409 69 1409 L79 1409 C98 1409 107 1420 115 1441 L176 1638 C177 1645 178 1649 178 1652 C178 1665 170 1671 154 1671 L128 1671 C117 1671 110 1665 109 1657 L57 1424 L56 1420 Z M192 1424 C192 1416 197 1409 205 1409 L215 1409 C234 1409 246 1420 251 1441 L312 1638 C314 1643 315 1648 315 1653 C315 1665 307 1671 290 1671 L263 1671 C252 1671 246 1665 245 1657 L192 1424 Z M120 1312 C120 1331 105 1344 85 1344 L61 1344 C50 1344 48 1342 48 1331 L48 102 C48 70 59 43 81 21 C106 -4 139 -16 182 -16 C227 -16 262 -2 286 25 C305 46 314 72 314 102 L314 1331 C314 1342 312 1344 301 1344 L277 1344 C257 1344 242 1331 242 1312 L242 103 C242 70 225 50 181 50 C159 50 143 56 132 68 C124 77 120 88 120 103 L120 1312 Z " />
<glyph glyph-name="uhungarumlaut" unicode="&#x171;" horiz-adv-x="362" d="M92 1207 C92 1202 98 1196 105 1196 L115 1196 C134 1196 143 1207 151 1228 L212 1425 C213 1432 214 1436 214 1439 C214 1452 206 1458 190 1458 L164 1458 C153 1458 146 1452 145 1444 L93 1211 L92 1207 Z M228 1211 C228 1203 233 1196 241 1196 L251 1196 C270 1196 282 1207 287 1228 L348 1425 C350 1430 351 1435 351 1440 C351 1452 343 1458 326 1458 L299 1458 C288 1458 282 1452 281 1444 L228 1211 Z M120 1102 C120 1121 105 1134 85 1134 L61 1134 C50 1134 48 1132 48 1121 L48 102 C48 70 59 43 81 21 C106 -4 139 -16 182 -16 C227 -16 262 -2 286 25 C305 46 314 72 314 102 L314 1121 C314 1132 312 1134 301 1134 L277 1134 C257 1134 242 1121 242 1102 L242 103 C242 70 225 50 181 50 C159 50 143 56 132 68 C124 77 120 88 120 103 L120 1102 Z " />
<glyph glyph-name="Uogonek" unicode="&#x172;" horiz-adv-x="363" d="M277 1344 C257 1344 242 1331 242 1312 L242 103 C242 70 225 50 181 50 C159 50 143 56 132 68 C124 77 120 88 120 103 L120 1312 C120 1331 105 1344 85 1344 L61 1344 C50 1344 48 1342 48 1331 L48 102 C48 70 59 43 81 21 C94 8 109 -1 128 -8 C107 -23 97 -47 97 -80 L97 -112 C97 -189 145 -232 226 -232 C241 -232 257 -221 257 -200 L257 -186 C258 -176 253 -171 242 -171 C189 -171 162 -147 162 -111 L162 -78 C162 -47 173 -26 195 -16 C234 -13 265 0 286 25 C305 46 314 72 314 102 L314 1331 C314 1342 312 1344 301 1344 L277 1344 Z " />
<glyph glyph-name="uogonek" unicode="&#x173;" horiz-adv-x="362" d="M277 1134 C257 1134 242 1121 242 1102 L242 103 C242 70 225 50 181 50 C159 50 143 56 132 68 C124 77 120 88 120 103 L120 1102 C120 1121 105 1134 85 1134 L61 1134 C50 1134 48 1132 48 1121 L48 102 C48 70 59 43 81 21 C96 6 115 -5 136 -10 C124 -25 118 -46 118 -71 L118 -103 C118 -180 166 -223 247 -223 C262 -223 278 -212 278 -191 L278 -177 C279 -167 274 -162 263 -162 C210 -162 183 -138 183 -102 L183 -69 C183 -44 190 -26 203 -15 C238 -12 265 2 286 25 C305 46 314 72 314 102 L314 1121 C314 1132 312 1134 301 1134 L277 1134 Z " />
<glyph glyph-name="Wcircumflex" unicode="&#x174;" horiz-adv-x="573" d="M322 1659 C321 1665 317 1668 310 1668 L262 1668 C255 1668 251 1665 250 1659 L187 1416 C186 1415 186 1414 186 1413 C186 1409 191 1406 196 1406 L221 1406 C238 1406 247 1415 250 1431 L286 1618 L322 1431 C325 1414 335 1406 350 1406 L376 1406 C381 1406 387 1409 386 1416 L322 1659 Z M356 19 C356 6 363 0 376 0 L421 0 L422 1 L423 0 C444 0 453 2 456 19 L558 1330 C558 1342 557 1344 545 1344 L522 1344 C502 1344 486 1333 483 1314 L406 170 L333 1314 C332 1330 318 1343 302 1343 L270 1343 C254 1343 242 1330 239 1314 L167 177 L90 1314 C89 1333 71 1344 51 1344 L28 1344 C18 1344 14 1339 16 1330 L118 19 C119 6 125 0 138 0 L196 0 C210 0 217 6 218 19 L286 1095 L356 19 Z " />
<glyph glyph-name="wcircumflex" unicode="&#x175;" horiz-adv-x="540" d="M307 1449 C306 1455 302 1458 295 1458 L247 1458 C240 1458 236 1455 235 1449 L172 1206 C171 1205 171 1204 171 1203 C171 1199 176 1196 181 1196 L206 1196 C223 1196 232 1205 235 1221 L271 1408 L307 1221 C310 1204 320 1196 335 1196 L361 1196 C366 1196 372 1199 371 1206 L307 1449 Z M526 1123 C525 1130 521 1133 513 1133 L491 1133 C470 1133 452 1122 451 1103 L383 165 L322 1103 C319 1122 302 1133 282 1133 L258 1133 C238 1133 221 1122 220 1103 L158 165 L90 1103 C89 1122 72 1133 51 1133 L28 1133 C17 1133 15 1130 16 1119 L108 19 C109 6 116 0 129 0 L187 0 C200 0 207 6 208 19 L270 941 L333 19 C336 3 346 0 366 0 L412 0 C425 0 432 6 434 19 L525 1119 L526 1123 Z " />
<glyph glyph-name="Ycircumflex" unicode="&#x176;" horiz-adv-x="328" d="M199 1659 C198 1665 194 1668 187 1668 L139 1668 C132 1668 128 1665 127 1659 L64 1416 C63 1415 63 1414 63 1413 C63 1409 68 1406 73 1406 L98 1406 C115 1406 124 1415 127 1431 L163 1618 L199 1431 C202 1414 212 1406 227 1406 L253 1406 C258 1406 264 1409 263 1416 L199 1659 Z M312 1329 L312 1334 C312 1341 308 1344 299 1344 L277 1344 C257 1344 239 1333 236 1314 L164 655 L92 1314 C89 1333 71 1344 51 1344 L29 1344 C18 1344 14 1339 16 1329 L128 472 L128 20 C128 7 134 0 147 0 L181 0 C194 0 200 7 200 20 L200 472 L312 1329 Z " />
<glyph glyph-name="ycircumflex" unicode="&#x177;" horiz-adv-x="307" d="M192 1449 C191 1455 187 1458 180 1458 L132 1458 C125 1458 121 1455 120 1449 L57 1206 C56 1205 56 1204 56 1203 C56 1199 61 1196 66 1196 L91 1196 C108 1196 117 1205 120 1221 L156 1408 L192 1221 C195 1204 205 1196 220 1196 L246 1196 C251 1196 257 1199 256 1206 L192 1449 Z M293 1120 L293 1123 C293 1130 289 1133 280 1133 L258 1133 C238 1133 219 1123 218 1108 L155 563 L92 1108 C89 1124 71 1133 51 1133 L29 1133 C18 1133 14 1129 16 1120 L118 399 L118 17 C118 6 125 0 138 0 L171 0 C184 0 190 6 190 17 L190 399 L293 1120 Z " />
<glyph glyph-name="Ydieresis" unicode="&#x178;" horiz-adv-x="328" d="M103 1495 C76 1495 63 1479 63 1451 C63 1422 76 1408 103 1408 C130 1408 143 1422 143 1451 C143 1479 130 1495 103 1495 L103 1495 Z M224 1495 C199 1495 184 1478 184 1451 C184 1424 199 1408 224 1408 C251 1408 265 1424 265 1451 C265 1479 251 1495 224 1495 L224 1495 Z M312 1329 L312 1334 C312 1341 308 1344 299 1344 L277 1344 C257 1344 239 1333 236 1314 L164 655 L92 1314 C89 1333 71 1344 51 1344 L29 1344 C18 1344 14 1339 16 1329 L128 472 L128 20 C128 7 134 0 147 0 L181 0 C194 0 200 7 200 20 L200 472 L312 1329 Z " />
<glyph glyph-name="Zacute" unicode="&#x179;" horiz-adv-x="297" d="M95 1418 C95 1413 101 1407 108 1407 L118 1407 C137 1407 146 1418 154 1439 L218 1636 C219 1639 220 1644 220 1649 C220 1661 210 1669 193 1669 L167 1669 C156 1669 149 1663 148 1655 L96 1422 L95 1418 Z M49 1344 C41 1344 39 1339 39 1327 L39 1316 C39 1291 51 1278 74 1278 L182 1278 L30 30 C26 9 43 0 67 0 L259 0 C266 0 269 6 269 17 L269 28 C269 54 257 67 233 67 L105 67 L260 1325 L261 1331 C261 1342 255 1344 240 1344 L49 1344 Z " />
<glyph glyph-name="zacute" unicode="&#x17a;" horiz-adv-x="294" d="M132 1207 C132 1202 138 1196 145 1196 L155 1196 C174 1196 183 1207 191 1228 L255 1425 C256 1428 257 1433 257 1438 C257 1450 247 1458 230 1458 L204 1458 C193 1458 186 1452 185 1444 L133 1211 L132 1207 Z M49 1133 C41 1133 39 1128 39 1116 L39 1105 C39 1080 51 1067 74 1067 L181 1067 L30 30 C26 9 43 0 67 0 L259 0 C266 0 269 6 269 17 L269 28 C269 54 257 67 233 67 L107 67 L260 1114 L261 1121 C261 1129 254 1133 241 1133 L49 1133 Z " />
<glyph glyph-name="Zdotaccent" unicode="&#x17b;" horiz-adv-x="297" d="M149 1506 C114 1506 96 1488 96 1460 C96 1432 114 1414 149 1414 C184 1414 202 1432 202 1460 C202 1488 184 1506 149 1506 L149 1506 Z M49 1344 C41 1344 39 1339 39 1327 L39 1316 C39 1291 51 1278 74 1278 L182 1278 L30 30 C26 9 43 0 67 0 L259 0 C266 0 269 6 269 17 L269 28 C269 54 257 67 233 67 L105 67 L260 1325 L261 1331 C261 1342 255 1344 240 1344 L49 1344 Z " />
<glyph glyph-name="zdotaccent" unicode="&#x17c;" horiz-adv-x="294" d="M150 1295 C115 1295 97 1277 97 1249 C97 1221 115 1203 150 1203 C185 1203 203 1221 203 1249 C203 1277 185 1295 150 1295 L150 1295 Z M49 1133 C41 1133 39 1128 39 1116 L39 1105 C39 1080 51 1067 74 1067 L181 1067 L30 30 C26 9 43 0 67 0 L259 0 C266 0 269 6 269 17 L269 28 C269 54 257 67 233 67 L107 67 L260 1114 L261 1121 C261 1129 254 1133 241 1133 L49 1133 Z " />
<glyph glyph-name="Zcaron" unicode="&#x17d;" horiz-adv-x="297" d="M248 1661 C248 1666 243 1669 238 1669 L212 1669 C195 1669 186 1661 184 1644 L148 1457 L112 1644 C110 1661 100 1669 83 1669 L58 1669 C53 1669 46 1664 49 1660 L112 1417 C113 1410 117 1407 124 1407 L172 1407 C179 1407 183 1410 184 1417 L248 1660 L248 1661 Z M49 1344 C41 1344 39 1339 39 1327 L39 1316 C39 1291 51 1278 74 1278 L182 1278 L30 30 C26 9 43 0 67 0 L259 0 C266 0 269 6 269 17 L269 28 C269 54 257 67 233 67 L105 67 L260 1325 L261 1331 C261 1342 255 1344 240 1344 L49 1344 Z " />
<glyph glyph-name="zcaron" unicode="&#x17e;" horiz-adv-x="294" d="M250 1450 C250 1455 245 1458 240 1458 L214 1458 C197 1458 188 1450 186 1433 L150 1246 L114 1433 C112 1450 102 1458 85 1458 L60 1458 C55 1458 48 1453 51 1449 L114 1206 C115 1199 119 1196 126 1196 L174 1196 C181 1196 185 1199 186 1206 L250 1449 L250 1450 Z M49 1133 C41 1133 39 1128 39 1116 L39 1105 C39 1080 51 1067 74 1067 L181 1067 L30 30 C26 9 43 0 67 0 L259 0 C266 0 269 6 269 17 L269 28 C269 54 257 67 233 67 L107 67 L260 1114 L261 1121 C261 1129 254 1133 241 1133 L49 1133 Z " />
<glyph glyph-name="longs" unicode="&#x17f;" horiz-adv-x="278" d="M61 1134 C50 1134 48 1132 48 1121 L48 -196 C48 -205 52 -210 60 -210 L85 -210 C105 -210 120 -197 120 -178 L120 521 L222 521 C247 521 259 534 259 559 L259 570 C259 581 255 587 248 587 L120 587 L120 1068 L231 1068 C256 1068 268 1081 268 1106 L268 1117 C268 1128 264 1134 257 1134 L61 1134 Z " />
<glyph glyph-name="florin" unicode="&#x192;" horiz-adv-x="296" d="M63 1134 C52 1134 50 1132 50 1121 L50 -27 L19 -27 C-6 -27 -18 -40 -18 -65 L-18 -76 C-18 -89 -18 -93 -7 -93 L86 -93 C106 -93 122 -80 122 -61 L122 521 L223 521 C248 521 260 534 260 559 L260 570 C260 581 256 587 249 587 L122 587 L122 1068 L233 1068 C258 1068 270 1081 270 1106 L270 1117 C270 1128 266 1134 259 1134 L63 1134 Z " />
<glyph glyph-name="AEacute" unicode="&#x1fc;" horiz-adv-x="471" d="M258 1417 C258 1412 264 1406 271 1406 L281 1406 C300 1406 309 1417 317 1438 L381 1635 C382 1638 383 1643 383 1648 C383 1660 373 1668 356 1668 L330 1668 C319 1668 312 1662 311 1654 L259 1421 L258 1417 Z M20 11 C20 2 24 0 39 0 L64 0 C85 0 93 15 97 39 L122 243 L230 243 L230 14 C230 2 233 0 253 0 L440 0 C447 0 451 6 451 17 L451 28 C451 45 444 56 429 62 C420 65 405 66 382 66 L303 66 L303 632 L404 632 C429 632 442 645 442 671 L442 683 C442 695 441 698 430 698 L303 698 L303 1278 L413 1278 C438 1278 451 1291 451 1316 L451 1327 C451 1338 447 1344 440 1344 L235 1344 C215 1344 204 1341 203 1325 L20 14 L20 11 Z M230 1115 L230 308 L133 308 L230 1115 Z " />
<glyph glyph-name="aeacute" unicode="&#x1fd;" horiz-adv-x="435" d="M212 1207 C212 1202 218 1196 225 1196 L235 1196 C254 1196 263 1207 271 1228 L335 1425 C336 1428 337 1433 337 1438 C337 1450 327 1458 310 1458 L284 1458 C273 1458 266 1452 265 1444 L213 1211 L212 1207 Z M408 0 C419 0 420 5 420 17 L420 28 C420 53 407 66 382 66 L271 66 L271 526 L357 526 C393 526 410 536 410 567 L410 573 C410 588 410 592 399 592 L271 592 L271 1067 L382 1067 C407 1067 420 1080 420 1105 L420 1116 C420 1128 419 1133 408 1133 L182 1133 C165 1133 158 1129 155 1114 L13 14 C12 12 12 10 12 7 C12 2 16 0 23 0 L50 0 C73 0 82 9 85 26 L109 216 L199 216 L199 13 C199 2 201 0 212 0 L408 0 Z M199 974 L199 281 L115 281 L196 974 L199 974 Z " />
<glyph glyph-name="Oslashacute" unicode="&#x1fe;" horiz-adv-x="363" d="M153 1417 C153 1412 159 1406 166 1406 L176 1406 C195 1406 204 1417 212 1438 L276 1635 C277 1638 278 1643 278 1648 C278 1660 268 1668 251 1668 L225 1668 C214 1668 207 1662 206 1654 L154 1421 L153 1417 Z M48 103 C48 77 54 55 67 37 L34 -126 L33 -130 C33 -137 37 -140 45 -140 L58 -140 C78 -140 93 -129 97 -110 L118 -4 C137 -11 158 -15 182 -15 C229 -15 264 -1 288 26 C306 47 315 73 315 103 L315 1242 C315 1264 310 1284 299 1303 L332 1470 L333 1475 C333 1481 329 1484 322 1484 L302 1484 C287 1484 277 1475 272 1458 L249 1347 C231 1356 209 1360 182 1360 C137 1360 102 1348 79 1323 C59 1302 48 1271 48 1242 L48 103 Z M120 1241 C120 1273 138 1295 182 1295 C223 1295 243 1277 243 1241 L243 104 C243 68 223 50 182 50 C138 50 120 72 120 104 L120 1241 Z " />
<glyph glyph-name="oslashacute" unicode="&#x1ff;" horiz-adv-x="367" d="M147 1207 C147 1202 153 1196 160 1196 L170 1196 C189 1196 198 1207 206 1228 L270 1425 C271 1428 272 1433 272 1438 C272 1450 262 1458 245 1458 L219 1458 C208 1458 201 1452 200 1444 L148 1211 L147 1207 Z M48 103 C48 77 54 55 67 37 L34 -126 L33 -130 C33 -137 37 -140 45 -140 L58 -140 C78 -140 93 -129 97 -110 L118 -4 C137 -11 158 -15 182 -15 C229 -15 264 -1 288 26 C306 47 315 73 315 103 L315 1032 C315 1054 310 1074 299 1093 L332 1260 L333 1265 C333 1271 329 1274 322 1274 L302 1274 C287 1274 277 1265 272 1248 L249 1137 C231 1146 209 1150 182 1150 C137 1150 102 1138 79 1113 C59 1092 48 1061 48 1032 L48 103 Z M120 1031 C120 1063 138 1085 182 1085 C223 1085 243 1067 243 1031 L243 104 C243 68 223 50 182 50 C138 50 120 72 120 104 L120 1031 Z " />
<glyph glyph-name="Scommaaccent" unicode="&#x218;" horiz-adv-x="362" d="M181 -16 C264 -16 314 31 314 102 C314 175 309 247 300 316 C282 438 254 564 217 693 C198 758 183 817 170 870 C138 1002 119 1117 119 1241 C119 1273 137 1295 181 1295 C222 1295 242 1277 242 1241 L242 894 C242 873 260 865 277 865 L301 865 C310 865 314 868 314 874 L314 1243 C314 1314 264 1361 181 1361 C98 1361 47 1314 47 1243 C47 1170 52 1100 62 1035 C78 924 106 801 145 668 C158 624 173 565 192 490 C224 354 242 235 242 103 C242 68 222 50 181 50 C138 50 120 72 120 103 L120 448 C120 468 102 477 86 477 L61 477 C52 477 48 474 48 468 L48 102 C48 31 98 -16 181 -16 L181 -16 Z " />
<glyph glyph-name="scommaaccent" unicode="&#x219;" horiz-adv-x="362" d="M181 -16 C264 -16 314 31 314 102 C314 175 309 241 300 300 C282 402 254 497 217 586 C198 631 183 674 170 713 C138 810 119 905 119 1029 C119 1061 137 1084 181 1084 C222 1084 242 1066 242 1030 L242 754 C242 734 261 725 277 725 L301 725 C310 725 314 728 314 734 L314 1031 C314 1103 264 1149 181 1149 C98 1149 47 1103 47 1031 C47 958 52 894 62 839 C78 745 106 652 145 560 C158 528 174 486 192 434 C224 334 242 232 242 103 C242 68 222 50 181 50 C138 50 120 72 120 103 L120 377 C120 397 102 405 86 405 L61 405 C52 405 48 402 48 396 L48 102 C48 31 98 -16 181 -16 L181 -16 Z M180 -215 C180 -220 183 -223 188 -223 C199 -223 209 -213 218 -193 C227 -172 232 -150 232 -126 C232 -97 212 -71 180 -71 C148 -71 130 -88 130 -115 C130 -143 147 -158 180 -159 L180 -215 Z " />
<glyph glyph-name="uni021A" unicode="&#x21a;" horiz-adv-x="305" d="M26 1344 C19 1344 15 1338 15 1327 L15 1316 C15 1291 27 1278 52 1278 L118 1278 L118 20 C118 7 124 0 137 0 L171 0 C184 0 191 7 191 20 L191 1278 L255 1278 C280 1278 292 1291 292 1316 L292 1327 C292 1338 288 1344 281 1344 L26 1344 Z M152 -211 C152 -216 155 -219 160 -219 C171 -219 181 -209 190 -189 C199 -168 204 -146 204 -122 C204 -93 184 -67 152 -67 C120 -67 102 -84 102 -111 C102 -139 119 -154 152 -155 L152 -211 Z " />
<glyph glyph-name="uni021B" unicode="&#x21b;" horiz-adv-x="306" d="M191 1067 L255 1067 C280 1067 292 1080 292 1105 L292 1116 C292 1127 288 1133 281 1133 L26 1133 C19 1133 15 1127 15 1116 L15 1105 C15 1080 27 1067 52 1067 L118 1067 L118 20 C118 7 124 0 137 0 L171 0 C184 0 191 7 191 20 L191 1067 Z M152 -211 C152 -216 155 -219 160 -219 C171 -219 181 -209 190 -189 C199 -168 204 -146 204 -122 C204 -93 184 -67 152 -67 C120 -67 102 -84 102 -111 C102 -139 119 -154 152 -155 L152 -211 Z " />
<glyph glyph-name="circumflex" unicode="&#x2c6;" horiz-adv-x="344" d="M144 1449 C143 1455 139 1458 132 1458 L84 1458 C77 1458 73 1455 72 1449 L9 1206 C8 1205 8 1204 8 1203 C8 1199 13 1196 18 1196 L43 1196 C60 1196 69 1205 72 1221 L108 1408 L144 1221 C147 1204 157 1196 172 1196 L198 1196 C203 1196 209 1199 208 1206 L144 1449 Z " />
<glyph glyph-name="caron" unicode="&#x2c7;" horiz-adv-x="213" d="M208 1450 C208 1455 203 1458 198 1458 L172 1458 C155 1458 146 1450 144 1433 L108 1246 L72 1433 C70 1450 60 1458 43 1458 L18 1458 C13 1458 6 1453 9 1449 L72 1206 C73 1199 77 1196 84 1196 L132 1196 C139 1196 143 1199 144 1206 L208 1449 L208 1450 Z " />
<glyph glyph-name="breve" unicode="&#x2d8;" horiz-adv-x="345" d="M213 1430 C213 1438 209 1442 202 1442 L186 1442 C170 1442 162 1432 161 1412 C158 1348 152 1303 142 1278 C133 1254 121 1242 106 1242 C89 1242 76 1254 68 1278 C58 1307 53 1352 52 1413 C51 1433 39 1442 27 1442 L11 1442 C4 1442 1 1435 1 1430 C1 1346 8 1287 23 1252 C39 1213 65 1196 106 1196 C145 1196 172 1214 189 1251 C205 1288 213 1348 213 1430 L213 1430 Z " />
<glyph glyph-name="dotaccent" unicode="&#x2d9;" horiz-adv-x="163" d="M81 1295 C46 1295 28 1277 28 1249 C28 1221 46 1203 81 1203 C116 1203 134 1221 134 1249 C134 1277 116 1295 81 1295 L81 1295 Z " />
<glyph glyph-name="ring" unicode="&#x2da;" horiz-adv-x="465" d="M226 1359 C166 1359 132 1329 132 1277 C132 1225 166 1194 226 1194 C286 1194 320 1225 320 1277 C320 1329 286 1359 226 1359 L226 1359 Z M226 1242 C202 1242 190 1254 190 1277 C190 1301 201 1314 226 1314 C250 1314 262 1301 262 1277 C262 1254 250 1242 226 1242 L226 1242 Z " />
<glyph glyph-name="ogonek" unicode="&#x2db;" horiz-adv-x="1437" d="M181 0 C182 2 182 5 182 8 C182 17 177 22 167 22 C130 22 102 16 84 5 C60 -10 48 -36 48 -71 L48 -103 C48 -180 96 -223 177 -223 C192 -223 208 -212 208 -191 L208 -177 L208 -175 C208 -166 203 -162 193 -162 C140 -162 113 -138 113 -102 L113 -69 C113 -23 136 0 181 0 L181 0 Z " />
<glyph glyph-name="tilde" unicode="&#x2dc;" horiz-adv-x="417" d="M249 1227 C260 1227 268 1226 273 1224 C280 1221 287 1217 295 1212 C298 1210 303 1209 309 1209 C322 1209 331 1214 331 1225 L331 1235 C331 1268 292 1287 244 1287 C226 1287 208 1282 191 1271 C174 1260 162 1255 145 1255 C128 1255 121 1259 112 1264 C111 1265 104 1273 87 1273 C74 1273 68 1268 68 1257 L68 1246 C68 1215 104 1195 152 1195 C171 1195 183 1200 202 1211 C222 1222 232 1227 249 1227 L249 1227 Z " />
<glyph glyph-name="hungarumlaut" unicode="&#x2dd;" horiz-adv-x="278" d="M23 1207 C23 1202 29 1196 36 1196 L46 1196 C65 1196 74 1207 82 1228 L143 1425 C144 1432 145 1436 145 1439 C145 1452 137 1458 121 1458 L95 1458 C84 1458 77 1452 76 1444 L24 1211 L23 1207 Z M159 1211 C159 1203 164 1196 172 1196 L182 1196 C201 1196 213 1207 218 1228 L279 1425 C281 1430 282 1435 282 1440 C282 1452 274 1458 257 1458 L230 1458 C219 1458 213 1452 212 1444 L159 1211 Z " />
<glyph glyph-name="tonos" unicode="&#x384;" horiz-adv-x="171" d="M51 1206 C51 1199 55 1196 63 1196 L76 1196 C93 1196 100 1206 104 1223 L120 1429 L121 1437 C121 1452 112 1460 94 1460 L64 1460 C55 1460 50 1455 50 1446 L51 1208 L51 1206 Z " />
<glyph glyph-name="Alphatonos" unicode="&#x386;" horiz-adv-x="345" d="M150 1409 C150 1402 154 1399 162 1399 L175 1399 C190 1399 199 1408 202 1426 L217 1632 C218 1634 218 1637 218 1641 C218 1656 209 1663 192 1663 L163 1663 C154 1663 149 1658 149 1649 L150 1411 L150 1409 Z M237 1325 C236 1342 228 1344 205 1344 L170 1344 C149 1344 138 1342 137 1325 L35 14 C35 2 36 0 47 0 L79 0 C98 0 108 10 109 30 L124 243 L250 243 L265 30 C266 10 277 0 296 0 L328 0 C339 0 339 2 339 14 L237 1325 Z M246 308 L128 308 L187 1176 L246 308 Z " />
<glyph glyph-name="Epsilontonos" unicode="&#x388;" horiz-adv-x="306" d="M139 1409 C139 1402 143 1399 151 1399 L164 1399 C179 1399 188 1408 191 1426 L206 1632 C207 1634 207 1637 207 1641 C207 1656 198 1663 181 1663 L152 1663 C143 1663 138 1658 138 1649 L139 1411 L139 1409 Z M63 1344 C52 1344 50 1342 50 1331 L50 14 C50 2 52 0 72 0 L259 0 C266 0 270 6 270 17 L270 28 C270 53 258 66 233 66 L122 66 L122 632 L224 632 C249 632 261 645 261 671 L261 683 C261 693 257 698 250 698 L122 698 L122 1278 L233 1278 C258 1278 270 1291 270 1316 L270 1327 C270 1338 266 1344 259 1344 L63 1344 Z " />
<glyph glyph-name="Etatonos" unicode="&#x389;" horiz-adv-x="362" d="M155 1409 C155 1402 159 1399 167 1399 L180 1399 C195 1399 204 1408 207 1426 L222 1632 C223 1634 223 1637 223 1641 C223 1656 214 1663 197 1663 L168 1663 C159 1663 154 1658 154 1649 L155 1411 L155 1409 Z M314 1331 C314 1342 312 1344 301 1344 L277 1344 C256 1344 241 1331 241 1311 L241 715 L120 715 L120 1311 C120 1331 106 1344 86 1344 L61 1344 C50 1344 48 1342 48 1331 L48 13 C48 4 52 0 61 0 L85 0 C106 0 120 11 120 34 L120 651 L241 651 L241 34 C241 11 256 0 277 0 L301 0 C310 0 314 4 314 13 L314 1331 Z " />
<glyph glyph-name="Iotatonos" unicode="&#x38a;" horiz-adv-x="172" d="M63 1409 C63 1402 67 1399 75 1399 L88 1399 C103 1399 112 1408 115 1426 L130 1632 C131 1634 131 1637 131 1641 C131 1656 122 1663 105 1663 L76 1663 C67 1663 62 1658 62 1649 L63 1411 L63 1409 Z M122 1331 C122 1342 121 1344 110 1344 L86 1344 C66 1344 50 1331 50 1311 L50 20 C50 7 56 0 69 0 L103 0 C116 0 122 7 122 20 L122 1331 Z " />
<glyph glyph-name="Omicrontonos" unicode="&#x38c;" horiz-adv-x="363" d="M156 1409 C156 1402 160 1399 168 1399 L181 1399 C196 1399 205 1408 208 1426 L223 1632 C224 1634 224 1637 224 1641 C224 1656 215 1663 198 1663 L169 1663 C160 1663 155 1658 155 1649 L156 1411 L156 1409 Z M48 103 C48 73 58 47 77 26 C100 -1 135 -15 182 -15 C229 -15 264 -1 288 26 C306 47 315 73 315 103 L315 1242 C315 1271 305 1302 285 1323 C262 1348 227 1360 182 1360 C137 1360 102 1348 79 1323 C59 1302 48 1271 48 1242 L48 103 Z M120 1241 C120 1273 138 1295 182 1295 C223 1295 243 1277 243 1241 L243 104 C243 68 223 50 182 50 C138 50 120 72 120 104 L120 1241 Z " />
<glyph glyph-name="Upsilontonos" unicode="&#x38e;" horiz-adv-x="328" d="M141 1412 C141 1405 145 1402 153 1402 L166 1402 C183 1402 190 1412 194 1429 L210 1635 L211 1643 C211 1658 202 1666 184 1666 L154 1666 C145 1666 140 1661 140 1652 L141 1414 L141 1412 Z M312 1329 L312 1334 C312 1341 308 1344 299 1344 L277 1344 C257 1344 239 1333 236 1314 L164 655 L92 1314 C89 1333 71 1344 51 1344 L29 1344 C18 1344 14 1339 16 1329 L128 472 L128 20 C128 7 134 0 147 0 L181 0 C194 0 200 7 200 20 L200 472 L312 1329 Z " />
<glyph glyph-name="Omegatonos" unicode="&#x38f;" horiz-adv-x="363" d="M156 1409 C156 1402 160 1399 168 1399 L181 1399 C196 1399 205 1408 208 1426 L223 1632 C224 1634 224 1637 224 1641 C224 1656 215 1663 198 1663 L169 1663 C160 1663 155 1658 155 1649 L156 1411 L156 1409 Z M120 1241 C120 1273 138 1295 182 1295 C223 1295 243 1277 243 1241 L243 496 C243 453 235 419 220 375 C204 328 197 301 197 262 L197 15 C197 3 198 0 209 0 L312 0 C320 0 322 5 322 17 L322 31 C322 58 311 68 290 68 L264 68 L264 249 C264 298 284 348 289 362 C305 410 314 440 314 483 L315 1242 C315 1272 307 1297 291 1317 C267 1346 231 1360 182 1360 C132 1360 96 1346 73 1317 C56 1297 48 1272 48 1242 L47 483 C47 439 57 406 76 362 C96 315 105 288 105 249 L105 68 L78 68 C57 68 47 58 47 31 L47 17 C47 4 48 0 56 0 L159 0 C170 0 171 3 171 15 L171 262 C171 299 165 320 146 375 C129 422 120 453 120 496 L120 1241 Z " />
<glyph glyph-name="Alpha" unicode="&#x391;" horiz-adv-x="345" d="M222 1325 C221 1342 213 1344 190 1344 L155 1344 C134 1344 123 1342 122 1325 L20 14 C20 2 21 0 32 0 L64 0 C83 0 93 10 94 30 L109 243 L235 243 L250 30 C251 10 262 0 281 0 L313 0 C324 0 324 2 324 14 L222 1325 Z M231 308 L113 308 L172 1176 L231 308 Z " />
<glyph glyph-name="Beta" unicode="&#x392;" horiz-adv-x="363" d="M176 0 C229 0 267 15 290 44 C306 64 314 89 314 119 L314 551 L314 588 C314 601 313 613 311 625 C306 651 296 671 279 685 C289 694 296 703 301 714 C310 734 314 760 314 792 L314 834 L314 1224 C314 1255 306 1281 290 1301 C267 1330 231 1344 181 1344 L61 1344 C50 1344 48 1342 48 1331 L48 13 C48 2 49 0 60 0 L176 0 Z M181 1278 C222 1278 242 1260 242 1224 L242 817 C242 803 242 792 243 785 C243 772 242 761 239 752 C232 729 215 717 187 717 L120 717 L120 1278 L181 1278 Z M187 652 C204 652 216 649 223 642 C236 631 243 612 243 585 C242 577 242 566 242 552 L242 120 C242 84 222 66 181 66 L120 66 L120 652 L187 652 Z " />
<glyph glyph-name="Gamma" unicode="&#x393;" horiz-adv-x="281" d="M48 13 C48 2 50 0 61 0 L85 0 C105 0 120 13 120 32 L120 1278 L231 1278 C256 1278 268 1291 268 1316 L268 1327 C268 1338 264 1344 257 1344 L60 1344 C49 1344 48 1341 48 1329 L48 13 Z " />
<glyph glyph-name="uni0394" unicode="&#x394;" horiz-adv-x="345" d="M313 0 C324 0 324 2 324 14 L222 1325 C221 1342 217 1344 201 1344 L143 1344 C127 1344 123 1340 122 1325 L20 14 C20 2 21 0 32 0 L313 0 Z M247 66 L96 66 L172 1176 L247 66 Z " />
<glyph glyph-name="Epsilon" unicode="&#x395;" horiz-adv-x="306" d="M63 1344 C52 1344 50 1342 50 1331 L50 14 C50 2 52 0 72 0 L259 0 C266 0 270 6 270 17 L270 28 C270 53 258 66 233 66 L122 66 L122 632 L224 632 C249 632 261 645 261 671 L261 683 C261 693 257 698 250 698 L122 698 L122 1278 L233 1278 C258 1278 270 1291 270 1316 L270 1327 C270 1338 266 1344 259 1344 L63 1344 Z " />
<glyph glyph-name="Zeta" unicode="&#x396;" horiz-adv-x="297" d="M49 1344 C41 1344 39 1339 39 1327 L39 1316 C39 1291 51 1278 74 1278 L182 1278 L30 30 C26 9 43 0 67 0 L259 0 C266 0 269 6 269 17 L269 28 C269 54 257 67 233 67 L105 67 L260 1325 L261 1331 C261 1342 255 1344 240 1344 L49 1344 Z " />
<glyph glyph-name="Eta" unicode="&#x397;" horiz-adv-x="362" d="M314 1331 C314 1342 312 1344 301 1344 L277 1344 C256 1344 241 1331 241 1311 L241 715 L120 715 L120 1311 C120 1331 106 1344 86 1344 L61 1344 C50 1344 48 1342 48 1331 L48 13 C48 4 52 0 61 0 L85 0 C106 0 120 11 120 34 L120 651 L241 651 L241 34 C241 11 256 0 277 0 L301 0 C310 0 314 4 314 13 L314 1331 Z " />
<glyph glyph-name="Theta" unicode="&#x398;" horiz-adv-x="363" d="M48 103 C48 73 58 47 77 26 C100 -1 135 -15 182 -15 C229 -15 264 -1 288 26 C306 47 315 73 315 103 L315 1242 C315 1271 305 1302 285 1323 C262 1348 227 1360 182 1360 C137 1360 102 1348 79 1323 C59 1302 48 1271 48 1242 L48 103 Z M120 1241 C120 1273 138 1295 182 1295 C223 1295 243 1277 243 1241 L243 697 L120 697 L120 1241 Z M182 50 C138 50 120 72 120 104 L120 633 L243 633 L243 104 C243 68 223 50 182 50 L182 50 Z " />
<glyph glyph-name="Iota" unicode="&#x399;" horiz-adv-x="172" d="M122 1331 C122 1342 121 1344 110 1344 L86 1344 C66 1344 50 1331 50 1311 L50 20 C50 7 56 0 69 0 L103 0 C116 0 122 7 122 20 L122 1331 Z " />
<glyph glyph-name="Kappa" unicode="&#x39a;" horiz-adv-x="366" d="M269 30 C270 11 289 0 309 0 L334 0 C346 0 347 2 346 14 L238 681 L346 1330 L346 1335 C346 1342 343 1344 334 1344 L309 1344 C289 1344 272 1333 269 1314 L172 714 L120 714 L120 1312 C120 1331 105 1344 85 1344 L61 1344 C50 1344 48 1342 48 1331 L48 13 C48 2 49 0 60 0 L85 0 C105 0 120 13 120 32 L120 651 L171 651 L269 30 Z " />
<glyph glyph-name="Lambda" unicode="&#x39b;" horiz-adv-x="336" d="M222 1325 C221 1338 214 1344 201 1344 L143 1344 C130 1344 123 1338 122 1325 L20 14 L20 10 C20 2 23 0 32 0 L55 0 C76 0 93 11 94 30 L172 1183 L250 30 C251 11 269 0 290 0 L313 0 C324 0 325 2 324 14 L222 1325 Z " />
<glyph glyph-name="Mu" unicode="&#x39c;" horiz-adv-x="477" d="M195 19 C196 6 203 0 216 0 L262 0 C276 0 283 6 283 19 L364 1026 L365 927 L359 34 C359 11 373 0 394 0 L418 0 C429 0 430 4 430 13 L430 1331 C430 1342 429 1344 418 1344 L363 1344 C342 1344 324 1333 323 1314 L239 188 L155 1314 C154 1333 137 1344 116 1344 L69 1344 C50 1344 48 1343 48 1331 L48 13 C48 4 52 0 61 0 L85 0 C106 0 120 11 120 34 L114 927 L115 1025 L195 19 Z " />
<glyph glyph-name="Nu" unicode="&#x39d;" horiz-adv-x="362" d="M314 1331 C314 1342 312 1344 301 1344 L277 1344 C256 1344 241 1331 241 1311 L247 402 L120 1315 C117 1332 105 1344 86 1344 L61 1344 C50 1344 48 1342 48 1331 L48 13 C48 4 52 0 61 0 L85 0 C106 0 121 13 120 34 L114 945 L241 29 C244 10 257 0 277 0 L301 0 C310 0 314 4 314 13 L314 1331 Z " />
<glyph glyph-name="Xi" unicode="&#x39e;" horiz-adv-x="320" d="M71 1344 C55 1344 48 1342 48 1327 L48 1316 C48 1291 60 1278 85 1278 L216 1278 C253 1278 272 1284 272 1316 L272 1327 C272 1338 268 1344 261 1344 L71 1344 Z M223 632 C247 632 264 646 264 671 L264 683 C264 693 260 698 252 698 L69 698 C60 698 56 693 56 683 L56 671 C56 645 68 632 93 632 L223 632 Z M250 0 C267 0 272 1 272 17 L272 28 C272 53 260 66 235 66 L88 66 C64 66 48 53 48 28 L48 17 C48 6 52 0 59 0 L250 0 Z " />
<glyph glyph-name="Omicron" unicode="&#x39f;" horiz-adv-x="363" d="M48 103 C48 73 58 47 77 26 C100 -1 135 -15 182 -15 C229 -15 264 -1 288 26 C306 47 315 73 315 103 L315 1242 C315 1271 305 1302 285 1323 C262 1348 227 1360 182 1360 C137 1360 102 1348 79 1323 C59 1302 48 1271 48 1242 L48 103 Z M120 1241 C120 1273 138 1295 182 1295 C223 1295 243 1277 243 1241 L243 104 C243 68 223 50 182 50 C138 50 120 72 120 104 L120 1241 Z " />
<glyph glyph-name="Pi" unicode="&#x3a0;" horiz-adv-x="366" d="M316 1331 C316 1340 314 1344 302 1344 L63 1344 C52 1344 50 1342 50 1331 L50 16 C50 4 51 0 62 0 L87 0 C107 0 122 13 122 32 L122 1278 L243 1278 L243 33 C243 13 259 0 279 0 L303 0 C314 0 316 2 316 13 L316 1331 Z " />
<glyph glyph-name="Rho" unicode="&#x3a1;" horiz-adv-x="343" d="M181 527 C264 527 314 573 314 645 L314 1225 C314 1298 264 1344 181 1344 L61 1344 C50 1344 48 1342 48 1331 L48 13 C48 2 50 0 61 0 L85 0 C105 0 120 13 120 32 L120 527 L181 527 Z M120 1278 L181 1278 C222 1278 242 1260 242 1224 L242 647 C242 616 226 593 187 593 L120 593 L120 1278 Z " />
<glyph glyph-name="Sigma" unicode="&#x3a3;" horiz-adv-x="297" d="M231 662 C232 667 233 671 233 672 C233 675 232 678 231 682 L116 1278 L229 1278 C252 1278 264 1291 264 1316 L264 1327 C264 1339 262 1344 254 1344 L58 1344 C42 1344 34 1332 37 1317 L158 672 L37 27 C33 9 43 0 67 0 L254 0 C262 0 264 5 264 17 L264 28 C264 53 252 66 229 66 L116 66 L231 662 Z " />
<glyph glyph-name="Tau" unicode="&#x3a4;" horiz-adv-x="305" d="M26 1344 C19 1344 15 1338 15 1327 L15 1316 C15 1291 27 1278 52 1278 L118 1278 L118 20 C118 7 124 0 137 0 L171 0 C184 0 191 7 191 20 L191 1278 L255 1278 C280 1278 292 1291 292 1316 L292 1327 C292 1338 288 1344 281 1344 L26 1344 Z " />
<glyph glyph-name="Upsilon" unicode="&#x3a5;" horiz-adv-x="328" d="M312 1329 L312 1334 C312 1341 308 1344 299 1344 L277 1344 C257 1344 239 1333 236 1314 L164 655 L92 1314 C89 1333 71 1344 51 1344 L29 1344 C18 1344 14 1339 16 1329 L128 472 L128 20 C128 7 134 0 147 0 L181 0 C194 0 200 7 200 20 L200 472 L312 1329 Z " />
<glyph glyph-name="Phi" unicode="&#x3a6;" horiz-adv-x="480" d="M207 13 C207 2 209 0 220 0 L239 0 C258 0 273 13 273 32 L273 154 L297 154 C380 154 430 201 430 273 L430 1091 C430 1164 380 1210 297 1210 L273 1210 L273 1331 C273 1342 271 1344 260 1344 L242 1344 C219 1344 207 1328 207 1295 L207 1210 L183 1210 C100 1210 50 1164 50 1091 L50 273 C50 201 100 154 183 154 L207 154 L207 13 Z M207 221 L177 221 C140 221 122 244 122 275 L122 1090 C122 1122 140 1144 184 1144 L207 1144 L207 221 Z M297 1144 C338 1144 358 1126 358 1090 L358 275 C358 244 340 221 303 221 L273 221 L273 1144 L297 1144 Z " />
<glyph glyph-name="Chi" unicode="&#x3a7;" horiz-adv-x="329" d="M312 1334 C312 1341 308 1344 299 1344 L277 1344 C257 1344 239 1333 236 1314 L164 747 L92 1314 C89 1333 71 1344 51 1344 L29 1344 C18 1344 14 1339 16 1329 L112 672 L16 15 L16 10 C16 3 20 0 29 0 L51 0 C71 0 89 11 92 30 L164 598 L236 30 C239 11 257 0 277 0 L299 0 C310 0 314 5 312 15 L216 672 L312 1329 L312 1334 Z " />
<glyph glyph-name="Psi" unicode="&#x3a8;" horiz-adv-x="475" d="M393 1344 C370 1344 358 1330 358 1302 L358 447 C358 416 340 394 303 394 L273 394 L273 1331 C273 1342 271 1344 260 1344 L242 1344 C219 1344 207 1331 207 1304 L207 394 L177 394 C140 394 122 416 122 447 L122 1303 C122 1330 110 1344 87 1344 L60 1344 C53 1344 50 1340 50 1332 L50 445 C50 372 100 326 183 326 L207 326 L207 13 C207 2 209 0 220 0 L239 0 C258 0 273 13 273 32 L273 326 L297 326 C380 326 430 372 430 445 L430 1333 C430 1340 427 1344 420 1344 L393 1344 Z " />
<glyph glyph-name="uni03A9" unicode="&#x3a9;" horiz-adv-x="363" d="M120 1241 C120 1273 138 1295 182 1295 C223 1295 243 1277 243 1241 L243 496 C243 453 235 419 220 375 C204 328 197 301 197 262 L197 15 C197 3 198 0 209 0 L312 0 C320 0 322 5 322 17 L322 31 C322 58 311 68 290 68 L264 68 L264 249 C264 298 284 348 289 362 C305 410 314 440 314 483 L315 1242 C315 1272 307 1297 291 1317 C267 1346 231 1360 182 1360 C132 1360 96 1346 73 1317 C56 1297 48 1272 48 1242 L47 483 C47 439 57 406 76 362 C96 315 105 288 105 249 L105 68 L78 68 C57 68 47 58 47 31 L47 17 C47 4 48 0 56 0 L159 0 C170 0 171 3 171 15 L171 262 C171 299 165 320 146 375 C129 422 120 453 120 496 L120 1241 Z " />
</font>
</svg>
