<?xml version="1.0" standalone="no"?>
<!DOCTYPE svg PUBLIC "-//W3C//DTD SVG 1.1//EN" "http://www.w3.org/Graphics/SVG/1.1/DTD/svg11.dtd" >
<svg xmlns="http://www.w3.org/2000/svg">
<metadata>
Created by FontPrep 20130207 at Fri May 26 16:13:01 2017
 By Lizzy Knight
Copyright 2016 by URW++ Design &#38; Development GmbH
</metadata>
<defs>
<font id="e9cb31f1155a9960141afa2355366ade" horiz-adv-x='1024' >
  <font-face 
    font-family="URWDINSemiCond-Light"
    font-weight="300"
    font-stretch="normal"
    units-per-em="2048"
    panose-1="0 0 4 0 0 0 0 0 0 0"
    ascent="1462"
    descent="-586"
    x-height="1018"
    cap-height="1462"
    bbox="-174 -496 2034 2064"
    underline-thickness="90"
    underline-position="-213"
    unicode-range="U+0020-FB04"
  />
<missing-glyph horiz-adv-x="368" 
 />
    <glyph glyph-name="ff" unicode="ff" horiz-adv-x="1093" 
d="M727 920h-109v98h109v188q0 152 49 205t182 51h72v-96h-43q-88 2 -116 -31t-27 -141v-176h192v-98h-192v-920h-117v920zM199 920h-109v98h109v188q0 152 49 205t182 51h70v-96h-41q-88 2 -116 -31t-28 -141v-176h179v-98h-179v-920h-116v920z" />
    <glyph glyph-name="fi" unicode="fi" horiz-adv-x="1005" 
d="M727 0v1018h117v-1018h-117zM727 1272v194h117v-194h-117zM199 920h-109v98h109v188q0 152 49 205t182 51h72v-96h-45q-86 2 -114 -31t-28 -141v-176h195v-98h-195v-920h-116v920z" />
    <glyph glyph-name="fl" unicode="fl" horiz-adv-x="1067" 
d="M725 1462h117v-1179q-2 -104 28 -144q31 -39 113 -39h47v-100h-51q-150 2 -202 61t-52 230v1171zM199 920h-109v98h109v188q0 152 49 205t182 51h72v-96h-45q-86 2 -114 -31t-28 -141v-176h195v-98h-195v-920h-116v920z" />
    <glyph glyph-name="ffi" unicode="ffi" horiz-adv-x="1531" 
d="M1253 0v1018h117v-1018h-117zM1253 1272v194h117v-194h-117zM727 920h-109v98h109v188q0 152 49 205t182 51h72v-96h-43q-88 2 -116 -31t-27 -141v-176h192v-98h-192v-920h-117v920zM199 920h-109v98h109v188q0 152 49 205t182 51h70v-96h-41q-88 2 -116 -31t-28 -141
v-176h179v-98h-179v-920h-116v920z" />
    <glyph glyph-name="ffl" unicode="ffl" horiz-adv-x="1593" 
d="M1251 1462h117v-1179q-2 -103 29 -143t112 -40h47v-100h-51q-149 2 -201 61t-53 230v1171zM727 920h-109v98h109v188q0 152 49 205t182 51h72v-96h-43q-88 2 -116 -31t-27 -141v-176h192v-98h-192v-920h-117v920zM199 920h-109v98h109v188q0 152 49 205t182 51h70v-96
h-41q-88 2 -116 -31t-28 -141v-176h179v-98h-179v-920h-116v920z" />
    <glyph glyph-name=".notdef" horiz-adv-x="368" 
 />
    <glyph glyph-name=".null" horiz-adv-x="0" 
 />
    <glyph glyph-name="nonmarkingreturn" horiz-adv-x="681" 
 />
    <glyph glyph-name="space" unicode=" " horiz-adv-x="368" 
 />
    <glyph glyph-name="exclam" unicode="!" horiz-adv-x="516" 
d="M201 0v176h116v-176h-116zM209 379l-16 1083h131l-17 -1083h-98z" />
    <glyph glyph-name="quotedbl" unicode="&#x22;" horiz-adv-x="669" 
d="M426 950l-6 512h121l-9 -512h-106zM139 950l-8 512h121l-8 -512h-105z" />
    <glyph glyph-name="numbersign" unicode="#" 
d="M375 582h207l28 258h-207zM272 582l29 258h-221l12 86h221l47 383h103l-47 -383h207l47 383h102l-47 -383h225l-12 -86h-225l-29 -258h223l-14 -86h-221l-45 -400h-103l45 400h-207l-47 -400h-102l47 400h-225l14 86h223z" />
    <glyph glyph-name="dollar" unicode="$" 
d="M479 121q293 0 293 278q0 137 -78 205q-36 31 -68 44t-186 58q-154 46 -237 138q-82 92 -82 248q0 209 143 301q63 39 176 49v219h115v-223q231 -25 279 -248l-105 -29q-33 96 -91 139t-165 43q-107 -1 -171 -65t-64 -180t64 -182q64 -68 208 -110q143 -42 183 -60
t83 -52q113 -94 113 -284q0 -348 -334 -385v-293h-115v291q-146 11 -238 85t-112 203l105 29q57 -219 284 -219z" />
    <glyph glyph-name="percent" unicode="%" horiz-adv-x="1484" 
d="M498 0l381 1462h110l-381 -1462h-110zM1307 285v204q-1 211 -147 211t-146 -211v-204q0 -213 146 -213t147 213zM909 281v213q1 152 61 222t190 68q130 0 191 -70q60 -71 60 -220v-213q0 -152 -60 -223q-61 -70 -191 -70t-190 70t-61 223zM473 979v203q0 213 -146 213
t-147 -213v-203q0 -111 36 -162t112 -51t110 51t35 162zM76 975v211q0 152 60 222t190 71q130 0 191 -71q60 -71 61 -222v-211q0 -153 -60 -223t-191 -70t-191 70t-60 223z" />
    <glyph glyph-name="ampersand" unicode="&#x26;" horiz-adv-x="1390" 
d="M305 300q1 -124 61 -192t175 -69q115 0 237 94q12 11 42 45q30 35 59 66l-287 458q-158 -100 -222 -189t-65 -213zM840 1186q0 104 -49 164t-135 59q-86 0 -133 -56q-48 -56 -48 -131t14 -118q14 -44 68 -140t64 -110q219 150 219 332zM184 301q0 267 262 439
q58 38 78 55q-94 153 -130 239t-36 164q0 143 80 226t217 83t219 -87t82 -232q0 -236 -272 -424l264 -426q88 145 123 317h115q-53 -223 -168 -413l160 -242h-138l-98 154l-86 -84q-56 -58 -152 -96t-186 -37q-158 0 -246 95t-88 269z" />
    <glyph glyph-name="quotesingle" unicode="'" horiz-adv-x="382" 
d="M139 950l-8 512h121l-8 -512h-105z" />
    <glyph glyph-name="parenleft" unicode="(" horiz-adv-x="722" 
d="M244 706q0 538 254 947l84 -54q-217 -415 -217 -893t217 -892l-84 -56q-254 410 -254 948z" />
    <glyph glyph-name="parenright" unicode=")" horiz-adv-x="722" 
d="M479 708q0 -542 -256 -950l-84 56q219 412 219 892t-219 893l84 54q256 -403 256 -945z" />
    <glyph glyph-name="asterisk" unicode="*" 
d="M492 1104l-173 -305l-106 63l201 297l-316 74l35 115l307 -107l-12 336h125l-12 -336l309 107l33 -115l-316 -74l201 -297l-106 -63z" />
    <glyph glyph-name="plus" unicode="+" 
d="M84 702v99h354v389h105v-389h356v-99h-356v-389h-105v389h-354z" />
    <glyph glyph-name="comma" unicode="," horiz-adv-x="473" 
d="M102 -385l80 559h133l-112 -559h-101z" />
    <glyph glyph-name="hyphen" unicode="-" horiz-adv-x="811" 
d="M174 700v103h465v-103h-465z" />
    <glyph glyph-name="period" unicode="." horiz-adv-x="477" 
d="M178 0v176h121v-176h-121z" />
    <glyph glyph-name="slash" unicode="/" horiz-adv-x="696" 
d="M88 -45l406 1552h116l-403 -1552h-119z" />
    <glyph glyph-name="zero" unicode="0" 
d="M729 477v508q0 201 -57 296t-179 95q-121 0 -179 -94t-58 -297v-508q0 -203 57 -297t179 -94t180 95q57 95 57 296zM137 463v536q0 244 87 362q86 118 268 118t269 -118t87 -362v-536q0 -244 -87 -362q-87 -117 -268 -117t-269 117q-87 118 -87 362z" />
    <glyph glyph-name="one" unicode="1" 
d="M459 0v1331l-223 -112l-43 94l301 149h86v-1462h-121z" />
    <glyph glyph-name="two" unicode="2" 
d="M109 0v82l358 528q113 170 157 286t44 222q0 260 -209 260q-195 0 -226 -260l-112 4q37 358 338 359q164 0 248 -92t84 -249q-1 -157 -49 -275t-191 -333l-287 -430h533v-102h-688z" />
    <glyph glyph-name="three" unicode="3" 
d="M315 719v100h101q122 0 192 75t70 206q0 276 -223 276q-195 0 -222 -231l-112 4q23 330 338 330q168 -1 255 -97t87 -280q0 -242 -197 -332q231 -90 232 -383q0 -199 -96 -301t-281 -102q-346 0 -369 344l117 8q16 -250 250 -250q125 0 191 78t65 230q0 152 -77 238
q-77 87 -216 87h-105z" />
    <glyph glyph-name="four" unicode="4" 
d="M631 0v279h-527v75l416 1108h127l-405 -1081h389v481h112v-481h134v-105h-134v-276h-112z" />
    <glyph glyph-name="five" unicode="5" 
d="M803 1462v-102h-465l-43 -531q71 41 109 53t102 13q172 0 254 -111t82 -340t-88 -345t-283 -115q-334 0 -356 344l116 8q7 -122 69 -186t171 -64q248 0 248 344q0 193 -55 279q-54 86 -176 86t-222 -95l-88 19l58 743h567z" />
    <glyph glyph-name="six" unicode="6" 
d="M719 436q0 186 -53 272t-171 85q-118 0 -173 -87q-56 -86 -56 -272t54 -268t174 -82q119 0 172 83t53 269zM528 891q172 0 252 -135q60 -98 60 -332t-88 -338t-268 -102q-180 0 -269 127q-70 92 -70 319q0 121 17 193q16 72 76 200l292 639h136l-287 -610q65 39 149 39z
" />
    <glyph glyph-name="seven" unicode="7" 
d="M154 1360v102h663v-73l-416 -1389h-129l420 1360h-538z" />
    <glyph glyph-name="eight" unicode="8" 
d="M493 719q-131 0 -189 -75t-58 -244q0 -170 57 -244t187 -74t189 75q58 75 58 243t-57 243q-57 76 -187 76zM492 815q114 0 164 68q50 67 50 217t-49 217q-50 67 -164 67t-165 -66q-52 -66 -52 -218q0 -150 52 -218t164 -67zM160 1102q0 207 85 293t256 86t255 -107
q68 -82 67 -274q0 -133 -37 -210t-118 -116q102 -39 146 -126t44 -249q0 -221 -91 -319t-283 -98t-287 120q-72 90 -72 276t44 271q44 86 148 125q-85 43 -121 117t-36 211z" />
    <glyph glyph-name="nine" unicode="9" 
d="M489 1378q-118 0 -173 -76q-54 -77 -54 -248t53 -249t171 -78t173 81t55 249q0 169 -53 245q-54 76 -172 76zM449 631q-168 0 -248 125q-59 92 -59 311t86 315q87 96 266 96t272 -116q70 -90 70 -297q0 -111 -14 -179t-62 -173l-322 -713h-133l305 674q-72 -43 -161 -43z
" />
    <glyph glyph-name="colon" unicode=":" horiz-adv-x="477" 
d="M178 842v176h121v-176h-121zM178 0v176h121v-176h-121z" />
    <glyph glyph-name="semicolon" unicode=";" horiz-adv-x="475" 
d="M186 842v176h121v-176h-121zM102 -385l80 559h133l-112 -559h-101z" />
    <glyph glyph-name="less" unicode="&#x3c;" 
d="M227 754l588 -322v-115l-719 404v65l719 404v-113z" />
    <glyph glyph-name="equal" unicode="=" 
d="M106 842v96h768v-96h-768zM106 563v96h768v-96h-768z" />
    <glyph glyph-name="greater" unicode="&#x3e;" 
d="M756 754l-588 323v113l719 -404v-65l-719 -404v115z" />
    <glyph glyph-name="question" unicode="?" horiz-adv-x="995" 
d="M430 0v176h117v-176h-117zM438 377v67q-2 113 32 187t119 163t111 134q50 84 50 194t-65 184q-65 73 -173 72q-225 0 -262 -301l-113 8q35 395 375 396q168 -1 263 -99t95 -270q0 -129 -61 -233q-31 -49 -113 -138q-94 -94 -127 -155t-32 -146v-63h-99z" />
    <glyph glyph-name="at" unicode="@" horiz-adv-x="1556" 
d="M829 1004q-104 0 -174 -132q-73 -134 -73 -326t129 -192q117 0 190 158q70 143 70 295q0 89 -38 143t-104 54zM1020 449q0 -94 88 -95q112 0 184 127t72 326q0 281 -147 437t-423 155q-276 0 -429 -195q-170 -213 -170 -566t148 -520t454 -167q127 -1 222 23t208 81
l37 -75q-118 -66 -222 -93t-239 -26q-713 0 -713 760q0 409 188 637t512 228q322 0 499 -182q177 -183 177 -503q0 -238 -102 -386t-264 -149q-82 0 -119 38t-41 128q-49 -90 -105 -130t-135 -40q-223 0 -223 283q0 240 109 407q90 141 237 142q74 0 119 -34t74 -114l24 125
h82l-90 -516q-12 -80 -12 -106z" />
    <glyph glyph-name="A" unicode="A" horiz-adv-x="1019" 
d="M758 438l-246 850l-246 -850h492zM784 336h-546l-97 -336h-131l447 1462h108l447 -1462h-131z" />
    <glyph glyph-name="B" unicode="B" horiz-adv-x="1116" 
d="M313 102h305q129 0 189 66q70 80 70 238t-80 237q-59 59 -166 59h-318v-600zM313 805h293q114 1 180 69t66 214t-80 219q-55 53 -178 53h-281v-555zM193 0v1462h403q193 0 278 -88q98 -104 99 -284q0 -238 -168 -326q82 -43 113 -90q80 -104 80 -300t-111 -296
q-80 -78 -256 -78h-438z" />
    <glyph glyph-name="C" unicode="C" horiz-adv-x="1093" 
d="M559 -18q-225 0 -328 161q-70 113 -69 361v454q0 266 88 383q104 137 296 137t290 -94q98 -96 104 -276l-115 -4q-18 272 -264 272q-147 0 -213 -99t-65 -323v-448q0 -223 65 -323q66 -99 202 -99t208 75t78 212l114 -6q-4 -183 -106 -283t-285 -100z" />
    <glyph glyph-name="D" unicode="D" horiz-adv-x="1169" 
d="M313 1360v-1258h244q334 -8 330 394v471q4 401 -330 393h-244zM193 0v1462h376q219 2 331 -120t108 -359v-504q4 -237 -108 -359t-331 -120h-376z" />
    <glyph glyph-name="E" unicode="E" horiz-adv-x="993" 
d="M193 0v1462h698v-104h-578v-565h494v-105h-494v-584h578v-104h-698z" />
    <glyph glyph-name="F" unicode="F" horiz-adv-x="935" 
d="M193 0v1462h692v-104h-572v-578h488v-104h-488v-676h-120z" />
    <glyph glyph-name="G" unicode="G" horiz-adv-x="1138" 
d="M580 84q297 0 299 379v186h-263v101h383v-267q0 -246 -92 -360q-113 -141 -338 -141t-333 161q-74 115 -74 359v454q0 268 90 385q106 137 302 137t298 -96q100 -96 104 -274l-112 -4q-8 131 -79 202t-192 70q-155 0 -223 -99t-67 -323v-448q0 -223 69 -323
q70 -99 228 -99z" />
    <glyph glyph-name="H" unicode="H" horiz-adv-x="1171" 
d="M193 0v1462h120v-669h547v669h121v-1462h-121v688h-547v-688h-120z" />
    <glyph glyph-name="I" unicode="I" horiz-adv-x="503" 
d="M193 0v1462h120v-1462h-120z" />
    <glyph glyph-name="J" unicode="J" horiz-adv-x="776" 
d="M475 1462h121v-960q0 -166 -9 -238t-36 -123q-78 -158 -289 -157q-164 0 -282 120l71 80q92 -98 207 -98q147 0 195 145q23 68 22 265v966z" />
    <glyph glyph-name="K" unicode="K" horiz-adv-x="1062" 
d="M193 0v1462h120v-831l553 831h138l-402 -596l447 -866h-136l-385 768l-215 -313v-455h-120z" />
    <glyph glyph-name="L" unicode="L" horiz-adv-x="921" 
d="M193 0v1462h120v-1358h588v-104h-708z" />
    <glyph glyph-name="M" unicode="M" horiz-adv-x="1402" 
d="M193 0v1462h118l391 -993l390 993h118v-1462h-116v1198l-355 -907h-75l-355 907v-1198h-116z" />
    <glyph glyph-name="N" unicode="N" horiz-adv-x="1243" 
d="M193 0v1462h116l627 -1226v1226h117v-1462h-115l-629 1229v-1229h-116z" />
    <glyph glyph-name="O" unicode="O" horiz-adv-x="1165" 
d="M584 84q299 0 299 408v479q0 407 -299 407q-164 0 -244 -125q-57 -94 -57 -282v-479q0 -203 69 -302q80 -106 232 -106zM162 983q0 498 429 498q220 0 333 -158q80 -111 80 -340v-504q0 -244 -97 -362q-115 -135 -333 -135t-332 157q-80 115 -80 340v504z" />
    <glyph glyph-name="P" unicode="P" horiz-adv-x="1048" 
d="M311 690h238q156 0 225 86q68 86 68 256t-73 249t-218 79h-240v-670zM313 588v-588h-120v1462h358q121 0 195 -26t124 -90q92 -113 92 -329q0 -217 -100 -323t-311 -106h-238z" />
    <glyph glyph-name="Q" unicode="Q" horiz-adv-x="1165" 
d="M883 492v479q0 407 -299 407q-164 0 -244 -125q-57 -94 -57 -282v-479q0 -203 69 -302q80 -106 222 -106t221 86l-207 182l69 72l191 -170q35 86 35 238zM162 983q0 498 429 498q220 0 333 -158q80 -111 80 -340v-504q0 -195 -62 -309l148 -131l-70 -72l-137 123
q-111 -109 -299 -108q-229 0 -342 157q-80 115 -80 340v504z" />
    <glyph glyph-name="R" unicode="R" horiz-adv-x="1114" 
d="M313 754h258q150 0 217 77q66 78 66 231q0 298 -293 298h-248v-606zM315 653v-653h-120v1462h374q219 0 313 -105t93 -296q0 -338 -262 -393l272 -668h-133l-258 653h-279z" />
    <glyph glyph-name="S" unicode="S" horiz-adv-x="1005" 
d="M505 84q132 0 207 77q74 77 74 222t-77 213q-35 33 -70 47t-160 51q-184 56 -266 150t-82 264t97 270t272 101q291 0 350 -275l-107 -24q-31 104 -88 150t-167 46t-174 -72t-64 -196q0 -125 66 -195q66 -69 206 -111q142 -42 184 -60t85 -56q115 -96 115 -294t-107 -304
t-293 -106t-282 72q-95 73 -130 235l107 26q35 -121 103 -176t201 -55z" />
    <glyph glyph-name="T" unicode="T" horiz-adv-x="917" 
d="M399 0v1358h-346v104h811v-104h-344v-1358h-121z" />
    <glyph glyph-name="U" unicode="U" horiz-adv-x="1189" 
d="M186 1462h121v-1001q0 -178 47 -256q78 -119 234 -119q98 0 158 33t98 105t39 237v1001h121v-1001q0 -133 -16 -203t-58 -127q-106 -147 -344 -147t-342 170q-57 92 -58 307v1001z" />
    <glyph glyph-name="V" unicode="V" horiz-adv-x="974" 
d="M438 0l-403 1462h123l331 -1253l330 1253h123l-403 -1462h-101z" />
    <glyph glyph-name="W" unicode="W" horiz-adv-x="1499" 
d="M356 0l-290 1462h120l228 -1226l295 1226h82l294 -1226l230 1226h121l-291 -1462h-103l-292 1212l-293 -1212h-101z" />
    <glyph glyph-name="X" unicode="X" horiz-adv-x="966" 
d="M414 770l-328 692h131l281 -594l264 594h127l-332 -714l354 -748h-131l-307 649l-289 -649h-127z" />
    <glyph glyph-name="Y" unicode="Y" horiz-adv-x="921" 
d="M401 0v537l-387 925h127l322 -782l319 782h127l-387 -925v-537h-121z" />
    <glyph glyph-name="Z" unicode="Z" horiz-adv-x="921" 
d="M86 0v82l580 1276h-545v104h678v-82l-580 -1276h604v-104h-737z" />
    <glyph glyph-name="bracketleft" unicode="[" horiz-adv-x="722" 
d="M276 -201v1813h310v-92h-193v-1629h193v-92h-310z" />
    <glyph glyph-name="backslash" unicode="\" horiz-adv-x="696" 
d="M608 -45h-116l-406 1552h119z" />
    <glyph glyph-name="bracketright" unicode="]" horiz-adv-x="722" 
d="M446 1612v-1813h-309v92h193v1629h-193v92h309z" />
    <glyph glyph-name="asciicircum" unicode="^" 
d="M492 1329l-256 -543h-132l357 689h63l355 -689h-131z" />
    <glyph glyph-name="underscore" unicode="_" horiz-adv-x="798" 
d="M-43 -348v90h885v-90h-885z" />
    <glyph glyph-name="grave" unicode="`" horiz-adv-x="1024" 
d="M594 1194h-88l-182 279h145z" />
    <glyph glyph-name="a" unicode="a" horiz-adv-x="911" 
d="M637 489h-197q-129 0 -183 -49t-54 -161q0 -113 48 -155t182 -42t179 74q25 41 25 143v190zM637 584v90q0 144 -45 204q-44 60 -140 60t-143 -38t-76 -126l-100 31q61 231 305 231q201 0 273 -127q43 -74 43 -245v-664h-95l-10 74q-41 -52 -96 -72t-156 -20
q-169 0 -239 66t-70 232q0 164 76 234t260 70h213z" />
    <glyph glyph-name="b" unicode="b" horiz-adv-x="978" 
d="M727 399v224q0 313 -217 313q-229 0 -229 -354v-146q0 -354 229 -354q217 0 217 317zM164 0v1462h117v-547q85 121 245 121t239 -101t79 -310v-224q0 -420 -322 -419q-92 0 -148 28t-108 99l-10 -109h-92z" />
    <glyph glyph-name="c" unicode="c" horiz-adv-x="849" 
d="M135 410v184q0 230 82 336t256 106q125 0 190 -53t93 -178l-103 -29q-20 88 -62 125t-118 37q-115 0 -168 -81t-53 -257v-201q0 -317 221 -317q85 0 131 39t62 125l102 -21q-37 -244 -299 -243q-334 0 -334 428z" />
    <glyph glyph-name="d" unicode="d" horiz-adv-x="978" 
d="M252 623v-222q0 -319 217 -319q229 0 229 354v146q0 354 -229 354q-217 0 -217 -313zM135 401v224q0 209 79 310t241 101q121 0 194 -61q16 -16 49 -60v547h117v-1462h-92l-10 109q-54 -75 -111 -101q-57 -27 -145 -26q-322 0 -322 419z" />
    <glyph glyph-name="e" unicode="e" horiz-adv-x="940" 
d="M252 588h450v47q0 301 -225 301t-225 -301v-47zM252 494v-99q0 -313 240 -313q88 0 135 39t65 125l103 -21q-21 -125 -95 -184t-211 -59q-182 0 -268 106t-86 330v180q0 226 83 332t258 106t257 -106t82 -332v-104h-563z" />
    <glyph glyph-name="f" unicode="f" horiz-adv-x="567" 
d="M199 920h-109v98h109v188q0 152 49 205t182 51h72v-96h-45q-86 2 -114 -31t-28 -141v-176h195v-98h-195v-920h-116v920z" />
    <glyph glyph-name="g" unicode="g" horiz-adv-x="978" 
d="M252 623v-222q0 -319 219 -319q227 0 227 354v146q0 354 -229 354q-217 0 -217 -313zM698 -66v168q-84 -121 -245 -120q-317 0 -318 419v222q0 211 78 312t240 101q92 0 152 -30t106 -101l10 113h94v-1071q0 -217 -86 -321t-266 -103q-127 0 -197 51t-98 164l102 26
q20 -76 64 -110t127 -33q123 -1 180 75t57 238z" />
    <glyph glyph-name="h" unicode="h" horiz-adv-x="978" 
d="M164 0v1462h117v-542q47 63 102 90t141 26q207 0 273 -178q27 -74 26 -235v-623h-116v614q1 170 -47 245t-162 75t-165 -88q-52 -88 -52 -289v-557h-117z" />
    <glyph glyph-name="i" unicode="i" horiz-adv-x="444" 
d="M164 0v1018h117v-1018h-117zM164 1272v194h117v-194h-117z" />
    <glyph glyph-name="j" unicode="j" horiz-adv-x="454" 
d="M172 1272v194h117v-194h-117zM172 1018h117v-1067q4 -233 -70 -329t-258 -93v102q115 -8 165 66t46 242v1079z" />
    <glyph glyph-name="k" unicode="k" horiz-adv-x="892" 
d="M164 0v1462h117v-1052l399 608h131l-291 -430l324 -588h-127l-266 496l-170 -256v-240h-117z" />
    <glyph glyph-name="l" unicode="l" horiz-adv-x="505" 
d="M162 1462h117v-1179q-2 -104 28 -144q31 -39 113 -39h47v-100h-51q-150 2 -202 61t-52 230v1171z" />
    <glyph glyph-name="m" unicode="m" horiz-adv-x="1458" 
d="M164 0v1018h92l8 -121q43 76 98 108t142 31q188 0 252 -162q72 162 266 162t256 -178q25 -76 25 -235v-623h-117v612q0 172 -44 247t-149 75t-153 -88t-47 -285v-561h-117v614q0 170 -44 245t-150 75t-154 -89t-47 -292v-553h-117z" />
    <glyph glyph-name="n" unicode="n" horiz-adv-x="978" 
d="M164 0v1018h92l8 -121q42 74 102 107t152 32q215 0 279 -178q27 -74 26 -235v-623h-116v612q1 172 -47 247t-162 75t-165 -88q-52 -88 -52 -293v-553h-117z" />
    <glyph glyph-name="o" unicode="o" horiz-adv-x="962" 
d="M711 393v232q1 163 -55 237t-175 74t-174 -75t-55 -236v-232q0 -163 55 -237t174 -74t175 74t55 237zM135 397v224q0 215 84 315t262 100t262 -100t84 -315v-224q0 -215 -84 -315t-262 -100t-262 100t-84 315z" />
    <glyph glyph-name="p" unicode="p" horiz-adv-x="978" 
d="M727 399v224q0 313 -217 313q-229 0 -229 -354v-146q0 -354 229 -354q217 0 217 317zM164 -461v1479h92l14 -109q84 127 256 127q317 0 318 -411v-224q0 -420 -322 -419q-156 0 -241 114v-557h-117z" />
    <glyph glyph-name="q" unicode="q" horiz-adv-x="978" 
d="M252 623v-222q0 -319 217 -319q229 0 229 354v146q0 354 -229 354q-217 0 -217 -313zM698 -461v557q-80 -115 -243 -114q-319 0 -320 419v224q0 412 318 411q174 0 256 -127l14 109h92v-1479h-117z" />
    <glyph glyph-name="r" unicode="r" horiz-adv-x="647" 
d="M164 0v1018h92l12 -117q68 135 215 135q82 0 158 -49l-51 -98q-66 45 -119 45q-100 0 -145 -102t-45 -332v-500h-117z" />
    <glyph glyph-name="s" unicode="s" horiz-adv-x="829" 
d="M399 80q229 0 230 194q0 104 -66 146q-39 24 -183 54t-208 92t-64 194q0 131 75 204q75 72 212 72t208 -54t97 -177l-102 -21q-35 154 -197 154q-86 0 -133 -47t-47 -131t44 -125t160 -65t161 -40t78 -45q78 -61 77 -211q0 -293 -344 -292q-287 -1 -334 243l103 23
q27 -90 81 -129t152 -39z" />
    <glyph glyph-name="t" unicode="t" horiz-adv-x="567" 
d="M190 920h-106v98h106l5 340h112v-340h166v-98h-166v-644q-2 -100 29 -139t110 -37h33v-100h-35q-152 -2 -202 56t-52 229v635z" />
    <glyph glyph-name="u" unicode="u" horiz-adv-x="958" 
d="M156 1018h116v-612q0 -172 45 -247t154 -75t159 89t50 292v553h117v-1018h-92l-9 121q-45 -76 -101 -108t-144 -31q-205 0 -269 178q-27 74 -26 235v623z" />
    <glyph glyph-name="v" unicode="v" horiz-adv-x="837" 
d="M367 0l-312 1018h119l244 -850l246 850h116l-311 -1018h-102z" />
    <glyph glyph-name="w" unicode="w" horiz-adv-x="1323" 
d="M338 0l-262 1018h119l196 -830l230 830h79l230 -830l198 830h117l-262 -1018h-92l-229 815l-232 -815h-92z" />
    <glyph glyph-name="x" unicode="x" horiz-adv-x="790" 
d="M326 522l-254 496h131l200 -406l199 406h127l-268 -504l262 -514h-131l-209 420l-207 -420h-127z" />
    <glyph glyph-name="y" unicode="y" horiz-adv-x="837" 
d="M115 -371q96 0 134 34t70 147l50 180l-320 1028h117l262 -887l234 887h116l-340 -1223q-49 -164 -110 -214t-213 -52v100z" />
    <glyph glyph-name="z" unicode="z" horiz-adv-x="808" 
d="M84 0v72l453 846h-418v100h559v-72l-455 -846h482v-100h-621z" />
    <glyph glyph-name="braceleft" unicode="{" horiz-adv-x="722" 
d="M592 -115v-86h-53q-160 0 -213 79t-50 308v236q4 180 -23 234q-28 54 -126 59h-12v78h12q98 4 126 58t23 232v142q-4 229 50 308t213 79h53v-86h-33q-102 -2 -134 -70t-30 -282v-99q5 -168 -17 -228t-97 -93q75 -32 97 -94t17 -228v-194q-2 -215 30 -283t134 -70h33z" />
    <glyph glyph-name="bar" unicode="|" 
d="M440 -201v1813h105v-1813h-105z" />
    <glyph glyph-name="braceright" unicode="}" horiz-adv-x="722" 
d="M129 1526v86h55q160 0 213 -79t49 -308v-142q-4 -180 24 -234t124 -56h12v-78h-12q-96 -5 -124 -59t-24 -234v-236q4 -229 -49 -308t-213 -79h-55v86h33q104 2 136 70t30 283v194q-4 166 17 227q22 61 97 95q-76 33 -98 93t-16 228v99q2 214 -30 282t-136 70h-33z" />
    <glyph glyph-name="asciitilde" unicode="~" 
d="M874 842q-66 -221 -202 -221q-64 0 -98 16q-34 17 -97 69t-92 67t-61 15q-89 1 -138 -153l-77 18q61 227 201 229q64 0 103 -16q38 -18 101 -69t91 -67t67 -15q38 0 68 35t57 114z" />
    <glyph glyph-name="uni00A0" unicode="&#xa0;" horiz-adv-x="368" 
 />
    <glyph glyph-name="exclamdown" unicode="&#xa1;" horiz-adv-x="516" 
d="M315 1018v-176h-116v176h116zM307 637l17 -1083h-131l16 1083h98z" />
    <glyph glyph-name="cent" unicode="&#xa2;" 
d="M473 88v227q-291 31 -289 422v185q-2 207 69 313t220 123v219h115v-221q100 -16 152 -68t75 -160l-98 -24q-25 88 -69 125t-122 37q-117 0 -172 -82t-55 -256v-201q0 -319 229 -319q164 0 199 165l100 -20q-18 -111 -74 -166t-165 -70v-229h-115z" />
    <glyph glyph-name="sterling" unicode="&#xa3;" 
d="M117 0v88q90 41 149 150q100 186 29 407h-182v103h141q-68 150 -85 206t-17 142q0 184 94 284t268 100t264 -94t107 -294l-109 -19q-16 162 -78 234q-62 71 -179 71q-119 0 -183 -74t-64 -206q0 -72 20 -135t95 -215h307v-103h-276q25 -90 24 -166q0 -223 -153 -377h616
v-102h-788z" />
    <glyph glyph-name="currency" unicode="&#xa4;" 
d="M762 685q0 138 -76 226t-195 88q-120 0 -196 -87t-76 -226t76 -227q75 -88 195 -88t196 88t76 226zM115 686q0 152 86 266l-156 174l64 60l151 -174q111 80 230 80t231 -80l151 174l66 -60l-156 -174q84 -118 84 -268t-84 -266l156 -174l-66 -60l-151 174
q-109 -80 -229 -80t-232 80l-151 -174l-64 60l156 174q-86 116 -86 268z" />
    <glyph glyph-name="yen" unicode="&#xa5;" 
d="M432 0v319h-282v82h282v154h-282v82h247l-352 825h127l322 -772l317 772h127l-350 -825h246v-82h-281v-154h281v-82h-281v-319h-121z" />
    <glyph glyph-name="brokenbar" unicode="&#xa6;" horiz-adv-x="851" 
d="M369 0v498h114v-498h-114zM369 946v516h114v-516h-114z" />
    <glyph glyph-name="section" unicode="&#xa7;" 
d="M725 610q0 88 -31 124q-32 36 -62 52t-130 56l-115 43l-10 -8q-80 -47 -108 -91q-27 -44 -27 -128t40 -126t183 -94l113 -43q6 2 55 35q92 61 92 180zM182 1165q0 152 80 233t230 81q227 0 288 -205l-102 -33q-27 74 -69 106q-43 31 -123 31t-134 -54t-53 -147
q0 -93 47 -139t210 -102q162 -55 222 -118t60 -171q0 -109 -39 -171t-135 -122q74 -45 102 -96t29 -137q0 -154 -88 -236q-87 -82 -233 -82q-146 1 -226 57t-119 175l102 31q31 -72 54 -95q59 -67 165 -67t166 54q62 54 62 137q1 135 -101 189q-42 22 -143 54
q-178 54 -241 118t-63 198t93 214q18 16 80 58q-66 41 -93 95q-28 54 -28 144z" />
    <glyph glyph-name="dieresis" unicode="&#xa8;" horiz-adv-x="1024" 
d="M623 1212v193h106v-193h-106zM293 1212v193h106v-193h-106z" />
    <glyph glyph-name="copyright" unicode="&#xa9;" horiz-adv-x="1581" 
d="M1413 729q0 289 -175 479q-174 190 -452 191q-278 -1 -449 -195t-171 -479t176 -473t448 -188t448 188q175 188 175 477zM792 1485q314 0 517 -215t203 -541t-204 -539t-517 -213t-519 213q-204 213 -204 543t204 541q206 211 520 211zM805 371q-133 0 -192 69
q-58 70 -58 230v123q0 159 58 229t190 70q219 0 225 -187l-90 -2q-14 111 -133 111q-82 0 -118 -50t-36 -165v-135q0 -115 36 -165t118 -50q125 -1 141 112l90 -4q-8 -186 -231 -186z" />
    <glyph glyph-name="ordfeminine" unicode="&#xaa;" horiz-adv-x="573" 
d="M395 1126h-121q-76 0 -106 -26t-29 -88q0 -63 28 -88q29 -25 99 -25t100 27t29 90v110zM389 1196v53q0 82 -25 114q-26 32 -100 32t-110 -72l-78 27q54 123 198 123t191 -80q25 -43 24 -152v-407h-81l-5 43q-55 -53 -161 -53t-151 40q-46 40 -46 142t52 146t177 44h115z
" />
    <glyph glyph-name="guillemotleft" unicode="&#xab;" horiz-adv-x="706" 
d="M199 604l153 -254l-69 -49l-215 303l215 305l69 -49zM492 604l153 -254l-70 -49l-215 303l215 305l70 -49z" />
    <glyph glyph-name="logicalnot" unicode="&#xac;" 
d="M102 702v99h725v-504h-114v405h-611z" />
    <glyph glyph-name="uni00AD" unicode="&#xad;" horiz-adv-x="811" 
d="M174 700v103h465v-103h-465z" />
    <glyph glyph-name="registered" unicode="&#xae;" horiz-adv-x="1222" 
d="M608 1661q-202 0 -324 -135t-122 -340t123 -340t327 -135t326 135q123 135 123 341t-125 340t-328 134zM612 1745q236 0 389 -160q154 -161 154 -401t-154 -399q-153 -159 -389 -159t-390 158t-154 402t154 402t390 157zM518 1202h125q100 0 100 98t-108 99h-117v-197z
M641 1464q188 0 188 -159q0 -129 -110 -156l121 -242h-92l-111 234h-117v-234h-86v557h207z" />
    <glyph glyph-name="macron" unicode="&#xaf;" horiz-adv-x="1024" 
d="M303 1284v86h420v-86h-420z" />
    <glyph glyph-name="degree" unicode="&#xb0;" horiz-adv-x="671" 
d="M336 1436q-92 0 -146 -58t-53 -159q0 -103 52 -159q53 -56 147 -56t146 56t52 158t-52 160q-54 58 -146 58zM336 1522q137 0 219 -83t82 -220t-82 -219t-219 -82t-219 82t-82 220t82 220t219 82z" />
    <glyph glyph-name="plusminus" unicode="&#xb1;" 
d="M84 59v99h815v-99h-815zM84 709v98h354v385h105v-385h356v-98h-356v-385h-105v385h-354z" />
    <glyph glyph-name="twosuperior" unicode="&#xb2;" horiz-adv-x="628" 
d="M303 1677q225 0 225 -233q0 -80 -30 -150t-119 -190l-170 -230h317v-83h-452v67l229 307q125 170 125 277q0 152 -127 151q-113 0 -137 -151l-94 8q12 117 68 172t165 55z" />
    <glyph glyph-name="threesuperior" unicode="&#xb3;" horiz-adv-x="628" 
d="M197 1212v78h77q70 0 113 42t43 113t-35 109t-98 39q-113 0 -133 -133l-94 8q20 209 229 209q229 0 229 -231q0 -131 -104 -193q125 -61 125 -225q0 -248 -250 -248q-160 0 -217 101q-20 33 -29 114l94 13q14 -143 150 -144q74 0 114 43t40 124q1 81 -47 131t-123 50h-84
z" />
    <glyph glyph-name="acute" unicode="&#xb4;" horiz-adv-x="1024" 
d="M434 1194l125 279h146l-183 -279h-88z" />
    <glyph glyph-name="mu" unicode="&#xb5;" 
d="M172 1018h115v-612q0 -172 46 -248q47 -76 155 -76t158 90t50 295v551h115v-1018h-84l-14 137q-68 -156 -236 -155q-119 0 -190 86v-529h-115v1479z" />
    <glyph glyph-name="paragraph" unicode="&#xb6;" horiz-adv-x="1026" 
d="M408 -279v992h-50q-131 0 -194 45t-101 133q-37 88 -37 202q0 113 38 201q36 88 92 122t98 40q43 6 195 6h393v-1741h-113v1641h-209v-1641h-112z" />
    <glyph glyph-name="periodcentered" unicode="&#xb7;" horiz-adv-x="473" 
d="M178 664v174h121v-174h-121z" />
    <glyph glyph-name="cedilla" unicode="&#xb8;" horiz-adv-x="1024" 
d="M410 -438l90 288h127l-135 -288h-82z" />
    <glyph glyph-name="onesuperior" unicode="&#xb9;" horiz-adv-x="503" 
d="M225 791v772l-137 -64l-33 74l199 94h72v-876h-101z" />
    <glyph glyph-name="ordmasculine" unicode="&#xba;" horiz-adv-x="604" 
d="M438 1079v138q0 176 -136 176t-136 -176v-138q0 -174 136 -174t136 174zM70 1081v133q0 134 57 196t176 62t175 -62q56 -64 57 -196v-133q0 -256 -232 -256q-121 1 -177 63t-56 193z" />
    <glyph glyph-name="guillemotright" unicode="&#xbb;" horiz-adv-x="706" 
d="M510 604l-154 256l70 49l215 -305l-215 -303l-70 49zM217 604l-154 256l70 49l215 -305l-215 -303l-70 49z" />
    <glyph glyph-name="onequarter" unicode="&#xbc;" horiz-adv-x="1527" 
d="M1196 0v170h-338v61l264 646h105l-256 -625h225v237h90v-237h84v-84h-84v-168h-90zM455 0l381 1462h112l-381 -1462h-112zM293 586v770l-139 -64l-35 78l203 92h71v-876h-100z" />
    <glyph glyph-name="onehalf" unicode="&#xbd;" horiz-adv-x="1527" 
d="M922 0v68l229 307q125 164 125 276q0 152 -127 152q-113 0 -137 -152l-94 8q27 227 235 228q223 0 223 -234q0 -81 -30 -151t-119 -189l-170 -229h317v-84h-452zM434 0l379 1462h113l-381 -1462h-111zM285 586v770l-140 -64l-34 78l202 92h72v-876h-100z" />
    <glyph glyph-name="threequarters" unicode="&#xbe;" horiz-adv-x="1527" 
d="M532 0l381 1462h111l-381 -1462h-111zM1249 0v170h-338v61l265 646h104l-256 -625h225v237h90v-237h84v-84h-84v-168h-90zM211 1008v77h78q71 0 113 43t42 113t-34 110q-35 40 -99 40q-113 0 -133 -136l-94 9q20 209 229 209q229 0 230 -232q0 -131 -105 -192
q125 -61 125 -226q0 -248 -250 -248q-160 0 -217 101q-20 33 -28 115l94 12q14 -143 149 -144q74 0 114 43t40 124t-47 131t-123 51h-84z" />
    <glyph glyph-name="questiondown" unicode="&#xbf;" horiz-adv-x="995" 
d="M573 1018v-176h-116v176h116zM565 639v-68q1 -115 -31 -187t-120 -165q-88 -92 -111 -129q-49 -88 -49 -196t64 -182q64 -73 174 -72q225 0 262 299l112 -9q-35 -393 -374 -393q-168 0 -264 98q-95 98 -95 269q0 129 62 233q35 57 121 145t119 150q32 62 32 143v64h98z
" />
    <glyph glyph-name="Agrave" unicode="&#xc0;" horiz-adv-x="1019" 
d="M586 1626h-88l-183 281h146zM758 438l-246 850l-246 -850h492zM784 336h-546l-97 -336h-131l447 1462h108l447 -1462h-131z" />
    <glyph glyph-name="Aacute" unicode="&#xc1;" horiz-adv-x="1019" 
d="M440 1626l125 281h146l-183 -281h-88zM758 438l-246 850l-246 -850h492zM784 336h-546l-97 -336h-131l447 1462h108l447 -1462h-131z" />
    <glyph glyph-name="Acircumflex" unicode="&#xc2;" horiz-adv-x="1019" 
d="M510 1806l-121 -168h-127l213 256h72l213 -256h-129zM758 438l-246 850l-246 -850h492zM784 336h-546l-97 -336h-131l447 1462h108l447 -1462h-131z" />
    <glyph glyph-name="Atilde" unicode="&#xc3;" horiz-adv-x="1019" 
d="M408 1870q64 0 122 -68t91 -67q49 0 71 118h78q-26 -117 -58 -161t-97 -43q-65 0 -126 67q-55 66 -83 66q-55 0 -78 -117h-78q27 115 60 160q34 45 98 45zM758 438l-246 850l-246 -850h492zM784 336h-546l-97 -336h-131l447 1462h108l447 -1462h-131z" />
    <glyph glyph-name="Adieresis" unicode="&#xc4;" horiz-adv-x="1019" 
d="M625 1645v192h106v-192h-106zM291 1645v192h106v-192h-106zM758 438l-246 850l-246 -850h492zM784 336h-546l-97 -336h-131l447 1462h108l447 -1462h-131z" />
    <glyph glyph-name="Aring" unicode="&#xc5;" horiz-adv-x="1019" 
d="M512 1931q-100 0 -100 -127q0 -59 26 -92t73 -33q46 0 73 33t26 92q0 59 -25 93q-26 34 -73 34zM324 1807q0 89 51 141t137 53q86 0 136 -53q50 -54 50 -142t-51 -142t-135 -54t-136 54t-52 143zM758 438l-246 850l-246 -850h492zM784 336h-546l-97 -336h-131l447 1462
h108l447 -1462h-131z" />
    <glyph glyph-name="AE" unicode="&#xc6;" horiz-adv-x="1622" 
d="M821 449v909h-20l-482 -909h502zM821 346h-553l-182 -346h-139l792 1462h781v-104h-580v-565h494v-105h-494v-584h580v-104h-699v346z" />
    <glyph glyph-name="Ccedilla" unicode="&#xc7;" horiz-adv-x="1093" 
d="M420 -438l90 288h127l-135 -288h-82zM559 -18q-225 0 -328 161q-70 113 -69 361v454q0 266 88 383q104 137 296 137t290 -94q98 -96 104 -276l-115 -4q-18 272 -264 272q-147 0 -213 -99t-65 -323v-448q0 -223 65 -323q66 -99 202 -99t208 75t78 212l114 -6
q-4 -183 -106 -283t-285 -100z" />
    <glyph glyph-name="Egrave" unicode="&#xc8;" horiz-adv-x="993" 
d="M629 1626h-88l-183 281h146zM193 0v1462h698v-104h-578v-565h494v-105h-494v-584h578v-104h-698z" />
    <glyph glyph-name="Eacute" unicode="&#xc9;" horiz-adv-x="993" 
d="M469 1626l125 281h145l-182 -281h-88zM193 0v1462h698v-104h-578v-565h494v-105h-494v-584h578v-104h-698z" />
    <glyph glyph-name="Ecircumflex" unicode="&#xca;" horiz-adv-x="993" 
d="M543 1806l-121 -168h-127l213 256h72l213 -256h-129zM193 0v1462h698v-104h-578v-565h494v-105h-494v-584h578v-104h-698z" />
    <glyph glyph-name="Edieresis" unicode="&#xcb;" horiz-adv-x="993" 
d="M657 1645v192h107v-192h-107zM324 1645v192h106v-192h-106zM193 0v1462h698v-104h-578v-565h494v-105h-494v-584h578v-104h-698z" />
    <glyph glyph-name="Igrave" unicode="&#xcc;" horiz-adv-x="503" 
d="M328 1626h-88l-183 281h146zM193 0v1462h120v-1462h-120z" />
    <glyph glyph-name="Iacute" unicode="&#xcd;" horiz-adv-x="503" 
d="M174 1626l125 281h145l-182 -281h-88zM186 0v1462h121v-1462h-121z" />
    <glyph glyph-name="Icircumflex" unicode="&#xce;" horiz-adv-x="503" 
d="M252 1806l-121 -168h-127l211 256h74l211 -256h-127zM193 0v1462h120v-1462h-120z" />
    <glyph glyph-name="Idieresis" unicode="&#xcf;" horiz-adv-x="503" 
d="M365 1645v192h106v-192h-106zM33 1645v192h106v-192h-106zM193 0v1462h120v-1462h-120z" />
    <glyph glyph-name="Eth" unicode="&#xd0;" horiz-adv-x="1169" 
d="M313 791h305v-103h-305v-586h244q170 -4 251 94t79 300v469q2 205 -80 302t-250 93h-244v-569zM193 791v671h374q221 4 334 -119t107 -360v-504q6 -239 -107 -361t-334 -118h-374v688h-148v103h148z" />
    <glyph glyph-name="Ntilde" unicode="&#xd1;" horiz-adv-x="1243" 
d="M534 1870q64 0 122 -68t92 -67q49 0 71 118h78q-25 -117 -57 -161t-98 -43q-65 0 -126 67q-55 66 -84 66q-54 0 -77 -117h-78q27 115 60 160t97 45zM193 0v1462h116l627 -1226v1226h117v-1462h-115l-629 1229v-1229h-116z" />
    <glyph glyph-name="Ograve" unicode="&#xd2;" horiz-adv-x="1165" 
d="M664 1626h-89l-182 281h146zM584 84q299 0 299 408v479q0 407 -299 407q-164 0 -244 -125q-57 -94 -57 -282v-479q0 -203 69 -302q80 -106 232 -106zM162 983q0 498 429 498q220 0 333 -158q80 -111 80 -340v-504q0 -244 -97 -362q-115 -135 -333 -135t-332 157
q-80 115 -80 340v504z" />
    <glyph glyph-name="Oacute" unicode="&#xd3;" horiz-adv-x="1165" 
d="M506 1626l125 281h145l-182 -281h-88zM584 84q299 0 299 408v479q0 407 -299 407q-164 0 -244 -125q-57 -94 -57 -282v-479q0 -203 69 -302q80 -106 232 -106zM162 983q0 498 429 498q220 0 333 -158q80 -111 80 -340v-504q0 -244 -97 -362q-115 -135 -333 -135t-332 157
q-80 115 -80 340v504z" />
    <glyph glyph-name="Ocircumflex" unicode="&#xd4;" horiz-adv-x="1165" 
d="M582 1806l-121 -168h-127l213 256h71l213 -256h-129zM584 84q299 0 299 408v479q0 407 -299 407q-164 0 -244 -125q-57 -94 -57 -282v-479q0 -203 69 -302q80 -106 232 -106zM162 983q0 498 429 498q220 0 333 -158q80 -111 80 -340v-504q0 -244 -97 -362
q-115 -135 -333 -135t-332 157q-80 115 -80 340v504z" />
    <glyph glyph-name="Otilde" unicode="&#xd5;" horiz-adv-x="1165" 
d="M482 1870q64 0 121 -68q58 -68 91 -67q49 0 72 118h78q-25 -117 -58 -161q-34 -44 -98 -43q-64 0 -125 67q-55 66 -84 66q-55 0 -78 -117h-77q27 115 60 160q34 45 98 45zM584 84q299 0 299 408v479q0 407 -299 407q-164 0 -244 -125q-57 -94 -57 -282v-479
q0 -203 69 -302q80 -106 232 -106zM162 983q0 498 429 498q220 0 333 -158q80 -111 80 -340v-504q0 -244 -97 -362q-115 -135 -333 -135t-332 157q-80 115 -80 340v504z" />
    <glyph glyph-name="Odieresis" unicode="&#xd6;" horiz-adv-x="1165" 
d="M696 1645v192h107v-192h-107zM362 1645v192h107v-192h-107zM584 84q299 0 299 408v479q0 407 -299 407q-164 0 -244 -125q-57 -94 -57 -282v-479q0 -203 69 -302q80 -106 232 -106zM162 983q0 498 429 498q220 0 333 -158q80 -111 80 -340v-504q0 -244 -97 -362
q-115 -135 -333 -135t-332 157q-80 115 -80 340v504z" />
    <glyph glyph-name="multiply" unicode="&#xd7;" 
d="M424 752l-305 305l67 67l308 -305l305 305l67 -67l-305 -305l305 -306l-67 -69l-305 307l-308 -307l-67 69z" />
    <glyph glyph-name="Oslash" unicode="&#xd8;" horiz-adv-x="1163" 
d="M283 971v-479q0 -113 14 -179l520 949q-81 116 -241 116q-294 0 -293 -407zM582 84q297 0 299 408v479q-3 121 -17 172l-516 -944q80 -115 234 -115zM1001 983v-504q-1 -245 -105 -371t-301 -126t-308 104l-64 -115l-86 49l84 152q-59 113 -59 307v504q0 246 96 363
q114 135 312 135t309 -109l61 113l86 -51l-82 -148q57 -115 57 -303z" />
    <glyph glyph-name="Ugrave" unicode="&#xd9;" horiz-adv-x="1189" 
d="M690 1626h-88l-182 281h145zM186 1462h121v-1001q0 -178 47 -256q78 -119 234 -119q98 0 158 33t98 105t39 237v1001h121v-1001q0 -133 -16 -203t-58 -127q-106 -147 -344 -147t-342 170q-57 92 -58 307v1001z" />
    <glyph glyph-name="Uacute" unicode="&#xda;" horiz-adv-x="1189" 
d="M524 1626l125 281h146l-183 -281h-88zM186 1462h121v-1001q0 -178 47 -256q78 -119 234 -119q98 0 158 33t98 105t39 237v1001h121v-1001q0 -133 -16 -203t-58 -127q-106 -147 -344 -147t-342 170q-57 92 -58 307v1001z" />
    <glyph glyph-name="Ucircumflex" unicode="&#xdb;" horiz-adv-x="1189" 
d="M594 1806l-121 -168h-127l213 256h72l213 -256h-129zM186 1462h121v-1001q0 -178 47 -256q78 -119 234 -119q98 0 158 33t98 105t39 237v1001h121v-1001q0 -133 -16 -203t-58 -127q-106 -147 -344 -147t-342 170q-57 92 -58 307v1001z" />
    <glyph glyph-name="Udieresis" unicode="&#xdc;" horiz-adv-x="1189" 
d="M709 1645v192h106v-192h-106zM375 1645v192h106v-192h-106zM186 1462h121v-1001q0 -178 47 -256q78 -119 234 -119q98 0 158 33t98 105t39 237v1001h121v-1001q0 -133 -16 -203t-58 -127q-106 -147 -344 -147t-342 170q-57 92 -58 307v1001z" />
    <glyph glyph-name="Yacute" unicode="&#xdd;" horiz-adv-x="921" 
d="M406 1626l124 281h146l-182 -281h-88zM401 0v537l-387 925h127l322 -782l319 782h127l-387 -925v-537h-121z" />
    <glyph glyph-name="Thorn" unicode="&#xde;" horiz-adv-x="1048" 
d="M313 451h236q159 0 225 86q66 85 66 255q0 330 -289 328h-238v-669zM313 348v-348h-120v1462h120v-239h238q121 0 195 -27t124 -90q90 -115 90 -330t-100 -321t-309 -107h-238z" />
    <glyph glyph-name="germandbls" unicode="&#xdf;" horiz-adv-x="980" 
d="M162 1120q0 357 311 357q152 0 233 -81q80 -82 80 -232t-88 -246q80 -40 116 -136t34 -276v-84q2 -230 -66 -326t-229 -96h-84v98h72q111 0 151 66t39 252v94q0 206 -38 276t-144 66h-33v92h29q129 0 129 205q0 229 -201 229q-102 0 -148 -61t-46 -197v-1120h-117v1120z
" />
    <glyph glyph-name="agrave" unicode="&#xe0;" horiz-adv-x="911" 
d="M549 1194h-88l-182 279h145zM637 489h-197q-129 0 -183 -49t-54 -161q0 -113 48 -155t182 -42t179 74q25 41 25 143v190zM637 584v90q0 144 -45 204q-44 60 -140 60t-143 -38t-76 -126l-100 31q61 231 305 231q201 0 273 -127q43 -74 43 -245v-664h-95l-10 74
q-41 -52 -96 -72t-156 -20q-169 0 -239 66t-70 232q0 164 76 234t260 70h213z" />
    <glyph glyph-name="aacute" unicode="&#xe1;" horiz-adv-x="911" 
d="M383 1194l125 279h145l-182 -279h-88zM637 489h-197q-129 0 -183 -49t-54 -161q0 -113 48 -155t182 -42t179 74q25 41 25 143v190zM637 584v90q0 144 -45 204q-44 60 -140 60t-143 -38t-76 -126l-100 31q61 231 305 231q201 0 273 -127q43 -74 43 -245v-664h-95l-10 74
q-41 -52 -96 -72t-156 -20q-169 0 -239 66t-70 232q0 164 76 234t260 70h213z" />
    <glyph glyph-name="acircumflex" unicode="&#xe2;" horiz-adv-x="911" 
d="M457 1374l-121 -168h-127l213 256h72l213 -256h-129zM637 489h-197q-129 0 -183 -49t-54 -161q0 -113 48 -155t182 -42t179 74q25 41 25 143v190zM637 584v90q0 144 -45 204q-44 60 -140 60t-143 -38t-76 -126l-100 31q61 231 305 231q201 0 273 -127q43 -74 43 -245
v-664h-95l-10 74q-41 -52 -96 -72t-156 -20q-169 0 -239 66t-70 232q0 164 76 234t260 70h213z" />
    <glyph glyph-name="atilde" unicode="&#xe3;" horiz-adv-x="911" 
d="M354 1436q64 0 122 -67t91 -66q49 0 72 116h78q-25 -115 -58 -159t-97 -43q-64 0 -126 67q-55 66 -84 66q-55 0 -78 -117h-77q27 115 60 159t97 44zM637 489h-197q-129 0 -183 -49t-54 -161q0 -113 48 -155t182 -42t179 74q25 41 25 143v190zM637 584v90q0 144 -45 204
q-44 60 -140 60t-143 -38t-76 -126l-100 31q61 231 305 231q201 0 273 -127q43 -74 43 -245v-664h-95l-10 74q-41 -52 -96 -72t-156 -20q-169 0 -239 66t-70 232q0 164 76 234t260 70h213z" />
    <glyph glyph-name="adieresis" unicode="&#xe4;" horiz-adv-x="911" 
d="M565 1212v193h107v-193h-107zM236 1212v193h106v-193h-106zM637 489h-197q-129 0 -183 -49t-54 -161q0 -113 48 -155t182 -42t179 74q25 41 25 143v190zM637 584v90q0 144 -45 204q-44 60 -140 60t-143 -38t-76 -126l-100 31q61 231 305 231q201 0 273 -127
q43 -74 43 -245v-664h-95l-10 74q-41 -52 -96 -72t-156 -20q-169 0 -239 66t-70 232q0 164 76 234t260 70h213z" />
    <glyph glyph-name="aring" unicode="&#xe5;" horiz-adv-x="911" 
d="M463 1501q-100 0 -101 -127q0 -59 26 -93t73 -34t74 34t26 93q0 59 -25 93q-26 34 -73 34zM462 1571q85 0 136 -54q51 -53 51 -141t-51 -143t-135 -55t-136 54q-53 54 -53 143t52 143t136 53zM637 489h-197q-129 0 -183 -49t-54 -161q0 -113 48 -155t182 -42t179 74
q25 41 25 143v190zM637 584v90q0 144 -45 204q-44 60 -140 60t-143 -38t-76 -126l-100 31q61 231 305 231q201 0 273 -127q43 -74 43 -245v-664h-95l-10 74q-41 -52 -96 -72t-156 -20q-169 0 -239 66t-70 232q0 164 76 234t260 70h213z" />
    <glyph glyph-name="ae" unicode="&#xe6;" horiz-adv-x="1447" 
d="M754 588h452v47q0 301 -223 301q-229 0 -229 -301v-47zM637 494h-197q-127 0 -182 -50t-55 -165q0 -113 48 -157t171 -44t169 55t46 201v160zM442 1036q207 0 260 -155q80 156 283 155q174 0 255 -106t81 -332v-104h-567v-97q0 -317 241 -317q88 0 137 39q48 39 64 127
l104 -21q-22 -125 -96 -184t-209 -59q-211 0 -290 163q-49 -164 -308 -163q-169 0 -239 68t-70 232t76 234t260 70h213v90q0 142 -46 202q-45 60 -139 60t-150 -44t-73 -120l-92 31q23 109 103 170t202 61z" />
    <glyph glyph-name="ccedilla" unicode="&#xe7;" horiz-adv-x="849" 
d="M309 -438l90 288h127l-135 -288h-82zM135 410v184q0 230 82 336t256 106q125 0 190 -53t93 -178l-103 -29q-20 88 -62 125t-118 37q-115 0 -168 -81t-53 -257v-201q0 -317 221 -317q85 0 131 39t62 125l102 -21q-37 -244 -299 -243q-334 0 -334 428z" />
    <glyph glyph-name="egrave" unicode="&#xe8;" horiz-adv-x="940" 
d="M563 1194h-88l-182 279h145zM252 588h450v47q0 301 -225 301t-225 -301v-47zM252 494v-99q0 -313 240 -313q88 0 135 39t65 125l103 -21q-21 -125 -95 -184t-211 -59q-182 0 -268 106t-86 330v180q0 226 83 332t258 106t257 -106t82 -332v-104h-563z" />
    <glyph glyph-name="eacute" unicode="&#xe9;" horiz-adv-x="940" 
d="M406 1194l124 279h146l-182 -279h-88zM252 588h450v47q0 301 -225 301t-225 -301v-47zM252 494v-99q0 -313 240 -313q88 0 135 39t65 125l103 -21q-21 -125 -95 -184t-211 -59q-182 0 -268 106t-86 330v180q0 226 83 332t258 106t257 -106t82 -332v-104h-563z" />
    <glyph glyph-name="ecircumflex" unicode="&#xea;" horiz-adv-x="940" 
d="M481 1374l-121 -168h-127l213 256h72l213 -256h-129zM252 588h450v47q0 301 -225 301t-225 -301v-47zM252 494v-99q0 -313 240 -313q88 0 135 39t65 125l103 -21q-21 -125 -95 -184t-211 -59q-182 0 -268 106t-86 330v180q0 226 83 332t258 106t257 -106t82 -332v-104
h-563z" />
    <glyph glyph-name="edieresis" unicode="&#xeb;" horiz-adv-x="940" 
d="M594 1212v193h106v-193h-106zM264 1212v193h107v-193h-107zM252 588h450v47q0 301 -225 301t-225 -301v-47zM252 494v-99q0 -313 240 -313q88 0 135 39t65 125l103 -21q-21 -125 -95 -184t-211 -59q-182 0 -268 106t-86 330v180q0 226 83 332t258 106t257 -106t82 -332
v-104h-563z" />
    <glyph glyph-name="igrave" unicode="&#xec;" horiz-adv-x="444" 
d="M299 1194h-88l-182 279h145zM164 0v1018h117v-1018h-117z" />
    <glyph glyph-name="iacute" unicode="&#xed;" horiz-adv-x="444" 
d="M145 1194l125 279h146l-183 -279h-88zM162 0v1018h117v-1018h-117z" />
    <glyph glyph-name="icircumflex" unicode="&#xee;" horiz-adv-x="444" 
d="M221 1374l-121 -168h-127l211 256h74l211 -256h-127zM164 0v1018h117v-1018h-117z" />
    <glyph glyph-name="idieresis" unicode="&#xef;" horiz-adv-x="444" 
d="M334 1212v193h106v-193h-106zM4 1212v193h107v-193h-107zM164 0v1018h117v-1018h-117z" />
    <glyph glyph-name="eth" unicode="&#xf0;" horiz-adv-x="962" 
d="M711 395v219q1 162 -55 239t-175 77t-174 -77t-55 -239v-219q0 -161 55 -237t174 -76t175 76t55 237zM135 393v223q0 412 328 412q117 0 190 -61q-41 152 -102 239l-191 -92l-43 74l172 82q-102 96 -223 121l15 82q172 -20 305 -154l151 72l43 -74l-133 -62
q78 -111 129 -296t51 -357v-209q0 -213 -84 -312t-262 -99t-262 100t-84 311z" />
    <glyph glyph-name="ntilde" unicode="&#xf1;" horiz-adv-x="978" 
d="M388 1436q64 0 121 -67q58 -67 91 -66q49 0 72 116h78q-25 -115 -58 -159q-34 -44 -98 -43q-64 0 -125 67q-55 66 -84 66q-55 0 -78 -117h-78q27 115 61 159t98 44zM164 0v1018h92l8 -121q42 74 102 107t152 32q215 0 279 -178q27 -74 26 -235v-623h-116v612
q1 172 -47 247t-162 75t-165 -88q-52 -88 -52 -293v-553h-117z" />
    <glyph glyph-name="ograve" unicode="&#xf2;" horiz-adv-x="962" 
d="M563 1194h-88l-182 279h145zM711 393v232q1 163 -55 237t-175 74t-174 -75t-55 -236v-232q0 -163 55 -237t174 -74t175 74t55 237zM135 397v224q0 215 84 315t262 100t262 -100t84 -315v-224q0 -215 -84 -315t-262 -100t-262 100t-84 315z" />
    <glyph glyph-name="oacute" unicode="&#xf3;" horiz-adv-x="962" 
d="M403 1194l125 279h146l-182 -279h-89zM711 393v232q1 163 -55 237t-175 74t-174 -75t-55 -236v-232q0 -163 55 -237t174 -74t175 74t55 237zM135 397v224q0 215 84 315t262 100t262 -100t84 -315v-224q0 -215 -84 -315t-262 -100t-262 100t-84 315z" />
    <glyph glyph-name="ocircumflex" unicode="&#xf4;" horiz-adv-x="962" 
d="M481 1374l-121 -168h-127l213 256h72l213 -256h-129zM711 393v232q1 163 -55 237t-175 74t-174 -75t-55 -236v-232q0 -163 55 -237t174 -74t175 74t55 237zM135 397v224q0 215 84 315t262 100t262 -100t84 -315v-224q0 -215 -84 -315t-262 -100t-262 100t-84 315z" />
    <glyph glyph-name="otilde" unicode="&#xf5;" horiz-adv-x="962" 
d="M380 1436q64 0 121 -67q58 -67 91 -66q49 0 72 116h77q-25 -115 -57 -159t-98 -43q-64 0 -125 67q-55 66 -84 66q-55 0 -78 -117h-78q27 115 61 159t98 44zM711 393v232q1 163 -55 237t-175 74t-174 -75t-55 -236v-232q0 -163 55 -237t174 -74t175 74t55 237zM135 397
v224q0 215 84 315t262 100t262 -100t84 -315v-224q0 -215 -84 -315t-262 -100t-262 100t-84 315z" />
    <glyph glyph-name="odieresis" unicode="&#xf6;" horiz-adv-x="962" 
d="M592 1212v193h106v-193h-106zM262 1212v193h107v-193h-107zM711 393v232q1 163 -55 237t-175 74t-174 -75t-55 -236v-232q0 -163 55 -237t174 -74t175 74t55 237zM135 397v224q0 215 84 315t262 100t262 -100t84 -315v-224q0 -215 -84 -315t-262 -100t-262 100t-84 315z
" />
    <glyph glyph-name="divide" unicode="&#xf7;" 
d="M436 975v164h109v-164h-109zM436 365v163h109v-163h-109zM84 702v99h815v-99h-815z" />
    <glyph glyph-name="oslash" unicode="&#xf8;" horiz-adv-x="964" 
d="M252 625v-232q0 -94 14 -149l377 630q-57 64 -169 64t-167 -75t-55 -238zM692 778l-377 -631q59 -65 172 -65t168 75t56 236v232q-1 87 -19 153zM827 621v-224q0 -213 -84 -314t-262 -101q-139 0 -225 65l-47 -80l-78 49l62 103q-59 98 -58 278v224q0 213 83 314t261 101
q139 0 223 -63l48 80l77 -49l-61 -101q61 -90 61 -282z" />
    <glyph glyph-name="ugrave" unicode="&#xf9;" horiz-adv-x="958" 
d="M561 1194h-88l-182 279h145zM156 1018h116v-612q0 -172 45 -247t154 -75t159 89t50 292v553h117v-1018h-92l-9 121q-45 -76 -101 -108t-144 -31q-205 0 -269 178q-27 74 -26 235v623z" />
    <glyph glyph-name="uacute" unicode="&#xfa;" horiz-adv-x="958" 
d="M403 1194l125 279h146l-182 -279h-89zM156 1018h116v-612q0 -172 45 -247t154 -75t159 89t50 292v553h117v-1018h-92l-9 121q-45 -76 -101 -108t-144 -31q-205 0 -269 178q-27 74 -26 235v623z" />
    <glyph glyph-name="ucircumflex" unicode="&#xfb;" horiz-adv-x="958" 
d="M479 1374l-121 -168h-127l213 256h72l213 -256h-129zM156 1018h116v-612q0 -172 45 -247t154 -75t159 89t50 292v553h117v-1018h-92l-9 121q-45 -76 -101 -108t-144 -31q-205 0 -269 178q-27 74 -26 235v623z" />
    <glyph glyph-name="udieresis" unicode="&#xfc;" horiz-adv-x="958" 
d="M592 1212v193h106v-193h-106zM262 1212v193h107v-193h-107zM156 1018h116v-612q0 -172 45 -247t154 -75t159 89t50 292v553h117v-1018h-92l-9 121q-45 -76 -101 -108t-144 -31q-205 0 -269 178q-27 74 -26 235v623z" />
    <glyph glyph-name="yacute" unicode="&#xfd;" horiz-adv-x="837" 
d="M356 1194l125 279h146l-183 -279h-88zM115 -371q96 0 134 34t70 147l50 180l-320 1028h117l262 -887l234 887h116l-340 -1223q-49 -164 -110 -214t-213 -52v100z" />
    <glyph glyph-name="thorn" unicode="&#xfe;" horiz-adv-x="976" 
d="M725 399v224q0 313 -217 313q-227 0 -227 -354v-146q0 -354 227 -354q217 0 217 317zM281 -461h-117v1923h117v-544q53 68 106 94t141 24q313 0 314 -411v-224q0 -420 -318 -419q-84 0 -140 26t-103 88v-557z" />
    <glyph glyph-name="ydieresis" unicode="&#xff;" horiz-adv-x="837" 
d="M530 1212v193h107v-193h-107zM201 1212v193h106v-193h-106zM115 -371q96 0 134 34t70 147l50 180l-320 1028h117l262 -887l234 887h116l-340 -1223q-49 -164 -110 -214t-213 -52v100z" />
    <glyph glyph-name="Amacron" unicode="&#x100;" horiz-adv-x="1019" 
d="M301 1714v86h420v-86h-420zM758 438l-246 850l-246 -850h492zM784 336h-546l-97 -336h-131l447 1462h108l447 -1462h-131z" />
    <glyph glyph-name="amacron" unicode="&#x101;" horiz-adv-x="911" 
d="M246 1284v86h420v-86h-420zM637 489h-197q-129 0 -183 -49t-54 -161q0 -113 48 -155t182 -42t179 74q25 41 25 143v190zM637 584v90q0 144 -45 204q-44 60 -140 60t-143 -38t-76 -126l-100 31q61 231 305 231q201 0 273 -127q43 -74 43 -245v-664h-95l-10 74
q-41 -52 -96 -72t-156 -20q-169 0 -239 66t-70 232q0 164 76 234t260 70h213z" />
    <glyph glyph-name="Abreve" unicode="&#x102;" horiz-adv-x="1019" 
d="M512 1714q70 0 100 37t39 131h86q-6 -113 -28 -158q-47 -100 -203 -100t-201 115q-14 41 -20 143h84q8 -92 40 -130q33 -38 103 -38zM758 438l-246 850l-246 -850h492zM784 336h-546l-97 -336h-131l447 1462h108l447 -1462h-131z" />
    <glyph glyph-name="abreve" unicode="&#x103;" horiz-adv-x="911" 
d="M460 1282q72 0 102 37t38 131h86q-6 -113 -29 -160q-47 -100 -203 -100t-200 117q-15 37 -21 143h84q8 -92 40 -130t103 -38zM637 489h-197q-129 0 -183 -49t-54 -161q0 -113 48 -155t182 -42t179 74q25 41 25 143v190zM637 584v90q0 144 -45 204q-44 60 -140 60
t-143 -38t-76 -126l-100 31q61 231 305 231q201 0 273 -127q43 -74 43 -245v-664h-95l-10 74q-41 -52 -96 -72t-156 -20q-169 0 -239 66t-70 232q0 164 76 234t260 70h213z" />
    <glyph glyph-name="Aogonek" unicode="&#x104;" horiz-adv-x="1019" 
d="M758 438l-246 850l-246 -850h492zM932 -299q43 0 100 16l15 -75q-70 -23 -136 -23q-182 0 -182 143q0 70 49 137t127 101h-24l-97 336h-546l-97 -336h-131l447 1462h108l447 -1462q-98 -60 -136 -111q-39 -51 -38 -108q0 -80 94 -80z" />
    <glyph glyph-name="aogonek" unicode="&#x105;" horiz-adv-x="911" 
d="M637 489h-197q-129 0 -183 -49t-54 -161q0 -113 48 -155t182 -42t179 74q25 41 25 143v190zM672 -299q43 0 100 16l14 -75q-70 -23 -135 -23q-182 0 -182 142t188 249l-8 64q-41 -52 -96 -72t-156 -20q-169 0 -239 66t-70 232q0 164 76 234t260 70h213v90q0 144 -45 204
q-44 60 -140 60t-143 -38t-76 -126l-100 31q61 231 305 231q201 0 273 -127q43 -74 43 -245v-664h-2q-98 -60 -136 -111q-39 -51 -38 -106q0 -82 94 -82z" />
    <glyph glyph-name="Cacute" unicode="&#x106;" horiz-adv-x="1093" 
d="M485 1626l125 281h146l-183 -281h-88zM559 -18q-225 0 -328 161q-70 113 -69 361v454q0 266 88 383q104 137 296 137t290 -94q98 -96 104 -276l-115 -4q-18 272 -264 272q-147 0 -213 -99t-65 -323v-448q0 -223 65 -323q66 -99 202 -99t208 75t78 212l114 -6
q-4 -183 -106 -283t-285 -100z" />
    <glyph glyph-name="cacute" unicode="&#x107;" horiz-adv-x="849" 
d="M389 1194l125 279h145l-182 -279h-88zM135 410v184q0 230 82 336t256 106q125 0 190 -53t93 -178l-103 -29q-20 88 -62 125t-118 37q-115 0 -168 -81t-53 -257v-201q0 -317 221 -317q85 0 131 39t62 125l102 -21q-37 -244 -299 -243q-334 0 -334 428z" />
    <glyph glyph-name="Ccircumflex" unicode="&#x108;" horiz-adv-x="1091" 
d="M559 1806l-121 -168h-127l213 256h72l213 -256h-129zM559 -18q-225 0 -328 161q-70 113 -69 361v454q0 266 88 383q104 137 296 137t290 -94q98 -96 104 -276l-115 -4q-18 272 -264 272q-147 0 -213 -99t-65 -323v-448q0 -223 65 -323q66 -99 202 -99t208 75t78 212
l114 -6q-4 -183 -106 -283t-285 -100z" />
    <glyph glyph-name="ccircumflex" unicode="&#x109;" horiz-adv-x="849" 
d="M459 1374l-121 -168h-127l213 256h72l213 -256h-129zM135 410v184q0 230 82 336t256 106q125 0 190 -53t93 -178l-103 -29q-20 88 -62 125t-118 37q-115 0 -168 -81t-53 -257v-201q0 -317 221 -317q85 0 131 39t62 125l102 -21q-37 -244 -299 -243q-334 0 -334 428z" />
    <glyph glyph-name="Cdotaccent" unicode="&#x10a;" horiz-adv-x="1093" 
d="M508 1645v192h115v-192h-115zM559 -18q-225 0 -328 161q-70 113 -69 361v454q0 266 88 383q104 137 296 137t290 -94q98 -96 104 -276l-115 -4q-18 272 -264 272q-147 0 -213 -99t-65 -323v-448q0 -223 65 -323q66 -99 202 -99t208 75t78 212l114 -6q-4 -183 -106 -283
t-285 -100z" />
    <glyph glyph-name="cdotaccent" unicode="&#x10b;" horiz-adv-x="849" 
d="M406 1212v193h114v-193h-114zM135 410v184q0 230 82 336t256 106q125 0 190 -53t93 -178l-103 -29q-20 88 -62 125t-118 37q-115 0 -168 -81t-53 -257v-201q0 -317 221 -317q85 0 131 39t62 125l102 -21q-37 -244 -299 -243q-334 0 -334 428z" />
    <glyph glyph-name="Ccaron" unicode="&#x10c;" horiz-adv-x="1093" 
d="M567 1724l121 168h129l-213 -256h-72l-213 256h127zM559 -18q-225 0 -328 161q-70 113 -69 361v454q0 266 88 383q104 137 296 137t290 -94q98 -96 104 -276l-115 -4q-18 272 -264 272q-147 0 -213 -99t-65 -323v-448q0 -223 65 -323q66 -99 202 -99t208 75t78 212
l114 -6q-4 -183 -106 -283t-285 -100z" />
    <glyph glyph-name="ccaron" unicode="&#x10d;" horiz-adv-x="849" 
d="M467 1292l121 170h129l-213 -258h-72l-213 258h127zM135 410v184q0 230 82 336t256 106q125 0 190 -53t93 -178l-103 -29q-20 88 -62 125t-118 37q-115 0 -168 -81t-53 -257v-201q0 -317 221 -317q85 0 131 39t62 125l102 -21q-37 -244 -299 -243q-334 0 -334 428z" />
    <glyph glyph-name="Dcaron" unicode="&#x10e;" horiz-adv-x="1169" 
d="M537 1724l120 168h129l-213 -256h-71l-213 256h127zM313 1360v-1258h244q334 -8 330 394v471q4 401 -330 393h-244zM193 0v1462h376q219 2 331 -120t108 -359v-504q4 -237 -108 -359t-331 -120h-376z" />
    <glyph glyph-name="dcaron" unicode="&#x10f;" horiz-adv-x="1087" 
d="M958 1044l41 426h123l-82 -426h-82zM252 623v-222q0 -319 217 -319q229 0 229 354v146q0 354 -229 354q-217 0 -217 -313zM135 401v224q0 209 79 310t241 101q121 0 194 -61q16 -16 49 -60v547h117v-1462h-92l-10 109q-54 -75 -111 -101q-57 -27 -145 -26
q-322 0 -322 419z" />
    <glyph glyph-name="Dcroat" unicode="&#x110;" horiz-adv-x="1169" 
d="M313 791h305v-103h-305v-586h244q170 -4 251 94t79 300v469q2 205 -80 302t-250 93h-244v-569zM193 791v671h374q221 4 334 -119t107 -360v-504q6 -239 -107 -361t-334 -118h-374v688h-148v103h148z" />
    <glyph glyph-name="dcroat" unicode="&#x111;" horiz-adv-x="978" 
d="M252 623v-222q0 -319 215 -319q229 0 229 354v146q0 354 -227 354q-217 0 -217 -313zM696 1180h-260v88h260v194h117v-194h139v-88h-139v-1180h-92l-10 109q-51 -72 -107 -100t-147 -27q-322 0 -322 419v224q0 209 79 310t241 101q123 0 192 -61q2 -2 49 -60v265z" />
    <glyph glyph-name="Emacron" unicode="&#x112;" horiz-adv-x="993" 
d="M326 1714v86h419v-86h-419zM193 0v1462h698v-104h-578v-565h494v-105h-494v-584h578v-104h-698z" />
    <glyph glyph-name="emacron" unicode="&#x113;" horiz-adv-x="940" 
d="M270 1282v86h420v-86h-420zM252 588h450v47q0 301 -225 301t-225 -301v-47zM252 494v-99q0 -313 240 -313q88 0 135 39t65 125l103 -21q-21 -125 -95 -184t-211 -59q-182 0 -268 106t-86 330v180q0 226 83 332t258 106t257 -106t82 -332v-104h-563z" />
    <glyph glyph-name="Ebreve" unicode="&#x114;" horiz-adv-x="993" 
d="M544 1714q72 0 102 37t38 131h86q-6 -113 -29 -158q-47 -100 -203 -100t-200 115q-15 41 -21 143h84q8 -92 40 -130t103 -38zM193 0v1462h698v-104h-578v-565h494v-105h-494v-584h578v-104h-698z" />
    <glyph glyph-name="ebreve" unicode="&#x115;" horiz-adv-x="940" 
d="M476 1282q70 0 102 37q31 37 38 131h86q-6 -113 -28 -160q-47 -100 -203 -100t-201 117q-14 37 -20 143h84q8 -92 40 -130t102 -38zM252 588h450v47q0 301 -225 301t-225 -301v-47zM252 494v-99q0 -313 240 -313q88 0 135 39t65 125l103 -21q-21 -125 -95 -184t-211 -59
q-182 0 -268 106t-86 330v180q0 226 83 332t258 106t257 -106t82 -332v-104h-563z" />
    <glyph glyph-name="Edotaccent" unicode="&#x116;" horiz-adv-x="993" 
d="M489 1645v192h115v-192h-115zM193 0v1462h698v-104h-578v-565h494v-105h-494v-584h578v-104h-698z" />
    <glyph glyph-name="edotaccent" unicode="&#x117;" horiz-adv-x="940" 
d="M424 1212v193h115v-193h-115zM252 588h450v47q0 301 -225 301t-225 -301v-47zM252 494v-99q0 -313 240 -313q88 0 135 39t65 125l103 -21q-21 -125 -95 -184t-211 -59q-182 0 -268 106t-86 330v180q0 226 83 332t258 106t257 -106t82 -332v-104h-563z" />
    <glyph glyph-name="Eogonek" unicode="&#x118;" horiz-adv-x="993" 
d="M193 0v1462h698v-104h-578v-565h494v-105h-494v-584h578v-104q-98 -66 -136 -113t-38 -104q0 -82 94 -82q43 0 98 16l15 -75q-70 -23 -133 -23q-182 0 -183 143q0 147 174 238h-589z" />
    <glyph glyph-name="eogonek" unicode="&#x119;" horiz-adv-x="940" 
d="M252 588h450v47q0 301 -225 301t-225 -301v-47zM481 -217q0 -82 94 -82q43 0 101 16l14 -75q-68 -23 -135 -23q-182 0 -182 145q1 62 27 110t98 108h-15q-201 0 -288 143q-59 94 -60 293v180q0 226 83 332t258 106t257 -106t82 -332v-104h-563v-99q0 -313 240 -313
q88 0 135 39t65 125l103 -21q-25 -162 -142 -213q-96 -66 -134 -116t-38 -113z" />
    <glyph glyph-name="Ecaron" unicode="&#x11a;" horiz-adv-x="993" 
d="M547 1724l121 168h129l-213 -256h-72l-213 256h127zM193 0v1462h698v-104h-578v-565h494v-105h-494v-584h578v-104h-698z" />
    <glyph glyph-name="ecaron" unicode="&#x11b;" horiz-adv-x="940" 
d="M481 1292l121 170h129l-213 -258h-72l-213 258h127zM252 588h450v47q0 301 -225 301t-225 -301v-47zM252 494v-99q0 -313 240 -313q88 0 135 39t65 125l103 -21q-21 -125 -95 -184t-211 -59q-182 0 -268 106t-86 330v180q0 226 83 332t258 106t257 -106t82 -332v-104
h-563z" />
    <glyph glyph-name="Gcircumflex" unicode="&#x11c;" horiz-adv-x="1138" 
d="M569 1806l-120 -168h-127l213 256h71l213 -256h-129zM580 84q297 0 299 379v186h-263v101h383v-267q0 -246 -92 -360q-113 -141 -338 -141t-333 161q-74 115 -74 359v454q0 268 90 385q106 137 302 137t298 -96q100 -96 104 -274l-112 -4q-8 131 -79 202t-192 70
q-155 0 -223 -99t-67 -323v-448q0 -223 69 -323q70 -99 228 -99z" />
    <glyph glyph-name="gcircumflex" unicode="&#x11d;" horiz-adv-x="978" 
d="M494 1374l-121 -168h-127l213 256h71l213 -256h-129zM252 623v-222q0 -319 219 -319q227 0 227 354v146q0 354 -229 354q-217 0 -217 -313zM698 -66v168q-84 -121 -245 -120q-317 0 -318 419v222q0 211 78 312t240 101q92 0 152 -30t106 -101l10 113h94v-1071
q0 -217 -86 -321t-266 -103q-127 0 -197 51t-98 164l102 26q20 -76 64 -110t127 -33q123 -1 180 75t57 238z" />
    <glyph glyph-name="Gbreve" unicode="&#x11e;" horiz-adv-x="1138" 
d="M572 1714q70 0 102 37q31 37 39 131h86q-6 -113 -29 -158q-47 -100 -203 -100t-200 115q-15 41 -21 143h84q8 -92 40 -130t102 -38zM580 84q297 0 299 379v186h-263v101h383v-267q0 -246 -92 -360q-113 -141 -338 -141t-333 161q-74 115 -74 359v454q0 268 90 385
q106 137 302 137t298 -96q100 -96 104 -274l-112 -4q-8 131 -79 202t-192 70q-155 0 -223 -99t-67 -323v-448q0 -223 69 -323q70 -99 228 -99z" />
    <glyph glyph-name="gbreve" unicode="&#x11f;" horiz-adv-x="978" 
d="M507 1282q71 0 101 37t39 131h86q-6 -113 -28 -160q-47 -100 -203 -100t-201 117q-14 37 -20 143h84q7 -92 39 -130t103 -38zM252 623v-222q0 -319 219 -319q227 0 227 354v146q0 354 -229 354q-217 0 -217 -313zM698 -66v168q-84 -121 -245 -120q-317 0 -318 419v222
q0 211 78 312t240 101q92 0 152 -30t106 -101l10 113h94v-1071q0 -217 -86 -321t-266 -103q-127 0 -197 51t-98 164l102 26q20 -76 64 -110t127 -33q123 -1 180 75t57 238z" />
    <glyph glyph-name="Gdotaccent" unicode="&#x120;" horiz-adv-x="1138" 
d="M512 1645v192h115v-192h-115zM580 84q297 0 299 379v186h-263v101h383v-267q0 -246 -92 -360q-113 -141 -338 -141t-333 161q-74 115 -74 359v454q0 268 90 385q106 137 302 137t298 -96q100 -96 104 -274l-112 -4q-8 131 -79 202t-192 70q-155 0 -223 -99t-67 -323v-448
q0 -223 69 -323q70 -99 228 -99z" />
    <glyph glyph-name="gdotaccent" unicode="&#x121;" horiz-adv-x="978" 
d="M453 1212v193h114v-193h-114zM252 623v-222q0 -319 219 -319q227 0 227 354v146q0 354 -229 354q-217 0 -217 -313zM698 -66v168q-84 -121 -245 -120q-317 0 -318 419v222q0 211 78 312t240 101q92 0 152 -30t106 -101l10 113h94v-1071q0 -217 -86 -321t-266 -103
q-127 0 -197 51t-98 164l102 26q20 -76 64 -110t127 -33q123 -1 180 75t57 238z" />
    <glyph glyph-name="Gcommaaccent" unicode="&#x122;" horiz-adv-x="1138" 
d="M446 -438l91 288h127l-136 -288h-82zM580 84q297 0 299 379v186h-263v101h383v-267q0 -246 -92 -360q-113 -141 -338 -141t-333 161q-74 115 -74 359v454q0 268 90 385q106 137 302 137t298 -96q100 -96 104 -274l-112 -4q-8 131 -79 202t-192 70q-155 0 -223 -99
t-67 -323v-448q0 -223 69 -323q70 -99 228 -99z" />
    <glyph glyph-name="gcommaaccent" unicode="&#x123;" horiz-adv-x="978" 
d="M422 1194l182 279h88l-125 -279h-145zM252 623v-222q0 -319 219 -319q227 0 227 354v146q0 354 -229 354q-217 0 -217 -313zM698 -66v168q-84 -121 -245 -120q-317 0 -318 419v222q0 211 78 312t240 101q92 0 152 -30t106 -101l10 113h94v-1071q0 -217 -86 -321
t-266 -103q-127 0 -197 51t-98 164l102 26q20 -76 64 -110t127 -33q123 -1 180 75t57 238z" />
    <glyph glyph-name="Hcircumflex" unicode="&#x124;" horiz-adv-x="1171" 
d="M586 1806l-121 -168h-127l213 256h72l213 -256h-129zM193 0v1462h120v-669h547v669h121v-1462h-121v688h-547v-688h-120z" />
    <glyph glyph-name="hcircumflex" unicode="&#x125;" horiz-adv-x="978" 
d="M276 1806l-120 -168h-127l211 256h73l211 -256h-127zM162 0v1462h117v-542q82 117 243 116q209 0 275 -178q27 -74 26 -235v-623h-116v614q0 133 -25 197q-45 123 -172 123t-179 -88t-52 -289v-557h-117z" />
    <glyph glyph-name="Hbar" unicode="&#x126;" horiz-adv-x="1171" 
d="M313 793h547v225h-547v-225zM193 0v1018h-109v94h109v350h120v-350h547v350h121v-350h106v-94h-106v-1018h-121v688h-547v-688h-120z" />
    <glyph glyph-name="hbar" unicode="&#x127;" horiz-adv-x="980" 
d="M164 1180h-139v88h139v194h117v-194h260v-88h-260v-260q86 117 243 116q209 0 275 -178q27 -72 26 -235v-623h-116v614q0 133 -25 197q-45 123 -172 123t-179 -88t-52 -289v-557h-117v1180z" />
    <glyph glyph-name="Itilde" unicode="&#x128;" horiz-adv-x="503" 
d="M148 1870q62 0 122 -67t92 -66q45 0 72 116h78q-26 -119 -58 -161t-98 -43q-66 1 -124 67t-85 66q-54 0 -77 -117h-78q27 115 60 160q34 45 96 45zM190 0v1462h121v-1462h-121z" />
    <glyph glyph-name="itilde" unicode="&#x129;" horiz-adv-x="444" 
d="M120 1436q62 0 122 -67t92 -66q45 0 72 116h77q-25 -117 -57 -159t-98 -43q-64 1 -123 67t-86 66q-55 0 -78 -117h-78q25 113 60 158t97 45zM164 0v1018h117v-1018h-117z" />
    <glyph glyph-name="Imacron" unicode="&#x12a;" horiz-adv-x="503" 
d="M43 1714v88h418v-88h-418zM190 0v1462h121v-1462h-121z" />
    <glyph glyph-name="imacron" unicode="&#x12b;" horiz-adv-x="444" 
d="M12 1282v88h418v-88h-418zM162 0v1018h117v-1018h-117z" />
    <glyph glyph-name="Ibreve" unicode="&#x12c;" horiz-adv-x="503" 
d="M254 1716q70 0 102 37t37 129h86q-6 -113 -28 -158q-47 -100 -203 -100t-201 115q-14 41 -20 143h84q8 -90 40 -128q33 -38 103 -38zM193 0v1462h120v-1462h-120z" />
    <glyph glyph-name="ibreve" unicode="&#x12d;" horiz-adv-x="444" 
d="M222 1282q70 0 103 38q32 38 37 130h87q-6 -113 -29 -160q-47 -100 -203 -100t-201 117q-14 37 -20 143h84q8 -92 40 -130t102 -38zM164 0v1018h117v-1018h-117z" />
    <glyph glyph-name="Iogonek" unicode="&#x12e;" horiz-adv-x="503" 
d="M311 1462v-1462q-83 -59 -117 -106t-34 -105q0 -88 92 -88q39 0 96 16l14 -75q-70 -23 -135 -23q-176 1 -176 147t156 234h-17v1462h121z" />
    <glyph glyph-name="iogonek" unicode="&#x12f;" horiz-adv-x="444" 
d="M164 1272v194h117v-194h-117zM129 -208q0 -52 22 -72q23 -20 67 -19q44 0 99 16l15 -75q-70 -23 -135 -23q-177 0 -177 144t152 237h-8v1018h117v-1018q-86 -64 -119 -110t-33 -98z" />
    <glyph glyph-name="Idotaccent" unicode="&#x130;" horiz-adv-x="503" 
d="M193 1645v192h114v-192h-114zM190 0v1462h121v-1462h-121z" />
    <glyph glyph-name="dotlessi" unicode="&#x131;" horiz-adv-x="444" 
d="M164 0v1018h117v-1018h-117z" />
    <glyph glyph-name="IJ" unicode="&#x132;" horiz-adv-x="1009" 
d="M696 1462h121v-1437q0 -166 -8 -239t-35 -124q-80 -158 -289 -158q-80 0 -155 29l45 96q53 -23 102 -22q152 0 199 145q20 61 20 266v1444zM193 0v1462h120v-1462h-120z" />
    <glyph glyph-name="ij" unicode="&#x133;" horiz-adv-x="888" 
d="M606 1272v194h117v-194h-117zM606 1018h117v-1067q4 -233 -70 -329t-258 -93v102q115 -8 165 66t46 242v1079zM164 0v1018h117v-1018h-117zM164 1272v194h117v-194h-117z" />
    <glyph glyph-name="Jcircumflex" unicode="&#x134;" horiz-adv-x="776" 
d="M502 1806l-121 -168h-127l213 256h72l213 -256h-129zM475 1462h121v-960q0 -166 -9 -238t-36 -123q-78 -158 -289 -157q-164 0 -282 120l71 80q92 -98 207 -98q147 0 195 145q23 68 22 265v966z" />
    <glyph glyph-name="jcircumflex" unicode="&#x135;" horiz-adv-x="454" 
d="M223 1374l-121 -168h-127l213 256h72l213 -256h-129zM168 1018h117v-1067q4 -233 -70 -329t-258 -93v102q115 -8 165 66t46 242v1079z" />
    <glyph glyph-name="Kcommaaccent" unicode="&#x136;" horiz-adv-x="1062" 
d="M444 -440l91 288h127l-136 -288h-82zM193 0v1462h120v-831l553 831h138l-402 -596l447 -866h-136l-385 768l-215 -313v-455h-120z" />
    <glyph glyph-name="kcommaaccent" unicode="&#x137;" horiz-adv-x="892" 
d="M338 -440l90 288h127l-135 -288h-82zM164 0v1462h117v-1052l399 608h131l-291 -430l324 -588h-127l-266 496l-170 -256v-240h-117z" />
    <glyph glyph-name="kgreenlandic" unicode="&#x138;" horiz-adv-x="892" 
d="M164 0v1018h117v-608l399 608h131l-291 -430l324 -588h-127l-266 496l-170 -256v-240h-117z" />
    <glyph glyph-name="Lacute" unicode="&#x139;" horiz-adv-x="921" 
d="M229 1626l125 281h146l-183 -281h-88zM193 0v1462h120v-1358h588v-104h-708z" />
    <glyph glyph-name="lacute" unicode="&#x13a;" horiz-adv-x="505" 
d="M176 1626l125 279h145l-182 -279h-88zM162 1462h117v-1179q-2 -104 28 -144q31 -39 113 -39h47v-100h-51q-150 2 -202 61t-52 230v1171z" />
    <glyph glyph-name="Lcommaaccent" unicode="&#x13b;" horiz-adv-x="921" 
d="M393 -440l90 288h127l-135 -288h-82zM193 0v1462h120v-1358h588v-104h-708z" />
    <glyph glyph-name="lcommaaccent" unicode="&#x13c;" horiz-adv-x="505" 
d="M147 -440l91 290h127l-136 -290h-82zM160 1462h116v-1179q-2 -103 29 -143t113 -40h47v-100h-51q-150 2 -202 61t-52 230v1171z" />
    <glyph glyph-name="Lcaron" unicode="&#x13d;" horiz-adv-x="921" 
d="M508 1044l41 426h123l-82 -426h-82zM193 0v1462h120v-1358h588v-104h-708z" />
    <glyph glyph-name="lcaron" unicode="&#x13e;" horiz-adv-x="573" 
d="M434 1044l41 426h123l-82 -426h-82zM162 1462h117v-1179q-2 -104 28 -144q31 -39 113 -39h47v-100h-51q-150 2 -202 61t-52 230v1171z" />
    <glyph glyph-name="Ldot" unicode="&#x13f;" horiz-adv-x="921" 
d="M639 664v174h109v-174h-109zM193 0v1462h120v-1358h588v-104h-708z" />
    <glyph glyph-name="ldot" unicode="&#x140;" horiz-adv-x="544" 
d="M434 664v174h109v-174h-109zM162 1462h117v-1179q-2 -104 28 -144q31 -39 113 -39h47v-100h-51q-150 2 -202 61t-52 230v1171z" />
    <glyph glyph-name="Lslash" unicode="&#x141;" horiz-adv-x="921" 
d="M190 0v465l-131 -109v121l131 109v876h121v-786l355 291v-121l-355 -293v-449h588v-104h-709z" />
    <glyph glyph-name="lslash" unicode="&#x142;" horiz-adv-x="518" 
d="M168 1462h117v-631l198 164v-125l-198 -163v-424q-2 -104 28 -144q31 -39 113 -39h47v-100h-51q-145 0 -200 58q-54 58 -54 216v347l-162 -132v123l162 133v717z" />
    <glyph glyph-name="Nacute" unicode="&#x143;" horiz-adv-x="1243" 
d="M575 1626l125 281h146l-182 -281h-89zM193 0v1462h116l627 -1226v1226h117v-1462h-115l-629 1229v-1229h-116z" />
    <glyph glyph-name="nacute" unicode="&#x144;" horiz-adv-x="978" 
d="M416 1194l125 279h145l-182 -279h-88zM164 0v1018h92l8 -121q42 74 102 107t152 32q215 0 279 -178q27 -74 26 -235v-623h-116v612q1 172 -47 247t-162 75t-165 -88q-52 -88 -52 -293v-553h-117z" />
    <glyph glyph-name="Ncommaaccent" unicode="&#x145;" horiz-adv-x="1243" 
d="M496 -440l90 288h127l-135 -288h-82zM193 0v1462h116l627 -1226v1226h117v-1462h-115l-629 1229v-1229h-116z" />
    <glyph glyph-name="ncommaaccent" unicode="&#x146;" horiz-adv-x="978" 
d="M360 -440l91 288h127l-136 -288h-82zM164 0v1018h92l8 -121q42 74 102 107t152 32q215 0 279 -178q27 -74 26 -235v-623h-116v612q1 172 -47 247t-162 75t-165 -88q-52 -88 -52 -293v-553h-117z" />
    <glyph glyph-name="Ncaron" unicode="&#x147;" horiz-adv-x="1243" 
d="M643 1724l121 168h129l-213 -256h-72l-213 256h127zM193 0v1462h116l627 -1226v1226h117v-1462h-115l-629 1229v-1229h-116z" />
    <glyph glyph-name="ncaron" unicode="&#x148;" horiz-adv-x="978" 
d="M487 1292l121 170h129l-213 -258h-71l-213 258h127zM164 0v1018h92l8 -121q42 74 102 107t152 32q215 0 279 -178q27 -74 26 -235v-623h-116v612q1 172 -47 247t-162 75t-165 -88q-52 -88 -52 -293v-553h-117z" />
    <glyph glyph-name="napostrophe" unicode="&#x149;" horiz-adv-x="1034" 
d="M35 993l63 469h127l-92 -469h-98zM221 0v1018h92l9 -127q43 77 102 111t151 34q215 0 279 -178q27 -74 27 -235v-623h-117v612q0 172 -47 247t-161 75t-166 -88t-52 -293v-553h-117z" />
    <glyph glyph-name="Eng" unicode="&#x14a;" horiz-adv-x="1243" 
d="M193 0v1462h116l627 -1224v1224h117v-1515q4 -231 -69 -325t-257 -93v100q113 -8 164 65t49 236v76l-631 1223v-1229h-116z" />
    <glyph glyph-name="eng" unicode="&#x14b;" horiz-adv-x="978" 
d="M164 0v1018h92l8 -127q42 77 102 111t154 34q213 0 277 -178q27 -74 26 -235v-672q4 -233 -69 -329q-74 -95 -258 -93v102q114 -8 164 65t47 243v673q1 170 -47 246t-162 76t-165 -88q-52 -88 -52 -291v-555h-117z" />
    <glyph glyph-name="Omacron" unicode="&#x14c;" horiz-adv-x="1165" 
d="M373 1714v86h420v-86h-420zM584 84q299 0 299 408v479q0 407 -299 407q-164 0 -244 -125q-57 -94 -57 -282v-479q0 -203 69 -302q80 -106 232 -106zM162 983q0 498 429 498q220 0 333 -158q80 -111 80 -340v-504q0 -244 -97 -362q-115 -135 -333 -135t-332 157
q-80 115 -80 340v504z" />
    <glyph glyph-name="omacron" unicode="&#x14d;" horiz-adv-x="962" 
d="M272 1282v86h420v-86h-420zM711 393v232q1 163 -55 237t-175 74t-174 -75t-55 -236v-232q0 -163 55 -237t174 -74t175 74t55 237zM135 397v224q0 215 84 315t262 100t262 -100t84 -315v-224q0 -215 -84 -315t-262 -100t-262 100t-84 315z" />
    <glyph glyph-name="Obreve" unicode="&#x14e;" horiz-adv-x="1165" 
d="M583 1714q71 0 101 37t39 131h86q-6 -113 -29 -158q-46 -100 -202 -100t-201 115q-15 41 -21 143h84q8 -92 40 -130t103 -38zM584 84q299 0 299 408v479q0 407 -299 407q-164 0 -244 -125q-57 -94 -57 -282v-479q0 -203 69 -302q80 -106 232 -106zM162 983q0 498 429 498
q220 0 333 -158q80 -111 80 -340v-504q0 -244 -97 -362q-115 -135 -333 -135t-332 157q-80 115 -80 340v504z" />
    <glyph glyph-name="obreve" unicode="&#x14f;" horiz-adv-x="962" 
d="M482 1282q70 0 102 37q31 37 39 131h86q-6 -113 -29 -160q-47 -100 -203 -100t-201 117q-14 37 -20 143h84q8 -92 40 -130t102 -38zM711 393v232q1 163 -55 237t-175 74t-174 -75t-55 -236v-232q0 -163 55 -237t174 -74t175 74t55 237zM135 397v224q0 215 84 315t262 100
t262 -100t84 -315v-224q0 -215 -84 -315t-262 -100t-262 100t-84 315z" />
    <glyph glyph-name="Ohungarumlaut" unicode="&#x150;" horiz-adv-x="1165" 
d="M639 1626l100 281h133l-149 -281h-84zM422 1626l100 281h133l-149 -281h-84zM584 84q299 0 299 408v479q0 407 -299 407q-164 0 -244 -125q-57 -94 -57 -282v-479q0 -203 69 -302q80 -106 232 -106zM162 983q0 498 429 498q220 0 333 -158q80 -111 80 -340v-504
q0 -244 -97 -362q-115 -135 -333 -135t-332 157q-80 115 -80 340v504z" />
    <glyph glyph-name="ohungarumlaut" unicode="&#x151;" horiz-adv-x="962" 
d="M537 1194l100 279h133l-149 -279h-84zM319 1194l101 279h133l-150 -279h-84zM711 393v232q1 163 -55 237t-175 74t-174 -75t-55 -236v-232q0 -163 55 -237t174 -74t175 74t55 237zM135 397v224q0 215 84 315t262 100t262 -100t84 -315v-224q0 -215 -84 -315t-262 -100
t-262 100t-84 315z" />
    <glyph glyph-name="OE" unicode="&#x152;" horiz-adv-x="1685" 
d="M283 971v-479q0 -404 299 -406q301 0 301 406v479q0 406 -301 405q-162 0 -242 -125q-57 -94 -57 -280zM897 0v143q-47 -63 -80 -90q-92 -72 -244 -71q-221 0 -333 157q-78 115 -78 338v508q0 242 104 369t307 127q117 0 190 -35t134 -123v139h684v-104h-577v-565h491
v-105h-491v-584h577v-104h-684z" />
    <glyph glyph-name="oe" unicode="&#x153;" horiz-adv-x="1521" 
d="M829 590h453v47q0 301 -226 301t-227 -303v-45zM713 395v230q1 161 -55 237t-175 76t-175 -76t-56 -237v-230q0 -159 56 -235t175 -76t175 76t55 235zM135 399v222q0 213 83 314t259 101q215 0 295 -164q74 164 287 164q174 0 255 -105t81 -333v-102h-566v-99
q0 -317 242 -317q88 0 134 39t65 127l104 -19q-41 -246 -303 -245q-111 0 -181 40t-114 128q-82 -166 -295 -166q-178 0 -262 100t-84 315z" />
    <glyph glyph-name="Racute" unicode="&#x154;" horiz-adv-x="1114" 
d="M481 1626l125 281h146l-183 -281h-88zM313 754h258q150 0 217 77q66 78 66 231q0 298 -293 298h-248v-606zM315 653v-653h-120v1462h374q219 0 313 -105t93 -296q0 -338 -262 -393l272 -668h-133l-258 653h-279z" />
    <glyph glyph-name="racute" unicode="&#x155;" horiz-adv-x="647" 
d="M299 1194l125 279h145l-182 -279h-88zM164 0v1018h92l12 -117q68 135 215 135q82 0 158 -49l-51 -98q-66 45 -119 45q-100 0 -145 -102t-45 -332v-500h-117z" />
    <glyph glyph-name="Rcommaaccent" unicode="&#x156;" horiz-adv-x="1114" 
d="M432 -440l90 288h127l-135 -288h-82zM313 754h258q150 0 217 77q66 78 66 231q0 298 -293 298h-248v-606zM315 653v-653h-120v1462h374q219 0 313 -105t93 -296q0 -338 -262 -393l272 -668h-133l-258 653h-279z" />
    <glyph glyph-name="rcommaaccent" unicode="&#x157;" horiz-adv-x="647" 
d="M76 -440l90 290h127l-135 -290h-82zM164 0v1018h92l12 -117q68 135 215 135q82 0 158 -49l-51 -98q-61 45 -121 45q-100 0 -144 -102t-44 -332v-500h-117z" />
    <glyph glyph-name="Rcaron" unicode="&#x158;" horiz-adv-x="1114" 
d="M539 1724l120 168h129l-213 -256h-71l-213 256h127zM313 754h258q150 0 217 77q66 78 66 231q0 298 -293 298h-248v-606zM315 653v-653h-120v1462h374q219 0 313 -105t93 -296q0 -338 -262 -393l272 -668h-133l-258 653h-279z" />
    <glyph glyph-name="rcaron" unicode="&#x159;" horiz-adv-x="647" 
d="M371 1292l121 170h126l-210 -258h-72l-213 258h127zM164 0v1018h92l12 -117q68 135 213 135q84 0 160 -49l-51 -98q-61 45 -121 45q-100 0 -144 -102t-44 -332v-500h-117z" />
    <glyph glyph-name="Sacute" unicode="&#x15a;" horiz-adv-x="1005" 
d="M438 1626l125 281h146l-183 -281h-88zM505 84q132 0 207 77q74 77 74 222t-77 213q-35 33 -70 47t-160 51q-184 56 -266 150t-82 264t97 270t272 101q291 0 350 -275l-107 -24q-31 104 -88 150t-167 46t-174 -72t-64 -196q0 -125 66 -195q66 -69 206 -111
q142 -42 184 -60t85 -56q115 -96 115 -294t-107 -304t-293 -106t-282 72q-95 73 -130 235l107 26q35 -121 103 -176t201 -55z" />
    <glyph glyph-name="sacute" unicode="&#x15b;" horiz-adv-x="829" 
d="M336 1194l125 279h145l-182 -279h-88zM399 80q229 0 230 194q0 104 -66 146q-39 24 -183 54t-208 92t-64 194q0 131 75 204q75 72 212 72t208 -54t97 -177l-102 -21q-35 154 -197 154q-86 0 -133 -47t-47 -131t44 -125t160 -65t161 -40t78 -45q78 -61 77 -211
q0 -293 -344 -292q-287 -1 -334 243l103 23q27 -90 81 -129t152 -39z" />
    <glyph glyph-name="Scircumflex" unicode="&#x15c;" horiz-adv-x="1005" 
d="M508 1806l-121 -168h-127l213 256h72l213 -256h-129zM505 84q132 0 207 77q74 77 74 222t-77 213q-35 33 -70 47t-160 51q-184 56 -266 150t-82 264t97 270t272 101q291 0 350 -275l-107 -24q-31 104 -88 150t-167 46t-174 -72t-64 -196q0 -125 66 -195q66 -69 206 -111
q142 -42 184 -60t85 -56q115 -96 115 -294t-107 -304t-293 -106t-282 72q-95 73 -130 235l107 26q35 -121 103 -176t201 -55z" />
    <glyph glyph-name="scircumflex" unicode="&#x15d;" horiz-adv-x="829" 
d="M408 1374l-121 -168h-127l213 256h71l213 -256h-129zM399 80q229 0 230 194q0 104 -66 146q-39 24 -183 54t-208 92t-64 194q0 131 75 204q75 72 212 72t208 -54t97 -177l-102 -21q-35 154 -197 154q-86 0 -133 -47t-47 -131t44 -125t160 -65t161 -40t78 -45
q78 -61 77 -211q0 -293 -344 -292q-287 -1 -334 243l103 23q27 -90 81 -129t152 -39z" />
    <glyph glyph-name="Scedilla" unicode="&#x15e;" horiz-adv-x="1005" 
d="M350 -438l90 288h127l-135 -288h-82zM505 84q132 0 207 77q74 77 74 222t-77 213q-35 33 -70 47t-160 51q-184 56 -266 150t-82 264t97 270t272 101q291 0 350 -275l-107 -24q-31 104 -88 150t-167 46t-174 -72t-64 -196q0 -125 66 -195q66 -69 206 -111q142 -42 184 -60
t85 -56q115 -96 115 -294t-107 -304t-293 -106t-282 72q-95 73 -130 235l107 26q35 -121 103 -176t201 -55z" />
    <glyph glyph-name="scedilla" unicode="&#x15f;" horiz-adv-x="829" 
d="M274 -438l91 288h127l-136 -288h-82zM399 80q229 0 230 194q0 104 -66 146q-39 24 -183 54t-208 92t-64 194q0 131 75 204q75 72 212 72t208 -54t97 -177l-102 -21q-35 154 -197 154q-86 0 -133 -47t-47 -131t44 -125t160 -65t161 -40t78 -45q78 -61 77 -211
q0 -293 -344 -292q-287 -1 -334 243l103 23q27 -90 81 -129t152 -39z" />
    <glyph glyph-name="Scaron" unicode="&#x160;" horiz-adv-x="1005" 
d="M512 1724l121 168h129l-213 -256h-72l-213 256h127zM505 84q132 0 207 77q74 77 74 222t-77 213q-35 33 -70 47t-160 51q-184 56 -266 150t-82 264t97 270t272 101q291 0 350 -275l-107 -24q-31 104 -88 150t-167 46t-174 -72t-64 -196q0 -125 66 -195q66 -69 206 -111
q142 -42 184 -60t85 -56q115 -96 115 -294t-107 -304t-293 -106t-282 72q-95 73 -130 235l107 26q35 -121 103 -176t201 -55z" />
    <glyph glyph-name="scaron" unicode="&#x161;" horiz-adv-x="829" 
d="M412 1292l120 170h130l-213 -258h-72l-213 258h127zM399 80q229 0 230 194q0 104 -66 146q-39 24 -183 54t-208 92t-64 194q0 131 75 204q75 72 212 72t208 -54t97 -177l-102 -21q-35 154 -197 154q-86 0 -133 -47t-47 -131t44 -125t160 -65t161 -40t78 -45
q78 -61 77 -211q0 -293 -344 -292q-287 -1 -334 243l103 23q27 -90 81 -129t152 -39z" />
    <glyph glyph-name="Tcommaaccent" unicode="&#x162;" horiz-adv-x="917" 
d="M313 -440l90 288h127l-135 -288h-82zM399 0v1358h-346v104h811v-104h-344v-1358h-121z" />
    <glyph glyph-name="tcommaaccent" unicode="&#x163;" horiz-adv-x="567" 
d="M184 -440l90 288h127l-135 -288h-82zM190 920h-106v98h106l5 340h112v-340h166v-98h-166v-644q-2 -100 29 -139t110 -37h33v-100h-35q-152 -2 -202 56t-52 229v635z" />
    <glyph glyph-name="Tcaron" unicode="&#x164;" horiz-adv-x="917" 
d="M459 1724l121 168h129l-213 -256h-72l-213 256h127zM399 0v1358h-346v104h811v-104h-344v-1358h-121z" />
    <glyph glyph-name="tcaron" unicode="&#x165;" horiz-adv-x="636" 
d="M512 1120l37 398h123l-78 -398h-82zM190 920h-106v98h106l5 340h112v-340h166v-98h-166v-644q-2 -100 29 -139t110 -37h33v-100h-35q-152 -2 -202 56t-52 229v635z" />
    <glyph glyph-name="Tbar" unicode="&#x166;" horiz-adv-x="917" 
d="M399 0v688h-243v103h243v567h-346v104h811v-104h-344v-567h240v-103h-240v-688h-121z" />
    <glyph glyph-name="tbar" unicode="&#x167;" horiz-adv-x="569" 
d="M190 920h-106v98h106l5 340h112v-340h166v-98h-166v-205h166v-88h-166v-355q0 -98 31 -136t108 -36h35v-100h-37q-150 -2 -202 55t-52 221v351h-106v88h106v205z" />
    <glyph glyph-name="Utilde" unicode="&#x168;" horiz-adv-x="1189" 
d="M492 1870q64 0 120 -68q59 -68 93 -67q49 0 71 118h78q-26 -117 -58 -161t-97 -43q-65 0 -126 67q-55 66 -84 66q-54 0 -77 -117h-78q27 115 60 160q34 45 98 45zM186 1462h121v-1001q0 -178 47 -256q78 -119 234 -119q98 0 158 33t98 105t39 237v1001h121v-1001
q0 -133 -16 -203t-58 -127q-106 -147 -344 -147t-342 170q-57 92 -58 307v1001z" />
    <glyph glyph-name="utilde" unicode="&#x169;" horiz-adv-x="958" 
d="M378 1436q64 0 121 -67q58 -67 91 -66q49 0 72 116h77q-25 -115 -57 -159t-98 -43q-64 0 -125 67q-55 66 -84 66q-55 0 -78 -117h-78q27 115 61 159t98 44zM156 1018h116v-612q0 -172 45 -247t154 -75t159 89t50 292v553h117v-1018h-92l-9 121q-45 -76 -101 -108
t-144 -31q-205 0 -269 178q-27 74 -26 235v623z" />
    <glyph glyph-name="Umacron" unicode="&#x16a;" horiz-adv-x="1189" 
d="M385 1714v86h420v-86h-420zM186 1462h121v-1001q0 -178 47 -256q78 -119 234 -119q98 0 158 33t98 105t39 237v1001h121v-1001q0 -133 -16 -203t-58 -127q-106 -147 -344 -147t-342 170q-57 92 -58 307v1001z" />
    <glyph glyph-name="umacron" unicode="&#x16b;" horiz-adv-x="958" 
d="M270 1282v86h420v-86h-420zM156 1018h116v-612q0 -172 45 -247t154 -75t159 89t50 292v553h117v-1018h-92l-9 121q-45 -76 -101 -108t-144 -31q-205 0 -269 178q-27 74 -26 235v623z" />
    <glyph glyph-name="Ubreve" unicode="&#x16c;" horiz-adv-x="1189" 
d="M596 1714q70 0 100 37t39 131h86q-6 -113 -28 -158q-47 -100 -203 -100t-201 115q-14 41 -20 143h84q8 -92 40 -130q33 -38 103 -38zM186 1462h121v-1001q0 -178 47 -256q78 -119 234 -119q98 0 158 33t98 105t39 237v1001h121v-1001q0 -133 -16 -203t-58 -127
q-106 -147 -344 -147t-342 170q-57 92 -58 307v1001z" />
    <glyph glyph-name="ubreve" unicode="&#x16d;" horiz-adv-x="958" 
d="M480 1282q70 0 102 37q31 37 39 131h86q-6 -113 -29 -160q-47 -100 -203 -100t-201 117q-14 37 -20 143h84q8 -92 40 -130t102 -38zM156 1018h116v-612q0 -172 45 -247t154 -75t159 89t50 292v553h117v-1018h-92l-9 121q-45 -76 -101 -108t-144 -31q-205 0 -269 178
q-27 74 -26 235v623z" />
    <glyph glyph-name="Uring" unicode="&#x16e;" horiz-adv-x="1189" 
d="M596 1931q-100 0 -100 -127q0 -59 26 -92t73 -33q46 0 73 33t26 92q0 59 -25 93q-26 34 -73 34zM408 1807q0 89 51 141t136 53q85 0 136 -53q51 -54 51 -142t-51 -142t-135 -54t-136 54t-52 143zM186 1462h121v-1001q0 -178 47 -256q78 -119 234 -119q98 0 158 33t98 105
t39 237v1001h121v-1001q0 -133 -16 -203t-58 -127q-106 -147 -344 -147t-342 170q-57 92 -58 307v1001z" />
    <glyph glyph-name="uring" unicode="&#x16f;" horiz-adv-x="958" 
d="M481 1501q-100 0 -100 -127q0 -59 26 -93q27 -34 73 -34t73 34t27 93t-26 93t-73 34zM293 1375q0 89 51 143t136 53q85 0 136 -54q52 -53 52 -141t-52 -143t-135 -55q-84 0 -136 54t-52 143zM156 1018h116v-612q0 -172 45 -247t154 -75t159 89t50 292v553h117v-1018h-92
l-9 121q-45 -76 -101 -108t-144 -31q-205 0 -269 178q-27 74 -26 235v623z" />
    <glyph glyph-name="Uhungarumlaut" unicode="&#x170;" horiz-adv-x="1189" 
d="M653 1626l101 281h133l-150 -281h-84zM436 1626l101 281h133l-150 -281h-84zM186 1462h121v-1001q0 -178 47 -256q78 -119 234 -119q98 0 158 33t98 105t39 237v1001h121v-1001q0 -133 -16 -203t-58 -127q-106 -147 -344 -147t-342 170q-57 92 -58 307v1001z" />
    <glyph glyph-name="uhungarumlaut" unicode="&#x171;" horiz-adv-x="958" 
d="M537 1194l100 279h133l-149 -279h-84zM319 1194l101 279h133l-150 -279h-84zM156 1018h116v-612q0 -172 45 -247t154 -75t159 89t50 292v553h117v-1018h-92l-9 121q-45 -76 -101 -108t-144 -31q-205 0 -269 178q-27 74 -26 235v623z" />
    <glyph glyph-name="Uogonek" unicode="&#x172;" horiz-adv-x="1189" 
d="M186 1462h121v-1001q0 -178 47 -256q78 -119 234 -119q98 0 158 33t98 105t39 237v1001h121v-1001q6 -188 -52 -297t-190 -158q-84 -61 -119 -112t-35 -111q0 -82 94 -82q45 0 101 16l14 -75q-70 -23 -135 -23q-182 0 -182 148q0 115 118 217h-38q-233 0 -336 170
q-57 92 -58 307v1001z" />
    <glyph glyph-name="uogonek" unicode="&#x173;" horiz-adv-x="958" 
d="M717 -299q43 0 98 16l14 -75q-70 -23 -133 -23q-182 0 -182 145t191 246l-9 111q-45 -76 -101 -108t-144 -31q-205 0 -269 178q-27 74 -26 235v623h116v-612q0 -172 45 -247t154 -75t159 89t50 292v553h117v-1018q-176 -108 -174 -217q0 -82 94 -82z" />
    <glyph glyph-name="Wcircumflex" unicode="&#x174;" horiz-adv-x="1499" 
d="M750 1806l-121 -168h-127l213 256h71l213 -256h-129zM356 0l-290 1462h120l228 -1226l295 1226h82l294 -1226l230 1226h121l-291 -1462h-103l-292 1212l-293 -1212h-101z" />
    <glyph glyph-name="wcircumflex" unicode="&#x175;" horiz-adv-x="1323" 
d="M659 1374l-120 -168h-127l213 256h71l213 -256h-129zM338 0l-262 1018h119l196 -830l230 830h79l230 -830l198 830h117l-262 -1018h-92l-229 815l-232 -815h-92z" />
    <glyph glyph-name="Ycircumflex" unicode="&#x176;" horiz-adv-x="921" 
d="M461 1806l-121 -168h-127l213 256h72l213 -256h-129zM401 0v537l-387 925h127l322 -782l319 782h127l-387 -925v-537h-121z" />
    <glyph glyph-name="ycircumflex" unicode="&#x177;" horiz-adv-x="837" 
d="M418 1374l-121 -168h-127l213 256h72l213 -256h-129zM115 -371q96 0 134 34t70 147l50 180l-320 1028h117l262 -887l234 887h116l-340 -1223q-49 -164 -110 -214t-213 -52v100z" />
    <glyph glyph-name="Ydieresis" unicode="&#x178;" horiz-adv-x="921" 
d="M575 1645v192h107v-192h-107zM242 1645v192h106v-192h-106zM401 0v537l-387 925h127l322 -782l319 782h127l-387 -925v-537h-121z" />
    <glyph glyph-name="Zacute" unicode="&#x179;" horiz-adv-x="921" 
d="M426 1626l125 281h145l-182 -281h-88zM86 0v82l580 1276h-545v104h678v-82l-580 -1276h604v-104h-737z" />
    <glyph glyph-name="zacute" unicode="&#x17a;" horiz-adv-x="808" 
d="M354 1194l125 279h146l-183 -279h-88zM84 0v72l453 846h-418v100h559v-72l-455 -846h482v-100h-621z" />
    <glyph glyph-name="Zdotaccent" unicode="&#x17b;" horiz-adv-x="921" 
d="M428 1645v192h115v-192h-115zM86 0v82l580 1276h-545v104h678v-82l-580 -1276h604v-104h-737z" />
    <glyph glyph-name="zdotaccent" unicode="&#x17c;" horiz-adv-x="808" 
d="M356 1212v193h115v-193h-115zM84 0v72l453 846h-418v100h559v-72l-455 -846h482v-100h-621z" />
    <glyph glyph-name="Zcaron" unicode="&#x17d;" horiz-adv-x="921" 
d="M496 1724l120 168h129l-213 -256h-71l-213 256h127zM86 0v82l580 1276h-545v104h678v-82l-580 -1276h604v-104h-737z" />
    <glyph glyph-name="zcaron" unicode="&#x17e;" horiz-adv-x="808" 
d="M424 1292l121 170h129l-213 -258h-72l-213 258h127zM84 0v72l453 846h-418v100h559v-72l-455 -846h482v-100h-621z" />
    <glyph glyph-name="Ohorn" unicode="&#x1a0;" horiz-adv-x="1210" 
d="M584 84q299 0 299 408v479q0 407 -299 407q-164 0 -244 -125q-57 -94 -57 -282v-479q0 -203 69 -302q80 -106 232 -106zM1206 1411q0 -137 -108 -221q-27 -23 -103 -76q8 -51 9 -131v-504q0 -244 -97 -362q-115 -135 -333 -135t-332 157q-80 115 -80 340v504
q0 248 98 363q111 135 322 135q309 0 397 -281q77 55 103 95q26 41 26 91t-18 95h106q10 -35 10 -70z" />
    <glyph glyph-name="ohorn" unicode="&#x1a1;" horiz-adv-x="1001" 
d="M711 393v232q1 161 -55 237t-175 76t-174 -76t-55 -237v-232q0 -163 55 -237t174 -74t175 74t55 237zM1022 958q0 -162 -197 -284q2 -23 2 -70v-207q0 -215 -84 -315t-262 -100t-262 100t-84 315v224q0 215 83 315q84 100 246 100t245 -66q82 -67 108 -206q61 53 84 92
t23 89t-19 89h107q10 -39 10 -76z" />
    <glyph glyph-name="Uhorn" unicode="&#x1af;" horiz-adv-x="1255" 
d="M186 1462h121v-1001q0 -178 47 -256q78 -119 234 -119q98 0 158 33t98 105t39 237v1001h121v-299q100 57 140 109t40 110q0 60 -19 99h107q10 -39 10 -74q0 -133 -127 -240q-37 -31 -151 -94v-612q0 -133 -16 -203t-58 -127q-106 -147 -344 -147t-342 170q-57 92 -58 307
v1001z" />
    <glyph glyph-name="uhorn" unicode="&#x1b0;" horiz-adv-x="1026" 
d="M156 1018h116v-612q0 -172 45 -247t154 -75t159 89t50 292v553h117v-301q102 59 141 109t39 110t-19 98h107q10 -37 10 -73q0 -131 -127 -238q-37 -31 -151 -96v-627h-92l-9 121q-45 -76 -101 -108t-144 -31q-205 0 -269 178q-27 74 -26 235v623z" />
    <glyph glyph-name="uni01C4" unicode="&#x1c4;" horiz-adv-x="2027" 
d="M1604 1724l120 168h127l-211 -256h-71l-213 256h129zM1194 0v82l578 1276h-543v104h676v-82l-578 -1276h604v-104h-737zM313 1360v-1258h244q334 -8 330 394v471q4 401 -330 393h-244zM193 0v1462h376q219 2 331 -120t108 -359v-504q4 -237 -108 -359t-331 -120h-376z
" />
    <glyph glyph-name="uni01C5" unicode="&#x1c5;" horiz-adv-x="1978" 
d="M1593 1292l121 170h127l-211 -258h-71l-213 258h129zM1253 0v72l451 846h-416v100h557v-72l-452 -846h481v-100h-621zM313 1360v-1258h244q334 -8 330 394v471q4 401 -330 393h-244zM193 0v1462h376q219 2 331 -120t108 -359v-504q4 -237 -108 -359t-331 -120h-376z" />
    <glyph glyph-name="uni01C6" unicode="&#x1c6;" horiz-adv-x="1787" 
d="M1401 1292l121 170h129l-213 -258h-72l-213 258h129zM1061 0v72l452 846h-417v100h559v-72l-455 -846h481v-100h-620zM252 623v-222q0 -319 217 -319q229 0 229 354v146q0 354 -229 354q-217 0 -217 -313zM135 401v224q0 209 79 310t241 101q121 0 194 -61q16 -16 49 -60
v547h117v-1462h-92l-10 109q-54 -75 -111 -101q-57 -27 -145 -26q-322 0 -322 419z" />
    <glyph glyph-name="uni01C7" unicode="&#x1c7;" horiz-adv-x="1427" 
d="M1114 1462h121v-1437q0 -166 -8 -239t-35 -124q-80 -158 -289 -158q-80 0 -155 29l45 96q53 -23 102 -22q152 0 199 145q20 61 20 266v1444zM193 0v1462h120v-1358h588v-104h-708z" />
    <glyph glyph-name="uni01C8" unicode="&#x1c8;" horiz-adv-x="1376" 
d="M1094 1018h116v-1067q6 -231 -68 -328q-75 -96 -259 -94v102q115 -8 165 66t46 242v1079zM1094 1272v194h116v-194h-116zM193 0v1462h120v-1358h588v-104h-708z" />
    <glyph glyph-name="uni01C9" unicode="&#x1c9;" horiz-adv-x="958" 
d="M678 1018h117v-1067q4 -233 -70 -329t-260 -93v102q115 -8 166 66t47 242v1079zM678 1272v194h117v-194h-117zM162 1462h117v-1179q-2 -104 28 -144q31 -39 113 -39h47v-100h-51q-150 2 -202 61t-52 230v1171z" />
    <glyph glyph-name="uni01CA" unicode="&#x1ca;" horiz-adv-x="1748" 
d="M1436 1462h120v-1437q0 -166 -8 -239t-35 -124q-80 -158 -288 -158q-80 0 -156 29l45 96q53 -23 103 -22q152 0 198 145q20 61 21 266v1444zM193 0v1462h116l627 -1226v1226h117v-1462h-115l-629 1229v-1229h-116z" />
    <glyph glyph-name="uni01CB" unicode="&#x1cb;" horiz-adv-x="1697" 
d="M1417 1272v194h117v-194h-117zM1417 1018h117v-1067q4 -233 -70 -329t-260 -93v102q115 -8 166 66t47 242v1079zM193 0v1462h116l627 -1226v1226h117v-1462h-115l-629 1229v-1229h-116z" />
    <glyph glyph-name="uni01CC" unicode="&#x1cc;" horiz-adv-x="1433" 
d="M1151 1272v194h117v-194h-117zM1151 1018h117v-1067q6 -231 -69 -327t-259 -95v102q115 -8 165 66t46 242v1079zM164 0v1018h92l8 -121q42 74 102 107t152 32q215 0 279 -178q27 -74 26 -235v-623h-116v612q1 172 -47 247t-162 75t-165 -88q-52 -88 -52 -293v-553h-117z
" />
    <glyph glyph-name="uni01CD" unicode="&#x1cd;" horiz-adv-x="1019" 
d="M510 1724l121 168h129l-213 -256h-72l-213 256h127zM758 438l-246 850l-246 -850h492zM784 336h-546l-97 -336h-131l447 1462h108l447 -1462h-131z" />
    <glyph glyph-name="uni01CE" unicode="&#x1ce;" horiz-adv-x="911" 
d="M459 1292l121 170h129l-213 -258h-72l-213 258h127zM637 489h-197q-129 0 -183 -49t-54 -161q0 -113 48 -155t182 -42t179 74q25 41 25 143v190zM637 584v90q0 144 -45 204q-44 60 -140 60t-143 -38t-76 -126l-100 31q61 231 305 231q201 0 273 -127q43 -74 43 -245v-664
h-95l-10 74q-41 -52 -96 -72t-156 -20q-169 0 -239 66t-70 232q0 164 76 234t260 70h213z" />
    <glyph glyph-name="uni01CF" unicode="&#x1cf;" horiz-adv-x="503" 
d="M252 1724l121 168h127l-211 -256h-72l-213 256h127zM193 0v1462h120v-1462h-120z" />
    <glyph glyph-name="uni01D0" unicode="&#x1d0;" horiz-adv-x="444" 
d="M221 1292l121 170h127l-211 -258h-72l-213 258h127zM164 0v1018h117v-1018h-117z" />
    <glyph glyph-name="uni01D1" unicode="&#x1d1;" horiz-adv-x="1165" 
d="M582 1724l120 168h129l-213 -256h-71l-213 256h129zM883 492v479q0 407 -301 407q-162 0 -242 -125q-57 -92 -57 -282v-479q0 -203 69 -302q80 -106 237 -106t236 125q58 95 58 283zM162 983q0 498 429 498q220 0 333 -158q80 -111 80 -340v-504q0 -244 -99 -362
q-111 -135 -331 -135t-332 157q-80 115 -80 340v504z" />
    <glyph glyph-name="uni01D2" unicode="&#x1d2;" horiz-adv-x="962" 
d="M481 1292l121 170h129l-213 -258h-72l-213 258h127zM711 393v232q1 163 -55 237t-175 74t-174 -75t-55 -236v-232q0 -163 55 -237t174 -74t175 74t55 237zM135 397v224q0 215 84 315t262 100t262 -100t84 -315v-224q0 -215 -84 -315t-262 -100t-262 100t-84 315z" />
    <glyph glyph-name="uni01D3" unicode="&#x1d3;" horiz-adv-x="1189" 
d="M594 1724l121 168h129l-213 -256h-72l-213 256h127zM186 1462h121v-1001q0 -178 47 -256q78 -119 234 -119q98 0 158 33t98 105t39 237v1001h121v-1001q0 -133 -16 -203t-58 -127q-106 -147 -344 -147t-342 170q-57 92 -58 307v1001z" />
    <glyph glyph-name="uni01D4" unicode="&#x1d4;" horiz-adv-x="958" 
d="M479 1292l121 170h129l-213 -258h-72l-213 258h127zM156 1018h116v-612q0 -172 45 -247t154 -75t159 89t50 292v553h117v-1018h-92l-9 121q-45 -76 -101 -108t-144 -31q-205 0 -269 178q-27 74 -26 235v623z" />
    <glyph glyph-name="Gcaron" unicode="&#x1e6;" horiz-adv-x="1138" 
d="M571 1724l121 168h129l-213 -256h-71l-213 256h127zM580 84q297 0 299 379v186h-263v101h383v-267q0 -246 -92 -360q-113 -141 -338 -141t-333 161q-74 115 -74 359v454q0 268 90 385q106 137 302 137t298 -96q100 -96 104 -274l-112 -4q-8 131 -79 202t-192 70
q-155 0 -223 -99t-67 -323v-448q0 -223 69 -323q70 -99 228 -99z" />
    <glyph glyph-name="gcaron" unicode="&#x1e7;" horiz-adv-x="978" 
d="M502 1292l121 170h129l-213 -258h-72l-213 258h127zM252 623v-222q0 -319 219 -319q227 0 227 354v146q0 354 -229 354q-217 0 -217 -313zM698 -66v168q-84 -121 -245 -120q-317 0 -318 419v222q0 211 78 312t240 101q92 0 152 -30t106 -101l10 113h94v-1071
q0 -217 -86 -321t-266 -103q-127 0 -197 51t-98 164l102 26q20 -76 64 -110t127 -33q123 -1 180 75t57 238z" />
    <glyph glyph-name="uni01EA" unicode="&#x1ea;" horiz-adv-x="1165" 
d="M584 84q299 0 299 408v479q0 407 -299 407q-164 0 -244 -125q-57 -94 -57 -282v-479q0 -203 69 -302q80 -106 232 -106zM162 983q0 498 429 498q220 0 333 -158q80 -111 80 -340v-504q6 -365 -244 -469l-8 -6q-156 -111 -156 -221q0 -82 96 -82q43 0 99 16l14 -75
q-68 -23 -135 -23q-182 0 -183 143q0 125 123 222q-10 -2 -24 -2q-231 0 -344 157q-80 115 -80 340v504z" />
    <glyph glyph-name="uni01EB" unicode="&#x1eb;" horiz-adv-x="962" 
d="M715 393v232q1 163 -55 237t-175 74t-174 -75t-55 -236v-232q0 -163 55 -237t174 -74t175 74t55 237zM139 621q0 215 84 315t262 100t262 -100t84 -315v-224q1 -155 -41 -247t-137 -136q-154 -119 -153 -231q0 -82 94 -82q45 0 100 16l15 -75q-70 -23 -138 -23
q-180 0 -180 145q0 121 111 218h-25q-344 2 -338 415v224z" />
    <glyph glyph-name="uni01F1" unicode="&#x1f1;" horiz-adv-x="2027" 
d="M1194 0v82l578 1276h-543v104h676v-82l-578 -1276h604v-104h-737zM313 1360v-1258h244q334 -8 330 394v471q4 401 -330 393h-244zM193 0v1462h376q219 2 331 -120t108 -359v-504q4 -237 -108 -359t-331 -120h-376z" />
    <glyph glyph-name="uni01F2" unicode="&#x1f2;" horiz-adv-x="1978" 
d="M1253 0v72l451 846h-416v100h557v-72l-452 -846h481v-100h-621zM313 1360v-1258h244q334 -8 330 394v471q4 401 -330 393h-244zM193 0v1462h376q219 2 331 -120t108 -359v-504q4 -237 -108 -359t-331 -120h-376z" />
    <glyph glyph-name="uni01F3" unicode="&#x1f3;" horiz-adv-x="1787" 
d="M1061 0v72l452 846h-417v100h559v-72l-455 -846h481v-100h-620zM252 623v-222q0 -319 217 -319q229 0 229 354v146q0 354 -229 354q-217 0 -217 -313zM135 401v224q0 209 79 310t241 101q121 0 194 -61q16 -16 49 -60v547h117v-1462h-92l-10 109q-54 -75 -111 -101
q-57 -27 -145 -26q-322 0 -322 419z" />
    <glyph glyph-name="uni01F4" unicode="&#x1f4;" horiz-adv-x="1138" 
d="M500 1626l125 281h145l-182 -281h-88zM580 84q297 0 299 379v186h-263v101h383v-267q0 -246 -92 -360q-113 -141 -338 -141t-333 161q-74 115 -74 359v454q0 268 90 385q106 137 302 137t298 -96q100 -96 104 -274l-112 -4q-8 131 -79 202t-192 70q-155 0 -223 -99
t-67 -323v-448q0 -223 69 -323q70 -99 228 -99z" />
    <glyph glyph-name="uni01F5" unicode="&#x1f5;" horiz-adv-x="978" 
d="M424 1194l125 279h145l-182 -279h-88zM252 623v-222q0 -319 219 -319q227 0 227 354v146q0 354 -229 354q-217 0 -217 -313zM698 -66v168q-84 -121 -245 -120q-317 0 -318 419v222q0 211 78 312t240 101q92 0 152 -30t106 -101l10 113h94v-1071q0 -217 -86 -321
t-266 -103q-127 0 -197 51t-98 164l102 26q20 -76 64 -110t127 -33q123 -1 180 75t57 238z" />
    <glyph glyph-name="Aringacute" unicode="&#x1fa;" horiz-adv-x="1019" 
d="M446 1831l97 233h155l-174 -233h-78zM510 1466q100 0 100 128t-99 128t-99 -129q0 -59 26 -93t72 -34zM758 438l-246 850l-246 -850h492zM511 1792q85 0 136 -53t51 -131q0 -153 -116 -199l430 -1409h-131l-97 336h-546l-97 -336h-131l430 1409q-53 17 -85 69
q-31 52 -31 130t51 130q51 54 136 54z" />
    <glyph glyph-name="aringacute" unicode="&#x1fb;" horiz-adv-x="911" 
d="M401 1612l95 231h155l-174 -231h-76zM467 1460q-100 0 -100 -127q-1 -59 25 -93t73 -34t73 34t25 93q0 59 -25 93q-26 34 -71 34zM279 1334q0 88 51 142t135 54t135 -53t51 -143t-51 -143q-51 -54 -135 -54t-135 54t-51 143zM637 489h-197q-129 0 -183 -49t-54 -161
q0 -113 48 -155t182 -42t179 74q25 41 25 143v190zM637 584v90q0 144 -45 204q-44 60 -140 60t-143 -38t-76 -126l-100 31q61 231 305 231q201 0 273 -127q43 -74 43 -245v-664h-95l-10 74q-41 -52 -96 -72t-156 -20q-169 0 -239 66t-70 232q0 164 76 234t260 70h213z" />
    <glyph glyph-name="AEacute" unicode="&#x1fc;" horiz-adv-x="1622" 
d="M1053 1626l125 281h145l-182 -281h-88zM821 449v909h-20l-482 -909h502zM821 346h-553l-182 -346h-139l792 1462h781v-104h-580v-565h494v-105h-494v-584h580v-104h-699v346z" />
    <glyph glyph-name="aeacute" unicode="&#x1fd;" horiz-adv-x="1447" 
d="M647 1194l125 279h146l-183 -279h-88zM754 588h452v47q0 301 -223 301q-229 0 -229 -301v-47zM637 494h-197q-127 0 -182 -50t-55 -165q0 -113 48 -157t171 -44t169 55t46 201v160zM442 1036q207 0 260 -155q80 156 283 155q174 0 255 -106t81 -332v-104h-567v-97
q0 -317 241 -317q88 0 137 39q48 39 64 127l104 -21q-22 -125 -96 -184t-209 -59q-211 0 -290 163q-49 -164 -308 -163q-169 0 -239 68t-70 232t76 234t260 70h213v90q0 142 -46 202q-45 60 -139 60t-150 -44t-73 -120l-92 31q23 109 103 170t202 61z" />
    <glyph glyph-name="Oslashacute" unicode="&#x1fe;" horiz-adv-x="1163" 
d="M504 1626l125 281h145l-182 -281h-88zM283 971v-479q0 -113 14 -179l520 949q-81 116 -241 116q-294 0 -293 -407zM582 84q297 0 299 408v479q-3 121 -17 172l-516 -944q80 -115 234 -115zM1001 983v-504q-1 -245 -105 -371t-301 -126t-308 104l-64 -115l-86 49l84 152
q-59 113 -59 307v504q0 246 96 363q114 135 312 135t309 -109l61 113l86 -51l-82 -148q57 -115 57 -303z" />
    <glyph glyph-name="oslashacute" unicode="&#x1ff;" horiz-adv-x="964" 
d="M403 1194l125 279h146l-182 -279h-89zM252 625v-232q0 -94 14 -149l377 630q-57 64 -169 64t-167 -75t-55 -238zM692 778l-377 -631q59 -65 172 -65t168 75t56 236v232q-1 87 -19 153zM827 621v-224q0 -213 -84 -314t-262 -101q-139 0 -225 65l-47 -80l-78 49l62 103
q-59 98 -58 278v224q0 213 83 314t261 101q139 0 223 -63l48 80l77 -49l-61 -101q61 -90 61 -282z" />
    <glyph glyph-name="uni0200" unicode="&#x200;" horiz-adv-x="1019" 
d="M455 1626h-84l-150 281h133zM672 1626h-86l-148 281h133zM758 438l-246 850l-246 -850h492zM784 336h-546l-97 -336h-131l447 1462h108l447 -1462h-131z" />
    <glyph glyph-name="uni0201" unicode="&#x201;" horiz-adv-x="911" 
d="M410 1194h-84l-150 279h133zM627 1194h-86l-148 279h133zM637 489h-197q-129 0 -183 -49t-54 -161q0 -113 48 -155t182 -42t179 74q25 41 25 143v190zM637 584v90q0 144 -45 204q-44 60 -140 60t-143 -38t-76 -126l-100 31q61 231 305 231q201 0 273 -127q43 -74 43 -245
v-664h-95l-10 74q-41 -52 -96 -72t-156 -20q-169 0 -239 66t-70 232q0 164 76 234t260 70h213z" />
    <glyph glyph-name="uni0202" unicode="&#x202;" horiz-adv-x="1019" 
d="M510 1808q-72 0 -102 -36t-39 -132h-84q6 111 26 160q49 100 205 100t201 -116q14 -38 20 -144h-86q-6 92 -38 130q-31 38 -103 38zM758 438l-246 850l-246 -850h492zM784 336h-546l-97 -336h-131l447 1462h108l447 -1462h-131z" />
    <glyph glyph-name="uni0203" unicode="&#x203;" horiz-adv-x="911" 
d="M454 1376q-72 0 -102 -37q-31 -37 -39 -131h-84q6 113 27 158q51 100 206 100t200 -114q14 -42 20 -144h-86q-6 92 -38 130t-104 38zM637 489h-197q-129 0 -183 -49t-54 -161q0 -113 48 -155t182 -42t179 74q25 41 25 143v190zM637 584v90q0 144 -45 204q-44 60 -140 60
t-143 -38t-76 -126l-100 31q61 231 305 231q201 0 273 -127q43 -74 43 -245v-664h-95l-10 74q-41 -52 -96 -72t-156 -20q-169 0 -239 66t-70 232q0 164 76 234t260 70h213z" />
    <glyph glyph-name="uni0204" unicode="&#x204;" horiz-adv-x="993" 
d="M485 1626h-84l-149 281h133zM702 1626h-86l-147 281h133zM193 0v1462h698v-104h-578v-565h494v-105h-494v-584h578v-104h-698z" />
    <glyph glyph-name="uni0205" unicode="&#x205;" horiz-adv-x="940" 
d="M422 1194h-84l-150 279h134zM639 1194h-86l-147 279h133zM252 588h450v47q0 301 -225 301t-225 -301v-47zM252 494v-99q0 -313 240 -313q88 0 135 39t65 125l103 -21q-21 -125 -95 -184t-211 -59q-182 0 -268 106t-86 330v180q0 226 83 332t258 106t257 -106t82 -332
v-104h-563z" />
    <glyph glyph-name="uni0206" unicode="&#x206;" horiz-adv-x="993" 
d="M528 1808q-72 0 -102 -36t-39 -132h-84q6 111 27 160q52 100 206 100t199 -116q15 -38 21 -144h-86q-6 92 -38 130t-104 38zM193 0v1462h698v-104h-578v-565h494v-105h-494v-584h578v-104h-698z" />
    <glyph glyph-name="uni0207" unicode="&#x207;" horiz-adv-x="940" 
d="M468 1376q-72 0 -102 -37t-38 -131h-84q6 113 26 158q49 100 205 100t201 -114q14 -42 20 -144h-86q-6 92 -38 130t-104 38zM252 588h450v47q0 301 -225 301t-225 -301v-47zM252 494v-99q0 -313 240 -313q88 0 135 39t65 125l103 -21q-21 -125 -95 -184t-211 -59
q-182 0 -268 106t-86 330v180q0 226 83 332t258 106t257 -106t82 -332v-104h-563z" />
    <glyph glyph-name="uni0208" unicode="&#x208;" horiz-adv-x="503" 
d="M197 1626h-84l-150 281h133zM414 1626h-86l-148 281h133zM193 0v1462h120v-1462h-120z" />
    <glyph glyph-name="uni0209" unicode="&#x209;" horiz-adv-x="444" 
d="M166 1194h-84l-150 279h134zM383 1194h-86l-147 279h133zM164 0v1018h117v-1018h-117z" />
    <glyph glyph-name="uni020A" unicode="&#x20a;" horiz-adv-x="503" 
d="M252 1808q-72 0 -102 -36t-39 -132h-84q6 111 26 160q49 100 205 100t201 -116q14 -38 20 -144h-86q-6 92 -38 130q-31 38 -103 38zM193 0v1462h120v-1462h-120z" />
    <glyph glyph-name="uni020B" unicode="&#x20b;" horiz-adv-x="444" 
d="M221 1376q-73 0 -103 -37t-38 -131h-84q6 113 27 158q51 100 205 100t200 -114q15 -42 21 -144h-87q-6 92 -37 130q-32 38 -104 38zM164 0v1018h117v-1018h-117z" />
    <glyph glyph-name="uni020C" unicode="&#x20c;" horiz-adv-x="1165" 
d="M526 1626h-84l-149 281h133zM743 1626h-86l-147 281h133zM584 84q299 0 299 408v479q0 407 -299 407q-164 0 -244 -125q-57 -94 -57 -282v-479q0 -203 69 -302q80 -106 232 -106zM162 983q0 498 429 498q220 0 333 -158q80 -111 80 -340v-504q0 -244 -97 -362
q-115 -135 -333 -135t-332 157q-80 115 -80 340v504z" />
    <glyph glyph-name="uni020D" unicode="&#x20d;" horiz-adv-x="962" 
d="M426 1194h-84l-149 279h133zM643 1194h-86l-147 279h133zM711 393v232q1 163 -55 237t-175 74t-174 -75t-55 -236v-232q0 -163 55 -237t174 -74t175 74t55 237zM135 397v224q0 215 84 315t262 100t262 -100t84 -315v-224q0 -215 -84 -315t-262 -100t-262 100t-84 315z
" />
    <glyph glyph-name="uni020E" unicode="&#x20e;" horiz-adv-x="1165" 
d="M582 1808q-72 0 -103 -36t-39 -132h-84q6 111 27 160q51 100 206 100t199 -116q15 -38 21 -144h-86q-6 92 -38 130q-31 38 -103 38zM584 84q299 0 299 408v479q0 407 -299 407q-164 0 -244 -125q-57 -94 -57 -282v-479q0 -203 69 -302q80 -106 232 -106zM162 983
q0 498 429 498q220 0 333 -158q80 -111 80 -340v-504q0 -244 -97 -362q-115 -135 -333 -135t-332 157q-80 115 -80 340v504z" />
    <glyph glyph-name="uni020F" unicode="&#x20f;" horiz-adv-x="962" 
d="M481 1376q-73 0 -103 -37t-38 -131h-84q6 113 27 158q49 100 205 100t200 -114q15 -42 21 -144h-86q-6 92 -38 130t-104 38zM711 393v232q1 163 -55 237t-175 74t-174 -75t-55 -236v-232q0 -163 55 -237t174 -74t175 74t55 237zM135 397v224q0 215 84 315t262 100
t262 -100t84 -315v-224q0 -215 -84 -315t-262 -100t-262 100t-84 315z" />
    <glyph glyph-name="uni0210" unicode="&#x210;" horiz-adv-x="1114" 
d="M457 1626h-84l-150 281h133zM674 1626h-86l-148 281h133zM313 754h258q150 0 217 77q66 78 66 231q0 298 -293 298h-248v-606zM315 653v-653h-120v1462h374q219 0 313 -105t93 -296q0 -338 -262 -393l272 -668h-133l-258 653h-279z" />
    <glyph glyph-name="uni0211" unicode="&#x211;" horiz-adv-x="647" 
d="M303 1194h-84l-149 279h133zM520 1194h-86l-147 279h133zM164 0v1018h92l12 -117q68 135 215 135q82 0 158 -49l-51 -98q-61 45 -121 45q-100 0 -144 -102t-44 -332v-500h-117z" />
    <glyph glyph-name="uni0212" unicode="&#x212;" horiz-adv-x="1114" 
d="M512 1808q-72 0 -102 -36t-39 -132h-84q6 111 26 160q51 100 206 100t200 -116q14 -38 20 -144h-86q-6 92 -38 130q-31 38 -103 38zM313 754h258q150 0 217 77q66 78 66 231q0 298 -293 298h-248v-606zM315 653v-653h-120v1462h374q219 0 313 -105t93 -296
q0 -338 -262 -393l272 -668h-133l-258 653h-279z" />
    <glyph glyph-name="uni0213" unicode="&#x213;" horiz-adv-x="647" 
d="M364 1376q-72 0 -102 -37q-31 -37 -39 -131h-84q6 113 27 158q51 100 206 100t199 -114q15 -42 21 -144h-86q-6 92 -38 130t-104 38zM164 0v1018h92l12 -117q66 135 215 135q82 0 158 -49l-51 -98q-61 45 -121 45q-100 0 -144 -102t-44 -332v-500h-117z" />
    <glyph glyph-name="uni0214" unicode="&#x214;" horiz-adv-x="1189" 
d="M539 1626h-84l-150 281h133zM756 1626h-86l-148 281h133zM186 1462h121v-1001q0 -178 47 -256q78 -119 234 -119q98 0 158 33t98 105t39 237v1001h121v-1001q0 -133 -16 -203t-58 -127q-106 -147 -344 -147t-342 170q-57 92 -58 307v1001z" />
    <glyph glyph-name="uni0215" unicode="&#x215;" horiz-adv-x="958" 
d="M424 1194h-84l-150 279h134zM641 1194h-86l-147 279h133zM156 1018h116v-612q0 -172 45 -247t154 -75t159 89t50 292v553h117v-1018h-92l-9 121q-45 -76 -101 -108t-144 -31q-205 0 -269 178q-27 74 -26 235v623z" />
    <glyph glyph-name="uni0216" unicode="&#x216;" horiz-adv-x="1189" 
d="M594 1808q-72 0 -102 -36t-39 -132h-84q6 111 26 160q51 100 206 100t200 -116q14 -38 20 -144h-86q-6 92 -38 130q-31 38 -103 38zM186 1462h121v-1001q0 -178 47 -256q78 -119 234 -119q98 0 158 33t98 105t39 237v1001h121v-1001q0 -133 -16 -203t-58 -127
q-106 -147 -344 -147t-342 170q-57 92 -58 307v1001z" />
    <glyph glyph-name="uni0217" unicode="&#x217;" horiz-adv-x="958" 
d="M479 1376q-73 0 -103 -37t-38 -131h-84q6 113 27 158q51 100 205 100t200 -114q15 -42 21 -144h-86q-6 92 -38 130t-104 38zM156 1018h116v-612q0 -172 45 -247t154 -75t159 89t50 292v553h117v-1018h-92l-9 121q-45 -76 -101 -108t-144 -31q-205 0 -269 178
q-27 74 -26 235v623z" />
    <glyph glyph-name="Scommaaccent" unicode="&#x218;" horiz-adv-x="1005" 
d="M358 -438l91 288h126l-135 -288h-82zM505 84q132 0 207 77q74 77 74 222t-77 213q-35 33 -70 47t-160 51q-184 56 -266 150t-82 264t97 270t272 101q291 0 350 -275l-107 -24q-31 104 -88 150t-167 46t-174 -72t-64 -196q0 -125 66 -195q66 -69 206 -111q142 -42 184 -60
t85 -56q115 -96 115 -294t-107 -304t-293 -106t-282 72q-95 73 -130 235l107 26q35 -121 103 -176t201 -55z" />
    <glyph glyph-name="scommaaccent" unicode="&#x219;" horiz-adv-x="829" 
d="M264 -438l90 288h127l-135 -288h-82zM399 80q229 0 230 194q0 104 -66 146q-39 24 -183 54t-208 92t-64 194q0 131 75 204q75 72 212 72t208 -54t97 -177l-102 -21q-35 154 -197 154q-86 0 -133 -47t-47 -131t44 -125t160 -65t161 -40t78 -45q78 -61 77 -211
q0 -293 -344 -292q-287 -1 -334 243l103 23q27 -90 81 -129t152 -39z" />
    <glyph glyph-name="uni021A" unicode="&#x21a;" horiz-adv-x="917" 
d="M313 -440l90 288h127l-135 -288h-82zM399 0v1358h-346v104h811v-104h-344v-1358h-121z" />
    <glyph glyph-name="uni021B" unicode="&#x21b;" horiz-adv-x="567" 
d="M184 -440l90 288h127l-135 -288h-82zM190 920h-106v98h106l5 340h112v-340h166v-98h-166v-644q-2 -100 29 -139t110 -37h33v-100h-35q-152 -2 -202 56t-52 229v635z" />
    <glyph glyph-name="uni0226" unicode="&#x226;" horiz-adv-x="1019" 
d="M453 1645v192h114v-192h-114zM758 438l-246 850l-246 -850h492zM784 336h-546l-97 -336h-131l447 1462h108l447 -1462h-131z" />
    <glyph glyph-name="uni0227" unicode="&#x227;" horiz-adv-x="911" 
d="M403 1212v193h115v-193h-115zM637 489h-197q-129 0 -183 -49t-54 -161q0 -113 48 -155t182 -42t179 74q25 41 25 143v190zM637 584v90q0 144 -45 204q-44 60 -140 60t-143 -38t-76 -126l-100 31q61 231 305 231q201 0 273 -127q43 -74 43 -245v-664h-95l-10 74
q-41 -52 -96 -72t-156 -20q-169 0 -239 66t-70 232q0 164 76 234t260 70h213z" />
    <glyph glyph-name="uni0237" unicode="&#x237;" horiz-adv-x="454" 
d="M172 1018h117v-1067q4 -233 -70 -329t-258 -93v102q115 -8 165 66t46 242v1079z" />
    <glyph glyph-name="afii57929" unicode="&#x2bc;" horiz-adv-x="303" 
d="M57 995l64 467h123l-90 -467h-97z" />
    <glyph glyph-name="uni02C0" unicode="&#x2c0;" horiz-adv-x="1024" 
d="M563 1602h-90q0 48 6 70t37 70t31 75q0 53 -68 53q-41 0 -92 -25l-25 76q70 27 134 27q154 0 153 -125q0 -49 -38 -99t-43 -66q-5 -17 -5 -56z" />
    <glyph glyph-name="circumflex" unicode="&#x2c6;" horiz-adv-x="1024" 
d="M512 1374l-121 -168h-127l213 256h72l213 -256h-129z" />
    <glyph glyph-name="caron" unicode="&#x2c7;" horiz-adv-x="1024" 
d="M512 1292l121 170h129l-213 -258h-72l-213 258h127z" />
    <glyph glyph-name="uni02C9" unicode="&#x2c9;" horiz-adv-x="1024" 
d="M303 1284v86h420v-86h-420z" />
    <glyph glyph-name="breve" unicode="&#x2d8;" horiz-adv-x="1024" 
d="M514 1282q70 0 100 37t39 131h86q-6 -113 -28 -160q-47 -100 -203 -100t-201 117q-14 37 -20 143h84q8 -92 40 -130q33 -38 103 -38z" />
    <glyph glyph-name="dotaccent" unicode="&#x2d9;" horiz-adv-x="1024" 
d="M453 1212v193h114v-193h-114z" />
    <glyph glyph-name="ring" unicode="&#x2da;" horiz-adv-x="1024" 
d="M514 1501q-100 0 -100 -127q0 -59 26 -93t72 -34q47 0 74 34t26 93q0 59 -25 93q-26 34 -73 34zM326 1375q0 89 51 143t136 53q85 0 136 -54q51 -53 51 -141t-51 -143t-135 -55t-136 54t-52 143z" />
    <glyph glyph-name="ogonek" unicode="&#x2db;" horiz-adv-x="1024" 
d="M526 -217q0 -82 97 -82q43 0 98 16l14 -75q-70 -23 -137 -23q-180 1 -180 145t172 236h110q-96 -64 -135 -112t-39 -105z" />
    <glyph glyph-name="tilde" unicode="&#x2dc;" horiz-adv-x="1024" 
d="M410 1436q64 0 122 -67t91 -66q49 0 71 116h78q-26 -115 -58 -159t-96 -43q-64 0 -126 67q-55 66 -84 66q-55 0 -78 -117h-78q27 115 60 159q34 44 98 44z" />
    <glyph glyph-name="hungarumlaut" unicode="&#x2dd;" horiz-adv-x="1024" 
d="M567 1194l101 279h133l-150 -279h-84zM350 1194l101 279h133l-150 -279h-84z" />
    <glyph glyph-name="uni0309" unicode="&#x309;" horiz-adv-x="1024" 
d="M563 1178h-90q0 48 6 70t37 70t31 75q0 53 -68 53q-39 0 -92 -23l-25 74q66 27 132 27q156 0 155 -125q0 -47 -38 -97t-43 -68q-5 -17 -5 -56z" />
    <glyph glyph-name="uni0312" unicode="&#x312;" horiz-adv-x="1024" 
d="M395 1194l183 279h88l-125 -279h-146z" />
    <glyph glyph-name="uni0313" unicode="&#x313;" horiz-adv-x="108" 
d="M-14 1044l41 426h123l-82 -426h-82z" />
    <glyph glyph-name="uni031B" unicode="&#x31b;" horiz-adv-x="108" 
d="M-14 1044l41 426h123l-82 -426h-82z" />
    <glyph glyph-name="uni0323" unicode="&#x323;" horiz-adv-x="1024" 
d="M453 -383v193h114v-193h-114z" />
    <glyph glyph-name="uni037E" unicode="&#x37e;" horiz-adv-x="475" 
d="M186 842v176h121v-176h-121zM102 -385l80 559h133l-112 -559h-101z" />
    <glyph glyph-name="uni0387" unicode="&#x387;" horiz-adv-x="473" 
d="M178 664v174h121v-174h-121z" />
    <glyph glyph-name="uni04D4" unicode="&#x4d4;" horiz-adv-x="1622" 
d="M821 449v909h-20l-482 -909h502zM821 346h-553l-182 -346h-139l792 1462h781v-104h-580v-565h494v-105h-494v-584h580v-104h-699v346z" />
    <glyph glyph-name="uni04D5" unicode="&#x4d5;" horiz-adv-x="1447" 
d="M754 588h452v47q0 301 -223 301q-229 0 -229 -301v-47zM637 494h-197q-127 0 -182 -50t-55 -165q0 -113 48 -157t171 -44t169 55t46 201v160zM442 1036q207 0 260 -155q80 156 283 155q174 0 255 -106t81 -332v-104h-567v-97q0 -317 241 -317q88 0 137 39q48 39 64 127
l104 -21q-22 -125 -96 -184t-209 -59q-211 0 -290 163q-49 -164 -308 -163q-169 0 -239 68t-70 232t76 234t260 70h213v90q0 142 -46 202q-45 60 -139 60t-150 -44t-73 -120l-92 31q23 109 103 170t202 61z" />
    <glyph glyph-name="uni1E02" unicode="&#x1e02;" horiz-adv-x="1116" 
d="M471 1645v192h115v-192h-115zM313 102h305q129 0 189 66q70 80 70 238t-80 237q-59 59 -166 59h-318v-600zM313 805h293q114 1 180 69t66 214t-80 219q-55 53 -178 53h-281v-555zM193 0v1462h403q193 0 278 -88q98 -104 99 -284q0 -238 -168 -326q82 -43 113 -90
q80 -104 80 -300t-111 -296q-80 -78 -256 -78h-438z" />
    <glyph glyph-name="uni1E03" unicode="&#x1e03;" horiz-adv-x="978" 
d="M496 1212v193h114v-193h-114zM727 399v224q0 313 -217 313q-229 0 -229 -354v-146q0 -354 229 -354q217 0 217 317zM164 0v1462h117v-547q85 121 245 121t239 -101t79 -310v-224q0 -420 -322 -419q-92 0 -148 28t-108 99l-10 -109h-92z" />
    <glyph glyph-name="uni1E0C" unicode="&#x1e0c;" horiz-adv-x="1169" 
d="M489 -383v193h115v-193h-115zM313 1360v-1258h244q334 -8 330 394v471q4 401 -330 393h-244zM193 0v1462h376q219 2 331 -120t108 -359v-504q4 -237 -108 -359t-331 -120h-376z" />
    <glyph glyph-name="uni1E0D" unicode="&#x1e0d;" horiz-adv-x="978" 
d="M455 -383v193h114v-193h-114zM252 623v-222q0 -319 217 -319q229 0 229 354v146q0 354 -229 354q-217 0 -217 -313zM135 401v224q0 209 79 310t241 101q121 0 194 -61q16 -16 49 -60v547h117v-1462h-92l-10 109q-54 -75 -111 -101q-57 -27 -145 -26q-322 0 -322 419z" />
    <glyph glyph-name="uni1E1E" unicode="&#x1e1e;" horiz-adv-x="935" 
d="M489 1645v192h115v-192h-115zM193 0v1462h692v-104h-572v-578h488v-104h-488v-676h-120z" />
    <glyph glyph-name="uni1E1F" unicode="&#x1e1f;" horiz-adv-x="567" 
d="M299 1645v192h115v-192h-115zM199 920h-109v98h109v188q0 152 49 205t182 51h72v-96h-45q-86 2 -114 -31t-28 -141v-176h195v-98h-195v-920h-116v920z" />
    <glyph glyph-name="uni1E24" unicode="&#x1e24;" horiz-adv-x="1171" 
d="M528 -383v193h115v-193h-115zM193 0v1462h120v-669h547v669h121v-1462h-121v688h-547v-688h-120z" />
    <glyph glyph-name="uni1E25" unicode="&#x1e25;" horiz-adv-x="978" 
d="M432 -383v193h115v-193h-115zM164 0v1462h117v-542q47 63 102 90t141 26q207 0 273 -178q27 -74 26 -235v-623h-116v614q1 170 -47 245t-162 75t-165 -88q-52 -88 -52 -289v-557h-117z" />
    <glyph glyph-name="uni1E44" unicode="&#x1e44;" horiz-adv-x="1243" 
d="M586 1645v192h114v-192h-114zM193 0v1462h116l627 -1226v1226h117v-1462h-115l-629 1229v-1229h-116z" />
    <glyph glyph-name="uni1E45" unicode="&#x1e45;" horiz-adv-x="978" 
d="M432 1212v193h115v-193h-115zM164 0v1018h92l8 -121q42 74 102 107t152 32q215 0 279 -178q27 -74 26 -235v-623h-116v612q1 172 -47 247t-162 75t-165 -88q-52 -88 -52 -293v-553h-117z" />
    <glyph glyph-name="uni1E5A" unicode="&#x1e5a;" horiz-adv-x="1114" 
d="M520 -383v193h115v-193h-115zM313 754h258q150 0 217 77q66 78 66 231q0 298 -293 298h-248v-606zM315 653v-653h-120v1462h374q219 0 313 -105t93 -296q0 -338 -262 -393l272 -668h-133l-258 653h-279z" />
    <glyph glyph-name="uni1E5B" unicode="&#x1e5b;" horiz-adv-x="647" 
d="M166 -383v193h115v-193h-115zM164 0v1018h92l12 -117q68 135 215 135q82 0 158 -49l-51 -98q-66 45 -119 45q-100 0 -145 -102t-45 -332v-500h-117z" />
    <glyph glyph-name="uni1E62" unicode="&#x1e62;" horiz-adv-x="1005" 
d="M430 -383v193h115v-193h-115zM505 84q132 0 207 77q74 77 74 222t-77 213q-35 33 -70 47t-160 51q-184 56 -266 150t-82 264t97 270t272 101q291 0 350 -275l-107 -24q-31 104 -88 150t-167 46t-174 -72t-64 -196q0 -125 66 -195q66 -69 206 -111q142 -42 184 -60t85 -56
q115 -96 115 -294t-107 -304t-293 -106t-282 72q-95 73 -130 235l107 26q35 -121 103 -176t201 -55z" />
    <glyph glyph-name="uni1E63" unicode="&#x1e63;" horiz-adv-x="829" 
d="M352 -383v193h115v-193h-115zM399 80q229 0 230 194q0 104 -66 146q-39 24 -183 54t-208 92t-64 194q0 131 75 204q75 72 212 72t208 -54t97 -177l-102 -21q-35 154 -197 154q-86 0 -133 -47t-47 -131t44 -125t160 -65t161 -40t78 -45q78 -61 77 -211q0 -293 -344 -292
q-287 -1 -334 243l103 23q27 -90 81 -129t152 -39z" />
    <glyph glyph-name="uni1E6C" unicode="&#x1e6c;" horiz-adv-x="917" 
d="M399 -383v193h115v-193h-115zM399 0v1358h-346v104h811v-104h-344v-1358h-121z" />
    <glyph glyph-name="uni1E6D" unicode="&#x1e6d;" horiz-adv-x="567" 
d="M225 -383v193h115v-193h-115zM190 920h-106v98h106l5 340h112v-340h166v-98h-166v-644q-2 -100 29 -139t110 -37h33v-100h-35q-152 -2 -202 56t-52 229v635z" />
    <glyph glyph-name="Wgrave" unicode="&#x1e80;" horiz-adv-x="1499" 
d="M831 1626h-88l-182 281h146zM356 0l-290 1462h120l228 -1226l295 1226h82l294 -1226l230 1226h121l-291 -1462h-103l-292 1212l-293 -1212h-101z" />
    <glyph glyph-name="wgrave" unicode="&#x1e81;" horiz-adv-x="1323" 
d="M741 1194h-88l-182 279h145zM338 0l-262 1018h119l196 -830l230 830h79l230 -830l198 830h117l-262 -1018h-92l-229 815l-232 -815h-92z" />
    <glyph glyph-name="Wacute" unicode="&#x1e82;" horiz-adv-x="1499" 
d="M672 1626l125 281h145l-182 -281h-88zM356 0l-290 1462h120l228 -1226l295 1226h82l294 -1226l230 1226h121l-291 -1462h-103l-292 1212l-293 -1212h-101z" />
    <glyph glyph-name="wacute" unicode="&#x1e83;" horiz-adv-x="1323" 
d="M584 1194l125 279h145l-182 -279h-88zM338 0l-262 1018h119l196 -830l230 830h79l230 -830l198 830h117l-262 -1018h-92l-229 815l-232 -815h-92z" />
    <glyph glyph-name="Wdieresis" unicode="&#x1e84;" horiz-adv-x="1499" 
d="M864 1645v192h107v-192h-107zM530 1645v192h107v-192h-107zM356 0l-290 1462h120l228 -1226l295 1226h82l294 -1226l230 1226h121l-291 -1462h-103l-292 1212l-293 -1212h-101z" />
    <glyph glyph-name="wdieresis" unicode="&#x1e85;" horiz-adv-x="1323" 
d="M772 1212v193h107v-193h-107zM442 1212v193h107v-193h-107zM338 0l-262 1018h119l196 -830l230 830h79l230 -830l198 830h117l-262 -1018h-92l-229 815l-232 -815h-92z" />
    <glyph glyph-name="uni1E92" unicode="&#x1e92;" horiz-adv-x="921" 
d="M406 -383v193h114v-193h-114zM86 0v82l580 1276h-545v104h678v-82l-580 -1276h604v-104h-737z" />
    <glyph glyph-name="uni1E93" unicode="&#x1e93;" horiz-adv-x="808" 
d="M346 -383v193h115v-193h-115zM84 0v72l453 846h-418v100h559v-72l-455 -846h482v-100h-621z" />
    <glyph glyph-name="uni1EA0" unicode="&#x1ea0;" horiz-adv-x="1019" 
d="M453 -383v193h114v-193h-114zM758 438l-246 850l-246 -850h492zM784 336h-546l-97 -336h-131l447 1462h108l447 -1462h-131z" />
    <glyph glyph-name="uni1EA1" unicode="&#x1ea1;" horiz-adv-x="911" 
d="M397 -383v193h115v-193h-115zM637 489h-197q-129 0 -183 -49t-54 -161q0 -113 48 -155t182 -42t179 74q25 41 25 143v190zM637 584v90q0 144 -45 204q-44 60 -140 60t-143 -38t-76 -126l-100 31q61 231 305 231q201 0 273 -127q43 -74 43 -245v-664h-95l-10 74
q-41 -52 -96 -72t-156 -20q-169 0 -239 66t-70 232q0 164 76 234t260 70h213z" />
    <glyph glyph-name="uni1EA2" unicode="&#x1ea2;" horiz-adv-x="1019" 
d="M547 1817q0 53 -70 53q-39 0 -90 -25l-25 76q66 27 132 27q156 0 155 -125q0 -47 -38 -99t-44 -67q-6 -16 -4 -55h-92q2 51 7 71q5 21 37 69t32 75zM758 438l-246 850l-246 -850h492zM784 336h-546l-97 -336h-131l447 1462h108l447 -1462h-131z" />
    <glyph glyph-name="uni1EA3" unicode="&#x1ea3;" horiz-adv-x="911" 
d="M524 1178h-90q0 48 6 70t37 70t31 75q0 53 -68 53q-39 0 -92 -23l-24 74q68 27 133 27q154 0 153 -125q0 -49 -38 -99t-43 -66q-5 -15 -5 -56zM637 489h-197q-129 0 -183 -49t-54 -161q0 -113 48 -155t182 -42t179 74q25 41 25 143v190zM637 584v90q0 144 -45 204
q-44 60 -140 60t-143 -38t-76 -126l-100 31q61 231 305 231q201 0 273 -127q43 -74 43 -245v-664h-95l-10 74q-41 -52 -96 -72t-156 -20q-169 0 -239 66t-70 232q0 164 76 234t260 70h213z" />
    <glyph glyph-name="uni1EA4" unicode="&#x1ea4;" horiz-adv-x="1019" 
d="M510 1679l-127 -118h-125l219 204h68l219 -204h-125zM449 1821l100 229h121l-150 -229h-71zM758 438l-246 850l-246 -850h492zM784 336h-546l-97 -336h-131l447 1462h108l447 -1462h-131z" />
    <glyph glyph-name="uni1EA5" unicode="&#x1ea5;" horiz-adv-x="911" 
d="M471 1247l-129 -119h-125l219 205h68l219 -205h-125zM408 1389l100 229h121l-148 -229h-73zM637 489h-197q-129 0 -183 -49t-54 -161q0 -113 48 -155t182 -42t179 74q25 41 25 143v190zM637 584v90q0 144 -45 204q-44 60 -140 60t-143 -38t-76 -126l-100 31
q61 231 305 231q201 0 273 -127q43 -74 43 -245v-664h-95l-10 74q-41 -52 -96 -72t-156 -20q-169 0 -239 66t-70 232q0 164 76 234t260 70h213z" />
    <glyph glyph-name="uni1EA6" unicode="&#x1ea6;" horiz-adv-x="1019" 
d="M510 1679l-127 -118h-125l219 204h68l219 -204h-125zM571 1821h-71l-150 229h121zM758 438l-246 850l-246 -850h492zM784 336h-546l-97 -336h-131l447 1462h108l447 -1462h-131z" />
    <glyph glyph-name="uni1EA7" unicode="&#x1ea7;" horiz-adv-x="911" 
d="M465 1247l-127 -119h-127l221 205h68l219 -205h-127zM526 1389h-73l-148 229h121zM637 489h-197q-129 0 -183 -49t-54 -161q0 -113 48 -155t182 -42t179 74q25 41 25 143v190zM637 584v90q0 144 -45 204q-44 60 -140 60t-143 -38t-76 -126l-100 31q61 231 305 231
q201 0 273 -127q43 -74 43 -245v-664h-95l-10 74q-41 -52 -96 -72t-156 -20q-169 0 -239 66t-70 232q0 164 76 234t260 70h213z" />
    <glyph glyph-name="uni1EA8" unicode="&#x1ea8;" horiz-adv-x="1019" 
d="M506 1677l-129 -116h-125l219 198h68l219 -198h-125zM553 1796h-82q2 57 32 98t29 64q0 33 -44 33t-85 -17l-22 62q55 23 113 22q129 0 129 -96q0 -37 -35 -80t-35 -86zM758 438l-246 850l-246 -850h492zM784 336h-546l-97 -336h-131l447 1462h108l447 -1462h-131z" />
    <glyph glyph-name="uni1EA9" unicode="&#x1ea9;" horiz-adv-x="911" 
d="M465 1245l-127 -117h-127l219 199h68l221 -199h-127zM512 1364h-82q2 57 32 97t30 65q0 33 -56 33q-29 0 -74 -19l-20 64q51 20 109 20q131 0 131 -96q0 -35 -35 -78t-35 -86zM637 489h-197q-129 0 -183 -49t-54 -161q0 -113 48 -155t182 -42t179 74q25 41 25 143v190z
M637 584v90q0 144 -45 204q-44 60 -140 60t-143 -38t-76 -126l-100 31q61 231 305 231q201 0 273 -127q43 -74 43 -245v-664h-95l-10 74q-41 -52 -96 -72t-156 -20q-169 0 -239 66t-70 232q0 164 76 234t260 70h213z" />
    <glyph glyph-name="uni1EAA" unicode="&#x1eaa;" horiz-adv-x="1019" 
d="M520 1679l-129 -118h-125l219 204h68l221 -204h-127zM436 2025q56 0 106 -56t72 -56q41 0 62 102h72q-20 -100 -52 -141t-85 -41q-54 0 -101 56q-47 57 -73 57q-27 0 -47 -29t-30 -74h-71q23 98 57 140q35 42 90 42zM758 438l-246 850l-246 -850h492zM784 336h-546
l-97 -336h-131l447 1462h108l447 -1462h-131z" />
    <glyph glyph-name="uni1EAB" unicode="&#x1eab;" horiz-adv-x="911" 
d="M465 1247l-129 -119h-125l219 205h68l221 -205h-127zM381 1591q55 0 105 -56t73 -56q41 0 62 102h71q-20 -100 -50 -141t-85 -41t-103 56t-75 56q-47 0 -74 -102h-72q23 96 58 139t90 43zM637 489h-197q-129 0 -183 -49t-54 -161q0 -113 48 -155t182 -42t179 74
q25 41 25 143v190zM637 584v90q0 144 -45 204q-44 60 -140 60t-143 -38t-76 -126l-100 31q61 231 305 231q201 0 273 -127q43 -74 43 -245v-664h-95l-10 74q-41 -52 -96 -72t-156 -20q-169 0 -239 66t-70 232q0 164 76 234t260 70h213z" />
    <glyph glyph-name="uni1EAC" unicode="&#x1eac;" horiz-adv-x="1019" 
d="M453 -383v193h114v-193h-114zM510 1806l-119 -168h-129l213 256h72l211 -256h-127zM758 438l-246 850l-246 -850h492zM784 336h-546l-97 -336h-131l447 1462h108l447 -1462h-131z" />
    <glyph glyph-name="uni1EAD" unicode="&#x1ead;" horiz-adv-x="911" 
d="M397 -383v193h115v-193h-115zM457 1374l-121 -168h-127l211 256h72l213 -256h-127zM637 489h-197q-129 0 -183 -49t-54 -161q0 -113 48 -155t182 -42t179 74q25 41 25 143v190zM637 584v90q0 144 -45 204q-44 60 -140 60t-143 -38t-76 -126l-100 31q61 231 305 231
q201 0 273 -127q43 -74 43 -245v-664h-95l-10 74q-41 -52 -96 -72t-156 -20q-169 0 -239 66t-70 232q0 164 76 234t260 70h213z" />
    <glyph glyph-name="uni1EAE" unicode="&#x1eae;" horiz-adv-x="1019" 
d="M281 1792h79q8 -80 42 -113t109 -33t107 34q32 32 44 112h79q-8 -133 -57 -184q-49 -52 -173 -52t-174 52t-56 184zM449 1821l100 229h121l-150 -229h-71zM758 438l-246 850l-246 -850h492zM784 336h-546l-97 -336h-131l447 1462h108l447 -1462h-131z" />
    <glyph glyph-name="uni1EAF" unicode="&#x1eaf;" horiz-adv-x="911" 
d="M456 1212q76 0 108 33t42 115h80q-8 -135 -58 -186t-173 -52q-160 0 -207 107q-17 35 -23 131h80q8 -82 42 -115t109 -33zM393 1389l101 229h120l-149 -229h-72zM637 489h-197q-129 0 -183 -49t-54 -161q0 -113 48 -155t182 -42t179 74q25 41 25 143v190zM637 584v90
q0 144 -45 204q-44 60 -140 60t-143 -38t-76 -126l-100 31q61 231 305 231q201 0 273 -127q43 -74 43 -245v-664h-95l-10 74q-41 -52 -96 -72t-156 -20q-169 0 -239 66t-70 232q0 164 76 234t260 70h213z" />
    <glyph glyph-name="uni1EB0" unicode="&#x1eb0;" horiz-adv-x="1019" 
d="M281 1792h79q8 -80 42 -113t109 -33t107 34q32 32 44 112h79q-8 -133 -57 -184q-49 -52 -173 -52t-174 52t-56 184zM575 1821h-71l-150 229h121zM758 438l-246 850l-246 -850h492zM784 336h-546l-97 -336h-131l447 1462h108l447 -1462h-131z" />
    <glyph glyph-name="uni1EB1" unicode="&#x1eb1;" horiz-adv-x="911" 
d="M456 1212q76 0 108 33t42 115h80q-8 -135 -58 -186t-173 -52q-160 0 -207 107q-17 35 -23 131h80q8 -82 42 -115t109 -33zM522 1389h-73l-148 229h121zM637 489h-197q-129 0 -183 -49t-54 -161q0 -113 48 -155t182 -42t179 74q25 41 25 143v190zM637 584v90
q0 144 -45 204q-44 60 -140 60t-143 -38t-76 -126l-100 31q61 231 305 231q201 0 273 -127q43 -74 43 -245v-664h-95l-10 74q-41 -52 -96 -72t-156 -20q-169 0 -239 66t-70 232q0 164 76 234t260 70h213z" />
    <glyph glyph-name="uni1EB2" unicode="&#x1eb2;" horiz-adv-x="1019" 
d="M281 1792h79q8 -82 42 -115t109 -33t109 34q34 32 42 114h79q-8 -133 -57 -184q-49 -52 -173 -52t-174 52t-56 184zM549 1774h-80q0 55 31 101t30 71q0 45 -55 45q-33 0 -76 -17l-20 64q59 20 110 20q131 0 132 -106q0 -31 -36 -79t-36 -87v-12zM758 438l-246 850
l-246 -850h492zM784 336h-546l-97 -336h-131l447 1462h108l447 -1462h-131z" />
    <glyph glyph-name="uni1EB3" unicode="&#x1eb3;" horiz-adv-x="911" 
d="M465 1210q75 0 109 34t42 116h80q-8 -133 -58 -185q-50 -53 -173 -53t-173 52t-56 186h77q10 -84 43 -117t109 -33zM504 1339h-80q0 59 30 103t29 69q0 45 -55 45q-31 0 -74 -16l-20 64q53 20 108 20q131 0 131 -106q-1 -31 -35 -80t-34 -86v-13zM637 489h-197
q-129 0 -183 -49t-54 -161q0 -113 48 -155t182 -42t179 74q25 41 25 143v190zM637 584v90q0 144 -45 204q-44 60 -140 60t-143 -38t-76 -126l-100 31q61 231 305 231q201 0 273 -127q43 -74 43 -245v-664h-95l-10 74q-41 -52 -96 -72t-156 -20q-169 0 -239 66t-70 232
q0 164 76 234t260 70h213z" />
    <glyph glyph-name="uni1EB4" unicode="&#x1eb4;" horiz-adv-x="1019" 
d="M503 1642q75 0 107 33t43 111h78q-8 -131 -57 -180q-49 -50 -171 -50q-121 0 -171 50t-56 180h78q8 -80 41 -112t108 -32zM422 2042q55 0 104 -56t74 -57q41 0 62 103h71q-20 -100 -51 -142t-85 -41t-101 57t-76 56q-47 0 -74 -102h-72q23 98 58 140t90 42zM758 438
l-246 850l-246 -850h492zM784 336h-546l-97 -336h-131l447 1462h108l447 -1462h-131z" />
    <glyph glyph-name="uni1EB5" unicode="&#x1eb5;" horiz-adv-x="911" 
d="M458 1208q76 0 108 33t42 111h76q-6 -100 -29 -142q-49 -88 -184 -88t-185 50t-55 180h76q8 -80 42 -112t109 -32zM376 1610q56 0 106 -56t73 -57q41 0 61 102h72q-20 -100 -51 -141t-85 -41q-54 1 -102 57t-77 56q-45 -1 -72 -103h-72q23 99 57 141t90 42zM637 489h-197
q-129 0 -183 -49t-54 -161q0 -113 48 -155t182 -42t179 74q25 41 25 143v190zM637 584v90q0 144 -45 204q-44 60 -140 60t-143 -38t-76 -126l-100 31q61 231 305 231q201 0 273 -127q43 -74 43 -245v-664h-95l-10 74q-41 -52 -96 -72t-156 -20q-169 0 -239 66t-70 232
q0 164 76 234t260 70h213z" />
    <glyph glyph-name="uni1EB6" unicode="&#x1eb6;" horiz-adv-x="1019" 
d="M453 -383v193h114v-193h-114zM510 1716q72 0 102 37t39 129h86q-6 -113 -28 -158q-47 -100 -203 -100t-201 115q-14 41 -20 143h84q8 -92 39 -129q30 -37 102 -37zM758 438l-246 850l-246 -850h492zM784 336h-546l-97 -336h-131l447 1462h108l447 -1462h-131z" />
    <glyph glyph-name="uni1EB7" unicode="&#x1eb7;" horiz-adv-x="911" 
d="M397 -383v193h115v-193h-115zM458 1282q70 0 102 38t40 130h84q-2 -113 -27 -160q-47 -100 -203 -100t-200 117q-15 37 -21 143h84q8 -94 39 -131t102 -37zM637 489h-197q-129 0 -183 -49t-54 -161q0 -113 48 -155t182 -42t179 74q25 41 25 143v190zM637 584v90
q0 144 -45 204q-44 60 -140 60t-143 -38t-76 -126l-100 31q61 231 305 231q201 0 273 -127q43 -74 43 -245v-664h-95l-10 74q-41 -52 -96 -72t-156 -20q-169 0 -239 66t-70 232q0 164 76 234t260 70h213z" />
    <glyph glyph-name="uni1EB8" unicode="&#x1eb8;" horiz-adv-x="993" 
d="M500 -383v193h114v-193h-114zM193 0v1462h698v-104h-578v-565h494v-105h-494v-584h578v-104h-698z" />
    <glyph glyph-name="uni1EB9" unicode="&#x1eb9;" horiz-adv-x="940" 
d="M410 -383v193h114v-193h-114zM252 588h450v47q0 301 -225 301t-225 -301v-47zM252 494v-99q0 -313 240 -313q88 0 135 39t65 125l103 -21q-21 -125 -95 -184t-211 -59q-182 0 -268 106t-86 330v180q0 226 83 332t258 106t257 -106t82 -332v-104h-563z" />
    <glyph glyph-name="uni1EBA" unicode="&#x1eba;" horiz-adv-x="993" 
d="M586 1602h-90q0 48 6 70t36 70t31 75q0 53 -67 53q-41 0 -92 -25l-25 76q70 27 133 27q154 0 154 -125q0 -47 -38 -99t-43 -67q-5 -16 -5 -55zM193 0v1462h698v-104h-578v-565h494v-105h-494v-584h578v-104h-698z" />
    <glyph glyph-name="uni1EBB" unicode="&#x1ebb;" horiz-adv-x="940" 
d="M520 1178h-90q0 48 6 70t38 69t32 76q0 53 -70 53q-39 0 -92 -23l-25 74q66 27 134 27q156 0 155 -125q0 -47 -39 -99t-44 -66q-5 -15 -5 -56zM252 588h450v47q0 301 -225 301t-225 -301v-47zM252 494v-99q0 -313 240 -313q88 0 135 39t65 125l103 -21q-21 -125 -95 -184
t-211 -59q-182 0 -268 106t-86 330v180q0 226 83 332t258 106t257 -106t82 -332v-104h-563z" />
    <glyph glyph-name="uni1EBC" unicode="&#x1ebc;" horiz-adv-x="993" 
d="M432 1870q64 0 119 -68q59 -68 92 -67q49 0 72 118h78q-25 -117 -58 -161t-97 -43q-64 0 -126 67q-55 66 -84 66q-55 0 -78 -117h-78q27 115 61 160q35 45 99 45zM193 0v1462h698v-104h-578v-565h494v-105h-494v-584h578v-104h-698z" />
    <glyph glyph-name="uni1EBD" unicode="&#x1ebd;" horiz-adv-x="940" 
d="M367 1436q63 0 121 -67t92 -66q49 0 71 116h78q-25 -115 -57 -159t-98 -43q-64 0 -125 67q-55 66 -84 66q-55 0 -78 -117h-78q27 115 60 159q34 44 98 44zM252 588h450v47q0 301 -225 301t-225 -301v-47zM252 494v-99q0 -313 240 -313q88 0 135 39t65 125l103 -21
q-21 -125 -95 -184t-211 -59q-182 0 -268 106t-86 330v180q0 226 83 332t258 106t257 -106t82 -332v-104h-563z" />
    <glyph glyph-name="uni1EBE" unicode="&#x1ebe;" horiz-adv-x="993" 
d="M539 1679l-127 -118h-127l219 204h67l222 -204h-127zM475 1821l100 229h121l-147 -229h-74zM193 0v1462h698v-104h-578v-565h494v-105h-494v-584h578v-104h-698z" />
    <glyph glyph-name="uni1EBF" unicode="&#x1ebf;" horiz-adv-x="940" 
d="M479 1247l-127 -119h-125l219 205h68l219 -205h-125zM418 1389l100 229h121l-150 -229h-71zM252 588h450v47q0 301 -225 301t-225 -301v-47zM252 494v-99q0 -313 240 -313q88 0 135 39t65 125l103 -21q-21 -125 -95 -184t-211 -59q-182 0 -268 106t-86 330v180
q0 226 83 332t258 106t257 -106t82 -332v-104h-563z" />
    <glyph glyph-name="uni1EC0" unicode="&#x1ec0;" horiz-adv-x="993" 
d="M539 1679l-127 -118h-127l219 204h67l222 -204h-127zM600 1821h-74l-147 229h121zM193 0v1462h698v-104h-578v-565h494v-105h-494v-584h578v-104h-698z" />
    <glyph glyph-name="uni1EC1" unicode="&#x1ec1;" horiz-adv-x="940" 
d="M479 1247l-127 -119h-125l219 205h68l219 -205h-125zM541 1389h-72l-150 229h121zM252 588h450v47q0 301 -225 301t-225 -301v-47zM252 494v-99q0 -313 240 -313q88 0 135 39t65 125l103 -21q-21 -125 -95 -184t-211 -59q-182 0 -268 106t-86 330v180q0 226 83 332
t258 106t257 -106t82 -332v-104h-563z" />
    <glyph glyph-name="uni1EC2" unicode="&#x1ec2;" horiz-adv-x="993" 
d="M539 1677l-127 -116h-125l219 198h67l220 -198h-125zM586 1796h-80q0 53 31 95t30 67q0 33 -44 33t-87 -17l-20 62q53 23 110 22q131 0 131 -96q0 -37 -43 -88q-28 -39 -28 -78zM193 0v1462h698v-104h-578v-565h494v-105h-494v-584h578v-104h-698z" />
    <glyph glyph-name="uni1EC3" unicode="&#x1ec3;" horiz-adv-x="940" 
d="M475 1245l-127 -117h-125l219 199h68l219 -199h-125zM442 1364q0 53 31 95t31 67q0 33 -43 33t-88 -19l-21 64q53 20 111 20q131 0 131 -96q0 -35 -43 -86q-27 -37 -29 -78h-80zM252 588h450v47q0 301 -225 301t-225 -301v-47zM252 494v-99q0 -313 240 -313q88 0 135 39
t65 125l103 -21q-21 -125 -95 -184t-211 -59q-182 0 -268 106t-86 330v180q0 226 83 332t258 106t257 -106t82 -332v-104h-563z" />
    <glyph glyph-name="uni1EC4" unicode="&#x1ec4;" horiz-adv-x="993" 
d="M547 1679l-127 -118h-125l219 204h68l219 -204h-125zM464 2025q56 0 105 -56t74 -56q39 0 62 102h69q-18 -100 -49 -141t-85 -41t-102 56t-77 57q-43 -1 -74 -103h-70q23 98 57 140t90 42zM193 0v1462h698v-104h-578v-565h494v-105h-494v-584h578v-104h-698z" />
    <glyph glyph-name="uni1EC5" unicode="&#x1ec5;" horiz-adv-x="940" 
d="M483 1247l-127 -119h-125l220 205h67l219 -205h-125zM400 1591q56 0 106 -56t74 -56q41 0 61 102h70q-21 -100 -51 -141t-84 -41t-102 56t-77 56q-46 0 -73 -102h-70q23 98 56 140q34 42 90 42zM252 588h450v47q0 301 -225 301t-225 -301v-47zM252 494v-99
q0 -313 240 -313q88 0 135 39t65 125l103 -21q-21 -125 -95 -184t-211 -59q-182 0 -268 106t-86 330v180q0 226 83 332t258 106t257 -106t82 -332v-104h-563z" />
    <glyph glyph-name="uni1EC6" unicode="&#x1ec6;" horiz-adv-x="993" 
d="M496 -383v193h114v-193h-114zM543 1806l-121 -168h-127l211 256h72l213 -256h-129zM193 0v1462h698v-104h-578v-565h494v-105h-494v-584h578v-104h-698z" />
    <glyph glyph-name="uni1EC7" unicode="&#x1ec7;" horiz-adv-x="940" 
d="M410 -383v193h114v-193h-114zM481 1374l-119 -168h-129l213 256h72l211 -256h-127zM252 588h450v47q0 301 -225 301t-225 -301v-47zM252 494v-99q0 -313 240 -313q88 0 135 39t65 125l103 -21q-21 -125 -95 -184t-211 -59q-182 0 -268 106t-86 330v180q0 226 83 332
t258 106t257 -106t82 -332v-104h-563z" />
    <glyph glyph-name="uni1EC8" unicode="&#x1ec8;" horiz-adv-x="503" 
d="M303 1602h-90q0 48 6 70t37 70t31 75q0 53 -68 53q-41 0 -92 -25l-25 76q70 27 134 27q154 0 153 -125q0 -49 -38 -99t-43 -66q-5 -17 -5 -56zM190 0v1462h121v-1462h-121z" />
    <glyph glyph-name="uni1EC9" unicode="&#x1ec9;" horiz-adv-x="444" 
d="M274 1178h-90q0 48 6 70t37 70t31 75q0 53 -68 53q-39 0 -92 -23l-24 74q66 27 131 27q156 0 155 -125q0 -47 -38 -97t-43 -68q-5 -17 -5 -56zM164 0v1018h117v-1018h-117z" />
    <glyph glyph-name="uni1ECA" unicode="&#x1eca;" horiz-adv-x="503" 
d="M193 -383v193h114v-193h-114zM190 0v1462h121v-1462h-121z" />
    <glyph glyph-name="uni1ECB" unicode="&#x1ecb;" horiz-adv-x="444" 
d="M164 -383v193h115v-193h-115zM164 0v1018h117v-1018h-117zM164 1272v194h117v-194h-117z" />
    <glyph glyph-name="uni1ECC" unicode="&#x1ecc;" horiz-adv-x="1165" 
d="M524 -383v193h115v-193h-115zM584 84q299 0 299 408v479q0 407 -299 407q-164 0 -244 -125q-57 -94 -57 -282v-479q0 -203 69 -302q80 -106 232 -106zM162 983q0 498 429 498q220 0 333 -158q80 -111 80 -340v-504q0 -244 -97 -362q-115 -135 -333 -135t-332 157
q-80 115 -80 340v504z" />
    <glyph glyph-name="uni1ECD" unicode="&#x1ecd;" horiz-adv-x="962" 
d="M422 -383v193h115v-193h-115zM711 393v232q1 163 -55 237t-175 74t-174 -75t-55 -236v-232q0 -163 55 -237t174 -74t175 74t55 237zM135 397v224q0 215 84 315t262 100t262 -100t84 -315v-224q0 -215 -84 -315t-262 -100t-262 100t-84 315z" />
    <glyph glyph-name="uni1ECE" unicode="&#x1ece;" horiz-adv-x="1165" 
d="M635 1602h-92q2 51 7 71q5 21 37 67t31 77q0 53 -69 53q-39 0 -90 -25l-25 76q66 27 131 27q156 0 156 -125q0 -49 -38 -99t-43 -67q-5 -16 -5 -55zM584 84q299 0 299 408v479q0 407 -299 407q-164 0 -244 -125q-57 -94 -57 -282v-479q0 -203 69 -302q80 -106 232 -106z
M162 983q0 498 429 498q220 0 333 -158q80 -111 80 -340v-504q0 -244 -97 -362q-115 -135 -333 -135t-332 157q-80 115 -80 340v504z" />
    <glyph glyph-name="uni1ECF" unicode="&#x1ecf;" horiz-adv-x="962" 
d="M530 1178h-90q0 48 6 70t37 70t31 75q0 53 -68 53q-39 0 -92 -23l-24 74q66 27 131 27q156 0 155 -125q0 -47 -38 -97t-43 -68q-5 -17 -5 -56zM711 393v232q1 163 -55 237t-175 74t-174 -75t-55 -236v-232q0 -163 55 -237t174 -74t175 74t55 237zM135 397v224
q0 215 84 315t262 100t262 -100t84 -315v-224q0 -215 -84 -315t-262 -100t-262 100t-84 315z" />
    <glyph glyph-name="uni1ED0" unicode="&#x1ed0;" horiz-adv-x="1165" 
d="M582 1679l-127 -118h-125l219 204h67l220 -204h-125zM520 1821l101 229h120l-147 -229h-74zM584 84q299 0 299 408v479q0 407 -299 407q-164 0 -244 -125q-57 -94 -57 -282v-479q0 -203 69 -302q80 -106 232 -106zM162 983q0 498 429 498q220 0 333 -158q80 -111 80 -340
v-504q0 -244 -97 -362q-115 -135 -333 -135t-332 157q-80 115 -80 340v504z" />
    <glyph glyph-name="uni1ED1" unicode="&#x1ed1;" horiz-adv-x="962" 
d="M481 1247l-127 -119h-127l222 205h65l221 -205h-127zM418 1389l100 229h123l-149 -229h-74zM711 393v232q1 163 -55 237t-175 74t-174 -75t-55 -236v-232q0 -163 55 -237t174 -74t175 74t55 237zM135 397v224q0 215 84 315t262 100t262 -100t84 -315v-224
q0 -215 -84 -315t-262 -100t-262 100t-84 315z" />
    <glyph glyph-name="uni1ED2" unicode="&#x1ed2;" horiz-adv-x="1165" 
d="M582 1679l-127 -118h-125l219 204h67l220 -204h-125zM643 1821h-72l-149 229h121zM584 84q299 0 299 408v479q0 407 -299 407q-164 0 -244 -125q-57 -94 -57 -282v-479q0 -203 69 -302q80 -106 232 -106zM162 983q0 498 429 498q220 0 333 -158q80 -111 80 -340v-504
q0 -244 -97 -362q-115 -135 -333 -135t-332 157q-80 115 -80 340v504z" />
    <glyph glyph-name="uni1ED3" unicode="&#x1ed3;" horiz-adv-x="962" 
d="M481 1247l-127 -119h-127l222 205h65l221 -205h-127zM543 1389h-74l-147 229h120zM711 393v232q1 163 -55 237t-175 74t-174 -75t-55 -236v-232q0 -163 55 -237t174 -74t175 74t55 237zM135 397v224q0 215 84 315t262 100t262 -100t84 -315v-224q0 -215 -84 -315
t-262 -100t-262 100t-84 315z" />
    <glyph glyph-name="uni1ED4" unicode="&#x1ed4;" horiz-adv-x="1165" 
d="M578 1677l-129 -116h-125l219 198h67l221 -198h-126zM625 1796h-82q1 57 31 97t30 65q0 33 -43 33t-86 -17l-20 62q53 23 110 22q129 0 129 -96q0 -37 -34 -80t-35 -86zM584 84q299 0 299 408v479q0 407 -299 407q-164 0 -244 -125q-57 -94 -57 -282v-479q0 -203 69 -302
q80 -106 232 -106zM162 983q0 498 429 498q220 0 333 -158q80 -111 80 -340v-504q0 -244 -97 -362q-115 -135 -333 -135t-332 157q-80 115 -80 340v504z" />
    <glyph glyph-name="uni1ED5" unicode="&#x1ed5;" horiz-adv-x="962" 
d="M475 1245l-127 -117h-127l221 199h68l219 -199h-125zM522 1364h-80q0 53 30 97t30 65q0 33 -56 33q-31 0 -73 -19l-21 64q53 20 111 20q129 0 129 -96q0 -37 -41 -86q-29 -39 -29 -78zM711 393v232q1 163 -55 237t-175 74t-174 -75t-55 -236v-232q0 -163 55 -237t174 -74
t175 74t55 237zM135 397v224q0 215 84 315t262 100t262 -100t84 -315v-224q0 -215 -84 -315t-262 -100t-262 100t-84 315z" />
    <glyph glyph-name="uni1ED6" unicode="&#x1ed6;" horiz-adv-x="1165" 
d="M592 1679l-127 -118h-127l219 204h68l221 -204h-127zM508 2025q55 0 104 -56t74 -56q41 0 62 102h71q-20 -100 -51 -141t-85 -41t-101 56t-76 57q-47 -1 -74 -103h-72q23 98 58 140t90 42zM584 84q299 0 299 408v479q0 407 -299 407q-164 0 -244 -125q-57 -94 -57 -282
v-479q0 -203 69 -302q80 -106 232 -106zM162 983q0 498 429 498q220 0 333 -158q80 -111 80 -340v-504q0 -244 -97 -362q-115 -135 -333 -135t-332 157q-80 115 -80 340v504z" />
    <glyph glyph-name="uni1ED7" unicode="&#x1ed7;" horiz-adv-x="962" 
d="M489 1247l-127 -119h-124l219 205h67l219 -205h-125zM406 1591q56 0 106 -56q49 -56 74 -56q41 0 61 102h70q-20 -100 -50 -141t-84 -41q-55 0 -103 56t-77 56q-46 0 -73 -102h-70q23 98 56 140q34 42 90 42zM711 393v232q1 163 -55 237t-175 74t-174 -75t-55 -236v-232
q0 -163 55 -237t174 -74t175 74t55 237zM135 397v224q0 215 84 315t262 100t262 -100t84 -315v-224q0 -215 -84 -315t-262 -100t-262 100t-84 315z" />
    <glyph glyph-name="uni1ED8" unicode="&#x1ed8;" horiz-adv-x="1165" 
d="M524 -383v193h115v-193h-115zM582 1806l-119 -168h-129l213 256h71l213 -256h-129zM584 84q299 0 299 408v479q0 407 -299 407q-164 0 -244 -125q-57 -94 -57 -282v-479q0 -203 69 -302q80 -106 232 -106zM162 983q0 498 429 498q220 0 333 -158q80 -111 80 -340v-504
q0 -244 -97 -362q-115 -135 -333 -135t-332 157q-80 115 -80 340v504z" />
    <glyph glyph-name="uni1ED9" unicode="&#x1ed9;" horiz-adv-x="962" 
d="M422 -383v193h115v-193h-115zM481 1374l-121 -168h-127l211 256h74l211 -256h-127zM711 393v232q1 163 -55 237t-175 74t-174 -75t-55 -236v-232q0 -163 55 -237t174 -74t175 74t55 237zM135 397v224q0 215 84 315t262 100t262 -100t84 -315v-224q0 -215 -84 -315
t-262 -100t-262 100t-84 315z" />
    <glyph glyph-name="uni1EDA" unicode="&#x1eda;" horiz-adv-x="1210" 
d="M549 1626l125 281h145l-182 -281h-88zM584 84q299 0 299 408v479q0 407 -299 407q-164 0 -244 -125q-57 -94 -57 -282v-479q0 -203 69 -302q80 -106 232 -106zM1206 1411q0 -137 -108 -221q-27 -23 -103 -76q8 -51 9 -131v-504q0 -244 -97 -362q-115 -135 -333 -135
t-332 157q-80 115 -80 340v504q0 248 98 363q111 135 322 135q309 0 397 -281q77 55 103 95q26 41 26 91t-18 95h106q10 -35 10 -70z" />
    <glyph glyph-name="uni1EDB" unicode="&#x1edb;" horiz-adv-x="1001" 
d="M442 1194l127 279h146l-183 -279h-90zM711 393v232q1 161 -55 237t-175 76t-174 -76t-55 -237v-232q0 -163 55 -237t174 -74t175 74t55 237zM1022 958q0 -162 -197 -284q2 -23 2 -70v-207q0 -215 -84 -315t-262 -100t-262 100t-84 315v224q0 215 83 315q84 100 246 100
t245 -66q82 -67 108 -206q61 53 84 92t23 89t-19 89h107q10 -39 10 -76z" />
    <glyph glyph-name="uni1EDC" unicode="&#x1edc;" horiz-adv-x="1210" 
d="M680 1626h-88l-182 281h145zM584 84q299 0 299 408v479q0 407 -299 407q-164 0 -244 -125q-57 -94 -57 -282v-479q0 -203 69 -302q80 -106 232 -106zM1206 1411q0 -137 -108 -221q-27 -23 -103 -76q8 -51 9 -131v-504q0 -244 -97 -362q-115 -135 -333 -135t-332 157
q-80 115 -80 340v504q0 248 98 363q111 135 322 135q309 0 397 -281q77 55 103 95q26 41 26 91t-18 95h106q10 -35 10 -70z" />
    <glyph glyph-name="uni1EDD" unicode="&#x1edd;" horiz-adv-x="1001" 
d="M586 1194h-88l-183 279h146zM711 393v232q1 161 -55 237t-175 76t-174 -76t-55 -237v-232q0 -163 55 -237t174 -74t175 74t55 237zM1022 958q0 -162 -197 -284q2 -23 2 -70v-207q0 -215 -84 -315t-262 -100t-262 100t-84 315v224q0 215 83 315q84 100 246 100t245 -66
q82 -67 108 -206q61 53 84 92t23 89t-19 89h107q10 -39 10 -76z" />
    <glyph glyph-name="uni1EDE" unicode="&#x1ede;" horiz-adv-x="1210" 
d="M651 1602h-90q0 51 6 71q6 21 38 69t32 75q0 53 -70 53q-37 0 -92 -25l-24 76q70 27 133 27q156 0 155 -125q0 -47 -38 -99t-44 -68q-6 -15 -6 -54zM584 84q299 0 299 408v479q0 407 -299 407q-164 0 -244 -125q-57 -94 -57 -282v-479q0 -203 69 -302q80 -106 232 -106z
M1206 1411q0 -137 -108 -221q-27 -23 -103 -76q8 -51 9 -131v-504q0 -244 -97 -362q-115 -135 -333 -135t-332 157q-80 115 -80 340v504q0 248 98 363q111 135 322 135q309 0 397 -281q77 55 103 95q26 41 26 91t-18 95h106q10 -35 10 -70z" />
    <glyph glyph-name="uni1EDF" unicode="&#x1edf;" horiz-adv-x="1001" 
d="M532 1178h-92q2 51 7 71q5 21 37 69t32 75q0 53 -67 53q-39 0 -93 -23l-24 74q66 27 131 27q156 0 155 -125q0 -47 -38 -97t-43 -68q-5 -17 -5 -56zM711 393v232q1 161 -55 237t-175 76t-174 -76t-55 -237v-232q0 -163 55 -237t174 -74t175 74t55 237zM1022 958
q0 -162 -197 -284q2 -23 2 -70v-207q0 -215 -84 -315t-262 -100t-262 100t-84 315v224q0 215 83 315q84 100 246 100t245 -66q82 -67 108 -206q61 53 84 92t23 89t-19 89h107q10 -39 10 -76z" />
    <glyph glyph-name="uni1EE0" unicode="&#x1ee0;" horiz-adv-x="1210" 
d="M484 1870q64 0 120 -68q59 -68 92 -67q47 0 72 118h78q-25 -117 -58 -161q-34 -44 -98 -43q-64 0 -125 67q-55 66 -84 66q-53 0 -78 -117h-77q25 113 59 159q35 46 99 46zM584 84q299 0 299 408v479q0 407 -299 407q-164 0 -244 -125q-57 -94 -57 -282v-479
q0 -203 69 -302q80 -106 232 -106zM1206 1411q0 -137 -108 -221q-27 -23 -103 -76q8 -51 9 -131v-504q0 -244 -97 -362q-115 -135 -333 -135t-332 157q-80 115 -80 340v504q0 248 98 363q111 135 322 135q309 0 397 -281q77 55 103 95q26 41 26 91t-18 95h106q10 -35 10 -70
z" />
    <glyph glyph-name="uni1EE1" unicode="&#x1ee1;" horiz-adv-x="1001" 
d="M386 1436q62 0 122 -67t92 -66q45 0 72 116h78q-25 -115 -58 -159q-34 -44 -98 -43q-64 0 -125 67q-55 66 -86 66q-53 0 -78 -117h-76q27 115 61 159t96 44zM711 393v232q1 161 -55 237t-175 76t-174 -76t-55 -237v-232q0 -163 55 -237t174 -74t175 74t55 237zM1022 958
q0 -162 -197 -284q2 -23 2 -70v-207q0 -215 -84 -315t-262 -100t-262 100t-84 315v224q0 215 83 315q84 100 246 100t245 -66q82 -67 108 -206q61 53 84 92t23 89t-19 89h107q10 -39 10 -76z" />
    <glyph glyph-name="uni1EE2" unicode="&#x1ee2;" horiz-adv-x="1210" 
d="M551 -383v193h115v-193h-115zM584 84q299 0 299 408v479q0 407 -299 407q-164 0 -244 -125q-57 -94 -57 -282v-479q0 -203 69 -302q80 -106 232 -106zM1206 1411q0 -137 -108 -221q-27 -23 -103 -76q8 -51 9 -131v-504q0 -244 -97 -362q-115 -135 -333 -135t-332 157
q-80 115 -80 340v504q0 248 98 363q111 135 322 135q309 0 397 -281q77 55 103 95q26 41 26 91t-18 95h106q10 -35 10 -70z" />
    <glyph glyph-name="uni1EE3" unicode="&#x1ee3;" horiz-adv-x="1001" 
d="M432 -383v193h115v-193h-115zM711 393v232q1 161 -55 237t-175 76t-174 -76t-55 -237v-232q0 -163 55 -237t174 -74t175 74t55 237zM1022 958q0 -162 -197 -284q2 -23 2 -70v-207q0 -215 -84 -315t-262 -100t-262 100t-84 315v224q0 215 83 315q84 100 246 100t245 -66
q82 -67 108 -206q61 53 84 92t23 89t-19 89h107q10 -39 10 -76z" />
    <glyph glyph-name="uni1EE4" unicode="&#x1ee4;" horiz-adv-x="1189" 
d="M537 -383v193h114v-193h-114zM186 1462h121v-1001q0 -178 47 -256q78 -119 234 -119q98 0 158 33t98 105t39 237v1001h121v-1001q0 -133 -16 -203t-58 -127q-106 -147 -344 -147t-342 170q-57 92 -58 307v1001z" />
    <glyph glyph-name="uni1EE5" unicode="&#x1ee5;" horiz-adv-x="958" 
d="M422 -383v193h115v-193h-115zM156 1018h116v-612q0 -172 45 -247t154 -75t159 89t50 292v553h117v-1018h-92l-9 121q-45 -76 -101 -108t-144 -31q-205 0 -269 178q-27 74 -26 235v623z" />
    <glyph glyph-name="uni1EE6" unicode="&#x1ee6;" horiz-adv-x="1189" 
d="M647 1602h-92q2 51 7 71q5 21 37 67t32 77q0 53 -70 53q-39 0 -90 -25l-25 76q68 27 132 27q156 0 155 -125q0 -47 -38 -99t-43 -66q-5 -15 -5 -56zM186 1462h121v-1001q0 -178 47 -256q78 -119 234 -119q98 0 158 33t98 105t39 237v1001h121v-1001q0 -133 -16 -203
t-58 -127q-106 -147 -344 -147t-342 170q-57 92 -58 307v1001z" />
    <glyph glyph-name="uni1EE7" unicode="&#x1ee7;" horiz-adv-x="958" 
d="M532 1178h-92q2 51 7 71q5 21 37 69t32 75q0 53 -67 53q-39 0 -93 -23l-24 74q66 27 131 27q156 0 155 -125q0 -47 -38 -97t-43 -68q-5 -17 -5 -56zM156 1018h116v-612q0 -172 45 -247t154 -75t159 89t50 292v553h117v-1018h-92l-9 121q-45 -76 -101 -108t-144 -31
q-205 0 -269 178q-27 74 -26 235v623z" />
    <glyph glyph-name="uni1EE8" unicode="&#x1ee8;" horiz-adv-x="1255" 
d="M569 1626l125 281h146l-183 -281h-88zM186 1462h121v-1001q0 -178 47 -256q78 -119 234 -119q98 0 158 33t98 105t39 237v1001h121v-299q100 57 140 109t40 110q0 60 -19 99h107q10 -39 10 -74q0 -133 -127 -240q-37 -31 -151 -94v-612q0 -133 -16 -203t-58 -127
q-106 -147 -344 -147t-342 170q-57 92 -58 307v1001z" />
    <glyph glyph-name="uni1EE9" unicode="&#x1ee9;" horiz-adv-x="1026" 
d="M455 1194l125 279h147l-182 -279h-90zM156 1018h116v-612q0 -172 45 -247t154 -75t159 89t50 292v553h117v-301q102 59 141 109t39 110t-19 98h107q10 -37 10 -73q0 -131 -127 -238q-37 -31 -151 -96v-627h-92l-9 121q-45 -76 -101 -108t-144 -31q-205 0 -269 178
q-27 74 -26 235v623z" />
    <glyph glyph-name="uni1EEA" unicode="&#x1eea;" horiz-adv-x="1255" 
d="M664 1626h-89l-182 281h146zM186 1462h121v-1001q0 -178 47 -256q78 -119 234 -119q98 0 158 33t98 105t39 237v1001h121v-299q100 57 140 109t40 110q0 60 -19 99h107q10 -39 10 -74q0 -133 -127 -240q-37 -31 -151 -94v-612q0 -133 -16 -203t-58 -127
q-106 -147 -344 -147t-342 170q-57 92 -58 307v1001z" />
    <glyph glyph-name="uni1EEB" unicode="&#x1eeb;" horiz-adv-x="1026" 
d="M555 1194h-90l-182 279h145zM156 1018h116v-612q0 -172 45 -247t154 -75t159 89t50 292v553h117v-301q102 59 141 109t39 110t-19 98h107q10 -37 10 -73q0 -131 -127 -238q-37 -31 -151 -96v-627h-92l-9 121q-45 -76 -101 -108t-144 -31q-205 0 -269 178q-27 74 -26 235
v623z" />
    <glyph glyph-name="uni1EEC" unicode="&#x1eec;" horiz-adv-x="1255" 
d="M655 1602h-92q2 51 7 71q5 21 37 69t32 75q0 53 -70 53q-39 0 -90 -25l-24 76q66 27 131 27q156 0 155 -125q0 -49 -38 -99t-43 -67q-5 -16 -5 -55zM186 1462h121v-1001q0 -178 47 -256q78 -119 234 -119q98 0 158 33t98 105t39 237v1001h121v-299q100 57 140 109t40 110
q0 60 -19 99h107q10 -39 10 -74q0 -133 -127 -240q-37 -31 -151 -94v-612q0 -133 -16 -203t-58 -127q-106 -147 -344 -147t-342 170q-57 92 -58 307v1001z" />
    <glyph glyph-name="uni1EED" unicode="&#x1eed;" horiz-adv-x="1026" 
d="M520 1393q0 53 -67 53q-39 0 -93 -23l-24 74q68 27 131 27q156 0 156 -125q-1 -47 -39 -99t-42 -66q-4 -15 -7 -56h-91q2 51 8 71q4 21 36 69t32 75zM156 1018h116v-612q0 -172 45 -247t154 -75t159 89t50 292v553h117v-301q102 59 141 109t39 110t-19 98h107
q10 -37 10 -73q0 -131 -127 -238q-37 -31 -151 -96v-627h-92l-9 121q-45 -76 -101 -108t-144 -31q-205 0 -269 178q-27 74 -26 235v623z" />
    <glyph glyph-name="uni1EEE" unicode="&#x1eee;" horiz-adv-x="1255" 
d="M484 1870q64 0 120 -68q59 -68 92 -67q49 0 72 118h78q-25 -117 -58 -161q-34 -44 -98 -43q-64 0 -125 67q-55 66 -84 66q-53 0 -78 -117h-77q27 115 60 160q34 45 98 45zM186 1462h121v-1001q0 -178 47 -256q78 -119 234 -119q98 0 158 33t98 105t39 237v1001h121v-299
q100 57 140 109t40 110q0 60 -19 99h107q10 -39 10 -74q0 -133 -127 -240q-37 -31 -151 -94v-612q0 -133 -16 -203t-58 -127q-106 -147 -344 -147t-342 170q-57 92 -58 307v1001z" />
    <glyph glyph-name="uni1EEF" unicode="&#x1eef;" horiz-adv-x="1026" 
d="M372 1436q62 0 122 -67t92 -66q47 0 71 116h78q-25 -115 -57 -159t-98 -43q-64 1 -123 67t-86 66q-53 0 -78 -117h-78q27 115 60 159q35 44 97 44zM156 1018h116v-612q0 -172 45 -247t154 -75t159 89t50 292v553h117v-301q102 59 141 109t39 110t-19 98h107
q10 -37 10 -73q0 -131 -127 -238q-37 -31 -151 -96v-627h-92l-9 121q-45 -76 -101 -108t-144 -31q-205 0 -269 178q-27 74 -26 235v623z" />
    <glyph glyph-name="uni1EF0" unicode="&#x1ef0;" horiz-adv-x="1255" 
d="M557 -383v193h115v-193h-115zM186 1462h121v-1001q0 -178 47 -256q78 -119 234 -119q98 0 158 33t98 105t39 237v1001h121v-299q100 57 140 109t40 110q0 60 -19 99h107q10 -39 10 -74q0 -133 -127 -240q-37 -31 -151 -94v-612q0 -133 -16 -203t-58 -127
q-106 -147 -344 -147t-342 170q-57 92 -58 307v1001z" />
    <glyph glyph-name="uni1EF1" unicode="&#x1ef1;" horiz-adv-x="1026" 
d="M463 -383v193h115v-193h-115zM156 1018h116v-612q0 -172 45 -247t154 -75t159 89t50 292v553h117v-301q102 59 141 109t39 110t-19 98h107q10 -37 10 -73q0 -131 -127 -238q-37 -31 -151 -96v-627h-92l-9 121q-45 -76 -101 -108t-144 -31q-205 0 -269 178q-27 74 -26 235
v623z" />
    <glyph glyph-name="Ygrave" unicode="&#x1ef2;" horiz-adv-x="921" 
d="M543 1626h-88l-183 281h146zM401 0v537l-387 925h127l322 -782l319 782h127l-387 -925v-537h-121z" />
    <glyph glyph-name="ygrave" unicode="&#x1ef3;" horiz-adv-x="837" 
d="M492 1194h-89l-182 279h146zM115 -371q96 0 134 34t70 147l50 180l-320 1028h117l262 -887l234 887h116l-340 -1223q-49 -164 -110 -214t-213 -52v100z" />
    <glyph glyph-name="uni1EF4" unicode="&#x1ef4;" horiz-adv-x="921" 
d="M403 -383v193h115v-193h-115zM401 0v537l-387 925h127l322 -782l319 782h127l-387 -925v-537h-121z" />
    <glyph glyph-name="uni1EF5" unicode="&#x1ef5;" horiz-adv-x="837" 
d="M547 -383v193h115v-193h-115zM115 -371q96 0 134 34t70 147l50 180l-320 1028h117l262 -887l234 887h116l-340 -1223q-49 -164 -110 -214t-213 -52v100z" />
    <glyph glyph-name="uni1EF6" unicode="&#x1ef6;" horiz-adv-x="921" 
d="M512 1602h-90q2 51 7 71q5 21 37 69t32 75q0 53 -70 53q-39 0 -90 -25l-25 76q68 27 131 27q156 0 156 -125q0 -49 -38 -99t-44 -67q-6 -16 -6 -55zM401 0v537l-387 925h127l322 -782l319 782h127l-387 -925v-537h-121z" />
    <glyph glyph-name="uni1EF7" unicode="&#x1ef7;" horiz-adv-x="837" 
d="M471 1178h-92q2 51 8 71q6 21 37 69t31 75q0 53 -70 53q-37 0 -90 -23l-25 74q66 27 131 27q156 0 156 -125q0 -47 -38 -99t-43 -67q-5 -16 -5 -55zM115 -371q96 0 134 34t70 147l50 180l-320 1028h117l262 -887l234 887h116l-340 -1223q-49 -164 -110 -214t-213 -52v100
z" />
    <glyph glyph-name="uni1EF8" unicode="&#x1ef8;" horiz-adv-x="921" 
d="M357 1870q62 0 124 -68q57 -68 90 -67q47 0 74 118h76q-25 -117 -57 -161t-98 -43q-65 0 -126 67q-55 66 -84 66q-52 0 -77 -117h-78q27 115 60 160q34 45 96 45zM401 0v537l-387 925h127l322 -782l319 782h127l-387 -925v-537h-121z" />
    <glyph glyph-name="uni1EF9" unicode="&#x1ef9;" horiz-adv-x="837" 
d="M316 1436q64 0 122 -67q59 -67 92 -66q47 0 72 116h76q-24 -117 -56 -159t-98 -43q-66 1 -124 67t-87 66q-52 0 -77 -117h-78q27 115 60 159q34 44 98 44zM115 -371q96 0 134 34t70 147l50 180l-320 1028h117l262 -887l234 887h116l-340 -1223q-49 -164 -110 -214
t-213 -52v100z" />
    <glyph glyph-name="uni2002" unicode="&#x2002;" horiz-adv-x="1024" 
 />
    <glyph glyph-name="uni2003" unicode="&#x2003;" horiz-adv-x="2048" 
 />
    <glyph glyph-name="uni2004" unicode="&#x2004;" horiz-adv-x="681" 
 />
    <glyph glyph-name="uni2005" unicode="&#x2005;" horiz-adv-x="512" 
 />
    <glyph glyph-name="uni2006" unicode="&#x2006;" horiz-adv-x="342" 
 />
    <glyph glyph-name="uni2007" unicode="&#x2007;" 
 />
    <glyph glyph-name="uni2008" unicode="&#x2008;" horiz-adv-x="0" 
 />
    <glyph glyph-name="uni2009" unicode="&#x2009;" horiz-adv-x="409" 
 />
    <glyph glyph-name="uni200A" unicode="&#x200a;" horiz-adv-x="256" 
 />
    <glyph glyph-name="uni2011" unicode="&#x2011;" horiz-adv-x="811" 
d="M174 700v103h465v-103h-465z" />
    <glyph glyph-name="figuredash" unicode="&#x2012;" horiz-adv-x="989" 
d="M156 700v103h675v-103h-675z" />
    <glyph glyph-name="endash" unicode="&#x2013;" horiz-adv-x="989" 
d="M156 700v103h675v-103h-675z" />
    <glyph glyph-name="emdash" unicode="&#x2014;" 
d="M41 700v103h901v-103h-901z" />
    <glyph glyph-name="afii00208" unicode="&#x2015;" 
d="M41 700v103h901v-103h-901z" />
    <glyph glyph-name="underscoredbl" unicode="&#x2017;" horiz-adv-x="798" 
d="M-43 -260v80h885v-80h-885zM-43 -420v80h885v-80h-885z" />
    <glyph glyph-name="quoteleft" unicode="&#x2018;" horiz-adv-x="303" 
d="M244 1462l-62 -467h-125l93 467h94z" />
    <glyph glyph-name="quoteright" unicode="&#x2019;" horiz-adv-x="303" 
d="M57 995l64 467h123l-90 -467h-97z" />
    <glyph glyph-name="quotesinglbase" unicode="&#x201a;" horiz-adv-x="303" 
d="M57 -293l64 467h123l-90 -467h-97z" />
    <glyph glyph-name="quotedblleft" unicode="&#x201c;" horiz-adv-x="602" 
d="M244 1462l-62 -467h-125l93 467h94zM543 1462l-64 -467h-123l93 467h94z" />
    <glyph glyph-name="quotedblright" unicode="&#x201d;" horiz-adv-x="602" 
d="M356 995l62 467h125l-92 -467h-95zM57 995l64 467h123l-90 -467h-97z" />
    <glyph glyph-name="quotedblbase" unicode="&#x201e;" horiz-adv-x="602" 
d="M356 -293l62 467h125l-92 -467h-95zM57 -293l64 467h123l-90 -467h-97z" />
    <glyph glyph-name="dagger" unicode="&#x2020;" 
d="M432 891h-307v102h307v469h119v-469h305v-102h-305v-1219h-119v1219z" />
    <glyph glyph-name="daggerdbl" unicode="&#x2021;" 
d="M432 891h-307v102h307v469h119v-469h305v-102h-305v-356h283v-103h-283v-760h-119v760h-287v103h287v356z" />
    <glyph glyph-name="bullet" unicode="&#x2022;" 
d="M494 1071q141 0 236 -92t95 -229q0 -138 -95 -230t-238 -92t-238 92q-94 92 -94 230t96 229q97 92 238 92z" />
    <glyph glyph-name="ellipsis" unicode="&#x2026;" horiz-adv-x="1427" 
d="M1130 0v176h121v-176h-121zM653 0v176h121v-176h-121zM178 0v176h121v-176h-121z" />
    <glyph glyph-name="perthousand" unicode="&#x2030;" horiz-adv-x="2107" 
d="M498 0l381 1462h110l-381 -1462h-110zM1929 285v204q0 211 -147 211t-148 -211v-204q0 -213 148 -213t147 213zM1530 281v213q0 152 60 222t192 68q132 0 191 -70q60 -70 61 -220v-213q0 -152 -60 -223q-60 -70 -192 -70q-131 0 -192 70q-60 71 -60 223zM1307 285v204
q1 211 -147 211t-148 -211v-204q0 -213 148 -213t147 213zM907 281v213q1 152 61 222t191 68q131 0 192 -69q60 -70 60 -221v-213q0 -152 -60 -223q-59 -70 -191 -70t-192 70t-61 223zM473 979v203q0 213 -146 213t-147 -213v-203q0 -111 36 -162t112 -51t110 51t35 162z
M76 975v211q0 152 60 222t190 71q130 0 191 -71q60 -71 61 -222v-211q0 -153 -60 -223t-191 -70t-191 70t-60 223z" />
    <glyph glyph-name="guilsinglleft" unicode="&#x2039;" horiz-adv-x="413" 
d="M199 604l153 -254l-69 -49l-215 303l215 305l69 -49z" />
    <glyph glyph-name="guilsinglright" unicode="&#x203a;" horiz-adv-x="413" 
d="M217 604l-154 256l70 49l215 -305l-215 -303l-70 49z" />
    <glyph glyph-name="uni203E" unicode="&#x203e;" horiz-adv-x="798" 
d="M-43 1667v90h885v-90h-885z" />
    <glyph glyph-name="fraction" unicode="&#x2044;" horiz-adv-x="266" 
d="M-102 0l381 1462h110l-381 -1462h-110z" />
    <glyph glyph-name="zerosuperior" unicode="&#x2070;" horiz-adv-x="643" 
d="M461 1081v297q0 217 -139 217t-140 -217v-297q0 -219 140 -219t139 219zM84 1075v307q0 152 57 224t181 72t180 -72q57 -72 57 -224v-307q0 -151 -57 -223t-180 -72q-122 0 -180 72t-58 223z" />
    <glyph glyph-name="foursuperior" unicode="&#x2074;" horiz-adv-x="638" 
d="M401 791v170h-338v61l265 645h104l-256 -625h225v238h91v-238h83v-84h-83v-167h-91z" />
    <glyph glyph-name="fivesuperior" unicode="&#x2075;" horiz-adv-x="632" 
d="M526 1667v-84h-297l-24 -276q63 29 125 28q115 -1 168 -67t53 -210t-59 -211t-187 -67q-231 0 -237 217l92 11q14 -143 145 -144q147 0 147 196t-135 195q-76 0 -137 -57l-74 12l37 457h383z" />
    <glyph glyph-name="sixsuperior" unicode="&#x2076;" horiz-adv-x="638" 
d="M457 1057q0 198 -135 198q-136 1 -136 -197t136 -198q72 0 104 47t31 150zM348 1333q115 0 168 -82q39 -59 39 -199t-55 -206t-178 -66t-179 65q-55 65 -55 208q0 75 10 117t49 118l191 379h117l-179 -344q35 10 72 10z" />
    <glyph glyph-name="sevensuperior" unicode="&#x2077;" horiz-adv-x="530" 
d="M29 1583v84h432v-59l-252 -817h-111l254 792h-323z" />
    <glyph glyph-name="eightsuperior" unicode="&#x2078;" horiz-adv-x="638" 
d="M467 1035q-1 91 -35 133t-111 42t-113 -41t-36 -133t35 -134t111 -42t113 42q36 42 36 133zM451 1443q-1 83 -31 119t-99 37q-69 -1 -101 -37t-32 -119t31 -120t101 -37t100 37q31 37 31 120zM320 1677q116 0 169 -55q53 -54 53 -154t-16 -142q-18 -42 -63 -71
q57 -27 80 -77t23 -163q0 -114 -59 -174q-57 -61 -187 -61t-188 60t-58 174t22 165q23 49 80 76q-45 27 -62 70q-18 43 -18 143t54 154q54 55 170 55z" />
    <glyph glyph-name="ninesuperior" unicode="&#x2079;" horiz-adv-x="638" 
d="M319 1597q-73 0 -105 -42t-32 -137t33 -138t102 -43q135 0 135 180t-133 180zM289 1159q-105 -1 -155 61t-50 197t55 197t177 63q122 0 178 -60t57 -192q0 -75 -9 -111t-42 -104l-205 -419h-117l191 378q-41 -10 -80 -10z" />
    <glyph glyph-name="zeroinferior" unicode="&#x2080;" horiz-adv-x="643" 
d="M461 84v299q0 217 -139 217t-140 -217v-299q0 -217 140 -217t139 217zM84 80v307q0 151 57 223t181 72t180 -72q57 -72 57 -223v-307q0 -152 -57 -224t-180 -71q-122 -1 -180 71t-58 224z" />
    <glyph glyph-name="oneinferior" unicode="&#x2081;" horiz-adv-x="503" 
d="M225 -205v772l-137 -63l-33 74l199 94h72v-877h-101z" />
    <glyph glyph-name="twoinferior" unicode="&#x2082;" horiz-adv-x="628" 
d="M74 -205v68l229 307q125 168 125 276q0 152 -127 152q-59 0 -92 -37t-45 -115l-94 9q12 117 68 172t165 55q225 0 225 -233q0 -80 -30 -150t-119 -190l-170 -230h317v-84h-452z" />
    <glyph glyph-name="threeinferior" unicode="&#x2083;" horiz-adv-x="628" 
d="M197 217v78h77q70 0 113 42t43 113q0 72 -35 110t-98 38q-113 0 -133 -133l-94 8q20 209 229 209q229 0 229 -231q0 -131 -104 -193q125 -61 125 -225q0 -248 -250 -248q-160 0 -217 100q-23 37 -29 115l94 12q14 -143 150 -143q74 0 114 43t40 124q1 81 -47 131t-123 50
h-84z" />
    <glyph glyph-name="fourinferior" unicode="&#x2084;" horiz-adv-x="638" 
d="M401 -205v170h-338v62l265 645h104l-256 -625h225v238h91v-238h83v-84h-83v-168h-91z" />
    <glyph glyph-name="fiveinferior" unicode="&#x2085;" horiz-adv-x="632" 
d="M526 672v-84h-297l-24 -277q66 29 125 29q115 0 168 -67t53 -211t-59 -210t-187 -67q-231 0 -237 217l92 10q14 -143 145 -143q147 -1 147 195t-135 196q-80 0 -137 -57l-74 12l37 457h383z" />
    <glyph glyph-name="sixinferior" unicode="&#x2086;" horiz-adv-x="638" 
d="M457 61q0 199 -135 199q-136 0 -136 -198t136 -197q72 0 104 47t31 149zM348 338q115 0 168 -82q39 -60 39 -200t-55 -206t-178 -66t-179 65q-55 65 -55 208q0 76 10 118t49 120l191 377h117l-179 -344q35 10 72 10z" />
    <glyph glyph-name="seveninferior" unicode="&#x2087;" horiz-adv-x="530" 
d="M29 588v84h432v-60l-252 -817h-111l254 793h-323z" />
    <glyph glyph-name="eightinferior" unicode="&#x2088;" horiz-adv-x="638" 
d="M467 40q-1 91 -35 133t-111 42t-113 -41t-36 -133t35 -134t111 -42t113 42q36 42 36 133zM451 448q-1 84 -31 120t-99 36t-101 -37t-32 -119t31 -120q31 -37 101 -37t100 37q31 37 31 120zM320 682q116 0 169 -55t53 -155t-16 -142q-18 -43 -63 -70q57 -27 80 -77
q23 -49 23 -163q-1 -234 -247 -235q-129 0 -187 59t-58 174t22 165q23 50 80 77q-45 27 -62 70q-18 42 -18 142t54 155t170 55z" />
    <glyph glyph-name="nineinferior" unicode="&#x2089;" horiz-adv-x="638" 
d="M319 602q-73 0 -105 -42t-32 -137t33 -138t102 -43q135 0 135 180t-133 180zM289 164q-106 0 -156 61q-49 61 -49 197t55 198t177 62t178 -60t57 -192q0 -74 -9 -111t-42 -104l-205 -420h-117l191 379q-41 -10 -80 -10z" />
    <glyph glyph-name="franc" unicode="&#x20a3;" horiz-adv-x="1296" 
d="M809 0v887h90l14 -139q39 86 88 122t125 35q76 0 156 -47l-49 -96q-57 45 -117 45q-100 1 -146 -103t-46 -335v-369h-115zM166 0v1462h592v-102h-473v-580h389v-102h-389v-678h-119z" />
    <glyph glyph-name="lira" unicode="&#x20a4;" 
d="M119 0v88q86 41 145 151t60 228q0 37 -5 65h-210v82h196q-18 70 -59 154h-137v82h102q-57 123 -57 250q0 180 95 280t268 100t262 -94t108 -294l-109 -19q-18 162 -80 234q-62 71 -178 71q-118 0 -182 -74t-64 -192t68 -262h354v-82h-315q25 -59 49 -154h266v-82h-260
q4 -31 4 -67q0 -207 -149 -363h616v-102h-788z" />
    <glyph glyph-name="peseta" unicode="&#x20a7;" 
d="M313 1065h441q-16 309 -287 297h-154v-297zM313 983v-303h152q273 -8 289 303h-441zM197 983h-164v82h164v397h268q389 12 405 -397h134v-82h-134q-18 -416 -405 -403h-150v-580h-118v983z" />
    <glyph glyph-name="uni20AB" unicode="&#x20ab;" 
d="M217 623v-222q0 -319 215 -319q229 0 230 354v146q0 354 -228 354q-217 0 -217 -313zM662 1180h-261v88h261v194h116v-194h140v-88h-140v-1180h-92l-10 109q-54 -72 -108 -100t-146 -27q-322 0 -322 419v224q0 209 79 310t241 101q121 0 192 -61q2 -2 50 -60v265z
M100 -348v90h746v-90h-746z" />
    <glyph glyph-name="Euro" unicode="&#x20ac;" 
d="M164 596v170h-160l31 82h129v113q0 264 84 380q100 137 282 137q358 1 375 -368l-114 -6q-18 272 -246 272q-137 0 -199 -98t-61 -317v-113h518l-33 -82h-485v-170h426l-31 -82h-395q2 -156 24 -244q51 -186 242 -186q115 0 181 67t75 191l108 -6q-8 -170 -103 -262
t-263 -92q-268 0 -348 237q-35 111 -37 295h-160l31 82h129z" />
    <glyph glyph-name="uni20B4" unicode="&#x20b4;" 
d="M840 1112q0 -172 -95 -278l164 -50l-20 -77l-211 63q-36 -29 -98 -52q-62 -22 -74 -27t-25 -9l-47 -16l-16 -7l430 -131l-21 -77l-505 153q-86 -80 -86 -227q0 -293 258 -293q108 0 180 47t92 131l104 -22q-59 -256 -381 -256q-180 0 -275 103t-95 300q0 82 16 136
t62 118l-144 43l21 80l190 -57q39 27 134 60t126 50l-409 123l20 78l481 -144q106 88 106 228t-58 208q-59 69 -168 68q-160 0 -213 -157l-105 24q68 233 322 234q162 1 251 -97t89 -270z" />
    <glyph glyph-name="uni2101" unicode="&#x2101;" horiz-adv-x="1472" 
d="M512 0l381 1462h100l-381 -1462h-100zM1151 74q80 0 125 43t45 117q0 98 -89 140q-22 10 -118 36q-197 54 -199 237q0 113 65 176t179 64q164 0 230 -111l-80 -51q-47 78 -150 78q-67 0 -105 -40t-38 -108q0 -67 40 -105t146 -68t146 -62q74 -59 74 -181t-69 -186
q-69 -63 -200 -63q-194 0 -266 133l82 47q53 -96 182 -96zM473 854l-145 473l-148 -473h293zM498 776h-340l-60 -190h-106l295 876h82l295 -876h-107z" />
    <glyph glyph-name="afii61248" unicode="&#x2105;" horiz-adv-x="1548" 
d="M516 0l381 1462h102l-381 -1462h-102zM1384 324v163q0 250 -194 250t-195 -250v-163q1 -250 195 -250t194 250zM895 322v167q0 334 295 334t295 -334v-167q0 -332 -295 -332t-295 332zM350 641q-287 0 -287 350v117q0 367 283 367q160 0 238 -127l-78 -45q-57 86 -156 86
q-186 0 -186 -287v-107q0 -268 190 -268q111 0 166 86l76 -47q-80 -125 -246 -125z" />
    <glyph glyph-name="afii61289" unicode="&#x2113;" horiz-adv-x="919" 
d="M698 1305q0 104 -59 104q-66 0 -111 -143t-104 -549q274 331 274 588zM125 334q-9 0 -19 13t-10 31t58 70t141 148q51 358 97 550t102 272q56 81 132 81q74 0 114 -52t40 -134q0 -217 -153 -453q-76 -119 -217 -268q-52 -346 -52 -437t60 -92q40 0 64 25q24 26 54 88
t58 62q27 0 27 -31q0 -68 -70 -152t-156 -84q-139 0 -139 187q0 96 23 282l4 39q-51 -57 -99 -101t-59 -44z" />
    <glyph glyph-name="afii61352" unicode="&#x2116;" horiz-adv-x="1951" 
d="M1245 0v98h598v-98h-598zM1729 666v116q0 274 -183 275q-186 0 -186 -275v-116q0 -270 186 -271q183 1 183 271zM1245 662v126q0 367 299 367t299 -367v-126q0 -365 -299 -365t-299 365zM184 0v1462h117l629 -1226v1226h117v-1462h-115l-631 1229v-1229h-117z" />
    <glyph glyph-name="trademark" unicode="&#x2122;" horiz-adv-x="1478" 
d="M680 586v876h94l242 -569l239 569h95v-876h-95v661l-206 -491h-68l-207 491v-661h-94zM252 586v792h-225v84h544v-84h-221v-792h-98z" />
    <glyph glyph-name="uni2126" unicode="&#x2126;" horiz-adv-x="1150" 
d="M874 969q0 411 -299 409q-164 0 -243 -125q-57 -94 -58 -284v-320q-10 -367 218 -426v-223h-359v90h260v66q-121 47 -182 171t-57 314v342q0 498 421 498q227 0 340 -158q80 -115 80 -340v-342q6 -389 -239 -485v-66h260v-90h-357v223q225 59 215 426v320z" />
    <glyph glyph-name="estimated" unicode="&#x212e;" horiz-adv-x="1021" 
d="M793 748v266q-66 285 -277 284q-98 0 -158 -63t-110 -219v-268h545zM248 672v-303q31 -119 61 -176q66 -123 211 -123q203 0 289 266h84q-33 -131 -82 -199q-109 -155 -301 -155t-302 182t-110 510t114 519t308 191q127 0 223 -87q95 -87 139 -234t46 -391h-680z" />
    <glyph glyph-name="onethird" unicode="&#x2153;" horiz-adv-x="1527" 
d="M1034 422v78h78q70 0 113 42t43 112t-35 110q-35 39 -98 39q-113 0 -134 -133l-94 8q20 209 230 209q229 0 229 -232q0 -131 -104 -192q125 -61 124 -227q0 -246 -247 -246q-162 0 -219 100q-23 41 -29 115l94 12q14 -143 150 -143q73 0 113 43t40 124t-47 131t-123 50
h-84zM432 0l379 1462h113l-381 -1462h-111zM283 586v770l-140 -64l-34 78l202 92h72v-876h-100z" />
    <glyph glyph-name="twothirds" unicode="&#x2154;" horiz-adv-x="1527" 
d="M514 0l381 1462h111l-381 -1462h-111zM1092 422v78h77q70 0 113 42t43 112t-36 109q-36 40 -97 40q-115 0 -133 -133l-94 8q20 209 227 209q231 0 231 -232q0 -131 -104 -192q125 -61 125 -227q0 -246 -250 -246q-119 0 -177 51t-69 164l92 12q18 -143 152 -143
q72 0 113 43t41 124t-48 131t-122 50h-84zM80 586v67l229 308q125 170 125 276q0 152 -127 152q-59 0 -92 -37t-45 -115l-94 8q12 117 68 172t165 56q225 0 226 -234q0 -82 -31 -152t-119 -188l-170 -229h317v-84h-452z" />
    <glyph glyph-name="uni2155" unicode="&#x2155;" horiz-adv-x="1527" 
d="M1356 877v-84h-297l-25 -277q59 29 123 29q115 0 169 -67t54 -211t-59 -211t-186 -66q-225 0 -240 217l94 10q14 -143 146 -143q147 0 147 196t-137 195q-74 0 -135 -57l-74 14l37 455h383zM432 0l381 1462h111l-381 -1462h-111zM291 586v770l-139 -64l-35 78l202 92h72
v-876h-100z" />
    <glyph glyph-name="uni2156" unicode="&#x2156;" horiz-adv-x="1527" 
d="M522 0l379 1462h113l-381 -1462h-111zM1415 877v-84h-297l-24 -277q59 29 123 29q115 0 169 -68t54 -211t-60 -210t-186 -66q-225 0 -240 217l95 10q14 -143 145 -143q147 0 147 196t-137 195q-74 0 -135 -57l-74 14l37 455h383zM84 586v67l229 308q125 170 125 276
q0 152 -127 152q-59 0 -92 -37t-45 -115l-94 8q12 117 68 172t165 56q225 0 226 -234q0 -82 -31 -152t-119 -188l-170 -229h318v-84h-453z" />
    <glyph glyph-name="uni2157" unicode="&#x2157;" horiz-adv-x="1527" 
d="M526 0l381 1462h111l-381 -1462h-111zM1417 877v-84h-297l-24 -277q57 29 125 29q115 0 168 -68t53 -211t-60 -210t-186 -66q-225 0 -238 217l93 10q18 -143 145 -143q147 0 147 196t-137 195q-74 0 -135 -57l-74 14l37 455h383zM213 1008v77h78q71 0 113 43t42 113
t-34 110q-35 40 -99 40q-113 0 -133 -136l-94 9q20 209 229 209q229 0 230 -232q0 -131 -105 -192q125 -61 125 -226q0 -248 -250 -248q-160 0 -217 101q-20 33 -28 115l94 12q14 -143 149 -144q74 0 114 43t40 124t-47 131t-123 51h-84z" />
    <glyph glyph-name="uni2158" unicode="&#x2158;" horiz-adv-x="1527" 
d="M530 0l379 1462h113l-381 -1462h-111zM1417 877v-84h-297l-24 -277q59 29 125 29q115 0 168 -68t53 -211t-60 -210t-186 -66q-225 0 -238 217l93 10q18 -143 145 -143q147 0 147 196t-135 195q-76 0 -137 -57l-74 14l37 455h383zM410 586v170h-338v61l264 645h104
l-256 -624h226v237h90v-237h84v-84h-84v-168h-90z" />
    <glyph glyph-name="uni2159" unicode="&#x2159;" horiz-adv-x="1527" 
d="M1268 268q0 198 -135 197q-135 0 -135 -198t135 -197q135 0 135 198zM1366 266q0 -143 -55 -210q-55 -66 -181 -66t-186 76q-45 57 -45 198q0 76 10 115t52 119l190 379h115l-179 -345q35 10 72 11q107 0 157 -67t50 -210zM455 0l381 1462h110l-381 -1462h-110zM293 586
v770l-139 -64l-35 78l203 92h71v-876h-100z" />
    <glyph glyph-name="uni215A" unicode="&#x215a;" horiz-adv-x="1527" 
d="M530 0l381 1462h111l-381 -1462h-111zM1309 266q0 199 -135 199q-136 1 -136 -197t136 -198q72 0 104 47t31 149zM1407 270q0 -150 -55 -216t-178 -64q-123 0 -179 64q-55 65 -55 208q0 74 10 115t51 121l191 379h115l-179 -345q39 10 74 11q205 0 205 -273zM535 1462
v-84h-297l-25 -276q59 29 125 28q115 0 168 -66t53 -211q0 -144 -59 -211t-187 -67q-231 0 -237 218l92 10q14 -143 145 -144q147 0 147 196t-134 196q-76 0 -138 -58l-73 15l37 454h383z" />
    <glyph glyph-name="oneeighth" unicode="&#x215b;" horiz-adv-x="1527" 
d="M1157 420q-78 0 -113 -41q-34 -41 -34 -133t34 -134t112 -42q77 0 113 42t36 133t-35 133t-113 42zM1159 809q-69 0 -101 -37t-32 -120t31 -120q31 -36 99 -36t100 38t32 119q0 156 -129 156zM934 677q0 208 223 209q223 0 223 -210q0 -100 -18 -140q-18 -42 -64 -71
q57 -29 81 -78t24 -163q0 -234 -246 -234q-131 0 -188 59t-57 173t22 164q23 50 80 79q-45 27 -63 70q-17 43 -17 142zM440 0l379 1462h113l-381 -1462h-111zM291 586v770l-139 -64l-35 78l202 92h72v-876h-100z" />
    <glyph glyph-name="threeeighths" unicode="&#x215c;" horiz-adv-x="1527" 
d="M524 0l381 1462h111l-381 -1462h-111zM1210 420q-78 0 -112 -41t-35 -134q0 -93 35 -134q36 -41 112 -41t112 42t36 133t-35 133t-113 42zM1212 809q-70 0 -102 -37t-31 -120q0 -83 31 -120q30 -36 100 -36t101 36t30 121q0 156 -129 156zM1210 -10q-130 0 -188 60
q-57 60 -57 174t23 163q24 49 81 78q-45 27 -63 69t-18 142q-1 209 222 211q222 1 224 -211q0 -100 -18 -142t-62 -69q57 -29 80 -78q22 -49 22 -163t-58 -174t-188 -60zM225 1008v77h78q70 0 113 43t43 113t-35 110t-98 40q-113 0 -133 -136l-95 9q20 209 230 209
q229 0 229 -232q0 -131 -104 -192q125 -61 125 -226q0 -248 -250 -248q-160 0 -217 101q-20 33 -29 115l94 12q14 -143 150 -144q74 0 114 43t39 124q0 81 -47 131t-123 51h-84z" />
    <glyph glyph-name="fiveeighths" unicode="&#x215d;" horiz-adv-x="1527" 
d="M526 0l381 1462h111l-381 -1462h-111zM1216 70q76 0 112 42t36 133t-34 133t-112 42q-77 0 -113 -41t-36 -133t35 -134t112 -42zM1219 809q-70 0 -102 -37t-32 -120t31 -120q31 -36 100 -36q68 0 100 38t32 119q0 156 -129 156zM1217 -10q-129 0 -188 59q-58 59 -58 173
t22 164q23 50 80 79q-45 27 -62 70t-17 142q-1 208 223 210q221 1 223 -211q0 -100 -18 -142t-64 -69q57 -29 81 -78q23 -49 23 -163t-58 -174t-187 -60zM551 1462v-84h-297l-25 -276q59 29 125 28q115 0 168 -66t53 -211q0 -144 -59 -211t-186 -67q-231 0 -238 218l92 10
q14 -143 146 -144q147 0 147 196t-135 196q-76 0 -137 -58l-74 15l37 454h383z" />
    <glyph glyph-name="seveneighths" unicode="&#x215e;" horiz-adv-x="1527" 
d="M492 0l380 1462h111l-379 -1462h-112zM1189 70q77 0 111 42t35 133q-1 91 -35 133t-111 42t-112 -41t-35 -133t35 -134t112 -42zM1190 809q-70 0 -100 -37t-31 -120q0 -83 31 -120q32 -36 100 -36t98 38t31 119q0 156 -129 156zM967 677q0 208 222 209q222 2 222 -210
q0 -100 -17 -142t-63 -69q57 -29 80 -78t23 -163q0 -234 -244 -234q-131 0 -189 60q-57 60 -57 174t23 163t80 78q-45 27 -63 70q-17 43 -17 142zM133 1378v84h447v-59l-267 -817h-110l268 792h-338z" />
    <glyph glyph-name="arrowleft" unicode="&#x2190;" horiz-adv-x="1638" 
d="M1497 700h-1223l400 -397l-74 -74l-496 500v45l496 500l74 -72l-400 -399h1223v-103z" />
    <glyph glyph-name="arrowup" unicode="&#x2191;" horiz-adv-x="1638" 
d="M723 0v1309l-397 -398l-74 74l502 494h45l499 -494l-73 -74l-396 398v-1309h-106z" />
    <glyph glyph-name="arrowright" unicode="&#x2192;" horiz-adv-x="1638" 
d="M141 700v103h1223l-399 399l73 72l496 -500v-45l-496 -500l-73 74l399 397h-1223z" />
    <glyph glyph-name="arrowdown" unicode="&#x2193;" horiz-adv-x="1638" 
d="M723 1462h106v-1308l396 397l73 -74l-499 -493h-45l-502 493l74 74l397 -397v1308z" />
    <glyph glyph-name="arrowboth" unicode="&#x2194;" horiz-adv-x="1638" 
d="M1380 700h-1124l379 -378l-74 -74l-475 481v45l475 481l74 -73l-379 -379h1124l-379 379l74 73l475 -481v-45l-475 -481l-74 74z" />
    <glyph glyph-name="arrowupdn" unicode="&#x2195;" horiz-adv-x="1638" 
d="M725 137v1188l-379 -379l-74 74l482 475h45l481 -475l-74 -74l-377 379v-1188l377 379l74 -74l-481 -475h-45l-482 475l74 74z" />
    <glyph glyph-name="uni2196" unicode="&#x2196;" horiz-adv-x="1638" 
d="M410 535h-105v702l37 37h705v-105h-564l877 -876l-74 -72l-876 875v-561z" />
    <glyph glyph-name="uni2197" unicode="&#x2197;" horiz-adv-x="1638" 
d="M592 1169v105h702l39 -37v-702h-104v561l-877 -875l-73 72l876 876h-563z" />
    <glyph glyph-name="uni2198" unicode="&#x2198;" horiz-adv-x="1638" 
d="M1229 971h104v-703l-39 -37h-702v105h563l-876 874l71 74l879 -874v561z" />
    <glyph glyph-name="uni2199" unicode="&#x2199;" horiz-adv-x="1638" 
d="M1047 336v-105h-705l-37 37v703h105v-561l876 874l74 -74l-877 -874h564z" />
    <glyph glyph-name="partialdiff" unicode="&#x2202;" 
d="M721 393v221q0 162 -55 239t-174 77q-118 0 -174 -77t-56 -239v-221q0 -163 55 -239t175 -76t174 76q55 76 55 239zM147 393v221q0 412 324 412q121 0 195 -65q-100 362 -390 430l15 79q244 -29 388 -259t157 -611v-207q0 -211 -84 -311t-260 -100t-261 100
q-84 100 -84 311z" />
    <glyph glyph-name="emptyset" unicode="&#x2205;" 
d="M799 764q0 170 -125 293l-299 -649q61 -18 110 -19q137 1 225 103t89 272zM162 760q0 -203 141 -318l301 656q-74 27 -135 26q-133 0 -220 -103t-87 -261zM891 758q0 -201 -114 -327t-294 -126q-70 0 -143 23l-180 -391l-74 30l180 393q-197 127 -196 396q0 200 114 326
t289 126q74 1 166 -30l162 352l73 -29l-163 -360q180 -127 180 -383z" />
    <glyph glyph-name="Delta" unicode="&#x2206;" 
d="M834 100l-340 1182l-340 -1182h680zM995 0h-1003l450 1462h103z" />
    <glyph glyph-name="product" unicode="&#x220f;" horiz-adv-x="1038" 
d="M137 -424v1886h766v-1886h-119v1782h-528v-1782h-119z" />
    <glyph glyph-name="summation" unicode="&#x2211;" horiz-adv-x="1013" 
d="M141 -424v66l363 940l-346 807v73h766v-102h-625l336 -778l-342 -904h649v-102h-801z" />
    <glyph glyph-name="minus" unicode="&#x2212;" 
d="M84 702v99h815v-99h-815z" />
    <glyph glyph-name="uni2215" unicode="&#x2215;" horiz-adv-x="266" 
d="M-102 0l381 1462h110l-381 -1462h-110z" />
    <glyph glyph-name="uni2218" unicode="&#x2218;" 
d="M748 752q0 106 -74 176t-183 71q-110 -1 -184 -71t-74 -176t73 -179q73 -71 184 -71q110 0 184 72t74 178zM492 1075q143 0 239 -93t96 -232q0 -138 -96 -232t-240 -94t-241 93q-96 93 -96 233t97 232q98 93 241 93z" />
    <glyph glyph-name="uni2219" unicode="&#x2219;" horiz-adv-x="473" 
d="M178 664v174h121v-174h-121z" />
    <glyph glyph-name="radical" unicode="&#x221a;" 
d="M72 629v100h219l147 -577l355 1605h419v-90h-327l-379 -1667h-123l-178 629h-133z" />
    <glyph glyph-name="infinity" unicode="&#x221e;" horiz-adv-x="1335" 
d="M954 547q82 0 132 57q50 56 50 148t-50 149t-132 57q-131 0 -227 -184l-10 -20l12 -23q96 -184 225 -184zM370 958q-73 0 -123 -57t-50 -148t50 -149t132 -57q129 0 227 184l10 23l-10 20q-92 184 -236 184zM358 457q-112 0 -186 81t-74 215t74 215t201 81t215 -95
q27 -29 80 -120q57 100 92 133q82 82 205 82t197 -81t73 -215q0 -134 -74 -215q-75 -81 -201 -81t-215 94q-20 23 -77 121l-13 -19q-55 -98 -119 -147q-66 -49 -178 -49z" />
    <glyph glyph-name="integral" unicode="&#x222b;" horiz-adv-x="722" 
d="M354 1264q0 176 33 249q43 106 180 107q49 0 105 -16l-21 -97q-37 14 -65 15q-66 0 -90 -49t-25 -185v-1141q0 -176 -33 -251q-47 -104 -182 -105q-51 0 -102 14l20 97q37 -12 64 -13q70 1 94 51t22 191v1133z" />
    <glyph glyph-name="similar" unicode="&#x223c;" 
d="M874 842q-66 -221 -202 -221q-64 0 -98 16q-34 17 -97 69t-92 67t-61 15q-89 1 -138 -153l-77 18q61 227 201 229q64 0 103 -16q38 -18 101 -69t91 -67t67 -15q38 0 68 35t57 114z" />
    <glyph glyph-name="uni2243" unicode="&#x2243;" 
d="M866 991q-70 -221 -202 -221q-64 0 -98 16t-98 68t-92 68q-28 14 -61 14q-86 0 -137 -154l-78 21q66 227 200 227q66 0 106 -17t100 -67q61 -50 90 -66q29 -15 59 -16q86 0 133 150zM98 563v96h768v-96h-768z" />
    <glyph glyph-name="approxequal" unicode="&#x2248;" 
d="M874 991q-66 -221 -202 -221q-64 0 -98 16t-97 68t-91 68q-28 14 -62 14q-91 0 -138 -154l-77 21q67 227 201 227q66 0 104 -17q39 -17 101 -69t90 -65q28 -15 67 -15q38 0 68 35t57 115zM874 692q-66 -221 -200 -221q-64 0 -99 16q-35 15 -99 69t-92 68t-60 15
q-89 0 -138 -154l-77 19q67 229 201 229q66 0 103 -17q38 -18 101 -70t91 -66t67 -14q38 0 68 34q30 35 57 115z" />
    <glyph glyph-name="notequal" unicode="&#x2260;" 
d="M106 563v96h295l74 183h-369v96h406l98 254l90 -35l-82 -219h256v-96h-294l-74 -183h368v-96h-407l-96 -254l-90 35l81 219h-256z" />
    <glyph glyph-name="lessequal" unicode="&#x2264;" 
d="M109 59v99h704v-99h-704zM225 760l588 -318v-114l-719 399v66l719 399v-113z" />
    <glyph glyph-name="greaterequal" unicode="&#x2265;" 
d="M168 59v99h706v-99h-706zM756 760l-588 319v113l719 -399v-66l-719 -399v114z" />
    <glyph glyph-name="dotmath" unicode="&#x22c5;" horiz-adv-x="473" 
d="M178 664v174h121v-174h-121z" />
    <glyph glyph-name="filledrect" unicode="&#x25ac;" 
d="M186 444v611h611v-611h-611z" />
    <glyph glyph-name="uni25B4" unicode="&#x25b4;" 
d="M125 434l367 731l366 -731h-733z" />
    <glyph glyph-name="uni25B8" unicode="&#x25b8;" 
d="M195 383v733l731 -366z" />
    <glyph glyph-name="uni25BE" unicode="&#x25be;" 
d="M125 1065h733l-366 -731z" />
    <glyph glyph-name="uni25C2" unicode="&#x25c2;" 
d="M788 383l-731 367l731 366v-733z" />
    <glyph glyph-name="lozenge" unicode="&#x25ca;" 
d="M162 709l330 -570l329 570l-329 569zM37 709l455 764l454 -764l-454 -764z" />
    <glyph glyph-name="openbullet" unicode="&#x25e6;" 
d="M748 752q0 106 -74 176t-183 71q-110 -1 -184 -71t-74 -176t73 -179q73 -71 184 -71q110 0 184 72t74 178zM492 1075q143 0 239 -93t96 -232q0 -138 -96 -232t-240 -94t-241 93q-96 93 -96 233t97 232q98 93 241 93z" />
    <glyph glyph-name="commaaccent" unicode="&#xf6c3;" horiz-adv-x="1024" 
d="M410 -438l90 288h127l-135 -288h-82z" />
    <glyph glyph-name="Acute" unicode="&#xf6c9;" horiz-adv-x="1024" 
d="M434 1626l125 281h146l-183 -281h-88z" />
    <glyph glyph-name="Caron" unicode="&#xf6ca;" horiz-adv-x="1024" 
d="M512 1724l121 168h129l-213 -256h-72l-213 256h127z" />
    <glyph glyph-name="Dieresis" unicode="&#xf6cb;" horiz-adv-x="1024" 
d="M627 1645v192h106v-192h-106zM293 1645v192h106v-192h-106z" />
    <glyph glyph-name="Grave" unicode="&#xf6ce;" horiz-adv-x="1024" 
d="M594 1626h-88l-182 281h145z" />
    <glyph glyph-name="Hungarumlaut" unicode="&#xf6cf;" horiz-adv-x="1024" 
d="M567 1626l101 281h133l-150 -281h-84zM350 1626l101 281h133l-150 -281h-84z" />
    <glyph glyph-name="Macron" unicode="&#xf6d0;" horiz-adv-x="1024" 
d="M303 1716v86h420v-86h-420z" />
    <glyph glyph-name="zerooldstyle" unicode="&#xf730;" horiz-adv-x="946" 
d="M692 399v283q0 168 -52 243t-168 75t-168 -74t-52 -242v-287q0 -167 52 -241t168 -74t168 74t52 243zM133 387v309q0 403 338 404q340 0 340 -402v-313q0 -403 -340 -403q-338 -1 -338 405z" />
    <glyph glyph-name="oneoldstyle" unicode="&#xf731;" horiz-adv-x="600" 
d="M262 0v952l-221 -112l-43 96l299 147h86v-1083h-121z" />
    <glyph glyph-name="twooldstyle" unicode="&#xf732;" horiz-adv-x="811" 
d="M41 0v82l336 360q199 213 198 355q0 203 -202 202q-97 0 -149 -51t-66 -160l-109 15q37 297 328 297q151 0 233 -78t82 -221q0 -99 -48 -187t-187 -237l-258 -277h510v-100h-668z" />
    <glyph glyph-name="threeoldstyle" unicode="&#xf733;" horiz-adv-x="862" 
d="M240 377v100h116q113 0 181 74q67 74 67 196q0 121 -53 187t-141 66q-175 -1 -205 -179l-109 17q51 262 312 262q152 0 234 -90t83 -258q0 -236 -193 -324q236 -84 236 -360q0 -193 -99 -295q-99 -103 -296 -103t-283 127q-35 47 -45 140l111 22q4 -88 64 -138t161 -50
q139 0 203 87t63 219q0 132 -78 216t-204 84h-125z" />
    <glyph glyph-name="fouroldstyle" unicode="&#xf734;" horiz-adv-x="843" 
d="M567 -313v313h-534v78l409 1005h127l-403 -983h401v484h111v-484h139v-100h-139v-313h-111z" />
    <glyph glyph-name="fiveoldstyle" unicode="&#xf735;" horiz-adv-x="942" 
d="M764 1083v-102h-455l-43 -498q100 63 211 64q330 0 330 -438t-379 -439q-203 0 -291 127q-33 47 -45 140l113 22q2 -88 62 -138t173 -50t180 87t66 255q0 336 -233 336q-119 0 -217 -97l-86 19l57 712h557z" />
    <glyph glyph-name="sixoldstyle" unicode="&#xf736;" horiz-adv-x="956" 
d="M486 795q-118 0 -173 -88q-55 -89 -55 -275t54 -269t173 -83t172 84t53 271t-52 273q-54 86 -172 87zM518 891q172 0 254 -135q59 -98 59 -333q-1 -235 -87 -339t-268 -102q-182 0 -269 127q-70 92 -70 319q0 119 20 203q19 84 72 192l293 600h135l-286 -571
q82 39 147 39z" />
    <glyph glyph-name="sevenoldstyle" unicode="&#xf737;" horiz-adv-x="681" 
d="M-27 981v102h633v-73l-383 -1323h-129l387 1294h-508z" />
    <glyph glyph-name="eightoldstyle" unicode="&#xf738;" 
d="M737 392q0 162 -57 236q-57 72 -187 72t-189 -70q-58 -71 -58 -236q0 -166 57 -240t187 -74t189 75q58 75 58 237zM490 1346q-110 0 -158 -65q-49 -65 -49 -210t49 -211t160 -66q112 0 160 66t48 210t-50 210t-160 66zM166 1073q0 189 79 279t247 90t246 -89t79 -280
q0 -133 -35 -206t-116 -111q104 -41 148 -123t44 -240q0 -217 -91 -314t-283 -97t-287 118q-72 90 -72 272t44 263q44 82 148 121q-83 40 -117 112t-34 205z" />
    <glyph glyph-name="nineoldstyle" unicode="&#xf739;" horiz-adv-x="956" 
d="M473 1001q-119 0 -172 -85t-53 -272t52 -272t171 -85t174 87t55 273t-54 270t-173 84zM438 190q-172 0 -252 136q-59 98 -59 332t88 338t266 104t271 -127q70 -91 70 -313t-93 -400l-293 -575h-135l287 544q-98 -39 -150 -39z" />
    <glyph glyph-name="Dbreve" horiz-adv-x="1169" 
d="M554 1714q70 0 102 37q30 37 38 131h86q-6 -113 -28 -158q-47 -100 -203 -100t-201 115q-14 41 -20 143h84q8 -92 40 -130t102 -38zM313 1360v-1258h244q334 -8 330 394v471q4 401 -330 393h-244zM193 0v1462h376q219 2 331 -120t108 -359v-504q4 -237 -108 -359
t-331 -120h-376z" />
    <glyph glyph-name="ahungarumlaut" horiz-adv-x="911" 
d="M512 1194l100 279h133l-149 -279h-84zM295 1194l100 279h133l-149 -279h-84zM637 489h-197q-129 0 -183 -49t-54 -161q0 -113 48 -155t182 -42t179 74q25 41 25 143v190zM637 584v90q0 144 -45 204q-44 60 -140 60t-143 -38t-76 -126l-100 31q61 231 305 231
q201 0 273 -127q43 -74 43 -245v-664h-95l-10 74q-41 -52 -96 -72t-156 -20q-169 0 -239 66t-70 232q0 164 76 234t260 70h213z" />
    <glyph glyph-name="uni0204.sc" horiz-adv-x="821" 
d="M383 1245h-84l-149 279h133zM600 1245h-86l-147 279h133zM147 0v1083h566v-100h-447v-387h379v-100h-379v-396h447v-100h-566z" />
    <glyph glyph-name="uni0206.sc" horiz-adv-x="823" 
d="M676 1260h-86q-6 92 -38 130t-102 38t-103 -38q-32 -36 -40 -130h-84q4 111 27 159q49 101 205 101t200 -117q15 -37 21 -143zM174 0v1083h565v-100h-446v-387h379v-100h-379v-396h446v-100h-565z" />
    <glyph glyph-name="uni0208.sc" horiz-adv-x="464" 
d="M176 1245h-84l-149 281h133zM393 1245h-86l-147 281h133zM172 0v1083h119v-1083h-119z" />
    <glyph glyph-name="uni020A.sc" horiz-adv-x="464" 
d="M459 1260h-86q-6 92 -38 130t-103 38q-70 0 -102 -38q-32 -36 -40 -130h-84q6 111 27 159q49 101 205 101t200 -117q15 -37 21 -143zM172 0v1083h119v-1083h-119z" />
    <glyph glyph-name="uni020C.sc" horiz-adv-x="966" 
d="M418 1245h-84l-150 279h133zM635 1245h-86l-148 279h134zM694 381v319q0 156 -53 228t-168 72t-168 -72t-53 -228v-319q0 -153 53 -225t168 -72t168 72t53 225zM133 713q0 385 340 387q186 0 277 -123q63 -90 63 -264v-344q0 -385 -340 -385t-340 385v344z" />
    <glyph glyph-name="uni020E.sc" horiz-adv-x="966" 
d="M709 1260h-86q-6 92 -38 130t-103 38q-70 0 -102 -38q-32 -36 -40 -130h-84q4 111 27 159q49 101 205 101t200 -117q15 -37 21 -143zM705 381v319q1 156 -53 228t-169 72t-168 -72t-53 -228v-319q0 -153 53 -225t168 -72t169 72t53 225zM143 713q0 385 340 387
q186 0 277 -123q63 -90 63 -264v-344q0 -385 -340 -385t-340 385v344z" />
    <glyph glyph-name="uni0210.sc" horiz-adv-x="935" 
d="M377 1245h-84l-150 281h133zM594 1245h-86l-148 281h134zM291 567h190q109 0 159 50q50 49 50 157t-52 160t-163 51h-184v-418zM479 1083q330 -1 330 -287q0 -142 -47 -210t-156 -99l219 -487h-131l-198 471h-203v-471h-119v1083h305z" />
    <glyph glyph-name="uni0212.sc" horiz-adv-x="935" 
d="M668 1260h-86q-6 92 -38 130t-103 38t-103 -38q-32 -36 -39 -130h-84q4 111 27 159q48 101 204 101t201 -117q15 -37 21 -143zM291 567h190q106 0 157 50q50 50 50 159t-51 159t-162 50h-184v-418zM479 1083q328 -1 328 -287q0 -142 -47 -210q-47 -70 -156 -99l221 -487
h-129l-202 471h-201v-471h-119v1083h305z" />
    <glyph glyph-name="uni0214.sc" horiz-adv-x="997" 
d="M428 1245h-84l-149 279h133zM645 1245h-86l-147 279h133zM154 1083h118v-739q0 -127 35 -178q55 -82 182 -82t181 94q27 51 26 166v739h119v-739q0 -100 -12 -154t-47 -98q-88 -108 -278 -108t-277 127q-47 72 -47 233v739z" />
    <glyph glyph-name="uni0216.sc" horiz-adv-x="997" 
d="M725 1260h-86q-6 92 -38 130q-33 38 -103 38t-102 -38q-32 -36 -40 -130h-84q4 111 27 159q49 101 205 101t201 -117q14 -37 20 -143zM168 1083h119v-739q0 -127 35 -178q55 -82 182 -82t180 94q27 51 27 166v739h118v-739q0 -100 -12 -154t-47 -98q-88 -108 -278 -108
t-277 127q-47 72 -47 233v739z" />
    <glyph glyph-name="uni1E24.sc" horiz-adv-x="989" 
d="M434 -383v193h115v-193h-115zM172 0v1083h119v-487h403v487h119v-1083h-119v496h-403v-496h-119z" />
    <glyph glyph-name="uni1E5A.sc" horiz-adv-x="935" 
d="M430 -383v193h115v-193h-115zM291 567h190q106 0 157 50q50 50 50 159t-51 159t-162 50h-184v-418zM479 1083q328 -1 328 -287q0 -142 -47 -210q-47 -70 -156 -99l221 -487h-129l-202 471h-201v-471h-119v1083h305z" />
    <glyph glyph-name="uni1E62.sc" horiz-adv-x="815" 
d="M348 -383v193h115v-193h-115zM401 84q217 0 217 207q0 98 -57 145q-27 20 -51 30t-150 45q-124 34 -188 104q-63 71 -63 200t78 207q79 78 219 78q231 0 292 -217l-104 -31q-31 82 -73 115q-41 33 -121 33t-128 -50q-48 -49 -47 -136q0 -87 48 -134q47 -47 159 -79
t146 -45t65 -40q92 -68 92 -220t-85 -232t-240 -80q-279 -1 -332 239l108 27q35 -166 215 -166z" />
    <glyph glyph-name="uni1E6C.sc" horiz-adv-x="724" 
d="M303 -383v193h115v-193h-115zM305 0v983h-270v100h653v-100h-264v-983h-119z" />
    <glyph glyph-name="uni1E92.sc" horiz-adv-x="741" 
d="M317 -383v193h115v-193h-115zM66 0v78l444 905h-416v100h547v-77l-442 -906h463v-100h-596z" />
    <glyph glyph-name="uni1E44.sc" horiz-adv-x="1042" 
d="M473 1264v192h115v-192h-115zM172 0v1083h113l469 -862v862h112v-1083h-104l-477 870v-870h-113z" />
    <glyph glyph-name="uni1E0C.sc" horiz-adv-x="974" 
d="M385 -383v193h115v-193h-115zM291 98h170q131 -2 190 66t60 225v307q1 156 -59 224t-191 65h-170v-887zM172 0v1083h297q368 8 360 -376v-330q8 -385 -360 -377h-297z" />
    <glyph glyph-name="uni1E02.sc" horiz-adv-x="927" 
d="M375 1264v192h114v-192h-114zM291 100h227q188 0 188 204t-180 204h-235v-408zM291 606h217q180 0 180 188t-188 189h-209v-377zM172 0v1083h332q158 1 230 -73t73 -207q0 -164 -123 -238q141 -80 141 -274q0 -154 -88 -232q-68 -59 -205 -59h-360z" />
    <glyph glyph-name="idotaccent" horiz-adv-x="444" 
d="M164 0v1018h117v-1018h-117zM164 1272v194h117v-194h-117z" />
    <glyph glyph-name="one.fitted" horiz-adv-x="600" 
d="M262 0v1331l-221 -110l-43 94l299 147h86v-1462h-121z" />
    <glyph glyph-name="two.fitted" horiz-adv-x="878" 
d="M49 0v82l359 528q112 170 156 286t44 222q0 260 -209 260q-96 0 -154 -66t-73 -194l-111 4q9 174 99 266t246 93q156 0 241 -93q84 -93 84 -249t-48 -274t-191 -333l-287 -430h532v-102h-688z" />
    <glyph glyph-name="three.fitted" horiz-adv-x="847" 
d="M225 719v100h115q112 0 180 78t68 207t-58 201q-58 71 -159 71q-203 -1 -230 -231l-110 4q10 160 98 245t247 85q159 1 247 -97t88 -280q0 -242 -197 -332q231 -90 231 -383q0 -197 -96 -300t-278 -103q-231 0 -324 163q-39 68 -47 181l115 8q9 -122 73 -186t184 -64
t186 78t65 226q0 148 -76 239q-76 90 -201 90h-121z" />
    <glyph glyph-name="four.fitted" horiz-adv-x="956" 
d="M610 0v279h-526v75l416 1108h127l-406 -1081h389v481h113v-481h133v-105h-133v-276h-113z" />
    <glyph glyph-name="five.fitted" horiz-adv-x="954" 
d="M776 1462v-102h-465l-43 -531q72 41 110 53t101 13q172 0 254 -111t82 -340t-88 -345q-88 -115 -295 -115t-299 163q-37 68 -45 181l115 8q8 -118 70 -184t171 -66q248 0 248 344q0 193 -55 279t-176 86t-221 -95l-88 19l57 743h567z" />
    <glyph glyph-name="six.fitted" horiz-adv-x="958" 
d="M486 793q-118 0 -173 -87q-55 -86 -55 -272t54 -268t173 -82t172 83t54 269t-53 272t-172 85zM518 891q176 0 254 -135q59 -98 59 -331t-81 -333q-96 -108 -276 -108t-267 127q-70 92 -70 319q0 121 17 193q16 72 75 200l293 639h135l-286 -610q86 39 147 39z" />
    <glyph glyph-name="seven.fitted" horiz-adv-x="681" 
d="M-27 1360v102h633v-73l-383 -1389h-129l387 1360h-508z" />
    <glyph glyph-name="eight.fitted" horiz-adv-x="985" 
d="M493 719q-131 0 -189 -75t-58 -244q0 -170 57 -244t187 -74t189 75q58 75 58 243t-57 243q-57 76 -187 76zM492 815q114 0 164 68q50 67 50 217t-49 217q-50 67 -164 67t-165 -66q-52 -66 -52 -218q0 -150 52 -218t164 -67zM160 1102q0 207 85 293t256 86t255 -107
q68 -82 67 -274q0 -133 -37 -210t-118 -116q102 -39 146 -126t44 -249q0 -221 -91 -319t-283 -98t-287 120q-72 90 -72 276t44 271q44 86 148 125q-85 43 -121 117t-36 211z" />
    <glyph glyph-name="nine.fitted" horiz-adv-x="958" 
d="M698 1057q0 169 -54 245t-172 76t-172 -76t-54 -248q0 -171 53 -249t171 -78t173 81t55 249zM432 631q-168 0 -248 125q-59 92 -59 311t87 315t266 96t272 -116q70 -90 69 -297q0 -111 -14 -179t-62 -173l-321 -713h-133l305 674q-72 -43 -162 -43z" />
    <glyph glyph-name="zero.fitted" horiz-adv-x="1003" 
d="M737 477v508q0 201 -57 296t-179 95t-179 -94t-58 -297v-508q0 -203 58 -297t179 -94q122 0 179 95t57 296zM145 463v536q0 244 87 362q86 118 268 118t269 -118t87 -362v-536q0 -244 -87 -362q-87 -117 -268 -117t-269 117q-87 118 -87 362z" />
    <glyph glyph-name="sterling.fitted" horiz-adv-x="972" 
d="M115 0v88q90 41 149 150q100 186 29 407h-182v103h141q-68 150 -85 206t-17 142q0 182 94 283t262 102q213 0 309 -152q51 -80 68 -237l-107 -19q-16 131 -51 189q-66 117 -211 116q-112 0 -178 -74t-66 -206q0 -74 18 -128t95 -222h309v-103h-276q25 -90 24 -166
q0 -223 -153 -377h616v-102h-788z" />
    <glyph glyph-name="dollar.fitted" horiz-adv-x="946" 
d="M465 121q137 0 211 72q74 71 74 207t-78 204q-35 31 -68 44q-34 13 -188 58q-154 46 -236 138t-82 248q0 209 144 301q63 39 176 49v219h114v-223q106 -10 182 -77t97 -171l-102 -33q-20 88 -85 137q-64 49 -172 49q-108 -1 -172 -65t-65 -180q0 -116 65 -182
q65 -68 208 -110t183 -60t83 -52q113 -94 112 -284q0 -348 -334 -385v-293h-114v291q-145 11 -235 85t-115 203l102 33q14 -84 86 -154t209 -69z" />
    <glyph glyph-name="cent.fitted" horiz-adv-x="913" 
d="M440 88v227q-291 31 -288 422v185q-2 207 68 313q71 106 220 123v219h115v-221q93 -8 155 -72t72 -160l-98 -26q-27 96 -68 132t-120 36q-119 0 -174 -82t-56 -256v-201q0 -319 230 -319q108 0 152 60t52 116l97 -29q-14 -96 -82 -163t-160 -75v-229h-115z" />
    <glyph glyph-name="Euro.fitted" horiz-adv-x="952" 
d="M152 596v170h-160l31 82h129v113q0 264 84 380q100 137 282 137q359 1 375 -368l-113 -6q-18 272 -248 272q-137 0 -198 -98t-62 -317v-113h519l-33 -82h-486v-170h426l-30 -82h-396q6 -170 27 -244q47 -186 240 -186q117 0 185 69t71 189l108 -6q-8 -170 -103 -262
t-263 -92q-268 0 -349 237q-35 111 -36 295h-160l31 82h129z" />
    <glyph glyph-name="yen.fitted" horiz-adv-x="964" 
d="M422 0v319h-283v82h283v154h-283v82h248l-352 825h127l321 -772l318 772h127l-350 -825h245v-82h-280v-154h280v-82h-280v-319h-121z" />
    <glyph glyph-name="one.numerator" horiz-adv-x="622" 
d="M279 586v770l-140 -64l-35 78l203 92h72v-876h-100z" />
    <glyph glyph-name="two.numerator" horiz-adv-x="622" 
d="M70 586v67l229 308q125 170 125 276q0 152 -127 152q-59 0 -92 -37t-45 -115l-94 8q12 117 68 172t165 56q225 0 225 -234q0 -82 -30 -152t-119 -188l-170 -229h317v-84h-452z" />
    <glyph glyph-name="three.numerator" horiz-adv-x="622" 
d="M195 1008v77h77q70 0 113 43t43 113t-35 110t-98 40q-113 0 -133 -136l-94 9q20 209 229 209q229 0 229 -232q0 -131 -104 -192q125 -61 125 -226q0 -248 -250 -248q-160 0 -217 101q-20 33 -29 115l94 12q14 -143 150 -144q74 0 114 43t40 124q1 81 -47 131t-123 51h-84
z" />
    <glyph glyph-name="four.numerator" horiz-adv-x="622" 
d="M393 586v170h-338v61l264 645h105l-256 -624h225v237h90v-237h84v-84h-84v-168h-90z" />
    <glyph glyph-name="five.numerator" horiz-adv-x="622" 
d="M522 1462v-84h-297l-24 -276q59 29 125 28q115 0 168 -66t53 -211q1 -144 -59 -211t-187 -67q-231 0 -238 218l93 10q14 -143 145 -144q147 0 147 196t-135 196q-76 0 -137 -58l-74 15l37 454h383z" />
    <glyph glyph-name="six.numerator" horiz-adv-x="622" 
d="M313 1049q-135 0 -135 -197t135 -197q70 0 103 46t33 149q-1 199 -136 199zM340 1128q106 0 157 -66q50 -67 50 -211t-55 -210q-54 -66 -178 -66t-179 65t-55 208q0 76 10 118t49 117l191 379h116l-178 -344q37 10 72 10z" />
    <glyph glyph-name="seven.numerator" horiz-adv-x="622" 
d="M84 1378v84h446v-59l-266 -817h-110l268 792h-338z" />
    <glyph glyph-name="eight.numerator" horiz-adv-x="622" 
d="M459 830q0 92 -35 134t-112 42q-76 0 -112 -41t-36 -133t35 -135q35 -42 111 -42t113 42q36 42 36 133zM312 1395q-68 0 -100 -37t-32 -120t31 -120t101 -37t100 37t30 120t-30 120q-31 37 -100 37zM88 1262q0 209 223 211q221 -1 223 -211q0 -100 -16 -141
q-18 -42 -63 -70q57 -29 80 -78t23 -163t-59 -174q-57 -60 -187 -60t-188 58q-58 60 -58 174t22 164t80 79q-44 27 -62 69t-18 142z" />
    <glyph glyph-name="nine.numerator" horiz-adv-x="622" 
d="M313 1393q-73 0 -105 -42q-32 -41 -32 -137t33 -139t102 -43q135 0 135 180t-133 181zM78 1212q0 136 55 198t177 62t178 -60t57 -191q0 -74 -9 -112t-42 -103l-205 -420h-117l190 379q-41 -10 -79 -11q-105 0 -155 62t-50 196z" />
    <glyph glyph-name="zero.numerator" horiz-adv-x="622" 
d="M451 877v294q0 219 -140 220q-139 0 -139 -220v-294q0 -219 139 -220q140 1 140 220zM74 870v308q0 152 57 224t180 71q123 0 181 -72t57 -223v-308q0 -152 -57 -224q-56 -72 -180 -71q-124 -1 -181 71t-57 224z" />
    <glyph glyph-name="one.denominator" horiz-adv-x="622" 
d="M279 0v770l-140 -63l-35 77l203 93h72v-877h-100z" />
    <glyph glyph-name="two.denominator" horiz-adv-x="622" 
d="M70 0v68l229 307q125 168 125 276q0 152 -127 152q-59 0 -92 -37t-45 -115l-94 8q12 117 68 172t165 56q225 0 225 -234q0 -79 -30 -149t-119 -191l-170 -229h317v-84h-452z" />
    <glyph glyph-name="three.denominator" horiz-adv-x="622" 
d="M195 422v78h77q70 0 113 42t43 112t-35 110q-35 39 -98 39q-113 0 -133 -133l-94 8q20 209 229 209q229 0 229 -232q0 -131 -104 -192q125 -61 125 -225q0 -248 -250 -248q-160 0 -217 100q-23 37 -29 115l94 12q14 -143 150 -143q74 0 114 43t40 124q1 81 -47 131
t-123 50h-84z" />
    <glyph glyph-name="four.denominator" horiz-adv-x="622" 
d="M393 0v170h-338v61l264 646h105l-256 -625h225v237h90v-237h84v-84h-84v-168h-90z" />
    <glyph glyph-name="five.denominator" horiz-adv-x="622" 
d="M522 877v-84h-297l-24 -277q59 29 125 29q115 0 168 -67t53 -211q1 -144 -59 -211t-187 -66q-231 0 -238 217l93 10q14 -143 145 -143q147 0 147 196t-135 195q-76 0 -137 -57l-74 14l37 455h383z" />
    <glyph glyph-name="six.denominator" horiz-adv-x="622" 
d="M313 465q-135 0 -135 -198t135 -197q72 0 104 47t32 149q-1 199 -136 199zM547 262q0 -140 -55 -207q-54 -65 -178 -65t-179 64t-55 208q0 76 10 118t49 118l191 379h116l-178 -345q35 10 72 11q115 0 168 -82q39 -59 39 -199z" />
    <glyph glyph-name="seven.denominator" horiz-adv-x="622" 
d="M84 793v84h446v-60l-266 -817h-110l268 793h-338z" />
    <glyph glyph-name="eight.denominator" horiz-adv-x="622" 
d="M312 420q-76 0 -112 -41t-36 -133t35 -134t111 -42t113 42q36 42 36 133t-35 133t-112 42zM312 809q-68 0 -100 -37t-32 -120t31 -120q31 -36 101 -36t100 36t30 120q0 83 -30 120q-31 37 -100 37zM88 677q0 208 223 210q221 -1 223 -211q0 -100 -16 -142
q-18 -42 -63 -69q57 -27 80 -77t23 -164q-1 -234 -247 -234q-129 0 -187 59t-58 174t22 165q23 50 80 77q-45 27 -63 70q-17 43 -17 142z" />
    <glyph glyph-name="nine.denominator" horiz-adv-x="622" 
d="M313 807q-73 0 -105 -42t-32 -137q0 -94 33 -138t102 -44q135 0 135 180t-133 181zM283 369q-106 0 -156 61q-49 60 -49 196t55 198t177 62t178 -60t57 -191q0 -74 -9 -111t-42 -104l-205 -420h-117l190 379q-41 -10 -79 -10z" />
    <glyph glyph-name="zero.denominator" horiz-adv-x="622" 
d="M451 289v299q1 217 -139 217t-140 -217v-299q0 -217 140 -217t139 217zM74 285v307q0 152 57 224t180 71q123 0 181 -72t57 -223v-307q0 -152 -57 -224q-56 -71 -180 -71t-181 72t-57 223z" />
    <glyph glyph-name="oneone" horiz-adv-x="1527" 
d="M1130 0v770l-139 -63l-35 77l203 93h72v-877h-101zM455 0l381 1462h110l-381 -1462h-110zM301 586v770l-139 -64l-35 78l203 92h71v-876h-100z" />
    <glyph glyph-name="Dotaccent" horiz-adv-x="1024" 
d="M453 1645v192h114v-192h-114z" />
    <glyph glyph-name="Ring" horiz-adv-x="1024" 
d="M513 1933q-99 0 -99 -127q0 -59 26 -92t73 -33q46 0 73 33t26 92q0 127 -99 127zM326 1809q0 89 51 141t136 53q85 0 136 -53q51 -54 51 -142t-51 -142t-135 -54t-136 54t-52 143z" />
    <glyph glyph-name="Circumflex" horiz-adv-x="1024" 
d="M512 1806l-121 -168h-127l213 256h72l213 -256h-129z" />
    <glyph glyph-name="Breve" horiz-adv-x="1024" 
d="M514 1714q70 0 100 37t39 131h86q-6 -113 -28 -158q-47 -100 -203 -100t-201 115q-14 41 -20 143h84q8 -92 40 -130q33 -38 103 -38z" />
    <glyph glyph-name="Tilde" horiz-adv-x="1024" 
d="M411 1870q65 0 119 -68q59 -68 93 -67q49 0 71 118h78q-26 -117 -58 -161t-97 -43q-65 0 -125 67q-55 66 -84 66q-55 0 -78 -117h-78q27 115 60 160q34 45 99 45z" />
    <glyph glyph-name="Cedilla" horiz-adv-x="1024" 
d="M410 -438l90 288h127l-135 -288h-82z" />
    <glyph glyph-name="Ogonek" horiz-adv-x="1024" 
d="M526 -217q0 -82 97 -82q43 0 98 16l14 -75q-70 -23 -137 -23q-180 1 -180 145t172 236h110q-96 -64 -135 -112t-39 -105z" />
    <glyph glyph-name="Commaaccent" horiz-adv-x="1024" 
d="M410 -438l90 288h127l-135 -288h-82z" />
    <glyph glyph-name="Comma.high" horiz-adv-x="184" 
d="M6 1044l41 426h123l-82 -426h-82z" />
    <glyph glyph-name="Croatumlaut" horiz-adv-x="1024" 
d="M457 1626h-84l-150 281h133zM674 1626h-86l-148 281h133z" />
    <glyph glyph-name="Croatbreve" horiz-adv-x="1024" 
d="M512 1808q-72 0 -102 -36t-39 -132h-84q6 111 26 160q51 100 206 100t200 -116q14 -38 20 -144h-86q-6 92 -38 130q-31 38 -103 38z" />
    <glyph glyph-name="Cicumflexacute" horiz-adv-x="1024" 
d="M696 1739l125 278h140l-181 -278h-84zM512 1806l-121 -168h-127l213 256h72l213 -256h-129z" />
    <glyph glyph-name="Ringacute" horiz-adv-x="1024" 
d="M449 1831l96 233h155l-174 -233h-77zM513 1722q-99 0 -99 -127q0 -59 26 -93t72 -34q47 0 74 34t26 93q0 127 -99 127zM326 1596q0 88 51 142t136 54t136 -54t51 -142t-51 -142q-51 -55 -135 -55t-136 54t-52 143z" />
    <glyph glyph-name="croatumlaut" horiz-adv-x="1024" 
d="M457 1194h-84l-150 279h133zM674 1194h-86l-148 279h133z" />
    <glyph glyph-name="croatbreve" horiz-adv-x="1024" 
d="M512 1376q-72 0 -102 -37t-39 -131h-84q6 113 26 158q51 100 206 100t200 -114q14 -42 20 -144h-86q-6 92 -38 130q-31 38 -103 38z" />
    <glyph glyph-name="cicumflexacute" horiz-adv-x="1024" 
d="M696 1305l125 278h140l-181 -278h-84zM512 1374l-121 -170h-127l213 258h72l213 -258h-129z" />
    <glyph glyph-name="ringacute" horiz-adv-x="1024" 
d="M449 1612l96 231h155l-174 -231h-77zM514 1501q-100 0 -100 -127q0 -59 26 -93t72 -34q47 0 74 34t26 93q0 59 -25 93q-26 34 -73 34zM326 1375q0 89 51 143t136 53q85 0 136 -54q51 -53 51 -141t-51 -143t-135 -55t-136 54t-52 143z" />
    <glyph glyph-name="Ohorn.sc" horiz-adv-x="1003" 
d="M707 381v319q1 156 -53 228t-169 72t-169 -72t-54 -228v-319q0 -153 53 -225t168 -72t169 72t55 225zM1028 1022q0 -84 -47 -151t-156 -136v-364q0 -197 -84 -292t-258 -95q-340 0 -340 387v342q0 190 78 280q88 106 262 107q293 0 336 -275q111 88 111 191q-1 41 -21 84
h109q10 -41 10 -78z" />
    <glyph glyph-name="Uhorn.sc" horiz-adv-x="1060" 
d="M168 1083h119v-739q0 -127 35 -178q55 -82 182 -82t180 94q27 51 27 166v739h118v-303q101 60 141 110t40 112t-19 98h107q10 -39 10 -76q0 -131 -127 -238q-49 -37 -152 -96v-346q0 -100 -12 -154t-47 -96q-90 -110 -278 -110t-277 127q-47 72 -47 233v739z" />
    <glyph glyph-name="uni1EA0.sc" horiz-adv-x="800" 
d="M340 -383v193h115v-193h-115zM584 336l-185 600l-184 -600h369zM610 240h-420l-71 -240h-129l354 1083h111l356 -1083h-129z" />
    <glyph glyph-name="uni1EA2.sc" horiz-adv-x="800" 
d="M449 1231h-91q0 49 7 71t37 70t30 74q0 53 -67 53q-43 0 -93 -24l-24 75q74 27 131 27q156 0 156 -125q-1 -50 -39 -100t-42 -65t-5 -56zM584 336l-185 600l-184 -600h369zM610 240h-420l-71 -240h-129l354 1083h111l356 -1083h-129z" />
    <glyph glyph-name="uni1EA4.sc" horiz-adv-x="800" 
d="M399 1298l-127 -118h-127l222 204h65l221 -204h-127zM336 1442l100 227h123l-149 -227h-74zM584 336l-185 600l-184 -600h369zM610 240h-420l-71 -240h-129l354 1083h111l356 -1083h-129z" />
    <glyph glyph-name="uni1EA6.sc" horiz-adv-x="800" 
d="M399 1298l-127 -118h-127l222 204h67l219 -204h-127zM461 1442h-74l-147 227h120zM584 336l-185 600l-184 -600h369zM610 240h-420l-71 -240h-129l354 1083h111l356 -1083h-129z" />
    <glyph glyph-name="uni1EA8.sc" horiz-adv-x="800" 
d="M393 1296l-127 -116h-125l219 198h68l219 -198h-125zM360 1415q0 53 29 96q33 43 33 68q0 33 -55 33q-27 0 -76 -19l-21 62q59 23 111 22q131 0 131 -96q0 -37 -35 -79t-37 -87h-80zM584 336l-185 600l-184 -600h369zM610 240h-420l-71 -240h-129l354 1083h111l356 -1083
h-129z" />
    <glyph glyph-name="uni1EAA.sc" horiz-adv-x="800" 
d="M408 1298l-127 -118h-125l219 204h67l220 -204h-125zM325 1645q54 -1 104 -57t75 -56q41 0 61 102h70q-18 -98 -49 -140t-86 -42q-54 0 -102 56t-76 57q-43 -1 -74 -103h-70q23 98 58 140t89 43zM584 336l-185 600l-184 -600h369zM610 240h-420l-71 -240h-129l354 1083
h111l356 -1083h-129z" />
    <glyph glyph-name="uni1EAC.sc" horiz-adv-x="800" 
d="M340 -383v193h115v-193h-115zM399 1425l-120 -168h-127l210 256h72l213 -256h-127zM584 336l-185 600l-184 -600h369zM610 240h-420l-71 -240h-129l354 1083h111l356 -1083h-129z" />
    <glyph glyph-name="uni1EAE.sc" horiz-adv-x="800" 
d="M398 1174q-124 0 -173 51t-55 186h80q8 -82 41 -115q33 -32 109 -32t108 32q33 32 41 115h80q-7 -133 -57 -185t-174 -52zM336 1442l100 227h123l-149 -227h-74zM584 336l-185 600l-184 -600h369zM610 240h-420l-71 -240h-129l354 1083h111l356 -1083h-129z" />
    <glyph glyph-name="uni1EB0.sc" horiz-adv-x="800" 
d="M398 1174q-124 0 -173 51t-55 186h80q8 -82 41 -115q33 -32 109 -32t108 32q33 32 41 115h80q-7 -133 -57 -185t-174 -52zM467 1442h-74l-147 227h121zM584 336l-185 600l-184 -600h369zM610 240h-420l-71 -240h-129l354 1083h111l356 -1083h-129z" />
    <glyph glyph-name="uni1EB2.sc" horiz-adv-x="800" 
d="M398 1174q-124 0 -173 51t-55 186h78q10 -84 43 -117q33 -32 109 -32t109 34q34 34 42 115h78q-7 -133 -57 -185t-174 -52zM438 1393h-80q0 41 4 56t30 53t26 65q0 45 -56 45q-31 0 -73 -19l-21 62q59 23 109 22q131 0 131 -106q0 -31 -35 -80t-35 -86v-12zM584 336
l-185 600l-184 -600h369zM610 240h-420l-71 -240h-129l354 1083h111l356 -1083h-129z" />
    <glyph glyph-name="uni1EB4.sc" horiz-adv-x="800" 
d="M395 1176q-121 0 -170 49t-57 180h78q8 -80 42 -112q34 -31 108 -31t108 32q33 32 41 111h78q-7 -129 -57 -179t-171 -50zM314 1661q56 0 106 -56t72 -57q43 0 61 103h72q-21 -99 -51 -141t-84 -42t-102 56q-50 56 -75 57q-46 0 -75 -102h-72q23 98 57 140q35 42 91 42z
M584 336l-185 600l-184 -600h369zM610 240h-420l-71 -240h-129l354 1083h111l356 -1083h-129z" />
    <glyph glyph-name="uni1EB6.sc" horiz-adv-x="800" 
d="M340 -383v193h115v-193h-115zM400 1335q72 0 102 37q31 37 39 131h84q-6 -119 -27 -160q-49 -100 -205 -100t-198 115q-19 49 -21 145h84q8 -94 39 -131t103 -37zM584 336l-185 600l-184 -600h369zM610 240h-420l-71 -240h-129l354 1083h111l356 -1083h-129z" />
    <glyph glyph-name="uni1EB8.sc" horiz-adv-x="823" 
d="M406 -383v193h114v-193h-114zM174 0v1083h565v-100h-446v-387h381v-100h-381v-396h448v-100h-567z" />
    <glyph glyph-name="uni1EBA.sc" horiz-adv-x="823" 
d="M502 1446q0 53 -68 53q-43 0 -92 -24l-25 75q72 27 132 27q156 0 155 -125q0 -50 -38 -100t-43 -65t-7 -56h-90q2 51 7 71t37 69q32 48 32 75zM174 0v1083h565v-100h-446v-387h381v-100h-381v-396h448v-100h-567z" />
    <glyph glyph-name="uni1EBC.sc" horiz-adv-x="823" 
d="M364 1489q64 0 123 -68t91 -67q49 0 73 119h76q-23 -115 -57 -160t-99 -45q-67 0 -123 66t-86 67q-52 0 -77 -117h-78q25 113 59 159t98 46zM174 0v1083h565v-100h-446v-387h381v-100h-381v-396h448v-100h-567z" />
    <glyph glyph-name="uni1EBE.sc" horiz-adv-x="823" 
d="M453 1298l-127 -118h-125l219 204h67l220 -204h-125zM391 1442l101 227h120l-149 -227h-72zM174 0v1083h565v-100h-446v-387h381v-100h-381v-396h448v-100h-567z" />
    <glyph glyph-name="uni1EC0.sc" horiz-adv-x="823" 
d="M453 1298l-127 -118h-125l219 204h67l220 -204h-125zM514 1442h-74l-147 227h121zM174 0v1083h565v-100h-446v-387h381v-100h-381v-396h448v-100h-567z" />
    <glyph glyph-name="uni1EC2.sc" horiz-adv-x="823" 
d="M408 1296l-129 -116h-125l219 198h67l222 -198h-127zM455 1415h-82q1 57 31 98t30 66q0 33 -55 33q-29 0 -74 -19l-20 62q57 23 108 22q131 0 131 -96q0 -37 -34 -79t-35 -87zM168 0v1083h565v-100h-446v-387h381v-100h-381v-396h448v-100h-567z" />
    <glyph glyph-name="uni1EC4.sc" horiz-adv-x="823" 
d="M463 1298l-129 -118h-125l219 204h68l219 -204h-125zM379 1645q55 0 104 -58q53 -55 74 -55q41 0 61 102h72q-20 -100 -51 -141t-85 -41t-102 56t-75 57q-49 -1 -74 -103h-72q23 96 58 140t90 43zM174 0v1083h565v-100h-446v-387h381v-100h-381v-396h448v-100h-567z" />
    <glyph glyph-name="uni1EC6.sc" horiz-adv-x="823" 
d="M403 -383v193h115v-193h-115zM451 1425l-119 -168h-129l213 256h71l213 -256h-129zM172 0v1083h565v-100h-446v-387h381v-100h-381v-396h448v-100h-567z" />
    <glyph glyph-name="uni1EC8.sc" horiz-adv-x="464" 
d="M285 1231h-90q0 49 6 71q7 22 37 68t30 76q0 53 -67 53q-43 0 -92 -24l-25 75q72 27 131 27q156 0 156 -125q-1 -48 -39 -98t-42 -67t-5 -56zM174 0v1083h119v-1083h-119z" />
    <glyph glyph-name="uni1ECA.sc" horiz-adv-x="464" 
d="M172 -383v193h115v-193h-115zM172 0v1083h119v-1083h-119z" />
    <glyph glyph-name="uni1ECC.sc" horiz-adv-x="966" 
d="M426 -383v193h115v-193h-115zM707 381v319q1 156 -53 228t-169 72t-169 -72t-54 -228v-319q0 -153 53 -225t168 -72t169 72t55 225zM143 713q0 385 340 387q188 0 279 -123q63 -86 63 -264v-342q0 -197 -84 -292t-258 -95q-340 0 -340 387v342z" />
    </font>
</defs>
</svg>
