<?xml version="1.0" standalone="no"?>
<!DOCTYPE svg PUBLIC "-//W3C//DTD SVG 1.1//EN" "http://www.w3.org/Graphics/SVG/1.1/DTD/svg11.dtd" >
<svg xmlns="http://www.w3.org/2000/svg">
<metadata>
Created by FontPrep 20130207 at Fri May 26 16:01:24 2017
 By Lizzy Knight
Copyright 2016 by URW++ Design &#38; Development GmbH
</metadata>
<defs>
<font id="c864b5f48f1eed1de082d1eba3080895" horiz-adv-x='1024' >
  <font-face 
    font-family="URWDINCond-Demi"
    font-weight="600"
    font-stretch="normal"
    units-per-em="2048"
    panose-1="0 0 7 0 0 0 0 0 0 0"
    ascent="1462"
    descent="-586"
    x-height="1051"
    cap-height="1462"
    bbox="-141 -500 2062 2106"
    underline-thickness="151"
    underline-position="-140"
    unicode-range="U+0020-FB04"
  />
<missing-glyph horiz-adv-x="327" 
 />
    <glyph glyph-name="ff" unicode="ff" horiz-adv-x="1015" 
d="M621 874h-82v177h82v108q-2 179 55 243t217 60h98v-164h-49q-70 2 -88 -24t-18 -127v-96h159v-177h-159v-874h-215v874zM137 874h-96v177h96v108q-3 179 55 243t218 60h88v-164h-39q-70 2 -88 -24t-19 -127v-96h113v-177h-113v-874h-215v874z" />
    <glyph glyph-name="fi" unicode="fi" horiz-adv-x="954" 
d="M633 0v1051h215v-1051h-215zM633 1225v245h215v-245h-215zM137 874h-96v177h96v108q-3 179 55 243t218 60h96v-164h-47q-70 2 -88 -24t-19 -127v-96h158v-177h-158v-874h-215v874z" />
    <glyph glyph-name="fl" unicode="fl" horiz-adv-x="1007" 
d="M633 1462h215v-1081q-2 -115 26 -158t107 -43h23v-180h-31q-211 2 -277 79t-63 322v1061zM137 874h-96v177h96v108q-3 179 55 243t218 60h96v-164h-47q-70 2 -88 -24t-19 -127v-96h158v-177h-158v-874h-215v874z" />
    <glyph glyph-name="ffi" unicode="ffi" horiz-adv-x="1437" 
d="M1116 0v1051h215v-1051h-215zM1116 1225v245h215v-245h-215zM623 874h-84v177h84v108q-2 179 55 243t217 60h96v-164h-47q-70 2 -88 -24t-18 -127v-96h157v-177h-157v-874h-215v874zM137 874h-96v177h96v108q-3 179 55 243t218 60h88v-164h-39q-70 2 -88 -24t-19 -127
v-96h113v-177h-113v-874h-215v874z" />
    <glyph glyph-name="ffl" unicode="ffl" horiz-adv-x="1490" 
d="M1116 1462h215v-1081q-2 -115 27 -158t106 -43h23v-180h-31q-210 2 -276 79t-64 322v1061zM623 874h-84v177h84v108q-2 179 55 243t217 60h96v-164h-47q-70 2 -88 -24t-18 -127v-96h157v-177h-157v-874h-215v874zM137 874h-96v177h96v108q-3 179 55 243t218 60h88v-164
h-39q-70 2 -88 -24t-19 -127v-96h113v-177h-113v-874h-215v874z" />
    <glyph glyph-name=".notdef" horiz-adv-x="327" 
 />
    <glyph glyph-name=".null" horiz-adv-x="0" 
 />
    <glyph glyph-name="nonmarkingreturn" horiz-adv-x="681" 
 />
    <glyph glyph-name="space" unicode=" " horiz-adv-x="327" 
 />
    <glyph glyph-name="exclam" unicode="!" horiz-adv-x="512" 
d="M150 0v238h215v-238h-215zM168 406l-33 1056h242l-33 -1056h-176z" />
    <glyph glyph-name="quotedbl" unicode="&#x22;" horiz-adv-x="688" 
d="M414 893l-17 569h224l-17 -569h-190zM84 893l-16 569h223l-17 -569h-190z" />
    <glyph glyph-name="numbersign" unicode="#" 
d="M350 594h135l25 219h-137zM174 594l23 219h-140l19 139h137l37 346h176l-37 -346h135l37 346h176l-37 -346h138l-19 -139h-133l-24 -219h137l-19 -141h-133l-39 -347h-176l37 347h-135l-37 -347h-178l39 347h-140l19 141h137z" />
    <glyph glyph-name="dollar" unicode="$" 
d="M584 422q0 111 -43 164q-20 27 -46 39t-120 47q-153 55 -219 150t-66 257q0 315 242 363v223h219v-233q211 -66 211 -361h-207q-4 111 -33 156t-94 45q-127 0 -127 -182q0 -90 42 -142t144 -94q156 -59 209 -111q98 -94 99 -307q0 -354 -244 -409v-301h-219v294
q-139 33 -204 138q-64 105 -60 293h204q2 -139 38 -201t118 -62q156 0 156 234z" />
    <glyph glyph-name="percent" unicode="%" horiz-adv-x="1470" 
d="M469 0l336 1462h196l-333 -1462h-199zM1231 274v187q-1 86 -19 121q-18 34 -64 34t-65 -34q-18 -35 -18 -121v-187q0 -86 18 -120q19 -34 65 -35q46 1 64 35t19 120zM872 297v143q0 170 64 241t213 71q150 0 212 -71t62 -241v-143q0 -170 -62 -242q-62 -71 -212 -71
q-149 0 -213 72t-64 241zM406 1006v184q0 88 -18 123t-65 35t-65 -35t-18 -123v-184q0 -88 18 -123t64 -35t66 35q18 35 18 123zM47 1026v143q-1 170 63 242t214 72t212 -72t62 -242v-143q0 -170 -62 -242t-212 -72t-214 72t-63 242z" />
    <glyph glyph-name="ampersand" unicode="&#x26;" horiz-adv-x="1165" 
d="M303 324q0 -201 164 -201q82 0 158 55q11 6 33 32t32 34l-231 377q-156 -121 -156 -297zM544 1321q-110 0 -110 -154q0 -127 86 -270q74 59 105 117t30 133q-1 174 -111 174zM436 -61q-358 0 -358 380q0 201 129 353q41 42 82 74t57 47q-123 227 -123 375t83 237
q83 90 235 90q153 0 239 -92t86 -256q0 -242 -237 -412l178 -299q33 102 37 126t24 126h209q-49 -268 -139 -442l158 -246h-248l-45 80q-46 -38 -74 -57q-100 -84 -293 -84z" />
    <glyph glyph-name="quotesingle" unicode="'" horiz-adv-x="358" 
d="M84 893l-16 569h223l-17 -569h-190z" />
    <glyph glyph-name="parenleft" unicode="(" horiz-adv-x="671" 
d="M174 706q0 568 281 961l143 -98q-199 -373 -199 -863t199 -864l-143 -98q-281 394 -281 962z" />
    <glyph glyph-name="parenright" unicode=")" horiz-adv-x="671" 
d="M498 706q0 -564 -281 -962l-143 98q199 368 199 864t-199 863l143 98q281 -397 281 -961z" />
    <glyph glyph-name="asterisk" unicode="*" 
d="M430 1053l-123 -250l-172 94l160 246l-236 63l54 172l227 -94l-10 291h202l-12 -291l230 94l53 -172l-236 -63l160 -246l-172 -94z" />
    <glyph glyph-name="plus" unicode="+" 
d="M74 651v170h264v318h184v-318h264v-170h-264v-317h-184v317h-264z" />
    <glyph glyph-name="comma" unicode="," horiz-adv-x="434" 
d="M49 -385l72 618h235l-112 -618h-195z" />
    <glyph glyph-name="hyphen" unicode="-" horiz-adv-x="669" 
d="M102 643v186h463v-186h-463z" />
    <glyph glyph-name="period" unicode="." horiz-adv-x="436" 
d="M106 0v238h226v-238h-226z" />
    <glyph glyph-name="slash" unicode="/" horiz-adv-x="589" 
d="M14 -43l355 1548h211l-355 -1548h-211z" />
    <glyph glyph-name="zero" unicode="0" 
d="M565 479v506q0 174 -29 244q-30 69 -106 69t-106 -70t-29 -243v-506q0 -176 30 -246q29 -69 105 -69t106 69q29 70 29 246zM76 459v547q0 254 83 366t271 111q188 0 271 -112t83 -365v-547q0 -254 -83 -367q-83 -112 -271 -112t-271 112t-83 367z" />
    <glyph glyph-name="one" unicode="1" 
d="M340 0v1210l-168 -92l-88 174l332 170h149v-1462h-225z" />
    <glyph glyph-name="two" unicode="2" 
d="M55 0v158l312 493q162 254 161 445q0 106 -27 154q-29 48 -93 48t-95 -56t-32 -189h-207q4 221 87 325t253 104q342 1 342 -376q0 -174 -74 -324q-39 -82 -170 -284l-197 -312h437v-186h-697z" />
    <glyph glyph-name="three" unicode="3" 
d="M264 680v178h101q157 0 157 220t-119 220q-63 0 -91 -51t-33 -174h-205q2 172 53 258q88 152 285 152q164 -1 250 -99t86 -288q0 -240 -123 -324q83 -53 117 -139t34 -230q0 -424 -352 -423q-240 0 -324 194q-35 82 -37 238h207q2 -132 35 -190t107 -58q139 0 139 242
q0 134 -44 204t-128 70h-115z" />
    <glyph glyph-name="four" unicode="4" 
d="M496 0v262h-439v137l344 1063h226l-326 -1018h195v351h206v-351h99v-182h-99v-262h-206z" />
    <glyph glyph-name="five" unicode="5" 
d="M737 1462v-186h-389l-18 -391q66 35 143 35q164 0 232 -100q67 -100 67 -355q0 -254 -79 -370t-277 -115q-242 0 -328 194q-37 92 -37 238h207q2 -132 35 -190t109 -58t111 70q34 70 34 231q0 162 -28 221q-27 59 -105 59t-135 -90l-162 33l37 774h583z" />
    <glyph glyph-name="six" unicode="6" 
d="M433 752q-75 0 -103 -68t-29 -236q0 -168 29 -230q28 -62 102 -62t102 63t28 231t-23 224q-31 78 -106 78zM778 496q0 -196 -18 -277q-18 -82 -66 -135q-92 -104 -272 -104t-270 124q-68 88 -68 334q0 137 17 216t77 223l244 585h246l-238 -557q43 12 80 13
q154 0 221 -132q47 -94 47 -290z" />
    <glyph glyph-name="seven" unicode="7" 
d="M90 1276v186h641v-135l-332 -1327h-239l348 1276h-418z" />
    <glyph glyph-name="eight" unicode="8" 
d="M430 684q-80 0 -111 -57t-31 -207t32 -207q30 -57 109 -57t110 56t30 206q0 150 -29 208q-30 58 -110 58zM427 1319q-75 0 -103 -74q-16 -39 -16 -170t20 -172q30 -63 106 -63t105 78q14 36 14 166t-21 173q-30 62 -105 62zM102 1085q0 219 83 309t249 89q166 0 244 -94
t78 -299q0 -141 -22 -206t-83 -110q76 -41 106 -123t29 -241q0 -230 -84 -330t-280 -100q-195 0 -285 124q-65 90 -65 278t30 268t105 124q-59 41 -82 109t-23 202z" />
    <glyph glyph-name="nine" unicode="9" 
d="M428 766q74 0 102 61t29 213q-1 152 -29 210t-102 57t-102 -57t-27 -209q0 -153 23 -205q32 -70 106 -70zM352 600q-158 0 -223 123q-47 88 -47 272t18 262t66 127q92 98 272 98t271 -116q68 -82 67 -313q0 -131 -16 -208t-76 -214l-270 -631h-246l266 614
q-41 -14 -82 -14z" />
    <glyph glyph-name="colon" unicode=":" horiz-adv-x="436" 
d="M106 807v237h226v-237h-226zM106 0v238h226v-238h-226z" />
    <glyph glyph-name="semicolon" unicode=";" horiz-adv-x="434" 
d="M127 807v237h225v-237h-225zM49 -385l72 618h235l-112 -618h-195z" />
    <glyph glyph-name="less" unicode="&#x3c;" 
d="M303 743l410 -237v-199l-621 379v115l621 379v-199z" />
    <glyph glyph-name="equal" unicode="=" 
d="M100 815v164h660v-164h-660zM100 492v165h660v-165h-660z" />
    <glyph glyph-name="greater" unicode="&#x3e;" 
d="M557 743l-410 238v199l621 -379v-115l-621 -379v199z" />
    <glyph glyph-name="question" unicode="?" horiz-adv-x="849" 
d="M313 0v238h215v-238h-215zM332 399v76q0 121 25 192q27 71 97 164t89 141q18 48 18 126q0 199 -127 198q-70 0 -98 -52t-35 -191h-207q-4 428 348 428q176 0 260 -91t84 -282q0 -131 -34 -212t-120 -182q-86 -102 -106 -150t-20 -113v-52h-174z" />
    <glyph glyph-name="at" unicode="@" horiz-adv-x="1435" 
d="M758 922q-64 0 -108 -118t-44 -272t58 -155q58 0 109 127q53 126 53 272t-68 146zM1010 371q86 -1 138 111t52 298q0 260 -122 411t-333 150q-239 1 -371 -201t-132 -550t124 -502q124 -152 392 -151q170 0 360 90l51 -127q-117 -61 -210 -86t-229 -25t-272 49t-218 135
q-182 193 -182 611t182 669q82 113 212 174t287 62q291 0 465 -193t174 -512q0 -250 -108 -406t-279 -155q-75 0 -113 34t-53 110q-43 -80 -88 -113t-110 -33q-96 0 -149 75q-52 75 -52 214q0 244 90 410q80 147 225 147q117 0 152 -111l16 88h129l-69 -481
q-12 -78 -13 -108q0 -84 54 -84z" />
    <glyph glyph-name="A" unicode="A" horiz-adv-x="921" 
d="M606 485l-141 666l-143 -666h284zM647 303h-364l-66 -303h-244l398 1462h188l395 -1462h-243z" />
    <glyph glyph-name="B" unicode="B" horiz-adv-x="980" 
d="M352 182h133q107 0 147 53t40 181t-40 185q-40 56 -130 56h-150v-475zM352 840h135q166 0 166 219q0 119 -40 170t-136 51h-125v-440zM127 0v1462h360q215 0 303 -94t88 -312t-128 -292q147 -94 147 -367q0 -219 -100 -319q-78 -78 -256 -78h-414z" />
    <glyph glyph-name="C" unicode="C" horiz-adv-x="931" 
d="M488 -20q-224 0 -318 145q-68 102 -68 344v520q0 264 82 369q98 123 295 123q238 0 328 -187q41 -84 43 -241h-207q-8 139 -43 191t-120 52t-119 -70t-33 -251v-492q0 -180 34 -250q34 -69 125 -69q90 0 129 62t41 206h207q-2 -186 -55 -280q-97 -172 -321 -172z" />
    <glyph glyph-name="D" unicode="D" horiz-adv-x="1003" 
d="M352 182h125q117 0 157 60t42 231v516q-2 171 -42 231t-157 60h-125v-1098zM127 0v1462h344q231 4 333 -97t97 -337v-594q4 -236 -97 -337t-333 -97h-344z" />
    <glyph glyph-name="E" unicode="E" horiz-adv-x="862" 
d="M127 0v1462h664v-186h-439v-445h371v-186h-371v-459h447v-186h-672z" />
    <glyph glyph-name="F" unicode="F" horiz-adv-x="823" 
d="M127 0v1462h655v-186h-430v-455h359v-186h-359v-635h-225z" />
    <glyph glyph-name="G" unicode="G" horiz-adv-x="978" 
d="M514 612v176h383v-278q0 -262 -72 -375q-98 -155 -325 -155t-328 145q-70 102 -70 344v520q0 266 86 369q98 123 301 123q242 0 334 -189q39 -80 41 -239h-207q-6 135 -42 189q-37 54 -125 54t-125 -70t-37 -251v-492q0 -175 39 -247t133 -72t134 70t40 229v149h-160z
" />
    <glyph glyph-name="H" unicode="H" horiz-adv-x="1015" 
d="M127 0v1462h225v-631h314v631h225v-1462h-225v645h-314v-645h-225z" />
    <glyph glyph-name="I" unicode="I" horiz-adv-x="477" 
d="M127 0v1462h225v-1462h-225z" />
    <glyph glyph-name="J" unicode="J" horiz-adv-x="692" 
d="M348 1462h225v-981q0 -264 -38 -348q-72 -154 -279 -153q-96 0 -167 30t-140 105l131 143q86 -94 156 -94q82 0 102 108q10 53 10 205v985z" />
    <glyph glyph-name="K" unicode="K" horiz-adv-x="919" 
d="M129 0v1462h225v-612l334 612h244l-359 -604l373 -858h-246l-260 670l-86 -160v-510h-225z" />
    <glyph glyph-name="L" unicode="L" horiz-adv-x="821" 
d="M127 0v1462h225v-1276h451v-186h-676z" />
    <glyph glyph-name="M" unicode="M" horiz-adv-x="1220" 
d="M127 0v1462h211l272 -839l273 839h211v-1462h-215v956l-197 -649h-143l-197 649v-956h-215z" />
    <glyph glyph-name="N" unicode="N" horiz-adv-x="1064" 
d="M127 0v1462h223l379 -999v999h211v-1462h-213l-389 1012v-1012h-211z" />
    <glyph glyph-name="O" unicode="O" horiz-adv-x="1003" 
d="M676 467v528q0 168 -39 236q-39 67 -135 67t-135 -68t-39 -235v-528q0 -168 39 -236q39 -67 135 -67t135 68t39 235zM102 446v570q0 250 94 358t306 109q213 0 306 -110t93 -357v-570q0 -250 -93 -358t-306 -108q-212 0 -306 108t-94 358z" />
    <glyph glyph-name="P" unicode="P" horiz-adv-x="905" 
d="M346 729h105q100 -1 142 63t42 214t-42 212t-140 62h-107v-551zM352 545v-545h-225v1462h324q127 0 201 -26q208 -75 208 -441q0 -235 -100 -350q-92 -100 -307 -100h-101z" />
    <glyph glyph-name="Q" unicode="Q" horiz-adv-x="1003" 
d="M676 467v528q0 168 -39 236q-39 67 -135 67t-135 -68t-39 -235v-528q0 -168 39 -236t135 -67q63 -1 98 26l-178 175l125 116l125 -123q4 37 4 109zM502 -20q-213 0 -306 108t-94 358v570q0 250 94 358t306 109q213 0 306 -110t93 -357v-570q0 -166 -41 -272l111 -106
l-125 -117l-92 90q-92 -61 -252 -61z" />
    <glyph glyph-name="R" unicode="R" horiz-adv-x="962" 
d="M348 793h105q113 0 157 59t43 191q0 133 -45 185t-149 52h-111v-487zM354 616v-616h-225v1462h340q125 0 197 -22q212 -66 213 -396q0 -182 -44 -272t-153 -135l233 -637h-249l-203 616h-109z" />
    <glyph glyph-name="S" unicode="S" horiz-adv-x="876" 
d="M256 432q0 -140 40 -204t129 -64t130 57t41 176q0 162 -96 210q-27 13 -127 46q-162 55 -232 151q-69 96 -69 280t89 290t259 107q231 0 317 -187q39 -80 41 -241h-207q-4 135 -36 189q-33 54 -109 54q-139 0 -139 -219q0 -96 43 -149q42 -53 152 -92q110 -40 149 -58
q180 -85 180 -364q0 -434 -381 -434q-248 0 -338 188q-41 84 -43 264h207z" />
    <glyph glyph-name="T" unicode="T" horiz-adv-x="768" 
d="M270 0v1276h-256v186h738v-186h-256v-1276h-226z" />
    <glyph glyph-name="U" unicode="U" horiz-adv-x="1021" 
d="M123 1462h225v-1024q0 -137 23 -188q37 -86 135 -86q63 0 98 22t53 73q18 50 19 179v1024h225v-1024q0 -132 -13 -200t-52 -121q-98 -137 -333 -137t-329 159q-51 86 -51 299v1024z" />
    <glyph glyph-name="V" unicode="V" horiz-adv-x="925" 
d="M362 0l-354 1462h225l230 -1095l227 1095h225l-354 -1462h-199z" />
    <glyph glyph-name="W" unicode="W" horiz-adv-x="1400" 
d="M283 0l-244 1462h223l135 -1054l217 1054h172l218 -1054l135 1054h223l-244 -1462h-203l-215 1020l-215 -1020h-202z" />
    <glyph glyph-name="X" unicode="X" horiz-adv-x="890" 
d="M317 776l-294 686h243l209 -495l168 495h234l-297 -725l315 -737h-244l-229 547l-186 -547h-236z" />
    <glyph glyph-name="Y" unicode="Y" horiz-adv-x="827" 
d="M303 0v514l-338 948h238l213 -671l215 671h235l-338 -948v-514h-225z" />
    <glyph glyph-name="Z" unicode="Z" horiz-adv-x="792" 
d="M35 0v121l450 1155h-409v186h655v-121l-450 -1155h471v-186h-717z" />
    <glyph glyph-name="bracketleft" unicode="[" horiz-adv-x="671" 
d="M213 -201v1813h356v-160h-141v-1493h141v-160h-356z" />
    <glyph glyph-name="backslash" unicode="\" horiz-adv-x="589" 
d="M578 -43h-211l-355 1548h211z" />
    <glyph glyph-name="bracketright" unicode="]" horiz-adv-x="671" 
d="M457 1612v-1813h-355v160h140v1493h-140v160h355z" />
    <glyph glyph-name="asciicircum" unicode="^" 
d="M430 1210l-147 -436h-240l324 699h125l323 -699h-240z" />
    <glyph glyph-name="underscore" unicode="_" horiz-adv-x="694" 
d="M-37 -367v152h768v-152h-768z" />
    <glyph glyph-name="grave" unicode="`" horiz-adv-x="1024" 
d="M627 1190h-158l-203 303h238z" />
    <glyph glyph-name="a" unicode="a" horiz-adv-x="823" 
d="M512 473h-82q-88 0 -125 -39t-37 -128t28 -121q28 -31 96 -31t94 36t26 132v151zM512 627v47q0 125 -26 172t-88 47t-88 -37t-25 -121h-201q2 154 49 221q80 115 260 115t257 -97t77 -317v-657h-168l-12 57q-67 -77 -213 -77t-214 74t-67 250q0 175 71 249t245 74h143z
" />
    <glyph glyph-name="b" unicode="b" horiz-adv-x="862" 
d="M557 397v289q0 199 -113 199q-127 0 -127 -262v-193q0 -264 127 -264q113 0 113 231zM102 0v1462h215v-461q76 70 177 70q145 0 212 -96t66 -303v-248q0 -236 -68 -340t-221 -104q-65 0 -109 19t-93 73l-13 -72h-166z" />
    <glyph glyph-name="c" unicode="c" horiz-adv-x="780" 
d="M535 332h200q-2 -160 -49 -234q-80 -118 -261 -118t-258 100t-77 323v248q0 213 66 310q80 113 258 112q207 0 280 -149q31 -66 33 -205h-197q0 176 -112 176q-61 0 -87 -51t-26 -176v-281q0 -125 26 -177t89 -52q115 0 115 174z" />
    <glyph glyph-name="d" unicode="d" horiz-adv-x="862" 
d="M305 686v-285q0 -236 115 -235q125 0 125 264v193q0 262 -127 262q-113 0 -113 -199zM379 -20q-153 0 -221 104t-68 340v248q0 207 67 303t212 96q100 0 176 -70v461h215v-1462h-166l-12 72q-50 -52 -94 -72t-109 -20z" />
    <glyph glyph-name="e" unicode="e" horiz-adv-x="845" 
d="M305 637h254v49q0 119 -29 165q-28 46 -100 46t-98 -46t-27 -165v-49zM305 475v-96q0 -123 28 -172t94 -49t96 40t30 128h199q-2 -154 -47 -226q-77 -120 -267 -120t-269 104t-79 342v197q0 238 79 343t259 105t258 -104t78 -344v-148h-459z" />
    <glyph glyph-name="f" unicode="f" horiz-adv-x="530" 
d="M137 874h-96v177h96v108q-3 179 55 243t218 60h96v-164h-47q-70 2 -88 -24t-19 -127v-96h158v-177h-158v-874h-215v874z" />
    <glyph glyph-name="g" unicode="g" horiz-adv-x="862" 
d="M305 686v-283q0 -125 28 -181t87 -56q125 0 125 264v193q0 262 -127 262q-113 0 -113 -199zM545 -68v103q-74 -55 -168 -55q-151 0 -219 104t-68 340v248q0 207 67 303t210 96q65 1 111 -21t93 -75l23 76h166v-1088q0 -225 -70 -325q-84 -119 -276 -119t-256 135
q-29 59 -31 184h190q2 -80 26 -114q25 -34 87 -33q62 0 88 52t27 189z" />
    <glyph glyph-name="h" unicode="h" horiz-adv-x="866" 
d="M102 0v1462h215v-452q69 61 167 61t164 -41q66 -42 94 -112t28 -242v-676h-215v647q0 133 -25 185q-26 52 -92 53q-66 -1 -94 -57t-27 -201v-627h-215z" />
    <glyph glyph-name="i" unicode="i" horiz-adv-x="428" 
d="M106 0v1051h216v-1051h-216zM106 1225v245h216v-245h-216z" />
    <glyph glyph-name="j" unicode="j" horiz-adv-x="436" 
d="M115 1225v245h215v-245h-215zM115 1051h215v-1041q6 -281 -76 -382t-311 -99v180q96 -3 135 59t37 220v1063z" />
    <glyph glyph-name="k" unicode="k" horiz-adv-x="825" 
d="M109 0v1462h215v-874l264 463h225l-274 -439l282 -612h-233l-180 453l-84 -148v-305h-215z" />
    <glyph glyph-name="l" unicode="l" horiz-adv-x="481" 
d="M106 1462h216v-1081q-2 -115 26 -158t107 -43h22v-180h-31q-210 2 -276 79t-64 322v1061z" />
    <glyph glyph-name="m" unicode="m" horiz-adv-x="1286" 
d="M102 0v1051h160l17 -86q47 59 93 83t120 23q152 0 221 -110q74 111 209 110q86 0 149 -41q63 -40 92 -112t29 -242v-676h-215v647q0 133 -24 185t-86 53q-62 -1 -88 -57t-25 -191v-637h-215v647q0 135 -23 187q-24 52 -86 51q-62 1 -88 -57t-25 -201v-627h-215z" />
    <glyph glyph-name="n" unicode="n" horiz-adv-x="866" 
d="M102 0v1051h160l17 -86q47 59 94 83t128 24t147 -42q66 -40 94 -112t28 -242v-676h-215v647q0 133 -26 185q-27 52 -93 53q-66 -1 -92 -57t-27 -201v-627h-215z" />
    <glyph glyph-name="o" unicode="o" horiz-adv-x="858" 
d="M553 381v289q0 125 -27 174q-26 49 -96 49t-98 -49t-27 -174v-289q0 -125 28 -174q27 -49 97 -49t96 49t27 174zM90 399v252q0 223 80 321t260 99q180 0 259 -98t79 -322v-252q0 -223 -79 -321t-260 -98t-260 98t-79 321z" />
    <glyph glyph-name="p" unicode="p" horiz-adv-x="862" 
d="M557 397v289q0 199 -113 199q-127 0 -127 -262v-193q0 -264 127 -264q113 0 113 231zM102 -461v1512h166l23 -76q47 53 93 75t112 21q143 0 210 -96t66 -303v-248q0 -236 -68 -340t-219 -104q-100 0 -168 55v-496h-215z" />
    <glyph glyph-name="q" unicode="q" horiz-adv-x="862" 
d="M305 686v-285q0 -236 115 -235q125 0 125 264v193q0 262 -127 262q-113 0 -113 -199zM545 -461v496q-68 -55 -170 -55q-153 0 -219 104t-66 340v248q0 207 67 303t210 96q65 1 111 -21t93 -75l23 76h166v-1512h-215z" />
    <glyph glyph-name="r" unicode="r" horiz-adv-x="610" 
d="M102 0v1051h164l27 -86q63 106 172 106q82 0 162 -61l-95 -181q-55 55 -110 55t-80 -85q-25 -86 -25 -289v-510h-215z" />
    <glyph glyph-name="s" unicode="s" horiz-adv-x="765" 
d="M385 158q135 0 135 141q0 74 -41 102q-23 19 -154 57t-184 93q-72 76 -71 221q0 145 76 222q77 77 223 77q207 0 280 -139q33 -66 33 -189h-197q0 150 -108 150t-109 -125q0 -61 31 -94t133 -62t140 -44q146 -59 147 -271q0 -317 -342 -317q-233 0 -303 155
q-31 64 -33 197h199q2 -82 18 -113q33 -61 127 -61z" />
    <glyph glyph-name="t" unicode="t" horiz-adv-x="544" 
d="M133 874h-96v177h96l12 309h203v-309h152v-177h-152v-534q-2 -94 23 -128t90 -32h39v-180h-62q-193 0 -250 68t-55 292v514z" />
    <glyph glyph-name="u" unicode="u" horiz-adv-x="845" 
d="M96 1051h215v-648q0 -133 23 -185t84 -52t86 57t24 203v625h215v-1051h-161l-15 86q-47 -61 -91 -84t-114 -22q-180 0 -237 153q-29 72 -29 242v676z" />
    <glyph glyph-name="v" unicode="v" horiz-adv-x="772" 
d="M283 0l-260 1051h217l147 -750l145 750h218l-261 -1051h-206z" />
    <glyph glyph-name="w" unicode="w" horiz-adv-x="1169" 
d="M252 0l-215 1051h217l106 -709l150 709h152l149 -709l107 709h217l-215 -1051h-185l-149 680l-150 -680h-184z" />
    <glyph glyph-name="x" unicode="x" horiz-adv-x="724" 
d="M240 541l-236 510h234l141 -322l121 322h231l-252 -521l248 -530h-235l-148 340l-129 -340h-231z" />
    <glyph glyph-name="y" unicode="y" horiz-adv-x="774" 
d="M279 -4l-259 1055h216l151 -770l143 770h218l-269 -1176q-47 -213 -125 -279t-282 -67v180q96 -2 128 30t60 157z" />
    <glyph glyph-name="z" unicode="z" horiz-adv-x="675" 
d="M31 0v123l346 749h-311v179h557v-123l-349 -750h369v-178h-612z" />
    <glyph glyph-name="braceleft" unicode="{" horiz-adv-x="671" 
d="M430 1165v-110q2 -169 -12 -223t-74 -93q60 -33 74 -88t12 -225v-180q0 -180 23 -240t88 -59h37v-148h-86q-176 0 -231 80q-54 80 -48 328v227q2 152 -15 196t-81 46h-13v129h13q63 2 81 46q17 44 15 196v157q-6 248 48 329t231 79h86v-148h-37q-67 2 -89 -58t-22 -241z
" />
    <glyph glyph-name="bar" unicode="|" 
d="M338 -201v1813h184v-1813h-184z" />
    <glyph glyph-name="braceright" unicode="}" horiz-adv-x="671" 
d="M240 246v180q-2 172 13 226t73 87q-59 39 -74 92q-14 53 -12 224v110q0 181 -23 241t-88 58h-37v148h86q176 2 230 -79t49 -329v-157q-2 -152 15 -196t81 -46h12v-129h-12q-63 -2 -81 -46t-15 -196v-227q6 -248 -48 -328t-231 -80h-86v148h37q67 -1 89 59t22 240z" />
    <glyph glyph-name="asciitilde" unicode="~" 
d="M549 586q-37 0 -62 14t-90 70t-98 55q-55 0 -86 -137l-125 28q51 272 215 273q43 0 67 -11t92 -70t101 -58q55 0 88 129l121 -37q-66 -256 -223 -256z" />
    <glyph glyph-name="uni00A0" unicode="&#xa0;" horiz-adv-x="327" 
 />
    <glyph glyph-name="exclamdown" unicode="&#xa1;" horiz-adv-x="512" 
d="M362 1040v-237h-215v237h215zM344 635l33 -1057h-242l33 1057h176z" />
    <glyph glyph-name="cent" unicode="&#xa2;" 
d="M354 74v225q-121 29 -175 126t-52 277v250q0 186 53 280t174 124v221h219v-225q109 -27 159 -107t50 -227h-198q0 180 -123 180q-67 0 -95 -51t-28 -178v-281q0 -127 28 -178t94 -51t98 45q30 45 30 143h200q2 -153 -49 -235t-166 -109v-229h-219z" />
    <glyph glyph-name="sterling" unicode="&#xa3;" 
d="M72 0v160q178 68 178 311q0 70 -17 133h-163v187h100q-68 182 -68 313q0 377 349 377q217 0 303 -170q45 -92 47 -258h-209q-4 137 -34 190t-99 53q-131 0 -131 -211q0 -63 13 -115t65 -179h256v-187h-211q10 -78 10 -115q0 -195 -90 -303h452v-186h-751z" />
    <glyph glyph-name="currency" unicode="&#xa4;" 
d="M614 678q0 124 -48 194t-134 70t-135 -69t-49 -193t49 -195q49 -69 134 -69t134 70t49 192zM72 676q0 154 61 256l-125 149l107 101l121 -144q88 60 193 60t198 -60l118 144l109 -101l-125 -149q61 -104 61 -254t-61 -252l125 -150l-109 -100l-118 143q-93 -59 -197 -59
t-194 59l-121 -143l-107 100l125 150q-61 96 -61 250z" />
    <glyph glyph-name="yen" unicode="&#xa5;" 
d="M322 0v295h-224v135h224v102h-224v136h176l-288 794h237l211 -686l211 686h238l-291 -794h178v-136h-223v-102h223v-135h-223v-295h-225z" />
    <glyph glyph-name="brokenbar" unicode="&#xa6;" horiz-adv-x="739" 
d="M266 0v530h207v-530h-207zM266 907v555h207v-555h-207z" />
    <glyph glyph-name="section" unicode="&#xa7;" 
d="M590 589q0 71 -33 109t-133 86l-76 35l-10 -10q-64 -61 -64 -138t32 -116t134 -88l76 -35q6 8 12 14l21 25q41 47 41 118zM393 -51q160 0 160 145q0 72 -39 110q-40 38 -182 92t-202 125t-58 173q0 102 32 158t121 137q-61 49 -87 109t-25 159q0 326 319 326
q211 0 285 -140q31 -57 33 -184h-191q0 147 -119 148q-113 0 -112 -140q0 -81 37 -119t175 -92t195 -126t57 -172t-34 -163q-35 -62 -119 -133q73 -49 101 -106t28 -147q0 -336 -369 -336q-244 0 -317 155q-31 60 -33 191h193q2 -92 37 -131t114 -39z" />
    <glyph glyph-name="dieresis" unicode="&#xa8;" horiz-adv-x="1024" 
d="M573 1200v238h191v-238h-191zM260 1200v238h191v-238h-191z" />
    <glyph glyph-name="copyright" unicode="&#xa9;" horiz-adv-x="1583" 
d="M792 113q242 0 396 174t154 443q0 268 -154 444q-153 176 -395 176t-397 -173q-154 -173 -154 -445t154 -445q154 -174 396 -174zM792 1495q314 0 517 -218t203 -548t-204 -546t-516 -216t-517 216q-203 216 -203 549t203 548t517 215zM549 682v98q0 168 56 241
q55 73 195 73t195 -84q27 -37 33 -133h-151q-5 49 -23 71t-59 21q-41 0 -59 -38t-19 -134v-131q0 -96 19 -134q18 -38 62 -38t62 22t25 70h153q-2 -106 -45 -150q-61 -68 -195 -68t-192 73q-57 73 -57 241z" />
    <glyph glyph-name="ordfeminine" unicode="&#xaa;" horiz-adv-x="534" 
d="M322 1092h-62q-76 0 -76 -94t66 -95q72 0 72 88v101zM311 1192v47q0 71 -13 95t-47 24t-46 -14t-21 -56h-127q5 98 53 142t150 45q150 0 193 -86q23 -45 22 -170v-420h-129l-6 37q-47 -50 -136 -50t-131 46t-42 156q0 108 52 156t173 48h55z" />
    <glyph glyph-name="guillemotleft" unicode="&#xab;" horiz-adv-x="749" 
d="M258 604l125 -258l-133 -90l-219 348l219 348l133 -90zM596 604l123 -258l-133 -90l-217 348l217 348l133 -90z" />
    <glyph glyph-name="logicalnot" unicode="&#xac;" 
d="M96 651v170h635v-553h-207v383h-428z" />
    <glyph glyph-name="uni00AD" unicode="&#xad;" horiz-adv-x="669" 
d="M102 643v186h463v-186h-463z" />
    <glyph glyph-name="registered" unicode="&#xae;" horiz-adv-x="1245" 
d="M623 723q197 0 311 132t115 331q0 199 -117 330q-116 131 -310 131t-310 -131t-116 -329t119 -337q111 -127 308 -127zM625 1782q249 0 413 -171t164 -426t-165 -425t-415 -170t-414 169q-165 169 -165 427t166 427t416 169zM571 1206h60q35 0 49 20t14 64q0 80 -61 80
h-62v-164zM575 1122v-219h-141v565h213q100 0 144 -38q43 -39 43 -132q0 -127 -78 -161l100 -234h-149l-80 219h-52z" />
    <glyph glyph-name="macron" unicode="&#xaf;" horiz-adv-x="1024" 
d="M274 1249v156h476v-156h-476z" />
    <glyph glyph-name="degree" unicode="&#xb0;" horiz-adv-x="659" 
d="M329 1397q-128 0 -128 -163t128 -163t128 163t-128 163zM328 1530q146 0 228 -79q81 -79 81 -219t-81 -218t-227 -78t-228 78q-81 78 -81 220t81 219t227 77z" />
    <glyph glyph-name="plusminus" unicode="&#xb1;" 
d="M74 53v170h712v-170h-712zM74 651v170h264v318h184v-318h264v-170h-264v-317h-184v317h-264z" />
    <glyph glyph-name="twosuperior" unicode="&#xb2;" horiz-adv-x="604" 
d="M45 791v116l203 287q102 150 102 249t-63 99q-39 0 -55 -32t-19 -109h-158q3 151 59 215t183 63q233 0 233 -231q0 -96 -26 -156t-133 -209l-109 -153h264v-139h-481z" />
    <glyph glyph-name="threesuperior" unicode="&#xb3;" horiz-adv-x="604" 
d="M178 1188v125h76q100 0 100 114t-75 113q-39 0 -55 -24q-15 -25 -19 -91h-156q2 113 31 158q61 94 207 94q236 0 235 -235q0 -131 -71 -189q88 -66 88 -207q-1 -141 -61 -204t-187 -64q-182 0 -230 127q-18 49 -18 142h158q0 -72 18 -102t66 -30q86 0 86 123
q0 150 -107 150h-86z" />
    <glyph glyph-name="acute" unicode="&#xb4;" horiz-adv-x="1024" 
d="M399 1190l123 303h238l-201 -303h-160z" />
    <glyph glyph-name="mu" unicode="&#xb5;" 
d="M115 1040h207v-616q0 -154 22 -210t84 -56q61 0 88 68t27 220v594h205v-1040h-138l-26 109q-29 -74 -65 -103t-97 -29t-100 46v-484h-207v1501z" />
    <glyph glyph-name="paragraph" unicode="&#xb6;" horiz-adv-x="1073" 
d="M342 -279v959h-31q-105 0 -167 47t-98 139t-36 207q0 262 146 350q45 27 84 33t161 6h494v-1741h-201v1563h-151v-1563h-201z" />
    <glyph glyph-name="periodcentered" unicode="&#xb7;" horiz-adv-x="436" 
d="M106 616v238h226v-238h-226z" />
    <glyph glyph-name="cedilla" unicode="&#xb8;" horiz-adv-x="1024" 
d="M381 -471l72 334h204l-133 -334h-143z" />
    <glyph glyph-name="onesuperior" unicode="&#xb9;" horiz-adv-x="604" 
d="M248 791v702l-103 -51l-53 108l211 117h119v-876h-174z" />
    <glyph glyph-name="ordmasculine" unicode="&#xba;" horiz-adv-x="540" 
d="M340 1028v203q0 117 -70 117t-69 -117v-203q-1 -115 69 -115t70 115zM39 1042v177q0 137 54 196t177 59t177 -58q54 -60 55 -197v-177q0 -137 -54 -196q-54 -60 -178 -60q-123 0 -177 60t-54 196z" />
    <glyph glyph-name="guillemotright" unicode="&#xbb;" horiz-adv-x="749" 
d="M494 604l-123 258l133 90l217 -348l-217 -348l-133 90zM156 604l-123 258l133 90l219 -348l-219 -348l-133 90z" />
    <glyph glyph-name="onequarter" unicode="&#xbc;" horiz-adv-x="1488" 
d="M1145 0v154h-303v102l215 621h172l-203 -588h119v203h145v-203h62v-135h-62v-154h-145zM432 0l336 1462h197l-334 -1462h-199zM256 586v690l-111 -51l-61 133l227 104h119v-876h-174z" />
    <glyph glyph-name="onehalf" unicode="&#xbd;" horiz-adv-x="1488" 
d="M395 0l334 1462h199l-336 -1462h-197zM862 0v117l203 286q102 150 102 248t-63 99q-39 0 -54 -31t-20 -109h-158q4 150 60 213t182 64q233 0 234 -232q0 -94 -26 -152t-134 -210l-109 -154h264v-139h-481zM229 586v690l-110 -51l-62 133l228 104h118v-876h-174z" />
    <glyph glyph-name="threequarters" unicode="&#xbe;" horiz-adv-x="1488" 
d="M496 0l333 1462h199l-336 -1462h-196zM1194 0v154h-303v102l215 621h172l-203 -588h119v203h145v-203h62v-135h-62v-154h-145zM199 983v125h75q100 0 100 114t-75 113q-39 -1 -54 -25t-20 -89h-155q2 113 30 157q61 94 207 95q236 0 236 -236q0 -131 -72 -188
q88 -66 88 -207q0 -140 -60 -204t-188 -65q-182 0 -229 127q-18 49 -19 142h158q1 -72 19 -102t65 -29q86 0 86 123q0 150 -106 149h-86z" />
    <glyph glyph-name="questiondown" unicode="&#xbf;" horiz-adv-x="851" 
d="M559 1040v-237h-215v237h215zM541 641v-76q0 -121 -25 -191t-95 -164q-69 -93 -89 -143t-21 -126q0 -197 127 -197q70 0 99 52t34 190h207q-2 -218 -87 -322t-261 -104t-260 91t-84 279q0 131 35 213q35 81 119 183t106 150q20 48 21 114v51h174z" />
    <glyph glyph-name="Agrave" unicode="&#xc0;" horiz-adv-x="921" 
d="M553 1606h-158l-202 303h237zM606 485l-141 666l-143 -666h284zM647 303h-364l-66 -303h-244l398 1462h188l395 -1462h-243z" />
    <glyph glyph-name="Aacute" unicode="&#xc1;" horiz-adv-x="921" 
d="M367 1606l122 303h238l-201 -303h-159zM606 485l-141 666l-143 -666h284zM647 303h-364l-66 -303h-244l398 1462h188l395 -1462h-243z" />
    <glyph glyph-name="Acircumflex" unicode="&#xc2;" horiz-adv-x="921" 
d="M463 1774l-82 -162h-199l203 291h156l202 -291h-198zM606 485l-141 666l-143 -666h284zM647 303h-364l-66 -303h-244l398 1462h188l395 -1462h-243z" />
    <glyph glyph-name="Atilde" unicode="&#xc3;" horiz-adv-x="921" 
d="M369 1890q67 0 119 -62t71 -63q39 0 49 111h127q-8 -140 -49 -202t-122 -62t-127 62t-64 63q-48 0 -58 -111h-127q31 264 181 264zM606 485l-141 666l-143 -666h284zM647 303h-364l-66 -303h-244l398 1462h188l395 -1462h-243z" />
    <glyph glyph-name="Adieresis" unicode="&#xc4;" horiz-adv-x="921" 
d="M526 1618v235h191v-235h-191zM207 1618v235h190v-235h-190zM606 485l-141 666l-143 -666h284zM647 303h-364l-66 -303h-244l398 1462h188l395 -1462h-243z" />
    <glyph glyph-name="Aring" unicode="&#xc5;" horiz-adv-x="921" 
d="M547 1808q0 116 -85 115q-85 0 -85 -116t84 -115q86 0 86 116zM463 2028q97 0 157 -60t60 -158t-60 -160t-156 -62t-158 62t-62 160t60 158q61 60 159 60zM606 485l-141 666l-143 -666h284zM647 303h-364l-66 -303h-244l398 1462h188l395 -1462h-243z" />
    <glyph glyph-name="AE" unicode="&#xc6;" horiz-adv-x="1421" 
d="M690 508v768h-24l-299 -768h323zM690 326h-393l-127 -326h-260l635 1462h807v-186h-443v-445h375v-186h-375v-459h451v-186h-670v326z" />
    <glyph glyph-name="Ccedilla" unicode="&#xc7;" horiz-adv-x="931" 
d="M330 -471l71 334h205l-133 -334h-143zM488 -20q-224 0 -318 145q-68 102 -68 344v520q0 264 82 369q98 123 295 123q238 0 328 -187q41 -84 43 -241h-207q-8 139 -43 191t-120 52t-119 -70t-33 -251v-492q0 -180 34 -250q34 -69 125 -69q90 0 129 62t41 206h207
q-2 -186 -55 -280q-97 -172 -321 -172z" />
    <glyph glyph-name="Egrave" unicode="&#xc8;" horiz-adv-x="862" 
d="M582 1606h-158l-203 303h238zM127 0v1462h664v-186h-439v-445h371v-186h-371v-459h447v-186h-672z" />
    <glyph glyph-name="Eacute" unicode="&#xc9;" horiz-adv-x="862" 
d="M348 1606l123 303h238l-201 -303h-160zM127 0v1462h664v-186h-439v-445h371v-186h-371v-459h447v-186h-672z" />
    <glyph glyph-name="Ecircumflex" unicode="&#xca;" horiz-adv-x="862" 
d="M449 1774l-82 -162h-199l203 291h155l203 -291h-199zM127 0v1462h664v-186h-439v-445h371v-186h-371v-459h447v-186h-672z" />
    <glyph glyph-name="Edieresis" unicode="&#xcb;" horiz-adv-x="862" 
d="M522 1618v235h191v-235h-191zM203 1618v235h190v-235h-190zM127 0v1462h664v-186h-439v-445h371v-186h-371v-459h447v-186h-672z" />
    <glyph glyph-name="Igrave" unicode="&#xcc;" horiz-adv-x="477" 
d="M330 1606h-158l-203 303h238zM127 0v1462h225v-1462h-225z" />
    <glyph glyph-name="Iacute" unicode="&#xcd;" horiz-adv-x="477" 
d="M139 1606l123 303h238l-201 -303h-160zM121 0v1462h225v-1462h-225z" />
    <glyph glyph-name="Icircumflex" unicode="&#xce;" horiz-adv-x="477" 
d="M240 1774l-82 -162h-199l203 291h155l203 -291h-198zM127 0v1462h225v-1462h-225z" />
    <glyph glyph-name="Idieresis" unicode="&#xcf;" horiz-adv-x="477" 
d="M303 1618v235h191v-235h-191zM-16 1618v235h190v-235h-190zM127 0v1462h225v-1462h-225z" />
    <glyph glyph-name="Eth" unicode="&#xd0;" horiz-adv-x="1001" 
d="M350 829h164v-182h-164v-465h127q115 0 156 60t43 231v516q-2 171 -43 231t-156 60h-127v-451zM125 829v633h342q233 4 335 -97t97 -337v-594q2 -236 -99 -337t-333 -97h-342v647h-109v182h109z" />
    <glyph glyph-name="Ntilde" unicode="&#xd1;" horiz-adv-x="1064" 
d="M446 1890q68 0 120 -62t71 -63q39 0 49 111h127q-8 -140 -49 -202t-122 -62t-127 62t-64 63q-48 0 -58 -111h-127q31 264 180 264zM127 0v1462h223l379 -999v999h211v-1462h-213l-389 1012v-1012h-211z" />
    <glyph glyph-name="Ograve" unicode="&#xd2;" horiz-adv-x="1003" 
d="M614 1606h-157l-203 303h238zM676 467v528q0 168 -39 236q-39 67 -135 67t-135 -68t-39 -235v-528q0 -168 39 -236q39 -67 135 -67t135 68t39 235zM102 446v570q0 250 94 358t306 109q213 0 306 -110t93 -357v-570q0 -250 -93 -358t-306 -108q-212 0 -306 108t-94 358z
" />
    <glyph glyph-name="Oacute" unicode="&#xd3;" horiz-adv-x="1003" 
d="M387 1606l123 303h238l-201 -303h-160zM676 467v528q0 168 -39 236q-39 67 -135 67t-135 -68t-39 -235v-528q0 -168 39 -236q39 -67 135 -67t135 68t39 235zM102 446v570q0 250 94 358t306 109q213 0 306 -110t93 -357v-570q0 -250 -93 -358t-306 -108q-212 0 -306 108
t-94 358z" />
    <glyph glyph-name="Ocircumflex" unicode="&#xd4;" horiz-adv-x="1003" 
d="M502 1774l-82 -162h-199l203 291h156l202 -291h-198zM676 467v528q0 168 -39 236q-39 67 -135 67t-135 -68t-39 -235v-528q0 -168 39 -236q39 -67 135 -67t135 68t39 235zM102 446v570q0 250 94 358t306 109q213 0 306 -110t93 -357v-570q0 -250 -93 -358t-306 -108
q-212 0 -306 108t-94 358z" />
    <glyph glyph-name="Otilde" unicode="&#xd5;" horiz-adv-x="1003" 
d="M408 1890q68 0 120 -62t70 -63q41 0 49 111h127q-8 -140 -49 -202t-122 -62t-127 62t-64 63q-48 0 -58 -111h-127q31 264 181 264zM676 467v528q0 168 -39 236q-39 67 -135 67t-135 -68t-39 -235v-528q0 -168 39 -236q39 -67 135 -67t135 68t39 235zM102 446v570
q0 250 94 358t306 109q213 0 306 -110t93 -357v-570q0 -250 -93 -358t-306 -108q-212 0 -306 108t-94 358z" />
    <glyph glyph-name="Odieresis" unicode="&#xd6;" horiz-adv-x="1003" 
d="M565 1618v235h191v-235h-191zM246 1618v235h190v-235h-190zM676 467v528q0 168 -39 236q-39 67 -135 67t-135 -68t-39 -235v-528q0 -168 39 -236q39 -67 135 -67t135 68t39 235zM102 446v570q0 250 94 358t306 109q213 0 306 -110t93 -357v-570q0 -250 -93 -358
t-306 -108q-212 0 -306 108t-94 358z" />
    <glyph glyph-name="multiply" unicode="&#xd7;" 
d="M311 735l-258 258l121 121l256 -258l258 258l121 -121l-258 -258l258 -256l-121 -121l-258 258l-256 -258l-121 121z" />
    <glyph glyph-name="Oslash" unicode="&#xd8;" horiz-adv-x="1003" 
d="M326 995v-424l317 654q-47 73 -143 73t-135 -66t-39 -237zM502 164q98 0 137 66t39 237v422l-318 -651q44 -74 142 -74zM901 1016v-570q0 -250 -93 -358t-306 -108q-152 0 -240 53l-35 -72l-159 76l71 147q-37 98 -37 262v570q0 250 94 358t306 109q150 0 239 -53l33 69
l162 -76l-72 -147q37 -98 37 -260z" />
    <glyph glyph-name="Ugrave" unicode="&#xd9;" horiz-adv-x="1021" 
d="M627 1606h-158l-203 303h238zM123 1462h225v-1024q0 -137 23 -188q37 -86 135 -86q63 0 98 22t53 73q18 50 19 179v1024h225v-1024q0 -132 -13 -200t-52 -121q-98 -137 -333 -137t-329 159q-51 86 -51 299v1024z" />
    <glyph glyph-name="Uacute" unicode="&#xda;" horiz-adv-x="1021" 
d="M399 1606l123 303h238l-201 -303h-160zM123 1462h225v-1024q0 -137 23 -188q37 -86 135 -86q63 0 98 22t53 73q18 50 19 179v1024h225v-1024q0 -132 -13 -200t-52 -121q-98 -137 -333 -137t-329 159q-51 86 -51 299v1024z" />
    <glyph glyph-name="Ucircumflex" unicode="&#xdb;" horiz-adv-x="1021" 
d="M512 1774l-82 -162h-199l203 291h156l203 -291h-199zM123 1462h225v-1024q0 -137 23 -188q37 -86 135 -86q63 0 98 22t53 73q18 50 19 179v1024h225v-1024q0 -132 -13 -200t-52 -121q-98 -137 -333 -137t-329 159q-51 86 -51 299v1024z" />
    <glyph glyph-name="Udieresis" unicode="&#xdc;" horiz-adv-x="1021" 
d="M575 1618v235h191v-235h-191zM256 1618v235h190v-235h-190zM123 1462h225v-1024q0 -137 23 -188q37 -86 135 -86q63 0 98 22t53 73q18 50 19 179v1024h225v-1024q0 -132 -13 -200t-52 -121q-98 -137 -333 -137t-329 159q-51 86 -51 299v1024z" />
    <glyph glyph-name="Yacute" unicode="&#xdd;" horiz-adv-x="827" 
d="M322 1606l122 303h238l-201 -303h-159zM303 0v514l-338 948h238l213 -671l215 671h235l-338 -948v-514h-225z" />
    <glyph glyph-name="Thorn" unicode="&#xde;" horiz-adv-x="905" 
d="M346 500h105q106 0 145 66t39 214q0 147 -47 213q-35 57 -137 58h-105v-551zM352 315v-315h-225v1462h225v-229h99q127 0 201 -27q208 -77 208 -430q0 -246 -100 -360q-92 -100 -309 -101h-99z" />
    <glyph glyph-name="germandbls" unicode="&#xdf;" horiz-adv-x="864" 
d="M442 950q84 0 84 178t-112 179q-53 0 -76 -41t-23 -142v-1124h-215v1120q0 184 66 262q80 96 239 96t239 -81q80 -82 81 -237q0 -155 -66 -255q125 -90 123 -385v-71q2 -248 -67 -347q-70 -98 -250 -102h-62v174h35q84 4 107 50t22 212v94q-2 164 -26 214q-25 50 -101 47
h-22v159h24z" />
    <glyph glyph-name="agrave" unicode="&#xe0;" horiz-adv-x="823" 
d="M537 1190h-158l-203 303h238zM512 473h-82q-88 0 -125 -39t-37 -128t28 -121q28 -31 96 -31t94 36t26 132v151zM512 627v47q0 125 -26 172t-88 47t-88 -37t-25 -121h-201q2 154 49 221q80 115 260 115t257 -97t77 -317v-657h-168l-12 57q-67 -77 -213 -77t-214 74
t-67 250q0 175 71 249t245 74h143z" />
    <glyph glyph-name="aacute" unicode="&#xe1;" horiz-adv-x="823" 
d="M309 1190l123 303h238l-201 -303h-160zM512 473h-82q-88 0 -125 -39t-37 -128t28 -121q28 -31 96 -31t94 36t26 132v151zM512 627v47q0 125 -26 172t-88 47t-88 -37t-25 -121h-201q2 154 49 221q80 115 260 115t257 -97t77 -317v-657h-168l-12 57q-67 -77 -213 -77
t-214 74t-67 250q0 175 71 249t245 74h143z" />
    <glyph glyph-name="acircumflex" unicode="&#xe2;" horiz-adv-x="823" 
d="M422 1358l-82 -162h-199l203 291h156l202 -291h-198zM512 473h-82q-88 0 -125 -39t-37 -128t28 -121q28 -31 96 -31t94 36t26 132v151zM512 627v47q0 125 -26 172t-88 47t-88 -37t-25 -121h-201q2 154 49 221q80 115 260 115t257 -97t77 -317v-657h-168l-12 57
q-67 -77 -213 -77t-214 74t-67 250q0 175 71 249t245 74h143z" />
    <glyph glyph-name="atilde" unicode="&#xe3;" horiz-adv-x="823" 
d="M520 1350q39 0 49 112h127q-6 -100 -26 -157q-41 -109 -146 -109q-78 0 -125 64t-65 63q-48 0 -58 -113h-126q31 264 177 266q73 0 122 -63q53 -63 71 -63zM512 473h-82q-88 0 -125 -39t-37 -128t28 -121q28 -31 96 -31t94 36t26 132v151zM512 627v47q0 125 -26 172
t-88 47t-88 -37t-25 -121h-201q2 154 49 221q80 115 260 115t257 -97t77 -317v-657h-168l-12 57q-67 -77 -213 -77t-214 74t-67 250q0 175 71 249t245 74h143z" />
    <glyph glyph-name="adieresis" unicode="&#xe4;" horiz-adv-x="823" 
d="M483 1200v238h191v-238h-191zM170 1200v238h190v-238h-190zM512 473h-82q-88 0 -125 -39t-37 -128t28 -121q28 -31 96 -31t94 36t26 132v151zM512 627v47q0 125 -26 172t-88 47t-88 -37t-25 -121h-201q2 154 49 221q80 115 260 115t257 -97t77 -317v-657h-168l-12 57
q-67 -77 -213 -77t-214 74t-67 250q0 175 71 249t245 74h143z" />
    <glyph glyph-name="aring" unicode="&#xe5;" horiz-adv-x="823" 
d="M423 1507q-85 1 -85 -115t85 -116t85 116t-85 115zM424 1612q98 0 158 -60t59 -158q0 -98 -60 -160q-61 -62 -157 -62t-158 62t-61 160t61 158t158 60zM512 473h-82q-88 0 -125 -39t-37 -128t28 -121q28 -31 96 -31t94 36t26 132v151zM512 627v47q0 125 -26 172t-88 47
t-88 -37t-25 -121h-201q2 154 49 221q80 115 260 115t257 -97t77 -317v-657h-168l-12 57q-67 -77 -213 -77t-214 74t-67 250q0 175 71 249t245 74h143z" />
    <glyph glyph-name="ae" unicode="&#xe6;" horiz-adv-x="1269" 
d="M727 631h256v57q0 117 -29 163q-30 46 -102 46t-98 -45t-27 -164v-57zM512 475h-82q-88 0 -125 -40t-37 -129t27 -121q27 -31 97 -31t94 36q26 36 26 129v156zM285 735h-201q2 154 49 221q74 115 241 115t251 -100q85 100 249 100t239 -105t75 -343v-148h-461v-94
q0 -125 28 -174t95 -49t97 40t30 128h199q-2 -154 -46 -224q-72 -122 -252 -122t-262 106q-88 -106 -258 -106t-238 74t-67 251q0 176 71 250t245 74h143v43q0 125 -26 173t-88 48t-88 -37t-25 -121z" />
    <glyph glyph-name="ccedilla" unicode="&#xe7;" horiz-adv-x="780" 
d="M244 -471l71 334h205l-133 -334h-143zM535 332h200q-2 -160 -49 -234q-80 -118 -261 -118t-258 100t-77 323v248q0 213 66 310q80 113 258 112q207 0 280 -149q31 -66 33 -205h-197q0 176 -112 176q-61 0 -87 -51t-26 -176v-281q0 -125 26 -177t89 -52q115 0 115 174z
" />
    <glyph glyph-name="egrave" unicode="&#xe8;" horiz-adv-x="845" 
d="M551 1190h-158l-203 303h238zM305 637h254v49q0 119 -29 165q-28 46 -100 46t-98 -46t-27 -165v-49zM305 475v-96q0 -123 28 -172t94 -49t96 40t30 128h199q-2 -154 -47 -226q-77 -120 -267 -120t-269 104t-79 342v197q0 238 79 343t259 105t258 -104t78 -344v-148h-459z
" />
    <glyph glyph-name="eacute" unicode="&#xe9;" horiz-adv-x="845" 
d="M324 1190l122 303h238l-201 -303h-159zM305 637h254v49q0 119 -29 165q-28 46 -100 46t-98 -46t-27 -165v-49zM305 475v-96q0 -123 28 -172t94 -49t96 40t30 128h199q-2 -154 -47 -226q-77 -120 -267 -120t-269 104t-79 342v197q0 238 79 343t259 105t258 -104t78 -344
v-148h-459z" />
    <glyph glyph-name="ecircumflex" unicode="&#xea;" horiz-adv-x="845" 
d="M436 1358l-82 -162h-198l202 291h156l203 -291h-199zM305 637h254v49q0 119 -29 165q-28 46 -100 46t-98 -46t-27 -165v-49zM305 475v-96q0 -123 28 -172t94 -49t96 40t30 128h199q-2 -154 -47 -226q-77 -120 -267 -120t-269 104t-79 342v197q0 238 79 343t259 105
t258 -104t78 -344v-148h-459z" />
    <glyph glyph-name="edieresis" unicode="&#xeb;" horiz-adv-x="845" 
d="M498 1200v238h190v-238h-190zM184 1200v238h191v-238h-191zM305 637h254v49q0 119 -29 165q-28 46 -100 46t-98 -46t-27 -165v-49zM305 475v-96q0 -123 28 -172t94 -49t96 40t30 128h199q-2 -154 -47 -226q-77 -120 -267 -120t-269 104t-79 342v197q0 238 79 343t259 105
t258 -104t78 -344v-148h-459z" />
    <glyph glyph-name="igrave" unicode="&#xec;" horiz-adv-x="428" 
d="M328 1190h-158l-203 303h238zM106 0v1051h216v-1051h-216z" />
    <glyph glyph-name="iacute" unicode="&#xed;" horiz-adv-x="428" 
d="M100 1190l123 303h238l-201 -303h-160zM106 0v1051h216v-1051h-216z" />
    <glyph glyph-name="icircumflex" unicode="&#xee;" horiz-adv-x="428" 
d="M213 1358l-82 -162h-199l203 291h156l203 -291h-199zM106 0v1051h216v-1051h-216z" />
    <glyph glyph-name="idieresis" unicode="&#xef;" horiz-adv-x="428" 
d="M274 1200v238h191v-238h-191zM-39 1200v238h191v-238h-191zM106 0v1051h216v-1051h-216z" />
    <glyph glyph-name="eth" unicode="&#xf0;" horiz-adv-x="858" 
d="M553 389v248q0 125 -29 178q-30 53 -96 53t-94 -53t-29 -178v-248q0 -125 29 -178q30 -53 96 -53t94 53t29 178zM90 379v270q0 203 71 300t218 98q78 0 119 -33q-20 98 -74 178l-150 -94l-71 100l127 80l-35 27q-41 29 -92 41l28 147q145 -18 258 -104l127 79l72 -102
l-100 -61q174 -215 180 -666v-260q0 -213 -79 -306t-260 -93t-260 93t-79 306z" />
    <glyph glyph-name="ntilde" unicode="&#xf1;" horiz-adv-x="866" 
d="M530 1350q39 0 50 112h127q-6 -100 -27 -157q-41 -109 -145 -109q-78 0 -125 64t-66 63q-47 0 -57 -113h-127q31 264 177 266q73 0 122 -63q53 -63 71 -63zM102 0v1051h160l17 -86q47 59 94 83t128 24t147 -42q66 -40 94 -112t28 -242v-676h-215v647q0 133 -26 185
q-27 52 -93 53q-66 -1 -92 -57t-27 -201v-627h-215z" />
    <glyph glyph-name="ograve" unicode="&#xf2;" horiz-adv-x="858" 
d="M543 1190h-158l-203 303h238zM553 381v289q0 125 -27 174q-26 49 -96 49t-98 -49t-27 -174v-289q0 -125 28 -174q27 -49 97 -49t96 49t27 174zM90 399v252q0 223 80 321t260 99q180 0 259 -98t79 -322v-252q0 -223 -79 -321t-260 -98t-260 98t-79 321z" />
    <glyph glyph-name="oacute" unicode="&#xf3;" horiz-adv-x="858" 
d="M315 1190l123 303h238l-201 -303h-160zM553 381v289q0 125 -27 174q-26 49 -96 49t-98 -49t-27 -174v-289q0 -125 28 -174q27 -49 97 -49t96 49t27 174zM90 399v252q0 223 80 321t260 99q180 0 259 -98t79 -322v-252q0 -223 -79 -321t-260 -98t-260 98t-79 321z" />
    <glyph glyph-name="ocircumflex" unicode="&#xf4;" horiz-adv-x="858" 
d="M428 1358l-82 -162h-199l203 291h156l203 -291h-199zM553 381v289q0 125 -27 174q-26 49 -96 49t-98 -49t-27 -174v-289q0 -125 28 -174q27 -49 97 -49t96 49t27 174zM90 399v252q0 223 80 321t260 99q180 0 259 -98t79 -322v-252q0 -223 -79 -321t-260 -98t-260 98
t-79 321z" />
    <glyph glyph-name="otilde" unicode="&#xf5;" horiz-adv-x="858" 
d="M526 1350q39 0 49 112h127q-6 -100 -26 -157q-41 -109 -146 -109q-78 0 -125 64t-65 63q-47 0 -57 -113h-127q31 264 177 266q73 0 122 -63q53 -63 71 -63zM553 381v289q0 125 -27 174q-26 49 -96 49t-98 -49t-27 -174v-289q0 -125 28 -174q27 -49 97 -49t96 49t27 174z
M90 399v252q0 223 80 321t260 99q180 0 259 -98t79 -322v-252q0 -223 -79 -321t-260 -98t-260 98t-79 321z" />
    <glyph glyph-name="odieresis" unicode="&#xf6;" horiz-adv-x="858" 
d="M492 1200v238h190v-238h-190zM178 1200v238h191v-238h-191zM553 381v289q0 125 -27 174q-26 49 -96 49t-98 -49t-27 -174v-289q0 -125 28 -174q27 -49 97 -49t96 49t27 174zM90 399v252q0 223 80 321t260 99q180 0 259 -98t79 -322v-252q0 -223 -79 -321t-260 -98
t-260 98t-79 321z" />
    <glyph glyph-name="divide" unicode="&#xf7;" 
d="M334 961v204h192v-204h-192zM334 305v205h192v-205h-192zM74 651v170h712v-170h-712z" />
    <glyph glyph-name="oslash" unicode="&#xf8;" horiz-adv-x="858" 
d="M426 893q-64 0 -92 -57t-29 -191v-209l215 408q-30 49 -94 49zM432 158q64 0 92 57t29 193v210l-217 -409q32 -51 96 -51zM768 629v-207q0 -230 -81 -336t-257 -106q-106 0 -192 47l-33 -64l-121 62l57 106q-51 96 -51 291v207q0 231 81 337t257 105q113 0 190 -45l33 64
l121 -64l-57 -104q53 -96 53 -293z" />
    <glyph glyph-name="ugrave" unicode="&#xf9;" horiz-adv-x="845" 
d="M537 1190h-158l-203 303h238zM96 1051h215v-648q0 -133 23 -185t84 -52t86 57t24 203v625h215v-1051h-161l-15 86q-47 -61 -91 -84t-114 -22q-180 0 -237 153q-29 72 -29 242v676z" />
    <glyph glyph-name="uacute" unicode="&#xfa;" horiz-adv-x="845" 
d="M309 1190l123 303h238l-201 -303h-160zM96 1051h215v-648q0 -133 23 -185t84 -52t86 57t24 203v625h215v-1051h-161l-15 86q-47 -61 -91 -84t-114 -22q-180 0 -237 153q-29 72 -29 242v676z" />
    <glyph glyph-name="ucircumflex" unicode="&#xfb;" horiz-adv-x="845" 
d="M422 1358l-82 -162h-199l203 291h156l202 -291h-198zM96 1051h215v-648q0 -133 23 -185t84 -52t86 57t24 203v625h215v-1051h-161l-15 86q-47 -61 -91 -84t-114 -22q-180 0 -237 153q-29 72 -29 242v676z" />
    <glyph glyph-name="udieresis" unicode="&#xfc;" horiz-adv-x="845" 
d="M485 1200v238h191v-238h-191zM172 1200v238h190v-238h-190zM96 1051h215v-648q0 -133 23 -185t84 -52t86 57t24 203v625h215v-1051h-161l-15 86q-47 -61 -91 -84t-114 -22q-180 0 -237 153q-29 72 -29 242v676z" />
    <glyph glyph-name="yacute" unicode="&#xfd;" horiz-adv-x="774" 
d="M293 1190l123 303h237l-200 -303h-160zM279 -4l-259 1055h216l151 -770l143 770h218l-269 -1176q-47 -213 -125 -279t-282 -67v180q96 -2 128 30t60 157z" />
    <glyph glyph-name="thorn" unicode="&#xfe;" 
d="M559 397v289q0 199 -113 199q-129 0 -129 -262v-193q0 -264 127 -264q115 0 115 231zM319 -461h-215v1923h215v-463q55 72 189 72t199 -96q66 -96 65 -303v-248q0 -233 -66 -339q-67 -105 -214 -105q-112 0 -173 55v-496z" />
    <glyph glyph-name="ydieresis" unicode="&#xff;" horiz-adv-x="774" 
d="M449 1200v238h190v-238h-190zM135 1200v238h191v-238h-191zM279 -4l-259 1055h216l151 -770l143 770h218l-269 -1176q-47 -213 -125 -279t-282 -67v180q96 -2 128 30t60 157z" />
    <glyph glyph-name="Amacron" unicode="&#x100;" horiz-adv-x="921" 
d="M223 1665v156h475v-156h-475zM606 485l-141 666l-143 -666h284zM647 303h-364l-66 -303h-244l398 1462h188l395 -1462h-243z" />
    <glyph glyph-name="amacron" unicode="&#x101;" horiz-adv-x="823" 
d="M174 1249v156h475v-156h-475zM512 473h-82q-88 0 -125 -39t-37 -128t28 -121q28 -31 96 -31t94 36t26 132v151zM512 627v47q0 125 -26 172t-88 47t-88 -37t-25 -121h-201q2 154 49 221q80 115 260 115t257 -97t77 -317v-657h-168l-12 57q-67 -77 -213 -77t-214 74
t-67 250q0 175 71 249t245 74h143z" />
    <glyph glyph-name="Abreve" unicode="&#x102;" horiz-adv-x="921" 
d="M461 1749q63 0 89 32t36 115h135q-4 -131 -31 -186q-59 -117 -237 -117t-232 136q-18 54 -20 167h133q8 -84 36 -116t91 -31zM606 485l-141 666l-143 -666h284zM647 303h-364l-66 -303h-244l398 1462h188l395 -1462h-243z" />
    <glyph glyph-name="abreve" unicode="&#x103;" horiz-adv-x="823" 
d="M422 1331q63 0 90 31t35 117h135q-4 -131 -31 -187q-57 -116 -236 -116t-233 137q-18 51 -20 166h133q8 -84 36 -116t91 -32zM512 473h-82q-88 0 -125 -39t-37 -128t28 -121q28 -31 96 -31t94 36t26 132v151zM512 627v47q0 125 -26 172t-88 47t-88 -37t-25 -121h-201
q2 154 49 221q80 115 260 115t257 -97t77 -317v-657h-168l-12 57q-67 -77 -213 -77t-214 74t-67 250q0 175 71 249t245 74h143z" />
    <glyph glyph-name="Aogonek" unicode="&#x104;" horiz-adv-x="921" 
d="M606 485l-141 666l-143 -666h284zM823 -213q0 -76 68 -76q43 0 92 21l25 -113q-72 -35 -166 -35q-209 0 -209 158q0 115 112 215q12 8 52 43h-86l-64 303h-364l-66 -303h-244l398 1462h188l395 -1462l-53 -55q-78 -82 -78 -158z" />
    <glyph glyph-name="aogonek" unicode="&#x105;" horiz-adv-x="823" 
d="M512 473h-82q-88 0 -125 -39t-37 -128t28 -121q28 -31 96 -31t94 36t26 132v151zM727 657v-657l-53 -55q-80 -80 -80 -157t70 -77q33 0 92 21l22 -113q-76 -35 -164 -35q-211 0 -211 158q0 70 36 126t130 132h-10l-12 57q-67 -77 -213 -77t-214 74t-67 250q0 175 71 249
t245 74h143v47q0 125 -26 172t-88 47t-88 -37t-25 -121h-201q2 154 49 221q80 115 260 115q180 1 257 -97t77 -317z" />
    <glyph glyph-name="Cacute" unicode="&#x106;" horiz-adv-x="931" 
d="M369 1606l123 303h237l-201 -303h-159zM488 -20q-224 0 -318 145q-68 102 -68 344v520q0 264 82 369q98 123 295 123q238 0 328 -187q41 -84 43 -241h-207q-8 139 -43 191t-120 52t-119 -70t-33 -251v-492q0 -180 34 -250q34 -69 125 -69q90 0 129 62t41 206h207
q-2 -186 -55 -280q-97 -172 -321 -172z" />
    <glyph glyph-name="cacute" unicode="&#x107;" horiz-adv-x="780" 
d="M313 1190l123 303h238l-201 -303h-160zM535 332h200q-2 -160 -49 -234q-80 -118 -261 -118t-258 100t-77 323v248q0 213 66 310q80 113 258 112q207 0 280 -149q31 -66 33 -205h-197q0 176 -112 176q-61 0 -87 -51t-26 -176v-281q0 -125 26 -177t89 -52q115 0 115 174z
" />
    <glyph glyph-name="Ccircumflex" unicode="&#x108;" horiz-adv-x="931" 
d="M479 1774l-82 -162h-198l202 291h156l203 -291h-199zM488 -20q-224 0 -318 145q-68 102 -68 344v520q0 264 82 369q98 123 295 123q238 0 328 -187q41 -84 43 -241h-207q-8 139 -43 191t-120 52t-119 -70t-33 -251v-492q0 -180 34 -250q34 -69 125 -69q90 0 129 62
t41 206h207q-2 -186 -55 -280q-97 -172 -321 -172z" />
    <glyph glyph-name="ccircumflex" unicode="&#x109;" horiz-adv-x="780" 
d="M412 1358l-82 -162h-199l203 291h155l203 -291h-198zM535 332h200q-2 -160 -49 -234q-80 -118 -261 -118t-258 100t-77 323v248q0 213 66 310q80 113 258 112q207 0 280 -149q31 -66 33 -205h-197q0 176 -112 176q-61 0 -87 -51t-26 -176v-281q0 -125 26 -177t89 -52
q115 0 115 174z" />
    <glyph glyph-name="Cdotaccent" unicode="&#x10a;" horiz-adv-x="931" 
d="M381 1612v239h207v-239h-207zM488 -20q-224 0 -318 145q-68 102 -68 344v520q0 264 82 369q98 123 295 123q238 0 328 -187q41 -84 43 -241h-207q-8 139 -43 191t-120 52t-119 -70t-33 -251v-492q0 -180 34 -250q34 -69 125 -69q90 0 129 62t41 206h207q-2 -186 -55 -280
q-97 -172 -321 -172z" />
    <glyph glyph-name="cdotaccent" unicode="&#x10b;" horiz-adv-x="780" 
d="M315 1198v240h207v-240h-207zM535 332h200q-2 -160 -49 -234q-80 -118 -261 -118t-258 100t-77 323v248q0 213 66 310q80 113 258 112q207 0 280 -149q31 -66 33 -205h-197q0 176 -112 176q-61 0 -87 -51t-26 -176v-281q0 -125 26 -177t89 -52q115 0 115 174z" />
    <glyph glyph-name="Ccaron" unicode="&#x10c;" horiz-adv-x="931" 
d="M492 1737l81 161h199l-203 -290h-155l-203 290h199zM488 -20q-224 0 -318 145q-68 102 -68 344v520q0 264 82 369q98 123 295 123q238 0 328 -187q41 -84 43 -241h-207q-8 139 -43 191t-120 52t-119 -70t-33 -251v-492q0 -180 34 -250q34 -69 125 -69q90 0 129 62t41 206
h207q-2 -186 -55 -280q-97 -172 -321 -172z" />
    <glyph glyph-name="ccaron" unicode="&#x10d;" horiz-adv-x="780" 
d="M414 1321l82 162h198l-202 -291h-156l-203 291h199zM535 332h200q-2 -160 -49 -234q-80 -118 -261 -118t-258 100t-77 323v248q0 213 66 310q80 113 258 112q207 0 280 -149q31 -66 33 -205h-197q0 176 -112 176q-61 0 -87 -51t-26 -176v-281q0 -125 26 -177t89 -52
q115 0 115 174z" />
    <glyph glyph-name="Dcaron" unicode="&#x10e;" horiz-adv-x="1001" 
d="M465 1737l82 161h198l-202 -290h-156l-203 290h199zM352 182h125q117 0 157 60t42 231v516q-2 171 -42 231t-157 60h-125v-1098zM127 0v1462h344q231 4 333 -97t97 -337v-594q4 -236 -97 -337t-333 -97h-344z" />
    <glyph glyph-name="dcaron" unicode="&#x10f;" horiz-adv-x="1044" 
d="M834 969l51 518h200l-102 -518h-149zM305 686v-285q0 -236 115 -235q125 0 125 264v193q0 262 -127 262q-113 0 -113 -199zM379 -20q-153 0 -221 104t-68 340v248q0 207 67 303t212 96q100 0 176 -70v461h215v-1462h-166l-12 72q-50 -52 -94 -72t-109 -20z" />
    <glyph glyph-name="Dcroat" unicode="&#x110;" horiz-adv-x="1001" 
d="M350 829h164v-182h-164v-465h127q115 0 156 60t43 231v516q-2 171 -43 231t-156 60h-127v-451zM125 829v633h342q233 4 335 -97t97 -337v-594q2 -236 -99 -337t-333 -97h-342v647h-109v182h109z" />
    <glyph glyph-name="dcroat" unicode="&#x111;" 
d="M303 686v-285q0 -125 27 -180t86 -55q127 0 127 264v193q0 262 -127 262q-113 0 -113 -199zM543 1169h-213v152h213v141h215v-141h106v-152h-106v-1169h-166l-12 72q-50 -52 -94 -72t-109 -20q-151 0 -219 104t-68 340v248q0 207 66 303t209 96q102 0 178 -70v168z" />
    <glyph glyph-name="Emacron" unicode="&#x112;" horiz-adv-x="862" 
d="M217 1665v156h475v-156h-475zM127 0v1462h664v-186h-439v-445h371v-186h-371v-459h447v-186h-672z" />
    <glyph glyph-name="emacron" unicode="&#x113;" horiz-adv-x="845" 
d="M193 1249v156h475v-156h-475zM305 637h254v49q0 119 -29 165q-28 46 -100 46t-98 -46t-27 -165v-49zM305 475v-96q0 -123 28 -172t94 -49t96 40t30 128h199q-2 -154 -47 -226q-77 -120 -267 -120t-269 104t-79 342v197q0 238 79 343t259 105t258 -104t78 -344v-148h-459z
" />
    <glyph glyph-name="Ebreve" unicode="&#x114;" horiz-adv-x="862" 
d="M469 1749q63 0 89 32t36 115h135q-4 -131 -31 -186q-59 -117 -237 -117t-232 136q-18 54 -20 167h133q8 -84 36 -116t91 -31zM127 0v1462h664v-186h-439v-445h371v-186h-371v-459h447v-186h-672z" />
    <glyph glyph-name="ebreve" unicode="&#x115;" horiz-adv-x="845" 
d="M440 1331q63 0 90 31t35 117h135q-4 -131 -30 -187q-60 -116 -238 -116t-231 137q-19 51 -21 166h133q8 -84 36 -116t91 -32zM305 637h254v49q0 119 -29 165q-28 46 -100 46t-98 -46t-27 -165v-49zM305 475v-96q0 -123 28 -172t94 -49t96 40t30 128h199q-2 -154 -47 -226
q-77 -120 -267 -120t-269 104t-79 342v197q0 238 79 343t259 105t258 -104t78 -344v-148h-459z" />
    <glyph glyph-name="Edotaccent" unicode="&#x116;" horiz-adv-x="862" 
d="M373 1612v239h207v-239h-207zM127 0v1462h664v-186h-439v-445h371v-186h-371v-459h447v-186h-672z" />
    <glyph glyph-name="edotaccent" unicode="&#x117;" horiz-adv-x="845" 
d="M334 1198v240h207v-240h-207zM305 637h254v49q0 119 -29 165q-28 46 -100 46t-98 -46t-27 -165v-49zM305 475v-96q0 -123 28 -172t94 -49t96 40t30 128h199q-2 -154 -47 -226q-77 -120 -267 -120t-269 104t-79 342v197q0 238 79 343t259 105t258 -104t78 -344v-148h-459z
" />
    <glyph glyph-name="Eogonek" unicode="&#x118;" horiz-adv-x="862" 
d="M127 0v1462h664v-186h-439v-445h371v-186h-371v-459h447v-186q-78 -78 -105 -123t-26 -96q0 -70 67 -70q37 0 92 21l23 -113q-76 -35 -164 -35q-209 0 -209 160q0 139 166 256h-516z" />
    <glyph glyph-name="eogonek" unicode="&#x119;" horiz-adv-x="845" 
d="M307 637h254v49q0 119 -29 165q-28 46 -100 46t-98 -46t-27 -165v-49zM307 475v-96q0 -123 28 -172t94 -49t96 40t30 128h199q0 -219 -117 -295l-21 -21q-121 -129 -120 -227q0 -72 67 -72q37 0 92 21l23 -113q-76 -35 -164 -35q-209 0 -209 160q0 125 113 236
q-174 4 -251 109t-75 337v197q0 238 79 343t259 105t258 -104t78 -344v-148h-459z" />
    <glyph glyph-name="Ecaron" unicode="&#x11a;" horiz-adv-x="862" 
d="M471 1737l82 161h199l-203 -290h-156l-203 290h199zM127 0v1462h664v-186h-439v-445h371v-186h-371v-459h447v-186h-672z" />
    <glyph glyph-name="ecaron" unicode="&#x11b;" horiz-adv-x="845" 
d="M436 1321l82 162h199l-203 -291h-156l-202 291h198zM305 637h254v49q0 119 -29 165q-28 46 -100 46t-98 -46t-27 -165v-49zM305 475v-96q0 -123 28 -172t94 -49t96 40t30 128h199q-2 -154 -47 -226q-77 -120 -267 -120t-269 104t-79 342v197q0 238 79 343t259 105
t258 -104t78 -344v-148h-459z" />
    <glyph glyph-name="Gcircumflex" unicode="&#x11c;" horiz-adv-x="978" 
d="M496 1774l-82 -162h-199l203 291h155l203 -291h-198zM514 612v176h383v-278q0 -262 -72 -375q-98 -155 -325 -155t-328 145q-70 102 -70 344v520q0 266 86 369q98 123 301 123q242 0 334 -189q39 -80 41 -239h-207q-6 135 -42 189q-37 54 -125 54t-125 -70t-37 -251v-492
q0 -175 39 -247t133 -72t134 70t40 229v149h-160z" />
    <glyph glyph-name="gcircumflex" unicode="&#x11d;" horiz-adv-x="862" 
d="M438 1358l-82 -162h-198l202 291h156l203 -291h-199zM305 686v-283q0 -125 28 -181t87 -56q125 0 125 264v193q0 262 -127 262q-113 0 -113 -199zM545 -68v103q-74 -55 -168 -55q-151 0 -219 104t-68 340v248q0 207 67 303t210 96q65 1 111 -21t93 -75l23 76h166v-1088
q0 -225 -70 -325q-84 -119 -276 -119t-256 135q-29 59 -31 184h190q2 -80 26 -114q25 -34 87 -33q62 0 88 52t27 189z" />
    <glyph glyph-name="Gbreve" unicode="&#x11e;" horiz-adv-x="978" 
d="M489 1749q63 0 90 32q26 32 35 115h136q-4 -131 -31 -186q-59 -117 -237 -117t-232 136q-19 54 -21 167h133q8 -84 36 -116t91 -31zM514 612v176h383v-278q0 -262 -72 -375q-98 -155 -325 -155t-328 145q-70 102 -70 344v520q0 266 86 369q98 123 301 123q242 0 334 -189
q39 -80 41 -239h-207q-6 135 -42 189q-37 54 -125 54t-125 -70t-37 -251v-492q0 -175 39 -247t133 -72t134 70t40 229v149h-160z" />
    <glyph glyph-name="gbreve" unicode="&#x11f;" horiz-adv-x="862" 
d="M442 1331q63 0 90 31t35 117h135q-4 -131 -30 -187q-56 -116 -236 -116t-233 137q-19 51 -21 166h133q8 -84 36 -116t91 -32zM305 686v-283q0 -125 28 -181t87 -56q125 0 125 264v193q0 262 -127 262q-113 0 -113 -199zM545 -68v103q-74 -55 -168 -55q-151 0 -219 104
t-68 340v248q0 207 67 303t210 96q65 1 111 -21t93 -75l23 76h166v-1088q0 -225 -70 -325q-84 -119 -276 -119t-256 135q-29 59 -31 184h190q2 -80 26 -114q25 -34 87 -33q62 0 88 52t27 189z" />
    <glyph glyph-name="Gdotaccent" unicode="&#x120;" horiz-adv-x="978" 
d="M387 1612v239h207v-239h-207zM514 612v176h383v-278q0 -262 -72 -375q-98 -155 -325 -155t-328 145q-70 102 -70 344v520q0 266 86 369q98 123 301 123q242 0 334 -189q39 -80 41 -239h-207q-6 135 -42 189q-37 54 -125 54t-125 -70t-37 -251v-492q0 -175 39 -247
t133 -72t134 70t40 229v149h-160z" />
    <glyph glyph-name="gdotaccent" unicode="&#x121;" horiz-adv-x="862" 
d="M358 1198v240h207v-240h-207zM305 686v-283q0 -125 28 -181t87 -56q125 0 125 264v193q0 262 -127 262q-113 0 -113 -199zM545 -68v103q-74 -55 -168 -55q-151 0 -219 104t-68 340v248q0 207 67 303t210 96q65 1 111 -21t93 -75l23 76h166v-1088q0 -225 -70 -325
q-84 -119 -276 -119t-256 135q-29 59 -31 184h190q2 -80 26 -114q25 -34 87 -33q62 0 88 52t27 189z" />
    <glyph glyph-name="Gcommaaccent" unicode="&#x122;" horiz-adv-x="978" 
d="M338 -471l72 334h204l-133 -334h-143zM514 612v176h383v-278q0 -262 -72 -375q-98 -155 -325 -155t-328 145q-70 102 -70 344v520q0 266 86 369q98 123 301 123q242 0 334 -189q39 -80 41 -239h-207q-6 135 -42 189q-37 54 -125 54t-125 -70t-37 -251v-492
q0 -175 39 -247t133 -72t134 70t40 229v149h-160z" />
    <glyph glyph-name="gcommaaccent" unicode="&#x123;" horiz-adv-x="862" 
d="M330 1190l202 303h158l-123 -303h-237zM305 686v-283q0 -125 28 -181t87 -56q125 0 125 264v193q0 262 -127 262q-113 0 -113 -199zM545 -68v103q-74 -55 -168 -55q-151 0 -219 104t-68 340v248q0 207 67 303t210 96q65 1 111 -21t93 -75l23 76h166v-1088
q0 -225 -70 -325q-84 -119 -276 -119t-256 135q-29 59 -31 184h190q2 -80 26 -114q25 -34 87 -33q62 0 88 52t27 189z" />
    <glyph glyph-name="Hcircumflex" unicode="&#x124;" horiz-adv-x="1015" 
d="M510 1774l-82 -162h-199l203 291h156l203 -291h-199zM127 0v1462h225v-631h314v631h225v-1462h-225v645h-314v-645h-225z" />
    <glyph glyph-name="hcircumflex" unicode="&#x125;" horiz-adv-x="866" 
d="M287 1774l-82 -162h-199l203 291h156l202 -291h-198zM102 0v1462h215v-452q69 61 167 61t164 -41q66 -40 94 -112t28 -242v-676h-215v647q0 135 -25 187q-24 52 -92 51t-94 -57t-27 -201v-627h-215z" />
    <glyph glyph-name="Hbar" unicode="&#x126;" horiz-adv-x="1015" 
d="M352 831h314v183h-314v-183zM127 0v1014h-115v164h115v284h225v-284h314v284h225v-284h113v-164h-113v-1014h-225v645h-314v-645h-225z" />
    <glyph glyph-name="hbar" unicode="&#x127;" horiz-adv-x="872" 
d="M104 1169h-110v152h110v141h215v-141h209v-152h-209v-159q69 61 167 61t164 -41q66 -40 94 -112t28 -242v-676h-215v647q0 133 -25 185q-26 52 -92 53q-66 -1 -94 -57t-27 -201v-627h-215v1169z" />
    <glyph glyph-name="Itilde" unicode="&#x128;" horiz-adv-x="477" 
d="M145 1890q68 0 120 -62t71 -63q41 0 49 111h127q-8 -140 -49 -202t-122 -62t-127 62t-64 63q-48 0 -58 -111h-127q31 264 180 264zM127 0v1462h225v-1462h-225z" />
    <glyph glyph-name="itilde" unicode="&#x129;" horiz-adv-x="428" 
d="M311 1350q39 0 49 112h127q-6 -100 -26 -157q-41 -109 -146 -109q-78 0 -125 64t-65 63q-47 0 -57 -113h-127q31 264 177 266q73 0 122 -63q53 -63 71 -63zM106 0v1051h216v-1051h-216z" />
    <glyph glyph-name="Imacron" unicode="&#x12a;" horiz-adv-x="477" 
d="M2 1665v156h475v-156h-475zM127 0v1462h225v-1462h-225z" />
    <glyph glyph-name="imacron" unicode="&#x12b;" horiz-adv-x="428" 
d="M-25 1249v156h476v-156h-476zM106 0v1051h216v-1051h-216z" />
    <glyph glyph-name="Ibreve" unicode="&#x12c;" horiz-adv-x="477" 
d="M240 1749q64 0 89 32q26 32 36 115h135q-4 -131 -31 -186q-59 -117 -237 -117t-232 136q-18 54 -20 167h133q7 -84 35 -116t92 -31zM127 0v1462h225v-1462h-225z" />
    <glyph glyph-name="ibreve" unicode="&#x12d;" horiz-adv-x="428" 
d="M213 1331q63 0 90 31t35 117h135q-4 -131 -31 -187q-57 -116 -236 -116t-233 137q-18 51 -20 166h133q8 -84 36 -116t91 -32zM106 0v1051h216v-1051h-216z" />
    <glyph glyph-name="Iogonek" unicode="&#x12e;" horiz-adv-x="477" 
d="M219 -213q0 -76 68 -76q41 0 92 21l22 -113q-70 -35 -163 -35q-209 0 -209 158q0 133 166 258h-70v1462h225v-1462l-53 -55q-78 -82 -78 -158z" />
    <glyph glyph-name="iogonek" unicode="&#x12f;" horiz-adv-x="428" 
d="M106 1225v245h216v-245h-216zM188 -212q0 -77 70 -77q41 0 92 21l23 -113q-76 -35 -164 -35q-211 0 -211 158q0 72 34 124t132 134h-58v1051h216v-1051l-54 -55q-80 -80 -80 -157z" />
    <glyph glyph-name="Idotaccent" unicode="&#x130;" horiz-adv-x="477" 
d="M137 1612v239h207v-239h-207zM127 0v1462h225v-1462h-225z" />
    <glyph glyph-name="dotlessi" unicode="&#x131;" horiz-adv-x="428" 
d="M106 0v1051h216v-1051h-216z" />
    <glyph glyph-name="IJ" unicode="&#x132;" horiz-adv-x="956" 
d="M604 1462h225v-1460q0 -264 -38 -348q-74 -154 -279 -154q-88 0 -174 35l82 170q35 -20 69 -20q84 0 105 108q10 51 10 205v1464zM127 0v1462h225v-1462h-225z" />
    <glyph glyph-name="ij" unicode="&#x133;" horiz-adv-x="854" 
d="M535 1225v245h215v-245h-215zM535 1051h215v-1041q6 -281 -76 -382t-312 -99v180q96 -3 136 59t37 220v1063zM106 0v1051h216v-1051h-216zM106 1225v245h216v-245h-216z" />
    <glyph glyph-name="Jcircumflex" unicode="&#x134;" horiz-adv-x="692" 
d="M432 1774l-82 -162h-198l202 291h156l203 -291h-199zM348 1462h225v-981q0 -264 -38 -348q-72 -154 -279 -153q-96 0 -167 30t-140 105l131 143q86 -94 156 -94q82 0 102 108q10 53 10 205v985z" />
    <glyph glyph-name="jcircumflex" unicode="&#x135;" horiz-adv-x="436" 
d="M215 1358l-82 -162h-199l203 291h156l203 -291h-199zM113 1051h215v-1041q6 -281 -76 -382t-311 -99v180q96 -3 135 59t37 220v1063z" />
    <glyph glyph-name="Kcommaaccent" unicode="&#x136;" horiz-adv-x="919" 
d="M350 -471l72 334h205l-133 -334h-144zM129 0v1462h225v-612l334 612h244l-359 -604l373 -858h-246l-260 670l-86 -160v-510h-225z" />
    <glyph glyph-name="kcommaaccent" unicode="&#x137;" horiz-adv-x="825" 
d="M276 -471l72 334h205l-133 -334h-144zM109 0v1462h215v-874l264 463h225l-274 -439l282 -612h-233l-180 453l-84 -148v-305h-215z" />
    <glyph glyph-name="kgreenlandic" unicode="&#x138;" horiz-adv-x="825" 
d="M109 0v1051h215v-463l264 463h225l-274 -439l282 -612h-233l-180 453l-84 -148v-305h-215z" />
    <glyph glyph-name="Lacute" unicode="&#x139;" horiz-adv-x="821" 
d="M176 1606l123 303h238l-201 -303h-160zM127 0v1462h225v-1276h451v-186h-676z" />
    <glyph glyph-name="lacute" unicode="&#x13a;" horiz-adv-x="481" 
d="M127 1606l123 303h237l-200 -303h-160zM106 1462h216v-1081q-2 -115 26 -158t107 -43h22v-180h-31q-210 2 -276 79t-64 322v1061z" />
    <glyph glyph-name="Lcommaaccent" unicode="&#x13b;" horiz-adv-x="821" 
d="M289 -471l71 334h205l-133 -334h-143zM127 0v1462h225v-1276h451v-186h-676z" />
    <glyph glyph-name="lcommaaccent" unicode="&#x13c;" horiz-adv-x="481" 
d="M109 -471l71 334h205l-133 -334h-143zM106 1462h216v-1081q-2 -115 26 -158t107 -43h22v-180h-31q-210 2 -276 79t-64 322v1061z" />
    <glyph glyph-name="Lcaron" unicode="&#x13d;" horiz-adv-x="821" 
d="M496 969l51 518h201l-103 -518h-149zM127 0v1462h225v-1276h451v-186h-676z" />
    <glyph glyph-name="lcaron" unicode="&#x13e;" horiz-adv-x="636" 
d="M426 969l51 518h201l-103 -518h-149zM106 1462h216v-1081q-2 -115 26 -158t107 -43h22v-180h-31q-210 2 -276 79t-64 322v1061z" />
    <glyph glyph-name="Ldot" unicode="&#x13f;" horiz-adv-x="821" 
d="M543 616v238h186v-238h-186zM127 0v1462h225v-1276h451v-186h-676z" />
    <glyph glyph-name="ldot" unicode="&#x140;" horiz-adv-x="608" 
d="M420 616v238h186v-238h-186zM106 1462h216v-1081q-2 -115 26 -158t107 -43h22v-180h-31q-210 2 -276 79t-64 322v1061z" />
    <glyph glyph-name="Lslash" unicode="&#x141;" horiz-adv-x="819" 
d="M127 0v401l-100 -86v205l100 86v856h225v-686l258 221v-204l-258 -224v-383h449v-186h-674z" />
    <glyph glyph-name="lslash" unicode="&#x142;" horiz-adv-x="518" 
d="M125 1462h215v-563l166 135v-213l-166 -137v-303q-2 -115 27 -158t106 -43h23v-180h-31q-207 2 -273 75t-67 304v149l-127 -106v215l127 104v721z" />
    <glyph glyph-name="Nacute" unicode="&#x143;" horiz-adv-x="1064" 
d="M442 1606l123 303h238l-201 -303h-160zM127 0v1462h223l379 -999v999h211v-1462h-213l-389 1012v-1012h-211z" />
    <glyph glyph-name="nacute" unicode="&#x144;" horiz-adv-x="866" 
d="M319 1190l123 303h238l-201 -303h-160zM102 0v1051h160l17 -86q47 59 94 83t128 24t147 -42q66 -40 94 -112t28 -242v-676h-215v647q0 133 -26 185q-27 52 -93 53q-66 -1 -92 -57t-27 -201v-627h-215z" />
    <glyph glyph-name="Ncommaaccent" unicode="&#x145;" horiz-adv-x="1064" 
d="M375 -471l71 334h205l-133 -334h-143zM127 0v1462h223l379 -999v999h211v-1462h-213l-389 1012v-1012h-211z" />
    <glyph glyph-name="ncommaaccent" unicode="&#x146;" horiz-adv-x="866" 
d="M279 -471l71 334h205l-133 -334h-143zM102 0v1051h160l17 -86q47 59 94 83t128 24t147 -42q66 -40 94 -112t28 -242v-676h-215v647q0 133 -26 185q-27 52 -93 53q-66 -1 -92 -57t-27 -201v-627h-215z" />
    <glyph glyph-name="Ncaron" unicode="&#x147;" horiz-adv-x="1064" 
d="M543 1737l82 161h198l-202 -290h-156l-203 290h199zM127 0v1462h223l379 -999v999h211v-1462h-213l-389 1012v-1012h-211z" />
    <glyph glyph-name="ncaron" unicode="&#x148;" horiz-adv-x="866" 
d="M434 1321l82 162h199l-203 -291h-156l-202 291h198zM102 0v1051h160l17 -86q47 59 94 83t128 24t147 -42q66 -40 94 -112t28 -242v-676h-215v647q0 133 -26 185q-27 52 -93 53q-66 -1 -92 -57t-27 -201v-627h-215z" />
    <glyph glyph-name="napostrophe" unicode="&#x149;" horiz-adv-x="1013" 
d="M-8 950l47 512h229l-88 -512h-188zM250 0v1051h160l16 -99q51 70 96 95t126 25t147 -42q67 -40 95 -112t28 -242v-676h-216v647q0 133 -25 186q-27 52 -93 52q-66 1 -92 -57t-27 -201v-627h-215z" />
    <glyph glyph-name="Eng" unicode="&#x14a;" horiz-adv-x="1064" 
d="M127 0v1462h223l379 -999v999h211v-1476q4 -264 -77 -362t-302 -95v172q90 -6 132 55t40 201v43l-395 1012v-1012h-211z" />
    <glyph glyph-name="eng" unicode="&#x14b;" horiz-adv-x="866" 
d="M102 0v1051h160l17 -99q51 70 96 95t126 25t147 -42q66 -40 94 -112t28 -242v-666q6 -281 -76 -383t-309 -98v180q94 -6 133 59t37 220v659q0 133 -26 185q-27 52 -93 53q-66 -1 -92 -57t-27 -201v-627h-215z" />
    <glyph glyph-name="Omacron" unicode="&#x14c;" horiz-adv-x="1003" 
d="M264 1665v156h475v-156h-475zM676 467v528q0 168 -39 236q-39 67 -135 67t-135 -68t-39 -235v-528q0 -168 39 -236q39 -67 135 -67t135 68t39 235zM102 446v570q0 250 94 358t306 109q213 0 306 -110t93 -357v-570q0 -250 -93 -358t-306 -108q-212 0 -306 108t-94 358z
" />
    <glyph glyph-name="omacron" unicode="&#x14d;" horiz-adv-x="858" 
d="M190 1249v156h476v-156h-476zM553 381v289q0 125 -27 174q-26 49 -96 49t-98 -49t-27 -174v-289q0 -125 28 -174q27 -49 97 -49t96 49t27 174zM90 399v252q0 223 80 321t260 99q180 0 259 -98t79 -322v-252q0 -223 -79 -321t-260 -98t-260 98t-79 321z" />
    <glyph glyph-name="Obreve" unicode="&#x14e;" horiz-adv-x="1003" 
d="M502 1749q63 0 89 32t36 115h135q-4 -131 -31 -186q-59 -117 -237 -117t-232 136q-18 54 -20 167h133q8 -84 36 -116t91 -31zM676 467v528q0 168 -39 236q-39 67 -135 67t-135 -68t-39 -235v-528q0 -168 39 -236q39 -67 135 -67t135 68t39 235zM102 446v570q0 250 94 358
t306 109q213 0 306 -110t93 -357v-570q0 -250 -93 -358t-306 -108q-212 0 -306 108t-94 358z" />
    <glyph glyph-name="obreve" unicode="&#x14f;" horiz-adv-x="858" 
d="M428 1331q63 0 90 31t35 117h135q-4 -131 -31 -187q-59 -116 -237 -116t-232 137q-18 51 -20 166h133q8 -84 36 -116t91 -32zM553 381v289q0 125 -27 174q-26 49 -96 49t-98 -49t-27 -174v-289q0 -125 28 -174q27 -49 97 -49t96 49t27 174zM90 399v252q0 223 80 321
t260 99q180 0 259 -98t79 -322v-252q0 -223 -79 -321t-260 -98t-260 98t-79 321z" />
    <glyph glyph-name="Ohungarumlaut" unicode="&#x150;" horiz-adv-x="1003" 
d="M539 1606l98 303h215l-166 -303h-147zM279 1606l98 303h215l-166 -303h-147zM676 467v528q0 168 -39 236q-39 67 -135 67t-135 -68t-39 -235v-528q0 -168 39 -236q39 -67 135 -67t135 68t39 235zM102 446v570q0 250 94 358t306 109q213 0 306 -110t93 -357v-570
q0 -250 -93 -358t-306 -108q-212 0 -306 108t-94 358z" />
    <glyph glyph-name="ohungarumlaut" unicode="&#x151;" horiz-adv-x="858" 
d="M467 1190l98 303h215l-166 -303h-147zM207 1190l98 303h215l-166 -303h-147zM553 381v289q0 125 -27 174q-26 49 -96 49t-98 -49t-27 -174v-289q0 -125 28 -174q27 -49 97 -49t96 49t27 174zM90 399v252q0 223 80 321t260 99q180 0 259 -98t79 -322v-252q0 -223 -79 -321
t-260 -98t-260 98t-79 321z" />
    <glyph glyph-name="OE" unicode="&#x152;" horiz-adv-x="1409" 
d="M326 995v-528q0 -170 39 -237q39 -66 136 -66t136 68t39 235v528q0 168 -39 236q-39 67 -136 67t-136 -66t-39 -237zM713 0v66q-80 -86 -244 -86q-219 0 -307 155q-59 102 -60 311v570q0 231 74 336q90 131 293 131q164 0 244 -86v65h628v-186h-442v-445h375v-186h-375
v-459h449v-186h-635z" />
    <glyph glyph-name="oe" unicode="&#x153;" horiz-adv-x="1312" 
d="M768 639h256v49q0 117 -29 163t-101 46t-98 -46q-28 -46 -28 -163v-49zM553 381v289q0 125 -27 174q-26 49 -96 49t-98 -49t-27 -174v-289q0 -125 28 -174q27 -49 97 -49t96 49t27 174zM90 397v256q0 221 76 319t246 99q170 0 252 -104q82 104 248 104t243 -105
q76 -105 76 -343v-148h-463v-96q0 -123 29 -172t97 -49t96 40t30 128h199q-2 -154 -45 -224q-72 -123 -269 -122q-156 0 -241 104q-84 -104 -253 -104t-245 97t-76 320z" />
    <glyph glyph-name="Racute" unicode="&#x154;" horiz-adv-x="962" 
d="M369 1606l123 303h237l-201 -303h-159zM348 793h105q113 0 157 59t43 191q0 133 -45 185t-149 52h-111v-487zM354 616v-616h-225v1462h340q125 0 197 -22q212 -66 213 -396q0 -182 -44 -272t-153 -135l233 -637h-249l-203 616h-109z" />
    <glyph glyph-name="racute" unicode="&#x155;" horiz-adv-x="610" 
d="M221 1190l123 303h238l-201 -303h-160zM102 0v1051h164l27 -86q63 106 172 106q82 0 162 -61l-95 -181q-55 55 -110 55t-80 -85q-25 -86 -25 -289v-510h-215z" />
    <glyph glyph-name="Rcommaaccent" unicode="&#x156;" horiz-adv-x="962" 
d="M348 -471l72 334h205l-133 -334h-144zM348 793h105q113 0 157 59t43 191q0 133 -45 185t-149 52h-111v-487zM354 616v-616h-225v1462h340q125 0 197 -22q212 -66 213 -396q0 -182 -44 -272t-153 -135l233 -637h-249l-203 616h-109z" />
    <glyph glyph-name="rcommaaccent" unicode="&#x157;" horiz-adv-x="610" 
d="M43 -471l72 334h204l-133 -334h-143zM100 0v1051h164l27 -86q35 59 74 83t109 24t151 -62l-95 -181q-55 55 -109 55t-80 -86q-26 -87 -26 -288v-510h-215z" />
    <glyph glyph-name="Rcaron" unicode="&#x158;" horiz-adv-x="962" 
d="M453 1737l82 161h198l-203 -290h-155l-203 290h199zM348 793h105q113 0 157 59t43 191q0 133 -45 185t-149 52h-111v-487zM354 616v-616h-225v1462h340q125 0 197 -22q212 -66 213 -396q0 -182 -44 -272t-153 -135l233 -637h-249l-203 616h-109z" />
    <glyph glyph-name="rcaron" unicode="&#x159;" horiz-adv-x="610" 
d="M334 1321l82 162h198l-202 -291h-156l-203 291h199zM100 0v1051h164l27 -86q35 59 74 83t109 24t151 -62l-95 -181q-55 55 -109 55t-80 -86q-26 -87 -26 -288v-510h-215z" />
    <glyph glyph-name="Sacute" unicode="&#x15a;" horiz-adv-x="876" 
d="M332 1606l123 303h237l-200 -303h-160zM256 432q0 -140 40 -204t129 -64t130 57t41 176q0 162 -96 210q-27 13 -127 46q-162 55 -232 151q-69 96 -69 280t89 290t259 107q231 0 317 -187q39 -80 41 -241h-207q-4 135 -36 189q-33 54 -109 54q-139 0 -139 -219
q0 -96 43 -149q42 -53 152 -92q110 -40 149 -58q180 -85 180 -364q0 -434 -381 -434q-248 0 -338 188q-41 84 -43 264h207z" />
    <glyph glyph-name="sacute" unicode="&#x15b;" horiz-adv-x="765" 
d="M268 1190l123 303h238l-201 -303h-160zM385 158q135 0 135 141q0 74 -41 102q-23 19 -154 57t-184 93q-72 76 -71 221q0 145 76 222q77 77 223 77q207 0 280 -139q33 -66 33 -189h-197q0 150 -108 150t-109 -125q0 -61 31 -94t133 -62t140 -44q146 -59 147 -271
q0 -317 -342 -317q-233 0 -303 155q-31 64 -33 197h199q2 -82 18 -113q33 -61 127 -61z" />
    <glyph glyph-name="Scircumflex" unicode="&#x15c;" horiz-adv-x="876" 
d="M438 1774l-82 -162h-198l202 291h156l203 -291h-199zM256 432q0 -140 40 -204t129 -64t130 57t41 176q0 162 -96 210q-27 13 -127 46q-162 55 -232 151q-69 96 -69 280t89 290t259 107q231 0 317 -187q39 -80 41 -241h-207q-4 135 -36 189q-33 54 -109 54
q-139 0 -139 -219q0 -96 43 -149q42 -53 152 -92q110 -40 149 -58q180 -85 180 -364q0 -434 -381 -434q-248 0 -338 188q-41 84 -43 264h207z" />
    <glyph glyph-name="scircumflex" unicode="&#x15d;" horiz-adv-x="765" 
d="M383 1358l-82 -162h-199l203 291h156l203 -291h-199zM385 158q135 0 135 141q0 74 -41 102q-23 19 -154 57t-184 93q-72 76 -71 221q0 145 76 222q77 77 223 77q207 0 280 -139q33 -66 33 -189h-197q0 150 -108 150t-109 -125q0 -61 31 -94t133 -62t140 -44
q146 -59 147 -271q0 -317 -342 -317q-233 0 -303 155q-31 64 -33 197h199q2 -82 18 -113q33 -61 127 -61z" />
    <glyph glyph-name="Scedilla" unicode="&#x15e;" horiz-adv-x="876" 
d="M266 -471l72 334h205l-133 -334h-144zM256 432q0 -140 40 -204t129 -64t130 57t41 176q0 162 -96 210q-27 13 -127 46q-162 55 -232 151q-69 96 -69 280t89 290t259 107q231 0 317 -187q39 -80 41 -241h-207q-4 135 -36 189q-33 54 -109 54q-139 0 -139 -219
q0 -96 43 -149q42 -53 152 -92q110 -40 149 -58q180 -85 180 -364q0 -434 -381 -434q-248 0 -338 188q-41 84 -43 264h207z" />
    <glyph glyph-name="scedilla" unicode="&#x15f;" horiz-adv-x="765" 
d="M221 -471l72 334h205l-133 -334h-144zM385 158q135 0 135 141q0 74 -41 102q-23 19 -154 57t-184 93q-72 76 -71 221q0 145 76 222q77 77 223 77q207 0 280 -139q33 -66 33 -189h-197q0 150 -108 150t-109 -125q0 -61 31 -94t133 -62t140 -44q146 -59 147 -271
q0 -317 -342 -317q-233 0 -303 155q-31 64 -33 197h199q2 -82 18 -113q33 -61 127 -61z" />
    <glyph glyph-name="Scaron" unicode="&#x160;" horiz-adv-x="876" 
d="M428 1737l82 161h199l-203 -290h-156l-203 290h199zM256 432q0 -140 40 -204t129 -64t130 57t41 176q0 162 -96 210q-27 13 -127 46q-162 55 -232 151q-69 96 -69 280t89 290t259 107q231 0 317 -187q39 -80 41 -241h-207q-4 135 -36 189q-33 54 -109 54
q-139 0 -139 -219q0 -96 43 -149q42 -53 152 -92q110 -40 149 -58q180 -85 180 -364q0 -434 -381 -434q-248 0 -338 188q-41 84 -43 264h207z" />
    <glyph glyph-name="scaron" unicode="&#x161;" horiz-adv-x="765" 
d="M383 1321l82 162h199l-203 -291h-156l-203 291h199zM385 158q135 0 135 141q0 74 -41 102q-23 19 -154 57t-184 93q-72 76 -71 221q0 145 76 222q77 77 223 77q207 0 280 -139q33 -66 33 -189h-197q0 150 -108 150t-109 -125q0 -61 31 -94t133 -62t140 -44
q146 -59 147 -271q0 -317 -342 -317q-233 0 -303 155q-31 64 -33 197h199q2 -82 18 -113q33 -61 127 -61z" />
    <glyph glyph-name="Tcommaaccent" unicode="&#x162;" horiz-adv-x="768" 
d="M211 -471l72 334h204l-133 -334h-143zM270 0v1276h-256v186h738v-186h-256v-1276h-226z" />
    <glyph glyph-name="tcommaaccent" unicode="&#x163;" horiz-adv-x="544" 
d="M143 -471l72 334h205l-133 -334h-144zM133 874h-96v177h96l12 309h203v-309h152v-177h-152v-534q-2 -94 23 -128t90 -32h39v-180h-62q-193 0 -250 68t-55 292v514z" />
    <glyph glyph-name="Tcaron" unicode="&#x164;" horiz-adv-x="768" 
d="M383 1737l82 161h199l-203 -290h-156l-203 290h199zM270 0v1276h-256v186h738v-186h-256v-1276h-226z" />
    <glyph glyph-name="tcaron" unicode="&#x165;" horiz-adv-x="704" 
d="M508 1106l37 426h200l-90 -426h-147zM133 874h-96v177h96l12 309h203v-309h152v-177h-152v-534q-2 -94 23 -128t90 -32h39v-180h-62q-193 0 -250 68t-55 292v514z" />
    <glyph glyph-name="Tbar" unicode="&#x166;" horiz-adv-x="768" 
d="M270 0v649h-178v180h178v447h-256v186h738v-186h-256v-447h178v-180h-178v-649h-226z" />
    <glyph glyph-name="tbar" unicode="&#x167;" horiz-adv-x="544" 
d="M133 874h-96v177h96l12 309h203v-309h152v-177h-152v-155h144v-152h-144v-227q-2 -92 23 -126t90 -34h39v-180h-62q-193 0 -250 68t-55 292v207h-96v152h96v155z" />
    <glyph glyph-name="Utilde" unicode="&#x168;" horiz-adv-x="1021" 
d="M414 1890q72 0 124 -62t70 -63q39 0 49 111h127q-8 -140 -49 -202t-122 -62t-127 62t-64 63q-47 0 -57 -111h-127q31 264 176 264zM123 1462h225v-1024q0 -137 23 -188q37 -86 135 -86q63 0 98 22t53 73q18 50 19 179v1024h225v-1024q0 -132 -13 -200t-52 -121
q-98 -137 -333 -137t-329 159q-51 86 -51 299v1024z" />
    <glyph glyph-name="utilde" unicode="&#x169;" horiz-adv-x="845" 
d="M520 1350q39 0 49 112h127q-6 -100 -26 -157q-41 -109 -146 -109q-78 0 -125 64t-65 63q-48 0 -58 -113h-126q31 264 177 266q73 0 122 -63q53 -63 71 -63zM96 1051h215v-648q0 -133 23 -185t84 -52t86 57t24 203v625h215v-1051h-161l-15 86q-47 -61 -91 -84t-114 -22
q-180 0 -237 153q-29 72 -29 242v676z" />
    <glyph glyph-name="Umacron" unicode="&#x16a;" horiz-adv-x="1021" 
d="M274 1665v156h476v-156h-476zM123 1462h225v-1024q0 -137 23 -188q37 -86 135 -86q63 0 98 22t53 73q18 50 19 179v1024h225v-1024q0 -132 -13 -200t-52 -121q-98 -137 -333 -137t-329 159q-51 86 -51 299v1024z" />
    <glyph glyph-name="umacron" unicode="&#x16b;" horiz-adv-x="845" 
d="M184 1249v156h475v-156h-475zM96 1051h215v-648q0 -133 23 -185t84 -52t86 57t24 203v625h215v-1051h-161l-15 86q-47 -61 -91 -84t-114 -22q-180 0 -237 153q-29 72 -29 242v676z" />
    <glyph glyph-name="Ubreve" unicode="&#x16c;" horiz-adv-x="1021" 
d="M512 1749q63 0 89 32t36 115h135q-4 -131 -31 -186q-57 -117 -236 -117t-233 136q-18 54 -20 167h133q8 -84 36 -116t91 -31zM123 1462h225v-1024q0 -137 23 -188q37 -86 135 -86q63 0 98 22t53 73q18 50 19 179v1024h225v-1024q0 -132 -13 -200t-52 -121
q-98 -137 -333 -137t-329 159q-51 86 -51 299v1024z" />
    <glyph glyph-name="ubreve" unicode="&#x16d;" horiz-adv-x="845" 
d="M422 1331q63 0 90 31t35 117h135q-4 -131 -31 -187q-57 -116 -236 -116t-233 137q-18 51 -20 166h133q8 -84 36 -116t91 -32zM96 1051h215v-648q0 -133 23 -185t84 -52t86 57t24 203v625h215v-1051h-161l-15 86q-47 -61 -91 -84t-114 -22q-180 0 -237 153q-29 72 -29 242
v676z" />
    <glyph glyph-name="Uring" unicode="&#x16e;" horiz-adv-x="1021" 
d="M596 1808q0 116 -85 115q-85 0 -85 -116t84 -115q86 0 86 116zM512 2028q98 0 158 -60t59 -158q0 -98 -60 -160q-61 -62 -157 -62t-158 62t-61 160q0 98 60 158q61 60 159 60zM123 1462h225v-1024q0 -137 23 -188q37 -86 135 -86q63 0 98 22t53 73q18 50 19 179v1024h225
v-1024q0 -132 -13 -200t-52 -121q-98 -137 -333 -137t-329 159q-51 86 -51 299v1024z" />
    <glyph glyph-name="uring" unicode="&#x16f;" horiz-adv-x="845" 
d="M423 1507q-85 1 -85 -115t85 -116t85 116t-85 115zM424 1612q98 0 158 -60t59 -158q0 -98 -60 -160q-61 -62 -157 -62t-158 62t-61 160t61 158t158 60zM96 1051h215v-648q0 -133 23 -185t84 -52t86 57t24 203v625h215v-1051h-161l-15 86q-47 -61 -91 -84t-114 -22
q-180 0 -237 153q-29 72 -29 242v676z" />
    <glyph glyph-name="Uhungarumlaut" unicode="&#x170;" horiz-adv-x="1021" 
d="M549 1606l98 303h215l-166 -303h-147zM289 1606l98 303h215l-166 -303h-147zM123 1462h225v-1024q0 -137 23 -188q37 -86 135 -86q63 0 98 22t53 73q18 50 19 179v1024h225v-1024q0 -132 -13 -200t-52 -121q-98 -137 -333 -137t-329 159q-51 86 -51 299v1024z" />
    <glyph glyph-name="uhungarumlaut" unicode="&#x171;" horiz-adv-x="845" 
d="M461 1190l98 303h215l-166 -303h-147zM201 1190l98 303h215l-166 -303h-147zM96 1051h215v-648q0 -133 23 -185t84 -52t86 57t24 203v625h215v-1051h-161l-15 86q-47 -61 -91 -84t-114 -22q-180 0 -237 153q-29 72 -29 242v676z" />
    <glyph glyph-name="Uogonek" unicode="&#x172;" horiz-adv-x="1021" 
d="M135 1462h225v-1024q0 -137 23 -188q37 -86 135 -86q63 0 98 22q36 22 54 73q18 50 18 179v1024h225v-1024q4 -178 -40 -276t-154 -152q-125 -119 -125 -227q0 -72 68 -72q43 0 92 21l24 -113q-72 -35 -164 -35q-211 0 -211 162q0 123 119 234q-209 0 -303 110t-84 348
v1024z" />
    <glyph glyph-name="uogonek" unicode="&#x173;" horiz-adv-x="845" 
d="M612 -213q0 -76 68 -76q37 0 92 21l23 -113q-72 -35 -164 -35q-209 0 -209 158q0 70 36 126t128 132h-4l-15 86q-47 -61 -91 -84t-114 -22q-180 0 -237 153q-29 72 -29 242v676h215v-648q0 -133 23 -185t84 -52t86 57t24 203v625h215v-1051l-53 -55q-78 -82 -78 -158z
" />
    <glyph glyph-name="Wcircumflex" unicode="&#x174;" horiz-adv-x="1400" 
d="M700 1774l-82 -162h-198l203 291h155l203 -291h-199zM283 0l-244 1462h223l135 -1054l217 1054h172l218 -1054l135 1054h223l-244 -1462h-203l-215 1020l-215 -1020h-202z" />
    <glyph glyph-name="wcircumflex" unicode="&#x175;" horiz-adv-x="1169" 
d="M586 1358l-82 -162h-199l203 291h156l202 -291h-198zM252 0l-215 1051h217l106 -709l150 709h152l149 -709l107 709h217l-215 -1051h-185l-149 680l-150 -680h-184z" />
    <glyph glyph-name="Ycircumflex" unicode="&#x176;" horiz-adv-x="827" 
d="M414 1774l-82 -162h-199l203 291h156l202 -291h-198zM303 0v514l-338 948h238l213 -671l215 671h235l-338 -948v-514h-225z" />
    <glyph glyph-name="ycircumflex" unicode="&#x177;" horiz-adv-x="774" 
d="M387 1358l-82 -162h-199l203 291h156l203 -291h-199zM279 -4l-259 1055h216l151 -770l143 770h218l-269 -1176q-47 -213 -125 -279t-282 -67v180q96 -2 128 30t60 157z" />
    <glyph glyph-name="Ydieresis" unicode="&#x178;" horiz-adv-x="827" 
d="M477 1618v235h191v-235h-191zM158 1618v235h190v-235h-190zM303 0v514l-338 948h238l213 -671l215 671h235l-338 -948v-514h-225z" />
    <glyph glyph-name="Zacute" unicode="&#x179;" horiz-adv-x="792" 
d="M332 1606l123 303h237l-200 -303h-160zM35 0v121l450 1155h-409v186h655v-121l-450 -1155h471v-186h-717z" />
    <glyph glyph-name="zacute" unicode="&#x17a;" horiz-adv-x="675" 
d="M266 1190l123 303h238l-201 -303h-160zM31 0v123l346 749h-311v179h557v-123l-349 -750h369v-178h-612z" />
    <glyph glyph-name="Zdotaccent" unicode="&#x17b;" horiz-adv-x="792" 
d="M330 1612v239h207v-239h-207zM35 0v121l450 1155h-409v186h655v-121l-450 -1155h471v-186h-717z" />
    <glyph glyph-name="zdotaccent" unicode="&#x17c;" horiz-adv-x="675" 
d="M258 1198v240h207v-240h-207zM31 0v123l346 749h-311v179h557v-123l-349 -750h369v-178h-612z" />
    <glyph glyph-name="Zcaron" unicode="&#x17d;" horiz-adv-x="792" 
d="M436 1737l82 161h199l-203 -290h-156l-202 290h198zM35 0v121l450 1155h-409v186h655v-121l-450 -1155h471v-186h-717z" />
    <glyph glyph-name="zcaron" unicode="&#x17e;" horiz-adv-x="675" 
d="M369 1321l82 162h198l-203 -291h-155l-203 291h199zM31 0v123l346 749h-311v179h557v-123l-349 -750h369v-178h-612z" />
    <glyph glyph-name="Ohorn" unicode="&#x1a0;" horiz-adv-x="1075" 
d="M676 467v528q0 168 -39 236q-39 67 -135 67t-135 -68t-39 -235v-528q0 -168 39 -236q39 -67 135 -67t135 68t39 235zM1114 1386q0 -104 -44 -172t-169 -155v-613q0 -250 -93 -358t-306 -108t-306 108t-94 358v570q0 250 94 358t306 109q170 0 261 -68t124 -217
q63 68 63 144t-32 143h182q14 -49 14 -99z" />
    <glyph glyph-name="ohorn" unicode="&#x1a1;" horiz-adv-x="940" 
d="M553 381v289q0 125 -27 174q-26 49 -96 49t-98 -49t-27 -174v-289q0 -125 28 -174q27 -49 97 -49t96 49t27 174zM977 961q0 -182 -211 -318l2 -16v-228q0 -223 -79 -321t-260 -98t-260 98t-79 321v252q0 223 80 323t245 99t243 -69t102 -218l8 13l18 35q23 39 23 101
t-29 130h181q16 -59 16 -104z" />
    <glyph glyph-name="Uhorn" unicode="&#x1af;" horiz-adv-x="1140" 
d="M123 1462h225v-1024q0 -137 23 -188q37 -86 135 -86q63 0 98 22t53 73q18 50 19 179v1024h225v-311q123 88 123 207q0 66 -31 127h181q14 -51 14 -99q0 -154 -137 -270q-33 -29 -150 -102v-576q0 -132 -13 -200t-52 -121q-98 -137 -333 -137t-329 159q-51 86 -51 299
v1024z" />
    <glyph glyph-name="uhorn" unicode="&#x1b0;" horiz-adv-x="989" 
d="M96 1051h215v-648q0 -133 24 -185t85 -52t86 57t24 201v627h215v-322q123 82 123 211q0 59 -30 125h180q14 -55 14 -100q0 -111 -61 -191t-226 -184v-590h-161l-15 86q-47 -61 -91 -84t-113 -22q-182 0 -240 153q-29 72 -29 242v676z" />
    <glyph glyph-name="uni01C4" unicode="&#x1c4;" horiz-adv-x="1775" 
d="M1419 1737l80 161h199l-203 -290h-154l-204 290h200zM1016 0v121l452 1155h-409v186h655v-121l-450 -1155h469v-186h-717zM352 182h125q117 0 157 60t42 231v516q-2 171 -42 231t-157 60h-125v-1098zM127 0v1462h344q231 4 333 -97t97 -337v-594q4 -236 -97 -337
t-333 -97h-344z" />
    <glyph glyph-name="uni01C5" unicode="&#x1c5;" horiz-adv-x="1677" 
d="M1370 1321l82 162h199l-203 -291h-154l-204 291h200zM1032 0v123l346 749h-309v179h555v-123l-346 -750h369v-178h-615zM352 182h125q117 0 157 60t42 231v516q-2 171 -42 231t-157 60h-125v-1098zM127 0v1462h344q231 4 333 -97t97 -337v-594q4 -236 -97 -337t-333 -97
h-344z" />
    <glyph glyph-name="uni01C6" unicode="&#x1c6;" horiz-adv-x="1536" 
d="M1229 1321l80 162h200l-202 -291h-156l-203 291h199zM891 0v123l346 749h-311v179h557v-123l-348 -750h368v-178h-612zM305 686v-285q0 -236 115 -235q125 0 125 264v193q0 262 -127 262q-113 0 -113 -199zM379 -20q-153 0 -221 104t-68 340v248q0 207 67 303t212 96
q100 0 176 -70v461h215v-1462h-166l-12 72q-50 -52 -94 -72t-109 -20z" />
    <glyph glyph-name="uni01C7" unicode="&#x1c7;" horiz-adv-x="1298" 
d="M948 1462h226v-1460q0 -160 -8 -230t-31 -118q-74 -154 -279 -154q-88 0 -174 35l82 170q35 -20 70 -20q84 0 104 108q10 51 10 205v1464zM127 0v1462h225v-1276h451v-186h-676z" />
    <glyph glyph-name="uni01C8" unicode="&#x1c8;" horiz-adv-x="1257" 
d="M936 1051h215v-1041q6 -281 -76 -382t-311 -99v180q96 -3 135 59t37 220v1063zM936 1225v245h215v-245h-215zM127 0v1462h225v-1276h451v-186h-676z" />
    <glyph glyph-name="uni01C9" unicode="&#x1c9;" horiz-adv-x="915" 
d="M596 1051h215v-1041q6 -279 -76 -381t-309 -100v180q96 -3 134 59t36 220v1063zM596 1225v245h215v-245h-215zM106 1462h216v-1081q-2 -115 26 -158t107 -43h22v-180h-31q-210 2 -276 79t-64 322v1061z" />
    <glyph glyph-name="uni01CA" unicode="&#x1ca;" horiz-adv-x="1542" 
d="M1192 1462h225v-1460q0 -264 -39 -348q-74 -154 -278 -154q-88 0 -174 35l82 170q35 -20 69 -20q84 0 105 108q10 51 10 205v1464zM127 0v1462h223l377 -999v999h211v-1462h-213l-387 1012v-1012h-211z" />
    <glyph glyph-name="uni01CB" unicode="&#x1cb;" horiz-adv-x="1501" 
d="M1180 1225v245h215v-245h-215zM1180 1051h215v-1041q6 -279 -76 -381t-309 -100v180q94 -3 133 59t37 220v1063zM127 0v1462h223l377 -999v999h211v-1462h-213l-387 1012v-1012h-211z" />
    <glyph glyph-name="uni01CC" unicode="&#x1cc;" horiz-adv-x="1302" 
d="M981 1225v245h215v-245h-215zM981 1051h215v-1041q6 -279 -76 -381t-309 -100v180q94 -3 133 59t37 220v1063zM102 0v1051h160l17 -86q47 59 94 83t129 24t148 -42q66 -40 94 -112t28 -242v-676h-215v647q0 133 -26 185q-25 52 -93 53q-68 -1 -94 -57t-27 -201v-627h-215
z" />
    <glyph glyph-name="uni01CD" unicode="&#x1cd;" horiz-adv-x="921" 
d="M463 1737l82 161h198l-202 -290h-156l-203 290h199zM606 485l-141 666l-143 -666h284zM647 303h-364l-66 -303h-244l398 1462h188l395 -1462h-243z" />
    <glyph glyph-name="uni01CE" unicode="&#x1ce;" horiz-adv-x="823" 
d="M422 1321l82 162h198l-202 -291h-156l-203 291h199zM512 473h-82q-88 0 -125 -39t-37 -128t28 -121q28 -31 96 -31t94 36t26 132v151zM512 627v47q0 125 -26 172t-88 47t-88 -37t-25 -121h-201q2 154 49 221q80 115 260 115t257 -97t77 -317v-657h-168l-12 57
q-67 -77 -213 -77t-214 74t-67 250q0 175 71 249t245 74h143z" />
    <glyph glyph-name="uni01CF" unicode="&#x1cf;" horiz-adv-x="477" 
d="M240 1737l82 161h198l-203 -290h-155l-203 290h199zM127 0v1462h225v-1462h-225z" />
    <glyph glyph-name="uni01D0" unicode="&#x1d0;" horiz-adv-x="428" 
d="M213 1321l82 162h199l-203 -291h-156l-203 291h199zM106 0v1051h216v-1051h-216z" />
    <glyph glyph-name="uni01D1" unicode="&#x1d1;" horiz-adv-x="1003" 
d="M502 1737l80 161h200l-202 -290h-156l-203 290h199zM676 467v528q0 168 -39 236q-39 67 -135 67t-135 -68t-39 -235v-528q0 -168 39 -236q39 -67 135 -67t135 68t39 235zM102 446v570q0 250 94 358t306 109q213 0 306 -110t93 -357v-570q0 -250 -93 -358t-306 -108
q-212 0 -306 108t-94 358z" />
    <glyph glyph-name="uni01D2" unicode="&#x1d2;" horiz-adv-x="858" 
d="M428 1321l82 162h199l-203 -291h-156l-203 291h199zM553 381v289q0 125 -27 174q-26 49 -96 49t-98 -49t-27 -174v-289q0 -125 28 -174q27 -49 97 -49t96 49t27 174zM90 399v252q0 223 80 321t260 99q180 0 259 -98t79 -322v-252q0 -223 -79 -321t-260 -98t-260 98
t-79 321z" />
    <glyph glyph-name="uni01D3" unicode="&#x1d3;" horiz-adv-x="1021" 
d="M512 1737l82 161h199l-203 -290h-156l-203 290h199zM123 1462h225v-1024q0 -137 23 -188q37 -86 135 -86q63 0 98 22t53 73q18 50 19 179v1024h225v-1024q0 -132 -13 -200t-52 -121q-98 -137 -333 -137t-329 159q-51 86 -51 299v1024z" />
    <glyph glyph-name="uni01D4" unicode="&#x1d4;" horiz-adv-x="845" 
d="M422 1321l82 162h198l-202 -291h-156l-203 291h199zM96 1051h215v-648q0 -133 23 -185t84 -52t86 57t24 203v625h215v-1051h-161l-15 86q-47 -61 -91 -84t-114 -22q-180 0 -237 153q-29 72 -29 242v676z" />
    <glyph glyph-name="Gcaron" unicode="&#x1e6;" horiz-adv-x="978" 
d="M489 1737l82 161h199l-203 -290h-155l-203 290h199zM514 612v176h383v-278q0 -262 -72 -375q-98 -155 -325 -155t-328 145q-70 102 -70 344v520q0 266 86 369q98 123 301 123q242 0 334 -189q39 -80 41 -239h-207q-6 135 -42 189q-37 54 -125 54t-125 -70t-37 -251v-492
q0 -175 39 -247t133 -72t134 70t40 229v149h-160z" />
    <glyph glyph-name="gcaron" unicode="&#x1e7;" horiz-adv-x="862" 
d="M444 1321l82 162h199l-203 -291h-155l-203 291h198zM305 686v-283q0 -125 28 -181t87 -56q125 0 125 264v193q0 262 -127 262q-113 0 -113 -199zM545 -68v103q-74 -55 -168 -55q-151 0 -219 104t-68 340v248q0 207 67 303t210 96q65 1 111 -21t93 -75l23 76h166v-1088
q0 -225 -70 -325q-84 -119 -276 -119t-256 135q-29 59 -31 184h190q2 -80 26 -114q25 -34 87 -33q62 0 88 52t27 189z" />
    <glyph glyph-name="uni01EA" unicode="&#x1ea;" horiz-adv-x="1003" 
d="M682 467v528q0 168 -39 236q-39 67 -135 67t-135 -68t-39 -235v-528q0 -168 39 -236q39 -67 135 -67t135 68t39 235zM907 1016v-570q6 -350 -209 -438q-121 -121 -120 -225q0 -72 67 -72q43 0 92 21l25 -113q-76 -35 -164 -35q-211 0 -211 160q0 66 27 119t94 117
q-211 -2 -307 112t-92 354v570q0 250 93 358t306 109t306 -109t93 -358z" />
    <glyph glyph-name="uni01EB" unicode="&#x1eb;" horiz-adv-x="858" 
d="M555 381v289q0 125 -27 174q-26 49 -96 49t-98 -49t-27 -174v-289q0 -125 28 -174q27 -49 97 -49t96 49t27 174zM770 651v-252q0 -161 -37 -249t-121 -134q-111 -129 -110 -233q0 -72 67 -72q37 0 93 21l22 -113q-76 -35 -164 -35q-209 0 -209 162q0 123 105 234
q-174 6 -250 104t-74 315v252q0 223 80 321t260 99q180 -1 259 -99t79 -321z" />
    <glyph glyph-name="uni01F1" unicode="&#x1f1;" horiz-adv-x="1775" 
d="M1016 0v121l452 1155h-409v186h655v-121l-450 -1155h469v-186h-717zM352 182h125q117 0 157 60t42 231v516q-2 171 -42 231t-157 60h-125v-1098zM127 0v1462h344q231 4 333 -97t97 -337v-594q4 -236 -97 -337t-333 -97h-344z" />
    <glyph glyph-name="uni01F2" unicode="&#x1f2;" horiz-adv-x="1677" 
d="M1032 0v123l346 749h-309v179h555v-123l-346 -750h369v-178h-615zM352 182h125q117 0 157 60t42 231v516q-2 171 -42 231t-157 60h-125v-1098zM127 0v1462h344q231 4 333 -97t97 -337v-594q4 -236 -97 -337t-333 -97h-344z" />
    <glyph glyph-name="uni01F3" unicode="&#x1f3;" horiz-adv-x="1536" 
d="M891 0v123l346 749h-311v179h557v-123l-348 -750h368v-178h-612zM305 686v-285q0 -236 115 -235q125 0 125 264v193q0 262 -127 262q-113 0 -113 -199zM379 -20q-153 0 -221 104t-68 340v248q0 207 67 303t212 96q100 0 176 -70v461h215v-1462h-166l-12 72
q-50 -52 -94 -72t-109 -20z" />
    <glyph glyph-name="uni01F4" unicode="&#x1f4;" horiz-adv-x="978" 
d="M385 1606l123 303h237l-200 -303h-160zM514 612v176h383v-278q0 -262 -72 -375q-98 -155 -325 -155t-328 145q-70 102 -70 344v520q0 266 86 369q98 123 301 123q242 0 334 -189q39 -80 41 -239h-207q-6 135 -42 189q-37 54 -125 54t-125 -70t-37 -251v-492
q0 -175 39 -247t133 -72t134 70t40 229v149h-160z" />
    <glyph glyph-name="uni01F5" unicode="&#x1f5;" horiz-adv-x="862" 
d="M358 1190l123 303h238l-201 -303h-160zM305 686v-283q0 -125 28 -181t87 -56q125 0 125 264v193q0 262 -127 262q-113 0 -113 -199zM545 -68v103q-74 -55 -168 -55q-151 0 -219 104t-68 340v248q0 207 67 303t210 96q65 1 111 -21t93 -75l23 76h166v-1088
q0 -225 -70 -325q-84 -119 -276 -119t-256 135q-29 59 -31 184h190q2 -80 26 -114q25 -34 87 -33q62 0 88 52t27 189z" />
    <glyph glyph-name="Aringacute" unicode="&#x1fa;" horiz-adv-x="921" 
d="M365 1841l108 258h275l-234 -258h-149zM462 1696q-85 0 -85 -116t85 -116t85 116t-85 116zM606 485l-141 666l-143 -666h284zM244 1583q0 97 59 157t157 60t160 -59q60 -59 60 -158q0 -129 -100 -194l374 -1389h-243l-64 303h-364l-66 -303h-244l375 1386
q-104 61 -104 197z" />
    <glyph glyph-name="aringacute" unicode="&#x1fb;" horiz-adv-x="823" 
d="M324 1653l108 258h275l-234 -258h-149zM422 1479q-86 0 -86 -116t86 -116t86 116t-86 116zM422 1583q98 0 158 -60q60 -59 61 -157q0 -98 -61 -160q-62 -62 -158 -63q-96 0 -158 62q-61 63 -61 161t60 158q61 59 159 59zM512 473h-82q-88 0 -125 -39t-37 -128t28 -121
q28 -31 96 -31t94 36t26 132v151zM512 627v47q0 125 -26 172t-88 47t-88 -37t-25 -121h-201q2 154 49 221q80 115 260 115t257 -97t77 -317v-657h-168l-12 57q-67 -77 -213 -77t-214 74t-67 250q0 175 71 249t245 74h143z" />
    <glyph glyph-name="AEacute" unicode="&#x1fc;" horiz-adv-x="1421" 
d="M836 1606l122 303h238l-201 -303h-159zM690 508v768h-24l-299 -768h323zM690 326h-393l-127 -326h-260l635 1462h807v-186h-443v-445h375v-186h-375v-459h451v-186h-670v326z" />
    <glyph glyph-name="aeacute" unicode="&#x1fd;" horiz-adv-x="1269" 
d="M522 1190l123 303h238l-201 -303h-160zM727 631h256v57q0 117 -29 163q-30 46 -102 46t-98 -45t-27 -164v-57zM512 475h-82q-88 0 -125 -40t-37 -129t27 -121q27 -31 97 -31t94 36q26 36 26 129v156zM285 735h-201q2 154 49 221q74 115 241 115t251 -100q85 100 249 100
t239 -105t75 -343v-148h-461v-94q0 -125 28 -174t95 -49t97 40t30 128h199q-2 -154 -46 -224q-72 -122 -252 -122t-262 106q-88 -106 -258 -106t-238 74t-67 251q0 176 71 250t245 74h143v43q0 125 -26 173t-88 48t-88 -37t-25 -121z" />
    <glyph glyph-name="Oslashacute" unicode="&#x1fe;" horiz-adv-x="1003" 
d="M387 1606l123 303h238l-201 -303h-160zM326 995v-424l317 654q-47 73 -143 73t-135 -66t-39 -237zM502 164q98 0 137 66t39 237v422l-318 -651q44 -74 142 -74zM901 1016v-570q0 -250 -93 -358t-306 -108q-152 0 -240 53l-35 -72l-159 76l71 147q-37 98 -37 262v570
q0 250 94 358t306 109q150 0 239 -53l33 69l162 -76l-72 -147q37 -98 37 -260z" />
    <glyph glyph-name="oslashacute" unicode="&#x1ff;" horiz-adv-x="858" 
d="M315 1190l123 303h238l-201 -303h-160zM426 893q-64 0 -92 -57t-29 -191v-209l215 408q-30 49 -94 49zM432 158q64 0 92 57t29 193v210l-217 -409q32 -51 96 -51zM768 629v-207q0 -230 -81 -336t-257 -106q-106 0 -192 47l-33 -64l-121 62l57 106q-51 96 -51 291v207
q0 231 81 337t257 105q113 0 190 -45l33 64l121 -64l-57 -104q53 -96 53 -293z" />
    <glyph glyph-name="uni0200" unicode="&#x200;" horiz-adv-x="921" 
d="M426 1606h-147l-166 303h215zM686 1606h-145l-168 303h217zM606 485l-141 666l-143 -666h284zM647 303h-364l-66 -303h-244l398 1462h188l395 -1462h-243z" />
    <glyph glyph-name="uni0201" unicode="&#x201;" horiz-adv-x="823" 
d="M360 1190h-147l-166 303h215zM621 1190h-146l-168 303h217zM498 473h-82q-88 0 -125 -39t-37 -128t28 -121q28 -31 96 -31t94 36t26 132v151zM498 627v47q0 125 -26 172t-88 47t-88 -37t-26 -121h-200q2 154 49 221q80 115 260 115t257 -97t77 -317v-657h-168l-13 57
q-68 -77 -213 -77t-213 74t-68 250q0 175 72 249q71 74 244 74h144z" />
    <glyph glyph-name="uni0202" unicode="&#x202;" horiz-adv-x="921" 
d="M463 1759q-63 0 -90 -32t-37 -115h-133q4 137 28 186q61 117 239 117t230 -135q19 -45 23 -168h-135q-8 84 -35 116t-90 31zM606 485l-141 666l-143 -666h284zM647 303h-364l-66 -303h-244l398 1462h188l395 -1462h-243z" />
    <glyph glyph-name="uni0203" unicode="&#x203;" horiz-adv-x="823" 
d="M418 1499q178 0 231 -135q19 -45 23 -168h-135q-8 84 -35 116t-90 32t-90 -32t-37 -116h-133q4 137 28 186q60 117 238 117zM512 473h-82q-88 0 -125 -39t-37 -128t28 -121q28 -31 96 -31t94 36t26 132v151zM512 627v47q0 125 -26 172t-88 47t-88 -37t-25 -121h-201
q2 154 49 221q80 115 260 115t257 -97t77 -317v-657h-168l-12 57q-67 -77 -213 -77t-214 74t-67 250q0 175 71 249t245 74h143z" />
    <glyph glyph-name="uni0204" unicode="&#x204;" horiz-adv-x="862" 
d="M418 1606h-148l-166 303h215zM678 1606h-146l-167 303h217zM125 0v1462h666v-186h-441v-445h373v-186h-373v-459h447v-186h-672z" />
    <glyph glyph-name="uni0205" unicode="&#x205;" horiz-adv-x="845" 
d="M381 1190h-148l-165 303h215zM641 1190h-145l-168 303h217zM301 637h254v49q0 119 -29 165q-28 46 -100 46t-98 -46t-27 -165v-49zM301 475v-96q0 -123 28 -172t94 -49t96 40t30 128h199q-2 -154 -48 -226q-76 -120 -266 -120t-269 105t-79 341v197q0 238 79 343t259 105
t258 -104t78 -344v-148h-459z" />
    <glyph glyph-name="uni0206" unicode="&#x206;" horiz-adv-x="862" 
d="M451 1759q-63 0 -91 -32t-36 -115h-134q4 137 29 186q61 117 239 117t230 -135q19 -45 23 -168h-136q-9 84 -35 116t-89 31zM127 0v1462h664v-186h-439v-445h371v-186h-371v-459h447v-186h-672z" />
    <glyph glyph-name="uni0207" unicode="&#x207;" horiz-adv-x="845" 
d="M431 1499q177 0 231 -135q18 -45 22 -168h-135q-8 84 -35 116t-90 32t-90 -32t-37 -116h-133q4 137 29 186q61 117 238 117zM305 637h254v49q0 119 -29 165q-28 46 -100 46t-98 -46t-27 -165v-49zM305 475v-96q0 -123 28 -172t94 -49t96 40t30 128h199q-2 -154 -47 -226
q-77 -120 -267 -120t-269 104t-79 342v197q0 238 79 343t259 105t258 -104t78 -344v-148h-459z" />
    <glyph glyph-name="uni0208" unicode="&#x208;" horiz-adv-x="477" 
d="M201 1606h-148l-166 303h215zM461 1606h-146l-168 303h218zM127 0v1462h225v-1462h-225z" />
    <glyph glyph-name="uni0209" unicode="&#x209;" horiz-adv-x="428" 
d="M176 1190h-147l-166 303h215zM436 1190h-145l-168 303h217zM106 0v1051h216v-1051h-216z" />
    <glyph glyph-name="uni020A" unicode="&#x20a;" horiz-adv-x="477" 
d="M240 1759q-63 0 -90 -32t-37 -115h-133q4 137 28 186q60 117 238 117t231 -135q19 -45 23 -168h-135q-8 84 -35 116t-90 31zM125 0v1462h225v-1462h-225z" />
    <glyph glyph-name="uni020B" unicode="&#x20b;" horiz-adv-x="428" 
d="M222 1499q177 0 231 -135q18 -45 22 -168h-135q-8 84 -35 116t-90 32t-90 -32t-37 -116h-133q4 137 29 186q61 117 238 117zM106 0v1051h216v-1051h-216z" />
    <glyph glyph-name="uni020C" unicode="&#x20c;" horiz-adv-x="1003" 
d="M465 1606h-148l-165 303h215zM725 1606h-145l-168 303h217zM676 467v528q0 168 -39 236q-39 67 -135 67t-135 -68t-39 -235v-528q0 -168 39 -236q39 -67 135 -67t135 68t39 235zM102 446v570q0 250 94 358t306 109q213 0 306 -110t93 -357v-570q0 -250 -93 -358
t-306 -108q-212 0 -306 108t-94 358z" />
    <glyph glyph-name="uni020D" unicode="&#x20d;" horiz-adv-x="858" 
d="M381 1190h-148l-165 303h215zM641 1190h-145l-168 303h217zM543 381v289q0 125 -27 174q-26 49 -96 49t-98 -49t-27 -174v-289q0 -125 28 -174q27 -49 97 -49t96 49t27 174zM80 399v252q0 223 80 321t260 99q180 0 259 -98t79 -322v-252q0 -223 -79 -321t-260 -98
t-260 98t-79 321z" />
    <glyph glyph-name="uni020E" unicode="&#x20e;" horiz-adv-x="1003" 
d="M502 1759q-63 0 -90 -32t-37 -115h-133q4 137 28 186q60 117 238 117t231 -135q19 -45 23 -168h-135q-8 84 -35 116t-90 31zM676 467v528q0 168 -39 236q-39 67 -135 67t-135 -68t-39 -235v-528q0 -168 39 -236q39 -67 135 -67t135 68t39 235zM102 446v570q0 250 94 358
t306 109q213 0 306 -110t93 -357v-570q0 -250 -93 -358t-306 -108q-212 0 -306 108t-94 358z" />
    <glyph glyph-name="uni020F" unicode="&#x20f;" horiz-adv-x="858" 
d="M437 1499q177 0 231 -135q18 -45 22 -168h-135q-8 84 -35 116t-90 32t-90 -32t-37 -116h-133q4 137 29 186q61 117 238 117zM553 381v289q0 125 -27 174q-26 49 -96 49t-98 -49t-27 -174v-289q0 -125 28 -174q27 -49 97 -49t96 49t27 174zM90 399v252q0 223 80 321
t260 99q180 0 259 -98t79 -322v-252q0 -223 -79 -321t-260 -98t-260 98t-79 321z" />
    <glyph glyph-name="uni0210" unicode="&#x210;" horiz-adv-x="962" 
d="M375 1606h-148l-166 303h215zM635 1606h-146l-167 303h217zM346 793h105q113 0 157 59t43 191q0 133 -45 185t-149 52h-111v-487zM352 616v-616h-225v1462h340q125 0 197 -22q212 -66 213 -396q0 -182 -44 -272t-153 -135l233 -637h-249l-203 616h-109z" />
    <glyph glyph-name="uni0211" unicode="&#x211;" horiz-adv-x="610" 
d="M285 1190h-148l-166 303h215zM545 1190h-146l-168 303h218zM102 0v1051h164l27 -86q35 59 74 83t109 24t151 -62l-95 -181q-55 55 -109 55t-80 -86q-26 -87 -26 -288v-510h-215z" />
    <glyph glyph-name="uni0212" unicode="&#x212;" horiz-adv-x="962" 
d="M442 1759q-63 0 -90 -32t-37 -115h-133q4 137 29 186q61 117 238 117t231 -135q18 -45 22 -168h-135q-8 84 -35 116t-90 31zM348 793h105q113 0 157 59t43 191q0 133 -45 185t-149 52h-111v-487zM354 616v-616h-225v1462h340q125 0 197 -22q212 -66 213 -396
q0 -182 -44 -272t-153 -135l233 -637h-249l-203 616h-109z" />
    <glyph glyph-name="uni0213" unicode="&#x213;" horiz-adv-x="610" 
d="M340 1499q178 0 231 -135q19 -45 23 -168h-135q-8 84 -35 116t-90 32t-90 -32t-37 -116h-133q4 137 28 186q60 117 238 117zM102 0v1051h164l27 -86q63 106 172 106q82 0 162 -61l-95 -181q-53 55 -108 55t-81 -86q-26 -87 -26 -288v-510h-215z" />
    <glyph glyph-name="uni0214" unicode="&#x214;" horiz-adv-x="1021" 
d="M475 1606h-147l-166 303h215zM735 1606h-145l-168 303h217zM123 1462h225v-1024q0 -137 23 -188q37 -86 135 -86q63 0 98 22t53 73q18 50 19 179v1024h225v-1024q0 -132 -13 -200t-52 -121q-98 -137 -333 -137t-329 159q-51 86 -51 299v1024z" />
    <glyph glyph-name="uni0215" unicode="&#x215;" horiz-adv-x="845" 
d="M381 1190h-148l-165 303h215zM641 1190h-145l-168 303h217zM92 1051h215v-648q0 -133 23 -185t84 -52t86 57t24 203v625h215v-1051h-161l-15 86q-47 -61 -91 -84t-114 -22q-180 0 -237 153q-29 72 -29 242v676z" />
    <glyph glyph-name="uni0216" unicode="&#x216;" horiz-adv-x="1021" 
d="M514 1759q-63 0 -90 -32t-37 -115h-133q4 137 29 186q61 117 238 117t231 -135q18 -45 22 -168h-135q-8 84 -35 116t-90 31zM123 1462h225v-1024q0 -137 23 -188q37 -86 135 -86q63 0 98 22t53 73q18 50 19 179v1024h225v-1024q0 -132 -13 -200t-52 -121
q-98 -137 -333 -137t-329 159q-51 86 -51 299v1024z" />
    <glyph glyph-name="uni0217" unicode="&#x217;" horiz-adv-x="845" 
d="M431 1499q177 0 231 -135q18 -45 22 -168h-135q-8 84 -35 116t-90 32t-90 -32t-37 -116h-133q4 137 29 186q61 117 238 117zM96 1051h215v-648q0 -133 23 -185t84 -52t86 57t24 203v625h215v-1051h-161l-15 86q-47 -61 -91 -84t-114 -22q-180 0 -237 153q-29 72 -29 242
v676z" />
    <glyph glyph-name="Scommaaccent" unicode="&#x218;" horiz-adv-x="876" 
d="M262 -471l72 334h205l-133 -334h-144zM256 432q0 -140 40 -204t129 -64t130 57t41 176q0 162 -96 210q-27 13 -127 46q-162 55 -232 151q-69 96 -69 280t89 290t259 107q231 0 317 -187q39 -80 41 -241h-207q-4 135 -36 189q-33 54 -109 54q-139 0 -139 -219
q0 -96 43 -149q42 -53 152 -92q110 -40 149 -58q180 -85 180 -364q0 -434 -381 -434q-248 0 -338 188q-41 84 -43 264h207z" />
    <glyph glyph-name="scommaaccent" unicode="&#x219;" horiz-adv-x="765" 
d="M215 -471l72 334h205l-134 -334h-143zM385 158q135 0 135 141q0 74 -41 102q-23 19 -154 57t-184 93q-72 76 -71 221q0 145 76 222q77 77 223 77q207 0 280 -139q33 -66 33 -189h-197q0 150 -108 150t-109 -125q0 -61 31 -94t133 -62t140 -44q146 -59 147 -271
q0 -317 -342 -317q-233 0 -303 155q-31 64 -33 197h199q2 -82 18 -113q33 -61 127 -61z" />
    <glyph glyph-name="uni021A" unicode="&#x21a;" horiz-adv-x="768" 
d="M211 -471l72 334h204l-133 -334h-143zM270 0v1276h-256v186h738v-186h-256v-1276h-226z" />
    <glyph glyph-name="uni021B" unicode="&#x21b;" horiz-adv-x="544" 
d="M143 -471l72 334h205l-133 -334h-144zM133 874h-96v177h96l12 309h203v-309h152v-177h-152v-534q-2 -94 23 -128t90 -32h39v-180h-62q-193 0 -250 68t-55 292v514z" />
    <glyph glyph-name="uni0226" unicode="&#x226;" horiz-adv-x="921" 
d="M358 1612v239h207v-239h-207zM606 485l-141 666l-143 -666h284zM647 303h-364l-66 -303h-244l398 1462h188l395 -1462h-243z" />
    <glyph glyph-name="uni0227" unicode="&#x227;" horiz-adv-x="823" 
d="M307 1198v240h207v-240h-207zM512 473h-82q-88 0 -125 -39t-37 -128t28 -121q28 -31 96 -31t94 36t26 132v151zM512 627v47q0 125 -26 172t-88 47t-88 -37t-25 -121h-201q2 154 49 221q80 115 260 115t257 -97t77 -317v-657h-168l-12 57q-67 -77 -213 -77t-214 74
t-67 250q0 175 71 249t245 74h143z" />
    <glyph glyph-name="uni0237" unicode="&#x237;" horiz-adv-x="436" 
d="M115 1051h215v-1041q6 -281 -76 -382t-311 -99v180q96 -3 135 59t37 220v1063z" />
    <glyph glyph-name="afii57929" unicode="&#x2bc;" horiz-adv-x="337" 
d="M35 954l47 508h223l-88 -508h-182z" />
    <glyph glyph-name="uni02C0" unicode="&#x2c0;" horiz-adv-x="1024" 
d="M598 1581h-156q2 88 11 118q7 30 37 71t30 61q0 39 -43 39t-119 -35l-41 141q111 37 198 37t139 -45t53 -127q-1 -41 -13 -65t-61 -76q-23 -30 -29 -50t-6 -69z" />
    <glyph glyph-name="circumflex" unicode="&#x2c6;" horiz-adv-x="1024" 
d="M512 1358l-82 -162h-199l203 291h156l203 -291h-199z" />
    <glyph glyph-name="caron" unicode="&#x2c7;" horiz-adv-x="1024" 
d="M512 1321l82 162h199l-203 -291h-156l-203 291h199z" />
    <glyph glyph-name="uni02C9" unicode="&#x2c9;" horiz-adv-x="1024" 
d="M274 1249v156h476v-156h-476z" />
    <glyph glyph-name="breve" unicode="&#x2d8;" horiz-adv-x="1024" 
d="M512 1331q63 0 90 31t35 117h135q-4 -131 -31 -187q-57 -116 -236 -116t-233 137q-18 51 -20 166h133q8 -84 36 -116t91 -32z" />
    <glyph glyph-name="dotaccent" unicode="&#x2d9;" horiz-adv-x="1024" 
d="M410 1198v240h206v-240h-206z" />
    <glyph glyph-name="ring" unicode="&#x2da;" horiz-adv-x="1024" 
d="M511 1507q-85 1 -85 -115t85 -116t85 116t-85 115zM512 1612q98 0 158 -60t59 -158q0 -98 -60 -160q-61 -62 -157 -62t-158 62t-61 160t61 158t158 60z" />
    <glyph glyph-name="ogonek" unicode="&#x2db;" horiz-adv-x="1024" 
d="M649 -289q43 0 92 21l25 -113q-78 -35 -166 -35q-209 0 -209 158q0 104 92 195q13 12 72 63h158q-4 -8 -13 -12l-41 -43q-77 -82 -77 -158t67 -76z" />
    <glyph glyph-name="tilde" unicode="&#x2dc;" horiz-adv-x="1024" 
d="M608 1350q39 0 49 112h127q-6 -100 -26 -157q-41 -109 -146 -109q-78 0 -125 64t-65 63q-47 0 -57 -113h-127q31 264 177 266q73 0 122 -63q53 -63 71 -63z" />
    <glyph glyph-name="hungarumlaut" unicode="&#x2dd;" horiz-adv-x="1024" 
d="M549 1190l98 303h215l-166 -303h-147zM289 1190l98 303h215l-166 -303h-147z" />
    <glyph glyph-name="uni0309" unicode="&#x309;" horiz-adv-x="1024" 
d="M598 1178h-156q2 88 10 118t50 84q18 29 18 47q0 39 -44 39t-118 -32l-41 139q109 37 198 37t140 -45t52 -127q-1 -39 -13 -63t-48 -65t-42 -62t-6 -70z" />
    <glyph glyph-name="uni0312" unicode="&#x312;" horiz-adv-x="1024" 
d="M399 1190l203 303h158l-123 -303h-238z" />
    <glyph glyph-name="uni0313" unicode="&#x313;" horiz-adv-x="182" 
d="M-25 969l52 518h200l-102 -518h-150z" />
    <glyph glyph-name="uni031B" unicode="&#x31b;" horiz-adv-x="182" 
d="M-25 969l52 518h200l-102 -518h-150z" />
    <glyph glyph-name="uni0323" unicode="&#x323;" horiz-adv-x="1024" 
d="M410 -414v240h206v-240h-206z" />
    <glyph glyph-name="uni037E" unicode="&#x37e;" horiz-adv-x="434" 
d="M127 807v237h225v-237h-225zM49 -385l72 618h235l-112 -618h-195z" />
    <glyph glyph-name="uni0387" unicode="&#x387;" horiz-adv-x="436" 
d="M106 616v238h226v-238h-226z" />
    <glyph glyph-name="uni04D4" unicode="&#x4d4;" horiz-adv-x="1421" 
d="M690 508v768h-24l-299 -768h323zM690 326h-393l-127 -326h-260l635 1462h807v-186h-443v-445h375v-186h-375v-459h451v-186h-670v326z" />
    <glyph glyph-name="uni04D5" unicode="&#x4d5;" horiz-adv-x="1269" 
d="M727 631h256v57q0 117 -29 163q-30 46 -102 46t-98 -45t-27 -164v-57zM512 475h-82q-88 0 -125 -40t-37 -129t27 -121q27 -31 97 -31t94 36q26 36 26 129v156zM285 735h-201q2 154 49 221q74 115 241 115t251 -100q85 100 249 100t239 -105t75 -343v-148h-461v-94
q0 -125 28 -174t95 -49t97 40t30 128h199q-2 -154 -46 -224q-72 -122 -252 -122t-262 106q-88 -106 -258 -106t-238 74t-67 251q0 176 71 250t245 74h143v43q0 125 -26 173t-88 48t-88 -37t-25 -121z" />
    <glyph glyph-name="uni1E02" unicode="&#x1e02;" horiz-adv-x="980" 
d="M360 1612v239h207v-239h-207zM352 182h133q107 0 147 53t40 181t-40 185q-40 56 -130 56h-150v-475zM352 840h135q166 0 166 219q0 119 -40 170t-136 51h-125v-440zM127 0v1462h360q215 0 303 -94t88 -312t-128 -292q147 -94 147 -367q0 -219 -100 -319q-78 -78 -256 -78
h-414z" />
    <glyph glyph-name="uni1E03" unicode="&#x1e03;" horiz-adv-x="862" 
d="M459 1198v240h207v-240h-207zM557 397v289q0 199 -113 199q-127 0 -127 -262v-193q0 -264 127 -264q113 0 113 231zM102 0v1462h215v-461q76 70 177 70q145 0 212 -96t66 -303v-248q0 -236 -68 -340t-221 -104q-65 0 -109 19t-93 73l-13 -72h-166z" />
    <glyph glyph-name="uni1E0C" unicode="&#x1e0c;" horiz-adv-x="1003" 
d="M350 -414v240h207v-240h-207zM352 182h125q117 0 157 60t42 231v516q-2 171 -42 231t-157 60h-125v-1098zM127 0v1462h344q231 4 333 -97t97 -337v-594q4 -236 -97 -337t-333 -97h-344z" />
    <glyph glyph-name="uni1E0D" unicode="&#x1e0d;" horiz-adv-x="862" 
d="M350 -414v240h207v-240h-207zM305 686v-285q0 -236 115 -235q125 0 125 264v193q0 262 -127 262q-113 0 -113 -199zM379 -20q-153 0 -221 104t-68 340v248q0 207 67 303t212 96q100 0 176 -70v461h215v-1462h-166l-12 72q-50 -52 -94 -72t-109 -20z" />
    <glyph glyph-name="uni1E1E" unicode="&#x1e1e;" horiz-adv-x="823" 
d="M365 1612v239h206v-239h-206zM127 0v1462h655v-186h-430v-455h359v-186h-359v-635h-225z" />
    <glyph glyph-name="uni1E1F" unicode="&#x1e1f;" horiz-adv-x="530" 
d="M240 1612v239h206v-239h-206zM137 874h-96v177h96v108q-3 179 55 243t218 60h96v-164h-47q-70 2 -88 -24t-19 -127v-96h158v-177h-158v-874h-215v874z" />
    <glyph glyph-name="uni1E24" unicode="&#x1e24;" horiz-adv-x="1015" 
d="M406 -414v240h206v-240h-206zM127 0v1462h225v-631h314v631h225v-1462h-225v645h-314v-645h-225z" />
    <glyph glyph-name="uni1E25" unicode="&#x1e25;" horiz-adv-x="866" 
d="M330 -414v240h207v-240h-207zM102 0v1462h215v-452q69 61 167 61t164 -41q66 -42 94 -112t28 -242v-676h-215v647q0 133 -25 185q-26 52 -92 53q-66 -1 -94 -57t-27 -201v-627h-215z" />
    <glyph glyph-name="uni1E44" unicode="&#x1e44;" horiz-adv-x="1064" 
d="M446 1612v239h207v-239h-207zM127 0v1462h223l379 -999v999h211v-1462h-213l-389 1012v-1012h-211z" />
    <glyph glyph-name="uni1E45" unicode="&#x1e45;" horiz-adv-x="866" 
d="M330 1198v240h207v-240h-207zM102 0v1051h160l17 -86q47 59 94 83t128 24t147 -42q66 -40 94 -112t28 -242v-676h-215v647q0 133 -26 185q-27 52 -93 53q-66 -1 -92 -57t-27 -201v-627h-215z" />
    <glyph glyph-name="uni1E5A" unicode="&#x1e5a;" horiz-adv-x="962" 
d="M385 -414v240h207v-240h-207zM348 793h105q113 0 157 59t43 191q0 133 -45 185t-149 52h-111v-487zM354 616v-616h-225v1462h340q125 0 197 -22q212 -66 213 -396q0 -182 -44 -272t-153 -135l233 -637h-249l-203 616h-109z" />
    <glyph glyph-name="uni1E5B" unicode="&#x1e5b;" horiz-adv-x="610" 
d="M106 -414v240h207v-240h-207zM102 0v1051h164l27 -86q63 106 172 106q82 0 162 -61l-95 -181q-55 55 -110 55t-80 -85q-25 -86 -25 -289v-510h-215z" />
    <glyph glyph-name="uni1E62" unicode="&#x1e62;" horiz-adv-x="876" 
d="M313 -414v240h207v-240h-207zM256 432q0 -140 40 -204t129 -64t130 57t41 176q0 162 -96 210q-27 13 -127 46q-162 55 -232 151q-69 96 -69 280t89 290t259 107q231 0 317 -187q39 -80 41 -241h-207q-4 135 -36 189q-33 54 -109 54q-139 0 -139 -219q0 -96 43 -149
q42 -53 152 -92q110 -40 149 -58q180 -85 180 -364q0 -434 -381 -434q-248 0 -338 188q-41 84 -43 264h207z" />
    <glyph glyph-name="uni1E63" unicode="&#x1e63;" horiz-adv-x="765" 
d="M256 -414v240h207v-240h-207zM385 158q135 0 135 141q0 74 -41 102q-23 19 -154 57t-184 93q-72 76 -71 221q0 145 76 222q77 77 223 77q207 0 280 -139q33 -66 33 -189h-197q0 150 -108 150t-109 -125q0 -61 31 -94t133 -62t140 -44q146 -59 147 -271q0 -317 -342 -317
q-233 0 -303 155q-31 64 -33 197h199q2 -82 18 -113q33 -61 127 -61z" />
    <glyph glyph-name="uni1E6C" unicode="&#x1e6c;" horiz-adv-x="768" 
d="M281 -414v240h206v-240h-206zM270 0v1276h-256v186h738v-186h-256v-1276h-226z" />
    <glyph glyph-name="uni1E6D" unicode="&#x1e6d;" horiz-adv-x="544" 
d="M168 -414v240h207v-240h-207zM133 874h-96v177h96l12 309h203v-309h152v-177h-152v-534q-2 -94 23 -128t90 -32h39v-180h-62q-193 0 -250 68t-55 292v514z" />
    <glyph glyph-name="Wgrave" unicode="&#x1e80;" horiz-adv-x="1400" 
d="M815 1606h-158l-202 303h237zM283 0l-244 1462h223l135 -1054l217 1054h172l218 -1054l135 1054h223l-244 -1462h-203l-215 1020l-215 -1020h-202z" />
    <glyph glyph-name="wgrave" unicode="&#x1e81;" horiz-adv-x="1169" 
d="M700 1190h-157l-203 303h238zM252 0l-215 1051h217l106 -709l150 709h152l149 -709l107 709h217l-215 -1051h-185l-149 680l-150 -680h-184z" />
    <glyph glyph-name="Wacute" unicode="&#x1e82;" horiz-adv-x="1400" 
d="M588 1606l123 303h237l-200 -303h-160zM283 0l-244 1462h223l135 -1054l217 1054h172l218 -1054l135 1054h223l-244 -1462h-203l-215 1020l-215 -1020h-202z" />
    <glyph glyph-name="wacute" unicode="&#x1e83;" horiz-adv-x="1169" 
d="M473 1190l123 303h238l-201 -303h-160zM252 0l-215 1051h217l106 -709l150 709h152l149 -709l107 709h217l-215 -1051h-185l-149 680l-150 -680h-184z" />
    <glyph glyph-name="Wdieresis" unicode="&#x1e84;" horiz-adv-x="1400" 
d="M766 1618v235h190v-235h-190zM446 1618v235h191v-235h-191zM283 0l-244 1462h223l135 -1054l217 1054h172l218 -1054l135 1054h223l-244 -1462h-203l-215 1020l-215 -1020h-202z" />
    <glyph glyph-name="wdieresis" unicode="&#x1e85;" horiz-adv-x="1169" 
d="M647 1200v238h191v-238h-191zM334 1200v238h190v-238h-190zM252 0l-215 1051h217l106 -709l150 709h152l149 -709l107 709h217l-215 -1051h-185l-149 680l-150 -680h-184z" />
    <glyph glyph-name="uni1E92" unicode="&#x1e92;" horiz-adv-x="792" 
d="M315 -414v240h207v-240h-207zM35 0v121l450 1155h-409v186h655v-121l-450 -1155h471v-186h-717z" />
    <glyph glyph-name="uni1E93" unicode="&#x1e93;" horiz-adv-x="675" 
d="M252 -414v240h207v-240h-207zM31 0v123l346 749h-311v179h557v-123l-349 -750h369v-178h-612z" />
    <glyph glyph-name="uni1EA0" unicode="&#x1ea0;" horiz-adv-x="921" 
d="M358 -414v240h207v-240h-207zM606 485l-141 666l-143 -666h284zM647 303h-364l-66 -303h-244l398 1462h188l395 -1462h-243z" />
    <glyph glyph-name="uni1EA1" unicode="&#x1ea1;" horiz-adv-x="823" 
d="M307 -414v240h207v-240h-207zM512 473h-82q-88 0 -125 -39t-37 -128t28 -121q28 -31 96 -31t94 36t26 132v151zM512 627v47q0 125 -26 172t-88 47t-88 -37t-25 -121h-201q2 154 49 221q80 115 260 115t257 -97t77 -317v-657h-168l-12 57q-67 -77 -213 -77t-214 74
t-67 250q0 175 71 249t245 74h143z" />
    <glyph glyph-name="uni1EA2" unicode="&#x1ea2;" horiz-adv-x="921" 
d="M393 1581q0 88 9 118t51 85q18 31 18 47q0 39 -45 39t-117 -35l-43 141q113 37 201 37t139 -45t51 -127q0 -41 -12 -65t-48 -63t-42 -61t-8 -71h-154zM606 485l-141 666l-143 -666h284zM647 303h-364l-66 -303h-244l398 1462h188l395 -1462h-243z" />
    <glyph glyph-name="uni1EA3" unicode="&#x1ea3;" horiz-adv-x="823" 
d="M498 1178h-156q0 88 9 118t50 84q18 31 19 47q0 39 -44 39t-118 -32l-41 139q109 37 198 37t140 -45t51 -127q0 -39 -12 -63t-48 -65t-42 -62t-6 -70zM512 473h-82q-88 0 -125 -39t-37 -128t28 -121q28 -31 96 -31t94 36t26 132v151zM512 627v47q0 125 -26 172t-88 47
t-88 -37t-25 -121h-201q2 154 49 221q80 115 260 115t257 -97t77 -317v-657h-168l-12 57q-67 -77 -213 -77t-214 74t-67 250q0 175 71 249t245 74h143z" />
    <glyph glyph-name="uni1EA4" unicode="&#x1ea4;" horiz-adv-x="921" 
d="M463 1671l-84 -112h-189l201 237h141l201 -237h-186zM391 1849l94 238h166l-143 -238h-117zM606 485l-141 666l-143 -666h284zM647 303h-364l-66 -303h-244l398 1462h188l395 -1462h-243z" />
    <glyph glyph-name="uni1EA5" unicode="&#x1ea5;" horiz-adv-x="823" 
d="M418 1255l-84 -112h-189l201 237h143l201 -237h-188zM348 1434l92 237h168l-145 -237h-115zM512 473h-82q-88 0 -125 -39t-37 -128t28 -121q28 -31 96 -31t94 36t26 132v151zM512 627v47q0 125 -26 172t-88 47t-88 -37t-25 -121h-201q2 154 49 221q80 115 260 115
t257 -97t77 -317v-657h-168l-12 57q-67 -77 -213 -77t-214 74t-67 250q0 175 71 249t245 74h143z" />
    <glyph glyph-name="uni1EA6" unicode="&#x1ea6;" horiz-adv-x="921" 
d="M463 1671l-84 -112h-189l201 237h144l198 -237h-186zM528 1849h-114l-146 238h168zM606 485l-141 666l-143 -666h284zM647 303h-364l-66 -303h-244l398 1462h188l395 -1462h-243z" />
    <glyph glyph-name="uni1EA7" unicode="&#x1ea7;" horiz-adv-x="823" 
d="M418 1255l-84 -112h-189l201 237h143l201 -237h-188zM483 1434h-114l-146 237h168zM512 473h-82q-88 0 -125 -39t-37 -128t28 -121q28 -31 96 -31t94 36t26 132v151zM512 627v47q0 125 -26 172t-88 47t-88 -37t-25 -121h-201q2 154 49 221q80 115 260 115t257 -97
t77 -317v-657h-168l-12 57q-67 -77 -213 -77t-214 74t-67 250q0 175 71 249t245 74h143z" />
    <glyph glyph-name="uni1EA8" unicode="&#x1ea8;" horiz-adv-x="921" 
d="M461 1667l-84 -108h-189l201 221h143l201 -221h-188zM416 2003q-20 0 -66 -23l-28 97q56 29 122 29t103 -34q37 -32 37 -73t-8 -57t-32 -48t-26 -82h-123q2 80 25 115t22 53q0 23 -26 23zM606 485l-141 666l-143 -666h284zM647 303h-364l-66 -303h-244l398 1462h188
l395 -1462h-243z" />
    <glyph glyph-name="uni1EA9" unicode="&#x1ea9;" horiz-adv-x="823" 
d="M416 1251l-84 -108h-189l201 221h143l201 -221h-188zM475 1397h-123q0 77 24 113t23 55q0 45 -94 -2l-29 98q62 29 126 29t102 -33t37 -74t-9 -57t-32 -49t-25 -80zM512 473h-82q-88 0 -125 -39t-37 -128t28 -121q28 -31 96 -31t94 36t26 132v151zM512 627v47
q0 125 -26 172t-88 47t-88 -37t-25 -121h-201q2 154 49 221q80 115 260 115t257 -97t77 -317v-657h-168l-12 57q-67 -77 -213 -77t-214 74t-67 250q0 175 71 249t245 74h143z" />
    <glyph glyph-name="uni1EAA" unicode="&#x1eaa;" horiz-adv-x="921" 
d="M465 1671l-84 -112h-188l200 237h144l200 -237h-188zM543 1974q31 0 41 92h106q-12 -123 -45 -172t-98 -49q-65 -1 -105 51t-56 52q-14 0 -30 -27t-22 -66h-105q17 121 53 171t97 50t104 -50q43 -52 60 -52zM606 485l-141 666l-143 -666h284zM647 303h-364l-66 -303h-244
l398 1462h188l395 -1462h-243z" />
    <glyph glyph-name="uni1EAB" unicode="&#x1eab;" horiz-adv-x="823" 
d="M420 1255l-84 -112h-189l201 237h144l200 -237h-188zM334 1661q61 0 104 -51q47 -51 60 -51q31 0 41 92h106q-12 -123 -45 -172q-32 -49 -98 -49t-107 57q-39 47 -54 47t-31 -28t-19 -66h-107q16 119 52 170t98 51zM512 473h-82q-88 0 -125 -39t-37 -128t28 -121
q28 -31 96 -31t94 36t26 132v151zM512 627v47q0 125 -26 172t-88 47t-88 -37t-25 -121h-201q2 154 49 221q80 115 260 115t257 -97t77 -317v-657h-168l-12 57q-67 -77 -213 -77t-214 74t-67 250q0 175 71 249t245 74h143z" />
    <glyph glyph-name="uni1EAC" unicode="&#x1eac;" horiz-adv-x="921" 
d="M358 -414v240h207v-240h-207zM461 1774l-80 -162h-199l203 291h154l204 -291h-200zM606 485l-141 666l-143 -666h284zM647 303h-364l-66 -303h-244l398 1462h188l395 -1462h-243z" />
    <glyph glyph-name="uni1EAD" unicode="&#x1ead;" horiz-adv-x="823" 
d="M297 -414v240h207v-240h-207zM422 1358l-80 -162h-201l203 291h156l202 -291h-198zM512 473h-82q-88 0 -125 -39t-37 -128t28 -121q28 -31 96 -31t94 36t26 132v151zM512 627v47q0 125 -26 172t-88 47t-88 -37t-25 -121h-201q2 154 49 221q80 115 260 115t257 -97
t77 -317v-657h-168l-12 57q-67 -77 -213 -77t-214 74t-67 250q0 175 71 249t245 74h143z" />
    <glyph glyph-name="uni1EAE" unicode="&#x1eae;" horiz-adv-x="921" 
d="M463 1702q63 0 91 28t36 101h123q-2 -123 -29 -172q-57 -109 -229 -109t-222 125q-16 43 -22 156h123q10 -73 38 -101t91 -28zM391 1849l94 238h166l-143 -238h-117zM606 485l-141 666l-143 -666h284zM647 303h-364l-66 -303h-244l398 1462h188l395 -1462h-243z" />
    <glyph glyph-name="uni1EAF" unicode="&#x1eaf;" horiz-adv-x="823" 
d="M412 1286q63 0 91 28t36 101h125q-4 -123 -31 -172q-57 -109 -221 -108q-94 0 -148 29q-54 30 -76 83t-28 168h123q10 -73 38 -101t91 -28zM342 1434l92 237h166l-143 -237h-115zM512 473h-82q-88 0 -125 -39t-37 -128t28 -121q28 -31 96 -31t94 36t26 132v151zM512 627
v47q0 125 -26 172t-88 47t-88 -37t-25 -121h-201q2 154 49 221q80 115 260 115t257 -97t77 -317v-657h-168l-12 57q-67 -77 -213 -77t-214 74t-67 250q0 175 71 249t245 74h143z" />
    <glyph glyph-name="uni1EB0" unicode="&#x1eb0;" horiz-adv-x="921" 
d="M463 1702q63 0 91 28t36 101h123q-2 -123 -29 -172q-57 -109 -229 -109t-222 125q-16 43 -22 156h123q10 -73 38 -101t91 -28zM541 1849h-115l-145 238h165zM606 485l-141 666l-143 -666h284zM647 303h-364l-66 -303h-244l398 1462h188l395 -1462h-243z" />
    <glyph glyph-name="uni1EB1" unicode="&#x1eb1;" horiz-adv-x="823" 
d="M412 1286q63 0 91 28t36 101h125q-4 -123 -31 -172q-57 -109 -221 -108q-94 0 -148 29q-54 30 -76 83t-28 168h123q10 -73 38 -101t91 -28zM489 1434h-114l-146 237h168zM512 473h-82q-88 0 -125 -39t-37 -128t28 -121q28 -31 96 -31t94 36t26 132v151zM512 627v47
q0 125 -26 172t-88 47t-88 -37t-25 -121h-201q2 154 49 221q80 115 260 115t257 -97t77 -317v-657h-168l-12 57q-67 -77 -213 -77t-214 74t-67 250q0 175 71 249t245 74h143z" />
    <glyph glyph-name="uni1EB2" unicode="&#x1eb2;" horiz-adv-x="921" 
d="M455 1550q-172 0 -222 125q-16 43 -22 156h121q10 -76 38 -105q28 -28 92 -28t94 28q28 28 36 105h121q-2 -123 -29 -172q-57 -109 -229 -109zM520 1800h-123q0 76 24 114t23 58q0 31 -26 31q-20 0 -66 -23l-30 97q58 29 124 29t103 -36q37 -34 37 -94q0 -25 -7 -40
t-33 -48t-26 -88zM606 485l-141 666l-143 -666h284zM647 303h-364l-66 -303h-244l398 1462h188l395 -1462h-243z" />
    <glyph glyph-name="uni1EB3" unicode="&#x1eb3;" horiz-adv-x="823" 
d="M412 1282q66 0 94 29t35 104h123q-4 -123 -31 -172q-57 -109 -221 -108q-94 0 -148 29q-54 30 -76 83t-28 168h121q9 -77 37 -105t94 -28zM368 1587q-26 0 -67 -24l-31 98q58 29 124 29t104 -35t37 -94q1 -25 -7 -40t-39 -53q-18 -29 -20 -84h-123q2 78 25 114t23 62
t-26 27zM512 473h-82q-88 0 -125 -39t-37 -128t28 -121q28 -31 96 -31t94 36t26 132v151zM512 627v47q0 125 -26 172t-88 47t-88 -37t-25 -121h-201q2 154 49 221q80 115 260 115t257 -97t77 -317v-657h-168l-12 57q-67 -77 -213 -77t-214 74t-67 250q0 175 71 249t245 74
h143z" />
    <glyph glyph-name="uni1EB4" unicode="&#x1eb4;" horiz-adv-x="921" 
d="M443 1552q-164 0 -214 115q-18 41 -20 143h117q8 -68 34 -94t90 -24q64 0 92 26t36 92h116q-4 -118 -32 -164q-56 -94 -219 -94zM374 2097q60 0 103 -51q47 -51 60 -51q31 0 43 92h104q-8 -90 -27 -137q-31 -84 -116 -84q-63 0 -103 51t-57 51q-37 0 -51 -92h-107
q31 221 151 221zM606 485l-141 666l-143 -666h284zM647 303h-364l-66 -303h-244l398 1462h188l395 -1462h-243z" />
    <glyph glyph-name="uni1EB5" unicode="&#x1eb5;" horiz-adv-x="823" 
d="M401 1276q63 0 91 26q27 26 34 93h117q-4 -117 -29 -158q-55 -100 -220 -100t-214 114q-18 42 -22 144h116q8 -67 36 -93t91 -26zM322 1681q60 0 106 -51q43 -53 59 -53q33 0 41 94h107q-12 -100 -27 -137q-35 -84 -119 -84q-63 0 -104 51t-56 51t-30 -26
q-14 -27 -20 -66h-105q16 119 52 170t96 51zM512 473h-82q-88 0 -125 -39t-37 -128t28 -121q28 -31 96 -31t94 36t26 132v151zM512 627v47q0 125 -26 172t-88 47t-88 -37t-25 -121h-201q2 154 49 221q80 115 260 115t257 -97t77 -317v-657h-168l-12 57q-67 -77 -213 -77
t-214 74t-67 250q0 175 71 249t245 74h143z" />
    <glyph glyph-name="uni1EB6" unicode="&#x1eb6;" horiz-adv-x="921" 
d="M358 -414v240h207v-240h-207zM461 1749q63 0 90 32t37 115h133q-4 -137 -29 -186q-61 -117 -238 -117t-231 136q-16 44 -22 167h135q8 -84 35 -116t90 -31zM606 485l-141 666l-143 -666h284zM647 303h-364l-66 -303h-244l398 1462h188l395 -1462h-243z" />
    <glyph glyph-name="uni1EB7" unicode="&#x1eb7;" horiz-adv-x="823" 
d="M307 -414v240h207v-240h-207zM422 1331q63 0 90 31t35 117h135q-4 -131 -31 -187q-57 -116 -237 -116t-230 137q-16 43 -22 166h135q8 -86 35 -117t90 -31zM512 473h-82q-88 0 -125 -39t-37 -128t28 -121q28 -31 96 -31t94 36t26 132v151zM512 627v47q0 125 -26 172
t-88 47t-88 -37t-25 -121h-201q2 154 49 221q80 115 260 115t257 -97t77 -317v-657h-168l-12 57q-67 -77 -213 -77t-214 74t-67 250q0 175 71 249t245 74h143z" />
    <glyph glyph-name="uni1EB8" unicode="&#x1eb8;" horiz-adv-x="862" 
d="M377 -414v240h207v-240h-207zM127 0v1462h664v-186h-439v-445h371v-186h-371v-459h447v-186h-672z" />
    <glyph glyph-name="uni1EB9" unicode="&#x1eb9;" horiz-adv-x="845" 
d="M319 -414v240h207v-240h-207zM305 637h254v49q0 119 -29 165q-28 46 -100 46t-98 -46t-27 -165v-49zM305 475v-96q0 -123 28 -172t94 -49t96 40t30 128h199q-2 -154 -47 -226q-77 -120 -267 -120t-269 104t-79 342v197q0 238 79 343t259 105t258 -104t78 -344v-148h-459z
" />
    <glyph glyph-name="uni1EBA" unicode="&#x1eba;" horiz-adv-x="862" 
d="M551 1581h-156q2 90 11 119q8 29 38 70t29 61q0 39 -43 39t-119 -35l-41 141q111 37 199 37t139 -45t51 -127q0 -41 -12 -65t-48 -63t-42 -61t-6 -71zM127 0v1462h664v-186h-439v-445h371v-186h-371v-459h447v-186h-672z" />
    <glyph glyph-name="uni1EBB" unicode="&#x1ebb;" horiz-adv-x="845" 
d="M354 1178q0 88 10 118t50 84q18 31 18 47q0 39 -44 39t-118 -32l-43 139q111 37 200 37t140 -45t51 -127q0 -39 -12 -63t-48 -65t-42 -62t-8 -70h-154zM305 637h254v49q0 119 -29 165q-28 46 -100 46t-98 -46t-27 -165v-49zM305 475v-96q0 -123 28 -172t94 -49t96 40
t30 128h199q-2 -154 -47 -226q-77 -120 -267 -120t-269 104t-79 342v197q0 238 79 343t259 105t258 -104t78 -344v-148h-459z" />
    <glyph glyph-name="uni1EBC" unicode="&#x1ebc;" horiz-adv-x="862" 
d="M367 1890q67 0 119 -62t71 -63q41 0 49 111h127q-8 -140 -49 -202t-122 -62t-127 62t-64 63q-48 0 -58 -111h-127q31 264 181 264zM127 0v1462h664v-186h-439v-445h371v-186h-371v-459h447v-186h-672z" />
    <glyph glyph-name="uni1EBD" unicode="&#x1ebd;" horiz-adv-x="845" 
d="M520 1350q39 0 49 112h127q-6 -100 -26 -157q-41 -109 -146 -109q-78 0 -125 64t-65 63q-48 0 -58 -113h-126q31 264 177 266q73 0 122 -63q53 -63 71 -63zM305 637h254v49q0 119 -29 165q-28 46 -100 46t-98 -46t-27 -165v-49zM305 475v-96q0 -123 28 -172t94 -49t96 40
t30 128h199q-2 -154 -47 -226q-77 -120 -267 -120t-269 104t-79 342v197q0 238 79 343t259 105t258 -104t78 -344v-148h-459z" />
    <glyph glyph-name="uni1EBE" unicode="&#x1ebe;" horiz-adv-x="862" 
d="M455 1671l-84 -112h-189l201 237h143l201 -237h-188zM385 1849l92 238h168l-145 -238h-115zM127 0v1462h664v-186h-439v-445h371v-186h-371v-459h447v-186h-672z" />
    <glyph glyph-name="uni1EBF" unicode="&#x1ebf;" horiz-adv-x="845" 
d="M424 1255l-84 -112h-188l200 237h142l200 -237h-186zM352 1434l94 237h166l-145 -237h-115zM305 637h254v49q0 119 -29 165q-28 46 -100 46t-98 -46t-27 -165v-49zM305 475v-96q0 -123 28 -172t94 -49t96 40t30 128h199q-2 -154 -47 -226q-77 -120 -267 -120t-269 104
t-79 342v197q0 238 79 343t259 105t258 -104t78 -344v-148h-459z" />
    <glyph glyph-name="uni1EC0" unicode="&#x1ec0;" horiz-adv-x="862" 
d="M455 1671l-84 -112h-189l201 237h143l201 -237h-188zM520 1849h-114l-146 238h168zM127 0v1462h664v-186h-439v-445h371v-186h-371v-459h447v-186h-672z" />
    <glyph glyph-name="uni1EC1" unicode="&#x1ec1;" horiz-adv-x="845" 
d="M424 1255l-84 -112h-188l200 237h144l198 -237h-186zM489 1434h-114l-146 237h168zM305 637h254v49q0 119 -29 165q-28 46 -100 46t-98 -46t-27 -165v-49zM305 475v-96q0 -123 28 -172t94 -49t96 40t30 128h199q-2 -154 -47 -226q-77 -120 -267 -120t-269 104t-79 342
v197q0 238 79 343t259 105t258 -104t78 -344v-148h-459z" />
    <glyph glyph-name="uni1EC2" unicode="&#x1ec2;" horiz-adv-x="862" 
d="M453 1667l-84 -108h-187l199 221h143l201 -221h-188zM389 1812q0 76 24 111t23 57q0 23 -26 23q-20 0 -68 -23l-29 97q57 29 123 29t105 -33q37 -33 37 -74t-8 -57t-40 -56q-16 -25 -18 -74h-123zM127 0v1462h664v-186h-439v-445h371v-186h-371v-459h447v-186h-672z" />
    <glyph glyph-name="uni1EC3" unicode="&#x1ec3;" horiz-adv-x="845" 
d="M422 1251l-84 -108h-188l200 221h144l200 -221h-188zM406 1690q66 0 102 -33q37 -33 37 -81t-47 -106q-17 -24 -19 -73h-123q2 81 25 113t22 55q0 49 -92 -2l-30 98q59 29 125 29zM305 637h254v49q0 119 -29 165q-28 46 -100 46t-98 -46t-27 -165v-49zM305 475v-96
q0 -123 28 -172t94 -49t96 40t30 128h199q-2 -154 -47 -226q-77 -120 -267 -120t-269 104t-79 342v197q0 238 79 343t259 105t258 -104t78 -344v-148h-459z" />
    <glyph glyph-name="uni1EC4" unicode="&#x1ec4;" horiz-adv-x="862" 
d="M457 1671l-84 -112h-189l201 237h143l201 -237h-188zM535 1974q31 0 40 92h107q-8 -90 -27 -137q-31 -84 -116 -84q-63 -1 -103 51t-57 52q-15 0 -31 -27t-20 -66h-107q16 119 52 170q35 51 97 51t105 -51q47 -51 60 -51zM127 0v1462h664v-186h-439v-445h371v-186h-371
v-459h447v-186h-672z" />
    <glyph glyph-name="uni1EC5" unicode="&#x1ec5;" horiz-adv-x="845" 
d="M426 1255l-84 -112h-188l200 237h144l198 -237h-186zM339 1661q60 0 104 -51t61 -51q33 0 41 92h106q-12 -121 -45 -171t-96 -50q-64 0 -106 52t-57 52t-31 -28t-21 -66h-105q16 117 52 169t97 52zM305 637h254v49q0 119 -29 165q-28 46 -100 46t-98 -46t-27 -165v-49z
M305 475v-96q0 -123 28 -172t94 -49t96 40t30 128h199q-2 -154 -47 -226q-77 -120 -267 -120t-269 104t-79 342v197q0 238 79 343t259 105t258 -104t78 -344v-148h-459z" />
    <glyph glyph-name="uni1EC6" unicode="&#x1ec6;" horiz-adv-x="862" 
d="M346 -414v240h207v-240h-207zM449 1774l-82 -162h-199l203 291h155l203 -291h-199zM127 0v1462h664v-186h-439v-445h371v-186h-371v-459h447v-186h-672z" />
    <glyph glyph-name="uni1EC7" unicode="&#x1ec7;" horiz-adv-x="845" 
d="M319 -414v240h207v-240h-207zM436 1358l-82 -162h-198l202 291h156l203 -291h-201zM305 637h254v49q0 119 -29 165q-28 46 -100 46t-98 -46t-27 -165v-49zM305 475v-96q0 -123 28 -172t94 -49t96 40t30 128h199q-2 -154 -47 -226q-77 -120 -267 -120t-269 104t-79 342
v197q0 238 79 343t259 105t258 -104t78 -344v-148h-459z" />
    <glyph glyph-name="uni1EC8" unicode="&#x1ec8;" horiz-adv-x="477" 
d="M326 1581h-156q2 88 10 118t38 71t30 61q0 39 -43 39t-119 -35l-41 141q111 37 198 37t139 -45t52 -127q0 -41 -12 -65t-62 -76q-22 -30 -28 -50t-6 -69zM127 0v1462h225v-1462h-225z" />
    <glyph glyph-name="uni1EC9" unicode="&#x1ec9;" horiz-adv-x="428" 
d="M299 1178h-156q3 88 11 118t49 84q18 29 18 47q0 39 -44 39t-118 -32l-41 139q109 37 198 37t140 -45t52 -127q0 -39 -12 -63t-49 -65q-36 -41 -42 -62t-6 -70zM106 0v1051h216v-1051h-216z" />
    <glyph glyph-name="uni1ECA" unicode="&#x1eca;" horiz-adv-x="477" 
d="M137 -414v240h205v-240h-205zM127 0v1462h225v-1462h-225z" />
    <glyph glyph-name="uni1ECB" unicode="&#x1ecb;" horiz-adv-x="428" 
d="M111 -414v240h206v-240h-206zM106 0v1051h216v-1051h-216zM106 1225v245h216v-245h-216z" />
    <glyph glyph-name="uni1ECC" unicode="&#x1ecc;" horiz-adv-x="1003" 
d="M397 -414v240h205v-240h-205zM676 467v528q0 168 -39 236q-39 67 -135 67t-135 -68t-39 -235v-528q0 -168 39 -236q39 -67 135 -67t135 68t39 235zM102 446v570q0 250 94 358t306 109q213 0 306 -110t93 -357v-570q0 -250 -93 -358t-306 -108q-212 0 -306 108t-94 358z
" />
    <glyph glyph-name="uni1ECD" unicode="&#x1ecd;" horiz-adv-x="858" 
d="M326 -414v240h204v-240h-204zM553 381v289q0 125 -27 174q-26 49 -96 49t-98 -49t-27 -174v-289q0 -125 28 -174q27 -49 97 -49t96 49t27 174zM90 399v252q0 223 80 321t260 99q180 0 259 -98t79 -322v-252q0 -223 -79 -321t-260 -98t-260 98t-79 321z" />
    <glyph glyph-name="uni1ECE" unicode="&#x1ece;" horiz-adv-x="1003" 
d="M588 1581h-156q2 90 10 119t50 84q18 31 18 47q0 39 -45 39t-117 -35l-41 141q111 37 199 37t139 -45t51 -127q0 -41 -12 -65t-48 -63t-42 -61t-6 -71zM676 467v528q0 168 -39 236q-39 67 -135 67t-135 -68t-39 -235v-528q0 -168 39 -236q39 -67 135 -67t135 68t39 235z
M102 446v570q0 250 94 358t306 109q213 0 306 -110t93 -357v-570q0 -250 -93 -358t-306 -108q-212 0 -306 108t-94 358z" />
    <glyph glyph-name="uni1ECF" unicode="&#x1ecf;" horiz-adv-x="858" 
d="M514 1178h-154q0 90 8 118t52 84q18 31 18 47q0 39 -44 39t-118 -32l-43 139q109 37 199 37t141 -45t52 -127q-1 -41 -13 -65t-61 -77q-23 -29 -30 -49t-7 -69zM553 381v289q0 125 -27 174q-26 49 -96 49t-98 -49t-27 -174v-289q0 -125 28 -174q27 -49 97 -49t96 49
t27 174zM90 399v252q0 223 80 321t260 99q180 0 259 -98t79 -322v-252q0 -223 -79 -321t-260 -98t-260 98t-79 321z" />
    <glyph glyph-name="uni1ED0" unicode="&#x1ed0;" horiz-adv-x="1003" 
d="M502 1671l-84 -112h-189l201 237h143l201 -237h-188zM432 1849l92 238h166l-143 -238h-115zM676 467v528q0 168 -39 236q-39 67 -135 67t-135 -68t-39 -235v-528q0 -168 39 -236q39 -67 135 -67t135 68t39 235zM102 446v570q0 250 94 358t306 109q213 0 306 -110t93 -357
v-570q0 -250 -93 -358t-306 -108q-212 0 -306 108t-94 358z" />
    <glyph glyph-name="uni1ED1" unicode="&#x1ed1;" horiz-adv-x="858" 
d="M428 1255l-82 -112h-188l198 237h144l200 -237h-186zM358 1434l95 237h165l-145 -237h-115zM553 381v289q0 125 -27 174q-26 49 -96 49t-98 -49t-27 -174v-289q0 -125 28 -174q27 -49 97 -49t96 49t27 174zM90 399v252q0 223 80 321t260 99q180 0 259 -98t79 -322v-252
q0 -223 -79 -321t-260 -98t-260 98t-79 321z" />
    <glyph glyph-name="uni1ED2" unicode="&#x1ed2;" horiz-adv-x="1003" 
d="M502 1671l-84 -112h-189l201 237h143l201 -237h-188zM567 1849h-114l-146 238h168zM676 467v528q0 168 -39 236q-39 67 -135 67t-135 -68t-39 -235v-528q0 -168 39 -236q39 -67 135 -67t135 68t39 235zM102 446v570q0 250 94 358t306 109q213 0 306 -110t93 -357v-570
q0 -250 -93 -358t-306 -108q-212 0 -306 108t-94 358z" />
    <glyph glyph-name="uni1ED3" unicode="&#x1ed3;" horiz-adv-x="858" 
d="M428 1255l-84 -112h-186l200 237h144l198 -237h-188zM496 1434h-115l-145 237h165zM553 381v289q0 125 -27 174q-26 49 -96 49t-98 -49t-27 -174v-289q0 -125 28 -174q27 -49 97 -49t96 49t27 174zM90 399v252q0 223 80 321t260 99q180 0 259 -98t79 -322v-252
q0 -223 -79 -321t-260 -98t-260 98t-79 321z" />
    <glyph glyph-name="uni1ED4" unicode="&#x1ed4;" horiz-adv-x="1003" 
d="M500 1667l-84 -108h-189l201 221h143l201 -221h-188zM436 1812q0 76 25 113q23 37 22 55q0 23 -26 23q-20 0 -68 -23l-29 97q54 29 122 29t106 -33q37 -33 37 -74q-1 -41 -9 -57t-32 -48t-25 -82h-123zM676 467v528q0 168 -39 236q-39 67 -135 67t-135 -68t-39 -235v-528
q0 -168 39 -236q39 -67 135 -67t135 68t39 235zM102 446v570q0 250 94 358t306 109q213 0 306 -110t93 -357v-570q0 -250 -93 -358t-306 -108q-212 0 -306 108t-94 358z" />
    <glyph glyph-name="uni1ED5" unicode="&#x1ed5;" horiz-adv-x="858" 
d="M428 1251l-84 -108h-188l200 221h144l200 -221h-188zM410 1566q0 22 -25 22t-68 -25l-30 98q57 29 125 29t103 -33q36 -33 36 -74t-8 -57t-32 -48t-26 -81h-123q2 79 25 113t23 56zM553 381v289q0 125 -27 174q-26 49 -96 49t-98 -49t-27 -174v-289q0 -125 28 -174
q27 -49 97 -49t96 49t27 174zM90 399v252q0 223 80 321t260 99q180 0 259 -98t79 -322v-252q0 -223 -79 -321t-260 -98t-260 98t-79 321z" />
    <glyph glyph-name="uni1ED6" unicode="&#x1ed6;" horiz-adv-x="1003" 
d="M504 1671l-84 -112h-189l201 237h143l201 -237h-188zM582 1974q33 0 41 92h106q-8 -90 -27 -137q-31 -84 -116 -84q-64 -1 -104 51t-56 52t-32 -27t-19 -66h-107q18 119 54 170t96 51q61 0 104 -50q43 -52 60 -52zM676 467v528q0 168 -39 236q-39 67 -135 67t-135 -68
t-39 -235v-528q0 -168 39 -236q39 -67 135 -67t135 68t39 235zM102 446v570q0 250 94 358t306 109q213 0 306 -110t93 -357v-570q0 -250 -93 -358t-306 -108q-212 0 -306 108t-94 358z" />
    <glyph glyph-name="uni1ED7" unicode="&#x1ed7;" horiz-adv-x="858" 
d="M432 1255l-84 -112h-188l200 237h144l198 -237h-186zM346 1661q60 0 104 -51t60 -51q31 0 41 92h106q-14 -123 -46 -172t-95 -49t-105 52q-41 52 -57 52t-32 -28t-21 -66h-104q16 119 52 170t97 51zM553 381v289q0 125 -27 174q-26 49 -96 49t-98 -49t-27 -174v-289
q0 -125 28 -174q27 -49 97 -49t96 49t27 174zM90 399v252q0 223 80 321t260 99q180 0 259 -98t79 -322v-252q0 -223 -79 -321t-260 -98t-260 98t-79 321z" />
    <glyph glyph-name="uni1ED8" unicode="&#x1ed8;" horiz-adv-x="1003" 
d="M397 -414v240h205v-240h-205zM502 1774l-82 -162h-199l203 291h156l202 -291h-200zM676 467v528q0 168 -39 236q-39 67 -135 67t-135 -68t-39 -235v-528q0 -168 39 -236q39 -67 135 -67t135 68t39 235zM102 446v570q0 250 94 358t306 109q213 0 306 -110t93 -357v-570
q0 -250 -93 -358t-306 -108q-212 0 -306 108t-94 358z" />
    <glyph glyph-name="uni1ED9" unicode="&#x1ed9;" horiz-adv-x="858" 
d="M326 -414v240h204v-240h-204zM428 1358l-80 -162h-201l203 291h156l203 -291h-199zM553 381v289q0 125 -27 174q-26 49 -96 49t-98 -49t-27 -174v-289q0 -125 28 -174q27 -49 97 -49t96 49t27 174zM90 399v252q0 223 80 321t260 99q180 0 259 -98t79 -322v-252
q0 -223 -79 -321t-260 -98t-260 98t-79 321z" />
    <glyph glyph-name="uni1EDA" unicode="&#x1eda;" horiz-adv-x="1075" 
d="M428 1606l123 303h237l-202 -303h-158zM676 467v528q0 168 -39 236q-39 67 -135 67t-135 -68t-39 -235v-528q0 -168 39 -236q39 -67 135 -67t135 68t39 235zM1114 1386q0 -104 -44 -172t-169 -155v-613q0 -250 -93 -358t-306 -108t-306 108t-94 358v570q0 250 94 358
t306 109q170 0 261 -68t124 -217q63 68 63 144t-32 143h182q14 -49 14 -99z" />
    <glyph glyph-name="uni1EDB" unicode="&#x1edb;" horiz-adv-x="940" 
d="M352 1190l123 303h238l-201 -303h-160zM553 381v289q0 125 -27 174q-26 49 -96 49t-98 -49t-27 -174v-289q0 -125 28 -174q27 -49 97 -49t96 49t27 174zM977 961q0 -182 -211 -318l2 -16v-228q0 -223 -79 -321t-260 -98t-260 98t-79 321v252q0 223 80 323t245 99t243 -69
t102 -218l8 13l18 35q23 39 23 101t-29 130h181q16 -59 16 -104z" />
    <glyph glyph-name="uni1EDC" unicode="&#x1edc;" horiz-adv-x="1075" 
d="M631 1606h-158l-203 303h238zM676 467v528q0 168 -39 236q-39 67 -135 67t-135 -68t-39 -235v-528q0 -168 39 -236q39 -67 135 -67t135 68t39 235zM1114 1386q0 -104 -44 -172t-169 -155v-613q0 -250 -93 -358t-306 -108t-306 108t-94 358v570q0 250 94 358t306 109
q170 0 261 -68t124 -217q63 68 63 144t-32 143h182q14 -49 14 -99z" />
    <glyph glyph-name="uni1EDD" unicode="&#x1edd;" horiz-adv-x="940" 
d="M561 1190h-160l-202 303h237zM553 381v289q0 125 -27 174q-26 49 -96 49t-98 -49t-27 -174v-289q0 -125 28 -174q27 -49 97 -49t96 49t27 174zM977 961q0 -182 -211 -318l2 -16v-228q0 -223 -79 -321t-260 -98t-260 98t-79 321v252q0 223 80 323t245 99t243 -69t102 -218
l8 13l18 35q23 39 23 101t-29 130h181q16 -59 16 -104z" />
    <glyph glyph-name="uni1EDE" unicode="&#x1ede;" horiz-adv-x="1075" 
d="M598 1581h-156q2 90 11 119q7 29 37 70t30 61q0 39 -44 39t-116 -35l-43 141q111 37 199 37t139 -45t52 -127q-1 -41 -13 -65t-61 -76q-23 -30 -29 -50t-6 -69zM676 467v528q0 168 -39 236q-39 67 -135 67t-135 -68t-39 -235v-528q0 -168 39 -236q39 -67 135 -67t135 68
t39 235zM1114 1386q0 -104 -44 -172t-169 -155v-613q0 -250 -93 -358t-306 -108t-306 108t-94 358v570q0 250 94 358t306 109q170 0 261 -68t124 -217q63 68 63 144t-32 143h182q14 -49 14 -99z" />
    <glyph glyph-name="uni1EDF" unicode="&#x1edf;" horiz-adv-x="940" 
d="M516 1178h-154q0 88 10 118t38 70q30 41 30 61q0 39 -44 39t-117 -32l-43 139q108 37 198 37t141 -45t52 -127q-1 -39 -13 -63t-61 -79q-23 -29 -30 -49t-7 -69zM553 381v289q0 125 -27 174q-26 49 -96 49t-98 -49t-27 -174v-289q0 -125 28 -174q27 -49 97 -49t96 49
t27 174zM977 961q0 -182 -211 -318l2 -16v-228q0 -223 -79 -321t-260 -98t-260 98t-79 321v252q0 223 80 323t245 99t243 -69t102 -218l8 13l18 35q23 39 23 101t-29 130h181q16 -59 16 -104z" />
    <glyph glyph-name="uni1EE0" unicode="&#x1ee0;" horiz-adv-x="1075" 
d="M412 1890q68 0 120 -62t70 -63q41 0 49 111h129q-10 -140 -51 -202t-121 -62t-126 62t-66 63q-46 0 -56 -111h-129q31 264 181 264zM676 467v528q0 168 -39 236q-39 67 -135 67t-135 -68t-39 -235v-528q0 -168 39 -236q39 -67 135 -67t135 68t39 235zM1114 1386
q0 -104 -44 -172t-169 -155v-613q0 -250 -93 -358t-306 -108t-306 108t-94 358v570q0 250 94 358t306 109q170 0 261 -68t124 -217q63 68 63 144t-32 143h182q14 -49 14 -99z" />
    <glyph glyph-name="uni1EE1" unicode="&#x1ee1;" horiz-adv-x="940" 
d="M518 1350q37 0 49 112h127q-8 -142 -49 -204t-121 -62t-127 64t-65 63q-48 0 -58 -113h-127q29 266 181 267q70 0 118 -64q53 -63 72 -63zM553 381v289q0 125 -27 174q-26 49 -96 49t-98 -49t-27 -174v-289q0 -125 28 -174q27 -49 97 -49t96 49t27 174zM977 961
q0 -182 -211 -318l2 -16v-228q0 -223 -79 -321t-260 -98t-260 98t-79 321v252q0 223 80 323t245 99t243 -69t102 -218l8 13l18 35q23 39 23 101t-29 130h181q16 -59 16 -104z" />
    <glyph glyph-name="uni1EE2" unicode="&#x1ee2;" horiz-adv-x="1075" 
d="M395 -414v240h207v-240h-207zM676 467v528q0 168 -39 236q-39 67 -135 67t-135 -68t-39 -235v-528q0 -168 39 -236q39 -67 135 -67t135 68t39 235zM1114 1386q0 -104 -44 -172t-169 -155v-613q0 -250 -93 -358t-306 -108t-306 108t-94 358v570q0 250 94 358t306 109
q170 0 261 -68t124 -217q63 68 63 144t-32 143h182q14 -49 14 -99z" />
    <glyph glyph-name="uni1EE3" unicode="&#x1ee3;" horiz-adv-x="940" 
d="M338 -414v240h207v-240h-207zM553 381v289q0 125 -27 174q-26 49 -96 49t-98 -49t-27 -174v-289q0 -125 28 -174q27 -49 97 -49t96 49t27 174zM977 961q0 -182 -211 -318l2 -16v-228q0 -223 -79 -321t-260 -98t-260 98t-79 321v252q0 223 80 323t245 99t243 -69t102 -218
l8 13l18 35q23 39 23 101t-29 130h181q16 -59 16 -104z" />
    <glyph glyph-name="uni1EE4" unicode="&#x1ee4;" horiz-adv-x="1021" 
d="M410 -414v240h204v-240h-204zM123 1462h225v-1024q0 -137 23 -188q37 -86 135 -86q63 0 98 22t53 73q18 50 19 179v1024h225v-1024q0 -132 -13 -200t-52 -121q-98 -137 -333 -137t-329 159q-51 86 -51 299v1024z" />
    <glyph glyph-name="uni1EE5" unicode="&#x1ee5;" horiz-adv-x="845" 
d="M319 -414v240h205v-240h-205zM96 1051h215v-648q0 -133 23 -185t84 -52t86 57t24 203v625h215v-1051h-161l-15 86q-47 -61 -91 -84t-114 -22q-180 0 -237 153q-29 72 -29 242v676z" />
    <glyph glyph-name="uni1EE6" unicode="&#x1ee6;" horiz-adv-x="1021" 
d="M598 1581h-156q2 90 11 119q7 29 37 70t30 61q0 39 -43 39t-119 -35l-41 141q111 37 199 37t139 -45t52 -127q-1 -41 -13 -65t-48 -63t-42 -61t-6 -71zM123 1462h225v-1024q0 -137 23 -188q37 -86 135 -86q63 0 98 22t53 73q18 50 19 179v1024h225v-1024q0 -132 -13 -200
t-52 -121q-98 -137 -333 -137t-329 159q-51 86 -51 299v1024z" />
    <glyph glyph-name="uni1EE7" unicode="&#x1ee7;" horiz-adv-x="845" 
d="M508 1178h-154q0 90 8 118t52 84q18 31 18 47q0 39 -44 39t-118 -32l-43 139q109 37 199 37t141 -45t51 -127q0 -41 -12 -65t-61 -77q-23 -29 -30 -49t-7 -69zM96 1051h215v-648q0 -133 23 -185t84 -52t86 57t24 203v625h215v-1051h-161l-15 86q-47 -61 -91 -84t-114 -22
q-180 0 -237 153q-29 72 -29 242v676z" />
    <glyph glyph-name="uni1EE8" unicode="&#x1ee8;" horiz-adv-x="1140" 
d="M455 1606l123 303h237l-203 -303h-157zM123 1462h225v-1024q0 -137 23 -188q37 -86 135 -86q63 0 98 22t53 73q18 50 19 179v1024h225v-311q123 88 123 207q0 66 -31 127h181q14 -51 14 -99q0 -154 -137 -270q-33 -29 -150 -102v-576q0 -132 -13 -200t-52 -121
q-98 -137 -333 -137t-329 159q-51 86 -51 299v1024z" />
    <glyph glyph-name="uni1EE9" unicode="&#x1ee9;" horiz-adv-x="989" 
d="M369 1190l125 303h235l-201 -303h-159zM96 1051h215v-648q0 -133 24 -185t85 -52t86 57t24 201v627h215v-322q123 82 123 211q0 59 -30 125h180q14 -55 14 -100q0 -111 -61 -191t-226 -184v-590h-161l-15 86q-47 -61 -91 -84t-113 -22q-182 0 -240 153q-29 72 -29 242
v676z" />
    <glyph glyph-name="uni1EEA" unicode="&#x1eea;" horiz-adv-x="1140" 
d="M614 1606h-157l-203 303h238zM123 1462h225v-1024q0 -137 23 -188q37 -86 135 -86q63 0 98 22t53 73q18 50 19 179v1024h225v-311q123 88 123 207q0 66 -31 127h181q14 -51 14 -99q0 -154 -137 -270q-33 -29 -150 -102v-576q0 -132 -13 -200t-52 -121q-98 -137 -333 -137
t-329 159q-51 86 -51 299v1024z" />
    <glyph glyph-name="uni1EEB" unicode="&#x1eeb;" horiz-adv-x="989" 
d="M541 1190h-160l-203 303h238zM96 1051h215v-648q0 -133 24 -185t85 -52t86 57t24 201v627h215v-322q123 82 123 211q0 59 -30 125h180q14 -55 14 -100q0 -111 -61 -191t-226 -184v-590h-161l-15 86q-47 -61 -91 -84t-113 -22q-182 0 -240 153q-29 72 -29 242v676z" />
    <glyph glyph-name="uni1EEC" unicode="&#x1eec;" horiz-adv-x="1140" 
d="M594 1581h-154q0 88 10 118q8 30 38 71t30 61q0 39 -43 39t-119 -35l-43 141q111 37 199 37t140 -45t53 -127q-1 -41 -13 -65t-61 -76q-23 -30 -30 -50t-7 -69zM123 1462h225v-1024q0 -137 23 -188q37 -86 135 -86q63 0 98 22t53 73q18 50 19 179v1024h225v-311
q123 88 123 207q0 66 -31 127h181q14 -51 14 -99q0 -154 -137 -270q-33 -29 -150 -102v-576q0 -132 -13 -200t-52 -121q-98 -137 -333 -137t-329 159q-51 86 -51 299v1024z" />
    <glyph glyph-name="uni1EED" unicode="&#x1eed;" horiz-adv-x="989" 
d="M358 1178q0 88 10 118t38 70q30 41 30 61q0 39 -44 39t-118 -32l-43 139q111 37 200 37t140 -45t52 -127q-1 -39 -13 -63t-48 -65t-42 -62t-8 -70h-154zM96 1051h215v-648q0 -133 24 -185t85 -52t86 57t24 201v627h215v-322q123 82 123 211q0 59 -30 125h180
q14 -55 14 -100q0 -111 -61 -191t-226 -184v-590h-161l-15 86q-47 -61 -91 -84t-113 -22q-182 0 -240 153q-29 72 -29 242v676z" />
    <glyph glyph-name="uni1EEE" unicode="&#x1eee;" horiz-adv-x="1140" 
d="M418 1890q72 0 125 -61q51 -63 69 -64q37 0 50 111h126q-8 -140 -49 -202t-122 -62t-127 62t-64 63q-47 0 -57 -111h-127q31 264 176 264zM123 1462h225v-1024q0 -137 23 -188q37 -86 135 -86q63 0 98 22t53 73q18 50 19 179v1024h225v-311q123 88 123 207q0 66 -31 127
h181q14 -51 14 -99q0 -154 -137 -270q-33 -29 -150 -102v-576q0 -132 -13 -200t-52 -121q-98 -137 -333 -137t-329 159q-51 86 -51 299v1024z" />
    <glyph glyph-name="uni1EEF" unicode="&#x1eef;" horiz-adv-x="989" 
d="M520 1350q39 0 49 112h129q-8 -102 -28 -157q-39 -109 -146 -109q-76 0 -124 64t-66 63q-45 0 -55 -113h-129q31 264 176 266q72 0 124 -62q52 -64 70 -64zM96 1051h215v-648q0 -133 24 -185t85 -52t86 57t24 201v627h215v-322q123 82 123 211q0 59 -30 125h180
q14 -55 14 -100q0 -111 -61 -191t-226 -184v-590h-161l-15 86q-47 -61 -91 -84t-113 -22q-182 0 -240 153q-29 72 -29 242v676z" />
    <glyph glyph-name="uni1EF0" unicode="&#x1ef0;" horiz-adv-x="1140" 
d="M426 -414v240h207v-240h-207zM123 1462h225v-1024q0 -137 23 -188q37 -86 135 -86q63 0 98 22t53 73q18 50 19 179v1024h225v-311q123 88 123 207q0 66 -31 127h181q14 -51 14 -99q0 -154 -137 -270q-33 -29 -150 -102v-576q0 -132 -13 -200t-52 -121q-98 -137 -333 -137
t-329 159q-51 86 -51 299v1024z" />
    <glyph glyph-name="uni1EF1" unicode="&#x1ef1;" horiz-adv-x="989" 
d="M352 -414v240h207v-240h-207zM96 1051h215v-648q0 -133 24 -185t85 -52t86 57t24 201v627h215v-322q123 82 123 211q0 59 -30 125h180q14 -55 14 -100q0 -111 -61 -191t-226 -184v-590h-161l-15 86q-47 -61 -91 -84t-113 -22q-182 0 -240 153q-29 72 -29 242v676z" />
    <glyph glyph-name="Ygrave" unicode="&#x1ef2;" horiz-adv-x="827" 
d="M528 1606h-157l-203 303h238zM303 0v514l-338 948h238l213 -671l215 671h235l-338 -948v-514h-225z" />
    <glyph glyph-name="ygrave" unicode="&#x1ef3;" horiz-adv-x="774" 
d="M494 1190h-158l-203 303h238zM279 -4l-259 1055h216l151 -770l143 770h218l-269 -1176q-47 -213 -125 -279t-282 -67v180q96 -2 128 30t60 157z" />
    <glyph glyph-name="uni1EF4" unicode="&#x1ef4;" horiz-adv-x="827" 
d="M311 -414v240h205v-240h-205zM303 0v514l-338 948h238l213 -671l215 671h235l-338 -948v-514h-225z" />
    <glyph glyph-name="uni1EF5" unicode="&#x1ef5;" horiz-adv-x="774" 
d="M549 -414v240h205v-240h-205zM279 -4l-259 1055h216l151 -770l143 770h218l-269 -1176q-47 -213 -125 -279t-282 -67v180q96 -2 128 30t60 157z" />
    <glyph glyph-name="uni1EF6" unicode="&#x1ef6;" horiz-adv-x="827" 
d="M500 1581h-156q2 90 10 119t38 70t30 61q0 39 -45 39t-117 -35l-41 141q109 37 198 37t140 -45t51 -127q0 -41 -12 -65t-48 -63t-42 -61t-6 -71zM303 0v514l-338 948h238l213 -671l215 671h235l-338 -948v-514h-225z" />
    <glyph glyph-name="uni1EF7" unicode="&#x1ef7;" horiz-adv-x="774" 
d="M473 1178h-156q3 90 11 118t49 84q18 31 18 47q0 39 -44 39t-118 -32l-40 139q109 37 197 37t140 -45q51 -45 52 -127q0 -39 -12 -63t-49 -65q-36 -41 -42 -62t-6 -70zM279 -4l-259 1055h216l151 -770l143 770h218l-269 -1176q-47 -213 -125 -279t-282 -67v180
q96 -2 128 30t60 157z" />
    <glyph glyph-name="uni1EF8" unicode="&#x1ef8;" horiz-adv-x="827" 
d="M319 1890q68 0 121 -61q51 -63 70 -64q39 0 49 111h129q-10 -140 -51 -202t-121 -62t-126 62t-66 63q-46 0 -56 -111h-129q31 264 180 264zM303 0v514l-338 948h238l213 -671l215 671h235l-338 -948v-514h-225z" />
    <glyph glyph-name="uni1EF9" unicode="&#x1ef9;" horiz-adv-x="774" 
d="M487 1350q37 0 50 112h127q-10 -139 -50 -202q-40 -64 -120 -64t-128 64t-65 63q-47 0 -57 -113h-127q29 266 180 267q70 0 119 -64q53 -63 71 -63zM279 -4l-259 1055h216l151 -770l143 770h218l-269 -1176q-47 -213 -125 -279t-282 -67v180q96 -2 128 30t60 157z" />
    <glyph glyph-name="uni2002" unicode="&#x2002;" horiz-adv-x="1024" 
 />
    <glyph glyph-name="uni2003" unicode="&#x2003;" horiz-adv-x="2048" 
 />
    <glyph glyph-name="uni2004" unicode="&#x2004;" horiz-adv-x="681" 
 />
    <glyph glyph-name="uni2005" unicode="&#x2005;" horiz-adv-x="512" 
 />
    <glyph glyph-name="uni2006" unicode="&#x2006;" horiz-adv-x="342" 
 />
    <glyph glyph-name="uni2007" unicode="&#x2007;" 
 />
    <glyph glyph-name="uni2008" unicode="&#x2008;" horiz-adv-x="0" 
 />
    <glyph glyph-name="uni2009" unicode="&#x2009;" horiz-adv-x="409" 
 />
    <glyph glyph-name="uni200A" unicode="&#x200a;" horiz-adv-x="256" 
 />
    <glyph glyph-name="uni2011" unicode="&#x2011;" horiz-adv-x="669" 
d="M102 643v186h463v-186h-463z" />
    <glyph glyph-name="figuredash" unicode="&#x2012;" 
d="M104 643v186h650v-186h-650z" />
    <glyph glyph-name="endash" unicode="&#x2013;" 
d="M104 643v186h650v-186h-650z" />
    <glyph glyph-name="emdash" unicode="&#x2014;" 
d="M23 643v186h817v-186h-817z" />
    <glyph glyph-name="afii00208" unicode="&#x2015;" 
d="M23 643v186h817v-186h-817z" />
    <glyph glyph-name="underscoredbl" unicode="&#x2017;" horiz-adv-x="694" 
d="M-37 -264v121h768v-121h-768zM-37 -459v121h768v-121h-768z" />
    <glyph glyph-name="quoteleft" unicode="&#x2018;" horiz-adv-x="337" 
d="M305 1462l-47 -508h-223l88 508h182z" />
    <glyph glyph-name="quoteright" unicode="&#x2019;" horiz-adv-x="337" 
d="M35 954l47 508h223l-88 -508h-182z" />
    <glyph glyph-name="quotesinglbase" unicode="&#x201a;" horiz-adv-x="337" 
d="M35 -274l47 507h223l-88 -507h-182z" />
    <glyph glyph-name="quotedblleft" unicode="&#x201c;" horiz-adv-x="659" 
d="M305 1462l-47 -508h-223l88 508h182zM627 1462l-47 -508h-224l88 508h183z" />
    <glyph glyph-name="quotedblright" unicode="&#x201d;" horiz-adv-x="659" 
d="M356 954l47 508h224l-88 -508h-183zM35 954l47 508h223l-88 -508h-182z" />
    <glyph glyph-name="quotedblbase" unicode="&#x201e;" horiz-adv-x="659" 
d="M356 -274l47 507h224l-88 -507h-183zM35 -274l47 507h223l-88 -507h-182z" />
    <glyph glyph-name="dagger" unicode="&#x2020;" 
d="M319 836h-243v184h243v442h220v-442h245v-184h-245v-1151h-220v1151z" />
    <glyph glyph-name="daggerdbl" unicode="&#x2021;" 
d="M319 836h-243v184h243v442h220v-442h245v-184h-245v-281h225v-184h-225v-686h-220v686h-223v184h223v281z" />
    <glyph glyph-name="bullet" unicode="&#x2022;" 
d="M432 1069q150 0 251 -98q101 -97 101 -243t-101 -244t-252 -99q-151 0 -252 98q-101 97 -101 243t102 244t252 99z" />
    <glyph glyph-name="ellipsis" unicode="&#x2026;" horiz-adv-x="1308" 
d="M979 0v238h225v-238h-225zM543 0v238h225v-238h-225zM106 0v238h226v-238h-226z" />
    <glyph glyph-name="perthousand" unicode="&#x2030;" horiz-adv-x="2109" 
d="M469 0l336 1462h196l-333 -1462h-199zM1870 274v187q0 86 -18 121q-18 34 -65 34q-46 0 -65 -34q-18 -35 -18 -121v-187q0 -86 18 -120t64 -35q46 1 66 35q18 34 18 120zM1511 297v143q-1 170 63 241t214 71t212 -71t62 -241v-143q0 -170 -62 -242q-62 -71 -212 -71
t-214 72t-63 241zM1231 274v187q-1 86 -19 121q-18 34 -63 34t-64 -34q-18 -35 -18 -121v-187q0 -86 18 -120q17 -34 63 -35q46 1 64 35t19 120zM874 297v143q0 170 62 241t213 71q150 0 212 -71t62 -241v-143q0 -170 -62 -242q-62 -71 -212 -71q-151 0 -213 72t-62 241z
M406 1006v184q0 88 -18 123t-65 35t-65 -35t-18 -123v-184q0 -88 18 -123t64 -35t66 35q18 35 18 123zM47 1026v143q-1 170 63 242t214 72t212 -72t62 -242v-143q0 -170 -62 -242t-212 -72t-214 72t-63 242z" />
    <glyph glyph-name="guilsinglleft" unicode="&#x2039;" horiz-adv-x="413" 
d="M258 604l125 -258l-133 -90l-219 348l219 348l133 -90z" />
    <glyph glyph-name="guilsinglright" unicode="&#x203a;" horiz-adv-x="413" 
d="M156 604l-123 258l133 90l219 -348l-219 -348l-133 90z" />
    <glyph glyph-name="uni203E" unicode="&#x203e;" horiz-adv-x="694" 
d="M-37 1657v151h768v-151h-768z" />
    <glyph glyph-name="fraction" unicode="&#x2044;" horiz-adv-x="280" 
d="M-102 0l335 1462h197l-336 -1462h-196z" />
    <glyph glyph-name="zerosuperior" unicode="&#x2070;" horiz-adv-x="604" 
d="M379 1081v295q1 92 -17 129t-61 37t-60 -37t-18 -129v-295q-1 -92 17 -129t61 -37t61 37t17 129zM49 1083v291q0 164 57 235q56 71 194 71t196 -71q57 -71 57 -235v-291q0 -165 -57 -235q-56 -70 -194 -70t-196 70t-57 235z" />
    <glyph glyph-name="foursuperior" unicode="&#x2074;" horiz-adv-x="604" 
d="M350 791v153h-303v103l215 620h172l-203 -588h119v203h146v-203h61v-135h-61v-153h-146z" />
    <glyph glyph-name="fivesuperior" unicode="&#x2075;" horiz-adv-x="604" 
d="M518 1667v-139h-260l-10 -191q43 14 88 15q113 0 159 -64t46 -218q0 -155 -49 -216q-58 -76 -194 -76t-196 64t-57 205h156q2 -72 21 -102q20 -30 66 -30t65 32t19 117t-16 121t-62 36t-77 -54l-131 25l25 475h407z" />
    <glyph glyph-name="sixsuperior" unicode="&#x2076;" horiz-adv-x="604" 
d="M301 1221q-45 0 -61 -34t-16 -123t16 -121t61 -32t61 33t16 122t-16 122t-61 33zM362 1348q74 0 117 -39q68 -55 68 -225q1 -170 -57 -238t-189 -68t-188 64t-58 211q0 90 11 132q10 42 57 134l170 348h201l-168 -321q29 2 36 2z" />
    <glyph glyph-name="sevensuperior" unicode="&#x2077;" horiz-adv-x="604" 
d="M66 1528v139h446v-100l-217 -776h-191l234 737h-272z" />
    <glyph glyph-name="eightsuperior" unicode="&#x2078;" horiz-adv-x="604" 
d="M387 1046q-1 76 -19 106t-66 30t-66 -29t-18 -107t18 -106q18 -29 66 -29t67 29q18 29 18 106zM302 1554q-46 0 -62 -26t-16 -98t16 -98t62 -26t63 26q16 26 16 98t-16 98q-17 26 -63 26zM70 1436q0 129 54 186t178 57t178 -57t54 -191t-65 -174q47 -29 67 -79t19 -165
q0 -116 -59 -175q-60 -60 -194 -60t-193 60t-59 174q0 116 18 166q20 50 67 79q-37 21 -51 61t-14 118z" />
    <glyph glyph-name="ninesuperior" unicode="&#x2079;" horiz-adv-x="604" 
d="M303 1546q-45 0 -61 -28t-16 -113q0 -84 14 -113q16 -28 62 -28t63 30q16 31 16 113t-16 111q-17 28 -62 28zM252 1139q-74 0 -125 37q-70 54 -70 214q-1 160 57 225t189 65t189 -61q58 -60 57 -200q0 -88 -11 -133t-53 -131l-178 -364h-198l178 350q-16 -2 -35 -2z" />
    <glyph glyph-name="zeroinferior" unicode="&#x2080;" horiz-adv-x="604" 
d="M379 86v295q1 92 -17 129t-61 37t-60 -37t-18 -129v-295q-1 -92 17 -129t61 -37t61 37t17 129zM49 88v291q0 165 57 235q56 70 194 70t196 -71t57 -234v-291q0 -164 -57 -234q-56 -70 -194 -71q-138 1 -196 71t-57 234z" />
    <glyph glyph-name="oneinferior" unicode="&#x2081;" horiz-adv-x="604" 
d="M248 -205v703l-103 -52l-53 109l211 117h119v-877h-174z" />
    <glyph glyph-name="twoinferior" unicode="&#x2082;" horiz-adv-x="604" 
d="M45 -205v117l203 287q102 149 102 247t-63 99q-39 0 -55 -31t-19 -108h-158q3 150 59 212t183 64q233 0 233 -231q0 -95 -26 -153t-133 -210l-109 -154h264v-139h-481z" />
    <glyph glyph-name="threeinferior" unicode="&#x2083;" horiz-adv-x="604" 
d="M178 193v124h76q100 0 100 114t-75 114q-39 0 -55 -26t-19 -89h-156q2 109 31 158q59 94 207 94q236 0 235 -236q0 -131 -71 -188q88 -66 88 -207q-1 -141 -61 -205t-187 -63q-182 0 -230 127q-18 49 -18 141h158q0 -71 18 -101t66 -30q86 0 86 123q0 150 -107 150h-86z
" />
    <glyph glyph-name="fourinferior" unicode="&#x2084;" horiz-adv-x="604" 
d="M350 -205v154h-303v102l215 621h172l-203 -588h119v203h146v-203h61v-135h-61v-154h-146z" />
    <glyph glyph-name="fiveinferior" unicode="&#x2085;" horiz-adv-x="604" 
d="M518 672v-140h-260l-10 -190q43 14 88 14q113 0 159 -63t46 -218t-49 -216q-58 -76 -194 -76t-196 63q-59 63 -57 205h156q2 -71 21 -101q20 -30 66 -30t65 32t19 116t-16 121q-16 36 -62 36t-77 -53l-131 25l25 475h407z" />
    <glyph glyph-name="sixinferior" unicode="&#x2086;" horiz-adv-x="604" 
d="M301 225q-45 0 -61 -34t-16 -123q0 -88 16 -120t61 -32t61 33t16 122t-16 121t-61 33zM362 352q74 0 117 -39q68 -55 68 -225q1 -170 -57 -238t-189 -68t-188 64q-57 63 -58 211q0 90 11 132q10 42 57 135l170 348h201l-168 -322q29 2 36 2z" />
    <glyph glyph-name="seveninferior" unicode="&#x2087;" horiz-adv-x="604" 
d="M66 532v140h446v-101l-217 -776h-191l234 737h-272z" />
    <glyph glyph-name="eightinferior" unicode="&#x2088;" horiz-adv-x="604" 
d="M302 186q-48 0 -66 -28t-18 -107t18 -107t66 -28t67 29q18 29 18 105t-18 107q-19 29 -67 29zM381 434q-1 72 -17 98t-62 27t-62 -25t-16 -99t16 -99t62 -25q46 0 63 26q16 25 16 97zM70 440q0 128 54 186t178 58t178 -57t54 -191t-65 -174q47 -29 67 -79q20 -49 19 -165
q0 -116 -59 -176q-60 -60 -194 -59q-134 0 -193 59t-59 175t19 166t66 79q-37 20 -51 60t-14 118z" />
    <glyph glyph-name="nineinferior" unicode="&#x2089;" horiz-adv-x="604" 
d="M381 412q-1 82 -17 110t-61 29q-45 0 -61 -29q-16 -28 -16 -112t14 -113q16 -29 62 -29t63 31q16 31 16 113zM252 143q-74 0 -125 37q-70 53 -70 214q-1 161 57 226q58 64 189 64t189 -60t57 -200q0 -88 -11 -133t-53 -131l-178 -365h-198l178 350q-16 -2 -35 -2z" />
    <glyph glyph-name="franc" unicode="&#x20a3;" horiz-adv-x="1212" 
d="M1044 743q-116 0 -114 -381v-362h-205v897h156l24 -86q33 47 47 59q102 102 273 -6l-92 -172q-49 51 -89 51zM123 0v1462h590v-186h-371v-455h301v-186h-301v-635h-219z" />
    <glyph glyph-name="lira" unicode="&#x20a4;" 
d="M74 0v160q82 30 130 110t48 183q0 20 -2 39h-187v126h168q-10 55 -38 121h-130v127h82q-41 133 -41 238q0 377 349 377q219 0 303 -170q45 -88 47 -258h-207q-6 135 -36 189t-99 54q-131 0 -131 -209q0 -102 53 -221h291v-127h-244q20 -66 27 -121h217v-126h-213v-27
q0 -162 -88 -279h452v-186h-751z" />
    <glyph glyph-name="peseta" unicode="&#x20a7;" 
d="M354 1065h226q-10 123 -48 174t-120 47h-58v-221zM354 932v-232h56q80 -6 122 50t50 182h-228zM139 932h-127v133h127v397h262q189 6 285 -90t107 -307h110v-133h-108q-9 -220 -105 -318t-289 -92h-43v-522h-219v932z" />
    <glyph glyph-name="uni20AB" unicode="&#x20ab;" 
d="M276 686v-285q0 -125 27 -180t86 -55q127 0 127 264v193q0 262 -127 262q-113 0 -113 -199zM516 1169h-213v152h213v141h215v-141h107v-152h-107v-1169h-166l-12 72q-49 -52 -93 -72t-110 -20q-152 0 -220 104t-67 340v248q0 207 66 303t209 96q102 0 178 -70v168z
M78 -367v152h717v-152h-717z" />
    <glyph glyph-name="Euro" unicode="&#x20ac;" 
d="M119 629v112h-131l49 136h82v116q0 262 85 376t265 114q227 0 309 -187q39 -78 41 -239h-207q-4 133 -34 187q-31 54 -103 54q-71 0 -101 -70t-30 -249v-102h383l-49 -136h-334v-112h303l-49 -135h-254q2 -129 10 -195q23 -135 133 -135q72 0 105 48t33 155h206
q-2 -154 -51 -236q-90 -152 -303 -151q-123 0 -207 56t-116 156t-35 302h-131l49 135h82z" />
    <glyph glyph-name="uni20B4" unicode="&#x20b4;" 
d="M553 1112q0 184 -127 184q-59 0 -86 -34t-29 -113h-207q2 141 54 211q84 121 276 121q334 0 334 -377q0 -152 -61 -262l112 -41l-35 -119l-168 57q-36 -27 -86 -52t-64 -33t-26 -11l322 -111l-37 -120l-408 139q-39 -63 -39 -177t37 -163q37 -47 118 -47t116 39t35 125
h207q-2 -156 -58 -230q-90 -119 -305 -118q-365 0 -365 393q0 147 48 250l-95 30l35 121l144 -49q33 29 83 53t93 43l-297 103l37 120l383 -133q59 80 59 201z" />
    <glyph glyph-name="uni2101" unicode="&#x2101;" horiz-adv-x="1390" 
d="M868 642q0 110 65 178t181 67q164 0 223 -135l-131 -80q-37 80 -96 80q-72 0 -72 -101q0 -53 24 -83t104 -60t112 -59q70 -63 70 -205q0 -256 -246 -256q-205 -1 -271 153l138 80q23 -55 49 -77t65 -21q94 0 95 125q0 51 -24 76q-24 26 -112 58t-131 91t-43 169zM408 870
l-89 381l-90 -381h179zM621 702l174 760h172l-334 -1462h-174l135 586h-119l-39 164h-235l-39 -164h-180l266 876h143z" />
    <glyph glyph-name="afii61248" unicode="&#x2105;" horiz-adv-x="1392" 
d="M426 0l336 1462h172l-334 -1462h-174zM1174 311v187q0 184 -101 184q-55 0 -79 -43t-23 -141v-187q1 -98 25 -141t77 -43q101 0 101 184zM799 303v203q0 166 65 242q66 76 209 76t208 -76t65 -242v-203q0 -166 -65 -242q-65 -75 -208 -75t-209 75q-65 76 -65 242z
M307 637q-260 0 -260 362v107q0 371 256 371q162 0 244 -154l-127 -76q-45 88 -109 88q-94 0 -94 -233v-96q0 -227 100 -228q37 0 59 18t52 70l127 -75q-76 -154 -248 -154z" />
    <glyph glyph-name="afii61289" unicode="&#x2113;" horiz-adv-x="798" 
d="M606 1237q0 94 -53 94q-53 -1 -88 -131t-66 -452q207 272 207 489zM-2 364q0 32 54 90t112 142q33 354 100 588q90 309 273 309q90 0 146 -68t56 -176q0 -313 -352 -680q-25 -270 -25 -342q0 -109 46 -108q24 0 38 17q14 16 39 76t60 60q47 0 47 -61q0 -96 -73 -176
t-163 -80q-131 0 -174 149q-23 70 -22 265q0 14 2 24q-90 -115 -119 -114q-16 0 -31 26q-14 27 -14 59z" />
    <glyph glyph-name="afii61352" unicode="&#x2116;" horiz-adv-x="1746" 
d="M1059 0v170h608v-170h-608zM1458 713v139q0 106 -22 154q-23 47 -74 47t-74 -47t-22 -154v-139q0 -106 22 -154q23 -47 74 -47t74 47q22 48 22 154zM1059 700v162q0 190 73 278q74 88 232 87q158 0 230 -87t73 -278v-162q0 -188 -73 -275q-74 -87 -232 -87t-230 87
t-73 275zM119 0v1462h223l377 -999v999h211v-1462h-213l-387 1012v-1012h-211z" />
    <glyph glyph-name="trademark" unicode="&#x2122;" horiz-adv-x="1308" 
d="M588 586v876h166l159 -491l160 491h166v-876h-160v530l-102 -352h-127l-102 352v-530h-160zM178 586v739h-180v137h532v-137h-178v-739h-174z" />
    <glyph glyph-name="uni2126" unicode="&#x2126;" horiz-adv-x="987" 
d="M78 0v164h178v61q-86 49 -125 153t-37 281v357q0 250 93 358t305 109q212 0 306 -110q93 -110 93 -357v-357q0 -180 -38 -282t-124 -152v-61h178v-164h-350v346q61 28 85 98t24 220v331q0 170 -38 237q-38 66 -134 66t-136 -67q-39 -68 -39 -236v-331q0 -148 25 -220
t86 -98v-346h-352z" />
    <glyph glyph-name="estimated" unicode="&#x212e;" horiz-adv-x="886" 
d="M623 778v211q-41 244 -172 244q-70 0 -109 -54t-66 -190v-211h347zM823 637h-547v-246q27 -143 67 -201t114 -59q137 0 190 244h152q-29 -164 -78 -236q-100 -162 -277 -162q-176 -1 -278 181t-102 514t102 523q104 191 283 191q115 0 201 -82t129 -232q44 -150 44 -435z
" />
    <glyph glyph-name="onethird" unicode="&#x2153;" horiz-adv-x="1488" 
d="M395 0l334 1462h199l-336 -1462h-197zM995 397v125h76q100 0 100 114t-73 114q-40 0 -56 -25t-20 -90h-156q2 111 33 158q55 94 207 94q233 0 233 -236q0 -131 -71 -188q88 -66 88 -207q0 -140 -60 -204t-186 -64q-184 0 -231 127q-16 41 -19 141h158q0 -72 18 -102
t66 -29q86 0 86 123q0 150 -107 149h-86zM229 586v690l-110 -51l-62 133l228 104h118v-876h-174z" />
    <glyph glyph-name="twothirds" unicode="&#x2154;" horiz-adv-x="1488" 
d="M483 0l336 1462h197l-334 -1462h-199zM1047 397v125h75q100 0 100 114t-73 114q-39 0 -55 -25t-21 -90h-155q2 111 32 158q57 94 207 94q233 0 234 -236q0 -131 -72 -188q88 -66 88 -207q0 -140 -59 -204t-187 -64q-184 0 -231 127q-16 41 -19 141h158q3 -74 21 -102
t63 -29q86 0 86 123q0 150 -106 149h-86zM61 586v116l203 287q102 150 102 248t-63 98q-39 -1 -54 -31t-20 -108h-157q4 150 59 213t182 64q233 0 234 -232q0 -94 -26 -152t-134 -210l-108 -154h264v-139h-482z" />
    <glyph glyph-name="uni2155" unicode="&#x2155;" horiz-adv-x="1488" 
d="M410 0l335 1462h197l-334 -1462h-198zM1343 877v-140h-260l-10 -190q49 14 88 14q113 0 159 -63t46 -218t-49 -217q-57 -76 -199 -75q-182 0 -229 129q-18 53 -19 139h156q2 -72 22 -102t65 -29q46 0 66 32q19 33 19 117t-16 120t-60 36t-80 -53l-131 24l25 476h407z
M252 586v690l-111 -51l-61 133l227 104h119v-876h-174z" />
    <glyph glyph-name="uni2156" unicode="&#x2156;" horiz-adv-x="1488" 
d="M483 0l336 1462h197l-336 -1462h-197zM1382 877v-140h-260l-10 -190q49 14 88 14q113 0 159 -63t46 -218t-49 -217q-57 -76 -199 -75q-182 0 -229 129q-18 49 -19 139h156q2 -72 21 -102q20 -30 66 -29q46 0 66 32q19 33 19 117t-16 120q-17 36 -61 36t-79 -53l-131 24
l25 476h407zM57 586v116l203 287q102 150 102 248t-63 98q-39 -1 -54 -31t-20 -108h-157q4 150 59 213t182 64q233 0 234 -232q0 -94 -26 -152t-134 -210l-109 -154h265v-139h-482z" />
    <glyph glyph-name="uni2157" unicode="&#x2157;" horiz-adv-x="1488" 
d="M489 0l336 1462h197l-336 -1462h-197zM1391 877v-140h-261l-10 -190q49 14 88 14q113 0 159 -63t46 -218t-49 -217q-57 -76 -199 -75q-182 0 -229 129q-18 49 -18 139h155q1 -72 21 -102t66 -29q46 0 66 33q19 32 19 116t-16 120q-17 36 -61 36t-78 -53l-132 24l25 476
h408zM197 983v125h75q100 0 100 114t-75 113q-39 -1 -54 -25t-20 -89h-155q2 113 30 157q61 94 207 95q236 0 236 -236q0 -131 -72 -188q88 -66 88 -207q0 -140 -60 -204t-188 -65q-182 0 -229 127q-18 49 -19 142h158q1 -72 19 -102t65 -29q86 0 86 123q0 150 -106 149h-86
z" />
    <glyph glyph-name="uni2158" unicode="&#x2158;" horiz-adv-x="1488" 
d="M487 0l336 1462h197l-336 -1462h-197zM1386 877v-140h-260l-10 -190q49 14 88 14q113 0 159 -63t46 -218t-49 -217q-57 -76 -199 -75q-182 0 -229 129q-18 53 -19 139h156q1 -72 21 -102t66 -29q46 0 66 32q19 33 19 117t-16 120q-15 36 -61 36t-79 -53l-131 24l25 476
h407zM360 586v153h-303v103l215 620h172l-202 -588h118v203h146v-203h61v-135h-61v-153h-146z" />
    <glyph glyph-name="uni2159" unicode="&#x2159;" horiz-adv-x="1488" 
d="M412 0l333 1462h199l-336 -1462h-196zM1085 430q-45 0 -62 -34t-17 -123t16 -121t62 -31q46 0 62 32q15 33 15 123t-15 122q-16 32 -61 32zM1145 557q72 0 117 -39q68 -57 68 -226t-58 -237q-56 -67 -188 -67t-189 63t-57 211q0 90 11 132t56 134l170 349h199l-166 -320
h37zM242 586v690l-111 -51l-61 133l227 104h119v-876h-174z" />
    <glyph glyph-name="uni215A" unicode="&#x215a;" horiz-adv-x="1488" 
d="M487 0l336 1462h197l-336 -1462h-197zM1136 430q-46 0 -64 -34t-17 -123q0 -89 17 -121q16 -32 62 -31q46 0 62 32q16 33 16 123t-15 122t-61 32zM1196 557q104 0 152 -80q32 -57 32 -205t-57 -217q-57 -67 -189 -67t-190 63q-57 63 -57 211q0 90 10 132t57 134l172 349
h199l-166 -320h37zM526 1462v-139h-260l-10 -190q43 14 88 14q113 1 159 -63t46 -219t-49 -216q-58 -76 -194 -76q-136 -1 -195 63t-58 206h156q2 -72 21 -102q20 -30 66 -30t65 32t19 117t-15 121t-61 36t-79 -53l-131 24l25 475h407z" />
    <glyph glyph-name="oneeighth" unicode="&#x215b;" horiz-adv-x="1488" 
d="M408 0l333 1462h199l-336 -1462h-196zM1206 256q0 76 -18 106t-68 29q-49 0 -67 -29q-19 -28 -19 -106t18 -106t68 -29q49 0 68 29q18 30 18 106zM1198 640q0 72 -16 98t-62 26q-45 0 -61 -26q-17 -26 -17 -98t16 -98t61 -26q46 0 63 26q16 26 16 98zM889 645
q0 129 54 186t177 57t177 -56q55 -58 55 -192t-66 -173q48 -29 68 -79t20 -166t-59 -174q-59 -60 -195 -60t-194 59q-60 59 -60 175t20 165q19 49 68 80q-37 20 -51 60t-14 118zM242 586v690l-111 -51l-61 133l227 104h119v-876h-174z" />
    <glyph glyph-name="threeeighths" unicode="&#x215c;" horiz-adv-x="1488" 
d="M469 0l334 1462h198l-335 -1462h-197zM1251 256q-1 76 -19 106t-66 29q-48 0 -66 -29q-18 -30 -18 -106t18 -106t66 -29q48 0 67 29q18 30 18 106zM1245 640q-1 72 -17 98t-61 26t-61 -26t-16 -98t15 -98t61 -26t63 26q16 26 16 98zM936 640q0 134 54 191t177 57t177 -56
q54 -58 55 -187q-1 -78 -15 -118t-51 -60q47 -29 67 -79t19 -166q0 -116 -59 -174q-60 -60 -194 -60t-193 59t-59 175t19 166t66 79q-63 39 -63 173zM186 983v125h76q100 0 100 114t-75 113q-39 0 -55 -24q-15 -25 -19 -90h-156q2 113 31 157q61 94 207 95q236 0 235 -236
q0 -131 -71 -188q88 -66 88 -207q-1 -140 -61 -204t-187 -65q-182 0 -229 127q-18 49 -19 142h158q0 -72 18 -102t66 -29q86 0 86 123q0 150 -107 149h-86z" />
    <glyph glyph-name="fiveeighths" unicode="&#x215d;" horiz-adv-x="1488" 
d="M475 0l334 1462h199l-336 -1462h-197zM1178 391q-50 0 -68 -29q-18 -28 -18 -106t18 -106t68 -29q50 0 67 29q19 30 19 106t-18 106t-68 29zM1255 640q0 72 -16 98t-61 26q-46 0 -62 -26t-16 -98t16 -98t62 -26t62 26q15 26 15 98zM1409 642q0 -136 -66 -175
q49 -29 69 -79t20 -166t-60 -174q-60 -60 -194 -60q-135 0 -195 59q-59 59 -59 175t19 166q20 50 69 79q-37 20 -51 60q-15 39 -15 143q-1 217 232 219q125 0 178 -56q53 -55 53 -191zM524 1462v-139h-260l-10 -190q43 14 88 14q113 1 159 -63t46 -219t-49 -216
q-58 -76 -194 -76q-136 -1 -195 63t-58 206h156q2 -72 21 -102q20 -30 66 -30t65 32t19 117t-16 121t-61 36t-78 -53l-131 24l25 475h407z" />
    <glyph glyph-name="seveneighths" unicode="&#x215e;" horiz-adv-x="1488" 
d="M436 0l336 1462h197l-334 -1462h-199zM1140 391q-48 0 -66 -29q-18 -28 -19 -106q0 -78 18 -106q19 -28 67 -29q48 0 66 29q18 30 18 106t-18 106t-66 29zM1140 764q-46 0 -62 -26t-17 -98q0 -72 16 -98q15 -26 63 -26t63 26t15 98t-16 98t-62 26zM1372 642
q0 -136 -65 -175q47 -29 66 -79t19 -166t-58 -174q-60 -60 -194 -60t-194 59q-59 59 -59 175t19 165q20 49 67 80q-37 20 -51 60q-14 39 -14 143q-1 217 233 219q125 0 178 -56q53 -55 53 -191zM106 1323v139h447v-100l-217 -776h-191l234 737h-273z" />
    <glyph glyph-name="arrowleft" unicode="&#x2190;" horiz-adv-x="1638" 
d="M1501 643h-1100l361 -360l-131 -133l-529 546v80l529 547l131 -133l-361 -361h1100v-186z" />
    <glyph glyph-name="arrowup" unicode="&#x2191;" horiz-adv-x="1638" 
d="M707 0v1169l-361 -360l-131 133l545 526h82l544 -526l-131 -133l-360 360v-1169h-188z" />
    <glyph glyph-name="arrowright" unicode="&#x2192;" horiz-adv-x="1638" 
d="M139 643v186h1100l-360 361l131 133l528 -547v-80l-528 -546l-131 133l360 360h-1100z" />
    <glyph glyph-name="arrowdown" unicode="&#x2193;" horiz-adv-x="1638" 
d="M707 1462h188v-1169l360 360l134 -133l-547 -526h-82l-545 526l131 133l361 -360v1169z" />
    <glyph glyph-name="arrowboth" unicode="&#x2194;" horiz-adv-x="1638" 
d="M1290 643h-942l299 -299l-133 -131l-465 483v80l465 484l133 -132l-299 -299h942l-299 299l133 132l465 -484v-80l-465 -483l-133 131z" />
    <glyph glyph-name="arrowupdn" unicode="&#x2195;" horiz-adv-x="1638" 
d="M707 254v954l-299 -299l-132 133l484 465h80l483 -465l-131 -133l-299 299v-954l299 299l131 -133l-483 -465h-80l-484 465l132 133z" />
    <glyph glyph-name="uni2196" unicode="&#x2196;" horiz-adv-x="1638" 
d="M479 446h-186v756l74 74h755v-189h-512l785 -780l-133 -133l-783 782v-510z" />
    <glyph glyph-name="uni2197" unicode="&#x2197;" horiz-adv-x="1638" 
d="M516 1087v189h756l74 -74v-756h-187v508l-784 -780l-131 133l784 780h-512z" />
    <glyph glyph-name="uni2198" unicode="&#x2198;" horiz-adv-x="1638" 
d="M1159 1001h187v-755l-74 -74h-756v188h510l-782 781l131 133l784 -782v509z" />
    <glyph glyph-name="uni2199" unicode="&#x2199;" horiz-adv-x="1638" 
d="M1122 360v-188h-755l-74 74v755h186v-507l785 780l131 -133l-785 -781h512z" />
    <glyph glyph-name="partialdiff" unicode="&#x2202;" 
d="M551 383v252q0 127 -28 180q-27 53 -93 53t-94 -53t-27 -180v-252q0 -127 28 -181q27 -54 93 -54t94 54t27 181zM102 373v272q0 201 67 296t204 95q82 0 125 -41q-80 293 -297 342l26 142q518 -68 531 -846v-260q0 -211 -76 -302t-252 -91t-252 91t-76 302z" />
    <glyph glyph-name="emptyset" unicode="&#x2205;" 
d="M438 430q100 0 162 87t62 229t-74 239l-195 -551q20 -4 45 -4zM424 1063q-104 0 -166 -85t-61 -238q0 -153 86 -251l198 566q-27 8 -57 8zM819 748q1 -207 -107 -332t-286 -125q-41 0 -80 8l-135 -381l-115 45l133 379q-90 58 -140 164t-50 239q0 207 107 332
q108 125 286 125q53 0 98 -14l117 330l115 -43l-119 -336q176 -125 176 -391z" />
    <glyph glyph-name="Delta" unicode="&#x2206;" 
d="M627 180l-193 971l-194 -971h387zM924 0h-981l397 1462h188z" />
    <glyph glyph-name="product" unicode="&#x220f;" horiz-adv-x="1003" 
d="M131 -422v1884h741v-1884h-215v1692h-311v-1692h-215z" />
    <glyph glyph-name="summation" unicode="&#x2211;" horiz-adv-x="931" 
d="M111 -422v146l290 845l-272 738v155h692v-186h-463l263 -705l-263 -807h486v-186h-733z" />
    <glyph glyph-name="minus" unicode="&#x2212;" 
d="M74 651v170h712v-170h-712z" />
    <glyph glyph-name="uni2215" unicode="&#x2215;" horiz-adv-x="280" 
d="M-102 0l335 1462h197l-336 -1462h-196z" />
    <glyph glyph-name="uni2218" unicode="&#x2218;" 
d="M430 965q-102 0 -170 -68t-68 -170t68 -170t170 -68t170 68t68 170t-68 170t-170 68zM431 1083q155 0 260 -102t105 -253t-104 -254q-106 -103 -262 -103t-261 102q-105 101 -105 253t106 254t261 103z" />
    <glyph glyph-name="uni2219" unicode="&#x2219;" horiz-adv-x="436" 
d="M106 616v238h226v-238h-226z" />
    <glyph glyph-name="radical" unicode="&#x221a;" 
d="M33 590v182h254l98 -481l262 1517h451v-151h-273l-319 -1657h-219l-156 590h-98z" />
    <glyph glyph-name="infinity" unicode="&#x221e;" horiz-adv-x="1280" 
d="M920 559q50 0 86 49q35 49 34 127q0 78 -34 126q-36 48 -90 48t-109 -57q-20 -20 -74 -98l-14 -21l16 -20q68 -96 102 -125q33 -29 83 -29zM364 909q-52 0 -88 -48t-34 -126q0 -78 34 -127t94 -49q70 0 134 96q16 23 28 39t13 19l16 20l-14 21q-55 78 -76 100
q-55 55 -107 55zM944 1065q116 0 189 -88t73 -243q0 -154 -74 -242t-203 -88q-130 0 -218 92q-20 27 -70 104q-16 -25 -39 -64t-72 -75q-78 -57 -194 -57t-189 88t-73 242t73 243q74 88 203 88t219 -92q13 -13 72 -107l14 27q33 53 48 73t47 40q78 59 194 59z" />
    <glyph glyph-name="integral" unicode="&#x222b;" horiz-adv-x="843" 
d="M330 1137q0 248 20 331q41 154 197 154q80 0 162 -25l-39 -167q-41 18 -64 18q-45 0 -57 -46t-12 -206v-924q0 -252 -23 -333q-41 -152 -199 -152q-71 0 -157 25l39 168q31 -18 69 -18t51 45q12 46 13 210v920z" />
    <glyph glyph-name="similar" unicode="&#x223c;" 
d="M549 586q-37 0 -62 14t-90 70t-98 55q-55 0 -86 -137l-125 28q51 272 215 273q43 0 67 -11t92 -70t101 -58q55 0 88 129l121 -37q-66 -256 -223 -256z" />
    <glyph glyph-name="uni2243" unicode="&#x2243;" 
d="M561 913q55 0 88 131l121 -38q-66 -256 -223 -256q-37 0 -62 14t-91 70t-97 57q-53 0 -86 -139l-125 30q55 272 215 273q41 -1 66 -13t92 -70t102 -59zM98 492v165h660v-165h-660z" />
    <glyph glyph-name="approxequal" unicode="&#x2248;" 
d="M563 913q55 0 88 131l121 -38q-66 -256 -223 -256q-37 0 -62 14t-91 70t-97 57q-53 0 -86 -139l-125 30q55 272 215 273q41 -1 66 -13t93 -70t101 -59zM303 725q43 0 67 -11t92 -70t101 -58q55 0 88 129l121 -39q-66 -254 -223 -254q-37 0 -61 13t-90 69t-99 57
q-53 0 -86 -139l-125 31q55 272 215 272z" />
    <glyph glyph-name="notequal" unicode="&#x2260;" 
d="M100 492v165h211l56 158h-267v164h328l82 242l162 -60l-62 -182h150v-164h-211l-55 -158h266v-165h-328l-82 -242l-162 59l62 183h-150z" />
    <glyph glyph-name="lessequal" unicode="&#x2264;" 
d="M104 53v170h609v-170h-609zM303 743l410 -237v-199l-621 379v115l621 379v-199z" />
    <glyph glyph-name="greaterequal" unicode="&#x2265;" 
d="M147 53v170h607v-170h-607zM557 743l-410 238v199l621 -379v-115l-621 -379v199z" />
    <glyph glyph-name="dotmath" unicode="&#x22c5;" horiz-adv-x="436" 
d="M106 616v238h226v-238h-226z" />
    <glyph glyph-name="filledrect" unicode="&#x25ac;" 
d="M113 408v636h637v-636h-637z" />
    <glyph glyph-name="uni25B4" unicode="&#x25b4;" 
d="M55 397l375 750l375 -750h-750z" />
    <glyph glyph-name="uni25B8" unicode="&#x25b8;" 
d="M139 352v750l748 -375z" />
    <glyph glyph-name="uni25BE" unicode="&#x25be;" 
d="M55 1057h750l-375 -748z" />
    <glyph glyph-name="uni25C2" unicode="&#x25c2;" 
d="M721 352l-748 375l748 375v-750z" />
    <glyph glyph-name="lozenge" unicode="&#x25ca;" 
d="M213 719l217 -418l217 418l-217 416zM-6 719l436 778l436 -778l-436 -778z" />
    <glyph glyph-name="openbullet" unicode="&#x25e6;" 
d="M430 965q-102 0 -170 -68t-68 -170t68 -170t170 -68t170 68t68 170t-68 170t-170 68zM431 1083q155 0 260 -102t105 -253t-104 -254q-106 -103 -262 -103t-261 102q-105 101 -105 253t106 254t261 103z" />
    <glyph glyph-name="commaaccent" unicode="&#xf6c3;" horiz-adv-x="1024" 
d="M381 -471l72 334h204l-133 -334h-143z" />
    <glyph glyph-name="Acute" unicode="&#xf6c9;" horiz-adv-x="1024" 
d="M399 1606l123 303h238l-201 -303h-160z" />
    <glyph glyph-name="Caron" unicode="&#xf6ca;" horiz-adv-x="1024" 
d="M512 1737l82 161h199l-203 -290h-156l-203 290h199z" />
    <glyph glyph-name="Dieresis" unicode="&#xf6cb;" horiz-adv-x="1024" 
d="M575 1618v235h191v-235h-191zM256 1618v235h190v-235h-190z" />
    <glyph glyph-name="Grave" unicode="&#xf6ce;" horiz-adv-x="1024" 
d="M627 1606h-158l-203 303h238z" />
    <glyph glyph-name="Hungarumlaut" unicode="&#xf6cf;" horiz-adv-x="1024" 
d="M549 1606l98 303h215l-166 -303h-147zM289 1606l98 303h215l-166 -303h-147z" />
    <glyph glyph-name="Macron" unicode="&#xf6d0;" horiz-adv-x="1024" 
d="M274 1665v156h476v-156h-476z" />
    <glyph glyph-name="zerooldstyle" unicode="&#xf730;" horiz-adv-x="886" 
d="M575 457v207q0 166 -28 229q-29 63 -104 63t-103 -63t-29 -227v-209q0 -165 29 -229q30 -64 104 -64t103 63q28 64 28 230zM92 434v254q0 240 83 346t268 106t269 -107q84 -108 83 -345v-256q0 -238 -83 -346q-82 -108 -268 -106q-186 0 -269 106t-83 348z" />
    <glyph glyph-name="oneoldstyle" unicode="&#xf731;" horiz-adv-x="577" 
d="M207 0v872l-156 -84l-82 173l314 159h149v-1120h-225z" />
    <glyph glyph-name="twooldstyle" unicode="&#xf732;" horiz-adv-x="755" 
d="M23 0v154l303 360q160 190 159 307q0 135 -114 135q-68 0 -99 -41t-32 -135h-205q2 186 85 274t253 87q328 0 327 -310q0 -121 -42 -201t-199 -259l-166 -191h403v-180h-673z" />
    <glyph glyph-name="threeoldstyle" unicode="&#xf733;" horiz-adv-x="802" 
d="M213 356v179h92q104 0 150 50q45 50 45 167q0 205 -113 204q-100 0 -113 -161h-204q6 346 325 346q162 0 246 -95t84 -278q0 -225 -139 -319q90 -49 130 -135t40 -228q0 -406 -367 -405q-225 0 -305 155q-37 68 -39 199h207q0 -170 127 -170q71 0 111 60t40 178t-54 186
t-157 67h-106z" />
    <glyph glyph-name="fouroldstyle" unicode="&#xf734;" horiz-adv-x="765" 
d="M461 -299v299h-461v137l344 983h229l-325 -938h213v350h203v-350h112v-182h-112v-299h-203z" />
    <glyph glyph-name="fiveoldstyle" unicode="&#xf735;" horiz-adv-x="839" 
d="M717 1120v-186h-387l-21 -377q66 33 144 33q159 0 229 -100t70 -340q0 -238 -74 -343q-88 -127 -303 -127t-295 156q-37 68 -39 199h207q0 -170 127 -170q152 0 151 282q0 145 -29 207q-30 62 -107 62t-130 -90l-162 34l37 760h582z" />
    <glyph glyph-name="sixoldstyle" unicode="&#xf736;" horiz-adv-x="849" 
d="M433 752q-75 0 -103 -68t-29 -236q0 -168 29 -230q28 -62 102 -62t102 63t28 231t-23 224q-31 78 -106 78zM778 496q0 -196 -18 -277q-18 -82 -66 -135q-92 -104 -272 -104t-270 124q-68 88 -68 334q0 132 19 224t75 215l244 553h246l-238 -525q41 12 78 13
q156 0 223 -132q47 -94 47 -290z" />
    <glyph glyph-name="sevenoldstyle" unicode="&#xf737;" horiz-adv-x="616" 
d="M-27 934v186h613v-135l-303 -1284h-240l319 1233h-389z" />
    <glyph glyph-name="eightoldstyle" unicode="&#xf738;" horiz-adv-x="870" 
d="M436 670q-80 0 -110 -56t-31 -201q0 -145 31 -201q32 -56 110 -56t109 55t31 201t-30 202t-110 56zM555 1061q1 125 -25 175t-96 50t-96 -48t-25 -180q0 -132 19 -171q32 -61 106 -61t103 73q14 37 14 162zM435 1450q169 0 247 -92t78 -291q0 -135 -23 -199t-88 -108
q78 -41 111 -122t33 -237q0 -223 -84 -322q-83 -99 -273 -99t-274 99t-84 322q0 156 32 236q31 80 111 123q-61 42 -86 108t-24 195q0 201 77 294q78 93 247 93z" />
    <glyph glyph-name="nineoldstyle" unicode="&#xf739;" horiz-adv-x="849" 
d="M549 672q-1 168 -29 230t-106 63q-78 0 -109 -93q-16 -52 -16 -210t22 -216q31 -78 106 -78t103 68t29 236zM342 203q-156 0 -223 131q-47 94 -47 290t18 278t66 134q92 104 272 104t270 -124q68 -88 68 -334q0 -135 -18 -222t-76 -216l-244 -559h-246l238 532
q-35 -14 -78 -14z" />
    <glyph glyph-name="Dbreve" horiz-adv-x="1001" 
d="M477 1749q63 0 89 32t36 115h135q-4 -131 -30 -186q-59 -117 -237 -117t-232 136q-19 54 -21 167h133q8 -84 36 -116t91 -31zM352 182h125q117 0 157 60t42 231v516q-2 171 -42 231t-157 60h-125v-1098zM127 0v1462h344q231 4 333 -97t97 -337v-594q4 -236 -97 -337
t-333 -97h-344z" />
    <glyph glyph-name="ahungarumlaut" horiz-adv-x="823" 
d="M449 1190l98 303h215l-166 -303h-147zM188 1190l99 303h215l-166 -303h-148zM512 473h-82q-88 0 -125 -39t-37 -128t28 -121q28 -31 96 -31t94 36t26 132v151zM512 627v47q0 125 -26 172t-88 47t-88 -37t-25 -121h-201q2 154 49 221q80 115 260 115t257 -97t77 -317v-657
h-168l-12 57q-67 -77 -213 -77t-214 74t-67 250q0 175 71 249t245 74h143z" />
    <glyph glyph-name="uni0204.sc" horiz-adv-x="743" 
d="M356 1257h-147l-166 304h215zM616 1257h-145l-168 304h217zM111 0v1122h573v-180h-354v-287h301v-180h-301v-295h362v-180h-581z" />
    <glyph glyph-name="uni0206.sc" horiz-adv-x="743" 
d="M393 1411q-63 0 -90 -32t-37 -115h-133q4 137 29 186q61 117 238 117t231 -135q18 -45 22 -168h-135q-8 84 -35 116t-90 31zM115 0v1122h575v-180h-356v-287h301v-180h-301v-295h362v-180h-581z" />
    <glyph glyph-name="uni0208.sc" horiz-adv-x="444" 
d="M184 1257h-147l-166 304h215zM444 1257h-145l-168 304h217zM113 0v1120h219v-1120h-219z" />
    <glyph glyph-name="uni020A.sc" horiz-adv-x="444" 
d="M223 1411q-63 0 -90 -32t-37 -115h-133q4 137 29 186q61 117 238 117t231 -135q18 -45 22 -168h-135q-8 84 -35 116t-90 31zM113 0v1120h219v-1120h-219z" />
    <glyph glyph-name="uni020C.sc" horiz-adv-x="864" 
d="M377 1257h-148l-166 304h216zM637 1257h-145l-168 304h217zM539 385v350q0 123 -28 172q-27 49 -97 49t-97 -49t-26 -172v-350q1 -123 27 -172t96 -49t98 49t27 172zM72 371v381q0 207 79 296t264 89t264 -89t79 -296v-381q0 -209 -79 -298t-264 -89t-264 89t-79 298z
" />
    <glyph glyph-name="uni020E.sc" horiz-adv-x="864" 
d="M428 1411q-63 0 -90 -32t-37 -115h-133q4 137 29 186q61 117 238 117t231 -135q18 -45 22 -168h-135q-8 84 -35 116t-90 31zM555 385v350q0 123 -27 172q-26 49 -96 49t-98 -49t-27 -172v-350q0 -123 28 -172q29 -49 97 -49t96 49t27 172zM88 371v381q0 207 79 296
t264 89t264 -89t79 -296v-381q0 -209 -79 -298t-264 -89t-264 89t-79 298z" />
    <glyph glyph-name="uni0210.sc" horiz-adv-x="841" 
d="M336 1257h-148l-165 304h215zM596 1257h-145l-168 304h217zM330 625h69q76 0 109 37q33 36 33 122t-31 123t-107 37h-73v-319zM334 453v-453h-219v1122h270q205 0 291 -76t86 -255q0 -119 -39 -190t-125 -112l209 -489h-248l-160 453h-65z" />
    <glyph glyph-name="uni0212.sc" horiz-adv-x="841" 
d="M404 1411q-64 0 -91 -32t-37 -115h-133q4 137 29 186q61 117 238 117t231 -135q19 -45 23 -168h-136q-8 84 -34 116t-90 31zM330 625h69q76 0 109 37q33 36 33 122t-31 123t-107 37h-73v-319zM334 453v-453h-219v1122h270q205 0 291 -76t86 -255q0 -225 -162 -302
l207 -489h-244l-164 453h-65z" />
    <glyph glyph-name="uni0214.sc" horiz-adv-x="886" 
d="M391 1257h-147l-166 304h215zM651 1257h-145l-168 304h217zM94 1120h219v-776q0 -102 25 -141q26 -39 92 -39t90 38t25 142v776h219v-776q0 -104 -12 -158t-45 -96q-84 -106 -286 -106t-282 122q-45 70 -45 238v776z" />
    <glyph glyph-name="uni0216.sc" horiz-adv-x="886" 
d="M444 1411q-64 0 -90 -32q-27 -32 -37 -115h-133q4 137 29 186q61 117 238 117t231 -135q19 -45 23 -168h-136q-9 84 -35 116t-90 31zM109 1120h219v-776q0 -102 24 -141t92 -39q66 0 91 38t24 142v776h219v-776q0 -106 -12 -160t-45 -94q-84 -106 -286 -106t-281 122
q-45 70 -45 238v776z" />
    <glyph glyph-name="uni1E24.sc" horiz-adv-x="894" 
d="M344 -414v240h207v-240h-207zM113 0v1120h219v-465h231v465h219v-1120h-219v475h-231v-475h-219z" />
    <glyph glyph-name="uni1E5A.sc" horiz-adv-x="841" 
d="M317 -414v240h207v-240h-207zM330 625h69q76 0 109 37q33 36 33 122t-31 123t-107 37h-73v-319zM334 453v-453h-219v1122h270q205 0 291 -76t86 -255q0 -225 -162 -302l207 -489h-244l-164 453h-65z" />
    <glyph glyph-name="uni1E62.sc" horiz-adv-x="743" 
d="M268 -414v240h207v-240h-207zM358 164q121 0 121 158q0 70 -30 100q-29 30 -153 66q-124 38 -181 113t-58 208q0 326 301 326q203 0 277 -152q31 -66 33 -203h-203q-4 96 -26 135t-72 39q-96 0 -97 -139q0 -63 34 -98t140 -70t160 -76q88 -70 88 -247q0 -340 -330 -340
q-229 0 -296 168q-27 59 -29 204h203q2 -104 28 -148t90 -44z" />
    <glyph glyph-name="uni1E6C.sc" horiz-adv-x="638" 
d="M217 -414v240h207v-240h-207zM211 0v942h-209v180h637v-180h-209v-942h-219z" />
    <glyph glyph-name="uni1E92.sc" horiz-adv-x="669" 
d="M231 -414v240h207v-240h-207zM20 0v121l355 821h-320v180h568v-121l-355 -821h373v-180h-621z" />
    <glyph glyph-name="uni1E44.sc" horiz-adv-x="923" 
d="M362 1266v239h207v-239h-207zM113 0v1120h215l278 -671v671h205v-1120h-186l-308 709v-709h-204z" />
    <glyph glyph-name="uni1E0C.sc" horiz-adv-x="864" 
d="M291 -414v240h207v-240h-207zM332 178h80q90 2 118 40t27 161v364q0 123 -28 161t-117 40h-80v-766zM113 0v1122h288q207 4 293 -76t82 -274v-422q4 -194 -82 -274t-293 -76h-288z" />
    <glyph glyph-name="uni1E02.sc" horiz-adv-x="849" 
d="M289 1266v239h207v-239h-207zM332 178h92q72 0 102 34t29 116q0 82 -28 118t-89 37h-106v-305zM332 659h94q115 0 115 142q0 75 -30 109t-93 34h-86v-285zM428 1122q184 0 259 -74t75 -238q0 -163 -84 -226q55 -56 77 -114t21 -157q0 -172 -86 -252q-63 -61 -217 -61
h-360v1122h315z" />
    <glyph glyph-name="idotaccent" horiz-adv-x="428" 
d="M106 0v1051h216v-1051h-216zM106 1225v245h216v-245h-216z" />
    <glyph glyph-name="one.fitted" horiz-adv-x="577" 
d="M207 0v1210l-158 -80l-86 168l320 164h149v-1462h-225z" />
    <glyph glyph-name="two.fitted" horiz-adv-x="778" 
d="M-4 0v158l311 493q162 254 162 445q0 106 -28 154q-29 48 -93 48t-94 -56t-33 -189h-207q4 221 87 325t253 104q342 1 342 -376q0 -174 -73 -324q-39 -82 -170 -284l-197 -312h436v-186h-696z" />
    <glyph glyph-name="three.fitted" horiz-adv-x="782" 
d="M219 680v178h100q158 0 158 220t-119 220q-63 0 -91 -51t-34 -174h-204q2 172 53 258q88 152 285 152q163 -1 249 -99t86 -288q0 -240 -122 -324q82 -53 116 -139t35 -230q0 -424 -352 -423q-240 0 -324 194q-35 82 -37 238h207q2 -132 35 -190t107 -58q139 0 139 242
q0 134 -44 204t-128 70h-115z" />
    <glyph glyph-name="four.fitted" horiz-adv-x="821" 
d="M469 0v262h-438v137l344 1063h225l-326 -1018h195v351h207v-351h98v-182h-98v-262h-207z" />
    <glyph glyph-name="five.fitted" horiz-adv-x="839" 
d="M719 1462v-186h-389l-19 -391q66 35 144 35q163 0 231 -100t68 -355q0 -254 -79 -370t-278 -115q-242 0 -327 194q-37 92 -37 238h207q2 -131 34 -190q33 -58 110 -58t111 70t33 231q0 162 -27 221q-28 59 -106 59t-135 -90l-162 33l37 774h584z" />
    <glyph glyph-name="six.fitted" horiz-adv-x="849" 
d="M433 752q-75 0 -103 -68t-29 -236q0 -168 29 -230q28 -62 102 -62t102 63t28 231t-23 224q-31 78 -106 78zM778 496q0 -196 -18 -277q-18 -82 -66 -135q-92 -104 -272 -104t-270 124q-68 88 -68 334q0 137 17 216t77 223l244 585h246l-238 -557q43 12 80 13
q154 0 221 -132q47 -94 47 -290z" />
    <glyph glyph-name="seven.fitted" horiz-adv-x="616" 
d="M-27 1276v186h613v-135l-303 -1327h-240l319 1276h-389z" />
    <glyph glyph-name="eight.fitted" horiz-adv-x="870" 
d="M436 684q-80 0 -110 -57t-31 -207q0 -150 31 -207q32 -57 110 -57t109 56t30 206q0 150 -29 208q-30 58 -110 58zM432 1319q-76 0 -102 -74q-16 -39 -16 -170t20 -172q30 -63 106 -63t105 78q14 36 14 166t-20 173q-31 62 -107 62zM440 1483q166 0 244 -94t78 -299
q0 -141 -22 -206t-83 -110q76 -41 106 -123t30 -241q0 -230 -85 -330t-280 -100t-285 124q-65 90 -65 278t30 268t105 124q-59 41 -82 109t-22 202q1 219 83 309t248 89z" />
    <glyph glyph-name="nine.fitted" horiz-adv-x="849" 
d="M418 1307q-74 -1 -102 -57t-28 -209t28 -214q26 -61 101 -61t103 61t29 213q-1 152 -29 210t-102 57zM342 600q-158 0 -223 123q-47 88 -47 272t18 262t66 127q92 98 272 98t270 -116q68 -82 68 -313q0 -131 -16 -208t-76 -214l-271 -631h-245l266 614q-41 -14 -82 -14z
" />
    <glyph glyph-name="zero.fitted" horiz-adv-x="892" 
d="M582 479v506q0 174 -30 244q-30 69 -106 69t-106 -70t-29 -243v-506q0 -176 30 -246q29 -69 105 -69t106 70t30 245zM92 459v547q0 254 83 366t271 111q188 0 272 -112t83 -365v-547q0 -254 -83 -367q-84 -112 -272 -112t-271 112t-83 367z" />
    <glyph glyph-name="sterling.fitted" horiz-adv-x="845" 
d="M76 0v160q178 68 178 311q0 70 -16 133h-164v187h100q-68 182 -68 313q0 377 349 377q217 0 303 -170q45 -92 47 -258h-209q-4 137 -34 190t-99 53q-131 0 -131 -211q0 -63 13 -115t65 -179h256v-187h-211q10 -78 10 -115q0 -195 -90 -303h452v-186h-751z" />
    <glyph glyph-name="dollar.fitted" horiz-adv-x="821" 
d="M309 1665h219v-233q211 -66 211 -361h-207q-4 111 -32 156q-29 45 -94 45q-127 0 -127 -182q0 -90 42 -142t144 -94q156 -59 209 -111q98 -94 98 -307q0 -354 -244 -409v-301h-219v294q-139 33 -204 138q-64 105 -60 293h205q2 -139 38 -201t118 -62q156 0 155 234
q0 111 -43 164q-20 27 -46 39t-120 47q-152 55 -218 150t-66 257q0 315 241 363v223z" />
    <glyph glyph-name="cent.fitted" horiz-adv-x="845" 
d="M342 74v225q-121 29 -175 126t-52 277v250q0 186 53 280t174 124v221h219v-225q109 -27 159 -107t50 -227h-199q0 180 -122 180q-68 0 -96 -51t-27 -178v-281q0 -127 28 -178t94 -51q68 0 98 45t29 143h201q2 -153 -49 -235t-166 -109v-229h-219z" />
    <glyph glyph-name="Euro.fitted" horiz-adv-x="864" 
d="M133 629v112h-131l49 136h82v116q0 262 85 376t265 114q227 0 310 -187q39 -78 41 -239h-207q-4 133 -35 187q-30 54 -102 54t-102 -70t-30 -249v-102h383l-49 -136h-334v-112h304l-50 -135h-254q2 -129 11 -195q20 -135 133 -135q72 0 104 48t33 155h207
q-2 -154 -51 -236q-90 -152 -303 -151q-123 0 -207 56t-117 156t-35 302h-131l49 135h82z" />
    <glyph glyph-name="yen.fitted" horiz-adv-x="858" 
d="M317 0v295h-223v135h223v102h-223v136h176l-288 794h237l211 -686l211 686h238l-291 -794h178v-136h-223v-102h223v-135h-223v-295h-226z" />
    <glyph glyph-name="one.numerator" horiz-adv-x="604" 
d="M229 586v690l-110 -51l-62 133l228 104h118v-876h-174z" />
    <glyph glyph-name="two.numerator" horiz-adv-x="604" 
d="M45 586v116l203 287q102 150 102 248t-63 98q-39 0 -55 -30q-15 -31 -19 -109h-158q3 150 59 213t183 64q233 0 233 -232q0 -94 -26 -152t-133 -210l-109 -154h264v-139h-481z" />
    <glyph glyph-name="three.numerator" horiz-adv-x="604" 
d="M178 983v125h76q100 0 100 114t-75 113q-39 0 -55 -24q-15 -25 -19 -90h-156q2 113 31 157q61 94 207 95q236 0 235 -236q0 -131 -71 -188q88 -66 88 -207q-1 -140 -61 -204t-187 -65q-182 0 -230 127q-18 49 -18 142h158q0 -72 18 -102t66 -29q86 0 86 123
q0 150 -107 149h-86z" />
    <glyph glyph-name="four.numerator" horiz-adv-x="604" 
d="M350 586v153h-303v103l215 620h172l-203 -588h119v203h146v-203h61v-135h-61v-153h-146z" />
    <glyph glyph-name="five.numerator" horiz-adv-x="604" 
d="M518 1462v-139h-260l-10 -190q43 14 88 14q113 1 159 -63t46 -219t-49 -216q-58 -76 -194 -76q-136 -1 -196 63t-57 206h156q2 -72 21 -102q20 -30 66 -30t65 32t19 117t-16 121t-61 36t-78 -53l-131 24l25 475h407z" />
    <glyph glyph-name="six.numerator" horiz-adv-x="604" 
d="M302 1016q-46 0 -62 -34t-16 -123t16 -121t61 -32t61 34q16 32 17 122q0 90 -15 122q-16 32 -62 32zM362 1143q74 0 117 -39q68 -56 68 -226q1 -170 -57 -238t-189 -67q-131 -1 -188 63t-58 212q0 90 11 132q10 42 57 134l170 348h201l-168 -321q29 2 36 2z" />
    <glyph glyph-name="seven.numerator" horiz-adv-x="604" 
d="M66 1323v139h446v-100l-217 -776h-191l234 737h-272z" />
    <glyph glyph-name="eight.numerator" horiz-adv-x="604" 
d="M387 841q-1 77 -19 107t-66 29q-48 0 -66 -29q-18 -28 -18 -106t18 -107t66 -29t67 29q18 29 18 106zM381 1225q-1 73 -17 99t-62 26t-62 -26t-16 -98t16 -99q16 -25 62 -25t63 25q16 26 16 98zM70 1231q0 129 54 186t178 57t178 -56q54 -58 54 -192t-65 -173
q47 -29 67 -79t19 -166q0 -116 -59 -175q-60 -59 -194 -59t-193 58q-59 60 -59 176t18 166q20 50 67 79q-37 20 -51 60t-14 118z" />
    <glyph glyph-name="nine.numerator" horiz-adv-x="604" 
d="M303 1341q-45 -1 -61 -29t-16 -112t14 -113q16 -29 62 -29t63 31q16 31 16 113t-16 111q-17 28 -62 28zM252 932q-74 0 -125 37q-70 53 -70 215q-1 162 57 226q58 65 189 65q131 -1 189 -61t57 -200q0 -88 -11 -133t-53 -133l-178 -362h-198l178 350q-16 -4 -35 -4z" />
    <glyph glyph-name="zero.numerator" horiz-adv-x="604" 
d="M379 877v294q1 92 -17 129t-61 37t-60 -37t-18 -129v-294q-1 -92 17 -129t61 -37t61 37t17 129zM49 879v290q0 164 57 235q56 71 194 71t196 -71t57 -235v-290q0 -164 -57 -235q-56 -71 -194 -71t-196 71q-57 71 -57 235z" />
    <glyph glyph-name="one.denominator" horiz-adv-x="604" 
d="M229 0v690l-110 -51l-62 133l228 105h118v-877h-174z" />
    <glyph glyph-name="two.denominator" horiz-adv-x="604" 
d="M45 0v117l203 286q102 150 102 248t-63 99q-39 0 -55 -31t-19 -109h-158q3 150 59 213t183 64q233 0 233 -232q0 -94 -26 -152t-133 -210l-109 -154h264v-139h-481z" />
    <glyph glyph-name="three.denominator" horiz-adv-x="604" 
d="M178 397v125h76q100 0 100 114t-75 114q-39 0 -55 -25t-19 -90h-156q2 109 31 158q59 94 207 94q236 0 235 -236q0 -131 -71 -188q88 -66 88 -207q-1 -140 -61 -204t-187 -64q-182 0 -230 127q-18 49 -18 141h158q0 -72 18 -102t66 -29q86 0 86 123q0 150 -107 149h-86z
" />
    <glyph glyph-name="four.denominator" horiz-adv-x="604" 
d="M350 0v154h-303v102l215 621h172l-203 -588h119v203h146v-203h61v-135h-61v-154h-146z" />
    <glyph glyph-name="five.denominator" horiz-adv-x="604" 
d="M518 877v-140h-260l-10 -190q49 14 88 14q113 0 159 -63t46 -218t-49 -217q-58 -75 -194 -75t-196 63q-59 63 -57 205h156q2 -72 21 -102q20 -30 66 -29q46 0 65 33q19 32 19 116t-16 120t-61 36t-78 -53l-131 24l25 476h407z" />
    <glyph glyph-name="six.denominator" horiz-adv-x="604" 
d="M301 430q-45 0 -61 -34t-16 -123t16 -121t61 -31q45 0 61 33q16 34 16 122t-16 121t-61 33zM362 557q74 0 117 -39q68 -57 68 -226q1 -169 -57 -237q-58 -67 -189 -67t-188 63t-58 211q0 90 11 132q10 42 57 134l170 349h201l-168 -320h36z" />
    <glyph glyph-name="seven.denominator" horiz-adv-x="604" 
d="M66 737v140h446v-101l-217 -776h-191l234 737h-272z" />
    <glyph glyph-name="eight.denominator" horiz-adv-x="604" 
d="M387 256q-1 76 -19 106t-66 29q-48 0 -66 -29q-18 -28 -18 -106t18 -106t66 -29q48 0 67 29q18 30 18 106zM381 640q-1 72 -17 98t-62 26t-62 -26t-16 -98t16 -98t62 -26t63 26q16 26 16 98zM70 645q0 129 54 186t178 57t178 -56q54 -58 54 -192t-65 -173q47 -29 67 -79
t19 -166q0 -116 -59 -174q-60 -60 -194 -60t-193 59t-59 175t19 166t66 79q-37 20 -51 60t-14 118z" />
    <glyph glyph-name="nine.denominator" horiz-adv-x="604" 
d="M381 617q-1 83 -17 111t-61 28t-61 -29t-16 -113t14 -112q16 -28 62 -29q46 0 63 31q16 31 16 113zM252 348q-74 0 -125 37q-70 53 -70 213q-1 160 57 226q58 65 189 65q131 -1 189 -61t57 -199q0 -88 -11 -133t-53 -131l-178 -365h-198l178 350q-16 -2 -35 -2z" />
    <glyph glyph-name="zero.denominator" horiz-adv-x="604" 
d="M379 291v295q1 92 -17 129t-61 37t-60 -37t-18 -129v-295q-1 -92 17 -129t61 -37t61 37t17 129zM49 293v291q0 164 57 234q56 70 194 71q138 0 196 -71t57 -234v-291q0 -164 -57 -235q-56 -70 -194 -70t-196 70q-57 71 -57 235z" />
    <glyph glyph-name="oneone" horiz-adv-x="1488" 
d="M414 0l334 1462h198l-336 -1462h-196zM1057 0v690l-111 -51l-61 133l227 105h119v-877h-174zM248 586v690l-111 -51l-61 133l227 104h119v-876h-174z" />
    <glyph glyph-name="Dotaccent" horiz-adv-x="1024" 
d="M410 1612v239h206v-239h-206z" />
    <glyph glyph-name="Ring" horiz-adv-x="1024" 
d="M596 1808q0 116 -85 115q-85 0 -85 -116t84 -115q86 0 86 116zM512 2028q98 0 158 -60t59 -158q0 -98 -60 -160q-61 -62 -157 -62t-158 62t-61 160q0 98 60 158q61 60 159 60z" />
    <glyph glyph-name="Circumflex" horiz-adv-x="1024" 
d="M512 1774l-82 -162h-199l203 291h156l203 -291h-199z" />
    <glyph glyph-name="Breve" horiz-adv-x="1024" 
d="M512 1749q63 0 89 32t36 115h135q-4 -131 -31 -186q-57 -117 -236 -117t-233 136q-18 54 -20 167h133q8 -84 36 -116t91 -31z" />
    <glyph glyph-name="Tilde" horiz-adv-x="1024" 
d="M414 1890q72 0 124 -62t70 -63q39 0 49 111h127q-8 -140 -49 -202t-122 -62t-127 62t-64 63q-47 0 -57 -111h-127q31 264 176 264z" />
    <glyph glyph-name="Cedilla" horiz-adv-x="1024" 
d="M381 -471l72 334h204l-133 -334h-143z" />
    <glyph glyph-name="Ogonek" horiz-adv-x="1024" 
d="M649 -289q43 0 92 21l25 -113q-78 -35 -166 -35q-209 0 -209 158q0 104 92 195q13 12 72 63h158q-4 -8 -13 -12l-41 -43q-77 -82 -77 -158t67 -76z" />
    <glyph glyph-name="Commaaccent" horiz-adv-x="1024" 
d="M381 -471l72 334h204l-133 -334h-143z" />
    <glyph glyph-name="Comma.high" horiz-adv-x="239" 
d="M-4 969l51 518h201l-103 -518h-149z" />
    <glyph glyph-name="Croatumlaut" horiz-adv-x="1024" 
d="M473 1606h-147l-166 303h215zM733 1606h-145l-168 303h217z" />
    <glyph glyph-name="Croatbreve" horiz-adv-x="1024" 
d="M514 1759q-63 0 -90 -32t-37 -115h-133q4 137 29 186q61 117 238 117t231 -135q18 -45 22 -168h-135q-8 84 -35 116t-90 31z" />
    <glyph glyph-name="Cicumflexacute" horiz-adv-x="1024" 
d="M711 1729l123 299h217l-203 -306h-133l78 -110h-199l-82 162l-82 -162h-199l203 291h156z" />
    <glyph glyph-name="Ringacute" horiz-adv-x="1024" 
d="M414 1841l108 258h275l-234 -258h-149zM511 1696q-85 0 -85 -116t85 -116t85 116t-85 116zM512 1800q98 0 158 -60t59 -158q0 -98 -60 -160q-61 -62 -157 -62t-158 62q-61 62 -61 160t60 159q61 59 159 59z" />
    <glyph glyph-name="croatumlaut" horiz-adv-x="1024" 
d="M473 1190h-147l-166 303h215zM733 1190h-145l-168 303h217z" />
    <glyph glyph-name="croatbreve" horiz-adv-x="1024" 
d="M521 1499q177 0 231 -135q18 -45 22 -168h-135q-8 84 -35 116t-90 32t-90 -32t-37 -116h-133q4 137 29 186q61 117 238 117z" />
    <glyph glyph-name="cicumflexacute" horiz-adv-x="1024" 
d="M711 1311l123 297h217l-203 -303h-133l78 -111h-199l-82 162l-82 -162h-199l203 291h156z" />
    <glyph glyph-name="ringacute" horiz-adv-x="1024" 
d="M414 1653l108 258h275l-234 -258h-149zM511 1507q-85 1 -85 -115t85 -116t85 116t-85 115zM512 1612q98 0 158 -60t59 -158q0 -98 -60 -160q-61 -62 -157 -62t-158 62t-61 160t61 158t158 60z" />
    <glyph glyph-name="Ohorn.sc" horiz-adv-x="946" 
d="M555 385v350q0 125 -27 174q-26 49 -96 49t-98 -49t-27 -174v-350q0 -123 28 -172q29 -49 97 -49t96 49t27 172zM981 1030q0 -182 -207 -313v-346q0 -209 -79 -298t-264 -89t-264 89t-79 298v381q0 207 79 297t250 90t252 -66t99 -211q45 74 45 142t-29 131h183
q14 -59 14 -105z" />
    <glyph glyph-name="Uhorn.sc" horiz-adv-x="1024" 
d="M109 1120h219v-776q0 -102 24 -141t92 -39q66 0 91 38t24 142v776h219v-321q121 82 121 213q0 55 -29 123h181q14 -55 14 -101q0 -114 -60 -192t-227 -183v-315q0 -106 -12 -160t-45 -94q-84 -106 -286 -106t-281 122q-45 70 -45 238v776z" />
    <glyph glyph-name="uni1EA0.sc" horiz-adv-x="770" 
d="M283 -414v240h204v-240h-204zM492 391l-105 461l-102 -461h207zM526 223h-278l-49 -223h-240l326 1120h204l326 -1120h-237z" />
    <glyph glyph-name="uni1EA2.sc" horiz-adv-x="770" 
d="M307 1245q0 88 9 118t51 85q18 31 18 47q0 39 -45 39t-117 -35l-41 141q109 37 198 37t140 -45t51 -127q0 -39 -12 -63t-48 -64t-42 -62t-8 -71h-154zM492 391l-105 461l-102 -461h207zM526 223h-278l-49 -223h-240l326 1120h204l326 -1120h-237z" />
    <glyph glyph-name="uni1EA4.sc" horiz-adv-x="770" 
d="M385 1323l-84 -113h-188l200 238h144l200 -238h-188zM315 1501l93 238h167l-145 -238h-115zM492 391l-105 461l-102 -461h207zM526 223h-278l-49 -223h-240l326 1120h204l326 -1120h-237z" />
    <glyph glyph-name="uni1EA6.sc" horiz-adv-x="770" 
d="M385 1323l-84 -113h-188l200 238h144l200 -238h-188zM451 1501h-115l-143 238h165zM492 391l-105 461l-102 -461h207zM526 223h-278l-49 -223h-240l326 1120h204l326 -1120h-237z" />
    <glyph glyph-name="uni1EA8.sc" horiz-adv-x="770" 
d="M383 1319l-84 -109h-186l198 222h144l200 -222h-188zM319 1462q0 76 24 111t24 57t-27 23q-18 0 -66 -23l-30 96q58 29 124 29t103 -33t37 -74t-8 -57t-39 -55q-17 -25 -19 -74h-123zM492 391l-105 461l-102 -461h207zM526 223h-278l-49 -223h-240l326 1120h204
l326 -1120h-237z" />
    <glyph glyph-name="uni1EAA.sc" horiz-adv-x="770" 
d="M387 1323l-84 -113h-186l198 238h144l200 -238h-188zM465 1626q35 0 43 92h104q-12 -123 -44 -172t-96 -49t-106 52q-42 53 -58 53q-14 0 -30 -28t-20 -67h-106q18 121 54 171t96 50t104 -51q47 -51 59 -51zM492 391l-105 461l-102 -461h207zM526 223h-278l-49 -223h-240
l326 1120h204l326 -1120h-237z" />
    <glyph glyph-name="uni1EAC.sc" horiz-adv-x="770" 
d="M283 -414v240h204v-240h-204zM385 1425l-80 -161h-201l203 290h156l203 -290h-199zM492 391l-105 461l-102 -461h207zM526 223h-278l-49 -223h-240l326 1120h204l326 -1120h-237z" />
    <glyph glyph-name="uni1EAE.sc" horiz-adv-x="770" 
d="M379 1202q-170 0 -223 125q-19 43 -21 156h123q8 -72 36 -101q28 -28 92 -28t92 28q26 28 36 101h123q-4 -123 -31 -172q-57 -109 -227 -109zM315 1501l93 238h167l-145 -238h-115zM492 391l-105 461l-102 -461h207zM526 223h-278l-49 -223h-240l326 1120h204l326 -1120
h-237z" />
    <glyph glyph-name="uni1EB0.sc" horiz-adv-x="770" 
d="M379 1202q-170 0 -223 125q-19 43 -21 156h123q8 -72 36 -101q28 -28 92 -28t92 28q26 28 36 101h123q-4 -123 -31 -172q-57 -109 -227 -109zM463 1501h-115l-145 238h168zM492 391l-105 461l-102 -461h207zM526 223h-278l-49 -223h-240l326 1120h204l326 -1120h-237z
" />
    <glyph glyph-name="uni1EB2.sc" horiz-adv-x="770" 
d="M379 1202q-170 0 -223 125q-19 43 -21 156h121q8 -76 36 -105q28 -28 94 -28t92 28q28 28 38 105h121q-4 -123 -31 -172q-57 -109 -227 -109zM444 1450h-125q2 82 25 119t23 55q0 31 -25 31t-68 -25l-28 99q56 29 122 29t103 -36q37 -35 37 -83t-45 -105q-19 -27 -19 -84
zM492 391l-105 461l-102 -461h207zM526 223h-278l-49 -223h-240l326 1120h204l326 -1120h-237z" />
    <glyph glyph-name="uni1EB4.sc" horiz-adv-x="770" 
d="M378 1343q64 0 90 26t34 93h119q-4 -115 -31 -157q-55 -101 -220 -101t-214 115q-17 39 -23 143h119q8 -66 35 -92t91 -27zM299 1747q61 0 104 -51q47 -51 60 -51q33 0 41 92h106q-12 -96 -26 -135q-31 -84 -119 -84q-61 0 -107 55q-35 47 -51 47q-15 0 -31 -26t-20 -66
h-106q16 117 52 168t97 51zM492 391l-105 461l-102 -461h207zM526 223h-278l-49 -223h-240l326 1120h204l326 -1120h-237z" />
    <glyph glyph-name="uni1EB6.sc" horiz-adv-x="770" 
d="M283 -414v240h204v-240h-204zM385 1399q63 0 89 32t36 115h135q-4 -131 -31 -186q-57 -117 -236 -117t-233 135q-16 47 -20 168h133q10 -84 37 -116t90 -31zM492 391l-105 461l-102 -461h207zM526 223h-278l-49 -223h-240l326 1120h204l326 -1120h-237z" />
    <glyph glyph-name="uni1EB8.sc" horiz-adv-x="743" 
d="M309 -414v240h207v-240h-207zM115 0v1122h575v-180h-356v-287h301v-180h-301v-295h362v-180h-581z" />
    <glyph glyph-name="uni1EBA.sc" horiz-adv-x="743" 
d="M315 1245q0 88 10 118q9 30 39 71t29 61q0 39 -45 39t-117 -35l-41 141q109 37 198 37t140 -45t52 -127q0 -41 -12 -65t-49 -63q-36 -39 -42 -61t-8 -71h-154zM115 0v1122h575v-180h-356v-287h301v-180h-301v-295h362v-180h-581z" />
    <glyph glyph-name="uni1EBC.sc" horiz-adv-x="743" 
d="M309 1542q68 0 120 -62t71 -63q37 0 49 111h127q-8 -140 -49 -202t-121 -62t-127 62t-66 63q-43 0 -57 -111h-127q31 264 180 264zM115 0v1122h575v-180h-356v-287h301v-180h-301v-295h362v-180h-581z" />
    <glyph glyph-name="uni1EBE.sc" horiz-adv-x="743" 
d="M401 1323l-84 -113h-188l201 238h143l199 -238h-187zM330 1501l94 238h166l-144 -238h-116zM115 0v1122h575v-180h-356v-287h301v-180h-301v-295h362v-180h-581z" />
    <glyph glyph-name="uni1EC0.sc" horiz-adv-x="743" 
d="M401 1323l-84 -113h-188l201 238h143l199 -238h-187zM467 1501h-115l-145 238h168zM115 0v1122h575v-180h-356v-287h301v-180h-301v-295h362v-180h-581z" />
    <glyph glyph-name="uni1EC2.sc" horiz-adv-x="743" 
d="M397 1319l-84 -109h-188l201 222h143l201 -222h-189zM379 1632q-1 20 -23 21q-22 0 -69 -23l-29 96q56 29 122 29t103 -33t37 -74t-8 -57t-39 -55q-14 -21 -18 -74h-123q2 80 24 115t23 55zM113 0v1122h575v-180h-356v-287h301v-180h-301v-295h362v-180h-581z" />
    <glyph glyph-name="uni1EC4.sc" horiz-adv-x="743" 
d="M403 1323l-84 -113h-188l201 238h143l201 -238h-189zM481 1626q31 0 41 92h107q-12 -123 -45 -172q-34 -49 -98 -49t-105 52q-41 53 -56 53t-31 -28t-20 -67h-106q18 121 53 171t97 50t105 -50q44 -52 58 -52zM115 0v1122h575v-180h-356v-287h301v-180h-301v-295h362
v-180h-581z" />
    <glyph glyph-name="uni1EC6.sc" horiz-adv-x="743" 
d="M305 -414v240h205v-240h-205zM395 1425l-82 -161h-198l202 290h154l205 -290h-201zM111 0v1122h575v-180h-356v-287h301v-180h-301v-295h362v-180h-581z" />
    <glyph glyph-name="uni1EC8.sc" horiz-adv-x="444" 
d="M303 1245h-156q2 88 11 118q8 30 38 71t29 61q0 39 -45 39t-117 -35l-40 141q111 37 197 37t139 -45q52 -45 53 -127q0 -39 -12 -63t-49 -64q-36 -40 -42 -62t-6 -71zM113 0v1120h219v-1120h-219z" />
    <glyph glyph-name="uni1ECA.sc" horiz-adv-x="444" 
d="M119 -414v240h207v-240h-207zM113 0v1120h219v-1120h-219z" />
    <glyph glyph-name="uni1ECC.sc" horiz-adv-x="864" 
d="M328 -414v240h207v-240h-207zM555 385v350q0 123 -27 172q-26 49 -96 49t-98 -49t-27 -172v-350q0 -123 28 -172q29 -49 97 -49t96 49t27 172zM88 371v381q0 207 79 296t264 89t264 -89t79 -296v-381q0 -209 -79 -298t-264 -89t-264 89t-79 298z" />
    </font>
</defs>
</svg>
