<?xml version="1.0" standalone="no"?>
<!DOCTYPE svg PUBLIC "-//W3C//DTD SVG 1.1//EN" "http://www.w3.org/Graphics/SVG/1.1/DTD/svg11.dtd" >
<svg xmlns="http://www.w3.org/2000/svg">
<metadata>
Created by FontPrep 20130207 at Tue Apr  4 12:52:28 2017
 By Tina Muller
Copyright (c) 2016 by Daniel Hernandez &#38; Paula Nazal. All rights reserved.
</metadata>
<defs>
<font id="672befd1a9288fc46b55ded2becf26e4" horiz-adv-x='1024' >
  <font-face 
    font-family="Trenda-BlackIt"
    font-weight="900"
    font-style="italic"
    font-stretch="normal"
    units-per-em="2048"
    panose-1="0 0 10 0 0 0 0 0 0 0"
    ascent="1638"
    descent="-410"
    x-height="942"
    cap-height="1440"
    bbox="-1548 -633 2767 2036"
    underline-thickness="102"
    underline-position="-102"
    slope="-8"
    unicode-range="U+0020-FB02"
  />
<missing-glyph horiz-adv-x="1150" 
 />
    <glyph glyph-name="fi" unicode="fi" horiz-adv-x="1382" 
d="M954 0l133 942h324l-133 -942h-324zM1287 1090q-89 0 -143 49t-54 135t61 146t151 60t142 -48q53 -49 53 -135t-60 -147q-61 -60 -150 -60zM824 1481q176 0 276 -74l-154 -242q-41 23 -98 23q-145 0 -168 -182l-8 -64h250l-39 -272h-250l-94 -670h-324l94 670h-170
l39 272h174l13 88q29 211 155 331q128 120 304 120z" />
    <glyph glyph-name="fl" unicode="fl" horiz-adv-x="1349" 
d="M922 0l204 1462h324l-205 -1462h-323zM824 1481q176 0 276 -74l-154 -242q-41 23 -98 23q-145 0 -168 -182l-8 -64h250l-39 -272h-250l-94 -670h-324l94 670h-170l39 272h174l13 88q29 211 155 331q128 120 304 120z" />
    <glyph glyph-name=".notdef" horiz-adv-x="1150" 
 />
    <glyph glyph-name=".null" 
 />
    <glyph glyph-name="nonmarkingreturn" horiz-adv-x="681" 
 />
    <glyph glyph-name="space" unicode=" " horiz-adv-x="430" 
 />
    <glyph glyph-name="exclam" unicode="!" horiz-adv-x="573" 
d="M121 160q-1 80 65 146t146 65q80 1 128 -51t48 -130t-68 -142t-146 -64q-79 0 -126 48t-47 128zM223 440l88 1067h373l-215 -1067h-246z" />
    <glyph glyph-name="quotedbl" unicode="&#x22;" horiz-adv-x="792" 
d="M618 1047l27 428h268l-90 -428h-205zM264 1047l27 428h272l-94 -428h-205z" />
    <glyph glyph-name="numbersign" unicode="#" horiz-adv-x="1374" 
d="M866 608l97 226h-242l-96 -226h241zM1497 1442l-151 -357h133l-35 -251h-205l-96 -226h203l-35 -250h-275l-151 -356h-277l152 356h-242l-151 -356h-267l152 356h-131l35 250h202l97 226h-201l35 251h274l152 357h264l-152 -357h244l152 357h274z" />
    <glyph glyph-name="dollar" unicode="$" horiz-adv-x="1128" 
d="M770 461q0 51 -45 79t-185 74t-222 126q-80 79 -80 229t98 251t260 136l27 186h325l-26 -180q160 -35 274 -123l-143 -242q-147 99 -317 99t-169 -97q0 -39 43 -65q42 -26 134 -57q92 -32 134 -51t99 -61q115 -85 115 -252t-94 -269t-259 -138l-22 -182h-326l25 176
q-197 31 -328 136l145 243q176 -113 355 -112q96 -1 139 21t43 73z" />
    <glyph glyph-name="percent" unicode="%" horiz-adv-x="1753" 
d="M1524 358q0 136 -122 136q-60 0 -106 -50q-45 -50 -45 -115q1 -139 123 -139q60 0 105 50q45 52 45 118zM1333 -29q-141 0 -224 86t-83 232q0 190 116 309t278 119t246 -85q83 -85 83 -229q0 -193 -117 -313t-299 -119zM717 1206q-1 138 -123 136q-60 0 -102 -50
q-42 -48 -43 -116q1 -138 119 -138q60 0 104 50q45 52 45 118zM563 -29l-225 109l1032 1470l225 -120zM528 815q-141 0 -224 88t-83 234q0 186 118 307q117 121 277 121t242 -86t82 -230q0 -190 -116 -312t-296 -122z" />
    <glyph glyph-name="ampersand" unicode="&#x26;" horiz-adv-x="1382" 
d="M621 250q83 0 176 67l-232 258q-111 -70 -110 -180q-1 -65 41 -105t125 -40zM798 1206q-56 0 -101 -47q-44 -47 -44 -118t64 -156q88 39 142 96t54 111t-29 84q-30 30 -86 30zM566 -18q-210 0 -326 103t-117 269q0 266 287 412q-70 121 -70 250q0 194 139 318t355 124
q170 0 271 -87t101 -224t-90 -256t-237 -193l163 -182q113 113 185 225l18 27l193 -156q-2 -4 -14 -23t-28 -42q-70 -107 -188 -215l148 -164q-82 -82 -228 -217l-161 178q-191 -147 -401 -147z" />
    <glyph glyph-name="quotesingle" unicode="'" horiz-adv-x="440" 
d="M264 1047l27 428h272l-94 -428h-205z" />
    <glyph glyph-name="parenleft" unicode="(" horiz-adv-x="720" 
d="M154 541q0 776 630 1151l117 -224q-248 -184 -350 -386t-102 -502q1 -190 65 -332t193 -266l-195 -226q-358 258 -358 785z" />
    <glyph glyph-name="parenright" unicode=")" horiz-adv-x="718" 
d="M477 883q0 356 -241 585l178 224q356 -258 356 -783q0 -772 -629 -1153l-133 226q256 190 363 388q106 198 106 513z" />
    <glyph glyph-name="asterisk" unicode="*" horiz-adv-x="831" 
d="M928 1239l-211 -88l186 -94l-121 -168l-149 131l-8 -223h-187l54 225l-195 -133l-70 168l209 90l-184 92l119 170l153 -131l11 213h186l-51 -213l186 131z" />
    <glyph glyph-name="plus" unicode="+" horiz-adv-x="1101" 
d="M1124 725l-37 -254h-333l-52 -358h-264l51 358h-344l37 254h342l51 367h265l-52 -367h336z" />
    <glyph glyph-name="comma" unicode="," horiz-adv-x="550" 
d="M240 -8q-61 0 -101 43q-39 43 -39 119t58 130q58 52 144 52q87 0 137 -55t50 -161t-90 -222t-227 -172l-72 100q135 90 150 166h-10z" />
    <glyph glyph-name="hyphen" unicode="-" horiz-adv-x="737" 
d="M152 373l36 262h541l-37 -262h-540z" />
    <glyph glyph-name="period" unicode="." horiz-adv-x="534" 
d="M96 165q0 83 60 141t144 58q85 0 137 -46q52 -48 52 -130t-58 -142q-58 -58 -144 -58t-139 47q-52 47 -52 130z" />
    <glyph glyph-name="slash" unicode="/" horiz-adv-x="823" 
d="M0 -334l737 1944h264l-737 -1944h-264z" />
    <glyph glyph-name="zero" unicode="0" horiz-adv-x="1363" 
d="M729 276q147 0 235 148t89 422q0 322 -203 321q-154 0 -246 -140t-92 -425q0 -164 58 -245t159 -81zM684 -18q-238 0 -374 158t-136 442q0 416 198 646t519 230q237 0 367 -156t131 -442q0 -406 -196 -642t-509 -236z" />
    <glyph glyph-name="one" unicode="1" horiz-adv-x="854" 
d="M707 1440h200l-202 -1440h-332l151 1067l-280 -102l-66 272z" />
    <glyph glyph-name="two" unicode="2" horiz-adv-x="1132" 
d="M799 951q1 91 -57 149t-167 59q-160 0 -272 -69l-74 264q68 40 182 72t238 32q233 0 367 -111q133 -112 133 -311q0 -281 -277 -561q-113 -117 -210 -184h440l-41 -291h-973l27 186q313 201 489 389q109 117 152 201t43 175z" />
    <glyph glyph-name="three" unicode="3" horiz-adv-x="1087" 
d="M1079 512q0 -242 -171 -386q-170 -144 -450 -144t-423 135l147 243q121 -104 295 -104q127 0 197 63t69 177q0 78 -50 120t-149 43q-99 0 -196 -38l-45 170l383 362h-471l41 287h891l-31 -211l-346 -336q147 -17 228 -117t81 -264z" />
    <glyph glyph-name="four" unicode="4" horiz-adv-x="1185" 
d="M1206 571l-41 -290h-123l-38 -281h-322l39 281h-645l30 211l445 966l270 -98l-344 -789h285l67 473h322l-68 -473h123z" />
    <glyph glyph-name="five" unicode="5" horiz-adv-x="1116" 
d="M733 934q184 0 293 -98t109 -283q0 -248 -159 -410t-446 -161q-121 0 -225 30q-105 30 -163 59q-58 30 -66 29l145 258q2 0 49 -26q134 -75 266 -76q132 0 206 65t73 165q0 100 -61 142t-165 42t-216 -52l-125 84l104 738h830l-41 -283h-500l-31 -233q68 10 123 10z" />
    <glyph glyph-name="six" unicode="6" horiz-adv-x="1232" 
d="M682 266q106 0 174 58t68 153q0 93 -54 145t-154 52q-99 0 -169 -58t-74 -153v-10q0 -80 51 -134q52 -53 158 -53zM848 934q176 0 279 -111t104 -286q0 -244 -165 -400q-166 -155 -408 -155t-376 132t-135 349q0 309 214 556t655 441l123 -237q-233 -99 -377 -195
t-213 -211q123 117 299 117z" />
    <glyph glyph-name="seven" unicode="7" horiz-adv-x="1040" 
d="M135 0l662 1139h-604l43 301h995l-21 -150l-733 -1290h-342z" />
    <glyph glyph-name="eight" unicode="8" horiz-adv-x="1265" 
d="M483 420q1 -80 51 -124t143 -44t161 56t68 138t-51 124q-50 44 -144 44t-161 -57t-67 -137zM794 1210q-78 0 -134 -53q-58 -53 -58 -127t42 -114t121 -39q79 0 136 53q57 52 57 126t-43 114t-121 40zM1243 473q1 -205 -159 -348t-430 -143t-392 104q-123 104 -123 258
t78 265q78 110 193 159q-125 80 -125 242q-1 204 159 326t376 122t338 -95t122 -255q0 -227 -207 -340q76 -37 123 -116t47 -179z" />
    <glyph glyph-name="nine" unicode="9" horiz-adv-x="1222" 
d="M504 965q0 -93 57 -145t157 -52t166 54q67 54 70 151v12q0 82 -54 136q-54 55 -160 55t-171 -59t-65 -152zM757 1460q243 0 383 -133t140 -348q0 -328 -217 -592t-664 -405l-110 237q410 158 561 371q-104 -80 -266 -80t-275 116t-112 300q0 236 158 385q159 149 402 149
z" />
    <glyph glyph-name="colon" unicode=":" horiz-adv-x="583" 
d="M508 170q0 -80 -66 -144t-148 -65q-81 0 -127 49t-46 129t65 145q66 64 147 64t128 -49t47 -129zM596 809q0 -81 -66 -145t-146 -64q-81 0 -128 49t-47 129t66 145q67 65 148 65t127 -50q46 -49 46 -129z" />
    <glyph glyph-name="semicolon" unicode=";" horiz-adv-x="665" 
d="M279 -27q-57 0 -91 37q-33 37 -32 99q0 92 63 150t149 58t131 -46q44 -46 44 -124q-1 -129 -89 -253t-227 -187l-71 100q137 88 147 168q-6 -2 -24 -2zM659 774q-1 -80 -67 -144t-147 -65q-81 0 -127 49t-46 129t66 145q66 64 147 64t127 -49t47 -129z" />
    <glyph glyph-name="less" unicode="&#x3c;" horiz-adv-x="907" 
d="M948 1165l-43 -307l-452 -266l376 -266l-41 -303l-647 430l39 278z" />
    <glyph glyph-name="equal" unicode="=" horiz-adv-x="1253" 
d="M152 246l34 256h1020l-35 -256h-1019zM213 678l35 254h1020l-35 -254h-1020z" />
    <glyph glyph-name="greater" unicode="&#x3e;" horiz-adv-x="907" 
d="M287 1165l645 -434l-39 -278l-766 -430l41 303l453 266l-377 266z" />
    <glyph glyph-name="question" unicode="?" horiz-adv-x="907" 
d="M366 -18q-74 0 -116 46t-43 120q0 74 60 132q59 58 135 58t118 -44t41 -119t-61 -134t-134 -59zM668 1108q0 121 -128 121t-247 -66l-84 236q201 111 392 111t300 -91q109 -90 109 -248q0 -94 -30 -170q-30 -77 -75 -123q-86 -89 -200 -182q-114 -94 -134 -231l-6 -43
h-291l13 82q14 98 59 178t97 132t105 98q120 106 120 196z" />
    <glyph glyph-name="at" unicode="@" horiz-adv-x="1880" 
d="M862 504q0 -138 123 -139q59 0 104 43q44 42 54 110t-23 111q-34 43 -100 43t-112 -50t-46 -118zM1143 1389q340 -1 544 -187t203 -489q0 -260 -130 -425t-328 -167t-265 94q-109 -113 -293 -113q-139 0 -226 102t-87 257q0 197 131 335t312 138q111 0 190 -51l10 24h236
l-56 -391q-10 -70 6 -96t58 -27q70 0 112 75t42 200q0 206 -142 328t-381 118q-293 -6 -480 -194t-187 -484q0 -213 120 -345t316 -139q194 -7 360 64l56 -256q-190 -84 -416 -84q-338 0 -536 196t-197 519q0 430 296 714t732 284z" />
    <glyph glyph-name="A" unicode="A" horiz-adv-x="1394" 
d="M936 532l-107 414l-223 -414h330zM1049 0l-62 256h-512l-133 -256h-360l813 1440h213l401 -1440h-360z" />
    <glyph glyph-name="B" unicode="B" horiz-adv-x="1341" 
d="M764 283q231 0 231 176q0 133 -190 133h-238l-45 -309h242zM1030 1030q0 127 -174 127h-209l-43 -299h211q215 0 215 172zM1329 467q0 -219 -147 -343t-459 -124h-573l202 1440h551q237 0 351 -89t114 -227t-68 -233q-68 -94 -182 -133q104 -31 158 -108t53 -183z" />
    <glyph glyph-name="C" unicode="C" horiz-adv-x="1300" 
d="M835.5 -18q-294.5 0 -482 182t-187.5 459q0 356 216 596.5t581 240.5q295 0 485 -145l-186 -273q-129 100 -313.5 100.5t-300.5 -134t-116 -353.5q0 -166 90.5 -262t261 -96t285.5 100l136 -252q-175 -163 -469.5 -163z" />
    <glyph glyph-name="D" unicode="D" horiz-adv-x="1511" 
d="M717 303q233 0 353 133t120 359q0 158 -91 250t-265 92h-183l-116 -834h182zM881 1440q311 0 487 -166t176 -443q0 -373 -234.5 -602t-631.5 -229h-531l203 1440h531z" />
    <glyph glyph-name="E" unicode="E" horiz-adv-x="1226" 
d="M1278 1137h-629l-37 -260h555l-43 -304h-555l-37 -272h637l-43 -301h-979l203 1440h971z" />
    <glyph glyph-name="F" unicode="F" horiz-adv-x="1177" 
d="M1276 1137h-625l-53 -379h535l-43 -303h-535l-63 -455h-345l203 1440h969z" />
    <glyph glyph-name="G" unicode="G" horiz-adv-x="1435" 
d="M842 -18q-305 0 -490.5 183t-185.5 462q0 356 216 594.5t585 238.5q307 0 506 -162l-183 -264q-139 109 -330.5 109t-309.5 -129t-118 -352q0 -168 90.5 -266.5t247.5 -98.5q115 0 201 39l57 409h318l-86 -610q-72 -57 -207 -105t-311 -48z" />
    <glyph glyph-name="H" unicode="H" horiz-adv-x="1576" 
d="M1288 1440h344l-202 -1440h-345l80 565h-594l-79 -565h-345l203 1440h344l-80 -572h594z" />
    <glyph glyph-name="I" unicode="I" horiz-adv-x="638" 
d="M147 0l203 1440h344l-202 -1440h-345z" />
    <glyph glyph-name="J" unicode="J" horiz-adv-x="976" 
d="M348 -18q-199 0 -342 102l172 291q70 -55 178 -56q190 0 215 203l129 918h344l-131 -926q-39 -274 -176 -403t-389 -129z" />
    <glyph glyph-name="K" unicode="K" horiz-adv-x="1400" 
d="M1645 1440l-738 -740l549 -700h-436l-449 573l-79 -573h-345l201 1440h344l-84 -606l621 608z" />
    <glyph glyph-name="L" unicode="L" horiz-adv-x="1126" 
d="M535 301h618l-43 -301h-963l203 1440h344z" />
    <glyph glyph-name="M" unicode="M" horiz-adv-x="1785" 
d="M1612 1440h213l-172 -1440h-338l104 729l-403 -590h-211l-225 592l-109 -731h-338l244 1440h219l375 -905z" />
    <glyph glyph-name="N" unicode="N" horiz-adv-x="1564" 
d="M1280 1440h338l-205 -1458h-188l-621 862l-119 -844h-335l204 1454h191l616 -858z" />
    <glyph glyph-name="O" unicode="O" horiz-adv-x="1603" 
d="M881 297q164 0 277.5 129t113.5 369q0 156 -92.5 252t-256 96t-277.5 -129t-114 -369q0 -156 92.5 -252t256.5 -96zM865.5 -18q-330.5 0 -515 189t-184.5 452q0 369 219 602t550.5 233t517 -186.5t185.5 -452.5q0 -371 -221 -604t-551.5 -233z" />
    <glyph glyph-name="P" unicode="P" horiz-adv-x="1275" 
d="M737 692q131 0 205 75t74 163t-55 147t-162 60h-150l-63 -445h151zM864 1440q234 0 368 -127t134 -336q0 -262 -185 -425t-481 -165l-157 -2l-54 -385h-342l203 1440h514z" />
    <glyph glyph-name="Q" unicode="Q" horiz-adv-x="1597" 
d="M522 645q0 -156 92 -252t256 -96t278 129t114 369q0 156 -92 252t-256 96t-278 -129t-114 -369zM1628 819q0 -227 -88 -408.5t-244 -291.5l201 -223l-246 -246l-309 338q-49 -6 -100 -6q-317 0 -501.5 189t-184.5 452q0 369 219 602t551 233t517 -186.5t185 -452.5z" />
    <glyph glyph-name="R" unicode="R" horiz-adv-x="1333" 
d="M752 684q121 0 197.5 70.5t76.5 174t-56.5 160t-160.5 56.5h-164l-63 -461h170zM1382 994.5q0 -191.5 -88 -327t-243 -204.5l241 -463h-360l-193 395h-198l-56 -395h-338l203 1440h535q231 0 364 -127t133 -318.5z" />
    <glyph glyph-name="S" unicode="S" horiz-adv-x="1187" 
d="M610 -18q-338 0 -547 186l168 256q201 -145 395 -145t195 143q0 61 -49 98t-178 76q-176 63 -267 154.5t-91 244.5q0 213 158 338q156 125 430 125t468 -153l-176 -246q-172 102 -334 102q-190 0 -190 -121q0 -55 48 -85.5t200 -81.5t241.5 -145.5t89.5 -266.5
q0 -215 -147.5 -347t-413.5 -132z" />
    <glyph glyph-name="T" unicode="T" horiz-adv-x="1271" 
d="M1456 1440l-43 -303h-446l-160 -1137h-344l160 1137h-443l43 303h1233z" />
    <glyph glyph-name="U" unicode="U" horiz-adv-x="1509" 
d="M752 -18q-287 0 -431.5 168.5t-101.5 482.5l113 807h346l-117 -834q-18 -133 37 -225t195.5 -92t224.5 92t102 225l117 834h342l-113 -807q-43 -315 -235 -483t-479 -168z" />
    <glyph glyph-name="V" unicode="V" horiz-adv-x="1347" 
d="M1184 1440h368l-772 -1440h-211l-368 1440h383l129 -635l45 -295l127 297z" />
    <glyph glyph-name="W" unicode="W" horiz-adv-x="1927" 
d="M1782 1440h346l-645 -1440h-256l-140 883l-385 -883h-260l-237 1440h366l68 -529l27 -376l139 360l248 545h223l92 -543l49 -385l152 403z" />
    <glyph glyph-name="X" unicode="X" horiz-adv-x="1392" 
d="M1567 1440l-559 -713l383 -727h-408l-227 473l-344 -473h-392l582 743l-358 697h409l199 -445l324 445h391z" />
    <glyph glyph-name="Y" unicode="Y" horiz-adv-x="1349" 
d="M1550 1440l-622 -871l-80 -569h-346l80 563l-373 877h409l189 -525l348 525h395z" />
    <glyph glyph-name="Z" unicode="Z" horiz-adv-x="1294" 
d="M1397 1440l-31 -215l-823 -922h717l-43 -303h-1145l30 215l811 922h-680l43 303h1121z" />
    <glyph glyph-name="bracketleft" unicode="[" horiz-adv-x="784" 
d="M920 1356h-326l-184 -1305h327l-37 -254h-602l254 1813h602z" />
    <glyph glyph-name="backslash" unicode="\" horiz-adv-x="823" 
d="M463 -334l-199 1878h262l203 -1878h-266z" />
    <glyph glyph-name="bracketright" unicode="]" horiz-adv-x="784" 
d="M281 1610h602l-254 -1813h-602l36 254h324l184 1305h-325z" />
    <glyph glyph-name="asciicircum" unicode="^" horiz-adv-x="1079" 
d="M1090 778h-273l-106 322l-230 -322h-303l467 641h252z" />
    <glyph glyph-name="underscore" unicode="_" horiz-adv-x="1232" 
d="M96 -70l35 250h1020l-35 -250h-1020z" />
    <glyph glyph-name="grave" unicode="`" horiz-adv-x="610" 
d="M618 1049l-430 208l183 267l381 -295z" />
    <glyph glyph-name="a" unicode="a" horiz-adv-x="1155" 
d="M618 274q82 0 132.5 63.5t50.5 150t-42 133.5t-121 47t-132 -60.5t-53 -147.5t41.5 -136.5t123.5 -49.5zM509 -18q-169 0 -275.5 114.5t-106.5 309.5q0 254 144.5 404.5t351.5 150.5q143 0 239 -82l21 63h301l-133 -942h-287l2 74q-88 -92 -257 -92z" />
    <glyph glyph-name="b" unicode="b" horiz-adv-x="1155" 
d="M674 668q-78 0 -131 -62t-53 -152q0 -88 41 -134q42 -46 125 -46t132 66q50 66 50 152t-43 131t-121 45zM780 961q168 0 274 -120t107 -333q0 -213 -139 -370t-371 -156q-172 0 -266 110l-23 -92h-256l205 1462h324l-78 -557q88 56 223 56z" />
    <glyph glyph-name="c" unicode="c" horiz-adv-x="894" 
d="M575 -18q-207 0 -329.5 121.5t-122.5 308.5q0 242 147.5 395.5t393.5 153.5q201 0 307 -99l-162 -256q-61 61 -157 62q-98 0 -152 -60q-54 -58 -54 -150q0 -184 164 -184q80 0 152 62l153 -221q-133 -133 -340 -133z" />
    <glyph glyph-name="d" unicode="d" horiz-adv-x="1155" 
d="M615 274q81 0 132.5 62.5t51.5 150t-42 134.5t-123 47t-132 -64.5t-51 -150t41.5 -132.5t122.5 -47zM511.5 -18q-177.5 0 -282 118.5t-104.5 300.5q0 240 134 400t359 160q143 0 230 -80l82 581h323l-204 -1462h-256l2 84q-106 -102 -283.5 -102z" />
    <glyph glyph-name="e" unicode="e" horiz-adv-x="1062" 
d="M631 709q-129 0 -178 -129h323q-2 57 -40.5 93t-104.5 36zM1073 555q0 -77 -16 -149l-6 -21h-611q39 -133 195 -133q81 0 143 36q16 9 19 11q4 2 34 25l134 -211q-143 -131 -368.5 -131t-349.5 122.5t-124 309.5q0 250 154.5 398.5t365.5 148.5t320.5 -112t109.5 -294z
" />
    <glyph glyph-name="f" unicode="f" horiz-adv-x="817" 
d="M824 1481q176 0 276 -74l-154 -242q-41 23 -98 23q-145 0 -168 -182l-8 -64h250l-39 -272h-250l-94 -670h-324l94 670h-170l39 272h174l13 88q29 211 155 331q128 120 304 120z" />
    <glyph glyph-name="g" unicode="g" horiz-adv-x="1148" 
d="M610 274q80 0 132.5 61.5t52.5 148.5t-43 135.5t-124 48.5t-132.5 -60.5t-51.5 -146.5t43 -136.5t123 -50.5zM460.5 -418q-260.5 0 -401.5 129l168 236q115 -88 271 -88q203 0 235 192q-80 -70 -234.5 -69.5t-265 113t-110.5 298.5q0 258 139 413t352 155q145 0 242 -87
l23 68h299l-125 -876q-33 -225 -182.5 -354.5t-410 -129.5z" />
    <glyph glyph-name="h" unicode="h" horiz-adv-x="1159" 
d="M797 961q184 0 276 -119t64 -322l-74 -520h-324l66 481q27 188 -125 189q-139 0 -176 -152l-72 -518h-326l205 1462h324l-82 -573q99 72 244 72z" />
    <glyph glyph-name="i" unicode="i" horiz-adv-x="532" 
d="M104 0l134 942h323l-133 -942h-324zM437 1090q-89 0 -143 49t-54 135t61 146t151 60t142 -48q53 -49 53 -135t-60 -147q-61 -60 -150 -60z" />
    <glyph glyph-name="j" unicode="j" horiz-adv-x="548" 
d="M-10 -418q-135 0 -230 51l127 261q41 -18 99 -19q121 0 141 168l127 899h321l-124 -893q-62 -467 -461 -467zM449 1090q-89 0 -142 49t-53 135t61 146t151 60t142 -48q54 -49 54 -135q0 -87 -62 -147t-151 -60z" />
    <glyph glyph-name="k" unicode="k" horiz-adv-x="1085" 
d="M1212 942l-446 -459l330 -483h-385l-232 369l-51 -369h-324l205 1462h324l-121 -856l303 336h397z" />
    <glyph glyph-name="l" unicode="l" horiz-adv-x="532" 
d="M104 0l205 1462h324l-205 -1462h-324z" />
    <glyph glyph-name="m" unicode="m" horiz-adv-x="1734" 
d="M1376 961q182 1 276 -103t68 -280l-80 -578h-323l69 510q10 80 -19 120q-30 40 -87 40q-137 0 -176 -162l-70 -508h-323l69 510q10 80 -19 120q-30 40 -87 40q-137 0 -174 -166l-72 -504h-324l134 942h231l-10 -141q49 71 132 115t179 45q219 0 307 -146q49 66 129 106
t170 40z" />
    <glyph glyph-name="n" unicode="n" horiz-adv-x="1155" 
d="M783.5 961q195.5 0 287.5 -119t64 -322l-74 -520h-324l66 481q27 188 -125 189q-139 0 -178 -158l-72 -512h-324l134 942h231l6 -129q113 148 308.5 148z" />
    <glyph glyph-name="o" unicode="o" horiz-adv-x="1112" 
d="M611 274q83 0 134.5 66t51.5 149t-42 131t-123 48t-133.5 -65.5t-52.5 -149t41 -131.5t124 -48zM587 -18q-222 0 -343 121.5t-121 308.5q0 252 155.5 400.5t378 148.5t343 -122t120.5 -309q0 -252 -155.5 -400t-377.5 -148z" />
    <glyph glyph-name="p" unicode="p" horiz-adv-x="1155" 
d="M654 274q81 0 131 64q51 64 51 150t-41 133t-119 47t-132 -65t-54 -150t41 -132q42 -47 123 -47zM786 961q168 0 272 -119t103 -303q0 -240 -136 -399t-366 -158q-137 0 -219 88l-65 -469h-324l189 1341h262l-4 -92q120 111 288 111z" />
    <glyph glyph-name="q" unicode="q" horiz-adv-x="1153" 
d="M637 668q-78 0 -132 -62t-54 -147q0 -84 41 -134q40 -51 122 -51t134 62t51 150q0 86 -42 134t-120 48zM490 -18q-156 0 -261 121q-104 122 -104 313q0 236 139 390t371 155q166 0 260 -115l25 96h260l-189 -1341h-321l61 442q-85 -61 -241 -61z" />
    <glyph glyph-name="r" unicode="r" horiz-adv-x="778" 
d="M803 961q49 0 82 -9l-72 -321q-45 20 -111 20t-129 -50t-79 -138l-66 -463h-324l134 942h266l-15 -174q35 86 121.5 139.5t192.5 53.5z" />
    <glyph glyph-name="s" unicode="s" horiz-adv-x="948" 
d="M494 -18q-260 0 -428 122l159 236q129 -104 291 -104q72 0 72 51q0 23 -25.5 35t-97.5 28q-285 63 -285 264q0 156 122 251.5t321 95.5q115 0 218 -32t160 -79l-133 -221q-129 78 -268 78q-92 0 -92 -43q0 -25 28.5 -37.5t118.5 -34.5q264 -63 265 -268
q0 -152 -113.5 -247t-312.5 -95z" />
    <glyph glyph-name="t" unicode="t" horiz-adv-x="917" 
d="M590 -18q-182 0 -268 99t-60 286l43 303h-180l39 272h194l45 324h310l-45 -324h309l-39 -272h-309l-37 -264q-10 -68 23.5 -100t93 -32t133.5 43l76 -239q-146 -96 -328 -96z" />
    <glyph glyph-name="u" unicode="u" horiz-adv-x="1140" 
d="M500.5 -18q-190.5 0 -283 116.5t-63.5 323.5l73 520h324l-66 -467q-12 -82 17.5 -132t98.5 -50t116 48t63 132l66 469h323l-133 -942h-250l9 111q-104 -129 -294.5 -129z" />
    <glyph glyph-name="v" unicode="v" horiz-adv-x="1083" 
d="M858 942h344l-549 -940h-223l-285 940h355l104 -520z" />
    <glyph glyph-name="w" unicode="w" horiz-adv-x="1626" 
d="M1409 942h338l-490 -942h-227l-129 504l-270 -504h-232l-254 942h347l92 -528l272 528h201l131 -545z" />
    <glyph glyph-name="x" unicode="x" horiz-adv-x="1046" 
d="M1145 942l-375 -481l248 -461h-371l-100 240l-156 -240h-377l379 481l-229 461h377l84 -217l143 217h377z" />
    <glyph glyph-name="y" unicode="y" horiz-adv-x="1071" 
d="M862 942h336l-698 -1341h-336l227 422l-246 919h361l106 -555z" />
    <glyph glyph-name="z" unicode="z" horiz-adv-x="987" 
d="M1030 942l-35 -240l-475 -430h430l-39 -272h-835l33 240l475 430h-398l39 272h805z" />
    <glyph glyph-name="braceleft" unicode="{" horiz-adv-x="739" 
d="M240 586h-105l35 241h104q29 0 41 27t21 88l47 334q25 178 164 282t348 103l-35 -248q-92 0 -139 -37t-59 -123l-46 -321q-2 -14 -6 -50q-10 -93 -37 -123t-73 -54q63 -31 68 -87t-15 -141l-45 -319q-12 -88 24 -126t130 -38l-35 -244q-209 0 -320 102t-86 277l47 342
q12 92 0 104q-12 11 -28 11z" />
    <glyph glyph-name="bar" unicode="|" horiz-adv-x="530" 
d="M96 -225l236 1687h276l-235 -1687h-277z" />
    <glyph glyph-name="braceright" unicode="}" horiz-adv-x="737" 
d="M662 586q-29 0 -41 -27t-21 -88l-47 -342q-25 -175 -164 -277t-348 -102l35 244q92 0 139 38t59 126l45 319q19 148 45 178q27 30 70 50q-61 37 -66 92t15 135l45 321q12 86 -25 123t-129 37l35 248q209 0 319 -103t85 -282l-45 -336q-12 -91 0 -102q12 -10 28 -11h105
l-35 -241h-104z" />
    <glyph glyph-name="asciitilde" unicode="~" horiz-adv-x="1165" 
d="M626 410q-87 39 -147 39t-119 -52l-18 -18l-166 151q2 0 18 18q144 161 330 165q70 0 165 -40t152 -40t122 69l22 23l162 -147q-2 0 -36 -40t-115 -104q-82 -63 -212 -63q-72 0 -158 39z" />
    <glyph glyph-name="uni00A0" unicode="&#xa0;" horiz-adv-x="430" 
 />
    <glyph glyph-name="exclamdown" unicode="&#xa1;" horiz-adv-x="575" 
d="M47 -399l211 1067h246l-84 -1067h-373zM229 917q0 79 66 143t146 64q79 0 127 -49t48 -128t-68 -145t-146 -65q-79 0 -126 50t-47 130z" />
    <glyph glyph-name="cent" unicode="&#xa2;" horiz-adv-x="1099" 
d="M166 655q0 233 136 402.5t357 220.5l37 264h301l-36 -258q129 -25 241 -115l-158 -241q-96 78 -234 76t-224 -89.5t-86 -209.5t67.5 -190.5t189.5 -68.5t228 76l92 -243q-39 -39 -134 -73t-140 -42l-33 -236h-301l35 248q-156 47 -247 177t-91 302z" />
    <glyph glyph-name="sterling" unicode="&#xa3;" horiz-adv-x="1177" 
d="M940 1458q137 0 227 -39t129 -80l-161 -235q-74 61 -177 61q-213 0 -247 -231l-29 -189h360l-34 -249h-355l-30 -220h518l-39 -276h-1006l39 276h164l31 220h-164l35 249h161l31 232q29 219 174 350t373 131z" />
    <glyph glyph-name="currency" unicode="&#xa4;" horiz-adv-x="1185" 
d="M858 740q0 172 -156 171q-76 0 -124 -57q-50 -58 -50 -142t38 -128t116 -45q78 0 127 58q49 59 49 143zM1126 786q0 -154 -77 -282l98 -121l-201 -176l-94 117q-94 -45 -209 -45t-205 53l-145 -129l-154 172l152 139q-27 80 -27 168q0 150 74 270l-100 123l202 172
l97 -119q91 43 211 43t210 -53l146 133l149 -176l-149 -137q22 -72 22 -152z" />
    <glyph glyph-name="yen" unicode="&#xa5;" horiz-adv-x="1423" 
d="M1581 1440l-467 -652h189l-33 -229h-318l-18 -127h315l-32 -229h-314l-29 -203h-327l28 203h-331l32 229h330l19 127h-328l33 229h202l-278 652h377l221 -553l373 553h356z" />
    <glyph glyph-name="brokenbar" unicode="&#xa6;" horiz-adv-x="536" 
d="M100 -223l99 708h274l-98 -708h-275zM240 772l96 690h274l-96 -690h-274z" />
    <glyph glyph-name="section" unicode="&#xa7;" horiz-adv-x="1087" 
d="M528 737q0 -45 37 -71t121 -52l21 -6q77 33 77 85t-58 80q-58 27 -132 46q-66 -37 -66 -82zM1090 745q0 -162 -127 -280q61 -76 61 -180q0 -197 -148 -315t-384 -118t-424 156l133 230q166 -121 323 -121q90 0 144 30q53 31 53 74q-1 43 -23 62q-45 37 -90 51
q-46 14 -80 23t-47 14q-266 80 -266 293q0 164 121 292q-57 68 -57 172q0 190 145 316q144 126 372 125q228 0 390 -135l-139 -226q-141 100 -279 101q-84 0 -129 -35t-45 -78t38 -68q38 -26 113 -50t117 -42q147 -64 196 -155q32 -60 32 -136z" />
    <glyph glyph-name="dieresis" unicode="&#xa8;" horiz-adv-x="907" 
d="M825 1110q-75 0 -117 44t-42 122t60 134t136 56t118 -44t42 -122t-60 -134q-61 -56 -137 -56zM221 1282q-1 78 61 134t137 56t118 -44t43 -122t-60 -134t-137 -56q-76 0 -119 44t-43 122z" />
    <glyph glyph-name="copyright" unicode="&#xa9;" horiz-adv-x="1564" 
d="M756 707q0 -148 140 -148q70 0 140 33l56 -170q-109 -57 -242 -57t-217 87q-84 88 -84 246t111 268q112 110 290 109q117 0 201 -57l-78 -174q-69 39 -145 39q-76 1 -124 -51t-48 -125zM414 647q0 -193 116 -317t338 -123q222 0 353 160t131 424q0 197 -114 319t-328 121
q-214 0 -354 -163q-142 -163 -142 -421zM823 -18q-301 0 -478 182t-177 463q0 363 222 597t564 234q295 0 468 -180t173 -465q0 -371 -211 -601t-561 -230z" />
    <glyph glyph-name="ordfeminine" unicode="&#xaa;" horiz-adv-x="866" 
d="M487 1364q0 -119 105 -119q51 0 91 41q40 40 40 100q-1 120 -109 120q-52 0 -90 -43q-38 -42 -37 -99zM513 1059q-115 0 -181 78t-66 196q0 156 100 260t238 105q92 0 150 -58l18 46h191l-86 -615h-187l6 72q-69 -84 -183 -84z" />
    <glyph glyph-name="guillemotleft" unicode="&#xab;" horiz-adv-x="1036" 
d="M694 141l-178 359l281 368h286l-288 -368l186 -359h-287zM303 141l-178 359l281 368h288l-288 -368l186 -359h-289z" />
    <glyph glyph-name="logicalnot" unicode="&#xac;" horiz-adv-x="1083" 
d="M1065 754l-66 -463h-251l30 215h-592l35 248h844z" />
    <glyph glyph-name="registered" unicode="&#xae;" horiz-adv-x="980" 
d="M723 1311q0 39 -47 39h-33l-12 -88h33q59 0 59 49zM711 1475q82 0 126 -43t44 -107q0 -111 -103 -160l68 -129h-166l-51 111h-15l-16 -111h-145l61 439h197zM369 1230q-1 -130 75 -206t206 -76t221 92t92 242q0 114 -76 188t-206 74t-221 -92t-91 -222zM227 1196
q-1 211 139 347t328 136q188 1 300 -109q110 -110 110 -272q0 -209 -139 -346t-327 -137t-300 109q-111 109 -111 272z" />
    <glyph glyph-name="macron" unicode="&#xaf;" horiz-adv-x="692" 
d="M178 1116l35 248h639l-35 -248h-639z" />
    <glyph glyph-name="degree" unicode="&#xb0;" horiz-adv-x="915" 
d="M453 1149q0 -172 161 -172q82 0 131 58q49 59 49 143t-40 127q-41 43 -120 43t-130 -58t-51 -141zM595 760q-181 0 -280 96q-98 96 -98 274t126 308q127 130 307 131q180 0 278 -96q98 -97 98 -273t-125 -308t-306 -132z" />
    <glyph glyph-name="plusminus" unicode="&#xb1;" horiz-adv-x="1013" 
d="M106 -6l31 229h801l-31 -229h-801zM750 911h286l-35 -243h-286l-45 -324h-230l45 324h-284l35 243h284l45 322h230z" />
    <glyph glyph-name="uni00B2" unicode="&#xb2;" horiz-adv-x="808" 
d="M877 1317q0 -203 -244 -381h209l-31 -221h-618l20 139l20 12q99 51 171 113q73 62 100 94q78 94 78 174q0 37 -32 62q-64 50 -185 6l-21 -6l-53 184q4 2 24 13t60 30q77 37 207 37t212 -68t83 -188z" />
    <glyph glyph-name="uni00B3" unicode="&#xb3;" horiz-adv-x="733" 
d="M797 1014q-1 -146 -99 -228t-267 -82t-269 64l102 182q66 -39 154 -39q129 0 129 97q0 66 -92 65q-43 0 -95 -20l-32 129l211 161h-277l29 207h555l-21 -155l-207 -181q84 -12 132 -65t47 -135z" />
    <glyph glyph-name="acute" unicode="&#xb4;" horiz-adv-x="679" 
d="M279 1049l-93 180l457 289l123 -261z" />
    <glyph glyph-name="paragraph" unicode="&#xb6;" horiz-adv-x="1435" 
d="M414 856q0 -246 309 -252l86 598q-205 -2 -300 -88t-95 -258zM180 829q0 275 179 441t483 170h637l-224 -1581h-251l190 1343h-131l-191 -1343h-254l72 508q-246 2 -378 125t-132 337z" />
    <glyph glyph-name="periodcentered" unicode="&#xb7;" horiz-adv-x="542" 
d="M571 738q-1 -83 -59 -142t-145 -59t-139 47t-52 130t60 142t145 59q86 0 138 -47t52 -130z" />
    <glyph glyph-name="cedilla" unicode="&#xb8;" horiz-adv-x="557" 
d="M184 -496q-59 0 -114 20t-82 42l-27 18l86 135q74 -49 127 -49q102 0 102 78q0 66 -94 66q-37 0 -78 -9l-20 33l102 211h174l-63 -121q88 0 135 -48t47 -126q0 -114 -83 -182t-212 -68z" />
    <glyph glyph-name="uni00B9" unicode="&#xb9;" horiz-adv-x="587" 
d="M332 715l78 549l-148 -56l-33 217l365 129h94l-119 -839h-237z" />
    <glyph glyph-name="ordmasculine" unicode="&#xba;" horiz-adv-x="788" 
d="M477 1358q0 -111 104 -111q53 0 90 42q36 41 36 101q0 121 -99 119q-59 0 -95 -42t-36 -109zM922 1425q0 -164 -102 -265t-250 -101q-150 0 -230 74t-80 198q0 164 102 265q102 102 252 102t229 -74t79 -199z" />
    <glyph glyph-name="guillemotright" unicode="&#xbb;" horiz-adv-x="1038" 
d="M485 141l289 369l-186 358h289l178 -358l-281 -369h-289zM96 141l289 369l-186 358h286l179 -358l-281 -369h-287z" />
    <glyph glyph-name="onequarter" unicode="&#xbc;" horiz-adv-x="1630" 
d="M1264 0l22 160h-412l21 145l291 561l190 -69l-211 -432h150l33 233h221l-33 -233h78l-29 -205h-78l-22 -160h-221zM338 602l78 549l-148 -55l-32 217l364 127h94l-119 -838h-237zM569 -14l-211 104l799 1368l211 -117z" />
    <glyph glyph-name="onehalf" unicode="&#xbd;" horiz-adv-x="1712" 
d="M1401 518q0 45 -31 73q-57 52 -207 3l-53 184q4 2 33 18q110 62 250 62q139 0 221 -68t82 -196q0 -130 -85 -226t-151 -147h201l-31 -221h-616l20 139q2 3 24 15q168 96 256 194q87 98 87 170zM338 602l78 549l-148 -55l-32 217l364 127h94l-119 -838h-237zM569 -14
l-211 104l799 1368l211 -117z" />
    <glyph glyph-name="threequarters" unicode="&#xbe;" horiz-adv-x="1685" 
d="M1602 365h77l-28 -205h-78l-23 -160h-223l23 160h-410l21 145l290 561l191 -69l-211 -432h147l33 233h223zM780 907q0 -147 -98 -230t-268 -83t-269 63l105 183q61 -39 151 -39q129 0 129 92q0 70 -92 70q-47 0 -92 -21l-33 129l211 162h-276l28 207h555l-22 -156
l-205 -180q82 -14 129 -66t47 -131zM1221 1458l211 -117l-797 -1355l-211 104z" />
    <glyph glyph-name="questiondown" unicode="&#xbf;" horiz-adv-x="948" 
d="M407 -127q128 0 246 66l84 -236q-201 -111 -392 -111t-300 90t-109 262q0 171 105 279q72 75 193 177q121 101 141 237l6 43h291l-13 -82q-14 -98 -59 -178t-97 -132q-53 -52 -105 -98q-121 -107 -119 -196q0 -121 128 -121zM580 1120q74 0 116 -46t43 -120
q0 -74 -60 -132t-135 -58t-117 44t-42 119t60 134q61 59 135 59z" />
    <glyph glyph-name="Agrave" unicode="&#xc0;" horiz-adv-x="1394" 
d="M936 532l-107 414l-223 -414h330zM1049 0l-62 256h-512l-133 -256h-360l813 1440h213l401 -1440h-360zM1239 1743l-94 -199l-518 133l125 293z" />
    <glyph glyph-name="Aacute" unicode="&#xc1;" horiz-adv-x="1394" 
d="M936 532l-107 414l-223 -414h330zM1049 0l-62 256h-512l-133 -256h-360l813 1440h213l401 -1440h-360zM1257 1688l-557 -152l-61 197l532 239z" />
    <glyph glyph-name="Acircumflex" unicode="&#xc2;" horiz-adv-x="1394" 
d="M936 532l-107 414l-223 -414h330zM1049 0l-62 256h-512l-133 -256h-360l813 1440h213l401 -1440h-360zM932 1692l-135 -140h-303l352 371h246l235 -371h-301z" />
    <glyph glyph-name="Atilde" unicode="&#xc3;" horiz-adv-x="1394" 
d="M936 532l-107 414l-223 -414h330zM1049 0l-62 256h-512l-133 -256h-360l813 1440h213l401 -1440h-360zM794 1649q-42 0 -73 -21.5t-41 -42.5l-10 -20l-162 151l28 36q123 150 289 151q68 0 146 -50.5t119 -50.5t71.5 28t44 52.5t13.5 28.5l161 -148q-2 -16 -36.5 -63
t-114.5 -98.5t-161 -51.5t-156.5 49.5t-117.5 49.5z" />
    <glyph glyph-name="Adieresis" unicode="&#xc4;" horiz-adv-x="1394" 
d="M936 532l-107 414l-223 -414h330zM1049 0l-62 256h-512l-133 -256h-360l813 1440h213l401 -1440h-360zM1169 1569q-76 0 -118.5 44t-42.5 121.5t60 134t136 56.5t119 -44t43 -122t-60.5 -134t-136.5 -56zM684 1569q-76 0 -119 44t-43 121.5t60.5 134t136.5 56.5t119 -44
t43 -122t-60.5 -134t-136.5 -56z" />
    <glyph glyph-name="Aring" unicode="&#xc5;" horiz-adv-x="1394" 
d="M936 532l-107 414l-223 -414h330zM1049 0l-62 256h-512l-133 -256h-360l813 1440h213l401 -1440h-360zM866 1752q0 -83 71 -83q34 0 59.5 31t25.5 74q-1 73 -64 73q-39 0 -65.5 -27.5t-26.5 -67.5zM919.5 1503q-114.5 0 -177 61.5t-62.5 172t87 192.5t201.5 82t177 -61.5
t62.5 -172t-87 -192.5t-201.5 -82z" />
    <glyph glyph-name="AE" unicode="&#xc6;" horiz-adv-x="1859" 
d="M674 563h237l76 541zM-35 0l899 1440h1098l-43 -303h-582l-39 -271l502 4l-43 -301l-500 -6l-36 -262h581l-43 -303l-928 2l39 274h-383l-163 -274h-359z" />
    <glyph glyph-name="Ccedilla" unicode="&#xc7;" horiz-adv-x="1300" 
d="M1028 -236q0 -113 -83 -185.5t-214 -72.5q-59 0 -113.5 19.5t-80.5 40.5l-25 20l84 135q122 -77 186 -37q30 18 38.5 45t-4.5 48.5t-53 33t-110 -3.5l-20 33l76 154q-250 41 -396.5 214t-146.5 415q0 356 216 596.5t581 240.5q295 0 485 -145l-186 -273
q-129 100 -313.5 100.5t-300.5 -134t-116 -353.5q0 -166 90.5 -262t261 -96t285.5 100l136 -252q-160 -150 -410 -161l-29 -54q76 -6 119 -51t43 -115z" />
    <glyph glyph-name="Egrave" unicode="&#xc8;" horiz-adv-x="1226" 
d="M1278 1137h-629l-37 -260h555l-43 -304h-555l-37 -272h637l-43 -301h-979l203 1440h971zM1182 1743l-95 -199l-518 133l125 293z" />
    <glyph glyph-name="Eacute" unicode="&#xc9;" horiz-adv-x="1226" 
d="M1278 1137h-629l-37 -260h555l-43 -304h-555l-37 -272h637l-43 -301h-979l203 1440h971zM1200 1688l-557 -152l-61 197l532 239z" />
    <glyph glyph-name="Ecircumflex" unicode="&#xca;" horiz-adv-x="1226" 
d="M1278 1137h-629l-37 -260h555l-43 -304h-555l-37 -272h637l-43 -301h-979l203 1440h971zM874 1692l-135 -140h-303l352 371h246l236 -371h-301z" />
    <glyph glyph-name="Edieresis" unicode="&#xcb;" horiz-adv-x="1226" 
d="M1278 1137h-629l-37 -260h555l-43 -304h-555l-37 -272h637l-43 -301h-979l203 1440h971zM1112 1569q-76 0 -119 44t-43 121.5t60.5 134t136.5 56.5t119 -44t43 -122t-60.5 -134t-136.5 -56zM626 1569q-76 0 -118.5 44t-42.5 121.5t60.5 134t136.5 56.5t118.5 -44
t42.5 -122t-60.5 -134t-136.5 -56z" />
    <glyph glyph-name="Igrave" unicode="&#xcc;" horiz-adv-x="638" 
d="M147 0l203 1440h344l-202 -1440h-345zM766 1544l-518 133l125 293l487 -227z" />
    <glyph glyph-name="Iacute" unicode="&#xcd;" horiz-adv-x="638" 
d="M147 0l203 1440h344l-202 -1440h-345zM322 1536l-62 197l533 239l86 -284z" />
    <glyph glyph-name="Icircumflex" unicode="&#xce;" horiz-adv-x="638" 
d="M147 0l203 1440h344l-202 -1440h-345zM553 1692l-135 -140h-303l352 371h246l235 -371h-301z" />
    <glyph glyph-name="Idieresis" unicode="&#xcf;" horiz-adv-x="638" 
d="M147 0l203 1440h344l-202 -1440h-345zM790 1569q-76 0 -118.5 44t-42.5 121.5t60.5 134t136 56.5t118.5 -44t43 -122t-60.5 -134t-136.5 -56zM305 1569q-76 0 -119 44t-43 121.5t60.5 134t136.5 56.5t119 -44t43 -122t-60.5 -134t-136.5 -56z" />
    <glyph glyph-name="Eth" unicode="&#xd0;" horiz-adv-x="1511" 
d="M717 303q233 0 353 133t120 359q0 158 -91 250t-265 92h-183l-41 -301h293l-31 -220h-294l-43 -313h182zM881 1440q311 0 487 -166t176 -443q0 -373 -234.5 -602t-631.5 -229h-531l86 616h-131l31 220h131l86 604h531z" />
    <glyph glyph-name="Ntilde" unicode="&#xd1;" horiz-adv-x="1564" 
d="M1280 1440h338l-205 -1458h-188l-621 862l-119 -844h-335l204 1454h191l616 -858zM865 1649q-42 0 -72.5 -21.5t-40.5 -42.5l-11 -20l-161 151q54 90 164 150q69 38 145 37.5t153.5 -51t118.5 -50.5t72 28t44 52.5t13 28.5l162 -148q-2 -16 -37 -63t-114.5 -98.5
t-161 -51.5t-157 49.5t-117.5 49.5z" />
    <glyph glyph-name="Ograve" unicode="&#xd2;" horiz-adv-x="1603" 
d="M881 297q164 0 277.5 129t113.5 369q0 156 -92.5 252t-256 96t-277.5 -129t-114 -369q0 -156 92.5 -252t256.5 -96zM865.5 -18q-330.5 0 -515 189t-184.5 452q0 369 219 602t550.5 233t517 -186.5t185.5 -452.5q0 -371 -221 -604t-551.5 -233zM1251 1544l-518 133
l125 293l488 -227z" />
    <glyph glyph-name="Oacute" unicode="&#xd3;" horiz-adv-x="1603" 
d="M881 297q164 0 277.5 129t113.5 369q0 156 -92.5 252t-256 96t-277.5 -129t-114 -369q0 -156 92.5 -252t256.5 -96zM865.5 -18q-330.5 0 -515 189t-184.5 452q0 369 219 602t550.5 233t517 -186.5t185.5 -452.5q0 -371 -221 -604t-551.5 -233zM807 1536l-62 197l533 239
l86 -284z" />
    <glyph glyph-name="Ocircumflex" unicode="&#xd4;" horiz-adv-x="1603" 
d="M881 297q164 0 277.5 129t113.5 369q0 156 -92.5 252t-256 96t-277.5 -129t-114 -369q0 -156 92.5 -252t256.5 -96zM935.5 1458q331.5 0 517 -186.5t185.5 -452.5q0 -371 -221 -604t-551.5 -233t-515 189t-184.5 452q0 369 219 602t550.5 233zM1038 1692l-135 -140h-303
l352 371h246l236 -371h-301z" />
    <glyph glyph-name="Otilde" unicode="&#xd5;" horiz-adv-x="1603" 
d="M881 297q164 0 277.5 129t113.5 369q0 156 -92.5 252t-256 96t-277.5 -129t-114 -369q0 -156 92.5 -252t256.5 -96zM935.5 1458q331.5 0 517 -186.5t185.5 -452.5q0 -371 -221 -604t-551.5 -233t-515 189t-184.5 452q0 369 219 602t550.5 233zM900 1649
q-42 0 -72.5 -21.5t-41.5 -42.5l-10 -20l-162 151l28 36q119 150 290 151q68 0 145.5 -50.5t118.5 -50.5t71.5 28t44 52.5t13.5 28.5l162 -148q-2 -16 -37 -63t-115 -98.5t-161 -51.5t-156.5 49.5t-117.5 49.5z" />
    <glyph glyph-name="Odieresis" unicode="&#xd6;" horiz-adv-x="1603" 
d="M881 297q164 0 277.5 129t113.5 369q0 156 -92.5 252t-256 96t-277.5 -129t-114 -369q0 -156 92.5 -252t256.5 -96zM865.5 -18q-330.5 0 -515 189t-184.5 452q0 369 219 602t550.5 233t517 -186.5t185.5 -452.5q0 -371 -221 -604t-551.5 -233zM1276 1569q-76 0 -119 44
t-43 121.5t60.5 134t136.5 56.5t119 -44t43 -122t-60.5 -134t-136.5 -56zM790 1569q-76 0 -118.5 44t-42.5 121.5t60.5 134t136 56.5t118.5 -44t43 -122t-60.5 -134t-136.5 -56z" />
    <glyph glyph-name="multiply" unicode="&#xd7;" horiz-adv-x="1052" 
d="M1108 885l-324 -289l230 -287l-201 -176l-229 285l-312 -279l-153 180l315 283l-231 289l205 178l229 -287l317 285z" />
    <glyph glyph-name="Oslash" unicode="&#xd8;" horiz-adv-x="1603" 
d="M879 297q166 0 279.5 129t113.5 369q0 84 -27 145l-526 -610q66 -33 160 -33zM532 645q0 -80 27 -149l531 614q-72 33 -162 33q-168 0 -282 -129t-114 -369zM1638 819q0 -371 -221 -604t-565 -233q-205 0 -360 84l-146 -168l-176 145l143 168q-147 176 -147 412
q0 369 219 602t563 233q203 0 369 -86l141 164l174 -147l-139 -160q145 -174 145 -410z" />
    <glyph glyph-name="Ugrave" unicode="&#xd9;" horiz-adv-x="1509" 
d="M752 -18q-287 0 -431.5 168.5t-101.5 482.5l113 807h346l-117 -834q-18 -133 37 -225t195.5 -92t224.5 92t102 225l117 834h342l-113 -807q-43 -315 -235 -483t-479 -168zM1198 1544l-518 133l125 293l487 -227z" />
    <glyph glyph-name="Uacute" unicode="&#xda;" horiz-adv-x="1509" 
d="M752 -18q-287 0 -431.5 168.5t-101.5 482.5l113 807h346l-117 -834q-18 -133 37 -225t195.5 -92t224.5 92t102 225l117 834h342l-113 -807q-43 -315 -235 -483t-479 -168zM754 1536l-62 197l533 239l86 -284z" />
    <glyph glyph-name="Ucircumflex" unicode="&#xdb;" horiz-adv-x="1509" 
d="M751.5 -18q-286.5 0 -431 168.5t-101.5 482.5l113 807h346l-117 -834q-18 -133 37 -225t195.5 -92t224.5 92t102 225l117 834h342l-113 -807q-43 -315 -235.5 -483t-479 -168zM985 1692l-135 -140h-303l352 371h246l235 -371h-301z" />
    <glyph glyph-name="Udieresis" unicode="&#xdc;" horiz-adv-x="1509" 
d="M752 -18q-287 0 -431.5 168.5t-101.5 482.5l113 807h346l-117 -834q-18 -133 37 -225t195.5 -92t224.5 92t102 225l117 834h342l-113 -807q-43 -315 -235 -483t-479 -168zM1222 1569q-76 0 -118.5 44t-42.5 121.5t60.5 134t136.5 56.5t118.5 -44t42.5 -122t-60.5 -134
t-136.5 -56zM737 1569q-76 0 -119 44t-43 121.5t60.5 134t136.5 56.5t119 -44t43 -122t-60.5 -134t-136.5 -56z" />
    <glyph glyph-name="Yacute" unicode="&#xdd;" horiz-adv-x="1349" 
d="M1550 1440l-622 -871l-80 -569h-346l80 563l-373 877h409l189 -525l348 525h395zM1249 1688l-557 -152l-61 197l532 239z" />
    <glyph glyph-name="Thorn" unicode="&#xde;" horiz-adv-x="1318" 
d="M715 506q131 0 204 73t73 157t-55 140q-54 56 -163 56h-135l-59 -426h135zM842 1257q248 0 384 -129t136 -337q0 -263 -183 -437t-487 -174h-160l-24 -180h-361l203 1440h361l-27 -183h158z" />
    <glyph glyph-name="germandbls" unicode="&#xdf;" horiz-adv-x="1138" 
d="M711 -18q-139 0 -230 38l99 275q42 -21 114 -21t118 46t46 129q0 127 -147 126h-107l35 246h16q93 -1 137 59t44 124t-32 101q-32 36 -87 36t-99 -42t-51 -106l-139 -993h-324l144 1016q27 188 171 315q143 127 333 127t291 -105t102 -266q-1 -202 -144 -327
q177 -90 177 -294t-132 -344t-335 -140z" />
    <glyph glyph-name="agrave" unicode="&#xe0;" horiz-adv-x="1155" 
d="M618 274q82 0 132.5 63.5t50.5 150t-42 133.5t-121 47t-132 -60.5t-53 -147.5t41.5 -136.5t123.5 -49.5zM509 -18q-169 0 -275.5 114.5t-106.5 309.5q0 254 144.5 404.5t351.5 150.5q143 0 239 -82l21 63h301l-133 -942h-287l2 74q-88 -92 -257 -92zM1051 1229l-133 -180
l-431 208l183 267z" />
    <glyph glyph-name="aacute" unicode="&#xe1;" horiz-adv-x="1155" 
d="M618 274q82 0 132.5 63.5t50.5 150t-42 133.5t-121 47t-132 -60.5t-53 -147.5t41.5 -136.5t123.5 -49.5zM509 -18q-169 0 -275.5 114.5t-106.5 309.5q0 254 144.5 404.5t351.5 150.5q143 0 239 -82l21 63h301l-133 -942h-287l2 74q-88 -92 -257 -92zM1065 1257l-487 -208
l-93 180l457 289z" />
    <glyph glyph-name="acircumflex" unicode="&#xe2;" horiz-adv-x="1155" 
d="M618 274q82 0 132.5 63.5t50.5 150t-42 133.5t-121 47t-132 -60.5t-53 -147.5t41.5 -136.5t123.5 -49.5zM509 -18q-169 0 -275.5 114.5t-106.5 309.5q0 254 144.5 404.5t351.5 150.5q143 0 239 -82l21 63h301l-133 -942h-287l2 74q-88 -92 -257 -92zM766 1255l-141 -168
h-263l318 383h246l200 -383h-260z" />
    <glyph glyph-name="atilde" unicode="&#xe3;" horiz-adv-x="1155" 
d="M618 274q82 0 132.5 63.5t50.5 150t-42 133.5t-121 47t-132 -60.5t-53 -147.5t41.5 -136.5t123.5 -49.5zM509 -18q-169 0 -275.5 114.5t-106.5 309.5q0 254 144.5 404.5t351.5 150.5q143 0 239 -82l21 63h301l-133 -942h-287l2 74q-88 -92 -257 -92zM639 1190
q-39 0 -69.5 -19.5t-41.5 -40.5l-10 -18l-162 152l13 18q125 178 280 178q76 0 150.5 -47t111.5 -47t68 23.5t43 46.5l12 22l162 -147q-6 -32 -63 -93q-111 -120 -240 -120q-74 0 -144.5 46t-109.5 46z" />
    <glyph glyph-name="adieresis" unicode="&#xe4;" horiz-adv-x="1155" 
d="M618 274q82 0 132.5 63.5t50.5 150t-42 133.5t-121 47t-132 -60.5t-53 -147.5t41.5 -136.5t123.5 -49.5zM509 -18q-169 0 -275.5 114.5t-106.5 309.5q0 254 144.5 404.5t351.5 150.5q143 0 239 -82l21 63h301l-133 -942h-287l2 74q-88 -92 -257 -92zM981 1110
q-76 0 -118 44t-42 122t60.5 134t136.5 56t118 -44t42 -121.5t-60.5 -134t-136.5 -56.5zM538 1116q-76 0 -118.5 44t-42.5 122t61.5 134.5t136.5 56.5t117.5 -44.5t42.5 -122t-60.5 -134t-136.5 -56.5z" />
    <glyph glyph-name="aring" unicode="&#xe5;" horiz-adv-x="1155" 
d="M618 274q82 0 132.5 63.5t50.5 150t-42 133.5t-121 47t-132 -60.5t-53 -147.5t41.5 -136.5t123.5 -49.5zM509 -18q-169 0 -275.5 114.5t-106.5 309.5q0 254 144.5 404.5t351.5 150.5q143 0 239 -82l21 63h301l-133 -942h-287l2 74q-88 -92 -257 -92zM705 1296
q0 -82 68 -82q34 0 59.5 31t25.5 74q0 74 -63 74q-39 0 -64.5 -29t-25.5 -68zM756.5 1049q-113.5 0 -177 61t-63.5 172t88 192.5t201.5 81.5t176 -61t62.5 -172t-87 -192.5t-200.5 -81.5z" />
    <glyph glyph-name="ae" unicode="&#xe6;" horiz-adv-x="1830" 
d="M618 274q82 0 132.5 63.5t50.5 150t-42 133.5t-121 47t-132 -60.5t-53 -147.5t41.5 -136.5t123.5 -49.5zM1399 709q-129 0 -178 -129h323q-2 57 -40.5 93t-104.5 36zM1841 555q0 -101 -16 -149l-6 -21h-611q39 -133 195 -133q81 0 143 36q16 9 19.5 11.5t33.5 24.5
l134 -211q-143 -131 -383 -131q-190 0 -316 102l-28 -84h-228l-6 82q-90 -100 -261 -100t-277.5 116.5t-106.5 311.5q0 252 144.5 401.5t351.5 149.5q152 0 245 -89l21 70h227l2 -72q133 90 318.5 90.5t295 -111.5t109.5 -294z" />
    <glyph glyph-name="ccedilla" unicode="&#xe7;" horiz-adv-x="894" 
d="M770 -246q0 -115 -83 -182.5t-212 -67.5q-59 0 -114.5 20.5t-81.5 41.5l-27 18l86 135q74 -49 127 -49q102 0 102 78q0 66 -94 66q-37 0 -78 -9l-20 33l76 156q-152 35 -240 148.5t-88 269.5q0 242 147.5 395.5t393.5 153.5q201 0 307 -99l-162 -256q-61 61 -157 62
q-98 0 -152 -60q-54 -58 -54 -150q0 -184 164 -184q80 0 152 62l153 -221q-119 -119 -299 -131l-28 -56q88 0 135 -48t47 -126z" />
    <glyph glyph-name="egrave" unicode="&#xe8;" horiz-adv-x="1062" 
d="M631 709q-129 0 -178 -129h323q-2 57 -40.5 93t-104.5 36zM1073 555q0 -77 -16 -149l-6 -21h-611q39 -133 195 -133q81 0 143 36q16 9 19 11q4 2 34 25l134 -211q-143 -131 -368.5 -131t-349.5 122.5t-124 309.5q0 250 154.5 398.5t365.5 148.5t320.5 -112t109.5 -294z
M991 1229l-133 -180l-430 208l182 267z" />
    <glyph glyph-name="eacute" unicode="&#xe9;" horiz-adv-x="1062" 
d="M631 709q-129 0 -178 -129h323q-2 57 -40.5 93t-104.5 36zM1073 555q0 -77 -16 -149l-6 -21h-611q39 -133 195 -133q81 0 143 36q16 9 19 11q4 2 34 25l134 -211q-143 -131 -368.5 -131t-349.5 122.5t-124 309.5q0 250 154.5 398.5t365.5 148.5t320.5 -112t109.5 -294z
M1006 1257l-488 -208l-92 180l457 289z" />
    <glyph glyph-name="ecircumflex" unicode="&#xea;" horiz-adv-x="1062" 
d="M631 709q-129 0 -178 -129h323q-2 57 -40.5 93t-104.5 36zM1073 555q0 -77 -16 -149l-6 -21h-611q39 -133 195 -133q81 0 143 36q16 9 19 11q4 2 34 25l134 -211q-143 -131 -368.5 -131t-349.5 122.5t-124 309.5q0 250 154.5 398.5t365.5 148.5t320.5 -112t109.5 -294z
M707 1255l-142 -168h-262l318 383h245l201 -383h-260z" />
    <glyph glyph-name="edieresis" unicode="&#xeb;" horiz-adv-x="1062" 
d="M631 709q-129 0 -178 -129h323q-2 57 -40.5 93t-104.5 36zM643 961q211 0 320.5 -112t109.5 -294q0 -77 -16 -149l-6 -21h-611q39 -133 195 -133q81 0 143 36q16 9 19.5 11.5t33.5 24.5l134 -211q-143 -131 -368.5 -131t-349.5 122.5t-124 309.5q0 250 154.5 398.5
t365.5 148.5zM921 1110q-76 0 -117.5 44t-41.5 122t60.5 134t136.5 56t117.5 -44t41.5 -121.5t-60.5 -134t-136.5 -56.5zM479 1116q-76 0 -119 44t-43 122t61.5 134.5t136.5 56.5t118 -44.5t43 -122t-60.5 -134t-136.5 -56.5z" />
    <glyph glyph-name="igrave" unicode="&#xec;" horiz-adv-x="534" 
d="M104 0l134 942h325l-133 -942h-326zM586 1049l-430 208l182 267l381 -295z" />
    <glyph glyph-name="iacute" unicode="&#xed;" horiz-adv-x="534" 
d="M104 0l134 942h325l-133 -942h-326zM246 1049l-92 180l456 289l123 -261z" />
    <glyph glyph-name="icircumflex" unicode="&#xee;" horiz-adv-x="534" 
d="M104 0l134 942h325l-133 -942h-326zM434 1255l-141 -168h-262l317 383h246l201 -383h-260z" />
    <glyph glyph-name="idieresis" unicode="&#xef;" horiz-adv-x="534" 
d="M104 0l134 942h325l-133 -942h-326zM649 1110q-76 0 -118 44t-42 122t60.5 134t136.5 56t118 -44t42 -121.5t-60.5 -134t-136.5 -56.5zM207 1116q-76 0 -119 44t-43 122t61.5 134.5t136.5 56.5t117.5 -44.5t42.5 -122t-60 -134t-136 -56.5z" />
    <glyph glyph-name="eth" unicode="&#xf0;" horiz-adv-x="1155" 
d="M628 266q93 0 153 58q61 58 61 151q1 199 -195 199q-96 0 -155 -62q-60 -62 -60 -152q0 -91 51 -143q52 -51 145 -51zM1153 657q0 -309 -147 -492t-420 -183q-205 0 -333 122t-128 331q0 211 145 355t357 144q102 0 184 -41q-49 100 -158 184l-116 -110l-115 112l96 90
q-51 35 -117 68l207 225q66 -37 131 -86l127 119l117 -113l-117 -108q287 -268 287 -617z" />
    <glyph glyph-name="ntilde" unicode="&#xf1;" horiz-adv-x="1155" 
d="M783.5 961q195.5 0 287.5 -119t64 -322l-74 -520h-324l66 481q27 188 -125 189q-139 0 -178 -158l-72 -512h-324l134 942h231l6 -129q113 148 308.5 148zM637 1190q-39 0 -69.5 -19.5t-41.5 -40.5l-10 -18l-162 152l15 18q65 110 179 158q48 20 111.5 20t138 -47
t111.5 -47t68 23.5t43 46.5l12 22l162 -147q-6 -32 -63 -93q-111 -120 -240 -120q-74 0 -144.5 46t-109.5 46z" />
    <glyph glyph-name="ograve" unicode="&#xf2;" horiz-adv-x="1112" 
d="M611 274q83 0 134.5 66t51.5 149t-42 131t-123 48t-133.5 -65.5t-52.5 -149t41 -131.5t124 -48zM587 -18q-222 0 -343 121.5t-121 308.5q0 252 155.5 400.5t378 148.5t343 -122t120.5 -309q0 -252 -155.5 -400t-377.5 -148zM874 1049l-430 208l183 267l381 -295z" />
    <glyph glyph-name="oacute" unicode="&#xf3;" horiz-adv-x="1112" 
d="M611 274q83 0 134.5 66t51.5 149t-42 131t-123 48t-133.5 -65.5t-52.5 -149t41 -131.5t124 -48zM587 -18q-222 0 -343 121.5t-121 308.5q0 252 155.5 400.5t378 148.5t343 -122t120.5 -309q0 -252 -155.5 -400t-377.5 -148zM535 1049l-93 180l457 289l123 -261z" />
    <glyph glyph-name="ocircumflex" unicode="&#xf4;" horiz-adv-x="1112" 
d="M611 274q83 0 134.5 66t51.5 149t-42 131t-123 48t-133.5 -65.5t-52.5 -149t41 -131.5t124 -48zM657 961q222 0 342.5 -122t120.5 -309q0 -252 -155.5 -400t-377.5 -148t-343 121.5t-121 308.5q0 252 156 400.5t378 148.5zM723 1255l-141 -168h-263l318 383h246l200 -383
h-260z" />
    <glyph glyph-name="otilde" unicode="&#xf5;" horiz-adv-x="1112" 
d="M611 274q83 0 134.5 66t51.5 149t-42 131t-123 48t-133.5 -65.5t-52.5 -149t41 -131.5t124 -48zM587 -18q-222 0 -343 121.5t-121 308.5q0 252 155.5 400.5t378 148.5t343 -122t120.5 -309q0 -252 -155.5 -400t-377.5 -148zM844.5 1098q-68.5 0 -139 46t-109.5 46
t-69.5 -19.5t-41.5 -40.5l-10 -18l-162 152l15 18q65 110 179 158q48 20 111.5 20t138 -47t111.5 -47t68 23.5t43 46.5l12 22l162 -147q-6 -32 -62.5 -93t-117 -90.5t-129 -29.5z" />
    <glyph glyph-name="odieresis" unicode="&#xf6;" horiz-adv-x="1112" 
d="M611 274q83 0 134.5 66t51.5 149t-42 131t-123 48t-133.5 -65.5t-52.5 -149t41 -131.5t124 -48zM587 -18q-222 0 -343 121.5t-121 308.5q0 252 155.5 400.5t378 148.5t343 -122t120.5 -309q0 -252 -155.5 -400t-377.5 -148zM938 1110q-76 0 -118 44t-42 122t60.5 134
t136.5 56t118 -44t42 -121.5t-60.5 -134t-136.5 -56.5zM495 1116q-76 0 -118.5 44t-42.5 122t61.5 134.5t136.5 56.5t117.5 -44.5t42.5 -122t-60.5 -134t-136.5 -56.5z" />
    <glyph glyph-name="divide" unicode="&#xf7;" horiz-adv-x="1081" 
d="M590 352q142 0 143 -142q0 -70 -50 -119q-49 -50 -119 -50q-140 -1 -140 141q0 70 48 120t118 50zM145 471l37 254h942l-37 -254h-942zM700 1128q142 0 142 -139q0 -70 -49 -120t-119 -50q-140 1 -140 141q0 70 48 119t118 49z" />
    <glyph glyph-name="oslash" unicode="&#xf8;" horiz-adv-x="1112" 
d="M609 274q83 0 134.5 66t51.5 149t-42 131t-123 48t-133.5 -65.5t-52.5 -149t41 -131.5t124 -48zM1118 530q0 -252 -155.5 -400t-387.5 -148q-106 0 -186 30l-98 -118l-168 131l90 110q-92 111 -92 277q0 252 155.5 400.5t382.5 148.5q102 0 185 -29l90 115l166 -134
l-78 -100q96 -115 96 -283z" />
    <glyph glyph-name="ugrave" unicode="&#xf9;" horiz-adv-x="1140" 
d="M500.5 -18q-190.5 0 -283 116.5t-63.5 323.5l73 520h324l-66 -467q-12 -82 17.5 -132t98.5 -50t116 48t63 132l66 469h323l-133 -942h-250l9 111q-104 -129 -294.5 -129zM1018 1229l-133 -180l-430 208l182 267z" />
    <glyph glyph-name="uacute" unicode="&#xfa;" horiz-adv-x="1140" 
d="M500.5 -18q-190.5 0 -283 116.5t-63.5 323.5l73 520h324l-66 -467q-12 -82 17.5 -132t98.5 -50t116 48t63 132l66 469h323l-133 -942h-250l9 111q-104 -129 -294.5 -129zM1032 1257l-487 -208l-92 180l456 289z" />
    <glyph glyph-name="ucircumflex" unicode="&#xfb;" horiz-adv-x="1140" 
d="M500.5 -18q-190.5 0 -283 116.5t-63.5 323.5l73 520h324l-66 -467q-12 -82 17.5 -132t98.5 -50t116 48t63 132l66 469h323l-133 -942h-250l9 111q-104 -129 -294.5 -129zM733 1255l-141 -168h-262l317 383h246l201 -383h-260z" />
    <glyph glyph-name="udieresis" unicode="&#xfc;" horiz-adv-x="1140" 
d="M500.5 -18q-190.5 0 -283 116.5t-63.5 323.5l73 520h324l-66 -467q-12 -82 17.5 -132t98.5 -50t116 48t63 132l66 469h323l-133 -942h-250l9 111q-104 -129 -294.5 -129zM948 1110q-76 0 -118 44t-42 122t60.5 134t136.5 56t118 -44t42 -121.5t-60.5 -134t-136.5 -56.5z
M506 1116q-76 0 -119 44t-43 122t61.5 134.5t136.5 56.5t117.5 -44.5t42.5 -122t-60 -134t-136 -56.5z" />
    <glyph glyph-name="yacute" unicode="&#xfd;" horiz-adv-x="1071" 
d="M862 942h336l-698 -1341h-336l227 422l-246 919h361l106 -555zM1024 1257l-487 -208l-93 180l457 289z" />
    <glyph glyph-name="thorn" unicode="&#xfe;" horiz-adv-x="1155" 
d="M492 453q0 -85 42 -132t120 -47q79 0 131 64q53 64 53 150t-41 133t-119 47t-132 -65t-54 -150zM1161 508q0 -211 -139 -369t-358 -157q-147 0 -224 92l-67 -473h-322l260 1861h314l-82 -588q98 86 256 86t260 -120q102 -121 102 -332z" />
    <glyph glyph-name="ydieresis" unicode="&#xff;" horiz-adv-x="1071" 
d="M862 942h336l-698 -1341h-336l227 422l-246 919h361l106 -555zM940 1110q-76 0 -118 44t-42 122t60.5 134t136.5 56t118 -44t42 -121.5t-60.5 -134t-136.5 -56.5zM498 1116q-76 0 -119 44t-43 122t61.5 134.5t136.5 56.5t117.5 -44.5t42.5 -122t-60 -134t-136 -56.5z" />
    <glyph glyph-name="Amacron" unicode="&#x100;" horiz-adv-x="1394" 
d="M936 532l-107 414l-223 -414h330zM1049 0l-62 256h-512l-133 -256h-360l813 1440h213l401 -1440h-360zM1321 1835l-35 -248h-729l35 248h729z" />
    <glyph glyph-name="amacron" unicode="&#x101;" horiz-adv-x="1155" 
d="M618 274q82 0 132.5 63.5t50.5 150t-42 133.5t-121 47t-132 -60.5t-53 -147.5t41.5 -136.5t123.5 -49.5zM509 -18q-169 0 -275.5 114.5t-106.5 309.5q0 254 144.5 404.5t351.5 150.5q143 0 239 -82l21 63h301l-133 -942h-287l2 74q-88 -92 -257 -92zM1110 1364l-35 -248
h-639l35 248h639z" />
    <glyph glyph-name="Abreve" unicode="&#x102;" horiz-adv-x="1394" 
d="M936 532l-107 414l-223 -414h330zM1049 0l-62 256h-512l-133 -256h-360l813 1440h213l401 -1440h-360zM916 1563q-161 0 -248.5 94t-65.5 252h246q-8 -59 18.5 -95t80.5 -36t92 35.5t46 95.5h246q-23 -158 -138.5 -252t-276.5 -94z" />
    <glyph glyph-name="abreve" unicode="&#x103;" horiz-adv-x="1155" 
d="M618 274q82 0 132.5 63.5t50.5 150t-42 133.5t-121 47t-132 -60.5t-53 -147.5t41.5 -136.5t123.5 -49.5zM509 -18q-169 0 -275.5 114.5t-106.5 309.5q0 254 144.5 404.5t351.5 150.5q143 0 239 -82l21 63h301l-133 -942h-287l2 74q-88 -92 -257 -92zM751 1092
q-157 0 -241 97t-61 259h245q-10 -66 13.5 -105.5t72.5 -39.5t84 39.5t45 105.5h244q-23 -162 -134 -259t-268 -97z" />
    <glyph glyph-name="Aogonek" unicode="&#x104;" horiz-adv-x="1394" 
d="M936 532l-107 414l-223 -414h330zM969 -262q0 145 141 262h-61l-62 256h-512l-133 -256h-360l813 1440h213l401 -1440h-53q-6 -4 -16 -10q-47 -27 -91.5 -75.5t-44.5 -107.5q0 -82 82 -81q24 0 57 20l80 -168q-92 -66 -204.5 -65.5t-181 61.5t-68.5 164z" />
    <glyph glyph-name="aogonek" unicode="&#x105;" horiz-adv-x="1155" 
d="M618 274q82 0 132.5 63.5t50.5 150t-42 133.5t-121 47t-132 -60.5t-53 -147.5t41.5 -136.5t123.5 -49.5zM946 -274q23 0 55 20l56 -168q-98 -66 -201.5 -65.5t-162 53.5t-58.5 143q0 170 158 291h-29l2 74q-88 -92 -257 -92t-275.5 114.5t-106.5 309.5q0 254 144.5 404.5
t351.5 150.5q143 0 239 -82l21 63h301l-133 -942q-7 -4 -19 -10q-44 -21 -98.5 -77t-54.5 -122q-1 -65 67 -65z" />
    <glyph glyph-name="Cacute" unicode="&#x106;" horiz-adv-x="1300" 
d="M835.5 -18q-294.5 0 -482 182t-187.5 459q0 356 216 596.5t581 240.5q295 0 485 -145l-186 -273q-129 100 -313.5 100.5t-300.5 -134t-116 -353.5q0 -166 90.5 -262t261 -96t285.5 100l136 -252q-175 -163 -469.5 -163zM770 1536l-61 197l532 239l86 -284z" />
    <glyph glyph-name="cacute" unicode="&#x107;" horiz-adv-x="894" 
d="M575 -18q-207 0 -329.5 121.5t-122.5 308.5q0 242 147.5 395.5t393.5 153.5q201 0 307 -99l-162 -256q-61 61 -157 62q-98 0 -152 -60q-54 -58 -54 -150q0 -184 164 -184q80 0 152 62l153 -221q-133 -133 -340 -133zM504 1049l-92 180l456 289l123 -261z" />
    <glyph glyph-name="Cdotaccent" unicode="&#x10a;" horiz-adv-x="1300" 
d="M835.5 -18q-294.5 0 -482 182t-187.5 459q0 356 216 596.5t581 240.5q295 0 485 -145l-186 -273q-129 100 -313.5 100.5t-300.5 -134t-116 -353.5q0 -166 90.5 -262t261 -96t285.5 100l136 -252q-175 -163 -469.5 -163zM992 1544q-81 0 -127 47t-46 130t66.5 144.5
t146.5 61.5t126 -47t46 -130t-65.5 -144.5t-146.5 -61.5z" />
    <glyph glyph-name="cdotaccent" unicode="&#x10b;" horiz-adv-x="894" 
d="M575 -18q-207 0 -329.5 121.5t-122.5 308.5q0 242 147.5 395.5t393.5 153.5q201 0 307 -99l-162 -256q-61 61 -157 62q-98 0 -152 -60q-54 -58 -54 -150q0 -184 164 -184q80 0 152 62l153 -221q-133 -133 -340 -133zM689 1090q-89 0 -143 49t-54 135t61 146.5t150.5 60.5
t142.5 -49.5t53 -135t-60.5 -146t-149.5 -60.5z" />
    <glyph glyph-name="Ccaron" unicode="&#x10c;" horiz-adv-x="1300" 
d="M948 1143q-184 0 -300 -134.5t-116 -353.5q0 -166 90.5 -262t261 -96t285.5 100l136 -252q-174 -164 -451 -163q-313 0 -500.5 182t-187.5 459q0 356 216 596.5t581 240.5q295 0 485 -145l-186 -273q-130 101 -314 101zM1112 1552h-246l-235 371h301l94 -139l135 139h303
z" />
    <glyph glyph-name="ccaron" unicode="&#x10d;" horiz-adv-x="894" 
d="M651 668q-97 0 -151 -60q-54 -58 -54 -150q0 -184 164 -184q80 0 152 62l153 -221q-133 -133 -340 -133t-329.5 121.5t-122.5 308.5q0 242 147.5 395.5t393.5 153.5q201 0 307 -99l-162 -256q-62 62 -158 62zM788 1087h-245l-201 383h260l100 -167l142 167h262z" />
    <glyph glyph-name="Dcaron" unicode="&#x10e;" horiz-adv-x="1511" 
d="M717 303q233 0 353 133t120 359q0 158 -91 250t-265 92h-183l-116 -834h182zM881 1440q311 0 487 -166t176 -443q0 -373 -234.5 -602t-631.5 -229h-531l203 1440h531zM1069 1552h-246l-235 371h301l94 -139l135 139h303z" />
    <glyph glyph-name="dcaron" unicode="&#x10f;" horiz-adv-x="1327" 
d="M615 274q81 0 132.5 62.5t51.5 150t-42 134.5t-123 47t-132 -64.5t-51 -150t41.5 -132.5t122.5 -47zM1494 1462q87 0 132 -46t45 -124q0 -129 -90 -253t-229 -187l-70 100q139 92 150 168q-6 -2 -27 -2q-57 0 -90 37t-33 113.5t62.5 135t149.5 58.5zM511.5 -18
q-177.5 0 -282 118.5t-104.5 300.5q0 240 134 400t359 160q144 0 230 -80l82 581h323l-204 -1462h-256l2 84q-106 -102 -283.5 -102z" />
    <glyph glyph-name="Dcroat" unicode="&#x110;" horiz-adv-x="1511" 
d="M717 303q233 0 353 133t120 359q0 158 -91 250t-265 92h-183l-41 -301h293l-31 -220h-294l-43 -313h182zM881 1440q311 0 487 -166t176 -443q0 -373 -234.5 -602t-631.5 -229h-531l86 616h-131l31 220h131l86 604h531z" />
    <glyph glyph-name="dcroat" unicode="&#x111;" horiz-adv-x="1155" 
d="M615 274q81 0 132.5 62.5t51.5 150t-42 134.5t-123 47t-132 -64.5t-51 -150t41.5 -132.5t122.5 -47zM511.5 -18q-177.5 0 -282 118.5t-104.5 300.5q0 240 134 400t359 160q143 0 230 -80l29 206h-259l29 220h260l23 155h323l-22 -155h108l-26 -220h-113l-151 -1087h-256
l2 84q-106 -102 -283.5 -102z" />
    <glyph glyph-name="Emacron" unicode="&#x112;" horiz-adv-x="1226" 
d="M1278 1137h-629l-37 -260h555l-43 -304h-555l-37 -272h637l-43 -301h-979l203 1440h971zM1264 1835l-35 -248h-729l35 248h729z" />
    <glyph glyph-name="emacron" unicode="&#x113;" horiz-adv-x="1062" 
d="M631 709q-129 0 -178 -129h323q-2 57 -40.5 93t-104.5 36zM1073 555q0 -77 -16 -149l-6 -21h-611q39 -133 195 -133q81 0 143 36q16 9 19 11q4 2 34 25l134 -211q-143 -131 -368.5 -131t-349.5 122.5t-124 309.5q0 250 154.5 398.5t365.5 148.5t320.5 -112t109.5 -294z
M1051 1364l-35 -248h-639l35 248h639z" />
    <glyph glyph-name="Edotaccent" unicode="&#x116;" horiz-adv-x="1226" 
d="M1278 1137h-629l-37 -260h555l-43 -304h-555l-37 -272h637l-43 -301h-979l203 1440h971zM865 1544q-81 0 -127 47t-46 130t66.5 144.5t146.5 61.5t126 -47t46 -130t-65.5 -144.5t-146.5 -61.5z" />
    <glyph glyph-name="edotaccent" unicode="&#x117;" horiz-adv-x="1062" 
d="M631 709q-129 0 -178 -129h323q-2 57 -40.5 93t-104.5 36zM1073 555q0 -77 -16 -149l-6 -21h-611q39 -133 195 -133q81 0 143 36q16 9 19.5 11.5t33.5 24.5l134 -211q-143 -131 -368.5 -131t-349.5 122.5t-124 309.5q0 250 154.5 398.5t365.5 148.5t320.5 -112
t109.5 -294zM703 1090q-89 0 -143 49t-54 135t61.5 146.5t150.5 60.5t142 -49.5t53 -135t-60.5 -146t-149.5 -60.5z" />
    <glyph glyph-name="Eogonek" unicode="&#x118;" horiz-adv-x="1226" 
d="M975 -193q0 -82 82 -81q25 0 57 20l80 -168q-92 -66 -204.5 -65.5t-181.5 61.5t-69 164q0 145 142 262h-734l203 1440h971l-43 -303h-629l-37 -260h555l-43 -304h-555l-37 -272h637l-43 -301q-6 -4 -16 -10q-49 -29 -92 -76.5t-43 -106.5z" />
    <glyph glyph-name="eogonek" unicode="&#x119;" horiz-adv-x="1062" 
d="M631 709q-129 0 -178 -129h323q-2 57 -40.5 93t-104.5 36zM1073 555q0 -77 -16 -149l-6 -21h-611q39 -133 195 -133q81 0 143 36q16 9 19 11q4 2 34 25l134 -211q-33 -31 -88 -62q-84 -72 -84 -142.5t67 -70.5q23 0 55 21l56 -168q-98 -66 -201.5 -66t-162 53.5
t-58.5 141.5t43 162h-10q-211 0 -335 122.5t-124 309.5q0 250 154.5 398.5t365.5 148.5t320.5 -112t109.5 -294z" />
    <glyph glyph-name="Ecaron" unicode="&#x11a;" horiz-adv-x="1226" 
d="M147 0l203 1440h971l-43 -303h-629l-37 -260h555l-43 -304h-555l-37 -272h637l-43 -301h-979zM985 1552h-246l-235 371h301l94 -139l135 139h303z" />
    <glyph glyph-name="ecaron" unicode="&#x11b;" horiz-adv-x="1062" 
d="M631 709q-129 0 -178 -129h323q-2 57 -40.5 93t-104.5 36zM643 961q211 0 320.5 -112t109.5 -294q0 -77 -16 -149l-6 -21h-611q39 -133 195 -133q81 0 143 36q16 9 19.5 11.5t33.5 24.5l134 -211q-143 -131 -368.5 -131t-349.5 122.5t-124 309.5q0 250 154.5 398.5
t365.5 148.5zM803 1087h-246l-201 383h260l101 -167l141 167h262z" />
    <glyph glyph-name="Gbreve" unicode="&#x11e;" horiz-adv-x="1435" 
d="M842 -18q-305 0 -490.5 183t-185.5 462q0 356 216 594.5t585 238.5q307 0 506 -162l-183 -264q-139 109 -330.5 109t-309.5 -129t-118 -352q0 -168 90.5 -266.5t247.5 -98.5q115 0 201 39l57 409h318l-86 -610q-72 -57 -207 -105t-311 -48zM968 1563q-161 0 -249 94
t-66 252h246q-8 -59 18.5 -95t80.5 -36t92 35.5t47 95.5h245q-23 -158 -138 -252t-276 -94z" />
    <glyph glyph-name="gbreve" unicode="&#x11f;" horiz-adv-x="1148" 
d="M610 274q80 0 132.5 61.5t52.5 148.5t-43 135.5t-124 48.5t-132.5 -60.5t-51.5 -146.5t43 -136.5t123 -50.5zM460.5 -418q-260.5 0 -401.5 129l168 236q115 -88 271 -88q203 0 235 192q-80 -70 -234.5 -69.5t-265 113t-110.5 298.5q0 258 139 413t352 155q145 0 242 -87
l23 68h299l-125 -876q-33 -225 -182.5 -354.5t-410 -129.5zM732 1092q-157 0 -240.5 97t-61.5 259h246q-10 -66 13.5 -105.5t72.5 -39.5t84 39.5t45 105.5h244q-23 -162 -134.5 -259t-268.5 -97z" />
    <glyph glyph-name="Gdotaccent" unicode="&#x120;" horiz-adv-x="1435" 
d="M842 -18q-305 0 -490.5 183t-185.5 462q0 356 216 594.5t585 238.5q307 0 506 -162l-183 -264q-139 109 -330.5 109t-309.5 -129t-118 -352q0 -168 90.5 -266.5t247.5 -98.5q115 0 201 39l57 409h318l-86 -610q-72 -57 -207 -105t-311 -48zM974 1544q-81 0 -127 47
t-46 130t66.5 144.5t146.5 61.5t126 -47t46 -130t-65.5 -144.5t-146.5 -61.5z" />
    <glyph glyph-name="gdotaccent" unicode="&#x121;" horiz-adv-x="1148" 
d="M610 274q80 0 132.5 61.5t52.5 148.5t-43 135.5t-124 48.5t-132.5 -60.5t-51.5 -146.5t43 -136.5t123 -50.5zM460.5 -418q-260.5 0 -401.5 129l168 236q115 -88 271 -88q203 0 235 192q-80 -70 -234.5 -69.5t-265 113t-110.5 298.5q0 258 139 413t352 155q145 0 242 -87
l23 68h299l-125 -876q-33 -225 -182.5 -354.5t-410 -129.5zM744 1090q-89 0 -143 49t-54 135t61.5 146.5t150.5 60.5t142 -49.5t53 -135t-60.5 -146t-149.5 -60.5z" />
    <glyph glyph-name="Gcommaaccent" unicode="&#x122;" horiz-adv-x="1435" 
d="M821 -59q80 0 129 -50.5t51 -146t-60 -190.5t-167 -140l-80 92q94 63 94 129q-4 -2 -22 -2q-47 0 -85 39t-40 108t49 115t131 46zM842 -18q-305 0 -490.5 183t-185.5 462q0 356 216 594.5t585 238.5q307 0 506 -162l-183 -264q-139 109 -330.5 109t-309.5 -129t-118 -352
q0 -168 90.5 -266.5t247.5 -98.5q115 0 201 39l57 409h318l-86 -610q-72 -57 -207 -105t-311 -48z" />
    <glyph glyph-name="gcommaaccent" unicode="&#x123;" horiz-adv-x="1148" 
d="M610 274q80 0 132.5 61.5t52.5 148.5t-43 135.5t-124 48.5t-132.5 -60.5t-51.5 -146.5t43 -136.5t123 -50.5zM460.5 -418q-260.5 0 -401.5 129l168 236q115 -88 271 -88q203 0 235 192q-80 -70 -234.5 -69.5t-265 113t-110.5 298.5q0 258 139 413t352 155q145 0 242 -87
l23 68h299l-125 -876q-33 -225 -182.5 -354.5t-410 -129.5zM738 1040q-79 0 -121 43t-42 115q0 111 76 217.5t191 159.5l65 -94q-96 -72 -108 -140q8 2 38.5 2t61.5 -31.5t31 -99t-56.5 -120t-135.5 -52.5z" />
    <glyph glyph-name="Hbar" unicode="&#x126;" horiz-adv-x="1576" 
d="M1208 868l21 156h-594l-21 -156h594zM1784 1262l-35 -238h-176l-143 -1024h-345l80 565h-594l-79 -565h-345l144 1024h-146l35 238h146l24 178h344l-24 -178h594l24 178h344l-24 -178h176z" />
    <glyph glyph-name="hbar" unicode="&#x127;" horiz-adv-x="1159" 
d="M797 961q184 0 276 -119t64 -322l-74 -520h-324l66 481q27 188 -125 189q-139 0 -176 -152l-72 -518h-326l152 1087h-111l29 220h113l22 155h324l-23 -155h256l-26 -220h-260l-29 -198q99 72 244 72z" />
    <glyph glyph-name="Itilde" unicode="&#x128;" horiz-adv-x="638" 
d="M147 0l203 1440h344l-202 -1440h-345zM656.5 1550q-64.5 0 -125 49.5t-94.5 49.5t-58.5 -21.5t-32.5 -42.5l-8 -20l-129 151l12 19q59 107 152 149q43 20 93 19.5t112.5 -51t95.5 -50.5t57.5 28t34.5 51.5t10 29.5l131 -148q-2 -16 -29.5 -63t-92 -98.5t-129 -51.5z" />
    <glyph glyph-name="itilde" unicode="&#x129;" horiz-adv-x="534" 
d="M104 0l134 942h325l-133 -942h-326zM320 1190q-68 0 -103 -78l-137 152l10 18q107 178 240 178q63 0 126.5 -47t95.5 -47t57.5 23.5t35.5 46.5l10 22l138 -147q0 -26 -68 -114q-31 -40 -82 -69.5t-109 -29.5t-120 46t-94 46z" />
    <glyph glyph-name="Imacron" unicode="&#x12a;" horiz-adv-x="638" 
d="M147 0l203 1440h344l-202 -1440h-345zM178 1587l35 248h729l-35 -248h-729z" />
    <glyph glyph-name="imacron" unicode="&#x12b;" horiz-adv-x="534" 
d="M104 0l134 942h325l-133 -942h-326zM150 1116l28 248h545l-31 -248h-542z" />
    <glyph glyph-name="Iogonek" unicode="&#x12e;" horiz-adv-x="638" 
d="M385 -274q25 0 57 20l80 -168q-92 -66 -204.5 -65.5t-181 61.5t-68.5 164q0 145 141 262h-62l203 1440h344l-202 -1440h-37q-7 -4 -17 -10q-47 -27 -91 -75.5t-44 -107.5q0 -81 82 -81z" />
    <glyph glyph-name="iogonek" unicode="&#x12f;" horiz-adv-x="534" 
d="M14 -291q0 170 158 291h-68l134 942h325l-133 -942q-6 -4 -18 -10q-45 -22 -99.5 -78.5t-54.5 -121.5t68 -64q23 0 55 20l55 -168q-98 -66 -201.5 -65.5t-162 53.5t-58.5 143zM446 1481q89 0 142 -49.5t53 -135t-60.5 -146t-149.5 -60.5t-143.5 49t-54.5 135t62 146.5
t151 60.5z" />
    <glyph glyph-name="Idotaccent" unicode="&#x130;" horiz-adv-x="638" 
d="M147 0l203 1440h344l-202 -1440h-345zM544 1544q-81 0 -127 47t-46 130t66.5 144.5t146.5 61.5t126 -47t46 -130t-65.5 -144.5t-146.5 -61.5z" />
    <glyph glyph-name="dotlessi" unicode="&#x131;" horiz-adv-x="534" 
d="M104 0l134 942h325l-133 -942h-326z" />
    <glyph glyph-name="IJ" unicode="&#x132;" horiz-adv-x="1615" 
d="M987 -18q-199 0 -342 102l172 291q70 -55 178 -56q190 0 215 203l129 918h344l-131 -926q-39 -274 -176 -403t-389 -129zM147 0l203 1440h344l-202 -1440h-345z" />
    <glyph glyph-name="ij" unicode="&#x133;" horiz-adv-x="1081" 
d="M522 -418q-135 0 -229 51l127 261q41 -18 98 -19q121 0 141 168l127 899h322l-125 -893q-62 -467 -461 -467zM104 0l134 942h323l-133 -942h-324zM982 1090q-89 0 -142 49q-54 49 -54 135t62 146t150 60t142 -48q54 -49 54 -135t-61 -147q-62 -60 -151 -60zM437 1090
q-89 0 -143 49t-54 135t61 146t151 60t142 -48q53 -49 53 -135t-60 -147q-61 -60 -150 -60z" />
    <glyph glyph-name="Kcommaaccent" unicode="&#x136;" horiz-adv-x="1400" 
d="M834 -59q80 0 129 -50.5t51 -146t-60.5 -190.5t-167.5 -140l-79 92q94 63 94 129q-4 -2 -23 -2q-47 0 -85 39t-40 108t49.5 115t131.5 46zM1645 1440l-738 -740l549 -700h-436l-449 573l-79 -573h-345l201 1440h344l-84 -606l621 608z" />
    <glyph glyph-name="kcommaaccent" unicode="&#x137;" horiz-adv-x="1085" 
d="M517 -98q79 0 121 -43t42 -115q0 -111 -76 -217.5t-190 -159.5l-66 94q96 72 109 140q-8 -2 -39 -2t-61.5 31.5t-30.5 99t56 120t135 52.5zM1212 942l-446 -459l330 -483h-385l-232 369l-51 -369h-324l205 1462h324l-121 -856l303 336h397z" />
    <glyph glyph-name="kgreenlandic" unicode="&#x138;" horiz-adv-x="1085" 
d="M1212 942l-446 -459l330 -483h-385l-232 367l-51 -367h-324l134 942h323l-47 -334l301 334h397z" />
    <glyph glyph-name="Lacute" unicode="&#x139;" horiz-adv-x="1126" 
d="M535 301h618l-43 -301h-963l203 1440h344zM954 1688l-557 -152l-61 197l532 239z" />
    <glyph glyph-name="lacute" unicode="&#x13a;" horiz-adv-x="532" 
d="M104 0l205 1462h324l-205 -1462h-324zM291 1559l-62 196l533 240l86 -285z" />
    <glyph glyph-name="Lcommaaccent" unicode="&#x13b;" horiz-adv-x="1126" 
d="M588 -59q80 0 129 -50.5t51 -146t-60.5 -190.5t-166.5 -140l-80 92q94 63 94 129q-4 -2 -23 -2q-47 0 -84.5 39t-39.5 108t49 115t131 46zM535 301h618l-43 -301h-963l203 1440h344z" />
    <glyph glyph-name="lcommaaccent" unicode="&#x13c;" horiz-adv-x="532" 
d="M133 -401q-31 0 -61.5 31.5t-30.5 99t56.5 120t135.5 52.5t120.5 -43t41.5 -115q0 -111 -75.5 -217.5t-190.5 -159.5l-66 94q96 72 109 140q-8 -2 -39 -2zM104 0l205 1462h324l-205 -1462h-324z" />
    <glyph glyph-name="Lcaron" unicode="&#x13d;" horiz-adv-x="1126" 
d="M1024 1096q-55 0 -89 36.5t-34 113.5t63.5 135.5t150.5 58.5t131 -46t44 -124q0 -129 -89 -253t-228 -188l-70 101q137 92 148 168q-7 -2 -27 -2zM694 1440l-159 -1139h618l-43 -301h-963l203 1440h344z" />
    <glyph glyph-name="lcaron" unicode="&#x13e;" horiz-adv-x="710" 
d="M788 1118q-57 0 -89.5 37t-32.5 113.5t62.5 135t149.5 58.5t132 -46t45 -124q0 -129 -90.5 -253t-229.5 -187l-71 100q139 90 149 168q-6 -2 -25 -2zM104 0l205 1462h324l-205 -1462h-324z" />
    <glyph glyph-name="Ldot" unicode="&#x13f;" horiz-adv-x="1126" 
d="M982 655q-87 0 -139 47.5t-52 130t59 142t145 59.5t138.5 -47t52.5 -130t-58.5 -142.5t-145.5 -59.5zM694 1440l-159 -1139h618l-43 -301h-963l203 1440h344z" />
    <glyph glyph-name="ldot" unicode="&#x140;" horiz-adv-x="843" 
d="M772 518q-80 0 -127 49t-47 129t65.5 143.5t146.5 63.5t128 -49t47 -128t-66.5 -143.5t-146.5 -64.5zM104 0l205 1462h324l-205 -1462h-324z" />
    <glyph glyph-name="Lslash" unicode="&#x141;" horiz-adv-x="1126" 
d="M535 301h618l-43 -301h-963l74 522l-117 -61l-96 211l252 133l90 635h344l-61 -441l135 72l96 -211l-272 -143z" />
    <glyph glyph-name="lslash" unicode="&#x142;" horiz-adv-x="876" 
d="M1016 840l-311 -166l-95 -674h-323l67 487l-182 -98l-86 191l305 161l101 721h323l-74 -532l189 100z" />
    <glyph glyph-name="Nacute" unicode="&#x143;" horiz-adv-x="1564" 
d="M1280 1440h338l-205 -1458h-188l-621 862l-119 -844h-335l204 1454h191l616 -858zM1329 1688l-557 -152l-61 197l532 239z" />
    <glyph glyph-name="nacute" unicode="&#x144;" horiz-adv-x="1155" 
d="M783.5 961q195.5 0 287.5 -119t64 -322l-74 -520h-324l66 481q27 188 -125 189q-139 0 -178 -158l-72 -512h-324l134 942h231l6 -129q113 148 308.5 148zM1063 1257l-488 -208l-92 180l457 289z" />
    <glyph glyph-name="Ncommaaccent" unicode="&#x145;" horiz-adv-x="1564" 
d="M825 -59q80 0 129.5 -50.5t51.5 -146t-60.5 -190.5t-167.5 -140l-80 92q94 63 95 129q-4 -2 -23 -2q-47 0 -85 39t-40 108t49 115t131 46zM1280 1440h338l-205 -1458h-188l-621 862l-119 -844h-335l204 1454h191l616 -858z" />
    <glyph glyph-name="ncommaaccent" unicode="&#x146;" horiz-adv-x="1155" 
d="M554 -98q79 0 121 -43t42 -115q0 -111 -76 -217.5t-190 -159.5l-66 94q96 72 109 140q-8 -2 -39 -2t-62 31.5t-31 99t56.5 120t135.5 52.5zM783.5 961q195.5 0 287.5 -119t64 -322l-74 -520h-324l66 481q27 188 -125 189q-139 0 -178 -158l-72 -512h-324l134 942h231
l6 -129q113 148 308.5 148z" />
    <glyph glyph-name="Ncaron" unicode="&#x147;" horiz-adv-x="1564" 
d="M1280 1440h338l-205 -1458h-188l-621 862l-119 -844h-335l204 1454h191l616 -858zM1114 1552h-246l-235 371h301l94 -139l135 139h303z" />
    <glyph glyph-name="ncaron" unicode="&#x148;" horiz-adv-x="1155" 
d="M783.5 961q195.5 0 287.5 -119t64 -322l-74 -520h-324l66 481q27 188 -125 189q-139 0 -178 -158l-72 -512h-324l134 942h231l6 -129q113 148 308.5 148zM860 1087h-246l-200 383h260l100 -167l141 167h263z" />
    <glyph glyph-name="napostrophe" unicode="&#x149;" horiz-adv-x="1255" 
d="M883.5 961q195.5 0 288 -119t63.5 -322l-74 -520h-323l65 481q27 188 -125 189q-139 0 -178 -158l-72 -512h-323l133 942h231l6 -129q113 148 308.5 148zM469 1356q0 -129 -89 -253t-228 -188l-70 101q137 92 147 168q-6 -2 -26 -2q-55 0 -89 36.5t-34 113.5t63.5 135.5
t150.5 58.5t131 -46t44 -124z" />
    <glyph glyph-name="Eng" unicode="&#x14a;" horiz-adv-x="1660" 
d="M862 -418q-225 0 -348 82l170 291q2 0 22 -6q94 -29 154 -29q201 0 227 203l7 41l-490 680l-119 -844h-335l204 1454h191l616 -858l119 844h338l-205 -1458q-31 -176 -178.5 -288t-372.5 -112z" />
    <glyph glyph-name="eng" unicode="&#x14b;" horiz-adv-x="1155" 
d="M783.5 961q195.5 0 287.5 -119t64 -322l-74 -520q-57 -418 -481 -418q-125 0 -205 49l139 256q29 -14 61 -14q139 0 166 156l62 452q27 188 -125 189q-139 0 -178 -158l-72 -512h-324l134 942h231l6 -129q113 148 308.5 148z" />
    <glyph glyph-name="Omacron" unicode="&#x14c;" horiz-adv-x="1603" 
d="M881 297q164 0 277.5 129t113.5 369q0 156 -92.5 252t-256 96t-277.5 -129t-114 -369q0 -156 92.5 -252t256.5 -96zM865.5 -18q-330.5 0 -515 189t-184.5 452q0 369 219 602t550.5 233t517 -186.5t185.5 -452.5q0 -371 -221 -604t-551.5 -233zM664 1587l34 248h729
l-34 -248h-729z" />
    <glyph glyph-name="omacron" unicode="&#x14d;" horiz-adv-x="1112" 
d="M611 274q83 0 134.5 66t51.5 149t-42 131t-123 48t-133.5 -65.5t-52.5 -149t41 -131.5t124 -48zM587 -18q-222 0 -343 121.5t-121 308.5q0 252 155.5 400.5t378 148.5t343 -122t120.5 -309q0 -252 -155.5 -400t-377.5 -148zM393 1116l35 248h639l-35 -248h-639z" />
    <glyph glyph-name="Ohungarumlaut" unicode="&#x150;" horiz-adv-x="1603" 
d="M881 297q164 0 277.5 129t113.5 369q0 156 -92.5 252t-256 96t-277.5 -129t-114 -369q0 -156 92.5 -252t256.5 -96zM865.5 -18q-330.5 0 -515 189t-184.5 452q0 369 219 602t550.5 233t517 -186.5t185.5 -452.5q0 -371 -221 -604t-551.5 -233zM1190 1518l-141 129
l284 389l203 -168zM750 1518l-142 129l285 389l203 -168z" />
    <glyph glyph-name="ohungarumlaut" unicode="&#x151;" horiz-adv-x="1112" 
d="M611 274q83 0 134.5 66t51.5 149t-42 131t-123 48t-133.5 -65.5t-52.5 -149t41 -131.5t124 -48zM587 -18q-222 0 -343 121.5t-121 308.5q0 252 155.5 400.5t378 148.5t343 -122t120.5 -309q0 -252 -155.5 -400t-377.5 -148zM891 1026l-158 76l197 420l235 -115zM514 1026
l-158 76l197 420l235 -115z" />
    <glyph glyph-name="OE" unicode="&#x152;" horiz-adv-x="2273" 
d="M881 297q164 0 277.5 129t113.5 369q0 156 -92.5 252t-256 96t-277.5 -129t-114 -369q0 -156 92.5 -252t256.5 -96zM166 623q0 369 219 602t563 233q256 0 434 -127l15 109h970l-43 -303h-628l-37 -260h555l-43 -304h-555l-37 -272h637l-43 -301h-979l8 57
q-162 -76 -350 -75q-317 0 -501.5 189t-184.5 452z" />
    <glyph glyph-name="oe" unicode="&#x153;" horiz-adv-x="1738" 
d="M611 274q83 0 134.5 66t51.5 149t-42 131t-123 48t-133.5 -65.5t-52.5 -149t41 -131.5t124 -48zM1307 709q-129 0 -179 -129h324q-2 57 -40.5 93t-104.5 36zM1749 555q0 -77 -16 -149l-7 -21h-610q39 -133 195 -133q82 0 142 36l20 12t34 24l133 -211
q-143 -131 -362.5 -131t-349.5 116q-145 -117 -354 -116.5t-330 122t-121 308.5q0 252 155.5 400.5t374 148.5t338.5 -115q147 115 343 115t305.5 -112t109.5 -294z" />
    <glyph glyph-name="Racute" unicode="&#x154;" horiz-adv-x="1333" 
d="M752 684q121 0 197.5 70.5t76.5 174t-56.5 160t-160.5 56.5h-164l-63 -461h170zM1382 994.5q0 -191.5 -88 -327t-243 -204.5l241 -463h-360l-193 395h-198l-56 -395h-338l203 1440h535q231 0 364 -127t133 -318.5zM1212 1688l-557 -152l-61 197l532 239z" />
    <glyph glyph-name="racute" unicode="&#x155;" horiz-adv-x="778" 
d="M803 961q49 0 82 -9l-72 -321q-45 20 -110.5 20t-129 -50t-79.5 -138l-66 -463h-324l134 942h266l-15 -174q35 86 121 139.5t193 53.5zM899 1257l-487 -208l-93 180l457 289z" />
    <glyph glyph-name="Rcommaaccent" unicode="&#x156;" horiz-adv-x="1333" 
d="M696 -59q80 0 129 -50.5t51.5 -146t-60 -190.5t-167.5 -140l-80 92q94 63 95 129q-4 -2 -23 -2q-47 0 -85 39t-40 108t49 115t131 46zM752 684q121 0 197.5 70.5t76.5 174t-56.5 160t-160.5 56.5h-164l-63 -461h170zM1382 994.5q0 -191.5 -88 -327t-243 -204.5l241 -463
h-360l-193 395h-198l-56 -395h-338l203 1440h535q231 0 364 -127t133 -318.5z" />
    <glyph glyph-name="rcommaaccent" unicode="&#x157;" horiz-adv-x="778" 
d="M237 -98q79 0 120.5 -43t41.5 -115q0 -111 -75.5 -217.5t-190.5 -159.5l-65 94q96 72 108 140q-8 -2 -38.5 -2t-61.5 31.5t-31 99t56.5 120t135.5 52.5zM803 961q49 0 82 -9l-72 -321q-45 20 -110.5 20t-129 -50t-79.5 -138l-66 -463h-324l134 942h266l-15 -174
q35 86 121.5 139.5t192.5 53.5z" />
    <glyph glyph-name="Rcaron" unicode="&#x158;" horiz-adv-x="1333" 
d="M752 684q121 0 197.5 70.5t76.5 174t-56.5 160t-160.5 56.5h-164l-63 -461h170zM1382 994.5q0 -191.5 -88 -327t-243 -204.5l241 -463h-360l-193 395h-198l-56 -395h-338l203 1440h535q231 0 364 -127t133 -318.5zM997 1552h-245l-236 371h301l94 -139l136 139h303z" />
    <glyph glyph-name="rcaron" unicode="&#x159;" horiz-adv-x="778" 
d="M803 961q49 0 82 -9l-72 -321q-45 20 -110.5 20t-129 -50t-79.5 -138l-66 -463h-324l134 942h266l-15 -174q35 86 121 139.5t193 53.5zM696 1087h-245l-201 383h260l100 -167l142 167h262z" />
    <glyph glyph-name="Sacute" unicode="&#x15a;" horiz-adv-x="1187" 
d="M610 -18q-338 0 -547 186l168 256q201 -145 395 -145t195 143q0 61 -49 98t-178 76q-176 63 -267 154.5t-91 244.5q0 213 158 338q156 125 430 125t468 -153l-176 -246q-172 102 -334 102q-190 0 -190 -121q0 -55 48 -85.5t200 -81.5t241.5 -145.5t89.5 -266.5
q0 -215 -147.5 -347t-413.5 -132zM627 1536l-62 197l533 239l86 -284z" />
    <glyph glyph-name="sacute" unicode="&#x15b;" horiz-adv-x="948" 
d="M494 -18q-260 0 -428 122l159 236q129 -104 291 -104q72 0 72 51q0 23 -25.5 35t-97.5 28q-285 63 -285 264q0 156 122 251.5t321 95.5q115 0 218 -32t160 -79l-133 -221q-129 78 -268 78q-92 0 -92 -43q0 -25 28.5 -37.5t118.5 -34.5q264 -63 265 -268
q0 -152 -113.5 -247t-312.5 -95zM459 1049l-92 180l456 289l123 -261z" />
    <glyph glyph-name="Scedilla" unicode="&#x15e;" horiz-adv-x="1187" 
d="M1171 444.5q0 -188.5 -134 -318.5t-378 -142l-28 -54q76 -6 119 -51t43 -115q0 -113 -83 -185.5t-214 -72.5q-59 0 -113.5 19.5t-79.5 40.5l-27 20l84 135q122 -77 187 -37q31 18 39 45t-5.5 48.5t-53.5 33t-109 -3.5l-21 33l74 150q-246 33 -408 178l168 256
q201 -145 395.5 -145t194.5 143q0 61 -49 98t-178 76q-176 63 -267 154.5t-91 244.5q0 213 157.5 338t431 125t467.5 -153l-176 -246q-172 102 -334 102q-190 0 -190 -121q0 -55 48 -85.5t200.5 -81.5t241.5 -145.5t89 -283z" />
    <glyph glyph-name="scedilla" unicode="&#x15f;" horiz-adv-x="948" 
d="M696 -246q0 -115 -83 -182.5t-212 -67.5q-59 0 -114.5 20.5t-81.5 41.5l-27 18l86 135q74 -49 127 -49q102 0 103 78q0 66 -95 66q-37 0 -77 -9l-21 33l74 150q-186 25 -309 116l159 236q129 -104 291 -104q72 0 72 51q0 23 -25.5 35t-97.5 28q-285 63 -285 264
q0 156 122 251.5t321 95.5q115 0 218 -32t160 -79l-133 -221q-129 78 -268 78q-92 0 -92 -43q0 -25 28.5 -37t118.5 -35q264 -63 265 -268q0 -141 -100.5 -234.5t-276.5 -105.5l-29 -56q88 0 135 -48t47 -126z" />
    <glyph glyph-name="Scaron" unicode="&#x160;" horiz-adv-x="1187" 
d="M782 1161q-190 0 -190 -121q0 -55 48 -85.5t200 -81.5t241.5 -145.5t89.5 -266.5q0 -215 -147 -347t-414 -132q-338 0 -547 186l168 256q201 -145 395 -145t195 143q0 61 -49 98t-178 76q-176 63 -267 154.5t-91 244.5q0 213 158 338q156 125 430 125t468 -153l-176 -246
q-172 102 -334 102zM969 1552h-246l-236 371h301l95 -139l135 139h303z" />
    <glyph glyph-name="scaron" unicode="&#x161;" horiz-adv-x="948" 
d="M600 707q-92 0 -92 -43q0 -25 28.5 -37.5t118.5 -34.5q264 -63 265 -268q0 -152 -114 -247t-312 -95q-260 0 -428 122l159 236q129 -104 291 -104q72 0 72 51q0 23 -25.5 35t-97.5 28q-285 63 -285 264q0 156 122 251.5t321 95.5q115 0 218 -32t160 -79l-133 -221
q-129 78 -268 78zM743 1087h-245l-201 383h260l100 -167l142 167h262z" />
    <glyph glyph-name="uni0162" unicode="&#x162;" horiz-adv-x="1271" 
d="M862 -236q0 -113 -83 -185.5t-214 -72.5q-59 0 -113.5 19.5t-78.5 40.5l-27 20l84 135q122 -77 186 -37q30 18 39 45t-4.5 48.5t-53.5 33t-110 -3.5l-20 33l80 160h-84l160 1137h-443l43 303h1233l-43 -303h-446l-160 -1137h-70l-37 -70q76 -6 119 -51t43 -115z" />
    <glyph glyph-name="uni0163" unicode="&#x163;" horiz-adv-x="917" 
d="M708.5 274q59.5 0 133.5 43l76 -239q-125 -86 -283 -94l-29 -56q86 0 134 -48t48 -126q0 -115 -82.5 -182.5t-211.5 -67.5q-59 0 -114.5 20.5t-82.5 41.5l-27 18l86 135q74 -49 127 -49q102 0 103 78q0 66 -94 66q-37 0 -78 -9l-21 33l76 158q-250 63 -207 371l43 303
h-180l39 272h194l45 324h310l-45 -324h309l-39 -272h-309l-37 -264q-10 -68 23.5 -100t93 -32z" />
    <glyph glyph-name="Tcaron" unicode="&#x164;" horiz-adv-x="1271" 
d="M1456 1440l-43 -303h-446l-160 -1137h-344l160 1137h-443l43 303h1233zM979 1552h-246l-235 371h301l94 -139l135 139h303z" />
    <glyph glyph-name="tcaron" unicode="&#x165;" horiz-adv-x="917" 
d="M590 -18q-182 0 -268 99t-60 286l43 303h-180l39 272h194l45 324h310l-45 -324h309l-39 -272h-309l-37 -264q-10 -68 23.5 -100t93 -32t133.5 43l76 -239q-146 -96 -328 -96zM936 1237q-55 0 -89 37t-34 113.5t62.5 135t149.5 58.5t132 -46t45 -124q0 -129 -89 -253
t-228 -187l-72 100q137 90 148 168q-4 -2 -25 -2z" />
    <glyph glyph-name="Tbar" unicode="&#x166;" horiz-adv-x="1271" 
d="M1413 1137h-446l-49 -359h204l-30 -219h-207l-78 -559h-344l78 559h-219l30 219h221l50 359h-443l43 303h1233z" />
    <glyph glyph-name="tbar" unicode="&#x167;" horiz-adv-x="917" 
d="M708.5 274q59.5 0 133.5 43l76 -239q-145 -96 -327.5 -96t-268.5 99t-60 286l4 34h-145l24 187h148l12 82h-180l39 272h194l45 324h310l-45 -324h309l-39 -272h-309l-13 -82h146l-25 -187h-145q-8 -66 24.5 -96.5t92 -30.5z" />
    <glyph glyph-name="Utilde" unicode="&#x168;" horiz-adv-x="1509" 
d="M751.5 -18q-286.5 0 -431 168.5t-101.5 482.5l113 807h346l-117 -834q-18 -133 37 -225t195.5 -92t224.5 92t102 225l117 834h342l-113 -807q-43 -315 -235.5 -483t-479 -168zM847 1649q-42 0 -73 -21.5t-41 -42.5l-10 -20l-162 151l27 36q123 150 291 151
q68 0 145.5 -50.5t118.5 -50.5t71.5 28t44 52.5t13.5 28.5l162 -148q-2 -16 -37 -63t-115 -98.5t-161 -51.5t-156.5 49.5t-117.5 49.5z" />
    <glyph glyph-name="utilde" unicode="&#x169;" horiz-adv-x="1140" 
d="M500.5 -18q-190.5 0 -283 116.5t-63.5 323.5l73 520h324l-66 -467q-12 -82 17.5 -132t98.5 -50t116 48t63 132l66 469h323l-133 -942h-250l9 111q-104 -129 -294.5 -129zM606 1190q-39 0 -69.5 -19.5t-40.5 -40.5l-11 -18l-161 152l12 18q125 178 280 178q76 0 151 -47
t111.5 -47t67.5 23.5t43 46.5l12 22l162 -147q-6 -32 -63 -93q-111 -120 -240 -120q-74 0 -144.5 46t-109.5 46z" />
    <glyph glyph-name="Umacron" unicode="&#x16a;" horiz-adv-x="1509" 
d="M752 -18q-287 0 -431.5 168.5t-101.5 482.5l113 807h346l-117 -834q-18 -133 37 -225t195.5 -92t224.5 92t102 225l117 834h342l-113 -807q-43 -315 -235 -483t-479 -168zM610 1587l35 248h729l-35 -248h-729z" />
    <glyph glyph-name="umacron" unicode="&#x16b;" horiz-adv-x="1140" 
d="M500.5 -18q-190.5 0 -283 116.5t-63.5 323.5l73 520h324l-66 -467q-12 -82 17.5 -132t98.5 -50t116 48t63 132l66 469h323l-133 -942h-250l9 111q-104 -129 -294.5 -129zM1077 1364l-35 -248h-639l35 248h639z" />
    <glyph glyph-name="Uring" unicode="&#x16e;" horiz-adv-x="1509" 
d="M752 -18q-287 0 -431.5 168.5t-101.5 482.5l113 807h346l-117 -834q-18 -133 37 -225t195.5 -92t224.5 92t102 225l117 834h342l-113 -807q-43 -315 -235 -483t-479 -168zM920 1752q0 -83 70 -83q34 0 59.5 31t25.5 74q0 74 -63 73q-39 0 -65.5 -27.5t-26.5 -67.5z
M973.5 1503q-114.5 0 -177.5 61.5t-63 172t87 192.5t201.5 82t177.5 -61.5t63 -172t-87 -192.5t-201.5 -82z" />
    <glyph glyph-name="uring" unicode="&#x16f;" horiz-adv-x="1140" 
d="M500.5 -18q-190.5 0 -283 116.5t-63.5 323.5l73 520h324l-66 -467q-12 -82 17.5 -132t98.5 -50t116 48t63 132l66 469h323l-133 -942h-250l9 111q-104 -129 -294.5 -129zM672 1296q0 -82 68 -82q34 0 59.5 31t25.5 74q0 74 -63 74q-39 0 -64.5 -29t-25.5 -68zM724.5 1049
q-113.5 0 -177.5 61t-64 172t88 192.5t201.5 81.5t176.5 -61t63 -172t-87 -192.5t-200.5 -81.5z" />
    <glyph glyph-name="Uhungarumlaut" unicode="&#x170;" horiz-adv-x="1509" 
d="M752 -18q-287 0 -431.5 168.5t-101.5 482.5l113 807h346l-117 -834q-18 -133 37 -225t195.5 -92t224.5 92t102 225l117 834h342l-113 -807q-43 -315 -235 -483t-479 -168zM1137 1518l-142 129l285 389l203 -168zM696 1518l-141 129l285 389l202 -168z" />
    <glyph glyph-name="uhungarumlaut" unicode="&#x171;" horiz-adv-x="1140" 
d="M500.5 -18q-190.5 0 -283 116.5t-63.5 323.5l73 520h324l-66 -467q-12 -82 17.5 -132t98.5 -50t116 48t63 132l66 469h323l-133 -942h-250l9 111q-104 -129 -294.5 -129zM901 1026l-158 76l197 420l236 -115zM799 1407l-275 -381l-157 76l196 420z" />
    <glyph glyph-name="Uogonek" unicode="&#x172;" horiz-adv-x="1509" 
d="M776 -193q0 -82 82 -81q25 0 57 20l80 -168q-92 -66 -204.5 -65.5t-181 61.5t-68.5 164q0 139 125 248q-246 25 -367 191.5t-80 455.5l113 807h346l-117 -834q-18 -133 37 -225t195.5 -92t224.5 92t102 225l117 834h342l-113 -807q-37 -262 -178 -424t-360 -209
q-57 -26 -104.5 -85.5t-47.5 -107.5z" />
    <glyph glyph-name="uogonek" unicode="&#x173;" horiz-adv-x="1140" 
d="M932 -274q23 0 55 20l55 -168q-98 -66 -201.5 -65.5t-161.5 53.5t-58 143q0 172 165 297l9 105q-104 -129 -294.5 -129t-283 116.5t-63.5 323.5l73 520h324l-66 -467q-12 -82 17.5 -132t98.5 -50t116 48t63 132l66 469h323l-133 -942q-6 -4 -18 -10q-48 -24 -101 -79.5
t-53 -120t68 -64.5z" />
    <glyph glyph-name="Wcircumflex" unicode="&#x174;" horiz-adv-x="1927" 
d="M1782 1440h346l-645 -1440h-256l-140 883l-385 -883h-260l-237 1440h366l68 -529l27 -376l139 360l248 545h223l92 -543l49 -385l152 403zM1190 1692l-135 -140h-303l352 371h246l235 -371h-301z" />
    <glyph glyph-name="wcircumflex" unicode="&#x175;" horiz-adv-x="1626" 
d="M1409 942h338l-490 -942h-227l-129 504l-270 -504h-232l-254 942h347l92 -528l272 528h201l131 -545zM985 1255l-141 -168h-262l317 383h246l201 -383h-261z" />
    <glyph glyph-name="Ycircumflex" unicode="&#x176;" horiz-adv-x="1349" 
d="M1550 1440l-622 -871l-80 -569h-346l80 563l-373 877h409l189 -525l348 525h395zM924 1692l-136 -140h-303l353 371h245l236 -371h-301z" />
    <glyph glyph-name="ycircumflex" unicode="&#x177;" horiz-adv-x="1071" 
d="M862 942h336l-698 -1341h-336l227 422l-246 919h361l106 -555zM725 1255l-141 -168h-262l317 383h246l200 -383h-260z" />
    <glyph glyph-name="Ydieresis" unicode="&#x178;" horiz-adv-x="1349" 
d="M1550 1440l-622 -871l-80 -569h-346l80 563l-373 877h409l189 -525l348 525h395zM1161 1569q-76 0 -119 44t-43 121.5t60.5 134t136.5 56.5t119 -44t43 -122t-60.5 -134t-136.5 -56zM676 1569q-76 0 -119 44t-43 121.5t60.5 134t136.5 56.5t118.5 -44t42.5 -122t-60 -134
t-136 -56z" />
    <glyph glyph-name="Zacute" unicode="&#x179;" horiz-adv-x="1294" 
d="M1397 1440l-31 -215l-823 -922h717l-43 -303h-1145l30 215l811 922h-680l43 303h1121zM1182 1688l-557 -152l-62 197l533 239z" />
    <glyph glyph-name="zacute" unicode="&#x17a;" horiz-adv-x="987" 
d="M1030 942l-35 -240l-475 -430h430l-39 -272h-835l33 240l475 430h-398l39 272h805zM948 1257l-487 -208l-92 180l456 289z" />
    <glyph glyph-name="Zdotaccent" unicode="&#x17b;" horiz-adv-x="1294" 
d="M1397 1440l-31 -215l-823 -922h717l-43 -303h-1145l30 215l811 922h-680l43 303h1121zM847 1544q-81 0 -127 47t-46 130t66.5 144.5t146.5 61.5t126 -47t46 -130t-65.5 -144.5t-146.5 -61.5z" />
    <glyph glyph-name="zdotaccent" unicode="&#x17c;" horiz-adv-x="987" 
d="M1030 942l-35 -240l-475 -430h430l-39 -272h-835l33 240l475 430h-398l39 272h805zM646 1090q-89 0 -143 49t-54 135t61 146.5t150.5 60.5t142.5 -49.5t53 -135t-60.5 -146t-149.5 -60.5z" />
    <glyph glyph-name="Zcaron" unicode="&#x17d;" horiz-adv-x="1294" 
d="M1397 1440l-31 -215l-823 -922h717l-43 -303h-1145l30 215l811 922h-680l43 303h1121zM967 1552h-246l-236 371h301l95 -139l135 139h303z" />
    <glyph glyph-name="zcaron" unicode="&#x17e;" horiz-adv-x="987" 
d="M186 670l39 272h805l-35 -240l-475 -430h430l-39 -272h-835l33 240l475 430h-398zM745 1087h-245l-201 383h260l100 -167l142 167h262z" />
    <glyph glyph-name="uni01EA" unicode="&#x1ea;" horiz-adv-x="1603" 
d="M532 645q0 -156 92.5 -252t256.5 -96t277.5 129t113.5 369q0 156 -92.5 252t-256 96t-277.5 -129t-114 -369zM831 -193q0 -82 82 -81q25 0 58 20l80 -168q-92 -66 -204.5 -65.5t-181.5 61.5t-69 164q0 143 129 252q-260 39 -409.5 219t-149.5 414q0 369 219 602
t550.5 233t517 -186.5t185.5 -452.5q0 -338 -186 -564t-487 -267q-47 -29 -90.5 -76t-43.5 -105z" />
    <glyph glyph-name="uni01EB" unicode="&#x1eb;" horiz-adv-x="1112" 
d="M632 668q-81 0 -133.5 -65.5t-52.5 -149t41 -131.5t124 -48t134.5 66t51.5 149t-42 131t-123 48zM524 -209q0 -66 68 -65q23 0 55 20l55 -168q-98 -66 -201.5 -65.5t-161.5 53.5t-58 143q0 166 155 289q-150 37 -231.5 149.5t-81.5 264.5q0 252 155.5 400.5t378 148.5
t343 -122t120.5 -327t-123.5 -347t-318.5 -175q-154 -90 -154 -199z" />
    <glyph glyph-name="AEacute" unicode="&#x1fc;" horiz-adv-x="1859" 
d="M674 563h237l76 541zM-35 0l899 1440h1098l-43 -303h-582l-39 -271l502 4l-43 -301l-500 -6l-36 -262h581l-43 -303l-928 2l39 274h-383l-163 -274h-359zM1192 1534l-62 197l533 239l86 -284z" />
    <glyph glyph-name="aeacute" unicode="&#x1fd;" horiz-adv-x="1830" 
d="M618 274q82 0 132.5 63.5t50.5 150t-42 133.5t-121 47t-132 -60.5t-53 -147.5t41.5 -136.5t123.5 -49.5zM1399 709q-129 0 -178 -129h323q-2 57 -40.5 93t-104.5 36zM1841 555q0 -101 -16 -149l-6 -21h-611q39 -133 195 -133q81 0 143 36q16 9 19.5 11.5t33.5 24.5
l134 -211q-143 -131 -383 -131q-190 0 -316 102l-28 -84h-228l-6 82q-90 -100 -261 -100t-277.5 116.5t-106.5 311.5q0 252 144.5 401.5t351.5 149.5q152 0 245 -89l21 70h227l2 -72q133 90 318.5 90.5t295 -111.5t109.5 -294zM1333 1257l-487 -208l-92 180l456 289z" />
    <glyph glyph-name="Oslashacute" unicode="&#x1fe;" horiz-adv-x="1603" 
d="M879 297q166 0 279.5 129t113.5 369q0 84 -27 145l-526 -610q66 -33 160 -33zM532 645q0 -80 27 -149l531 614q-72 33 -162 33q-168 0 -282 -129t-114 -369zM1638 819q0 -371 -221 -604t-565 -233q-205 0 -360 84l-146 -168l-176 145l143 168q-147 176 -147 412
q0 369 219 602t563 233q203 0 369 -86l141 164l174 -147l-139 -160q145 -174 145 -410zM1300 1686l-557 -152l-61 197l532 239z" />
    <glyph glyph-name="oslashacute" unicode="&#x1ff;" horiz-adv-x="1112" 
d="M609 274q83 0 134.5 66t51.5 149t-42 131t-123 48t-133.5 -65.5t-52.5 -149t41 -131.5t124 -48zM1118 530q0 -252 -155.5 -400t-387.5 -148q-106 0 -186 30l-98 -118l-168 131l90 110q-92 111 -92 277q0 252 155.5 400.5t382.5 148.5q102 0 185 -29l90 115l166 -134
l-78 -100q96 -115 96 -283zM967 1257l-488 -208l-92 180l457 289z" />
    <glyph glyph-name="Scommaaccent" unicode="&#x218;" horiz-adv-x="1187" 
d="M520 -367q-47 0 -85 39t-40 108t49.5 115t131.5 46t129 -50.5t51 -146t-60.5 -190.5t-167.5 -140l-79 92q94 63 94 129q-4 -2 -23 -2zM610 -18q-338 0 -547 186l168 256q201 -145 395.5 -145t194.5 143q0 61 -49 98t-178 76q-176 63 -267 154.5t-91 244.5
q0 213 157.5 338t431 125t467.5 -153l-176 -246q-172 102 -334 102q-190 0 -190 -121q0 -55 48 -85.5t200.5 -81.5t241.5 -145.5t89 -266.5q0 -215 -147.5 -347t-413.5 -132z" />
    <glyph glyph-name="scommaaccent" unicode="&#x219;" horiz-adv-x="948" 
d="M340 -401q-31 0 -61.5 31.5t-30.5 99t56 120t135.5 52.5t121 -43t41.5 -115q0 -111 -75.5 -217.5t-190.5 -159.5l-66 94q96 72 109 140q-8 -2 -39 -2zM494 -18q-260 0 -428 122l159 236q129 -104 291 -104q72 0 72 51q0 23 -25.5 35t-97.5 28q-285 63 -285 264
q0 156 122 251.5t321 95.5q115 0 218 -32t160 -79l-133 -221q-129 78 -268 78q-92 0 -92 -43q0 -25 28.5 -37.5t118.5 -34.5q264 -63 265 -268q0 -152 -113.5 -247t-312.5 -95z" />
    <glyph glyph-name="uni021A" unicode="&#x21a;" horiz-adv-x="1271" 
d="M645 -59q80 0 129 -50.5t51 -146t-60.5 -190.5t-166.5 -140l-80 92q94 63 94 129q-4 -2 -22 -2q-47 0 -85 39t-40 108t49 115t131 46zM1456 1440l-43 -303h-446l-160 -1137h-344l160 1137h-443l43 303h1233z" />
    <glyph glyph-name="uni021B" unicode="&#x21b;" horiz-adv-x="917" 
d="M432 -401q-31 0 -61.5 31.5t-30.5 99t56.5 120t135.5 52.5t120.5 -43t41.5 -115q0 -111 -75.5 -217.5t-190.5 -159.5l-66 94q96 72 109 140q-8 -2 -39 -2zM590 -18q-182 0 -268 99t-60 286l43 303h-180l39 272h194l45 324h310l-45 -324h309l-39 -272h-309l-37 -264
q-10 -68 23.5 -100t93 -32t133.5 43l76 -239q-146 -96 -328 -96z" />
    <glyph glyph-name="uni0237" unicode="&#x237;" horiz-adv-x="548" 
d="M-10 -418q-135 0 -230 51l127 261q41 -18 99 -19q121 0 141 168l127 899h321l-124 -893q-62 -467 -461 -467z" />
    <glyph glyph-name="circumflex" unicode="&#x2c6;" horiz-adv-x="915" 
d="M946 1087h-260l-100 168l-142 -168h-262l318 383h245z" />
    <glyph glyph-name="caron" unicode="&#x2c7;" horiz-adv-x="792" 
d="M729 1470h262l-317 -383h-246l-201 383h260l101 -167z" />
    <glyph glyph-name="breve" unicode="&#x2d8;" horiz-adv-x="804" 
d="M554 1092q-157 0 -241 97t-61 259h246q-10 -66 13.5 -105.5t72.5 -39.5t83.5 39.5t45.5 105.5h243q-23 -162 -134 -259t-268 -97z" />
    <glyph glyph-name="dotaccent" unicode="&#x2d9;" horiz-adv-x="364" 
d="M355 1090q-89 0 -143 49t-54 135t61 146t151 60t142 -48q53 -49 53 -135t-60 -147q-61 -60 -150 -60z" />
    <glyph glyph-name="ring" unicode="&#x2da;" horiz-adv-x="575" 
d="M389 1296q0 -82 69 -82q34 0 59.5 31t25.5 74q0 74 -64 74q-39 0 -64.5 -29t-25.5 -68zM441.5 1049q-113.5 0 -177 61t-63.5 172t88 192.5t201.5 81.5t176 -61t62.5 -172t-87 -192.5t-200.5 -81.5z" />
    <glyph glyph-name="ogonek" unicode="&#x2db;" horiz-adv-x="495" 
d="M202 -487q-104 0 -162 53t-58 141t44 164q68 117 206 186q48 25 67 25l98 -82q-6 -4 -18 -10q-88 -44 -135 -130q-18 -34 -19 -69q0 -66 68 -65q23 0 55 20l55 -168q-97 -65 -201 -65z" />
    <glyph glyph-name="tilde" unicode="&#x2dc;" horiz-adv-x="954" 
d="M750.5 1098q-68.5 0 -139 46t-109.5 46t-70 -19.5t-41 -40.5l-10 -18l-162 152l14 18q32 53 82 95q99 83 186 83t161.5 -47t111.5 -47t67.5 23.5t43.5 46.5l12 22l162 -147q-6 -32 -62.5 -93t-117 -90.5t-129 -29.5z" />
    <glyph glyph-name="hungarumlaut" unicode="&#x2dd;" horiz-adv-x="819" 
d="M670 1026l-158 76l197 420l235 -115zM293 1026l-158 76l197 420l235 -115z" />
    <glyph glyph-name="gravecomb" unicode="&#x300;" 
d="M4 1049l-430 208l182 267l381 -295z" />
    <glyph glyph-name="acutecomb" unicode="&#x301;" 
d="M-317 1049l-93 180l457 289l123 -261z" />
    <glyph glyph-name="uni0302" unicode="&#x302;" 
d="M115 1087h-260l-101 168l-141 -168h-262l317 383h246z" />
    <glyph glyph-name="tildecomb" unicode="&#x303;" 
d="M-169.5 1098q-68.5 0 -139 46t-109.5 46t-69.5 -19.5t-40.5 -40.5l-11 -18l-161 152l12 18q125 178 280 178q76 0 151 -47t111.5 -47t67.5 23.5t43 46.5l12 22l162 -147q-6 -32 -62.5 -93t-117 -90.5t-129 -29.5z" />
    <glyph glyph-name="uni0304" unicode="&#x304;" 
d="M-500 1116l35 248h639l-35 -248h-639z" />
    <glyph glyph-name="uni0306" unicode="&#x306;" 
d="M-249 1092q-157 0 -240.5 97t-61.5 259h246q-10 -66 13.5 -105.5t72.5 -39.5t84 39.5t45 105.5h244q-23 -162 -134.5 -259t-268.5 -97z" />
    <glyph glyph-name="uni0307" unicode="&#x307;" 
d="M-26 1090q-89 0 -143 49t-54 135t61.5 146.5t150.5 60.5t142 -49.5t53 -135t-60.5 -146t-149.5 -60.5z" />
    <glyph glyph-name="uni0308" unicode="&#x308;" 
d="M-55 1110q-76 0 -118 44t-42 122t60.5 134t136.5 56t117.5 -44t41.5 -121.5t-60 -134t-136 -56.5zM-498 1116q-76 0 -118.5 44t-42.5 122t61 134.5t136 56.5t118 -44.5t43 -122t-60.5 -134t-136.5 -56.5z" />
    <glyph glyph-name="uni030A" unicode="&#x30a;" 
d="M-174 1296q0 -82 68 -82q34 0 60 31t26 74q0 74 -64 74q-39 0 -64.5 -29t-25.5 -68zM-121.5 1049q-113.5 0 -177 61t-63.5 172t88 192.5t201.5 81.5t176 -61t62.5 -172t-87 -192.5t-200.5 -81.5z" />
    <glyph glyph-name="uni030B" unicode="&#x30b;" 
d="M-176 1026l-158 76l197 420l235 -115zM-553 1026l-158 76l197 420l235 -115z" />
    <glyph glyph-name="uni030C" unicode="&#x30c;" 
d="M-88 1470h262l-317 -383h-246l-201 383h260l101 -167z" />
    <glyph glyph-name="uni0326" unicode="&#x326;" 
d="M-331.5 -401q-30.5 0 -61.5 31.5t-31 99t56.5 120t135.5 52.5t120.5 -43t41.5 -115q0 -111 -75.5 -217.5t-190.5 -159.5l-65 94q96 72 108 140q-8 -2 -38.5 -2z" />
    <glyph glyph-name="uni0327" unicode="&#x327;" 
d="M-352 -496q-59 0 -114.5 20.5t-82.5 41.5l-26 18l86 135q74 -49 127 -49q102 0 102 78q0 66 -94 66q-37 0 -78 -9l-21 33l103 211h174l-64 -121q88 0 135.5 -48t47.5 -126q0 -115 -83 -182.5t-212 -67.5z" />
    <glyph glyph-name="uni0328" unicode="&#x328;" 
d="M-336.5 -487q-103.5 0 -162 53t-58.5 141t44 164t101.5 119t105.5 67.5t66 24.5l99 -82q-7 -4 -19 -10q-45 -22 -99 -78.5t-54 -121.5t67 -64q23 0 56 20l55 -168q-98 -65 -201.5 -65z" />
    <glyph glyph-name="uni0335" unicode="&#x335;" 
d="M-741 451l30 219h770l-30 -219h-770z" />
    <glyph glyph-name="uni0336" unicode="&#x336;" 
d="M-1548 545l35 237h1603l-35 -237h-1603z" />
    <glyph glyph-name="uni0337" unicode="&#x337;" 
d="M-748 307l-86 191l822 450l86 -190z" />
    <glyph glyph-name="uni0338" unicode="&#x338;" 
d="M-852 -18l-149 131l917 1022l145 -134z" />
    <glyph glyph-name="Wgrave" unicode="&#x1e80;" horiz-adv-x="1927" 
d="M1782 1440h346l-645 -1440h-256l-140 883l-385 -883h-260l-237 1440h366l68 -529l27 -376l139 360l248 545h223l92 -543l49 -385l152 403zM1497 1743l-94 -199l-518 133l125 293z" />
    <glyph glyph-name="wgrave" unicode="&#x1e81;" horiz-adv-x="1626" 
d="M1409 942h338l-490 -942h-227l-129 504l-270 -504h-232l-254 942h347l92 -528l272 528h201l131 -545zM1270 1229l-133 -180l-430 208l182 267z" />
    <glyph glyph-name="Wacute" unicode="&#x1e82;" horiz-adv-x="1927" 
d="M1782 1440h346l-645 -1440h-256l-140 883l-385 -883h-260l-237 1440h366l68 -529l27 -376l139 360l248 545h223l92 -543l49 -385l152 403zM1516 1688l-558 -152l-61 197l533 239z" />
    <glyph glyph-name="wacute" unicode="&#x1e83;" horiz-adv-x="1626" 
d="M1409 942h338l-490 -942h-227l-129 504l-270 -504h-232l-254 942h347l92 -528l272 528h201l131 -545zM1284 1257l-487 -208l-92 180l456 289z" />
    <glyph glyph-name="Wdieresis" unicode="&#x1e84;" horiz-adv-x="1927" 
d="M1782 1440h346l-645 -1440h-256l-140 883l-385 -883h-260l-237 1440h366l68 -529l27 -376l139 360l248 545h223l92 -543l49 -385l152 403zM1427 1569q-76 0 -118.5 44t-42.5 121.5t60 134t136 56.5t119 -44t43 -122t-60.5 -134t-136.5 -56zM942 1569q-76 0 -119 44
t-43 121.5t60.5 134t136.5 56.5t119 -44t43 -122t-60.5 -134t-136.5 -56z" />
    <glyph glyph-name="wdieresis" unicode="&#x1e85;" horiz-adv-x="1626" 
d="M1409 942h338l-490 -942h-227l-129 504l-270 -504h-232l-254 942h347l92 -528l272 528h201l131 -545zM1200 1110q-76 0 -118 44t-42 122t60.5 134t136.5 56t118 -44t42 -121.5t-60.5 -134t-136.5 -56.5zM758 1116q-76 0 -119 44t-43 122t61.5 134.5t136.5 56.5
t117.5 -44.5t42.5 -122t-60 -134t-136 -56.5z" />
    <glyph glyph-name="uni1E9E" unicode="&#x1e9e;" horiz-adv-x="1470" 
d="M1489 506q0 -236 -156 -380t-393 -144q-193 0 -315 77l157 263q64 -48 162 -48t158 58t59 143q0 168 -178 168h-178l37 256l227 244h-201q-100 1 -171 -63t-85 -167l-129 -913h-346l129 913q33 242 189 384t456 143h596l-34 -252l-295 -295q141 -25 226 -128t85 -259z
" />
    <glyph glyph-name="Ygrave" unicode="&#x1ef2;" horiz-adv-x="1349" 
d="M1550 1440l-622 -871l-80 -569h-346l80 563l-373 877h409l189 -525l348 525h395zM1231 1743l-94 -199l-519 133l125 293z" />
    <glyph glyph-name="ygrave" unicode="&#x1ef3;" horiz-adv-x="1071" 
d="M862 942h336l-698 -1341h-336l227 422l-246 919h361l106 -555zM1010 1229l-133 -180l-431 208l183 267z" />
    <glyph glyph-name="uni1EF8" unicode="&#x1ef8;" horiz-adv-x="1349" 
d="M1550 1440l-622 -871l-80 -569h-346l80 563l-373 877h409l189 -525l348 525h395zM785 1649q-42 0 -72.5 -21.5t-40.5 -42.5l-10 -20l-162 151l28 36q123 151 289 151q68 0 145.5 -50.5t118.5 -50.5t72 28t44 52.5t13 28.5l162 -148q-2 -16 -37 -63t-114.5 -98.5
t-160.5 -51.5t-157 49.5t-118 49.5z" />
    <glyph glyph-name="uni1EF9" unicode="&#x1ef9;" horiz-adv-x="1071" 
d="M862 942h336l-698 -1341h-336l227 422l-246 919h361l106 -555zM598 1190q-39 0 -69.5 -19.5t-41.5 -40.5l-10 -18l-162 152l13 18q125 178 280 178q76 0 151 -47t111.5 -47t67.5 23.5t43 46.5l12 22l162 -147q-6 -32 -63 -93q-111 -120 -240 -120q-74 0 -144.5 46
t-109.5 46z" />
    <glyph glyph-name="endash" unicode="&#x2013;" horiz-adv-x="1003" 
d="M162 375l35 250h786l-35 -250h-786z" />
    <glyph glyph-name="emdash" unicode="&#x2014;" horiz-adv-x="1869" 
d="M162 373l35 250h1638l-35 -250h-1638z" />
    <glyph glyph-name="quoteleft" unicode="&#x2018;" horiz-adv-x="526" 
d="M600 1025q0 -77 -64 -135t-149 -59q-86 1 -130 47t-44 123q0 129 89 253t228 188l70 -101q-137 -90 -147 -167q6 2 24 2q57 0 90 -37t33 -114z" />
    <glyph glyph-name="quoteright" unicode="&#x2019;" horiz-adv-x="505" 
d="M336 1098q-57 0 -90 37t-33 113t63 135q64 59 150 59t130 -46t44 -124q0 -130 -88 -254t-227 -187l-72 101q137 88 147 168q-6 -2 -24 -2z" />
    <glyph glyph-name="quotesinglbase" unicode="&#x201a;" horiz-adv-x="546" 
d="M211 -90q-55 0 -88 37t-33 113t62 136q62 58 150 58q87 0 131 -46t44 -124q0 -129 -89 -253t-226 -187l-74 100q139 92 150 168q-6 -2 -27 -2z" />
    <glyph glyph-name="quotedblleft" unicode="&#x201c;" horiz-adv-x="962" 
d="M823 831q-86 1 -130 47t-44 123q0 129 88 253t228 188l71 -101q-137 -88 -147 -167q6 2 24 2q57 0 91 -37t32 -99q0 -92 -64 -150t-149 -59zM600 1025q0 -77 -64 -135t-149 -59q-86 1 -130 47t-44 123q0 129 89 253t228 188l70 -101q-137 -90 -147 -167q6 2 24 2
q57 0 90 -37t33 -114z" />
    <glyph glyph-name="quotedblright" unicode="&#x201d;" horiz-adv-x="942" 
d="M772 1098q-57 0 -90 37t-33 113q-1 76 63 135t150 59t130 -46t44 -124q0 -130 -89 -254t-228 -187l-70 101q137 90 148 168q-6 -2 -25 -2zM336 1098q-57 0 -90 37t-33 113t63 135q64 59 150 59t130 -46t44 -124q0 -130 -88 -254t-227 -187l-72 101q137 88 147 168
q-6 -2 -24 -2z" />
    <glyph glyph-name="quotedblbase" unicode="&#x201e;" horiz-adv-x="985" 
d="M647 -90q-55 0 -89 37t-34 113t64 136q64 58 150 58t130 -46t45 -124q0 -129 -89 -253t-228 -187l-72 100q139 92 150 168q-6 -2 -27 -2zM211 -90q-55 0 -88 37t-33 113t62 136q62 58 150 58q87 0 131 -46t44 -124q0 -129 -89 -253t-226 -187l-74 100q139 92 150 168
q-6 -2 -27 -2z" />
    <glyph glyph-name="dagger" unicode="&#x2020;" horiz-adv-x="1191" 
d="M1249 1085l-41 -297h-350l-110 -788h-295l110 788h-356l41 297h358l60 422h292l-59 -422h350z" />
    <glyph glyph-name="daggerdbl" unicode="&#x2021;" horiz-adv-x="1191" 
d="M1219 866h-353l-37 -266h353l-41 -295h-353l-43 -305h-294l43 305h-355l41 295h355l38 266h-356l43 297h354l50 344h292l-49 -344h355z" />
    <glyph glyph-name="bullet" unicode="&#x2022;" horiz-adv-x="845" 
d="M502 410q-138 0 -218 80t-79 214q0 136 91 237t249 101q121 0 199 -80t79 -218q0 -138 -91 -236q-92 -98 -230 -98z" />
    <glyph glyph-name="ellipsis" unicode="&#x2026;" horiz-adv-x="1646" 
d="M1231 158q-1 80 65 144t148 65t128 -49t46 -130t-66 -144t-147 -64q-80 0 -127 49t-47 129zM828 -20q-81 0 -128 49t-47 129t66 144q65 64 147 65t128 -49t46 -130t-65 -144q-66 -64 -147 -64zM78 158q0 80 66 144t147 65q82 1 128 -49t46 -130q-1 -80 -67 -144t-147 -64
t-127 49t-46 129z" />
    <glyph glyph-name="perthousand" unicode="&#x2030;" horiz-adv-x="2545" 
d="M2050 328q0 -138 122 -138q60 0 106 50q44 50 44 118q0 136 -124 136q-60 0 -104 -50q-44 -48 -44 -116zM1251 328q1 -138 123 -138q60 0 105 50t45 118q0 66 -32 101t-92 35t-104 -50q-45 -48 -45 -116zM1333 -29q-141 0 -224 86t-83 230q0 190 116 310t278 120t246 -85
q83 -85 83 -231q0 -190 -117 -310t-299 -120zM2132 -29q-141 0 -225 87t-84 233q0 188 116 308q117 120 279 120t246 -86q82 -86 82 -230q0 -190 -116 -311t-298 -121zM717 1206q-1 138 -123 136q-60 0 -102 -50q-42 -48 -43 -116q1 -138 119 -138q60 0 104 50q45 52 45 118
zM563 -29l-225 109l1032 1470l225 -120zM528 815q-141 0 -224 88t-83 234q0 186 118 307q117 121 277 121t242 -86t82 -230q0 -190 -116 -312t-296 -122z" />
    <glyph glyph-name="guilsinglleft" unicode="&#x2039;" horiz-adv-x="645" 
d="M301 141l-178 359l280 368h289l-291 -368l189 -359h-289z" />
    <glyph glyph-name="guilsinglright" unicode="&#x203a;" horiz-adv-x="647" 
d="M96 141l289 359l-186 368h290l173 -368l-275 -359h-291z" />
    <glyph glyph-name="fraction" unicode="&#x2044;" horiz-adv-x="837" 
d="M219 -14l-211 104l797 1368l211 -117z" />
    <glyph glyph-name="Euro" unicode="&#x20ac;" horiz-adv-x="1544" 
d="M1025.5 297q192.5 0 307.5 100l135 -252q-174 -164 -442 -163.5t-444 128.5t-230 339h-209l29 202h158q4 78 10 117h-152l29 203h176q86 223 276.5 356t471 133t471.5 -145l-187 -273q-129 100 -307 101q-219 0 -336 -172h377l-29 -203h-425q-8 -47 -9 -113v-4h418
l-29 -202h-340q88 -152 280.5 -152z" />
    <glyph glyph-name="trademark" unicode="&#x2122;" horiz-adv-x="1331" 
d="M254 1262l22 172h433l-23 -172h-129l-53 -373h-180l53 373h-123zM1262 1438h129l-54 -549h-168l31 250l-98 -140h-123l-61 140l-35 -250h-172l102 549h131l121 -267z" />
    <glyph glyph-name="minus" unicode="&#x2212;" horiz-adv-x="1101" 
d="M145 471l37 254h942l-37 -254h-942z" />
    <glyph glyph-name="approxequal" unicode="&#x2248;" horiz-adv-x="1216" 
d="M690 468q106 -40 159 -40q54 0 94 33t54 51l9 8l151 -153l-35 -41q-52 -58 -86 -83q-118 -83 -218 -83q-99 0 -196 39q-98 39 -148 39t-88 -18t-54 -36l-17 -16l-157 158l16 18q42 47 124 105q82 59 217 59q69 0 175 -40zM905 877q84 0 144 69l18 23l154 -154l-35 -41
q-144 -162 -314 -166q-90 0 -187 38t-167 38t-125 -49l-16 -19l-156 158l17 19q142 161 338 161q68 0 176 -38q106 -38 153 -39z" />
    <glyph glyph-name="notequal" unicode="&#x2260;" horiz-adv-x="1253" 
d="M1233 678h-338l-55 -176h366l-35 -256h-411l-66 -207h-301l64 207h-305l34 256h351l55 176h-379l35 254h422l61 196h305l-61 -196h293z" />
    <glyph glyph-name="uniF8FF" unicode="&#xf8ff;" horiz-adv-x="2822" 
d="M2238 31h15q8 0 8 6t-8 6h-15v-12zM2228 4v47h23q20 0 20 -14t-14 -14l12 -19h-12l-8 19h-11v-19h-10zM2249 -10q37 0 37 37t-37 37t-37 -38q0 -36 37 -36zM2249 -20q-49 0 -49 47t49 47t49 -47t-49 -47zM1448 223q0 47 -43 47t-43 -63q0 -29 10 -60q30 -1 53 23t23 53z
M1921 223h82q6 55 -35 56q-47 -1 -47 -56zM1987 -10q-289 0 -289 250q0 122 66 190t185 68q118 0 180 -62t62 -176q0 -43 -6 -72h-254q23 -36 98 -36t117 24v-153q-46 -33 -159 -33zM1143 -90q0 291 20 577h160q14 -86 14 -155q35 166 164 166q76 0 120 -60t44 -172
q0 -276 -281 -276q2 -31 2 -80h-243zM1110 210q0 -172 -68 -242t-218 -70t-206 34v170q49 -32 118 -32q136 1 136 57q-33 -23 -100 -23q-184 0 -184 170v27h-113l6 -133q12 -8 35 -8t33 10v-150q-39 -30 -135 -30t-133 35t-37 113t6 163h-37v164l240 59l-2 -37h362v-243
q0 -33 6 -44t25 -12q33 0 33 56v243h213q20 -106 20 -277zM2517 707q45 0 45 57t-45 57t-45 -57t45 -57zM752 707q47 0 47 57t-47 57t-47 -57t47 -57zM2519 1053q248 0 248 -255t-251 -255t-251 255t254 255zM1708 553q0 358 21 489h163q12 -90 13 -155q4 31 13 61t49 68
q39 37 113 37q74 1 108 -51t38 -166l6 -283h-233l4 190q0 59 -31 60q-37 0 -37 -60l7 -190h-234zM1012 813v-260h-170l-17 125q-24 -135 -153 -135q-188 0 -189 233q0 276 275 277q254 0 254 -240zM1032 854v162l244 61l2 -35h364q20 -131 21 -489h-242q0 188 6 301h-124
l6 -133q9 -8 33 -8t34 10v-152q-28 -30 -139 -30q-168 0 -168 135l8 178h-45zM205 553q0 274 18 643h205q20 -410 21 -643h-244zM1540 1069q-53 0 -89 37t-36 89t36 89t89 37t90 -37t37 -90t-37 -89t-90 -36z" />
    <glyph glyph-name="A.ss01" horiz-adv-x="1466" 
d="M893 1151q-256 0 -303 -338l-23 -166h516l23 166q20 150 -30 244t-183 94zM924 1458q285 0 427 -172t95 -500l-111 -786h-344l51 358h-516l-51 -358h-344l111 786q47 338 222 505t460 167z" />
    <glyph glyph-name="Aacute.ss01" horiz-adv-x="1466" 
d="M893 1151q-256 0 -303 -338l-23 -166h516l23 166q20 150 -30 244t-183 94zM924 1458q285 0 427 -172t95 -500l-111 -786h-344l51 358h-516l-51 -358h-344l111 786q47 338 222 505t460 167zM1290 1688l-557 -152l-61 197l532 239z" />
    <glyph glyph-name="Abreve.ss01" horiz-adv-x="1466" 
d="M893 1151q-256 0 -303 -338l-23 -166h516l23 166q20 150 -30 244t-183 94zM924 1458q285 0 427 -172t95 -500l-111 -786h-344l51 358h-516l-51 -358h-344l111 786q47 338 222 505t460 167zM949 1563q-161 0 -249 94t-65 252h246q-8 -59 18.5 -95t80.5 -36t92 35.5
t46 95.5h246q-23 -158 -138.5 -252t-276.5 -94z" />
    <glyph glyph-name="Acircumflex.ss01" horiz-adv-x="1466" 
d="M893 1151q-256 0 -303 -338l-23 -166h516l23 166q20 150 -30 244t-183 94zM924 1458q285 0 427 -172t95 -500l-111 -786h-344l51 358h-516l-51 -358h-344l111 786q47 338 222 505t460 167zM965 1692l-136 -140h-303l353 371h245l236 -371h-301z" />
    <glyph glyph-name="Adieresis.ss01" horiz-adv-x="1466" 
d="M893 1151q-256 0 -303 -338l-23 -166h516l23 166q20 150 -30 244t-183 94zM924 1458q285 0 427 -172t95 -500l-111 -786h-344l51 358h-516l-51 -358h-344l111 786q47 338 222 505t460 167zM1202 1569q-76 0 -119 44t-43 121.5t60.5 134t136.5 56.5t119 -44t43 -122
t-60.5 -134t-136.5 -56zM717 1569q-76 0 -119 44t-43 121.5t60.5 134t136.5 56.5t118.5 -44t42.5 -122t-60 -134t-136 -56z" />
    <glyph glyph-name="Agrave.ss01" horiz-adv-x="1466" 
d="M893 1151q-256 0 -303 -338l-23 -166h516l23 166q20 150 -30 244t-183 94zM924 1458q285 0 427 -172t95 -500l-111 -786h-344l51 358h-516l-51 -358h-344l111 786q47 338 222 505t460 167zM1272 1743l-94 -199l-519 133l125 293z" />
    <glyph glyph-name="Aogonek.ss01" horiz-adv-x="1466" 
d="M893 1151q-256 0 -303 -338l-23 -166h516l23 166q20 150 -30 244t-183 94zM1184 -193q0 -82 82 -81q25 0 57 20l80 -168q-92 -66 -204.5 -65.5t-181.5 61.5t-69 164q0 145 142 262h-99l51 358h-516l-51 -358h-344l111 786q47 338 222 505t460 167t427 -172t95 -500
l-111 -786q-6 -4 -16 -10q-52 -31 -93.5 -78t-41.5 -105z" />
    <glyph glyph-name="Aring.ss01" horiz-adv-x="1466" 
d="M893 1151q-256 0 -303 -338l-23 -166h516l23 166q20 150 -30 244t-183 94zM924 1458q285 0 427 -172t95 -500l-111 -786h-344l51 358h-516l-51 -358h-344l111 786q47 338 222 505t460 167zM899 1752q0 -83 71 -83q34 0 59.5 31t25.5 74q-1 73 -64 73q-39 0 -65.5 -27.5
t-26.5 -67.5zM952.5 1503q-114.5 0 -177 61.5t-62.5 172t87 192.5t201.5 82t177 -61.5t62.5 -172t-87 -192.5t-201.5 -82z" />
    <glyph glyph-name="Atilde.ss01" horiz-adv-x="1466" 
d="M893 1151q-256 0 -303 -338l-23 -166h516l23 166q20 150 -30 244t-183 94zM924 1458q285 0 427 -172t95 -500l-111 -786h-344l51 358h-516l-51 -358h-344l111 786q47 338 222 505t460 167zM826 1649q-42 0 -72.5 -21.5t-40.5 -42.5l-11 -20l-161 151l27 36
q123 150 290 151q68 0 145.5 -50.5t118.5 -50.5t72 28t44 52.5t13 28.5l162 -148q-2 -16 -37 -63t-114.5 -98.5t-160.5 -51.5t-157 49.5t-118 49.5z" />
    <glyph glyph-name="R.ss01" horiz-adv-x="1370" 
d="M731 684q123 0 201 71.5t78 171t-57.5 157t-159.5 57.5h-144l-63 -457h145zM1272 264q49 0 65 2l-37 -266q-53 -18 -153 -18t-174 40q-74 42 -117 100q-44 58 -76 118q-78 142 -139 145h-98l-54 -385h-339l202 1440h504q233 0 368.5 -127t135.5 -336q0 -172 -86 -306
t-238 -210q37 -29 75 -83t75 -84t86 -30z" />
    <glyph glyph-name="Racute.ss01" horiz-adv-x="1370" 
d="M731 684q123 0 201 71.5t78 171t-57.5 157t-159.5 57.5h-144l-63 -457h145zM1272 264q49 0 65 2l-37 -266q-53 -18 -153 -18t-174 40q-74 42 -117 100q-44 58 -76 118q-78 142 -139 145h-98l-54 -385h-339l202 1440h504q233 0 368.5 -127t135.5 -336q0 -172 -86 -306
t-238 -210q37 -29 75 -83t75 -84t86 -30zM1171 1688l-557 -152l-61 197l532 239z" />
    <glyph glyph-name="Rcaron.ss01" horiz-adv-x="1370" 
d="M731 684q123 0 201 71.5t78 171t-57.5 157t-159.5 57.5h-144l-63 -457h145zM1272 264q49 0 65 2l-37 -266q-53 -18 -153 -18t-174 40q-74 42 -117 100q-44 58 -76 118q-78 142 -139 145h-98l-54 -385h-339l202 1440h504q233 0 368.5 -127t135.5 -336q0 -172 -86 -306
t-238 -210q37 -29 75 -83t75 -84t86 -30zM956 1552h-245l-236 371h301l94 -139l136 139h303z" />
    <glyph glyph-name="Rcommaaccent.ss01" horiz-adv-x="1370" 
d="M684 -59q80 0 129 -50.5t51 -146t-60.5 -190.5t-166.5 -140l-80 92q94 63 94 129q-4 -2 -22 -2q-47 0 -85 39t-40 108t49 115t131 46zM731 684q123 0 201 71.5t78 171t-57.5 157t-159.5 57.5h-144l-63 -457h145zM1272 264q49 0 65 2l-37 -266q-53 -18 -153 -18t-174 40
q-74 42 -117 100q-44 58 -76 118q-78 142 -139 145h-98l-54 -385h-339l202 1440h504q233 0 368.5 -127t135.5 -336q0 -172 -86 -306t-238 -210q37 -29 75 -83t75 -84t86 -30z" />
    <glyph glyph-name="Y.ss01" horiz-adv-x="1355" 
d="M779 729q132 0 208 91t94 227l56 393h344l-51 -367q-37 -262 -173.5 -424t-347.5 -209l-61 -440h-346l61 442q-193 49 -283 210t-53 421l52 367h344l-56 -393q-18 -135 31 -226.5t181 -91.5z" />
    <glyph glyph-name="Yacute.ss01" horiz-adv-x="1355" 
d="M779 729q132 0 208 91t94 227l56 393h344l-51 -367q-37 -262 -173.5 -424t-347.5 -209l-61 -440h-346l61 442q-193 49 -283 210t-53 421l52 367h344l-56 -393q-18 -135 31 -226.5t181 -91.5zM1227 1688l-557 -152l-62 197l533 239z" />
    <glyph glyph-name="Ycircumflex.ss01" horiz-adv-x="1355" 
d="M779 729q132 0 208 91t94 227l56 393h344l-51 -367q-37 -262 -173.5 -424t-347.5 -209l-61 -440h-346l61 442q-193 49 -283 210t-53 421l52 367h344l-56 -393q-18 -135 31 -226.5t181 -91.5zM901 1692l-135 -140h-303l352 371h246l235 -371h-301z" />
    <glyph glyph-name="Ydieresis.ss01" horiz-adv-x="1355" 
d="M779 729q132 0 208 91t94 227l56 393h344l-51 -367q-37 -262 -173.5 -424t-347.5 -209l-61 -440h-346l61 442q-193 49 -283 210t-53 421l52 367h344l-56 -393q-18 -135 31 -226.5t181 -91.5zM1138 1569q-76 0 -118.5 44t-42.5 121.5t60.5 134t136.5 56.5t118.5 -44
t42.5 -122t-60.5 -134t-136.5 -56zM653 1569q-76 0 -118.5 44t-42.5 121.5t60 134t136 56.5t119 -44t43 -122t-60.5 -134t-136.5 -56z" />
    <glyph glyph-name="Ygrave.ss01" horiz-adv-x="1355" 
d="M779 729q132 0 208 91t94 227l56 393h344l-51 -367q-37 -262 -173.5 -424t-347.5 -209l-61 -440h-346l61 442q-193 49 -283 210t-53 421l52 367h344l-56 -393q-18 -135 31 -226.5t181 -91.5zM1208 1743l-94 -199l-518 133l125 293z" />
    <glyph glyph-name="uni1EF8.ss01" horiz-adv-x="1355" 
d="M779 729q132 0 208 91t94 227l56 393h344l-51 -367q-37 -262 -173.5 -424t-347.5 -209l-61 -440h-346l61 442q-193 49 -283 210t-53 421l52 367h344l-56 -393q-18 -135 31 -226.5t181 -91.5zM763 1649q-42 0 -73 -21.5t-41 -42.5l-10 -20l-162 151q34 56 118.5 121.5
t199.5 65.5q68 0 145.5 -50.5t118.5 -50.5t71.5 28t44 52.5t13.5 28.5l162 -148q-2 -16 -37 -63t-115 -98.5t-161 -51.5t-156.5 49.5t-117.5 49.5z" />
    <glyph glyph-name="ae.001" horiz-adv-x="1646" 
d="M504 186q59 0 109 39t61 101q-53 29 -123 28q-135 0 -135 -90q0 -78 88 -78zM1225 709q-131 0 -185 -129h320q-2 57 -37 93t-98 36zM1657 543q0 -89 -23 -158h-616q29 -133 201 -133q139 0 223 63l119 -204q-184 -129 -402.5 -129t-335.5 178q-139 -178 -395 -178
q-176 0 -262 69.5t-86 196.5t109.5 207t265 80t243.5 -37l4 30q12 88 -32.5 134.5t-150.5 46.5t-214 -58l-78 219q184 90 391 90.5t318 -116.5q137 117 323 117t292 -112.5t106 -305.5z" />
    <glyph glyph-name="i.loclTRK" horiz-adv-x="534" 
d="M104 0l134 942h325l-133 -942h-326zM431 1090q-89 0 -143.5 49t-54.5 135t61.5 146.5t151 60.5t142.5 -49.5t53 -135t-60.5 -146t-149.5 -60.5z" />
    <glyph glyph-name="a.ss01" horiz-adv-x="1046" 
d="M504 186q59 0 109 39.5t61 100.5q-53 29 -123 28q-135 0 -135 -98q0 -70 88 -70zM619 961q216 0 327 -108t80 -327l-74 -526h-256l4 121q-104 -139 -325 -139q-135 0 -214 65.5t-79 189t111.5 211t263 87.5t241.5 -39l4 32q12 88 -32.5 134.5t-151.5 46.5t-221 -56
l-70 217q176 91 392 91z" />
    <glyph glyph-name="aacute.ss01" horiz-adv-x="1046" 
d="M504 186q59 0 109 39.5t61 100.5q-53 29 -123 28q-135 0 -135 -98q0 -70 88 -70zM619 961q216 0 327 -108t80 -327l-74 -526h-256l4 121q-104 -139 -325 -139q-135 0 -214 65.5t-79 189t111.5 211t263 87.5t241.5 -39l4 32q12 88 -32.5 134.5t-151.5 46.5t-221 -56
l-70 217q176 91 392 91zM977 1257l-488 -208l-92 180l457 289z" />
    <glyph glyph-name="abreve.ss01" horiz-adv-x="1046" 
d="M504 186q59 0 109 39.5t61 100.5q-53 29 -123 28q-135 0 -135 -98q0 -70 88 -70zM619 961q216 0 327 -108t80 -327l-74 -526h-256l4 121q-104 -139 -325 -139q-135 0 -214 65.5t-79 189t111.5 211t263 87.5t241.5 -39l4 32q12 88 -32.5 134.5t-151.5 46.5t-221 -56
l-70 217q176 91 392 91zM663 1092q-157 0 -241 97t-62 259h246q-10 -66 13.5 -105.5t72.5 -39.5t84 39.5t45 105.5h244q-23 -162 -134 -259t-268 -97z" />
    <glyph glyph-name="acircumflex.ss01" horiz-adv-x="1046" 
d="M504 186q59 0 109 39.5t61 100.5q-53 29 -123 28q-135 0 -135 -98q0 -70 88 -70zM619 961q216 0 327 -108t80 -327l-74 -526h-256l4 121q-104 -139 -325 -139q-135 0 -214 65.5t-79 189t111.5 211t263 87.5t241.5 -39l4 32q12 88 -32.5 134.5t-151.5 46.5t-221 -56
l-70 217q176 91 392 91zM678 1255l-141 -168h-263l318 383h246l200 -383h-260z" />
    <glyph glyph-name="adieresis.ss01" horiz-adv-x="1046" 
d="M504 186q59 0 109 39.5t61 100.5q-53 29 -123 28q-135 0 -135 -98q0 -70 88 -70zM619 961q216 0 327 -108t80 -327l-74 -526h-256l4 121q-104 -139 -325 -139q-135 0 -214 65.5t-79 189t111.5 211t263 87.5t241.5 -39l4 32q12 88 -32.5 134.5t-151.5 46.5t-221 -56
l-70 217q176 91 392 91zM893 1110q-76 0 -118 44t-42 122t60.5 134t136.5 56t118 -44t42 -121.5t-60.5 -134t-136.5 -56.5zM450 1116q-76 0 -118.5 44t-42.5 122t61.5 134.5t136.5 56.5t117.5 -44.5t42.5 -122t-60.5 -134t-136.5 -56.5z" />
    <glyph glyph-name="agrave.ss01" horiz-adv-x="1046" 
d="M504 186q59 0 109 39.5t61 100.5q-53 29 -123 28q-135 0 -135 -98q0 -70 88 -70zM619 961q216 0 327 -108t80 -327l-74 -526h-256l4 121q-104 -139 -325 -139q-135 0 -214 65.5t-79 189t111.5 211t263 87.5t241.5 -39l4 32q12 88 -32.5 134.5t-151.5 46.5t-221 -56
l-70 217q176 91 392 91zM963 1229l-134 -180l-430 208l183 267z" />
    <glyph glyph-name="amacron.ss01" horiz-adv-x="1046" 
d="M504 186q59 0 109 39.5t61 100.5q-53 29 -123 28q-135 0 -135 -98q0 -70 88 -70zM619 961q216 0 327 -108t80 -327l-74 -526h-256l4 121q-104 -139 -325 -139q-135 0 -214 65.5t-79 189t111.5 211t263 87.5t241.5 -39l4 32q12 88 -32.5 134.5t-151.5 46.5t-221 -56
l-70 217q176 91 392 91zM1022 1364l-35 -248h-639l35 248h639z" />
    <glyph glyph-name="aogonek.ss01" horiz-adv-x="1046" 
d="M504 186q59 0 109 39.5t61 100.5q-53 29 -123 28q-135 0 -135 -98q0 -70 88 -70zM537 -291q0 166 159 293l4 119q-104 -139 -325 -139q-135 0 -214 65.5t-79 189t111.5 211t263 87.5t241.5 -39l4 32q12 88 -32.5 134.5t-151.5 46.5t-221 -56l-70 217q176 90 392 90.5
t327 -107.5t80 -327l-74 -526q-6 -4 -18 -10q-48 -24 -101 -79.5t-53 -120.5t68 -64q23 0 55 20l55 -168q-98 -66 -201.5 -65.5t-161.5 53.5t-58 143z" />
    <glyph glyph-name="aring.ss01" horiz-adv-x="1046" 
d="M504 186q59 0 109 39.5t61 100.5q-53 29 -123 28q-135 0 -135 -98q0 -70 88 -70zM619 961q216 0 327 -108t80 -327l-74 -526h-256l4 121q-104 -139 -325 -139q-135 0 -214 65.5t-79 189t111.5 211t263 87.5t241.5 -39l4 32q12 88 -32.5 134.5t-151.5 46.5t-221 -56
l-70 217q176 91 392 91zM616 1296q0 -82 69 -82q34 0 59.5 31t25.5 74q0 74 -63 74q-39 0 -65 -29t-26 -68zM668.5 1049q-113.5 0 -177 61t-63.5 172t88 192.5t201.5 81.5t176 -61t62.5 -172t-87 -192.5t-200.5 -81.5z" />
    <glyph glyph-name="atilde.ss01" horiz-adv-x="1046" 
d="M504 186q59 0 109 39.5t61 100.5q-53 29 -123 28q-135 0 -135 -98q0 -70 88 -70zM619 961q216 0 327 -108t80 -327l-74 -526h-256l4 121q-104 -139 -325 -139q-135 0 -214 65.5t-79 189t111.5 211t263 87.5t241.5 -39l4 32q12 88 -32.5 134.5t-151.5 46.5t-221 -56
l-70 217q176 91 392 91zM551 1190q-39 0 -69.5 -19.5t-41.5 -40.5l-10 -18l-162 152l15 18q65 110 179 158q48 20 111.5 20t138 -47t111.5 -47t68 23.5t43 46.5l12 22l162 -147q-6 -32 -63 -93q-111 -120 -240 -120q-74 0 -144.5 46t-109.5 46z" />
    <glyph glyph-name="a.sc" horiz-adv-x="1124" 
d="M504 362h215l-66 308zM795 0l-33 160h-356l-78 -160h-332l612 1067h211l307 -1067h-331z" />
    <glyph glyph-name="aacute.sc" horiz-adv-x="1124" 
d="M504 362h215l-66 308zM795 0l-33 160h-356l-78 -160h-332l612 1067h211l307 -1067h-331zM1034 1317l-499 -191l-86 195l462 256z" />
    <glyph glyph-name="abreve.sc" horiz-adv-x="1124" 
d="M504 362h215l-66 308zM795 0l-33 160h-356l-78 -160h-332l612 1067h211l307 -1067h-331zM718 1167q-153 0 -235 93.5t-59 250.5h246q-10 -59 11 -94t69 -35q96 0 116 129h246q-23 -158 -132 -251t-262 -93z" />
    <glyph glyph-name="acircumflex.sc" horiz-adv-x="1124" 
d="M504 362h215l-66 308zM795 0l-33 160h-356l-78 -160h-332l612 1067h211l307 -1067h-331zM735 1319l-135 -154h-262l307 357h246l199 -357h-261z" />
    <glyph glyph-name="adieresis.sc" horiz-adv-x="1124" 
d="M504 362h215l-66 308zM608 1067h211l307 -1067h-331l-33 160h-356l-78 -160h-332zM966 1169q-79 0 -126 43t-47 118t54 129t133 54t125 -43t46 -119.5t-53 -129t-132 -52.5zM486 1169q-79 0 -126 43t-47 118t54.5 129t133.5 54t125 -43t46 -119.5t-53.5 -129
t-132.5 -52.5z" />
    <glyph glyph-name="agrave.sc" horiz-adv-x="1124" 
d="M504 362h215l-66 308zM795 0l-33 160h-356l-78 -160h-332l612 1067h211l307 -1067h-331zM1012 1321l-97 -191l-489 187l123 260z" />
    <glyph glyph-name="amacron.sc" horiz-adv-x="1124" 
d="M504 362h215l-66 308zM795 0l-33 160h-356l-78 -160h-332l612 1067h211l307 -1067h-331zM1075 1458l-35 -248h-632l34 248h633z" />
    <glyph glyph-name="aogonek.sc" horiz-adv-x="1124" 
d="M504 362h215l-66 308zM989 -274q25 0 58 20l79 -168q-82 -66 -197.5 -65.5t-180 53.5t-64.5 153q0 158 156 281h-45l-33 160h-356l-78 -160h-332l612 1067h211l307 -1067h-34q-6 -4 -18 -10q-51 -25 -102.5 -73.5t-51.5 -109.5q-1 -81 69 -81z" />
    <glyph glyph-name="aring.sc" horiz-adv-x="1124" 
d="M504 362h215l-66 308zM795 0l-33 160h-356l-78 -160h-332l612 1067h211l307 -1067h-331zM668 1359q0 -83 70 -83q34 0 59.5 30.5t25.5 73.5q0 74 -63 74q-39 0 -65.5 -27.5t-26.5 -67.5zM727.5 1110q-116.5 0 -181.5 62.5t-65 174t85 191.5t199.5 80t179.5 -62.5t65 -176
t-83 -191.5t-199.5 -78z" />
    <glyph glyph-name="atilde.sc" horiz-adv-x="1124" 
d="M504 362h215l-66 308zM608 1067h211l307 -1067h-331l-33 160h-356l-78 -160h-332zM582 1239q-47 0 -74 -25.5t-33 -48.5l-184 152q15 50 58.5 103t98 76.5t122 23.5t151.5 -37t132 -37t75.5 27.5t32.5 58.5l182 -148q-9 -37 -71 -116q-32 -41 -90 -71t-129 -30t-147.5 36
t-123.5 36z" />
    <glyph glyph-name="ae.sc" horiz-adv-x="1470" 
d="M563 428h146l47 334zM-6 0l637 1067h895l-39 -276h-420l-16 -125h364l-37 -256h-364l-19 -136h420l-39 -274h-727l25 172h-250l-94 -172h-336z" />
    <glyph glyph-name="aeacute.sc" horiz-adv-x="1470" 
d="M563 428h146l47 334zM-6 0l637 1067h895l-39 -276h-420l-16 -125h364l-37 -256h-364l-19 -136h420l-39 -274h-727l25 172h-250l-94 -172h-336zM901 1118l-86 195l463 256l123 -260z" />
    <glyph glyph-name="b.sc" horiz-adv-x="1073" 
d="M627 242q63 0 96 28t33 76q0 82 -109 82h-164l-26 -186h170zM651 655q121 0 121 99q0 74 -94 73h-139l-23 -172h135zM1051 338q0 -338 -469 -338h-461l149 1067h459q176 0 262 -68t86 -174q0 -107 -51 -175t-135 -97q160 -45 160 -215z" />
    <glyph glyph-name="c.sc" horiz-adv-x="1026" 
d="M634 -18q-222 0 -360.5 138t-138.5 347q0 276 183.5 447t429.5 171t372 -120l-172 -248q-84 70 -201.5 69.5t-194.5 -77t-77 -191t58.5 -175t159.5 -62.5t202 73l121 -248q-160 -124 -382 -124z" />
    <glyph glyph-name="cacute.sc" horiz-adv-x="1026" 
d="M634 -18q-222 0 -360.5 138t-138.5 347q0 276 183.5 447t429.5 171t372 -120l-172 -248q-84 70 -201.5 69.5t-194.5 -77t-77 -191t58.5 -175t159.5 -62.5t202 73l121 -248q-160 -124 -382 -124zM575 1126l-86 195l463 256l123 -260z" />
    <glyph glyph-name="ccaron.sc" horiz-adv-x="1026" 
d="M747 786q-118 0 -195 -76.5t-77 -191t58.5 -175t159.5 -62.5t202 73l121 -248q-160 -125 -382 -124.5t-360.5 138.5t-138.5 347q0 276 183.5 447t429.5 171t372 -120l-172 -248q-83 69 -201 69zM877 1165h-246l-199 357h260l94 -154l136 154h262z" />
    <glyph glyph-name="ccedilla.sc" horiz-adv-x="1026" 
d="M842 -272q0 -109 -78 -176.5t-219 -67.5q-70 0 -134.5 28.5t-86.5 51.5l84 135q66 -49 144.5 -49t78.5 78q0 66 -92 65q-20 0 -74 -8l-21 33l86 174q-180 33 -287.5 163t-107.5 312q0 276 183.5 447t429.5 171t372 -120l-172 -248q-84 70 -201.5 69.5t-194.5 -77
t-77 -191t58.5 -175t159.5 -62.5t202 73l121 -248q-129 -102 -303 -120l-41 -78q78 -8 124 -56.5t46 -123.5z" />
    <glyph glyph-name="cdotaccent.sc" horiz-adv-x="1026" 
d="M634 -18q-222 0 -360.5 138t-138.5 347q0 276 183.5 447t429.5 171t372 -120l-172 -248q-84 70 -201.5 69.5t-194.5 -77t-77 -191t58.5 -175t159.5 -62.5t202 73l121 -248q-160 -124 -382 -124zM775 1165q-87 0 -139 47.5t-52 129t59 141t144.5 59.5t137.5 -47t52 -130
t-57.5 -141.5t-144.5 -58.5z" />
    <glyph glyph-name="d.sc" horiz-adv-x="1193" 
d="M610 283q123 0 195 80.5t72 194.5q0 228 -195 228h-131l-70 -503h129zM727 1067q221 0 351 -125t130 -334q0 -266 -178 -437t-452 -171h-459l149 1067h459z" />
    <glyph glyph-name="eth.sc" horiz-adv-x="1193" 
d="M610 283q123 0 195 80.5t72 194.5q0 228 -195 228h-131l-19 -135h170l-30 -219h-170l-21 -149h129zM727 1067q221 0 351 -125t130 -334q0 -266 -178 -437t-452 -171h-459l61 432h-108l30 219h109l57 416h459z" />
    <glyph glyph-name="dcaron.sc" horiz-adv-x="1193" 
d="M610 283q123 0 195 80.5t72 194.5q0 228 -195 228h-131l-70 -503h129zM727 1067q221 0 351 -125t130 -334q0 -266 -178 -437t-452 -171h-459l149 1067h459zM817 1165h-246l-198 357h260l94 -154l135 154h262z" />
    <glyph glyph-name="dcroat.sc" horiz-adv-x="1193" 
d="M610 283q123 0 195 80.5t72 194.5q0 228 -195 228h-131l-19 -135h170l-30 -219h-170l-21 -149h129zM727 1067q221 0 351 -125t130 -334q0 -266 -178 -437t-452 -171h-459l61 432h-108l30 219h109l57 416h459z" />
    <glyph glyph-name="e.sc" horiz-adv-x="978" 
d="M999 799h-456l-19 -133h400l-37 -256h-400l-20 -142h457l-37 -268h-764l149 1067h764z" />
    <glyph glyph-name="eacute.sc" horiz-adv-x="978" 
d="M999 799h-456l-19 -133h400l-37 -256h-400l-20 -142h457l-37 -268h-764l149 1067h764zM987 1317l-500 -191l-86 195l463 256z" />
    <glyph glyph-name="ecaron.sc" horiz-adv-x="978" 
d="M123 0l149 1067h764l-37 -268h-456l-19 -133h400l-37 -256h-400l-20 -142h457l-37 -268h-764zM788 1165h-245l-199 357h260l94 -154l136 154h262z" />
    <glyph glyph-name="ecircumflex.sc" horiz-adv-x="978" 
d="M123 0l149 1067h764l-37 -268h-456l-19 -133h400l-37 -256h-400l-20 -142h457l-37 -268h-764zM688 1319l-135 -154h-262l307 357h246l198 -357h-260z" />
    <glyph glyph-name="edieresis.sc" horiz-adv-x="978" 
d="M123 0l149 1067h764l-37 -268h-456l-19 -133h400l-37 -256h-400l-20 -142h457l-37 -268h-764zM933 1513q79 0 125 -43t46 -119.5t-52.5 -129t-132.5 -52.5t-127 43t-47 118t54.5 129t133.5 54zM440 1169q-80 0 -127 43t-47 118t54.5 129t133.5 54t125 -43t46 -119.5
t-52.5 -129t-132.5 -52.5z" />
    <glyph glyph-name="edotaccent.sc" horiz-adv-x="978" 
d="M999 799h-456l-19 -133h400l-37 -256h-400l-20 -142h457l-37 -268h-764l149 1067h764zM687 1165q-87 0 -139 47.5t-52 129t59 141t144 59.5t137.5 -47t52.5 -130t-57.5 -141.5t-144.5 -58.5z" />
    <glyph glyph-name="egrave.sc" horiz-adv-x="978" 
d="M999 799h-456l-19 -133h400l-37 -256h-400l-20 -142h457l-37 -268h-764l149 1067h764zM965 1321l-97 -191l-489 187l123 260z" />
    <glyph glyph-name="emacron.sc" horiz-adv-x="978" 
d="M999 799h-456l-19 -133h400l-37 -256h-400l-20 -142h457l-37 -268h-764l149 1067h764zM1028 1458l-35 -248h-633l35 248h633z" />
    <glyph glyph-name="eogonek.sc" horiz-adv-x="978" 
d="M715 -193q0 -82 69 -81q25 0 58 20l80 -168q-82 -66 -197.5 -65.5t-180.5 53.5t-65 153q0 158 156 281h-512l149 1067h764l-37 -268h-456l-19 -133h400l-37 -256h-400l-20 -142h457l-37 -268q-7 -4 -19 -10q-49 -24 -101 -73.5t-52 -109.5z" />
    <glyph glyph-name="f.sc" horiz-adv-x="946" 
d="M997 786h-446l-29 -206h373l-41 -283h-373l-41 -297h-321l149 1067h768z" />
    <glyph glyph-name="g.sc" horiz-adv-x="1138" 
d="M135 467q0 264 177 441t476 177q198 0 342 -98l27 -16l-176 -254q-11 11 -28 19t-33 16q-67 35 -188 34.5t-192 -82t-71 -198.5t59.5 -177.5t138 -60t121.5 20.5l41 295h295l-65 -478q-172 -125 -409 -124.5t-376 138.5t-139 347z" />
    <glyph glyph-name="gbreve.sc" horiz-adv-x="1138" 
d="M540 704.5q-71 -81.5 -71 -198.5t59.5 -177.5t157.5 -60.5q59 0 102 21l41 295h295l-65 -478q-172 -125 -409 -124.5t-376 138.5t-139 347q0 264 177 441t476 177q198 0 342 -98l27 -16l-176 -254q-11 11 -28 19t-33 16q-67 35 -188 34.5t-192 -82zM773 1167
q-153 0 -234.5 93.5t-59.5 250.5h246q-10 -59 11.5 -94t68.5 -35q96 0 117 129h245q-23 -158 -132 -251t-262 -93z" />
    <glyph glyph-name="gcommaaccent.sc" horiz-adv-x="1138" 
d="M617 -78q78 0 118.5 -43t40.5 -115q0 -113 -77.5 -218t-204.5 -158l-70 94q123 84 127 119q-8 -2 -23 -2q-47 0 -76.5 33.5t-29.5 104.5t58.5 128t136.5 57zM135 467q0 264 177 441t476 177q198 0 342 -98l27 -16l-176 -254q-11 11 -28 19t-33 16q-67 35 -188 34.5
t-192 -82t-71 -198.5t59.5 -177.5t138 -60t121.5 20.5l41 295h295l-65 -478q-172 -125 -409 -124.5t-376 138.5t-139 347z" />
    <glyph glyph-name="gdotaccent.sc" horiz-adv-x="1138" 
d="M135 467q0 264 177 441t476 177q198 0 342 -98l27 -16l-176 -254q-11 11 -28 19t-33 16q-67 35 -188 34.5t-192 -82t-71 -198.5t59.5 -177.5t138 -60t121.5 20.5l41 295h295l-65 -478q-172 -125 -409 -124.5t-376 138.5t-139 347zM789 1165q-87 0 -139 47.5t-52 129
t59.5 141t144.5 59.5t137 -47t52 -130t-57.5 -141.5t-144.5 -58.5z" />
    <glyph glyph-name="h.sc" horiz-adv-x="1247" 
d="M956 1067h322l-150 -1067h-321l53 375h-330l-53 -375h-358l149 1067h359l-56 -389h330z" />
    <glyph glyph-name="hbar.sc" horiz-adv-x="1247" 
d="M901 678l10 72h-329l-11 -72h330zM1356 965l-25 -215h-98l-105 -750h-321l53 375h-330l-53 -375h-358l104 750h-96l27 215h100l14 102h359l-15 -102h330l14 102h322l-14 -102h92z" />
    <glyph glyph-name="i.sc" horiz-adv-x="559" 
d="M119 0l149 1067h322l-150 -1067h-321z" />
    <glyph glyph-name="dotlessi.sc" horiz-adv-x="559" 
d="M119 0l149 1067h322l-150 -1067h-321z" />
    <glyph glyph-name="iacute.sc" horiz-adv-x="559" 
d="M119 0l149 1067h322l-150 -1067h-321zM258 1126l-86 195l463 256l123 -260z" />
    <glyph glyph-name="icircumflex.sc" horiz-adv-x="559" 
d="M119 0l149 1067h322l-150 -1067h-321zM459 1319l-135 -154h-263l308 357h245l199 -357h-260z" />
    <glyph glyph-name="idieresis.sc" horiz-adv-x="559" 
d="M119 0l149 1067h322l-150 -1067h-321zM690 1169q-80 0 -127 43t-47 118t54.5 129t133.5 54t124.5 -43t45.5 -119.5t-52 -129t-132 -52.5zM211 1169q-80 0 -127 43t-47 118t54 129t133 54t125 -43t46 -119.5t-52 -129t-132 -52.5z" />
    <glyph glyph-name="igrave.sc" horiz-adv-x="559" 
d="M119 0l149 1067h322l-150 -1067h-321zM639 1130l-489 187l122 260l463 -256z" />
    <glyph glyph-name="ij.sc" horiz-adv-x="1353" 
d="M845 -18q-172 0 -280 69l158 271q51 -27 108 -27t101.5 38t54.5 113l88 621h320l-95 -670q-27 -195 -155 -305t-300 -110zM119 0l149 1067h322l-150 -1067h-321z" />
    <glyph glyph-name="imacron.sc" horiz-adv-x="559" 
d="M119 0l149 1067h322l-150 -1067h-321zM190 1210l27 248h508l-29 -248h-506z" />
    <glyph glyph-name="iogonek.sc" horiz-adv-x="559" 
d="M330 -274q25 0 57 20l80 -168q-82 -66 -197.5 -65.5t-180 53.5t-64.5 153q0 158 155 281h-61l149 1067h322l-150 -1067h-8q-6 -4 -18 -10q-49 -24 -101.5 -73.5t-52.5 -109.5q0 -81 70 -81z" />
    <glyph glyph-name="itilde.sc" horiz-adv-x="559" 
d="M119 0l149 1067h322l-150 -1067h-321zM557.5 1167q-65.5 0 -127 36t-92.5 36t-59 -20t-33 -54l-148 152q12 50 47 103t79 76.5t97.5 23.5t121 -37t105.5 -37t60.5 27.5t26.5 58.5l145 -148q-20 -88 -88.5 -152.5t-134 -64.5z" />
    <glyph glyph-name="j.sc" horiz-adv-x="794" 
d="M286 -18q-172 0 -280 69l158 271q51 -27 108 -27t102 38q44 38 54 113l88 621h320l-95 -670q-27 -195 -155 -305t-300 -110z" />
    <glyph glyph-name="uni0237.sc" horiz-adv-x="794" 
d="M286 -18q-172 0 -280 69l158 271q51 -27 108 -27t102 38q44 38 54 113l88 621h320l-95 -670q-27 -195 -155 -305t-300 -110z" />
    <glyph glyph-name="k.sc" horiz-adv-x="1126" 
d="M1253 1067l-440 -535l309 -532h-399l-225 406l-58 -406h-321l149 1067h322l-62 -434l351 434h374z" />
    <glyph glyph-name="kcommaaccent.sc" horiz-adv-x="1126" 
d="M547 -78q78 0 119 -43t41 -115q0 -113 -78 -218t-205 -158l-70 94q123 84 127 119q-8 -2 -22 -2q-47 0 -77 33.5t-30 104.5t58.5 128t136.5 57zM1253 1067l-440 -535l309 -532h-399l-225 406l-58 -406h-321l149 1067h322l-62 -434l351 434h374z" />
    <glyph glyph-name="kgreenlandic.sc" horiz-adv-x="1126" 
d="M1253 1067l-440 -535l309 -532h-399l-225 406l-58 -406h-321l149 1067h322l-62 -434l351 434h374z" />
    <glyph glyph-name="l.sc" horiz-adv-x="927" 
d="M479 281h457l-39 -281h-778l149 1067h322z" />
    <glyph glyph-name="lacute.sc" horiz-adv-x="927" 
d="M479 281h457l-39 -281h-778l149 1067h322zM752 1317l-500 -191l-86 195l463 256z" />
    <glyph glyph-name="lcaron.sc" horiz-adv-x="927" 
d="M780 723q-55 0 -89 37q-34 38 -34 114t63.5 134.5t151.5 58.5t131.5 -46t43.5 -124q0 -129 -89.5 -253t-228.5 -187l-70 100q137 92 148 168q-7 -2 -27 -2zM590 1067l-111 -786h457l-39 -281h-778l149 1067h322z" />
    <glyph glyph-name="lcommaaccent.sc" horiz-adv-x="927" 
d="M482 -78q78 0 118.5 -43t40.5 -115q0 -113 -78 -218t-205 -158l-69 94q123 84 127 119q-8 -2 -23 -2q-47 0 -76.5 33.5t-29.5 104.5t58.5 128t136.5 57zM479 281h457l-39 -281h-778l149 1067h322z" />
    <glyph glyph-name="ldot.sc" horiz-adv-x="927" 
d="M852 850q86 0 138 -47t52 -130t-58 -142.5t-145 -59.5t-139.5 47t-52.5 130t59.5 142.5t145.5 59.5zM590 1067l-111 -786h457l-39 -281h-778l149 1067h322z" />
    <glyph glyph-name="lslash.sc" horiz-adv-x="927" 
d="M479 281h457l-39 -281h-778l57 416l-108 -58l-95 211l244 129l51 369h322l-27 -186l139 73l97 -211l-275 -145z" />
    <glyph glyph-name="m.sc" horiz-adv-x="1411" 
d="M1241 1067h186l-127 -1067h-296l67 442l-270 -372h-168l-174 387l-53 -457h-295l174 1067h196l293 -641z" />
    <glyph glyph-name="n.sc" horiz-adv-x="1251" 
d="M973 1067h307l-152 -1075h-170l-450 551l-76 -543h-309l151 1073h172l451 -547z" />
    <glyph glyph-name="nacute.sc" horiz-adv-x="1251" 
d="M973 1067h307l-152 -1075h-170l-450 551l-76 -543h-309l151 1073h172l451 -547zM1098 1317l-500 -191l-86 195l463 256z" />
    <glyph glyph-name="napostrophe.sc" horiz-adv-x="1251" 
d="M973 1067h307l-152 -1075h-170l-450 551l-76 -543h-309l151 1073h172l451 -547zM301 1356q0 -129 -89 -253t-228 -188l-70 101q137 92 147 168q-6 -2 -26 -2q-55 0 -89 36.5t-34 113.5t63.5 135.5t150.5 58.5t131 -46t44 -124z" />
    <glyph glyph-name="ncaron.sc" horiz-adv-x="1251" 
d="M973 1067h307l-152 -1075h-170l-450 551l-76 -543h-309l151 1073h172l451 -547zM899 1165h-246l-198 357h260l94 -154l135 154h262z" />
    <glyph glyph-name="ncommaaccent.sc" horiz-adv-x="1251" 
d="M639 -78q78 0 119 -43t41 -115q0 -113 -78 -218t-205 -158l-70 94q123 84 127 119q-8 -2 -22 -2q-47 0 -77 33.5t-30 104.5t58.5 128t136.5 57zM973 1067h307l-152 -1075h-170l-450 551l-76 -543h-309l151 1073h172l451 -547z" />
    <glyph glyph-name="eng.sc" horiz-adv-x="1314" 
d="M692 -418q-137 0 -205 47l121 289q33 -18 76 -18q121 0 139 131l17 106l-332 406l-76 -543h-309l151 1073h172l451 -547l76 541h307l-152 -1075q-27 -195 -124 -302.5t-312 -107.5z" />
    <glyph glyph-name="ntilde.sc" horiz-adv-x="1251" 
d="M973 1067h307l-152 -1075h-170l-450 551l-76 -543h-309l151 1073h172l451 -547zM645 1239q-47 0 -73.5 -25.5t-32.5 -48.5l-185 152q15 51 59 103.5t98 76t121.5 23.5t151.5 -37t132 -37t76 27.5t32 58.5l182 -148q-8 -36 -70 -116q-32 -41 -90.5 -71t-129 -30t-147.5 36
t-124 36z" />
    <glyph glyph-name="o.sc" horiz-adv-x="1251" 
d="M688.5 285q106.5 0 174 82t67.5 190t-53.5 167.5t-160 59.5t-176 -80.5t-69.5 -188t55.5 -169t162 -61.5zM645 -18q-227 0 -368.5 141t-141.5 364q0 262 174 430t451 168q229 0 368.5 -137t139.5 -362q0 -266 -174.5 -435t-448.5 -169z" />
    <glyph glyph-name="oacute.sc" horiz-adv-x="1251" 
d="M688.5 285q106.5 0 174 82t67.5 190t-53.5 167.5t-160 59.5t-176 -80.5t-69.5 -188t55.5 -169t162 -61.5zM645 -18q-227 0 -368.5 141t-141.5 364q0 262 174 430t451 168q229 0 368.5 -137t139.5 -362q0 -266 -174.5 -435t-448.5 -169zM606 1126l-86 195l463 256
l123 -260z" />
    <glyph glyph-name="ocircumflex.sc" horiz-adv-x="1251" 
d="M688.5 285q106.5 0 174 82t67.5 190t-53.5 167.5t-160 59.5t-176 -80.5t-69.5 -188t55.5 -169t162 -61.5zM760 1085q229 0 368.5 -137t139.5 -362q0 -266 -174 -435t-449 -169q-227 0 -368.5 141t-141.5 364q0 262 174.5 430t450.5 168zM807 1319l-135 -154h-262l307 357
h246l198 -357h-260z" />
    <glyph glyph-name="odieresis.sc" horiz-adv-x="1251" 
d="M688.5 285q106.5 0 174 82t67.5 190t-53.5 167.5t-160 59.5t-176 -80.5t-69.5 -188t55.5 -169t162 -61.5zM645 -18q-227 0 -368.5 141t-141.5 364q0 262 174 430t451 168q229 0 368.5 -137t139.5 -362q0 -266 -174.5 -435t-448.5 -169zM1038 1169q-80 0 -127 43t-47 118
t54.5 129t133.5 54t125 -43t46 -119.5t-52.5 -129t-132.5 -52.5zM559 1169q-80 0 -127 43t-47 118t54.5 129t133 54t124.5 -43t46 -119.5t-52 -129t-132 -52.5z" />
    <glyph glyph-name="ograve.sc" horiz-adv-x="1251" 
d="M688.5 285q106.5 0 174 82t67.5 190t-53.5 167.5t-160 59.5t-176 -80.5t-69.5 -188t55.5 -169t162 -61.5zM645 -18q-227 0 -368.5 141t-141.5 364q0 262 174 430t451 168q229 0 368.5 -137t139.5 -362q0 -266 -174.5 -435t-448.5 -169zM987 1130l-489 187l123 260
l462 -256z" />
    <glyph glyph-name="ohungarumlaut.sc" horiz-adv-x="1251" 
d="M688.5 285q106.5 0 174 82t67.5 190t-53.5 167.5t-160 59.5t-176 -80.5t-69.5 -188t55.5 -169t162 -61.5zM645 -18q-227 0 -368.5 141t-141.5 364q0 262 174 430t451 168q229 0 368.5 -137t139.5 -362q0 -266 -174.5 -435t-448.5 -169zM1053 1116l-179 103l185 405
l250 -143zM606 1116l-178 103l184 405l250 -143z" />
    <glyph glyph-name="omacron.sc" horiz-adv-x="1251" 
d="M688.5 285q106.5 0 174 82t67.5 190t-53.5 167.5t-160 59.5t-176 -80.5t-69.5 -188t55.5 -169t162 -61.5zM645 -18q-227 0 -368.5 141t-141.5 364q0 262 174 430t451 168q229 0 368.5 -137t139.5 -362q0 -266 -174.5 -435t-448.5 -169zM479 1210l35 248h633l-35 -248
h-633z" />
    <glyph glyph-name="uni01EB.sc" horiz-adv-x="1251" 
d="M716.5 784q-106.5 0 -176 -80.5t-69.5 -188t55.5 -169t162 -61.5t174 82t67.5 190t-53.5 167.5t-160 59.5zM360 -281q0 154 152 277q-172 41 -274.5 173t-102.5 318q0 262 174 430t451 168q229 0 368.5 -137t139.5 -369.5t-143.5 -396t-379.5 -194.5
q-150 -84 -149.5 -173.5t70.5 -88.5q25 0 57 20l80 -168q-82 -66 -197.5 -65.5t-180.5 53.5t-65 153z" />
    <glyph glyph-name="oslash.sc" horiz-adv-x="1251" 
d="M688.5 285q106.5 0 174 82t67.5 190t-53.5 167.5t-160 59.5t-176 -80.5t-69.5 -188t55.5 -169t162 -61.5zM1268 586q0 -266 -174 -435t-449 -169q-127 0 -231 47l-90 -99l-185 162l86 94q-90 129 -90 301q0 262 174 430t451 168q131 0 235 -47l95 105l182 -164l-88 -98
q84 -127 84 -295z" />
    <glyph glyph-name="oslashacute.sc" horiz-adv-x="1251" 
d="M688.5 285q106.5 0 174 82t67.5 190t-53.5 167.5t-160 59.5t-176 -80.5t-69.5 -188t55.5 -169t162 -61.5zM1268 586q0 -266 -174 -435t-449 -169q-127 0 -231 47l-90 -99l-185 162l86 94q-90 129 -90 301q0 262 174 430t451 168q131 0 235 -47l95 105l182 -164l-88 -98
q84 -127 84 -295zM1059 1317l-500 -191l-86 195l463 256z" />
    <glyph glyph-name="otilde.sc" horiz-adv-x="1251" 
d="M688.5 285q106.5 0 174 82t67.5 190t-53.5 167.5t-160 59.5t-176 -80.5t-69.5 -188t55.5 -169t162 -61.5zM645 -18q-227 0 -368.5 141t-141.5 364q0 262 174 430t451 168q229 0 368.5 -137t139.5 -362q0 -266 -174.5 -435t-448.5 -169zM925 1167q-71 0 -148 36t-123.5 36
t-73.5 -25.5t-33 -48.5l-185 152q15 51 59 103.5t98 76t122 23.5t152 -37t132 -37t75.5 27.5t31.5 58.5l182 -148q-10 -39 -56 -98t-104 -89t-129 -30z" />
    <glyph glyph-name="oe.sc" horiz-adv-x="1738" 
d="M688.5 285q106.5 0 174 82t67.5 190t-53.5 167.5t-160 59.5t-176 -80.5t-69.5 -188t55.5 -169t162 -61.5zM645 -18q-227 0 -368.5 141t-141.5 364q0 262 174 430t451 168q147 0 266 -61l6 43h764l-37 -268h-456l-19 -133h399l-36 -256h-400l-20 -142h456l-36 -268h-764
l4 23q-113 -41 -242 -41z" />
    <glyph glyph-name="p.sc" horiz-adv-x="1028" 
d="M596 522q82 0 126 48t44 110q0 126 -131 127h-96l-39 -285h96zM690 1067q182 0 282 -96t101 -258q0 -197 -144 -323t-376 -128h-90l-37 -262h-303l149 1067h418z" />
    <glyph glyph-name="thorn.sc" horiz-adv-x="1034" 
d="M567 408q76 0 123 42t47 103q0 121 -135 121h-59l-37 -266h61zM670 954q176 0 280 -103t105 -259q1 -201 -141 -334t-361 -133h-86l-18 -125h-330l149 1067h330l-16 -113h88z" />
    <glyph glyph-name="q.sc" horiz-adv-x="1251" 
d="M471 515.5q0 -107.5 55.5 -169t162 -61.5t174 82t67.5 190t-53.5 167.5t-160 59.5t-176 -80.5t-69.5 -188zM1268 586q0 -309 -226 -480l203 -178l-192 -217l-312 277q-45 -6 -96 -6q-227 0 -368.5 141t-141.5 364q0 262 174 430t451 168q229 0 368.5 -137t139.5 -362z
" />
    <glyph glyph-name="r.sc" horiz-adv-x="1087" 
d="M623 518q78 0 123 45t45 111q0 138 -138 137h-112l-41 -293h123zM1104 724q0 -272 -227 -394l170 -330h-349l-125 260h-110l-37 -260h-303l149 1067h445q180 0 283.5 -101.5t103.5 -241.5z" />
    <glyph glyph-name="racute.sc" horiz-adv-x="1087" 
d="M623 518q78 0 123 45t45 111q0 138 -138 137h-112l-41 -293h123zM1104 724q0 -272 -227 -394l170 -330h-349l-125 260h-110l-37 -260h-303l149 1067h445q180 0 283.5 -101.5t103.5 -241.5zM999 1317l-499 -191l-86 195l463 256z" />
    <glyph glyph-name="rcaron.sc" horiz-adv-x="1087" 
d="M623 518q78 0 123 45t45 111q0 138 -138 137h-112l-41 -293h123zM1104 724q0 -272 -227 -394l170 -330h-349l-125 260h-110l-37 -260h-303l149 1067h445q180 0 283.5 -101.5t103.5 -241.5zM801 1165h-246l-199 357h260l95 -154l135 154h262z" />
    <glyph glyph-name="rcommaaccent.sc" horiz-adv-x="1087" 
d="M529 -78q78 0 118.5 -43t40.5 -115q0 -113 -78 -218t-204 -158l-70 94q123 84 127 119q-8 -2 -23 -2q-47 0 -76.5 33.5t-29.5 104.5t58.5 128t136.5 57zM623 518q78 0 123 45t45 111q0 138 -138 137h-112l-41 -293h123zM1104 724q0 -272 -227 -394l170 -330h-349
l-125 260h-110l-37 -260h-303l149 1067h445q180 0 283.5 -101.5t103.5 -241.5z" />
    <glyph glyph-name="s.sc" horiz-adv-x="962" 
d="M479 -18q-262 0 -418 135l172 243q135 -106 285 -106q102 0 103 68q0 25 -33 45t-150.5 60t-180 107.5t-62.5 174.5q0 168 128 271t344.5 103t364.5 -125l-164 -231q-109 86 -264 86q-94 0 -94 -57q0 -20 28.5 -34.5t149.5 -52.5q248 -78 248 -290q0 -182 -123 -289.5
t-334 -107.5z" />
    <glyph glyph-name="sacute.sc" horiz-adv-x="962" 
d="M479 -18q-262 0 -418 135l172 243q135 -106 285 -106q102 0 103 68q0 25 -33 45t-150.5 60t-180 107.5t-62.5 174.5q0 168 128 271t344.5 103t364.5 -125l-164 -231q-109 86 -264 86q-94 0 -94 -57q0 -20 28.5 -34.5t149.5 -52.5q248 -78 248 -290q0 -182 -123 -289.5
t-334 -107.5zM483 1126l-86 195l463 256l123 -260z" />
    <glyph glyph-name="scaron.sc" horiz-adv-x="962" 
d="M604 813q-94 0 -94 -57q0 -20 28.5 -34.5t149.5 -52.5q248 -78 248 -290q0 -182 -123 -289.5t-334 -107.5q-262 0 -418 135l172 243q135 -106 285 -106q102 0 103 68q0 25 -33 45t-150.5 60t-180 107.5t-62.5 174.5q0 168 128 271t344.5 103t364.5 -125l-164 -231
q-108 86 -264 86zM784 1165h-245l-199 357h260l94 -154l135 154h263z" />
    <glyph glyph-name="scedilla.sc" horiz-adv-x="962" 
d="M936 379q0 -164 -102.5 -269.5t-280.5 -123.5l-41 -78q78 -8 124 -56.5t46 -123.5q0 -109 -78 -176.5t-219 -67.5q-70 0 -134.5 28.5t-86.5 51.5l84 135q66 -49 144.5 -49t78.5 78q0 66 -92 65q-20 0 -74 -8l-20 33l84 170q-184 25 -308 129l172 243q135 -106 285 -106
q102 0 103 68q0 25 -33 45t-150.5 60t-180 107.5t-62.5 174.5q0 168 128 271t344.5 103t364.5 -125l-164 -231q-109 86 -264 86q-94 0 -94 -57q0 -20 29 -34.5t149 -52.5q248 -78 248 -290z" />
    <glyph glyph-name="scommaaccent.sc" horiz-adv-x="962" 
d="M354 -401q-47 0 -76.5 33.5t-29.5 104.5t58.5 128t136.5 57t118.5 -43t40.5 -115q0 -113 -78 -218t-205 -158l-69 94q123 84 127 119q-8 -2 -23 -2zM479 -18q-262 0 -418 135l172 243q135 -106 285 -106q102 0 103 68q0 25 -33 45t-150.5 60t-180 107.5t-62.5 174.5
q0 168 128 271t344.5 103t364.5 -125l-164 -231q-109 86 -264 86q-94 0 -94 -57q0 -20 28.5 -34.5t149.5 -52.5q248 -78 248 -290q0 -182 -123 -289.5t-334 -107.5z" />
    <glyph glyph-name="germandbls.sc" horiz-adv-x="1183" 
d="M779 -12q-163 0 -249 47l136 260q68 -25 112 -25t67 20q22 20 21 56q0 55 -59 55h-170l33 238l123 141h-95q-70 0 -120 -39t-58 -98l-90 -643h-321l90 643q27 190 154 308q128 118 384 118h441l-35 -252l-164 -192q88 -27 142 -98t55 -169q0 -158 -117 -264t-280 -106z
" />
    <glyph glyph-name="t.sc" horiz-adv-x="1044" 
d="M1161 1067l-39 -281h-334l-110 -786h-322l111 786h-324l39 281h979z" />
    <glyph glyph-name="tbar.sc" horiz-adv-x="1044" 
d="M1122 786h-334l-26 -186h223l-31 -219h-223l-53 -381h-322l54 381h-226l31 219h225l27 186h-324l39 281h979z" />
    <glyph glyph-name="tcaron.sc" horiz-adv-x="1044" 
d="M1161 1067l-39 -281h-334l-110 -786h-322l111 786h-324l39 281h979zM797 1165h-246l-199 357h260l95 -154l135 154h262z" />
    <glyph glyph-name="uni0163.sc" horiz-adv-x="1044" 
d="M745 -272q0 -109 -77.5 -176.5t-218.5 -67.5q-70 0 -134.5 28.5t-87.5 51.5l84 135q66 -49 145 -49t79 78q0 66 -93 65q-20 0 -73 -8l-21 33l90 182h-82l111 786h-324l39 281h979l-39 -281h-334l-110 -786h-53l-50 -92q78 -8 124 -56.5t46 -123.5z" />
    <glyph glyph-name="uni021B.sc" horiz-adv-x="1044" 
d="M506 -78q78 0 119 -43t41 -115q0 -113 -78 -218t-205 -158l-70 94q123 84 127 119q-8 -2 -22 -2q-47 0 -77 33.5t-30 104.5t58.5 128t136.5 57zM1161 1067l-39 -281h-334l-110 -786h-322l111 786h-324l39 281h979z" />
    <glyph glyph-name="u.sc" horiz-adv-x="1193" 
d="M589 -18q-228 0 -340 130t-77 373l82 582h324l-84 -604q-10 -72 22.5 -131.5t119.5 -59.5t136 58.5t62 132.5l84 604h319l-82 -582q-35 -244 -186.5 -373.5t-379.5 -129.5z" />
    <glyph glyph-name="uacute.sc" horiz-adv-x="1193" 
d="M589 -18q-228 0 -340 130t-77 373l82 582h324l-84 -604q-10 -72 22.5 -131.5t119.5 -59.5t136 58.5t62 132.5l84 604h319l-82 -582q-35 -244 -186.5 -373.5t-379.5 -129.5zM588 1126l-86 195l463 256l122 -260z" />
    <glyph glyph-name="ucircumflex.sc" horiz-adv-x="1193" 
d="M589 -18q-228 0 -340 130t-77 373l82 582h324l-84 -604q-10 -72 22.5 -131.5t119.5 -59.5t136 58.5t62 132.5l84 604h319l-82 -582q-35 -244 -186.5 -373.5t-379.5 -129.5zM788 1319l-135 -154h-262l307 357h246l199 -357h-260z" />
    <glyph glyph-name="udieresis.sc" horiz-adv-x="1193" 
d="M589 -18q-228 0 -340 130t-77 373l82 582h324l-84 -604q-10 -72 22.5 -131.5t119.5 -59.5t136 58.5t62 132.5l84 604h319l-82 -582q-35 -244 -186.5 -373.5t-379.5 -129.5zM1019 1169q-79 0 -126 43t-47 118t54 129t133 54t125 -43t46 -119.5t-53 -129t-132 -52.5z
M540 1169q-79 0 -126 43t-47 118t54 129t133 54t125 -43t46 -119.5t-53 -129t-132 -52.5z" />
    <glyph glyph-name="ugrave.sc" horiz-adv-x="1193" 
d="M589 -18q-228 0 -340 130t-77 373l82 582h324l-84 -604q-10 -72 22.5 -131.5t119.5 -59.5t136 58.5t62 132.5l84 604h319l-82 -582q-35 -244 -186.5 -373.5t-379.5 -129.5zM969 1130l-490 187l123 260l463 -256z" />
    <glyph glyph-name="uhungarumlaut.sc" horiz-adv-x="1193" 
d="M589 -18q-228 0 -340 130t-77 373l82 582h324l-84 -604q-10 -72 22.5 -131.5t119.5 -59.5t136 58.5t62 132.5l84 604h319l-82 -582q-35 -244 -186.5 -373.5t-379.5 -129.5zM1034 1116l-178 103l184 405l250 -143zM588 1116l-178 103l184 405l250 -143z" />
    <glyph glyph-name="umacron.sc" horiz-adv-x="1193" 
d="M589 -18q-228 0 -340 130t-77 373l82 582h324l-84 -604q-10 -72 22.5 -131.5t119.5 -59.5t136 58.5t62 132.5l84 604h319l-82 -582q-35 -244 -186.5 -373.5t-379.5 -129.5zM461 1210l35 248h632l-34 -248h-633z" />
    <glyph glyph-name="uogonek.sc" horiz-adv-x="1193" 
d="M549 -193q0 -82 69 -81q25 0 58 20l80 -168q-82 -66 -197.5 -65.5t-180.5 53.5t-65 153q0 150 150 275q-166 33 -244 159t-47 332l82 582h324l-84 -604q-10 -72 22.5 -131.5t119.5 -59.5t136 58.5t62 132.5l84 604h319l-82 -582q-31 -211 -149.5 -338t-303.5 -157
q-51 -27 -102 -76t-51 -107z" />
    <glyph glyph-name="uring.sc" horiz-adv-x="1193" 
d="M589 -18q-228 0 -340 130t-77 373l82 582h324l-84 -604q-10 -72 22.5 -131.5t119.5 -59.5t136 58.5t62 132.5l84 604h319l-82 -582q-35 -244 -186.5 -373.5t-379.5 -129.5zM721 1359q0 -83 70 -83q34 0 60 30.5t26 73.5q0 74 -64 74q-39 0 -65.5 -27.5t-26.5 -67.5z
M780.5 1110q-116.5 0 -181 62.5t-64.5 174t85 191.5t199 80t179 -62.5t65 -176t-83 -191.5t-199.5 -78z" />
    <glyph glyph-name="utilde.sc" horiz-adv-x="1193" 
d="M589 -18q-228 0 -340 130t-77 373l82 582h324l-84 -604q-10 -72 22.5 -131.5t119.5 -59.5t136 58.5t62 132.5l84 604h319l-82 -582q-35 -244 -186.5 -373.5t-379.5 -129.5zM906 1167q-71 0 -147.5 36t-123.5 36t-73.5 -25.5t-33.5 -48.5l-184 152q15 50 58.5 103t98 76.5
t122 23.5t151.5 -37t132 -37t76 27.5t32 58.5l182 -148q-8 -36 -70 -116q-32 -41 -90.5 -71t-129.5 -30z" />
    <glyph glyph-name="v.sc" horiz-adv-x="1079" 
d="M877 1067h350l-572 -1067h-221l-280 1067h360l86 -459l16 -123l52 123z" />
    <glyph glyph-name="w.sc" horiz-adv-x="1540" 
d="M1384 1067h297l-479 -1067h-227l-123 645l-315 -645h-228l-182 1067h324l38 -403l25 -238l301 641h199l82 -403l41 -258l102 258z" />
    <glyph glyph-name="wacute.sc" horiz-adv-x="1540" 
d="M1384 1067h297l-479 -1067h-227l-123 645l-315 -645h-228l-182 1067h324l38 -403l25 -238l301 641h199l82 -403l41 -258l102 258zM1243 1317l-500 -191l-86 195l463 256z" />
    <glyph glyph-name="wcircumflex.sc" horiz-adv-x="1540" 
d="M1384 1067h297l-479 -1067h-227l-123 645l-315 -645h-228l-182 1067h324l38 -403l25 -238l301 641h199l82 -403l41 -258l102 258zM944 1319l-135 -154h-262l307 357h246l198 -357h-260z" />
    <glyph glyph-name="wdieresis.sc" horiz-adv-x="1540" 
d="M1384 1067h297l-479 -1067h-227l-123 645l-315 -645h-228l-182 1067h324l38 -403l25 -238l301 641h199l82 -403l41 -258l102 258zM1174 1169q-79 0 -126 43t-47 118t54.5 129t133.5 54t125 -43t46 -119.5t-53.5 -129t-132.5 -52.5zM695 1169q-79 0 -126 43t-47 118
t54.5 129t133.5 54t125 -43t46 -119.5t-53.5 -129t-132.5 -52.5z" />
    <glyph glyph-name="wgrave.sc" horiz-adv-x="1540" 
d="M1384 1067h297l-479 -1067h-227l-123 645l-315 -645h-228l-182 1067h324l38 -403l25 -238l301 641h199l82 -403l41 -258l102 258zM1221 1321l-97 -191l-489 187l123 260z" />
    <glyph glyph-name="x.sc" horiz-adv-x="1132" 
d="M1251 1067l-409 -510l280 -557h-383l-143 311l-215 -311h-371l432 545l-266 522h383l123 -283l199 283h370z" />
    <glyph glyph-name="y.sc" horiz-adv-x="1093" 
d="M1233 1067l-463 -647l-59 -420h-326l57 416l-276 651h379l112 -330l209 330h367z" />
    <glyph glyph-name="yacute.sc" horiz-adv-x="1093" 
d="M1233 1067l-463 -647l-59 -420h-326l57 416l-276 651h379l112 -330l209 330h367zM1040 1317l-499 -191l-86 195l463 256z" />
    <glyph glyph-name="ycircumflex.sc" horiz-adv-x="1093" 
d="M1233 1067l-463 -647l-59 -420h-326l57 416l-276 651h379l112 -330l209 330h367zM741 1319l-135 -154h-262l307 357h246l199 -357h-260z" />
    <glyph glyph-name="ydieresis.sc" horiz-adv-x="1093" 
d="M1233 1067l-463 -647l-59 -420h-326l57 416l-276 651h379l112 -330l209 330h367zM973 1169q-80 0 -127 43t-47 118t54 129t133 54t125 -43t46 -119.5t-52 -129t-132 -52.5zM493 1169q-80 0 -127 43t-47 118t54.5 129t133.5 54t125 -43t46 -119.5t-52.5 -129t-132.5 -52.5
z" />
    <glyph glyph-name="ygrave.sc" horiz-adv-x="1093" 
d="M1233 1067l-463 -647l-59 -420h-326l57 416l-276 651h379l112 -330l209 330h367zM1018 1321l-96 -191l-490 187l123 260z" />
    <glyph glyph-name="uni1EF9.sc" horiz-adv-x="1093" 
d="M1233 1067l-463 -647l-59 -420h-326l57 416l-276 651h379l112 -330l209 330h367zM588 1239q-47 0 -74 -25.5t-33 -48.5l-184 152q15 50 58.5 103t98 76.5t122 23.5t151.5 -37t132 -37t76 27.5t32 58.5l182 -148q-9 -36 -71 -116q-32 -41 -90 -71t-129 -30t-147.5 36
t-123.5 36z" />
    <glyph glyph-name="z.sc" horiz-adv-x="1075" 
d="M1124 1067l-26 -197l-561 -587h495l-39 -283h-911l27 197l548 589h-460l39 281h888z" />
    <glyph glyph-name="zacute.sc" horiz-adv-x="1075" 
d="M1124 1067l-26 -197l-561 -587h495l-39 -283h-911l27 197l548 589h-460l39 281h888zM1010 1317l-500 -191l-86 195l463 256z" />
    <glyph glyph-name="zcaron.sc" horiz-adv-x="1075" 
d="M1124 1067l-26 -197l-561 -587h495l-39 -283h-911l27 197l548 589h-460l39 281h888zM811 1165h-246l-198 357h260l94 -154l135 154h262z" />
    <glyph glyph-name="zdotaccent.sc" horiz-adv-x="1075" 
d="M1124 1067l-26 -197l-561 -587h495l-39 -283h-911l27 197l548 589h-460l39 281h888zM710 1165q-87 0 -139.5 47.5t-52.5 129t59.5 141t144.5 59.5t137 -47t52 -130t-57 -141.5t-144 -58.5z" />
    <glyph glyph-name="a.sc.ss01" horiz-adv-x="1144" 
d="M683 788q-79 0 -118 -50t-47 -111l-16 -117h286l17 117q8 61 -17.5 111t-104.5 50zM725 1085q221 0 325.5 -125.5t71.5 -365.5l-84 -594h-321l37 264h-287l-37 -264h-321l84 594q33 240 172 365.5t360 125.5z" />
    <glyph glyph-name="aacute.sc.ss01" horiz-adv-x="1144" 
d="M683 788q-79 0 -118 -50t-47 -111l-16 -117h286l17 117q8 61 -17.5 111t-104.5 50zM725 1085q221 0 325.5 -125.5t71.5 -365.5l-84 -594h-321l37 264h-287l-37 -264h-321l84 594q33 240 172 365.5t360 125.5zM1044 1317l-499 -191l-86 195l463 256z" />
    <glyph glyph-name="abreve.sc.ss01" horiz-adv-x="1144" 
d="M683 788q-79 0 -118 -50t-47 -111l-16 -117h286l17 117q8 61 -17.5 111t-104.5 50zM725 1085q221 0 325.5 -125.5t71.5 -365.5l-84 -594h-321l37 264h-287l-37 -264h-321l84 594q33 240 172 365.5t360 125.5zM728 1167q-153 0 -234.5 93.5t-59.5 250.5h246
q-10 -59 11.5 -94t68.5 -35q96 0 117 129h245q-23 -158 -132 -251t-262 -93z" />
    <glyph glyph-name="acircumflex.sc.ss01" horiz-adv-x="1144" 
d="M683 788q-79 0 -118 -50t-47 -111l-16 -117h286l17 117q8 61 -17.5 111t-104.5 50zM725 1085q221 0 325.5 -125.5t71.5 -365.5l-84 -594h-321l37 264h-287l-37 -264h-321l84 594q33 240 172 365.5t360 125.5zM745 1319l-135 -154h-262l307 357h246l199 -357h-260z" />
    <glyph glyph-name="adieresis.sc.ss01" horiz-adv-x="1144" 
d="M683 788q-79 0 -118 -50t-47 -111l-16 -117h286l17 117q8 61 -17.5 111t-104.5 50zM725 1085q221 0 325.5 -125.5t71.5 -365.5l-84 -594h-321l37 264h-287l-37 -264h-321l84 594q33 240 172 365.5t360 125.5zM977 1169q-80 0 -127 43t-47 118t54 129t133 54t125 -43
t46 -119.5t-52 -129t-132 -52.5zM498 1169q-80 0 -127 43t-47 118t54 129t133 54t125 -43t46 -119.5t-52 -129t-132 -52.5z" />
    <glyph glyph-name="agrave.sc.ss01" horiz-adv-x="1144" 
d="M683 788q-79 0 -118 -50t-47 -111l-16 -117h286l17 117q8 61 -17.5 111t-104.5 50zM725 1085q221 0 325.5 -125.5t71.5 -365.5l-84 -594h-321l37 264h-287l-37 -264h-321l84 594q33 240 172 365.5t360 125.5zM1022 1321l-96 -191l-490 187l123 260z" />
    <glyph glyph-name="amacron.sc.ss01" horiz-adv-x="1144" 
d="M683 788q-79 0 -118 -50t-47 -111l-16 -117h286l17 117q8 61 -17.5 111t-104.5 50zM725 1085q221 0 325.5 -125.5t71.5 -365.5l-84 -594h-321l37 264h-287l-37 -264h-321l84 594q33 240 172 365.5t360 125.5zM1085 1458l-34 -248h-633l35 248h632z" />
    <glyph glyph-name="aogonek.sc.ss01" horiz-adv-x="1144" 
d="M683 788q-79 0 -118 -50t-47 -111l-16 -117h286l17 117q8 61 -17.5 111t-104.5 50zM866 -193q0 -82 70 -81q25 0 57 20l80 -168q-82 -66 -197.5 -65.5t-180 53.5t-64.5 153q0 158 155 281h-69l37 264h-287l-37 -264h-321l84 594q33 240 172 365.5t360 125.5t325.5 -125.5
t71.5 -365.5l-84 -594q-6 -4 -18 -10q-52 -26 -103 -74.5t-51 -108.5z" />
    <glyph glyph-name="aring.sc.ss01" horiz-adv-x="1144" 
d="M683 788q-79 0 -118 -50t-47 -111l-16 -117h286l17 117q8 61 -17.5 111t-104.5 50zM725 1085q221 0 325.5 -125.5t71.5 -365.5l-84 -594h-321l37 264h-287l-37 -264h-321l84 594q33 240 172 365.5t360 125.5zM678 1359q0 -83 70 -83q34 0 60 30.5t26 73.5q-1 74 -64 74
q-39 0 -65.5 -27.5t-26.5 -67.5zM737.5 1110q-116.5 0 -181 62.5t-64.5 174t85 191.5t199 80t179 -62.5t65 -176t-83 -191.5t-199.5 -78z" />
    <glyph glyph-name="atilde.sc.ss01" horiz-adv-x="1144" 
d="M683 788q-79 0 -118 -50t-47 -111l-16 -117h286l17 117q8 61 -17.5 111t-104.5 50zM725 1085q221 0 325.5 -125.5t71.5 -365.5l-84 -594h-321l37 264h-287l-37 -264h-321l84 594q33 240 172 365.5t360 125.5zM592 1239q-47 0 -73.5 -25.5t-33.5 -48.5l-184 152
q15 50 58.5 103t98 76.5t122 23.5t151.5 -37t132 -37t76 27.5t32 58.5l182 -148q-9 -36 -71 -116q-32 -41 -90 -71t-129 -30t-147.5 36t-123.5 36z" />
    <glyph glyph-name="r.sc.ss01" horiz-adv-x="1105" 
d="M618 518q74 0 119 45t45 111q0 138 -133 137h-108l-41 -293h118zM1026 229q33 0 47 2l-33 -231q-70 -18 -148.5 -18t-138 27.5t-92 68.5t-56 81t-45 69.5t-46.5 31.5h-51l-37 -260h-303l149 1067h428q182 0 289 -101.5t107 -260.5q0 -119 -57.5 -215.5t-159.5 -153.5
q18 -16 45.5 -50t48 -45.5t53.5 -11.5z" />
    <glyph glyph-name="racute.sc.ss01" horiz-adv-x="1105" 
d="M618 518q74 0 119 45t45 111q0 138 -133 137h-108l-41 -293h118zM1026 229q33 0 47 2l-33 -231q-70 -18 -148.5 -18t-138 27.5t-92 68.5t-56 81t-45 69.5t-46.5 31.5h-51l-37 -260h-303l149 1067h428q182 0 289 -101.5t107 -260.5q0 -119 -57.5 -215.5t-159.5 -153.5
q18 -16 45.5 -50t48 -45.5t53.5 -11.5zM989 1317l-500 -191l-86 195l463 256z" />
    <glyph glyph-name="rcaron.sc.ss01" horiz-adv-x="1105" 
d="M618 518q74 0 119 45t45 111q0 138 -133 137h-108l-41 -293h118zM1096 705q0 -119 -57.5 -215.5t-159.5 -153.5q18 -16 45.5 -50t48 -45.5t53.5 -11.5t47 2l-33 -231q-70 -18 -148.5 -18t-138 27.5t-92 68.5t-56 81t-45 69.5t-46.5 31.5h-51l-37 -260h-303l149 1067h428
q182 0 289 -101t107 -261zM791 1165h-246l-199 357h260l94 -154l136 154h262z" />
    <glyph glyph-name="rcommaaccent.sc.ss01" horiz-adv-x="1105" 
d="M531 -78q78 0 118.5 -43t40.5 -115q0 -113 -77.5 -218t-204.5 -158l-70 94q123 84 127 119q-8 -2 -23 -2q-47 0 -76.5 33.5t-29.5 104.5t58.5 128t136.5 57zM618 518q74 0 119 45t45 111q0 138 -133 137h-108l-41 -293h118zM1026 229q33 0 47 2l-33 -231
q-70 -18 -148.5 -18t-138 27.5t-92 68.5t-56 81t-45 69.5t-46.5 31.5h-51l-37 -260h-303l149 1067h428q182 0 289 -101.5t107 -260.5q0 -119 -57.5 -215.5t-159.5 -153.5q18 -16 45.5 -50t48 -45.5t53.5 -11.5z" />
    <glyph glyph-name="y.sc.ss01" horiz-adv-x="1101" 
d="M632 573q79 0 122 51.5t51 110.5l47 332h319l-41 -297q-55 -389 -374 -473l-41 -297h-320l41 295q-145 41 -209.5 160.5t-38.5 314.5l41 297h322l-47 -332q-8 -61 20.5 -111.5t107.5 -50.5z" />
    <glyph glyph-name="yacute.sc.ss01" horiz-adv-x="1101" 
d="M632 573q79 0 122 51.5t51 110.5l47 332h319l-41 -297q-55 -389 -374 -473l-41 -297h-320l41 295q-145 41 -209.5 160.5t-38.5 314.5l41 297h322l-47 -332q-8 -61 20.5 -111.5t107.5 -50.5zM1022 1317l-500 -191l-86 195l463 256z" />
    <glyph glyph-name="ycircumflex.sc.ss01" horiz-adv-x="1101" 
d="M632 573q79 0 122 51.5t51 110.5l47 332h319l-41 -297q-55 -389 -374 -473l-41 -297h-320l41 295q-145 41 -209.5 160.5t-38.5 314.5l41 297h322l-47 -332q-8 -61 20.5 -111.5t107.5 -50.5zM723 1319l-135 -154h-262l307 357h246l198 -357h-260z" />
    <glyph glyph-name="ydieresis.sc.ss01" horiz-adv-x="1101" 
d="M632 573q79 0 122 51.5t51 110.5l47 332h319l-41 -297q-55 -389 -374 -473l-41 -297h-320l41 295q-145 41 -209.5 160.5t-38.5 314.5l41 297h322l-47 -332q-8 -61 20.5 -111.5t107.5 -50.5zM953 1169q-79 0 -126 43t-47 118t54.5 129t133.5 54t125 -43t46 -119.5
t-53.5 -129t-132.5 -52.5zM474 1169q-79 0 -126 43t-47 118t54.5 129t133.5 54t124.5 -43t45.5 -119.5t-53 -129t-132 -52.5z" />
    <glyph glyph-name="ygrave.sc.ss01" horiz-adv-x="1101" 
d="M632 573q79 0 122 51.5t51 110.5l47 332h319l-41 -297q-55 -389 -374 -473l-41 -297h-320l41 295q-145 41 -209.5 160.5t-38.5 314.5l41 297h322l-47 -332q-8 -61 20.5 -111.5t107.5 -50.5zM999 1321l-96 -191l-489 187l123 260z" />
    <glyph glyph-name="uni1EF9.sc.ss01" horiz-adv-x="1101" 
d="M632 573q79 0 122 51.5t51 110.5l47 332h319l-41 -297q-55 -389 -374 -473l-41 -297h-320l41 295q-145 41 -209.5 160.5t-38.5 314.5l41 297h322l-47 -332q-8 -61 20.5 -111.5t107.5 -50.5zM570 1239q-47 0 -74 -25.5t-33 -48.5l-184 152q16 53 59 104.5t97 75t122 23.5
t152 -37t132 -37t75.5 27.5t31.5 58.5l182 -148q-10 -39 -70 -116q-32 -41 -90.5 -71t-129 -30t-147 36t-123.5 36z" />
    <glyph glyph-name="seven.ss01" horiz-adv-x="1046" 
d="M152 0l270 498h-162l39 268h270l211 383h-577l41 291h962l-20 -150l-287 -524h148l-39 -268h-258l-273 -498h-325z" />
    <glyph glyph-name="zero.sc" horiz-adv-x="1126" 
d="M440 479q0 -107 45 -169t133 -62t153 98t65 226q0 249 -158 249q-98 0 -168 -92t-70 -250zM567 -18q-195 0 -311 129t-115 342q0 279 166 455t408 177q197 0 309 -129t111 -338q0 -280 -162 -458t-406 -178z" />
    <glyph glyph-name="one.sc" horiz-adv-x="749" 
d="M578 1067h180l-150 -1067h-303l101 719l-203 -66l-62 260z" />
    <glyph glyph-name="two.sc" horiz-adv-x="946" 
d="M602 664q0 139 -151 139q-102 0 -197 -49l-59 245q139 86 339 86t300 -93q98 -93 98 -240q0 -111 -42 -195q-42 -83 -118 -159t-149 -117h276l-39 -281h-770l29 209q331 200 431 316q52 60 52 139z" />
    <glyph glyph-name="three.sc" horiz-adv-x="897" 
d="M897 397q0 -172 -127 -294q-126 -121 -356 -121t-357 94l129 217q109 -61 240 -62q72 0 117 33q45 32 45 88q0 100 -103 101q-80 0 -159 -23l-80 143l270 230h-323l36 264h713l-27 -193l-262 -217q123 -8 184 -77q60 -70 60 -183z" />
    <glyph glyph-name="four.sc" horiz-adv-x="968" 
d="M983 446l-37 -262h-90l-27 -184h-299l27 184h-498l27 195l363 717l251 -97l-276 -553h170l45 326h299l-45 -326h90z" />
    <glyph glyph-name="five.sc" horiz-adv-x="909" 
d="M459 227q67 0 107 35t40 96q0 94 -112 95q-90 0 -195 -50l-113 74l82 590h682l-37 -262h-393l-18 -137q53 10 129 10q133 -2 208 -73t74 -202q0 -199 -137 -311q-138 -112 -342 -110q-204 0 -368 110l131 221q154 -86 262 -86z" />
    <glyph glyph-name="six.sc" horiz-adv-x="940" 
d="M524 215q64 0 106 42q42 43 42 105t-35 96t-96 34t-103 -36t-46 -100q-3 -64 32 -103q36 -38 100 -38zM948 372q0 -164 -128 -276t-314 -112t-289 100q-102 100 -102 252q0 233 156 431q157 198 505 331l107 -209q-254 -104 -359 -215q62 22 123 22q129 4 215 -78
t86 -246z" />
    <glyph glyph-name="seven.sc" horiz-adv-x="856" 
d="M135 0l453 797h-430l37 270h790l-18 -131l-529 -936h-303z" />
    <glyph glyph-name="eight.sc" horiz-adv-x="1001" 
d="M530 209q59 0 98 34q38 34 38 93q0 94 -103 94q-59 0 -98 -34t-39 -93q0 -94 104 -94zM502 754q0 -86 99 -86q48 0 81 30t33 86q0 86 -90 86q-53 0 -88 -32t-35 -84zM514 -16q-196 0 -301 76q-104 77 -104 208q0 201 202 297q-100 57 -100 197t124 234t305 94
q182 0 280 -76t98 -197q0 -172 -170 -250q131 -67 131 -225t-135 -258q-134 -100 -330 -100z" />
    <glyph glyph-name="nine.sc" horiz-adv-x="937" 
d="M566 856q-64 0 -106 -42t-42 -104t35 -97q35 -33 96 -33t103 36t45 100t-31 102q-35 38 -100 38zM141 698q0 164 128 276q129 112 315 113q186 0 288 -100t103 -252q0 -233 -157 -431t-505 -331l-106 209q250 102 358 215q-63 -23 -123 -22q-129 -4 -215 78
q-86 81 -86 245z" />
    <glyph glyph-name="braceleft.sc" horiz-adv-x="671" 
d="M227 651q35 0 41 51l31 213q47 324 457 324l-35 -244q-131 0 -152 -141l-20 -139q-18 -129 -119 -185q86 -55 68 -184l-21 -139q-20 -141 113 -141l-33 -244q-199 0 -295 79t-72 244l31 213q6 51 -28 52h-66l35 241h65z" />
    <glyph glyph-name="braceright.sc" horiz-adv-x="671" 
d="M627 651h67l-35 -241h-67q-33 0 -39 -52l-31 -213q-46 -323 -456 -323l32 244q131 0 152 141l20 139q16 127 119 184q-86 57 -67 185l20 139q20 141 -113 141l35 244q197 0 294 -79t73 -245l-31 -213q-6 -51 27 -51z" />
    <glyph glyph-name="bracketleft.sc" horiz-adv-x="761" 
d="M819 924h-262l-113 -807h263l-37 -260h-545l186 1327h545z" />
    <glyph glyph-name="bracketright.sc" horiz-adv-x="763" 
d="M240 1184h544l-186 -1327h-545l37 260h264l113 807h-264z" />
    <glyph glyph-name="exclam.sc" horiz-adv-x="581" 
d="M506 172q0 -80 -54 -135t-138 -55q-83 0 -131 45t-48 123t56 136q57 56 137 56t129 -45t49 -125zM233 471l35 664h367l-158 -664h-244z" />
    <glyph glyph-name="exclamdown.sc" horiz-adv-x="583" 
d="M98 -70l158 664h244l-35 -664h-367zM602 912q0 -80 -54 -136t-137 -55q-83 0 -131 45t-48 124t56 135t136 56t129 -45q49 -44 49 -124z" />
    <glyph glyph-name="numbersign.sc" horiz-adv-x="1374" 
d="M829 436l80 195h-219l-80 -195h219zM1384 631h-200l-80 -195h182l-35 -250h-252l-75 -184h-275l76 184h-217l-76 -184h-266l76 184h-131l34 250h201l82 195h-184l37 252h251l76 184h262l-75 -184h219l76 184h274l-76 -184h133z" />
    <glyph glyph-name="parenleft.sc" horiz-adv-x="643" 
d="M430 453q0 -242 170 -398l-180 -221q-156 106 -219 266t-64 324q0 569 484 848l118 -221q-169 -123 -239 -265t-70 -333z" />
    <glyph glyph-name="parenright.sc" horiz-adv-x="647" 
d="M371 651q0 242 -170 400l178 221q157 -106 221 -267t64 -325q-1 -567 -486 -846l-117 221q168 125 239 267t71 329z" />
    <glyph glyph-name="question.sc" horiz-adv-x="757" 
d="M306 -16q-70 0 -111 43t-41 111t57 121q57 54 127 54t112 -41q40 -42 40 -110t-57 -123t-127 -55zM502 782q0 68 -86 68q-111 0 -191 -45l-92 227q170 94 381 94q145 0 230 -70t85 -207q0 -138 -113 -223q-48 -36 -96 -66t-85 -62t-41 -72l-5 -31h-247l6 49q10 78 52 134
t86 82q116 68 116 122z" />
    <glyph glyph-name="questiondown.sc" horiz-adv-x="757" 
d="M342 287q0 -68 86 -68q111 0 190 45l93 -227q-170 -94 -381 -94q-145 0 -231 69q-85 70 -85 195q0 80 33 140t81 96t96 66q48 31 85 63t41 71l4 31h248l-6 -49q-10 -79 -52 -135t-86 -82q-116 -68 -116 -121zM354 906q0 68 56 124q56 55 128 55q70 0 111 -43
q41 -42 41 -110t-57 -122t-127 -54t-112 41q-40 41 -40 109z" />
    <glyph glyph-name="at.sc" horiz-adv-x="1300" 
d="M639 494q0 -80 74 -80q43 0 71 26t34 69q5 42 -15 68q-19 25 -63 25t-72 -31t-29 -77zM825 1116q236 0 382 -130q147 -130 147 -326t-96 -310q-96 -115 -239 -117q-142 -2 -185 68q-80 -76 -186 -76t-170 69q-62 70 -62 190t93 214t220 95q68 0 121 -29l12 31h172
l-39 -281q-14 -106 49 -106q100 0 101 210q1 146 -101 224t-268 73q-205 -4 -333 -129t-128 -335q0 -147 85 -241q86 -94 216 -99q130 -4 240 63l53 -151q-143 -100 -293 -101q-233 0 -374 136t-142 362q0 300 210 498t515 198z" />
    <glyph glyph-name="ampersand.sc" horiz-adv-x="1095" 
d="M494 203q59 0 131 39l-170 186q-86 -47 -86 -127q0 -98 125 -98zM682 803q0 33 -20 55t-58 21q-38 0 -66 -27q-26 -28 -26 -64t72 -112q98 47 98 127zM102 262q0 217 222 313q-63 76 -64 181q0 145 104 237t254 92q148 -1 226 -65t78 -168q0 -172 -217 -326l118 -135
q106 106 146 184l157 -122q-16 -10 -161 -195l118 -119l-180 -170l-133 135q-143 -123 -346 -122q-152 0 -237 78t-85 202z" />
    <glyph glyph-name="cent.sc" horiz-adv-x="835" 
d="M410 496q0 -84 43 -130q43 -44 121 -44t141 55l94 -203q-88 -63 -205 -82l-22 -170h-242l25 189q-106 39 -169 134q-62 95 -62 235t95 264q96 124 250 174l29 204h242l-27 -188q102 -16 180 -78l-149 -203q-57 51 -140 51q-84 0 -144 -62t-60 -146z" />
    <glyph glyph-name="currency.sc" horiz-adv-x="919" 
d="M430 498q0 -99 94 -99q47 0 79 37t32 99q0 94 -84 94q-53 0 -87 -37t-34 -94zM864 563q0 -121 -57 -213l67 -84l-161 -141l-72 86q-72 -31 -153 -31t-146 33l-102 -90l-123 137l100 94q-18 49 -18 115q0 117 59 213l-70 86l162 137l74 -88q72 31 156 31t149 -33l102 94
l119 -141l-102 -94q16 -54 16 -111z" />
    <glyph glyph-name="dollar.sc" horiz-adv-x="833" 
d="M435 262q114 0 114 70q0 33 -33 50t-129 50t-150 83q-55 50 -55 155q0 104 69 188t183 119l21 145h258l-19 -137q117 -27 193 -92l-115 -193q-127 74 -221 74q-45 0 -73 -18t-27 -47q0 -39 130 -83t173 -96q55 -69 55 -167q0 -99 -66 -181t-178 -116l-18 -144h-258
l16 127q-137 27 -231 103l116 196q131 -86 245 -86z" />
    <glyph glyph-name="Euro.sc" horiz-adv-x="1191" 
d="M817 221q143 0 250 74l102 -195q-180 -118 -395 -118t-350 120t-156 312h-135l33 233h119q53 201 217 320t394 119t374 -121l-152 -209q-100 88 -246 88q-254 0 -317 -197h317l-32 -233h-297q38 -193 274 -193z" />
    <glyph glyph-name="plus.sc" horiz-adv-x="890" 
d="M922 639l-29 -205h-279l-41 -291h-211l41 291h-282l29 205h282l43 301h211l-43 -301h279z" />
    <glyph glyph-name="minus.sc" horiz-adv-x="989" 
d="M170 434l29 205h772l-29 -205h-772z" />
    <glyph glyph-name="multiply.sc" horiz-adv-x="841" 
d="M874 748l-239 -213l172 -216l-164 -141l-170 211l-231 -207l-123 146l235 211l-170 213l164 143l168 -211l236 209z" />
    <glyph glyph-name="divide.sc" horiz-adv-x="780" 
d="M411 143q-110 0 -110 113q0 55 38 94t99 39q104 0 105 -102q0 -63 -38 -104q-39 -40 -94 -40zM123 446l27 189h661l-27 -189h-661zM508 940q110 0 108 -110q0 -54 -36 -95q-38 -39 -93 -39q-113 0 -111 112q0 54 39 93q38 39 93 39z" />
    <glyph glyph-name="equal.sc" horiz-adv-x="989" 
d="M145 264l29 205h772l-28 -205h-773zM195 608l28 205h772l-28 -205h-772z" />
    <glyph glyph-name="notequal.sc" horiz-adv-x="989" 
d="M967 610h-260l-56 -139h295l-28 -205h-351l-63 -155h-244l64 155h-179l29 205h234l57 139h-270l28 205h326l65 162h242l-65 -162h204z" />
    <glyph glyph-name="greater.sc" horiz-adv-x="694" 
d="M238 967l487 -322l-31 -223l-577 -320l35 246l319 187l-268 184z" />
    <glyph glyph-name="less.sc" horiz-adv-x="694" 
d="M727 967l-35 -248l-319 -187l268 -184l-35 -246l-487 320l31 223z" />
    <glyph glyph-name="plusminus.sc" horiz-adv-x="786" 
d="M106 70l25 184h594l-25 -184h-594zM592 772h207l-29 -197h-205l-33 -229h-184l33 229h-205l29 197h203l32 229h185z" />
    <glyph glyph-name="percent.sc" horiz-adv-x="1359" 
d="M1076 150q34 0 61 28t27 65q-1 74 -68 74q-35 1 -61 -27t-25 -67q0 -73 66 -73zM1341 257q-1 -111 -83 -193t-196 -82t-172 60t-58 172t80 192t194 80t174 -59q60 -58 61 -170zM502 831q0 76 -71 76q-33 -1 -59 -29t-26 -67q0 -72 69 -72q35 0 61 28t26 64zM400 571
q-112 1 -172 61t-60 172t85 192t195 79q110 0 170 -58t60 -170t-83 -194t-195 -82zM432 -76l-153 76l811 1153l151 -86z" />
    <glyph glyph-name="perthousand.sc" horiz-adv-x="1931" 
d="M1581 223q0 -73 67 -73q35 0 62 28t27 63q1 36 -19 56t-53 20q-33 1 -59 -27t-25 -67zM1076 150q34 0 61 28t27 65q-1 74 -68 74q-35 1 -61 -27t-25 -67q0 -73 66 -73zM1636 -18q-114 0 -174 60q-59 60 -59 172t82 192q81 80 195 80t173 -59q59 -58 59 -170
q0 -111 -81 -193t-195 -82zM1341 257q-1 -111 -83 -193t-196 -82t-172 60t-58 172t80 192t194 80t174 -59q60 -58 61 -170zM502 831q0 76 -71 76q-33 -1 -59 -29t-26 -67q0 -72 69 -72q35 0 61 28t26 64zM400 571q-112 1 -172 61t-60 172t85 192t195 79q110 0 170 -58
t60 -170t-83 -194t-195 -82zM432 -76l-153 76l811 1153l151 -86z" />
    <glyph glyph-name="sterling.sc" horiz-adv-x="905" 
d="M730 1085q175 0 249 -96l-127 -184q-57 45 -126 45t-119 -41t-60 -121l-15 -113h179l-27 -196h-176l-23 -162h379l-30 -217h-750l31 217h116l23 162h-115l27 196h115l20 146q23 166 138 265q116 99 291 99z" />
    <glyph glyph-name="yen.sc" horiz-adv-x="1067" 
d="M1180 1067l-381 -535h129l-25 -174h-192l-13 -84h193l-25 -174h-192l-15 -100h-256l15 100h-193l25 174h192l13 84h-193l25 174h127l-228 535h293l158 -395l264 395h279z" />
    <glyph glyph-name="caroncomb.alt" 
d="M-102 1137q-55 0 -89 36.5t-34 113.5t63.5 135.5t150.5 58.5t131 -46t44 -124q0 -129 -89.5 -253.5t-228.5 -187.5l-69 101q137 92 147 168q-6 -2 -26 -2z" />
    <glyph glyph-name="uni0308.case" 
d="M28 1569q-76 0 -118.5 44t-42.5 121.5t60.5 134t136.5 56.5t118.5 -44t42.5 -122t-60.5 -134t-136.5 -56zM-457 1569q-76 0 -118.5 44t-42.5 121.5t60 134t136 56.5t119 -44t43 -122t-60.5 -134t-136.5 -56z" />
    <glyph glyph-name="uni0307.case" 
d="M32 1544q-81 0 -127 47t-46 130t66.5 144.5t146.5 61.5t126 -47t46 -130t-65.5 -144.5t-146.5 -61.5z" />
    <glyph glyph-name="gravecomb.case" 
d="M123 1544l-518 133l125 293l487 -227z" />
    <glyph glyph-name="acutecomb.case" 
d="M-326 1536l-61 197l532 239l86 -284z" />
    <glyph glyph-name="uni030B.case" 
d="M-240 1518l-141 129l285 389l202 -168zM-680 1518l-141 129l284 389l203 -168z" />
    <glyph glyph-name="uni0302.case" 
d="M186 1552h-301l-94 140l-135 -140h-303l352 371h246z" />
    <glyph glyph-name="uni030C.case" 
d="M-49 1923h303l-352 -371h-246l-236 371h301l95 -139z" />
    <glyph glyph-name="uni0306.case" 
d="M-183 1563q-161 0 -249 94t-66 252h246q-8 -59 18.5 -95t80.5 -36t92 35.5t47 95.5h245q-23 -158 -138 -252t-276 -94z" />
    <glyph glyph-name="uni030A.case" 
d="M-113 1752q0 -83 71 -83q34 0 59.5 31t25.5 74q0 74 -63 73q-39 0 -66 -27.5t-27 -67.5zM-59.5 1503q-114.5 0 -177 61.5t-62.5 172t87 192.5t201.5 82t177 -61.5t62.5 -172t-87 -192.5t-201.5 -82z" />
    <glyph glyph-name="tildecomb.case" 
d="M-91 1550q-81 0 -157 49.5t-118 49.5t-72.5 -21.5t-40.5 -42.5l-10 -20l-162 151l27 36q123 150 290 151q68 0 145.5 -50.5t118.5 -50.5t72 28t44 52.5t13 28.5l162 -148q-2 -16 -36.5 -63t-114.5 -98.5t-161 -51.5z" />
    <glyph glyph-name="uni0304.case" 
d="M-549 1587l35 248h729l-35 -248h-729z" />
    <glyph glyph-name="uni0326.case" 
d="M-270 -367q-47 0 -85 39t-40 108t49 115t131 46t129 -50.5t51 -146t-60.5 -190.5t-166.5 -140l-80 92q94 63 94 129q-4 -2 -22 -2z" />
    <glyph glyph-name="uni0327.case" 
d="M-332 -494q-59 0 -113.5 19.5t-78.5 40.5l-27 20l84 135q123 -77 187 -37q30 18 38.5 45t-5 48.5t-53.5 33t-110 -3.5l-20 33l104 211h195l-66 -121q76 -6 119 -51t43 -115q0 -113 -83 -185.5t-214 -72.5z" />
    <glyph glyph-name="uni0328.case" 
d="M-537 -262q0 66 29 125t90.5 117.5t128.5 89.5l29 12l110 -82q-6 -4 -16 -10q-49 -29 -92 -76.5t-43 -106.5q0 -82 82 -81q25 0 57 20l80 -168q-92 -66 -204.5 -65.5t-181.5 61.5t-69 164z" />
    <glyph glyph-name="uni0337.case" 
d="M-698 344l-97 211l760 399l96 -211z" />
    <glyph glyph-name="uni0338.case" 
d="M-1104 -68l-176 146l1288 1493l174 -148z" />
    <glyph glyph-name="caron.alt" horiz-adv-x="432" 
d="M322 1137q-55 0 -90 37q-34 37 -33 98q0 92 63 150q62 58 150 58t132 -45q44 -46 44 -124q0 -129 -90 -253t-228 -188l-69 101q137 92 147 168q-6 -2 -26 -2z" />
    <glyph glyph-name="acute.case" horiz-adv-x="702" 
d="M342 1536l-61 197l532 239l86 -284z" />
    <glyph glyph-name="breve.case" horiz-adv-x="829" 
d="M622 1563q-161 0 -249 94t-66 252h246q-8 -59 18.5 -95t80.5 -36t92 35.5t47 95.5h245q-23 -158 -138 -252t-276 -94z" />
    <glyph glyph-name="caron.case" horiz-adv-x="915" 
d="M838 1923h303l-353 -371h-245l-236 371h301l94 -139z" />
    <glyph glyph-name="circumflex.case" horiz-adv-x="915" 
d="M1073 1552h-301l-94 140l-135 -140h-303l352 371h246z" />
    <glyph glyph-name="dieresis.case" horiz-adv-x="907" 
d="M911 1569q-76 0 -118.5 44t-42.5 121.5t60 134t136 56.5t119 -44t43 -122t-60.5 -134t-136.5 -56zM426 1569q-76 0 -119 44t-43 121.5t60.5 134t136.5 56.5t119 -44t43 -122t-60.5 -134t-136.5 -56z" />
    <glyph glyph-name="dotaccent.case" horiz-adv-x="364" 
d="M417 1544q-81 0 -127 47t-46 130t66.5 144.5t146.5 61.5t126 -47t46 -130t-65.5 -144.5t-146.5 -61.5z" />
    <glyph glyph-name="grave.case" horiz-adv-x="702" 
d="M793 1544l-519 133l125 293l488 -227z" />
    <glyph glyph-name="hungarumlaut.case" horiz-adv-x="1134" 
d="M860 1518l-141 129l285 389l202 -168zM420 1518l-141 129l284 389l203 -168z" />
    <glyph glyph-name="macron.case" horiz-adv-x="856" 
d="M279 1587l34 248h729l-34 -248h-729z" />
    <glyph glyph-name="ring.case" horiz-adv-x="575" 
d="M451 1752q0 -83 70 -83q34 0 59.5 31t25.5 74q0 74 -63 73q-39 0 -65.5 -27.5t-26.5 -67.5zM504.5 1503q-114.5 0 -177.5 61.5t-63 172t87 192.5t201.5 82t177.5 -61.5t63 -172t-87 -192.5t-201.5 -82z" />
    <glyph glyph-name="tilde.case" horiz-adv-x="954" 
d="M828 1550q-81 0 -156.5 49.5t-117.5 49.5t-72.5 -21.5t-41.5 -42.5l-10 -20l-162 151q34 56 118.5 121.5t199.5 65.5q68 0 145.5 -50.5t118.5 -50.5t71.5 28t44 52.5t13.5 28.5l162 -148q-2 -16 -37 -63t-115 -98.5t-161 -51.5z" />
    <glyph glyph-name="uni0308.sc" horiz-adv-x="878" 
d="M965 1350q-1 -76 -53 -128t-132 -53q-80 0 -127 43t-47 118t54 129t134 54t125 -43q46 -44 46 -120zM485 1350q0 -76 -52 -128t-132 -53q-80 0 -127 43t-47 118t54 129t133 54t125 -43q46 -44 46 -120z" />
    <glyph glyph-name="uni0307.sc" horiz-adv-x="387" 
d="M573 1365q0 -83 -57 -141t-144 -59q-87 0 -140 47q-52 47 -52 129q0 81 60 141t144 60q85 0 137 -47t52 -130z" />
    <glyph glyph-name="gravecomb.sc" horiz-adv-x="702" 
d="M573 1130l-489 187l123 260l463 -256z" />
    <glyph glyph-name="acutecomb.sc" horiz-adv-x="702" 
d="M170 1126l-86 195l463 256l123 -260z" />
    <glyph glyph-name="uni030B.sc" horiz-adv-x="1134" 
d="M784 1116l-178 103l185 405l249 -143zM338 1116l-178 103l184 405l250 -143z" />
    <glyph glyph-name="uni0302.sc" horiz-adv-x="792" 
d="M891 1165h-260l-94 154l-136 -154h-262l307 357h246z" />
    <glyph glyph-name="uni030C.sc" horiz-adv-x="792" 
d="M655 1522h263l-308 -357h-245l-199 357h260l94 -154z" />
    <glyph glyph-name="uni0306.sc" horiz-adv-x="804" 
d="M564 1167q-152 -1 -234 93t-60 251h246q-10 -59 12 -94t68 -35q96 0 117 129h245q-23 -158 -132 -251t-262 -93z" />
    <glyph glyph-name="uni030A.sc" horiz-adv-x="563" 
d="M395 1358q0 -82 71 -82q34 0 60 31t25 73q0 74 -64 74q-39 0 -65 -28t-27 -68zM454 1110q-116 0 -181 62t-65 174t86 192t200 80t179 -62t65 -176t-84 -192t-200 -78z" />
    <glyph glyph-name="tildecomb.sc" horiz-adv-x="954" 
d="M747 1167q-71 0 -148 36t-124 36t-73.5 -25.5t-32.5 -48.5l-185 152q15 51 59 103.5t98 76t121.5 23.5t151.5 -37t132 -37t76 27.5t32 58.5l182 -148q-8 -36 -70 -116q-32 -41 -90 -71t-129 -30z" />
    <glyph glyph-name="uni0304.sc" horiz-adv-x="829" 
d="M268 1210l35 248h633l-35 -248h-633z" />
    <glyph glyph-name="uni0326.sc" horiz-adv-x="425" 
d="M102 -401q-46 -1 -76 33t-30 105t58 128t136 57t120 -43q40 -43 40 -115q0 -113 -78 -218t-204 -158l-70 94q123 84 127 119q-8 -2 -23 -2z" />
    <glyph glyph-name="uni0327.sc" horiz-adv-x="534" 
d="M180 -516q-70 0 -134 28.5t-87 51.5l84 135q67 -49 145 -49t78 78q0 66 -92 65q-20 0 -74 -8l-20 33l104 211h187l-64 -121q78 -8 124 -56.5t46 -123.5q0 -109 -78 -176.5t-219 -67.5z" />
    <glyph glyph-name="uni0328.sc" horiz-adv-x="495" 
d="M381 -422q-81 -66 -197 -66t-181 54q-65 53 -65 140q1 165 124 266q97 82 174 110l110 -82q-6 -4 -18 -10t-42 -26q-109 -71 -111 -155q-1 -84 69 -83q25 0 57 20z" />
    <glyph glyph-name="uni0335.sc" horiz-adv-x="841" 
d="M172 451l31 219h600l-31 -219h-600z" />
    <glyph glyph-name="uni0337.sc" horiz-adv-x="942" 
d="M244 342l-94 211l729 385l96 -211z" />
    <glyph glyph-name="uni0338.sc" horiz-adv-x="1306" 
d="M248 -68l-176 146l983 1128l174 -147z" />
    <glyph glyph-name="sevensc.ss01" horiz-adv-x="880" 
d="M143 0l191 350h-94l32 230h187l129 235h-393l34 252h725l-16 -125l-195 -362h95l-33 -230h-191l-190 -350h-281z" />
    </font>
</defs>
</svg>
