<?xml version="1.0" standalone="no"?>
<!DOCTYPE svg PUBLIC "-//W3C//DTD SVG 1.1//EN" "http://www.w3.org/Graphics/SVG/1.1/DTD/svg11.dtd" >
<svg xmlns="http://www.w3.org/2000/svg">
<metadata></metadata>
<defs>
<font id="muriza_basicregular" horiz-adv-x="1040" >
<font-face units-per-em="2048" ascent="1589" descent="-459" />
<missing-glyph horiz-adv-x="528" />
<glyph horiz-adv-x="0" />
<glyph horiz-adv-x="682" />
<glyph unicode=" "  horiz-adv-x="528" />
<glyph unicode="&#x09;" horiz-adv-x="528" />
<glyph unicode="&#xa0;" horiz-adv-x="528" />
<glyph unicode="!" horiz-adv-x="528" d="M156 88q0 46 31 77.5t77 31.5q45 0 77 -32t32 -77t-32 -76.5t-77 -31.5q-46 0 -77 31t-31 77zM184 1352h158l-16 -975h-125z" />
<glyph unicode="&#x22;" horiz-adv-x="870" d="M176 1352h150l-19 -449h-112zM543 1352h149l-18 -449h-113z" />
<glyph unicode="#" horiz-adv-x="1095" d="M51 367v112h197l47 320h-215v112h233l49 332h132l-50 -332h291l49 332h134l-50 -332h176v-112h-194l-47 -320h213v-112h-230l-55 -367h-133l55 367h-291l-55 -367h-131l55 367h-180zM379 479h291l47 320h-291z" />
<glyph unicode="$" d="M141 104v281h129v-217q104 -33 215 -33q126 0 197.5 46t71.5 157q0 48 -13 82.5t-44 60.5t-60 41.5t-84 38.5l-117 49q-59 24 -103 49.5t-85.5 63.5t-63.5 91t-22 118q0 129 81.5 205t213.5 96v268h129v-260q161 -9 274 -72v-282h-127v219q-71 18 -162 18 q-127 0 -195.5 -42t-68.5 -142q0 -77 43 -117.5t152 -87.5l110 -47q53 -22 88.5 -40t76.5 -47.5t65 -61.5t40.5 -79.5t16.5 -105.5q0 -142 -85.5 -225t-227.5 -104v-265h-129v258q-176 8 -316 86z" />
<glyph unicode="%" horiz-adv-x="1708" d="M72 944q0 210 78.5 315t214.5 105q137 0 214.5 -105t77.5 -315q0 -209 -77.5 -312.5t-214.5 -103.5q-136 0 -214.5 104t-78.5 312zM207 944q0 -315 158 -315q76 0 117.5 71t41.5 244q0 119 -21.5 192.5t-55 100.5t-82.5 27q-158 0 -158 -320zM545 -2l250 676l231 676h135 l-250 -676l-231 -676h-135zM1049 403q0 210 78 315t214 105q137 0 215 -105t78 -315q0 -209 -78 -312t-215 -103q-136 0 -214 103.5t-78 311.5zM1184 403q0 -315 157 -315q76 0 118 71t42 244q0 175 -42 247.5t-118 72.5q-157 0 -157 -320z" />
<glyph unicode="&#x26;" horiz-adv-x="1218" d="M66 332q0 65 17.5 117.5t58 100.5t82 83.5t114.5 89.5q-81 98 -120.5 179t-39.5 177q0 144 88 218.5t228 74.5q139 0 218 -70.5t79 -195.5q0 -59 -17 -109.5t-55 -98.5t-81.5 -88t-113.5 -95l318 -367q69 160 63 352h264v-108h-137q-19 -204 -100 -346l61 -72 q36 -42 63 -56t60 -14q8 0 28 1t25 1v-106q-30 -10 -79 -10q-64 0 -113.5 24.5t-99.5 83.5l-29 33q-148 -151 -373 -151q-84 0 -156.5 21.5t-129.5 63.5t-90 110.5t-33 156.5zM209 346q0 -119 73 -186.5t197 -67.5q173 0 287 133l-352 408q-117 -89 -161 -146t-44 -141z M322 1087q0 -126 124 -282q72 53 113 92.5t67.5 91.5t26.5 111q0 80 -41 120t-114 40q-82 0 -129 -46.5t-47 -126.5z" />
<glyph unicode="'" horiz-adv-x="503" d="M176 1352h150l-19 -449h-112z" />
<glyph unicode="(" horiz-adv-x="557" d="M135 567q0 167 28 323.5t74.5 277.5t101 213t114.5 155l82 -57q-112 -147 -186.5 -394t-74.5 -518q0 -272 74.5 -517.5t186.5 -393.5l-82 -59q-60 63 -114.5 155t-101 213t-74.5 277.5t-28 324.5z" />
<glyph unicode=")" horiz-adv-x="557" d="M23 -344q112 148 186 393.5t74 517.5q0 271 -74 518t-186 394l81 57q61 -63 115.5 -155t101.5 -213t75 -277.5t28 -323.5q0 -168 -28 -324.5t-75 -277.5t-101.5 -213t-115.5 -155z" />
<glyph unicode="*" horiz-adv-x="833" d="M57 1081v109l277 -8l-144 237l95 56l133 -246l131 246l96 -56l-145 -237l276 8v-109l-276 6l145 -239l-96 -51l-131 241l-133 -241l-95 51l144 239z" />
<glyph unicode="+" d="M98 532v117h361v359h129v-359h352v-117h-352v-368h-129v368h-361z" />
<glyph unicode="," horiz-adv-x="434" d="M27 -260q97 39 161 104.5t64 149.5v4q-20 -8 -39 -8q-44 0 -74 30.5t-30 73.5q0 44 30.5 73.5t73.5 29.5q58 0 102.5 -50.5t44.5 -142.5q0 -125 -84.5 -214.5t-220.5 -129.5z" />
<glyph unicode="-" horiz-adv-x="520" d="M72 442v121h377v-121h-377z" />
<glyph unicode="." horiz-adv-x="434" d="M109 88q0 46 31 77.5t77 31.5t77.5 -31.5t31.5 -77.5t-31.5 -77t-77.5 -31t-77 31t-31 77z" />
<glyph unicode="/" horiz-adv-x="845" d="M51 -74l604 1499h142l-607 -1499h-139z" />
<glyph unicode="0" horiz-adv-x="1054" d="M104 674q0 345 112.5 521.5t311.5 176.5t310.5 -176.5t111.5 -521.5q0 -344 -111.5 -519t-310.5 -175t-311.5 175.5t-112.5 518.5zM260 674q0 -574 268 -574q62 0 109 29t84 93.5t56.5 178.5t19.5 273q0 129 -13 228t-36 164.5t-57 107.5t-74 59.5t-89 17.5 q-268 0 -268 -577z" />
<glyph unicode="1" horiz-adv-x="849" d="M84 1149v106l348 97h105v-1237h251v-115h-677v115h274v1077z" />
<glyph unicode="2" horiz-adv-x="925" d="M57 0v98l426 527q91 113 131.5 190.5t40.5 175.5q0 133 -70.5 196.5t-195.5 63.5q-74 0 -172 -26v-248h-137v305q53 37 142.5 63.5t183.5 26.5q179 0 292 -99.5t113 -285.5q0 -66 -15 -124.5t-50 -116.5t-66 -99t-88 -108l-342 -414h452v170h138v-295h-783z" />
<glyph unicode="3" horiz-adv-x="937" d="M70 156l65 80q121 -121 285 -121q126 0 200 65.5t74 186.5q0 120 -71 195t-205 75h-101v115h56q136 0 206 67t70 191q0 241 -250 241q-79 0 -155 -26v-244h-135v305q55 38 137.5 62t173.5 24q79 0 146 -20t121 -60.5t85 -110.5t31 -163q0 -231 -189 -313 q238 -74 238 -338q0 -101 -35.5 -177.5t-96.5 -121t-133 -66.5t-153 -22q-119 0 -213.5 46t-150.5 130z" />
<glyph unicode="4" horiz-adv-x="1036" d="M33 301v80l538 971h134h71v-938h193v-113h-193v-186h146v-115h-476v115h187v186h-600zM188 414h447v725v82q-8 -16 -43 -78z" />
<glyph unicode="5" horiz-adv-x="958" d="M100 156l68 80q121 -121 274 -121q127 0 206 80.5t79 224.5q0 134 -71 209.5t-181 75.5q-136 0 -205 -115h-102v762h639v-133h-516v-476q85 88 225 88q157 0 262 -110.5t105 -306.5q0 -110 -36 -195.5t-97 -136.5t-135 -76.5t-156 -25.5q-113 0 -207.5 46.5t-151.5 129.5 z" />
<glyph unicode="6" horiz-adv-x="1019" d="M104 649q0 355 132.5 539t353.5 184q87 0 163 -30t124 -89l-64 -79q-91 65 -209 65q-75 0 -135.5 -29t-110 -92.5t-77 -175.5t-27.5 -266v-25q41 76 120.5 121t182.5 45q165 0 272 -111.5t107 -304.5q0 -197 -113 -309t-284 -112q-199 0 -308 147q-127 173 -127 522z M285 408q0 -140 73 -222t181 -82q102 0 171.5 74.5t69.5 218.5q0 143 -71 218t-179 75q-105 0 -175 -72t-70 -210z" />
<glyph unicode="7" horiz-adv-x="905" d="M51 977v375h813v-95l-504 -1257h-159l508 1219h-521v-242h-137z" />
<glyph unicode="8" horiz-adv-x="997" d="M86 360q0 124 58 212t161 130q-190 86 -190 312q0 171 109.5 264.5t273.5 93.5q106 0 191.5 -39t139.5 -121.5t54 -197.5q0 -114 -51 -193t-140 -119q103 -42 161 -130t58 -212q0 -79 -24 -144t-64.5 -108t-94.5 -72.5t-111.5 -42.5t-118.5 -13q-77 0 -147.5 21.5 t-131 65t-97 119.5t-36.5 174zM242 367q0 -126 73 -197.5t185 -71.5q110 0 183 71.5t73 197.5q0 123 -71 197.5t-185 74.5t-186 -74.5t-72 -197.5zM266 1008q0 -116 65.5 -184t166.5 -68t166 68t65 184q0 114 -62.5 179.5t-168.5 65.5q-105 0 -168.5 -66t-63.5 -179z" />
<glyph unicode="9" horiz-adv-x="1019" d="M84 950q0 198 112.5 310t284.5 112q196 0 307 -147q127 -173 127 -523q0 -355 -132 -538.5t-353 -183.5q-87 0 -163 29t-124 87l64 80q92 -63 209 -63q75 0 135.5 29t110 92t77 175t27.5 265v26q-41 -75 -120 -120t-183 -45q-165 0 -272 111t-107 304zM238 954 q0 -143 71 -217.5t178 -74.5q106 0 177 72t71 208q0 141 -72.5 223t-181.5 82q-102 0 -172.5 -75t-70.5 -218z" />
<glyph unicode=":" horiz-adv-x="434" d="M109 88q0 46 31 77.5t77 31.5t77.5 -31.5t31.5 -77.5t-31.5 -77t-77.5 -31t-77 31t-31 77zM109 848q0 46 31 77t77 31t77.5 -31t31.5 -77t-31.5 -77.5t-77.5 -31.5t-77 31.5t-31 77.5z" />
<glyph unicode=";" horiz-adv-x="434" d="M27 -260q97 39 161 104.5t64 149.5v4q-20 -8 -39 -8q-44 0 -74 30.5t-30 73.5q0 44 30.5 73.5t73.5 29.5q58 0 102.5 -50.5t44.5 -142.5q0 -125 -84.5 -214.5t-220.5 -129.5zM109 848q0 46 31 77t77 31t77.5 -31t31.5 -77t-31.5 -77.5t-77.5 -31.5t-77 31.5t-31 77.5z " />
<glyph unicode="&#x3c;" d="M100 549v80l813 338v-125l-612 -254l612 -252v-127z" />
<glyph unicode="=" d="M117 338v115h805v-115h-805zM117 729v115h805v-115h-805z" />
<glyph unicode="&#x3e;" d="M127 209v127l612 252l-612 254v125l813 -338v-80z" />
<glyph unicode="?" horiz-adv-x="833" d="M57 963v323q139 86 324 86q177 0 281 -82.5t104 -242.5q0 -58 -13 -105.5t-44 -91.5t-61.5 -76.5t-86.5 -83.5q-43 -40 -64 -62.5t-41.5 -54.5t-28 -66t-7.5 -81v-49h-125q-4 50 -4 80q0 55 9.5 96t36 80.5t47.5 63t69 71.5q40 40 58 58.5t41.5 48t32.5 50t16 49t7 62.5 q0 113 -64 164t-186 51q-92 0 -165 -22v-266h-136zM254 88q0 46 31 77.5t77 31.5t77.5 -31.5t31.5 -77.5t-31.5 -77t-77.5 -31t-77 31t-31 77z" />
<glyph unicode="@" horiz-adv-x="1654" d="M104 457q0 173 59 321t161.5 250.5t243.5 160.5t302 58q207 0 367.5 -91.5t247 -250.5t86.5 -360q0 -218 -97 -358t-262 -140q-89 0 -144.5 41t-63.5 100q-19 -71 -84 -106t-144 -35q-76 0 -130 36t-77.5 87.5t-23.5 110.5q0 100 72 160.5t196 60.5h170v92 q0 162 -166 162q-109 0 -190 -62l-56 78q92 109 269 109q135 0 204.5 -74t69.5 -201v-350q0 -50 30 -77t83 -27q107 0 170 107t63 278q0 274 -160 442t-428 168q-139 0 -259.5 -48.5t-208.5 -136.5t-138.5 -218.5t-50.5 -286.5q0 -151 47.5 -277.5t130 -211.5t195 -132 t241.5 -47q77 0 156 14v-92q-67 -22 -160 -22q-152 0 -285.5 56.5t-229 156.5t-151 243.5t-55.5 311.5zM682 281q0 -45 29 -81t90 -36q74 0 128 48t54 130v61h-145q-72 0 -114 -32t-42 -90z" />
<glyph unicode="A" horiz-adv-x="1214" d="M14 0v115h121l375 1237h192l377 -1237h121v-115h-434v115h166l-96 315h-476l-94 -315h154v-115h-406zM395 547h406l-170 553q-13 50 -33 110q-2 -7 -33 -112z" />
<glyph unicode="B" horiz-adv-x="1124" d="M100 0v115h148v1122h-148v115h475q194 0 311.5 -87.5t117.5 -260.5q0 -224 -211 -302q125 -36 190.5 -120.5t65.5 -216.5q0 -182 -117 -273.5t-314 -91.5h-518zM397 115h213q144 0 215.5 67.5t71.5 186.5q0 120 -71 194t-205 74h-224v-522zM397 754h176q134 0 205.5 67.5 t71.5 179.5q0 107 -69 171.5t-216 64.5h-168v-483z" />
<glyph unicode="C" horiz-adv-x="1058" d="M104 686q0 140 26.5 254t73.5 194t114 134t146 79t171 25q179 0 303 -86v-332h-139v275q-71 22 -146 22q-191 0 -293 -131t-102 -422q0 -158 31 -274t86 -182t122 -96.5t148 -30.5q82 0 146 30t129 88l63 -81q-123 -172 -352 -172q-239 0 -383 183t-144 523z" />
<glyph unicode="D" horiz-adv-x="1208" d="M100 0v115h148v1122h-148v115h459q253 0 399 -175.5t146 -500.5q0 -324 -146 -500t-399 -176h-459zM399 115h150q88 0 158.5 30.5t125 94.5t84 174t29.5 260q0 151 -29.5 262t-84.5 175.5t-125 95t-158 30.5h-150v-1122z" />
<glyph unicode="E" horiz-adv-x="1087" d="M100 0v115h148v1122h-148v115h877v-303h-137v188h-441v-483h353v-117h-353v-522h459v196h135v-311h-893z" />
<glyph unicode="F" horiz-adv-x="1042" d="M100 0v115h148v1122h-148v115h861v-301h-138v186h-424v-504h336v-115h-336v-503h181v-115h-480z" />
<glyph unicode="G" horiz-adv-x="1169" d="M104 684q0 175 40 308.5t112.5 215.5t169 123t215.5 41q96 0 180 -24t140 -62v-328h-140v269q-84 24 -166 24q-193 0 -295 -131t-102 -428q0 -161 30.5 -279t86.5 -185.5t126 -98.5t156 -31q91 0 177 35v367h-203v114h456v-114h-108v-410q-137 -110 -338 -110 q-250 0 -393.5 181.5t-143.5 522.5z" />
<glyph unicode="H" horiz-adv-x="1368" d="M100 0v115h148v1122h-148v115h441v-115h-142v-483h570v483h-142v115h441v-115h-148v-1122h148v-115h-441v115h142v524h-570v-524h142v-115h-441z" />
<glyph unicode="I" horiz-adv-x="647" d="M100 0v115h148v1122h-148v115h447v-115h-148v-1122h148v-115h-447z" />
<glyph unicode="J" horiz-adv-x="647" d="M-49 -264q46 0 86 8t80 29t68.5 54t46.5 88t18 126v1196h-199v115h496v-115h-144v-1196q0 -111 -34 -194.5t-96.5 -133t-142.5 -73.5t-179 -25v121z" />
<glyph unicode="K" horiz-adv-x="1251" d="M100 0v115h148v1122h-148v115h439v-115h-140v-541l510 541h-164v115h457v-115h-125l-499 -528l518 -596h125v-113h-459v113h141l-504 579v-577h140v-115h-439z" />
<glyph unicode="L" horiz-adv-x="1026" d="M100 0v115h148v1122h-148v115h480v-115h-181v-1122h441v196h137v-311h-877z" />
<glyph unicode="M" horiz-adv-x="1679" d="M106 0v115h148v1122h-148v115h334h47l295 -990q54 -190 58 -204q33 121 55 198l295 996h94h289v-115h-146v-1122h146v-115h-422v115h127v1120q-6 -26 -25 -88l-340 -1147h-170l-342 1149q-4 13 -8 26.5t-8 27.5t-6 20v-1108h125v-115h-398z" />
<glyph unicode="N" horiz-adv-x="1372" d="M106 0v115h148v1122h-148v115h359l444 -949q66 -145 95 -215v1049h-146v115h414v-115h-144v-1237h-178l-483 1022q-48 104 -88 205v-1112h141v-115h-414z" />
<glyph unicode="O" horiz-adv-x="1163" d="M104 674q0 345 129 521.5t349 176.5q221 0 349 -176t128 -522q0 -344 -128 -519t-349 -175q-220 0 -349 175t-129 519zM260 674q0 -128 16.5 -227t45.5 -163.5t70.5 -106.5t88.5 -59.5t103 -17.5q319 0 319 574q0 577 -319 577q-56 0 -103 -17.5t-88.5 -59.5t-70.5 -107 t-45.5 -165t-16.5 -228z" />
<glyph unicode="P" horiz-adv-x="1107" d="M100 0v115h148v1122h-148v115h490q210 0 331 -94t121 -287t-122.5 -293t-329.5 -100h-191v-463h181v-115h-480zM399 694h193q151 0 223 73.5t72 201.5q0 127 -72 197.5t-223 70.5h-193v-543z" />
<glyph unicode="Q" horiz-adv-x="1163" d="M104 674q0 345 129 521.5t349 176.5q221 0 349 -176t128 -522q0 -290 -91.5 -460.5t-256.5 -217.5q209 -189 372 -189q27 0 74 7v-107q-43 -12 -96 -12q-107 0 -229 66t-279 219q-209 12 -329 187t-120 507zM260 674q0 -128 16.5 -227t45.5 -163.5t70.5 -106.5 t88.5 -59.5t103 -17.5q319 0 319 574q0 577 -319 577q-56 0 -103 -17.5t-88.5 -59.5t-70.5 -107t-45.5 -165t-16.5 -228z" />
<glyph unicode="R" horiz-adv-x="1177" d="M100 0v115h148v1122h-148v115h512q201 0 320 -92.5t119 -276.5q0 -149 -77 -242t-214 -125l244 -419q29 -47 55.5 -64.5t66.5 -17.5h45v-115q-33 -10 -79 -10q-83 0 -134 35t-96 118l-260 457h-203v-485h142v-115h-441zM399 715h222q139 0 207.5 72t68.5 194 q0 120 -72 188t-221 68h-205v-522z" />
<glyph unicode="S" horiz-adv-x="999" d="M94 74v338h137v-271q109 -41 228 -41q63 0 115 13t94 41t65 75.5t23 112.5q0 53 -15 93t-47 69t-65.5 47.5t-87.5 40.5l-129 59q-63 26 -112 56t-92.5 73.5t-67 103.5t-23.5 134q0 89 33.5 158t92 111t132.5 63.5t160 21.5q187 0 329 -82v-342h-137v279q-84 24 -178 24 q-127 0 -204 -53.5t-77 -169.5q0 -88 49 -139t158 -98l123 -56q56 -24 95 -44.5t82.5 -53.5t70 -69.5t44 -90t17.5 -117.5q0 -95 -34.5 -169t-95 -119.5t-139 -68.5t-171.5 -23q-208 0 -373 94z" />
<glyph unicode="T" horiz-adv-x="1089" d="M41 1038v314h1008v-316h-136v201h-290v-1122h184v-115h-520v115h184v1122h-295v-199h-135z" />
<glyph unicode="U" horiz-adv-x="1302" d="M84 1237v115h440v-115h-143v-852q0 -74 25 -130.5t67.5 -89.5t93 -49t107.5 -16t105.5 16t87.5 48.5t61 89t22 131.5v852h-143v115h412v-115h-144v-854q0 -190 -112 -296.5t-299 -106.5q-189 0 -312 107.5t-123 295.5v854h-145z" />
<glyph unicode="V" horiz-adv-x="1191" d="M14 1237v115h437v-115h-166l299 -999q7 -29 22 -76q1 6 23 78l295 997h-154v115h408v-115h-123l-371 -1237h-176l-373 1237h-121z" />
<glyph unicode="W" horiz-adv-x="1832" d="M39 1237v115h432v-115h-166l244 -991q8 -33 14 -74l17 74l256 1106h178l252 -1102q2 -11 7.5 -36.5t8.5 -39.5q11 53 16 74l240 989h-162v115h416v-115h-123l-303 -1237h-182l-232 983l-37 174q-4 -20 -16 -78t-20 -92l-230 -987h-184l-309 1237h-117z" />
<glyph unicode="X" horiz-adv-x="1275" d="M41 0v115h135l367 577l-346 545h-136v115h486v-115h-174l280 -436l275 436h-174v115h458v-115h-141l-344 -549l367 -573h141v-115h-490v115h173l-300 471l-296 -471h176v-115h-457z" />
<glyph unicode="Y" horiz-adv-x="1196" d="M14 1237v115h449v-115h-162l254 -461q26 -44 55 -104q6 15 15 31.5t21.5 38.5t19.5 34l252 461h-158v115h422v-115h-123l-381 -694v-428h184v-115h-520v115h186v426l-391 696h-123z" />
<glyph unicode="Z" horiz-adv-x="997" d="M57 0v92l664 1145h-479v-186h-136v301h795v-88l-668 -1149h551v196h138v-311h-865z" />
<glyph unicode="[" horiz-adv-x="561" d="M195 -365v1866h313v-100h-186v-1665h186v-101h-313z" />
<glyph unicode="\" horiz-adv-x="845" d="M51 1425h139l607 -1499h-142z" />
<glyph unicode="]" horiz-adv-x="561" d="M51 -264h187v1665h-187v100h316v-1866h-316v101z" />
<glyph unicode="^" horiz-adv-x="915" d="M57 758l363 614h78l360 -614h-145l-256 409l-254 -409h-146z" />
<glyph unicode="_" horiz-adv-x="931" d="M72 -156h788v-106h-788v106z" />
<glyph unicode="`" horiz-adv-x="452" d="M55 1415q0 10 8 17.5t21 7.5h125l188 -363h-110l-215 303q-17 24 -17 35z" />
<glyph unicode="a" horiz-adv-x="899" d="M72 248q0 122 84.5 191t226.5 69h199v117q0 104 -52.5 154t-146.5 50q-114 0 -221 -79l-58 73q53 66 133 99.5t173 33.5q151 0 230 -84.5t79 -236.5v-459q0 -39 17 -55.5t52 -16.5q15 0 60 5v-109q-52 -10 -92 -10q-78 0 -118 43.5t-42 116.5q-21 -83 -92.5 -126.5 t-163.5 -43.5q-129 0 -198.5 79t-69.5 189zM213 252q0 -64 37.5 -109t114.5 -45q91 0 154 62t63 164v82h-176q-89 0 -141 -40t-52 -114z" />
<glyph unicode="b" horiz-adv-x="1003" d="M72 0v106h129v1213h-129v106h270v-641q22 78 87.5 125t158.5 47q148 0 239 -122t91 -367q0 -244 -91 -365.5t-243 -121.5q-101 0 -169.5 52t-90.5 148v-180h-252zM342 467q0 -190 57.5 -279.5t157.5 -89.5q99 0 158 87.5t59 281.5q0 195 -59 282t-158 87 q-100 0 -157.5 -88.5t-57.5 -280.5z" />
<glyph unicode="c" horiz-adv-x="827" d="M84 475q0 239 108 360t283 121q72 0 137.5 -19t108.5 -48v-254h-129v199q-45 10 -90 10q-275 0 -275 -359q0 -102 22 -178t60.5 -118.5t86 -62.5t104.5 -20q99 0 202 76l56 -76q-94 -126 -279 -126q-177 0 -286 128.5t-109 366.5z" />
<glyph unicode="d" horiz-adv-x="980" d="M86 467q0 245 91 367t239 122q94 0 158 -46.5t88 -125.5v535h-130v106h269v-1249q0 -39 17.5 -55.5t53.5 -16.5q13 0 58 5v-109q-48 -10 -94 -10q-77 0 -117.5 44t-40.5 116v16q-23 -89 -92 -137.5t-166 -48.5q-152 0 -243 121t-91 366zM229 467q0 -195 58 -282t157 -87 q218 0 218 369q0 191 -59 280t-159 89q-99 0 -157 -87t-58 -282z" />
<glyph unicode="e" horiz-adv-x="862" d="M84 477q0 233 101 356t259 123q150 0 241 -111t91 -315q0 -64 -6 -102h-543q11 -169 85.5 -245.5t191.5 -76.5q108 0 203 74l57 -74q-99 -126 -281 -126q-179 0 -289 128t-110 369zM227 532h414q0 159 -55 235.5t-144 76.5q-90 0 -148 -77t-67 -235z" />
<glyph unicode="f" horiz-adv-x="593" d="M72 0v106h129v721h-129v109h129v215q0 139 74 217t214 78q89 0 150 -21v-106q-72 14 -121 14q-84 0 -130 -44.5t-46 -149.5v-203h201v-109h-201v-721h182v-106h-452z" />
<glyph unicode="g" horiz-adv-x="909" d="M63 -147q0 113 125 184q-59 49 -59 127q0 56 30 96.5t74 61.5q-118 93 -118 284q0 170 92.5 260t236.5 90q68 0 121 -20h64q60 0 83 23.5t23 76.5l-2 37h109q10 -38 10 -67q0 -72 -46 -116t-120 -46q82 -88 82 -238q0 -171 -92.5 -260.5t-233.5 -89.5h-106 q-39 0 -58.5 -18.5t-19.5 -49.5q0 -67 78 -67h242q133 0 211.5 -59.5t78.5 -172.5q0 -132 -111 -202t-306 -70q-183 0 -285.5 62t-102.5 174zM190 -125q0 -73 68.5 -113.5t208.5 -40.5q264 0 264 150q0 121 -164 121h-248q-27 0 -51 6q-78 -43 -78 -123zM252 604 q0 -246 192 -246q187 0 187 248q0 125 -49 186.5t-138 61.5q-91 0 -141.5 -62.5t-50.5 -187.5z" />
<glyph unicode="h" horiz-adv-x="1046" d="M72 0v106h129v1213h-129v106h270v-632q21 78 88 120.5t160 42.5q130 0 205 -85t75 -228v-537h127v-106h-374v106h108v523q0 103 -50 152.5t-128 49.5q-89 0 -150 -60.5t-61 -154.5v-510h107v-106h-377z" />
<glyph unicode="i" horiz-adv-x="518" d="M72 0v106h129v721h-129v109h270v-830h125v-106h-395zM143 1257q0 45 30 75t75 30q43 0 73.5 -30.5t30.5 -74.5t-30.5 -73t-73.5 -29q-46 0 -75.5 29t-29.5 73z" />
<glyph unicode="j" horiz-adv-x="487" d="M-29 -260q52 -10 84 -10q131 0 131 151v946h-131v109h271v-1067q0 -122 -62.5 -187t-177.5 -65q-69 0 -115 14v109zM127 1257q0 45 29.5 75t74.5 30q43 0 74 -30.5t31 -74.5t-31 -73t-74 -29q-46 0 -75 29t-29 73z" />
<glyph unicode="k" horiz-adv-x="989" d="M72 0v106h129v1213h-129v106h268l2 -948l328 350h-121v109h389v-109h-117l-321 -335l293 -328q53 -60 118 -60q9 0 29 1t25 1v-106q-30 -10 -80 -10q-63 0 -112 23t-95 77l-336 383v-367h107v-106h-377z" />
<glyph unicode="l" horiz-adv-x="524" d="M43 1319v106h268v-1245q0 -42 21 -59t65 -17l62 2v-106q-41 -10 -99 -10q-93 0 -140.5 47.5t-47.5 132.5v1149h-129z" />
<glyph unicode="m" horiz-adv-x="1576" d="M72 0v106h129v721h-129v109h252v-160q24 87 96.5 133.5t167.5 46.5q96 0 163.5 -46t98.5 -130q30 86 102.5 131t165.5 45q131 0 206 -84.5t75 -228.5v-537h127v-106h-375v106h109v523q0 102 -50 152t-127 50q-90 0 -151.5 -60.5t-61.5 -154.5v-510h109v-106h-356v106h108 v523q0 103 -50 152.5t-128 49.5q-89 0 -150 -60.5t-61 -154.5v-510h107v-106h-377z" />
<glyph unicode="n" horiz-adv-x="1046" d="M72 0v106h129v721h-129v109h252v-160q24 87 96.5 133.5t167.5 46.5q131 0 206.5 -85t75.5 -228v-537h127v-106h-374v106h108v523q0 103 -50 152.5t-128 49.5q-89 0 -150 -60.5t-61 -154.5v-510h107v-106h-377z" />
<glyph unicode="o" horiz-adv-x="897" d="M84 467q0 124 28.5 220t79.5 153.5t115.5 86.5t141.5 29q161 0 262.5 -122.5t101.5 -366.5q0 -124 -28.5 -219t-78.5 -152.5t-115 -86.5t-142 -29q-160 0 -262.5 122.5t-102.5 364.5zM229 467q0 -375 220 -375q221 0 221 375q0 377 -221 377q-220 0 -220 -377z" />
<glyph unicode="p" horiz-adv-x="980" d="M51 -258h127v1085h-127v109h250v-180q22 95 91 147.5t169 52.5q152 0 243 -122t91 -367q0 -244 -91 -365.5t-239 -121.5q-95 0 -159.5 47t-86.5 125v-410h146v-104h-414v104zM319 467q0 -190 58 -279.5t158 -89.5q99 0 158 87.5t59 281.5q0 195 -59 282t-158 87 q-100 0 -158 -89t-58 -280z" />
<glyph unicode="q" horiz-adv-x="978" d="M86 467q0 244 91.5 366.5t242.5 122.5q99 0 168.5 -53t89.5 -147v180h250v-109h-127v-1085h127v-104h-414v104h148v410q-24 -79 -88 -125.5t-158 -46.5q-148 0 -239 121.5t-91 365.5zM229 467q0 -194 58.5 -281.5t156.5 -87.5q100 0 159 89.5t59 279.5q0 191 -59 280 t-159 89q-99 0 -157 -87t-58 -282z" />
<glyph unicode="r" horiz-adv-x="706" d="M72 0v106h129v721h-129v109h252v-186q28 94 109.5 149t191.5 55l34 -2v-127h-16q-142 0 -221.5 -71.5t-79.5 -186.5v-461h190v-106h-460z" />
<glyph unicode="s" horiz-adv-x="821" d="M96 45v236h127v-168q93 -21 172 -21q205 0 205 152q0 65 -35.5 94t-126.5 63l-88 31q-113 41 -174 102t-61 162q0 86 45 146.5t114 87t154 26.5q72 0 142 -19.5t118 -47.5v-215h-127v157q-54 13 -112 13q-89 0 -144 -32t-55 -103q0 -55 35 -87.5t114 -60.5l88 -33 q121 -37 184.5 -100t63.5 -174q0 -138 -92.5 -206t-241.5 -68q-77 0 -160.5 17t-144.5 48z" />
<glyph unicode="t" horiz-adv-x="651" d="M51 827v109h129l13 272h126v-272h287v-109h-287v-585q0 -85 41 -116.5t119 -31.5q69 0 139 12v-106q-70 -20 -167 -20q-134 0 -203.5 64t-69.5 185v598h-127z" />
<glyph unicode="u" horiz-adv-x="1026" d="M51 827v109h268v-629q0 -104 50 -153.5t127 -49.5q89 0 151 60.5t62 152.5v510h-125v109h264v-760q0 -39 18 -55.5t54 -16.5q12 0 57 5v-109q-52 -10 -96 -10q-75 0 -114.5 44t-41.5 116q-22 -82 -94.5 -126t-167.5 -44q-133 0 -209 85t-76 228v534h-127z" />
<glyph unicode="v" horiz-adv-x="952" d="M31 827v109h342v-109h-113l209 -651q11 -38 18 -57q2 11 9.5 30.5t9.5 26.5l215 651h-111v109h312v-109h-91l-274 -827h-166l-272 827h-88z" />
<glyph unicode="w" horiz-adv-x="1488" d="M49 827v109h342v-109h-121l174 -651l13 -43q9 34 10 43l215 760h156l211 -760q9 -28 14 -49q2 8 5 24t5 25l174 651h-117v109h310v-109h-84l-226 -827h-159l-215 748q-1 8 -4.5 22.5t-3.5 15.5l-13 -38l-215 -748h-162l-227 827h-82z" />
<glyph unicode="x" horiz-adv-x="1046" d="M59 0v106h121l262 365l-254 356h-108v109h375v-109h-109l193 -268l190 268h-119v109h355v-109h-105l-252 -350l264 -371h113v-106h-373v106h101l-201 281l-201 -281h117v-106h-369z" />
<glyph unicode="y" horiz-adv-x="950" d="M31 827v109h342v-109h-113l211 -671q12 -30 21 -60q2 10 8 30t8 30l215 671h-113v109h310v-109h-86l-320 -989q-39 -121 -111 -171t-178 -50q-67 0 -104 10v107q62 -4 88 -4q153 0 199 143l12 35l-301 919h-88z" />
<glyph unicode="z" horiz-adv-x="837" d="M74 0v96l493 731h-338v-159h-127v268h633v-96l-493 -734h391v181h129v-287h-688z" />
<glyph unicode="{" horiz-adv-x="577" d="M18 532v91v18h45q75 0 111.5 35t36.5 123v426q0 145 69.5 212.5t186.5 67.5q23 0 59 -4v-100q-95 0 -140.5 -39.5t-45.5 -140.5v-441q0 -138 -107 -192q107 -58 107 -195v-477q0 -101 45.5 -140.5t140.5 -39.5v-101q-36 -4 -59 -4q-117 0 -186.5 68t-69.5 213v463 q0 88 -36.5 122.5t-111.5 34.5h-45z" />
<glyph unicode="|" horiz-adv-x="528" d="M199 -190v1691h129v-1691h-129z" />
<glyph unicode="}" horiz-adv-x="577" d="M51 -264q95 0 141 39.5t46 140.5v477q0 138 106 195q-106 54 -106 192v441q0 101 -46 140.5t-141 39.5v100q40 4 60 4q118 0 187 -67.5t69 -212.5v-426q0 -88 36 -123t111 -35h45v-90v-19h-45q-75 0 -111 -34.5t-36 -122.5v-463q0 -145 -69 -213t-187 -68q-20 0 -60 4 v101z" />
<glyph unicode="~" d="M94 514q16 93 72.5 153t146.5 60q78 0 199 -68l63 -32q96 -56 144 -56q46 0 76 30.5t53 92.5l96 -32q-16 -91 -72 -151t-145 -60q-35 0 -75 11.5t-63 22.5t-61 31l-63 35q-1 0 -16 8.5t-18 10l-17 8.5t-19 8.5t-17 6.5t-19.5 6.5t-17.5 3t-19 1.5q-88 0 -129 -125z" />
<glyph unicode="&#xa1;" horiz-adv-x="528" d="M156 848q0 46 31 77t77 31q45 0 77 -31.5t32 -76.5t-32 -77t-77 -32q-46 0 -77 31.5t-31 77.5zM184 -362l17 921h125l16 -921h-158z" />
<glyph unicode="&#xa2;" d="M170 625q0 209 84.5 328t226.5 145v264h127v-260q114 -11 199 -66v-254h-129v199q-41 6 -86 6q-138 0 -207.5 -80.5t-69.5 -269.5q0 -104 21 -179.5t59 -118t84.5 -62t104.5 -19.5q106 0 202 74l58 -74q-81 -109 -236 -125v-262h-127v268q-143 29 -227 153.5t-84 332.5z " />
<glyph unicode="&#xa3;" d="M86 489v115h205q-4 8 -27 55.5t-30 65t-21.5 57t-19.5 73.5t-5 71q0 160 107 247t268 87q160 0 249.5 -83.5t105.5 -209.5l-113 -33q-50 205 -240 205q-101 0 -165 -51.5t-64 -163.5q0 -42 11.5 -88t24.5 -76t37 -80.5t35 -75.5h283v-115h-244q11 -53 11 -92 q0 -179 -138 -276h467v166h131v-287h-815v109q96 34 152.5 111.5t56.5 178.5q0 47 -12 90h-250z" />
<glyph unicode="&#xa4;" d="M57 319l179 179q-56 85 -56 194q0 111 53 191l-176 176l90 92l175 -174q86 59 198 59q114 0 197 -59l174 174l90 -92l-174 -174q53 -85 53 -193q0 -112 -55 -198l176 -175l-92 -92l-174 174q-85 -57 -195 -57q-111 0 -194 59l-176 -176zM311 692q0 -106 58.5 -167.5 t150.5 -61.5t150.5 61.5t58.5 167.5t-58.5 167t-150.5 61t-150.5 -61t-58.5 -167z" />
<glyph unicode="&#xa5;" d="M14 1135v108h414v-108h-149l194 -338q17 -29 53 -103h2q17 41 54 103l192 338h-143v108h395v-108h-117l-266 -463h299v-115h-348v-168h348v-113h-348v-167h151v-109h-444v109h152v167h-351v113h351v168h-351v115h299l-268 463h-119z" />
<glyph unicode="&#xa6;" horiz-adv-x="528" d="M199 -190v563h129v-563h-129zM199 938v563h129v-563h-129z" />
<glyph unicode="&#xa7;" horiz-adv-x="966" d="M92 645q0 165 158 273q-86 83 -86 212q0 148 101.5 219.5t262.5 71.5q164 0 277 -71v-273h-129v213q-74 15 -146 15q-107 0 -165 -38t-58 -134q0 -79 41.5 -122.5t132.5 -80.5l133 -58q130 -54 196.5 -125t66.5 -186q0 -92 -41.5 -157t-118.5 -117q86 -86 86 -215 q0 -75 -28.5 -132t-79.5 -90.5t-115.5 -50t-141.5 -16.5q-157 0 -276 72v272h129v-211q71 -14 145 -14q108 0 165.5 37.5t57.5 132.5q0 79 -41.5 121.5t-130.5 80.5l-135 58q-128 54 -194 126t-66 187zM233 659q0 -71 38 -118.5t132 -87.5l150 -66q51 -21 82 -41 q52 45 76 92t24 109q0 71 -37.5 118t-132.5 87l-153 65q-51 21 -82 41q-50 -49 -73.5 -94t-23.5 -105z" />
<glyph unicode="&#xa8;" horiz-adv-x="630" d="M55 1257q0 41 29 70t72 29q40 0 68 -29t28 -70q0 -40 -28 -68t-68 -28q-43 0 -72 28t-29 68zM381 1257q0 41 28.5 70t69.5 29q40 0 68 -29t28 -70q0 -40 -28 -68t-68 -28q-41 0 -69.5 28t-28.5 68z" />
<glyph unicode="&#xa9;" horiz-adv-x="1597" d="M104 678q0 187 93.5 346.5t254 252.5t347.5 93t347 -93t253.5 -252.5t93.5 -346.5t-93.5 -347t-253.5 -253.5t-347 -93.5t-347.5 93.5t-254 253.5t-93.5 347zM213 678q0 -163 80.5 -301.5t215.5 -218.5t290 -80q117 0 225 47.5t187 127.5t126 191.5t47 233.5 q0 121 -47 232t-126 190.5t-187 126.5t-225 47q-155 0 -290 -79.5t-215.5 -217t-80.5 -299.5zM537 684q0 167 85 254.5t216 87.5q53 0 99 -13t69 -30v-203h-107v148q-12 2 -39 2q-101 0 -151 -56t-50 -180q0 -139 54 -197.5t135 -58.5q69 0 137 49l49 -63q-78 -96 -203 -96 q-129 0 -211.5 96t-82.5 260z" />
<glyph unicode="&#xaa;" horiz-adv-x="583" d="M51 834q0 77 53 121t146 44h104v45q0 111 -108 111q-69 0 -137 -47l-39 70q64 82 200 82q97 0 150 -51.5t53 -149.5v-242q0 -45 41 -45q21 0 35 2v-92q-25 -10 -68 -10q-100 0 -112 104q-13 -51 -55.5 -77.5t-100.5 -26.5q-76 0 -119 45.5t-43 116.5zM70 416v110h460 v-110h-460zM168 842q0 -31 19.5 -50.5t58.5 -19.5q47 0 77.5 30t30.5 81v35h-86q-48 0 -74 -19.5t-26 -56.5z" />
<glyph unicode="&#xab;" horiz-adv-x="884" d="M88 506l252 366l92 -55l-184 -311l184 -313l-92 -56zM436 506l252 366l92 -55l-184 -311l184 -313l-92 -56z" />
<glyph unicode="&#xac;" d="M98 532v117h768v-469h-127v352h-641z" />
<glyph unicode="&#xad;" horiz-adv-x="520" d="M72 442v121h377v-121h-377z" />
<glyph unicode="&#xae;" horiz-adv-x="1062" d="M76 1001q0 189 132.5 323t321.5 134q125 0 229.5 -61.5t165 -166.5t60.5 -229q0 -191 -132.5 -323.5t-322.5 -132.5q-189 0 -321.5 133t-132.5 323zM160 1001q0 -161 107 -270.5t261 -109.5q156 0 264.5 109t108.5 271q0 160 -108.5 269.5t-264.5 109.5 q-153 0 -260.5 -109.5t-107.5 -269.5zM362 797v61h44v293h-41v61h184q145 0 145 -118q0 -86 -73 -115l59 -105q15 -20 35 -20h20v-57q-21 -9 -43 -9q-56 0 -82 48l-75 131h-48v-109h37v-61h-162zM487 1028h66q57 0 57 64q0 28 -14 43.5t-51 15.5h-58v-123z" />
<glyph unicode="&#xaf;" horiz-adv-x="581" d="M55 1180v120h471v-120h-471z" />
<glyph unicode="&#xb0;" horiz-adv-x="673" d="M63 1192q0 121 79.5 196.5t195.5 75.5q115 0 193.5 -75.5t78.5 -196.5q0 -118 -79 -196t-193 -78q-116 0 -195.5 77.5t-79.5 196.5zM182 1192q0 -74 44 -118t110 -44q68 0 110.5 43.5t42.5 118.5t-42.5 117.5t-110.5 42.5q-67 0 -110.5 -43t-43.5 -117z" />
<glyph unicode="&#xb1;" d="M117 0v115h805v-115h-805zM117 594v115h342v280h129v-280h334v-115h-334v-291h-129v291h-342z" />
<glyph unicode="&#xb2;" horiz-adv-x="636" d="M43 774v82l272 299q58 61 83.5 105t25.5 100q0 135 -160 135q-43 0 -88 -10v-162h-119v217q37 24 99 40.5t127 16.5q122 0 199 -60t77 -175q0 -79 -35.5 -139t-113.5 -142l-189 -196h354v-111h-532z" />
<glyph unicode="&#xb3;" horiz-adv-x="634" d="M49 868l47 74q90 -68 189 -68q78 0 124 34.5t46 99.5q0 61 -42 97t-128 36h-64v96h43q162 0 162 135q0 123 -150 123q-31 0 -81 -8v-141h-121v194q88 57 219 57q116 0 192 -54t76 -165q0 -137 -123 -186q152 -44 152 -197q0 -114 -82.5 -173.5t-202.5 -59.5 q-82 0 -149 27.5t-107 78.5z" />
<glyph unicode="&#xb4;" horiz-adv-x="452" d="M55 1077l189 363h125q13 0 20.5 -7.5t7.5 -17.5q0 -11 -14 -35l-219 -303h-109z" />
<glyph unicode="&#xb5;" horiz-adv-x="1015" d="M156 -307l12 307v936h139v-629q0 -104 50 -153.5t128 -49.5q89 0 150 60t61 153v619h142v-760q0 -39 16.5 -55.5t52.5 -16.5q13 0 58 5v-109q-48 -10 -95 -10q-77 0 -116 44t-39 116q-23 -83 -94 -126.5t-154 -43.5q-113 0 -170 81v-423h-141v55z" />
<glyph unicode="&#xb6;" horiz-adv-x="1236" d="M68 971q0 193 121.5 287t332.5 94h615v-115h-154v-1217q0 -193 -110.5 -298t-290.5 -105h-31v123h33q109 0 182.5 68.5t73.5 211.5v1217h-146v-1233h-143v574h-29q-208 0 -331 100t-123 293z" />
<glyph unicode="&#xb7;" horiz-adv-x="434" d="M109 502q0 46 31 77t77 31t77.5 -31t31.5 -77t-31.5 -77.5t-77.5 -31.5t-77 31.5t-31 77.5z" />
<glyph unicode="&#xb8;" horiz-adv-x="462" d="M55 -264q53 -12 107 -12q108 0 108 63t-125 63l19 179h96v-109q146 -19 146 -131q0 -80 -61 -126t-159 -46q-66 0 -131 21v98z" />
<glyph unicode="&#xb9;" horiz-adv-x="571" d="M59 1440v90l232 55h86v-715h151v-96h-452v96h174v588z" />
<glyph unicode="&#xba;" horiz-adv-x="591" d="M59 969q0 148 66.5 221.5t173.5 73.5q103 0 168 -73.5t65 -221.5q0 -149 -65 -223t-168 -74q-107 0 -173.5 74t-66.5 223zM76 416v110h440v-110h-440zM184 967q0 -108 29 -154.5t84 -46.5q54 0 81.5 46.5t27.5 154.5q0 200 -109 200q-113 0 -113 -200z" />
<glyph unicode="&#xbb;" horiz-adv-x="884" d="M104 193l185 313l-185 311l93 55l252 -366l-252 -369zM453 193l184 313l-184 311l92 55l252 -366l-252 -369z" />
<glyph unicode="&#xbc;" horiz-adv-x="1515" d="M59 1206v90l232 56h86v-715h151v-96h-452v96h174v588zM442 -2l250 676l232 676h135l-250 -676l-231 -676h-136zM831 145v76l330 590h121h59v-559h125v-107h-125v-145h-124v145h-386zM975 252h244v377q0 40 2 69q-3 -6 -13.5 -28t-17.5 -35z" />
<glyph unicode="&#xbd;" horiz-adv-x="1566" d="M59 1206v90l232 56h86v-715h151v-96h-452v96h174v588zM442 -2l250 676l232 676h135l-250 -676l-231 -676h-136zM973 0v82l272 299q58 61 83.5 105t25.5 100q0 135 -160 135q-43 0 -88 -10v-162h-119v217q37 24 98.5 40.5t126.5 16.5q122 0 199.5 -60t77.5 -175 q0 -79 -35.5 -139t-114.5 -142l-188 -196h354v-111h-532z" />
<glyph unicode="&#xbe;" horiz-adv-x="1560" d="M49 635l47 74q90 -68 189 -68q78 0 124 34t46 99q0 61 -42 97t-128 36h-64v97h43q162 0 162 135q0 123 -150 123q-25 0 -81 -9v-141h-121v195q88 57 219 57q116 0 192 -54t76 -165q0 -138 -123 -187q152 -44 152 -196q0 -59 -23.5 -104.5t-64 -73.5t-90.5 -42t-107 -14 q-82 0 -149 28t-107 79zM487 -2l250 676l232 676h135l-250 -676l-231 -676h-136zM877 145v76l329 590h121h59v-559h125v-107h-125v-145h-124v145h-385zM1020 252h244v377q0 40 2 69q-3 -6 -13.5 -28t-17.5 -35z" />
<glyph unicode="&#xbf;" horiz-adv-x="833" d="M68 -72q0 58 14 106.5t45.5 92.5t62 76t82.5 78q45 41 63 59t41 49t30.5 61.5t7.5 71.5v37h125q4 -36 4 -65q0 -84 -37.5 -146.5t-118.5 -136.5q-51 -48 -72 -70t-47.5 -57t-35.5 -68.5t-9 -76.5q0 -108 64 -154.5t186 -46.5q93 0 166 20v269h137v-326q-139 -84 -327 -84 q-175 0 -278 79t-103 232zM373 848q0 46 32 77t78 31q45 0 76 -31t31 -77t-31.5 -77.5t-75.5 -31.5q-46 0 -78 31.5t-32 77.5z" />
<glyph unicode="&#xc0;" horiz-adv-x="1214" d="M14 0v115h121l375 1237h192l377 -1237h121v-115h-434v115h166l-96 315h-476l-94 -315h154v-115h-406zM350 1737q0 10 8 18t21 8h117l172 -293h-111l-190 234q-17 17 -17 33zM395 547h406l-170 553q-13 50 -33 110q-2 -7 -33 -112z" />
<glyph unicode="&#xc1;" horiz-adv-x="1214" d="M14 0v115h121l375 1237h192l377 -1237h121v-115h-434v115h166l-96 315h-476l-94 -315h154v-115h-406zM395 547h406l-170 553q-13 50 -33 110q-2 -7 -33 -112zM537 1470l172 293h116q13 0 21 -8t8 -18q0 -17 -16 -33l-193 -234h-108z" />
<glyph unicode="&#xc2;" horiz-adv-x="1214" d="M14 0v115h121l375 1237h192l377 -1237h121v-115h-434v115h166l-96 315h-476l-94 -315h154v-115h-406zM293 1470l258 293h108l256 -293h-118l-193 166l-190 -166h-121zM395 547h406l-170 553q-13 50 -33 110q-2 -7 -33 -112z" />
<glyph unicode="&#xc3;" horiz-adv-x="1214" d="M14 0v115h121l375 1237h192l377 -1237h121v-115h-434v115h166l-96 315h-476l-94 -315h154v-115h-406zM287 1538q0 86 45 139.5t121 53.5q68 0 143 -54l47 -32q63 -48 100 -48q66 0 66 89v30h106q5 -45 5 -53q0 -87 -46 -140t-122 -53q-66 0 -144 54l-47 35q-39 27 -59 37 t-41 10q-66 0 -66 -90v-31h-104q-4 32 -4 53zM395 547h406l-170 553q-13 50 -33 110q-2 -7 -33 -112z" />
<glyph unicode="&#xc4;" horiz-adv-x="1214" d="M14 0v115h121l375 1237h192l377 -1237h121v-115h-434v115h166l-96 315h-476l-94 -315h154v-115h-406zM326 1589q0 43 28.5 71t71.5 28q40 0 68 -28.5t28 -70.5q0 -40 -28 -68t-68 -28q-42 0 -71 28t-29 68zM395 547h406l-170 553q-13 50 -33 110q-2 -7 -33 -112z M688 1589q0 43 28 71t70 28q40 0 68.5 -28.5t28.5 -70.5q0 -40 -28.5 -68t-68.5 -28q-41 0 -69.5 28t-28.5 68z" />
<glyph unicode="&#xc5;" horiz-adv-x="1214" d="M14 0v115h121l375 1237h192l377 -1237h121v-115h-434v115h166l-96 315h-476l-94 -315h154v-115h-406zM391 1624q0 87 61 147t150 60q91 0 152 -60t61 -147q0 -88 -60.5 -147.5t-152.5 -59.5q-89 0 -150 59.5t-61 147.5zM395 547h406l-170 553q-13 50 -33 110 q-2 -7 -33 -112zM504 1624q0 -45 29.5 -73.5t72.5 -28.5q41 0 70 28.5t29 73.5q0 43 -29 71.5t-70 28.5q-43 0 -72.5 -28t-29.5 -72z" />
<glyph unicode="&#xc6;" horiz-adv-x="1681" d="M0 0v115h121l502 1122h-185v115h1129v-303h-135v188h-539l84 -483h364v-117h-344l90 -522h363v196h135v-311h-821v115h170l-53 315h-484l-139 -315h160v-115h-418zM451 547h409l-115 670q-29 -72 -49 -115z" />
<glyph unicode="&#xc7;" horiz-adv-x="1058" d="M104 686q0 140 26.5 254t73.5 194t114 134t146 79t171 25q179 0 303 -86v-332h-139v275q-71 22 -146 22q-191 0 -293 -131t-102 -422q0 -158 31 -274t86 -182t122 -96.5t148 -30.5q82 0 146 30t129 88l63 -81q-114 -160 -319 -172v-60q145 -19 145 -131q0 -80 -61 -126 t-158 -46q-66 0 -131 21v98q53 -12 106 -12q52 0 80.5 16.5t28.5 46.5q0 63 -125 63l14 134q-210 26 -334.5 207t-124.5 495z" />
<glyph unicode="&#xc8;" horiz-adv-x="1087" d="M100 0v115h148v1122h-148v115h877v-303h-137v188h-441v-483h353v-117h-353v-522h459v196h135v-311h-893zM324 1737q0 10 7.5 18t20.5 8h117l172 -293h-111l-190 234q-16 16 -16 33z" />
<glyph unicode="&#xc9;" horiz-adv-x="1087" d="M100 0v115h148v1122h-148v115h877v-303h-137v188h-441v-483h353v-117h-353v-522h459v196h135v-311h-893zM510 1470l172 293h117q13 0 20.5 -8t7.5 -18q0 -17 -16 -33l-193 -234h-108z" />
<glyph unicode="&#xca;" horiz-adv-x="1087" d="M100 0v115h148v1122h-148v115h877v-303h-137v188h-441v-483h353v-117h-353v-522h459v196h135v-311h-893zM266 1470l258 293h109l256 -293h-119l-192 166l-191 -166h-121z" />
<glyph unicode="&#xcb;" horiz-adv-x="1087" d="M100 0v115h148v1122h-148v115h877v-303h-137v188h-441v-483h353v-117h-353v-522h459v196h135v-311h-893zM299 1589q0 43 28.5 71t71.5 28q40 0 68.5 -28.5t28.5 -70.5q0 -40 -28.5 -68t-68.5 -28q-42 0 -71 28t-29 68zM662 1589q0 43 28 71t70 28q40 0 68 -28.5t28 -70.5 q0 -40 -28 -68t-68 -28q-41 0 -69.5 28t-28.5 68z" />
<glyph unicode="&#xcc;" horiz-adv-x="647" d="M70 1737q0 10 7.5 18t20.5 8h117l172 -293h-111l-190 234q-16 16 -16 33zM100 0v115h148v1122h-148v115h447v-115h-148v-1122h148v-115h-447z" />
<glyph unicode="&#xcd;" horiz-adv-x="647" d="M100 0v115h148v1122h-148v115h447v-115h-148v-1122h148v-115h-447zM256 1470l172 293h117q13 0 20.5 -8t7.5 -18q0 -17 -16 -33l-192 -234h-109z" />
<glyph unicode="&#xce;" horiz-adv-x="647" d="M12 1470l258 293h109l256 -293h-119l-192 166l-191 -166h-121zM100 0v115h148v1122h-148v115h447v-115h-148v-1122h148v-115h-447z" />
<glyph unicode="&#xcf;" horiz-adv-x="647" d="M45 1589q0 43 28.5 71t71.5 28q40 0 68.5 -28.5t28.5 -70.5q0 -40 -28.5 -68t-68.5 -28q-42 0 -71 28t-29 68zM100 0v115h148v1122h-148v115h447v-115h-148v-1122h148v-115h-447zM408 1589q0 43 28 71t70 28q40 0 68 -28.5t28 -70.5q0 -40 -28 -68t-68 -28 q-41 0 -69.5 28t-28.5 68z" />
<glyph unicode="&#xd0;" horiz-adv-x="1208" d="M100 0v115h148v524h-148v115h148v483h-148v115h459q253 0 399 -175.5t146 -500.5q0 -324 -146 -500t-399 -176h-459zM399 115h150q88 0 158.5 30.5t125 94.5t84 174t29.5 260q0 151 -29.5 262t-84.5 175.5t-125 95t-158 30.5h-150v-483h269v-115h-269v-524z" />
<glyph unicode="&#xd1;" horiz-adv-x="1372" d="M106 0v115h148v1122h-148v115h359l444 -949q66 -145 95 -215v1049h-146v115h414v-115h-144v-1237h-178l-483 1022q-48 104 -88 205v-1112h141v-115h-414zM365 1538q0 86 44.5 139.5t120.5 53.5q69 0 144 -54l47 -32q63 -48 100 -48q66 0 66 89v30h106q4 -36 4 -53 q0 -87 -46 -140t-122 -53q-65 0 -143 54l-47 35q-39 27 -59 37t-41 10q-66 0 -66 -90v-31h-104q-4 32 -4 53z" />
<glyph unicode="&#xd2;" horiz-adv-x="1163" d="M104 674q0 345 129 521.5t349 176.5q221 0 349 -176t128 -522q0 -344 -128 -519t-349 -175q-220 0 -349 175t-129 519zM260 674q0 -128 16.5 -227t45.5 -163.5t70.5 -106.5t88.5 -59.5t103 -17.5q319 0 319 574q0 577 -319 577q-56 0 -103 -17.5t-88.5 -59.5t-70.5 -107 t-45.5 -165t-16.5 -228zM330 1737q0 10 7.5 18t20.5 8h117l172 -293h-110l-191 234q-16 16 -16 33z" />
<glyph unicode="&#xd3;" horiz-adv-x="1163" d="M104 674q0 345 129 521.5t349 176.5q221 0 349 -176t128 -522q0 -344 -128 -519t-349 -175q-220 0 -349 175t-129 519zM260 674q0 -128 16.5 -227t45.5 -163.5t70.5 -106.5t88.5 -59.5t103 -17.5q319 0 319 574q0 577 -319 577q-56 0 -103 -17.5t-88.5 -59.5t-70.5 -107 t-45.5 -165t-16.5 -228zM516 1470l172 293h117q13 0 21 -8t8 -18q0 -16 -17 -33l-192 -234h-109z" />
<glyph unicode="&#xd4;" horiz-adv-x="1163" d="M104 674q0 345 129 521.5t349 176.5q221 0 349 -176t128 -522q0 -344 -128 -519t-349 -175q-220 0 -349 175t-129 519zM260 674q0 -128 16.5 -227t45.5 -163.5t70.5 -106.5t88.5 -59.5t103 -17.5q319 0 319 574q0 577 -319 577q-56 0 -103 -17.5t-88.5 -59.5t-70.5 -107 t-45.5 -165t-16.5 -228zM272 1470l258 293h109l256 -293h-119l-192 166l-191 -166h-121z" />
<glyph unicode="&#xd5;" horiz-adv-x="1163" d="M104 674q0 345 129 521.5t349 176.5q221 0 349 -176t128 -522q0 -344 -128 -519t-349 -175q-220 0 -349 175t-129 519zM260 674q0 -128 16.5 -227t45.5 -163.5t70.5 -106.5t88.5 -59.5t103 -17.5q319 0 319 574q0 577 -319 577q-56 0 -103 -17.5t-88.5 -59.5t-70.5 -107 t-45.5 -165t-16.5 -228zM266 1538q0 86 45 139.5t121 53.5q68 0 143 -54l48 -32q63 -48 100 -48q65 0 65 89v30h107q4 -36 4 -53q0 -87 -46 -140t-122 -53q-65 0 -143 54l-47 35q-38 26 -58.5 36.5t-42.5 10.5q-65 0 -65 -90v-31h-105q-4 32 -4 53z" />
<glyph unicode="&#xd6;" horiz-adv-x="1163" d="M104 674q0 345 129 521.5t349 176.5q221 0 349 -176t128 -522q0 -344 -128 -519t-349 -175q-220 0 -349 175t-129 519zM260 674q0 -128 16.5 -227t45.5 -163.5t70.5 -106.5t88.5 -59.5t103 -17.5q319 0 319 574q0 577 -319 577q-56 0 -103 -17.5t-88.5 -59.5t-70.5 -107 t-45.5 -165t-16.5 -228zM305 1589q0 43 29 71t72 28q40 0 68 -28.5t28 -70.5q0 -40 -28 -68t-68 -28q-43 0 -72 28t-29 68zM668 1589q0 43 28 71t70 28q40 0 68 -28.5t28 -70.5q0 -40 -28 -68t-68 -28q-41 0 -69.5 28t-28.5 68z" />
<glyph unicode="&#xd7;" d="M137 291l299 295l-297 295l82 80l297 -293l293 293l82 -80l-295 -295l291 -293l-82 -82l-289 295l-299 -295z" />
<glyph unicode="&#xd8;" horiz-adv-x="1163" d="M70 -16l135 215q-101 181 -101 475q0 345 129 521.5t349 176.5q176 0 292 -110l111 176l109 -70l-136 -215q101 -181 101 -479q0 -345 -128 -521t-349 -176q-177 0 -293 113l-113 -176zM258 674q0 -197 39 -328l504 797q-78 110 -219 110q-71 0 -127 -29.5t-101.5 -94.5 t-70.5 -180.5t-25 -274.5zM362 209q79 -111 220 -111q71 0 127 29.5t101.5 94t70 179.5t24.5 273q0 201 -39 332z" />
<glyph unicode="&#xd9;" horiz-adv-x="1302" d="M84 1237v115h440v-115h-143v-852q0 -74 25 -130.5t67.5 -89.5t93 -49t107.5 -16t105.5 16t87.5 48.5t61 89t22 131.5v852h-143v115h412v-115h-144v-854q0 -190 -112 -296.5t-299 -106.5q-189 0 -312 107.5t-123 295.5v854h-145zM420 1737q0 10 8 18t21 8h116l172 -293 h-110l-191 234q-16 16 -16 33z" />
<glyph unicode="&#xda;" horiz-adv-x="1302" d="M84 1237v115h440v-115h-143v-852q0 -74 25 -130.5t67.5 -89.5t93 -49t107.5 -16t105.5 16t87.5 48.5t61 89t22 131.5v852h-143v115h412v-115h-144v-854q0 -190 -112 -296.5t-299 -106.5q-189 0 -312 107.5t-123 295.5v854h-145zM606 1470l172 293h117q13 0 21 -8t8 -18 q0 -16 -17 -33l-192 -234h-109z" />
<glyph unicode="&#xdb;" horiz-adv-x="1302" d="M84 1237v115h440v-115h-143v-852q0 -74 25 -130.5t67.5 -89.5t93 -49t107.5 -16t105.5 16t87.5 48.5t61 89t22 131.5v852h-143v115h412v-115h-144v-854q0 -190 -112 -296.5t-299 -106.5q-189 0 -312 107.5t-123 295.5v854h-145zM362 1470l259 293h108l256 -293h-119 l-192 166l-191 -166h-121z" />
<glyph unicode="&#xdc;" horiz-adv-x="1302" d="M84 1237v115h440v-115h-143v-852q0 -74 25 -130.5t67.5 -89.5t93 -49t107.5 -16t105.5 16t87.5 48.5t61 89t22 131.5v852h-143v115h412v-115h-144v-854q0 -190 -112 -296.5t-299 -106.5q-189 0 -312 107.5t-123 295.5v854h-145zM395 1589q0 43 29 71t72 28q40 0 68 -28.5 t28 -70.5q0 -40 -28 -68t-68 -28q-43 0 -72 28t-29 68zM758 1589q0 43 28 71t70 28q40 0 68 -28.5t28 -70.5q0 -40 -28 -68t-68 -28q-41 0 -69.5 28t-28.5 68z" />
<glyph unicode="&#xdd;" horiz-adv-x="1196" d="M14 1237v115h449v-115h-162l254 -461q26 -44 55 -104q6 15 15 31.5t21.5 38.5t19.5 34l252 461h-158v115h422v-115h-123l-381 -694v-428h184v-115h-520v115h186v426l-391 696h-123zM537 1470l172 293h116q13 0 21 -8t8 -18q0 -17 -16 -33l-193 -234h-108z" />
<glyph unicode="&#xde;" horiz-adv-x="1110" d="M100 0v115h148v1122h-148v115h480v-115h-181v-166h193q211 0 331.5 -91.5t120.5 -281.5q0 -191 -121.5 -288t-330.5 -97h-193v-198h181v-115h-480zM399 426h195q150 0 222.5 73t72.5 197q0 262 -295 262h-195v-532z" />
<glyph unicode="&#xdf;" horiz-adv-x="1019" d="M72 0v106h129v721h-129v109h129v176q0 152 86 243t241 91q146 0 233 -86.5t87 -257.5q0 -197 -111 -283q199 -87 199 -413q0 -121 -27 -207.5t-75 -132.5t-103 -66t-123 -20q-76 0 -135 20v104q55 -8 105 -8q33 0 59 4.5t57 23t51 50.5t34 91.5t14 140.5q0 183 -61 265.5 t-159 82.5h-22v106h18q62 0 100 62t38 174q0 124 -48 181.5t-131 57.5q-88 0 -137 -56.5t-49 -170.5v-1108h-270z" />
<glyph unicode="&#xe0;" horiz-adv-x="899" d="M72 248q0 122 84.5 191t226.5 69h199v117q0 104 -52.5 154t-146.5 50q-114 0 -221 -79l-58 73q53 66 133 99.5t173 33.5q151 0 230 -84.5t79 -236.5v-459q0 -39 17 -55.5t52 -16.5q15 0 60 5v-109q-52 -10 -92 -10q-78 0 -118 43.5t-42 116.5q-21 -83 -92.5 -126.5 t-163.5 -43.5q-129 0 -198.5 79t-69.5 189zM158 1415q0 10 7.5 17.5t20.5 7.5h125l189 -363h-111l-215 303q-16 22 -16 35zM213 252q0 -64 37.5 -109t114.5 -45q91 0 154 62t63 164v82h-176q-89 0 -141 -40t-52 -114z" />
<glyph unicode="&#xe1;" horiz-adv-x="899" d="M72 248q0 122 84.5 191t226.5 69h199v117q0 104 -52.5 154t-146.5 50q-114 0 -221 -79l-58 73q53 66 133 99.5t173 33.5q151 0 230 -84.5t79 -236.5v-459q0 -39 17 -55.5t52 -16.5q15 0 60 5v-109q-52 -10 -92 -10q-78 0 -118 43.5t-42 116.5q-21 -83 -92.5 -126.5 t-163.5 -43.5q-129 0 -198.5 79t-69.5 189zM213 252q0 -64 37.5 -109t114.5 -45q91 0 154 62t63 164v82h-176q-89 0 -141 -40t-52 -114zM350 1077l189 363h125q13 0 20.5 -7.5t7.5 -17.5q0 -11 -14 -35l-219 -303h-109z" />
<glyph unicode="&#xe2;" horiz-adv-x="899" d="M72 248q0 122 84.5 191t226.5 69h199v117q0 104 -52.5 154t-146.5 50q-114 0 -221 -79l-58 73q53 66 133 99.5t173 33.5q151 0 230 -84.5t79 -236.5v-459q0 -39 17 -55.5t52 -16.5q15 0 60 5v-109q-52 -10 -92 -10q-78 0 -118 43.5t-42 116.5q-21 -83 -92.5 -126.5 t-163.5 -43.5q-129 0 -198.5 79t-69.5 189zM125 1077l240 363h108l238 -363h-113l-180 217l-178 -217h-115zM213 252q0 -64 37.5 -109t114.5 -45q91 0 154 62t63 164v82h-176q-89 0 -141 -40t-52 -114z" />
<glyph unicode="&#xe3;" horiz-adv-x="899" d="M72 248q0 122 84.5 191t226.5 69h199v117q0 104 -52.5 154t-146.5 50q-114 0 -221 -79l-58 73q53 66 133 99.5t173 33.5q151 0 230 -84.5t79 -236.5v-459q0 -39 17 -55.5t52 -16.5q15 0 60 5v-109q-52 -10 -92 -10q-78 0 -118 43.5t-42 116.5q-21 -83 -92.5 -126.5 t-163.5 -43.5q-129 0 -198.5 79t-69.5 189zM119 1190q0 87 45.5 139.5t122.5 52.5q71 0 133 -53l39 -35q20 -17 29 -24t23 -13t30 -6q63 0 63 86v33h107q4 -36 4 -55q0 -85 -46 -138t-122 -53q-67 0 -133 54l-41 34q-22 19 -29 25t-22 13t-31 7q-64 0 -64 -88v-32h-104 q-4 36 -4 53zM213 252q0 -64 37.5 -109t114.5 -45q91 0 154 62t63 164v82h-176q-89 0 -141 -40t-52 -114z" />
<glyph unicode="&#xe4;" horiz-adv-x="899" d="M72 248q0 122 84.5 191t226.5 69h199v117q0 104 -52.5 154t-146.5 50q-114 0 -221 -79l-58 73q53 66 133 99.5t173 33.5q151 0 230 -84.5t79 -236.5v-459q0 -39 17 -55.5t52 -16.5q15 0 60 5v-109q-52 -10 -92 -10q-78 0 -118 43.5t-42 116.5q-21 -83 -92.5 -126.5 t-163.5 -43.5q-129 0 -198.5 79t-69.5 189zM158 1257q0 41 29 70t71 29q40 0 68 -29t28 -70q0 -40 -28 -68t-68 -28q-42 0 -71 28t-29 68zM213 252q0 -64 37.5 -109t114.5 -45q91 0 154 62t63 164v82h-176q-89 0 -141 -40t-52 -114zM483 1257q0 41 29 70t70 29q40 0 68 -29 t28 -70q0 -40 -28 -68t-68 -28q-41 0 -70 28t-29 68z" />
<glyph unicode="&#xe5;" horiz-adv-x="899" d="M72 248q0 122 84.5 191t226.5 69h199v117q0 104 -52.5 154t-146.5 50q-114 0 -221 -79l-58 73q53 66 133 99.5t173 33.5q151 0 230 -84.5t79 -236.5v-459q0 -39 17 -55.5t52 -16.5q15 0 60 5v-109q-52 -10 -92 -10q-78 0 -118 43.5t-42 116.5q-21 -83 -92.5 -126.5 t-163.5 -43.5q-129 0 -198.5 79t-69.5 189zM205 1260q0 88 61 147t150 59q92 0 152.5 -59t60.5 -147q0 -87 -61 -147t-152 -60q-89 0 -150 60t-61 147zM213 252q0 -64 37.5 -109t114.5 -45q91 0 154 62t63 164v82h-176q-89 0 -141 -40t-52 -114zM317 1260q0 -45 30 -74 t73 -29q41 0 69.5 29t28.5 74q0 43 -28.5 71.5t-69.5 28.5q-43 0 -73 -28t-30 -72z" />
<glyph unicode="&#xe6;" horiz-adv-x="1355" d="M72 252q0 125 84.5 198.5t226.5 73.5h199v101q0 104 -52.5 154t-146.5 50q-114 0 -221 -79l-58 73q52 66 132.5 99.5t171.5 33.5q201 0 274 -153q84 153 260 153q147 0 238.5 -111.5t91.5 -314.5q0 -66 -8 -106h-541q11 -169 84.5 -243.5t189.5 -74.5q108 0 203 74 l57 -74q-101 -126 -280 -126q-107 0 -193 49t-139 145q-39 -94 -118.5 -144t-182.5 -50q-131 0 -201.5 78.5t-70.5 193.5zM213 256q0 -67 37 -112.5t115 -45.5q91 0 154 62t63 164v100h-176q-89 0 -141 -44.5t-52 -123.5zM721 524h414v6q0 160 -55 237t-144 77 q-93 0 -150.5 -80t-64.5 -240z" />
<glyph unicode="&#xe7;" horiz-adv-x="827" d="M84 475q0 239 108 360t283 121q72 0 137.5 -19t108.5 -48v-254h-129v199q-45 10 -90 10q-275 0 -275 -359q0 -102 22 -178t60.5 -118.5t86 -62.5t104.5 -20q99 0 202 76l56 -76q-83 -113 -250 -126v-60q145 -19 145 -131q0 -80 -61 -126t-158 -46q-66 0 -131 21v98 q53 -12 107 -12q108 0 108 63t-125 63l15 136q-148 26 -236 151t-88 338z" />
<glyph unicode="&#xe8;" horiz-adv-x="862" d="M84 477q0 233 101 356t259 123q150 0 241 -111t91 -315q0 -64 -6 -102h-543q11 -169 85.5 -245.5t191.5 -76.5q108 0 203 74l57 -74q-99 -126 -281 -126q-179 0 -289 128t-110 369zM188 1415q0 10 8 17.5t21 7.5h125l188 -363h-110l-215 303q-17 24 -17 35zM227 532h414 q0 159 -55 235.5t-144 76.5q-90 0 -148 -77t-67 -235z" />
<glyph unicode="&#xe9;" horiz-adv-x="862" d="M84 477q0 233 101 356t259 123q150 0 241 -111t91 -315q0 -64 -6 -102h-543q11 -169 85.5 -245.5t191.5 -76.5q108 0 203 74l57 -74q-99 -126 -281 -126q-179 0 -289 128t-110 369zM227 532h414q0 159 -55 235.5t-144 76.5q-90 0 -148 -77t-67 -235zM381 1077l188 363 h125q13 0 21 -7.5t8 -17.5q0 -11 -14 -35l-220 -303h-108z" />
<glyph unicode="&#xea;" horiz-adv-x="862" d="M84 477q0 233 101 356t259 123q150 0 241 -111t91 -315q0 -64 -6 -102h-543q11 -169 85.5 -245.5t191.5 -76.5q108 0 203 74l57 -74q-99 -126 -281 -126q-179 0 -289 128t-110 369zM156 1077l239 363h109l237 -363h-112l-180 217l-179 -217h-114zM227 532h414 q0 159 -55 235.5t-144 76.5q-90 0 -148 -77t-67 -235z" />
<glyph unicode="&#xeb;" horiz-adv-x="862" d="M84 477q0 233 101 356t259 123q150 0 241 -111t91 -315q0 -64 -6 -102h-543q11 -169 85.5 -245.5t191.5 -76.5q108 0 203 74l57 -74q-99 -126 -281 -126q-179 0 -289 128t-110 369zM188 1257q0 41 29 70t72 29q40 0 68 -29t28 -70q0 -40 -28 -68t-68 -28q-43 0 -72 28 t-29 68zM227 532h414q0 159 -55 235.5t-144 76.5q-90 0 -148 -77t-67 -235zM514 1257q0 41 28.5 70t69.5 29q40 0 68.5 -29t28.5 -70q0 -40 -28.5 -68t-68.5 -28q-41 0 -69.5 28t-28.5 68z" />
<glyph unicode="&#xec;" horiz-adv-x="518" d="M29 1413q0 11 7.5 19t20.5 8h123l135 -363h-108l-162 299q-16 26 -16 37zM72 0v106h129v721h-129v109h270v-830h125v-106h-395z" />
<glyph unicode="&#xed;" horiz-adv-x="518" d="M72 0v106h129v721h-129v109h270v-830h125v-106h-395zM188 1077l136 363h122q13 0 21 -8t8 -19t-16 -37l-162 -299h-109z" />
<glyph unicode="&#xee;" horiz-adv-x="518" d="M-45 1077l240 363h108l238 -363h-113l-180 217l-178 -217h-115zM72 0v106h129v721h-129v109h270v-830h125v-106h-395z" />
<glyph unicode="&#xef;" horiz-adv-x="518" d="M4 1257q0 41 29 70t71 29q40 0 68.5 -29t28.5 -70q0 -40 -28.5 -68t-68.5 -28q-42 0 -71 28t-29 68zM72 0v106h129v721h-129v109h270v-830h125v-106h-395zM291 1257q0 41 28.5 70t71.5 29q40 0 68 -29t28 -70q0 -40 -28 -68t-68 -28q-42 0 -71 28t-29 68z" />
<glyph unicode="&#xf0;" horiz-adv-x="899" d="M84 446q0 117 28.5 209t77.5 148.5t111.5 85.5t134.5 29q77 0 134.5 -33t88.5 -94q-56 224 -233 391l-215 -135l-55 88l186 116q-74 56 -160 105l72 90q107 -54 199 -125l198 125l56 -90l-170 -107q278 -271 278 -733q0 -278 -102 -412q-94 -124 -260 -124 q-162 0 -265.5 119t-103.5 347zM227 449q0 -188 59.5 -272.5t162.5 -84.5q223 0 223 357q0 356 -223 356q-222 0 -222 -356z" />
<glyph unicode="&#xf1;" horiz-adv-x="1046" d="M72 0v106h129v721h-129v109h252v-160q24 87 96.5 133.5t167.5 46.5q131 0 206.5 -85t75.5 -228v-537h127v-106h-374v106h108v523q0 103 -50 152.5t-128 49.5q-89 0 -150 -60.5t-61 -154.5v-510h107v-106h-377zM231 1190q0 87 45.5 139.5t122.5 52.5q71 0 133 -53l39 -35 q20 -17 29 -24t23 -13t30 -6q64 0 64 86v33h106q4 -36 4 -55q0 -85 -46 -138t-122 -53q-67 0 -133 54l-41 34q-22 19 -29 25t-22 13t-31 7q-63 0 -63 -88v-32h-104q-5 45 -5 53z" />
<glyph unicode="&#xf2;" horiz-adv-x="897" d="M84 467q0 124 28.5 220t79.5 153.5t115.5 86.5t141.5 29q161 0 262.5 -122.5t101.5 -366.5q0 -124 -28.5 -219t-78.5 -152.5t-115 -86.5t-142 -29q-160 0 -262.5 122.5t-102.5 364.5zM188 1415q0 10 8 17.5t21 7.5h125l188 -363h-110l-215 303q-17 24 -17 35zM229 467 q0 -375 220 -375q221 0 221 375q0 377 -221 377q-220 0 -220 -377z" />
<glyph unicode="&#xf3;" horiz-adv-x="897" d="M84 467q0 124 28.5 220t79.5 153.5t115.5 86.5t141.5 29q161 0 262.5 -122.5t101.5 -366.5q0 -124 -28.5 -219t-78.5 -152.5t-115 -86.5t-142 -29q-160 0 -262.5 122.5t-102.5 364.5zM229 467q0 -375 220 -375q221 0 221 375q0 377 -221 377q-220 0 -220 -377zM381 1077 l188 363h125q13 0 21 -7.5t8 -17.5q0 -11 -14 -35l-220 -303h-108z" />
<glyph unicode="&#xf4;" horiz-adv-x="897" d="M84 467q0 124 28.5 220t79.5 153.5t115.5 86.5t141.5 29q161 0 262.5 -122.5t101.5 -366.5q0 -124 -28.5 -219t-78.5 -152.5t-115 -86.5t-142 -29q-160 0 -262.5 122.5t-102.5 364.5zM156 1077l239 363h109l237 -363h-112l-180 217l-179 -217h-114zM229 467 q0 -375 220 -375q221 0 221 375q0 377 -221 377q-220 0 -220 -377z" />
<glyph unicode="&#xf5;" horiz-adv-x="897" d="M84 467q0 124 28.5 220t79.5 153.5t115.5 86.5t141.5 29q161 0 262.5 -122.5t101.5 -366.5q0 -124 -28.5 -219t-78.5 -152.5t-115 -86.5t-142 -29q-160 0 -262.5 122.5t-102.5 364.5zM150 1190q0 87 45 139.5t122 52.5q72 0 134 -53l38 -35q20 -17 29 -24t23 -13t30 -6 q64 0 64 86v33h106q4 -36 4 -55q0 -85 -45.5 -138t-121.5 -53q-68 0 -134 54l-41 34q-3 2 -10 8.5t-9 8.5t-8 6.5t-9 6.5t-8 5t-8.5 4.5t-8.5 3t-10 2t-10 0.5q-64 0 -64 -88v-32h-104q-4 36 -4 53zM229 467q0 -375 220 -375q221 0 221 375q0 377 -221 377q-220 0 -220 -377 z" />
<glyph unicode="&#xf6;" horiz-adv-x="897" d="M84 467q0 124 28.5 220t79.5 153.5t115.5 86.5t141.5 29q161 0 262.5 -122.5t101.5 -366.5q0 -124 -28.5 -219t-78.5 -152.5t-115 -86.5t-142 -29q-160 0 -262.5 122.5t-102.5 364.5zM188 1257q0 41 29 70t72 29q40 0 68 -29t28 -70q0 -40 -28 -68t-68 -28q-43 0 -72 28 t-29 68zM229 467q0 -375 220 -375q221 0 221 375q0 377 -221 377q-220 0 -220 -377zM514 1257q0 41 28.5 70t69.5 29q40 0 68.5 -29t28.5 -70q0 -40 -28.5 -68t-68.5 -28q-41 0 -69.5 28t-28.5 68z" />
<glyph unicode="&#xf7;" d="M106 532v117h842v-117h-842zM418 264q0 44 32 75.5t76 31.5t74.5 -31.5t30.5 -75.5q0 -46 -30.5 -77t-74.5 -31q-45 0 -76.5 31.5t-31.5 76.5zM418 918q0 44 32 75t76 31t74.5 -31t30.5 -75q0 -46 -30.5 -77.5t-74.5 -31.5t-76 31.5t-32 77.5z" />
<glyph unicode="&#xf8;" horiz-adv-x="917" d="M45 -27l123 170q-74 123 -74 324q0 244 102 366.5t263 122.5q130 0 221 -82l106 148l86 -61l-122 -173q71 -123 71 -321q0 -124 -28.5 -219t-78.5 -152.5t-114.5 -86.5t-140.5 -29q-133 0 -221 79l-107 -145zM236 467q0 -119 22 -199l350 508q-56 68 -149 68 q-223 0 -223 -377zM307 160q56 -70 152 -70q223 0 223 377q0 114 -23 201z" />
<glyph unicode="&#xf9;" horiz-adv-x="1026" d="M51 827v109h268v-629q0 -104 50 -153.5t127 -49.5q89 0 151 60.5t62 152.5v510h-125v109h264v-760q0 -39 18 -55.5t54 -16.5q12 0 57 5v-109q-52 -10 -96 -10q-75 0 -114.5 44t-41.5 116q-22 -82 -94.5 -126t-167.5 -44q-133 0 -209 85t-76 228v534h-127zM250 1415 q0 10 8 17.5t21 7.5h124l189 -363h-111l-215 303q-16 22 -16 35z" />
<glyph unicode="&#xfa;" horiz-adv-x="1026" d="M51 827v109h268v-629q0 -104 50 -153.5t127 -49.5q89 0 151 60.5t62 152.5v510h-125v109h264v-760q0 -39 18 -55.5t54 -16.5q12 0 57 5v-109q-52 -10 -96 -10q-75 0 -114.5 44t-41.5 116q-22 -82 -94.5 -126t-167.5 -44q-133 0 -209 85t-76 228v534h-127zM420 1077 l188 363h125q13 0 21 -7.5t8 -17.5q0 -11 -14 -35l-220 -303h-108z" />
<glyph unicode="&#xfb;" horiz-adv-x="1026" d="M51 827v109h268v-629q0 -104 50 -153.5t127 -49.5q89 0 151 60.5t62 152.5v510h-125v109h264v-760q0 -39 18 -55.5t54 -16.5q12 0 57 5v-109q-52 -10 -96 -10q-75 0 -114.5 44t-41.5 116q-22 -82 -94.5 -126t-167.5 -44q-133 0 -209 85t-76 228v534h-127zM217 1077 l240 363h108l238 -363h-113l-180 217l-178 -217h-115z" />
<glyph unicode="&#xfc;" horiz-adv-x="1026" d="M51 827v109h268v-629q0 -104 50 -153.5t127 -49.5q89 0 151 60.5t62 152.5v510h-125v109h264v-760q0 -39 18 -55.5t54 -16.5q12 0 57 5v-109q-52 -10 -96 -10q-75 0 -114.5 44t-41.5 116q-22 -82 -94.5 -126t-167.5 -44q-133 0 -209 85t-76 228v534h-127zM250 1257 q0 41 29 70t71 29q40 0 68 -29t28 -70q0 -40 -28 -68t-68 -28q-42 0 -71 28t-29 68zM575 1257q0 41 29 70t70 29q40 0 68 -29t28 -70q0 -40 -28 -68t-68 -28q-41 0 -70 28t-29 68z" />
<glyph unicode="&#xfd;" horiz-adv-x="950" d="M31 827v109h342v-109h-113l211 -671q12 -30 21 -60q2 10 8 30t8 30l215 671h-113v109h310v-109h-86l-320 -989q-39 -121 -111 -171t-178 -50q-67 0 -104 10v107q62 -4 88 -4q153 0 199 143l12 35l-301 919h-88zM422 1077l188 363h125q13 0 21 -7.5t8 -17.5q0 -11 -14 -35 l-220 -303h-108z" />
<glyph unicode="&#xfe;" horiz-adv-x="972" d="M43 -258h129v1577h-129v106h268v-637q24 76 88 122t156 46q150 0 241 -123t91 -366q0 -244 -91 -365.5t-239 -121.5q-94 0 -158 46.5t-88 125.5v-410h146v-104h-414v104zM311 467q0 -190 58.5 -279.5t158.5 -89.5q98 0 156.5 87.5t58.5 281.5q0 195 -58 282t-157 87 q-100 0 -158.5 -89t-58.5 -280z" />
<glyph unicode="&#xff;" horiz-adv-x="950" d="M31 827v109h342v-109h-113l211 -671q12 -30 21 -60q2 10 8 30t8 30l215 671h-113v109h310v-109h-86l-320 -989q-39 -121 -111 -171t-178 -50q-67 0 -104 10v107q62 -4 88 -4q153 0 199 143l12 35l-301 919h-88zM229 1257q0 41 29 70t72 29q40 0 68 -29t28 -70 q0 -40 -28 -68t-68 -28q-43 0 -72 28t-29 68zM555 1257q0 41 28.5 70t69.5 29q40 0 68.5 -29t28.5 -70q0 -40 -28.5 -68t-68.5 -28q-41 0 -69.5 28t-28.5 68z" />
<glyph unicode="&#x152;" horiz-adv-x="1642" d="M104 676q0 355 138 525.5t391 170.5q70 0 168 -20h729v-303h-135v188h-445v-483h353v-117h-353v-522h461v196h135v-311h-745q-98 -20 -168 -20q-253 0 -391 170.5t-138 525.5zM258 676q0 -138 20 -241.5t53 -166.5t83 -101.5t102.5 -52.5t118.5 -14q56 0 164 19v1114 q-103 18 -164 18q-66 0 -118.5 -14t-102.5 -52.5t-83 -101.5t-53 -166t-20 -241z" />
<glyph unicode="&#x153;" horiz-adv-x="1447" d="M84 467q0 124 28.5 220t79 153.5t114.5 86.5t140 29q98 0 174 -47t121 -143q44 94 119 142t170 48q150 0 241 -111t91 -315q0 -27 -6 -102h-543q11 -170 84.5 -246t189.5 -76q110 0 205 74l58 -74q-101 -126 -283 -126q-109 0 -192 50t-132 148q-85 -198 -297 -198 q-158 0 -260 122.5t-102 364.5zM229 467q0 -375 220 -375q221 0 221 375q0 377 -221 377q-220 0 -220 -377zM813 532h414q0 159 -54.5 235.5t-146.5 76.5q-93 0 -149.5 -76.5t-63.5 -235.5z" />
<glyph unicode="&#x178;" horiz-adv-x="1196" d="M14 1237v115h449v-115h-162l254 -461q26 -44 55 -104q6 15 15 31.5t21.5 38.5t19.5 34l252 461h-158v115h422v-115h-123l-381 -694v-428h184v-115h-520v115h186v426l-391 696h-123zM326 1589q0 43 28.5 71t71.5 28q40 0 68 -28.5t28 -70.5q0 -40 -28 -68t-68 -28 q-42 0 -71 28t-29 68zM688 1589q0 43 28 71t70 28q40 0 68.5 -28.5t28.5 -70.5q0 -40 -28.5 -68t-68.5 -28q-41 0 -69.5 28t-28.5 68z" />
<glyph unicode="&#x2c6;" horiz-adv-x="696" d="M55 1077l240 363h108l238 -363h-113l-180 217l-178 -217h-115z" />
<glyph unicode="&#x2dc;" horiz-adv-x="706" d="M55 1190q0 87 45.5 139.5t122.5 52.5q71 0 133 -53l39 -35q20 -17 29 -24t23 -13t30 -6q64 0 64 86v33h106q4 -36 4 -55q0 -85 -46 -138t-122 -53q-67 0 -133 54l-41 34q-22 19 -29 25t-22 13t-31 7q-63 0 -63 -88v-32h-105q-4 36 -4 53z" />
<glyph unicode="&#x2000;" horiz-adv-x="915" />
<glyph unicode="&#x2001;" horiz-adv-x="1831" />
<glyph unicode="&#x2002;" horiz-adv-x="915" />
<glyph unicode="&#x2003;" horiz-adv-x="1831" />
<glyph unicode="&#x2004;" horiz-adv-x="610" />
<glyph unicode="&#x2005;" horiz-adv-x="457" />
<glyph unicode="&#x2006;" horiz-adv-x="305" />
<glyph unicode="&#x2007;" horiz-adv-x="305" />
<glyph unicode="&#x2008;" horiz-adv-x="228" />
<glyph unicode="&#x2009;" horiz-adv-x="366" />
<glyph unicode="&#x200a;" horiz-adv-x="101" />
<glyph unicode="&#x2010;" horiz-adv-x="520" d="M72 442v121h377v-121h-377z" />
<glyph unicode="&#x2011;" horiz-adv-x="520" d="M72 442v121h377v-121h-377z" />
<glyph unicode="&#x2012;" horiz-adv-x="520" d="M72 442v121h377v-121h-377z" />
<glyph unicode="&#x2013;" horiz-adv-x="931" d="M72 449v108h788v-108h-788z" />
<glyph unicode="&#x2014;" horiz-adv-x="1863" d="M72 449v108h1720v-108h-1720z" />
<glyph unicode="&#x2018;" horiz-adv-x="516" d="M113 1083q0 117 81.5 200t215.5 120l28 -74q-97 -37 -158 -97t-61 -140v-15q19 13 45 13q42 0 70 -28.5t28 -72.5q0 -43 -28.5 -70.5t-71.5 -27.5q-58 0 -103.5 51.5t-45.5 140.5z" />
<glyph unicode="&#x2019;" horiz-adv-x="516" d="M78 958q97 37 158 97.5t61 138.5v14q-18 -12 -45 -12q-42 0 -69 28t-27 72t27.5 72.5t70.5 28.5q58 0 103.5 -52t45.5 -141q0 -117 -82 -200.5t-215 -120.5z" />
<glyph unicode="&#x201a;" horiz-adv-x="516" d="M78 -244q97 37 158 97.5t61 138.5v14q-18 -12 -45 -12q-42 0 -69 28t-27 72t27.5 72.5t70.5 28.5q58 0 103.5 -52t45.5 -141q0 -117 -82 -200.5t-215 -120.5z" />
<glyph unicode="&#x201c;" horiz-adv-x="882" d="M113 1083q0 117 81.5 200t215.5 120l28 -74q-97 -37 -158 -97t-61 -140v-15q19 13 45 13q42 0 70 -28.5t28 -72.5q0 -43 -28.5 -70.5t-71.5 -27.5q-58 0 -103.5 51.5t-45.5 140.5zM479 1083q0 117 81.5 200t215.5 120l29 -74q-97 -37 -158 -97t-61 -140v-15q20 13 45 13 q42 0 70 -28.5t28 -72.5q0 -43 -28.5 -70.5t-71.5 -27.5q-58 0 -104 51.5t-46 140.5z" />
<glyph unicode="&#x201d;" horiz-adv-x="882" d="M78 958q97 37 158 97.5t61 138.5v14q-18 -12 -45 -12q-42 0 -69 28t-27 72t27.5 72.5t70.5 28.5q58 0 103.5 -52t45.5 -141q0 -117 -82 -200.5t-215 -120.5zM444 958q97 37 158.5 97.5t61.5 138.5v14q-18 -12 -46 -12q-42 0 -69 28t-27 72t28 72.5t71 28.5 q58 0 103.5 -52t45.5 -141q0 -117 -82 -200.5t-215 -120.5z" />
<glyph unicode="&#x201e;" horiz-adv-x="882" d="M78 -244q97 37 158 97.5t61 138.5v14q-18 -12 -45 -12q-42 0 -69 28t-27 72t27.5 72.5t70.5 28.5q58 0 103.5 -52t45.5 -141q0 -117 -82 -200.5t-215 -120.5zM444 -244q97 37 158.5 97.5t61.5 138.5v14q-18 -12 -46 -12q-42 0 -69 28t-27 72t28 72.5t71 28.5 q58 0 103.5 -52t45.5 -141q0 -117 -82 -200.5t-215 -120.5z" />
<glyph unicode="&#x2022;" horiz-adv-x="819" d="M100 502q0 129 90.5 219t219.5 90t219 -90t90 -219t-90 -219t-219 -90t-219.5 90t-90.5 219z" />
<glyph unicode="&#x2026;" horiz-adv-x="1169" d="M109 88q0 46 31 77.5t77 31.5t77.5 -31.5t31.5 -77.5t-31.5 -77t-77.5 -31t-77 31t-31 77zM475 88q0 46 31.5 77.5t77.5 31.5t77 -31.5t31 -77.5t-31 -77t-77 -31t-77.5 31t-31.5 77zM844 88q0 46 31 77.5t77 31.5t77.5 -31.5t31.5 -77.5t-31.5 -77t-77.5 -31t-77 31 t-31 77z" />
<glyph unicode="&#x202f;" horiz-adv-x="366" />
<glyph unicode="&#x2039;" horiz-adv-x="536" d="M88 506l252 366l92 -55l-184 -311l184 -313l-92 -56z" />
<glyph unicode="&#x203a;" horiz-adv-x="536" d="M104 193l185 313l-185 311l93 55l252 -366l-252 -369z" />
<glyph unicode="&#x205f;" horiz-adv-x="457" />
<glyph unicode="&#x20ac;" d="M27 420v112h133q-4 62 -4 97q0 48 2 73h-131v115h145q40 221 172 332t326 111q166 0 282 -78v-297h-127v239q-72 21 -141 21q-306 0 -367 -328h377v-115h-389q-2 -23 -2 -67q0 -37 4 -103h387v-112h-370q38 -165 130.5 -240.5t219.5 -75.5q144 0 266 109l55 -78 q-117 -155 -336 -155q-186 0 -313.5 113t-171.5 327h-147z" />
<glyph unicode="&#x2122;" horiz-adv-x="1218" d="M31 1210v142h438v-142h-82v78h-90v-397h72v-64h-240v64h74v397h-90v-78h-82zM512 827v64h55v397h-55v64h199l96 -332q1 -2 22 -90q16 67 23 88l94 334h58h145v-64h-57v-397h57v-64h-195v64h47v389q-1 -11 -14 -53l-115 -400h-98l-117 400q-2 10 -7 30.5t-7 30.5v-397h49 v-64h-180z" />
<glyph unicode="&#x25fc;" horiz-adv-x="931" d="M0 0v932h932v-932h-932z" />
</font>
</defs>
</svg>
