<?xml version="1.0" encoding="UTF-8"?>
<svg xmlns="http://www.w3.org/2000/svg" xmlns:xlink="http://www.w3.org/1999/xlink" version="1.2" >
<font id="Clarendon URW Wide Light Oblique">
<font-face  font-family="Clarendon URW Wide" units-per-em="1000" ascent="668" descent="-332" font-style="italic" font-weight="300" font-stretch="normal" cap-height="668" x-height="469" underline-position="-70" underline-thickness="56" />
<missing-glyph  horiz-adv-x="250" d="" />
<glyph glyph-name="NULL" d="" />
<glyph glyph-name="CR" unicode="&#xd;" horiz-adv-x="250" d="" />
<glyph glyph-name="space" unicode="&#x20;" horiz-adv-x="250" d="" />
<glyph glyph-name="exclam" unicode="&#x21;" horiz-adv-x="313" d="M145 98 C106 98 72 66 72 30 C72 2 91 -17 118 -17 C155 -17 190 16 190 52 C190 78 171 98 145 98 L145 98 Z M185 181 C223 336 236 379 277 497 C316 618 316 619 316 639 C316 669 298 687 269 687 C239 687 213 668 201 636 C193 616 193 614 181 497 C172 376 166 336 139 181 L185 181 Z " />
<glyph glyph-name="quotedbl" unicode="&#x22;" horiz-adv-x="342" d="M139 399 L210 667 L118 667 L75 399 L139 399 Z M294 399 L365 667 L273 667 L230 399 L294 399 Z " />
<glyph glyph-name="numbersign" unicode="&#x23;" horiz-adv-x="630" d="M561 274 L447 274 L496 405 L610 405 L634 474 L521 474 L594 667 L511 667 L439 474 L299 474 L372 667 L291 667 L218 474 L102 474 L78 405 L194 405 L144 274 L27 274 L3 205 L119 205 L42 0 L122 0 L200 205 L338 205 L260 0 L344 0 L421 205 L536 205 L561 274 Z M413 405 L364 274 L226 274 L275 405 L413 405 Z " />
<glyph glyph-name="dollar" unicode="&#x24;" horiz-adv-x="641" d="M191 -104 L242 -104 L263 -2 C380 11 436 28 486 68 C532 105 557 153 557 203 C557 240 538 273 505 294 C469 317 436 328 338 349 L382 559 C465 556 506 540 521 505 C478 498 458 478 458 441 C458 416 476 402 508 402 C555 402 591 437 591 483 C591 514 572 545 541 566 C507 590 471 599 392 606 L408 681 L357 681 L341 606 C240 593 192 576 144 537 C101 502 78 459 78 415 C78 380 94 348 120 328 C152 303 184 291 270 272 L223 48 C115 60 83 73 64 115 C95 118 109 123 123 135 C136 147 144 166 144 183 C144 209 123 225 90 225 C41 225 1 183 1 130 C1 98 16 68 42 47 C74 21 114 10 212 -2 L191 -104 Z M289 361 C232 372 211 378 192 391 C174 402 164 421 164 443 C164 467 175 491 196 511 C224 538 257 550 332 561 L289 361 Z M319 263 C385 251 411 243 435 229 C458 215 470 196 470 173 C470 142 453 112 423 90 C391 67 356 57 274 48 L319 263 Z " />
<glyph glyph-name="percent" unicode="&#x25;" horiz-adv-x="1001" d="M295 622 C162 622 53 515 53 386 C53 295 115 238 214 238 C345 238 454 346 454 475 C454 565 392 622 295 622 L295 622 Z M285 571 C338 571 368 536 368 474 C368 433 355 388 332 353 C305 311 267 289 224 289 C169 289 139 324 139 389 C139 429 152 472 175 508 C204 551 238 571 285 571 L285 571 Z M266 -17 L793 622 L728 622 L201 -17 L266 -17 Z M782 366 C649 366 540 260 540 130 C540 40 602 -17 701 -17 C832 -17 941 91 941 219 C941 309 879 366 782 366 L782 366 Z M773 315 C826 315 855 281 855 218 C855 177 842 133 819 97 C792 56 754 34 711 34 C656 34 626 69 626 133 C626 173 639 217 662 252 C691 295 725 315 773 315 L773 315 Z " />
<glyph glyph-name="ampersand" unicode="&#x26;" horiz-adv-x="860" d="M732 201 C717 152 711 136 699 114 C679 77 643 54 604 54 C568 54 545 67 509 107 C571 159 604 195 666 275 C709 335 734 350 793 352 L818 352 L830 405 L524 405 L512 352 L540 352 C587 352 610 341 610 319 C610 284 567 231 476 151 C424 227 415 244 358 373 C434 409 469 434 505 475 C538 512 554 550 554 587 C554 646 503 687 431 687 C319 687 225 598 225 492 C225 469 229 445 239 396 C141 352 101 326 61 281 C26 241 5 191 5 146 C5 105 19 67 42 41 C76 5 141 -20 203 -20 C278 -20 342 -2 424 43 C472 -3 509 -19 569 -19 C616 -19 658 -6 692 20 C739 56 762 100 787 201 L732 201 Z M386 89 C316 57 281 47 241 47 C163 47 108 96 108 166 C108 195 117 224 133 247 C157 281 186 301 260 333 C316 196 328 173 386 89 L386 89 Z M336 431 C320 469 315 488 315 512 C315 580 359 632 417 632 C453 632 478 610 478 579 C478 554 465 522 447 502 C427 480 403 465 336 431 L336 431 Z " />
<glyph glyph-name="quotesingle" unicode="&#x27;" horiz-adv-x="187" d="M139 399 L210 667 L118 667 L75 399 L139 399 Z " />
<glyph glyph-name="parenleft" unicode="&#x28;" horiz-adv-x="375" d="M247 -154 C198 -128 179 -111 152 -71 C115 -16 100 38 100 113 C100 198 119 289 154 374 C187 453 225 509 287 566 C331 606 357 622 418 649 L426 687 C367 666 340 654 309 635 C255 602 201 555 159 506 C73 403 22 266 22 134 C22 42 50 -36 105 -101 C143 -144 171 -164 239 -192 L247 -154 Z " />
<glyph glyph-name="parenright" unicode="&#x29;" horiz-adv-x="375" d="M-91 -192 C-32 -172 -5 -160 26 -141 C80 -107 134 -60 175 -12 C262 91 313 228 313 359 C313 452 285 530 230 595 C192 639 164 658 96 686 L88 648 C136 622 156 605 183 565 C220 510 235 456 235 382 C235 296 216 205 181 120 C148 41 110 -15 47 -72 C3 -112 -22 -128 -83 -155 L-91 -192 Z " />
<glyph glyph-name="asterisk" unicode="&#x2a;" horiz-adv-x="521" d="M277 483 C241 465 217 458 184 455 C133 452 133 452 116 443 C94 433 82 417 82 398 C82 375 100 354 120 354 C144 354 161 366 202 410 C216 425 226 435 232 439 L271 463 L283 470 C273 427 266 411 245 383 C212 337 209 332 209 313 C209 290 223 278 250 278 C285 278 311 302 311 334 C311 346 310 352 301 383 C296 398 294 411 294 419 C294 424 295 437 298 458 C298 459 298 464 299 469 C338 440 343 436 356 409 C370 379 371 377 376 372 C387 361 400 354 413 354 C441 354 473 386 473 414 C473 426 467 437 456 443 C442 451 434 452 393 455 C376 456 361 458 355 461 C350 462 338 468 321 477 C319 477 315 479 311 481 C343 499 370 507 404 509 C454 512 454 512 473 521 C494 531 506 547 506 566 C506 589 489 610 469 610 C444 610 428 599 387 554 C373 539 362 529 356 526 C343 518 330 510 317 501 C316 501 310 497 305 494 C317 540 322 553 343 582 C376 627 379 633 379 652 C379 675 365 687 338 687 C303 687 277 663 277 631 C277 620 279 612 287 581 C292 566 294 553 294 546 C294 542 293 528 290 507 C290 505 290 500 289 495 C249 524 245 529 232 555 C218 583 216 587 211 593 C201 604 187 611 174 611 C146 611 114 579 114 551 C114 539 120 528 131 522 C145 514 152 512 195 510 C228 507 231 506 267 488 L277 483 Z " />
<glyph glyph-name="plus" unicode="&#x2b;" horiz-adv-x="532" d="M57 342 L43 276 L216 276 L181 114 L258 114 L292 276 L465 276 L479 342 L306 342 L341 504 L264 504 L230 342 L57 342 Z " />
<glyph glyph-name="comma" unicode="&#x2c;" horiz-adv-x="318" d="M-18 -146 C51 -134 87 -116 121 -76 C147 -45 164 -3 164 31 C164 70 138 95 99 95 C58 95 25 65 25 26 C25 4 42 -11 68 -11 C82 -11 92 -8 111 3 C104 -59 56 -103 -11 -111 L-18 -146 Z " />
<glyph glyph-name="hyphen" unicode="&#x2d;" horiz-adv-x="271" d="M-28 201 L243 201 L259 275 L-12 275 L-28 201 Z " />
<glyph glyph-name="period" unicode="&#x2e;" horiz-adv-x="293" d="M100 101 C60 101 25 68 25 31 C25 3 44 -17 72 -17 C110 -17 146 17 146 54 C146 81 126 101 100 101 L100 101 Z " />
<glyph glyph-name="slash" unicode="&#x2f;" horiz-adv-x="367" d="M-21 -92 L399 686 L341 686 L-79 -92 L-21 -92 Z " />
<glyph glyph-name="zero" unicode="0" horiz-adv-x="641" d="M383 622 C186 622 21 437 21 217 C21 74 109 -17 248 -17 C442 -17 608 170 608 388 C608 532 521 622 383 622 L383 622 Z M371 569 C459 569 507 511 507 405 C507 319 482 226 440 154 C396 78 330 36 255 36 C171 36 121 96 121 199 C121 287 145 379 187 451 C233 528 296 569 371 569 L371 569 Z " />
<glyph glyph-name="one" unicode="1" horiz-adv-x="641" d="M59 0 L449 0 L460 51 L411 51 C346 51 324 59 324 82 C324 91 326 105 329 120 L436 622 L384 622 C339 546 303 527 182 518 L172 469 L314 469 L239 121 C227 57 221 54 127 51 L70 51 L59 0 Z " />
<glyph glyph-name="two" unicode="2" horiz-adv-x="641" d="M31 0 C46 50 65 66 110 66 C140 66 147 64 197 35 L245 9 C278 -10 306 -18 338 -18 C378 -18 416 -5 445 18 C492 56 517 102 542 201 L494 201 C469 104 442 75 378 75 C353 75 323 80 296 88 L230 109 C190 121 179 123 153 123 C127 123 112 120 80 107 C143 179 160 189 294 227 C415 262 467 282 497 307 C548 348 579 410 579 470 C579 564 499 622 368 622 C279 622 201 594 146 542 C110 507 87 463 87 427 C87 390 111 365 146 365 C189 365 226 400 226 441 C226 468 209 482 177 482 L160 482 C217 547 261 568 338 568 C425 568 479 530 479 468 C479 437 469 405 451 382 C428 350 400 334 319 304 C188 255 119 220 79 183 C23 130 -4 80 -19 0 L31 0 Z " />
<glyph glyph-name="three" unicode="3" horiz-adv-x="641" d="M236 299 C320 297 354 293 383 282 C420 267 438 240 438 200 C438 101 353 39 218 39 C183 39 150 44 127 53 C103 62 89 74 66 106 C121 111 148 134 148 176 C148 202 128 219 95 219 C42 219 -1 176 -1 123 C-1 43 93 -17 217 -17 C401 -17 543 78 543 201 C543 229 533 255 513 277 C490 302 467 314 412 327 C473 342 499 353 526 374 C563 404 586 447 586 489 C586 571 505 622 374 622 C234 622 98 543 98 462 C98 430 119 411 155 411 C199 411 231 440 231 481 C231 504 221 514 190 521 C252 558 296 571 352 571 C435 571 484 537 484 480 C484 435 457 393 417 375 C381 358 349 354 247 352 L236 299 Z " />
<glyph glyph-name="four" unicode="4" horiz-adv-x="641" d="M161 0 L527 0 L538 51 L479 51 C429 51 410 59 410 80 C410 85 412 97 415 110 L430 180 L566 180 L578 237 L442 237 L524 622 L464 622 L10 231 L-1 180 L342 180 L326 106 C314 58 305 52 238 51 L172 51 L161 0 Z M354 237 L95 237 L412 509 L354 237 Z " />
<glyph glyph-name="five" unicode="5" horiz-adv-x="641" d="M205 519 C267 510 295 508 335 508 C387 508 431 513 472 523 C528 538 559 560 611 622 C502 597 452 591 375 591 C303 591 263 597 172 620 L78 305 L130 305 C201 350 242 364 300 364 C394 364 452 319 452 245 C452 125 355 38 222 38 C192 38 162 43 138 51 C112 60 100 71 75 102 C130 108 157 131 157 172 C157 200 135 218 102 218 C50 218 9 174 9 119 C9 38 96 -17 223 -17 C315 -17 402 12 466 64 C523 110 556 181 556 257 C556 300 544 334 519 360 C482 399 415 422 339 422 C283 422 245 413 164 382 L205 519 Z " />
<glyph glyph-name="six" unicode="6" horiz-adv-x="641" d="M519 539 C482 525 463 503 463 477 C463 450 486 431 519 431 C565 431 600 468 600 516 C600 577 522 622 415 622 C318 622 228 582 160 508 C86 428 37 306 37 200 C37 145 49 102 75 63 C112 8 169 -17 258 -17 C337 -17 406 4 463 46 C525 92 564 165 564 236 C564 329 483 395 368 395 C298 395 247 376 165 319 C192 416 213 460 252 502 C293 546 352 571 413 571 C455 571 481 563 519 539 L519 539 Z M331 336 C415 336 459 297 459 223 C459 116 376 38 263 38 C183 38 134 80 134 149 C134 258 216 336 331 336 L331 336 Z " />
<glyph glyph-name="seven" unicode="7" horiz-adv-x="641" d="M299 -5 C340 200 354 228 494 379 C519 406 544 433 569 461 C591 484 608 504 621 519 C647 551 656 568 669 605 L613 605 C596 575 576 563 544 563 C525 563 505 568 467 584 C412 605 381 613 344 613 C283 613 243 594 179 534 L194 605 L136 605 L82 352 L136 352 C157 435 167 461 188 483 C214 510 253 526 293 526 C305 526 316 525 325 522 C422 497 426 496 460 496 C489 496 508 500 549 514 C494 455 488 449 419 388 C271 260 232 191 192 -5 L299 -5 Z " />
<glyph glyph-name="eight" unicode="8" horiz-adv-x="641" d="M186 307 C103 278 69 258 38 221 C15 194 1 158 1 125 C1 37 92 -17 240 -17 C418 -17 559 77 559 194 C559 255 523 293 431 332 C500 357 529 372 556 400 C582 426 597 462 597 495 C597 569 506 622 379 622 C219 622 91 533 91 421 C91 370 116 340 186 307 L186 307 Z M348 256 C431 232 462 208 462 166 C462 90 377 39 251 39 C151 39 85 78 85 136 C85 172 108 211 144 236 C173 257 200 267 264 281 L348 256 Z M268 379 C207 397 185 417 185 455 C185 521 263 570 369 570 C458 570 515 540 515 493 C515 465 501 433 478 410 C453 385 425 371 359 354 L268 379 Z " />
<glyph glyph-name="nine" unicode="9" horiz-adv-x="641" d="M108 66 C145 80 164 101 164 128 C164 155 141 174 108 174 C63 174 28 137 28 89 C28 28 106 -17 213 -17 C310 -17 399 23 468 97 C542 177 590 299 590 405 C590 460 578 503 552 542 C515 597 458 622 370 622 C290 622 221 601 164 558 C102 512 63 440 63 369 C63 275 144 209 259 209 C329 209 380 228 462 286 C435 188 414 144 376 103 C335 59 276 34 215 34 C174 34 147 42 108 66 L108 66 Z M364 567 C444 567 493 525 493 456 C493 346 411 268 297 268 C213 268 169 307 169 380 C169 488 251 567 364 567 L364 567 Z " />
<glyph glyph-name="colon" unicode="&#x3a;" horiz-adv-x="313" d="M148 101 C108 101 73 68 73 31 C73 3 92 -17 120 -17 C158 -17 194 17 194 54 C194 81 174 101 148 101 L148 101 Z M222 450 C182 450 147 417 147 380 C147 351 166 331 194 331 C232 331 268 366 268 402 C268 430 248 450 222 450 L222 450 Z " />
<glyph glyph-name="semicolon" unicode="&#x3b;" horiz-adv-x="313" d="M235 447 C196 447 162 415 162 378 C162 350 180 331 207 331 C245 331 280 365 280 400 C280 427 261 447 235 447 L235 447 Z M34 -146 C103 -134 139 -116 173 -76 C199 -45 216 -3 216 31 C216 70 190 95 151 95 C110 95 77 65 77 26 C77 4 94 -11 120 -11 C134 -11 144 -8 163 3 C156 -59 108 -103 41 -111 L34 -146 Z " />
<glyph glyph-name="less" unicode="&#x3c;" horiz-adv-x="525" d="M542 578 L43 371 L27 296 L438 89 L456 175 L132 333 L523 492 L542 578 Z " />
<glyph glyph-name="equal" unicode="&#x3d;" horiz-adv-x="532" d="M75 426 L61 363 L483 363 L497 426 L75 426 Z M42 274 L29 211 L451 211 L464 274 L42 274 Z " />
<glyph glyph-name="greater" unicode="&#x3e;" horiz-adv-x="525" d="M87 578 L69 492 L393 333 L1 175 L-17 89 L482 296 L498 371 L87 578 Z " />
<glyph glyph-name="question" unicode="&#x3f;" horiz-adv-x="537" d="M208 98 C170 98 135 66 135 30 C135 2 154 -17 181 -17 C218 -17 253 16 253 52 C253 78 234 98 208 98 L208 98 Z M250 180 C274 265 281 274 370 329 C447 376 472 394 502 427 C533 461 552 505 552 546 C552 633 477 687 355 687 C272 687 196 659 146 611 C110 575 87 529 87 489 C87 441 113 412 156 412 C201 412 235 442 235 481 C235 506 219 520 190 520 C176 520 165 517 144 507 C155 548 167 566 198 590 C233 617 285 633 334 633 C409 633 457 598 457 544 C457 491 427 446 359 397 C237 310 223 292 197 180 L250 180 Z " />
<glyph glyph-name="at" unicode="&#x40;" horiz-adv-x="784" d="M557 494 L532 435 C521 482 489 506 434 506 C318 506 201 385 201 264 C201 190 247 142 319 142 C373 142 426 167 466 211 C465 207 465 204 465 201 C465 170 492 147 529 147 C640 147 759 300 759 444 C759 585 648 680 482 680 C246 680 33 481 33 261 C33 192 55 130 94 83 C149 19 232 -13 342 -13 C429 -13 510 2 585 31 L580 85 C505 55 433 42 353 42 C254 42 185 69 140 125 C109 165 93 214 93 269 C93 458 272 626 473 626 C612 626 704 550 704 435 C704 325 618 197 544 197 C526 197 515 208 515 227 C515 240 519 252 533 286 L619 494 L557 494 Z M427 443 C468 443 496 417 496 377 C496 346 482 305 459 272 C430 228 387 202 345 202 C299 202 270 231 270 277 C270 360 348 443 427 443 L427 443 Z " />
<glyph glyph-name="A" unicode="A" horiz-adv-x="735" d="M-92 0 L210 0 L222 53 L169 53 C121 53 107 57 107 72 C107 83 116 102 133 130 L192 223 L458 223 L478 110 C479 102 480 95 480 88 C480 61 465 53 413 53 L357 53 L346 0 L677 0 L689 53 L660 53 C609 54 593 67 585 114 L480 667 L393 667 L49 111 C20 64 2 54 -47 53 L-81 53 L-92 0 Z M224 276 L394 561 L447 276 L224 276 Z " />
<glyph glyph-name="B" unicode="B" horiz-adv-x="751" d="M-40 0 L322 0 C449 0 529 20 591 66 C642 105 670 160 670 219 C670 261 653 294 621 316 C594 334 571 342 511 352 C584 368 617 381 648 406 C690 438 715 487 715 537 C715 623 636 667 481 667 L102 667 L90 614 L135 614 C183 614 202 605 202 583 C202 577 200 562 195 541 L107 126 C95 63 85 55 16 53 L-29 53 L-40 0 Z M188 53 L245 322 L390 322 C471 322 503 315 534 292 C558 274 571 247 571 216 C571 179 554 140 525 111 C486 72 423 53 333 53 L188 53 Z M256 375 L307 614 L461 614 C567 614 614 585 614 520 C614 432 531 375 402 375 L256 375 Z " />
<glyph glyph-name="C" unicode="C" horiz-adv-x="740" d="M606 243 C578 173 560 143 525 110 C476 65 413 41 341 41 C213 41 142 116 142 251 C142 335 169 421 219 493 C282 583 364 631 456 631 C566 631 645 556 645 452 L644 408 L697 408 L752 667 L704 667 L665 607 C586 670 543 687 466 687 C235 687 33 482 33 248 C33 176 54 116 96 68 C148 8 218 -20 320 -20 C421 -20 503 10 567 69 C615 113 637 152 668 243 L606 243 Z " />
<glyph glyph-name="D" unicode="D" horiz-adv-x="824" d="M-40 0 L297 0 C389 0 463 6 507 18 C568 35 630 72 676 121 C751 199 797 312 797 420 C797 497 774 556 728 599 C670 652 609 667 440 667 L102 667 L90 614 L135 614 C183 614 202 605 202 583 C202 577 200 562 195 541 L107 126 C95 63 85 55 16 53 L-29 53 L-40 0 Z M307 614 L429 614 C510 614 576 602 611 581 C661 550 691 493 691 426 C691 345 658 240 613 177 C554 93 454 53 308 53 L188 53 L307 614 Z " />
<glyph glyph-name="E" unicode="E" horiz-adv-x="777" d="M-40 0 L623 0 L681 271 L627 271 C581 88 547 57 392 53 L187 53 L245 323 L316 323 C385 323 410 307 410 266 C410 246 410 246 400 178 L453 178 L523 505 L469 505 C444 392 424 374 329 376 L256 376 L306 614 L498 614 C628 614 668 588 668 506 C668 482 666 461 658 416 L712 416 L765 667 L102 667 L90 614 L135 614 C182 614 201 605 201 583 C201 577 198 559 194 541 L106 126 C94 63 85 55 15 53 L-29 53 L-40 0 Z " />
<glyph glyph-name="F" unicode="F" horiz-adv-x="714" d="M-40 0 L304 0 L315 53 L263 53 C215 53 196 62 196 84 C196 91 198 105 203 126 L245 323 L300 323 C369 323 394 308 394 265 C394 245 394 245 384 178 L437 178 L507 505 L453 505 C429 392 409 374 313 376 L256 376 L306 614 L475 614 C605 614 645 588 645 506 C645 480 642 454 632 401 L685 401 L742 667 L102 667 L90 614 L135 614 C182 614 201 605 201 583 C201 577 198 559 194 541 L106 126 C94 63 85 55 15 53 L-29 53 L-40 0 Z " />
<glyph glyph-name="G" unicode="G" horiz-adv-x="813" d="M624 -7 L675 232 C686 283 696 290 763 289 L804 289 L816 342 L464 342 L452 289 L510 289 C567 289 581 283 581 257 C581 247 580 240 579 232 L570 191 C562 156 548 131 524 108 C481 68 404 41 332 41 C212 41 138 114 138 232 C138 323 167 424 213 494 C271 581 358 631 450 631 C512 631 566 607 601 565 C631 529 641 495 647 421 L701 421 L753 667 L706 667 L657 602 C583 670 543 687 458 687 C342 687 233 638 155 553 C77 468 31 351 31 242 C31 79 134 -19 305 -19 C388 -19 441 -3 548 56 L572 -7 L624 -7 Z " />
<glyph glyph-name="H" unicode="H" horiz-adv-x="871" d="M-41 0 L303 0 L314 53 L262 53 C214 53 195 62 195 84 C195 91 197 105 202 126 L241 311 L620 311 L581 126 C569 63 559 55 490 53 L437 53 L426 0 L770 0 L781 53 L737 53 C689 53 670 62 670 84 C670 90 672 99 677 126 L766 541 C777 604 787 612 856 614 L900 614 L912 667 L568 667 L557 614 L609 614 C657 614 676 605 676 583 C676 577 674 563 669 541 L631 364 L252 364 L290 541 C302 604 312 612 381 614 L433 614 L445 667 L101 667 L89 614 L134 614 C181 614 200 605 200 583 C200 576 197 559 193 541 L105 126 C93 63 84 55 14 53 L-30 53 L-41 0 Z " />
<glyph glyph-name="I" unicode="I" horiz-adv-x="407" d="M-40 0 L305 0 L316 53 L268 53 C220 53 201 62 201 84 C201 90 203 101 208 126 L296 541 C308 604 318 612 387 614 L435 614 L446 667 L102 667 L90 614 L139 614 C186 614 205 605 205 583 C205 577 202 559 198 541 L110 126 C98 63 88 55 19 53 L-29 53 L-40 0 Z " />
<glyph glyph-name="J" unicode="J" horiz-adv-x="568" d="M264 614 L315 614 C362 614 381 605 381 583 C381 576 378 559 375 541 L298 179 C277 84 223 36 135 36 C86 36 59 49 34 84 C68 86 83 93 99 110 C112 125 120 144 120 163 C120 194 99 212 64 212 C9 212 -36 165 -36 106 C-36 77 -25 49 -5 28 C27 -4 72 -19 139 -19 C218 -19 279 2 325 45 C364 81 381 119 401 210 L471 541 C483 604 493 612 562 614 L598 614 L609 667 L275 667 L264 614 Z " />
<glyph glyph-name="K" unicode="K" horiz-adv-x="803" d="M315 53 L263 53 C215 53 196 62 196 84 C196 91 198 105 203 126 L226 237 L349 323 L501 121 C525 89 527 85 527 77 C527 61 511 53 482 53 L402 53 L391 0 L771 0 L782 53 L750 53 C692 56 672 66 641 111 L436 384 L645 536 C733 597 767 611 822 614 L864 614 L875 667 L525 667 L514 614 L566 614 C600 614 615 608 615 597 C615 588 606 577 590 565 L244 318 L291 541 C303 604 313 612 382 614 L434 614 L446 667 L102 667 L90 614 L135 614 C182 614 201 605 201 583 C201 576 198 559 194 541 L106 126 C94 63 85 55 15 53 L-29 53 L-40 0 L304 0 L315 53 Z " />
<glyph glyph-name="L" unicode="L" horiz-adv-x="714" d="M102 667 L90 614 L135 614 C182 614 201 605 201 583 C201 576 198 559 194 541 L106 126 C94 62 85 55 15 53 L-29 53 L-40 0 L600 0 L659 277 L605 277 C566 91 524 54 356 53 L187 53 L291 541 C303 604 313 612 382 614 L434 614 L446 667 L102 667 Z " />
<glyph glyph-name="M" unicode="M" horiz-adv-x="991" d="M90 614 L132 614 C179 614 198 605 198 583 C198 577 195 561 191 541 L103 126 C91 63 81 55 13 53 L-29 53 L-40 0 L266 0 L277 53 L229 53 C182 53 163 62 163 84 C163 90 165 105 170 126 L271 600 L390 0 L431 0 L803 586 L706 126 C694 63 684 55 615 53 L565 53 L554 0 L893 0 L904 53 L860 53 C812 53 793 62 793 84 C793 90 795 104 800 126 L888 541 C900 604 910 612 979 614 L1023 614 L1034 667 L792 667 L459 145 L356 667 L102 667 L90 614 Z " />
<glyph glyph-name="N" unicode="N" horiz-adv-x="866" d="M660 -3 L775 541 C787 604 797 612 866 614 L900 614 L912 667 L605 667 L593 614 L649 614 C696 614 715 605 715 583 C715 577 712 560 708 541 L621 131 L335 667 L102 667 L90 614 L132 614 C179 614 198 605 198 583 C198 577 195 561 191 541 L103 126 C91 63 81 55 13 53 L-29 53 L-40 0 L271 0 L283 53 L229 53 C182 53 163 62 163 84 C163 90 165 105 170 126 L266 577 L574 -3 L660 -3 Z " />
<glyph glyph-name="O" unicode="O" horiz-adv-x="834" d="M493 687 C244 687 34 490 34 256 C34 90 156 -19 343 -19 C590 -19 801 179 801 410 C801 577 679 687 493 687 L493 687 Z M481 632 C612 632 695 550 695 422 C695 339 667 245 622 181 C558 89 460 36 355 36 C224 36 140 117 140 244 C140 461 290 632 481 632 L481 632 Z " />
<glyph glyph-name="P" unicode="P" horiz-adv-x="714" d="M315 53 L263 53 C215 53 196 62 196 84 C196 91 198 105 203 126 L240 302 L358 302 C504 302 571 316 626 357 C679 397 711 461 711 526 C711 565 700 593 675 617 C635 653 568 667 426 667 L102 667 L90 614 L135 614 C182 614 201 605 201 583 C201 576 198 559 194 541 L106 126 C94 63 85 55 15 53 L-29 53 L-40 0 L304 0 L315 53 Z M251 355 L306 614 L418 614 C559 614 610 588 610 518 C610 479 592 437 564 409 C528 373 462 355 369 355 L251 355 Z " />
<glyph glyph-name="Q" unicode="Q" horiz-adv-x="860" d="M761 113 C733 38 703 9 655 9 C627 9 611 19 587 52 C670 111 703 144 739 202 C779 266 800 339 800 410 C800 577 678 687 492 687 C245 687 34 489 34 257 C34 88 155 -19 345 -19 C397 -19 428 -14 494 5 C531 -50 562 -68 618 -68 C668 -68 709 -49 747 -10 C779 24 795 53 813 113 L761 113 Z M549 106 C518 159 503 180 480 200 C450 226 412 240 370 240 C321 240 277 222 247 188 C224 163 216 141 216 102 C216 99 216 86 217 76 C157 132 141 168 141 246 C141 461 291 632 481 632 C611 632 694 550 694 422 C694 358 677 286 646 224 C623 177 602 151 549 106 L549 106 Z M469 57 C413 40 386 35 355 35 C299 35 264 59 264 98 C264 142 301 176 348 176 C398 176 428 146 469 57 L469 57 Z " />
<glyph glyph-name="R" unicode="R" horiz-adv-x="808" d="M315 53 L263 53 C215 53 196 62 196 84 C196 91 198 105 203 126 L244 320 L380 320 C473 320 518 287 518 218 C518 201 517 187 515 174 L501 92 C499 83 499 76 499 64 C499 6 526 -19 589 -19 C639 -19 675 1 701 43 C719 72 729 99 743 163 L694 163 C669 65 659 46 630 46 C612 46 604 55 604 75 C604 86 608 114 613 141 C619 173 624 210 624 227 C624 290 594 321 512 342 C596 355 634 369 672 400 C713 433 737 483 737 535 C737 630 660 667 464 667 L102 667 L90 614 L135 614 C182 614 201 605 201 583 C201 577 198 559 194 541 L106 126 C94 63 85 55 15 53 L-29 53 L-40 0 L304 0 L315 53 Z M255 373 L306 614 L453 614 C499 614 555 608 575 602 C614 588 634 561 634 523 C634 493 622 462 600 436 C565 394 495 373 392 373 L255 373 Z " />
<glyph glyph-name="S" unicode="S" horiz-adv-x="657" d="M-24 0 L29 0 L79 74 C156 -1 199 -20 293 -20 C464 -20 600 91 600 231 C600 317 546 359 394 388 L296 407 C206 425 171 451 171 499 C171 574 250 629 359 629 C429 629 489 606 520 565 C543 535 552 503 552 443 C552 441 552 429 551 420 L607 420 L661 673 L612 673 L569 612 C509 667 456 687 370 687 C201 687 79 590 79 455 C79 417 93 385 121 364 C153 338 176 330 278 307 L361 289 C471 265 503 242 503 190 C503 107 417 43 305 43 C231 43 171 69 132 118 C102 156 92 191 92 263 L92 277 L35 277 L-24 0 Z " />
<glyph glyph-name="T" unicode="T" horiz-adv-x="699" d="M44 405 L97 405 C139 570 185 612 328 614 L361 614 L257 126 C245 63 236 55 167 53 L100 53 L89 0 L469 0 L480 53 L414 53 C366 53 347 62 347 84 C347 90 349 105 354 126 L458 614 L491 614 C604 614 643 583 643 496 C643 472 641 450 633 405 L686 405 L742 667 L100 667 L44 405 Z " />
<glyph glyph-name="U" unicode="U" horiz-adv-x="798" d="M91 614 L126 614 C173 614 192 605 192 583 C192 576 189 558 186 541 L115 209 C110 187 108 164 108 143 C108 102 116 75 136 50 C170 5 240 -20 326 -20 C410 -20 481 2 536 43 C592 87 626 147 646 244 L709 541 C721 604 731 612 800 614 L832 614 L843 667 L542 667 L531 614 L583 614 C631 614 650 605 650 583 C650 577 648 567 643 541 L579 244 C562 162 541 120 503 91 C465 63 412 47 352 47 C256 47 206 84 206 155 C206 175 208 190 211 209 L282 541 C294 604 304 612 373 614 L426 614 L437 667 L102 667 L91 614 Z " />
<glyph glyph-name="V" unicode="V" horiz-adv-x="714" d="M243 0 L323 0 L655 546 C689 603 705 613 764 614 L798 614 L810 667 L504 667 L492 614 L553 614 C591 614 605 608 605 593 C605 583 598 566 585 545 L327 118 L253 547 C252 553 251 559 251 565 C251 603 265 614 312 614 L378 614 L389 667 L50 667 L39 614 L71 614 C127 612 139 603 148 551 L243 0 Z " />
<glyph glyph-name="W" unicode="W" horiz-adv-x="1006" d="M197 0 L279 0 L525 437 L575 0 L657 0 L937 531 C977 602 987 611 1033 614 L1061 614 L1073 667 L808 667 L797 614 L847 614 C879 614 893 608 893 594 C893 582 883 555 868 527 L657 124 L611 555 L611 566 C611 606 622 614 675 614 L723 614 L734 667 L429 667 L417 614 L452 614 C499 613 509 606 514 571 L516 537 L284 124 L250 551 L250 561 C250 602 264 614 314 614 L355 614 L367 667 L71 667 L60 614 L91 614 C138 613 145 602 153 513 L197 0 Z " />
<glyph glyph-name="X" unicode="X" horiz-adv-x="772" d="M-71 0 L236 0 L247 53 L201 53 C168 53 154 60 154 75 C154 84 160 93 176 108 L353 275 L455 103 C459 96 462 87 462 81 C462 62 439 53 388 53 L352 53 L341 0 L701 0 L713 53 L685 53 C629 56 590 81 563 130 L437 353 L637 542 C690 593 724 611 773 614 L808 614 L820 667 L519 667 L507 614 L557 614 C584 614 599 608 599 598 C599 587 586 570 562 548 L406 407 L318 560 C312 570 309 579 309 586 C309 604 328 614 366 614 L406 614 L417 667 L85 667 L74 614 L102 614 C152 610 174 594 206 537 L325 330 L122 138 C53 76 11 54 -33 53 L-60 53 L-71 0 Z " />
<glyph glyph-name="Y" unicode="Y" horiz-adv-x="667" d="M267 263 L238 126 C226 63 216 55 147 53 L80 53 L69 0 L450 0 L461 53 L395 53 C347 53 328 62 328 84 C328 91 331 108 334 126 L364 263 L597 532 C655 597 681 614 725 614 L749 614 L760 667 L476 667 L465 614 L536 614 C556 614 569 608 569 599 C569 592 561 577 549 564 L346 331 L255 555 C250 566 247 579 247 588 C247 605 262 614 289 614 L355 614 L366 667 L45 667 L34 614 L64 614 C100 612 123 593 141 550 L267 263 Z " />
<glyph glyph-name="Z" unicode="Z" horiz-adv-x="647" d="M-45 0 L524 0 L585 287 L530 287 C477 88 447 59 290 53 L89 53 L654 611 L666 667 L117 667 L61 403 L115 403 C159 576 200 615 335 614 L535 614 L-33 54 L-45 0 Z " />
<glyph glyph-name="bracketleft" unicode="&#x5b;" horiz-adv-x="375" d="M2 -172 L233 -172 L242 -128 L85 -128 L245 623 L402 623 L411 667 L180 667 L2 -172 Z " />
<glyph glyph-name="backslash" unicode="&#x5c;" horiz-adv-x="367" d="M206 -92 L264 -92 L175 686 L117 686 L206 -92 Z " />
<glyph glyph-name="bracketright" unicode="&#x5d;" horiz-adv-x="375" d="M-76 -172 L155 -172 L333 667 L102 667 L93 623 L250 623 L90 -128 L-67 -128 L-76 -172 Z " />
<glyph glyph-name="asciicircum" unicode="&#x5e;" horiz-adv-x="525" d="M124 371 L320 610 L417 371 L502 371 L385 669 L282 669 L39 371 L124 371 Z " />
<glyph glyph-name="underscore" unicode="&#x5f;" horiz-adv-x="500" d="M-86 -70 L-98 -126 L402 -126 L414 -70 L-86 -70 Z " />
<glyph glyph-name="grave" unicode="&#x60;" horiz-adv-x="514" d="M359 540 L256 686 C242 705 225 716 210 716 C187 716 164 693 164 669 C164 656 173 645 196 629 L323 540 L359 540 Z " />
<glyph glyph-name="a" unicode="a" horiz-adv-x="579" d="M492 159 C467 62 453 38 419 38 C403 38 394 47 394 63 C394 69 396 82 399 95 L448 327 C453 350 456 374 456 388 C456 448 390 486 289 486 C169 486 62 421 62 347 C62 319 84 300 114 300 C153 300 184 326 184 359 C184 381 173 392 144 399 C192 430 224 441 268 441 C334 441 375 414 375 370 C375 353 367 329 355 314 C342 296 318 284 272 273 L185 251 C104 231 65 215 33 189 C0 162 -19 125 -19 84 C-19 20 30 -18 113 -18 C181 -18 234 3 313 61 C319 4 341 -17 396 -17 C475 -17 512 28 541 159 L492 159 Z M337 199 C324 137 302 103 260 74 C229 54 185 41 148 41 C103 41 77 62 77 97 C77 123 91 148 115 166 C136 182 151 188 201 203 L245 216 C278 225 290 230 348 253 L337 199 Z " />
<glyph glyph-name="b" unicode="b" horiz-adv-x="615" d="M62 -6 L122 81 C139 49 152 31 167 19 C194 -3 235 -15 278 -15 C435 -15 564 129 564 302 C564 416 496 485 383 485 C304 485 255 461 187 391 L246 667 L70 667 L60 619 L81 619 C125 619 142 610 142 590 C142 582 141 572 139 562 L18 -6 L62 -6 Z M355 427 C428 427 468 384 468 306 C468 247 450 178 422 133 C386 74 336 43 275 43 C196 43 148 92 148 175 C148 315 240 427 355 427 L355 427 Z " />
<glyph glyph-name="c" unicode="c" horiz-adv-x="537" d="M410 175 C389 130 376 111 356 91 C323 59 275 41 226 41 C145 41 100 88 100 172 C100 231 118 294 149 342 C189 404 252 438 326 438 C355 438 384 432 405 421 C426 411 435 401 448 372 C400 364 378 344 378 309 C378 282 396 266 426 266 C476 266 513 306 513 359 C513 434 437 486 325 486 C149 486 2 341 2 166 C2 52 80 -18 206 -18 C281 -18 339 3 389 47 C426 81 444 108 471 175 L410 175 Z " />
<glyph glyph-name="d" unicode="d" horiz-adv-x="641" d="M396 619 L430 619 C473 619 489 611 489 590 C489 583 488 572 485 562 L449 391 C434 419 422 437 409 449 C384 472 342 486 295 486 C138 486 8 341 8 166 C8 55 77 -15 186 -15 C264 -15 316 10 383 81 L366 0 L549 0 L559 48 L533 48 C490 48 474 56 474 77 C474 83 476 94 478 105 L597 667 L407 667 L396 619 Z M296 428 C376 428 423 379 423 295 C423 156 330 43 216 43 C145 43 104 87 104 164 C104 223 123 293 152 340 C187 398 236 428 296 428 L296 428 Z " />
<glyph glyph-name="e" unicode="e" horiz-adv-x="553" d="M404 154 C379 110 364 92 338 74 C306 52 264 39 222 39 C146 39 100 81 100 151 C100 167 104 198 109 226 L496 226 C503 263 506 297 506 323 C506 366 488 410 458 439 C427 470 378 486 314 486 C223 486 147 453 87 388 C34 331 2 247 2 169 C2 54 81 -17 209 -17 C277 -17 332 1 380 38 C418 67 436 92 466 154 L404 154 Z M124 279 C143 338 156 363 183 390 C215 422 255 437 303 437 C371 437 411 402 411 341 C411 326 409 302 405 279 L124 279 Z " />
<glyph glyph-name="f" unicode="f" horiz-adv-x="360" d="M143 420 L76 105 C67 58 55 49 -5 48 L-35 48 L-45 0 L258 0 L269 48 L218 48 C175 48 158 56 158 77 C158 85 159 95 161 105 L228 420 L348 420 L358 469 L239 469 L247 506 C258 558 265 580 278 600 C294 624 325 639 359 639 C388 639 400 635 424 614 C391 606 372 586 372 560 C372 537 390 521 418 521 C458 521 489 554 489 597 C489 650 439 684 360 684 C311 684 268 671 234 645 C197 616 177 579 162 509 L154 469 L55 469 L44 420 L143 420 Z " />
<glyph glyph-name="g" unicode="g" horiz-adv-x="678" d="M162 60 C100 60 75 69 75 91 C75 117 109 147 139 147 C142 147 147 146 152 145 C211 128 212 128 249 128 C323 128 396 151 442 189 C485 224 517 288 517 338 C517 350 512 372 504 397 C543 433 565 444 599 444 C616 444 621 441 631 427 C590 420 569 400 569 370 C569 347 587 331 613 331 C654 331 690 372 690 419 C690 460 659 486 609 486 C565 486 538 474 485 432 C432 472 391 486 322 486 C175 486 63 393 63 272 C63 233 73 211 105 176 C22 137 -4 110 -4 63 C-4 30 14 11 60 -4 C8 -17 -14 -28 -36 -52 C-52 -70 -62 -92 -62 -112 C-62 -130 -55 -145 -41 -161 C-7 -197 62 -214 173 -214 C296 -214 386 -194 433 -157 C471 -127 494 -85 494 -43 C494 26 437 60 323 60 L162 60 Z M316 439 C384 439 425 406 425 351 C425 314 411 267 392 239 C365 201 318 180 261 180 C192 180 155 210 155 266 C155 368 221 439 316 439 L316 439 Z M256 -20 C364 -21 400 -34 400 -74 C400 -133 320 -164 167 -164 C76 -164 29 -143 29 -102 C29 -48 88 -20 198 -20 L256 -20 Z " />
<glyph glyph-name="h" unicode="h" horiz-adv-x="678" d="M91 619 L115 619 C159 619 176 610 176 589 C176 583 175 572 172 562 L75 105 C66 58 54 49 -6 48 L-30 48 L-40 0 L241 0 L251 48 L217 48 C174 48 157 56 157 77 C157 85 158 95 160 105 L195 268 C206 319 225 352 264 384 C299 414 342 429 388 429 C446 429 473 405 473 352 C473 336 469 306 464 281 L426 105 C417 58 404 49 345 48 L311 48 L301 0 L582 0 L592 48 L568 48 C525 48 506 57 507 77 C507 84 509 93 511 105 L546 268 C555 312 561 352 561 372 C561 440 508 482 424 482 C385 482 346 474 310 457 C279 443 259 428 220 388 L280 667 L102 667 L91 619 Z " />
<glyph glyph-name="i" unicode="i" horiz-adv-x="344" d="M237 675 C200 675 166 643 166 608 C166 581 184 562 210 562 C247 562 281 595 281 630 C281 655 262 675 237 675 L237 675 Z M-40 0 L246 0 L256 48 L228 48 C185 48 168 56 168 77 C168 84 169 95 172 105 L249 469 L60 469 L49 421 L83 421 C125 421 142 413 142 392 C142 387 140 375 138 364 L83 105 C74 58 61 50 4 48 L-30 48 L-40 0 Z " />
<glyph glyph-name="j" unicode="j" horiz-adv-x="334" d="M59 421 L93 421 C139 421 153 416 153 399 C153 393 151 378 147 360 L56 -68 C41 -140 12 -167 -48 -167 C-71 -167 -82 -163 -104 -147 C-63 -139 -44 -121 -44 -91 C-44 -66 -62 -50 -92 -50 C-135 -50 -170 -85 -170 -130 C-170 -181 -123 -214 -50 -214 C5 -214 51 -197 87 -164 C118 -135 133 -106 146 -45 L255 469 L69 469 L59 421 Z M241 675 C203 675 170 643 170 608 C170 581 188 562 214 562 C250 562 285 595 285 630 C285 655 266 675 241 675 L241 675 Z " />
<glyph glyph-name="k" unicode="k" horiz-adv-x="667" d="M182 229 L275 667 L97 667 L86 619 L115 619 C158 619 175 610 175 589 C175 582 174 572 172 562 L75 105 C65 58 53 50 -6 48 L-35 48 L-45 0 L226 0 L236 48 L213 48 C169 48 152 56 152 77 C152 83 154 94 156 105 L169 165 L270 228 L375 89 C380 83 383 75 383 70 C383 56 359 48 319 48 L292 48 L281 0 L580 0 L590 48 L575 48 C534 49 503 64 481 93 L345 276 L499 377 C551 411 583 421 626 420 L642 420 L652 469 L345 469 L334 420 L382 420 C420 420 435 416 435 406 C435 396 421 382 395 365 L182 229 Z " />
<glyph glyph-name="l" unicode="l" horiz-adv-x="334" d="M282 667 L97 667 L86 619 L116 619 C160 619 177 611 177 590 C177 585 175 573 173 562 L76 105 C66 58 54 50 -5 48 L-35 48 L-45 0 L240 0 L250 48 L219 48 C176 48 159 56 159 77 C159 85 160 95 162 105 L282 667 Z " />
<glyph glyph-name="m" unicode="m" horiz-adv-x="970" d="M-40 0 L231 0 L242 48 L222 48 C180 48 163 56 163 77 C163 82 165 94 167 105 L202 268 C214 327 227 351 263 383 C297 413 336 429 377 429 C427 429 451 407 451 362 C451 345 447 316 439 281 L402 105 C393 58 380 50 321 48 L301 48 L291 0 L552 0 L562 48 L543 48 C499 48 482 56 482 77 C482 84 483 95 486 105 L520 268 C533 327 545 351 582 383 C616 413 656 429 698 429 C748 429 772 407 772 362 C772 345 768 317 760 281 L723 105 C713 58 701 50 642 48 L622 48 L612 0 L879 0 L889 48 L863 48 C820 48 803 56 803 77 C803 84 804 95 806 105 L841 268 C852 317 858 360 858 380 C858 443 810 482 731 482 C663 482 618 461 536 390 C530 421 523 438 510 450 C489 470 453 482 413 482 C344 482 298 461 229 398 L244 469 L60 469 L49 421 L79 421 C121 421 138 413 138 392 C138 386 136 375 134 364 L79 105 C70 58 58 50 0 48 L-30 48 L-40 0 Z " />
<glyph glyph-name="n" unicode="n" horiz-adv-x="683" d="M-40 0 L247 0 L257 48 L224 48 C181 48 165 56 165 77 C165 84 166 95 168 105 L203 268 C214 319 233 352 271 384 C307 414 349 429 394 429 C452 429 479 405 479 352 C479 336 475 306 470 281 L432 105 C423 58 411 49 351 48 L317 48 L307 0 L588 0 L598 48 L574 48 C531 48 512 57 513 77 C513 84 515 93 517 105 L552 268 C561 312 567 352 567 372 C567 440 515 482 431 482 C392 482 353 474 318 457 C287 443 267 427 229 388 L246 469 L60 469 L49 421 L79 421 C121 421 138 412 138 392 C138 386 136 375 134 364 L79 105 C70 58 58 49 0 48 L-30 48 L-40 0 Z " />
<glyph glyph-name="o" unicode="o" horiz-adv-x="605" d="M335 486 C247 486 158 450 95 390 C38 335 4 254 4 172 C4 61 96 -17 228 -17 C315 -17 403 18 467 79 C524 135 558 214 558 296 C558 408 466 486 335 486 L335 486 Z M324 435 C414 435 462 388 462 301 C462 239 441 168 408 121 C370 65 309 34 238 34 C149 34 100 81 100 167 C100 230 121 300 154 348 C192 404 252 435 324 435 L324 435 Z " />
<glyph glyph-name="p" unicode="p" horiz-adv-x="636" d="M29 421 L52 421 C94 421 111 413 111 392 C111 387 109 375 107 364 L7 -109 C-3 -156 -15 -164 -73 -166 L-96 -166 L-106 -214 L175 -214 L185 -166 L151 -166 C109 -166 92 -158 92 -137 C92 -131 94 -120 96 -109 L136 78 C151 50 162 33 175 21 C201 -3 243 -16 291 -16 C447 -16 577 129 577 303 C577 414 508 484 399 484 C321 484 269 459 201 388 L219 469 L39 469 L29 421 Z M369 426 C440 426 481 382 481 305 C481 246 462 176 433 130 C397 71 349 42 289 42 C209 42 162 91 162 175 C162 313 255 426 369 426 L369 426 Z " />
<glyph glyph-name="q" unicode="q" horiz-adv-x="641" d="M512 -166 L488 -166 C446 -166 429 -158 429 -137 C429 -130 430 -119 432 -109 L533 364 C542 411 554 419 612 421 L636 421 L646 469 L466 469 L449 388 C432 420 419 438 403 450 C376 472 336 484 293 484 C137 484 8 340 8 167 C8 53 76 -16 188 -16 C266 -16 315 7 383 78 L343 -109 C334 -156 322 -164 264 -166 L230 -166 L220 -214 L501 -214 L512 -166 Z M296 426 C375 426 422 377 422 295 C422 238 405 180 376 135 C336 74 281 42 216 42 C143 42 104 84 104 162 C104 222 122 290 150 336 C186 395 236 426 296 426 L296 426 Z " />
<glyph glyph-name="r" unicode="r" horiz-adv-x="500" d="M274 48 L224 48 C181 48 165 56 165 77 C165 84 166 95 168 105 L192 217 C204 274 222 315 250 352 C293 408 338 437 385 437 C410 437 420 431 437 408 C411 408 399 403 385 388 C374 377 368 363 368 349 C368 325 388 308 417 308 C460 308 498 348 498 395 C498 451 462 483 400 483 C334 483 281 450 225 372 L246 469 L60 469 L49 421 L79 421 C121 421 138 412 138 392 C138 386 136 375 134 364 L79 105 C70 58 58 49 0 48 L-30 48 L-40 0 L264 0 L274 48 Z " />
<glyph glyph-name="s" unicode="s" horiz-adv-x="521" d="M-30 -4 L24 -4 L56 46 C106 -1 144 -16 213 -16 C276 -16 336 1 373 30 C416 62 445 114 445 160 C445 218 397 257 308 274 L214 291 C161 301 136 320 136 352 C136 399 186 433 254 433 C303 433 343 418 368 390 C389 367 396 343 398 292 L450 292 L489 475 L442 475 L413 432 C361 471 321 485 259 485 C200 485 148 468 110 437 C72 406 48 361 48 320 C48 262 98 218 184 202 L275 185 C332 174 357 156 357 126 C357 75 300 38 224 38 C176 38 133 55 103 85 C77 112 68 137 66 192 L12 192 L-30 -4 Z " />
<glyph glyph-name="t" unicode="t" horiz-adv-x="422" d="M122 420 L53 95 C51 87 50 78 50 68 C50 14 87 -17 154 -17 C210 -17 260 8 287 50 C306 79 316 108 337 192 L289 192 C276 134 266 103 253 80 C239 56 212 41 182 41 C154 41 140 52 140 73 C140 81 141 88 142 95 L211 420 L361 420 L372 469 L222 469 L261 655 L212 655 C173 528 127 477 44 469 L34 420 L122 420 Z " />
<glyph glyph-name="u" unicode="u" horiz-adv-x="678" d="M45 421 L67 421 C107 421 124 412 123 392 C123 385 121 375 119 364 L84 201 C75 157 69 117 69 98 C69 29 123 -13 210 -13 C250 -13 289 -5 325 11 C357 25 378 41 417 81 L400 0 L583 0 L593 48 L563 48 C521 48 502 57 503 77 C503 84 505 94 507 105 L585 469 L397 469 L387 421 L425 421 C465 421 481 413 481 392 C481 387 479 375 477 364 L443 201 C432 150 412 118 373 85 C336 55 293 40 246 40 C185 40 157 64 157 117 C157 132 161 163 167 188 L226 469 L55 469 L45 421 Z " />
<glyph glyph-name="v" unicode="v" horiz-adv-x="584" d="M13 420 L36 420 C73 418 78 414 87 375 L181 -5 L237 -5 L485 362 C521 414 527 418 567 420 L587 420 L597 469 L359 469 L349 420 L395 420 C430 420 441 416 441 404 C441 395 434 380 420 360 L252 107 L185 366 C183 374 182 383 182 389 C182 413 193 420 232 420 L270 420 L280 469 L23 469 L13 420 Z " />
<glyph glyph-name="w" unicode="w" horiz-adv-x="860" d="M176 -5 L236 -5 L417 286 L476 -5 L535 -5 L766 364 C794 408 812 420 849 421 L863 421 L873 469 L656 469 L645 421 L677 421 C709 421 722 417 722 406 C722 398 714 379 704 363 L541 107 L490 373 C489 380 488 387 488 393 C488 403 493 412 502 417 C508 420 518 421 544 421 L575 421 L585 469 L339 469 L329 421 L352 421 C387 418 396 411 401 380 L404 362 L243 107 L191 372 C189 381 188 389 188 393 C188 412 203 421 233 421 L267 421 L278 469 L39 469 L29 421 L48 421 C84 419 92 412 100 370 L176 -5 Z " />
<glyph glyph-name="x" unicode="x" horiz-adv-x="631" d="M343 251 L482 369 C531 409 557 421 599 421 L618 421 L628 469 L383 469 L373 421 L402 421 C434 421 445 418 445 411 C445 404 440 395 432 389 L313 290 L250 380 C240 394 238 398 238 403 C238 416 249 421 274 421 L308 421 L318 469 L50 469 L39 421 L56 421 C100 420 127 405 155 365 L249 240 L80 98 C38 65 8 51 -30 48 L-45 48 L-55 0 L199 0 L210 48 L171 48 C141 48 126 53 126 63 C126 69 130 74 144 86 L275 196 L352 89 C359 79 362 73 362 69 C362 57 342 48 316 48 L269 48 L259 0 L544 0 L555 48 L539 48 C509 47 481 62 456 94 L343 251 Z " />
<glyph glyph-name="y" unicode="y" horiz-adv-x="594" d="M197 -3 C108 -132 72 -164 15 -164 C-12 -164 -23 -157 -38 -132 C12 -128 35 -109 35 -72 C35 -46 17 -30 -11 -30 C-60 -30 -100 -73 -100 -125 C-100 -179 -60 -214 1 -214 C50 -214 92 -198 132 -165 C169 -134 192 -104 287 38 L501 359 C536 411 547 419 584 421 L616 421 L626 469 L376 469 L366 421 L408 421 C443 421 456 416 456 404 C456 396 451 385 443 372 L266 103 L204 367 C202 375 201 383 201 391 C201 414 211 421 242 421 L287 421 L297 469 L31 469 L20 421 L48 421 C87 419 96 412 106 374 L197 -3 Z " />
<glyph glyph-name="z" unicode="z" horiz-adv-x="521" d="M-45 0 L410 0 L456 212 L405 212 C366 66 348 51 212 50 L78 50 L490 420 L500 469 L71 469 L30 272 L80 272 C117 405 139 423 255 420 L379 420 L-34 50 L-45 0 Z " />
<glyph glyph-name="braceleft" unicode="&#x7b;" horiz-adv-x="375" d="M242 549 C255 613 283 631 362 628 L390 628 L405 628 L414 671 C371 672 363 672 355 672 C237 672 186 634 164 532 L126 351 C113 299 93 278 48 268 L39 227 C69 220 84 203 84 175 C84 163 82 147 80 137 L44 -32 C40 -52 38 -70 38 -87 C38 -151 78 -178 172 -178 C190 -178 205 -178 234 -177 L243 -133 C169 -133 162 -133 145 -128 C123 -122 110 -107 110 -84 C110 -76 111 -64 114 -52 L152 126 C155 140 157 160 157 174 C157 207 146 228 117 247 C168 273 187 299 203 368 L242 549 Z " />
<glyph glyph-name="bar" unicode="&#x7c;" horiz-adv-x="521" d="M288 667 L111 -167 L198 -167 L375 667 L288 667 Z " />
<glyph glyph-name="braceright" unicode="&#x7d;" horiz-adv-x="375" d="M125 -55 C111 -119 84 -137 5 -134 L-23 -133 L-38 -133 L-47 -177 C-6 -178 4 -178 12 -178 C130 -178 181 -140 203 -38 L241 143 C254 196 273 216 319 226 L328 268 C298 275 283 291 283 319 C283 331 285 349 287 358 L322 526 C327 548 329 564 329 581 C329 645 290 672 195 672 C176 672 170 672 133 671 L124 627 L144 627 C205 627 215 626 228 620 C248 612 257 599 257 579 C257 570 256 559 253 547 L215 369 C212 355 210 334 210 320 C210 287 221 267 250 247 C199 222 180 196 164 126 L125 -55 Z " />
<glyph glyph-name="asciitilde" unicode="&#x7e;" horiz-adv-x="676" d="M196 577 C237 630 265 650 300 650 C323 650 339 644 389 618 C447 586 467 579 493 579 C550 579 599 614 655 695 L617 731 C575 678 546 658 512 658 C489 658 475 663 425 691 C373 719 348 728 318 728 C262 728 211 692 158 613 L196 577 Z " />
<glyph glyph-name="uni00A0" unicode="&#xa0;" horiz-adv-x="250" d="" />
<glyph glyph-name="exclamdown" unicode="&#xa1;" horiz-adv-x="318" d="M190 486 C153 486 118 453 118 417 C118 391 138 371 163 371 C201 371 236 403 236 439 C236 467 217 486 190 486 L190 486 Z M125 285 C88 132 75 87 33 -31 C-5 -150 -6 -152 -6 -173 C-6 -202 12 -220 41 -220 C71 -220 97 -201 110 -169 C117 -150 117 -150 129 -31 C138 90 143 123 172 285 L125 285 Z " />
<glyph glyph-name="cent" unicode="&#xa2;" horiz-adv-x="641" d="M8 -87 L62 -87 L143 21 C188 3 208 -1 246 -1 C304 -1 352 11 392 33 C451 68 483 108 517 192 L456 192 C434 147 422 128 402 108 C370 76 323 58 275 58 C242 58 225 63 191 84 L455 435 C480 419 482 416 494 390 C446 381 424 361 424 326 C424 299 442 283 471 283 C521 283 558 323 558 376 C558 421 536 453 487 478 L565 582 L511 582 L445 494 C409 501 378 504 358 504 C282 504 195 464 136 402 C80 345 47 262 47 182 C47 119 60 89 107 45 L8 -87 Z M163 120 C150 156 146 176 146 197 C146 248 166 315 195 360 C233 418 299 456 363 456 C374 456 392 454 413 451 L163 120 Z " />
<glyph glyph-name="sterling" unicode="&#xa3;" horiz-adv-x="641" d="M2 -14 C62 33 100 49 149 49 C178 49 199 43 250 22 L308 -3 C334 -15 351 -19 370 -19 C408 -19 443 -7 469 15 C514 53 537 99 559 192 L513 192 C487 98 460 64 408 64 C384 64 356 71 329 84 L284 106 C265 116 241 121 218 121 C189 121 168 115 127 93 L125 99 C216 167 241 202 254 276 L391 276 L400 320 L258 320 C253 341 252 343 237 373 C222 403 215 426 215 444 C215 513 300 574 396 574 C431 574 466 566 492 553 C508 544 516 536 526 515 C486 489 475 474 475 446 C475 419 492 404 523 404 C569 404 608 445 608 494 C608 528 586 562 547 586 C508 610 460 622 396 622 C327 622 271 608 220 578 C154 541 114 483 114 427 C114 399 122 374 149 320 L47 320 L38 276 L153 276 C147 183 98 115 -15 42 L2 -14 Z " />
<glyph glyph-name="currency" unicode="&#xa4;" horiz-adv-x="700" d="M9 125 L46 80 L167 176 C213 141 255 126 308 126 C362 126 413 142 468 176 L548 80 L604 125 L524 221 C583 283 610 340 610 406 C610 440 602 468 583 504 L703 599 L666 644 L545 549 C502 584 462 598 406 598 C351 598 305 584 245 548 L164 644 L107 599 L189 503 C130 442 102 384 102 318 C102 282 110 252 129 221 L9 125 Z M393 526 C474 526 535 470 535 394 C535 292 432 198 320 198 C238 198 177 254 177 330 C177 432 280 526 393 526 L393 526 Z " />
<glyph glyph-name="yen" unicode="&#xa5;" horiz-adv-x="686" d="M463 349 L577 482 C629 542 654 558 692 557 L715 557 L725 605 L467 605 L457 557 L521 557 C539 557 551 552 551 544 C551 537 543 523 533 512 L349 300 L266 503 C262 514 259 525 259 533 C259 549 272 557 298 557 L357 557 L367 605 L76 605 L66 557 L93 557 C126 555 147 538 163 499 L228 349 L101 349 L92 306 L247 306 L274 246 L93 246 L84 203 L270 203 L251 114 C240 57 231 50 169 48 L108 48 L98 0 L443 0 L453 48 L394 48 C349 48 332 56 332 76 C332 82 334 92 338 114 L357 203 L547 203 L556 246 L371 246 L426 306 L582 306 L591 349 L463 349 Z " />
<glyph glyph-name="brokenbar" unicode="&#xa6;" horiz-adv-x="521" d="M288 667 L217 330 L304 330 L375 667 L288 667 Z M179 153 L111 -167 L198 -167 L266 153 L179 153 Z " />
<glyph glyph-name="section" unicode="&#xa7;" horiz-adv-x="620" d="M321 438 C234 473 220 485 220 522 C220 590 287 637 385 637 C427 637 445 631 486 607 C445 593 424 570 424 538 C424 511 446 494 481 494 C532 494 568 533 568 587 C568 648 501 687 395 687 C317 687 257 667 209 625 C166 588 141 540 141 498 C141 456 153 432 189 404 C136 382 113 368 88 344 C58 314 41 277 41 239 C41 179 74 142 152 115 L260 77 C341 48 375 19 375 -23 C375 -105 298 -160 183 -160 C144 -160 124 -155 80 -134 C124 -116 142 -94 142 -59 C142 -27 121 -7 86 -7 C34 -7 -6 -49 -6 -103 C-6 -171 60 -211 174 -211 C253 -211 324 -190 375 -152 C427 -112 460 -52 460 5 C460 50 445 74 399 105 C456 129 479 142 501 165 C532 195 550 235 550 274 C550 300 542 324 527 340 C508 361 496 368 428 395 L321 438 Z M191 188 C136 208 114 229 114 261 C114 283 124 305 142 324 C163 347 187 360 242 378 L404 315 C461 293 478 277 478 249 C478 228 466 204 446 185 C426 165 405 155 344 131 L191 188 Z " />
<glyph glyph-name="dieresis" unicode="&#xa8;" horiz-adv-x="520" d="M236 674 C200 674 167 643 167 609 C167 582 184 565 212 565 C246 565 278 596 278 630 C278 655 260 674 236 674 L236 674 Z M432 674 C397 674 363 643 363 609 C363 582 381 565 408 565 C442 565 474 596 474 630 C474 655 456 674 432 674 L432 674 Z " />
<glyph glyph-name="copyright" unicode="&#xa9;" horiz-adv-x="838" d="M541 286 C525 246 515 229 495 211 C468 186 433 173 393 173 C321 173 282 214 282 289 C282 399 364 497 455 497 C517 497 561 456 561 399 C561 390 561 382 560 372 L597 372 L629 524 L596 524 L575 492 C531 526 507 535 463 535 C329 535 213 419 213 286 C213 191 277 132 380 132 C439 132 486 149 524 183 C552 209 565 232 583 286 L541 286 Z M498 681 C257 681 35 483 35 268 C35 104 166 -14 347 -14 C583 -14 804 186 804 400 C804 562 674 681 498 681 L498 681 Z M486 630 C634 630 744 528 744 391 C744 208 557 37 357 37 C205 37 94 138 94 277 C94 461 282 630 486 630 L486 630 Z " />
<glyph glyph-name="ordfeminine" unicode="&#xaa;" horiz-adv-x="366" d="M348 429 C334 370 326 357 308 357 C299 357 295 361 295 370 C295 374 296 381 297 388 L326 525 C329 538 331 552 331 561 C331 598 290 622 224 622 C147 622 80 582 80 536 C80 518 95 505 116 505 C142 505 163 523 163 544 C163 557 158 564 143 569 C168 584 185 589 210 589 C250 589 274 574 274 549 C274 521 257 506 214 496 L160 483 C67 461 31 433 31 381 C31 342 63 318 116 318 C158 318 192 330 238 362 C244 330 258 318 292 318 C344 318 368 347 386 429 L348 429 Z M252 449 C244 414 232 395 206 379 C188 367 162 360 139 360 C112 360 97 371 97 391 C97 404 105 418 119 428 C131 437 137 439 171 448 L199 456 C218 462 231 466 257 476 L252 449 Z " />
<glyph glyph-name="guillemotleft" unicode="&#xab;" horiz-adv-x="480" d="M299 72 L352 72 L319 182 C311 209 307 223 307 226 C307 241 313 254 327 273 C335 283 340 290 343 293 L423 403 L369 403 L303 333 C238 266 230 254 230 223 C230 203 232 198 263 142 L299 72 Z M119 72 L173 72 L140 182 C128 215 128 217 128 225 C128 241 133 254 148 273 C155 282 161 290 163 293 L243 403 L190 403 L124 333 C59 265 51 254 51 223 C51 204 55 195 83 142 L119 72 Z " />
<glyph glyph-name="logicalnot" unicode="&#xac;" horiz-adv-x="525" d="M335 0 L419 0 L478 279 L23 279 L7 203 L378 203 L335 0 Z " />
<glyph glyph-name="uni00AD" unicode="&#xad;" horiz-adv-x="271" d="M-28 201 L243 201 L259 275 L-12 275 L-28 201 Z " />
<glyph glyph-name="registered" unicode="&#xae;" horiz-adv-x="838" d="M380 179 L346 179 C321 179 311 183 311 194 C311 197 312 204 315 217 L337 323 L412 323 C463 323 488 305 488 268 C488 261 487 252 486 243 L478 197 C477 193 477 190 477 182 C477 147 494 132 531 132 C583 132 606 159 624 241 L589 241 C575 186 570 175 556 175 C547 175 544 179 544 188 C544 195 546 210 549 225 C553 243 555 264 555 274 C555 308 540 326 503 338 C579 352 619 389 619 447 C619 502 574 523 460 523 L250 523 L242 487 L271 487 C296 487 306 483 306 472 C306 469 305 459 303 450 L253 217 C247 183 243 180 206 179 L177 179 L169 143 L372 143 L380 179 Z M345 359 L372 487 L452 487 C526 487 554 474 554 439 C554 387 506 359 419 359 L345 359 Z M498 681 C257 681 35 483 35 268 C35 104 166 -14 347 -14 C583 -14 804 186 804 400 C804 562 674 681 498 681 L498 681 Z M486 630 C634 630 744 528 744 391 C744 208 557 37 357 37 C205 37 94 138 94 277 C94 461 282 630 486 630 L486 630 Z " />
<glyph glyph-name="macron" unicode="&#xaf;" horiz-adv-x="512" d="M179 585 L441 585 L455 653 L193 653 L179 585 Z " />
<glyph glyph-name="degree" unicode="&#xb0;" horiz-adv-x="400" d="M203 686 C117 686 50 619 50 534 C50 448 116 381 200 381 C284 381 350 448 350 533 C350 619 286 686 203 686 L203 686 Z M202 629 C252 629 293 586 293 534 C293 480 252 438 200 438 C148 438 106 481 106 533 C106 587 148 629 202 629 L202 629 Z " />
<glyph glyph-name="plusminus" unicode="&#xb1;" horiz-adv-x="549" d="M11 55 L11 0 L535 0 L535 55 L11 55 Z M302 662 L247 662 L247 423 L10 423 L10 368 L247 368 L247 129 L302 129 L302 368 L539 368 L539 423 L302 423 L302 662 Z " />
<glyph glyph-name="twosuperior" unicode="&#xb2;" horiz-adv-x="422" d="M55 267 C64 295 76 304 106 304 C126 304 127 304 164 287 L196 272 C221 260 237 256 258 256 C285 256 308 263 328 276 C358 298 373 323 388 379 L356 379 C342 325 325 308 283 308 C266 308 250 310 228 316 L184 327 C151 336 151 336 133 336 C116 336 106 334 85 326 C126 367 136 372 224 394 C305 414 336 424 356 438 C387 460 407 495 407 527 C407 581 352 615 265 615 C168 615 83 565 83 507 C83 486 100 471 124 471 C152 471 175 490 175 513 C175 529 164 537 141 537 L130 537 C167 573 195 585 245 585 C304 585 341 563 341 527 C341 483 317 461 239 437 C84 389 40 353 22 267 L55 267 Z " />
<glyph glyph-name="threesuperior" unicode="&#xb3;" horiz-adv-x="422" d="M181 434 C287 432 316 419 316 376 C316 321 262 288 175 288 C121 288 99 296 73 326 C108 329 125 341 125 364 C125 380 111 390 90 390 C55 390 28 367 28 337 C28 292 92 257 175 257 C296 257 386 308 386 377 C386 414 358 438 296 450 C336 458 354 464 370 476 C394 492 408 515 408 538 C408 585 353 615 265 615 C174 615 87 572 87 527 C87 508 101 497 125 497 C154 497 174 513 174 535 C174 548 167 554 146 559 C187 579 215 586 252 586 C308 586 341 566 341 533 C341 509 324 486 299 476 C275 467 255 465 187 464 L181 434 Z " />
<glyph glyph-name="acute" unicode="&#xb4;" horiz-adv-x="514" d="M235 540 L271 540 L436 629 C474 650 487 664 487 684 C487 702 475 715 458 715 C442 715 421 704 400 686 L235 540 Z " />
<glyph glyph-name="mu" unicode="&#xb5;" horiz-adv-x="576" d="M442 500 L353 500 L354 131 C318 80 284 58 242 58 C184 58 150 99 150 169 L150 500 L62 500 L62 20 C62 -1 58 -26 51 -56 C34 -118 33 -123 33 -147 C33 -190 54 -219 83 -219 C112 -219 132 -189 132 -145 C132 -124 129 -110 113 -53 C102 -17 101 -8 101 21 L101 33 C143 -3 165 -13 200 -13 C250 -13 301 18 354 80 C362 48 367 36 377 21 C392 0 419 -13 449 -13 C510 -13 553 31 567 108 L540 109 C536 71 515 41 492 41 C462 41 442 77 442 131 L442 500 Z " />
<glyph glyph-name="paragraph" unicode="&#xb6;" horiz-adv-x="595" d="M152 -98 L221 -98 L370 604 L481 604 L332 -98 L401 -98 L550 604 L617 604 L630 667 L339 667 C257 667 194 650 149 615 C98 576 65 512 65 450 C65 367 127 315 225 315 L240 315 L152 -98 Z " />
<glyph glyph-name="periodcentered" unicode="&#xb7;" horiz-adv-x="318" d="M153 297 C113 297 78 264 78 227 C78 198 97 178 125 178 C163 178 199 213 199 249 C199 276 179 297 153 297 L153 297 Z " />
<glyph glyph-name="cedilla" unicode="&#xb8;" horiz-adv-x="525" d="M23 -178 C73 -204 120 -217 165 -217 C245 -217 301 -174 301 -112 C301 -73 273 -49 227 -49 C217 -49 203 -50 188 -51 L199 0 L168 0 L148 -94 C166 -89 175 -88 188 -88 C216 -88 231 -100 231 -121 C231 -154 206 -174 163 -174 C126 -174 86 -160 51 -135 L23 -178 Z " />
<glyph glyph-name="onesuperior" unicode="&#xb9;" horiz-adv-x="422" d="M69 267 L327 267 L333 295 L301 295 C256 295 242 299 242 313 C242 318 243 325 245 334 L304 615 L270 615 C241 573 217 562 133 557 L127 530 L227 530 L185 334 C179 299 175 297 109 295 L75 295 L69 267 Z " />
<glyph glyph-name="ordmasculine" unicode="&#xba;" horiz-adv-x="382" d="M253 622 C137 622 45 539 45 434 C45 366 104 318 188 318 C303 318 395 402 395 505 C395 574 337 622 253 622 L253 622 Z M245 586 C300 586 329 559 329 507 C329 417 274 354 195 354 C140 354 111 381 111 432 C111 523 166 586 245 586 L245 586 Z " />
<glyph glyph-name="guillemotright" unicode="&#xbb;" horiz-adv-x="479" d="M71 72 L136 142 C202 210 209 221 209 252 C209 272 207 277 177 333 L141 403 L87 403 L121 293 C132 259 132 258 132 249 C132 234 127 221 112 202 C104 192 99 185 97 182 L17 72 L71 72 Z M250 72 L316 142 C382 211 389 222 389 252 C389 271 387 277 357 333 L321 403 L267 403 L300 293 C308 267 312 252 312 249 C312 234 306 221 292 202 C284 192 279 185 277 182 L197 72 L250 72 Z " />
<glyph glyph-name="onequarter" unicode="&#xbc;" horiz-adv-x="1017" d="M69 267 L327 267 L333 295 L301 295 C256 295 242 299 242 313 C242 318 243 325 245 334 L304 615 L270 615 C241 573 217 562 133 557 L127 530 L227 530 L185 334 C179 299 175 297 109 295 L75 295 L69 267 Z M175 -17 L240 -17 L833 622 L768 622 L175 -17 Z M677 0 L918 0 L924 28 L885 28 C852 28 839 33 839 45 C839 48 840 54 841 62 L850 101 L940 101 L946 133 L857 133 L902 348 L863 348 L572 129 L566 101 L792 101 L783 59 C776 32 770 29 726 28 L683 28 L677 0 Z M799 133 L628 133 L831 285 L799 133 Z " />
<glyph glyph-name="onehalf" unicode="&#xbd;" horiz-adv-x="1017" d="M69 267 L327 267 L333 295 L301 295 C256 295 242 299 242 313 C242 318 243 325 245 334 L304 615 L270 615 C241 573 217 562 133 557 L127 530 L227 530 L185 334 C179 299 175 297 109 295 L75 295 L69 267 Z M175 -17 L240 -17 L833 622 L768 622 L175 -17 Z M593 0 C602 28 614 37 644 37 C663 37 668 36 702 20 L734 5 C756 -6 775 -10 796 -10 C823 -10 846 -3 865 10 C896 31 911 57 925 113 L894 113 C880 58 862 42 820 42 C803 42 784 45 766 49 L721 61 C693 68 688 69 671 69 C654 69 644 67 623 60 C664 101 673 106 761 127 C841 146 874 158 894 171 C925 194 945 228 945 260 C945 314 890 348 803 348 C706 348 621 298 621 240 C621 219 638 204 661 204 C689 204 712 223 712 246 C712 262 701 270 679 270 L668 270 C705 306 733 318 783 318 C842 318 879 296 879 260 C879 216 855 194 776 170 C622 122 577 86 560 0 L593 0 Z " />
<glyph glyph-name="threequarters" unicode="&#xbe;" horiz-adv-x="1017" d="M181 434 C287 432 316 419 316 376 C316 321 262 288 175 288 C121 288 99 296 73 326 C108 329 125 341 125 364 C125 380 111 390 90 390 C55 390 28 367 28 337 C28 292 92 257 175 257 C296 257 386 308 386 377 C386 414 358 438 296 450 C336 458 354 464 370 476 C394 492 408 515 408 538 C408 585 353 615 265 615 C174 615 87 572 87 527 C87 508 101 497 125 497 C154 497 174 513 174 535 C174 548 167 554 146 559 C187 579 215 586 252 586 C308 586 341 566 341 533 C341 509 324 486 299 476 C275 467 255 465 187 464 L181 434 Z M176 -17 L241 -17 L834 622 L769 622 L176 -17 Z M677 0 L919 0 L925 28 L886 28 C853 28 840 33 840 45 C840 50 841 55 842 62 L850 101 L940 101 L947 133 L857 133 L903 348 L864 348 L572 129 L566 101 L793 101 L784 59 C777 32 771 29 727 28 L683 28 L677 0 Z M800 133 L629 133 L832 285 L800 133 Z " />
<glyph glyph-name="questiondown" unicode="&#xbf;" horiz-adv-x="521" d="M319 486 C282 486 247 453 247 417 C247 391 267 371 292 371 C330 371 365 403 365 439 C365 467 346 486 319 486 L319 486 Z M253 287 C229 202 221 192 133 138 C56 91 31 73 1 40 C-30 6 -49 -39 -49 -80 C-49 -167 26 -221 147 -221 C230 -221 307 -193 356 -144 C392 -109 415 -62 415 -23 C415 26 389 55 347 55 C301 55 267 25 267 -14 C267 -40 283 -53 313 -53 C327 -53 338 -50 359 -40 C348 -81 336 -100 305 -124 C270 -151 218 -167 169 -167 C94 -167 46 -132 46 -78 C46 -24 75 20 144 70 C265 155 280 175 306 287 L253 287 Z " />
<glyph glyph-name="Agrave" unicode="&#xc0;" horiz-adv-x="735" d="M-92 0 L210 0 L222 53 L169 53 C121 53 107 57 107 72 C107 83 116 102 133 130 L192 223 L458 223 L478 110 C479 102 480 95 480 88 C480 61 465 53 413 53 L357 53 L346 0 L677 0 L689 53 L660 53 C609 54 593 67 585 114 L480 667 L393 667 L49 111 C20 64 2 54 -47 53 L-81 53 L-92 0 Z M224 276 L394 561 L447 276 L224 276 Z M483 706 L518 706 L407 827 C397 839 383 846 372 846 C349 846 328 825 328 802 C328 788 335 779 354 770 L483 706 Z " />
<glyph glyph-name="Aacute" unicode="&#xc1;" horiz-adv-x="735" d="M-92 0 L210 0 L222 53 L169 53 C121 53 107 57 107 72 C107 83 116 102 133 130 L192 223 L458 223 L478 110 C479 102 480 95 480 88 C480 61 465 53 413 53 L357 53 L346 0 L677 0 L689 53 L660 53 C609 54 593 67 585 114 L480 667 L393 667 L49 111 C20 64 2 54 -47 53 L-81 53 L-92 0 Z M224 276 L394 561 L447 276 L224 276 Z M412 706 L568 770 C597 782 611 797 611 818 C611 834 599 846 583 846 C571 846 554 839 539 827 L377 706 L412 706 Z " />
<glyph glyph-name="Acircumflex" unicode="&#xc2;" horiz-adv-x="735" d="M-92 0 L210 0 L222 53 L169 53 C121 53 107 57 107 72 C107 83 116 102 133 130 L192 223 L458 223 L478 110 C479 102 480 95 480 88 C480 61 465 53 413 53 L357 53 L346 0 L677 0 L689 53 L660 53 C609 54 593 67 585 114 L480 667 L393 667 L49 111 C20 64 2 54 -47 53 L-81 53 L-92 0 Z M224 276 L394 561 L447 276 L224 276 Z M304 706 L336 706 L461 777 L557 706 L589 706 L511 838 L437 838 L304 706 Z " />
<glyph glyph-name="Atilde" unicode="&#xc3;" horiz-adv-x="735" d="M-92 0 L210 0 L222 53 L169 53 C121 53 107 57 107 72 C107 83 116 102 133 130 L192 223 L458 223 L478 110 C479 102 480 95 480 88 C480 61 465 53 413 53 L357 53 L346 0 L677 0 L689 53 L660 53 C609 54 593 67 585 114 L480 667 L393 667 L49 111 C20 64 2 54 -47 53 L-81 53 L-92 0 Z M224 276 L394 561 L447 276 L224 276 Z M582 835 C567 807 555 798 531 797 C523 797 515 797 508 799 L459 812 C448 815 436 817 426 817 C404 817 384 808 364 791 C342 772 330 753 311 708 L339 708 C355 738 371 750 392 749 C399 749 409 747 421 744 L470 731 C478 729 485 728 494 728 C543 728 577 760 610 835 L582 835 Z " />
<glyph glyph-name="Adieresis" unicode="&#xc4;" horiz-adv-x="735" d="M-92 0 L210 0 L222 53 L169 53 C121 53 107 57 107 72 C107 83 116 102 133 130 L192 223 L458 223 L478 110 C479 102 480 95 480 88 C480 61 465 53 413 53 L357 53 L346 0 L677 0 L689 53 L660 53 C609 54 593 67 585 114 L480 667 L393 667 L49 111 C20 64 2 54 -47 53 L-81 53 L-92 0 Z M224 276 L394 561 L447 276 L224 276 Z M376 821 C343 821 312 792 312 761 C312 736 328 720 352 720 C385 720 415 749 415 780 C415 803 398 821 376 821 L376 821 Z M563 821 C530 821 499 792 499 761 C499 736 515 720 540 720 C573 720 603 749 603 780 C603 803 586 821 563 821 L563 821 Z " />
<glyph glyph-name="Aring" unicode="&#xc5;" horiz-adv-x="735" d="M-92 0 L210 0 L222 53 L169 53 C121 53 107 57 107 72 C107 83 116 102 133 130 L192 223 L458 223 L478 110 C479 102 480 95 480 88 C480 61 465 53 413 53 L357 53 L346 0 L677 0 L689 53 L660 53 C609 54 593 67 585 114 L480 667 L393 667 L49 111 C20 64 2 54 -47 53 L-81 53 L-92 0 Z M224 276 L394 561 L447 276 L224 276 Z M482 893 C418 893 362 840 362 780 C362 733 393 701 437 701 C499 701 557 757 557 817 C557 861 526 893 482 893 L482 893 Z M471 848 C494 848 511 831 511 807 C511 776 479 746 447 746 C423 746 407 763 407 788 C407 820 437 848 471 848 L471 848 Z " />
<glyph glyph-name="AE" unicode="&#xc6;" horiz-adv-x="1152" d="M256 270 L519 270 L489 126 C477 63 467 55 398 53 L346 53 L334 0 L997 0 L1054 271 L1001 271 C955 88 921 56 766 53 L561 53 L619 323 L690 323 C759 323 784 308 784 266 C784 246 784 246 774 178 L827 178 L897 505 L843 505 C818 392 798 374 703 376 L630 376 L680 614 L872 614 C1001 614 1042 588 1042 507 C1042 483 1040 461 1031 416 L1085 416 L1139 667 L357 667 L346 614 L398 614 C446 614 465 607 465 589 C465 577 456 564 434 541 L14 111 C-31 66 -59 52 -96 53 L-117 53 L-128 0 L155 0 L167 53 L140 53 C94 53 79 58 79 72 C79 84 92 102 119 130 L256 270 Z M306 323 L579 614 L592 614 L531 323 L306 323 Z " />
<glyph glyph-name="Ccedilla" unicode="&#xc7;" horiz-adv-x="740" d="M605 243 C578 173 559 143 524 110 C476 65 412 41 341 41 C213 41 142 116 142 251 C142 335 169 421 219 493 C282 583 364 631 456 631 C566 631 645 556 645 453 C645 443 644 425 643 408 L697 408 L752 667 L703 667 L664 607 C586 670 543 687 466 687 C235 687 33 483 33 249 C33 100 123 -1 270 -17 L252 -101 C271 -96 279 -95 291 -95 C318 -95 333 -107 333 -127 C333 -155 307 -174 268 -174 C232 -174 192 -160 157 -135 L130 -178 C180 -204 226 -217 270 -217 C312 -217 346 -207 369 -188 C391 -169 405 -143 405 -119 C405 -81 376 -56 332 -56 C321 -56 307 -57 293 -58 L301 -19 C309 -20 314 -20 317 -20 C437 -20 531 21 598 102 C627 137 643 171 668 243 L605 243 Z " />
<glyph glyph-name="Egrave" unicode="&#xc8;" horiz-adv-x="777" d="M-40 0 L623 0 L681 271 L627 271 C581 88 547 57 392 53 L187 53 L245 323 L316 323 C385 323 410 307 410 266 C410 246 410 246 400 178 L453 178 L523 505 L469 505 C444 392 424 374 329 376 L256 376 L306 614 L498 614 C628 614 668 588 668 506 C668 482 666 461 658 416 L712 416 L765 667 L102 667 L90 614 L135 614 C182 614 201 605 201 583 C201 577 198 559 194 541 L106 126 C94 63 85 55 15 53 L-29 53 L-40 0 Z M504 706 L538 706 L428 827 C418 839 404 846 393 846 C370 846 349 825 349 802 C349 788 356 779 374 770 L504 706 Z " />
<glyph glyph-name="Eacute" unicode="&#xc9;" horiz-adv-x="777" d="M-40 0 L623 0 L681 271 L627 271 C581 88 547 57 392 53 L187 53 L245 323 L316 323 C385 323 410 307 410 266 C410 246 410 246 400 178 L453 178 L523 505 L469 505 C444 392 424 374 329 376 L256 376 L306 614 L498 614 C628 614 668 588 668 506 C668 482 666 461 658 416 L712 416 L765 667 L102 667 L90 614 L135 614 C182 614 201 605 201 583 C201 577 198 559 194 541 L106 126 C94 63 85 55 15 53 L-29 53 L-40 0 Z M432 706 L589 770 C618 782 632 797 632 818 C632 834 620 846 604 846 C592 846 575 839 560 827 L398 706 L432 706 Z " />
<glyph glyph-name="Ecircumflex" unicode="&#xca;" horiz-adv-x="777" d="M-40 0 L623 0 L681 271 L627 271 C581 88 547 57 392 53 L187 53 L245 323 L316 323 C385 323 410 307 410 266 C410 246 410 246 400 178 L453 178 L523 505 L469 505 C444 392 424 374 329 376 L256 376 L306 614 L498 614 C628 614 668 588 668 506 C668 482 666 461 658 416 L712 416 L765 667 L102 667 L90 614 L135 614 C182 614 201 605 201 583 C201 577 198 559 194 541 L106 126 C94 63 85 55 15 53 L-29 53 L-40 0 Z M324 706 L356 706 L482 777 L578 706 L610 706 L532 838 L458 838 L324 706 Z " />
<glyph glyph-name="Edieresis" unicode="&#xcb;" horiz-adv-x="777" d="M-40 0 L623 0 L681 271 L627 271 C581 88 547 57 392 53 L187 53 L245 323 L316 323 C385 323 410 307 410 266 C410 246 410 246 400 178 L453 178 L523 505 L469 505 C444 392 424 374 329 376 L256 376 L306 614 L498 614 C628 614 668 588 668 506 C668 482 666 461 658 416 L712 416 L765 667 L102 667 L90 614 L135 614 C182 614 201 605 201 583 C201 577 198 559 194 541 L106 126 C94 63 85 55 15 53 L-29 53 L-40 0 Z M399 821 C366 821 335 792 335 760 C335 736 351 720 376 720 C409 720 439 749 439 780 C439 803 422 821 399 821 L399 821 Z M587 821 C554 821 523 792 523 760 C523 736 539 720 563 720 C596 720 626 749 626 780 C626 803 609 821 587 821 L587 821 Z " />
<glyph glyph-name="Igrave" unicode="&#xcc;" horiz-adv-x="407" d="M-40 0 L305 0 L316 53 L268 53 C220 53 201 62 201 84 C201 90 203 101 208 126 L296 541 C308 604 318 612 387 614 L435 614 L446 667 L102 667 L90 614 L139 614 C186 614 205 605 205 583 C205 577 202 559 198 541 L110 126 C98 63 88 55 19 53 L-29 53 L-40 0 Z M319 706 L353 706 L243 827 C233 839 219 846 208 846 C185 846 164 825 164 802 C164 788 171 779 190 770 L319 706 Z " />
<glyph glyph-name="Iacute" unicode="&#xcd;" horiz-adv-x="407" d="M-40 0 L305 0 L316 53 L268 53 C220 53 201 62 201 84 C201 90 203 101 208 126 L296 541 C308 604 318 612 387 614 L435 614 L446 667 L102 667 L90 614 L139 614 C186 614 205 605 205 583 C205 577 202 559 198 541 L110 126 C98 63 88 55 19 53 L-29 53 L-40 0 Z M248 706 L404 770 C433 782 447 797 447 818 C447 834 435 846 419 846 C407 846 390 839 375 827 L213 706 L248 706 Z " />
<glyph glyph-name="Icircumflex" unicode="&#xce;" horiz-adv-x="407" d="M-40 0 L305 0 L316 53 L268 53 C220 53 201 62 201 84 C201 90 203 101 208 126 L296 541 C308 604 318 612 387 614 L435 614 L446 667 L102 667 L90 614 L139 614 C186 614 205 605 205 583 C205 577 202 559 198 541 L110 126 C98 63 88 55 19 53 L-29 53 L-40 0 Z M140 706 L172 706 L297 777 L393 706 L425 706 L347 838 L273 838 L140 706 Z " />
<glyph glyph-name="Idieresis" unicode="&#xcf;" horiz-adv-x="407" d="M-40 0 L305 0 L316 53 L268 53 C220 53 201 62 201 84 C201 90 203 101 208 126 L296 541 C308 604 318 612 387 614 L435 614 L446 667 L102 667 L90 614 L139 614 C186 614 205 605 205 583 C205 577 202 559 198 541 L110 126 C98 63 88 55 19 53 L-29 53 L-40 0 Z M225 821 C192 821 161 792 161 760 C161 736 177 720 202 720 C235 720 265 749 265 780 C265 803 248 821 225 821 L225 821 Z M392 821 C359 821 328 792 328 760 C328 736 344 720 368 720 C401 720 431 749 431 780 C431 803 414 821 392 821 L392 821 Z " />
<glyph glyph-name="Eth" unicode="&#xd0;" horiz-adv-x="829" d="M-36 0 L301 0 C394 0 467 6 511 18 C572 35 634 72 680 121 C755 199 801 312 801 419 C801 497 778 556 732 599 C675 652 613 667 445 667 L106 667 L94 614 L139 614 C186 614 205 605 205 583 C205 576 202 558 199 541 L160 361 L11 361 L1 313 L150 313 L110 126 C98 63 89 55 19 53 L-25 53 L-36 0 Z M247 313 L449 313 L460 361 L257 361 L311 614 L433 614 C514 614 580 602 616 580 C665 550 695 493 695 426 C695 344 662 240 617 176 C558 93 458 53 312 53 L192 53 L247 313 Z " />
<glyph glyph-name="Ntilde" unicode="&#xd1;" horiz-adv-x="866" d="M660 -3 L775 541 C787 604 797 612 866 614 L900 614 L912 667 L605 667 L593 614 L649 614 C696 614 715 605 715 583 C715 577 712 560 708 541 L621 131 L335 667 L102 667 L90 614 L132 614 C179 614 198 605 198 583 C198 577 195 561 191 541 L103 126 C91 63 81 55 13 53 L-29 53 L-40 0 L271 0 L283 53 L229 53 C182 53 163 62 163 84 C163 90 165 105 170 126 L266 577 L574 -3 L660 -3 Z M647 835 C632 807 620 798 596 797 C588 797 580 797 573 799 L524 812 C513 815 501 817 491 817 C469 817 449 808 429 791 C407 772 395 753 376 708 L404 708 C420 738 436 750 457 749 C464 749 474 747 486 744 L535 731 C543 729 550 728 559 728 C608 728 642 760 675 835 L647 835 Z " />
<glyph glyph-name="Ograve" unicode="&#xd2;" horiz-adv-x="834" d="M493 687 C244 687 34 490 34 256 C34 90 156 -19 343 -19 C590 -19 801 179 801 410 C801 577 679 687 493 687 L493 687 Z M481 632 C612 632 695 550 695 422 C695 339 667 245 622 181 C558 89 460 36 355 36 C224 36 140 117 140 244 C140 461 290 632 481 632 L481 632 Z M533 706 L567 706 L457 827 C447 839 433 846 422 846 C399 846 378 825 378 802 C378 788 385 779 404 770 L533 706 Z " />
<glyph glyph-name="Oacute" unicode="&#xd3;" horiz-adv-x="834" d="M493 687 C244 687 34 490 34 256 C34 90 156 -19 343 -19 C590 -19 801 179 801 410 C801 577 679 687 493 687 L493 687 Z M481 632 C612 632 695 550 695 422 C695 339 667 245 622 181 C558 89 460 36 355 36 C224 36 140 117 140 244 C140 461 290 632 481 632 L481 632 Z M462 706 L618 770 C648 782 661 797 661 818 C661 834 649 846 633 846 C621 846 604 839 589 827 L427 706 L462 706 Z " />
<glyph glyph-name="Ocircumflex" unicode="&#xd4;" horiz-adv-x="834" d="M493 687 C244 687 34 490 34 256 C34 90 156 -19 343 -19 C590 -19 801 179 801 410 C801 577 679 687 493 687 L493 687 Z M481 632 C612 632 695 550 695 422 C695 339 667 245 622 181 C558 89 460 36 355 36 C224 36 140 117 140 244 C140 461 290 632 481 632 L481 632 Z M354 706 L386 706 L511 777 L607 706 L639 706 L561 838 L487 838 L354 706 Z " />
<glyph glyph-name="Otilde" unicode="&#xd5;" horiz-adv-x="834" d="M493 687 C244 687 34 490 34 256 C34 90 156 -19 343 -19 C590 -19 801 179 801 410 C801 577 679 687 493 687 L493 687 Z M481 632 C612 632 695 550 695 422 C695 339 667 245 622 181 C558 89 460 36 355 36 C224 36 140 117 140 244 C140 461 290 632 481 632 L481 632 Z M632 835 C616 807 605 798 580 797 C573 797 565 797 558 799 L509 812 C498 815 486 817 476 817 C454 817 434 809 414 791 C392 772 380 753 361 708 L389 708 C405 738 421 750 441 749 C449 749 459 747 471 744 L520 731 C527 729 535 728 544 728 C593 728 627 760 660 835 L632 835 Z " />
<glyph glyph-name="Odieresis" unicode="&#xd6;" horiz-adv-x="834" d="M493 687 C244 687 34 490 34 256 C34 90 156 -19 343 -19 C590 -19 801 179 801 410 C801 577 679 687 493 687 L493 687 Z M481 632 C612 632 695 550 695 422 C695 339 667 245 622 181 C558 89 460 36 355 36 C224 36 140 117 140 244 C140 461 290 632 481 632 L481 632 Z M429 821 C396 821 365 792 365 760 C365 736 381 720 405 720 C438 720 468 749 468 780 C468 803 451 821 429 821 L429 821 Z M616 821 C583 821 552 792 552 760 C552 736 568 720 593 720 C626 720 656 749 656 780 C656 803 639 821 616 821 L616 821 Z " />
<glyph glyph-name="multiply" unicode="&#xd7;" horiz-adv-x="532" d="M30 165 L69 118 L251 263 L372 118 L431 165 L310 309 L492 454 L453 500 L271 356 L150 500 L91 454 L212 309 L30 165 Z " />
<glyph glyph-name="Oslash" unicode="&#xd8;" horiz-adv-x="834" d="M-7 7 L22 -28 L120 56 C146 36 165 23 180 15 C221 -7 278 -19 341 -19 C468 -19 583 28 671 115 C753 196 801 306 801 412 C801 474 788 511 744 581 L838 659 L809 694 L712 611 C687 632 672 642 656 650 C612 673 550 687 488 687 C243 687 33 488 33 255 C33 195 45 158 88 88 L-7 7 Z M669 517 C689 470 695 447 695 416 C695 344 662 238 621 180 C558 89 460 36 357 36 C285 36 249 52 186 110 L669 517 Z M163 150 C143 195 139 214 139 255 C139 459 293 632 475 632 C547 632 593 612 648 557 L163 150 Z " />
<glyph glyph-name="Ugrave" unicode="&#xd9;" horiz-adv-x="798" d="M91 614 L126 614 C173 614 192 605 192 583 C192 576 189 558 186 541 L115 209 C110 187 108 164 108 143 C108 102 116 75 136 50 C170 5 240 -20 326 -20 C410 -20 481 2 536 43 C592 87 626 147 646 244 L709 541 C721 604 731 612 800 614 L832 614 L843 667 L542 667 L531 614 L583 614 C631 614 650 605 650 583 C650 577 648 567 643 541 L579 244 C562 162 541 120 503 91 C465 63 412 47 352 47 C256 47 206 84 206 155 C206 175 208 190 211 209 L282 541 C294 604 304 612 373 614 L426 614 L437 667 L102 667 L91 614 Z M515 706 L549 706 L439 827 C429 839 415 846 404 846 C381 846 360 825 360 802 C360 788 367 779 385 770 L515 706 Z " />
<glyph glyph-name="Uacute" unicode="&#xda;" horiz-adv-x="798" d="M91 614 L126 614 C173 614 192 605 192 583 C192 576 189 558 186 541 L115 209 C110 187 108 164 108 143 C108 102 116 75 136 50 C170 5 240 -20 326 -20 C410 -20 481 2 536 43 C592 87 626 147 646 244 L709 541 C721 604 731 612 800 614 L832 614 L843 667 L542 667 L531 614 L583 614 C631 614 650 605 650 583 C650 577 648 567 643 541 L579 244 C562 162 541 120 503 91 C465 63 412 47 352 47 C256 47 206 84 206 155 C206 175 208 190 211 209 L282 541 C294 604 304 612 373 614 L426 614 L437 667 L102 667 L91 614 Z M443 706 L600 770 C628 782 642 797 642 818 C642 834 630 846 614 846 C602 846 586 839 570 827 L409 706 L443 706 Z " />
<glyph glyph-name="Ucircumflex" unicode="&#xdb;" horiz-adv-x="798" d="M91 614 L126 614 C173 614 192 605 192 583 C192 576 189 558 186 541 L115 209 C110 187 108 164 108 143 C108 102 116 75 136 50 C170 5 240 -20 326 -20 C410 -20 481 2 536 43 C592 87 626 147 646 244 L709 541 C721 604 731 612 800 614 L832 614 L843 667 L542 667 L531 614 L583 614 C631 614 650 605 650 583 C650 577 648 567 643 541 L579 244 C562 162 541 120 503 91 C465 63 412 47 352 47 C256 47 206 84 206 155 C206 175 208 190 211 209 L282 541 C294 604 304 612 373 614 L426 614 L437 667 L102 667 L91 614 Z M335 706 L367 706 L493 777 L589 706 L621 706 L543 838 L469 838 L335 706 Z " />
<glyph glyph-name="Udieresis" unicode="&#xdc;" horiz-adv-x="798" d="M91 614 L126 614 C173 614 192 605 192 583 C192 576 189 558 186 541 L115 209 C110 187 108 164 108 143 C108 102 116 75 136 50 C170 5 240 -20 326 -20 C410 -20 481 2 536 43 C592 87 626 147 646 244 L709 541 C721 604 731 612 800 614 L832 614 L843 667 L542 667 L531 614 L583 614 C631 614 650 605 650 583 C650 577 648 567 643 541 L579 244 C562 162 541 120 503 91 C465 63 412 47 352 47 C256 47 206 84 206 155 C206 175 208 190 211 209 L282 541 C294 604 304 612 373 614 L426 614 L437 667 L102 667 L91 614 Z M422 821 C389 821 358 792 358 760 C358 736 374 720 398 720 C431 720 461 749 461 780 C461 803 444 821 422 821 L422 821 Z M609 821 C576 821 545 792 545 760 C545 736 561 720 586 720 C619 720 649 749 649 780 C649 803 632 821 609 821 L609 821 Z " />
<glyph glyph-name="Yacute" unicode="&#xdd;" horiz-adv-x="667" d="M267 263 L238 126 C226 63 216 55 147 53 L80 53 L69 0 L450 0 L461 53 L395 53 C347 53 328 62 328 84 C328 91 331 108 334 126 L364 263 L597 532 C655 597 681 614 725 614 L749 614 L760 667 L476 667 L465 614 L536 614 C556 614 569 608 569 599 C569 592 561 577 549 564 L346 331 L255 555 C250 566 247 579 247 588 C247 605 262 614 289 614 L355 614 L366 667 L45 667 L34 614 L64 614 C100 612 123 593 141 550 L267 263 Z M379 706 L535 770 C564 782 578 797 578 818 C578 834 566 846 550 846 C538 846 521 839 506 827 L344 706 L379 706 Z " />
<glyph glyph-name="Thorn" unicode="&#xde;" horiz-adv-x="714" d="M-40 0 L304 0 L315 53 L264 53 C217 53 198 62 198 84 C198 90 200 102 205 126 L212 158 L327 158 C473 158 540 172 595 213 C648 253 680 317 680 381 C680 420 669 449 644 472 C604 508 538 522 396 522 L289 522 L293 541 C305 604 315 612 383 614 L434 614 L446 667 L102 667 L90 614 L134 614 C180 614 199 605 199 583 C199 577 197 563 192 541 L104 126 C92 63 82 55 14 53 L-29 53 L-40 0 Z M223 211 L278 469 L387 469 C528 469 579 443 579 374 C579 334 561 293 533 264 C497 229 432 211 339 211 L223 211 Z " />
<glyph glyph-name="germandbls" unicode="&#xdf;" horiz-adv-x="657" d="M-55 0 L125 0 L219 442 C236 521 254 562 283 591 C312 619 351 634 395 634 C458 634 494 605 494 555 C494 516 476 483 445 462 C410 438 376 431 293 430 L282 379 C356 379 389 374 418 359 C458 340 477 306 477 252 C477 206 464 153 442 110 C416 61 382 36 341 36 C301 36 280 58 280 101 C280 115 282 136 287 168 L229 168 C223 136 219 101 219 81 C219 16 255 -17 326 -17 C391 -17 448 10 496 63 C544 116 575 193 575 260 C575 298 565 327 544 352 C521 380 494 394 434 410 C501 428 530 444 556 475 C577 500 589 533 589 565 C589 637 519 684 411 684 C265 684 167 599 134 442 L62 105 C53 58 41 50 -17 48 L-42 48 L-55 0 Z " />
<glyph glyph-name="agrave" unicode="&#xe0;" horiz-adv-x="579" d="M492 159 C467 62 453 38 419 38 C403 38 394 47 394 63 C394 69 396 82 399 95 L448 327 C453 350 456 374 456 388 C456 448 390 486 289 486 C169 486 62 421 62 347 C62 319 84 300 114 300 C153 300 184 326 184 359 C184 381 173 392 144 399 C192 430 224 441 268 441 C334 441 375 414 375 370 C375 353 367 329 355 314 C342 296 318 284 272 273 L185 251 C104 231 65 215 33 189 C0 162 -19 125 -19 84 C-19 20 30 -18 113 -18 C181 -18 234 3 313 61 C319 4 341 -17 396 -17 C475 -17 512 28 541 159 L492 159 Z M337 199 C324 137 302 103 260 74 C229 54 185 41 148 41 C103 41 77 62 77 97 C77 123 91 148 115 166 C136 182 151 188 201 203 L245 216 C278 225 290 230 348 253 L337 199 Z M391 540 L288 686 C275 704 258 715 243 715 C220 715 197 692 197 669 C197 656 206 645 228 629 L355 540 L391 540 Z " />
<glyph glyph-name="aacute" unicode="&#xe1;" horiz-adv-x="579" d="M492 159 C467 62 453 38 419 38 C403 38 394 47 394 63 C394 69 396 82 399 95 L448 327 C453 350 456 374 456 388 C456 448 390 486 289 486 C169 486 62 421 62 347 C62 319 84 300 114 300 C153 300 184 326 184 359 C184 381 173 392 144 399 C192 430 224 441 268 441 C334 441 375 414 375 370 C375 353 367 329 355 314 C342 296 318 284 272 273 L185 251 C104 231 65 215 33 189 C0 162 -19 125 -19 84 C-19 20 30 -18 113 -18 C181 -18 234 3 313 61 C319 4 341 -17 396 -17 C475 -17 512 28 541 159 L492 159 Z M337 199 C324 137 302 103 260 74 C229 54 185 41 148 41 C103 41 77 62 77 97 C77 123 91 148 115 166 C136 182 151 188 201 203 L245 216 C278 225 290 230 348 253 L337 199 Z M267 540 L303 540 L467 629 C506 650 519 664 519 684 C519 702 507 715 490 715 C474 715 452 704 432 686 L267 540 Z " />
<glyph glyph-name="acircumflex" unicode="&#xe2;" horiz-adv-x="579" d="M492 159 C467 62 453 38 419 38 C403 38 394 47 394 63 C394 69 396 82 399 95 L448 327 C453 350 456 374 456 388 C456 448 390 486 289 486 C169 486 62 421 62 347 C62 319 84 300 114 300 C153 300 184 326 184 359 C184 381 173 392 144 399 C192 430 224 441 268 441 C334 441 375 414 375 370 C375 353 367 329 355 314 C342 296 318 284 272 273 L185 251 C104 231 65 215 33 189 C0 162 -19 125 -19 84 C-19 20 30 -18 113 -18 C181 -18 234 3 313 61 C319 4 341 -17 396 -17 C475 -17 512 28 541 159 L492 159 Z M337 199 C324 137 302 103 260 74 C229 54 185 41 148 41 C103 41 77 62 77 97 C77 123 91 148 115 166 C136 182 151 188 201 203 L245 216 C278 225 290 230 348 253 L337 199 Z M169 540 L205 540 L332 635 L419 540 L455 540 L380 709 L316 709 L169 540 Z " />
<glyph glyph-name="atilde" unicode="&#xe3;" horiz-adv-x="579" d="M492 159 C467 62 453 38 419 38 C403 38 394 47 394 63 C394 69 396 82 399 95 L448 327 C453 350 456 374 456 388 C456 448 390 486 289 486 C169 486 62 421 62 347 C62 319 84 300 114 300 C153 300 184 326 184 359 C184 381 173 392 144 399 C192 430 224 441 268 441 C334 441 375 414 375 370 C375 353 367 329 355 314 C342 296 318 284 272 273 L185 251 C104 231 65 215 33 189 C0 162 -19 125 -19 84 C-19 20 30 -18 113 -18 C181 -18 234 3 313 61 C319 4 341 -17 396 -17 C475 -17 512 28 541 159 L492 159 Z M337 199 C324 137 302 103 260 74 C229 54 185 41 148 41 C103 41 77 62 77 97 C77 123 91 148 115 166 C136 182 151 188 201 203 L245 216 C278 225 290 230 348 253 L337 199 Z M454 694 C437 662 424 652 399 652 C392 652 385 653 378 655 L329 668 C317 671 304 673 296 673 C274 673 254 664 234 647 C212 627 199 607 179 560 L207 560 C225 593 239 604 261 604 C268 604 280 602 291 599 L340 586 C348 584 357 583 364 583 C413 583 447 615 482 694 L454 694 Z " />
<glyph glyph-name="adieresis" unicode="&#xe4;" horiz-adv-x="579" d="M492 159 C467 62 453 38 419 38 C403 38 394 47 394 63 C394 69 396 82 399 95 L448 327 C453 350 456 374 456 388 C456 448 390 486 289 486 C169 486 62 421 62 347 C62 319 84 300 114 300 C153 300 184 326 184 359 C184 381 173 392 144 399 C192 430 224 441 268 441 C334 441 375 414 375 370 C375 353 367 329 355 314 C342 296 318 284 272 273 L185 251 C104 231 65 215 33 189 C0 162 -19 125 -19 84 C-19 20 30 -18 113 -18 C181 -18 234 3 313 61 C319 4 341 -17 396 -17 C475 -17 512 28 541 159 L492 159 Z M337 199 C324 137 302 103 260 74 C229 54 185 41 148 41 C103 41 77 62 77 97 C77 123 91 148 115 166 C136 182 151 188 201 203 L245 216 C278 225 290 230 348 253 L337 199 Z M261 674 C225 674 192 643 192 609 C192 582 209 565 237 565 C271 565 303 596 303 630 C303 655 285 674 261 674 L261 674 Z M457 674 C422 674 388 642 388 609 C388 582 406 565 433 565 C467 565 499 596 499 630 C499 655 481 674 457 674 L457 674 Z " />
<glyph glyph-name="aring" unicode="&#xe5;" horiz-adv-x="579" d="M492 159 C467 62 453 38 419 38 C403 38 394 47 394 63 C394 69 396 82 399 95 L448 327 C453 350 456 374 456 388 C456 448 390 486 289 486 C169 486 62 421 62 347 C62 319 84 300 114 300 C153 300 184 326 184 359 C184 381 173 392 144 399 C192 430 224 441 268 441 C334 441 375 414 375 370 C375 353 367 329 355 314 C342 296 318 284 272 273 L185 251 C104 231 65 215 33 189 C0 162 -19 125 -19 84 C-19 20 30 -18 113 -18 C181 -18 234 3 313 61 C319 4 341 -17 396 -17 C475 -17 512 28 541 159 L492 159 Z M337 199 C324 137 302 103 260 74 C229 54 185 41 148 41 C103 41 77 62 77 97 C77 123 91 148 115 166 C136 182 151 188 201 203 L245 216 C278 225 290 230 348 253 L337 199 Z M356 759 C276 759 205 692 205 617 C205 558 243 519 300 519 C378 519 450 588 450 663 C450 718 410 759 356 759 L356 759 Z M344 708 C376 706 397 685 397 653 C397 610 355 570 311 570 C279 570 257 593 257 626 C257 669 300 710 344 708 L344 708 Z " />
<glyph glyph-name="ae" unicode="&#xe6;" horiz-adv-x="876" d="M728 154 C702 110 687 92 661 74 C630 52 588 39 546 39 C470 39 424 81 424 151 C424 168 428 198 433 226 L819 226 C826 263 829 296 829 324 C829 366 811 410 781 439 C750 470 702 486 642 486 C570 486 532 473 455 424 C432 451 419 461 400 468 C370 480 331 486 288 486 C159 486 52 423 52 346 C52 319 74 299 104 299 C142 299 173 326 173 359 C173 381 162 392 134 399 C183 431 216 442 264 442 C338 442 381 416 381 370 C381 352 373 328 361 313 C346 293 317 280 259 268 L189 254 C42 224 -29 169 -29 84 C-29 19 21 -18 109 -18 C145 -18 181 -12 215 1 C261 18 290 37 346 89 C364 53 377 35 396 21 C428 -3 479 -17 533 -17 C601 -17 656 1 704 38 C741 67 760 92 789 154 L728 154 Z M343 199 C330 137 308 103 267 75 C235 54 187 40 147 40 C96 40 67 61 67 97 C67 149 110 184 198 204 L249 216 C291 226 315 234 354 252 L343 199 Z M448 279 C466 337 480 363 506 389 C538 420 578 436 625 436 C694 436 734 401 734 341 C734 325 732 302 728 279 L448 279 Z " />
<glyph glyph-name="ccedilla" unicode="&#xe7;" horiz-adv-x="537" d="M410 175 C388 130 376 111 356 91 C322 59 275 41 226 41 C145 41 100 88 100 172 C100 231 118 294 149 342 C189 404 252 438 326 438 C354 438 383 432 405 421 C426 411 434 401 448 372 C400 364 377 344 377 309 C377 282 395 266 425 266 C475 266 513 306 513 359 C513 434 437 486 325 486 C149 486 2 341 2 167 C2 64 63 -2 171 -16 L154 -94 C172 -89 181 -88 193 -88 C221 -88 236 -99 236 -121 C236 -154 211 -174 168 -174 C132 -174 92 -160 57 -135 L30 -178 C80 -204 126 -217 170 -217 C251 -217 306 -174 306 -112 C306 -73 278 -49 232 -49 C223 -49 209 -50 195 -51 L202 -18 C330 -20 425 48 471 175 L410 175 Z " />
<glyph glyph-name="egrave" unicode="&#xe8;" horiz-adv-x="553" d="M404 154 C379 110 364 92 338 74 C306 52 264 39 222 39 C146 39 100 81 100 151 C100 167 104 198 109 226 L496 226 C503 263 506 297 506 323 C506 366 488 410 458 439 C427 470 378 486 314 486 C223 486 147 453 87 388 C34 331 2 247 2 169 C2 54 81 -17 209 -17 C277 -17 332 1 380 38 C418 67 436 92 466 154 L404 154 Z M124 279 C143 338 156 363 183 390 C215 422 255 437 303 437 C371 437 411 402 411 341 C411 326 409 302 405 279 L124 279 Z M378 540 L275 686 C261 705 245 716 230 716 C207 716 184 693 184 669 C184 656 193 644 215 629 L342 540 L378 540 Z " />
<glyph glyph-name="eacute" unicode="&#xe9;" horiz-adv-x="552" d="M404 154 C379 110 364 92 338 74 C306 52 264 39 222 39 C146 39 100 81 100 151 C100 167 104 198 109 226 L496 226 C503 263 506 297 506 323 C506 366 488 410 458 439 C427 470 378 486 314 486 C223 486 147 453 87 388 C34 331 2 247 2 169 C2 54 81 -17 209 -17 C277 -17 332 1 380 38 C418 67 436 92 466 154 L404 154 Z M124 279 C143 338 156 363 183 390 C215 422 255 437 303 437 C371 437 411 402 411 341 C411 326 409 302 405 279 L124 279 Z M254 540 L290 540 L454 629 C493 650 506 664 506 684 C506 702 494 715 477 715 C461 715 439 704 419 686 L254 540 Z " />
<glyph glyph-name="ecircumflex" unicode="&#xea;" horiz-adv-x="553" d="M404 154 C379 110 364 92 338 74 C306 52 264 39 222 39 C146 39 100 81 100 151 C100 167 104 198 109 226 L496 226 C503 263 506 297 506 323 C506 366 488 410 458 439 C427 470 378 486 314 486 C223 486 147 453 87 388 C34 331 2 247 2 169 C2 54 81 -17 209 -17 C277 -17 332 1 380 38 C418 67 436 92 466 154 L404 154 Z M124 279 C143 338 156 363 183 390 C215 422 255 437 303 437 C371 437 411 402 411 341 C411 326 409 302 405 279 L124 279 Z M177 540 L212 540 L340 635 L427 540 L463 540 L388 709 L323 709 L177 540 Z " />
<glyph glyph-name="edieresis" unicode="&#xeb;" horiz-adv-x="553" d="M404 154 C379 110 364 92 338 74 C306 52 264 39 222 39 C146 39 100 81 100 151 C100 167 104 198 109 226 L496 226 C503 263 506 297 506 323 C506 366 488 410 458 439 C427 470 378 486 314 486 C223 486 147 453 87 388 C34 331 2 247 2 169 C2 54 81 -17 209 -17 C277 -17 332 1 380 38 C418 67 436 92 466 154 L404 154 Z M124 279 C143 338 156 363 183 390 C215 422 255 437 303 437 C371 437 411 402 411 341 C411 326 409 302 405 279 L124 279 Z M253 674 C217 674 183 643 183 609 C183 582 201 565 229 565 C263 565 295 596 295 630 C295 655 277 674 253 674 L253 674 Z M448 674 C413 674 379 643 379 609 C379 582 397 565 424 565 C458 565 490 596 490 630 C490 655 472 674 448 674 L448 674 Z " />
<glyph glyph-name="igrave" unicode="&#xec;" horiz-adv-x="344" d="M-40 0 L246 0 L256 48 L228 48 C185 48 168 56 168 77 C168 84 169 95 172 105 L249 469 L60 469 L49 421 L83 421 C125 421 142 413 142 392 C142 387 140 375 138 364 L83 105 C74 58 61 50 4 48 L-30 48 L-40 0 Z M240 540 L196 675 C187 703 175 715 156 715 C132 715 112 696 112 673 C112 660 113 659 139 628 L208 540 L240 540 Z " />
<glyph glyph-name="iacute" unicode="&#xed;" horiz-adv-x="364" d="M-40 0 L246 0 L256 48 L228 48 C185 48 168 56 168 77 C168 84 169 95 172 105 L249 469 L60 469 L49 421 L83 421 C125 421 142 413 142 392 C142 387 140 375 138 364 L83 105 C74 58 61 50 4 48 L-30 48 L-40 0 Z M153 540 L185 540 L292 628 C337 663 342 669 342 689 C342 704 330 715 314 715 C293 715 276 704 255 675 L153 540 Z " />
<glyph glyph-name="icircumflex" unicode="&#xee;" horiz-adv-x="338" d="M-46 0 L240 0 L250 48 L222 48 C179 48 162 56 162 77 C162 84 163 95 166 105 L243 469 L54 469 L43 421 L77 421 C119 421 136 413 136 392 C136 387 134 375 132 364 L77 105 C68 58 55 50 -2 48 L-36 48 L-46 0 Z M66 540 L100 540 L216 635 L292 540 L325 540 L264 709 L199 709 L66 540 Z " />
<glyph glyph-name="idieresis" unicode="&#xef;" horiz-adv-x="342" d="M-42 0 L244 0 L254 48 L226 48 C183 48 166 56 166 77 C166 84 167 95 170 105 L247 469 L58 469 L47 421 L81 421 C123 421 140 413 140 392 C140 387 138 375 136 364 L81 105 C72 58 59 50 2 48 L-32 48 L-42 0 Z M157 674 C120 674 87 643 87 609 C87 582 105 565 133 565 C167 565 199 596 199 630 C199 655 181 674 157 674 L157 674 Z M324 674 C289 674 255 642 255 609 C255 582 273 565 300 565 C334 565 366 596 366 630 C366 655 348 674 324 674 L324 674 Z " />
<glyph glyph-name="eth" unicode="&#xf0;" horiz-adv-x="605" d="M326 667 C345 637 350 629 363 606 L282 578 L297 537 L379 567 C403 519 410 504 420 474 C387 483 364 486 334 486 C247 486 159 451 95 390 C37 334 4 255 4 172 C4 61 96 -17 227 -17 C315 -17 402 18 466 79 C525 135 557 212 557 295 C557 373 522 463 441 591 L532 622 L517 663 L416 630 C402 647 400 650 385 667 L326 667 Z M324 435 C413 435 462 388 462 302 C462 239 441 169 408 121 C370 65 310 34 238 34 C148 34 100 81 100 168 C100 229 121 301 154 348 C192 404 252 435 324 435 L324 435 Z " />
<glyph glyph-name="ntilde" unicode="&#xf1;" horiz-adv-x="683" d="M-40 0 L247 0 L257 48 L224 48 C181 48 165 56 165 77 C165 84 166 95 168 105 L203 268 C214 319 233 352 271 384 C307 414 349 429 394 429 C452 429 479 405 479 352 C479 336 475 306 470 281 L432 105 C423 58 411 49 351 48 L317 48 L307 0 L588 0 L598 48 L574 48 C531 48 512 57 513 77 C513 84 515 93 517 105 L552 268 C561 312 567 352 567 372 C567 440 515 482 431 482 C392 482 353 474 318 457 C287 443 267 427 229 388 L246 469 L60 469 L49 421 L79 421 C121 421 138 412 138 392 C138 386 136 375 134 364 L79 105 C70 58 58 49 0 48 L-30 48 L-40 0 Z M527 694 C510 662 497 652 472 652 C465 652 458 653 451 655 L402 668 C390 671 377 673 369 673 C347 673 327 664 307 647 C285 627 272 607 252 560 L280 560 C298 593 312 604 334 604 C341 604 353 602 364 599 L413 586 C421 584 430 583 437 583 C486 583 520 615 555 694 L527 694 Z " />
<glyph glyph-name="ograve" unicode="&#xf2;" horiz-adv-x="605" d="M335 486 C247 486 158 450 95 390 C38 335 4 254 4 172 C4 61 96 -17 228 -17 C315 -17 403 18 467 79 C524 135 558 214 558 296 C558 408 466 486 335 486 L335 486 Z M324 435 C414 435 462 388 462 301 C462 239 441 168 408 121 C370 65 309 34 238 34 C149 34 100 81 100 167 C100 230 121 300 154 348 C192 404 252 435 324 435 L324 435 Z M404 540 L301 686 C288 704 271 715 256 715 C233 715 210 692 210 669 C210 656 219 645 241 629 L368 540 L404 540 Z " />
<glyph glyph-name="oacute" unicode="&#xf3;" horiz-adv-x="605" d="M335 486 C247 486 158 450 95 390 C38 335 4 254 4 172 C4 61 96 -17 228 -17 C315 -17 403 18 467 79 C524 135 558 214 558 296 C558 408 466 486 335 486 L335 486 Z M324 435 C414 435 462 388 462 301 C462 239 441 168 408 121 C370 65 309 34 238 34 C149 34 100 81 100 167 C100 230 121 300 154 348 C192 404 252 435 324 435 L324 435 Z M280 540 L316 540 L480 629 C519 650 532 664 532 684 C532 702 520 715 503 715 C487 715 465 704 445 686 L280 540 Z " />
<glyph glyph-name="ocircumflex" unicode="&#xf4;" horiz-adv-x="605" d="M335 486 C247 486 158 450 95 390 C38 335 4 254 4 172 C4 61 96 -17 228 -17 C315 -17 403 18 467 79 C524 135 558 214 558 296 C558 408 466 486 335 486 L335 486 Z M324 435 C414 435 462 388 462 301 C462 239 441 168 408 121 C370 65 309 34 238 34 C149 34 100 81 100 167 C100 230 121 300 154 348 C192 404 252 435 324 435 L324 435 Z M203 540 L239 540 L366 635 L453 540 L489 540 L414 709 L350 709 L203 540 Z " />
<glyph glyph-name="otilde" unicode="&#xf5;" horiz-adv-x="605" d="M335 486 C247 486 158 450 95 390 C38 335 4 254 4 172 C4 61 96 -17 228 -17 C315 -17 403 18 467 79 C524 135 558 214 558 296 C558 408 466 486 335 486 L335 486 Z M324 435 C414 435 462 388 462 301 C462 239 441 168 408 121 C370 65 309 34 238 34 C149 34 100 81 100 167 C100 230 121 300 154 348 C192 404 252 435 324 435 L324 435 Z M488 694 C471 662 458 652 433 652 C426 652 419 653 412 655 L363 668 C351 671 338 673 330 673 C308 673 288 664 268 647 C246 627 233 607 213 560 L241 560 C259 593 273 604 295 604 C302 604 314 602 325 599 L374 586 C382 584 391 583 398 583 C447 583 481 615 516 694 L488 694 Z " />
<glyph glyph-name="odieresis" unicode="&#xf6;" horiz-adv-x="605" d="M335 486 C247 486 158 450 95 390 C38 335 4 254 4 172 C4 61 96 -17 228 -17 C315 -17 403 18 467 79 C524 135 558 214 558 296 C558 408 466 486 335 486 L335 486 Z M324 435 C414 435 462 388 462 301 C462 239 441 168 408 121 C370 65 309 34 238 34 C149 34 100 81 100 167 C100 230 121 300 154 348 C192 404 252 435 324 435 L324 435 Z M280 674 C243 674 210 643 210 608 C210 582 228 565 256 565 C290 565 322 596 322 630 C322 655 304 674 280 674 L280 674 Z M475 674 C440 674 406 642 406 609 C406 582 424 565 451 565 C485 565 517 596 517 630 C517 655 499 674 475 674 L475 674 Z " />
<glyph glyph-name="divide" unicode="&#xf7;" horiz-adv-x="549" d="M273 126 C239 126 211 99 211 64 C211 30 238 2 273 2 C306 2 334 30 334 64 C334 98 306 126 273 126 L273 126 Z M273 525 C239 525 211 498 211 463 C211 429 238 401 273 401 C306 401 334 429 334 463 C334 497 306 525 273 525 L273 525 Z M10 294 L10 239 L536 239 L536 294 L10 294 Z " />
<glyph glyph-name="oslash" unicode="&#xf8;" horiz-adv-x="605" d="M-54 5 L-28 -26 L60 41 C114 -2 157 -17 226 -17 C407 -17 556 122 556 292 C556 328 549 352 526 398 L616 466 L590 497 L499 428 C444 472 404 486 335 486 C155 486 4 348 4 184 C4 149 11 123 34 73 L-54 5 Z M453 341 C457 319 460 299 460 290 C460 239 437 164 407 120 C370 64 309 33 239 33 C185 33 154 47 121 88 L453 341 Z M107 128 C101 151 98 171 98 179 C98 229 122 305 152 348 C190 404 250 435 319 435 C374 435 409 420 439 382 L107 128 Z " />
<glyph glyph-name="ugrave" unicode="&#xf9;" horiz-adv-x="678" d="M45 421 L67 421 C107 421 124 412 123 392 C123 385 121 375 119 364 L84 201 C75 157 69 117 69 98 C69 29 123 -13 210 -13 C250 -13 289 -5 325 11 C357 25 378 41 417 81 L400 0 L583 0 L593 48 L563 48 C521 48 502 57 503 77 C503 84 505 94 507 105 L585 469 L397 469 L387 421 L425 421 C465 421 481 413 481 392 C481 387 479 375 477 364 L443 201 C432 150 412 118 373 85 C336 55 293 40 246 40 C185 40 157 64 157 117 C157 132 161 163 167 188 L226 469 L55 469 L45 421 Z M441 540 L338 686 C325 705 308 716 293 716 C270 716 247 693 247 669 C247 656 256 644 278 629 L405 540 L441 540 Z " />
<glyph glyph-name="uacute" unicode="&#xfa;" horiz-adv-x="678" d="M45 421 L67 421 C107 421 124 412 123 392 C123 385 121 375 119 364 L84 201 C75 157 69 117 69 98 C69 29 123 -13 210 -13 C250 -13 289 -5 325 11 C357 25 378 41 417 81 L400 0 L583 0 L593 48 L563 48 C521 48 502 57 503 77 C503 84 505 94 507 105 L585 469 L397 469 L387 421 L425 421 C465 421 481 413 481 392 C481 387 479 375 477 364 L443 201 C432 150 412 118 373 85 C336 55 293 40 246 40 C185 40 157 64 157 117 C157 132 161 163 167 188 L226 469 L55 469 L45 421 Z M317 540 L353 540 L517 629 C556 650 569 664 569 684 C569 702 557 715 540 715 C524 715 503 704 482 686 L317 540 Z " />
<glyph glyph-name="ucircumflex" unicode="&#xfb;" horiz-adv-x="678" d="M45 421 L67 421 C107 421 124 412 123 392 C123 385 121 375 119 364 L84 201 C75 157 69 117 69 98 C69 29 123 -13 210 -13 C250 -13 289 -5 325 11 C357 25 378 41 417 81 L400 0 L583 0 L593 48 L563 48 C521 48 502 57 503 77 C503 84 505 94 507 105 L585 469 L397 469 L387 421 L425 421 C465 421 481 413 481 392 C481 387 479 375 477 364 L443 201 C432 150 412 118 373 85 C336 55 293 40 246 40 C185 40 157 64 157 117 C157 132 161 163 167 188 L226 469 L55 469 L45 421 Z M240 540 L276 540 L403 635 L490 540 L526 540 L451 709 L387 709 L240 540 Z " />
<glyph glyph-name="udieresis" unicode="&#xfc;" horiz-adv-x="678" d="M45 421 L67 421 C107 421 124 412 123 392 C123 385 121 375 119 364 L84 201 C75 157 69 117 69 98 C69 29 123 -13 210 -13 C250 -13 289 -5 325 11 C357 25 378 41 417 81 L400 0 L583 0 L593 48 L563 48 C521 48 502 57 503 77 C503 84 505 94 507 105 L585 469 L397 469 L387 421 L425 421 C465 421 481 413 481 392 C481 387 479 375 477 364 L443 201 C432 150 412 118 373 85 C336 55 293 40 246 40 C185 40 157 64 157 117 C157 132 161 163 167 188 L226 469 L55 469 L45 421 Z M304 674 C268 674 235 643 235 609 C235 582 253 565 280 565 C314 565 346 596 346 630 C346 655 328 674 304 674 L304 674 Z M500 674 C464 674 430 642 430 609 C430 582 448 565 476 565 C510 565 542 596 542 630 C542 655 524 674 500 674 L500 674 Z " />
<glyph glyph-name="yacute" unicode="&#xfd;" horiz-adv-x="594" d="M197 -3 C108 -132 72 -164 15 -164 C-12 -164 -23 -157 -38 -132 C12 -128 35 -109 35 -72 C35 -46 17 -30 -11 -30 C-60 -30 -100 -73 -100 -125 C-100 -179 -60 -214 1 -214 C50 -214 92 -198 132 -165 C169 -134 192 -104 287 38 L501 359 C536 411 547 419 584 421 L616 421 L626 469 L376 469 L366 421 L408 421 C443 421 456 416 456 404 C456 396 451 385 443 372 L266 103 L204 367 C202 375 201 383 201 391 C201 414 211 421 242 421 L287 421 L297 469 L31 469 L20 421 L48 421 C87 419 96 412 106 374 L197 -3 Z M275 540 L311 540 L475 629 C514 650 527 664 527 684 C527 702 515 715 498 715 C482 715 461 704 440 686 L275 540 Z " />
<glyph glyph-name="thorn" unicode="&#xfe;" horiz-adv-x="646" d="M144 78 C159 50 171 33 184 21 C210 -3 251 -16 300 -16 C457 -16 587 128 587 303 C587 414 518 484 408 484 C352 484 296 465 257 433 C243 422 234 413 211 390 L270 667 L85 667 L75 619 L104 619 C148 619 165 610 165 590 C165 584 163 572 161 562 L19 -109 C9 -156 -3 -164 -62 -166 L-86 -166 L-96 -214 L185 -214 L195 -166 L160 -166 C117 -166 100 -158 100 -137 C100 -131 102 -120 104 -109 L144 78 Z M378 426 C450 426 491 382 491 305 C491 246 472 176 443 130 C407 72 358 42 298 42 C217 42 170 91 170 175 C170 314 263 426 378 426 L378 426 Z " />
<glyph glyph-name="ydieresis" unicode="&#xff;" horiz-adv-x="594" d="M197 -3 C108 -132 72 -164 15 -164 C-12 -164 -23 -157 -38 -132 C12 -128 35 -109 35 -72 C35 -46 17 -30 -11 -30 C-60 -30 -100 -73 -100 -125 C-100 -179 -60 -214 1 -214 C50 -214 92 -198 132 -165 C169 -134 192 -104 287 38 L501 359 C536 411 547 419 584 421 L616 421 L626 469 L376 469 L366 421 L408 421 C443 421 456 416 456 404 C456 396 451 385 443 372 L266 103 L204 367 C202 375 201 383 201 391 C201 414 211 421 242 421 L287 421 L297 469 L31 469 L20 421 L48 421 C87 419 96 412 106 374 L197 -3 Z M274 674 C238 674 205 643 205 609 C205 582 222 565 250 565 C284 565 316 596 316 630 C316 655 298 674 274 674 L274 674 Z M469 674 C434 674 400 643 400 609 C400 582 418 565 445 565 C479 565 511 596 511 630 C511 655 493 674 469 674 L469 674 Z " />
<glyph glyph-name="Amacron" unicode="&#x100;" horiz-adv-x="735" d="M-92 0 L210 0 L222 53 L169 53 C121 53 107 57 107 72 C107 83 116 102 133 130 L192 223 L458 223 L478 110 C479 102 480 95 480 88 C480 61 465 53 413 53 L357 53 L346 0 L677 0 L689 53 L660 53 C609 54 593 67 585 114 L480 667 L393 667 L49 111 C20 64 2 54 -47 53 L-81 53 L-92 0 Z M224 276 L394 561 L447 276 L224 276 Z M328 738 L579 738 L593 803 L341 803 L328 738 Z " />
<glyph glyph-name="amacron" unicode="&#x101;" horiz-adv-x="579" d="M492 159 C467 62 453 38 419 38 C403 38 394 47 394 63 C394 69 396 82 399 95 L448 327 C453 350 456 374 456 388 C456 448 390 486 289 486 C169 486 62 421 62 347 C62 319 84 300 114 300 C153 300 184 326 184 359 C184 381 173 392 144 399 C192 430 224 441 268 441 C334 441 375 414 375 370 C375 353 367 329 355 314 C342 296 318 284 272 273 L185 251 C104 231 65 215 33 189 C0 162 -19 125 -19 84 C-19 20 30 -18 113 -18 C181 -18 234 3 313 61 C319 4 341 -17 396 -17 C475 -17 512 28 541 159 L492 159 Z M337 199 C324 137 302 103 260 74 C229 54 185 41 148 41 C103 41 77 62 77 97 C77 123 91 148 115 166 C136 182 151 188 201 203 L245 216 C278 225 290 230 348 253 L337 199 Z M212 585 L473 585 L488 653 L226 653 L212 585 Z " />
<glyph glyph-name="Abreve" unicode="&#x102;" horiz-adv-x="735" d="M-92 0 L210 0 L222 53 L169 53 C121 53 107 57 107 72 C107 83 116 102 133 130 L192 223 L458 223 L478 110 C479 102 480 95 480 88 C480 61 465 53 413 53 L357 53 L346 0 L677 0 L689 53 L660 53 C609 54 593 67 585 114 L480 667 L393 667 L49 111 C20 64 2 54 -47 53 L-81 53 L-92 0 Z M224 276 L394 561 L447 276 L224 276 Z M330 834 C330 789 335 768 351 748 C372 723 405 709 447 709 C489 709 530 723 560 748 C585 768 598 788 618 834 L586 834 C562 792 530 777 462 777 C394 777 368 792 361 834 L330 834 Z " />
<glyph glyph-name="abreve" unicode="&#x103;" horiz-adv-x="579" d="M492 159 C467 62 453 38 419 38 C403 38 394 47 394 63 C394 69 396 82 399 95 L448 327 C453 350 456 374 456 388 C456 448 390 486 289 486 C169 486 62 421 62 347 C62 319 84 300 114 300 C153 300 184 326 184 359 C184 381 173 392 144 399 C192 430 224 441 268 441 C334 441 375 414 375 370 C375 353 367 329 355 314 C342 296 318 284 272 273 L185 251 C104 231 65 215 33 189 C0 162 -19 125 -19 84 C-19 20 30 -18 113 -18 C181 -18 234 3 313 61 C319 4 341 -17 396 -17 C475 -17 512 28 541 159 L492 159 Z M337 199 C324 137 302 103 260 74 C229 54 185 41 148 41 C103 41 77 62 77 97 C77 123 91 148 115 166 C136 182 151 188 201 203 L245 216 C278 225 290 230 348 253 L337 199 Z M220 692 C220 656 222 638 227 623 C243 580 281 557 336 557 C379 557 419 571 450 597 C475 619 489 640 511 692 L479 692 C453 644 422 628 352 628 C282 628 257 644 251 692 L220 692 Z " />
<glyph glyph-name="Aogonek" unicode="&#x104;" horiz-adv-x="735" d="M677 0 L689 53 L660 53 C609 54 593 67 585 114 L480 667 L393 667 L49 111 C20 64 2 54 -47 53 L-81 53 L-92 0 L210 0 L222 53 L169 53 C120 53 107 57 107 72 C107 83 116 102 133 130 L192 223 L458 223 L478 110 C479 102 480 95 480 87 C480 61 464 53 413 53 L357 53 L346 0 L617 0 C527 -53 478 -109 478 -161 C478 -196 504 -217 546 -217 C594 -217 638 -191 674 -141 L661 -133 C635 -158 615 -168 589 -168 C564 -168 551 -154 551 -127 C551 -87 585 -42 646 0 L677 0 Z M224 276 L394 561 L447 276 L224 276 Z " />
<glyph glyph-name="aogonek" unicode="&#x105;" horiz-adv-x="579" d="M492 159 C467 60 453 37 419 37 C403 37 394 46 394 63 C394 69 396 82 399 95 L448 327 C453 351 456 374 456 390 C456 447 389 486 289 486 C169 486 62 421 62 347 C62 319 84 300 115 300 C153 300 184 327 184 359 C184 381 173 392 144 399 C192 430 224 441 268 441 C335 441 375 414 375 370 C375 353 367 329 355 314 C342 296 318 284 272 273 L185 251 C104 231 65 215 33 189 C-1 162 -19 125 -19 84 C-19 20 30 -18 112 -18 C181 -18 234 3 313 61 C318 9 334 -10 381 -17 C305 -68 270 -114 270 -162 C270 -196 295 -217 336 -217 C384 -217 429 -190 464 -141 L451 -133 C426 -158 405 -168 379 -168 C354 -168 341 -154 341 -128 C341 -89 369 -50 414 -26 C429 -17 445 -9 460 -1 C472 5 486 19 499 39 C518 68 525 90 541 159 L492 159 Z M337 199 C324 137 302 103 260 74 C229 54 185 41 148 41 C103 41 77 62 77 97 C77 123 91 148 115 166 C136 182 151 188 201 203 L245 216 C278 225 290 230 348 253 L337 199 Z " />
<glyph glyph-name="Cacute" unicode="&#x106;" horiz-adv-x="740" d="M606 243 C578 173 560 143 525 110 C476 65 413 41 341 41 C213 41 142 116 142 251 C142 335 169 421 219 493 C282 583 364 631 456 631 C566 631 645 556 645 452 L644 408 L697 408 L752 667 L704 667 L665 607 C586 670 543 687 466 687 C235 687 33 482 33 248 C33 176 54 116 96 68 C148 8 218 -20 320 -20 C421 -20 503 10 567 69 C615 113 637 152 668 243 L606 243 Z M415 706 L572 770 C601 782 614 797 614 818 C614 834 602 846 586 846 C574 846 557 839 542 827 L380 706 L415 706 Z " />
<glyph glyph-name="cacute" unicode="&#x107;" horiz-adv-x="537" d="M410 175 C389 130 376 111 356 91 C323 59 275 41 226 41 C145 41 100 88 100 172 C100 231 118 294 149 342 C189 404 252 438 326 438 C355 438 384 432 405 421 C426 411 435 401 448 372 C400 364 378 344 378 309 C378 282 396 266 426 266 C476 266 513 306 513 359 C513 434 437 486 325 486 C149 486 2 341 2 166 C2 52 80 -18 206 -18 C281 -18 339 3 389 47 C426 81 444 108 471 175 L410 175 Z M246 540 L282 540 L447 629 C486 650 499 664 499 684 C499 702 487 715 470 715 C454 715 432 704 411 686 L246 540 Z " />
<glyph glyph-name="Ccaron" unicode="&#x10c;" horiz-adv-x="740" d="M606 243 C578 173 560 143 525 110 C476 65 413 41 341 41 C213 41 142 116 142 251 C142 335 169 421 219 493 C282 583 364 631 456 631 C566 631 645 556 645 452 L644 408 L697 408 L752 667 L704 667 L665 607 C586 670 543 687 466 687 C235 687 33 482 33 248 C33 176 54 116 96 68 C148 8 218 -20 320 -20 C421 -20 503 10 567 69 C615 113 637 152 668 243 L606 243 Z M335 838 L413 706 L487 706 L620 838 L588 838 L463 767 L367 838 L335 838 Z " />
<glyph glyph-name="ccaron" unicode="&#x10d;" horiz-adv-x="537" d="M410 175 C389 130 376 111 356 91 C323 59 275 41 226 41 C145 41 100 88 100 172 C100 231 118 294 149 342 C189 404 252 438 326 438 C355 438 384 432 405 421 C426 411 435 401 448 372 C400 364 378 344 378 309 C378 282 396 266 426 266 C476 266 513 306 513 359 C513 434 437 486 325 486 C149 486 2 341 2 166 C2 52 80 -18 206 -18 C281 -18 339 3 389 47 C426 81 444 108 471 175 L410 175 Z M206 709 L280 540 L345 540 L491 709 L456 709 L328 614 L241 709 L206 709 Z " />
<glyph glyph-name="Dcaron" unicode="&#x10e;" horiz-adv-x="824" d="M-40 0 L297 0 C389 0 463 6 507 18 C568 35 630 72 676 121 C751 199 797 312 797 420 C797 497 774 556 728 599 C670 652 609 667 440 667 L102 667 L90 614 L135 614 C183 614 202 605 202 583 C202 577 200 562 195 541 L107 126 C95 63 85 55 16 53 L-29 53 L-40 0 Z M307 614 L429 614 C510 614 576 602 611 581 C661 550 691 493 691 426 C691 345 658 240 613 177 C554 93 454 53 308 53 L188 53 L307 614 Z M238 838 L316 706 L390 706 L524 838 L492 838 L366 767 L270 838 L238 838 Z " />
<glyph glyph-name="dcaron" unicode="&#x10f;" horiz-adv-x="641" d="M396 619 L430 619 C473 619 489 611 489 590 C489 583 488 572 485 562 L449 391 C434 419 422 437 409 449 C384 472 342 486 295 486 C138 486 8 341 8 166 C8 55 77 -15 186 -15 C264 -15 316 10 383 81 L366 0 L549 0 L559 48 L533 48 C490 48 474 56 474 77 C474 83 476 94 478 105 L597 667 L407 667 L396 619 Z M296 428 C376 428 423 379 423 295 C423 156 330 43 216 43 C145 43 104 87 104 164 C104 223 123 293 152 340 C187 398 236 428 296 428 L296 428 Z M615 449 C689 464 751 534 751 602 C751 636 729 658 695 658 C661 658 631 629 631 596 C631 578 647 563 667 563 C677 563 685 565 703 574 C696 529 663 491 622 481 L615 449 Z " />
<glyph glyph-name="Dcroat" unicode="&#x110;" horiz-adv-x="829" d="M-36 0 L301 0 C394 0 467 6 511 18 C572 35 634 72 680 121 C755 199 801 312 801 419 C801 497 778 556 732 599 C675 652 613 667 445 667 L106 667 L94 614 L139 614 C186 614 205 605 205 583 C205 576 202 558 199 541 L160 361 L11 361 L1 313 L150 313 L110 126 C98 63 89 55 19 53 L-25 53 L-36 0 Z M247 313 L449 313 L460 361 L257 361 L311 614 L433 614 C514 614 580 602 616 580 C665 550 695 493 695 426 C695 344 662 240 617 176 C558 93 458 53 312 53 L192 53 L247 313 Z " />
<glyph glyph-name="dcroat" unicode="&#x111;" horiz-adv-x="641" d="M579 579 L597 667 L407 667 L396 619 L430 619 C473 619 489 611 489 589 C489 586 489 584 488 579 L288 579 L279 536 L480 536 L449 391 C434 419 422 436 409 448 C384 472 342 485 294 485 C137 485 8 341 8 164 C8 55 77 -15 186 -15 C264 -15 316 10 383 81 L366 0 L549 0 L559 48 L533 48 C490 48 474 56 474 77 C474 83 476 94 478 105 L570 536 L631 536 L640 579 L579 579 Z M296 427 C376 427 423 378 423 295 C423 156 331 43 216 43 C145 43 104 87 104 163 C104 223 123 293 152 339 C187 397 236 427 296 427 L296 427 Z " />
<glyph glyph-name="Emacron" unicode="&#x112;" horiz-adv-x="777" d="M-40 0 L623 0 L681 271 L627 271 C581 88 547 57 392 53 L187 53 L245 323 L316 323 C385 323 410 307 410 266 C410 246 410 246 400 178 L453 178 L523 505 L469 505 C444 392 424 374 329 376 L256 376 L306 614 L498 614 C628 614 668 588 668 506 C668 482 666 461 658 416 L712 416 L765 667 L102 667 L90 614 L135 614 C182 614 201 605 201 583 C201 577 198 559 194 541 L106 126 C94 63 85 55 15 53 L-29 53 L-40 0 Z M348 738 L600 738 L614 803 L362 803 L348 738 Z " />
<glyph glyph-name="emacron" unicode="&#x113;" horiz-adv-x="553" d="M404 154 C379 110 364 92 338 74 C306 52 264 39 222 39 C146 39 100 81 100 151 C100 167 104 198 109 226 L496 226 C503 263 506 297 506 323 C506 366 488 410 458 439 C427 470 378 486 314 486 C223 486 147 453 87 388 C34 331 2 247 2 169 C2 54 81 -17 209 -17 C277 -17 332 1 380 38 C418 67 436 92 466 154 L404 154 Z M124 279 C143 338 156 363 183 390 C215 422 255 437 303 437 C371 437 411 402 411 341 C411 326 409 302 405 279 L124 279 Z M199 585 L460 585 L475 653 L213 653 L199 585 Z " />
<glyph glyph-name="Edotaccent" unicode="&#x116;" horiz-adv-x="777" d="M-40 0 L623 0 L681 271 L627 271 C581 88 547 57 392 53 L187 53 L245 323 L316 323 C385 323 410 307 410 266 C410 246 410 246 400 178 L453 178 L523 505 L469 505 C444 392 424 374 329 376 L256 376 L306 614 L498 614 C628 614 668 588 668 506 C668 482 666 461 658 416 L712 416 L765 667 L102 667 L90 614 L135 614 C182 614 201 605 201 583 C201 577 198 559 194 541 L106 126 C94 63 85 55 15 53 L-29 53 L-40 0 Z M495 824 C459 824 427 793 427 760 C427 734 444 717 470 717 C504 717 536 747 536 780 C536 805 518 824 495 824 L495 824 Z " />
<glyph glyph-name="edotaccent" unicode="&#x117;" horiz-adv-x="553" d="M404 154 C379 110 364 92 338 74 C306 52 264 39 222 39 C146 39 100 81 100 151 C100 167 104 198 109 226 L496 226 C503 263 506 297 506 323 C506 366 488 410 458 439 C427 470 378 486 314 486 C223 486 147 453 87 388 C34 331 2 247 2 169 C2 54 81 -17 209 -17 C277 -17 332 1 380 38 C418 67 436 92 466 154 L404 154 Z M124 279 C143 338 156 363 183 390 C215 422 255 437 303 437 C371 437 411 402 411 341 C411 326 409 302 405 279 L124 279 Z M351 677 C313 677 278 644 278 608 C278 580 296 562 324 562 C361 562 395 594 395 630 C395 656 375 677 351 677 L351 677 Z " />
<glyph glyph-name="Eogonek" unicode="&#x118;" horiz-adv-x="777" d="M623 0 L681 271 L627 271 C581 88 547 57 392 53 L187 53 L245 323 L316 323 C385 323 410 307 410 266 C410 246 410 246 400 178 L453 178 L523 505 L469 505 C444 392 424 374 329 376 L256 376 L306 614 L498 614 C629 614 668 589 668 504 C668 482 665 460 658 416 L712 416 L765 667 L102 667 L90 614 L135 614 C180 614 201 605 201 585 C201 577 199 561 194 541 L106 126 C94 63 85 55 15 53 L-29 53 L-40 0 L550 0 C460 -52 411 -109 411 -161 C411 -196 437 -217 479 -217 C526 -217 571 -191 607 -141 L593 -133 C568 -158 548 -168 522 -168 C497 -168 484 -154 484 -127 C484 -87 518 -41 579 0 L623 0 Z " />
<glyph glyph-name="eogonek" unicode="&#x119;" horiz-adv-x="553" d="M404 154 C379 110 364 92 338 74 C306 52 264 39 222 39 C146 39 100 81 100 151 C100 167 104 198 109 226 L496 226 C503 263 506 297 506 324 C506 366 488 410 458 439 C427 470 378 486 314 486 C223 486 147 453 87 388 C34 330 2 248 2 167 C2 53 81 -16 211 -17 L222 -17 L225 -17 C149 -68 114 -114 114 -162 C114 -196 139 -217 181 -217 C228 -217 273 -190 309 -141 L295 -133 C270 -158 249 -168 223 -168 C198 -168 185 -154 185 -128 C185 -106 195 -81 214 -59 C235 -34 250 -25 302 -4 C393 34 423 64 466 154 L404 154 Z M124 279 C143 338 156 363 183 390 C215 422 255 437 303 437 C371 437 411 402 411 341 C411 326 409 302 405 279 L124 279 Z " />
<glyph glyph-name="Ecaron" unicode="&#x11a;" horiz-adv-x="777" d="M-40 0 L623 0 L681 271 L627 271 C581 88 547 57 392 53 L187 53 L245 323 L316 323 C385 323 410 307 410 266 C410 246 410 246 400 178 L453 178 L523 505 L469 505 C444 392 424 374 329 376 L256 376 L306 614 L498 614 C628 614 668 588 668 506 C668 482 666 461 658 416 L712 416 L765 667 L102 667 L90 614 L135 614 C182 614 201 605 201 583 C201 577 198 559 194 541 L106 126 C94 63 85 55 15 53 L-29 53 L-40 0 Z M353 838 L430 706 L504 706 L638 838 L606 838 L480 767 L384 838 L353 838 Z " />
<glyph glyph-name="ecaron" unicode="&#x11b;" horiz-adv-x="553" d="M404 154 C379 110 364 92 338 74 C306 52 264 39 222 39 C146 39 100 81 100 151 C100 167 104 198 109 226 L496 226 C503 263 506 297 506 323 C506 366 488 410 458 439 C427 470 378 486 314 486 C223 486 147 453 87 388 C34 331 2 247 2 169 C2 54 81 -17 209 -17 C277 -17 332 1 380 38 C418 67 436 92 466 154 L404 154 Z M124 279 C143 338 156 363 183 390 C215 422 255 437 303 437 C371 437 411 402 411 341 C411 326 409 302 405 279 L124 279 Z M213 709 L287 540 L352 540 L499 709 L463 709 L336 614 L248 709 L213 709 Z " />
<glyph glyph-name="Gbreve" unicode="&#x11e;" horiz-adv-x="813" d="M624 -7 L675 232 C686 283 696 290 763 289 L804 289 L816 342 L464 342 L452 289 L510 289 C567 289 581 283 581 257 C581 247 580 240 579 232 L570 191 C562 156 548 131 524 108 C481 68 404 41 332 41 C212 41 138 114 138 232 C138 323 167 424 213 494 C271 581 358 631 450 631 C512 631 566 607 601 565 C631 529 641 495 647 421 L701 421 L753 667 L706 667 L657 602 C583 670 543 687 458 687 C342 687 233 638 155 553 C77 468 31 351 31 242 C31 79 134 -19 305 -19 C388 -19 441 -3 548 56 L572 -7 L624 -7 Z M369 834 C369 789 374 768 391 748 C411 723 444 709 486 709 C528 709 569 723 599 748 C624 768 637 788 657 834 L625 834 C601 792 569 777 501 777 C433 777 407 792 400 834 L369 834 Z " />
<glyph glyph-name="gbreve" unicode="&#x11f;" horiz-adv-x="678" d="M162 60 C100 60 75 69 75 91 C75 117 109 147 139 147 C142 147 147 146 152 145 C211 128 212 128 249 128 C323 128 396 151 442 189 C485 224 517 288 517 338 C517 350 512 372 504 397 C543 433 565 444 599 444 C616 444 621 441 631 427 C590 420 569 400 569 370 C569 347 587 331 613 331 C654 331 690 372 690 419 C690 460 659 486 609 486 C565 486 538 474 485 432 C432 472 391 486 322 486 C175 486 63 393 63 272 C63 233 73 211 105 176 C22 137 -4 110 -4 63 C-4 30 14 11 60 -4 C8 -17 -14 -28 -36 -52 C-52 -70 -62 -92 -62 -112 C-62 -130 -55 -145 -41 -161 C-7 -197 62 -214 173 -214 C296 -214 386 -194 433 -157 C471 -127 494 -85 494 -43 C494 26 437 60 323 60 L162 60 Z M316 439 C384 439 425 406 425 351 C425 314 411 267 392 239 C365 201 318 180 261 180 C192 180 155 210 155 266 C155 368 221 439 316 439 L316 439 Z M256 -20 C364 -21 400 -34 400 -74 C400 -133 320 -164 167 -164 C76 -164 29 -143 29 -102 C29 -48 88 -20 198 -20 L256 -20 Z M219 692 C219 656 221 638 226 623 C241 580 280 557 335 557 C378 557 418 571 449 597 C474 619 488 640 510 692 L478 692 C452 644 421 628 351 628 C281 628 256 644 250 692 L219 692 Z " />
<glyph glyph-name="Gcommaaccent" unicode="&#x122;" horiz-adv-x="813" d="M624 -7 L675 232 C686 283 696 290 763 289 L804 289 L816 342 L464 342 L452 289 L510 289 C567 289 581 283 581 257 C581 247 580 240 579 232 L570 191 C562 156 548 131 524 108 C481 68 404 41 332 41 C212 41 138 114 138 232 C138 323 167 424 213 494 C271 581 358 631 450 631 C512 631 566 607 601 565 C631 529 641 495 647 421 L701 421 L753 667 L706 667 L657 602 C583 670 543 687 458 687 C342 687 233 638 155 553 C77 468 31 351 31 242 C31 79 134 -19 305 -19 C388 -19 441 -3 548 56 L572 -7 L624 -7 Z M214 -266 C289 -250 350 -180 350 -112 C350 -78 328 -56 294 -56 C260 -56 230 -85 230 -118 C230 -137 246 -152 266 -152 C277 -152 285 -149 302 -141 C295 -186 262 -223 221 -234 L214 -266 Z " />
<glyph glyph-name="gcommaaccent" unicode="&#x123;" horiz-adv-x="678" d="M162 60 C100 60 75 69 75 91 C75 117 109 147 139 147 C142 147 147 146 152 145 C211 128 212 128 249 128 C323 128 396 151 442 189 C485 224 517 288 517 338 C517 350 512 372 504 397 C543 433 565 444 599 444 C616 444 621 441 631 427 C590 420 569 400 569 370 C569 347 587 331 613 331 C654 331 690 372 690 419 C690 460 659 486 609 486 C565 486 538 474 485 432 C432 472 391 486 322 486 C175 486 63 393 63 272 C63 233 73 211 105 176 C22 137 -4 110 -4 63 C-4 30 14 11 60 -4 C8 -17 -14 -28 -36 -52 C-52 -70 -62 -92 -62 -112 C-62 -130 -55 -145 -41 -161 C-7 -197 62 -214 173 -214 C296 -214 386 -194 433 -157 C471 -127 494 -85 494 -43 C494 26 437 60 323 60 L162 60 Z M316 439 C384 439 425 406 425 351 C425 314 411 267 392 239 C365 201 318 180 261 180 C192 180 155 210 155 266 C155 368 221 439 316 439 L316 439 Z M256 -20 C364 -21 400 -34 400 -74 C400 -133 320 -164 167 -164 C76 -164 29 -143 29 -102 C29 -48 88 -20 198 -20 L256 -20 Z M424 735 C349 719 288 649 288 581 C288 547 310 525 344 525 C378 525 408 554 408 587 C408 606 392 621 372 621 C361 621 353 618 335 610 C343 655 375 692 417 703 L424 735 Z " />
<glyph glyph-name="Imacron" unicode="&#x12a;" horiz-adv-x="407" d="M-40 0 L305 0 L316 53 L268 53 C220 53 201 62 201 84 C201 90 203 101 208 126 L296 541 C308 604 318 612 387 614 L435 614 L446 667 L102 667 L90 614 L139 614 C186 614 205 605 205 583 C205 577 202 559 198 541 L110 126 C98 63 88 55 19 53 L-29 53 L-40 0 Z M163 738 L415 738 L429 803 L177 803 L163 738 Z " />
<glyph glyph-name="imacron" unicode="&#x12b;" horiz-adv-x="344" d="M-40 0 L246 0 L256 48 L228 48 C185 48 168 56 168 77 C168 84 169 95 172 105 L249 469 L60 469 L49 421 L83 421 C125 421 142 413 142 392 C142 387 140 375 138 364 L83 105 C74 58 61 50 4 48 L-30 48 L-40 0 Z M94 585 L356 585 L370 653 L109 653 L94 585 Z " />
<glyph glyph-name="Iogonek" unicode="&#x12e;" horiz-adv-x="407" d="M236 0 C146 -53 97 -109 97 -161 C97 -196 123 -217 165 -217 C213 -217 257 -191 293 -141 L280 -133 C254 -158 234 -168 208 -168 C183 -168 170 -154 170 -127 C170 -87 204 -42 265 0 L305 0 L316 53 L268 53 C222 53 201 62 201 82 C201 88 204 106 208 126 L296 541 C308 604 318 612 387 614 L435 614 L446 667 L102 667 L90 614 L139 614 C184 614 205 605 205 585 C205 577 203 561 198 541 L110 126 C98 63 88 55 19 53 L-29 53 L-40 0 L236 0 Z " />
<glyph glyph-name="iogonek" unicode="&#x12f;" horiz-adv-x="344" d="M246 0 L256 48 L228 48 C185 48 168 56 168 77 C168 84 169 95 172 105 L249 469 L60 469 L49 421 L83 421 C125 421 142 413 142 392 C142 387 140 375 138 364 L83 105 C74 58 61 50 4 48 L-30 48 L-40 0 L203 0 C106 -53 50 -114 50 -169 C50 -204 76 -225 118 -225 C165 -225 210 -199 246 -149 L233 -141 C207 -166 187 -176 161 -176 C136 -176 123 -162 123 -135 C123 -92 161 -44 230 0 L246 0 Z M237 675 C200 675 166 642 166 607 C166 581 185 562 210 562 C247 562 281 595 281 630 C281 656 262 675 237 675 L237 675 Z " />
<glyph glyph-name="Idotaccent" unicode="&#x130;" horiz-adv-x="407" d="M-40 0 L305 0 L316 53 L268 53 C220 53 201 62 201 84 C201 90 203 101 208 126 L296 541 C308 604 318 612 387 614 L435 614 L446 667 L102 667 L90 614 L139 614 C186 614 205 605 205 583 C205 577 202 559 198 541 L110 126 C98 63 88 55 19 53 L-29 53 L-40 0 Z M310 824 C274 824 242 793 242 760 C242 734 259 717 285 717 C319 717 351 747 351 780 C351 805 333 824 310 824 L310 824 Z " />
<glyph glyph-name="dotlessi" unicode="&#x131;" horiz-adv-x="344" d="M-40 0 L246 0 L256 48 L228 48 C185 48 168 56 168 77 C168 84 169 95 172 105 L249 469 L60 469 L49 421 L83 421 C125 421 142 413 142 392 C142 387 140 375 138 364 L83 105 C74 58 61 50 4 48 L-30 48 L-40 0 Z " />
<glyph glyph-name="Kcommaaccent" unicode="&#x136;" horiz-adv-x="803" d="M315 53 L263 53 C215 53 196 62 196 84 C196 91 198 105 203 126 L226 237 L349 323 L501 121 C525 89 527 85 527 77 C527 61 511 53 482 53 L402 53 L391 0 L771 0 L782 53 L750 53 C692 56 672 66 641 111 L436 384 L645 536 C733 597 767 611 822 614 L864 614 L875 667 L525 667 L514 614 L566 614 C600 614 615 608 615 597 C615 588 606 577 590 565 L244 318 L291 541 C303 604 313 612 382 614 L434 614 L446 667 L102 667 L90 614 L135 614 C182 614 201 605 201 583 C201 576 198 559 194 541 L106 126 C94 63 85 55 15 53 L-29 53 L-40 0 L304 0 L315 53 Z M230 -266 C305 -250 366 -180 366 -112 C366 -78 344 -56 310 -56 C276 -56 246 -85 246 -118 C246 -137 262 -152 282 -152 C293 -152 301 -149 319 -141 C311 -186 279 -223 237 -234 L230 -266 Z " />
<glyph glyph-name="kcommaaccent" unicode="&#x137;" horiz-adv-x="667" d="M182 229 L275 667 L97 667 L86 619 L115 619 C158 619 175 610 175 589 C175 582 174 572 172 562 L75 105 C65 58 53 50 -6 48 L-35 48 L-45 0 L226 0 L236 48 L213 48 C169 48 152 56 152 77 C152 83 154 94 156 105 L169 165 L270 228 L375 89 C380 83 383 75 383 70 C383 56 359 48 319 48 L292 48 L281 0 L580 0 L590 48 L575 48 C534 49 503 64 481 93 L345 276 L499 377 C551 411 583 421 626 420 L642 420 L652 469 L345 469 L334 420 L382 420 C420 420 435 416 435 406 C435 396 421 382 395 365 L182 229 Z M163 -266 C237 -250 299 -180 299 -112 C299 -78 277 -56 243 -56 C209 -56 179 -85 179 -118 C179 -137 195 -152 215 -152 C225 -152 233 -149 251 -141 C244 -186 211 -223 170 -234 L163 -266 Z " />
<glyph glyph-name="Lacute" unicode="&#x139;" horiz-adv-x="714" d="M102 667 L90 614 L135 614 C182 614 201 605 201 583 C201 576 198 559 194 541 L106 126 C94 62 85 55 15 53 L-29 53 L-40 0 L600 0 L659 277 L605 277 C566 91 524 54 356 53 L187 53 L291 541 C303 604 313 612 382 614 L434 614 L446 667 L102 667 Z M401 706 L558 770 C586 782 600 797 600 818 C600 834 588 846 572 846 C560 846 544 839 528 827 L367 706 L401 706 Z " />
<glyph glyph-name="lacute" unicode="&#x13a;" horiz-adv-x="334" d="M282 667 L97 667 L86 619 L116 619 C160 619 177 611 177 590 C177 585 175 573 173 562 L76 105 C66 58 54 50 -5 48 L-35 48 L-45 0 L240 0 L250 48 L219 48 C176 48 159 56 159 77 C159 85 160 95 162 105 L282 667 Z M198 713 L234 713 L399 802 C437 823 450 837 450 857 C450 875 438 888 421 888 C405 888 384 877 363 859 L198 713 Z " />
<glyph glyph-name="Lcommaaccent" unicode="&#x13b;" horiz-adv-x="714" d="M102 667 L90 614 L135 614 C182 614 201 605 201 583 C201 576 198 559 194 541 L106 126 C94 62 85 55 15 53 L-29 53 L-40 0 L600 0 L659 277 L605 277 C566 91 524 54 356 53 L187 53 L291 541 C303 604 313 612 382 614 L434 614 L446 667 L102 667 Z M186 -266 C260 -250 322 -180 322 -112 C322 -78 300 -56 266 -56 C232 -56 202 -85 202 -118 C202 -137 218 -152 238 -152 C249 -152 257 -149 274 -141 C267 -186 234 -223 193 -234 L186 -266 Z " />
<glyph glyph-name="lcommaaccent" unicode="&#x13c;" horiz-adv-x="334" d="M282 667 L97 667 L86 619 L116 619 C160 619 177 611 177 590 C177 585 175 573 173 562 L76 105 C66 58 54 50 -5 48 L-35 48 L-45 0 L240 0 L250 48 L219 48 C176 48 159 56 159 77 C159 85 160 95 162 105 L282 667 Z M-4 -266 C70 -250 132 -180 132 -112 C132 -78 110 -56 76 -56 C42 -56 12 -85 12 -118 C12 -137 28 -152 48 -152 C58 -152 67 -149 84 -141 C77 -186 44 -223 3 -234 L-4 -266 Z " />
<glyph glyph-name="Lcaron" unicode="&#x13d;" horiz-adv-x="714" d="M102 667 L90 614 L135 614 C182 614 201 605 201 583 C201 576 198 559 194 541 L106 126 C94 62 85 55 15 53 L-29 53 L-40 0 L600 0 L659 277 L605 277 C566 91 524 54 356 53 L187 53 L291 541 C303 604 313 612 382 614 L434 614 L446 667 L102 667 Z M504 472 C578 487 640 557 640 625 C640 659 618 681 584 681 C549 681 519 652 519 619 C519 601 536 586 555 586 C566 586 574 588 592 597 C585 551 552 514 510 504 L504 472 Z " />
<glyph glyph-name="lcaron" unicode="&#x13e;" horiz-adv-x="334" d="M282 667 L97 667 L86 619 L116 619 C160 619 177 611 177 590 C177 585 175 573 173 562 L76 105 C66 58 54 50 -5 48 L-35 48 L-45 0 L240 0 L250 48 L219 48 C176 48 159 56 159 77 C159 85 160 95 162 105 L282 667 Z M316 462 C390 478 452 548 452 616 C452 650 430 672 396 672 C362 672 332 643 332 610 C332 592 348 577 368 577 C378 577 386 579 404 588 C397 542 364 505 322 495 L316 462 Z " />
<glyph glyph-name="Lslash" unicode="&#x141;" horiz-adv-x="720" d="M139 266 L109 126 C97 63 87 55 18 53 L-26 53 L-37 0 L603 0 L662 277 L608 277 C569 91 527 54 359 53 L190 53 L245 311 L471 441 L483 497 L257 367 L294 541 C306 604 316 612 385 614 L437 614 L449 667 L105 667 L93 614 L138 614 C185 614 204 605 204 583 C204 576 201 559 197 541 L151 323 L-18 225 L-30 169 L139 266 Z " />
<glyph glyph-name="lslash" unicode="&#x142;" horiz-adv-x="344" d="M119 300 L78 105 C68 58 56 50 -2 48 L-31 48 L-41 0 L244 0 L254 48 L223 48 C179 48 161 57 162 77 C162 84 164 94 166 105 L216 338 L362 423 L373 476 L227 392 L286 667 L101 667 L90 619 L119 619 C162 619 180 610 179 590 C179 583 177 573 175 562 L130 353 L-7 273 L-19 219 L119 300 Z " />
<glyph glyph-name="Nacute" unicode="&#x143;" horiz-adv-x="866" d="M660 -3 L775 541 C787 604 797 612 866 614 L900 614 L912 667 L605 667 L593 614 L649 614 C696 614 715 605 715 583 C715 577 712 560 708 541 L621 131 L335 667 L102 667 L90 614 L132 614 C179 614 198 605 198 583 C198 577 195 561 191 541 L103 126 C91 63 81 55 13 53 L-29 53 L-40 0 L271 0 L283 53 L229 53 C182 53 163 62 163 84 C163 90 165 105 170 126 L266 577 L574 -3 L660 -3 Z M477 706 L633 770 C663 782 676 797 676 818 C676 834 664 846 648 846 C636 846 619 839 604 827 L442 706 L477 706 Z " />
<glyph glyph-name="nacute" unicode="&#x144;" horiz-adv-x="683" d="M-40 0 L247 0 L257 48 L224 48 C181 48 165 56 165 77 C165 84 166 95 168 105 L203 268 C214 319 233 352 271 384 C307 414 349 429 394 429 C452 429 479 405 479 352 C479 336 475 306 470 281 L432 105 C423 58 411 49 351 48 L317 48 L307 0 L588 0 L598 48 L574 48 C531 48 512 57 513 77 C513 84 515 93 517 105 L552 268 C561 312 567 352 567 372 C567 440 515 482 431 482 C392 482 353 474 318 457 C287 443 267 427 229 388 L246 469 L60 469 L49 421 L79 421 C121 421 138 412 138 392 C138 386 136 375 134 364 L79 105 C70 58 58 49 0 48 L-30 48 L-40 0 Z M319 540 L355 540 L519 629 C558 650 571 664 571 684 C571 702 559 715 542 715 C526 715 504 704 484 686 L319 540 Z " />
<glyph glyph-name="Ncommaaccent" unicode="&#x145;" horiz-adv-x="866" d="M660 -3 L775 541 C787 604 797 612 866 614 L900 614 L912 667 L605 667 L593 614 L649 614 C696 614 715 605 715 583 C715 577 712 560 708 541 L621 131 L335 667 L102 667 L90 614 L132 614 C179 614 198 605 198 583 C198 577 195 561 191 541 L103 126 C91 63 81 55 13 53 L-29 53 L-40 0 L271 0 L283 53 L229 53 C182 53 163 62 163 84 C163 90 165 105 170 126 L266 577 L574 -3 L660 -3 Z M262 -266 C336 -250 398 -180 398 -112 C398 -78 375 -56 342 -56 C307 -56 277 -85 277 -118 C277 -137 293 -152 313 -152 C324 -152 332 -149 350 -141 C343 -186 310 -223 268 -234 L262 -266 Z " />
<glyph glyph-name="ncommaaccent" unicode="&#x146;" horiz-adv-x="683" d="M-40 0 L247 0 L257 48 L224 48 C181 48 165 56 165 77 C165 84 166 95 168 105 L203 268 C214 319 233 352 271 384 C307 414 349 429 394 429 C452 429 479 405 479 352 C479 336 475 306 470 281 L432 105 C423 58 411 49 351 48 L317 48 L307 0 L588 0 L598 48 L574 48 C531 48 512 57 513 77 C513 84 515 93 517 105 L552 268 C561 312 567 352 567 372 C567 440 515 482 431 482 C392 482 353 474 318 457 C287 443 267 427 229 388 L246 469 L60 469 L49 421 L79 421 C121 421 138 412 138 392 C138 386 136 375 134 364 L79 105 C70 58 58 49 0 48 L-30 48 L-40 0 Z M170 -266 C245 -250 306 -180 306 -112 C306 -78 284 -56 250 -56 C216 -56 186 -85 186 -118 C186 -137 202 -152 222 -152 C233 -152 241 -149 259 -141 C251 -186 219 -223 177 -234 L170 -266 Z " />
<glyph glyph-name="Ncaron" unicode="&#x147;" horiz-adv-x="866" d="M660 -3 L775 541 C787 604 797 612 866 614 L900 614 L912 667 L605 667 L593 614 L649 614 C696 614 715 605 715 583 C715 577 712 560 708 541 L621 131 L335 667 L102 667 L90 614 L132 614 C179 614 198 605 198 583 C198 577 195 561 191 541 L103 126 C91 63 81 55 13 53 L-29 53 L-40 0 L271 0 L283 53 L229 53 C182 53 163 62 163 84 C163 90 165 105 170 126 L266 577 L574 -3 L660 -3 Z M397 838 L474 706 L548 706 L682 838 L650 838 L524 767 L429 838 L397 838 Z " />
<glyph glyph-name="ncaron" unicode="&#x148;" horiz-adv-x="683" d="M-40 0 L247 0 L257 48 L224 48 C181 48 165 56 165 77 C165 84 166 95 168 105 L203 268 C214 319 233 352 271 384 C307 414 349 429 394 429 C452 429 479 405 479 352 C479 336 475 306 470 281 L432 105 C423 58 411 49 351 48 L317 48 L307 0 L588 0 L598 48 L574 48 C531 48 512 57 513 77 C513 84 515 93 517 105 L552 268 C561 312 567 352 567 372 C567 440 515 482 431 482 C392 482 353 474 318 457 C287 443 267 427 229 388 L246 469 L60 469 L49 421 L79 421 C121 421 138 412 138 392 C138 386 136 375 134 364 L79 105 C70 58 58 49 0 48 L-30 48 L-40 0 Z M278 709 L353 540 L417 540 L564 709 L528 709 L401 614 L314 709 L278 709 Z " />
<glyph glyph-name="Omacron" unicode="&#x14c;" horiz-adv-x="834" d="M493 687 C244 687 34 490 34 256 C34 90 156 -19 343 -19 C590 -19 801 179 801 410 C801 577 679 687 493 687 L493 687 Z M481 632 C612 632 695 550 695 422 C695 339 667 245 622 181 C558 89 460 36 355 36 C224 36 140 117 140 244 C140 461 290 632 481 632 L481 632 Z M377 738 L629 738 L643 803 L391 803 L377 738 Z " />
<glyph glyph-name="omacron" unicode="&#x14d;" horiz-adv-x="605" d="M335 486 C247 486 158 450 95 390 C38 335 4 254 4 172 C4 61 96 -17 228 -17 C315 -17 403 18 467 79 C524 135 558 214 558 296 C558 408 466 486 335 486 L335 486 Z M324 435 C414 435 462 388 462 301 C462 239 441 168 408 121 C370 65 309 34 238 34 C149 34 100 81 100 167 C100 230 121 300 154 348 C192 404 252 435 324 435 L324 435 Z M225 585 L486 585 L501 653 L239 653 L225 585 Z " />
<glyph glyph-name="Ohungarumlaut" unicode="&#x150;" horiz-adv-x="834" d="M493 687 C244 687 34 490 34 256 C34 90 156 -19 343 -19 C590 -19 801 179 801 410 C801 577 679 687 493 687 L493 687 Z M481 632 C612 632 695 550 695 422 C695 339 667 245 622 181 C558 89 460 36 355 36 C224 36 140 117 140 244 C140 461 290 632 481 632 L481 632 Z M428 706 L535 775 C553 787 564 803 564 817 C564 834 554 844 537 844 C523 844 507 834 492 815 L400 706 L428 706 Z M557 706 L682 774 C703 785 716 801 716 816 C716 833 705 844 689 844 C676 844 659 835 643 819 L529 706 L557 706 Z " />
<glyph glyph-name="ohungarumlaut" unicode="&#x151;" horiz-adv-x="605" d="M335 486 C247 486 158 450 95 390 C38 335 4 254 4 172 C4 61 96 -17 228 -17 C315 -17 403 18 467 79 C524 135 558 214 558 296 C558 408 466 486 335 486 L335 486 Z M324 435 C414 435 462 388 462 301 C462 239 441 168 408 121 C370 65 309 34 238 34 C149 34 100 81 100 167 C100 230 121 300 154 348 C192 404 252 435 324 435 L324 435 Z M250 540 L279 540 L389 634 C418 659 427 672 427 687 C427 702 414 715 399 715 C380 715 362 702 342 673 L250 540 Z M376 540 L405 540 L531 631 C562 654 573 669 573 688 C573 703 561 714 545 714 C527 714 509 702 489 678 L376 540 Z " />
<glyph glyph-name="OE" unicode="&#x152;" horiz-adv-x="1272" d="M1257 667 L793 667 L529 686 C403 686 304 657 214 592 C99 510 33 386 33 254 C33 184 57 125 104 75 C165 12 253 -19 374 -19 C408 -19 445 -17 479 -14 C510 -11 541 -7 573 -4 C602 -1 630 0 656 0 L1116 0 L1173 271 L1119 271 C1074 88 1039 56 884 53 L679 53 L736 323 L808 323 C877 323 902 307 902 265 C902 245 902 245 892 178 L946 178 L1015 505 L961 505 C936 392 916 374 821 376 L748 376 L798 614 L990 614 C1121 614 1161 588 1161 506 C1161 481 1158 460 1150 416 L1204 416 L1257 667 Z M598 126 C588 78 583 70 563 60 C530 45 463 33 406 33 C233 33 141 111 141 256 C141 359 189 471 261 538 C328 600 424 634 534 634 C586 634 646 624 673 610 C688 603 693 595 693 582 C693 577 691 563 686 541 L598 126 Z " />
<glyph glyph-name="oe" unicode="&#x153;" horiz-adv-x="980" d="M831 154 C806 110 791 92 764 74 C733 52 691 39 649 39 C573 39 527 81 527 152 C527 167 531 198 536 226 L923 226 C929 263 932 295 932 324 C932 366 914 410 884 439 C853 470 805 486 743 486 C658 486 608 467 524 401 C499 429 485 442 465 453 C430 474 382 486 333 486 C245 486 158 451 94 390 C37 335 3 254 3 172 C3 61 95 -17 226 -17 C313 -17 375 7 456 73 C475 45 487 30 503 19 C534 -4 583 -17 636 -17 C704 -17 759 1 807 38 C845 67 863 92 893 154 L831 154 Z M320 435 C409 435 456 388 456 301 C456 239 435 169 402 121 C364 65 305 34 234 34 C147 34 99 81 99 166 C99 229 120 300 152 348 C190 404 250 435 320 435 L320 435 Z M551 279 C570 337 583 362 610 389 C641 420 681 436 728 436 C797 436 837 401 837 341 C837 324 835 302 832 279 L551 279 Z " />
<glyph glyph-name="Racute" unicode="&#x154;" horiz-adv-x="808" d="M315 53 L263 53 C215 53 196 62 196 84 C196 91 198 105 203 126 L244 320 L380 320 C473 320 518 287 518 218 C518 201 517 187 515 174 L501 92 C499 83 499 76 499 64 C499 6 526 -19 589 -19 C639 -19 675 1 701 43 C719 72 729 99 743 163 L694 163 C669 65 659 46 630 46 C612 46 604 55 604 75 C604 86 608 114 613 141 C619 173 624 210 624 227 C624 290 594 321 512 342 C596 355 634 369 672 400 C713 433 737 483 737 535 C737 630 660 667 464 667 L102 667 L90 614 L135 614 C182 614 201 605 201 583 C201 577 198 559 194 541 L106 126 C94 63 85 55 15 53 L-29 53 L-40 0 L304 0 L315 53 Z M255 373 L306 614 L453 614 C499 614 555 608 575 602 C614 588 634 561 634 523 C634 493 622 462 600 436 C565 394 495 373 392 373 L255 373 Z M343 706 L499 770 C529 782 542 797 542 818 C542 834 530 846 514 846 C502 846 485 839 470 827 L308 706 L343 706 Z " />
<glyph glyph-name="racute" unicode="&#x155;" horiz-adv-x="500" d="M274 48 L224 48 C181 48 165 56 165 77 C165 84 166 95 168 105 L192 217 C204 274 222 315 250 352 C293 408 338 437 385 437 C410 437 420 431 437 408 C411 408 399 403 385 388 C374 377 368 363 368 349 C368 325 388 308 417 308 C460 308 498 348 498 395 C498 451 462 483 400 483 C334 483 281 450 225 372 L246 469 L60 469 L49 421 L79 421 C121 421 138 412 138 392 C138 386 136 375 134 364 L79 105 C70 58 58 49 0 48 L-30 48 L-40 0 L264 0 L274 48 Z M227 540 L263 540 L428 629 C467 650 480 664 480 684 C480 702 468 715 451 715 C435 715 413 704 392 686 L227 540 Z " />
<glyph glyph-name="Rcommaaccent" unicode="&#x156;" horiz-adv-x="808" d="M315 53 L263 53 C215 53 196 62 196 84 C196 91 198 105 203 126 L244 320 L380 320 C473 320 518 287 518 218 C518 201 517 187 515 174 L501 92 C499 83 499 76 499 64 C499 6 526 -19 589 -19 C639 -19 675 1 701 43 C719 72 729 99 743 163 L694 163 C669 65 659 46 630 46 C612 46 604 55 604 75 C604 86 608 114 613 141 C619 173 624 210 624 227 C624 290 594 321 512 342 C596 355 634 369 672 400 C713 433 737 483 737 535 C737 630 660 667 464 667 L102 667 L90 614 L135 614 C182 614 201 605 201 583 C201 577 198 559 194 541 L106 126 C94 63 85 55 15 53 L-29 53 L-40 0 L304 0 L315 53 Z M255 373 L306 614 L453 614 C499 614 555 608 575 602 C614 588 634 561 634 523 C634 493 622 462 600 436 C565 394 495 373 392 373 L255 373 Z M233 -266 C308 -250 369 -180 369 -112 C369 -78 347 -56 313 -56 C279 -56 249 -85 249 -118 C249 -137 265 -152 285 -152 C296 -152 304 -149 321 -141 C314 -186 281 -223 240 -234 L233 -266 Z " />
<glyph glyph-name="rcommaaccent" unicode="&#x157;" horiz-adv-x="500" d="M274 48 L224 48 C181 48 165 56 165 77 C165 84 166 95 168 105 L192 217 C204 274 222 315 250 352 C293 408 338 437 385 437 C410 437 420 431 437 408 C411 408 399 403 385 388 C374 377 368 363 368 349 C368 325 388 308 417 308 C460 308 498 348 498 395 C498 451 462 483 400 483 C334 483 281 450 225 372 L246 469 L60 469 L49 421 L79 421 C121 421 138 412 138 392 C138 386 136 375 134 364 L79 105 C70 58 58 49 0 48 L-30 48 L-40 0 L264 0 L274 48 Z M18 -266 C93 -250 154 -180 154 -112 C154 -78 132 -56 98 -56 C64 -56 34 -85 34 -118 C34 -137 50 -152 70 -152 C81 -152 89 -149 107 -141 C99 -186 67 -223 25 -234 L18 -266 Z " />
<glyph glyph-name="Rcaron" unicode="&#x158;" horiz-adv-x="808" d="M315 53 L263 53 C215 53 196 62 196 84 C196 91 198 105 203 126 L244 320 L380 320 C473 320 518 287 518 218 C518 201 517 187 515 174 L501 92 C499 83 499 76 499 64 C499 6 526 -19 589 -19 C639 -19 675 1 701 43 C719 72 729 99 743 163 L694 163 C669 65 659 46 630 46 C612 46 604 55 604 75 C604 86 608 114 613 141 C619 173 624 210 624 227 C624 290 594 321 512 342 C596 355 634 369 672 400 C713 433 737 483 737 535 C737 630 660 667 464 667 L102 667 L90 614 L135 614 C182 614 201 605 201 583 C201 577 198 559 194 541 L106 126 C94 63 85 55 15 53 L-29 53 L-40 0 L304 0 L315 53 Z M255 373 L306 614 L453 614 C499 614 555 608 575 602 C614 588 634 561 634 523 C634 493 622 462 600 436 C565 394 495 373 392 373 L255 373 Z M254 838 L332 706 L406 706 L539 838 L507 838 L382 767 L286 838 L254 838 Z " />
<glyph glyph-name="rcaron" unicode="&#x159;" horiz-adv-x="500" d="M274 48 L224 48 C181 48 165 56 165 77 C165 84 166 95 168 105 L192 217 C204 274 222 315 250 352 C293 408 338 437 385 437 C410 437 420 431 437 408 C411 408 399 403 385 388 C374 377 368 363 368 349 C368 325 388 308 417 308 C460 308 498 348 498 395 C498 451 462 483 400 483 C334 483 281 450 225 372 L246 469 L60 469 L49 421 L79 421 C121 421 138 412 138 392 C138 386 136 375 134 364 L79 105 C70 58 58 49 0 48 L-30 48 L-40 0 L264 0 L274 48 Z M131 709 L205 540 L270 540 L416 709 L381 709 L253 614 L166 709 L131 709 Z " />
<glyph glyph-name="Sacute" unicode="&#x15a;" horiz-adv-x="657" d="M-24 0 L29 0 L79 74 C156 -1 199 -20 293 -20 C464 -20 600 91 600 231 C600 317 546 359 394 388 L296 407 C206 425 171 451 171 499 C171 574 250 629 359 629 C429 629 489 606 520 565 C543 535 552 503 552 443 C552 441 552 429 551 420 L607 420 L661 673 L612 673 L569 612 C509 667 456 687 370 687 C201 687 79 590 79 455 C79 417 93 385 121 364 C153 338 176 330 278 307 L361 289 C471 265 503 242 503 190 C503 107 417 43 305 43 C231 43 171 69 132 118 C102 156 92 191 92 263 L92 277 L35 277 L-24 0 Z M373 706 L529 770 C559 782 572 797 572 818 C572 834 560 846 544 846 C532 846 515 839 500 827 L338 706 L373 706 Z " />
<glyph glyph-name="sacute" unicode="&#x15b;" horiz-adv-x="521" d="M-30 -4 L24 -4 L56 46 C106 -1 144 -16 213 -16 C276 -16 336 1 373 30 C416 62 445 114 445 160 C445 218 397 257 308 274 L214 291 C161 301 136 320 136 352 C136 399 186 433 254 433 C303 433 343 418 368 390 C389 367 396 343 398 292 L450 292 L489 475 L442 475 L413 432 C361 471 321 485 259 485 C200 485 148 468 110 437 C72 406 48 361 48 320 C48 262 98 218 184 202 L275 185 C332 174 357 156 357 126 C357 75 300 38 224 38 C176 38 133 55 103 85 C77 112 68 137 66 192 L12 192 L-30 -4 Z M238 540 L274 540 L439 629 C478 650 491 664 491 684 C491 702 479 715 462 715 C446 715 424 704 403 686 L238 540 Z " />
<glyph glyph-name="Scedilla" unicode="&#x15e;" horiz-adv-x="657" d="M260 -18 C274 -20 284 -20 294 -20 C465 -20 600 91 600 232 C600 317 545 359 394 388 L296 407 C206 425 171 451 171 499 C171 574 250 629 359 629 C429 629 489 606 520 565 C545 534 552 504 552 438 C552 437 552 427 551 420 L607 420 L661 673 L612 673 L569 612 C509 667 456 687 370 687 C200 687 79 590 79 454 C79 417 94 385 121 364 C153 338 176 330 278 307 L361 289 C472 264 503 243 503 190 C503 106 418 43 305 43 C232 43 171 69 132 118 C101 157 92 190 92 267 L92 277 L35 277 L-24 0 L29 0 L79 74 C145 11 172 -5 229 -14 L211 -101 C229 -96 238 -95 251 -95 C277 -95 293 -107 293 -127 C293 -155 266 -174 227 -174 C191 -174 149 -160 115 -135 L87 -178 C138 -204 184 -217 229 -217 C270 -217 305 -207 327 -188 C350 -169 364 -143 364 -119 C364 -81 335 -56 289 -56 C280 -56 265 -57 251 -58 L260 -18 Z " />
<glyph glyph-name="scedilla" unicode="&#x15f;" horiz-adv-x="521" d="M194 -16 L214 -16 C276 -16 336 1 373 29 C417 63 445 114 445 161 C445 218 396 257 308 274 L214 291 C161 301 136 320 136 352 C136 399 186 433 254 433 C303 433 343 418 368 390 C389 367 396 343 398 292 L450 292 L489 475 L442 475 L413 432 C361 471 321 485 259 485 C142 485 48 411 48 320 C48 262 98 218 184 202 L275 185 C333 174 357 156 357 126 C357 75 301 38 224 38 C176 38 133 55 103 85 C77 112 68 137 66 192 L12 192 L-30 -4 L24 -4 L56 46 C96 9 117 -3 164 -12 L146 -95 C165 -90 173 -89 186 -89 C214 -89 229 -100 229 -122 C229 -155 204 -174 161 -174 C125 -174 84 -160 49 -135 L21 -178 C73 -205 118 -217 163 -217 C243 -217 299 -175 299 -113 C299 -74 271 -50 224 -50 C213 -50 201 -51 187 -52 L194 -16 Z " />
<glyph glyph-name="Scaron" unicode="&#x160;" horiz-adv-x="657" d="M293 838 L370 706 L444 706 L578 838 L546 838 L420 767 L325 838 L293 838 Z M-24 0 L29 0 L79 74 C156 -1 199 -20 293 -20 C464 -20 600 91 600 231 C600 317 546 359 394 388 L296 407 C206 425 171 451 171 499 C171 574 250 629 359 629 C429 629 489 606 520 565 C543 535 552 503 552 443 C552 441 552 429 551 420 L607 420 L661 673 L612 673 L569 612 C509 667 456 687 370 687 C201 687 79 590 79 455 C79 417 93 385 121 364 C153 338 176 330 278 307 L361 289 C471 265 503 242 503 190 C503 107 417 43 305 43 C231 43 171 69 132 118 C102 156 92 191 92 263 L92 277 L35 277 L-24 0 Z " />
<glyph glyph-name="scaron" unicode="&#x161;" horiz-adv-x="521" d="M-30 -4 L24 -4 L56 46 C106 -1 144 -16 213 -16 C276 -16 336 1 373 30 C416 62 445 114 445 160 C445 218 397 257 308 274 L214 291 C161 301 136 320 136 352 C136 399 186 433 254 433 C303 433 343 418 368 390 C389 367 396 343 398 292 L450 292 L489 475 L442 475 L413 432 C361 471 321 485 259 485 C200 485 148 468 110 437 C72 406 48 361 48 320 C48 262 98 218 184 202 L275 185 C332 174 357 156 357 126 C357 75 300 38 224 38 C176 38 133 55 103 85 C77 112 68 137 66 192 L12 192 L-30 -4 Z M198 709 L272 540 L337 540 L483 709 L448 709 L320 614 L233 709 L198 709 Z " />
<glyph glyph-name="Tcommaaccent" unicode="&#x162;" horiz-adv-x="699" d="M44 405 L97 405 C139 570 185 612 328 614 L361 614 L257 126 C245 63 236 55 167 53 L100 53 L89 0 L469 0 L480 53 L414 53 C366 53 347 62 347 84 C347 90 349 105 354 126 L458 614 L491 614 C604 614 643 583 643 496 C643 472 641 450 633 405 L686 405 L742 667 L100 667 L44 405 Z M179 -266 C253 -250 315 -180 315 -112 C315 -78 293 -56 259 -56 C225 -56 195 -85 195 -118 C195 -137 211 -152 231 -152 C242 -152 250 -149 267 -141 C260 -186 227 -223 186 -234 L179 -266 Z " />
<glyph glyph-name="tcommaaccent" unicode="&#x163;" horiz-adv-x="422" d="M122 420 L53 95 C51 86 50 76 50 68 C50 14 87 -17 154 -17 C210 -17 260 8 287 50 C306 79 316 108 338 192 L290 192 C276 135 266 103 253 80 C239 56 212 41 182 41 C154 41 140 52 140 73 C140 78 141 88 143 95 L212 420 L362 420 L372 469 L222 469 L262 655 L213 655 C174 528 128 477 45 469 L34 420 L122 420 Z M-16 -266 C59 -250 120 -180 120 -112 C120 -78 98 -56 64 -56 C30 -56 0 -85 0 -118 C0 -137 16 -152 36 -152 C47 -152 55 -149 72 -141 C65 -186 33 -223 -9 -234 L-16 -266 Z " />
<glyph glyph-name="Tcaron" unicode="&#x164;" horiz-adv-x="699" d="M44 405 L97 405 C139 570 185 612 328 614 L361 614 L257 126 C245 63 236 55 167 53 L100 53 L89 0 L469 0 L480 53 L414 53 C366 53 347 62 347 84 C347 90 349 105 354 126 L458 614 L491 614 C604 614 643 583 643 496 C643 472 641 450 633 405 L686 405 L742 667 L100 667 L44 405 Z M314 838 L392 706 L466 706 L600 838 L568 838 L442 767 L346 838 L314 838 Z " />
<glyph glyph-name="tcaron" unicode="&#x165;" horiz-adv-x="422" d="M122 420 L53 95 C51 87 50 78 50 68 C50 14 87 -17 154 -17 C210 -17 260 8 287 50 C306 79 316 108 337 192 L289 192 C276 134 266 103 253 80 C239 56 212 41 182 41 C154 41 140 52 140 73 C140 81 141 88 142 95 L211 420 L361 420 L372 469 L222 469 L261 655 L212 655 C173 528 127 477 44 469 L34 420 L122 420 Z M360 532 C434 547 496 617 496 685 C496 719 474 741 440 741 C406 741 376 712 376 679 C376 661 392 646 412 646 C423 646 431 648 449 657 C441 611 409 574 367 564 L360 532 Z " />
<glyph glyph-name="Umacron" unicode="&#x16a;" horiz-adv-x="798" d="M91 614 L126 614 C173 614 192 605 192 583 C192 576 189 558 186 541 L115 209 C110 187 108 164 108 143 C108 102 116 75 136 50 C170 5 240 -20 326 -20 C410 -20 481 2 536 43 C592 87 626 147 646 244 L709 541 C721 604 731 612 800 614 L832 614 L843 667 L542 667 L531 614 L583 614 C631 614 650 605 650 583 C650 577 648 567 643 541 L579 244 C562 162 541 120 503 91 C465 63 412 47 352 47 C256 47 206 84 206 155 C206 175 208 190 211 209 L282 541 C294 604 304 612 373 614 L426 614 L437 667 L102 667 L91 614 Z M359 738 L611 738 L625 803 L373 803 L359 738 Z " />
<glyph glyph-name="umacron" unicode="&#x16b;" horiz-adv-x="678" d="M45 421 L67 421 C107 421 124 412 123 392 C123 385 121 375 119 364 L84 201 C75 157 69 117 69 98 C69 29 123 -13 210 -13 C250 -13 289 -5 325 11 C357 25 378 41 417 81 L400 0 L583 0 L593 48 L563 48 C521 48 502 57 503 77 C503 84 505 94 507 105 L585 469 L397 469 L387 421 L425 421 C465 421 481 413 481 392 C481 387 479 375 477 364 L443 201 C432 150 412 118 373 85 C336 55 293 40 246 40 C185 40 157 64 157 117 C157 132 161 163 167 188 L226 469 L55 469 L45 421 Z M238 585 L499 585 L514 653 L252 653 L238 585 Z " />
<glyph glyph-name="Uring" unicode="&#x16e;" horiz-adv-x="798" d="M91 614 L126 614 C173 614 192 605 192 583 C192 576 189 558 186 541 L115 209 C110 187 108 164 108 143 C108 102 116 75 136 50 C170 5 240 -20 326 -20 C410 -20 481 2 536 43 C592 87 626 147 646 244 L709 541 C721 604 731 612 800 614 L832 614 L843 667 L542 667 L531 614 L583 614 C631 614 650 605 650 583 C650 577 648 567 643 541 L579 244 C562 162 541 120 503 91 C465 63 412 47 352 47 C256 47 206 84 206 155 C206 175 208 190 211 209 L282 541 C294 604 304 612 373 614 L426 614 L437 667 L102 667 L91 614 Z M520 893 C456 893 400 840 400 780 C400 733 431 701 475 701 C537 701 596 757 596 817 C596 861 564 893 520 893 L520 893 Z M509 848 C533 848 550 831 550 807 C550 776 518 746 485 746 C461 746 445 763 445 788 C445 820 475 848 509 848 L509 848 Z " />
<glyph glyph-name="uring" unicode="&#x16f;" horiz-adv-x="678" d="M45 421 L67 421 C107 421 124 412 123 392 C123 385 121 375 119 364 L84 201 C75 157 69 117 69 98 C69 29 123 -13 210 -13 C250 -13 289 -5 325 11 C357 25 378 41 417 81 L400 0 L583 0 L593 48 L563 48 C521 48 502 57 503 77 C503 84 505 94 507 105 L585 469 L397 469 L387 421 L425 421 C465 421 481 413 481 392 C481 387 479 375 477 364 L443 201 C432 150 412 118 373 85 C336 55 293 40 246 40 C185 40 157 64 157 117 C157 132 161 163 167 188 L226 469 L55 469 L45 421 Z M406 759 C326 759 255 692 255 617 C255 558 293 519 350 519 C427 519 500 589 500 663 C500 718 460 759 406 759 L406 759 Z M394 708 C426 706 447 685 447 653 C447 610 405 570 361 570 C329 570 307 593 307 626 C307 669 351 710 394 708 L394 708 Z " />
<glyph glyph-name="Uhungarumlaut" unicode="&#x170;" horiz-adv-x="798" d="M91 614 L126 614 C173 614 192 605 192 583 C192 576 189 558 186 541 L115 209 C110 187 108 164 108 143 C108 102 116 75 136 50 C170 5 240 -20 326 -20 C410 -20 481 2 536 43 C592 87 626 147 646 244 L709 541 C721 604 731 612 800 614 L832 614 L843 667 L542 667 L531 614 L583 614 C631 614 650 605 650 583 C650 577 648 567 643 541 L579 244 C562 162 541 120 503 91 C465 63 412 47 352 47 C256 47 206 84 206 155 C206 175 208 190 211 209 L282 541 C294 604 304 612 373 614 L426 614 L437 667 L102 667 L91 614 Z M409 706 L517 775 C535 787 546 803 546 817 C546 834 536 844 519 844 C505 844 489 834 474 815 L382 706 L409 706 Z M538 706 L664 774 C684 784 697 801 697 816 C697 833 686 844 670 844 C658 844 641 835 625 819 L511 706 L538 706 Z " />
<glyph glyph-name="uhungarumlaut" unicode="&#x171;" horiz-adv-x="678" d="M45 421 L67 421 C107 421 124 412 123 392 C123 385 121 375 119 364 L84 201 C75 157 69 117 69 98 C69 29 123 -13 210 -13 C250 -13 289 -5 325 11 C357 25 378 41 417 81 L400 0 L583 0 L593 48 L563 48 C521 48 502 57 503 77 C503 84 505 94 507 105 L585 469 L397 469 L387 421 L425 421 C465 421 481 413 481 392 C481 387 479 375 477 364 L443 201 C432 150 412 118 373 85 C336 55 293 40 246 40 C185 40 157 64 157 117 C157 132 161 163 167 188 L226 469 L55 469 L45 421 Z M287 540 L317 540 L426 634 C455 659 464 672 464 687 C464 702 451 715 436 715 C417 715 399 702 379 673 L287 540 Z M413 540 L442 540 L568 631 C599 654 610 669 610 688 C610 703 598 714 582 714 C564 714 546 702 526 678 L413 540 Z " />
<glyph glyph-name="Uogonek" unicode="&#x172;" horiz-adv-x="798" d="M832 614 L843 667 L542 667 L531 614 L583 614 C629 614 650 605 650 585 C650 579 647 562 643 541 L579 244 C562 162 541 120 503 91 C465 63 412 47 352 47 C255 47 206 84 206 155 C206 175 208 190 211 209 L282 541 C294 604 304 612 373 614 L426 614 L437 667 L102 667 L91 614 L126 614 C172 614 193 605 193 585 C193 579 190 563 186 541 L115 209 C110 187 108 165 108 141 C108 38 187 -20 326 -20 C346 -20 367 -18 390 -15 C317 -62 276 -114 276 -161 C276 -196 302 -217 344 -217 C391 -217 435 -191 472 -141 L458 -133 C433 -158 412 -168 387 -168 C362 -168 349 -154 349 -127 C349 -84 388 -35 444 -6 C543 45 543 46 568 71 C602 106 630 168 646 244 L709 541 C721 604 731 612 800 614 L832 614 Z " />
<glyph glyph-name="uogonek" unicode="&#x173;" horiz-adv-x="678" d="M583 0 L593 48 L563 48 C521 48 502 57 503 77 C503 84 505 94 507 105 L585 469 L397 469 L387 421 L425 421 C465 421 481 413 481 392 C481 387 479 375 477 364 L443 201 C432 150 412 118 373 85 C336 55 293 40 245 40 C185 40 157 64 157 117 C157 132 161 163 167 188 L226 469 L55 469 L45 421 L67 421 C107 421 124 412 123 392 C123 385 121 375 119 364 L84 201 C75 157 69 117 69 98 C69 29 123 -13 210 -13 C249 -13 289 -5 325 12 C357 26 378 41 417 81 L400 0 L508 0 C415 -56 371 -108 371 -162 C371 -196 396 -217 437 -217 C484 -217 529 -190 565 -141 L551 -133 C526 -158 506 -168 480 -168 C455 -168 442 -154 442 -127 C442 -87 476 -41 537 0 L583 0 Z " />
<glyph glyph-name="Ydieresis" unicode="&#x178;" horiz-adv-x="667" d="M267 263 L238 126 C226 63 216 55 147 53 L80 53 L69 0 L450 0 L461 53 L395 53 C347 53 328 62 328 84 C328 91 331 108 334 126 L364 263 L597 532 C655 597 681 614 725 614 L749 614 L760 667 L476 667 L465 614 L536 614 C556 614 569 608 569 599 C569 592 561 577 549 564 L346 331 L255 555 C250 566 247 579 247 588 C247 605 262 614 289 614 L355 614 L366 667 L45 667 L34 614 L64 614 C100 612 123 593 141 550 L267 263 Z M346 821 C313 821 282 792 282 760 C282 736 298 720 322 720 C355 720 385 749 385 780 C385 803 368 821 346 821 L346 821 Z M533 821 C500 821 469 792 469 760 C469 736 485 720 510 720 C543 720 573 749 573 780 C573 803 556 821 533 821 L533 821 Z " />
<glyph glyph-name="Zacute" unicode="&#x179;" horiz-adv-x="647" d="M-45 0 L524 0 L585 287 L530 287 C477 88 447 59 290 53 L89 53 L654 611 L666 667 L117 667 L61 403 L115 403 C159 576 200 615 335 614 L535 614 L-33 54 L-45 0 Z M367 706 L524 770 C554 782 567 797 567 818 C567 834 555 846 539 846 C527 846 510 839 494 827 L333 706 L367 706 Z " />
<glyph glyph-name="zacute" unicode="&#x17a;" horiz-adv-x="521" d="M-45 0 L410 0 L456 212 L405 212 C366 66 348 51 212 50 L78 50 L490 420 L500 469 L71 469 L30 272 L80 272 C117 405 139 423 255 420 L379 420 L-34 50 L-45 0 Z M238 540 L274 540 L439 629 C477 649 490 664 490 684 C490 702 478 715 461 715 C445 715 424 704 403 686 L238 540 Z " />
<glyph glyph-name="Zdotaccent" unicode="&#x17b;" horiz-adv-x="647" d="M-45 0 L524 0 L585 287 L530 287 C477 88 447 59 290 53 L89 53 L654 611 L666 667 L117 667 L61 403 L115 403 C159 576 200 615 335 614 L535 614 L-33 54 L-45 0 Z M430 824 C394 824 362 793 362 760 C362 734 379 717 405 717 C439 717 471 747 471 780 C471 805 453 824 430 824 L430 824 Z " />
<glyph glyph-name="zdotaccent" unicode="&#x17c;" horiz-adv-x="521" d="M-45 0 L410 0 L456 212 L405 212 C366 66 348 51 212 50 L78 50 L490 420 L500 469 L71 469 L30 272 L80 272 C117 405 139 423 255 420 L379 420 L-34 50 L-45 0 Z M336 677 C298 677 263 644 263 608 C263 580 281 562 309 562 C346 562 380 594 380 630 C380 656 360 677 336 677 L336 677 Z " />
<glyph glyph-name="Zcaron" unicode="&#x17d;" horiz-adv-x="647" d="M-45 0 L524 0 L585 287 L530 287 C477 88 447 59 290 53 L89 53 L654 611 L666 667 L117 667 L61 403 L115 403 C159 576 200 615 335 614 L535 614 L-33 54 L-45 0 Z M288 838 L365 706 L439 706 L573 838 L541 838 L415 767 L319 838 L288 838 Z " />
<glyph glyph-name="zcaron" unicode="&#x17e;" horiz-adv-x="521" d="M-45 0 L410 0 L456 212 L405 212 C366 66 348 51 212 50 L78 50 L490 420 L500 469 L71 469 L30 272 L80 272 C117 405 139 423 255 420 L379 420 L-34 50 L-45 0 Z M198 709 L272 540 L337 540 L483 709 L448 709 L320 614 L233 709 L198 709 Z " />
<glyph glyph-name="florin" unicode="&#x192;" horiz-adv-x="639" d="M305 420 L163 45 C141 -12 137 -22 127 -40 C102 -83 68 -104 22 -104 C-5 -104 -16 -99 -37 -79 C0 -70 24 -47 24 -20 C24 1 9 13 -16 13 C-60 13 -100 -29 -100 -75 C-100 -121 -55 -149 17 -149 C123 -149 199 -94 240 13 L395 420 L512 420 L531 469 L413 469 L427 506 C446 555 458 580 475 600 C495 625 527 639 562 639 C589 639 600 634 621 614 C584 605 560 582 560 554 C560 533 575 521 600 521 C644 521 684 563 684 610 C684 656 640 684 567 684 C518 684 472 671 434 645 C392 616 366 579 339 509 L324 469 L227 469 L209 420 L305 420 Z " />
<glyph glyph-name="uni01D3" unicode="&#x1d3;" horiz-adv-x="798" d="M91 614 L126 614 C173 614 192 605 192 583 C192 576 189 558 186 541 L115 209 C110 187 108 164 108 143 C108 102 116 75 136 50 C170 5 240 -20 326 -20 C410 -20 481 2 536 43 C592 87 626 147 646 244 L709 541 C721 604 731 612 800 614 L832 614 L843 667 L542 667 L531 614 L583 614 C631 614 650 605 650 583 C650 577 648 567 643 541 L579 244 C562 162 541 120 503 91 C465 63 412 47 352 47 C256 47 206 84 206 155 C206 175 208 190 211 209 L282 541 C294 604 304 612 373 614 L426 614 L437 667 L102 667 L91 614 Z M364 838 L441 706 L515 706 L649 838 L617 838 L491 767 L395 838 L364 838 Z " />
<glyph glyph-name="Scommaaccent" unicode="&#x218;" horiz-adv-x="657" d="M-24 0 L29 0 L79 74 C156 -1 199 -20 293 -20 C464 -20 600 91 600 231 C600 317 546 359 394 388 L296 407 C206 425 171 451 171 499 C171 574 250 629 359 629 C429 629 489 606 520 565 C543 535 552 503 552 443 C552 441 552 429 551 420 L607 420 L661 673 L612 673 L569 612 C509 667 456 687 370 687 C201 687 79 590 79 455 C79 417 93 385 121 364 C153 338 176 330 278 307 L361 289 C471 265 503 242 503 190 C503 107 417 43 305 43 C231 43 171 69 132 118 C102 156 92 191 92 263 L92 277 L35 277 L-24 0 Z M170 -266 C245 -250 306 -180 306 -112 C306 -78 284 -56 250 -56 C216 -56 186 -85 186 -118 C186 -137 202 -152 222 -152 C233 -152 241 -149 259 -141 C252 -186 219 -223 177 -234 L170 -266 Z " />
<glyph glyph-name="scommaaccent" unicode="&#x219;" horiz-adv-x="521" d="M-30 -4 L24 -4 L56 46 C106 -1 144 -16 213 -16 C276 -16 336 1 373 30 C416 62 445 114 445 160 C445 218 397 257 308 274 L214 291 C161 301 136 320 136 352 C136 399 186 433 254 433 C303 433 343 418 368 390 C389 367 396 343 398 292 L450 292 L489 475 L442 475 L413 432 C361 471 321 485 259 485 C200 485 148 468 110 437 C72 406 48 361 48 320 C48 262 98 218 184 202 L275 185 C332 174 357 156 357 126 C357 75 300 38 224 38 C176 38 133 55 103 85 C77 112 68 137 66 192 L12 192 L-30 -4 Z M103 -266 C178 -250 239 -180 239 -112 C239 -78 217 -56 183 -56 C149 -56 119 -85 119 -118 C119 -137 135 -152 155 -152 C166 -152 174 -149 192 -141 C184 -186 152 -223 110 -234 L103 -266 Z " />
<glyph glyph-name="uni021A" unicode="&#x21a;" horiz-adv-x="699" d="M44 405 L97 405 C139 570 185 612 328 614 L361 614 L257 126 C245 63 236 55 167 53 L100 53 L89 0 L469 0 L480 53 L414 53 C366 53 347 62 347 84 C347 90 349 105 354 126 L458 614 L491 614 C604 614 643 583 643 496 C643 472 641 450 633 405 L686 405 L742 667 L100 667 L44 405 Z M179 -266 C253 -250 315 -180 315 -112 C315 -78 293 -56 259 -56 C225 -56 195 -85 195 -118 C195 -137 211 -152 231 -152 C242 -152 250 -149 267 -141 C260 -186 227 -223 186 -234 L179 -266 Z " />
<glyph glyph-name="uni021B" unicode="&#x21b;" horiz-adv-x="422" d="M122 420 L53 95 C51 86 50 76 50 68 C50 14 87 -17 154 -17 C210 -17 260 8 287 50 C306 79 316 108 338 192 L290 192 C276 135 266 103 253 80 C239 56 212 41 182 41 C154 41 140 52 140 73 C140 78 141 88 143 95 L212 420 L362 420 L372 469 L222 469 L262 655 L213 655 C174 528 128 477 45 469 L34 420 L122 420 Z M-16 -266 C59 -250 120 -180 120 -112 C120 -78 98 -56 64 -56 C30 -56 0 -85 0 -118 C0 -137 16 -152 36 -152 C47 -152 55 -149 72 -141 C65 -186 33 -223 -9 -234 L-16 -266 Z " />
<glyph glyph-name="afii57929" unicode="&#x2bc;" horiz-adv-x="240" d="M60 445 C129 457 164 475 199 516 C225 547 242 589 242 622 C242 661 216 687 177 687 C136 687 103 656 103 618 C103 595 120 580 146 580 C160 580 170 583 189 594 C182 533 134 488 67 480 L60 445 Z " />
<glyph glyph-name="circumflex" unicode="&#x2c6;" horiz-adv-x="511" d="M156 540 L191 540 L319 635 L406 540 L442 540 L367 709 L302 709 L156 540 Z " />
<glyph glyph-name="caron" unicode="&#x2c7;" horiz-adv-x="511" d="M192 709 L266 540 L331 540 L478 709 L442 709 L315 614 L227 709 L192 709 Z " />
<glyph glyph-name="uni02C9" unicode="&#x2c9;" horiz-adv-x="512" d="M179 585 L441 585 L455 653 L193 653 L179 585 Z " />
<glyph glyph-name="breve" unicode="&#x2d8;" horiz-adv-x="510" d="M186 692 C186 656 188 638 193 623 C209 580 248 557 303 557 C345 557 385 571 416 597 C441 619 455 640 477 692 L445 692 C419 644 388 628 318 628 C248 628 223 644 217 692 L186 692 Z " />
<glyph glyph-name="dotaccent" unicode="&#x2d9;" horiz-adv-x="519" d="M335 677 C297 677 262 644 262 608 C262 580 280 562 308 562 C345 562 379 594 379 630 C379 656 359 677 335 677 L335 677 Z " />
<glyph glyph-name="ring" unicode="&#x2da;" horiz-adv-x="513" d="M323 759 C243 759 172 692 172 617 C172 558 210 519 267 519 C344 519 417 589 417 663 C417 718 377 759 323 759 L323 759 Z M311 708 C343 706 364 685 364 653 C364 610 322 570 278 570 C246 570 224 593 224 626 C224 669 268 710 311 708 L311 708 Z " />
<glyph glyph-name="ogonek" unicode="&#x2db;" horiz-adv-x="525" d="M230 17 C118 -42 61 -103 61 -161 C61 -196 86 -217 127 -217 C175 -217 220 -190 256 -141 L242 -133 C217 -158 196 -168 171 -168 C145 -168 132 -154 132 -127 C132 -81 170 -36 254 17 L230 17 Z " />
<glyph glyph-name="tilde" unicode="&#x2dc;" horiz-adv-x="511" d="M442 694 C425 662 412 652 387 652 C380 652 373 653 366 655 L317 668 C305 671 292 673 284 673 C262 673 242 664 222 647 C200 627 187 607 167 560 L195 560 C213 593 227 604 249 604 C256 604 268 602 279 599 L328 586 C336 584 345 583 352 583 C401 583 435 615 470 694 L442 694 Z " />
<glyph glyph-name="hungarumlaut" unicode="&#x2dd;" horiz-adv-x="517" d="M207 540 L236 540 L346 634 C373 658 383 672 383 687 C383 702 370 715 355 715 C336 715 319 702 299 673 L207 540 Z M332 540 L362 540 L488 631 C519 654 530 669 530 688 C530 703 518 714 502 714 C484 714 466 702 446 678 L332 540 Z " />
<glyph glyph-name="uni2011" unicode="&#x2011;" horiz-adv-x="271" d="M-28 201 L243 201 L259 275 L-12 275 L-28 201 Z " />
<glyph glyph-name="figuredash" unicode="&#x2012;" horiz-adv-x="575" d="M9 209 L513 209 L525 266 L21 266 L9 209 Z " />
<glyph glyph-name="endash" unicode="&#x2013;" horiz-adv-x="575" d="M9 209 L513 209 L525 266 L21 266 L9 209 Z " />
<glyph glyph-name="emdash" unicode="&#x2014;" horiz-adv-x="729" d="M-26 209 L703 209 L716 266 L-14 266 L-26 209 Z " />
<glyph glyph-name="afii00208" unicode="&#x2015;" horiz-adv-x="729" d="M-26 209 L703 209 L716 266 L-14 266 L-26 209 Z " />
<glyph glyph-name="quoteleft" unicode="&#x2018;" horiz-adv-x="240" d="M279 687 C216 683 179 665 142 621 C115 590 98 548 98 515 C98 475 124 450 163 450 C205 450 237 480 237 519 C237 541 220 556 194 556 C180 556 170 553 151 542 C158 604 206 649 273 657 L279 687 Z " />
<glyph glyph-name="quoteright" unicode="&#x2019;" horiz-adv-x="240" d="M60 445 C129 457 164 475 199 516 C225 547 242 589 242 622 C242 661 216 687 177 687 C136 687 103 656 103 618 C103 595 120 580 146 580 C160 580 170 583 189 594 C182 533 134 488 67 480 L60 445 Z " />
<glyph glyph-name="quotesinglbase" unicode="&#x201a;" horiz-adv-x="240" d="M-65 -146 C4 -134 39 -116 74 -76 C100 -45 117 -3 117 31 C117 70 91 95 52 95 C11 95 -22 65 -22 26 C-22 4 -5 -11 21 -11 C35 -11 45 -8 64 3 C57 -59 9 -103 -58 -111 L-65 -146 Z " />
<glyph glyph-name="quotedblleft" unicode="&#x201c;" horiz-adv-x="459" d="M496 687 C427 674 392 656 358 616 C331 585 314 543 314 510 C314 471 340 445 379 445 C420 445 453 475 453 514 C453 536 436 551 410 551 C396 551 386 548 367 537 C374 598 422 644 489 652 L496 687 Z M279 687 C210 674 174 656 141 616 C114 585 97 543 97 510 C97 471 123 445 163 445 C204 445 236 475 236 514 C236 536 219 551 193 551 C179 551 169 548 150 537 C157 599 205 644 272 652 L279 687 Z " />
<glyph glyph-name="quotedblright" unicode="&#x201d;" horiz-adv-x="459" d="M60 445 C129 457 164 475 199 516 C225 547 242 589 242 622 C242 661 216 687 177 687 C136 687 103 656 103 618 C103 595 120 580 146 580 C160 580 170 583 189 594 C182 533 134 488 67 480 L60 445 Z M277 445 C346 457 382 475 416 516 C443 547 460 589 460 622 C460 661 434 687 395 687 C354 687 321 656 321 618 C321 595 338 580 364 580 C377 580 387 583 407 594 C400 533 352 488 285 480 L277 445 Z " />
<glyph glyph-name="quotedblbase" unicode="&#x201e;" horiz-adv-x="459" d="M-65 -146 C4 -134 40 -116 74 -76 C100 -45 117 -3 117 31 C117 70 91 95 52 95 C11 95 -22 65 -22 26 C-22 4 -5 -11 21 -11 C35 -11 45 -8 64 3 C57 -59 10 -103 -58 -111 L-65 -146 Z M152 -146 C222 -134 257 -116 291 -76 C318 -44 335 -3 335 31 C335 69 309 95 270 95 C229 95 196 65 196 27 C196 4 213 -11 239 -11 C252 -11 262 -8 282 3 C274 -59 227 -103 160 -111 L152 -146 Z " />
<glyph glyph-name="dagger" unicode="&#x2020;" horiz-adv-x="620" d="M292 366 C254 186 211 20 183 -60 C158 -134 153 -151 153 -171 C153 -198 168 -214 191 -214 C213 -214 235 -200 245 -180 C257 -156 260 -142 267 -60 C274 36 294 152 338 366 C378 365 396 363 423 358 C492 344 492 344 512 344 C547 344 571 364 571 392 C571 414 558 424 529 424 C518 424 499 422 484 419 C401 403 400 403 346 401 C362 468 373 503 384 532 C419 620 421 626 421 647 C421 672 407 687 383 687 C342 687 320 652 318 583 C316 502 316 498 300 401 C260 402 243 404 215 410 C146 424 146 424 125 424 C91 424 67 404 67 376 C67 354 80 344 108 344 C120 344 139 346 154 349 C236 364 237 364 292 366 L292 366 Z " />
<glyph glyph-name="daggerdbl" unicode="&#x2021;" horiz-adv-x="620" d="M234 236 C243 209 245 196 245 178 C245 146 242 122 232 82 C192 83 174 85 147 90 C78 104 78 104 57 104 C23 104 -1 84 -1 56 C-1 34 12 24 41 24 C52 24 72 26 86 29 C169 45 170 45 224 46 C211 -3 206 -21 191 -60 C156 -147 154 -153 154 -174 C154 -199 168 -214 191 -214 C233 -214 255 -179 257 -110 C259 -19 260 -15 270 46 C309 46 327 44 355 38 C424 24 424 24 444 24 C479 24 503 44 503 72 C503 94 490 104 461 104 C450 104 431 102 416 99 C335 84 334 84 278 82 C289 149 308 195 341 236 C333 263 330 277 330 294 C330 326 333 351 344 390 C383 390 401 388 428 382 C497 368 497 368 518 368 C552 368 576 388 576 416 C576 438 563 448 535 448 C523 448 504 446 489 443 C407 428 406 428 351 426 C363 476 369 493 384 532 C418 619 420 626 420 647 C420 672 406 687 383 687 C342 687 320 652 318 583 C315 491 315 487 305 426 C266 427 248 429 220 434 C151 448 150 448 130 448 C96 448 72 428 72 400 C72 378 85 368 114 368 C125 368 144 370 159 373 C241 389 242 389 297 390 C286 323 267 278 234 236 L234 236 Z " />
<glyph glyph-name="bullet" unicode="&#x2022;" horiz-adv-x="700" d="M383 480 C290 480 204 399 204 312 C204 247 253 200 321 200 C413 200 499 281 499 368 C499 433 450 480 383 480 L383 480 Z " />
<glyph glyph-name="ellipsis" unicode="&#x2026;" horiz-adv-x="880" d="M97 99 C58 99 24 67 24 31 C24 2 42 -17 70 -17 C107 -17 142 17 142 52 C142 79 122 99 97 99 L97 99 Z M392 99 C353 99 319 67 319 31 C319 2 337 -17 365 -17 C402 -17 437 17 437 52 C437 79 417 99 392 99 L392 99 Z M686 99 C647 99 613 67 613 31 C613 2 631 -17 659 -17 C696 -17 731 17 731 52 C731 79 711 99 686 99 L686 99 Z " />
<glyph glyph-name="perthousand" unicode="&#x2030;" horiz-adv-x="1459" d="M295 622 C162 622 53 515 53 386 C53 295 115 238 214 238 C345 238 454 346 454 475 C454 565 392 622 295 622 L295 622 Z M285 571 C338 571 368 536 368 474 C368 433 355 388 332 353 C305 311 267 289 224 289 C169 289 139 324 139 389 C139 429 152 472 175 508 C204 551 238 571 285 571 L285 571 Z M266 -17 L793 622 L728 622 L201 -17 L266 -17 Z M782 366 C649 366 540 260 540 130 C540 40 602 -17 701 -17 C832 -17 941 91 941 219 C941 309 879 366 782 366 L782 366 Z M773 315 C826 315 855 281 855 218 C855 177 842 133 819 97 C792 56 754 34 711 34 C656 34 626 69 626 133 C626 173 639 217 662 252 C691 295 725 315 773 315 L773 315 Z M1240 366 C1107 366 998 260 998 130 C998 40 1060 -17 1159 -17 C1290 -17 1399 91 1399 219 C1399 309 1337 366 1240 366 L1240 366 Z M1231 315 C1284 315 1313 281 1313 218 C1313 177 1300 133 1277 97 C1250 56 1212 34 1169 34 C1114 34 1084 69 1084 133 C1084 173 1097 217 1120 252 C1149 295 1183 315 1231 315 L1231 315 Z " />
<glyph glyph-name="guilsinglleft" unicode="&#x2039;" horiz-adv-x="302" d="M119 72 L173 72 L140 182 C128 215 128 217 128 225 C128 241 133 254 148 273 C155 282 161 290 163 293 L243 403 L190 403 L124 333 C59 265 51 254 51 223 C51 204 53 198 83 142 L119 72 Z " />
<glyph glyph-name="guilsinglright" unicode="&#x203a;" horiz-adv-x="302" d="M71 72 L136 142 C202 210 209 221 209 252 C209 272 207 277 177 333 L141 403 L87 403 L121 293 C132 259 132 258 132 249 C132 234 127 221 112 202 C104 192 99 185 97 182 L17 72 L71 72 Z " />
<glyph glyph-name="uni203E" unicode="&#x203e;" horiz-adv-x="500" d="M-86 787 L-98 731 L402 731 L414 787 L-86 787 Z " />
<glyph glyph-name="fraction" unicode="&#x2044;" horiz-adv-x="172" d="M-247 -17 L-182 -17 L411 622 L346 622 L-247 -17 Z " />
<glyph glyph-name="Euro" unicode="&#x20ac;" horiz-adv-x="853" d="M236 399 C287 538 402 631 522 631 C634 631 711 557 711 449 C711 442 711 423 710 408 L763 408 L818 667 L770 667 L731 607 C652 670 610 687 532 687 C358 687 189 567 128 399 L71 399 L42 355 L114 355 C110 340 108 333 104 311 L52 311 L23 267 L99 267 L99 249 C99 175 119 117 162 68 C214 7 284 -20 386 -20 C487 -20 570 10 633 69 C681 113 704 152 734 243 L672 243 C644 173 626 143 591 110 C542 65 479 41 407 41 C310 41 247 83 220 164 C210 195 208 216 208 267 L507 267 L536 311 L212 311 C215 326 218 343 222 355 L565 355 L594 399 L236 399 Z " />
<glyph glyph-name="trademark" unicode="&#x2122;" horiz-adv-x="1014" d="M55 513 L95 513 C118 606 143 628 226 629 L241 629 L184 361 C177 328 174 325 136 324 L92 324 L84 286 L317 286 L325 324 L281 324 C255 324 245 328 245 338 C245 341 246 349 249 361 L306 629 L321 629 C386 629 408 613 408 565 C408 551 407 539 403 513 L442 513 L475 667 L88 667 L55 513 Z M502 629 L531 629 C557 629 567 625 567 615 C567 612 566 606 563 593 L514 361 C508 328 505 325 466 324 L437 324 L429 286 L618 286 L626 324 L594 324 C568 324 558 328 558 338 C558 342 559 352 561 361 L613 605 L685 286 L714 286 L920 598 L870 361 C863 328 860 325 821 324 L788 324 L780 286 L988 286 L996 324 L966 324 C940 324 930 328 930 338 C930 342 932 353 933 361 L982 593 C989 626 992 628 1030 629 L1061 629 L1069 667 L919 667 L730 381 L667 667 L510 667 L502 629 Z " />
<glyph glyph-name="uni2126" unicode="&#x2126;" horiz-adv-x="768" d="M326 0 L308 155 C230 199 180 288 180 382 C180 434 195 493 221 540 C257 605 317 642 385 642 C453 642 513 605 549 540 C575 493 590 434 590 382 C590 288 540 199 462 155 L444 0 L736 0 L736 153 L712 153 C704 108 684 90 643 90 L497 90 L500 128 C535 141 557 151 580 166 C657 215 702 296 702 382 C702 449 673 522 625 578 C564 648 480 686 385 686 C290 686 206 648 145 578 C97 522 68 449 68 382 C68 296 113 215 190 166 C213 151 235 141 270 128 L273 90 L127 90 C86 90 66 108 58 153 L34 153 L34 0 L326 0 Z " />
<glyph glyph-name="partialdiff" unicode="&#x2202;" horiz-adv-x="494" d="M107 674 C152 697 184 706 219 706 C321 706 379 611 379 447 C379 418 377 394 372 346 C308 396 272 412 221 412 C172 412 131 394 95 355 C51 309 26 246 26 184 C26 76 109 -10 213 -10 C282 -10 341 22 383 84 C429 152 462 286 462 403 C462 519 428 611 360 681 C312 730 259 753 195 753 C155 753 122 746 66 725 L107 674 Z M366 312 C350 201 340 158 314 107 C288 54 245 21 201 21 C146 21 113 73 113 159 C113 273 180 367 261 367 C299 367 324 354 366 312 L366 312 Z " />
<glyph glyph-name="Delta" unicode="&#x2206;" horiz-adv-x="612" d="M6 0 L608 0 L327 688 L6 0 Z M77 51 L290 509 L479 51 L77 51 Z " />
<glyph glyph-name="product" unicode="&#x220f;" horiz-adv-x="823" d="M25 -124 L315 -124 L315 -98 L312 -98 C242 -94 221 -67 224 18 L224 594 C224 656 228 677 242 690 C260 707 272 708 413 708 C556 708 568 707 586 690 C600 677 604 656 604 594 L604 18 C607 -67 586 -94 516 -98 L513 -98 L513 -124 L803 -124 L803 -98 L800 -98 C730 -94 709 -67 712 18 L712 609 C709 694 730 721 800 725 L803 725 L803 751 L25 751 L25 725 L28 725 C98 721 119 694 116 609 L116 18 C119 -67 98 -94 28 -98 L25 -98 L25 -124 Z " />
<glyph glyph-name="summation" unicode="&#x2211;" horiz-adv-x="713" d="M176 711 L444 711 C560 710 590 688 606 587 L632 587 L622 752 L23 752 L256 285 L14 -123 L641 -123 L695 87 L669 87 C639 7 605 -12 491 -11 L163 -11 L364 341 L176 711 Z " />
<glyph glyph-name="minus" unicode="&#x2212;" horiz-adv-x="532" d="M57 342 L43 276 L465 276 L479 342 L57 342 Z " />
<glyph glyph-name="uni2215" unicode="&#x2215;" horiz-adv-x="172" d="M-247 -17 L-182 -17 L411 622 L346 622 L-247 -17 Z " />
<glyph glyph-name="uni2219" unicode="&#x2219;" horiz-adv-x="318" d="M153 297 C113 297 78 264 78 227 C78 198 97 178 125 178 C163 178 199 213 199 249 C199 276 179 297 153 297 L153 297 Z " />
<glyph glyph-name="radical" unicode="&#x221a;" horiz-adv-x="549" d="M363 -35 L515 908 L480 913 L353 123 L156 520 L10 449 L26 414 L121 461 L363 -35 Z " />
<glyph glyph-name="infinity" unicode="&#x221e;" horiz-adv-x="713" d="M357 227 C415 156 485 115 548 115 C631 115 688 176 688 266 C688 354 629 414 543 414 C476 414 412 376 357 303 C300 375 234 414 171 414 C86 414 26 351 26 263 C26 176 84 115 167 115 C224 115 281 142 327 192 L357 227 Z M391 264 C434 325 493 362 546 362 C600 362 638 321 638 264 C638 205 603 167 549 167 C495 167 461 188 391 264 L391 264 Z M324 266 C275 203 216 167 163 167 C111 167 76 207 76 266 C76 323 113 362 167 362 C218 362 258 337 324 266 L324 266 Z " />
<glyph glyph-name="integral" unicode="&#x222b;" horiz-adv-x="274" d="M180 576 C180 653 179 691 176 746 C174 774 173 800 173 815 C173 855 184 878 202 878 C208 878 213 876 215 872 C232 845 239 839 256 839 C276 839 291 853 291 871 C291 898 267 916 231 916 C186 916 152 887 138 838 C123 784 113 682 113 577 L113 232 C113 160 114 124 117 63 C119 34 120 4 120 -12 C120 -47 108 -70 89 -70 C81 -70 74 -65 68 -52 C59 -35 51 -30 37 -30 C17 -30 2 -44 2 -63 C2 -89 26 -107 62 -107 C107 -107 141 -78 155 -29 C170 25 180 126 180 232 L180 576 Z " />
<glyph glyph-name="approxequal" unicode="&#x2248;" horiz-adv-x="549" d="M489 251 C444 199 423 187 384 187 C365 187 354 190 285 211 C212 234 188 239 160 239 C101 239 54 211 14 155 L57 121 C103 174 120 184 159 184 C180 184 180 184 271 157 C350 133 354 132 385 132 C449 132 496 160 527 217 L489 251 Z M489 408 C444 356 423 344 384 344 C365 344 354 347 285 368 C212 391 188 396 160 396 C101 396 54 369 14 312 L57 278 C103 331 120 341 159 341 C180 341 180 341 271 314 C350 290 354 289 385 289 C449 289 496 318 527 375 L489 408 Z " />
<glyph glyph-name="notequal" unicode="&#x2260;" horiz-adv-x="549" d="M187 142 L115 -1 L161 -25 L246 142 L540 142 L540 197 L273 197 L344 336 L540 336 L540 391 L371 391 L439 525 L392 549 L312 391 L15 391 L15 336 L285 336 L215 197 L15 197 L15 142 L187 142 Z " />
<glyph glyph-name="lessequal" unicode="&#x2264;" horiz-adv-x="549" d="M526 55 L29 55 L29 0 L526 0 L526 55 Z M526 639 L29 405 L29 350 L526 117 L526 179 L108 378 L526 577 L526 639 Z " />
<glyph glyph-name="greaterequal" unicode="&#x2265;" horiz-adv-x="549" d="M526 55 L29 55 L29 0 L526 0 L526 55 Z M29 639 L29 577 L447 378 L29 179 L29 117 L526 350 L526 405 L29 639 Z " />
<glyph glyph-name="lozenge" unicode="&#x25ca;" horiz-adv-x="494" d="M209 0 L269 -1 L466 374 L277 740 L214 740 L18 377 L209 0 Z M240 58 L81 376 L245 683 L402 373 L240 58 Z " />
<glyph glyph-name="fi" unicode="&#xfb01;" horiz-adv-x="683" d="M-39 0 L248 0 L258 48 L224 48 C181 48 164 56 164 77 C164 85 165 95 167 105 L234 419 L431 419 C475 419 493 410 492 390 C492 383 490 373 488 362 L433 105 C424 58 412 49 352 48 L317 48 L307 0 L588 0 L598 48 L575 48 C532 48 513 57 514 77 C514 84 516 93 518 105 L596 469 L245 469 L253 506 C273 604 323 644 425 644 C480 644 512 634 540 608 C507 600 488 581 488 555 C488 531 506 516 533 516 C571 516 603 550 603 590 C603 649 536 685 428 685 C281 685 192 622 166 499 L160 469 L60 469 L50 419 L149 419 L82 105 C73 58 60 49 1 48 L-29 48 L-39 0 Z " />
<glyph glyph-name="fl" unicode="&#xfb02;" horiz-adv-x="688" d="M-40 0 L247 0 L257 48 L223 48 C180 48 163 56 163 77 C163 85 164 95 166 105 L233 419 L352 419 L363 469 L244 469 L252 506 C272 604 322 644 422 644 C474 644 511 634 535 613 C509 599 496 582 496 560 C496 543 503 533 522 526 L432 105 C423 58 411 49 351 48 L316 48 L306 0 L590 0 L601 48 L574 48 C531 48 512 57 513 77 C513 84 515 93 517 105 L637 669 L553 667 C508 681 479 686 432 686 C282 686 191 622 165 499 L159 469 L60 469 L49 419 L148 419 L81 105 C72 58 59 49 0 48 L-30 48 L-40 0 Z " />
</font>
</svg>
