<?xml version="1.0" encoding="UTF-8"?>
<svg xmlns="http://www.w3.org/2000/svg" xmlns:xlink="http://www.w3.org/1999/xlink" version="1.2" >
<font id="Futura Cond Light">
<font-face  font-family="Futura Cond" units-per-em="1000" ascent="729" descent="-271" font-style="normal" font-weight="300" font-stretch="normal" cap-height="667" x-height="453" underline-position="-70" underline-thickness="56" />
<missing-glyph  horiz-adv-x="187" d="" />
<glyph glyph-name="NULL" d="" />
<glyph glyph-name="CR" unicode="&#xd;" horiz-adv-x="250" d="" />
<glyph glyph-name="space" unicode="&#x20;" horiz-adv-x="187" d="" />
<glyph glyph-name="exclam" unicode="&#x21;" horiz-adv-x="237" d="M148 167 L148 667 L88 667 L88 167 L148 167 Z M118 83 C93 83 73 63 73 38 C73 14 93 -7 117 -7 C143 -7 163 13 163 38 C163 63 143 83 118 83 L118 83 Z " />
<glyph glyph-name="quotedbl" unicode="&#x22;" horiz-adv-x="313" d="M114 402 L127 667 L53 667 L66 402 L114 402 Z M247 402 L260 667 L186 667 L200 402 L247 402 Z " />
<glyph glyph-name="numbersign" unicode="&#x23;" horiz-adv-x="367" d="M339 276 L264 276 L281 404 L362 404 L362 460 L288 460 L316 667 L262 667 L234 460 L165 460 L192 667 L139 667 L112 460 L29 460 L29 404 L105 404 L88 276 L4 276 L4 220 L80 220 L51 0 L104 0 L133 220 L203 220 L174 0 L228 0 L256 220 L339 220 L339 276 Z M227 404 L210 276 L141 276 L158 404 L227 404 Z " />
<glyph glyph-name="dollar" unicode="&#x24;" horiz-adv-x="366" d="M307 617 C279 637 233 654 202 656 L202 731 L153 731 L153 654 C73 634 31 579 31 494 C31 449 44 410 70 377 C92 349 111 335 168 302 C216 274 241 256 254 237 C268 218 277 189 277 163 C277 97 233 48 175 48 C143 48 117 60 77 92 L41 49 C75 14 102 1 153 -8 L153 -91 L202 -91 L202 -6 C281 8 335 78 335 166 C335 206 324 244 304 273 C286 299 263 317 208 349 C157 378 137 392 120 410 C101 432 89 465 89 497 C89 559 129 600 188 600 C216 600 240 592 276 570 L307 617 Z " />
<glyph glyph-name="percent" unicode="&#x25;" horiz-adv-x="503" d="M127 672 C71 672 40 608 40 494 C40 386 68 329 121 329 C175 329 202 389 202 509 C202 622 179 672 127 672 L127 672 Z M125 638 C152 638 165 599 165 514 C165 413 151 363 123 363 C94 363 77 411 77 495 C77 583 95 638 125 638 L125 638 Z M414 667 L378 667 L89 0 L125 0 L414 667 Z M388 338 C332 338 301 274 301 160 C301 52 329 -5 382 -5 C436 -5 463 55 463 175 C463 288 440 338 388 338 L388 338 Z M386 304 C413 304 426 265 426 180 C426 79 412 29 384 29 C355 29 338 77 338 161 C338 249 356 304 386 304 L386 304 Z " />
<glyph glyph-name="ampersand" unicode="&#x26;" horiz-adv-x="444" d="M386 192 C358 157 351 148 340 136 L225 354 C311 431 342 479 342 539 C342 610 291 663 222 663 C148 663 90 605 90 532 C90 490 108 441 152 364 C82 301 53 245 53 172 C53 71 124 -9 213 -9 C255 -9 289 5 324 37 L343 0 L409 0 L368 81 C395 109 410 127 427 150 L386 192 Z M196 402 C154 480 147 498 147 534 C147 576 178 609 219 609 C256 609 283 580 283 541 C283 495 253 448 196 402 L196 402 Z M295 90 C265 64 240 52 211 52 C155 52 110 106 110 171 C110 216 133 262 179 310 L295 90 Z " />
<glyph glyph-name="quotesingle" unicode="&#x27;" horiz-adv-x="180" d="M114 402 L127 667 L53 667 L66 402 L114 402 Z " />
<glyph glyph-name="parenleft" unicode="&#x28;" horiz-adv-x="260" d="M171 738 C98 607 53 431 53 278 C53 126 98 -51 171 -181 L220 -157 C144 -3 110 132 110 278 C110 425 144 560 220 714 L171 738 Z " />
<glyph glyph-name="parenright" unicode="&#x29;" horiz-adv-x="260" d="M89 -181 C162 -51 207 126 207 278 C207 431 162 607 89 738 L40 714 C116 560 150 425 150 278 C150 132 116 -3 40 -157 L89 -181 Z " />
<glyph glyph-name="asterisk" unicode="&#x2a;" horiz-adv-x="367" d="M165 610 L51 646 L41 613 L154 576 L84 479 L113 458 L183 555 L252 458 L281 479 L211 576 L325 613 L314 646 L200 610 L200 729 L165 729 L165 610 Z " />
<glyph glyph-name="plus" unicode="&#x2b;" horiz-adv-x="367" d="M33 313 L155 313 L155 191 L212 191 L212 313 L333 313 L333 368 L212 368 L212 489 L155 489 L155 368 L33 368 L33 313 Z " />
<glyph glyph-name="comma" unicode="&#x2c;" horiz-adv-x="177" d="M137 55 L75 83 L6 -122 L49 -142 L137 55 Z " />
<glyph glyph-name="hyphen" unicode="&#x2d;" horiz-adv-x="138" d="M0 202 L138 202 L138 272 L0 272 L0 202 Z " />
<glyph glyph-name="period" unicode="&#x2e;" horiz-adv-x="177" d="M88 83 C63 83 43 63 43 39 C43 13 63 -7 88 -7 C113 -7 133 13 133 38 C133 63 113 83 88 83 L88 83 Z " />
<glyph glyph-name="slash" unicode="&#x2f;" horiz-adv-x="408" d="M435 729 L378 729 L-13 -173 L45 -173 L435 729 Z " />
<glyph glyph-name="zero" unicode="0" horiz-adv-x="366" d="M194 676 C90 676 33 549 33 319 C33 105 85 -9 182 -9 C283 -9 333 111 333 350 C333 576 290 676 194 676 L194 676 Z M191 619 C247 619 273 537 273 362 C273 247 258 124 239 87 C226 61 208 48 186 48 C158 48 135 68 122 104 C103 159 93 235 93 323 C93 426 109 528 134 578 C146 603 168 619 191 619 L191 619 Z " />
<glyph glyph-name="one" unicode="1" horiz-adv-x="366" d="M224 667 L89 667 L76 609 L162 609 L162 0 L224 0 L224 667 Z " />
<glyph glyph-name="two" unicode="2" horiz-adv-x="365" d="M310 59 L128 59 L230 261 C302 403 318 452 318 527 C318 618 265 676 182 676 C120 676 73 640 57 580 C50 556 48 531 47 485 L108 485 C107 492 107 498 107 500 C107 579 133 619 184 619 C229 619 255 585 255 526 C255 466 238 415 174 283 L37 0 L310 0 L310 59 Z " />
<glyph glyph-name="three" unicode="3" horiz-adv-x="366" d="M108 511 C109 586 129 616 178 616 C227 616 251 583 251 517 C251 469 240 434 219 414 C202 399 184 393 144 393 L118 393 L118 338 L148 338 C222 338 259 290 259 192 C259 95 235 51 181 51 C125 51 105 86 104 183 L43 183 C42 47 83 -9 182 -9 C274 -9 319 54 319 181 C319 288 294 344 235 369 C288 394 311 441 311 522 C311 571 302 606 281 631 C259 659 219 676 178 676 C97 676 51 617 50 511 L108 511 Z " />
<glyph glyph-name="four" unicode="4" horiz-adv-x="366" d="M274 667 L213 667 L37 242 L37 179 L213 179 L213 0 L274 0 L274 179 L324 179 L324 236 L274 236 L274 667 Z M213 236 L96 236 L182 455 C203 508 210 527 220 569 L218 549 C215 505 213 478 213 446 L213 236 Z " />
<glyph glyph-name="five" unicode="5" horiz-adv-x="366" d="M299 667 L100 667 L59 321 C94 340 118 348 148 348 C216 348 255 293 255 198 C255 111 217 52 160 52 C130 52 103 63 65 90 L48 29 C82 4 121 -9 161 -9 C256 -9 318 72 318 198 C318 325 258 408 167 408 C154 408 147 407 131 405 L155 609 L299 609 L299 667 Z " />
<glyph glyph-name="six" unicode="6" horiz-adv-x="366" d="M264 667 L200 667 L100 425 C64 339 46 258 46 184 C46 61 98 -9 187 -9 C275 -9 321 55 321 179 C321 304 276 378 200 378 C176 378 159 372 134 355 L264 667 Z M183 325 C234 325 261 278 261 188 C261 90 238 45 189 45 C136 45 106 96 106 186 C106 275 134 325 183 325 L183 325 Z " />
<glyph glyph-name="seven" unicode="7" horiz-adv-x="366" d="M55 667 L55 609 L247 609 L59 0 L124 0 L329 667 L55 667 Z " />
<glyph glyph-name="eight" unicode="8" horiz-adv-x="366" d="M248 369 C297 397 318 442 318 514 C318 615 270 676 192 676 C109 676 58 614 58 512 C58 442 78 400 127 369 C72 347 43 284 43 185 C43 62 93 -9 180 -9 C273 -9 324 61 324 190 C324 287 302 339 248 369 L248 369 Z M187 619 C233 619 258 579 258 507 C258 437 233 398 189 398 C142 398 118 439 118 517 C118 583 142 619 187 619 L187 619 Z M184 341 C235 341 264 289 264 198 C264 98 237 48 183 48 C131 48 103 99 103 191 C103 287 132 341 184 341 L184 341 Z " />
<glyph glyph-name="nine" unicode="9" horiz-adv-x="366" d="M102 0 L167 0 L267 242 C303 330 321 409 321 483 C321 606 270 676 180 676 C92 676 46 612 46 488 C46 363 91 289 167 289 C190 289 207 295 233 312 L102 0 Z M178 623 C231 623 261 571 261 482 C261 392 233 342 184 342 C133 342 106 389 106 480 C106 578 129 623 178 623 L178 623 Z " />
<glyph glyph-name="colon" unicode="&#x3a;" horiz-adv-x="177" d="M88 460 C63 460 43 440 43 416 C43 390 63 370 88 370 C113 370 133 390 133 415 C133 440 113 460 88 460 L88 460 Z M88 83 C63 83 43 63 43 39 C43 13 63 -7 88 -7 C113 -7 133 13 133 38 C133 63 113 83 88 83 L88 83 Z " />
<glyph glyph-name="semicolon" unicode="&#x3b;" horiz-adv-x="177" d="M92 460 C67 460 47 440 47 416 C47 390 67 370 92 370 C117 370 137 390 137 415 C137 440 117 460 92 460 L92 460 Z M137 55 L75 83 L6 -122 L49 -142 L137 55 Z " />
<glyph glyph-name="less" unicode="&#x3c;" horiz-adv-x="500" d="M466 561 L33 362 L33 309 L466 111 L466 170 L98 336 L466 501 L466 561 Z " />
<glyph glyph-name="equal" unicode="&#x3d;" horiz-adv-x="366" d="M33 366 L333 366 L333 421 L33 421 L33 366 Z M33 260 L333 260 L333 315 L33 315 L33 260 Z " />
<glyph glyph-name="greater" unicode="&#x3e;" horiz-adv-x="500" d="M34 110 L467 309 L467 362 L34 561 L34 501 L402 336 L34 171 L34 110 Z " />
<glyph glyph-name="question" unicode="&#x3f;" horiz-adv-x="332" d="M104 167 L163 167 L163 327 C202 329 225 338 244 361 C269 389 278 432 278 523 C278 584 272 612 255 637 C239 661 205 676 168 676 C93 676 53 631 53 545 L53 498 L112 498 L112 540 C112 596 129 622 165 622 C204 622 217 596 217 517 C217 405 205 381 146 381 L104 381 L104 167 Z M136 83 C111 83 91 63 91 38 C91 14 111 -7 135 -7 C161 -7 181 13 181 38 C181 63 161 83 136 83 L136 83 Z " />
<glyph glyph-name="at" unicode="&#x40;" horiz-adv-x="661" d="M467 503 L415 503 L408 444 C398 465 398 465 394 471 C379 497 355 511 327 511 C249 511 189 428 189 319 C189 217 237 143 303 143 C341 143 358 157 393 213 L396 199 C402 169 431 145 461 145 C545 145 616 254 616 383 C616 549 494 676 336 676 C164 676 31 527 31 334 C31 210 88 97 181 38 C230 7 288 -9 353 -9 C425 -9 484 7 551 45 L527 96 C465 57 417 43 352 43 C298 43 252 56 213 81 C136 132 89 227 89 334 C89 496 196 622 335 622 C469 622 566 519 566 376 C566 282 521 195 471 195 C450 195 438 209 438 235 C438 253 439 265 441 281 L467 503 Z M332 459 C369 459 396 412 396 347 C396 266 354 195 307 195 C272 195 248 245 248 316 C248 397 284 459 332 459 L332 459 Z " />
<glyph glyph-name="A" unicode="A" horiz-adv-x="325" d="M190 667 L132 667 L1 0 L67 0 L91 137 L232 137 L258 0 L324 0 L190 667 Z M223 190 L101 190 L143 426 C150 470 155 516 160 583 C163 519 166 495 179 426 L223 190 Z " />
<glyph glyph-name="B" unicode="B" horiz-adv-x="351" d="M55 667 L55 0 L147 0 C208 0 234 6 263 28 C300 56 317 105 317 181 C317 280 292 322 219 342 C278 370 302 414 302 498 C302 565 282 620 250 645 C229 661 201 667 153 667 L55 667 Z M117 614 L157 614 C219 614 239 585 239 494 C239 403 216 372 150 372 L117 372 L117 614 Z M117 317 L153 317 C220 317 254 271 254 179 C254 89 224 53 150 53 L117 53 L117 317 Z " />
<glyph glyph-name="C" unicode="C" horiz-adv-x="320" d="M302 655 C280 670 254 677 222 677 C172 677 125 652 97 610 C58 551 38 449 38 312 C38 192 56 113 95 57 C123 17 170 -9 215 -9 C246 -9 273 0 302 19 L302 82 C269 60 247 52 220 52 C189 52 160 68 145 93 C117 140 102 225 102 338 C102 432 114 509 135 556 C153 594 187 617 225 617 C250 617 268 610 302 587 L302 655 Z " />
<glyph glyph-name="D" unicode="D" horiz-adv-x="371" d="M55 667 L55 0 L137 0 C205 0 249 17 278 53 C319 105 333 176 333 333 C333 593 289 667 133 667 L55 667 Z M117 610 L144 610 C202 610 233 588 250 535 C261 501 270 401 270 309 C270 175 259 124 223 85 C206 66 180 57 146 57 L117 57 L117 610 Z " />
<glyph glyph-name="E" unicode="E" horiz-adv-x="301" d="M264 667 L55 667 L55 0 L264 0 L264 57 L117 57 L117 318 L260 318 L260 375 L117 375 L117 610 L264 610 L264 667 Z " />
<glyph glyph-name="F" unicode="F" horiz-adv-x="295" d="M268 667 L55 667 L55 0 L117 0 L117 318 L260 318 L260 375 L117 375 L117 610 L268 610 L268 667 Z " />
<glyph glyph-name="G" unicode="G" horiz-adv-x="374" d="M183 352 L183 295 L274 295 L274 233 C274 151 270 112 260 91 C248 65 226 51 197 51 C161 51 134 74 122 115 C108 164 101 246 101 354 C101 538 130 616 199 616 C240 616 261 591 274 526 L335 550 C325 590 316 608 301 629 C279 659 241 676 200 676 C148 676 102 649 79 604 C50 551 38 475 38 347 C38 190 55 84 88 41 C113 8 150 -9 194 -9 C254 -9 297 21 320 78 C331 107 336 148 336 218 L336 352 L183 352 Z " />
<glyph glyph-name="H" unicode="H" horiz-adv-x="385" d="M331 667 L269 667 L269 401 L117 401 L117 667 L55 667 L55 0 L117 0 L117 344 L269 344 L269 0 L331 0 L331 667 Z " />
<glyph glyph-name="I" unicode="I" horiz-adv-x="171" d="M117 667 L55 667 L55 0 L117 0 L117 667 Z " />
<glyph glyph-name="J" unicode="J" horiz-adv-x="224" d="M169 667 L107 667 L107 127 C107 85 107 80 104 70 C98 52 84 43 62 43 C41 43 25 50 1 72 L1 8 C28 -5 48 -10 72 -10 C109 -10 140 3 154 24 C167 42 169 57 169 114 L169 667 Z " />
<glyph glyph-name="K" unicode="K" horiz-adv-x="329" d="M320 667 L251 667 L117 364 L117 667 L55 667 L55 0 L117 0 L117 336 L251 0 L321 0 L176 350 L320 667 Z " />
<glyph glyph-name="L" unicode="L" horiz-adv-x="263" d="M117 667 L55 667 L55 0 L262 0 L262 57 L117 57 L117 667 Z " />
<glyph glyph-name="M" unicode="M" horiz-adv-x="499" d="M396 667 L343 667 L265 208 C259 173 254 129 252 104 C251 124 247 162 240 210 L168 667 L115 667 L21 0 L82 0 L136 434 C139 461 140 477 141 532 L142 554 C145 510 149 470 154 434 L225 0 L275 0 L350 433 C354 459 358 486 360 513 L362 540 C362 541 363 547 364 554 C365 500 366 465 370 433 L417 0 L477 0 L396 667 Z " />
<glyph glyph-name="N" unicode="N" horiz-adv-x="387" d="M332 667 L278 667 L278 232 C279 187 280 170 284 135 L281 145 L275 165 C270 180 265 197 260 214 L109 667 L55 667 L55 0 L109 0 L109 416 C108 469 107 490 103 534 C113 500 114 496 115 490 C118 480 121 470 125 460 L131 440 L278 0 L332 0 L332 667 Z " />
<glyph glyph-name="O" unicode="O" horiz-adv-x="404" d="M202 676 C160 676 125 658 100 625 C58 569 38 475 38 334 C38 105 93 -9 202 -9 C313 -9 366 100 366 330 C366 566 314 676 202 676 L202 676 Z M203 616 C274 616 303 533 303 332 C303 134 274 52 203 52 C133 52 101 142 101 334 C101 527 133 616 203 616 L203 616 Z " />
<glyph glyph-name="P" unicode="P" horiz-adv-x="329" d="M117 0 L117 319 L143 319 C262 319 304 364 304 490 C304 618 257 667 135 667 L55 667 L55 0 L117 0 Z M117 610 L148 610 C217 610 241 579 241 490 C241 405 220 376 158 376 L117 376 L117 610 Z " />
<glyph glyph-name="Q" unicode="Q" horiz-adv-x="404" d="M317 58 C349 107 366 205 366 340 C366 566 312 676 202 676 C93 676 38 561 38 334 C38 107 93 -9 201 -9 C231 -9 257 -2 277 13 L317 -49 L366 -18 L317 58 Z M234 188 L185 156 L244 64 C231 55 221 52 204 52 C133 52 101 140 101 334 C101 527 133 616 203 616 C274 616 303 533 303 329 C303 234 295 165 280 116 L234 188 Z " />
<glyph glyph-name="R" unicode="R" horiz-adv-x="376" d="M126 326 L281 0 L352 0 L198 320 C288 327 329 379 329 490 C329 557 313 603 281 632 C252 658 217 667 142 667 L59 667 L59 0 L126 0 L126 326 Z M126 610 L160 610 C235 610 261 580 261 491 C261 406 236 375 168 375 L126 375 L126 610 Z " />
<glyph glyph-name="S" unicode="S" horiz-adv-x="347" d="M289 641 C253 666 223 676 184 676 C96 676 31 602 31 499 C31 422 61 377 154 314 C238 257 259 228 259 170 C259 101 216 51 158 51 C119 51 86 67 50 105 L50 25 C81 1 116 -10 155 -10 C249 -10 322 72 322 178 C322 257 293 298 181 374 C118 416 94 453 94 507 C94 571 134 616 190 616 C228 616 253 603 289 562 L289 641 Z " />
<glyph glyph-name="T" unicode="T" horiz-adv-x="265" d="M263 667 L1 667 L1 610 L101 610 L101 0 L163 0 L163 610 L263 610 L263 667 Z " />
<glyph glyph-name="U" unicode="U" horiz-adv-x="390" d="M336 667 L274 667 L274 205 C274 126 270 99 256 81 C243 62 221 52 196 52 C172 52 151 61 137 77 C121 96 117 120 117 205 L117 667 L55 667 L55 200 C55 123 59 91 72 64 C94 17 137 -9 196 -9 C250 -9 291 13 314 54 C331 83 336 115 336 200 L336 667 Z " />
<glyph glyph-name="V" unicode="V" horiz-adv-x="326" d="M324 667 L261 667 L180 223 C174 189 169 146 164 91 C158 165 157 177 148 225 L64 667 L1 667 L135 0 L189 0 L324 667 Z " />
<glyph glyph-name="W" unicode="W" horiz-adv-x="506" d="M504 667 L441 667 L375 248 C366 189 361 154 359 122 C352 172 347 213 342 245 L280 667 L227 667 L155 252 L152 229 C146 191 142 168 141 160 C140 147 138 135 136 122 C132 177 128 218 125 247 L64 667 L1 667 L107 0 L164 0 L238 431 C241 447 248 498 249 520 L251 541 C251 543 252 549 253 558 C255 515 258 487 265 434 L330 0 L386 0 L504 667 Z " />
<glyph glyph-name="X" unicode="X" horiz-adv-x="318" d="M317 667 L250 667 L191 498 C175 454 163 414 159 385 C152 424 142 462 127 502 L67 667 L1 667 L130 339 L1 0 L67 0 L130 187 C148 238 155 259 159 284 C162 260 171 229 185 189 L250 0 L317 0 L190 339 L317 667 Z " />
<glyph glyph-name="Y" unicode="Y" horiz-adv-x="316" d="M315 667 L248 667 L191 475 C172 411 168 392 161 353 C151 403 146 424 131 472 L68 667 L1 667 L131 292 L131 0 L193 0 L193 292 L315 667 Z " />
<glyph glyph-name="Z" unicode="Z" horiz-adv-x="279" d="M271 667 L26 667 L26 610 L193 610 L8 0 L253 0 L253 57 L84 57 L271 667 Z " />
<glyph glyph-name="bracketleft" unicode="&#x5b;" horiz-adv-x="267" d="M73 -173 L234 -173 L234 -126 L132 -126 L132 682 L234 682 L234 729 L73 729 L73 -173 Z " />
<glyph glyph-name="backslash" unicode="&#x5c;" horiz-adv-x="408" d="M-27 729 L363 -173 L421 -173 L30 729 L-27 729 Z " />
<glyph glyph-name="bracketright" unicode="&#x5d;" horiz-adv-x="267" d="M194 729 L33 729 L33 682 L135 682 L135 -126 L33 -126 L33 -173 L194 -173 L194 729 Z " />
<glyph glyph-name="asciicircum" unicode="&#x5e;" horiz-adv-x="500" d="M96 372 L249 621 L404 372 L470 372 L290 668 L211 668 L30 372 L96 372 Z " />
<glyph glyph-name="underscore" unicode="&#x5f;" horiz-adv-x="500" d="M0 -70 L0 -126 L500 -126 L500 -70 L0 -70 Z " />
<glyph glyph-name="grave" unicode="&#x60;" horiz-adv-x="500" d="M195 652 L145 611 L249 507 L285 534 L195 652 Z " />
<glyph glyph-name="a" unicode="a" horiz-adv-x="331" d="M281 453 L224 453 L224 422 C201 450 183 460 152 460 C72 460 39 394 39 231 C39 61 69 -7 146 -7 C178 -7 200 5 224 36 L224 0 L281 0 L281 453 Z M165 413 C213 413 229 367 229 234 C229 84 214 40 164 40 C114 40 98 88 98 238 C98 362 118 413 165 413 L165 413 Z " />
<glyph glyph-name="b" unicode="b" horiz-adv-x="325" d="M50 729 L50 0 L107 0 L107 36 C131 5 153 -7 185 -7 C262 -7 292 61 292 233 C292 395 260 460 179 460 C148 460 129 450 107 422 L107 729 L50 729 Z M166 413 C213 413 233 361 233 238 C233 88 217 40 167 40 C117 40 102 85 102 238 C102 366 119 413 166 413 L166 413 Z " />
<glyph glyph-name="c" unicode="c" horiz-adv-x="248" d="M228 443 C208 454 188 460 166 460 C82 460 33 372 33 218 C33 138 47 82 78 40 C99 11 132 -7 163 -7 C186 -7 209 1 228 16 L228 87 C206 56 191 46 170 46 C123 46 92 116 92 223 C92 339 121 407 172 407 C192 407 207 398 228 376 L228 443 Z " />
<glyph glyph-name="d" unicode="d" horiz-adv-x="325" d="M275 729 L218 729 L218 422 C195 450 177 460 146 460 C66 460 33 394 33 231 C33 61 63 -7 140 -7 C172 -7 194 5 218 36 L218 0 L275 0 L275 729 Z M159 413 C206 413 223 366 223 234 C223 85 208 40 158 40 C108 40 92 88 92 238 C92 362 112 413 159 413 L159 413 Z " />
<glyph glyph-name="e" unicode="e" horiz-adv-x="317" d="M283 215 L283 243 C283 380 238 460 160 460 C81 460 33 372 33 225 C33 74 79 -7 165 -7 C236 -7 275 49 279 154 L222 154 C218 78 200 46 161 46 C116 46 90 107 91 215 L283 215 Z M92 263 C96 357 120 407 162 407 C187 407 208 385 216 350 C222 323 225 305 226 263 L92 263 Z " />
<glyph glyph-name="f" unicode="f" horiz-adv-x="206" d="M203 453 L124 453 L124 621 C124 651 125 659 132 668 C138 677 150 683 162 683 C174 683 184 678 203 664 L203 726 C185 733 170 736 152 736 C127 736 104 726 90 709 C73 688 67 666 67 621 L67 453 L16 453 L16 400 L67 400 L67 0 L124 0 L124 400 L203 400 L203 453 Z " />
<glyph glyph-name="g" unicode="g" horiz-adv-x="335" d="M285 453 L228 453 L228 422 C206 448 183 460 153 460 C77 460 39 385 39 236 C39 71 74 0 155 0 C185 0 206 9 228 32 L228 -4 C227 -74 226 -86 220 -99 C211 -118 194 -127 168 -127 C125 -127 107 -101 107 -37 L50 -37 L50 -55 C50 -136 91 -180 167 -180 C207 -180 238 -168 259 -145 C279 -122 285 -97 285 -27 L285 453 Z M164 413 C214 413 233 363 233 235 C233 91 218 47 169 47 C119 47 98 100 98 222 C98 360 116 413 164 413 L164 413 Z " />
<glyph glyph-name="h" unicode="h" horiz-adv-x="334" d="M107 729 L50 729 L50 0 L107 0 L107 305 C107 347 111 367 122 384 C133 401 155 413 176 413 C193 413 209 405 217 392 C226 378 227 369 227 325 L227 0 L284 0 L284 334 C284 383 280 407 267 427 C253 447 225 460 195 460 C162 460 132 445 107 417 L107 729 Z " />
<glyph glyph-name="i" unicode="i" horiz-adv-x="157" d="M107 453 L50 453 L50 0 L107 0 L107 453 Z M79 630 C55 630 36 611 36 587 C36 564 55 545 79 545 C102 545 121 564 121 588 C121 611 102 630 79 630 L79 630 Z " />
<glyph glyph-name="j" unicode="j" horiz-adv-x="161" d="M110 453 L53 453 L53 -173 L110 -173 L110 453 Z M82 630 C58 630 39 611 39 587 C39 564 58 545 82 545 C105 545 124 564 124 588 C124 611 105 630 82 630 L82 630 Z " />
<glyph glyph-name="k" unicode="k" horiz-adv-x="314" d="M107 729 L50 729 L50 0 L107 0 L107 217 L248 0 L320 0 L154 250 L284 453 L219 453 L107 269 L107 729 Z " />
<glyph glyph-name="l" unicode="l" horiz-adv-x="157" d="M107 729 L50 729 L50 0 L107 0 L107 729 Z " />
<glyph glyph-name="m" unicode="m" horiz-adv-x="514" d="M464 0 L464 337 C464 386 460 406 446 426 C433 447 404 460 372 460 C333 460 308 446 278 407 C260 443 233 460 194 460 C162 460 134 446 107 415 L107 453 L50 453 L50 0 L107 0 L107 281 C107 342 111 363 124 384 C136 401 158 413 180 413 C214 413 228 391 228 334 L228 0 L285 0 L285 289 C285 337 288 361 296 377 C308 399 330 413 355 413 C391 413 407 389 407 335 L407 0 L464 0 Z " />
<glyph glyph-name="n" unicode="n" horiz-adv-x="334" d="M107 453 L50 453 L50 0 L107 0 L107 305 C107 347 111 367 122 384 C133 401 155 413 176 413 C193 413 209 405 217 392 C226 378 227 369 227 325 L227 0 L284 0 L284 334 C284 421 256 460 195 460 C162 460 132 445 107 417 L107 453 Z " />
<glyph glyph-name="o" unicode="o" horiz-adv-x="327" d="M165 460 C80 460 33 378 33 227 C33 74 79 -7 166 -7 C250 -7 293 70 293 221 C293 383 252 460 165 460 L165 460 Z M164 407 C210 407 234 345 234 224 C234 169 226 115 214 84 C204 61 185 46 164 46 C117 46 92 107 92 222 C92 345 116 407 164 407 L164 407 Z " />
<glyph glyph-name="p" unicode="p" horiz-adv-x="325" d="M50 453 L50 -173 L107 -173 L107 36 C131 5 153 -7 185 -7 C262 -7 292 61 292 231 C292 394 259 460 179 460 C148 460 130 450 107 422 L107 453 L50 453 Z M166 413 C213 413 233 361 233 238 C233 88 217 40 167 40 C117 40 102 85 102 238 C102 366 119 413 166 413 L166 413 Z " />
<glyph glyph-name="q" unicode="q" horiz-adv-x="331" d="M281 453 L224 453 L224 422 C201 450 183 460 152 460 C72 460 39 394 39 231 C39 61 69 -7 146 -7 C178 -7 200 5 224 36 L224 -173 L281 -173 L281 453 Z M165 413 C212 413 229 366 229 234 C229 85 214 40 164 40 C114 40 98 88 98 238 C98 362 118 413 165 413 L165 413 Z " />
<glyph glyph-name="r" unicode="r" horiz-adv-x="197" d="M50 453 L50 0 L107 0 L107 275 C107 307 109 330 112 342 C120 372 145 394 172 394 C176 394 179 394 184 393 L184 460 C153 460 127 438 107 393 L107 453 L50 453 Z " />
<glyph glyph-name="s" unicode="s" horiz-adv-x="251" d="M221 431 C192 452 170 460 140 460 C75 460 28 412 28 346 C28 302 50 267 109 215 C163 168 175 150 175 116 C175 76 147 46 109 46 C81 46 61 57 28 91 L28 24 C56 3 83 -7 112 -7 C182 -7 234 48 234 121 C234 172 217 200 151 254 C102 295 87 316 87 348 C87 382 111 407 144 407 C171 407 194 393 221 361 L221 431 Z " />
<glyph glyph-name="t" unicode="t" horiz-adv-x="201" d="M200 453 L124 453 L124 577 L67 577 L67 453 L19 453 L19 400 L67 400 L67 0 L124 0 L124 400 L200 400 L200 453 Z " />
<glyph glyph-name="u" unicode="u" horiz-adv-x="336" d="M50 453 L50 110 C50 38 95 -7 168 -7 C241 -7 286 38 286 110 L286 453 L229 453 L229 158 C229 113 227 92 220 78 C211 57 193 46 168 46 C144 46 127 56 118 74 C110 89 107 110 107 158 L107 453 L50 453 Z " />
<glyph glyph-name="v" unicode="v" horiz-adv-x="280" d="M273 453 L214 453 L158 180 C149 135 146 113 143 85 C137 124 137 125 126 182 L66 453 L7 453 L111 0 L173 0 L273 453 Z " />
<glyph glyph-name="w" unicode="w" horiz-adv-x="445" d="M435 453 L377 453 L321 179 C316 150 311 122 306 83 L304 100 C297 155 297 158 295 168 L293 180 L249 453 L191 453 L145 175 L143 165 L137 127 C137 123 136 115 134 104 L132 83 C130 112 127 132 119 178 L68 453 L10 453 L101 0 L160 0 L210 305 C211 312 212 318 212 319 L215 344 L217 364 L219 377 C220 362 221 355 223 344 L226 320 L228 306 L277 0 L336 0 L435 453 Z " />
<glyph glyph-name="x" unicode="x" horiz-adv-x="283" d="M277 453 L213 453 L171 345 C157 311 152 295 145 261 C140 288 135 308 122 342 L81 453 L18 453 L111 231 L7 0 L71 0 L121 128 C130 150 136 172 141 196 C144 176 150 158 162 129 L213 0 L277 0 L175 231 L277 453 Z " />
<glyph glyph-name="y" unicode="y" horiz-adv-x="293" d="M287 453 L227 453 L166 193 L161 174 C157 155 153 139 150 126 C146 106 146 106 143 88 C141 109 133 151 123 202 L66 453 L7 453 L115 12 L71 -164 L132 -164 L287 453 Z " />
<glyph glyph-name="z" unicode="z" horiz-adv-x="275" d="M240 53 L87 53 L270 453 L29 453 L29 400 L183 400 L5 0 L240 0 L240 53 Z " />
<glyph glyph-name="braceleft" unicode="&#x7b;" horiz-adv-x="275" d="M164 581 C163 661 178 682 234 681 L244 681 L244 731 L228 731 C146 731 108 688 108 594 L108 398 C107 344 92 321 51 310 L51 251 C93 239 108 215 108 157 L108 -27 C108 -137 145 -177 244 -174 L244 -125 C175 -125 165 -111 164 -21 L164 160 C164 223 147 255 103 278 C149 300 162 326 164 394 L164 581 Z " />
<glyph glyph-name="bar" unicode="&#x7c;" horiz-adv-x="500" d="M220 667 L220 -167 L280 -167 L280 667 L220 667 Z " />
<glyph glyph-name="braceright" unicode="&#x7d;" horiz-adv-x="275" d="M110 -24 C110 -99 98 -120 54 -124 L41 -124 C39 -124 36 -124 31 -125 L31 -174 L46 -174 C128 -174 166 -131 166 -37 L166 158 C167 212 182 235 224 247 L224 306 C181 318 166 342 166 399 L166 584 C166 688 131 731 46 731 L31 731 L31 681 C98 683 110 667 110 578 L110 397 C110 333 127 302 171 279 C125 257 112 231 110 163 L110 -24 Z " />
<glyph glyph-name="asciitilde" unicode="&#x7e;" horiz-adv-x="667" d="M132 587 C161 640 188 662 224 662 C241 662 265 655 295 642 C385 600 405 593 434 593 C492 593 536 626 574 701 L535 723 C504 671 480 653 441 653 C416 653 401 658 342 686 C287 712 256 722 228 722 C171 722 136 693 94 611 L132 587 Z " />
<glyph glyph-name="uni00A0" unicode="&#xa0;" horiz-adv-x="187" d="" />
<glyph glyph-name="exclamdown" unicode="&#xa1;" horiz-adv-x="237" d="M148 327 L88 327 L88 -173 L148 -173 L148 327 Z M119 500 C93 500 73 480 73 455 C73 430 93 410 118 410 C143 410 163 430 163 455 C163 480 143 500 119 500 L119 500 Z " />
<glyph glyph-name="cent" unicode="&#xa2;" horiz-adv-x="366" d="M188 572 C156 561 138 546 123 522 C97 479 83 415 83 335 C83 212 117 140 188 113 L188 25 L238 25 L238 113 C257 119 265 123 278 133 L278 204 C256 173 242 163 220 163 C173 163 142 233 142 340 C142 456 171 523 222 523 C242 523 257 515 278 493 L278 559 C265 567 258 570 238 574 L238 653 L188 653 L188 572 Z " />
<glyph glyph-name="sterling" unicode="&#xa3;" horiz-adv-x="366" d="M283 301 L178 301 C133 370 106 441 106 491 C106 556 139 596 192 596 C242 596 274 559 276 499 L334 510 C331 597 274 656 195 656 C105 656 43 588 43 491 C43 430 61 378 110 301 L39 301 L39 259 L132 259 C148 235 157 205 157 175 C157 147 149 125 131 97 C124 98 118 99 116 99 C82 99 51 75 29 30 L80 0 C90 28 104 40 123 40 C134 40 141 37 162 24 C223 -16 231 -19 257 -19 C304 -19 339 17 344 72 L292 89 C288 56 277 40 257 40 C242 40 233 44 204 65 C194 71 188 76 179 81 C202 110 217 150 217 188 C217 213 212 232 199 259 L283 259 L283 301 Z " />
<glyph glyph-name="currency" unicode="&#xa4;" horiz-adv-x="667" d="M63 120 L98 85 L190 177 C240 141 284 126 335 126 C388 126 432 142 479 179 L573 85 L608 120 L514 214 C550 262 565 304 565 356 C565 408 550 451 514 499 L607 592 L571 627 L478 535 C430 572 387 587 334 587 C280 587 238 571 189 534 L95 627 L60 592 L153 498 C117 451 102 409 102 357 C102 304 119 257 155 213 L63 120 Z M336 532 C430 532 508 452 508 356 C508 259 430 181 333 181 C237 181 159 260 159 356 C159 454 237 532 336 532 L336 532 Z " />
<glyph glyph-name="yen" unicode="&#xa5;" horiz-adv-x="366" d="M257 417 L338 667 L274 667 L217 474 C196 400 194 393 187 353 C178 401 173 417 156 472 L93 667 L29 667 L116 417 L16 417 L16 376 L130 376 L152 311 L16 311 L16 270 L159 270 L159 0 L216 0 L216 270 L351 270 L351 311 L222 311 L243 376 L351 376 L351 417 L257 417 Z " />
<glyph glyph-name="brokenbar" unicode="&#xa6;" horiz-adv-x="500" d="M220 667 L220 337 L280 337 L280 667 L220 667 Z M220 153 L220 -167 L280 -167 L280 153 L220 153 Z " />
<glyph glyph-name="section" unicode="&#xa7;" horiz-adv-x="367" d="M312 602 C309 640 304 658 292 679 C271 717 230 740 186 740 C113 740 61 683 61 602 C61 539 86 494 143 457 C79 439 42 376 42 283 C42 228 56 178 81 145 C97 124 112 113 161 87 C228 52 252 20 252 -33 C252 -87 224 -123 183 -123 C140 -123 119 -94 115 -29 L57 -29 C60 -65 64 -81 73 -102 C93 -148 135 -176 184 -176 C258 -176 309 -118 309 -35 C309 26 284 71 233 104 C292 122 325 184 325 277 C325 329 315 376 296 405 C281 429 270 438 202 481 C138 522 118 550 118 598 C118 650 146 687 185 687 C224 687 246 660 253 602 L312 602 Z M183 419 C240 419 268 370 268 268 C268 184 240 141 184 141 C129 141 99 190 99 281 C99 367 130 419 183 419 L183 419 Z " />
<glyph glyph-name="dieresis" unicode="&#xa8;" horiz-adv-x="500" d="M189 604 C165 604 145 584 145 561 C145 537 165 517 188 517 C213 517 232 536 232 561 C232 585 213 604 189 604 L189 604 Z M313 604 C289 604 269 584 269 561 C269 537 289 517 312 517 C337 517 356 536 356 561 C356 585 337 604 313 604 L313 604 Z " />
<glyph glyph-name="copyright" unicode="&#xa9;" horiz-adv-x="756" d="M434 524 C414 535 400 539 377 539 C296 539 254 466 254 323 C254 249 265 203 291 169 C310 144 342 128 373 128 C394 128 413 134 434 147 L434 199 C403 180 393 176 376 176 C329 176 307 226 307 335 C307 441 330 491 379 491 C393 491 403 487 424 475 C428 472 430 471 434 469 L434 524 Z M382 679 C187 679 33 526 33 333 C33 143 188 -12 378 -12 C568 -12 722 143 722 333 C722 522 568 679 382 679 L382 679 Z M382 643 C546 643 683 503 683 333 C683 163 546 24 378 24 C209 24 72 163 72 333 C72 507 208 643 382 643 L382 643 Z " />
<glyph glyph-name="ordfeminine" unicode="&#xaa;" horiz-adv-x="240" d="M27 284 L214 284 L214 317 L27 317 L27 284 Z M193 667 L151 667 L151 652 C138 665 125 671 107 671 C54 671 32 628 32 523 C32 412 52 368 103 368 C123 368 137 374 151 390 L151 372 L193 372 L193 667 Z M115 636 C144 636 154 607 154 524 C154 431 145 403 115 403 C85 403 75 435 75 527 C75 604 87 636 115 636 L115 636 Z " />
<glyph glyph-name="guillemotleft" unicode="&#xab;" horiz-adv-x="325" d="M292 404 L253 425 L145 237 L253 43 L292 66 L197 237 L292 404 Z M180 404 L141 425 L33 237 L141 43 L180 66 L85 237 L180 404 Z " />
<glyph glyph-name="logicalnot" unicode="&#xac;" horiz-adv-x="500" d="M406 0 L466 0 L466 267 L33 267 L33 211 L406 211 L406 0 Z " />
<glyph glyph-name="uni00AD" unicode="&#xad;" horiz-adv-x="138" d="M0 202 L138 202 L138 272 L0 272 L0 202 Z " />
<glyph glyph-name="registered" unicode="&#xae;" horiz-adv-x="756" d="M343 299 L422 133 L478 133 L388 320 C437 327 461 361 461 424 C461 503 429 533 346 533 L291 533 L291 133 L343 133 L343 299 Z M343 487 L356 487 C396 487 408 472 408 425 C408 379 396 364 360 364 L343 364 L343 487 Z M382 679 C187 679 33 526 33 333 C33 143 188 -12 378 -12 C568 -12 722 143 722 333 C722 522 568 679 382 679 L382 679 Z M382 643 C546 643 683 503 683 333 C683 163 546 24 378 24 C209 24 72 163 72 333 C72 507 208 643 382 643 L382 643 Z " />
<glyph glyph-name="macron" unicode="&#xaf;" horiz-adv-x="500" d="M146 530 L355 530 L355 583 L146 583 L146 530 Z " />
<glyph glyph-name="degree" unicode="&#xb0;" horiz-adv-x="367" d="M185 680 C101 680 34 616 34 534 C34 454 101 389 183 389 C265 389 332 454 332 534 C332 614 265 680 185 680 L185 680 Z M184 633 C236 633 280 588 280 534 C280 480 236 436 183 436 C129 436 85 480 85 534 C85 590 128 633 184 633 L184 633 Z " />
<glyph glyph-name="plusminus" unicode="&#xb1;" horiz-adv-x="366" d="M33 313 L155 313 L155 191 L212 191 L212 313 L333 313 L333 368 L212 368 L212 489 L155 489 L155 368 L33 368 L33 313 Z M33 93 L333 93 L333 148 L33 148 L33 93 Z " />
<glyph glyph-name="twosuperior" unicode="&#xb2;" horiz-adv-x="252" d="M209 307 L97 307 L158 422 C203 505 214 536 214 581 C214 637 179 673 125 673 C85 673 55 651 44 614 C40 598 38 583 38 553 L82 553 L82 565 C82 610 97 633 127 633 C153 633 169 614 169 581 C169 545 159 518 118 438 L30 266 L209 266 L209 307 Z " />
<glyph glyph-name="threesuperior" unicode="&#xb3;" horiz-adv-x="252" d="M82 569 C82 615 93 631 123 631 C151 631 165 613 165 576 C165 524 148 505 101 505 L82 505 L82 467 L103 467 C148 467 170 440 170 383 C170 327 156 303 124 303 C91 303 80 322 79 381 L35 381 L35 363 C35 296 66 262 125 262 C184 262 214 301 214 377 C214 438 202 467 166 488 C198 509 209 532 209 579 C209 639 178 673 123 673 C69 673 40 637 40 569 L82 569 Z " />
<glyph glyph-name="acute" unicode="&#xb4;" horiz-adv-x="500" d="M305 652 L215 534 L251 507 L355 611 L305 652 Z " />
<glyph glyph-name="mu" unicode="&#xb5;" horiz-adv-x="336" d="M107 -167 L104 16 C127 -1 144 -7 172 -7 C240 -7 286 40 286 110 L286 453 L229 453 L229 158 C229 113 227 92 220 78 C211 57 193 46 168 46 C122 46 107 72 107 154 L107 453 L50 453 L50 -167 L107 -167 Z " />
<glyph glyph-name="paragraph" unicode="&#xb6;" horiz-adv-x="367" d="M115 -99 L175 -99 L175 609 L233 609 L233 -99 L293 -99 L293 609 L334 609 L347 667 L137 667 C47 667 -3 608 -3 499 C-3 402 39 338 101 338 L115 338 L115 -99 Z " />
<glyph glyph-name="periodcentered" unicode="&#xb7;" horiz-adv-x="177" d="M88 282 C63 282 43 262 43 238 C43 212 63 192 88 192 C113 192 133 212 133 237 C133 262 113 282 88 282 L88 282 Z " />
<glyph glyph-name="cedilla" unicode="&#xb8;" horiz-adv-x="500" d="M310 -63 L264 -37 L192 -172 L226 -193 L310 -63 Z " />
<glyph glyph-name="onesuperior" unicode="&#xb9;" horiz-adv-x="253" d="M155 667 L65 667 L55 626 L110 626 L110 267 L155 267 L155 667 Z " />
<glyph glyph-name="ordmasculine" unicode="&#xba;" horiz-adv-x="240" d="M27 284 L214 284 L214 317 L27 317 L27 284 Z M122 671 C65 671 34 618 34 520 C34 421 65 368 122 368 C178 368 207 418 207 516 C207 621 180 671 122 671 L122 671 Z M121 632 C149 632 163 593 163 518 C163 446 148 407 121 407 C92 407 77 445 77 516 C77 593 92 632 121 632 L121 632 Z " />
<glyph glyph-name="guillemotright" unicode="&#xbb;" horiz-adv-x="325" d="M33 404 L128 237 L33 66 L71 43 L180 237 L71 425 L33 404 Z M145 404 L240 237 L145 66 L183 43 L292 237 L183 425 L145 404 Z " />
<glyph glyph-name="onequarter" unicode="&#xbc;" horiz-adv-x="622" d="M156 667 L66 667 L56 626 L111 626 L111 267 L156 267 L156 667 Z M476 667 L436 667 L146 0 L188 0 L476 667 Z M556 400 L512 400 L401 146 L401 106 L511 106 L511 0 L556 0 L556 106 L587 106 L587 145 L556 145 L556 400 Z M511 145 L445 145 L497 270 L503 286 C505 290 508 298 513 310 C511 287 511 278 511 266 L511 145 Z " />
<glyph glyph-name="onehalf" unicode="&#xbd;" horiz-adv-x="622" d="M156 667 L66 667 L56 626 L111 626 L111 267 L156 267 L156 667 Z M476 667 L436 667 L146 0 L188 0 L476 667 Z M578 41 L466 41 L527 156 C572 239 583 271 583 315 C583 371 548 406 494 406 C454 406 424 384 413 347 C409 332 407 317 407 287 L451 287 L451 298 C451 345 465 367 496 367 C522 367 538 348 538 315 C538 279 528 252 487 172 L399 0 L578 0 L578 41 Z " />
<glyph glyph-name="threequarters" unicode="&#xbe;" horiz-adv-x="621" d="M82 569 C82 615 93 631 123 631 C151 631 165 613 165 576 C165 524 148 505 101 505 L82 505 L82 467 L103 467 C148 467 170 440 170 383 C170 327 156 303 124 303 C91 303 80 322 79 381 L35 381 L35 363 C35 296 66 262 125 262 C184 262 214 301 214 377 C214 438 202 467 166 488 C198 509 209 532 209 579 C209 639 178 673 123 673 C69 673 40 637 40 569 L82 569 Z M475 667 L435 667 L146 0 L187 0 L475 667 Z M555 400 L511 400 L400 146 L400 106 L510 106 L510 0 L555 0 L555 106 L585 106 L585 145 L555 145 L555 400 Z M510 145 L444 145 L496 270 L503 286 C505 290 508 298 512 310 C510 287 510 278 510 266 L510 145 Z " />
<glyph glyph-name="questiondown" unicode="&#xbf;" horiz-adv-x="331" d="M227 327 L168 327 L168 166 C129 165 106 155 87 132 C62 104 53 61 53 -30 C53 -90 59 -118 76 -143 C92 -167 126 -182 163 -182 C238 -182 278 -137 278 -52 L278 -5 L219 -5 L219 -46 C219 -102 202 -128 165 -128 C126 -128 113 -102 113 -23 C113 88 126 112 185 112 L227 112 L227 327 Z M196 500 C170 500 150 480 150 455 C150 430 170 410 195 410 C220 410 240 430 240 455 C240 480 220 500 196 500 L196 500 Z " />
<glyph glyph-name="Agrave" unicode="&#xc0;" horiz-adv-x="325" d="M190 667 L132 667 L1 0 L67 0 L91 137 L232 137 L258 0 L324 0 L190 667 Z M223 190 L101 190 L143 426 C150 470 155 516 160 583 C163 519 166 495 179 426 L223 190 Z M105 859 L55 817 L159 713 L195 740 L105 859 Z " />
<glyph glyph-name="Aacute" unicode="&#xc1;" horiz-adv-x="325" d="M190 667 L132 667 L1 0 L67 0 L91 137 L232 137 L258 0 L324 0 L190 667 Z M223 190 L101 190 L143 426 C150 470 155 516 160 583 C163 519 166 495 179 426 L223 190 Z M215 859 L126 740 L161 713 L266 817 L215 859 Z " />
<glyph glyph-name="Acircumflex" unicode="&#xc2;" horiz-adv-x="325" d="M190 667 L132 667 L1 0 L67 0 L91 137 L232 137 L258 0 L324 0 L190 667 Z M223 190 L101 190 L143 426 C150 470 155 516 160 583 C163 519 166 495 179 426 L223 190 Z M161 859 L50 752 L87 713 L161 783 L235 713 L276 752 L161 859 Z " />
<glyph glyph-name="Atilde" unicode="&#xc3;" horiz-adv-x="325" d="M190 667 L132 667 L1 0 L67 0 L91 137 L232 137 L258 0 L324 0 L190 667 Z M223 190 L101 190 L143 426 C150 470 155 516 160 583 C163 519 166 495 179 426 L223 190 Z M221 805 C220 785 216 780 204 780 C198 780 190 783 163 795 C141 806 129 809 115 809 C77 809 54 783 47 733 L103 733 L103 738 C103 750 110 758 120 758 C124 758 131 756 141 751 C174 734 191 729 208 729 C250 729 273 755 277 805 L221 805 Z " />
<glyph glyph-name="Adieresis" unicode="&#xc4;" horiz-adv-x="325" d="M190 667 L132 667 L1 0 L67 0 L91 137 L232 137 L258 0 L324 0 L190 667 Z M223 190 L101 190 L143 426 C150 470 155 516 160 583 C163 519 166 495 179 426 L223 190 Z M99 810 C75 810 55 790 55 767 C55 743 75 723 98 723 C123 723 142 742 142 767 C142 791 123 810 99 810 L99 810 Z M227 810 C203 810 183 790 183 767 C183 743 203 723 226 723 C251 723 270 742 270 767 C270 791 251 810 227 810 L227 810 Z " />
<glyph glyph-name="Aring" unicode="&#xc5;" horiz-adv-x="325" d="M190 667 L132 667 L1 0 L67 0 L91 137 L232 137 L258 0 L324 0 L190 667 Z M223 190 L101 190 L143 426 C150 470 155 516 160 583 C163 519 166 495 179 426 L223 190 Z M163 863 C120 863 86 829 86 787 C86 745 120 710 162 710 C205 710 239 744 239 787 C239 829 205 863 163 863 L163 863 Z M163 823 C183 823 199 807 199 787 C199 766 183 750 162 750 C142 750 126 767 126 787 C126 807 142 823 163 823 L163 823 Z " />
<glyph glyph-name="AE" unicode="&#xc6;" horiz-adv-x="462" d="M354 667 L132 667 L1 0 L67 0 L90 137 L242 137 L264 0 L470 0 L461 57 L321 57 L274 318 L409 318 L399 375 L264 375 L221 610 L364 610 L354 667 Z M233 190 L101 190 L151 473 C163 544 165 558 170 595 C176 536 178 518 186 472 L233 190 Z " />
<glyph glyph-name="Ccedilla" unicode="&#xc7;" horiz-adv-x="320" d="M236 -67 L188 -40 L111 -186 L148 -207 L236 -67 Z M302 655 C280 670 254 677 222 677 C172 677 125 652 97 610 C58 552 38 449 38 313 C38 192 55 113 95 57 C123 17 170 -9 215 -9 C245 -9 273 0 302 19 L302 82 C270 60 246 52 220 52 C189 52 160 68 145 93 C117 140 102 225 102 337 C102 432 114 509 135 556 C153 594 187 617 225 617 C250 617 268 610 302 587 L302 655 Z " />
<glyph glyph-name="Egrave" unicode="&#xc8;" horiz-adv-x="301" d="M264 667 L55 667 L55 0 L264 0 L264 57 L117 57 L117 318 L260 318 L260 375 L117 375 L117 610 L264 610 L264 667 Z M126 859 L76 817 L180 713 L216 740 L126 859 Z " />
<glyph glyph-name="Eacute" unicode="&#xc9;" horiz-adv-x="301" d="M264 667 L55 667 L55 0 L264 0 L264 57 L117 57 L117 318 L260 318 L260 375 L117 375 L117 610 L264 610 L264 667 Z M206 859 L116 740 L152 713 L256 817 L206 859 Z " />
<glyph glyph-name="Ecircumflex" unicode="&#xca;" horiz-adv-x="301" d="M263 667 L54 667 L54 0 L263 0 L263 57 L116 57 L116 318 L259 318 L259 375 L116 375 L116 610 L263 610 L263 667 Z M157 859 L46 752 L83 713 L157 783 L231 713 L272 752 L157 859 Z " />
<glyph glyph-name="Edieresis" unicode="&#xcb;" horiz-adv-x="301" d="M264 667 L55 667 L55 0 L264 0 L264 57 L117 57 L117 318 L260 318 L260 375 L117 375 L117 610 L264 610 L264 667 Z M96 810 C72 810 52 790 52 767 C52 743 72 723 95 723 C120 723 139 742 139 767 C139 791 120 810 96 810 L96 810 Z M224 810 C200 810 180 790 180 767 C180 743 200 723 223 723 C248 723 267 742 267 767 C267 791 248 810 224 810 L224 810 Z " />
<glyph glyph-name="Igrave" unicode="&#xcc;" horiz-adv-x="171" d="M117 667 L55 667 L55 0 L117 0 L117 667 Z M39 859 L-11 818 L87 713 L122 740 L39 859 Z " />
<glyph glyph-name="Iacute" unicode="&#xcd;" horiz-adv-x="171" d="M117 667 L55 667 L55 0 L117 0 L117 667 Z M132 859 L49 740 L85 713 L182 818 L132 859 Z " />
<glyph glyph-name="Icircumflex" unicode="&#xce;" horiz-adv-x="171" d="M117 667 L55 667 L55 0 L117 0 L117 667 Z M85 859 L-20 752 L17 713 L85 783 L152 713 L192 752 L85 859 Z " />
<glyph glyph-name="Idieresis" unicode="&#xcf;" horiz-adv-x="171" d="M116 667 L54 667 L54 0 L116 0 L116 667 Z M26 810 C2 810 -18 790 -18 767 C-18 743 2 723 25 723 C50 723 69 742 69 767 C69 791 50 810 26 810 L26 810 Z M146 810 C122 810 102 790 102 767 C102 743 122 723 145 723 C170 723 189 742 189 767 C189 791 170 810 146 810 L146 810 Z " />
<glyph glyph-name="Eth" unicode="&#xd0;" horiz-adv-x="371" d="M55 667 L55 371 L8 371 L8 321 L55 321 L55 0 L137 0 C205 0 249 17 278 53 C319 105 333 176 333 334 C333 593 289 667 133 667 L55 667 Z M117 610 L144 610 C202 610 233 588 250 535 C261 501 270 401 270 309 C270 175 259 124 223 85 C206 66 180 57 146 57 L117 57 L117 321 L207 321 L207 371 L117 371 L117 610 Z " />
<glyph glyph-name="Ntilde" unicode="&#xd1;" horiz-adv-x="387" d="M332 667 L278 667 L278 232 C279 187 280 170 284 135 L281 145 L275 165 C270 180 265 197 260 214 L109 667 L55 667 L55 0 L109 0 L109 416 C108 469 107 490 103 534 C113 500 114 496 115 490 C118 480 121 470 125 460 L131 440 L278 0 L332 0 L332 667 Z M255 805 L255 801 C255 788 248 780 238 780 C232 780 224 783 197 795 C175 806 162 809 149 809 C111 809 87 783 81 733 L137 733 C136 735 136 737 136 738 C136 749 143 758 153 758 C157 758 164 756 175 751 C207 734 224 729 241 729 C283 729 307 755 311 805 L255 805 Z " />
<glyph glyph-name="Ograve" unicode="&#xd2;" horiz-adv-x="404" d="M202 676 C160 676 125 658 100 625 C58 569 38 475 38 334 C38 105 93 -9 202 -9 C313 -9 366 100 366 330 C366 566 314 676 202 676 L202 676 Z M203 616 C274 616 303 533 303 332 C303 134 274 52 203 52 C133 52 101 142 101 334 C101 527 133 616 203 616 L203 616 Z M156 859 L105 817 L210 713 L245 740 L156 859 Z " />
<glyph glyph-name="Oacute" unicode="&#xd3;" horiz-adv-x="404" d="M202 676 C160 676 125 658 100 625 C58 569 38 475 38 334 C38 105 93 -9 202 -9 C313 -9 366 100 366 330 C366 566 314 676 202 676 L202 676 Z M203 616 C274 616 303 533 303 332 C303 134 274 52 203 52 C133 52 101 142 101 334 C101 527 133 616 203 616 L203 616 Z M252 859 L162 740 L198 713 L302 817 L252 859 Z " />
<glyph glyph-name="Ocircumflex" unicode="&#xd4;" horiz-adv-x="404" d="M202 676 C160 676 125 658 100 625 C58 569 38 475 38 334 C38 105 93 -9 202 -9 C313 -9 366 100 366 330 C366 566 314 676 202 676 L202 676 Z M203 616 C274 616 303 533 303 332 C303 134 274 52 203 52 C133 52 101 142 101 334 C101 527 133 616 203 616 L203 616 Z M201 859 L90 752 L127 713 L201 783 L275 713 L315 752 L201 859 Z " />
<glyph glyph-name="Otilde" unicode="&#xd5;" horiz-adv-x="404" d="M202 676 C160 676 125 658 100 625 C58 569 38 475 38 334 C38 105 93 -9 202 -9 C313 -9 366 100 366 330 C366 566 314 676 202 676 L202 676 Z M203 616 C274 616 303 533 303 332 C303 134 274 52 203 52 C133 52 101 142 101 334 C101 527 133 616 203 616 L203 616 Z M265 805 L265 801 C265 788 258 780 248 780 C242 780 234 783 207 795 C185 806 173 809 159 809 C121 809 98 783 91 733 L147 733 C147 750 153 758 164 758 C168 758 175 755 185 751 C218 734 234 729 252 729 C293 729 317 755 321 805 L265 805 Z " />
<glyph glyph-name="Odieresis" unicode="&#xd6;" horiz-adv-x="404" d="M202 676 C160 676 125 658 100 625 C58 569 38 475 38 334 C38 105 93 -9 202 -9 C313 -9 366 100 366 330 C366 566 314 676 202 676 L202 676 Z M203 616 C274 616 303 533 303 332 C303 134 274 52 203 52 C133 52 101 142 101 334 C101 527 133 616 203 616 L203 616 Z M139 810 C115 810 95 790 95 767 C95 743 115 723 138 723 C163 723 182 742 182 767 C182 791 163 810 139 810 L139 810 Z M267 810 C243 810 223 790 223 767 C223 743 243 723 266 723 C291 723 310 742 310 767 C310 791 291 810 267 810 L267 810 Z " />
<glyph glyph-name="multiply" unicode="&#xd7;" horiz-adv-x="366" d="M53 431 L144 340 L53 248 L92 210 L183 301 L275 210 L314 249 L222 340 L313 431 L275 470 L184 379 L92 470 L53 431 Z " />
<glyph glyph-name="Oslash" unicode="&#xd8;" horiz-adv-x="417" d="M385 656 L346 675 L318 617 C293 656 256 676 208 676 C100 676 45 561 45 336 C45 236 56 154 76 100 L33 11 L72 -8 L101 51 C127 10 163 -9 210 -9 C321 -9 373 100 373 332 C373 432 362 517 343 567 L385 656 Z M301 486 C307 438 310 394 310 339 C310 134 281 52 209 52 C175 52 152 71 135 114 L301 486 Z M118 180 C111 233 108 277 108 336 C108 526 141 616 210 616 C245 616 269 597 285 553 L118 180 Z " />
<glyph glyph-name="Ugrave" unicode="&#xd9;" horiz-adv-x="390" d="M336 667 L274 667 L274 205 C274 126 270 99 256 81 C243 62 221 52 196 52 C172 52 151 61 137 77 C121 96 117 120 117 205 L117 667 L55 667 L55 200 C55 123 59 91 72 64 C94 17 137 -9 196 -9 C250 -9 291 13 314 54 C331 83 336 115 336 200 L336 667 Z M149 859 L99 817 L203 713 L239 740 L149 859 Z " />
<glyph glyph-name="Uacute" unicode="&#xda;" horiz-adv-x="390" d="M336 667 L274 667 L274 205 C274 126 270 99 256 81 C243 62 221 52 196 52 C172 52 151 61 137 77 C121 96 117 120 117 205 L117 667 L55 667 L55 200 C55 123 59 91 72 64 C94 17 137 -9 196 -9 C250 -9 291 13 314 54 C331 83 336 115 336 200 L336 667 Z M248 859 L159 740 L194 713 L299 817 L248 859 Z " />
<glyph glyph-name="Ucircumflex" unicode="&#xdb;" horiz-adv-x="390" d="M336 667 L274 667 L274 205 C274 126 270 99 256 81 C243 62 221 52 196 52 C172 52 151 61 137 77 C121 96 117 120 117 205 L117 667 L55 667 L55 200 C55 123 59 91 72 64 C94 17 137 -9 196 -9 C250 -9 291 13 314 54 C331 83 336 115 336 200 L336 667 Z M194 859 L83 752 L120 713 L194 783 L268 713 L309 752 L194 859 Z " />
<glyph glyph-name="Udieresis" unicode="&#xdc;" horiz-adv-x="390" d="M336 667 L274 667 L274 205 C274 126 270 99 256 81 C243 62 221 52 196 52 C172 52 151 61 137 77 C121 96 117 120 117 205 L117 667 L55 667 L55 200 C55 123 59 91 72 64 C94 17 137 -9 196 -9 C250 -9 291 13 314 54 C331 83 336 115 336 200 L336 667 Z M132 810 C108 810 88 790 88 767 C88 743 108 723 131 723 C156 723 175 742 175 767 C175 791 156 810 132 810 L132 810 Z M260 810 C236 810 216 790 216 767 C216 743 236 723 259 723 C284 723 303 742 303 767 C303 791 284 810 260 810 L260 810 Z " />
<glyph glyph-name="Yacute" unicode="&#xdd;" horiz-adv-x="316" d="M315 667 L248 667 L191 475 C172 411 168 392 161 353 C151 403 146 424 131 472 L68 667 L1 667 L131 292 L131 0 L193 0 L193 292 L315 667 Z M211 859 L121 740 L157 713 L261 817 L211 859 Z " />
<glyph glyph-name="Thorn" unicode="&#xde;" horiz-adv-x="329" d="M117 0 L117 202 L143 202 C262 202 304 247 304 374 C304 501 257 550 135 550 L117 550 L117 667 L55 667 L55 0 L117 0 Z M117 493 L148 493 C217 493 241 462 241 373 C241 288 220 259 158 259 L117 259 L117 493 Z " />
<glyph glyph-name="germandbls" unicode="&#xdf;" horiz-adv-x="340" d="M56 0 L113 0 L113 564 C113 651 129 683 174 683 C217 683 239 644 239 565 C239 497 219 468 174 468 L157 468 L157 409 L175 409 C228 409 247 364 247 235 C247 101 229 57 174 57 L157 57 L157 0 L178 0 C219 0 250 16 271 48 C296 86 306 134 306 220 C306 360 287 415 233 439 C278 459 298 502 298 578 C298 681 255 736 175 736 C137 736 101 720 84 695 C63 665 56 631 56 557 L56 468 L4 468 L4 409 L56 409 L56 0 Z " />
<glyph glyph-name="agrave" unicode="&#xe0;" horiz-adv-x="331" d="M281 453 L224 453 L224 422 C201 450 183 460 152 460 C72 460 39 394 39 231 C39 61 69 -7 146 -7 C178 -7 200 5 224 36 L224 0 L281 0 L281 453 Z M165 413 C213 413 229 367 229 234 C229 84 214 40 164 40 C114 40 98 88 98 238 C98 362 118 413 165 413 L165 413 Z M134 652 L83 611 L188 507 L223 534 L134 652 Z " />
<glyph glyph-name="aacute" unicode="&#xe1;" horiz-adv-x="331" d="M281 453 L224 453 L224 422 C201 450 183 460 152 460 C72 460 39 394 39 231 C39 61 69 -7 146 -7 C178 -7 200 5 224 36 L224 0 L281 0 L281 453 Z M165 413 C213 413 229 367 229 234 C229 84 214 40 164 40 C114 40 98 88 98 238 C98 362 118 413 165 413 L165 413 Z M220 652 L130 534 L166 507 L270 611 L220 652 Z " />
<glyph glyph-name="acircumflex" unicode="&#xe2;" horiz-adv-x="331" d="M281 453 L224 453 L224 422 C201 450 183 460 152 460 C72 460 39 394 39 231 C39 61 69 -7 146 -7 C178 -7 200 5 224 36 L224 0 L281 0 L281 453 Z M165 413 C213 413 229 367 229 234 C229 84 214 40 164 40 C114 40 98 88 98 238 C98 362 118 413 165 413 L165 413 Z M173 653 L64 545 L102 507 L173 577 L245 507 L283 545 L173 653 Z " />
<glyph glyph-name="atilde" unicode="&#xe3;" horiz-adv-x="331" d="M281 453 L224 453 L224 422 C201 450 183 460 152 460 C72 460 39 394 39 231 C39 61 69 -7 146 -7 C178 -7 200 5 224 36 L224 0 L281 0 L281 453 Z M165 413 C213 413 229 367 229 234 C229 84 214 40 164 40 C114 40 98 88 98 238 C98 362 118 413 165 413 L165 413 Z M234 599 L234 595 C234 582 227 574 217 574 C211 574 203 577 176 589 C154 600 141 603 128 603 C90 603 66 577 60 526 L116 526 C115 528 115 530 115 531 C115 542 122 551 132 551 C136 551 143 549 154 544 C186 527 203 522 220 522 C262 522 286 548 290 599 L234 599 Z " />
<glyph glyph-name="adieresis" unicode="&#xe4;" horiz-adv-x="331" d="M281 453 L224 453 L224 422 C201 450 183 460 152 460 C72 460 39 394 39 231 C39 61 69 -7 146 -7 C178 -7 200 5 224 36 L224 0 L281 0 L281 453 Z M165 413 C213 413 229 367 229 234 C229 84 214 40 164 40 C114 40 98 88 98 238 C98 362 118 413 165 413 L165 413 Z M112 604 C88 604 68 584 68 561 C68 537 88 517 111 517 C136 517 155 536 155 561 C155 585 136 604 112 604 L112 604 Z M236 604 C212 604 192 584 192 561 C192 537 212 517 235 517 C260 517 279 536 279 561 C279 585 260 604 236 604 L236 604 Z " />
<glyph glyph-name="aring" unicode="&#xe5;" horiz-adv-x="331" d="M281 453 L224 453 L224 422 C201 450 183 460 152 460 C72 460 39 394 39 231 C39 61 69 -7 146 -7 C178 -7 200 5 224 36 L224 0 L281 0 L281 453 Z M165 413 C213 413 229 367 229 234 C229 84 214 40 164 40 C114 40 98 88 98 238 C98 362 118 413 165 413 L165 413 Z M174 660 C131 660 97 626 97 584 C97 542 131 507 173 507 C216 507 250 541 250 584 C250 626 216 660 174 660 L174 660 Z M174 620 C194 620 210 604 210 584 C210 563 194 547 173 547 C153 547 137 564 137 584 C137 604 153 620 174 620 L174 620 Z " />
<glyph glyph-name="ae" unicode="&#xe6;" horiz-adv-x="514" d="M480 217 C480 276 477 303 470 334 C450 417 411 460 355 460 C314 460 276 430 258 384 C235 435 196 460 142 460 C112 460 89 452 60 434 L60 371 C96 398 114 406 139 406 C177 406 204 385 219 345 C226 324 228 310 228 265 C208 289 180 302 147 302 C76 302 33 246 33 152 C33 54 78 -7 149 -7 C198 -7 239 22 258 69 C281 18 313 -7 356 -7 C424 -7 471 58 474 157 L420 157 C418 83 398 46 360 46 C310 46 281 108 280 217 L480 217 Z M282 265 C283 349 311 407 351 407 C394 407 422 352 423 265 L282 265 Z M157 255 C202 255 229 214 229 146 C229 86 200 46 156 46 C113 46 88 85 88 152 C88 218 113 255 157 255 L157 255 Z " />
<glyph glyph-name="ccedilla" unicode="&#xe7;" horiz-adv-x="248" d="M228 443 C208 454 188 460 166 460 C82 460 33 372 33 218 C33 138 47 82 78 40 C99 11 132 -7 163 -7 C186 -7 209 1 228 16 L228 87 C206 56 191 46 170 46 C123 46 92 116 92 223 C92 339 121 407 172 407 C192 407 207 398 228 376 L228 443 Z M183 -63 L137 -37 L65 -172 L99 -193 L183 -63 Z " />
<glyph glyph-name="egrave" unicode="&#xe8;" horiz-adv-x="317" d="M283 215 L283 243 C283 380 238 460 160 460 C81 460 33 372 33 225 C33 74 79 -7 165 -7 C236 -7 275 49 279 154 L222 154 C218 78 200 46 161 46 C116 46 90 107 91 215 L283 215 Z M92 263 C96 357 120 407 162 407 C187 407 208 385 216 350 C222 323 225 305 226 263 L92 263 Z M117 652 L67 611 L171 507 L207 534 L117 652 Z " />
<glyph glyph-name="eacute" unicode="&#xe9;" horiz-adv-x="317" d="M283 215 L283 243 C283 380 238 460 160 460 C81 460 33 372 33 225 C33 74 79 -7 165 -7 C236 -7 275 49 279 154 L222 154 C218 78 200 46 161 46 C116 46 90 107 91 215 L283 215 Z M92 263 C96 357 120 407 162 407 C187 407 208 385 216 350 C222 323 225 305 226 263 L92 263 Z M211 652 L121 534 L157 507 L261 611 L211 652 Z " />
<glyph glyph-name="ecircumflex" unicode="&#xea;" horiz-adv-x="317" d="M283 215 L283 243 C283 380 238 460 160 460 C81 460 33 372 33 225 C33 74 79 -7 165 -7 C236 -7 275 49 279 154 L222 154 C218 78 200 46 161 46 C116 46 90 107 91 215 L283 215 Z M92 263 C96 357 120 407 162 407 C187 407 208 385 216 350 C222 323 225 305 226 263 L92 263 Z M162 653 L53 545 L91 507 L162 577 L234 507 L272 545 L162 653 Z " />
<glyph glyph-name="edieresis" unicode="&#xeb;" horiz-adv-x="317" d="M283 215 L283 243 C283 380 238 460 160 460 C81 460 33 372 33 225 C33 74 79 -7 165 -7 C236 -7 275 49 279 154 L222 154 C218 78 200 46 161 46 C116 46 90 107 91 215 L283 215 Z M92 263 C96 357 120 407 162 407 C187 407 208 385 216 350 C222 323 225 305 226 263 L92 263 Z M99 604 C75 604 55 584 55 561 C55 537 75 517 98 517 C123 517 142 536 142 561 C142 585 123 604 99 604 L99 604 Z M223 604 C199 604 179 584 179 561 C179 537 199 517 222 517 C247 517 266 536 266 561 C266 585 247 604 223 604 L223 604 Z " />
<glyph glyph-name="igrave" unicode="&#xec;" horiz-adv-x="157" d="M107 453 L50 453 L50 0 L107 0 L107 453 Z M32 652 L-18 612 L80 507 L115 534 L32 652 Z " />
<glyph glyph-name="iacute" unicode="&#xed;" horiz-adv-x="157" d="M107 453 L50 453 L50 0 L107 0 L107 453 Z M125 652 L42 534 L78 507 L175 612 L125 652 Z " />
<glyph glyph-name="icircumflex" unicode="&#xee;" horiz-adv-x="157" d="M107 453 L50 453 L50 0 L107 0 L107 453 Z M79 653 L-24 545 L14 507 L79 577 L144 507 L182 545 L79 653 Z " />
<glyph glyph-name="idieresis" unicode="&#xef;" horiz-adv-x="157" d="M107 453 L50 453 L50 0 L107 0 L107 453 Z M25 597 C3 597 -15 579 -15 557 C-15 535 3 517 25 517 C47 517 65 535 65 557 C65 579 47 597 25 597 L25 597 Z M134 597 C112 597 94 579 94 557 C94 535 112 517 133 517 C155 517 173 535 173 557 C173 579 155 597 134 597 L134 597 Z " />
<glyph glyph-name="eth" unicode="&#xf0;" horiz-adv-x="327" d="M246 713 L179 672 C142 700 115 715 74 729 L51 693 C85 679 120 659 137 644 L80 606 L104 568 L170 612 C205 566 218 522 226 426 C213 449 192 460 163 460 C80 460 33 375 33 228 C33 153 46 89 69 48 C88 15 126 -7 166 -7 C205 -7 239 13 260 49 C283 90 293 141 293 229 C293 465 274 565 213 640 L270 676 L246 713 Z M164 407 C210 407 234 345 234 224 C234 169 226 115 214 84 C204 61 185 46 164 46 C117 46 92 107 92 222 C92 345 116 407 164 407 L164 407 Z " />
<glyph glyph-name="ntilde" unicode="&#xf1;" horiz-adv-x="334" d="M107 453 L50 453 L50 0 L107 0 L107 305 C107 347 111 367 122 384 C133 401 155 413 176 413 C193 413 209 405 217 392 C226 378 227 369 227 325 L227 0 L284 0 L284 334 C284 421 256 460 195 460 C162 460 132 445 107 417 L107 453 Z M226 599 L226 595 C226 582 219 574 209 574 C203 574 195 577 168 589 C146 600 134 603 120 603 C82 603 59 577 52 526 L108 526 C108 543 114 551 125 551 C129 551 137 548 146 544 C179 527 195 522 213 522 C254 522 278 548 282 599 L226 599 Z " />
<glyph glyph-name="ograve" unicode="&#xf2;" horiz-adv-x="327" d="M165 460 C80 460 33 378 33 227 C33 74 79 -7 166 -7 C250 -7 293 70 293 221 C293 383 252 460 165 460 L165 460 Z M164 407 C210 407 234 345 234 224 C234 169 226 115 214 84 C204 61 185 46 164 46 C117 46 92 107 92 222 C92 345 116 407 164 407 L164 407 Z M117 652 L67 611 L171 507 L207 534 L117 652 Z " />
<glyph glyph-name="oacute" unicode="&#xf3;" horiz-adv-x="327" d="M165 460 C80 460 33 378 33 227 C33 74 79 -7 166 -7 C250 -7 293 70 293 221 C293 383 252 460 165 460 L165 460 Z M164 407 C210 407 234 345 234 224 C234 169 226 115 214 84 C204 61 185 46 164 46 C117 46 92 107 92 222 C92 345 116 407 164 407 L164 407 Z M216 652 L126 534 L162 507 L266 611 L216 652 Z " />
<glyph glyph-name="ocircumflex" unicode="&#xf4;" horiz-adv-x="327" d="M165 460 C80 460 33 378 33 227 C33 74 79 -7 166 -7 C250 -7 293 70 293 221 C293 383 252 460 165 460 L165 460 Z M164 407 C210 407 234 345 234 224 C234 169 226 115 214 84 C204 61 185 46 164 46 C117 46 92 107 92 222 C92 345 116 407 164 407 L164 407 Z M163 653 L54 545 L91 507 L163 577 L235 507 L272 545 L163 653 Z " />
<glyph glyph-name="otilde" unicode="&#xf5;" horiz-adv-x="327" d="M165 460 C80 460 33 378 33 227 C33 74 79 -7 166 -7 C250 -7 293 70 293 221 C293 383 252 460 165 460 L165 460 Z M164 407 C210 407 234 345 234 224 C234 169 226 115 214 84 C204 61 185 46 164 46 C117 46 92 107 92 222 C92 345 116 407 164 407 L164 407 Z M225 599 C224 579 220 574 208 574 C202 574 194 577 167 589 C145 600 133 603 119 603 C81 603 58 577 51 526 L107 526 L107 531 C107 543 114 551 124 551 C128 551 136 549 145 544 C178 527 194 522 212 522 C254 522 277 548 281 599 L225 599 Z " />
<glyph glyph-name="odieresis" unicode="&#xf6;" horiz-adv-x="327" d="M165 460 C80 460 33 378 33 227 C33 74 79 -7 166 -7 C250 -7 293 70 293 221 C293 383 252 460 165 460 L165 460 Z M164 407 C210 407 234 345 234 224 C234 169 226 115 214 84 C204 61 185 46 164 46 C117 46 92 107 92 222 C92 345 116 407 164 407 L164 407 Z M102 604 C78 604 58 584 58 561 C58 537 78 517 101 517 C126 517 145 536 145 561 C145 585 126 604 102 604 L102 604 Z M226 604 C202 604 182 584 182 561 C182 537 202 517 225 517 C250 517 269 536 269 561 C269 585 250 604 226 604 L226 604 Z " />
<glyph glyph-name="divide" unicode="&#xf7;" horiz-adv-x="366" d="M33 313 L333 313 L333 368 L33 368 L33 313 Z M183 259 C159 259 140 240 140 217 C140 192 159 173 183 173 C206 173 225 192 225 216 C225 240 206 259 183 259 L183 259 Z M183 506 C159 506 140 487 140 464 C140 440 159 421 183 421 C206 421 225 440 225 464 C225 487 206 506 183 506 L183 506 Z " />
<glyph glyph-name="oslash" unicode="&#xf8;" horiz-adv-x="340" d="M315 444 L284 463 L258 417 C234 447 208 460 172 460 C86 460 40 378 40 226 C40 168 47 120 62 78 L24 12 L56 -7 L82 38 C105 8 135 -7 173 -7 C258 -7 300 69 300 224 C300 294 294 339 278 379 L315 444 Z M234 311 C239 275 241 252 241 224 C241 108 217 46 172 46 C148 46 129 61 118 89 L234 311 Z M104 141 C100 176 99 199 99 227 C99 345 124 407 171 407 C193 407 211 393 221 366 L104 141 Z " />
<glyph glyph-name="ugrave" unicode="&#xf9;" horiz-adv-x="336" d="M50 453 L50 110 C50 38 95 -7 168 -7 C241 -7 286 38 286 110 L286 453 L229 453 L229 158 C229 113 227 92 220 78 C211 57 193 46 168 46 C144 46 127 56 118 74 C110 89 107 110 107 158 L107 453 L50 453 Z M119 652 L69 611 L173 507 L209 534 L119 652 Z " />
<glyph glyph-name="uacute" unicode="&#xfa;" horiz-adv-x="336" d="M50 453 L50 110 C50 38 95 -7 168 -7 C241 -7 286 38 286 110 L286 453 L229 453 L229 158 C229 113 227 92 220 78 C211 57 193 46 168 46 C144 46 127 56 118 74 C110 89 107 110 107 158 L107 453 L50 453 Z M221 652 L131 534 L167 507 L271 611 L221 652 Z " />
<glyph glyph-name="ucircumflex" unicode="&#xfb;" horiz-adv-x="336" d="M50 453 L50 110 C50 38 95 -7 168 -7 C241 -7 286 38 286 110 L286 453 L229 453 L229 158 C229 113 227 92 220 78 C211 57 193 46 168 46 C144 46 127 56 118 74 C110 89 107 110 107 158 L107 453 L50 453 Z M168 653 L59 545 L96 507 L168 577 L240 507 L277 545 L168 653 Z " />
<glyph glyph-name="udieresis" unicode="&#xfc;" horiz-adv-x="336" d="M50 453 L50 110 C50 38 95 -7 168 -7 C241 -7 286 38 286 110 L286 453 L229 453 L229 158 C229 113 227 92 220 78 C211 57 193 46 168 46 C144 46 127 56 118 74 C110 89 107 110 107 158 L107 453 L50 453 Z M107 604 C83 604 63 584 63 561 C63 537 83 517 106 517 C131 517 150 536 150 561 C150 585 131 604 107 604 L107 604 Z M231 604 C207 604 187 584 187 561 C187 537 207 517 230 517 C255 517 274 536 274 561 C274 585 255 604 231 604 L231 604 Z " />
<glyph glyph-name="yacute" unicode="&#xfd;" horiz-adv-x="293" d="M287 453 L227 453 L166 193 L161 174 C157 155 153 139 150 126 C146 106 146 106 143 88 C141 109 133 151 123 202 L66 453 L7 453 L115 12 L71 -164 L132 -164 L287 453 Z M202 652 L112 534 L148 507 L252 611 L202 652 Z " />
<glyph glyph-name="thorn" unicode="&#xfe;" horiz-adv-x="325" d="M50 729 L50 -173 L107 -173 L107 36 C131 5 153 -7 185 -7 C262 -7 292 61 292 231 C292 394 259 460 179 460 C148 460 130 450 107 422 L107 729 L50 729 Z M166 413 C213 413 233 361 233 238 C233 88 217 40 167 40 C117 40 102 85 102 238 C102 366 119 413 166 413 L166 413 Z " />
<glyph glyph-name="ydieresis" unicode="&#xff;" horiz-adv-x="293" d="M287 453 L227 453 L166 193 L161 174 C157 155 153 139 150 126 C146 106 146 106 143 88 C141 109 133 151 123 202 L66 453 L7 453 L115 12 L71 -164 L132 -164 L287 453 Z M86 604 C62 604 42 584 42 561 C42 537 62 517 85 517 C110 517 129 536 129 561 C129 585 110 604 86 604 L86 604 Z M210 604 C186 604 166 584 166 561 C166 537 186 517 209 517 C234 517 253 536 253 561 C253 585 234 604 210 604 L210 604 Z " />
<glyph glyph-name="Amacron" unicode="&#x100;" horiz-adv-x="325" d="M190 667 L132 667 L1 0 L67 0 L91 137 L232 137 L258 0 L324 0 L190 667 Z M223 190 L101 190 L143 426 C150 470 155 516 160 583 C163 519 166 495 179 426 L223 190 Z M55 737 L270 737 L270 790 L55 790 L55 737 Z " />
<glyph glyph-name="amacron" unicode="&#x101;" horiz-adv-x="331" d="M281 453 L224 453 L224 422 C201 450 183 460 152 460 C72 460 39 394 39 231 C39 61 69 -7 146 -7 C178 -7 200 5 224 36 L224 0 L281 0 L281 453 Z M165 413 C213 413 229 367 229 234 C229 84 214 40 164 40 C114 40 98 88 98 238 C98 362 118 413 165 413 L165 413 Z M69 530 L278 530 L278 583 L69 583 L69 530 Z " />
<glyph glyph-name="Abreve" unicode="&#x102;" horiz-adv-x="325" d="M190 667 L132 667 L1 0 L67 0 L91 137 L232 137 L258 0 L324 0 L190 667 Z M223 190 L101 190 L143 426 C150 470 155 516 160 583 C163 519 166 495 179 426 L223 190 Z M217 836 C209 794 189 772 160 772 C132 772 115 793 107 836 L52 836 C58 763 100 717 162 717 C225 717 267 763 272 836 L217 836 Z " />
<glyph glyph-name="abreve" unicode="&#x103;" horiz-adv-x="331" d="M281 453 L224 453 L224 422 C201 450 183 460 152 460 C72 460 39 394 39 231 C39 61 69 -7 146 -7 C178 -7 200 5 224 36 L224 0 L281 0 L281 453 Z M165 413 C213 413 229 367 229 234 C229 84 214 40 164 40 C114 40 98 88 98 238 C98 362 118 413 165 413 L165 413 Z M227 629 C219 587 199 565 171 565 C144 565 127 586 120 629 L67 629 C74 554 113 510 173 510 C234 510 273 554 280 629 L227 629 Z " />
<glyph glyph-name="Aogonek" unicode="&#x104;" horiz-adv-x="325" d="M190 667 L132 667 L1 0 L67 0 L91 137 L232 137 L258 0 L278 0 C242 -35 230 -57 230 -86 C230 -126 262 -152 312 -152 C329 -152 340 -150 357 -143 L357 -95 C344 -100 331 -103 317 -103 C294 -103 280 -92 280 -72 C280 -52 296 -25 324 0 L190 667 Z M223 190 L101 190 L143 426 C150 470 155 516 160 583 C163 519 166 495 179 426 L223 190 Z " />
<glyph glyph-name="aogonek" unicode="&#x105;" horiz-adv-x="331" d="M281 453 L224 453 L224 422 C201 450 183 460 152 460 C72 460 39 394 39 231 C39 61 69 -7 146 -7 C178 -7 200 5 224 36 L224 0 L235 0 C201 -34 188 -57 188 -86 C188 -126 220 -152 269 -152 C286 -152 297 -150 314 -143 L314 -95 C301 -100 288 -103 274 -103 C251 -103 237 -92 237 -72 C237 -52 254 -24 281 0 L281 453 Z M165 413 C213 413 229 367 229 234 C229 84 214 40 164 40 C114 40 98 88 98 238 C98 362 118 413 165 413 L165 413 Z " />
<glyph glyph-name="Cacute" unicode="&#x106;" horiz-adv-x="320" d="M302 655 C280 670 254 677 222 677 C172 677 125 652 97 610 C58 552 38 449 38 313 C38 192 55 113 95 57 C123 17 170 -9 215 -9 C245 -9 273 0 302 19 L302 82 C270 60 246 52 220 52 C189 52 160 68 145 93 C117 140 102 225 102 337 C102 432 114 509 135 556 C153 594 187 617 225 617 C250 617 268 610 302 587 L302 655 Z M257 859 L167 740 L203 713 L307 817 L257 859 Z " />
<glyph glyph-name="cacute" unicode="&#x107;" horiz-adv-x="248" d="M228 443 C208 454 188 460 166 460 C82 460 33 372 33 218 C33 138 47 82 78 40 C99 11 132 -7 163 -7 C186 -7 209 1 228 16 L228 87 C206 56 191 46 170 46 C123 46 92 116 92 223 C92 339 121 407 172 407 C192 407 207 398 228 376 L228 443 Z M209 652 L120 534 L155 507 L260 611 L209 652 Z " />
<glyph glyph-name="Ccircumflex" unicode="&#x108;" horiz-adv-x="320" d="M302 655 C280 670 254 677 222 677 C172 677 125 652 97 610 C58 552 38 449 38 313 C38 192 55 113 95 57 C123 17 170 -9 215 -9 C245 -9 273 0 302 19 L302 82 C270 60 246 52 220 52 C189 52 160 68 145 93 C117 140 102 225 102 337 C102 432 114 509 135 556 C153 594 187 617 225 617 C250 617 268 610 302 587 L302 655 Z M206 859 L94 752 L132 713 L206 783 L280 713 L320 752 L206 859 Z " />
<glyph glyph-name="ccircumflex" unicode="&#x109;" horiz-adv-x="248" d="M228 443 C208 454 188 460 166 460 C82 460 33 372 33 218 C33 138 47 82 78 40 C99 11 132 -7 163 -7 C186 -7 209 1 228 16 L228 87 C206 56 191 46 170 46 C123 46 92 116 92 223 C92 339 121 407 172 407 C192 407 207 398 228 376 L228 443 Z M151 653 L42 545 L79 507 L151 577 L223 507 L260 545 L151 653 Z " />
<glyph glyph-name="Cdotaccent" unicode="&#x10a;" horiz-adv-x="320" d="M302 655 C280 670 254 677 222 677 C172 677 125 652 97 610 C58 552 38 449 38 313 C38 192 55 113 95 57 C123 17 170 -9 215 -9 C245 -9 273 0 302 19 L302 82 C270 60 246 52 220 52 C189 52 160 68 145 93 C117 140 102 225 102 337 C102 432 114 509 135 556 C153 594 187 617 225 617 C250 617 268 610 302 587 L302 655 Z M211 814 C185 814 165 794 165 769 C165 744 186 723 210 723 C236 723 256 743 256 769 C256 794 236 814 211 814 L211 814 Z " />
<glyph glyph-name="cdotaccent" unicode="&#x10b;" horiz-adv-x="248" d="M228 443 C208 454 188 460 166 460 C82 460 33 372 33 218 C33 138 47 82 78 40 C99 11 132 -7 163 -7 C186 -7 209 1 228 16 L228 87 C206 56 191 46 170 46 C123 46 92 116 92 223 C92 339 121 407 172 407 C192 407 207 398 228 376 L228 443 Z M158 608 C132 608 112 588 112 563 C112 538 133 517 157 517 C183 517 203 537 203 563 C203 588 183 608 158 608 L158 608 Z " />
<glyph glyph-name="Ccaron" unicode="&#x10c;" horiz-adv-x="320" d="M302 655 C280 670 254 677 222 677 C172 677 125 652 97 610 C58 552 38 449 38 313 C38 192 55 113 95 57 C123 17 170 -9 215 -9 C245 -9 273 0 302 19 L302 82 C270 60 246 52 220 52 C189 52 160 68 145 93 C117 140 102 225 102 337 C102 432 114 509 135 556 C153 594 187 617 225 617 C250 617 268 610 302 587 L302 655 Z M206 713 L320 821 L280 859 L206 790 L132 859 L94 821 L206 713 Z " />
<glyph glyph-name="ccaron" unicode="&#x10d;" horiz-adv-x="248" d="M228 443 C208 454 188 460 166 460 C82 460 33 372 33 218 C33 138 47 82 78 40 C99 11 132 -7 163 -7 C186 -7 209 1 228 16 L228 87 C206 56 191 46 170 46 C123 46 92 116 92 223 C92 339 121 407 172 407 C192 407 207 398 228 376 L228 443 Z M157 507 L260 614 L222 653 L157 583 L92 653 L54 614 L157 507 Z " />
<glyph glyph-name="Dcaron" unicode="&#x10e;" horiz-adv-x="371" d="M55 667 L55 0 L137 0 C205 0 249 17 278 53 C319 105 333 176 333 333 C333 593 289 667 133 667 L55 667 Z M117 610 L144 610 C202 610 233 588 250 535 C261 501 270 401 270 309 C270 175 259 124 223 85 C206 66 180 57 146 57 L117 57 L117 610 Z M164 713 L279 821 L238 859 L164 790 L90 859 L53 821 L164 713 Z " />
<glyph glyph-name="dcaron" unicode="&#x10f;" horiz-adv-x="423" d="M275 729 L218 729 L218 422 C195 450 177 460 146 460 C66 460 33 394 33 231 C33 61 63 -7 140 -7 C172 -7 194 5 218 36 L218 0 L275 0 L275 729 Z M159 413 C206 413 223 366 223 234 C223 85 208 40 158 40 C108 40 92 88 92 238 C92 362 112 413 159 413 L159 413 Z M423 707 L373 729 L308 577 L347 559 L423 707 Z " />
<glyph glyph-name="Dcroat" unicode="&#x110;" horiz-adv-x="371" d="M55 667 L55 371 L8 371 L8 321 L55 321 L55 0 L137 0 C205 0 249 17 278 53 C319 105 333 176 333 334 C333 593 289 667 133 667 L55 667 Z M117 610 L144 610 C202 610 233 588 250 535 C261 501 270 401 270 309 C270 175 259 124 223 85 C206 66 180 57 146 57 L117 57 L117 321 L207 321 L207 371 L117 371 L117 610 Z " />
<glyph glyph-name="dcroat" unicode="&#x111;" horiz-adv-x="325" d="M275 729 L218 729 L218 616 L144 616 L144 569 L218 569 L218 422 C195 451 177 460 145 460 C64 460 33 393 33 220 C33 126 42 73 64 35 C79 10 109 -7 140 -7 C172 -7 194 5 218 36 L218 0 L275 0 L275 569 L315 569 L315 616 L275 616 L275 729 Z M157 413 C206 413 223 364 223 224 C223 89 206 40 158 40 C109 40 92 88 92 226 C92 362 110 413 157 413 L157 413 Z " />
<glyph glyph-name="Emacron" unicode="&#x112;" horiz-adv-x="301" d="M263 667 L54 667 L54 0 L263 0 L263 57 L116 57 L116 318 L259 318 L259 375 L116 375 L116 610 L263 610 L263 667 Z M51 737 L266 737 L266 790 L51 790 L51 737 Z " />
<glyph glyph-name="emacron" unicode="&#x113;" horiz-adv-x="317" d="M283 215 L283 243 C283 380 238 460 160 460 C81 460 33 372 33 225 C33 74 79 -7 165 -7 C236 -7 275 49 279 154 L222 154 C218 78 200 46 161 46 C116 46 90 107 91 215 L283 215 Z M92 263 C96 357 120 407 162 407 C187 407 208 385 216 350 C222 323 225 305 226 263 L92 263 Z M57 530 L266 530 L266 583 L57 583 L57 530 Z " />
<glyph glyph-name="Ebreve" unicode="&#x114;" horiz-adv-x="301" d="M263 667 L55 667 L55 0 L263 0 L263 57 L117 57 L117 318 L259 318 L259 375 L117 375 L117 610 L263 610 L263 667 Z M214 836 C205 794 186 772 156 772 C129 772 112 793 104 836 L49 836 C54 763 97 717 159 717 C221 717 263 763 269 836 L214 836 Z " />
<glyph glyph-name="ebreve" unicode="&#x115;" horiz-adv-x="317" d="M283 215 L283 243 C283 380 238 460 160 460 C81 460 33 372 33 225 C33 74 79 -7 165 -7 C236 -7 275 49 279 154 L222 154 C218 78 200 46 161 46 C116 46 90 107 91 215 L283 215 Z M92 263 C96 357 120 407 162 407 C187 407 208 385 216 350 C222 323 225 305 226 263 L92 263 Z M215 629 C207 587 187 565 159 565 C132 565 115 586 108 629 L55 629 C62 554 101 510 161 510 C222 510 261 554 268 629 L215 629 Z " />
<glyph glyph-name="Edotaccent" unicode="&#x116;" horiz-adv-x="301" d="M264 667 L55 667 L55 0 L264 0 L264 57 L117 57 L117 318 L260 318 L260 375 L117 375 L117 610 L264 610 L264 667 Z M160 814 C134 814 114 794 114 769 C114 744 135 723 159 723 C185 723 205 743 205 769 C205 794 185 814 160 814 L160 814 Z " />
<glyph glyph-name="edotaccent" unicode="&#x117;" horiz-adv-x="317" d="M283 215 L283 243 C283 380 238 460 160 460 C81 460 33 372 33 225 C33 74 79 -7 165 -7 C236 -7 275 49 279 154 L222 154 C218 78 200 46 161 46 C116 46 90 107 91 215 L283 215 Z M92 263 C96 357 120 407 162 407 C187 407 208 385 216 350 C222 323 225 305 226 263 L92 263 Z M161 608 C135 608 115 588 115 563 C115 538 136 517 160 517 C186 517 206 537 206 563 C206 588 186 608 161 608 L161 608 Z " />
<glyph glyph-name="Eogonek" unicode="&#x118;" horiz-adv-x="301" d="M264 667 L55 667 L55 0 L218 0 C183 -35 171 -57 171 -86 C171 -126 203 -152 252 -152 C270 -152 280 -150 297 -143 L297 -95 C284 -100 271 -103 258 -103 C235 -103 221 -92 221 -72 C221 -52 238 -24 264 0 L264 57 L117 57 L117 318 L260 318 L260 375 L117 375 L117 610 L264 610 L264 667 Z " />
<glyph glyph-name="eogonek" unicode="&#x119;" horiz-adv-x="317" d="M266 -85 C253 -90 240 -93 227 -93 C203 -93 190 -82 190 -62 C190 -44 201 -25 229 11 C264 53 277 90 279 154 L222 154 C217 78 200 46 161 46 C116 46 90 107 91 215 L283 215 L283 243 C283 380 238 460 160 460 C81 460 33 372 33 225 C33 76 79 -7 162 -7 C165 -7 171 -7 177 -6 C152 -25 140 -47 140 -76 C140 -116 172 -142 221 -142 C238 -142 249 -140 266 -133 L266 -85 Z M92 263 C96 357 120 407 162 407 C187 407 208 385 216 350 C222 323 224 305 226 263 L92 263 Z " />
<glyph glyph-name="Ecaron" unicode="&#x11a;" horiz-adv-x="301" d="M263 667 L54 667 L54 0 L263 0 L263 57 L116 57 L116 318 L259 318 L259 375 L116 375 L116 610 L263 610 L263 667 Z M157 713 L272 821 L231 859 L157 790 L83 859 L46 821 L157 713 Z " />
<glyph glyph-name="ecaron" unicode="&#x11b;" horiz-adv-x="317" d="M283 215 L283 243 C283 380 238 460 160 460 C81 460 33 372 33 225 C33 74 79 -7 165 -7 C236 -7 275 49 279 154 L222 154 C218 78 200 46 161 46 C116 46 90 107 91 215 L283 215 Z M92 263 C96 357 120 407 162 407 C187 407 208 385 216 350 C222 323 225 305 226 263 L92 263 Z M161 507 L271 614 L233 653 L161 583 L90 653 L52 614 L161 507 Z " />
<glyph glyph-name="Gcircumflex" unicode="&#x11c;" horiz-adv-x="374" d="M183 352 L183 295 L274 295 L274 233 C274 151 270 112 260 91 C248 65 226 51 197 51 C161 51 134 74 122 115 C108 164 101 246 101 354 C101 538 130 616 199 616 C240 616 261 591 274 526 L335 550 C325 590 316 608 301 629 C279 659 241 676 200 676 C148 676 102 649 79 604 C50 551 38 475 38 347 C38 190 55 84 88 41 C113 8 150 -9 194 -9 C254 -9 297 21 320 78 C331 107 336 148 336 218 L336 352 L183 352 Z M199 859 L88 752 L125 713 L199 783 L273 713 L314 752 L199 859 Z " />
<glyph glyph-name="gcircumflex" unicode="&#x11d;" horiz-adv-x="335" d="M285 453 L228 453 L228 422 C206 448 183 460 153 460 C77 460 39 385 39 236 C39 71 74 0 155 0 C185 0 206 9 228 32 L228 -4 C227 -74 226 -86 220 -99 C211 -118 194 -127 168 -127 C125 -127 107 -101 107 -37 L50 -37 L50 -55 C50 -136 91 -180 167 -180 C207 -180 238 -168 259 -145 C279 -122 285 -97 285 -27 L285 453 Z M164 413 C214 413 233 363 233 235 C233 91 218 47 169 47 C119 47 98 100 98 222 C98 360 116 413 164 413 L164 413 Z M172 653 L63 545 L100 507 L172 577 L244 507 L281 545 L172 653 Z " />
<glyph glyph-name="Gbreve" unicode="&#x11e;" horiz-adv-x="374" d="M183 352 L183 295 L274 295 L274 233 C274 151 270 112 260 91 C248 65 226 51 197 51 C161 51 134 74 122 115 C108 164 101 246 101 354 C101 538 130 616 199 616 C240 616 261 591 274 526 L335 550 C325 590 316 608 301 629 C279 659 241 676 200 676 C148 676 102 649 79 604 C50 551 38 475 38 347 C38 190 55 84 88 41 C113 8 150 -9 194 -9 C254 -9 297 21 320 78 C331 107 336 148 336 218 L336 352 L183 352 Z M255 836 C247 794 227 772 198 772 C170 772 153 793 145 836 L90 836 C96 763 138 717 200 717 C263 717 305 763 310 836 L255 836 Z " />
<glyph glyph-name="gbreve" unicode="&#x11f;" horiz-adv-x="335" d="M285 453 L228 453 L228 422 C206 448 183 460 153 460 C77 460 39 385 39 236 C39 71 74 0 155 0 C185 0 206 9 228 32 L228 -4 C227 -74 226 -86 220 -99 C211 -118 194 -127 168 -127 C125 -127 107 -101 107 -37 L50 -37 L50 -55 C50 -136 91 -180 167 -180 C207 -180 238 -168 259 -145 C279 -122 285 -97 285 -27 L285 453 Z M164 413 C214 413 233 363 233 235 C233 91 218 47 169 47 C119 47 98 100 98 222 C98 360 116 413 164 413 L164 413 Z M226 629 C218 587 198 565 169 565 C143 565 126 586 118 629 L65 629 C72 554 112 510 172 510 C232 510 272 554 279 629 L226 629 Z " />
<glyph glyph-name="Gdotaccent" unicode="&#x120;" horiz-adv-x="374" d="M183 352 L183 295 L274 295 L274 233 C274 151 270 112 260 91 C248 65 226 51 197 51 C161 51 134 74 122 115 C108 164 101 246 101 354 C101 538 130 616 199 616 C240 616 261 591 274 526 L335 550 C325 590 316 608 301 629 C279 659 241 676 200 676 C148 676 102 649 79 604 C50 551 38 475 38 347 C38 190 55 84 88 41 C113 8 150 -9 194 -9 C254 -9 297 21 320 78 C331 107 336 148 336 218 L336 352 L183 352 Z M201 814 C175 814 155 794 155 769 C155 744 176 723 200 723 C226 723 246 743 246 769 C246 794 226 814 201 814 L201 814 Z " />
<glyph glyph-name="gdotaccent" unicode="&#x121;" horiz-adv-x="335" d="M285 453 L228 453 L228 422 C206 448 183 460 153 460 C77 460 39 385 39 236 C39 71 74 0 155 0 C185 0 206 9 228 32 L228 -4 C227 -74 226 -86 220 -99 C211 -118 194 -127 168 -127 C125 -127 107 -101 107 -37 L50 -37 L50 -55 C50 -136 91 -180 167 -180 C207 -180 238 -168 259 -145 C279 -122 285 -97 285 -27 L285 453 Z M164 413 C214 413 233 363 233 235 C233 91 218 47 169 47 C119 47 98 100 98 222 C98 360 116 413 164 413 L164 413 Z M172 608 C146 608 126 588 126 563 C126 538 147 517 171 517 C197 517 217 537 217 563 C217 588 197 608 172 608 L172 608 Z " />
<glyph glyph-name="Gcommaaccent" unicode="&#x122;" horiz-adv-x="374" d="M183 352 L183 295 L274 295 L274 233 C274 151 270 112 260 91 C248 65 226 51 197 51 C161 51 134 74 122 115 C108 164 101 246 101 354 C101 538 130 616 199 616 C240 616 261 591 274 526 L335 550 C325 590 316 608 301 629 C279 659 241 676 200 676 C148 676 102 649 79 604 C50 551 38 475 38 347 C38 190 55 84 88 41 C113 8 150 -9 194 -9 C254 -9 297 21 320 78 C331 107 336 148 336 218 L336 352 L183 352 Z M229 -66 L178 -43 L114 -196 L153 -214 L229 -66 Z " />
<glyph glyph-name="gcommaaccent" unicode="&#x123;" horiz-adv-x="335" d="M285 453 L228 453 L228 422 C206 448 183 460 153 460 C77 460 39 385 39 236 C39 71 74 0 155 0 C185 0 206 9 228 32 L228 -4 C227 -74 226 -86 220 -99 C211 -118 194 -127 168 -127 C125 -127 107 -101 107 -37 L50 -37 L50 -55 C50 -136 91 -180 167 -180 C207 -180 238 -168 259 -145 C279 -122 285 -97 285 -27 L285 453 Z M164 413 C214 413 233 363 233 235 C233 91 218 47 169 47 C119 47 98 100 98 222 C98 360 116 413 164 413 L164 413 Z M139 530 L189 507 L252 656 L213 674 L139 530 Z " />
<glyph glyph-name="Hcircumflex" unicode="&#x124;" horiz-adv-x="385" d="M331 667 L269 667 L269 401 L117 401 L117 667 L55 667 L55 0 L117 0 L117 344 L269 344 L269 0 L331 0 L331 667 Z M192 859 L81 752 L118 713 L192 783 L266 713 L306 752 L192 859 Z " />
<glyph glyph-name="hcircumflex" unicode="&#x125;" horiz-adv-x="334" d="M107 729 L50 729 L50 0 L107 0 L107 305 C107 347 111 367 122 384 C133 401 155 413 176 413 C193 413 209 405 217 392 C226 378 227 369 227 325 L227 0 L284 0 L284 334 C284 383 280 407 267 427 C253 447 225 460 195 460 C162 460 132 445 107 417 L107 729 Z M125 891 L14 784 L51 746 L125 815 L199 746 L240 784 L125 891 Z " />
<glyph glyph-name="Hbar" unicode="&#x126;" horiz-adv-x="385" d="M377 561 L331 561 L331 667 L269 667 L269 561 L117 561 L117 667 L55 667 L55 561 L8 561 L8 511 L55 511 L55 0 L117 0 L117 344 L269 344 L269 0 L331 0 L331 511 L377 511 L377 561 Z M117 511 L269 511 L269 401 L117 401 L117 511 Z " />
<glyph glyph-name="hbar" unicode="&#x127;" horiz-adv-x="334" d="M181 616 L107 616 L107 729 L50 729 L50 616 L10 616 L10 569 L50 569 L50 0 L107 0 L107 305 C107 347 111 367 122 384 C133 401 155 413 176 413 C193 413 209 405 217 392 C226 378 227 369 227 325 L227 0 L284 0 L284 334 C284 383 280 407 267 427 C254 447 225 460 195 460 C163 460 132 445 107 417 L107 569 L181 569 L181 616 Z " />
<glyph glyph-name="Itilde" unicode="&#x128;" horiz-adv-x="171" d="M117 667 L55 667 L55 0 L117 0 L117 667 Z M145 805 C145 787 140 780 128 780 C122 780 114 783 87 795 C65 806 53 809 39 809 C1 809 -22 783 -29 733 L27 733 L27 738 C27 750 34 758 44 758 C48 758 55 756 65 751 C98 735 115 729 132 729 C173 729 197 755 201 805 L145 805 Z " />
<glyph glyph-name="itilde" unicode="&#x129;" horiz-adv-x="157" d="M107 453 L50 453 L50 0 L107 0 L107 453 Z M138 599 C138 581 133 574 121 574 C115 574 107 577 80 589 C58 600 46 603 32 603 C-6 603 -29 577 -36 526 L20 526 L20 531 C20 543 27 551 37 551 C41 551 48 549 58 544 C91 527 107 522 125 522 C166 522 190 548 194 599 L138 599 Z " />
<glyph glyph-name="Imacron" unicode="&#x12a;" horiz-adv-x="171" d="M116 667 L54 667 L54 0 L116 0 L116 667 Z M1 737 L170 737 L170 790 L1 790 L1 737 Z " />
<glyph glyph-name="imacron" unicode="&#x12b;" horiz-adv-x="157" d="M107 453 L50 453 L50 0 L107 0 L107 453 Z M-2 530 L160 530 L160 583 L-2 583 L-2 530 Z " />
<glyph glyph-name="Ibreve" unicode="&#x12c;" horiz-adv-x="171" d="M117 667 L55 667 L55 0 L117 0 L117 667 Z M135 836 C126 794 107 772 77 772 C50 772 33 793 25 836 L-30 836 C-25 763 18 717 80 717 C142 717 184 763 190 836 L135 836 Z " />
<glyph glyph-name="ibreve" unicode="&#x12d;" horiz-adv-x="157" d="M107 453 L50 453 L50 0 L107 0 L107 453 Z M126 629 C119 587 102 565 77 565 C53 565 38 586 32 629 L-21 629 C-14 554 22 510 79 510 C136 510 172 554 179 629 L126 629 Z " />
<glyph glyph-name="Iogonek" unicode="&#x12e;" horiz-adv-x="171" d="M117 667 L55 667 L55 0 L73 0 C43 -28 30 -53 30 -84 C30 -125 62 -152 110 -152 C123 -152 133 -150 150 -143 L150 -95 C136 -101 126 -103 116 -103 C93 -103 80 -91 80 -69 C80 -47 94 -20 117 0 L117 667 Z " />
<glyph glyph-name="iogonek" unicode="&#x12f;" horiz-adv-x="157" d="M108 453 L50 453 L50 0 L65 0 C39 -25 24 -56 24 -86 C24 -125 56 -153 102 -153 C115 -153 124 -151 141 -143 L141 -95 C125 -102 117 -104 108 -104 C87 -104 74 -92 74 -72 C74 -47 86 -22 108 0 L108 453 Z M79 630 C55 630 36 611 36 587 C36 564 55 545 79 545 C102 545 121 564 121 588 C121 611 102 630 79 630 L79 630 Z " />
<glyph glyph-name="Idotaccent" unicode="&#x130;" horiz-adv-x="171" d="M117 667 L55 667 L55 0 L117 0 L117 667 Z M87 814 C61 814 41 794 41 769 C41 744 62 723 86 723 C112 723 132 743 132 769 C132 794 112 814 87 814 L87 814 Z " />
<glyph glyph-name="dotlessi" unicode="&#x131;" horiz-adv-x="157" d="M107 453 L50 453 L50 0 L107 0 L107 453 Z " />
<glyph glyph-name="IJ" unicode="&#x132;" horiz-adv-x="393" d="M117 667 L55 667 L55 0 L117 0 L117 667 Z M338 667 L276 667 L276 127 C276 85 276 80 273 70 C267 52 253 43 231 43 C210 43 194 50 170 72 L170 8 C197 -5 217 -10 241 -10 C278 -10 309 3 323 24 C336 42 338 57 338 114 L338 667 Z " />
<glyph glyph-name="ij" unicode="&#x133;" horiz-adv-x="315" d="M107 453 L50 453 L50 0 L107 0 L107 453 Z M79 630 C55 630 36 611 36 587 C36 564 55 545 79 545 C102 545 121 564 121 588 C121 611 102 630 79 630 L79 630 Z M265 453 L208 453 L208 -173 L265 -173 L265 453 Z M237 630 C213 630 194 611 194 587 C194 564 213 545 237 545 C260 545 279 564 279 588 C279 611 260 630 237 630 L237 630 Z " />
<glyph glyph-name="Jcircumflex" unicode="&#x134;" horiz-adv-x="224" d="M169 667 L107 667 L107 127 C107 85 107 80 104 70 C98 52 84 43 62 43 C41 43 25 50 1 72 L1 8 C28 -5 48 -10 72 -10 C109 -10 140 3 154 24 C167 42 169 57 169 114 L169 667 Z M137 859 L26 752 L63 713 L137 783 L211 713 L252 752 L137 859 Z " />
<glyph glyph-name="jcircumflex" unicode="&#x135;" horiz-adv-x="161" d="M111 453 L54 453 L54 -173 L111 -173 L111 453 Z M82 653 L-27 545 L11 507 L82 577 L154 507 L192 545 L82 653 Z " />
<glyph glyph-name="Kcommaaccent" unicode="&#x136;" horiz-adv-x="329" d="M320 667 L251 667 L117 364 L117 667 L55 667 L55 0 L117 0 L117 336 L251 0 L321 0 L176 350 L320 667 Z M210 -66 L159 -43 L95 -196 L134 -214 L210 -66 Z " />
<glyph glyph-name="kcommaaccent" unicode="&#x137;" horiz-adv-x="314" d="M107 729 L50 729 L50 0 L107 0 L107 217 L248 0 L320 0 L154 250 L284 453 L219 453 L107 269 L107 729 Z M205 -63 L155 -40 L92 -189 L131 -207 L205 -63 Z " />
<glyph glyph-name="kgreenlandic" unicode="&#x138;" horiz-adv-x="314" d="M107 453 L50 453 L50 0 L107 0 L107 217 L248 0 L320 0 L154 250 L284 453 L219 453 L107 269 L107 453 Z " />
<glyph glyph-name="Lacute" unicode="&#x139;" horiz-adv-x="263" d="M117 667 L55 667 L55 0 L262 0 L262 57 L117 57 L117 667 Z M145 859 L55 740 L91 713 L195 817 L145 859 Z " />
<glyph glyph-name="lacute" unicode="&#x13a;" horiz-adv-x="157" d="M107 729 L50 729 L50 0 L107 0 L107 729 Z M128 908 L45 789 L81 763 L178 868 L128 908 Z " />
<glyph glyph-name="Lcommaaccent" unicode="&#x13b;" horiz-adv-x="263" d="M117 667 L55 667 L55 0 L262 0 L262 57 L117 57 L117 667 Z M197 -66 L146 -43 L82 -196 L121 -214 L197 -66 Z " />
<glyph glyph-name="lcommaaccent" unicode="&#x13c;" horiz-adv-x="157" d="M107 729 L50 729 L50 0 L107 0 L107 729 Z M108 -63 L58 -40 L-5 -189 L34 -207 L108 -63 Z " />
<glyph glyph-name="Lcaron" unicode="&#x13d;" horiz-adv-x="263" d="M117 667 L55 667 L55 0 L262 0 L262 57 L117 57 L117 667 Z M266 653 L215 676 L151 524 L190 506 L266 653 Z " />
<glyph glyph-name="lcaron" unicode="&#x13e;" horiz-adv-x="255" d="M107 729 L50 729 L50 0 L107 0 L107 729 Z M255 707 L205 729 L141 577 L180 559 L255 707 Z " />
<glyph glyph-name="Ldot" unicode="&#x13f;" horiz-adv-x="263" d="M117 667 L55 667 L55 0 L262 0 L262 57 L117 57 L117 667 Z M218 402 C186 402 159 376 159 344 C159 311 185 285 218 285 C250 285 276 311 276 344 C276 376 250 402 218 402 L218 402 Z " />
<glyph glyph-name="ldot" unicode="&#x140;" horiz-adv-x="275" d="M107 729 L50 729 L50 0 L107 0 L107 729 Z M216 402 C184 402 157 376 157 344 C157 311 183 285 216 285 C248 285 274 311 274 344 C274 376 248 402 216 402 L216 402 Z " />
<glyph glyph-name="Lslash" unicode="&#x141;" horiz-adv-x="263" d="M118 324 L204 407 L204 471 L118 388 L118 667 L56 667 L56 348 L7 299 L7 235 L56 284 L56 0 L262 0 L262 57 L118 57 L118 324 Z " />
<glyph glyph-name="lslash" unicode="&#x142;" horiz-adv-x="172" d="M115 387 L166 438 L166 500 L115 449 L115 729 L58 729 L58 412 L7 362 L7 300 L58 350 L58 0 L115 0 L115 387 Z " />
<glyph glyph-name="Nacute" unicode="&#x143;" horiz-adv-x="387" d="M332 667 L278 667 L278 232 C279 187 280 170 284 135 L281 145 L275 165 C270 180 265 197 260 214 L109 667 L55 667 L55 0 L109 0 L109 416 C108 469 107 490 103 534 C113 500 114 496 115 490 C118 480 121 470 125 460 L131 440 L278 0 L332 0 L332 667 Z M247 859 L157 740 L193 713 L297 817 L247 859 Z " />
<glyph glyph-name="nacute" unicode="&#x144;" horiz-adv-x="334" d="M107 453 L50 453 L50 0 L107 0 L107 305 C107 347 111 367 122 384 C133 401 155 413 176 413 C193 413 209 405 217 392 C226 378 227 369 227 325 L227 0 L284 0 L284 334 C284 421 256 460 195 460 C162 460 132 445 107 417 L107 453 Z M213 652 L124 534 L159 507 L264 611 L213 652 Z " />
<glyph glyph-name="Ncommaaccent" unicode="&#x145;" horiz-adv-x="387" d="M332 667 L278 667 L278 232 C279 187 280 170 284 135 L281 145 L275 165 C270 180 265 197 260 214 L109 667 L55 667 L55 0 L109 0 L109 416 C108 469 107 490 103 534 C113 500 114 496 115 490 C118 480 121 470 125 460 L131 440 L278 0 L332 0 L332 667 Z M225 -66 L175 -43 L110 -196 L149 -214 L225 -66 Z " />
<glyph glyph-name="ncommaaccent" unicode="&#x146;" horiz-adv-x="334" d="M107 453 L50 453 L50 0 L107 0 L107 305 C107 347 111 367 122 384 C133 401 155 413 176 413 C193 413 209 405 217 392 C226 378 227 369 227 325 L227 0 L284 0 L284 334 C284 421 256 460 195 460 C162 460 132 445 107 417 L107 453 Z M200 -63 L150 -40 L87 -189 L126 -207 L200 -63 Z " />
<glyph glyph-name="Ncaron" unicode="&#x147;" horiz-adv-x="387" d="M332 667 L278 667 L278 232 C279 187 280 170 284 135 L281 145 L275 165 C270 180 265 197 260 214 L109 667 L55 667 L55 0 L109 0 L109 416 C108 469 107 490 103 534 C113 500 114 496 115 490 C118 480 121 470 125 460 L131 440 L278 0 L332 0 L332 667 Z M193 713 L307 821 L267 859 L193 790 L119 859 L81 821 L193 713 Z " />
<glyph glyph-name="ncaron" unicode="&#x148;" horiz-adv-x="334" d="M107 453 L50 453 L50 0 L107 0 L107 305 C107 347 111 367 122 384 C133 401 155 413 176 413 C193 413 209 405 217 392 C226 378 227 369 227 325 L227 0 L284 0 L284 334 C284 421 256 460 195 460 C162 460 132 445 107 417 L107 453 Z M164 507 L273 614 L235 653 L164 583 L92 653 L54 614 L164 507 Z " />
<glyph glyph-name="napostrophe" unicode="&#x149;" horiz-adv-x="425" d="M171 647 L109 676 L40 470 L83 450 L171 647 Z M198 453 L141 453 L141 0 L198 0 L198 305 C198 347 202 367 213 384 C224 401 246 413 267 413 C284 413 300 405 308 392 C317 378 318 369 318 325 L318 0 L375 0 L375 334 C375 421 347 460 286 460 C253 460 223 445 198 417 L198 453 Z " />
<glyph glyph-name="Eng" unicode="&#x14a;" horiz-adv-x="385" d="M117 667 L55 667 L55 0 L117 0 L117 456 C117 517 122 547 136 573 C150 598 179 616 206 616 C227 616 247 604 256 586 C267 564 269 549 269 485 L269 15 C269 -27 267 -39 259 -52 C251 -64 235 -73 220 -73 C206 -73 194 -67 178 -54 L178 -118 C196 -128 212 -133 230 -133 C258 -133 288 -117 305 -94 C327 -62 331 -41 331 37 L331 493 C331 560 325 595 307 628 C291 658 259 676 222 676 C182 676 148 655 117 614 L117 667 Z " />
<glyph glyph-name="eng" unicode="&#x14b;" horiz-adv-x="334" d="M107 453 L50 453 L50 0 L107 0 L107 305 C107 347 111 367 122 384 C133 401 155 413 176 413 C193 413 209 405 217 392 C226 378 227 369 227 325 L227 -18 C227 -48 226 -56 219 -65 C213 -74 202 -80 190 -80 C177 -80 168 -75 149 -61 L149 -123 C166 -130 181 -133 200 -133 C224 -133 247 -123 261 -106 C278 -86 284 -62 284 -18 L284 334 C284 421 256 460 195 460 C163 460 132 445 107 417 L107 453 Z " />
<glyph glyph-name="Omacron" unicode="&#x14c;" horiz-adv-x="404" d="M202 676 C160 676 125 658 100 625 C58 569 38 475 38 334 C38 105 93 -9 202 -9 C313 -9 366 100 366 330 C366 566 314 676 202 676 L202 676 Z M203 616 C274 616 303 533 303 332 C303 134 274 52 203 52 C133 52 101 142 101 334 C101 527 133 616 203 616 L203 616 Z M94 737 L309 737 L309 790 L94 790 L94 737 Z " />
<glyph glyph-name="omacron" unicode="&#x14d;" horiz-adv-x="327" d="M165 460 C80 460 33 378 33 227 C33 74 79 -7 166 -7 C250 -7 293 70 293 221 C293 383 252 460 165 460 L165 460 Z M164 407 C210 407 234 345 234 224 C234 169 226 115 214 84 C204 61 185 46 164 46 C117 46 92 107 92 222 C92 345 116 407 164 407 L164 407 Z M59 530 L268 530 L268 583 L59 583 L59 530 Z " />
<glyph glyph-name="Obreve" unicode="&#x14e;" horiz-adv-x="404" d="M202 676 C160 676 125 658 100 625 C58 569 38 475 38 334 C38 105 93 -9 202 -9 C313 -9 366 100 366 330 C366 566 314 676 202 676 L202 676 Z M203 616 C274 616 303 533 303 332 C303 134 274 52 203 52 C133 52 101 142 101 334 C101 527 133 616 203 616 L203 616 Z M257 836 C249 794 229 772 199 772 C172 772 155 793 147 836 L92 836 C97 763 140 717 202 717 C264 717 307 763 312 836 L257 836 Z " />
<glyph glyph-name="obreve" unicode="&#x14f;" horiz-adv-x="327" d="M165 460 C80 460 33 378 33 227 C33 74 79 -7 166 -7 C250 -7 293 70 293 221 C293 383 252 460 165 460 L165 460 Z M164 407 C210 407 234 345 234 224 C234 169 226 115 214 84 C204 61 185 46 164 46 C117 46 92 107 92 222 C92 345 116 407 164 407 L164 407 Z M217 629 C209 587 189 565 160 565 C134 565 117 586 109 629 L56 629 C63 554 103 510 163 510 C223 510 263 554 270 629 L217 629 Z " />
<glyph glyph-name="Ohungarumlaut" unicode="&#x150;" horiz-adv-x="404" d="M202 676 C160 676 125 658 100 625 C58 569 38 475 38 334 C38 105 93 -9 202 -9 C313 -9 366 100 366 330 C366 566 314 676 202 676 L202 676 Z M203 616 C274 616 303 533 303 332 C303 134 274 52 203 52 C133 52 101 142 101 334 C101 527 133 616 203 616 L203 616 Z M313 859 L230 736 L263 713 L360 828 L313 859 Z M203 859 L120 736 L153 713 L250 828 L203 859 Z " />
<glyph glyph-name="ohungarumlaut" unicode="&#x151;" horiz-adv-x="327" d="M165 460 C80 460 33 378 33 227 C33 74 79 -7 166 -7 C250 -7 293 70 293 221 C293 383 252 460 165 460 L165 460 Z M164 407 C210 407 234 345 234 224 C234 169 226 115 214 84 C204 61 185 46 164 46 C117 46 92 107 92 222 C92 345 116 407 164 407 L164 407 Z M268 652 L192 530 L224 507 L314 622 L268 652 Z M162 652 L85 530 L118 507 L207 622 L162 652 Z " />
<glyph glyph-name="OE" unicode="&#x152;" horiz-adv-x="541" d="M297 0 L503 0 L503 57 L356 57 L356 318 L499 318 L499 375 L356 375 L356 610 L503 610 L503 667 L297 667 L297 607 C271 654 238 676 196 676 C92 676 38 561 38 339 C38 107 89 -10 191 -10 C241 -10 272 14 297 70 L297 0 Z M201 616 C227 616 250 599 263 570 C283 525 295 432 295 315 C295 211 287 148 267 102 C255 72 227 51 199 51 C167 51 137 76 125 113 C109 161 101 228 101 313 C101 426 115 522 138 573 C151 602 172 616 201 616 L201 616 Z " />
<glyph glyph-name="oe" unicode="&#x153;" horiz-adv-x="508" d="M475 217 C475 281 472 314 463 347 C445 419 406 460 356 460 C307 460 266 422 253 365 C239 425 203 460 157 460 C125 460 90 438 70 406 C46 366 33 307 33 230 C33 80 79 -7 157 -7 C203 -7 237 27 253 89 C268 29 306 -7 354 -7 C419 -7 464 54 465 143 L465 156 L412 156 L412 142 C412 81 391 46 356 46 C337 46 321 57 307 79 C289 106 281 145 279 217 L475 217 Z M420 265 L281 265 C283 356 308 407 352 407 C391 407 420 350 420 273 L420 265 Z M158 407 C202 407 227 340 227 223 C227 115 201 46 159 46 C115 46 88 117 88 233 C88 340 115 407 158 407 L158 407 Z " />
<glyph glyph-name="Racute" unicode="&#x154;" horiz-adv-x="376" d="M126 326 L281 0 L352 0 L198 320 C288 327 329 379 329 490 C329 557 313 603 281 632 C252 658 217 667 142 667 L59 667 L59 0 L126 0 L126 326 Z M126 610 L160 610 C235 610 261 580 261 491 C261 406 236 375 168 375 L126 375 L126 610 Z M222 859 L132 740 L168 713 L272 817 L222 859 Z " />
<glyph glyph-name="racute" unicode="&#x155;" horiz-adv-x="197" d="M50 453 L50 0 L107 0 L107 275 C107 307 109 330 112 342 C120 372 145 394 172 394 C176 394 179 394 184 393 L184 460 C153 460 127 438 107 393 L107 453 L50 453 Z M157 652 L67 534 L103 507 L207 611 L157 652 Z " />
<glyph glyph-name="Rcommaaccent" unicode="&#x156;" horiz-adv-x="376" d="M126 326 L281 0 L352 0 L198 320 C288 327 329 379 329 490 C329 557 313 603 281 632 C252 658 217 667 142 667 L59 667 L59 0 L126 0 L126 326 Z M126 610 L160 610 C235 610 261 580 261 491 C261 406 236 375 168 375 L126 375 L126 610 Z M232 -66 L181 -43 L117 -196 L156 -214 L232 -66 Z " />
<glyph glyph-name="rcommaaccent" unicode="&#x157;" horiz-adv-x="197" d="M50 453 L50 0 L107 0 L107 275 C107 307 109 330 112 342 C120 372 145 394 172 394 C176 394 179 394 184 393 L184 460 C153 460 127 438 107 393 L107 453 L50 453 Z M108 -63 L58 -40 L-5 -189 L34 -207 L108 -63 Z " />
<glyph glyph-name="Rcaron" unicode="&#x158;" horiz-adv-x="376" d="M126 326 L281 0 L352 0 L198 320 C288 327 329 379 329 490 C329 557 313 603 281 632 C252 658 217 667 142 667 L59 667 L59 0 L126 0 L126 326 Z M126 610 L160 610 C235 610 261 580 261 491 C261 406 236 375 168 375 L126 375 L126 610 Z M173 713 L287 821 L247 859 L173 790 L99 859 L62 821 L173 713 Z " />
<glyph glyph-name="rcaron" unicode="&#x159;" horiz-adv-x="197" d="M50 453 L50 0 L107 0 L107 275 C107 307 109 330 112 342 C120 372 145 394 172 394 C176 394 179 394 184 393 L184 460 C153 460 127 438 107 393 L107 453 L50 453 Z M108 507 L214 614 L176 653 L108 583 L40 653 L2 614 L108 507 Z " />
<glyph glyph-name="Sacute" unicode="&#x15a;" horiz-adv-x="347" d="M289 641 C253 666 223 676 184 676 C96 676 31 602 31 499 C31 422 61 377 154 314 C238 257 259 228 259 170 C259 101 216 51 158 51 C119 51 86 67 50 105 L50 25 C81 1 116 -10 155 -10 C249 -10 322 72 322 178 C322 257 293 298 181 374 C118 416 94 453 94 507 C94 571 134 616 190 616 C228 616 253 603 289 562 L289 641 Z M226 859 L136 740 L172 713 L276 817 L226 859 Z " />
<glyph glyph-name="sacute" unicode="&#x15b;" horiz-adv-x="251" d="M221 431 C192 452 170 460 140 460 C75 460 28 412 28 346 C28 302 50 267 109 215 C163 168 175 150 175 116 C175 76 147 46 109 46 C81 46 61 57 28 91 L28 24 C56 3 83 -7 112 -7 C182 -7 234 48 234 121 C234 172 217 200 151 254 C102 295 87 316 87 348 C87 382 111 407 144 407 C171 407 194 393 221 361 L221 431 Z M184 652 L94 534 L130 507 L234 611 L184 652 Z " />
<glyph glyph-name="Scircumflex" unicode="&#x15c;" horiz-adv-x="347" d="M289 641 C253 666 223 676 184 676 C96 676 31 602 31 499 C31 422 61 377 154 314 C238 257 259 228 259 170 C259 101 216 51 158 51 C119 51 86 67 50 105 L50 25 C81 1 116 -10 155 -10 C249 -10 322 72 322 178 C322 257 293 298 181 374 C118 416 94 453 94 507 C94 571 134 616 190 616 C228 616 253 603 289 562 L289 641 Z M180 859 L69 752 L106 713 L180 783 L254 713 L294 752 L180 859 Z " />
<glyph glyph-name="scircumflex" unicode="&#x15d;" horiz-adv-x="251" d="M221 431 C192 452 170 460 140 460 C75 460 28 412 28 346 C28 302 50 267 109 215 C163 168 175 150 175 116 C175 76 147 46 109 46 C81 46 61 57 28 91 L28 24 C56 3 83 -7 112 -7 C182 -7 234 48 234 121 C234 172 217 200 151 254 C102 295 87 316 87 348 C87 382 111 407 144 407 C171 407 194 393 221 361 L221 431 Z M134 653 L25 545 L63 507 L134 577 L206 507 L244 545 L134 653 Z " />
<glyph glyph-name="Scedilla" unicode="&#x15e;" horiz-adv-x="347" d="M289 641 C253 666 223 676 184 676 C96 676 31 602 31 499 C31 422 61 377 154 314 C238 257 259 228 259 170 C259 101 216 51 158 51 C119 51 86 67 50 105 L50 25 C81 1 116 -10 155 -10 C249 -10 322 72 322 178 C322 257 293 298 181 374 C118 416 94 453 94 507 C94 571 134 616 190 616 C228 616 253 603 289 562 L289 641 Z M193 -67 L144 -40 L67 -186 L104 -207 L193 -67 Z " />
<glyph glyph-name="scedilla" unicode="&#x15f;" horiz-adv-x="251" d="M221 431 C192 452 170 460 140 460 C75 460 28 412 28 346 C28 302 50 267 109 215 C163 168 175 150 175 116 C175 76 147 46 109 46 C81 46 61 57 28 91 L28 24 C56 3 83 -7 112 -7 C182 -7 234 48 234 121 C234 172 217 200 151 254 C102 295 87 316 87 348 C87 382 111 407 144 407 C171 407 194 393 221 361 L221 431 Z M150 -63 L104 -37 L32 -172 L66 -193 L150 -63 Z " />
<glyph glyph-name="Scaron" unicode="&#x160;" horiz-adv-x="347" d="M289 641 C253 666 223 676 184 676 C96 676 31 602 31 499 C31 422 61 377 154 314 C238 257 259 228 259 170 C259 101 216 51 158 51 C119 51 86 67 50 105 L50 25 C81 1 116 -10 155 -10 C249 -10 322 72 322 178 C322 257 293 298 181 374 C118 416 94 453 94 507 C94 571 134 616 190 616 C228 616 253 603 289 562 L289 641 Z M179 713 L293 821 L253 859 L179 790 L105 859 L67 821 L179 713 Z " />
<glyph glyph-name="scaron" unicode="&#x161;" horiz-adv-x="251" d="M221 431 C192 452 170 460 140 460 C75 460 28 412 28 346 C28 302 50 267 109 215 C163 168 175 150 175 116 C175 76 147 46 109 46 C81 46 61 57 28 91 L28 24 C56 3 83 -7 112 -7 C182 -7 234 48 234 121 C234 172 217 200 151 254 C102 295 87 316 87 348 C87 382 111 407 144 407 C171 407 194 393 221 361 L221 431 Z M134 507 L244 614 L206 653 L134 583 L63 653 L25 614 L134 507 Z " />
<glyph glyph-name="Tcommaaccent" unicode="&#x162;" horiz-adv-x="265" d="M263 667 L1 667 L1 610 L101 610 L101 0 L163 0 L163 610 L263 610 L263 667 Z M160 -66 L110 -43 L45 -196 L84 -214 L160 -66 Z " />
<glyph glyph-name="tcommaaccent" unicode="&#x163;" horiz-adv-x="201" d="M199 453 L123 453 L123 577 L66 577 L66 453 L18 453 L18 400 L66 400 L66 0 L123 0 L123 400 L199 400 L199 453 Z M123 -63 L73 -40 L10 -189 L49 -207 L123 -63 Z " />
<glyph glyph-name="Tcaron" unicode="&#x164;" horiz-adv-x="265" d="M263 667 L1 667 L1 610 L101 610 L101 0 L163 0 L163 610 L263 610 L263 667 Z M131 713 L245 821 L205 859 L131 790 L57 859 L20 821 L131 713 Z " />
<glyph glyph-name="tcaron" unicode="&#x165;" horiz-adv-x="272" d="M200 453 L124 453 L124 577 L67 577 L67 453 L19 453 L19 400 L67 400 L67 0 L124 0 L124 400 L200 400 L200 453 Z M272 683 L222 706 L158 554 L197 536 L272 683 Z " />
<glyph glyph-name="Tbar" unicode="&#x166;" horiz-adv-x="265" d="M245 501 L163 501 L163 610 L263 610 L263 667 L1 667 L1 610 L101 610 L101 501 L19 501 L19 451 L101 451 L101 0 L163 0 L163 451 L245 451 L245 501 Z " />
<glyph glyph-name="tbar" unicode="&#x167;" horiz-adv-x="201" d="M200 313 L124 313 L124 400 L200 400 L200 453 L124 453 L124 577 L67 577 L67 453 L19 453 L19 400 L67 400 L67 313 L19 313 L19 266 L67 266 L67 0 L124 0 L124 266 L200 266 L200 313 Z " />
<glyph glyph-name="Utilde" unicode="&#x168;" horiz-adv-x="390" d="M336 667 L274 667 L274 205 C274 126 270 99 256 81 C243 62 221 52 196 52 C172 52 151 61 137 77 C121 96 117 120 117 205 L117 667 L55 667 L55 200 C55 123 59 91 72 64 C94 17 137 -9 196 -9 C250 -9 291 13 314 54 C331 83 336 115 336 200 L336 667 Z M251 805 C249 784 246 780 234 780 C228 780 220 783 193 795 C171 806 159 809 145 809 C107 809 84 783 77 733 L133 733 L133 738 C133 750 140 758 150 758 C154 758 161 756 171 751 C204 734 221 729 238 729 C280 729 303 755 308 805 L251 805 Z " />
<glyph glyph-name="utilde" unicode="&#x169;" horiz-adv-x="336" d="M50 453 L50 110 C50 38 95 -7 168 -7 C241 -7 286 38 286 110 L286 453 L229 453 L229 158 C229 113 227 92 220 78 C211 57 193 46 168 46 C144 46 127 56 118 74 C110 89 107 110 107 158 L107 453 L50 453 Z M227 599 L227 595 C227 582 220 574 210 574 C204 574 196 577 169 589 C147 600 135 603 121 603 C83 603 60 577 53 526 L109 526 C109 543 115 551 126 551 C130 551 138 548 147 544 C180 527 196 522 214 522 C255 522 279 548 283 599 L227 599 Z " />
<glyph glyph-name="Umacron" unicode="&#x16a;" horiz-adv-x="390" d="M336 667 L274 667 L274 205 C274 126 270 99 256 81 C243 62 221 52 196 52 C172 52 151 61 137 77 C121 96 117 120 117 205 L117 667 L55 667 L55 200 C55 123 59 91 72 64 C94 17 137 -9 196 -9 C250 -9 291 13 314 54 C331 83 336 115 336 200 L336 667 Z M88 737 L303 737 L303 790 L88 790 L88 737 Z " />
<glyph glyph-name="umacron" unicode="&#x16b;" horiz-adv-x="336" d="M50 453 L50 110 C50 38 95 -7 168 -7 C241 -7 286 38 286 110 L286 453 L229 453 L229 158 C229 113 227 92 220 78 C211 57 193 46 168 46 C144 46 127 56 118 74 C110 89 107 110 107 158 L107 453 L50 453 Z M64 530 L273 530 L273 583 L64 583 L64 530 Z " />
<glyph glyph-name="Ubreve" unicode="&#x16c;" horiz-adv-x="390" d="M336 667 L274 667 L274 205 C274 126 270 99 256 81 C243 62 221 52 196 52 C172 52 151 61 137 77 C121 96 117 120 117 205 L117 667 L55 667 L55 200 C55 123 59 91 72 64 C94 17 137 -9 196 -9 C250 -9 291 13 314 54 C331 83 336 115 336 200 L336 667 Z M250 836 C242 794 222 772 193 772 C165 772 148 793 140 836 L85 836 C91 763 133 717 195 717 C258 717 300 763 305 836 L250 836 Z " />
<glyph glyph-name="ubreve" unicode="&#x16d;" horiz-adv-x="336" d="M50 453 L50 110 C50 38 95 -7 168 -7 C241 -7 286 38 286 110 L286 453 L229 453 L229 158 C229 113 227 92 220 78 C211 57 193 46 168 46 C144 46 127 56 118 74 C110 89 107 110 107 158 L107 453 L50 453 Z M222 629 C214 587 194 565 165 565 C139 565 122 586 114 629 L61 629 C68 554 108 510 168 510 C228 510 268 554 275 629 L222 629 Z " />
<glyph glyph-name="Uring" unicode="&#x16e;" horiz-adv-x="390" d="M336 667 L274 667 L274 205 C274 126 270 99 256 81 C243 62 221 52 196 52 C172 52 151 61 137 77 C121 96 117 120 117 205 L117 667 L55 667 L55 200 C55 123 59 91 72 64 C94 17 137 -9 196 -9 C250 -9 291 13 314 54 C331 83 336 115 336 200 L336 667 Z M196 863 C153 863 119 829 119 787 C119 745 153 710 195 710 C238 710 272 744 272 787 C272 829 238 863 196 863 L196 863 Z M196 823 C216 823 232 807 232 787 C232 766 216 750 195 750 C175 750 159 767 159 787 C159 807 175 823 196 823 L196 823 Z " />
<glyph glyph-name="uring" unicode="&#x16f;" horiz-adv-x="336" d="M50 453 L50 110 C50 38 95 -7 168 -7 C241 -7 286 38 286 110 L286 453 L229 453 L229 158 C229 113 227 92 220 78 C211 57 193 46 168 46 C144 46 127 56 118 74 C110 89 107 110 107 158 L107 453 L50 453 Z M168 660 C125 660 91 626 91 584 C91 542 126 507 167 507 C211 507 245 541 245 584 C245 626 211 660 168 660 L168 660 Z M168 620 C189 620 205 604 205 584 C205 563 189 547 168 547 C148 547 131 564 131 584 C131 604 147 620 168 620 L168 620 Z " />
<glyph glyph-name="Uhungarumlaut" unicode="&#x170;" horiz-adv-x="390" d="M336 667 L274 667 L274 205 C274 126 270 99 256 81 C243 62 221 52 196 52 C172 52 151 61 137 77 C121 96 117 120 117 205 L117 667 L55 667 L55 200 C55 123 59 91 72 64 C94 17 137 -9 196 -9 C250 -9 291 13 314 54 C331 83 336 115 336 200 L336 667 Z M308 859 L225 736 L258 713 L355 828 L308 859 Z M198 859 L115 736 L148 713 L245 828 L198 859 Z " />
<glyph glyph-name="uhungarumlaut" unicode="&#x171;" horiz-adv-x="336" d="M50 453 L50 110 C50 38 95 -7 168 -7 C241 -7 286 38 286 110 L286 453 L229 453 L229 158 C229 113 227 92 220 78 C211 57 193 46 168 46 C144 46 127 56 118 74 C110 89 107 110 107 158 L107 453 L50 453 Z M267 652 L190 530 L223 507 L312 622 L267 652 Z M160 652 L84 530 L116 507 L206 622 L160 652 Z " />
<glyph glyph-name="Uogonek" unicode="&#x172;" horiz-adv-x="390" d="M274 667 L274 205 C274 126 270 99 256 81 C243 62 221 52 196 52 C172 52 151 61 137 77 C121 96 117 120 117 205 L117 667 L55 667 L55 200 C55 123 59 91 72 64 C93 17 137 -9 194 -9 C205 -9 214 -8 229 -6 C207 -27 198 -46 198 -73 C198 -113 230 -139 280 -139 C297 -139 308 -137 325 -130 L325 -82 C311 -87 299 -90 285 -90 C261 -90 248 -79 248 -58 C248 -30 259 -9 289 22 C328 60 337 94 336 200 L336 667 L274 667 Z " />
<glyph glyph-name="uogonek" unicode="&#x173;" horiz-adv-x="336" d="M229 453 L229 158 C229 113 227 92 220 78 C211 57 193 46 168 46 C144 46 127 56 118 74 C110 89 107 110 107 158 L107 453 L50 453 L50 110 C50 38 95 -7 168 -7 C176 -7 182 -6 194 -5 C173 -24 164 -42 164 -68 C164 -115 194 -142 246 -142 C263 -142 274 -140 291 -133 L291 -85 C278 -90 265 -93 252 -93 C227 -93 214 -81 214 -57 C214 -30 225 -6 250 20 C275 45 286 72 286 110 L286 453 L229 453 Z " />
<glyph glyph-name="Wcircumflex" unicode="&#x174;" horiz-adv-x="506" d="M504 667 L441 667 L375 248 C366 189 361 154 359 122 C352 172 347 213 342 245 L280 667 L227 667 L155 252 L152 229 C146 191 142 168 141 160 C140 147 138 135 136 122 C132 177 128 218 125 247 L64 667 L1 667 L107 0 L164 0 L238 431 C241 447 248 498 249 520 L251 541 C251 543 252 549 253 558 C255 515 258 487 265 434 L330 0 L386 0 L504 667 Z M252 859 L140 752 L177 713 L252 783 L325 713 L366 752 L252 859 Z " />
<glyph glyph-name="wcircumflex" unicode="&#x175;" horiz-adv-x="445" d="M435 453 L377 453 L321 179 C316 150 311 122 306 83 L304 100 C297 155 297 158 295 168 L293 180 L249 453 L191 453 L145 175 L143 165 L137 127 C137 123 136 115 134 104 L132 83 C130 112 127 132 119 178 L68 453 L10 453 L101 0 L160 0 L210 305 C211 312 212 318 212 319 L215 344 L217 364 L219 377 C220 362 221 355 223 344 L226 320 L228 306 L277 0 L336 0 L435 453 Z M223 653 L113 545 L151 507 L223 577 L294 507 L332 545 L223 653 Z " />
<glyph glyph-name="Ycircumflex" unicode="&#x176;" horiz-adv-x="316" d="M315 667 L248 667 L191 475 C172 411 168 392 161 353 C151 403 146 424 131 472 L68 667 L1 667 L131 292 L131 0 L193 0 L193 292 L315 667 Z M156 859 L45 752 L82 713 L156 783 L230 713 L271 752 L156 859 Z " />
<glyph glyph-name="ycircumflex" unicode="&#x177;" horiz-adv-x="293" d="M287 453 L227 453 L166 193 L161 174 C157 155 153 139 150 126 C146 106 146 106 143 88 C141 109 133 151 123 202 L66 453 L7 453 L115 12 L71 -164 L132 -164 L287 453 Z M147 653 L38 545 L75 507 L147 577 L219 507 L256 545 L147 653 Z " />
<glyph glyph-name="Ydieresis" unicode="&#x178;" horiz-adv-x="316" d="M315 667 L248 667 L191 475 C172 411 168 392 161 353 C151 403 146 424 131 472 L68 667 L1 667 L131 292 L131 0 L193 0 L193 292 L315 667 Z M93 810 C69 810 50 790 50 767 C50 743 69 723 93 723 C117 723 137 742 137 767 C137 791 117 810 93 810 L93 810 Z M221 810 C197 810 178 790 178 767 C178 743 197 723 221 723 C245 723 265 742 265 767 C265 791 245 810 221 810 L221 810 Z " />
<glyph glyph-name="Zacute" unicode="&#x179;" horiz-adv-x="279" d="M271 667 L26 667 L26 610 L193 610 L8 0 L253 0 L253 57 L84 57 L271 667 Z M196 859 L106 740 L142 713 L246 817 L196 859 Z " />
<glyph glyph-name="zacute" unicode="&#x17a;" horiz-adv-x="275" d="M240 53 L87 53 L270 453 L29 453 L29 400 L183 400 L5 0 L240 0 L240 53 Z M199 652 L109 534 L145 507 L249 611 L199 652 Z " />
<glyph glyph-name="Zdotaccent" unicode="&#x17b;" horiz-adv-x="279" d="M271 667 L26 667 L26 610 L193 610 L8 0 L253 0 L253 57 L84 57 L271 667 Z M148 814 C123 814 103 794 103 769 C103 744 123 723 148 723 C174 723 194 743 194 769 C194 794 174 814 148 814 L148 814 Z " />
<glyph glyph-name="zdotaccent" unicode="&#x17c;" horiz-adv-x="275" d="M240 53 L87 53 L270 453 L29 453 L29 400 L183 400 L5 0 L240 0 L240 53 Z M150 608 C124 608 104 588 104 563 C104 538 125 517 149 517 C175 517 195 537 195 563 C195 588 175 608 150 608 L150 608 Z " />
<glyph glyph-name="Zcaron" unicode="&#x17d;" horiz-adv-x="279" d="M271 667 L26 667 L26 610 L193 610 L8 0 L253 0 L253 57 L84 57 L271 667 Z M146 713 L261 821 L220 859 L146 790 L72 859 L35 821 L146 713 Z " />
<glyph glyph-name="zcaron" unicode="&#x17e;" horiz-adv-x="275" d="M240 53 L87 53 L270 453 L29 453 L29 400 L183 400 L5 0 L240 0 L240 53 Z M151 507 L261 614 L223 653 L151 583 L80 653 L42 614 L151 507 Z " />
<glyph glyph-name="longs" unicode="&#x17f;" horiz-adv-x="206" d="M124 0 L124 621 C124 651 125 659 132 668 C138 677 150 683 162 683 C174 683 184 678 203 664 L203 726 C185 733 170 736 152 736 C127 736 104 726 90 709 C73 688 67 666 67 621 L67 453 L16 453 L16 400 L67 400 L67 0 L124 0 Z " />
<glyph glyph-name="uni018F" unicode="&#x18f;" horiz-adv-x="404" d="M38 333 C38 105 93 -9 202 -9 C314 -9 366 100 366 336 C366 566 313 676 202 676 C104 676 50 585 39 400 L103 400 C109 545 142 616 203 616 C274 616 303 533 303 333 L38 333 Z M301 276 C300 228 296 186 290 159 C277 86 248 52 203 52 C140 52 112 112 103 276 L301 276 Z " />
<glyph glyph-name="florin" unicode="&#x192;" horiz-adv-x="366" d="M231 431 L308 431 L316 476 L239 476 L266 629 C274 675 285 690 313 690 C327 690 335 686 351 672 L361 732 C346 740 331 743 310 743 C250 743 221 711 207 627 L180 476 L126 476 L118 431 L172 431 L91 -29 C83 -74 71 -89 45 -89 C31 -89 21 -84 6 -71 L-5 -132 C21 -141 27 -142 45 -142 C106 -142 135 -109 150 -26 L231 431 Z " />
<glyph glyph-name="uni01C4" unicode="&#x1c4;" horiz-adv-x="649" d="M55 667 L55 0 L137 0 C205 0 249 17 278 53 C319 105 333 176 333 333 C333 593 289 667 133 667 L55 667 Z M117 610 L144 610 C202 610 233 588 250 535 C261 501 270 401 270 309 C270 175 259 124 223 85 C206 66 180 57 146 57 L117 57 L117 610 Z M642 667 L397 667 L397 610 L564 610 L379 0 L624 0 L624 57 L456 57 L642 667 Z M517 713 L632 821 L591 859 L517 790 L443 859 L406 821 L517 713 Z " />
<glyph glyph-name="uni01C5" unicode="&#x1c5;" horiz-adv-x="645" d="M55 667 L55 0 L137 0 C205 0 249 17 278 53 C319 105 333 176 333 333 C333 593 289 667 133 667 L55 667 Z M117 610 L144 610 C202 610 233 588 250 535 C261 501 270 401 270 309 C270 175 259 124 223 85 C206 66 180 57 146 57 L117 57 L117 610 Z M611 53 L458 53 L641 453 L400 453 L400 400 L554 400 L376 0 L611 0 L611 53 Z M522 507 L631 614 L593 653 L522 583 L450 653 L412 614 L522 507 Z " />
<glyph glyph-name="uni01C6" unicode="&#x1c6;" horiz-adv-x="600" d="M275 729 L218 729 L218 422 C195 450 177 460 146 460 C66 460 33 394 33 231 C33 61 63 -7 140 -7 C172 -7 194 5 218 36 L218 0 L275 0 L275 729 Z M159 413 C206 413 223 366 223 234 C223 85 208 40 158 40 C108 40 92 88 92 238 C92 362 112 413 159 413 L159 413 Z M565 53 L412 53 L595 453 L354 453 L354 400 L508 400 L330 0 L565 0 L565 53 Z M476 507 L585 614 L547 653 L476 583 L404 653 L366 614 L476 507 Z " />
<glyph glyph-name="uni01C7" unicode="&#x1c7;" horiz-adv-x="487" d="M117 667 L55 667 L55 0 L262 0 L262 57 L117 57 L117 667 Z M462 667 L400 667 L400 127 C400 85 400 80 397 70 C391 52 377 43 355 43 C334 43 318 50 294 72 L294 8 C321 -5 341 -10 365 -10 C402 -10 433 3 447 24 C460 42 462 57 462 114 L462 667 Z " />
<glyph glyph-name="uni01C8" unicode="&#x1c8;" horiz-adv-x="423" d="M117 667 L55 667 L55 0 L262 0 L262 57 L117 57 L117 667 Z M374 453 L317 453 L317 -173 L374 -173 L374 453 Z M345 630 C321 630 302 611 302 587 C302 564 321 545 345 545 C368 545 387 564 387 588 C387 611 368 630 345 630 L345 630 Z " />
<glyph glyph-name="uni01C9" unicode="&#x1c9;" horiz-adv-x="318" d="M107 729 L50 729 L50 0 L107 0 L107 729 Z M268 453 L211 453 L211 -173 L268 -173 L268 453 Z M240 630 C216 630 197 611 197 587 C197 564 216 545 240 545 C263 545 282 564 282 588 C282 611 263 630 240 630 L240 630 Z " />
<glyph glyph-name="uni01CA" unicode="&#x1ca;" horiz-adv-x="611" d="M332 667 L278 667 L278 232 C279 187 280 170 284 135 L281 145 L275 165 C270 180 265 197 260 214 L109 667 L55 667 L55 0 L109 0 L109 416 C108 469 107 490 103 534 C113 500 114 496 115 490 C118 480 121 470 125 460 L131 440 L278 0 L332 0 L332 667 Z M556 667 L494 667 L494 127 C494 85 494 80 491 70 C485 52 471 43 449 43 C428 43 412 50 388 72 L388 8 C415 -5 435 -10 459 -10 C496 -10 527 3 541 24 C554 42 556 57 556 114 L556 667 Z " />
<glyph glyph-name="uni01CB" unicode="&#x1cb;" horiz-adv-x="547" d="M332 667 L278 667 L278 232 C279 187 280 170 284 135 L281 145 L275 165 C270 180 265 197 260 214 L109 667 L55 667 L55 0 L109 0 L109 416 C108 469 107 490 103 534 C113 500 114 496 115 490 C118 480 121 470 125 460 L131 440 L278 0 L332 0 L332 667 Z M498 453 L441 453 L441 -173 L498 -173 L498 453 Z M469 630 C445 630 426 611 426 587 C426 564 445 545 469 545 C492 545 511 564 511 588 C511 611 492 630 469 630 L469 630 Z " />
<glyph glyph-name="uni01CC" unicode="&#x1cc;" horiz-adv-x="495" d="M107 453 L50 453 L50 0 L107 0 L107 305 C107 347 111 367 122 384 C133 401 155 413 176 413 C193 413 209 405 217 392 C226 378 227 369 227 325 L227 0 L284 0 L284 334 C284 421 256 460 195 460 C162 460 132 445 107 417 L107 453 Z M445 453 L388 453 L388 -173 L445 -173 L445 453 Z M416 630 C392 630 373 611 373 587 C373 564 392 545 416 545 C439 545 458 564 458 588 C458 611 439 630 416 630 L416 630 Z " />
<glyph glyph-name="uni01CD" unicode="&#x1cd;" horiz-adv-x="325" d="M190 667 L132 667 L1 0 L67 0 L91 137 L232 137 L258 0 L324 0 L190 667 Z M223 190 L101 190 L143 426 C150 470 155 516 160 583 C163 519 166 495 179 426 L223 190 Z M161 713 L276 821 L235 859 L161 790 L87 859 L50 821 L161 713 Z " />
<glyph glyph-name="uni01CE" unicode="&#x1ce;" horiz-adv-x="331" d="M281 453 L224 453 L224 422 C201 450 183 460 152 460 C72 460 39 394 39 231 C39 61 69 -7 146 -7 C178 -7 200 5 224 36 L224 0 L281 0 L281 453 Z M165 413 C213 413 229 367 229 234 C229 84 214 40 164 40 C114 40 98 88 98 238 C98 362 118 413 165 413 L165 413 Z M173 507 L283 614 L245 653 L173 583 L102 653 L64 614 L173 507 Z " />
<glyph glyph-name="uni01CF" unicode="&#x1cf;" horiz-adv-x="171" d="M117 667 L55 667 L55 0 L117 0 L117 667 Z M84 713 L199 821 L158 859 L84 790 L10 859 L-27 821 L84 713 Z " />
<glyph glyph-name="uni01D0" unicode="&#x1d0;" horiz-adv-x="157" d="M107 453 L50 453 L50 0 L107 0 L107 453 Z M78 507 L188 614 L150 653 L78 583 L7 653 L-31 614 L78 507 Z " />
<glyph glyph-name="uni01D1" unicode="&#x1d1;" horiz-adv-x="404" d="M202 676 C160 676 125 658 100 625 C58 569 38 475 38 334 C38 105 93 -9 202 -9 C313 -9 366 100 366 330 C366 566 314 676 202 676 L202 676 Z M203 616 C274 616 303 533 303 332 C303 134 274 52 203 52 C133 52 101 142 101 334 C101 527 133 616 203 616 L203 616 Z M201 713 L315 821 L274 859 L201 790 L126 859 L89 821 L201 713 Z " />
<glyph glyph-name="uni01D2" unicode="&#x1d2;" horiz-adv-x="327" d="M165 460 C80 460 33 378 33 227 C33 74 79 -7 166 -7 C250 -7 293 70 293 221 C293 383 252 460 165 460 L165 460 Z M164 407 C210 407 234 345 234 224 C234 169 226 115 214 84 C204 61 185 46 164 46 C117 46 92 107 92 222 C92 345 116 407 164 407 L164 407 Z M163 507 L272 614 L235 653 L163 583 L91 653 L54 614 L163 507 Z " />
<glyph glyph-name="uni01D3" unicode="&#x1d3;" horiz-adv-x="390" d="M336 667 L274 667 L274 205 C274 126 270 99 256 81 C243 62 221 52 196 52 C172 52 151 61 137 77 C121 96 117 120 117 205 L117 667 L55 667 L55 200 C55 123 59 91 72 64 C94 17 137 -9 196 -9 C250 -9 291 13 314 54 C331 83 336 115 336 200 L336 667 Z M194 713 L309 821 L268 859 L194 790 L120 859 L83 821 L194 713 Z " />
<glyph glyph-name="uni01D4" unicode="&#x1d4;" horiz-adv-x="336" d="M50 453 L50 110 C50 38 95 -7 168 -7 C241 -7 286 38 286 110 L286 453 L229 453 L229 158 C229 113 227 92 220 78 C211 57 193 46 168 46 C144 46 127 56 118 74 C110 89 107 110 107 158 L107 453 L50 453 Z M168 507 L277 614 L240 653 L168 583 L96 653 L59 614 L168 507 Z " />
<glyph glyph-name="uni01DD" unicode="&#x1dd;" horiz-adv-x="317" d="M33 238 L33 210 C33 73 78 -7 156 -7 C235 -7 283 81 283 228 C283 379 237 460 151 460 C81 460 41 404 37 299 L94 299 C99 375 116 407 155 407 C200 407 226 346 225 238 L33 238 Z M224 190 C220 96 196 46 154 46 C129 46 108 68 100 103 C94 130 92 148 90 190 L224 190 Z " />
<glyph glyph-name="Gcaron" unicode="&#x1e6;" horiz-adv-x="374" d="M183 352 L183 295 L274 295 L274 233 C274 151 270 112 260 91 C248 65 226 51 197 51 C161 51 134 74 122 115 C108 164 101 246 101 354 C101 538 130 616 199 616 C240 616 261 591 274 526 L335 550 C325 590 316 608 301 629 C279 659 241 676 200 676 C148 676 102 649 79 604 C50 551 38 475 38 347 C38 190 55 84 88 41 C113 8 150 -9 194 -9 C254 -9 297 21 320 78 C331 107 336 148 336 218 L336 352 L183 352 Z M199 713 L314 821 L273 859 L199 790 L125 859 L88 821 L199 713 Z " />
<glyph glyph-name="gcaron" unicode="&#x1e7;" horiz-adv-x="335" d="M285 453 L228 453 L228 422 C206 448 183 460 153 460 C77 460 39 385 39 236 C39 71 74 0 155 0 C185 0 206 9 228 32 L228 -4 C227 -74 226 -86 220 -99 C211 -118 194 -127 168 -127 C125 -127 107 -101 107 -37 L50 -37 L50 -55 C50 -136 91 -180 167 -180 C207 -180 238 -168 259 -145 C279 -122 285 -97 285 -27 L285 453 Z M164 413 C214 413 233 363 233 235 C233 91 218 47 169 47 C119 47 98 100 98 222 C98 360 116 413 164 413 L164 413 Z M172 507 L281 614 L244 653 L172 583 L100 653 L63 614 L172 507 Z " />
<glyph glyph-name="uni01F4" unicode="&#x1f4;" horiz-adv-x="374" d="M183 352 L183 295 L274 295 L274 233 C274 151 270 112 260 91 C248 65 226 51 197 51 C161 51 134 74 122 115 C108 164 101 246 101 354 C101 538 130 616 199 616 C240 616 261 591 274 526 L335 550 C325 590 316 608 301 629 C279 659 241 676 200 676 C148 676 102 649 79 604 C50 551 38 475 38 347 C38 190 55 84 88 41 C113 8 150 -9 194 -9 C254 -9 297 21 320 78 C331 107 336 148 336 218 L336 352 L183 352 Z M247 859 L157 740 L193 713 L297 817 L247 859 Z " />
<glyph glyph-name="uni01F5" unicode="&#x1f5;" horiz-adv-x="335" d="M285 453 L228 453 L228 422 C206 448 183 460 153 460 C77 460 39 385 39 236 C39 71 74 0 155 0 C185 0 206 9 228 32 L228 -4 C227 -74 226 -86 220 -99 C211 -118 194 -127 168 -127 C125 -127 107 -101 107 -37 L50 -37 L50 -55 C50 -136 91 -180 167 -180 C207 -180 238 -168 259 -145 C279 -122 285 -97 285 -27 L285 453 Z M164 413 C214 413 233 363 233 235 C233 91 218 47 169 47 C119 47 98 100 98 222 C98 360 116 413 164 413 L164 413 Z M198 652 L108 534 L144 507 L248 611 L198 652 Z " />
<glyph glyph-name="Aringacute" unicode="&#x1fa;" horiz-adv-x="325" d="M190 667 L132 667 L1 0 L67 0 L91 137 L232 137 L258 0 L324 0 L190 667 Z M223 190 L101 190 L143 426 C150 470 155 516 160 583 C163 519 166 495 179 426 L223 190 Z M161 836 C118 836 84 802 84 759 C84 717 118 682 160 682 C204 682 238 716 238 759 C238 802 204 836 161 836 L161 836 Z M161 796 C182 796 198 780 198 759 C198 738 182 722 161 722 C140 722 124 739 124 759 C124 780 140 796 161 796 L161 796 Z M141 956 L51 837 L87 811 L191 914 L141 956 Z " />
<glyph glyph-name="aringacute" unicode="&#x1fb;" horiz-adv-x="331" d="M281 453 L224 453 L224 422 C201 450 183 460 152 460 C72 460 39 394 39 231 C39 61 69 -7 146 -7 C178 -7 200 5 224 36 L224 0 L281 0 L281 453 Z M165 413 C213 413 229 367 229 234 C229 84 214 40 164 40 C114 40 98 88 98 238 C98 362 118 413 165 413 L165 413 Z M174 660 C131 660 97 626 97 584 C97 542 131 507 173 507 C216 507 250 541 250 584 C250 626 216 660 174 660 L174 660 Z M174 620 C194 620 210 604 210 584 C210 563 194 547 173 547 C153 547 137 564 137 584 C137 604 153 620 174 620 L174 620 Z M155 785 L65 666 L101 639 L205 743 L155 785 Z " />
<glyph glyph-name="AEacute" unicode="&#x1fc;" horiz-adv-x="462" d="M354 667 L132 667 L1 0 L67 0 L90 137 L242 137 L264 0 L470 0 L461 57 L321 57 L274 318 L409 318 L399 375 L264 375 L221 610 L364 610 L354 667 Z M233 190 L101 190 L151 473 C163 544 165 558 170 595 C176 536 178 518 186 472 L233 190 Z M267 859 L178 740 L213 713 L318 817 L267 859 Z " />
<glyph glyph-name="aeacute" unicode="&#x1fd;" horiz-adv-x="514" d="M480 217 C480 276 477 303 470 334 C450 417 411 460 355 460 C314 460 276 430 258 384 C235 435 196 460 142 460 C112 460 89 452 60 434 L60 371 C96 398 114 406 139 406 C177 406 204 385 219 345 C226 324 228 310 228 265 C208 289 180 302 147 302 C76 302 33 246 33 152 C33 54 78 -7 149 -7 C198 -7 239 22 258 69 C281 18 313 -7 356 -7 C424 -7 471 58 474 157 L420 157 C418 83 398 46 360 46 C310 46 281 108 280 217 L480 217 Z M282 265 C283 349 311 407 351 407 C394 407 422 352 423 265 L282 265 Z M157 255 C202 255 229 214 229 146 C229 86 200 46 156 46 C113 46 88 85 88 152 C88 218 113 255 157 255 L157 255 Z M295 652 L206 534 L241 507 L346 611 L295 652 Z " />
<glyph glyph-name="Oslashacute" unicode="&#x1fe;" horiz-adv-x="417" d="M385 656 L346 675 L318 617 C293 656 256 676 208 676 C100 676 45 561 45 336 C45 236 56 154 76 100 L33 11 L72 -8 L101 51 C127 10 163 -9 210 -9 C321 -9 373 100 373 332 C373 432 362 517 343 567 L385 656 Z M301 486 C307 438 310 394 310 339 C310 134 281 52 209 52 C175 52 152 71 135 114 L301 486 Z M118 180 C111 233 108 277 108 336 C108 526 141 616 210 616 C245 616 269 597 285 553 L118 180 Z M248 859 L158 740 L194 713 L298 817 L248 859 Z " />
<glyph glyph-name="oslashacute" unicode="&#x1ff;" horiz-adv-x="340" d="M315 444 L284 463 L258 417 C234 447 208 460 172 460 C86 460 40 378 40 226 C40 168 47 120 62 78 L24 12 L56 -7 L82 38 C105 8 135 -7 173 -7 C258 -7 300 69 300 224 C300 294 294 339 278 379 L315 444 Z M234 311 C239 275 241 252 241 224 C241 108 217 46 172 46 C148 46 129 61 118 89 L234 311 Z M104 141 C100 176 99 199 99 227 C99 345 124 407 171 407 C193 407 211 393 221 366 L104 141 Z M212 652 L123 534 L158 507 L263 611 L212 652 Z " />
<glyph glyph-name="uni0200" unicode="&#x200;" horiz-adv-x="325" d="M190 667 L132 667 L1 0 L67 0 L91 137 L232 137 L258 0 L324 0 L190 667 Z M223 190 L101 190 L143 426 C150 470 155 516 160 583 C163 519 166 495 179 426 L223 190 Z M50 859 L4 828 L101 713 L134 736 L50 859 Z M160 859 L114 828 L211 713 L244 736 L160 859 Z " />
<glyph glyph-name="uni0201" unicode="&#x201;" horiz-adv-x="331" d="M281 453 L224 453 L224 422 C201 450 183 460 152 460 C72 460 39 394 39 231 C39 61 69 -7 146 -7 C178 -7 200 5 224 36 L224 0 L281 0 L281 453 Z M165 413 C213 413 229 367 229 234 C229 84 214 40 164 40 C114 40 98 88 98 238 C98 362 118 413 165 413 L165 413 Z M74 652 L28 622 L118 507 L150 530 L74 652 Z M180 652 L135 622 L224 507 L257 530 L180 652 Z " />
<glyph glyph-name="Scommaaccent" unicode="&#x218;" horiz-adv-x="347" d="M289 641 C253 666 223 676 184 676 C96 676 31 602 31 499 C31 422 61 377 154 314 C238 257 259 228 259 170 C259 101 216 51 158 51 C119 51 86 67 50 105 L50 25 C81 1 116 -10 155 -10 C249 -10 322 72 322 178 C322 257 293 298 181 374 C118 416 94 453 94 507 C94 571 134 616 190 616 C228 616 253 603 289 562 L289 641 Z M197 -66 L147 -43 L83 -196 L122 -214 L197 -66 Z " />
<glyph glyph-name="scommaaccent" unicode="&#x219;" horiz-adv-x="251" d="M221 431 C192 452 170 460 140 460 C75 460 28 412 28 346 C28 302 50 267 109 215 C163 168 175 150 175 116 C175 76 147 46 109 46 C81 46 61 57 28 91 L28 24 C56 3 83 -7 112 -7 C182 -7 234 48 234 121 C234 172 217 200 151 254 C102 295 87 316 87 348 C87 382 111 407 144 407 C171 407 194 393 221 361 L221 431 Z M147 -63 L97 -40 L34 -189 L73 -207 L147 -63 Z " />
<glyph glyph-name="uni021A" unicode="&#x21a;" horiz-adv-x="265" d="M263 667 L1 667 L1 610 L101 610 L101 0 L163 0 L163 610 L263 610 L263 667 Z M160 -66 L110 -43 L45 -196 L84 -214 L160 -66 Z " />
<glyph glyph-name="uni021B" unicode="&#x21b;" horiz-adv-x="201" d="M199 453 L123 453 L123 577 L66 577 L66 453 L18 453 L18 400 L66 400 L66 0 L123 0 L123 400 L199 400 L199 453 Z M123 -63 L73 -40 L10 -189 L49 -207 L123 -63 Z " />
<glyph glyph-name="uni0226" unicode="&#x226;" horiz-adv-x="325" d="M190 667 L132 667 L1 0 L67 0 L91 137 L232 137 L258 0 L324 0 L190 667 Z M223 190 L101 190 L143 426 C150 470 155 516 160 583 C163 519 166 495 179 426 L223 190 Z M162 814 C136 814 116 794 116 769 C116 744 137 723 161 723 C187 723 207 743 207 769 C207 794 187 814 162 814 L162 814 Z " />
<glyph glyph-name="uni0227" unicode="&#x227;" horiz-adv-x="331" d="M281 453 L224 453 L224 422 C201 450 183 460 152 460 C72 460 39 394 39 231 C39 61 69 -7 146 -7 C178 -7 200 5 224 36 L224 0 L281 0 L281 453 Z M165 413 C213 413 229 367 229 234 C229 84 214 40 164 40 C114 40 98 88 98 238 C98 362 118 413 165 413 L165 413 Z M173 608 C147 608 127 588 127 563 C127 538 148 517 172 517 C198 517 218 537 218 563 C218 588 198 608 173 608 L173 608 Z " />
<glyph glyph-name="uni0237" unicode="&#x237;" horiz-adv-x="161" d="M110 453 L53 453 L53 -167 L110 -167 L110 453 Z " />
<glyph glyph-name="uni02BB" unicode="&#x2bb;" horiz-adv-x="205" d="M40 478 L102 450 L171 656 L128 676 L40 478 Z " />
<glyph glyph-name="afii57929" unicode="&#x2bc;" horiz-adv-x="205" d="M171 647 L109 676 L40 470 L83 450 L171 647 Z " />
<glyph glyph-name="circumflex" unicode="&#x2c6;" horiz-adv-x="500" d="M250 653 L141 545 L179 507 L250 577 L322 507 L360 545 L250 653 Z " />
<glyph glyph-name="caron" unicode="&#x2c7;" horiz-adv-x="500" d="M250 507 L360 614 L322 653 L250 583 L179 653 L141 614 L250 507 Z " />
<glyph glyph-name="uni02C9" unicode="&#x2c9;" horiz-adv-x="500" d="M146 530 L355 530 L355 583 L146 583 L146 530 Z " />
<glyph glyph-name="breve" unicode="&#x2d8;" horiz-adv-x="500" d="M303 629 C295 587 276 565 247 565 C220 565 203 586 196 629 L143 629 C150 554 189 510 250 510 C310 510 349 554 356 629 L303 629 Z " />
<glyph glyph-name="dotaccent" unicode="&#x2d9;" horiz-adv-x="500" d="M250 608 C224 608 204 588 204 563 C204 538 225 517 249 517 C275 517 295 537 295 563 C295 588 275 608 250 608 L250 608 Z " />
<glyph glyph-name="ring" unicode="&#x2da;" horiz-adv-x="500" d="M250 660 C207 660 173 626 173 584 C173 542 207 507 249 507 C292 507 326 541 326 584 C326 626 292 660 250 660 L250 660 Z M250 620 C270 620 286 604 286 584 C286 563 270 547 249 547 C229 547 213 564 213 584 C213 604 229 620 250 620 L250 620 Z " />
<glyph glyph-name="ogonek" unicode="&#x2db;" horiz-adv-x="500" d="M354 0 C318 -35 306 -57 306 -86 C306 -126 338 -152 388 -152 C405 -152 416 -150 433 -143 L433 -95 C420 -100 407 -103 393 -103 C370 -103 356 -92 356 -72 C356 -52 372 -25 400 0 L354 0 Z " />
<glyph glyph-name="tilde" unicode="&#x2dc;" horiz-adv-x="500" d="M309 599 C309 581 304 574 292 574 C286 574 278 577 251 589 C229 600 217 603 203 603 C165 603 142 577 135 526 L191 526 L191 531 C191 543 198 551 208 551 C212 551 219 549 229 544 C262 527 278 522 296 522 C337 522 361 548 365 599 L309 599 Z " />
<glyph glyph-name="hungarumlaut" unicode="&#x2dd;" horiz-adv-x="500" d="M364 652 L288 530 L320 507 L410 622 L364 652 Z M257 652 L181 530 L213 507 L303 622 L257 652 Z " />
<glyph glyph-name="pi" unicode="&#x3c0;" horiz-adv-x="310" d="M257 400 L290 400 L290 453 L20 453 L20 400 L53 400 L53 0 L110 0 L110 400 L200 400 L200 0 L257 0 L257 400 Z " />
<glyph glyph-name="uni1E1E" unicode="&#x1e1e;" horiz-adv-x="295" d="M268 667 L55 667 L55 0 L117 0 L117 318 L260 318 L260 375 L117 375 L117 610 L268 610 L268 667 Z M162 814 C136 814 116 794 116 769 C116 744 137 723 161 723 C187 723 207 743 207 769 C207 794 187 814 162 814 L162 814 Z " />
<glyph glyph-name="Wgrave" unicode="&#x1e80;" horiz-adv-x="506" d="M504 667 L441 667 L375 248 C366 189 361 154 359 122 C352 172 347 213 342 245 L280 667 L227 667 L155 252 L152 229 C146 191 142 168 141 160 C140 147 138 135 136 122 C132 177 128 218 125 247 L64 667 L1 667 L107 0 L164 0 L238 431 C241 447 248 498 249 520 L251 541 C251 543 252 549 253 558 C255 515 258 487 265 434 L330 0 L386 0 L504 667 Z M217 859 L167 817 L271 713 L307 740 L217 859 Z " />
<glyph glyph-name="wgrave" unicode="&#x1e81;" horiz-adv-x="445" d="M435 453 L377 453 L321 179 C316 150 311 122 306 83 L304 100 C297 155 297 158 295 168 L293 180 L249 453 L191 453 L145 175 L143 165 L137 127 C137 123 136 115 134 104 L132 83 C130 112 127 132 119 178 L68 453 L10 453 L101 0 L160 0 L210 305 C211 312 212 318 212 319 L215 344 L217 364 L219 377 C220 362 221 355 223 344 L226 320 L228 306 L277 0 L336 0 L435 453 Z M187 652 L137 611 L241 507 L277 534 L187 652 Z " />
<glyph glyph-name="Wacute" unicode="&#x1e82;" horiz-adv-x="506" d="M504 667 L441 667 L375 248 C366 189 361 154 359 122 C352 172 347 213 342 245 L280 667 L227 667 L155 252 L152 229 C146 191 142 168 141 160 C140 147 138 135 136 122 C132 177 128 218 125 247 L64 667 L1 667 L107 0 L164 0 L238 431 C241 447 248 498 249 520 L251 541 C251 543 252 549 253 558 C255 515 258 487 265 434 L330 0 L386 0 L504 667 Z M286 859 L197 740 L232 713 L337 817 L286 859 Z " />
<glyph glyph-name="wacute" unicode="&#x1e83;" horiz-adv-x="445" d="M435 453 L377 453 L321 179 C316 150 311 122 306 83 L304 100 C297 155 297 158 295 168 L293 180 L249 453 L191 453 L145 175 L143 165 L137 127 C137 123 136 115 134 104 L132 83 C130 112 127 132 119 178 L68 453 L10 453 L101 0 L160 0 L210 305 C211 312 212 318 212 319 L215 344 L217 364 L219 377 C220 362 221 355 223 344 L226 320 L228 306 L277 0 L336 0 L435 453 Z M253 652 L163 534 L199 507 L303 611 L253 652 Z " />
<glyph glyph-name="Wdieresis" unicode="&#x1e84;" horiz-adv-x="506" d="M504 667 L441 667 L375 248 C366 189 361 154 359 122 C352 172 347 213 342 245 L280 667 L227 667 L155 252 L152 229 C146 191 142 168 141 160 C140 147 138 135 136 122 C132 177 128 218 125 247 L64 667 L1 667 L107 0 L164 0 L238 431 C241 447 248 498 249 520 L251 541 C251 543 252 549 253 558 C255 515 258 487 265 434 L330 0 L386 0 L504 667 Z M189 810 C165 810 145 790 145 767 C145 743 165 723 188 723 C213 723 232 742 232 767 C232 791 213 810 189 810 L189 810 Z M317 810 C293 810 273 790 273 767 C273 743 293 723 316 723 C341 723 360 742 360 767 C360 791 341 810 317 810 L317 810 Z " />
<glyph glyph-name="wdieresis" unicode="&#x1e85;" horiz-adv-x="445" d="M435 453 L377 453 L321 179 C316 150 311 122 306 83 L304 100 C297 155 297 158 295 168 L293 180 L249 453 L191 453 L145 175 L143 165 L137 127 C137 123 136 115 134 104 L132 83 C130 112 127 132 119 178 L68 453 L10 453 L101 0 L160 0 L210 305 C211 312 212 318 212 319 L215 344 L217 364 L219 377 C220 362 221 355 223 344 L226 320 L228 306 L277 0 L336 0 L435 453 Z M161 604 C137 604 117 584 117 561 C117 537 137 517 160 517 C185 517 204 536 204 561 C204 585 185 604 161 604 L161 604 Z M285 604 C261 604 241 584 241 561 C241 537 261 517 284 517 C309 517 328 536 328 561 C328 585 309 604 285 604 L285 604 Z " />
<glyph glyph-name="Ygrave" unicode="&#x1ef2;" horiz-adv-x="316" d="M315 667 L248 667 L191 475 C172 411 168 392 161 353 C151 403 146 424 131 472 L68 667 L1 667 L131 292 L131 0 L193 0 L193 292 L315 667 Z M138 859 L87 817 L192 713 L227 740 L138 859 Z " />
<glyph glyph-name="ygrave" unicode="&#x1ef3;" horiz-adv-x="293" d="M287 453 L227 453 L166 193 L161 174 C157 155 153 139 150 126 C146 106 146 106 143 88 C141 109 133 151 123 202 L66 453 L7 453 L115 12 L71 -164 L132 -164 L287 453 Z M127 652 L77 611 L181 507 L217 534 L127 652 Z " />
<glyph glyph-name="uni2011" unicode="&#x2011;" horiz-adv-x="138" d="M0 202 L138 202 L138 272 L0 272 L0 202 Z " />
<glyph glyph-name="figuredash" unicode="&#x2012;" horiz-adv-x="367" d="M66 202 L300 202 L300 272 L66 272 L66 202 Z " />
<glyph glyph-name="endash" unicode="&#x2013;" horiz-adv-x="367" d="M66 202 L300 202 L300 272 L66 272 L66 202 Z " />
<glyph glyph-name="emdash" unicode="&#x2014;" horiz-adv-x="414" d="M0 202 L414 202 L414 272 L0 272 L0 202 Z " />
<glyph glyph-name="afii00208" unicode="&#x2015;" horiz-adv-x="414" d="M0 202 L414 202 L414 272 L0 272 L0 202 Z " />
<glyph glyph-name="underscoredbl" unicode="&#x2017;" horiz-adv-x="500" d="M0 -60 L0 -99 L500 -99 L500 -60 L0 -60 Z M0 -176 L0 -216 L500 -216 L500 -176 L0 -176 Z " />
<glyph glyph-name="quoteleft" unicode="&#x2018;" horiz-adv-x="205" d="M40 478 L102 450 L171 656 L128 676 L40 478 Z " />
<glyph glyph-name="quoteright" unicode="&#x2019;" horiz-adv-x="205" d="M171 647 L109 676 L40 470 L83 450 L171 647 Z " />
<glyph glyph-name="quotesinglbase" unicode="&#x201a;" horiz-adv-x="205" d="M164 55 L102 83 L33 -122 L76 -142 L164 55 Z " />
<glyph glyph-name="quotereversed" unicode="&#x201b;" horiz-adv-x="500" d="M306 530 L232 674 L193 656 L256 507 L306 530 Z " />
<glyph glyph-name="quotedblleft" unicode="&#x201c;" horiz-adv-x="323" d="M158 478 L220 450 L289 656 L246 676 L158 478 Z M40 478 L102 450 L171 656 L128 676 L40 478 Z " />
<glyph glyph-name="quotedblright" unicode="&#x201d;" horiz-adv-x="323" d="M171 647 L109 676 L40 470 L83 450 L171 647 Z M289 647 L227 676 L158 470 L201 450 L289 647 Z " />
<glyph glyph-name="quotedblbase" unicode="&#x201e;" horiz-adv-x="323" d="M164 55 L102 83 L33 -122 L76 -142 L164 55 Z M282 55 L220 83 L151 -122 L194 -142 L282 55 Z " />
<glyph glyph-name="dagger" unicode="&#x2020;" horiz-adv-x="367" d="M156 -173 L209 -173 L209 506 L303 506 L303 553 L209 553 L209 729 L156 729 L156 553 L63 553 L63 506 L156 506 L156 -173 Z " />
<glyph glyph-name="daggerdbl" unicode="&#x2021;" horiz-adv-x="367" d="M156 496 L156 251 L63 251 L63 204 L156 204 L156 -173 L209 -173 L209 204 L303 204 L303 251 L209 251 L209 496 L303 496 L303 543 L209 543 L209 729 L156 729 L156 543 L63 543 L63 496 L156 496 Z " />
<glyph glyph-name="bullet" unicode="&#x2022;" horiz-adv-x="667" d="M336 480 C258 480 196 418 196 340 C196 263 258 200 334 200 C410 200 471 263 471 340 C471 417 410 480 336 480 L336 480 Z " />
<glyph glyph-name="ellipsis" unicode="&#x2026;" horiz-adv-x="490" d="M82 83 C57 83 37 63 37 39 C37 13 57 -7 82 -7 C107 -7 127 13 127 38 C127 63 107 83 82 83 L82 83 Z M245 83 C220 83 200 63 200 39 C200 13 220 -7 245 -7 C270 -7 290 13 290 38 C290 63 270 83 245 83 L245 83 Z M409 83 C384 83 364 63 364 39 C364 13 384 -7 409 -7 C434 -7 454 13 454 38 C454 63 434 83 409 83 L409 83 Z " />
<glyph glyph-name="perthousand" unicode="&#x2030;" horiz-adv-x="723" d="M127 672 C71 672 40 608 40 494 C40 386 68 329 121 329 C175 329 202 389 202 509 C202 622 179 672 127 672 L127 672 Z M125 638 C152 638 165 599 165 514 C165 413 151 363 123 363 C94 363 77 411 77 495 C77 583 95 638 125 638 L125 638 Z M414 667 L378 667 L89 0 L125 0 L414 667 Z M388 338 C332 338 301 274 301 160 C301 52 329 -5 382 -5 C436 -5 463 55 463 175 C463 288 440 338 388 338 L388 338 Z M386 304 C413 304 426 265 426 180 C426 79 412 29 384 29 C355 29 338 77 338 161 C338 249 356 304 386 304 L386 304 Z M608 338 C552 338 521 274 521 160 C521 52 549 -5 602 -5 C656 -5 683 55 683 175 C683 288 660 338 608 338 L608 338 Z M606 304 C633 304 646 265 646 180 C646 79 632 29 604 29 C575 29 558 77 558 161 C558 249 576 304 606 304 L606 304 Z " />
<glyph glyph-name="guilsinglleft" unicode="&#x2039;" horiz-adv-x="213" d="M180 404 L141 425 L33 237 L141 43 L180 66 L85 237 L180 404 Z " />
<glyph glyph-name="guilsinglright" unicode="&#x203a;" horiz-adv-x="213" d="M33 404 L128 237 L33 66 L71 43 L180 237 L71 425 L33 404 Z " />
<glyph glyph-name="uni203E" unicode="&#x203e;" horiz-adv-x="500" d="M0 856 L0 802 L500 802 L500 856 L0 856 Z " />
<glyph glyph-name="fraction" unicode="&#x2044;" horiz-adv-x="116" d="M222 667 L182 667 L-107 0 L-66 0 L222 667 Z " />
<glyph glyph-name="franc" unicode="&#x20a3;" horiz-adv-x="367" d="M268 667 L55 667 L55 0 L117 0 L117 318 L260 318 L260 375 L117 375 L117 610 L268 610 L268 667 Z M251 284 L251 0 L304 0 L304 153 C304 175 305 191 307 199 C313 222 330 236 351 236 C356 236 359 236 364 235 L364 295 C340 296 320 278 304 242 L304 284 L251 284 Z " />
<glyph glyph-name="lira" unicode="&#x20a4;" horiz-adv-x="367" d="M40 203 L155 203 C157 191 158 185 158 176 C158 147 150 125 132 97 C125 98 119 99 117 99 C83 99 52 75 30 30 L81 0 C91 28 105 40 124 40 C135 40 142 37 163 24 C224 -16 231 -19 258 -19 C305 -19 340 17 345 73 L293 89 C289 55 278 40 258 40 C243 40 233 44 205 65 C192 73 188 76 180 81 C203 109 218 150 218 187 L217 203 L284 203 L284 244 L206 244 C199 262 192 277 173 310 L284 310 L284 351 L151 351 C117 414 107 449 107 491 C107 556 140 596 193 596 C243 596 275 559 277 499 L335 510 C331 597 275 656 195 656 C106 656 44 588 44 491 C44 441 53 406 82 351 L40 351 L40 310 L106 310 C128 270 136 256 141 244 L40 244 L40 203 Z " />
<glyph glyph-name="peseta" unicode="&#x20a7;" horiz-adv-x="591" d="M117 0 L117 319 L143 319 C262 319 304 364 304 490 C304 618 257 667 135 667 L55 667 L55 0 L117 0 Z M117 610 L148 610 C217 610 241 579 241 490 C241 405 220 376 158 376 L117 376 L117 610 Z M402 291 L355 291 L355 371 L302 371 L302 291 L276 291 L276 240 L302 240 L302 0 L355 0 L355 240 L402 240 L402 291 Z M571 279 C549 292 530 297 509 297 C459 297 423 265 423 220 C423 193 438 171 479 138 C517 109 525 98 525 77 C525 55 509 39 485 39 C464 39 450 45 423 67 L423 13 C445 0 465 -6 488 -6 C541 -6 580 30 580 79 C580 112 569 129 522 163 C488 188 478 201 478 221 C478 239 492 252 511 252 C532 252 550 243 571 223 L571 279 Z " />
<glyph glyph-name="Euro" unicode="&#x20ac;" horiz-adv-x="366" d="M75 364 C74 341 74 325 74 311 L36 311 L27 270 L75 270 C77 208 85 156 99 118 C128 38 184 -9 251 -9 C276 -9 305 -1 326 11 L326 74 C302 59 278 52 255 52 C212 52 181 78 163 131 C151 164 145 203 139 270 L258 270 L266 311 L138 311 L138 314 L138 341 L138 361 L138 364 L275 364 L284 405 L140 405 C144 452 148 486 155 511 C173 582 209 617 261 617 C282 617 302 610 326 595 L338 653 L338 655 C316 670 289 677 258 677 C196 677 147 643 116 580 C98 544 86 488 78 405 L36 405 L27 364 L75 364 Z " />
<glyph glyph-name="uni2101" unicode="&#x2101;" horiz-adv-x="648" d="M151 667 L110 667 L27 267 L75 267 L90 348 L172 348 L187 267 L235 267 L151 667 Z M165 386 L97 386 L122 521 C125 537 126 547 129 572 C133 549 134 543 138 521 L165 386 Z M501 667 L460 667 L171 0 L212 0 L501 667 Z M594 383 C570 399 551 405 526 405 C469 405 428 360 428 298 C428 251 447 223 506 185 C557 153 569 137 569 104 C569 65 544 37 510 37 C484 37 465 47 439 73 L439 16 C461 2 482 -5 507 -5 C568 -5 615 44 615 108 C615 157 596 182 526 226 C487 251 473 271 473 302 C473 338 496 363 529 363 C553 363 568 355 594 327 L594 383 Z " />
<glyph glyph-name="afii61248" unicode="&#x2105;" horiz-adv-x="184" d="M92 382 C68 382 49 363 49 340 C49 316 68 297 92 297 C116 297 135 316 135 340 C135 363 116 382 92 382 L92 382 Z " />
<glyph glyph-name="afii61289" unicode="&#x2113;" horiz-adv-x="500" d="M161 188 C150 101 150 96 150 67 C150 17 175 -14 214 -14 C243 -14 266 2 291 38 C305 60 314 79 314 92 C314 100 310 105 302 105 C295 105 290 101 284 88 C267 49 250 31 231 31 C218 31 212 39 212 55 C212 88 221 145 246 270 C304 330 339 374 363 416 C400 479 422 549 422 602 C422 649 399 679 364 679 C287 679 226 547 170 258 C160 246 133 218 119 206 C102 191 97 185 97 178 C97 172 104 165 109 165 C116 165 134 179 163 207 L161 188 Z M256 327 C278 451 300 544 320 598 C330 625 347 644 363 644 C378 644 388 626 388 598 C388 517 340 418 256 327 L256 327 Z " />
<glyph glyph-name="afii61352" unicode="&#x2116;" horiz-adv-x="600" d="M332 667 L278 667 L278 232 C279 187 280 170 284 135 L281 145 L275 165 C270 180 265 197 260 214 L109 667 L55 667 L55 0 L109 0 L109 416 C108 469 107 490 103 534 C113 500 114 496 115 490 C118 480 121 470 125 460 L131 440 L278 0 L332 0 L332 667 Z M488 426 C426 426 392 374 392 280 C392 183 425 132 488 132 C548 132 580 181 580 275 C580 376 550 426 488 426 L488 426 Z M487 380 C512 380 526 344 526 277 C526 213 512 178 487 178 C460 178 446 212 446 276 C446 345 460 380 487 380 L487 380 Z M580 96 L392 96 L392 46 L580 46 L580 96 Z " />
<glyph glyph-name="uni2117" unicode="&#x2117;" horiz-adv-x="118" d="M84 543 L35 543 L35 267 L84 267 L84 543 Z M59 646 C41 646 26 632 26 614 C26 597 41 583 59 583 C77 583 92 597 92 615 C92 632 77 646 59 646 L59 646 Z " />
<glyph glyph-name="trademark" unicode="&#x2122;" horiz-adv-x="455" d="M165 667 L11 667 L11 628 L67 628 L67 287 L109 287 L109 628 L165 628 L165 667 Z M387 667 L351 667 L303 386 L259 667 L223 667 L170 287 L211 287 L243 543 L285 287 L319 287 L364 548 L392 287 L433 287 L387 667 Z " />
<glyph glyph-name="uni2126" unicode="&#x2126;" horiz-adv-x="667" d="M28 0 L288 0 L288 51 C156 125 92 225 92 355 C92 510 197 627 335 627 C393 627 442 606 487 564 C546 509 574 441 574 356 C574 272 546 198 491 136 C461 103 434 82 379 51 L379 0 L638 0 L638 56 L451 56 C576 128 638 230 638 362 C638 543 505 683 333 683 C161 683 28 543 28 363 C28 230 90 129 216 56 L28 56 L28 0 Z " />
<glyph glyph-name="estimated" unicode="&#x212e;" horiz-adv-x="597" d="M531 250 C529 323 524 358 510 394 C477 474 400 522 304 522 C161 522 71 418 71 254 C71 92 158 -6 303 -6 C412 -6 486 45 516 142 L472 142 C440 73 384 38 304 38 C259 38 222 50 197 73 C178 89 169 106 157 145 L158 250 L531 250 Z M458 285 L160 285 L160 378 C194 452 232 478 304 478 C361 478 400 460 435 419 C447 405 451 398 458 378 L458 285 Z " />
<glyph glyph-name="partialdiff" unicode="&#x2202;" horiz-adv-x="500" d="M90 618 C157 608 197 593 257 554 C323 508 359 458 390 370 L396 355 C377 380 366 392 353 402 C326 422 284 435 244 435 C127 435 34 337 34 214 C34 91 132 -11 252 -11 C322 -11 388 25 427 85 C455 127 467 175 467 240 C467 368 419 488 338 566 C275 626 208 656 99 672 L90 618 Z M257 389 C343 389 406 316 406 218 C406 115 339 36 251 36 C166 36 95 115 95 211 C95 311 166 389 257 389 L257 389 Z " />
<glyph glyph-name="emptyset" unicode="&#x2205;" horiz-adv-x="618" d="M439 667 L392 578 C362 588 340 592 311 592 C175 592 67 485 67 349 C67 267 103 200 175 147 L114 25 L162 0 L225 123 C248 112 271 107 304 107 C443 107 552 214 552 350 C552 432 514 501 439 554 L487 642 L439 667 Z M416 502 C465 472 496 412 496 349 C496 247 412 164 309 164 C290 164 275 166 251 172 L416 502 Z M200 198 C149 239 123 290 123 350 C123 452 208 535 312 535 C332 535 345 533 366 527 L200 198 Z " />
<glyph glyph-name="Delta" unicode="&#x2206;" horiz-adv-x="667" d="M30 0 L637 0 L365 667 L301 667 L30 0 Z M116 56 L333 594 L550 56 L116 56 Z " />
<glyph glyph-name="product" unicode="&#x220f;" horiz-adv-x="691" d="M36 750 L36 694 L114 694 L114 -194 L36 -194 L36 -250 L256 -250 L256 -194 L174 -194 L174 694 L517 694 L517 -194 L434 -194 L434 -250 L655 -250 L655 -194 L577 -194 L577 694 L655 694 L655 750 L36 750 Z " />
<glyph glyph-name="summation" unicode="&#x2211;" horiz-adv-x="667" d="M594 750 L30 750 L30 688 L280 270 L30 -187 L30 -250 L603 -250 L603 -29 L546 -29 L543 -194 L97 -194 L350 270 L97 693 L534 693 L539 526 L594 526 L594 750 Z " />
<glyph glyph-name="minus" unicode="&#x2212;" horiz-adv-x="366" d="M33 313 L333 313 L333 368 L33 368 L33 313 Z " />
<glyph glyph-name="uni2215" unicode="&#x2215;" horiz-adv-x="116" d="M222 667 L182 667 L-107 0 L-66 0 L222 667 Z " />
<glyph glyph-name="uni2218" unicode="&#x2218;" horiz-adv-x="500" d="M253 480 C175 480 113 418 113 340 C113 263 175 200 251 200 C327 200 388 263 388 340 C388 417 327 480 253 480 L253 480 Z M252 433 C301 433 341 391 341 340 C341 289 301 247 251 247 C201 247 160 289 160 340 C160 392 200 433 252 433 L252 433 Z " />
<glyph glyph-name="uni2219" unicode="&#x2219;" horiz-adv-x="177" d="M88 282 C63 282 43 262 43 238 C43 212 63 192 88 192 C113 192 133 212 133 237 C133 262 113 282 88 282 L88 282 Z " />
<glyph glyph-name="radical" unicode="&#x221a;" horiz-adv-x="667" d="M667 828 L416 828 L303 440 L255 279 L229 175 C223 153 217 130 212 108 C211 106 209 98 207 87 L203 87 L199 103 L175 205 L171 223 L130 361 L0 361 L0 305 L81 305 L168 0 L240 0 L467 772 L667 772 L667 828 Z " />
<glyph glyph-name="infinity" unicode="&#x221e;" horiz-adv-x="667" d="M335 299 C386 222 436 189 501 189 C587 189 648 251 648 340 C648 429 587 491 500 491 C434 491 384 458 333 381 C283 456 230 491 169 491 C81 491 19 429 19 341 C19 251 80 189 168 189 C231 189 282 223 335 299 L335 299 Z M364 340 C412 414 445 439 494 439 C548 439 588 397 588 340 C588 283 549 241 494 241 C446 241 410 268 364 340 L364 340 Z M303 340 C256 266 222 240 174 240 C119 240 79 282 79 340 C79 397 118 439 173 439 C221 439 258 411 303 340 L303 340 Z " />
<glyph glyph-name="integral" unicode="&#x222b;" horiz-adv-x="500" d="M106 -239 C125 -247 137 -249 157 -249 C206 -249 244 -232 263 -202 C277 -179 280 -157 280 -68 L280 553 C280 636 281 641 283 653 C288 681 307 696 337 696 C351 696 361 694 379 686 L394 739 C366 748 352 750 332 750 C280 750 241 725 228 684 C222 663 220 637 220 568 L220 -78 C220 -122 219 -141 217 -153 C211 -181 193 -196 163 -196 C149 -196 139 -194 120 -186 L106 -239 Z " />
<glyph glyph-name="similar" unicode="&#x223c;" horiz-adv-x="500" d="M47 268 C76 323 103 345 140 345 C158 345 179 339 211 324 C302 281 321 274 350 274 C408 274 451 307 489 382 L452 404 C419 349 396 331 357 331 C332 331 316 337 258 365 C202 392 172 402 144 402 C88 402 47 368 10 292 L47 268 Z " />
<glyph glyph-name="uni2243" unicode="&#x2243;" horiz-adv-x="500" d="M54 348 C82 400 107 420 142 420 C158 420 180 414 206 402 C297 361 318 354 346 354 C408 354 452 388 491 468 L446 494 C415 443 393 426 355 426 C332 426 318 431 259 458 C204 483 175 492 147 492 C89 492 47 457 10 376 L54 348 Z M491 297 L10 297 L10 238 L491 238 L491 297 Z " />
<glyph glyph-name="approxequal" unicode="&#x2248;" horiz-adv-x="500" d="M47 348 C76 402 103 424 139 424 C158 424 180 417 211 403 C301 360 321 353 350 353 C408 353 452 386 489 461 L452 483 C419 428 396 410 357 410 C332 410 316 416 258 444 C202 471 172 481 144 481 C88 481 47 448 10 371 L47 348 Z M47 189 C77 243 103 265 140 265 C158 265 180 258 211 244 C302 201 320 194 350 194 C408 194 451 227 489 302 L452 324 C419 269 396 251 357 251 C332 251 316 257 258 285 C202 312 172 322 144 322 C88 322 47 288 10 212 L47 189 Z " />
<glyph glyph-name="notequal" unicode="&#x2260;" horiz-adv-x="500" d="M274 438 L33 438 L33 385 L249 385 L203 287 L33 287 L33 234 L178 234 L129 131 L172 115 L229 234 L467 234 L467 287 L254 287 L300 385 L467 385 L467 438 L325 438 L372 536 L329 552 L274 438 Z " />
<glyph glyph-name="lessequal" unicode="&#x2264;" horiz-adv-x="500" d="M466 596 L33 402 L33 349 L466 157 L466 215 L98 377 L466 538 L466 596 Z M466 127 L33 127 L33 71 L466 71 L466 127 Z " />
<glyph glyph-name="greaterequal" unicode="&#x2265;" horiz-adv-x="500" d="M33 157 L466 349 L466 402 L33 596 L33 538 L401 377 L33 215 L33 157 Z M33 71 L466 71 L466 127 L33 127 L33 71 Z " />
<glyph glyph-name="lozenge" unicode="&#x25ca;" horiz-adv-x="667" d="M334 693 L74 334 L334 -26 L593 334 L334 693 Z M334 567 L504 334 L334 100 L164 334 L334 567 Z " />
<glyph glyph-name="ff" unicode="&#xfb00;" horiz-adv-x="380" d="M176 453 L124 453 L124 621 C124 651 125 659 132 668 C138 677 150 683 162 683 C174 683 183 679 203 664 L203 726 C186 733 170 736 153 736 C95 736 67 698 67 621 L67 453 L16 453 L16 400 L67 400 L67 0 L124 0 L124 400 L176 400 L176 453 Z M377 453 L300 453 L300 621 C300 651 301 659 308 668 C313 677 325 683 337 683 C349 683 359 678 377 664 L377 726 C361 733 345 736 328 736 C303 736 280 726 266 709 C249 688 243 666 243 621 L243 453 L198 453 L198 400 L243 400 L243 0 L300 0 L300 400 L377 400 L377 453 Z " />
<glyph glyph-name="fi" unicode="&#xfb01;" horiz-adv-x="350" d="M203 453 L124 453 L124 621 C124 651 125 659 132 668 C138 677 150 683 162 683 C174 683 184 678 203 664 L203 726 C185 733 170 736 152 736 C127 736 104 726 90 709 C73 688 67 666 67 621 L67 453 L16 453 L16 400 L67 400 L67 0 L124 0 L124 400 L203 400 L203 453 Z M300 453 L243 453 L243 0 L300 0 L300 453 Z M272 630 C248 630 229 611 229 587 C229 564 248 545 272 545 C295 545 314 564 314 588 C314 611 295 630 272 630 L272 630 Z " />
<glyph glyph-name="fl" unicode="&#xfb02;" horiz-adv-x="350" d="M203 453 L124 453 L124 621 C124 651 125 659 132 668 C138 677 150 683 162 683 C174 683 184 678 203 664 L203 726 C185 733 170 736 152 736 C127 736 104 726 90 709 C73 688 67 665 67 621 L67 453 L16 453 L16 400 L67 400 L67 0 L124 0 L124 400 L203 400 L203 453 Z M300 729 L243 729 L243 0 L300 0 L300 729 Z " />
<glyph glyph-name="ffi" unicode="&#xfb03;" horiz-adv-x="524" d="M176 453 L124 453 L124 621 C124 651 125 659 132 668 C138 677 150 683 162 683 C174 683 183 679 203 664 L203 726 C186 733 170 736 153 736 C95 736 67 698 67 621 L67 453 L16 453 L16 400 L67 400 L67 0 L124 0 L124 400 L176 400 L176 453 Z M377 453 L300 453 L300 621 C300 651 301 659 308 668 C313 677 325 683 337 683 C349 683 359 678 377 664 L377 726 C361 733 345 736 328 736 C303 736 280 726 266 709 C249 688 243 666 243 621 L243 453 L198 453 L198 400 L243 400 L243 0 L300 0 L300 400 L377 400 L377 453 Z M475 453 L418 453 L418 0 L475 0 L475 453 Z M446 630 C422 630 403 611 403 587 C403 564 422 545 446 545 C469 545 488 564 488 588 C488 611 469 630 446 630 L446 630 Z " />
<glyph glyph-name="ffl" unicode="&#xfb04;" horiz-adv-x="524" d="M176 453 L124 453 L124 621 C124 651 125 658 132 668 C138 677 150 683 162 683 C174 683 183 679 203 664 L203 726 C186 733 170 736 153 736 C95 736 67 698 67 621 L67 453 L16 453 L16 400 L67 400 L67 0 L124 0 L124 400 L176 400 L176 453 Z M377 453 L300 453 L300 621 C300 651 301 658 308 668 C313 677 325 683 337 683 C349 683 359 678 377 664 L377 726 C360 733 345 736 327 736 C303 736 280 726 266 709 C249 688 243 665 243 621 L243 453 L198 453 L198 400 L243 400 L243 0 L300 0 L300 400 L377 400 L377 453 Z M475 729 L418 729 L418 0 L475 0 L475 729 Z " />
</font>
</svg>
