<?xml version="1.0" encoding="UTF-8"?>
<svg xmlns="http://www.w3.org/2000/svg" xmlns:xlink="http://www.w3.org/1999/xlink" version="1.2" >
<font id="Clarendon URW Extra Narrow Light">
<font-face  font-family="Clarendon URW Extra Narrow" units-per-em="1000" ascent="668" descent="-332" font-style="normal" font-weight="300" font-stretch="semi-condensed" cap-height="668" x-height="469" underline-position="-70" underline-thickness="56" />
<missing-glyph  horiz-adv-x="250" d="" />
<glyph glyph-name="NULL" d="" />
<glyph glyph-name="CR" unicode="&#xd;" horiz-adv-x="250" d="" />
<glyph glyph-name="space" unicode="&#x20;" horiz-adv-x="250" d="" />
<glyph glyph-name="exclam" unicode="&#x21;" horiz-adv-x="268" d="M167 95 C139 95 116 70 116 40 C116 8 138 -17 166 -17 C194 -17 217 8 217 39 C217 70 194 95 167 95 L167 95 Z M187 181 C191 342 194 375 208 497 C217 594 218 602 218 617 C218 660 199 687 167 687 C135 687 116 660 116 617 C116 602 116 597 126 497 C140 377 142 342 147 181 L187 181 Z " />
<glyph glyph-name="quotedbl" unicode="&#x22;" horiz-adv-x="293" d="M108 399 L120 667 L41 667 L53 399 L108 399 Z M241 399 L253 667 L174 667 L186 399 L241 399 Z " />
<glyph glyph-name="numbersign" unicode="&#x23;" horiz-adv-x="540" d="M491 274 L394 274 L412 405 L510 405 L518 474 L421 474 L448 667 L377 667 L350 474 L231 474 L259 667 L188 667 L161 474 L62 474 L54 405 L153 405 L134 274 L34 274 L26 205 L126 205 L97 0 L166 0 L195 205 L313 205 L283 0 L356 0 L384 205 L483 205 L491 274 Z M341 405 L323 274 L205 274 L222 405 L341 405 Z " />
<glyph glyph-name="dollar" unicode="&#x24;" horiz-adv-x="550" d="M240 -104 L291 -104 L291 -2 C373 9 409 20 445 49 C483 78 504 122 504 173 C504 224 482 267 442 294 C407 317 376 329 291 349 L291 559 C361 556 398 540 417 505 C386 499 374 485 374 454 C374 422 393 402 424 402 C459 402 482 427 482 466 C482 492 471 519 450 542 C416 581 376 597 291 606 L291 681 L240 681 L240 606 C169 595 137 583 104 555 C69 525 50 485 50 441 C50 396 70 354 103 328 C134 304 164 291 240 272 L240 48 C147 60 118 73 94 115 C134 119 151 136 151 171 C151 203 129 225 97 225 C61 225 36 195 36 150 C36 113 56 73 87 47 C119 22 155 10 240 -2 L240 -104 Z M240 361 C196 371 177 379 162 391 C142 406 131 431 131 459 C131 487 141 512 160 529 C178 545 197 552 240 561 L240 361 Z M291 263 C342 251 365 243 385 229 C409 212 422 187 422 156 C422 121 406 91 379 73 C358 60 338 55 291 48 L291 263 Z " />
<glyph glyph-name="percent" unicode="&#x25;" horiz-adv-x="858" d="M199 622 C102 622 31 543 31 433 C31 317 100 238 200 238 C298 238 367 318 367 430 C367 543 298 622 199 622 L199 622 Z M200 571 C249 571 281 515 281 430 C281 344 249 289 199 289 C150 289 117 345 117 430 C117 517 149 571 200 571 L200 571 Z M291 -17 L626 622 L571 622 L235 -17 L291 -17 Z M663 366 C566 366 495 287 495 177 C495 62 564 -17 664 -17 C762 -17 831 63 831 175 C831 287 762 366 663 366 L663 366 Z M664 315 C713 315 745 259 745 175 C745 89 713 34 663 34 C614 34 581 90 581 174 C581 261 613 315 664 315 L664 315 Z " />
<glyph glyph-name="ampersand" unicode="&#x26;" horiz-adv-x="737" d="M652 201 C646 138 642 116 632 96 C618 69 596 54 570 54 C538 54 515 67 478 107 C521 158 544 196 581 275 C608 335 626 350 676 352 L698 352 L698 405 L436 405 L436 352 L460 352 C505 352 527 338 527 311 C527 274 501 225 442 151 C383 227 372 244 300 373 C351 405 371 423 395 454 C420 489 432 523 432 561 C432 634 378 687 305 687 C224 687 161 619 161 533 C161 496 168 467 194 396 C145 368 113 345 94 325 C57 285 36 234 36 182 C36 67 124 -20 241 -20 C303 -20 356 -1 416 43 C466 -3 501 -19 552 -19 C593 -19 626 -6 650 20 C684 56 696 101 699 201 L652 201 Z M376 89 C325 58 298 47 267 47 C192 47 135 112 135 197 C135 256 157 289 223 333 C296 196 311 173 376 89 L376 89 Z M270 431 C253 482 248 506 248 539 C248 597 269 632 304 632 C335 632 356 603 356 560 C356 508 339 482 270 431 L270 431 Z " />
<glyph glyph-name="quotesingle" unicode="&#x27;" horiz-adv-x="160" d="M108 399 L120 667 L41 667 L53 399 L108 399 Z " />
<glyph glyph-name="parenleft" unicode="&#x28;" horiz-adv-x="322" d="M301 -154 C249 -123 222 -95 189 -38 C147 33 125 131 125 248 C125 354 144 449 179 516 C213 581 245 615 301 649 L301 687 C225 653 189 625 141 562 C77 476 45 372 45 247 C45 132 73 33 128 -49 C177 -121 219 -155 301 -192 L301 -154 Z " />
<glyph glyph-name="parenright" unicode="&#x29;" horiz-adv-x="322" d="M18 -192 C94 -159 130 -131 178 -68 C242 18 274 123 274 247 C274 362 246 461 191 543 C142 615 100 649 18 686 L18 648 C70 617 97 589 130 532 C171 461 193 363 193 247 C193 140 174 45 139 -22 C106 -87 74 -121 18 -155 L18 -192 Z " />
<glyph glyph-name="asterisk" unicode="&#x2a;" horiz-adv-x="447" d="M233 494 C234 539 236 553 249 582 C268 626 268 626 268 643 C268 670 252 687 226 687 C201 687 183 669 183 644 C183 628 186 618 202 581 C208 566 213 551 214 546 C215 542 216 528 218 507 C218 505 218 500 219 495 C180 524 175 528 159 555 C132 601 121 611 98 611 C78 611 58 585 58 558 C58 543 66 530 79 522 C92 514 97 513 135 510 C164 507 167 506 201 488 C202 487 206 485 211 483 C183 465 164 458 136 455 C93 452 93 452 79 444 C66 435 58 422 58 407 C58 381 79 354 100 354 C120 354 133 366 159 410 C168 425 176 435 180 439 C190 447 200 455 209 463 C211 464 214 467 218 470 C217 426 214 411 202 383 C182 340 182 340 182 322 C182 296 199 278 224 278 C250 278 268 296 268 321 C268 337 265 346 249 383 C242 398 237 412 237 418 C236 424 234 437 233 458 C232 459 232 464 232 469 C272 440 276 436 292 409 C309 381 311 377 316 372 C327 361 340 354 352 354 C372 354 392 380 392 406 C392 421 384 435 371 443 C359 450 351 452 315 455 C300 456 287 458 282 461 C277 462 266 468 249 477 C248 477 244 479 240 481 C264 499 286 507 315 509 C358 512 358 512 372 521 C385 530 393 542 393 557 C393 583 372 610 352 610 C331 610 319 599 292 554 C282 539 275 530 270 526 C261 518 251 510 241 501 L233 494 Z " />
<glyph glyph-name="plus" unicode="&#x2b;" horiz-adv-x="456" d="M47 342 L47 276 L190 276 L190 114 L266 114 L266 276 L409 276 L409 342 L266 342 L266 504 L190 504 L190 342 L47 342 Z " />
<glyph glyph-name="comma" unicode="&#x2c;" horiz-adv-x="273" d="M72 -146 C120 -136 141 -125 163 -98 C185 -71 198 -33 198 6 C198 59 170 95 128 95 C97 95 76 73 76 39 C76 9 95 -11 121 -11 C133 -11 141 -8 156 3 L156 -13 C156 -35 151 -53 138 -72 C123 -95 107 -104 72 -111 L72 -146 Z " />
<glyph glyph-name="hyphen" unicode="&#x2d;" horiz-adv-x="233" d="M0 201 L233 201 L233 275 L0 275 L0 201 Z " />
<glyph glyph-name="period" unicode="&#x2e;" horiz-adv-x="251" d="M126 95 C98 95 75 70 75 40 C75 8 97 -17 125 -17 C153 -17 176 8 176 39 C176 70 153 95 126 95 L126 95 Z " />
<glyph glyph-name="slash" unicode="&#x2f;" horiz-adv-x="314" d="M60 -92 L278 686 L229 686 L10 -92 L60 -92 Z " />
<glyph glyph-name="zero" unicode="0" horiz-adv-x="550" d="M275 622 C133 622 31 490 31 307 C31 115 131 -17 277 -17 C418 -17 519 116 519 303 C519 491 419 622 275 622 L275 622 Z M275 569 C364 569 417 469 417 303 C417 223 403 152 379 104 C358 64 316 36 275 36 C186 36 133 137 133 306 C133 382 147 453 171 501 C193 543 232 569 275 569 L275 569 Z " />
<glyph glyph-name="one" unicode="1" horiz-adv-x="550" d="M144 0 L447 0 L447 51 L413 51 C350 53 343 59 344 120 L344 622 L292 622 C263 546 231 527 112 518 L112 469 L254 469 L254 121 C255 57 250 54 169 51 L144 51 L144 0 Z " />
<glyph glyph-name="two" unicode="2" horiz-adv-x="550" d="M89 0 C93 50 106 66 145 66 C170 66 176 64 225 35 L271 9 C302 -10 328 -18 355 -18 C390 -18 419 -6 441 19 C474 56 487 103 490 201 L449 201 C445 104 427 75 372 75 C351 75 324 80 300 88 L239 109 C203 121 193 123 171 123 C149 123 137 120 111 107 C152 179 166 189 273 227 C340 251 387 271 409 286 C450 314 477 371 477 432 C477 546 393 622 265 622 C199 622 143 601 105 561 C75 530 57 488 57 448 C57 401 85 365 121 365 C153 365 177 392 177 427 C177 463 159 482 126 482 L112 482 C146 546 180 568 242 568 C325 568 377 518 377 439 C377 372 355 344 271 304 C91 217 45 155 46 0 L89 0 Z " />
<glyph glyph-name="three" unicode="3" horiz-adv-x="550" d="M209 299 C277 297 304 293 329 281 C367 263 388 224 388 171 C388 86 334 39 235 39 C169 39 137 55 99 106 C140 110 157 126 157 163 C157 196 135 219 102 219 C63 219 36 187 36 143 C36 55 133 -17 251 -17 C394 -17 493 59 493 170 C493 212 479 247 451 277 C427 302 405 314 355 327 C395 339 411 347 428 360 C459 383 477 422 477 463 C477 558 393 622 269 622 C157 622 60 555 60 477 C60 438 84 411 119 411 C153 411 173 432 173 467 C173 498 161 513 130 521 C174 558 207 571 253 571 C329 571 377 527 377 457 C377 412 358 380 323 366 C300 356 276 354 209 352 L209 299 Z " />
<glyph glyph-name="four" unicode="4" horiz-adv-x="550" d="M199 0 L513 0 L513 51 L465 51 C410 52 401 61 402 110 L402 180 L513 180 L513 237 L402 237 L402 622 L343 622 L27 231 L27 180 L315 180 L315 106 C314 58 307 52 253 51 L199 51 L199 0 Z M315 237 L99 237 L315 509 L315 237 Z " />
<glyph glyph-name="five" unicode="5" horiz-adv-x="550" d="M142 519 C196 510 221 508 255 508 C300 508 337 513 370 523 C415 538 439 561 471 622 C382 597 341 591 275 591 C212 591 176 597 96 620 L72 305 L116 305 C166 350 198 364 245 364 C336 364 393 302 393 205 C393 102 333 38 237 38 C179 38 145 55 106 102 C148 107 165 124 165 159 C165 193 141 218 108 218 C71 218 44 186 44 142 C44 51 135 -17 254 -17 C320 -17 378 3 424 40 C473 81 495 132 495 206 C495 339 410 422 274 422 C227 422 196 413 132 382 L142 519 Z " />
<glyph glyph-name="six" unicode="6" horiz-adv-x="550" d="M408 539 C382 526 370 510 370 486 C370 455 395 431 427 431 C461 431 483 457 483 497 C483 568 406 622 303 622 C152 622 49 485 49 283 C49 194 71 120 114 63 C156 8 209 -17 287 -17 C417 -17 505 68 505 194 C505 309 419 395 304 395 C244 395 204 376 144 319 C149 415 159 460 185 501 C212 546 258 571 311 571 C347 571 372 563 408 539 L408 539 Z M283 336 C358 336 402 279 402 185 C402 95 355 38 280 38 C207 38 161 97 161 191 C161 280 209 336 283 336 L283 336 Z " />
<glyph glyph-name="seven" unicode="7" horiz-adv-x="550" d="M322 -5 C321 202 327 228 417 380 C517 545 518 546 524 605 L477 605 C469 575 454 563 426 563 C410 563 393 568 358 583 C310 605 280 613 249 613 C199 613 168 593 125 534 L125 605 L67 605 L67 353 L121 353 C124 437 128 461 141 483 C158 510 188 527 221 527 C232 527 242 526 250 523 C336 498 340 497 369 497 C392 497 407 501 439 514 C404 456 400 450 353 389 C252 262 231 192 232 -5 L322 -5 Z " />
<glyph glyph-name="eight" unicode="8" horiz-adv-x="550" d="M164 307 C71 266 36 224 36 153 C36 51 129 -17 269 -17 C408 -17 507 59 507 166 C507 201 496 233 474 261 C455 286 425 306 369 332 C455 370 484 406 484 470 C484 558 395 622 273 622 C149 622 60 551 60 450 C60 384 88 346 164 307 L164 307 Z M312 256 C383 234 415 200 415 147 C415 81 358 39 268 39 C180 39 119 87 119 156 C119 186 130 215 150 236 C168 256 189 267 236 281 L312 256 Z M221 379 C173 394 148 425 148 470 C148 530 198 570 273 570 C353 570 401 533 401 472 C401 441 390 412 371 392 C356 377 340 367 304 354 L221 379 Z " />
<glyph glyph-name="nine" unicode="9" horiz-adv-x="550" d="M142 66 C167 79 179 95 179 119 C179 150 154 174 122 174 C89 174 67 148 67 108 C67 37 144 -17 246 -17 C398 -17 500 120 500 322 C500 411 478 485 435 542 C393 597 340 622 262 622 C133 622 44 536 44 411 C44 295 130 209 245 209 C305 209 345 228 405 286 C400 189 390 145 364 104 C337 60 291 34 239 34 C204 34 179 42 142 66 L142 66 Z M268 567 C294 567 321 557 341 541 C372 516 388 473 388 413 C388 325 340 268 266 268 C191 268 147 324 147 420 C147 510 194 567 268 567 L268 567 Z " />
<glyph glyph-name="colon" unicode="&#x3a;" horiz-adv-x="268" d="M167 95 C139 95 116 70 116 40 C116 8 138 -17 166 -17 C194 -17 217 8 217 39 C217 70 194 95 167 95 L167 95 Z M167 444 C139 444 116 419 116 389 C116 357 138 331 166 331 C194 331 217 356 217 388 C217 419 194 444 167 444 L167 444 Z " />
<glyph glyph-name="semicolon" unicode="&#x3b;" horiz-adv-x="268" d="M180 444 C152 444 129 419 129 389 C129 357 151 331 179 331 C207 331 230 356 230 388 C230 419 207 444 180 444 L180 444 Z M116 -146 C164 -136 185 -125 207 -98 C229 -71 242 -33 242 6 C242 59 214 95 172 95 C141 95 120 73 120 39 C120 9 139 -11 165 -11 C177 -11 185 -8 200 3 L200 -13 C200 -35 195 -53 182 -72 C167 -95 151 -104 116 -111 L116 -146 Z " />
<glyph glyph-name="less" unicode="&#x3c;" horiz-adv-x="450" d="M420 578 L30 371 L30 296 L420 89 L420 175 L113 333 L420 492 L420 578 Z " />
<glyph glyph-name="equal" unicode="&#x3d;" horiz-adv-x="456" d="M47 426 L47 363 L409 363 L409 426 L47 426 Z M47 274 L47 211 L409 211 L409 274 L47 274 Z " />
<glyph glyph-name="greater" unicode="&#x3e;" horiz-adv-x="450" d="M30 578 L30 492 L337 333 L30 175 L30 89 L420 296 L420 371 L30 578 Z " />
<glyph glyph-name="question" unicode="&#x3f;" horiz-adv-x="460" d="M222 95 C194 95 171 70 171 40 C171 8 193 -17 222 -17 C249 -17 272 8 272 39 C272 70 249 95 222 95 L222 95 Z M243 180 C248 265 253 274 318 329 C378 377 395 395 414 427 C430 453 438 484 438 515 C438 617 358 687 242 687 C128 687 45 615 45 515 C45 455 77 412 120 412 C155 412 177 434 177 469 C177 500 159 520 130 520 C117 520 109 517 93 507 C94 547 100 566 122 590 C146 617 185 633 226 633 C296 633 343 588 343 519 C343 473 329 441 288 397 C207 310 199 293 197 180 L243 180 Z " />
<glyph glyph-name="at" unicode="&#x40;" horiz-adv-x="672" d="M448 494 L438 435 C420 483 388 506 341 506 C254 506 183 414 183 303 C183 210 236 142 310 142 C355 142 396 167 422 211 C427 172 453 147 489 147 C567 147 637 258 637 384 C637 554 515 680 351 680 C174 680 36 527 36 332 C36 238 70 146 127 83 C186 19 263 -13 357 -13 C431 -13 498 2 557 31 L543 85 C485 55 428 42 360 42 C276 42 213 69 166 125 C120 180 95 253 95 331 C95 497 208 626 353 626 C488 626 583 525 583 382 C583 287 538 197 490 197 C472 197 459 216 460 241 C460 251 463 266 466 286 L502 494 L448 494 Z M350 443 C393 443 420 407 420 349 C420 267 378 202 326 202 C282 202 251 244 251 304 C251 380 296 443 350 443 L350 443 Z " />
<glyph glyph-name="A" unicode="A" horiz-adv-x="630" d="M-18 0 L241 0 L241 53 L196 53 C151 53 139 58 139 78 C139 89 143 108 151 130 L185 223 L413 223 L450 110 C455 97 457 85 457 77 C457 59 443 53 405 53 L357 53 L357 0 L641 0 L641 53 L616 53 C573 54 557 67 541 114 L351 667 L276 667 L83 111 C66 64 53 54 11 53 L-18 53 L-18 0 Z M202 276 L296 561 L393 276 L202 276 Z " />
<glyph glyph-name="B" unicode="B" horiz-adv-x="644" d="M27 0 L341 0 C433 0 488 13 533 46 C577 78 599 124 599 183 C599 240 577 287 537 316 C512 334 490 342 438 352 C486 365 505 373 527 390 C561 416 580 456 580 505 C580 610 502 667 356 667 L27 667 L27 614 L62 614 C116 612 122 604 121 541 L121 126 C122 63 116 55 62 53 L27 53 L27 0 Z M218 53 L218 322 L341 322 C403 322 430 315 456 292 C484 268 499 232 499 189 C499 100 445 53 341 53 L218 53 Z M218 375 L218 614 L349 614 C437 614 481 574 481 494 C481 419 429 375 341 375 L218 375 Z " />
<glyph glyph-name="C" unicode="C" horiz-adv-x="635" d="M536 243 C525 174 516 144 492 110 C461 65 412 41 353 41 C287 41 231 72 197 127 C163 182 144 255 144 334 C144 506 228 631 344 631 C402 631 455 602 492 550 C519 511 530 479 539 408 L584 408 L584 667 L543 667 L520 607 C444 669 401 687 333 687 C164 687 36 534 36 331 C36 225 69 134 130 68 C185 8 252 -20 337 -20 C425 -20 491 9 534 69 C568 114 580 153 589 243 L536 243 Z " />
<glyph glyph-name="D" unicode="D" horiz-adv-x="706" d="M27 0 L320 0 C468 0 529 18 587 79 C643 138 675 230 675 336 C675 447 640 540 577 599 C520 652 464 667 321 667 L27 667 L27 614 L62 614 C116 612 122 604 121 541 L121 126 C122 63 116 55 62 53 L27 53 L27 0 Z M218 614 L321 614 C418 614 473 593 514 539 C550 491 567 430 567 342 C567 246 547 169 511 124 C474 78 407 53 319 53 L218 53 L218 614 Z " />
<glyph glyph-name="E" unicode="E" horiz-adv-x="666" d="M27 0 L595 0 L595 271 L549 271 C543 88 520 57 389 53 L220 53 L220 323 L279 323 C360 320 369 306 374 178 L418 178 L418 505 L374 505 C373 392 359 374 280 376 L220 376 L220 614 L378 614 C515 613 546 578 549 416 L595 416 L595 667 L27 667 L27 614 L62 614 C118 612 124 604 123 541 L123 126 C124 63 118 55 62 53 L27 53 L27 0 Z " />
<glyph glyph-name="F" unicode="F" horiz-adv-x="612" d="M27 0 L322 0 L322 53 L280 53 C225 55 219 63 220 126 L220 323 L264 323 C345 320 354 306 358 178 L404 178 L404 505 L358 505 C357 392 344 374 265 376 L220 376 L220 614 L357 614 C499 613 529 576 530 401 L576 401 L576 667 L27 667 L27 614 L62 614 C118 612 124 604 123 541 L123 126 C124 63 118 55 62 53 L27 53 L27 0 Z " />
<glyph glyph-name="G" unicode="G" horiz-adv-x="697" d="M604 -7 L604 232 C604 283 611 290 665 289 L698 289 L698 342 L396 342 L396 289 L442 289 C498 288 505 282 507 232 L507 191 C507 156 500 131 485 108 C457 68 400 41 343 41 C277 41 216 78 185 137 C157 188 144 253 144 334 C144 514 220 631 338 631 C388 631 436 607 472 565 C502 529 516 496 534 421 L585 421 L585 667 L540 667 L507 602 C436 668 396 687 323 687 C154 687 36 539 36 329 C36 122 151 -19 321 -19 C392 -19 434 -2 514 56 L549 -7 L604 -7 Z " />
<glyph glyph-name="H" unicode="H" horiz-adv-x="746" d="M26 0 L321 0 L321 53 L279 53 C224 55 218 63 219 126 L219 311 L529 311 L529 126 C530 63 524 55 468 53 L426 53 L426 0 L721 0 L721 53 L686 53 C631 55 625 63 626 126 L626 541 C625 604 631 612 686 614 L721 614 L721 667 L426 667 L426 614 L468 614 C524 612 530 604 529 541 L529 364 L219 364 L219 541 C218 604 224 612 279 614 L321 614 L321 667 L26 667 L26 614 L61 614 C117 612 123 604 122 541 L122 126 C123 63 117 55 61 53 L26 53 L26 0 Z " />
<glyph glyph-name="I" unicode="I" horiz-adv-x="349" d="M27 0 L322 0 L322 53 L284 53 C229 55 223 63 224 126 L224 541 C223 604 229 612 284 614 L322 614 L322 667 L27 667 L27 614 L66 614 C121 612 127 604 126 541 L126 126 C127 63 121 55 66 53 L27 53 L27 0 Z " />
<glyph glyph-name="J" unicode="J" horiz-adv-x="487" d="M176 614 L216 614 C271 612 277 604 276 541 L276 179 C276 84 240 36 167 36 C127 36 102 49 75 84 C117 87 136 108 136 148 C136 186 113 212 78 212 C38 212 9 178 9 130 C9 93 25 55 53 28 C86 -4 128 -19 185 -19 C255 -19 307 3 337 45 C365 83 373 119 373 210 L373 541 C372 604 378 612 433 614 L461 614 L461 667 L176 667 L176 614 Z " />
<glyph glyph-name="K" unicode="K" horiz-adv-x="688" d="M322 53 L280 53 C225 55 219 63 220 126 L220 237 L303 323 L468 121 C498 84 499 83 499 72 C499 60 487 53 465 53 L396 53 L396 0 L722 0 L722 53 L694 53 C644 56 626 66 590 111 L366 384 L516 536 C580 596 607 612 654 614 L690 614 L690 667 L390 667 L390 614 L434 614 C465 614 479 607 479 594 C479 586 473 575 464 565 L220 318 L220 541 C219 604 225 612 280 614 L322 614 L322 667 L27 667 L27 614 L62 614 C118 612 124 604 123 541 L123 126 C124 63 118 55 62 53 L27 53 L27 0 L322 0 L322 53 Z " />
<glyph glyph-name="L" unicode="L" horiz-adv-x="612" d="M27 667 L27 614 L62 614 C117 612 123 604 122 541 L122 126 C123 62 117 55 62 53 L27 53 L27 0 L576 0 L576 277 L530 277 C530 92 501 54 357 53 L219 53 L219 541 C218 604 224 612 280 614 L322 614 L322 667 L27 667 Z " />
<glyph glyph-name="M" unicode="M" horiz-adv-x="849" d="M27 614 L61 614 C117 612 123 604 122 541 L122 126 C123 63 117 55 61 53 L27 53 L27 0 L289 0 L289 53 L250 53 C194 55 188 63 189 126 L189 600 L396 0 L431 0 L637 586 L637 126 C638 63 632 55 576 53 L536 53 L536 0 L826 0 L826 53 L791 53 C736 55 730 63 731 126 L731 541 C730 604 736 612 791 614 L826 614 L826 667 L614 667 L429 145 L247 667 L27 667 L27 614 Z " />
<glyph glyph-name="N" unicode="N" horiz-adv-x="742" d="M632 -3 L632 541 C631 604 637 612 693 614 L721 614 L721 667 L458 667 L458 614 L504 614 C560 612 566 604 565 541 L565 131 L230 667 L27 667 L27 614 L61 614 C117 612 123 604 122 541 L122 126 C123 63 117 55 61 53 L27 53 L27 0 L294 0 L294 53 L250 53 C194 55 188 63 189 126 L189 577 L550 -3 L632 -3 Z " />
<glyph glyph-name="O" unicode="O" horiz-adv-x="715" d="M358 687 C174 687 36 537 36 339 C36 130 170 -19 358 -19 C543 -19 679 131 679 334 C679 538 543 687 358 687 L358 687 Z M358 632 C487 632 571 514 571 334 C571 154 487 36 358 36 C227 36 144 153 144 338 C144 514 229 632 358 632 L358 632 Z " />
<glyph glyph-name="P" unicode="P" horiz-adv-x="612" d="M322 53 L280 53 C225 55 219 63 220 126 L220 302 L314 302 C419 302 465 310 507 336 C553 365 579 419 579 485 C579 552 554 604 508 632 C464 658 413 667 307 667 L27 667 L27 614 L62 614 C118 612 124 604 123 541 L123 126 C124 63 118 55 62 53 L27 53 L27 0 L322 0 L322 53 Z M220 355 L220 614 L309 614 C358 614 389 610 413 600 C456 583 478 545 478 489 C478 397 427 355 314 355 L220 355 Z " />
<glyph glyph-name="Q" unicode="Q" horiz-adv-x="737" d="M693 113 C683 38 662 9 621 9 C597 9 581 19 554 52 C596 92 616 117 632 145 C662 198 679 265 679 333 C679 537 543 687 358 687 C172 687 36 537 36 333 C36 127 171 -19 361 -19 C404 -19 430 -14 483 5 C525 -49 555 -68 603 -68 C646 -68 677 -49 703 -9 C724 24 733 54 738 113 L693 113 Z M512 106 C476 158 460 178 436 200 C406 226 370 240 334 240 C272 240 223 195 223 138 C223 123 227 101 233 76 C197 115 183 135 172 164 C154 209 144 271 144 335 C144 514 229 632 358 632 C487 632 571 514 571 334 C571 233 556 173 512 106 L512 106 Z M452 57 C409 40 388 35 363 35 C310 35 275 66 275 113 C275 151 298 176 334 176 C373 176 404 145 452 57 L452 57 Z " />
<glyph glyph-name="R" unicode="R" horiz-adv-x="693" d="M322 53 L280 53 C225 55 219 63 220 126 L220 320 L329 320 C425 319 468 275 471 174 L474 92 C477 19 509 -20 564 -20 C642 -20 667 24 669 163 L627 163 C624 66 617 45 591 45 C568 45 562 65 561 140 C561 272 535 315 438 342 C496 353 521 362 547 383 C582 410 599 450 599 502 C599 555 578 601 541 626 C500 654 437 667 338 667 L27 667 L27 614 L62 614 C118 612 124 604 123 541 L123 126 C124 63 118 55 62 53 L27 53 L27 0 L322 0 L322 53 Z M220 373 L220 614 L338 614 C373 614 420 608 437 601 C475 586 498 548 498 499 C498 414 443 373 329 373 L220 373 Z " />
<glyph glyph-name="S" unicode="S" horiz-adv-x="563" d="M40 0 L85 0 L115 74 C191 1 235 -20 315 -20 C445 -20 536 66 536 189 C536 301 480 355 327 388 L240 407 C163 424 127 460 127 519 C127 585 180 629 260 629 C319 629 372 606 405 565 C432 532 444 498 456 420 L504 420 L504 673 L463 673 L437 612 C363 672 325 687 250 687 C124 687 42 612 42 496 C42 438 61 393 98 364 C129 338 152 330 243 307 L317 289 C411 266 446 233 446 168 C446 93 390 43 306 43 C245 43 190 69 150 118 C117 158 103 194 89 277 L40 277 L40 0 Z " />
<glyph glyph-name="T" unicode="T" horiz-adv-x="599" d="M24 405 L70 405 C75 570 106 612 224 614 L251 614 L251 126 C252 63 246 55 190 53 L136 53 L136 0 L462 0 L462 53 L408 53 C353 55 347 63 348 126 L348 614 L374 614 C492 612 523 569 528 405 L574 405 L574 667 L24 667 L24 405 Z " />
<glyph glyph-name="U" unicode="U" horiz-adv-x="684" d="M27 614 L54 614 C109 612 115 604 114 541 L114 209 C114 125 136 68 183 30 C223 -3 279 -20 343 -20 C416 -20 474 2 515 43 C557 87 575 147 575 244 L575 541 C574 604 580 612 636 614 L662 614 L662 667 L404 667 L404 614 L447 614 C503 612 509 604 508 541 L508 244 C508 163 498 122 471 91 C447 63 404 47 355 47 C257 47 211 99 211 209 L211 541 C210 604 216 612 272 614 L314 614 L314 667 L27 667 L27 614 Z " />
<glyph glyph-name="V" unicode="V" horiz-adv-x="612" d="M268 0 L338 0 L523 546 C542 603 553 613 603 614 L633 614 L633 667 L371 667 L371 614 L423 614 C459 614 472 607 472 586 C472 578 468 561 463 545 L319 118 L177 547 C173 560 170 574 170 585 C170 606 182 614 216 614 L272 614 L272 667 L-18 667 L-18 614 L9 614 C58 612 69 603 87 551 L268 0 Z " />
<glyph glyph-name="W" unicode="W" horiz-adv-x="863" d="M229 0 L299 0 L431 437 L554 0 L623 0 L767 531 C788 603 795 611 834 614 L858 614 L858 667 L632 667 L632 614 L674 614 C707 614 718 607 718 585 C718 571 714 548 709 527 L601 124 L483 555 C481 565 479 576 479 586 C479 609 488 614 528 614 L568 614 L568 667 L306 667 L306 614 L336 614 C376 613 386 606 397 571 L405 537 L281 124 L174 551 C172 562 170 574 170 584 C170 606 182 614 217 614 L253 614 L253 667 L0 667 L0 614 L27 614 C67 613 75 602 98 513 L229 0 Z " />
<glyph glyph-name="X" unicode="X" horiz-adv-x="661" d="M0 0 L263 0 L263 53 L223 53 C193 53 179 61 179 79 C179 87 183 96 192 108 L313 275 L432 103 C438 94 442 84 442 76 C442 61 423 53 384 53 L353 53 L353 0 L662 0 L662 53 L638 53 C589 56 552 81 520 130 L371 353 L508 542 C545 594 570 611 612 614 L642 614 L642 667 L384 667 L384 614 L426 614 C452 614 466 607 466 594 C466 584 458 568 443 548 L335 407 L231 560 C224 572 219 583 219 591 C219 606 234 614 263 614 L297 614 L297 667 L12 667 L12 614 L36 614 C80 610 101 594 139 537 L279 330 L140 138 C92 76 60 54 22 53 L0 53 L0 0 Z " />
<glyph glyph-name="Y" unicode="Y" horiz-adv-x="572" d="M235 263 L235 126 C236 63 230 55 174 53 L120 53 L120 0 L446 0 L446 53 L390 53 C337 55 331 63 332 126 L332 263 L476 532 C514 598 533 614 570 614 L591 614 L591 667 L348 667 L348 614 L408 614 C427 614 439 607 439 596 C439 588 435 576 429 564 L301 331 L175 555 C167 568 162 583 162 594 C162 607 173 614 193 614 L253 614 L253 667 L-22 667 L-22 614 L4 614 C34 613 59 592 82 550 L235 263 Z " />
<glyph glyph-name="Z" unicode="Z" horiz-adv-x="554" d="M22 0 L510 0 L510 287 L462 287 C453 88 433 59 299 53 L127 53 L510 611 L510 667 L39 667 L39 403 L86 403 C92 577 119 615 236 614 L407 614 L22 54 L22 0 Z " />
<glyph glyph-name="bracketleft" unicode="&#x5b;" horiz-adv-x="322" d="M94 -172 L292 -172 L292 -128 L168 -128 L168 623 L292 623 L292 667 L94 667 L94 -172 Z " />
<glyph glyph-name="backslash" unicode="&#x5c;" horiz-adv-x="314" d="M254 -92 L304 -92 L86 686 L36 686 L254 -92 Z " />
<glyph glyph-name="bracketright" unicode="&#x5d;" horiz-adv-x="322" d="M27 -172 L225 -172 L225 667 L27 667 L27 623 L151 623 L151 -128 L27 -128 L27 -172 Z " />
<glyph glyph-name="asciicircum" unicode="&#x5e;" horiz-adv-x="450" d="M99 371 L225 610 L351 371 L424 371 L270 669 L181 669 L27 371 L99 371 Z " />
<glyph glyph-name="underscore" unicode="&#x5f;" horiz-adv-x="500" d="M0 -70 L0 -126 L500 -126 L500 -70 L0 -70 Z " />
<glyph glyph-name="grave" unicode="&#x60;" horiz-adv-x="472" d="M301 540 L167 686 C151 703 131 715 116 715 C96 715 79 698 79 677 C79 660 89 648 120 629 L265 540 L301 540 Z " />
<glyph glyph-name="a" unicode="a" horiz-adv-x="496" d="M455 159 C452 61 444 37 416 37 C396 37 389 53 389 95 L389 327 C389 397 379 426 345 451 C314 473 270 486 222 486 C124 486 49 431 49 361 C49 326 72 300 102 300 C130 300 150 321 150 349 C150 376 138 391 110 399 C144 430 168 441 206 441 C268 441 309 407 309 354 C309 309 292 290 238 273 L169 251 C64 218 27 181 27 110 C27 33 79 -18 157 -18 C214 -18 255 3 310 61 C326 4 351 -18 398 -18 C470 -18 495 27 496 159 L455 159 Z M305 199 C305 137 294 102 266 74 C246 54 215 41 186 41 C147 41 122 69 122 113 C122 155 146 186 192 203 L226 216 C250 225 262 230 305 253 L305 199 Z " />
<glyph glyph-name="b" unicode="b" horiz-adv-x="527" d="M114 -6 L155 81 C199 11 239 -15 305 -15 C418 -15 495 86 495 234 C495 384 418 485 304 485 C237 485 200 461 155 391 L155 667 L0 667 L0 619 L16 619 C62 617 70 608 70 562 L70 -6 L114 -6 Z M283 427 C357 427 399 357 399 233 C399 113 356 43 283 43 C204 43 155 118 155 239 C155 352 206 427 283 427 L283 427 Z " />
<glyph glyph-name="c" unicode="c" horiz-adv-x="460" d="M381 175 C371 130 365 112 351 91 C331 60 294 41 254 41 C173 41 124 114 124 236 C124 363 177 438 267 438 C291 438 315 432 334 421 C353 410 362 400 377 372 C342 365 328 350 328 320 C328 288 348 266 378 266 C413 266 437 294 437 336 C437 421 357 486 251 486 C120 486 27 379 27 228 C27 80 112 -18 241 -18 C305 -18 351 3 386 47 C412 81 422 109 433 175 L381 175 Z " />
<glyph glyph-name="d" unicode="d" horiz-adv-x="550" d="M288 619 L317 619 C365 617 374 608 374 562 L374 391 C329 461 292 485 224 485 C109 485 31 384 31 234 C31 86 109 -15 223 -15 C290 -15 330 11 374 81 L374 0 L531 0 L531 48 L509 48 C459 50 451 58 451 105 L451 667 L288 667 L288 619 Z M244 427 C324 427 374 352 374 234 C374 119 323 43 245 43 C170 43 127 113 127 234 C127 357 170 427 244 427 L244 427 Z " />
<glyph glyph-name="e" unicode="e" horiz-adv-x="474" d="M380 154 C366 110 356 92 337 74 C315 52 280 39 245 39 C200 39 162 59 141 95 C122 127 116 157 114 226 L445 226 C441 322 430 365 398 411 C362 462 312 486 243 486 C111 486 27 387 27 233 C27 82 113 -17 245 -17 C302 -17 346 1 380 38 C407 66 419 93 432 154 L380 154 Z M117 279 C122 337 129 362 147 390 C168 421 200 437 241 437 C280 437 311 422 330 394 C348 367 354 340 357 279 L117 279 Z " />
<glyph glyph-name="f" unicode="f" horiz-adv-x="308" d="M101 420 L101 105 C101 58 93 49 46 48 L22 48 L22 0 L282 0 L282 48 L241 48 C194 49 186 58 186 105 L186 420 L282 420 L282 469 L186 469 L186 506 C186 558 188 579 196 600 C204 625 227 639 256 639 C278 639 290 634 312 614 C288 607 277 592 277 569 C277 542 297 521 323 521 C353 521 372 544 372 580 C372 641 318 684 241 684 C199 684 163 670 139 645 C111 616 101 579 101 509 L101 469 L22 469 L22 420 L101 420 Z " />
<glyph glyph-name="g" unicode="g" horiz-adv-x="581" d="M189 60 C139 60 119 71 119 98 C119 123 141 147 163 147 C166 147 169 146 174 145 C221 129 228 128 258 128 C372 128 444 197 444 307 C444 342 439 359 421 397 C447 432 465 444 493 444 C508 444 514 441 524 427 C494 420 481 406 481 379 C481 352 501 331 527 331 C557 331 578 359 578 401 C578 451 544 486 495 486 C457 486 436 474 398 432 C345 472 307 486 248 486 C136 486 62 415 62 309 C62 254 77 219 120 176 C61 140 45 119 45 79 C45 38 65 14 114 -4 C54 -22 27 -50 27 -96 C27 -171 108 -214 247 -214 C413 -214 494 -166 494 -68 C494 15 435 60 327 60 L189 60 Z M251 439 C315 439 351 393 351 310 C351 224 317 180 252 180 C187 180 154 223 154 309 C154 390 190 439 251 439 L251 439 Z M288 -20 C403 -21 444 -38 444 -85 C444 -113 428 -131 392 -144 C359 -156 293 -164 229 -164 C130 -164 77 -138 77 -89 C77 -43 128 -20 230 -20 L288 -20 Z " />
<glyph glyph-name="h" unicode="h" horiz-adv-x="581" d="M27 619 L46 619 C92 617 100 608 100 562 L100 105 C100 58 92 50 46 48 L27 48 L27 0 L268 0 L268 48 L240 48 C193 50 185 58 185 105 L185 268 C185 319 195 352 221 384 C245 413 277 429 314 429 C378 429 401 390 401 281 L401 105 C401 58 393 50 346 48 L319 48 L319 0 L560 0 L560 48 L541 48 C494 50 486 58 486 105 L486 268 C486 357 481 389 460 423 C437 461 395 482 342 482 C309 482 277 474 250 457 C225 443 210 427 185 388 L185 667 L27 667 L27 619 Z " />
<glyph glyph-name="i" unicode="i" horiz-adv-x="295" d="M141 675 C110 675 84 650 84 620 C84 587 109 562 141 562 C172 562 197 588 197 619 C197 650 172 675 141 675 L141 675 Z M27 0 L272 0 L272 48 L250 48 C203 50 195 58 195 105 L195 469 L27 469 L27 421 L55 421 C105 419 114 410 113 364 L113 105 C114 59 105 50 55 48 L27 48 L27 0 Z " />
<glyph glyph-name="j" unicode="j" horiz-adv-x="292" d="M31 421 L57 421 C107 419 109 417 108 360 L108 -68 C108 -108 104 -128 94 -143 C84 -158 65 -167 44 -167 C25 -167 15 -163 -4 -148 C25 -140 36 -127 36 -101 C36 -71 16 -50 -11 -50 C-42 -50 -63 -76 -63 -113 C-63 -172 -13 -214 57 -214 C104 -214 140 -197 165 -164 C186 -135 193 -106 193 -45 L193 469 L31 469 L31 421 Z M143 675 C112 675 86 650 86 620 C86 587 111 562 143 562 C174 562 199 588 199 619 C199 649 173 675 143 675 L143 675 Z " />
<glyph glyph-name="k" unicode="k" horiz-adv-x="572" d="M180 229 L180 667 L22 667 L22 619 L44 619 C91 617 99 608 99 562 L99 105 C99 58 91 50 44 48 L22 48 L22 0 L254 0 L254 48 L235 48 C188 50 180 58 180 105 L180 165 L251 228 L366 89 C373 80 377 73 377 67 C377 55 357 48 325 48 L302 48 L302 0 L558 0 L558 48 L544 48 C510 48 480 64 456 93 L306 276 L419 377 C459 411 484 421 521 420 L534 420 L534 469 L271 469 L271 420 L312 420 C347 420 360 415 360 403 C360 394 351 382 333 365 L180 229 Z " />
<glyph glyph-name="l" unicode="l" horiz-adv-x="286" d="M186 667 L22 667 L22 619 L45 619 C92 617 101 608 100 562 L100 105 C100 59 92 50 45 48 L22 48 L22 0 L266 0 L266 48 L241 48 C194 50 186 58 186 105 L186 667 Z " />
<glyph glyph-name="m" unicode="m" horiz-adv-x="831" d="M27 0 L260 0 L260 48 L243 48 C194 50 185 58 185 105 L185 268 C185 327 191 351 216 382 C239 413 269 429 303 429 C363 429 381 394 381 281 L381 105 C381 58 373 50 327 48 L311 48 L311 0 L534 0 L534 48 L519 48 C473 50 465 58 465 105 L465 268 C465 327 471 351 494 382 C517 413 545 429 580 429 C637 429 655 394 655 281 L655 105 C655 58 647 50 601 48 L586 48 L586 0 L815 0 L815 48 L794 48 C747 50 738 59 739 105 L739 268 C739 364 735 393 715 426 C694 461 654 482 607 482 C546 482 512 461 455 390 C444 421 434 438 421 450 C399 470 366 482 330 482 C270 482 233 460 185 398 L185 469 L27 469 L27 421 L52 421 C102 419 110 411 110 364 L110 105 C110 58 102 50 52 48 L27 48 L27 0 Z " />
<glyph glyph-name="n" unicode="n" horiz-adv-x="585" d="M27 0 L273 0 L273 48 L244 48 C195 50 187 58 187 105 L187 268 C187 319 197 352 223 384 C247 413 280 429 317 429 C383 429 407 390 407 281 L407 105 C407 58 399 50 352 48 L324 48 L324 0 L565 0 L565 48 L546 48 C500 50 492 58 492 105 L492 268 C492 358 487 388 466 423 C442 461 399 482 346 482 C312 482 279 473 252 458 C228 444 212 427 187 388 L187 469 L27 469 L27 421 L52 421 C102 419 110 411 110 364 L110 105 C110 58 102 50 52 48 L27 48 L27 0 Z " />
<glyph glyph-name="o" unicode="o" horiz-adv-x="518" d="M260 486 C198 486 142 463 97 419 C52 375 28 313 28 238 C28 155 49 98 97 50 C140 7 198 -17 260 -17 C321 -17 379 7 422 50 C469 97 491 156 491 234 C491 313 469 373 422 419 C378 463 322 486 260 486 L260 486 Z M259 435 C346 435 394 363 394 234 C394 106 346 34 260 34 C172 34 125 106 125 237 C125 363 174 435 259 435 L259 435 Z " />
<glyph glyph-name="p" unicode="p" horiz-adv-x="545" d="M9 421 L29 421 C78 419 86 411 86 364 L86 -109 C86 -156 78 -164 29 -166 L9 -166 L9 -214 L250 -214 L250 -166 L221 -166 C171 -164 163 -155 163 -109 L163 78 C208 8 246 -16 314 -16 C429 -16 507 85 507 235 C507 383 429 484 315 484 C248 484 208 458 163 388 L163 469 L9 469 L9 421 Z M292 426 C367 426 410 356 410 235 C410 112 368 42 293 42 C213 42 163 117 163 236 C163 350 215 426 292 426 L292 426 Z " />
<glyph glyph-name="q" unicode="q" horiz-adv-x="550" d="M529 -166 L509 -166 C459 -164 451 -155 451 -109 L451 364 C451 411 459 419 509 421 L529 421 L529 469 L374 469 L374 388 C330 458 290 484 223 484 C109 484 31 383 31 235 C31 85 109 -16 224 -16 C292 -16 329 7 374 78 L374 -109 C374 -156 366 -164 317 -166 L288 -166 L288 -214 L529 -214 L529 -166 Z M245 426 C324 426 374 351 374 231 C374 117 322 42 244 42 C169 42 127 112 127 235 C127 356 170 426 245 426 L245 426 Z " />
<glyph glyph-name="r" unicode="r" horiz-adv-x="429" d="M288 48 L245 48 C195 49 187 58 187 105 L187 217 C187 273 195 315 212 352 C238 407 272 436 311 436 C334 436 344 430 362 408 C331 408 313 390 313 359 C313 330 335 308 363 308 C394 308 418 338 418 375 C418 438 376 483 316 483 C260 483 221 449 187 372 L187 469 L27 469 L27 421 L52 421 C102 419 110 411 110 364 L110 105 C110 58 102 49 52 48 L27 48 L27 0 L288 0 L288 48 Z " />
<glyph glyph-name="s" unicode="s" horiz-adv-x="447" d="M36 -4 L82 -4 L100 46 C152 -1 188 -16 247 -16 C351 -16 416 42 416 134 C416 206 366 256 275 275 L191 292 C150 301 125 327 125 363 C125 406 157 433 208 433 C248 433 283 418 308 390 C329 367 338 344 349 293 L394 293 L394 475 L354 475 L337 433 C285 471 248 485 195 485 C105 485 42 428 42 346 C42 275 95 221 182 202 L263 185 C309 175 334 150 334 114 C334 68 297 38 239 38 C199 38 161 55 132 85 C105 113 94 136 83 192 L36 192 L36 -4 Z " />
<glyph glyph-name="t" unicode="t" horiz-adv-x="362" d="M88 420 L88 95 C88 27 129 -17 194 -17 C243 -17 283 8 298 50 C309 80 312 104 315 192 L274 192 C273 135 270 103 263 80 C256 56 235 41 209 41 C178 41 165 58 165 95 L165 420 L294 420 L294 469 L165 469 L165 655 L123 655 C112 528 82 477 13 469 L13 420 L88 420 Z " />
<glyph glyph-name="u" unicode="u" horiz-adv-x="581" d="M22 421 L44 421 C99 419 108 411 108 364 L108 201 C108 112 113 81 133 46 C154 9 195 -13 245 -13 C312 -13 353 13 394 81 L394 0 L560 0 L560 48 L535 48 C487 50 479 58 479 105 L479 469 L292 469 L292 421 L330 421 C385 419 394 411 394 364 L394 201 C394 105 346 40 275 40 C214 40 193 79 193 188 L193 469 L22 469 L22 421 Z " />
<glyph glyph-name="v" unicode="v" horiz-adv-x="501" d="M-4 420 L16 420 C48 418 52 414 68 375 L218 -5 L266 -5 L412 362 C433 414 437 418 471 420 L488 420 L488 469 L284 469 L284 420 L324 420 C357 420 366 415 366 399 C366 390 363 376 356 360 L258 107 L154 366 C149 376 146 391 146 398 C146 415 154 420 184 420 L216 420 L216 469 L-4 469 L-4 420 Z " />
<glyph glyph-name="w" unicode="w" horiz-adv-x="737" d="M212 -5 L263 -5 L366 285 L470 -5 L520 -5 L651 363 C667 408 680 420 712 421 L724 421 L724 469 L537 469 L537 421 L564 421 C596 421 606 416 606 401 C606 391 603 378 598 363 L505 107 L413 372 C409 385 407 393 407 398 C407 417 414 421 451 421 L477 421 L477 469 L266 469 L266 421 L285 421 C316 418 326 410 335 380 L341 362 L249 107 L156 372 C152 384 150 392 150 397 C150 414 160 421 183 421 L213 421 L213 469 L9 469 L9 421 L25 421 C57 419 64 412 79 370 L212 -5 Z " />
<glyph glyph-name="x" unicode="x" horiz-adv-x="541" d="M308 251 L406 368 C440 409 461 421 496 421 L513 421 L513 469 L303 469 L303 421 L328 421 C359 421 367 418 367 407 C367 401 364 394 360 389 L276 290 L205 379 C195 393 191 400 191 406 C191 417 199 421 218 421 L247 421 L247 469 L17 469 L17 421 L31 421 C70 420 96 404 127 364 L229 240 L111 98 C81 65 58 51 25 48 L13 48 L13 0 L231 0 L231 48 L198 48 C171 48 156 54 156 65 C156 70 158 75 168 86 L260 196 L346 89 C355 77 358 71 358 66 C358 56 341 48 322 48 L282 48 L282 0 L527 0 L527 48 L513 48 C487 47 461 62 433 94 L308 251 Z " />
<glyph glyph-name="y" unicode="y" horiz-adv-x="509" d="M230 -3 C178 -132 153 -164 104 -164 C81 -164 69 -157 52 -132 C90 -129 105 -116 105 -83 C105 -53 84 -30 57 -30 C22 -30 -4 -61 -4 -104 C-4 -134 7 -162 28 -184 C48 -205 69 -214 101 -214 C143 -214 176 -198 204 -164 C230 -133 245 -103 300 38 L425 359 C446 411 453 418 485 421 L512 421 L512 469 L298 469 L298 421 L334 421 C366 421 378 415 378 399 C378 392 376 380 373 372 L270 103 L169 367 C164 379 161 393 161 401 C161 416 169 421 191 421 L230 421 L230 469 L2 469 L2 421 L25 421 C60 419 68 412 84 374 L230 -3 Z " />
<glyph glyph-name="z" unicode="z" horiz-adv-x="447" d="M22 0 L412 0 L412 212 L369 212 C362 65 350 51 233 50 L118 50 L404 420 L404 469 L36 469 L36 272 L79 272 C87 405 102 423 202 420 L309 420 L22 50 L22 0 Z " />
<glyph glyph-name="braceleft" unicode="&#x7b;" horiz-adv-x="322" d="M174 549 C174 613 194 631 259 628 L294 628 L294 671 C257 672 249 672 241 672 C138 672 100 634 100 532 L100 351 C99 299 87 278 53 268 L53 227 C88 216 100 193 100 137 L100 -32 C100 -138 138 -178 240 -178 C255 -178 269 -178 294 -177 L294 -133 C193 -136 175 -124 174 -52 L174 126 C173 190 158 222 113 247 C159 273 172 299 174 368 L174 549 Z " />
<glyph glyph-name="bar" unicode="&#x7c;" horiz-adv-x="459" d="M186 667 L186 -167 L273 -167 L273 667 L186 667 Z " />
<glyph glyph-name="braceright" unicode="&#x7d;" horiz-adv-x="322" d="M173 -55 C173 -119 153 -137 88 -134 L65 -133 L53 -133 L53 -177 C89 -178 98 -178 106 -178 C209 -178 247 -140 247 -38 L247 143 C248 196 260 216 294 226 L294 268 C259 279 247 301 247 358 L247 526 C247 632 209 672 107 672 C91 672 85 672 53 671 L53 627 L70 627 C153 630 173 614 173 547 L173 369 C174 304 189 272 234 247 C188 222 175 196 173 126 L173 -55 Z " />
<glyph glyph-name="asciitilde" unicode="&#x7e;" horiz-adv-x="648" d="M131 577 C161 630 185 650 218 650 C242 650 259 644 315 618 C380 586 402 579 428 579 C485 579 526 614 564 695 L519 731 C489 678 464 658 430 658 C406 658 392 663 335 691 C277 719 250 728 221 728 C165 728 122 692 85 613 L131 577 Z " />
<glyph glyph-name="uni00A0" unicode="&#xa0;" horiz-adv-x="250" d="" />
<glyph glyph-name="exclamdown" unicode="&#xa1;" horiz-adv-x="273" d="M136 483 C108 483 85 458 85 427 C85 396 108 371 135 371 C163 371 186 396 186 426 C186 458 164 483 136 483 L136 483 Z M116 285 C111 125 109 89 95 -31 C86 -128 85 -135 85 -150 C85 -193 104 -220 136 -220 C167 -220 187 -193 187 -150 C187 -135 187 -130 177 -31 C163 92 161 123 156 285 L116 285 Z " />
<glyph glyph-name="cent" unicode="&#xa2;" horiz-adv-x="550" d="M84 -87 L130 -87 L180 21 C221 4 240 -1 273 -1 C322 -1 361 10 391 34 C435 68 456 109 469 192 L417 192 C407 147 400 128 386 108 C364 77 327 58 286 58 C258 58 241 64 209 84 L372 435 C396 419 399 415 413 390 C378 382 364 367 364 337 C364 305 384 283 414 283 C449 283 473 312 473 354 C473 406 446 448 392 478 L439 582 L393 582 L352 494 C321 501 294 504 276 504 C223 504 166 476 126 431 C84 384 63 321 63 246 C63 203 71 160 84 126 C97 94 109 78 145 45 L84 -87 Z M179 120 C164 176 160 200 160 247 C160 313 171 362 195 399 C216 433 256 456 293 456 C302 456 316 454 333 451 L179 120 Z " />
<glyph glyph-name="sterling" unicode="&#xa3;" horiz-adv-x="550" d="M65 -14 C107 32 137 49 179 49 C204 49 223 43 270 22 L324 -3 C349 -15 364 -19 380 -19 C413 -19 440 -7 459 16 C490 54 502 101 503 192 L464 192 C460 100 441 65 398 65 C377 65 349 72 326 84 L284 106 C266 116 245 121 225 121 C200 121 183 115 152 93 L149 99 C215 168 229 199 228 276 L345 276 L345 320 L223 320 C216 342 216 343 201 373 C183 412 176 437 176 460 C176 524 230 574 301 574 C356 574 394 554 417 515 C390 492 385 482 385 458 C385 426 404 404 435 404 C469 404 493 433 493 475 C493 557 401 622 285 622 C166 622 78 550 78 452 C78 416 89 386 129 320 L43 320 L43 276 L141 276 C142 259 144 239 144 230 C144 164 113 108 40 42 L65 -14 Z " />
<glyph glyph-name="currency" unicode="&#xa4;" horiz-adv-x="600" d="M46 125 L86 80 L172 176 C218 141 256 126 302 126 C348 126 390 142 430 176 L516 80 L556 125 L470 221 C501 269 514 310 514 361 C514 413 501 454 469 504 L555 599 L515 644 L428 549 C385 584 348 598 300 598 C253 598 216 584 171 548 L84 644 L44 599 L131 503 C99 454 86 413 86 362 C86 311 101 265 131 221 L46 125 Z M302 526 C377 526 440 452 440 362 C440 271 377 198 300 198 C223 198 160 271 160 361 C160 454 222 526 302 526 L302 526 Z " />
<glyph glyph-name="yen" unicode="&#xa5;" horiz-adv-x="588" d="M394 349 L468 482 C500 541 520 558 553 557 L572 557 L572 605 L351 605 L351 557 L406 557 C424 557 435 551 435 541 C435 534 431 523 425 512 L309 300 L194 503 C188 514 184 528 184 538 C184 551 193 557 211 557 L266 557 L266 605 L16 605 L16 557 L39 557 C67 556 90 537 110 499 L190 349 L84 349 L84 306 L213 306 L245 246 L96 246 L96 203 L249 203 L249 114 C250 57 244 50 194 48 L145 48 L145 0 L441 0 L441 48 L390 48 C341 50 336 56 337 114 L337 203 L492 203 L492 246 L340 246 L370 306 L504 306 L504 349 L394 349 Z " />
<glyph glyph-name="brokenbar" unicode="&#xa6;" horiz-adv-x="459" d="M186 667 L186 330 L273 330 L273 667 L186 667 Z M186 153 L186 -167 L273 -167 L273 153 L186 153 Z " />
<glyph glyph-name="section" unicode="&#xa7;" horiz-adv-x="532" d="M256 438 C184 469 162 493 162 541 C162 600 206 637 278 637 C313 637 330 631 366 607 C336 595 324 578 324 550 C324 517 347 494 381 494 C419 494 442 520 442 565 C442 639 376 687 273 687 C218 687 176 673 143 644 C110 614 88 566 88 523 C88 473 106 437 149 404 C78 367 49 326 49 266 C49 231 62 194 85 168 C104 145 127 131 170 115 L269 77 C342 49 377 9 377 -46 C377 -118 327 -160 243 -160 C210 -160 191 -155 153 -134 C183 -118 194 -102 194 -74 C194 -34 170 -7 135 -7 C98 -7 72 -37 72 -81 C72 -161 140 -211 248 -211 C374 -211 457 -138 457 -28 C457 32 438 67 383 105 C419 124 433 134 447 149 C471 174 484 209 484 247 C484 283 471 317 449 340 C430 361 418 368 355 395 L256 438 Z M190 188 C142 207 119 236 119 277 C119 323 141 351 199 378 L349 315 C394 296 415 271 415 236 C415 211 404 185 387 168 C374 156 363 149 331 131 L190 188 Z " />
<glyph glyph-name="dieresis" unicode="&#xa8;" horiz-adv-x="461" d="M147 674 C118 674 92 649 92 620 C92 588 116 565 147 565 C178 565 201 588 201 619 C201 649 176 674 147 674 L147 674 Z M315 674 C286 674 260 648 260 620 C260 589 284 565 316 565 C346 565 369 589 369 619 C369 649 344 674 315 674 L315 674 Z " />
<glyph glyph-name="copyright" unicode="&#xa9;" horiz-adv-x="719" d="M472 286 C466 246 461 229 448 211 C430 186 403 173 371 173 C301 173 255 236 255 333 C255 427 302 496 366 496 C397 496 427 480 447 452 C463 431 469 412 474 372 L505 372 L505 523 L476 523 L464 491 C422 524 398 534 359 534 C261 534 187 447 187 331 C187 214 259 132 361 132 C413 132 451 149 476 183 C496 209 503 233 508 286 L472 286 Z M364 681 C180 681 36 528 36 333 C36 142 181 -14 360 -14 C538 -14 683 142 683 333 C683 523 538 681 364 681 L364 681 Z M363 630 C505 630 624 495 624 333 C624 170 505 37 360 37 C214 37 94 170 94 333 C94 499 212 630 363 630 L363 630 Z " />
<glyph glyph-name="ordfeminine" unicode="&#xaa;" horiz-adv-x="314" d="M283 429 C281 370 277 357 262 357 C252 357 248 365 248 388 L248 524 C248 567 241 585 219 601 C199 614 172 622 141 622 C79 622 31 588 31 545 C31 522 46 505 67 505 C86 505 100 519 100 537 C100 553 93 563 78 569 C96 584 110 589 131 589 C167 589 191 570 191 541 C191 516 182 505 150 496 L107 483 C41 463 17 440 17 397 C17 350 50 318 100 318 C136 318 161 330 194 362 C205 331 221 318 250 318 C298 318 314 346 314 429 L283 429 Z M189 449 C189 392 164 360 119 360 C96 360 82 375 82 398 C82 421 96 438 123 448 L144 456 C159 461 169 465 189 475 L189 449 Z " />
<glyph glyph-name="guillemotleft" unicode="&#xab;" horiz-adv-x="411" d="M304 72 L350 72 L302 182 C299 188 294 224 294 238 C294 251 299 287 302 293 L350 403 L304 403 L261 333 C220 270 217 263 217 237 C217 212 220 205 261 142 L304 72 Z M150 72 L196 72 L148 182 C145 188 140 224 140 238 C140 251 145 287 148 293 L196 403 L150 403 L107 333 C66 270 63 263 63 237 C63 212 66 205 106 142 L150 72 Z " />
<glyph glyph-name="logicalnot" unicode="&#xac;" horiz-adv-x="450" d="M336 0 L420 0 L420 279 L30 279 L30 203 L336 203 L336 0 Z " />
<glyph glyph-name="uni00AD" unicode="&#xad;" horiz-adv-x="233" d="M0 201 L233 201 L233 275 L0 275 L0 201 Z " />
<glyph glyph-name="registered" unicode="&#xae;" horiz-adv-x="719" d="M354 179 L327 179 C298 181 296 183 296 217 L296 323 L355 323 C408 322 431 299 433 244 L435 198 C436 155 456 132 489 132 C536 132 551 158 552 241 L522 241 C520 186 517 175 504 175 C493 175 491 185 490 225 C491 296 476 323 431 338 C487 350 512 378 512 427 C512 495 467 523 360 523 L180 523 L180 487 L203 487 C232 486 235 483 234 450 L234 217 C235 183 232 181 203 179 L180 179 L180 143 L354 143 L354 179 Z M296 359 L296 487 L360 487 C423 487 448 470 448 426 C448 381 418 359 355 359 L296 359 Z M364 681 C180 681 36 528 36 333 C36 142 181 -14 360 -14 C538 -14 683 142 683 333 C683 523 538 681 364 681 L364 681 Z M363 630 C505 630 624 495 624 333 C624 170 505 37 360 37 C214 37 94 170 94 333 C94 499 212 630 363 630 L363 630 Z " />
<glyph glyph-name="macron" unicode="&#xaf;" horiz-adv-x="476" d="M107 585 L369 585 L369 653 L107 653 L107 585 Z " />
<glyph glyph-name="degree" unicode="&#xb0;" horiz-adv-x="400" d="M203 686 C117 686 50 619 50 534 C50 448 116 381 200 381 C284 381 350 448 350 533 C350 619 286 686 203 686 L203 686 Z M202 629 C252 629 293 586 293 534 C293 480 252 438 200 438 C148 438 106 481 106 533 C106 587 148 629 202 629 L202 629 Z " />
<glyph glyph-name="plusminus" unicode="&#xb1;" horiz-adv-x="549" d="M11 55 L11 0 L535 0 L535 55 L11 55 Z M302 662 L247 662 L247 423 L10 423 L10 368 L247 368 L247 129 L302 129 L302 368 L539 368 L539 423 L302 423 L302 662 Z " />
<glyph glyph-name="twosuperior" unicode="&#xb2;" horiz-adv-x="362" d="M60 267 C63 295 72 304 97 304 C114 304 116 303 150 287 L180 272 C203 260 218 256 236 256 C295 256 322 294 325 379 L298 379 C296 325 284 308 248 308 C233 308 220 310 200 316 L160 327 C130 336 130 336 115 336 C100 336 92 334 75 326 C102 367 111 372 182 394 C228 408 256 418 271 427 C298 442 316 475 316 509 C316 573 260 615 176 615 C98 615 39 573 39 517 C39 491 58 471 82 471 C103 471 119 486 119 506 C119 526 107 537 85 537 L75 537 C99 573 120 585 161 585 C215 585 250 557 250 513 C250 475 235 459 180 437 C62 388 31 353 32 267 L60 267 Z " />
<glyph glyph-name="threesuperior" unicode="&#xb3;" horiz-adv-x="362" d="M136 434 C181 433 199 431 216 424 C241 414 255 392 255 363 C255 314 219 288 153 288 C110 288 89 297 63 326 C91 328 102 338 102 358 C102 377 87 390 66 390 C40 390 22 372 22 347 C22 298 86 257 164 257 C259 257 324 300 324 362 C324 407 294 436 232 450 C259 457 269 461 281 468 C300 480 313 503 313 526 C313 579 257 615 175 615 C102 615 38 577 38 534 C38 512 54 497 77 497 C99 497 112 509 112 528 C112 545 104 554 83 559 C113 579 135 586 165 586 C215 586 247 561 247 522 C247 497 234 480 211 471 C196 466 180 465 136 464 L136 434 Z " />
<glyph glyph-name="acute" unicode="&#xb4;" horiz-adv-x="472" d="M163 540 L199 540 L345 629 C374 647 385 660 385 677 C385 698 368 715 348 715 C333 715 313 704 297 686 L163 540 Z " />
<glyph glyph-name="mu" unicode="&#xb5;" horiz-adv-x="576" d="M442 500 L353 500 L354 131 C318 80 284 58 242 58 C184 58 150 99 150 169 L150 500 L62 500 L62 20 C62 -1 58 -26 51 -56 C34 -118 33 -123 33 -147 C33 -190 54 -219 83 -219 C112 -219 132 -189 132 -145 C132 -124 129 -110 113 -53 C102 -17 101 -8 101 21 L101 33 C143 -3 165 -13 200 -13 C250 -13 301 18 354 80 C362 48 367 36 377 21 C392 0 419 -13 449 -13 C510 -13 553 31 567 108 L540 109 C536 71 515 41 492 41 C462 41 442 77 442 131 L442 500 Z " />
<glyph glyph-name="paragraph" unicode="&#xb6;" horiz-adv-x="510" d="M207 -98 L276 -98 L276 604 L359 604 L359 -98 L428 -98 L428 604 L480 604 L480 667 L232 667 C181 667 135 657 106 639 C59 610 31 554 31 488 C31 386 98 315 194 315 L207 315 L207 -98 Z " />
<glyph glyph-name="periodcentered" unicode="&#xb7;" horiz-adv-x="273" d="M136 291 C108 291 85 266 85 236 C85 204 107 178 135 178 C163 178 186 203 186 235 C186 266 163 291 136 291 L136 291 Z " />
<glyph glyph-name="cedilla" unicode="&#xb8;" horiz-adv-x="450" d="M113 -178 C160 -204 204 -217 241 -217 C304 -217 341 -185 341 -130 C341 -82 310 -49 266 -49 C257 -49 246 -50 234 -51 L234 0 L203 0 L203 -94 C216 -89 223 -88 231 -88 C258 -88 272 -103 272 -132 C272 -160 256 -174 225 -174 C196 -174 161 -160 129 -135 L113 -178 Z " />
<glyph glyph-name="onesuperior" unicode="&#xb9;" horiz-adv-x="362" d="M72 267 L292 267 L292 295 L266 295 C218 296 214 300 214 334 L214 615 L180 615 C163 573 144 562 74 557 L74 530 L155 530 L155 334 C156 299 153 297 99 295 L72 295 L72 267 Z " />
<glyph glyph-name="ordmasculine" unicode="&#xba;" horiz-adv-x="327" d="M164 622 C79 622 17 559 17 472 C17 381 77 318 164 318 C249 318 310 381 310 470 C310 559 249 622 164 622 L164 622 Z M163 586 C215 586 243 545 243 470 C243 395 215 354 164 354 C112 354 84 395 84 472 C84 545 113 586 163 586 L163 586 Z " />
<glyph glyph-name="guillemotright" unicode="&#xbb;" horiz-adv-x="411" d="M109 72 L153 142 C193 205 196 212 196 237 C196 263 193 270 153 333 L109 403 L63 403 L111 293 C114 287 119 251 119 238 C119 224 114 188 111 182 L63 72 L109 72 Z M263 72 L307 142 C346 204 350 213 350 237 C350 263 347 270 306 333 L263 403 L217 403 L265 293 C268 287 273 251 273 238 C273 224 268 188 265 182 L217 72 L263 72 Z " />
<glyph glyph-name="onequarter" unicode="&#xbc;" horiz-adv-x="871" d="M72 267 L292 267 L292 295 L266 295 C218 296 214 300 214 334 L214 615 L180 615 C163 573 144 562 74 557 L74 530 L155 530 L155 334 C156 299 153 297 99 295 L72 295 L72 267 Z M215 -17 L270 -17 L662 622 L606 622 L215 -17 Z M642 0 L849 0 L849 28 L817 28 C781 29 775 34 776 62 L776 101 L849 101 L849 133 L776 133 L776 348 L737 348 L528 129 L528 101 L718 101 L718 59 C717 32 712 29 677 28 L642 28 L642 0 Z M718 133 L576 133 L718 285 L718 133 Z " />
<glyph glyph-name="onehalf" unicode="&#xbd;" horiz-adv-x="871" d="M72 267 L292 267 L292 295 L266 295 C218 296 214 300 214 334 L214 615 L180 615 C163 573 144 562 74 557 L74 530 L155 530 L155 334 C156 299 153 297 99 295 L72 295 L72 267 Z M215 -17 L270 -17 L662 622 L606 622 L215 -17 Z M570 0 C572 28 581 37 607 37 C623 37 627 36 659 20 L689 5 C710 -5 727 -10 745 -10 C804 -10 831 27 834 113 L807 113 C805 59 793 42 757 42 C742 42 725 45 709 49 L669 61 C643 68 638 69 624 69 C609 69 601 67 584 60 C611 100 620 106 691 127 C736 141 766 151 781 160 C808 175 826 208 826 242 C826 306 770 348 686 348 C608 348 549 306 549 250 C549 224 567 204 591 204 C612 204 628 219 628 239 C628 259 616 270 594 270 L585 270 C608 306 629 318 671 318 C725 318 760 290 760 246 C760 208 745 192 690 170 C571 122 540 86 541 0 L570 0 Z " />
<glyph glyph-name="threequarters" unicode="&#xbe;" horiz-adv-x="871" d="M136 434 C181 433 199 431 216 424 C241 414 255 392 255 363 C255 314 219 288 153 288 C110 288 89 297 63 326 C91 328 102 338 102 358 C102 377 87 390 66 390 C40 390 22 372 22 347 C22 298 86 257 164 257 C259 257 324 300 324 362 C324 407 294 436 232 450 C259 457 269 461 281 468 C300 480 313 503 313 526 C313 579 257 615 175 615 C102 615 38 577 38 534 C38 512 54 497 77 497 C99 497 112 509 112 528 C112 545 104 554 83 559 C113 579 135 586 165 586 C215 586 247 561 247 522 C247 497 234 480 211 471 C196 466 180 465 136 464 L136 434 Z M214 -17 L270 -17 L661 622 L606 622 L214 -17 Z M641 0 L848 0 L848 28 L816 28 C780 29 774 34 775 62 L775 101 L848 101 L848 133 L775 133 L775 348 L736 348 L527 129 L527 101 L717 101 L717 59 C716 32 711 29 676 28 L641 28 L641 0 Z M717 133 L575 133 L717 285 L717 133 Z " />
<glyph glyph-name="questiondown" unicode="&#xbf;" horiz-adv-x="447" d="M247 483 C219 483 196 458 196 427 C196 396 219 371 246 371 C274 371 297 396 297 426 C297 458 275 483 247 483 L247 483 Z M225 287 C220 202 215 193 149 138 C91 90 72 71 54 40 C38 14 30 -18 30 -49 C30 -151 110 -221 225 -221 C340 -221 423 -149 423 -48 C423 12 391 55 348 55 C313 55 291 32 291 -2 C291 -33 309 -53 338 -53 C351 -53 359 -50 375 -40 C374 -80 367 -100 346 -124 C322 -151 283 -167 242 -167 C172 -167 125 -121 125 -53 C125 -7 139 25 180 70 C261 156 268 175 270 287 L225 287 Z " />
<glyph glyph-name="Agrave" unicode="&#xc0;" horiz-adv-x="630" d="M-18 0 L241 0 L241 53 L196 53 C151 53 139 58 139 78 C139 89 143 108 151 130 L185 223 L413 223 L450 110 C455 97 457 85 457 77 C457 59 443 53 405 53 L357 53 L357 0 L641 0 L641 53 L616 53 C573 54 557 67 541 114 L351 667 L276 667 L83 111 C66 64 53 54 11 53 L-18 53 L-18 0 Z M202 276 L296 561 L393 276 L202 276 Z M356 706 L391 706 L255 827 C242 839 227 846 215 846 C196 846 180 830 180 810 C180 792 190 781 213 770 L356 706 Z " />
<glyph glyph-name="Aacute" unicode="&#xc1;" horiz-adv-x="630" d="M-18 0 L241 0 L241 53 L196 53 C151 53 139 58 139 78 C139 89 143 108 151 130 L185 223 L413 223 L450 110 C455 97 457 85 457 77 C457 59 443 53 405 53 L357 53 L357 0 L641 0 L641 53 L616 53 C573 54 557 67 541 114 L351 667 L276 667 L83 111 C66 64 53 54 11 53 L-18 53 L-18 0 Z M202 276 L296 561 L393 276 L202 276 Z M275 706 L418 770 C441 780 451 793 451 810 C451 830 435 846 416 846 C405 846 389 839 376 827 L241 706 L275 706 Z " />
<glyph glyph-name="Acircumflex" unicode="&#xc2;" horiz-adv-x="630" d="M-18 0 L241 0 L241 53 L196 53 C151 53 139 58 139 78 C139 89 143 108 151 130 L185 223 L413 223 L450 110 C455 97 457 85 457 77 C457 59 443 53 405 53 L357 53 L357 0 L641 0 L641 53 L616 53 C573 54 557 67 541 114 L351 667 L276 667 L83 111 C66 64 53 54 11 53 L-18 53 L-18 0 Z M202 276 L296 561 L393 276 L202 276 Z M172 706 L204 706 L315 777 L426 706 L458 706 L352 838 L278 838 L172 706 Z " />
<glyph glyph-name="Atilde" unicode="&#xc3;" horiz-adv-x="630" d="M-18 0 L241 0 L241 53 L196 53 C151 53 139 58 139 78 C139 89 143 108 151 130 L185 223 L413 223 L450 110 C455 97 457 85 457 77 C457 59 443 53 405 53 L357 53 L357 0 L641 0 L641 53 L616 53 C573 54 557 67 541 114 L351 667 L276 667 L83 111 C66 64 53 54 11 53 L-18 53 L-18 0 Z M202 276 L296 561 L393 276 L202 276 Z M423 835 C414 807 402 797 380 797 C368 797 365 797 356 799 L305 812 C293 815 281 817 271 817 C249 817 231 808 215 791 C197 772 189 752 179 708 L207 708 C217 737 229 749 249 749 C256 749 268 747 281 744 L333 731 C341 729 349 728 358 728 C407 728 434 760 451 835 L423 835 Z " />
<glyph glyph-name="Adieresis" unicode="&#xc4;" horiz-adv-x="630" d="M-18 0 L241 0 L241 53 L196 53 C151 53 139 58 139 78 C139 89 143 108 151 130 L185 223 L413 223 L450 110 C455 97 457 85 457 77 C457 59 443 53 405 53 L357 53 L357 0 L641 0 L641 53 L616 53 C573 54 557 67 541 114 L351 667 L276 667 L83 111 C66 64 53 54 11 53 L-18 53 L-18 0 Z M202 276 L296 561 L393 276 L202 276 Z M232 821 C205 821 181 798 181 771 C181 742 203 720 233 720 C261 720 283 742 283 770 C283 797 260 821 232 821 L232 821 Z M393 821 C366 821 342 798 342 771 C342 742 364 720 394 720 C422 720 444 742 444 770 C444 797 421 821 393 821 L393 821 Z " />
<glyph glyph-name="Aring" unicode="&#xc5;" horiz-adv-x="630" d="M-18 0 L241 0 L241 53 L196 53 C151 53 139 58 139 78 C139 89 143 108 151 130 L185 223 L413 223 L450 110 C455 97 457 85 457 77 C457 59 443 53 405 53 L357 53 L357 0 L641 0 L641 53 L616 53 C573 54 557 67 541 114 L351 667 L276 667 L83 111 C66 64 53 54 11 53 L-18 53 L-18 0 Z M202 276 L296 561 L393 276 L202 276 Z M309 893 C257 893 213 851 213 800 C213 745 256 701 310 701 C362 701 405 745 405 798 C405 851 362 893 309 893 L309 893 Z M309 848 C337 848 360 825 360 797 C360 770 337 746 309 746 C280 746 258 769 258 799 C258 826 281 848 309 848 L309 848 Z " />
<glyph glyph-name="AE" unicode="&#xc6;" horiz-adv-x="988" d="M230 270 L450 270 L450 126 C451 63 445 55 389 53 L347 53 L347 0 L915 0 L915 271 L869 271 C863 88 840 56 708 53 L538 53 L538 323 L598 323 C679 320 688 307 693 178 L737 178 L737 505 L693 505 C691 392 678 374 599 376 L538 376 L538 614 L697 614 C835 613 866 578 869 416 L915 416 L915 667 L245 667 L245 614 L289 614 C334 614 352 606 352 584 C352 575 345 558 334 541 L53 111 C22 66 2 52 -31 53 L-49 53 L-49 0 L194 0 L194 53 L171 53 C129 53 115 59 115 77 C115 88 123 105 139 130 L230 270 Z M264 323 L439 614 L450 614 L450 323 L264 323 Z " />
<glyph glyph-name="Ccedilla" unicode="&#xc7;" horiz-adv-x="635" d="M536 243 C526 173 516 144 492 110 C461 65 411 41 352 41 C287 41 230 72 197 127 C163 182 144 255 144 334 C144 506 228 631 344 631 C401 631 455 602 492 550 C520 511 530 479 539 408 L584 408 L584 667 L543 667 L521 607 C444 669 401 687 333 687 C164 687 36 534 36 331 C36 143 140 2 294 -17 L294 -101 C307 -96 314 -95 323 -95 C347 -95 363 -111 363 -134 C363 -160 346 -174 317 -174 C288 -174 251 -159 219 -135 L203 -178 C251 -204 294 -217 332 -217 C394 -217 433 -184 433 -133 C433 -89 400 -56 357 -56 C348 -56 337 -57 325 -58 L325 -19 C332 -20 336 -20 339 -20 C441 -20 513 21 556 103 C574 137 582 173 589 243 L536 243 Z " />
<glyph glyph-name="Egrave" unicode="&#xc8;" horiz-adv-x="666" d="M27 0 L595 0 L595 271 L549 271 C543 88 520 57 389 53 L220 53 L220 323 L279 323 C360 320 369 306 374 178 L418 178 L418 505 L374 505 C373 392 359 374 280 376 L220 376 L220 614 L378 614 C515 613 546 578 549 416 L595 416 L595 667 L27 667 L27 614 L62 614 C118 612 124 604 123 541 L123 126 C124 63 118 55 62 53 L27 53 L27 0 Z M375 706 L409 706 L273 827 C260 839 245 846 233 846 C214 846 198 830 198 810 C198 792 208 781 232 770 L375 706 Z " />
<glyph glyph-name="Eacute" unicode="&#xc9;" horiz-adv-x="666" d="M27 0 L595 0 L595 271 L549 271 C543 88 520 57 389 53 L220 53 L220 323 L279 323 C360 320 369 306 374 178 L418 178 L418 505 L374 505 C373 392 359 374 280 376 L220 376 L220 614 L378 614 C515 613 546 578 549 416 L595 416 L595 667 L27 667 L27 614 L62 614 C118 612 124 604 123 541 L123 126 C124 63 118 55 62 53 L27 53 L27 0 Z M293 706 L436 770 C459 780 469 793 469 810 C469 830 453 846 434 846 C423 846 408 839 395 827 L259 706 L293 706 Z " />
<glyph glyph-name="Ecircumflex" unicode="&#xca;" horiz-adv-x="666" d="M27 0 L595 0 L595 271 L549 271 C543 88 520 57 389 53 L220 53 L220 323 L279 323 C360 320 369 306 374 178 L418 178 L418 505 L374 505 C373 392 359 374 280 376 L220 376 L220 614 L378 614 C515 613 546 578 549 416 L595 416 L595 667 L27 667 L27 614 L62 614 C118 612 124 604 123 541 L123 126 C124 63 118 55 62 53 L27 53 L27 0 Z M190 706 L222 706 L333 777 L444 706 L476 706 L370 838 L296 838 L190 706 Z " />
<glyph glyph-name="Edieresis" unicode="&#xcb;" horiz-adv-x="666" d="M27 0 L595 0 L595 271 L549 271 C543 88 520 57 389 53 L220 53 L220 323 L279 323 C360 320 369 306 374 178 L418 178 L418 505 L374 505 C373 392 359 374 280 376 L220 376 L220 614 L378 614 C515 613 546 578 549 416 L595 416 L595 667 L27 667 L27 614 L62 614 C118 612 124 604 123 541 L123 126 C124 63 118 55 62 53 L27 53 L27 0 Z M253 821 C226 821 202 798 202 771 C202 742 224 720 253 720 C282 720 304 742 304 770 C304 797 281 821 253 821 L253 821 Z M414 821 C387 821 363 798 363 771 C363 742 385 720 414 720 C443 720 465 742 465 770 C465 797 442 821 414 821 L414 821 Z " />
<glyph glyph-name="Igrave" unicode="&#xcc;" horiz-adv-x="349" d="M27 0 L322 0 L322 53 L284 53 C229 55 223 63 224 126 L224 541 C223 604 229 612 284 614 L322 614 L322 667 L27 667 L27 614 L66 614 C121 612 127 604 126 541 L126 126 C127 63 121 55 66 53 L27 53 L27 0 Z M216 706 L251 706 L115 827 C102 839 87 846 75 846 C56 846 40 830 40 810 C40 792 50 781 73 770 L216 706 Z " />
<glyph glyph-name="Iacute" unicode="&#xcd;" horiz-adv-x="349" d="M27 0 L322 0 L322 53 L284 53 C229 55 223 63 224 126 L224 541 C223 604 229 612 284 614 L322 614 L322 667 L27 667 L27 614 L66 614 C121 612 127 604 126 541 L126 126 C127 63 121 55 66 53 L27 53 L27 0 Z M135 706 L278 770 C301 780 311 793 311 810 C311 830 295 846 276 846 C265 846 249 839 236 827 L100 706 L135 706 Z " />
<glyph glyph-name="Icircumflex" unicode="&#xce;" horiz-adv-x="349" d="M27 0 L322 0 L322 53 L284 53 C229 55 223 63 224 126 L224 541 C223 604 229 612 284 614 L322 614 L322 667 L27 667 L27 614 L66 614 C121 612 127 604 126 541 L126 126 C127 63 121 55 66 53 L27 53 L27 0 Z M32 706 L64 706 L175 777 L285 706 L317 706 L212 838 L138 838 L32 706 Z " />
<glyph glyph-name="Idieresis" unicode="&#xcf;" horiz-adv-x="349" d="M27 0 L322 0 L322 53 L284 53 C229 55 223 63 224 126 L224 541 C223 604 229 612 284 614 L322 614 L322 667 L27 667 L27 614 L66 614 C121 612 127 604 126 541 L126 126 C127 63 121 55 66 53 L27 53 L27 0 Z M104 821 C77 821 53 798 53 771 C53 742 75 720 104 720 C133 720 155 742 155 770 C155 797 132 821 104 821 L104 821 Z M246 821 C219 821 195 798 195 771 C195 742 217 720 246 720 C275 720 297 742 297 770 C297 797 274 821 246 821 L246 821 Z " />
<glyph glyph-name="Eth" unicode="&#xd0;" horiz-adv-x="711" d="M30 0 L322 0 C470 0 531 18 589 79 C646 138 678 230 678 336 C678 447 643 540 579 599 C522 652 466 667 323 667 L30 667 L30 614 L65 614 C120 612 126 604 125 541 L125 361 L4 361 L4 313 L125 313 L125 126 C126 63 120 55 65 53 L30 53 L30 0 Z M222 313 L389 313 L389 361 L222 361 L222 614 L323 614 C420 614 476 592 517 539 C553 491 570 429 570 342 C570 246 550 169 514 124 C476 78 409 53 322 53 L222 53 L222 313 Z " />
<glyph glyph-name="Ntilde" unicode="&#xd1;" horiz-adv-x="742" d="M632 -3 L632 541 C631 604 637 612 693 614 L721 614 L721 667 L458 667 L458 614 L504 614 C560 612 566 604 565 541 L565 131 L230 667 L27 667 L27 614 L61 614 C117 612 123 604 122 541 L122 126 C123 63 117 55 61 53 L27 53 L27 0 L294 0 L294 53 L250 53 C194 55 188 63 189 126 L189 577 L550 -3 L632 -3 Z M479 835 C470 807 459 797 436 797 C424 797 421 797 413 799 L361 812 C349 815 337 817 327 817 C305 817 287 808 271 791 C253 772 245 752 235 708 L263 708 C273 737 285 749 306 749 C312 749 325 747 337 744 L389 731 C397 729 405 728 414 728 C463 728 490 760 507 835 L479 835 Z " />
<glyph glyph-name="Ograve" unicode="&#xd2;" horiz-adv-x="715" d="M358 687 C174 687 36 537 36 339 C36 130 170 -19 358 -19 C543 -19 679 131 679 334 C679 538 543 687 358 687 L358 687 Z M358 632 C487 632 571 514 571 334 C571 154 487 36 358 36 C227 36 144 153 144 338 C144 514 229 632 358 632 L358 632 Z M399 706 L434 706 L298 827 C285 839 270 846 258 846 C239 846 223 830 223 810 C223 792 233 781 256 770 L399 706 Z " />
<glyph glyph-name="Oacute" unicode="&#xd3;" horiz-adv-x="715" d="M358 687 C174 687 36 537 36 339 C36 130 170 -19 358 -19 C543 -19 679 131 679 334 C679 538 543 687 358 687 L358 687 Z M358 632 C487 632 571 514 571 334 C571 154 487 36 358 36 C227 36 144 153 144 338 C144 514 229 632 358 632 L358 632 Z M318 706 L461 770 C484 780 494 793 494 810 C494 830 478 846 459 846 C448 846 432 839 419 827 L283 706 L318 706 Z " />
<glyph glyph-name="Ocircumflex" unicode="&#xd4;" horiz-adv-x="715" d="M358 687 C174 687 36 537 36 339 C36 130 170 -19 358 -19 C543 -19 679 131 679 334 C679 538 543 687 358 687 L358 687 Z M358 632 C487 632 571 514 571 334 C571 154 487 36 358 36 C227 36 144 153 144 338 C144 514 229 632 358 632 L358 632 Z M215 706 L247 706 L358 777 L468 706 L500 706 L395 838 L321 838 L215 706 Z " />
<glyph glyph-name="Otilde" unicode="&#xd5;" horiz-adv-x="715" d="M358 687 C174 687 36 537 36 339 C36 130 170 -19 358 -19 C543 -19 679 131 679 334 C679 538 543 687 358 687 L358 687 Z M358 632 C487 632 571 514 571 334 C571 154 487 36 358 36 C227 36 144 153 144 338 C144 514 229 632 358 632 L358 632 Z M466 835 C457 807 445 797 423 797 C411 797 408 797 399 799 L347 812 C336 815 324 817 314 817 C292 817 274 808 257 791 C240 772 231 752 222 708 L250 708 C260 737 272 749 292 749 C299 749 311 747 324 744 L376 731 C384 729 391 728 401 728 C449 728 477 760 494 835 L466 835 Z " />
<glyph glyph-name="Odieresis" unicode="&#xd6;" horiz-adv-x="715" d="M358 687 C174 687 36 537 36 339 C36 130 170 -19 358 -19 C543 -19 679 131 679 334 C679 538 543 687 358 687 L358 687 Z M358 632 C487 632 571 514 571 334 C571 154 487 36 358 36 C227 36 144 153 144 338 C144 514 229 632 358 632 L358 632 Z M278 821 C251 821 227 798 227 771 C227 742 249 720 278 720 C307 720 329 742 329 770 C329 797 306 821 278 821 L278 821 Z M438 821 C411 821 387 798 387 771 C387 742 409 720 438 720 C467 720 489 742 489 770 C489 797 466 821 438 821 L438 821 Z " />
<glyph glyph-name="multiply" unicode="&#xd7;" horiz-adv-x="456" d="M56 165 L98 118 L228 263 L358 118 L399 165 L269 309 L399 454 L358 500 L228 356 L98 500 L56 454 L186 309 L56 165 Z " />
<glyph glyph-name="Oslash" unicode="&#xd8;" horiz-adv-x="715" d="M628 694 L561 613 C502 662 434 687 358 687 C172 687 36 537 36 334 C36 239 65 153 120 89 L50 6 L84 -28 L154 55 C212 6 281 -19 358 -19 C543 -19 679 130 679 333 C679 429 650 514 594 581 L662 663 L628 694 Z M178 158 C154 210 144 262 144 335 C144 514 229 632 358 632 C419 632 470 606 510 553 L178 158 Z M536 512 C561 460 571 407 571 333 C571 153 487 36 358 36 C295 36 244 62 204 115 L536 512 Z " />
<glyph glyph-name="Ugrave" unicode="&#xd9;" horiz-adv-x="684" d="M27 614 L54 614 C109 612 115 604 114 541 L114 209 C114 125 136 68 183 30 C223 -3 279 -20 343 -20 C416 -20 474 2 515 43 C557 87 575 147 575 244 L575 541 C574 604 580 612 636 614 L662 614 L662 667 L404 667 L404 614 L447 614 C503 612 509 604 508 541 L508 244 C508 163 498 122 471 91 C447 63 404 47 355 47 C257 47 211 99 211 209 L211 541 C210 604 216 612 272 614 L314 614 L314 667 L27 667 L27 614 Z M384 706 L418 706 L282 827 C269 839 254 846 242 846 C223 846 207 830 207 810 C207 792 217 781 241 770 L384 706 Z " />
<glyph glyph-name="Uacute" unicode="&#xda;" horiz-adv-x="684" d="M27 614 L54 614 C109 612 115 604 114 541 L114 209 C114 125 136 68 183 30 C223 -3 279 -20 343 -20 C416 -20 474 2 515 43 C557 87 575 147 575 244 L575 541 C574 604 580 612 636 614 L662 614 L662 667 L404 667 L404 614 L447 614 C503 612 509 604 508 541 L508 244 C508 163 498 122 471 91 C447 63 404 47 355 47 C257 47 211 99 211 209 L211 541 C210 604 216 612 272 614 L314 614 L314 667 L27 667 L27 614 Z M302 706 L445 770 C468 780 478 793 478 810 C478 830 462 846 443 846 C432 846 416 839 403 827 L268 706 L302 706 Z " />
<glyph glyph-name="Ucircumflex" unicode="&#xdb;" horiz-adv-x="684" d="M27 614 L54 614 C109 612 115 604 114 541 L114 209 C114 125 136 68 183 30 C223 -3 279 -20 343 -20 C416 -20 474 2 515 43 C557 87 575 147 575 244 L575 541 C574 604 580 612 636 614 L662 614 L662 667 L404 667 L404 614 L447 614 C503 612 509 604 508 541 L508 244 C508 163 498 122 471 91 C447 63 404 47 355 47 C257 47 211 99 211 209 L211 541 C210 604 216 612 272 614 L314 614 L314 667 L27 667 L27 614 Z M199 706 L231 706 L342 777 L453 706 L485 706 L379 838 L305 838 L199 706 Z " />
<glyph glyph-name="Udieresis" unicode="&#xdc;" horiz-adv-x="684" d="M27 614 L54 614 C109 612 115 604 114 541 L114 209 C114 125 136 68 183 30 C223 -3 279 -20 343 -20 C416 -20 474 2 515 43 C557 87 575 147 575 244 L575 541 C574 604 580 612 636 614 L662 614 L662 667 L404 667 L404 614 L447 614 C503 612 509 604 508 541 L508 244 C508 163 498 122 471 91 C447 63 404 47 355 47 C257 47 211 99 211 209 L211 541 C210 604 216 612 272 614 L314 614 L314 667 L27 667 L27 614 Z M272 821 C245 821 221 798 221 771 C221 742 243 720 272 720 C301 720 323 742 323 770 C323 797 300 821 272 821 L272 821 Z M432 821 C405 821 381 798 381 771 C381 742 403 720 432 720 C461 720 483 742 483 770 C483 797 460 821 432 821 L432 821 Z " />
<glyph glyph-name="Yacute" unicode="&#xdd;" horiz-adv-x="572" d="M235 263 L235 126 C236 63 230 55 174 53 L120 53 L120 0 L446 0 L446 53 L390 53 C337 55 331 63 332 126 L332 263 L476 532 C514 598 533 614 570 614 L591 614 L591 667 L348 667 L348 614 L408 614 C427 614 439 607 439 596 C439 588 435 576 429 564 L301 331 L175 555 C167 568 162 583 162 594 C162 607 173 614 193 614 L253 614 L253 667 L-22 667 L-22 614 L4 614 C34 613 59 592 82 550 L235 263 Z M246 706 L389 770 C413 781 423 792 423 810 C423 830 407 846 388 846 C376 846 361 839 348 827 L212 706 L246 706 Z " />
<glyph glyph-name="Thorn" unicode="&#xde;" horiz-adv-x="612" d="M27 0 L322 0 L322 53 L278 53 C220 55 213 63 214 126 L214 158 L313 158 C419 158 465 166 507 192 C552 221 579 275 579 340 C579 407 554 459 508 487 C464 513 413 522 306 522 L214 522 L214 541 C213 604 220 612 278 614 L322 614 L322 667 L27 667 L27 614 L64 614 C121 612 128 604 127 541 L127 126 C128 63 121 55 64 53 L27 53 L27 0 Z M214 211 L214 469 L308 469 C358 469 388 465 413 455 C456 438 478 401 478 344 C478 253 426 211 313 211 L214 211 Z " />
<glyph glyph-name="germandbls" unicode="&#xdf;" horiz-adv-x="563" d="M13 0 L178 0 L178 442 C178 520 185 563 202 590 C220 619 248 634 282 634 C338 634 373 594 373 531 C373 495 361 469 336 451 C315 436 292 431 237 430 L237 379 C310 378 341 370 369 342 C399 314 415 261 415 192 C415 95 387 36 342 36 C319 36 299 51 291 75 C284 96 282 113 279 168 L231 168 C233 94 238 62 255 32 C272 -1 302 -17 346 -17 C443 -17 511 76 511 208 C511 269 495 316 464 352 C439 380 415 393 360 410 C436 435 466 471 466 537 C466 624 394 684 288 684 C161 684 93 599 93 442 L93 105 C93 58 85 50 36 48 L15 48 L13 0 Z " />
<glyph glyph-name="agrave" unicode="&#xe0;" horiz-adv-x="496" d="M455 159 C452 61 444 37 416 37 C396 37 389 53 389 95 L389 327 C389 397 379 426 345 451 C314 473 270 486 222 486 C124 486 49 431 49 361 C49 326 72 300 102 300 C130 300 150 321 150 349 C150 376 138 391 110 399 C144 430 168 441 206 441 C268 441 309 407 309 354 C309 309 292 290 238 273 L169 251 C64 218 27 181 27 110 C27 33 79 -18 157 -18 C214 -18 255 3 310 61 C326 4 351 -18 398 -18 C470 -18 495 27 496 159 L455 159 Z M305 199 C305 137 294 102 266 74 C246 54 215 41 186 41 C147 41 122 69 122 113 C122 155 146 186 192 203 L226 216 C250 225 262 230 305 253 L305 199 Z M314 540 L180 686 C164 703 143 715 128 715 C108 715 91 698 91 677 C91 659 101 648 132 629 L278 540 L314 540 Z " />
<glyph glyph-name="aacute" unicode="&#xe1;" horiz-adv-x="496" d="M455 159 C452 61 444 37 416 37 C396 37 389 53 389 95 L389 327 C389 397 379 426 345 451 C314 473 270 486 222 486 C124 486 49 431 49 361 C49 326 72 300 102 300 C130 300 150 321 150 349 C150 376 138 391 110 399 C144 430 168 441 206 441 C268 441 309 407 309 354 C309 309 292 290 238 273 L169 251 C64 218 27 181 27 110 C27 33 79 -18 157 -18 C214 -18 255 3 310 61 C326 4 351 -18 398 -18 C470 -18 495 27 496 159 L455 159 Z M305 199 C305 137 294 102 266 74 C246 54 215 41 186 41 C147 41 122 69 122 113 C122 155 146 186 192 203 L226 216 C250 225 262 230 305 253 L305 199 Z M176 540 L212 540 L357 629 C388 648 398 660 398 677 C398 698 381 715 361 715 C346 715 326 704 310 686 L176 540 Z " />
<glyph glyph-name="acircumflex" unicode="&#xe2;" horiz-adv-x="496" d="M455 159 C452 61 444 37 416 37 C396 37 389 53 389 95 L389 327 C389 397 379 426 345 451 C314 473 270 486 222 486 C124 486 49 431 49 361 C49 326 72 300 102 300 C130 300 150 321 150 349 C150 376 138 391 110 399 C144 430 168 441 206 441 C268 441 309 407 309 354 C309 309 292 290 238 273 L169 251 C64 218 27 181 27 110 C27 33 79 -18 157 -18 C214 -18 255 3 310 61 C326 4 351 -18 398 -18 C470 -18 495 27 496 159 L455 159 Z M305 199 C305 137 294 102 266 74 C246 54 215 41 186 41 C147 41 122 69 122 113 C122 155 146 186 192 203 L226 216 C250 225 262 230 305 253 L305 199 Z M87 540 L123 540 L230 635 L338 540 L373 540 L262 709 L198 709 L87 540 Z " />
<glyph glyph-name="atilde" unicode="&#xe3;" horiz-adv-x="496" d="M455 159 C452 61 444 37 416 37 C396 37 389 53 389 95 L389 327 C389 397 379 426 345 451 C314 473 270 486 222 486 C124 486 49 431 49 361 C49 326 72 300 102 300 C130 300 150 321 150 349 C150 376 138 391 110 399 C144 430 168 441 206 441 C268 441 309 407 309 354 C309 309 292 290 238 273 L169 251 C64 218 27 181 27 110 C27 33 79 -18 157 -18 C214 -18 255 3 310 61 C326 4 351 -18 398 -18 C470 -18 495 27 496 159 L455 159 Z M305 199 C305 137 294 102 266 74 C246 54 215 41 186 41 C147 41 122 69 122 113 C122 155 146 186 192 203 L226 216 C250 225 262 230 305 253 L305 199 Z M339 694 C330 662 319 652 294 652 C287 652 279 653 272 655 L220 668 C208 671 198 672 186 672 C164 672 146 663 130 646 C112 627 103 606 93 560 L121 560 C131 591 144 604 165 604 C172 604 184 602 196 599 L248 586 C257 584 266 583 273 583 C322 583 349 615 367 694 L339 694 Z " />
<glyph glyph-name="adieresis" unicode="&#xe4;" horiz-adv-x="496" d="M455 159 C452 61 444 37 416 37 C396 37 389 53 389 95 L389 327 C389 397 379 426 345 451 C314 473 270 486 222 486 C124 486 49 431 49 361 C49 326 72 300 102 300 C130 300 150 321 150 349 C150 376 138 391 110 399 C144 430 168 441 206 441 C268 441 309 407 309 354 C309 309 292 290 238 273 L169 251 C64 218 27 181 27 110 C27 33 79 -18 157 -18 C214 -18 255 3 310 61 C326 4 351 -18 398 -18 C470 -18 495 27 496 159 L455 159 Z M305 199 C305 137 294 102 266 74 C246 54 215 41 186 41 C147 41 122 69 122 113 C122 155 146 186 192 203 L226 216 C250 225 262 230 305 253 L305 199 Z M161 674 C132 674 106 649 106 620 C106 588 130 565 161 565 C192 565 215 588 215 619 C215 649 191 674 161 674 L161 674 Z M329 674 C300 674 274 648 274 620 C274 589 298 565 329 565 C359 565 383 589 383 619 C383 649 358 674 329 674 L329 674 Z " />
<glyph glyph-name="aring" unicode="&#xe5;" horiz-adv-x="496" d="M455 159 C452 61 444 37 416 37 C396 37 389 53 389 95 L389 327 C389 397 379 426 345 451 C314 473 270 486 222 486 C124 486 49 431 49 361 C49 326 72 300 102 300 C130 300 150 321 150 349 C150 376 138 391 110 399 C144 430 168 441 206 441 C268 441 309 407 309 354 C309 309 292 290 238 273 L169 251 C64 218 27 181 27 110 C27 33 79 -18 157 -18 C214 -18 255 3 310 61 C326 4 351 -18 398 -18 C470 -18 495 27 496 159 L455 159 Z M305 199 C305 137 294 102 266 74 C246 54 215 41 186 41 C147 41 122 69 122 113 C122 155 146 186 192 203 L226 216 C250 225 262 230 305 253 L305 199 Z M225 759 C160 759 105 706 105 642 C105 572 158 519 226 519 C292 519 345 573 345 639 C345 705 291 759 225 759 L225 759 Z M225 708 C262 708 293 677 293 639 C293 601 262 570 225 570 C187 570 156 601 156 641 C156 677 188 708 225 708 L225 708 Z " />
<glyph glyph-name="ae" unicode="&#xe6;" horiz-adv-x="751" d="M656 154 C643 110 633 92 614 74 C591 52 557 39 522 39 C477 39 439 59 418 95 C399 127 392 157 390 226 L722 226 C718 322 707 365 675 411 C639 461 588 486 521 486 C461 486 430 473 373 424 C350 450 337 460 318 468 C292 480 257 486 220 486 C116 486 41 433 41 361 C41 325 64 299 95 299 C123 299 144 320 144 348 C144 375 132 390 102 399 C139 431 165 442 207 442 C278 442 321 408 321 353 C321 305 301 285 234 268 L177 254 C67 227 18 182 18 110 C18 32 72 -18 157 -18 C188 -18 218 -11 245 1 C281 18 303 38 341 89 C362 54 377 35 395 22 C427 -3 474 -17 521 -17 C579 -17 623 1 657 38 C684 66 696 93 709 154 L656 154 Z M318 199 C318 137 307 103 278 75 C256 54 220 40 188 40 C142 40 113 68 113 113 C113 157 142 190 193 204 L235 216 C269 226 288 235 318 252 L318 199 Z M394 279 C399 337 406 363 424 390 C445 421 476 437 518 437 C557 437 588 422 607 394 C625 367 631 340 634 279 L394 279 Z " />
<glyph glyph-name="ccedilla" unicode="&#xe7;" horiz-adv-x="460" d="M381 175 C371 130 365 112 351 91 C331 60 294 41 254 41 C173 41 124 114 124 236 C124 362 178 438 267 438 C291 438 314 432 334 421 C353 410 362 400 377 372 C342 365 328 350 328 320 C328 288 348 266 378 266 C413 266 437 294 437 336 C437 422 357 486 251 486 C120 486 27 379 27 228 C27 94 96 1 208 -16 L208 -94 C221 -90 228 -88 236 -88 C263 -88 277 -103 277 -132 C277 -160 261 -174 230 -174 C201 -174 166 -160 133 -135 L117 -178 C166 -204 208 -217 246 -217 C309 -217 346 -185 346 -130 C346 -82 315 -49 271 -49 C262 -49 251 -50 239 -51 L239 -18 C348 -20 417 48 433 175 L381 175 Z " />
<glyph glyph-name="egrave" unicode="&#xe8;" horiz-adv-x="474" d="M380 154 C366 110 356 92 337 74 C315 52 280 39 245 39 C200 39 162 59 141 95 C122 127 116 157 114 226 L445 226 C441 322 430 365 398 411 C362 462 312 486 243 486 C111 486 27 387 27 233 C27 82 113 -17 245 -17 C302 -17 346 1 380 38 C407 66 419 93 432 154 L380 154 Z M117 279 C122 337 129 362 147 390 C168 421 200 437 241 437 C280 437 311 422 330 394 C348 367 354 340 357 279 L117 279 Z M303 540 L169 686 C152 703 132 715 117 715 C97 715 80 698 80 677 C80 659 90 648 121 629 L267 540 L303 540 Z " />
<glyph glyph-name="eacute" unicode="&#xe9;" horiz-adv-x="474" d="M380 154 C366 110 356 92 337 74 C315 52 280 39 245 39 C200 39 162 59 141 95 C122 127 116 157 114 226 L445 226 C441 322 430 365 398 411 C362 462 312 486 243 486 C111 486 27 387 27 233 C27 82 113 -17 245 -17 C302 -17 346 1 380 38 C407 66 419 93 432 154 L380 154 Z M117 279 C122 337 129 362 147 390 C168 421 200 437 241 437 C280 437 311 422 330 394 C348 367 354 340 357 279 L117 279 Z M164 540 L200 540 L346 629 C377 648 387 660 387 677 C387 698 370 715 350 715 C335 715 315 704 298 686 L164 540 Z " />
<glyph glyph-name="ecircumflex" unicode="&#xea;" horiz-adv-x="474" d="M380 154 C366 110 356 92 337 74 C315 52 280 39 245 39 C200 39 162 59 141 95 C122 127 116 157 114 226 L445 226 C441 322 430 365 398 411 C362 462 312 486 243 486 C111 486 27 387 27 233 C27 82 113 -17 245 -17 C302 -17 346 1 380 38 C407 66 419 93 432 154 L380 154 Z M117 279 C122 337 129 362 147 390 C168 421 200 437 241 437 C280 437 311 422 330 394 C348 367 354 340 357 279 L117 279 Z M94 540 L130 540 L237 635 L344 540 L380 540 L269 709 L205 709 L94 540 Z " />
<glyph glyph-name="edieresis" unicode="&#xeb;" horiz-adv-x="474" d="M380 154 C366 110 356 92 337 74 C315 52 280 39 245 39 C200 39 162 59 141 95 C122 127 116 157 114 226 L445 226 C441 322 430 365 398 411 C362 462 312 486 243 486 C111 486 27 387 27 233 C27 82 113 -17 245 -17 C302 -17 346 1 380 38 C407 66 419 93 432 154 L380 154 Z M117 279 C122 337 129 362 147 390 C168 421 200 437 241 437 C280 437 311 422 330 394 C348 367 354 340 357 279 L117 279 Z M154 674 C125 674 99 649 99 620 C99 588 123 565 154 565 C185 565 208 588 208 619 C208 649 183 674 154 674 L154 674 Z M321 674 C292 674 266 648 266 620 C266 589 290 565 322 565 C352 565 375 589 375 619 C375 649 350 674 321 674 L321 674 Z " />
<glyph glyph-name="igrave" unicode="&#xec;" horiz-adv-x="295" d="M27 0 L272 0 L272 48 L250 48 C204 50 196 58 196 105 L196 469 L27 469 L27 421 L56 421 C106 419 115 410 114 364 L114 105 C115 58 106 50 56 48 L27 48 L27 0 Z M182 540 L110 675 C94 703 80 715 61 715 C40 715 25 701 25 682 C25 664 27 662 63 628 L150 540 L182 540 Z " />
<glyph glyph-name="iacute" unicode="&#xed;" horiz-adv-x="295" d="M27 0 L272 0 L272 48 L250 48 C203 50 195 58 195 105 L195 469 L27 469 L27 421 L55 421 C105 419 114 410 113 364 L113 105 C114 59 105 50 55 48 L27 48 L27 0 Z M128 540 L160 540 L248 628 C284 662 286 664 286 682 C286 701 271 715 250 715 C230 715 216 703 201 675 L128 540 Z " />
<glyph glyph-name="icircumflex" unicode="&#xee;" horiz-adv-x="295" d="M27 0 L272 0 L272 48 L250 48 C203 50 195 58 195 105 L195 469 L27 469 L27 421 L55 421 C105 419 114 410 113 364 L113 105 C114 59 105 50 55 48 L27 48 L27 0 Z M5 540 L40 540 L148 635 L255 540 L291 540 L180 709 L115 709 L5 540 Z " />
<glyph glyph-name="idieresis" unicode="&#xef;" horiz-adv-x="295" d="M27 0 L272 0 L272 48 L250 48 C203 50 195 58 195 105 L195 469 L27 469 L27 421 L55 421 C105 419 114 410 113 364 L113 105 C114 59 105 50 55 48 L27 48 L27 0 Z M64 674 C35 674 9 649 9 620 C9 588 33 565 64 565 C95 565 118 588 118 619 C118 649 93 674 64 674 L64 674 Z M232 674 C203 674 177 648 177 620 C177 589 201 565 233 565 C263 565 286 589 286 619 C286 649 261 674 232 674 L232 674 Z " />
<glyph glyph-name="eth" unicode="&#xf0;" horiz-adv-x="518" d="M219 667 C240 639 247 630 262 606 L198 578 L218 537 L283 567 C312 520 321 504 335 474 C305 483 285 486 259 486 C198 486 140 462 97 419 C50 372 28 313 28 234 C28 156 50 97 97 50 C140 7 198 -17 260 -17 C393 -17 491 88 491 230 C491 332 448 431 332 591 L404 622 L384 663 L303 630 C288 648 286 649 270 667 L219 667 Z M259 435 C346 435 394 363 394 232 C394 106 345 34 259 34 C173 34 125 106 125 234 C125 363 173 435 259 435 L259 435 Z " />
<glyph glyph-name="ntilde" unicode="&#xf1;" horiz-adv-x="585" d="M27 0 L273 0 L273 48 L244 48 C195 50 187 58 187 105 L187 268 C187 319 197 352 223 384 C247 413 280 429 317 429 C383 429 407 390 407 281 L407 105 C407 58 399 50 352 48 L324 48 L324 0 L565 0 L565 48 L546 48 C500 50 492 58 492 105 L492 268 C492 358 487 388 466 423 C442 461 399 482 346 482 C312 482 279 473 252 458 C228 444 212 427 187 388 L187 469 L27 469 L27 421 L52 421 C102 419 110 411 110 364 L110 105 C110 58 102 50 52 48 L27 48 L27 0 Z M402 694 C392 662 382 652 357 652 C350 652 342 653 334 655 L282 668 C271 671 261 672 248 672 C227 672 209 663 193 646 C175 627 166 606 156 560 L184 560 C194 591 206 604 227 604 C235 604 247 602 259 599 L311 586 C319 584 329 583 336 583 C385 583 412 615 430 694 L402 694 Z " />
<glyph glyph-name="ograve" unicode="&#xf2;" horiz-adv-x="518" d="M260 486 C198 486 142 463 97 419 C52 375 28 313 28 238 C28 155 49 98 97 50 C140 7 198 -17 260 -17 C321 -17 379 7 422 50 C469 97 491 156 491 234 C491 313 469 373 422 419 C378 463 322 486 260 486 L260 486 Z M259 435 C346 435 394 363 394 234 C394 106 346 34 260 34 C172 34 125 106 125 237 C125 363 174 435 259 435 L259 435 Z M325 540 L191 686 C175 704 155 715 140 715 C120 715 103 698 103 677 C103 660 113 647 144 629 L289 540 L325 540 Z " />
<glyph glyph-name="oacute" unicode="&#xf3;" horiz-adv-x="518" d="M260 486 C198 486 142 463 97 419 C52 375 28 313 28 238 C28 155 49 98 97 50 C140 7 198 -17 260 -17 C321 -17 379 7 422 50 C469 97 491 156 491 234 C491 313 469 373 422 419 C378 463 322 486 260 486 L260 486 Z M259 435 C346 435 394 363 394 234 C394 106 346 34 260 34 C172 34 125 106 125 237 C125 363 174 435 259 435 L259 435 Z M187 540 L223 540 L368 629 C398 647 409 660 409 677 C409 698 392 715 372 715 C357 715 337 704 321 686 L187 540 Z " />
<glyph glyph-name="ocircumflex" unicode="&#xf4;" horiz-adv-x="518" d="M260 486 C198 486 142 463 97 419 C52 375 28 313 28 238 C28 155 49 98 97 50 C140 7 198 -17 260 -17 C321 -17 379 7 422 50 C469 97 491 156 491 234 C491 313 469 373 422 419 C378 463 322 486 260 486 L260 486 Z M259 435 C346 435 394 363 394 234 C394 106 346 34 260 34 C172 34 125 106 125 237 C125 363 174 435 259 435 L259 435 Z M117 540 L152 540 L259 635 L367 540 L402 540 L292 709 L227 709 L117 540 Z " />
<glyph glyph-name="otilde" unicode="&#xf5;" horiz-adv-x="518" d="M260 486 C198 486 142 463 97 419 C52 375 28 313 28 238 C28 155 49 98 97 50 C140 7 198 -17 260 -17 C321 -17 379 7 422 50 C469 97 491 156 491 234 C491 313 469 373 422 419 C378 463 322 486 260 486 L260 486 Z M259 435 C346 435 394 363 394 234 C394 106 346 34 260 34 C172 34 125 106 125 237 C125 363 174 435 259 435 L259 435 Z M369 694 C359 662 348 652 323 652 C316 652 309 653 301 655 L249 668 C238 671 228 672 215 672 C194 672 175 663 159 646 C141 627 133 606 122 560 L150 560 C160 591 173 604 194 604 C202 604 214 602 226 599 L278 586 C286 584 295 583 303 583 C352 583 379 615 397 694 L369 694 Z " />
<glyph glyph-name="odieresis" unicode="&#xf6;" horiz-adv-x="518" d="M260 486 C198 486 142 463 97 419 C52 375 28 313 28 238 C28 155 49 98 97 50 C140 7 198 -17 260 -17 C321 -17 379 7 422 50 C469 97 491 156 491 234 C491 313 469 373 422 419 C378 463 322 486 260 486 L260 486 Z M259 435 C346 435 394 363 394 234 C394 106 346 34 260 34 C172 34 125 106 125 237 C125 363 174 435 259 435 L259 435 Z M177 674 C148 674 122 649 122 620 C122 588 146 565 177 565 C208 565 231 588 231 619 C231 649 206 674 177 674 L177 674 Z M345 674 C316 674 290 648 290 620 C290 589 314 565 346 565 C376 565 399 589 399 619 C399 649 374 674 345 674 L345 674 Z " />
<glyph glyph-name="divide" unicode="&#xf7;" horiz-adv-x="549" d="M273 126 C239 126 211 99 211 64 C211 30 238 2 273 2 C306 2 334 30 334 64 C334 98 306 126 273 126 L273 126 Z M273 525 C239 525 211 498 211 463 C211 429 238 401 273 401 C306 401 334 429 334 463 C334 497 306 525 273 525 L273 525 Z M10 294 L10 239 L536 239 L536 294 L10 294 Z " />
<glyph glyph-name="oslash" unicode="&#xf8;" horiz-adv-x="518" d="M475 497 L411 429 C367 467 316 486 259 486 C197 486 139 462 96 419 C49 372 27 313 27 235 C27 167 42 119 76 72 L13 5 L41 -26 L105 41 C149 2 200 -17 259 -17 C320 -17 378 7 421 50 C468 97 490 156 490 234 C490 302 474 354 440 399 L503 466 L475 497 Z M136 136 C127 170 124 197 124 234 C124 363 172 435 259 435 C304 435 339 415 363 378 L136 136 Z M381 336 C390 300 393 275 393 235 C393 106 345 34 259 34 C213 34 178 54 154 93 L381 336 Z " />
<glyph glyph-name="ugrave" unicode="&#xf9;" horiz-adv-x="581" d="M22 421 L44 421 C99 419 108 411 108 364 L108 201 C108 112 113 81 133 46 C154 9 195 -13 245 -13 C312 -13 353 13 394 81 L394 0 L560 0 L560 48 L535 48 C487 50 479 58 479 105 L479 469 L292 469 L292 421 L330 421 C385 419 394 411 394 364 L394 201 C394 105 346 40 275 40 C214 40 193 79 193 188 L193 469 L22 469 L22 421 Z M356 540 L222 686 C206 703 185 715 170 715 C150 715 133 698 133 677 C133 659 143 648 174 629 L320 540 L356 540 Z " />
<glyph glyph-name="uacute" unicode="&#xfa;" horiz-adv-x="581" d="M22 421 L44 421 C99 419 108 411 108 364 L108 201 C108 112 113 81 133 46 C154 9 195 -13 245 -13 C312 -13 353 13 394 81 L394 0 L560 0 L560 48 L535 48 C487 50 479 58 479 105 L479 469 L292 469 L292 421 L330 421 C385 419 394 411 394 364 L394 201 C394 105 346 40 275 40 C214 40 193 79 193 188 L193 469 L22 469 L22 421 Z M217 540 L254 540 L399 629 C430 648 440 660 440 677 C440 698 423 715 403 715 C388 715 368 704 351 686 L217 540 Z " />
<glyph glyph-name="ucircumflex" unicode="&#xfb;" horiz-adv-x="581" d="M22 421 L44 421 C99 419 108 411 108 364 L108 201 C108 112 113 81 133 46 C154 9 195 -13 245 -13 C312 -13 353 13 394 81 L394 0 L560 0 L560 48 L535 48 C487 50 479 58 479 105 L479 469 L292 469 L292 421 L330 421 C385 419 394 411 394 364 L394 201 C394 105 346 40 275 40 C214 40 193 79 193 188 L193 469 L22 469 L22 421 Z M147 540 L183 540 L290 635 L397 540 L433 540 L322 709 L258 709 L147 540 Z " />
<glyph glyph-name="udieresis" unicode="&#xfc;" horiz-adv-x="581" d="M22 421 L44 421 C99 419 108 411 108 364 L108 201 C108 112 113 81 133 46 C154 9 195 -13 245 -13 C312 -13 353 13 394 81 L394 0 L560 0 L560 48 L535 48 C487 50 479 58 479 105 L479 469 L292 469 L292 421 L330 421 C385 419 394 411 394 364 L394 201 C394 105 346 40 275 40 C214 40 193 79 193 188 L193 469 L22 469 L22 421 Z M197 674 C168 674 142 649 142 620 C142 588 166 565 197 565 C228 565 251 588 251 619 C251 649 226 674 197 674 L197 674 Z M364 674 C335 674 309 648 309 620 C309 589 333 565 365 565 C395 565 418 589 418 619 C418 649 393 674 364 674 L364 674 Z " />
<glyph glyph-name="yacute" unicode="&#xfd;" horiz-adv-x="509" d="M230 -3 C178 -132 153 -164 104 -164 C81 -164 69 -157 52 -132 C90 -129 105 -116 105 -83 C105 -53 84 -30 57 -30 C22 -30 -4 -61 -4 -104 C-4 -134 7 -162 28 -184 C48 -205 69 -214 101 -214 C143 -214 176 -198 204 -164 C230 -133 245 -103 300 38 L425 359 C446 411 453 418 485 421 L512 421 L512 469 L298 469 L298 421 L334 421 C366 421 378 415 378 399 C378 392 376 380 373 372 L270 103 L169 367 C164 379 161 393 161 401 C161 416 169 421 191 421 L230 421 L230 469 L2 469 L2 421 L25 421 C60 419 68 412 84 374 L230 -3 Z M183 540 L219 540 L364 629 C395 648 405 660 405 677 C405 698 388 715 368 715 C353 715 333 704 317 686 L183 540 Z " />
<glyph glyph-name="thorn" unicode="&#xfe;" horiz-adv-x="553" d="M175 78 C219 8 257 -16 324 -16 C438 -16 515 85 515 235 C515 383 438 484 325 484 C279 484 235 465 207 433 C197 422 191 413 176 390 L176 667 L12 667 L12 619 L36 619 C82 617 91 608 90 562 L90 -109 C90 -155 82 -164 36 -166 L17 -166 L17 -214 L258 -214 L258 -166 L230 -166 C182 -164 174 -155 175 -109 L175 78 Z M302 426 C375 426 418 356 418 236 C418 112 376 42 303 42 C224 42 175 116 175 236 C175 351 225 426 302 426 L302 426 Z " />
<glyph glyph-name="ydieresis" unicode="&#xff;" horiz-adv-x="509" d="M230 -3 C178 -132 153 -164 104 -164 C81 -164 69 -157 52 -132 C90 -129 105 -116 105 -83 C105 -53 84 -30 57 -30 C22 -30 -4 -61 -4 -104 C-4 -134 7 -162 28 -184 C48 -205 69 -214 101 -214 C143 -214 176 -198 204 -164 C230 -133 245 -103 300 38 L425 359 C446 411 453 418 485 421 L512 421 L512 469 L298 469 L298 421 L334 421 C366 421 378 415 378 399 C378 392 376 380 373 372 L270 103 L169 367 C164 379 161 393 161 401 C161 416 169 421 191 421 L230 421 L230 469 L2 469 L2 421 L25 421 C60 419 68 412 84 374 L230 -3 Z M172 674 C143 674 117 649 117 620 C117 588 141 565 172 565 C203 565 226 588 226 619 C226 649 201 674 172 674 L172 674 Z M339 674 C310 674 284 648 284 620 C284 589 308 565 340 565 C370 565 393 589 393 619 C393 649 368 674 339 674 L339 674 Z " />
<glyph glyph-name="Amacron" unicode="&#x100;" horiz-adv-x="630" d="M-18 0 L241 0 L241 53 L196 53 C151 53 139 58 139 78 C139 89 143 108 151 130 L185 223 L413 223 L450 110 C455 97 457 85 457 77 C457 59 443 53 405 53 L357 53 L357 0 L641 0 L641 53 L616 53 C573 54 557 67 541 114 L351 667 L276 667 L83 111 C66 64 53 54 11 53 L-18 53 L-18 0 Z M202 276 L296 561 L393 276 L202 276 Z M189 738 L441 738 L441 803 L189 803 L189 738 Z " />
<glyph glyph-name="amacron" unicode="&#x101;" horiz-adv-x="496" d="M455 159 C452 61 444 37 416 37 C396 37 389 53 389 95 L389 327 C389 397 379 426 345 451 C314 473 270 486 222 486 C124 486 49 431 49 361 C49 326 72 300 102 300 C130 300 150 321 150 349 C150 376 138 391 110 399 C144 430 168 441 206 441 C268 441 309 407 309 354 C309 309 292 290 238 273 L169 251 C64 218 27 181 27 110 C27 33 79 -18 157 -18 C214 -18 255 3 310 61 C326 4 351 -18 398 -18 C470 -18 495 27 496 159 L455 159 Z M305 199 C305 137 294 102 266 74 C246 54 215 41 186 41 C147 41 122 69 122 113 C122 155 146 186 192 203 L226 216 C250 225 262 230 305 253 L305 199 Z M101 585 L363 585 L363 653 L101 653 L101 585 Z " />
<glyph glyph-name="Abreve" unicode="&#x102;" horiz-adv-x="630" d="M-18 0 L241 0 L241 53 L196 53 C151 53 139 58 139 78 C139 89 143 108 151 130 L185 223 L413 223 L450 110 C455 97 457 85 457 77 C457 59 443 53 405 53 L357 53 L357 0 L641 0 L641 53 L616 53 C573 54 557 67 541 114 L351 667 L276 667 L83 111 C66 64 53 54 11 53 L-18 53 L-18 0 Z M202 276 L296 561 L393 276 L202 276 Z M171 834 C181 788 190 768 211 748 C236 723 273 709 315 709 C357 709 394 723 420 748 C440 767 449 788 459 834 L427 834 C413 792 383 777 315 777 C247 777 218 792 202 834 L171 834 Z " />
<glyph glyph-name="abreve" unicode="&#x103;" horiz-adv-x="496" d="M455 159 C452 61 444 37 416 37 C396 37 389 53 389 95 L389 327 C389 397 379 426 345 451 C314 473 270 486 222 486 C124 486 49 431 49 361 C49 326 72 300 102 300 C130 300 150 321 150 349 C150 376 138 391 110 399 C144 430 168 441 206 441 C268 441 309 407 309 354 C309 309 292 290 238 273 L169 251 C64 218 27 181 27 110 C27 33 79 -18 157 -18 C214 -18 255 3 310 61 C326 4 351 -18 398 -18 C470 -18 495 27 496 159 L455 159 Z M305 199 C305 137 294 102 266 74 C246 54 215 41 186 41 C147 41 122 69 122 113 C122 155 146 186 192 203 L226 216 C250 225 262 230 305 253 L305 199 Z M103 692 C113 641 123 619 144 597 C170 571 206 557 248 557 C291 557 327 571 353 597 C373 618 383 641 394 692 L362 692 C347 644 319 628 248 628 C178 628 151 643 134 692 L103 692 Z " />
<glyph glyph-name="Aogonek" unicode="&#x104;" horiz-adv-x="630" d="M641 0 L641 53 L616 53 C573 54 557 67 541 114 L351 667 L276 667 L83 111 C66 64 53 54 11 53 L-18 53 L-18 0 L241 0 L241 53 L196 53 C149 53 139 58 139 80 C139 90 144 108 151 130 L185 223 L413 223 L450 110 C454 98 457 84 457 78 C457 59 444 53 405 53 L357 53 L357 0 L573 0 C512 -48 482 -96 482 -142 C482 -188 510 -217 552 -217 C592 -217 626 -190 648 -141 L635 -133 C619 -158 605 -168 585 -168 C562 -168 548 -146 548 -111 C548 -75 567 -36 600 0 L641 0 Z M202 276 L296 561 L393 276 L202 276 Z " />
<glyph glyph-name="aogonek" unicode="&#x105;" horiz-adv-x="496" d="M455 159 C452 61 444 37 416 37 C396 37 389 53 389 95 L389 327 C389 397 379 426 345 451 C314 473 270 486 222 486 C124 486 49 431 49 361 C49 326 72 300 102 300 C130 300 150 321 150 349 C150 376 138 391 110 399 C144 430 168 441 206 441 C268 441 309 407 309 354 C309 309 292 290 238 273 L169 251 C64 218 27 181 27 110 C27 33 79 -18 157 -18 C214 -18 255 3 310 61 C324 13 338 -4 373 -14 C324 -58 300 -100 300 -143 C300 -188 327 -217 369 -217 C409 -217 443 -190 465 -141 L452 -133 C436 -158 422 -168 402 -168 C378 -168 364 -146 364 -111 C364 -81 377 -50 402 -17 C471 -14 497 34 496 159 L455 159 Z M305 199 C305 137 294 102 266 74 C246 54 215 41 186 41 C147 41 122 69 122 113 C122 155 146 186 192 203 L226 216 C250 225 262 230 305 253 L305 199 Z " />
<glyph glyph-name="Cacute" unicode="&#x106;" horiz-adv-x="635" d="M536 243 C525 174 516 144 492 110 C461 65 412 41 353 41 C287 41 231 72 197 127 C163 182 144 255 144 334 C144 506 228 631 344 631 C402 631 455 602 492 550 C519 511 530 479 539 408 L584 408 L584 667 L543 667 L520 607 C444 669 401 687 333 687 C164 687 36 534 36 331 C36 225 69 134 130 68 C185 8 252 -20 337 -20 C425 -20 491 9 534 69 C568 114 580 153 589 243 L536 243 Z M278 706 L421 770 C444 781 454 792 454 810 C454 830 438 846 419 846 C407 846 392 839 379 827 L243 706 L278 706 Z " />
<glyph glyph-name="cacute" unicode="&#x107;" horiz-adv-x="460" d="M381 175 C371 130 365 112 351 91 C331 60 294 41 254 41 C173 41 124 114 124 236 C124 363 177 438 267 438 C291 438 315 432 334 421 C353 410 362 400 377 372 C342 365 328 350 328 320 C328 288 348 266 378 266 C413 266 437 294 437 336 C437 421 357 486 251 486 C120 486 27 379 27 228 C27 80 112 -18 241 -18 C305 -18 351 3 386 47 C412 81 422 109 433 175 L381 175 Z M158 540 L194 540 L339 629 C370 647 380 660 380 677 C380 698 363 715 343 715 C328 715 308 704 292 686 L158 540 Z " />
<glyph glyph-name="Ccaron" unicode="&#x10c;" horiz-adv-x="635" d="M536 243 C525 174 516 144 492 110 C461 65 412 41 353 41 C287 41 231 72 197 127 C163 182 144 255 144 334 C144 506 228 631 344 631 C402 631 455 602 492 550 C519 511 530 479 539 408 L584 408 L584 667 L543 667 L520 607 C444 669 401 687 333 687 C164 687 36 534 36 331 C36 225 69 134 130 68 C185 8 252 -20 337 -20 C425 -20 491 9 534 69 C568 114 580 153 589 243 L536 243 Z M175 838 L280 706 L354 706 L460 838 L428 838 L317 767 L207 838 L175 838 Z " />
<glyph glyph-name="ccaron" unicode="&#x10d;" horiz-adv-x="460" d="M381 175 C371 130 365 112 351 91 C331 60 294 41 254 41 C173 41 124 114 124 236 C124 363 177 438 267 438 C291 438 315 432 334 421 C353 410 362 400 377 372 C342 365 328 350 328 320 C328 288 348 266 378 266 C413 266 437 294 437 336 C437 421 357 486 251 486 C120 486 27 379 27 228 C27 80 112 -18 241 -18 C305 -18 351 3 386 47 C412 81 422 109 433 175 L381 175 Z M88 709 L198 540 L263 540 L373 709 L338 709 L230 614 L123 709 L88 709 Z " />
<glyph glyph-name="Dcaron" unicode="&#x10e;" horiz-adv-x="706" d="M27 0 L320 0 C468 0 529 18 587 79 C643 138 675 230 675 336 C675 447 640 540 577 599 C520 652 464 667 321 667 L27 667 L27 614 L62 614 C116 612 122 604 121 541 L121 126 C122 63 116 55 62 53 L27 53 L27 0 Z M218 614 L321 614 C418 614 473 593 514 539 C550 491 567 430 567 342 C567 246 547 169 511 124 C474 78 407 53 319 53 L218 53 L218 614 Z M114 838 L219 706 L293 706 L399 838 L367 838 L256 767 L146 838 L114 838 Z " />
<glyph glyph-name="dcaron" unicode="&#x10f;" horiz-adv-x="550" d="M288 619 L317 619 C365 617 374 608 374 562 L374 391 C329 461 292 485 224 485 C109 485 31 384 31 234 C31 86 109 -15 223 -15 C290 -15 330 11 374 81 L374 0 L531 0 L531 48 L509 48 C459 50 451 58 451 105 L451 667 L288 667 L288 619 Z M244 427 C324 427 374 352 374 234 C374 119 323 43 245 43 C170 43 127 113 127 234 C127 357 170 427 244 427 L244 427 Z M523 457 C584 471 628 525 628 588 C628 635 600 667 558 667 C528 667 506 646 506 615 C506 590 526 571 551 571 C561 571 569 574 585 582 C587 537 562 500 523 489 L523 457 Z " />
<glyph glyph-name="Dcroat" unicode="&#x110;" horiz-adv-x="711" d="M30 0 L322 0 C470 0 531 18 589 79 C646 138 678 230 678 336 C678 447 643 540 579 599 C522 652 466 667 323 667 L30 667 L30 614 L65 614 C120 612 126 604 125 541 L125 361 L4 361 L4 313 L125 313 L125 126 C126 63 120 55 65 53 L30 53 L30 0 Z M222 313 L389 313 L389 361 L222 361 L222 614 L323 614 C420 614 476 592 517 539 C553 491 570 429 570 342 C570 246 550 169 514 124 C476 78 409 53 322 53 L222 53 L222 313 Z " />
<glyph glyph-name="dcroat" unicode="&#x111;" horiz-adv-x="550" d="M451 572 L451 667 L288 667 L288 618 L317 618 C362 617 373 609 374 572 L201 572 L201 528 L374 528 L374 391 C329 462 292 485 224 485 C109 485 31 384 31 234 C31 86 109 -15 223 -15 C290 -15 330 11 374 81 L374 0 L531 0 L531 48 L509 48 C459 50 451 58 451 105 L451 528 L504 528 L504 572 L451 572 Z M244 427 C324 427 374 352 374 234 C374 119 323 43 245 43 C170 43 127 113 127 234 C127 357 170 427 244 427 L244 427 Z " />
<glyph glyph-name="Emacron" unicode="&#x112;" horiz-adv-x="666" d="M27 0 L595 0 L595 271 L549 271 C543 88 520 57 389 53 L220 53 L220 323 L279 323 C360 320 369 306 374 178 L418 178 L418 505 L374 505 C373 392 359 374 280 376 L220 376 L220 614 L378 614 C515 613 546 578 549 416 L595 416 L595 667 L27 667 L27 614 L62 614 C118 612 124 604 123 541 L123 126 C124 63 118 55 62 53 L27 53 L27 0 Z M207 738 L459 738 L459 803 L207 803 L207 738 Z " />
<glyph glyph-name="emacron" unicode="&#x113;" horiz-adv-x="474" d="M380 154 C366 110 356 92 337 74 C315 52 280 39 245 39 C200 39 162 59 141 95 C122 127 116 157 114 226 L445 226 C441 322 430 365 398 411 C362 462 312 486 243 486 C111 486 27 387 27 233 C27 82 113 -17 245 -17 C302 -17 346 1 380 38 C407 66 419 93 432 154 L380 154 Z M117 279 C122 337 129 362 147 390 C168 421 200 437 241 437 C280 437 311 422 330 394 C348 367 354 340 357 279 L117 279 Z M106 585 L368 585 L368 653 L106 653 L106 585 Z " />
<glyph glyph-name="Edotaccent" unicode="&#x116;" horiz-adv-x="666" d="M27 0 L595 0 L595 271 L549 271 C543 88 520 57 389 53 L220 53 L220 323 L279 323 C360 320 369 306 374 178 L418 178 L418 505 L374 505 C373 392 359 374 280 376 L220 376 L220 614 L378 614 C515 613 546 578 549 416 L595 416 L595 667 L27 667 L27 614 L62 614 C118 612 124 604 123 541 L123 126 C124 63 118 55 62 53 L27 53 L27 0 Z M334 824 C305 824 280 799 280 771 C280 740 303 717 334 717 C363 717 387 741 387 770 C387 799 363 824 334 824 L334 824 Z " />
<glyph glyph-name="edotaccent" unicode="&#x117;" horiz-adv-x="474" d="M380 154 C366 110 356 92 337 74 C315 52 280 39 245 39 C200 39 162 59 141 95 C122 127 116 157 114 226 L445 226 C441 322 430 365 398 411 C362 462 312 486 243 486 C111 486 27 387 27 233 C27 82 113 -17 245 -17 C302 -17 346 1 380 38 C407 66 419 93 432 154 L380 154 Z M117 279 C122 337 129 362 147 390 C168 421 200 437 241 437 C280 437 311 422 330 394 C348 367 354 340 357 279 L117 279 Z M238 677 C207 677 180 650 180 620 C180 587 205 562 238 562 C270 562 295 587 295 618 C295 650 268 677 238 677 L238 677 Z " />
<glyph glyph-name="Eogonek" unicode="&#x118;" horiz-adv-x="666" d="M595 0 L595 271 L549 271 C543 88 520 57 389 53 L220 53 L220 323 L279 323 C360 320 369 306 374 178 L418 178 L418 505 L374 505 C373 392 359 374 280 376 L220 376 L220 614 L378 614 C515 613 546 578 549 416 L595 416 L595 667 L27 667 L27 614 L62 614 C118 612 124 604 123 541 L123 126 C124 63 118 55 62 53 L27 53 L27 0 L505 0 C443 -49 413 -95 413 -142 C413 -188 441 -217 483 -217 C523 -217 557 -190 579 -141 L566 -133 C551 -158 536 -168 517 -168 C493 -168 479 -146 479 -111 C479 -75 498 -36 532 0 L595 0 Z " />
<glyph glyph-name="eogonek" unicode="&#x119;" horiz-adv-x="474" d="M380 154 C366 110 356 92 337 74 C315 52 280 39 245 39 C200 39 162 59 141 95 C122 127 116 157 114 226 L445 226 C441 322 430 365 398 411 C362 462 312 486 243 486 C111 486 27 387 27 233 C27 84 111 -15 239 -17 L244 -17 L249 -17 L252 -17 C204 -62 182 -101 182 -143 C182 -188 209 -217 251 -217 C292 -217 326 -190 347 -141 L334 -133 C319 -158 304 -168 285 -168 C261 -168 247 -147 247 -111 C247 -93 251 -76 259 -60 C271 -34 282 -24 321 -4 C392 35 413 63 432 154 L380 154 Z M117 279 C122 337 129 362 147 390 C168 421 200 437 241 437 C280 437 311 422 330 394 C348 367 354 340 357 279 L117 279 Z " />
<glyph glyph-name="Ecaron" unicode="&#x11a;" horiz-adv-x="666" d="M27 0 L595 0 L595 271 L549 271 C543 88 520 57 389 53 L220 53 L220 323 L279 323 C360 320 369 306 374 178 L418 178 L418 505 L374 505 C373 392 359 374 280 376 L220 376 L220 614 L378 614 C515 613 546 578 549 416 L595 416 L595 667 L27 667 L27 614 L62 614 C118 612 124 604 123 541 L123 126 C124 63 118 55 62 53 L27 53 L27 0 Z M190 838 L296 706 L370 706 L476 838 L444 838 L333 767 L222 838 L190 838 Z " />
<glyph glyph-name="ecaron" unicode="&#x11b;" horiz-adv-x="474" d="M380 154 C366 110 356 92 337 74 C315 52 280 39 245 39 C200 39 162 59 141 95 C122 127 116 157 114 226 L445 226 C441 322 430 365 398 411 C362 462 312 486 243 486 C111 486 27 387 27 233 C27 82 113 -17 245 -17 C302 -17 346 1 380 38 C407 66 419 93 432 154 L380 154 Z M117 279 C122 337 129 362 147 390 C168 421 200 437 241 437 C280 437 311 422 330 394 C348 367 354 340 357 279 L117 279 Z M94 709 L205 540 L269 540 L380 709 L344 709 L237 614 L130 709 L94 709 Z " />
<glyph glyph-name="Gbreve" unicode="&#x11e;" horiz-adv-x="697" d="M604 -7 L604 232 C604 283 611 290 665 289 L698 289 L698 342 L396 342 L396 289 L442 289 C498 288 505 282 507 232 L507 191 C507 156 500 131 485 108 C457 68 400 41 343 41 C277 41 216 78 185 137 C157 188 144 253 144 334 C144 514 220 631 338 631 C388 631 436 607 472 565 C502 529 516 496 534 421 L585 421 L585 667 L540 667 L507 602 C436 668 396 687 323 687 C154 687 36 539 36 329 C36 122 151 -19 321 -19 C392 -19 434 -2 514 56 L549 -7 L604 -7 Z M170 839 C180 794 189 773 210 754 C235 729 272 715 314 715 C356 715 393 729 418 754 C438 773 448 794 458 839 L426 839 C411 798 382 783 314 783 C246 783 217 797 201 839 L170 839 Z " />
<glyph glyph-name="gbreve" unicode="&#x11f;" horiz-adv-x="581" d="M189 60 C139 60 119 71 119 98 C119 123 141 147 163 147 C166 147 169 146 174 145 C221 129 228 128 258 128 C372 128 444 197 444 307 C444 342 439 359 421 397 C447 432 465 444 493 444 C508 444 514 441 524 427 C494 420 481 406 481 379 C481 352 501 331 527 331 C557 331 578 359 578 401 C578 451 544 486 495 486 C457 486 436 474 398 432 C345 472 307 486 248 486 C136 486 62 415 62 309 C62 254 77 219 120 176 C61 140 45 119 45 79 C45 38 65 14 114 -4 C54 -22 27 -50 27 -96 C27 -171 108 -214 247 -214 C413 -214 494 -166 494 -68 C494 15 435 60 327 60 L189 60 Z M251 439 C315 439 351 393 351 310 C351 224 317 180 252 180 C187 180 154 223 154 309 C154 390 190 439 251 439 L251 439 Z M288 -20 C403 -21 444 -38 444 -85 C444 -113 428 -131 392 -144 C359 -156 293 -164 229 -164 C130 -164 77 -138 77 -89 C77 -43 128 -20 230 -20 L288 -20 Z M122 692 C132 641 142 619 163 597 C189 571 225 557 267 557 C310 557 346 571 372 597 C392 618 402 641 413 692 L381 692 C366 644 338 628 267 628 C197 628 170 643 153 692 L122 692 Z " />
<glyph glyph-name="Gcommaaccent" unicode="&#x122;" horiz-adv-x="697" d="M604 -7 L604 232 C604 283 611 290 665 289 L698 289 L698 342 L396 342 L396 289 L442 289 C498 288 505 282 507 232 L507 191 C507 156 500 131 485 108 C457 68 400 41 343 41 C277 41 216 78 185 137 C157 188 144 253 144 334 C144 514 220 631 338 631 C388 631 436 607 472 565 C502 529 516 496 534 421 L585 421 L585 667 L540 667 L507 602 C436 668 396 687 323 687 C154 687 36 539 36 329 C36 122 151 -19 321 -19 C392 -19 434 -2 514 56 L549 -7 L604 -7 Z M286 -266 C349 -252 392 -198 392 -135 C392 -88 364 -56 322 -56 C292 -56 270 -77 270 -108 C270 -132 290 -152 315 -152 C325 -152 333 -149 348 -141 C351 -186 326 -223 286 -234 L286 -266 Z " />
<glyph glyph-name="gcommaaccent" unicode="&#x123;" horiz-adv-x="581" d="M189 60 C139 60 119 71 119 98 C119 123 141 147 163 147 C166 147 169 146 174 145 C221 129 228 128 258 128 C372 128 444 197 444 307 C444 342 439 359 421 397 C447 432 465 444 493 444 C508 444 514 441 524 427 C494 420 481 406 481 379 C481 352 501 331 527 331 C557 331 578 359 578 401 C578 451 544 486 495 486 C457 486 436 474 398 432 C345 472 307 486 248 486 C136 486 62 415 62 309 C62 254 77 219 120 176 C61 140 45 119 45 79 C45 38 65 14 114 -4 C54 -22 27 -50 27 -96 C27 -171 108 -214 247 -214 C413 -214 494 -166 494 -68 C494 15 435 60 327 60 L189 60 Z M251 439 C315 439 351 393 351 310 C351 224 317 180 252 180 C187 180 154 223 154 309 C154 390 190 439 251 439 L251 439 Z M288 -20 C403 -21 444 -38 444 -85 C444 -113 428 -131 392 -144 C359 -156 293 -164 229 -164 C130 -164 77 -138 77 -89 C77 -43 128 -20 230 -20 L288 -20 Z M293 735 C231 721 187 667 187 604 C187 557 216 525 257 525 C288 525 310 546 310 577 C310 601 290 621 265 621 C255 621 247 618 231 610 C229 655 254 692 293 703 L293 735 Z " />
<glyph glyph-name="Imacron" unicode="&#x12a;" horiz-adv-x="349" d="M27 0 L322 0 L322 53 L284 53 C229 55 223 63 224 126 L224 541 C223 604 229 612 284 614 L322 614 L322 667 L27 667 L27 614 L66 614 C121 612 127 604 126 541 L126 126 C127 63 121 55 66 53 L27 53 L27 0 Z M49 738 L301 738 L301 803 L49 803 L49 738 Z " />
<glyph glyph-name="imacron" unicode="&#x12b;" horiz-adv-x="295" d="M27 0 L272 0 L272 48 L250 48 C203 50 195 58 195 105 L195 469 L27 469 L27 421 L55 421 C105 419 114 410 113 364 L113 105 C114 59 105 50 55 48 L27 48 L27 0 Z M17 585 L279 585 L279 653 L17 653 L17 585 Z " />
<glyph glyph-name="Iogonek" unicode="&#x12e;" horiz-adv-x="349" d="M322 0 L322 53 L284 53 C229 55 223 63 224 126 L224 541 C223 604 229 612 284 614 L322 614 L322 667 L27 667 L27 614 L66 614 C121 612 127 604 126 541 L126 126 C127 63 121 55 66 53 L27 53 L27 0 L237 0 C174 -52 146 -95 146 -142 C146 -188 174 -217 216 -217 C256 -217 290 -190 311 -141 L299 -133 C283 -158 269 -168 249 -168 C226 -168 212 -146 212 -111 C212 -75 230 -37 264 0 L322 0 Z " />
<glyph glyph-name="iogonek" unicode="&#x12f;" horiz-adv-x="295" d="M272 0 L272 48 L250 48 C203 50 195 58 195 105 L195 469 L27 469 L27 421 L55 421 C105 419 114 410 113 364 L113 105 C114 59 105 50 55 48 L27 48 L27 0 L208 0 C144 -50 112 -98 112 -146 C112 -191 140 -220 182 -220 C223 -220 257 -193 279 -144 L266 -136 C250 -161 236 -171 216 -171 C192 -171 178 -149 178 -114 C178 -77 197 -38 234 0 L272 0 Z M141 675 C109 675 84 650 84 617 C84 587 110 562 141 562 C172 562 197 587 197 618 C197 649 172 675 141 675 L141 675 Z " />
<glyph glyph-name="Idotaccent" unicode="&#x130;" horiz-adv-x="349" d="M27 0 L322 0 L322 53 L284 53 C229 55 223 63 224 126 L224 541 C223 604 229 612 284 614 L322 614 L322 667 L27 667 L27 614 L66 614 C121 612 127 604 126 541 L126 126 C127 63 121 55 66 53 L27 53 L27 0 Z M175 824 C146 824 121 799 121 771 C121 740 144 717 175 717 C204 717 228 741 228 770 C228 799 204 824 175 824 L175 824 Z " />
<glyph glyph-name="dotlessi" unicode="&#x131;" horiz-adv-x="295" d="M27 0 L272 0 L272 48 L250 48 C203 50 195 58 195 105 L195 469 L27 469 L27 421 L55 421 C105 419 114 410 113 364 L113 105 C114 59 105 50 55 48 L27 48 L27 0 Z " />
<glyph glyph-name="Kcommaaccent" unicode="&#x136;" horiz-adv-x="688" d="M322 53 L280 53 C225 55 219 63 220 126 L220 237 L303 323 L468 121 C498 84 499 83 499 72 C499 60 487 53 465 53 L396 53 L396 0 L722 0 L722 53 L694 53 C644 56 626 66 590 111 L366 384 L516 536 C580 596 607 612 654 614 L690 614 L690 667 L390 667 L390 614 L434 614 C465 614 479 607 479 594 C479 586 473 575 464 565 L220 318 L220 541 C219 604 225 612 280 614 L322 614 L322 667 L27 667 L27 614 L62 614 C118 612 124 604 123 541 L123 126 C124 63 118 55 62 53 L27 53 L27 0 L322 0 L322 53 Z M301 -266 C363 -252 406 -198 406 -135 C406 -88 378 -56 336 -56 C306 -56 284 -77 284 -108 C284 -132 304 -152 329 -152 C339 -152 347 -149 363 -141 C365 -186 340 -223 301 -234 L301 -266 Z " />
<glyph glyph-name="kcommaaccent" unicode="&#x137;" horiz-adv-x="572" d="M180 229 L180 667 L22 667 L22 619 L44 619 C91 617 99 608 99 562 L99 105 C99 58 91 50 44 48 L22 48 L22 0 L254 0 L254 48 L235 48 C188 50 180 58 180 105 L180 165 L251 228 L366 89 C373 80 377 73 377 67 C377 55 357 48 325 48 L302 48 L302 0 L558 0 L558 48 L544 48 C510 48 480 64 456 93 L306 276 L419 377 C459 411 484 421 521 420 L534 420 L534 469 L271 469 L271 420 L312 420 C347 420 360 415 360 403 C360 394 351 382 333 365 L180 229 Z M242 -266 C305 -252 348 -198 348 -135 C348 -88 320 -56 278 -56 C248 -56 226 -77 226 -108 C226 -132 246 -152 271 -152 C281 -152 288 -149 304 -141 C306 -186 281 -223 242 -234 L242 -266 Z " />
<glyph glyph-name="Lacute" unicode="&#x139;" horiz-adv-x="612" d="M27 667 L27 614 L62 614 C117 612 123 604 122 541 L122 126 C123 62 117 55 62 53 L27 53 L27 0 L576 0 L576 277 L530 277 C530 92 501 54 357 53 L219 53 L219 541 C218 604 224 612 280 614 L322 614 L322 667 L27 667 Z M266 706 L409 770 C433 781 443 793 443 810 C443 830 427 846 408 846 C396 846 381 839 368 827 L232 706 L266 706 Z " />
<glyph glyph-name="lacute" unicode="&#x13a;" horiz-adv-x="286" d="M186 667 L22 667 L22 619 L45 619 C92 617 101 608 100 562 L100 105 C100 59 92 50 45 48 L22 48 L22 0 L266 0 L266 48 L241 48 C194 50 186 58 186 105 L186 667 Z M115 717 L151 717 L296 806 C326 824 337 837 337 854 C337 875 320 892 300 892 C285 892 265 881 249 863 L115 717 Z " />
<glyph glyph-name="Lcommaaccent" unicode="&#x13b;" horiz-adv-x="612" d="M27 667 L27 614 L62 614 C117 612 123 604 122 541 L122 126 C123 62 117 55 62 53 L27 53 L27 0 L576 0 L576 277 L530 277 C530 92 501 54 357 53 L219 53 L219 541 C218 604 224 612 280 614 L322 614 L322 667 L27 667 Z M263 -266 C325 -252 368 -198 368 -135 C368 -88 340 -56 298 -56 C268 -56 246 -77 246 -108 C246 -132 266 -152 291 -152 C301 -152 309 -149 325 -141 C327 -186 302 -223 263 -234 L263 -266 Z " />
<glyph glyph-name="lcommaaccent" unicode="&#x13c;" horiz-adv-x="286" d="M186 667 L22 667 L22 619 L45 619 C92 617 101 608 100 562 L100 105 C100 59 92 50 45 48 L22 48 L22 0 L266 0 L266 48 L241 48 C194 50 186 58 186 105 L186 667 Z M99 -266 C161 -252 205 -198 205 -135 C205 -88 177 -56 135 -56 C105 -56 83 -77 83 -108 C83 -132 103 -152 128 -152 C138 -152 145 -149 161 -141 C163 -186 138 -223 99 -234 L99 -266 Z " />
<glyph glyph-name="Lcaron" unicode="&#x13d;" horiz-adv-x="612" d="M27 667 L27 614 L62 614 C117 612 123 604 122 541 L122 126 C123 62 117 55 62 53 L27 53 L27 0 L576 0 L576 277 L530 277 C530 92 501 54 357 53 L219 53 L219 541 C218 604 224 612 280 614 L322 614 L322 667 L27 667 Z M401 472 C462 485 506 539 506 602 C506 649 478 681 436 681 C406 681 384 660 384 630 C384 605 404 586 429 586 C439 586 447 588 463 597 C465 552 440 514 401 504 L401 472 Z " />
<glyph glyph-name="lcaron" unicode="&#x13e;" horiz-adv-x="286" d="M186 667 L22 667 L22 619 L45 619 C92 617 101 608 100 562 L100 105 C100 59 92 50 45 48 L22 48 L22 0 L266 0 L266 48 L241 48 C194 50 186 58 186 105 L186 667 Z M258 466 C320 479 364 533 364 596 C364 643 336 675 294 675 C264 675 242 654 242 624 C242 599 262 580 287 580 C297 580 305 583 320 591 C323 546 298 508 258 498 L258 466 Z " />
<glyph glyph-name="Lslash" unicode="&#x141;" horiz-adv-x="617" d="M124 266 L124 126 C125 63 119 55 64 53 L29 53 L29 0 L578 0 L578 277 L532 277 C532 92 503 53 359 53 L221 53 L221 311 L384 441 L384 497 L221 367 L221 541 C220 604 226 612 282 614 L324 614 L324 667 L29 667 L29 614 L64 614 C119 612 125 604 124 541 L124 323 L4 225 L4 169 L124 266 Z " />
<glyph glyph-name="lslash" unicode="&#x142;" horiz-adv-x="295" d="M108 300 L108 105 C108 58 100 50 50 48 L25 48 L25 0 L269 0 L269 48 L244 48 C198 50 190 58 190 105 L190 338 L293 423 L293 476 L190 392 L190 667 L25 667 L25 619 L50 619 C99 617 108 609 108 562 L108 353 L4 273 L4 219 L108 300 Z " />
<glyph glyph-name="Nacute" unicode="&#x143;" horiz-adv-x="742" d="M632 -3 L632 541 C631 604 637 612 693 614 L721 614 L721 667 L458 667 L458 614 L504 614 C560 612 566 604 565 541 L565 131 L230 667 L27 667 L27 614 L61 614 C117 612 123 604 122 541 L122 126 C123 63 117 55 61 53 L27 53 L27 0 L294 0 L294 53 L250 53 C194 55 188 63 189 126 L189 577 L550 -3 L632 -3 Z M331 706 L474 770 C497 780 507 792 507 810 C507 830 491 846 472 846 C461 846 446 839 433 827 L297 706 L331 706 Z " />
<glyph glyph-name="nacute" unicode="&#x144;" horiz-adv-x="585" d="M27 0 L273 0 L273 48 L244 48 C195 50 187 58 187 105 L187 268 C187 319 197 352 223 384 C247 413 280 429 317 429 C383 429 407 390 407 281 L407 105 C407 58 399 50 352 48 L324 48 L324 0 L565 0 L565 48 L546 48 C500 50 492 58 492 105 L492 268 C492 358 487 388 466 423 C442 461 399 482 346 482 C312 482 279 473 252 458 C228 444 212 427 187 388 L187 469 L27 469 L27 421 L52 421 C102 419 110 411 110 364 L110 105 C110 58 102 50 52 48 L27 48 L27 0 Z M220 540 L256 540 L402 629 C433 648 443 660 443 677 C443 698 426 715 406 715 C391 715 371 704 354 686 L220 540 Z " />
<glyph glyph-name="Ncommaaccent" unicode="&#x145;" horiz-adv-x="742" d="M632 -3 L632 541 C631 604 637 612 693 614 L721 614 L721 667 L458 667 L458 614 L504 614 C560 612 566 604 565 541 L565 131 L230 667 L27 667 L27 614 L61 614 C117 612 123 604 122 541 L122 126 C123 63 117 55 61 53 L27 53 L27 0 L294 0 L294 53 L250 53 C194 55 188 63 189 126 L189 577 L550 -3 L632 -3 Z M327 -266 C390 -252 433 -198 433 -135 C433 -88 405 -56 363 -56 C333 -56 311 -77 311 -108 C311 -132 331 -152 356 -152 C366 -152 374 -149 389 -141 C392 -186 367 -223 327 -234 L327 -266 Z " />
<glyph glyph-name="ncommaaccent" unicode="&#x146;" horiz-adv-x="585" d="M27 0 L273 0 L273 48 L244 48 C195 50 187 58 187 105 L187 268 C187 319 197 352 223 384 C247 413 280 429 317 429 C383 429 407 390 407 281 L407 105 C407 58 399 50 352 48 L324 48 L324 0 L565 0 L565 48 L546 48 C500 50 492 58 492 105 L492 268 C492 358 487 388 466 423 C442 461 399 482 346 482 C312 482 279 473 252 458 C228 444 212 427 187 388 L187 469 L27 469 L27 421 L52 421 C102 419 110 411 110 364 L110 105 C110 58 102 50 52 48 L27 48 L27 0 Z M249 -266 C312 -252 355 -198 355 -135 C355 -88 327 -56 285 -56 C255 -56 233 -77 233 -108 C233 -132 253 -152 278 -152 C288 -152 296 -149 311 -141 C313 -186 289 -223 249 -234 L249 -266 Z " />
<glyph glyph-name="Ncaron" unicode="&#x147;" horiz-adv-x="742" d="M632 -3 L632 541 C631 604 637 612 693 614 L721 614 L721 667 L458 667 L458 614 L504 614 C560 612 566 604 565 541 L565 131 L230 667 L27 667 L27 614 L61 614 C117 612 123 604 122 541 L122 126 C123 63 117 55 61 53 L27 53 L27 0 L294 0 L294 53 L250 53 C194 55 188 63 189 126 L189 577 L550 -3 L632 -3 Z M205 838 L310 706 L385 706 L490 838 L458 838 L347 767 L237 838 L205 838 Z " />
<glyph glyph-name="ncaron" unicode="&#x148;" horiz-adv-x="585" d="M27 0 L273 0 L273 48 L244 48 C195 50 187 58 187 105 L187 268 C187 319 197 352 223 384 C247 413 280 429 317 429 C383 429 407 390 407 281 L407 105 C407 58 399 50 352 48 L324 48 L324 0 L565 0 L565 48 L546 48 C500 50 492 58 492 105 L492 268 C492 358 487 388 466 423 C442 461 399 482 346 482 C312 482 279 473 252 458 C228 444 212 427 187 388 L187 469 L27 469 L27 421 L52 421 C102 419 110 411 110 364 L110 105 C110 58 102 50 52 48 L27 48 L27 0 Z M150 709 L261 540 L325 540 L436 709 L400 709 L293 614 L186 709 L150 709 Z " />
<glyph glyph-name="Omacron" unicode="&#x14c;" horiz-adv-x="715" d="M358 687 C174 687 36 537 36 339 C36 130 170 -19 358 -19 C543 -19 679 131 679 334 C679 538 543 687 358 687 L358 687 Z M358 632 C487 632 571 514 571 334 C571 154 487 36 358 36 C227 36 144 153 144 338 C144 514 229 632 358 632 L358 632 Z M232 738 L484 738 L484 803 L232 803 L232 738 Z " />
<glyph glyph-name="omacron" unicode="&#x14d;" horiz-adv-x="518" d="M260 486 C198 486 142 463 97 419 C52 375 28 313 28 238 C28 155 49 98 97 50 C140 7 198 -17 260 -17 C321 -17 379 7 422 50 C469 97 491 156 491 234 C491 313 469 373 422 419 C378 463 322 486 260 486 L260 486 Z M259 435 C346 435 394 363 394 234 C394 106 346 34 260 34 C172 34 125 106 125 237 C125 363 174 435 259 435 L259 435 Z M129 585 L391 585 L391 653 L129 653 L129 585 Z " />
<glyph glyph-name="Ohungarumlaut" unicode="&#x150;" horiz-adv-x="715" d="M358 687 C174 687 36 537 36 339 C36 130 170 -19 358 -19 C543 -19 679 131 679 334 C679 538 543 687 358 687 L358 687 Z M358 632 C487 632 571 514 571 334 C571 154 487 36 358 36 C227 36 144 153 144 338 C144 514 229 632 358 632 L358 632 Z M292 706 L384 775 C397 785 405 798 405 811 C405 830 391 844 372 844 C358 844 344 834 333 815 L265 706 L292 706 Z M401 706 L512 774 C527 782 537 797 537 809 C537 828 522 844 504 844 C491 844 476 835 464 819 L374 706 L401 706 Z " />
<glyph glyph-name="ohungarumlaut" unicode="&#x151;" horiz-adv-x="518" d="M260 486 C198 486 142 463 97 419 C52 375 28 313 28 238 C28 155 49 98 97 50 C140 7 198 -17 260 -17 C321 -17 379 7 422 50 C469 97 491 156 491 234 C491 313 469 373 422 419 C378 463 322 486 260 486 L260 486 Z M259 435 C346 435 394 363 394 234 C394 106 346 34 260 34 C172 34 125 106 125 237 C125 363 174 435 259 435 L259 435 Z M166 540 L196 540 L285 634 C304 654 312 668 312 680 C312 699 295 715 277 715 C259 715 244 702 230 673 L166 540 Z M272 540 L301 540 L408 631 C430 651 439 664 439 680 C439 699 424 714 404 714 C387 714 371 702 356 678 L272 540 Z " />
<glyph glyph-name="OE" unicode="&#x152;" horiz-adv-x="1090" d="M1017 667 L627 667 L394 686 C313 686 252 671 197 638 C93 575 36 466 36 333 C36 210 85 109 176 43 C235 1 303 -19 389 -19 C420 -19 450 -17 480 -14 C506 -11 533 -7 560 -4 C584 -1 608 0 631 0 L1017 0 L1017 271 L971 271 C965 88 942 57 811 53 L643 53 L643 323 L702 323 C782 320 792 306 796 178 L840 178 L840 505 L796 505 C795 392 782 374 703 376 L643 376 L643 614 L800 614 C937 613 968 578 971 416 L1017 416 L1017 667 Z M546 126 C546 78 544 70 529 60 C504 44 453 33 405 33 C241 33 144 145 144 333 C144 522 241 634 405 634 C449 634 498 624 524 610 C544 599 546 592 546 541 L546 126 Z " />
<glyph glyph-name="oe" unicode="&#x153;" horiz-adv-x="840" d="M745 154 C732 110 722 92 703 74 C680 52 646 39 611 39 C566 39 528 59 507 95 C488 127 481 157 479 226 L811 226 C807 322 796 366 764 411 C728 461 677 486 608 486 C537 486 496 466 437 401 C380 462 330 486 258 486 C197 486 139 462 96 419 C49 372 27 313 27 234 C27 156 49 97 96 50 C139 7 197 -17 259 -17 C333 -17 382 7 439 73 C459 46 473 31 488 19 C519 -4 564 -17 610 -17 C668 -17 712 1 746 38 C773 67 785 93 798 154 L745 154 Z M264 435 C353 435 403 363 403 234 C403 106 353 34 264 34 C174 34 124 106 124 237 C124 363 175 435 264 435 L264 435 Z M483 279 C488 337 495 362 513 390 C534 421 565 437 607 437 C646 437 677 422 696 394 C714 367 720 340 723 279 L483 279 Z " />
<glyph glyph-name="Racute" unicode="&#x154;" horiz-adv-x="693" d="M322 53 L280 53 C225 55 219 63 220 126 L220 320 L329 320 C425 319 468 275 471 174 L474 92 C477 19 509 -20 564 -20 C642 -20 667 24 669 163 L627 163 C624 66 617 45 591 45 C568 45 562 65 561 140 C561 272 535 315 438 342 C496 353 521 362 547 383 C582 410 599 450 599 502 C599 555 578 601 541 626 C500 654 437 667 338 667 L27 667 L27 614 L62 614 C118 612 124 604 123 541 L123 126 C124 63 118 55 62 53 L27 53 L27 0 L322 0 L322 53 Z M220 373 L220 614 L338 614 C373 614 420 608 437 601 C475 586 498 548 498 499 C498 414 443 373 329 373 L220 373 Z M229 706 L372 770 C395 781 405 793 405 810 C405 830 389 846 370 846 C358 846 343 839 330 827 L194 706 L229 706 Z " />
<glyph glyph-name="racute" unicode="&#x155;" horiz-adv-x="429" d="M288 48 L245 48 C195 49 187 58 187 105 L187 217 C187 273 195 315 212 352 C238 407 272 436 311 436 C334 436 344 430 362 408 C331 408 313 390 313 359 C313 330 335 308 363 308 C394 308 418 338 418 375 C418 438 376 483 316 483 C260 483 221 449 187 372 L187 469 L27 469 L27 421 L52 421 C102 419 110 411 110 364 L110 105 C110 58 102 49 52 48 L27 48 L27 0 L288 0 L288 48 Z M142 540 L178 540 L324 629 C353 647 364 660 364 677 C364 698 347 715 327 715 C312 715 293 704 276 686 L142 540 Z " />
<glyph glyph-name="Rcommaaccent" unicode="&#x156;" horiz-adv-x="693" d="M322 53 L280 53 C225 55 219 63 220 126 L220 320 L329 320 C425 319 468 275 471 174 L474 92 C477 19 509 -20 564 -20 C642 -20 667 24 669 163 L627 163 C624 66 617 45 591 45 C568 45 562 65 561 140 C561 272 535 315 438 342 C496 353 521 362 547 383 C582 410 599 450 599 502 C599 555 578 601 541 626 C500 654 437 667 338 667 L27 667 L27 614 L62 614 C118 612 124 604 123 541 L123 126 C124 63 118 55 62 53 L27 53 L27 0 L322 0 L322 53 Z M220 373 L220 614 L338 614 C373 614 420 608 437 601 C475 586 498 548 498 499 C498 414 443 373 329 373 L220 373 Z M303 -266 C365 -252 409 -198 409 -135 C409 -88 381 -56 339 -56 C309 -56 287 -77 287 -108 C287 -132 307 -152 332 -152 C341 -152 349 -149 365 -141 C367 -186 342 -223 303 -234 L303 -266 Z " />
<glyph glyph-name="rcommaaccent" unicode="&#x157;" horiz-adv-x="429" d="M288 48 L245 48 C195 49 187 58 187 105 L187 217 C187 273 195 315 212 352 C238 407 272 436 311 436 C334 436 344 430 362 408 C331 408 313 390 313 359 C313 330 335 308 363 308 C394 308 418 338 418 375 C418 438 376 483 316 483 C260 483 221 449 187 372 L187 469 L27 469 L27 421 L52 421 C102 419 110 411 110 364 L110 105 C110 58 102 49 52 48 L27 48 L27 0 L288 0 L288 48 Z M107 -266 C170 -252 213 -198 213 -135 C213 -88 185 -56 143 -56 C113 -56 91 -77 91 -108 C91 -132 111 -152 136 -152 C146 -152 154 -149 169 -141 C171 -186 147 -223 107 -234 L107 -266 Z " />
<glyph glyph-name="Rcaron" unicode="&#x158;" horiz-adv-x="693" d="M322 53 L280 53 C225 55 219 63 220 126 L220 320 L329 320 C425 319 468 275 471 174 L474 92 C477 19 509 -20 564 -20 C642 -20 667 24 669 163 L627 163 C624 66 617 45 591 45 C568 45 562 65 561 140 C561 272 535 315 438 342 C496 353 521 362 547 383 C582 410 599 450 599 502 C599 555 578 601 541 626 C500 654 437 667 338 667 L27 667 L27 614 L62 614 C118 612 124 604 123 541 L123 126 C124 63 118 55 62 53 L27 53 L27 0 L322 0 L322 53 Z M220 373 L220 614 L338 614 C373 614 420 608 437 601 C475 586 498 548 498 499 C498 414 443 373 329 373 L220 373 Z M101 838 L207 706 L281 706 L387 838 L355 838 L244 767 L133 838 L101 838 Z " />
<glyph glyph-name="rcaron" unicode="&#x159;" horiz-adv-x="429" d="M288 48 L245 48 C195 49 187 58 187 105 L187 217 C187 273 195 315 212 352 C238 407 272 436 311 436 C334 436 344 430 362 408 C331 408 313 390 313 359 C313 330 335 308 363 308 C394 308 418 338 418 375 C418 438 376 483 316 483 C260 483 221 449 187 372 L187 469 L27 469 L27 421 L52 421 C102 419 110 411 110 364 L110 105 C110 58 102 49 52 48 L27 48 L27 0 L288 0 L288 48 Z M72 709 L182 540 L247 540 L357 709 L322 709 L215 614 L107 709 L72 709 Z " />
<glyph glyph-name="Sacute" unicode="&#x15a;" horiz-adv-x="563" d="M40 0 L85 0 L115 74 C191 1 235 -20 315 -20 C445 -20 536 66 536 189 C536 301 480 355 327 388 L240 407 C163 424 127 460 127 519 C127 585 180 629 260 629 C319 629 372 606 405 565 C432 532 444 498 456 420 L504 420 L504 673 L463 673 L437 612 C363 672 325 687 250 687 C124 687 42 612 42 496 C42 438 61 393 98 364 C129 338 152 330 243 307 L317 289 C411 266 446 233 446 168 C446 93 390 43 306 43 C245 43 190 69 150 118 C117 158 103 194 89 277 L40 277 L40 0 Z M241 706 L384 770 C408 781 418 793 418 810 C418 830 402 846 383 846 C371 846 356 839 343 827 L207 706 L241 706 Z " />
<glyph glyph-name="sacute" unicode="&#x15b;" horiz-adv-x="447" d="M36 -4 L82 -4 L100 46 C152 -1 188 -16 247 -16 C351 -16 416 42 416 134 C416 206 366 256 275 275 L191 292 C150 301 125 327 125 363 C125 406 157 433 208 433 C248 433 283 418 308 390 C329 367 338 344 349 293 L394 293 L394 475 L354 475 L337 433 C285 471 248 485 195 485 C105 485 42 428 42 346 C42 275 95 221 182 202 L263 185 C309 175 334 150 334 114 C334 68 297 38 239 38 C199 38 161 55 132 85 C105 113 94 136 83 192 L36 192 L36 -4 Z M151 540 L187 540 L333 629 C362 647 373 660 373 677 C373 698 356 715 336 715 C321 715 302 704 285 686 L151 540 Z " />
<glyph glyph-name="Scedilla" unicode="&#x15e;" horiz-adv-x="563" d="M288 -19 C298 -20 306 -20 315 -20 C445 -20 536 66 536 189 C536 301 480 355 326 388 L240 407 C163 424 127 460 127 519 C127 585 180 629 260 629 C318 629 372 605 404 565 C431 532 444 498 456 420 L504 420 L504 673 L462 673 L436 612 C362 672 324 687 250 687 C124 687 42 612 42 496 C42 438 61 393 98 364 C129 338 151 330 243 307 L317 289 C411 266 446 233 446 168 C446 93 390 43 305 43 C245 43 190 70 150 118 C117 158 103 194 89 277 L40 277 L40 0 L85 0 L115 74 C179 13 207 -4 257 -14 L257 -101 C270 -96 277 -95 285 -95 C309 -95 324 -111 324 -134 C324 -159 307 -174 279 -174 C250 -174 214 -159 183 -135 L167 -178 C215 -204 258 -217 295 -217 C356 -217 395 -184 395 -133 C395 -89 363 -56 319 -56 C311 -56 300 -57 288 -58 L288 -19 Z " />
<glyph glyph-name="scedilla" unicode="&#x15f;" horiz-adv-x="447" d="M232 -16 L245 -16 C350 -16 416 42 416 134 C416 206 366 256 275 275 L191 292 C150 301 125 327 125 363 C125 406 157 433 207 433 C247 433 282 418 307 390 C328 367 338 344 349 293 L394 293 L394 475 L354 475 L336 433 C285 471 247 485 194 485 C104 485 42 428 42 346 C42 275 94 221 181 202 L262 185 C309 174 334 150 334 114 C334 68 296 38 238 38 C199 38 160 55 131 85 C105 112 94 136 82 192 L36 192 L36 -4 L82 -4 L100 46 C139 10 162 -3 201 -11 L201 -95 C214 -90 220 -89 229 -89 C256 -89 270 -104 270 -132 C270 -160 254 -174 223 -174 C194 -174 160 -160 127 -135 L111 -178 C160 -204 201 -217 239 -217 C302 -217 339 -185 339 -130 C339 -83 308 -50 263 -50 C254 -50 244 -51 232 -52 L232 -16 Z " />
<glyph glyph-name="Scaron" unicode="&#x160;" horiz-adv-x="563" d="M40 0 L85 0 L115 74 C191 1 235 -20 315 -20 C445 -20 536 66 536 189 C536 301 480 355 327 388 L240 407 C163 424 127 460 127 519 C127 585 180 629 260 629 C319 629 372 606 405 565 C432 532 444 498 456 420 L504 420 L504 673 L463 673 L437 612 C363 672 325 687 250 687 C124 687 42 612 42 496 C42 438 61 393 98 364 C129 338 152 330 243 307 L317 289 C411 266 446 233 446 168 C446 93 390 43 306 43 C245 43 190 69 150 118 C117 158 103 194 89 277 L40 277 L40 0 Z M139 838 L244 706 L318 706 L424 838 L392 838 L281 767 L171 838 L139 838 Z " />
<glyph glyph-name="scaron" unicode="&#x161;" horiz-adv-x="447" d="M36 -4 L82 -4 L100 46 C152 -1 188 -16 247 -16 C351 -16 416 42 416 134 C416 206 366 256 275 275 L191 292 C150 301 125 327 125 363 C125 406 157 433 208 433 C248 433 283 418 308 390 C329 367 338 344 349 293 L394 293 L394 475 L354 475 L337 433 C285 471 248 485 195 485 C105 485 42 428 42 346 C42 275 95 221 182 202 L263 185 C309 175 334 150 334 114 C334 68 297 38 239 38 C199 38 161 55 132 85 C105 113 94 136 83 192 L36 192 L36 -4 Z M81 709 L191 540 L256 540 L366 709 L331 709 L224 614 L116 709 L81 709 Z " />
<glyph glyph-name="Tcommaaccent" unicode="&#x162;" horiz-adv-x="599" d="M24 405 L70 405 C75 570 106 612 224 614 L251 614 L251 126 C252 63 246 55 190 53 L136 53 L136 0 L462 0 L462 53 L408 53 C353 55 347 63 348 126 L348 614 L374 614 C492 612 523 569 528 405 L574 405 L574 667 L24 667 L24 405 Z M255 -266 C318 -252 361 -198 361 -135 C361 -88 333 -56 291 -56 C261 -56 239 -77 239 -108 C239 -132 259 -152 284 -152 C294 -152 302 -149 317 -141 C320 -186 295 -223 255 -234 L255 -266 Z " />
<glyph glyph-name="tcommaaccent" unicode="&#x163;" horiz-adv-x="362" d="M88 420 L88 95 C88 27 129 -17 194 -17 C243 -17 283 8 298 50 C309 80 312 104 315 192 L274 192 C273 135 270 103 263 80 C256 56 235 41 209 41 C178 41 165 58 165 95 L165 420 L294 420 L294 469 L165 469 L165 655 L123 655 C112 528 82 477 13 469 L13 420 L88 420 Z M104 -266 C166 -252 210 -198 210 -135 C210 -88 181 -56 140 -56 C109 -56 87 -77 87 -108 C87 -132 107 -152 132 -152 C142 -152 150 -149 166 -141 C168 -186 143 -223 104 -234 L104 -266 Z " />
<glyph glyph-name="Tcaron" unicode="&#x164;" horiz-adv-x="599" d="M24 405 L70 405 C75 570 106 612 224 614 L251 614 L251 126 C252 63 246 55 190 53 L136 53 L136 0 L462 0 L462 53 L408 53 C353 55 347 63 348 126 L348 614 L374 614 C492 612 523 569 528 405 L574 405 L574 667 L24 667 L24 405 Z M156 838 L262 706 L336 706 L442 838 L410 838 L299 767 L188 838 L156 838 Z " />
<glyph glyph-name="tcaron" unicode="&#x165;" horiz-adv-x="362" d="M88 420 L88 95 C88 27 129 -17 194 -17 C243 -17 283 8 298 50 C309 80 312 104 315 192 L274 192 C273 135 270 103 263 80 C256 56 235 41 209 41 C178 41 165 58 165 95 L165 420 L294 420 L294 469 L165 469 L165 655 L123 655 C112 528 82 477 13 469 L13 420 L88 420 Z M266 532 C328 545 372 599 372 662 C372 709 344 741 302 741 C272 741 250 720 250 690 C250 665 270 646 295 646 C305 646 312 648 328 657 C330 612 305 574 266 564 L266 532 Z " />
<glyph glyph-name="Umacron" unicode="&#x16a;" horiz-adv-x="684" d="M27 614 L54 614 C109 612 115 604 114 541 L114 209 C114 125 136 68 183 30 C223 -3 279 -20 343 -20 C416 -20 474 2 515 43 C557 87 575 147 575 244 L575 541 C574 604 580 612 636 614 L662 614 L662 667 L404 667 L404 614 L447 614 C503 612 509 604 508 541 L508 244 C508 163 498 122 471 91 C447 63 404 47 355 47 C257 47 211 99 211 209 L211 541 C210 604 216 612 272 614 L314 614 L314 667 L27 667 L27 614 Z M216 738 L468 738 L468 803 L216 803 L216 738 Z " />
<glyph glyph-name="umacron" unicode="&#x16b;" horiz-adv-x="581" d="M22 421 L44 421 C99 419 108 411 108 364 L108 201 C108 112 113 81 133 46 C154 9 195 -13 245 -13 C312 -13 353 13 394 81 L394 0 L560 0 L560 48 L535 48 C487 50 479 58 479 105 L479 469 L292 469 L292 421 L330 421 C385 419 394 411 394 364 L394 201 C394 105 346 40 275 40 C214 40 193 79 193 188 L193 469 L22 469 L22 421 Z M159 585 L421 585 L421 653 L159 653 L159 585 Z " />
<glyph glyph-name="Uring" unicode="&#x16e;" horiz-adv-x="684" d="M27 614 L54 614 C109 612 115 604 114 541 L114 209 C114 125 136 68 183 30 C223 -3 279 -20 343 -20 C416 -20 474 2 515 43 C557 87 575 147 575 244 L575 541 C574 604 580 612 636 614 L662 614 L662 667 L404 667 L404 614 L447 614 C503 612 509 604 508 541 L508 244 C508 163 498 122 471 91 C447 63 404 47 355 47 C257 47 211 99 211 209 L211 541 C210 604 216 612 272 614 L314 614 L314 667 L27 667 L27 614 Z M342 893 C290 893 246 851 246 800 C246 745 289 701 343 701 C395 701 438 745 438 798 C438 851 395 893 342 893 L342 893 Z M342 848 C370 848 393 825 393 797 C393 770 370 746 342 746 C313 746 291 769 291 799 C291 826 314 848 342 848 L342 848 Z " />
<glyph glyph-name="uring" unicode="&#x16f;" horiz-adv-x="581" d="M22 421 L44 421 C99 419 108 411 108 364 L108 201 C108 112 113 81 133 46 C154 9 195 -13 245 -13 C312 -13 353 13 394 81 L394 0 L560 0 L560 48 L535 48 C487 50 479 58 479 105 L479 469 L292 469 L292 421 L330 421 C385 419 394 411 394 364 L394 201 C394 105 346 40 275 40 C214 40 193 79 193 188 L193 469 L22 469 L22 421 Z M267 759 C202 759 147 706 147 642 C147 572 200 519 268 519 C334 519 387 573 387 639 C387 705 333 759 267 759 L267 759 Z M267 708 C304 708 335 677 335 639 C335 601 304 570 267 570 C229 570 198 601 198 641 C198 677 230 708 267 708 L267 708 Z " />
<glyph glyph-name="Uhungarumlaut" unicode="&#x170;" horiz-adv-x="684" d="M27 614 L54 614 C109 612 115 604 114 541 L114 209 C114 125 136 68 183 30 C223 -3 279 -20 343 -20 C416 -20 474 2 515 43 C557 87 575 147 575 244 L575 541 C574 604 580 612 636 614 L662 614 L662 667 L404 667 L404 614 L447 614 C503 612 509 604 508 541 L508 244 C508 163 498 122 471 91 C447 63 404 47 355 47 C257 47 211 99 211 209 L211 541 C210 604 216 612 272 614 L314 614 L314 667 L27 667 L27 614 Z M276 706 L369 775 C381 785 389 798 389 811 C389 830 375 844 356 844 C342 844 329 835 317 815 L249 706 L276 706 Z M385 706 L497 774 C511 782 521 797 521 809 C521 828 506 844 488 844 C475 844 460 835 448 819 L358 706 L385 706 Z " />
<glyph glyph-name="uhungarumlaut" unicode="&#x171;" horiz-adv-x="581" d="M22 421 L44 421 C99 419 108 411 108 364 L108 201 C108 112 113 81 133 46 C154 9 195 -13 245 -13 C312 -13 353 13 394 81 L394 0 L560 0 L560 48 L535 48 C487 50 479 58 479 105 L479 469 L292 469 L292 421 L330 421 C385 419 394 411 394 364 L394 201 C394 105 346 40 275 40 C214 40 193 79 193 188 L193 469 L22 469 L22 421 Z M197 540 L226 540 L316 634 C336 655 343 667 343 680 C343 699 326 715 307 715 C289 715 274 701 261 673 L197 540 Z M303 540 L332 540 L439 631 C462 651 470 664 470 680 C470 699 455 714 435 714 C418 714 401 702 387 678 L303 540 Z " />
<glyph glyph-name="Uogonek" unicode="&#x172;" horiz-adv-x="684" d="M662 614 L662 667 L404 667 L404 614 L447 614 C503 612 509 604 508 541 L508 244 C508 163 498 122 471 91 C447 63 404 47 355 47 C257 47 211 99 211 209 L211 541 C210 604 216 612 272 614 L314 614 L314 667 L27 667 L27 614 L54 614 C109 612 115 604 114 541 L114 209 C114 125 136 68 183 30 C223 -3 279 -20 343 -20 C352 -20 358 -20 366 -19 C321 -61 298 -102 298 -142 C298 -187 326 -217 368 -217 C408 -217 441 -190 463 -141 L450 -133 C435 -158 421 -168 401 -168 C378 -168 364 -146 364 -111 C364 -93 368 -75 376 -60 C388 -34 402 -23 444 -3 C543 44 572 100 575 244 L575 541 C574 604 580 612 636 614 L662 614 Z " />
<glyph glyph-name="uogonek" unicode="&#x173;" horiz-adv-x="581" d="M560 0 L560 48 L535 48 C487 50 479 58 479 105 L479 469 L292 469 L292 421 L330 421 C385 419 394 411 394 364 L394 201 C394 105 346 40 275 40 C214 40 193 79 193 188 L193 469 L22 469 L22 421 L44 421 C99 419 108 411 108 364 L108 201 C108 112 113 81 133 46 C154 8 195 -13 245 -13 C312 -13 353 13 394 81 L394 0 L469 0 C409 -47 379 -96 379 -143 C379 -188 406 -217 448 -217 C488 -217 522 -190 543 -141 L530 -133 C515 -158 501 -168 481 -168 C457 -168 443 -146 443 -111 C443 -75 462 -35 496 0 L560 0 Z " />
<glyph glyph-name="Ydieresis" unicode="&#x178;" horiz-adv-x="572" d="M235 263 L235 126 C236 63 230 55 174 53 L120 53 L120 0 L446 0 L446 53 L390 53 C337 55 331 63 332 126 L332 263 L476 532 C514 598 533 614 570 614 L591 614 L591 667 L348 667 L348 614 L408 614 C427 614 439 607 439 596 C439 588 435 576 429 564 L301 331 L175 555 C167 568 162 583 162 594 C162 607 173 614 193 614 L253 614 L253 667 L-22 667 L-22 614 L4 614 C34 613 59 592 82 550 L235 263 Z M206 821 C179 821 155 798 155 771 C155 742 177 720 206 720 C235 720 257 742 257 770 C257 797 234 821 206 821 L206 821 Z M367 821 C340 821 316 798 316 771 C316 742 338 720 367 720 C396 720 418 742 418 770 C418 797 395 821 367 821 L367 821 Z " />
<glyph glyph-name="Zacute" unicode="&#x179;" horiz-adv-x="554" d="M22 0 L510 0 L510 287 L462 287 C453 88 433 59 299 53 L127 53 L510 611 L510 667 L39 667 L39 403 L86 403 C92 577 119 615 236 614 L407 614 L22 54 L22 0 Z M237 706 L380 770 C403 781 413 793 413 810 C413 830 397 846 378 846 C366 846 351 839 338 827 L202 706 L237 706 Z " />
<glyph glyph-name="zacute" unicode="&#x17a;" horiz-adv-x="447" d="M22 0 L412 0 L412 212 L369 212 C362 65 350 51 233 50 L118 50 L404 420 L404 469 L36 469 L36 272 L79 272 C87 405 102 423 202 420 L309 420 L22 50 L22 0 Z M150 540 L187 540 L332 629 C363 648 373 660 373 677 C373 698 356 715 336 715 C321 715 301 704 284 686 L150 540 Z " />
<glyph glyph-name="Zdotaccent" unicode="&#x17b;" horiz-adv-x="554" d="M22 0 L510 0 L510 287 L462 287 C453 88 433 59 299 53 L127 53 L510 611 L510 667 L39 667 L39 403 L86 403 C92 577 119 615 236 614 L407 614 L22 54 L22 0 Z M277 824 C248 824 223 799 223 771 C223 740 246 717 277 717 C306 717 330 741 330 770 C330 799 306 824 277 824 L277 824 Z " />
<glyph glyph-name="zdotaccent" unicode="&#x17c;" horiz-adv-x="447" d="M22 0 L412 0 L412 212 L369 212 C362 65 350 51 233 50 L118 50 L404 420 L404 469 L36 469 L36 272 L79 272 C87 405 102 423 202 420 L309 420 L22 50 L22 0 Z M224 677 C193 677 166 650 166 620 C166 587 191 562 224 562 C256 562 281 587 281 618 C281 650 254 677 224 677 L224 677 Z " />
<glyph glyph-name="Zcaron" unicode="&#x17d;" horiz-adv-x="554" d="M22 0 L510 0 L510 287 L462 287 C453 88 433 59 299 53 L127 53 L510 611 L510 667 L39 667 L39 403 L86 403 C92 577 119 615 236 614 L407 614 L22 54 L22 0 Z M134 838 L240 706 L314 706 L419 838 L387 838 L277 767 L166 838 L134 838 Z " />
<glyph glyph-name="zcaron" unicode="&#x17e;" horiz-adv-x="447" d="M22 0 L412 0 L412 212 L369 212 C362 65 350 51 233 50 L118 50 L404 420 L404 469 L36 469 L36 272 L79 272 C87 405 102 423 202 420 L309 420 L22 50 L22 0 Z M80 709 L191 540 L255 540 L366 709 L330 709 L223 614 L116 709 L80 709 Z " />
<glyph glyph-name="florin" unicode="&#x192;" horiz-adv-x="547" d="M246 420 L193 45 C185 -4 182 -24 177 -39 C164 -83 138 -104 100 -104 C76 -104 65 -99 44 -79 C71 -71 86 -53 86 -28 C86 -3 70 13 45 13 C12 13 -12 -17 -12 -59 C-12 -114 33 -149 103 -149 C194 -149 249 -94 264 13 L323 420 L423 420 L430 469 L330 469 L335 506 C342 555 348 579 358 600 C371 624 396 639 425 639 C450 639 460 634 481 614 C454 606 439 588 439 562 C439 538 456 521 480 521 C513 521 538 551 538 593 C538 648 493 684 423 684 C380 684 343 670 316 645 C285 616 269 579 259 509 L253 469 L170 469 L163 420 L246 420 Z " />
<glyph glyph-name="uni01D3" unicode="&#x1d3;" horiz-adv-x="684" d="M27 614 L54 614 C109 612 115 604 114 541 L114 209 C114 125 136 68 183 30 C223 -3 279 -20 343 -20 C416 -20 474 2 515 43 C557 87 575 147 575 244 L575 541 C574 604 580 612 636 614 L662 614 L662 667 L404 667 L404 614 L447 614 C503 612 509 604 508 541 L508 244 C508 163 498 122 471 91 C447 63 404 47 355 47 C257 47 211 99 211 209 L211 541 C210 604 216 612 272 614 L314 614 L314 667 L27 667 L27 614 Z M199 838 L305 706 L379 706 L485 838 L453 838 L342 767 L231 838 L199 838 Z " />
<glyph glyph-name="Scommaaccent" unicode="&#x218;" horiz-adv-x="563" d="M40 0 L85 0 L115 74 C191 1 235 -20 315 -20 C445 -20 536 66 536 189 C536 301 480 355 327 388 L240 407 C163 424 127 460 127 519 C127 585 180 629 260 629 C319 629 372 606 405 565 C432 532 444 498 456 420 L504 420 L504 673 L463 673 L437 612 C363 672 325 687 250 687 C124 687 42 612 42 496 C42 438 61 393 98 364 C129 338 152 330 243 307 L317 289 C411 266 446 233 446 168 C446 93 390 43 306 43 C245 43 190 69 150 118 C117 158 103 194 89 277 L40 277 L40 0 Z M236 -266 C299 -252 342 -198 342 -135 C342 -88 314 -56 272 -56 C242 -56 220 -77 220 -108 C220 -132 240 -152 265 -152 C275 -152 283 -149 298 -141 C301 -186 276 -223 236 -234 L236 -266 Z " />
<glyph glyph-name="scommaaccent" unicode="&#x219;" horiz-adv-x="447" d="M36 -4 L82 -4 L100 46 C152 -1 188 -16 247 -16 C351 -16 416 42 416 134 C416 206 366 256 275 275 L191 292 C150 301 125 327 125 363 C125 406 157 433 208 433 C248 433 283 418 308 390 C329 367 338 344 349 293 L394 293 L394 475 L354 475 L337 433 C285 471 248 485 195 485 C105 485 42 428 42 346 C42 275 95 221 182 202 L263 185 C309 175 334 150 334 114 C334 68 297 38 239 38 C199 38 161 55 132 85 C105 113 94 136 83 192 L36 192 L36 -4 Z M180 -266 C243 -252 286 -198 286 -135 C286 -88 258 -56 216 -56 C186 -56 164 -77 164 -108 C164 -132 184 -152 209 -152 C219 -152 226 -149 242 -141 C244 -186 219 -223 180 -234 L180 -266 Z " />
<glyph glyph-name="uni021A" unicode="&#x21a;" horiz-adv-x="599" d="M24 405 L70 405 C75 570 106 612 224 614 L251 614 L251 126 C252 63 246 55 190 53 L136 53 L136 0 L462 0 L462 53 L408 53 C353 55 347 63 348 126 L348 614 L374 614 C492 612 523 569 528 405 L574 405 L574 667 L24 667 L24 405 Z M255 -266 C318 -252 361 -198 361 -135 C361 -88 333 -56 291 -56 C261 -56 239 -77 239 -108 C239 -132 259 -152 284 -152 C294 -152 302 -149 317 -141 C320 -186 295 -223 255 -234 L255 -266 Z " />
<glyph glyph-name="uni021B" unicode="&#x21b;" horiz-adv-x="362" d="M88 420 L88 95 C88 27 129 -17 194 -17 C243 -17 283 8 298 50 C309 80 312 104 315 192 L274 192 C273 135 270 103 263 80 C256 56 235 41 209 41 C178 41 165 58 165 95 L165 420 L294 420 L294 469 L165 469 L165 655 L123 655 C112 528 82 477 13 469 L13 420 L88 420 Z M104 -266 C166 -252 210 -198 210 -135 C210 -88 181 -56 140 -56 C109 -56 87 -77 87 -108 C87 -132 107 -152 132 -152 C142 -152 150 -149 166 -141 C168 -186 143 -223 104 -234 L104 -266 Z " />
<glyph glyph-name="afii57929" unicode="&#x2bc;" horiz-adv-x="206" d="M31 445 C78 455 100 466 122 494 C144 521 157 558 157 597 C157 651 129 687 87 687 C56 687 35 664 35 630 C35 601 54 580 80 580 C92 580 100 583 115 594 L115 578 C115 556 110 538 97 520 C82 497 66 487 31 480 L31 445 Z " />
<glyph glyph-name="circumflex" unicode="&#x2c6;" horiz-adv-x="479" d="M96 540 L131 540 L239 635 L346 540 L382 540 L271 709 L206 709 L96 540 Z " />
<glyph glyph-name="caron" unicode="&#x2c7;" horiz-adv-x="479" d="M96 709 L206 540 L271 540 L382 709 L346 709 L239 614 L131 709 L96 709 Z " />
<glyph glyph-name="uni02C9" unicode="&#x2c9;" horiz-adv-x="476" d="M107 585 L369 585 L369 653 L107 653 L107 585 Z " />
<glyph glyph-name="breve" unicode="&#x2d8;" horiz-adv-x="479" d="M94 692 C104 641 114 619 135 597 C161 571 197 557 239 557 C282 557 319 571 344 597 C365 618 375 641 385 692 L353 692 C338 644 310 628 239 628 C170 628 142 643 125 692 L94 692 Z " />
<glyph glyph-name="dotaccent" unicode="&#x2d9;" horiz-adv-x="461" d="M231 677 C200 677 173 650 173 620 C173 587 198 562 231 562 C263 562 288 587 288 618 C288 650 261 677 231 677 L231 677 Z " />
<glyph glyph-name="ring" unicode="&#x2da;" horiz-adv-x="474" d="M214 759 C149 759 94 706 94 642 C94 572 147 519 215 519 C281 519 334 573 334 639 C334 705 280 759 214 759 L214 759 Z M214 708 C251 708 282 677 282 639 C282 601 251 570 214 570 C176 570 145 601 145 641 C145 677 177 708 214 708 L214 708 Z " />
<glyph glyph-name="ogonek" unicode="&#x2db;" horiz-adv-x="450" d="M255 17 C179 -36 141 -90 141 -142 C141 -188 168 -217 210 -217 C250 -217 284 -190 306 -141 L293 -133 C277 -158 263 -168 243 -168 C219 -168 205 -146 205 -111 C205 -69 226 -30 275 17 L255 17 Z " />
<glyph glyph-name="tilde" unicode="&#x2dc;" horiz-adv-x="477" d="M348 694 C339 662 328 652 303 652 C296 652 288 653 281 655 L229 668 C217 671 207 672 195 672 C173 672 155 663 139 646 C121 627 112 606 102 560 L130 560 C140 591 153 604 174 604 C181 604 193 602 205 599 L257 586 C266 584 275 583 282 583 C331 583 358 615 376 694 L348 694 Z " />
<glyph glyph-name="hungarumlaut" unicode="&#x2dd;" horiz-adv-x="466" d="M140 540 L169 540 L259 634 C279 655 286 667 286 680 C286 699 269 715 250 715 C232 715 217 701 204 673 L140 540 Z M246 540 L275 540 L382 631 C405 651 413 664 413 680 C413 699 398 714 378 714 C361 714 344 702 330 678 L246 540 Z " />
<glyph glyph-name="uni2011" unicode="&#x2011;" horiz-adv-x="233" d="M0 201 L233 201 L233 275 L0 275 L0 201 Z " />
<glyph glyph-name="figuredash" unicode="&#x2012;" horiz-adv-x="493" d="M31 209 L463 209 L463 266 L31 266 L31 209 Z " />
<glyph glyph-name="endash" unicode="&#x2013;" horiz-adv-x="493" d="M31 209 L463 209 L463 266 L31 266 L31 209 Z " />
<glyph glyph-name="emdash" unicode="&#x2014;" horiz-adv-x="625" d="M0 209 L625 209 L625 266 L0 266 L0 209 Z " />
<glyph glyph-name="afii00208" unicode="&#x2015;" horiz-adv-x="625" d="M0 209 L625 209 L625 266 L0 266 L0 209 Z " />
<glyph glyph-name="quoteleft" unicode="&#x2018;" horiz-adv-x="206" d="M175 687 C130 683 109 673 84 643 C62 616 49 578 49 540 C49 486 77 450 119 450 C150 450 171 472 171 506 C171 536 153 556 126 556 C114 556 106 553 92 542 C91 549 91 555 91 558 C91 581 96 598 109 617 C124 640 141 650 175 657 L175 687 Z " />
<glyph glyph-name="quoteright" unicode="&#x2019;" horiz-adv-x="206" d="M31 445 C78 455 100 466 122 494 C144 521 157 558 157 597 C157 651 129 687 87 687 C56 687 35 664 35 630 C35 601 54 580 80 580 C92 580 100 583 115 594 L115 578 C115 556 110 538 97 520 C82 497 66 487 31 480 L31 445 Z " />
<glyph glyph-name="quotesinglbase" unicode="&#x201a;" horiz-adv-x="206" d="M31 -146 C78 -136 100 -125 122 -98 C144 -71 157 -33 157 5 C157 59 129 95 87 95 C56 95 35 73 35 39 C35 10 54 -11 80 -11 C92 -11 100 -8 115 3 L115 -13 C115 -36 110 -53 97 -72 C82 -95 66 -104 31 -111 L31 -146 Z " />
<glyph glyph-name="quotedblleft" unicode="&#x201c;" horiz-adv-x="393" d="M361 687 C314 676 292 665 270 638 C248 611 235 573 235 534 C235 481 264 445 305 445 C336 445 357 467 357 501 C357 530 338 551 312 551 C300 551 292 548 277 537 L277 553 C277 576 282 594 295 612 C310 635 326 645 361 652 L361 687 Z M175 687 C128 676 106 665 84 638 C62 611 49 573 49 534 C49 481 77 445 119 445 C150 445 171 467 171 501 C171 531 153 551 126 551 C114 551 106 548 91 537 L91 553 C91 576 96 593 109 612 C124 635 140 645 175 652 L175 687 Z " />
<glyph glyph-name="quotedblright" unicode="&#x201d;" horiz-adv-x="393" d="M31 445 C78 455 100 466 122 494 C144 521 157 558 157 597 C157 651 129 687 87 687 C56 687 35 664 35 630 C35 601 54 580 80 580 C92 580 100 583 115 594 L115 578 C115 556 110 538 97 520 C82 497 66 487 31 480 L31 445 Z M217 445 C264 455 286 466 308 494 C330 521 343 558 343 597 C343 651 315 687 273 687 C242 687 221 664 221 630 C221 601 240 580 266 580 C278 580 286 583 301 594 L301 579 C301 525 272 491 217 480 L217 445 Z " />
<glyph glyph-name="quotedblbase" unicode="&#x201e;" horiz-adv-x="393" d="M31 -146 C79 -136 100 -125 122 -98 C144 -71 157 -33 157 6 C157 59 129 95 87 95 C56 95 35 73 35 39 C35 9 54 -11 80 -11 C92 -11 100 -8 115 3 L115 -13 C115 -36 110 -53 97 -72 C82 -95 66 -104 31 -111 L31 -146 Z M217 -146 C265 -136 286 -125 308 -98 C330 -71 343 -33 343 5 C343 59 315 95 273 95 C242 95 221 73 221 39 C221 10 240 -11 266 -11 C278 -11 286 -8 301 3 L301 -12 C301 -66 272 -100 217 -111 L217 -146 Z " />
<glyph glyph-name="dagger" unicode="&#x2020;" horiz-adv-x="532" d="M244 366 C244 186 238 22 228 -60 C222 -112 220 -134 220 -145 C220 -189 236 -214 264 -214 C291 -214 308 -189 308 -147 C308 -133 306 -113 300 -60 C289 36 285 153 284 366 C318 365 334 363 358 358 C419 344 420 344 437 344 C464 344 479 359 479 384 C479 409 464 424 437 424 C427 424 411 422 399 419 C331 403 330 403 284 401 C286 468 288 503 293 532 C305 609 305 610 305 628 C305 665 289 687 264 687 C239 687 223 665 223 628 C223 617 225 599 227 583 C240 501 241 495 244 401 C210 402 196 404 170 410 C109 424 108 424 91 424 C64 424 49 409 49 384 C49 359 64 344 91 344 C101 344 117 346 129 349 C196 364 198 364 244 366 L244 366 Z " />
<glyph glyph-name="daggerdbl" unicode="&#x2021;" horiz-adv-x="532" d="M218 236 C239 192 244 160 244 82 C210 83 194 85 170 90 C109 104 108 104 91 104 C64 104 49 89 49 64 C49 39 64 24 91 24 C101 24 117 26 129 29 C197 45 198 45 244 46 C243 -3 241 -20 235 -60 C223 -136 223 -138 223 -155 C223 -192 239 -214 264 -214 C289 -214 305 -192 305 -155 C305 -144 303 -126 301 -110 C286 -19 286 -15 284 46 C318 46 333 44 358 38 C419 24 419 24 437 24 C464 24 479 39 479 64 C479 89 464 104 437 104 C427 104 411 102 399 99 C333 84 331 84 284 82 C283 94 283 104 283 110 C283 159 290 193 310 236 C290 279 283 313 283 362 C283 369 283 378 284 390 C318 390 334 388 358 382 C419 368 420 368 437 368 C464 368 479 383 479 408 C479 433 464 448 437 448 C427 448 411 446 399 443 C332 428 331 428 284 426 C285 475 287 492 293 532 C305 609 305 610 305 628 C305 665 289 687 264 687 C239 687 223 664 223 628 C223 617 225 599 227 583 C242 491 242 488 244 426 C210 427 195 429 170 434 C109 448 108 448 91 448 C64 448 49 433 49 408 C49 383 64 368 91 368 C101 368 117 370 129 373 C196 389 198 389 244 390 C244 312 239 280 218 236 L218 236 Z " />
<glyph glyph-name="bullet" unicode="&#x2022;" horiz-adv-x="600" d="M301 480 C231 480 176 418 176 340 C176 262 231 200 300 200 C368 200 423 263 423 340 C423 417 368 480 301 480 L301 480 Z " />
<glyph glyph-name="ellipsis" unicode="&#x2026;" horiz-adv-x="754" d="M126 95 C98 95 75 70 75 40 C75 8 97 -17 125 -17 C153 -17 176 8 176 39 C176 70 153 95 126 95 L126 95 Z M377 95 C349 95 326 70 326 40 C326 8 349 -17 377 -17 C405 -17 428 8 428 39 C428 70 405 95 377 95 L377 95 Z M629 95 C601 95 578 70 578 40 C578 8 600 -17 628 -17 C656 -17 679 8 679 39 C679 70 656 95 629 95 L629 95 Z " />
<glyph glyph-name="perthousand" unicode="&#x2030;" horiz-adv-x="1251" d="M199 622 C102 622 31 543 31 433 C31 317 100 238 200 238 C298 238 367 318 367 430 C367 543 298 622 199 622 L199 622 Z M200 571 C249 571 281 515 281 430 C281 344 249 289 199 289 C150 289 117 345 117 430 C117 517 149 571 200 571 L200 571 Z M291 -17 L626 622 L571 622 L235 -17 L291 -17 Z M663 366 C566 366 495 287 495 177 C495 62 564 -17 664 -17 C762 -17 831 63 831 175 C831 287 762 366 663 366 L663 366 Z M664 315 C713 315 745 259 745 175 C745 89 713 34 663 34 C614 34 581 90 581 174 C581 261 613 315 664 315 L664 315 Z M1056 366 C959 366 888 287 888 177 C888 62 957 -17 1057 -17 C1155 -17 1224 63 1224 175 C1224 287 1155 366 1056 366 L1056 366 Z M1057 315 C1106 315 1138 259 1138 175 C1138 89 1106 34 1056 34 C1007 34 974 90 974 174 C974 261 1006 315 1057 315 L1057 315 Z " />
<glyph glyph-name="guilsinglleft" unicode="&#x2039;" horiz-adv-x="259" d="M150 72 L196 72 L148 182 C145 188 140 224 140 238 C140 251 145 287 148 293 L196 403 L150 403 L107 333 C66 270 63 263 63 237 C63 212 66 205 107 142 L150 72 Z " />
<glyph glyph-name="guilsinglright" unicode="&#x203a;" horiz-adv-x="259" d="M109 72 L153 142 C193 205 196 212 196 237 C196 263 193 270 153 333 L109 403 L63 403 L111 293 C114 287 119 251 119 238 C119 224 114 188 111 182 L63 72 L109 72 Z " />
<glyph glyph-name="uni203E" unicode="&#x203e;" horiz-adv-x="501" d="M0 787 L0 731 L500 731 L500 787 L0 787 Z " />
<glyph glyph-name="fraction" unicode="&#x2044;" horiz-adv-x="148" d="M-147 -17 L-91 -17 L300 622 L244 622 L-147 -17 Z " />
<glyph glyph-name="Euro" unicode="&#x20ac;" horiz-adv-x="678" d="M207 399 C226 540 303 631 403 631 C460 631 513 602 550 550 C577 511 588 479 596 408 L642 408 L642 667 L601 667 L578 607 C502 669 459 687 391 687 C243 687 127 572 99 399 L48 399 L31 355 L95 355 C94 343 94 337 94 333 C94 330 94 326 95 311 L48 311 L31 267 L99 267 C106 217 119 176 140 136 C196 33 282 -20 395 -20 C483 -20 549 10 592 69 C625 114 638 153 647 243 L594 243 C583 173 574 144 550 110 C519 65 470 41 411 41 C301 41 228 122 207 267 L446 267 L462 311 L203 311 C202 320 202 326 202 334 C202 341 202 347 203 355 L479 355 L496 399 L207 399 Z " />
<glyph glyph-name="trademark" unicode="&#x2122;" horiz-adv-x="869" d="M14 513 L48 513 C51 606 67 628 135 629 L147 629 L147 361 C147 328 145 325 115 324 L80 324 L80 286 L280 286 L280 324 L245 324 C214 325 212 328 212 361 L212 629 L224 629 C293 628 309 607 312 513 L346 513 L346 667 L14 667 L14 513 Z M376 629 L399 629 C430 628 433 626 432 593 L432 361 C433 328 431 326 399 325 L376 325 L376 287 L538 287 L538 325 L512 325 C480 326 479 328 479 361 L479 605 L595 287 L620 287 L735 598 L735 361 C735 328 733 326 703 325 L676 325 L676 287 L855 287 L855 325 L831 325 C800 326 798 328 799 361 L799 593 C798 626 801 628 831 629 L855 629 L855 667 L723 667 L617 382 L512 667 L376 667 L376 629 Z " />
<glyph glyph-name="uni2126" unicode="&#x2126;" horiz-adv-x="768" d="M326 0 L308 155 C230 199 180 288 180 382 C180 434 195 493 221 540 C257 605 317 642 385 642 C453 642 513 605 549 540 C575 493 590 434 590 382 C590 288 540 199 462 155 L444 0 L736 0 L736 153 L712 153 C704 108 684 90 643 90 L497 90 L500 128 C535 141 557 151 580 166 C657 215 702 296 702 382 C702 449 673 522 625 578 C564 648 480 686 385 686 C290 686 206 648 145 578 C97 522 68 449 68 382 C68 296 113 215 190 166 C213 151 235 141 270 128 L273 90 L127 90 C86 90 66 108 58 153 L34 153 L34 0 L326 0 Z " />
<glyph glyph-name="partialdiff" unicode="&#x2202;" horiz-adv-x="494" d="M107 674 C152 697 184 706 219 706 C321 706 379 611 379 447 C379 418 377 394 372 346 C308 396 272 412 221 412 C172 412 131 394 95 355 C51 309 26 246 26 184 C26 76 109 -10 213 -10 C282 -10 341 22 383 84 C429 152 462 286 462 403 C462 519 428 611 360 681 C312 730 259 753 195 753 C155 753 122 746 66 725 L107 674 Z M366 312 C350 201 340 158 314 107 C288 54 245 21 201 21 C146 21 113 73 113 159 C113 273 180 367 261 367 C299 367 324 354 366 312 L366 312 Z " />
<glyph glyph-name="Delta" unicode="&#x2206;" horiz-adv-x="612" d="M6 0 L608 0 L327 688 L6 0 Z M77 51 L290 509 L479 51 L77 51 Z " />
<glyph glyph-name="product" unicode="&#x220f;" horiz-adv-x="823" d="M25 -124 L315 -124 L315 -98 L312 -98 C242 -94 221 -67 224 18 L224 594 C224 656 228 677 242 690 C260 707 272 708 413 708 C556 708 568 707 586 690 C600 677 604 656 604 594 L604 18 C607 -67 586 -94 516 -98 L513 -98 L513 -124 L803 -124 L803 -98 L800 -98 C730 -94 709 -67 712 18 L712 609 C709 694 730 721 800 725 L803 725 L803 751 L25 751 L25 725 L28 725 C98 721 119 694 116 609 L116 18 C119 -67 98 -94 28 -98 L25 -98 L25 -124 Z " />
<glyph glyph-name="summation" unicode="&#x2211;" horiz-adv-x="713" d="M176 711 L444 711 C560 710 590 688 606 587 L632 587 L622 752 L23 752 L256 285 L14 -123 L641 -123 L695 87 L669 87 C639 7 605 -12 491 -11 L163 -11 L364 341 L176 711 Z " />
<glyph glyph-name="minus" unicode="&#x2212;" horiz-adv-x="456" d="M47 342 L47 276 L409 276 L409 342 L47 342 Z " />
<glyph glyph-name="uni2215" unicode="&#x2215;" horiz-adv-x="148" d="M-147 -17 L-91 -17 L300 622 L244 622 L-147 -17 Z " />
<glyph glyph-name="uni2219" unicode="&#x2219;" horiz-adv-x="273" d="M136 291 C108 291 85 266 85 236 C85 204 107 178 135 178 C163 178 186 203 186 235 C186 266 163 291 136 291 L136 291 Z " />
<glyph glyph-name="radical" unicode="&#x221a;" horiz-adv-x="549" d="M363 -35 L515 908 L480 913 L353 123 L156 520 L10 449 L26 414 L121 461 L363 -35 Z " />
<glyph glyph-name="infinity" unicode="&#x221e;" horiz-adv-x="713" d="M357 227 C415 156 485 115 548 115 C631 115 688 176 688 266 C688 354 629 414 543 414 C476 414 412 376 357 303 C300 375 234 414 171 414 C86 414 26 351 26 263 C26 176 84 115 167 115 C224 115 281 142 327 192 L357 227 Z M391 264 C434 325 493 362 546 362 C600 362 638 321 638 264 C638 205 603 167 549 167 C495 167 461 188 391 264 L391 264 Z M324 266 C275 203 216 167 163 167 C111 167 76 207 76 266 C76 323 113 362 167 362 C218 362 258 337 324 266 L324 266 Z " />
<glyph glyph-name="integral" unicode="&#x222b;" horiz-adv-x="274" d="M180 576 C180 653 179 691 176 746 C174 774 173 800 173 815 C173 855 184 878 202 878 C208 878 213 876 215 872 C232 845 239 839 256 839 C276 839 291 853 291 871 C291 898 267 916 231 916 C186 916 152 887 138 838 C123 784 113 682 113 577 L113 232 C113 160 114 124 117 63 C119 34 120 4 120 -12 C120 -47 108 -70 89 -70 C81 -70 74 -65 68 -52 C59 -35 51 -30 37 -30 C17 -30 2 -44 2 -63 C2 -89 26 -107 62 -107 C107 -107 141 -78 155 -29 C170 25 180 126 180 232 L180 576 Z " />
<glyph glyph-name="approxequal" unicode="&#x2248;" horiz-adv-x="549" d="M489 251 C444 199 423 187 384 187 C365 187 354 190 285 211 C212 234 188 239 160 239 C101 239 54 211 14 155 L57 121 C103 174 120 184 159 184 C180 184 180 184 271 157 C350 133 354 132 385 132 C449 132 496 160 527 217 L489 251 Z M489 408 C444 356 423 344 384 344 C365 344 354 347 285 368 C212 391 188 396 160 396 C101 396 54 369 14 312 L57 278 C103 331 120 341 159 341 C180 341 180 341 271 314 C350 290 354 289 385 289 C449 289 496 318 527 375 L489 408 Z " />
<glyph glyph-name="notequal" unicode="&#x2260;" horiz-adv-x="549" d="M187 142 L115 -1 L161 -25 L246 142 L540 142 L540 197 L273 197 L344 336 L540 336 L540 391 L371 391 L439 525 L392 549 L312 391 L15 391 L15 336 L285 336 L215 197 L15 197 L15 142 L187 142 Z " />
<glyph glyph-name="lessequal" unicode="&#x2264;" horiz-adv-x="549" d="M526 55 L29 55 L29 0 L526 0 L526 55 Z M526 639 L29 405 L29 350 L526 117 L526 179 L108 378 L526 577 L526 639 Z " />
<glyph glyph-name="greaterequal" unicode="&#x2265;" horiz-adv-x="549" d="M526 55 L29 55 L29 0 L526 0 L526 55 Z M29 639 L29 577 L447 378 L29 179 L29 117 L526 350 L526 405 L29 639 Z " />
<glyph glyph-name="lozenge" unicode="&#x25ca;" horiz-adv-x="494" d="M209 0 L269 -1 L466 374 L277 740 L214 740 L18 377 L209 0 Z M240 58 L81 376 L245 683 L402 373 L240 58 Z " />
<glyph glyph-name="fi" unicode="&#xfb01;" horiz-adv-x="585" d="M27 0 L273 0 L273 48 L246 48 C199 50 191 58 191 105 L191 419 L352 419 C399 418 407 409 407 362 L407 105 C407 58 399 50 352 48 L324 48 L324 0 L565 0 L565 48 L547 48 C500 50 492 58 492 105 L492 469 L191 469 L191 506 C191 604 224 644 307 644 C352 644 380 634 407 608 C384 601 373 586 373 564 C373 537 394 516 423 516 C454 516 475 540 475 575 C475 640 405 685 302 685 C173 685 106 622 106 499 L106 469 L27 469 L27 419 L106 419 L106 105 C106 58 98 50 51 48 L27 48 L27 0 Z " />
<glyph glyph-name="fl" unicode="&#xfb02;" horiz-adv-x="590" d="M27 0 L273 0 L273 48 L246 48 C199 50 191 58 191 105 L191 419 L287 419 L287 469 L191 469 L191 506 C191 603 225 644 305 644 C348 644 380 634 403 613 C387 601 380 588 380 569 C380 548 388 534 407 526 L407 105 C407 58 399 50 351 48 L323 48 L323 0 L567 0 L567 48 L546 48 C500 50 492 59 492 105 L492 669 L408 667 C367 681 341 686 300 686 C172 686 106 622 106 499 L106 469 L27 469 L27 419 L106 419 L106 105 C106 58 98 50 51 48 L27 48 L27 0 Z " />
</font>
</svg>
