<?xml version="1.0" encoding="UTF-8"?>
<svg xmlns="http://www.w3.org/2000/svg" xmlns:xlink="http://www.w3.org/1999/xlink" version="1.2" >
<font id="FranklinGothic URW Demi Italic">
<font-face  font-family="FranklinGothic URW" units-per-em="1000" ascent="668" descent="-332" font-style="italic" font-weight="600" font-stretch="normal" slope="-9.5" cap-height="668" x-height="499" underline-position="-46" underline-thickness="117" />
<missing-glyph  horiz-adv-x="250" d="" />
<glyph glyph-name="NULL" d="" />
<glyph glyph-name="CR" unicode="&#xd;" horiz-adv-x="250" d="" />
<glyph glyph-name="space" unicode="&#x20;" horiz-adv-x="250" d="" />
<glyph glyph-name="exclam" unicode="&#x21;" horiz-adv-x="288" d="M202 148 L54 148 L29 0 L177 0 L202 148 Z M170 201 L289 667 L118 667 L93 201 L170 201 Z " />
<glyph glyph-name="quotedbl" unicode="&#x22;" horiz-adv-x="364" d="M159 393 L222 667 L108 667 L79 393 L159 393 Z M333 393 L396 667 L281 667 L253 393 L333 393 Z " />
<glyph glyph-name="numbersign" unicode="&#x23;" horiz-adv-x="587" d="M534 302 L440 302 L457 378 L550 378 L572 475 L479 475 L523 667 L425 667 L381 475 L311 475 L355 667 L258 667 L214 475 L109 475 L87 378 L192 378 L175 302 L68 302 L46 205 L152 205 L106 0 L203 0 L249 205 L319 205 L272 0 L371 0 L418 205 L512 205 L534 302 Z M359 378 L342 302 L265 302 L282 378 L359 378 Z " />
<glyph glyph-name="dollar" unicode="&#x24;" horiz-adv-x="587" d="M572 508 C540 583 477 634 404 647 L418 737 L338 737 L324 654 C270 653 238 647 204 631 C134 599 88 531 88 459 C88 373 146 305 237 282 C345 256 345 256 364 245 C382 234 391 218 391 197 C391 149 360 124 302 124 C215 124 166 158 155 227 L25 196 C51 92 125 24 224 13 L206 -97 L286 -97 L304 8 C350 8 376 12 408 22 C496 51 549 123 549 213 C549 250 539 284 518 314 C488 356 453 375 368 395 C258 421 238 432 238 472 C238 518 270 545 324 545 C362 545 401 532 423 513 C438 499 447 484 457 455 L572 508 Z " />
<glyph glyph-name="percent" unicode="&#x25;" horiz-adv-x="845" d="M650 370 C553 370 477 279 477 165 C477 65 539 -4 629 -4 C730 -4 804 81 804 198 C804 299 741 370 650 370 L650 370 Z M650 281 C677 281 688 264 688 226 C688 190 682 147 674 119 C666 95 652 82 632 82 C605 82 592 100 592 138 C592 176 600 225 612 253 C619 271 632 281 650 281 L650 281 Z M230 0 L736 669 L644 669 L138 0 L230 0 Z M244 672 C146 672 69 581 69 465 C69 369 133 298 221 298 C316 298 397 391 397 502 C397 601 334 672 244 672 L244 672 Z M242 582 C267 582 280 563 280 527 C280 504 275 461 268 430 C261 398 246 382 223 382 C195 382 183 400 183 441 C183 473 191 523 201 551 C208 570 224 582 242 582 L242 582 Z " />
<glyph glyph-name="ampersand" unicode="&#x26;" horiz-adv-x="716" d="M578 382 C562 328 526 268 491 238 L410 348 C455 362 474 371 497 385 C547 416 578 469 578 525 C578 619 502 679 383 679 C261 679 179 611 179 510 C179 471 190 439 223 388 C174 374 152 366 129 354 C59 317 18 254 18 182 C18 69 116 -11 252 -11 C332 -11 391 9 461 61 C498 15 531 -2 583 -2 C605 -2 620 -1 658 4 L672 122 C645 118 636 117 623 117 C597 117 579 125 560 147 C620 200 683 289 712 362 L578 382 Z M358 427 C326 470 314 494 314 518 C314 555 345 582 386 582 C428 582 457 556 457 519 C457 476 425 446 358 427 L358 427 Z M391 147 C351 118 310 104 266 104 C210 104 173 138 173 188 C173 243 208 280 281 301 L391 147 Z " />
<glyph glyph-name="quotesingle" unicode="&#x27;" horiz-adv-x="190" d="M159 393 L222 667 L108 667 L79 393 L159 393 Z " />
<glyph glyph-name="parenleft" unicode="&#x28;" horiz-adv-x="293" d="M208 -173 C158 -65 136 23 136 121 C136 225 161 355 199 446 C234 529 278 597 343 667 L248 667 C88 505 14 356 14 197 C14 89 54 -42 126 -173 L208 -173 Z " />
<glyph glyph-name="parenright" unicode="&#x29;" horiz-adv-x="293" d="M86 667 C136 560 158 470 158 372 C158 269 132 138 95 48 C60 -35 16 -103 -49 -173 L46 -173 C205 -12 280 138 280 297 C280 405 241 534 167 667 L86 667 Z " />
<glyph glyph-name="asterisk" unicode="&#x2a;" horiz-adv-x="587" d="M305 525 L177 597 L141 528 L274 465 L166 365 L221 309 L321 416 L383 283 L453 318 L382 447 L528 464 L517 541 L372 514 L401 658 L324 671 L305 525 Z " />
<glyph glyph-name="plus" unicode="&#x2b;" horiz-adv-x="587" d="M555 390 L361 390 L361 591 L255 591 L255 390 L61 390 L61 283 L255 283 L255 83 L361 83 L361 283 L555 283 L555 390 Z " />
<glyph glyph-name="comma" unicode="&#x2c;" horiz-adv-x="257" d="M189 151 L37 151 L12 0 L84 0 L-12 -153 L46 -153 L166 16 L189 151 Z " />
<glyph glyph-name="hyphen" unicode="&#x2d;" horiz-adv-x="257" d="M235 193 L254 302 L22 302 L4 193 L235 193 Z " />
<glyph glyph-name="period" unicode="&#x2e;" horiz-adv-x="257" d="M163 0 L188 151 L36 151 L11 0 L163 0 Z " />
<glyph glyph-name="slash" unicode="&#x2f;" horiz-adv-x="442" d="M-23 -173 L482 667 L392 667 L-115 -173 L-23 -173 Z " />
<glyph glyph-name="zero" unicode="0" horiz-adv-x="587" d="M336 683 C255 683 190 650 138 580 C81 505 45 390 45 283 C45 105 139 -11 284 -11 C386 -11 466 45 518 154 C553 225 571 309 571 397 C571 571 479 683 336 683 L336 683 Z M331 569 C394 569 420 527 420 427 C420 367 407 271 390 210 C369 138 338 104 290 104 C227 104 199 146 199 243 C199 315 209 390 226 452 C250 537 278 569 331 569 L331 569 Z " />
<glyph glyph-name="one" unicode="1" horiz-adv-x="587" d="M557 127 L379 127 L472 683 L360 683 C317 619 243 585 146 583 L134 583 L113 459 L144 459 C217 459 259 472 296 507 L233 127 L57 127 L36 0 L536 0 L557 127 Z " />
<glyph glyph-name="two" unicode="2" horiz-adv-x="587" d="M524 126 L187 126 C251 158 362 216 397 236 C525 310 574 375 574 472 C574 593 472 683 333 683 C205 683 110 604 71 464 L208 432 C225 510 268 554 326 554 C378 554 416 519 416 470 C416 395 351 340 30 145 L11 0 L506 0 L524 126 Z " />
<glyph glyph-name="three" unicode="3" horiz-adv-x="587" d="M10 186 C23 129 40 97 75 62 C127 9 193 -16 278 -16 C336 -16 385 -4 428 19 C493 54 534 120 534 189 C534 259 495 314 426 341 C508 358 558 417 558 499 C558 609 462 683 318 683 C200 683 116 629 69 522 L200 485 C226 541 260 565 312 565 C367 565 405 533 405 485 C405 459 392 432 372 419 C352 406 329 401 284 401 L213 401 L197 288 L247 288 C286 288 302 287 318 282 C354 270 377 238 377 198 C377 142 334 105 268 105 C204 105 160 141 140 211 L10 186 Z " />
<glyph glyph-name="four" unicode="4" horiz-adv-x="587" d="M567 272 L467 272 L534 675 L357 675 L37 276 L18 153 L297 153 L271 0 L421 0 L447 153 L547 153 L567 272 Z M320 267 L145 267 L366 537 L320 267 Z " />
<glyph glyph-name="five" unicode="5" horiz-adv-x="587" d="M585 667 L158 667 L74 315 L200 272 C227 308 261 326 300 326 C360 326 401 285 401 226 C401 159 355 113 287 113 C228 113 186 144 173 199 L25 175 C34 135 45 111 65 86 C114 24 194 -11 284 -11 C441 -11 557 93 557 234 C557 351 468 439 349 439 C294 439 255 422 219 383 L256 536 L550 536 L585 667 Z " />
<glyph glyph-name="six" unicode="6" horiz-adv-x="587" d="M581 488 C567 606 482 680 359 680 C253 680 168 627 114 527 C76 457 54 368 54 281 C54 101 153 -11 313 -11 C398 -11 467 21 511 82 C540 122 557 173 557 221 C557 337 469 426 355 426 C290 426 247 400 208 338 C212 384 225 436 242 476 C269 540 305 569 356 569 C409 569 441 536 449 476 L581 488 Z M313 315 C370 315 411 272 411 212 C411 150 369 104 310 104 C251 104 207 148 207 206 C207 268 253 315 313 315 L313 315 Z " />
<glyph glyph-name="seven" unicode="7" horiz-adv-x="587" d="M589 667 L119 667 L96 540 L440 540 C385 500 306 418 265 357 C191 250 133 108 120 0 L296 0 C311 198 420 415 578 560 L589 667 Z " />
<glyph glyph-name="eight" unicode="8" horiz-adv-x="587" d="M183 330 C85 307 24 243 24 162 C24 61 123 -3 278 -3 C436 -3 549 85 549 207 C549 275 515 321 438 360 C533 396 578 448 578 519 C578 611 489 673 358 673 C287 673 226 655 180 622 C127 584 95 526 95 471 C95 413 124 366 183 330 L183 330 Z M254 288 C374 243 408 218 408 174 C408 124 361 92 287 92 C206 92 151 129 151 185 C151 233 192 274 254 288 L254 288 Z M373 399 C275 429 231 464 231 511 C231 556 275 586 340 586 C408 586 454 550 454 496 C454 454 429 424 373 399 L373 399 Z " />
<glyph glyph-name="nine" unicode="9" horiz-adv-x="587" d="M25 146 C40 99 53 76 81 50 C122 12 180 -9 245 -9 C356 -9 444 49 502 161 C540 233 561 317 561 395 C561 570 463 679 306 679 C167 679 60 579 60 449 C60 336 147 249 260 249 C329 249 375 279 414 349 C379 171 335 107 251 107 C203 107 175 129 161 176 L25 146 Z M313 566 C368 566 410 523 410 468 C410 408 364 362 305 362 C250 362 208 404 208 460 C208 519 254 566 313 566 L313 566 Z " />
<glyph glyph-name="colon" unicode="&#x3a;" horiz-adv-x="257" d="M163 0 L188 151 L36 151 L11 0 L163 0 Z M220 339 L245 490 L93 490 L68 339 L220 339 Z " />
<glyph glyph-name="semicolon" unicode="&#x3b;" horiz-adv-x="257" d="M189 151 L37 151 L12 0 L84 0 L-12 -153 L46 -153 L166 16 L189 151 Z M220 339 L246 490 L94 490 L68 339 L220 339 Z " />
<glyph glyph-name="less" unicode="&#x3c;" horiz-adv-x="587" d="M524 616 L91 392 L91 277 L524 53 L524 189 L237 334 L524 479 L524 616 Z " />
<glyph glyph-name="equal" unicode="&#x3d;" horiz-adv-x="587" d="M554 294 L60 294 L60 187 L554 187 L554 294 Z M554 477 L60 477 L60 370 L554 370 L554 477 Z " />
<glyph glyph-name="greater" unicode="&#x3e;" horiz-adv-x="587" d="M91 53 L524 277 L524 392 L91 616 L91 480 L379 335 L91 190 L91 53 Z " />
<glyph glyph-name="question" unicode="&#x3f;" horiz-adv-x="503" d="M309 149 L160 149 L135 0 L284 0 L309 149 Z M299 202 C304 254 315 272 362 303 C447 357 447 357 470 382 C500 416 516 458 516 504 C516 618 425 699 296 699 C181 699 91 625 56 503 L184 470 C201 539 238 578 287 578 C332 578 363 548 363 504 C363 471 347 446 305 415 C194 336 188 325 175 202 L299 202 Z " />
<glyph glyph-name="at" unicode="&#x40;" horiz-adv-x="773" d="M581 502 L489 502 L483 481 C454 503 437 510 407 510 C311 510 237 422 237 308 C237 209 294 137 372 137 C408 137 436 151 464 181 C487 151 514 138 554 138 C664 138 756 249 756 382 C756 554 610 687 422 687 C215 687 54 529 54 326 C54 201 117 87 220 26 C276 -7 347 -24 427 -24 C513 -24 581 -10 655 24 L626 105 C541 70 503 61 439 61 C370 61 316 73 275 98 C198 146 152 232 152 330 C152 486 268 606 419 606 C559 606 667 507 667 379 C667 298 618 228 562 228 C545 228 540 231 540 241 C540 247 542 263 545 282 L581 502 Z M408 416 C444 416 470 386 470 344 C470 286 427 231 383 231 C354 231 335 262 335 309 C335 370 366 416 408 416 L408 416 Z " />
<glyph glyph-name="A" unicode="A" horiz-adv-x="615" d="M577 0 L465 667 L282 667 L-35 0 L109 0 L174 147 L396 147 L418 0 L577 0 Z M224 263 L341 530 L380 263 L224 263 Z " />
<glyph glyph-name="B" unicode="B" horiz-adv-x="655" d="M137 667 L25 0 L356 0 C434 0 490 13 529 38 C580 73 610 131 610 195 C610 272 574 316 489 342 C535 354 557 362 578 377 C617 404 638 448 638 501 C638 549 619 594 587 622 C550 654 504 667 423 667 L137 667 Z M271 555 L376 555 C445 555 477 531 477 479 C477 452 465 427 445 414 C425 401 413 399 350 399 L245 399 L271 555 Z M226 286 L328 286 C371 286 394 282 412 272 C434 259 448 234 448 205 C448 150 406 119 333 119 L198 119 L226 286 Z " />
<glyph glyph-name="C" unicode="C" horiz-adv-x="622" d="M622 416 C620 463 616 486 606 519 C573 620 486 680 369 680 C271 680 191 638 130 553 C79 483 46 376 46 281 C46 190 77 106 129 55 C175 10 235 -12 310 -12 C448 -12 543 65 594 216 L457 239 C427 150 390 116 323 116 C250 116 212 164 212 255 C212 323 226 395 251 456 C278 524 313 553 369 553 C432 553 471 507 471 432 C471 427 471 418 470 409 L622 416 Z " />
<glyph glyph-name="D" unicode="D" horiz-adv-x="653" d="M25 0 L258 -1 L272 -1 C339 0 339 0 363 4 C413 12 455 29 492 56 C576 120 628 236 628 362 C628 441 608 508 569 564 C518 637 449 667 333 667 L137 667 L25 0 Z M192 119 L263 549 L332 549 C425 549 472 490 472 374 C472 299 452 225 421 182 C387 136 347 119 272 119 L192 119 Z " />
<glyph glyph-name="E" unicode="E" horiz-adv-x="571" d="M606 667 L137 667 L25 0 L500 0 L521 127 L202 127 L228 282 L490 282 L510 403 L248 403 L271 540 L585 540 L606 667 Z " />
<glyph glyph-name="F" unicode="F" horiz-adv-x="532" d="M589 667 L137 667 L25 0 L184 0 L229 264 L477 264 L498 391 L244 391 L269 540 L567 540 L589 667 Z " />
<glyph glyph-name="G" unicode="G" horiz-adv-x="658" d="M620 357 L340 357 L319 236 L457 236 C434 155 392 117 327 117 C248 117 203 168 203 259 C203 315 221 403 241 451 C271 521 316 556 373 556 C438 556 473 519 487 438 L631 461 C608 600 515 680 379 680 C185 680 46 510 46 274 C46 104 146 -9 296 -9 C374 -9 425 17 479 85 L497 -5 L559 -5 L620 357 Z " />
<glyph glyph-name="H" unicode="H" horiz-adv-x="642" d="M645 667 L499 667 L455 405 L239 405 L283 667 L137 667 L25 0 L172 0 L218 278 L434 278 L387 0 L534 0 L645 667 Z " />
<glyph glyph-name="I" unicode="I" horiz-adv-x="287" d="M290 667 L137 667 L25 0 L178 0 L290 667 Z " />
<glyph glyph-name="J" unicode="J" horiz-adv-x="390" d="M400 667 L249 667 L189 310 C177 237 170 198 170 194 C164 170 155 150 146 140 C128 121 98 112 49 112 C26 112 13 113 -15 118 L-34 0 C15 -9 39 -11 76 -11 C149 -11 202 4 244 35 C290 70 305 103 322 204 L400 667 Z " />
<glyph glyph-name="K" unicode="K" horiz-adv-x="625" d="M654 667 L497 667 L283 420 C261 392 257 386 231 353 L283 667 L137 667 L25 0 L172 0 L198 160 L330 310 L414 0 L572 0 L443 427 L654 667 Z " />
<glyph glyph-name="L" unicode="L" horiz-adv-x="489" d="M290 667 L137 667 L25 0 L440 0 L462 127 L200 127 L290 667 Z " />
<glyph glyph-name="M" unicode="M" horiz-adv-x="863" d="M867 667 L624 667 L430 259 L370 667 L137 667 L25 0 L151 0 L245 564 L334 0 L423 0 L692 558 L599 0 L755 0 L867 667 Z " />
<glyph glyph-name="N" unicode="N" horiz-adv-x="652" d="M655 667 L531 667 L495 456 C477 340 467 274 466 260 L305 667 L137 667 L25 0 L150 0 L193 255 C216 396 223 444 225 483 L419 0 L544 0 L655 667 Z " />
<glyph glyph-name="O" unicode="O" horiz-adv-x="643" d="M360 678 C252 678 160 619 104 515 C68 446 47 361 47 280 C47 105 151 -10 309 -10 C405 -10 484 30 541 108 C595 182 624 280 624 387 C624 563 520 678 360 678 L360 678 Z M361 555 C436 555 472 506 472 405 C472 344 461 284 439 222 C410 145 373 113 312 113 C239 113 201 163 201 258 C201 325 214 396 237 452 C265 522 305 555 361 555 L361 555 Z " />
<glyph glyph-name="P" unicode="P" horiz-adv-x="600" d="M220 250 L362 250 C461 250 508 265 553 311 C593 351 617 413 617 474 C617 538 591 595 545 629 C505 658 466 667 375 667 L137 667 L25 0 L178 0 L220 250 Z M270 548 L350 548 C394 548 420 543 437 530 C457 515 468 490 468 463 C468 403 426 367 355 367 L240 367 L270 548 Z " />
<glyph glyph-name="Q" unicode="Q" horiz-adv-x="648" d="M563 -14 C540 -17 528 -18 511 -18 C460 -18 442 -8 439 25 C555 78 630 218 630 383 C630 561 525 677 364 677 C259 677 177 630 120 539 C73 464 47 372 47 281 C47 108 149 -11 298 -11 C315 -11 327 -10 349 -6 C348 -12 348 -18 348 -20 C348 -89 399 -131 484 -131 C502 -131 522 -130 557 -126 L563 -14 Z M364 554 C439 554 476 503 476 401 C476 342 463 274 443 221 C413 145 374 112 314 112 C238 112 199 161 199 256 C199 336 222 434 253 488 C277 531 315 554 364 554 L364 554 Z " />
<glyph glyph-name="R" unicode="R" horiz-adv-x="657" d="M219 266 L343 266 L413 0 L568 0 L486 290 C529 302 550 312 573 332 C611 366 635 420 635 474 C635 528 612 581 573 617 C533 653 481 667 383 667 L137 667 L25 0 L174 0 L219 266 Z M264 550 L365 550 C397 550 415 548 431 543 C461 534 480 505 480 471 C480 439 463 410 437 396 C414 384 392 381 334 381 L235 381 L264 550 Z " />
<glyph glyph-name="S" unicode="S" horiz-adv-x="574" d="M555 503 C538 557 521 584 488 614 C442 656 378 678 305 678 C237 678 178 658 136 620 C92 581 65 521 65 463 C65 405 91 353 135 322 C166 300 198 287 263 269 C316 255 331 250 346 243 C368 231 380 212 380 187 C380 140 339 110 274 110 C199 110 156 142 140 210 L-3 190 C12 117 33 79 80 43 C128 6 192 -13 270 -13 C430 -13 535 75 535 209 C535 283 504 336 442 369 C408 387 378 398 310 415 C236 433 214 449 214 485 C214 527 251 555 305 555 C365 555 400 529 418 471 L555 503 Z " />
<glyph glyph-name="T" unicode="T" horiz-adv-x="489" d="M538 540 L560 667 L70 667 L49 540 L217 540 L127 0 L280 0 L370 540 L538 540 Z " />
<glyph glyph-name="U" unicode="U" horiz-adv-x="643" d="M656 667 L524 667 L464 312 C444 194 444 194 436 176 C420 142 380 121 328 121 C262 121 222 152 222 205 C222 224 225 250 229 278 L294 667 L130 667 L61 253 C57 230 55 206 55 188 C55 66 147 -6 303 -6 C435 -6 520 43 560 141 C572 171 575 182 593 295 L656 667 Z " />
<glyph glyph-name="V" unicode="V" horiz-adv-x="549" d="M623 667 L490 667 L275 168 L210 667 L57 667 L155 0 L316 0 L623 667 Z " />
<glyph glyph-name="W" unicode="W" horiz-adv-x="886" d="M946 667 L810 667 L635 205 L579 667 L440 667 L265 205 L223 667 L70 667 L149 0 L291 0 L469 465 L529 0 L673 0 L946 667 Z " />
<glyph glyph-name="X" unicode="X" horiz-adv-x="596" d="M631 667 L481 667 L339 458 L246 667 L81 667 L224 356 L-45 0 L108 0 L283 252 L391 0 L558 0 L396 356 L631 667 Z " />
<glyph glyph-name="Y" unicode="Y" horiz-adv-x="530" d="M624 667 L478 667 L305 403 L203 667 L37 667 L203 280 L156 0 L309 0 L356 280 L624 667 Z " />
<glyph glyph-name="Z" unicode="Z" horiz-adv-x="573" d="M-3 108 L-21 0 L512 0 L533 127 L395 127 C343 127 294 127 278 126 L220 124 L192 124 L582 565 L598 667 L103 667 L82 540 L228 540 C281 540 317 541 387 544 L-3 108 Z " />
<glyph glyph-name="bracketleft" unicode="&#x5b;" horiz-adv-x="293" d="M308 606 L318 667 L120 667 L-21 -173 L178 -173 L188 -113 L79 -113 L199 606 L308 606 Z " />
<glyph glyph-name="backslash" unicode="&#x5c;" horiz-adv-x="442" d="M322 -173 L408 -173 L182 667 L98 667 L322 -173 Z " />
<glyph glyph-name="bracketright" unicode="&#x5d;" horiz-adv-x="293" d="M-15 -112 L-25 -173 L174 -173 L315 667 L116 667 L106 607 L215 607 L95 -112 L-15 -112 Z " />
<glyph glyph-name="asciicircum" unicode="&#x5e;" horiz-adv-x="500" d="M159 335 L265 564 L370 335 L510 335 L353 671 L177 671 L19 335 L159 335 Z " />
<glyph glyph-name="underscore" unicode="&#x5f;" horiz-adv-x="500" d="M14 -46 L14 -163 L514 -163 L514 -46 L14 -46 Z " />
<glyph glyph-name="grave" unicode="&#x60;" horiz-adv-x="500" d="M387 567 L417 621 L241 739 L196 663 L387 567 Z " />
<glyph glyph-name="a" unicode="a" horiz-adv-x="541" d="M453 0 C451 14 451 21 451 33 C451 60 454 85 461 127 L482 254 C495 334 496 340 496 362 C496 451 423 506 303 506 C177 506 96 455 61 354 L191 339 C212 394 239 415 291 415 C331 415 356 392 356 355 C356 341 354 329 347 311 C243 305 174 294 128 275 C51 244 11 192 11 123 C11 44 73 -13 159 -13 C232 -13 290 22 319 86 C319 77 318 73 317 62 C315 45 314 38 314 30 C314 22 314 22 315 0 L453 0 Z M336 241 C320 136 278 78 217 78 C184 78 161 103 161 139 C161 174 182 203 220 220 C246 232 277 237 336 241 L336 241 Z " />
<glyph glyph-name="b" unicode="b" horiz-adv-x="541" d="M274 667 L131 667 L62 257 C52 195 42 130 32 62 C26 29 25 22 19 0 L98 0 C108 27 118 48 133 72 L137 79 C171 15 215 -11 283 -11 C348 -11 401 17 443 73 C486 131 512 217 512 302 C512 431 455 508 360 508 C305 508 271 487 234 429 L274 667 Z M304 408 C343 408 368 376 368 326 C368 275 356 205 339 159 C322 112 296 88 261 88 C220 88 196 118 196 169 C196 211 208 288 221 327 C238 381 266 408 304 408 L304 408 Z " />
<glyph glyph-name="c" unicode="c" horiz-adv-x="507" d="M355 191 C336 132 306 104 263 104 C214 104 187 137 187 195 C187 241 197 297 211 331 C229 375 256 397 292 397 C335 397 366 362 366 314 C366 313 366 309 365 306 L494 314 C495 319 495 323 495 324 C495 356 484 392 465 422 C431 477 373 506 295 506 C201 506 125 464 78 386 C48 336 31 275 31 216 C31 80 116 -10 244 -10 C358 -10 434 51 476 175 L355 191 Z " />
<glyph glyph-name="d" unicode="d" horiz-adv-x="540" d="M438 0 L550 667 L407 667 L365 415 C350 476 308 508 246 508 C183 508 133 479 93 419 C54 361 29 273 29 195 C29 67 89 -11 187 -11 C240 -11 279 15 317 77 L304 0 L438 0 Z M279 407 C318 407 347 370 347 320 C347 300 336 221 328 191 C313 127 281 92 238 92 C200 92 177 124 177 177 C177 230 190 304 207 348 C221 384 249 407 279 407 L279 407 Z " />
<glyph glyph-name="e" unicode="e" horiz-adv-x="527" d="M495 223 C498 246 500 273 500 284 C500 418 416 508 290 508 C213 508 148 478 101 421 C53 364 27 291 27 216 C27 79 115 -13 247 -13 C357 -13 438 44 477 148 L355 169 C335 116 303 90 256 90 C205 90 172 127 172 185 C172 195 173 204 174 223 L495 223 Z M185 305 C193 341 199 355 211 373 C229 400 259 416 290 416 C336 416 366 384 366 334 C366 325 366 318 364 305 L185 305 Z " />
<glyph glyph-name="f" unicode="f" horiz-adv-x="318" d="M331 384 L349 497 L253 497 C257 527 260 540 266 550 C277 571 300 581 333 581 C347 581 357 580 377 577 L385 692 C359 696 345 697 325 697 C190 697 128 639 110 497 L47 497 L33 384 L91 384 L27 0 L170 0 L235 384 L331 384 Z " />
<glyph glyph-name="g" unicode="g" horiz-adv-x="513" d="M520 611 C499 613 490 613 481 613 C414 613 373 574 361 497 C340 503 308 507 277 507 C218 507 158 489 119 460 C84 434 62 388 62 342 C62 296 79 265 118 238 C85 221 75 215 58 204 C28 182 12 152 12 115 C12 81 24 59 55 34 C-11 7 -38 -22 -38 -66 C-38 -96 -23 -122 5 -140 C39 -163 100 -174 196 -174 C299 -174 366 -161 411 -132 C453 -105 481 -56 481 -8 C481 52 441 100 379 115 C356 121 287 126 223 127 C171 127 150 138 150 162 C150 181 162 194 190 206 C236 199 251 197 275 197 C403 197 489 262 489 360 C489 411 470 442 419 474 C424 502 446 517 481 517 C490 517 498 516 514 514 L520 611 Z M285 426 C330 426 356 402 356 361 C356 307 322 274 266 274 C223 274 197 299 197 341 C197 393 231 426 285 426 L285 426 Z M193 -1 C296 -5 296 -5 314 -8 C334 -12 347 -26 347 -44 C347 -76 302 -93 220 -93 C136 -93 84 -74 84 -44 C84 -22 111 1 135 1 C139 1 144 1 152 0 L193 -1 Z " />
<glyph glyph-name="h" unicode="h" horiz-adv-x="547" d="M446 0 L489 262 C503 345 504 351 504 377 C504 454 450 506 372 506 C314 506 270 480 233 424 L274 667 L131 667 L19 0 L162 0 L202 238 C216 321 218 330 233 353 C249 380 274 395 303 395 C334 395 357 374 357 345 C357 333 356 319 353 302 L302 0 L446 0 Z " />
<glyph glyph-name="i" unicode="i" horiz-adv-x="269" d="M251 497 L102 497 L19 0 L168 0 L251 497 Z M281 675 L132 675 L108 534 L258 534 L281 675 Z " />
<glyph glyph-name="j" unicode="j" horiz-adv-x="268" d="M249 497 L101 497 L33 87 C13 -28 13 -28 3 -42 C-7 -57 -26 -64 -54 -64 C-62 -64 -69 -63 -83 -61 L-99 -175 C-53 -181 -36 -182 -12 -182 C48 -182 91 -165 120 -130 C145 -98 156 -63 177 63 L249 497 Z M256 533 L279 675 L131 675 L108 533 L256 533 Z " />
<glyph glyph-name="k" unicode="k" horiz-adv-x="541" d="M573 497 L420 497 L207 278 L272 667 L131 667 L19 0 L162 0 L184 130 L287 228 L357 0 L507 0 L400 329 L573 497 Z " />
<glyph glyph-name="l" unicode="l" horiz-adv-x="263" d="M274 667 L131 667 L19 0 L162 0 L274 667 Z " />
<glyph glyph-name="m" unicode="m" horiz-adv-x="814" d="M572 0 L713 0 L759 275 C770 341 770 341 770 364 C770 450 714 506 629 506 C565 506 530 484 483 415 C456 481 420 508 361 508 C299 508 264 484 218 412 L232 497 L102 497 L19 0 L162 0 L199 220 C214 315 215 319 227 343 C245 377 269 395 299 395 C330 395 350 375 350 344 C350 335 348 316 344 296 L295 0 L434 0 L475 245 C484 302 490 325 502 346 C519 377 543 393 573 393 C607 393 626 372 626 336 C626 324 625 313 619 278 L572 0 Z " />
<glyph glyph-name="n" unicode="n" horiz-adv-x="545" d="M237 497 L102 497 L19 0 L162 0 L203 246 C214 311 217 322 229 346 C245 377 275 397 305 397 C337 397 357 378 357 346 C357 337 356 326 350 290 L301 0 L444 0 L491 279 C502 346 503 352 503 371 C503 451 449 506 370 506 C308 506 257 471 221 403 L237 497 Z " />
<glyph glyph-name="o" unicode="o" horiz-adv-x="534" d="M287 509 C137 509 31 387 31 213 C31 84 122 -10 249 -10 C392 -10 503 115 503 276 C503 416 416 509 287 509 L287 509 Z M286 413 C333 413 358 381 358 319 C358 262 344 187 326 142 C311 105 286 86 252 86 C202 86 178 117 178 182 C178 248 192 322 213 365 C227 396 254 413 286 413 L286 413 Z " />
<glyph glyph-name="p" unicode="p" horiz-adv-x="540" d="M133 -173 L174 73 C193 22 241 -10 301 -10 C419 -10 510 126 510 301 C510 425 450 504 355 504 C298 504 258 476 218 408 L233 497 L102 497 L-10 -173 L133 -173 Z M300 404 C337 404 363 371 363 324 C363 274 347 181 332 147 C315 108 291 88 261 88 C220 88 193 124 193 177 C193 201 203 265 213 311 C225 368 259 404 300 404 L300 404 Z " />
<glyph glyph-name="q" unicode="q" horiz-adv-x="541" d="M411 -173 L491 305 C516 455 516 456 519 467 C522 478 523 485 526 497 L446 497 C435 468 414 433 399 417 C373 475 327 506 265 506 C192 506 136 475 92 410 C53 352 28 264 28 185 C28 67 91 -12 185 -12 C238 -12 276 12 307 64 L268 -173 L411 -173 Z M281 414 C322 414 347 384 347 336 C347 302 340 251 329 198 C310 115 282 80 234 80 C194 80 172 112 172 172 C172 213 184 279 199 329 C218 388 243 414 281 414 L281 414 Z " />
<glyph glyph-name="r" unicode="r" horiz-adv-x="352" d="M371 504 L359 504 C297 504 260 471 222 383 L241 497 L102 497 L19 0 L168 0 L186 107 C211 296 253 360 355 360 L371 504 Z " />
<glyph glyph-name="s" unicode="s" horiz-adv-x="465" d="M441 366 C419 460 348 508 234 508 C114 508 36 440 36 336 C36 288 55 250 91 224 C116 206 154 194 212 184 C278 173 294 163 294 136 C294 104 262 83 213 83 C149 83 113 106 107 153 L-16 139 C0 43 81 -11 208 -11 C336 -11 424 62 424 167 C424 248 373 299 275 315 C207 326 207 326 193 331 C178 337 168 351 168 366 C168 393 196 414 233 414 C287 414 321 390 330 344 L441 366 Z " />
<glyph glyph-name="t" unicode="t" horiz-adv-x="359" d="M361 383 L380 497 L266 497 L289 637 L164 634 L130 497 L47 497 L28 383 L104 383 L72 220 C58 152 56 137 56 109 C56 27 104 -12 205 -12 C238 -12 263 -10 303 -4 L321 105 C306 102 289 101 268 101 C223 101 205 112 205 141 C205 150 206 162 210 184 L243 383 L361 383 Z " />
<glyph glyph-name="u" unicode="u" horiz-adv-x="536" d="M518 497 L375 497 L335 258 C323 188 316 166 296 139 C278 116 254 103 230 103 C205 103 188 120 188 145 C188 150 190 168 194 190 L246 497 L102 497 L52 199 C43 142 42 135 42 117 C42 38 90 -11 168 -11 C232 -11 280 22 319 90 L304 0 L435 0 L518 497 Z " />
<glyph glyph-name="v" unicode="v" horiz-adv-x="455" d="M493 497 L380 497 L237 188 L184 497 L32 497 L130 0 L250 0 L493 497 Z " />
<glyph glyph-name="w" unicode="w" horiz-adv-x="720" d="M753 497 L642 497 L507 187 L478 497 L344 497 L226 187 L188 497 L40 497 L113 0 L239 0 L364 321 L399 0 L528 0 L753 497 Z " />
<glyph glyph-name="x" unicode="x" horiz-adv-x="474" d="M506 497 L377 497 L274 352 L212 497 L53 497 L162 266 L-45 0 L82 0 L209 176 L281 0 L436 0 L318 260 L506 497 Z " />
<glyph glyph-name="y" unicode="y" horiz-adv-x="450" d="M488 497 L376 497 L241 195 L182 497 L32 497 L146 6 C126 -49 104 -65 47 -65 C33 -65 29 -65 -13 -60 L-21 -171 C-7 -172 8 -173 32 -173 C90 -173 128 -163 157 -140 C199 -107 208 -93 266 28 L488 497 Z " />
<glyph glyph-name="z" unicode="z" horiz-adv-x="432" d="M431 399 L447 497 L69 497 L52 392 L255 392 L-5 96 L-21 0 L371 0 L389 105 L171 105 L431 399 Z " />
<glyph glyph-name="braceleft" unicode="&#x7b;" horiz-adv-x="293" d="M266 542 C276 601 281 607 320 607 L336 607 L346 665 C324 665 320 665 303 666 C283 667 283 667 280 667 C197 667 159 630 143 533 L112 349 C101 302 86 286 45 278 L36 225 C66 219 80 203 80 176 C80 166 79 150 78 144 L47 -39 C44 -55 43 -72 43 -88 C43 -147 72 -173 138 -173 L147 -173 L173 -172 C173 -172 190 -171 206 -171 L216 -113 C168 -113 161 -110 162 -88 C162 -78 163 -74 167 -48 L197 129 C199 142 200 157 200 169 C200 206 190 225 157 247 C207 274 223 298 236 364 L266 542 Z " />
<glyph glyph-name="bar" unicode="&#x7c;" horiz-adv-x="500" d="M196 667 L196 -167 L334 -167 L334 667 L196 667 Z " />
<glyph glyph-name="braceright" unicode="&#x7d;" horiz-adv-x="293" d="M50 -48 C39 -108 35 -113 -4 -113 L-20 -113 L-30 -171 C-8 -171 -4 -171 13 -172 C32 -173 32 -173 35 -173 C118 -173 157 -136 173 -39 L203 145 C215 192 230 208 271 216 L280 269 C250 275 236 291 236 318 C236 328 237 345 238 350 L268 533 C272 552 273 566 273 582 C273 641 244 667 178 667 L168 667 L143 666 L110 665 L100 607 C148 607 154 604 154 582 C154 575 153 568 149 542 L119 365 C117 354 116 338 116 325 C116 288 126 269 159 247 C109 220 92 195 80 130 L50 -48 Z " />
<glyph glyph-name="asciitilde" unicode="&#x7e;" horiz-adv-x="587" d="M138 232 C163 280 177 292 208 292 C225 292 233 290 292 269 C351 248 371 242 392 242 C420 242 449 251 474 269 C504 290 521 314 551 378 L475 425 C452 385 436 373 405 373 C385 373 377 375 321 396 C269 416 240 423 216 423 C145 423 106 387 64 282 L138 232 Z " />
<glyph glyph-name="uni00A0" unicode="&#xa0;" horiz-adv-x="250" d="" />
<glyph glyph-name="exclamdown" unicode="&#xa1;" horiz-adv-x="288" d="M87 345 L235 345 L260 493 L112 493 L87 345 Z M118 293 L0 -173 L171 -173 L196 293 L118 293 Z " />
<glyph glyph-name="cent" unicode="&#xa2;" horiz-adv-x="587" d="M406 677 L338 677 L322 580 C282 578 253 570 223 552 C152 509 105 414 105 316 C105 208 158 133 250 109 L227 -27 L294 -27 L316 103 C405 102 480 165 512 267 L402 288 C382 232 353 204 313 204 C266 204 238 239 238 296 C238 331 245 377 256 411 C272 462 299 486 337 486 C380 486 411 452 409 408 C409 403 408 397 407 391 L530 404 C520 496 468 558 389 573 L406 677 Z " />
<glyph glyph-name="sterling" unicode="&#xa3;" horiz-adv-x="587" d="M434 219 C409 147 374 125 285 127 L233 127 C285 169 304 211 314 305 L409 305 L426 406 L316 406 L316 444 C314 522 342 565 392 565 C427 565 446 543 450 499 L584 549 C573 584 568 597 555 613 C522 658 464 682 391 682 C249 682 164 587 164 429 C164 425 164 416 165 406 L87 406 L71 305 L166 305 C165 231 163 213 149 183 C126 141 93 125 38 127 L-15 127 L-31 0 L242 0 C382 1 395 3 449 31 C503 62 538 106 566 180 L434 219 Z " />
<glyph glyph-name="currency" unicode="&#xa4;" horiz-adv-x="667" d="M51 134 L113 72 L213 172 C264 139 305 126 355 126 C406 126 451 141 496 172 L597 72 L658 134 L558 235 C590 283 603 323 603 372 C603 422 590 461 556 513 L656 612 L594 674 L494 575 C446 607 406 620 355 620 C303 620 262 606 213 573 L112 675 L50 613 L152 511 C120 465 106 423 106 373 C106 323 121 278 152 234 L51 134 Z M356 512 C431 512 493 449 493 373 C493 296 431 234 354 234 C278 234 216 296 216 373 C216 451 278 512 356 512 L356 512 Z " />
<glyph glyph-name="yen" unicode="&#xa5;" horiz-adv-x="587" d="M74 427 L61 347 L206 347 L232 281 L230 267 L47 267 L34 187 L217 187 L185 0 L335 0 L366 187 L554 187 L567 267 L379 267 L382 281 L425 347 L581 347 L594 427 L477 427 L634 667 L492 667 L332 398 L244 667 L82 667 L175 427 L74 427 Z " />
<glyph glyph-name="brokenbar" unicode="&#xa6;" horiz-adv-x="500" d="M196 667 L196 318 L334 318 L334 667 L196 667 Z M196 153 L196 -167 L334 -167 L334 153 L196 153 Z " />
<glyph glyph-name="section" unicode="&#xa7;" horiz-adv-x="587" d="M547 558 C497 641 442 674 355 674 C230 674 131 593 131 490 C131 453 142 428 171 404 C106 345 79 295 79 238 C79 174 109 141 202 103 C349 43 367 30 367 -10 C367 -52 324 -81 263 -81 C200 -81 166 -61 144 -9 L18 -30 C46 -122 135 -180 250 -180 C397 -180 498 -94 498 30 C498 83 483 115 444 141 C501 195 527 243 527 297 C527 362 494 399 401 438 C301 480 301 480 288 488 C273 499 266 510 266 525 C266 560 300 585 347 585 C389 585 416 568 440 526 L547 558 Z M260 350 C278 342 278 342 291 336 C343 313 343 313 352 308 C382 292 393 279 393 257 C393 235 385 221 357 198 C355 196 352 193 349 191 C339 196 339 196 324 202 C266 227 266 227 259 231 C225 248 212 263 212 283 C212 306 220 318 260 350 L260 350 Z " />
<glyph glyph-name="dieresis" unicode="&#xa8;" horiz-adv-x="500" d="M232 695 C199 695 174 670 174 638 C174 606 199 582 232 582 C266 582 291 605 291 637 C291 671 267 695 232 695 L232 695 Z M395 695 C362 695 337 670 337 638 C337 606 362 582 395 582 C429 582 454 605 454 637 C454 671 430 695 395 695 L395 695 Z " />
<glyph glyph-name="copyright" unicode="&#xa9;" horiz-adv-x="773" d="M579 379 C578 395 578 402 576 411 C564 492 504 541 416 541 C354 541 303 515 264 465 C232 424 212 361 212 304 C212 196 279 126 382 126 C472 126 532 173 563 266 L468 282 C461 262 456 250 454 245 C439 220 418 208 391 208 C348 208 326 235 326 289 C326 339 342 401 362 430 C375 450 393 459 416 459 C452 459 475 433 475 390 C475 387 475 382 474 374 L579 379 Z M401 677 C211 677 57 523 57 333 C57 142 211 -11 402 -11 C589 -11 745 144 745 329 C745 524 593 677 401 677 L401 677 Z M400 629 C565 629 696 497 696 330 C696 171 562 38 401 38 C237 38 105 170 105 333 C105 497 237 629 400 629 L400 629 Z " />
<glyph glyph-name="ordfeminine" unicode="&#xaa;" horiz-adv-x="355" d="M346 377 C344 389 343 394 343 402 C343 416 344 422 349 456 L362 531 C369 571 370 580 370 593 C370 648 323 682 244 682 C163 682 110 649 89 587 L180 577 C193 611 206 621 236 621 C259 621 272 609 272 589 C272 582 271 576 269 567 C219 564 187 560 157 553 C96 537 60 501 60 454 C60 405 101 370 157 370 C192 370 228 384 246 406 L249 409 C248 405 248 401 248 399 L248 387 C249 382 249 381 249 377 L346 377 Z M261 519 C252 463 228 431 194 431 C176 431 164 444 164 464 C164 498 194 515 261 519 L261 519 Z " />
<glyph glyph-name="guillemotleft" unicode="&#xab;" horiz-adv-x="345" d="M281 104 L248 243 L320 389 L270 389 L166 246 L234 104 L281 104 Z M148 104 L114 243 L187 389 L137 389 L33 246 L102 104 L148 104 Z " />
<glyph glyph-name="logicalnot" unicode="&#xac;" horiz-adv-x="587" d="M387 0 L524 0 L524 270 L91 270 L91 147 L387 147 L387 0 Z " />
<glyph glyph-name="uni00AD" unicode="&#xad;" horiz-adv-x="257" d="M235 193 L254 302 L22 302 L4 193 L235 193 Z " />
<glyph glyph-name="registered" unicode="&#xae;" horiz-adv-x="773" d="M339 290 L407 290 L451 133 L559 133 L506 306 C564 323 597 362 597 416 C597 449 581 482 555 504 C530 525 496 533 434 533 L276 533 L209 133 L313 133 L339 290 Z M365 458 L423 458 C471 458 490 446 490 414 C490 378 467 365 406 365 L350 365 L365 458 Z M401 677 C211 677 57 523 57 333 C57 142 211 -11 402 -11 C589 -11 745 144 745 329 C745 524 593 677 401 677 L401 677 Z M400 629 C565 629 696 497 696 330 C696 171 562 38 401 38 C237 38 105 170 105 333 C105 497 237 629 400 629 L400 629 Z " />
<glyph glyph-name="macron" unicode="&#xaf;" horiz-adv-x="500" d="M460 600 L471 670 L165 670 L153 600 L460 600 Z " />
<glyph glyph-name="degree" unicode="&#xb0;" horiz-adv-x="587" d="M341 680 C265 680 203 618 203 540 C203 462 266 399 343 399 C419 399 481 461 481 537 C481 617 419 680 341 680 L341 680 Z M342 608 C379 608 409 577 409 539 C409 502 379 472 343 472 C306 472 275 503 275 540 C275 578 305 608 342 608 L342 608 Z " />
<glyph glyph-name="plusminus" unicode="&#xb1;" horiz-adv-x="587" d="M535 390 L341 390 L341 591 L235 591 L235 390 L41 390 L41 283 L235 283 L235 83 L341 83 L341 283 L535 283 L535 390 Z M535 57 L41 57 L41 -50 L535 -50 L535 57 Z " />
<glyph glyph-name="twosuperior" unicode="&#xb2;" horiz-adv-x="387" d="M374 348 L169 348 C196 360 275 399 289 407 C371 450 403 490 403 547 C403 621 335 676 244 676 C159 676 97 628 73 542 L168 521 C177 568 203 594 239 594 C272 594 295 574 295 546 C295 504 256 474 51 358 L39 267 L362 267 L374 348 Z " />
<glyph glyph-name="threesuperior" unicode="&#xb3;" horiz-adv-x="387" d="M36 383 C57 302 119 258 213 258 C310 258 379 309 379 382 C379 421 359 449 317 471 C366 486 392 518 392 564 C392 631 329 676 234 676 C155 676 101 643 70 576 L161 552 C178 587 196 600 230 600 C263 600 287 582 287 555 C287 524 265 510 215 510 L166 510 L156 437 L191 437 C214 437 225 436 235 433 C258 427 272 408 272 386 C272 356 246 336 207 336 C166 336 140 357 126 398 L36 383 Z " />
<glyph glyph-name="acute" unicode="&#xb4;" horiz-adv-x="500" d="M232 567 L446 660 L409 739 L209 621 L232 567 Z " />
<glyph glyph-name="mu" unicode="&#xb5;" horiz-adv-x="587" d="M1 -173 L144 -173 L185 69 C190 11 213 -13 260 -13 C310 -13 337 9 370 77 L357 0 L473 0 L557 497 L413 497 L369 235 C360 176 353 154 340 130 C323 100 294 82 264 82 C226 82 203 110 203 156 C203 175 204 185 213 235 L256 497 L113 497 L1 -173 Z " />
<glyph glyph-name="paragraph" unicode="&#xb6;" horiz-adv-x="587" d="M632 667 L361 667 L311 667 C246 666 246 666 234 665 C195 660 163 648 137 628 C90 593 64 535 64 465 C64 413 81 375 114 351 C143 331 171 325 246 325 L300 325 L322 325 L239 -167 L301 -167 L430 605 L490 605 L361 -167 L419 -167 L548 605 L622 605 L632 667 Z M332 385 L317 385 C271 385 249 388 233 394 C203 404 189 429 189 472 C189 519 205 561 230 582 C255 602 276 606 356 606 L369 606 L332 385 Z " />
<glyph glyph-name="periodcentered" unicode="&#xb7;" horiz-adv-x="177" d="M152 171 L177 322 L25 322 L0 171 L152 171 Z " />
<glyph glyph-name="cedilla" unicode="&#xb8;" horiz-adv-x="500" d="M231 0 L182 0 L136 -88 C147 -87 157 -86 163 -86 C191 -86 210 -98 210 -117 C210 -139 193 -153 169 -153 C151 -153 133 -147 106 -131 L83 -173 C118 -193 146 -201 180 -201 C245 -201 292 -163 292 -110 C292 -71 264 -47 220 -47 C217 -47 211 -48 205 -49 L231 0 Z " />
<glyph glyph-name="onesuperior" unicode="&#xb9;" horiz-adv-x="387" d="M382 349 L281 349 L336 677 L259 677 C233 640 190 620 128 618 L124 618 L113 618 L100 538 L123 538 C167 538 183 542 216 562 L180 349 L82 349 L68 267 L368 267 L382 349 Z " />
<glyph glyph-name="ordmasculine" unicode="&#xba;" horiz-adv-x="351" d="M236 682 C139 682 72 610 72 506 C72 427 131 370 213 370 C305 370 375 444 375 540 C375 624 318 682 236 682 L236 682 Z M234 619 C260 619 274 601 274 565 C274 528 264 479 252 457 C243 440 232 433 215 433 C187 433 174 450 174 488 C174 529 184 576 196 597 C205 612 218 619 234 619 L234 619 Z " />
<glyph glyph-name="guillemotright" unicode="&#xbb;" horiz-adv-x="345" d="M64 389 L97 250 L25 104 L75 104 L179 247 L111 389 L64 389 Z M197 389 L230 250 L157 104 L207 104 L312 247 L243 389 L197 389 Z " />
<glyph glyph-name="onequarter" unicode="&#xbc;" horiz-adv-x="880" d="M353 349 L252 349 L307 677 L230 677 C204 640 161 620 99 618 L95 618 L84 618 L71 538 L94 538 C138 538 154 542 187 562 L151 349 L53 349 L39 267 L339 267 L353 349 Z M249 0 L732 669 L639 669 L157 0 L249 0 Z M858 168 L795 168 L835 405 L716 405 L513 168 L501 91 L685 91 L670 0 L767 0 L782 91 L845 91 L858 168 Z M701 158 L584 158 L729 327 L701 158 Z " />
<glyph glyph-name="onehalf" unicode="&#xbd;" horiz-adv-x="880" d="M353 349 L252 349 L307 677 L230 677 C204 640 161 620 99 618 L95 618 L84 618 L71 538 L94 538 C138 538 154 542 187 562 L151 349 L53 349 L39 267 L339 267 L353 349 Z M249 0 L732 669 L639 669 L157 0 L249 0 Z M833 81 L628 81 C652 92 734 132 748 140 C829 183 861 223 861 280 C861 354 793 409 702 409 C617 409 556 360 532 274 L626 254 C637 302 661 327 698 327 C730 327 753 307 753 279 C753 237 715 208 509 91 L498 0 L821 0 L833 81 Z " />
<glyph glyph-name="threequarters" unicode="&#xbe;" horiz-adv-x="880" d="M17 383 C38 302 100 258 194 258 C291 258 360 309 360 382 C360 421 340 449 298 471 C347 486 373 518 373 564 C373 631 310 676 215 676 C136 676 82 643 51 576 L142 552 C159 587 177 600 211 600 C244 600 268 582 268 555 C268 524 246 510 196 510 L147 510 L137 437 L172 437 C195 437 206 436 216 433 C239 427 253 408 253 386 C253 356 227 336 188 336 C147 336 121 357 107 398 L17 383 Z M286 0 L769 669 L676 669 L194 0 L286 0 Z M868 168 L805 168 L845 405 L726 405 L523 168 L511 91 L695 91 L680 0 L777 0 L792 91 L856 91 L868 168 Z M711 158 L595 158 L739 327 L711 158 Z " />
<glyph glyph-name="questiondown" unicode="&#xbf;" horiz-adv-x="503" d="M194 344 L342 344 L367 493 L219 493 L194 344 Z M204 291 C199 239 188 221 141 190 C56 136 56 136 33 111 C3 78 -13 35 -13 -11 C-13 -125 78 -206 206 -206 C321 -206 413 -131 446 -10 L319 23 C301 -47 265 -85 216 -85 C171 -85 140 -55 140 -11 C140 22 156 47 198 78 C308 157 315 168 328 291 L204 291 Z " />
<glyph glyph-name="Agrave" unicode="&#xc0;" horiz-adv-x="615" d="M577 0 L465 667 L282 667 L-35 0 L109 0 L174 147 L396 147 L418 0 L577 0 Z M224 263 L341 530 L380 263 L224 263 Z M438 723 L465 778 L288 883 L244 806 L438 723 Z " />
<glyph glyph-name="Aacute" unicode="&#xc1;" horiz-adv-x="615" d="M577 0 L465 667 L282 667 L-35 0 L109 0 L174 147 L396 147 L418 0 L577 0 Z M224 263 L341 530 L380 263 L224 263 Z M330 723 L547 803 L510 883 L306 778 L330 723 Z " />
<glyph glyph-name="Acircumflex" unicode="&#xc2;" horiz-adv-x="615" d="M577 0 L465 667 L282 667 L-35 0 L109 0 L174 147 L396 147 L418 0 L577 0 Z M224 263 L341 530 L380 263 L224 263 Z M556 737 L402 877 L200 737 L302 727 L389 780 L453 727 L556 737 Z " />
<glyph glyph-name="Atilde" unicode="&#xc3;" horiz-adv-x="615" d="M577 0 L465 667 L282 667 L-35 0 L109 0 L174 147 L396 147 L418 0 L577 0 Z M224 263 L341 530 L380 263 L224 263 Z M535 859 C509 834 481 819 457 819 C446 819 429 824 410 834 C376 850 360 855 335 855 C297 855 259 839 217 803 L250 746 C278 767 301 777 322 777 C332 777 347 772 363 765 C409 743 416 741 443 741 C486 741 524 759 568 801 L535 859 Z " />
<glyph glyph-name="Adieresis" unicode="&#xc4;" horiz-adv-x="615" d="M577 0 L465 667 L282 667 L-35 0 L109 0 L174 147 L396 147 L418 0 L577 0 Z M224 263 L341 530 L380 263 L224 263 Z M300 856 C265 856 237 829 237 794 C237 759 264 733 300 733 C337 733 364 759 364 793 C364 830 337 856 300 856 L300 856 Z M480 856 C445 856 417 829 417 794 C417 759 444 733 480 733 C517 733 544 759 544 793 C544 830 517 856 480 856 L480 856 Z " />
<glyph glyph-name="Aring" unicode="&#xc5;" horiz-adv-x="615" d="M577 0 L465 667 L282 667 L-35 0 L109 0 L174 147 L396 147 L418 0 L577 0 Z M224 263 L341 530 L380 263 L224 263 Z M387 892 C332 892 288 850 288 799 C288 748 332 707 387 707 C442 707 487 748 487 798 C487 851 443 892 387 892 L387 892 Z M387 837 C410 837 427 822 427 800 C427 779 409 762 387 762 C365 762 348 779 348 800 C348 821 365 837 387 837 L387 837 Z " />
<glyph glyph-name="AE" unicode="&#xc6;" horiz-adv-x="842" d="M855 540 L876 667 L357 667 L-48 0 L85 0 L187 168 L350 168 L322 0 L770 0 L792 127 L490 127 L516 285 L763 285 L784 406 L536 406 L559 540 L855 540 Z M250 285 L414 551 L369 285 L250 285 Z " />
<glyph glyph-name="Ccedilla" unicode="&#xc7;" horiz-adv-x="622" d="M301 -12 L318 -12 C447 -12 545 68 594 216 L457 239 C427 150 390 116 323 116 C250 116 212 164 212 255 C212 323 226 395 251 456 C278 524 313 553 369 553 C432 553 471 507 471 432 C471 427 471 418 470 409 L622 416 C620 463 616 486 606 519 C573 620 486 680 369 680 C271 680 191 638 130 553 C79 483 46 376 46 281 C46 128 123 20 249 -7 L208 -93 C229 -89 239 -88 248 -88 C280 -88 299 -101 299 -123 C299 -147 276 -165 245 -165 C225 -165 207 -159 171 -143 L147 -184 C181 -206 221 -217 264 -217 C334 -217 389 -172 389 -115 C389 -76 356 -48 309 -48 C302 -48 295 -49 282 -50 L301 -12 Z " />
<glyph glyph-name="Egrave" unicode="&#xc8;" horiz-adv-x="571" d="M606 667 L137 667 L25 0 L500 0 L521 127 L202 127 L228 282 L490 282 L510 403 L248 403 L271 540 L585 540 L606 667 Z M442 723 L469 778 L292 883 L249 806 L442 723 Z " />
<glyph glyph-name="Eacute" unicode="&#xc9;" horiz-adv-x="571" d="M606 667 L137 667 L25 0 L500 0 L521 127 L202 127 L228 282 L490 282 L510 403 L248 403 L271 540 L585 540 L606 667 Z M332 723 L549 803 L512 883 L309 778 L332 723 Z " />
<glyph glyph-name="Ecircumflex" unicode="&#xca;" horiz-adv-x="571" d="M606 667 L137 667 L25 0 L500 0 L521 127 L202 127 L228 282 L490 282 L510 403 L248 403 L271 540 L585 540 L606 667 Z M560 737 L406 877 L204 737 L306 727 L394 780 L458 727 L560 737 Z " />
<glyph glyph-name="Edieresis" unicode="&#xcb;" horiz-adv-x="571" d="M606 667 L137 667 L25 0 L500 0 L521 127 L202 127 L228 282 L490 282 L510 403 L248 403 L271 540 L585 540 L606 667 Z M302 856 C267 856 239 829 239 794 C239 759 266 733 302 733 C339 733 366 759 366 793 C366 830 339 856 302 856 L302 856 Z M481 856 C446 856 418 829 418 794 C418 759 445 733 481 733 C518 733 545 759 545 793 C545 830 518 856 481 856 L481 856 Z " />
<glyph glyph-name="Igrave" unicode="&#xcc;" horiz-adv-x="287" d="M290 667 L136 667 L25 0 L178 0 L290 667 Z M274 723 L301 778 L134 883 L91 806 L274 723 Z " />
<glyph glyph-name="Iacute" unicode="&#xcd;" horiz-adv-x="287" d="M290 667 L137 667 L25 0 L178 0 L290 667 Z M173 723 L380 803 L343 883 L150 778 L173 723 Z " />
<glyph glyph-name="Icircumflex" unicode="&#xce;" horiz-adv-x="287" d="M290 667 L137 667 L25 0 L178 0 L290 667 Z M384 737 L247 877 L61 737 L160 727 L234 780 L285 727 L384 737 Z " />
<glyph glyph-name="Idieresis" unicode="&#xcf;" horiz-adv-x="287" d="M290 667 L137 667 L25 0 L178 0 L290 667 Z M158 854 C124 854 98 828 98 795 C98 762 124 737 157 737 C192 737 218 761 218 794 C218 829 193 854 158 854 L158 854 Z M311 854 C277 854 251 828 251 795 C251 762 277 737 310 737 C345 737 371 761 371 794 C371 829 346 854 311 854 L311 854 Z " />
<glyph glyph-name="Eth" unicode="&#xd0;" horiz-adv-x="653" d="M14 293 L74 293 L25 0 L258 0 C383 0 433 12 492 57 C579 123 628 234 628 362 C628 442 609 507 569 565 C517 640 455 667 333 667 L136 667 L91 393 L31 393 L14 293 Z M221 293 L347 293 L364 393 L237 393 L264 550 L332 550 C425 550 472 491 472 374 C472 300 452 226 421 183 C387 137 347 120 272 120 L192 120 L221 293 Z " />
<glyph glyph-name="Ntilde" unicode="&#xd1;" horiz-adv-x="652" d="M655 667 L531 667 L495 456 C477 340 467 274 466 260 L305 667 L137 667 L25 0 L150 0 L193 255 C217 400 223 444 225 483 L419 0 L544 0 L655 667 Z M565 859 C538 834 510 819 486 819 C476 819 458 824 439 834 C406 850 389 855 364 855 C326 855 288 839 246 803 L280 746 C307 767 330 777 351 777 C361 777 377 772 392 765 C438 743 446 741 472 741 C515 741 553 759 598 801 L565 859 Z " />
<glyph glyph-name="Ograve" unicode="&#xd2;" horiz-adv-x="643" d="M360 678 C252 678 160 619 104 515 C68 446 47 361 47 279 C47 105 151 -10 309 -10 C405 -10 484 30 541 108 C595 182 624 280 624 387 C624 563 520 678 360 678 L360 678 Z M361 555 C435 555 472 506 472 405 C472 344 461 284 439 222 C410 145 373 113 312 113 C238 113 200 163 200 258 C200 324 213 397 236 452 C264 522 304 555 361 555 L361 555 Z M458 723 L484 778 L308 883 L264 806 L458 723 Z " />
<glyph glyph-name="Oacute" unicode="&#xd3;" horiz-adv-x="643" d="M360 678 C252 678 160 619 104 515 C68 446 47 361 47 279 C47 105 151 -10 309 -10 C405 -10 484 30 541 108 C595 182 624 280 624 387 C624 563 520 678 360 678 L360 678 Z M361 555 C435 555 472 506 472 405 C472 344 461 284 439 222 C410 145 373 113 312 113 C238 113 200 163 200 258 C200 324 213 397 236 452 C264 522 304 555 361 555 L361 555 Z M345 723 L562 803 L526 883 L322 778 L345 723 Z " />
<glyph glyph-name="Ocircumflex" unicode="&#xd4;" horiz-adv-x="643" d="M360 678 C252 678 160 619 104 515 C68 446 47 361 47 279 C47 105 151 -10 309 -10 C405 -10 484 30 541 108 C595 182 624 280 624 387 C624 563 520 678 360 678 L360 678 Z M361 555 C435 555 472 506 472 405 C472 344 461 284 439 222 C410 145 373 113 312 113 C238 113 200 163 200 258 C200 324 213 397 236 452 C264 522 304 555 361 555 L361 555 Z M577 737 L423 877 L221 737 L323 727 L410 780 L475 727 L577 737 Z " />
<glyph glyph-name="Otilde" unicode="&#xd5;" horiz-adv-x="643" d="M360 678 C252 678 160 619 104 515 C68 446 47 361 47 279 C47 105 151 -10 309 -10 C405 -10 484 30 541 108 C595 182 624 280 624 387 C624 563 520 678 360 678 L360 678 Z M361 555 C435 555 472 506 472 405 C472 344 461 284 439 222 C410 145 373 113 312 113 C238 113 200 163 200 258 C200 324 213 397 236 452 C264 522 304 555 361 555 L361 555 Z M555 859 C528 834 500 819 477 819 C466 819 449 824 430 834 C396 850 379 855 354 855 C316 855 279 839 236 803 L270 746 C297 767 320 777 342 777 C351 777 367 772 382 765 C428 743 436 741 462 741 C505 741 543 759 588 801 L555 859 Z " />
<glyph glyph-name="Odieresis" unicode="&#xd6;" horiz-adv-x="643" d="M360 678 C252 678 160 619 104 515 C68 446 47 361 47 279 C47 105 151 -10 309 -10 C405 -10 484 30 541 108 C595 182 624 280 624 387 C624 563 520 678 360 678 L360 678 Z M361 555 C435 555 472 506 472 405 C472 344 461 284 439 222 C410 145 373 113 312 113 C238 113 200 163 200 258 C200 324 213 397 236 452 C264 522 304 555 361 555 L361 555 Z M319 856 C284 856 256 829 256 794 C256 759 283 733 319 733 C356 733 383 759 383 793 C383 830 356 856 319 856 L319 856 Z M499 856 C464 856 436 829 436 794 C436 759 463 733 499 733 C536 733 563 759 563 793 C563 830 536 856 499 856 L499 856 Z " />
<glyph glyph-name="multiply" unicode="&#xd7;" horiz-adv-x="587" d="M446 549 L308 412 L166 554 L91 479 L233 337 L96 200 L172 124 L309 262 L451 120 L526 195 L384 337 L521 474 L446 549 Z " />
<glyph glyph-name="Oslash" unicode="&#xd8;" horiz-adv-x="643" d="M642 721 L549 721 L495 641 C460 667 418 678 357 678 C258 678 176 632 118 543 C73 474 45 373 45 280 C45 199 66 134 114 70 L34 -53 L128 -53 L176 22 C223 -1 263 -10 311 -10 C424 -10 508 44 568 155 C604 220 624 301 624 378 C624 465 601 538 556 591 L642 721 Z M466 460 C470 434 471 422 471 401 C471 351 461 290 444 240 C414 147 377 113 306 113 C282 113 269 117 247 130 L466 460 Z M205 205 C199 232 198 243 198 264 C198 320 214 401 235 453 C263 521 304 554 362 554 C388 554 404 549 422 535 L205 205 Z " />
<glyph glyph-name="Ugrave" unicode="&#xd9;" horiz-adv-x="643" d="M656 667 L524 667 L464 312 C445 195 445 194 436 176 C420 142 380 121 328 121 C261 121 222 152 222 205 C222 224 225 251 229 278 L294 667 L130 667 L61 253 C57 230 55 206 55 188 C55 66 147 -6 303 -6 C435 -6 520 43 560 141 C572 171 575 182 593 295 L656 667 Z M463 723 L490 778 L313 883 L269 806 L463 723 Z " />
<glyph glyph-name="Uacute" unicode="&#xda;" horiz-adv-x="643" d="M656 667 L524 667 L464 312 C445 195 445 194 436 176 C420 142 380 121 328 121 C261 121 222 152 222 205 C222 224 225 251 229 278 L294 667 L130 667 L61 253 C57 230 55 206 55 188 C55 66 147 -6 303 -6 C435 -6 520 43 560 141 C572 171 575 182 593 295 L656 667 Z M357 723 L574 803 L537 883 L333 778 L357 723 Z " />
<glyph glyph-name="Ucircumflex" unicode="&#xdb;" horiz-adv-x="643" d="M656 667 L524 667 L464 312 C445 195 445 194 436 176 C420 142 380 121 328 121 C261 121 222 152 222 205 C222 224 225 251 229 278 L294 667 L130 667 L61 253 C57 230 55 206 55 188 C55 66 147 -6 303 -6 C435 -6 520 43 560 141 C572 171 575 182 593 295 L656 667 Z M579 737 L425 877 L223 737 L325 727 L413 780 L477 727 L579 737 Z " />
<glyph glyph-name="Udieresis" unicode="&#xdc;" horiz-adv-x="643" d="M656 667 L524 667 L464 312 C445 195 445 194 436 176 C420 142 380 121 328 121 C261 121 222 152 222 205 C222 224 225 251 229 278 L294 667 L130 667 L61 253 C57 230 55 206 55 188 C55 66 147 -6 303 -6 C435 -6 520 43 560 141 C572 171 575 182 593 295 L656 667 Z M323 856 C287 856 260 829 260 794 C260 759 287 733 323 733 C360 733 387 758 387 793 C387 830 360 856 323 856 L323 856 Z M503 856 C467 856 440 829 440 794 C440 759 467 733 503 733 C540 733 567 758 567 793 C567 830 540 856 503 856 L503 856 Z " />
<glyph glyph-name="Yacute" unicode="&#xdd;" horiz-adv-x="530" d="M624 667 L478 667 L305 403 L203 667 L37 667 L203 280 L156 0 L309 0 L356 280 L624 667 Z M300 723 L517 803 L480 883 L277 778 L300 723 Z " />
<glyph glyph-name="Thorn" unicode="&#xde;" horiz-adv-x="607" d="M178 0 L205 160 L347 160 C445 160 493 175 538 221 C578 261 602 323 602 384 C602 449 576 505 530 539 C491 567 448 577 360 577 L275 577 L290 667 L137 667 L25 0 L178 0 Z M255 458 L335 458 C380 458 405 453 422 439 C442 425 453 400 453 373 C453 313 411 277 340 277 L225 277 L255 458 Z " />
<glyph glyph-name="germandbls" unicode="&#xdf;" horiz-adv-x="624" d="M50 467 L32 356 L81 356 L13 -51 L166 -51 L243 410 C262 532 262 533 273 558 C289 596 322 617 367 617 C411 617 440 595 440 561 C440 515 398 485 332 481 C281 435 261 400 261 358 C261 319 285 287 328 267 C407 230 407 230 426 214 C444 200 453 182 453 164 C453 119 418 91 360 91 C329 91 304 97 278 112 L228 26 C271 4 319 -8 364 -8 C489 -8 593 87 593 203 C593 236 584 264 565 291 C542 324 483 363 414 388 C381 400 379 401 379 407 C379 413 387 417 403 420 C478 436 493 442 525 466 C564 495 587 535 587 576 C587 660 507 722 397 722 C314 722 233 690 182 638 C137 592 113 541 100 467 L50 467 Z " />
<glyph glyph-name="agrave" unicode="&#xe0;" horiz-adv-x="541" d="M453 0 C451 14 451 21 451 33 C451 60 454 85 461 127 L482 254 C495 334 496 340 496 362 C496 451 423 506 303 506 C177 506 96 455 61 354 L191 339 C212 394 239 415 291 415 C331 415 356 392 356 355 C356 341 354 329 347 311 C243 305 174 294 128 275 C51 244 11 192 11 123 C11 44 73 -13 159 -13 C232 -13 290 22 319 86 C319 77 318 73 317 62 C315 45 314 38 314 30 C314 22 314 22 315 0 L453 0 Z M336 241 C320 136 278 78 217 78 C184 78 161 103 161 139 C161 174 182 203 220 220 C246 232 277 237 336 241 L336 241 Z M379 567 L409 621 L233 739 L188 663 L379 567 Z " />
<glyph glyph-name="aacute" unicode="&#xe1;" horiz-adv-x="541" d="M453 0 C451 14 451 21 451 33 C451 60 454 85 461 127 L482 254 C495 334 496 340 496 362 C496 451 423 506 303 506 C177 506 96 455 61 354 L191 339 C212 394 239 415 291 415 C331 415 356 392 356 355 C356 341 354 329 347 311 C243 305 174 294 128 275 C51 244 11 192 11 123 C11 44 73 -13 159 -13 C232 -13 290 22 319 86 C319 77 318 73 317 62 C315 45 314 38 314 30 C314 22 314 22 315 0 L453 0 Z M336 241 C320 136 278 78 217 78 C184 78 161 103 161 139 C161 174 182 203 220 220 C246 232 277 237 336 241 L336 241 Z M275 567 L489 660 L452 739 L252 621 L275 567 Z " />
<glyph glyph-name="acircumflex" unicode="&#xe2;" horiz-adv-x="541" d="M453 0 C451 14 451 21 451 33 C451 60 454 85 461 127 L482 254 C495 334 496 340 496 362 C496 451 423 506 303 506 C177 506 96 455 61 354 L191 339 C212 394 239 415 291 415 C331 415 356 392 356 355 C356 341 354 329 347 311 C243 305 174 294 128 275 C51 244 11 192 11 123 C11 44 73 -13 159 -13 C232 -13 290 22 319 86 C319 77 318 73 317 62 C315 45 314 38 314 30 C314 22 314 22 315 0 L453 0 Z M336 241 C320 136 278 78 217 78 C184 78 161 103 161 139 C161 174 182 203 220 220 C246 232 277 237 336 241 L336 241 Z M497 580 L347 733 L142 580 L239 570 L334 637 L399 570 L497 580 Z " />
<glyph glyph-name="atilde" unicode="&#xe3;" horiz-adv-x="541" d="M453 0 C451 14 451 21 451 33 C451 60 454 85 461 127 L482 254 C495 334 496 340 496 362 C496 451 423 506 303 506 C177 506 96 455 61 354 L191 339 C212 394 239 415 291 415 C331 415 356 392 356 355 C356 341 354 329 347 311 C243 305 174 294 128 275 C51 244 11 192 11 123 C11 44 73 -13 159 -13 C232 -13 290 22 319 86 C319 77 318 73 317 62 C315 45 314 38 314 30 C314 22 314 22 315 0 L453 0 Z M336 241 C320 136 278 78 217 78 C184 78 161 103 161 139 C161 174 182 203 220 220 C246 232 277 237 336 241 L336 241 Z M465 696 C438 670 411 656 391 656 C381 656 365 661 347 671 C315 687 300 692 276 692 C240 692 205 676 165 641 L196 585 C222 606 243 616 264 616 C273 616 287 611 302 604 C344 583 352 580 376 580 C417 580 454 599 496 641 L465 696 Z " />
<glyph glyph-name="adieresis" unicode="&#xe4;" horiz-adv-x="541" d="M453 0 C451 14 451 21 451 33 C451 60 454 85 461 127 L482 254 C495 334 496 340 496 362 C496 451 423 506 303 506 C177 506 96 455 61 354 L191 339 C212 394 239 415 291 415 C331 415 356 392 356 355 C356 341 354 329 347 311 C243 305 174 294 128 275 C51 244 11 192 11 123 C11 44 73 -13 159 -13 C232 -13 290 22 319 86 C319 77 318 73 317 62 C315 45 314 38 314 30 C314 22 314 22 315 0 L453 0 Z M336 241 C320 136 278 78 217 78 C184 78 161 103 161 139 C161 174 182 203 220 220 C246 232 277 237 336 241 L336 241 Z M248 695 C215 695 190 670 190 638 C190 606 215 582 248 582 C282 582 307 605 307 637 C307 671 283 695 248 695 L248 695 Z M412 695 C379 695 354 670 354 638 C354 606 379 582 412 582 C446 582 471 605 471 637 C471 671 447 695 412 695 L412 695 Z " />
<glyph glyph-name="aring" unicode="&#xe5;" horiz-adv-x="541" d="M453 0 C451 14 451 21 451 33 C451 60 454 85 461 127 L482 254 C495 334 496 340 496 362 C496 451 423 506 303 506 C177 506 96 455 61 354 L191 339 C212 394 239 415 291 415 C331 415 356 392 356 355 C356 341 354 329 347 311 C243 305 174 294 128 275 C51 244 11 192 11 123 C11 44 73 -13 159 -13 C232 -13 290 22 319 86 C319 77 318 73 317 62 C315 45 314 38 314 30 C314 22 314 22 315 0 L453 0 Z M336 241 C320 136 278 78 217 78 C184 78 161 103 161 139 C161 174 182 203 220 220 C246 232 277 237 336 241 L336 241 Z M328 739 C277 739 236 698 236 648 C236 597 278 556 328 556 C381 556 424 597 424 647 C424 699 383 739 328 739 L328 739 Z M330 684 C352 684 369 668 369 647 C369 627 351 611 330 611 C309 611 291 628 291 647 C291 668 309 684 330 684 L330 684 Z " />
<glyph glyph-name="ae" unicode="&#xe6;" horiz-adv-x="840" d="M808 223 C812 248 813 263 813 280 C813 419 727 508 594 508 C536 508 499 496 452 462 C408 497 372 508 308 508 C234 508 170 488 127 453 C100 430 83 406 63 360 L196 342 C216 396 245 417 298 417 C341 417 366 395 366 358 C366 345 364 334 357 312 C211 301 197 299 148 285 C60 260 10 203 10 127 C10 45 73 -9 168 -9 C254 -9 313 25 358 99 C405 20 463 -13 555 -13 C666 -13 742 39 790 148 L664 168 C642 115 608 89 563 89 C509 89 474 127 474 185 C474 194 475 204 478 223 L808 223 Z M345 242 C324 135 282 81 222 81 C187 81 163 104 163 139 C163 178 186 208 228 224 C255 234 287 239 345 242 L345 242 Z M489 305 C505 379 542 416 597 416 C646 416 675 386 675 335 C675 330 674 316 673 305 L489 305 Z " />
<glyph glyph-name="ccedilla" unicode="&#xe7;" horiz-adv-x="507" d="M248 -10 C357 -9 437 56 476 175 L355 192 C336 132 306 104 263 104 C214 104 187 137 187 195 C187 241 197 297 211 331 C229 375 256 397 292 397 C335 397 366 362 366 314 C366 313 366 310 365 306 L494 314 C495 319 495 323 495 324 C495 356 484 392 465 422 C431 477 373 506 295 506 C201 506 125 464 78 386 C48 336 31 275 31 216 C31 97 94 15 201 -6 L159 -88 C169 -86 179 -85 185 -85 C213 -85 232 -98 232 -117 C232 -138 215 -153 191 -153 C173 -153 156 -147 128 -130 L105 -172 C140 -193 168 -201 202 -201 C267 -201 314 -163 314 -110 C314 -71 286 -47 242 -47 C239 -47 234 -47 227 -48 L248 -10 Z " />
<glyph glyph-name="egrave" unicode="&#xe8;" horiz-adv-x="527" d="M495 223 C498 246 500 273 500 284 C500 418 416 508 290 508 C213 508 148 478 101 421 C53 364 27 291 27 216 C27 79 115 -13 247 -13 C357 -13 438 44 477 148 L355 169 C334 115 303 90 256 90 C204 90 172 127 172 185 C172 195 173 204 174 223 L495 223 Z M185 305 C193 341 199 355 211 373 C229 400 259 416 290 416 C336 416 366 384 366 334 C366 325 366 318 364 305 L185 305 Z M367 567 L397 621 L221 739 L176 663 L367 567 Z " />
<glyph glyph-name="eacute" unicode="&#xe9;" horiz-adv-x="527" d="M495 223 C498 246 500 273 500 284 C500 418 416 508 290 508 C213 508 148 478 101 421 C53 364 27 291 27 216 C27 79 115 -13 247 -13 C357 -13 438 44 477 148 L355 169 C334 115 303 90 256 90 C204 90 172 127 172 185 C172 195 173 204 174 223 L495 223 Z M185 305 C193 341 199 355 211 373 C229 400 259 416 290 416 C336 416 366 384 366 334 C366 325 366 318 364 305 L185 305 Z M261 567 L475 660 L438 739 L238 621 L261 567 Z " />
<glyph glyph-name="ecircumflex" unicode="&#xea;" horiz-adv-x="527" d="M495 223 C498 246 500 273 500 284 C500 418 416 508 290 508 C213 508 148 478 101 421 C53 364 27 291 27 216 C27 79 115 -13 247 -13 C357 -13 438 44 477 148 L355 169 C334 115 303 90 256 90 C204 90 172 127 172 185 C172 195 173 204 174 223 L495 223 Z M185 305 C193 341 199 355 211 373 C229 400 259 416 290 416 C336 416 366 384 366 334 C366 325 366 318 364 305 L185 305 Z M491 580 L341 733 L136 580 L233 570 L328 637 L393 570 L491 580 Z " />
<glyph glyph-name="edieresis" unicode="&#xeb;" horiz-adv-x="527" d="M495 223 C498 246 500 273 500 284 C500 418 416 508 290 508 C213 508 148 478 101 421 C53 364 27 291 27 216 C27 79 115 -13 247 -13 C357 -13 438 44 477 148 L355 169 C334 115 303 90 256 90 C204 90 172 127 172 185 C172 195 173 204 174 223 L495 223 Z M185 305 C193 341 199 355 211 373 C229 400 259 416 290 416 C336 416 366 384 366 334 C366 325 366 318 364 305 L185 305 Z M241 695 C208 695 183 670 183 638 C183 606 208 582 241 582 C275 582 300 606 300 637 C300 671 275 695 241 695 L241 695 Z M405 695 C372 695 347 670 347 638 C347 606 372 582 405 582 C439 582 464 606 464 637 C464 671 439 695 405 695 L405 695 Z " />
<glyph glyph-name="igrave" unicode="&#xec;" horiz-adv-x="269" d="M251 497 L102 497 L19 0 L168 0 L251 497 Z M240 567 L270 621 L108 739 L63 663 L240 567 Z " />
<glyph glyph-name="iacute" unicode="&#xed;" horiz-adv-x="269" d="M251 497 L102 497 L19 0 L168 0 L251 497 Z M137 567 L334 660 L297 739 L114 621 L137 567 Z " />
<glyph glyph-name="icircumflex" unicode="&#xee;" horiz-adv-x="269" d="M251 497 L102 497 L19 0 L168 0 L251 497 Z M343 580 L213 733 L28 580 L122 570 L200 637 L249 570 L343 580 Z " />
<glyph glyph-name="idieresis" unicode="&#xef;" horiz-adv-x="269" d="M251 497 L102 497 L19 0 L168 0 L251 497 Z M125 693 C94 693 69 669 69 637 C69 606 93 583 125 583 C158 583 182 606 182 637 C182 670 158 693 125 693 L125 693 Z M272 693 C241 693 216 669 216 637 C216 606 240 583 272 583 C305 583 329 606 329 637 C329 670 305 693 272 693 L272 693 Z " />
<glyph glyph-name="eth" unicode="&#xf0;" horiz-adv-x="529" d="M194 583 L224 536 L314 577 C341 545 349 528 364 463 C330 490 305 499 264 499 C134 499 30 378 30 227 C30 84 116 -10 246 -10 C402 -10 505 117 505 308 C505 366 494 428 475 485 C457 538 437 571 397 617 L477 653 L439 697 L352 658 C318 681 263 701 215 708 L196 655 C233 642 245 637 273 619 L194 583 Z M284 402 C328 402 356 365 356 308 C356 253 344 190 325 143 C309 104 284 86 248 86 C199 86 176 120 176 193 C176 243 189 313 204 344 C222 381 251 402 284 402 L284 402 Z " />
<glyph glyph-name="ntilde" unicode="&#xf1;" horiz-adv-x="545" d="M237 497 L102 497 L19 0 L162 0 L203 246 C214 311 217 322 229 346 C245 377 275 397 305 397 C337 397 357 378 357 346 C357 337 356 326 350 290 L301 0 L444 0 L491 279 C502 346 503 352 503 371 C503 451 449 506 370 506 C308 506 257 471 221 403 L237 497 Z M463 696 C437 670 410 656 390 656 C379 656 363 661 345 671 C314 687 298 692 275 692 C239 692 203 676 163 641 L194 585 C220 606 242 616 262 616 C271 616 286 611 300 604 C343 583 351 580 375 580 C416 580 452 599 494 641 L463 696 Z " />
<glyph glyph-name="ograve" unicode="&#xf2;" horiz-adv-x="534" d="M287 509 C137 509 31 387 31 213 C31 84 122 -10 249 -10 C392 -10 503 115 503 276 C503 416 416 509 287 509 L287 509 Z M286 413 C333 413 358 380 358 318 C358 261 345 187 326 142 C311 105 286 86 252 86 C202 86 178 117 178 182 C178 248 192 322 213 365 C227 396 254 413 286 413 L286 413 Z M367 567 L397 621 L221 739 L177 663 L367 567 Z " />
<glyph glyph-name="oacute" unicode="&#xf3;" horiz-adv-x="534" d="M287 509 C137 509 31 387 31 213 C31 84 122 -10 249 -10 C392 -10 503 115 503 276 C503 416 416 509 287 509 L287 509 Z M286 413 C333 413 358 380 358 318 C358 261 345 187 326 142 C311 105 286 86 252 86 C202 86 178 117 178 182 C178 248 192 322 213 365 C227 396 254 413 286 413 L286 413 Z M265 567 L479 660 L442 739 L242 621 L265 567 Z " />
<glyph glyph-name="ocircumflex" unicode="&#xf4;" horiz-adv-x="534" d="M287 509 C137 509 31 387 31 213 C31 84 122 -10 249 -10 C392 -10 503 115 503 276 C503 416 416 509 287 509 L287 509 Z M286 413 C333 413 358 380 358 318 C358 261 345 187 326 142 C311 105 286 86 252 86 C202 86 178 117 178 182 C178 248 192 322 213 365 C227 396 254 413 286 413 L286 413 Z M494 580 L344 733 L140 580 L237 570 L331 637 L397 570 L494 580 Z " />
<glyph glyph-name="otilde" unicode="&#xf5;" horiz-adv-x="534" d="M287 509 C137 509 31 387 31 213 C31 84 122 -10 249 -10 C392 -10 503 115 503 276 C503 416 416 509 287 509 L287 509 Z M286 413 C333 413 358 380 358 318 C358 261 345 187 326 142 C311 105 286 86 252 86 C202 86 178 117 178 182 C178 248 192 322 213 365 C227 396 254 413 286 413 L286 413 Z M460 696 C433 670 406 656 386 656 C376 656 359 661 342 671 C310 687 295 692 271 692 C235 692 199 676 159 641 L191 585 C217 606 238 616 259 616 C268 616 282 611 297 604 C339 583 347 580 371 580 C412 580 449 599 491 641 L460 696 Z " />
<glyph glyph-name="odieresis" unicode="&#xf6;" horiz-adv-x="534" d="M287 509 C137 509 31 387 31 213 C31 84 122 -10 249 -10 C392 -10 503 115 503 276 C503 416 416 509 287 509 L287 509 Z M286 413 C333 413 358 380 358 318 C358 261 345 187 326 142 C311 105 286 86 252 86 C202 86 178 117 178 182 C178 248 192 322 213 365 C227 396 254 413 286 413 L286 413 Z M245 695 C212 695 187 670 187 638 C187 606 212 582 245 582 C279 582 304 605 304 637 C304 671 280 695 245 695 L245 695 Z M408 695 C375 695 350 670 350 638 C350 606 375 582 408 582 C442 582 467 605 467 637 C467 671 443 695 408 695 L408 695 Z " />
<glyph glyph-name="divide" unicode="&#xf7;" horiz-adv-x="587" d="M308 229 C271 229 241 200 241 163 C241 126 270 96 308 96 C344 96 374 126 374 163 C374 199 344 229 308 229 L308 229 Z M309 576 C271 576 241 547 241 510 C241 473 271 443 308 443 C344 443 374 473 374 510 C374 546 344 576 309 576 L309 576 Z M555 390 L61 390 L61 283 L555 283 L555 390 Z " />
<glyph glyph-name="oslash" unicode="&#xf8;" horiz-adv-x="534" d="M521 541 L445 541 L399 480 C371 498 326 509 282 509 C140 509 31 383 31 217 C31 149 52 93 94 51 L25 -43 L100 -43 L141 14 C181 -4 209 -10 248 -10 C339 -10 415 36 462 119 C490 169 503 216 503 270 C503 343 487 393 447 441 L521 541 Z M356 316 C356 256 351 217 337 168 C319 108 295 85 249 85 C231 85 221 88 202 100 L356 316 Z M179 172 C178 183 178 193 178 197 C178 231 186 284 197 323 C215 386 241 413 285 413 C307 413 324 406 336 393 L179 172 Z " />
<glyph glyph-name="ugrave" unicode="&#xf9;" horiz-adv-x="536" d="M518 497 L375 497 L335 258 C323 188 316 166 296 139 C278 116 254 103 230 103 C205 103 188 120 188 145 C188 150 190 168 194 190 L246 497 L102 497 L52 199 C43 142 42 135 42 117 C42 38 90 -11 168 -11 C232 -11 280 22 319 90 L304 0 L435 0 L518 497 Z M376 567 L406 621 L231 739 L186 663 L376 567 Z " />
<glyph glyph-name="uacute" unicode="&#xfa;" horiz-adv-x="536" d="M518 497 L375 497 L335 258 C323 188 316 166 296 139 C278 116 254 103 230 103 C205 103 188 120 188 145 C188 150 190 168 194 190 L246 497 L102 497 L52 199 C43 142 42 135 42 117 C42 38 90 -11 168 -11 C232 -11 280 22 319 90 L304 0 L435 0 L518 497 Z M272 567 L486 660 L449 739 L249 621 L272 567 Z " />
<glyph glyph-name="ucircumflex" unicode="&#xfb;" horiz-adv-x="536" d="M518 497 L375 497 L335 258 C323 188 316 166 296 139 C278 116 254 103 230 103 C205 103 188 120 188 145 C188 150 190 168 194 190 L246 497 L102 497 L52 199 C43 142 42 135 42 117 C42 38 90 -11 168 -11 C232 -11 280 22 319 90 L304 0 L435 0 L518 497 Z M498 580 L349 733 L144 580 L241 570 L336 637 L401 570 L498 580 Z " />
<glyph glyph-name="udieresis" unicode="&#xfc;" horiz-adv-x="536" d="M518 497 L375 497 L335 258 C323 188 316 166 296 139 C278 116 254 103 230 103 C205 103 188 120 188 145 C188 150 190 168 194 190 L246 497 L102 497 L52 199 C43 142 42 135 42 117 C42 38 90 -11 168 -11 C232 -11 280 22 319 90 L304 0 L435 0 L518 497 Z M252 695 C219 695 194 670 194 638 C194 606 219 582 252 582 C286 582 311 605 311 637 C311 671 287 695 252 695 L252 695 Z M415 695 C382 695 357 670 357 638 C357 606 382 582 415 582 C449 582 474 605 474 637 C474 671 450 695 415 695 L415 695 Z " />
<glyph glyph-name="yacute" unicode="&#xfd;" horiz-adv-x="450" d="M488 497 L376 497 L241 195 L182 497 L32 497 L146 6 C126 -50 104 -65 47 -65 C33 -65 28 -65 -13 -60 L-21 -171 C-7 -172 8 -173 33 -173 C90 -173 128 -163 157 -140 C199 -108 209 -92 266 28 L488 497 Z M235 567 L449 660 L412 739 L212 621 L235 567 Z " />
<glyph glyph-name="thorn" unicode="&#xfe;" horiz-adv-x="540" d="M133 -173 L174 73 C193 22 241 -10 301 -10 C419 -10 510 126 510 301 C510 423 450 504 359 504 C305 504 272 484 234 428 L274 667 L131 667 L-10 -173 L133 -173 Z M300 404 C338 404 363 372 363 324 C363 274 347 182 332 147 C315 108 291 88 261 88 C221 88 193 124 193 176 C193 198 203 263 213 311 C225 368 259 404 300 404 L300 404 Z " />
<glyph glyph-name="ydieresis" unicode="&#xff;" horiz-adv-x="450" d="M488 497 L376 497 L241 195 L182 497 L32 497 L146 6 C126 -50 104 -65 47 -65 C33 -65 28 -65 -13 -60 L-21 -171 C-7 -172 8 -173 33 -173 C90 -173 128 -163 157 -140 C199 -108 209 -92 266 28 L488 497 Z M208 695 C175 695 150 670 150 638 C150 606 175 582 208 582 C242 582 267 605 267 637 C267 671 243 695 208 695 L208 695 Z M372 695 C339 695 314 670 314 638 C314 606 339 582 372 582 C406 582 431 605 431 637 C431 671 407 695 372 695 L372 695 Z " />
<glyph glyph-name="Amacron" unicode="&#x100;" horiz-adv-x="615" d="M577 0 L465 667 L282 667 L-35 0 L109 0 L174 147 L396 147 L418 0 L577 0 Z M224 263 L341 530 L380 263 L224 263 Z M543 753 L555 825 L235 825 L223 753 L543 753 Z " />
<glyph glyph-name="amacron" unicode="&#x101;" horiz-adv-x="541" d="M453 0 C451 14 451 21 451 33 C451 60 454 85 461 127 L482 254 C495 334 496 340 496 362 C496 451 423 506 303 506 C177 506 96 455 61 354 L191 339 C212 394 239 415 291 415 C331 415 356 392 356 355 C356 341 354 329 347 311 C243 305 174 294 128 275 C51 244 11 192 11 123 C11 44 73 -13 159 -13 C232 -13 290 22 319 86 C319 77 318 73 317 62 C315 45 314 38 314 30 C314 22 314 22 315 0 L453 0 Z M336 241 C320 136 278 78 217 78 C184 78 161 103 161 139 C161 174 182 203 220 220 C246 232 277 237 336 241 L336 241 Z M479 600 L491 670 L184 670 L172 600 L479 600 Z " />
<glyph glyph-name="Abreve" unicode="&#x102;" horiz-adv-x="615" d="M577 0 L465 667 L282 667 L-35 0 L109 0 L174 147 L396 147 L418 0 L577 0 Z M224 263 L341 530 L380 263 L224 263 Z M246 865 C245 856 245 846 245 842 C245 772 298 729 384 729 C476 729 538 775 570 865 L487 865 C471 824 444 807 396 807 C349 807 329 824 329 865 L246 865 Z " />
<glyph glyph-name="abreve" unicode="&#x103;" horiz-adv-x="541" d="M453 0 C451 14 451 21 451 33 C451 60 454 85 461 127 L482 254 C495 334 496 340 496 362 C496 451 423 506 303 506 C177 506 96 455 61 354 L191 339 C212 394 239 415 291 415 C331 415 356 392 356 355 C356 341 354 329 347 311 C243 305 174 294 128 275 C51 244 11 192 11 123 C11 44 73 -13 159 -13 C232 -13 290 22 319 86 C319 77 318 73 317 62 C315 45 314 38 314 30 C314 22 314 22 315 0 L453 0 Z M336 241 C320 136 278 78 217 78 C184 78 161 103 161 139 C161 174 182 203 220 220 C246 232 277 237 336 241 L336 241 Z M193 717 C192 707 191 697 191 692 C191 622 243 577 324 577 C411 577 475 627 504 717 L427 717 C411 671 385 652 336 652 C292 652 269 671 269 709 L269 717 L193 717 Z " />
<glyph glyph-name="Aogonek" unicode="&#x104;" horiz-adv-x="615" d="M282 667 L-35 0 L109 0 L174 147 L396 147 L418 0 L507 0 C436 -29 406 -60 406 -105 C406 -153 446 -181 515 -181 C546 -181 571 -176 603 -162 L597 -118 C578 -125 568 -127 553 -127 C519 -127 500 -113 500 -88 C500 -54 524 -26 577 0 L465 667 L282 667 Z M224 263 L341 530 L380 263 L224 263 Z " />
<glyph glyph-name="aogonek" unicode="&#x105;" horiz-adv-x="541" d="M482 254 C495 334 496 340 496 362 C496 451 423 506 303 506 C177 506 96 455 61 354 L191 339 C212 394 239 415 291 415 C331 415 356 392 356 355 C356 341 354 329 347 311 C243 305 174 294 128 275 C51 244 11 192 11 123 C11 44 73 -13 159 -13 C232 -13 290 22 319 86 C319 77 318 73 317 62 C315 45 314 38 314 30 C314 22 314 22 315 0 L386 0 C319 -28 290 -59 290 -101 C290 -145 327 -171 388 -171 C421 -171 448 -165 473 -153 L467 -114 C443 -122 438 -123 428 -123 C397 -123 378 -108 378 -83 C378 -56 405 -26 453 0 C452 14 451 25 451 33 C451 60 454 85 461 127 L482 254 Z M336 241 C320 136 278 78 217 78 C184 78 161 103 161 139 C161 174 182 203 220 220 C246 232 277 237 336 241 L336 241 Z " />
<glyph glyph-name="Cacute" unicode="&#x106;" horiz-adv-x="622" d="M622 416 C620 465 616 487 606 519 C573 620 485 680 369 680 C271 680 191 638 130 553 C79 483 46 376 46 281 C46 191 77 106 129 55 C175 10 235 -12 310 -12 C448 -12 543 65 594 216 L457 239 C427 151 390 116 323 116 C250 116 212 164 212 255 C212 323 226 394 251 456 C278 524 313 553 369 553 C432 553 471 506 471 432 C471 427 471 418 470 409 L622 416 Z M347 723 L564 803 L527 883 L324 778 L347 723 Z " />
<glyph glyph-name="cacute" unicode="&#x107;" horiz-adv-x="507" d="M355 191 C336 132 306 104 262 104 C214 104 187 137 187 195 C187 241 197 296 211 331 C229 375 256 397 292 397 C335 397 368 359 366 313 C366 311 366 309 365 306 L494 314 C495 319 495 323 495 325 C495 355 484 392 465 422 C431 478 373 506 294 506 C201 506 125 464 78 386 C48 336 31 275 31 216 C31 80 116 -10 245 -10 C358 -10 433 50 477 175 L355 191 Z M268 567 L481 660 L444 739 L244 621 L268 567 Z " />
<glyph glyph-name="Ccircumflex" unicode="&#x108;" horiz-adv-x="622" d="M622 416 C620 465 616 487 606 519 C573 620 485 680 369 680 C271 680 191 638 130 553 C79 483 46 376 46 281 C46 191 77 106 129 55 C175 10 235 -12 310 -12 C448 -12 543 65 594 216 L457 239 C427 151 390 116 323 116 C250 116 212 164 212 255 C212 323 226 394 251 456 C278 524 313 553 369 553 C432 553 471 506 471 432 C471 427 471 418 470 409 L622 416 Z M575 737 L422 877 L219 737 L322 727 L409 780 L473 727 L575 737 Z " />
<glyph glyph-name="ccircumflex" unicode="&#x109;" horiz-adv-x="507" d="M355 191 C336 132 306 104 263 104 C214 104 187 137 187 195 C187 241 197 297 211 331 C229 375 256 397 292 397 C335 397 366 362 366 314 C366 313 366 309 365 306 L494 314 C495 319 495 323 495 324 C495 356 484 392 465 422 C431 477 373 506 295 506 C201 506 125 464 78 386 C48 336 31 275 31 216 C31 80 116 -10 244 -10 C358 -10 434 51 476 175 L355 191 Z M477 580 L327 733 L122 580 L219 570 L314 637 L379 570 L477 580 Z " />
<glyph glyph-name="Cdotaccent" unicode="&#x10a;" horiz-adv-x="622" d="M622 416 C620 465 616 487 606 519 C573 620 485 680 369 680 C271 680 191 638 130 553 C79 483 46 376 46 281 C46 191 77 106 129 55 C175 10 235 -12 310 -12 C448 -12 543 65 594 216 L457 239 C427 151 390 116 323 116 C250 116 212 164 212 255 C212 323 226 394 251 456 C278 524 313 553 369 553 C432 553 471 506 471 432 C471 427 471 418 470 409 L622 416 Z M407 856 C372 856 344 829 344 794 C344 759 371 733 407 733 C444 733 471 759 471 793 C471 830 444 856 407 856 L407 856 Z " />
<glyph glyph-name="cdotaccent" unicode="&#x10b;" horiz-adv-x="507" d="M355 191 C336 132 306 104 262 104 C214 104 187 137 187 195 C187 241 197 296 211 331 C229 375 256 397 292 397 C335 397 368 359 366 313 C366 311 366 309 365 306 L494 314 C495 319 495 323 495 325 C495 355 484 392 465 422 C431 478 373 506 294 506 C201 506 125 464 78 386 C48 336 31 275 31 216 C31 80 116 -10 245 -10 C358 -10 433 50 477 175 L355 191 Z M322 695 C289 695 264 670 264 638 C264 606 289 582 322 582 C356 582 381 606 381 637 C381 671 356 695 322 695 L322 695 Z " />
<glyph glyph-name="Ccaron" unicode="&#x10c;" horiz-adv-x="622" d="M622 416 C620 465 616 487 606 519 C573 620 485 680 369 680 C271 680 191 638 130 553 C79 483 46 376 46 281 C46 191 77 106 129 55 C175 10 235 -12 310 -12 C448 -12 543 65 594 216 L457 239 C427 151 390 116 323 116 C250 116 212 164 212 255 C212 323 226 394 251 456 C278 524 313 553 369 553 C432 553 471 506 471 432 C471 427 471 418 470 409 L622 416 Z M243 860 L397 720 L599 860 L497 870 L409 816 L345 870 L243 860 Z " />
<glyph glyph-name="ccaron" unicode="&#x10d;" horiz-adv-x="507" d="M355 191 C336 132 306 104 262 104 C214 104 187 137 187 195 C187 241 197 296 211 331 C229 375 256 397 292 397 C335 397 368 359 366 313 C366 311 366 309 365 306 L494 314 C495 319 495 323 495 325 C495 355 484 392 465 422 C431 478 373 506 294 506 C201 506 125 464 78 386 C48 336 31 275 31 216 C31 80 116 -10 245 -10 C358 -10 433 50 477 175 L355 191 Z M164 717 L314 563 L518 717 L421 727 L327 660 L261 727 L164 717 Z " />
<glyph glyph-name="Dcaron" unicode="&#x10e;" horiz-adv-x="653" d="M25 0 L258 -1 L272 -1 C339 0 339 0 363 4 C413 12 455 29 492 56 C576 120 628 236 628 362 C628 441 608 508 569 564 C518 637 449 667 333 667 L137 667 L25 0 Z M192 119 L263 549 L332 549 C425 549 472 490 472 374 C472 299 452 225 421 182 C387 136 347 119 272 119 L192 119 Z M212 860 L366 720 L568 860 L466 870 L378 816 L314 870 L212 860 Z " />
<glyph glyph-name="dcaron" unicode="&#x10f;" horiz-adv-x="654" d="M438 0 L550 667 L407 667 L365 415 C350 476 308 508 246 508 C183 508 133 479 93 419 C54 361 29 273 29 195 C29 67 89 -11 187 -11 C240 -11 279 15 317 77 L304 0 L438 0 Z M279 407 C318 407 347 370 347 320 C347 300 336 221 328 191 C313 127 281 92 238 92 C200 92 177 124 177 177 C177 230 190 304 207 348 C221 384 249 407 279 407 L279 407 Z M730 667 L617 667 L565 469 L618 469 L730 667 Z " />
<glyph glyph-name="Dcroat" unicode="&#x110;" horiz-adv-x="653" d="M14 293 L74 293 L25 0 L258 0 C383 0 433 12 492 57 C579 123 628 234 628 362 C628 442 609 507 569 565 C517 640 455 667 333 667 L136 667 L91 393 L31 393 L14 293 Z M221 293 L347 293 L364 393 L237 393 L264 550 L332 550 C425 550 472 491 472 374 C472 300 452 226 421 183 C387 137 347 120 272 120 L192 120 L221 293 Z " />
<glyph glyph-name="dcroat" unicode="&#x111;" horiz-adv-x="540" d="M438 0 L529 540 L586 540 L597 607 L540 607 L550 667 L407 667 L397 607 L270 607 L259 540 L386 540 L364 412 C349 473 308 504 244 504 C179 504 133 478 93 418 C54 361 29 273 29 195 C29 67 89 -11 187 -11 C240 -11 279 15 317 77 L304 0 L438 0 Z M279 406 C318 406 347 370 347 319 C347 299 336 221 328 191 C313 126 282 92 238 92 C200 92 177 124 177 177 C177 229 190 303 207 347 C221 383 249 406 279 406 L279 406 Z " />
<glyph glyph-name="Emacron" unicode="&#x112;" horiz-adv-x="571" d="M606 667 L136 667 L25 0 L500 0 L521 127 L202 127 L228 282 L490 282 L510 403 L248 403 L271 540 L585 540 L606 667 Z M545 753 L557 825 L237 825 L225 753 L545 753 Z " />
<glyph glyph-name="emacron" unicode="&#x113;" horiz-adv-x="527" d="M495 223 C498 246 500 273 500 284 C500 418 416 508 290 508 C213 508 148 478 101 421 C53 364 27 291 27 216 C27 79 115 -13 247 -13 C357 -13 438 44 477 148 L355 169 C334 115 303 90 256 90 C204 90 172 127 172 185 C172 195 173 204 174 223 L495 223 Z M185 305 C193 341 199 355 211 373 C229 400 259 416 290 416 C336 416 366 384 366 334 C366 325 366 318 364 305 L185 305 Z M471 600 L482 670 L176 670 L164 600 L471 600 Z " />
<glyph glyph-name="Ebreve" unicode="&#x114;" horiz-adv-x="571" d="M606 667 L137 667 L25 0 L500 0 L521 127 L202 127 L228 282 L490 282 L510 403 L248 403 L271 540 L585 540 L606 667 Z M244 865 C243 856 243 847 243 842 C243 772 296 729 382 729 C474 729 536 775 568 865 L485 865 C469 824 442 807 394 807 C346 807 327 823 327 865 L244 865 Z " />
<glyph glyph-name="ebreve" unicode="&#x115;" horiz-adv-x="527" d="M495 223 C498 246 500 273 500 284 C500 418 416 508 290 508 C213 508 148 478 101 421 C53 364 27 291 27 216 C27 79 115 -13 247 -13 C357 -13 438 44 477 148 L355 169 C334 115 303 90 256 90 C204 90 172 127 172 185 C172 195 173 204 174 223 L495 223 Z M185 305 C193 341 199 355 211 373 C229 400 259 416 290 416 C336 416 366 384 366 334 C366 325 366 318 364 305 L185 305 Z M185 717 C184 708 184 698 184 692 C184 622 236 577 316 577 C404 577 468 627 496 717 L420 717 C404 671 377 652 329 652 C284 652 263 670 262 709 L262 717 L185 717 Z " />
<glyph glyph-name="Edotaccent" unicode="&#x116;" horiz-adv-x="571" d="M606 667 L137 667 L25 0 L500 0 L521 127 L202 127 L228 282 L490 282 L510 403 L248 403 L271 540 L585 540 L606 667 Z M390 856 C355 856 327 829 327 794 C327 759 354 733 390 733 C427 733 454 759 454 793 C454 830 427 856 390 856 L390 856 Z " />
<glyph glyph-name="edotaccent" unicode="&#x117;" horiz-adv-x="527" d="M495 223 C498 246 500 273 500 284 C500 418 416 508 290 508 C213 508 148 478 101 421 C53 364 27 291 27 216 C27 79 115 -13 247 -13 C357 -13 438 44 477 148 L355 169 C334 115 303 90 256 90 C204 90 172 127 172 185 C172 195 173 204 174 223 L495 223 Z M185 305 C193 341 199 355 211 373 C229 400 259 416 290 416 C336 416 366 384 366 334 C366 325 366 318 364 305 L185 305 Z M325 695 C292 695 267 670 267 638 C267 606 292 582 325 582 C359 582 384 606 384 637 C384 671 359 695 325 695 L325 695 Z " />
<glyph glyph-name="Eogonek" unicode="&#x118;" horiz-adv-x="571" d="M521 127 L202 127 L228 282 L490 282 L510 403 L248 403 L271 540 L585 540 L606 667 L137 667 L25 0 L429 0 C359 -29 329 -60 329 -105 C329 -153 369 -181 438 -181 C468 -181 493 -176 526 -162 L520 -118 C500 -125 490 -127 476 -127 C442 -127 423 -113 423 -88 C423 -54 448 -26 500 0 L521 127 Z " />
<glyph glyph-name="eogonek" unicode="&#x119;" horiz-adv-x="527" d="M399 -110 C374 -119 369 -120 360 -120 C328 -120 309 -104 309 -78 C309 -54 327 -23 356 0 C430 58 455 89 477 148 L355 169 C335 116 303 90 256 90 C205 90 172 127 172 185 C172 195 173 204 174 223 L495 223 C498 246 500 273 500 284 C500 418 416 508 290 508 C213 508 148 478 101 421 C53 364 27 291 27 216 C27 83 116 -13 238 -13 C250 -13 273 -11 294 -9 C243 -35 221 -62 221 -99 C221 -141 259 -168 319 -168 C352 -168 379 -162 405 -150 L399 -110 Z M185 305 C193 341 199 355 211 373 C229 400 259 416 290 416 C336 416 366 384 366 334 C366 325 366 318 364 305 L185 305 Z " />
<glyph glyph-name="Ecaron" unicode="&#x11a;" horiz-adv-x="571" d="M606 667 L137 667 L25 0 L500 0 L521 127 L202 127 L228 282 L490 282 L510 403 L248 403 L271 540 L585 540 L606 667 Z M227 860 L381 720 L584 860 L481 870 L394 816 L330 870 L227 860 Z " />
<glyph glyph-name="ecaron" unicode="&#x11b;" horiz-adv-x="527" d="M495 223 C498 246 500 273 500 284 C500 418 416 508 290 508 C213 508 148 478 101 421 C53 364 27 291 27 216 C27 79 115 -13 247 -13 C357 -13 438 44 477 148 L355 169 C334 115 303 90 256 90 C204 90 172 127 172 185 C172 195 173 204 174 223 L495 223 Z M185 305 C193 341 199 355 211 373 C229 400 259 416 290 416 C336 416 366 384 366 334 C366 325 366 318 364 305 L185 305 Z M160 717 L310 563 L515 717 L417 727 L323 660 L257 727 L160 717 Z " />
<glyph glyph-name="Gcircumflex" unicode="&#x11c;" horiz-adv-x="658" d="M620 357 L340 357 L319 236 L457 236 C434 155 392 117 327 117 C247 117 203 168 203 259 C203 315 221 403 241 451 C271 521 316 556 373 556 C438 556 473 519 487 438 L631 461 C608 600 515 680 379 680 C185 680 46 510 46 274 C46 104 146 -9 296 -9 C374 -9 426 18 479 85 L497 -5 L559 -5 L620 357 Z M583 737 L429 877 L227 737 L329 727 L417 780 L481 727 L583 737 Z " />
<glyph glyph-name="gcircumflex" unicode="&#x11d;" horiz-adv-x="513" d="M447 607 L313 760 L125 607 L219 597 L300 664 L353 597 L447 607 Z M592 542 C568 549 552 552 533 552 C481 552 448 528 424 471 C379 497 336 508 280 508 C150 508 62 441 62 342 C62 296 79 265 118 238 C85 221 75 215 58 204 C28 182 12 152 12 115 C12 81 24 59 55 34 C-11 7 -38 -22 -38 -66 C-38 -96 -23 -122 5 -140 C39 -163 100 -174 196 -174 C299 -174 366 -161 411 -132 C453 -105 481 -56 481 -8 C481 52 441 100 379 115 C356 121 287 126 223 127 C171 127 150 138 150 162 C150 181 162 194 190 206 C236 199 251 197 275 197 C405 197 489 263 489 365 C489 387 485 401 472 425 C484 447 499 457 522 457 C535 457 547 454 571 447 L592 542 Z M285 427 C330 427 356 403 356 361 C356 308 322 274 266 274 C223 274 197 299 197 342 C197 394 231 427 285 427 L285 427 Z M193 -1 C296 -5 296 -5 314 -8 C334 -12 347 -26 347 -44 C347 -76 302 -93 220 -93 C136 -93 84 -74 84 -44 C84 -22 111 1 135 1 C139 1 144 1 152 0 L193 -1 Z " />
<glyph glyph-name="Gbreve" unicode="&#x11e;" horiz-adv-x="658" d="M620 357 L340 357 L319 236 L457 236 C434 155 392 117 327 117 C247 117 203 168 203 259 C203 315 221 403 241 451 C271 521 316 556 373 556 C438 556 473 519 487 438 L631 461 C608 600 515 680 379 680 C185 680 46 510 46 274 C46 104 146 -9 296 -9 C374 -9 426 18 479 85 L497 -5 L559 -5 L620 357 Z M267 865 C266 856 266 847 266 842 C266 772 319 729 405 729 C497 729 559 775 591 865 L508 865 C492 824 465 807 417 807 C369 807 350 823 350 865 L267 865 Z " />
<glyph glyph-name="gbreve" unicode="&#x11f;" horiz-adv-x="513" d="M592 542 C568 549 552 552 533 552 C481 552 448 528 424 471 C379 497 336 508 280 508 C150 508 62 441 62 342 C62 296 79 265 118 238 C85 221 75 215 58 204 C28 182 12 152 12 115 C12 81 24 59 55 34 C-11 7 -38 -22 -38 -66 C-38 -96 -23 -122 5 -140 C39 -163 100 -174 196 -174 C299 -174 366 -161 411 -132 C453 -105 481 -56 481 -8 C481 52 441 100 379 115 C356 121 287 126 223 127 C171 127 150 138 150 162 C150 181 162 194 190 206 C236 199 251 197 275 197 C405 197 489 263 489 365 C489 387 485 401 472 425 C484 447 499 457 522 457 C535 457 547 454 571 447 L592 542 Z M285 427 C330 427 356 403 356 361 C356 308 322 274 266 274 C223 274 197 299 197 342 C197 394 231 427 285 427 L285 427 Z M193 -1 C296 -5 296 -5 314 -8 C334 -12 347 -26 347 -44 C347 -76 302 -93 220 -93 C136 -93 84 -74 84 -44 C84 -22 111 1 135 1 C139 1 144 1 152 0 L193 -1 Z M163 723 C162 713 161 703 161 698 C161 631 213 584 287 584 C368 584 433 636 460 723 L384 723 C369 680 342 659 299 659 C262 659 239 680 239 715 L239 723 L163 723 Z " />
<glyph glyph-name="Gdotaccent" unicode="&#x120;" horiz-adv-x="658" d="M620 357 L340 357 L319 236 L457 236 C434 155 392 117 327 117 C247 117 203 168 203 259 C203 315 221 403 241 451 C271 521 316 556 373 556 C438 556 473 519 487 438 L631 461 C608 600 515 680 379 680 C185 680 46 510 46 274 C46 104 146 -9 296 -9 C374 -9 426 18 479 85 L497 -5 L559 -5 L620 357 Z M415 856 C380 856 352 829 352 794 C352 759 379 733 415 733 C452 733 479 759 479 793 C479 830 452 856 415 856 L415 856 Z " />
<glyph glyph-name="gdotaccent" unicode="&#x121;" horiz-adv-x="513" d="M297 695 C264 695 239 670 239 638 C239 606 264 582 297 582 C331 582 356 605 356 637 C356 671 332 695 297 695 L297 695 Z M592 542 C568 549 552 552 533 552 C481 552 448 528 424 471 C379 497 336 508 280 508 C150 508 62 441 62 342 C62 296 79 265 118 238 C85 221 75 215 58 204 C28 182 12 152 12 115 C12 81 24 59 55 34 C-11 7 -38 -22 -38 -66 C-38 -96 -23 -122 5 -140 C39 -163 100 -174 196 -174 C299 -174 366 -161 411 -132 C453 -105 481 -56 481 -8 C481 52 441 100 379 115 C356 121 287 126 223 127 C171 127 150 138 150 162 C150 181 162 194 190 206 C236 199 251 197 275 197 C405 197 489 263 489 365 C489 387 485 401 472 425 C484 447 499 457 522 457 C535 457 547 454 571 447 L592 542 Z M285 427 C330 427 356 403 356 361 C356 308 322 274 266 274 C223 274 197 299 197 342 C197 394 231 427 285 427 L285 427 Z M193 -1 C296 -5 296 -5 314 -8 C334 -12 347 -26 347 -44 C347 -76 302 -93 220 -93 C136 -93 84 -74 84 -44 C84 -22 111 1 135 1 C139 1 144 1 152 0 L193 -1 Z " />
<glyph glyph-name="Gcommaaccent" unicode="&#x122;" horiz-adv-x="658" d="M620 357 L340 357 L319 236 L457 236 C434 155 392 117 327 117 C247 117 203 168 203 259 C203 315 221 403 241 451 C271 521 316 556 373 556 C438 556 473 519 487 438 L631 461 C608 600 515 680 379 680 C185 680 46 510 46 274 C46 104 146 -9 296 -9 C374 -9 426 18 479 85 L497 -5 L559 -5 L620 357 Z M359 -53 L239 -53 L189 -241 L243 -241 L359 -53 Z " />
<glyph glyph-name="gcommaaccent" unicode="&#x123;" horiz-adv-x="513" d="M235 576 L349 576 L401 763 L347 763 L235 576 Z M592 542 C568 549 552 552 533 552 C481 552 448 528 424 471 C379 497 336 508 280 508 C150 508 62 441 62 342 C62 296 79 265 118 238 C85 221 75 215 58 204 C28 182 12 152 12 115 C12 81 24 59 55 34 C-11 7 -38 -22 -38 -66 C-38 -96 -23 -122 5 -140 C39 -163 100 -174 196 -174 C299 -174 366 -161 411 -132 C453 -105 481 -56 481 -8 C481 52 441 100 379 115 C356 121 287 126 223 127 C171 127 150 138 150 162 C150 181 162 194 190 206 C236 199 251 197 275 197 C405 197 489 263 489 365 C489 387 485 401 472 425 C484 447 499 457 522 457 C535 457 547 454 571 447 L592 542 Z M285 427 C330 427 356 403 356 361 C356 308 322 274 266 274 C223 274 197 299 197 342 C197 394 231 427 285 427 L285 427 Z M193 -1 C296 -5 296 -5 314 -8 C334 -12 347 -26 347 -44 C347 -76 302 -93 220 -93 C136 -93 84 -74 84 -44 C84 -22 111 1 135 1 C139 1 144 1 152 0 L193 -1 Z " />
<glyph glyph-name="Hcircumflex" unicode="&#x124;" horiz-adv-x="642" d="M645 667 L499 667 L455 405 L239 405 L283 667 L137 667 L25 0 L172 0 L218 278 L434 278 L387 0 L534 0 L645 667 Z M578 737 L424 877 L222 737 L324 727 L412 780 L476 727 L578 737 Z " />
<glyph glyph-name="hcircumflex" unicode="&#x125;" horiz-adv-x="547" d="M446 0 L489 262 C503 345 504 351 504 377 C504 454 450 506 372 506 C314 506 270 480 233 424 L274 667 L131 667 L19 0 L162 0 L202 238 C216 321 218 330 233 353 C249 380 274 395 303 395 C334 395 357 374 357 345 C357 333 356 319 353 302 L302 0 L446 0 Z M397 737 L243 877 L41 737 L143 727 L230 780 L295 727 L397 737 Z " />
<glyph glyph-name="Hbar" unicode="&#x126;" horiz-adv-x="642" d="M692 590 L632 590 L645 667 L499 667 L486 590 L270 590 L283 667 L137 667 L124 590 L64 590 L47 490 L107 490 L25 0 L172 0 L218 278 L434 278 L387 0 L534 0 L616 490 L676 490 L692 590 Z M254 490 L469 490 L455 405 L239 405 L254 490 Z " />
<glyph glyph-name="hbar" unicode="&#x127;" horiz-adv-x="547" d="M53 540 L109 540 L19 0 L162 0 L202 238 C216 320 218 329 233 352 C249 379 274 394 303 394 C334 394 357 373 357 344 C357 333 356 319 353 302 L302 0 L446 0 L489 262 C504 350 504 350 504 377 C504 453 453 502 374 502 C313 502 270 477 233 421 L253 540 L379 540 L391 607 L264 607 L274 667 L131 667 L121 607 L64 607 L53 540 Z " />
<glyph glyph-name="Itilde" unicode="&#x128;" horiz-adv-x="287" d="M290 667 L137 667 L25 0 L178 0 L290 667 Z M375 859 C348 834 320 819 297 819 C286 819 269 824 250 834 C216 850 199 855 174 855 C136 855 99 839 56 803 L90 746 C117 767 140 777 162 777 C171 777 187 772 202 765 C248 743 256 741 282 741 C325 741 363 759 408 801 L375 859 Z " />
<glyph glyph-name="itilde" unicode="&#x129;" horiz-adv-x="269" d="M251 497 L102 497 L19 0 L168 0 L251 497 Z M329 696 C302 670 275 656 255 656 C245 656 228 661 211 671 C179 687 164 692 140 692 C104 692 69 676 28 641 L60 585 C86 606 107 616 128 616 C137 616 151 611 166 604 C208 583 216 580 240 580 C281 580 318 599 360 641 L329 696 Z " />
<glyph glyph-name="Imacron" unicode="&#x12a;" horiz-adv-x="287" d="M290 667 L136 667 L25 0 L178 0 L290 667 Z M361 753 L373 825 L106 825 L94 753 L361 753 Z " />
<glyph glyph-name="imacron" unicode="&#x12b;" horiz-adv-x="269" d="M251 497 L102 497 L19 0 L168 0 L251 497 Z M320 600 L331 670 L78 670 L66 600 L320 600 Z " />
<glyph glyph-name="Ibreve" unicode="&#x12c;" horiz-adv-x="287" d="M290 667 L137 667 L25 0 L178 0 L290 667 Z M83 865 C82 856 82 847 82 842 C82 772 135 729 221 729 C313 729 375 775 407 865 L324 865 C308 824 281 807 233 807 C185 807 166 824 166 865 L83 865 Z " />
<glyph glyph-name="ibreve" unicode="&#x12d;" horiz-adv-x="269" d="M251 497 L102 497 L19 0 L168 0 L251 497 Z M76 713 C75 704 74 696 74 693 C74 625 123 578 195 578 C269 578 325 624 360 713 L283 713 C265 670 241 651 205 651 C169 651 152 672 152 713 L76 713 Z " />
<glyph glyph-name="Iogonek" unicode="&#x12e;" horiz-adv-x="287" d="M290 667 L136 667 L25 0 L111 0 C44 -29 14 -62 14 -105 C14 -152 55 -181 119 -181 C144 -181 163 -176 197 -162 L192 -118 C168 -126 163 -127 156 -127 C127 -127 108 -111 108 -87 C108 -58 127 -34 178 0 L290 667 Z " />
<glyph glyph-name="iogonek" unicode="&#x12f;" horiz-adv-x="269" d="M251 497 L102 497 L18 0 L101 0 C68 -18 68 -18 59 -25 C32 -43 14 -75 14 -102 C14 -143 52 -171 107 -171 C132 -171 155 -166 181 -153 L175 -114 C156 -120 150 -121 141 -121 C117 -121 102 -106 102 -82 C102 -59 126 -30 168 0 L251 497 Z M281 675 L131 675 L108 534 L257 534 L281 675 Z " />
<glyph glyph-name="Idotaccent" unicode="&#x130;" horiz-adv-x="287" d="M290 667 L137 667 L25 0 L178 0 L290 667 Z M230 856 C195 856 167 829 167 794 C167 759 194 733 230 733 C267 733 294 759 294 793 C294 830 267 856 230 856 L230 856 Z " />
<glyph glyph-name="dotlessi" unicode="&#x131;" horiz-adv-x="269" d="M251 497 L102 497 L19 0 L168 0 L251 497 Z " />
<glyph glyph-name="IJ" unicode="&#x132;" horiz-adv-x="673" d="M290 667 L137 667 L25 0 L178 0 L290 667 Z M683 667 L532 667 L473 310 C454 200 454 200 453 194 C448 170 439 150 430 140 C412 121 382 112 333 112 C310 112 296 113 268 118 L249 0 C299 -9 322 -11 360 -11 C432 -11 486 4 527 35 C573 70 589 103 606 204 L683 667 Z " />
<glyph glyph-name="ij" unicode="&#x133;" horiz-adv-x="534" d="M251 497 L102 497 L19 0 L168 0 L251 497 Z M281 675 L132 675 L108 534 L258 534 L281 675 Z M516 497 L368 497 L299 87 C280 -28 280 -28 270 -42 C260 -57 240 -64 213 -64 C204 -64 198 -63 184 -61 L168 -175 C213 -181 231 -182 255 -182 C314 -182 358 -165 386 -130 C412 -98 422 -63 443 63 L516 497 Z M522 533 L546 675 L398 675 L374 533 L522 533 Z " />
<glyph glyph-name="Jcircumflex" unicode="&#x134;" horiz-adv-x="390" d="M400 667 L249 667 L189 310 C177 237 170 198 170 194 C164 170 155 150 146 140 C128 121 98 112 49 112 C26 112 13 113 -15 118 L-34 0 C15 -9 39 -11 76 -11 C149 -11 202 4 244 35 C290 70 305 103 322 204 L400 667 Z M508 737 L354 877 L152 737 L254 727 L341 780 L406 727 L508 737 Z " />
<glyph glyph-name="jcircumflex" unicode="&#x135;" horiz-adv-x="268" d="M249 497 L101 497 L33 87 C13 -28 13 -28 3 -42 C-7 -57 -26 -64 -54 -64 C-62 -64 -69 -63 -83 -61 L-99 -175 C-53 -181 -36 -182 -12 -182 C48 -182 91 -165 120 -130 C145 -98 156 -63 177 63 L249 497 Z M356 580 L206 733 L1 580 L98 570 L193 637 L258 570 L356 580 Z " />
<glyph glyph-name="Kcommaaccent" unicode="&#x136;" horiz-adv-x="625" d="M654 667 L497 667 L283 420 C278 413 267 400 252 380 C246 372 238 362 231 353 L283 667 L137 667 L25 0 L172 0 L198 160 L330 310 L414 0 L572 0 L443 427 L654 667 Z M344 -53 L224 -53 L174 -241 L228 -241 L344 -53 Z " />
<glyph glyph-name="kcommaaccent" unicode="&#x137;" horiz-adv-x="541" d="M573 497 L420 497 L207 278 L272 667 L131 667 L19 0 L162 0 L184 130 L287 228 L357 0 L507 0 L400 329 L573 497 Z M309 -53 L195 -53 L143 -241 L196 -241 L309 -53 Z " />
<glyph glyph-name="kgreenlandic" unicode="&#x138;" horiz-adv-x="541" d="M573 497 L420 497 L207 278 L243 497 L102 497 L19 0 L162 0 L184 130 L287 228 L357 0 L507 0 L400 329 L573 497 Z " />
<glyph glyph-name="Lacute" unicode="&#x139;" horiz-adv-x="489" d="M290 667 L137 667 L25 0 L440 0 L462 127 L200 127 L290 667 Z M176 723 L393 803 L357 883 L153 778 L176 723 Z " />
<glyph glyph-name="lacute" unicode="&#x13a;" horiz-adv-x="263" d="M274 667 L131 667 L19 0 L162 0 L274 667 Z M165 723 L372 803 L336 883 L142 778 L165 723 Z " />
<glyph glyph-name="Lcommaaccent" unicode="&#x13b;" horiz-adv-x="489" d="M290 667 L137 667 L25 0 L440 0 L462 127 L200 127 L290 667 Z M288 -53 L168 -53 L118 -241 L172 -241 L288 -53 Z " />
<glyph glyph-name="lcommaaccent" unicode="&#x13c;" horiz-adv-x="263" d="M273 667 L130 667 L18 0 L162 0 L273 667 Z M142 -53 L28 -53 L-24 -241 L29 -241 L142 -53 Z " />
<glyph glyph-name="Lcaron" unicode="&#x13d;" horiz-adv-x="489" d="M290 667 L137 667 L25 0 L440 0 L462 127 L200 127 L290 667 Z M517 667 L397 667 L347 469 L401 469 L517 667 Z " />
<glyph glyph-name="lcaron" unicode="&#x13e;" horiz-adv-x="377" d="M274 667 L131 667 L19 0 L162 0 L274 667 Z M454 667 L341 667 L289 469 L342 469 L454 667 Z " />
<glyph glyph-name="Ldot" unicode="&#x13f;" horiz-adv-x="489" d="M290 667 L137 667 L25 0 L440 0 L462 127 L200 127 L290 667 Z M465 265 L490 416 L338 416 L313 265 L465 265 Z " />
<glyph glyph-name="ldot" unicode="&#x140;" horiz-adv-x="415" d="M274 667 L131 667 L19 0 L162 0 L274 667 Z M417 266 L442 415 L293 415 L268 266 L417 266 Z " />
<glyph glyph-name="Lslash" unicode="&#x141;" horiz-adv-x="486" d="M290 667 L137 667 L84 351 L14 292 L-7 166 L63 225 L25 0 L441 0 L462 127 L200 127 L232 318 L375 437 L396 564 L253 445 L290 667 Z " />
<glyph glyph-name="lslash" unicode="&#x142;" horiz-adv-x="277" d="M296 402 L312 495 L243 444 L281 667 L137 667 L87 369 L19 317 L3 223 L72 276 L26 0 L169 0 L228 350 L296 402 Z " />
<glyph glyph-name="Nacute" unicode="&#x143;" horiz-adv-x="652" d="M655 667 L531 667 L495 456 C477 340 467 274 466 260 L305 667 L137 667 L25 0 L150 0 L193 255 C217 400 223 444 225 483 L419 0 L544 0 L655 667 Z M358 723 L575 803 L538 883 L335 778 L358 723 Z " />
<glyph glyph-name="nacute" unicode="&#x144;" horiz-adv-x="545" d="M237 497 L102 497 L19 0 L162 0 L203 246 C214 311 217 322 229 346 C245 377 275 397 305 397 C337 397 357 378 357 346 C357 337 356 326 350 290 L301 0 L444 0 L491 279 C502 346 503 352 503 371 C503 451 449 506 370 506 C308 506 257 471 221 403 L237 497 Z M272 567 L486 660 L449 739 L249 621 L272 567 Z " />
<glyph glyph-name="Ncommaaccent" unicode="&#x145;" horiz-adv-x="652" d="M655 667 L531 667 L495 456 C477 340 467 274 466 260 L305 667 L137 667 L25 0 L150 0 L193 255 C217 400 223 444 225 483 L419 0 L544 0 L655 667 Z M345 -53 L225 -53 L175 -241 L229 -241 L345 -53 Z " />
<glyph glyph-name="ncommaaccent" unicode="&#x146;" horiz-adv-x="545" d="M237 497 L102 497 L19 0 L162 0 L203 246 C214 311 217 322 229 346 C245 377 275 397 305 397 C337 397 357 378 357 346 C357 337 356 326 350 290 L301 0 L444 0 L491 279 C502 346 503 352 503 371 C503 451 449 506 370 506 C308 506 257 471 221 403 L237 497 Z M283 -53 L170 -53 L118 -241 L171 -241 L283 -53 Z " />
<glyph glyph-name="Ncaron" unicode="&#x147;" horiz-adv-x="652" d="M655 667 L531 667 L495 456 C477 340 467 274 466 260 L305 667 L137 667 L25 0 L150 0 L193 255 C217 400 223 444 225 483 L419 0 L544 0 L655 667 Z M254 860 L408 720 L610 860 L508 870 L420 816 L356 870 L254 860 Z " />
<glyph glyph-name="ncaron" unicode="&#x148;" horiz-adv-x="545" d="M237 497 L102 497 L19 0 L162 0 L203 246 C214 311 217 322 229 346 C245 377 275 397 305 397 C337 397 357 378 357 346 C357 337 356 326 350 290 L301 0 L444 0 L491 279 C502 346 503 352 503 371 C503 451 449 506 370 506 C308 506 257 471 221 403 L237 497 Z M166 717 L316 563 L520 717 L423 727 L328 660 L263 727 L166 717 Z " />
<glyph glyph-name="napostrophe" unicode="&#x149;" horiz-adv-x="726" d="M261 667 L127 667 L103 524 L164 524 L69 384 L124 384 L239 536 L261 667 Z M417 497 L283 497 L200 0 L343 0 L384 246 C395 311 398 322 410 346 C425 377 455 397 486 397 C517 397 537 378 537 346 C537 336 535 318 530 290 L482 0 L625 0 L672 279 C680 332 683 353 683 371 C683 451 629 506 551 506 C488 506 437 471 402 403 L417 497 Z " />
<glyph glyph-name="Eng" unicode="&#x14a;" horiz-adv-x="642" d="M272 667 L137 667 L25 0 L172 0 L227 330 C243 428 247 443 266 479 C290 525 335 555 382 555 C432 555 463 525 463 476 C463 461 460 435 452 389 L411 146 C384 -13 384 -13 370 -32 C355 -53 327 -63 288 -63 C275 -63 267 -62 249 -59 L234 -172 C289 -180 308 -182 337 -182 C418 -182 475 -147 505 -81 C526 -31 533 -1 558 146 L596 375 C609 451 612 474 612 500 C612 605 543 678 442 678 C362 678 297 631 250 540 L272 667 Z " />
<glyph glyph-name="eng" unicode="&#x14b;" horiz-adv-x="545" d="M237 497 L102 497 L19 0 L162 0 L203 246 C214 311 217 322 229 346 C245 377 275 397 305 397 C337 397 357 378 357 346 C357 337 356 326 350 290 L316 87 C295 -29 295 -29 285 -42 C274 -57 254 -64 224 -64 C215 -64 209 -63 195 -61 L179 -175 C225 -181 242 -182 266 -182 C326 -182 369 -165 398 -130 C423 -98 434 -64 455 63 L491 279 C502 346 503 352 503 371 C503 451 449 506 370 506 C308 506 257 471 221 403 L237 497 Z " />
<glyph glyph-name="Omacron" unicode="&#x14c;" horiz-adv-x="643" d="M360 678 C252 678 160 619 104 515 C68 446 47 361 47 279 C47 105 151 -10 309 -10 C405 -10 484 30 541 108 C595 182 624 280 624 387 C624 563 520 678 360 678 L360 678 Z M361 555 C435 555 472 506 472 405 C472 344 461 284 439 222 C410 145 373 113 312 113 C238 113 200 163 200 258 C200 324 213 397 236 452 C264 522 304 555 361 555 L361 555 Z M561 753 L573 825 L253 825 L241 753 L561 753 Z " />
<glyph glyph-name="omacron" unicode="&#x14d;" horiz-adv-x="534" d="M287 509 C137 509 31 387 31 213 C31 84 122 -10 249 -10 C392 -10 503 115 503 276 C503 416 416 509 287 509 L287 509 Z M286 413 C333 413 358 380 358 318 C358 261 345 187 326 142 C311 105 286 86 252 86 C202 86 178 117 178 182 C178 248 192 322 213 365 C227 396 254 413 286 413 L286 413 Z M474 600 L486 670 L179 670 L168 600 L474 600 Z " />
<glyph glyph-name="Obreve" unicode="&#x14e;" horiz-adv-x="643" d="M360 678 C252 678 160 619 104 515 C68 446 47 361 47 280 C47 105 151 -10 309 -10 C405 -10 484 30 541 108 C595 182 624 280 624 387 C624 563 520 678 360 678 L360 678 Z M361 555 C436 555 472 506 472 405 C472 344 461 284 439 222 C410 145 373 113 312 113 C239 113 201 163 201 258 C201 325 214 396 237 452 C265 522 305 555 361 555 L361 555 Z M251 865 C250 856 250 847 250 842 C250 772 303 729 389 729 C481 729 543 775 575 865 L492 865 C476 824 449 807 401 807 C353 807 334 824 334 865 L251 865 Z " />
<glyph glyph-name="obreve" unicode="&#x14f;" horiz-adv-x="534" d="M287 509 C137 509 31 387 31 213 C31 84 122 -10 249 -10 C392 -10 503 115 503 276 C503 416 416 509 287 509 L287 509 Z M286 413 C333 413 358 381 358 319 C358 262 344 187 326 142 C311 105 286 86 252 86 C202 86 178 117 178 182 C178 248 192 322 213 365 C227 396 254 413 286 413 L286 413 Z M171 717 C170 707 169 697 169 692 C169 622 221 577 302 577 C389 577 454 627 482 717 L405 717 C390 671 363 652 314 652 C270 652 247 671 247 709 L247 717 L171 717 Z " />
<glyph glyph-name="Ohungarumlaut" unicode="&#x150;" horiz-adv-x="643" d="M360 678 C252 678 160 619 104 515 C68 446 47 361 47 279 C47 105 151 -10 309 -10 C405 -10 484 30 541 108 C595 182 624 280 624 387 C624 563 520 678 360 678 L360 678 Z M361 555 C435 555 472 506 472 405 C472 344 461 284 439 222 C410 145 373 113 312 113 C238 113 200 163 200 258 C200 324 213 397 236 452 C264 522 304 555 361 555 L361 555 Z M301 723 L475 816 L432 883 L271 768 L301 723 Z M478 723 L652 816 L608 883 L448 768 L478 723 Z " />
<glyph glyph-name="ohungarumlaut" unicode="&#x151;" horiz-adv-x="534" d="M287 509 C137 509 31 387 31 213 C31 84 122 -10 249 -10 C392 -10 503 115 503 276 C503 416 416 509 287 509 L287 509 Z M286 413 C333 413 358 380 358 318 C358 261 345 187 326 142 C311 105 286 86 252 86 C202 86 178 117 178 182 C178 248 192 322 213 365 C227 396 254 413 286 413 L286 413 Z M210 567 L387 673 L344 739 L182 613 L210 567 Z M380 567 L557 673 L514 739 L352 613 L380 567 Z " />
<glyph glyph-name="OE" unicode="&#x152;" horiz-adv-x="909" d="M837 0 L859 127 L554 127 L580 283 L831 283 L851 404 L600 404 L623 540 L928 540 L949 667 L504 667 L501 648 C449 673 411 682 362 682 C273 682 194 643 140 572 C81 495 48 390 48 278 C48 107 146 -8 290 -8 C336 -8 375 4 409 28 L404 0 L837 0 Z M414 165 C385 132 353 116 315 116 C247 116 205 173 205 264 C205 326 221 408 241 455 C270 521 319 558 374 558 C417 558 450 537 469 498 L414 165 Z " />
<glyph glyph-name="oe" unicode="&#x153;" horiz-adv-x="829" d="M658 169 C643 119 604 88 558 88 C507 88 475 126 475 186 C475 199 475 206 477 224 L797 224 C800 243 801 257 801 275 C801 418 720 508 590 508 C526 508 479 489 434 446 C386 494 349 509 284 509 C136 509 29 387 29 218 C29 74 111 -17 240 -17 C304 -17 353 2 398 45 C445 3 489 -15 550 -15 C658 -15 742 45 783 150 L658 169 Z M487 305 C498 374 537 416 589 416 C636 416 667 383 667 332 C667 324 667 316 665 305 L487 305 Z M283 412 C332 412 354 379 354 308 C354 234 341 166 320 125 C306 99 279 81 251 81 C202 81 176 118 176 190 C176 238 184 291 199 337 C215 388 242 412 283 412 L283 412 Z " />
<glyph glyph-name="Racute" unicode="&#x154;" horiz-adv-x="657" d="M219 266 L343 266 L413 0 L568 0 L486 290 C529 302 550 312 573 332 C611 366 635 420 635 474 C635 528 612 581 573 617 C533 653 481 667 383 667 L137 667 L25 0 L174 0 L219 266 Z M264 550 L365 550 C397 550 415 548 431 543 C461 534 480 505 480 471 C480 439 463 410 437 396 C414 384 392 381 334 381 L235 381 L264 550 Z M333 723 L550 803 L513 883 L310 778 L333 723 Z " />
<glyph glyph-name="racute" unicode="&#x155;" horiz-adv-x="352" d="M371 504 L359 504 C297 504 260 471 222 383 L241 497 L102 497 L19 0 L168 0 L186 107 C211 296 253 360 355 360 L371 504 Z M211 567 L424 660 L388 739 L187 621 L211 567 Z " />
<glyph glyph-name="Rcommaaccent" unicode="&#x156;" horiz-adv-x="657" d="M219 266 L343 266 L413 0 L568 0 L486 290 C529 302 550 312 573 332 C611 366 635 420 635 474 C635 528 612 581 573 617 C533 653 481 667 383 667 L137 667 L25 0 L174 0 L219 266 Z M264 550 L365 550 C397 550 415 548 431 543 C461 534 480 505 480 471 C480 439 463 410 437 396 C414 384 392 381 334 381 L235 381 L264 550 Z M342 -53 L222 -53 L172 -241 L226 -241 L342 -53 Z " />
<glyph glyph-name="rcommaaccent" unicode="&#x157;" horiz-adv-x="352" d="M370 504 L359 504 C296 504 259 471 221 383 L240 497 L102 497 L18 0 L168 0 L186 107 C210 296 253 360 355 360 L370 504 Z M144 -53 L30 -53 L-22 -241 L31 -241 L144 -53 Z " />
<glyph glyph-name="Rcaron" unicode="&#x158;" horiz-adv-x="657" d="M219 266 L343 266 L413 0 L568 0 L486 290 C529 302 550 312 573 332 C611 366 635 420 635 474 C635 528 612 581 573 617 C533 653 481 667 383 667 L137 667 L25 0 L174 0 L219 266 Z M264 550 L365 550 C397 550 415 548 431 543 C461 534 480 505 480 471 C480 439 463 410 437 396 C414 384 392 381 334 381 L235 381 L264 550 Z M222 860 L376 720 L578 860 L476 870 L389 816 L324 870 L222 860 Z " />
<glyph glyph-name="rcaron" unicode="&#x159;" horiz-adv-x="352" d="M371 504 L359 504 C297 504 260 471 222 383 L241 497 L102 497 L19 0 L168 0 L186 107 C211 296 253 360 355 360 L371 504 Z M99 717 L249 563 L454 717 L356 727 L262 660 L196 727 L99 717 Z " />
<glyph glyph-name="Sacute" unicode="&#x15a;" horiz-adv-x="574" d="M555 503 C538 557 521 584 488 614 C442 656 378 678 305 678 C237 678 178 658 136 620 C92 581 65 521 65 463 C65 405 91 353 135 322 C166 300 198 287 263 269 C316 255 331 250 346 243 C368 231 380 212 380 187 C380 140 339 110 274 110 C199 110 156 142 140 210 L-3 190 C12 117 33 79 80 43 C128 6 192 -13 270 -13 C430 -13 535 75 535 209 C535 283 504 336 442 369 C408 387 378 398 310 415 C236 433 214 449 214 485 C214 527 251 555 305 555 C365 555 400 529 418 471 L555 503 Z M289 723 L506 803 L469 883 L266 778 L289 723 Z " />
<glyph glyph-name="sacute" unicode="&#x15b;" horiz-adv-x="465" d="M441 366 C419 460 348 508 234 508 C114 508 36 440 36 336 C36 288 55 250 91 224 C116 206 154 194 212 184 C278 173 294 163 294 136 C294 104 262 83 213 83 C149 83 113 106 107 153 L-16 139 C0 43 81 -11 208 -11 C336 -11 424 62 424 167 C424 248 373 299 275 315 C207 326 207 326 193 331 C178 337 168 351 168 366 C168 393 196 414 233 414 C287 414 321 390 330 344 L441 366 Z M219 567 L433 660 L396 739 L195 621 L219 567 Z " />
<glyph glyph-name="Scircumflex" unicode="&#x15c;" horiz-adv-x="574" d="M555 503 C538 557 521 584 488 614 C442 656 378 678 305 678 C237 678 178 658 136 620 C92 581 65 521 65 463 C65 405 91 353 135 322 C166 300 198 287 263 269 C316 255 331 250 346 243 C368 231 380 212 380 187 C380 140 339 110 274 110 C199 110 156 142 140 210 L-3 190 C12 117 33 79 80 43 C128 6 192 -13 270 -13 C430 -13 535 75 535 209 C535 283 504 336 442 369 C408 387 378 398 310 415 C236 433 214 449 214 485 C214 527 251 555 305 555 C365 555 400 529 418 471 L555 503 Z M517 737 L364 877 L161 737 L264 727 L351 780 L415 727 L517 737 Z " />
<glyph glyph-name="scircumflex" unicode="&#x15d;" horiz-adv-x="465" d="M441 366 C419 460 348 508 234 508 C114 508 36 440 36 336 C36 288 55 250 91 224 C116 206 154 194 212 184 C278 173 294 163 294 136 C294 104 262 83 213 83 C149 83 113 106 107 153 L-16 139 C0 43 81 -11 208 -11 C336 -11 424 62 424 167 C424 248 373 299 275 315 C207 326 207 326 193 331 C178 337 168 351 168 366 C168 393 196 414 233 414 C287 414 321 390 330 344 L441 366 Z M441 580 L291 733 L86 580 L184 570 L278 637 L344 570 L441 580 Z " />
<glyph glyph-name="Scedilla" unicode="&#x15e;" horiz-adv-x="574" d="M249 -12 C260 -13 270 -13 274 -13 C430 -13 535 76 535 209 C535 283 504 336 442 369 C408 387 380 397 310 415 C236 433 214 449 214 485 C214 527 251 555 305 555 C365 555 400 529 418 471 L555 503 C538 557 521 584 488 614 C442 656 378 678 305 678 C237 678 178 658 136 620 C92 581 65 521 65 463 C65 405 91 353 135 322 C166 300 198 287 263 269 C316 255 331 250 346 243 C368 231 380 212 380 187 C380 140 339 110 274 110 C199 110 156 142 140 210 L-3 190 C15 83 85 14 198 -6 L157 -93 C177 -89 187 -88 196 -88 C228 -88 247 -101 247 -123 C247 -147 224 -165 194 -165 C174 -165 156 -160 120 -143 L96 -184 C130 -206 170 -217 212 -217 C282 -217 337 -172 337 -115 C337 -76 304 -48 258 -48 C250 -48 244 -49 231 -50 L249 -12 Z " />
<glyph glyph-name="scedilla" unicode="&#x15f;" horiz-adv-x="465" d="M196 -11 C252 -11 294 -3 327 14 C387 44 424 102 424 167 C424 248 373 299 275 315 C207 326 207 326 193 331 C178 337 168 351 168 366 C168 393 196 414 233 414 C287 414 321 390 330 344 L441 366 C419 460 348 508 234 508 C114 508 36 440 36 336 C36 288 55 250 91 224 C116 206 154 194 212 184 C278 173 294 163 294 136 C294 104 262 83 213 83 C149 83 113 106 107 153 L-16 139 C-5 61 53 10 151 -7 L108 -88 C119 -87 128 -86 135 -86 C163 -86 182 -98 182 -117 C182 -139 165 -153 141 -153 C123 -153 105 -147 78 -131 L55 -173 C90 -193 117 -201 152 -201 C217 -201 264 -163 264 -110 C264 -71 236 -47 191 -47 C189 -47 183 -48 177 -49 L196 -11 Z " />
<glyph glyph-name="Scaron" unicode="&#x160;" horiz-adv-x="574" d="M555 503 C538 557 521 584 488 614 C442 656 378 678 305 678 C237 678 178 658 136 620 C92 581 65 521 65 463 C65 405 91 353 135 322 C166 300 198 287 263 269 C316 255 331 250 346 243 C368 231 380 212 380 187 C380 140 339 110 274 110 C199 110 156 142 140 210 L-3 190 C12 117 33 79 80 43 C128 6 192 -13 270 -13 C430 -13 535 75 535 209 C535 283 504 336 442 369 C408 387 378 398 310 415 C236 433 214 449 214 485 C214 527 251 555 305 555 C365 555 400 529 418 471 L555 503 Z M182 860 L336 720 L539 860 L436 870 L349 816 L285 870 L182 860 Z " />
<glyph glyph-name="scaron" unicode="&#x161;" horiz-adv-x="465" d="M441 366 C419 460 348 508 234 508 C114 508 36 440 36 336 C36 288 55 250 91 224 C116 206 154 194 212 184 C278 173 294 163 294 136 C294 104 262 83 213 83 C149 83 113 106 107 153 L-16 139 C0 43 81 -11 208 -11 C336 -11 424 62 424 167 C424 248 373 299 275 315 C207 326 207 326 193 331 C178 337 168 351 168 366 C168 393 196 414 233 414 C287 414 321 390 330 344 L441 366 Z M109 717 L259 563 L463 717 L366 727 L271 660 L206 727 L109 717 Z " />
<glyph glyph-name="Tcommaaccent" unicode="&#x162;" horiz-adv-x="489" d="M538 540 L560 667 L70 667 L49 540 L217 540 L127 0 L280 0 L370 540 L538 540 Z M258 -53 L138 -53 L88 -241 L142 -241 L258 -53 Z " />
<glyph glyph-name="tcommaaccent" unicode="&#x163;" horiz-adv-x="359" d="M361 383 L380 497 L266 497 L289 637 L164 634 L130 497 L47 497 L28 383 L104 383 L72 220 C58 152 56 137 56 109 C56 27 104 -12 205 -12 C238 -12 263 -10 303 -4 L321 105 C306 102 289 101 268 101 C223 101 205 112 205 141 C205 150 206 162 210 184 L243 383 L361 383 Z M220 -53 L107 -53 L55 -241 L108 -241 L220 -53 Z " />
<glyph glyph-name="Tcaron" unicode="&#x164;" horiz-adv-x="489" d="M538 540 L560 667 L70 667 L49 540 L217 540 L127 0 L280 0 L370 540 L538 540 Z M170 860 L324 720 L526 860 L424 870 L337 816 L272 870 L170 860 Z " />
<glyph glyph-name="tcaron" unicode="&#x165;" horiz-adv-x="410" d="M361 383 L380 497 L266 497 L289 637 L164 634 L130 497 L47 497 L28 383 L104 383 L72 220 C58 152 56 137 56 109 C56 27 104 -12 205 -12 C238 -12 263 -10 303 -4 L321 105 C306 102 289 101 268 101 C223 101 205 112 205 141 C205 150 206 162 210 184 L243 383 L361 383 Z M493 747 L380 747 L328 550 L381 550 L493 747 Z " />
<glyph glyph-name="Tbar" unicode="&#x166;" horiz-adv-x="489" d="M479 435 L353 435 L370 540 L538 540 L560 667 L70 667 L49 540 L217 540 L199 435 L73 435 L56 335 L183 335 L127 0 L280 0 L336 335 L463 335 L479 435 Z " />
<glyph glyph-name="tbar" unicode="&#x167;" horiz-adv-x="359" d="M331 307 L231 307 L243 383 L361 383 L381 497 L266 497 L289 637 L164 634 L130 497 L47 497 L28 383 L105 383 L89 307 L22 307 L11 240 L76 240 L72 219 C57 146 56 137 56 109 C56 27 104 -12 205 -12 C238 -12 263 -10 303 -4 L321 105 C308 102 291 101 269 101 C223 101 205 112 205 141 C205 150 206 159 210 183 L220 240 L320 240 L331 307 Z " />
<glyph glyph-name="Utilde" unicode="&#x168;" horiz-adv-x="643" d="M656 667 L524 667 L464 312 C444 194 444 194 436 176 C420 142 380 121 328 121 C262 121 222 152 222 205 C222 224 225 250 229 278 L294 667 L130 667 L61 253 C57 230 55 206 55 188 C55 66 147 -6 303 -6 C435 -6 520 43 560 141 C572 171 575 182 593 295 L656 667 Z M577 859 C551 834 522 819 499 819 C488 819 471 824 452 834 C418 850 402 855 376 855 C338 855 301 839 259 803 L292 746 C320 767 342 777 364 777 C374 777 389 772 405 765 C451 743 458 741 484 741 C527 741 565 759 610 801 L577 859 Z " />
<glyph glyph-name="utilde" unicode="&#x169;" horiz-adv-x="536" d="M518 497 L375 497 L335 258 C323 188 316 166 296 139 C278 116 254 103 230 103 C205 103 188 120 188 145 C188 150 190 168 194 190 L246 497 L102 497 L52 199 C43 142 42 135 42 117 C42 38 90 -11 168 -11 C232 -11 280 22 319 90 L304 0 L435 0 L518 497 Z M468 696 C442 670 415 656 395 656 C385 656 368 661 351 671 C319 687 304 692 280 692 C244 692 209 676 168 641 L200 585 C226 606 247 616 267 616 C276 616 291 611 306 604 C348 583 356 580 380 580 C421 580 458 599 500 641 L468 696 Z " />
<glyph glyph-name="Umacron" unicode="&#x16a;" horiz-adv-x="643" d="M656 667 L524 667 L464 312 C445 195 445 194 436 176 C420 142 380 121 328 121 C261 121 222 152 222 205 C222 224 225 251 229 278 L294 667 L130 667 L61 253 C57 230 55 206 55 188 C55 66 147 -6 303 -6 C435 -6 520 43 560 141 C572 171 575 182 593 295 L656 667 Z M567 753 L579 825 L259 825 L247 753 L567 753 Z " />
<glyph glyph-name="umacron" unicode="&#x16b;" horiz-adv-x="536" d="M518 497 L375 497 L335 258 C323 188 316 166 296 139 C278 116 254 103 230 103 C205 103 188 120 188 145 C188 150 190 168 194 190 L246 497 L102 497 L52 199 C43 142 42 135 42 117 C42 38 90 -11 168 -11 C232 -11 280 22 319 90 L304 0 L435 0 L518 497 Z M481 600 L493 670 L186 670 L175 600 L481 600 Z " />
<glyph glyph-name="Ubreve" unicode="&#x16c;" horiz-adv-x="643" d="M656 667 L524 667 L464 312 C444 194 444 194 436 176 C420 142 380 121 328 121 C262 121 222 152 222 205 C222 224 225 250 229 278 L294 667 L130 667 L61 253 C57 230 55 206 55 188 C55 66 147 -6 303 -6 C435 -6 520 43 560 141 C572 171 575 182 593 295 L656 667 Z M285 865 C284 856 284 847 284 842 C284 772 337 729 423 729 C515 729 577 775 609 865 L526 865 C510 824 483 807 435 807 C387 807 368 824 368 865 L285 865 Z " />
<glyph glyph-name="ubreve" unicode="&#x16d;" horiz-adv-x="536" d="M518 497 L375 497 L335 258 C323 188 316 166 296 139 C278 116 254 103 230 103 C205 103 188 120 188 145 C188 150 190 168 194 190 L246 497 L102 497 L52 199 C43 142 42 135 42 117 C42 38 90 -11 168 -11 C232 -11 280 22 319 90 L304 0 L435 0 L518 497 Z M194 717 C193 707 193 698 193 692 C193 622 245 577 325 577 C413 577 477 627 505 717 L429 717 C413 671 387 652 338 652 C293 652 272 670 271 709 L271 717 L194 717 Z " />
<glyph glyph-name="Uring" unicode="&#x16e;" horiz-adv-x="643" d="M656 667 L524 667 L464 312 C445 195 445 194 436 176 C420 142 380 121 328 121 C261 121 222 152 222 205 C222 224 225 251 229 278 L294 667 L130 667 L61 253 C57 230 55 206 55 188 C55 66 147 -6 303 -6 C435 -6 520 43 560 141 C572 171 575 182 593 295 L656 667 Z M413 892 C358 892 314 850 314 799 C314 748 358 707 413 707 C467 707 512 748 512 798 C512 851 468 892 413 892 L413 892 Z M413 837 C436 837 452 822 452 800 C452 779 435 762 412 762 C391 762 374 778 374 800 C374 821 391 837 413 837 L413 837 Z " />
<glyph glyph-name="uring" unicode="&#x16f;" horiz-adv-x="536" d="M518 497 L375 497 L335 258 C323 188 316 166 296 139 C278 116 254 103 230 103 C205 103 188 120 188 145 C188 150 190 168 194 190 L246 497 L102 497 L52 199 C43 142 42 135 42 117 C42 38 90 -11 168 -11 C232 -11 280 22 319 90 L304 0 L435 0 L518 497 Z M329 739 C278 739 237 698 237 648 C237 597 279 556 329 556 C382 556 425 597 425 647 C425 699 384 739 329 739 L329 739 Z M331 684 C353 684 370 668 370 647 C370 627 352 611 331 611 C310 611 292 628 292 647 C292 668 310 684 331 684 L331 684 Z " />
<glyph glyph-name="Uhungarumlaut" unicode="&#x170;" horiz-adv-x="643" d="M656 667 L524 667 L464 312 C444 194 444 194 436 176 C420 142 380 121 328 121 C262 121 222 152 222 205 C222 224 225 250 229 278 L294 667 L130 667 L61 253 C57 230 55 206 55 188 C55 66 147 -6 303 -6 C435 -6 520 43 560 141 C572 171 575 182 593 295 L656 667 Z M307 723 L481 816 L438 883 L277 768 L307 723 Z M484 723 L658 816 L614 883 L454 768 L484 723 Z " />
<glyph glyph-name="uhungarumlaut" unicode="&#x171;" horiz-adv-x="536" d="M518 497 L375 497 L335 258 C323 188 316 166 296 139 C278 116 254 103 230 103 C205 103 188 120 188 145 C188 150 190 168 194 190 L246 497 L102 497 L52 199 C43 142 42 135 42 117 C42 38 90 -11 168 -11 C232 -11 280 22 319 90 L304 0 L435 0 L518 497 Z M220 567 L397 673 L354 739 L192 613 L220 567 Z M390 567 L567 673 L524 739 L362 613 L390 567 Z " />
<glyph glyph-name="Uogonek" unicode="&#x172;" horiz-adv-x="643" d="M469 -115 C449 -121 439 -123 425 -123 C391 -123 371 -109 371 -84 C371 -51 398 -16 447 16 C544 75 567 119 593 295 L656 667 L524 667 L464 312 C444 194 444 194 436 176 C420 142 380 121 328 121 C262 121 222 152 222 205 C222 224 225 250 229 278 L294 667 L130 667 L61 253 C57 230 55 206 55 188 C55 70 147 -6 292 -6 C309 -6 325 -5 363 -3 C298 -36 277 -60 277 -101 C277 -149 317 -177 386 -177 C417 -177 443 -172 474 -159 L469 -115 Z " />
<glyph glyph-name="uogonek" unicode="&#x173;" horiz-adv-x="536" d="M518 497 L375 497 L335 258 C323 188 316 166 296 139 C278 116 254 103 230 103 C205 103 188 120 188 145 C188 150 190 168 194 190 L246 497 L102 497 L52 199 C43 142 42 135 42 117 C42 38 90 -11 168 -11 C232 -11 280 22 319 90 L304 0 L368 0 C301 -28 272 -59 272 -101 C272 -145 309 -171 370 -171 C403 -171 430 -165 455 -153 L449 -114 C425 -122 420 -123 410 -123 C379 -123 360 -108 360 -83 C360 -56 387 -26 435 0 L518 497 Z " />
<glyph glyph-name="Wcircumflex" unicode="&#x174;" horiz-adv-x="886" d="M946 667 L810 667 L635 205 L579 667 L440 667 L265 205 L223 667 L70 667 L149 0 L291 0 L469 465 L529 0 L673 0 L946 667 Z M693 737 L539 877 L337 737 L439 727 L526 780 L591 727 L693 737 Z " />
<glyph glyph-name="wcircumflex" unicode="&#x175;" horiz-adv-x="720" d="M753 497 L642 497 L507 187 L478 497 L344 497 L226 187 L188 497 L40 497 L113 0 L239 0 L364 321 L399 0 L528 0 L753 497 Z M583 580 L433 733 L229 580 L326 570 L421 637 L486 570 L583 580 Z " />
<glyph glyph-name="Ycircumflex" unicode="&#x176;" horiz-adv-x="530" d="M624 667 L478 667 L305 403 L203 667 L37 667 L203 280 L156 0 L309 0 L356 280 L624 667 Z M522 737 L368 877 L166 737 L268 727 L355 780 L420 727 L522 737 Z " />
<glyph glyph-name="ycircumflex" unicode="&#x177;" horiz-adv-x="450" d="M488 497 L376 497 L241 195 L182 497 L32 497 L146 6 C126 -50 104 -65 47 -65 C33 -65 28 -65 -13 -60 L-21 -171 C-7 -172 8 -173 33 -173 C90 -173 128 -163 157 -140 C199 -108 209 -92 266 28 L488 497 Z M458 580 L308 733 L103 580 L200 570 L295 637 L360 570 L458 580 Z " />
<glyph glyph-name="Ydieresis" unicode="&#x178;" horiz-adv-x="530" d="M624 667 L478 667 L305 403 L203 667 L37 667 L203 280 L156 0 L309 0 L356 280 L624 667 Z M260 856 C225 856 197 829 197 794 C197 759 224 733 260 733 C297 733 324 759 324 793 C324 830 297 856 260 856 L260 856 Z M440 856 C405 856 377 829 377 794 C377 759 404 733 440 733 C477 733 504 759 504 793 C504 830 477 856 440 856 L440 856 Z " />
<glyph glyph-name="Zacute" unicode="&#x179;" horiz-adv-x="573" d="M-3 108 L-21 0 L512 0 L533 127 L395 127 C343 127 294 127 278 126 L220 124 L192 124 L582 565 L598 667 L103 667 L82 540 L228 540 C281 540 317 541 387 544 L-3 108 Z M305 723 L522 803 L485 883 L282 778 L305 723 Z " />
<glyph glyph-name="zacute" unicode="&#x17a;" horiz-adv-x="432" d="M431 399 L448 497 L70 497 L52 392 L255 392 L-5 96 L-21 0 L371 0 L389 105 L171 105 L431 399 Z M225 567 L439 660 L402 739 L201 621 L225 567 Z " />
<glyph glyph-name="Zdotaccent" unicode="&#x17b;" horiz-adv-x="573" d="M-3 108 L-21 0 L512 0 L533 127 L395 127 C343 127 294 127 278 126 L220 124 L192 124 L582 565 L598 667 L103 667 L82 540 L228 540 C281 540 317 541 387 544 L-3 108 Z M365 856 C330 856 302 829 302 794 C302 759 329 733 365 733 C402 733 429 759 429 793 C429 830 402 856 365 856 L365 856 Z " />
<glyph glyph-name="zdotaccent" unicode="&#x17c;" horiz-adv-x="432" d="M431 399 L448 497 L70 497 L52 392 L255 392 L-5 96 L-21 0 L371 0 L389 105 L171 105 L431 399 Z M280 695 C247 695 222 670 222 638 C222 606 247 582 280 582 C314 582 339 605 339 637 C339 671 315 695 280 695 L280 695 Z " />
<glyph glyph-name="Zcaron" unicode="&#x17d;" horiz-adv-x="573" d="M-3 108 L-21 0 L512 0 L533 127 L395 127 C343 127 294 127 278 126 L220 124 L192 124 L582 565 L598 667 L103 667 L82 540 L228 540 C281 540 317 541 387 544 L-3 108 Z M199 860 L353 720 L555 860 L453 870 L366 816 L301 870 L199 860 Z " />
<glyph glyph-name="zcaron" unicode="&#x17e;" horiz-adv-x="432" d="M431 399 L448 497 L70 497 L52 392 L255 392 L-5 96 L-21 0 L371 0 L389 105 L171 105 L431 399 Z M119 717 L269 563 L473 717 L376 727 L282 660 L216 727 L119 717 Z " />
<glyph glyph-name="uni018F" unicode="&#x18f;" horiz-adv-x="640" d="M52 350 C48 324 47 304 47 280 C47 103 151 -13 309 -13 C405 -13 484 28 541 106 C594 179 624 279 624 384 C624 561 520 681 368 681 C254 681 162 617 103 497 L232 461 C263 527 304 559 358 559 C436 559 472 509 472 404 C472 382 471 367 469 350 L52 350 Z M442 230 C413 144 376 110 312 110 C245 110 210 149 202 230 L442 230 Z " />
<glyph glyph-name="florin" unicode="&#x192;" horiz-adv-x="587" d="M528 535 L441 535 C460 600 481 619 532 619 C541 619 549 618 567 616 L604 726 C566 732 549 734 523 734 C399 734 338 680 294 535 L240 535 L202 421 L257 421 L158 121 C149 93 142 70 136 51 L132 40 C126 22 120 14 110 5 C95 -8 74 -14 45 -14 C36 -14 31 -14 16 -13 L-23 -127 C20 -132 36 -133 56 -133 C117 -133 168 -117 205 -86 C240 -56 254 -29 287 71 L402 421 L492 421 L528 535 Z " />
<glyph glyph-name="uni01C4" unicode="&#x1c4;" horiz-adv-x="503" d="M223 518 L371 518 L396 667 L248 667 L223 518 Z M233 465 C228 413 217 395 170 364 C85 310 85 310 62 285 C32 252 16 209 16 163 C16 49 107 -32 235 -32 C350 -32 442 43 475 164 L348 197 C330 127 294 89 245 89 C200 89 169 119 169 163 C169 196 185 221 227 252 C337 331 344 342 357 465 L233 465 Z " />
<glyph glyph-name="uni01C5" unicode="&#x1c5;" horiz-adv-x="442" d="M-10 0 L82 0 L483 667 L393 667 L-10 0 Z " />
<glyph glyph-name="uni01C6" unicode="&#x1c6;" horiz-adv-x="309" d="M234 0 C190 87 171 159 171 239 C171 321 191 421 222 492 C250 557 286 611 340 667 L245 667 C110 541 47 424 47 300 C47 213 85 106 152 0 L234 0 Z " />
<glyph glyph-name="uni01C7" unicode="&#x1c7;" horiz-adv-x="309" d="M104 667 C148 581 167 507 167 428 C167 346 147 246 116 175 C88 109 52 56 -2 0 L93 0 C228 126 291 243 291 367 C291 454 254 560 185 667 L104 667 Z " />
<glyph glyph-name="uni01C8" unicode="&#x1c8;" horiz-adv-x="329" d="M325 606 L335 667 L137 667 L25 0 L224 0 L234 60 L125 60 L216 606 L325 606 Z " />
<glyph glyph-name="uni01C9" unicode="&#x1c9;" horiz-adv-x="329" d="M32 61 L22 0 L221 0 L332 667 L134 667 L124 607 L232 607 L141 61 L32 61 Z " />
<glyph glyph-name="uni01CA" unicode="&#x1ca;" horiz-adv-x="466" d="M458 577 C441 604 438 608 429 618 C397 655 351 674 296 674 C193 674 110 608 110 526 C110 496 119 475 141 457 C91 411 69 371 69 326 C69 274 94 247 172 216 C285 171 300 161 300 131 C300 100 270 79 224 79 C175 79 152 93 133 136 L20 118 C45 39 116 -7 213 -7 C334 -7 418 62 418 162 C418 204 405 231 376 251 C426 301 441 329 441 373 C441 426 413 457 336 488 C233 530 232 531 232 553 C232 579 255 596 289 596 C322 596 339 585 360 548 L458 577 Z M291 295 L284 298 C217 325 217 325 202 335 C191 342 185 351 185 362 C185 380 192 388 222 409 C247 398 267 390 279 385 C293 379 305 372 313 365 C320 360 324 351 324 341 C324 324 317 314 296 299 L291 295 Z " />
<glyph glyph-name="uni01CB" unicode="&#x1cb;" horiz-adv-x="583" d="M292 667 L263 493 L90 493 L71 378 L244 378 L181 0 L319 0 L382 378 L555 378 L574 493 L401 493 L430 667 L292 667 Z " />
<glyph glyph-name="uni01CC" unicode="&#x1cc;" horiz-adv-x="583" d="M431 667 L292 667 L268 519 L95 519 L76 404 L248 404 L228 283 L55 283 L36 167 L209 167 L181 0 L319 0 L347 167 L520 167 L539 283 L366 283 L387 404 L559 404 L579 519 L406 519 L431 667 Z " />
<glyph glyph-name="uni01CD" unicode="&#x1cd;" horiz-adv-x="615" d="M577 0 L465 667 L282 667 L-35 0 L109 0 L174 147 L396 147 L418 0 L577 0 Z M224 263 L341 530 L380 263 L224 263 Z M225 860 L379 720 L581 860 L479 870 L392 816 L328 870 L225 860 Z " />
<glyph glyph-name="uni01CE" unicode="&#x1ce;" horiz-adv-x="541" d="M453 0 C451 14 451 21 451 33 C451 60 454 85 461 127 L482 254 C495 334 496 340 496 362 C496 451 423 506 303 506 C177 506 96 455 61 354 L191 339 C212 394 239 415 291 415 C331 415 356 392 356 355 C356 341 354 329 347 311 C243 305 174 294 128 275 C51 244 11 192 11 123 C11 44 73 -13 159 -13 C232 -13 290 22 319 86 C319 77 318 73 317 62 C315 45 314 38 314 30 C314 22 314 22 315 0 L453 0 Z M336 241 C320 136 278 78 217 78 C184 78 161 103 161 139 C161 174 182 203 220 220 C246 232 277 237 336 241 L336 241 Z M166 717 L316 563 L520 717 L423 727 L328 660 L263 727 L166 717 Z " />
<glyph glyph-name="uni01D1" unicode="&#x1d1;" horiz-adv-x="288" d="M116 519 L264 519 L289 667 L141 667 L116 519 Z M147 466 L29 0 L200 0 L225 466 L147 466 Z " />
<glyph glyph-name="uni01D2" unicode="&#x1d2;" horiz-adv-x="534" d="M287 509 C137 509 31 387 31 213 C31 84 122 -10 249 -10 C392 -10 503 115 503 276 C503 416 416 509 287 509 L287 509 Z M286 413 C333 413 358 381 358 319 C358 262 344 187 326 142 C311 105 286 86 252 86 C202 86 178 117 178 182 C178 248 192 322 213 365 C227 396 254 413 286 413 L286 413 Z M148 717 L298 563 L502 717 L405 727 L310 660 L245 727 L148 717 Z " />
<glyph glyph-name="uni01D3" unicode="&#x1d3;" horiz-adv-x="643" d="M656 667 L524 667 L464 312 C445 195 445 194 436 176 C420 142 380 121 328 121 C261 121 222 152 222 205 C222 224 225 251 229 278 L294 667 L130 667 L61 253 C57 230 55 206 55 188 C55 66 147 -6 303 -6 C435 -6 520 43 560 141 C572 171 575 182 593 295 L656 667 Z M247 860 L401 720 L603 860 L501 870 L414 816 L349 870 L247 860 Z " />
<glyph glyph-name="uni01D4" unicode="&#x1d4;" horiz-adv-x="536" d="M518 497 L375 497 L335 258 C323 188 316 166 296 139 C278 116 254 103 230 103 C205 103 188 120 188 145 C188 150 190 168 194 190 L246 497 L102 497 L52 199 C43 142 42 135 42 117 C42 38 90 -11 168 -11 C232 -11 280 22 319 90 L304 0 L435 0 L518 497 Z M168 717 L318 563 L523 717 L426 727 L331 660 L266 727 L168 717 Z " />
<glyph glyph-name="uni01DD" unicode="&#x1dd;" horiz-adv-x="533" d="M36 273 C33 249 31 223 31 212 C31 77 115 -13 242 -13 C319 -13 384 17 431 74 C479 131 505 205 505 280 C505 418 417 510 285 510 C175 510 93 453 55 348 L177 327 C197 382 229 407 276 407 C327 407 360 370 360 312 C360 301 359 292 357 273 L36 273 Z M347 191 C338 155 332 140 320 122 C303 95 272 78 241 78 C195 78 165 111 165 162 C165 170 166 178 168 191 L347 191 Z " />
<glyph glyph-name="Gcaron" unicode="&#x1e6;" horiz-adv-x="658" d="M620 357 L340 357 L319 236 L457 236 C434 155 392 117 327 117 C247 117 203 168 203 259 C203 315 221 403 241 451 C271 521 316 556 373 556 C438 556 473 519 487 438 L631 461 C608 600 515 680 379 680 C185 680 46 510 46 274 C46 104 146 -9 296 -9 C374 -9 426 18 479 85 L497 -5 L559 -5 L620 357 Z M247 860 L401 720 L603 860 L501 870 L414 816 L349 870 L247 860 Z " />
<glyph glyph-name="gcaron" unicode="&#x1e7;" horiz-adv-x="513" d="M520 611 C499 613 490 613 481 613 C414 613 373 574 361 497 C340 503 308 507 277 507 C218 507 158 489 119 460 C84 434 62 388 62 342 C62 296 79 265 118 238 C85 221 75 215 58 204 C28 182 12 152 12 115 C12 81 24 59 55 34 C-11 7 -38 -22 -38 -66 C-38 -96 -23 -122 5 -140 C39 -163 100 -174 196 -174 C299 -174 366 -161 411 -132 C453 -105 481 -56 481 -8 C481 52 441 100 379 115 C356 121 287 126 223 127 C171 127 150 138 150 162 C150 181 162 194 190 206 C236 199 251 197 275 197 C403 197 489 262 489 360 C489 411 470 442 419 474 C424 502 446 517 481 517 C490 517 498 516 514 514 L520 611 Z M285 426 C330 426 356 402 356 361 C356 307 322 274 266 274 C223 274 197 299 197 341 C197 393 231 426 285 426 L285 426 Z M193 -1 C296 -5 296 -5 314 -8 C334 -12 347 -26 347 -44 C347 -76 302 -93 220 -93 C136 -93 84 -74 84 -44 C84 -22 111 1 135 1 C139 1 144 1 152 0 L193 -1 Z M137 717 L287 563 L492 717 L394 727 L300 660 L234 727 L137 717 Z " />
<glyph glyph-name="uni01F4" unicode="&#x1f4;" horiz-adv-x="658" d="M620 357 L340 357 L319 236 L457 236 C434 155 392 117 327 117 C247 117 203 168 203 259 C203 315 221 403 241 451 C271 521 316 556 373 556 C438 556 473 519 487 438 L631 461 C608 600 515 680 379 680 C185 680 46 510 46 274 C46 104 146 -9 296 -9 C374 -9 426 18 479 85 L497 -5 L559 -5 L620 357 Z M352 723 L569 803 L532 883 L328 778 L352 723 Z " />
<glyph glyph-name="uni01F5" unicode="&#x1f5;" horiz-adv-x="513" d="M520 611 C499 613 490 613 481 613 C414 613 373 574 361 497 C340 503 308 507 277 507 C218 507 158 489 119 460 C84 434 62 388 62 342 C62 296 79 265 118 238 C85 221 75 215 58 204 C28 182 12 152 12 115 C12 81 24 59 55 34 C-11 7 -38 -22 -38 -66 C-38 -96 -23 -122 5 -140 C39 -163 100 -174 196 -174 C299 -174 366 -161 411 -132 C453 -105 481 -56 481 -8 C481 52 441 100 379 115 C356 121 287 126 223 127 C171 127 150 138 150 162 C150 181 162 194 190 206 C236 199 251 197 275 197 C403 197 489 262 489 360 C489 411 470 442 419 474 C424 502 446 517 481 517 C490 517 498 516 514 514 L520 611 Z M285 426 C330 426 356 402 356 361 C356 307 322 274 266 274 C223 274 197 299 197 341 C197 393 231 426 285 426 L285 426 Z M193 -1 C296 -5 296 -5 314 -8 C334 -12 347 -26 347 -44 C347 -76 302 -93 220 -93 C136 -93 84 -74 84 -44 C84 -22 111 1 135 1 C139 1 144 1 152 0 L193 -1 Z M247 567 L460 660 L423 739 L223 621 L247 567 Z " />
<glyph glyph-name="Aringacute" unicode="&#x1fa;" horiz-adv-x="615" d="M-35 0 L109 0 L174 147 L396 147 L418 0 L577 0 L468 645 C486 665 496 689 496 715 C496 777 443 826 376 826 C310 826 257 777 257 715 C257 694 264 673 277 655 L-35 0 Z M224 263 L346 549 L380 263 L224 263 Z M376 760 C404 760 424 742 424 716 C424 690 403 670 376 670 C349 670 329 690 329 716 C329 741 350 760 376 760 L376 760 Z M261 821 L478 900 L442 981 L238 875 L261 821 Z " />
<glyph glyph-name="aringacute" unicode="&#x1fb;" horiz-adv-x="541" d="M453 0 C451 14 451 21 451 33 C451 60 454 85 461 127 L482 254 C495 334 496 340 496 362 C496 451 423 506 303 506 C177 506 96 455 61 354 L191 339 C212 394 239 415 291 415 C331 415 356 392 356 355 C356 341 354 329 347 311 C243 305 174 294 128 275 C51 244 11 192 11 123 C11 44 73 -13 159 -13 C232 -13 290 22 319 86 C319 77 318 73 317 62 C315 45 314 38 314 30 C314 22 314 22 315 0 L453 0 Z M336 241 C320 136 278 78 217 78 C184 78 161 103 161 139 C161 174 182 203 220 220 C246 232 277 237 336 241 L336 241 Z M328 719 C277 719 236 678 236 628 C236 577 278 536 328 536 C381 536 424 577 424 627 C424 679 383 719 328 719 L328 719 Z M330 664 C352 664 369 648 369 627 C369 607 351 591 330 591 C309 591 291 608 291 627 C291 648 309 664 330 664 L330 664 Z M291 742 L505 835 L468 914 L268 796 L291 742 Z " />
<glyph glyph-name="AEacute" unicode="&#x1fc;" horiz-adv-x="842" d="M855 540 L876 667 L357 667 L-48 0 L85 0 L187 168 L350 168 L322 0 L770 0 L792 127 L490 127 L516 285 L763 285 L784 406 L536 406 L559 540 L855 540 Z M250 285 L414 551 L369 285 L250 285 Z M570 723 L787 803 L750 883 L546 778 L570 723 Z " />
<glyph glyph-name="aeacute" unicode="&#x1fd;" horiz-adv-x="840" d="M808 223 C812 248 813 263 813 280 C813 419 727 508 594 508 C536 508 499 496 452 462 C408 497 372 508 308 508 C234 508 170 488 127 453 C100 430 83 406 63 360 L196 342 C216 396 245 417 298 417 C341 417 366 395 366 358 C366 345 364 334 357 312 C211 301 197 299 148 285 C60 260 10 203 10 127 C10 45 73 -9 168 -9 C254 -9 313 25 358 99 C405 20 463 -13 555 -13 C666 -13 742 39 790 148 L664 168 C642 115 608 89 563 89 C509 89 474 127 474 185 C474 194 475 204 478 223 L808 223 Z M345 242 C324 135 282 81 222 81 C187 81 163 104 163 139 C163 178 186 208 228 224 C255 234 287 239 345 242 L345 242 Z M489 305 C505 379 542 416 597 416 C646 416 675 386 675 335 C675 330 674 316 673 305 L489 305 Z M394 567 L608 660 L571 739 L370 621 L394 567 Z " />
<glyph glyph-name="Oslashacute" unicode="&#x1fe;" horiz-adv-x="643" d="M642 721 L549 721 L495 641 C460 667 418 678 357 678 C258 678 176 632 118 543 C73 474 45 373 45 280 C45 199 66 134 114 70 L34 -53 L128 -53 L176 22 C223 -1 263 -10 311 -10 C424 -10 508 44 568 155 C604 220 624 301 624 378 C624 465 601 538 556 591 L642 721 Z M466 460 C470 434 471 422 471 401 C471 351 461 290 444 240 C414 147 377 113 306 113 C282 113 269 117 247 130 L466 460 Z M205 205 C199 232 198 243 198 264 C198 320 214 401 235 453 C263 521 304 554 362 554 C388 554 404 549 422 535 L205 205 Z M307 723 L524 803 L487 883 L284 778 L307 723 Z " />
<glyph glyph-name="oslashacute" unicode="&#x1ff;" horiz-adv-x="534" d="M521 541 L445 541 L399 480 C371 498 326 509 282 509 C140 509 31 383 31 217 C31 149 52 93 94 51 L25 -43 L100 -43 L141 14 C181 -4 209 -10 248 -10 C339 -10 415 36 462 119 C490 169 503 216 503 270 C503 343 487 393 447 441 L521 541 Z M356 316 C356 256 351 217 337 168 C319 108 295 85 249 85 C231 85 221 88 202 100 L356 316 Z M179 172 C178 183 178 193 178 197 C178 231 186 284 197 323 C215 386 241 413 285 413 C307 413 324 406 336 393 L179 172 Z M235 567 L449 660 L412 739 L212 621 L235 567 Z " />
<glyph glyph-name="uni0200" unicode="&#x200;" horiz-adv-x="513" d="M288 671 L276 533 L176 629 L127 569 L241 490 L107 451 L134 378 L261 438 L226 302 L304 289 L316 428 L415 331 L465 392 L351 471 L484 509 L457 582 L332 524 L365 658 L288 671 Z " />
<glyph glyph-name="uni0201" unicode="&#x201;" horiz-adv-x="313" d="M276 542 C287 602 291 607 330 607 L346 607 L356 665 C334 665 330 665 313 666 C294 667 294 667 291 667 C208 667 170 630 153 533 L137 436 C126 388 111 372 70 365 L61 311 C91 305 105 290 105 263 C105 253 104 237 103 231 L87 134 C83 114 82 100 82 86 C82 26 111 0 177 0 L187 0 L212 1 L245 2 L255 60 C207 60 200 63 201 85 C201 93 203 102 204 113 C205 117 206 121 206 125 L222 216 C224 228 225 243 225 256 C225 292 215 311 182 333 C232 361 248 385 261 451 L276 542 Z " />
<glyph glyph-name="Scommaaccent" unicode="&#x218;" horiz-adv-x="574" d="M555 503 C538 557 521 584 488 614 C442 656 378 678 305 678 C237 678 178 658 136 620 C92 581 65 521 65 463 C65 405 91 353 135 322 C166 300 198 287 263 269 C316 255 331 250 346 243 C368 231 380 212 380 187 C380 140 339 110 274 110 C199 110 156 142 140 210 L-3 190 C12 117 33 79 80 43 C128 6 192 -13 270 -13 C430 -13 535 75 535 209 C535 283 504 336 442 369 C408 387 378 398 310 415 C236 433 214 449 214 485 C214 527 251 555 305 555 C365 555 400 529 418 471 L555 503 Z M305 -53 L184 -53 L134 -241 L189 -241 L305 -53 Z " />
<glyph glyph-name="scommaaccent" unicode="&#x219;" horiz-adv-x="465" d="M441 366 C419 460 348 508 234 508 C114 508 36 440 36 336 C36 288 55 250 91 224 C116 206 154 194 212 184 C278 173 294 163 294 136 C294 104 262 83 213 83 C149 83 113 106 107 153 L-16 139 C0 43 81 -11 208 -11 C336 -11 424 62 424 167 C424 248 373 299 275 315 C207 326 207 326 193 331 C178 337 168 351 168 366 C168 393 196 414 233 414 C287 414 321 390 330 344 L441 366 Z M240 -53 L126 -53 L74 -241 L127 -241 L240 -53 Z " />
<glyph glyph-name="uni021A" unicode="&#x21a;" horiz-adv-x="489" d="M538 540 L560 667 L70 667 L49 540 L217 540 L127 0 L280 0 L370 540 L538 540 Z M258 -53 L138 -53 L88 -241 L142 -241 L258 -53 Z " />
<glyph glyph-name="uni021B" unicode="&#x21b;" horiz-adv-x="359" d="M361 383 L380 497 L266 497 L289 637 L164 634 L130 497 L47 497 L28 383 L104 383 L72 220 C58 152 56 137 56 109 C56 27 104 -12 205 -12 C238 -12 263 -10 303 -4 L321 105 C306 102 289 101 268 101 C223 101 205 112 205 141 C205 150 206 162 210 184 L243 383 L361 383 Z M220 -53 L107 -53 L55 -241 L108 -241 L220 -53 Z " />
<glyph glyph-name="uni0226" unicode="&#x226;" horiz-adv-x="615" d="M577 0 L465 667 L282 667 L-35 0 L109 0 L174 147 L396 147 L418 0 L577 0 Z M224 263 L341 530 L380 263 L224 263 Z M387 856 C352 856 324 829 324 794 C324 759 351 733 387 733 C424 733 451 759 451 793 C451 830 424 856 387 856 L387 856 Z " />
<glyph glyph-name="uni0227" unicode="&#x227;" horiz-adv-x="541" d="M453 0 C451 14 451 21 451 33 C451 60 454 85 461 127 L482 254 C495 334 496 340 496 362 C496 451 423 506 303 506 C177 506 96 455 61 354 L191 339 C212 394 239 415 291 415 C331 415 356 392 356 355 C356 341 354 329 347 311 C243 305 174 294 128 275 C51 244 11 192 11 123 C11 44 73 -13 159 -13 C232 -13 290 22 319 86 C319 77 318 73 317 62 C315 45 314 38 314 30 C314 22 314 22 315 0 L453 0 Z M336 241 C320 136 278 78 217 78 C184 78 161 103 161 139 C161 174 182 203 220 220 C246 232 277 237 336 241 L336 241 Z M330 695 C297 695 272 670 272 638 C272 606 297 582 330 582 C364 582 389 605 389 637 C389 671 365 695 330 695 L330 695 Z " />
<glyph glyph-name="uni0237" unicode="&#x237;" horiz-adv-x="268" d="M249 497 L101 497 L33 87 C13 -28 13 -28 3 -42 C-7 -57 -26 -64 -54 -64 C-62 -64 -69 -63 -83 -61 L-99 -175 C-53 -181 -36 -182 -12 -182 C48 -182 91 -165 120 -130 C145 -98 156 -63 177 63 L249 497 Z " />
<glyph glyph-name="uni0259" unicode="&#x259;" horiz-adv-x="533" d="M36 273 C33 249 31 223 31 212 C31 77 115 -13 242 -13 C319 -13 384 17 431 74 C479 131 505 205 505 280 C505 418 417 510 285 510 C175 510 93 453 55 348 L177 327 C197 382 229 407 276 407 C327 407 360 370 360 312 C360 301 359 292 357 273 L36 273 Z M347 191 C338 155 332 140 320 122 C303 95 272 78 241 78 C195 78 165 111 165 162 C165 170 166 178 168 191 L347 191 Z " />
<glyph glyph-name="afii57929" unicode="&#x2bc;" horiz-adv-x="257" d="M266 667 L132 667 L108 524 L169 524 L74 384 L129 384 L244 536 L266 667 Z " />
<glyph glyph-name="circumflex" unicode="&#x2c6;" horiz-adv-x="500" d="M477 580 L327 733 L123 580 L220 570 L315 637 L380 570 L477 580 Z " />
<glyph glyph-name="caron" unicode="&#x2c7;" horiz-adv-x="500" d="M148 717 L298 563 L502 717 L405 727 L311 660 L245 727 L148 717 Z " />
<glyph glyph-name="uni02C9" unicode="&#x2c9;" horiz-adv-x="500" d="M460 600 L471 670 L165 670 L153 600 L460 600 Z " />
<glyph glyph-name="breve" unicode="&#x2d8;" horiz-adv-x="500" d="M167 717 C166 707 166 698 166 692 C166 622 218 577 298 577 C386 577 450 627 478 717 L402 717 C386 671 360 652 311 652 C266 652 245 670 244 709 L244 717 L167 717 Z " />
<glyph glyph-name="dotaccent" unicode="&#x2d9;" horiz-adv-x="500" d="M314 695 C281 695 256 670 256 638 C256 606 281 582 314 582 C348 582 373 605 373 637 C373 671 349 695 314 695 L314 695 Z " />
<glyph glyph-name="ring" unicode="&#x2da;" horiz-adv-x="500" d="M314 739 C263 739 222 698 222 648 C222 597 264 556 314 556 C367 556 410 597 410 647 C410 699 369 739 314 739 L314 739 Z M316 684 C338 684 355 668 355 647 C355 627 337 611 316 611 C295 611 277 628 277 647 C277 668 295 684 316 684 L316 684 Z " />
<glyph glyph-name="ogonek" unicode="&#x2db;" horiz-adv-x="500" d="M353 0 C286 -28 257 -59 257 -101 C257 -145 294 -171 354 -171 C388 -171 415 -165 440 -153 L434 -114 C410 -122 404 -123 395 -123 C364 -123 345 -108 345 -83 C345 -56 372 -26 420 0 L353 0 Z " />
<glyph glyph-name="tilde" unicode="&#x2dc;" horiz-adv-x="500" d="M450 696 C423 670 397 656 377 656 C366 656 350 661 332 671 C301 687 285 692 262 692 C226 692 190 676 150 641 L181 585 C207 606 229 616 249 616 C258 616 273 611 287 604 C330 583 337 580 362 580 C403 580 439 599 481 641 L450 696 Z " />
<glyph glyph-name="hungarumlaut" unicode="&#x2dd;" horiz-adv-x="500" d="M182 567 L359 673 L316 739 L154 613 L182 567 Z M352 567 L529 673 L486 739 L324 613 L352 567 Z " />
<glyph glyph-name="uni0309" unicode="&#x309;" horiz-adv-x="500" d="M577 739 L487 739 L-47 -67 L44 -67 L577 739 Z " />
<glyph glyph-name="uni037E" unicode="&#x37e;" horiz-adv-x="257" d="M189 151 L37 151 L12 0 L84 0 L-12 -153 L46 -153 L166 16 L189 151 Z M220 339 L246 490 L94 490 L68 339 L220 339 Z " />
<glyph glyph-name="tonos" unicode="&#x384;" horiz-adv-x="631" d="M94 719 L11 472 L87 441 L200 674 L94 719 Z " />
<glyph glyph-name="dieresistonos" unicode="&#x385;" horiz-adv-x="500" d="M365 895 L258 735 L316 686 L447 826 L365 895 Z M228 697 C191 697 162 669 162 632 C162 596 190 568 228 568 C266 568 295 595 295 631 C295 669 267 697 228 697 L228 697 Z M391 697 C354 697 325 669 325 632 C325 596 353 568 391 568 C429 568 458 595 458 631 C458 669 430 697 391 697 L391 697 Z " />
<glyph glyph-name="Alphatonos" unicode="&#x386;" horiz-adv-x="622" d="M592 0 L480 667 L297 667 L-20 0 L124 0 L189 147 L411 147 L433 0 L592 0 Z M239 263 L356 530 L395 263 L239 263 Z M109 707 L29 469 L96 442 L205 666 L109 707 Z " />
<glyph glyph-name="Epsilontonos" unicode="&#x388;" horiz-adv-x="691" d="M729 667 L260 667 L148 0 L623 0 L644 127 L325 127 L351 282 L613 282 L633 403 L371 403 L394 540 L708 540 L729 667 Z M110 707 L30 469 L97 442 L206 666 L110 707 Z " />
<glyph glyph-name="Etatonos" unicode="&#x389;" horiz-adv-x="765" d="M768 667 L622 667 L578 405 L362 405 L406 667 L260 667 L148 0 L295 0 L341 278 L557 278 L510 0 L657 0 L768 667 Z M110 707 L30 469 L97 442 L206 666 L110 707 Z " />
<glyph glyph-name="Iotatonos" unicode="&#x38a;" horiz-adv-x="409" d="M413 667 L260 667 L148 0 L301 0 L413 667 Z M110 707 L30 469 L97 442 L206 666 L110 707 Z " />
<glyph glyph-name="Omicrontonos" unicode="&#x38c;" horiz-adv-x="744" d="M461 680 C353 680 261 621 205 516 C168 446 148 362 148 279 C148 103 252 -13 410 -13 C506 -13 585 27 642 106 C696 181 725 279 725 387 C725 564 620 680 461 680 L461 680 Z M461 558 C536 558 573 508 573 404 C573 343 562 282 540 220 C511 143 474 110 413 110 C339 110 301 161 301 257 C301 325 314 398 337 454 C365 524 405 558 461 558 L461 558 Z M110 707 L30 469 L97 442 L206 666 L110 707 Z " />
<glyph glyph-name="Upsilontonos" unicode="&#x38e;" horiz-adv-x="729" d="M826 667 L681 667 L508 403 L406 667 L240 667 L405 280 L358 0 L512 0 L559 280 L826 667 Z M110 707 L30 469 L97 442 L206 666 L110 707 Z " />
<glyph glyph-name="Omegatonos" unicode="&#x38f;" horiz-adv-x="782" d="M111 0 L382 0 L403 127 C345 164 321 217 321 310 C321 463 386 562 488 562 C565 562 609 502 609 394 C609 341 597 285 577 238 C553 184 526 155 474 127 L453 0 L730 0 L751 127 L575 127 C637 156 664 174 693 206 C743 260 768 332 768 422 C768 505 747 561 699 607 C648 655 575 680 486 680 C295 680 169 549 169 352 C169 297 181 252 206 212 C228 177 250 158 302 127 L132 127 L111 0 Z M110 707 L30 469 L97 442 L206 666 L110 707 Z " />
<glyph glyph-name="iotadieresistonos" unicode="&#x390;" horiz-adv-x="269" d="M252 497 L102 497 L19 0 L168 0 L252 497 Z M251 881 L150 730 L201 688 L325 820 L251 881 Z M114 687 C79 687 53 661 53 627 C53 593 79 568 113 568 C149 568 175 593 175 626 C175 662 149 687 114 687 L114 687 Z M277 687 C242 687 216 661 216 627 C216 593 242 568 276 568 C312 568 338 593 338 626 C338 662 312 687 277 687 L277 687 Z " />
<glyph glyph-name="Alpha" unicode="&#x391;" horiz-adv-x="601" d="M571 0 L459 667 L276 667 L-41 0 L103 0 L168 147 L390 147 L412 0 L571 0 Z M218 263 L335 530 L374 263 L218 263 Z " />
<glyph glyph-name="Beta" unicode="&#x392;" horiz-adv-x="652" d="M137 667 L25 0 L356 0 C434 0 490 13 529 38 C580 73 610 131 610 195 C610 272 573 316 489 342 C535 354 557 362 578 377 C617 404 638 448 638 501 C638 549 619 594 587 622 C550 654 505 667 423 667 L137 667 Z M271 555 L376 555 C445 555 477 531 477 479 C477 452 465 427 445 414 C425 401 413 399 350 399 L245 399 L271 555 Z M226 286 L328 286 C371 286 394 282 412 272 C434 259 448 234 448 205 C448 150 406 119 333 119 L198 119 L226 286 Z " />
<glyph glyph-name="Gamma" unicode="&#x393;" horiz-adv-x="461" d="M25 0 L172 0 L262 540 L509 540 L531 667 L137 667 L25 0 Z " />
<glyph glyph-name="uni0394" unicode="&#x394;" horiz-adv-x="566" d="M-52 0 L549 0 L442 667 L260 667 L-52 0 Z M144 122 L318 537 L326 537 L378 122 L144 122 Z " />
<glyph glyph-name="Epsilon" unicode="&#x395;" horiz-adv-x="568" d="M606 667 L137 667 L25 0 L500 0 L521 127 L202 127 L228 282 L490 282 L510 403 L248 403 L271 540 L585 540 L606 667 Z " />
<glyph glyph-name="Zeta" unicode="&#x396;" horiz-adv-x="573" d="M-3 108 L-21 0 L512 0 L533 127 L395 127 C343 127 294 127 278 126 L220 124 L192 124 L582 565 L598 667 L103 667 L82 540 L228 540 C281 540 317 541 387 544 L-3 108 Z " />
<glyph glyph-name="Eta" unicode="&#x397;" horiz-adv-x="642" d="M645 667 L499 667 L455 405 L239 405 L283 667 L137 667 L25 0 L172 0 L218 278 L434 278 L387 0 L534 0 L645 667 Z " />
<glyph glyph-name="Theta" unicode="&#x398;" horiz-adv-x="687" d="M451 395 L280 395 L268 286 L438 286 L451 395 Z M398 680 C292 680 201 635 135 548 C78 474 46 376 46 273 C46 97 150 -13 316 -13 C426 -13 519 33 584 120 C638 193 669 289 669 386 C669 568 565 680 398 680 L398 680 Z M383 557 C464 557 516 489 516 381 C516 226 437 110 333 110 C250 110 199 176 199 283 C199 440 277 557 383 557 L383 557 Z " />
<glyph glyph-name="Iota" unicode="&#x399;" horiz-adv-x="287" d="M290 667 L137 667 L25 0 L178 0 L290 667 Z " />
<glyph glyph-name="Kappa" unicode="&#x39a;" horiz-adv-x="625" d="M654 667 L497 667 L283 420 C278 413 267 400 252 380 C246 372 238 362 231 353 L283 667 L137 667 L25 0 L172 0 L198 160 L330 310 L414 0 L572 0 L443 427 L654 667 Z " />
<glyph glyph-name="Lambda" unicode="&#x39b;" horiz-adv-x="525" d="M76 0 L296 539 L353 0 L514 0 L421 667 L238 667 L-66 0 L76 0 Z " />
<glyph glyph-name="Mu" unicode="&#x39c;" horiz-adv-x="857" d="M860 667 L624 667 L430 259 L370 667 L137 667 L25 0 L151 0 L245 564 L252 564 L334 0 L423 0 L686 558 L692 558 L599 0 L748 0 L860 667 Z " />
<glyph glyph-name="Nu" unicode="&#x39d;" horiz-adv-x="652" d="M655 667 L531 667 L495 456 C477 340 467 274 466 260 L305 667 L137 667 L25 0 L150 0 L193 255 C217 400 223 444 225 483 L419 0 L544 0 L655 667 Z " />
<glyph glyph-name="Xi" unicode="&#x39e;" horiz-adv-x="523" d="M-8 0 L448 0 L469 127 L13 127 L-8 0 Z M103 284 L432 284 L452 401 L123 401 L103 284 Z M83 545 L539 545 L560 667 L104 667 L83 545 Z " />
<glyph glyph-name="Omicron" unicode="&#x39f;" horiz-adv-x="643" d="M360 680 C252 680 160 621 104 516 C67 446 47 362 47 279 C47 103 151 -13 309 -13 C405 -13 484 27 541 106 C595 181 624 279 624 387 C624 564 519 680 360 680 L360 680 Z M360 558 C435 558 472 508 472 404 C472 343 461 282 439 220 C410 143 373 110 312 110 C238 110 200 161 200 257 C200 325 213 398 236 454 C264 524 304 558 360 558 L360 558 Z " />
<glyph glyph-name="Pi" unicode="&#x3a0;" horiz-adv-x="621" d="M25 0 L172 0 L263 545 L457 545 L366 0 L513 0 L624 667 L137 667 L25 0 Z " />
<glyph glyph-name="Rho" unicode="&#x3a1;" horiz-adv-x="600" d="M220 250 L362 250 C461 250 508 265 553 311 C593 351 617 413 617 474 C617 538 591 595 545 629 C506 658 465 667 375 667 L137 667 L25 0 L178 0 L220 250 Z M270 548 L350 548 C395 548 420 543 437 530 C457 515 468 490 468 463 C468 403 426 367 355 367 L240 367 L270 548 Z " />
<glyph glyph-name="Sigma" unicode="&#x3a3;" horiz-adv-x="515" d="M-11 0 L460 0 L482 127 L167 127 L398 353 L264 544 L533 544 L553 667 L114 667 L94 544 L238 342 L9 122 L-11 0 Z " />
<glyph glyph-name="Tau" unicode="&#x3a4;" horiz-adv-x="489" d="M538 540 L560 667 L70 667 L49 540 L217 540 L127 0 L280 0 L370 540 L538 540 Z " />
<glyph glyph-name="Upsilon" unicode="&#x3a5;" horiz-adv-x="533" d="M631 667 L485 667 L312 403 L210 667 L44 667 L210 280 L163 0 L316 0 L363 280 L631 667 Z " />
<glyph glyph-name="Phi" unicode="&#x3a6;" horiz-adv-x="737" d="M368 687 L354 604 C290 598 251 588 208 567 C110 519 49 415 49 296 C49 163 116 92 264 66 L250 -20 L395 -20 L409 63 C608 73 719 178 719 358 C719 494 641 580 499 601 L513 687 L368 687 Z M480 490 C548 470 579 427 579 353 C579 248 525 183 427 170 L480 490 Z M283 176 C216 200 188 240 188 311 C188 378 218 437 267 467 C286 479 303 486 336 495 L283 176 Z " />
<glyph glyph-name="Chi" unicode="&#x3a7;" horiz-adv-x="606" d="M636 667 L486 667 L344 458 L251 667 L86 667 L229 356 L-40 0 L113 0 L288 252 L396 0 L563 0 L401 356 L636 667 Z " />
<glyph glyph-name="Psi" unicode="&#x3a8;" horiz-adv-x="837" d="M303 0 L450 0 L470 120 C563 121 635 137 685 168 C769 225 788 269 817 471 L850 667 L704 667 L671 471 C643 279 625 255 491 244 L562 667 L415 667 L344 244 C258 251 225 277 225 337 C225 365 228 392 242 471 L274 667 L128 667 L95 471 C83 397 77 351 77 322 C77 183 149 124 324 120 L303 0 Z " />
<glyph glyph-name="uni03A9" unicode="&#x3a9;" horiz-adv-x="661" d="M-9 0 L262 0 L283 127 C225 165 201 217 201 310 C201 463 266 562 368 562 C445 562 489 502 489 394 C489 341 477 284 457 238 C433 184 406 155 353 127 L332 0 L610 0 L631 127 L454 127 C517 156 544 174 573 206 C623 260 648 332 648 422 C648 505 627 561 579 607 C528 655 455 680 366 680 C175 680 49 549 49 352 C49 297 61 252 86 212 C108 177 130 158 182 127 L12 127 L-9 0 Z " />
<glyph glyph-name="Iotadieresis" unicode="&#x3aa;" horiz-adv-x="287" d="M290 667 L137 667 L25 0 L178 0 L290 667 Z M143 856 C108 856 80 829 80 794 C80 759 107 733 143 733 C180 733 207 759 207 793 C207 830 180 856 143 856 L143 856 Z M323 856 C288 856 260 829 260 794 C260 759 287 733 323 733 C360 733 387 759 387 793 C387 830 360 856 323 856 L323 856 Z " />
<glyph glyph-name="Upsilondieresis" unicode="&#x3ab;" horiz-adv-x="533" d="M631 667 L485 667 L312 403 L210 667 L44 667 L210 280 L163 0 L316 0 L363 280 L631 667 Z M271 856 C236 856 208 829 208 794 C208 759 235 733 271 733 C308 733 335 759 335 793 C335 830 308 856 271 856 L271 856 Z M451 856 C416 856 388 829 388 794 C388 759 415 733 451 733 C488 733 515 759 515 793 C515 830 488 856 451 856 L451 856 Z " />
<glyph glyph-name="alphatonos" unicode="&#x3ac;" horiz-adv-x="540" d="M438 0 L521 493 L378 493 L365 415 C350 475 308 508 246 508 C184 508 133 478 93 418 C54 361 29 273 29 195 C29 67 89 -11 187 -11 C240 -11 279 15 317 77 L304 0 L438 0 Z M279 406 C318 406 347 370 347 319 C347 299 336 221 328 191 C313 126 282 92 238 92 C200 92 177 124 177 177 C177 229 190 303 207 347 C221 383 249 406 279 406 L279 406 Z M323 551 L472 693 L381 774 L261 608 L323 551 Z " />
<glyph glyph-name="epsilontonos" unicode="&#x3ad;" horiz-adv-x="474" d="M312 296 L292 296 C228 296 202 311 202 349 C202 389 231 414 276 414 C320 414 344 392 348 350 L478 371 C466 464 398 510 272 510 C143 510 60 454 60 366 C60 321 79 297 141 265 C58 244 17 201 17 132 C17 37 89 -13 226 -13 C349 -13 425 35 460 135 L332 156 C315 108 281 82 235 82 C192 82 167 103 167 139 C167 168 180 190 204 201 C223 210 235 212 298 212 L312 296 Z M294 553 L434 688 L353 761 L239 604 L294 553 Z " />
<glyph glyph-name="etatonos" unicode="&#x3ae;" horiz-adv-x="557" d="M430 -173 L511 308 C517 343 520 373 520 393 C520 466 469 510 386 510 C315 510 272 485 220 414 L234 497 L102 497 L19 0 L162 0 L211 288 C222 356 264 400 319 400 C352 400 371 380 371 344 C371 334 370 321 368 308 L287 -173 L430 -173 Z M355 553 L496 688 L414 761 L300 604 L355 553 Z " />
<glyph glyph-name="iotatonos" unicode="&#x3af;" horiz-adv-x="269" d="M252 497 L102 497 L19 0 L168 0 L252 497 Z M200 553 L341 688 L259 761 L146 604 L200 553 Z " />
<glyph glyph-name="upsilondieresistonos" unicode="&#x3b0;" horiz-adv-x="547" d="M241 497 L98 497 L51 221 C46 188 43 159 43 136 C43 35 106 -13 238 -13 C337 -13 400 13 438 68 C460 100 473 139 486 221 L533 497 L389 497 L343 221 C334 166 326 134 319 119 C306 94 281 82 245 82 C204 82 184 99 184 132 C184 149 187 177 195 221 L241 497 Z M389 881 L288 730 L340 688 L463 820 L389 881 Z M252 687 C217 687 191 661 191 627 C191 593 217 568 251 568 C287 568 313 593 313 626 C313 662 287 687 252 687 L252 687 Z M415 687 C380 687 354 661 354 627 C354 593 380 568 414 568 C450 568 476 593 476 626 C476 662 450 687 415 687 L415 687 Z " />
<glyph glyph-name="alpha" unicode="&#x3b1;" horiz-adv-x="540" d="M438 0 L521 493 L378 493 L365 415 C350 475 308 508 246 508 C184 508 133 478 93 418 C54 361 29 273 29 195 C29 67 89 -11 187 -11 C240 -11 279 15 317 77 L304 0 L438 0 Z M279 406 C318 406 347 370 347 319 C347 299 336 221 328 191 C313 126 282 92 238 92 C200 92 177 124 177 177 C177 229 190 303 207 347 C221 383 249 406 279 406 L279 406 Z " />
<glyph glyph-name="beta" unicode="&#x3b2;" horiz-adv-x="578" d="M-6 -173 L137 -173 L175 50 C218 5 262 -13 329 -13 C460 -13 542 67 542 195 C542 284 502 331 397 363 C447 374 471 385 496 407 C526 433 543 476 543 525 C543 621 463 680 333 680 C247 680 185 653 151 600 C122 557 109 514 93 416 L-6 -173 Z M239 435 C251 503 257 530 269 553 C280 575 303 588 332 588 C377 588 397 566 397 516 C397 435 367 395 306 394 L293 314 C326 314 342 311 354 305 C378 292 392 264 392 227 C392 190 381 151 362 123 C343 95 313 80 276 80 C237 80 207 94 187 122 L239 435 Z " />
<glyph glyph-name="gamma" unicode="&#x3b3;" horiz-adv-x="451" d="M81 -173 L224 -173 L253 0 L509 497 L387 497 L225 172 L181 497 L32 497 L110 0 L81 -173 Z " />
<glyph glyph-name="delta" unicode="&#x3b4;" horiz-adv-x="561" d="M516 667 L147 667 L131 571 L270 451 C194 442 154 427 112 391 C57 344 30 280 30 197 C30 65 115 -14 257 -14 C420 -14 525 93 525 259 C525 366 477 443 357 527 L308 562 L498 562 L516 667 Z M296 372 C350 372 375 341 375 272 C375 227 366 178 352 145 C333 102 305 82 261 82 C205 82 180 113 180 182 C180 306 220 372 296 372 L296 372 Z " />
<glyph glyph-name="epsilon" unicode="&#x3b5;" horiz-adv-x="474" d="M312 296 L292 296 C228 296 202 311 202 349 C202 389 231 414 276 414 C320 414 344 392 348 350 L478 371 C466 464 398 510 272 510 C143 510 60 454 60 366 C60 321 79 297 141 265 C58 244 17 201 17 132 C17 37 89 -13 226 -13 C349 -13 425 35 460 135 L332 156 C315 108 281 82 235 82 C192 82 167 103 167 139 C167 168 180 190 204 201 C223 210 235 212 298 212 L312 296 Z " />
<glyph glyph-name="zeta" unicode="&#x3b6;" horiz-adv-x="417" d="M106 562 L297 562 C216 505 181 475 138 425 C64 340 24 243 24 152 C24 51 69 5 173 -1 C219 -3 235 -12 235 -36 C235 -65 219 -104 190 -149 L287 -176 C349 -90 371 -39 371 19 C371 77 346 100 274 107 C198 115 178 132 178 191 C178 326 286 488 434 575 L446 667 L123 667 L106 562 Z " />
<glyph glyph-name="eta" unicode="&#x3b7;" horiz-adv-x="557" d="M430 -173 L511 308 C517 343 520 373 520 393 C520 466 469 510 386 510 C315 510 272 485 220 414 L234 497 L102 497 L19 0 L162 0 L211 288 C222 356 264 400 319 400 C352 400 371 380 371 344 C371 334 370 321 368 308 L287 -173 L430 -173 Z " />
<glyph glyph-name="theta" unicode="&#x3b8;" horiz-adv-x="561" d="M332 680 C235 680 159 632 109 539 C70 465 46 359 46 255 C46 81 120 -13 259 -13 C357 -13 430 34 480 128 C519 202 543 308 543 410 C543 586 470 680 332 680 L332 680 Z M204 388 C212 440 219 469 230 498 C253 555 286 585 325 585 C373 585 401 534 401 446 C401 429 400 415 397 388 L204 388 Z M388 302 C366 147 329 82 265 82 C214 82 188 128 188 217 C188 244 190 267 194 302 L388 302 Z " />
<glyph glyph-name="iota" unicode="&#x3b9;" horiz-adv-x="269" d="M252 497 L102 497 L19 0 L168 0 L252 497 Z " />
<glyph glyph-name="kappa" unicode="&#x3ba;" horiz-adv-x="529" d="M387 327 L566 497 L414 497 L211 290 L245 497 L102 497 L19 0 L162 0 L188 152 L271 228 L345 0 L496 0 L387 327 Z " />
<glyph glyph-name="lambda" unicode="&#x3bb;" horiz-adv-x="429" d="M-48 0 L66 0 L210 318 L282 0 L426 0 L264 667 L120 667 L173 460 L-48 0 Z " />
<glyph glyph-name="uni03BC" unicode="&#x3bc;" horiz-adv-x="563" d="M-10 -173 L133 -173 L174 69 C179 11 202 -13 249 -13 C299 -13 326 9 359 77 L346 0 L462 0 L546 497 L402 497 L358 235 C349 176 342 154 329 130 C312 100 283 82 253 82 C215 82 192 110 192 156 C192 175 193 185 202 235 L245 497 L102 497 L-10 -173 Z " />
<glyph glyph-name="nu" unicode="&#x3bd;" horiz-adv-x="441" d="M489 497 L376 497 L233 188 L180 497 L28 497 L126 0 L246 0 L489 497 Z " />
<glyph glyph-name="xi" unicode="&#x3be;" horiz-adv-x="457" d="M337 -176 C392 -87 414 -31 414 18 C414 74 385 99 310 109 C230 119 227 119 211 125 C184 135 171 154 171 184 C171 218 186 249 211 268 C237 288 266 294 341 294 L391 294 L409 397 L355 397 C280 397 244 421 244 470 C244 503 266 533 302 549 C326 560 344 562 401 562 L469 562 L487 667 L112 667 L94 562 L223 562 C134 537 92 499 92 446 C92 423 103 402 121 389 C138 376 150 370 195 353 C69 309 19 252 19 150 C19 60 74 11 186 0 C244 -5 245 -6 258 -12 C272 -18 279 -29 279 -44 C279 -66 267 -98 240 -148 L337 -176 Z " />
<glyph glyph-name="omicron" unicode="&#x3bf;" horiz-adv-x="534" d="M286 510 C137 510 31 387 31 213 C31 82 122 -13 249 -13 C392 -13 503 113 503 276 C503 416 416 510 286 510 L286 510 Z M286 414 C333 414 358 381 358 317 C358 260 345 185 326 140 C311 102 286 83 252 83 C202 83 178 114 178 181 C178 248 192 322 213 366 C227 397 254 414 286 414 L286 414 Z " />
<glyph glyph-name="pi" unicode="&#x3c0;" horiz-adv-x="581" d="M34 0 L177 0 L243 392 L386 392 L320 0 L463 0 L529 392 L587 392 L604 497 L59 497 L42 392 L100 392 L34 0 Z " />
<glyph glyph-name="rho" unicode="&#x3c1;" horiz-adv-x="563" d="M-18 -173 L125 -173 L163 55 C193 5 228 -14 290 -14 C436 -14 533 102 533 277 C533 427 451 511 304 511 C217 511 152 478 105 410 C78 369 66 329 44 199 L-18 -173 Z M307 415 C360 415 386 379 386 305 C386 250 375 189 359 151 C339 104 310 82 267 82 C217 82 191 116 191 182 C191 240 202 311 218 348 C236 393 266 415 307 415 L307 415 Z " />
<glyph glyph-name="uni03C2" unicode="&#x3c2;" horiz-adv-x="495" d="M369 -176 C419 -102 441 -45 441 6 C441 68 414 94 336 107 C248 122 237 125 214 143 C187 163 175 195 175 244 C175 347 218 415 283 415 C333 415 354 383 354 309 L488 331 C482 444 411 510 293 510 C201 510 131 476 82 405 C44 352 23 283 23 214 C23 128 54 69 119 32 C153 13 182 5 248 -3 C294 -9 305 -17 305 -45 C305 -73 290 -115 269 -149 L369 -176 Z " />
<glyph glyph-name="sigma" unicode="&#x3c3;" horiz-adv-x="576" d="M586 497 L387 497 C353 505 336 507 298 507 C223 507 178 493 133 456 C67 402 29 312 29 210 C29 67 110 -13 252 -13 C410 -13 521 97 521 251 C521 307 508 340 465 392 L568 392 L586 497 Z M295 411 C349 411 375 376 375 304 C375 249 366 190 352 153 C334 105 304 82 259 82 C204 82 178 116 178 191 C178 247 188 308 202 342 C221 388 253 411 295 411 L295 411 Z " />
<glyph glyph-name="tau" unicode="&#x3c4;" horiz-adv-x="405" d="M90 0 L233 0 L299 392 L432 392 L450 497 L39 497 L21 392 L156 392 L90 0 Z " />
<glyph glyph-name="upsilon" unicode="&#x3c5;" horiz-adv-x="547" d="M241 497 L98 497 L51 221 C46 188 43 159 43 136 C43 35 106 -13 238 -13 C337 -13 400 13 438 68 C460 100 473 139 486 221 L533 497 L389 497 L343 221 C334 166 326 134 319 119 C306 94 281 82 245 82 C204 82 184 99 184 132 C184 149 187 177 195 221 L241 497 Z " />
<glyph glyph-name="phi" unicode="&#x3c6;" horiz-adv-x="688" d="M292 -173 L425 -173 L425 -15 C490 -9 525 2 564 29 C629 74 668 152 668 238 C668 320 634 392 573 440 C520 481 459 499 367 499 C353 499 320 498 292 497 L292 103 C216 115 184 155 184 240 C184 302 200 338 242 367 L242 489 C175 469 139 449 106 411 C69 370 49 309 49 242 C49 162 76 95 127 47 C171 7 214 -9 292 -15 L292 -173 Z M425 381 C493 374 532 325 532 245 C532 160 496 111 425 103 L425 381 Z " />
<glyph glyph-name="chi" unicode="&#x3c7;" horiz-adv-x="493" d="M157 190 L-90 -173 L39 -173 L203 87 L285 -173 L436 -173 L315 168 L534 497 L410 497 L273 275 L198 497 L47 497 L157 190 Z " />
<glyph glyph-name="psi" unicode="&#x3c8;" horiz-adv-x="757" d="M242 -173 L375 -173 L403 -11 C502 -12 554 -2 603 28 C661 67 677 103 698 235 L742 497 L599 497 L554 231 C536 113 518 94 420 92 L488 497 L354 497 L286 92 C214 93 191 110 191 162 C191 177 194 208 198 231 L243 497 L99 497 L55 235 C50 204 47 171 47 150 C47 92 71 49 118 21 C154 -1 193 -9 269 -11 L242 -173 Z " />
<glyph glyph-name="omega" unicode="&#x3c9;" horiz-adv-x="744" d="M453 369 L323 369 L301 234 C291 175 286 152 281 138 C270 104 250 86 224 86 C191 86 173 115 173 168 C173 222 184 280 204 329 C221 372 239 402 287 463 L189 513 C73 406 25 310 25 182 C25 121 36 81 62 48 C94 9 144 -13 202 -13 C269 -13 308 11 351 81 C381 9 413 -13 487 -13 C632 -13 712 83 712 260 C712 363 687 426 613 513 L504 463 C548 384 562 337 562 266 C562 146 532 86 473 86 C439 86 423 108 423 155 C423 179 425 202 431 234 L453 369 Z " />
<glyph glyph-name="iotadieresis" unicode="&#x3ca;" horiz-adv-x="269" d="M252 497 L102 497 L19 0 L168 0 L252 497 Z M117 695 C84 695 59 670 59 638 C59 606 84 582 117 582 C151 582 176 605 176 637 C176 671 152 695 117 695 L117 695 Z M281 695 C248 695 223 670 223 638 C223 606 248 582 281 582 C315 582 340 605 340 637 C340 671 316 695 281 695 L281 695 Z " />
<glyph glyph-name="upsilondieresis" unicode="&#x3cb;" horiz-adv-x="547" d="M241 497 L98 497 L51 221 C46 188 43 159 43 136 C43 35 106 -13 238 -13 C337 -13 400 13 438 68 C460 100 473 139 486 221 L533 497 L389 497 L343 221 C334 166 326 134 319 119 C306 94 281 82 245 82 C204 82 184 99 184 132 C184 149 187 177 195 221 L241 497 Z M256 695 C223 695 198 670 198 638 C198 606 223 582 256 582 C290 582 315 605 315 637 C315 671 291 695 256 695 L256 695 Z M419 695 C386 695 361 670 361 638 C361 606 386 582 419 582 C453 582 478 605 478 637 C478 671 454 695 419 695 L419 695 Z " />
<glyph glyph-name="omicrontonos" unicode="&#x3cc;" horiz-adv-x="534" d="M286 510 C137 510 31 387 31 213 C31 82 122 -13 249 -13 C392 -13 503 113 503 276 C503 416 416 510 286 510 L286 510 Z M286 414 C333 414 358 381 358 317 C358 260 345 185 326 140 C311 102 286 83 252 83 C202 83 178 114 178 181 C178 248 192 322 213 366 C227 397 254 414 286 414 L286 414 Z M321 553 L462 688 L380 761 L266 604 L321 553 Z " />
<glyph glyph-name="upsilontonos" unicode="&#x3cd;" horiz-adv-x="547" d="M241 497 L98 497 L51 221 C46 188 43 159 43 136 C43 35 106 -13 238 -13 C337 -13 400 13 438 68 C460 100 473 139 486 221 L533 497 L389 497 L343 221 C334 166 326 134 319 119 C306 94 281 82 245 82 C204 82 184 99 184 132 C184 149 187 177 195 221 L241 497 Z M331 553 L472 688 L390 761 L276 604 L331 553 Z " />
<glyph glyph-name="omegatonos" unicode="&#x3ce;" horiz-adv-x="744" d="M453 369 L323 369 L301 234 C291 175 286 152 281 138 C270 104 250 86 224 86 C191 86 173 115 173 168 C173 222 184 280 204 329 C221 372 239 402 287 463 L189 513 C73 406 25 310 25 182 C25 121 36 81 62 48 C94 9 144 -13 202 -13 C269 -13 308 11 351 81 C381 9 413 -13 487 -13 C632 -13 712 83 712 260 C712 363 687 426 613 513 L504 463 C548 384 562 337 562 266 C562 146 532 86 473 86 C439 86 423 108 423 155 C423 179 425 202 431 234 L453 369 Z M425 553 L566 688 L484 761 L371 604 L425 553 Z " />
<glyph glyph-name="theta1" unicode="&#x3d1;" horiz-adv-x="541" d="M181 450 L69 449 L13 200 C5 164 3 147 3 124 C3 35 57 -14 155 -14 C235 -14 308 13 354 59 C396 102 440 192 458 272 L490 413 C509 420 509 420 536 434 C538 435 541 437 541 437 L543 438 L546 439 L556 444 L572 520 C566 517 558 513 550 510 C547 509 538 505 526 499 C521 497 518 496 508 493 C518 542 523 588 523 629 C523 680 512 711 483 737 C458 760 421 773 383 773 C332 773 283 752 249 716 C214 679 190 616 190 561 C190 511 217 458 257 429 C287 408 313 400 371 395 L343 268 C328 203 317 174 295 144 C261 99 233 84 184 84 C135 84 117 99 117 140 C117 157 117 158 126 196 L181 450 Z M387 476 C339 480 305 525 305 584 C305 639 335 685 371 685 C396 685 409 671 409 643 C409 609 398 528 387 476 L387 476 Z " />
<glyph glyph-name="phi1" unicode="&#x3d5;" horiz-adv-x="711" d="M262 90 C198 109 171 147 171 220 C171 292 192 337 243 380 L221 487 C108 453 32 342 32 213 C32 82 98 12 245 -12 L218 -173 L352 -173 L378 -15 C449 -8 502 8 547 34 C625 80 679 181 679 278 C679 353 650 415 597 457 C551 493 489 510 406 510 C386 510 370 509 332 508 L262 90 Z M450 413 C507 395 536 351 536 281 C536 237 524 191 503 156 C480 117 451 99 395 86 L450 413 Z " />
<glyph glyph-name="uni0400" unicode="&#x400;" horiz-adv-x="571" d="M606 667 L137 667 L25 0 L500 0 L521 127 L202 127 L228 282 L490 282 L510 403 L248 403 L271 540 L585 540 L606 667 Z M409 723 L436 778 L259 883 L216 806 L409 723 Z " />
<glyph glyph-name="afii10023" unicode="&#x401;" horiz-adv-x="568" d="M606 667 L137 667 L25 0 L500 0 L521 127 L202 127 L228 282 L490 282 L510 403 L248 403 L271 540 L585 540 L606 667 Z M302 856 C267 856 239 829 239 794 C239 759 266 733 302 733 C339 733 366 759 366 793 C366 830 339 856 302 856 L302 856 Z M482 856 C447 856 419 829 419 794 C419 759 446 733 482 733 C519 733 546 759 546 793 C546 830 519 856 482 856 L482 856 Z " />
<glyph glyph-name="afii10051" unicode="&#x402;" horiz-adv-x="630" d="M55 0 L202 0 L240 226 C247 267 254 285 271 304 C293 329 328 343 367 343 C420 343 441 323 441 274 C441 223 415 62 396 2 C381 -49 359 -66 303 -71 L292 -173 C368 -171 406 -163 446 -141 C501 -109 528 -62 552 48 C573 144 592 274 592 326 C592 411 542 454 443 454 C370 454 315 428 264 370 L294 549 L521 549 L541 667 L62 667 L42 549 L147 549 L55 0 Z " />
<glyph glyph-name="afii10052" unicode="&#x403;" horiz-adv-x="461" d="M25 0 L172 0 L262 540 L509 540 L531 667 L137 667 L25 0 Z M280 723 L497 803 L460 883 L257 778 L280 723 Z " />
<glyph glyph-name="afii10053" unicode="&#x404;" horiz-adv-x="610" d="M443 395 L209 395 C222 499 279 557 366 557 C437 557 474 529 492 461 L629 497 C592 619 506 680 372 680 C276 680 200 646 141 576 C82 507 46 396 46 285 C46 190 74 112 126 58 C173 10 236 -13 320 -13 C424 -13 485 13 545 83 C573 116 589 144 603 188 L469 215 C439 146 389 110 323 110 C246 110 194 168 194 255 C194 262 195 276 197 290 L426 290 L443 395 Z " />
<glyph glyph-name="afii10054" unicode="&#x405;" horiz-adv-x="571" d="M562 503 C545 557 528 584 495 614 C449 656 385 678 312 678 C244 678 185 658 143 620 C99 581 72 521 72 463 C72 405 98 353 142 322 C173 300 205 287 270 269 C323 255 338 250 353 243 C375 231 387 212 387 187 C387 140 346 110 281 110 C206 110 163 142 147 210 L4 190 C19 117 40 79 87 43 C135 6 199 -13 277 -13 C437 -13 542 75 542 209 C542 283 511 336 449 369 C415 387 385 398 317 415 C243 433 221 449 221 485 C221 527 258 555 312 555 C372 555 407 529 425 471 L562 503 Z " />
<glyph glyph-name="afii10055" unicode="&#x406;" horiz-adv-x="287" d="M290 667 L137 667 L25 0 L178 0 L290 667 Z " />
<glyph glyph-name="afii10056" unicode="&#x407;" horiz-adv-x="287" d="M290 667 L137 667 L25 0 L178 0 L290 667 Z M137 856 C102 856 74 829 74 794 C74 759 101 733 137 733 C174 733 201 759 201 793 C201 830 174 856 137 856 L137 856 Z M317 856 C282 856 254 829 254 794 C254 759 281 733 317 733 C354 733 381 759 381 793 C381 830 354 856 317 856 L317 856 Z " />
<glyph glyph-name="afii10057" unicode="&#x408;" horiz-adv-x="390" d="M400 667 L249 667 L189 310 C177 237 170 198 170 194 C164 170 155 150 146 140 C128 121 98 112 50 112 C26 112 13 113 -15 118 L-34 0 C15 -9 39 -11 76 -11 C149 -11 202 4 244 35 C290 70 305 103 322 204 L400 667 Z " />
<glyph glyph-name="afii10058" unicode="&#x409;" horiz-adv-x="852" d="M471 420 L452 667 L230 667 L-56 0 L81 0 L304 541 L311 541 L335 0 L559 0 C646 0 701 15 749 52 C801 93 832 164 832 243 C832 303 810 353 771 383 C736 410 686 420 595 420 L471 420 Z M480 303 L582 303 C647 303 678 278 678 227 C678 157 641 122 566 122 L494 122 L480 303 Z " />
<glyph glyph-name="afii10059" unicode="&#x40a;" horiz-adv-x="952" d="M428 288 L380 0 L658 0 C745 0 800 15 848 52 C900 93 931 164 931 243 C931 303 909 353 870 383 C835 410 786 420 695 420 L597 420 L638 667 L492 667 L448 405 L239 405 L283 667 L137 667 L25 0 L172 0 L220 288 L428 288 Z M547 122 L577 303 L682 303 C746 303 777 278 777 227 C777 157 740 122 665 122 L547 122 Z " />
<glyph glyph-name="afii10060" unicode="&#x40b;" horiz-adv-x="640" d="M294 549 L522 549 L542 667 L62 667 L42 549 L147 549 L55 0 L202 0 L244 251 C255 310 298 342 365 342 C415 342 440 321 440 280 C440 270 439 257 437 244 L396 0 L543 0 L580 227 C586 262 589 287 589 308 C589 404 537 454 437 454 C365 454 313 430 264 372 L294 549 Z " />
<glyph glyph-name="afii10061" unicode="&#x40c;" horiz-adv-x="625" d="M654 667 L497 667 L283 420 C278 413 267 400 252 380 C246 372 238 362 231 353 L283 667 L137 667 L25 0 L172 0 L198 160 L330 310 L414 0 L572 0 L443 427 L654 667 Z M341 723 L559 803 L522 883 L318 778 L341 723 Z " />
<glyph glyph-name="uni040D" unicode="&#x40d;" horiz-adv-x="571" d="M606 667 L137 667 L25 0 L500 0 L521 127 L202 127 L228 282 L490 282 L510 403 L248 403 L271 540 L585 540 L606 667 Z M286 856 C251 856 223 829 223 794 C223 759 250 733 286 733 C323 733 350 759 350 793 C350 830 323 856 286 856 L286 856 Z M466 856 C431 856 403 829 403 794 C403 759 430 733 466 733 C503 733 530 759 530 793 C530 830 503 856 466 856 L466 856 Z " />
<glyph glyph-name="afii10062" unicode="&#x40e;" horiz-adv-x="521" d="M214 200 L203 182 C175 139 148 124 95 124 L44 124 L23 0 L87 0 C199 -2 260 40 335 173 L614 667 L474 667 L306 361 L210 667 L52 667 L214 200 Z M214 865 C213 856 213 849 213 842 C213 772 266 729 352 729 C444 729 506 775 538 865 L455 865 C439 824 412 807 364 807 C316 807 297 824 296 865 L214 865 Z " />
<glyph glyph-name="afii10145" unicode="&#x40f;" horiz-adv-x="640" d="M192 122 L283 667 L137 667 L25 0 L222 0 L199 -141 L309 -141 L332 0 L531 0 L643 667 L496 667 L405 122 L192 122 Z " />
<glyph glyph-name="afii10017" unicode="&#x410;" horiz-adv-x="601" d="M571 0 L459 667 L276 667 L-41 0 L103 0 L168 147 L390 147 L412 0 L571 0 Z M218 263 L335 530 L374 263 L218 263 Z " />
<glyph glyph-name="afii10018" unicode="&#x411;" horiz-adv-x="611" d="M25 0 L317 0 C480 0 575 86 575 232 C575 285 559 325 526 354 C489 388 438 400 333 400 L239 400 L264 551 L556 551 L576 667 L137 667 L25 0 Z M192 122 L220 286 L316 286 C387 286 417 265 417 216 C417 157 379 122 314 122 L192 122 Z " />
<glyph glyph-name="afii10019" unicode="&#x412;" horiz-adv-x="652" d="M137 667 L25 0 L356 0 C434 0 490 13 529 38 C580 73 610 131 610 195 C610 272 573 316 489 342 C592 366 638 414 638 500 C638 549 619 594 587 622 C550 655 504 667 423 667 L137 667 Z M271 555 L376 555 C445 555 477 531 477 479 C477 452 465 427 445 414 C425 401 413 399 350 399 L245 399 L271 555 Z M226 286 L328 286 C371 286 394 282 412 272 C434 259 448 234 448 205 C448 150 406 119 333 119 L198 119 L226 286 Z " />
<glyph glyph-name="afii10020" unicode="&#x413;" horiz-adv-x="441" d="M25 0 L172 0 L262 540 L489 540 L511 667 L137 667 L25 0 Z " />
<glyph glyph-name="afii10021" unicode="&#x414;" horiz-adv-x="638" d="M41 122 L-17 122 L-61 -140 L35 -140 L74 0 L481 0 L474 -140 L570 -140 L614 122 L556 122 L509 667 L269 667 L41 122 Z M176 122 L345 554 L368 554 L392 122 L176 122 Z " />
<glyph glyph-name="afii10022" unicode="&#x415;" horiz-adv-x="568" d="M606 667 L137 667 L25 0 L500 0 L521 127 L202 127 L228 282 L490 282 L510 403 L248 403 L271 540 L585 540 L606 667 Z " />
<glyph glyph-name="afii10024" unicode="&#x416;" horiz-adv-x="822" d="M649 369 L893 667 L749 667 L532 390 L509 382 L557 667 L413 667 L366 382 L346 390 L221 667 L68 667 L221 346 L-71 0 L77 0 L321 297 L350 286 L302 0 L445 0 L493 286 L525 297 L670 0 L827 0 L649 369 Z " />
<glyph glyph-name="afii10025" unicode="&#x417;" horiz-adv-x="579" d="M4 198 C3 191 3 184 3 181 C3 59 97 -13 255 -13 C334 -13 395 3 445 37 C505 78 540 141 540 208 C540 251 525 288 498 313 C479 331 461 340 418 355 C510 384 555 436 555 515 C555 617 465 680 318 680 C172 680 90 619 53 484 L174 463 C194 530 227 556 296 556 C360 556 399 530 399 487 C399 432 357 392 301 392 L258 392 L241 292 L295 292 C353 292 384 266 384 217 C384 149 339 110 259 110 C179 110 147 139 140 217 L4 198 Z " />
<glyph glyph-name="afii10026" unicode="&#x418;" horiz-adv-x="660" d="M181 55 L376 281 C429 343 453 377 482 432 C467 366 461 335 454 293 L405 0 L552 0 L663 667 L516 667 L506 607 L310 379 C274 337 248 299 205 230 C220 295 227 330 237 391 L283 667 L137 667 L25 0 L172 0 L181 55 Z " />
<glyph glyph-name="afii10027" unicode="&#x419;" horiz-adv-x="660" d="M181 55 L376 281 C429 343 453 377 482 432 C467 366 461 335 454 293 L405 0 L552 0 L663 667 L516 667 L506 607 L310 379 C274 337 248 299 205 230 C220 295 227 330 237 391 L283 667 L137 667 L25 0 L172 0 L181 55 Z M276 865 C275 856 275 847 275 842 C275 772 328 729 414 729 C506 729 568 775 600 865 L517 865 C501 824 474 807 426 807 C379 807 359 824 359 865 L276 865 Z " />
<glyph glyph-name="afii10028" unicode="&#x41a;" horiz-adv-x="625" d="M654 667 L497 667 L283 420 C278 413 267 400 252 380 C246 372 238 362 231 353 L283 667 L137 667 L25 0 L172 0 L198 160 L330 310 L414 0 L572 0 L443 427 L654 667 Z " />
<glyph glyph-name="afii10029" unicode="&#x41b;" horiz-adv-x="525" d="M76 0 L296 539 L353 0 L514 0 L421 667 L238 667 L-66 0 L76 0 Z " />
<glyph glyph-name="afii10030" unicode="&#x41c;" horiz-adv-x="857" d="M860 667 L624 667 L430 259 L370 667 L137 667 L25 0 L151 0 L245 564 L252 564 L334 0 L423 0 L686 558 L692 558 L599 0 L748 0 L860 667 Z " />
<glyph glyph-name="afii10031" unicode="&#x41d;" horiz-adv-x="642" d="M645 667 L499 667 L455 405 L239 405 L283 667 L137 667 L25 0 L172 0 L218 278 L434 278 L387 0 L534 0 L645 667 Z " />
<glyph glyph-name="afii10032" unicode="&#x41e;" horiz-adv-x="643" d="M360 680 C252 680 160 621 104 516 C67 446 47 362 47 279 C47 103 151 -13 309 -13 C405 -13 484 27 541 106 C595 181 624 279 624 387 C624 564 519 680 360 680 L360 680 Z M360 558 C435 558 472 508 472 404 C472 343 461 282 439 220 C410 143 373 110 312 110 C238 110 200 161 200 257 C200 325 213 398 236 454 C264 524 304 558 360 558 L360 558 Z " />
<glyph glyph-name="afii10033" unicode="&#x41f;" horiz-adv-x="622" d="M25 0 L172 0 L263 549 L459 549 L367 0 L513 0 L625 667 L137 667 L25 0 Z " />
<glyph glyph-name="afii10034" unicode="&#x420;" horiz-adv-x="600" d="M220 250 L362 250 C461 250 508 265 553 311 C593 351 617 413 617 474 C617 538 591 595 545 629 C506 658 465 667 375 667 L137 667 L25 0 L178 0 L220 250 Z M270 548 L350 548 C395 548 420 543 437 530 C457 515 468 490 468 463 C468 403 426 367 355 367 L240 367 L270 548 Z " />
<glyph glyph-name="afii10035" unicode="&#x421;" horiz-adv-x="622" d="M622 416 C620 465 616 487 606 519 C573 620 485 680 369 680 C271 680 191 638 130 553 C79 483 46 376 46 281 C46 191 77 106 129 55 C175 10 235 -12 310 -12 C448 -12 543 65 594 216 L457 239 C427 151 390 116 323 116 C250 116 212 164 212 255 C212 323 226 394 251 456 C278 524 313 553 369 553 C432 553 471 506 471 432 C471 427 471 418 470 409 L622 416 Z " />
<glyph glyph-name="afii10036" unicode="&#x422;" horiz-adv-x="489" d="M538 540 L560 667 L70 667 L49 540 L217 540 L127 0 L280 0 L370 540 L538 540 Z " />
<glyph glyph-name="afii10037" unicode="&#x423;" horiz-adv-x="521" d="M214 200 L203 182 C175 139 148 124 95 124 L44 124 L23 0 L87 0 C199 -2 260 40 335 173 L614 667 L474 667 L306 361 L210 667 L52 667 L214 200 Z " />
<glyph glyph-name="afii10038" unicode="&#x424;" horiz-adv-x="737" d="M368 687 L354 604 C290 598 251 588 208 567 C110 519 49 415 49 296 C49 163 116 92 264 66 L250 -20 L395 -20 L409 63 C608 73 719 178 719 358 C719 494 641 580 499 601 L513 687 L368 687 Z M480 490 C548 470 579 427 579 353 C579 248 525 183 427 170 L480 490 Z M283 176 C216 200 188 240 188 311 C188 378 218 437 267 467 C286 479 303 486 336 495 L283 176 Z " />
<glyph glyph-name="afii10039" unicode="&#x425;" horiz-adv-x="606" d="M636 667 L486 667 L344 458 L251 667 L86 667 L229 356 L-40 0 L113 0 L288 252 L396 0 L563 0 L401 356 L636 667 Z " />
<glyph glyph-name="afii10040" unicode="&#x426;" horiz-adv-x="656" d="M30 0 L506 0 L496 -141 L594 -141 L639 127 L558 127 L648 667 L501 667 L411 127 L198 127 L288 667 L142 667 L30 0 Z " />
<glyph glyph-name="afii10041" unicode="&#x427;" horiz-adv-x="604" d="M346 0 L492 0 L604 667 L457 667 L406 363 C363 337 323 325 278 325 C227 325 202 342 202 379 C202 386 202 386 211 448 L247 667 L101 667 L65 453 C57 404 53 371 53 350 C53 258 116 202 219 202 C284 202 336 221 390 264 L346 0 Z " />
<glyph glyph-name="afii10042" unicode="&#x428;" horiz-adv-x="947" d="M30 0 L833 0 L945 667 L798 667 L708 127 L526 127 L617 667 L470 667 L380 127 L198 127 L288 667 L142 667 L30 0 Z " />
<glyph glyph-name="afii10043" unicode="&#x429;" horiz-adv-x="953" d="M855 127 L945 667 L798 667 L708 127 L526 127 L617 667 L470 667 L380 127 L198 127 L288 667 L142 667 L30 0 L805 0 L797 -141 L893 -141 L937 127 L855 127 Z " />
<glyph glyph-name="afii10044" unicode="&#x42a;" horiz-adv-x="661" d="M90 0 L368 0 C455 0 510 15 558 52 C610 93 641 164 641 243 C641 303 619 353 580 383 C545 410 496 420 405 420 L307 420 L348 667 L46 667 L25 540 L180 540 L90 0 Z M257 122 L287 303 L392 303 C456 303 487 278 487 227 C487 157 450 122 375 122 L257 122 Z " />
<glyph glyph-name="afii10045" unicode="&#x42b;" horiz-adv-x="877" d="M617 0 L763 0 L875 667 L728 667 L617 0 Z M30 0 L308 0 C395 0 450 15 498 52 C550 93 581 164 581 243 C581 303 559 353 520 383 C485 410 435 420 345 420 L247 420 L288 667 L142 667 L30 0 Z M197 122 L227 303 L332 303 C396 303 427 278 427 227 C427 157 390 122 315 122 L197 122 Z " />
<glyph glyph-name="afii10046" unicode="&#x42c;" horiz-adv-x="597" d="M25 0 L303 0 C390 0 445 15 493 52 C545 93 576 164 576 243 C576 303 554 353 515 383 C480 410 430 420 340 420 L242 420 L283 667 L137 667 L25 0 Z M192 122 L222 303 L327 303 C391 303 422 278 422 227 C422 157 385 122 310 122 L192 122 Z " />
<glyph glyph-name="afii10047" unicode="&#x42d;" horiz-adv-x="620" d="M208 290 L443 290 C428 175 369 110 279 110 C207 110 160 149 145 221 L5 195 C15 148 28 119 54 86 C106 18 174 -13 271 -13 C373 -13 456 24 512 93 C571 167 603 268 603 382 C603 571 505 680 335 680 C207 680 119 622 57 497 L186 461 C218 528 260 557 324 557 C408 557 455 505 455 411 L455 395 L225 395 L208 290 Z " />
<glyph glyph-name="afii10048" unicode="&#x42e;" horiz-adv-x="927" d="M340 285 L340 275 C340 103 442 -13 593 -13 C688 -13 767 28 824 106 C877 180 907 279 907 384 C907 564 804 680 644 680 C569 680 509 654 455 598 C406 548 374 486 355 404 L249 404 L293 667 L147 667 L35 0 L182 0 L229 285 L340 285 Z M644 558 C717 558 755 507 755 408 C755 341 743 272 724 220 C695 144 655 110 595 110 C520 110 483 160 483 262 C483 324 497 400 519 454 C547 525 587 558 644 558 L644 558 Z " />
<glyph glyph-name="afii10049" unicode="&#x42f;" horiz-adv-x="627" d="M414 264 L370 0 L518 0 L630 667 L332 667 C250 667 204 656 160 626 C103 587 66 517 66 450 C66 418 73 389 88 361 C103 332 117 318 155 294 L-37 0 L129 0 L282 264 L414 264 Z M461 548 L433 378 L337 378 C281 378 269 380 250 393 C230 406 219 430 219 458 C219 491 234 520 259 534 C279 545 297 548 349 548 L461 548 Z " />
<glyph glyph-name="afii10065" unicode="&#x430;" horiz-adv-x="545" d="M453 0 C451 14 451 21 451 33 C451 60 454 85 461 127 L482 254 C495 335 496 339 496 362 C496 454 423 510 303 510 C177 510 96 457 61 354 L191 339 C212 398 239 419 290 419 C332 419 356 396 356 355 C356 341 354 329 347 311 C243 305 174 294 128 275 C51 244 11 192 11 123 C11 44 73 -13 159 -13 C232 -13 290 22 319 86 C319 77 318 73 317 62 C315 45 314 38 314 30 C314 22 314 22 315 0 L453 0 Z M336 241 C320 136 278 79 217 79 C184 79 161 104 161 140 C161 174 182 204 220 220 C245 232 277 237 336 241 L336 241 Z " />
<glyph glyph-name="afii10066" unicode="&#x431;" horiz-adv-x="558" d="M386 712 C381 687 370 677 340 669 C256 648 247 645 215 626 C157 590 107 524 78 443 C54 378 36 275 36 205 C36 67 115 -13 253 -13 C414 -13 525 105 525 279 C525 413 448 499 328 499 C284 499 261 492 200 460 C219 537 257 570 341 586 C464 608 513 641 527 712 L386 712 Z M296 404 C350 404 376 370 376 301 C376 251 368 196 355 160 C337 111 306 86 260 86 C205 86 178 120 178 189 C178 239 186 291 199 328 C217 379 249 404 296 404 L296 404 Z " />
<glyph glyph-name="afii10067" unicode="&#x432;" horiz-adv-x="545" d="M19 0 L312 0 C424 0 498 59 498 148 C498 207 467 240 392 261 C479 278 522 318 522 383 C522 420 505 452 476 471 C445 490 413 497 350 497 L102 497 L19 0 Z M211 294 L230 404 L312 404 C362 404 383 389 383 355 C383 317 357 294 314 294 L211 294 Z M179 97 L200 224 L289 224 C338 224 359 208 359 171 C359 120 334 97 281 97 L179 97 Z " />
<glyph glyph-name="afii10068" unicode="&#x433;" horiz-adv-x="385" d="M424 497 L102 497 L19 0 L162 0 L228 392 L406 392 L424 497 Z " />
<glyph glyph-name="afii10069" unicode="&#x434;" horiz-adv-x="518" d="M30 103 L-30 103 L-66 -113 L21 -113 L54 0 L381 0 L377 -113 L464 -113 L500 103 L440 103 L410 493 L209 493 L30 103 Z M139 103 L265 394 L285 394 L298 103 L139 103 Z " />
<glyph glyph-name="afii10070" unicode="&#x435;" horiz-adv-x="533" d="M497 223 C500 246 502 273 502 284 C502 419 418 510 292 510 C215 510 150 480 103 422 C55 365 29 291 29 216 C29 79 117 -13 249 -13 C359 -13 440 44 479 148 L357 169 C336 115 305 90 258 90 C206 90 174 127 174 185 C174 195 175 204 176 223 L497 223 Z M187 305 C195 341 201 356 213 374 C231 401 261 418 292 418 C338 418 368 385 368 334 C368 325 368 318 366 305 L187 305 Z " />
<glyph glyph-name="afii10072" unicode="&#x436;" horiz-adv-x="712" d="M569 290 L756 497 L615 497 L460 310 L439 304 L471 497 L328 497 L295 304 L276 310 L183 497 L42 497 L161 271 L-53 0 L82 0 L246 216 L279 206 L244 0 L388 0 L422 206 L459 216 L547 0 L695 0 L569 290 Z " />
<glyph glyph-name="afii10073" unicode="&#x437;" horiz-adv-x="478" d="M173 212 C237 212 247 210 265 202 C282 193 291 178 291 157 C291 112 257 82 207 82 C161 82 136 106 130 156 L-2 135 C3 100 13 77 33 53 C71 6 121 -13 208 -13 C302 -13 366 10 406 59 C428 84 440 119 440 153 C440 211 411 245 343 265 C421 292 449 323 449 380 C449 462 378 510 259 510 C138 510 64 464 34 371 L159 350 C173 394 199 415 241 415 C280 415 303 397 303 364 C303 319 270 296 202 296 L187 296 L173 212 Z " />
<glyph glyph-name="afii10074" unicode="&#x438;" horiz-adv-x="565" d="M170 43 L293 184 C325 221 348 254 375 300 C362 240 357 216 349 169 L321 0 L464 0 L547 497 L404 497 L395 442 L276 306 C244 269 228 250 192 200 C203 249 208 273 215 316 L245 497 L102 497 L19 0 L162 0 L170 43 Z " />
<glyph glyph-name="afii10075" unicode="&#x439;" horiz-adv-x="565" d="M170 43 L293 184 C325 221 348 254 375 300 C362 240 357 216 349 169 L321 0 L464 0 L547 497 L404 497 L395 442 L276 306 C244 269 228 250 192 200 C203 249 208 273 215 316 L245 497 L102 497 L19 0 L162 0 L170 43 Z M200 717 L199 692 C199 622 251 577 331 577 C419 577 483 627 511 717 L435 717 C419 671 393 652 344 652 C313 652 293 661 283 680 C278 690 277 693 277 717 L200 717 Z " />
<glyph glyph-name="afii10076" unicode="&#x43a;" horiz-adv-x="526" d="M385 327 L564 497 L412 497 L209 290 L243 497 L100 497 L17 0 L160 0 L186 152 L269 228 L343 0 L494 0 L385 327 Z " />
<glyph glyph-name="afii10077" unicode="&#x43b;" horiz-adv-x="451" d="M-53 0 L57 0 L233 361 L241 361 L279 0 L422 0 L356 493 L194 493 L-53 0 Z " />
<glyph glyph-name="afii10078" unicode="&#x43c;" horiz-adv-x="742" d="M19 0 L129 0 L196 398 L204 398 L248 0 L391 0 L569 398 L577 398 L511 0 L641 0 L725 497 L528 497 L347 96 L307 497 L102 497 L19 0 Z " />
<glyph glyph-name="afii10079" unicode="&#x43d;" horiz-adv-x="559" d="M19 0 L162 0 L198 212 L350 212 L314 0 L458 0 L541 497 L397 497 L367 317 L215 317 L245 497 L102 497 L19 0 Z " />
<glyph glyph-name="afii10080" unicode="&#x43e;" horiz-adv-x="534" d="M287 509 C137 509 31 387 31 213 C31 84 122 -10 249 -10 C392 -10 503 115 503 276 C503 416 416 509 287 509 L287 509 Z M286 413 C333 413 358 380 358 318 C358 261 345 187 326 142 C311 105 286 86 252 86 C202 86 178 117 178 182 C178 248 192 322 213 365 C227 396 254 413 286 413 L286 413 Z " />
<glyph glyph-name="afii10081" unicode="&#x43f;" horiz-adv-x="540" d="M19 0 L162 0 L229 399 L362 399 L296 0 L439 0 L522 497 L102 497 L19 0 Z " />
<glyph glyph-name="afii10082" unicode="&#x440;" horiz-adv-x="540" d="M133 -173 L174 73 C193 22 241 -10 301 -10 C419 -10 510 126 510 301 C510 425 450 504 355 504 C298 504 258 476 218 408 L233 497 L102 497 L-10 -173 L133 -173 Z M300 404 C337 404 363 371 363 324 C363 274 347 181 332 147 C315 108 291 88 261 88 C220 88 193 124 193 177 C193 201 203 265 213 311 C225 368 259 404 300 404 L300 404 Z " />
<glyph glyph-name="afii10083" unicode="&#x441;" horiz-adv-x="507" d="M355 191 C336 130 306 101 263 101 C214 101 187 135 187 196 C187 242 197 298 211 333 C229 379 256 401 292 401 C335 401 368 361 366 313 C366 311 366 309 365 306 L494 314 C495 319 495 323 495 325 C495 356 484 394 465 424 C431 480 373 510 295 510 C200 510 126 468 78 388 C48 338 31 276 31 217 C31 78 116 -13 244 -13 C358 -13 433 48 477 175 L355 191 Z " />
<glyph glyph-name="afii10084" unicode="&#x442;" horiz-adv-x="390" d="M84 0 L227 0 L293 392 L424 392 L442 497 L32 497 L14 392 L150 392 L84 0 Z " />
<glyph glyph-name="afii10085" unicode="&#x443;" horiz-adv-x="457" d="M500 497 L383 497 L248 195 L189 497 L39 497 L153 6 C133 -50 111 -65 54 -65 C40 -65 35 -65 -6 -60 L-14 -171 C0 -172 15 -173 40 -173 C98 -173 138 -163 167 -140 C208 -109 229 -78 279 28 L500 497 Z " />
<glyph glyph-name="afii10086" unicode="&#x444;" horiz-adv-x="698" d="M354 667 L326 497 C237 488 179 466 126 421 C65 369 32 295 32 209 C32 135 60 79 116 40 C150 17 185 5 242 -2 L214 -173 L344 -173 L372 -5 C465 3 516 22 569 65 C630 117 664 192 664 279 C664 351 636 407 581 447 C548 472 513 485 455 494 L484 667 L354 667 Z M442 412 C502 389 527 349 527 278 C527 234 515 189 496 156 C471 116 440 94 386 79 L442 412 Z M257 87 C195 109 170 148 170 220 C170 264 182 308 202 341 C227 382 259 404 313 419 L257 87 Z " />
<glyph glyph-name="afii10087" unicode="&#x445;" horiz-adv-x="481" d="M510 497 L381 497 L278 352 L216 497 L57 497 L166 266 L-41 0 L86 0 L213 176 L285 0 L440 0 L322 260 L510 497 Z " />
<glyph glyph-name="afii10088" unicode="&#x446;" horiz-adv-x="556" d="M19 0 L418 0 L413 -114 L502 -114 L538 105 L466 105 L531 497 L388 497 L323 105 L180 105 L245 497 L102 497 L19 0 Z " />
<glyph glyph-name="afii10089" unicode="&#x447;" horiz-adv-x="506" d="M262 0 L405 0 L488 497 L345 497 L306 265 C278 247 256 240 227 240 C193 240 177 253 177 281 C177 291 177 291 185 341 L211 497 L68 497 L40 326 C32 280 30 266 30 252 C30 186 79 145 157 145 C207 145 245 157 293 186 L262 0 Z " />
<glyph glyph-name="afii10090" unicode="&#x448;" horiz-adv-x="819" d="M22 0 L715 0 L798 497 L654 497 L589 105 L458 105 L523 497 L380 497 L314 105 L183 105 L248 497 L105 497 L22 0 Z " />
<glyph glyph-name="afii10091" unicode="&#x449;" horiz-adv-x="827" d="M23 0 L689 0 L685 -114 L773 -114 L809 104 L733 104 L799 497 L655 497 L590 104 L459 104 L524 497 L381 497 L315 104 L184 104 L249 497 L106 497 L23 0 Z " />
<glyph glyph-name="afii10092" unicode="&#x44a;" horiz-adv-x="556" d="M64 0 L301 0 C383 0 424 10 460 39 C500 71 524 124 524 181 C524 272 468 320 362 320 L261 320 L291 497 L18 497 L0 392 L130 392 L64 0 Z M224 97 L246 228 L320 228 C371 228 392 211 392 169 C392 121 365 97 311 97 L224 97 Z " />
<glyph glyph-name="afii10093" unicode="&#x44b;" horiz-adv-x="761" d="M513 0 L656 0 L739 497 L596 497 L513 0 Z M22 0 L259 0 C341 0 382 10 418 39 C458 71 482 124 482 181 C482 272 426 320 320 320 L219 320 L248 497 L105 497 L22 0 Z M182 97 L203 228 L278 228 C329 228 350 211 350 169 C350 121 323 97 269 97 L182 97 Z " />
<glyph glyph-name="afii10094" unicode="&#x44c;" horiz-adv-x="510" d="M19 0 L256 0 C338 0 379 10 415 39 C455 71 479 124 479 181 C479 272 423 320 317 320 L216 320 L245 497 L102 497 L19 0 Z M179 97 L200 228 L275 228 C326 228 347 211 347 169 C347 121 320 97 266 97 L179 97 Z " />
<glyph glyph-name="afii10095" unicode="&#x44d;" horiz-adv-x="516" d="M138 206 L328 206 C318 122 281 81 215 81 C167 81 139 106 132 154 L-1 132 C26 32 91 -14 207 -14 C382 -14 488 98 488 283 C488 427 406 510 262 510 C153 510 78 464 33 371 L163 348 C181 394 208 414 254 414 C308 414 343 378 341 323 C341 317 340 309 338 299 L153 299 L138 206 Z " />
<glyph glyph-name="afii10096" unicode="&#x44e;" horiz-adv-x="799" d="M303 206 C309 76 393 -10 514 -10 C657 -10 768 115 768 276 C768 415 681 509 552 509 C435 509 347 434 314 307 L214 307 L245 497 L102 497 L19 0 L162 0 L197 206 L303 206 Z M551 413 C598 413 623 380 623 318 C623 261 610 186 591 141 C576 104 551 85 517 85 C467 85 443 116 443 181 C443 247 457 321 478 365 C492 395 519 413 551 413 L551 413 Z " />
<glyph glyph-name="afii10097" unicode="&#x44f;" horiz-adv-x="528" d="M290 0 L426 0 L509 497 L256 497 C180 497 144 488 111 460 C74 429 52 383 52 336 C52 283 72 249 120 221 L-29 0 L105 0 L223 191 L322 191 L290 0 Z M337 285 L243 285 C208 285 192 300 192 335 C192 379 215 404 256 404 L357 404 L337 285 Z " />
<glyph glyph-name="uni0450" unicode="&#x450;" horiz-adv-x="549" d="M275 168 L210 667 L57 667 L155 0 L293 0 L518 479 C540 527 550 540 563 540 C566 540 571 538 577 534 C597 521 619 513 636 513 C673 513 707 548 707 588 C707 635 666 668 608 668 C534 668 474 622 436 537 L275 168 Z " />
<glyph glyph-name="afii10071" unicode="&#x451;" horiz-adv-x="533" d="M497 223 C500 246 502 273 502 284 C502 419 418 510 292 510 C215 510 150 480 103 422 C55 365 29 291 29 216 C29 79 117 -13 249 -13 C359 -13 440 44 479 148 L357 169 C336 115 305 90 258 90 C206 90 174 127 174 185 C174 195 175 204 176 223 L497 223 Z M187 305 C195 341 201 356 213 374 C231 401 261 418 292 418 C338 418 368 385 368 334 C368 325 368 318 366 305 L187 305 Z M228 695 C195 695 170 670 170 638 C170 606 195 582 228 582 C262 582 287 605 287 637 C287 671 263 695 228 695 L228 695 Z M391 695 C358 695 333 670 333 638 C333 606 358 582 391 582 C425 582 450 605 450 637 C450 671 426 695 391 695 L391 695 Z " />
<glyph glyph-name="afii10099" unicode="&#x452;" horiz-adv-x="545" d="M21 0 L164 0 L207 254 C218 323 261 370 314 370 C350 370 367 349 367 306 C367 260 341 96 322 23 C304 -46 286 -65 235 -70 L226 -173 L235 -173 C290 -173 313 -169 347 -153 C417 -121 443 -70 472 89 C493 201 509 319 509 356 C509 441 468 484 384 484 C321 484 277 460 232 402 L255 544 L444 544 L457 625 L269 625 L278 680 L135 680 L126 625 L44 625 L30 544 L112 544 L21 0 Z " />
<glyph glyph-name="afii10100" unicode="&#x453;" horiz-adv-x="385" d="M424 497 L102 497 L19 0 L162 0 L228 392 L406 392 L424 497 Z M206 567 L419 660 L383 739 L182 621 L206 567 Z " />
<glyph glyph-name="afii10101" unicode="&#x454;" horiz-adv-x="524" d="M383 299 L192 299 C205 381 236 414 300 414 C347 414 371 394 378 348 L513 371 C488 463 418 510 307 510 C225 510 164 486 114 435 C61 381 30 300 30 217 C30 154 47 101 81 60 C122 11 184 -13 268 -13 C378 -13 447 31 492 132 L365 154 C348 107 316 82 270 82 C212 82 180 118 180 183 C180 190 180 194 181 206 L368 206 L383 299 Z " />
<glyph glyph-name="afii10102" unicode="&#x455;" horiz-adv-x="462" d="M444 366 C422 460 351 508 237 508 C117 508 39 440 39 336 C39 288 58 250 94 224 C119 206 157 194 215 184 C281 173 297 163 297 136 C297 104 265 83 216 83 C152 83 116 106 110 153 L-13 139 C3 43 84 -11 211 -11 C339 -11 427 62 427 167 C427 248 376 299 278 315 C210 326 210 326 196 331 C181 337 171 351 171 366 C171 393 199 414 236 414 C290 414 324 390 333 344 L444 366 Z " />
<glyph glyph-name="afii10103" unicode="&#x456;" horiz-adv-x="269" d="M252 497 L102 497 L19 0 L168 0 L252 497 Z M282 680 L133 680 L110 542 L259 542 L282 680 Z " />
<glyph glyph-name="afii10104" unicode="&#x457;" horiz-adv-x="261" d="M245 497 L102 497 L19 0 L162 0 L245 497 Z M104 695 C71 695 46 670 46 638 C46 606 71 582 104 582 C138 582 163 605 163 637 C163 671 139 695 104 695 L104 695 Z M268 695 C235 695 210 670 210 638 C210 606 235 582 268 582 C302 582 327 605 327 637 C327 671 303 695 268 695 L268 695 Z " />
<glyph glyph-name="afii10105" unicode="&#x458;" horiz-adv-x="269" d="M250 497 L102 497 L34 87 C14 -28 14 -28 4 -42 C-6 -57 -25 -64 -53 -64 C-61 -64 -68 -63 -82 -61 L-98 -175 C-52 -181 -35 -182 -11 -182 C49 -182 92 -165 121 -130 C147 -98 157 -63 178 63 L250 497 Z M258 541 L281 680 L133 680 L110 541 L258 541 Z " />
<glyph glyph-name="afii10106" unicode="&#x459;" horiz-adv-x="696" d="M370 320 L356 493 L194 493 L-53 0 L57 0 L235 361 L245 0 L442 0 C523 0 564 10 600 39 C640 71 664 124 664 181 C664 272 608 320 502 320 L370 320 Z M375 228 L460 228 C511 228 532 211 532 169 C532 121 505 97 452 97 L384 97 L375 228 Z " />
<glyph glyph-name="afii10107" unicode="&#x45a;" horiz-adv-x="798" d="M342 212 L307 0 L544 0 C626 0 667 10 703 39 C743 71 767 124 767 181 C767 273 712 320 604 320 L504 320 L533 497 L390 497 L360 317 L215 317 L245 497 L102 497 L19 0 L162 0 L198 212 L342 212 Z M467 97 L488 228 L563 228 C614 228 635 211 635 169 C635 121 608 97 554 97 L467 97 Z " />
<glyph glyph-name="afii10108" unicode="&#x45b;" horiz-adv-x="552" d="M126 625 L44 625 L30 544 L112 544 L21 0 L164 0 L207 254 C218 323 263 370 317 370 C350 370 370 351 370 319 C370 310 368 293 365 277 L319 0 L462 0 L512 294 C517 328 521 358 521 370 C521 437 467 484 389 484 C326 484 276 458 232 402 L255 544 L442 544 L455 625 L269 625 L278 680 L135 680 L126 625 Z " />
<glyph glyph-name="afii10109" unicode="&#x45c;" horiz-adv-x="526" d="M385 327 L564 497 L412 497 L209 290 L243 497 L100 497 L17 0 L160 0 L186 152 L269 228 L343 0 L494 0 L385 327 Z M273 567 L487 660 L450 739 L250 621 L273 567 Z " />
<glyph glyph-name="uni045D" unicode="&#x45d;" horiz-adv-x="455" d="M237 188 L184 497 L32 497 L130 0 L250 0 L401 310 C426 362 433 371 447 371 C450 371 454 369 460 365 C480 352 503 344 519 344 C557 344 591 379 591 419 C591 466 550 499 492 499 C417 499 360 456 319 368 L237 188 Z " />
<glyph glyph-name="afii10110" unicode="&#x45e;" horiz-adv-x="457" d="M500 497 L383 497 L248 195 L189 497 L39 497 L153 6 C133 -50 111 -65 54 -65 C40 -65 35 -65 -6 -60 L-14 -171 C0 -172 15 -173 40 -173 C98 -173 138 -163 167 -140 C208 -109 229 -78 279 28 L500 497 Z M160 717 L159 692 C159 622 211 577 291 577 C379 577 443 627 471 717 L395 717 C379 671 353 652 304 652 C273 652 253 661 243 680 C238 690 237 693 237 717 L160 717 Z " />
<glyph glyph-name="afii10193" unicode="&#x45f;" horiz-adv-x="550" d="M19 0 L178 0 L171 -114 L259 -114 L290 0 L449 0 L532 497 L388 497 L322 102 L179 102 L245 497 L102 497 L19 0 Z " />
<glyph glyph-name="afii10050" unicode="&#x490;" horiz-adv-x="461" d="M552 792 L440 792 L419 667 L137 667 L25 0 L172 0 L262 540 L509 540 L552 792 Z " />
<glyph glyph-name="afii10098" unicode="&#x491;" horiz-adv-x="385" d="M322 497 L102 497 L19 0 L162 0 L228 392 L406 392 L442 606 L340 606 L322 497 Z " />
<glyph glyph-name="uni0492" unicode="&#x492;" horiz-adv-x="532" d="M69 264 L25 0 L184 0 L229 264 L477 264 L498 391 L244 391 L269 540 L567 540 L589 667 L137 667 L90 391 L57 391 L35 264 L69 264 Z " />
<glyph glyph-name="uni0493" unicode="&#x493;" horiz-adv-x="385" d="M210 288 L228 392 L406 392 L423 497 L102 497 L67 288 L28 288 L11 183 L49 183 L19 0 L162 0 L193 183 L298 183 L315 288 L210 288 Z " />
<glyph glyph-name="uni0496" unicode="&#x496;" horiz-adv-x="912" d="M732 0 L719 -164 L823 -164 L869 108 L775 108 L649 368 L893 667 L749 667 L532 390 L509 382 L557 667 L413 667 L366 382 L346 390 L221 667 L68 667 L221 346 L-71 0 L77 0 L321 296 L350 286 L302 0 L445 0 L493 286 L525 296 L670 0 L732 0 Z " />
<glyph glyph-name="uni0497" unicode="&#x497;" horiz-adv-x="777" d="M634 0 L621 -167 L715 -167 L756 78 L661 78 L569 291 L756 497 L615 497 L460 311 L439 305 L471 497 L328 497 L295 305 L276 311 L183 497 L42 497 L161 271 L-53 0 L82 0 L246 217 L279 207 L244 0 L388 0 L422 207 L459 217 L547 0 L634 0 Z " />
<glyph glyph-name="uni049A" unicode="&#x49a;" horiz-adv-x="641" d="M654 667 L497 667 L283 420 C278 413 267 400 252 380 L231 353 L283 667 L137 667 L25 0 L172 0 L198 161 L330 310 L414 0 L482 0 L471 -141 L570 -141 L615 127 L534 127 L443 427 L654 667 Z " />
<glyph glyph-name="uni049B" unicode="&#x49b;" horiz-adv-x="551" d="M385 327 L564 497 L412 497 L209 290 L243 497 L100 497 L17 0 L160 0 L186 152 L269 228 L343 0 L411 0 L407 -114 L495 -114 L531 104 L459 104 L385 327 Z " />
<glyph glyph-name="uni049C" unicode="&#x49c;" horiz-adv-x="630" d="M236 202 L217 91 L304 91 L336 286 L414 0 L572 0 L443 427 L654 667 L497 667 L377 528 L390 603 L303 603 L269 402 L267 399 L252 380 L231 353 L283 667 L137 667 L25 0 L172 0 L198 160 L236 202 Z " />
<glyph glyph-name="uni049D" unicode="&#x49d;" horiz-adv-x="529" d="M209 174 L191 62 L276 62 L292 157 L343 0 L494 0 L385 327 L564 497 L412 497 L336 420 L345 469 L259 469 L233 315 L209 290 L243 497 L100 497 L17 0 L160 0 L186 152 L209 174 Z " />
<glyph glyph-name="uni04A2" unicode="&#x4a2;" horiz-adv-x="653" d="M645 667 L499 667 L455 405 L239 405 L283 667 L137 667 L25 0 L172 0 L218 278 L434 278 L387 0 L503 0 L493 -141 L591 -141 L636 127 L555 127 L645 667 Z " />
<glyph glyph-name="uni04A3" unicode="&#x4a3;" horiz-adv-x="565" d="M19 0 L162 0 L198 212 L350 212 L314 0 L427 0 L423 -114 L511 -114 L547 104 L475 104 L541 497 L397 497 L367 317 L215 317 L245 497 L102 497 L19 0 Z " />
<glyph glyph-name="uni04AE" unicode="&#x4ae;" horiz-adv-x="530" d="M624 667 L478 667 L305 403 L203 667 L37 667 L203 280 L156 0 L309 0 L356 280 L624 667 Z " />
<glyph glyph-name="uni04AF" unicode="&#x4af;" horiz-adv-x="451" d="M81 -173 L224 -173 L253 0 L509 497 L387 497 L225 172 L181 497 L32 497 L110 0 L81 -173 Z " />
<glyph glyph-name="uni04B0" unicode="&#x4b0;" horiz-adv-x="530" d="M365 294 L624 667 L478 667 L305 404 L203 667 L37 667 L197 294 L87 294 L66 167 L184 167 L156 0 L309 0 L337 167 L452 167 L473 294 L365 294 Z " />
<glyph glyph-name="uni04B1" unicode="&#x4b1;" horiz-adv-x="451" d="M101 -50 L80 -173 L223 -173 L244 -50 L343 -50 L360 55 L281 55 L508 497 L386 497 L224 172 L181 497 L31 497 L101 55 L13 55 L-4 -50 L101 -50 Z " />
<glyph glyph-name="uni04B2" unicode="&#x4b2;" horiz-adv-x="623" d="M636 667 L486 667 L344 458 L251 667 L86 667 L229 357 L-40 0 L113 0 L288 252 L396 0 L454 0 L443 -141 L542 -141 L587 127 L505 127 L401 357 L636 667 Z " />
<glyph glyph-name="uni04B3" unicode="&#x4b3;" horiz-adv-x="496" d="M510 497 L381 497 L278 351 L216 497 L57 497 L166 266 L-41 0 L86 0 L213 175 L285 0 L344 0 L340 -114 L428 -114 L465 104 L392 104 L322 259 L510 497 Z " />
<glyph glyph-name="uni04B6" unicode="&#x4b6;" horiz-adv-x="604" d="M514 126 L604 667 L457 667 L406 363 C363 337 323 325 278 325 C227 325 202 342 202 379 C202 386 202 386 211 448 L247 667 L101 667 L65 453 C57 404 53 371 53 350 C53 258 116 202 219 202 C284 202 336 221 390 264 L346 0 L462 0 L451 -141 L550 -141 L594 126 L514 126 Z " />
<glyph glyph-name="uni04B7" unicode="&#x4b7;" horiz-adv-x="506" d="M423 104 L488 497 L345 497 L306 265 C279 247 256 240 227 240 C193 240 177 253 177 280 C177 291 177 291 185 341 L211 497 L68 497 L40 326 C32 279 30 266 30 252 C30 186 79 145 157 145 C207 145 245 156 293 185 L262 0 L370 0 L366 -114 L454 -114 L491 104 L423 104 Z " />
<glyph glyph-name="uni04B8" unicode="&#x4b8;" horiz-adv-x="604" d="M380 541 L290 541 L254 327 C217 333 202 349 202 379 C202 387 202 387 211 448 L247 667 L101 667 L65 453 C57 404 53 371 53 350 C53 258 116 202 218 202 C223 202 227 202 233 203 L211 74 L301 74 L327 225 C352 237 366 245 390 265 L346 0 L492 0 L604 667 L457 667 L406 363 C386 351 372 345 345 335 L380 541 Z " />
<glyph glyph-name="uni04B9" unicode="&#x4b9;" horiz-adv-x="507" d="M313 408 L223 408 L196 246 C183 254 177 264 177 281 C177 291 177 291 185 341 L211 497 L68 497 L40 326 C32 278 30 266 30 251 C30 186 79 145 158 145 C167 145 171 145 179 146 L167 75 L257 75 L274 174 C279 177 283 179 293 186 L262 0 L405 0 L488 497 L345 497 L306 265 C296 258 292 256 287 254 L313 408 Z " />
<glyph glyph-name="uni04BA" unicode="&#x4ba;" horiz-adv-x="604" d="M283 667 L137 667 L25 0 L172 0 L223 304 C266 330 306 342 351 342 C402 342 427 325 427 288 C427 281 427 281 418 219 L382 0 L528 0 L564 214 C572 263 576 296 576 317 C576 409 513 465 410 465 C345 465 293 446 239 403 L283 667 Z " />
<glyph glyph-name="uni04BB" unicode="&#x4bb;" horiz-adv-x="547" d="M446 0 L489 262 C503 345 504 351 504 377 C504 454 450 506 372 506 C314 506 270 480 233 424 L274 667 L131 667 L19 0 L162 0 L202 238 C216 321 218 330 233 353 C249 380 274 395 303 395 C334 395 357 374 357 345 C357 333 356 319 353 302 L302 0 L446 0 Z " />
<glyph glyph-name="uni04C0" unicode="&#x4c0;" horiz-adv-x="287" d="M290 667 L137 667 L25 0 L178 0 L290 667 Z " />
<glyph glyph-name="uni04CF" unicode="&#x4cf;" horiz-adv-x="287" d="M290 667 L137 667 L25 0 L178 0 L290 667 Z " />
<glyph glyph-name="uni04D8" unicode="&#x4d8;" horiz-adv-x="640" d="M52 350 C48 324 47 304 47 280 C47 103 151 -13 309 -13 C405 -13 484 28 541 106 C594 179 624 279 624 384 C624 561 520 681 368 681 C254 681 162 617 103 497 L232 461 C263 527 304 559 358 559 C436 559 472 509 472 404 C472 382 471 367 469 350 L52 350 Z M442 230 C413 144 376 110 312 110 C245 110 210 149 202 230 L442 230 Z " />
<glyph glyph-name="afii10846" unicode="&#x4d9;" horiz-adv-x="533" d="M36 273 C33 249 31 223 31 212 C31 77 115 -13 242 -13 C319 -13 384 17 431 74 C479 131 505 205 505 280 C505 418 417 510 285 510 C175 510 93 453 55 348 L177 327 C197 382 229 407 276 407 C327 407 360 370 360 312 C360 301 359 292 357 273 L36 273 Z M347 191 C338 155 332 140 320 122 C303 95 272 78 241 78 C195 78 165 111 165 162 C165 170 166 178 168 191 L347 191 Z " />
<glyph glyph-name="uni04E2" unicode="&#x4e2;" horiz-adv-x="615" d="M577 0 L465 667 L282 667 L-35 0 L109 0 L174 147 L396 147 L418 0 L577 0 Z M224 263 L341 530 L380 263 L224 263 Z M222 865 L221 842 C221 772 274 729 360 729 C452 729 515 775 546 865 L464 865 C448 824 421 807 372 807 C325 807 306 824 305 865 L222 865 Z " />
<glyph glyph-name="uni04E3" unicode="&#x4e3;" horiz-adv-x="541" d="M453 0 C451 14 451 21 451 33 C451 60 454 85 461 127 L482 254 C495 334 496 340 496 362 C496 451 423 506 303 506 C177 506 96 455 61 354 L191 339 C212 394 239 415 291 415 C331 415 356 392 356 355 C356 341 354 329 347 311 C243 305 174 294 128 275 C51 244 11 192 11 123 C11 44 73 -13 159 -13 C232 -13 290 22 319 86 C319 77 318 73 317 62 C315 45 314 38 314 30 C314 22 314 22 315 0 L453 0 Z M336 241 C320 136 278 78 217 78 C184 78 161 103 161 139 C161 174 182 203 220 220 C246 232 277 237 336 241 L336 241 Z M181 717 C180 707 179 697 179 692 C179 622 231 577 312 577 C399 577 463 627 492 717 L415 717 C399 671 373 652 324 652 C280 652 257 671 257 709 L257 717 L181 717 Z " />
<glyph glyph-name="uni04E8" unicode="&#x4e8;" horiz-adv-x="643" d="M453 268 C422 153 384 110 312 110 C238 110 200 160 200 257 C200 259 200 264 201 268 L453 268 Z M217 395 C245 506 291 558 361 558 C413 558 454 527 464 478 C469 456 473 412 472 398 L472 395 L217 395 Z M360 680 C252 680 160 621 104 516 C67 446 47 362 47 279 C47 103 151 -13 309 -13 C405 -13 484 27 541 106 C595 181 624 279 624 387 C624 564 519 680 360 680 L360 680 Z " />
<glyph glyph-name="uni04E9" unicode="&#x4e9;" horiz-adv-x="534" d="M190 294 C208 378 236 413 286 413 C333 413 358 381 358 319 C358 310 358 303 357 294 L190 294 Z M341 189 C323 115 297 85 252 85 C200 85 178 115 178 186 L178 189 L341 189 Z M287 509 C137 509 31 387 31 213 C31 84 122 -10 249 -10 C392 -10 503 115 503 276 C503 416 416 509 287 509 L287 509 Z " />
<glyph glyph-name="uni04EE" unicode="&#x4ee;" horiz-adv-x="571" d="M606 667 L137 667 L25 0 L500 0 L521 127 L202 127 L228 282 L490 282 L510 403 L248 403 L271 540 L585 540 L606 667 Z M247 865 C246 856 246 847 246 842 C246 772 299 729 385 729 C477 729 539 775 571 865 L488 865 C472 824 445 807 397 807 C349 807 330 824 330 865 L247 865 Z " />
<glyph glyph-name="uni04EF" unicode="&#x4ef;" horiz-adv-x="527" d="M495 223 C498 246 500 273 500 284 C500 418 416 508 290 508 C213 508 148 478 101 421 C53 364 27 291 27 216 C27 79 115 -13 247 -13 C357 -13 438 44 477 148 L355 169 C335 116 303 90 256 90 C205 90 172 127 172 185 C172 195 173 204 174 223 L495 223 Z M185 305 C193 341 199 355 211 373 C229 400 259 416 290 416 C336 416 366 384 366 334 C366 325 366 318 364 305 L185 305 Z M167 717 C166 707 166 698 166 692 C166 622 218 577 298 577 C386 577 450 627 478 717 L402 717 C386 671 360 652 311 652 C266 652 245 670 244 709 L244 717 L167 717 Z " />
<glyph glyph-name="uni1E1E" unicode="&#x1e1e;" horiz-adv-x="532" d="M589 667 L137 667 L25 0 L184 0 L229 264 L477 264 L498 391 L244 391 L269 540 L567 540 L589 667 Z M380 856 C345 856 317 829 317 794 C317 759 344 733 380 733 C417 733 444 759 444 793 C444 830 417 856 380 856 L380 856 Z " />
<glyph glyph-name="Wgrave" unicode="&#x1e80;" horiz-adv-x="527" d="M495 223 C498 246 500 273 500 284 C500 418 416 508 290 508 C213 508 148 478 101 421 C53 364 27 291 27 216 C27 79 115 -13 247 -13 C357 -13 438 44 477 148 L355 169 C335 116 303 90 256 90 C205 90 172 127 172 185 C172 195 173 204 174 223 L495 223 Z M185 305 C193 341 199 355 211 373 C229 400 259 416 290 416 C336 416 366 384 366 334 C366 325 366 318 364 305 L185 305 Z M167 717 C166 707 166 698 166 692 C166 622 218 577 298 577 C386 577 450 627 478 717 L402 717 C386 671 360 652 311 652 C266 652 245 670 244 709 L244 717 L167 717 Z " />
</font>
</svg>
