<?xml version="1.0" encoding="UTF-8"?>
<svg xmlns="http://www.w3.org/2000/svg" xmlns:xlink="http://www.w3.org/1999/xlink" version="1.2" >
<font id="Baskerville URW Extra Narrow Bold Oblique">
<font-face  font-family="Baskerville URW Extra Narrow" units-per-em="1000" ascent="678" descent="-322" font-style="italic" font-weight="700" font-stretch="semi-condensed" cap-height="666" x-height="403" underline-position="-92" underline-thickness="73" />
<missing-glyph  horiz-adv-x="250" d="" />
<glyph glyph-name="NULL" d="" />
<glyph glyph-name="CR" unicode="&#xd;" horiz-adv-x="250" d="" />
<glyph glyph-name="space" unicode="&#x20;" horiz-adv-x="250" d="" />
<glyph glyph-name="exclam" unicode="&#x21;" horiz-adv-x="267" d="M123 210 L232 551 C246 596 250 612 250 627 C250 657 234 673 203 673 C180 673 159 664 147 648 C131 628 126 610 120 549 L84 210 L123 210 Z M88 136 C43 136 0 91 0 42 C0 8 22 -17 54 -17 C99 -17 142 29 142 77 C142 111 119 136 88 136 L88 136 Z " />
<glyph glyph-name="quotedbl" unicode="&#x22;" horiz-adv-x="394" d="M142 399 L235 667 L108 667 L87 399 L142 399 Z M335 399 L428 667 L301 667 L280 399 L335 399 Z " />
<glyph glyph-name="numbersign" unicode="&#x23;" horiz-adv-x="522" d="M325 227 L424 227 L444 283 L351 283 L399 397 L498 397 L518 453 L425 453 L519 667 L463 667 L369 453 L264 453 L358 667 L303 667 L209 453 L103 453 L83 397 L183 397 L135 283 L28 283 L8 227 L109 227 L9 0 L64 0 L164 227 L270 227 L170 0 L225 0 L325 227 Z M344 397 L295 283 L190 283 L238 397 L344 397 Z " />
<glyph glyph-name="dollar" unicode="&#x24;" horiz-adv-x="478" d="M156 -123 L180 -13 C309 1 407 106 407 229 C407 292 372 340 295 381 C281 389 271 394 267 397 L312 609 C353 601 371 581 371 542 C372 499 384 478 406 478 C434 478 459 509 459 542 C459 602 401 649 321 652 L327 680 L283 680 L276 650 C223 642 187 627 154 598 C108 556 79 494 79 436 C79 398 92 365 116 338 C131 321 144 312 184 289 C188 286 193 284 198 281 L144 31 C106 38 88 58 84 100 C80 131 70 144 48 144 C20 144 -5 115 -5 82 C-5 29 49 -9 134 -15 L111 -123 L156 -123 Z M238 259 L243 254 L250 249 L260 241 C289 219 301 198 301 169 C301 99 253 40 189 30 L238 259 Z M226 416 C178 444 166 461 166 497 C166 548 206 598 254 605 C257 605 260 606 260 606 C261 606 264 607 267 608 L226 416 Z " />
<glyph glyph-name="percent" unicode="&#x25;" horiz-adv-x="672" d="M237 680 C187 680 149 660 114 618 C77 571 55 508 55 449 C55 375 92 334 159 334 C207 334 248 355 280 396 C317 442 337 501 337 562 C337 637 301 680 237 680 L237 680 Z M227 645 C240 645 250 630 250 610 C250 554 223 434 201 394 C191 375 179 366 167 366 C151 366 143 380 143 406 C143 459 173 583 196 625 C203 636 216 645 227 645 L227 645 Z M136 0 L585 660 L533 660 L85 0 L136 0 Z M515 333 C465 333 426 313 392 271 C355 224 333 162 333 104 C333 29 370 -12 437 -12 C485 -12 526 9 558 50 C595 96 615 155 615 215 C615 291 579 333 515 333 L515 333 Z M504 300 C518 300 528 285 528 265 C528 209 501 89 479 50 C469 31 458 22 445 22 C429 22 421 36 421 62 C421 114 452 240 474 280 C481 291 494 300 504 300 L504 300 Z " />
<glyph glyph-name="ampersand" unicode="&#x26;" horiz-adv-x="676" d="M575 121 C558 79 537 61 505 61 C472 61 446 86 420 143 C417 149 416 150 413 157 C440 185 455 204 491 254 C546 328 574 351 623 363 L632 406 L438 406 L429 363 C459 360 472 349 472 327 L471 319 L470 318 L470 315 C469 300 430 239 393 196 C354 285 349 296 306 391 C393 436 444 499 444 563 C444 618 402 654 337 654 C240 654 164 572 164 468 C164 439 170 409 181 378 C183 373 183 372 184 368 C53 288 -1 218 -1 126 C-1 45 56 -15 132 -15 C191 -15 246 9 319 67 C353 13 397 -14 451 -14 C496 -14 543 7 573 40 C591 61 604 84 615 121 L575 121 Z M203 320 L210 304 L246 224 C262 187 279 146 298 103 C270 76 240 61 214 61 C167 61 128 119 128 188 C128 239 153 287 200 327 L203 320 Z M293 431 C271 472 259 505 259 529 C259 573 292 608 334 608 C367 608 389 586 389 552 C389 507 360 470 293 431 L293 431 Z " />
<glyph glyph-name="quotesingle" unicode="&#x27;" horiz-adv-x="220" d="M153 399 L246 667 L114 667 L94 399 L153 399 Z " />
<glyph glyph-name="parenleft" unicode="&#x28;" horiz-adv-x="280" d="M144 -243 C109 -171 90 -79 90 20 C90 259 178 491 338 677 L282 677 C126 513 28 264 28 34 C28 -72 50 -172 88 -243 L144 -243 Z " />
<glyph glyph-name="parenright" unicode="&#x29;" horiz-adv-x="280" d="M-53 -243 C-2 -194 51 -117 94 -33 C167 111 203 257 203 404 C203 510 183 602 144 677 L88 677 C124 594 141 509 141 414 C141 181 37 -92 -109 -243 L-53 -243 Z " />
<glyph glyph-name="asterisk" unicode="&#x2a;" horiz-adv-x="447" d="M215 428 C202 413 174 396 132 378 C77 354 53 330 53 298 C53 273 73 252 98 252 C126 252 148 272 171 320 C196 369 217 396 237 406 C247 401 260 373 264 347 C271 290 271 287 282 268 C288 259 299 252 309 252 C344 252 380 286 380 320 C380 344 366 360 326 381 C293 398 278 410 268 428 C288 438 321 446 340 446 C344 446 354 445 363 444 C370 443 377 443 381 443 C424 443 460 477 460 518 C460 545 444 564 422 564 C404 564 384 553 356 528 C312 489 294 476 266 464 C266 481 280 516 301 555 C328 602 334 617 334 635 C334 660 317 676 293 676 C258 676 229 644 229 607 C229 597 231 572 234 547 C236 529 238 510 238 500 C238 486 237 479 232 464 C217 469 197 488 177 516 C154 550 140 561 120 561 C89 561 57 524 57 488 C57 460 79 442 113 442 C117 442 122 442 126 443 C149 445 149 445 153 445 C168 445 204 435 215 428 L215 428 Z " />
<glyph glyph-name="plus" unicode="&#x2b;" horiz-adv-x="450" d="M22 396 L6 323 L184 323 L141 123 L218 123 L260 323 L439 323 L455 396 L276 396 L318 596 L242 596 L200 396 L22 396 Z " />
<glyph glyph-name="comma" unicode="&#x2c;" horiz-adv-x="277" d="M-59 -197 C57 -185 150 -76 150 46 C150 101 125 134 82 134 C34 134 -7 89 -7 35 C-7 6 11 -15 37 -15 C43 -15 49 -14 55 -12 C61 -10 66 -9 69 -9 C76 -9 81 -16 81 -26 C81 -77 18 -138 -49 -150 L-59 -197 Z " />
<glyph glyph-name="hyphen" unicode="&#x2d;" horiz-adv-x="302" d="M11 247 L-3 182 L243 182 L257 247 L11 247 Z " />
<glyph glyph-name="period" unicode="&#x2e;" horiz-adv-x="277" d="M97 136 C52 136 9 91 9 42 C9 8 31 -17 63 -17 C108 -17 151 29 151 77 C151 111 128 136 97 136 L97 136 Z " />
<glyph glyph-name="slash" unicode="&#x2f;" horiz-adv-x="286" d="M329 681 L254 681 L-138 -253 L-63 -253 L329 681 Z " />
<glyph glyph-name="zero" unicode="0" horiz-adv-x="478" d="M312 672 C224 672 140 605 87 492 C46 405 16 275 16 185 C16 64 74 -15 164 -15 C254 -15 342 58 395 178 C432 259 460 388 460 472 C460 593 402 672 312 672 L312 672 Z M303 627 C331 627 351 600 351 563 C351 530 341 466 324 388 C317 354 312 330 307 305 C303 287 300 273 296 256 C278 171 260 109 247 85 C228 50 203 31 176 31 C147 31 130 58 130 104 C130 150 149 260 179 391 C219 567 250 627 303 627 L303 627 Z " />
<glyph glyph-name="one" unicode="1" horiz-adv-x="478" d="M159 579 L171 579 C206 579 222 568 222 541 C222 531 219 509 214 488 L137 122 C121 58 109 44 70 44 L52 44 L43 0 L307 0 L316 44 L297 44 C269 44 258 53 258 77 C258 87 260 96 267 131 L382 672 L340 672 C285 638 240 625 168 622 L159 579 Z " />
<glyph glyph-name="two" unicode="2" horiz-adv-x="478" d="M-19 0 L263 0 C287 0 294 -3 294 -15 C294 -19 294 -21 289 -33 L286 -42 L285 -44 L323 -44 L374 86 L111 86 C210 171 369 327 407 377 C445 428 463 479 463 536 C463 618 402 672 311 672 C227 672 144 625 107 557 C93 531 87 507 87 473 C87 438 95 416 107 416 C112 416 118 419 128 424 L130 425 C155 440 162 446 165 452 L167 457 L168 459 C171 465 172 466 172 470 L172 474 C171 484 171 489 171 495 C171 563 217 624 269 624 C304 624 328 592 328 547 C328 484 302 407 259 339 C193 236 95 128 -10 41 L-19 0 Z " />
<glyph glyph-name="three" unicode="3" horiz-adv-x="478" d="M288 381 C290 387 295 391 323 405 C400 442 457 514 457 573 C457 631 401 672 320 672 C203 672 97 588 97 496 C97 467 105 451 121 451 C125 451 129 452 133 454 C137 456 141 458 146 460 L156 464 C167 468 177 473 180 475 L182 476 C192 482 195 484 195 488 C195 490 195 493 194 494 C189 508 188 512 188 524 C188 577 231 625 278 625 C304 625 325 601 325 572 C325 564 323 542 321 532 C312 473 266 414 194 368 C161 347 145 329 145 315 C145 305 153 294 159 294 C166 294 173 299 189 314 C206 331 220 338 235 338 C259 338 272 320 272 287 C272 236 257 165 236 116 C214 63 169 29 124 29 C96 29 81 46 78 82 C75 124 65 138 42 138 C12 138 -16 106 -16 71 C-16 21 38 -16 111 -16 C271 -16 406 113 406 266 C406 337 364 381 295 381 L292 381 C291 380 290 380 289 380 L288 380 L288 381 Z " />
<glyph glyph-name="four" unicode="4" horiz-adv-x="478" d="M209 226 L188 129 C174 61 161 45 118 44 L100 44 L90 0 L356 0 L366 44 L350 44 C322 44 310 54 310 80 C310 89 312 103 318 132 L338 226 L423 226 L453 314 L429 314 L423 304 C409 283 407 281 388 281 L383 281 L376 281 L364 281 L350 281 L433 669 L366 669 L20 285 L7 226 L209 226 Z M220 281 L65 281 L271 518 L220 281 Z " />
<glyph glyph-name="five" unicode="5" horiz-adv-x="478" d="M130 337 C157 377 183 395 213 395 C251 395 273 367 273 318 C273 263 248 158 221 103 C199 59 160 30 123 30 C94 30 76 47 70 79 C61 125 53 137 31 137 C3 137 -24 106 -24 74 C-24 24 35 -15 111 -15 C273 -15 405 122 405 288 C405 381 345 445 259 445 C217 445 176 429 140 397 L182 570 L343 570 C386 568 389 570 441 660 L165 660 L85 337 L130 337 Z " />
<glyph glyph-name="six" unicode="6" horiz-adv-x="478" d="M178 379 C218 541 272 624 341 624 C367 624 381 614 391 587 C402 557 413 546 432 546 C459 546 486 574 486 604 C486 641 441 672 387 672 C306 672 223 632 163 564 C75 465 17 308 17 172 C17 61 81 -15 175 -15 C310 -15 426 117 426 270 C426 323 409 360 372 388 C347 407 314 418 283 418 C248 418 213 405 178 379 L178 379 Z M252 373 C286 373 306 346 306 298 C306 262 295 198 278 144 C253 61 228 30 184 30 C152 30 132 58 132 103 C132 161 147 250 164 295 C182 343 215 373 252 373 L252 373 Z " />
<glyph glyph-name="seven" unicode="7" horiz-adv-x="478" d="M502 660 L240 660 C219 660 212 663 212 673 C212 676 213 679 215 683 L177 683 L87 503 L106 503 C126 503 126 503 130 511 C150 550 159 555 199 556 L206 556 L406 556 L126 118 C84 53 79 43 79 23 C79 1 96 -15 119 -15 C152 -15 178 13 215 86 L502 660 Z " />
<glyph glyph-name="eight" unicode="8" horiz-adv-x="478" d="M302 349 C406 377 467 450 467 544 C467 624 406 674 311 674 C185 674 86 583 86 468 C86 409 122 366 187 349 C135 339 100 323 69 294 C25 253 -2 191 -2 127 C-2 40 64 -15 167 -15 C307 -15 415 89 415 224 C415 293 376 335 302 349 L302 349 Z M303 631 C324 631 340 607 340 574 C340 523 322 445 302 412 C286 384 266 368 246 368 C222 368 209 387 209 425 C209 477 228 557 247 589 C263 615 284 631 303 631 L303 631 Z M238 324 C265 324 285 298 285 262 C285 215 269 138 250 93 C234 54 204 29 175 29 C145 29 128 55 128 99 C128 132 137 180 151 224 C174 293 201 324 238 324 L238 324 Z " />
<glyph glyph-name="nine" unicode="9" horiz-adv-x="478" d="M306 277 C281 181 273 159 253 119 C225 64 185 32 144 32 C119 32 105 42 95 69 C83 99 74 108 54 108 C25 108 0 82 0 52 C0 13 44 -15 103 -15 C202 -15 296 45 361 149 C424 250 463 381 463 489 C463 598 402 672 311 672 C176 672 60 541 60 389 C60 296 117 235 203 235 C230 235 253 242 276 257 C298 272 298 272 306 277 L306 277 Z M303 628 C337 628 352 602 352 542 C352 465 326 367 293 316 C281 297 254 283 232 283 C199 283 181 310 181 357 C181 396 197 480 215 540 C232 595 265 628 303 628 L303 628 Z " />
<glyph glyph-name="colon" unicode="&#x3a;" horiz-adv-x="277" d="M98 136 C53 136 10 91 10 42 C10 8 32 -17 64 -17 C109 -17 152 29 152 77 C152 111 129 136 98 136 L98 136 Z M159 423 C114 423 71 377 71 328 C71 294 94 269 125 269 C170 269 213 315 213 364 C213 398 190 423 159 423 L159 423 Z " />
<glyph glyph-name="semicolon" unicode="&#x3b;" horiz-adv-x="277" d="M-59 -197 C57 -185 150 -76 150 46 C150 101 125 134 82 134 C34 134 -7 89 -7 35 C-7 6 11 -15 37 -15 C43 -15 49 -14 55 -12 C61 -10 66 -9 69 -9 C76 -9 81 -16 81 -26 C81 -77 18 -138 -49 -150 L-59 -197 Z M154 423 C109 423 67 377 67 328 C67 294 89 269 121 269 C166 269 208 315 208 364 C208 398 185 423 154 423 L154 423 Z " />
<glyph glyph-name="less" unicode="&#x3c;" horiz-adv-x="450" d="M478 633 L43 369 L41 361 L359 73 L394 239 L203 411 L465 571 L478 633 Z " />
<glyph glyph-name="equal" unicode="&#x3d;" horiz-adv-x="477" d="M38 471 L23 400 L483 400 L498 471 L38 471 Z M19 320 L4 249 L438 249 L453 320 L19 320 Z " />
<glyph glyph-name="greater" unicode="&#x3e;" horiz-adv-x="450" d="M-20 73 L415 337 L417 346 L99 633 L64 468 L255 296 L-7 136 L-20 73 Z " />
<glyph glyph-name="question" unicode="&#x3f;" horiz-adv-x="409" d="M104 136 C59 136 17 90 17 42 C17 8 39 -17 70 -17 C114 -17 156 29 156 77 C156 112 134 136 104 136 L104 136 Z M94 209 L142 209 L167 326 C184 314 201 309 220 309 C319 309 404 409 404 527 C404 619 349 673 255 673 C172 673 89 620 89 567 C89 550 102 536 118 536 C136 536 152 548 164 572 C187 617 201 629 229 629 C260 629 279 599 279 552 C279 521 271 477 260 441 C242 388 222 363 196 363 C184 363 175 371 170 387 L132 387 L94 209 Z " />
<glyph glyph-name="at" unicode="&#x40;" horiz-adv-x="705" d="M485 477 C470 510 446 525 412 525 C360 525 303 488 250 420 C202 359 172 285 172 231 C172 175 203 136 247 136 C270 136 297 147 327 168 C344 181 350 186 354 191 C361 201 363 203 365 203 C366 203 368 201 368 200 L367 195 C367 166 391 139 418 139 C469 139 540 181 590 241 C645 308 675 386 675 463 C675 593 588 679 455 679 C240 679 41 472 41 248 C41 100 142 -12 275 -12 C334 -12 396 5 449 36 C488 58 522 88 576 146 L532 150 C499 120 488 110 468 95 C418 57 356 35 298 35 C179 35 92 129 92 258 C92 321 112 387 151 453 C218 565 331 634 447 634 C554 634 628 559 628 451 C628 388 603 320 558 262 C523 217 475 182 449 182 C439 182 432 190 432 202 C432 210 434 218 439 230 C441 237 443 240 444 244 C448 256 451 264 452 266 L571 515 C546 512 531 512 501 511 L485 477 Z M408 329 C407 327 406 325 404 320 C398 308 395 301 395 301 C380 271 366 246 353 229 C325 193 298 174 274 174 C255 174 243 189 243 214 C243 248 267 310 302 371 C348 450 388 488 425 488 C445 488 458 472 458 447 C458 434 451 412 439 389 L408 329 Z " />
<glyph glyph-name="A" unicode="A" horiz-adv-x="591" d="M532 0 L542 44 L537 44 C495 50 486 65 470 157 L388 678 L348 678 L55 170 C9 87 -27 50 -67 44 L-74 44 L-83 0 L109 0 L118 44 L111 44 C82 44 63 58 63 81 C63 98 70 113 102 170 L121 202 L320 202 L332 128 C334 111 336 93 336 82 C336 56 315 44 271 44 L265 44 L256 0 L532 0 Z M314 247 L146 247 L277 475 L314 247 Z " />
<glyph glyph-name="B" unicode="B" horiz-adv-x="600" d="M98 665 L89 621 L97 621 C138 621 149 611 149 576 C149 563 146 545 141 518 L62 149 C44 65 27 44 -24 44 L-36 44 L-45 0 L247 0 C345 0 404 15 450 50 C503 90 535 154 535 217 C535 294 486 340 386 356 C449 372 492 392 522 420 C557 454 577 499 577 544 C577 584 560 617 529 637 C492 662 438 672 347 672 C317 672 317 672 211 668 L98 665 Z M249 331 L266 331 C321 331 343 325 358 306 C370 291 376 271 376 248 C376 205 363 144 347 113 C327 72 287 47 243 47 C214 47 201 59 201 86 C201 98 206 129 214 166 L249 331 Z M259 378 L311 625 C318 626 323 626 330 626 C393 626 417 606 417 555 C417 520 404 465 389 437 C364 392 336 378 267 378 L263 378 L259 378 Z " />
<glyph glyph-name="C" unicode="C" horiz-adv-x="662" d="M550 254 C538 222 523 193 503 161 C454 82 387 40 312 40 C238 40 188 100 188 189 C188 264 213 382 247 468 C287 568 357 628 436 628 C528 628 579 558 579 431 L579 412 L617 412 L664 661 L625 661 L622 654 C617 638 607 618 591 593 C552 650 494 679 415 679 C309 679 211 627 135 532 C66 446 28 341 28 238 C28 86 121 -13 265 -13 C346 -13 425 19 486 76 C494 59 498 39 498 10 L537 10 L589 254 L550 254 Z " />
<glyph glyph-name="D" unicode="D" horiz-adv-x="709" d="M88 622 L98 622 C139 622 151 612 151 576 C151 565 149 550 142 519 L63 149 C45 65 28 44 -24 44 L-36 44 L-45 0 L190 0 C372 0 435 15 514 75 C615 152 678 282 678 415 C678 506 645 575 581 616 C522 654 429 672 292 672 C272 672 253 672 221 671 C197 671 194 671 156 669 C133 667 118 666 97 665 L88 622 Z M313 626 C326 627 337 627 349 627 C396 627 423 621 447 605 C492 576 515 524 515 451 C515 312 455 145 383 87 C357 66 298 47 256 47 C217 47 204 59 204 94 C204 110 207 127 216 171 L313 626 Z " />
<glyph glyph-name="E" unicode="E" horiz-adv-x="590" d="M499 215 C444 90 390 44 300 47 L276 47 C238 47 221 52 212 68 C208 77 205 87 205 97 C205 111 207 121 216 164 L250 327 L308 327 C350 327 366 316 366 287 C366 276 364 259 361 243 L359 235 L397 235 L446 462 L407 462 L406 455 C390 390 374 375 316 374 L260 374 L313 621 L410 621 C493 623 515 597 519 497 L558 497 L584 667 L101 667 L92 624 L101 624 C138 624 151 612 151 577 C151 565 148 542 144 522 L65 149 C47 66 27 43 -25 44 L-36 44 L-45 0 L486 0 L539 215 L499 215 Z " />
<glyph glyph-name="F" unicode="F" horiz-adv-x="527" d="M585 667 L96 667 L87 624 L96 624 C139 624 151 614 151 578 C151 565 148 547 143 521 L64 149 C46 66 28 44 -25 44 L-37 44 L-46 0 L262 0 L272 44 L258 44 C217 44 204 56 204 94 C204 107 206 121 212 149 L249 326 L295 326 C338 326 349 316 349 277 C349 264 348 250 345 237 L344 230 L384 230 L434 461 L393 461 L391 454 C372 388 358 374 306 373 L259 373 L312 621 L408 621 C447 621 472 616 483 604 C501 586 513 548 513 506 L513 494 L553 494 L585 667 Z " />
<glyph glyph-name="G" unicode="G" horiz-adv-x="704" d="M406 300 L396 256 L406 256 C447 254 460 243 460 211 C460 203 459 194 457 186 L452 161 C435 84 379 36 306 36 C232 36 189 86 189 173 C189 266 226 418 269 506 C305 578 374 625 442 625 C529 625 581 558 581 448 L581 436 L623 436 L668 667 L626 667 C618 639 608 618 592 595 C550 653 494 680 420 680 C313 680 213 627 134 527 C66 440 28 339 28 241 C28 88 125 -14 271 -14 C307 -14 352 -8 387 2 C473 27 509 34 545 34 C549 34 553 34 564 32 L588 149 C606 236 613 246 663 255 L670 256 L679 300 L406 300 Z " />
<glyph glyph-name="H" unicode="H" horiz-adv-x="752" d="M502 325 L464 149 C446 66 427 43 375 44 L363 29 L357 0 L656 0 L665 44 L657 44 C620 44 604 57 604 86 C604 101 607 124 612 149 L691 521 C709 604 726 624 781 623 L788 623 L798 667 L499 667 L490 623 L497 623 C538 623 551 613 551 579 L551 576 C551 575 551 571 550 566 C551 562 548 541 543 521 L513 377 L259 377 L289 521 C307 604 325 624 379 623 L386 623 L395 667 L97 667 L87 623 L95 623 C137 623 149 613 149 577 C149 565 146 542 141 521 L62 149 C46 68 25 43 -27 44 L-36 44 L-45 0 L253 0 L263 44 L255 44 C218 44 202 57 202 86 C202 101 205 124 210 149 L248 325 L502 325 Z " />
<glyph glyph-name="I" unicode="I" horiz-adv-x="354" d="M87 623 L96 623 C139 623 151 613 151 578 C151 566 148 548 142 521 L63 149 C46 66 27 44 -26 44 L-36 44 L-45 0 L258 0 L267 44 L256 44 C220 44 203 57 203 85 C203 101 206 123 211 149 L290 521 C309 606 325 624 381 623 L390 623 L400 667 L97 667 L87 623 Z " />
<glyph glyph-name="J" unicode="J" horiz-adv-x="354" d="M98 667 L89 623 L103 623 C146 623 158 613 158 578 C158 566 155 545 150 521 L45 27 C19 -98 3 -139 -30 -171 C-46 -187 -63 -194 -83 -194 C-104 -194 -118 -187 -118 -175 C-118 -170 -116 -160 -112 -143 C-109 -132 -108 -123 -108 -118 C-108 -93 -128 -74 -154 -74 C-197 -74 -236 -113 -236 -157 C-236 -206 -183 -238 -101 -238 C-6 -238 77 -201 127 -136 C161 -91 178 -46 200 57 L298 521 C317 605 333 624 388 623 L398 623 L407 667 L98 667 Z " />
<glyph glyph-name="K" unicode="K" horiz-adv-x="703" d="M253 339 L291 521 C310 605 326 624 381 623 L391 623 L400 667 L98 667 L89 623 L97 623 C139 623 151 613 151 578 C151 565 148 543 143 521 L64 149 C47 66 28 44 -25 44 L-37 44 L-46 0 L253 0 L262 44 L257 44 C221 44 204 57 204 86 C204 101 207 123 212 149 L239 274 L300 330 L392 144 L395 136 C396 133 399 127 403 119 C411 105 417 89 417 80 C417 56 393 44 344 44 L336 44 L327 0 L660 0 L670 44 L664 44 C610 44 584 70 543 160 L414 426 L503 501 C614 595 655 618 714 623 L720 623 L729 667 L477 667 L468 623 L474 623 C502 623 518 614 518 596 C518 576 501 554 451 511 L253 339 Z " />
<glyph glyph-name="L" unicode="L" horiz-adv-x="575" d="M538 213 L499 213 C442 89 391 47 296 47 L273 47 C219 47 203 58 203 92 C203 104 203 106 213 151 L292 521 C310 606 326 624 382 623 L398 623 L407 667 L97 667 L87 623 L97 623 C140 623 152 613 152 578 C152 566 150 549 144 521 L64 148 C47 65 29 44 -25 44 L-36 44 L-45 0 L489 0 L538 213 Z " />
<glyph glyph-name="M" unicode="M" horiz-adv-x="885" d="M324 667 L92 667 L82 623 L91 623 C121 623 137 619 145 609 C152 600 157 585 157 570 C157 560 154 540 150 519 L79 189 C62 89 32 51 -36 44 L-41 44 L-50 0 L178 0 L187 44 L183 44 C142 45 114 72 114 110 C114 126 117 145 126 186 L202 546 L314 0 L343 0 L675 552 L589 149 C571 65 554 44 501 44 L487 44 L478 0 L788 0 L798 44 L781 44 C745 44 728 57 728 84 C728 99 731 121 737 149 L816 521 C836 608 849 624 905 623 L920 623 L929 667 L701 667 L414 190 L324 667 Z " />
<glyph glyph-name="N" unicode="N" horiz-adv-x="700" d="M520 -12 L632 513 C645 585 670 611 734 623 L742 623 L751 667 L522 667 L512 623 L520 623 C559 623 589 598 589 567 C589 551 587 536 583 517 L520 221 L285 667 L92 667 L83 623 L87 623 C133 623 147 609 147 563 C147 543 145 525 141 507 L68 162 C53 78 32 54 -36 44 L-41 44 L-50 0 L172 0 L181 44 L172 44 C137 44 108 70 108 101 C108 110 112 135 118 163 L194 522 L472 -12 L520 -12 Z " />
<glyph glyph-name="O" unicode="O" horiz-adv-x="743" d="M450 679 C322 679 213 626 129 523 C66 445 30 346 30 247 C30 87 133 -13 298 -13 C525 -13 713 182 713 417 C713 577 611 679 450 679 L450 679 Z M436 628 C505 628 547 573 547 483 C547 365 507 205 460 132 C419 70 368 38 311 38 C239 38 195 92 195 180 C195 287 228 425 276 517 C312 585 373 628 436 628 L436 628 Z " />
<glyph glyph-name="P" unicode="P" horiz-adv-x="574" d="M96 667 L87 623 L99 623 C142 623 154 613 154 578 C154 565 151 544 146 521 L67 148 C49 65 31 44 -22 44 L-34 44 L-43 0 L265 0 L275 44 L260 44 C224 44 207 57 207 86 C207 102 210 124 215 148 L247 301 L314 301 C403 301 459 315 504 350 C559 392 593 461 593 530 C593 579 573 618 537 640 C495 665 456 673 367 673 C328 673 212 671 157 669 L96 667 Z M258 349 L316 625 C323 626 327 626 333 626 C409 626 433 605 433 538 C433 474 408 407 374 376 C351 356 329 349 289 349 L258 349 Z " />
<glyph glyph-name="Q" unicode="Q" horiz-adv-x="742" d="M405 1 C476 21 533 55 582 104 C664 188 713 303 713 415 C713 578 611 679 445 679 C220 679 30 482 30 247 C30 151 67 74 133 31 C174 4 234 -13 285 -13 C292 -13 297 -13 306 -12 L262 -36 C138 -107 117 -123 117 -148 C117 -160 125 -169 136 -169 C147 -169 160 -162 178 -145 C216 -111 239 -100 270 -100 C307 -100 348 -122 381 -159 C424 -206 424 -206 436 -216 C467 -241 503 -253 549 -253 C654 -253 736 -189 774 -78 L736 -78 C708 -117 665 -139 616 -139 C589 -139 539 -130 522 -122 C461 -93 461 -93 446 -88 C398 -70 343 -57 314 -57 L303 -57 L405 1 Z M434 628 C503 628 547 571 547 481 C547 365 508 212 460 136 C419 72 368 38 311 38 C282 38 256 48 235 66 C211 87 199 124 199 178 C199 262 212 348 234 418 C278 554 348 628 434 628 L434 628 Z " />
<glyph glyph-name="R" unicode="R" horiz-adv-x="652" d="M611 0 L620 44 L615 44 C569 47 545 76 504 179 C464 280 449 306 423 329 C478 345 511 363 540 391 C578 429 600 480 600 531 C600 577 581 614 545 637 C508 661 431 672 310 672 L291 672 C163 670 159 670 137 669 L98 667 L89 623 L99 623 C142 623 154 613 154 578 C154 565 151 544 146 521 L67 149 C49 66 31 44 -22 44 L-36 44 L-45 0 L266 0 L276 44 L260 44 C224 44 207 57 207 86 C207 102 210 123 215 149 L248 303 L253 303 L258 303 L274 303 C317 304 327 288 367 158 C391 82 416 20 432 0 L611 0 Z M258 351 L315 621 C326 622 333 622 342 622 C415 622 444 599 444 541 C444 482 418 410 386 382 C361 359 331 351 274 351 L269 351 L258 351 Z " />
<glyph glyph-name="S" unicode="S" horiz-adv-x="503" d="M-18 10 L25 10 C34 36 44 54 54 67 C83 17 136 -13 199 -13 C330 -13 444 103 444 237 C444 316 412 356 297 420 C227 459 205 485 205 526 C205 584 251 632 306 632 C370 632 409 574 410 478 L449 478 L489 667 L449 667 L448 664 L445 657 C439 641 432 630 421 617 C393 658 352 679 304 679 C185 679 81 570 81 446 C81 370 108 337 228 262 C286 226 309 197 309 157 C309 94 252 37 189 37 C113 37 72 101 72 220 L72 233 L29 233 L-18 10 Z " />
<glyph glyph-name="T" unicode="T" horiz-adv-x="624" d="M86 487 C127 599 151 620 238 620 L297 620 L197 149 C179 65 161 44 108 44 L89 44 L79 0 L400 0 L409 44 L391 44 C353 44 337 56 337 87 C337 101 340 125 345 149 L445 620 L507 620 C543 620 567 614 578 604 C593 589 603 552 603 509 L603 487 L642 487 L680 667 L85 667 L46 487 L86 487 Z " />
<glyph glyph-name="U" unicode="U" horiz-adv-x="698" d="M523 667 L514 623 L519 623 C566 622 590 600 590 556 C590 545 588 530 584 511 L536 286 C518 199 510 174 493 147 C452 82 386 43 318 43 C252 43 202 89 202 149 L202 157 C203 188 206 206 220 275 L272 521 C290 604 309 625 366 623 L376 623 L385 667 L87 667 L78 623 L86 623 C130 623 144 612 144 575 C144 563 141 542 137 521 L80 254 C71 211 68 191 68 164 C68 53 146 -14 273 -14 C341 -14 407 7 460 46 C518 89 560 163 580 260 L636 519 C648 584 675 611 736 623 L743 623 L752 667 L523 667 Z " />
<glyph glyph-name="V" unicode="V" horiz-adv-x="639" d="M270 -14 L551 458 C632 593 657 621 701 623 L713 623 L722 667 L508 667 L498 623 L504 623 C539 623 562 608 562 585 C562 569 549 540 523 495 L331 170 L271 520 C268 541 265 564 265 576 C265 609 287 623 339 623 L345 623 L354 667 L59 667 L50 623 L56 623 C108 620 116 609 132 520 L134 503 L227 -14 L270 -14 Z " />
<glyph glyph-name="W" unicode="W" horiz-adv-x="847" d="M563 -14 L790 472 C846 592 868 620 910 623 L917 623 L927 667 L744 667 L735 623 L739 623 C766 623 785 607 785 584 C785 566 777 542 757 500 L619 201 L558 667 L504 667 L268 201 L246 529 L245 560 C245 606 259 621 304 623 L309 623 L318 667 L61 667 L52 623 L59 623 C101 621 107 608 113 511 L147 -14 L202 -14 L447 468 L510 -14 L563 -14 Z " />
<glyph glyph-name="X" unicode="X" horiz-adv-x="714" d="M750 667 L516 667 L506 623 L513 623 C549 623 565 616 565 598 C565 584 552 564 525 536 L405 415 L340 544 C332 560 326 579 326 589 C326 613 342 623 380 623 L386 623 L396 667 L85 667 L76 623 L80 623 C131 622 145 608 187 522 L194 509 L294 310 L140 159 C58 75 12 46 -42 44 L-47 44 L-56 0 L197 0 L206 44 L195 44 C163 44 145 56 145 77 C145 97 158 117 194 153 L313 272 L379 140 C390 119 397 98 397 88 C397 58 372 44 318 44 L313 44 L304 0 L647 0 L657 44 C595 48 582 61 526 172 L425 378 L552 505 C645 598 677 618 741 623 L750 667 Z " />
<glyph glyph-name="Y" unicode="Y" horiz-adv-x="596" d="M59 667 L50 623 L55 623 C98 618 107 606 132 526 L209 267 L184 149 C167 66 148 44 95 44 L86 44 L77 0 L376 0 L386 44 L377 44 C342 44 325 57 325 85 C325 102 328 123 333 149 L360 277 L520 497 C589 589 622 618 664 623 L668 623 L678 667 L475 667 L466 623 L470 623 C503 623 519 611 519 587 C519 569 510 550 485 515 L353 332 L277 541 C270 558 266 576 266 584 C266 609 287 623 326 623 L331 623 L341 667 L59 667 Z " />
<glyph glyph-name="Z" unicode="Z" horiz-adv-x="598" d="M-41 0 L480 0 L534 190 L494 190 C431 70 395 45 285 47 L132 47 L610 630 L618 667 L133 667 L84 497 L122 497 C172 601 210 625 317 621 L445 621 L-34 35 L-41 0 Z " />
<glyph glyph-name="bracketleft" unicode="&#x5b;" horiz-adv-x="362" d="M234 -235 L243 -192 L166 -192 C138 -192 127 -184 127 -161 C127 -155 127 -154 132 -128 L138 -101 L273 533 L279 560 C288 610 302 624 340 624 L416 624 L426 667 L186 667 L-6 -235 L234 -235 Z " />
<glyph glyph-name="backslash" unicode="&#x5c;" horiz-adv-x="450" d="M287 -116 L199 687 L142 687 L231 -116 L287 -116 Z " />
<glyph glyph-name="bracketright" unicode="&#x5d;" horiz-adv-x="362" d="M-114 -235 L126 -235 L318 667 L78 667 L68 624 L145 624 C174 624 184 616 184 593 C184 586 183 580 179 560 L173 533 L38 -101 C23 -180 16 -190 -28 -192 L-105 -192 L-114 -235 Z " />
<glyph glyph-name="asciicircum" unicode="&#x5e;" horiz-adv-x="450" d="M465 279 L317 700 L310 700 L-39 279 L110 279 L319 532 L409 279 L465 279 Z " />
<glyph glyph-name="underscore" unicode="&#x5f;" horiz-adv-x="498" d="M-82 -92 L-98 -165 L384 -165 L400 -92 L-82 -92 Z " />
<glyph glyph-name="grave" unicode="&#x60;" horiz-adv-x="473" d="M333 488 L287 649 L135 649 L133 642 L300 488 L333 488 Z " />
<glyph glyph-name="a" unicode="a" horiz-adv-x="480" d="M394 84 C386 62 373 49 358 49 C349 49 341 58 341 70 C341 78 343 91 347 108 L385 287 C392 322 392 322 392 334 C392 390 345 419 256 419 C188 419 131 404 90 376 C59 354 42 329 42 305 C42 285 56 272 77 272 C105 272 124 288 137 322 C152 361 171 375 208 375 C247 375 266 362 266 335 C266 327 264 311 261 298 L255 267 L216 252 C91 201 38 172 11 139 C-11 113 -22 86 -22 59 C-22 18 9 -10 56 -10 C105 -10 158 9 214 49 C223 11 252 -10 299 -10 C361 -10 408 26 423 84 L394 84 Z M245 223 L218 93 C186 64 161 50 142 50 C124 50 112 66 112 89 C112 134 155 185 217 211 L245 223 Z " />
<glyph glyph-name="b" unicode="b" horiz-adv-x="529" d="M265 678 L258 678 C246 674 220 670 160 662 C158 662 127 657 78 649 L69 606 L73 606 C98 606 110 596 110 572 C110 563 107 545 103 526 L-11 -12 L23 -12 C40 3 54 15 69 26 C80 34 91 43 102 52 C106 54 107 56 113 60 C139 12 181 -13 236 -13 C364 -13 474 115 474 265 C474 359 419 419 334 419 C289 419 247 402 198 365 L265 678 Z M187 311 C223 348 253 365 283 365 C317 365 338 335 338 285 C338 246 329 197 314 152 C288 74 253 37 204 37 C169 37 147 62 147 100 C147 113 148 127 149 131 L187 311 Z " />
<glyph glyph-name="c" unicode="c" horiz-adv-x="426" d="M322 116 C294 63 255 36 207 36 C160 36 135 66 135 123 C135 183 152 262 174 306 C197 352 229 376 267 376 C292 376 302 366 302 342 L302 340 L301 322 C301 292 315 274 338 274 C367 274 394 307 394 342 C394 387 347 419 279 419 C125 419 -4 293 -4 142 C-4 46 61 -16 161 -16 C245 -16 315 26 355 101 L322 116 Z " />
<glyph glyph-name="d" unicode="d" horiz-adv-x="526" d="M455 50 L450 50 C424 50 414 59 414 83 C414 93 416 107 422 133 L537 678 L530 678 C484 669 464 665 340 647 L331 605 L335 605 C366 605 380 592 380 565 C380 551 378 538 375 522 L342 364 C318 399 276 419 227 419 C103 419 -4 285 -4 129 C-4 109 -1 92 6 74 C27 17 67 -12 126 -12 C177 -12 224 9 278 56 C274 37 272 22 272 9 C272 1 272 -2 273 -12 C319 -2 370 3 446 6 L455 50 Z M288 111 C258 70 222 47 188 47 C157 47 135 77 135 122 C135 175 152 252 173 294 C194 337 225 361 261 361 C286 361 307 348 331 315 L288 111 Z " />
<glyph glyph-name="e" unicode="e" horiz-adv-x="440" d="M386 227 C390 248 392 262 392 280 C392 363 336 419 253 419 C115 419 -1 295 -1 147 C-1 49 63 -16 160 -16 C231 -16 305 22 348 81 L317 100 C282 56 243 34 202 34 C153 34 126 67 126 129 C126 162 130 189 141 227 L386 227 Z M150 266 C172 345 197 376 239 376 C268 376 285 355 285 318 C285 299 282 278 278 266 L150 266 Z " />
<glyph glyph-name="f" unicode="f" horiz-adv-x="303" d="M296 403 L219 403 L225 430 C248 541 254 565 265 586 C279 616 300 634 320 634 C339 634 348 620 352 584 C355 550 371 532 396 532 C431 532 464 567 464 604 C464 649 419 678 351 678 C276 678 212 649 170 595 C139 555 123 516 104 424 L99 403 L30 403 L21 360 L90 360 L40 125 C27 62 10 42 -32 42 L-44 42 L-53 0 L210 0 L219 42 L197 42 C167 42 154 53 154 80 C154 90 156 109 160 125 L210 360 L287 360 L296 403 Z " />
<glyph glyph-name="g" unicode="g" horiz-adv-x="464" d="M188 -52 C246 -52 272 -67 272 -101 C272 -163 206 -208 113 -208 C48 -208 4 -183 4 -147 C4 -132 10 -107 19 -87 C20 -85 20 -85 20 -83 C7 -77 0 -75 -9 -75 C-43 -75 -74 -113 -74 -154 C-74 -216 -15 -249 96 -249 C174 -249 232 -233 278 -199 C328 -163 358 -105 358 -47 C358 22 311 56 218 56 C213 56 213 56 184 55 L180 55 L159 55 C147 56 136 56 133 56 C93 56 76 63 76 78 C76 106 107 121 168 124 C234 127 277 140 314 168 C357 202 384 255 384 307 C384 322 382 333 377 348 C388 360 397 365 406 365 C413 365 417 362 423 350 C430 339 436 334 445 334 C466 334 483 356 483 383 C483 405 470 418 447 418 C424 418 401 406 361 373 C333 405 295 419 239 419 C118 419 26 344 26 245 C26 195 52 156 96 139 C25 121 -14 81 -14 23 C-14 6 -9 -9 0 -19 C19 -40 67 -53 130 -53 C132 -53 151 -53 164 -52 L188 -52 Z M227 376 C247 376 262 355 262 325 C262 297 252 251 238 219 C226 188 204 169 184 169 C162 169 149 187 149 219 C149 244 155 279 164 307 C179 352 201 376 227 376 L227 376 Z " />
<glyph glyph-name="h" unicode="h" horiz-adv-x="525" d="M76 603 L80 603 C107 603 119 594 119 574 C119 565 116 545 113 528 L27 125 C11 55 1 43 -39 42 L-44 42 L-53 0 L172 0 L181 42 L179 42 C157 43 149 51 149 69 C149 82 152 105 156 125 L189 282 C191 284 193 285 193 286 L197 291 C224 329 258 354 284 354 C309 354 323 340 323 315 C323 303 321 286 317 268 L287 125 C271 56 264 46 230 43 L225 42 L216 0 L442 0 L451 42 L447 42 C421 42 411 50 411 72 C411 86 413 106 417 125 L445 253 C452 288 455 309 455 327 C455 383 416 419 354 419 C300 419 250 394 203 344 L274 678 L267 678 C253 674 223 668 172 661 C144 657 122 653 85 645 L76 603 Z " />
<glyph glyph-name="i" unicode="i" horiz-adv-x="271" d="M214 678 C164 678 119 634 119 585 C119 551 145 525 179 525 C229 525 274 569 274 618 C274 653 249 678 214 678 L214 678 Z M17 343 L27 343 C60 343 72 333 72 305 C72 296 70 279 66 263 L37 125 C21 58 8 43 -35 42 L-47 42 L-56 0 L189 0 L198 42 L193 42 C165 42 155 50 155 73 C155 87 157 106 161 125 L224 419 L217 419 C186 411 64 389 26 386 L17 343 Z " />
<glyph glyph-name="j" unicode="j" horiz-adv-x="274" d="M234 419 L227 419 C182 409 136 402 25 385 L16 343 L30 343 C63 343 77 331 77 302 C77 294 75 277 72 263 L4 -58 C-13 -136 -19 -155 -37 -178 C-48 -193 -65 -203 -78 -203 C-92 -203 -102 -193 -104 -178 C-108 -141 -117 -129 -139 -129 C-169 -129 -195 -158 -195 -191 C-195 -224 -159 -248 -106 -248 C-53 -248 5 -229 46 -200 C99 -160 120 -117 147 7 L234 419 Z M224 678 C174 678 129 634 129 586 C129 551 154 525 189 525 C239 525 284 569 284 618 C284 653 258 678 224 678 L224 678 Z " />
<glyph glyph-name="k" unicode="k" horiz-adv-x="489" d="M284 403 L275 361 L280 361 C300 361 310 356 310 346 C310 336 305 330 268 300 L176 224 L273 678 L265 678 C250 673 231 669 205 665 C179 661 153 657 127 654 L112 651 C102 649 98 648 84 645 L75 603 L82 603 C107 603 118 595 118 576 C118 566 115 547 112 529 L26 125 C9 54 2 44 -38 42 L-48 42 L-57 0 L169 0 L178 42 L175 42 C156 43 148 51 148 68 C148 83 151 105 155 125 L165 173 L195 198 L238 97 C244 83 248 71 248 66 C248 52 235 43 214 42 L211 42 L202 0 L418 0 L427 42 L424 43 C403 44 387 63 359 119 L288 267 L303 277 L317 288 C323 293 330 298 337 303 C403 347 431 360 468 361 L471 361 L480 403 L284 403 Z " />
<glyph glyph-name="l" unicode="l" horiz-adv-x="262" d="M73 603 L85 603 C107 603 117 595 117 579 C117 568 114 546 110 527 L25 125 C8 51 3 44 -34 42 L-47 42 L-56 0 L175 0 L184 42 L179 42 C156 42 145 50 145 67 C145 77 148 99 154 125 L271 678 L264 678 C236 670 167 658 82 645 L73 603 Z " />
<glyph glyph-name="m" unicode="m" horiz-adv-x="773" d="M21 338 L24 338 C51 338 61 330 61 305 C61 291 59 272 56 259 L28 125 C11 55 2 43 -39 42 L-41 42 L-50 0 L170 0 L179 42 L175 42 C158 43 149 51 149 66 C149 79 152 104 157 125 L191 284 C227 328 260 351 287 351 C308 351 322 336 322 314 C322 304 319 282 315 264 L286 125 C270 55 264 46 232 43 L227 42 L218 0 L426 0 L435 42 L432 42 C413 43 405 51 405 68 C405 83 408 104 412 125 L445 280 C485 329 515 351 543 351 C566 351 579 338 579 314 C579 303 577 287 574 274 L543 125 C527 55 521 47 487 43 L484 42 L475 0 L691 0 L700 42 L696 42 C669 42 660 50 660 73 C660 87 662 107 666 125 L694 258 C703 299 705 311 705 329 C705 384 667 419 608 419 C555 419 506 393 450 335 C444 388 409 419 355 419 C304 419 252 394 204 345 C208 361 210 374 210 389 C210 397 210 402 208 412 L204 412 C190 407 163 402 117 395 C114 395 81 389 30 381 L21 338 Z " />
<glyph glyph-name="n" unicode="n" horiz-adv-x="526" d="M30 380 L21 338 L25 338 C53 338 62 330 62 303 C62 289 60 274 57 259 L29 125 C12 55 3 43 -38 42 L-41 42 L-50 0 L175 0 L184 42 C161 43 150 51 150 69 C150 83 152 101 158 125 L191 283 C229 331 261 353 289 353 C312 353 326 337 326 310 C326 304 325 295 323 288 L289 125 C273 55 266 46 227 42 L218 0 L443 0 L452 42 L449 42 C423 42 413 50 413 72 C413 86 415 107 419 125 L448 260 C456 299 458 311 458 328 C458 382 419 419 363 419 C308 419 255 394 206 346 C209 367 211 382 211 395 C211 401 211 404 210 412 L202 412 C169 404 162 402 38 382 L30 380 Z " />
<glyph glyph-name="o" unicode="o" horiz-adv-x="490" d="M264 419 C118 419 -1 296 -1 145 C-1 103 9 72 29 46 C58 8 113 -16 170 -16 C313 -16 434 109 434 257 C434 353 365 419 264 419 L264 419 Z M254 375 C283 375 303 349 303 311 C303 264 286 175 268 121 C246 58 217 27 180 27 C148 27 131 52 131 99 C131 169 162 295 190 334 C208 360 231 375 254 375 L254 375 Z " />
<glyph glyph-name="p" unicode="p" horiz-adv-x="527" d="M18 387 L9 345 L16 345 C44 345 54 337 54 312 C54 298 52 279 48 263 L-32 -116 C-49 -186 -58 -198 -100 -199 L-106 -199 L-115 -241 L131 -241 L140 -199 L130 -199 C101 -199 91 -190 91 -166 C91 -152 93 -134 97 -116 L130 42 C163 1 195 -16 239 -16 C363 -16 473 117 473 268 C473 358 421 419 345 419 C294 419 243 395 194 350 C198 375 200 392 200 403 C200 408 200 412 199 419 L191 419 C168 413 145 409 98 401 C71 396 61 395 59 394 C48 392 37 390 26 389 L18 387 Z M184 295 C218 340 249 361 281 361 C315 361 337 329 337 279 C337 242 326 185 310 139 C289 80 249 42 208 42 C181 42 157 60 141 92 L184 295 Z " />
<glyph glyph-name="q" unicode="q" horiz-adv-x="510" d="M448 419 C401 385 378 369 356 355 C322 397 281 419 235 419 C107 419 -3 287 -3 132 C-3 40 49 -16 135 -16 C180 -16 221 0 270 36 L238 -116 C222 -185 210 -198 170 -199 L158 -199 L149 -241 L396 -241 L405 -199 L400 -199 C371 -199 361 -190 361 -167 C361 -153 363 -135 367 -116 L481 419 L448 419 Z M281 87 C249 57 216 40 188 40 C150 40 135 66 135 129 C135 165 145 216 162 267 C182 327 219 365 259 365 C289 365 318 341 328 309 L281 87 Z " />
<glyph glyph-name="r" unicode="r" horiz-adv-x="394" d="M21 339 L26 339 C54 339 64 330 64 307 C64 293 62 274 58 256 L30 125 C14 55 5 43 -36 42 L-41 42 L-50 0 L193 0 L202 42 L193 42 C164 42 154 50 154 76 C154 90 156 108 160 125 L171 178 C185 246 198 276 224 309 C241 329 257 340 272 340 C282 340 290 334 296 318 C308 291 316 284 333 284 C365 284 394 320 394 360 C394 396 373 419 339 419 C291 419 237 381 195 317 C201 348 203 370 203 393 C203 403 203 408 201 419 C111 398 66 387 30 381 L21 339 Z " />
<glyph glyph-name="s" unicode="s" horiz-adv-x="375" d="M-36 -12 L-4 -12 C4 2 12 12 21 20 C25 19 26 18 31 15 C57 -6 89 -16 126 -16 C223 -16 301 59 301 154 C301 184 292 210 275 228 C257 246 251 249 182 272 C142 285 122 303 122 326 C122 356 154 382 192 382 C240 382 274 346 277 291 L309 291 L335 414 L305 414 C296 400 289 392 282 386 C251 406 212 420 187 420 C102 420 24 346 24 266 C24 223 55 184 107 164 C173 138 173 138 188 122 C195 114 199 104 199 93 C199 55 162 25 117 25 C64 25 32 60 27 122 L-8 122 L-36 -12 Z " />
<glyph glyph-name="t" unicode="t" horiz-adv-x="303" d="M298 359 L308 403 L200 403 L228 534 L191 534 C163 457 100 402 38 402 C37 402 34 402 30 403 L20 359 L72 359 L22 127 C17 104 15 88 15 74 C15 18 48 -16 103 -16 C164 -16 219 15 250 68 L219 82 C199 53 182 41 162 41 C146 41 134 55 134 75 C134 85 138 109 144 139 L191 359 L298 359 Z " />
<glyph glyph-name="u" unicode="u" horiz-adv-x="514" d="M465 403 L289 403 L280 361 L285 361 C308 361 318 354 318 337 C318 326 314 299 310 279 L282 145 C273 103 219 51 184 51 C166 51 151 68 151 87 C151 97 154 119 157 134 L214 403 L27 403 L18 361 L21 361 C51 361 64 349 64 322 C64 311 62 294 59 279 L27 130 C22 109 20 87 20 68 C20 19 60 -16 114 -16 C166 -16 217 11 264 63 C261 49 260 40 259 35 L255 11 L255 7 C253 -9 253 -9 253 -12 L253 -16 L259 -16 C287 -7 375 1 429 0 L438 42 L436 42 C410 42 400 50 400 72 C400 86 402 106 406 125 L465 403 Z " />
<glyph glyph-name="v" unicode="v" horiz-adv-x="447" d="M176 -10 L354 263 C408 343 421 356 452 361 L456 361 L465 403 L324 403 L315 361 L319 361 C338 360 351 352 351 341 C351 333 344 319 329 296 L209 106 L170 303 C165 324 165 324 165 332 C165 351 179 361 207 361 L212 361 L221 403 L11 403 L2 361 L6 361 C32 360 38 350 53 284 L117 -10 L176 -10 Z " />
<glyph glyph-name="w" unicode="w" horiz-adv-x="676" d="M422 -11 L591 271 C636 347 647 358 684 361 L686 361 L695 403 L541 403 L532 361 L537 361 C565 360 579 353 579 339 C579 334 573 319 564 304 L459 124 L413 403 L359 403 L194 124 L169 297 C167 313 166 325 166 332 C166 352 180 361 212 361 L217 361 L226 403 L11 403 L2 361 L7 361 C36 359 40 353 51 291 L99 -11 L156 -11 L319 268 L366 -11 L422 -11 Z " />
<glyph glyph-name="x" unicode="x" horiz-adv-x="467" d="M446 361 L455 403 L306 403 L298 361 L301 361 C322 360 331 356 331 346 C331 340 324 332 301 310 L249 262 L217 320 C211 330 208 338 208 342 C208 355 218 361 238 361 L243 361 L252 403 L30 403 L21 361 C42 359 56 344 93 287 L159 181 L70 105 C21 65 -17 45 -53 42 L-62 0 L109 0 L118 42 L116 42 C92 41 79 46 79 57 C79 63 85 71 97 82 C100 85 104 89 107 91 L172 152 L209 84 C218 67 218 67 218 62 C218 50 202 42 178 42 L176 42 L171 42 L162 0 L392 0 L401 42 L396 43 C377 47 366 60 342 100 L264 233 L354 310 C393 344 423 361 443 361 L446 361 Z " />
<glyph glyph-name="y" unicode="y" horiz-adv-x="453" d="M9 403 L1 361 L7 360 C32 357 39 347 53 293 L137 -15 L108 -65 C82 -107 68 -116 7 -135 C-39 -149 -62 -174 -62 -208 C-62 -233 -45 -250 -20 -250 C24 -250 60 -215 123 -112 L344 251 C407 347 415 356 448 360 L456 361 L464 403 L317 403 L308 361 L316 361 L319 361 C333 361 347 350 347 340 C347 334 343 324 336 313 L318 285 L218 118 L177 301 C174 313 173 321 173 328 C173 349 183 359 206 360 L212 361 L221 403 L9 403 Z " />
<glyph glyph-name="z" unicode="z" horiz-adv-x="422" d="M-45 0 L313 0 L353 134 L315 134 C272 60 251 43 200 43 L113 43 L395 366 L403 403 L61 403 L27 283 L65 283 C107 353 115 361 148 360 L247 360 L-38 33 L-45 0 Z " />
<glyph glyph-name="braceleft" unicode="&#x7b;" horiz-adv-x="352" d="M27 202 C65 199 81 185 81 157 C81 138 78 113 72 87 L37 -80 C33 -98 31 -117 31 -134 C31 -188 52 -218 98 -226 C122 -231 122 -231 194 -232 L217 -232 L224 -204 C172 -202 147 -179 147 -135 C147 -118 150 -94 155 -70 L190 94 C193 107 194 120 194 133 C194 174 164 203 108 214 L109 221 C189 237 229 273 242 340 L277 505 C297 599 332 636 402 638 L408 667 L385 667 C301 665 257 658 238 643 C202 619 177 577 163 515 L128 348 C108 258 92 238 34 233 L27 202 Z " />
<glyph glyph-name="bar" unicode="&#x7c;" horiz-adv-x="457" d="M252 667 L75 -167 L170 -167 L347 667 L252 667 Z " />
<glyph glyph-name="braceright" unicode="&#x7d;" horiz-adv-x="357" d="M280 233 C243 235 226 249 226 278 C226 295 229 322 235 348 L270 515 C274 533 276 550 276 569 C276 623 255 652 209 661 C185 666 185 666 114 667 L90 667 L84 638 C135 636 160 614 160 570 C160 550 158 529 153 505 L118 340 C115 327 113 312 113 301 C113 261 144 232 200 221 L198 214 C119 198 78 161 65 94 L30 -70 C10 -164 -25 -202 -95 -204 L-101 -232 L-77 -232 C6 -230 51 -223 69 -208 C105 -185 130 -142 144 -80 L180 87 C199 177 215 196 274 202 L280 233 Z " />
<glyph glyph-name="asciitilde" unicode="&#x7e;" horiz-adv-x="640" d="M580 734 C550 705 519 689 494 689 C478 689 445 697 416 708 C382 721 354 728 336 728 C292 728 241 691 183 617 L202 604 C244 642 259 650 291 650 C313 650 332 645 377 626 C407 614 424 610 443 610 C492 610 548 649 599 720 L580 734 Z " />
<glyph glyph-name="uni00A0" unicode="&#xa0;" horiz-adv-x="250" d="" />
<glyph glyph-name="exclamdown" unicode="&#xa1;" horiz-adv-x="277" d="M96 221 L-12 -118 C-27 -162 -31 -181 -31 -197 C-31 -226 -14 -242 17 -242 C40 -242 59 -233 72 -217 C88 -197 92 -179 99 -120 L135 221 L96 221 Z M164 448 C119 448 76 403 76 354 C76 320 99 295 130 295 C175 295 218 341 218 389 C218 423 195 448 164 448 L164 448 Z " />
<glyph glyph-name="cent" unicode="&#xa2;" horiz-adv-x="478" d="M430 613 L393 613 L307 418 C303 419 301 419 297 419 C251 419 195 401 154 372 C75 317 29 231 29 140 C29 64 59 18 125 -5 L41 -190 L79 -190 L158 -10 C177 -16 187 -17 201 -17 C278 -17 351 29 390 101 L356 115 C327 66 277 33 228 33 C210 33 195 40 185 53 L321 360 C327 358 330 352 330 344 L330 342 C329 323 329 323 329 320 C329 292 345 274 368 274 C400 274 429 306 429 340 C429 378 397 406 344 415 L430 613 Z M160 86 C159 95 159 99 159 109 C159 179 180 275 206 318 C228 355 256 376 285 376 C287 376 288 376 289 375 L160 86 Z " />
<glyph glyph-name="sterling" unicode="&#xa3;" horiz-adv-x="647" d="M-3 198 L133 198 C106 135 83 88 59 44 C-23 -5 -66 -50 -66 -87 C-66 -105 -48 -121 -28 -121 C-1 -121 13 -108 64 -35 L79 -14 L88 1 L91 5 C103 11 110 13 119 13 C139 13 156 0 186 -42 C228 -99 261 -121 306 -121 C350 -121 398 -104 440 -72 C497 -29 539 39 539 89 C539 119 524 138 500 138 C466 138 445 108 445 61 L445 55 C446 34 446 34 446 30 C446 -17 415 -52 374 -52 C347 -52 324 -33 290 15 C256 62 224 83 185 83 C169 83 157 80 135 71 C170 115 198 154 225 198 L385 198 L411 257 L260 257 C286 298 340 412 370 487 C420 611 432 636 457 671 C487 713 517 733 550 733 C577 733 593 720 604 691 C616 657 627 646 647 646 C676 646 703 675 703 707 C703 750 654 781 588 781 C442 781 314 645 207 379 C192 342 177 304 162 266 C160 263 160 262 158 257 L23 257 L-3 198 Z " />
<glyph glyph-name="currency" unicode="&#xa4;" horiz-adv-x="600" d="M-21 93 L13 43 L122 141 C166 107 199 95 248 95 C296 95 337 108 394 142 L462 44 L517 93 L447 194 C503 266 527 329 527 401 C527 432 523 452 511 491 L625 593 L591 642 L479 542 C432 576 398 589 353 589 C304 589 252 573 206 543 L139 641 L84 592 L151 494 C95 418 70 354 70 285 C70 253 75 226 87 190 L-21 93 Z M332 483 C384 483 421 439 421 378 C421 288 347 202 270 202 C217 202 180 246 180 308 C180 398 254 483 332 483 L332 483 Z " />
<glyph glyph-name="yen" unicode="&#xa5;" horiz-adv-x="462" d="M356 461 L228 461 L207 541 C198 573 198 573 198 583 C198 610 217 623 253 623 L258 623 L267 667 L14 667 L4 623 L7 623 C45 620 51 612 76 526 L94 461 L-8 461 L-18 415 L106 415 L139 274 L-43 274 L-53 228 L132 228 L115 148 C97 64 82 45 33 44 L24 44 L15 0 L285 0 L294 44 L286 44 C254 44 239 56 239 82 C239 94 243 119 249 148 L266 228 L451 228 L460 274 L273 274 L274 281 L367 415 L495 415 L505 461 L400 461 C494 596 515 617 559 623 L561 623 L570 667 L388 667 L378 623 L383 623 C412 623 431 610 431 589 C431 577 421 555 403 529 L356 461 Z M325 415 L267 332 L242 415 L325 415 Z " />
<glyph glyph-name="brokenbar" unicode="&#xa6;" horiz-adv-x="457" d="M252 667 L177 314 L272 314 L347 667 L252 667 Z M143 153 L75 -167 L170 -167 L238 153 L143 153 Z " />
<glyph glyph-name="section" unicode="&#xa7;" horiz-adv-x="428" d="M149 367 C109 360 88 350 64 331 C24 298 -1 243 -1 188 C-1 125 25 79 112 -6 C166 -61 181 -84 181 -119 C181 -165 144 -202 97 -202 C69 -202 50 -183 50 -152 C50 -114 50 -112 45 -102 C40 -88 29 -80 16 -80 C-15 -80 -43 -114 -43 -153 C-43 -206 9 -245 80 -245 C191 -245 279 -163 279 -59 C279 -17 261 25 228 58 C277 74 287 79 309 98 C348 132 373 190 373 249 C373 275 367 300 356 324 C341 355 327 372 265 434 C206 492 189 518 189 551 C189 594 228 631 273 631 C296 631 313 620 319 602 C323 592 324 584 324 556 C325 525 335 511 357 511 C390 511 418 544 418 582 C418 634 364 674 293 674 C184 674 93 591 93 491 C93 445 108 412 149 367 L149 367 Z M159 333 C180 333 208 313 236 279 C268 240 283 207 283 174 C283 132 251 96 214 96 C187 96 164 114 129 162 C103 197 89 231 89 258 C89 297 122 333 159 333 L159 333 Z " />
<glyph glyph-name="dieresis" unicode="&#xa8;" horiz-adv-x="376" d="M157 632 C119 632 83 598 83 560 C83 533 103 513 131 513 C169 513 205 548 205 585 C205 612 185 632 157 632 L157 632 Z M347 632 C309 632 273 598 273 560 C273 533 293 513 321 513 C359 513 395 548 395 585 C395 612 375 632 347 632 L347 632 Z " />
<glyph glyph-name="copyright" unicode="&#xa9;" horiz-adv-x="723" d="M439 680 C233 680 41 474 41 254 C41 99 143 -13 285 -13 C490 -13 682 194 682 415 C682 568 580 680 439 680 L439 680 Z M429 638 C551 638 639 541 639 405 C639 211 472 29 294 29 C171 29 83 126 83 263 C83 345 114 429 170 500 C241 589 333 638 429 638 L429 638 Z M470 293 C443 217 397 174 345 174 C308 174 281 207 281 253 C281 293 295 361 313 408 C334 462 372 495 412 495 C460 495 486 458 486 390 C486 387 486 383 485 380 L485 379 L485 377 L507 377 L534 516 L512 516 C507 503 502 492 494 480 C472 512 444 526 403 526 C294 526 196 409 196 280 C196 196 244 142 319 142 C362 142 400 158 435 191 C440 177 441 170 441 161 C441 160 441 158 440 155 L463 155 L492 293 L470 293 Z " />
<glyph glyph-name="ordfeminine" unicode="&#xaa;" horiz-adv-x="299" d="M271 325 C265 311 259 304 250 304 C244 304 241 308 241 315 L241 317 L244 337 L268 450 C270 461 272 475 272 483 C272 518 245 536 193 536 C122 536 61 501 61 461 C61 447 70 438 83 438 C101 438 114 450 122 473 C130 497 141 505 163 505 C183 505 193 497 193 482 L193 480 L190 457 L186 440 L165 430 C137 418 123 412 121 411 C85 394 55 374 43 360 C29 342 21 324 21 305 C21 277 40 260 70 260 C97 260 130 273 157 293 C159 294 159 294 161 296 C167 273 184 261 212 261 C253 261 282 285 292 325 L271 325 Z M179 407 L162 327 C146 311 131 302 120 302 C110 302 104 311 104 325 C104 354 130 385 166 401 L179 407 Z " />
<glyph glyph-name="guillemotleft" unicode="&#xab;" horiz-adv-x="481" d="M-10 216 L118 8 L159 8 L122 216 L247 423 L205 423 L-10 216 Z M212 216 L340 8 L381 8 L344 216 L469 423 L427 423 L212 216 Z " />
<glyph glyph-name="logicalnot" unicode="&#xac;" horiz-adv-x="450" d="M352 0 L408 267 L12 267 L-2 199 L235 199 L193 0 L352 0 Z " />
<glyph glyph-name="uni00AD" unicode="&#xad;" horiz-adv-x="302" d="M11 247 L-3 182 L243 182 L257 247 L11 247 Z " />
<glyph glyph-name="registered" unicode="&#xae;" horiz-adv-x="723" d="M439 680 C233 680 41 474 41 254 C41 99 143 -13 285 -13 C490 -13 682 194 682 415 C682 568 580 680 439 680 L439 680 Z M429 638 C551 638 639 541 639 405 C639 211 472 29 294 29 C171 29 83 126 83 263 C83 345 114 429 170 500 C241 589 333 638 429 638 L429 638 Z M165 150 L330 150 L336 177 L326 177 C306 177 300 182 300 199 C300 207 302 221 304 233 L322 317 L324 317 C350 320 365 303 378 258 C396 192 404 167 416 150 L511 150 L517 177 L512 177 C492 176 472 202 455 251 C441 292 432 312 416 332 C472 347 508 392 508 445 C508 502 470 522 357 522 L329 522 L311 521 L245 520 L239 493 L246 493 C268 493 273 489 273 472 C273 464 271 450 269 438 L225 233 C214 186 207 178 179 177 L171 177 L165 150 Z M328 346 L359 491 L374 491 C412 491 424 480 424 447 C424 418 415 390 400 370 C388 353 369 346 338 346 L335 346 L328 346 Z " />
<glyph glyph-name="macron" unicode="&#xaf;" horiz-adv-x="350" d="M78 541 L362 541 L372 590 L88 590 L78 541 Z " />
<glyph glyph-name="degree" unicode="&#xb0;" horiz-adv-x="400" d="M204 686 C118 686 50 619 50 534 C50 449 116 381 200 381 C284 381 350 448 350 534 C350 619 286 686 204 686 L204 686 Z M202 629 C252 629 293 586 293 534 C293 480 252 438 200 438 C148 438 106 481 106 533 C106 587 148 629 202 629 L202 629 Z " />
<glyph glyph-name="plusminus" unicode="&#xb1;" horiz-adv-x="450" d="M22 396 L6 323 L184 323 L142 123 L218 123 L261 323 L440 323 L455 396 L276 396 L319 596 L242 596 L200 396 L22 396 Z M-46 75 L-62 2 L371 2 L387 75 L-46 75 Z " />
<glyph glyph-name="twosuperior" unicode="&#xb2;" horiz-adv-x="313" d="M20 266 L202 266 C218 266 218 266 218 261 C218 257 217 252 215 249 C213 246 212 244 212 244 L211 240 L244 240 L277 324 L116 324 C129 336 139 344 146 350 C224 416 279 472 307 513 C319 530 328 561 328 584 C328 636 288 669 227 669 C148 669 83 615 83 550 C83 530 90 512 98 512 C103 512 135 523 140 527 C147 531 152 538 152 542 L151 545 C147 549 146 553 146 563 C146 597 175 634 201 634 C220 634 233 615 233 588 C233 508 159 403 26 295 L20 266 Z " />
<glyph glyph-name="threesuperior" unicode="&#xb3;" horiz-adv-x="313" d="M227 499 C297 538 324 569 324 608 C324 644 287 670 234 670 C158 670 90 620 90 564 C90 546 97 533 106 533 C112 533 143 544 153 550 C158 553 160 556 160 559 C160 560 160 562 159 564 C156 572 156 575 156 580 C156 609 180 635 205 635 C221 635 231 622 231 602 C231 559 204 520 152 489 C132 477 121 465 121 455 C121 448 128 440 133 440 C138 440 144 444 154 453 C165 462 172 466 180 466 C193 466 200 456 200 437 C200 405 188 354 175 331 C161 306 138 291 114 291 C98 291 91 300 88 320 C86 345 78 355 63 355 C41 355 22 335 22 312 C22 281 59 258 107 258 C208 258 294 335 294 425 C294 469 273 492 227 499 L227 499 Z " />
<glyph glyph-name="acute" unicode="&#xb4;" horiz-adv-x="473" d="M202 488 L236 488 L467 642 L468 649 L316 649 L202 488 Z " />
<glyph glyph-name="mu" unicode="&#xb5;" horiz-adv-x="576" d="M442 500 L353 500 L354 131 C318 80 284 58 242 58 C184 58 150 99 150 169 L150 500 L62 500 L62 20 C62 -1 58 -26 51 -56 C34 -118 33 -123 33 -147 C33 -190 54 -219 83 -219 C112 -219 132 -189 132 -146 C132 -124 129 -111 113 -53 C103 -17 101 -8 101 21 L101 33 C143 -2 166 -13 200 -13 C250 -13 301 18 354 80 C362 48 367 36 377 21 C392 0 419 -13 449 -13 C510 -13 553 31 567 108 L540 109 C536 71 515 41 492 41 C462 41 442 77 442 131 L442 500 Z " />
<glyph glyph-name="paragraph" unicode="&#xb6;" horiz-adv-x="563" d="M579 667 L333 667 C224 667 220 666 183 647 C119 614 76 541 76 467 C76 386 126 344 219 344 L238 344 L247 344 L174 2 C170 -13 168 -23 168 -24 C163 -48 155 -52 110 -52 L92 -52 L85 -84 L228 -84 L381 633 L439 633 L286 -84 L410 -84 L417 -52 L402 -52 L390 -52 L384 -51 C374 -51 370 -48 370 -42 C370 -37 373 -19 376 -2 L497 563 C512 633 514 635 559 635 L572 635 L579 667 Z M308 635 L254 380 L228 380 C205 380 187 411 187 452 C187 479 194 516 206 548 C228 611 251 635 288 635 L308 635 Z " />
<glyph glyph-name="periodcentered" unicode="&#xb7;" horiz-adv-x="258" d="M141 410 C96 410 53 364 53 315 C53 281 76 256 107 256 C152 256 195 302 195 351 C195 385 172 410 141 410 L141 410 Z " />
<glyph glyph-name="cedilla" unicode="&#xb8;" horiz-adv-x="450" d="M132 0 C109 -67 103 -85 96 -100 C113 -102 121 -112 121 -130 C121 -159 102 -179 77 -179 C62 -179 51 -176 34 -169 C28 -187 27 -189 21 -205 C38 -214 54 -217 74 -217 C143 -217 195 -170 195 -108 C195 -73 178 -54 144 -49 C152 -26 154 -22 161 0 L132 0 Z " />
<glyph glyph-name="onesuperior" unicode="&#xb9;" horiz-adv-x="313" d="M127 609 L151 609 L162 609 C171 609 176 605 176 599 C176 593 173 576 169 558 L124 343 C114 303 113 300 91 300 L79 300 L72 267 L233 267 L240 300 L227 300 C214 300 209 303 209 310 C209 315 211 331 214 344 L284 670 L251 670 C223 652 183 641 134 640 L127 609 Z " />
<glyph glyph-name="ordmasculine" unicode="&#xba;" horiz-adv-x="304" d="M196 536 C108 536 34 455 34 358 C34 297 74 257 135 257 C223 257 297 338 297 434 C297 495 256 536 196 536 L196 536 Z M189 503 C206 502 215 487 215 462 C215 445 212 427 206 395 C190 323 170 290 143 290 C127 290 117 304 117 328 C117 367 132 436 149 471 C158 489 176 504 189 503 L189 503 Z " />
<glyph glyph-name="guillemotright" unicode="&#xbb;" horiz-adv-x="481" d="M433 216 L305 423 L263 423 L300 216 L175 8 L216 8 L433 216 Z M211 216 L83 423 L42 423 L78 216 L-47 8 L-6 8 L211 216 Z " />
<glyph glyph-name="onequarter" unicode="&#xbc;" horiz-adv-x="779" d="M127 609 L146 609 L160 609 C171 609 176 605 176 598 C176 592 173 574 170 558 L124 343 C115 305 111 300 88 300 L74 300 L67 267 L239 267 L246 300 L231 300 C216 300 211 303 211 313 C211 321 213 334 215 344 L284 670 L251 670 C223 652 183 641 134 640 L127 609 Z M218 0 L664 660 L613 660 L168 0 L218 0 Z M569 133 L558 80 C548 38 543 33 520 33 L505 33 L498 0 L672 0 L679 33 L665 33 C650 33 645 37 645 48 C645 56 647 70 649 81 L660 133 L712 133 L732 195 L711 195 L709 191 C701 175 697 173 680 172 L668 172 L717 402 L668 402 L453 172 L444 133 L569 133 Z M577 172 L493 172 L604 297 L577 172 Z " />
<glyph glyph-name="onehalf" unicode="&#xbd;" horiz-adv-x="779" d="M127 609 L146 609 L160 609 C171 609 176 605 176 598 C176 592 173 574 170 558 L124 343 C115 305 111 300 88 300 L74 300 L67 267 L239 267 L246 300 L231 300 C216 300 211 303 211 313 C211 321 213 334 215 344 L284 670 L251 670 C223 652 183 641 134 640 L127 609 Z M201 0 L646 660 L595 660 L150 0 L201 0 Z M430 0 L611 0 C628 0 628 0 628 -5 C628 -9 627 -14 625 -17 C623 -20 622 -22 622 -22 L621 -26 L653 -26 L687 58 L525 58 C538 70 549 78 555 84 C633 150 688 205 717 247 C729 264 738 293 738 317 C738 369 699 402 637 402 C557 402 492 348 492 283 C492 263 499 245 507 245 C512 245 545 256 550 260 C557 264 562 271 562 275 L561 278 C556 282 555 287 555 296 C555 330 584 367 610 367 C628 367 643 348 643 324 C643 241 571 139 436 29 L430 0 Z " />
<glyph glyph-name="threequarters" unicode="&#xbe;" horiz-adv-x="779" d="M227 499 C297 538 324 569 324 608 C324 644 287 670 234 670 C158 670 90 620 90 564 C90 546 97 533 106 533 C112 533 143 544 153 550 C158 553 160 556 160 559 C160 560 160 562 159 564 C156 572 156 575 156 580 C156 609 180 635 205 635 C221 635 231 622 231 602 C231 559 204 520 152 489 C132 477 121 465 121 455 C121 448 128 440 133 440 C138 440 144 444 154 453 C165 462 172 466 180 466 C193 466 200 456 200 437 C200 405 188 354 175 331 C161 306 138 291 114 291 C98 291 91 300 88 320 C86 345 78 355 63 355 C41 355 22 335 22 312 C22 281 59 258 107 258 C208 258 294 335 294 425 C294 469 273 492 227 499 L227 499 Z M211 0 L660 660 L608 660 L160 0 L211 0 Z M568 133 L556 80 C546 39 542 33 518 33 L502 33 L496 0 L671 0 L678 33 L665 33 C649 33 644 37 644 48 C644 57 646 72 648 81 L659 133 L711 133 L732 195 L710 195 L708 191 C700 175 697 173 679 172 L667 172 L716 402 L666 402 L449 172 L441 133 L568 133 Z M576 172 L490 172 L602 297 L576 172 Z " />
<glyph glyph-name="questiondown" unicode="&#xbf;" horiz-adv-x="409" d="M263 445 C218 445 176 399 176 350 C176 316 198 291 229 291 C274 291 316 337 316 386 C316 421 294 445 263 445 L263 445 Z M239 219 L192 219 L167 102 C150 114 133 119 113 119 C15 119 -70 19 -70 -99 C-70 -191 -15 -245 79 -245 C162 -245 245 -192 245 -139 C245 -122 232 -108 216 -108 C198 -108 183 -120 170 -144 C147 -189 133 -201 105 -201 C74 -201 55 -171 55 -124 C55 -93 63 -49 74 -13 C92 40 112 65 138 65 C150 65 159 57 163 41 L202 41 L239 219 Z " />
<glyph glyph-name="Agrave" unicode="&#xc0;" horiz-adv-x="591" d="M532 0 L542 44 L537 44 C495 50 486 65 470 157 L388 678 L348 678 L55 170 C9 87 -27 50 -67 44 L-74 44 L-83 0 L109 0 L118 44 L111 44 C82 44 63 58 63 81 C63 98 70 113 102 170 L121 202 L320 202 L332 128 C334 111 336 93 336 82 C336 56 315 44 271 44 L265 44 L256 0 L532 0 Z M314 247 L146 247 L277 475 L314 247 Z M432 729 L465 729 L397 877 L218 877 L216 869 L432 729 Z " />
<glyph glyph-name="Aacute" unicode="&#xc1;" horiz-adv-x="591" d="M532 0 L542 44 L537 44 C495 50 486 65 470 157 L388 678 L348 678 L55 170 C9 87 -27 50 -67 44 L-74 44 L-83 0 L109 0 L118 44 L111 44 C82 44 63 58 63 81 C63 98 70 113 102 170 L121 202 L320 202 L332 128 C334 111 336 93 336 82 C336 56 315 44 271 44 L265 44 L256 0 L532 0 Z M314 247 L146 247 L277 475 L314 247 Z M336 729 L369 729 L645 869 L647 877 L467 877 L336 729 Z " />
<glyph glyph-name="Acircumflex" unicode="&#xc2;" horiz-adv-x="591" d="M532 0 L542 44 L537 44 C495 50 486 65 470 157 L388 678 L348 678 L55 170 C9 87 -27 50 -67 44 L-74 44 L-83 0 L109 0 L118 44 L111 44 C82 44 63 58 63 81 C63 98 70 113 102 170 L121 202 L320 202 L332 128 C334 111 336 93 336 82 C336 56 315 44 271 44 L265 44 L256 0 L532 0 Z M314 247 L146 247 L277 475 L314 247 Z M333 879 L193 729 L225 729 L390 817 L536 729 L567 729 L489 879 L333 879 Z " />
<glyph glyph-name="Atilde" unicode="&#xc3;" horiz-adv-x="591" d="M532 0 L542 44 L537 44 C495 50 486 65 470 157 L388 678 L348 678 L55 170 C9 87 -27 50 -67 44 L-74 44 L-83 0 L109 0 L118 44 L111 44 C82 44 63 58 63 81 C63 98 70 113 102 170 L121 202 L320 202 L332 128 C334 111 336 93 336 82 C336 56 315 44 271 44 L265 44 L256 0 L532 0 Z M314 247 L146 247 L277 475 L314 247 Z M238 726 C243 755 268 779 292 779 C306 779 322 773 348 758 C389 736 422 725 451 725 C512 725 562 780 575 861 L544 861 C532 827 513 806 493 806 C478 806 454 814 429 829 C391 850 359 861 333 861 C270 861 220 807 207 726 L238 726 Z " />
<glyph glyph-name="Adieresis" unicode="&#xc4;" horiz-adv-x="591" d="M532 0 L542 44 L537 44 C495 50 486 65 470 157 L388 678 L348 678 L55 170 C9 87 -27 50 -67 44 L-74 44 L-83 0 L109 0 L118 44 L111 44 C82 44 63 58 63 81 C63 98 70 113 102 170 L121 202 L320 202 L332 128 C334 111 336 93 336 82 C336 56 315 44 271 44 L265 44 L256 0 L532 0 Z M314 247 L146 247 L277 475 L314 247 Z M290 862 C246 862 205 823 205 780 C205 749 228 726 259 726 C303 726 344 766 344 808 C344 839 321 862 290 862 L290 862 Z M532 862 C487 862 447 823 447 779 C447 749 470 726 501 726 C545 726 586 766 586 808 C586 839 563 862 532 862 L532 862 Z " />
<glyph glyph-name="Aring" unicode="&#xc5;" horiz-adv-x="591" d="M55 170 C9 87 -27 50 -67 44 L-74 44 L-83 0 L109 0 L118 44 L111 44 C82 44 63 58 63 81 C63 98 70 113 102 170 L121 202 L320 202 L332 128 C334 111 336 93 336 82 C336 56 315 44 271 44 L265 44 L256 0 L532 0 L542 44 L537 44 C495 50 486 65 470 157 L393 647 C449 665 490 716 490 770 C490 818 454 854 405 854 C336 854 272 792 272 725 C272 687 293 657 329 645 L55 170 Z M314 247 L146 247 L277 475 L314 247 Z M396 815 C427 815 450 792 450 762 C450 720 409 680 365 680 C335 680 312 702 312 733 C312 776 352 815 396 815 L396 815 Z " />
<glyph glyph-name="AE" unicode="&#xc6;" horiz-adv-x="834" d="M353 322 L316 148 C299 65 281 44 228 44 L217 44 L208 0 L734 0 L785 213 L745 213 C692 89 640 44 553 47 L532 47 C477 47 457 59 457 94 C457 108 460 126 466 158 L501 322 L563 322 C600 322 611 313 611 285 C611 271 610 258 606 232 L644 232 L692 457 L654 457 L652 451 C632 380 618 366 567 368 L511 368 L565 621 L677 621 C741 624 761 597 767 497 L807 497 L832 667 L287 667 L278 625 L298 625 C336 625 349 620 349 605 C349 596 336 570 312 535 L71 175 C12 89 -39 46 -80 44 L-89 0 L110 0 L119 44 L114 44 C86 44 68 57 68 78 C68 89 78 109 98 140 L216 322 L353 322 Z M363 368 L249 368 L419 633 L363 368 Z " />
<glyph glyph-name="Ccedilla" unicode="&#xc7;" horiz-adv-x="662" d="M537 10 L589 254 L550 254 C538 222 523 193 503 161 C454 82 387 40 312 40 C238 40 188 100 188 189 C188 264 213 382 247 468 C287 568 357 628 436 628 C528 628 579 558 579 431 L579 412 L617 412 L664 661 L625 661 L622 654 C617 638 607 618 591 593 C552 650 494 679 415 679 C309 679 210 627 135 532 C66 446 28 341 28 238 C28 92 112 -4 248 -12 C233 -58 223 -83 210 -111 C233 -113 245 -125 245 -147 C245 -178 222 -199 187 -199 C168 -199 153 -196 130 -188 C123 -208 122 -210 115 -228 C137 -238 159 -242 186 -242 C276 -242 343 -192 343 -124 C343 -83 319 -59 272 -54 C276 -44 280 -33 284 -22 C285 -18 286 -17 287 -12 C361 -7 433 25 486 76 C494 59 498 39 498 10 L537 10 Z " />
<glyph glyph-name="Egrave" unicode="&#xc8;" horiz-adv-x="590" d="M499 215 C444 90 390 44 300 47 L276 47 C238 47 221 52 212 68 C208 77 205 87 205 97 C205 111 207 121 216 164 L250 327 L308 327 C350 327 366 316 366 287 C366 276 364 259 361 243 L359 235 L397 235 L446 462 L407 462 L406 455 C390 390 374 375 316 374 L260 374 L313 621 L410 621 C493 623 515 597 519 497 L558 497 L584 667 L101 667 L92 624 L101 624 C138 624 151 612 151 577 C151 565 148 542 144 522 L65 149 C47 66 27 43 -25 44 L-36 44 L-45 0 L486 0 L539 215 L499 215 Z M459 729 L492 729 L424 877 L245 877 L243 869 L459 729 Z " />
<glyph glyph-name="Eacute" unicode="&#xc9;" horiz-adv-x="590" d="M499 215 C444 90 390 44 300 47 L276 47 C238 47 221 52 212 68 C208 77 205 87 205 97 C205 111 207 121 216 164 L250 327 L308 327 C350 327 366 316 366 287 C366 276 364 259 361 243 L359 235 L397 235 L446 462 L407 462 L406 455 C390 390 374 375 316 374 L260 374 L313 621 L410 621 C493 623 515 597 519 497 L558 497 L584 667 L101 667 L92 624 L101 624 C138 624 151 612 151 577 C151 565 148 542 144 522 L65 149 C47 66 27 43 -25 44 L-36 44 L-45 0 L486 0 L539 215 L499 215 Z M329 729 L362 729 L638 869 L640 877 L460 877 L329 729 Z " />
<glyph glyph-name="Ecircumflex" unicode="&#xca;" horiz-adv-x="590" d="M499 215 C444 90 390 44 300 47 L276 47 C238 47 221 52 212 68 C208 77 205 87 205 97 C205 111 207 121 216 164 L250 327 L308 327 C350 327 366 316 366 287 C366 276 364 259 361 243 L359 235 L397 235 L446 462 L407 462 L406 455 C390 390 374 375 316 374 L260 374 L313 621 L410 621 C493 623 515 597 519 497 L558 497 L584 667 L101 667 L92 624 L101 624 C138 624 151 612 151 577 C151 565 148 542 144 522 L65 149 C47 66 27 43 -25 44 L-36 44 L-45 0 L486 0 L539 215 L499 215 Z M341 879 L201 729 L233 729 L397 817 L543 729 L575 729 L497 879 L341 879 Z " />
<glyph glyph-name="Edieresis" unicode="&#xcb;" horiz-adv-x="590" d="M499 215 C444 90 390 44 300 47 L276 47 C238 47 221 52 212 68 C208 77 205 87 205 97 C205 111 207 121 216 164 L250 327 L308 327 C350 327 366 316 366 287 C366 276 364 259 361 243 L359 235 L397 235 L446 462 L407 462 L406 455 C390 390 374 375 316 374 L260 374 L313 621 L410 621 C493 623 515 597 519 497 L558 497 L584 667 L101 667 L92 624 L101 624 C138 624 151 612 151 577 C151 565 148 542 144 522 L65 149 C47 66 27 43 -25 44 L-36 44 L-45 0 L486 0 L539 215 L499 215 Z M287 862 C243 862 202 823 202 780 C202 749 225 726 256 726 C300 726 341 766 341 808 C341 839 318 862 287 862 L287 862 Z M529 862 C485 862 445 823 445 779 C445 749 468 726 499 726 C542 726 583 765 583 808 C583 839 560 862 529 862 L529 862 Z " />
<glyph glyph-name="Igrave" unicode="&#xcc;" horiz-adv-x="354" d="M87 623 L96 623 C139 623 151 613 151 578 C151 566 148 548 142 521 L63 149 C46 66 27 44 -26 44 L-36 44 L-45 0 L258 0 L267 44 L256 44 C220 44 203 57 203 85 C203 101 206 123 211 149 L290 521 C309 606 325 624 381 623 L390 623 L400 667 L97 667 L87 623 Z M356 729 L389 729 L321 877 L142 877 L140 869 L356 729 Z " />
<glyph glyph-name="Iacute" unicode="&#xcd;" horiz-adv-x="354" d="M87 623 L96 623 C139 623 151 613 151 578 C151 566 148 548 142 521 L63 149 C46 66 27 44 -26 44 L-36 44 L-45 0 L258 0 L267 44 L256 44 C220 44 203 57 203 85 C203 101 206 123 211 149 L290 521 C309 606 325 624 381 623 L390 623 L400 667 L97 667 L87 623 Z M230 729 L263 729 L539 869 L541 877 L362 877 L230 729 Z " />
<glyph glyph-name="Icircumflex" unicode="&#xce;" horiz-adv-x="354" d="M87 623 L96 623 C139 623 151 613 151 578 C151 566 148 548 142 521 L63 149 C46 66 27 44 -26 44 L-36 44 L-45 0 L258 0 L267 44 L256 44 C220 44 203 57 203 85 C203 101 206 123 211 149 L290 521 C309 606 325 624 381 623 L390 623 L400 667 L97 667 L87 623 Z M219 879 L79 729 L111 729 L276 817 L422 729 L453 729 L375 879 L219 879 Z " />
<glyph glyph-name="Idieresis" unicode="&#xcf;" horiz-adv-x="354" d="M87 623 L96 623 C139 623 151 613 151 578 C151 566 148 548 142 521 L63 149 C46 66 27 44 -26 44 L-36 44 L-45 0 L258 0 L267 44 L256 44 C220 44 203 57 203 85 C203 101 206 123 211 149 L290 521 C309 606 325 624 381 623 L390 623 L400 667 L97 667 L87 623 Z M188 862 C144 862 104 823 104 780 C104 749 127 726 158 726 C202 726 242 766 242 808 C242 839 219 862 188 862 L188 862 Z M391 862 C346 862 306 823 306 779 C306 749 329 726 360 726 C404 726 445 766 445 808 C445 839 422 862 391 862 L391 862 Z " />
<glyph glyph-name="Eth" unicode="&#xd0;" horiz-adv-x="711" d="M99 306 L65 149 C48 65 30 44 -22 44 L-34 44 L-43 0 L192 0 C374 0 437 14 516 75 C617 152 680 282 680 416 C680 506 646 575 583 616 C524 654 431 672 294 672 C274 672 255 672 223 671 C199 671 196 671 158 669 C134 667 120 666 99 665 L90 622 L100 622 C141 622 153 612 153 576 C153 565 151 550 144 519 L110 358 L28 358 L17 306 L99 306 Z M247 306 L372 306 L383 358 L258 358 L315 626 C328 627 339 627 351 627 C397 627 425 621 449 605 C491 578 517 523 517 461 L517 448 C513 298 457 146 385 87 C359 66 300 47 259 47 C221 47 206 60 206 90 C206 108 209 129 218 171 L247 306 Z " />
<glyph glyph-name="Ntilde" unicode="&#xd1;" horiz-adv-x="700" d="M520 -12 L632 513 C645 585 670 611 734 623 L742 623 L751 667 L522 667 L512 623 L520 623 C559 623 589 598 589 567 C589 551 587 536 583 517 L520 221 L285 667 L92 667 L83 623 L87 623 C133 623 147 609 147 563 C147 543 145 525 141 507 L68 162 C53 78 32 54 -36 44 L-41 44 L-50 0 L172 0 L181 44 L172 44 C137 44 108 70 108 101 C108 110 112 135 118 163 L194 522 L472 -12 L520 -12 Z M298 726 C303 755 327 779 351 779 C365 779 381 773 408 758 C448 736 481 725 510 725 C571 725 621 780 634 861 L603 861 C591 827 572 806 552 806 C537 806 514 814 488 829 C450 850 418 861 392 861 C329 861 279 807 266 726 L298 726 Z " />
<glyph glyph-name="Ograve" unicode="&#xd2;" horiz-adv-x="743" d="M450 679 C322 679 213 626 129 523 C66 445 30 346 30 247 C30 87 133 -13 298 -13 C525 -13 713 182 713 417 C713 577 611 679 450 679 L450 679 Z M436 628 C505 628 547 573 547 483 C547 365 507 205 460 132 C419 70 368 38 311 38 C239 38 195 92 195 180 C195 287 228 425 276 517 C312 585 373 628 436 628 L436 628 Z M519 729 L552 729 L484 877 L305 877 L303 869 L519 729 Z " />
<glyph glyph-name="Oacute" unicode="&#xd3;" horiz-adv-x="743" d="M450 679 C322 679 213 626 129 523 C66 445 30 346 30 247 C30 87 133 -13 298 -13 C525 -13 713 182 713 417 C713 577 611 679 450 679 L450 679 Z M436 628 C505 628 547 573 547 483 C547 365 507 205 460 132 C419 70 368 38 311 38 C239 38 195 92 195 180 C195 287 228 425 276 517 C312 585 373 628 436 628 L436 628 Z M400 729 L433 729 L709 869 L710 877 L531 877 L400 729 Z " />
<glyph glyph-name="Ocircumflex" unicode="&#xd4;" horiz-adv-x="743" d="M450 679 C322 679 213 626 129 523 C66 445 30 346 30 247 C30 87 133 -13 298 -13 C525 -13 713 182 713 417 C713 577 611 679 450 679 L450 679 Z M436 628 C505 628 547 573 547 483 C547 365 507 205 460 132 C419 70 368 38 311 38 C239 38 195 92 195 180 C195 287 228 425 276 517 C312 585 373 628 436 628 L436 628 Z M414 879 L274 729 L305 729 L470 817 L616 729 L648 729 L570 879 L414 879 Z " />
<glyph glyph-name="Otilde" unicode="&#xd5;" horiz-adv-x="743" d="M450 679 C322 679 213 626 129 523 C66 445 30 346 30 247 C30 87 133 -13 298 -13 C525 -13 713 182 713 417 C713 577 611 679 450 679 L450 679 Z M436 628 C505 628 547 573 547 483 C547 365 507 205 460 132 C419 70 368 38 311 38 C239 38 195 92 195 180 C195 287 228 425 276 517 C312 585 373 628 436 628 L436 628 Z M317 726 C322 755 346 779 371 779 C385 779 400 773 427 758 C467 736 500 725 530 725 C590 725 641 780 654 861 L623 861 C610 827 591 806 571 806 C556 806 533 814 507 829 C470 850 437 861 411 861 C348 861 298 807 285 726 L317 726 Z " />
<glyph glyph-name="Odieresis" unicode="&#xd6;" horiz-adv-x="743" d="M450 679 C322 679 213 626 129 523 C66 445 30 346 30 247 C30 87 133 -13 298 -13 C525 -13 713 182 713 417 C713 577 611 679 450 679 L450 679 Z M436 628 C505 628 547 573 547 483 C547 365 507 205 460 132 C419 70 368 38 311 38 C239 38 195 92 195 180 C195 287 228 425 276 517 C312 585 373 628 436 628 L436 628 Z M364 862 C320 862 279 822 279 780 C279 749 302 726 333 726 C377 726 418 766 418 808 C418 839 395 862 364 862 L364 862 Z M606 862 C562 862 522 823 522 780 C522 749 545 726 576 726 C619 726 660 765 660 808 C660 839 637 862 606 862 L606 862 Z " />
<glyph glyph-name="multiply" unicode="&#xd7;" horiz-adv-x="450" d="M140 560 L82 508 L185 361 L17 211 L54 157 L221 308 L323 159 L380 210 L277 359 L445 508 L408 562 L241 412 L140 560 Z " />
<glyph glyph-name="Oslash" unicode="&#xd8;" horiz-adv-x="746" d="M718 650 L695 679 L633 618 C583 659 522 679 446 679 C222 679 32 482 32 249 C32 176 50 119 89 72 L32 15 L57 -13 L115 46 C161 8 227 -13 301 -13 C526 -13 714 182 714 415 C714 487 696 545 659 591 L718 650 Z M548 480 C548 371 517 236 469 146 C435 81 373 38 313 38 C255 38 218 70 202 133 L548 480 Z M197 180 C198 252 212 337 235 412 C280 556 347 628 437 628 C494 628 528 597 545 529 L197 180 Z " />
<glyph glyph-name="Ugrave" unicode="&#xd9;" horiz-adv-x="698" d="M523 667 L514 623 L519 623 C566 622 590 600 590 556 C590 545 588 530 584 511 L536 286 C518 199 510 174 493 147 C452 82 386 43 318 43 C252 43 202 89 202 149 L202 157 C203 188 206 206 220 275 L272 521 C290 604 309 625 366 623 L376 623 L385 667 L87 667 L78 623 L86 623 C130 623 144 612 144 575 C144 563 141 542 137 521 L80 254 C71 211 68 191 68 164 C68 53 146 -14 273 -14 C341 -14 407 7 460 46 C518 89 560 163 580 260 L636 519 C648 584 675 611 736 623 L743 623 L752 667 L523 667 Z M517 729 L550 729 L482 877 L302 877 L301 869 L517 729 Z " />
<glyph glyph-name="Uacute" unicode="&#xda;" horiz-adv-x="698" d="M523 667 L514 623 L519 623 C566 622 590 600 590 556 C590 545 588 530 584 511 L536 286 C518 199 510 174 493 147 C452 82 386 43 318 43 C252 43 202 89 202 149 L202 157 C203 188 206 206 220 275 L272 521 C290 604 309 625 366 623 L376 623 L385 667 L87 667 L78 623 L86 623 C130 623 144 612 144 575 C144 563 141 542 137 521 L80 254 C71 211 68 191 68 164 C68 53 146 -14 273 -14 C341 -14 407 7 460 46 C518 89 560 163 580 260 L636 519 C648 584 675 611 736 623 L743 623 L752 667 L523 667 Z M389 729 L422 729 L698 869 L700 877 L520 877 L389 729 Z " />
<glyph glyph-name="Ucircumflex" unicode="&#xdb;" horiz-adv-x="698" d="M523 667 L514 623 L519 623 C566 622 590 600 590 556 C590 545 588 530 584 511 L536 286 C518 199 510 174 493 147 C452 82 386 43 318 43 C252 43 202 89 202 149 L202 157 C203 188 206 206 220 275 L272 521 C290 604 309 625 366 623 L376 623 L385 667 L87 667 L78 623 L86 623 C130 623 144 612 144 575 C144 563 141 542 137 521 L80 254 C71 211 68 191 68 164 C68 53 146 -14 273 -14 C341 -14 407 7 460 46 C518 89 560 163 580 260 L636 519 C648 584 675 611 736 623 L743 623 L752 667 L523 667 Z M399 879 L259 729 L291 729 L455 817 L601 729 L633 729 L555 879 L399 879 Z " />
<glyph glyph-name="Udieresis" unicode="&#xdc;" horiz-adv-x="698" d="M523 667 L514 623 L519 623 C566 622 590 600 590 556 C590 545 588 530 584 511 L536 286 C518 199 510 174 493 147 C452 82 386 43 318 43 C252 43 202 89 202 149 L202 157 C203 188 206 206 220 275 L272 521 C290 604 309 625 366 623 L376 623 L385 667 L87 667 L78 623 L86 623 C130 623 144 612 144 575 C144 563 141 542 137 521 L80 254 C71 211 68 191 68 164 C68 53 146 -14 273 -14 C341 -14 407 7 460 46 C518 89 560 163 580 260 L636 519 C648 584 675 611 736 623 L743 623 L752 667 L523 667 Z M355 862 C311 862 271 823 271 780 C271 749 294 726 325 726 C369 726 409 766 409 808 C409 839 386 862 355 862 L355 862 Z M598 862 C553 862 513 823 513 779 C513 749 536 726 567 726 C611 726 652 766 652 808 C652 839 629 862 598 862 L598 862 Z " />
<glyph glyph-name="Yacute" unicode="&#xdd;" horiz-adv-x="596" d="M59 667 L50 623 L55 623 C98 618 107 606 132 526 L209 267 L184 149 C167 66 148 44 95 44 L86 44 L77 0 L376 0 L386 44 L377 44 C342 44 325 57 325 85 C325 102 328 123 333 149 L360 277 L520 497 C589 589 622 618 664 623 L668 623 L678 667 L475 667 L466 623 L470 623 C503 623 519 611 519 587 C519 569 510 550 485 515 L353 332 L277 541 C270 558 266 576 266 584 C266 609 287 623 326 623 L331 623 L341 667 L59 667 Z M349 729 L382 729 L658 869 L659 877 L480 877 L349 729 Z " />
<glyph glyph-name="Thorn" unicode="&#xde;" horiz-adv-x="580" d="M407 667 L96 667 L87 623 L99 623 C142 623 154 613 154 578 C154 565 151 544 146 521 L67 149 C49 66 31 44 -22 44 L-34 44 L-43 0 L265 0 L275 44 L260 44 C221 44 205 56 205 86 C205 97 209 121 215 148 L281 148 C369 148 427 163 471 197 C526 239 560 308 560 377 C560 438 531 480 473 502 C440 515 410 518 294 519 C311 604 325 621 383 623 L398 623 L407 667 Z M225 196 L284 471 C293 472 299 472 306 472 C376 472 401 449 401 385 C401 331 383 275 354 236 C333 209 301 196 256 196 L225 196 Z " />
<glyph glyph-name="germandbls" unicode="&#xdf;" horiz-adv-x="530" d="M22 125 C8 56 -2 44 -43 42 L-48 42 L-57 0 L162 0 L171 42 L168 42 C151 43 143 49 143 63 C143 74 146 99 150 118 L227 479 C241 544 250 574 259 591 C275 619 301 635 331 635 C368 635 384 615 384 568 C384 493 354 421 315 401 C302 394 284 390 271 390 L262 348 L264 348 L273 348 L274 348 C310 348 336 313 336 264 C336 240 330 194 320 148 C318 136 316 127 316 124 C304 64 286 32 265 32 C254 32 248 40 245 58 C242 79 240 84 230 84 C217 84 204 65 204 46 C204 14 232 -8 273 -8 C379 -8 469 101 469 228 C469 301 429 351 354 371 C450 397 513 468 513 552 C513 631 451 678 344 678 C282 678 232 663 191 632 C139 592 110 535 87 427 L22 125 Z " />
<glyph glyph-name="agrave" unicode="&#xe0;" horiz-adv-x="480" d="M394 84 C386 62 373 49 358 49 C349 49 341 58 341 70 C341 78 343 91 347 108 L385 287 C392 322 392 322 392 334 C392 390 345 419 256 419 C188 419 131 404 90 376 C59 354 42 329 42 305 C42 285 56 272 77 272 C105 272 124 288 137 322 C152 361 171 375 208 375 C247 375 266 362 266 335 C266 327 264 311 261 298 L255 267 L216 252 C91 201 38 172 11 139 C-11 113 -22 86 -22 59 C-22 18 9 -10 56 -10 C105 -10 158 9 214 49 C223 11 252 -10 299 -10 C361 -10 408 26 423 84 L394 84 Z M245 223 L218 93 C186 64 161 50 142 50 C124 50 112 66 112 89 C112 134 155 185 217 211 L245 223 Z M364 488 L318 649 L165 649 L163 642 L330 488 L364 488 Z " />
<glyph glyph-name="aacute" unicode="&#xe1;" horiz-adv-x="480" d="M394 84 C386 62 373 49 358 49 C349 49 341 58 341 70 C341 78 343 91 347 108 L385 287 C392 322 392 322 392 334 C392 390 345 419 256 419 C188 419 131 404 90 376 C59 354 42 329 42 305 C42 285 56 272 77 272 C105 272 124 288 137 322 C152 361 171 375 208 375 C247 375 266 362 266 335 C266 327 264 311 261 298 L255 267 L216 252 C91 201 38 172 11 139 C-11 113 -22 86 -22 59 C-22 18 9 -10 56 -10 C105 -10 158 9 214 49 C223 11 252 -10 299 -10 C361 -10 408 26 423 84 L394 84 Z M245 223 L218 93 C186 64 161 50 142 50 C124 50 112 66 112 89 C112 134 155 185 217 211 L245 223 Z M241 488 L275 488 L506 642 L507 649 L355 649 L241 488 Z " />
<glyph glyph-name="acircumflex" unicode="&#xe2;" horiz-adv-x="480" d="M394 84 C386 62 373 49 358 49 C349 49 341 58 341 70 C341 78 343 91 347 108 L385 287 C392 322 392 322 392 334 C392 390 345 419 256 419 C188 419 131 404 90 376 C59 354 42 329 42 305 C42 285 56 272 77 272 C105 272 124 288 137 322 C152 361 171 375 208 375 C247 375 266 362 266 335 C266 327 264 311 261 298 L255 267 L216 252 C91 201 38 172 11 139 C-11 113 -22 86 -22 59 C-22 18 9 -10 56 -10 C105 -10 158 9 214 49 C223 11 252 -10 299 -10 C361 -10 408 26 423 84 L394 84 Z M245 223 L218 93 C186 64 161 50 142 50 C124 50 112 66 112 89 C112 134 155 185 217 211 L245 223 Z M384 489 L420 489 L368 652 L263 652 L140 489 L173 489 L296 578 L384 489 Z " />
<glyph glyph-name="atilde" unicode="&#xe3;" horiz-adv-x="480" d="M394 84 C386 62 373 49 358 49 C349 49 341 58 341 70 C341 78 343 91 347 108 L385 287 C392 322 392 322 392 334 C392 390 345 419 256 419 C188 419 131 404 90 376 C59 354 42 329 42 305 C42 285 56 272 77 272 C105 272 124 288 137 322 C152 361 171 375 208 375 C247 375 266 362 266 335 C266 327 264 311 261 298 L255 267 L216 252 C91 201 38 172 11 139 C-11 113 -22 86 -22 59 C-22 18 9 -10 56 -10 C105 -10 158 9 214 49 C223 11 252 -10 299 -10 C361 -10 408 26 423 84 L394 84 Z M245 223 L218 93 C186 64 161 50 142 50 C124 50 112 66 112 89 C112 134 155 185 217 211 L245 223 Z M156 503 C169 536 185 550 210 550 C226 550 240 545 271 526 C301 509 319 503 340 503 C401 503 447 553 463 635 L433 635 C423 601 403 582 376 582 C363 582 352 586 331 598 C292 621 272 629 247 629 C188 629 145 584 126 503 L156 503 Z " />
<glyph glyph-name="adieresis" unicode="&#xe4;" horiz-adv-x="480" d="M394 84 C386 62 373 49 358 49 C349 49 341 58 341 70 C341 78 343 91 347 108 L385 287 C392 322 392 322 392 334 C392 390 345 419 256 419 C188 419 131 404 90 376 C59 354 42 329 42 305 C42 285 56 272 77 272 C105 272 124 288 137 322 C152 361 171 375 208 375 C247 375 266 362 266 335 C266 327 264 311 261 298 L255 267 L216 252 C91 201 38 172 11 139 C-11 113 -22 86 -22 59 C-22 18 9 -10 56 -10 C105 -10 158 9 214 49 C223 11 252 -10 299 -10 C361 -10 408 26 423 84 L394 84 Z M245 223 L218 93 C186 64 161 50 142 50 C124 50 112 66 112 89 C112 134 155 185 217 211 L245 223 Z M213 632 C175 632 139 598 139 560 C139 533 159 513 187 513 C225 513 261 548 261 585 C261 612 241 632 213 632 L213 632 Z M403 632 C365 632 329 598 329 560 C329 533 349 513 377 513 C415 513 451 548 451 585 C451 612 431 632 403 632 L403 632 Z " />
<glyph glyph-name="aring" unicode="&#xe5;" horiz-adv-x="480" d="M394 84 C386 62 373 49 358 49 C349 49 341 58 341 70 C341 78 343 91 347 108 L385 287 C392 322 392 322 392 334 C392 390 345 419 256 419 C188 419 131 404 90 376 C59 354 42 329 42 305 C42 285 56 272 77 272 C105 272 124 288 137 322 C152 361 171 375 208 375 C247 375 266 362 266 335 C266 327 264 311 261 298 L255 267 L216 252 C91 201 38 172 11 139 C-11 113 -22 86 -22 59 C-22 18 9 -10 56 -10 C105 -10 158 9 214 49 C223 11 252 -10 299 -10 C361 -10 408 26 423 84 L394 84 Z M245 223 L218 93 C186 64 161 50 142 50 C124 50 112 66 112 89 C112 134 155 185 217 211 L245 223 Z M326 682 C257 682 193 620 193 553 C193 505 229 469 278 469 C347 469 411 531 411 598 C411 646 375 682 326 682 L326 682 Z M317 643 C348 643 371 620 371 590 C371 548 330 508 286 508 C256 508 233 530 233 561 C233 604 273 643 317 643 L317 643 Z " />
<glyph glyph-name="ae" unicode="&#xe6;" horiz-adv-x="646" d="M521 99 C489 61 448 39 408 39 C363 39 340 71 340 131 C340 155 343 184 349 210 L352 226 L592 226 C595 245 596 256 596 270 C596 362 543 419 459 419 C421 419 387 408 354 386 C352 388 346 391 336 396 C304 413 280 419 235 419 C131 419 37 367 37 308 C37 288 52 275 75 275 C102 275 124 294 136 326 C145 350 146 350 153 357 C164 369 184 376 204 376 C236 376 254 359 254 330 C254 321 252 308 249 291 L243 266 C138 227 76 198 40 169 C1 138 -22 99 -22 63 C-22 21 13 -11 60 -11 C109 -11 167 16 227 67 C254 16 302 -11 367 -11 C440 -11 508 22 549 79 L521 99 Z M361 266 C377 336 409 376 449 376 C475 376 494 352 494 319 C494 307 492 291 488 266 L361 266 Z M207 96 C186 70 159 53 140 53 C122 53 109 69 109 93 C109 145 147 184 234 222 L207 96 Z " />
<glyph glyph-name="ccedilla" unicode="&#xe7;" horiz-adv-x="426" d="M178 -15 C258 -8 320 33 355 101 L322 116 C294 63 255 36 207 36 C160 36 135 66 135 123 C135 183 152 262 174 306 C197 352 229 376 267 376 C292 376 302 366 302 342 L302 340 L301 322 C301 292 315 274 338 274 C367 274 394 307 394 342 C394 387 347 419 279 419 C125 419 -4 293 -4 142 C-4 50 54 -10 149 -15 C130 -71 125 -85 118 -100 C135 -102 143 -112 143 -130 C143 -159 125 -179 99 -179 C84 -179 73 -176 56 -169 C50 -186 49 -189 43 -205 C60 -213 76 -217 96 -217 C165 -217 217 -170 217 -108 C217 -73 200 -54 167 -49 L178 -15 Z " />
<glyph glyph-name="egrave" unicode="&#xe8;" horiz-adv-x="440" d="M386 227 C390 248 392 262 392 280 C392 363 336 419 253 419 C115 419 -1 295 -1 147 C-1 49 63 -16 160 -16 C231 -16 305 22 348 81 L317 100 C282 56 243 34 202 34 C153 34 126 67 126 129 C126 162 130 189 141 227 L386 227 Z M150 266 C172 345 197 376 239 376 C268 376 285 355 285 318 C285 299 282 278 278 266 L150 266 Z M353 488 L307 649 L154 649 L152 642 L319 488 L353 488 Z " />
<glyph glyph-name="eacute" unicode="&#xe9;" horiz-adv-x="440" d="M386 227 C390 248 392 262 392 280 C392 363 336 419 253 419 C115 419 -1 295 -1 147 C-1 49 63 -16 160 -16 C231 -16 305 22 348 81 L317 100 C282 56 243 34 202 34 C153 34 126 67 126 129 C126 162 130 189 141 227 L386 227 Z M150 266 C172 345 197 376 239 376 C268 376 285 355 285 318 C285 299 282 278 278 266 L150 266 Z M228 488 L261 488 L492 642 L494 649 L342 649 L228 488 Z " />
<glyph glyph-name="ecircumflex" unicode="&#xea;" horiz-adv-x="440" d="M386 227 C390 248 392 262 392 280 C392 363 336 419 253 419 C115 419 -1 295 -1 147 C-1 49 63 -16 160 -16 C231 -16 305 22 348 81 L317 100 C282 56 243 34 202 34 C153 34 126 67 126 129 C126 162 130 189 141 227 L386 227 Z M150 266 C172 345 197 376 239 376 C268 376 285 355 285 318 C285 299 282 278 278 266 L150 266 Z M377 489 L413 489 L361 652 L257 652 L133 489 L166 489 L289 578 L377 489 Z " />
<glyph glyph-name="edieresis" unicode="&#xeb;" horiz-adv-x="440" d="M386 227 C390 248 392 262 392 280 C392 363 336 419 253 419 C115 419 -1 295 -1 147 C-1 49 63 -16 160 -16 C231 -16 305 22 348 81 L317 100 C282 56 243 34 202 34 C153 34 126 67 126 129 C126 162 130 189 141 227 L386 227 Z M150 266 C172 345 197 376 239 376 C268 376 285 355 285 318 C285 299 282 278 278 266 L150 266 Z M211 632 C173 632 137 598 137 560 C137 533 157 513 185 513 C223 513 259 548 259 585 C259 612 239 632 211 632 L211 632 Z M401 632 C362 632 326 598 326 560 C326 533 346 513 374 513 C413 513 449 548 449 585 C449 612 429 632 401 632 L401 632 Z " />
<glyph glyph-name="igrave" unicode="&#xec;" horiz-adv-x="271" d="M17 343 L27 343 C60 343 72 333 72 305 C72 296 70 279 66 263 L37 125 C21 58 8 43 -35 42 L-47 42 L-56 0 L189 0 L198 42 L193 42 C165 42 155 50 155 73 C155 87 157 106 161 125 L224 419 L217 419 C186 411 64 389 26 386 L17 343 Z M261 488 L215 649 L62 649 L61 642 L227 488 L261 488 Z " />
<glyph glyph-name="iacute" unicode="&#xed;" horiz-adv-x="271" d="M17 343 L27 343 C60 343 72 333 72 305 C72 296 70 279 66 263 L37 125 C21 58 8 43 -35 42 L-47 42 L-56 0 L189 0 L198 42 L193 42 C165 42 155 50 155 73 C155 87 157 106 161 125 L224 419 L217 419 C186 411 64 389 26 386 L17 343 Z M130 488 L163 488 L394 642 L396 649 L244 649 L130 488 Z " />
<glyph glyph-name="icircumflex" unicode="&#xee;" horiz-adv-x="271" d="M17 343 L27 343 C60 343 72 333 72 305 C72 296 70 279 66 263 L37 125 C21 58 8 43 -35 42 L-47 42 L-56 0 L189 0 L198 42 L193 42 C165 42 155 50 155 73 C155 87 157 106 161 125 L224 419 L217 419 C186 411 64 389 26 386 L17 343 Z M277 489 L313 489 L261 652 L156 652 L33 489 L66 489 L189 578 L277 489 Z " />
<glyph glyph-name="idieresis" unicode="&#xef;" horiz-adv-x="271" d="M17 343 L27 343 C60 343 72 333 72 305 C72 296 70 279 66 263 L37 125 C21 58 8 43 -35 42 L-47 42 L-56 0 L189 0 L198 42 L193 42 C165 42 155 50 155 73 C155 87 157 106 161 125 L224 419 L217 419 C186 411 64 389 26 386 L17 343 Z M125 632 C87 632 51 598 51 560 C51 533 71 513 99 513 C137 513 173 548 173 585 C173 612 153 632 125 632 L125 632 Z M281 632 C243 632 207 598 207 560 C207 533 227 513 255 513 C293 513 329 548 329 585 C329 612 309 632 281 632 L281 632 Z " />
<glyph glyph-name="eth" unicode="&#xf0;" horiz-adv-x="489" d="M194 616 C226 592 230 588 255 560 L147 504 L155 466 L279 529 C304 493 323 437 326 396 C307 414 292 419 261 419 C120 419 0 295 0 149 C0 48 66 -14 174 -14 C332 -14 447 133 447 336 C447 426 423 499 369 576 L455 620 L444 657 L344 606 C316 635 291 655 254 678 L194 616 Z M255 374 C284 374 302 344 302 297 C302 277 297 242 289 205 C273 130 259 96 231 60 C213 37 200 30 180 30 C147 30 132 52 132 98 C132 177 160 288 192 334 C210 359 233 374 255 374 L255 374 Z " />
<glyph glyph-name="ntilde" unicode="&#xf1;" horiz-adv-x="526" d="M30 380 L21 338 L25 338 C53 338 62 330 62 303 C62 289 60 274 57 259 L29 125 C12 55 3 43 -38 42 L-41 42 L-50 0 L175 0 L184 42 C161 43 150 51 150 69 C150 83 152 101 158 125 L191 283 C229 331 261 353 289 353 C312 353 326 337 326 310 C326 304 325 295 323 288 L289 125 C273 57 267 47 232 43 L227 42 L218 0 L443 0 L452 42 L449 42 C423 42 413 50 413 72 C413 86 415 107 419 125 L448 260 C456 299 458 311 458 328 C458 382 419 419 363 419 C308 419 255 394 206 346 C209 367 211 382 211 395 C211 401 211 404 210 412 L202 412 C169 404 162 402 38 382 L30 380 Z M180 503 C193 536 210 550 235 550 C251 550 265 545 296 526 C326 509 344 503 365 503 C425 503 471 553 488 635 L457 635 C448 601 428 582 400 582 C387 582 376 586 356 598 C317 621 296 629 272 629 C212 629 169 584 151 503 L180 503 Z " />
<glyph glyph-name="ograve" unicode="&#xf2;" horiz-adv-x="490" d="M264 419 C118 419 -1 296 -1 145 C-1 103 9 72 29 46 C58 8 113 -16 170 -16 C313 -16 434 109 434 257 C434 353 365 419 264 419 L264 419 Z M254 375 C283 375 303 349 303 311 C303 264 286 175 268 121 C246 58 217 27 180 27 C148 27 131 52 131 99 C131 169 162 295 190 334 C208 360 231 375 254 375 L254 375 Z M375 488 L329 649 L176 649 L174 642 L341 488 L375 488 Z " />
<glyph glyph-name="oacute" unicode="&#xf3;" horiz-adv-x="490" d="M264 419 C118 419 -1 296 -1 145 C-1 103 9 72 29 46 C58 8 113 -16 170 -16 C313 -16 434 109 434 257 C434 353 365 419 264 419 L264 419 Z M254 375 C283 375 303 349 303 311 C303 264 286 175 268 121 C246 58 217 27 180 27 C148 27 131 52 131 99 C131 169 162 295 190 334 C208 360 231 375 254 375 L254 375 Z M237 488 L271 488 L502 642 L503 649 L351 649 L237 488 Z " />
<glyph glyph-name="ocircumflex" unicode="&#xf4;" horiz-adv-x="490" d="M264 419 C118 419 -1 296 -1 145 C-1 103 9 72 29 46 C58 8 113 -16 170 -16 C313 -16 434 109 434 257 C434 353 365 419 264 419 L264 419 Z M254 375 C283 375 303 349 303 311 C303 264 286 175 268 121 C246 58 217 27 180 27 C148 27 131 52 131 99 C131 169 162 295 190 334 C208 360 231 375 254 375 L254 375 Z M391 489 L426 489 L374 652 L270 652 L146 489 L179 489 L302 578 L391 489 Z " />
<glyph glyph-name="otilde" unicode="&#xf5;" horiz-adv-x="490" d="M264 419 C118 419 -1 296 -1 145 C-1 103 9 72 29 46 C58 8 113 -16 170 -16 C313 -16 434 109 434 257 C434 353 365 419 264 419 L264 419 Z M254 375 C283 375 303 349 303 311 C303 264 286 175 268 121 C246 58 217 27 180 27 C148 27 131 52 131 99 C131 169 162 295 190 334 C208 360 231 375 254 375 L254 375 Z M165 503 C178 536 194 550 219 550 C235 550 249 545 280 526 C310 509 328 503 349 503 C409 503 455 553 472 635 L441 635 C431 600 412 582 384 582 C371 582 360 586 340 598 C301 621 281 629 256 629 C196 629 153 583 135 503 L165 503 Z " />
<glyph glyph-name="odieresis" unicode="&#xf6;" horiz-adv-x="490" d="M264 419 C118 419 -1 296 -1 145 C-1 103 9 72 29 46 C58 8 113 -16 170 -16 C313 -16 434 109 434 257 C434 353 365 419 264 419 L264 419 Z M254 375 C283 375 303 349 303 311 C303 264 286 175 268 121 C246 58 217 27 180 27 C148 27 131 52 131 99 C131 169 162 295 190 334 C208 360 231 375 254 375 L254 375 Z M216 632 C178 632 142 598 142 560 C142 533 162 513 190 513 C228 513 264 548 264 585 C264 612 244 632 216 632 L216 632 Z M406 632 C368 632 332 598 332 560 C332 533 352 513 380 513 C418 513 454 548 454 585 C454 612 434 632 406 632 L406 632 Z " />
<glyph glyph-name="divide" unicode="&#xf7;" horiz-adv-x="450" d="M22 396 L6 323 L439 323 L455 396 L22 396 Z M207 248 C161 248 119 202 119 153 C119 119 141 94 173 94 C218 94 260 140 260 189 C260 223 238 248 207 248 L207 248 Z M286 622 C241 622 198 576 198 528 C198 494 221 469 252 469 C297 469 340 515 340 563 C340 597 317 622 286 622 L286 622 Z " />
<glyph glyph-name="oslash" unicode="&#xf8;" horiz-adv-x="490" d="M373 386 C341 408 305 419 263 419 C121 419 -1 293 -1 146 C-1 103 9 72 31 42 L-18 -7 L5 -35 L58 18 C92 -5 128 -16 169 -16 C314 -16 434 108 434 257 C434 301 423 332 399 362 L448 411 L426 439 L373 386 Z M134 146 C148 233 161 279 183 323 C198 353 228 375 255 375 C282 375 302 351 303 316 L134 146 Z M300 262 C278 105 238 27 180 27 C149 27 134 46 131 92 L300 262 Z " />
<glyph glyph-name="ugrave" unicode="&#xf9;" horiz-adv-x="514" d="M465 403 L289 403 L280 361 L285 361 C308 361 318 354 318 337 C318 326 314 299 310 279 L282 145 C273 103 219 51 184 51 C166 51 151 68 151 87 C151 97 154 119 157 134 L214 403 L27 403 L18 361 L21 361 C51 361 64 349 64 322 C64 311 62 294 59 279 L27 130 C22 109 20 87 20 68 C20 19 60 -16 114 -16 C166 -16 217 11 264 63 C261 49 260 40 259 35 L255 11 L255 7 C253 -9 253 -9 253 -12 L253 -16 L259 -16 C287 -7 375 1 429 0 L438 42 L436 42 C410 42 400 50 400 72 C400 86 402 106 406 125 L465 403 Z M380 488 L334 649 L181 649 L179 642 L346 488 L380 488 Z " />
<glyph glyph-name="uacute" unicode="&#xfa;" horiz-adv-x="514" d="M465 403 L289 403 L280 361 L285 361 C308 361 318 354 318 337 C318 326 314 299 310 279 L282 145 C273 103 219 51 184 51 C166 51 151 68 151 87 C151 97 154 119 157 134 L214 403 L27 403 L18 361 L21 361 C51 361 64 349 64 322 C64 311 62 294 59 279 L27 130 C22 109 20 87 20 68 C20 19 60 -16 114 -16 C166 -16 217 11 264 63 C261 49 260 40 259 35 L255 11 L255 7 C253 -9 253 -9 253 -12 L253 -16 L259 -16 C287 -7 375 1 429 0 L438 42 L436 42 C410 42 400 50 400 72 C400 86 402 106 406 125 L465 403 Z M263 488 L297 488 L528 642 L529 649 L378 649 L263 488 Z " />
<glyph glyph-name="ucircumflex" unicode="&#xfb;" horiz-adv-x="514" d="M465 403 L289 403 L280 361 L285 361 C308 361 318 354 318 337 C318 326 314 299 310 279 L282 145 C273 103 219 51 184 51 C166 51 151 68 151 87 C151 97 154 119 157 134 L214 403 L27 403 L18 361 L21 361 C51 361 64 349 64 322 C64 311 62 294 59 279 L27 130 C22 109 20 87 20 68 C20 19 60 -16 114 -16 C166 -16 217 11 264 63 C261 49 260 40 259 35 L255 11 L255 7 C253 -9 253 -9 253 -12 L253 -16 L259 -16 C287 -7 375 1 429 0 L438 42 L436 42 C410 42 400 50 400 72 C400 86 402 106 406 125 L465 403 Z M409 489 L444 489 L392 652 L288 652 L164 489 L197 489 L320 578 L409 489 Z " />
<glyph glyph-name="udieresis" unicode="&#xfc;" horiz-adv-x="514" d="M465 403 L289 403 L280 361 L285 361 C308 361 318 354 318 337 C318 326 314 299 310 279 L282 145 C273 103 219 51 184 51 C166 51 151 68 151 87 C151 97 154 119 157 134 L214 403 L27 403 L18 361 L21 361 C51 361 64 349 64 322 C64 311 62 294 59 279 L27 130 C22 109 20 87 20 68 C20 19 60 -16 114 -16 C166 -16 217 11 264 63 C261 49 260 40 259 35 L255 11 L255 7 C253 -9 253 -9 253 -12 L253 -16 L259 -16 C287 -7 375 1 429 0 L438 42 L436 42 C410 42 400 50 400 72 C400 86 402 106 406 125 L465 403 Z M236 632 C198 632 162 598 162 560 C162 533 182 513 210 513 C248 513 284 548 284 585 C284 612 264 632 236 632 L236 632 Z M426 632 C387 632 351 598 351 560 C351 533 371 513 399 513 C438 513 474 548 474 585 C474 612 454 632 426 632 L426 632 Z " />
<glyph glyph-name="yacute" unicode="&#xfd;" horiz-adv-x="453" d="M9 403 L1 361 L7 360 C32 357 39 347 53 293 L137 -15 L108 -65 C82 -107 68 -116 7 -135 C-39 -149 -62 -174 -62 -208 C-62 -233 -45 -250 -20 -250 C24 -250 60 -215 123 -112 L344 251 L372 291 C406 346 416 355 448 360 L456 361 L464 403 L317 403 L308 361 L316 361 L319 361 C333 361 347 350 347 340 C347 334 343 324 336 313 L318 285 L218 118 L177 301 C173 316 173 319 173 328 C173 349 183 359 206 360 L212 361 L221 403 L9 403 Z M242 488 L275 488 L507 642 L508 649 L356 649 L242 488 Z " />
<glyph glyph-name="thorn" unicode="&#xfe;" horiz-adv-x="527" d="M64 602 L70 602 C99 602 109 594 109 569 C109 557 107 537 103 520 L-32 -116 C-48 -186 -58 -198 -100 -199 L-106 -199 L-115 -241 L131 -241 L140 -199 L130 -199 C101 -199 91 -190 91 -166 C91 -152 93 -134 97 -116 L130 42 C163 1 196 -16 240 -16 C363 -16 473 117 473 268 C473 359 421 419 344 419 C293 419 242 396 194 350 L264 678 L256 678 C234 672 145 655 115 651 C93 648 79 646 73 644 L64 602 Z M184 295 C218 340 249 361 281 361 C315 361 337 329 337 279 C337 250 330 208 318 164 C297 87 257 42 208 42 C181 42 157 60 141 92 L184 295 Z " />
<glyph glyph-name="ydieresis" unicode="&#xff;" horiz-adv-x="453" d="M9 403 L1 361 L7 360 C32 357 39 347 53 293 L137 -15 L108 -65 C82 -107 68 -116 7 -135 C-39 -149 -62 -174 -62 -208 C-62 -233 -45 -250 -20 -250 C24 -250 60 -215 123 -112 L344 251 C346 254 350 260 357 270 C367 284 378 301 389 317 C409 347 422 357 448 360 L456 361 L464 403 L317 403 L308 361 L316 361 L319 361 C333 361 347 350 347 340 C347 334 343 324 336 313 L318 285 L218 118 L177 301 C173 316 173 319 173 328 C173 349 183 359 206 360 L212 361 L221 403 L9 403 Z M210 632 C172 632 136 597 136 560 C136 533 156 513 184 513 C222 513 258 548 258 585 C258 612 238 632 210 632 L210 632 Z M400 632 C362 632 326 598 326 560 C326 533 346 513 374 513 C412 513 448 548 448 585 C448 612 428 632 400 632 L400 632 Z " />
<glyph glyph-name="Amacron" unicode="&#x100;" horiz-adv-x="591" d="M532 0 L542 44 L537 44 C495 50 486 65 470 157 L388 678 L348 678 L55 170 C9 87 -27 50 -67 44 L-74 44 L-83 0 L109 0 L118 44 L111 44 C82 44 63 58 63 81 C63 98 70 113 102 170 L121 202 L320 202 L332 128 C334 111 336 93 336 82 C336 56 315 44 271 44 L265 44 L256 0 L532 0 Z M314 247 L146 247 L277 475 L314 247 Z M239 810 L228 758 L535 758 L546 810 L239 810 Z " />
<glyph glyph-name="amacron" unicode="&#x101;" horiz-adv-x="480" d="M394 84 C386 62 373 49 358 49 C349 49 341 58 341 70 C341 78 343 91 347 108 L385 287 C392 322 392 322 392 334 C392 390 345 419 256 419 C188 419 131 404 90 376 C59 354 42 329 42 305 C42 285 56 272 77 272 C105 272 124 288 137 322 C152 361 171 375 208 375 C247 375 266 362 266 335 C266 327 264 311 261 298 L255 267 L216 252 C91 201 38 172 11 139 C-11 113 -22 86 -22 59 C-22 18 9 -10 56 -10 C105 -10 158 9 214 49 C223 11 252 -10 299 -10 C361 -10 408 26 423 84 L394 84 Z M245 223 L218 93 C186 64 161 50 142 50 C124 50 112 66 112 89 C112 134 155 185 217 211 L245 223 Z M138 541 L422 541 L432 590 L149 590 L138 541 Z " />
<glyph glyph-name="Abreve" unicode="&#x102;" horiz-adv-x="591" d="M532 0 L542 44 L537 44 C495 50 486 65 470 157 L388 678 L348 678 L55 170 C9 87 -27 50 -67 44 L-74 44 L-83 0 L109 0 L118 44 L111 44 C82 44 63 58 63 81 C63 98 70 113 102 170 L121 202 L320 202 L332 128 C334 111 336 93 336 82 C336 56 315 44 271 44 L265 44 L256 0 L532 0 Z M314 247 L146 247 L277 475 L314 247 Z M225 880 C232 781 291 720 380 720 C468 720 555 783 600 880 L555 880 C520 835 463 810 397 810 C331 810 292 832 271 880 L225 880 Z " />
<glyph glyph-name="abreve" unicode="&#x103;" horiz-adv-x="480" d="M394 84 C386 62 373 49 358 49 C349 49 341 58 341 70 C341 78 343 91 347 108 L385 287 C392 322 392 322 392 334 C392 390 345 419 256 419 C188 419 131 404 90 376 C59 354 42 329 42 305 C42 285 56 272 77 272 C105 272 124 288 137 322 C152 361 171 375 208 375 C247 375 266 362 266 335 C266 327 264 311 261 298 L255 267 L216 252 C91 201 38 172 11 139 C-11 113 -22 86 -22 59 C-22 18 9 -10 56 -10 C105 -10 158 9 214 49 C223 11 252 -10 299 -10 C361 -10 408 26 423 84 L394 84 Z M245 223 L218 93 C186 64 161 50 142 50 C124 50 112 66 112 89 C112 134 155 185 217 211 L245 223 Z M170 648 C167 636 166 627 166 615 C166 541 213 489 279 489 C357 489 431 556 455 648 L427 648 C399 596 356 571 298 571 C237 571 203 597 198 648 L170 648 Z " />
<glyph glyph-name="Aogonek" unicode="&#x104;" horiz-adv-x="591" d="M532 0 L542 44 L537 44 C495 50 486 65 470 157 L388 678 L348 678 L55 170 C9 87 -27 50 -67 44 L-74 44 L-83 0 L109 0 L118 44 L111 44 C82 44 63 58 63 81 C63 98 70 113 102 170 L121 202 L320 202 L332 128 C334 111 336 93 336 82 C336 56 315 44 271 44 L265 44 L256 0 L420 0 C357 -29 312 -85 312 -134 C312 -179 345 -209 396 -209 C430 -209 458 -199 500 -171 L493 -150 C475 -159 465 -162 452 -162 C427 -162 410 -142 410 -112 C410 -75 427 -38 460 0 L532 0 Z M314 247 L146 247 L277 475 L314 247 Z " />
<glyph glyph-name="aogonek" unicode="&#x105;" horiz-adv-x="480" d="M394 84 C386 62 373 50 358 50 C349 50 341 59 341 70 C341 78 343 91 347 108 L385 287 C392 322 392 322 392 334 C392 390 345 419 256 419 C188 419 131 404 90 376 C59 354 42 329 42 305 C42 285 56 272 77 272 C105 272 124 288 137 322 C152 361 171 375 208 375 C247 375 266 362 266 335 C266 327 264 311 261 298 L255 267 L216 252 C91 201 38 172 11 139 C-11 113 -22 86 -22 59 C-22 18 9 -10 56 -10 C105 -10 158 9 214 49 C220 16 246 -5 286 -9 C240 -39 210 -85 210 -125 C210 -166 237 -192 279 -192 C307 -192 332 -182 367 -158 L361 -137 C347 -145 340 -147 330 -147 C310 -147 297 -131 297 -107 C297 -77 310 -40 333 -6 C379 5 412 39 423 84 L394 84 Z M245 223 L218 93 C186 64 161 50 142 50 C124 50 112 66 112 89 C112 134 155 185 217 211 L245 223 Z " />
<glyph glyph-name="Cacute" unicode="&#x106;" horiz-adv-x="662" d="M550 254 C538 222 523 193 503 161 C454 82 387 40 312 40 C238 40 188 100 188 189 C188 264 213 382 247 468 C287 568 357 628 436 628 C528 628 579 558 579 431 L579 412 L617 412 L664 661 L625 661 L622 654 C617 638 607 618 591 593 C552 650 494 679 415 679 C309 679 211 627 135 532 C66 446 28 341 28 238 C28 86 121 -13 265 -13 C346 -13 425 19 486 76 C494 59 498 39 498 10 L537 10 L589 254 L550 254 Z M378 729 L411 729 L686 869 L688 877 L509 877 L378 729 Z " />
<glyph glyph-name="cacute" unicode="&#x107;" horiz-adv-x="426" d="M322 116 C294 63 255 36 207 36 C160 36 135 66 135 123 C135 183 152 262 174 306 C197 352 229 376 267 376 C292 376 302 366 302 342 L302 340 L301 322 C301 292 315 274 338 274 C367 274 394 307 394 342 C394 387 347 419 279 419 C125 419 -4 293 -4 142 C-4 46 61 -16 161 -16 C245 -16 315 26 355 101 L322 116 Z M219 488 L252 488 L483 642 L485 649 L333 649 L219 488 Z " />
<glyph glyph-name="Ccircumflex" unicode="&#x108;" horiz-adv-x="662" d="M550 254 C538 222 523 193 503 161 C454 82 387 40 312 40 C238 40 188 100 188 189 C188 264 213 382 247 468 C287 568 357 628 436 628 C528 628 579 558 579 431 L579 412 L617 412 L664 661 L625 661 L622 654 C617 638 607 618 591 593 C552 650 494 679 415 679 C309 679 211 627 135 532 C66 446 28 341 28 238 C28 86 121 -13 265 -13 C346 -13 425 19 486 76 C494 59 498 39 498 10 L537 10 L589 254 L550 254 Z M396 879 L256 729 L287 729 L452 817 L598 729 L630 729 L552 879 L396 879 Z " />
<glyph glyph-name="Cdotaccent" unicode="&#x10a;" horiz-adv-x="662" d="M550 254 C538 222 523 193 503 161 C454 82 387 40 312 40 C238 40 188 100 188 189 C188 264 213 382 247 468 C287 568 357 628 436 628 C528 628 579 558 579 431 L579 412 L617 412 L664 661 L625 661 L622 654 C617 638 607 618 591 593 C552 650 494 679 415 679 C309 679 211 627 135 532 C66 446 28 341 28 238 C28 86 121 -13 265 -13 C346 -13 425 19 486 76 C494 59 498 39 498 10 L537 10 L589 254 L550 254 Z M461 862 C417 862 376 823 376 780 C376 749 399 726 430 726 C474 726 515 766 515 808 C515 839 492 862 461 862 L461 862 Z " />
<glyph glyph-name="cdotaccent" unicode="&#x10b;" horiz-adv-x="426" d="M322 116 C294 63 255 36 207 36 C160 36 135 66 135 123 C135 183 152 262 174 306 C197 352 229 376 267 376 C292 376 302 366 302 342 L302 340 L301 322 C301 292 315 274 338 274 C367 274 394 307 394 342 C394 387 347 419 279 419 C125 419 -4 293 -4 142 C-4 46 61 -16 161 -16 C245 -16 315 26 355 101 L322 116 Z M316 632 C277 632 241 597 241 560 C241 533 262 513 289 513 C328 513 364 548 364 585 C364 612 344 632 316 632 L316 632 Z " />
<glyph glyph-name="Ccaron" unicode="&#x10c;" horiz-adv-x="662" d="M550 254 C538 222 523 193 503 161 C454 82 387 40 312 40 C238 40 188 100 188 189 C188 264 213 382 247 468 C287 568 357 628 436 628 C528 628 579 558 579 431 L579 412 L617 412 L664 661 L625 661 L622 654 C617 638 607 618 591 593 C552 650 494 679 415 679 C309 679 211 627 135 532 C66 446 28 341 28 238 C28 86 121 -13 265 -13 C346 -13 425 19 486 76 C494 59 498 39 498 10 L537 10 L589 254 L550 254 Z M508 729 L650 879 L619 879 L453 791 L308 879 L276 879 L352 729 L508 729 Z " />
<glyph glyph-name="ccaron" unicode="&#x10d;" horiz-adv-x="426" d="M322 116 C294 63 255 36 207 36 C160 36 135 66 135 123 C135 183 152 262 174 306 C197 352 229 376 267 376 C292 376 302 366 302 342 L302 340 L301 322 C301 292 315 274 338 274 C367 274 394 307 394 342 C394 387 347 419 279 419 C125 419 -4 293 -4 142 C-4 46 61 -16 161 -16 C245 -16 315 26 355 101 L322 116 Z M200 655 L167 655 L223 491 L328 491 L447 655 L412 655 L294 566 L200 655 Z " />
<glyph glyph-name="Dcaron" unicode="&#x10e;" horiz-adv-x="709" d="M88 622 L98 622 C139 622 151 612 151 576 C151 565 149 550 142 519 L63 149 C45 65 28 44 -24 44 L-36 44 L-45 0 L190 0 C372 0 435 15 514 75 C615 152 678 282 678 415 C678 506 645 575 581 616 C522 654 429 672 292 672 C272 672 253 672 221 671 C197 671 194 671 156 669 C133 667 118 666 97 665 L88 622 Z M313 626 C326 627 337 627 349 627 C396 627 423 621 447 605 C492 576 515 524 515 451 C515 312 455 145 383 87 C357 66 298 47 256 47 C217 47 204 59 204 94 C204 110 207 127 216 171 L313 626 Z M483 729 L626 879 L594 879 L429 791 L283 879 L251 879 L327 729 L483 729 Z " />
<glyph glyph-name="dcaron" unicode="&#x10f;" horiz-adv-x="652" d="M455 50 L450 50 C424 50 414 59 414 83 C414 93 416 107 422 133 L537 678 L530 678 C494 670 407 656 354 649 C346 648 346 648 340 647 L331 605 L335 605 C366 605 380 592 380 565 C380 551 378 538 375 522 L342 364 C318 399 276 419 227 419 C103 419 -4 285 -4 129 C-4 109 -1 92 6 74 C27 17 67 -12 126 -12 C177 -12 224 9 278 56 C274 37 272 22 272 9 C272 1 272 -2 273 -12 C319 -2 370 3 446 6 L455 50 Z M288 111 C254 67 223 47 189 47 C157 47 135 77 135 122 C135 175 152 252 173 294 C194 337 225 361 261 361 C286 361 307 348 331 315 L288 111 Z M530 439 C623 446 700 521 700 607 C700 652 676 678 635 678 C593 678 557 645 557 607 C557 583 575 566 598 566 C603 566 609 567 614 568 C627 571 627 571 630 571 C638 571 643 565 643 555 C643 521 594 483 537 474 L530 439 Z " />
<glyph glyph-name="Dcroat" unicode="&#x110;" horiz-adv-x="711" d="M99 306 L65 149 C48 65 30 44 -22 44 L-34 44 L-43 0 L192 0 C374 0 437 14 516 75 C617 152 680 282 680 416 C680 506 646 575 583 616 C524 654 431 672 294 672 C274 672 255 672 223 671 C199 671 196 671 158 669 C134 667 120 666 99 665 L90 622 L100 622 C141 622 153 612 153 576 C153 565 151 550 144 519 L110 358 L28 358 L17 306 L99 306 Z M247 306 L372 306 L383 358 L258 358 L315 626 C328 627 339 627 351 627 C397 627 425 621 449 605 C491 578 517 523 517 461 L517 448 C513 298 457 146 385 87 C359 66 300 47 259 47 C221 47 206 60 206 90 C206 108 209 129 218 171 L247 306 Z " />
<glyph glyph-name="dcroat" unicode="&#x111;" horiz-adv-x="526" d="M369 490 L342 364 C318 399 276 419 227 419 C102 419 -4 285 -4 129 C-4 109 -1 92 6 74 C27 17 67 -12 126 -12 C177 -12 224 9 278 56 C274 37 272 22 272 9 C272 1 272 -2 273 -12 C319 -2 370 3 446 6 L455 50 L450 50 C424 50 414 59 414 83 C414 93 416 107 422 133 L498 490 L549 490 L558 535 L507 535 L537 678 L530 678 C493 670 414 657 340 647 L331 604 L335 604 C366 604 380 592 380 565 C380 557 379 549 378 535 L230 535 L220 490 L369 490 Z M288 111 C258 70 222 47 188 47 C157 47 135 77 135 122 C135 175 152 252 173 295 C194 338 225 362 261 362 C287 362 308 348 331 315 L288 111 Z " />
<glyph glyph-name="Emacron" unicode="&#x112;" horiz-adv-x="590" d="M499 215 C444 90 390 44 300 47 L276 47 C238 47 221 52 212 68 C208 77 205 87 205 97 C205 111 207 121 216 164 L250 327 L308 327 C350 327 366 316 366 287 C366 276 364 259 361 243 L359 235 L397 235 L446 462 L407 462 L406 455 C390 390 374 375 316 374 L260 374 L313 621 L410 621 C493 623 515 597 519 497 L558 497 L584 667 L101 667 L92 624 L101 624 C138 624 151 612 151 577 C151 565 148 542 144 522 L65 149 C47 66 27 43 -25 44 L-36 44 L-45 0 L486 0 L539 215 L499 215 Z M247 810 L236 758 L543 758 L554 810 L247 810 Z " />
<glyph glyph-name="emacron" unicode="&#x113;" horiz-adv-x="440" d="M386 227 C390 248 392 262 392 280 C392 363 336 419 253 419 C115 419 -1 295 -1 147 C-1 49 63 -16 160 -16 C231 -16 305 22 348 81 L317 100 C282 56 243 34 202 34 C153 34 126 67 126 129 C126 162 130 189 141 227 L386 227 Z M150 266 C172 345 197 376 239 376 C268 376 285 355 285 318 C285 299 282 278 278 266 L150 266 Z M129 541 L413 541 L423 590 L140 590 L129 541 Z " />
<glyph glyph-name="Ebreve" unicode="&#x114;" horiz-adv-x="590" d="M499 215 C444 90 390 44 300 47 L276 47 C238 47 221 52 212 68 C208 77 205 87 205 97 C205 111 207 121 216 164 L250 327 L308 327 C350 327 366 316 366 287 C366 276 364 259 361 243 L359 235 L397 235 L446 462 L407 462 L406 455 C390 390 374 375 316 374 L260 374 L313 621 L410 621 C493 623 515 597 519 497 L558 497 L584 667 L101 667 L92 624 L101 624 C138 624 151 612 151 577 C151 565 148 542 144 522 L65 149 C47 66 27 43 -25 44 L-36 44 L-45 0 L486 0 L539 215 L499 215 Z M230 880 C237 781 297 720 386 720 C474 720 561 783 605 880 L561 880 C526 835 469 810 403 810 C337 810 297 832 276 880 L230 880 Z " />
<glyph glyph-name="ebreve" unicode="&#x115;" horiz-adv-x="440" d="M386 227 C390 248 392 262 392 280 C392 363 336 419 253 419 C115 419 -1 295 -1 147 C-1 49 63 -16 160 -16 C231 -16 305 22 348 81 L317 100 C282 56 243 34 202 34 C153 34 126 67 126 129 C126 162 130 189 141 227 L386 227 Z M150 266 C172 345 197 376 239 376 C268 376 285 355 285 318 C285 299 282 278 278 266 L150 266 Z M159 648 C155 635 154 625 154 614 C154 586 162 560 178 535 C199 504 227 489 267 489 C346 489 420 556 444 648 L416 648 C388 596 345 571 287 571 C226 571 191 598 187 648 L159 648 Z " />
<glyph glyph-name="Edotaccent" unicode="&#x116;" horiz-adv-x="590" d="M499 215 C444 90 390 44 300 47 L276 47 C238 47 221 52 212 68 C208 77 205 87 205 97 C205 111 207 121 216 164 L250 327 L308 327 C350 327 366 316 366 287 C366 276 364 259 361 243 L359 235 L397 235 L446 462 L407 462 L406 455 C390 390 374 375 316 374 L260 374 L313 621 L410 621 C493 623 515 597 519 497 L558 497 L584 667 L101 667 L92 624 L101 624 C138 624 151 612 151 577 C151 565 148 542 144 522 L65 149 C47 66 27 43 -25 44 L-36 44 L-45 0 L486 0 L539 215 L499 215 Z M417 862 C373 862 332 823 332 780 C332 749 355 726 386 726 C430 726 471 766 471 808 C471 839 448 862 417 862 L417 862 Z " />
<glyph glyph-name="edotaccent" unicode="&#x117;" horiz-adv-x="440" d="M386 227 C390 248 392 262 392 280 C392 363 336 419 253 419 C115 419 -1 295 -1 147 C-1 49 63 -16 160 -16 C231 -16 305 22 348 81 L317 100 C282 56 243 34 202 34 C153 34 126 67 126 129 C126 162 130 189 141 227 L386 227 Z M150 266 C172 345 197 376 239 376 C268 376 285 355 285 318 C285 299 282 278 278 266 L150 266 Z M302 632 C263 632 227 598 227 560 C227 533 247 513 275 513 C314 513 350 548 350 585 C350 612 330 632 302 632 L302 632 Z " />
<glyph glyph-name="Eogonek" unicode="&#x118;" horiz-adv-x="590" d="M486 0 L539 215 L499 215 C444 90 390 44 300 47 L276 47 C238 47 221 52 212 68 C208 77 205 87 205 97 C205 111 207 121 216 164 L250 327 L308 327 C350 327 366 316 366 287 C366 276 364 259 361 243 L359 235 L397 235 L446 462 L407 462 L406 455 C390 390 374 375 316 374 L260 374 L313 621 L410 621 C493 623 515 597 519 497 L558 497 L584 667 L101 667 L92 624 L101 624 C138 624 151 612 151 577 C151 565 148 542 144 522 L65 149 C47 66 27 43 -25 44 L-36 44 L-45 0 L373 0 C310 -29 265 -85 265 -134 C265 -179 298 -209 349 -209 C384 -209 411 -199 453 -171 L446 -150 C428 -159 418 -162 405 -162 C380 -162 363 -142 363 -112 C363 -76 381 -35 413 0 L486 0 Z " />
<glyph glyph-name="eogonek" unicode="&#x119;" horiz-adv-x="440" d="M317 100 C282 56 242 33 202 33 C153 33 126 67 126 128 C126 161 130 190 141 227 L386 227 C390 248 392 261 392 280 C392 363 336 419 253 419 C115 419 -1 295 -1 147 C-1 48 63 -16 161 -16 C172 -16 179 -15 190 -14 C148 -43 121 -87 121 -125 C121 -166 148 -192 191 -192 C219 -192 243 -183 278 -158 L272 -137 C258 -145 251 -147 241 -147 C221 -147 208 -131 208 -108 C208 -73 223 -34 251 4 C287 20 328 52 348 81 L317 100 Z M150 266 C172 345 197 376 239 376 C268 376 285 355 285 318 C285 298 282 279 278 266 L150 266 Z " />
<glyph glyph-name="Ecaron" unicode="&#x11a;" horiz-adv-x="590" d="M499 215 C444 90 390 44 300 47 L276 47 C238 47 221 52 212 68 C208 77 205 87 205 97 C205 111 207 121 216 164 L250 327 L308 327 C350 327 366 316 366 287 C366 276 364 259 361 243 L359 235 L397 235 L446 462 L407 462 L406 455 C390 390 374 375 316 374 L260 374 L313 621 L410 621 C493 623 515 597 519 497 L558 497 L584 667 L101 667 L92 624 L101 624 C138 624 151 612 151 577 C151 565 148 542 144 522 L65 149 C47 66 27 43 -25 44 L-36 44 L-45 0 L486 0 L539 215 L499 215 Z M460 729 L602 879 L570 879 L405 791 L259 879 L227 879 L303 729 L460 729 Z " />
<glyph glyph-name="ecaron" unicode="&#x11b;" horiz-adv-x="440" d="M386 227 C390 248 392 262 392 280 C392 363 336 419 253 419 C115 419 -1 295 -1 147 C-1 49 63 -16 160 -16 C231 -16 305 22 348 81 L317 100 C282 56 243 34 202 34 C153 34 126 67 126 129 C126 162 130 189 141 227 L386 227 Z M150 266 C172 345 197 376 239 376 C268 376 285 355 285 318 C285 299 282 278 278 266 L150 266 Z M197 655 L164 655 L219 491 L324 491 L444 655 L408 655 L290 566 L197 655 Z " />
<glyph glyph-name="Gcircumflex" unicode="&#x11c;" horiz-adv-x="704" d="M406 300 L396 256 L406 256 C447 254 460 243 460 211 C460 203 459 194 457 186 L452 161 C435 84 379 36 306 36 C232 36 189 86 189 173 C189 266 226 418 269 506 C305 578 374 625 442 625 C529 625 581 558 581 448 L581 436 L623 436 L668 667 L626 667 C618 639 608 618 592 595 C550 653 494 680 420 680 C313 680 213 627 134 527 C66 440 28 339 28 241 C28 88 125 -14 271 -14 C307 -14 352 -8 387 2 C473 27 509 34 545 34 C549 34 553 34 564 32 L588 149 C606 236 613 246 663 255 L670 256 L679 300 L406 300 Z M410 879 L270 729 L302 729 L467 817 L613 729 L645 729 L567 879 L410 879 Z " />
<glyph glyph-name="gcircumflex" unicode="&#x11d;" horiz-adv-x="464" d="M188 -52 C246 -52 272 -67 272 -101 C272 -163 206 -208 113 -208 C48 -208 4 -183 4 -147 C4 -133 11 -106 19 -87 C20 -85 20 -85 20 -83 C7 -77 0 -75 -9 -75 C-43 -75 -74 -113 -74 -154 C-74 -216 -15 -249 96 -249 C174 -249 232 -233 278 -199 C328 -163 358 -105 358 -47 C358 22 311 56 218 56 C213 56 213 56 184 55 L180 55 L159 55 C147 56 136 56 133 56 C93 56 76 63 76 78 C76 106 107 121 168 124 C234 127 277 140 314 168 C357 202 384 255 384 307 C384 322 382 333 377 348 C388 360 397 365 406 365 C413 365 417 362 423 350 C430 339 436 334 445 334 C466 334 483 356 483 383 C483 405 470 418 447 418 C424 418 401 406 361 373 C333 405 295 419 239 419 C118 419 26 344 26 245 C26 195 52 156 96 139 C25 121 -14 81 -14 23 C-14 6 -9 -9 0 -19 C19 -40 67 -53 130 -53 C132 -53 151 -53 164 -52 L188 -52 Z M227 376 C247 376 262 355 262 325 C262 297 252 251 238 219 C226 188 204 169 184 169 C162 169 149 187 149 219 C149 244 155 279 164 307 C179 352 201 376 227 376 L227 376 Z M363 489 L399 489 L347 652 L242 652 L119 489 L152 489 L275 578 L363 489 Z " />
<glyph glyph-name="Gbreve" unicode="&#x11e;" horiz-adv-x="704" d="M406 300 L396 256 L406 256 C447 254 460 243 460 211 C460 203 459 194 457 186 L452 161 C435 84 379 36 306 36 C232 36 189 86 189 173 C189 266 226 418 269 506 C305 578 374 625 442 625 C529 625 581 558 581 448 L581 436 L623 436 L668 667 L626 667 C618 639 608 618 592 595 C550 653 494 680 420 680 C313 680 213 627 134 527 C66 440 28 339 28 241 C28 88 125 -14 271 -14 C307 -14 352 -8 387 2 C473 27 509 34 545 34 C549 34 553 34 564 32 L588 149 C606 236 613 246 663 255 L670 256 L679 300 L406 300 Z M290 880 C296 781 356 720 445 720 C533 720 620 783 665 880 L620 880 C585 835 528 810 462 810 C396 810 356 832 335 880 L290 880 Z " />
<glyph glyph-name="gbreve" unicode="&#x11f;" horiz-adv-x="464" d="M188 -52 C246 -52 272 -67 272 -101 C272 -163 206 -208 113 -208 C48 -208 4 -183 4 -147 C4 -133 11 -106 19 -87 C20 -85 20 -85 20 -83 C7 -77 0 -75 -9 -75 C-43 -75 -74 -113 -74 -154 C-74 -216 -15 -249 96 -249 C174 -249 232 -233 278 -199 C328 -163 358 -105 358 -47 C358 22 311 56 218 56 C213 56 213 56 184 55 L180 55 L159 55 C147 56 136 56 133 56 C93 56 76 63 76 78 C76 106 107 121 168 124 C234 127 277 140 314 168 C357 202 384 255 384 307 C384 322 382 333 377 348 C388 360 397 365 406 365 C413 365 417 362 423 350 C430 339 436 334 445 334 C466 334 483 356 483 383 C483 405 470 418 447 418 C424 418 401 406 361 373 C333 405 295 419 239 419 C118 419 26 344 26 245 C26 195 52 156 96 139 C25 121 -14 81 -14 23 C-14 6 -9 -9 0 -19 C19 -40 67 -53 130 -53 C132 -53 151 -53 164 -52 L188 -52 Z M227 376 C247 376 262 355 262 325 C262 297 252 251 238 219 C226 188 204 169 184 169 C162 169 149 187 149 219 C149 244 155 279 164 307 C179 352 201 376 227 376 L227 376 Z M157 648 C154 636 153 626 153 615 C153 541 200 489 266 489 C344 489 419 556 442 648 L415 648 C386 596 344 571 286 571 C225 571 190 598 185 648 L157 648 Z " />
<glyph glyph-name="Gdotaccent" unicode="&#x120;" horiz-adv-x="704" d="M406 300 L396 256 L406 256 C447 254 460 243 460 211 C460 203 459 194 457 186 L452 161 C435 84 379 36 306 36 C232 36 189 86 189 173 C189 266 226 418 269 506 C305 578 374 625 442 625 C529 625 581 558 581 448 L581 436 L623 436 L668 667 L626 667 C618 639 608 618 592 595 C550 653 494 680 420 680 C313 680 213 627 134 527 C66 440 28 339 28 241 C28 88 125 -14 271 -14 C307 -14 352 -8 387 2 C473 27 509 34 545 34 C549 34 553 34 564 32 L588 149 C606 236 613 246 663 255 L670 256 L679 300 L406 300 Z M469 862 C425 862 384 823 384 780 C384 749 407 726 438 726 C482 726 523 766 523 808 C523 839 500 862 469 862 L469 862 Z " />
<glyph glyph-name="gdotaccent" unicode="&#x121;" horiz-adv-x="464" d="M188 -52 C246 -52 272 -67 272 -101 C272 -163 206 -208 113 -208 C48 -208 4 -183 4 -147 C4 -133 11 -106 19 -87 C20 -85 20 -85 20 -83 C7 -77 0 -75 -9 -75 C-43 -75 -74 -113 -74 -154 C-74 -216 -15 -249 96 -249 C174 -249 232 -233 278 -199 C328 -163 358 -105 358 -47 C358 22 311 56 218 56 C213 56 213 56 184 55 L180 55 L159 55 C147 56 136 56 133 56 C93 56 76 63 76 78 C76 106 107 121 168 124 C234 127 277 140 314 168 C357 202 384 255 384 307 C384 322 382 333 377 348 C388 360 397 365 406 365 C413 365 417 362 423 350 C430 339 436 334 445 334 C466 334 483 356 483 383 C483 405 470 418 447 418 C424 418 401 406 361 373 C333 405 295 419 239 419 C118 419 26 344 26 245 C26 195 52 156 96 139 C25 121 -14 81 -14 23 C-14 6 -9 -9 0 -19 C19 -40 67 -53 130 -53 C132 -53 151 -53 164 -52 L188 -52 Z M227 376 C247 376 262 355 262 325 C262 297 252 251 238 219 C226 188 204 169 184 169 C162 169 149 187 149 219 C149 244 155 279 164 307 C179 352 201 376 227 376 L227 376 Z M292 632 C253 632 217 598 217 560 C217 533 237 513 265 513 C304 513 340 548 340 585 C340 612 320 632 292 632 L292 632 Z " />
<glyph glyph-name="Gcommaaccent" unicode="&#x122;" horiz-adv-x="704" d="M406 300 L396 256 L406 256 C447 254 460 243 460 211 C460 203 459 194 457 186 L452 161 C435 84 379 36 306 36 C232 36 189 86 189 173 C189 266 226 418 269 506 C305 578 374 625 442 625 C529 625 581 558 581 448 L581 436 L623 436 L668 667 L626 667 C618 639 608 618 592 595 C550 653 494 680 420 680 C313 680 213 627 134 527 C66 440 28 339 28 241 C28 88 125 -14 271 -14 C307 -14 352 -8 387 2 C473 27 509 34 545 34 C549 34 553 34 564 32 L588 149 C606 236 613 246 663 255 L670 256 L679 300 L406 300 Z M143 -327 C252 -317 333 -236 333 -136 C333 -87 309 -59 266 -59 C218 -59 177 -99 177 -146 C177 -173 197 -194 222 -194 C228 -194 234 -193 240 -192 C254 -188 254 -188 257 -188 C264 -188 269 -194 269 -204 C269 -241 216 -276 152 -284 L143 -327 Z " />
<glyph glyph-name="gcommaaccent" unicode="&#x123;" horiz-adv-x="464" d="M188 -52 C246 -52 272 -67 272 -101 C272 -163 206 -208 113 -208 C48 -208 4 -183 4 -147 C4 -133 11 -106 19 -87 C20 -85 20 -85 20 -83 C7 -77 0 -75 -9 -75 C-43 -75 -74 -113 -74 -154 C-74 -216 -15 -249 96 -249 C174 -249 232 -233 278 -199 C328 -163 358 -105 358 -47 C358 22 311 56 218 56 C213 56 213 56 184 55 L180 55 L159 55 C147 56 136 56 133 56 C93 56 76 63 76 78 C76 106 107 121 168 124 C234 127 277 140 314 168 C357 202 384 255 384 307 C384 322 382 333 377 348 C388 360 397 365 406 365 C413 365 417 362 423 350 C430 339 436 334 445 334 C466 334 483 356 483 383 C483 405 470 418 447 418 C424 418 401 406 361 373 C333 405 295 419 239 419 C118 419 26 344 26 245 C26 195 52 156 96 139 C25 121 -14 81 -14 23 C-14 6 -9 -9 0 -19 C19 -40 67 -53 130 -53 C132 -53 151 -53 164 -52 L188 -52 Z M227 376 C247 376 262 355 262 325 C262 297 252 251 238 219 C226 188 204 169 184 169 C162 169 149 187 149 219 C149 244 155 279 164 307 C179 352 201 376 227 376 L227 376 Z M366 697 C273 690 196 614 196 529 C196 484 220 458 261 458 C303 458 339 491 339 529 C339 553 321 570 298 570 C293 570 287 569 282 568 C269 565 269 565 266 565 C258 565 253 571 253 581 C253 615 302 653 359 662 L366 697 Z " />
<glyph glyph-name="Hcircumflex" unicode="&#x124;" horiz-adv-x="752" d="M502 325 L464 149 C446 66 427 43 375 44 L363 29 L357 0 L656 0 L665 44 L657 44 C620 44 604 57 604 86 C604 101 607 124 612 149 L691 521 C709 604 726 624 781 623 L788 623 L798 667 L499 667 L490 623 L497 623 C538 623 551 613 551 579 L551 576 C551 575 551 571 550 566 C551 562 548 541 543 521 L513 377 L259 377 L289 521 C307 604 325 624 379 623 L386 623 L395 667 L97 667 L87 623 L95 623 C137 623 149 613 149 577 C149 565 146 542 141 521 L62 149 C46 68 25 43 -27 44 L-36 44 L-45 0 L253 0 L263 44 L255 44 C218 44 202 57 202 86 C202 101 205 124 210 149 L248 325 L502 325 Z M418 879 L278 729 L310 729 L475 817 L621 729 L653 729 L574 879 L418 879 Z " />
<glyph glyph-name="Hbar" unicode="&#x126;" horiz-adv-x="752" d="M121 426 L62 149 C46 68 25 43 -27 44 L-36 44 L-45 0 L253 0 L263 44 L255 44 C218 44 202 57 202 86 C202 101 205 124 210 149 L248 325 L502 325 L464 149 C446 66 427 43 375 44 L363 29 L357 0 L656 0 L665 44 L657 44 C620 44 604 57 604 86 C604 101 607 124 612 149 L671 426 L728 426 L739 478 L682 478 L691 521 C709 605 726 624 781 623 L788 623 L798 667 L499 667 L490 623 L497 623 C539 623 551 613 551 577 C551 564 548 544 543 521 L534 478 L280 478 L289 521 C307 605 324 624 379 623 L386 623 L395 667 L97 667 L87 623 L95 623 C136 623 150 612 150 580 L150 577 C150 575 150 574 149 566 C149 560 146 544 141 521 L132 478 L77 478 L66 426 L121 426 Z M269 426 L523 426 L513 377 L259 377 L269 426 Z " />
<glyph glyph-name="hbar" unicode="&#x127;" horiz-adv-x="525" d="M243 535 L274 678 L267 678 C250 673 234 669 206 665 C152 657 120 652 113 651 C103 649 99 648 85 645 L76 603 L80 603 C107 603 119 594 119 574 C119 564 117 551 114 535 L62 535 L52 490 L105 490 L27 125 C11 55 1 43 -39 42 L-44 42 L-53 0 L172 0 L181 42 L179 42 C157 43 149 51 149 69 C149 82 152 105 156 125 L189 282 C191 284 193 285 193 286 L197 291 C224 329 258 354 284 354 C309 354 323 340 323 315 C323 303 321 286 317 268 L287 125 C271 56 264 46 230 43 L225 42 L216 0 L442 0 L451 42 L447 42 C421 42 411 50 411 72 C411 86 413 106 417 125 L445 253 C452 288 455 309 455 327 C455 383 416 419 354 419 C300 419 250 394 203 344 L234 490 L407 490 L417 535 L243 535 Z " />
<glyph glyph-name="Imacron" unicode="&#x12a;" horiz-adv-x="354" d="M87 623 L96 623 C139 623 151 613 151 578 C151 566 148 548 142 521 L63 149 C46 66 27 44 -26 44 L-36 44 L-45 0 L258 0 L267 44 L256 44 C220 44 203 57 203 85 C203 101 206 123 211 149 L290 521 C309 606 325 624 381 623 L390 623 L400 667 L97 667 L87 623 Z M125 810 L114 758 L421 758 L432 810 L125 810 Z " />
<glyph glyph-name="imacron" unicode="&#x12b;" horiz-adv-x="271" d="M17 343 L27 343 C60 343 72 333 72 305 C72 296 70 279 66 263 L37 125 C21 58 8 43 -35 42 L-47 42 L-56 0 L189 0 L198 42 L193 42 C165 42 155 50 155 73 C155 87 157 106 161 125 L224 419 L217 419 C186 411 64 389 26 386 L17 343 Z M40 541 L294 541 L304 590 L50 590 L40 541 Z " />
<glyph glyph-name="ibreve" unicode="&#x12d;" horiz-adv-x="271" d="M17 343 L27 343 C60 343 72 333 72 305 C72 296 70 279 66 263 L37 125 C21 58 8 43 -35 42 L-47 42 L-56 0 L189 0 L198 42 L193 42 C165 42 155 50 155 73 C155 87 157 106 161 125 L224 419 L217 419 C186 411 64 389 26 386 L17 343 Z M59 648 C56 636 55 626 55 615 C55 541 102 489 168 489 C246 489 320 556 344 648 L316 648 C287 596 245 571 187 571 C126 571 92 597 86 648 L59 648 Z " />
<glyph glyph-name="Iogonek" unicode="&#x12e;" horiz-adv-x="354" d="M258 0 L267 44 L256 44 C220 44 203 57 203 85 C203 101 206 123 211 149 L290 521 C309 606 325 624 381 623 L390 623 L400 667 L97 667 L87 623 L96 623 C139 623 151 613 151 578 C151 566 148 548 142 521 L63 149 C46 66 27 44 -26 44 L-36 44 L-45 0 L138 0 C75 -29 30 -85 30 -134 C30 -179 63 -209 114 -209 C148 -209 176 -199 218 -171 L211 -150 C193 -159 183 -162 170 -162 C145 -162 128 -142 128 -112 C128 -76 145 -37 178 0 L258 0 Z " />
<glyph glyph-name="iogonek" unicode="&#x12f;" horiz-adv-x="271" d="M189 0 L198 42 L193 42 C165 42 155 50 155 73 C155 87 157 106 161 125 L224 419 L217 419 C186 411 64 389 26 386 L17 343 L27 343 C60 343 72 333 72 305 C72 296 70 279 66 263 L37 125 C21 58 8 43 -35 42 L-47 42 L-56 0 L98 0 C44 -29 6 -80 6 -125 C6 -166 33 -192 76 -192 C104 -192 128 -183 163 -158 L158 -137 C143 -145 136 -147 126 -147 C106 -147 93 -131 93 -107 C93 -75 108 -34 133 0 L189 0 Z M214 678 C164 678 119 634 119 585 C119 551 145 525 179 525 C229 525 274 569 274 618 C274 653 249 678 214 678 L214 678 Z " />
<glyph glyph-name="Idotaccent" unicode="&#x130;" horiz-adv-x="354" d="M87 623 L96 623 C139 623 151 613 151 578 C151 566 148 548 142 521 L63 149 C46 66 27 44 -26 44 L-36 44 L-45 0 L258 0 L267 44 L256 44 C220 44 203 57 203 85 C203 101 206 123 211 149 L290 521 C309 606 325 624 381 623 L390 623 L400 667 L97 667 L87 623 Z M291 862 C247 862 206 823 206 780 C206 749 229 726 260 726 C304 726 345 766 345 808 C345 839 322 862 291 862 L291 862 Z " />
<glyph glyph-name="dotlessi" unicode="&#x131;" horiz-adv-x="271" d="M17 343 L27 343 C60 343 72 333 72 305 C72 296 70 279 66 263 L37 125 C21 58 8 43 -35 42 L-47 42 L-56 0 L189 0 L198 42 L193 42 C165 42 155 50 155 73 C155 87 157 106 161 125 L224 419 L217 419 C186 411 64 389 26 386 L17 343 Z " />
<glyph glyph-name="Kcommaaccent" unicode="&#x136;" horiz-adv-x="703" d="M253 339 L291 521 C310 605 326 624 381 623 L391 623 L400 667 L98 667 L89 623 L97 623 C139 623 151 613 151 578 C151 565 148 543 143 521 L64 149 C47 66 28 44 -25 44 L-37 44 L-46 0 L253 0 L262 44 L257 44 C221 44 204 57 204 86 C204 101 207 123 212 149 L239 274 L300 330 L392 144 L395 136 C396 133 399 127 403 119 C411 105 417 89 417 80 C417 56 393 44 344 44 L336 44 L327 0 L660 0 L670 44 L664 44 C610 44 584 70 543 160 L414 426 L503 501 C614 595 655 618 714 623 L720 623 L729 667 L477 667 L468 623 L474 623 C502 623 518 614 518 596 C518 576 501 554 451 511 L253 339 Z M131 -327 C240 -317 321 -236 321 -137 C321 -87 297 -59 254 -59 C207 -59 166 -99 166 -146 C166 -173 185 -194 211 -194 C216 -194 222 -193 228 -192 C242 -188 242 -188 245 -188 C252 -188 257 -194 257 -204 C257 -240 204 -277 140 -284 L131 -327 Z " />
<glyph glyph-name="kcommaaccent" unicode="&#x137;" horiz-adv-x="489" d="M284 403 L275 361 L280 361 C300 361 310 356 310 346 C310 336 305 330 268 300 L176 224 L273 678 L265 678 C250 673 231 669 205 665 C179 661 153 657 127 654 L112 651 C102 649 98 648 84 645 L75 603 L82 603 C107 603 118 595 118 576 C118 566 115 547 112 529 L26 125 C9 54 2 44 -38 42 L-48 42 L-57 0 L169 0 L178 42 L175 42 C156 43 148 51 148 68 C148 83 151 105 155 125 L165 173 L195 198 L238 97 C244 83 248 71 248 66 C248 52 235 43 214 42 L211 42 L202 0 L418 0 L427 42 L424 43 C403 44 387 63 359 119 L288 267 C391 342 423 359 468 361 L471 361 L480 403 L284 403 Z M51 -301 C145 -294 222 -219 222 -133 C222 -88 198 -62 157 -62 C115 -62 79 -95 79 -133 C79 -157 97 -174 120 -174 C125 -174 131 -173 137 -172 C149 -169 149 -169 152 -169 C160 -169 165 -175 165 -185 C165 -219 116 -257 59 -266 L51 -301 Z " />
<glyph glyph-name="Lacute" unicode="&#x139;" horiz-adv-x="575" d="M538 213 L499 213 C442 89 391 47 296 47 L273 47 C219 47 203 58 203 92 C203 104 203 106 213 151 L292 521 C310 606 326 624 382 623 L398 623 L407 667 L97 667 L87 623 L97 623 C140 623 152 613 152 578 C152 566 150 549 144 521 L64 148 C47 65 29 44 -25 44 L-36 44 L-45 0 L489 0 L538 213 Z M245 729 L278 729 L554 869 L555 877 L376 877 L245 729 Z " />
<glyph glyph-name="lacute" unicode="&#x13a;" horiz-adv-x="262" d="M73 603 L85 603 C107 603 117 595 117 579 C117 568 114 546 110 527 L25 125 C8 51 3 44 -34 42 L-47 42 L-56 0 L175 0 L184 42 L179 42 C156 42 145 50 145 67 C145 77 148 99 154 125 L271 678 L264 678 C243 672 151 655 82 645 L73 603 Z M171 729 L204 729 L480 869 L481 877 L302 877 L171 729 Z " />
<glyph glyph-name="Lcommaaccent" unicode="&#x13b;" horiz-adv-x="575" d="M538 213 L499 213 C442 89 391 47 296 47 L273 47 C219 47 203 58 203 92 C203 104 203 106 213 151 L292 521 C310 606 326 624 382 623 L398 623 L407 667 L97 667 L87 623 L97 623 C140 623 152 613 152 578 C152 566 150 549 144 521 L64 148 C47 65 29 44 -25 44 L-36 44 L-45 0 L489 0 L538 213 Z M90 -327 C199 -317 280 -236 280 -137 C280 -87 256 -59 213 -59 C165 -59 124 -99 124 -146 C124 -173 144 -194 169 -194 C175 -194 181 -193 187 -192 C201 -188 201 -188 204 -188 C211 -188 216 -194 216 -204 C216 -240 163 -277 99 -284 L90 -327 Z " />
<glyph glyph-name="lcommaaccent" unicode="&#x13c;" horiz-adv-x="262" d="M74 603 L85 603 C107 603 117 595 117 579 C117 568 114 545 110 527 L25 125 C8 51 3 44 -34 42 L-47 42 L-56 0 L175 0 L184 42 L179 42 C156 42 145 50 145 67 C145 76 148 98 154 125 L272 678 L264 678 C237 670 167 658 83 645 L74 603 Z M-59 -301 C35 -294 112 -219 112 -133 C112 -88 88 -62 47 -62 C5 -62 -31 -95 -31 -133 C-31 -157 -13 -174 10 -174 C15 -174 21 -173 27 -172 C39 -169 39 -169 42 -169 C50 -169 55 -175 55 -185 C55 -219 6 -257 -52 -266 L-59 -301 Z " />
<glyph glyph-name="Lcaron" unicode="&#x13d;" horiz-adv-x="575" d="M538 213 L499 213 C442 89 391 47 296 47 L273 47 C219 47 203 58 203 92 C203 104 203 106 213 151 L292 521 C310 606 326 624 382 623 L398 623 L407 667 L97 667 L87 623 L97 623 C140 623 152 613 152 578 C152 566 150 549 144 521 L64 148 C47 65 29 44 -25 44 L-36 44 L-45 0 L489 0 L538 213 Z M381 399 C490 410 571 490 571 589 C571 639 547 667 504 667 C456 667 415 627 415 581 C415 554 435 533 460 533 C466 533 472 534 478 535 C492 538 492 538 495 538 C502 538 507 531 507 522 C507 486 454 450 390 442 L381 399 Z " />
<glyph glyph-name="lcaron" unicode="&#x13e;" horiz-adv-x="387" d="M73 603 L85 603 C107 603 117 595 117 579 C117 568 114 546 110 527 L25 125 C8 51 3 44 -34 42 L-47 42 L-56 0 L175 0 L184 42 L179 42 C156 42 145 50 145 67 C145 77 148 99 154 125 L271 678 L264 678 C243 672 151 655 82 645 L73 603 Z M264 439 C358 446 435 521 435 607 C435 652 411 678 370 678 C328 678 292 645 292 607 C292 583 310 566 333 566 C338 566 344 567 350 568 C362 571 362 571 365 571 C373 571 378 565 378 555 C378 521 329 483 272 474 L264 439 Z " />
<glyph glyph-name="Ldot" unicode="&#x13f;" horiz-adv-x="575" d="M538 213 L499 213 C442 89 391 47 296 47 L273 47 C219 47 203 58 203 92 C203 104 203 106 213 151 L292 521 C310 606 326 624 382 623 L398 623 L407 667 L97 667 L87 623 L97 623 C140 623 152 613 152 578 C152 566 150 549 144 521 L64 148 C47 65 29 44 -25 44 L-36 44 L-45 0 L489 0 L538 213 Z M385 382 C347 382 311 348 311 310 C311 283 331 263 359 263 C397 263 433 298 433 335 C433 362 413 382 385 382 L385 382 Z " />
<glyph glyph-name="ldot" unicode="&#x140;" horiz-adv-x="345" d="M73 603 L85 603 C107 603 117 595 117 579 C117 568 114 546 110 527 L25 125 C8 51 3 44 -34 42 L-47 42 L-56 0 L175 0 L184 42 L179 42 C156 42 145 50 145 67 C145 77 148 99 154 125 L271 678 L264 678 C243 672 151 655 82 645 L73 603 Z M312 395 C274 395 238 360 238 323 C238 295 258 275 286 275 C324 275 360 310 360 348 C360 375 340 395 312 395 L312 395 Z " />
<glyph glyph-name="Lslash" unicode="&#x141;" horiz-adv-x="575" d="M-36 44 L-45 0 L489 0 L538 213 L499 213 C447 93 389 46 296 47 L273 47 C219 47 203 58 203 92 C203 104 203 106 213 151 L253 339 L377 427 L389 482 L265 395 L292 521 C310 606 326 624 382 623 L398 623 L407 667 L97 667 L87 623 L97 623 C139 623 152 613 152 581 L152 577 L151 566 C151 558 148 542 144 521 L91 274 L6 212 L-6 156 L79 218 L64 148 C47 66 29 44 -24 44 L-36 44 Z " />
<glyph glyph-name="lslash" unicode="&#x142;" horiz-adv-x="260" d="M75 603 L86 603 C109 602 118 595 118 579 L118 575 L118 562 C118 558 115 546 111 527 L59 282 L-5 232 L-16 179 L48 230 L26 125 C9 51 4 44 -33 42 L-45 42 L-54 0 L177 0 L186 42 L180 42 C156 42 147 49 147 67 C147 79 150 102 155 125 L204 355 L267 405 L279 458 L215 407 L273 678 L265 678 C244 672 155 656 84 645 L75 603 Z " />
<glyph glyph-name="Nacute" unicode="&#x143;" horiz-adv-x="700" d="M520 -12 L632 513 C645 585 670 611 734 623 L742 623 L751 667 L522 667 L512 623 L520 623 C559 623 589 598 589 567 C589 551 587 536 583 517 L520 221 L285 667 L92 667 L83 623 L87 623 C133 623 147 609 147 563 C147 543 145 525 141 507 L68 162 C53 78 32 54 -36 44 L-41 44 L-50 0 L172 0 L181 44 L172 44 C137 44 108 70 108 101 C108 110 112 135 118 163 L194 522 L472 -12 L520 -12 Z M387 729 L420 729 L696 869 L697 877 L518 877 L387 729 Z " />
<glyph glyph-name="nacute" unicode="&#x144;" horiz-adv-x="526" d="M30 380 L21 338 L25 338 C53 338 62 330 62 303 C62 289 60 274 57 259 L29 125 C12 55 3 43 -38 42 L-41 42 L-50 0 L175 0 L184 42 C161 43 150 51 150 69 C150 83 152 101 158 125 L191 283 C229 331 261 353 289 353 C312 353 326 337 326 310 C326 304 325 295 323 288 L289 125 C273 57 267 47 232 43 L227 42 L218 0 L443 0 L452 42 L449 42 C423 42 413 50 413 72 C413 86 415 107 419 125 L448 260 C456 299 458 311 458 328 C458 382 419 419 363 419 C308 419 255 394 206 346 C209 367 211 382 211 395 C211 401 211 404 210 412 L202 412 C169 404 162 402 38 382 L30 380 Z M263 488 L297 488 L528 642 L530 649 L378 649 L263 488 Z " />
<glyph glyph-name="Ncommaaccent" unicode="&#x145;" horiz-adv-x="700" d="M520 -12 L632 513 C645 585 670 611 734 623 L742 623 L751 667 L522 667 L512 623 L520 623 C559 623 589 598 589 567 C589 551 587 536 583 517 L520 221 L285 667 L92 667 L83 623 L87 623 C133 623 147 609 147 563 C147 543 145 525 141 507 L68 162 C53 78 32 54 -36 44 L-41 44 L-50 0 L172 0 L181 44 L172 44 C137 44 108 70 108 101 C108 110 112 135 118 163 L194 522 L472 -12 L520 -12 Z M137 -327 C246 -317 327 -236 327 -137 C327 -87 303 -59 260 -59 C213 -59 172 -99 172 -146 C172 -173 191 -194 217 -194 C222 -194 228 -193 234 -192 C248 -188 248 -188 251 -188 C258 -188 263 -194 263 -204 C263 -240 210 -277 146 -284 L137 -327 Z " />
<glyph glyph-name="ncommaaccent" unicode="&#x146;" horiz-adv-x="526" d="M30 380 L21 338 L25 338 C53 338 62 330 62 303 C62 289 60 274 57 259 L29 125 C12 55 3 43 -38 42 L-41 42 L-50 0 L175 0 L184 42 C161 43 150 51 150 69 C150 83 152 101 158 125 L191 283 C229 331 261 353 289 353 C312 353 326 337 326 310 C326 304 325 295 323 288 L289 125 C273 57 267 47 232 43 L227 42 L218 0 L443 0 L452 42 L449 42 C423 42 413 50 413 72 C413 86 415 107 419 125 L448 260 C456 299 458 311 458 328 C458 382 419 419 363 419 C308 419 255 394 206 346 C209 367 211 382 211 395 C211 401 211 404 210 412 L202 412 C169 404 162 402 38 382 L30 380 Z M69 -301 C163 -294 240 -219 240 -133 C240 -88 216 -62 175 -62 C133 -62 97 -95 97 -133 C97 -157 115 -174 138 -174 C143 -174 149 -173 155 -172 C167 -169 167 -169 170 -169 C178 -169 183 -175 183 -185 C183 -219 134 -257 76 -266 L69 -301 Z " />
<glyph glyph-name="Ncaron" unicode="&#x147;" horiz-adv-x="700" d="M520 -12 L632 513 C645 585 670 611 734 623 L742 623 L751 667 L522 667 L512 623 L520 623 C559 623 589 598 589 567 C589 551 587 536 583 517 L520 221 L285 667 L92 667 L83 623 L87 623 C133 623 147 609 147 563 C147 543 145 525 141 507 L68 162 C53 78 32 54 -36 44 L-41 44 L-50 0 L172 0 L181 44 L172 44 C137 44 108 70 108 101 C108 110 112 135 118 163 L194 522 L472 -12 L520 -12 Z M515 729 L658 879 L626 879 L461 791 L315 879 L283 879 L359 729 L515 729 Z " />
<glyph glyph-name="ncaron" unicode="&#x148;" horiz-adv-x="526" d="M30 380 L21 338 L25 338 C53 338 62 330 62 303 C62 289 60 274 57 259 L29 125 C12 55 3 43 -38 42 L-41 42 L-50 0 L175 0 L184 42 C161 43 150 51 150 69 C150 83 152 101 158 125 L191 283 C229 331 261 353 289 353 C312 353 326 337 326 310 C326 304 325 295 323 288 L289 125 C273 57 267 47 232 43 L227 42 L218 0 L443 0 L452 42 L449 42 C423 42 413 50 413 72 C413 86 415 107 419 125 L448 260 C456 299 458 311 458 328 C458 382 419 419 363 419 C308 419 255 394 206 346 C209 367 211 382 211 395 C211 401 211 404 210 412 L202 412 C169 404 162 402 38 382 L30 380 Z M237 655 L204 655 L259 491 L364 491 L484 655 L448 655 L330 566 L237 655 Z " />
<glyph glyph-name="Omacron" unicode="&#x14c;" horiz-adv-x="743" d="M450 679 C322 679 213 626 129 523 C66 445 30 346 30 247 C30 87 133 -13 298 -13 C525 -13 713 182 713 417 C713 577 611 679 450 679 L450 679 Z M436 628 C505 628 547 573 547 483 C547 365 507 205 460 132 C419 70 368 38 311 38 C239 38 195 92 195 180 C195 287 228 425 276 517 C312 585 373 628 436 628 L436 628 Z M320 810 L309 758 L615 758 L626 810 L320 810 Z " />
<glyph glyph-name="omacron" unicode="&#x14d;" horiz-adv-x="490" d="M264 419 C118 419 -1 296 -1 145 C-1 103 9 72 29 46 C58 8 113 -16 170 -16 C313 -16 434 109 434 257 C434 353 365 419 264 419 L264 419 Z M254 375 C283 375 303 349 303 311 C303 264 286 175 268 121 C246 58 217 27 180 27 C148 27 131 52 131 99 C131 169 162 295 190 334 C208 360 231 375 254 375 L254 375 Z M149 541 L433 541 L443 590 L160 590 L149 541 Z " />
<glyph glyph-name="Ohungarumlaut" unicode="&#x150;" horiz-adv-x="743" d="M450 679 C322 679 213 626 129 523 C66 445 30 346 30 247 C30 87 133 -13 298 -13 C525 -13 713 182 713 417 C713 577 611 679 450 679 L450 679 Z M436 628 C505 628 547 573 547 483 C547 365 507 205 460 132 C419 70 368 38 311 38 C239 38 195 92 195 180 C195 287 228 425 276 517 C312 585 373 628 436 628 L436 628 Z M334 729 L367 729 L618 869 L619 877 L465 877 L334 729 Z M517 729 L550 729 L801 869 L803 877 L648 877 L517 729 Z " />
<glyph glyph-name="ohungarumlaut" unicode="&#x151;" horiz-adv-x="490" d="M264 419 C118 419 -1 296 -1 145 C-1 103 9 72 29 46 C58 8 113 -16 170 -16 C313 -16 434 109 434 257 C434 353 365 419 264 419 L264 419 Z M254 375 C283 375 303 349 303 311 C303 264 286 175 268 121 C246 58 217 27 180 27 C148 27 131 52 131 99 C131 169 162 295 190 334 C208 360 231 375 254 375 L254 375 Z M182 488 L216 488 L422 642 L424 649 L297 649 L182 488 Z M339 488 L373 488 L579 642 L581 649 L454 649 L339 488 Z " />
<glyph glyph-name="OE" unicode="&#x152;" horiz-adv-x="880" d="M831 216 L793 216 C765 150 730 98 698 74 C677 58 639 46 611 46 L606 46 L604 46 L590 47 L579 48 L568 48 C531 49 520 56 520 78 C520 95 523 113 534 166 L568 326 L621 326 C658 326 668 317 668 284 C668 271 667 258 664 244 L663 235 L700 235 L748 465 L711 465 L709 456 C691 388 677 374 633 373 L578 373 L631 620 L719 620 C788 624 806 600 811 497 L851 497 L877 667 L526 667 L481 667 C453 669 451 669 437 669 C309 669 211 622 132 523 C67 440 31 342 31 245 C31 89 124 -1 287 -1 C293 -1 307 -1 320 0 C371 1 371 1 380 1 L389 1 L403 0 L779 0 L831 216 Z M379 132 C371 95 364 73 355 64 C347 55 322 47 301 47 C232 47 194 101 194 198 C194 294 221 412 261 489 C306 575 362 620 422 620 C454 620 471 607 471 583 C471 571 469 554 464 531 L379 132 Z " />
<glyph glyph-name="oe" unicode="&#x153;" horiz-adv-x="720" d="M597 100 C565 58 521 33 479 33 C430 33 402 68 402 129 C402 164 407 197 418 227 L666 227 C671 246 672 259 672 276 C672 361 615 419 531 419 C482 419 436 400 390 360 C359 398 313 419 261 419 C121 419 -1 292 -1 146 C-1 50 67 -16 166 -16 C223 -16 277 6 324 47 C348 7 392 -16 444 -16 C509 -16 585 24 625 78 L597 100 Z M428 267 C446 336 480 376 520 376 C549 376 566 353 566 313 C566 299 565 288 562 267 L428 267 Z M257 375 C292 375 314 347 314 302 C314 268 297 177 281 130 C259 60 226 26 182 26 C147 26 127 53 127 102 C127 156 150 257 174 312 C190 349 224 375 257 375 L257 375 Z " />
<glyph glyph-name="Racute" unicode="&#x154;" horiz-adv-x="652" d="M611 0 L620 44 L615 44 C569 47 545 76 504 179 C464 280 449 306 423 329 C478 345 511 363 540 391 C578 429 600 480 600 531 C600 577 581 614 545 637 C508 661 431 672 310 672 L291 672 C163 670 159 670 137 669 L98 667 L89 623 L99 623 C142 623 154 613 154 578 C154 565 151 544 146 521 L67 149 C49 66 31 44 -22 44 L-36 44 L-45 0 L266 0 L276 44 L260 44 C224 44 207 57 207 86 C207 102 210 123 215 149 L248 303 C319 306 322 303 367 158 C391 82 416 20 432 0 L611 0 Z M258 351 L315 621 C326 622 333 622 342 622 C415 622 444 599 444 541 C444 482 418 410 386 382 C361 359 331 351 274 351 L269 351 L258 351 Z M329 729 L362 729 L638 869 L640 877 L460 877 L329 729 Z " />
<glyph glyph-name="racute" unicode="&#x155;" horiz-adv-x="394" d="M21 339 L26 339 C54 339 64 330 64 307 C64 293 62 274 58 256 L30 125 C14 55 5 43 -36 42 L-41 42 L-50 0 L193 0 L202 42 L193 42 C164 42 154 50 154 76 C154 90 156 108 160 125 L171 178 C185 246 198 276 224 309 C241 329 257 340 272 340 C282 340 290 334 296 318 C308 291 316 284 333 284 C365 284 394 320 394 360 C394 396 373 419 339 419 C291 419 237 381 195 317 C201 348 203 370 203 393 C203 403 203 408 201 419 C111 398 66 387 30 381 L21 339 Z M214 488 L248 488 L479 642 L480 649 L328 649 L214 488 Z " />
<glyph glyph-name="Rcommaaccent" unicode="&#x156;" horiz-adv-x="652" d="M611 0 L620 44 L615 44 C569 47 545 76 504 179 C464 280 449 306 423 329 C478 345 511 363 540 391 C578 429 600 480 600 531 C600 577 581 614 545 637 C508 661 431 672 310 672 L291 672 C163 670 159 670 137 669 L98 667 L89 623 L99 623 C142 623 154 613 154 578 C154 565 151 544 146 521 L67 149 C49 66 31 44 -22 44 L-36 44 L-45 0 L266 0 L276 44 L260 44 C224 44 207 57 207 86 C207 102 210 123 215 149 L248 303 C319 306 322 303 367 158 C391 82 416 20 432 0 L611 0 Z M258 351 L315 621 C326 622 333 622 342 622 C415 622 444 599 444 541 C444 482 418 410 386 382 C361 359 331 351 274 351 L269 351 L258 351 Z M119 -327 C229 -317 310 -236 310 -137 C310 -87 286 -59 243 -59 C195 -59 154 -99 154 -146 C154 -173 173 -194 199 -194 C204 -194 210 -193 216 -192 C230 -188 230 -188 233 -188 C240 -188 245 -194 245 -204 C245 -240 193 -277 128 -284 L119 -327 Z " />
<glyph glyph-name="rcommaaccent" unicode="&#x157;" horiz-adv-x="394" d="M21 339 L26 339 C54 339 64 330 64 307 C64 293 62 274 58 256 L30 125 C14 55 4 43 -36 42 L-41 42 L-50 0 L193 0 L202 42 L193 42 C164 42 154 51 154 74 C154 89 156 108 160 125 L171 178 C185 246 197 276 224 309 C241 329 257 340 272 340 C283 340 290 334 296 319 C308 292 316 285 333 285 C365 285 394 320 394 361 C394 396 372 419 339 419 C291 419 237 381 195 317 C201 347 203 370 203 391 C203 403 203 407 201 419 C111 398 66 387 30 381 L21 339 Z M-54 -301 C40 -294 117 -219 117 -133 C117 -88 93 -62 52 -62 C10 -62 -26 -95 -26 -133 C-26 -157 -8 -174 15 -174 C20 -174 26 -173 32 -172 C44 -169 44 -169 47 -169 C55 -169 60 -175 60 -185 C60 -219 11 -257 -47 -266 L-54 -301 Z " />
<glyph glyph-name="Rcaron" unicode="&#x158;" horiz-adv-x="652" d="M611 0 L620 44 L615 44 C569 47 545 76 504 179 C464 280 449 306 423 329 C478 345 511 363 540 391 C578 429 600 480 600 531 C600 577 581 614 545 637 C508 661 431 672 310 672 L291 672 C163 670 159 670 137 669 L98 667 L89 623 L99 623 C142 623 154 613 154 578 C154 565 151 544 146 521 L67 149 C49 66 31 44 -22 44 L-36 44 L-45 0 L266 0 L276 44 L260 44 C224 44 207 57 207 86 C207 102 210 123 215 149 L248 303 C319 306 322 303 367 158 C391 82 416 20 432 0 L611 0 Z M258 351 L315 621 C326 622 333 622 342 622 C415 622 444 599 444 541 C444 482 418 410 386 382 C361 359 331 351 274 351 L269 351 L258 351 Z M453 729 L596 879 L564 879 L399 791 L253 879 L221 879 L297 729 L453 729 Z " />
<glyph glyph-name="rcaron" unicode="&#x159;" horiz-adv-x="394" d="M21 339 L26 339 C54 339 64 330 64 307 C64 293 62 274 58 256 L30 125 C14 55 5 43 -36 42 L-41 42 L-50 0 L193 0 L202 42 L193 42 C164 42 154 50 154 76 C154 90 156 108 160 125 L171 178 C185 246 198 276 224 309 C241 329 257 340 272 340 C282 340 290 334 296 318 C308 291 316 284 333 284 C365 284 394 320 394 360 C394 396 373 419 339 419 C291 419 237 381 195 317 C201 348 203 370 203 393 C203 403 203 408 201 419 C111 398 66 387 30 381 L21 339 Z M166 655 L133 655 L189 491 L294 491 L413 655 L378 655 L260 566 L166 655 Z " />
<glyph glyph-name="Sacute" unicode="&#x15a;" horiz-adv-x="503" d="M-18 10 L25 10 C34 36 44 54 54 67 C83 17 136 -13 199 -13 C330 -13 444 103 444 237 C444 316 412 356 297 420 C227 459 205 485 205 526 C205 584 251 632 306 632 C370 632 409 574 410 478 L449 478 L489 667 L449 667 L448 664 L445 657 C439 641 432 630 421 617 C393 658 352 679 304 679 C185 679 81 570 81 446 C81 370 108 337 228 262 C286 226 309 197 309 157 C309 94 252 37 189 37 C113 37 72 101 72 220 L72 233 L29 233 L-18 10 Z M275 729 L308 729 L584 869 L586 877 L407 877 L275 729 Z " />
<glyph glyph-name="sacute" unicode="&#x15b;" horiz-adv-x="375" d="M-36 -12 L-4 -12 C4 2 12 12 21 20 C25 19 26 18 31 15 C57 -6 89 -16 126 -16 C223 -16 301 59 301 154 C301 184 292 210 275 228 C257 246 251 249 182 272 C142 285 122 303 122 326 C122 356 154 382 192 382 C240 382 274 346 277 291 L309 291 L335 414 L305 414 C296 400 289 392 282 386 C251 406 212 420 187 420 C102 420 24 346 24 266 C24 223 55 184 107 164 C173 138 173 138 188 122 C195 114 199 104 199 93 C199 55 162 25 117 25 C64 25 32 60 27 122 L-8 122 L-36 -12 Z M184 488 L218 488 L449 642 L450 649 L298 649 L184 488 Z " />
<glyph glyph-name="Scircumflex" unicode="&#x15c;" horiz-adv-x="503" d="M-18 10 L25 10 C34 36 44 54 54 67 C83 17 136 -13 199 -13 C330 -13 444 103 444 237 C444 316 412 356 297 420 C227 459 205 485 205 526 C205 584 251 632 306 632 C370 632 409 574 410 478 L449 478 L489 667 L449 667 L448 664 L445 657 C439 641 432 630 421 617 C393 658 352 679 304 679 C185 679 81 570 81 446 C81 370 108 337 228 262 C286 226 309 197 309 157 C309 94 252 37 189 37 C113 37 72 101 72 220 L72 233 L29 233 L-18 10 Z M302 879 L162 729 L194 729 L358 817 L504 729 L536 729 L458 879 L302 879 Z " />
<glyph glyph-name="scircumflex" unicode="&#x15d;" horiz-adv-x="375" d="M-36 -12 L-4 -12 C4 2 12 12 21 20 C25 19 26 18 31 15 C57 -6 89 -16 126 -16 C223 -16 301 59 301 154 C301 184 292 210 275 228 C257 246 251 249 182 272 C142 285 122 303 122 326 C122 356 154 382 192 382 C240 382 274 346 277 291 L309 291 L335 414 L305 414 C296 400 289 392 282 386 C251 406 212 420 187 420 C102 420 24 346 24 266 C24 223 55 184 107 164 C173 138 173 138 188 122 C195 114 199 104 199 93 C199 55 162 25 117 25 C64 25 32 60 27 122 L-8 122 L-36 -12 Z M338 489 L373 489 L322 652 L217 652 L93 489 L126 489 L249 578 L338 489 Z " />
<glyph glyph-name="Scedilla" unicode="&#x15e;" horiz-adv-x="503" d="M449 478 L489 667 L449 667 L448 664 L445 657 C439 641 432 630 421 617 C393 658 352 679 304 679 C185 679 81 570 81 446 C81 370 108 337 228 262 C286 226 309 197 309 157 C309 94 252 37 189 37 C113 37 72 101 72 220 L72 233 L29 233 L-18 10 L25 10 C34 36 44 54 54 67 C76 27 120 -3 168 -10 C151 -59 142 -84 128 -112 C152 -114 164 -126 164 -147 C164 -178 140 -199 106 -199 C87 -199 71 -196 49 -188 C42 -208 41 -210 34 -228 C57 -238 78 -242 105 -242 C195 -242 262 -192 262 -124 C262 -84 238 -60 191 -55 C202 -24 202 -24 203 -23 C204 -19 204 -18 206 -13 C336 -8 444 105 444 237 C444 316 412 356 297 420 C227 459 205 485 205 526 C205 584 251 632 306 632 C370 632 409 574 410 478 L449 478 Z " />
<glyph glyph-name="scedilla" unicode="&#x15f;" horiz-adv-x="375" d="M309 291 L335 414 L305 414 C296 400 289 392 282 386 C251 406 212 420 187 420 C102 420 24 346 24 266 C24 223 55 184 107 164 C173 138 173 138 188 122 C195 114 199 104 199 93 C199 55 162 25 117 25 C64 25 32 60 27 122 L-8 122 L-36 -12 L-4 -12 C4 2 12 12 21 20 C25 19 26 18 31 15 C51 -1 73 -10 100 -14 C80 -73 76 -82 69 -100 C86 -102 94 -112 94 -130 C94 -159 75 -179 50 -179 C35 -179 24 -176 7 -169 C1 -187 0 -189 -6 -205 C11 -214 26 -217 47 -217 C116 -217 168 -170 168 -108 C168 -73 151 -54 117 -49 C123 -34 125 -28 129 -16 C228 -12 301 60 301 154 C301 184 292 210 275 228 C257 246 251 249 182 272 C142 285 122 303 122 326 C122 356 154 382 192 382 C240 382 274 346 277 291 L309 291 Z " />
<glyph glyph-name="Scaron" unicode="&#x160;" horiz-adv-x="503" d="M-18 10 L25 10 C34 36 44 54 54 67 C83 17 136 -13 199 -13 C330 -13 444 103 444 237 C444 316 412 356 297 420 C227 459 205 485 205 526 C205 584 251 632 306 632 C370 632 409 574 410 478 L449 478 L489 667 L449 667 L448 664 L445 657 C439 641 432 630 421 617 C393 658 352 679 304 679 C185 679 81 570 81 446 C81 370 108 337 228 262 C286 226 309 197 309 157 C309 94 252 37 189 37 C113 37 72 101 72 220 L72 233 L29 233 L-18 10 Z M414 729 L557 879 L525 879 L360 791 L214 879 L182 879 L258 729 L414 729 Z " />
<glyph glyph-name="scaron" unicode="&#x161;" horiz-adv-x="375" d="M-36 -12 L-4 -12 C4 2 12 12 21 20 C25 19 26 18 31 15 C57 -6 89 -16 126 -16 C223 -16 301 59 301 154 C301 184 292 210 275 228 C257 246 251 249 182 272 C142 285 122 303 122 326 C122 356 154 382 192 382 C240 382 274 346 277 291 L309 291 L335 414 L305 414 C296 400 289 392 282 386 C251 406 212 420 187 420 C102 420 24 346 24 266 C24 223 55 184 107 164 C173 138 173 138 188 122 C195 114 199 104 199 93 C199 55 162 25 117 25 C64 25 32 60 27 122 L-8 122 L-36 -12 Z M158 655 L124 655 L180 491 L285 491 L404 655 L369 655 L251 566 L158 655 Z " />
<glyph glyph-name="Tcommaaccent" unicode="&#x162;" horiz-adv-x="624" d="M86 487 C127 599 151 620 238 620 L297 620 L197 149 C179 65 161 44 108 44 L89 44 L79 0 L400 0 L409 44 L391 44 C353 44 337 56 337 87 C337 101 340 125 345 149 L445 620 L507 620 C543 620 567 614 578 604 C593 589 603 552 603 509 L603 487 L642 487 L680 667 L85 667 L46 487 L86 487 Z M100 -327 C210 -317 291 -236 291 -137 C291 -87 267 -59 224 -59 C176 -59 135 -99 135 -146 C135 -173 154 -194 180 -194 C187 -194 190 -194 206 -190 C212 -188 212 -188 214 -188 C221 -188 226 -195 226 -204 C226 -241 174 -277 109 -284 L100 -327 Z " />
<glyph glyph-name="tcommaaccent" unicode="&#x163;" horiz-adv-x="303" d="M298 359 L307 403 L199 403 L227 534 L191 534 C162 456 99 402 37 402 C37 402 33 402 29 403 L20 359 L71 359 L21 127 C16 102 14 87 14 74 C14 18 47 -16 102 -16 C163 -16 217 15 249 68 L219 82 C197 52 181 41 160 41 C145 41 132 56 132 73 C132 83 134 97 143 139 L190 359 L298 359 Z M-34 -301 C60 -294 137 -219 137 -133 C137 -88 113 -62 72 -62 C30 -62 -6 -95 -6 -133 C-6 -157 12 -174 35 -174 C40 -174 46 -173 52 -172 C64 -169 64 -169 67 -169 C75 -169 80 -175 80 -185 C80 -219 31 -257 -27 -266 L-34 -301 Z " />
<glyph glyph-name="Tcaron" unicode="&#x164;" horiz-adv-x="624" d="M86 487 C127 599 151 620 238 620 L297 620 L197 149 C179 65 161 44 108 44 L89 44 L79 0 L400 0 L409 44 L391 44 C353 44 337 56 337 87 C337 101 340 125 345 149 L445 620 L507 620 C543 620 567 614 578 604 C593 589 603 552 603 509 L603 487 L642 487 L680 667 L85 667 L46 487 L86 487 Z M472 729 L614 879 L583 879 L417 791 L272 879 L240 879 L316 729 L472 729 Z " />
<glyph glyph-name="tcaron" unicode="&#x165;" horiz-adv-x="376" d="M298 359 L308 403 L200 403 L228 534 L191 534 C163 457 100 402 38 402 C37 402 34 402 30 403 L20 359 L72 359 L22 127 C17 104 15 88 15 74 C15 18 48 -16 103 -16 C164 -16 219 15 250 68 L219 82 C199 53 182 41 162 41 C146 41 134 55 134 75 C134 85 138 109 144 139 L191 359 L298 359 Z M261 470 C355 477 432 552 432 638 C432 683 408 709 367 709 C325 709 289 676 289 638 C289 614 307 597 330 597 C335 597 341 598 347 599 C359 602 359 602 362 602 C370 602 375 596 375 586 C375 552 326 515 268 505 L261 470 Z " />
<glyph glyph-name="utilde" unicode="&#x169;" horiz-adv-x="514" d="M465 403 L289 403 L280 361 L285 361 C308 361 318 354 318 337 C318 326 314 299 310 279 L282 145 C273 103 219 51 184 51 C166 51 151 68 151 87 C151 97 154 119 157 134 L214 403 L27 403 L18 361 L21 361 C51 361 64 349 64 322 C64 311 62 294 59 279 L27 130 C22 109 20 87 20 68 C20 19 60 -16 114 -16 C166 -16 217 11 264 63 C261 49 260 40 259 35 L255 11 L255 7 C253 -9 253 -9 253 -12 L253 -16 L259 -16 C287 -7 375 1 429 0 L438 42 L436 42 C410 42 400 50 400 72 C400 86 402 106 406 125 L465 403 Z M180 503 C192 535 210 550 235 550 C250 550 264 545 296 526 C326 509 344 503 365 503 C425 503 471 553 487 635 L457 635 C448 601 428 582 400 582 C387 582 376 586 356 598 C317 622 296 629 272 629 C212 629 168 583 151 503 L180 503 Z " />
<glyph glyph-name="Umacron" unicode="&#x16a;" horiz-adv-x="698" d="M523 667 L514 623 L519 623 C566 622 590 600 590 556 C590 545 588 530 584 511 L536 286 C518 199 510 174 493 147 C452 82 386 43 318 43 C252 43 202 89 202 149 L202 157 C203 188 206 206 220 275 L272 521 C290 604 309 625 366 623 L376 623 L385 667 L87 667 L78 623 L86 623 C130 623 144 612 144 575 C144 563 141 542 137 521 L80 254 C71 211 68 191 68 164 C68 53 146 -14 273 -14 C341 -14 407 7 460 46 C518 89 560 163 580 260 L636 519 C648 584 675 611 736 623 L743 623 L752 667 L523 667 Z M305 810 L294 758 L600 758 L612 810 L305 810 Z " />
<glyph glyph-name="umacron" unicode="&#x16b;" horiz-adv-x="514" d="M465 403 L289 403 L280 361 L285 361 C308 361 318 354 318 337 C318 326 314 299 310 279 L282 145 C273 103 219 51 184 51 C166 51 151 68 151 87 C151 97 154 119 157 134 L214 403 L27 403 L18 361 L21 361 C51 361 64 349 64 322 C64 311 62 294 59 279 L27 130 C22 109 20 87 20 68 C20 19 60 -16 114 -16 C166 -16 217 11 264 63 C261 49 260 40 259 35 L255 11 L255 7 C253 -9 253 -9 253 -12 L253 -16 L259 -16 C287 -7 375 1 429 0 L438 42 L436 42 C410 42 400 50 400 72 C400 86 402 106 406 125 L465 403 Z M167 541 L451 541 L461 590 L177 590 L167 541 Z " />
<glyph glyph-name="ubreve" unicode="&#x16d;" horiz-adv-x="514" d="M465 403 L289 403 L280 361 L285 361 C308 361 318 354 318 337 C318 326 314 299 310 279 L282 145 C273 103 219 51 184 51 C166 51 151 68 151 87 C151 97 154 119 157 134 L214 403 L27 403 L18 361 L21 361 C51 361 64 349 64 322 C64 311 62 294 59 279 L27 130 C22 109 20 87 20 68 C20 19 60 -16 114 -16 C166 -16 217 11 264 63 C257 29 253 -2 253 -16 L259 -16 C287 -7 375 1 429 0 L438 42 L436 42 C410 42 400 50 400 72 C400 86 402 106 406 125 L465 403 Z M184 648 C180 635 179 625 179 614 C179 586 187 560 203 535 C224 504 252 489 292 489 C371 489 444 555 469 648 L441 648 C413 596 370 571 312 571 C251 571 216 598 212 648 L184 648 Z " />
<glyph glyph-name="Uring" unicode="&#x16e;" horiz-adv-x="698" d="M523 667 L514 623 L519 623 C566 622 590 600 590 556 C590 545 588 530 584 511 L536 286 C518 199 510 174 493 147 C452 82 386 43 318 43 C252 43 202 89 202 149 L202 157 C203 188 206 206 220 275 L272 521 C290 604 309 625 366 623 L376 623 L385 667 L87 667 L78 623 L86 623 C130 623 144 612 144 575 C144 563 141 542 137 521 L80 254 C71 211 68 191 68 164 C68 53 146 -14 273 -14 C341 -14 407 7 460 46 C518 89 560 163 580 260 L636 519 C648 584 675 611 736 623 L743 623 L752 667 L523 667 Z M497 911 C428 911 364 849 364 782 C364 733 400 697 449 697 C518 697 582 759 582 826 C582 875 546 911 497 911 L497 911 Z M488 872 C519 872 542 849 542 818 C542 776 501 736 457 736 C427 736 404 759 404 789 C404 832 444 872 488 872 L488 872 Z " />
<glyph glyph-name="uring" unicode="&#x16f;" horiz-adv-x="514" d="M465 403 L289 403 L280 361 L285 361 C308 361 318 354 318 337 C318 326 314 299 310 279 L282 145 C273 103 219 51 184 51 C166 51 151 68 151 87 C151 97 154 119 157 134 L214 403 L27 403 L18 361 L21 361 C51 361 64 349 64 322 C64 311 62 294 59 279 L27 130 C22 109 20 87 20 68 C20 19 60 -16 114 -16 C166 -16 217 11 264 63 C261 49 260 40 259 35 L255 11 L255 7 C253 -9 253 -9 253 -12 L253 -16 L259 -16 C287 -7 375 1 429 0 L438 42 L436 42 C410 42 400 50 400 72 C400 86 402 106 406 125 L465 403 Z M350 682 C281 682 217 620 217 553 C217 505 254 469 302 469 C371 469 435 531 435 597 C435 646 399 682 350 682 L350 682 Z M341 643 C372 643 395 620 395 590 C395 547 354 508 310 508 C280 508 257 530 257 561 C257 604 297 643 341 643 L341 643 Z " />
<glyph glyph-name="Uhungarumlaut" unicode="&#x170;" horiz-adv-x="698" d="M523 667 L514 623 L519 623 C566 622 590 600 590 556 C590 545 588 530 584 511 L536 286 C518 199 510 174 493 147 C452 82 386 43 318 43 C252 43 202 89 202 149 L202 157 C203 188 206 206 220 275 L272 521 C290 604 309 625 366 623 L376 623 L385 667 L87 667 L78 623 L86 623 C130 623 144 612 144 575 C144 563 141 542 137 521 L80 254 C71 211 68 191 68 164 C68 53 146 -14 273 -14 C341 -14 407 7 460 46 C518 89 560 163 580 260 L636 519 C648 584 675 611 736 623 L743 623 L752 667 L523 667 Z M321 729 L354 729 L605 869 L607 877 L452 877 L321 729 Z M504 729 L537 729 L788 869 L790 877 L636 877 L504 729 Z " />
<glyph glyph-name="uhungarumlaut" unicode="&#x171;" horiz-adv-x="514" d="M465 403 L289 403 L280 361 L285 361 C308 361 318 354 318 337 C318 326 314 299 310 279 L282 145 C273 103 219 51 184 51 C166 51 151 68 151 87 C151 97 154 119 157 134 L214 403 L27 403 L18 361 L21 361 C51 361 64 349 64 322 C64 311 62 294 59 279 L27 130 C22 109 20 87 20 68 C20 19 60 -16 114 -16 C166 -16 217 11 264 63 C261 49 260 40 259 35 L255 11 L255 7 C253 -9 253 -9 253 -12 L253 -16 L259 -16 C287 -7 375 1 429 0 L438 42 L436 42 C410 42 400 50 400 72 C400 86 402 106 406 125 L465 403 Z M185 488 L219 488 L425 642 L427 649 L300 649 L185 488 Z M342 488 L376 488 L582 642 L584 649 L457 649 L342 488 Z " />
<glyph glyph-name="Uogonek" unicode="&#x172;" horiz-adv-x="698" d="M636 519 C648 584 675 611 736 623 L743 623 L752 667 L523 667 L514 623 L519 623 C566 622 590 600 590 556 C590 545 588 530 584 511 L536 286 C518 201 510 175 493 148 C452 83 386 44 318 44 C252 44 202 89 202 149 L202 158 C203 188 206 206 220 275 L272 521 C290 604 309 625 366 623 L376 623 L385 667 L87 667 L78 623 L86 623 C130 623 144 612 144 575 C144 563 141 542 137 521 L80 254 C70 210 68 191 68 164 C68 55 145 -13 270 -13 C310 -13 344 -7 381 5 C302 -37 264 -83 264 -134 C264 -180 297 -209 348 -209 C383 -209 410 -199 452 -171 L445 -150 C427 -159 417 -162 403 -162 C378 -162 361 -142 361 -113 C361 -61 390 -15 460 46 C514 84 560 165 580 260 L636 519 Z " />
<glyph glyph-name="uogonek" unicode="&#x173;" horiz-adv-x="514" d="M438 42 L436 42 C410 42 400 50 400 72 C400 86 402 106 406 125 L465 403 L289 403 L280 361 L285 361 C308 361 318 354 318 337 C318 326 314 299 310 279 L282 145 C273 103 219 51 184 51 C166 51 151 68 151 87 C151 97 154 119 157 134 L214 403 L27 403 L18 361 L21 361 C51 361 64 349 64 322 C64 311 62 294 59 279 L27 130 C22 109 20 87 20 68 C20 19 60 -16 114 -16 C166 -16 217 11 264 63 C261 49 260 40 259 35 L255 11 L255 7 C253 -9 253 -9 253 -12 L253 -16 L259 -16 C272 -12 285 -10 319 -6 C271 -35 239 -83 239 -125 C239 -166 266 -192 308 -192 C336 -192 360 -183 396 -158 L390 -137 C376 -145 369 -147 359 -147 C339 -147 326 -131 326 -107 C326 -77 339 -39 359 -10 C362 -6 363 -3 364 -2 C390 0 406 0 429 0 L438 42 Z " />
<glyph glyph-name="Wcircumflex" unicode="&#x174;" horiz-adv-x="847" d="M563 -14 L790 472 C846 592 868 620 910 623 L917 623 L927 667 L744 667 L735 623 L739 623 C766 623 785 607 785 584 C785 566 777 542 757 500 L619 201 L558 667 L504 667 L268 201 L246 529 L245 560 C245 606 259 621 304 623 L309 623 L318 667 L61 667 L52 623 L59 623 C101 621 107 608 113 511 L147 -14 L202 -14 L447 468 L510 -14 L563 -14 Z M494 879 L354 729 L386 729 L551 817 L697 729 L729 729 L651 879 L494 879 Z " />
<glyph glyph-name="Ycircumflex" unicode="&#x176;" horiz-adv-x="596" d="M59 667 L50 623 L55 623 C98 618 107 606 132 526 L209 267 L184 149 C167 66 148 44 95 44 L86 44 L77 0 L376 0 L386 44 L377 44 C342 44 325 57 325 85 C325 102 328 123 333 149 L360 277 L520 497 C589 589 622 618 664 623 L668 623 L678 667 L475 667 L466 623 L470 623 C503 623 519 611 519 587 C519 569 510 550 485 515 L353 332 L277 541 C270 558 266 576 266 584 C266 609 287 623 326 623 L331 623 L341 667 L59 667 Z M354 879 L214 729 L246 729 L411 817 L557 729 L589 729 L511 879 L354 879 Z " />
<glyph glyph-name="ycircumflex" unicode="&#x177;" horiz-adv-x="453" d="M9 403 L1 361 L7 360 C32 357 39 347 53 293 L137 -15 L108 -65 C82 -107 68 -116 7 -135 C-39 -149 -62 -174 -62 -208 C-62 -233 -45 -250 -20 -250 C24 -250 60 -215 123 -112 L344 251 C346 254 350 260 357 270 C367 284 378 301 389 317 C409 347 422 357 448 360 L456 361 L464 403 L317 403 L308 361 L316 361 L319 361 C333 361 347 350 347 340 C347 334 343 324 336 313 L318 285 L218 118 L177 301 C173 316 173 319 173 328 C173 349 183 359 206 360 L212 361 L221 403 L9 403 Z M375 489 L410 489 L358 652 L254 652 L130 489 L163 489 L286 578 L375 489 Z " />
<glyph glyph-name="Ydieresis" unicode="&#x178;" horiz-adv-x="596" d="M59 667 L50 623 L55 623 C98 618 107 606 132 526 L209 267 L184 149 C167 66 148 44 95 44 L86 44 L77 0 L376 0 L386 44 L377 44 C342 44 325 57 325 85 C325 102 328 123 333 149 L360 277 L520 497 C589 589 622 618 664 623 L668 623 L678 667 L475 667 L466 623 L470 623 C503 623 519 611 519 587 C519 569 510 550 485 515 L353 332 L277 541 C270 558 266 576 266 584 C266 609 287 623 326 623 L331 623 L341 667 L59 667 Z M302 862 C258 862 217 823 217 780 C217 749 240 726 271 726 C315 726 356 766 356 808 C356 839 333 862 302 862 L302 862 Z M545 862 C500 862 460 823 460 779 C460 749 483 726 514 726 C558 726 599 766 599 808 C599 839 576 862 545 862 L545 862 Z " />
<glyph glyph-name="Zacute" unicode="&#x179;" horiz-adv-x="598" d="M-41 0 L480 0 L534 190 L494 190 C431 70 395 45 285 47 L132 47 L610 630 L618 667 L133 667 L84 497 L122 497 C172 601 210 625 317 621 L445 621 L-34 35 L-41 0 Z M348 729 L381 729 L657 869 L659 877 L480 877 L348 729 Z " />
<glyph glyph-name="zacute" unicode="&#x17a;" horiz-adv-x="422" d="M-45 0 L313 0 L353 134 L315 134 C272 60 251 43 200 43 L113 43 L395 366 L403 403 L61 403 L27 283 L65 283 C107 353 115 361 148 360 L247 360 L-38 33 L-45 0 Z M226 488 L259 488 L491 642 L492 649 L340 649 L226 488 Z " />
<glyph glyph-name="Zdotaccent" unicode="&#x17b;" horiz-adv-x="598" d="M-41 0 L480 0 L534 190 L494 190 C431 70 395 45 285 47 L132 47 L610 630 L618 667 L133 667 L84 497 L122 497 C172 601 210 625 317 621 L445 621 L-34 35 L-41 0 Z M427 862 C383 862 342 823 342 780 C342 749 365 726 396 726 C440 726 481 766 481 808 C481 839 458 862 427 862 L427 862 Z " />
<glyph glyph-name="zdotaccent" unicode="&#x17c;" horiz-adv-x="422" d="M-45 0 L313 0 L353 134 L315 134 C272 60 251 43 200 43 L113 43 L395 366 L403 403 L61 403 L27 283 L65 283 C107 353 115 361 148 360 L247 360 L-38 33 L-45 0 Z M300 632 C261 632 225 598 225 560 C225 533 245 513 273 513 C312 513 348 548 348 585 C348 612 328 632 300 632 L300 632 Z " />
<glyph glyph-name="Zcaron" unicode="&#x17d;" horiz-adv-x="598" d="M-41 0 L480 0 L534 190 L494 190 C431 70 395 45 285 47 L132 47 L610 630 L618 667 L133 667 L84 497 L122 497 C172 601 210 625 317 621 L445 621 L-34 35 L-41 0 Z M475 729 L617 879 L585 879 L420 791 L274 879 L242 879 L318 729 L475 729 Z " />
<glyph glyph-name="zcaron" unicode="&#x17e;" horiz-adv-x="422" d="M-45 0 L313 0 L353 134 L315 134 C272 60 251 43 200 43 L113 43 L395 366 L403 403 L61 403 L27 283 L65 283 C107 353 115 361 148 360 L247 360 L-38 33 L-45 0 Z M191 655 L158 655 L213 491 L318 491 L438 655 L402 655 L284 566 L191 655 Z " />
<glyph glyph-name="florin" unicode="&#x192;" horiz-adv-x="477" d="M355 444 C369 483 378 514 386 551 C397 605 405 627 419 645 C429 657 441 665 452 665 C457 665 461 662 461 657 C461 653 459 647 455 639 C449 625 446 614 446 607 C446 589 457 577 474 577 C503 577 529 607 529 641 C529 670 507 688 470 688 C411 688 362 645 311 548 C258 455 249 448 179 444 L159 393 L228 393 L224 383 L220 374 L180 275 C100 79 86 41 64 -36 C51 -82 29 -149 22 -162 C16 -175 1 -187 -8 -187 C-13 -187 -17 -183 -17 -179 L-17 -177 L-15 -172 L-15 -171 L-14 -160 C-12 -147 -12 -147 -12 -141 C-12 -125 -24 -114 -42 -114 C-69 -114 -95 -143 -95 -172 C-95 -198 -73 -217 -43 -217 C16 -217 88 -154 142 -57 C181 14 223 107 271 230 L336 393 L407 393 L428 444 L355 444 Z " />
<glyph glyph-name="uni01CD" unicode="&#x1cd;" horiz-adv-x="591" d="M532 0 L542 44 L537 44 C495 50 486 65 470 157 L388 678 L348 678 L55 170 C9 87 -27 50 -67 44 L-74 44 L-83 0 L109 0 L118 44 L111 44 C82 44 63 58 63 81 C63 98 70 113 102 170 L121 202 L320 202 L332 128 C334 111 336 93 336 82 C336 56 315 44 271 44 L265 44 L256 0 L532 0 Z M314 247 L146 247 L277 475 L314 247 Z M456 729 L598 879 L567 879 L401 791 L256 879 L224 879 L300 729 L456 729 Z " />
<glyph glyph-name="uni01CE" unicode="&#x1ce;" horiz-adv-x="480" d="M394 84 C386 62 373 49 358 49 C349 49 341 58 341 70 C341 78 343 91 347 108 L385 287 C392 322 392 322 392 334 C392 390 345 419 256 419 C188 419 131 404 90 376 C59 354 42 329 42 305 C42 285 56 272 77 272 C105 272 124 288 137 322 C152 361 171 375 208 375 C247 375 266 362 266 335 C266 327 264 311 261 298 L255 267 L216 252 C91 201 38 172 11 139 C-11 113 -22 86 -22 59 C-22 18 9 -10 56 -10 C105 -10 158 9 214 49 C223 11 252 -10 299 -10 C361 -10 408 26 423 84 L394 84 Z M245 223 L218 93 C186 64 161 50 142 50 C124 50 112 66 112 89 C112 134 155 185 217 211 L245 223 Z M208 655 L175 655 L231 491 L335 491 L455 655 L420 655 L301 566 L208 655 Z " />
<glyph glyph-name="uni01D3" unicode="&#x1d3;" horiz-adv-x="698" d="M523 667 L514 623 L519 623 C566 622 590 600 590 556 C590 545 588 530 584 511 L536 286 C518 199 510 174 493 147 C452 82 386 43 318 43 C252 43 202 89 202 149 L202 157 C203 188 206 206 220 275 L272 521 C290 604 309 625 366 623 L376 623 L385 667 L87 667 L78 623 L86 623 C130 623 144 612 144 575 C144 563 141 542 137 521 L80 254 C71 211 68 191 68 164 C68 53 146 -14 273 -14 C341 -14 407 7 460 46 C518 89 560 163 580 260 L636 519 C648 584 675 611 736 623 L743 623 L752 667 L523 667 Z M532 729 L675 879 L643 879 L478 791 L332 879 L300 879 L376 729 L532 729 Z " />
<glyph glyph-name="uni01D4" unicode="&#x1d4;" horiz-adv-x="514" d="M465 403 L289 403 L280 361 L285 361 C308 361 318 354 318 337 C318 326 314 299 310 279 L282 145 C273 103 219 51 184 51 C166 51 151 68 151 87 C151 97 154 119 157 134 L214 403 L27 403 L18 361 L21 361 C51 361 64 349 64 322 C64 311 62 294 59 279 L27 130 C22 109 20 87 20 68 C20 19 60 -16 114 -16 C166 -16 217 11 264 63 C261 49 260 40 259 35 L255 11 L255 7 C253 -9 253 -9 253 -12 L253 -16 L259 -16 C287 -7 375 1 429 0 L438 42 L436 42 C410 42 400 50 400 72 C400 86 402 106 406 125 L465 403 Z M230 655 L197 655 L253 491 L357 491 L477 655 L442 655 L324 566 L230 655 Z " />
<glyph glyph-name="Gcaron" unicode="&#x1e6;" horiz-adv-x="704" d="M406 300 L396 256 L406 256 C447 254 460 243 460 211 C460 203 459 194 457 186 L452 161 C435 84 379 36 306 36 C232 36 189 86 189 173 C189 266 226 418 269 506 C305 578 374 625 442 625 C529 625 581 558 581 448 L581 436 L623 436 L668 667 L626 667 C618 639 608 618 592 595 C550 653 494 680 420 680 C313 680 213 627 134 527 C66 440 28 339 28 241 C28 88 125 -14 271 -14 C307 -14 352 -8 387 2 C473 27 509 34 545 34 C549 34 553 34 564 32 L588 149 C606 236 613 246 663 255 L670 256 L679 300 L406 300 Z M517 729 L659 879 L627 879 L462 791 L316 879 L284 879 L360 729 L517 729 Z " />
<glyph glyph-name="gcaron" unicode="&#x1e7;" horiz-adv-x="464" d="M188 -52 C246 -52 272 -67 272 -101 C272 -163 206 -208 113 -208 C48 -208 4 -183 4 -147 C4 -133 11 -106 19 -87 C20 -85 20 -85 20 -83 C7 -77 0 -75 -9 -75 C-43 -75 -74 -113 -74 -154 C-74 -216 -15 -249 96 -249 C174 -249 232 -233 278 -199 C328 -163 358 -105 358 -47 C358 22 311 56 218 56 C213 56 213 56 184 55 L180 55 L159 55 C147 56 136 56 133 56 C93 56 76 63 76 78 C76 106 107 121 168 124 C234 127 277 140 314 168 C357 202 384 255 384 307 C384 322 382 333 377 348 C388 360 397 365 406 365 C413 365 417 362 423 350 C430 339 436 334 445 334 C466 334 483 356 483 383 C483 405 470 418 447 418 C424 418 401 406 361 373 C333 405 295 419 239 419 C118 419 26 344 26 245 C26 195 52 156 96 139 C25 121 -14 81 -14 23 C-14 6 -9 -9 0 -19 C19 -40 67 -53 130 -53 C132 -53 151 -53 164 -52 L188 -52 Z M227 376 C247 376 262 355 262 325 C262 297 252 251 238 219 C226 188 204 169 184 169 C162 169 149 187 149 219 C149 244 155 279 164 307 C179 352 201 376 227 376 L227 376 Z M189 655 L156 655 L212 491 L316 491 L436 655 L401 655 L283 566 L189 655 Z " />
<glyph glyph-name="Scommaaccent" unicode="&#x218;" horiz-adv-x="503" d="M-18 10 L25 10 C34 36 44 54 54 67 C83 17 136 -13 199 -13 C330 -13 444 103 444 237 C444 316 412 356 297 420 C227 459 205 485 205 526 C205 584 251 632 306 632 C370 632 409 574 410 478 L449 478 L489 667 L449 667 L448 664 L445 657 C439 641 432 630 421 617 C393 658 352 679 304 679 C185 679 81 570 81 446 C81 370 108 337 228 262 C286 226 309 197 309 157 C309 94 252 37 189 37 C113 37 72 101 72 220 L72 233 L29 233 L-18 10 Z M42 -327 C152 -317 233 -236 233 -136 C233 -87 209 -59 166 -59 C118 -59 77 -99 77 -146 C77 -173 96 -194 122 -194 C127 -194 133 -193 139 -192 C153 -188 153 -188 156 -188 C163 -188 168 -194 168 -204 C168 -241 116 -277 51 -284 L42 -327 Z " />
<glyph glyph-name="scommaaccent" unicode="&#x219;" horiz-adv-x="375" d="M-36 -12 L-4 -12 C4 2 12 12 21 20 C25 19 26 18 31 15 C57 -6 89 -16 126 -16 C223 -16 301 59 301 154 C301 184 292 210 275 228 C257 246 251 249 182 272 C142 285 122 303 122 326 C122 356 154 382 192 382 C240 382 274 346 277 291 L309 291 L335 414 L305 414 C296 400 289 392 282 386 C251 406 212 420 187 420 C102 420 24 346 24 266 C24 223 55 184 107 164 C173 138 173 138 188 122 C195 114 199 104 199 93 C199 55 162 25 117 25 C64 25 32 60 27 122 L-8 122 L-36 -12 Z M-10 -301 C84 -294 160 -219 160 -133 C160 -88 136 -62 95 -62 C53 -62 17 -95 17 -133 C17 -157 35 -174 58 -174 C63 -174 69 -173 74 -172 C87 -169 87 -169 90 -169 C98 -169 103 -175 103 -185 C103 -219 54 -257 -3 -266 L-10 -301 Z " />
<glyph glyph-name="uni021A" unicode="&#x21a;" horiz-adv-x="624" d="M86 487 C127 599 151 620 238 620 L297 620 L197 149 C179 65 161 44 108 44 L89 44 L79 0 L400 0 L409 44 L391 44 C353 44 337 56 337 87 C337 101 340 125 345 149 L445 620 L507 620 C543 620 567 614 578 604 C593 589 603 552 603 509 L603 487 L642 487 L680 667 L85 667 L46 487 L86 487 Z M100 -327 C210 -317 291 -236 291 -137 C291 -87 267 -59 224 -59 C176 -59 135 -99 135 -146 C135 -173 154 -194 180 -194 C187 -194 190 -194 206 -190 C212 -188 212 -188 214 -188 C221 -188 226 -195 226 -204 C226 -241 174 -277 109 -284 L100 -327 Z " />
<glyph glyph-name="uni021B" unicode="&#x21b;" horiz-adv-x="303" d="M298 359 L307 403 L199 403 L227 534 L191 534 C162 456 99 402 37 402 C37 402 33 402 29 403 L20 359 L71 359 L21 127 C16 102 14 87 14 74 C14 18 47 -16 102 -16 C163 -16 217 15 249 68 L219 82 C197 52 181 41 160 41 C145 41 132 56 132 73 C132 83 134 97 143 139 L190 359 L298 359 Z M-34 -301 C60 -294 137 -219 137 -133 C137 -88 113 -62 72 -62 C30 -62 -6 -95 -6 -133 C-6 -157 12 -174 35 -174 C40 -174 46 -173 52 -172 C64 -169 64 -169 67 -169 C75 -169 80 -175 80 -185 C80 -219 31 -257 -27 -266 L-34 -301 Z " />
<glyph glyph-name="afii57929" unicode="&#x2bc;" horiz-adv-x="283" d="M69 355 C184 364 275 466 275 587 C275 642 249 675 203 675 C155 675 112 631 112 580 C112 549 132 527 160 527 C166 527 173 528 179 530 C186 532 191 533 194 533 C201 533 206 526 206 516 C206 464 147 411 79 403 L69 355 Z " />
<glyph glyph-name="circumflex" unicode="&#x2c6;" horiz-adv-x="478" d="M377 489 L412 489 L360 652 L256 652 L132 489 L165 489 L288 578 L377 489 Z " />
<glyph glyph-name="caron" unicode="&#x2c7;" horiz-adv-x="478" d="M200 655 L167 655 L223 491 L327 491 L447 655 L412 655 L294 566 L200 655 Z " />
<glyph glyph-name="uni02C9" unicode="&#x2c9;" horiz-adv-x="350" d="M78 541 L362 541 L372 590 L88 590 L78 541 Z " />
<glyph glyph-name="breve" unicode="&#x2d8;" horiz-adv-x="479" d="M161 648 C158 636 157 626 157 615 C157 541 204 489 270 489 C348 489 422 556 446 648 L419 648 C390 596 347 571 289 571 C229 571 194 597 189 648 L161 648 Z " />
<glyph glyph-name="dotaccent" unicode="&#x2d9;" horiz-adv-x="462" d="M295 632 C257 632 221 598 221 560 C221 533 241 513 269 513 C307 513 343 548 343 585 C343 612 323 632 295 632 L295 632 Z " />
<glyph glyph-name="ring" unicode="&#x2da;" horiz-adv-x="500" d="M323 682 C254 682 190 620 190 554 C190 505 227 469 275 469 C344 469 408 531 408 598 C408 646 372 682 323 682 L323 682 Z M314 643 C345 643 368 620 368 590 C368 547 327 508 283 508 C253 508 230 531 230 561 C230 604 270 643 314 643 L314 643 Z " />
<glyph glyph-name="ogonek" unicode="&#x2db;" horiz-adv-x="500" d="M251 8 C183 -24 142 -74 142 -125 C142 -166 169 -192 211 -192 C240 -192 264 -183 299 -158 L293 -137 C279 -145 272 -147 262 -147 C242 -147 229 -131 229 -107 C229 -71 244 -34 275 8 L251 8 Z " />
<glyph glyph-name="tilde" unicode="&#x2dc;" horiz-adv-x="481" d="M149 503 C162 536 179 550 204 550 C220 550 234 545 265 526 C295 509 313 503 334 503 C394 503 440 553 457 635 L426 635 C416 600 397 582 369 582 C356 582 345 586 325 598 C285 622 265 629 241 629 C181 629 137 583 120 503 L149 503 Z " />
<glyph glyph-name="hungarumlaut" unicode="&#x2dd;" horiz-adv-x="471" d="M137 488 L171 488 L377 642 L379 649 L251 649 L137 488 Z M294 488 L328 488 L534 642 L535 649 L408 649 L294 488 Z " />
<glyph glyph-name="Wdieresis" unicode="&#x1e84;" horiz-adv-x="847" d="M563 -14 L790 472 C846 592 868 620 910 623 L917 623 L927 667 L744 667 L735 623 L739 623 C766 623 785 607 785 584 C785 566 777 542 757 500 L619 201 L558 667 L504 667 L268 201 L246 529 L245 560 C245 606 259 621 304 623 L309 623 L318 667 L61 667 L52 623 L59 623 C101 621 107 608 113 511 L147 -14 L202 -14 L447 468 L510 -14 L563 -14 Z M451 862 C407 862 366 823 366 780 C366 749 389 726 420 726 C464 726 505 766 505 808 C505 839 482 862 451 862 L451 862 Z M693 862 C649 862 609 823 609 779 C609 749 632 726 663 726 C706 726 747 765 747 808 C747 839 724 862 693 862 L693 862 Z " />
<glyph glyph-name="uni2011" unicode="&#x2011;" horiz-adv-x="302" d="M11 247 L-3 182 L243 182 L257 247 L11 247 Z " />
<glyph glyph-name="figuredash" unicode="&#x2012;" horiz-adv-x="500" d="M-1 243 L-12 193 L452 193 L462 243 L-1 243 Z " />
<glyph glyph-name="endash" unicode="&#x2013;" horiz-adv-x="500" d="M-1 243 L-12 193 L452 193 L462 243 L-1 243 Z " />
<glyph glyph-name="emdash" unicode="&#x2014;" horiz-adv-x="789" d="M-1 243 L-12 193 L741 193 L751 243 L-1 243 Z " />
<glyph glyph-name="afii00208" unicode="&#x2015;" horiz-adv-x="789" d="M-1 243 L-12 193 L741 193 L751 243 L-1 243 Z " />
<glyph glyph-name="quoteleft" unicode="&#x2018;" horiz-adv-x="283" d="M294 675 C178 666 88 565 88 443 C88 388 114 355 160 355 C208 355 251 400 251 450 C251 482 231 504 203 504 C197 504 190 503 184 501 C178 498 172 497 169 497 C162 497 157 504 157 514 C157 566 216 619 284 627 L294 675 Z " />
<glyph glyph-name="quoteright" unicode="&#x2019;" horiz-adv-x="254" d="M55 355 C170 364 261 466 261 587 C261 642 235 675 189 675 C141 675 98 631 98 580 C98 549 118 527 146 527 C152 527 159 528 165 530 C172 532 177 533 180 533 C187 533 192 526 192 516 C192 464 133 411 65 403 L55 355 Z " />
<glyph glyph-name="quotesinglbase" unicode="&#x201a;" horiz-adv-x="277" d="M-46 -186 C65 -178 154 -75 154 46 C154 101 129 133 86 133 C38 133 -3 88 -3 37 C-3 6 15 -15 42 -15 C48 -15 54 -14 60 -12 C66 -10 71 -9 74 -9 C80 -9 85 -16 85 -26 C85 -77 29 -130 -36 -139 L-46 -186 Z " />
<glyph glyph-name="quotedblleft" unicode="&#x201c;" horiz-adv-x="503" d="M291 675 C175 666 85 565 85 443 C85 388 111 355 157 355 C205 355 248 400 248 450 C248 482 228 504 200 504 C194 504 187 503 181 501 C175 498 169 497 166 497 C159 497 154 504 154 514 C154 566 213 619 281 627 L291 675 Z M520 675 C404 666 314 564 314 444 C314 388 340 355 386 355 C434 355 477 400 477 450 C477 482 457 504 429 504 C423 504 416 503 409 500 C403 498 397 497 394 497 C388 497 382 504 382 513 C382 566 440 619 509 627 L520 675 Z " />
<glyph glyph-name="quotedblright" unicode="&#x201d;" horiz-adv-x="503" d="M60 355 C175 364 266 466 266 587 C266 642 240 675 194 675 C146 675 103 631 103 580 C103 549 123 527 151 527 C157 527 164 528 170 530 C177 532 182 533 185 533 C192 533 197 526 197 516 C197 464 138 411 70 403 L60 355 Z M290 355 C405 364 496 466 496 586 C496 642 470 675 424 675 C376 675 333 631 333 580 C333 549 353 527 381 527 C387 527 394 528 400 530 C407 532 412 533 415 533 C422 533 427 526 427 516 C427 464 368 411 300 403 L290 355 Z " />
<glyph glyph-name="quotedblbase" unicode="&#x201e;" horiz-adv-x="497" d="M-58 -186 C54 -177 142 -75 142 47 C142 100 116 134 75 134 C27 134 -15 88 -15 37 C-15 7 3 -15 28 -15 C34 -15 41 -14 48 -12 C52 -11 56 -10 57 -10 C59 -10 61 -9 61 -9 L64 -8 C70 -8 74 -15 74 -23 C74 -76 17 -130 -48 -139 L-58 -186 Z M172 -186 C284 -177 372 -75 372 47 C372 100 346 134 305 134 C257 134 215 89 215 37 C215 7 233 -15 258 -15 C263 -15 270 -14 278 -12 C282 -11 286 -10 287 -10 C289 -10 291 -9 291 -9 L294 -8 C299 -8 304 -17 304 -23 C304 -45 288 -77 268 -97 C244 -121 216 -134 182 -139 L172 -186 Z " />
<glyph glyph-name="dagger" unicode="&#x2020;" horiz-adv-x="450" d="M127 -243 L154 -118 C164 -71 203 85 214 119 C256 264 263 298 263 353 C263 357 263 361 262 365 L262 371 L262 373 C262 376 262 380 264 388 C278 385 291 381 302 375 C344 353 357 349 379 349 C415 349 446 386 446 429 C446 455 430 473 406 473 C390 473 360 466 336 455 C299 439 293 437 271 433 C275 442 276 444 277 447 C280 451 282 456 284 461 L288 469 L298 490 C301 495 302 498 309 511 C337 567 347 597 347 624 C347 656 329 675 299 675 C251 675 217 627 217 558 C217 546 218 530 219 512 C220 504 220 497 221 490 L222 469 C223 456 223 449 223 447 L223 441 L224 433 C204 436 202 436 164 456 C144 466 120 473 107 473 C72 473 42 435 42 392 C42 367 59 350 83 350 C99 350 132 359 161 371 C185 381 197 385 214 388 C212 376 211 374 204 363 C187 332 169 270 160 209 L154 170 C152 153 149 137 146 123 C145 117 144 110 142 104 C141 95 137 74 133 44 C124 -24 110 -102 92 -190 L80 -243 L127 -243 Z " />
<glyph glyph-name="daggerdbl" unicode="&#x2021;" horiz-adv-x="462" d="M240 255 C242 265 245 272 248 279 C268 325 276 355 276 387 C276 401 275 411 272 427 C291 421 306 415 315 411 C356 391 366 388 387 388 C424 388 455 424 455 468 C455 496 438 512 409 512 C393 512 373 507 342 494 C309 480 299 477 282 473 C287 488 296 509 310 533 C340 590 348 610 348 634 C348 661 331 677 305 677 C262 677 232 641 232 590 C232 579 233 561 236 541 C239 519 241 492 241 483 L241 473 C228 475 216 480 201 487 C154 509 145 512 123 512 C87 512 55 475 55 433 C55 407 71 388 94 388 C111 388 135 394 159 403 C192 416 211 422 231 427 C201 373 194 350 194 307 C194 279 194 276 191 255 L240 255 Z M174 178 C169 157 163 139 154 117 C140 81 136 68 136 50 C136 36 137 25 141 5 C130 7 115 12 96 21 C51 42 44 44 23 44 C-12 44 -44 6 -44 -35 C-44 -62 -27 -80 -1 -80 C16 -80 38 -74 81 -56 C103 -47 121 -42 132 -40 C128 -54 117 -76 97 -111 C74 -151 64 -177 64 -201 C64 -228 82 -245 111 -245 C152 -245 181 -207 181 -154 C181 -146 180 -128 179 -122 C173 -72 173 -69 173 -52 L173 -40 C183 -42 198 -48 230 -62 C250 -72 274 -79 288 -79 C325 -79 357 -42 357 1 C357 27 340 45 316 45 C301 45 279 40 257 31 C231 20 217 15 183 5 C209 45 217 69 218 114 C218 141 220 157 223 178 L174 178 Z " />
<glyph glyph-name="bullet" unicode="&#x2022;" horiz-adv-x="600" d="M332 480 C251 480 174 396 174 308 C174 245 215 200 270 200 C352 200 428 283 428 373 C428 435 388 480 332 480 L332 480 Z " />
<glyph glyph-name="ellipsis" unicode="&#x2026;" horiz-adv-x="906" d="M109 136 C64 136 21 90 21 42 C21 8 44 -17 75 -17 C121 -17 163 28 163 77 C163 111 141 136 109 136 L109 136 Z M409 136 C364 136 321 90 321 42 C321 8 344 -17 375 -17 C421 -17 463 28 463 77 C463 111 441 136 409 136 L409 136 Z M710 136 C665 136 622 90 622 42 C622 8 644 -17 676 -17 C721 -17 763 28 763 77 C763 111 741 136 710 136 L710 136 Z " />
<glyph glyph-name="perthousand" unicode="&#x2030;" horiz-adv-x="992" d="M241 679 C190 679 152 660 118 617 C81 570 59 509 59 449 C59 375 96 334 163 334 C211 334 252 355 284 396 C321 442 341 502 341 561 C341 637 305 679 241 679 L241 679 Z M231 646 C244 646 254 631 254 612 C254 556 226 434 205 396 C195 377 183 368 171 368 C155 368 147 382 147 408 C147 460 178 586 200 626 C207 637 220 646 231 646 L231 646 Z M140 0 L589 660 L537 660 L89 0 L140 0 Z M518 333 C468 333 430 313 396 271 C359 224 337 163 337 103 C337 29 374 -12 441 -12 C489 -12 530 9 562 50 C599 96 619 156 619 215 C619 291 583 333 518 333 L518 333 Z M508 300 C522 300 532 285 532 265 C532 210 504 88 483 50 C473 31 461 22 449 22 C433 22 425 36 425 62 C425 80 425 82 433 123 C451 220 459 246 478 280 C485 291 498 300 508 300 L508 300 Z M832 333 C782 333 743 313 709 271 C673 224 651 162 651 103 C651 29 688 -12 755 -12 C803 -12 844 9 875 50 C912 96 932 156 932 215 C932 291 896 333 832 333 L832 333 Z M821 300 C834 300 844 285 844 265 C844 209 817 88 796 50 C786 31 775 22 763 22 C747 22 739 36 739 62 C739 114 769 241 791 280 C798 291 810 300 821 300 L821 300 Z " />
<glyph glyph-name="guilsinglleft" unicode="&#x2039;" horiz-adv-x="264" d="M0 216 L128 8 L169 8 L132 216 L257 423 L215 423 L0 216 Z " />
<glyph glyph-name="guilsinglright" unicode="&#x203a;" horiz-adv-x="264" d="M212 216 L84 423 L43 423 L79 216 L-46 8 L-5 8 L212 216 Z " />
<glyph glyph-name="uni203E" unicode="&#x203e;" horiz-adv-x="500" d="M110 847 L101 807 L601 807 L610 847 L110 847 Z " />
<glyph glyph-name="fraction" unicode="&#x2044;" horiz-adv-x="147" d="M-125 0 L323 660 L272 660 L-177 0 L-125 0 Z " />
<glyph glyph-name="franc" unicode="&#x20a3;" horiz-adv-x="770" d="M585 667 L96 667 L87 624 L96 624 C139 624 151 614 151 578 C151 565 148 547 143 521 L64 149 C46 66 28 44 -25 44 L-37 44 L-46 0 L262 0 L272 44 L258 44 C217 44 204 56 204 94 C204 107 206 121 212 149 L249 326 L295 326 C338 326 349 316 349 277 C349 264 348 250 345 237 L344 230 L384 230 L434 461 L393 461 L391 454 C372 388 358 374 306 373 L259 373 L312 621 L408 621 C447 621 472 616 483 604 C501 586 513 548 513 506 L513 494 L553 494 L585 667 Z M441 293 L446 293 C471 293 480 285 480 264 C480 250 478 231 475 217 L453 115 C438 50 430 40 393 39 L388 39 L380 0 L603 0 L611 39 L603 39 C576 39 567 47 567 70 C567 81 569 99 572 115 L579 145 C593 208 603 235 628 265 C643 284 658 294 672 294 C681 294 688 288 694 274 C705 250 712 243 728 243 C758 243 784 276 784 313 C784 346 764 367 734 367 C689 367 639 332 601 273 C606 300 608 319 608 340 C608 351 608 356 606 367 C521 346 481 337 449 331 L441 293 Z " />
<glyph glyph-name="Euro" unicode="&#x20ac;" horiz-adv-x="733" d="M268 381 C282 433 296 472 313 503 C356 585 416 628 485 628 C535 628 582 602 601 564 C620 524 628 481 628 412 L667 412 L714 661 L675 661 C673 659 673 658 672 654 C666 638 656 618 640 593 C601 651 543 679 464 679 C308 679 162 559 102 381 L59 381 L32 335 L88 335 L86 324 C86 322 85 317 83 307 L43 307 L16 261 L78 261 C78 204 82 170 95 131 C125 43 210 -13 315 -13 C396 -13 474 19 535 76 C543 59 547 39 547 10 L586 10 L638 254 L599 254 C572 182 527 114 486 85 C448 56 403 40 362 40 C286 40 238 99 238 193 C238 211 240 235 243 261 L434 261 L461 307 L251 307 C252 316 254 322 257 335 L478 335 L505 381 L268 381 Z " />
<glyph glyph-name="trademark" unicode="&#x2122;" horiz-adv-x="842" d="M378 565 L399 667 L84 667 L62 565 L79 565 C95 624 116 643 163 643 L187 643 L124 348 C116 312 111 307 84 305 L69 305 L65 287 L256 287 L260 305 L246 305 C228 305 220 310 220 322 C220 328 221 339 223 348 L286 643 L310 643 C349 643 363 630 363 593 C363 583 362 577 360 565 L378 565 Z M413 667 L409 649 C441 648 450 645 449 634 C449 630 448 625 447 620 L389 347 C383 318 370 308 338 305 L334 287 L449 287 L453 305 C428 308 417 316 417 331 C417 337 417 341 419 347 L475 613 L531 287 L545 287 L735 603 L680 347 C673 314 666 307 640 305 L629 305 L625 287 L804 287 L808 305 L797 305 C782 305 774 311 774 321 C774 327 775 339 777 347 L832 607 C840 641 846 647 870 649 L883 649 L887 667 L747 667 L599 420 L557 667 L413 667 Z " />
<glyph glyph-name="uni2126" unicode="&#x2126;" horiz-adv-x="768" d="M326 0 L308 155 C230 199 180 288 180 383 C180 434 196 493 221 540 C257 605 316 642 385 642 C454 642 513 605 549 540 C575 493 590 435 590 381 C590 288 540 199 462 155 L444 0 L736 0 L736 153 L712 153 C704 108 684 90 643 90 L497 90 L500 128 C535 141 557 151 580 166 C657 215 702 296 702 382 C702 449 673 522 625 578 C564 648 480 686 385 686 C290 686 206 648 145 578 C97 522 68 448 68 382 C68 296 114 215 190 166 C213 151 234 141 270 128 L273 90 L127 90 C86 90 66 108 58 153 L34 153 L34 0 L326 0 Z " />
<glyph glyph-name="partialdiff" unicode="&#x2202;" horiz-adv-x="494" d="M107 674 C152 697 184 706 219 706 C321 706 379 611 379 448 C379 418 377 395 372 346 C308 396 272 412 221 412 C172 412 131 394 95 355 C51 309 26 246 26 184 C26 76 109 -10 213 -10 C282 -10 341 23 383 84 C429 152 462 286 462 403 C462 519 428 611 360 681 C312 730 259 753 194 753 C155 753 121 746 66 725 L107 674 Z M366 312 C350 201 340 158 314 107 C288 54 245 21 201 21 C147 21 113 74 113 159 C113 273 180 367 261 367 C299 367 324 354 366 312 L366 312 Z " />
<glyph glyph-name="Delta" unicode="&#x2206;" horiz-adv-x="612" d="M6 0 L608 0 L327 688 L6 0 Z M77 51 L290 509 L479 51 L77 51 Z " />
<glyph glyph-name="product" unicode="&#x220f;" horiz-adv-x="823" d="M25 -124 L315 -124 L315 -98 L312 -98 C242 -94 221 -67 224 18 L224 594 C224 656 228 677 242 690 C260 707 271 708 413 708 C557 708 567 707 586 690 C600 677 604 656 604 594 L604 18 C607 -67 586 -94 516 -98 L513 -98 L513 -124 L803 -124 L803 -98 L800 -98 C730 -94 709 -67 712 18 L712 609 C709 694 730 721 800 725 L803 725 L803 751 L25 751 L25 725 L28 725 C98 721 119 694 116 609 L116 18 C119 -67 98 -94 28 -98 L25 -98 L25 -124 Z " />
<glyph glyph-name="summation" unicode="&#x2211;" horiz-adv-x="713" d="M176 711 L444 711 C560 710 590 688 606 587 L632 587 L622 752 L23 752 L256 285 L14 -123 L641 -123 L695 87 L669 87 C639 7 605 -12 491 -11 L163 -11 L364 341 L176 711 Z " />
<glyph glyph-name="minus" unicode="&#x2212;" horiz-adv-x="450" d="M22 396 L6 323 L440 323 L455 396 L22 396 Z " />
<glyph glyph-name="uni2215" unicode="&#x2215;" horiz-adv-x="147" d="M-125 0 L323 660 L272 660 L-177 0 L-125 0 Z " />
<glyph glyph-name="uni2219" unicode="&#x2219;" horiz-adv-x="258" d="M141 410 C96 410 53 364 53 315 C53 281 76 256 107 256 C152 256 195 302 195 351 C195 385 172 410 141 410 L141 410 Z " />
<glyph glyph-name="radical" unicode="&#x221a;" horiz-adv-x="549" d="M363 -35 L515 908 L480 913 L353 123 L156 520 L10 449 L26 414 L121 461 L363 -35 Z " />
<glyph glyph-name="infinity" unicode="&#x221e;" horiz-adv-x="713" d="M357 303 C300 375 234 414 171 414 C87 414 26 351 26 263 C26 176 84 115 167 115 C224 115 282 143 327 192 C335 201 340 207 357 228 C415 156 485 115 549 115 C631 115 688 176 688 266 C688 354 629 414 543 414 C476 414 412 376 357 303 L357 303 Z M391 265 C434 325 493 362 546 362 C600 362 638 321 638 264 C638 205 603 167 549 167 C495 167 461 188 391 265 L391 265 Z M324 266 C275 203 216 167 163 167 C111 167 76 208 76 266 C76 323 113 362 167 362 C218 362 259 337 324 266 L324 266 Z " />
<glyph glyph-name="integral" unicode="&#x222b;" horiz-adv-x="274" d="M180 576 C180 653 179 691 176 746 C174 774 173 800 173 815 C173 855 184 878 202 878 C208 878 213 876 215 872 C232 845 239 839 256 839 C276 839 291 853 291 871 C291 898 267 916 231 916 C186 916 152 887 138 838 C123 784 113 682 113 577 L113 232 C113 160 114 124 117 63 C119 34 120 4 120 -12 C120 -47 108 -70 89 -70 C81 -70 75 -65 68 -52 C59 -35 51 -30 37 -30 C17 -30 2 -44 2 -63 C2 -89 26 -107 62 -107 C107 -107 141 -79 155 -29 C170 25 180 126 180 232 L180 576 Z " />
<glyph glyph-name="approxequal" unicode="&#x2248;" horiz-adv-x="549" d="M489 251 C444 199 423 187 384 187 C365 187 354 190 285 211 C212 234 188 239 160 239 C101 239 54 212 14 155 L57 121 C103 174 120 184 159 184 C180 184 180 184 271 157 C350 133 354 132 385 132 C449 132 496 160 527 217 L489 251 Z M489 408 C443 356 424 344 384 344 C365 344 354 347 285 369 C211 392 188 397 160 397 C101 397 54 369 14 312 L57 279 C104 332 119 342 159 342 C181 342 181 342 271 315 C351 290 354 289 385 289 C449 289 496 318 527 375 L489 408 Z " />
<glyph glyph-name="notequal" unicode="&#x2260;" horiz-adv-x="549" d="M187 142 L115 -1 L161 -25 L246 142 L540 142 L540 197 L273 197 L344 336 L540 336 L540 391 L371 391 L439 525 L392 549 L312 391 L15 391 L15 336 L285 336 L215 197 L15 197 L15 142 L187 142 Z " />
<glyph glyph-name="lessequal" unicode="&#x2264;" horiz-adv-x="549" d="M467 55 L-30 55 L-42 0 L455 0 L467 55 Z M591 639 L44 405 L32 350 L480 117 L493 179 L117 378 L578 577 L591 639 Z " />
<glyph glyph-name="greaterequal" unicode="&#x2265;" horiz-adv-x="549" d="M467 55 L-30 55 L-42 0 L455 0 L467 55 Z M94 639 L81 577 L457 378 L-4 179 L-17 117 L529 350 L541 405 L94 639 Z " />
<glyph glyph-name="lozenge" unicode="&#x25ca;" horiz-adv-x="494" d="M209 0 L269 -1 L466 374 L277 740 L214 740 L18 377 L209 0 Z M240 58 L81 376 L245 683 L402 373 L240 58 Z " />
<glyph glyph-name="fi" unicode="&#xfb01;" horiz-adv-x="550" d="M18 360 L85 360 L35 124 C22 61 5 42 -37 42 L-46 42 L-55 0 L186 0 L195 42 L191 42 C161 42 150 52 150 78 C150 87 153 116 155 124 L205 360 L300 360 C339 360 348 354 348 327 C348 316 346 301 344 288 L309 124 C292 54 284 43 245 42 L240 42 L231 0 L470 0 L479 42 L471 42 C442 42 432 51 432 75 C432 88 434 106 438 124 L500 416 L492 416 C459 408 399 403 325 403 L214 403 L227 467 C244 543 254 574 271 596 C290 619 321 634 352 634 C385 634 400 620 408 583 C416 544 428 530 453 530 C489 530 524 565 524 600 C524 620 510 641 489 655 C464 670 426 678 375 678 C308 678 254 661 206 626 C152 586 122 531 102 438 L94 403 L27 403 L18 360 Z " />
<glyph glyph-name="fl" unicode="&#xfb02;" horiz-adv-x="550" d="M95 403 L28 403 L19 360 L86 360 L36 124 C23 61 6 42 -36 42 L-45 42 L-54 0 L186 0 L195 42 L192 42 C162 42 151 52 151 79 C151 90 153 113 156 124 L206 360 L359 360 L309 124 C292 54 284 43 245 42 L240 42 L231 0 L470 0 L479 42 L472 42 C443 42 433 51 433 75 C433 90 435 109 438 124 L556 678 L550 678 C543 677 542 677 530 674 C501 668 485 666 461 664 C439 673 407 678 373 678 C295 678 230 654 183 608 C146 570 118 511 101 429 L95 403 Z M215 403 L230 474 C244 541 256 574 274 596 C291 619 319 633 347 633 C377 633 392 620 401 585 C402 580 403 577 404 575 L368 403 L215 403 Z " />
</font>
</svg>
