<?xml version="1.0" standalone="no"?>
<!DOCTYPE svg PUBLIC "-//W3C//DTD SVG 1.1//EN" "http://www.w3.org/Graphics/SVG/1.1/DTD/svg11.dtd" >
<svg xmlns="http://www.w3.org/2000/svg">
<metadata>
Created by FontPrep 20130207 at Fri May 26 16:08:33 2017
 By Lizzy Knight
Copyright 2016 by URW++ Design &#38; Development GmbH
</metadata>
<defs>
<font id="2c659f9b4af9117ca71c21267d43922c" horiz-adv-x='1024' >
  <font-face 
    font-family="URWDIN-LightItalic"
    font-weight="300"
    font-style="italic"
    font-stretch="normal"
    units-per-em="2048"
    panose-1="0 0 4 0 0 0 0 0 0 0"
    ascent="1462"
    descent="-586"
    x-height="1018"
    cap-height="1462"
    bbox="-383 -496 2427 2064"
    underline-thickness="94"
    underline-position="-209"
    slope="-10"
    unicode-range="U+0020-FB04"
  />
<missing-glyph horiz-adv-x="409" 
 />
    <glyph glyph-name="ff" unicode="ff" horiz-adv-x="1286" 
d="M932 915h-131l18 103h129l37 205q23 139 87 191q65 52 212 48h88l-16 -96h-56q-98 4 -138 -31t-58 -137l-33 -180h238l-19 -103h-237l-160 -915h-123zM313 915h-131l19 103h131l35 205q25 139 88 190t211 49h86l-19 -96h-49q-100 2 -140 -32t-59 -136l-32 -180h219
l-17 -103h-219l-162 -915h-122z" />
    <glyph glyph-name="fi" unicode="fi" horiz-adv-x="1173" 
d="M772 0l180 1018h121l-178 -1018h-123zM995 1270l35 196h123l-35 -196h-123zM313 915h-131l19 103h131l35 205q25 139 88 190t211 49h90l-17 -96h-55q-100 2 -140 -32t-59 -136l-32 -180h237l-18 -103h-236l-162 -915h-122z" />
    <glyph glyph-name="fl" unicode="fl" horiz-adv-x="1251" 
d="M936 215q0 -63 34 -87t124 -24h49l-19 -104h-55q-141 0 -200 40q-58 40 -58 136q0 55 16 139l201 1147h123l-205 -1161q-10 -61 -10 -86zM313 915h-131l19 103h131l35 205q25 139 88 190t211 49h90l-17 -96h-55q-100 2 -140 -32t-59 -136l-32 -180h237l-18 -103h-236
l-162 -915h-122z" />
    <glyph glyph-name="ffi" unicode="ffi" horiz-adv-x="1789" 
d="M1389 0l180 1018h123l-181 -1018h-122zM1612 1270l35 196h122l-34 -196h-123zM932 915h-131l18 103h129l37 205q23 139 87 191q65 52 212 48h88l-16 -96h-56q-98 4 -138 -31t-58 -137l-33 -180h238l-19 -103h-237l-160 -915h-123zM313 915h-131l19 103h131l35 205
q25 139 88 190t211 49h86l-19 -96h-49q-100 2 -140 -32t-59 -136l-32 -180h219l-17 -103h-219l-162 -915h-122z" />
    <glyph glyph-name="ffl" unicode="ffl" horiz-adv-x="1867" 
d="M1710 104h49l-18 -104h-55q-141 0 -200 40q-58 40 -59 136q0 55 17 139l203 1147h120l-204 -1161q-11 -61 -11 -105t34 -68t124 -24zM932 915h-131l18 103h129l37 205q23 139 87 191q65 52 212 48h88l-16 -96h-56q-98 4 -138 -31t-58 -137l-33 -180h238l-19 -103h-237
l-160 -915h-123zM313 915h-131l19 103h131l35 205q25 139 88 190t211 49h86l-19 -96h-49q-100 2 -140 -32t-59 -136l-32 -180h219l-17 -103h-219l-162 -915h-122z" />
    <glyph glyph-name=".notdef" horiz-adv-x="409" 
 />
    <glyph glyph-name=".null" horiz-adv-x="0" 
 />
    <glyph glyph-name="nonmarkingreturn" horiz-adv-x="681" 
 />
    <glyph glyph-name="space" unicode=" " horiz-adv-x="409" 
 />
    <glyph glyph-name="exclam" unicode="!" horiz-adv-x="612" 
d="M158 0l30 178h123l-30 -178h-123zM231 381l175 1081h139l-209 -1081h-105z" />
    <glyph glyph-name="quotedbl" unicode="&#x22;" horiz-adv-x="806" 
d="M584 946l84 516h127l-101 -516h-110zM268 946l84 516h125l-98 -516h-111z" />
    <glyph glyph-name="numbersign" unicode="#" 
d="M434 582h236l78 256h-236zM324 582l77 256h-247l30 90h250l125 393h109l-123 -393h235l123 393h109l-123 -393h252l-31 -90h-254l-78 -256h250l-33 -90h-250l-122 -406h-109l123 406h-236l-122 -406h-111l123 406h-252l31 90h254z" />
    <glyph glyph-name="dollar" unicode="$" 
d="M475 125q190 0 305 87t115 230q0 96 -68 148q-41 31 -73 42t-206 53q-347 84 -347 335q0 88 39 172q111 239 426 250l39 219h118l-41 -225q238 -23 308 -160l-111 -66q-68 125 -291 125q-160 0 -259 -84t-99 -217q0 -90 70 -144t220 -92t204 -58q200 -76 200 -275
t-147 -324q-109 -96 -345 -121l-51 -290h-119l52 290q-147 8 -255 62t-143 137l113 66q70 -160 346 -160z" />
    <glyph glyph-name="percent" unicode="%" horiz-adv-x="1757" 
d="M504 0l715 1462h118l-716 -1462h-117zM1141 223q-1 -151 165 -151q84 0 137 56q52 56 75 183l24 148q16 82 17 108q0 154 -158 154q-93 0 -145 -56t-74 -184l-31 -170q-10 -66 -10 -88zM1395 809q272 0 272 -219q0 -41 -12 -113l-35 -194q-27 -154 -98 -220
q-82 -79 -218 -79t-204 56t-68 159q1 43 15 123l32 188q27 152 104 226t212 73zM694 1237q0 154 -157 154q-93 -1 -145 -57t-75 -183l-28 -170q-10 -61 -10 -88q1 -72 41 -112t124 -40q171 0 209 240l27 147q14 76 14 109zM533 1479q133 -1 201 -57t69 -162q0 -55 -12 -113
l-35 -195q-14 -88 -34 -134t-63 -85q-82 -80 -217 -80q-136 1 -204 57t-68 158q0 45 14 123l33 189q29 156 106 228t210 71z" />
    <glyph glyph-name="ampersand" unicode="&#x26;" horiz-adv-x="1681" 
d="M571 45q209 0 451 209l-260 457q-201 -102 -283 -170q-154 -125 -153 -289q0 -98 64 -153q65 -54 181 -54zM1149 1214q0 186 -208 187q-103 0 -177 -71t-74 -175q0 -45 20 -91t105 -208q180 96 257 181t77 177zM551 -63q-168 1 -261 81t-93 226q0 201 172 354
q109 92 333 203q-137 252 -137 354q0 147 111 249q112 102 266 101q154 1 243 -75t89 -203q0 -160 -148 -291q-84 -76 -252 -170l242 -430q145 156 213 321h123q-106 -244 -274 -415l143 -242h-150l-92 162q-121 -94 -178 -125q-182 -100 -350 -100z" />
    <glyph glyph-name="quotesingle" unicode="'" horiz-adv-x="491" 
d="M268 946l84 516h125l-98 -516h-111z" />
    <glyph glyph-name="parenleft" unicode="(" horiz-adv-x="878" 
d="M315 410q1 224 63 460t164 414t263 369l84 -60q-150 -199 -236 -354q-207 -387 -207 -833q0 -279 127 -594l-94 -52q-164 326 -164 650z" />
    <glyph glyph-name="parenright" unicode=")" horiz-adv-x="878" 
d="M633 1004q-1 -223 -63 -460t-162 -412t-265 -372l-84 60q156 209 234 354q209 385 209 834q0 277 -129 594l96 51q164 -322 164 -649z" />
    <glyph glyph-name="asterisk" unicode="*" 
d="M664 1094l-244 -281l-101 90l275 264l-334 133l55 117l324 -168l45 344l131 -22l-74 -338l361 45l12 -127l-360 -12l168 -342l-123 -52z" />
    <glyph glyph-name="plus" unicode="+" 
d="M98 696l19 105h432l78 440h110l-78 -440h433l-19 -105h-430l-78 -436h-112l77 436h-432z" />
    <glyph glyph-name="comma" unicode="," horiz-adv-x="567" 
d="M-27 -385l197 563h139l-231 -563h-105z" />
    <glyph glyph-name="hyphen" unicode="-" horiz-adv-x="980" 
d="M250 696l18 109h551l-20 -109h-549z" />
    <glyph glyph-name="period" unicode="." horiz-adv-x="569" 
d="M131 0l31 178h127l-31 -178h-127z" />
    <glyph glyph-name="slash" unicode="/" horiz-adv-x="841" 
d="M20 -45l762 1552h125l-762 -1552h-125z" />
    <glyph glyph-name="zero" unicode="0" 
d="M698 1370q-150 0 -235 -131q-66 -96 -101 -297l-75 -422q-18 -98 -19 -178q0 -250 219 -250q135 0 216 104t122 324l74 422q18 111 19 180q0 120 -56 184t-164 64zM1044 1135q0 -92 -20 -195l-80 -455q-26 -141 -58 -222t-89 -144q-121 -135 -301 -135q-354 0 -355 344
q1 71 21 194l80 455q25 139 57 221q33 82 90 145q117 135 298 135t269 -88q88 -89 88 -255z" />
    <glyph glyph-name="one" unicode="1" 
d="M432 0l234 1327l-269 -113l-32 99l362 149h90l-258 -1462h-127z" />
    <glyph glyph-name="two" unicode="2" 
d="M874 1176q0 196 -208 196t-306 -227l-112 12q45 154 153 239q109 85 268 85t247 -77t88 -220q0 -142 -82 -284t-297 -370l-398 -421h602l-18 -109h-772l14 86l498 530q76 80 155 184t107 161q61 117 61 215z" />
    <glyph glyph-name="three" unicode="3" 
d="M535 823q127 0 225 80q117 88 117 252q1 103 -57 159t-165 56q-199 0 -274 -178l-113 10q88 276 389 277q168 0 259 -82t92 -232q0 -289 -293 -393q94 -39 131 -80q76 -82 76 -219q0 -188 -105 -326q-127 -164 -381 -163q-180 0 -275 74t-95 212l118 13q4 -91 70 -141
t184 -50q190 0 285 141q70 103 70 227t-75 192t-202 67h-127l19 104h127z" />
    <glyph glyph-name="four" unicode="4" 
d="M629 0l49 276h-600l14 80l670 1106h133l-653 -1079h454l86 487h119l-86 -487h152l-21 -109h-151l-47 -274h-119z" />
    <glyph glyph-name="five" unicode="5" 
d="M621 899q157 0 241 -83t84 -216t-32 -249t-80 -185q-131 -182 -388 -182q-168 0 -260 74t-92 212l119 13q5 -91 67 -141t171 -50q166 0 265 127t99 340q0 233 -223 234q-133 0 -266 -95l-88 19l200 745h631l-18 -108h-525l-147 -525q86 45 131 57t111 13z" />
    <glyph glyph-name="six" unicode="6" 
d="M610 788q-176 0 -256 -141q-84 -143 -84 -338q0 -217 213 -217q170 0 252 139q84 147 84 340q0 106 -53 162q-54 55 -156 55zM655 893q137 0 216 -82t79 -210t-30 -249q-30 -120 -82 -198q-50 -78 -146 -124t-236 -46t-229 78q-88 78 -88 225q0 188 70 348q35 80 119 199
l444 628h143l-440 -616q88 47 180 47z" />
    <glyph glyph-name="seven" unicode="7" 
d="M223 0l725 1354h-612l18 108h748l-15 -78l-716 -1384h-148z" />
    <glyph glyph-name="eight" unicode="8" 
d="M596 715q-188 0 -272 -121t-84 -295q0 -209 241 -209q187 0 269 123t81 289q1 213 -235 213zM711 1376q-164 0 -236 -108q-76 -109 -76 -262q0 -186 211 -187q160 1 234 113t74 258q0 90 -54 138t-153 48zM274 999q0 207 99 336q106 145 338 146q163 0 247 -72
q84 -71 84 -227t-79 -285q-53 -82 -164 -127q37 -14 84 -55q78 -66 78 -205q0 -98 -30 -200t-75 -165q-121 -164 -375 -163q-371 0 -370 305q0 96 26 193q27 97 70 159q67 96 196 139q-76 46 -103 94q-26 49 -26 127z" />
    <glyph glyph-name="nine" unicode="9" 
d="M696 1370q-172 0 -252 -129q-80 -123 -79 -301q0 -209 217 -209q170 0 247 129q80 127 80 299q0 211 -213 211zM511 631q-120 0 -199 76t-79 199q0 122 30 232t77 179q113 162 356 162q166 0 255 -78t89 -223q0 -236 -147 -455l-487 -723h-144l461 676q-92 -45 -212 -45z
" />
    <glyph glyph-name="colon" unicode=":" horiz-adv-x="569" 
d="M279 840l32 178h127l-32 -178h-127zM131 0l31 178h127l-31 -178h-127z" />
    <glyph glyph-name="semicolon" unicode=";" horiz-adv-x="569" 
d="M289 840l33 178h127l-33 -178h-127zM-27 -385l197 563h139l-231 -563h-105z" />
    <glyph glyph-name="less" unicode="&#x3c;" 
d="M283 748l637 -355l-21 -114l-770 436l14 78l924 436l-23 -127z" />
    <glyph glyph-name="equal" unicode="=" 
d="M154 854l16 102h924l-17 -102h-923zM98 543l19 102h923l-18 -102h-924z" />
    <glyph glyph-name="greater" unicode="&#x3e;" 
d="M909 760l-637 354l21 115l770 -436l-14 -78l-924 -436l22 127z" />
    <glyph glyph-name="question" unicode="?" horiz-adv-x="1202" 
d="M440 0l31 178h123l-31 -178h-123zM1026 1165q0 91 -68 149t-182 58q-272 0 -389 -305l-115 20q135 393 512 394q172 0 272 -83t99 -237q0 -154 -121 -287q-49 -51 -237 -192q-141 -100 -164 -242l-12 -61h-107l14 82q20 117 70 187t162 152q110 82 144 113t59 68
q63 92 63 184z" />
    <glyph glyph-name="at" unicode="@" horiz-adv-x="1810" 
d="M1063 999q-158 0 -277 -177t-118 -339q0 -61 34 -95t99 -34q166 0 299 201q113 170 112 297q0 68 -40 108t-109 39zM1188 424q0 -68 84 -68q150 0 266 174t115 386q0 212 -103 319q-150 160 -460 160q-430 0 -670 -346q-186 -260 -187 -607q0 -242 153 -368
q154 -126 438 -125q284 0 542 114l33 -81q-270 -125 -592 -125t-502 148t-180 431q0 200 68 392q67 192 191 342t310 233q186 84 406 84q332 0 516 -174q143 -137 143 -394q1 -257 -153 -456t-361 -199q-75 0 -111 32t-36 101q0 18 2 35q-133 -172 -312 -172q-111 0 -172 56
t-61 157q0 199 141 404q154 215 365 215q90 0 140 -35t75 -113l55 125h88l-200 -514q-31 -84 -31 -131z" />
    <glyph glyph-name="A" unicode="A" horiz-adv-x="1214" 
d="M907 442l-155 852l-459 -852h614zM922 334h-678l-178 -334h-144l795 1462h119l278 -1462h-133z" />
    <glyph glyph-name="B" unicode="B" horiz-adv-x="1312" 
d="M705 106q156 0 239 91q102 109 103 274q1 119 -57 174t-181 55h-422l-104 -594h422zM799 807q154 0 237 84q98 102 99 252q-1 109 -59 161t-181 52h-393l-96 -549h393zM903 1462q190 0 277 -80q84 -84 84 -223t-65 -241t-185 -158q2 0 34 -20q126 -79 126 -283
q0 -203 -134 -340q-115 -117 -327 -117h-576l258 1462h508z" />
    <glyph glyph-name="C" unicode="C" horiz-adv-x="1300" 
d="M602 -18q-200 0 -308 99t-108 288q0 80 25 233l53 293q31 174 67 265t105 165q141 154 383 154q188 0 301 -82t113 -221q0 -25 -2 -48l-123 -8q0 63 -12 99q-27 71 -101 111t-176 40q-205 0 -317 -158q-76 -111 -115 -338l-51 -286q-20 -115 -21 -201q0 -297 297 -297
q140 0 238 66t133 186l117 -14q-39 -164 -168 -255t-330 -91z" />
    <glyph glyph-name="D" unicode="D" horiz-adv-x="1392" 
d="M1159 1065q0 145 -106 233q-76 57 -242 58h-307l-221 -1250h307q416 -10 493 461l58 330q18 100 18 168zM829 1462q215 0 322 -82q137 -109 137 -299q0 -68 -20 -190l-64 -356q-39 -262 -191 -400q-153 -137 -405 -135h-471l258 1462h434z" />
    <glyph glyph-name="E" unicode="E" horiz-adv-x="1183" 
d="M139 0l258 1462h834l-19 -108h-708l-98 -559h604l-19 -109h-604l-102 -577h706l-18 -109h-834z" />
    <glyph glyph-name="F" unicode="F" horiz-adv-x="1116" 
d="M139 0l258 1462h828l-19 -108h-700l-103 -572h601l-19 -108h-600l-119 -674h-127z" />
    <glyph glyph-name="G" unicode="G" horiz-adv-x="1359" 
d="M641 -18q-229 0 -342 100t-113 291q0 78 25 229l51 293q31 170 70 263t108 167q145 154 391 154q195 0 311 -83t115 -222q0 -25 -4 -46l-120 -10v23q0 105 -82 167t-220 62q-190 0 -293 -117t-151 -381l-51 -284q-20 -117 -21 -197q0 -301 314 -301q365 0 438 416l27 141
h-330l18 105h455l-43 -240q-26 -145 -62 -229t-108 -154q-154 -147 -383 -147z" />
    <glyph glyph-name="H" unicode="H" horiz-adv-x="1394" 
d="M139 0l258 1462h127l-118 -667h686l118 667h127l-258 -1462h-127l121 686h-686l-121 -686h-127z" />
    <glyph glyph-name="I" unicode="I" horiz-adv-x="581" 
d="M139 0l258 1462h127l-258 -1462h-127z" />
    <glyph glyph-name="J" unicode="J" horiz-adv-x="935" 
d="M256 -16q-110 0 -184 28t-154 99l86 88q98 -106 250 -107q182 0 270 166q37 74 78 305l158 899h127l-160 -911q-37 -203 -55 -269t-60 -126q-117 -172 -356 -172z" />
    <glyph glyph-name="K" unicode="K" horiz-adv-x="1267" 
d="M139 0l258 1462h125l-151 -862l837 862h152l-578 -585l377 -877h-145l-328 786l-344 -352l-76 -434h-127z" />
    <glyph glyph-name="L" unicode="L" horiz-adv-x="1083" 
d="M139 0l258 1462h127l-239 -1353h710l-18 -109h-838z" />
    <glyph glyph-name="M" unicode="M" horiz-adv-x="1671" 
d="M139 0l258 1462h123l303 -1007l662 1007h127l-256 -1462h-125l215 1221l-606 -928h-82l-281 928l-215 -1221h-123z" />
    <glyph glyph-name="N" unicode="N" horiz-adv-x="1482" 
d="M139 0l258 1462h121l563 -1243l219 1243h125l-258 -1462h-120l-564 1243l-219 -1243h-125z" />
    <glyph glyph-name="O" unicode="O" horiz-adv-x="1388" 
d="M1157 1071q0 143 -84 222t-235 79q-203 0 -322 -145q-51 -61 -78 -132t-49 -196l-59 -336q-18 -106 -19 -172q0 -143 84 -222t236 -79q203 0 321 143q90 111 127 330l60 336q18 100 18 172zM1286 1087q0 -78 -20 -192l-66 -365q-26 -154 -66 -242t-114 -159
q-150 -147 -380 -147t-344 107t-114 282q1 77 21 196l65 365q27 154 66 242t112 159q154 147 380 147t342 -102q118 -104 118 -291z" />
    <glyph glyph-name="P" unicode="P" horiz-adv-x="1245" 
d="M725 694q189 0 291 117t102 305q0 123 -67 181q-68 58 -209 59h-338l-117 -662h338zM842 1462q221 0 314 -90t93 -246q0 -106 -35 -212q-74 -222 -258 -292q-92 -36 -233 -36h-352l-105 -586h-127l258 1462h445z" />
    <glyph glyph-name="Q" unicode="Q" horiz-adv-x="1388" 
d="M1157 1071q0 143 -84 222t-235 79q-203 0 -322 -145q-51 -61 -78 -132t-49 -196l-59 -336q-18 -106 -19 -172q0 -143 84 -222q83 -79 241 -79t269 96l-194 185l77 73l189 -176q70 106 102 295l60 336q18 100 18 172zM182 371q0 78 21 196l65 365q27 154 66 242t112 159
q154 147 380 147t342 -102q118 -104 118 -291q0 -78 -20 -192l-66 -365q-20 -126 -49 -202t-82 -146l145 -139l-79 -74l-142 135q-151 -122 -369 -122t-331 110q-111 104 -111 279z" />
    <glyph glyph-name="R" unicode="R" horiz-adv-x="1325" 
d="M772 756q178 0 271 106t94 271q0 223 -283 223h-348l-107 -600h373zM866 1462q402 0 402 -315q0 -205 -110 -340t-284 -145l207 -662h-141l-192 651h-365l-115 -651h-127l258 1462h467z" />
    <glyph glyph-name="S" unicode="S" horiz-adv-x="1189" 
d="M524 92q238 0 344 135q72 93 72 201t-68 160q-40 33 -72 45t-205 57t-259 127t-86 213q0 174 112 303q129 145 375 146q150 0 256 -44t150 -122l-111 -66q-72 123 -286 123t-306 -131q-63 -89 -63 -189q-1 -100 69 -156t222 -96t204 -62q197 -82 197 -276
q0 -195 -119 -321q-147 -156 -428 -155q-221 0 -354 82q-74 42 -111 118l113 66q74 -158 354 -158z" />
    <glyph glyph-name="T" unicode="T" horiz-adv-x="1134" 
d="M418 0l239 1354h-432l19 108h987l-19 -108h-428l-239 -1354h-127z" />
    <glyph glyph-name="U" unicode="U" horiz-adv-x="1417" 
d="M336 340q0 -80 53 -152q76 -96 254 -96q219 0 336 162q63 86 96 281l164 927h127l-168 -950q-26 -152 -56 -226t-91 -141q-154 -161 -406 -161t-358 127q-80 94 -80 227q0 78 24 219l160 905h127l-164 -927q-18 -115 -18 -195z" />
    <glyph glyph-name="V" unicode="V" horiz-adv-x="1136" 
d="M428 0l-229 1462h125l186 -1265l633 1265h131l-744 -1462h-102z" />
    <glyph glyph-name="W" unicode="W" horiz-adv-x="1759" 
d="M342 0l-109 1462h125l76 -1249l570 1249h83l127 -1249l521 1249h129l-625 -1462h-104l-127 1227l-562 -1227h-104z" />
    <glyph glyph-name="X" unicode="X" horiz-adv-x="1138" 
d="M543 770l-273 692h133l234 -600l434 600h143l-524 -714l295 -748h-133l-256 655l-475 -655h-144z" />
    <glyph glyph-name="Y" unicode="Y" horiz-adv-x="1079" 
d="M389 0l92 528l-299 934h131l250 -800l535 800h139l-629 -934l-92 -528h-127z" />
    <glyph glyph-name="Z" unicode="Z" horiz-adv-x="1095" 
d="M14 0l17 94l925 1260h-663l18 108h807l-16 -94l-926 -1259h735l-18 -109h-879z" />
    <glyph glyph-name="bracketleft" unicode="[" horiz-adv-x="878" 
d="M219 -201l320 1813h360l-16 -99h-238l-285 -1615h236l-16 -99h-361z" />
    <glyph glyph-name="backslash" unicode="\" horiz-adv-x="841" 
d="M629 -45h-127l-213 1552h125z" />
    <glyph glyph-name="bracketright" unicode="]" horiz-adv-x="878" 
d="M729 1612l-319 -1813h-361l17 99h237l287 1615h-238l17 99h360z" />
    <glyph glyph-name="asciicircum" unicode="^" 
d="M705 1333l-416 -547h-146l547 689h66l305 -689h-135z" />
    <glyph glyph-name="underscore" unicode="_" horiz-adv-x="962" 
d="M-203 -350l17 94h1065l-17 -94h-1065z" />
    <glyph glyph-name="grave" unicode="`" horiz-adv-x="1024" 
d="M723 1194h-90l-164 281h145z" />
    <glyph glyph-name="a" unicode="a" horiz-adv-x="1067" 
d="M502 489q-182 -1 -252 -71t-70 -201q0 -75 53 -105t209 -30t226 76q35 39 57 147l33 184h-256zM590 934q-162 0 -279 -105l-73 66q141 141 362 141q156 0 240 -63t84 -185q0 -39 -19 -147l-112 -641h-101l-2 59q-53 -45 -118 -61t-210 -16t-225 51t-80 166q0 184 92 285
t343 102h282l14 88q12 66 13 94q0 166 -211 166z" />
    <glyph glyph-name="b" unicode="b" horiz-adv-x="1155" 
d="M899 696q0 238 -233 238q-274 0 -336 -350l-27 -150q-10 -68 -10 -112q0 -236 242 -236q268 0 327 350l27 146q10 68 10 114zM690 1036q334 0 334 -313q0 -72 -16 -154l-27 -155q-41 -224 -144 -328t-285 -104t-265 92q-14 14 -47 73l-37 -147h-99l258 1462h123
l-100 -563q111 137 305 137z" />
    <glyph glyph-name="c" unicode="c" horiz-adv-x="970" 
d="M494 -18q-172 0 -265 85q-92 85 -92 246q0 63 15 158l18 94q39 225 135 336q113 135 337 135t298 -159l-104 -48q-35 57 -81 81t-122 24q-145 0 -227 -92t-117 -293l-19 -107q-10 -45 -10 -112q0 -244 244 -244q146 0 244 98l79 -67q-123 -135 -333 -135z" />
    <glyph glyph-name="d" unicode="d" horiz-adv-x="1155" 
d="M258 315q0 -229 234 -229q274 0 335 348l27 150q10 61 10 114q0 236 -243 236q-133 0 -213 -86t-113 -266l-27 -146q-10 -57 -10 -121zM133 291q0 72 17 160l26 155q40 222 144 326t279 104t257 -75q18 -16 51 -70l103 571h120l-256 -1462h-100l12 125l-10 -10
q-63 -74 -132 -104t-173 -29q-338 0 -338 309z" />
    <glyph glyph-name="e" unicode="e" horiz-adv-x="1107" 
d="M870 698q0 240 -233 240q-137 0 -225 -88t-117 -262h567q8 49 8 110zM260 340q0 -256 268 -256q154 0 252 100l80 -67q-121 -135 -338 -135q-385 0 -385 337q0 66 17 160l16 94q41 238 153 351t310 112q354 0 354 -331q0 -109 -24 -213h-684l-11 -54q-8 -41 -8 -98z" />
    <glyph glyph-name="f" unicode="f" horiz-adv-x="667" 
d="M313 915h-131l19 103h131l35 205q25 139 88 190t211 49h90l-17 -96h-55q-100 2 -140 -32t-59 -136l-32 -180h237l-18 -103h-236l-162 -915h-122z" />
    <glyph glyph-name="g" unicode="g" horiz-adv-x="1155" 
d="M256 317q0 -231 233 -231q274 0 336 348l27 150q10 72 10 112q0 238 -239 238q-271 0 -330 -352l-27 -146q-10 -66 -10 -119zM463 -18q-332 0 -332 311q0 66 16 158l27 155q41 226 143 328t289 102q233 0 312 -157l34 139h99l-183 -1030q-82 -465 -491 -465
q-244 0 -332 143l102 60q72 -100 226 -100t248 88q93 89 122 259l27 146q-109 -137 -307 -137z" />
    <glyph glyph-name="h" unicode="h" horiz-adv-x="1153" 
d="M874 713q0 215 -210 215q-144 0 -226 -95t-119 -311l-92 -522h-123l258 1462h123l-98 -557q74 76 137 104t166 27q145 0 229 -72q83 -73 82 -200q0 -86 -20 -186l-100 -578h-123l102 582q14 80 14 131z" />
    <glyph glyph-name="i" unicode="i" horiz-adv-x="505" 
d="M102 0l181 1018h120l-178 -1018h-123zM326 1270l34 196h123l-34 -196h-123z" />
    <glyph glyph-name="j" unicode="j" horiz-adv-x="518" 
d="M336 1270l35 196h123l-35 -196h-123zM291 1018h123l-189 -1069q-35 -242 -134 -333t-320 -87l18 106q139 -8 213 65t98 241z" />
    <glyph glyph-name="k" unicode="k" horiz-adv-x="1028" 
d="M102 0l258 1462h123l-188 -1065l598 621h145l-422 -430l289 -588h-135l-244 506l-260 -268l-41 -238h-123z" />
    <glyph glyph-name="l" unicode="l" horiz-adv-x="583" 
d="M266 215q0 -63 34 -87t124 -24h49l-18 -104h-56q-141 0 -199 40t-59 136q0 55 17 139l200 1147h123l-205 -1161q-10 -61 -10 -86z" />
    <glyph glyph-name="m" unicode="m" horiz-adv-x="1726" 
d="M668 1036q231 0 284 -178q98 178 324 178q143 0 222 -70t79 -196q0 -78 -23 -192l-100 -578h-123l101 575q18 96 18 148q0 205 -195 205q-133 0 -209 -96t-114 -316l-92 -516h-123l102 580q16 96 17 137q0 211 -195 211q-133 0 -209 -96t-115 -316l-90 -516h-123
l181 1018h96l-12 -127q102 145 299 145z" />
    <glyph glyph-name="n" unicode="n" horiz-adv-x="1153" 
d="M686 1036q152 0 234 -70t81 -204q0 -68 -20 -184l-100 -578h-123l100 575q16 88 16 142q0 211 -210 211q-144 0 -226 -95t-121 -319l-90 -514h-123l181 1018h96l-12 -129q109 147 317 147z" />
    <glyph glyph-name="o" unicode="o" horiz-adv-x="1138" 
d="M256 322q0 -236 250 -236q143 0 226 85t114 263l26 148q12 80 13 120q0 231 -248 232q-145 0 -228 -86t-116 -266l-25 -148q-12 -59 -12 -112zM639 1036q369 0 369 -315q0 -63 -17 -152l-26 -157q-39 -222 -151 -326t-310 -104q-371 0 -371 319q0 70 14 148l29 157
q39 222 152 326t311 104z" />
    <glyph glyph-name="p" unicode="p" horiz-adv-x="1155" 
d="M899 700q0 233 -233 234q-274 0 -336 -350l-27 -150q-12 -78 -12 -112q0 -236 241 -236q271 0 330 350l27 146q10 72 10 118zM688 1036q336 0 336 -313q0 -57 -16 -154l-27 -155q-41 -224 -144 -328t-301 -104t-286 147l-105 -590h-122l260 1479h98l-6 -119
q115 137 313 137z" />
    <glyph glyph-name="q" unicode="q" horiz-adv-x="1155" 
d="M258 315q0 -229 234 -229q274 0 335 348l27 150q10 61 10 112q0 238 -243 238q-267 0 -326 -352l-27 -146q-10 -61 -10 -121zM469 -18q-336 0 -336 309q0 68 17 160l26 155q39 222 143 326t291 104q229 0 305 -151l39 133h99l-260 -1479h-123l102 578
q-113 -135 -303 -135z" />
    <glyph glyph-name="r" unicode="r" horiz-adv-x="753" 
d="M627 928q-125 0 -198 -102t-114 -326l-88 -500h-123l181 1018h98l-12 -133q104 152 278 151q98 0 185 -47l-70 -106q-68 45 -137 45z" />
    <glyph glyph-name="s" unicode="s" horiz-adv-x="954" 
d="M383 84q147 0 227 60t80 169q0 76 -49 105q-49 28 -201 52t-215 77q-64 53 -63 162q0 143 93 235t263 92q254 0 352 -147l-100 -58q-84 102 -246 103q-108 0 -174 -58t-66 -142t45 -112q45 -30 199 -54t220 -76t65 -170q0 -166 -110 -253t-320 -87q-291 0 -385 141l98 63
q90 -102 287 -102z" />
    <glyph glyph-name="t" unicode="t" horiz-adv-x="673" 
d="M303 201q0 -97 146 -97h38l-18 -104h-29q-143 0 -202 40t-60 136q0 55 15 139l106 600h-127l18 103h129l64 338h117l-60 -338h199l-18 -103h-199l-111 -620q-8 -47 -8 -94z" />
    <glyph glyph-name="u" unicode="u" horiz-adv-x="1130" 
d="M281 303q0 -213 200 -213q139 0 217 95t117 319l90 514h123l-180 -1018h-90l8 133q-100 -152 -307 -151q-145 0 -226 71q-80 72 -79 201q0 78 22 203l98 561h123l-100 -567q-16 -92 -16 -148z" />
    <glyph glyph-name="v" unicode="v" horiz-adv-x="983" 
d="M350 0l-198 1018h120l156 -848l455 848h129l-557 -1018h-105z" />
    <glyph glyph-name="w" unicode="w" horiz-adv-x="1572" 
d="M315 0l-139 1018h121l98 -848l434 848h84l136 -848l397 848h129l-498 -1018h-96l-139 823l-432 -823h-95z" />
    <glyph glyph-name="x" unicode="x" horiz-adv-x="929" 
d="M395 524l-217 494h129l176 -404l320 404h143l-411 -506l225 -512h-129l-185 418l-331 -418h-144z" />
    <glyph glyph-name="y" unicode="y" horiz-adv-x="983" 
d="M350 -6l-207 1024h119l172 -885l447 885h129l-633 -1219q-90 -170 -167 -219t-251 -51l18 104q113 0 164 34t115 149z" />
    <glyph glyph-name="z" unicode="z" horiz-adv-x="966" 
d="M10 0l15 80l696 833h-508l18 105h662l-14 -80l-697 -834h582l-19 -104h-735z" />
    <glyph glyph-name="braceleft" unicode="{" horiz-adv-x="878" 
d="M391 18q0 -66 40 -97q40 -32 132 -32h39l-16 -90h-62q-139 0 -199 46t-61 153q0 68 25 207l41 229q25 141 24 170q0 109 -157 109h-17l15 80h14q121 4 165 60t70 239l27 151q35 219 111 294t262 75h61l-16 -90h-37q-131 -2 -182 -69t-86 -282l-19 -98q-23 -162 -61 -224
t-133 -97q109 -37 108 -142q0 -31 -26 -178l-33 -192q-29 -156 -29 -222z" />
    <glyph glyph-name="bar" unicode="|" 
d="M373 -201l319 1813h113l-320 -1813h-112z" />
    <glyph glyph-name="braceright" unicode="}" horiz-adv-x="878" 
d="M485 895q0 31 27 178l16 101q29 158 29 221q0 127 -172 127h-39l16 90h60q142 0 202 -46t60 -153q0 -61 -25 -207l-24 -135q-25 -141 -25 -170q0 -109 158 -108h16l-14 -80h-16q-121 -7 -165 -63t-71 -236l-43 -246q-33 -219 -109 -294t-264 -75h-59l16 90h37
q131 2 183 69q51 67 86 282l32 192q25 164 63 225t134 97q-109 39 -109 141z" />
    <glyph glyph-name="asciitilde" unicode="~" 
d="M392 889q78 1 122 -19q46 -20 112 -71t99 -67t72 -17q106 0 194 151l80 -24q-107 -226 -271 -228q-78 0 -118 18t-106 70q-66 54 -100 70t-75 16q-114 1 -200 -157l-82 20q63 131 129 185t144 53z" />
    <glyph glyph-name="uni00A0" unicode="&#xa0;" horiz-adv-x="409" 
 />
    <glyph glyph-name="exclamdown" unicode="&#xa1;" horiz-adv-x="612" 
d="M457 1018l-31 -178h-125l33 178h123zM383 637l-174 -1081h-139l206 1081h107z" />
    <glyph glyph-name="cent" unicode="&#xa2;" 
d="M225 633q0 57 15 147l16 94q39 232 143 350t291 134l39 219h119l-41 -225q164 -25 223 -144l-104 -53q-35 55 -79 79t-118 23q-145 0 -232 -94t-120 -293l-21 -112q-10 -61 -10 -111q0 -242 238 -241q152 0 252 100l82 -55q-62 -68 -120 -96t-173 -46l-41 -229h-119
l41 231q-281 35 -281 322z" />
    <glyph glyph-name="sterling" unicode="&#xa3;" 
d="M373 541q0 43 -15 100h-206l18 109h158q-62 172 -62 262t33 177t90 150q123 141 345 141t317 -147q47 -72 57 -233l-113 -27q-2 8 -2 17l-8 79q-7 85 -75 145t-196 60t-218 -96q-98 -109 -99 -252q0 -86 72 -276h352l-18 -109h-316q8 -51 9 -86q0 -123 -62 -241
t-174 -205h690l-18 -109h-889l16 94q131 51 223 180q91 129 91 267z" />
    <glyph glyph-name="currency" unicode="&#xa4;" 
d="M889 685q0 137 -85 229t-218 92t-219 -90t-86 -229q0 -140 86 -230t219 -90t218 90t85 228zM172 686q0 145 92 266l-174 181l68 61l172 -178q123 86 256 86t254 -86l172 178l67 -61l-174 -181q92 -123 92 -266t-92 -266l174 -180l-67 -62l-172 178q-121 -86 -254 -86
t-256 86l-172 -178l-68 62l174 180q-92 121 -92 266z" />
    <glyph glyph-name="yen" unicode="&#xa5;" 
d="M401 0l56 317h-322l15 84h321l27 152h-322l14 84h281l-260 825h129l240 -776l514 776h139l-551 -825h281l-15 -84h-323l-27 -152h324l-17 -84h-321l-56 -317h-127z" />
    <glyph glyph-name="brokenbar" unicode="&#xa6;" horiz-adv-x="1024" 
d="M362 0l89 500h118l-88 -500h-119zM528 944l93 518h118l-90 -518h-121z" />
    <glyph glyph-name="section" unicode="&#xa7;" 
d="M315 638q0 -81 42 -119t173 -83l119 -41l96 51q49 27 79 80t30 121t-43 108t-172 85l-119 43q-115 -51 -160 -107t-45 -138zM408 -94q136 0 214 63q77 63 76 170q0 74 -47 115q-41 31 -191 83t-210 110q-60 59 -60 163t58 180t188 138q-94 74 -94 188q0 164 105 263
t278 100q94 0 160 -24t139 -83l-94 -76q-76 76 -195 76t-191 -66t-73 -152q0 -87 41 -123t164 -80q123 -43 168 -67q135 -70 135 -218t-105 -236q-39 -35 -135 -82q88 -74 88 -188q1 -162 -109 -261t-290 -100q-108 1 -186 31t-154 102l94 76q90 -102 226 -102z" />
    <glyph glyph-name="dieresis" unicode="&#xa8;" horiz-adv-x="1024" 
d="M774 1212l35 195h115l-35 -195h-115zM383 1212l35 195h112l-32 -195h-115z" />
    <glyph glyph-name="copyright" unicode="&#xa9;" horiz-adv-x="1675" 
d="M1495 730q1 286 -185 476t-476 189q-290 0 -480 -201q-174 -190 -174 -471t186 -468t472 -187q285 0 471 188t186 474zM78 732q0 327 218 540t546 213t542 -215t213 -540q0 -325 -216 -539q-215 -214 -543 -214t-544 214t-216 541zM854 371q-164 0 -238 92
q-51 66 -51 209v119q0 157 71 229t218 72q260 0 272 -185l-94 -6q-18 109 -174 109q-100 0 -145 -50t-45 -161v-135q0 -111 45 -161t143 -50q159 -1 182 108l97 -8q-12 -182 -281 -182z" />
    <glyph glyph-name="ordfeminine" unicode="&#xaa;" horiz-adv-x="684" 
d="M436 1126q-122 0 -158 -41t-36 -96t31 -73q32 -17 116 -17t123 26t49 89l21 112h-146zM606 1298q0 94 -123 95q-92 0 -178 -66l-53 55q98 90 240 91q217 0 217 -158q0 -35 -11 -92l-69 -392h-84l4 43q-68 -53 -186 -53q-117 0 -169 34t-53 108q0 123 71 178t226 55h152
l10 49q6 37 6 53z" />
    <glyph glyph-name="guillemotleft" unicode="&#xab;" horiz-adv-x="831" 
d="M244 596l139 -252l-80 -47l-201 307l310 307l61 -63zM584 596l141 -252l-82 -47l-201 307l310 307l61 -63z" />
    <glyph glyph-name="logicalnot" unicode="&#xac;" 
d="M127 696l18 105h850l-98 -555h-119l80 450h-731z" />
    <glyph glyph-name="uni00AD" unicode="&#xad;" horiz-adv-x="980" 
d="M250 696l18 109h551l-20 -109h-549z" />
    <glyph glyph-name="registered" unicode="&#xae;" horiz-adv-x="1318" 
d="M186 1186q0 -205 129 -340t343 -135t343 135t129 341t-130 340t-342 134t-342 -135t-130 -340zM90 1187q0 245 162 403t408 159q246 0 406 -161q160 -160 161 -402q0 -242 -162 -403t-407 -161q-244 0 -406 160t-162 405zM541 1202h157q127 0 127 96t-137 97h-147v-193z
M543 1141v-234h-90v557h241q219 0 219 -161q0 -127 -131 -154l146 -242h-99l-137 234h-149z" />
    <glyph glyph-name="macron" unicode="&#xaf;" horiz-adv-x="1024" 
d="M406 1282l16 90h487l-16 -90h-487z" />
    <glyph glyph-name="degree" unicode="&#xb0;" horiz-adv-x="796" 
d="M518 1427q-108 -1 -168 -65q-61 -64 -61 -176t61 -178q62 -64 168 -64t169 65t63 177t-62 176q-62 65 -170 65zM520 1522q154 0 245 -92t91 -245t-92 -244t-245 -91t-245 91t-92 246t92 245t246 90z" />
    <glyph glyph-name="plusminus" unicode="&#xb1;" 
d="M-25 0l19 104h975l-19 -104h-975zM100 711l19 104h432l76 434h112l-75 -434h432l-19 -104h-432l-76 -432h-112l75 432h-432z" />
    <glyph glyph-name="twosuperior" unicode="&#xb2;" horiz-adv-x="690" 
d="M655 1479q0 117 -128 117t-187 -136l-96 17q40 109 110 157t182 49q112 0 170 -49t58 -143t-47 -173t-185 -212l-229 -225h348l-14 -90h-498l13 71l313 314q104 102 147 171t43 132z" />
    <glyph glyph-name="threesuperior" unicode="&#xb3;" horiz-adv-x="690" 
d="M424 1294q96 0 156 50t61 118q0 66 -36 98t-97 31q-121 0 -170 -102l-92 14q57 176 279 176t223 -184q0 -88 -36 -143t-122 -97q108 -59 108 -177t-76 -208t-260 -90q-183 0 -227 105q-8 18 -12 73l102 21q8 -111 152 -111q97 0 157 58t60 145q0 141 -180 141h-80l14 82
h76z" />
    <glyph glyph-name="acute" unicode="&#xb4;" horiz-adv-x="1024" 
d="M547 1194l198 281h154l-258 -281h-94z" />
    <glyph glyph-name="mu" unicode="&#xb5;" 
d="M477 88q137 0 214 97t116 319l92 514h119l-178 -1018h-90l10 143q-102 -162 -297 -161q-90 0 -141 26t-91 90l-104 -559h-121l260 1479h121l-102 -580q-14 -84 -15 -139q0 -211 207 -211z" />
    <glyph glyph-name="paragraph" unicode="&#xb6;" horiz-adv-x="1177" 
d="M467 711q-98 0 -146 10t-88 41q-104 76 -104 242q0 120 53 230q101 209 324 226q37 2 199 2h428l-306 -1741h-118l288 1637h-237l-287 -1637h-119l174 990h-61z" />
    <glyph glyph-name="periodcentered" unicode="&#xb7;" horiz-adv-x="565" 
d="M248 662l31 178h127l-31 -178h-127z" />
    <glyph glyph-name="cedilla" unicode="&#xb8;" horiz-adv-x="1024" 
d="M227 -440l162 293h129l-203 -293h-88z" />
    <glyph glyph-name="onesuperior" unicode="&#xb9;" horiz-adv-x="454" 
d="M248 791l135 770l-166 -64l-22 80l237 90h74l-154 -876h-104z" />
    <glyph glyph-name="ordmasculine" unicode="&#xba;" horiz-adv-x="724" 
d="M520 1389q-170 0 -205 -189l-18 -106q-6 -41 -6 -62q0 -127 141 -127q172 1 203 189l18 106q8 41 9 62q0 127 -142 127zM764 1276q0 -47 -8 -90l-21 -105q-23 -135 -97 -197t-206 -63q-244 0 -244 197q1 24 9 90l18 104q25 135 98 198q74 62 207 63q244 0 244 -197z" />
    <glyph glyph-name="guillemotright" unicode="&#xbb;" horiz-adv-x="831" 
d="M623 612l-140 254l80 45l201 -307l-307 -307l-64 63zM283 612l-140 254l80 45l201 -307l-309 -307l-62 63z" />
    <glyph glyph-name="onequarter" unicode="&#xbc;" horiz-adv-x="1728" 
d="M442 0l715 1462h119l-715 -1462h-119zM1305 0l30 174h-381l11 68l415 635h113l-403 -615h262l34 199h97l-35 -199h94l-14 -90h-96l-31 -172h-96zM348 586l135 770l-166 -64l-22 80l237 90h74l-153 -876h-105z" />
    <glyph glyph-name="onehalf" unicode="&#xbd;" horiz-adv-x="1728" 
d="M414 0l714 1462h119l-717 -1462h-116zM1483 688q0 117 -127 117t-189 -135l-94 16q39 109 109 158t182 49t169 -49q58 -49 58 -143q0 -93 -47 -173t-182 -213l-232 -225h351l-17 -90h-495l10 72l315 313q102 102 146 171q43 69 43 132zM322 586l135 770l-166 -64l-23 80
l238 90h74l-154 -876h-104z" />
    <glyph glyph-name="threequarters" unicode="&#xbe;" horiz-adv-x="1728" 
d="M489 0l715 1462h119l-717 -1462h-117zM1300 0l31 174h-383l13 68l415 635h113l-404 -615h261l36 199h97l-37 -199h96l-16 -90h-95l-30 -172h-97zM406 1090q96 0 156 50t60 116t-35 99q-36 32 -98 31q-119 0 -170 -104l-92 16q57 176 279 176t223 -184q0 -88 -37 -143
t-121 -96q109 -57 109 -177t-70 -200q-82 -98 -266 -98t-227 104q-10 18 -13 74l103 20q10 -111 151 -110q94 0 156 57q61 57 61 145q0 141 -180 142h-80l15 82h76z" />
    <glyph glyph-name="questiondown" unicode="&#xbf;" horiz-adv-x="1202" 
d="M770 1018l-31 -178h-123l31 178h123zM434 -354q270 0 389 305l115 -21q-135 -393 -512 -393q-172 0 -271 83q-99 82 -99 236t120 287q43 45 238 193q141 100 164 242l12 61h104l-14 -82q-20 -119 -70 -187t-184 -170q-135 -101 -178 -163q-64 -92 -64 -184q0 -91 68 -149
t182 -58z" />
    <glyph glyph-name="Agrave" unicode="&#xc0;" horiz-adv-x="1214" 
d="M887 1626h-90l-164 281h145zM907 442l-155 852l-459 -852h614zM922 334h-678l-178 -334h-144l795 1462h119l278 -1462h-133z" />
    <glyph glyph-name="Aacute" unicode="&#xc1;" horiz-adv-x="1214" 
d="M727 1626l199 281h153l-258 -281h-94zM907 442l-155 852l-459 -852h614zM922 334h-678l-178 -334h-144l795 1462h119l278 -1462h-133z" />
    <glyph glyph-name="Acircumflex" unicode="&#xc2;" horiz-adv-x="1214" 
d="M825 1804l-178 -168h-147l299 258h71l207 -258h-133zM907 442l-155 852l-459 -852h614zM922 334h-678l-178 -334h-144l795 1462h119l278 -1462h-133z" />
    <glyph glyph-name="Atilde" unicode="&#xc3;" horiz-adv-x="1214" 
d="M696 1870q70 0 137 -66t103 -66t60 28q26 26 55 87h82q-45 -117 -91 -161t-116 -45q-72 0 -136 65t-106 66q-58 0 -113 -115h-84q49 117 93 162q46 45 116 45zM907 442l-155 852l-459 -852h614zM922 334h-678l-178 -334h-144l795 1462h119l278 -1462h-133z" />
    <glyph glyph-name="Adieresis" unicode="&#xc4;" horiz-adv-x="1214" 
d="M932 1645l33 194h114l-35 -194h-112zM537 1645l34 194h113l-33 -194h-114zM907 442l-155 852l-459 -852h614zM922 334h-678l-178 -334h-144l795 1462h119l278 -1462h-133z" />
    <glyph glyph-name="Aring" unicode="&#xc5;" horiz-adv-x="1214" 
d="M938 1843q0 90 -103 90q-53 0 -93 -44t-40 -115q0 -92 97 -93q61 0 100 45t39 117zM838 2005q194 0 194 -175q0 -87 -68 -154q-68 -66 -161 -66q-195 1 -195 178q0 88 68 152t162 65zM907 442l-155 852l-459 -852h614zM922 334h-678l-178 -334h-144l795 1462h119
l278 -1462h-133z" />
    <glyph glyph-name="AE" unicode="&#xc6;" horiz-adv-x="1937" 
d="M973 455l160 899h-21l-752 -899h613zM954 346h-678l-286 -346h-148l1223 1462h920l-19 -108h-709l-98 -559h604l-18 -109h-604l-103 -577h707l-19 -109h-833z" />
    <glyph glyph-name="Ccedilla" unicode="&#xc7;" horiz-adv-x="1300" 
d="M338 -440l162 293h129l-203 -293h-88zM602 -18q-200 0 -308 99t-108 288q0 80 25 233l53 293q31 174 67 265t105 165q141 154 383 154q188 0 301 -82t113 -221q0 -25 -2 -48l-123 -8q0 63 -12 99q-27 71 -101 111t-176 40q-205 0 -317 -158q-76 -111 -115 -338l-51 -286
q-20 -115 -21 -201q0 -297 297 -297q140 0 238 66t133 186l117 -14q-39 -164 -168 -255t-330 -91z" />
    <glyph glyph-name="Egrave" unicode="&#xc8;" horiz-adv-x="1183" 
d="M922 1626h-91l-163 281h145zM139 0l258 1462h834l-19 -108h-708l-98 -559h604l-19 -109h-604l-102 -577h706l-18 -109h-834z" />
    <glyph glyph-name="Eacute" unicode="&#xc9;" horiz-adv-x="1183" 
d="M745 1626l199 281h154l-258 -281h-95zM139 0l258 1462h834l-19 -108h-708l-98 -559h604l-19 -109h-604l-102 -577h706l-18 -109h-834z" />
    <glyph glyph-name="Ecircumflex" unicode="&#xca;" horiz-adv-x="1183" 
d="M864 1804l-178 -168h-147l299 258h71l207 -258h-133zM139 0l258 1462h834l-19 -108h-708l-98 -559h604l-19 -109h-604l-102 -577h706l-18 -109h-834z" />
    <glyph glyph-name="Edieresis" unicode="&#xcb;" horiz-adv-x="1183" 
d="M973 1645l33 194h114l-35 -194h-112zM578 1645l34 194h113l-33 -194h-114zM139 0l258 1462h834l-19 -108h-708l-98 -559h604l-19 -109h-604l-102 -577h706l-18 -109h-834z" />
    <glyph glyph-name="Igrave" unicode="&#xcc;" horiz-adv-x="581" 
d="M575 1626h-90l-163 281h145zM139 0l258 1462h127l-258 -1462h-127z" />
    <glyph glyph-name="Iacute" unicode="&#xcd;" horiz-adv-x="581" 
d="M408 1626l198 281h154l-258 -281h-94zM139 0l258 1462h127l-258 -1462h-127z" />
    <glyph glyph-name="Icircumflex" unicode="&#xce;" horiz-adv-x="581" 
d="M526 1804l-178 -168h-147l299 258h71l207 -258h-133zM139 0l258 1462h127l-258 -1462h-127z" />
    <glyph glyph-name="Idieresis" unicode="&#xcf;" horiz-adv-x="581" 
d="M633 1645l35 194h112l-35 -194h-112zM238 1645l34 194h113l-33 -194h-114zM139 0l258 1462h127l-258 -1462h-127z" />
    <glyph glyph-name="Eth" unicode="&#xd0;" horiz-adv-x="1392" 
d="M1159 1065q0 150 -106 233q-76 57 -242 58h-307l-98 -561h382l-18 -107h-385l-102 -582h307q420 -10 493 461l60 330q16 106 16 168zM829 1462q215 0 322 -82q137 -109 137 -297q0 -82 -20 -190l-64 -358q-37 -262 -190 -401q-154 -138 -406 -134h-471l121 688h-178
l18 107h178l119 667h434z" />
    <glyph glyph-name="Ntilde" unicode="&#xd1;" horiz-adv-x="1482" 
d="M843 1870q71 0 137 -66t102 -66t62 28q26 26 54 87h82q-45 -117 -90 -161t-117 -45q-72 0 -136 65t-106 66q-57 0 -112 -115h-84q49 117 93 162t115 45zM139 0l258 1462h121l563 -1243l219 1243h125l-258 -1462h-120l-564 1243l-219 -1243h-125z" />
    <glyph glyph-name="Ograve" unicode="&#xd2;" horiz-adv-x="1388" 
d="M983 1626h-90l-164 281h145zM1157 1071q0 143 -84 222t-235 79q-203 0 -322 -145q-51 -61 -78 -132t-49 -196l-59 -336q-18 -106 -19 -172q0 -143 84 -222t236 -79q203 0 321 143q90 111 127 330l60 336q18 100 18 172zM1286 1087q0 -78 -20 -192l-66 -365
q-26 -154 -66 -242t-114 -159q-150 -147 -380 -147t-344 107t-114 282q1 77 21 196l65 365q27 154 66 242t112 159q154 147 380 147t342 -102q118 -104 118 -291z" />
    <glyph glyph-name="Oacute" unicode="&#xd3;" horiz-adv-x="1388" 
d="M805 1626l199 281h153l-258 -281h-94zM1157 1071q0 143 -84 222t-235 79q-203 0 -322 -145q-51 -61 -78 -132t-49 -196l-59 -336q-18 -106 -19 -172q0 -143 84 -222t236 -79q203 0 321 143q90 111 127 330l60 336q18 100 18 172zM1286 1087q0 -78 -20 -192l-66 -365
q-26 -154 -66 -242t-114 -159q-150 -147 -380 -147t-344 107t-114 282q1 77 21 196l65 365q27 154 66 242t112 159q154 147 380 147t342 -102q118 -104 118 -291z" />
    <glyph glyph-name="Ocircumflex" unicode="&#xd4;" horiz-adv-x="1388" 
d="M930 1804l-178 -168h-148l299 258h72l207 -258h-133zM1157 1071q0 143 -84 222t-235 79q-203 0 -322 -145q-51 -61 -78 -132t-49 -196l-59 -336q-18 -106 -19 -172q0 -143 84 -222t236 -79q203 0 321 143q90 111 127 330l60 336q18 100 18 172zM1286 1087q0 -78 -20 -192
l-66 -365q-26 -154 -66 -242t-114 -159q-150 -147 -380 -147t-344 107t-114 282q1 77 21 196l65 365q27 154 66 242t112 159q154 147 380 147t342 -102q118 -104 118 -291z" />
    <glyph glyph-name="Otilde" unicode="&#xd5;" horiz-adv-x="1388" 
d="M800 1870q72 0 138 -66t102 -66t61 28q26 26 54 87h82q-45 -117 -90 -161t-117 -45q-72 0 -136 65t-106 66q-57 0 -112 -115h-84q49 117 93 162t115 45zM1157 1071q0 143 -84 222t-235 79q-203 0 -322 -145q-51 -61 -78 -132t-49 -196l-59 -336q-18 -106 -19 -172
q0 -143 84 -222t236 -79q203 0 321 143q90 111 127 330l60 336q18 100 18 172zM1286 1087q0 -78 -20 -192l-66 -365q-26 -154 -66 -242t-114 -159q-150 -147 -380 -147t-344 107t-114 282q1 77 21 196l65 365q27 154 66 242t112 159q154 147 380 147t342 -102
q118 -104 118 -291z" />
    <glyph glyph-name="Odieresis" unicode="&#xd6;" horiz-adv-x="1388" 
d="M1036 1645l33 194h115l-35 -194h-113zM641 1645l35 194h112l-32 -194h-115zM1157 1071q0 143 -84 222t-235 79q-203 0 -322 -145q-51 -61 -78 -132t-49 -196l-59 -336q-18 -106 -19 -172q0 -143 84 -222t236 -79q203 0 321 143q90 111 127 330l60 336q18 100 18 172z
M1286 1087q0 -78 -20 -192l-66 -365q-26 -154 -66 -242t-114 -159q-150 -147 -380 -147t-344 107t-114 282q1 77 21 196l65 365q27 154 66 242t112 159q154 147 380 147t342 -102q118 -104 118 -291z" />
    <glyph glyph-name="multiply" unicode="&#xd7;" 
d="M506 750l-279 342l84 71l281 -340l399 340l60 -71l-400 -342l281 -340l-86 -72l-279 340l-401 -340l-60 72z" />
    <glyph glyph-name="Oslash" unicode="&#xd8;" horiz-adv-x="1386" 
d="M828 1372q-194 0 -312 -145q-51 -61 -79 -132t-50 -196l-59 -336q-31 -167 -11 -248l787 938q-82 119 -276 119zM637 90q360 0 440 473l60 336q18 99 18 155t-8 95l-787 -940q82 -119 277 -119zM1284 1099q0 -93 -20 -204l-66 -365q-28 -154 -66 -242t-114 -159
q-154 -147 -388 -147t-356 127l-120 -146l-78 64l141 168q-37 80 -37 165t21 207l65 365q27 154 66 243t114 158q150 147 386 147t356 -126l117 139l75 -66l-133 -159q37 -76 37 -169z" />
    <glyph glyph-name="Ugrave" unicode="&#xd9;" horiz-adv-x="1417" 
d="M997 1626h-90l-164 281h146zM336 340q0 -80 53 -152q76 -96 254 -96q219 0 336 162q63 86 96 281l164 927h127l-168 -950q-26 -152 -56 -226t-91 -141q-154 -161 -406 -161t-358 127q-80 94 -80 227q0 78 24 219l160 905h127l-164 -927q-18 -115 -18 -195z" />
    <glyph glyph-name="Uacute" unicode="&#xda;" horiz-adv-x="1417" 
d="M823 1626l199 281h154l-258 -281h-95zM336 340q0 -80 53 -152q76 -96 254 -96q219 0 336 162q63 86 96 281l164 927h127l-168 -950q-26 -152 -56 -226t-91 -141q-154 -161 -406 -161t-358 127q-80 94 -80 227q0 78 24 219l160 905h127l-164 -927q-18 -115 -18 -195z" />
    <glyph glyph-name="Ucircumflex" unicode="&#xdb;" horiz-adv-x="1417" 
d="M938 1804l-178 -168h-148l299 258h72l207 -258h-133zM336 340q0 -80 53 -152q76 -96 254 -96q219 0 336 162q63 86 96 281l164 927h127l-168 -950q-26 -152 -56 -226t-91 -141q-154 -161 -406 -161t-358 127q-80 94 -80 227q0 78 24 219l160 905h127l-164 -927
q-18 -115 -18 -195z" />
    <glyph glyph-name="Udieresis" unicode="&#xdc;" horiz-adv-x="1417" 
d="M1051 1645l32 194h115l-35 -194h-112zM655 1645l35 194h113l-33 -194h-115zM336 340q0 -80 53 -152q76 -96 254 -96q219 0 336 162q63 86 96 281l164 927h127l-168 -950q-26 -152 -56 -226t-91 -141q-154 -161 -406 -161t-358 127q-80 94 -80 227q0 78 24 219l160 905
h127l-164 -927q-18 -115 -18 -195z" />
    <glyph glyph-name="Yacute" unicode="&#xdd;" horiz-adv-x="1079" 
d="M672 1626l198 281h154l-258 -281h-94zM389 0l92 528l-299 934h131l250 -800l535 800h139l-629 -934l-92 -528h-127z" />
    <glyph glyph-name="Thorn" unicode="&#xde;" horiz-adv-x="1245" 
d="M682 455q193 1 293 117t100 302q0 125 -66 184q-67 58 -210 58h-336l-117 -661h336zM799 1223q215 0 311 -87t96 -249q0 -109 -35 -213t-99 -180q-126 -148 -390 -148h-354l-62 -346h-127l258 1462h127l-43 -239h318z" />
    <glyph glyph-name="germandbls" unicode="&#xdf;" horiz-adv-x="1161" 
d="M704 1477q352 0 351 -267q0 -186 -156 -297q69 -35 97 -86t28 -134t-20 -197l-17 -90q-33 -220 -124 -314t-273 -92h-123l18 102h90q137 -2 200 66q62 68 93 248l17 94q16 94 16 180t-38 123t-144 37h-41l16 94h35q92 0 150 69q57 69 57 179q0 182 -229 182
q-125 0 -193 -61t-92 -201l-197 -1112h-123l197 1120q35 184 132 270t273 87z" />
    <glyph glyph-name="agrave" unicode="&#xe0;" horiz-adv-x="1067" 
d="M752 1194h-90l-164 281h145zM502 489q-182 -1 -252 -71t-70 -201q0 -75 53 -105t209 -30t226 76q35 39 57 147l33 184h-256zM590 934q-162 0 -279 -105l-73 66q141 141 362 141q156 0 240 -63t84 -185q0 -39 -19 -147l-112 -641h-101l-2 59q-53 -45 -118 -61t-210 -16
t-225 51t-80 166q0 184 92 285t343 102h282l14 88q12 66 13 94q0 166 -211 166z" />
    <glyph glyph-name="aacute" unicode="&#xe1;" horiz-adv-x="1067" 
d="M578 1194l198 281h154l-258 -281h-94zM502 489q-182 -1 -252 -71t-70 -201q0 -75 53 -105t209 -30t226 76q35 39 57 147l33 184h-256zM590 934q-162 0 -279 -105l-73 66q141 141 362 141q156 0 240 -63t84 -185q0 -39 -19 -147l-112 -641h-101l-2 59q-53 -45 -118 -61
t-210 -16t-225 51t-80 166q0 184 92 285t343 102h282l14 88q12 66 13 94q0 166 -211 166z" />
    <glyph glyph-name="acircumflex" unicode="&#xe2;" horiz-adv-x="1067" 
d="M688 1372l-178 -168h-148l300 258h71l207 -258h-133zM502 489q-182 -1 -252 -71t-70 -201q0 -75 53 -105t209 -30t226 76q35 39 57 147l33 184h-256zM590 934q-162 0 -279 -105l-73 66q141 141 362 141q156 0 240 -63t84 -185q0 -39 -19 -147l-112 -641h-101l-2 59
q-53 -45 -118 -61t-210 -16t-225 51t-80 166q0 184 92 285t343 102h282l14 88q12 66 13 94q0 166 -211 166z" />
    <glyph glyph-name="atilde" unicode="&#xe3;" horiz-adv-x="1067" 
d="M553 1438q71 0 137 -66t102 -66t60 26t53 89h84q-45 -119 -89 -163t-117 -44t-137 66t-105 66q-62 0 -113 -115h-84q47 115 93 161t116 46zM502 489q-182 -1 -252 -71t-70 -201q0 -75 53 -105t209 -30t226 76q35 39 57 147l33 184h-256zM590 934q-162 0 -279 -105l-73 66
q141 141 362 141q156 0 240 -63t84 -185q0 -39 -19 -147l-112 -641h-101l-2 59q-53 -45 -118 -61t-210 -16t-225 51t-80 166q0 184 92 285t343 102h282l14 88q12 66 13 94q0 166 -211 166z" />
    <glyph glyph-name="adieresis" unicode="&#xe4;" horiz-adv-x="1067" 
d="M797 1212l34 195h115l-35 -195h-114zM406 1212l34 195h113l-33 -195h-114zM502 489q-182 -1 -252 -71t-70 -201q0 -75 53 -105t209 -30t226 76q35 39 57 147l33 184h-256zM590 934q-162 0 -279 -105l-73 66q141 141 362 141q156 0 240 -63t84 -185q0 -39 -19 -147
l-112 -641h-101l-2 59q-53 -45 -118 -61t-210 -16t-225 51t-80 166q0 184 92 285t343 102h282l14 88q12 66 13 94q0 166 -211 166z" />
    <glyph glyph-name="aring" unicode="&#xe5;" horiz-adv-x="1067" 
d="M805 1409q0 92 -102 92q-53 0 -93 -45t-41 -115q0 -92 97 -92q61 0 100 45t39 115zM705 1573q194 0 194 -175q0 -87 -68 -154q-67 -66 -161 -66q-194 2 -195 178q0 88 68 152q68 65 162 65zM502 489q-182 -1 -252 -71t-70 -201q0 -75 53 -105t209 -30t226 76
q35 39 57 147l33 184h-256zM590 934q-162 0 -279 -105l-73 66q141 141 362 141q156 0 240 -63t84 -185q0 -39 -19 -147l-112 -641h-101l-2 59q-53 -45 -118 -61t-210 -16t-225 51t-80 166q0 184 92 285t343 102h282l14 88q12 66 13 94q0 166 -211 166z" />
    <glyph glyph-name="ae" unicode="&#xe6;" horiz-adv-x="1712" 
d="M1241 938q-137 0 -225 -87t-117 -263h567q8 59 9 110q0 240 -234 240zM502 489q-182 -1 -252 -71t-70 -201q0 -75 53 -105t191 -30t209 58q72 58 96 196l29 153h-256zM598 1036q256 0 293 -186q63 98 146 142t206 44q170 0 259 -85t89 -246q0 -109 -24 -213h-684l-11 -54
q-8 -41 -8 -100q0 -254 269 -254q154 0 251 100l82 -67q-127 -135 -340 -135q-281 0 -340 213q-43 -92 -88 -129q-98 -84 -290 -84t-271 51q-80 51 -80 166q0 184 92 285t343 102h282l14 88q12 61 13 94q0 166 -211 166q-162 -1 -279 -105l-73 66q141 141 360 141z" />
    <glyph glyph-name="ccedilla" unicode="&#xe7;" horiz-adv-x="970" 
d="M211 -440l162 293h129l-203 -293h-88zM494 -18q-172 0 -265 85q-92 85 -92 246q0 63 15 158l18 94q39 225 135 336q113 135 337 135t298 -159l-104 -48q-35 57 -81 81t-122 24q-145 0 -227 -92t-117 -293l-19 -107q-10 -45 -10 -112q0 -244 244 -244q146 0 244 98l79 -67
q-123 -135 -333 -135z" />
    <glyph glyph-name="egrave" unicode="&#xe8;" horiz-adv-x="1107" 
d="M766 1194h-90l-164 281h145zM870 698q0 240 -233 240q-137 0 -225 -88t-117 -262h567q8 49 8 110zM260 340q0 -256 268 -256q154 0 252 100l80 -67q-121 -135 -338 -135q-385 0 -385 337q0 66 17 160l16 94q41 238 153 351t310 112q354 0 354 -331q0 -109 -24 -213h-684
l-11 -54q-8 -41 -8 -98z" />
    <glyph glyph-name="eacute" unicode="&#xe9;" horiz-adv-x="1107" 
d="M592 1194l199 281h153l-258 -281h-94zM870 698q0 240 -233 240q-137 0 -225 -88t-117 -262h567q8 49 8 110zM260 340q0 -256 268 -256q154 0 252 100l80 -67q-121 -135 -338 -135q-385 0 -385 337q0 66 17 160l16 94q41 238 153 351t310 112q354 0 354 -331
q0 -109 -24 -213h-684l-11 -54q-8 -41 -8 -98z" />
    <glyph glyph-name="ecircumflex" unicode="&#xea;" horiz-adv-x="1107" 
d="M715 1372l-178 -168h-148l299 258h72l207 -258h-133zM870 698q0 240 -233 240q-137 0 -225 -88t-117 -262h567q8 49 8 110zM260 340q0 -256 268 -256q154 0 252 100l80 -67q-121 -135 -338 -135q-385 0 -385 337q0 66 17 160l16 94q41 238 153 351t310 112
q354 0 354 -331q0 -109 -24 -213h-684l-11 -54q-8 -41 -8 -98z" />
    <glyph glyph-name="edieresis" unicode="&#xeb;" horiz-adv-x="1107" 
d="M819 1212l35 195h115l-35 -195h-115zM428 1212l35 195h112l-32 -195h-115zM870 698q0 240 -233 240q-137 0 -225 -88t-117 -262h567q8 49 8 110zM260 340q0 -256 268 -256q154 0 252 100l80 -67q-121 -135 -338 -135q-385 0 -385 337q0 66 17 160l16 94q41 238 153 351
t310 112q354 0 354 -331q0 -109 -24 -213h-684l-11 -54q-8 -41 -8 -98z" />
    <glyph glyph-name="igrave" unicode="&#xec;" horiz-adv-x="505" 
d="M459 1194h-90l-164 281h145zM102 0l181 1018h120l-178 -1018h-123z" />
    <glyph glyph-name="iacute" unicode="&#xed;" horiz-adv-x="505" 
d="M295 1194l199 281h153l-258 -281h-94zM102 0l181 1018h120l-178 -1018h-123z" />
    <glyph glyph-name="icircumflex" unicode="&#xee;" horiz-adv-x="505" 
d="M412 1372l-179 -168h-147l299 258h72l207 -258h-134zM102 0l179 1018h122l-180 -1018h-121z" />
    <glyph glyph-name="idieresis" unicode="&#xef;" horiz-adv-x="505" 
d="M516 1212l35 195h113l-35 -195h-113zM123 1212l35 195h114l-34 -195h-115zM102 0l181 1018h120l-178 -1018h-123z" />
    <glyph glyph-name="eth" unicode="&#xf0;" horiz-adv-x="1138" 
d="M256 319q0 -233 240 -233q289 0 350 348l22 123q12 70 13 135q0 231 -240 232q-287 0 -350 -351l-23 -139q-12 -70 -12 -115zM639 1026q147 0 225 -65q-37 186 -90 245l-254 -102l-31 76l213 86q-90 94 -231 120l31 82q193 -20 319 -153l199 82l31 -78l-168 -68
q57 -82 90 -219q33 -136 33 -256t-15 -215l-26 -149q-39 -218 -156 -324t-322 -106q-354 0 -354 317q0 76 14 150l27 149q74 428 465 428z" />
    <glyph glyph-name="ntilde" unicode="&#xf1;" horiz-adv-x="1153" 
d="M598 1438q70 0 136 -66t103 -66t61 26t52 89h84q-45 -119 -89 -163q-45 -44 -117 -44t-136 66t-106 66q-62 0 -113 -115h-84q47 115 93 161t116 46zM686 1036q152 0 234 -70t81 -204q0 -68 -20 -184l-100 -578h-123l100 575q16 88 16 142q0 211 -210 211q-144 0 -226 -95
t-121 -319l-90 -514h-123l181 1018h96l-12 -129q109 147 317 147z" />
    <glyph glyph-name="ograve" unicode="&#xf2;" horiz-adv-x="1138" 
d="M782 1194h-90l-164 281h146zM256 322q0 -236 250 -236q143 0 226 85t114 263l26 148q12 80 13 120q0 231 -248 232q-145 0 -228 -86t-116 -266l-25 -148q-12 -59 -12 -112zM639 1036q369 0 369 -315q0 -63 -17 -152l-26 -157q-39 -222 -151 -326t-310 -104
q-371 0 -371 319q0 70 14 148l29 157q39 222 152 326t311 104z" />
    <glyph glyph-name="oacute" unicode="&#xf3;" horiz-adv-x="1138" 
d="M606 1194l199 281h153l-258 -281h-94zM256 322q0 -236 250 -236q143 0 226 85t114 263l26 148q12 80 13 120q0 231 -248 232q-145 0 -228 -86t-116 -266l-25 -148q-12 -59 -12 -112zM639 1036q369 0 369 -315q0 -63 -17 -152l-26 -157q-39 -222 -151 -326t-310 -104
q-371 0 -371 319q0 70 14 148l29 157q39 222 152 326t311 104z" />
    <glyph glyph-name="ocircumflex" unicode="&#xf4;" horiz-adv-x="1138" 
d="M729 1372l-178 -168h-148l299 258h72l207 -258h-133zM256 322q0 -236 250 -236q143 0 226 85t114 263l26 148q12 80 13 120q0 231 -248 232q-145 0 -228 -86t-116 -266l-25 -148q-12 -59 -12 -112zM639 1036q369 0 369 -315q0 -63 -17 -152l-26 -157q-39 -222 -151 -326
t-310 -104q-371 0 -371 319q0 70 14 148l29 157q39 222 152 326t311 104z" />
    <glyph glyph-name="otilde" unicode="&#xf5;" horiz-adv-x="1138" 
d="M600 1438q70 0 136 -66t103 -66t61 26t52 89h84q-45 -119 -89 -163q-45 -44 -117 -44t-136 66t-106 66q-62 0 -113 -115h-84q47 115 93 161t116 46zM256 322q0 -236 250 -236q143 0 226 85t114 263l26 148q12 80 13 120q0 231 -248 232q-145 0 -228 -86t-116 -266
l-25 -148q-12 -59 -12 -112zM639 1036q369 0 369 -315q0 -63 -17 -152l-26 -157q-39 -222 -151 -326t-310 -104q-371 0 -371 319q0 70 14 148l29 157q39 222 152 326t311 104z" />
    <glyph glyph-name="odieresis" unicode="&#xf6;" horiz-adv-x="1138" 
d="M831 1212l35 195h115l-35 -195h-115zM440 1212l35 195h113l-33 -195h-115zM256 322q0 -236 250 -236q143 0 226 85t114 263l26 148q12 80 13 120q0 231 -248 232q-145 0 -228 -86t-116 -266l-25 -148q-12 -59 -12 -112zM639 1036q369 0 369 -315q0 -63 -17 -152l-26 -157
q-39 -222 -151 -326t-310 -104q-371 0 -371 319q0 70 14 148l29 157q39 222 152 326t311 104z" />
    <glyph glyph-name="divide" unicode="&#xf7;" 
d="M580 987l28 168h115l-29 -168h-114zM467 346l29 168h114l-28 -168h-115zM98 696l19 105h975l-19 -105h-975z" />
    <glyph glyph-name="oslash" unicode="&#xf8;" horiz-adv-x="1138" 
d="M630 934q-138 0 -221 -86t-116 -266l-25 -148q-12 -60 -12 -108t12 -95l563 631q-63 72 -201 72zM510 86q138 0 222 85q83 85 114 263l26 148q12 84 12 122t-12 82l-563 -630q63 -70 201 -70zM1008 740q0 -82 -17 -171l-26 -157q-39 -222 -151 -326t-302 -104t-287 81
l-84 -94l-61 54l94 104q-41 74 -41 158t14 164l29 157q39 222 151 326t303 104t285 -80l84 95l62 -54l-94 -104q41 -71 41 -153z" />
    <glyph glyph-name="ugrave" unicode="&#xf9;" horiz-adv-x="1130" 
d="M778 1194h-90l-164 281h146zM281 303q0 -213 200 -213q139 0 217 95t117 319l90 514h123l-180 -1018h-90l8 133q-100 -152 -307 -151q-145 0 -226 71q-80 72 -79 201q0 78 22 203l98 561h123l-100 -567q-16 -92 -16 -148z" />
    <glyph glyph-name="uacute" unicode="&#xfa;" horiz-adv-x="1130" 
d="M602 1194l199 281h153l-258 -281h-94zM281 303q0 -213 200 -213q139 0 217 95t117 319l90 514h123l-180 -1018h-90l8 133q-100 -152 -307 -151q-145 0 -226 71q-80 72 -79 201q0 78 22 203l98 561h123l-100 -567q-16 -92 -16 -148z" />
    <glyph glyph-name="ucircumflex" unicode="&#xfb;" horiz-adv-x="1130" 
d="M715 1372l-178 -168h-148l299 258h72l207 -258h-133zM281 303q0 -213 200 -213q139 0 217 95t117 319l90 514h123l-180 -1018h-90l8 133q-100 -152 -307 -151q-145 0 -226 71q-80 72 -79 201q0 78 22 203l98 561h123l-100 -567q-16 -92 -16 -148z" />
    <glyph glyph-name="udieresis" unicode="&#xfc;" horiz-adv-x="1130" 
d="M827 1212l35 195h115l-35 -195h-115zM436 1212l35 195h113l-33 -195h-115zM281 303q0 -213 200 -213q139 0 217 95t117 319l90 514h123l-180 -1018h-90l8 133q-100 -152 -307 -151q-145 0 -226 71q-80 72 -79 201q0 78 22 203l98 561h123l-100 -567q-16 -92 -16 -148z
" />
    <glyph glyph-name="yacute" unicode="&#xfd;" horiz-adv-x="983" 
d="M535 1194l198 281h154l-258 -281h-94zM350 -6l-207 1024h119l172 -885l447 885h129l-633 -1219q-90 -170 -167 -219t-251 -51l18 104q113 0 164 34t115 149z" />
    <glyph glyph-name="thorn" unicode="&#xfe;" horiz-adv-x="1155" 
d="M899 700q0 233 -233 234q-274 0 -336 -350l-27 -150q-12 -63 -12 -110q0 -238 241 -238q269 0 330 350l27 146q10 72 10 118zM1024 723q0 -63 -16 -154l-27 -155q-41 -224 -144 -328t-302 -104t-287 141l-103 -584h-122l339 1923h121l-98 -563q63 74 133 106t172 31
q334 0 334 -313z" />
    <glyph glyph-name="ydieresis" unicode="&#xff;" horiz-adv-x="983" 
d="M733 1212l35 195h115l-35 -195h-115zM342 1212l35 195h112l-32 -195h-115zM350 -6l-207 1024h119l172 -885l447 885h129l-633 -1219q-90 -170 -167 -219t-251 -51l18 104q113 0 164 34t115 149z" />
    <glyph glyph-name="Amacron" unicode="&#x100;" horiz-adv-x="1214" 
d="M578 1714l16 90h487l-16 -90h-487zM907 442l-155 852l-459 -852h614zM922 334h-678l-178 -334h-144l795 1462h119l278 -1462h-133z" />
    <glyph glyph-name="amacron" unicode="&#x101;" horiz-adv-x="1067" 
d="M414 1282l16 90h488l-17 -90h-487zM502 489q-182 -1 -252 -71t-70 -201q0 -75 53 -105t209 -30t226 76q35 39 57 147l33 184h-256zM590 934q-162 0 -279 -105l-73 66q141 141 362 141q156 0 240 -63t84 -185q0 -39 -19 -147l-112 -641h-101l-2 59q-53 -45 -118 -61
t-210 -16t-225 51t-80 166q0 184 92 285t343 102h282l14 88q12 66 13 94q0 166 -211 166z" />
    <glyph glyph-name="Abreve" unicode="&#x102;" horiz-adv-x="1214" 
d="M807 1718q88 0 131 36t70 130h90q-27 -145 -92 -205q-66 -59 -203 -59q-238 0 -238 188q0 29 8 76h89q-4 -29 -5 -47q0 -119 150 -119zM907 442l-155 852l-459 -852h614zM922 334h-678l-178 -334h-144l795 1462h119l278 -1462h-133z" />
    <glyph glyph-name="abreve" unicode="&#x103;" horiz-adv-x="1067" 
d="M508 1405q0 -119 149 -119q88 0 131 36t70 130h90q-27 -147 -92 -206q-66 -58 -203 -58q-238 0 -237 188q0 27 8 76h88q-4 -27 -4 -47zM502 489q-182 -1 -252 -71t-70 -201q0 -75 53 -105t209 -30t226 76q35 39 57 147l33 184h-256zM590 934q-162 0 -279 -105l-73 66
q141 141 362 141q156 0 240 -63t84 -185q0 -39 -19 -147l-112 -641h-101l-2 59q-53 -45 -118 -61t-210 -16t-225 51t-80 166q0 184 92 285t343 102h282l14 88q12 66 13 94q0 166 -211 166z" />
    <glyph glyph-name="Aogonek" unicode="&#x104;" horiz-adv-x="1214" 
d="M907 442l-155 852l-459 -852h614zM938 -385q-186 0 -186 133q0 78 65 147q66 69 174 105h-10l-59 334h-678l-178 -334h-144l795 1462h119l278 -1462q-133 -66 -189 -119t-57 -117q0 -66 95 -65q57 0 122 18v-77q-76 -25 -147 -25z" />
    <glyph glyph-name="aogonek" unicode="&#x105;" horiz-adv-x="1067" 
d="M502 489q-182 -1 -252 -71t-70 -201q0 -75 53 -105t209 -30t226 76q35 39 57 147l33 184h-256zM547 -237q0 -65 94 -64q57 0 123 18l-2 -77q-74 -25 -146 -25q-186 0 -186 133q0 82 70 151t192 107l-2 53q-53 -45 -118 -61t-210 -16t-225 51t-80 166q0 184 92 285
t343 102h282l14 88q12 66 13 94q0 166 -211 166q-162 0 -279 -105l-73 66q141 141 362 141q156 0 240 -63t84 -185q-1 -38 -19 -147l-112 -641q-131 -64 -189 -118t-57 -119z" />
    <glyph glyph-name="Cacute" unicode="&#x106;" horiz-adv-x="1300" 
d="M799 1626l198 281h154l-258 -281h-94zM602 -18q-200 0 -308 99t-108 288q0 80 25 233l53 293q31 174 67 265t105 165q141 154 383 154q188 0 301 -82t113 -221q0 -25 -2 -48l-123 -8q0 63 -12 99q-27 71 -101 111t-176 40q-205 0 -317 -158q-76 -111 -115 -338l-51 -286
q-20 -115 -21 -201q0 -297 297 -297q140 0 238 66t133 186l117 -14q-39 -164 -168 -255t-330 -91z" />
    <glyph glyph-name="cacute" unicode="&#x107;" horiz-adv-x="970" 
d="M584 1194l198 281h154l-258 -281h-94zM494 -18q-172 0 -265 85q-92 85 -92 246q0 63 15 158l18 94q39 225 135 336q113 135 337 135t298 -159l-104 -48q-35 57 -81 81t-122 24q-145 0 -227 -92t-117 -293l-19 -107q-10 -45 -10 -112q0 -244 244 -244q146 0 244 98l79 -67
q-123 -135 -333 -135z" />
    <glyph glyph-name="Ccircumflex" unicode="&#x108;" horiz-adv-x="1300" 
d="M903 1804l-178 -168h-147l299 258h71l207 -258h-133zM602 -18q-200 0 -308 99t-108 288q0 80 25 233l53 293q31 174 67 265t105 165q141 154 383 154q188 0 301 -82t113 -221q0 -25 -2 -48l-123 -8q0 63 -12 99q-27 71 -101 111t-176 40q-205 0 -317 -158
q-76 -111 -115 -338l-51 -286q-20 -115 -21 -201q0 -297 297 -297q140 0 238 66t133 186l117 -14q-39 -164 -168 -255t-330 -91z" />
    <glyph glyph-name="ccircumflex" unicode="&#x109;" horiz-adv-x="970" 
d="M707 1372l-179 -168h-147l299 258h72l206 -258h-133zM494 -18q-172 0 -265 85q-92 85 -92 246q0 63 15 158l18 94q39 225 135 336q113 135 337 135t298 -159l-104 -48q-35 57 -81 81t-122 24q-145 0 -227 -92t-117 -293l-19 -107q-10 -45 -10 -112q0 -244 244 -244
q146 0 244 98l79 -67q-123 -135 -333 -135z" />
    <glyph glyph-name="Cdotaccent" unicode="&#x10a;" horiz-adv-x="1300" 
d="M813 1645l35 194h121l-35 -194h-121zM602 -18q-200 0 -308 99t-108 288q0 80 25 233l53 293q31 174 67 265t105 165q141 154 383 154q188 0 301 -82t113 -221q0 -25 -2 -48l-123 -8q0 63 -12 99q-27 71 -101 111t-176 40q-205 0 -317 -158q-76 -111 -115 -338l-51 -286
q-20 -115 -21 -201q0 -297 297 -297q140 0 238 66t133 186l117 -14q-39 -164 -168 -255t-330 -91z" />
    <glyph glyph-name="cdotaccent" unicode="&#x10b;" horiz-adv-x="970" 
d="M596 1212l35 195h121l-35 -195h-121zM494 -18q-172 0 -265 85q-92 85 -92 246q0 63 15 158l18 94q39 225 135 336q113 135 337 135t298 -159l-104 -48q-35 57 -81 81t-122 24q-145 0 -227 -92t-117 -293l-19 -107q-10 -45 -10 -112q0 -244 244 -244q146 0 244 98l79 -67
q-123 -135 -333 -135z" />
    <glyph glyph-name="Ccaron" unicode="&#x10c;" horiz-adv-x="1300" 
d="M887 1726l178 168h147l-297 -260h-73l-207 260h133zM602 -18q-200 0 -308 99t-108 288q0 80 25 233l53 293q31 174 67 265t105 165q141 154 383 154q188 0 301 -82t113 -221q0 -25 -2 -48l-123 -8q0 63 -12 99q-27 71 -101 111t-176 40q-205 0 -317 -158
q-76 -111 -115 -338l-51 -286q-20 -115 -21 -201q0 -297 297 -297q140 0 238 66t133 186l117 -14q-39 -164 -168 -255t-330 -91z" />
    <glyph glyph-name="ccaron" unicode="&#x10d;" horiz-adv-x="970" 
d="M672 1294l176 168h147l-297 -260h-73l-207 260h133zM494 -18q-172 0 -265 85q-92 85 -92 246q0 63 15 158l18 94q39 225 135 336q113 135 337 135t298 -159l-104 -48q-35 57 -81 81t-122 24q-145 0 -227 -92t-117 -293l-19 -107q-10 -45 -10 -112q0 -244 244 -244
q146 0 244 98l79 -67q-123 -135 -333 -135z" />
    <glyph glyph-name="Dcaron" unicode="&#x10e;" horiz-adv-x="1392" 
d="M831 1726l179 168h147l-297 -260h-74l-206 260h133zM1159 1065q0 145 -106 233q-76 57 -242 58h-307l-221 -1250h307q416 -10 493 461l58 330q18 100 18 168zM829 1462q215 0 322 -82q137 -109 137 -299q0 -68 -20 -190l-64 -356q-39 -262 -191 -400q-153 -137 -405 -135
h-471l258 1462h434z" />
    <glyph glyph-name="dcaron" unicode="&#x10f;" horiz-adv-x="1277" 
d="M1237 1040l125 433h127l-166 -433h-86zM258 315q0 -229 234 -229q274 0 335 348l27 150q10 61 10 114q0 236 -243 236q-133 0 -213 -86t-113 -266l-27 -146q-10 -57 -10 -121zM133 291q0 72 17 160l26 155q40 222 144 326t279 104t257 -75q18 -16 51 -70l103 571h120
l-256 -1462h-100l12 125l-10 -10q-63 -74 -132 -104t-173 -29q-338 0 -338 309z" />
    <glyph glyph-name="Dcroat" unicode="&#x110;" horiz-adv-x="1392" 
d="M1159 1065q0 150 -106 233q-76 57 -242 58h-307l-98 -561h382l-18 -107h-385l-102 -582h307q420 -10 493 461l60 330q16 106 16 168zM829 1462q215 0 322 -82q137 -109 137 -297q0 -82 -20 -190l-64 -358q-37 -262 -190 -401q-154 -138 -406 -134h-471l121 688h-178
l18 107h178l119 667h434z" />
    <glyph glyph-name="dcroat" unicode="&#x111;" horiz-adv-x="1155" 
d="M258 315q0 -229 234 -229q274 0 335 348l27 150q10 61 10 114q0 236 -243 236q-133 0 -213 -86t-113 -266l-27 -146q-10 -57 -10 -121zM133 291q0 72 17 160l26 155q40 222 144 326t279 104t257 -75q18 -14 53 -68l49 285h-315l16 92h316l35 192h120l-32 -192h170
l-17 -92h-170l-207 -1178h-100l12 127q-68 -85 -138 -115q-71 -31 -177 -30q-338 0 -338 309z" />
    <glyph glyph-name="Emacron" unicode="&#x112;" horiz-adv-x="1183" 
d="M602 1714l16 90h488l-16 -90h-488zM139 0l258 1462h834l-19 -108h-708l-98 -559h604l-19 -109h-604l-102 -577h706l-18 -109h-834z" />
    <glyph glyph-name="emacron" unicode="&#x113;" horiz-adv-x="1107" 
d="M434 1282l17 90h487l-16 -90h-488zM870 698q0 240 -233 240q-137 0 -225 -88t-117 -262h567q8 49 8 110zM260 340q0 -256 268 -256q154 0 252 100l80 -67q-121 -135 -338 -135q-385 0 -385 337q0 66 17 160l16 94q41 238 153 351t310 112q354 0 354 -331q0 -109 -24 -213
h-684l-11 -54q-8 -41 -8 -98z" />
    <glyph glyph-name="Ebreve" unicode="&#x114;" horiz-adv-x="1183" 
d="M696 1837q0 -119 150 -119q88 0 131 36t70 130h90q-27 -144 -93 -204t-202 -60q-238 0 -238 188q0 29 8 76h88q-4 -29 -4 -47zM139 0l258 1462h834l-19 -108h-708l-98 -559h604l-19 -109h-604l-102 -577h706l-18 -109h-834z" />
    <glyph glyph-name="ebreve" unicode="&#x115;" horiz-adv-x="1107" 
d="M537 1405q0 -119 149 -119q88 0 131 36t70 130h90q-27 -147 -92 -206q-66 -58 -203 -58q-238 0 -238 188q1 27 9 76h88q-4 -27 -4 -47zM870 698q0 240 -233 240q-137 0 -225 -88t-117 -262h567q8 49 8 110zM260 340q0 -256 268 -256q154 0 252 100l80 -67
q-121 -135 -338 -135q-385 0 -385 337q0 66 17 160l16 94q41 238 153 351t310 112q354 0 354 -331q0 -109 -24 -213h-684l-11 -54q-8 -41 -8 -98z" />
    <glyph glyph-name="Edotaccent" unicode="&#x116;" horiz-adv-x="1183" 
d="M770 1645l35 194h121l-35 -194h-121zM139 0l258 1462h834l-19 -108h-708l-98 -559h604l-19 -109h-604l-102 -577h706l-18 -109h-834z" />
    <glyph glyph-name="edotaccent" unicode="&#x117;" horiz-adv-x="1107" 
d="M618 1212l35 195h121l-35 -195h-121zM870 698q0 240 -233 240q-137 0 -225 -88t-117 -262h567q8 49 8 110zM260 340q0 -256 268 -256q154 0 252 100l80 -67q-121 -135 -338 -135q-385 0 -385 337q0 66 17 160l16 94q41 238 153 351t310 112q354 0 354 -331
q0 -109 -24 -213h-684l-11 -54q-8 -41 -8 -98z" />
    <glyph glyph-name="Eogonek" unicode="&#x118;" horiz-adv-x="1183" 
d="M727 -237q0 -65 94 -64q57 0 123 18l-2 -77q-74 -25 -145 -25q-186 0 -187 133q0 162 238 252h-709l258 1462h834l-19 -108h-708l-98 -559h604l-19 -109h-604l-102 -577h706l-18 -109q-131 -64 -189 -118t-57 -119z" />
    <glyph glyph-name="eogonek" unicode="&#x119;" horiz-adv-x="1107" 
d="M870 698q0 240 -233 240q-137 0 -225 -88t-117 -262h567q8 49 8 110zM510 -233q0 -37 21 -53q22 -15 74 -15t124 18l-2 -77q-76 -25 -147 -25q-186 0 -186 134t136 233q-393 2 -393 337q0 66 17 160l16 94q41 238 153 351t310 112q354 0 354 -331q0 -109 -24 -213h-684
l-11 -54q-8 -41 -8 -98q0 -256 268 -256q154 0 252 100l80 -67q-68 -78 -160 -109q-190 -121 -190 -241z" />
    <glyph glyph-name="Ecaron" unicode="&#x11a;" horiz-adv-x="1183" 
d="M840 1726l178 168h147l-297 -260h-73l-207 260h133zM139 0l258 1462h834l-19 -108h-708l-98 -559h604l-19 -109h-604l-102 -577h706l-18 -109h-834z" />
    <glyph glyph-name="ecaron" unicode="&#x11b;" horiz-adv-x="1107" 
d="M690 1294l176 168h148l-297 -260h-74l-207 260h133zM870 698q0 240 -233 240q-137 0 -225 -88t-117 -262h567q8 49 8 110zM260 340q0 -256 268 -256q154 0 252 100l80 -67q-121 -135 -338 -135q-385 0 -385 337q0 66 17 160l16 94q41 238 153 351t310 112q354 0 354 -331
q0 -109 -24 -213h-684l-11 -54q-8 -41 -8 -98z" />
    <glyph glyph-name="Gcircumflex" unicode="&#x11c;" horiz-adv-x="1359" 
d="M915 1804l-178 -168h-147l299 258h72l206 -258h-133zM641 -18q-229 0 -342 100t-113 291q0 78 25 229l51 293q31 170 70 263t108 167q145 154 391 154q195 0 311 -83t115 -222q0 -25 -4 -46l-120 -10v23q0 105 -82 167t-220 62q-190 0 -293 -117t-151 -381l-51 -284
q-20 -117 -21 -197q0 -301 314 -301q365 0 438 416l27 141h-330l18 105h455l-43 -240q-26 -145 -62 -229t-108 -154q-154 -147 -383 -147z" />
    <glyph glyph-name="gcircumflex" unicode="&#x11d;" horiz-adv-x="1155" 
d="M735 1372l-178 -168h-147l299 258h71l207 -258h-133zM256 317q0 -231 233 -231q274 0 336 348l27 150q10 72 10 112q0 238 -239 238q-271 0 -330 -352l-27 -146q-10 -66 -10 -119zM463 -18q-332 0 -332 311q0 66 16 158l27 155q41 226 143 328t289 102q233 0 312 -157
l34 139h99l-183 -1030q-82 -465 -491 -465q-244 0 -332 143l102 60q72 -100 226 -100t248 88q93 89 122 259l27 146q-109 -137 -307 -137z" />
    <glyph glyph-name="Gbreve" unicode="&#x11e;" horiz-adv-x="1359" 
d="M735 1837q0 -119 150 -119q88 0 131 36t69 130h91q-27 -144 -93 -204t-202 -60q-238 0 -238 188q0 29 8 76h88q-4 -29 -4 -47zM641 -18q-229 0 -342 100t-113 291q0 78 25 229l51 293q31 170 70 263t108 167q145 154 391 154q195 0 311 -83t115 -222q0 -25 -4 -46
l-120 -10v23q0 105 -82 167t-220 62q-190 0 -293 -117t-151 -381l-51 -284q-20 -117 -21 -197q0 -301 314 -301q365 0 438 416l27 141h-330l18 105h455l-43 -240q-26 -145 -62 -229t-108 -154q-154 -147 -383 -147z" />
    <glyph glyph-name="gbreve" unicode="&#x11f;" horiz-adv-x="1155" 
d="M723 1286q88 0 131 36t70 130h90q-27 -147 -92 -206q-66 -58 -203 -58q-238 0 -238 188q0 27 8 76h89q-4 -27 -5 -47q0 -119 150 -119zM256 317q0 -231 233 -231q274 0 336 348l27 150q10 72 10 112q0 238 -239 238q-271 0 -330 -352l-27 -146q-10 -66 -10 -119zM463 -18
q-332 0 -332 311q0 66 16 158l27 155q41 226 143 328t289 102q233 0 312 -157l34 139h99l-183 -1030q-82 -465 -491 -465q-244 0 -332 143l102 60q72 -100 226 -100t248 88q93 89 122 259l27 146q-109 -137 -307 -137z" />
    <glyph glyph-name="Gdotaccent" unicode="&#x120;" horiz-adv-x="1359" 
d="M819 1645l35 194h121l-35 -194h-121zM641 -18q-229 0 -342 100t-113 291q0 78 25 229l51 293q31 170 70 263t108 167q145 154 391 154q195 0 311 -83t115 -222q0 -25 -4 -46l-120 -10v23q0 105 -82 167t-220 62q-190 0 -293 -117t-151 -381l-51 -284q-20 -117 -21 -197
q0 -301 314 -301q365 0 438 416l27 141h-330l18 105h455l-43 -240q-26 -145 -62 -229t-108 -154q-154 -147 -383 -147z" />
    <glyph glyph-name="gdotaccent" unicode="&#x121;" horiz-adv-x="1155" 
d="M649 1212l35 195h121l-35 -195h-121zM256 317q0 -231 233 -231q274 0 336 348l27 150q10 72 10 112q0 238 -239 238q-271 0 -330 -352l-27 -146q-10 -66 -10 -119zM463 -18q-332 0 -332 311q0 66 16 158l27 155q41 226 143 328t289 102q233 0 312 -157l34 139h99
l-183 -1030q-82 -465 -491 -465q-244 0 -332 143l102 60q72 -100 226 -100t248 88q93 89 122 259l27 146q-109 -137 -307 -137z" />
    <glyph glyph-name="Gcommaaccent" unicode="&#x122;" horiz-adv-x="1359" 
d="M375 -440l162 293h129l-203 -293h-88zM641 -18q-229 0 -342 100t-113 291q0 78 25 229l51 293q31 170 70 263t108 167q145 154 391 154q195 0 311 -83t115 -222q0 -25 -4 -46l-120 -10v23q0 105 -82 167t-220 62q-190 0 -293 -117t-151 -381l-51 -284q-20 -117 -21 -197
q0 -301 314 -301q365 0 438 416l27 141h-330l18 105h455l-43 -240q-26 -145 -62 -229t-108 -154q-154 -147 -383 -147z" />
    <glyph glyph-name="gcommaaccent" unicode="&#x123;" horiz-adv-x="1155" 
d="M623 1194l258 281h94l-199 -281h-153zM256 317q0 -231 233 -231q274 0 336 348l27 150q10 72 10 112q0 238 -239 238q-271 0 -330 -352l-27 -146q-10 -66 -10 -119zM463 -18q-332 0 -332 311q0 66 16 158l27 155q41 226 143 328t289 102q233 0 312 -157l34 139h99
l-183 -1030q-82 -465 -491 -465q-244 0 -332 143l102 60q72 -100 226 -100t248 88q93 89 122 259l27 146q-109 -137 -307 -137z" />
    <glyph glyph-name="Hcircumflex" unicode="&#x124;" horiz-adv-x="1394" 
d="M934 1804l-178 -168h-148l299 258h72l207 -258h-133zM139 0l258 1462h127l-118 -667h686l118 667h127l-258 -1462h-127l121 686h-686l-121 -686h-127z" />
    <glyph glyph-name="hcircumflex" unicode="&#x125;" horiz-adv-x="1153" 
d="M514 1804l-178 -168h-148l299 258h72l207 -258h-133zM874 713q0 215 -210 215q-144 0 -226 -95t-119 -311l-92 -522h-123l258 1462h123l-98 -557q74 76 137 104t166 27q145 0 229 -72q83 -73 82 -200q0 -86 -20 -186l-100 -578h-123l102 582q14 80 14 131z" />
    <glyph glyph-name="Hbar" unicode="&#x126;" horiz-adv-x="1394" 
d="M406 795h686l38 219h-684zM139 0l180 1014h-126l16 100h127l61 348h127l-61 -348h686l61 348h127l-61 -348h127l-19 -100h-127l-178 -1014h-127l121 686h-686l-121 -686h-127z" />
    <glyph glyph-name="hbar" unicode="&#x127;" horiz-adv-x="1153" 
d="M874 715q0 213 -208 213q-146 0 -228 -95t-119 -311l-92 -522h-123l207 1178h-170l17 92h170l34 192h123l-34 -192h315l-16 -92h-316l-47 -273q74 76 137 104t166 27q145 0 229 -72q83 -73 82 -200q0 -86 -20 -186l-100 -578h-123l102 582q14 84 14 133z" />
    <glyph glyph-name="Itilde" unicode="&#x128;" horiz-adv-x="581" 
d="M396 1870q70 0 138 -66q66 -66 102 -66t62 28q26 26 54 87h82q-44 -117 -90 -161t-118 -45q-72 0 -136 65t-105 66q-58 0 -113 -115h-84q50 117 94 162t114 45zM139 0l258 1462h127l-258 -1462h-127z" />
    <glyph glyph-name="itilde" unicode="&#x129;" horiz-adv-x="505" 
d="M283 1438q71 0 137 -66t102 -66t60 26q25 26 53 89h84q-45 -119 -89 -163t-117 -44t-137 66t-106 66q-61 0 -112 -115h-84q47 115 93 161t116 46zM100 0l181 1018h122l-180 -1018h-123z" />
    <glyph glyph-name="Imacron" unicode="&#x12a;" horiz-adv-x="581" 
d="M262 1714l17 90h487l-16 -90h-488zM139 0l258 1462h127l-258 -1462h-127z" />
    <glyph glyph-name="imacron" unicode="&#x12b;" horiz-adv-x="505" 
d="M147 1282l17 90h487l-16 -90h-488zM102 0l181 1018h120l-178 -1018h-123z" />
    <glyph glyph-name="Ibreve" unicode="&#x12c;" horiz-adv-x="581" 
d="M358 1837q0 -119 150 -119q88 0 131 36t70 130h90q-27 -145 -92 -205q-66 -59 -203 -59q-238 0 -238 188q0 29 8 76h88q-4 -29 -4 -47zM139 0l258 1462h127l-258 -1462h-127z" />
    <glyph glyph-name="ibreve" unicode="&#x12d;" horiz-adv-x="505" 
d="M244 1405q0 -119 149 -119q88 0 131 36t70 130h90q-27 -147 -92 -206q-66 -58 -203 -58q-238 0 -237 188q0 27 8 76h88q-4 -27 -4 -47zM102 0l181 1018h120l-178 -1018h-123z" />
    <glyph glyph-name="Iogonek" unicode="&#x12e;" horiz-adv-x="581" 
d="M43 -227q0 -74 86 -74q51 0 109 18l-2 -77q-68 -25 -134 -25q-176 0 -176 141q0 156 217 244h-4l258 1462h127l-258 -1462q-223 -102 -223 -227z" />
    <glyph glyph-name="iogonek" unicode="&#x12f;" horiz-adv-x="505" 
d="M326 1270l34 196h123l-34 -196h-123zM2 -227q0 -74 86 -74q51 0 109 18l-2 -77q-68 -25 -134 -25q-176 0 -176 141q0 111 123 193q40 29 94 51l181 1018h120l-178 -1018q-121 -62 -172 -114t-51 -113z" />
    <glyph glyph-name="Idotaccent" unicode="&#x130;" horiz-adv-x="581" 
d="M428 1645l35 194h121l-35 -194h-121zM137 0l258 1462h127l-258 -1462h-127z" />
    <glyph glyph-name="dotlessi" unicode="&#x131;" horiz-adv-x="505" 
d="M102 0l181 1018h120l-178 -1018h-123z" />
    <glyph glyph-name="IJ" unicode="&#x132;" horiz-adv-x="1165" 
d="M383 -496q-88 0 -182 27l59 102q63 -20 119 -20q190 0 278 166q39 72 82 305l242 1378h127l-246 -1396q-30 -176 -54 -255t-65 -137q-123 -170 -360 -170zM139 0l258 1462h127l-258 -1462h-127z" />
    <glyph glyph-name="ij" unicode="&#x133;" horiz-adv-x="1024" 
d="M797 1018h123l-189 -1069q-37 -242 -136 -333t-319 -87l19 106q139 -8 213 65t98 241zM842 1270l35 196h122l-34 -196h-123zM102 0l181 1018h120l-178 -1018h-123zM326 1270l34 196h123l-34 -196h-123z" />
    <glyph glyph-name="Jcircumflex" unicode="&#x134;" horiz-adv-x="935" 
d="M825 1804l-178 -168h-147l299 258h71l207 -258h-133zM256 -16q-110 0 -184 28t-154 99l86 88q98 -106 250 -107q182 0 270 166q37 74 78 305l158 899h127l-160 -911q-37 -203 -55 -269t-60 -126q-117 -172 -356 -172z" />
    <glyph glyph-name="jcircumflex" unicode="&#x135;" horiz-adv-x="518" 
d="M389 1372l-178 -168h-148l299 258h72l207 -258h-133zM289 1018h123l-189 -1069q-35 -242 -134 -333t-320 -87l18 106q139 -8 213 65t98 241z" />
    <glyph glyph-name="Kcommaaccent" unicode="&#x136;" horiz-adv-x="1267" 
d="M371 -440l161 293h130l-203 -293h-88zM139 0l258 1462h125l-151 -862l837 862h152l-578 -585l377 -877h-145l-328 786l-344 -352l-76 -434h-127z" />
    <glyph glyph-name="kcommaaccent" unicode="&#x137;" horiz-adv-x="1028" 
d="M250 -440l162 293h129l-203 -293h-88zM102 0l258 1462h123l-188 -1065l598 621h145l-422 -430l289 -588h-135l-244 506l-260 -268l-41 -238h-123z" />
    <glyph glyph-name="kgreenlandic" unicode="&#x138;" horiz-adv-x="1028" 
d="M102 0l181 1018h120l-108 -619l598 619h145l-422 -430l289 -588h-135l-244 506l-260 -268l-41 -238h-123z" />
    <glyph glyph-name="Lacute" unicode="&#x139;" horiz-adv-x="1083" 
d="M465 1626l199 281h153l-258 -281h-94zM139 0l258 1462h127l-239 -1353h710l-18 -109h-838z" />
    <glyph glyph-name="lacute" unicode="&#x13a;" horiz-adv-x="583" 
d="M383 1626l199 281h153l-258 -281h-94zM262 215q0 -63 34 -87t124 -24h49l-18 -104h-56q-141 0 -199 40t-59 136q0 55 17 139l200 1147h123l-205 -1161q-10 -61 -10 -86z" />
    <glyph glyph-name="Lcommaaccent" unicode="&#x13b;" horiz-adv-x="1083" 
d="M336 -440l162 293h129l-203 -293h-88zM139 0l258 1462h127l-239 -1353h710l-18 -109h-838z" />
    <glyph glyph-name="lcommaaccent" unicode="&#x13c;" horiz-adv-x="583" 
d="M6 -440l162 293h129l-203 -293h-88zM266 215q0 -63 34 -87t124 -24h49l-18 -104h-56q-141 0 -199 40t-59 136q0 55 17 139l200 1147h123l-205 -1161q-10 -61 -10 -86z" />
    <glyph glyph-name="Lcaron" unicode="&#x13d;" horiz-adv-x="1083" 
d="M707 1040l124 433h127l-165 -433h-86zM139 0l258 1462h127l-239 -1353h710l-18 -109h-838z" />
    <glyph glyph-name="lcaron" unicode="&#x13e;" horiz-adv-x="622" 
d="M582 1040l125 433h127l-166 -433h-86zM266 215q0 -63 34 -87t124 -24h49l-18 -104h-56q-141 0 -199 40t-59 136q0 55 17 139l200 1147h123l-205 -1161q-10 -61 -10 -86z" />
    <glyph glyph-name="Ldot" unicode="&#x13f;" horiz-adv-x="1083" 
d="M784 662l33 178h113l-31 -178h-115zM139 0l258 1462h127l-239 -1353h710l-18 -109h-838z" />
    <glyph glyph-name="ldot" unicode="&#x140;" horiz-adv-x="622" 
d="M532 662l33 178h113l-31 -178h-115zM266 215q0 -63 34 -87t124 -24h49l-18 -104h-56q-141 0 -199 40t-59 136q0 55 17 139l200 1147h123l-205 -1161q-10 -61 -10 -86z" />
    <glyph glyph-name="Lslash" unicode="&#x141;" horiz-adv-x="1083" 
d="M139 0l84 469l-182 -111l20 121l183 113l153 870h127l-139 -792l487 299l-20 -121l-490 -301l-77 -438h710l-18 -109h-838z" />
    <glyph glyph-name="lslash" unicode="&#x142;" horiz-adv-x="598" 
d="M430 104h49l-18 -104h-55q-139 0 -198 40q-58 40 -58 136q0 49 10 105l61 346l-223 -140l22 125l222 140l125 710h122l-112 -635l272 168l-22 -125l-273 -168l-69 -401q-11 -49 -11 -99t34 -74t122 -24z" />
    <glyph glyph-name="Nacute" unicode="&#x143;" horiz-adv-x="1482" 
d="M862 1626l199 281h153l-258 -281h-94zM139 0l258 1462h121l563 -1243l219 1243h125l-258 -1462h-120l-564 1243l-219 -1243h-125z" />
    <glyph glyph-name="nacute" unicode="&#x144;" horiz-adv-x="1153" 
d="M621 1194l198 281h154l-258 -281h-94zM686 1036q152 0 234 -70t81 -204q0 -68 -20 -184l-100 -578h-123l100 575q16 88 16 142q0 211 -210 211q-144 0 -226 -95t-121 -319l-90 -514h-123l181 1018h96l-12 -129q109 147 317 147z" />
    <glyph glyph-name="Ncommaaccent" unicode="&#x145;" horiz-adv-x="1482" 
d="M446 -440l162 293h129l-202 -293h-89zM139 0l258 1462h121l563 -1243l219 1243h125l-258 -1462h-120l-564 1243l-219 -1243h-125z" />
    <glyph glyph-name="ncommaaccent" unicode="&#x146;" horiz-adv-x="1153" 
d="M276 -440l162 293h129l-202 -293h-89zM686 1036q152 0 234 -70t81 -204q0 -68 -20 -184l-100 -578h-123l100 575q16 88 16 142q0 211 -210 211q-144 0 -226 -95t-121 -319l-90 -514h-123l181 1018h96l-12 -129q109 147 317 147z" />
    <glyph glyph-name="Ncaron" unicode="&#x147;" horiz-adv-x="1482" 
d="M954 1726l179 168h147l-297 -260h-74l-207 260h134zM139 0l258 1462h121l563 -1243l219 1243h125l-258 -1462h-120l-564 1243l-219 -1243h-125z" />
    <glyph glyph-name="ncaron" unicode="&#x148;" horiz-adv-x="1153" 
d="M709 1294l176 168h147l-297 -260h-73l-207 260h133zM686 1036q152 0 234 -70t81 -204q0 -68 -20 -184l-100 -578h-123l100 575q16 88 16 142q0 211 -210 211q-144 0 -226 -95t-121 -319l-90 -514h-123l181 1018h96l-12 -129q109 147 317 147z" />
    <glyph glyph-name="napostrophe" unicode="&#x149;" horiz-adv-x="1206" 
d="M113 991l159 471h129l-186 -471h-102zM729 1036q152 0 234 -70t81 -204q0 -68 -20 -184l-100 -578h-123l102 575q14 88 15 142q0 211 -211 211q-145 0 -227 -95t-120 -319l-90 -514h-123l181 1018h96l-12 -129q109 147 317 147z" />
    <glyph glyph-name="Eng" unicode="&#x14a;" horiz-adv-x="1482" 
d="M139 0l258 1462h121l563 -1241l219 1241h125l-266 -1509q-37 -236 -138 -331t-316 -93l18 104q139 -8 214 65t99 236l13 78l-566 1231l-219 -1243h-125z" />
    <glyph glyph-name="eng" unicode="&#x14b;" horiz-adv-x="1153" 
d="M686 1036q152 0 234 -70t81 -204q0 -68 -20 -184l-111 -633q-35 -231 -136 -325t-318 -91l18 106q139 -8 213 64t101 242l110 634q16 88 16 142q0 211 -210 211q-144 0 -226 -95t-121 -319l-90 -514h-123l181 1018h96l-12 -129q109 147 317 147z" />
    <glyph glyph-name="Omacron" unicode="&#x14c;" horiz-adv-x="1388" 
d="M666 1714l16 90h487l-16 -90h-487zM1157 1071q0 143 -84 222t-235 79q-203 0 -322 -145q-51 -61 -78 -132t-49 -196l-59 -336q-18 -106 -19 -172q0 -143 84 -222t236 -79q203 0 321 143q90 111 127 330l60 336q18 100 18 172zM1286 1087q0 -78 -20 -192l-66 -365
q-26 -154 -66 -242t-114 -159q-150 -147 -380 -147t-344 107t-114 282q1 77 21 196l65 365q27 154 66 242t112 159q154 147 380 147t342 -102q118 -104 118 -291z" />
    <glyph glyph-name="omacron" unicode="&#x14d;" horiz-adv-x="1138" 
d="M453 1282l16 90h487l-16 -90h-487zM256 322q0 -236 250 -236q143 0 226 85t114 263l26 148q12 80 13 120q0 231 -248 232q-145 0 -228 -86t-116 -266l-25 -148q-12 -59 -12 -112zM639 1036q369 0 369 -315q0 -63 -17 -152l-26 -157q-39 -222 -151 -326t-310 -104
q-371 0 -371 319q0 70 14 148l29 157q39 222 152 326t311 104z" />
    <glyph glyph-name="Obreve" unicode="&#x14e;" horiz-adv-x="1388" 
d="M760 1837q0 -119 149 -119q88 0 131 36t70 130h90q-27 -145 -92 -205q-66 -59 -203 -59q-238 0 -237 188q0 29 8 76h88q-4 -29 -4 -47zM1157 1071q0 143 -84 222t-235 79q-203 0 -322 -145q-51 -61 -78 -132t-49 -196l-59 -336q-18 -106 -19 -172q0 -143 84 -222t236 -79
q203 0 321 143q90 111 127 330l60 336q18 100 18 172zM1286 1087q0 -78 -20 -192l-66 -365q-26 -154 -66 -242t-114 -159q-150 -147 -380 -147t-344 107t-114 282q1 77 21 196l65 365q27 154 66 242t112 159q154 147 380 147t342 -102q118 -104 118 -291z" />
    <glyph glyph-name="obreve" unicode="&#x14f;" horiz-adv-x="1138" 
d="M559 1405q0 -119 150 -119q88 0 131 36t69 130h90q-27 -147 -92 -206q-66 -58 -202 -58q-238 0 -238 188q0 27 8 76h88q-4 -27 -4 -47zM256 322q0 -236 250 -236q143 0 226 85t114 263l26 148q12 80 13 120q0 231 -248 232q-145 0 -228 -86t-116 -266l-25 -148
q-12 -59 -12 -112zM639 1036q369 0 369 -315q0 -63 -17 -152l-26 -157q-39 -222 -151 -326t-310 -104q-371 0 -371 319q0 70 14 148l29 157q39 222 152 326t311 104z" />
    <glyph glyph-name="Ohungarumlaut" unicode="&#x150;" horiz-adv-x="1388" 
d="M961 1626l167 281h136l-213 -281h-90zM711 1626l168 281h135l-213 -281h-90zM1157 1071q0 143 -84 222t-235 79q-203 0 -322 -145q-51 -61 -78 -132t-49 -196l-59 -336q-18 -106 -19 -172q0 -143 84 -222t236 -79q203 0 321 143q90 111 127 330l60 336q18 100 18 172z
M1286 1087q0 -78 -20 -192l-66 -365q-26 -154 -66 -242t-114 -159q-150 -147 -380 -147t-344 107t-114 282q1 77 21 196l65 365q27 154 66 242t112 159q154 147 380 147t342 -102q118 -104 118 -291z" />
    <glyph glyph-name="ohungarumlaut" unicode="&#x151;" horiz-adv-x="1138" 
d="M760 1194l168 281h135l-213 -281h-90zM510 1194l168 281h135l-213 -281h-90zM256 322q0 -236 250 -236q143 0 226 85t114 263l26 148q12 80 13 120q0 231 -248 232q-145 0 -228 -86t-116 -266l-25 -148q-12 -59 -12 -112zM639 1036q369 0 369 -315q0 -63 -17 -152
l-26 -157q-39 -222 -151 -326t-310 -104q-371 0 -371 319q0 70 14 148l29 157q39 222 152 326t311 104z" />
    <glyph glyph-name="OE" unicode="&#x152;" horiz-adv-x="2025" 
d="M629 90q371 0 452 469l56 313q18 100 18 183q0 317 -317 317q-199 0 -322 -143q-90 -111 -127 -330l-61 -340q-16 -106 -17 -168q0 -143 83 -222t235 -79zM610 -18q-200 0 -314 103t-114 286q0 80 21 192l65 369q27 154 66 242t110 159q146 147 376 147t343 -130
q17 -18 33 -58t21 -47l36 217h820l-19 -108h-706l-99 -559h602l-20 -109h-602l-103 -577h709l-20 -109h-818l35 207l-45 -62q-53 -75 -154 -119t-223 -44z" />
    <glyph glyph-name="oe" unicode="&#x153;" horiz-adv-x="1810" 
d="M1575 698q0 240 -234 240q-286 0 -344 -350h568q10 61 10 110zM256 322q0 -236 250 -236q143 0 225 85t115 265l26 146q10 61 11 120q0 231 -246 232q-145 0 -228 -86t-116 -266l-25 -146q-12 -59 -12 -114zM496 -18q-363 0 -363 319q0 74 14 148l29 157q39 222 150 326
t309 104q143 0 224 -52t110 -165q74 119 157 168q84 49 211 49q352 0 353 -331q0 -106 -25 -213h-684l-10 -54q-8 -43 -8 -100q0 -254 268 -254q154 0 252 100l80 -67q-117 -135 -336 -135q-289 0 -348 225q-59 -119 -151 -172t-232 -53z" />
    <glyph glyph-name="Racute" unicode="&#x154;" horiz-adv-x="1325" 
d="M737 1626l199 281h154l-259 -281h-94zM772 756q178 0 271 106t94 271q0 223 -283 223h-348l-107 -600h373zM866 1462q402 0 402 -315q0 -205 -110 -340t-284 -145l207 -662h-141l-192 651h-365l-115 -651h-127l258 1462h467z" />
    <glyph glyph-name="racute" unicode="&#x155;" horiz-adv-x="753" 
d="M489 1194l199 281h154l-258 -281h-95zM627 928q-125 0 -198 -102t-114 -326l-88 -500h-123l181 1018h98l-12 -133q104 152 278 151q98 0 185 -47l-70 -106q-68 45 -137 45z" />
    <glyph glyph-name="Rcommaaccent" unicode="&#x156;" horiz-adv-x="1325" 
d="M356 -440l162 293h129l-203 -293h-88zM772 756q178 0 271 106t94 271q0 223 -283 223h-348l-107 -600h373zM866 1462q402 0 402 -315q0 -205 -110 -340t-284 -145l207 -662h-141l-192 651h-365l-115 -651h-127l258 1462h467z" />
    <glyph glyph-name="rcommaaccent" unicode="&#x157;" horiz-adv-x="753" 
d="M-68 -440l162 293h129l-203 -293h-88zM625 928q-125 0 -198 -102t-114 -326l-88 -500h-123l181 1018h98l-10 -133q102 152 278 151q100 0 182 -47l-69 -106q-66 45 -137 45z" />
    <glyph glyph-name="Rcaron" unicode="&#x158;" horiz-adv-x="1325" 
d="M809 1726l178 168h148l-297 -260h-74l-207 260h133zM772 756q178 0 271 106t94 271q0 223 -283 223h-348l-107 -600h373zM866 1462q402 0 402 -315q0 -205 -110 -340t-284 -145l207 -662h-141l-192 651h-365l-115 -651h-127l258 1462h467z" />
    <glyph glyph-name="rcaron" unicode="&#x159;" horiz-adv-x="753" 
d="M557 1294l176 168h148l-297 -260h-74l-207 260h133zM627 928q-125 0 -198 -102t-114 -326l-88 -500h-123l181 1018h98l-12 -133q104 152 278 151q98 0 185 -47l-70 -106q-68 45 -137 45z" />
    <glyph glyph-name="Sacute" unicode="&#x15a;" horiz-adv-x="1189" 
d="M707 1626l198 281h154l-258 -281h-94zM524 92q238 0 344 135q72 93 72 201t-68 160q-40 33 -72 45t-205 57t-259 127t-86 213q0 174 112 303q129 145 375 146q150 0 256 -44t150 -122l-111 -66q-72 123 -286 123t-306 -131q-63 -89 -63 -189q-1 -100 69 -156t222 -96
t204 -62q197 -82 197 -276q0 -195 -119 -321q-147 -156 -428 -155q-221 0 -354 82q-74 42 -111 118l113 66q74 -158 354 -158z" />
    <glyph glyph-name="sacute" unicode="&#x15b;" horiz-adv-x="954" 
d="M514 1194l199 281h153l-258 -281h-94zM383 84q147 0 227 60t80 169q0 76 -49 105q-49 28 -201 52t-215 77q-64 53 -63 162q0 143 93 235t263 92q254 0 352 -147l-100 -58q-84 102 -246 103q-108 0 -174 -58t-66 -142t45 -112q45 -30 199 -54t220 -76t65 -170
q0 -166 -110 -253t-320 -87q-291 0 -385 141l98 63q90 -102 287 -102z" />
    <glyph glyph-name="Scircumflex" unicode="&#x15c;" horiz-adv-x="1189" 
d="M829 1804l-178 -168h-147l299 258h71l207 -258h-133zM524 92q238 0 344 135q72 93 72 201t-68 160q-40 33 -72 45t-205 57t-259 127t-86 213q0 174 112 303q129 145 375 146q150 0 256 -44t150 -122l-111 -66q-72 123 -286 123t-306 -131q-63 -89 -63 -189
q-1 -100 69 -156t222 -96t204 -62q197 -82 197 -276q0 -195 -119 -321q-147 -156 -428 -155q-221 0 -354 82q-74 42 -111 118l113 66q74 -158 354 -158z" />
    <glyph glyph-name="scircumflex" unicode="&#x15d;" horiz-adv-x="954" 
d="M627 1372l-178 -168h-148l299 258h72l207 -258h-134zM383 84q147 0 227 60t80 169q0 76 -49 105q-49 28 -201 52t-215 77q-64 53 -63 162q0 143 93 235t263 92q254 0 352 -147l-100 -58q-84 102 -246 103q-108 0 -174 -58t-66 -142t45 -112q45 -30 199 -54t220 -76
t65 -170q0 -166 -110 -253t-320 -87q-291 0 -385 141l98 63q90 -102 287 -102z" />
    <glyph glyph-name="Scedilla" unicode="&#x15e;" horiz-adv-x="1189" 
d="M279 -440l161 293h129l-202 -293h-88zM524 92q238 0 344 135q72 93 72 201t-68 160q-40 33 -72 45t-205 57t-259 127t-86 213q0 174 112 303q129 145 375 146q150 0 256 -44t150 -122l-111 -66q-72 123 -286 123t-306 -131q-63 -89 -63 -189q-1 -100 69 -156t222 -96
t204 -62q197 -82 197 -276q0 -195 -119 -321q-147 -156 -428 -155q-221 0 -354 82q-74 42 -111 118l113 66q74 -158 354 -158z" />
    <glyph glyph-name="scedilla" unicode="&#x15f;" horiz-adv-x="954" 
d="M178 -440l162 293h129l-203 -293h-88zM383 84q147 0 227 60t80 169q0 76 -49 105q-49 28 -201 52t-215 77q-64 53 -63 162q0 143 93 235t263 92q254 0 352 -147l-100 -58q-84 102 -246 103q-108 0 -174 -58t-66 -142t45 -112q45 -30 199 -54t220 -76t65 -170
q0 -166 -110 -253t-320 -87q-291 0 -385 141l98 63q90 -102 287 -102z" />
    <glyph glyph-name="Scaron" unicode="&#x160;" horiz-adv-x="1189" 
d="M776 1726l178 168h148l-297 -260h-74l-207 260h133zM524 92q238 0 344 135q72 93 72 201t-68 160q-40 33 -72 45t-205 57t-259 127t-86 213q0 174 112 303q129 145 375 146q150 0 256 -44t150 -122l-111 -66q-72 123 -286 123t-306 -131q-63 -89 -63 -189
q-1 -100 69 -156t222 -96t204 -62q197 -82 197 -276q0 -195 -119 -321q-147 -156 -428 -155q-221 0 -354 82q-74 42 -111 118l113 66q74 -158 354 -158z" />
    <glyph glyph-name="scaron" unicode="&#x161;" horiz-adv-x="954" 
d="M596 1294l176 168h148l-297 -260h-74l-207 260h133zM383 84q147 0 227 60t80 169q0 76 -49 105q-49 28 -201 52t-215 77q-64 53 -63 162q0 143 93 235t263 92q254 0 352 -147l-100 -58q-84 102 -246 103q-108 0 -174 -58t-66 -142t45 -112q45 -30 199 -54t220 -76
t65 -170q0 -166 -110 -253t-320 -87q-291 0 -385 141l98 63q90 -102 287 -102z" />
    <glyph glyph-name="Tcommaaccent" unicode="&#x162;" horiz-adv-x="1134" 
d="M233 -440l162 293h129l-202 -293h-89zM418 0l239 1354h-432l19 108h987l-19 -108h-428l-239 -1354h-127z" />
    <glyph glyph-name="tcommaaccent" unicode="&#x163;" horiz-adv-x="673" 
d="M51 -440l162 293h129l-203 -293h-88zM305 203q0 -49 32 -74t114 -25h38l-18 -104h-29q-143 0 -202 40q-60 40 -60 118t15 157l106 600h-127l19 103h126l66 338h117l-62 -338h201l-18 -103h-199l-111 -620q-8 -43 -8 -92z" />
    <glyph glyph-name="Tcaron" unicode="&#x164;" horiz-adv-x="1134" 
d="M776 1726l178 168h148l-297 -260h-74l-207 260h133zM418 0l239 1354h-432l19 108h987l-19 -108h-428l-239 -1354h-127z" />
    <glyph glyph-name="tcaron" unicode="&#x165;" horiz-adv-x="690" 
d="M659 1204l119 406h127l-157 -406h-89zM303 201q0 -97 146 -97h38l-18 -104h-29q-143 0 -202 40t-60 136q0 55 15 139l106 600h-127l18 103h129l64 338h117l-60 -338h199l-18 -103h-199l-111 -620q-8 -47 -8 -94z" />
    <glyph glyph-name="Tbar" unicode="&#x166;" horiz-adv-x="1134" 
d="M418 0l121 688h-297l18 107h297l100 559h-432l19 108h987l-19 -108h-428l-100 -559h295l-18 -107h-295l-121 -688h-127z" />
    <glyph glyph-name="tbar" unicode="&#x167;" horiz-adv-x="675" 
d="M309 200q0 -48 33 -72t113 -24h39l-19 -104h-29q-143 0 -202 40q-60 40 -60 118t11 131l59 332h-129l16 92h129l35 202h-127l19 103h127l63 338h119l-60 -338h199l-18 -103h-199l-37 -202h199l-15 -92h-200l-60 -342q-6 -31 -6 -79z" />
    <glyph glyph-name="Utilde" unicode="&#x168;" horiz-adv-x="1417" 
d="M814 1870q72 0 138 -66t102 -66t62 28q26 26 53 87h82q-45 -117 -90 -161t-117 -45q-72 0 -136 65t-105 66q-58 0 -113 -115h-84q49 117 93 162t115 45zM336 340q0 -80 53 -152q76 -96 254 -96q219 0 336 162q63 86 96 281l164 927h127l-168 -950q-26 -152 -56 -226
t-91 -141q-154 -161 -406 -161t-358 127q-80 94 -80 227q0 78 24 219l160 905h127l-164 -927q-18 -115 -18 -195z" />
    <glyph glyph-name="utilde" unicode="&#x169;" horiz-adv-x="1130" 
d="M596 1438q70 0 136 -66t103 -66t61 26t52 89h84q-45 -119 -89 -163t-117 -44t-137 66t-105 66q-62 0 -113 -115h-84q47 115 93 161t116 46zM281 303q0 -213 200 -213q139 0 217 95t117 319l90 514h123l-180 -1018h-90l8 133q-100 -152 -307 -151q-145 0 -226 71
q-80 72 -79 201q0 78 22 203l98 561h123l-100 -567q-16 -92 -16 -148z" />
    <glyph glyph-name="Umacron" unicode="&#x16a;" horiz-adv-x="1417" 
d="M674 1714l16 90h488l-17 -90h-487zM336 340q0 -80 53 -152q76 -96 254 -96q219 0 336 162q63 86 96 281l164 927h127l-168 -950q-26 -152 -56 -226t-91 -141q-154 -161 -406 -161t-358 127q-80 94 -80 227q0 78 24 219l160 905h127l-164 -927q-18 -115 -18 -195z" />
    <glyph glyph-name="umacron" unicode="&#x16b;" horiz-adv-x="1130" 
d="M451 1282l16 90h487l-16 -90h-487zM281 303q0 -213 200 -213q139 0 217 95t117 319l90 514h123l-180 -1018h-90l8 133q-100 -152 -307 -151q-145 0 -226 71q-80 72 -79 201q0 78 22 203l98 561h123l-100 -567q-16 -92 -16 -148z" />
    <glyph glyph-name="Ubreve" unicode="&#x16c;" horiz-adv-x="1417" 
d="M774 1837q0 -119 150 -119q88 0 131 36t69 130h90q-27 -145 -92 -205q-66 -59 -202 -59q-238 0 -238 188q0 29 8 76h88q-4 -29 -4 -47zM336 340q0 -80 53 -152q76 -96 254 -96q219 0 336 162q63 86 96 281l164 927h127l-168 -950q-26 -152 -56 -226t-91 -141
q-154 -161 -406 -161t-358 127q-80 94 -80 227q0 78 24 219l160 905h127l-164 -927q-18 -115 -18 -195z" />
    <glyph glyph-name="ubreve" unicode="&#x16d;" horiz-adv-x="1130" 
d="M528 1405q0 -119 150 -119q88 0 131 36t70 130h90q-27 -147 -92 -206q-66 -58 -203 -58q-238 0 -238 188q0 27 8 76h88q-4 -27 -4 -47zM281 303q0 -213 200 -213q139 0 217 95t117 319l90 514h123l-180 -1018h-90l8 133q-100 -152 -307 -151q-145 0 -226 71
q-80 72 -79 201q0 78 22 203l98 561h123l-100 -567q-16 -92 -16 -148z" />
    <glyph glyph-name="Uring" unicode="&#x16e;" horiz-adv-x="1417" 
d="M1055 1843q0 90 -103 90q-54 0 -94 -44t-39 -115q0 -92 96 -93q61 0 101 45q39 45 39 117zM955 2005q194 0 194 -175q0 -87 -68 -154q-68 -66 -162 -66t-144 45t-50 133t68 152t162 65zM336 340q0 -80 53 -152q76 -96 254 -96q219 0 336 162q63 86 96 281l164 927h127
l-168 -950q-26 -152 -56 -226t-91 -141q-154 -161 -406 -161t-358 127q-80 94 -80 227q0 78 24 219l160 905h127l-164 -927q-18 -115 -18 -195z" />
    <glyph glyph-name="uring" unicode="&#x16f;" horiz-adv-x="1130" 
d="M838 1409q0 92 -103 92q-53 0 -93 -45t-40 -115q0 -92 96 -92q61 0 101 45q39 45 39 115zM738 1573q194 0 194 -175q0 -87 -68 -154q-68 -66 -162 -66t-144 45t-50 133t67 152q69 65 163 65zM281 303q0 -213 200 -213q139 0 217 95t117 319l90 514h123l-180 -1018h-90
l8 133q-100 -152 -307 -151q-145 0 -226 71q-80 72 -79 201q0 78 22 203l98 561h123l-100 -567q-16 -92 -16 -148z" />
    <glyph glyph-name="Uhungarumlaut" unicode="&#x170;" horiz-adv-x="1417" 
d="M975 1626l168 281h135l-213 -281h-90zM725 1626l168 281h135l-213 -281h-90zM336 340q0 -80 53 -152q76 -96 254 -96q219 0 336 162q63 86 96 281l164 927h127l-168 -950q-26 -152 -56 -226t-91 -141q-154 -161 -406 -161t-358 127q-80 94 -80 227q0 78 24 219l160 905
h127l-164 -927q-18 -115 -18 -195z" />
    <glyph glyph-name="uhungarumlaut" unicode="&#x171;" horiz-adv-x="1130" 
d="M756 1194l168 281h135l-213 -281h-90zM506 1194l168 281h135l-213 -281h-90zM281 303q0 -213 200 -213q139 0 217 95t117 319l90 514h123l-180 -1018h-90l8 133q-100 -152 -307 -151q-145 0 -226 71q-80 72 -79 201q0 78 22 203l98 561h123l-100 -567q-16 -92 -16 -148z
" />
    <glyph glyph-name="Uogonek" unicode="&#x172;" horiz-adv-x="1417" 
d="M582 -220q0 -50 21 -66q22 -15 76 -15t120 18l-2 -77q-76 -25 -146 -25q-186 0 -186 136t176 233q-217 2 -311 84q-123 100 -123 270q0 78 24 219l160 905h127l-164 -927q-18 -115 -18 -195t53 -152q76 -96 254 -96q219 0 336 162q63 86 96 281l164 927h127l-168 -950
q-29 -217 -123 -340t-268 -170q-225 -117 -225 -222z" />
    <glyph glyph-name="uogonek" unicode="&#x173;" horiz-adv-x="1130" 
d="M604 -236q0 -66 94 -65q57 0 123 18l-2 -77q-76 -25 -145 -25q-186 0 -187 135q0 170 273 262l6 121q-100 -152 -307 -151q-145 0 -226 71q-80 72 -79 201q0 78 22 203l98 561h123l-100 -567q-16 -92 -16 -148q0 -213 200 -213q139 0 217 95t117 319l90 514h123
l-180 -1018q-244 -111 -244 -236z" />
    <glyph glyph-name="Wcircumflex" unicode="&#x174;" horiz-adv-x="1759" 
d="M1083 1804l-178 -168h-147l299 258h71l207 -258h-133zM342 0l-109 1462h125l76 -1249l570 1249h83l127 -1249l521 1249h129l-625 -1462h-104l-127 1227l-562 -1227h-104z" />
    <glyph glyph-name="wcircumflex" unicode="&#x175;" horiz-adv-x="1572" 
d="M930 1372l-178 -168h-148l299 258h72l207 -258h-133zM315 0l-139 1018h121l98 -848l434 848h84l136 -848l397 848h129l-498 -1018h-96l-139 823l-432 -823h-95z" />
    <glyph glyph-name="Ycircumflex" unicode="&#x176;" horiz-adv-x="1079" 
d="M764 1804l-178 -168h-148l299 258h72l207 -258h-133zM389 0l92 528l-299 934h131l250 -800l535 800h139l-629 -934l-92 -528h-127z" />
    <glyph glyph-name="ycircumflex" unicode="&#x177;" horiz-adv-x="983" 
d="M631 1372l-178 -168h-148l299 258h72l207 -258h-133zM350 -6l-207 1024h119l172 -885l447 885h129l-633 -1219q-90 -170 -167 -219t-251 -51l18 104q113 0 164 34t115 149z" />
    <glyph glyph-name="Ydieresis" unicode="&#x178;" horiz-adv-x="1079" 
d="M881 1645l32 194h115l-35 -194h-112zM485 1645l35 194h113l-33 -194h-115zM389 0l92 528l-299 934h131l250 -800l535 800h139l-629 -934l-92 -528h-127z" />
    <glyph glyph-name="Zacute" unicode="&#x179;" horiz-adv-x="1095" 
d="M670 1626l198 281h154l-258 -281h-94zM14 0l17 94l925 1260h-663l18 108h807l-16 -94l-926 -1259h735l-18 -109h-879z" />
    <glyph glyph-name="zacute" unicode="&#x17a;" horiz-adv-x="966" 
d="M520 1194l199 281h153l-258 -281h-94zM10 0l15 80l696 833h-508l18 105h662l-14 -80l-697 -834h582l-19 -104h-735z" />
    <glyph glyph-name="Zdotaccent" unicode="&#x17b;" horiz-adv-x="1095" 
d="M676 1645l35 194h120l-34 -194h-121zM14 0l17 94l925 1260h-663l18 108h807l-16 -94l-926 -1259h735l-18 -109h-879z" />
    <glyph glyph-name="zdotaccent" unicode="&#x17c;" horiz-adv-x="966" 
d="M532 1212l35 195h121l-35 -195h-121zM10 0l15 80l696 833h-508l18 105h662l-14 -80l-697 -834h582l-19 -104h-735z" />
    <glyph glyph-name="Zcaron" unicode="&#x17d;" horiz-adv-x="1095" 
d="M762 1726l178 168h147l-296 -260h-74l-207 260h133zM14 0l17 94l925 1260h-663l18 108h807l-16 -94l-926 -1259h735l-18 -109h-879z" />
    <glyph glyph-name="zcaron" unicode="&#x17e;" horiz-adv-x="966" 
d="M596 1294l176 168h148l-297 -260h-74l-207 260h133zM10 0l15 80l696 833h-508l18 105h662l-14 -80l-697 -834h582l-19 -104h-735z" />
    <glyph glyph-name="Ohorn" unicode="&#x1a0;" horiz-adv-x="1427" 
d="M1157 1071q0 143 -84 222t-235 79q-203 0 -322 -145q-51 -61 -78 -132t-49 -196l-59 -336q-18 -102 -19 -172q0 -143 84 -222t236 -79q203 0 321 143q90 111 127 330l60 336q18 98 18 172zM1587 1438q0 -137 -123 -228q-57 -39 -182 -104v-27q4 -72 -16 -184l-66 -365
q-26 -154 -66 -242t-114 -159q-150 -147 -382 -147t-345 110q-111 104 -111 279q0 74 21 196l63 365q29 154 68 243t112 158q154 147 394 148q180 0 292 -75t142 -216q104 57 137 90q68 61 68 150q-1 20 -9 51h115q2 -20 2 -43z" />
    <glyph glyph-name="ohorn" unicode="&#x1a1;" horiz-adv-x="1171" 
d="M256 319q0 -233 250 -233q143 0 226 85t114 263l26 148q10 61 11 120q0 231 -246 232q-145 0 -228 -86t-116 -266l-25 -148q-12 -70 -12 -115zM1284 993q0 -188 -280 -323q-4 -66 -13 -101l-26 -157q-39 -222 -151 -326t-310 -104q-371 0 -371 319q0 70 14 148l29 157
q39 222 151 326t298 104t275 -68t106 -208q74 41 104 74q66 70 66 151q-1 18 -7 51h113q2 -25 2 -43z" />
    <glyph glyph-name="Uhorn" unicode="&#x1af;" horiz-adv-x="1474" 
d="M334 358q0 -100 53 -170q76 -96 254 -96q221 0 338 162q63 90 96 281l164 927h127l-53 -299q104 45 162 90q90 74 90 177q0 20 -9 51h113q4 -23 4 -43q0 -127 -114 -224q-88 -70 -263 -145l-98 -557q-28 -150 -58 -226t-89 -141q-154 -161 -406 -161t-358 127
q-80 94 -80 227q0 78 24 219l160 905h127l-164 -927q-20 -125 -20 -177z" />
    <glyph glyph-name="uhorn" unicode="&#x1b0;" horiz-adv-x="1191" 
d="M281 301q0 -211 202 -211q139 0 216 95t116 319l90 514h123l-53 -301q119 55 160 90q92 76 92 178q0 14 -6 51h112q2 -18 2 -39q0 -115 -84 -198q-45 -47 -97 -79t-196 -97l-110 -623h-90l8 133q-100 -152 -307 -151q-145 0 -226 71q-80 72 -79 201q0 78 22 203l98 561
h123l-100 -567q-16 -92 -16 -150z" />
    <glyph glyph-name="uni01C4" unicode="&#x1c4;" horiz-adv-x="2406" 
d="M2073 1726l178 168h147l-299 -260h-71l-209 260h133zM1325 0l16 94l924 1260h-663l20 108h805l-17 -94l-923 -1259h733l-18 -109h-877zM1159 1065q0 145 -106 233q-76 57 -242 58h-307l-221 -1250h307q416 -10 493 461l58 330q18 100 18 168zM829 1462q215 0 322 -82
q137 -109 137 -299q0 -68 -20 -190l-64 -356q-39 -262 -191 -400q-153 -137 -405 -135h-471l258 1462h434z" />
    <glyph glyph-name="uni01C5" unicode="&#x1c5;" horiz-adv-x="2299" 
d="M1927 1294l178 168h148l-299 -260h-72l-209 260h133zM1343 0l15 80l694 833h-506l19 105h659l-12 -80l-696 -834h581l-18 -104h-736zM1159 1065q0 145 -106 233q-76 57 -242 58h-307l-221 -1250h307q416 -10 493 461l58 330q18 100 18 168zM829 1462q215 0 322 -82
q137 -109 137 -299q0 -68 -20 -190l-64 -356q-39 -262 -191 -400q-153 -137 -405 -135h-471l258 1462h434z" />
    <glyph glyph-name="uni01C6" unicode="&#x1c6;" horiz-adv-x="2121" 
d="M1749 1294l178 168h148l-299 -260h-74l-207 260h133zM1165 0l15 80l694 833h-506l18 105h660l-14 -80l-695 -834h582l-18 -104h-736zM258 315q0 -229 234 -229q274 0 335 348l27 150q10 61 10 114q0 236 -243 236q-133 0 -213 -86t-113 -266l-27 -146q-10 -57 -10 -121z
M133 291q0 72 17 160l26 155q40 222 144 326t279 104t257 -75q18 -16 51 -70l103 571h120l-256 -1462h-100l12 125l-10 -10q-63 -74 -132 -104t-173 -29q-338 0 -338 309z" />
    <glyph glyph-name="uni01C7" unicode="&#x1c7;" horiz-adv-x="1665" 
d="M885 -496q-90 0 -183 27l60 102q61 -20 119 -20q188 0 278 166q39 72 80 305l244 1378h127l-246 -1396q-32 -180 -56 -258t-65 -134q-121 -170 -358 -170zM139 0l258 1462h127l-239 -1353h710l-18 -109h-838z" />
    <glyph glyph-name="uni01C8" unicode="&#x1c8;" horiz-adv-x="1601" 
d="M1376 1018h123l-188 -1069q-37 -242 -136 -333t-319 -87l18 106q139 -8 213 65t99 241zM1419 1270l35 196h123l-35 -196h-123zM139 0l258 1462h127l-239 -1353h710l-18 -109h-838z" />
    <glyph glyph-name="uni01C9" unicode="&#x1c9;" horiz-adv-x="1101" 
d="M874 1018h123l-188 -1069q-37 -242 -136 -333t-319 -87l19 106q139 -8 213 65t98 241zM920 1270l34 196h121l-33 -196h-122zM266 215q0 -63 34 -87t124 -24h49l-18 -104h-56q-141 0 -199 40t-59 136q0 55 17 139l200 1147h123l-205 -1161q-10 -61 -10 -86z" />
    <glyph glyph-name="uni01CA" unicode="&#x1ca;" horiz-adv-x="2066" 
d="M1284 -496q-88 0 -182 27l59 102q63 -20 119 -20q190 0 279 166q39 72 81 305l242 1378h127l-246 -1396q-31 -176 -55 -255t-63 -137q-123 -170 -361 -170zM139 0l258 1462h121l563 -1243l219 1243h125l-258 -1462h-120l-564 1243l-219 -1243h-125z" />
    <glyph glyph-name="uni01CB" unicode="&#x1cb;" horiz-adv-x="2002" 
d="M1776 1018h122l-188 -1069q-37 -242 -136 -333t-319 -87l19 106q139 -8 213 65t98 241zM1821 1270l34 196h123l-34 -196h-123zM139 0l258 1462h121l563 -1243l219 1243h125l-258 -1462h-120l-564 1243l-219 -1243h-125z" />
    <glyph glyph-name="uni01CC" unicode="&#x1cc;" horiz-adv-x="1673" 
d="M1446 1018h123l-189 -1069q-37 -242 -136 -333t-318 -87l18 106q139 -8 213 65t98 241zM1491 1270l35 196h123l-35 -196h-123zM686 1036q152 0 234 -70t81 -204q0 -68 -20 -184l-100 -578h-123l100 575q16 88 16 142q0 211 -210 211q-144 0 -226 -95t-121 -319l-90 -514
h-123l181 1018h96l-12 -129q109 147 317 147z" />
    <glyph glyph-name="uni01CD" unicode="&#x1cd;" horiz-adv-x="1214" 
d="M799 1726l178 168h147l-297 -260h-73l-207 260h133zM907 442l-155 852l-459 -852h614zM922 334h-678l-178 -334h-144l795 1462h119l278 -1462h-133z" />
    <glyph glyph-name="uni01CE" unicode="&#x1ce;" horiz-adv-x="1067" 
d="M664 1294l176 168h147l-297 -260h-74l-206 260h133zM502 489q-182 -1 -252 -71t-70 -201q0 -75 53 -105t209 -30t226 76q35 39 57 147l33 184h-256zM590 934q-162 0 -279 -105l-73 66q141 141 362 141q156 0 240 -63t84 -185q0 -39 -19 -147l-112 -641h-101l-2 59
q-53 -45 -118 -61t-210 -16t-225 51t-80 166q0 184 92 285t343 102h282l14 88q12 66 13 94q0 166 -211 166z" />
    <glyph glyph-name="uni01CF" unicode="&#x1cf;" horiz-adv-x="581" 
d="M500 1726l178 168h147l-297 -260h-73l-207 260h133zM139 0l258 1462h127l-258 -1462h-127z" />
    <glyph glyph-name="uni01D0" unicode="&#x1d0;" horiz-adv-x="505" 
d="M387 1294l176 168h148l-297 -260h-74l-207 260h133zM102 0l181 1018h120l-178 -1018h-123z" />
    <glyph glyph-name="uni01D1" unicode="&#x1d1;" horiz-adv-x="1388" 
d="M903 1726l178 168h148l-299 -260h-72l-209 260h133zM1157 1071q0 143 -84 222t-235 79q-203 0 -322 -145q-51 -61 -78 -132t-49 -196l-59 -336q-18 -106 -19 -172q0 -143 84 -222t236 -79q203 0 321 143q90 111 127 330l60 336q18 100 18 172zM1286 1087q0 -78 -20 -192
l-66 -365q-26 -154 -66 -242t-114 -159q-150 -147 -380 -147t-344 107t-114 282q1 77 21 196l65 365q27 154 66 242t112 159q154 147 380 147t342 -102q118 -104 118 -291z" />
    <glyph glyph-name="uni01D2" unicode="&#x1d2;" horiz-adv-x="1138" 
d="M702 1294l177 168h147l-297 -260h-74l-206 260h133zM256 322q0 -236 250 -236q143 0 226 85t114 263l26 148q12 80 13 120q0 231 -248 232q-145 0 -228 -86t-116 -266l-25 -148q-12 -59 -12 -112zM639 1036q369 0 369 -315q0 -63 -17 -152l-26 -157q-39 -222 -151 -326
t-310 -104q-371 0 -371 319q0 70 14 148l29 157q39 222 152 326t311 104z" />
    <glyph glyph-name="uni01D3" unicode="&#x1d3;" horiz-adv-x="1417" 
d="M901 1726l178 168h148l-297 -260h-74l-207 260h133zM336 340q0 -80 53 -152q76 -96 254 -96q219 0 336 162q63 86 96 281l164 927h127l-168 -950q-26 -152 -56 -226t-91 -141q-154 -161 -406 -161t-358 127q-80 94 -80 227q0 78 24 219l160 905h127l-164 -927
q-18 -115 -18 -195z" />
    <glyph glyph-name="uni01D4" unicode="&#x1d4;" horiz-adv-x="1130" 
d="M700 1294l177 168h147l-297 -260h-74l-207 260h134zM281 303q0 -213 200 -213q139 0 217 95t117 319l90 514h123l-180 -1018h-90l8 133q-100 -152 -307 -151q-145 0 -226 71q-80 72 -79 201q0 78 22 203l98 561h123l-100 -567q-16 -92 -16 -148z" />
    <glyph glyph-name="Gcaron" unicode="&#x1e6;" horiz-adv-x="1359" 
d="M889 1726l178 168h147l-296 -260h-74l-207 260h133zM641 -18q-229 0 -342 100t-113 291q0 78 25 229l51 293q31 170 70 263t108 167q145 154 391 154q195 0 311 -83t115 -222q0 -25 -4 -46l-120 -10v23q0 105 -82 167t-220 62q-190 0 -293 -117t-151 -381l-51 -284
q-20 -117 -21 -197q0 -301 314 -301q365 0 438 416l27 141h-330l18 105h455l-43 -240q-26 -145 -62 -229t-108 -154q-154 -147 -383 -147z" />
    <glyph glyph-name="gcaron" unicode="&#x1e7;" horiz-adv-x="1155" 
d="M715 1294l176 168h147l-297 -260h-73l-207 260h133zM256 317q0 -231 233 -231q274 0 336 348l27 150q10 72 10 112q0 238 -239 238q-271 0 -330 -352l-27 -146q-10 -66 -10 -119zM463 -18q-332 0 -332 311q0 66 16 158l27 155q41 226 143 328t289 102q233 0 312 -157
l34 139h99l-183 -1030q-82 -465 -491 -465q-244 0 -332 143l102 60q72 -100 226 -100t248 88q93 89 122 259l27 146q-109 -137 -307 -137z" />
    <glyph glyph-name="uni01EA" unicode="&#x1ea;" horiz-adv-x="1388" 
d="M1157 1071q0 143 -84 222t-235 79q-203 0 -322 -145q-51 -61 -78 -132t-49 -196l-59 -336q-18 -106 -19 -172q0 -143 84 -222t236 -79q203 0 321 143q90 111 127 330l60 336q18 100 18 172zM584 -236q0 -66 94 -65q55 0 123 18l-2 -77q-76 -25 -146 -25q-186 0 -186 134
t170 233q-197 2 -299 73q-156 109 -156 316q0 78 21 196l65 365q27 154 66 242t112 159q154 147 380 147t342 -102q118 -104 118 -291q0 -77 -20 -192l-66 -365q-57 -426 -397 -528q-219 -117 -219 -238z" />
    <glyph glyph-name="uni01EB" unicode="&#x1eb;" horiz-adv-x="1138" 
d="M256 322q0 -236 250 -236q143 0 226 85t114 263l26 148q12 80 13 120q0 231 -248 232q-145 0 -228 -86t-116 -266l-25 -148q-12 -59 -12 -112zM459 -236q0 -66 94 -65q57 0 123 18l-2 -77q-76 -25 -146 -25q-186 0 -186 134t160 233q-369 2 -369 319q0 70 14 148l29 157
q39 222 152 326t311 104q369 0 369 -315q-1 -64 -17 -152l-26 -157q-57 -336 -303 -410q-203 -117 -203 -238z" />
    <glyph glyph-name="uni01F1" unicode="&#x1f1;" horiz-adv-x="2406" 
d="M1325 0l16 94l924 1260h-663l20 108h805l-17 -94l-923 -1259h733l-18 -109h-877zM1159 1065q0 145 -106 233q-76 57 -242 58h-307l-221 -1250h307q416 -10 493 461l58 330q18 100 18 168zM829 1462q215 0 322 -82q137 -109 137 -299q0 -68 -20 -190l-64 -356
q-39 -262 -191 -400q-153 -137 -405 -135h-471l258 1462h434z" />
    <glyph glyph-name="uni01F2" unicode="&#x1f2;" horiz-adv-x="2299" 
d="M1343 0l15 80l694 833h-506l19 105h659l-12 -80l-696 -834h581l-18 -104h-736zM1159 1065q0 145 -106 233q-76 57 -242 58h-307l-221 -1250h307q416 -10 493 461l58 330q18 100 18 168zM829 1462q215 0 322 -82q137 -109 137 -299q0 -68 -20 -190l-64 -356
q-39 -262 -191 -400q-153 -137 -405 -135h-471l258 1462h434z" />
    <glyph glyph-name="uni01F3" unicode="&#x1f3;" horiz-adv-x="2121" 
d="M1165 0l15 80l694 833h-506l18 105h660l-14 -80l-695 -834h582l-18 -104h-736zM258 315q0 -229 234 -229q274 0 335 348l27 150q10 61 10 114q0 236 -243 236q-133 0 -213 -86t-113 -266l-27 -146q-10 -57 -10 -121zM133 291q0 72 17 160l26 155q40 222 144 326t279 104
t257 -75q18 -16 51 -70l103 571h120l-256 -1462h-100l12 125l-10 -10q-63 -74 -132 -104t-173 -29q-338 0 -338 309z" />
    <glyph glyph-name="uni01F4" unicode="&#x1f4;" horiz-adv-x="1359" 
d="M793 1626l198 281h154l-258 -281h-94zM641 -18q-229 0 -342 100t-113 291q0 78 25 229l51 293q31 170 70 263t108 167q145 154 391 154q195 0 311 -83t115 -222q0 -25 -4 -46l-120 -10v23q0 105 -82 167t-220 62q-190 0 -293 -117t-151 -381l-51 -284q-20 -117 -21 -197
q0 -301 314 -301q365 0 438 416l27 141h-330l18 105h455l-43 -240q-26 -145 -62 -229t-108 -154q-154 -147 -383 -147z" />
    <glyph glyph-name="uni01F5" unicode="&#x1f5;" horiz-adv-x="1155" 
d="M612 1194l199 281h154l-258 -281h-95zM256 317q0 -231 233 -231q274 0 336 348l27 150q10 72 10 112q0 238 -239 238q-271 0 -330 -352l-27 -146q-10 -66 -10 -119zM463 -18q-332 0 -332 311q0 66 16 158l27 155q41 226 143 328t289 102q233 0 312 -157l34 139h99
l-183 -1030q-82 -465 -491 -465q-244 0 -332 143l102 60q72 -100 226 -100t248 88q93 89 122 259l27 146q-109 -137 -307 -137z" />
    <glyph glyph-name="Aringacute" unicode="&#x1fa;" horiz-adv-x="1214" 
d="M776 1831l154 233h153l-225 -233h-82zM812 1720q-54 0 -93 -45t-39 -116q0 -92 96 -93q61 0 101 45q39 45 38 117q0 92 -103 92zM907 442l-155 852l-459 -852h614zM586 1554q0 106 68 172t161 66q94 0 144 -44q51 -44 51 -121t-46 -139t-118 -83l268 -1405h-133l-59 334
h-678l-178 -334h-144l766 1409q-102 39 -102 145z" />
    <glyph glyph-name="aringacute" unicode="&#x1fb;" horiz-adv-x="1067" 
d="M674 1612l153 233h154l-225 -233h-82zM807 1368q0 92 -102 92q-53 0 -93 -45t-41 -115q0 -92 97 -92q61 0 100 45t39 115zM707 1532q194 0 194 -175q1 -87 -67 -154t-162 -67q-195 1 -195 179q0 89 68 153t162 64zM502 489q-182 -1 -252 -71t-70 -201q0 -75 53 -105
t209 -30t226 76q35 39 57 147l33 184h-256zM590 934q-162 0 -279 -105l-73 66q141 141 362 141q156 0 240 -63t84 -185q0 -39 -19 -147l-112 -641h-101l-2 59q-53 -45 -118 -61t-210 -16t-225 51t-80 166q0 184 92 285t343 102h282l14 88q12 66 13 94q0 166 -211 166z" />
    <glyph glyph-name="AEacute" unicode="&#x1fc;" horiz-adv-x="1937" 
d="M1450 1626l199 281h153l-258 -281h-94zM973 455l160 899h-21l-752 -899h613zM954 346h-678l-286 -346h-148l1223 1462h920l-19 -108h-709l-98 -559h604l-18 -109h-604l-103 -577h707l-19 -109h-833z" />
    <glyph glyph-name="aeacute" unicode="&#x1fd;" horiz-adv-x="1712" 
d="M891 1194l199 281h153l-258 -281h-94zM1241 938q-137 0 -225 -87t-117 -263h567q8 59 9 110q0 240 -234 240zM502 489q-182 -1 -252 -71t-70 -201q0 -75 53 -105t191 -30t209 58q72 58 96 196l29 153h-256zM598 1036q256 0 293 -186q63 98 146 142t206 44q170 0 259 -85
t89 -246q0 -109 -24 -213h-684l-11 -54q-8 -41 -8 -100q0 -254 269 -254q154 0 251 100l82 -67q-127 -135 -340 -135q-281 0 -340 213q-43 -92 -88 -129q-98 -84 -290 -84t-271 51q-80 51 -80 166q0 184 92 285t343 102h282l14 88q12 61 13 94q0 166 -211 166
q-162 -1 -279 -105l-73 66q141 141 360 141z" />
    <glyph glyph-name="Oslashacute" unicode="&#x1fe;" horiz-adv-x="1386" 
d="M805 1626l199 281h153l-258 -281h-94zM828 1372q-194 0 -312 -145q-51 -61 -79 -132t-50 -196l-59 -336q-31 -167 -11 -248l787 938q-82 119 -276 119zM637 90q360 0 440 473l60 336q18 99 18 155t-8 95l-787 -940q82 -119 277 -119zM1284 1099q0 -93 -20 -204l-66 -365
q-28 -154 -66 -242t-114 -159q-154 -147 -388 -147t-356 127l-120 -146l-78 64l141 168q-37 80 -37 165t21 207l65 365q27 154 66 243t114 158q150 147 386 147t356 -126l117 139l75 -66l-133 -159q37 -76 37 -169z" />
    <glyph glyph-name="oslashacute" unicode="&#x1ff;" horiz-adv-x="1138" 
d="M606 1194l199 281h153l-258 -281h-94zM630 934q-138 0 -221 -86t-116 -266l-25 -148q-12 -60 -12 -108t12 -95l563 631q-63 72 -201 72zM510 86q138 0 222 85q83 85 114 263l26 148q12 84 12 122t-12 82l-563 -630q63 -70 201 -70zM1008 740q0 -82 -17 -171l-26 -157
q-39 -222 -151 -326t-302 -104t-287 81l-84 -94l-61 54l94 104q-41 74 -41 158t14 164l29 157q39 222 151 326t303 104t285 -80l84 95l62 -54l-94 -104q41 -71 41 -153z" />
    <glyph glyph-name="uni0200" unicode="&#x200;" horiz-adv-x="1214" 
d="M735 1626h-90l-115 281h136zM985 1626h-90l-115 281h135zM907 442l-155 852l-459 -852h614zM922 334h-678l-178 -334h-144l795 1462h119l278 -1462h-133z" />
    <glyph glyph-name="uni0201" unicode="&#x201;" horiz-adv-x="1067" 
d="M600 1194h-90l-115 281h135zM850 1194h-90l-115 281h135zM502 489q-182 -1 -252 -71t-70 -201q0 -75 53 -105t209 -30t226 76q35 39 57 147l33 184h-256zM590 934q-162 0 -279 -105l-73 66q141 141 362 141q156 0 240 -63t84 -185q0 -39 -19 -147l-112 -641h-101l-2 59
q-53 -45 -118 -61t-210 -16t-225 51t-80 166q0 184 92 285t343 102h282l14 88q12 66 13 94q0 166 -211 166z" />
    <glyph glyph-name="uni0202" unicode="&#x202;" horiz-adv-x="1214" 
d="M983 1683q0 119 -149 119q-88 0 -132 -36t-69 -130h-90q27 147 92 206q66 58 203 59q238 0 237 -189q0 -27 -8 -76h-88q4 29 4 47zM907 442l-155 852l-459 -852h614zM922 334h-678l-178 -334h-144l795 1462h119l278 -1462h-133z" />
    <glyph glyph-name="uni0203" unicode="&#x203;" horiz-adv-x="1067" 
d="M842 1251q0 121 -150 121q-88 0 -131 -37t-69 -131h-91q27 146 93 206t202 60q238 0 238 -190q0 -29 -8 -76h-88q4 27 4 47zM502 489q-182 -1 -252 -71t-70 -201q0 -75 53 -105t209 -30t226 76q35 39 57 147l33 184h-256zM590 934q-162 0 -279 -105l-73 66
q141 141 362 141q156 0 240 -63t84 -185q0 -39 -19 -147l-112 -641h-101l-2 59q-53 -45 -118 -61t-210 -16t-225 51t-80 166q0 184 92 285t343 102h282l14 88q12 66 13 94q0 166 -211 166z" />
    <glyph glyph-name="uni0204" unicode="&#x204;" horiz-adv-x="1183" 
d="M786 1626h-90l-114 281h135zM1036 1626h-90l-115 281h136zM139 0l258 1462h834l-19 -108h-708l-98 -559h604l-19 -109h-604l-102 -577h706l-18 -109h-834z" />
    <glyph glyph-name="uni0205" unicode="&#x205;" horiz-adv-x="1107" 
d="M631 1194h-90l-115 281h135zM881 1194h-90l-115 281h135zM870 698q0 240 -233 240q-137 0 -225 -88t-117 -262h567q8 49 8 110zM260 340q0 -256 268 -256q154 0 252 100l80 -67q-121 -135 -338 -135q-385 0 -385 337q0 66 17 160l16 94q41 238 153 351t310 112
q354 0 354 -331q0 -109 -24 -213h-684l-11 -54q-8 -41 -8 -98z" />
    <glyph glyph-name="uni0206" unicode="&#x206;" horiz-adv-x="1183" 
d="M1028 1683q0 119 -149 119q-88 0 -131 -36t-70 -130h-90q27 147 92 206q66 58 203 59q238 0 237 -189q0 -27 -8 -76h-88q4 29 4 47zM139 0l258 1462h834l-19 -108h-708l-98 -559h604l-19 -109h-604l-102 -577h706l-18 -109h-834z" />
    <glyph glyph-name="uni0207" unicode="&#x207;" horiz-adv-x="1107" 
d="M862 1251q0 121 -149 121q-88 0 -131 -37t-70 -131h-90q27 147 92 207q66 59 203 59q238 0 237 -190q0 -29 -8 -76h-88q4 27 4 47zM870 698q0 240 -233 240q-137 0 -225 -88t-117 -262h567q8 49 8 110zM260 340q0 -256 268 -256q154 0 252 100l80 -67
q-121 -135 -338 -135q-385 0 -385 337q0 66 17 160l16 94q41 238 153 351t310 112q354 0 354 -331q0 -109 -24 -213h-684l-11 -54q-8 -41 -8 -98z" />
    <glyph glyph-name="uni0208" unicode="&#x208;" horiz-adv-x="581" 
d="M420 1626h-90l-115 281h135zM670 1626h-90l-115 281h135zM139 0l258 1462h127l-258 -1462h-127z" />
    <glyph glyph-name="uni0209" unicode="&#x209;" horiz-adv-x="505" 
d="M305 1194h-90l-115 281h136zM555 1194h-90l-115 281h135zM102 0l179 1018h122l-178 -1018h-123z" />
    <glyph glyph-name="uni020A" unicode="&#x20a;" horiz-adv-x="581" 
d="M668 1683q0 119 -150 119q-88 0 -131 -36t-70 -130h-90q27 147 92 206q66 58 203 59q238 0 238 -189q0 -27 -8 -76h-88q4 29 4 47zM139 0l258 1462h127l-258 -1462h-127z" />
    <glyph glyph-name="uni020B" unicode="&#x20b;" horiz-adv-x="505" 
d="M553 1251q0 121 -150 121q-88 0 -131 -37t-69 -131h-90q27 147 92 207q66 59 203 59q238 0 237 -190q0 -29 -8 -76h-88q4 27 4 47zM102 0l181 1018h120l-178 -1018h-123z" />
    <glyph glyph-name="uni020C" unicode="&#x20c;" horiz-adv-x="1388" 
d="M823 1626h-90l-115 281h136zM1073 1626h-90l-115 281h136zM1157 1071q0 143 -84 222t-235 79q-203 0 -322 -145q-51 -61 -78 -132t-49 -196l-59 -336q-18 -106 -19 -172q0 -143 84 -222t236 -79q203 0 321 143q90 111 127 330l60 336q18 100 18 172zM1286 1087
q0 -78 -20 -192l-66 -365q-26 -154 -66 -242t-114 -159q-150 -147 -380 -147t-344 107t-114 282q1 77 21 196l65 365q27 154 66 242t112 159q154 147 380 147t342 -102q118 -104 118 -291z" />
    <glyph glyph-name="uni020D" unicode="&#x20d;" horiz-adv-x="1138" 
d="M623 1194h-91l-114 281h135zM872 1194h-90l-114 281h135zM256 322q0 -236 250 -236q143 0 226 85t114 263l26 148q12 80 13 120q0 231 -248 232q-145 0 -228 -86t-116 -266l-25 -148q-12 -59 -12 -112zM639 1036q369 0 369 -315q0 -63 -17 -152l-26 -157
q-39 -222 -151 -326t-310 -104q-371 0 -371 319q0 70 14 148l29 157q39 222 152 326t311 104z" />
    <glyph glyph-name="uni020E" unicode="&#x20e;" horiz-adv-x="1388" 
d="M1071 1683q0 119 -149 119q-88 0 -131 -36t-70 -130h-90q27 147 92 206q66 58 203 59q238 0 237 -189q0 -27 -8 -76h-88q4 29 4 47zM1157 1071q0 143 -84 222t-235 79q-203 0 -322 -145q-51 -61 -78 -132t-49 -196l-59 -336q-18 -106 -19 -172q0 -143 84 -222t236 -79
q203 0 321 143q90 111 127 330l60 336q18 100 18 172zM1286 1087q0 -78 -20 -192l-66 -365q-26 -154 -66 -242t-114 -159q-150 -147 -380 -147t-344 107t-114 282q1 77 21 196l65 365q27 154 66 242t112 159q154 147 380 147t342 -102q118 -104 118 -291z" />
    <glyph glyph-name="uni020F" unicode="&#x20f;" horiz-adv-x="1138" 
d="M870 1251q0 121 -149 121q-88 0 -131 -37t-70 -131h-90q27 147 92 207q66 59 203 59q238 0 238 -190q-1 -29 -9 -76h-88q4 27 4 47zM256 322q0 -236 250 -236q143 0 226 85t114 263l26 148q12 80 13 120q0 231 -248 232q-145 0 -228 -86t-116 -266l-25 -148
q-12 -59 -12 -112zM639 1036q369 0 369 -315q0 -63 -17 -152l-26 -157q-39 -222 -151 -326t-310 -104q-371 0 -371 319q0 70 14 148l29 157q39 222 152 326t311 104z" />
    <glyph glyph-name="uni0210" unicode="&#x210;" horiz-adv-x="1325" 
d="M735 1626h-90l-115 281h136zM985 1626h-90l-115 281h135zM772 756q178 0 271 106t94 271q0 223 -283 223h-348l-107 -600h373zM866 1462q402 0 402 -315q0 -205 -110 -340t-284 -145l207 -662h-141l-192 651h-365l-115 -651h-127l258 1462h467z" />
    <glyph glyph-name="uni0211" unicode="&#x211;" horiz-adv-x="753" 
d="M477 1194h-90l-115 281h136zM727 1194h-90l-115 281h135zM627 928q-125 0 -198 -102t-114 -326l-88 -500h-123l181 1018h98l-12 -133q104 152 278 151q98 0 185 -47l-70 -106q-68 45 -137 45z" />
    <glyph glyph-name="uni0212" unicode="&#x212;" horiz-adv-x="1325" 
d="M991 1683q0 119 -149 119q-88 0 -131 -36t-70 -130h-90q27 147 92 206q66 58 203 59q238 0 237 -189q0 -27 -8 -76h-88q4 29 4 47zM772 756q178 0 271 106t94 271q0 223 -283 223h-348l-107 -600h373zM866 1462q402 0 402 -315q0 -205 -110 -340t-284 -145l207 -662h-141
l-192 651h-365l-115 -651h-127l258 1462h467z" />
    <glyph glyph-name="uni0213" unicode="&#x213;" horiz-adv-x="753" 
d="M737 1251q0 121 -149 121q-88 0 -131 -37t-70 -131h-90q27 147 92 207q66 59 203 59q238 0 237 -190q0 -29 -8 -76h-88q4 27 4 47zM627 928q-125 0 -198 -102t-114 -326l-88 -500h-123l181 1018h98l-12 -133q104 152 278 151q98 0 185 -47l-70 -106q-68 45 -137 45z" />
    <glyph glyph-name="uni0214" unicode="&#x214;" horiz-adv-x="1417" 
d="M838 1626h-90l-115 281h135zM1087 1626h-90l-114 281h135zM336 340q0 -80 53 -152q76 -96 254 -96q219 0 336 162q63 86 96 281l164 927h127l-168 -950q-26 -152 -56 -226t-91 -141q-154 -161 -406 -161t-358 127q-80 94 -80 227q0 78 24 219l160 905h127l-164 -927
q-18 -115 -18 -195z" />
    <glyph glyph-name="uni0215" unicode="&#x215;" horiz-adv-x="1130" 
d="M618 1194h-90l-114 281h135zM868 1194h-90l-114 281h135zM281 303q0 -213 200 -213q139 0 217 95t117 319l90 514h123l-180 -1018h-90l8 133q-100 -152 -307 -151q-145 0 -226 71q-80 72 -79 201q0 78 22 203l98 561h123l-100 -567q-16 -92 -16 -148z" />
    <glyph glyph-name="uni0216" unicode="&#x216;" horiz-adv-x="1417" 
d="M1085 1683q0 119 -149 119q-88 0 -131 -36t-70 -130h-90q27 147 92 206q66 58 203 59q238 0 238 -189q-1 -27 -9 -76h-88q4 29 4 47zM336 340q0 -80 53 -152q76 -96 254 -96q219 0 336 162q63 86 96 281l164 927h127l-168 -950q-26 -152 -56 -226t-91 -141
q-154 -161 -406 -161t-358 127q-80 94 -80 227q0 78 24 219l160 905h127l-164 -927q-18 -115 -18 -195z" />
    <glyph glyph-name="uni0217" unicode="&#x217;" horiz-adv-x="1130" 
d="M866 1251q0 121 -149 121q-88 0 -131 -37t-70 -131h-90q27 147 92 207q66 59 203 59q238 0 237 -190q0 -29 -8 -76h-88q4 27 4 47zM281 303q0 -213 200 -213q139 0 217 95t117 319l90 514h123l-180 -1018h-90l8 133q-100 -152 -307 -151q-145 0 -226 71q-80 72 -79 201
q0 78 22 203l98 561h123l-100 -567q-16 -92 -16 -148z" />
    <glyph glyph-name="Scommaaccent" unicode="&#x218;" horiz-adv-x="1189" 
d="M270 -440l162 293h129l-203 -293h-88zM524 92q238 0 344 135q72 93 72 201t-68 160q-40 33 -72 45t-205 57t-259 127t-86 213q0 174 112 303q129 145 375 146q150 0 256 -44t150 -122l-111 -66q-72 123 -286 123t-306 -131q-63 -89 -63 -189q-1 -100 69 -156t222 -96
t204 -62q197 -82 197 -276q0 -195 -119 -321q-147 -156 -428 -155q-221 0 -354 82q-74 42 -111 118l113 66q74 -158 354 -158z" />
    <glyph glyph-name="scommaaccent" unicode="&#x219;" horiz-adv-x="954" 
d="M174 -440l162 293h129l-203 -293h-88zM383 84q147 0 227 60t80 169q0 76 -49 105q-49 28 -201 52t-215 77q-64 53 -63 162q0 143 93 235t263 92q254 0 352 -147l-100 -58q-84 102 -246 103q-108 0 -174 -58t-66 -142t45 -112q45 -30 199 -54t220 -76t65 -170
q0 -166 -110 -253t-320 -87q-291 0 -385 141l98 63q90 -102 287 -102z" />
    <glyph glyph-name="uni021A" unicode="&#x21a;" horiz-adv-x="1134" 
d="M233 -440l162 293h129l-202 -293h-89zM418 0l239 1354h-432l19 108h987l-19 -108h-428l-239 -1354h-127z" />
    <glyph glyph-name="uni021B" unicode="&#x21b;" horiz-adv-x="673" 
d="M51 -440l162 293h129l-203 -293h-88zM305 203q0 -49 32 -74t114 -25h38l-18 -104h-29q-143 0 -202 40q-60 40 -60 118t15 157l106 600h-127l19 103h126l66 338h117l-62 -338h201l-18 -103h-199l-111 -620q-8 -43 -8 -92z" />
    <glyph glyph-name="uni0226" unicode="&#x226;" horiz-adv-x="1214" 
d="M745 1645l35 194h121l-35 -194h-121zM907 442l-155 852l-459 -852h614zM922 334h-678l-178 -334h-144l795 1462h119l278 -1462h-133z" />
    <glyph glyph-name="uni0227" unicode="&#x227;" horiz-adv-x="1067" 
d="M602 1212l35 195h121l-35 -195h-121zM502 489q-182 -1 -252 -71t-70 -201q0 -75 53 -105t209 -30t226 76q35 39 57 147l33 184h-256zM590 934q-162 0 -279 -105l-73 66q141 141 362 141q156 0 240 -63t84 -185q0 -39 -19 -147l-112 -641h-101l-2 59q-53 -45 -118 -61
t-210 -16t-225 51t-80 166q0 184 92 285t343 102h282l14 88q12 66 13 94q0 166 -211 166z" />
    <glyph glyph-name="uni0237" unicode="&#x237;" horiz-adv-x="518" 
d="M291 1018h123l-189 -1069q-35 -242 -134 -333t-320 -87l18 106q139 -8 213 65t98 241z" />
    <glyph glyph-name="afii57929" unicode="&#x2bc;" horiz-adv-x="356" 
d="M160 993l159 469h134l-193 -469h-100z" />
    <glyph glyph-name="uni02C0" unicode="&#x2c0;" horiz-adv-x="1024" 
d="M780 1827q0 43 -61 43q-39 0 -94 -25l-13 76q70 27 129 27q147 0 148 -119q0 -55 -74 -129q-31 -33 -39 -47t-14 -51h-96q8 51 18 71t53 72t43 82z" />
    <glyph glyph-name="circumflex" unicode="&#x2c6;" horiz-adv-x="1024" 
d="M672 1372l-178 -168h-148l299 258h72l207 -258h-133z" />
    <glyph glyph-name="caron" unicode="&#x2c7;" horiz-adv-x="1024" 
d="M645 1294l176 168h148l-297 -260h-74l-207 260h133z" />
    <glyph glyph-name="uni02C9" unicode="&#x2c9;" horiz-adv-x="1024" 
d="M406 1282l16 90h487l-16 -90h-487z" />
    <glyph glyph-name="breve" unicode="&#x2d8;" horiz-adv-x="1024" 
d="M502 1405q0 -119 149 -119q88 0 131 36t70 130h90q-27 -147 -92 -206q-66 -58 -203 -58q-238 0 -237 188q0 27 8 76h88q-4 -27 -4 -47z" />
    <glyph glyph-name="dotaccent" unicode="&#x2d9;" horiz-adv-x="1024" 
d="M575 1212l35 195h121l-35 -195h-121z" />
    <glyph glyph-name="ring" unicode="&#x2da;" horiz-adv-x="1024" 
d="M782 1409q0 92 -102 92q-53 0 -93 -45t-40 -115q0 -92 96 -92q61 0 100 45t39 115zM682 1573q94 0 144 -44t50 -131t-67 -154q-68 -66 -162 -66t-144 45t-50 133t67 152q68 65 162 65z" />
    <glyph glyph-name="ogonek" unicode="&#x2db;" horiz-adv-x="1024" 
d="M499 -301q54 0 119 18l-2 -77q-74 -25 -145 -25q-186 0 -186 133q-1 162 237 252h125q-243 -116 -245 -221q0 -49 21 -65q22 -16 76 -15z" />
    <glyph glyph-name="tilde" unicode="&#x2dc;" horiz-adv-x="1024" 
d="M543 1438q71 0 137 -66t102 -66t60 26q25 26 53 89h84q-45 -119 -89 -163t-117 -44t-137 66t-106 66q-61 0 -112 -115h-84q47 115 93 161t116 46z" />
    <glyph glyph-name="hungarumlaut" unicode="&#x2dd;" horiz-adv-x="1024" 
d="M702 1194l168 281h136l-213 -281h-91zM453 1194l168 281h135l-213 -281h-90z" />
    <glyph glyph-name="uni0309" unicode="&#x309;" horiz-adv-x="1024" 
d="M645 1446q-39 0 -96 -23l-12 74q70 27 129 27q147 0 147 -117q0 -57 -74 -131q-31 -33 -39 -47t-14 -51h-96q10 48 19 70t52 74t44 81q0 43 -60 43z" />
    <glyph glyph-name="uni0312" unicode="&#x312;" horiz-adv-x="1024" 
d="M506 1194l258 281h94l-199 -281h-153z" />
    <glyph glyph-name="uni0313" unicode="&#x313;" horiz-adv-x="122" 
d="M82 1040l125 433h127l-166 -433h-86z" />
    <glyph glyph-name="uni031B" unicode="&#x31b;" horiz-adv-x="122" 
d="M82 1040l125 433h127l-166 -433h-86z" />
    <glyph glyph-name="uni0323" unicode="&#x323;" horiz-adv-x="1024" 
d="M293 -385l35 195h121l-35 -195h-121z" />
    <glyph glyph-name="uni037E" unicode="&#x37e;" horiz-adv-x="569" 
d="M289 840l33 178h127l-33 -178h-127zM-27 -385l197 563h139l-231 -563h-105z" />
    <glyph glyph-name="uni0387" unicode="&#x387;" horiz-adv-x="565" 
d="M248 662l31 178h127l-31 -178h-127z" />
    <glyph glyph-name="uni04D4" unicode="&#x4d4;" horiz-adv-x="1937" 
d="M973 455l160 899h-21l-752 -899h613zM954 346h-678l-286 -346h-148l1223 1462h920l-19 -108h-709l-98 -559h604l-18 -109h-604l-103 -577h707l-19 -109h-833z" />
    <glyph glyph-name="uni04D5" unicode="&#x4d5;" horiz-adv-x="1712" 
d="M1241 938q-137 0 -225 -87t-117 -263h567q8 59 9 110q0 240 -234 240zM502 489q-182 -1 -252 -71t-70 -201q0 -75 53 -105t191 -30t209 58q72 58 96 196l29 153h-256zM598 1036q256 0 293 -186q63 98 146 142t206 44q170 0 259 -85t89 -246q0 -109 -24 -213h-684l-11 -54
q-8 -41 -8 -100q0 -254 269 -254q154 0 251 100l82 -67q-127 -135 -340 -135q-281 0 -340 213q-43 -92 -88 -129q-98 -84 -290 -84t-271 51q-80 51 -80 166q0 184 92 285t343 102h282l14 88q12 61 13 94q0 166 -211 166q-162 -1 -279 -105l-73 66q141 141 360 141z" />
    <glyph glyph-name="uni1E02" unicode="&#x1e02;" horiz-adv-x="1312" 
d="M772 1645l35 194h121l-35 -194h-121zM705 106q156 0 239 91q102 109 103 274q1 119 -57 174t-181 55h-422l-104 -594h422zM799 807q154 0 237 84q98 102 99 252q-1 109 -59 161t-181 52h-393l-96 -549h393zM903 1462q190 0 277 -80q84 -84 84 -223t-65 -241t-185 -158
q2 0 34 -20q126 -79 126 -283q0 -203 -134 -340q-115 -117 -327 -117h-576l258 1462h508z" />
    <glyph glyph-name="uni1E03" unicode="&#x1e03;" horiz-adv-x="1155" 
d="M729 1212l35 195h121l-35 -195h-121zM899 696q0 238 -233 238q-274 0 -336 -350l-27 -150q-10 -68 -10 -112q0 -236 242 -236q268 0 327 350l27 146q10 68 10 114zM690 1036q334 0 334 -313q0 -72 -16 -154l-27 -155q-41 -224 -144 -328t-285 -104t-265 92q-14 14 -47 73
l-37 -147h-99l258 1462h123l-100 -563q111 137 305 137z" />
    <glyph glyph-name="uni1E0C" unicode="&#x1e0c;" horiz-adv-x="1392" 
d="M426 -385l35 195h121l-35 -195h-121zM1159 1065q0 145 -106 233q-76 57 -242 58h-307l-221 -1250h307q416 -10 493 461l58 330q18 100 18 168zM829 1462q215 0 322 -82q137 -109 137 -299q0 -68 -20 -190l-64 -356q-39 -262 -191 -400q-153 -137 -405 -135h-471l258 1462
h434z" />
    <glyph glyph-name="uni1E0D" unicode="&#x1e0d;" horiz-adv-x="1155" 
d="M385 -385l35 195h121l-35 -195h-121zM258 315q0 -229 234 -229q274 0 335 348l27 150q10 61 10 114q0 236 -243 236q-133 0 -213 -86t-113 -266l-27 -146q-10 -57 -10 -121zM133 291q0 72 17 160l26 155q40 222 144 326t279 104t257 -75q18 -16 51 -70l103 571h120
l-256 -1462h-100l12 125l-10 -10q-63 -74 -132 -104t-173 -29q-338 0 -338 309z" />
    <glyph glyph-name="uni1E1E" unicode="&#x1e1e;" horiz-adv-x="1116" 
d="M782 1645l35 194h121l-35 -194h-121zM139 0l258 1462h828l-19 -108h-700l-103 -572h601l-19 -108h-600l-119 -674h-127z" />
    <glyph glyph-name="uni1E1F" unicode="&#x1e1f;" horiz-adv-x="667" 
d="M543 1645l35 194h120l-34 -194h-121zM313 915h-131l19 103h131l35 205q25 139 88 190t211 49h90l-17 -96h-55q-100 2 -140 -32t-59 -136l-32 -180h237l-18 -103h-236l-162 -915h-122z" />
    <glyph glyph-name="uni1E24" unicode="&#x1e24;" horiz-adv-x="1394" 
d="M479 -385l35 195h121l-35 -195h-121zM139 0l258 1462h127l-118 -667h686l118 667h127l-258 -1462h-127l121 686h-686l-121 -686h-127z" />
    <glyph glyph-name="uni1E25" unicode="&#x1e25;" horiz-adv-x="1153" 
d="M358 -385l35 195h121l-35 -195h-121zM874 713q0 215 -210 215q-144 0 -226 -95t-119 -311l-92 -522h-123l258 1462h123l-98 -557q74 76 137 104t166 27q145 0 229 -72q83 -73 82 -200q0 -86 -20 -186l-100 -578h-123l102 582q14 80 14 131z" />
    <glyph glyph-name="uni1E44" unicode="&#x1e44;" horiz-adv-x="1482" 
d="M922 1645l34 194h121l-35 -194h-120zM139 0l258 1462h121l563 -1243l219 1243h125l-258 -1462h-120l-564 1243l-219 -1243h-125z" />
    <glyph glyph-name="uni1E45" unicode="&#x1e45;" horiz-adv-x="1153" 
d="M641 1212l35 195h121l-35 -195h-121zM686 1036q152 0 234 -70t81 -204q0 -68 -20 -184l-100 -578h-123l100 575q16 88 16 142q0 211 -210 211q-144 0 -226 -95t-121 -319l-90 -514h-123l181 1018h96l-12 -129q109 147 317 147z" />
    <glyph glyph-name="uni1E5A" unicode="&#x1e5a;" horiz-adv-x="1325" 
d="M461 -385l35 195h120l-34 -195h-121zM772 756q178 0 271 106t94 271q0 223 -283 223h-348l-107 -600h373zM866 1462q402 0 402 -315q0 -205 -110 -340t-284 -145l207 -662h-141l-192 651h-365l-115 -651h-127l258 1462h467z" />
    <glyph glyph-name="uni1E5B" unicode="&#x1e5b;" horiz-adv-x="753" 
d="M37 -385l35 195h121l-35 -195h-121zM627 928q-125 0 -200 -102t-114 -326l-88 -500h-121l179 1018h98l-10 -133q102 152 278 151q100 0 182 -47l-69 -106q-66 45 -135 45z" />
    <glyph glyph-name="uni1E62" unicode="&#x1e62;" horiz-adv-x="1189" 
d="M367 -385l34 195h121l-35 -195h-120zM524 92q238 0 344 135q72 93 72 201t-68 160q-40 33 -72 45t-205 57t-259 127t-86 213q0 174 112 303q129 145 375 146q150 0 256 -44t150 -122l-111 -66q-72 123 -286 123t-306 -131q-63 -89 -63 -189q-1 -100 69 -156t222 -96
t204 -62q197 -82 197 -276q0 -195 -119 -321q-147 -156 -428 -155q-221 0 -354 82q-74 42 -111 118l113 66q74 -158 354 -158z" />
    <glyph glyph-name="uni1E63" unicode="&#x1e63;" horiz-adv-x="954" 
d="M246 -385l35 195h120l-34 -195h-121zM383 84q147 0 227 60t80 169q0 76 -49 105q-49 28 -201 52t-215 77q-64 53 -63 162q0 143 93 235t263 92q254 0 352 -147l-100 -58q-84 102 -246 103q-108 0 -174 -58t-66 -142t45 -112q45 -30 199 -54t220 -76t65 -170
q0 -166 -110 -253t-320 -87q-291 0 -385 141l98 63q90 -102 287 -102z" />
    <glyph glyph-name="uni1E6C" unicode="&#x1e6c;" horiz-adv-x="1134" 
d="M348 -385l35 195h121l-35 -195h-121zM418 0l239 1354h-432l19 108h987l-19 -108h-428l-239 -1354h-127z" />
    <glyph glyph-name="uni1E6D" unicode="&#x1e6d;" horiz-adv-x="673" 
d="M119 -385l35 195h120l-34 -195h-121zM305 201q0 -97 146 -97h38l-18 -104h-29q-143 0 -202 40t-60 136q0 59 15 139l106 600h-127l19 103h129l63 338h117l-60 -338h199l-18 -103h-199l-111 -620q-8 -47 -8 -94z" />
    <glyph glyph-name="Wgrave" unicode="&#x1e80;" horiz-adv-x="1759" 
d="M1169 1626h-90l-164 281h146zM342 0l-109 1462h125l76 -1249l570 1249h83l127 -1249l521 1249h129l-625 -1462h-104l-127 1227l-562 -1227h-104z" />
    <glyph glyph-name="wgrave" unicode="&#x1e81;" horiz-adv-x="1572" 
d="M997 1194h-90l-164 281h146zM315 0l-139 1018h121l98 -848l434 848h84l136 -848l397 848h129l-498 -1018h-96l-139 823l-432 -823h-95z" />
    <glyph glyph-name="Wacute" unicode="&#x1e82;" horiz-adv-x="1759" 
d="M991 1626l199 281h153l-258 -281h-94zM342 0l-109 1462h125l76 -1249l570 1249h83l127 -1249l521 1249h129l-625 -1462h-104l-127 1227l-562 -1227h-104z" />
    <glyph glyph-name="wacute" unicode="&#x1e83;" horiz-adv-x="1572" 
d="M821 1194l199 281h154l-259 -281h-94zM315 0l-139 1018h121l98 -848l434 848h84l136 -848l397 848h129l-498 -1018h-96l-139 823l-432 -823h-95z" />
    <glyph glyph-name="Wdieresis" unicode="&#x1e84;" horiz-adv-x="1759" 
d="M1200 1645l33 194h115l-35 -194h-113zM805 1645l35 194h112l-32 -194h-115zM342 0l-109 1462h125l76 -1249l570 1249h83l127 -1249l521 1249h129l-625 -1462h-104l-127 1227l-562 -1227h-104z" />
    <glyph glyph-name="wdieresis" unicode="&#x1e85;" horiz-adv-x="1572" 
d="M1026 1212l35 195h115l-35 -195h-115zM635 1212l35 195h112l-32 -195h-115zM315 0l-139 1018h121l98 -848l434 848h84l136 -848l397 848h129l-498 -1018h-96l-139 823l-432 -823h-95z" />
    <glyph glyph-name="uni1E92" unicode="&#x1e92;" horiz-adv-x="1095" 
d="M346 -385l35 195h121l-35 -195h-121zM14 0l17 94l925 1260h-663l18 108h807l-16 -94l-926 -1259h735l-18 -109h-879z" />
    <glyph glyph-name="uni1E93" unicode="&#x1e93;" horiz-adv-x="966" 
d="M279 -385l34 195h121l-35 -195h-120zM10 0l15 80l696 833h-508l18 105h662l-14 -80l-697 -834h582l-19 -104h-735z" />
    <glyph glyph-name="uni1EA0" unicode="&#x1ea0;" horiz-adv-x="1214" 
d="M399 -385l35 195h121l-35 -195h-121zM907 442l-155 852l-459 -852h614zM922 334h-678l-178 -334h-144l795 1462h119l278 -1462h-133z" />
    <glyph glyph-name="uni1EA1" unicode="&#x1ea1;" horiz-adv-x="1067" 
d="M315 -385l35 195h119l-33 -195h-121zM502 489q-182 -1 -252 -71t-70 -201q0 -75 53 -105t209 -30t226 76q35 39 57 147l33 184h-256zM590 934q-162 0 -279 -105l-73 66q141 141 362 141q156 0 240 -63t84 -185q0 -39 -19 -147l-112 -641h-101l-2 59q-53 -45 -118 -61
t-210 -16t-225 51t-80 166q0 184 92 285t343 102h282l14 88q12 66 13 94q0 166 -211 166z" />
    <glyph glyph-name="uni1EA2" unicode="&#x1ea2;" horiz-adv-x="1214" 
d="M862 1827q0 43 -49 43t-106 -25l-13 76q72 27 129 27q147 0 148 -119q0 -55 -74 -129q-29 -31 -37 -46t-16 -52h-94q8 51 17 70t52 72t43 83zM907 442l-155 852l-459 -852h614zM922 334h-678l-178 -334h-144l795 1462h119l278 -1462h-133z" />
    <glyph glyph-name="uni1EA3" unicode="&#x1ea3;" horiz-adv-x="1067" 
d="M733 1403q0 43 -61 43q-37 0 -97 -23l-10 74q70 27 127 27q150 0 150 -117q0 -57 -74 -131q-31 -31 -39 -46t-16 -52h-95q10 48 20 70t52 74q43 52 43 81zM502 489q-182 -1 -252 -71t-70 -201q0 -75 53 -105t209 -30t226 76q35 39 57 147l33 184h-256zM590 934
q-162 0 -279 -105l-73 66q141 141 362 141q156 0 240 -63t84 -185q0 -39 -19 -147l-112 -641h-101l-2 59q-53 -45 -118 -61t-210 -16t-225 51t-80 166q0 184 92 285t343 102h282l14 88q12 66 13 94q0 166 -211 166z" />
    <glyph glyph-name="uni1EA4" unicode="&#x1ea4;" horiz-adv-x="1214" 
d="M819 1679l-168 -118h-141l285 206h69l213 -206h-131zM770 1823l154 229h133l-209 -229h-78zM907 442l-155 852l-459 -852h614zM922 334h-678l-178 -334h-144l795 1462h119l278 -1462h-133z" />
    <glyph glyph-name="uni1EA5" unicode="&#x1ea5;" horiz-adv-x="1067" 
d="M676 1249l-168 -119h-143l286 205h70l213 -205h-131zM625 1391l155 231h131l-206 -231h-80zM502 489q-182 -1 -252 -71t-70 -201q0 -75 53 -105t209 -30t226 76q35 39 57 147l33 184h-256zM590 934q-162 0 -279 -105l-73 66q141 141 362 141q156 0 240 -63t84 -185
q0 -39 -19 -147l-112 -641h-101l-2 59q-53 -45 -118 -61t-210 -16t-225 51t-80 166q0 184 92 285t343 102h282l14 88q12 66 13 94q0 166 -211 166z" />
    <glyph glyph-name="uni1EA6" unicode="&#x1ea6;" horiz-adv-x="1214" 
d="M819 1679l-168 -118h-141l285 206h69l213 -206h-131zM903 1823h-74l-131 229h119zM907 442l-155 852l-459 -852h614zM922 334h-678l-178 -334h-144l795 1462h119l278 -1462h-133z" />
    <glyph glyph-name="uni1EA7" unicode="&#x1ea7;" horiz-adv-x="1067" 
d="M676 1249l-168 -119h-143l286 205h70l211 -205h-131zM760 1391h-76l-131 231h121zM502 489q-182 -1 -252 -71t-70 -201q0 -75 53 -105t209 -30t226 76q35 39 57 147l33 184h-256zM590 934q-162 0 -279 -105l-73 66q141 141 362 141q156 0 240 -63t84 -185q0 -39 -19 -147
l-112 -641h-101l-2 59q-53 -45 -118 -61t-210 -16t-225 51t-80 166q0 184 92 285t343 102h282l14 88q12 66 13 94q0 166 -211 166z" />
    <glyph glyph-name="uni1EA8" unicode="&#x1ea8;" horiz-adv-x="1214" 
d="M813 1677l-168 -116h-143l284 200h70l213 -200h-131zM885 1956q0 37 -58 37q-33 0 -86 -19l-12 64q61 23 121 22q133 0 133 -94q0 -41 -55 -94q-47 -39 -51 -78h-89q6 37 18 55q11 19 45 53t34 54zM907 442l-155 852l-459 -852h614zM922 334h-678l-178 -334h-144
l795 1462h119l278 -1462h-133z" />
    <glyph glyph-name="uni1EA9" unicode="&#x1ea9;" horiz-adv-x="1067" 
d="M668 1247l-166 -117h-144l285 199h70l213 -199h-131zM684 1561q-33 0 -88 -19l-10 64q66 23 121 22q133 0 133 -94q0 -45 -52 -89t-55 -83h-88q6 37 19 56q12 18 45 52t32 54q0 37 -57 37zM502 489q-182 -1 -252 -71t-70 -201q0 -75 53 -105t209 -30t226 76q35 39 57 147
l33 184h-256zM590 934q-162 0 -279 -105l-73 66q141 141 362 141q156 0 240 -63t84 -185q0 -39 -19 -147l-112 -641h-101l-2 59q-53 -45 -118 -61t-210 -16t-225 51t-80 166q0 184 92 285t343 102h282l14 88q12 66 13 94q0 166 -211 166z" />
    <glyph glyph-name="uni1EAA" unicode="&#x1eaa;" horiz-adv-x="1214" 
d="M829 1679l-167 -118h-142l285 206h69l213 -206h-131zM778 2044q64 0 113 -60t72 -61q47 0 90 107h77q-39 -104 -76 -147q-38 -42 -100 -42q-62 1 -110 61t-76 60q-55 -1 -104 -107h-80q43 101 86 145q44 44 108 44zM907 442l-155 852l-459 -852h614zM922 334h-678
l-178 -334h-144l795 1462h119l278 -1462h-133z" />
    <glyph glyph-name="uni1EAB" unicode="&#x1eab;" horiz-adv-x="1067" 
d="M686 1249l-168 -119h-141l285 205h69l213 -205h-131zM634 1614q65 0 111 -62q49 -61 74 -61q47 0 90 108h78q-41 -106 -78 -148t-99 -42t-112 64q-49 59 -73 59q-56 0 -105 -109h-80q43 103 86 147t108 44zM502 489q-182 -1 -252 -71t-70 -201q0 -75 53 -105t209 -30
t226 76q35 39 57 147l33 184h-256zM590 934q-162 0 -279 -105l-73 66q141 141 362 141q156 0 240 -63t84 -185q0 -39 -19 -147l-112 -641h-101l-2 59q-53 -45 -118 -61t-210 -16t-225 51t-80 166q0 184 92 285t343 102h282l14 88q12 66 13 94q0 166 -211 166z" />
    <glyph glyph-name="uni1EAC" unicode="&#x1eac;" horiz-adv-x="1214" 
d="M387 -385l35 195h121l-35 -195h-121zM825 1804l-178 -168h-147l299 258h71l209 -258h-133zM907 442l-155 852l-459 -852h614zM922 334h-678l-178 -334h-144l795 1462h119l278 -1462h-133z" />
    <glyph glyph-name="uni1EAD" unicode="&#x1ead;" horiz-adv-x="1067" 
d="M315 -385l35 195h119l-33 -195h-121zM688 1372l-178 -168h-148l300 258h71l207 -258h-133zM502 489q-182 -1 -252 -71t-70 -201q0 -75 53 -105t209 -30t226 76q35 39 57 147l33 184h-256zM590 934q-162 0 -279 -105l-73 66q141 141 362 141q156 0 240 -63t84 -185
q0 -39 -19 -147l-112 -641h-101l-2 59q-53 -45 -118 -61t-210 -16t-225 51t-80 166q0 184 92 285t343 102h282l14 88q12 66 13 94q0 166 -211 166z" />
    <glyph glyph-name="uni1EAE" unicode="&#x1eae;" horiz-adv-x="1214" 
d="M662 1763q0 -113 147 -112q84 1 129 33t68 110h92q-30 -133 -94 -185t-201 -53q-231 0 -232 166l4 72h89q-2 -14 -2 -31zM770 1823l154 229h133l-209 -229h-78zM907 442l-155 852l-459 -852h614zM922 334h-678l-178 -334h-144l795 1462h119l278 -1462h-133z" />
    <glyph glyph-name="uni1EAF" unicode="&#x1eaf;" horiz-adv-x="1067" 
d="M512 1329q0 -113 147 -112q84 -1 129 33t68 112h94q-28 -133 -94 -186q-66 -54 -195 -54t-184 40t-55 128q0 21 6 72h86q-2 -16 -2 -33zM621 1391l153 231h133l-209 -231h-77zM502 489q-182 -1 -252 -71t-70 -201q0 -75 53 -105t209 -30t226 76q35 39 57 147l33 184h-256
zM590 934q-162 0 -279 -105l-73 66q141 141 362 141q156 0 240 -63t84 -185q0 -39 -19 -147l-112 -641h-101l-2 59q-53 -45 -118 -61t-210 -16t-225 51t-80 166q0 184 92 285t343 102h282l14 88q12 66 13 94q0 166 -211 166z" />
    <glyph glyph-name="uni1EB0" unicode="&#x1eb0;" horiz-adv-x="1214" 
d="M662 1763q0 -113 147 -112q84 1 129 33t68 110h92q-30 -133 -94 -185t-201 -53q-231 0 -232 166l4 72h89q-2 -14 -2 -31zM905 1823h-74l-131 229h119zM907 442l-155 852l-459 -852h614zM922 334h-678l-178 -334h-144l795 1462h119l278 -1462h-133z" />
    <glyph glyph-name="uni1EB1" unicode="&#x1eb1;" horiz-adv-x="1067" 
d="M512 1329q0 -113 147 -112q84 -1 129 33t68 112h94q-28 -133 -94 -186q-66 -54 -195 -54t-184 40t-55 128q0 21 6 72h86q-2 -16 -2 -33zM758 1391h-76l-131 231h119zM502 489q-182 -1 -252 -71t-70 -201q0 -75 53 -105t209 -30t226 76q35 39 57 147l33 184h-256zM590 934
q-162 0 -279 -105l-73 66q141 141 362 141q156 0 240 -63t84 -185q0 -39 -19 -147l-112 -641h-101l-2 59q-53 -45 -118 -61t-210 -16t-225 51t-80 166q0 184 92 285t343 102h282l14 88q12 66 13 94q0 166 -211 166z" />
    <glyph glyph-name="uni1EB2" unicode="&#x1eb2;" horiz-adv-x="1214" 
d="M662 1763q0 -113 147 -112q84 1 129 33t68 110h92q-30 -133 -94 -185t-201 -53q-231 0 -232 166l4 72h89q-2 -14 -2 -31zM887 1954q-1 37 -47 37t-99 -19l-12 66q63 20 121 20q135 0 135 -98q0 -27 -11 -45q-12 -18 -54 -57t-48 -84h-88q10 57 56 107t47 73zM907 442
l-155 852l-459 -852h614zM922 334h-678l-178 -334h-144l795 1462h119l278 -1462h-133z" />
    <glyph glyph-name="uni1EB3" unicode="&#x1eb3;" horiz-adv-x="1067" 
d="M512 1329q0 -113 147 -112q84 -1 129 33t68 112h94q-28 -133 -94 -186q-66 -54 -195 -54t-184 40t-55 128q0 21 6 72h86q-2 -16 -2 -33zM737 1522q0 37 -48 37t-97 -17l-10 64q66 23 118 22q135 0 136 -100q0 -27 -12 -46q-12 -18 -52 -56q-41 -38 -47 -85h-88
q10 59 55 107t45 74zM502 489q-182 -1 -252 -71t-70 -201q0 -75 53 -105t209 -30t226 76q35 39 57 147l33 184h-256zM590 934q-162 0 -279 -105l-73 66q141 141 362 141q156 0 240 -63t84 -185q0 -39 -19 -147l-112 -641h-101l-2 59q-53 -45 -118 -61t-210 -16t-225 51
t-80 166q0 184 92 285t343 102h282l14 88q12 66 13 94q0 166 -211 166z" />
    <glyph glyph-name="uni1EB4" unicode="&#x1eb4;" horiz-adv-x="1214" 
d="M653 1753q0 -109 148 -108q84 -1 128 31t66 110h88q-31 -131 -92 -180t-196 -50q-229 0 -230 162q0 2 4 68h86q-2 -18 -2 -33zM771 2050q63 0 113 -61t74 -62q47 0 89 109h79q-39 -106 -76 -149q-38 -42 -102 -42t-110 64q-31 39 -44 49t-32 10q-54 1 -103 -108h-79
q43 104 86 147t105 43zM907 442l-155 852l-459 -852h614zM922 334h-678l-178 -334h-144l795 1462h119l278 -1462h-133z" />
    <glyph glyph-name="uni1EB5" unicode="&#x1eb5;" horiz-adv-x="1067" 
d="M504 1321q0 -109 147 -109q84 0 128 32t67 110h90q-31 -131 -93 -180q-63 -50 -191 -50t-182 39t-54 125q0 23 6 66h84q-2 -16 -2 -33zM624 1618q66 0 114 -60t71 -61q47 0 90 107h78q-41 -106 -78 -148t-99 -41t-110 61q-49 60 -76 60q-51 0 -104 -106h-78
q45 106 86 147t106 41zM502 489q-182 -1 -252 -71t-70 -201q0 -75 53 -105t209 -30t226 76q35 39 57 147l33 184h-256zM590 934q-162 0 -279 -105l-73 66q141 141 362 141q156 0 240 -63t84 -185q0 -39 -19 -147l-112 -641h-101l-2 59q-53 -45 -118 -61t-210 -16t-225 51
t-80 166q0 184 92 285t343 102h282l14 88q12 66 13 94q0 166 -211 166z" />
    <glyph glyph-name="uni1EB6" unicode="&#x1eb6;" horiz-adv-x="1214" 
d="M387 -385l35 195h121l-35 -195h-121zM657 1837q0 -119 150 -119q86 0 130 36t71 130h90q-27 -147 -92 -206q-66 -58 -203 -58q-238 0 -238 188q0 23 6 76h91q-5 -27 -5 -47zM907 442l-155 852l-459 -852h614zM922 334h-678l-178 -334h-144l795 1462h119l278 -1462h-133z
" />
    <glyph glyph-name="uni1EB7" unicode="&#x1eb7;" horiz-adv-x="1067" 
d="M315 -385l35 195h119l-33 -195h-121zM508 1403q0 -117 149 -117q88 0 131 36t70 130h90q-27 -145 -92 -205q-66 -59 -203 -59q-238 0 -237 188q0 29 8 76h88q-4 -33 -4 -49zM502 489q-182 -1 -252 -71t-70 -201q0 -75 53 -105t209 -30t226 76q35 39 57 147l33 184h-256z
M590 934q-162 0 -279 -105l-73 66q141 141 362 141q156 0 240 -63t84 -185q0 -39 -19 -147l-112 -641h-101l-2 59q-53 -45 -118 -61t-210 -16t-225 51t-80 166q0 184 92 285t343 102h282l14 88q12 66 13 94q0 166 -211 166z" />
    <glyph glyph-name="uni1EB8" unicode="&#x1eb8;" horiz-adv-x="1183" 
d="M471 -385l35 195h121l-35 -195h-121zM139 0l258 1462h834l-19 -108h-708l-98 -559h604l-19 -109h-604l-102 -577h706l-18 -109h-834z" />
    <glyph glyph-name="uni1EB9" unicode="&#x1eb9;" horiz-adv-x="1107" 
d="M350 -385l35 195h121l-35 -195h-121zM870 698q0 240 -233 240q-137 0 -225 -88t-117 -262h567q8 49 8 110zM260 340q0 -256 268 -256q154 0 252 100l80 -67q-121 -135 -338 -135q-385 0 -385 337q0 66 17 160l16 94q41 238 153 351t310 112q354 0 354 -331
q0 -109 -24 -213h-684l-11 -54q-8 -41 -8 -98z" />
    <glyph glyph-name="uni1EBA" unicode="&#x1eba;" horiz-adv-x="1183" 
d="M905 1827q0 43 -50 43t-105 -25l-13 76q70 27 129 27q147 0 148 -119q0 -55 -74 -129q-31 -33 -39 -47t-14 -51h-96q8 51 18 71t53 72t43 82zM139 0l258 1462h834l-19 -108h-708l-98 -559h604l-19 -109h-604l-102 -577h706l-18 -109h-834z" />
    <glyph glyph-name="uni1EBB" unicode="&#x1ebb;" horiz-adv-x="1107" 
d="M745 1403q0 43 -59 43q-37 0 -96 -23l-10 74q68 27 127 27q147 0 147 -117q0 -57 -72 -131q-31 -31 -39 -46t-16 -52h-94q8 51 18 71t52 72t42 82zM870 698q0 240 -233 240q-137 0 -225 -88t-117 -262h567q8 49 8 110zM260 340q0 -256 268 -256q154 0 252 100l80 -67
q-121 -135 -338 -135q-385 0 -385 337q0 66 17 160l16 94q41 238 153 351t310 112q354 0 354 -331q0 -109 -24 -213h-684l-11 -54q-8 -41 -8 -98z" />
    <glyph glyph-name="uni1EBC" unicode="&#x1ebc;" horiz-adv-x="1183" 
d="M714 1870q72 0 138 -66t102 -66t61 28q26 26 54 87h82q-45 -117 -90 -161t-117 -45q-72 0 -136 65t-106 66q-57 0 -112 -115h-84q49 117 93 162t115 45zM139 0l258 1462h834l-19 -108h-708l-98 -559h604l-19 -109h-604l-102 -577h706l-18 -109h-834z" />
    <glyph glyph-name="uni1EBD" unicode="&#x1ebd;" horiz-adv-x="1107" 
d="M584 1438q70 0 136 -66t102 -66t61 26t53 89h84q-45 -119 -89 -163t-117 -44t-137 66t-106 66q-61 0 -112 -115h-84q47 115 93 161t116 46zM870 698q0 240 -233 240q-137 0 -225 -88t-117 -262h567q8 49 8 110zM260 340q0 -256 268 -256q154 0 252 100l80 -67
q-121 -135 -338 -135q-385 0 -385 337q0 66 17 160l16 94q41 238 153 351t310 112q354 0 354 -331q0 -109 -24 -213h-684l-11 -54q-8 -41 -8 -98z" />
    <glyph glyph-name="uni1EBE" unicode="&#x1ebe;" horiz-adv-x="1183" 
d="M838 1679l-170 -118h-142l287 206h68l213 -206h-131zM786 1823l154 229h133l-207 -229h-80zM139 0l258 1462h834l-19 -108h-708l-98 -559h604l-19 -109h-604l-102 -577h706l-18 -109h-834z" />
    <glyph glyph-name="uni1EBF" unicode="&#x1ebf;" horiz-adv-x="1107" 
d="M690 1249l-168 -119h-143l287 205h69l211 -205h-131zM639 1391l156 231h131l-207 -231h-80zM870 698q0 240 -233 240q-137 0 -225 -88t-117 -262h567q8 49 8 110zM260 340q0 -256 268 -256q154 0 252 100l80 -67q-121 -135 -338 -135q-385 0 -385 337q0 66 17 160l16 94
q41 238 153 351t310 112q354 0 354 -331q0 -109 -24 -213h-684l-11 -54q-8 -41 -8 -98z" />
    <glyph glyph-name="uni1EC0" unicode="&#x1ec0;" horiz-adv-x="1183" 
d="M838 1679l-168 -118h-142l285 206h70l213 -206h-131zM922 1823h-74l-133 229h121zM139 0l258 1462h834l-19 -108h-708l-98 -559h604l-19 -109h-604l-102 -577h706l-18 -109h-834z" />
    <glyph glyph-name="uni1EC1" unicode="&#x1ec1;" horiz-adv-x="1107" 
d="M690 1249l-168 -119h-143l287 205h69l211 -205h-131zM774 1391h-76l-131 231h121zM870 698q0 240 -233 240q-137 0 -225 -88t-117 -262h567q8 49 8 110zM260 340q0 -256 268 -256q154 0 252 100l80 -67q-121 -135 -338 -135q-385 0 -385 337q0 66 17 160l16 94
q41 238 153 351t310 112q354 0 354 -331q0 -109 -24 -213h-684l-11 -54q-8 -41 -8 -98z" />
    <glyph glyph-name="uni1EC2" unicode="&#x1ec2;" horiz-adv-x="1183" 
d="M831 1677l-167 -116h-144l285 200h69l213 -200h-131zM857 1993q-46 0 -97 -19l-12 64q61 23 120 22q133 0 133 -94q0 -45 -51 -89t-55 -83h-88q8 39 19 58q10 20 44 52t33 52q0 37 -46 37zM139 0l258 1462h834l-19 -108h-708l-98 -559h604l-19 -109h-604l-102 -577h706
l-18 -109h-834z" />
    <glyph glyph-name="uni1EC3" unicode="&#x1ec3;" horiz-adv-x="1107" 
d="M682 1247l-166 -117h-143l284 199h70l213 -199h-131zM756 1524q0 37 -58 37q-33 0 -88 -19l-10 64q66 23 121 22q133 0 133 -94q0 -45 -50 -89t-56 -83h-89q6 37 19 56q12 18 45 52t33 54zM870 698q0 240 -233 240q-137 0 -225 -88t-117 -262h567q8 49 8 110zM260 340
q0 -256 268 -256q154 0 252 100l80 -67q-121 -135 -338 -135q-385 0 -385 337q0 66 17 160l16 94q41 238 153 351t310 112q354 0 354 -331q0 -109 -24 -213h-684l-11 -54q-8 -41 -8 -98z" />
    <glyph glyph-name="uni1EC4" unicode="&#x1ec4;" horiz-adv-x="1183" 
d="M848 1679l-168 -118h-141l284 206h70l213 -206h-131zM796 2044q66 0 114 -60t71 -61q49 0 90 107h78q-41 -106 -78 -148t-99 -41t-110 61q-49 60 -76 60q-55 -1 -104 -107h-80q45 105 87 147t107 42zM139 0l258 1462h834l-19 -108h-708l-98 -559h604l-19 -109h-604
l-102 -577h706l-18 -109h-834z" />
    <glyph glyph-name="uni1EC5" unicode="&#x1ec5;" horiz-adv-x="1107" 
d="M700 1249l-168 -119h-141l285 205h69l213 -205h-131zM648 1614q64 0 113 -62q48 -62 73 -61q49 0 88 108h79q-41 -106 -77 -148t-100 -42q-63 0 -111 64q-31 39 -44 49t-32 10q-53 0 -102 -109h-80q43 103 86 147t107 44zM870 698q0 240 -233 240q-137 0 -225 -88
t-117 -262h567q8 49 8 110zM260 340q0 -256 268 -256q154 0 252 100l80 -67q-121 -135 -338 -135q-385 0 -385 337q0 66 17 160l16 94q41 238 153 351t310 112q354 0 354 -331q0 -109 -24 -213h-684l-11 -54q-8 -41 -8 -98z" />
    <glyph glyph-name="uni1EC6" unicode="&#x1ec6;" horiz-adv-x="1183" 
d="M467 -385l33 195h121l-35 -195h-119zM866 1804l-178 -168h-147l299 258h71l207 -258h-133zM139 0l258 1462h834l-19 -108h-708l-98 -559h604l-19 -109h-604l-102 -577h706l-18 -109h-834z" />
    <glyph glyph-name="uni1EC7" unicode="&#x1ec7;" horiz-adv-x="1107" 
d="M342 -385l35 195h121l-35 -195h-121zM715 1372l-178 -168h-148l299 258h74l207 -258h-133zM870 698q0 240 -233 240q-137 0 -225 -88t-117 -262h567q8 49 8 110zM260 340q0 -256 268 -256q154 0 252 100l80 -67q-121 -135 -338 -135q-385 0 -385 337q0 66 17 160l16 94
q41 238 153 351t310 112q354 0 354 -331q0 -109 -24 -213h-684l-11 -54q-8 -41 -8 -98z" />
    <glyph glyph-name="uni1EC8" unicode="&#x1ec8;" horiz-adv-x="581" 
d="M561 1827q0 43 -61 43q-39 0 -97 -25l-10 76q66 27 129 27q147 0 148 -119q0 -55 -74 -129q-31 -33 -39 -47t-16 -51h-95q8 51 19 71q10 20 53 72t43 82zM139 0l258 1462h127l-258 -1462h-127z" />
    <glyph glyph-name="uni1EC9" unicode="&#x1ec9;" horiz-adv-x="505" 
d="M446 1403q0 43 -49 43t-106 -23l-12 74q70 27 129 27q147 0 147 -117q0 -57 -74 -131q-31 -31 -39 -46t-14 -52h-96q8 51 18 71t53 72t43 82zM102 0l181 1018h120l-178 -1018h-123z" />
    <glyph glyph-name="uni1ECA" unicode="&#x1eca;" horiz-adv-x="581" 
d="M72 -385l34 195h121l-34 -195h-121zM137 0l258 1462h127l-258 -1462h-127z" />
    <glyph glyph-name="uni1ECB" unicode="&#x1ecb;" horiz-adv-x="505" 
d="M33 -385l35 195h120l-34 -195h-121zM100 0l181 1018h122l-180 -1018h-123zM326 1270l34 196h123l-34 -196h-123z" />
    <glyph glyph-name="uni1ECC" unicode="&#x1ecc;" horiz-adv-x="1388" 
d="M475 -385l35 195h119l-33 -195h-121zM1157 1071q0 143 -84 222t-235 79q-203 0 -322 -145q-51 -61 -78 -132t-49 -196l-59 -336q-18 -106 -19 -172q0 -143 84 -222t236 -79q203 0 321 143q90 111 127 330l60 336q18 100 18 172zM1286 1087q0 -78 -20 -192l-66 -365
q-26 -154 -66 -242t-114 -159q-150 -147 -380 -147t-344 107t-114 282q1 77 21 196l65 365q27 154 66 242t112 159q154 147 380 147t342 -102q118 -104 118 -291z" />
    <glyph glyph-name="uni1ECD" unicode="&#x1ecd;" horiz-adv-x="1138" 
d="M350 -385l35 195h121l-35 -195h-121zM256 322q0 -236 250 -236q143 0 226 85t114 263l26 148q12 80 13 120q0 231 -248 232q-145 0 -228 -86t-116 -266l-25 -148q-12 -59 -12 -112zM639 1036q369 0 369 -315q0 -63 -17 -152l-26 -157q-39 -222 -151 -326t-310 -104
q-371 0 -371 319q0 70 14 148l29 157q39 222 152 326t311 104z" />
    <glyph glyph-name="uni1ECE" unicode="&#x1ece;" horiz-adv-x="1388" 
d="M912 1870q-50 0 -105 -25l-12 76q70 27 129 27q147 0 147 -119q0 -55 -74 -129q-31 -33 -39 -47t-14 -51h-96q10 53 19 72t52 71t44 82q-1 43 -51 43zM1157 1071q0 143 -84 222t-235 79q-203 0 -322 -145q-51 -61 -78 -132t-49 -196l-59 -336q-18 -106 -19 -172
q0 -143 84 -222t236 -79q203 0 321 143q90 111 127 330l60 336q18 100 18 172zM1286 1087q0 -78 -20 -192l-66 -365q-26 -154 -66 -242t-114 -159q-150 -147 -380 -147t-344 107t-114 282q1 77 21 196l65 365q27 154 66 242t112 159q154 147 380 147t342 -102
q118 -104 118 -291z" />
    <glyph glyph-name="uni1ECF" unicode="&#x1ecf;" horiz-adv-x="1138" 
d="M762 1403q0 43 -60 43q-39 0 -96 -23l-10 74q66 27 127 27q147 0 147 -117q0 -57 -71 -131q-31 -31 -39 -46t-17 -52h-94q10 51 19 71q8 20 51 73t43 81zM256 322q0 -236 250 -236q143 0 226 85t114 263l26 148q12 80 13 120q0 231 -248 232q-145 0 -228 -86t-116 -266
l-25 -148q-12 -59 -12 -112zM639 1036q369 0 369 -315q0 -63 -17 -152l-26 -157q-39 -222 -151 -326t-310 -104q-371 0 -371 319q0 70 14 148l29 157q39 222 152 326t311 104z" />
    <glyph glyph-name="uni1ED0" unicode="&#x1ed0;" horiz-adv-x="1388" 
d="M907 1679l-170 -118h-141l287 206h67l213 -206h-131zM856 1823l154 229h133l-207 -229h-80zM1157 1071q0 143 -84 222t-235 79q-203 0 -322 -145q-51 -61 -78 -132t-49 -196l-59 -336q-18 -106 -19 -172q0 -143 84 -222t236 -79q203 0 321 143q90 111 127 330l60 336
q18 100 18 172zM1286 1087q0 -78 -20 -192l-66 -365q-26 -154 -66 -242t-114 -159q-150 -147 -380 -147t-344 107t-114 282q1 77 21 196l65 365q27 154 66 242t112 159q154 147 380 147t342 -102q118 -104 118 -291z" />
    <glyph glyph-name="uni1ED1" unicode="&#x1ed1;" horiz-adv-x="1138" 
d="M707 1249l-168 -119h-144l287 205h70l211 -205h-132zM655 1391l156 231h131l-207 -231h-80zM256 322q0 -236 250 -236q143 0 226 85t114 263l26 148q12 80 13 120q0 231 -248 232q-145 0 -228 -86t-116 -266l-25 -148q-12 -59 -12 -112zM639 1036q369 0 369 -315
q0 -63 -17 -152l-26 -157q-39 -222 -151 -326t-310 -104q-371 0 -371 319q0 70 14 148l29 157q39 222 152 326t311 104z" />
    <glyph glyph-name="uni1ED2" unicode="&#x1ed2;" horiz-adv-x="1388" 
d="M907 1679l-170 -118h-141l287 206h67l213 -206h-131zM989 1823h-74l-131 229h119zM1157 1071q0 143 -84 222t-235 79q-203 0 -322 -145q-51 -61 -78 -132t-49 -196l-59 -336q-18 -106 -19 -172q0 -143 84 -222t236 -79q203 0 321 143q90 111 127 330l60 336
q18 100 18 172zM1286 1087q0 -78 -20 -192l-66 -365q-26 -154 -66 -242t-114 -159q-150 -147 -380 -147t-344 107t-114 282q1 77 21 196l65 365q27 154 66 242t112 159q154 147 380 147t342 -102q118 -104 118 -291z" />
    <glyph glyph-name="uni1ED3" unicode="&#x1ed3;" horiz-adv-x="1138" 
d="M707 1249l-168 -119h-144l287 205h70l211 -205h-132zM791 1391h-76l-131 231h121zM256 322q0 -236 250 -236q143 0 226 85t114 263l26 148q12 80 13 120q0 231 -248 232q-145 0 -228 -86t-116 -266l-25 -148q-12 -59 -12 -112zM639 1036q369 0 369 -315q0 -63 -17 -152
l-26 -157q-39 -222 -151 -326t-310 -104q-371 0 -371 319q0 70 14 148l29 157q39 222 152 326t311 104z" />
    <glyph glyph-name="uni1ED4" unicode="&#x1ed4;" horiz-adv-x="1388" 
d="M899 1677l-168 -116h-141l284 200h70l213 -200h-131zM973 1956q0 37 -58 37q-33 0 -88 -19l-10 64q61 23 121 22q133 0 133 -94q0 -43 -51 -88t-55 -84h-88q6 37 18 56q12 18 45 52t33 54zM1157 1071q0 143 -84 222t-235 79q-203 0 -322 -145q-51 -61 -78 -132t-49 -196
l-59 -336q-18 -106 -19 -172q0 -143 84 -222t236 -79q203 0 321 143q90 111 127 330l60 336q18 100 18 172zM1286 1087q0 -78 -20 -192l-66 -365q-26 -154 -66 -242t-114 -159q-150 -147 -380 -147t-344 107t-114 282q1 77 21 196l65 365q27 154 66 242t112 159
q154 147 380 147t342 -102q118 -104 118 -291z" />
    <glyph glyph-name="uni1ED5" unicode="&#x1ed5;" horiz-adv-x="1138" 
d="M698 1247l-168 -117h-141l285 199h69l213 -199h-131zM772 1524q0 37 -57 37q-33 0 -88 -19l-11 64q66 23 121 22q133 0 133 -94q0 -45 -50 -89t-56 -83h-88q6 37 18 56q12 18 45 52t33 54zM256 322q0 -236 250 -236q143 0 226 85t114 263l26 148q12 80 13 120
q0 231 -248 232q-145 0 -228 -86t-116 -266l-25 -148q-12 -59 -12 -112zM639 1036q369 0 369 -315q0 -63 -17 -152l-26 -157q-39 -222 -151 -326t-310 -104q-371 0 -371 319q0 70 14 148l29 157q39 222 152 326t311 104z" />
    <glyph glyph-name="uni1ED6" unicode="&#x1ed6;" horiz-adv-x="1388" 
d="M918 1679l-168 -118h-144l287 206h70l211 -206h-132zM866 2044q64 0 112 -60t73 -61q49 0 88 107h80q-41 -104 -78 -146t-101 -43q-64 0 -110 62q-33 39 -45 49t-31 10q-53 -1 -102 -107h-80q43 101 86 145q44 44 108 44zM1157 1071q0 143 -84 222t-235 79
q-203 0 -322 -145q-51 -61 -78 -132t-49 -196l-59 -336q-18 -106 -19 -172q0 -143 84 -222t236 -79q203 0 321 143q90 111 127 330l60 336q18 100 18 172zM1286 1087q0 -78 -20 -192l-66 -365q-26 -154 -66 -242t-114 -159q-150 -147 -380 -147t-344 107t-114 282
q1 77 21 196l65 365q27 154 66 242t112 159q154 147 380 147t342 -102q118 -104 118 -291z" />
    <glyph glyph-name="uni1ED7" unicode="&#x1ed7;" horiz-adv-x="1138" 
d="M717 1249l-168 -119h-143l286 205h70l213 -205h-131zM664 1614q66 0 112 -62q49 -61 74 -61q47 0 88 108h80q-41 -106 -78 -148q-38 -42 -100 -42t-111 64q-31 39 -44 49t-32 10q-53 0 -102 -109h-80q43 107 85 149t108 42zM256 322q0 -236 250 -236q143 0 226 85
t114 263l26 148q12 80 13 120q0 231 -248 232q-145 0 -228 -86t-116 -266l-25 -148q-12 -59 -12 -112zM639 1036q369 0 369 -315q0 -63 -17 -152l-26 -157q-39 -222 -151 -326t-310 -104q-371 0 -371 319q0 70 14 148l29 157q39 222 152 326t311 104z" />
    <glyph glyph-name="uni1ED8" unicode="&#x1ed8;" horiz-adv-x="1388" 
d="M475 -385l35 195h119l-33 -195h-121zM930 1804l-178 -168h-148l297 258h74l207 -258h-133zM1157 1071q0 143 -84 222t-235 79q-203 0 -322 -145q-51 -61 -78 -132t-49 -196l-59 -336q-18 -106 -19 -172q0 -143 84 -222t236 -79q203 0 321 143q90 111 127 330l60 336
q18 100 18 172zM1286 1087q0 -78 -20 -192l-66 -365q-26 -154 -66 -242t-114 -159q-150 -147 -380 -147t-344 107t-114 282q1 77 21 196l65 365q27 154 66 242t112 159q154 147 380 147t342 -102q118 -104 118 -291z" />
    <glyph glyph-name="uni1ED9" unicode="&#x1ed9;" horiz-adv-x="1138" 
d="M350 -385l35 195h121l-35 -195h-121zM729 1372l-178 -168h-148l299 258h72l207 -258h-133zM256 322q0 -236 250 -236q143 0 226 85t114 263l26 148q12 80 13 120q0 231 -248 232q-145 0 -228 -86t-116 -266l-25 -148q-12 -59 -12 -112zM639 1036q369 0 369 -315
q0 -63 -17 -152l-26 -157q-39 -222 -151 -326t-310 -104q-371 0 -371 319q0 70 14 148l29 157q39 222 152 326t311 104z" />
    <glyph glyph-name="uni1EDA" unicode="&#x1eda;" horiz-adv-x="1427" 
d="M854 1626l199 281h153l-258 -281h-94zM1157 1071q0 143 -84 222t-235 79q-203 0 -322 -145q-51 -61 -78 -132t-49 -196l-59 -336q-18 -102 -19 -172q0 -143 84 -222t236 -79q203 0 321 143q90 111 127 330l60 336q18 98 18 172zM1587 1438q0 -137 -123 -228
q-57 -39 -182 -104v-27q4 -72 -16 -184l-66 -365q-26 -154 -66 -242t-114 -159q-150 -147 -382 -147t-345 110q-111 104 -111 279q0 74 21 196l63 365q29 154 68 243t112 158q154 147 394 148q180 0 292 -75t142 -216q104 57 137 90q68 61 68 150q-1 20 -9 51h115
q2 -20 2 -43z" />
    <glyph glyph-name="uni1EDB" unicode="&#x1edb;" horiz-adv-x="1171" 
d="M649 1194l199 281h153l-258 -281h-94zM256 319q0 -233 250 -233q143 0 226 85t114 263l26 148q10 61 11 120q0 231 -246 232q-145 0 -228 -86t-116 -266l-25 -148q-12 -70 -12 -115zM1284 993q0 -188 -280 -323q-4 -66 -13 -101l-26 -157q-39 -222 -151 -326t-310 -104
q-371 0 -371 319q0 70 14 148l29 157q39 222 151 326t298 104t275 -68t106 -208q74 41 104 74q66 70 66 151q-1 18 -7 51h113q2 -25 2 -43z" />
    <glyph glyph-name="uni1EDC" unicode="&#x1edc;" horiz-adv-x="1427" 
d="M1024 1626h-92l-162 281h145zM1157 1071q0 143 -84 222t-235 79q-203 0 -322 -145q-51 -61 -78 -132t-49 -196l-59 -336q-18 -102 -19 -172q0 -143 84 -222t236 -79q203 0 321 143q90 111 127 330l60 336q18 98 18 172zM1587 1438q0 -137 -123 -228q-57 -39 -182 -104
v-27q4 -72 -16 -184l-66 -365q-26 -154 -66 -242t-114 -159q-150 -147 -382 -147t-345 110q-111 104 -111 279q0 74 21 196l63 365q29 154 68 243t112 158q154 147 394 148q180 0 292 -75t142 -216q104 57 137 90q68 61 68 150q-1 20 -9 51h115q2 -20 2 -43z" />
    <glyph glyph-name="uni1EDD" unicode="&#x1edd;" horiz-adv-x="1171" 
d="M844 1194h-92l-162 281h145zM256 319q0 -233 250 -233q143 0 226 85t114 263l26 148q10 61 11 120q0 231 -246 232q-145 0 -228 -86t-116 -266l-25 -148q-12 -70 -12 -115zM1284 993q0 -188 -280 -323q-4 -66 -13 -101l-26 -157q-39 -222 -151 -326t-310 -104
q-371 0 -371 319q0 70 14 148l29 157q39 222 151 326t298 104t275 -68t106 -208q74 41 104 74q66 70 66 151q-1 18 -7 51h113q2 -25 2 -43z" />
    <glyph glyph-name="uni1EDE" unicode="&#x1ede;" horiz-adv-x="1427" 
d="M911 1870q-39 0 -96 -25l-10 76q70 27 129 27q147 0 147 -119q0 -55 -73 -129q-32 -31 -40 -46t-16 -52h-94q10 51 20 70q9 19 37 57q57 68 58 98q0 43 -62 43zM1157 1071q0 143 -84 222t-235 79q-203 0 -322 -145q-51 -61 -78 -132t-49 -196l-59 -336q-18 -102 -19 -172
q0 -143 84 -222t236 -79q203 0 321 143q90 111 127 330l60 336q18 98 18 172zM1587 1438q0 -137 -123 -228q-57 -39 -182 -104v-27q4 -72 -16 -184l-66 -365q-26 -154 -66 -242t-114 -159q-150 -147 -382 -147t-345 110q-111 104 -111 279q0 74 21 196l63 365q29 154 68 243
t112 158q154 147 394 148q180 0 292 -75t142 -216q104 57 137 90q68 61 68 150q-1 20 -9 51h115q2 -20 2 -43z" />
    <glyph glyph-name="uni1EDF" unicode="&#x1edf;" horiz-adv-x="1171" 
d="M784 1403q0 43 -49 43t-108 -23l-11 74q70 27 127 27q150 0 150 -117q0 -57 -74 -131q-31 -31 -39 -46t-14 -52h-96q10 48 19 70t40 57q55 70 55 98zM256 319q0 -233 250 -233q143 0 226 85t114 263l26 148q10 61 11 120q0 231 -246 232q-145 0 -228 -86t-116 -266
l-25 -148q-12 -70 -12 -115zM1284 993q0 -188 -280 -323q-4 -66 -13 -101l-26 -157q-39 -222 -151 -326t-310 -104q-371 0 -371 319q0 70 14 148l29 157q39 222 151 326t298 104t275 -68t106 -208q74 41 104 74q66 70 66 151q-1 18 -7 51h113q2 -25 2 -43z" />
    <glyph glyph-name="uni1EE0" unicode="&#x1ee0;" horiz-adv-x="1427" 
d="M840 1870q72 0 138 -66t100 -66q36 0 62 28q26 26 54 87h82q-45 -117 -89 -161t-117 -45q-73 0 -137 65t-106 66q-57 0 -112 -115h-84q49 119 93 163t116 44zM1157 1071q0 143 -84 222t-235 79q-203 0 -322 -145q-51 -61 -78 -132t-49 -196l-59 -336q-18 -102 -19 -172
q0 -143 84 -222t236 -79q203 0 321 143q90 111 127 330l60 336q18 98 18 172zM1587 1438q0 -137 -123 -228q-57 -39 -182 -104v-27q4 -72 -16 -184l-66 -365q-26 -154 -66 -242t-114 -159q-150 -147 -382 -147t-345 110q-111 104 -111 279q0 74 21 196l63 365q29 154 68 243
t112 158q154 147 394 148q180 0 292 -75t142 -216q104 57 137 90q68 61 68 150q-1 20 -9 51h115q2 -20 2 -43z" />
    <glyph glyph-name="uni1EE1" unicode="&#x1ee1;" horiz-adv-x="1171" 
d="M603 1438q71 0 137 -66t102 -66q34 0 60 26t54 89h84q-47 -119 -90 -163q-42 -44 -116 -44t-138 66t-104 66q-64 0 -115 -115h-84q47 115 93 161t117 46zM256 319q0 -233 250 -233q143 0 226 85t114 263l26 148q10 61 11 120q0 231 -246 232q-145 0 -228 -86t-116 -266
l-25 -148q-12 -70 -12 -115zM1284 993q0 -188 -280 -323q-4 -66 -13 -101l-26 -157q-39 -222 -151 -326t-310 -104q-371 0 -371 319q0 70 14 148l29 157q39 222 151 326t298 104t275 -68t106 -208q74 41 104 74q66 70 66 151q-1 18 -7 51h113q2 -25 2 -43z" />
    <glyph glyph-name="uni1EE2" unicode="&#x1ee2;" horiz-adv-x="1427" 
d="M485 -385l33 195h121l-35 -195h-119zM1157 1071q0 143 -84 222t-235 79q-203 0 -322 -145q-51 -61 -78 -132t-49 -196l-59 -336q-18 -102 -19 -172q0 -143 84 -222t236 -79q203 0 321 143q90 111 127 330l60 336q18 98 18 172zM1587 1438q0 -137 -123 -228
q-57 -39 -182 -104v-27q4 -72 -16 -184l-66 -365q-26 -154 -66 -242t-114 -159q-150 -147 -382 -147t-345 110q-111 104 -111 279q0 74 21 196l63 365q29 154 68 243t112 158q154 147 394 148q180 0 292 -75t142 -216q104 57 137 90q68 61 68 150q-1 20 -9 51h115
q2 -20 2 -43z" />
    <glyph glyph-name="uni1EE3" unicode="&#x1ee3;" horiz-adv-x="1171" 
d="M362 -385l35 195h121l-35 -195h-121zM256 319q0 -233 250 -233q143 0 226 85t114 263l26 148q10 61 11 120q0 231 -246 232q-145 0 -228 -86t-116 -266l-25 -148q-12 -70 -12 -115zM1284 993q0 -188 -280 -323q-4 -66 -13 -101l-26 -157q-39 -222 -151 -326t-310 -104
q-371 0 -371 319q0 70 14 148l29 157q39 222 151 326t298 104t275 -68t106 -208q74 41 104 74q66 70 66 151q-1 18 -7 51h113q2 -25 2 -43z" />
    <glyph glyph-name="uni1EE4" unicode="&#x1ee4;" horiz-adv-x="1417" 
d="M489 -385l35 195h119l-33 -195h-121zM336 340q0 -80 53 -152q76 -96 254 -96q219 0 336 162q63 86 96 281l164 927h127l-168 -950q-26 -152 -56 -226t-91 -141q-154 -161 -406 -161t-358 127q-80 94 -80 227q0 78 24 219l160 905h127l-164 -927q-18 -115 -18 -195z" />
    <glyph glyph-name="uni1EE5" unicode="&#x1ee5;" horiz-adv-x="1130" 
d="M346 -385l35 195h121l-35 -195h-121zM281 303q0 -213 200 -213q139 0 217 95t117 319l90 514h123l-180 -1018h-90l8 133q-100 -152 -307 -151q-145 0 -226 71q-80 72 -79 201q0 78 22 203l98 561h123l-100 -567q-16 -92 -16 -148z" />
    <glyph glyph-name="uni1EE6" unicode="&#x1ee6;" horiz-adv-x="1417" 
d="M977 1829q0 41 -50 41t-106 -25l-12 76q70 27 129 27q147 0 147 -119q0 -55 -73 -129q-30 -31 -38 -46t-16 -52h-96q10 51 21 71q10 20 52 72t42 84zM336 340q0 -80 53 -152q76 -96 254 -96q219 0 336 162q63 86 96 281l164 927h127l-168 -950q-26 -152 -56 -226
t-91 -141q-154 -161 -406 -161t-358 127q-80 94 -80 227q0 78 24 219l160 905h127l-164 -927q-18 -115 -18 -195z" />
    <glyph glyph-name="uni1EE7" unicode="&#x1ee7;" horiz-adv-x="1130" 
d="M698 1446q-37 0 -96 -23l-10 74q70 27 127 27q150 0 149 -117q0 -57 -73 -131q-31 -33 -39 -47t-17 -51h-94q9 48 19 70t52 74t44 81q0 43 -62 43zM281 303q0 -213 200 -213q139 0 217 95t117 319l90 514h123l-180 -1018h-90l8 133q-100 -152 -307 -151q-145 0 -226 71
q-80 72 -79 201q0 78 22 203l98 561h123l-100 -567q-16 -92 -16 -148z" />
    <glyph glyph-name="uni1EE8" unicode="&#x1ee8;" horiz-adv-x="1474" 
d="M879 1626l198 281h154l-258 -281h-94zM334 358q0 -100 53 -170q76 -96 254 -96q221 0 338 162q63 90 96 281l164 927h127l-53 -299q104 45 162 90q90 74 90 177q0 20 -9 51h113q4 -23 4 -43q0 -127 -114 -224q-88 -70 -263 -145l-98 -557q-28 -150 -58 -226t-89 -141
q-154 -161 -406 -161t-358 127q-80 94 -80 227q0 78 24 219l160 905h127l-164 -927q-20 -125 -20 -177z" />
    <glyph glyph-name="uni1EE9" unicode="&#x1ee9;" horiz-adv-x="1191" 
d="M645 1194l197 281h155l-258 -281h-94zM281 301q0 -211 202 -211q139 0 216 95t116 319l90 514h123l-53 -301q119 55 160 90q92 76 92 178q0 14 -6 51h112q2 -18 2 -39q0 -115 -84 -198q-45 -47 -97 -79t-196 -97l-110 -623h-90l8 133q-100 -152 -307 -151q-145 0 -226 71
q-80 72 -79 201q0 78 22 203l98 561h123l-100 -567q-16 -92 -16 -150z" />
    <glyph glyph-name="uni1EEA" unicode="&#x1eea;" horiz-adv-x="1474" 
d="M1034 1626h-92l-164 281h148zM334 358q0 -100 53 -170q76 -96 254 -96q221 0 338 162q63 90 96 281l164 927h127l-53 -299q104 45 162 90q90 74 90 177q0 20 -9 51h113q4 -23 4 -43q0 -127 -114 -224q-88 -70 -263 -145l-98 -557q-28 -150 -58 -226t-89 -141
q-154 -161 -406 -161t-358 127q-80 94 -80 227q0 78 24 219l160 905h127l-164 -927q-20 -125 -20 -177z" />
    <glyph glyph-name="uni1EEB" unicode="&#x1eeb;" horiz-adv-x="1191" 
d="M780 1194h-92l-162 281h146zM281 301q0 -211 202 -211q139 0 216 95t116 319l90 514h123l-53 -301q119 55 160 90q92 76 92 178q0 14 -6 51h112q2 -18 2 -39q0 -115 -84 -198q-45 -47 -97 -79t-196 -97l-110 -623h-90l8 133q-100 -152 -307 -151q-145 0 -226 71
q-80 72 -79 201q0 78 22 203l98 561h123l-100 -567q-16 -92 -16 -150z" />
    <glyph glyph-name="uni1EEC" unicode="&#x1eec;" horiz-adv-x="1474" 
d="M995 1827q0 43 -49 43t-106 -25l-13 76q70 27 129 27q147 0 148 -119q0 -55 -74 -129q-31 -33 -39 -47t-14 -51h-96q10 53 19 72t52 71t43 82zM334 358q0 -100 53 -170q76 -96 254 -96q221 0 338 162q63 90 96 281l164 927h127l-53 -299q104 45 162 90q90 74 90 177
q0 20 -9 51h113q4 -23 4 -43q0 -127 -114 -224q-88 -70 -263 -145l-98 -557q-28 -150 -58 -226t-89 -141q-154 -161 -406 -161t-358 127q-80 94 -80 227q0 78 24 219l160 905h127l-164 -927q-20 -125 -20 -177z" />
    <glyph glyph-name="uni1EED" unicode="&#x1eed;" horiz-adv-x="1191" 
d="M776 1403q0 43 -61 43q-37 0 -97 -23l-10 74q66 27 127 27q150 0 150 -117q0 -57 -74 -131q-31 -31 -39 -46t-16 -52h-94q8 51 18 71t53 72t43 82zM281 301q0 -211 202 -211q139 0 216 95t116 319l90 514h123l-53 -301q119 55 160 90q92 76 92 178q0 14 -6 51h112
q2 -18 2 -39q0 -115 -84 -198q-45 -47 -97 -79t-196 -97l-110 -623h-90l8 133q-100 -152 -307 -151q-145 0 -226 71q-80 72 -79 201q0 78 22 203l98 561h123l-100 -567q-16 -92 -16 -150z" />
    <glyph glyph-name="uni1EEE" unicode="&#x1eee;" horiz-adv-x="1474" 
d="M824 1870q70 0 137 -66q65 -66 101 -66t62 28q26 26 54 87h84q-48 -117 -92 -161t-116 -45q-72 0 -138 65q-64 65 -103 66q-62 0 -115 -115h-84q48 117 94 162t116 45zM334 358q0 -100 53 -170q76 -96 254 -96q221 0 338 162q63 90 96 281l164 927h127l-53 -299
q104 45 162 90q90 74 90 177q0 20 -9 51h113q4 -23 4 -43q0 -127 -114 -224q-88 -70 -263 -145l-98 -557q-28 -150 -58 -226t-89 -141q-154 -161 -406 -161t-358 127q-80 94 -80 227q0 78 24 219l160 905h127l-164 -927q-20 -125 -20 -177z" />
    <glyph glyph-name="uni1EEF" unicode="&#x1eef;" horiz-adv-x="1191" 
d="M608 1438q70 0 136 -66t103 -66q35 0 61 26t53 89h83q-47 -119 -90 -163q-44 -44 -116 -44t-138 66t-104 66q-66 0 -113 -115h-84q47 115 93 161t116 46zM281 301q0 -211 202 -211q139 0 216 95t116 319l90 514h123l-53 -301q119 55 160 90q92 76 92 178q0 14 -6 51h112
q2 -18 2 -39q0 -115 -84 -198q-45 -47 -97 -79t-196 -97l-110 -623h-90l8 133q-100 -152 -307 -151q-145 0 -226 71q-80 72 -79 201q0 78 22 203l98 561h123l-100 -567q-16 -92 -16 -150z" />
    <glyph glyph-name="uni1EF0" unicode="&#x1ef0;" horiz-adv-x="1474" 
d="M506 -385l35 195h121l-35 -195h-121zM334 358q0 -100 53 -170q76 -96 254 -96q221 0 338 162q63 90 96 281l164 927h127l-53 -299q104 45 162 90q90 74 90 177q0 20 -9 51h113q4 -23 4 -43q0 -127 -114 -224q-88 -70 -263 -145l-98 -557q-28 -150 -58 -226t-89 -141
q-154 -161 -406 -161t-358 127q-80 94 -80 227q0 78 24 219l160 905h127l-164 -927q-20 -125 -20 -177z" />
    <glyph glyph-name="uni1EF1" unicode="&#x1ef1;" horiz-adv-x="1191" 
d="M379 -385l35 195h121l-35 -195h-121zM281 301q0 -211 202 -211q139 0 216 95t116 319l90 514h123l-53 -301q119 55 160 90q92 76 92 178q0 14 -6 51h112q2 -18 2 -39q0 -115 -84 -198q-45 -47 -97 -79t-196 -97l-110 -623h-90l8 133q-100 -152 -307 -151q-145 0 -226 71
q-80 72 -79 201q0 78 22 203l98 561h123l-100 -567q-16 -92 -16 -150z" />
    <glyph glyph-name="Ygrave" unicode="&#x1ef2;" horiz-adv-x="1079" 
d="M827 1626h-90l-164 281h146zM389 0l92 528l-299 934h131l250 -800l535 800h139l-629 -934l-92 -528h-127z" />
    <glyph glyph-name="ygrave" unicode="&#x1ef3;" horiz-adv-x="983" 
d="M705 1194h-91l-163 281h145zM350 -6l-207 1024h119l172 -885l447 885h129l-633 -1219q-90 -170 -167 -219t-251 -51l18 104q113 0 164 34t115 149z" />
    <glyph glyph-name="uni1EF4" unicode="&#x1ef4;" horiz-adv-x="1079" 
d="M322 -385l34 195h119l-33 -195h-120zM389 0l92 528l-299 934h131l250 -800l535 800h139l-629 -934l-92 -528h-127z" />
    <glyph glyph-name="uni1EF5" unicode="&#x1ef5;" horiz-adv-x="983" 
d="M483 -385l35 195h121l-35 -195h-121zM350 -6l-207 1024h119l172 -885l447 885h129l-633 -1219q-90 -170 -167 -219t-251 -51l18 104q113 0 164 34t115 149z" />
    <glyph glyph-name="uni1EF6" unicode="&#x1ef6;" horiz-adv-x="1079" 
d="M737 1870q-39 0 -96 -25l-10 76q70 27 127 27q147 0 147 -119q0 -55 -71 -129q-32 -33 -40 -47t-16 -51h-94q10 53 18 71t51 71t44 83q0 43 -60 43zM389 0l92 528l-299 934h131l250 -800l535 800h139l-629 -934l-92 -528h-127z" />
    <glyph glyph-name="uni1EF7" unicode="&#x1ef7;" horiz-adv-x="983" 
d="M608 1446q-39 0 -98 -23l-10 74q70 27 127 27q150 0 149 -117q0 -57 -74 -131q-31 -31 -39 -46t-14 -52h-96q10 48 19 70t40 57q55 70 56 98q0 43 -60 43zM350 -6l-207 1024h119l172 -885l447 885h129l-633 -1219q-90 -170 -167 -219t-251 -51l18 104q113 0 164 34
t115 149z" />
    <glyph glyph-name="uni1EF8" unicode="&#x1ef8;" horiz-adv-x="1079" 
d="M646 1870q72 0 138 -66t105 -65q59 0 110 114h84q-47 -117 -91 -161t-116 -45q-72 0 -136 65t-105 66q-64 0 -113 -115h-84q47 117 92 162t116 45zM389 0l92 528l-299 934h131l250 -800l535 800h139l-629 -934l-92 -528h-127z" />
    <glyph glyph-name="uni1EF9" unicode="&#x1ef9;" horiz-adv-x="983" 
d="M519 1438q71 0 137 -66t101 -66t61 26t52 89h84q-45 -119 -89 -163q-45 -44 -117 -44t-136 66t-106 66q-62 0 -113 -115h-84q47 115 93 161t117 46zM350 -6l-207 1024h119l172 -885l447 885h129l-633 -1219q-90 -170 -167 -219t-251 -51l18 104q113 0 164 34t115 149z
" />
    <glyph glyph-name="uni2002" unicode="&#x2002;" horiz-adv-x="1024" 
 />
    <glyph glyph-name="uni2003" unicode="&#x2003;" horiz-adv-x="2048" 
 />
    <glyph glyph-name="uni2004" unicode="&#x2004;" horiz-adv-x="681" 
 />
    <glyph glyph-name="uni2005" unicode="&#x2005;" horiz-adv-x="512" 
 />
    <glyph glyph-name="uni2006" unicode="&#x2006;" horiz-adv-x="342" 
 />
    <glyph glyph-name="uni2007" unicode="&#x2007;" 
 />
    <glyph glyph-name="uni2008" unicode="&#x2008;" horiz-adv-x="0" 
 />
    <glyph glyph-name="uni2009" unicode="&#x2009;" horiz-adv-x="409" 
 />
    <glyph glyph-name="uni200A" unicode="&#x200a;" horiz-adv-x="256" 
 />
    <glyph glyph-name="uni2011" unicode="&#x2011;" horiz-adv-x="980" 
d="M250 696l18 109h551l-20 -109h-549z" />
    <glyph glyph-name="figuredash" unicode="&#x2012;" 
d="M201 696l18 109h772l-20 -109h-770z" />
    <glyph glyph-name="endash" unicode="&#x2013;" 
d="M201 696l18 109h772l-20 -109h-770z" />
    <glyph glyph-name="emdash" unicode="&#x2014;" 
d="M45 696l18 109h1084l-19 -109h-1083z" />
    <glyph glyph-name="afii00208" unicode="&#x2015;" 
d="M45 696l18 109h1084l-19 -109h-1083z" />
    <glyph glyph-name="underscoredbl" unicode="&#x2017;" horiz-adv-x="962" 
d="M-186 -260l14 82h1065l-14 -82h-1065zM-215 -422l14 82h1065l-14 -82h-1065z" />
    <glyph glyph-name="quoteleft" unicode="&#x2018;" horiz-adv-x="356" 
d="M453 1462l-160 -469h-133l192 469h101z" />
    <glyph glyph-name="quoteright" unicode="&#x2019;" horiz-adv-x="356" 
d="M160 993l159 469h134l-193 -469h-100z" />
    <glyph glyph-name="quotesinglbase" unicode="&#x201a;" horiz-adv-x="356" 
d="M-68 -293l160 471h133l-192 -471h-101z" />
    <glyph glyph-name="quotedblleft" unicode="&#x201c;" horiz-adv-x="704" 
d="M453 1462l-160 -469h-133l192 469h101zM801 1462l-160 -469h-131l190 469h101z" />
    <glyph glyph-name="quotedblright" unicode="&#x201d;" horiz-adv-x="704" 
d="M510 993l160 469h131l-193 -469h-98zM160 993l159 469h134l-193 -469h-100z" />
    <glyph glyph-name="quotedblbase" unicode="&#x201e;" horiz-adv-x="704" 
d="M283 -293l159 471h131l-192 -471h-98zM-68 -293l160 471h133l-192 -471h-101z" />
    <glyph glyph-name="dagger" unicode="&#x2020;" 
d="M559 887h-348l18 108h349l81 467h125l-82 -467h347l-19 -108h-348l-213 -1215h-125z" />
    <glyph glyph-name="daggerdbl" unicode="&#x2021;" 
d="M557 887h-348l20 108h346l82 467h125l-82 -467h349l-21 -108h-346l-64 -352h322l-18 -109h-322l-133 -754h-125l133 754h-321l18 109h324z" />
    <glyph glyph-name="bullet" unicode="&#x2022;" 
d="M555 1075q143 0 239 -93t97 -232q0 -138 -96 -232q-97 -94 -241 -94t-241 93q-96 93 -96 233t97 232q98 93 241 93z" />
    <glyph glyph-name="ellipsis" unicode="&#x2026;" horiz-adv-x="1708" 
d="M1270 0l30 178h127l-30 -178h-127zM700 0l31 178h127l-31 -178h-127zM131 0l31 178h127l-31 -178h-127z" />
    <glyph glyph-name="perthousand" unicode="&#x2030;" horiz-adv-x="2473" 
d="M504 0l715 1462h118l-716 -1462h-117zM1860 223q0 -151 166 -151q84 0 136 56q51 56 74 183l27 148q14 86 14 108q0 154 -157 154q-94 0 -146 -56t-73 -184l-31 -170q-10 -68 -10 -88zM2115 809q135 0 203 -56t68 -163q0 -29 -12 -113l-35 -194q-27 -156 -105 -228
q-78 -71 -212 -71t-202 56t-69 159q0 33 16 123l31 188q27 156 105 228t212 71zM1141 223q-1 -151 165 -151q84 0 137 56q52 56 75 183l24 148q16 82 17 108q0 154 -158 154q-93 0 -145 -56t-74 -184l-31 -170q-10 -66 -10 -88zM1395 809q272 0 272 -219q0 -41 -12 -113
l-35 -194q-27 -154 -98 -220q-82 -79 -218 -79t-204 56t-68 159q1 43 15 123l32 188q27 152 104 226t212 73zM694 1237q0 154 -157 154q-93 -1 -145 -57t-75 -183l-28 -170q-10 -61 -10 -88q1 -72 41 -112t124 -40q171 0 209 240l27 147q14 76 14 109zM533 1479
q133 -1 201 -57t69 -162q0 -55 -12 -113l-35 -195q-14 -88 -34 -134t-63 -85q-82 -80 -217 -80q-136 1 -204 57t-68 158q0 45 14 123l33 189q29 156 106 228t210 71z" />
    <glyph glyph-name="guilsinglleft" unicode="&#x2039;" horiz-adv-x="491" 
d="M244 596l139 -252l-80 -47l-201 307l310 307l61 -63z" />
    <glyph glyph-name="guilsinglright" unicode="&#x203a;" horiz-adv-x="491" 
d="M283 610l-140 256l80 45l201 -307l-309 -307l-62 63z" />
    <glyph glyph-name="uni203E" unicode="&#x203e;" horiz-adv-x="962" 
d="M154 1667l16 94h1065l-16 -94h-1065z" />
    <glyph glyph-name="fraction" unicode="&#x2044;" horiz-adv-x="313" 
d="M-213 0l715 1462h119l-715 -1462h-119z" />
    <glyph glyph-name="zerosuperior" unicode="&#x2070;" horiz-adv-x="714" 
d="M674 1465q0 57 -34 93t-104 36q-146 -1 -186 -238l-45 -254q-10 -62 -10 -114t34 -88q35 -36 105 -36q146 0 184 238l46 254q10 53 10 109zM780 1468q0 -49 -12 -116l-47 -265q-27 -159 -101 -233t-200 -74q-231 0 -232 211q1 41 13 115l47 264q27 160 100 234
q74 74 203 73q229 0 229 -209z" />
    <glyph glyph-name="foursuperior" unicode="&#x2074;" horiz-adv-x="708" 
d="M500 791l30 174h-383l13 67l413 635h115l-403 -614h260l37 198h96l-37 -198h96l-16 -90h-94l-31 -172h-96z" />
    <glyph glyph-name="fivesuperior" unicode="&#x2075;" horiz-adv-x="696" 
d="M511 1333q85 0 142 -51t58 -141q0 -173 -87 -267t-245 -94q-106 0 -168 45q-61 45 -61 123v10l102 21q2 -51 40 -82t99 -31q94 0 152 70q57 70 57 182q0 133 -129 133q-84 0 -164 -57l-74 14l127 459h422l-14 -90h-334l-80 -277q72 33 157 33z" />
    <glyph glyph-name="sixsuperior" unicode="&#x2076;" horiz-adv-x="708" 
d="M492 1253q-92 0 -148 -71q-55 -72 -55 -191q0 -127 129 -127q90 0 145 72t55 188q1 129 -126 129zM524 1333q92 0 146 -50t53 -138q0 -160 -73 -262t-238 -103q-109 0 -167 50q-59 50 -59 146t26 165q26 70 91 157l279 369h123l-265 -346q39 12 84 12z" />
    <glyph glyph-name="sevensuperior" unicode="&#x2077;" horiz-adv-x="503" 
d="M121 791l416 786h-367l14 90h484l-13 -65l-413 -811h-121z" />
    <glyph glyph-name="eightsuperior" unicode="&#x2078;" horiz-adv-x="708" 
d="M477 1208q-96 0 -152 -59t-57 -162q0 -123 146 -123q94 0 150 60t57 161q-1 123 -144 123zM549 1599q-86 0 -136 -54t-51 -146q0 -113 127 -113q84 0 135 54q50 54 50 147q0 112 -125 112zM772 1505q0 -174 -129 -250q84 -47 84 -151q0 -139 -73 -231t-246 -93
q-242 0 -242 189q0 218 162 286q-63 45 -64 134q0 139 76 215t215 75q217 0 217 -174z" />
    <glyph glyph-name="ninesuperior" unicode="&#x2079;" horiz-adv-x="708" 
d="M539 1593q-89 0 -143 -63t-54 -170q0 -123 129 -123q88 0 141 63t54 168q0 125 -127 125zM236 1335q0 342 307 342q229 0 229 -184q0 -150 -92 -281l-307 -421h-123l276 380q-55 -14 -94 -14q-92 0 -144 47t-52 131z" />
    <glyph glyph-name="zeroinferior" unicode="&#x2080;" horiz-adv-x="714" 
d="M358 598q-145 0 -184 -238l-45 -254q-10 -66 -10 -116t35 -85q34 -36 104 -36q146 0 184 237l45 254q11 66 11 116t-35 86t-105 36zM373 682q231 0 231 -211q0 -49 -12 -115l-47 -264q-29 -160 -101 -234t-200 -73q-231 0 -232 209q1 51 13 117l47 264q26 159 100 233
t201 74z" />
    <glyph glyph-name="oneinferior" unicode="&#x2081;" horiz-adv-x="454" 
d="M72 -205l135 770l-166 -63l-23 80l238 90h76l-156 -877h-104z" />
    <glyph glyph-name="twoinferior" unicode="&#x2082;" horiz-adv-x="690" 
d="M479 482q0 118 -128 118t-187 -135l-96 16q39 109 109 158q71 49 183 49t169 -49q59 -49 59 -143t-47 -173t-185 -212l-229 -226h348l-14 -90h-498l12 72l314 313q190 184 190 302z" />
    <glyph glyph-name="threeinferior" unicode="&#x2083;" horiz-adv-x="690" 
d="M248 299q96 0 156 50q60 51 60 117t-35 98q-36 32 -97 32q-119 0 -170 -104l-92 16q57 176 279 176t222 -184q0 -88 -36 -144q-37 -55 -121 -96q108 -57 108 -176t-76 -209t-260 -90t-227 104q-10 18 -12 74l102 21q8 -111 152 -111q94 0 155 57t62 146q0 141 -180 141
h-80l14 82h76z" />
    <glyph glyph-name="fourinferior" unicode="&#x2084;" horiz-adv-x="708" 
d="M324 -205l30 174h-383l11 68l415 635h113l-401 -615h260l34 199h97l-35 -199h96l-16 -90h-94l-31 -172h-96z" />
    <glyph glyph-name="fiveinferior" unicode="&#x2085;" horiz-adv-x="696" 
d="M332 338q86 0 144 -51t59 -142q1 -172 -87 -266t-245 -94q-106 0 -168 45q-61 45 -62 123v10l103 21q2 -51 40 -82t99 -31q94 0 152 69q57 69 57 181q0 135 -129 135q-84 0 -164 -57l-74 14l127 459h422l-14 -90h-334l-80 -277q68 33 154 33z" />
    <glyph glyph-name="sixinferior" unicode="&#x2086;" horiz-adv-x="708" 
d="M315 260q-92 0 -147 -72t-55 -190q0 -129 129 -129q90 0 145 72t55 190q0 129 -127 129zM348 340q92 0 146 -50t53 -138q0 -162 -73 -264t-238 -103q-226 0 -226 206q0 107 35 179t82 133l279 369h122l-264 -346q45 14 84 14z" />
    <glyph glyph-name="seveninferior" unicode="&#x2087;" horiz-adv-x="503" 
d="M-53 -205l415 787h-366l14 90h484l-13 -66l-413 -811h-121z" />
    <glyph glyph-name="eightinferior" unicode="&#x2088;" horiz-adv-x="708" 
d="M303 213q-96 0 -152 -59t-57 -162q0 -123 146 -123q96 0 151 60t55 163q0 121 -143 121zM373 604q-86 0 -136 -54t-51 -147q0 -113 129 -112q84 0 135 54q50 54 50 147q0 112 -127 112zM88 393q0 139 76 215t215 76q219 0 219 -173t-129 -251q84 -47 84 -149
q0 -141 -72 -233t-248 -93q-242 0 -241 186q0 219 162 289q-66 47 -66 133z" />
    <glyph glyph-name="nineinferior" unicode="&#x2089;" horiz-adv-x="708" 
d="M362 598q-90 0 -143 -63t-53 -170q0 -123 129 -123q88 0 141 63t53 170q0 123 -127 123zM367 682q229 0 229 -184q0 -154 -92 -281l-307 -422h-123l276 381q-55 -14 -94 -14q-92 0 -144 47t-53 131q0 342 308 342z" />
    <glyph glyph-name="franc" unicode="&#x20a3;" horiz-adv-x="1492" 
d="M1329 815q-127 0 -202 -102t-115 -332l-68 -381h-121l160 899h96l-14 -156q109 174 295 175q90 0 170 -46l-68 -102q-68 45 -133 45zM104 0l258 1462h658l-21 -108h-532l-100 -572h430l-19 -108h-430l-119 -674h-125z" />
    <glyph glyph-name="lira" unicode="&#x20a4;" 
d="M266 1012q0 180 120 324t345 145q225 0 320 -148q47 -72 57 -233l-113 -29q-2 9 -5 59q-6 105 -62 166q-68 78 -203 78t-231 -99t-97 -245q0 -66 41 -180h400l-15 -84h-356q23 -84 29 -152h301l-15 -84h-295q-2 -114 -63 -226t-164 -195h690l-18 -109h-889l16 94
q125 51 214 179t92 257h-240l14 84h223q-8 63 -40 152h-156l14 84h115q-29 92 -29 162z" />
    <glyph glyph-name="peseta" unicode="&#x20a7;" 
d="M420 981l-53 -299h202q301 -6 381 299h-530zM967 1116q0 125 -68 183t-211 59h-203l-51 -293h531q2 25 2 51zM684 1462q240 0 332 -104q78 -88 78 -234q0 -10 -4 -59h141l-14 -84h-140q-94 -412 -512 -403h-215l-102 -578h-125l174 981h-188l14 84h188l70 397h303z" />
    <glyph glyph-name="uni20AB" unicode="&#x20ab;" 
d="M422 86q274 0 336 348l24 150q12 68 13 114q0 236 -244 236q-135 0 -215 -86t-113 -266l-24 -146q-10 -51 -11 -121q0 -229 234 -229zM63 291q0 70 15 160l28 155q42 222 144 326t276 104t260 -75q23 -18 52 -68l51 285h-316l15 92h317l33 192h123l-35 -192h172l-16 -92
h-172l-207 -1178h-98l12 127l-10 -10q-63 -76 -133 -106t-173 -29q-338 0 -338 309zM-45 -350l16 94h877l-17 -94h-876z" />
    <glyph glyph-name="Euro" unicode="&#x20ac;" 
d="M770 1370q-164 0 -258 -115t-139 -374l-6 -35h587l-47 -84h-555l-30 -168h485l-49 -84h-449q-12 -74 -12 -133q0 -289 268 -289q125 0 214 62t126 174l117 -15q-37 -157 -159 -243t-306 -86t-287 98q-102 98 -102 280q0 31 14 152h-188l49 84h154l28 168h-186l47 84h154
l10 53q27 166 63 259q37 93 101 167q135 154 358 154q172 0 274 -79t103 -212l-4 -60l-121 -10v29q-2 103 -70 163t-184 60z" />
    <glyph glyph-name="uni20B4" unicode="&#x20b4;" 
d="M952 1161q0 103 -62 159t-179 56q-180 0 -271 -119l-88 56q123 166 363 166q170 0 263 -84t93 -236q0 -201 -160 -330l160 -45l-35 -79l-219 61q-80 -39 -321 -109l462 -129l-36 -79l-545 151q-160 -96 -160 -285q0 -111 73 -169t210 -58q236 0 352 148l88 -60
q-145 -193 -444 -192q-190 0 -294 86t-104 260t148 309l-158 43l37 82l207 -57q35 17 135 47t180 59l-444 125l35 82l536 -152q178 106 178 293z" />
    <glyph glyph-name="uni2101" unicode="&#x2101;" horiz-adv-x="1755" 
d="M524 0l715 1462h111l-715 -1462h-111zM1296 78q109 0 178 51t68 131q0 54 -33 78t-53 32t-128 34t-162 77t-54 147t81 178q81 81 241 81q201 0 264 -113l-94 -51q-45 76 -174 76q-90 0 -150 -48q-60 -49 -59 -113q0 -64 43 -96q42 -32 160 -61t172 -71t55 -131
q-1 -135 -97 -212t-264 -77q-233 0 -299 133l96 53q43 -98 209 -98zM635 856l-98 475l-265 -475h363zM649 774h-420l-106 -188h-117l508 876h88l199 -876h-113z" />
    <glyph glyph-name="afii61248" unicode="&#x2105;" horiz-adv-x="1857" 
d="M535 0l716 1462h109l-715 -1462h-110zM1675 539q0 195 -207 194q-252 0 -303 -295l-12 -65q-12 -70 -12 -105q0 -90 54 -139t155 -49q252 0 303 293l10 65q12 57 12 101zM1053 383l12 72q66 369 405 368q307 0 308 -272q0 -49 -13 -123l-12 -72q-63 -367 -407 -366
q-307 0 -308 268q1 53 15 125zM455 639q-143 0 -219 72t-76 209q0 61 12 122l4 31q37 205 134 303q98 98 280 98t248 -139l-90 -41q-50 90 -174 90t-196 -78t-102 -247l-6 -33q-8 -47 -8 -96q0 -201 203 -201q135 0 215 84l78 -57q-111 -117 -303 -117z" />
    <glyph glyph-name="afii61289" unicode="&#x2113;" 
d="M831 1315q0 41 -17 67t-44 27q-68 -1 -118 -147t-120 -545q139 158 199 268q100 184 100 330zM222 334q-10 0 -19 12q-8 12 -8 32t45 56q90 82 157 158q94 543 169 725t202 182q66 0 106 -49t39 -139q0 -90 -46 -214t-124 -239t-229 -266q-63 -373 -63 -451t57 -78
q38 0 64 25t67 105q25 45 51 45t25 -29q0 -68 -73 -153t-161 -85q-135 0 -135 164q0 115 35 342q-51 -57 -100 -100t-59 -43z" />
    <glyph glyph-name="afii61352" unicode="&#x2116;" horiz-adv-x="2342" 
d="M1415 0l19 104h704l-18 -104h-705zM2142 862q0 193 -190 193q-231 0 -283 -295l-10 -62q-10 -57 -10 -102q0 -193 190 -193q232 0 283 295l12 62q8 57 8 102zM1954 1159q311 0 311 -276q0 -66 -14 -135l-13 -72q-66 -377 -401 -377q-311 0 -311 279q0 53 14 133l12 69
q36 195 134 287t268 92zM137 0l258 1462h121l563 -1243l219 1243h125l-258 -1462h-121l-563 1243l-219 -1243h-125z" />
    <glyph glyph-name="trademark" unicode="&#x2122;" horiz-adv-x="1777" 
d="M834 586l153 876h100l195 -573l397 573h103l-154 -876h-102l119 674l-351 -504h-67l-172 504l-119 -674h-102zM322 586l139 786h-273l15 90h649l-14 -90h-273l-139 -786h-104z" />
    <glyph glyph-name="uni2126" unicode="&#x2126;" horiz-adv-x="1388" 
d="M207 510q0 80 20 192l41 230q27 154 67 242t114 159q154 147 378 147q225 0 341 -102t116 -291q0 -74 -18 -192l-41 -229q-27 -197 -129 -331t-258 -181l-11 -60h322l-16 -94h-424l41 229q143 31 234 151t118 312l37 207q16 78 16 174q0 141 -84 220t-235 79
q-197 0 -320 -143q-88 -111 -129 -330l-35 -207q-20 -111 -20 -174q0 -236 211 -289l-41 -229h-424l16 94h322l12 70q-66 25 -104 59q-117 111 -117 287z" />
    <glyph glyph-name="estimated" unicode="&#x212e;" horiz-adv-x="1228" 
d="M963 750v262q-84 283 -342 282q-121 0 -195 -62t-137 -216v-266h674zM1110 670h-821v-299q37 -119 76 -176q82 -121 258 -121q258 0 356 264h90q-43 -139 -96 -203q-129 -153 -357 -153t-362 183q-133 183 -133 510t136 519t368 192q155 0 269 -87t165 -235t51 -394z" />
    <glyph glyph-name="onethird" unicode="&#x2153;" horiz-adv-x="1728" 
d="M420 0l715 1462h118l-716 -1462h-117zM1257 504q96 0 157 50q60 50 60 116q1 131 -133 131q-117 0 -170 -105l-92 17q59 176 275 176q111 0 169 -47t58 -135q0 -89 -37 -145t-119 -97q107 -57 107 -176t-78 -209t-261 -90t-224 104q-10 18 -13 74l103 20
q10 -111 151 -110q96 0 157 57q60 57 60 146q0 141 -180 141h-80l15 82h75zM328 586l135 770l-166 -64l-23 80l238 90h74l-154 -876h-104z" />
    <glyph glyph-name="twothirds" unicode="&#x2154;" horiz-adv-x="1728" 
d="M485 0l717 1462h117l-715 -1462h-119zM1311 504q96 0 156 50q61 50 61 116t-36 99q-36 32 -95 32q-119 0 -172 -105l-92 17q61 176 274 176q111 0 169 -47t58 -136q0 -88 -36 -144t-119 -97q106 -59 106 -177q1 -118 -75 -208t-260 -90t-228 104q-10 27 -12 74l104 20
q6 -111 150 -110q96 0 156 57t60 135q1 152 -177 152h-82l14 82h76zM639 1274q0 117 -128 117t-187 -136l-97 17q39 109 110 158t183 49t169 -49q59 -50 59 -144t-46 -172t-186 -213l-229 -225h348l-14 -90h-498l12 71l316 314q102 102 145 171t43 132z" />
    <glyph glyph-name="uni2155" unicode="&#x2155;" horiz-adv-x="1728" 
d="M383 0l715 1462h119l-715 -1462h-119zM1300 543q86 0 144 -51t57 -142q0 -172 -87 -266t-245 -94q-225 0 -229 178l102 20q4 -53 40 -83t100 -29q94 0 151 70t58 182q0 133 -129 133q-86 0 -164 -58l-76 15l129 459h422l-14 -91h-334l-80 -276q69 33 155 33zM313 586
l136 770l-166 -64l-23 80l238 90h73l-153 -876h-105z" />
    <glyph glyph-name="uni2156" unicode="&#x2156;" horiz-adv-x="1728" 
d="M485 0l715 1462h119l-717 -1462h-117zM1374 543q86 0 144 -51t57 -142q0 -172 -87 -266t-245 -94q-227 0 -229 178l102 20q2 -53 39 -83t100 -29q94 0 152 69q57 70 57 183q0 133 -129 133q-84 0 -164 -58l-73 15l127 459h422l-15 -91h-334l-79 -276q69 33 155 33z
M516 1479q228 -1 227 -193q0 -94 -46 -172t-185 -213l-229 -225h348l-15 -90h-497l12 71l315 314q102 102 146 171q43 69 43 132q0 117 -128 117t-188 -136l-96 17q39 109 110 158t183 49z" />
    <glyph glyph-name="uni2157" unicode="&#x2157;" horiz-adv-x="1728" 
d="M469 0l715 1462h119l-715 -1462h-119zM1356 543q86 0 144 -51t59 -142q1 -172 -87 -266t-245 -94q-106 0 -168 45q-61 45 -62 123v10l103 20q2 -51 40 -82t99 -30q94 0 152 69q57 70 57 183q0 133 -129 133q-82 0 -164 -58l-74 15l127 459h422l-14 -91h-334l-80 -276
q68 33 154 33zM410 1090q96 0 156 50t60 116t-35 99q-36 32 -97 31q-119 0 -170 -104l-93 16q57 176 279 176t223 -184q0 -88 -37 -143t-121 -96q109 -57 109 -177t-70 -200q-82 -98 -266 -98t-227 104q-10 18 -12 74l102 20q10 -111 151 -110q94 0 156 57q61 57 62 145
q0 141 -181 142h-80l15 82h76z" />
    <glyph glyph-name="uni2158" unicode="&#x2158;" horiz-adv-x="1728" 
d="M469 0l715 1462h119l-715 -1462h-119zM1346 543q84 0 142 -51t58 -142q0 -172 -87 -266t-245 -94q-108 0 -168 45t-61 125v8l102 20q2 -51 40 -82t100 -30q94 0 151 70t58 182q0 133 -129 133q-82 0 -164 -58l-74 15l127 459h422l-14 -91h-334l-80 -276q72 33 156 33z
M463 586l31 176h-383l12 67l414 633h114l-403 -612h260l37 197h96l-37 -197h96l-16 -90h-94l-31 -174h-96z" />
    <glyph glyph-name="uni2159" unicode="&#x2159;" horiz-adv-x="1728" 
d="M418 0l715 1462h118l-714 -1462h-119zM1262 463q-92 0 -148 -72t-55 -190q0 -127 129 -127q90 0 145 72t56 188q0 129 -127 129zM1493 354q0 -162 -73 -263t-238 -101q-226 0 -226 206q0 106 45 199q16 37 72 113l281 369h121l-263 -347q49 12 82 13q92 0 146 -50
t53 -139zM340 586l135 770l-166 -64l-22 80l237 90h74l-154 -876h-104z" />
    <glyph glyph-name="uni215A" unicode="&#x215a;" horiz-adv-x="1728" 
d="M512 0l717 1462h117l-715 -1462h-119zM1327 463q-92 0 -147 -72q-56 -73 -56 -195t129 -122q90 0 146 71q55 72 55 189q0 129 -127 129zM1247 -10q-225 0 -225 206q0 106 36 178t81 134l280 369h123l-264 -347q49 12 84 13q90 0 143 -50t54 -139q0 -160 -73 -262
t-239 -102zM600 913q0 133 -129 134q-84 0 -164 -58l-74 15l127 458h422l-14 -90h-334l-80 -276q68 32 155 32t144 -51t58 -141q0 -172 -87 -266t-245 -95q-111 1 -170 47t-59 132l102 20q2 -53 40 -83t99 -29q94 0 152 69q57 70 57 182z" />
    <glyph glyph-name="oneeighth" unicode="&#x215b;" horiz-adv-x="1728" 
d="M371 0l714 1462h119l-715 -1462h-118zM1245 418q-98 0 -154 -60t-57 -163q0 -121 146 -121q96 0 152 59t57 162q-1 123 -144 123zM1315 809q-86 0 -136 -54t-51 -147q0 -113 127 -112q84 0 135 54q50 54 50 146q0 113 -125 113zM1321 889q217 0 217 -172t-127 -252
q84 -49 84 -152q0 -139 -74 -231t-245 -92q-244 0 -244 188q0 217 162 287q-63 49 -64 133q0 139 76 215t215 76zM340 586l135 770l-166 -64l-22 80l237 90h74l-154 -876h-104z" />
    <glyph glyph-name="threeeighths" unicode="&#x215c;" horiz-adv-x="1728" 
d="M457 0l714 1462h119l-715 -1462h-118zM1292 418q-96 0 -152 -60t-57 -161q0 -123 146 -123q94 0 150 59t57 162q-1 123 -144 123zM1362 809q-86 0 -136 -54t-50 -149q0 -111 127 -110q86 0 136 54t50 148q0 111 -127 111zM1368 889q219 0 219 -174t-129 -250
q84 -47 84 -152q0 -137 -72 -230t-247 -93q-242 0 -242 188q0 217 160 287q-63 49 -64 133q0 139 76 215t215 76zM412 1090q96 0 156 50t60 116t-35 99q-36 32 -97 31q-119 0 -170 -104l-93 16q57 176 279 176t223 -184q0 -88 -37 -143t-120 -96q108 -57 108 -177t-70 -200
q-84 -98 -267 -98t-226 104q-10 18 -12 74l102 20q8 -111 152 -110q94 0 155 57t62 145q0 141 -181 142h-79l14 82h76z" />
    <glyph glyph-name="fiveeighths" unicode="&#x215d;" horiz-adv-x="1728" 
d="M455 0l716 1462h117l-715 -1462h-118zM1292 418q-96 0 -152 -60t-57 -161q0 -123 146 -123q94 0 150 59t57 162q-1 123 -144 123zM1362 809q-86 0 -136 -54t-50 -149q0 -111 129 -110q84 0 134 54t50 146q0 113 -127 113zM1368 889q219 0 219 -172t-129 -252
q84 -49 84 -152q0 -139 -72 -231t-247 -92q-242 0 -242 188q0 219 160 287q-63 49 -64 133q0 139 76 215t215 76zM692 936q0 -172 -87 -266t-245 -95q-111 1 -170 47t-59 132l102 20q2 -53 40 -83t100 -29q94 0 151 70t58 181q0 133 -129 134q-84 0 -164 -58l-74 15l127 458
h422l-14 -90h-334l-80 -276q68 32 154 32t144 -51t58 -141z" />
    <glyph glyph-name="seveneighths" unicode="&#x215e;" horiz-adv-x="1728" 
d="M389 0l715 1462h119l-715 -1462h-119zM1276 418q-96 0 -152 -60t-57 -161q0 -123 145 -123q94 0 151 59q56 59 56 162q0 123 -143 123zM1346 809q-86 0 -136 -54t-51 -149q0 -111 129 -110q84 0 134 54t51 148q0 111 -127 111zM1061 598q0 139 76 215t215 76
q219 0 219 -172t-129 -252q84 -47 84 -152q0 -139 -73 -231t-247 -92q-242 0 -241 188q-1 217 159 287q-63 49 -63 133zM203 586l446 786h-381l15 90h497l-10 -65l-446 -811h-121z" />
    <glyph glyph-name="arrowleft" unicode="&#x2190;" horiz-adv-x="1638" 
d="M1499 696h-1218l395 -395l-78 -78l-496 504v47l496 504l78 -78l-395 -395h1218v-109z" />
    <glyph glyph-name="arrowup" unicode="&#x2191;" horiz-adv-x="1638" 
d="M719 0v1300l-393 -395l-78 78l504 498h47l504 -498l-78 -78l-394 395v-1300h-112z" />
    <glyph glyph-name="arrowright" unicode="&#x2192;" horiz-adv-x="1638" 
d="M139 696v109h1219l-395 395l77 78l496 -504v-47l-496 -504l-77 78l395 395h-1219z" />
    <glyph glyph-name="arrowdown" unicode="&#x2193;" horiz-adv-x="1638" 
d="M719 1462h112v-1300l394 395l78 -78l-504 -497h-47l-504 497l78 78l393 -395v1300z" />
    <glyph glyph-name="arrowboth" unicode="&#x2194;" horiz-adv-x="1638" 
d="M1374 696h-1112l377 -377l-78 -75l-477 483v47l477 483l78 -75l-377 -377h1112l-375 377l76 75l477 -483v-47l-477 -483l-76 75z" />
    <glyph glyph-name="arrowupdn" unicode="&#x2195;" horiz-adv-x="1638" 
d="M721 143v1176l-377 -375l-76 76l484 477h47l483 -477l-78 -76l-375 375v-1176l375 375l78 -76l-483 -477h-47l-484 477l76 76z" />
    <glyph glyph-name="uni2196" unicode="&#x2196;" horiz-adv-x="1638" 
d="M412 530h-109v707l39 39h707v-109h-560l875 -874l-78 -78l-874 875v-560z" />
    <glyph glyph-name="uni2197" unicode="&#x2197;" horiz-adv-x="1638" 
d="M590 1167v109h706l39 -39v-707h-108v560l-875 -875l-78 78l875 874h-559z" />
    <glyph glyph-name="uni2198" unicode="&#x2198;" horiz-adv-x="1638" 
d="M1227 973h108v-707l-39 -39h-706v109h559l-873 874l74 78l877 -874v559z" />
    <glyph glyph-name="uni2199" unicode="&#x2199;" horiz-adv-x="1638" 
d="M1049 336v-109h-707l-39 39v707h109v-559l874 874l76 -78l-873 -874h560z" />
    <glyph glyph-name="partialdiff" unicode="&#x2202;" 
d="M866 692q0 233 -241 234q-289 0 -351 -353l-24 -139q-10 -55 -10 -115q0 -236 239 -235q289 0 352 350l25 139q10 61 10 119zM614 1026q154 0 236 -74l-35 123q-23 115 -124 202t-236 109l30 82q244 -33 365 -198q139 -193 139 -522q0 -104 -14 -185l-27 -149
q-41 -219 -156 -326q-116 -106 -317 -106q-358 0 -358 317q0 71 14 145l27 150q76 432 456 432z" />
    <glyph glyph-name="emptyset" unicode="&#x2205;" 
d="M915 762q0 172 -139 299l-373 -662q80 -25 146 -24q160 -1 263 107t103 280zM528 1137q-152 0 -255 -109t-103 -270q0 -199 158 -322l374 666q-104 35 -174 35zM549 289q-86 0 -184 33l-220 -390l-75 35l217 389q-209 139 -209 400q0 205 127 331q61 63 147 99t176 37
q90 0 215 -43l199 352l76 -33l-201 -358q190 -139 191 -385q0 -205 -129 -336t-330 -131z" />
    <glyph glyph-name="Delta" unicode="&#x2206;" 
d="M911 106l-215 1174l-628 -1174h843zM1063 0h-1192l801 1462h106z" />
    <glyph glyph-name="product" unicode="&#x220f;" horiz-adv-x="1159" 
d="M-27 -424l332 1886h885l-334 -1886h-125l313 1776h-632l-314 -1776h-125z" />
    <glyph glyph-name="summation" unicode="&#x2211;" horiz-adv-x="1132" 
d="M-35 -424l12 74l605 934l-279 800l14 78h922l-20 -108h-760l268 -772l-571 -897h790l-18 -109h-963z" />
    <glyph glyph-name="minus" unicode="&#x2212;" 
d="M98 696l19 105h975l-19 -105h-975z" />
    <glyph glyph-name="uni2215" unicode="&#x2215;" horiz-adv-x="313" 
d="M-213 0l715 1462h119l-715 -1462h-119z" />
    <glyph glyph-name="uni2218" unicode="&#x2218;" 
d="M553 1004q-113 0 -187 -72t-75 -182q0 -110 75 -182q76 -72 188 -72t186 72t75 182q-1 110 -75 182t-187 72zM554 1079q144 0 242 -95t99 -235q0 -139 -97 -235t-245 -96t-245 94t-97 236t99 237q100 94 244 94z" />
    <glyph glyph-name="uni2219" unicode="&#x2219;" horiz-adv-x="565" 
d="M248 662l31 178h127l-31 -178h-127z" />
    <glyph glyph-name="radical" unicode="&#x221a;" 
d="M346 0l-104 627h-166l18 106h254l82 -571l713 1599h493l-16 -94h-393l-750 -1667h-131z" />
    <glyph glyph-name="infinity" unicode="&#x221e;" horiz-adv-x="1484" 
d="M1070 954q-82 0 -150 -50t-113 -132l-10 -20l12 -21q99 -182 261 -182q80 0 138 56q58 57 58 147t-58 146t-138 56zM416 954q-80 0 -137 -56t-57 -146t56 -146q58 -56 148 -57q145 0 252 182l12 21l-12 20q-47 84 -115 133q-67 49 -147 49zM412 455q-133 0 -214 81
t-81 216t81 216t220 81t237 -95q27 -25 88 -118q66 102 103 133q92 80 226 80t216 -81t82 -216t-82 -216t-222 -81t-235 94q-29 27 -88 119q-59 -96 -102 -133q-96 -80 -229 -80z" />
    <glyph glyph-name="integral" unicode="&#x222b;" horiz-adv-x="878" 
d="M301 -104q96 0 127 71q16 39 16 168l2 1120q0 176 39 256q55 109 215 109q49 0 113 -16l-22 -101q-49 12 -76 13q-96 0 -127 -74q-16 -47 -17 -160v-1126q0 -180 -41 -256q-55 -109 -213 -109q-48 0 -114 14l22 103q45 -12 76 -12z" />
    <glyph glyph-name="similar" unicode="&#x223c;" 
d="M392 889q78 1 122 -19q46 -20 112 -71t99 -67t72 -17q106 0 194 151l80 -24q-107 -226 -271 -228q-78 0 -118 18t-106 70q-66 54 -100 70t-75 16q-114 1 -200 -157l-82 20q63 131 129 185t144 53z" />
    <glyph glyph-name="uni2243" unicode="&#x2243;" 
d="M824 774q-76 0 -118 18t-108 71t-100 69q-33 16 -74 16q-113 1 -199 -155l-84 18q68 133 131 185t141 52q77 0 125 -18q48 -20 112 -72t98 -68t80 -16q94 -1 186 152l80 -22q-61 -126 -127 -178q-67 -52 -143 -52zM92 543l19 102h923l-18 -102h-924z" />
    <glyph glyph-name="approxequal" unicode="&#x2248;" 
d="M1102 1004q-114 -230 -272 -230q-76 0 -117 18t-107 70q-66 54 -100 70q-33 16 -76 16q-113 1 -199 -155l-81 18q63 131 129 184t142 53q75 0 123 -18q48 -20 113 -72t99 -67q34 -17 80 -17q48 0 92 34q43 34 92 118zM1044 682q-110 -229 -270 -229q-76 0 -118 17
t-111 75q-66 51 -98 66t-72 16q-113 0 -201 -158l-82 20q63 131 129 185q67 54 143 53q76 0 123 -19q47 -20 114 -72t99 -68t70 -15q106 0 195 152z" />
    <glyph glyph-name="notequal" unicode="&#x2260;" 
d="M98 543l19 102h356l133 209h-452l16 102h500l153 242l88 -41l-127 -201h310l-17 -102h-356l-135 -209h454l-18 -102h-500l-153 -242l-88 41l129 201h-312z" />
    <glyph glyph-name="lessequal" unicode="&#x2264;" 
d="M4 0l19 104h847l-18 -104h-848zM285 762l639 -346l-19 -117l-772 428l12 78l924 428l-22 -127z" />
    <glyph glyph-name="greaterequal" unicode="&#x2265;" 
d="M76 0l18 104h848l-18 -104h-848zM913 772l-641 346l21 115l772 -428l-14 -78l-922 -428l23 129z" />
    <glyph glyph-name="dotmath" unicode="&#x22c5;" horiz-adv-x="565" 
d="M248 662l31 178h127l-31 -178h-127z" />
    <glyph glyph-name="filledrect" unicode="&#x25ac;" 
d="M244 438v621h620v-621h-620z" />
    <glyph glyph-name="uni25B4" unicode="&#x25b4;" 
d="M180 428l375 746l373 -746h-748z" />
    <glyph glyph-name="uni25B8" unicode="&#x25b8;" 
d="M252 375v747l745 -372z" />
    <glyph glyph-name="uni25BE" unicode="&#x25be;" 
d="M180 1069h748l-373 -745z" />
    <glyph glyph-name="uni25C2" unicode="&#x25c2;" 
d="M854 375l-745 375l745 372v-747z" />
    <glyph glyph-name="lozenge" unicode="&#x25ca;" 
d="M166 709l387 -574l389 574l-387 575zM31 709l522 766l524 -766l-524 -764z" />
    <glyph glyph-name="openbullet" unicode="&#x25e6;" 
d="M553 1004q-113 0 -187 -72t-75 -182q0 -110 75 -182q76 -72 188 -72t186 72t75 182q-1 110 -75 182t-187 72zM554 1079q144 0 242 -95t99 -235q0 -139 -97 -235t-245 -96t-245 94t-97 236t99 237q100 94 244 94z" />
    <glyph glyph-name="commaaccent" unicode="&#xf6c3;" horiz-adv-x="1024" 
d="M227 -440l162 293h129l-203 -293h-88z" />
    <glyph glyph-name="Acute" unicode="&#xf6c9;" horiz-adv-x="1024" 
d="M625 1626l198 281h154l-258 -281h-94z" />
    <glyph glyph-name="Caron" unicode="&#xf6ca;" horiz-adv-x="1024" 
d="M719 1726l178 168h147l-296 -260h-74l-207 260h133z" />
    <glyph glyph-name="Dieresis" unicode="&#xf6cb;" horiz-adv-x="1024" 
d="M854 1645l33 194h114l-34 -194h-113zM459 1645l35 194h112l-33 -194h-114z" />
    <glyph glyph-name="Grave" unicode="&#xf6ce;" horiz-adv-x="1024" 
d="M801 1626h-90l-164 281h145z" />
    <glyph glyph-name="Hungarumlaut" unicode="&#xf6cf;" horiz-adv-x="1024" 
d="M778 1626l168 281h135l-213 -281h-90zM528 1626l168 281h135l-213 -281h-90z" />
    <glyph glyph-name="Macron" unicode="&#xf6d0;" horiz-adv-x="1024" 
d="M483 1714l17 90h487l-16 -90h-488z" />
    <glyph glyph-name="zerooldstyle" unicode="&#xf730;" horiz-adv-x="1034" 
d="M240 283q0 -197 223 -197q115 0 185 78t100 254l45 248q14 92 14 129q0 201 -213 200q-125 -1 -195 -77t-100 -252l-43 -248q-16 -94 -16 -135zM932 805q0 -53 -17 -152l-45 -260q-73 -411 -414 -411q-170 0 -256 76t-85 214q0 66 16 158l47 260q37 209 131 303
q113 107 280 107t255 -78t88 -217z" />
    <glyph glyph-name="oneoldstyle" unicode="&#xf731;" horiz-adv-x="669" 
d="M207 0l166 946l-262 -108l-39 96l362 149h90l-190 -1083h-127z" />
    <glyph glyph-name="twooldstyle" unicode="&#xf732;" horiz-adv-x="901" 
d="M502 1102q156 0 236 -66t81 -186q0 -120 -74 -221q-41 -55 -94 -107t-176 -149l-328 -269h574l-19 -104h-747l14 84l426 352q160 134 229 228t68 178q0 156 -198 156t-281 -183l-109 33q100 254 398 254z" />
    <glyph glyph-name="threeoldstyle" unicode="&#xf733;" horiz-adv-x="970" 
d="M387 475q139 0 235 97q95 97 95 241q0 86 -51 134t-142 48q-176 0 -254 -157l-108 36q66 121 150 174q84 52 226 52t225 -73t83 -208q0 -291 -283 -395q86 -35 125 -68q90 -78 90 -215q0 -176 -102 -309q-131 -164 -395 -164q-319 0 -361 215l121 43q27 -154 235 -154
t304 144q70 102 70 216t-77 176q-76 62 -202 63h-135l18 104h133z" />
    <glyph glyph-name="fouroldstyle" unicode="&#xf734;" horiz-adv-x="933" 
d="M492 -315l55 315h-598l14 80l639 1003h135l-633 -981h461l84 486h115l-86 -486h151l-18 -104h-152l-55 -313h-112z" />
    <glyph glyph-name="fiveoldstyle" unicode="&#xf735;" horiz-adv-x="1050" 
d="M551 549q133 0 216 -79t83 -205q0 -127 -31 -237t-80 -178q-131 -182 -393 -182q-150 0 -241 56t-109 159l121 43q23 -154 229 -154t303 171q72 129 72 286q0 215 -221 215q-137 0 -267 -94l-88 19l193 714h618l-18 -108h-514l-137 -496q131 70 264 70z" />
    <glyph glyph-name="sixoldstyle" unicode="&#xf736;" horiz-adv-x="1083" 
d="M600 795q-176 1 -259 -143t-83 -347q0 -219 213 -219q172 0 256 146t84 343q0 106 -54 163q-55 57 -157 57zM639 893q141 0 221 -82t80 -211t-31 -250q-31 -120 -82 -198t-146 -124t-210 -46q-164 0 -253 80t-89 232q0 150 43 272t145 259l439 598h143l-426 -567
q86 37 166 37z" />
    <glyph glyph-name="sevenoldstyle" unicode="&#xf737;" horiz-adv-x="796" 
d="M-37 -315l690 1290h-590l19 108h725l-12 -77l-684 -1321h-148z" />
    <glyph glyph-name="eightoldstyle" unicode="&#xf738;" horiz-adv-x="1114" 
d="M596 698q-188 0 -271 -114t-83 -289q0 -211 243 -211q185 0 267 122t82 290q0 202 -238 202zM702 1339q-158 0 -228 -105t-68 -257q0 -180 202 -180q158 0 229 108t70 256q0 86 -52 132q-53 46 -153 46zM283 1002q0 170 92 296q100 143 325 144q162 0 246 -71t84 -208
q0 -94 -29 -181q-56 -167 -206 -224q166 -70 166 -262q0 -92 -29 -190t-74 -163q-115 -162 -369 -161q-375 0 -374 309q0 113 35 214t94 161q66 61 164 92q-125 74 -125 244z" />
    <glyph glyph-name="nineoldstyle" unicode="&#xf739;" horiz-adv-x="1085" 
d="M623 995q-177 0 -261 -145t-83 -342q0 -217 213 -217q172 0 253 139q39 62 63 160q61 252 -31 349q-54 56 -154 56zM453 190q-143 0 -224 82q-79 82 -79 212t32 250t81 197t145 123t210 46q164 0 253 -81t90 -231q0 -283 -189 -532l-432 -571h-141l417 540
q-80 -35 -163 -35z" />
    <glyph glyph-name="Dbreve" horiz-adv-x="1392" 
d="M674 1837q0 -119 149 -119q88 0 131 36t70 130h90q-27 -145 -92 -205q-66 -59 -203 -59q-238 0 -237 188q0 29 8 76h88q-4 -29 -4 -47zM1159 1065q0 145 -106 233q-76 57 -242 58h-307l-221 -1250h307q416 -10 493 461l58 330q18 100 18 168zM829 1462q215 0 322 -82
q137 -109 137 -299q0 -68 -20 -190l-64 -356q-39 -262 -191 -400q-153 -137 -405 -135h-471l258 1462h434z" />
    <glyph glyph-name="ahungarumlaut" horiz-adv-x="1067" 
d="M725 1194l168 281h135l-213 -281h-90zM475 1194l168 281h135l-213 -281h-90zM502 489q-182 -1 -252 -71t-70 -201q0 -75 53 -105t209 -30t226 76q35 39 57 147l33 184h-256zM590 934q-162 0 -279 -105l-73 66q141 141 362 141q156 0 240 -63t84 -185q0 -39 -19 -147
l-112 -641h-101l-2 59q-53 -45 -118 -61t-210 -16t-225 51t-80 166q0 184 92 285t343 102h282l14 88q12 66 13 94q0 166 -211 166z" />
    <glyph glyph-name="uni0204.sc" horiz-adv-x="966" 
d="M582 1245h-90l-115 281h135zM831 1245h-90l-114 281h135zM88 0l191 1083h665l-18 -104h-543l-66 -379h463l-18 -104h-463l-70 -392h543l-18 -104h-666z" />
    <glyph glyph-name="uni0206.sc" horiz-adv-x="964" 
d="M840 1305q0 119 -150 118q-88 1 -131 -35t-70 -131h-90q27 145 93 205t202 60q238 0 238 -189q0 -27 -8 -76h-88q4 29 4 48zM115 0l190 1083h666l-19 -104h-542l-66 -379h463l-19 -104h-462l-70 -392h543l-19 -104h-665z" />
    <glyph glyph-name="uni0208.sc" horiz-adv-x="530" 
d="M328 1245h-90l-115 281h135zM578 1245h-91l-114 281h135zM115 0l190 1083h125l-192 -1083h-123z" />
    <glyph glyph-name="uni020A.sc" horiz-adv-x="530" 
d="M575 1305q0 119 -149 118q-88 1 -131 -35t-70 -131h-90q27 145 92 205q66 59 203 60q238 0 238 -189q-1 -27 -9 -76h-88q4 29 4 48zM115 0l190 1083h125l-192 -1083h-123z" />
    <glyph glyph-name="uni020C.sc" horiz-adv-x="1136" 
d="M621 1245h-91l-114 281h135zM870 1245h-90l-114 281h135zM872 778q0 102 -62 160t-187 57q-254 0 -318 -348l-37 -211q-12 -82 -12 -131q0 -103 62 -161t176 -58q147 0 235 107q65 81 94 243l37 211q12 66 12 131zM628 1100q181 0 276 -80t95 -223q0 -70 -16 -158
l-41 -233q-24 -119 -54 -188t-87 -124q-115 -112 -299 -112t-279 80q-94 80 -94 223q0 65 16 157l41 234q20 120 52 188t90 123q119 113 300 113z" />
    <glyph glyph-name="uni020E.sc" horiz-adv-x="1136" 
d="M874 1305q0 119 -149 118q-88 1 -131 -35t-70 -131h-90q27 145 92 205q66 59 203 60q238 0 238 -189q-1 -27 -9 -76h-88q4 29 4 48zM633 995q-254 0 -318 -348l-36 -211q-12 -82 -13 -131q0 -103 62 -161t176 -58q147 0 235 107q66 81 95 243l36 211q12 65 12 149
t-62 142t-187 57zM638 1100q181 0 276 -80t96 -223q0 -70 -17 -158l-41 -233q-24 -119 -54 -188t-87 -124q-115 -112 -299 -112t-279 79q-94 80 -94 224q1 65 17 157l41 234q20 120 51 188t90 123q119 113 300 113z" />
    <glyph glyph-name="uni0210.sc" horiz-adv-x="1093" 
d="M563 1245h-90l-115 281h136zM813 1245h-90l-115 281h135zM582 567q138 0 204 73t66 170t-51 134t-162 37h-252l-72 -414h267zM653 1083q328 0 328 -243q1 -177 -117 -285q-58 -53 -182 -70l170 -485h-139l-156 471h-258l-84 -471h-123l191 1083h370z" />
    <glyph glyph-name="uni0212.sc" horiz-adv-x="1093" 
d="M926 1333q0 -27 -8 -76h-89q4 29 5 48q0 119 -150 118q-88 1 -131 -35t-70 -131h-90q27 145 92 205q66 59 203 60q238 0 238 -189zM604 567q139 0 205 73q65 73 65 170t-51 134t-161 37h-252l-72 -414h266zM676 1083q328 0 328 -243q0 -177 -118 -285q-58 -53 -181 -70
l169 -485h-139l-155 471h-258l-84 -471h-123l190 1083h371z" />
    </font>
</defs>
</svg>
