<?xml version="1.0" standalone="no"?>
<!DOCTYPE svg PUBLIC "-//W3C//DTD SVG 1.1//EN" "http://www.w3.org/Graphics/SVG/1.1/DTD/svg11.dtd" >
<svg xmlns="http://www.w3.org/2000/svg">
<metadata>
Created by FontPrep 20130207 at Fri May 26 16:08:44 2017
 By Lizzy Knight
Copyright 2016 by URW++ Design &#38; Development GmbH
</metadata>
<defs>
<font id="cce5d5dbf64b9c9fdf6b040b5d54d177" horiz-adv-x='1024' >
  <font-face 
    font-family="URWDIN-DemiItalic"
    font-weight="600"
    font-style="italic"
    font-stretch="normal"
    units-per-em="2048"
    panose-1="0 0 7 0 0 0 0 0 0 0"
    ascent="1462"
    descent="-586"
    x-height="1051"
    cap-height="1462"
    bbox="-381 -500 2656.01 2120"
    underline-thickness="176"
    underline-position="-110"
    slope="-10"
    unicode-range="U+0020-FB04"
  />
<missing-glyph horiz-adv-x="409" 
 />
    <glyph glyph-name="ff" unicode="ff" horiz-adv-x="1347" 
d="M891 850h-121l35 201h121l24 135q27 164 103 222t264 54h145l-30 -186h-66q-92 2 -123 -22t-45 -107l-16 -96h221l-37 -201h-221l-150 -850h-254zM252 850h-121l35 201h121l24 135q27 164 103 222t264 54h133l-33 -186h-51q-92 2 -123 -22t-45 -107l-16 -96h164l-35 -201
h-166l-150 -850h-254z" />
    <glyph glyph-name="fi" unicode="fi" horiz-adv-x="1267" 
d="M766 0l184 1051h256l-186 -1051h-254zM981 1212l45 263h254l-45 -263h-254zM252 850h-121l35 201h121l24 135q27 164 103 222t264 54h145l-30 -186h-66q-92 2 -123 -22t-45 -107l-16 -96h221l-37 -201h-221l-150 -850h-254z" />
    <glyph glyph-name="fl" unicode="fl" horiz-adv-x="1337" 
d="M1192 0q-207 0 -289 54t-82 194q0 74 25 221l174 993h256l-184 -1042q-12 -74 -13 -94q0 -68 35 -94t125 -25h33l-35 -207h-45zM252 850h-121l35 201h121l24 135q27 164 103 222t264 54h145l-30 -186h-66q-92 2 -123 -22t-45 -107l-16 -96h221l-37 -201h-221l-150 -850
h-254z" />
    <glyph glyph-name="ffi" unicode="ffi" horiz-adv-x="1906" 
d="M891 850h-121l35 201h121l24 135q27 164 103 222t264 54h145l-30 -186h-66q-92 2 -123 -22t-45 -107l-16 -96h221l-37 -201h-221l-150 -850h-254zM1407 0l184 1051h254l-184 -1051h-254zM1620 1212l47 263h254l-47 -263h-254zM252 850h-121l35 201h121l24 135
q27 164 103 222t264 54h133l-33 -186h-51q-92 2 -123 -22t-45 -107l-16 -96h164l-35 -201h-166l-150 -850h-254z" />
    <glyph glyph-name="ffl" unicode="ffl" horiz-adv-x="1976" 
d="M891 850h-121l35 201h121l24 135q27 164 103 222t264 54h145l-30 -186h-66q-92 2 -123 -22t-45 -107l-16 -96h221l-37 -201h-221l-150 -850h-254zM1831 0q-207 0 -289 54t-82 194q0 76 25 221l176 993h254l-184 -1042q-12 -70 -13 -94q0 -68 35 -94t125 -25h35l-37 -207
h-45zM252 850h-121l35 201h121l24 135q27 164 103 222t264 54h133l-33 -186h-51q-92 2 -123 -22t-45 -107l-16 -96h164l-35 -201h-166l-150 -850h-254z" />
    <glyph glyph-name=".notdef" horiz-adv-x="409" 
 />
    <glyph glyph-name=".null" horiz-adv-x="0" 
 />
    <glyph glyph-name="nonmarkingreturn" horiz-adv-x="681" 
 />
    <glyph glyph-name="space" unicode=" " horiz-adv-x="409" 
 />
    <glyph glyph-name="exclam" unicode="!" horiz-adv-x="686" 
d="M125 0l45 260h256l-45 -260h-256zM219 416l146 1046h288l-223 -1046h-211z" />
    <glyph glyph-name="quotedbl" unicode="&#x22;" horiz-adv-x="913" 
d="M600 870l84 592h266l-123 -592h-227zM211 870l84 592h266l-123 -592h-227z" />
    <glyph glyph-name="numbersign" unicode="#" 
d="M459 598h184l64 205h-185zM246 598l65 205h-172l51 162h175l112 356h213l-115 -356h185l112 356h213l-114 -356h178l-53 -162h-178l-64 -205h176l-51 -162h-178l-111 -350h-211l111 350h-184l-111 -350h-213l111 350h-173l54 162h172z" />
    <glyph glyph-name="dollar" unicode="$" 
d="M494 227q139 1 217 57t77 158q0 68 -40 98t-70 39t-178 46q-352 88 -353 364q0 105 43 199t119 153q57 47 117 69t166 34l39 221h260l-41 -233q221 -41 291 -201l-223 -127q-72 131 -254 131q-113 0 -181 -55q-67 -54 -67 -136t54 -120t221 -84q167 -45 251 -101
q115 -80 115 -245q0 -96 -35 -188t-94 -152q-98 -98 -326 -136l-53 -294h-260l53 296q-309 37 -385 232l229 131q63 -156 308 -156z" />
    <glyph glyph-name="percent" unicode="%" horiz-adv-x="1925" 
d="M520 0l721 1462h236l-719 -1462h-238zM1630 535q0 117 -108 116q-70 0 -107 -46t-57 -159l-19 -104q-12 -61 -12 -90q0 -113 109 -113q72 0 110 47t56 156l16 94q12 74 12 99zM1110 213q0 45 16 135l27 150q16 94 40 144q81 169 339 169q174 0 248 -72q68 -61 67 -164
q0 -59 -14 -131l-27 -151q-16 -95 -40 -145q-82 -169 -336 -168q-320 0 -320 233zM559 1323q-69 0 -107 -46t-59 -157l-18 -104q-10 -57 -10 -92q0 -113 108 -113q70 0 108 47t58 158l16 94q12 72 13 98q0 115 -109 115zM567 1483q176 0 250 -72q68 -61 68 -164
q0 -43 -15 -129l-26 -153q-16 -95 -40 -145q-82 -169 -337 -169q-170 -1 -245 63t-75 171q1 41 17 135l24 149q16 95 40 145t71 89q92 80 268 80z" />
    <glyph glyph-name="ampersand" unicode="&#x26;" horiz-adv-x="1632" 
d="M369 295q0 -139 184 -139q88 0 167 28t181 101l-211 333q-139 -70 -194 -110q-127 -92 -127 -213zM1051 1165q0 119 -150 119q-86 0 -142 -48t-57 -120q0 -33 19 -72t78 -133q252 117 252 254zM1305 1182q-1 -136 -93 -242t-288 -209l174 -282q100 106 164 251h249
q-117 -260 -286 -432l180 -268h-313l-70 113q-152 -99 -266 -137t-254 -37q-195 0 -298 86q-104 85 -104 249t108 287t355 242q-115 203 -114 307q0 162 128 270t317 108t300 -85t111 -221z" />
    <glyph glyph-name="quotesingle" unicode="'" horiz-adv-x="526" 
d="M211 870l84 592h266l-123 -592h-227z" />
    <glyph glyph-name="parenleft" unicode="(" horiz-adv-x="915" 
d="M260 482q0 196 63 415q62 219 173 393t307 383l172 -125q-186 -246 -260 -385q-180 -332 -180 -708q0 -271 141 -609l-197 -108q-117 209 -168 379q-51 169 -51 365z" />
    <glyph glyph-name="parenright" unicode=")" horiz-adv-x="915" 
d="M717 932q-1 -196 -63 -415q-62 -218 -175 -396t-305 -383l-172 127q178 229 260 383q180 332 180 710q0 271 -141 607l197 108q117 -205 168 -375t51 -366z" />
    <glyph glyph-name="asterisk" unicode="*" 
d="M637 981l-217 -246l-168 174l244 215l-289 117l98 207l279 -152l37 308l243 -43l-69 -301l313 47l22 -228l-313 -10l158 -287l-219 -106z" />
    <glyph glyph-name="plus" unicode="+" 
d="M104 625l35 204h357l65 369h221l-65 -369h356l-35 -204h-356l-66 -363h-219l64 363h-357z" />
    <glyph glyph-name="comma" unicode="," horiz-adv-x="593" 
d="M-76 -385l211 643h283l-264 -643h-230z" />
    <glyph glyph-name="hyphen" unicode="-" horiz-adv-x="956" 
d="M178 623l39 217h635l-39 -217h-635z" />
    <glyph glyph-name="period" unicode="." horiz-adv-x="595" 
d="M72 0l45 260h268l-45 -260h-268z" />
    <glyph glyph-name="slash" unicode="/" horiz-adv-x="825" 
d="M-57 -41l762 1544h251l-761 -1544h-252z" />
    <glyph glyph-name="zero" unicode="0" 
d="M682 1266q-100 0 -156 -83t-92 -284l-59 -336q-23 -127 -23 -194q0 -172 146 -172q100 1 155 83t90 283l60 336q25 137 24 193q0 174 -145 174zM494 -20q-406 0 -406 366q0 84 25 225l67 383q29 156 62 240t94 152q125 137 358 137q397 0 398 -367q0 -72 -25 -225
l-68 -383q-27 -158 -61 -241t-96 -150q-129 -137 -348 -137z" />
    <glyph glyph-name="one" unicode="1" 
d="M356 0l209 1186l-237 -94l-62 200l439 170h178l-258 -1462h-269z" />
    <glyph glyph-name="two" unicode="2" 
d="M803 1143q0 125 -144 125q-162 0 -225 -205l-241 18q86 403 479 404q193 0 296 -86t103 -249q0 -231 -205 -451q-53 -58 -215 -214l-274 -268h534l-39 -217h-884l30 172l498 500q63 63 134 153t112 163t41 155z" />
    <glyph glyph-name="three" unicode="3" 
d="M520 874q117 0 188 68t70 180q0 144 -146 144t-200 -162l-233 18q84 360 452 361q195 0 298 -86t103 -249t-87 -271q-41 -51 -146 -105q16 -12 50 -36t69 -85t35 -159t-30 -191q-30 -94 -79 -158q-127 -164 -403 -163q-201 0 -311 84t-111 233q0 14 4 68l240 20
q-2 -12 -2 -29q0 -76 47 -118t131 -41q129 0 194 100q51 80 52 178q0 190 -230 191h-102l37 208h110z" />
    <glyph glyph-name="four" unicode="4" 
d="M563 0l45 258h-581l28 162l637 1042h283l-606 -989h276l66 367h239l-63 -367h133l-39 -217h-133l-45 -256h-240z" />
    <glyph glyph-name="five" unicode="5" 
d="M639 938q170 0 263 -85t93 -225q1 -140 -33 -272q-34 -131 -85 -198q-131 -178 -410 -178q-193 0 -303 85t-109 232q0 14 4 68l240 20q-2 -12 -2 -27q0 -74 47 -118t129 -43q139 0 199 133q49 109 49 214t-37 143t-117 38q-115 0 -200 -86l-189 39l205 784h727l-37 -217
h-508l-92 -340l84 25q23 8 82 8z" />
    <glyph glyph-name="six" unicode="6" 
d="M592 725q-127 0 -180 -117q-56 -133 -56 -272t144 -139q125 0 174 110q57 129 57 273t-139 145zM707 930q133 0 216 -88t83 -220t-34 -266q-34 -135 -83 -206q-119 -170 -406 -170q-195 0 -298 82t-103 235q0 197 70 369q47 111 149 247l412 549h299l-412 -544
q61 12 107 12z" />
    <glyph glyph-name="seven" unicode="7" 
d="M119 0l684 1245h-543l37 217h823l-28 -157l-668 -1305h-305z" />
    <glyph glyph-name="eight" unicode="8" 
d="M588 655q-150 0 -204 -97q-52 -97 -52 -230t164 -133q143 -1 192 107t49 214q1 139 -149 139zM821 1161q0 121 -128 121t-169 -96q-47 -104 -47 -201q0 -125 135 -125q68 0 105 25t71 103t33 173zM492 -23q-427 0 -429 330q0 215 97 361q49 71 139 112q-16 24 -29 35
q-49 61 -49 163t29 200t74 157q113 150 368 150q385 0 385 -311q0 -288 -182 -404q111 -78 111 -244q0 -102 -32 -211t-79 -172q-123 -166 -403 -166z" />
    <glyph glyph-name="nine" unicode="9" 
d="M678 1266q-125 0 -177 -102t-52 -234q0 -139 143 -139q125 0 174 102q53 100 53 233q0 140 -141 140zM492 590q-150 0 -234 79t-84 210t33 255t82 189q123 160 397 160q408 0 408 -322q0 -262 -179 -512l-454 -649h-299l430 598q-57 -8 -100 -8z" />
    <glyph glyph-name="colon" unicode=":" horiz-adv-x="595" 
d="M213 795l45 260h268l-45 -260h-268zM72 0l45 260h268l-45 -260h-268z" />
    <glyph glyph-name="semicolon" unicode=";" horiz-adv-x="595" 
d="M240 795l45 260h268l-45 -260h-268zM-76 -385l211 643h283l-264 -643h-230z" />
    <glyph glyph-name="less" unicode="&#x3c;" 
d="M442 731l484 -250l-41 -223l-742 401l29 162l883 402l-43 -244z" />
    <glyph glyph-name="equal" unicode="=" 
d="M170 811l35 197h866l-35 -197h-866zM106 451l35 196h867l-35 -196h-867z" />
    <glyph glyph-name="greater" unicode="&#x3e;" 
d="M737 750l-481 247l39 226l741 -402l-28 -162l-883 -401l43 244z" />
    <glyph glyph-name="question" unicode="?" horiz-adv-x="1185" 
d="M362 0l46 260h256l-48 -260h-254zM746 1268q-82 0 -147 -58t-122 -190l-241 41q145 424 538 424q197 0 303 -88q107 -88 107 -255t-111 -288q-61 -70 -219 -178t-180 -219l-8 -47h-211l14 84q23 130 71 200t174 163t163 153q81 150 -5 222q-44 36 -126 36z" />
    <glyph glyph-name="at" unicode="@" horiz-adv-x="1906" 
d="M1083 887q-119 0 -227 -182q-82 -143 -82 -248q0 -74 74 -74q117 -1 222 155t106 257q0 41 -26 67t-67 25zM1323 373q127 -1 228 155t101 344t-98 295q-145 152 -430 152q-399 0 -632 -324q-88 -119 -138 -281t-49 -325q0 -217 131 -330q162 -133 465 -133q250 0 506 105
l59 -156q-291 -117 -600 -117q-385 0 -590 174q-178 150 -178 457q0 203 69 402t199 357t329 250q201 91 401 91q394 0 596 -186q164 -147 164 -422t-173 -475q-172 -200 -413 -201q-166 0 -178 151q-131 -152 -287 -151q-115 0 -183 63t-69 172q0 193 137 385
q162 229 383 230q82 0 128 -27t79 -92l43 96h158l-183 -465q-37 -100 -36 -139q0 -55 61 -55z" />
    <glyph glyph-name="A" unicode="A" horiz-adv-x="1259" 
d="M848 506l-98 639l-326 -639h424zM874 289h-552l-146 -289h-297l789 1462h258l274 -1462h-285z" />
    <glyph glyph-name="B" unicode="B" horiz-adv-x="1302" 
d="M696 215q115 0 170 57q74 84 74 215q0 82 -39 117t-129 35h-307l-76 -424h307zM782 854q115 0 168 55q70 74 70 197q0 76 -39 108t-129 33h-281l-69 -393h280zM877 1462q231 0 325 -84q92 -86 92 -243q0 -256 -200 -371l16 -19q57 -55 78 -108t20 -145q0 -238 -139 -377
q-67 -63 -147 -89t-213 -26h-623l258 1462h533z" />
    <glyph glyph-name="C" unicode="C" horiz-adv-x="1277" 
d="M135 371q0 82 27 233l55 314q29 170 67 258t109 159q147 145 397 145t360 -98q109 -98 110 -247q0 -20 -7 -68l-249 -18v32q0 87 -54 135t-153 48q-141 0 -211 -87t-111 -311l-47 -274q-22 -117 -22 -206t52 -140t160 -51q226 0 289 215l246 -29q-88 -403 -555 -404
q-227 1 -345 101t-118 293z" />
    <glyph glyph-name="D" unicode="D" horiz-adv-x="1376" 
d="M1040 1038q0 115 -86 172q-59 37 -200 37h-181l-180 -1032h178q184 -4 273 78q88 82 127 295l51 286q18 113 18 164zM809 1462q240 0 350 -78q152 -109 152 -311q0 -78 -23 -209l-57 -329q-41 -273 -193 -405t-424 -130h-528l258 1462h465z" />
    <glyph glyph-name="E" unicode="E" horiz-adv-x="1189" 
d="M88 0l258 1462h901l-39 -217h-635l-69 -395h538l-38 -217h-539l-74 -416h643l-39 -217h-907z" />
    <glyph glyph-name="F" unicode="F" horiz-adv-x="1118" 
d="M88 0l258 1462h889l-39 -217h-621l-71 -407h522l-39 -217h-522l-109 -621h-268z" />
    <glyph glyph-name="G" unicode="G" horiz-adv-x="1351" 
d="M637 -23q-274 -1 -388 107t-114 291q0 94 25 229l55 314q29 168 68 257t112 160q151 145 397 145t368 -91q122 -92 122 -261q0 -23 -6 -61l-250 -18q0 57 -4 75q-25 139 -215 140q-147 0 -220 -87t-112 -311l-49 -274q-20 -113 -20 -182q0 -111 55 -163t183 -52
q260 0 310 305l17 96h-246l37 207h512l-49 -277q-27 -156 -62 -238t-100 -151q-152 -160 -426 -160z" />
    <glyph glyph-name="H" unicode="H" horiz-adv-x="1390" 
d="M88 0l258 1462h268l-108 -612h493l109 612h268l-256 -1462h-268l111 633h-496l-111 -633h-268z" />
    <glyph glyph-name="I" unicode="I" horiz-adv-x="628" 
d="M88 0l258 1462h268l-258 -1462h-268z" />
    <glyph glyph-name="J" unicode="J" horiz-adv-x="989" 
d="M332 -20q-136 0 -234 38t-198 136l178 176q104 -133 233 -133t187 127q29 63 61 249l158 889h268l-162 -917q-37 -207 -55 -269t-61 -124q-117 -172 -375 -172z" />
    <glyph glyph-name="K" unicode="K" horiz-adv-x="1261" 
d="M90 0l258 1462h264l-114 -657l610 657h313l-585 -598l358 -864h-309l-254 682l-191 -197l-84 -485h-266z" />
    <glyph glyph-name="L" unicode="L" horiz-adv-x="1110" 
d="M86 0l258 1462h268l-219 -1245h639l-39 -217h-907z" />
    <glyph glyph-name="M" unicode="M" horiz-adv-x="1671" 
d="M88 0l258 1462h250l256 -841l553 841h252l-258 -1462h-256l170 963l-428 -650h-172l-197 650l-170 -963h-258z" />
    <glyph glyph-name="N" unicode="N" horiz-adv-x="1464" 
d="M88 0l258 1462h260l406 -1011l178 1011h260l-258 -1462h-260l-406 1012l-178 -1012h-260z" />
    <glyph glyph-name="O" unicode="O" horiz-adv-x="1374" 
d="M1040 1053q0 215 -229 215q-145 0 -221 -87t-115 -298l-53 -303q-18 -111 -19 -172q0 -213 228 -213q147 0 223 87t115 298l53 303q18 111 18 170zM825 1485q238 1 362 -101t124 -299q0 -86 -23 -211l-61 -350q-29 -162 -68 -249t-115 -156q-154 -141 -416 -141t-379 108
q-116 108 -116 289q0 84 23 215l61 348q29 162 68 249t117 159t178 106q100 33 245 33z" />
    <glyph glyph-name="P" unicode="P" horiz-adv-x="1239" 
d="M713 745q141 0 202 74q82 98 82 258q0 90 -45 130t-151 40h-230l-88 -502h230zM805 1462q133 0 209 -17t135 -61q123 -94 123 -266q0 -129 -37 -247q-37 -117 -105 -195t-165 -113q-98 -35 -260 -35h-254l-95 -528h-268l258 1462h459z" />
    <glyph glyph-name="Q" unicode="Q" horiz-adv-x="1374" 
d="M1040 1053q0 215 -229 215q-145 0 -221 -87t-115 -298l-53 -303q-18 -111 -19 -172q0 -213 228 -213q90 -1 149 30l-176 162l156 152l160 -146q27 61 49 187l53 303q18 111 18 170zM629 -23q-260 0 -383 111q-113 106 -113 287q0 84 23 215l61 348q29 162 68 249t117 159
t178 106q100 33 245 33q238 1 362 -101t124 -299q0 -86 -23 -211l-61 -350q-23 -124 -45 -188t-62 -127l115 -107l-154 -151l-118 106q-133 -80 -334 -80z" />
    <glyph glyph-name="R" unicode="R" horiz-adv-x="1316" 
d="M754 807q133 0 196 65q74 80 74 220q0 84 -47 120t-156 35h-248l-77 -440h258zM854 1462q233 0 339 -81t105 -242q0 -117 -34 -227q-87 -277 -328 -291l209 -621h-297l-178 600h-205l-107 -600h-268l258 1462h506z" />
    <glyph glyph-name="S" unicode="S" horiz-adv-x="1177" 
d="M188 993q0 225 144 357t393 133q358 0 461 -219l-223 -129q-70 131 -256 131q-113 0 -182 -64t-69 -152t55 -128q53 -40 225 -87q172 -46 249 -104q111 -86 111 -246q0 -243 -151 -375t-417 -132t-411 94q-80 53 -125 149l229 131q63 -158 307 -157q139 0 220 64
q80 65 79 177q0 74 -51 113q-30 21 -60 31t-192 53q-336 89 -336 360z" />
    <glyph glyph-name="T" unicode="T" horiz-adv-x="1136" 
d="M344 0l219 1245h-399l39 217h1065l-39 -217h-398l-219 -1245h-268z" />
    <glyph glyph-name="U" unicode="U" horiz-adv-x="1400" 
d="M645 197q174 0 252 122q41 70 68 226l161 917h269l-170 -964q-27 -156 -57 -229t-89 -136q-154 -154 -436 -153q-152 0 -245 30t-154 101q-84 92 -84 235q0 84 28 244l154 872h268l-161 -917q-18 -109 -19 -162q0 -186 215 -186z" />
    <glyph glyph-name="V" unicode="V" horiz-adv-x="1226" 
d="M406 0l-234 1462h262l146 -1100l532 1100h274l-747 -1462h-233z" />
    <glyph glyph-name="W" unicode="W" horiz-adv-x="1871" 
d="M322 0l-113 1462h262l43 -1093l479 1093h205l94 -1093l428 1093h275l-629 -1462h-240l-100 1030l-465 -1030h-239z" />
    <glyph glyph-name="X" unicode="X" horiz-adv-x="1196" 
d="M494 780l-287 682h276l205 -491l348 491h297l-538 -729l307 -733h-279l-223 541l-387 -541h-297z" />
    <glyph glyph-name="Y" unicode="Y" horiz-adv-x="1112" 
d="M334 0l92 528l-289 934h277l186 -669l422 669h291l-619 -934l-92 -528h-268z" />
    <glyph glyph-name="Z" unicode="Z" horiz-adv-x="1153" 
d="M14 0l31 178l799 1067h-578l37 217h885l-31 -178l-797 -1067h639l-38 -217h-947z" />
    <glyph glyph-name="bracketleft" unicode="[" horiz-adv-x="915" 
d="M178 -201l320 1813h463l-33 -187h-205l-254 -1439h205l-33 -187h-463z" />
    <glyph glyph-name="backslash" unicode="\" horiz-adv-x="825" 
d="M682 -41h-252l-217 1544h252z" />
    <glyph glyph-name="bracketright" unicode="]" horiz-adv-x="915" 
d="M803 1612l-320 -1813h-463l33 187h205l254 1439h-205l33 187h463z" />
    <glyph glyph-name="asciicircum" unicode="^" 
d="M674 1169l-287 -401h-309l567 705h148l319 -705h-293z" />
    <glyph glyph-name="underscore" unicode="_" horiz-adv-x="962" 
d="M-211 -375l31 176h1065l-31 -176h-1065z" />
    <glyph glyph-name="grave" unicode="`" horiz-adv-x="1024" 
d="M772 1188h-182l-209 313h276z" />
    <glyph glyph-name="a" unicode="a" horiz-adv-x="1089" 
d="M500 463q-119 0 -166 -49q-51 -47 -51 -148q1 -52 37 -74t140 -22t156 57q27 33 46 125l18 111h-180zM727 750q0 121 -154 120q-127 0 -231 -104l-154 125q156 182 408 182q209 0 313 -92q72 -66 72 -188q0 -66 -20 -187l-109 -606h-199l-10 49q-88 -72 -264 -72
q-176 -1 -260 61t-84 193q0 205 93 305t339 99h244l8 47q8 41 8 68z" />
    <glyph glyph-name="b" unicode="b" horiz-adv-x="1161" 
d="M811 698q0 172 -160 172q-96 0 -150 -58t-77 -183l-37 -207q-8 -49 -8 -84q0 -156 166 -156q96 0 151 68t82 217l21 117q12 74 12 114zM717 1073q352 0 352 -315q0 -70 -18 -187l-29 -155q-41 -238 -142 -338t-300 -101q-150 0 -232 58l-59 57l-33 -92h-197l258 1462h254
l-82 -467q61 47 107 63t121 15z" />
    <glyph glyph-name="c" unicode="c" horiz-adv-x="980" 
d="M612 1073q299 0 379 -229l-203 -80q-31 59 -67 83q-37 24 -100 23q-98 0 -155 -70q-56 -71 -83 -225l-16 -92q-10 -51 -11 -123q0 -178 166 -178q119 1 201 103l166 -135q-143 -172 -397 -173q-190 1 -290 93t-102 268q0 78 21 197l10 63q23 129 54 206q32 77 87 134
q123 135 340 135z" />
    <glyph glyph-name="d" unicode="d" horiz-adv-x="1161" 
d="M506 182q98 0 154 58t79 182l35 207q8 49 8 82q0 160 -159 159q-99 0 -155 -68t-83 -218l-20 -117q-12 -66 -13 -117q0 -168 154 -168zM94 293q0 84 19 188l28 154q41 236 143 337t275 101q189 1 271 -73q5 -4 10 -7l82 469h254l-258 -1462h-197l-2 78q-6 -4 -14 -12
q-94 -88 -264 -88q-347 -2 -347 315z" />
    <glyph glyph-name="e" unicode="e" horiz-adv-x="1122" 
d="M809 725q0 162 -170 162q-96 1 -161 -59t-81 -166l-4 -21h406q10 41 10 84zM350 352q0 -176 193 -176q139 0 231 109l166 -135q-76 -94 -172 -134t-250 -39q-213 0 -316 86t-104 263q0 94 21 194l12 76q23 131 54 208q112 269 448 269q408 0 407 -360q0 -98 -32 -250
h-643l-7 -33q-8 -39 -8 -78z" />
    <glyph glyph-name="f" unicode="f" horiz-adv-x="708" 
d="M252 850h-121l35 201h121l24 135q27 164 103 222t264 54h145l-30 -186h-66q-92 2 -123 -22t-45 -107l-16 -96h221l-37 -201h-221l-150 -850h-254z" />
    <glyph glyph-name="g" unicode="g" horiz-adv-x="1161" 
d="M348 352q0 -170 154 -170q98 0 154 58t79 182l37 207q6 39 6 82q0 160 -160 159q-98 0 -154 -68t-83 -218l-21 -117q-12 -59 -12 -115zM438 -23q-348 0 -348 320q0 68 19 184l28 154q41 238 143 338t296 100q196 0 288 -98l39 76h197l-180 -1024q-43 -246 -154 -363
q-139 -145 -381 -145q-301 0 -387 198l207 109q29 -59 69 -84t111 -25q225 1 274 275l11 59q-90 -74 -232 -74z" />
    <glyph glyph-name="h" unicode="h" horiz-adv-x="1167" 
d="M725 1073q156 0 244 -75t88 -207q0 -84 -25 -218l-100 -573h-254l102 588q12 68 13 110q0 156 -142 156q-100 0 -155 -69t-84 -226l-99 -559h-254l258 1462h254l-82 -465q70 45 116 61t120 15z" />
    <glyph glyph-name="i" unicode="i" horiz-adv-x="561" 
d="M59 0l185 1051h256l-187 -1051h-254zM274 1212l45 263h254l-45 -263h-254z" />
    <glyph glyph-name="j" unicode="j" horiz-adv-x="573" 
d="M285 1212l45 263h254l-45 -263h-254zM256 1051h254l-182 -1037q-45 -301 -159 -395t-423 -90l37 207q135 -4 200 55t87 209z" />
    <glyph glyph-name="k" unicode="k" horiz-adv-x="1083" 
d="M59 0l258 1462h254l-159 -901l460 490h291l-440 -445l274 -606h-276l-189 444l-172 -178l-47 -266h-254z" />
    <glyph glyph-name="l" unicode="l" horiz-adv-x="628" 
d="M373 326q0 -68 35 -94t124 -25h33l-35 -207h-45q-207 0 -289 54t-81 194q0 74 24 221l174 993h256l-184 -1042q-12 -74 -12 -94z" />
    <glyph glyph-name="m" unicode="m" horiz-adv-x="1710" 
d="M705 1073q203 0 280 -131q94 131 293 131q322 0 321 -280q0 -68 -24 -220l-102 -573h-254l102 575q14 88 14 134q0 147 -127 147q-88 0 -138 -71t-81 -238l-96 -547h-254l100 571q16 82 17 134q0 152 -125 151q-91 0 -141 -71t-80 -240l-97 -545h-254l185 1051h192l4 -82
q98 104 265 104z" />
    <glyph glyph-name="n" unicode="n" horiz-adv-x="1167" 
d="M1057 788q0 -76 -25 -215l-100 -573h-254l100 573q14 84 15 125q0 158 -142 158q-102 0 -156 -71t-85 -242l-97 -543h-254l185 1051h192l6 -88q104 111 274 111t256 -75q85 -74 85 -211z" />
    <glyph glyph-name="o" unicode="o" horiz-adv-x="1144" 
d="M518 182q106 0 162 64t82 219l22 123q12 74 13 125q0 158 -170 157q-104 0 -159 -64q-54 -65 -83 -218l-20 -123q-14 -84 -15 -121q0 -162 168 -162zM637 1073q416 0 416 -328q0 -84 -17 -172l-28 -159q-41 -232 -157 -334t-334 -102t-320 80q-102 81 -103 249
q1 72 19 170l26 160q41 233 157 335t341 101z" />
    <glyph glyph-name="p" unicode="p" horiz-adv-x="1161" 
d="M811 700q0 170 -154 170q-193 0 -233 -241l-37 -207q-8 -47 -8 -82q0 -158 160 -158q98 0 155 68t84 217l21 117q12 66 12 116zM727 1073q342 0 342 -315q0 -76 -20 -187l-27 -155q-41 -238 -142 -338t-298 -101q-141 0 -258 82l-93 -520h-254l267 1512h196l15 -70
q106 92 272 92z" />
    <glyph glyph-name="q" unicode="q" horiz-adv-x="1161" 
d="M350 350q0 -168 154 -168q98 0 153 58t78 182l37 207q8 39 8 80q0 162 -159 161q-99 0 -155 -68t-83 -218l-21 -117q-12 -66 -12 -117zM446 -23q-354 0 -354 316q0 84 19 188l28 154q41 238 143 338t288 100q188 0 296 -96l39 74h197l-266 -1512h-254l90 514
q-100 -76 -226 -76z" />
    <glyph glyph-name="r" unicode="r" horiz-adv-x="800" 
d="M629 856q-89 0 -141 -82t-85 -266l-90 -508h-254l185 1051h196l17 -82q63 59 112 82t137 23t199 -66l-147 -209q-66 57 -129 57z" />
    <glyph glyph-name="s" unicode="s" horiz-adv-x="1001" 
d="M422 176q102 0 162 42q59 42 59 116q0 45 -31 64q-30 20 -184 38t-226 83t-71 190q0 170 111 267q110 97 312 97t312 -88q51 -39 86 -113l-196 -104q-66 106 -205 106q-78 0 -125 -38t-47 -94t33 -75t131 -32q197 -19 273 -81t75 -198q0 -379 -477 -379q-350 0 -430 201
l204 109q70 -111 234 -111z" />
    <glyph glyph-name="t" unicode="t" horiz-adv-x="708" 
d="M516 0q-211 0 -292 52t-81 188q0 94 25 231l68 379h-119l35 201h124l70 307h234l-56 -307h209l-35 -201h-209l-71 -408q-16 -98 -17 -120q0 -66 33 -91t123 -24h29l-37 -207h-33z" />
    <glyph glyph-name="u" unicode="u" horiz-adv-x="1146" 
d="M375 350q0 -156 133 -155q96 1 147 71t82 244l97 541h253l-186 -1051h-170l-18 96q-51 -66 -116 -92t-167 -27q-152 0 -236 74t-83 207q0 88 28 244l97 549h253l-96 -551q-18 -104 -18 -150z" />
    <glyph glyph-name="v" unicode="v" horiz-adv-x="1032" 
d="M303 0l-178 1051h252l94 -742l358 742h265l-549 -1051h-242z" />
    <glyph glyph-name="w" unicode="w" horiz-adv-x="1593" 
d="M274 0l-127 1051h252l45 -742l349 742h180l86 -742l307 742h264l-497 -1051h-218l-94 668l-329 -668h-218z" />
    <glyph glyph-name="x" unicode="x" horiz-adv-x="997" 
d="M367 545l-234 506h264l144 -314l243 314h295l-436 -525l244 -526h-264l-152 332l-254 -332h-297z" />
    <glyph glyph-name="y" unicode="y" horiz-adv-x="1034" 
d="M299 18l-178 1033h252l102 -758l352 758h265l-582 -1143q-92 -176 -159 -250t-155 -100t-270 -29l37 207q127 0 174 32t115 160z" />
    <glyph glyph-name="z" unicode="z" horiz-adv-x="985" 
d="M-18 0l28 160l584 686h-424l35 205h739l-26 -160l-584 -686h491l-34 -205h-809z" />
    <glyph glyph-name="braceleft" unicode="{" horiz-adv-x="915" 
d="M571 598q0 -35 -24 -172l-31 -176q-22 -129 -22 -180t32 -75t109 -24h47l-31 -172h-104q-174 0 -246 49t-72 170q0 76 29 230l33 194q20 113 20 133q0 84 -127 84h-16l27 152h18q98 4 131 43t53 180l33 193q33 235 119 311t317 74h105l-31 -172h-47q-106 -2 -146 -54
t-69 -225l-21 -117q-25 -152 -57 -210t-121 -101q92 -39 92 -135z" />
    <glyph glyph-name="bar" unicode="|" 
d="M315 -201l320 1813h221l-319 -1813h-222z" />
    <glyph glyph-name="braceright" unicode="}" horiz-adv-x="915" 
d="M418 872q0 33 24 172l21 117q25 135 25 183t-33 72t-111 24h-47l31 172h106q174 0 246 -49t72 -170q0 -53 -31 -230l-23 -135q-20 -113 -20 -135q0 -82 127 -82h16l-26 -152h-17q-98 -4 -131 -44t-53 -181l-45 -250q-35 -236 -121 -312t-315 -73h-105l31 172h47
q106 1 146 53t69 226l33 176q23 152 55 210q33 58 121 99q-92 45 -92 137z" />
    <glyph glyph-name="asciitilde" unicode="~" 
d="M426 897q55 0 95 -14t124 -69t131 -54q84 0 162 125l139 -43q-69 -143 -147 -209t-185 -66q-59 1 -99 17t-116 68t-131 53q-85 -1 -159 -136l-146 33q66 158 143 226t189 69z" />
    <glyph glyph-name="uni00A0" unicode="&#xa0;" horiz-adv-x="409" 
 />
    <glyph glyph-name="exclamdown" unicode="&#xa1;" horiz-adv-x="686" 
d="M563 1051l-45 -260h-256l45 260h256zM469 633l-145 -1047h-289l223 1047h211z" />
    <glyph glyph-name="cent" unicode="&#xa2;" 
d="M430 637q0 -174 164 -174q129 0 215 104l166 -104q-59 -78 -124 -119t-167 -65l-43 -246h-260l45 252q-127 33 -185 111t-59 212q0 66 17 170l12 66q37 233 133 354t270 154l39 225h260l-43 -242q152 -43 209 -176l-202 -102q-29 57 -66 81t-100 23q-195 0 -250 -299
l-19 -112q-12 -74 -12 -113z" />
    <glyph glyph-name="sterling" unicode="&#xa3;" 
d="M338 530q0 14 -6 58h-217l39 219h114q-33 129 -32 199q0 193 112 327q121 152 369 152t354 -142q51 -70 76 -204l-229 -86q-6 18 -7 22l-12 55q-16 66 -64 105t-130 39q-83 0 -139 -67t-56 -164t51 -236h344l-39 -219h-276q2 -25 2 -45q0 -188 -160 -326h586l-39 -217
h-965l33 186q131 35 211 129t80 215z" />
    <glyph glyph-name="currency" unicode="&#xa4;" 
d="M580 948q-110 0 -174 -72t-64 -194q0 -123 65 -195q65 -71 173 -71t174 72q64 72 63 194q0 121 -63 194q-64 72 -174 72zM129 682q0 127 78 252l-176 184l129 117l170 -176q113 71 250 71t249 -71l170 176l129 -117l-176 -184q78 -127 78 -254t-78 -250l176 -184
l-129 -117l-170 178q-113 -74 -249 -74t-250 74l-170 -178l-129 117l176 184q-78 125 -78 252z" />
    <glyph glyph-name="yen" unicode="&#xa5;" 
d="M330 0l49 285h-295l25 143h297l18 109h-295l25 143h227l-242 782h279l180 -659l414 659h291l-517 -782h228l-27 -143h-295l-18 -109h295l-25 -143h-297l-49 -285h-268z" />
    <glyph glyph-name="brokenbar" unicode="&#xa6;" horiz-adv-x="1024" 
d="M297 0l96 545h244l-96 -545h-244zM455 893l100 569h244l-101 -569h-243z" />
    <glyph glyph-name="section" unicode="&#xa7;" 
d="M776 585q0 75 -42 113t-167 80l-80 29q-67 -43 -91 -81t-24 -96t44 -93q43 -35 172 -80l80 -29l14 14q23 14 39 29q55 39 55 114zM422 -29q94 0 152 41q58 40 58 100t-35 84q-37 24 -189 72q-152 49 -223 121t-70 180q0 197 217 316q-76 78 -76 190q0 182 122 295
t318 113t308 -80q43 -33 90 -98l-199 -123q-66 90 -186 90q-81 0 -133 -42t-52 -100t33 -82q33 -26 177 -75t212 -107q90 -74 90 -210t-100 -230q-33 -29 -109 -76q74 -76 74 -188q0 -160 -113 -277q-125 -125 -343 -125t-345 82q-55 37 -112 115l198 123q88 -109 236 -109z
" />
    <glyph glyph-name="dieresis" unicode="&#xa8;" horiz-adv-x="1024" 
d="M719 1196l43 254h227l-45 -254h-225zM315 1196l45 254h226l-43 -254h-228z" />
    <glyph glyph-name="copyright" unicode="&#xa9;" horiz-adv-x="1701" 
d="M853 1331q-255 0 -421 -168t-166 -430t166 -431t420 -169t420 169t166 428t-165 430t-420 171zM854 1499q338 0 559 -220t221 -550t-222 -548t-560 -218t-561 218t-223 552t223 547q225 219 563 219zM846 369q-174 0 -254 94q-59 68 -60 223v90q0 168 77 243t242 75
t239 -52t79 -165l-182 -11q-12 86 -123 86q-72 0 -102 -36t-31 -119v-131q0 -84 31 -120t102 -36q115 0 133 86l185 -16q-8 -111 -85 -161t-251 -50z" />
    <glyph glyph-name="ordfeminine" unicode="&#xaa;" horiz-adv-x="727" 
d="M453 1077q-76 1 -109 -27t-33 -89t103 -61t116 81l17 96h-94zM569 1266q0 70 -81 70t-160 -62l-97 90q59 59 121 85t154 26q256 0 256 -183q0 -41 -12 -108l-72 -402h-154l2 39q-70 -51 -184 -51t-165 40q-52 40 -52 128q0 140 77 196t261 56h94l8 37q4 25 4 39z" />
    <glyph glyph-name="guillemotleft" unicode="&#xab;" horiz-adv-x="991" 
d="M340 586l129 -258l-176 -90l-227 366l356 365l137 -125zM778 586l127 -258l-176 -90l-225 366l354 365l137 -125z" />
    <glyph glyph-name="logicalnot" unicode="&#xac;" 
d="M115 625l35 204h856l-109 -612h-244l72 408h-610z" />
    <glyph glyph-name="uni00AD" unicode="&#xad;" horiz-adv-x="956" 
d="M178 623l39 217h635l-39 -217h-635z" />
    <glyph glyph-name="registered" unicode="&#xae;" horiz-adv-x="1472" 
d="M1188 1186q0 198 -124 326t-329 128t-327 -128t-123 -326q0 -197 123 -326q122 -129 328 -129t329 129t123 326zM737 1796q269 0 447 -175t178 -436t-178 -435t-448 -174t-447 172q-178 174 -178 438t179 437t447 173zM651 1204h111q90 0 90 78t-94 78h-107v-156z
M657 1114v-213h-168v572h281q131 0 189 -41q59 -42 59 -124t-25 -118t-88 -60l142 -229h-181l-118 213h-91z" />
    <glyph glyph-name="macron" unicode="&#xaf;" horiz-adv-x="1024" 
d="M330 1239l32 182h619l-33 -182h-618z" />
    <glyph glyph-name="degree" unicode="&#xb0;" horiz-adv-x="878" 
d="M553 983q174 -1 174 183t-174 184t-174 -184t174 -183zM554 1526q177 0 276 -96q100 -96 100 -264t-100 -264q-100 -95 -277 -95q-176 0 -277 95q-100 95 -100 264t100 265q101 95 278 95z" />
    <glyph glyph-name="plusminus" unicode="&#xb1;" 
d="M-6 0l35 205h934l-35 -205h-934zM113 670l34 202h357l61 349h221l-61 -349h356l-34 -202h-357l-61 -346h-221l61 346h-356z" />
    <glyph glyph-name="twosuperior" unicode="&#xb2;" horiz-adv-x="724" 
d="M612 1456q0 70 -87 70t-128 -117l-186 16q33 125 96 183q94 78 254 78q258 0 258 -193q0 -157 -124 -285q-30 -31 -132 -127l-137 -129h297l-29 -161h-579l22 129l307 292q168 162 168 244z" />
    <glyph glyph-name="threesuperior" unicode="&#xb3;" horiz-adv-x="724" 
d="M442 1319q66 0 110 35t44 79q0 43 -23 65t-61 22q-90 0 -125 -90l-182 14q33 125 112 180q80 55 228 55q262 0 262 -188q0 -115 -57 -182q-18 -25 -70 -56q80 -57 80 -149q0 -133 -81 -229t-288 -97q-287 0 -287 199q0 25 2 43l197 24v-14q0 -92 109 -92q66 0 104 40
t39 105q0 100 -125 101h-92l24 135h80z" />
    <glyph glyph-name="acute" unicode="&#xb4;" horiz-adv-x="1024" 
d="M489 1188l222 313h286l-317 -313h-191z" />
    <glyph glyph-name="mu" unicode="&#xb5;" 
d="M700 100q-88 -123 -235 -123q-71 1 -95 9t-77 47l-88 -494h-248l266 1512h248l-102 -576q-14 -92 -15 -131q0 -154 140 -154q96 0 149 73t84 247l94 541h248l-184 -1051h-168z" />
    <glyph glyph-name="paragraph" unicode="&#xb6;" horiz-adv-x="1329" 
d="M424 668q-98 0 -148 13t-98 50q-104 82 -104 250q0 125 59 240q114 223 365 239q35 2 184 2h606l-307 -1741h-238l269 1532h-201l-268 -1532h-240l166 947h-45z" />
    <glyph glyph-name="periodcentered" unicode="&#xb7;" horiz-adv-x="593" 
d="M176 598l45 260h268l-45 -260h-268z" />
    <glyph glyph-name="cedilla" unicode="&#xb8;" horiz-adv-x="1024" 
d="M168 -483l164 352h243l-233 -352h-174z" />
    <glyph glyph-name="onesuperior" unicode="&#xb9;" horiz-adv-x="548" 
d="M250 791l121 684l-156 -52l-31 144l287 100h139l-155 -876h-205z" />
    <glyph glyph-name="ordmasculine" unicode="&#xba;" horiz-adv-x="745" 
d="M604 1241q0 86 -92 86q-113 0 -139 -145l-21 -117q-4 -25 -4 -59q0 -88 92 -88q113 0 140 147l20 117q4 16 4 59zM801 1272q0 -49 -10 -107l-25 -135q-25 -141 -99 -201q-75 -59 -229 -59q-287 0 -286 203q0 47 10 108l24 133q25 140 100 200t228 61q287 0 287 -203z" />
    <glyph glyph-name="guillemotright" unicode="&#xbb;" horiz-adv-x="991" 
d="M678 623l-127 256l176 90l225 -365l-354 -366l-137 127zM242 623l-129 256l176 90l227 -365l-356 -366l-137 127z" />
    <glyph glyph-name="onequarter" unicode="&#xbc;" horiz-adv-x="1835" 
d="M424 0l721 1462h235l-718 -1462h-238zM1346 0l26 143h-383l21 117l403 617h217l-381 -578h150l28 160h181l-29 -160h84l-27 -156h-84l-26 -143h-180zM313 586l121 684l-153 -51l-33 143l287 100h139l-156 -876h-205z" />
    <glyph glyph-name="onehalf" unicode="&#xbd;" horiz-adv-x="1835" 
d="M391 0l721 1462h238l-721 -1462h-238zM1501 668q0 31 -21 49q-22 18 -59 18q-94 0 -135 -117l-186 17q33 125 96 182q94 78 254 78q258 0 258 -195q0 -154 -124 -282q-30 -31 -132 -127l-137 -129h297l-29 -162h-579l22 129l307 293q168 160 168 246zM307 586l121 684
l-154 -51l-32 143l286 100h140l-156 -876h-205z" />
    <glyph glyph-name="threequarters" unicode="&#xbe;" horiz-adv-x="1835" 
d="M485 0l721 1462h238l-721 -1462h-238zM1372 0l27 143h-383l20 117l406 617h215l-381 -578h149l29 160h180l-28 -160h84l-27 -156h-84l-27 -143h-180zM274 821q0 -88 116 -88q58 0 98 40q38 40 38 106q0 100 -125 100h-92l25 135h80q66 0 110 35t43 79q0 87 -84 87
q-90 0 -125 -90l-182 16q33 125 113 180t227 56q262 0 262 -189q0 -113 -57 -184q-20 -27 -70 -55q80 -57 80 -150q0 -133 -81 -229t-285 -97q-289 0 -289 197q0 20 2 45l196 25v-19z" />
    <glyph glyph-name="questiondown" unicode="&#xbf;" horiz-adv-x="1185" 
d="M842 1051l-45 -260h-256l47 260h254zM289 -89q0 -60 42 -95q41 -35 125 -35t148 56q63 56 123 194l242 -41q-145 -426 -539 -426q-197 0 -303 88q-107 88 -107 256t111 289q59 66 220 177t179 220l9 47h211l-15 -84q-20 -129 -69 -200q-50 -71 -176 -164t-164 -157
t-37 -125z" />
    <glyph glyph-name="Agrave" unicode="&#xc0;" horiz-adv-x="1259" 
d="M938 1597h-182l-209 314h276zM848 506l-98 639l-326 -639h424zM874 289h-552l-146 -289h-297l789 1462h258l274 -1462h-285z" />
    <glyph glyph-name="Aacute" unicode="&#xc1;" horiz-adv-x="1259" 
d="M705 1597l221 314h286l-317 -314h-190zM848 506l-98 639l-326 -639h424zM874 289h-552l-146 -289h-297l789 1462h258l274 -1462h-285z" />
    <glyph glyph-name="Acircumflex" unicode="&#xc2;" horiz-adv-x="1259" 
d="M848 1761l-148 -159h-254l328 305h182l222 -305h-234zM848 506l-98 639l-326 -639h424zM874 289h-552l-146 -289h-297l789 1462h258l274 -1462h-285z" />
    <glyph glyph-name="Atilde" unicode="&#xc3;" horiz-adv-x="1259" 
d="M725 1901q87 -1 145 -53t73 -61t40 -9t45 24t43 84h154q-41 -127 -70 -176q-66 -115 -192 -115q-91 -1 -157 61t-96 62t-58 -30t-44 -78h-155q47 129 77 174q76 117 195 117zM848 506l-98 639l-326 -639h424zM874 289h-552l-146 -289h-297l789 1462h258l274 -1462h-285z
" />
    <glyph glyph-name="Adieresis" unicode="&#xc4;" horiz-adv-x="1259" 
d="M907 1606l45 254h226l-45 -254h-226zM496 1606l45 254h225l-43 -254h-227zM848 506l-98 639l-326 -639h424zM874 289h-552l-146 -289h-297l789 1462h258l274 -1462h-285z" />
    <glyph glyph-name="Aring" unicode="&#xc5;" horiz-adv-x="1259" 
d="M866 1921q-55 0 -88 -40t-33 -107q0 -80 86 -80q55 0 89 40q33 40 32 105q0 82 -86 82zM864 2038q117 0 182 -54q64 -54 64 -156q0 -100 -81 -176t-196 -75q-115 0 -181 55t-64 158q0 104 80 176t196 72zM848 506l-98 639l-326 -639h424zM874 289h-552l-146 -289h-297
l789 1462h258l274 -1462h-285z" />
    <glyph glyph-name="AE" unicode="&#xc6;" horiz-adv-x="1961" 
d="M958 535l125 710h-12l-559 -710h446zM920 317h-572l-250 -317h-309l1188 1462h1044l-39 -217h-634l-70 -395h539l-39 -217h-539l-72 -416h641l-36 -217h-908z" />
    <glyph glyph-name="Ccedilla" unicode="&#xc7;" horiz-adv-x="1277" 
d="M268 -483l164 352h244l-234 -352h-174zM135 371q0 82 27 233l55 314q29 170 67 258t109 159q147 145 397 145t360 -98q109 -98 110 -247q0 -20 -7 -68l-249 -18v32q0 87 -54 135t-153 48q-141 0 -211 -87t-111 -311l-47 -274q-22 -117 -22 -206t52 -140t160 -51
q226 0 289 215l246 -29q-88 -403 -555 -404q-227 1 -345 101t-118 293z" />
    <glyph glyph-name="Egrave" unicode="&#xc8;" horiz-adv-x="1189" 
d="M967 1597h-183l-209 314h277zM88 0l258 1462h901l-39 -217h-635l-69 -395h538l-38 -217h-539l-74 -416h643l-39 -217h-907z" />
    <glyph glyph-name="Eacute" unicode="&#xc9;" horiz-adv-x="1189" 
d="M690 1597l221 314h287l-317 -314h-191zM88 0l258 1462h901l-39 -217h-635l-69 -395h538l-38 -217h-539l-74 -416h643l-39 -217h-907z" />
    <glyph glyph-name="Ecircumflex" unicode="&#xca;" horiz-adv-x="1189" 
d="M846 1761l-148 -159h-254l328 305h182l222 -305h-234zM88 0l258 1462h901l-39 -217h-635l-69 -395h538l-38 -217h-539l-74 -416h643l-39 -217h-907z" />
    <glyph glyph-name="Edieresis" unicode="&#xcb;" horiz-adv-x="1189" 
d="M918 1606l45 254h225l-45 -254h-225zM506 1606l45 254h225l-43 -254h-227zM88 0l258 1462h901l-39 -217h-635l-69 -395h538l-38 -217h-539l-74 -416h643l-39 -217h-907z" />
    <glyph glyph-name="Igrave" unicode="&#xcc;" horiz-adv-x="628" 
d="M633 1597h-182l-209 314h276zM88 0l258 1462h268l-258 -1462h-268z" />
    <glyph glyph-name="Iacute" unicode="&#xcd;" horiz-adv-x="628" 
d="M371 1597l221 314h287l-318 -314h-190zM82 0l258 1462h268l-258 -1462h-268z" />
    <glyph glyph-name="Icircumflex" unicode="&#xce;" horiz-adv-x="628" 
d="M541 1761l-148 -159h-254l328 305h182l221 -305h-233zM88 0l258 1462h268l-258 -1462h-268z" />
    <glyph glyph-name="Idieresis" unicode="&#xcf;" horiz-adv-x="628" 
d="M596 1606l45 254h227l-45 -254h-227zM186 1606l45 254h226l-45 -254h-226zM88 0l258 1462h268l-258 -1462h-268z" />
    <glyph glyph-name="Eth" unicode="&#xd0;" horiz-adv-x="1376" 
d="M1040 1040q0 117 -86 170q-61 37 -200 37h-181l-69 -401h266l-37 -213h-268l-74 -418h180q184 -4 272 78q87 82 128 297l51 284q18 111 18 166zM809 1462q240 0 350 -78q152 -109 152 -311q0 -80 -23 -209l-57 -327q-41 -275 -193 -407t-424 -130h-528l111 633h-154
l37 213h156l108 616h465z" />
    <glyph glyph-name="Ntilde" unicode="&#xd1;" horiz-adv-x="1464" 
d="M831 1901q87 -1 145 -53t74 -61t40 -9t45 24q20 25 43 84h153q-41 -127 -69 -176q-66 -115 -193 -115q-91 -1 -157 61t-96 62t-58 -30t-43 -78h-156q47 129 78 174q76 117 194 117zM88 0l258 1462h260l406 -1011l178 1011h260l-258 -1462h-260l-406 1012l-178 -1012h-260
z" />
    <glyph glyph-name="Ograve" unicode="&#xd2;" horiz-adv-x="1374" 
d="M1018 1597h-182l-209 314h276zM1040 1053q0 215 -229 215q-145 0 -221 -87t-115 -298l-53 -303q-18 -111 -19 -172q0 -213 228 -213q147 0 223 87t115 298l53 303q18 111 18 170zM825 1485q238 1 362 -101t124 -299q0 -86 -23 -211l-61 -350q-29 -162 -68 -249t-115 -156
q-154 -141 -416 -141t-379 108q-116 108 -116 289q0 84 23 215l61 348q29 162 68 249t117 159t178 106q100 33 245 33z" />
    <glyph glyph-name="Oacute" unicode="&#xd3;" horiz-adv-x="1374" 
d="M735 1597l221 314h287l-317 -314h-191zM1040 1053q0 215 -229 215q-145 0 -221 -87t-115 -298l-53 -303q-18 -111 -19 -172q0 -213 228 -213q147 0 223 87t115 298l53 303q18 111 18 170zM825 1485q238 1 362 -101t124 -299q0 -86 -23 -211l-61 -350q-29 -162 -68 -249
t-115 -156q-154 -141 -416 -141t-379 108q-116 108 -116 289q0 84 23 215l61 348q29 162 68 249t117 159t178 106q100 33 245 33z" />
    <glyph glyph-name="Ocircumflex" unicode="&#xd4;" horiz-adv-x="1374" 
d="M911 1761l-147 -159h-254l328 305h182l221 -305h-233zM1040 1053q0 215 -229 215q-145 0 -221 -87t-115 -298l-53 -303q-18 -111 -19 -172q0 -213 228 -213q147 0 223 87t115 298l53 303q18 111 18 170zM825 1485q238 1 362 -101t124 -299q0 -86 -23 -211l-61 -350
q-29 -162 -68 -249t-115 -156q-154 -141 -416 -141t-379 108q-116 108 -116 289q0 84 23 215l61 348q29 162 68 249t117 159t178 106q100 33 245 33z" />
    <glyph glyph-name="Otilde" unicode="&#xd5;" horiz-adv-x="1374" 
d="M788 1901q88 -1 146 -53t72 -61q16 -9 40 -9t46 24q20 25 43 84h153q-41 -127 -69 -176q-66 -115 -193 -115q-92 -1 -158 61t-95 62t-57 -30t-44 -78h-156q47 129 78 174q76 117 194 117zM1040 1053q0 215 -229 215q-145 0 -221 -87t-115 -298l-53 -303
q-18 -111 -19 -172q0 -213 228 -213q147 0 223 87t115 298l53 303q18 111 18 170zM825 1485q238 1 362 -101t124 -299q0 -86 -23 -211l-61 -350q-29 -162 -68 -249t-115 -156q-154 -141 -416 -141t-379 108q-116 108 -116 289q0 84 23 215l61 348q29 162 68 249t117 159
t178 106q100 33 245 33z" />
    <glyph glyph-name="Odieresis" unicode="&#xd6;" horiz-adv-x="1374" 
d="M969 1606l45 254h225l-45 -254h-225zM557 1606l45 254h225l-43 -254h-227zM1040 1053q0 215 -229 215q-145 0 -221 -87t-115 -298l-53 -303q-18 -111 -19 -172q0 -213 228 -213q147 0 223 87t115 298l53 303q18 111 18 170zM825 1485q238 1 362 -101t124 -299
q0 -86 -23 -211l-61 -350q-29 -162 -68 -249t-115 -156q-154 -141 -416 -141t-379 108q-116 108 -116 289q0 84 23 215l61 348q29 162 68 249t117 159t178 106q100 33 245 33z" />
    <glyph glyph-name="multiply" unicode="&#xd7;" 
d="M440 731l-237 289l166 141l237 -289l342 289l117 -141l-342 -289l240 -291l-166 -141l-240 291l-340 -291l-117 141z" />
    <glyph glyph-name="Oslash" unicode="&#xd8;" horiz-adv-x="1372" 
d="M802 1268q-138 0 -212 -87q-76 -87 -113 -298l-53 -303q-8 -31 -10 -64l579 686q-53 66 -191 66zM1032 948l-581 -688q57 -66 192 -66t212 88q77 87 114 298l53 303q8 36 10 65zM1313 1092q0 -81 -25 -218l-61 -350q-27 -160 -67 -248t-119 -160t-177 -106
q-98 -33 -243 -33q-223 0 -338 82l-103 -118l-151 120l131 156q-27 74 -27 154t23 219l61 348q29 162 68 249t117 159t178 106q100 33 243 33q219 0 340 -82l99 117l151 -121l-129 -152q29 -74 29 -155z" />
    <glyph glyph-name="Ugrave" unicode="&#xd9;" horiz-adv-x="1400" 
d="M1032 1597h-182l-209 314h277zM645 197q174 0 252 122q41 70 68 226l161 917h269l-170 -964q-27 -156 -57 -229t-89 -136q-154 -154 -436 -153q-152 0 -245 30t-154 101q-84 92 -84 235q0 84 28 244l154 872h268l-161 -917q-18 -109 -19 -162q0 -186 215 -186z" />
    <glyph glyph-name="Uacute" unicode="&#xda;" horiz-adv-x="1400" 
d="M760 1597l221 314h287l-318 -314h-190zM645 197q174 0 252 122q41 70 68 226l161 917h269l-170 -964q-27 -156 -57 -229t-89 -136q-154 -154 -436 -153q-152 0 -245 30t-154 101q-84 92 -84 235q0 84 28 244l154 872h268l-161 -917q-18 -109 -19 -162q0 -186 215 -186z
" />
    <glyph glyph-name="Ucircumflex" unicode="&#xdb;" horiz-adv-x="1400" 
d="M924 1761l-148 -159h-254l328 305h182l221 -305h-233zM645 197q174 0 252 122q41 70 68 226l161 917h269l-170 -964q-27 -156 -57 -229t-89 -136q-154 -154 -436 -153q-152 0 -245 30t-154 101q-84 92 -84 235q0 84 28 244l154 872h268l-161 -917q-18 -109 -19 -162
q0 -186 215 -186z" />
    <glyph glyph-name="Udieresis" unicode="&#xdc;" horiz-adv-x="1400" 
d="M985 1606l45 254h225l-45 -254h-225zM573 1606l45 254h226l-43 -254h-228zM645 197q174 0 252 122q41 70 68 226l161 917h269l-170 -964q-27 -156 -57 -229t-89 -136q-154 -154 -436 -153q-152 0 -245 30t-154 101q-84 92 -84 235q0 84 28 244l154 872h268l-161 -917
q-18 -109 -19 -162q0 -186 215 -186z" />
    <glyph glyph-name="Yacute" unicode="&#xdd;" horiz-adv-x="1112" 
d="M637 1597l221 314h287l-318 -314h-190zM334 0l92 528l-289 934h277l186 -669l422 669h291l-619 -934l-92 -528h-268z" />
    <glyph glyph-name="Thorn" unicode="&#xde;" horiz-adv-x="1239" 
d="M672 520q143 0 205 74q82 98 81 258q0 92 -45 131t-153 39h-223l-91 -502h226zM766 1237q236 0 340 -74q127 -94 127 -270q0 -127 -37 -246q-36 -119 -104 -197t-167 -112q-99 -35 -261 -35h-254l-54 -303h-268l258 1462h268l-41 -225h193z" />
    <glyph glyph-name="germandbls" unicode="&#xdf;" horiz-adv-x="1173" 
d="M697 1479q198 0 300 -75t103 -214q0 -172 -144 -289q66 -47 91 -101q44 -95 8 -308l-13 -68q-39 -236 -140 -330t-318 -94h-121l35 203h59q117 -2 163 45t73 190l16 94q10 66 10 126t-32 86t-125 26h-33l30 184h35q86 0 125 60t39 137q0 129 -153 129q-93 0 -139 -47
t-66 -166l-189 -1067h-254l193 1092q37 205 143 296t304 91z" />
    <glyph glyph-name="agrave" unicode="&#xe0;" horiz-adv-x="1089" 
d="M821 1188h-182l-209 313h277zM500 463q-119 0 -166 -49q-51 -47 -51 -148q1 -52 37 -74t140 -22t156 57q27 33 46 125l18 111h-180zM727 750q0 121 -154 120q-127 0 -231 -104l-154 125q156 182 408 182q209 0 313 -92q72 -66 72 -188q0 -66 -20 -187l-109 -606h-199
l-10 49q-88 -72 -264 -72q-176 -1 -260 61t-84 193q0 205 93 305t339 99h244l8 47q8 41 8 68z" />
    <glyph glyph-name="aacute" unicode="&#xe1;" horiz-adv-x="1089" 
d="M549 1188l221 313h287l-318 -313h-190zM500 463q-119 0 -166 -49q-51 -47 -51 -148q1 -52 37 -74t140 -22t156 57q27 33 46 125l18 111h-180zM727 750q0 121 -154 120q-127 0 -231 -104l-154 125q156 182 408 182q209 0 313 -92q72 -66 72 -188q0 -66 -20 -187l-109 -606
h-199l-10 49q-88 -72 -264 -72q-176 -1 -260 61t-84 193q0 205 93 305t339 99h244l8 47q8 41 8 68z" />
    <glyph glyph-name="acircumflex" unicode="&#xe2;" horiz-adv-x="1089" 
d="M696 1352l-147 -160h-254l328 305h182l221 -305h-233zM500 463q-119 0 -166 -49q-51 -47 -51 -148q1 -52 37 -74t140 -22t156 57q27 33 46 125l18 111h-180zM727 750q0 121 -154 120q-127 0 -231 -104l-154 125q156 182 408 182q209 0 313 -92q72 -66 72 -188
q0 -66 -20 -187l-109 -606h-199l-10 49q-88 -72 -264 -72q-176 -1 -260 61t-84 193q0 205 93 305t339 99h244l8 47q8 41 8 68z" />
    <glyph glyph-name="atilde" unicode="&#xe3;" horiz-adv-x="1089" 
d="M571 1493q85 0 143 -51q58 -52 73 -62t38 -10q53 0 93 109h153q-51 -169 -106 -231t-153 -62t-162 61t-94 61t-58 -29q-28 -30 -43 -79h-156q45 125 78 176q76 117 194 117zM500 463q-119 0 -166 -49q-51 -47 -51 -148q1 -52 37 -74t140 -22t156 57q27 33 46 125l18 111
h-180zM727 750q0 121 -154 120q-127 0 -231 -104l-154 125q156 182 408 182q209 0 313 -92q72 -66 72 -188q0 -66 -20 -187l-109 -606h-199l-10 49q-88 -72 -264 -72q-176 -1 -260 61t-84 193q0 205 93 305t339 99h244l8 47q8 41 8 68z" />
    <glyph glyph-name="adieresis" unicode="&#xe4;" horiz-adv-x="1089" 
d="M752 1196l43 254h227l-45 -254h-225zM348 1196l45 254h225l-43 -254h-227zM500 463q-119 0 -166 -49q-51 -47 -51 -148q1 -52 37 -74t140 -22t156 57q27 33 46 125l18 111h-180zM727 750q0 121 -154 120q-127 0 -231 -104l-154 125q156 182 408 182q209 0 313 -92
q72 -66 72 -188q0 -66 -20 -187l-109 -606h-199l-10 49q-88 -72 -264 -72q-176 -1 -260 61t-84 193q0 205 93 305t339 99h244l8 47q8 41 8 68z" />
    <glyph glyph-name="aring" unicode="&#xe5;" horiz-adv-x="1089" 
d="M717 1511q-55 0 -88 -40t-33 -107q0 -80 86 -80q55 0 88 40t33 108q0 79 -86 79zM684 1167q-114 -1 -180 55t-66 160t80 174q80 72 197 72t181 -54t65 -154q0 -100 -81 -177q-81 -76 -196 -76zM500 463q-119 0 -166 -49q-51 -47 -51 -148q1 -52 37 -74t140 -22t156 57
q27 33 46 125l18 111h-180zM727 750q0 121 -154 120q-127 0 -231 -104l-154 125q156 182 408 182q209 0 313 -92q72 -66 72 -188q0 -66 -20 -187l-109 -606h-199l-10 49q-88 -72 -264 -72q-176 -1 -260 61t-84 193q0 205 93 305t339 99h244l8 47q8 41 8 68z" />
    <glyph glyph-name="ae" unicode="&#xe6;" horiz-adv-x="1699" 
d="M1386 727q0 160 -169 160q-95 1 -159 -59t-83 -166l-4 -21h405q10 39 10 86zM500 463q-117 0 -167 -50t-50 -147q1 -52 37 -74t131 -22t144 42q48 42 69 150l16 101h-180zM596 1073q135 0 235 -57q20 -12 64 -66q73 70 143 97t187 26q393 0 393 -360q0 -106 -33 -250
h-643l-6 -33q-8 -47 -8 -78q0 -176 192 -176q139 0 234 109l164 -135q-74 -92 -170 -132t-238 -41q-142 0 -219 35q-78 35 -123 113q-59 -68 -98 -88q-109 -59 -288 -59t-263 60t-84 191q0 207 93 307t339 99h244l8 47q8 41 8 68q0 121 -154 120q-131 0 -231 -104l-154 125
q156 182 408 182z" />
    <glyph glyph-name="ccedilla" unicode="&#xe7;" horiz-adv-x="980" 
d="M133 -483l164 352h244l-234 -352h-174zM612 1073q299 0 379 -229l-203 -80q-31 59 -67 83q-37 24 -100 23q-98 0 -155 -70q-56 -71 -83 -225l-16 -92q-10 -51 -11 -123q0 -178 166 -178q119 1 201 103l166 -135q-143 -172 -397 -173q-190 1 -290 93t-102 268q0 78 21 197
l10 63q23 129 54 206q32 77 87 134q123 135 340 135z" />
    <glyph glyph-name="egrave" unicode="&#xe8;" horiz-adv-x="1122" 
d="M821 1188h-182l-209 313h277zM809 725q0 162 -170 162q-96 1 -161 -59t-81 -166l-4 -21h406q10 41 10 84zM350 352q0 -176 193 -176q139 0 231 109l166 -135q-76 -94 -172 -134t-250 -39q-213 0 -316 86t-104 263q0 94 21 194l12 76q23 131 54 208q112 269 448 269
q408 0 407 -360q0 -98 -32 -250h-643l-7 -33q-8 -39 -8 -78z" />
    <glyph glyph-name="eacute" unicode="&#xe9;" horiz-adv-x="1122" 
d="M551 1188l221 313h287l-318 -313h-190zM809 725q0 162 -170 162q-96 1 -161 -59t-81 -166l-4 -21h406q10 41 10 84zM350 352q0 -176 193 -176q139 0 231 109l166 -135q-76 -94 -172 -134t-250 -39q-213 0 -316 86t-104 263q0 94 21 194l12 76q23 131 54 208
q112 269 448 269q408 0 407 -360q0 -98 -32 -250h-643l-7 -33q-8 -39 -8 -78z" />
    <glyph glyph-name="ecircumflex" unicode="&#xea;" horiz-adv-x="1122" 
d="M725 1352l-147 -160h-254l327 305h183l221 -305h-234zM809 725q0 162 -170 162q-96 1 -161 -59t-81 -166l-4 -21h406q10 41 10 84zM350 352q0 -176 193 -176q139 0 231 109l166 -135q-76 -94 -172 -134t-250 -39q-213 0 -316 86t-104 263q0 94 21 194l12 76
q23 131 54 208q112 269 448 269q408 0 407 -360q0 -98 -32 -250h-643l-7 -33q-8 -39 -8 -78z" />
    <glyph glyph-name="edieresis" unicode="&#xeb;" horiz-adv-x="1122" 
d="M780 1196l43 254h228l-45 -254h-226zM377 1196l45 254h225l-43 -254h-227zM809 725q0 162 -170 162q-96 1 -161 -59t-81 -166l-4 -21h406q10 41 10 84zM350 352q0 -176 193 -176q139 0 231 109l166 -135q-76 -94 -172 -134t-250 -39q-213 0 -316 86t-104 263q0 94 21 194
l12 76q23 131 54 208q112 269 448 269q408 0 407 -360q0 -98 -32 -250h-643l-7 -33q-8 -39 -8 -78z" />
    <glyph glyph-name="igrave" unicode="&#xec;" horiz-adv-x="561" 
d="M516 1188h-182l-209 313h276zM59 0l185 1051h256l-187 -1051h-254z" />
    <glyph glyph-name="iacute" unicode="&#xed;" horiz-adv-x="561" 
d="M272 1188l222 313h286l-317 -313h-191zM55 0l185 1051h256l-187 -1051h-254z" />
    <glyph glyph-name="icircumflex" unicode="&#xee;" horiz-adv-x="561" 
d="M434 1352l-147 -160h-254l327 305h183l221 -305h-234zM61 0l185 1051h254l-185 -1051h-254z" />
    <glyph glyph-name="idieresis" unicode="&#xef;" horiz-adv-x="561" 
d="M485 1196l45 254h226l-45 -254h-226zM82 1196l45 254h227l-45 -254h-227zM59 0l185 1051h256l-187 -1051h-254z" />
    <glyph glyph-name="eth" unicode="&#xf0;" horiz-adv-x="1144" 
d="M788 680q0 160 -161 160q-105 0 -163 -66t-85 -215l-17 -94q-14 -70 -14 -125q0 -158 162 -158q106 0 164 66t86 217l16 86q12 72 12 129zM111 477l22 131q39 219 152 322q129 113 336 112q102 0 155 -32q-29 119 -80 170l-235 -117l-60 111l168 81q-82 45 -155 58
l61 168q99 -12 163 -34t159 -77l202 103l62 -111l-160 -78q147 -184 148 -504q0 -133 -21 -235l-22 -131q-39 -228 -162 -332q-122 -104 -340 -104t-315 79q-97 80 -97 248q1 76 19 172z" />
    <glyph glyph-name="ntilde" unicode="&#xf1;" horiz-adv-x="1167" 
d="M610 1493q86 0 144 -51q58 -52 72 -62q15 -10 38 -10q53 0 92 109h154q-51 -169 -106 -231q-56 -62 -154 -62t-162 61t-93 61t-57 -29q-28 -30 -44 -79h-156q45 125 78 176q76 117 194 117zM1057 788q0 -76 -25 -215l-100 -573h-254l100 573q14 84 15 125q0 158 -142 158
q-102 0 -156 -71t-85 -242l-97 -543h-254l185 1051h192l6 -88q104 111 274 111t256 -75q85 -74 85 -211z" />
    <glyph glyph-name="ograve" unicode="&#xf2;" horiz-adv-x="1144" 
d="M834 1188h-183l-209 313h277zM518 182q106 0 162 64t82 219l22 123q12 74 13 125q0 158 -170 157q-104 0 -159 -64q-54 -65 -83 -218l-20 -123q-14 -84 -15 -121q0 -162 168 -162zM637 1073q416 0 416 -328q0 -84 -17 -172l-28 -159q-41 -232 -157 -334t-334 -102
t-320 80q-102 81 -103 249q1 72 19 170l26 160q41 233 157 335t341 101z" />
    <glyph glyph-name="oacute" unicode="&#xf3;" horiz-adv-x="1144" 
d="M551 1188l221 313h287l-318 -313h-190zM518 182q106 0 162 64t82 219l22 123q12 74 13 125q0 158 -170 157q-104 0 -159 -64q-54 -65 -83 -218l-20 -123q-14 -84 -15 -121q0 -162 168 -162zM637 1073q416 0 416 -328q0 -84 -17 -172l-28 -159q-41 -232 -157 -334
t-334 -102t-320 80q-102 81 -103 249q1 72 19 170l26 160q41 233 157 335t341 101z" />
    <glyph glyph-name="ocircumflex" unicode="&#xf4;" horiz-adv-x="1144" 
d="M727 1352l-147 -160h-254l327 305h183l221 -305h-234zM518 182q106 0 162 64t82 219l22 123q12 74 13 125q0 158 -170 157q-104 0 -159 -64q-54 -65 -83 -218l-20 -123q-14 -84 -15 -121q0 -162 168 -162zM637 1073q416 0 416 -328q0 -84 -17 -172l-28 -159
q-41 -232 -157 -334t-334 -102t-320 80q-102 81 -103 249q1 72 19 170l26 160q41 233 157 335t341 101z" />
    <glyph glyph-name="otilde" unicode="&#xf5;" horiz-adv-x="1144" 
d="M602 1493q86 0 144 -51q58 -52 72 -62q15 -10 38 -10q53 0 92 109h154q-50 -169 -106 -231t-154 -62t-162 61t-93 61q-30 0 -58 -29q-28 -30 -44 -79h-155q45 125 78 176q76 117 194 117zM518 182q106 0 162 64t82 219l22 123q12 74 13 125q0 158 -170 157
q-104 0 -159 -64q-54 -65 -83 -218l-20 -123q-14 -84 -15 -121q0 -162 168 -162zM637 1073q416 0 416 -328q0 -84 -17 -172l-28 -159q-41 -232 -157 -334t-334 -102t-320 80q-102 81 -103 249q1 72 19 170l26 160q41 233 157 335t341 101z" />
    <glyph glyph-name="odieresis" unicode="&#xf6;" horiz-adv-x="1144" 
d="M780 1196l43 254h228l-45 -254h-226zM377 1196l45 254h225l-43 -254h-227zM518 182q106 0 162 64t82 219l22 123q12 74 13 125q0 158 -170 157q-104 0 -159 -64q-54 -65 -83 -218l-20 -123q-14 -84 -15 -121q0 -162 168 -162zM637 1073q416 0 416 -328q0 -84 -17 -172
l-28 -159q-41 -232 -157 -334t-334 -102t-320 80q-102 81 -103 249q1 72 19 170l26 160q41 233 157 335t341 101z" />
    <glyph glyph-name="divide" unicode="&#xf7;" 
d="M516 967l39 223h229l-39 -223h-229zM393 270l39 224h230l-39 -224h-230zM104 625l35 204h934l-35 -204h-934z" />
    <glyph glyph-name="oslash" unicode="&#xf8;" horiz-adv-x="1144" 
d="M618 870q-95 0 -150 -64q-54 -65 -83 -218l-20 -123q-11 -68 -13 -82l402 446q-41 41 -136 41zM531 182q93 0 149 65q55 65 82 218l22 123q9 51 11 80l-402 -447q45 -39 138 -39zM1053 755q0 -90 -17 -182l-28 -159q-41 -232 -157 -334q-117 -102 -319 -102t-305 59
l-80 -86l-102 92l86 94q-37 72 -37 157t19 183l26 160q41 233 157 335t320 101q204 0 304 -59l79 88l103 -92l-86 -97q37 -68 37 -158z" />
    <glyph glyph-name="ugrave" unicode="&#xf9;" horiz-adv-x="1146" 
d="M831 1188h-182l-209 313h277zM375 350q0 -156 133 -155q96 1 147 71t82 244l97 541h253l-186 -1051h-170l-18 96q-51 -66 -116 -92t-167 -27q-152 0 -236 74t-83 207q0 88 28 244l97 549h253l-96 -551q-18 -104 -18 -150z" />
    <glyph glyph-name="uacute" unicode="&#xfa;" horiz-adv-x="1146" 
d="M551 1188l221 313h287l-318 -313h-190zM375 350q0 -156 133 -155q96 1 147 71t82 244l97 541h253l-186 -1051h-170l-18 96q-51 -66 -116 -92t-167 -27q-152 0 -236 74t-83 207q0 88 28 244l97 549h253l-96 -551q-18 -104 -18 -150z" />
    <glyph glyph-name="ucircumflex" unicode="&#xfb;" horiz-adv-x="1146" 
d="M721 1352l-148 -160h-254l328 305h182l222 -305h-234zM375 350q0 -156 133 -155q96 1 147 71t82 244l97 541h253l-186 -1051h-170l-18 96q-51 -66 -116 -92t-167 -27q-152 0 -236 74t-83 207q0 88 28 244l97 549h253l-96 -551q-18 -104 -18 -150z" />
    <glyph glyph-name="udieresis" unicode="&#xfc;" horiz-adv-x="1146" 
d="M780 1196l43 254h228l-45 -254h-226zM377 1196l45 254h225l-43 -254h-227zM375 350q0 -156 133 -155q96 1 147 71t82 244l97 541h253l-186 -1051h-170l-18 96q-51 -66 -116 -92t-167 -27q-152 0 -236 74t-83 207q0 88 28 244l97 549h253l-96 -551q-18 -104 -18 -150z" />
    <glyph glyph-name="yacute" unicode="&#xfd;" horiz-adv-x="1034" 
d="M516 1188l221 313h287l-317 -313h-191zM299 18l-178 1033h252l102 -758l352 758h265l-582 -1143q-92 -176 -159 -250t-155 -100t-270 -29l37 207q127 0 174 32t115 160z" />
    <glyph glyph-name="thorn" unicode="&#xfe;" horiz-adv-x="1161" 
d="M811 700q0 170 -154 170q-193 0 -233 -241l-37 -207q-8 -43 -8 -82q0 -158 160 -158q98 0 155 68t84 217l21 117q12 80 12 116zM713 1073q180 0 268 -78t88 -239q0 -80 -20 -185l-27 -155q-41 -238 -142 -338t-298 -101q-143 0 -258 78l-91 -516h-256l340 1923h254
l-79 -461q61 41 107 57t114 15z" />
    <glyph glyph-name="ydieresis" unicode="&#xff;" horiz-adv-x="1034" 
d="M715 1196l43 254h227l-45 -254h-225zM311 1196l45 254h226l-43 -254h-228zM299 18l-178 1033h252l102 -758l352 758h265l-582 -1143q-92 -176 -159 -250t-155 -100t-270 -29l37 207q127 0 174 32t115 160z" />
    <glyph glyph-name="Amacron" unicode="&#x100;" horiz-adv-x="1259" 
d="M518 1647l33 182h618l-32 -182h-619zM848 506l-98 639l-326 -639h424zM874 289h-552l-146 -289h-297l789 1462h258l274 -1462h-285z" />
    <glyph glyph-name="amacron" unicode="&#x101;" horiz-adv-x="1089" 
d="M356 1239l33 182h619l-33 -182h-619zM500 463q-119 0 -166 -49q-51 -47 -51 -148q1 -52 37 -74t140 -22t156 57q27 33 46 125l18 111h-180zM727 750q0 121 -154 120q-127 0 -231 -104l-154 125q156 182 408 182q209 0 313 -92q72 -66 72 -188q0 -66 -20 -187l-109 -606
h-199l-10 49q-88 -72 -264 -72q-176 -1 -260 61t-84 193q0 205 93 305t339 99h244l8 47q8 41 8 68z" />
    <glyph glyph-name="Abreve" unicode="&#x102;" horiz-adv-x="1259" 
d="M686 1864q0 -98 156 -99q90 0 132 29t66 107h164q-25 -141 -67 -199q-92 -123 -301 -123q-315 0 -316 227q0 38 10 95h158q-2 -29 -2 -37zM848 506l-98 639l-326 -639h424zM874 289h-552l-146 -289h-297l789 1462h258l274 -1462h-285z" />
    <glyph glyph-name="abreve" unicode="&#x103;" horiz-adv-x="1089" 
d="M528 1456q0 -100 156 -100q88 0 131 30t68 107h164q-25 -139 -68 -199q-92 -125 -299 -125q-317 0 -318 230q1 35 11 94h157q-2 -25 -2 -37zM500 463q-119 0 -166 -49q-51 -47 -51 -148q1 -52 37 -74t140 -22t156 57q27 33 46 125l18 111h-180zM727 750q0 121 -154 120
q-127 0 -231 -104l-154 125q156 182 408 182q209 0 313 -92q72 -66 72 -188q0 -66 -20 -187l-109 -606h-199l-10 49q-88 -72 -264 -72q-176 -1 -260 61t-84 193q0 205 93 305t339 99h244l8 47q8 41 8 68z" />
    <glyph glyph-name="Aogonek" unicode="&#x104;" horiz-adv-x="1259" 
d="M848 506l-98 639l-326 -639h424zM977 -238q0 -56 80 -57q51 0 131 25l4 -127q-100 -39 -205 -39q-244 0 -244 170q0 123 156 215q63 35 107 51h-91l-41 289h-552l-146 -289h-297l789 1462h258l274 -1462q-119 -72 -171 -127t-52 -111z" />
    <glyph glyph-name="aogonek" unicode="&#x105;" horiz-adv-x="1089" 
d="M500 463q-119 0 -166 -49q-51 -47 -51 -148q1 -52 37 -74t140 -22t156 57q27 33 46 125l18 111h-180zM629 -236q0 -59 82 -59q57 0 129 25l4 -127q-100 -39 -205 -39q-244 0 -244 170q0 121 158 215q55 33 106 51h-6l-10 49q-88 -72 -264 -72q-176 -1 -260 61t-84 193
q0 205 93 305t339 99h244l8 47q8 41 8 68q0 121 -154 120q-127 0 -231 -104l-154 125q156 182 408 182q209 0 313 -92q72 -66 72 -188q0 -66 -20 -187l-109 -606q-223 -133 -223 -236z" />
    <glyph glyph-name="Cacute" unicode="&#x106;" horiz-adv-x="1277" 
d="M727 1597l221 314h287l-317 -314h-191zM135 371q0 82 27 233l55 314q29 170 67 258t109 159q147 145 397 145t360 -98q109 -98 110 -247q0 -20 -7 -68l-249 -18v32q0 87 -54 135t-153 48q-141 0 -211 -87t-111 -311l-47 -274q-22 -117 -22 -206t52 -140t160 -51
q226 0 289 215l246 -29q-88 -403 -555 -404q-227 1 -345 101t-118 293z" />
    <glyph glyph-name="cacute" unicode="&#x107;" horiz-adv-x="980" 
d="M547 1188l221 313h287l-318 -313h-190zM612 1073q299 0 379 -229l-203 -80q-31 59 -67 83q-37 24 -100 23q-98 0 -155 -70q-56 -71 -83 -225l-16 -92q-10 -51 -11 -123q0 -178 166 -178q119 1 201 103l166 -135q-143 -172 -397 -173q-190 1 -290 93t-102 268q0 78 21 197
l10 63q23 129 54 206q32 77 87 134q123 135 340 135z" />
    <glyph glyph-name="Ccircumflex" unicode="&#x108;" horiz-adv-x="1277" 
d="M891 1761l-148 -159h-254l328 305h182l222 -305h-234zM135 371q0 82 27 233l55 314q29 170 67 258t109 159q147 145 397 145t360 -98q109 -98 110 -247q0 -20 -7 -68l-249 -18v32q0 87 -54 135t-153 48q-141 0 -211 -87t-111 -311l-47 -274q-22 -117 -22 -206t52 -140
t160 -51q226 0 289 215l246 -29q-88 -403 -555 -404q-227 1 -345 101t-118 293z" />
    <glyph glyph-name="ccircumflex" unicode="&#x109;" horiz-adv-x="980" 
d="M709 1352l-148 -160h-254l328 305h182l221 -305h-233zM612 1073q299 0 379 -229l-203 -80q-31 59 -67 83q-37 24 -100 23q-98 0 -155 -70q-56 -71 -83 -225l-16 -92q-10 -51 -11 -123q0 -178 166 -178q119 1 201 103l166 -135q-143 -172 -397 -173q-190 1 -290 93
t-102 268q0 78 21 197l10 63q23 129 54 206q32 77 87 134q123 135 340 135z" />
    <glyph glyph-name="Cdotaccent" unicode="&#x10a;" horiz-adv-x="1277" 
d="M733 1604l45 254h248l-45 -254h-248zM135 371q0 82 27 233l55 314q29 170 67 258t109 159q147 145 397 145t360 -98q109 -98 110 -247q0 -20 -7 -68l-249 -18v32q0 87 -54 135t-153 48q-141 0 -211 -87t-111 -311l-47 -274q-22 -117 -22 -206t52 -140t160 -51
q226 0 289 215l246 -29q-88 -403 -555 -404q-227 1 -345 101t-118 293z" />
    <glyph glyph-name="cdotaccent" unicode="&#x10b;" horiz-adv-x="980" 
d="M537 1196l45 254h247l-45 -254h-247zM612 1073q299 0 379 -229l-203 -80q-31 59 -67 83q-37 24 -100 23q-98 0 -155 -70q-56 -71 -83 -225l-16 -92q-10 -51 -11 -123q0 -178 166 -178q119 1 201 103l166 -135q-143 -172 -397 -173q-190 1 -290 93t-102 268q0 78 21 197
l10 63q23 129 54 206q32 77 87 134q123 135 340 135z" />
    <glyph glyph-name="Ccaron" unicode="&#x10c;" horiz-adv-x="1277" 
d="M870 1741l150 160h254l-328 -306h-182l-221 306h231zM135 371q0 82 27 233l55 314q29 170 67 258t109 159q147 145 397 145t360 -98q109 -98 110 -247q0 -20 -7 -68l-249 -18v32q0 87 -54 135t-153 48q-141 0 -211 -87t-111 -311l-47 -274q-22 -117 -22 -206t52 -140
t160 -51q226 0 289 215l246 -29q-88 -403 -555 -404q-227 1 -345 101t-118 293z" />
    <glyph glyph-name="ccaron" unicode="&#x10d;" horiz-adv-x="980" 
d="M688 1331l150 160h254l-328 -305h-182l-222 305h232zM612 1073q299 0 379 -229l-203 -80q-31 59 -67 83q-37 24 -100 23q-98 0 -155 -70q-56 -71 -83 -225l-16 -92q-10 -51 -11 -123q0 -178 166 -178q119 1 201 103l166 -135q-143 -172 -397 -173q-190 1 -290 93
t-102 268q0 78 21 197l10 63q23 129 54 206q32 77 87 134q123 135 340 135z" />
    <glyph glyph-name="Dcaron" unicode="&#x10e;" horiz-adv-x="1376" 
d="M840 1741l149 160h254l-328 -306h-182l-221 306h231zM1040 1038q0 115 -86 172q-59 37 -200 37h-181l-180 -1032h178q184 -4 273 78q88 82 127 295l51 286q18 113 18 164zM809 1462q240 0 350 -78q152 -109 152 -311q0 -78 -23 -209l-57 -329q-41 -273 -193 -405
t-424 -130h-528l258 1462h465z" />
    <glyph glyph-name="dcaron" unicode="&#x10f;" horiz-adv-x="1388" 
d="M1208 938l164 557h242l-228 -557h-178zM506 182q98 0 154 58t79 182l35 207q8 49 8 82q0 160 -159 159q-99 0 -155 -68t-83 -218l-20 -117q-12 -66 -13 -117q0 -168 154 -168zM94 293q0 84 19 188l28 154q41 236 143 337t275 101q189 1 271 -73q5 -4 10 -7l82 469h254
l-258 -1462h-197l-2 78q-6 -4 -14 -12q-94 -88 -264 -88q-347 -2 -347 315z" />
    <glyph glyph-name="Dcroat" unicode="&#x110;" horiz-adv-x="1376" 
d="M1040 1040q0 117 -86 170q-61 37 -200 37h-181l-69 -401h266l-37 -213h-268l-74 -418h180q184 -4 272 78q87 82 128 297l51 284q18 111 18 166zM809 1462q240 0 350 -78q152 -109 152 -311q0 -80 -23 -209l-57 -327q-41 -275 -193 -407t-424 -130h-528l111 633h-154
l37 213h156l108 616h465z" />
    <glyph glyph-name="dcroat" unicode="&#x111;" horiz-adv-x="1161" 
d="M506 182q98 0 154 58t79 182l35 207q8 49 8 82q0 160 -159 159q-99 0 -155 -68t-83 -218l-20 -117q-12 -66 -13 -117q0 -168 154 -168zM94 293q0 84 19 188l28 154q41 236 143 337t275 101q189 1 271 -73q5 -4 10 -7l28 162h-293l29 162h293l25 145h254l-25 -145h158
l-27 -162h-160l-204 -1155h-197l-2 78q-6 -4 -14 -12q-94 -88 -264 -88q-347 -2 -347 315z" />
    <glyph glyph-name="Emacron" unicode="&#x112;" horiz-adv-x="1189" 
d="M506 1647l33 182h618l-33 -182h-618zM88 0l258 1462h901l-39 -217h-635l-69 -395h538l-38 -217h-539l-74 -416h643l-39 -217h-907z" />
    <glyph glyph-name="emacron" unicode="&#x113;" horiz-adv-x="1122" 
d="M379 1239l33 182h618l-33 -182h-618zM809 725q0 162 -170 162q-96 1 -161 -59t-81 -166l-4 -21h406q10 41 10 84zM350 352q0 -176 193 -176q139 0 231 109l166 -135q-76 -94 -172 -134t-250 -39q-213 0 -316 86t-104 263q0 94 21 194l12 76q23 131 54 208
q112 269 448 269q408 0 407 -360q0 -98 -32 -250h-643l-7 -33q-8 -39 -8 -78z" />
    <glyph glyph-name="Ebreve" unicode="&#x114;" horiz-adv-x="1189" 
d="M690 1864q0 -98 156 -99q90 0 132 29t66 107h164q-25 -141 -67 -199q-92 -123 -301 -123q-315 0 -316 227q1 38 11 95h157q-2 -29 -2 -37zM88 0l258 1462h901l-39 -217h-635l-69 -395h538l-38 -217h-539l-74 -416h643l-39 -217h-907z" />
    <glyph glyph-name="ebreve" unicode="&#x115;" horiz-adv-x="1122" 
d="M549 1456q0 -100 156 -100q88 0 131 30t67 107h164q-25 -139 -68 -199q-92 -125 -299 -125q-317 0 -317 230q0 35 10 94h158q-2 -25 -2 -37zM809 725q0 162 -170 162q-96 1 -161 -59t-81 -166l-4 -21h406q10 41 10 84zM350 352q0 -176 193 -176q139 0 231 109l166 -135
q-76 -94 -172 -134t-250 -39q-213 0 -316 86t-104 263q0 94 21 194l12 76q23 131 54 208q112 269 448 269q408 0 407 -360q0 -98 -32 -250h-643l-7 -33q-8 -39 -8 -78z" />
    <glyph glyph-name="Edotaccent" unicode="&#x116;" horiz-adv-x="1189" 
d="M696 1604l45 254h248l-45 -254h-248zM88 0l258 1462h901l-39 -217h-635l-69 -395h538l-38 -217h-539l-74 -416h643l-39 -217h-907z" />
    <glyph glyph-name="edotaccent" unicode="&#x117;" horiz-adv-x="1122" 
d="M565 1196l45 254h248l-45 -254h-248zM809 725q0 162 -170 162q-96 1 -161 -59t-81 -166l-4 -21h406q10 41 10 84zM350 352q0 -176 193 -176q139 0 231 109l166 -135q-76 -94 -172 -134t-250 -39q-213 0 -316 86t-104 263q0 94 21 194l12 76q23 131 54 208
q112 269 448 269q408 0 407 -360q0 -98 -32 -250h-643l-7 -33q-8 -39 -8 -78z" />
    <glyph glyph-name="Eogonek" unicode="&#x118;" horiz-adv-x="1189" 
d="M772 -236q0 -59 80 -59q51 0 131 25l4 -127q-98 -39 -205 -39q-244 0 -243 170q0 158 262 266h-713l258 1462h901l-39 -217h-635l-69 -395h538l-38 -217h-539l-74 -416h643l-39 -217q-223 -135 -223 -236z" />
    <glyph glyph-name="eogonek" unicode="&#x119;" horiz-adv-x="1122" 
d="M809 725q0 162 -170 162q-96 1 -161 -59t-81 -166l-4 -21h406q10 41 10 84zM555 -236q-1 -58 69 -59q70 0 142 25l4 -127q-100 -39 -205 -39q-244 0 -243 172q0 135 163 241q-172 10 -256 66q-131 86 -131 283q0 94 21 194l12 76q23 131 54 208q112 269 448 269
q408 0 407 -360q0 -98 -32 -250h-643l-7 -33q-8 -39 -8 -78q0 -176 193 -176q139 0 231 109l166 -135q-80 -102 -192 -142q-106 -78 -150 -132t-43 -112z" />
    <glyph glyph-name="Ecaron" unicode="&#x11a;" horiz-adv-x="1189" 
d="M836 1741l149 160h254l-328 -306h-182l-221 306h231zM88 0l258 1462h901l-39 -217h-635l-69 -395h538l-38 -217h-539l-74 -416h643l-39 -217h-907z" />
    <glyph glyph-name="ecaron" unicode="&#x11b;" horiz-adv-x="1122" 
d="M707 1331l149 160h254l-328 -305h-182l-221 305h231zM809 725q0 162 -170 162q-96 1 -161 -59t-81 -166l-4 -21h406q10 41 10 84zM350 352q0 -176 193 -176q139 0 231 109l166 -135q-76 -94 -172 -134t-250 -39q-213 0 -316 86t-104 263q0 94 21 194l12 76q23 131 54 208
q112 269 448 269q408 0 407 -360q0 -98 -32 -250h-643l-7 -33q-8 -39 -8 -78z" />
    <glyph glyph-name="Gcircumflex" unicode="&#x11c;" horiz-adv-x="1351" 
d="M901 1761l-147 -159h-254l327 305h183l221 -305h-234zM637 -23q-274 -1 -388 107t-114 291q0 94 25 229l55 314q29 168 68 257t112 160q151 145 397 145t368 -91q122 -92 122 -261q0 -23 -6 -61l-250 -18q0 57 -4 75q-25 139 -215 140q-147 0 -220 -87t-112 -311
l-49 -274q-20 -113 -20 -182q0 -111 55 -163t183 -52q260 0 310 305l17 96h-246l37 207h512l-49 -277q-27 -156 -62 -238t-100 -151q-152 -160 -426 -160z" />
    <glyph glyph-name="gcircumflex" unicode="&#x11d;" horiz-adv-x="1161" 
d="M733 1352l-147 -160h-254l327 305h183l221 -305h-234zM348 352q0 -170 154 -170q98 0 154 58t79 182l37 207q6 39 6 82q0 160 -160 159q-98 0 -154 -68t-83 -218l-21 -117q-12 -59 -12 -115zM438 -23q-348 0 -348 320q0 68 19 184l28 154q41 238 143 338t296 100
q196 0 288 -98l39 76h197l-180 -1024q-43 -246 -154 -363q-139 -145 -381 -145q-301 0 -387 198l207 109q29 -59 69 -84t111 -25q225 1 274 275l11 59q-90 -74 -232 -74z" />
    <glyph glyph-name="Gbreve" unicode="&#x11e;" horiz-adv-x="1351" 
d="M733 1864q0 -98 156 -99q90 0 132 29t66 107h164q-25 -141 -67 -199q-92 -123 -301 -123q-315 0 -316 227q1 38 11 95h157q-2 -29 -2 -37zM637 -23q-274 -1 -388 107t-114 291q0 94 25 229l55 314q29 168 68 257t112 160q151 145 397 145t368 -91q122 -92 122 -261
q0 -23 -6 -61l-250 -18q0 57 -4 75q-25 139 -215 140q-147 0 -220 -87t-112 -311l-49 -274q-20 -113 -20 -182q0 -111 55 -163t183 -52q260 0 310 305l17 96h-246l37 207h512l-49 -277q-27 -156 -62 -238t-100 -151q-152 -160 -426 -160z" />
    <glyph glyph-name="gbreve" unicode="&#x11f;" horiz-adv-x="1161" 
d="M592 1456q0 -100 156 -100q88 0 131 30t67 107h164q-25 -139 -68 -199q-92 -125 -299 -125q-317 0 -317 230q0 35 10 94h158q-2 -25 -2 -37zM348 352q0 -170 154 -170q98 0 154 58t79 182l37 207q6 39 6 82q0 160 -160 159q-98 0 -154 -68t-83 -218l-21 -117
q-12 -59 -12 -115zM438 -23q-348 0 -348 320q0 68 19 184l28 154q41 238 143 338t296 100q196 0 288 -98l39 76h197l-180 -1024q-43 -246 -154 -363q-139 -145 -381 -145q-301 0 -387 198l207 109q29 -59 69 -84t111 -25q225 1 274 275l11 59q-90 -74 -232 -74z" />
    <glyph glyph-name="Gdotaccent" unicode="&#x120;" horiz-adv-x="1351" 
d="M741 1604l45 254h248l-45 -254h-248zM637 -23q-274 -1 -388 107t-114 291q0 94 25 229l55 314q29 168 68 257t112 160q151 145 397 145t368 -91q122 -92 122 -261q0 -23 -6 -61l-250 -18q0 57 -4 75q-25 139 -215 140q-147 0 -220 -87t-112 -311l-49 -274
q-20 -113 -20 -182q0 -111 55 -163t183 -52q260 0 310 305l17 96h-246l37 207h512l-49 -277q-27 -156 -62 -238t-100 -151q-152 -160 -426 -160z" />
    <glyph glyph-name="gdotaccent" unicode="&#x121;" horiz-adv-x="1161" 
d="M608 1196l45 254h248l-45 -254h-248zM348 352q0 -170 154 -170q98 0 154 58t79 182l37 207q6 39 6 82q0 160 -160 159q-98 0 -154 -68t-83 -218l-21 -117q-12 -59 -12 -115zM438 -23q-348 0 -348 320q0 68 19 184l28 154q41 238 143 338t296 100q196 0 288 -98l39 76h197
l-180 -1024q-43 -246 -154 -363q-139 -145 -381 -145q-301 0 -387 198l207 109q29 -59 69 -84t111 -25q225 1 274 275l11 59q-90 -74 -232 -74z" />
    <glyph glyph-name="Gcommaaccent" unicode="&#x122;" horiz-adv-x="1351" 
d="M309 -483l164 352h244l-234 -352h-174zM637 -23q-274 -1 -388 107t-114 291q0 94 25 229l55 314q29 168 68 257t112 160q151 145 397 145t368 -91q122 -92 122 -261q0 -23 -6 -61l-250 -18q0 57 -4 75q-25 139 -215 140q-147 0 -220 -87t-112 -311l-49 -274
q-20 -113 -20 -182q0 -111 55 -163t183 -52q260 0 310 305l17 96h-246l37 207h512l-49 -277q-27 -156 -62 -238t-100 -151q-152 -160 -426 -160z" />
    <glyph glyph-name="gcommaaccent" unicode="&#x123;" horiz-adv-x="1161" 
d="M561 1188l318 313h190l-221 -313h-287zM348 352q0 -170 154 -170q98 0 154 58t79 182l37 207q6 39 6 82q0 160 -160 159q-98 0 -154 -68t-83 -218l-21 -117q-12 -59 -12 -115zM438 -23q-348 0 -348 320q0 68 19 184l28 154q41 238 143 338t296 100q196 0 288 -98l39 76
h197l-180 -1024q-43 -246 -154 -363q-139 -145 -381 -145q-301 0 -387 198l207 109q29 -59 69 -84t111 -25q225 1 274 275l11 59q-90 -74 -232 -74z" />
    <glyph glyph-name="Hcircumflex" unicode="&#x124;" horiz-adv-x="1390" 
d="M922 1761l-148 -159h-254l328 305h182l221 -305h-233zM88 0l258 1462h268l-108 -612h493l109 612h268l-256 -1462h-268l111 633h-496l-111 -633h-268z" />
    <glyph glyph-name="hcircumflex" unicode="&#x125;" horiz-adv-x="1167" 
d="M571 1761l-147 -159h-254l328 305h182l221 -305h-233zM725 1073q156 0 244 -75t88 -207q0 -84 -25 -218l-100 -573h-254l102 588q12 68 13 110q0 156 -142 156q-100 0 -155 -69t-84 -226l-99 -559h-254l258 1462h254l-82 -465q70 45 116 61t120 15z" />
    <glyph glyph-name="Hbar" unicode="&#x126;" horiz-adv-x="1390" 
d="M506 850h495l29 166h-495zM88 0l178 1016h-149l33 190h151l45 256h268l-45 -256h494l45 256h268l-45 -256h152l-33 -190h-152l-178 -1016h-268l111 633h-496l-111 -633h-268z" />
    <glyph glyph-name="hbar" unicode="&#x127;" horiz-adv-x="1167" 
d="M725 1073q156 0 244 -75t88 -207q0 -84 -25 -218l-100 -573h-254l102 588q12 66 13 112q0 154 -142 154q-98 0 -155 -70t-84 -225l-99 -559h-254l203 1155h-158l31 170h158l24 137h254l-24 -137h293l-29 -170h-293l-29 -158q70 45 116 61t120 15z" />
    <glyph glyph-name="Itilde" unicode="&#x128;" horiz-adv-x="628" 
d="M416 1901q88 -1 145 -53t73 -61t40 -9q25 0 45 24t43 84h153q-41 -127 -69 -176q-66 -115 -193 -115q-91 -1 -157 61t-96 62t-58 -30t-43 -78h-156q47 129 78 174q76 117 195 117zM88 0l258 1462h268l-258 -1462h-268z" />
    <glyph glyph-name="itilde" unicode="&#x129;" horiz-adv-x="561" 
d="M309 1493q85 0 143 -51q58 -52 73 -62t38 -10q53 0 92 109h154q-51 -169 -107 -231t-153 -62t-161 61t-94 61t-58 -29q-28 -30 -43 -79h-156q45 125 78 176q76 117 194 117zM59 0l185 1051h256l-187 -1051h-254z" />
    <glyph glyph-name="Imacron" unicode="&#x12a;" horiz-adv-x="628" 
d="M203 1647l33 182h618l-33 -182h-618zM88 0l258 1462h268l-258 -1462h-268z" />
    <glyph glyph-name="imacron" unicode="&#x12b;" horiz-adv-x="561" 
d="M96 1239l33 182h619l-33 -182h-619zM59 0l185 1051h256l-187 -1051h-254z" />
    <glyph glyph-name="Ibreve" unicode="&#x12c;" horiz-adv-x="628" 
d="M377 1864q0 -98 155 -99q90 0 133 29q42 29 66 107h164q-25 -141 -68 -199q-92 -123 -301 -123q-315 0 -315 227q0 38 10 95h158q-2 -29 -2 -37zM88 0l258 1462h268l-258 -1462h-268z" />
    <glyph glyph-name="ibreve" unicode="&#x12d;" horiz-adv-x="561" 
d="M270 1456q0 -100 156 -100q88 0 131 30t68 107h163q-25 -139 -67 -199q-92 -125 -299 -125q-317 0 -318 230q1 35 11 94h157q-2 -25 -2 -37zM59 0l185 1051h256l-187 -1051h-254z" />
    <glyph glyph-name="Iogonek" unicode="&#x12e;" horiz-adv-x="628" 
d="M141 -231q1 -63 67 -63t134 24l4 -127q-94 -39 -201 -39q-238 0 -237 174q0 80 60 141t194 121h-74l256 1462h268l-256 -1462q-215 -129 -215 -231z" />
    <glyph glyph-name="iogonek" unicode="&#x12f;" horiz-adv-x="561" 
d="M274 1212l45 263h256l-47 -263h-254zM100 -231q0 -63 66 -63t135 24l4 -127q-94 -39 -201 -39q-238 0 -237 174q1 78 67 146t187 116h-62l187 1051h254l-185 -1051q-215 -127 -215 -231z" />
    <glyph glyph-name="Idotaccent" unicode="&#x130;" horiz-adv-x="628" 
d="M381 1604l45 254h248l-45 -254h-248zM88 0l258 1462h268l-258 -1462h-268z" />
    <glyph glyph-name="dotlessi" unicode="&#x131;" horiz-adv-x="561" 
d="M59 0l185 1051h256l-187 -1051h-254z" />
    <glyph glyph-name="IJ" unicode="&#x132;" horiz-adv-x="1255" 
d="M481 -283q129 0 191 127q29 61 61 250l242 1368h268l-246 -1399q-33 -178 -57 -257q-95 -306 -440 -306q-123 0 -250 43l125 201q53 -27 106 -27zM88 0l258 1462h268l-258 -1462h-268z" />
    <glyph glyph-name="ij" unicode="&#x133;" horiz-adv-x="1132" 
d="M815 1051h256l-184 -1037q-45 -301 -158 -395t-422 -90l37 207q135 -4 200 55t87 209zM846 1212l45 263h254l-45 -263h-254zM59 0l185 1051h256l-187 -1051h-254zM274 1212l45 263h254l-45 -263h-254z" />
    <glyph glyph-name="Jcircumflex" unicode="&#x134;" horiz-adv-x="989" 
d="M846 1761l-148 -159h-254l328 305h182l222 -305h-234zM332 -20q-136 0 -234 38t-198 136l178 176q104 -133 233 -133t187 127q29 63 61 249l158 889h268l-162 -917q-37 -207 -55 -269t-61 -124q-117 -172 -375 -172z" />
    <glyph glyph-name="jcircumflex" unicode="&#x135;" horiz-adv-x="573" 
d="M428 1352l-147 -160h-254l327 305h183l221 -305h-234zM256 1051h254l-182 -1037q-45 -301 -159 -395t-423 -90l37 207q135 -4 200 55t87 209z" />
    <glyph glyph-name="Kcommaaccent" unicode="&#x136;" horiz-adv-x="1261" 
d="M295 -483l164 352h243l-233 -352h-174zM90 0l258 1462h264l-114 -657l610 657h313l-585 -598l358 -864h-309l-254 682l-191 -197l-84 -485h-266z" />
    <glyph glyph-name="kcommaaccent" unicode="&#x137;" horiz-adv-x="1083" 
d="M207 -483l164 352h243l-233 -352h-174zM59 0l258 1462h254l-159 -901l460 490h291l-440 -445l274 -606h-276l-189 444l-172 -178l-47 -266h-254z" />
    <glyph glyph-name="kgreenlandic" unicode="&#x138;" horiz-adv-x="1083" 
d="M59 0l185 1051h256l-88 -490l460 490h291l-440 -445l274 -606h-276l-189 444l-172 -178l-47 -266h-254z" />
    <glyph glyph-name="Lacute" unicode="&#x139;" horiz-adv-x="1110" 
d="M430 1597l221 314h287l-317 -314h-191zM86 0l258 1462h268l-219 -1245h639l-39 -217h-907z" />
    <glyph glyph-name="lacute" unicode="&#x13a;" horiz-adv-x="628" 
d="M358 1597l222 314h286l-317 -314h-191zM373 326q0 -68 35 -94t124 -25h33l-35 -207h-45q-207 0 -289 54t-81 194q0 74 24 221l174 993h256l-184 -1042q-12 -74 -12 -94z" />
    <glyph glyph-name="Lcommaaccent" unicode="&#x13b;" horiz-adv-x="1110" 
d="M250 -483l164 352h243l-233 -352h-174zM86 0l258 1462h268l-219 -1245h639l-39 -217h-907z" />
    <glyph glyph-name="lcommaaccent" unicode="&#x13c;" horiz-adv-x="630" 
d="M-35 -483l164 352h244l-234 -352h-174zM367 326q1 -68 35 -94t124 -25h35l-37 -207h-45q-207 0 -289 54t-81 194q0 80 24 221l176 993h254l-184 -1042q-12 -70 -12 -94z" />
    <glyph glyph-name="Lcaron" unicode="&#x13d;" horiz-adv-x="1110" 
d="M700 938l164 557h242l-227 -557h-179zM86 0l258 1462h268l-219 -1245h639l-39 -217h-907z" />
    <glyph glyph-name="lcaron" unicode="&#x13e;" horiz-adv-x="786" 
d="M604 938l164 557h242l-228 -557h-178zM373 326q0 -68 35 -94t124 -25h33l-35 -207h-45q-207 0 -289 54t-81 194q0 74 24 221l174 993h256l-184 -1042q-12 -74 -12 -94z" />
    <glyph glyph-name="Ldot" unicode="&#x13f;" horiz-adv-x="1110" 
d="M752 598l45 260h229l-45 -260h-229zM86 0l258 1462h268l-219 -1245h639l-39 -217h-907z" />
    <glyph glyph-name="ldot" unicode="&#x140;" horiz-adv-x="755" 
d="M553 598l45 260h229l-45 -260h-229zM373 326q0 -68 35 -94t124 -25h33l-35 -207h-45q-207 0 -289 54t-81 194q0 74 24 221l174 993h256l-184 -1042q-12 -74 -12 -94z" />
    <glyph glyph-name="Lslash" unicode="&#x141;" horiz-adv-x="1110" 
d="M88 0l70 391l-160 -88l41 234l160 90l147 835h268l-120 -686l419 236l-41 -236l-419 -233l-58 -326h639l-39 -217h-907z" />
    <glyph glyph-name="lslash" unicode="&#x142;" horiz-adv-x="675" 
d="M510 0q-207 0 -289 54t-82 192q0 74 8 110l27 154l-205 -115l43 242l201 113l125 712h254l-100 -569l258 143l-43 -241l-256 -142l-43 -233q-10 -62 -10 -112t34 -76q35 -26 125 -25h33l-37 -207h-43z" />
    <glyph glyph-name="Nacute" unicode="&#x143;" horiz-adv-x="1464" 
d="M807 1597l221 314h287l-318 -314h-190zM88 0l258 1462h260l406 -1011l178 1011h260l-258 -1462h-260l-406 1012l-178 -1012h-260z" />
    <glyph glyph-name="nacute" unicode="&#x144;" horiz-adv-x="1167" 
d="M586 1188l221 313h287l-318 -313h-190zM1057 788q0 -76 -25 -215l-100 -573h-254l100 573q14 84 15 125q0 158 -142 158q-102 0 -156 -71t-85 -242l-97 -543h-254l185 1051h192l6 -88q104 111 274 111t256 -75q85 -74 85 -211z" />
    <glyph glyph-name="Ncommaaccent" unicode="&#x145;" horiz-adv-x="1464" 
d="M385 -483l164 352h244l-234 -352h-174zM88 0l258 1462h260l406 -1011l178 1011h260l-258 -1462h-260l-406 1012l-178 -1012h-260z" />
    <glyph glyph-name="ncommaaccent" unicode="&#x146;" horiz-adv-x="1167" 
d="M236 -483l163 352h244l-233 -352h-174zM1057 788q0 -76 -25 -215l-100 -573h-254l100 573q14 84 15 125q0 158 -142 158q-102 0 -156 -71t-85 -242l-97 -543h-254l185 1051h192l6 -88q104 111 274 111t256 -75q85 -74 85 -211z" />
    <glyph glyph-name="Ncaron" unicode="&#x147;" horiz-adv-x="1464" 
d="M948 1741l150 160h254l-328 -306h-182l-221 306h231zM88 0l258 1462h260l406 -1011l178 1011h260l-258 -1462h-260l-406 1012l-178 -1012h-260z" />
    <glyph glyph-name="ncaron" unicode="&#x148;" horiz-adv-x="1167" 
d="M707 1331l149 160h254l-328 -305h-182l-221 305h231zM1057 788q0 -76 -25 -215l-100 -573h-254l100 573q14 84 15 125q0 158 -142 158q-102 0 -156 -71t-85 -242l-97 -543h-254l185 1051h192l6 -88q104 111 274 111t256 -75q85 -74 85 -211z" />
    <glyph glyph-name="napostrophe" unicode="&#x149;" horiz-adv-x="1337" 
d="M57 934l160 528h272l-210 -528h-222zM1217 788q0 -80 -23 -215l-102 -573h-254l102 573q12 74 12 125q0 158 -141 158q-103 0 -157 -71t-85 -242l-94 -543h-256l187 1051h190l6 -88q109 111 277 111t253 -75q85 -74 85 -211z" />
    <glyph glyph-name="Eng" unicode="&#x14a;" horiz-adv-x="1464" 
d="M88 0l258 1462h260l406 -1003l178 1003h260l-254 -1439q-47 -295 -165 -395t-413 -99l37 203q131 -6 197 51t90 201l6 39l-422 989l-178 -1012h-260z" />
    <glyph glyph-name="eng" unicode="&#x14b;" horiz-adv-x="1167" 
d="M1057 788q0 -76 -25 -215l-100 -575q-45 -283 -162 -377t-418 -92l37 207q135 -4 200 54t89 210l100 573q14 84 15 125q0 158 -142 158q-102 0 -156 -71t-85 -242l-97 -543h-254l185 1051h192l6 -88q104 111 274 111t256 -75q85 -74 85 -211z" />
    <glyph glyph-name="Omacron" unicode="&#x14c;" horiz-adv-x="1374" 
d="M575 1647l33 182h619l-33 -182h-619zM1040 1053q0 215 -229 215q-145 0 -221 -87t-115 -298l-53 -303q-18 -111 -19 -172q0 -213 228 -213q147 0 223 87t115 298l53 303q18 111 18 170zM825 1485q238 1 362 -101t124 -299q0 -86 -23 -211l-61 -350q-29 -162 -68 -249
t-115 -156q-154 -141 -416 -141t-379 108q-116 108 -116 289q0 84 23 215l61 348q29 162 68 249t117 159t178 106q100 33 245 33z" />
    <glyph glyph-name="omacron" unicode="&#x14d;" horiz-adv-x="1144" 
d="M385 1239l33 182h618l-32 -182h-619zM518 182q106 0 162 64t82 219l22 123q12 74 13 125q0 158 -170 157q-104 0 -159 -64q-54 -65 -83 -218l-20 -123q-14 -84 -15 -121q0 -162 168 -162zM637 1073q416 0 416 -328q0 -84 -17 -172l-28 -159q-41 -232 -157 -334t-334 -102
t-320 80q-102 81 -103 249q1 72 19 170l26 160q41 233 157 335t341 101z" />
    <glyph glyph-name="Obreve" unicode="&#x14e;" horiz-adv-x="1374" 
d="M748 1864q0 -98 155 -99q90 0 132 29t67 107h164q-25 -141 -68 -199q-92 -123 -301 -123q-315 0 -315 227q0 38 10 95h158q-2 -29 -2 -37zM1040 1053q0 215 -229 215q-145 0 -221 -87t-115 -298l-53 -303q-18 -111 -19 -172q0 -213 228 -213q147 0 223 87t115 298l53 303
q18 111 18 170zM825 1485q238 1 362 -101t124 -299q0 -86 -23 -211l-61 -350q-29 -162 -68 -249t-115 -156q-154 -141 -416 -141t-379 108q-116 108 -116 289q0 84 23 215l61 348q29 162 68 249t117 159t178 106q100 33 245 33z" />
    <glyph glyph-name="obreve" unicode="&#x14f;" horiz-adv-x="1144" 
d="M563 1456q0 -100 156 -100q88 0 131 30t68 107h163q-25 -139 -67 -199q-92 -125 -299 -125q-317 0 -318 230q1 35 11 94h157q-2 -25 -2 -37zM518 182q106 0 162 64t82 219l22 123q12 74 13 125q0 158 -170 157q-104 0 -159 -64q-54 -65 -83 -218l-20 -123
q-14 -84 -15 -121q0 -162 168 -162zM637 1073q416 0 416 -328q0 -84 -17 -172l-28 -159q-41 -232 -157 -334t-334 -102t-320 80q-102 81 -103 249q1 72 19 170l26 160q41 233 157 335t341 101z" />
    <glyph glyph-name="Ohungarumlaut" unicode="&#x150;" horiz-adv-x="1374" 
d="M932 1597l186 314h258l-268 -314h-176zM596 1597l186 314h258l-268 -314h-176zM1040 1053q0 215 -229 215q-145 0 -221 -87t-115 -298l-53 -303q-18 -111 -19 -172q0 -213 228 -213q147 0 223 87t115 298l53 303q18 111 18 170zM825 1485q238 1 362 -101t124 -299
q0 -86 -23 -211l-61 -350q-29 -162 -68 -249t-115 -156q-154 -141 -416 -141t-379 108q-116 108 -116 289q0 84 23 215l61 348q29 162 68 249t117 159t178 106q100 33 245 33z" />
    <glyph glyph-name="ohungarumlaut" unicode="&#x151;" horiz-adv-x="1144" 
d="M748 1188l186 313h258l-268 -313h-176zM412 1188l186 313h258l-268 -313h-176zM518 182q106 0 162 64t82 219l22 123q12 74 13 125q0 158 -170 157q-104 0 -159 -64q-54 -65 -83 -218l-20 -123q-14 -84 -15 -121q0 -162 168 -162zM637 1073q416 0 416 -328
q0 -84 -17 -172l-28 -159q-41 -232 -157 -334t-334 -102t-320 80q-102 81 -103 249q1 72 19 170l26 160q41 233 157 335t341 101z" />
    <glyph glyph-name="OE" unicode="&#x152;" horiz-adv-x="1972" 
d="M406 414q0 -219 231 -219q145 0 223 88t115 292l53 299q18 111 19 173q0 221 -234 221q-145 0 -221 -87t-113 -294l-55 -312q-18 -100 -18 -161zM135 371q0 96 23 215l63 354q29 158 66 247t104 156q143 141 371 141t330 -79q14 -13 34 -39t27 -35l23 131h856l-39 -217
h-635l-70 -395h537l-39 -217h-537l-71 -416h641l-39 -217h-862l22 127l-47 -49q-96 -100 -311 -100t-331 102t-116 291z" />
    <glyph glyph-name="oe" unicode="&#x153;" horiz-adv-x="1777" 
d="M1464 727q0 160 -170 160q-96 1 -159 -59t-82 -166l-4 -21h405q10 39 10 86zM518 180q106 0 162 64t82 219l22 123q12 74 13 127q0 158 -170 157q-104 0 -159 -64q-54 -65 -83 -220l-20 -123q-14 -80 -15 -121q0 -162 168 -162zM623 1073q131 0 209 -35t126 -112
q74 82 150 114t190 33q397 0 398 -360q0 -106 -31 -250h-645l-6 -33q-6 -33 -6 -78q0 -176 192 -176q137 0 232 109l163 -135q-137 -172 -407 -173q-176 0 -268 60q-37 25 -78 88q-58 -80 -138 -114t-208 -34q-401 0 -402 330q1 70 19 170l26 160q41 233 154 335t330 101z
" />
    <glyph glyph-name="Racute" unicode="&#x154;" horiz-adv-x="1316" 
d="M694 1597l221 314h287l-317 -314h-191zM754 807q133 0 196 65q74 80 74 220q0 84 -47 120t-156 35h-248l-77 -440h258zM854 1462q233 0 339 -81t105 -242q0 -117 -34 -227q-87 -277 -328 -291l209 -621h-297l-178 600h-205l-107 -600h-268l258 1462h506z" />
    <glyph glyph-name="racute" unicode="&#x155;" horiz-adv-x="800" 
d="M430 1188l221 313h287l-317 -313h-191zM629 856q-89 0 -141 -82t-85 -266l-90 -508h-254l185 1051h196l17 -82q63 59 112 82t137 23t199 -66l-147 -209q-66 57 -129 57z" />
    <glyph glyph-name="Rcommaaccent" unicode="&#x156;" horiz-adv-x="1316" 
d="M307 -483l164 352h244l-234 -352h-174zM754 807q133 0 196 65q74 80 74 220q0 84 -47 120t-156 35h-248l-77 -440h258zM854 1462q233 0 339 -81t105 -242q0 -117 -34 -227q-87 -277 -328 -291l209 -621h-297l-178 600h-205l-107 -600h-268l258 1462h506z" />
    <glyph glyph-name="rcommaaccent" unicode="&#x157;" horiz-adv-x="800" 
d="M-119 -483l164 352h244l-234 -352h-174zM616 856q-76 0 -128 -82t-85 -266l-90 -508h-254l185 1051h196l17 -82q63 59 112 82t137 23t199 -66l-147 -209q-66 57 -142 57z" />
    <glyph glyph-name="Rcaron" unicode="&#x158;" horiz-adv-x="1316" 
d="M817 1741l150 160h254l-328 -306h-182l-222 306h232zM754 807q133 0 196 65q74 80 74 220q0 84 -47 120t-156 35h-248l-77 -440h258zM854 1462q233 0 339 -81t105 -242q0 -117 -34 -227q-87 -277 -328 -291l209 -621h-297l-178 600h-205l-107 -600h-268l258 1462h506z
" />
    <glyph glyph-name="rcaron" unicode="&#x159;" horiz-adv-x="800" 
d="M578 1331l149 160h254l-328 -305h-182l-221 305h231zM629 856q-89 0 -141 -82t-85 -266l-90 -508h-254l185 1051h196l17 -82q63 59 112 82t137 23t199 -66l-147 -209q-66 57 -129 57z" />
    <glyph glyph-name="Sacute" unicode="&#x15a;" horiz-adv-x="1177" 
d="M639 1597l221 314h287l-318 -314h-190zM188 993q0 225 144 357t393 133q358 0 461 -219l-223 -129q-70 131 -256 131q-113 0 -182 -64t-69 -152t55 -128q53 -40 225 -87q172 -46 249 -104q111 -86 111 -246q0 -243 -151 -375t-417 -132t-411 94q-80 53 -125 149l229 131
q63 -158 307 -157q139 0 220 64q80 65 79 177q0 74 -51 113q-30 21 -60 31t-192 53q-336 89 -336 360z" />
    <glyph glyph-name="sacute" unicode="&#x15b;" horiz-adv-x="1001" 
d="M479 1188l221 313h287l-317 -313h-191zM422 176q102 0 162 42q59 42 59 116q0 45 -31 64q-30 20 -184 38t-226 83t-71 190q0 170 111 267q110 97 312 97t312 -88q51 -39 86 -113l-196 -104q-66 106 -205 106q-78 0 -125 -38t-47 -94t33 -75t131 -32q197 -19 273 -81
t75 -198q0 -379 -477 -379q-350 0 -430 201l204 109q70 -111 234 -111z" />
    <glyph glyph-name="Scircumflex" unicode="&#x15c;" horiz-adv-x="1177" 
d="M815 1761l-147 -159h-254l327 305h183l221 -305h-234zM188 993q0 225 144 357t393 133q358 0 461 -219l-223 -129q-70 131 -256 131q-113 0 -182 -64t-69 -152t55 -128q53 -40 225 -87q172 -46 249 -104q111 -86 111 -246q0 -243 -151 -375t-417 -132t-411 94
q-80 53 -125 149l229 131q63 -158 307 -157q139 0 220 64q80 65 79 177q0 74 -51 113q-30 21 -60 31t-192 53q-336 89 -336 360z" />
    <glyph glyph-name="scircumflex" unicode="&#x15d;" horiz-adv-x="1001" 
d="M651 1352l-147 -160h-254l328 305h182l221 -305h-233zM422 176q102 0 162 42q59 42 59 116q0 45 -31 64q-30 20 -184 38t-226 83t-71 190q0 170 111 267q110 97 312 97t312 -88q51 -39 86 -113l-196 -104q-66 106 -205 106q-78 0 -125 -38t-47 -94t33 -75t131 -32
q197 -19 273 -81t75 -198q0 -379 -477 -379q-350 0 -430 201l204 109q70 -111 234 -111z" />
    <glyph glyph-name="Scedilla" unicode="&#x15e;" horiz-adv-x="1177" 
d="M211 -483l164 352h243l-233 -352h-174zM188 993q0 225 144 357t393 133q358 0 461 -219l-223 -129q-70 131 -256 131q-113 0 -182 -64t-69 -152t55 -128q53 -40 225 -87q172 -46 249 -104q111 -86 111 -246q0 -243 -151 -375t-417 -132t-411 94q-80 53 -125 149l229 131
q63 -158 307 -157q139 0 220 64q80 65 79 177q0 74 -51 113q-30 21 -60 31t-192 53q-336 89 -336 360z" />
    <glyph glyph-name="scedilla" unicode="&#x15f;" horiz-adv-x="1001" 
d="M127 -483l164 352h244l-234 -352h-174zM422 176q102 0 162 42q59 42 59 116q0 45 -31 64q-30 20 -184 38t-226 83t-71 190q0 170 111 267q110 97 312 97t312 -88q51 -39 86 -113l-196 -104q-66 106 -205 106q-78 0 -125 -38t-47 -94t33 -75t131 -32q197 -19 273 -81
t75 -198q0 -379 -477 -379q-350 0 -430 201l204 109q70 -111 234 -111z" />
    <glyph glyph-name="Scaron" unicode="&#x160;" horiz-adv-x="1177" 
d="M784 1741l150 160h254l-328 -306h-182l-221 306h231zM188 993q0 225 144 357t393 133q358 0 461 -219l-223 -129q-70 131 -256 131q-113 0 -182 -64t-69 -152t55 -128q53 -40 225 -87q172 -46 249 -104q111 -86 111 -246q0 -243 -151 -375t-417 -132t-411 94
q-80 53 -125 149l229 131q63 -158 307 -157q139 0 220 64q80 65 79 177q0 74 -51 113q-30 21 -60 31t-192 53q-336 89 -336 360z" />
    <glyph glyph-name="scaron" unicode="&#x161;" horiz-adv-x="1001" 
d="M629 1331l149 160h254l-327 -305h-183l-221 305h231zM422 176q102 0 162 42q59 42 59 116q0 45 -31 64q-30 20 -184 38t-226 83t-71 190q0 170 111 267q110 97 312 97t312 -88q51 -39 86 -113l-196 -104q-66 106 -205 106q-78 0 -125 -38t-47 -94t33 -75t131 -32
q197 -19 273 -81t75 -198q0 -379 -477 -379q-350 0 -430 201l204 109q70 -111 234 -111z" />
    <glyph glyph-name="Tcommaaccent" unicode="&#x162;" horiz-adv-x="1136" 
d="M174 -483l164 352h244l-234 -352h-174zM344 0l219 1245h-399l39 217h1065l-39 -217h-398l-219 -1245h-268z" />
    <glyph glyph-name="tcommaaccent" unicode="&#x163;" horiz-adv-x="708" 
d="M10 -483l164 352h244l-236 -352h-172zM516 0q-211 0 -292 52t-81 188q0 84 25 231l68 379h-119l35 201h124l70 307h234l-54 -307h207l-35 -201h-209l-71 -408q-16 -92 -16 -139t32 -72q33 -25 123 -24h29l-37 -207h-33z" />
    <glyph glyph-name="Tcaron" unicode="&#x164;" horiz-adv-x="1136" 
d="M774 1741l150 160h254l-328 -306h-182l-222 306h232zM344 0l219 1245h-399l39 217h1065l-39 -217h-398l-219 -1245h-268z" />
    <glyph glyph-name="tcaron" unicode="&#x165;" horiz-adv-x="862" 
d="M721 1180l141 467h242l-205 -467h-178zM516 0q-211 0 -292 52t-81 188q0 94 25 231l68 379h-119l35 201h124l70 307h234l-56 -307h209l-35 -201h-209l-71 -408q-16 -98 -17 -120q0 -66 33 -91t123 -24h29l-37 -207h-33z" />
    <glyph glyph-name="Tbar" unicode="&#x166;" horiz-adv-x="1136" 
d="M344 0l111 633h-258l36 213h261l69 399h-399l39 217h1065l-39 -217h-398l-69 -399h256l-37 -213h-258l-111 -633h-268z" />
    <glyph glyph-name="tbar" unicode="&#x167;" horiz-adv-x="716" 
d="M414 307q0 -51 34 -76t121 -24h27l-35 -207h-33q-215 0 -296 51t-80 189q0 74 14 145l27 156h-119l30 170h119l25 139h-119l35 201h119l69 307h240l-55 -307h208l-34 -201h-209l-25 -139h209l-31 -170h-209l-26 -152q-6 -31 -6 -82z" />
    <glyph glyph-name="Utilde" unicode="&#x168;" horiz-adv-x="1400" 
d="M803 1901q88 -1 145 -53q56 -52 72 -61t41 -9t45 24t43 84h154q-41 -127 -70 -176q-66 -115 -193 -115q-92 -1 -158 61t-95 62t-57 -30t-44 -78h-156q47 129 78 174q76 117 195 117zM645 197q174 0 252 122q41 70 68 226l161 917h269l-170 -964q-27 -156 -57 -229
t-89 -136q-154 -154 -436 -153q-152 0 -245 30t-154 101q-84 92 -84 235q0 84 28 244l154 872h268l-161 -917q-18 -109 -19 -162q0 -186 215 -186z" />
    <glyph glyph-name="utilde" unicode="&#x169;" horiz-adv-x="1146" 
d="M602 1493q86 0 144 -51q58 -52 72 -62q15 -10 38 -10q53 0 92 109h154q-50 -169 -106 -231t-154 -62t-162 61t-93 61q-30 0 -58 -29q-28 -30 -44 -79h-155q45 125 78 176q76 117 194 117zM375 350q0 -156 133 -155q96 1 147 71t82 244l97 541h253l-186 -1051h-170l-18 96
q-51 -66 -116 -92t-167 -27q-152 0 -236 74t-83 207q0 88 28 244l97 549h253l-96 -551q-18 -104 -18 -150z" />
    <glyph glyph-name="Umacron" unicode="&#x16a;" horiz-adv-x="1400" 
d="M588 1647l33 182h618l-33 -182h-618zM645 197q174 0 252 122q41 70 68 226l161 917h269l-170 -964q-27 -156 -57 -229t-89 -136q-154 -154 -436 -153q-152 0 -245 30t-154 101q-84 92 -84 235q0 84 28 244l154 872h268l-161 -917q-18 -109 -19 -162q0 -186 215 -186z" />
    <glyph glyph-name="umacron" unicode="&#x16b;" horiz-adv-x="1146" 
d="M385 1239l33 182h618l-32 -182h-619zM375 350q0 -156 133 -155q96 1 147 71t82 244l97 541h253l-186 -1051h-170l-18 96q-51 -66 -116 -92t-167 -27q-152 0 -236 74t-83 207q0 88 28 244l97 549h253l-96 -551q-18 -104 -18 -150z" />
    <glyph glyph-name="Ubreve" unicode="&#x16c;" horiz-adv-x="1400" 
d="M764 1864q0 -98 156 -99q90 0 132 29t66 107h164q-25 -141 -68 -199q-92 -123 -301 -123q-315 0 -315 227q0 38 10 95h158q-2 -29 -2 -37zM645 197q174 0 252 122q41 70 68 226l161 917h269l-170 -964q-27 -156 -57 -229t-89 -136q-154 -154 -436 -153q-152 0 -245 30
t-154 101q-84 92 -84 235q0 84 28 244l154 872h268l-161 -917q-18 -109 -19 -162q0 -186 215 -186z" />
    <glyph glyph-name="ubreve" unicode="&#x16d;" horiz-adv-x="1146" 
d="M553 1456q0 -100 156 -100q88 0 131 30t67 107h164q-25 -139 -67 -199q-92 -125 -299 -125q-317 0 -318 230q0 35 10 94h158q-2 -25 -2 -37zM375 350q0 -156 133 -155q96 1 147 71t82 244l97 541h253l-186 -1051h-170l-18 96q-51 -66 -116 -92t-167 -27q-152 0 -236 74
t-83 207q0 88 28 244l97 549h253l-96 -551q-18 -104 -18 -150z" />
    <glyph glyph-name="Uring" unicode="&#x16e;" horiz-adv-x="1400" 
d="M944 1921q-55 0 -88 -40t-33 -107q0 -80 86 -80q55 0 88 40t33 105q0 82 -86 82zM942 2038q118 0 182 -54t64 -156q0 -100 -81 -176t-196 -75q-115 0 -181 55t-64 158q0 104 80 176t196 72zM645 197q174 0 252 122q41 70 68 226l161 917h269l-170 -964q-27 -156 -57 -229
t-89 -136q-154 -154 -436 -153q-152 0 -245 30t-154 101q-84 92 -84 235q0 84 28 244l154 872h268l-161 -917q-18 -109 -19 -162q0 -186 215 -186z" />
    <glyph glyph-name="uring" unicode="&#x16f;" horiz-adv-x="1146" 
d="M743 1511q-55 0 -88 -40t-32 -107q0 -80 86 -80q55 0 88 40t32 108q0 79 -86 79zM710 1167q-114 -1 -180 55t-66 160t81 174q80 72 197 72q118 0 182 -54t64 -154t-82 -177q-82 -76 -196 -76zM375 350q0 -156 133 -155q96 1 147 71t82 244l97 541h253l-186 -1051h-170
l-18 96q-51 -66 -116 -92t-167 -27q-152 0 -236 74t-83 207q0 88 28 244l97 549h253l-96 -551q-18 -104 -18 -150z" />
    <glyph glyph-name="Uhungarumlaut" unicode="&#x170;" horiz-adv-x="1400" 
d="M946 1597l187 314h258l-269 -314h-176zM610 1597l187 314h258l-269 -314h-176zM645 197q174 0 252 122q41 70 68 226l161 917h269l-170 -964q-27 -156 -57 -229t-89 -136q-154 -154 -436 -153q-152 0 -245 30t-154 101q-84 92 -84 235q0 84 28 244l154 872h268l-161 -917
q-18 -109 -19 -162q0 -186 215 -186z" />
    <glyph glyph-name="uhungarumlaut" unicode="&#x171;" horiz-adv-x="1146" 
d="M748 1188l186 313h258l-268 -313h-176zM412 1188l186 313h258l-268 -313h-176zM375 350q0 -156 133 -155q96 1 147 71t82 244l97 541h253l-186 -1051h-170l-18 96q-51 -66 -116 -92t-167 -27q-152 0 -236 74t-83 207q0 88 28 244l97 549h253l-96 -551q-18 -104 -18 -150z
" />
    <glyph glyph-name="Uogonek" unicode="&#x172;" horiz-adv-x="1400" 
d="M645 -233q0 -61 82 -62q57 0 129 25l4 -127q-98 -39 -205 -39q-244 0 -243 172q0 139 186 244q-211 10 -307 83q-131 104 -131 283q0 84 28 244l154 872h268l-161 -917q-18 -109 -19 -162q0 -186 215 -186q174 0 252 122q41 70 68 226l161 917h269l-170 -964
q-29 -217 -118 -334t-263 -164q-199 -129 -199 -233z" />
    <glyph glyph-name="uogonek" unicode="&#x173;" horiz-adv-x="1146" 
d="M678 -236q0 -59 80 -59q51 0 131 25l4 -127q-100 -39 -205 -39q-244 0 -244 170q0 84 73 154t212 120l-16 88q-51 -66 -116 -92t-167 -27q-152 0 -236 74t-83 207q0 88 28 244l97 549h253l-96 -551q-18 -104 -18 -150q0 -156 133 -155q96 1 147 71t82 244l97 541h253
l-186 -1051q-223 -131 -223 -236z" />
    <glyph glyph-name="Wcircumflex" unicode="&#x174;" horiz-adv-x="1871" 
d="M1149 1761l-148 -159h-253l327 305h182l222 -305h-234zM322 0l-113 1462h262l43 -1093l479 1093h205l94 -1093l428 1093h275l-629 -1462h-240l-100 1030l-465 -1030h-239z" />
    <glyph glyph-name="wcircumflex" unicode="&#x175;" horiz-adv-x="1593" 
d="M944 1352l-147 -160h-254l327 305h183l221 -305h-234zM274 0l-127 1051h252l45 -742l349 742h180l86 -742l307 742h264l-497 -1051h-218l-94 668l-329 -668h-218z" />
    <glyph glyph-name="Ycircumflex" unicode="&#x176;" horiz-adv-x="1112" 
d="M778 1761l-147 -159h-254l328 305h182l221 -305h-234zM334 0l92 528l-289 934h277l186 -669l422 669h291l-619 -934l-92 -528h-268z" />
    <glyph glyph-name="ycircumflex" unicode="&#x177;" horiz-adv-x="1034" 
d="M662 1352l-148 -160h-254l328 305h182l221 -305h-233zM299 18l-178 1033h252l102 -758l352 758h265l-582 -1143q-92 -176 -159 -250t-155 -100t-270 -29l37 207q127 0 174 32t115 160z" />
    <glyph glyph-name="Ydieresis" unicode="&#x178;" horiz-adv-x="1112" 
d="M840 1606l45 254h225l-45 -254h-225zM428 1606l45 254h225l-43 -254h-227zM334 0l92 528l-289 934h277l186 -669l422 669h291l-619 -934l-92 -528h-268z" />
    <glyph glyph-name="Zacute" unicode="&#x179;" horiz-adv-x="1153" 
d="M653 1597l221 314h287l-317 -314h-191zM14 0l31 178l799 1067h-578l37 217h885l-31 -178l-797 -1067h639l-38 -217h-947z" />
    <glyph glyph-name="zacute" unicode="&#x17a;" horiz-adv-x="985" 
d="M502 1188l221 313h287l-318 -313h-190zM-18 0l28 160l584 686h-424l35 205h739l-26 -160l-584 -686h491l-34 -205h-809z" />
    <glyph glyph-name="Zdotaccent" unicode="&#x17b;" horiz-adv-x="1153" 
d="M651 1604l45 254h248l-45 -254h-248zM14 0l31 178l799 1067h-578l37 217h885l-31 -178l-797 -1067h639l-38 -217h-947z" />
    <glyph glyph-name="zdotaccent" unicode="&#x17c;" horiz-adv-x="985" 
d="M489 1196l46 254h247l-45 -254h-248zM-18 0l28 160l584 686h-424l35 205h739l-26 -160l-584 -686h491l-34 -205h-809z" />
    <glyph glyph-name="Zcaron" unicode="&#x17d;" horiz-adv-x="1153" 
d="M811 1741l150 160h253l-327 -306h-182l-222 306h232zM14 0l31 178l799 1067h-578l37 217h885l-31 -178l-797 -1067h639l-38 -217h-947z" />
    <glyph glyph-name="zcaron" unicode="&#x17e;" horiz-adv-x="985" 
d="M629 1331l149 160h254l-327 -305h-183l-221 305h231zM-18 0l28 160l584 686h-424l35 205h739l-26 -160l-584 -686h491l-34 -205h-809z" />
    <glyph glyph-name="Ohorn" unicode="&#x1a0;" horiz-adv-x="1454" 
d="M1040 1051q0 215 -225 215q-149 0 -225 -86t-115 -297l-53 -303q-18 -104 -19 -172q0 -213 228 -213q147 0 223 87t115 298l53 303q18 111 18 168zM1303 1180q147 94 147 204q0 54 -18 103h221q6 -47 6 -66q0 -162 -143 -266q-68 -49 -209 -119v-12l-2 -35
q-6 -59 -17 -115l-61 -350q-29 -162 -68 -249t-115 -156q-154 -141 -416 -141t-379 108q-116 108 -116 289q0 80 23 215l61 348q29 162 68 248t114 155q156 143 426 144q422 0 478 -305z" />
    <glyph glyph-name="ohorn" unicode="&#x1a1;" horiz-adv-x="1245" 
d="M520 182q104 0 160 64t82 219l22 123q12 74 13 123q0 158 -170 157q-104 0 -159 -64q-54 -65 -83 -216l-20 -123q-14 -80 -15 -123q0 -160 170 -160zM1376 1008q0 -117 -78 -205t-254 -172l-8 -58l-28 -159q-41 -232 -157 -334t-334 -102t-320 80q-102 81 -103 249
q0 72 19 170l26 160q41 233 157 335t328 101q212 0 313 -71t114 -218q117 86 116 203q0 37 -16 86h219q6 -49 6 -65z" />
    <glyph glyph-name="Uhorn" unicode="&#x1af;" horiz-adv-x="1536" 
d="M645 197q174 0 252 122q41 70 68 226l161 917h269l-56 -313q92 41 134 80q74 63 73 170q0 37 -16 88h219q6 -49 6 -66q0 -162 -147 -272q-96 -70 -295 -158l-88 -493q-27 -156 -57 -229t-89 -136q-154 -154 -436 -153q-152 0 -245 30t-154 101q-84 92 -84 235
q0 84 28 244l154 872h268l-161 -917q-18 -104 -19 -162q0 -186 215 -186z" />
    <glyph glyph-name="uhorn" unicode="&#x1b0;" horiz-adv-x="1304" 
d="M375 350q0 -156 133 -155q94 -1 146 71t83 244l97 541h253l-55 -318q92 45 131 78q76 66 76 174q0 39 -16 88h221q4 -61 4 -63q0 -164 -148 -275q-78 -59 -296 -160l-103 -575h-170l-18 96q-92 -119 -283 -119q-154 0 -236 74t-83 207q0 88 28 244l97 549h253l-96 -551
q-18 -100 -18 -150z" />
    <glyph glyph-name="uni01C4" unicode="&#x1c4;" horiz-adv-x="2451" 
d="M2109 1741l150 160h254l-328 -306h-182l-221 306h231zM1313 0l30 178l797 1067h-577l39 217h884l-30 -178l-797 -1067h639l-39 -217h-946zM1040 1038q0 115 -86 172q-59 37 -200 37h-181l-180 -1032h178q184 -4 273 78q88 82 127 295l51 286q18 113 18 164zM809 1462
q240 0 350 -78q152 -109 152 -311q0 -78 -23 -209l-57 -329q-41 -273 -193 -405t-424 -130h-528l258 1462h465z" />
    <glyph glyph-name="uni01C5" unicode="&#x1c5;" horiz-adv-x="2332" 
d="M1976 1331l150 160h252l-328 -305h-180l-221 305h231zM1329 0l27 160l583 686h-423l36 205h740l-29 -160l-584 -686h494l-37 -205h-807zM1040 1038q0 115 -86 172q-59 37 -200 37h-181l-180 -1032h178q184 -4 273 78q88 82 127 295l51 286q18 113 18 164zM809 1462
q240 0 350 -78q152 -109 152 -311q0 -78 -23 -209l-57 -329q-41 -273 -193 -405t-424 -130h-528l258 1462h465z" />
    <glyph glyph-name="uni01C6" unicode="&#x1c6;" horiz-adv-x="2146" 
d="M1143 0l28 160l584 686h-424l37 205h739l-28 -160l-584 -686h494l-37 -205h-809zM1792 1331l147 160h254l-327 -305h-180l-222 305h232zM506 182q98 0 154 58t79 182l35 207q8 49 8 82q0 160 -159 159q-99 0 -155 -68t-83 -218l-20 -117q-12 -66 -13 -117
q0 -168 154 -168zM94 293q0 84 19 188l28 154q41 236 143 337t275 101q189 1 271 -73q5 -4 10 -7l82 469h254l-258 -1462h-197l-2 78q-6 -4 -14 -12q-94 -88 -264 -88q-347 -2 -347 315z" />
    <glyph glyph-name="uni01C7" unicode="&#x1c7;" horiz-adv-x="1738" 
d="M979 -500q-123 0 -250 43l127 201q53 -27 107 -27q131 0 188 127q29 59 63 250l240 1368h268l-245 -1399q-31 -178 -55 -257t-64 -134q-121 -172 -379 -172zM86 0l258 1462h268l-219 -1245h639l-39 -217h-907z" />
    <glyph glyph-name="uni01C8" unicode="&#x1c8;" horiz-adv-x="1683" 
d="M1366 1051h254l-182 -1037q-45 -301 -159 -395t-423 -90l37 207q135 -4 200 55t87 209zM1395 1212l45 263h256l-47 -263h-254zM86 0l258 1462h268l-219 -1245h639l-39 -217h-907z" />
    <glyph glyph-name="uni01C9" unicode="&#x1c9;" horiz-adv-x="1202" 
d="M887 1051h254l-185 -1037q-46 -301 -158 -395t-421 -90l37 207q136 -4 200 55t86 209zM915 1212l46 263h253l-45 -263h-254zM373 326q0 -68 35 -94t124 -25h33l-35 -207h-45q-207 0 -289 54t-81 194q0 74 24 221l174 993h256l-184 -1042q-12 -74 -12 -94z" />
    <glyph glyph-name="uni01CA" unicode="&#x1ca;" horiz-adv-x="2091" 
d="M1335 -500q-123 0 -250 43l125 201q53 -27 107 -27q129 0 190 127q29 61 62 250l241 1368h269l-248 -1399q-31 -178 -55 -257t-64 -134q-121 -172 -377 -172zM88 0l258 1462h260l406 -1011l178 1011h260l-258 -1462h-260l-406 1012l-178 -1012h-260z" />
    <glyph glyph-name="uni01CB" unicode="&#x1cb;" horiz-adv-x="2037" 
d="M1720 1051h254l-182 -1037q-45 -301 -159 -395t-423 -90l37 207q137 -4 201 54q63 58 88 210zM1749 1212l47 263h254l-45 -263h-256zM88 0l258 1462h260l406 -1011l178 1011h260l-258 -1462h-260l-406 1012l-178 -1012h-260z" />
    <glyph glyph-name="uni01CC" unicode="&#x1cc;" horiz-adv-x="1740" 
d="M1425 1051h254l-182 -1037q-45 -301 -159 -395t-423 -90l37 207q135 -4 200 55t87 209zM1454 1212l45 263h256l-47 -263h-254zM1057 788q0 -76 -25 -215l-100 -573h-254l100 573q14 84 15 125q0 158 -142 158q-102 0 -156 -71t-85 -242l-97 -543h-254l185 1051h192l6 -88
q104 111 274 111t256 -75q85 -74 85 -211z" />
    <glyph glyph-name="uni01CD" unicode="&#x1cd;" horiz-adv-x="1259" 
d="M829 1741l150 160h254l-328 -306h-182l-221 306h231zM848 506l-98 639l-326 -639h424zM874 289h-552l-146 -289h-297l789 1462h258l274 -1462h-285z" />
    <glyph glyph-name="uni01CE" unicode="&#x1ce;" horiz-adv-x="1089" 
d="M676 1331l149 160h254l-327 -305h-183l-221 305h232zM500 463q-119 0 -166 -49q-51 -47 -51 -148q1 -52 37 -74t140 -22t156 57q27 33 46 125l18 111h-180zM727 750q0 121 -154 120q-127 0 -231 -104l-154 125q156 182 408 182q209 0 313 -92q72 -66 72 -188
q0 -66 -20 -187l-109 -606h-199l-10 49q-88 -72 -264 -72q-176 -1 -260 61t-84 193q0 205 93 305t339 99h244l8 47q8 41 8 68z" />
    <glyph glyph-name="uni01CF" unicode="&#x1cf;" horiz-adv-x="628" 
d="M520 1741l150 160h252l-328 -306h-180l-221 306h231zM88 0l258 1462h268l-258 -1462h-268z" />
    <glyph glyph-name="uni01D0" unicode="&#x1d0;" horiz-adv-x="561" 
d="M414 1331l147 160h254l-328 -305h-182l-221 305h233zM59 0l185 1051h256l-187 -1051h-254z" />
    <glyph glyph-name="uni01D1" unicode="&#x1d1;" horiz-adv-x="1374" 
d="M891 1741l149 160h254l-327 -306h-183l-221 306h232zM1040 1053q0 215 -229 215q-145 0 -221 -87t-115 -298l-53 -303q-18 -111 -19 -172q0 -213 228 -213q147 0 223 87t115 298l53 303q18 111 18 170zM825 1485q238 1 362 -101t124 -299q0 -86 -23 -211l-61 -350
q-29 -162 -68 -249t-115 -156q-154 -141 -416 -141t-379 108q-116 108 -116 289q0 84 23 215l61 348q29 162 68 249t117 159t178 106q100 33 245 33z" />
    <glyph glyph-name="uni01D2" unicode="&#x1d2;" horiz-adv-x="1144" 
d="M707 1331l149 160h254l-328 -305h-182l-221 305h231zM518 182q106 0 162 64t82 219l22 123q12 74 13 125q0 158 -170 157q-104 0 -159 -64q-54 -65 -83 -218l-20 -123q-14 -84 -15 -121q0 -162 168 -162zM637 1073q416 0 416 -328q0 -84 -17 -172l-28 -159
q-41 -232 -157 -334t-334 -102t-320 80q-102 81 -103 249q1 72 19 170l26 160q41 233 157 335t341 101z" />
    <glyph glyph-name="uni01D3" unicode="&#x1d3;" horiz-adv-x="1400" 
d="M899 1741l150 160h254l-328 -306h-182l-222 306h232zM645 197q174 0 252 122q41 70 68 226l161 917h269l-170 -964q-27 -156 -57 -229t-89 -136q-154 -154 -436 -153q-152 0 -245 30t-154 101q-84 92 -84 235q0 84 28 244l154 872h268l-161 -917q-18 -109 -19 -162
q0 -186 215 -186z" />
    <glyph glyph-name="uni01D4" unicode="&#x1d4;" horiz-adv-x="1146" 
d="M707 1331l149 160h254l-328 -305h-182l-221 305h231zM375 350q0 -156 133 -155q96 1 147 71t82 244l97 541h253l-186 -1051h-170l-18 96q-51 -66 -116 -92t-167 -27q-152 0 -236 74t-83 207q0 88 28 244l97 549h253l-96 -551q-18 -104 -18 -150z" />
    <glyph glyph-name="Gcaron" unicode="&#x1e6;" horiz-adv-x="1351" 
d="M881 1741l149 160h254l-328 -306h-182l-221 306h231zM637 -23q-274 -1 -388 107t-114 291q0 94 25 229l55 314q29 168 68 257t112 160q151 145 397 145t368 -91q122 -92 122 -261q0 -23 -6 -61l-250 -18q0 57 -4 75q-25 139 -215 140q-147 0 -220 -87t-112 -311l-49 -274
q-20 -113 -20 -182q0 -111 55 -163t183 -52q260 0 310 305l17 96h-246l37 207h512l-49 -277q-27 -156 -62 -238t-100 -151q-152 -160 -426 -160z" />
    <glyph glyph-name="gcaron" unicode="&#x1e7;" horiz-adv-x="1161" 
d="M729 1331l150 160h254l-328 -305h-182l-222 305h232zM348 352q0 -170 154 -170q98 0 154 58t79 182l37 207q6 39 6 82q0 160 -160 159q-98 0 -154 -68t-83 -218l-21 -117q-12 -59 -12 -115zM438 -23q-348 0 -348 320q0 68 19 184l28 154q41 238 143 338t296 100
q196 0 288 -98l39 76h197l-180 -1024q-43 -246 -154 -363q-139 -145 -381 -145q-301 0 -387 198l207 109q29 -59 69 -84t111 -25q225 1 274 275l11 59q-90 -74 -232 -74z" />
    <glyph glyph-name="uni01EA" unicode="&#x1ea;" horiz-adv-x="1374" 
d="M1040 1053q0 215 -229 215q-145 0 -221 -87t-115 -298l-53 -303q-18 -113 -19 -170q0 -213 228 -213q147 0 224 87t114 296l53 303q18 111 18 170zM637 -236q-1 -58 69 -59q70 0 142 25l4 -127q-100 -39 -205 -39q-244 0 -244 170q0 137 189 246q-207 8 -297 71
q-162 106 -162 324q0 84 23 215l61 348q29 162 68 249t117 159t178 106q100 33 245 33q238 1 362 -101t124 -299q0 -86 -23 -211l-61 -350q-31 -215 -123 -341t-260 -179q-111 -72 -159 -127t-48 -113z" />
    <glyph glyph-name="uni01EB" unicode="&#x1eb;" horiz-adv-x="1144" 
d="M518 182q106 0 162 64t82 219l22 123q12 72 13 125q0 158 -170 157q-104 0 -159 -64q-54 -65 -83 -218l-20 -123q-14 -84 -15 -121q0 -162 168 -162zM524 -238q0 -57 80 -57q51 0 131 25l4 -127q-100 -39 -204 -39q-244 0 -244 170q0 133 172 246q-193 12 -281 90
t-88 237q0 72 19 170l26 160q41 233 157 335t341 101q416 0 416 -328q-1 -84 -17 -172l-28 -159q-29 -172 -100 -270t-197 -140q-80 -57 -103 -82q-84 -80 -84 -160z" />
    <glyph glyph-name="uni01F1" unicode="&#x1f1;" horiz-adv-x="2451" 
d="M1313 0l30 178l797 1067h-577l39 217h884l-30 -178l-797 -1067h639l-39 -217h-946zM1040 1038q0 115 -86 172q-59 37 -200 37h-181l-180 -1032h178q184 -4 273 78q88 82 127 295l51 286q18 113 18 164zM809 1462q240 0 350 -78q152 -109 152 -311q0 -78 -23 -209
l-57 -329q-41 -273 -193 -405t-424 -130h-528l258 1462h465z" />
    <glyph glyph-name="uni01F2" unicode="&#x1f2;" horiz-adv-x="2332" 
d="M1329 0l27 160l583 686h-423l36 205h740l-29 -160l-584 -686h494l-37 -205h-807zM1040 1038q0 115 -86 172q-59 37 -200 37h-181l-180 -1032h178q184 -4 273 78q88 82 127 295l51 286q18 113 18 164zM809 1462q240 0 350 -78q152 -109 152 -311q0 -78 -23 -209l-57 -329
q-41 -273 -193 -405t-424 -130h-528l258 1462h465z" />
    <glyph glyph-name="uni01F3" unicode="&#x1f3;" horiz-adv-x="2146" 
d="M1143 0l28 160l584 686h-424l37 205h739l-28 -160l-584 -686h494l-37 -205h-809zM506 182q98 0 154 58t79 182l35 207q8 49 8 82q0 160 -159 159q-99 0 -155 -68t-83 -218l-20 -117q-12 -66 -13 -117q0 -168 154 -168zM94 293q0 84 19 188l28 154q41 236 143 337t275 101
q189 1 271 -73q5 -4 10 -7l82 469h254l-258 -1462h-197l-2 78q-6 -4 -14 -12q-94 -88 -264 -88q-347 -2 -347 315z" />
    <glyph glyph-name="uni01F4" unicode="&#x1f4;" horiz-adv-x="1351" 
d="M725 1597l221 314h287l-318 -314h-190zM637 -23q-274 -1 -388 107t-114 291q0 94 25 229l55 314q29 168 68 257t112 160q151 145 397 145t368 -91q122 -92 122 -261q0 -23 -6 -61l-250 -18q0 57 -4 75q-25 139 -215 140q-147 0 -220 -87t-112 -311l-49 -274
q-20 -113 -20 -182q0 -111 55 -163t183 -52q260 0 310 305l17 96h-246l37 207h512l-49 -277q-27 -156 -62 -238t-100 -151q-152 -160 -426 -160z" />
    <glyph glyph-name="uni01F5" unicode="&#x1f5;" horiz-adv-x="1161" 
d="M557 1188l221 313h287l-317 -313h-191zM348 352q0 -170 154 -170q98 0 154 58t79 182l37 207q6 39 6 82q0 160 -160 159q-98 0 -154 -68t-83 -218l-21 -117q-12 -59 -12 -115zM438 -23q-348 0 -348 320q0 68 19 184l28 154q41 238 143 338t296 100q196 0 288 -98l39 76
h197l-180 -1024q-43 -246 -154 -363q-139 -145 -381 -145q-301 0 -387 198l207 109q29 -59 69 -84t111 -25q225 1 274 275l11 59q-90 -74 -232 -74z" />
    <glyph glyph-name="Aringacute" unicode="&#x1fa;" horiz-adv-x="1259" 
d="M764 1841l160 258h276l-282 -258h-154zM831 1690q-53 0 -86 -40t-32 -108q0 -80 86 -80q53 0 86 40t33 108q-1 80 -87 80zM848 506l-98 639l-326 -639h424zM555 1556q0 106 79 178t195 72q115 0 181 -53t66 -133q-1 -160 -134 -238l258 -1382h-285l-41 289h-552
l-146 -289h-297l752 1393q-76 57 -76 163z" />
    <glyph glyph-name="aringacute" unicode="&#x1fb;" horiz-adv-x="1089" 
d="M647 1665l162 256h276l-284 -256h-154zM711 1483q-53 0 -86 -40t-33 -106q0 -80 86 -80q53 0 86 40t33 106q0 80 -86 80zM434 1354q0 102 80 174t196 71q116 0 180 -53q64 -52 64 -154t-81 -177t-195 -75t-180 56q-64 56 -64 158zM500 463q-119 0 -166 -49
q-51 -47 -51 -148q1 -52 37 -74t140 -22t156 57q27 33 46 125l18 111h-180zM727 750q0 121 -154 120q-127 0 -231 -104l-154 125q156 182 408 182q209 0 313 -92q72 -66 72 -188q0 -66 -20 -187l-109 -606h-199l-10 49q-88 -72 -264 -72q-176 -1 -260 61t-84 193
q0 205 93 305t339 99h244l8 47q8 41 8 68z" />
    <glyph glyph-name="AEacute" unicode="&#x1fc;" horiz-adv-x="1961" 
d="M1362 1597l221 314h287l-318 -314h-190zM958 535l125 710h-12l-559 -710h446zM920 317h-572l-250 -317h-309l1188 1462h1044l-39 -217h-634l-70 -395h539l-39 -217h-539l-72 -416h641l-36 -217h-908z" />
    <glyph glyph-name="aeacute" unicode="&#x1fd;" horiz-adv-x="1699" 
d="M827 1188l222 313h286l-317 -313h-191zM1386 727q0 160 -169 160q-95 1 -159 -59t-83 -166l-4 -21h405q10 39 10 86zM500 463q-117 0 -167 -50t-50 -147q1 -52 37 -74t131 -22t144 42q48 42 69 150l16 101h-180zM596 1073q135 0 235 -57q20 -12 64 -66q73 70 143 97
t187 26q393 0 393 -360q0 -106 -33 -250h-643l-6 -33q-8 -47 -8 -78q0 -176 192 -176q139 0 234 109l164 -135q-74 -92 -170 -132t-238 -41q-142 0 -219 35q-78 35 -123 113q-59 -68 -98 -88q-109 -59 -288 -59t-263 60t-84 191q0 207 93 307t339 99h244l8 47q8 41 8 68
q0 121 -154 120q-131 0 -231 -104l-154 125q156 182 408 182z" />
    <glyph glyph-name="Oslashacute" unicode="&#x1fe;" horiz-adv-x="1372" 
d="M735 1597l221 314h287l-317 -314h-191zM802 1268q-138 0 -212 -87q-76 -87 -113 -298l-53 -303q-8 -31 -10 -64l579 686q-53 66 -191 66zM1032 948l-581 -688q57 -66 192 -66t212 88q77 87 114 298l53 303q8 36 10 65zM1313 1092q0 -81 -25 -218l-61 -350
q-27 -160 -67 -248t-119 -160t-177 -106q-98 -33 -243 -33q-223 0 -338 82l-103 -118l-151 120l131 156q-27 74 -27 154t23 219l61 348q29 162 68 249t117 159t178 106q100 33 243 33q219 0 340 -82l99 117l151 -121l-129 -152q29 -74 29 -155z" />
    <glyph glyph-name="oslashacute" unicode="&#x1ff;" horiz-adv-x="1144" 
d="M551 1188l221 313h287l-318 -313h-190zM618 870q-95 0 -150 -64q-54 -65 -83 -218l-20 -123q-11 -68 -13 -82l402 446q-41 41 -136 41zM531 182q93 0 149 65q55 65 82 218l22 123q9 51 11 80l-402 -447q45 -39 138 -39zM1053 755q0 -90 -17 -182l-28 -159
q-41 -232 -157 -334q-117 -102 -319 -102t-305 59l-80 -86l-102 92l86 94q-37 72 -37 157t19 183l26 160q41 233 157 335t320 101q204 0 304 -59l79 88l103 -92l-86 -97q37 -68 37 -158z" />
    <glyph glyph-name="uni0200" unicode="&#x200;" horiz-adv-x="1259" 
d="M762 1597h-176l-158 314h258zM1098 1597h-178l-156 314h258zM848 506l-98 639l-326 -639h424zM874 289h-552l-146 -289h-297l789 1462h258l274 -1462h-285z" />
    <glyph glyph-name="uni0201" unicode="&#x201;" horiz-adv-x="1089" 
d="M586 1188h-176l-158 313h258zM922 1188h-179l-155 313h258zM481 463q-119 0 -166 -49q-51 -47 -51 -148q0 -52 37 -74t141 -22t156 57q27 33 45 125l19 111h-181zM578 1073q209 0 313 -92q72 -66 72 -188q0 -66 -21 -187l-108 -606h-199l-10 49q-89 -72 -265 -72
q-176 -1 -260 61t-84 193q0 205 94 305t339 99h243l8 47q8 41 9 68q0 121 -154 120q-127 0 -231 -104l-154 125q156 182 408 182z" />
    <glyph glyph-name="uni0202" unicode="&#x202;" horiz-adv-x="1259" 
d="M999 1634q0 100 -155 101q-90 0 -133 -30t-66 -108h-164q25 139 68 199q92 125 301 125q315 0 315 -229q0 -34 -10 -95h-160q4 20 4 37zM848 506l-98 639l-326 -639h424zM874 289h-552l-146 -289h-297l789 1462h258l274 -1462h-285z" />
    <glyph glyph-name="uni0203" unicode="&#x203;" horiz-adv-x="1089" 
d="M844 1223q0 102 -156 102q-88 0 -131 -30t-68 -107h-163q25 139 67 198q92 125 299 125q317 0 318 -229q-1 -37 -11 -94h-159q4 20 4 35zM500 463q-119 0 -166 -49q-51 -47 -51 -148q1 -52 37 -74t140 -22t156 57q27 33 46 125l18 111h-180zM727 750q0 121 -154 120
q-127 0 -231 -104l-154 125q156 182 408 182q209 0 313 -92q72 -66 72 -188q0 -66 -20 -187l-109 -606h-199l-10 49q-88 -72 -264 -72q-176 -1 -260 61t-84 193q0 205 93 305t339 99h244l8 47q8 41 8 68z" />
    <glyph glyph-name="uni0204" unicode="&#x204;" horiz-adv-x="1189" 
d="M754 1597h-176l-158 314h258zM1090 1597h-179l-155 314h258zM66 0l258 1462h901l-39 -217h-635l-70 -395h539l-39 -217h-539l-73 -416h643l-39 -217h-907z" />
    <glyph glyph-name="uni0205" unicode="&#x205;" horiz-adv-x="1122" 
d="M608 1188h-176l-158 313h258zM944 1188h-178l-156 313h258zM782 725q0 162 -170 162q-96 1 -160 -59t-81 -166l-4 -21h405q10 41 10 84zM324 352q0 -176 192 -176q139 0 232 109l165 -135q-76 -94 -172 -134t-249 -39q-213 0 -317 86q-103 86 -103 263q0 94 20 194l12 76
q23 131 55 208q112 269 447 269q408 0 408 -360q0 -98 -33 -250h-643l-6 -33q-8 -39 -8 -78z" />
    <glyph glyph-name="uni0206" unicode="&#x206;" horiz-adv-x="1189" 
d="M1001 1634q0 100 -155 101q-90 0 -133 -30t-66 -108h-164q25 139 68 199q92 125 301 125q315 0 315 -229q0 -34 -10 -95h-160q4 20 4 37zM88 0l258 1462h901l-39 -217h-635l-69 -395h538l-38 -217h-539l-74 -416h643l-39 -217h-907z" />
    <glyph glyph-name="uni0207" unicode="&#x207;" horiz-adv-x="1122" 
d="M862 1223q0 102 -155 102q-87 0 -131 -30t-68 -107h-164q25 139 68 198q92 125 299 125q317 0 317 -229q0 -37 -10 -94h-160q4 20 4 35zM809 725q0 162 -170 162q-96 1 -161 -59t-81 -166l-4 -21h406q10 41 10 84zM350 352q0 -176 193 -176q139 0 231 109l166 -135
q-76 -94 -172 -134t-250 -39q-213 0 -316 86t-104 263q0 94 21 194l12 76q23 131 54 208q112 269 448 269q408 0 407 -360q0 -98 -32 -250h-643l-7 -33q-8 -39 -8 -78z" />
    <glyph glyph-name="uni0208" unicode="&#x208;" horiz-adv-x="628" 
d="M446 1597h-176l-157 314h258zM782 1597h-178l-155 314h258zM88 0l258 1462h268l-258 -1462h-268z" />
    <glyph glyph-name="uni0209" unicode="&#x209;" horiz-adv-x="561" 
d="M340 1188h-176l-158 313h258zM676 1188h-178l-156 313h258zM59 0l185 1051h256l-187 -1051h-254z" />
    <glyph glyph-name="uni020A" unicode="&#x20a;" horiz-adv-x="628" 
d="M684 1634q0 100 -156 101q-90 0 -133 -30t-65 -108h-164q25 139 67 199q92 125 302 125q315 0 315 -229q0 -34 -10 -95h-160q4 20 4 37zM88 0l258 1462h268l-258 -1462h-268z" />
    <glyph glyph-name="uni020B" unicode="&#x20b;" horiz-adv-x="561" 
d="M422 1325q-88 0 -131 -30t-68 -107h-164q25 139 68 198q92 125 299 125q317 0 317 -229q0 -37 -10 -94h-160q4 20 5 35q0 102 -156 102zM59 0l185 1051h256l-187 -1051h-254z" />
    <glyph glyph-name="uni020C" unicode="&#x20c;" horiz-adv-x="1374" 
d="M817 1597h-176l-158 314h258zM1153 1597h-178l-156 314h258zM1040 1053q0 215 -229 215q-145 0 -221 -87t-115 -298l-53 -303q-18 -111 -19 -172q0 -213 228 -213q147 0 223 87t115 298l53 303q18 111 18 170zM825 1485q238 1 362 -101t124 -299q0 -86 -23 -211l-61 -350
q-29 -162 -68 -249t-115 -156q-154 -141 -416 -141t-379 108q-116 108 -116 289q0 84 23 215l61 348q29 162 68 249t117 159t178 106q100 33 245 33z" />
    <glyph glyph-name="uni020D" unicode="&#x20d;" horiz-adv-x="1144" 
d="M608 1188h-176l-158 313h258zM944 1188h-178l-156 313h258zM772 713q0 158 -170 157q-104 0 -159 -64q-54 -65 -83 -218l-20 -123q-14 -84 -14 -121q0 -162 168 -162q106 0 161 64t82 219l23 123q12 74 12 125zM612 1073q416 0 416 -328q0 -84 -16 -172l-29 -159
q-41 -232 -157 -334t-334 -102t-320 80q-102 81 -102 249q0 72 18 170l27 160q41 233 156 335q116 101 341 101z" />
    <glyph glyph-name="uni020E" unicode="&#x20e;" horiz-adv-x="1374" 
d="M1055 1634q0 100 -156 101q-90 0 -133 -30t-66 -108h-163q25 139 67 199q92 125 301 125q315 0 316 -229q-1 -34 -11 -95h-159q4 20 4 37zM1040 1053q0 215 -229 215q-145 0 -221 -87t-115 -298l-53 -303q-18 -111 -19 -172q0 -213 228 -213q147 0 223 87t115 298l53 303
q18 111 18 170zM825 1485q238 1 362 -101t124 -299q0 -86 -23 -211l-61 -350q-29 -162 -68 -249t-115 -156q-154 -141 -416 -141t-379 108q-116 108 -116 289q0 84 23 215l61 348q29 162 68 249t117 159t178 106q100 33 245 33z" />
    <glyph glyph-name="uni020F" unicode="&#x20f;" horiz-adv-x="1144" 
d="M870 1223q0 102 -155 102q-88 0 -131 -30t-68 -107h-164q25 139 68 198q92 125 299 125q317 0 317 -229q0 -37 -10 -94h-160q4 20 4 35zM518 182q106 0 162 64t82 219l22 123q12 74 13 125q0 158 -170 157q-104 0 -159 -64q-54 -65 -83 -218l-20 -123q-14 -84 -15 -121
q0 -162 168 -162zM637 1073q416 0 416 -328q0 -84 -17 -172l-28 -159q-41 -232 -157 -334t-334 -102t-320 80q-102 81 -103 249q1 72 19 170l26 160q41 233 157 335t341 101z" />
    <glyph glyph-name="uni0210" unicode="&#x210;" horiz-adv-x="1316" 
d="M715 1597h-176l-158 314h258zM1051 1597h-179l-155 314h258zM741 807q271 0 271 285q0 84 -47 120t-156 35h-248l-78 -440h258zM842 1462q233 0 339 -81t105 -242q0 -117 -35 -227q-88 -277 -327 -291l209 -621h-297l-179 600h-204l-107 -600h-268l258 1462h506z" />
    <glyph glyph-name="uni0211" unicode="&#x211;" horiz-adv-x="800" 
d="M498 1188h-176l-158 313h258zM834 1188h-179l-155 313h258zM629 856q-89 0 -141 -82t-85 -266l-90 -508h-254l185 1051h196l17 -82q63 59 112 82t137 23t199 -66l-147 -209q-66 57 -129 57z" />
    <glyph glyph-name="uni0212" unicode="&#x212;" horiz-adv-x="1316" 
d="M981 1634q0 100 -156 101q-90 0 -133 -30t-65 -108h-164q25 139 67 199q92 125 301 125q315 0 316 -229q0 -34 -10 -95h-160q4 20 4 37zM754 807q133 0 196 65q74 80 74 220q0 84 -47 120t-156 35h-248l-77 -440h258zM854 1462q233 0 339 -81t105 -242q0 -117 -34 -227
q-87 -277 -328 -291l209 -621h-297l-178 600h-205l-107 -600h-268l258 1462h506z" />
    <glyph glyph-name="uni0213" unicode="&#x213;" horiz-adv-x="800" 
d="M745 1223q0 102 -155 102q-88 0 -131 -30t-68 -107h-164q25 139 68 198q92 125 299 125q317 0 317 -229q0 -37 -10 -94h-160q4 20 4 35zM629 856q-89 0 -141 -82t-85 -266l-90 -508h-254l185 1051h196l17 -82q63 59 112 82t137 23t199 -66l-147 -209q-66 57 -129 57z" />
    <glyph glyph-name="uni0214" unicode="&#x214;" horiz-adv-x="1400" 
d="M834 1597h-177l-157 314h258zM1169 1597h-178l-155 314h258zM645 197q174 0 252 122q41 70 68 226l161 917h269l-170 -964q-27 -156 -57 -229t-89 -136q-154 -154 -436 -153q-152 0 -245 30t-154 101q-84 92 -84 235q0 84 28 244l154 872h268l-161 -917
q-18 -109 -19 -162q0 -186 215 -186z" />
    <glyph glyph-name="uni0215" unicode="&#x215;" horiz-adv-x="1146" 
d="M616 1188h-176l-157 313h258zM952 1188h-178l-156 313h259zM414 -23q-152 0 -236 74t-84 207q0 88 29 244l96 549h254l-96 -551q-18 -104 -19 -150q0 -156 134 -155q96 1 147 71t82 244l96 541h254l-186 -1051h-170l-19 96q-52 -66 -116 -92t-166 -27z" />
    <glyph glyph-name="uni0216" unicode="&#x216;" horiz-adv-x="1400" 
d="M1071 1634q0 100 -156 101q-90 0 -133 -30t-65 -108h-164q25 139 68 199q92 125 301 125q315 0 315 -229q0 -34 -10 -95h-160q4 20 4 37zM645 197q174 0 252 122q41 70 68 226l161 917h269l-170 -964q-27 -156 -57 -229t-89 -136q-154 -154 -436 -153q-152 0 -245 30
t-154 101q-84 92 -84 235q0 84 28 244l154 872h268l-161 -917q-18 -109 -19 -162q0 -186 215 -186z" />
    <glyph glyph-name="uni0217" unicode="&#x217;" horiz-adv-x="1146" 
d="M870 1223q0 102 -155 102q-88 0 -131 -30t-68 -107h-164q25 139 68 198q92 125 299 125q317 0 317 -229q0 -37 -10 -94h-160q4 20 4 35zM375 350q0 -156 133 -155q96 1 147 71t82 244l97 541h253l-186 -1051h-170l-18 96q-51 -66 -116 -92t-167 -27q-152 0 -236 74
t-83 207q0 88 28 244l97 549h253l-96 -551q-18 -104 -18 -150z" />
    <glyph glyph-name="Scommaaccent" unicode="&#x218;" horiz-adv-x="1177" 
d="M201 -483l164 352h243l-233 -352h-174zM188 993q0 225 144 357t393 133q358 0 461 -219l-223 -129q-70 131 -256 131q-113 0 -182 -64t-69 -152t55 -128q53 -40 225 -87q172 -46 249 -104q111 -86 111 -246q0 -243 -151 -375t-417 -132t-411 94q-80 53 -125 149l229 131
q63 -158 307 -157q139 0 220 64q80 65 79 177q0 74 -51 113q-30 21 -60 31t-192 53q-336 89 -336 360z" />
    <glyph glyph-name="scommaaccent" unicode="&#x219;" horiz-adv-x="1001" 
d="M117 -483l164 352h243l-233 -352h-174zM422 176q102 0 162 42q59 42 59 116q0 45 -31 64q-30 20 -184 38t-226 83t-71 190q0 170 111 267q110 97 312 97t312 -88q51 -39 86 -113l-196 -104q-66 106 -205 106q-78 0 -125 -38t-47 -94t33 -75t131 -32q197 -19 273 -81
t75 -198q0 -379 -477 -379q-350 0 -430 201l204 109q70 -111 234 -111z" />
    <glyph glyph-name="uni021A" unicode="&#x21a;" horiz-adv-x="1136" 
d="M174 -483l164 352h244l-234 -352h-174zM344 0l219 1245h-399l39 217h1065l-39 -217h-398l-219 -1245h-268z" />
    <glyph glyph-name="uni021B" unicode="&#x21b;" horiz-adv-x="708" 
d="M10 -483l164 352h244l-236 -352h-172zM516 0q-211 0 -292 52t-81 188q0 84 25 231l68 379h-119l35 201h124l70 307h234l-54 -307h207l-35 -201h-209l-71 -408q-16 -92 -16 -139t32 -72q33 -25 123 -24h29l-37 -207h-33z" />
    <glyph glyph-name="uni0226" unicode="&#x226;" horiz-adv-x="1259" 
d="M696 1604l45 254h248l-45 -254h-248zM848 506l-98 639l-326 -639h424zM874 289h-552l-146 -289h-297l789 1462h258l274 -1462h-285z" />
    <glyph glyph-name="uni0227" unicode="&#x227;" horiz-adv-x="1089" 
d="M553 1196l45 254h248l-45 -254h-248zM500 463q-119 0 -166 -49q-51 -47 -51 -148q1 -52 37 -74t140 -22t156 57q27 33 46 125l18 111h-180zM727 750q0 121 -154 120q-127 0 -231 -104l-154 125q156 182 408 182q209 0 313 -92q72 -66 72 -188q0 -66 -20 -187l-109 -606
h-199l-10 49q-88 -72 -264 -72q-176 -1 -260 61t-84 193q0 205 93 305t339 99h244l8 47q8 41 8 68z" />
    <glyph glyph-name="uni0237" unicode="&#x237;" horiz-adv-x="573" 
d="M256 1051h254l-182 -1037q-45 -301 -159 -395t-423 -90l37 207q135 -4 200 55t87 209z" />
    <glyph glyph-name="afii57929" unicode="&#x2bc;" horiz-adv-x="442" 
d="M127 938l160 524h268l-213 -524h-215z" />
    <glyph glyph-name="uni02C0" unicode="&#x2c0;" horiz-adv-x="1024" 
d="M752 1839q0 31 -40 31t-124 -35l-17 141q111 37 187 37q203 0 203 -164q1 -47 -17 -75t-66 -68t-56 -60q-9 -20 -19 -65h-176q16 88 29 117q12 29 54 73t42 68z" />
    <glyph glyph-name="circumflex" unicode="&#x2c6;" horiz-adv-x="1024" 
d="M666 1352l-148 -160h-254l328 305h182l221 -305h-233z" />
    <glyph glyph-name="caron" unicode="&#x2c7;" horiz-adv-x="1024" 
d="M645 1331l150 160h254l-328 -305h-182l-222 305h232z" />
    <glyph glyph-name="uni02C9" unicode="&#x2c9;" horiz-adv-x="1024" 
d="M330 1239l32 182h619l-33 -182h-618z" />
    <glyph glyph-name="breve" unicode="&#x2d8;" horiz-adv-x="1024" 
d="M502 1456q0 -100 155 -100q88 0 131 30t68 107h164q-25 -139 -68 -199q-92 -125 -299 -125q-317 0 -317 230q0 35 10 94h158q-2 -25 -2 -37z" />
    <glyph glyph-name="dotaccent" unicode="&#x2d9;" horiz-adv-x="1024" 
d="M506 1196l45 254h248l-45 -254h-248z" />
    <glyph glyph-name="ring" unicode="&#x2da;" horiz-adv-x="1024" 
d="M684 1511q-55 0 -88 -40t-33 -107q0 -80 86 -80q55 0 88 40t33 108q0 79 -86 79zM651 1167q-115 -1 -181 55t-64 160q0 104 80 174q80 72 196 72q118 0 182 -54t64 -154t-81 -177q-81 -76 -196 -76z" />
    <glyph glyph-name="ogonek" unicode="&#x2db;" horiz-adv-x="1024" 
d="M463 -236q0 -59 80 -59q51 0 131 25l4 -127q-100 -39 -205 -39q-244 0 -244 172q0 155 260 264h197q-223 -135 -223 -236z" />
    <glyph glyph-name="tilde" unicode="&#x2dc;" horiz-adv-x="1024" 
d="M541 1493q86 0 143 -51q56 -52 72 -62t39 -10q53 0 92 109h153q-51 -169 -106 -231q-56 -62 -154 -62t-162 61t-93 61t-57 -29q-28 -30 -44 -79h-156q45 125 78 176q76 117 195 117z" />
    <glyph glyph-name="hungarumlaut" unicode="&#x2dd;" horiz-adv-x="1024" 
d="M686 1188l186 313h258l-268 -313h-176zM350 1188l187 313h258l-269 -313h-176z" />
    <glyph glyph-name="uni0309" unicode="&#x309;" horiz-adv-x="1024" 
d="M680 1436q0 64 -164 -2l-16 139q109 37 188 37q201 0 201 -162q1 -49 -17 -77t-66 -70t-56 -59q-9 -17 -19 -64h-176q17 88 31 118t54 72q40 43 40 68z" />
    <glyph glyph-name="uni0312" unicode="&#x312;" horiz-adv-x="1024" 
d="M492 1188l317 313h190l-221 -313h-286z" />
    <glyph glyph-name="uni0313" unicode="&#x313;" horiz-adv-x="227" 
d="M47 938l164 557h242l-228 -557h-178z" />
    <glyph glyph-name="uni031B" unicode="&#x31b;" horiz-adv-x="227" 
d="M47 938l164 557h242l-228 -557h-178z" />
    <glyph glyph-name="uni0323" unicode="&#x323;" horiz-adv-x="1024" 
d="M221 -422l45 254h248l-45 -254h-248z" />
    <glyph glyph-name="uni037E" unicode="&#x37e;" horiz-adv-x="595" 
d="M240 795l45 260h268l-45 -260h-268zM-76 -385l211 643h283l-264 -643h-230z" />
    <glyph glyph-name="uni0387" unicode="&#x387;" horiz-adv-x="593" 
d="M176 598l45 260h268l-45 -260h-268z" />
    <glyph glyph-name="uni04D4" unicode="&#x4d4;" horiz-adv-x="1961" 
d="M958 535l125 710h-12l-559 -710h446zM920 317h-572l-250 -317h-309l1188 1462h1044l-39 -217h-634l-70 -395h539l-39 -217h-539l-72 -416h641l-36 -217h-908z" />
    <glyph glyph-name="uni04D5" unicode="&#x4d5;" horiz-adv-x="1699" 
d="M1386 727q0 160 -169 160q-95 1 -159 -59t-83 -166l-4 -21h405q10 39 10 86zM500 463q-117 0 -167 -50t-50 -147q1 -52 37 -74t131 -22t144 42q48 42 69 150l16 101h-180zM596 1073q135 0 235 -57q20 -12 64 -66q73 70 143 97t187 26q393 0 393 -360q0 -106 -33 -250
h-643l-6 -33q-8 -47 -8 -78q0 -176 192 -176q139 0 234 109l164 -135q-74 -92 -170 -132t-238 -41q-142 0 -219 35q-78 35 -123 113q-59 -68 -98 -88q-109 -59 -288 -59t-263 60t-84 191q0 207 93 307t339 99h244l8 47q8 41 8 68q0 121 -154 120q-131 0 -231 -104l-154 125
q156 182 408 182z" />
    <glyph glyph-name="uni1E02" unicode="&#x1e02;" horiz-adv-x="1302" 
d="M690 1604l45 254h248l-45 -254h-248zM696 215q115 0 170 57q74 84 74 215q0 82 -39 117t-129 35h-307l-76 -424h307zM782 854q115 0 168 55q70 74 70 197q0 76 -39 108t-129 33h-281l-69 -393h280zM877 1462q231 0 325 -84q92 -86 92 -243q0 -256 -200 -371l16 -19
q57 -55 78 -108t20 -145q0 -238 -139 -377q-67 -63 -147 -89t-213 -26h-623l258 1462h533z" />
    <glyph glyph-name="uni1E03" unicode="&#x1e03;" horiz-adv-x="1161" 
d="M729 1196l45 254h248l-45 -254h-248zM811 698q0 172 -160 172q-96 0 -150 -58t-77 -183l-37 -207q-8 -49 -8 -84q0 -156 166 -156q96 0 151 68t82 217l21 117q12 74 12 114zM717 1073q352 0 352 -315q0 -70 -18 -187l-29 -155q-41 -238 -142 -338t-300 -101
q-150 0 -232 58l-59 57l-33 -92h-197l258 1462h254l-82 -467q61 47 107 63t121 15z" />
    <glyph glyph-name="uni1E0C" unicode="&#x1e0c;" horiz-adv-x="1376" 
d="M342 -422l45 254h248l-45 -254h-248zM1040 1038q0 115 -86 172q-59 37 -200 37h-181l-180 -1032h178q184 -4 273 78q88 82 127 295l51 286q18 113 18 164zM809 1462q240 0 350 -78q152 -109 152 -311q0 -78 -23 -209l-57 -329q-41 -273 -193 -405t-424 -130h-528
l258 1462h465z" />
    <glyph glyph-name="uni1E0D" unicode="&#x1e0d;" horiz-adv-x="1161" 
d="M313 -422l45 254h248l-45 -254h-248zM506 182q98 0 154 58t79 182l35 207q8 49 8 82q0 160 -159 159q-99 0 -155 -68t-83 -218l-20 -117q-12 -66 -13 -117q0 -168 154 -168zM94 293q0 84 19 188l28 154q41 236 143 337t275 101q189 1 271 -73q5 -4 10 -7l82 469h254
l-258 -1462h-197l-2 78q-6 -4 -14 -12q-94 -88 -264 -88q-347 -2 -347 315z" />
    <glyph glyph-name="uni1E1E" unicode="&#x1e1e;" horiz-adv-x="1118" 
d="M705 1604l45 254h247l-45 -254h-247zM88 0l258 1462h889l-39 -217h-621l-71 -407h522l-39 -217h-522l-109 -621h-268z" />
    <glyph glyph-name="uni1E1F" unicode="&#x1e1f;" horiz-adv-x="708" 
d="M492 1604l45 254h247l-45 -254h-247zM252 850h-121l35 201h121l24 135q27 164 103 222t264 54h145l-30 -186h-66q-92 2 -123 -22t-45 -107l-16 -96h221l-37 -201h-221l-150 -850h-254z" />
    <glyph glyph-name="uni1E24" unicode="&#x1e24;" horiz-adv-x="1390" 
d="M406 -422l45 254h247l-45 -254h-247zM88 0l258 1462h268l-108 -612h493l109 612h268l-256 -1462h-268l111 633h-496l-111 -633h-268z" />
    <glyph glyph-name="uni1E25" unicode="&#x1e25;" horiz-adv-x="1167" 
d="M293 -422l45 254h248l-45 -254h-248zM725 1073q156 0 244 -75t88 -207q0 -84 -25 -218l-100 -573h-254l102 588q12 68 13 110q0 156 -142 156q-100 0 -155 -69t-84 -226l-99 -559h-254l258 1462h254l-82 -465q70 45 116 61t120 15z" />
    <glyph glyph-name="uni1E44" unicode="&#x1e44;" horiz-adv-x="1464" 
d="M829 1604l45 254h248l-45 -254h-248zM88 0l258 1462h260l406 -1011l178 1011h260l-258 -1462h-260l-406 1012l-178 -1012h-260z" />
    <glyph glyph-name="uni1E45" unicode="&#x1e45;" horiz-adv-x="1167" 
d="M580 1196l45 254h247l-45 -254h-247zM1057 788q0 -76 -25 -215l-100 -573h-254l100 573q14 84 15 125q0 158 -142 158q-102 0 -156 -71t-85 -242l-97 -543h-254l185 1051h192l6 -88q104 111 274 111t256 -75q85 -74 85 -211z" />
    <glyph glyph-name="uni1E5A" unicode="&#x1e5a;" horiz-adv-x="1316" 
d="M395 -422l45 254h248l-45 -254h-248zM754 807q133 0 196 65q74 80 74 220q0 84 -47 120t-156 35h-248l-77 -440h258zM854 1462q233 0 339 -81t105 -242q0 -117 -34 -227q-87 -277 -328 -291l209 -621h-297l-178 600h-205l-107 -600h-268l258 1462h506z" />
    <glyph glyph-name="uni1E5B" unicode="&#x1e5b;" horiz-adv-x="800" 
d="M-12 -422l45 254h248l-45 -254h-248zM616 856q-76 0 -128 -82t-85 -266l-90 -508h-254l185 1051h194l19 -82q63 59 112 82t137 23t199 -66l-147 -209q-66 57 -142 57z" />
    <glyph glyph-name="uni1E62" unicode="&#x1e62;" horiz-adv-x="1177" 
d="M279 -422l45 254h247l-45 -254h-247zM188 993q0 225 144 357t393 133q358 0 461 -219l-223 -129q-70 131 -256 131q-113 0 -182 -64t-69 -152t55 -128q53 -40 225 -87q172 -46 249 -104q111 -86 111 -246q0 -243 -151 -375t-417 -132t-411 94q-80 53 -125 149l229 131
q63 -158 307 -157q139 0 220 64q80 65 79 177q0 74 -51 113q-30 21 -60 31t-192 53q-336 89 -336 360z" />
    <glyph glyph-name="uni1E63" unicode="&#x1e63;" horiz-adv-x="1001" 
d="M190 -422l46 254h247l-45 -254h-248zM422 176q102 0 162 42q59 42 59 116q0 45 -31 64q-30 20 -184 38t-226 83t-71 190q0 170 111 267q110 97 312 97t312 -88q51 -39 86 -113l-196 -104q-66 106 -205 106q-78 0 -125 -38t-47 -94t33 -75t131 -32q197 -19 273 -81
t75 -198q0 -379 -477 -379q-350 0 -430 201l204 109q70 -111 234 -111z" />
    <glyph glyph-name="uni1E6C" unicode="&#x1e6c;" horiz-adv-x="1136" 
d="M276 -422l46 254h247l-45 -254h-248zM344 0l219 1245h-399l39 217h1065l-39 -217h-398l-219 -1245h-268z" />
    <glyph glyph-name="uni1E6D" unicode="&#x1e6d;" horiz-adv-x="708" 
d="M63 -422l46 254h247l-45 -254h-248zM516 0q-211 0 -292 52t-81 188q0 88 25 231l68 379h-119l37 201h122l70 307h234l-54 -307h207l-35 -201h-209l-71 -408q-16 -94 -16 -140t32 -71q33 -25 123 -24h29l-37 -207h-33z" />
    <glyph glyph-name="Wgrave" unicode="&#x1e80;" horiz-adv-x="1871" 
d="M1268 1597h-183l-208 314h276zM322 0l-113 1462h262l43 -1093l479 1093h205l94 -1093l428 1093h275l-629 -1462h-240l-100 1030l-465 -1030h-239z" />
    <glyph glyph-name="wgrave" unicode="&#x1e81;" horiz-adv-x="1593" 
d="M1057 1188h-183l-208 313h276zM274 0l-127 1051h252l45 -742l349 742h180l86 -742l307 742h264l-497 -1051h-218l-94 668l-329 -668h-218z" />
    <glyph glyph-name="Wacute" unicode="&#x1e82;" horiz-adv-x="1871" 
d="M987 1597l221 314h287l-317 -314h-191zM322 0l-113 1462h262l43 -1093l479 1093h205l94 -1093l428 1093h275l-629 -1462h-240l-100 1030l-465 -1030h-239z" />
    <glyph glyph-name="wacute" unicode="&#x1e83;" horiz-adv-x="1593" 
d="M774 1188l221 313h287l-317 -313h-191zM274 0l-127 1051h252l45 -742l349 742h180l86 -742l307 742h264l-497 -1051h-218l-94 668l-329 -668h-218z" />
    <glyph glyph-name="Wdieresis" unicode="&#x1e84;" horiz-adv-x="1871" 
d="M1210 1606l45 254h226l-45 -254h-226zM799 1606l45 254h225l-43 -254h-227zM322 0l-113 1462h262l43 -1093l479 1093h205l94 -1093l428 1093h275l-629 -1462h-240l-100 1030l-465 -1030h-239z" />
    <glyph glyph-name="wdieresis" unicode="&#x1e85;" horiz-adv-x="1593" 
d="M995 1196l43 254h228l-45 -254h-226zM592 1196l45 254h225l-43 -254h-227zM274 0l-127 1051h252l45 -742l349 742h180l86 -742l307 742h264l-497 -1051h-218l-94 668l-329 -668h-218z" />
    <glyph glyph-name="uni1E92" unicode="&#x1e92;" horiz-adv-x="1153" 
d="M305 -422l45 254h248l-45 -254h-248zM14 0l31 178l799 1067h-578l37 217h885l-31 -178l-797 -1067h639l-38 -217h-947z" />
    <glyph glyph-name="uni1E93" unicode="&#x1e93;" horiz-adv-x="985" 
d="M211 -422l45 254h248l-45 -254h-248zM-18 0l28 160l584 686h-424l35 205h739l-26 -160l-584 -686h491l-34 -205h-809z" />
    <glyph glyph-name="uni1EA0" unicode="&#x1ea0;" horiz-adv-x="1259" 
d="M362 -422l46 254h247l-45 -254h-248zM848 506l-98 639l-326 -639h424zM874 289h-552l-146 -289h-297l789 1462h258l274 -1462h-285z" />
    <glyph glyph-name="uni1EA1" unicode="&#x1ea1;" horiz-adv-x="1089" 
d="M254 -422l45 254h246l-43 -254h-248zM500 463q-119 0 -166 -49q-51 -47 -51 -148q1 -52 37 -74t140 -22t156 57q27 33 46 125l18 111h-180zM727 750q0 121 -154 120q-127 0 -231 -104l-154 125q156 182 408 182q209 0 313 -92q72 -66 72 -188q0 -66 -20 -187l-109 -606
h-199l-10 49q-88 -72 -264 -72q-176 -1 -260 61t-84 193q0 205 93 305t339 99h244l8 47q8 41 8 68z" />
    <glyph glyph-name="uni1EA2" unicode="&#x1ea2;" horiz-adv-x="1259" 
d="M846 1839q0 31 -41 31t-121 -35l-16 141q109 37 186 37q201 0 201 -164q1 -47 -17 -75t-66 -69q-48 -43 -57 -61q-10 -18 -18 -63h-174q16 90 30 119q13 29 53 72t40 67zM848 506l-98 639l-326 -639h424zM874 289h-552l-146 -289h-297l789 1462h258l274 -1462h-285z" />
    <glyph glyph-name="uni1EA3" unicode="&#x1ea3;" horiz-adv-x="1089" 
d="M721 1436q0 64 -164 -2l-16 139q109 37 188 37q201 0 201 -164q0 -47 -18 -75t-64 -70q-48 -42 -57 -59t-19 -64h-176q16 88 30 118t55 72q40 43 40 68zM500 463q-119 0 -166 -49q-51 -47 -51 -148q1 -52 37 -74t140 -22t156 57q27 33 46 125l18 111h-180zM727 750
q0 121 -154 120q-127 0 -231 -104l-154 125q156 182 408 182q209 0 313 -92q72 -66 72 -188q0 -66 -20 -187l-109 -606h-199l-10 49q-88 -72 -264 -72q-176 -1 -260 61t-84 193q0 205 93 305t339 99h244l8 47q8 41 8 68z" />
    <glyph glyph-name="uni1EA4" unicode="&#x1ea4;" horiz-adv-x="1259" 
d="M840 1669l-135 -110h-240l305 245h170l221 -245h-223zM776 1860l164 239h207l-229 -239h-142zM848 506l-98 639l-326 -639h424zM874 289h-552l-146 -289h-297l789 1462h258l274 -1462h-285z" />
    <glyph glyph-name="uni1EA5" unicode="&#x1ea5;" horiz-adv-x="1089" 
d="M682 1260l-135 -111h-240l305 248h172l220 -248h-224zM618 1450l164 240h207l-229 -240h-142zM500 463q-119 0 -166 -49q-51 -47 -51 -148q1 -52 37 -74t140 -22t156 57q27 33 46 125l18 111h-180zM727 750q0 121 -154 120q-127 0 -231 -104l-154 125q156 182 408 182
q209 0 313 -92q72 -66 72 -188q0 -66 -20 -187l-109 -606h-199l-10 49q-88 -72 -264 -72q-176 -1 -260 61t-84 193q0 205 93 305t339 99h244l8 47q8 41 8 68z" />
    <glyph glyph-name="uni1EA6" unicode="&#x1ea6;" horiz-adv-x="1259" 
d="M840 1669l-135 -110h-240l305 245h172l219 -245h-223zM936 1860h-127l-160 239h193zM848 506l-98 639l-326 -639h424zM874 289h-552l-146 -289h-297l789 1462h258l274 -1462h-285z" />
    <glyph glyph-name="uni1EA7" unicode="&#x1ea7;" horiz-adv-x="1089" 
d="M684 1260l-137 -111h-240l307 248h170l220 -248h-224zM778 1450h-127l-159 240h192zM500 463q-119 0 -166 -49q-51 -47 -51 -148q1 -52 37 -74t140 -22t156 57q27 33 46 125l18 111h-180zM727 750q0 121 -154 120q-127 0 -231 -104l-154 125q156 182 408 182
q209 0 313 -92q72 -66 72 -188q0 -66 -20 -187l-109 -606h-199l-10 49q-88 -72 -264 -72q-176 -1 -260 61t-84 193q0 205 93 305t339 99h244l8 47q8 41 8 68z" />
    <glyph glyph-name="uni1EA8" unicode="&#x1ea8;" horiz-adv-x="1259" 
d="M836 1663l-136 -104h-239l303 227h170l223 -227h-223zM868 1985q0 50 -127 -3l-18 107q82 31 168 31q154 0 153 -115q0 -33 -14 -55t-55 -54t-47 -79h-152q10 82 74 137q18 16 18 31zM848 506l-98 639l-326 -639h424zM874 289h-552l-146 -289h-297l789 1462h258
l274 -1462h-285z" />
    <glyph glyph-name="uni1EA9" unicode="&#x1ea9;" horiz-adv-x="1089" 
d="M680 1253l-135 -104h-240l301 227h172l223 -227h-223zM733 1712q154 0 154 -115q-1 -35 -15 -57t-56 -54t-44 -79h-151q6 51 19 78t52 61q18 18 19 31q0 50 -127 -4l-17 106q82 33 166 33zM500 463q-119 0 -166 -49q-51 -47 -51 -148q1 -52 37 -74t140 -22t156 57
q27 33 46 125l18 111h-180zM727 750q0 121 -154 120q-127 0 -231 -104l-154 125q156 182 408 182q209 0 313 -92q72 -66 72 -188q0 -66 -20 -187l-109 -606h-199l-10 49q-88 -72 -264 -72q-176 -1 -260 61t-84 193q0 205 93 305t339 99h244l8 47q8 41 8 68z" />
    <glyph glyph-name="uni1EAA" unicode="&#x1eaa;" horiz-adv-x="1259" 
d="M844 1669l-135 -110h-240l305 245h170l221 -245h-223zM783 2101q88 0 134 -45t55 -52t23 -7q43 0 74 92h131q-33 -100 -57 -143q-55 -92 -147 -92t-143 52q-52 52 -73 52q-51 0 -86 -92h-129q35 98 64 143q66 92 154 92zM848 506l-98 639l-326 -639h424zM874 289h-552
l-146 -289h-297l789 1462h258l274 -1462h-285z" />
    <glyph glyph-name="uni1EAB" unicode="&#x1eab;" horiz-adv-x="1089" 
d="M688 1260l-137 -111h-240l305 248h172l220 -248h-224zM840 1589q41 0 71 92h131q-35 -109 -57 -143q-53 -92 -158 -92q-78 0 -125 45t-56 51t-23 6q-47 0 -86 -90h-129q43 111 65 141q61 94 164 95q76 0 122 -46t56 -52q10 -7 25 -7zM500 463q-119 0 -166 -49
q-51 -47 -51 -148q1 -52 37 -74t140 -22t156 57q27 33 46 125l18 111h-180zM727 750q0 121 -154 120q-127 0 -231 -104l-154 125q156 182 408 182q209 0 313 -92q72 -66 72 -188q0 -66 -20 -187l-109 -606h-199l-10 49q-88 -72 -264 -72q-176 -1 -260 61t-84 193
q0 205 93 305t339 99h244l8 47q8 41 8 68z" />
    <glyph glyph-name="uni1EAC" unicode="&#x1eac;" horiz-adv-x="1259" 
d="M362 -422l46 254h247l-45 -254h-248zM850 1761l-150 -159h-254l330 305h180l222 -305h-232zM848 506l-98 639l-326 -639h424zM874 289h-552l-146 -289h-297l789 1462h258l274 -1462h-285z" />
    <glyph glyph-name="uni1EAD" unicode="&#x1ead;" horiz-adv-x="1089" 
d="M268 -422l43 254h248l-45 -254h-246zM696 1352l-147 -160h-254l328 305h182l221 -305h-233zM500 463q-119 0 -166 -49q-51 -47 -51 -148q1 -52 37 -74t140 -22t156 57q27 33 46 125l18 111h-180zM727 750q0 121 -154 120q-127 0 -231 -104l-154 125q156 182 408 182
q209 0 313 -92q72 -66 72 -188q0 -66 -20 -187l-109 -606h-199l-10 49q-88 -72 -264 -72q-176 -1 -260 61t-84 193q0 205 93 305t339 99h244l8 47q8 41 8 68z" />
    <glyph glyph-name="uni1EAE" unicode="&#x1eae;" horiz-adv-x="1259" 
d="M692 1817q0 -96 150 -97q84 0 127 27t63 96h164q-25 -159 -109 -227t-258 -68q-297 0 -297 199q1 30 9 96h153q-2 -12 -2 -26zM776 1860l164 239h207l-229 -239h-142zM848 506l-98 639l-326 -639h424zM874 289h-552l-146 -289h-297l789 1462h258l274 -1462h-285z" />
    <glyph glyph-name="uni1EAF" unicode="&#x1eaf;" horiz-adv-x="1089" 
d="M537 1436v-27q0 -98 149 -98q84 -1 125 27t63 98h164q-24 -160 -108 -228t-258 -67q-295 0 -295 198q0 29 8 97h152zM618 1450l164 240h207l-229 -240h-142zM500 463q-119 0 -166 -49q-51 -47 -51 -148q1 -52 37 -74t140 -22t156 57q27 33 46 125l18 111h-180zM727 750
q0 121 -154 120q-127 0 -231 -104l-154 125q156 182 408 182q209 0 313 -92q72 -66 72 -188q0 -66 -20 -187l-109 -606h-199l-10 49q-88 -72 -264 -72q-176 -1 -260 61t-84 193q0 205 93 305t339 99h244l8 47q8 41 8 68z" />
    <glyph glyph-name="uni1EB0" unicode="&#x1eb0;" horiz-adv-x="1259" 
d="M692 1817q0 -96 150 -97q84 0 127 27t63 96h164q-25 -159 -109 -227t-258 -68q-297 0 -297 199q1 30 9 96h153q-2 -12 -2 -26zM946 1860h-127l-157 239h190zM848 506l-98 639l-326 -639h424zM874 289h-552l-146 -289h-297l789 1462h258l274 -1462h-285z" />
    <glyph glyph-name="uni1EB1" unicode="&#x1eb1;" horiz-adv-x="1089" 
d="M537 1436v-27q0 -98 149 -98q84 -1 125 27t63 98h164q-24 -160 -108 -228t-258 -67q-295 0 -295 198q0 29 8 97h152zM791 1450h-127l-160 240h192zM500 463q-119 0 -166 -49q-51 -47 -51 -148q1 -52 37 -74t140 -22t156 57q27 33 46 125l18 111h-180zM727 750
q0 121 -154 120q-127 0 -231 -104l-154 125q156 182 408 182q209 0 313 -92q72 -66 72 -188q0 -66 -20 -187l-109 -606h-199l-10 49q-88 -72 -264 -72q-176 -1 -260 61t-84 193q0 205 93 305t339 99h244l8 47q8 41 8 68z" />
    <glyph glyph-name="uni1EB2" unicode="&#x1eb2;" horiz-adv-x="1259" 
d="M692 1817q0 -96 150 -97q84 0 127 27t63 96h164q-25 -159 -109 -227t-258 -68q-297 0 -297 199q1 30 9 96h153q-2 -12 -2 -26zM870 1985q0 47 -127 -3l-18 107q78 31 166 31q156 0 156 -117q1 -35 -13 -57t-65 -60q-31 -25 -41 -78h-150q6 53 21 80q14 27 53 62
q18 23 18 35zM848 506l-98 639l-326 -639h424zM874 289h-552l-146 -289h-297l789 1462h258l274 -1462h-285z" />
    <glyph glyph-name="uni1EB3" unicode="&#x1eb3;" horiz-adv-x="1089" 
d="M537 1436v-27q0 -98 149 -98q84 -1 125 27t63 98h164q-24 -160 -108 -228t-258 -67q-295 0 -295 198q0 29 8 97h152zM730 1712q79 0 119 -31t40 -77t-13 -68q-12 -22 -54 -52q-42 -32 -52 -85h-149q6 51 19 78q12 27 42 55t31 45q0 23 -33 23t-92 -27l-19 106
q82 33 161 33zM500 463q-119 0 -166 -49q-51 -47 -51 -148q1 -52 37 -74t140 -22t156 57q27 33 46 125l18 111h-180zM727 750q0 121 -154 120q-127 0 -231 -104l-154 125q156 182 408 182q209 0 313 -92q72 -66 72 -188q0 -66 -20 -187l-109 -606h-199l-10 49
q-88 -72 -264 -72q-176 -1 -260 61t-84 193q0 205 93 305t339 99h244l8 47q8 41 8 68z" />
    <glyph glyph-name="uni1EB4" unicode="&#x1eb4;" horiz-adv-x="1259" 
d="M678 1819v-25q0 -88 149 -88q82 0 123 25t62 88h149q-25 -119 -63 -166q-84 -102 -287 -103q-285 0 -285 189q1 33 9 80h143zM991 2011q43 0 74 92h131q-37 -109 -57 -143q-53 -92 -160 -92q-76 0 -129 52t-74 52q-51 0 -86 -92h-129q37 100 66 141q61 94 164 95
q49 0 77 -16t95 -79q10 -10 28 -10zM848 506l-98 639l-326 -639h424zM874 289h-552l-146 -289h-297l789 1462h258l274 -1462h-285z" />
    <glyph glyph-name="uni1EB5" unicode="&#x1eb5;" horiz-adv-x="1089" 
d="M520 1386q0 -90 150 -90q82 0 122 25t62 88h152q-29 -121 -66 -166q-84 -102 -287 -102q-285 0 -284 188q0 33 8 80h145q-2 -10 -2 -23zM633 1706q51 0 79 -15t95 -79q10 -10 27 -10q43 0 73 92h131q-45 -140 -89 -188t-125 -48t-136 58q-37 34 -46 40t-24 7
q-49 -1 -86 -93h-129q41 109 66 144q61 92 164 92zM500 463q-119 0 -166 -49q-51 -47 -51 -148q1 -52 37 -74t140 -22t156 57q27 33 46 125l18 111h-180zM727 750q0 121 -154 120q-127 0 -231 -104l-154 125q156 182 408 182q209 0 313 -92q72 -66 72 -188q0 -66 -20 -187
l-109 -606h-199l-10 49q-88 -72 -264 -72q-176 -1 -260 61t-84 193q0 205 93 305t339 99h244l8 47q8 41 8 68z" />
    <glyph glyph-name="uni1EB6" unicode="&#x1eb6;" horiz-adv-x="1259" 
d="M362 -422l46 254h247l-45 -254h-248zM686 1864q0 -98 154 -99q90 0 133 29t67 107h164q-25 -141 -67 -199q-92 -123 -299 -123q-317 0 -318 227q0 36 10 95h158q-2 -29 -2 -37zM848 506l-98 639l-326 -639h424zM874 289h-552l-146 -289h-297l789 1462h258l274 -1462h-285
z" />
    <glyph glyph-name="uni1EB7" unicode="&#x1eb7;" horiz-adv-x="1089" 
d="M264 -422l45 254h246l-43 -254h-248zM528 1456q0 -100 156 -100q88 0 131 30t68 107h164q-20 -135 -68 -199q-92 -125 -299 -125q-317 0 -318 230q1 35 11 94h159q-4 -23 -4 -37zM500 463q-119 0 -166 -49q-51 -47 -51 -148q1 -52 37 -74t140 -22t156 57q27 33 46 125
l18 111h-180zM727 750q0 121 -154 120q-127 0 -231 -104l-154 125q156 182 408 182q209 0 313 -92q72 -66 72 -188q0 -66 -20 -187l-109 -606h-199l-10 49q-88 -72 -264 -72q-176 -1 -260 61t-84 193q0 205 93 305t339 99h244l8 47q8 41 8 68z" />
    <glyph glyph-name="uni1EB8" unicode="&#x1eb8;" horiz-adv-x="1189" 
d="M391 -422l45 254h246l-43 -254h-248zM88 0l258 1462h901l-39 -217h-635l-69 -395h538l-38 -217h-539l-74 -416h643l-39 -217h-907z" />
    <glyph glyph-name="uni1EB9" unicode="&#x1eb9;" horiz-adv-x="1122" 
d="M293 -422l45 254h248l-45 -254h-248zM809 725q0 162 -170 162q-96 1 -161 -59t-81 -166l-4 -21h406q10 41 10 84zM350 352q0 -176 193 -176q139 0 231 109l166 -135q-76 -94 -172 -134t-250 -39q-213 0 -316 86t-104 263q0 94 21 194l12 76q23 131 54 208
q112 269 448 269q408 0 407 -360q0 -98 -32 -250h-643l-7 -33q-8 -39 -8 -78z" />
    <glyph glyph-name="uni1EBA" unicode="&#x1eba;" horiz-adv-x="1189" 
d="M823 1870q-41 0 -121 -35l-18 141q113 37 188 37q201 0 201 -164q0 -47 -17 -75t-83 -84q-27 -26 -37 -44t-21 -65h-174q14 88 29 118q14 30 54 73t40 67q0 31 -41 31zM88 0l258 1462h901l-39 -217h-635l-69 -395h538l-38 -217h-539l-74 -416h643l-39 -217h-907z" />
    <glyph glyph-name="uni1EBB" unicode="&#x1ebb;" horiz-adv-x="1122" 
d="M719 1436q0 63 -162 -2l-18 139q109 37 197 37t140 -42t52 -106t-18 -91q-18 -28 -64 -69t-56 -59t-20 -65h-174q14 88 28 118t55 72q40 43 40 68zM809 725q0 162 -170 162q-96 1 -161 -59t-81 -166l-4 -21h406q10 41 10 84zM350 352q0 -176 193 -176q139 0 231 109
l166 -135q-76 -94 -172 -134t-250 -39q-213 0 -316 86t-104 263q0 94 21 194l12 76q23 131 54 208q112 269 448 269q408 0 407 -360q0 -98 -32 -250h-643l-7 -33q-8 -39 -8 -78z" />
    <glyph glyph-name="uni1EBC" unicode="&#x1ebc;" horiz-adv-x="1189" 
d="M709 1901q88 -1 145 -53q56 -52 72 -61t41 -9t45 24t43 84h153q-41 -127 -69 -176q-66 -115 -193 -115q-92 -1 -158 61t-95 62t-57 -30t-44 -78h-156q47 129 78 174q76 117 195 117zM88 0l258 1462h901l-39 -217h-635l-69 -395h538l-38 -217h-539l-74 -416h643l-39 -217
h-907z" />
    <glyph glyph-name="uni1EBD" unicode="&#x1ebd;" horiz-adv-x="1122" 
d="M592 1493q86 0 144 -51q58 -52 72 -62q15 -10 38 -10q53 0 92 109h154q-50 -169 -106 -231t-154 -62t-162 61t-94 61t-58 -29q-28 -30 -43 -79h-156q45 125 78 176q76 117 195 117zM809 725q0 162 -170 162q-96 1 -161 -59t-81 -166l-4 -21h406q10 41 10 84zM350 352
q0 -176 193 -176q139 0 231 109l166 -135q-76 -94 -172 -134t-250 -39q-213 0 -316 86t-104 263q0 94 21 194l12 76q23 131 54 208q112 269 448 269q408 0 407 -360q0 -98 -32 -250h-643l-7 -33q-8 -39 -8 -78z" />
    <glyph glyph-name="uni1EBE" unicode="&#x1ebe;" horiz-adv-x="1189" 
d="M829 1669l-135 -110h-239l305 245h170l221 -245h-223zM766 1860l164 239h207l-230 -239h-141zM88 0l258 1462h901l-39 -217h-635l-69 -395h538l-38 -217h-539l-74 -416h643l-39 -217h-907z" />
    <glyph glyph-name="uni1EBF" unicode="&#x1ebf;" horiz-adv-x="1122" 
d="M698 1260l-135 -111h-239l305 248h172l219 -248h-223zM635 1450l164 240h207l-230 -240h-141zM809 725q0 162 -170 162q-96 1 -161 -59t-81 -166l-4 -21h406q10 41 10 84zM350 352q0 -176 193 -176q139 0 231 109l166 -135q-76 -94 -172 -134t-250 -39q-213 0 -316 86
t-104 263q0 94 21 194l12 76q23 131 54 208q112 269 448 269q408 0 407 -360q0 -98 -32 -250h-643l-7 -33q-8 -39 -8 -78z" />
    <glyph glyph-name="uni1EC0" unicode="&#x1ec0;" horiz-adv-x="1189" 
d="M831 1669l-137 -110h-239l307 245h170l219 -245h-223zM926 1860h-127l-160 239h192zM88 0l258 1462h901l-39 -217h-635l-69 -395h538l-38 -217h-539l-74 -416h643l-39 -217h-907z" />
    <glyph glyph-name="uni1EC1" unicode="&#x1ec1;" horiz-adv-x="1122" 
d="M700 1260l-137 -111h-239l307 248h170l219 -248h-223zM795 1450h-127l-160 240h192zM809 725q0 162 -170 162q-96 1 -161 -59t-81 -166l-4 -21h406q10 41 10 84zM350 352q0 -176 193 -176q139 0 231 109l166 -135q-76 -94 -172 -134t-250 -39q-213 0 -316 86t-104 263
q0 94 21 194l12 76q23 131 54 208q112 269 448 269q408 0 407 -360q0 -98 -32 -250h-643l-7 -33q-8 -39 -8 -78z" />
    <glyph glyph-name="uni1EC2" unicode="&#x1ec2;" horiz-adv-x="1189" 
d="M827 1663l-135 -104h-239l301 227h172l223 -227h-223zM858 1985q0 23 -34 23t-93 -26l-16 107q78 31 166 31q154 0 153 -115q0 -33 -14 -55t-54 -54q-40 -30 -46 -79h-152q6 51 20 77t52 60q18 18 18 31zM88 0l258 1462h901l-39 -217h-635l-69 -395h538l-38 -217h-539
l-74 -416h643l-39 -217h-907z" />
    <glyph glyph-name="uni1EC3" unicode="&#x1ec3;" horiz-adv-x="1122" 
d="M696 1253l-135 -104h-239l301 227h172l223 -227h-223zM727 1577q0 50 -127 -4l-16 106q82 33 166 33q154 0 153 -115q0 -35 -15 -57q-14 -22 -54 -54q-40 -30 -46 -79h-151q6 51 20 79t52 60q18 18 18 31zM809 725q0 162 -170 162q-96 1 -161 -59t-81 -166l-4 -21h406
q10 41 10 84zM350 352q0 -176 193 -176q139 0 231 109l166 -135q-76 -94 -172 -134t-250 -39q-213 0 -316 86t-104 263q0 94 21 194l12 76q23 131 54 208q112 269 448 269q408 0 407 -360q0 -98 -32 -250h-643l-7 -33q-8 -39 -8 -78z" />
    <glyph glyph-name="uni1EC4" unicode="&#x1ec4;" horiz-adv-x="1189" 
d="M836 1669l-138 -110h-239l305 245h172l219 -245h-223zM784 2101q76 0 129 -51q61 -51 74 -53q43 0 72 92h131q-33 -100 -57 -143q-55 -92 -145 -92t-148 57q-33 33 -43 40t-27 7q-49 0 -86 -92h-129q39 104 66 143q61 92 163 92zM88 0l258 1462h901l-39 -217h-635
l-69 -395h538l-38 -217h-539l-74 -416h643l-39 -217h-907z" />
    <glyph glyph-name="uni1EC5" unicode="&#x1ec5;" horiz-adv-x="1122" 
d="M702 1260l-135 -111h-239l305 248h172l219 -248h-223zM856 1589q41 0 72 92h131q-43 -137 -87 -186t-125 -49t-128 45t-56 51t-24 6q-47 0 -86 -90h-129q43 111 65 141q61 94 164 95q76 0 122 -46t56 -52q10 -7 25 -7zM809 725q0 162 -170 162q-96 1 -161 -59t-81 -166
l-4 -21h406q10 41 10 84zM350 352q0 -176 193 -176q139 0 231 109l166 -135q-76 -94 -172 -134t-250 -39q-213 0 -316 86t-104 263q0 94 21 194l12 76q23 131 54 208q112 269 448 269q408 0 407 -360q0 -98 -32 -250h-643l-7 -33q-8 -39 -8 -78z" />
    <glyph glyph-name="uni1EC6" unicode="&#x1ec6;" horiz-adv-x="1189" 
d="M391 -422l45 254h246l-43 -254h-248zM848 1761l-150 -159h-254l328 305h182l222 -305h-234zM88 0l258 1462h901l-39 -217h-635l-69 -395h538l-38 -217h-539l-74 -416h643l-39 -217h-907z" />
    <glyph glyph-name="uni1EC7" unicode="&#x1ec7;" horiz-adv-x="1122" 
d="M287 -422l45 254h248l-45 -254h-248zM725 1352l-150 -160h-251l327 305h180l222 -305h-232zM809 725q0 162 -170 162q-96 1 -161 -59t-81 -166l-4 -21h406q10 41 10 84zM350 352q0 -176 193 -176q139 0 231 109l166 -135q-76 -94 -172 -134t-250 -39q-213 0 -316 86
t-104 263q0 94 21 194l12 76q23 131 54 208q112 269 448 269q408 0 407 -360q0 -98 -32 -250h-643l-7 -33q-8 -39 -8 -78z" />
    <glyph glyph-name="uni1EC8" unicode="&#x1ec8;" horiz-adv-x="628" 
d="M541 1839q0 31 -41 31t-121 -35l-19 141q113 37 189 37q201 0 201 -164q0 -47 -18 -75t-64 -69q-48 -43 -58 -61t-18 -63h-174q14 88 28 118t54 73t41 67zM88 0l258 1462h268l-258 -1462h-268z" />
    <glyph glyph-name="uni1EC9" unicode="&#x1ec9;" horiz-adv-x="561" 
d="M452 1610q90 0 142 -42t53 -106q0 -64 -17 -91q-17 -28 -85 -85q-27 -27 -37 -44t-19 -64h-176q17 90 31 118t54 72q40 43 40 68q0 64 -164 -2l-16 139q104 37 194 37zM59 0l185 1051h256l-187 -1051h-254z" />
    <glyph glyph-name="uni1ECA" unicode="&#x1eca;" horiz-adv-x="628" 
d="M23 -422l45 254h247l-45 -254h-247zM88 0l258 1462h268l-258 -1462h-268z" />
    <glyph glyph-name="uni1ECB" unicode="&#x1ecb;" horiz-adv-x="561" 
d="M-12 -422l45 254h248l-45 -254h-248zM59 0l185 1051h256l-187 -1051h-254zM274 1212l45 263h254l-45 -263h-254z" />
    <glyph glyph-name="uni1ECC" unicode="&#x1ecc;" horiz-adv-x="1374" 
d="M393 -422l45 254h248l-45 -254h-248zM1040 1053q0 215 -229 215q-145 0 -221 -87t-115 -298l-53 -303q-18 -111 -19 -172q0 -213 228 -213q147 0 223 87t115 298l53 303q18 111 18 170zM825 1485q238 1 362 -101t124 -299q0 -86 -23 -211l-61 -350q-29 -162 -68 -249
t-115 -156q-154 -141 -416 -141t-379 108q-116 108 -116 289q0 84 23 215l61 348q29 162 68 249t117 159t178 106q100 33 245 33z" />
    <glyph glyph-name="uni1ECD" unicode="&#x1ecd;" horiz-adv-x="1144" 
d="M281 -422l45 254h247l-45 -254h-247zM518 182q106 0 162 64t82 219l22 123q12 74 13 125q0 158 -170 157q-104 0 -159 -64q-54 -65 -83 -218l-20 -123q-14 -84 -15 -121q0 -162 168 -162zM637 1073q416 0 416 -328q0 -84 -17 -172l-28 -159q-41 -232 -157 -334t-334 -102
t-320 80q-102 81 -103 249q1 72 19 170l26 160q41 233 157 335t341 101z" />
    <glyph glyph-name="uni1ECE" unicode="&#x1ece;" horiz-adv-x="1374" 
d="M870 1870q-41 0 -120 -35l-17 141q102 37 187 37q201 0 200 -164q0 -47 -17 -75t-83 -84q-27 -26 -36 -44t-19 -65h-177q16 90 30 119t54 72t39 67q0 31 -41 31zM1040 1053q0 215 -229 215q-145 0 -221 -87t-115 -298l-53 -303q-18 -111 -19 -172q0 -213 228 -213
q147 0 223 87t115 298l53 303q18 111 18 170zM825 1485q238 1 362 -101t124 -299q0 -86 -23 -211l-61 -350q-29 -162 -68 -249t-115 -156q-154 -141 -416 -141t-379 108q-116 108 -116 289q0 84 23 215l61 348q29 162 68 249t117 159t178 106q100 33 245 33z" />
    <glyph glyph-name="uni1ECF" unicode="&#x1ecf;" horiz-adv-x="1144" 
d="M729 1436q0 64 -160 -2l-18 139q109 37 197 37t140 -42t52 -106t-17 -91q-17 -28 -65 -70t-56 -59q-10 -17 -20 -64h-176q16 90 30 118t53 72q40 43 40 68zM518 182q106 0 162 64t82 219l22 123q12 74 13 125q0 158 -170 157q-104 0 -159 -64q-54 -65 -83 -218l-20 -123
q-14 -84 -15 -121q0 -162 168 -162zM637 1073q416 0 416 -328q0 -84 -17 -172l-28 -159q-41 -232 -157 -334t-334 -102t-320 80q-102 81 -103 249q1 72 19 170l26 160q41 233 157 335t341 101z" />
    <glyph glyph-name="uni1ED0" unicode="&#x1ed0;" horiz-adv-x="1374" 
d="M895 1669l-135 -110h-240l305 245h172l220 -245h-224zM831 1860l164 239h207l-229 -239h-142zM1040 1053q0 215 -229 215q-145 0 -221 -87t-115 -298l-53 -303q-18 -111 -19 -172q0 -213 228 -213q147 0 223 87t115 298l53 303q18 111 18 170zM825 1485q238 1 362 -101
t124 -299q0 -86 -23 -211l-61 -350q-29 -162 -68 -249t-115 -156q-154 -141 -416 -141t-379 108q-116 108 -116 289q0 84 23 215l61 348q29 162 68 249t117 159t178 106q100 33 245 33z" />
    <glyph glyph-name="uni1ED1" unicode="&#x1ed1;" horiz-adv-x="1144" 
d="M711 1260l-136 -111h-239l305 248h170l221 -248h-223zM647 1450l164 240h207l-230 -240h-141zM518 182q106 0 162 64t82 219l22 123q12 74 13 125q0 158 -170 157q-104 0 -159 -64q-54 -65 -83 -218l-20 -123q-14 -84 -15 -121q0 -162 168 -162zM637 1073q416 0 416 -328
q0 -84 -17 -172l-28 -159q-41 -232 -157 -334t-334 -102t-320 80q-102 81 -103 249q1 72 19 170l26 160q41 233 157 335t341 101z" />
    <glyph glyph-name="uni1ED2" unicode="&#x1ed2;" horiz-adv-x="1374" 
d="M895 1669l-135 -110h-240l305 245h172l220 -245h-224zM991 1860h-127l-159 239h192zM1040 1053q0 215 -229 215q-145 0 -221 -87t-115 -298l-53 -303q-18 -111 -19 -172q0 -213 228 -213q147 0 223 87t115 298l53 303q18 111 18 170zM825 1485q238 1 362 -101t124 -299
q0 -86 -23 -211l-61 -350q-29 -162 -68 -249t-115 -156q-154 -141 -416 -141t-379 108q-116 108 -116 289q0 84 23 215l61 348q29 162 68 249t117 159t178 106q100 33 245 33z" />
    <glyph glyph-name="uni1ED3" unicode="&#x1ed3;" horiz-adv-x="1144" 
d="M711 1260l-136 -111h-239l305 248h172l219 -248h-223zM807 1450h-127l-160 240h193zM518 182q106 0 162 64t82 219l22 123q12 74 13 125q0 158 -170 157q-104 0 -159 -64q-54 -65 -83 -218l-20 -123q-14 -84 -15 -121q0 -162 168 -162zM637 1073q416 0 416 -328
q0 -84 -17 -172l-28 -159q-41 -232 -157 -334t-334 -102t-320 80q-102 81 -103 249q1 72 19 170l26 160q41 233 157 335t341 101z" />
    <glyph glyph-name="uni1ED4" unicode="&#x1ed4;" horiz-adv-x="1374" 
d="M893 1663l-135 -104h-240l301 227h172l223 -227h-223zM946 2120q154 0 154 -115q0 -33 -14 -55t-56 -54q-41 -32 -47 -79h-149q6 51 20 77t42 52t28 39q0 23 -34 23t-93 -26l-19 107q82 31 168 31zM1040 1053q0 215 -229 215q-145 0 -221 -87t-115 -298l-53 -303
q-18 -111 -19 -172q0 -213 228 -213q147 0 223 87t115 298l53 303q18 111 18 170zM825 1485q238 1 362 -101t124 -299q0 -86 -23 -211l-61 -350q-29 -162 -68 -249t-115 -156q-154 -141 -416 -141t-379 108q-116 108 -116 289q0 84 23 215l61 348q29 162 68 249t117 159
t178 106q100 33 245 33z" />
    <glyph glyph-name="uni1ED5" unicode="&#x1ed5;" horiz-adv-x="1144" 
d="M707 1253l-136 -104h-239l303 227h170l223 -227h-223zM739 1577q1 23 -33 23t-94 -27l-18 106q84 33 168 33q154 0 153 -115q0 -35 -15 -57t-55 -54t-46 -79h-152q9 84 63 129q28 24 29 41zM518 182q106 0 162 64t82 219l22 123q12 74 13 125q0 158 -170 157
q-104 0 -159 -64q-54 -65 -83 -218l-20 -123q-14 -84 -15 -121q0 -162 168 -162zM637 1073q416 0 416 -328q0 -84 -17 -172l-28 -159q-41 -232 -157 -334t-334 -102t-320 80q-102 81 -103 249q1 72 19 170l26 160q41 233 157 335t341 101z" />
    <glyph glyph-name="uni1ED6" unicode="&#x1ed6;" horiz-adv-x="1374" 
d="M899 1669l-135 -110h-240l305 245h172l220 -245h-224zM850 2101q76 0 122 -45t56 -52t25 -7q41 0 71 92h131q-35 -106 -57 -143q-54 -92 -146 -92t-149 57q-35 35 -44 41t-23 6q-53 0 -86 -92h-129q39 104 65 143q61 92 164 92zM1040 1053q0 215 -229 215
q-145 0 -221 -87t-115 -298l-53 -303q-18 -111 -19 -172q0 -213 228 -213q147 0 223 87t115 298l53 303q18 111 18 170zM825 1485q238 1 362 -101t124 -299q0 -86 -23 -211l-61 -350q-29 -162 -68 -249t-115 -156q-154 -141 -416 -141t-379 108q-116 108 -116 289
q0 84 23 215l61 348q29 162 68 249t117 159t178 106q100 33 245 33z" />
    <glyph glyph-name="uni1ED7" unicode="&#x1ed7;" horiz-adv-x="1144" 
d="M715 1260l-135 -111h-240l305 248h172l219 -248h-223zM866 1589q47 0 74 92h131q-33 -100 -57 -143q-53 -92 -160 -92q-76 0 -124 45t-56 51t-23 6q-49 0 -86 -90h-129q37 100 64 141q66 95 154 95t134 -46t55 -52q9 -7 23 -7zM518 182q106 0 162 64t82 219l22 123
q12 74 13 125q0 158 -170 157q-104 0 -159 -64q-54 -65 -83 -218l-20 -123q-14 -84 -15 -121q0 -162 168 -162zM637 1073q416 0 416 -328q0 -84 -17 -172l-28 -159q-41 -232 -157 -334t-334 -102t-320 80q-102 81 -103 249q1 72 19 170l26 160q41 233 157 335t341 101z" />
    <glyph glyph-name="uni1ED8" unicode="&#x1ed8;" horiz-adv-x="1374" 
d="M393 -422l45 254h248l-45 -254h-248zM911 1761l-147 -159h-254l328 305h182l221 -305h-233zM1040 1053q0 215 -229 215q-145 0 -221 -87t-115 -298l-53 -303q-18 -111 -19 -172q0 -213 228 -213q147 0 223 87t115 298l53 303q18 111 18 170zM825 1485q238 1 362 -101
t124 -299q0 -86 -23 -211l-61 -350q-29 -162 -68 -249t-115 -156q-154 -141 -416 -141t-379 108q-116 108 -116 289q0 84 23 215l61 348q29 162 68 249t117 159t178 106q100 33 245 33z" />
    <glyph glyph-name="uni1ED9" unicode="&#x1ed9;" horiz-adv-x="1144" 
d="M281 -422l45 254h247l-45 -254h-247zM727 1352l-149 -160h-252l327 305h181l221 -305h-232zM518 182q106 0 162 64t82 219l22 123q12 74 13 125q0 158 -170 157q-104 0 -159 -64q-54 -65 -83 -218l-20 -123q-14 -84 -15 -121q0 -162 168 -162zM637 1073q416 0 416 -328
q0 -84 -17 -172l-28 -159q-41 -232 -157 -334t-334 -102t-320 80q-102 81 -103 249q1 72 19 170l26 160q41 233 157 335t341 101z" />
    <glyph glyph-name="uni1EDA" unicode="&#x1eda;" horiz-adv-x="1454" 
d="M786 1597l222 314h286l-317 -314h-191zM1040 1051q0 215 -225 215q-149 0 -225 -86t-115 -297l-53 -303q-18 -104 -19 -172q0 -213 228 -213q147 0 223 87t115 298l53 303q18 111 18 168zM1303 1180q147 94 147 204q0 54 -18 103h221q6 -47 6 -66q0 -162 -143 -266
q-68 -49 -209 -119v-12l-2 -35q-6 -59 -17 -115l-61 -350q-29 -162 -68 -249t-115 -156q-154 -141 -416 -141t-379 108q-116 108 -116 289q0 80 23 215l61 348q29 162 68 248t114 155q156 143 426 144q422 0 478 -305z" />
    <glyph glyph-name="uni1EDB" unicode="&#x1edb;" horiz-adv-x="1245" 
d="M598 1188l221 313h287l-318 -313h-190zM520 182q104 0 160 64t82 219l22 123q12 74 13 123q0 158 -170 157q-104 0 -159 -64q-54 -65 -83 -216l-20 -123q-14 -80 -15 -123q0 -160 170 -160zM1376 1008q0 -117 -78 -205t-254 -172l-8 -58l-28 -159q-41 -232 -157 -334
t-334 -102t-320 80q-102 81 -103 249q0 72 19 170l26 160q41 233 157 335t328 101q212 0 313 -71t114 -218q117 86 116 203q0 37 -16 86h219q6 -49 6 -65z" />
    <glyph glyph-name="uni1EDC" unicode="&#x1edc;" horiz-adv-x="1454" 
d="M1032 1597h-182l-209 314h274zM1040 1051q0 215 -225 215q-149 0 -225 -86t-115 -297l-53 -303q-18 -104 -19 -172q0 -213 228 -213q147 0 223 87t115 298l53 303q18 111 18 168zM1303 1180q147 94 147 204q0 54 -18 103h221q6 -47 6 -66q0 -162 -143 -266
q-68 -49 -209 -119v-12l-2 -35q-6 -59 -17 -115l-61 -350q-29 -162 -68 -249t-115 -156q-154 -141 -416 -141t-379 108q-116 108 -116 289q0 80 23 215l61 348q29 162 68 248t114 155q156 143 426 144q422 0 478 -305z" />
    <glyph glyph-name="uni1EDD" unicode="&#x1edd;" horiz-adv-x="1245" 
d="M872 1188h-180l-209 313h275zM520 182q104 0 160 64t82 219l22 123q12 74 13 123q0 158 -170 157q-104 0 -159 -64q-54 -65 -83 -216l-20 -123q-14 -80 -15 -123q0 -160 170 -160zM1376 1008q0 -117 -78 -205t-254 -172l-8 -58l-28 -159q-41 -232 -157 -334t-334 -102
t-320 80q-102 81 -103 249q0 72 19 170l26 160q41 233 157 335t328 101q212 0 313 -71t114 -218q117 86 116 203q0 37 -16 86h219q6 -49 6 -65z" />
    <glyph glyph-name="uni1EDE" unicode="&#x1ede;" horiz-adv-x="1454" 
d="M920 1839q0 31 -42 31t-120 -35l-19 141q113 37 189 37q201 0 200 -164q0 -47 -17 -75t-65 -69q-48 -43 -57 -61q-10 -18 -18 -63h-174q14 88 28 118q15 30 55 73t40 67zM1040 1051q0 215 -225 215q-149 0 -225 -86t-115 -297l-53 -303q-18 -104 -19 -172
q0 -213 228 -213q147 0 223 87t115 298l53 303q18 111 18 168zM1303 1180q147 94 147 204q0 54 -18 103h221q6 -47 6 -66q0 -162 -143 -266q-68 -49 -209 -119v-12l-2 -35q-6 -59 -17 -115l-61 -350q-29 -162 -68 -249t-115 -156q-154 -141 -416 -141t-379 108
q-116 108 -116 289q0 80 23 215l61 348q29 162 68 248t114 155q156 143 426 144q422 0 478 -305z" />
    <glyph glyph-name="uni1EDF" unicode="&#x1edf;" horiz-adv-x="1245" 
d="M748 1436q0 30 -44 30t-120 -32l-17 139q109 37 187 37q203 0 202 -164q0 -47 -17 -75t-65 -69t-56 -59q-9 -18 -19 -65h-176q16 88 30 118q15 30 55 72q40 43 40 68zM520 182q104 0 160 64t82 219l22 123q12 74 13 123q0 158 -170 157q-104 0 -159 -64q-54 -65 -83 -216
l-20 -123q-14 -80 -15 -123q0 -160 170 -160zM1376 1008q0 -117 -78 -205t-254 -172l-8 -58l-28 -159q-41 -232 -157 -334t-334 -102t-320 80q-102 81 -103 249q0 72 19 170l26 160q41 233 157 335t328 101q212 0 313 -71t114 -218q117 86 116 203q0 37 -16 86h219
q6 -49 6 -65z" />
    <glyph glyph-name="uni1EE0" unicode="&#x1ee0;" horiz-adv-x="1454" 
d="M807 1901q87 1 143 -51t72 -62t37 -10q55 0 92 108h156q-39 -121 -70 -176q-66 -115 -193 -115q-96 -1 -160 61t-93 62q-64 1 -103 -108h-153q47 129 75 174q78 117 197 117zM1040 1051q0 215 -225 215q-149 0 -225 -86t-115 -297l-53 -303q-18 -104 -19 -172
q0 -213 228 -213q147 0 223 87t115 298l53 303q18 111 18 168zM1303 1180q147 94 147 204q0 54 -18 103h221q6 -47 6 -66q0 -162 -143 -266q-68 -49 -209 -119v-12l-2 -35q-6 -59 -17 -115l-61 -350q-29 -162 -68 -249t-115 -156q-154 -141 -416 -141t-379 108
q-116 108 -116 289q0 80 23 215l61 348q29 162 68 248t114 155q156 143 426 144q422 0 478 -305z" />
    <glyph glyph-name="uni1EE1" unicode="&#x1ee1;" horiz-adv-x="1245" 
d="M604 1493q86 0 156 -63q47 -42 62 -52t36 -10q55 0 92 111h154q-35 -119 -68 -176q-70 -117 -194 -117q-96 0 -160 61t-93 61q-30 0 -58 -29q-28 -30 -44 -79h-155q45 125 78 176q76 117 194 117zM520 182q104 0 160 64t82 219l22 123q12 74 13 123q0 158 -170 157
q-104 0 -159 -64q-54 -65 -83 -216l-20 -123q-14 -80 -15 -123q0 -160 170 -160zM1376 1008q0 -117 -78 -205t-254 -172l-8 -58l-28 -159q-41 -232 -157 -334t-334 -102t-320 80q-102 81 -103 249q0 72 19 170l26 160q41 233 157 335t328 101q212 0 313 -71t114 -218
q117 86 116 203q0 37 -16 86h219q6 -49 6 -65z" />
    <glyph glyph-name="uni1EE2" unicode="&#x1ee2;" horiz-adv-x="1454" 
d="M389 -422l45 254h248l-45 -254h-248zM1040 1051q0 215 -225 215q-149 0 -225 -86t-115 -297l-53 -303q-18 -104 -19 -172q0 -213 228 -213q147 0 223 87t115 298l53 303q18 111 18 168zM1303 1180q147 94 147 204q0 54 -18 103h221q6 -47 6 -66q0 -162 -143 -266
q-68 -49 -209 -119v-12l-2 -35q-6 -59 -17 -115l-61 -350q-29 -162 -68 -249t-115 -156q-154 -141 -416 -141t-379 108q-116 108 -116 289q0 80 23 215l61 348q29 162 68 248t114 155q156 143 426 144q422 0 478 -305z" />
    <glyph glyph-name="uni1EE3" unicode="&#x1ee3;" horiz-adv-x="1245" 
d="M291 -422l45 254h248l-45 -254h-248zM520 182q104 0 160 64t82 219l22 123q12 74 13 123q0 158 -170 157q-104 0 -159 -64q-54 -65 -83 -216l-20 -123q-14 -80 -15 -123q0 -160 170 -160zM1376 1008q0 -117 -78 -205t-254 -172l-8 -58l-28 -159q-41 -232 -157 -334
t-334 -102t-320 80q-102 81 -103 249q0 72 19 170l26 160q41 233 157 335t328 101q212 0 313 -71t114 -218q117 86 116 203q0 37 -16 86h219q6 -49 6 -65z" />
    <glyph glyph-name="uni1EE4" unicode="&#x1ee4;" horiz-adv-x="1400" 
d="M410 -422l45 254h247l-45 -254h-247zM645 197q174 0 252 122q41 70 68 226l161 917h269l-170 -964q-27 -156 -57 -229t-89 -136q-154 -154 -436 -153q-152 0 -245 30t-154 101q-84 92 -84 235q0 84 28 244l154 872h268l-161 -917q-18 -109 -19 -162q0 -186 215 -186z" />
    <glyph glyph-name="uni1EE5" unicode="&#x1ee5;" horiz-adv-x="1146" 
d="M281 -422l45 254h247l-45 -254h-247zM375 350q0 -156 133 -155q96 1 147 71t82 244l97 541h253l-186 -1051h-170l-18 96q-51 -66 -116 -92t-167 -27q-152 0 -236 74t-83 207q0 88 28 244l97 549h253l-96 -551q-18 -104 -18 -150z" />
    <glyph glyph-name="uni1EE6" unicode="&#x1ee6;" horiz-adv-x="1400" 
d="M928 1839q0 31 -42 31t-120 -35l-18 141q113 37 186 37q203 0 203 -164q1 -47 -17 -75t-66 -69q-48 -43 -57 -61q-10 -18 -18 -63h-174q14 88 29 118q14 30 54 73t40 67zM645 197q174 0 252 122q41 70 68 226l161 917h269l-170 -964q-27 -156 -57 -229t-89 -136
q-154 -154 -436 -153q-152 0 -245 30t-154 101q-84 92 -84 235q0 84 28 244l154 872h268l-161 -917q-18 -109 -19 -162q0 -186 215 -186z" />
    <glyph glyph-name="uni1EE7" unicode="&#x1ee7;" horiz-adv-x="1146" 
d="M731 1436q0 64 -164 -2l-16 139q109 37 197 37t140 -42t52 -106t-17 -91q-17 -28 -65 -70t-56 -59q-10 -17 -20 -64h-176q16 88 30 118t55 72q40 43 40 68zM375 350q0 -156 133 -155q96 1 147 71t82 244l97 541h253l-186 -1051h-170l-18 96q-51 -66 -116 -92t-167 -27
q-152 0 -236 74t-83 207q0 88 28 244l97 549h253l-96 -551q-18 -104 -18 -150z" />
    <glyph glyph-name="uni1EE8" unicode="&#x1ee8;" horiz-adv-x="1536" 
d="M817 1597l221 314h287l-317 -314h-191zM645 197q174 0 252 122q41 70 68 226l161 917h269l-56 -313q92 41 134 80q74 63 73 170q0 37 -16 88h219q6 -49 6 -66q0 -162 -147 -272q-96 -70 -295 -158l-88 -493q-27 -156 -57 -229t-89 -136q-154 -154 -436 -153
q-152 0 -245 30t-154 101q-84 92 -84 235q0 84 28 244l154 872h268l-161 -917q-18 -104 -19 -162q0 -186 215 -186z" />
    <glyph glyph-name="uni1EE9" unicode="&#x1ee9;" horiz-adv-x="1304" 
d="M608 1188l221 313h287l-317 -313h-191zM375 350q0 -156 133 -155q94 -1 146 71t83 244l97 541h253l-55 -318q92 45 131 78q76 66 76 174q0 39 -16 88h221q4 -61 4 -63q0 -164 -148 -275q-78 -59 -296 -160l-103 -575h-170l-18 96q-92 -119 -283 -119q-154 0 -236 74
t-83 207q0 88 28 244l97 549h253l-96 -551q-18 -100 -18 -150z" />
    <glyph glyph-name="uni1EEA" unicode="&#x1eea;" horiz-adv-x="1536" 
d="M1051 1597h-181l-211 314h277zM645 197q174 0 252 122q41 70 68 226l161 917h269l-56 -313q92 41 134 80q74 63 73 170q0 37 -16 88h219q6 -49 6 -66q0 -162 -147 -272q-96 -70 -295 -158l-88 -493q-27 -156 -57 -229t-89 -136q-154 -154 -436 -153q-152 0 -245 30
t-154 101q-84 92 -84 235q0 84 28 244l154 872h268l-161 -917q-18 -104 -19 -162q0 -186 215 -186z" />
    <glyph glyph-name="uni1EEB" unicode="&#x1eeb;" horiz-adv-x="1304" 
d="M815 1188h-182l-209 313h276zM375 350q0 -156 133 -155q94 -1 146 71t83 244l97 541h253l-55 -318q92 45 131 78q76 66 76 174q0 39 -16 88h221q4 -61 4 -63q0 -164 -148 -275q-78 -59 -296 -160l-103 -575h-170l-18 96q-92 -119 -283 -119q-154 0 -236 74t-83 207
q0 88 28 244l97 549h253l-96 -551q-18 -100 -18 -150z" />
    <glyph glyph-name="uni1EEC" unicode="&#x1eec;" horiz-adv-x="1536" 
d="M906 1870q-44 0 -118 -35l-18 141q113 37 186 37q203 0 203 -164q0 -47 -17 -75q-16 -28 -64 -69q-48 -43 -58 -61t-19 -63h-174q14 88 29 118q14 30 54 73t40 67q0 31 -44 31zM645 197q174 0 252 122q41 70 68 226l161 917h269l-56 -313q92 41 134 80q74 63 73 170
q0 37 -16 88h219q6 -49 6 -66q0 -162 -147 -272q-96 -70 -295 -158l-88 -493q-27 -156 -57 -229t-89 -136q-154 -154 -436 -153q-152 0 -245 30t-154 101q-84 92 -84 235q0 84 28 244l154 872h268l-161 -917q-18 -104 -19 -162q0 -186 215 -186z" />
    <glyph glyph-name="uni1EED" unicode="&#x1eed;" horiz-adv-x="1304" 
d="M748 1436q0 64 -164 -2l-17 139q104 37 187 37q203 0 202 -162q0 -49 -17 -77t-85 -85q-27 -25 -36 -43t-19 -65h-176q16 88 30 118q15 30 55 72q40 43 40 68zM375 350q0 -156 133 -155q94 -1 146 71t83 244l97 541h253l-55 -318q92 45 131 78q76 66 76 174q0 39 -16 88
h221q4 -61 4 -63q0 -164 -148 -275q-78 -59 -296 -160l-103 -575h-170l-18 96q-92 -119 -283 -119q-154 0 -236 74t-83 207q0 88 28 244l97 549h253l-96 -551q-18 -100 -18 -150z" />
    <glyph glyph-name="uni1EEE" unicode="&#x1eee;" horiz-adv-x="1536" 
d="M817 1901q87 1 143 -51t72 -62t37 -10q55 0 92 108h156q-39 -121 -70 -176q-66 -115 -192 -115q-97 -1 -161 61t-93 62q-64 1 -103 -108h-153q47 129 76 174q78 117 196 117zM645 197q174 0 252 122q41 70 68 226l161 917h269l-56 -313q92 41 134 80q74 63 73 170
q0 37 -16 88h219q6 -49 6 -66q0 -162 -147 -272q-96 -70 -295 -158l-88 -493q-27 -156 -57 -229t-89 -136q-154 -154 -436 -153q-152 0 -245 30t-154 101q-84 92 -84 235q0 84 28 244l154 872h268l-161 -917q-18 -104 -19 -162q0 -186 215 -186z" />
    <glyph glyph-name="uni1EEF" unicode="&#x1eef;" horiz-adv-x="1304" 
d="M614 1493q86 0 142 -52q56 -53 74 -63q17 -10 38 -10q55 0 93 111h153q-39 -125 -67 -176q-70 -117 -195 -117q-92 0 -158 61t-96 62q-61 0 -102 -109h-154q45 125 78 176q76 117 194 117zM375 350q0 -156 133 -155q94 -1 146 71t83 244l97 541h253l-55 -318
q92 45 131 78q76 66 76 174q0 39 -16 88h221q4 -61 4 -63q0 -164 -148 -275q-78 -59 -296 -160l-103 -575h-170l-18 96q-92 -119 -283 -119q-154 0 -236 74t-83 207q0 88 28 244l97 549h253l-96 -551q-18 -100 -18 -150z" />
    <glyph glyph-name="uni1EF0" unicode="&#x1ef0;" horiz-adv-x="1536" 
d="M414 -422l45 254h246l-43 -254h-248zM645 197q174 0 252 122q41 70 68 226l161 917h269l-56 -313q92 41 134 80q74 63 73 170q0 37 -16 88h219q6 -49 6 -66q0 -162 -147 -272q-96 -70 -295 -158l-88 -493q-27 -156 -57 -229t-89 -136q-154 -154 -436 -153q-152 0 -245 30
t-154 101q-84 92 -84 235q0 84 28 244l154 872h268l-161 -917q-18 -104 -19 -162q0 -186 215 -186z" />
    <glyph glyph-name="uni1EF1" unicode="&#x1ef1;" horiz-adv-x="1304" 
d="M322 -422l45 254h245l-43 -254h-247zM375 350q0 -156 133 -155q94 -1 146 71t83 244l97 541h253l-55 -318q92 45 131 78q76 66 76 174q0 39 -16 88h221q4 -61 4 -63q0 -164 -148 -275q-78 -59 -296 -160l-103 -575h-170l-18 96q-92 -119 -283 -119q-154 0 -236 74
t-83 207q0 88 28 244l97 549h253l-96 -551q-18 -100 -18 -150z" />
    <glyph glyph-name="Ygrave" unicode="&#x1ef2;" horiz-adv-x="1112" 
d="M887 1597h-182l-209 314h276zM334 0l92 528l-289 934h277l186 -669l422 669h291l-619 -934l-92 -528h-268z" />
    <glyph glyph-name="ygrave" unicode="&#x1ef3;" horiz-adv-x="1034" 
d="M770 1188h-182l-209 313h276zM299 18l-178 1033h252l102 -758l352 758h265l-582 -1143q-92 -176 -159 -250t-155 -100t-270 -29l37 207q127 0 174 32t115 160z" />
    <glyph glyph-name="uni1EF4" unicode="&#x1ef4;" horiz-adv-x="1112" 
d="M264 -422l45 254h248l-45 -254h-248zM334 0l92 528l-289 934h277l186 -669l422 669h291l-619 -934l-92 -528h-268z" />
    <glyph glyph-name="uni1EF5" unicode="&#x1ef5;" horiz-adv-x="1034" 
d="M541 -422l43 254h247l-45 -254h-245zM299 18l-178 1033h252l102 -758l352 758h265l-582 -1143q-92 -176 -159 -250t-155 -100t-270 -29l37 207q127 0 174 32t115 160z" />
    <glyph glyph-name="uni1EF6" unicode="&#x1ef6;" horiz-adv-x="1112" 
d="M770 1839q0 31 -42 31t-122 -35l-16 141q111 37 186 37q203 0 203 -164q0 -47 -17 -75q-16 -28 -64 -69t-58 -59t-19 -65h-176q16 90 31 119q14 29 54 72t40 67zM334 0l92 528l-289 934h277l186 -669l422 669h291l-619 -934l-92 -528h-268z" />
    <glyph glyph-name="uni1EF7" unicode="&#x1ef7;" horiz-adv-x="1034" 
d="M662 1436q0 65 -162 -2l-19 139q111 37 189 37q201 0 200 -164q0 -47 -17 -75t-65 -69t-57 -60q-10 -19 -18 -64h-174q16 88 29 118q14 30 54 73q40 42 40 67zM299 18l-178 1033h252l102 -758l352 758h265l-582 -1143q-92 -176 -159 -250t-155 -100t-270 -29l37 207
q127 0 174 32t115 160z" />
    <glyph glyph-name="uni1EF8" unicode="&#x1ef8;" horiz-adv-x="1112" 
d="M657 1901q89 1 145 -51t72 -62t37 -10q55 0 93 108h155q-41 -127 -69 -176q-70 -115 -193 -115q-98 0 -166 68q-39 37 -54 46t-36 9q-61 1 -100 -108h-156q49 133 78 174q76 117 194 117zM334 0l92 528l-289 934h277l186 -669l422 669h291l-619 -934l-92 -528h-268z" />
    <glyph glyph-name="uni1EF9" unicode="&#x1ef9;" horiz-adv-x="1034" 
d="M543 1493q90 0 155 -63q68 -61 99 -62q55 0 92 111h155q-53 -169 -107 -231q-55 -62 -153 -62t-162 61t-93 61q-31 0 -59 -29q-28 -30 -44 -79h-156q47 123 78 176q78 117 195 117zM299 18l-178 1033h252l102 -758l352 758h265l-582 -1143q-92 -176 -159 -250t-155 -100
t-270 -29l37 207q127 0 174 32t115 160z" />
    <glyph glyph-name="uni2002" unicode="&#x2002;" horiz-adv-x="1024" 
 />
    <glyph glyph-name="uni2003" unicode="&#x2003;" horiz-adv-x="2048" 
 />
    <glyph glyph-name="uni2004" unicode="&#x2004;" horiz-adv-x="681" 
 />
    <glyph glyph-name="uni2005" unicode="&#x2005;" horiz-adv-x="512" 
 />
    <glyph glyph-name="uni2006" unicode="&#x2006;" horiz-adv-x="342" 
 />
    <glyph glyph-name="uni2007" unicode="&#x2007;" 
 />
    <glyph glyph-name="uni2008" unicode="&#x2008;" horiz-adv-x="0" 
 />
    <glyph glyph-name="uni2009" unicode="&#x2009;" horiz-adv-x="409" 
 />
    <glyph glyph-name="uni200A" unicode="&#x200a;" horiz-adv-x="256" 
 />
    <glyph glyph-name="uni2011" unicode="&#x2011;" horiz-adv-x="956" 
d="M178 623l39 217h635l-39 -217h-635z" />
    <glyph glyph-name="figuredash" unicode="&#x2012;" 
d="M147 623l39 217h844l-39 -217h-844z" />
    <glyph glyph-name="endash" unicode="&#x2013;" 
d="M147 623l39 217h844l-39 -217h-844z" />
    <glyph glyph-name="emdash" unicode="&#x2014;" 
d="M8 623l39 217h1120l-39 -217h-1120z" />
    <glyph glyph-name="afii00208" unicode="&#x2015;" 
d="M8 623l39 217h1120l-39 -217h-1120z" />
    <glyph glyph-name="underscoredbl" unicode="&#x2017;" horiz-adv-x="962" 
d="M-190 -266l24 135h1065l-25 -135h-1064zM-227 -475l24 135h1065l-24 -135h-1065z" />
    <glyph glyph-name="quoteleft" unicode="&#x2018;" horiz-adv-x="442" 
d="M555 1462l-162 -524h-266l211 524h217z" />
    <glyph glyph-name="quoteright" unicode="&#x2019;" horiz-adv-x="442" 
d="M127 938l160 524h268l-213 -524h-215z" />
    <glyph glyph-name="quotesinglbase" unicode="&#x201a;" horiz-adv-x="442" 
d="M-86 -268l160 524h268l-213 -524h-215z" />
    <glyph glyph-name="quotedblleft" unicode="&#x201c;" horiz-adv-x="866" 
d="M555 1462l-162 -524h-266l211 524h217zM977 1462l-160 -524h-266l211 524h215z" />
    <glyph glyph-name="quotedblright" unicode="&#x201d;" horiz-adv-x="866" 
d="M551 938l160 524h266l-211 -524h-215zM127 938l160 524h268l-213 -524h-215z" />
    <glyph glyph-name="quotedblbase" unicode="&#x201e;" horiz-adv-x="866" 
d="M338 -268l160 524h268l-213 -524h-215zM-86 -268l160 524h268l-213 -524h-215z" />
    <glyph glyph-name="dagger" unicode="&#x2020;" 
d="M475 815h-321l39 217h319l76 430h260l-76 -430h322l-39 -217h-320l-198 -1126h-261z" />
    <glyph glyph-name="daggerdbl" unicode="&#x2021;" 
d="M475 815h-321l39 217h319l76 430h260l-76 -430h322l-39 -217h-320l-45 -254h293l-37 -217h-295l-114 -655h-261l115 655h-293l39 217h293z" />
    <glyph glyph-name="bullet" unicode="&#x2022;" 
d="M554 1098q160 0 270 -106t110 -264q0 -156 -110 -264t-272 -108t-270 106q-110 106 -110 265t110 265t272 106z" />
    <glyph glyph-name="ellipsis" unicode="&#x2026;" horiz-adv-x="1787" 
d="M1264 0l47 260h268l-47 -260h-268zM668 0l45 260h268l-45 -260h-268zM72 0l45 260h268l-45 -260h-268z" />
    <glyph glyph-name="perthousand" unicode="&#x2030;" horiz-adv-x="2732" 
d="M520 0l721 1462h236l-719 -1462h-238zM2439 535q0 117 -108 116q-70 0 -108 -47t-58 -158l-19 -104q-10 -53 -10 -90q0 -113 109 -113q69 0 107 47t58 156l17 94q12 72 12 99zM2338 811q176 0 251 -72q68 -61 67 -164q0 -41 -14 -131l-27 -151q-16 -92 -40 -142
q-83 -172 -339 -171q-168 0 -242 63t-75 170q0 43 14 135l27 150q16 92 40 142t68 91q94 80 270 80zM1630 535q0 117 -108 116q-70 0 -107 -46t-57 -159l-19 -104q-12 -61 -12 -90q0 -113 109 -113q72 0 110 47t56 156l16 94q12 74 12 99zM1110 213q0 45 16 135l27 150
q16 94 40 144q81 169 339 169q174 0 248 -72q68 -61 67 -164q0 -59 -14 -131l-27 -151q-16 -95 -40 -145q-82 -169 -336 -168q-320 0 -320 233zM559 1323q-69 0 -107 -46t-59 -157l-18 -104q-10 -57 -10 -92q0 -113 108 -113q70 0 108 47t58 158l16 94q12 72 13 98
q0 115 -109 115zM567 1483q176 0 250 -72q68 -61 68 -164q0 -43 -15 -129l-26 -153q-16 -95 -40 -145q-82 -169 -337 -169q-170 -1 -245 63t-75 171q1 41 17 135l24 149q16 95 40 145t71 89q92 80 268 80z" />
    <glyph glyph-name="guilsinglleft" unicode="&#x2039;" horiz-adv-x="552" 
d="M340 586l129 -258l-176 -90l-227 366l356 365l137 -125z" />
    <glyph glyph-name="guilsinglright" unicode="&#x203a;" horiz-adv-x="552" 
d="M242 621l-129 258l176 90l227 -365l-356 -366l-137 127z" />
    <glyph glyph-name="uni203E" unicode="&#x203e;" horiz-adv-x="962" 
d="M147 1653l31 176h1065l-31 -176h-1065z" />
    <glyph glyph-name="fraction" unicode="&#x2044;" horiz-adv-x="370" 
d="M-229 0l721 1462h237l-721 -1462h-237z" />
    <glyph glyph-name="zerosuperior" unicode="&#x2070;" horiz-adv-x="735" 
d="M543 1532q-55 0 -88 -47t-54 -158l-34 -197q-12 -74 -13 -106q0 -98 84 -98q58 0 90 46t52 158l34 197q12 63 13 105q0 100 -84 100zM827 1460q0 -47 -12 -125l-39 -221q-33 -180 -116 -258t-246 -78q-260 0 -260 219q0 47 14 125l39 221q31 181 114 259t240 77
q266 0 266 -219z" />
    <glyph glyph-name="foursuperior" unicode="&#x2074;" horiz-adv-x="733" 
d="M471 791l25 145h-381l20 117l404 614h215l-379 -575h149l27 157h180l-26 -157h83l-26 -158h-86l-25 -143h-180z" />
    <glyph glyph-name="fivesuperior" unicode="&#x2075;" horiz-adv-x="729" 
d="M766 1172q0 -84 -23 -164t-57 -121q-90 -109 -293 -109q-260 0 -260 205q0 18 2 37l199 24q-2 -6 -2 -32t24 -52t75 -26q50 0 86 50t36 135t-82 85q-66 0 -121 -49l-147 27l129 485h502l-29 -162h-328l-47 -168q49 12 88 13q120 0 184 -47t64 -131z" />
    <glyph glyph-name="sixsuperior" unicode="&#x2076;" horiz-adv-x="733" 
d="M494 1219q-64 -1 -102 -57t-38 -146t84 -90q63 0 102 56q38 56 38 146t-84 91zM586 1358q76 0 134 -47t58 -130t-22 -168t-56 -128q-82 -106 -282 -107q-264 0 -264 203q0 131 51 233q23 45 86 125l262 328h238l-256 -311h14q18 2 37 2z" />
    <glyph glyph-name="sevensuperior" unicode="&#x2077;" horiz-adv-x="571" 
d="M94 791l402 714h-332l26 162h555l-20 -119l-406 -757h-225z" />
    <glyph glyph-name="eightsuperior" unicode="&#x2078;" horiz-adv-x="733" 
d="M483 1176q-71 0 -107 -44t-36 -125t96 -81q66 0 104 45t38 125q-1 80 -95 80zM547 1540q-59 0 -94 -42t-35 -118t86 -75q59 0 93 43q34 44 34 118t-84 74zM233 1383q0 81 46 167q76 129 288 129q248 0 248 -178q0 -156 -96 -246q59 -45 59 -129q0 -154 -73 -245
q-86 -102 -287 -103q-143 0 -211 46t-68 145q0 210 131 286q-37 47 -37 128z" />
    <glyph glyph-name="ninesuperior" unicode="&#x2079;" horiz-adv-x="733" 
d="M539 1532q-61 0 -97 -48t-36 -128q0 -84 83 -84q59 0 97 48q37 48 37 130t-84 82zM203 1305q1 79 23 157t55 117q84 100 278 100q266 0 266 -180q0 -104 -27 -179t-85 -151l-289 -378h-238l267 342q-106 0 -152 20q-98 41 -98 152z" />
    <glyph glyph-name="zeroinferior" unicode="&#x2080;" horiz-adv-x="735" 
d="M178 31q0 -100 84 -101q57 0 89 47t52 158l35 197q12 74 13 106q0 98 -84 99q-57 1 -89 -47t-53 -158l-35 -197q-12 -82 -12 -104zM385 684q266 0 266 -219q0 -55 -12 -125l-39 -221q-33 -180 -116 -258t-246 -78q-260 0 -261 219q1 51 15 125l39 221q31 178 113 257
q83 79 241 79z" />
    <glyph glyph-name="oneinferior" unicode="&#x2081;" horiz-adv-x="548" 
d="M72 -205l121 686l-154 -53l-33 143l287 101h139l-156 -877h-204z" />
    <glyph glyph-name="twoinferior" unicode="&#x2082;" horiz-adv-x="724" 
d="M438 461q0 69 -87 69t-128 -116l-186 16q33 125 96 182q94 78 254 78q258 0 258 -192q0 -157 -123 -284q-29 -30 -133 -128l-137 -129h297l-29 -162h-579l22 129l307 293q168 162 168 244z" />
    <glyph glyph-name="threeinferior" unicode="&#x2083;" horiz-adv-x="724" 
d="M266 324q66 0 110 34t44 79q0 44 -23 66t-61 21q-90 0 -125 -90l-182 17q31 117 94 165q88 70 246 70q262 0 262 -188q0 -113 -58 -185q-16 -20 -69 -55q80 -57 80 -149q0 -129 -74 -222q-88 -104 -293 -104q-289 0 -289 199q0 23 2 43l197 24v-14q0 -92 109 -92
q66 0 104 40t39 105q0 100 -125 100h-92l24 136h80z" />
    <glyph glyph-name="fourinferior" unicode="&#x2084;" horiz-adv-x="733" 
d="M295 -205l24 144h-380l20 116l403 617h216l-379 -578h149l27 160h180l-27 -160h84l-26 -155h-86l-25 -144h-180z" />
    <glyph glyph-name="fiveinferior" unicode="&#x2085;" horiz-adv-x="729" 
d="M342 354q120 0 184 -48t64 -130t-23 -163t-57 -122q-90 -109 -293 -108q-260 0 -260 205q0 18 2 37l197 24v-14q0 -43 24 -70t75 -27q50 0 86 51q36 50 36 135t-82 85q-66 0 -121 -49l-147 26l129 486h501l-28 -162h-328l-47 -168q49 12 88 12z" />
    <glyph glyph-name="sixinferior" unicode="&#x2086;" horiz-adv-x="733" 
d="M317 223q-63 0 -101 -56q-38 -57 -38 -147t84 -90q72 0 107 64q33 66 32 143q0 86 -84 86zM410 362q82 0 137 -52t55 -130t-22 -163t-56 -128q-82 -106 -282 -106q-264 0 -265 203q0 131 52 233q23 45 86 125l262 328h237l-256 -312h15q18 2 37 2z" />
    <glyph glyph-name="seveninferior" unicode="&#x2087;" horiz-adv-x="571" 
d="M-78 -205l402 715h-332l26 162h555l-20 -119l-406 -758h-225z" />
    <glyph glyph-name="eightinferior" unicode="&#x2088;" horiz-adv-x="733" 
d="M307 180q-69 0 -107 -44t-38 -125t96 -81q68 0 106 45t37 125q0 80 -94 80zM371 545q-59 0 -95 -42t-34 -118q0 -76 86 -76q59 0 93 43t34 118t-84 75zM57 390q0 79 45 165q72 129 289 129q248 0 248 -178q0 -156 -96 -246q59 -45 59 -129q0 -154 -79 -251t-281 -97
q-143 0 -211 46t-68 144q0 211 131 287q-37 51 -37 130z" />
    <glyph glyph-name="nineinferior" unicode="&#x2089;" horiz-adv-x="733" 
d="M362 537q-61 1 -97 -47t-36 -131t84 -83q61 0 97 48t36 129q0 84 -84 84zM27 309q0 78 22 157q23 79 55 118q82 100 279 100q266 0 266 -182t-112 -328l-289 -379h-238l266 342q-109 0 -151 21q-98 39 -98 151z" />
    <glyph glyph-name="franc" unicode="&#x20a3;" horiz-adv-x="1593" 
d="M840 0l164 930h190l12 -101q66 70 122 97q56 26 141 26t188 -55l-144 -205q-57 57 -116 58q-93 0 -151 -85t-91 -276l-68 -389h-247zM74 0l258 1462h743l-39 -217h-483l-72 -407h385l-39 -217h-385l-108 -621h-260z" />
    <glyph glyph-name="lira" unicode="&#x20a4;" 
d="M236 997q0 156 77 285q117 203 400 203q250 0 360 -142q51 -74 74 -206l-229 -86l-7 24q-8 37 -12 53q-34 144 -192 144q-81 0 -139 -65t-58 -173q0 -63 33 -162h372l-24 -143h-303q10 -68 12 -108h270l-24 -144h-273l-2 -10l-4 -29q-31 -123 -135 -221h586l-39 -217
h-965l33 186q102 25 181 107t100 184h-254l24 144h228q-6 29 -33 108h-176l26 143h107q-14 63 -14 125z" />
    <glyph glyph-name="peseta" unicode="&#x20a7;" 
d="M496 915l-37 -208h112q111 -2 173 47t98 161h-346zM864 1059v26q0 90 -46 130t-148 40h-115l-33 -196h342zM662 1462q160 0 250 -28t152 -109q63 -80 62 -219q0 -23 -2 -47h136l-25 -144h-129q-55 -225 -186 -324t-365 -93h-129l-88 -498h-260l162 915h-168l24 144h170
l70 403h326z" />
    <glyph glyph-name="uni20AB" unicode="&#x20ab;" 
d="M281 350q0 -168 153 -168q190 0 232 240l36 207q8 43 9 82q0 160 -160 159q-99 0 -155 -67t-85 -219l-20 -117q-10 -57 -10 -117zM23 293q0 92 18 188l27 154q41 236 142 337t278 101q187 1 269 -73q5 -4 9 -7l29 162h-293l28 162h293l27 145h254l-27 -145h160l-29 -162
h-159l-203 -1155h-197l-2 78q-6 -4 -14 -12q-96 -88 -265 -88q-345 -2 -345 315zM-96 -375l30 176h969l-31 -176h-968z" />
    <glyph glyph-name="Euro" unicode="&#x20ac;" 
d="M1171 1159q0 -31 -8 -94l-245 -18v34q0 178 -166 179q-111 0 -174 -86t-97 -285l-4 -23h510l-82 -143h-454l-21 -115h404l-80 -143h-344q-6 -49 -7 -74q0 -203 195 -203q184 0 240 164l249 -30q-82 -350 -505 -351q-219 1 -334 101t-115 293q0 41 8 100h-180l82 143h121
l20 115h-178l82 143h121l10 64q29 158 65 246t101 157q135 143 377 144q197 0 303 -83t106 -235z" />
    <glyph glyph-name="uni20B4" unicode="&#x20b4;" 
d="M831 1139q1 69 -41 107t-118 38q-135 0 -219 -119l-177 101q141 217 412 217q184 0 284 -88t101 -250q0 -119 -53 -225q-10 -23 -57 -80l118 -33l-61 -137l-201 55q-66 -37 -237 -92l376 -103l-61 -137l-500 142q-96 -74 -96 -201q1 -152 189 -152t292 119l181 -104
q-156 -219 -482 -220q-205 -1 -313 87t-109 233q0 145 47 231q0 4 48 74l-131 37l61 137l188 -51q27 18 215 96l-342 94l62 138l493 -140q131 86 131 226z" />
    <glyph glyph-name="uni2101" unicode="&#x2101;" horiz-adv-x="1888" 
d="M1577 251q0 44 -31 68q-25 14 -139 43q-219 53 -219 232q0 131 86 213t258 82q236 0 309 -150l-176 -90q-45 84 -139 84q-57 0 -94 -31q-37 -32 -37 -74q-1 -42 31 -65t142 -51t164 -76q52 -49 52 -139q0 -153 -93 -231t-274 -78q-278 0 -354 162l180 92q43 -98 176 -99
q70 0 114 32t44 76zM621 877l-66 348l-190 -348h256zM868 674l389 788h209l-718 -1462h-211l288 586h-149l-31 155h-352l-84 -155h-221l520 876h172z" />
    <glyph glyph-name="afii61248" unicode="&#x2105;" horiz-adv-x="1914" 
d="M506 0l721 1462h209l-721 -1462h-209zM1638 528q0 133 -139 134q-90 0 -141 -56t-74 -180l-8 -45q-10 -68 -10 -100q0 -135 139 -136q89 -1 141 55t72 181l8 45q12 59 12 102zM1498 823q179 -1 261 -67t82 -203q0 -53 -14 -139l-12 -70q-35 -192 -133 -276t-276 -84
q-179 0 -261 66t-82 204q0 57 12 139l12 70q33 193 133 277t278 83zM580 1315q-90 -1 -142 -61q-51 -60 -73 -189l-5 -31q-8 -49 -8 -92q0 -143 137 -143q105 0 177 86l149 -97q-121 -152 -342 -151q-158 0 -241 74t-82 217q0 68 12 131l6 31q35 198 133 292t272 95
q233 0 304 -179l-166 -73q-41 90 -131 90z" />
    <glyph glyph-name="afii61289" unicode="&#x2113;" 
d="M578 748q113 131 179 267q67 136 66 236q0 35 -13 58t-36 22q-57 0 -101 -132t-95 -451zM506 188q0 -70 39 -69q25 0 39 17q14 16 44 76t64 60q43 0 43 -53q0 -94 -79 -179t-175 -85q-188 0 -188 266q0 90 6 160q-86 -102 -111 -102q-14 -1 -26 23t-12 52t11 42
q11 16 55 62t99 117q81 487 187 703t264 215q88 0 140 -60t52 -159q0 -318 -403 -705l-12 -77q-37 -234 -37 -304z" />
    <glyph glyph-name="afii61352" unicode="&#x2116;" horiz-adv-x="2402" 
d="M1384 0l35 205h809l-37 -205h-807zM2097 928q0 123 -125 123q-84 -1 -129 -53t-65 -175l-6 -35q-8 -41 -9 -106q0 -123 125 -123q84 0 130 52t65 177l6 35q8 37 8 105zM1980 1255q369 0 369 -297q0 -61 -14 -151l-13 -66q-35 -205 -138 -295t-302 -90q-371 0 -371 297
q1 66 15 152l12 63q37 207 140 297t302 90zM86 0l258 1462h260l406 -1011l178 1011h260l-258 -1462h-260l-406 1012l-178 -1012h-260z" />
    <glyph glyph-name="trademark" unicode="&#x2122;" horiz-adv-x="1806" 
d="M829 586l156 876h191l163 -465l330 465h191l-154 -876h-199l90 508l-229 -326h-135l-115 326l-90 -508h-199zM276 586l125 714h-256l29 162h717l-29 -162h-254l-127 -714h-205z" />
    <glyph glyph-name="uni2126" unicode="&#x2126;" horiz-adv-x="1374" 
d="M170 588q0 78 23 209l24 141q29 162 68 249t114 156q154 141 410 141q504 1 504 -397q0 -78 -25 -215l-24 -139q-27 -182 -112 -309t-214 -176l-10 -55h264l-35 -193h-471l70 395q197 43 248 375l18 113q20 104 20 170q0 215 -229 215q-147 0 -224 -87t-114 -298
l-20 -113q-20 -123 -21 -170q0 -168 135 -205l-69 -395h-471l34 193h263l14 69l-6 4q-164 94 -164 322z" />
    <glyph glyph-name="estimated" unicode="&#x212e;" horiz-adv-x="1228" 
d="M887 793v186q-14 59 -51 115t-86 84q-49 26 -137 26q-89 0 -149 -51t-102 -172v-188h525zM362 629v-228q29 -96 62 -145q63 -92 205 -92q102 0 179 60t107 167h183q-45 -176 -105 -252q-131 -162 -371 -162q-240 -1 -383 185q-142 186 -143 514q0 328 144 522t385 193
q157 0 277 -83q120 -84 176 -228t57 -451h-773z" />
    <glyph glyph-name="onethird" unicode="&#x2153;" horiz-adv-x="1835" 
d="M393 0l721 1462h238l-721 -1462h-238zM1333 528q66 0 110 35t44 79t-23 66t-61 21q-90 0 -125 -90l-182 16q33 125 112 181q80 55 228 55q262 0 262 -189q0 -113 -58 -184q-18 -25 -69 -55q80 -57 80 -150q0 -133 -82 -229t-287 -96q-287 0 -287 198q0 23 2 43l197 25
v-14q0 -92 109 -93q67 0 105 40t38 106q0 100 -125 100h-92l24 135h80zM309 586l121 684l-154 -51l-32 143l286 100h140l-156 -876h-205z" />
    <glyph glyph-name="twothirds" unicode="&#x2154;" horiz-adv-x="1835" 
d="M475 0l721 1462h236l-721 -1462h-236zM1409 528q66 0 109 35t43 79t-23 66t-61 21q-88 0 -125 -90l-181 16q33 125 112 181t226 55q262 0 263 -189q0 -117 -58 -184q-18 -25 -67 -55q80 -57 79 -150q0 -133 -80 -229t-281 -96q-200 0 -265 90q-29 37 -29 112v39l199 25
v-16q0 -90 108 -91q66 0 105 40t39 106q0 100 -125 100h-92l22 135h82zM584 1251q0 70 -87 70t-128 -117l-187 17q33 125 97 182q94 78 253 78q258 0 259 -193q0 -156 -123 -283q-29 -30 -133 -128l-138 -129h297l-28 -162h-580l23 129l307 293q168 162 168 243z" />
    <glyph glyph-name="uni2155" unicode="&#x2155;" horiz-adv-x="1835" 
d="M373 0l721 1462h235l-719 -1462h-237zM1384 559q119 0 184 -48q64 -48 64 -130t-22 -163t-58 -122q-90 -109 -292 -108q-260 0 -261 205q0 18 2 36l199 25q-2 -6 -2 -14q0 -43 25 -70t75 -27q50 1 85 51q36 50 36 135t-82 85q-66 0 -120 -49l-148 26l129 486h502
l-29 -162h-325l-50 -168q49 12 88 12zM297 586l121 684l-154 -51l-33 143l287 100h139l-155 -876h-205z" />
    <glyph glyph-name="uni2156" unicode="&#x2156;" horiz-adv-x="1835" 
d="M481 0l721 1462h236l-719 -1462h-238zM1458 559q120 0 184 -47t64 -130t-23 -164t-57 -122q-90 -109 -295 -108q-260 0 -260 205q0 18 4 36l197 25q-4 -111 90 -111q59 1 95 51t36 135t-84 85q-66 0 -119 -49l-149 26l131 486h500l-27 -162h-328l-47 -168q47 12 88 12z
M582 1251q0 70 -87 70t-128 -117l-187 17q33 125 96 182q94 78 254 78q258 0 258 -193q0 -157 -122 -283q-29 -30 -134 -128l-137 -129h297l-28 -162h-580l22 129l308 293q168 162 168 243z" />
    <glyph glyph-name="uni2157" unicode="&#x2157;" horiz-adv-x="1835" 
d="M473 0l721 1462h238l-721 -1462h-238zM1450 559q120 0 184 -47t64 -130t-23 -164t-57 -122q-90 -109 -293 -108q-260 0 -260 205q0 18 2 36l199 25q-2 -6 -2 -32t24 -52q24 -27 75 -27q50 1 86 51t36 135t-82 85q-66 0 -121 -49l-147 26l131 486h499l-28 -162h-326
l-49 -168q49 12 88 12zM285 821q-1 -88 115 -88q58 0 98 40q39 40 39 106q0 100 -125 100h-93l25 135h80q66 0 110 35t44 79t-23 66t-61 21q-90 0 -125 -90l-183 16q33 125 113 180t227 56q262 0 262 -189q0 -113 -57 -184q-20 -27 -69 -55q80 -57 79 -150q0 -133 -73 -221
q-90 -104 -293 -105q-289 0 -289 197q0 20 2 45l197 25v-19z" />
    <glyph glyph-name="uni2158" unicode="&#x2158;" horiz-adv-x="1835" 
d="M475 0l721 1462h238l-721 -1462h-238zM1446 559q120 0 184 -48t64 -130t-23 -163t-57 -122q-90 -109 -293 -108q-260 0 -260 205q0 18 2 36l199 25q-2 -6 -2 -32t24 -52q24 -27 75 -27q50 1 86 51t36 135t-82 85q-66 0 -119 -49l-150 26l130 486h501l-28 -162h-326
l-49 -168q49 12 88 12zM434 586l25 145h-381l20 117l404 614h215l-379 -575h149l27 157h182l-28 -157h84l-27 -158h-86l-25 -143h-180z" />
    <glyph glyph-name="uni2159" unicode="&#x2159;" horiz-adv-x="1835" 
d="M412 0l718 1462h238l-721 -1462h-235zM1350 428q-64 0 -102 -56t-38 -146t84 -91q63 0 102 56q38 57 38 147t-84 90zM1442 567q82 0 137 -52t55 -130t-22 -163t-56 -128q-82 -106 -282 -106q-264 0 -264 202q0 131 51 234q23 43 86 125l262 328h238l-256 -312h16
q16 2 35 2zM307 586l121 684l-154 -51l-32 143l286 100h140l-156 -876h-205z" />
    <glyph glyph-name="uni215A" unicode="&#x215a;" horiz-adv-x="1835" 
d="M504 0l721 1462h237l-721 -1462h-237zM1415 428q-63 0 -101 -56t-38 -146t84 -91q63 0 101 56q38 57 38 147t-84 90zM1505 567q74 0 134 -47q61 -47 61 -130t-23 -168t-55 -128q-82 -106 -283 -106q-264 0 -264 202q0 131 51 234q18 41 86 125l263 328h237l-258 -312h16
q18 2 35 2zM508 1145q120 0 184 -48t64 -130t-23 -163t-57 -122q-90 -109 -293 -109q-260 0 -260 205q0 18 2 37l197 25v-15q0 -43 24 -69t75 -27q50 0 86 50t36 135t-82 85q-66 0 -121 -49l-147 27l129 485h501l-28 -162h-328l-47 -167q47 12 88 12z" />
    <glyph glyph-name="oneeighth" unicode="&#x215b;" horiz-adv-x="1835" 
d="M367 0l720 1462h238l-721 -1462h-237zM1339 385q-71 0 -107 -44t-36 -125t96 -81q66 0 104 45t38 125q-1 80 -95 80zM1405 750q-61 0 -96 -42t-35 -118t86 -76q59 0 94 43t35 118t-84 75zM1423 889q250 0 250 -180q0 -156 -98 -244q59 -45 59 -129q0 -154 -78 -251
t-282 -97q-143 0 -211 46t-68 144q0 213 131 287q-36 51 -36 132t45 163q76 129 288 129zM307 586l121 684l-154 -51l-32 143l286 100h140l-156 -876h-205z" />
    <glyph glyph-name="threeeighths" unicode="&#x215c;" horiz-adv-x="1835" 
d="M455 0l721 1462h237l-721 -1462h-237zM1395 385q-68 0 -106 -44t-38 -125t97 -81q66 0 104 45t37 125q0 80 -94 80zM1460 750q-61 0 -96 -42t-35 -118t86 -76q59 0 94 43t35 118t-84 75zM1145 596q0 80 47 164q72 129 287 129q250 0 250 -180q0 -152 -99 -244
q59 -47 60 -129q0 -154 -74 -246q-86 -102 -287 -102q-143 0 -211 46t-67 144q0 211 131 287q-37 51 -37 131zM276 821q0 -88 116 -88q58 0 98 40q38 40 38 106q0 100 -125 100h-92l25 135h80q66 0 110 35t43 79q0 87 -84 87q-90 0 -125 -90l-182 16q33 125 113 180t227 56
q262 0 262 -189q0 -113 -57 -184q-20 -27 -70 -55q80 -57 80 -150q0 -133 -82 -229t-284 -97q-289 0 -289 197q0 20 2 45l196 25v-19z" />
    <glyph glyph-name="fiveeighths" unicode="&#x215d;" horiz-adv-x="1835" 
d="M451 0l720 1462h236l-719 -1462h-237zM1395 385q-68 0 -105 -44t-37 -125t95 -81q66 0 104 45t37 125q0 80 -94 80zM1460 750q-59 0 -94 -42t-35 -118t86 -76q59 0 93 43t34 118t-84 75zM1147 593q0 81 45 167q72 129 289 129q248 0 248 -180q0 -154 -97 -244
q57 -45 58 -129q0 -154 -79 -251t-280 -97q-143 0 -211 46t-67 144q0 213 129 287q-35 47 -35 128zM489 1145q119 0 184 -48t65 -130t-24 -163q-22 -81 -57 -122q-90 -109 -292 -109q-260 0 -261 205q0 18 2 37l197 25v-15q0 -43 25 -69q24 -26 74 -27q50 0 86 50t36 135
t-82 85q-66 0 -120 -49l-148 27l129 485h502l-29 -162h-327l-48 -167q47 12 88 12z" />
    <glyph glyph-name="seveneighths" unicode="&#x215e;" horiz-adv-x="1835" 
d="M379 0l721 1462h237l-721 -1462h-237zM1356 385q-68 0 -106 -44t-38 -125t97 -81q65 0 103 45t38 125t-94 80zM1421 750q-59 0 -94 -42t-35 -118t86 -76q59 0 93 43t34 118t-84 75zM1108 593q0 81 45 167q72 129 289 129q248 0 248 -178q0 -158 -97 -246q57 -49 58 -129
q0 -154 -79 -251t-280 -97q-143 0 -211 46t-67 144q0 213 131 287q-37 47 -37 128zM160 586l415 714h-339l28 162h561l-20 -119l-420 -757h-225z" />
    <glyph glyph-name="arrowleft" unicode="&#x2190;" horiz-adv-x="1638" 
d="M1516 621h-1076l344 -345l-155 -155l-543 563v92l543 563l155 -155l-344 -344h1076v-219z" />
    <glyph glyph-name="arrowup" unicode="&#x2191;" horiz-adv-x="1638" 
d="M692 0v1120l-344 -344l-155 156l563 543h94l563 -543l-156 -156l-344 344v-1120h-221z" />
    <glyph glyph-name="arrowright" unicode="&#x2192;" horiz-adv-x="1638" 
d="M123 621v219h1077l-346 344l156 155l544 -563v-92l-542 -563l-158 155l346 345h-1077z" />
    <glyph glyph-name="arrowdown" unicode="&#x2193;" horiz-adv-x="1638" 
d="M692 1462h221v-1120l344 344l156 -156l-563 -542h-94l-563 542l155 156l344 -344v1120z" />
    <glyph glyph-name="arrowboth" unicode="&#x2194;" horiz-adv-x="1638" 
d="M1251 621h-864l283 -283l-156 -156l-481 502v92l481 502l156 -156l-283 -282h864l-282 282l155 156l482 -502v-92l-482 -502l-155 156z" />
    <glyph glyph-name="arrowupdn" unicode="&#x2195;" horiz-adv-x="1638" 
d="M692 287v889l-282 -283l-156 156l500 481h94l500 -481l-156 -156l-281 283v-889l281 280l156 -153l-500 -482h-94l-500 482l156 153z" />
    <glyph glyph-name="uni2196" unicode="&#x2196;" horiz-adv-x="1638" 
d="M496 424h-220v776l84 84h779v-219h-488l766 -764l-155 -156l-766 766v-487z" />
    <glyph glyph-name="uni2197" unicode="&#x2197;" horiz-adv-x="1638" 
d="M500 1065v219h778l84 -84v-776h-219v485l-766 -764l-156 156l766 764h-487z" />
    <glyph glyph-name="uni2198" unicode="&#x2198;" horiz-adv-x="1638" 
d="M1143 1012h219v-779l-84 -83h-778v219h487l-766 766l154 155l768 -766v488z" />
    <glyph glyph-name="uni2199" unicode="&#x2199;" horiz-adv-x="1638" 
d="M1139 369v-219h-779l-84 83v779h220v-488l766 766l155 -155l-766 -766h488z" />
    <glyph glyph-name="partialdiff" unicode="&#x2202;" 
d="M774 682q0 166 -166 166q-109 0 -168 -68t-88 -221l-16 -96q-10 -51 -10 -123q0 -164 166 -164q106 0 165 68t88 219l17 96q12 72 12 123zM1026 774q0 -123 -18 -227l-25 -133q-41 -232 -158 -334t-334 -102t-317 80q-100 81 -100 249q0 66 16 168l25 131q37 211 133 314
q121 121 325 120q119 0 189 -39q-51 150 -129 217t-238 99l62 164q279 -39 403 -183q166 -188 166 -524z" />
    <glyph glyph-name="emptyset" unicode="&#x2205;" 
d="M866 731q0 81 -22 137t-76 117l-297 -573q49 -14 88 -15q133 -1 220 95t87 239zM223 741q0 -92 25 -149t90 -121l301 582q-70 20 -118 20q-48 1 -107 -25q-191 -82 -191 -307zM551 238q-72 0 -152 22l-180 -350l-137 51l182 358q-209 143 -209 416q0 213 135 355t340 143
q66 0 181 -29l161 312l136 -52l-166 -323q193 -150 192 -406q0 -217 -136 -357t-347 -140z" />
    <glyph glyph-name="Delta" unicode="&#x2206;" 
d="M809 211l-145 891l-459 -891h604zM1124 0h-1321l805 1462h226z" />
    <glyph glyph-name="product" unicode="&#x220f;" horiz-adv-x="1273" 
d="M-16 -422l331 1884h973l-332 -1884h-260l293 1659h-454l-293 -1659h-258z" />
    <glyph glyph-name="summation" unicode="&#x2211;" horiz-adv-x="1189" 
d="M-72 -422l33 184l555 811l-262 713l31 176h972l-38 -217h-652l256 -678l-510 -772h678l-39 -217h-1024z" />
    <glyph glyph-name="minus" unicode="&#x2212;" 
d="M104 625l35 204h934l-35 -204h-934z" />
    <glyph glyph-name="uni2215" unicode="&#x2215;" horiz-adv-x="370" 
d="M-229 0l721 1462h237l-721 -1462h-237z" />
    <glyph glyph-name="uni2218" unicode="&#x2218;" 
d="M553 993q-115 -1 -191 -75t-76 -189t76 -191t190 -75q114 0 190 76q76 75 77 189t-75 190t-191 75zM554 1112q167 0 281 -111q113 -111 113 -273t-114 -272q-114 -112 -281 -112q-168 0 -282 111q-113 111 -113 273t114 274q114 110 282 110z" />
    <glyph glyph-name="uni2219" unicode="&#x2219;" horiz-adv-x="593" 
d="M176 598l45 260h268l-45 -260h-268z" />
    <glyph glyph-name="radical" unicode="&#x221a;" 
d="M285 0l-115 573h-147l36 215h330l70 -442l639 1483h594l-31 -176h-375l-737 -1653h-264z" />
    <glyph glyph-name="infinity" unicode="&#x221e;" horiz-adv-x="1624" 
d="M1166 565q68 0 113 45q46 45 46 117t-46 116t-120 44q-115 0 -233 -139l-19 -21l21 -22q72 -78 121 -109t117 -31zM467 887q-74 0 -120 -44t-46 -116t46 -117q45 -45 113 -45t115 29t123 111l19 22l-17 21q-121 139 -233 139zM1174 1069q162 0 256 -92t94 -252t-94 -251
t-254 -91t-273 90q-29 25 -90 100l-18 -24q-74 -90 -153 -128t-189 -38q-164 0 -257 91q-94 91 -94 251t94 252t255 92q160 0 270 -90q20 -16 92 -98l18 22q74 90 153 128t190 38z" />
    <glyph glyph-name="integral" unicode="&#x222b;" horiz-adv-x="915" 
d="M360 254v831q0 266 33 365q55 172 260 172q80 0 195 -29l-47 -196q-49 20 -86 20q-72 0 -92 -55q-14 -33 -15 -203l-2 -837q0 -172 -6 -239t-27 -128q-59 -170 -260 -170q-77 0 -192 31l47 196q49 -23 86 -22q70 0 92 55q14 33 14 209z" />
    <glyph glyph-name="similar" unicode="&#x223c;" 
d="M426 897q55 0 95 -14t124 -69t131 -54q84 0 162 125l139 -43q-69 -143 -147 -209t-185 -66q-59 1 -99 17t-116 68t-131 53q-85 -1 -159 -136l-146 33q66 158 143 226t189 69z" />
    <glyph glyph-name="uni2243" unicode="&#x2243;" 
d="M463 1096q55 0 95 -14t122 -68q82 -56 133 -56q82 0 160 125l141 -43q-70 -143 -148 -209t-184 -65q-59 0 -99 16q-41 16 -117 68t-130 53q-86 0 -160 -135l-145 33q65 159 141 227t191 68zM106 451l35 196h867l-35 -196h-867z" />
    <glyph glyph-name="approxequal" unicode="&#x2248;" 
d="M463 1096q55 0 95 -14t124 -68q84 -56 131 -56q82 0 162 125l139 -43q-68 -143 -146 -209t-184 -65q-59 0 -101 17q-41 17 -117 69t-130 51q-87 0 -157 -135l-148 33q65 159 141 227t191 68zM743 559q82 0 162 127l139 -45q-68 -143 -146 -209t-185 -65q-57 0 -99 17
q-42 18 -118 70t-129 52q-84 0 -160 -137l-146 34q66 158 143 227q77 68 181 68q105 0 207 -70t151 -69z" />
    <glyph glyph-name="notequal" unicode="&#x2260;" 
d="M106 451l35 196h281l106 164h-358l35 197h448l154 241l170 -86l-98 -155h192l-35 -197h-280l-109 -164h361l-35 -196h-449l-153 -242l-172 86l100 156h-193z" />
    <glyph glyph-name="lessequal" unicode="&#x2264;" 
d="M29 0l34 205h814l-35 -205h-813zM451 772l487 -219l-39 -225l-747 372l28 162l879 373l-43 -244z" />
    <glyph glyph-name="greaterequal" unicode="&#x2265;" 
d="M80 0l35 205h813l-35 -205h-813zM745 791l-487 221l39 223l747 -373l-28 -162l-879 -372l43 243z" />
    <glyph glyph-name="dotmath" unicode="&#x22c5;" horiz-adv-x="593" 
d="M176 598l45 260h268l-45 -260h-268z" />
    <glyph glyph-name="filledrect" unicode="&#x25ac;" 
d="M207 381v692h692v-692h-692z" />
    <glyph glyph-name="uni25B4" unicode="&#x25b4;" 
d="M133 369l420 839l422 -839h-842z" />
    <glyph glyph-name="uni25B8" unicode="&#x25b8;" 
d="M233 307v840l840 -420z" />
    <glyph glyph-name="uni25BE" unicode="&#x25be;" 
d="M133 1085h842l-422 -839z" />
    <glyph glyph-name="uni25C2" unicode="&#x25c2;" 
d="M872 307l-839 420l839 420v-840z" />
    <glyph glyph-name="lozenge" unicode="&#x25ca;" 
d="M274 723l279 -401l278 401l-278 399zM-18 723l571 782l571 -782l-571 -784z" />
    <glyph glyph-name="openbullet" unicode="&#x25e6;" 
d="M553 993q-115 -1 -191 -75t-76 -189t76 -191t190 -75q114 0 190 76q76 75 77 189t-75 190t-191 75zM554 1112q167 0 281 -111q113 -111 113 -273t-114 -272q-114 -112 -281 -112q-168 0 -282 111q-113 111 -113 273t114 274q114 110 282 110z" />
    <glyph glyph-name="commaaccent" unicode="&#xf6c3;" horiz-adv-x="1024" 
d="M168 -483l164 352h243l-233 -352h-174z" />
    <glyph glyph-name="Acute" unicode="&#xf6c9;" horiz-adv-x="1024" 
d="M561 1597l221 314h287l-317 -314h-191z" />
    <glyph glyph-name="Caron" unicode="&#xf6ca;" horiz-adv-x="1024" 
d="M717 1741l149 160h254l-327 -306h-183l-221 306h232z" />
    <glyph glyph-name="Dieresis" unicode="&#xf6cb;" horiz-adv-x="1024" 
d="M795 1606l45 254h225l-45 -254h-225zM383 1606l45 254h225l-43 -254h-227z" />
    <glyph glyph-name="Grave" unicode="&#xf6ce;" horiz-adv-x="1024" 
d="M844 1597h-182l-209 314h276z" />
    <glyph glyph-name="Hungarumlaut" unicode="&#xf6cf;" horiz-adv-x="1024" 
d="M758 1597l186 314h258l-268 -314h-176zM422 1597l186 314h258l-268 -314h-176z" />
    <glyph glyph-name="Macron" unicode="&#xf6d0;" horiz-adv-x="1024" 
d="M401 1647l33 182h619l-33 -182h-619z" />
    <glyph glyph-name="zerooldstyle" unicode="&#xf730;" horiz-adv-x="1101" 
d="M614 938q-90 0 -136 -61t-75 -226l-32 -182q-18 -115 -19 -152q0 -135 135 -135q97 0 147 62t79 225l32 182q16 104 17 148q0 139 -148 139zM623 1143q401 0 401 -332q0 -88 -20 -193l-31 -180q-25 -137 -60 -216t-96 -134q-127 -111 -338 -111q-389 0 -389 330
q1 78 21 195l32 180q45 250 158 356t322 105z" />
    <glyph glyph-name="oneoldstyle" unicode="&#xf731;" horiz-adv-x="759" 
d="M193 0l149 844l-225 -88l-74 194l438 170h176l-196 -1120h-268z" />
    <glyph glyph-name="twooldstyle" unicode="&#xf732;" horiz-adv-x="940" 
d="M643 836q0 102 -131 102q-152 0 -211 -160l-231 56q111 309 454 309q385 0 385 -287q0 -141 -92 -250q-51 -57 -95 -95t-198 -153l-200 -153h489l-35 -205h-860l29 164l385 303q311 250 311 369z" />
    <glyph glyph-name="threeoldstyle" unicode="&#xf733;" horiz-adv-x="983" 
d="M385 547q119 -1 187 69t69 197q0 127 -128 127t-177 -149l-232 55q66 162 164 230t274 69q176 0 274 -82t97 -243q0 -161 -92 -269q-43 -57 -149 -107q72 -49 102 -84q109 -139 35 -374q-29 -92 -76 -154q-131 -168 -418 -168q-383 0 -428 273l252 83q13 -82 53 -116
t119 -35q137 0 195 96q58 97 59 189q0 184 -217 184h-131l37 209h131z" />
    <glyph glyph-name="fouroldstyle" unicode="&#xf734;" horiz-adv-x="972" 
d="M453 -315l55 315h-576l29 162l588 958h282l-581 -919h293l65 366h226l-64 -366h133l-37 -201h-133l-55 -315h-225z" />
    <glyph glyph-name="fiveoldstyle" unicode="&#xf735;" horiz-adv-x="1013" 
d="M551 600q151 0 235 -80t84 -215t-34 -265t-84 -200q-129 -178 -410 -178q-367 0 -410 275l254 81q14 -152 158 -152t205 146q49 117 49 244q0 139 -141 139q-104 0 -187 -86l-188 39l201 772h696l-39 -219h-473l-92 -340l20 8q92 31 156 31z" />
    <glyph glyph-name="sixoldstyle" unicode="&#xf736;" 
d="M592 739q-125 0 -174 -110q-27 -57 -45 -147t-19 -156q0 -143 142 -144q127 0 182 132t55 278t-141 147zM696 930q138 0 224 -87t86 -221t-34 -269q-34 -134 -83 -206q-123 -170 -402 -170q-406 0 -405 332q0 201 82 377q39 84 137 213l406 531h299l-404 -508q66 8 94 8z
" />
    <glyph glyph-name="sevenoldstyle" unicode="&#xf737;" horiz-adv-x="839" 
d="M-98 -315l669 1218h-534l39 217h813l-29 -157l-653 -1278h-305z" />
    <glyph glyph-name="eightoldstyle" unicode="&#xf738;" horiz-adv-x="1130" 
d="M588 647q-135 0 -189 -90q-55 -96 -55 -244q0 -139 162 -139q133 0 187 100t55 242q0 131 -160 131zM694 1255q-114 1 -160 -85t-47 -214q-1 -118 127 -118t170 98q45 96 45 201q0 118 -135 118zM506 -23q-428 0 -428 332q0 233 108 359q48 59 138 100q-88 90 -88 223
q0 80 27 167q28 87 71 147q109 147 362 147q385 0 385 -309q0 -268 -190 -375q123 -90 123 -258q0 -94 -31 -200t-78 -169q-117 -164 -399 -164z" />
    <glyph glyph-name="nineoldstyle" unicode="&#xf739;" 
d="M621 938q-131 0 -183 -127q-57 -143 -57 -285t141 -143q125 0 174 111q27 55 45 144t19 157q0 143 -139 143zM109 498q0 133 33 268q34 135 83 207q119 170 402 170q406 0 405 -332q0 -201 -82 -377q-41 -84 -137 -213l-405 -536h-299l403 514q-68 -8 -94 -9
q-139 0 -224 88t-85 220z" />
    <glyph glyph-name="Dbreve" horiz-adv-x="1376" 
d="M690 1864q0 -98 156 -99q90 0 132 29t66 107h164q-25 -141 -67 -199q-92 -123 -301 -123q-315 0 -316 227q1 38 11 95h157q-2 -29 -2 -37zM1040 1038q0 115 -86 172q-59 37 -200 37h-181l-180 -1032h178q184 -4 273 78q88 82 127 295l51 286q18 113 18 164zM809 1462
q240 0 350 -78q152 -109 152 -311q0 -78 -23 -209l-57 -329q-41 -273 -193 -405t-424 -130h-528l258 1462h465z" />
    <glyph glyph-name="ahungarumlaut" horiz-adv-x="1089" 
d="M719 1188l186 313h258l-268 -313h-176zM383 1188l186 313h258l-268 -313h-176zM500 463q-119 0 -166 -49q-51 -47 -51 -148q1 -52 37 -74t140 -22t156 57q27 33 46 125l18 111h-180zM727 750q0 121 -154 120q-127 0 -231 -104l-154 125q156 182 408 182q209 0 313 -92
q72 -66 72 -188q0 -66 -20 -187l-109 -606h-199l-10 49q-88 -72 -264 -72q-176 -1 -260 61t-84 193q0 205 93 305t339 99h244l8 47q8 41 8 68z" />
    <glyph glyph-name="uni0204.sc" horiz-adv-x="1003" 
d="M598 1255h-176l-158 314h258zM934 1255h-178l-156 314h258zM51 0l197 1120h756l-37 -205h-498l-45 -247h424l-37 -205h-422l-47 -258h506l-35 -205h-762z" />
    </font>
</defs>
</svg>
