<?xml version="1.0" standalone="no"?>
<!DOCTYPE svg PUBLIC "-//W3C//DTD SVG 1.1//EN" "http://www.w3.org/Graphics/SVG/1.1/DTD/svg11.dtd" >
<svg xmlns="http://www.w3.org/2000/svg">
<metadata>
Created by FontPrep 20130207 at Wed Nov 23 16:28:30 2016
 By Tina Muller
Copyright (c) 2016 by Enrique Hernandez Vasquez. All rights reserved.
</metadata>
<defs>
<font id="25a2f7914a495f2e03677b90c3e97fa1" horiz-adv-x='1024' >
  <font-face 
    font-family="Isidora-LightIt"
    font-weight="300"
    font-style="italic"
    font-stretch="normal"
    units-per-em="2048"
    panose-1="0 0 4 0 0 0 0 0 0 0"
    ascent="1638"
    descent="-410"
    x-height="1024"
    cap-height="1331"
    bbox="-336 -717 2748 1772"
    underline-thickness="102"
    underline-position="-102"
    slope="-10"
    unicode-range="U+0020-FB02"
  />
<missing-glyph horiz-adv-x="1177" 
d="M784 -289h-391v-78h166l-166 -110v-78h391v78h-239l164 110h75v78zM707 -45v-111h-236v111h236zM784 33h-391v-266h391v266zM784 440h-235v-133h80v55h78v-110h-236v188h-78v-266h391v266zM784 727h-77v-156h-314v-79h391v235zM784 868h-391v-77h156v-89h-156v-75h236
v164h155v77zM549 1098v-86h-78v86h78zM629 1178h-236v-246h391v80h-155v166zM784 1481h-389v-78h154v-88h-156v-78h391v78h-155v88h155v78zM967 1638v-2355h-748v2355h748z" />
    <glyph glyph-name="fi" unicode="fi" horiz-adv-x="983" 
d="M897 1206q-1 34 27 60t60 26t51 -19t19 -52t-28 -60t-60 -27t-51 20q-18 19 -18 52zM866 45q31 0 54 18l6 -2l10 -51l-4 -6q-37 -29 -91 -29t-81 39t-15 109l148 833h-438l-170 -956h-78l170 956h-172l12 68h172l6 39q31 178 122 266t218 88q78 0 144 -37v-6l-39 -53
l-6 -2q-53 29 -111 29q-201 0 -250 -285l-8 -39h516l-156 -887q-16 -92 41 -92z" />
    <glyph glyph-name="fl" unicode="fl" horiz-adv-x="991" 
d="M874 45q29 0 54 18l8 -2l10 -51l-4 -6q-37 -29 -92 -29t-82 41t-14 107l194 1098q-6 55 -56 91t-127 36q-151 0 -234 -124q-42 -65 -58 -161l-6 -39h313l-12 -68h-313l-170 -956h-78l170 956h-172l12 68h172l6 39q33 176 134 265t237 89t204 -62q68 -63 52 -149
l-191 -1077q-14 -84 43 -84z" />
    <glyph glyph-name=".notdef" horiz-adv-x="1177" 
d="M784 -289h-391v-78h166l-166 -110v-78h391v78h-239l164 110h75v78zM707 -45v-111h-236v111h236zM784 33h-391v-266h391v266zM784 440h-235v-133h80v55h78v-110h-236v188h-78v-266h391v266zM784 727h-77v-156h-314v-79h391v235zM784 868h-391v-77h156v-89h-156v-75h236
v164h155v77zM549 1098v-86h-78v86h78zM629 1178h-236v-246h391v80h-155v166zM784 1481h-389v-78h154v-88h-156v-78h391v78h-155v88h155v78zM967 1638v-2355h-748v2355h748z" />
    <glyph glyph-name=".null" horiz-adv-x="0" 
 />
    <glyph glyph-name="nonmarkingreturn" horiz-adv-x="681" 
 />
    <glyph glyph-name="space" unicode=" " horiz-adv-x="509" 
 />
    <glyph glyph-name="exclam" unicode="!" horiz-adv-x="411" 
d="M206 -25q-34 1 -53 21t-19 54t28 62t62 29q34 0 54 -20t21 -55q0 -35 -30 -63q-29 -28 -63 -28zM393 1327l6 4h80l4 -6l-198 -1075l-9 -6h-57l-4 6z" />
    <glyph glyph-name="quotedbl" unicode="&#x22;" horiz-adv-x="555" 
d="M512 864l63 467h87l-103 -467h-47zM301 864l64 467h86l-103 -467h-47z" />
    <glyph glyph-name="numbersign" unicode="#" horiz-adv-x="1101" 
d="M471 471h311l119 389h-309zM254 0l125 406h-236l23 65h233l121 389h-244l21 66h244l123 403h71l-123 -403h312l123 403h71l-125 -403h201l-20 -66h-201l-119 -389h205l-21 -65h-204l-125 -406h-72l125 406h-313l-125 -406h-70z" />
    <glyph glyph-name="dollar" unicode="$" horiz-adv-x="849" 
d="M193 362q66 -161 281 -161q112 0 198 65.5t86 171.5t-148 182q-20 10 -67 32t-64 30q-90 43 -140 93t-50 132q0 119 88 201t221 92l27 152h71l-26 -152q80 -6 145.5 -48t93.5 -110l-2 -6l-53 -39h-8q-67 136 -240 136q-92 0 -164.5 -60.5t-72.5 -150.5q0 -59 42 -100.5
t82.5 -60t85 -37.5t56.5 -25.5t49 -26.5q38 -20 52 -32q56 -43 79 -92.5t23 -118t-44 -137.5q-92 -144 -305 -161l-28 -154h-70l27 154q-98 6 -175 55.5t-114 130.5l2 9l53 36h9z" />
    <glyph glyph-name="percent" unicode="%" horiz-adv-x="1581" 
d="M1257 43q109 0 177 114t67 285q0 102 -48 168t-122 66q-109 0 -177 -116t-67 -286q0 -102 48 -166t122 -65zM1247 -25q-100 0 -165 81q-64 81 -64 213t42 242t117 171t169 61q94 1 161 -81q66 -82 66 -213q1 -203 -93 -339t-233 -135zM487 655q109 0 178 115t68 285
q0 104 -49 169t-123 64q-109 0 -177 -114t-67 -287q0 -102 48 -167t122 -65zM1554 1331v-10l-1216 -1321h-74l-2 8l1219 1323h73zM475 588q-98 0 -163 82t-64 211q0 205 93 340t232 135q98 0 164 -81t66 -214q1 -203 -93 -338t-235 -135z" />
    <glyph glyph-name="ampersand" unicode="&#x26;" horiz-adv-x="1148" 
d="M246 371q0 -137 99 -229q100 -91 255 -92q156 -1 272 83l-278 504l-57 113q-115 -42 -203 -142t-88 -237zM162 354q0 235 231 399q55 38 111 60q-55 129 -55 221q0 142 103 232t249 90q193 0 284 -144v-8l-61 -45h-6q-74 123 -227 121q-107 0 -183 -67t-76 -173
q0 -72 33 -150t103 -212l270 -490q111 117 109 281q-2 119 -52 188v9l62 41h6q68 -100 67 -238q2 -209 -151 -350q49 -74 89 -74t67 14l4 -4l6 -55q-16 -24 -93 -24q-77 -1 -141 92q-141 -92 -324 -92t-304 107q-121 108 -121 271z" />
    <glyph glyph-name="quotesingle" unicode="'" horiz-adv-x="342" 
d="M301 864l64 467h86l-103 -467h-47z" />
    <glyph glyph-name="parenleft" unicode="(" horiz-adv-x="509" 
d="M260 369q0 -177 43 -355t123 -313h-90q-76 141 -116 319t-40 353q0 553 463 1073h90q-473 -497 -473 -1077z" />
    <glyph glyph-name="parenright" unicode=")" horiz-adv-x="509" 
d="M535 774q0 -557 -465 -1073h-90q471 496 471 1077q0 247 -73 464q-38 114 -91 204h90q76 -140 117 -318t41 -354z" />
    <glyph glyph-name="asterisk" unicode="*" horiz-adv-x="886" 
d="M653 1372h66l-55 -311l284 156l23 -58l-285 -155l229 -158l-43 -58l-229 156l-55 -311h-66l56 311l-287 -156l-23 58l287 158l-231 155l43 58l231 -156z" />
    <glyph glyph-name="plus" unicode="+" horiz-adv-x="1064" 
d="M1100 647l-10 -63h-418l-74 -420h-70l74 420h-422l13 63h421l74 418h70l-74 -418h416z" />
    <glyph glyph-name="comma" unicode="," horiz-adv-x="417" 
d="M51 -242q75 79 121 174q16 33 18 48q-54 9 -56 77q0 33 25 59t61 26t59 -24q23 -22 23 -65t-53 -132q-52 -89 -159 -202h-8l-33 33z" />
    <glyph glyph-name="hyphen" unicode="-" horiz-adv-x="937" 
d="M252 647h661l-10 -65h-663z" />
    <glyph glyph-name="period" unicode="." horiz-adv-x="405" 
d="M216 141q82 -1 81 -81q0 -30 -30 -57q-29 -28 -63 -28q-34 1 -54 21t-20 54t28 62q30 28 58 29z" />
    <glyph glyph-name="slash" unicode="/" horiz-adv-x="964" 
d="M1092 1442h69l4 -8l-1056 -1543h-70l-6 9z" />
    <glyph glyph-name="zero" unicode="0" horiz-adv-x="1161" 
d="M289 506q0 -203 89 -329q90 -126 240 -126t266 113q224 218 224 661q0 202 -89 328q-89 127 -240 127t-267 -113t-169 -285q-54 -172 -54 -376zM801 1356q115 0 203 -65t136 -183t48 -311q0 -192 -67 -385t-203 -315t-316 -122q-180 -1 -286 143t-107 376q0 232 66 426
q67 192 205 314t321 122z" />
    <glyph glyph-name="one" unicode="1" horiz-adv-x="550" 
d="M283 1331h290l-235 -1331h-80l223 1260h-231l-2 6z" />
    <glyph glyph-name="two" unicode="2" horiz-adv-x="1003" 
d="M698 1356q217 0 310 -150q92 -150 -17 -364q-77 -150 -434 -462q-55 -48 -172 -148t-186 -162h729l-13 -70h-845l10 61q113 100 277 242q287 248 393 353q105 105 144 170q69 117 70 222t-75 170t-205 64q-172 0 -338 -162h-6l-45 43l2 8q83 85 189 135t212 50z" />
    <glyph glyph-name="three" unicode="3" horiz-adv-x="993" 
d="M698 1356q144 0 236 -75t92 -199t-77 -219t-197 -138q133 -49 183 -165q26 -60 26 -132q1 -190 -133 -322t-341 -131q-109 -1 -217 51t-174 134v8l54 43h8q55 -72 150 -117t190 -45q166 1 274 105t107 264q0 124 -87 198t-231 74h-74l11 64h82q140 0 250 90t110 221
q0 101 -72 159t-186 58q-160 0 -299 -135h-8l-43 45l2 8q169 156 364 156z" />
    <glyph glyph-name="four" unicode="4" horiz-adv-x="1034" 
d="M924 1169l-715 -743h584zM1030 1331l-160 -905h162l-12 -70h-164l-61 -356h-80l63 356h-680l11 62l880 913h41z" />
    <glyph glyph-name="five" unicode="5" horiz-adv-x="1036" 
d="M1040 496q0 -223 -156 -372q-157 -148 -380 -149q-106 -1 -212 49t-169 134l2 8l53 45h8q54 -72 144 -117t196 -45t209 56q103 55 163 155t60 229t-89 215t-236 84q-90 0 -182 -45t-152 -114h-8l-53 28l219 674h628l-14 -74h-561l-164 -503q150 108 316 108t272 -101
t106 -265z" />
    <glyph glyph-name="six" unicode="6" horiz-adv-x="1050" 
d="M567 49q190 0 307 123t117 306t-148 265q-73 41 -169 41q-184 0 -307 -125t-123 -303q0 -133 89 -220t234 -87zM688 858q113 0 201 -48t135 -132t47 -191q0 -219 -146 -365t-372 -147q-176 0 -285 110t-106 275q0 298 452 789q104 113 215 211h7l47 -41l-2 -8
q-311 -276 -498 -563q147 110 305 110z" />
    <glyph glyph-name="seven" unicode="7" horiz-adv-x="862" 
d="M1073 1331l-10 -49l-776 -1282h-78l-2 6l758 1249h-713l14 76h807z" />
    <glyph glyph-name="eight" unicode="8" horiz-adv-x="1089" 
d="M656 715q-158 0 -287 -111t-129 -270q0 -84 43 -149q90 -136 274 -136t306 109t122 272q0 125 -86 205q-85 80 -243 80zM746 1282q-118 0 -205 -81q-88 -81 -88 -191t61 -167q61 -59 179 -59t214 82q97 82 97 190t-70 166q-70 60 -188 60zM756 1356q154 0 242 -77
q89 -77 89 -198q0 -156 -117 -258q-54 -47 -124 -71q102 -39 162 -122t59 -192q0 -194 -151 -328t-363 -135q-172 1 -284 99t-111 250q0 102 46 192q91 178 304 240q-139 70 -139 229q1 159 117 265t270 106z" />
    <glyph glyph-name="nine" unicode="9" horiz-adv-x="1050" 
d="M612 545q184 0 308 126q123 126 122 304q0 133 -86 220t-221 87t-234 -58t-151 -154t-53 -224q0 -127 86 -214t229 -87zM739 1356q177 0 283 -111q191 -200 36 -533q-112 -237 -385 -531q-105 -114 -214 -212h-8l-45 41v8q309 274 497 564q-147 -109 -312 -109
q-165 1 -270 105t-106 266q-1 220 149 366t375 146z" />
    <glyph glyph-name="colon" unicode=":" horiz-adv-x="438" 
d="M311 63q1 -34 -29 -63t-64 -29q-34 1 -53 21t-19 55t28 63q29 28 63 28t54 -21q20 -20 20 -54zM376 864q-34 0 -53 20t-19 56q0 34 28 62t62 28t54 -20t21 -54t-29 -64q-30 -28 -64 -28z" />
    <glyph glyph-name="semicolon" unicode=";" horiz-adv-x="489" 
d="M96 -242q55 61 95 129t45 93q-56 9 -58 77q0 33 26 59t62 26t58 -24q22 -22 22 -65t-52 -132t-159 -202h-8l-33 33zM415 879q-34 0 -56 20q-21 20 -21 55t30 64t64 29t53 -22q21 -21 21 -55t-28 -62t-63 -29z" />
    <glyph glyph-name="less" unicode="&#x3c;" horiz-adv-x="929" 
d="M997 1133l7 -5l-13 -67l-4 -6l-713 -396l574 -395l2 -6l-12 -68l-9 -4l-653 449l8 49z" />
    <glyph glyph-name="equal" unicode="=" horiz-adv-x="1191" 
d="M217 420h905l-10 -66h-907zM297 874h907l-12 -65h-907z" />
    <glyph glyph-name="greater" unicode="&#x3e;" horiz-adv-x="929" 
d="M334 1133l655 -449l-8 -49l-815 -449l-6 4l10 68l6 6l715 395l-574 396l-4 6l11 67z" />
    <glyph glyph-name="question" unicode="?" horiz-adv-x="946" 
d="M499 141q70 0 70 -74q1 -34 -29 -63t-64 -29q-34 1 -52 21t-18 54t29 63q30 28 64 28zM685 1282q-122 0 -223 -79t-151 -199l-8 -3l-61 17v8q58 138 182 234t277 96t249 -88t94 -221q0 -94 -28 -145q-50 -91 -92 -131t-64 -59q-22 -18 -62 -52q-38 -34 -71 -62
q-127 -110 -149 -240l-19 -104h-76l19 102q14 92 61 162t129 139q18 15 62 53t90 78q45 40 81 101t37 158q1 95 -77 165t-200 70z" />
    <glyph glyph-name="at" unicode="@" horiz-adv-x="1685" 
d="M846 227q137 1 235 107t99 256q0 110 -68 182t-172 72q-144 0 -238 -108t-94 -257t111 -218q55 -34 127 -34zM804 -248q-259 0 -444 182q-184 182 -184 459q0 211 80 391t209 286q248 202 575 202q285 0 465 -169q181 -169 181 -424t-108 -394t-257 -140q-92 -1 -135 53
t-33 150q-70 -114 -194 -163q-60 -24 -125 -23q-139 0 -222 87q-82 87 -82 220q0 182 119 310t301 128q98 0 168 -48t96 -132l31 172h62l-88 -491q-35 -199 116 -199q109 0 193 121t84 321q0 125 -45 229q-89 208 -307 284q-106 38 -232 38q-293 0 -498 -170
q-134 -110 -206 -274t-72 -359q0 -251 165 -413t417 -162q201 0 366 110h8l27 -51v-6q-172 -125 -431 -125z" />
    <glyph glyph-name="A" unicode="A" horiz-adv-x="1327" 
d="M379 403h647l-178 799zM1226 -25q-52 0 -86 33t-55 129l-45 193h-704l-193 -330h-86l785 1331h57l266 -1175q11 -57 29 -81t49 -24t57 19l9 -2l10 -56l-2 -8q-39 -29 -91 -29z" />
    <glyph glyph-name="B" unicode="B" horiz-adv-x="1202" 
d="M1081 412q0 112 -77 179q-77 66 -209 66h-400l-102 -583h416q147 -1 241 67q131 96 131 271zM788 727q154 0 248 85t94 226q0 104 -70 162q-71 57 -196 57h-362l-94 -530h380zM1163 415q0 -103 -44 -191t-126 -142q-121 -82 -313 -82h-481l235 1331h436q175 0 261 -78
t86 -200q0 -88 -35 -161q-66 -138 -224 -196q92 -33 149 -105q56 -73 56 -176z" />
    <glyph glyph-name="C" unicode="C" horiz-adv-x="1368" 
d="M780 -25q-254 0 -414.5 168t-160.5 420q0 184 80 348t217 275q215 170 491 170q160 0 289 -66.5t203 -187.5l-2 -8l-60 -41h-8q-66 109 -178.5 167t-253.5 58q-250 0 -436 -156q-163 -128 -227 -338q-32 -102 -31 -211q0 -225 139 -372.5t360 -147.5q272 0 490 215h8
l47 -47v-6q-111 -115 -255 -177.5t-298 -62.5z" />
    <glyph glyph-name="D" unicode="D" horiz-adv-x="1400" 
d="M1133 233q102 97 158 237t57 308q0 244 -140 371q-119 109 -342 108h-364l-209 -1183h366q296 -1 474 159zM1430 791q0 -189 -66 -349t-184 -264q-207 -178 -537 -178h-444l235 1331h445q254 0 391 -125q160 -143 160 -415z" />
    <glyph glyph-name="E" unicode="E" horiz-adv-x="1079" 
d="M1217 1257h-715l-96 -548h561l-13 -72h-563l-98 -563h715l-13 -74h-796l235 1331h797z" />
    <glyph glyph-name="F" unicode="F" horiz-adv-x="987" 
d="M1169 1257h-667l-96 -548h524l-15 -72h-524l-112 -637h-80l235 1331h750z" />
    <glyph glyph-name="G" unicode="G" horiz-adv-x="1490" 
d="M981 1356q166 0 300 -69.5t206 -184.5l-2 -8l-64 -41h-6q-59 106 -178 165.5t-270 59.5q-248 0 -428 -145q-121 -98 -185.5 -240.5t-64.5 -314.5q0 -225 146.5 -375t385 -150t415.5 157t218 404h-569l14 74h639l6 -8q0 -14 -2 -33q-43 -324 -280 -512
q-203 -160 -467 -160q-168 0 -304.5 78t-212.5 213q-76 134 -75 282q0 415 289 642q207 166 489 166z" />
    <glyph glyph-name="H" unicode="H" horiz-adv-x="1415" 
d="M1372 1331h80l-235 -1331h-80l110 637h-856l-112 -637h-80l235 1331h80l-108 -622h856z" />
    <glyph glyph-name="I" unicode="I" horiz-adv-x="477" 
d="M434 1331h80l-235 -1331h-80z" />
    <glyph glyph-name="J" unicode="J" horiz-adv-x="976" 
d="M436 51q125 0 221 84t119 225l160 897h-438l14 74h518l-172 -975q-32 -176 -154 -278t-280 -103q-238 0 -326 199l2 8l60 43h8q76 -174 268 -174z" />
    <glyph glyph-name="K" unicode="K" horiz-adv-x="1134" 
d="M1057 -25q-101 0 -191 144l-334 520l-165 -150l-88 -489h-80l235 1331h80l-129 -731l801 731h96l2 -6l-688 -629l350 -544q66 -100 127 -101q30 1 57 19l7 -2l16 -56l-4 -8q-37 -29 -92 -29z" />
    <glyph glyph-name="L" unicode="L" horiz-adv-x="962" 
d="M936 74l-14 -74h-723l235 1331h80l-221 -1257h643z" />
    <glyph glyph-name="M" unicode="M" horiz-adv-x="1640" 
d="M1484 -25q-118 0 -102 224l70 936l-633 -1135h-59l-234 1137l-317 -1137h-80l377 1331h57l248 -1206l676 1206h57l-78 -1108q-8 -127 6 -149t44 -22q29 0 53 18l8 -2l10 -56l-2 -8q-39 -29 -101 -29z" />
    <glyph glyph-name="N" unicode="N" horiz-adv-x="1439" 
d="M1399 1331h80l-236 -1331h-53l-705 1180l-206 -1180h-80l235 1331h51l705 -1179z" />
    <glyph glyph-name="O" unicode="O" horiz-adv-x="1546" 
d="M822 53q238 0 419 146q121 98 185 240q65 142 65 315q-1 224 -149 374t-386 150t-419 -145q-121 -99 -186 -241t-64 -317q1 -221 149 -371t386 -151zM810 -25q-270 0 -438 170q-169 170 -169 420q0 195 75 356t211 269q209 166 492 166q168 0 305 -78t214 -213t77 -283
t-35 -263q-71 -237 -254 -378q-208 -166 -478 -166z" />
    <glyph glyph-name="P" unicode="P" horiz-adv-x="1116" 
d="M756 625q143 0 245 82q139 104 140 290q0 123 -75 192t-192 68h-372l-111 -632h365zM872 1331q152 0 252 -83t101 -234q0 -238 -172 -363q-129 -96 -326 -96h-350l-98 -555h-80l235 1331h438z" />
    <glyph glyph-name="Q" unicode="Q" horiz-adv-x="1607" 
d="M287 575q0 -221 148 -371t387 -151q239 0 419 146q121 98 185 240q65 142 65 302t-67 280q-68 121 -188 189t-269 68q-250 0 -430 -145q-161 -133 -221 -339q-29 -104 -29 -219zM1192 -307q-99 0 -197 102q-20 23 -66 79t-75 79t-61 22q-254 2 -422 172t-168 418
q0 394 286 625q209 166 479 166t439 -170q170 -170 170 -424t-133 -454q-63 -95 -156 -167q-154 -123 -354 -155q27 -25 74 -78t51 -58q81 -84 151 -84t113 35l6 -4l25 -51l-4 -8q-59 -45 -158 -45z" />
    <glyph glyph-name="R" unicode="R" horiz-adv-x="1189" 
d="M770 662q172 0 274 104q100 96 101 250q0 109 -68 175.5t-203 65.5h-372l-105 -595h373zM1057 -25q-51 0 -84 17.5t-52.5 40t-39.5 72.5t-33.5 109.5t-15 63t-2.5 7.5q-76 305 -148 305h-299l-104 -590h-80l235 1331h438q178 0 267.5 -83t89.5 -220q0 -199 -135 -319
q-113 -102 -293 -117q51 -39 100 -247.5t71 -236.5q46 -57 87.5 -56.5t68.5 18.5l9 -2l14 -56l-2 -8q-41 -29 -92 -29z" />
    <glyph glyph-name="S" unicode="S" horiz-adv-x="1024" 
d="M172 246q114 -193 386 -193q138 0 243.5 82t105.5 208t-147 224q-47 31 -146.5 83.5t-139.5 79t-81 65.5q-82 78 -82 198q0 166 126 264.5t300 98.5q244 0 361 -178l-2 -9l-58 -45h-8q-49 76 -128 115t-171 39q-139 0 -236.5 -75t-97.5 -193q0 -86 61 -149t212.5 -142.5
t175.5 -101t53 -45t41 -45t32.5 -58t20.5 -115.5q0 -162 -128 -270.5t-333 -108.5q-137 0 -252.5 57.5t-170.5 160.5v8l57 45h6z" />
    <glyph glyph-name="T" unicode="T" horiz-adv-x="1001" 
d="M459 0l221 1257h-432l14 74h948l-14 -74h-434l-221 -1257h-82z" />
    <glyph glyph-name="U" unicode="U" horiz-adv-x="1357" 
d="M680 -25q-182 1 -293 93t-129 258q-10 70 16 223l138 782h80l-136 -780q-27 -154 -14 -225q20 -131 112 -203t238 -72q207 0 336 125t176 404l131 751h82l-133 -758q-29 -159 -78 -271t-137 -189q-149 -138 -389 -138z" />
    <glyph glyph-name="V" unicode="V" horiz-adv-x="1323" 
d="M320 1280q-28 0 -54 -18l-8 2l-18 55l4 8q43 29 98 29q102 0 135 -148l240 -1075l690 1198h82l2 -6l-770 -1325h-57l-269 1180q-12 52 -29 76q-18 24 -46 24z" />
    <glyph glyph-name="W" unicode="W" horiz-adv-x="1892" 
d="M322 1280q-30 0 -58 -18l-8 2l-16 55l2 8q41 29 98 29q109 0 127 -146l158 -1067l553 1188h79l134 -1186l594 1186h81l2 -6l-673 -1325h-60l-141 1198l-565 -1198h-60l-184 1180q-8 56 -21 78q-12 22 -42 22z" />
    <glyph glyph-name="X" unicode="X" horiz-adv-x="1210" 
d="M1117 -25q-56 0 -93 31t-76 109l-239 481l-533 -596h-90v6l592 660l-260 524q-27 51 -49 71q-23 19 -55 19t-58 -18l-6 2l-19 55l2 8q43 29 99 29t90 -31q35 -31 74 -108l241 -488l537 602h90l2 -6l-598 -666l258 -518q26 -51 50 -70t56 -19t62 18l6 -2l17 -56l-5 -8
q-39 -29 -95 -29z" />
    <glyph glyph-name="Y" unicode="Y" horiz-adv-x="1257" 
d="M328 1280q-31 0 -58 -18l-6 2l-18 55l2 8q41 29 88 29t75 -16t47 -45q19 -28 44 -78l272 -582l567 696h89l2 -6l-627 -764l-100 -561h-82l98 557l-297 633q-25 50 -45 70t-51 20z" />
    <glyph glyph-name="Z" unicode="Z" horiz-adv-x="1093" 
d="M1239 1325l-8 -49l-1057 -1204h887l-14 -72h-992l-2 6l8 49l1055 1205h-829l14 71h936z" />
    <glyph glyph-name="bracketleft" unicode="[" horiz-adv-x="493" 
d="M680 1382h-199l-284 -1613h198l-12 -68h-274l309 1749h274z" />
    <glyph glyph-name="backslash" unicode="\" horiz-adv-x="978" 
d="M387 1442l522 -1542l-8 -9h-70l-520 1543l6 8h70z" />
    <glyph glyph-name="bracketright" unicode="]" horiz-adv-x="493" 
d="M301 1382l12 68h277l-309 -1749h-277l12 68h197l287 1613h-199z" />
    <glyph glyph-name="asciicircum" unicode="^" horiz-adv-x="1134" 
d="M829 1331l332 -766l-6 -8h-70l-8 4l-291 676l-532 -676l-8 -4h-70l-4 8l608 766h49z" />
    <glyph glyph-name="underscore" unicode="_" horiz-adv-x="911" 
d="M14 -135h834l-10 -66h-834z" />
    <glyph glyph-name="grave" unicode="`" horiz-adv-x="526" 
d="M285 1454l364 -264v-6l-28 -39h-7l-376 246v6l41 57h6z" />
    <glyph glyph-name="a" unicode="a" horiz-adv-x="1071" 
d="M209 272q1 -106 73 -166t203 -59q131 0 257 89t153 235l20 116q-141 76 -311 76t-282 -77t-113 -214zM945 -25q-56 0 -81 41t-12 115l6 31q-153 -184 -405 -187q-145 0 -236 75q-90 75 -90 203t72 214q139 166 409 166q176 0 320 -76q30 165 30 223t-44 108
q-76 87 -257 88q-180 1 -342 -151h-8l-43 47v9q176 168 418 168q206 0 300 -116q52 -65 52 -139t-24 -210l-80 -447q-14 -92 41 -92q31 0 55 21l8 -3l10 -53l-4 -6q-39 -29 -95 -29z" />
    <glyph glyph-name="b" unicode="b" horiz-adv-x="1236" 
d="M1167 588q0 168 -99 278q-100 110 -252 111q-152 0 -267 -80q-171 -109 -222 -322q-17 -70 -18 -143q-1 -174 101 -279t260 -106q209 1 348 148q70 74 109 178q40 104 40 215zM840 1049q176 0 292 -127t115 -322q0 -133 -49 -256q-79 -199 -252 -296q-124 -71 -272 -72
q-149 -1 -250 70q-100 71 -145 192l-43 -238h-78l243 1380l72 15l8 -4l-100 -564q170 222 459 222z" />
    <glyph glyph-name="c" unicode="c" horiz-adv-x="1089" 
d="M614 -25q-199 0 -321.5 128t-122.5 327q0 143 63.5 274.5t174.5 217.5q162 127 368 127q131 0 234.5 -55.5t154.5 -151.5v-8l-55 -37h-8q-47 86 -135 133t-201 47q-182 0 -320 -113q-92 -76 -143 -189.5t-51 -240.5q0 -176 102.5 -281.5t272.5 -105.5q221 0 372 172h9
l41 -41v-6q-84 -94 -197 -145.5t-238 -51.5z" />
    <glyph glyph-name="d" unicode="d" 
d="M1108 610.5q0 155.5 -100.5 261t-270.5 105.5t-301 -113q-84 -74 -134 -185.5t-50 -238.5q0 -170 99.5 -281.5t266 -111.5t285.5 90q90 72 147.5 195t57.5 278.5zM172 430q0 143 58.5 274.5t160.5 217.5q156 127 363 127q141 0 242.5 -72t146.5 -193l104 598l72 13l8 -4
l-221 -1254q-16 -92 43 -92q28 0 51 18l8 -2l11 -51q-29 -35 -88.5 -35t-86 40t-16.5 108l14 72q-164 -220 -436 -220q-201 0 -317.5 128t-116.5 327z" />
    <glyph glyph-name="e" unicode="e" horiz-adv-x="1140" 
d="M744.5 977q-175.5 0 -302.5 -109q-137 -113 -178 -315h811q27 206 -64 315t-266.5 109zM618 47q113 0 221.5 49t184.5 135h6l43 -43v-6q-86 -98 -210 -152.5t-251 -54.5q-195 0 -318.5 122t-123.5 327q0 140 60 276t167 226q150 123 351 123t308 -116t107 -296
q0 -70 -20 -152h-887q-20 -197 80 -317.5t282 -120.5z" />
    <glyph glyph-name="f" unicode="f" horiz-adv-x="616" 
d="M748 1348q-144 0 -221 -126q-38 -65 -54 -159l-6 -39h313l-12 -68h-313l-168 -956h-78l168 956h-172l12 68h172l6 39q19 115 71 195q101 158 286 159q100 0 174 -47v-8l-35 -53l-8 -2q-61 41 -135 41z" />
    <glyph glyph-name="g" unicode="g" horiz-adv-x="1191" 
d="M1047 661q0 129 -91.5 222.5t-253 93.5t-282.5 -103q-74 -63 -115 -157t-41 -197q0 -150 91 -243t237.5 -93t259.5 80q90 61 142.5 164.5t52.5 232.5zM1245 979q-59 0 -76 -92l-129 -733q-39 -223 -176 -343t-350 -120q-295 0 -405 225l2 8l49 41h10q43 -94 134 -148.5
t222 -54.5q182 0 294 105.5t143 288.5l28 155q-74 -92 -182.5 -145t-224.5 -53q-180 0 -290 112.5t-110 284.5t94 310q44 66 103 112q143 117 340 117q129 0 223 -62.5t137 -169.5l17 84q12 72 50 110t92 38t83 -29l2 -6l-27 -53h-8q-16 18 -45 18z" />
    <glyph glyph-name="h" unicode="h" horiz-adv-x="1134" 
d="M764 1049q168 -1 260 -93t88 -241q0 -37 -27 -191l-94 -524h-78l95 530q25 139 24 181q2 117 -74 191t-215 75q-94 0 -180 -49t-142 -130t-75 -173l-110 -625h-78l243 1382l72 13l8 -4l-94 -535q68 90 166 142t211 51z" />
    <glyph glyph-name="i" unicode="i" horiz-adv-x="415" 
d="M274 -25q-54 0 -83 39q-28 39 -15 109l158 901h78l-158 -895q-14 -84 43 -84q31 0 53 18l8 -2l11 -51l-4 -6q-37 -29 -91 -29zM322 1220q0 34 28 62t63 29q34 -1 54 -21t20 -54q1 -34 -29 -62t-64 -29q-34 0 -53 20q-19 21 -19 55z" />
    <glyph glyph-name="j" unicode="j" horiz-adv-x="393" 
d="M340 1024h78l-176 -995q-25 -131 -81 -205t-155 -131h-8l-23 55l2 8q80 46 123 104t62 165zM330 1220q0 34 28 62t63 29q34 -1 54 -21q21 -20 21 -54t-31 -62t-64 -29q-33 0 -52 20q-19 21 -19 55z" />
    <glyph glyph-name="k" unicode="k" horiz-adv-x="970" 
d="M922 45q22 0 49 16l8 -2l10 -53q-21 -31 -76 -31t-91 29t-74 90l-261 426l-190 -170l-61 -350h-78l243 1382l72 13l8 -4l-166 -940l643 573h89l4 -6l-500 -445l272 -446q47 -82 99 -82z" />
    <glyph glyph-name="l" unicode="l" horiz-adv-x="421" 
d="M280 -25q-54 0 -82 39t-16 109l224 1259l69 15l8 -6l-221 -1262q-16 -84 43 -84q29 0 53 21l7 -3l12 -53l-4 -6q-39 -29 -93 -29z" />
    <glyph glyph-name="m" unicode="m" horiz-adv-x="1875" 
d="M1534 1049q146 -1 234 -93t83 -241q-2 -47 -26 -193l-94 -522h-78l94 522q23 135 25 185q2 121 -69 195t-213 75t-250 -105q-110 -106 -138 -272l-107 -600h-77l92 522q25 145 26 189q2 115 -68 191t-210 75q-139 0 -249 -99t-138 -251l-111 -627h-78l156 885
q16 94 -41 94q-27 0 -55 -21l-6 3l-11 53l2 6q39 29 92 29t81 -38t16 -110l-8 -45q145 192 385 192q124 0 209 -66q85 -67 106 -177q63 113 171 179q109 66 255 65z" />
    <glyph glyph-name="n" unicode="n" horiz-adv-x="1159" 
d="M786 1049q166 0 260.5 -92.5t90.5 -241.5q0 -35 -29 -193l-92 -522h-78l92 522q27 150 27 207.5t-32 117.5t-98.5 95t-158.5 35q-143 0 -254 -95.5t-141 -236.5l-113 -645h-78l156 885q16 94 -41 94q-27 0 -55 -21l-6 3l-11 53l2 6q39 29 83 29q44 -1 68 -17
q54 -36 38 -131l-6 -43q66 90 162.5 140.5t213.5 50.5z" />
    <glyph glyph-name="o" unicode="o" horiz-adv-x="1220" 
d="M635 47q217 0 367 154t149 387q0 168 -109.5 278.5t-282.5 110.5t-310 -111q-92 -74 -144.5 -187.5t-52.5 -242.5q0 -168 107.5 -278.5t275.5 -110.5zM623 -25q-197 0 -324 129t-127 322q0 152 63.5 284t174.5 218q158 121 361.5 121t332.5 -129t129 -324
q0 -131 -50 -250t-141 -205q-169 -166 -419 -166z" />
    <glyph glyph-name="p" unicode="p" 
d="M1190 590q0 166 -98 276t-252 111q-154 0 -273 -82q-109 -72 -171 -195q-62 -122 -62 -282t101 -265t259 -106q200 0 348 148q70 74 109 178t39 217zM848 1049q190 0 307 -126t117 -319q0 -137 -49 -260q-79 -199 -254 -296q-130 -71 -276 -72t-247 70q-100 71 -145 190
l-94 -543h-80l211 1192q16 94 -41 94q-27 0 -55 -21l-6 3l-11 53l2 6q39 29 93 29t81 -38t15 -110l-15 -78q174 226 447 226z" />
    <glyph glyph-name="q" unicode="q" horiz-adv-x="1259" 
d="M1106 588q0 178 -99 283t-269 105t-294 -105q-123 -106 -170 -267q-23 -80 -22 -162q0 -174 98 -284t265 -111q167 0 286 90q90 72 148 195q57 123 57 256zM170 432q0 140 58 272t161 216q156 129 359 129q145 0 247 -72t150 -195l20 119q11 72 51 110t94 38t83 -29l2 -6
l-29 -51l-8 -2q-16 18 -43 18q-59 0 -78 -92l-209 -1194h-76l86 497q-164 -215 -432 -215q-204 0 -320 128t-116 329z" />
    <glyph glyph-name="r" unicode="r" horiz-adv-x="675" 
d="M700 977q-117 0 -208 -93t-123 -261l-109 -623h-78l156 885q16 94 -41 94q-27 0 -55 -21l-6 3l-11 53l2 6q39 29 92 29t82 -39t11 -129q121 168 309 168q80 0 127 -27l2 -8l-39 -58l-6 -2q-39 23 -105 23z" />
    <glyph glyph-name="s" unicode="s" horiz-adv-x="833" 
d="M160 205q66 -158 288 -158q114 0 194.5 61.5t80.5 161.5t-83 154q-53 35 -112 62.5t-100.5 49t-79 47t-66 72.5t-28.5 109q0 131 102 211q90 74 209 74q231 0 307 -156v-8l-55 -37h-6q-76 129 -233 129q-106 0 -175 -55.5t-69 -131t42.5 -121.5t180.5 -110t164.5 -93.5
t54 -68t27.5 -116.5q0 -147 -117 -234q-96 -72 -255.5 -72t-258.5 85q-49 42 -76 100l2 8l54 37h8z" />
    <glyph glyph-name="t" unicode="t" horiz-adv-x="647" 
d="M483 -25q-129 0 -187 92.5t-30 262.5l111 626h-176l12 68h176l55 317l74 15l6 -4l-57 -328h321l-12 -68h-321l-111 -626q-32 -188 50 -252q40 -31 100.5 -31t109.5 31l6 -4l19 -54l-4 -6q-60 -39 -142 -39z" />
    <glyph glyph-name="u" unicode="u" horiz-adv-x="1138" 
d="M1001 -25q-54 0 -81 39t-15 109l6 37q-63 -86 -155 -135t-203 -50q-168 1 -261 93t-87 245q0 45 24 179l97 532h77l-96 -537q-20 -127 -22 -176q-1 -117 73 -191t216 -73q142 0 246 99q103 99 132 255l109 623h78l-158 -895q-14 -84 43 -84q28 1 53 21l8 -3l11 -53l-4 -6
q-37 -29 -91 -29z" />
    <glyph glyph-name="v" unicode="v" horiz-adv-x="1036" 
d="M282 1049q52 0 80 -35t41 -103l170 -788l519 901h69l4 -8l-585 -1016h-54l-192 862q-8 43 -15 64q-16 53 -61 53q-27 0 -53 -21l-6 3l-13 53l4 6q40 29 92 29z" />
    <glyph glyph-name="w" unicode="w" horiz-adv-x="1507" 
d="M260 979q-29 0 -55 -21l-8 3l-13 53l4 6q40 29 92 29t80 -34t37 -104l117 -757l418 870h74l112 -872l443 872h73l4 -8l-524 -1016h-47l-119 905l-436 -905h-45l-141 870q-10 57 -24 83t-42 26z" />
    <glyph glyph-name="x" unicode="x" horiz-adv-x="1030" 
d="M1022 10q-23 -35 -83 -35t-94 32t-71 104l-180 350l-414 -461h-80l-4 8l459 508l-193 369q-29 55 -49 74t-49 19t-57 -20l-8 3l-11 53l2 6q39 29 91 29q51 0 83 -30t70 -106l178 -350l416 461h80l4 -8l-459 -506l193 -371q26 -53 48 -73t54 -20t56 17l8 -2z" />
    <glyph glyph-name="y" unicode="y" horiz-adv-x="1075" 
d="M278 1049q60 0 88 -35t44 -103l192 -774l535 887h73l4 -8l-686 -1139q-111 -184 -268 -184q-63 0 -113 37l-2 8l35 53l8 2q37 -31 86 -31q102 0 185 136l86 141l-207 823q-19 85 -38 101t-42 16t-49 -21l-8 3l-13 53q30 35 90 35z" />
    <glyph glyph-name="z" unicode="z" horiz-adv-x="880" 
d="M250 1024h717l4 -8l-10 -51l-793 -899h672l-11 -66h-763l-5 8l7 51l796 899h-626z" />
    <glyph glyph-name="braceleft" unicode="{" horiz-adv-x="542" 
d="M420 -231h33l-13 -68h-34q-158 0 -205 75t-13 269l52 293q26 102 14 154t-86 53l10 61q74 0 100 43t46 164l51 293q23 131 62 205q40 75 106 107t172 32h35l-13 -68h-32q-119 0 -173 -57t-79 -217l-45 -252q-29 -186 -68 -239q-18 -25 -45 -25l-6 -33q39 0 43 -58
t-23 -208l-43 -250q-29 -160 3 -217t151 -57z" />
    <glyph glyph-name="bar" unicode="|" horiz-adv-x="391" 
d="M109 -299l309 1749h67l-309 -1749h-67z" />
    <glyph glyph-name="braceright" unicode="}" horiz-adv-x="542" 
d="M326 1382h-33l12 68h35q158 0 204 -75t13 -269l-51 -293q-24 -103 -14 -155t86 -52l-11 -61q-77 0 -101 -43t-44 -164l-51 -293q-35 -193 -109 -269t-231 -75h-35l12 68h33q119 0 172 57t80 217l45 250q27 152 50 209q24 57 63 57l6 33q-39 0 -43 58t22 206l43 252
q12 80 15 133q4 100 -72 128q-35 13 -96 13z" />
    <glyph glyph-name="asciitilde" unicode="~" horiz-adv-x="1118" 
d="M888 594q-64 0 -216 36q-150 36 -208 36q-107 0 -165 -72h-6l-33 53l2 6q82 84 199 84q78 0 226 -36q148 -35 231 -35t141 71h6l31 -53l-2 -6q-44 -48 -93 -66t-113 -18z" />
    <glyph glyph-name="exclamdown" unicode="&#xa1;" horiz-adv-x="395" 
d="M188 -303l-4 -4h-80l-6 6l201 1075l8 6h58l4 -6zM377 1049q33 -1 53 -21t20 -55t-29 -63q-30 -28 -63 -27q-33 0 -53 20t-20 54t29 63q30 29 63 29z" />
    <glyph glyph-name="cent" unicode="&#xa2;" horiz-adv-x="1167" 
d="M799 1130q-182 0 -312 -107q-131 -107 -179 -269q-24 -80 -23 -166q0 -174 102 -280.5t272 -106.5q221 0 373 172h8l41 -39v-8q-158 -178 -393 -195l-26 -156h-72l26 156q-186 10 -299.5 136t-113.5 317q0 145 63.5 275t173.5 216q145 115 332 127l27 150h69l-24 -150
q121 -8 214 -62.5t140 -144.5v-6l-55 -39h-8q-47 86 -135.5 133t-200.5 47z" />
    <glyph glyph-name="sterling" unicode="&#xa3;" horiz-adv-x="1046" 
d="M840 1356q203 0 319 -164l-2 -6l-53 -45h-6q-98 141 -273 141q-129 0 -227 -81t-123 -224l-45 -262h397l-12 -72h-399l-101 -571h646l-13 -72h-852l13 72h129l100 571h-129l14 72h127l47 258q31 179 155 281t288 102z" />
    <glyph glyph-name="currency" unicode="&#xa4;" horiz-adv-x="1300" 
d="M840 1112q-209 0 -354 -150q-144 -151 -144 -360q0 -158 100 -264t248 -106t261 68q114 70 177 186q64 116 64 264t-99 256q-99 106 -253 106zM852 1184q195 0 311 -135l119 102l41 -53l-119 -103q68 -104 68 -231t-47 -239t-127 -195l84 -109l-60 -51l-86 109
q-154 -119 -348 -119t-313 133l-121 -105l-43 54l121 104q-68 106 -68 248q0 240 172 416l-82 106l62 51l84 -106q157 123 352 123z" />
    <glyph glyph-name="yen" unicode="&#xa5;" horiz-adv-x="1169" 
d="M379 1331l319 -688l564 688h86l2 -6l-623 -760h277l-11 -61h-278l-35 -191h278l-10 -61h-278l-45 -252h-80l45 252h-279l11 61h278l35 191h-279l11 61h274l-354 760l4 6h88z" />
    <glyph glyph-name="brokenbar" unicode="&#xa6;" horiz-adv-x="391" 
d="M248 494h67l-139 -793h-67zM418 1450h67l-133 -752h-67z" />
    <glyph glyph-name="section" unicode="&#xa7;" horiz-adv-x="1048" 
d="M348 604q0 -53 50 -106t114 -85t154 -78q92 -46 141 -81q129 80 129 205q0 99 -106 171q-50 34 -161 91t-169 92q-152 -68 -152 -209zM750 1288q-139 0 -231 -66q-91 -67 -91 -172t128 -182q66 -40 181 -94q115 -55 176 -102q109 -85 109 -201q0 -162 -152 -262
q74 -68 74 -170q0 -158 -124 -254t-353 -96q-129 0 -249 57t-167 154l2 6l58 45h8q45 -90 145 -142t217 -53q182 0 281 76q98 76 98 198t-194 218q-33 16 -88 42t-125 61t-110 77q-77 83 -79 172q0 160 164 256q-86 76 -86 180q0 140 119 230t299 90q106 0 198 -40t150 -118
v-8l-61 -45h-9q-49 71 -126 107t-162 36z" />
    <glyph glyph-name="dieresis" unicode="&#xa8;" horiz-adv-x="671" 
d="M692 1145q-80 0 -80 80q0 29 30 57t63 29q33 -1 53 -21t20 -54t-28 -62q-30 -28 -58 -29zM388 1145q-24 0 -43 20q-19 21 -19 55t28 62t63 29q34 -1 54 -21t21 -51q0 -57 -61 -85q-19 -8 -43 -9z" />
    <glyph glyph-name="copyright" unicode="&#xa9;" horiz-adv-x="1529" 
d="M836 260q-150 0 -246 97t-96 245q0 195 132 332t322 137q138 0 231 -73q46 -36 70 -83l-2 -6l-47 -43h-4q-36 66 -104 101t-156 34q-162 1 -264 -113t-103 -282q0 -122 77 -198t204 -76q156 0 274 133h4l33 -43v-4q-139 -158 -325 -158zM793 41q274 0 454 158
q115 100 178 250t64 317q1 223 -145 374q-146 150 -392 150t-426 -153q-120 -100 -186 -251t-66 -321q0 -223 147 -373t372 -151zM780 -25q-250 0 -412 168t-161 416q0 184 76 351t209 280q205 166 474 166t431 -168t162 -416q0 -180 -72 -345t-201 -275q-98 -86 -230 -132
t-276 -45z" />
    <glyph glyph-name="ordfeminine" unicode="&#xaa;" horiz-adv-x="813" 
d="M553 1036q-97 0 -157 -44t-60 -108t38 -94q38 -32 102 -32q62 0 114 24t92 67q39 44 47 99l8 45q-88 43 -184 43zM709 805q-99 -111 -255 -111q-80 0 -136 47t-56 125q0 113 86 173q86 61 200 61t202 -45l10 57q14 84 -32 129t-126 45q-133 0 -227 -92h-4l-29 41v6
q72 68 147 90q76 22 125 23q100 0 167 -60t48 -170l-53 -303q-12 -66 23 -65q14 0 35 10l6 -2l6 -49q-22 -22 -66 -23q-90 0 -73 109z" />
    <glyph glyph-name="guillemotleft" unicode="&#xab;" horiz-adv-x="856" 
d="M881 897l-2 -6l-291 -289l188 -291v-6l-53 -47h-6l-225 334l4 18l342 334h6zM582 891l-291 -289l188 -291v-6l-51 -47h-6l-225 334l2 18l344 334h6l35 -47z" />
    <glyph glyph-name="registered" unicode="&#xae;" horiz-adv-x="1529" 
d="M920 692q102 0 159 60t57 135q1 151 -155 151h-223l-64 -346h226zM983 1098q221 0 221 -203q0 -103 -70 -177t-192 -83l154 -371h-78l-154 369h-180l-63 -369h-66l147 834h281zM793 41q285 0 475 178q144 140 195 341q26 99 26 206q1 223 -145 374q-146 150 -388 150
t-421 -147q-185 -148 -242 -410q-18 -82 -19 -168q0 -223 147 -373t372 -151zM773 -25q-159 0 -291 78t-203 210q-72 132 -72 307t77 343t214 279q203 164 470 164t429 -168t162 -416q0 -113 -29 -221q-59 -223 -228 -384q-90 -85 -230 -139t-299 -53z" />
    <glyph glyph-name="macron" unicode="&#xaf;" horiz-adv-x="1032" 
d="M473 1255h531l-11 -65h-532z" />
    <glyph glyph-name="degree" unicode="&#xb0;" horiz-adv-x="700" 
d="M559 1290q-79 0 -143 -68t-64 -150q0 -81 49 -130t127 -49t143 68q65 67 65 149t-50 131q-49 49 -127 49zM285 1047q0 87 41 157t109 111q69 41 154 41t148 -65t63 -173t-86 -199q-88 -91 -194 -91t-171 65q-64 66 -64 154z" />
    <glyph glyph-name="plusminus" unicode="&#xb1;" horiz-adv-x="1159" 
d="M127 0l10 66h905l-10 -66h-905zM733 668h418l-12 -66h-418l-74 -420h-69l75 420h-422l13 66h420l73 415h70z" />
    <glyph glyph-name="acute" unicode="&#xb4;" horiz-adv-x="526" 
d="M649 1456h6l37 -59v-6l-377 -246h-6l-24 41v6z" />
    <glyph glyph-name="paragraph" unicode="&#xb6;" horiz-adv-x="1208" 
d="M1186 1200l-262 -1493h-70l262 1493h70zM680 586q-209 0 -329 85t-120 267q0 387 364 484q105 28 239 28h561l-13 -70h-438l-295 -1673h-69l153 879h-53z" />
    <glyph glyph-name="periodcentered" unicode="&#xb7;" horiz-adv-x="446" 
d="M229 537q1 63 67 95q20 10 46 9q26 0 48 -24q22 -25 22 -61t-33 -68t-70 -31t-59 23t-21 57z" />
    <glyph glyph-name="cedilla" unicode="&#xb8;" horiz-adv-x="563" 
d="M432 -230q0 -74 -63 -123q-63 -48 -170 -48t-172 77v7l45 43h6q52 -64 122 -64t112 28t42 83t-62 72t-151 -17l-30 20l84 150l6 31h78l-5 -31l-49 -92l2 -4q93 14 149 -22t56 -110z" />
    <glyph glyph-name="ordmasculine" unicode="&#xba;" horiz-adv-x="831" 
d="M564 766q108 0 196 89t88 218t-96 185q-47 28 -111 28q-123 0 -210 -88t-87 -200t56 -172t164 -60zM539 696q-121 0 -196 78t-75 199q0 159 115 271t272 112q119 0 194 -78t75 -201q0 -157 -114 -269t-271 -112z" />
    <glyph glyph-name="guillemotright" unicode="&#xbb;" horiz-adv-x="856" 
d="M649 944l225 -334l-4 -18l-342 -334h-6l-37 47v6l293 289l-190 291l2 6l53 47h6zM578 610l-5 -18l-342 -334h-6l-37 47v6l293 289l-190 291l2 6l53 47h6z" />
    <glyph glyph-name="onequarter" unicode="&#xbc;" horiz-adv-x="1290" 
d="M735 250h291l68 379zM1184 250l-10 -66h-91l-32 -184h-70l33 184h-373l8 52l481 514h54l-90 -500h90zM543 1331l-135 -758h-78l123 691h-138l-2 6l29 61h201zM1378 1331v-10l-1214 -1321h-76l-2 8l1219 1323h73z" />
    <glyph glyph-name="onehalf" unicode="&#xbd;" horiz-adv-x="1423" 
d="M1288 574q0 44 -41 77t-104 33q-104 0 -207 -90h-4l-33 45l2 4q117 107 251 107t187 -85q25 -39 25 -81t-9 -72q-29 -97 -231 -265l-102 -85t-113 -94h383l-10 -68h-506l8 43q161 141 237 201q77 61 127 107t78 78t45 67q17 34 17 78zM360 573l125 691h-139l-2 6l31 61
h203l-140 -758h-78zM1372 1331v-10l-1214 -1321h-74l-2 8l1216 1323h74z" />
    <glyph glyph-name="threequarters" unicode="&#xbe;" horiz-adv-x="1464" 
d="M1192 250l65 379l-358 -379h293zM1348 750l-88 -500h90l-11 -66h-90l-35 -184h-67l33 184h-373l8 52l481 514h52zM1540 1331v-10l-1214 -1321h-74l-2 8l1218 1323h72zM700 825q0 -100 -80 -176q-80 -74 -211 -75q-130 -1 -216 106v6l49 41h6q66 -90 163 -90t155 54
t58 127t-43 110q-44 37 -120 37h-53l10 59h43q113 0 164 78q25 37 25 76q-1 114 -132 114q-86 0 -162 -71h-4l-35 34v7q96 94 216 94t167 -77q23 -36 23 -90q0 -53 -39 -107t-100 -83q116 -49 116 -174z" />
    <glyph glyph-name="questiondown" unicode="&#xbf;" horiz-adv-x="933" 
d="M419 -319q-153 0 -248 87t-95 225t103 252q38 42 62 62q53 44 164 140t138 231l18 104h76l-16 -102q-15 -92 -63 -163t-130 -138q-16 -16 -61 -53q-128 -105 -168 -174q-41 -69 -41 -164q0 -94 78 -164t200 -70t222 79q101 79 151 200l10 2l60 -17v-8q-57 -139 -182 -234
t-278 -95zM620 895q-33 0 -51 20q-18 21 -18 55t30 62t65 29q35 0 52 -23t17 -55t-31 -60t-64 -28z" />
    <glyph glyph-name="Agrave" unicode="&#xc0;" horiz-adv-x="1327" 
d="M379 403h647l-178 799zM1226 -25q-52 0 -86 33t-55 129l-45 193h-704l-193 -330h-86l785 1331h57l266 -1175q11 -57 29 -81t49 -24t57 19l9 -2l10 -56l-2 -8q-39 -29 -91 -29zM895 1450l-393 211l-2 6l32 59h7l387 -231v-6l-23 -39h-8z" />
    <glyph glyph-name="Aacute" unicode="&#xc1;" horiz-adv-x="1327" 
d="M379 403h647l-178 799zM1226 -25q-52 0 -86 33t-55 129l-45 193h-704l-193 -330h-86l785 1331h57l266 -1175q11 -57 29 -81t49 -24t57 19l9 -2l10 -56l-2 -8q-39 -29 -91 -29zM850 1450h-6l-21 41v6l387 232h7l28 -62l-2 -6z" />
    <glyph glyph-name="Acircumflex" unicode="&#xc2;" horiz-adv-x="1327" 
d="M379 403h647l-178 799zM1226 -25q-52 0 -86 33t-55 129l-45 193h-704l-193 -330h-86l785 1331h57l266 -1175q11 -57 29 -81t49 -24t57 19l9 -2l10 -56l-2 -8q-39 -29 -91 -29zM633 1450h-6l-23 45v6l316 185h10l250 -185v-6l-39 -45h-6l-226 149z" />
    <glyph glyph-name="Atilde" unicode="&#xc3;" horiz-adv-x="1327" 
d="M379 403h647l-178 799zM1226 -25q-52 0 -86 33t-55 129l-45 193h-704l-193 -330h-86l785 1331h57l266 -1175q11 -57 29 -81t49 -24t57 19l9 -2l10 -56l-2 -8q-39 -29 -91 -29zM745 1614q59 0 165 -38t175 -38q70 0 119 76h8l25 -55v-7q-68 -84 -170 -84q-53 0 -113 18
t-117 38q-58 18 -106 18q-80 0 -125 -74h-6l-29 56l2 6q66 84 172 84z" />
    <glyph glyph-name="Adieresis" unicode="&#xc4;" horiz-adv-x="1327" 
d="M379 403h647l-178 799zM1226 -25q-52 0 -86 33t-55 129l-45 193h-704l-193 -330h-86l785 1331h57l266 -1175q11 -57 29 -81t49 -24t57 19l9 -2l10 -56l-2 -8q-39 -29 -91 -29zM979 1524q0 36 30 64q31 28 65 28t53 -20t19 -56t-28 -64t-63 -28t-56 20q-20 20 -20 56z
M821 1544q0 -60 -61 -88q-19 -8 -49 -8t-48 35q-9 16 -9 46q0 31 28 59q29 28 64 28t55 -20t20 -52z" />
    <glyph glyph-name="Aring" unicode="&#xc5;" horiz-adv-x="1327" 
d="M379 403h647l-178 799zM1226 -25q-52 0 -86 33t-55 129l-45 193h-704l-193 -330h-86l785 1331h57l266 -1175q11 -57 29 -81t49 -24t57 19l9 -2l10 -56l-2 -8q-39 -29 -91 -29zM1022 1611q0 45 -26 73t-75 28q-48 0 -83 -40t-35 -85q-1 -45 27 -73t76 -28t82 41
q34 40 34 84zM885 1427q-57 0 -102 42q-44 41 -44 99t28 104t73 73t102 27t99 -42t42 -100t-25 -103q-57 -100 -173 -100z" />
    <glyph glyph-name="AE" unicode="&#xc6;" horiz-adv-x="1890" 
d="M1010 403l149 842l-741 -842h592zM1956 1257h-715l-96 -548h563l-14 -72h-564l-98 -563h717l-14 -74h-797l59 330h-643l-291 -330h-90l1162 1331h835z" />
    <glyph glyph-name="Ccedilla" unicode="&#xc7;" horiz-adv-x="1368" 
d="M993 1356q160 0 289 -66.5t205 -187.5l-4 -8l-60 -41h-8q-66 109 -178.5 167t-253.5 58q-250 0 -436 -156q-163 -128 -227 -338q-32 -102 -31 -211q0 -225 139 -372.5t360 -147.5q272 0 490 215h8l47 -47v-6q-106 -111 -244.5 -173t-287.5 -67l-35 -65l2 -4
q90 14 147.5 -22t57.5 -111.5t-63.5 -122.5t-170 -47t-172.5 75v9l45 41h6q49 -62 131 -62q81 0 123 46q20 24 21 57q0 61 -62.5 78.5t-150.5 -17.5l-29 23l70 124q-152 14 -270.5 94.5t-182 208.5t-63.5 297.5t80 333.5t217 275q215 170 491 170z" />
    <glyph glyph-name="Egrave" unicode="&#xc8;" horiz-adv-x="1079" 
d="M1217 1257h-715l-96 -548h561l-13 -72h-563l-98 -563h715l-13 -74h-796l235 1331h797zM651 1726l387 -231v-6l-22 -39h-6l-396 211l-2 6l33 59h6z" />
    <glyph glyph-name="Eacute" unicode="&#xc9;" horiz-adv-x="1079" 
d="M1217 1257h-715l-96 -548h561l-13 -72h-563l-98 -563h715l-13 -74h-796l235 1331h797zM1044 1729h7l28 -62l-2 -6l-393 -211h-6l-21 41v6z" />
    <glyph glyph-name="Ecircumflex" unicode="&#xca;" horiz-adv-x="1079" 
d="M1217 1257h-715l-96 -548h561l-13 -72h-563l-98 -563h715l-13 -74h-796l235 1331h797zM891 1686l250 -185v-6l-39 -45h-6l-226 149l-276 -149h-6l-23 45l2 6l314 185h10z" />
    <glyph glyph-name="Edieresis" unicode="&#xcb;" horiz-adv-x="1079" 
d="M1217 1257h-715l-96 -548h561l-13 -72h-563l-98 -563h715l-13 -74h-796l235 1331h797zM1034 1616q35 0 54.5 -20.5t19.5 -55.5t-28.5 -63.5t-63.5 -28.5t-55.5 20.5t-20.5 55.5t29.5 63.5t64.5 28.5zM707 1616q35 0 55 -20q20 -22 20 -46q0 -47 -30 -74.5t-64.5 -27.5
t-54 20.5t-19.5 55.5t29 63.5t64 28.5z" />
    <glyph glyph-name="Igrave" unicode="&#xcc;" horiz-adv-x="477" 
d="M434 1331h80l-235 -1331h-80zM156 1726l387 -231v-6l-23 -39h-6l-395 211l-2 6l33 59h6z" />
    <glyph glyph-name="Iacute" unicode="&#xcd;" horiz-adv-x="477" 
d="M434 1331h80l-235 -1331h-80zM803 1729h6l29 -62l-2 -6l-394 -211h-6l-20 41v6z" />
    <glyph glyph-name="Icircumflex" unicode="&#xce;" horiz-adv-x="477" 
d="M434 1331h80l-235 -1331h-80zM535 1686l249 -185v-6l-39 -45h-6l-225 149l-276 -149h-7l-22 45v6l315 185h11z" />
    <glyph glyph-name="Idieresis" unicode="&#xcf;" horiz-adv-x="477" 
d="M434 1331h80l-235 -1331h-80zM584 1524q0 36 30 64t63 28q34 0 54 -20q21 -20 21 -56t-30 -64t-64 -28t-54 20t-20 56zM350 1616q35 0 54 -20q20 -20 20 -49t-13 -51q-28 -48 -83 -48q-31 0 -50 20q-20 20 -20 56t28 64t64 28z" />
    <glyph glyph-name="Eth" unicode="&#xd0;" horiz-adv-x="1409" 
d="M1139 233q213 197 215 545q0 244 -140 371q-119 109 -342 108h-364l-96 -548h405l-12 -74h-406l-100 -561h367q297 -1 473 159zM1438 791q0 -189 -66 -349t-186 -264q-205 -178 -535 -178h-446l112 635h-176l15 74h174l110 622h447q252 0 389 -125q162 -143 162 -415z
" />
    <glyph glyph-name="Ntilde" unicode="&#xd1;" horiz-adv-x="1439" 
d="M1399 1331h80l-236 -1331h-53l-705 1180l-206 -1180h-80l235 1331h51l705 -1179zM817 1614q61 0 170 -38t183 -38t122 76h8l27 -55l-2 -7q-68 -84 -176 -84q-66 0 -177.5 37t-168.5 37q-84 0 -131 -74h-6l-29 56l2 6q67 84 178 84z" />
    <glyph glyph-name="Ograve" unicode="&#xd2;" horiz-adv-x="1546" 
d="M822 53q238 0 419 146q121 98 185 240q65 142 65 315q-1 224 -149 374t-386 150t-419 -145q-121 -99 -186 -241t-64 -317q1 -221 149 -371t386 -151zM810 -25q-270 0 -438 170q-169 170 -169 420q0 394 286 625q209 166 479 166t439 -170q170 -170 170 -424t-133 -454
q-63 -95 -156 -167q-208 -166 -478 -166zM799 1726l387 -231v-6l-23 -39h-6l-395 211l-2 6l33 59h6z" />
    <glyph glyph-name="Oacute" unicode="&#xd3;" horiz-adv-x="1546" 
d="M822 53q238 0 419 146q121 98 185 240q65 142 65 315q-1 224 -149 374t-386 150t-419 -145q-121 -99 -186 -241t-64 -317q1 -221 149 -371t386 -151zM810 -25q-270 0 -438 170q-169 170 -169 420q0 394 286 625q209 166 492 166q168 0 305 -78t214 -213t77 -283t-35 -263
q-71 -237 -254 -378q-208 -166 -478 -166zM1192 1729h6l29 -62l-2 -6l-394 -211h-6l-20 41v6z" />
    <glyph glyph-name="Ocircumflex" unicode="&#xd4;" horiz-adv-x="1546" 
d="M822 53q238 0 419 146q121 98 185 240q65 142 65 302t-67 280q-68 121 -188 189t-269 68q-250 0 -430 -145q-121 -99 -186 -241t-64 -317q1 -221 149 -371t386 -151zM810 -25q-270 0 -438 170q-169 170 -169 420q0 195 75 356t211 269q209 166 479 166t439 -170
q170 -170 170 -424t-133 -454q-63 -95 -156 -167q-208 -166 -478 -166zM1040 1686l248 -185v-6l-39 -45h-6l-225 149l-277 -149h-6l-22 45l2 6l313 185h12z" />
    <glyph glyph-name="Otilde" unicode="&#xd5;" horiz-adv-x="1546" 
d="M822 53q238 0 419 146q121 98 185 240q65 142 65 302t-67 280q-68 121 -188 189t-269 68q-250 0 -430 -145q-121 -99 -186 -241t-64 -317q1 -221 149 -371t386 -151zM810 -25q-270 0 -439 170q-170 170 -170 420q0 195 75 356q76 161 213 269q209 166 479 166t438 -170
q169 -170 169 -420q0 -395 -287 -625q-208 -166 -478 -166zM850 1614q61 0 170 -38q108 -38 182 -38t123 76h8l27 -55l-2 -7q-68 -84 -176 -84q-66 0 -178 37t-168 37q-84 0 -131 -74h-7l-28 56l2 6q67 84 178 84z" />
    <glyph glyph-name="Odieresis" unicode="&#xd6;" horiz-adv-x="1546" 
d="M822 53q238 0 419 146q121 98 185 240q65 142 65 302t-67 280q-68 121 -188 189t-269 68q-250 0 -430 -145q-121 -99 -186 -241t-64 -317q1 -221 149 -371t386 -151zM810 -25q-270 0 -438 170q-169 170 -169 420q0 394 286 625q209 166 479 166t439 -170
q170 -170 170 -424t-133 -454q-63 -95 -156 -167q-208 -166 -478 -166zM1163 1448q-73 0 -73 76q0 36 28 64t64 28q35 0 54 -20t19 -56q-1 -36 -29 -64t-63 -28zM762 1524q0 36 30 64t63 28q34 0 54 -20q35 -36 17 -78t-46 -56t-53 -14t-45 20t-20 56z" />
    <glyph glyph-name="multiply" unicode="&#xd7;" horiz-adv-x="1032" 
d="M346 1090l295 -375l428 377l39 -50l-428 -374l295 -377l-49 -43l-295 377l-432 -381l-39 47l432 381l-295 377z" />
    <glyph glyph-name="Oslash" unicode="&#xd8;" horiz-adv-x="1546" 
d="M1491 754q0 242 -168 393l-815 -1004q131 -90 303 -90q317 1 517 231q78 90 121 207q42 118 42 263zM287 575q0 -236 164 -387l815 1004q-131 86 -299 86q-250 0 -430 -145q-121 -98 -185 -241t-65 -317zM203 565q0 394 286 625q209 166 492 166q188 0 338 -99l156 193
h84l2 -10l-185 -226q94 -82 148 -198t53 -249q0 -132 -35 -248q-71 -237 -254 -378q-209 -166 -489 -166q-195 0 -344 103l-146 -178h-86l-2 8l174 215q-192 171 -192 442z" />
    <glyph glyph-name="Ugrave" unicode="&#xd9;" horiz-adv-x="1357" 
d="M680 -25q-182 1 -293 93t-129 258q-10 70 16 223l138 782h80l-136 -780q-27 -154 -14 -225q20 -131 112 -203t238 -72q207 0 336 125t176 404l131 751h82l-133 -758q-29 -159 -78 -271t-137 -189q-149 -138 -389 -138zM721 1726l387 -231v-6l-23 -39h-6l-395 211l-2 6
l33 59h6z" />
    <glyph glyph-name="Uacute" unicode="&#xda;" horiz-adv-x="1357" 
d="M680 -25q-182 1 -293 93t-129 258q-10 70 16 223l138 782h80l-136 -780q-27 -154 -14 -225q20 -131 112 -203t238 -72q207 0 336 125t176 404l131 751h82l-133 -758q-29 -159 -78 -271t-137 -189q-149 -138 -389 -138zM1116 1729h6l29 -62l-2 -6l-395 -211h-6l-19 41v6z
" />
    <glyph glyph-name="Ucircumflex" unicode="&#xdb;" horiz-adv-x="1357" 
d="M680 -25q-182 1 -293 93t-129 258q-10 70 16 223l138 782h80l-136 -780q-27 -154 -14 -225q20 -131 112 -203t238 -72q207 0 336 125t176 404l131 751h82l-133 -758q-29 -159 -78 -271t-137 -189q-149 -138 -389 -138zM963 1686l249 -185l-2 -6l-36 -45h-7l-225 149
l-276 -149h-9l-20 45v6l313 185h13z" />
    <glyph glyph-name="Udieresis" unicode="&#xdc;" horiz-adv-x="1357" 
d="M680 -25q-182 1 -293 93t-129 258q-10 70 16 223l138 782h80l-136 -780q-27 -154 -14 -225q20 -131 112 -203t238 -72q207 0 336 125t176 404l131 751h82l-133 -758q-29 -159 -78 -271t-137 -189q-149 -138 -389 -138zM1012 1524q0 36 28 64t64 28q35 0 54 -20
q34 -37 16 -80q-18 -42 -46 -55t-53 -13t-44 20t-19 56zM777 1616q34 0 54 -20q35 -36 17 -78t-45 -56q-28 -14 -53 -14t-45 20q-21 20 -21 56t30 64t63 28z" />
    <glyph glyph-name="Yacute" unicode="&#xdd;" horiz-adv-x="1257" 
d="M328 1280q-31 0 -58 -18l-6 2l-18 55l2 8q41 29 88 29t75 -16t47 -45q19 -28 44 -78l272 -582l567 696h89l2 -6l-627 -764l-100 -561h-82l98 557l-297 633q-25 50 -45 70t-51 20zM1090 1729h6l28 -62l-2 -6l-395 -211h-6l-21 41v6z" />
    <glyph glyph-name="Thorn" unicode="&#xde;" horiz-adv-x="1136" 
d="M731 348q167 0 273 106t106 267q0 117 -71 189t-195 71h-391l-111 -633h389zM840 1055q170 0 262 -85t92 -235q0 -205 -134 -332t-358 -127h-374l-49 -276h-80l235 1331h80l-47 -276h373z" />
    <glyph glyph-name="germandbls" unicode="&#xdf;" horiz-adv-x="1089" 
d="M1071 424q0 -114 -46 -206q-46 -93 -124 -148q-121 -92 -313 -93q-92 0 -164 37v6l35 58h6q49 -31 135 -31q166 0 266 82q59 47 92 121t33 160q0 132 -82 204t-225 72h-55l10 64h53q92 0 168 40t121 110t45 147q0 152 -127 210q-61 29 -145 29q-146 0 -234 -85t-114 -236
l-170 -965h-78l172 969q33 184 144 285q112 102 280 102t259 -79t91 -204t-66 -217t-178 -133q102 -31 156 -108t55 -191z" />
    <glyph glyph-name="agrave" unicode="&#xe0;" horiz-adv-x="1071" 
d="M209 272q1 -106 73 -166t203 -59q131 0 257 89t153 235l20 116q-141 76 -311 76t-282 -77t-113 -214zM945 -25q-56 0 -81 41t-12 115l6 31q-153 -184 -405 -187q-145 0 -236 75q-90 75 -90 203t72 214q139 166 409 166q176 0 320 -76q30 165 30 223t-44 108
q-76 87 -257 88q-180 1 -342 -151h-8l-43 47v9q176 168 418 168q206 0 300 -116q52 -65 52 -139t-24 -210l-80 -447q-14 -92 41 -92q31 0 55 21l8 -3l10 -53l-4 -6q-39 -29 -95 -29zM864 1145l-375 246l-2 6l43 57h7l364 -264v-6l-29 -39h-8z" />
    <glyph glyph-name="aacute" unicode="&#xe1;" horiz-adv-x="1071" 
d="M209 272q1 -106 73 -166t203 -59q131 0 257 89t153 235l20 116q-141 76 -311 76t-282 -77t-113 -214zM945 -25q-56 0 -81 41t-12 115l6 31q-72 -90 -182 -138t-238 -48q-130 0 -221 74q-90 75 -90 203t72 214q139 166 409 166q176 0 320 -76q30 165 30 223t-44 108
q-76 87 -257 88q-180 1 -342 -151h-8l-43 47v9q176 168 418 168q205 0 301 -116q53 -65 53 -159q0 -53 -26 -190l-80 -447q-14 -92 41 -92q31 0 55 21l8 -3l10 -53l-4 -6q-39 -29 -95 -29zM567 1145h-6l-24 41v6l364 264h6l37 -59v-6z" />
    <glyph glyph-name="acircumflex" unicode="&#xe2;" horiz-adv-x="1071" 
d="M209 272q1 -106 73 -166t203 -59q131 0 257 89t153 235l20 116q-141 76 -311 76t-282 -77t-113 -214zM945 -25q-56 0 -81 41t-12 115l6 31q-72 -90 -182 -138t-238 -48q-130 0 -221 74q-90 75 -90 203t72 214q139 166 409 166q176 0 320 -76q30 165 30 223t-44 108
q-76 87 -257 88q-180 1 -342 -151h-8l-43 47v9q176 168 418 168q205 0 301 -116q53 -65 53 -159q0 -53 -26 -190l-80 -447q-14 -92 41 -92q31 0 55 21l8 -3l10 -53l-4 -6q-39 -29 -95 -29zM479 1145h-6l-29 45l2 6l304 184h16l235 -184v-6l-40 -45h-9l-211 147z" />
    <glyph glyph-name="atilde" unicode="&#xe3;" horiz-adv-x="1071" 
d="M209 272q1 -106 73 -166t203 -59q131 0 257 89t153 235l20 116q-141 76 -311 76t-282 -77t-113 -214zM945 -25q-56 0 -81 41t-12 115l6 31q-72 -90 -182 -138t-238 -48q-130 0 -221 74q-90 75 -90 203t72 214q139 166 409 166q176 0 320 -76q30 165 30 223t-44 108
q-76 87 -257 88q-180 1 -342 -151h-8l-43 47v9q176 168 418 168q205 0 301 -116q53 -65 53 -159q0 -53 -26 -190l-80 -447q-14 -92 41 -92q31 0 55 21l8 -3l10 -53l-4 -6q-39 -29 -95 -29zM582 1309q55 0 155 -36t167 -36t112 72h8l20 -56l-2 -6q-61 -82 -155 -82
q-61 0 -163 36t-164 36q-64 0 -109 -72h-7l-22 56v8q66 80 160 80z" />
    <glyph glyph-name="adieresis" unicode="&#xe4;" horiz-adv-x="1071" 
d="M209 272q1 -106 73 -166t178 -59q106 0 194 38q89 38 156 113t85 173l20 116q-141 76 -311 76t-282 -77t-113 -214zM945 -25q-56 0 -81 41t-12 115l6 31q-153 -184 -405 -187q-145 0 -236 75q-90 75 -90 203t72 214q139 166 409 166q176 0 320 -76q30 165 30 223t-44 108
q-76 87 -257 88q-180 1 -342 -151h-8l-43 47v9q176 168 418 168q206 0 300 -116q52 -65 52 -139t-24 -210l-80 -447q-14 -92 41 -92q31 0 55 21l8 -3l10 -53l-4 -6q-39 -29 -95 -29zM870 1145q-78 0 -77 68q1 41 29 69t62 29q34 -1 53 -21t19 -54t-28 -62q-30 -28 -58 -29z
M506 1220q0 34 29 62t61 29q32 -1 53 -21t21 -54t-30 -62t-63 -29q-33 0 -52 20q-19 21 -19 55z" />
    <glyph glyph-name="aring" unicode="&#xe5;" horiz-adv-x="1071" 
d="M209 272q1 -106 73 -166t203 -59q131 0 257 89t153 235l20 116q-141 76 -311 76t-282 -77t-113 -214zM945 -25q-56 0 -81 41t-12 115l6 31q-153 -184 -405 -187q-145 0 -236 75q-90 75 -90 203t72 214q139 166 409 166q176 0 320 -76q30 165 30 223t-44 108
q-76 87 -257 88q-180 1 -342 -151h-8l-43 47v9q176 168 418 168q206 0 300 -116q52 -65 52 -139t-24 -210l-80 -447q-14 -92 41 -92q31 0 55 21l8 -3l10 -53l-4 -6q-39 -29 -95 -29zM729 1192q74 0 108 68q15 30 15 64t-26 62t-75 27q-48 0 -81 -39t-33 -83q0 -43 26 -71
t66 -28zM915 1320q0 -70 -57 -130q-58 -60 -130 -60t-116 42q-43 42 -43 94q0 92 59 149q60 57 154 59q52 0 92 -41q40 -42 41 -113z" />
    <glyph glyph-name="ae" unicode="&#xe6;" horiz-adv-x="1882" 
d="M485 47q131 0 257 89t153 235l20 116q-137 76 -307 76t-284.5 -77.5t-114.5 -213.5q0 -106 72.5 -165.5t203.5 -59.5zM1488 977q-175 0 -307 -111t-173 -313h811q4 31 4 63q10 158 -75 259.5t-260 101.5zM1362 47q113 0 221.5 49t181.5 135h9l43 -43v-6
q-112 -130 -296 -183q-83 -24 -165 -24q-156 0 -268.5 80t-153.5 219q-53 -133 -185.5 -216t-286 -83t-244.5 75t-91 204q0 162 127 270.5t331.5 108.5t340.5 -76q31 154 30 211q0 104 -85 156.5t-201 52.5q-197 0 -357 -150h-8l-43 45l2 9q176 168 420 168
q139 0 237.5 -61.5t110.5 -182.5q47 72 109 121q150 123 350.5 123t307 -116t106.5 -296q-1 -70 -19 -152h-887q-20 -197 79.5 -317.5t283.5 -120.5z" />
    <glyph glyph-name="ccedilla" unicode="&#xe7;" horiz-adv-x="1089" 
d="M776 1049q131 0 234.5 -55.5t154.5 -151.5v-8l-55 -37h-8q-47 86 -135 133t-201 47q-182 0 -320 -113q-92 -76 -143 -189.5t-51 -240.5q0 -176 102.5 -281.5t272.5 -105.5q221 0 372 172h9l41 -41v-6q-162 -184 -404 -197l-37 -65l2 -4q128 16 180 -50q26 -32 25 -81
q0 -78 -63.5 -125t-170 -47t-171.5 75v9l45 41h6q51 -61 121.5 -61.5t112.5 26t42 82t-62.5 73t-150.5 -17.5l-30 23l69 124q-178 16 -285.5 141.5t-107.5 311.5q0 143 63.5 274.5t174.5 217.5q161 127 368 127z" />
    <glyph glyph-name="egrave" unicode="&#xe8;" horiz-adv-x="1140" 
d="M744.5 977q-175.5 0 -302.5 -109q-137 -113 -178 -315h811q27 206 -64 315t-266.5 109zM618 47q113 0 221.5 49t184.5 135h6l43 -43v-6q-86 -98 -210 -152.5t-251 -54.5q-195 0 -318.5 122t-123.5 327q0 140 60 276t167 226q150 123 351 123t308 -116t107 -296
q0 -70 -20 -152h-887q-20 -197 80 -317.5t282 -120.5zM930 1145l-377 246v6l41 57h6l365 -264v-6l-29 -39h-6z" />
    <glyph glyph-name="eacute" unicode="&#xe9;" horiz-adv-x="1140" 
d="M744.5 977q-175.5 0 -302.5 -109q-137 -113 -176 -315h809q27 206 -64 315t-266.5 109zM618 47q113 0 221.5 49t184.5 135h6l43 -43v-6q-86 -98 -210 -152.5t-251 -54.5q-195 0 -318.5 122t-123.5 327q0 143 61.5 279.5t165.5 222.5q150 123 352 123t308 -116t106 -296
q0 -70 -20 -152h-887q-20 -197 80 -317.5t282 -120.5zM633 1145h-6l-25 41v6l365 264h6l37 -59v-6z" />
    <glyph glyph-name="ecircumflex" unicode="&#xea;" horiz-adv-x="1140" 
d="M744.5 977q-175.5 0 -302.5 -109q-137 -113 -176 -315h809q27 206 -64 315t-266.5 109zM618 47q113 0 221.5 49t184.5 135h6l43 -43v-6q-86 -98 -210 -152.5t-251 -54.5q-195 0 -318.5 122t-123.5 327q0 143 61.5 279.5t165.5 222.5q150 123 352 123t308 -116t106 -296
q0 -70 -20 -152h-887q-20 -197 80 -317.5t282 -120.5zM545 1145h-6l-29 45v6l303 184h18l236 -184l-2 -6l-41 -45h-6l-213 147z" />
    <glyph glyph-name="edieresis" unicode="&#xeb;" horiz-adv-x="1140" 
d="M744.5 977q-175.5 0 -302.5 -109q-137 -113 -178 -315h811q27 206 -64 315t-266.5 109zM618 47q113 0 221.5 49t184.5 135h6l43 -43v-6q-86 -98 -210 -152.5t-251 -54.5q-195 0 -318.5 122t-123.5 324q0 203 108 367q171 262 474 261q197 0 304 -116t107 -296
q0 -70 -20 -152h-887q-20 -197 80 -317.5t282 -120.5zM936 1145q-78 0 -78 68q0 41 28.5 69.5t61.5 28.5t53.5 -20.5t20.5 -54.5t-29 -62.5t-57 -28.5zM642 1145q-34 0 -53.5 20.5t-19.5 54.5t29 62.5t63 28.5t54 -20.5t20 -54.5t-29.5 -62.5t-63.5 -28.5z" />
    <glyph glyph-name="igrave" unicode="&#xec;" horiz-adv-x="415" 
d="M274 -25q-54 0 -83 39q-28 39 -15 109l158 901h78l-158 -895q-14 -84 43 -84q31 0 53 18l8 -2l11 -51l-4 -6q-37 -29 -91 -29zM78 1454l364 -264v-6l-28 -39h-6l-377 246v6l41 57h6z" />
    <glyph glyph-name="iacute" unicode="&#xed;" horiz-adv-x="415" 
d="M274 -25q-54 0 -83 39q-28 39 -15 109l158 901h78l-158 -895q-14 -84 43 -84q31 0 53 18l8 -2l11 -51l-4 -6q-37 -29 -91 -29zM674 1456h8l37 -59l-2 -6l-375 -246h-6l-25 41v6z" />
    <glyph glyph-name="icircumflex" unicode="&#xee;" horiz-adv-x="415" 
d="M274 -25q-54 0 -83 39q-28 39 -15 109l158 901h78l-158 -895q-14 -84 43 -84q31 0 53 18l8 -2l11 -51l-4 -6q-37 -29 -91 -29zM438 1380l238 -184l-2 -6l-41 -45h-6l-213 147l-262 -147h-5l-28 45v6l303 184h16z" />
    <glyph glyph-name="idieresis" unicode="&#xef;" horiz-adv-x="415" 
d="M274 -25q-54 0 -83 39q-28 39 -15 109l158 901h78l-158 -895q-14 -84 43 -84q31 0 53 18l8 -2l11 -51l-4 -6q-37 -29 -91 -29zM544 1145q-78 0 -79 80q0 29 29 57q28 28 62 29q34 -1 54 -21t20 -54t-28 -62q-30 -28 -58 -29zM270 1311q34 -1 54 -21t20 -55t-31 -62
q-31 -28 -63 -28q-33 0 -52 20q-20 21 -20 55t29 62t63 29z" />
    <glyph glyph-name="eth" unicode="&#xf0;" horiz-adv-x="1105" 
d="M1026 536q0 142 -93 238t-245 96q-188 0 -318 -140t-130 -314t93 -271q93 -96 233 -96t243 65q217 139 217 422zM567 -25q-182 0 -295 116q-112 116 -112 293t96 322q47 71 113 121q147 115 326 115t282 -117q-41 137 -113 273l-235 -86l-4 8l10 57l199 72
q-59 100 -129 194v9l55 39h8q80 -104 141 -215l271 96l6 -4l-10 -60l-236 -84q176 -326 168 -596q-10 -238 -164 -396t-377 -157z" />
    <glyph glyph-name="ntilde" unicode="&#xf1;" horiz-adv-x="1159" 
d="M786 1049q166 0 260.5 -92.5t90.5 -241.5q0 -35 -29 -193l-92 -522h-78l92 522q27 150 27 189q2 117 -74 191.5t-217 74.5t-252 -95.5t-141 -236.5l-113 -645h-78l156 885q16 94 -41 94q-27 0 -55 -21l-6 3l-11 53l2 6q39 29 83 29q44 -1 68 -17q54 -36 38 -131l-6 -43
q66 90 162.5 140.5t213.5 50.5zM657 1309q57 0 157.5 -36t167.5 -36t112 72h6l20 -56v-6q-61 -82 -155 -82q-51 0 -107.5 17.5t-112 36t-100.5 18.5q-72 0 -117 -72h-6l-24 56l2 8q63 80 157 80z" />
    <glyph glyph-name="ograve" unicode="&#xf2;" horiz-adv-x="1220" 
d="M635 47q217 0 367 154t149 387q0 168 -109.5 278.5t-282.5 110.5t-310 -109q-92 -76 -144.5 -189.5t-52.5 -242.5q0 -168 107.5 -278.5t275.5 -110.5zM623 -25q-197 0 -324 129t-127 322q0 152 63.5 284t174.5 218q158 121 361.5 121t332.5 -129t129 -324
q0 -131 -50 -250t-141 -205q-169 -166 -419 -166zM627 1454l364 -264v-6l-28 -39h-7l-376 246v6l41 57h6z" />
    <glyph glyph-name="oacute" unicode="&#xf3;" horiz-adv-x="1220" 
d="M635 47q217 0 367 154t149 387q0 168 -109.5 278.5t-282.5 110.5t-310 -111q-92 -74 -144.5 -187.5t-52.5 -242.5q0 -168 107.5 -278.5t275.5 -110.5zM623 -25q-197 0 -324 129t-127 322q0 152 63.5 284t174.5 218q158 121 361.5 121t332.5 -129t129 -324
q0 -131 -50 -250t-141 -205q-169 -166 -419 -166zM993 1456h6l37 -59l-2 -6l-375 -246h-6l-24 41v6z" />
    <glyph glyph-name="ocircumflex" unicode="&#xf4;" horiz-adv-x="1220" 
d="M635 47q217 0 367 154t149 387q0 168 -109.5 278.5t-282.5 110.5t-310 -111q-125 -96 -173 -263q-24 -81 -24 -167q0 -168 107.5 -278.5t275.5 -110.5zM623 -25q-197 0 -324 129t-127 322q0 152 63.5 283t174.5 219q158 121 361.5 121t332.5 -129t129 -324
q0 -131 -50 -250t-141 -205q-169 -166 -419 -166zM858 1380l236 -184l-2 -6l-41 -45h-7l-213 147l-262 -147h-4l-28 45v6l303 184h18z" />
    <glyph glyph-name="otilde" unicode="&#xf5;" horiz-adv-x="1220" 
d="M635 47q217 0 362 148q72 74 113 177t41 216q0 168 -109.5 278.5t-282.5 110.5t-310 -111q-92 -74 -144.5 -187.5t-52.5 -242.5q0 -168 107.5 -278.5t275.5 -110.5zM623 -25q-197 0 -324 129t-127 322q0 152 63.5 284t174.5 218q158 121 362 121t332.5 -129t128.5 -324
q0 -131 -50 -250t-141 -205q-169 -166 -419 -166zM672 1309q57 0 157.5 -36t166.5 -36t112 72h6l21 -56v-6q-63 -82 -158 -82q-59 0 -161.5 36t-165.5 36t-107 -72h-6l-25 56l2 8q64 80 158 80z" />
    <glyph glyph-name="odieresis" unicode="&#xf6;" horiz-adv-x="1220" 
d="M635 47q217 0 366.5 154.5t149.5 386.5q0 168 -109.5 278.5t-282.5 110.5t-310 -111q-92 -74 -144.5 -187.5t-52.5 -242.5q0 -168 107.5 -278.5t275.5 -110.5zM623 -25q-197 0 -325 129t-128 322q0 152 64.5 284t175.5 218q158 121 361.5 121t332.5 -129t129 -324
q0 -131 -50 -250t-141 -205q-169 -166 -419 -166zM960.5 1145q-28.5 0 -44.5 9q-34 19 -33.5 59.5t29 69t62.5 28.5t54.5 -20.5t20.5 -54.5t-30 -62.5t-58.5 -28.5zM669 1145q-34 0 -53.5 20.5t-19.5 54.5t28.5 62.5t62.5 28.5t54.5 -20.5t20.5 -54.5t-29.5 -62.5
t-63.5 -28.5z" />
    <glyph glyph-name="divide" unicode="&#xf7;" horiz-adv-x="1064" 
d="M596 367q32 -1 53 -21t21 -54t-29 -62t-62 -29t-53 21t-20 56t29 61q29 28 61 28zM250 649h797l-11 -65h-798zM786 950q0 -34 -28 -64q-28 -28 -62 -28q-33 0 -53 20t-20 55q1 35 29 63t62 28t53 -20t19 -54z" />
    <glyph glyph-name="oslash" unicode="&#xf8;" horiz-adv-x="1220" 
d="M1151 588q0 168 -109 276l-632 -747q96 -70 225 -70q217 1 362 148q72 74 113 177t41 216zM252 436q0 -166 104 -276l635 749q-98 68 -225 68q-180 0 -312 -106q-202 -162 -202 -435zM1233 596q0 -131 -50 -250t-139 -205q-172 -166 -421 -166q-152 0 -267 80l-125 -149
h-81l-5 6l160 186q-133 129 -133 328q0 152 63.5 284t174.5 218q158 121 368 121q150 0 264 -78l150 174h80l2 -6l-178 -211q137 -131 137 -332z" />
    <glyph glyph-name="ugrave" unicode="&#xf9;" horiz-adv-x="1138" 
d="M1001 -25q-54 0 -81 39t-15 109l6 37q-63 -86 -155 -135t-203 -50q-168 1 -261 93t-87 245q0 45 24 179l97 532h77l-96 -537q-20 -127 -22 -176q-1 -117 73 -191t216 -73q142 0 246 99q103 99 132 255l109 623h78l-158 -895q-14 -84 43 -84q28 1 53 21l8 -3l11 -53l-4 -6
q-37 -29 -91 -29zM893 1145l-377 246v6l41 57h6l365 -264v-6l-29 -39h-6z" />
    <glyph glyph-name="uacute" unicode="&#xfa;" horiz-adv-x="1138" 
d="M1001 -25q-54 0 -81 39t-15 109l6 37q-63 -86 -155 -135t-203 -50q-168 1 -261 93t-87 245q0 45 24 179l97 532h77l-96 -537q-20 -127 -22 -176q-1 -117 73 -191t216 -73q142 0 246 99q103 99 132 255l109 623h78l-158 -895q-14 -84 43 -84q28 1 53 21l8 -3l11 -53l-4 -6
q-37 -29 -91 -29zM596 1145h-6l-25 41v6l365 264h6l37 -59l-2 -6z" />
    <glyph glyph-name="ucircumflex" unicode="&#xfb;" horiz-adv-x="1138" 
d="M1001 -25q-54 0 -81 39t-15 109l6 37q-63 -86 -155 -135t-203 -50q-168 1 -261 93t-87 245q2 45 24 179l97 532h77l-96 -537q-20 -127 -22 -176q-1 -117 73 -191t216 -73q142 0 246 99q103 99 132 255l109 623h78l-158 -895q-14 -84 43 -84q28 1 53 21l8 -3l11 -53l-4 -6
q-37 -29 -91 -29zM506 1145h-4l-29 45v6l303 184h19l235 -184l-2 -6l-41 -45h-6l-213 147z" />
    <glyph glyph-name="udieresis" unicode="&#xfc;" horiz-adv-x="1138" 
d="M1001 -25q-54 0 -81 39t-15 109l6 37q-63 -86 -155 -135t-203 -50q-168 1 -261 93t-87 245q0 45 24 179l97 532h77l-96 -537q-20 -127 -22 -176q-1 -117 73 -191t216 -73q142 0 246 99q103 99 132 255l109 623h78l-158 -895q-14 -84 43 -84q28 1 53 21l8 -3l11 -53l-4 -6
q-37 -29 -91 -29zM900 1145q-80 0 -81 80q0 29 30 57q31 28 63 29q32 -1 52 -21t21 -54q-1 -34 -29 -62t-56 -29zM624 1311q34 -1 54 -21t20 -54t-30 -62t-63 -29q-34 0 -53 20q-20 21 -20 55t29 62t63 29z" />
    <glyph glyph-name="yacute" unicode="&#xfd;" horiz-adv-x="1075" 
d="M278 1049q60 0 88 -35t44 -103l192 -774l535 887h73l4 -8l-686 -1139q-111 -184 -268 -184q-63 0 -113 37l-2 8l35 53l8 2q37 -31 86 -31q102 0 185 136l86 141l-207 823q-16 68 -32 92t-44 25q-27 0 -53 -21l-8 3l-13 53q30 35 90 35zM594 1145h-6l-25 41v6l363 264h8
l37 -59l-2 -6z" />
    <glyph glyph-name="thorn" unicode="&#xfe;" horiz-adv-x="1239" 
d="M1167 590q0 166 -98 276t-252 111q-154 0 -272 -82q-147 -96 -205 -277q-29 -90 -29 -190q-1 -170 101 -275t260 -106q207 1 346 148q72 74 110 178q39 104 39 217zM825 1049q189 0 307 -126t117 -319q0 -137 -49 -260t-137 -209q-160 -160 -404 -160q-135 0 -235 70
t-145 188l-95 -540h-80l267 1499q16 94 -43 94q-27 0 -54 -20l-8 2l-10 53l4 6q37 29 92 29t81 -39t16 -109l-70 -385q174 226 446 226z" />
    <glyph glyph-name="ydieresis" unicode="&#xff;" horiz-adv-x="1075" 
d="M278 1049q60 0 88 -35t44 -103l192 -774l535 887h73l4 -8l-686 -1139q-111 -184 -268 -184q-63 0 -113 37l-2 8l35 53l8 2q37 -31 86 -31q102 0 185 136l86 141l-207 823q-16 68 -32 92t-44 25q-27 0 -53 -21l-8 3l-13 53q30 35 90 35zM896 1145q-78 0 -79 80q0 29 29 57
q28 28 62 29q34 -1 54 -21t21 -54t-29 -62t-58 -29zM622 1311q34 -1 54 -21t20 -54t-30 -62t-63 -29q-34 0 -53 20q-20 21 -20 55t29 62t63 29z" />
    <glyph glyph-name="Amacron" unicode="&#x100;" horiz-adv-x="1327" 
d="M379 403h647l-178 799zM1226 -25q-52 0 -86 33t-55 129l-45 193h-704l-193 -330h-86l785 1331h57l266 -1175q11 -57 29 -81t49 -24t57 19l9 -2l10 -56l-2 -8q-39 -29 -91 -29zM1176 1540l-13 -63h-540l12 63h541z" />
    <glyph glyph-name="amacron" unicode="&#x101;" horiz-adv-x="1071" 
d="M209 272q1 -106 73 -166t203 -59q131 0 257 89t153 235l20 116q-141 76 -311 76t-282 -77t-113 -214zM945 -25q-56 0 -81 41t-12 115l6 31q-153 -184 -405 -187q-145 0 -236 75q-90 75 -90 203t72 214q139 166 409 166q176 0 320 -76q30 165 30 223t-44 108
q-76 87 -257 88q-180 1 -342 -151h-8l-43 47v9q176 168 418 168q206 0 300 -116q52 -65 52 -139t-24 -210l-80 -447q-14 -92 41 -92q31 0 55 21l8 -3l10 -53l-4 -6q-39 -29 -95 -29zM1001 1255l-10 -65h-532l10 65h532z" />
    <glyph glyph-name="Abreve" unicode="&#x102;" horiz-adv-x="1327" 
d="M379 403h647l-180 799zM1226 -25q-52 0 -86 33t-55 129l-45 193h-704l-193 -330h-86l783 1331h59l266 -1175q11 -57 29 -81t49 -24t57 19l9 -2l10 -56l-2 -8q-39 -29 -91 -29zM892 1448q-103 0 -166 68q-62 68 -56 176h69q-2 -82 43 -131t121 -49t137 48q61 50 88 132h70
q-33 -108 -118 -176t-188 -68z" />
    <glyph glyph-name="abreve" unicode="&#x103;" horiz-adv-x="1071" 
d="M209 272q1 -106 73 -166t178 -59q106 0 194 38q89 38 156 113t85 173l20 116q-141 76 -311 76t-282 -77t-113 -214zM945 -25q-56 0 -81 41t-12 115l6 31q-72 -90 -182 -138t-238 -48q-130 0 -221 74q-90 75 -90 203t72 214q139 166 409 166q176 0 320 -76q30 165 30 223
t-44 108q-76 87 -257 88q-180 1 -342 -151h-8l-43 47v9q176 168 418 168q205 0 301 -116q53 -65 53 -159q0 -53 -26 -190l-80 -447q-14 -92 41 -92q31 0 55 21l8 -3l10 -53l-4 -6q-39 -29 -95 -29zM702 1145q-87 0 -150 67q-62 68 -56 177h69q-2 -81 44 -131t120 -50t135 50
t90 131h70q-48 -151 -173 -213q-62 -31 -149 -31z" />
    <glyph glyph-name="Aogonek" unicode="&#x104;" horiz-adv-x="1327" 
d="M379 403h647l-180 799zM1079 -246q0 -42 26 -64q27 -22 77 -23t104 46h8l23 -41l-2 -8q-80 -57 -151 -57q-70 0 -112 36q-42 37 -42 105t51 123t135 109q-35 6 -55 28q-35 33 -56 129l-45 193h-704l-193 -330h-86l785 1331h57l266 -1175q11 -57 29 -81t49 -24t57 19l9 -2
l10 -56l-2 -8q-2 0 -10 -6t-39 -29t-48 -35t-43 -31t-40 -35t-36 -43q-22 -28 -22 -71z" />
    <glyph glyph-name="aogonek" unicode="&#x105;" horiz-adv-x="1071" 
d="M604 563q-170 0 -282 -77t-113 -214q1 -106 73 -166t199 -59q127 0 257 87q129 87 157 237l20 116q-141 76 -311 76zM803 -246q0 -84 92 -88q61 0 115 45h8l22 -39l-2 -8q-78 -59 -150 -59t-113 36q-42 37 -42 105t51 124t136 110q-90 18 -68 151l6 31q-72 -90 -182 -138
t-238 -48q-130 0 -221 74q-90 75 -90 203t72 214q139 166 409 166q176 0 320 -76q30 165 30 223t-44 108q-76 87 -257 88q-180 1 -342 -151h-8l-43 47v9q176 168 418 168q205 0 301 -116q53 -65 53 -159q0 -53 -26 -190l-80 -447q-14 -92 41 -92q31 0 55 21l8 -3l10 -53
q-5 -7 -51 -40q-82 -59 -112 -85q-78 -67 -78 -131z" />
    <glyph glyph-name="Cacute" unicode="&#x106;" horiz-adv-x="1368" 
d="M780 -25q-254 0 -414.5 168t-160.5 420q0 184 80 348t217 275q215 170 491 170q160 0 289 -66.5t203 -187.5l-2 -8l-60 -41h-8q-66 109 -178.5 167t-253.5 58q-250 0 -436 -156q-163 -128 -227 -338q-32 -102 -31 -211q0 -225 139 -372.5t360 -147.5q272 0 490 215h8
l47 -47v-6q-111 -115 -255 -177.5t-298 -62.5zM1204 1729h6l29 -62l-2 -6l-393 -211h-6l-21 41v6z" />
    <glyph glyph-name="cacute" unicode="&#x107;" horiz-adv-x="1089" 
d="M614 -25q-199 0 -321.5 128t-122.5 327q0 143 63.5 274.5t174.5 217.5q162 127 354 127t314 -98q58 -46 89 -109v-8l-55 -37h-8q-62 115 -196 159q-64 22 -140 21q-270 -1 -423 -231q-91 -138 -91 -313t102.5 -280.5t272.5 -105.5q221 0 372 172h9l41 -41v-6
q-84 -94 -197 -145.5t-238 -51.5zM989 1456h8l37 -59l-2 -6l-375 -246h-6l-24 41v6z" />
    <glyph glyph-name="Cdotaccent" unicode="&#x10a;" horiz-adv-x="1368" 
d="M780 -25q-254 0 -414.5 168t-160.5 420q0 184 80 348t217 275q215 170 491 170q160 0 289 -66.5t205 -187.5l-2 -8l-62 -41h-8q-66 109 -178.5 167t-253.5 58q-250 0 -436 -156q-121 -96 -189.5 -240.5t-68.5 -308.5q0 -225 139 -372.5t360 -147.5q133 0 263.5 58.5
t226.5 156.5h8l47 -47v-6q-111 -115 -255 -177.5t-298 -62.5zM1007 1448q-26 0 -46.5 21.5t-20.5 54.5t29.5 60.5t62.5 27.5t53.5 -20.5t20.5 -47.5t-14.5 -48t-36.5 -34.5t-48 -13.5z" />
    <glyph glyph-name="cdotaccent" unicode="&#x10b;" horiz-adv-x="1089" 
d="M614 -25q-199 0 -321.5 128t-122.5 327q0 143 63.5 274.5t174.5 217.5q162 127 368 127q131 0 234.5 -55.5t154.5 -151.5v-8l-55 -37h-8q-47 86 -135 133t-201 47q-270 -1 -423 -231q-91 -138 -91 -313t102.5 -280.5t272.5 -105.5q221 0 372 172h9l41 -41v-6
q-84 -94 -197 -145.5t-238 -51.5zM803 1145q-27 0 -46.5 20.5t-19.5 54.5t29 62.5t62.5 28.5t54 -20.5t20.5 -48.5t-14.5 -50.5t-36.5 -34.5t-49 -12z" />
    <glyph glyph-name="Ccaron" unicode="&#x10c;" horiz-adv-x="1368" 
d="M780 -25q-254 0 -414.5 168t-160.5 420q0 184 80 348t217 275q215 170 491 170q160 0 289 -66.5t203 -187.5l-2 -8l-60 -41h-8q-66 109 -178.5 167t-253.5 58q-250 0 -436 -156q-163 -128 -227 -338q-32 -102 -31 -211q0 -225 139 -372.5t360 -147.5q272 0 490 215h8
l47 -47v-6q-111 -115 -255 -177.5t-298 -62.5zM1305 1686l24 -46l-2 -6l-315 -184h-11l-249 184l2 6l37 46h6l225 -150l276 150h7z" />
    <glyph glyph-name="ccaron" unicode="&#x10d;" horiz-adv-x="1089" 
d="M614 -25q-199 0 -321.5 128t-122.5 327q0 143 63.5 274.5t174.5 217.5q162 127 368 127q131 0 234.5 -55.5t154.5 -151.5v-8l-55 -37h-8q-47 86 -135 133t-201 47q-182 0 -320 -113q-92 -76 -143 -189.5t-51 -240.5q0 -176 102.5 -281.5t272.5 -105.5q221 0 372 172h9
l41 -41v-6q-84 -94 -197 -145.5t-238 -51.5zM1090 1380l26 -43l-2 -6l-301 -186h-16l-238 186l2 6l43 43h4l211 -147l264 147h7z" />
    <glyph glyph-name="Dcaron" unicode="&#x10e;" horiz-adv-x="1400" 
d="M1133 233q102 97 158 237t57 308q0 244 -140 371q-119 109 -342 108h-364l-209 -1183h366q298 -1 474 159zM1430 791q0 -189 -66 -349t-184 -264q-207 -178 -537 -178h-444l235 1331h445q254 0 391 -125q160 -143 160 -415zM885 1450h-11l-249 184l2 6l37 46h6l225 -150
l276 150h7l22 -46v-6z" />
    <glyph glyph-name="dcaron" unicode="&#x10f;" horiz-adv-x="1280" 
d="M1108 582q0 127 -46 214t-128 134t-186 47q-248 0 -390 -198q-106 -148 -106 -328.5t100.5 -292t266 -111.5t284.5 90q94 76 149.5 197t55.5 248zM172 424q0 150 58.5 281t160.5 217q154 127 369 127q135 0 236.5 -72t146.5 -193l104 598l72 13l8 -4l-221 -1254
q-16 -92 43 -92q29 0 51 18l8 -2l11 -51q-29 -35 -88.5 -35t-86 40t-16.5 108l14 72q-164 -220 -444 -220q-190 0 -308 128t-118 321zM1606 1438l4 -6l-148 -338l-8 -7h-45l-4 7l119 338l8 6h74z" />
    <glyph glyph-name="Dcroat" unicode="&#x110;" horiz-adv-x="1409" 
d="M1139 233q213 197 215 545q0 244 -140 371q-119 109 -342 108h-364l-96 -548h405l-12 -74h-406l-100 -561h367q297 -1 473 159zM1438 791q0 -189 -66 -349t-186 -264q-205 -178 -535 -178h-446l112 635h-176l15 74h174l110 622h447q252 0 389 -125q162 -143 162 -415z
" />
    <glyph glyph-name="dcroat" unicode="&#x111;" horiz-adv-x="1259" 
d="M1108 610.5q0 155.5 -100.5 261t-270.5 105.5t-301 -113q-84 -74 -134 -185.5t-50 -238.5q0 -170 99.5 -281.5t266 -111.5t285.5 90q90 72 147.5 195t57.5 278.5zM172 430q0 143 58.5 274.5t160.5 217.5q157 127 355 127q198 -1 313 -127q53 -58 84 -138l67 381h-319
l12 66h318l26 151l72 13l8 -4l-29 -160h123l-12 -66h-121l-182 -1028q-16 -92 43 -92q29 0 51 18l8 -2l11 -51q-29 -35 -88.5 -35t-86 40t-16.5 108l14 72q-164 -220 -436 -220q-201 0 -317.5 128t-116.5 327z" />
    <glyph glyph-name="Emacron" unicode="&#x112;" horiz-adv-x="1079" 
d="M1217 1257h-715l-96 -548h561l-13 -72h-563l-98 -563h715l-13 -74h-796l235 1331h797zM596 1540h541l-13 -63h-540z" />
    <glyph glyph-name="emacron" unicode="&#x113;" horiz-adv-x="1140" 
d="M744.5 977q-175.5 0 -302.5 -109q-137 -113 -178 -315h811q27 206 -64 315t-266.5 109zM618 47q113 0 221.5 49t184.5 135h6l43 -43v-6q-86 -98 -210 -152.5t-251 -54.5q-195 0 -318.5 122t-123.5 327q0 143 61.5 279.5t165.5 222.5q150 123 351 123t308 -116t107 -296
q0 -70 -20 -152h-887q-20 -197 80 -317.5t282 -120.5zM1067 1255l-12 -65h-531l11 65h532z" />
    <glyph glyph-name="Edotaccent" unicode="&#x116;" horiz-adv-x="1079" 
d="M1217 1257h-715l-96 -548h561l-13 -72h-563l-98 -563h715l-13 -74h-796l235 1331h797zM847 1448q-26 0 -46.5 21.5t-20.5 54.5t30 60.5t63 27.5t53 -20.5t20 -47.5t-14 -48t-36.5 -34.5t-48.5 -13.5z" />
    <glyph glyph-name="edotaccent" unicode="&#x117;" horiz-adv-x="1140" 
d="M744.5 977q-175.5 0 -302.5 -109q-137 -113 -178 -315h811q27 206 -64 315t-266.5 109zM618 47q113 0 221.5 49t184.5 135h6l43 -43v-6q-86 -98 -210 -152.5t-251 -54.5q-195 0 -318.5 122t-123.5 324q0 203 108 367q171 262 474 261q197 0 304 -116t107 -296
q0 -70 -20 -152h-887q-20 -197 80 -317.5t282 -120.5zM779 1145q-28 0 -47 20.5t-19 54.5t28.5 62.5t62.5 28.5t54.5 -20.5t20.5 -48.5t-13.5 -50.5t-36 -34.5t-50.5 -12z" />
    <glyph glyph-name="Eogonek" unicode="&#x118;" horiz-adv-x="1079" 
d="M758 -257q0 -36 25.5 -57.5t75.5 -22.5t106 46h6l22 -41l-2 -8q-78 -57 -148.5 -57t-112.5 35.5t-42 89.5q0 97 82 169.5t143 102.5h-714l235 1331h797l-14 -74h-715l-96 -548h561l-13 -72h-563l-98 -563h715l-13 -74q-102 -68 -126.5 -89.5t-56.5 -51t-43 -55t-11 -61.5
z" />
    <glyph glyph-name="eogonek" unicode="&#x119;" horiz-adv-x="1140" 
d="M744.5 977q-175.5 0 -302.5 -109q-137 -113 -178 -315h811q27 206 -64 315t-266.5 109zM557 -246q0 -84 92 -88q59 0 113 45h8l23 -39l-2 -8q-78 -59 -150 -59t-114 35.5t-42 104.5t52.5 125t136.5 110q-31 -4 -62 -5q-195 0 -318.5 122t-123.5 327q0 140 60 276t167 226
q150 123 351 123t308 -116t107 -296q0 -70 -20 -152h-887q-20 -197 80 -317.5t282 -120.5q113 0 221.5 49t184.5 135h6l43 -43v-6q-109 -127 -280 -178q-9 -8 -63 -46q-77 -55 -125 -102t-48 -102z" />
    <glyph glyph-name="Ecaron" unicode="&#x11a;" horiz-adv-x="1079" 
d="M1217 1257h-715l-96 -548h561l-13 -72h-563l-98 -563h715l-13 -74h-796l235 1331h797zM1145 1686l24 -46l-2 -6l-315 -184h-10l-250 184l2 6l37 46h6l225 -150l277 150h6z" />
    <glyph glyph-name="ecaron" unicode="&#x11b;" horiz-adv-x="1140" 
d="M744.5 977q-175.5 0 -302.5 -109q-137 -113 -178 -315h811q27 206 -64 315t-266.5 109zM618 47q113 0 221.5 49t184.5 135h6l43 -43v-6q-86 -98 -210 -152.5t-251 -54.5q-195 0 -318.5 122t-123.5 327q0 143 61.5 279.5t165.5 222.5q150 123 351 123t308 -116t107 -296
q0 -70 -20 -152h-887q-20 -197 80 -317.5t282 -120.5zM791 1145h-19l-237 186l2 6l43 43h6l211 -147l262 147h6l27 -43l-2 -6z" />
    <glyph glyph-name="Gbreve" unicode="&#x11e;" horiz-adv-x="1490" 
d="M981 1356q166 0 300 -69.5t206 -184.5l-2 -8l-64 -41h-6q-85 145 -261 199q-87 26 -187 26q-248 0 -428 -145q-121 -98 -185.5 -240.5t-64.5 -314.5q0 -225 146.5 -375t373.5 -150q166 0 303 72t226 200t116 289h-569l14 74h639l6 -8q0 -14 -2 -33q-43 -324 -280 -512
q-203 -160 -467 -160q-168 0 -304.5 78t-212 213t-75.5 314.5t76 340t213 269.5q207 166 489 166zM1013 1511q77 0 137 49.5t87 131.5h70q-33 -109 -118 -176.5t-188.5 -67.5t-166 67.5t-56.5 176.5h70q0 -82 44 -131.5t121 -49.5z" />
    <glyph glyph-name="gbreve" unicode="&#x11f;" horiz-adv-x="1191" 
d="M1047 661q0 129 -91.5 222.5t-253 93.5t-282.5 -103q-74 -63 -115 -157t-41 -197q0 -150 91 -243t237.5 -93t259.5 80q90 61 142.5 164.5t52.5 232.5zM1245 979q-59 0 -76 -92l-129 -733q-39 -223 -176 -343t-350 -120q-295 0 -405 225l2 8l49 41h10q43 -94 134 -148.5
t222 -54.5q182 0 294 105.5t143 288.5l28 155q-74 -92 -182.5 -145t-224.5 -53q-180 0 -290 112.5t-110 284.5t94 310q44 66 103 112q143 117 340 117q129 0 223 -62.5t137 -169.5l17 84q12 72 50 110t92 38t83 -29l2 -6l-27 -53h-8q-16 18 -45 18zM752 1145
q-106 0 -168 67.5t-58 176.5h70q0 -80 46 -130.5t120 -50.5t135 50.5t90 130.5h68q-41 -147 -172 -213q-61 -30 -131 -31z" />
    <glyph glyph-name="Gdotaccent" unicode="&#x120;" horiz-adv-x="1490" 
d="M981 1356q166 0 300 -69.5t206 -184.5l-2 -8l-64 -41h-6q-85 145 -261 199q-87 26 -187 26q-248 0 -428 -145q-250 -206 -250 -555q0 -225 146.5 -375t385 -150t415.5 157t218 404h-569l14 74h639l6 -8q0 -14 -2 -33q-43 -324 -280 -512q-203 -160 -463 -160t-428 170
t-168 420q0 195 76 355.5t213 269.5q207 166 489 166zM994 1448q-26 0 -46 21.5t-20 54.5t29.5 60.5t62.5 27.5t53.5 -20.5t20.5 -47.5t-14.5 -48t-37 -34.5t-48.5 -13.5z" />
    <glyph glyph-name="gdotaccent" unicode="&#x121;" horiz-adv-x="1191" 
d="M1047 661q0 129 -91.5 222.5t-253 93.5t-282.5 -103q-74 -63 -115 -157t-41 -197q0 -150 91 -243t237.5 -93t259.5 80q90 61 142.5 164.5t52.5 232.5zM1245 979q-59 0 -76 -92l-129 -733q-39 -223 -176 -343t-350 -120q-295 0 -405 225l2 8l49 41h10q43 -94 134 -148.5
t222 -54.5q182 0 294 105.5t143 288.5l28 155q-74 -92 -182.5 -145t-224.5 -53q-180 0 -290 112.5t-110 284.5t94 310q44 66 103 112q143 117 340 117q129 0 223 -62.5t137 -169.5l17 84q12 72 50 110t92 38t83 -29l2 -6l-27 -53h-8q-16 18 -45 18zM753 1145
q-34 0 -53.5 20.5t-19.5 54.5t28.5 62.5t62.5 28.5t55.5 -20.5t21.5 -54.5t-30.5 -62.5t-64.5 -28.5z" />
    <glyph glyph-name="Gcommaaccent" unicode="&#x122;" horiz-adv-x="1490" 
d="M776 -106l8 6h74l4 -6l-129 -291l-8 -6h-47l-4 6zM981 1356q166 0 300 -69.5t206 -184.5l-2 -8l-64 -41h-6q-59 106 -178 165.5t-270 59.5q-248 0 -428 -145q-121 -98 -185.5 -240.5t-64.5 -314.5q0 -225 146.5 -375t385 -150t415.5 157t218 404h-569l14 74h639l6 -8
q0 -14 -2 -33q-43 -324 -280 -512q-203 -160 -467 -160q-168 0 -304.5 78t-212.5 213q-76 134 -75 282q0 415 289 642q207 166 489 166z" />
    <glyph glyph-name="gcommaaccent" unicode="&#x123;" horiz-adv-x="1191" 
d="M1047 645q0 145 -91.5 238.5t-253 93.5t-277.5 -98q-117 -99 -151 -259q-10 -50 -10 -100q0 -150 91 -243t237.5 -93t263.5 82t167 232q24 72 24 147zM1245 979q-59 0 -76 -92l-129 -733q-39 -223 -176 -343t-350 -120q-295 0 -405 225l2 8l49 41h10q43 -94 134 -148.5
t222 -54.5q182 0 294 105.5t143 288.5l28 155q-74 -92 -182.5 -145t-224.5 -53q-180 0 -290 112.5t-110 286.5q0 123 53.5 235.5t143.5 184.5q143 117 340 117q129 0 223 -62.5t137 -169.5l17 84q12 72 50 110t92 38t83 -29l2 -6l-27 -53h-8q-16 18 -45 18zM786 1149h-75
l-2 6l129 291l8 6h47l2 -6l-100 -291z" />
    <glyph glyph-name="Hbar" unicode="&#x126;" horiz-adv-x="1415" 
d="M1262 709l43 239h-856l-43 -239h856zM1499 1012l-12 -64h-101l-167 -948h-82l112 637h-858l-110 -637h-82l168 948h-105l12 64h105l55 319h82l-57 -319h858l55 319h82l-55 -319h100z" />
    <glyph glyph-name="hbar" unicode="&#x127;" horiz-adv-x="1134" 
d="M764 1049q168 -1 260 -93t88 -241q0 -37 -27 -191l-94 -524h-78l95 530q25 139 24 181q2 117 -74 191t-215 75q-94 0 -180 -49t-142 -130t-75 -173l-110 -625h-78l202 1145h-137l13 63h135l30 174l72 13l8 -4l-32 -183h305l-13 -63h-303l-51 -289q68 90 166 142t211 51z
" />
    <glyph glyph-name="Itilde" unicode="&#x128;" horiz-adv-x="477" 
d="M434 1331h80l-235 -1331h-80zM367 1614q51 0 142 -38t151 -38t104 76h6l23 -55l-2 -7q-57 -84 -148 -84q-53 0 -146 37t-141 37q-70 0 -110 -74h-4l-25 56l2 6q58 84 148 84z" />
    <glyph glyph-name="itilde" unicode="&#x129;" horiz-adv-x="415" 
d="M274 -25q-54 0 -83 39q-28 39 -15 109l158 901h78l-158 -895q-14 -84 43 -84q31 0 53 18l8 -2l11 -51l-4 -6q-37 -29 -91 -29zM254 1309q58 0 158 -36t166 -36t112 72h6l21 -56v-6q-63 -82 -158 -82q-59 0 -161 36t-166 36q-62 0 -107 -72h-6l-25 56l2 8q64 80 158 80z
" />
    <glyph glyph-name="Imacron" unicode="&#x12a;" horiz-adv-x="477" 
d="M434 1331h80l-235 -1331h-80zM262 1540h488l-11 -63h-487z" />
    <glyph glyph-name="imacron" unicode="&#x12b;" horiz-adv-x="415" 
d="M274 -25q-54 0 -83 39q-28 39 -15 109l158 901h78l-158 -895q-14 -84 43 -84q31 0 53 18l8 -2l11 -51l-4 -6q-37 -29 -91 -29zM143 1255h533l-12 -65h-533z" />
    <glyph glyph-name="Iogonek" unicode="&#x12e;" horiz-adv-x="477" 
d="M43 -258q0 -36 26 -56q25 -22 75 -23t106 46h6l23 -41l-3 -8q-78 -57 -150 -57t-113 36q-42 36 -42 89q0 94 77 163q43 40 95 73q51 34 56 36l235 1331h80l-235 -1331q-9 -8 -63 -45t-70 -51t-49 -44q-32 -30 -43 -56t-11 -62z" />
    <glyph glyph-name="iogonek" unicode="&#x12f;" horiz-adv-x="415" 
d="M297 45q31 0 53 18l8 -2l11 -51q-6 -10 -49 -38q-42 -28 -57 -40t-41 -32q-95 -73 -95 -146q0 -83 92 -88q61 0 115 45h8l23 -39l-3 -8q-80 -59 -155 -59q-106 0 -138 79t20 157q32 48 68 76t87 63q-89 22 -68 143l158 901h78l-158 -895q-14 -84 43 -84zM322 1220
q0 34 28 62t69 29q40 0 59 -35q9 -16 9 -39t-13 -45q-27 -46 -83 -47q-31 0 -50 20q-19 21 -19 55z" />
    <glyph glyph-name="Idotaccent" unicode="&#x130;" horiz-adv-x="477" 
d="M434 1331h80l-235 -1331h-80zM575 1496q-31 -48 -75 -48q-45 0 -67 37q-9 16 -9 44q0 27 30 55t62 28t53 -20t21 -48q0 -27 -15 -48z" />
    <glyph glyph-name="dotlessi" unicode="&#x131;" horiz-adv-x="415" 
d="M274 -25q-54 0 -83 39q-28 39 -15 109l158 901h78l-158 -895q-14 -84 43 -84q31 0 53 18l8 -2l11 -51l-4 -6q-37 -29 -91 -29z" />
    <glyph glyph-name="IJ" unicode="&#x132;" horiz-adv-x="1406" 
d="M854 51q180 0 285 145q51 71 67 164l158 897h-438l14 74h520l-174 -975q-30 -176 -152 -278t-282 -103q-236 0 -326 199l2 8l60 43h8q78 -174 258 -174zM434 1331h80l-235 -1331h-80z" />
    <glyph glyph-name="ij" unicode="&#x133;" horiz-adv-x="808" 
d="M754 1024h77l-176 -995q-23 -131 -79 -205t-154 -131h-8l-23 55l2 8q80 46 123 104t62 165zM274 -25q-54 0 -83 39q-28 39 -15 109l158 901h78l-158 -895q-14 -84 43 -84q31 0 53 18l8 -2l11 -51l-4 -6q-37 -29 -91 -29zM835 1311q34 -1 54 -21t20 -54q1 -34 -29 -62
t-64 -29q-34 0 -53 20q-19 21 -19 55t28 62q29 28 63 29zM322 1220q0 34 28 62t63 29q34 -1 54 -21t20 -54q1 -34 -29 -62t-64 -29q-34 0 -53 20q-19 21 -19 55z" />
    <glyph glyph-name="Kcommaaccent" unicode="&#x136;" horiz-adv-x="1134" 
d="M590 -100h76l4 -6l-129 -291l-9 -6h-47l-4 6l103 291zM1057 -25q-101 0 -191 144l-334 520l-165 -150l-88 -489h-80l235 1331h80l-129 -731l801 731h96l2 -6l-688 -629l350 -544q66 -100 127 -101q30 1 57 19l7 -2l16 -56l-4 -8q-37 -29 -92 -29z" />
    <glyph glyph-name="kcommaaccent" unicode="&#x137;" horiz-adv-x="970" 
d="M471 -100h76l4 -6l-129 -291l-8 -6h-47l-5 6l103 291zM922 45q22 0 49 16l8 -2l10 -53q-21 -31 -76 -31t-91 29t-74 90l-261 426l-190 -170l-61 -350h-78l243 1382l72 13l8 -4l-166 -940l643 573h89l4 -6l-500 -445l272 -446q47 -82 99 -82z" />
    <glyph glyph-name="kgreenlandic" unicode="&#x138;" horiz-adv-x="970" 
d="M922 45q22 0 49 16l8 -2l10 -53q-21 -31 -76 -31t-91 29t-74 90l-259 424l-192 -172l-61 -346h-78l180 1024h78l-103 -575l645 575h89l4 -6l-500 -445l272 -446q47 -82 99 -82z" />
    <glyph glyph-name="Lacute" unicode="&#x139;" horiz-adv-x="962" 
d="M936 74l-14 -74h-723l235 1331h80l-221 -1257h643zM803 1729h6l29 -62l-2 -6l-394 -211h-6l-20 41v6z" />
    <glyph glyph-name="lacute" unicode="&#x13a;" horiz-adv-x="421" 
d="M280 -25q-54 0 -82 39t-16 109l224 1259l69 15l8 -6l-221 -1262q-16 -84 43 -84q29 0 53 21l7 -3l12 -53l-4 -6q-39 -29 -93 -29zM768 1731h6l29 -62l-2 -6l-395 -211h-7l-18 41v6z" />
    <glyph glyph-name="Lcommaaccent" unicode="&#x13b;" horiz-adv-x="962" 
d="M539 -106l8 6h74l4 -6l-129 -291l-9 -6h-47l-4 6zM936 74l-14 -74h-723l235 1331h80l-221 -1257h643z" />
    <glyph glyph-name="lcommaaccent" unicode="&#x13c;" horiz-adv-x="421" 
d="M221 -106l8 6h74l4 -6l-129 -291l-8 -6h-47l-4 6zM280 -25q-54 0 -82 39t-16 109l224 1259l69 15l8 -6l-221 -1262q-16 -84 43 -84q29 0 53 21l7 -3l12 -53l-4 -6q-39 -29 -93 -29z" />
    <glyph glyph-name="Lcaron" unicode="&#x13d;" horiz-adv-x="962" 
d="M936 74l-14 -74h-723l235 1331h80l-221 -1257h643zM825 1423l9 7h75l4 -7l-149 -338l-10 -8h-43l-2 8z" />
    <glyph glyph-name="lcaron" unicode="&#x13e;" horiz-adv-x="438" 
d="M280 -25q-54 0 -82 39t-16 109l224 1259l69 15l8 -6l-221 -1262q-16 -84 43 -84q29 0 53 21l7 -3l10 -53l-2 -6q-39 -29 -93 -29zM668 1432l8 6h76l2 -6l-148 -338l-8 -7h-45l-2 7z" />
    <glyph glyph-name="Ldot" unicode="&#x13f;" horiz-adv-x="976" 
d="M742 819q92 0 92 -85q0 -36 -31 -66.5t-68 -30.5t-60.5 22.5t-23.5 60.5t32.5 68.5t58.5 30.5zM936 74l-14 -74h-723l235 1331h80l-221 -1257h643z" />
    <glyph glyph-name="ldot" unicode="&#x140;" horiz-adv-x="440" 
d="M510 645q-37 0 -59.5 22.5t-22.5 60.5t33 68.5t70 30.5t58 -22.5t21 -59t-31.5 -68.5t-68.5 -32zM280 -25q-54 0 -82 39t-16 109l224 1259l69 15l8 -6l-221 -1262q-16 -84 43 -84q29 0 53 21l7 -3l12 -53l-4 -6q-39 -29 -93 -29z" />
    <glyph glyph-name="Lslash" unicode="&#x141;" horiz-adv-x="1007" 
d="M334 74h643l-12 -74h-725l92 528l-226 -106l-6 4l11 63l235 111l129 731h80l-121 -690l357 166l8 -4l-13 -64l-364 -170z" />
    <glyph glyph-name="lslash" unicode="&#x142;" horiz-adv-x="557" 
d="M389 45q29 0 53 21l7 -3l10 -53l-2 -6q-39 -29 -93 -29t-82 39t-16 109l94 532l-219 -106l-8 4l8 63l232 113l114 653l72 15l8 -6l-108 -619l205 98l8 -4l-10 -63l-218 -107l-100 -567q-14 -84 45 -84z" />
    <glyph glyph-name="Nacute" unicode="&#x143;" horiz-adv-x="1439" 
d="M1399 1331h80l-236 -1331h-53l-705 1180l-206 -1180h-80l235 1331h51l705 -1179zM1159 1729h8l29 -62l-2 -6l-395 -211h-6l-21 41v6z" />
    <glyph glyph-name="nacute" unicode="&#x144;" horiz-adv-x="1159" 
d="M786 1049q166 0 260.5 -92.5t90.5 -241.5q0 -35 -29 -193l-92 -522h-78l92 522q27 150 27 207.5t-32 117.5t-98.5 95t-158.5 35q-143 0 -254 -95.5t-141 -236.5l-113 -645h-78l156 885q16 94 -41 94q-27 0 -55 -21l-6 3l-11 53l2 6q39 29 83 29q44 -1 68 -17
q54 -36 38 -131l-6 -43q66 90 162.5 140.5t213.5 50.5zM645 1145h-6l-25 41v6l365 264h6l37 -59l-2 -6z" />
    <glyph glyph-name="Ncommaaccent" unicode="&#x145;" horiz-adv-x="1439" 
d="M682 -106l6 6h76l4 -6l-129 -291l-8 -6h-47l-4 6zM1399 1331h80l-236 -1331h-53l-705 1180l-206 -1180h-80l235 1331h51l705 -1179z" />
    <glyph glyph-name="ncommaaccent" unicode="&#x146;" horiz-adv-x="1159" 
d="M573 -100h74l4 -6l-129 -291l-8 -6h-47l-4 6l102 291zM786 1049q166 0 260.5 -92.5t90.5 -241.5q0 -35 -29 -193l-92 -522h-78l92 522q27 150 27 207.5t-32 117.5t-98.5 95t-158.5 35q-143 0 -254 -95.5t-141 -236.5l-113 -645h-78l156 885q16 94 -41 94q-27 0 -55 -21
l-6 3l-11 53l2 6q39 29 83 29q44 -1 68 -17q54 -36 38 -131l-6 -43q66 90 162.5 140.5t213.5 50.5z" />
    <glyph glyph-name="Ncaron" unicode="&#x147;" horiz-adv-x="1439" 
d="M1399 1331h80l-236 -1331h-53l-705 1180l-206 -1180h-80l235 1331h51l705 -1179zM1262 1686l22 -46l-2 -6l-313 -184h-13l-247 184v6l36 46h7l225 -150l278 150h7z" />
    <glyph glyph-name="ncaron" unicode="&#x148;" horiz-adv-x="1159" 
d="M786 1049q166 0 260.5 -92.5t90.5 -241.5q0 -35 -29 -193l-92 -522h-78l92 522q27 150 27 189q2 117 -74 191.5t-217 74.5t-252 -95.5t-141 -236.5l-113 -645h-78l156 885q16 94 -41 94q-27 0 -55 -21l-6 3l-11 53l2 6q39 29 83 29q44 -1 68 -17q54 -36 38 -131l-6 -43
q66 90 162.5 140.5t213.5 50.5zM803 1145h-19l-237 186l2 6l43 43h6l211 -147l262 147h6l27 -43l-2 -6z" />
    <glyph glyph-name="napostrophe" unicode="&#x149;" horiz-adv-x="1159" 
d="M786 1049q166 0 260.5 -92.5t90.5 -241.5q0 -35 -29 -193l-92 -522h-78l92 522q27 150 27 189q2 117 -74 191.5t-215 74.5q-94 0 -178 -44t-140.5 -120t-76.5 -168l-113 -645h-78l156 885q16 94 -41 94q-27 0 -55 -21l-6 3l-11 53l2 6q39 29 92 29t81 -38t16 -110l-6 -43
q66 90 162.5 140.5t213.5 50.5zM205 1151l-6 -6h-45l-4 6l110 299l8 6h76l4 -6z" />
    <glyph glyph-name="Eng" unicode="&#x14a;" horiz-adv-x="1439" 
d="M858 -322q113 0 193 68t104 199l16 86l-686 1149l-206 -1180h-80l235 1331h51l705 -1179l209 1179h80l-248 -1397q-18 -109 -77 -185q-110 -146 -307 -146q-93 0 -172 41t-114 118l2 7l60 41h6q29 -68 93 -100t136 -32z" />
    <glyph glyph-name="eng" unicode="&#x14b;" horiz-adv-x="1159" 
d="M786 1049q166 -1 260 -93t91 -241q0 -33 -29 -193l-82 -467q-25 -143 -88 -226t-170 -136h-8l-23 55l4 8q90 45 138 110q47 65 67 183l84 473q27 147 27 189q2 117 -74 191t-217 75q-141 -1 -254 -103t-141 -245l-111 -629h-78l156 885q16 94 -41 94q-27 0 -55 -21l-6 3
l-11 53l2 6q39 29 94 29t81 -39t14 -109l-8 -43q68 90 166 140t212 51z" />
    <glyph glyph-name="Omacron" unicode="&#x14c;" horiz-adv-x="1546" 
d="M822 53q238 0 419 146q121 98 185 240q65 142 65 302t-67 280q-68 121 -188 189t-269 68q-250 0 -430 -145q-121 -99 -186 -241t-64 -317q1 -221 149 -371t386 -151zM810 -25q-270 0 -438 170q-169 170 -169 420q0 195 75 356t211 269q209 166 479 166t439 -170
q170 -170 170 -424t-133 -454q-63 -95 -156 -167q-208 -166 -478 -166zM743 1540h541l-12 -63h-541z" />
    <glyph glyph-name="omacron" unicode="&#x14d;" horiz-adv-x="1220" 
d="M635 47q217 0 367 154t149 387q0 168 -109.5 278.5t-282.5 110.5t-310 -111q-92 -74 -144.5 -187.5t-52.5 -242.5q0 -168 107.5 -278.5t275.5 -110.5zM623 -25q-197 0 -324 129t-127 322q0 152 63.5 284t174.5 218q158 121 361.5 121t332.5 -129t129 -324
q0 -131 -50 -250t-141 -205q-169 -166 -419 -166zM561 1255h533l-13 -65h-532z" />
    <glyph glyph-name="Ohungarumlaut" unicode="&#x150;" horiz-adv-x="1546" 
d="M822 53q238 0 419 146q121 98 185 240q65 142 65 302t-67 280q-68 121 -188 189t-269 68q-250 0 -430 -145q-121 -99 -186 -241t-64 -317q1 -221 149 -371t386 -151zM810 -25q-270 0 -438 170q-169 170 -169 420q0 195 75 356t211 269q209 166 479 166t439 -170
q170 -170 170 -424t-133 -454q-63 -95 -156 -167q-208 -166 -478 -166zM1231 1755h86l2 -6l-238 -299h-61l-2 6zM997 1755h86l2 -6l-237 -299h-62l-2 6z" />
    <glyph glyph-name="ohungarumlaut" unicode="&#x151;" horiz-adv-x="1220" 
d="M635 47q217 0 367 154t149 387q0 168 -109.5 278.5t-282.5 110.5t-310 -111q-92 -74 -144.5 -187.5t-52.5 -242.5q0 -168 107.5 -278.5t275.5 -110.5zM623 -25q-197 0 -324 129t-127 322q0 152 63.5 284t174.5 218q158 121 361.5 121t332.5 -129t129 -324
q0 -131 -50 -250t-141 -205q-169 -166 -419 -166zM1053 1479l10 6h80l4 -6l-236 -328l-8 -6h-47l-4 6zM831 1479l11 6h78l4 -6l-236 -328l-8 -6h-47l-2 6z" />
    <glyph glyph-name="OE" unicode="&#x152;" horiz-adv-x="2252" 
d="M1489 770q0 131 -66.5 251t-187.5 188.5t-270 68.5q-250 0 -430 -145q-163 -133 -221 -339q-30 -104 -29 -219q0 -221 149.5 -371.5t388 -150t416.5 145.5q250 197 250 571zM797 -25q-258 0 -427 170t-169 420q0 396 286 625q209 166 492 166q201 0 353.5 -108.5
t211.5 -284.5l66 368h794l-12 -74h-715l-96 -548h563l-14 -72h-563l-99 -563h715l-14 -74h-795l49 283q-106 -145 -268 -226.5t-358 -81.5z" />
    <glyph glyph-name="oe" unicode="&#x153;" horiz-adv-x="2109" 
d="M1715 977q-175 0 -307 -111t-173 -313h811q4 31 4 63q8 158 -76 260t-259 101zM1151 588q0 168 -110 278q-111 110 -283 111q-172 0 -309 -111q-93 -74 -145 -188t-52 -242q0 -168 108 -278t275 -111q217 1 362 148q72 74 113 177t41 216zM1591 47q111 0 219 49t183 135
h8l43 -43l-2 -6q-84 -98 -208 -152t-268 -54t-258 83q-114 84 -151 230q-78 -143 -219 -229q-140 -86 -326 -85q-186 0 -313 129t-127 322q0 152 64 284q63 132 174 218q158 121 368 121q104 0 194 -40q180 -79 242 -276q74 143 207 229t315 87q182 0 289 -116
q106 -116 107 -296q0 -70 -18 -152h-887q-20 -197 79 -317t285 -121z" />
    <glyph glyph-name="Racute" unicode="&#x154;" horiz-adv-x="1189" 
d="M770 662q172 0 274 104q100 96 101 250q0 109 -68 175.5t-203 65.5h-372l-105 -595h373zM1057 -25q-51 0 -84 17.5t-52.5 40t-39.5 72.5t-33.5 109.5t-15 63t-2.5 7.5q-76 305 -148 305h-299l-104 -590h-80l235 1331h438q178 0 267.5 -83t89.5 -220q0 -199 -135 -319
q-113 -102 -293 -117q51 -39 100 -247.5t71 -236.5q46 -57 87.5 -56.5t68.5 18.5l9 -2l14 -56l-2 -8q-41 -29 -92 -29zM651 1450h-6l-20 41v6l387 232h6l29 -62l-3 -6z" />
    <glyph glyph-name="racute" unicode="&#x155;" horiz-adv-x="675" 
d="M310 1049q136 0 102 -168q121 168 309 168q80 0 127 -27l2 -8l-39 -58l-6 -2q-39 23 -105 23q-117 0 -208 -93t-123 -261l-109 -623h-78l156 885q16 94 -41 94q-27 0 -55 -21l-6 3l-11 53l2 6q39 29 83 29zM424 1145h-6l-25 41v6l365 264h6l37 -59v-6z" />
    <glyph glyph-name="Rcommaaccent" unicode="&#x156;" horiz-adv-x="1189" 
d="M586 -100h76l4 -6l-129 -291l-9 -6h-47l-4 6l101 291zM770 662q172 0 274 104q100 96 101 250q0 109 -68 175.5t-203 65.5h-372l-105 -595h373zM1057 -25q-51 0 -84 17.5t-52.5 40t-39.5 72.5t-33.5 109.5t-15 63t-2.5 7.5q-76 305 -148 305h-299l-104 -590h-80l235 1331
h438q178 0 267.5 -83t89.5 -220q0 -199 -135 -319q-113 -102 -293 -117q51 -39 100 -247.5t71 -236.5q46 -57 87.5 -56.5t68.5 18.5l9 -2l14 -56l-2 -8q-41 -29 -92 -29z" />
    <glyph glyph-name="rcommaaccent" unicode="&#x157;" horiz-adv-x="675" 
d="M172 -100h76l4 -6l-129 -291l-8 -6h-47l-5 6l101 291zM700 977q-117 0 -208 -93t-123 -261l-109 -623h-78l156 885q16 94 -41 94q-27 0 -55 -21l-6 3l-11 53l2 6q39 29 92 29t82 -39t11 -129q121 168 309 168q80 0 127 -27l2 -8l-39 -58l-6 -2q-39 23 -105 23z" />
    <glyph glyph-name="Rcaron" unicode="&#x158;" horiz-adv-x="1189" 
d="M770 662q172 0 274 104q100 96 101 250q0 109 -68 175.5t-203 65.5h-372l-105 -595h373zM1057 -25q-51 0 -84 17.5t-52.5 40t-39.5 72.5t-33.5 109.5t-15 63t-2.5 7.5q-76 305 -148 305h-299l-104 -590h-80l235 1331h438q178 0 267.5 -83t89.5 -220q0 -199 -135 -319
q-113 -102 -293 -117q51 -39 100 -247.5t71 -236.5q46 -57 87.5 -56.5t68.5 18.5l9 -2l14 -56l-2 -8q-41 -29 -92 -29zM819 1450h-10l-250 184l2 6l37 46h6l225 -150l277 150h6l25 -46l-2 -6z" />
    <glyph glyph-name="rcaron" unicode="&#x159;" horiz-adv-x="675" 
d="M310 1049q136 0 102 -168q121 168 309 168q82 0 127 -27l2 -8l-39 -58l-6 -2q-39 23 -105 23q-117 0 -208 -93t-123 -261l-109 -623h-78l156 885q16 94 -41 94q-27 0 -55 -21l-6 3l-11 53l2 6q39 29 83 29zM842 1380l26 -43l-2 -6l-301 -186h-16l-238 186l2 6l41 43h6
l211 -147l265 147h6z" />
    <glyph glyph-name="Sacute" unicode="&#x15a;" horiz-adv-x="1024" 
d="M172 246q114 -193 386 -193q138 0 243.5 82t105.5 208t-147 224q-47 31 -146.5 83.5t-139.5 79t-81 65.5q-82 78 -82 198q0 166 126 264.5t300 98.5q244 0 361 -178l-2 -9l-58 -45h-8q-49 76 -128 115t-171 39q-139 0 -236.5 -75t-97.5 -193q0 -86 61 -149t212.5 -142.5
t175.5 -101t53 -45t41 -45t32.5 -58t20.5 -115.5q0 -162 -128 -270.5t-333 -108.5q-137 0 -252.5 57.5t-170.5 160.5v8l57 45h6zM967 1729h6l28 -62l-2 -6l-395 -211h-6l-20 41v6z" />
    <glyph glyph-name="sacute" unicode="&#x15b;" horiz-adv-x="833" 
d="M160 205q66 -158 288 -158q114 0 194.5 61.5t80.5 161.5t-83 154q-53 35 -112 62.5t-100.5 49t-79 47t-66 72.5t-28.5 109q0 131 102 211q90 74 209 74q231 0 307 -156v-8l-55 -37h-6q-76 129 -233 129q-106 0 -175 -55.5t-69 -131t42.5 -121.5t180.5 -110t164.5 -93.5
t54 -68t27.5 -116.5q0 -147 -117 -234q-96 -72 -234 -72q-269 0 -356 185l2 8l54 37h8zM786 1456h7l36 -59l-2 -6l-374 -246h-7l-24 41v6z" />
    <glyph glyph-name="Scedilla" unicode="&#x15e;" horiz-adv-x="1024" 
d="M172 246q114 -193 386 -193q138 0 243.5 82t105.5 208t-147 224q-47 31 -146.5 83.5t-139.5 79t-81 65.5q-82 78 -82 198q0 166 126 264.5t300 98.5q241 0 361 -178l-2 -9l-58 -45h-8q-49 76 -128 115t-171 39q-139 0 -236.5 -75t-97.5 -193q0 -86 61 -149t212.5 -142.5
t175.5 -101t53 -45t41 -45t32.5 -58t20.5 -115.5q0 -162 -131 -272q-102 -86 -274 -105l-37 -67l2 -4q92 14 148.5 -22t56.5 -111.5t-63.5 -122.5t-170 -47t-172.5 75v9l45 41h6q51 -61 122 -61.5t113 26t42 82t-62.5 73t-150.5 -17.5l-31 23l70 122q-131 6 -237.5 63.5
t-159.5 154.5v8l57 45h6z" />
    <glyph glyph-name="scedilla" unicode="&#x15f;" horiz-adv-x="833" 
d="M160 205q66 -158 288 -158q114 0 194.5 61.5t80.5 161.5t-83 154q-53 35 -112 62.5t-100.5 49t-79 47t-66 72.5t-28.5 109q0 131 96 208q98 77 216 77q231 0 306 -156v-8l-55 -37h-6q-76 129 -233 129q-106 0 -175 -55.5t-69 -131t42.5 -121.5t180.5 -110t164.5 -93.5
t54 -68t27.5 -116.5q0 -147 -117 -234q-84 -61 -215 -70l-37 -67l2 -4q124 16 178 -50q26 -32 27 -81q0 -78 -63.5 -125t-170 -47t-171.5 75v9l45 41h6q49 -61 131 -61.5t122 45.5q20 24 21 57q0 61 -62.5 78.5t-148.5 -17.5l-31 23l70 124q-104 8 -180 55.5t-113 127.5l2 8
l54 37h8z" />
    <glyph glyph-name="Scaron" unicode="&#x160;" horiz-adv-x="1024" 
d="M172 246q114 -193 386 -193q138 0 243.5 82t105.5 205.5t-129 213.5q-53 37 -120.5 73.5t-70.5 37.5t-6 3t-35 18q-85 44 -160 115.5t-75 191.5q0 166 126 264.5t300 98.5q244 0 361 -178l-2 -9l-58 -45h-8q-49 76 -128 115t-171 39q-139 0 -236.5 -75t-97.5 -193
q0 -59 32 -109.5t77 -83.5t90 -57.5t83 -45t55.5 -29.5t50 -28.5t49 -32t42.5 -32.5t40 -37q76 -91 77 -201q0 -162 -128 -270.5t-333 -108.5q-137 0 -252.5 57.5t-170.5 160.5v8l57 45h6zM1067 1686l23 -46v-6l-316 -184h-12l-248 184v6l39 46h6l225 -150l277 150h6z" />
    <glyph glyph-name="scaron" unicode="&#x161;" horiz-adv-x="833" 
d="M160 205q66 -158 288 -158q114 0 194.5 61.5t80.5 161.5t-83 154q-53 35 -112 62.5t-100.5 49t-79 47t-66 72.5t-28.5 109q0 131 102 211q90 74 227 74t223 -72q42 -35 66 -84v-8l-55 -37h-6q-76 129 -233 129q-106 0 -175 -55.5t-69 -131t42.5 -121.5t180.5 -110
t164.5 -93.5t54 -68t27.5 -116.5q0 -147 -117 -234q-96 -72 -234 -72q-269 0 -356 185l2 8l54 37h8zM885 1380l26 -43l-2 -6l-301 -186h-16l-238 186l2 6l43 43h7l210 -147l263 147h6z" />
    <glyph glyph-name="uni0162" unicode="&#x162;" horiz-adv-x="1001" 
d="M696 -225q0 -78 -62.5 -125t-169 -47t-171.5 75v9l43 41h8q49 -62 132 -62t122 46q20 24 20 57q0 61 -62 78.5t-150 -17.5l-29 23l82 147l221 1257h-432l14 74h948l-14 -74h-434l-221 -1257l-49 -90l2 -4q124 16 176 -50q26 -32 26 -81z" />
    <glyph glyph-name="uni0163" unicode="&#x163;" horiz-adv-x="647" 
d="M498 47q57 0 106 31l6 -4l19 -54l-4 -6q-55 -35 -131 -39l-35 -65l2 -4q123 16 178 -50q27 -32 27 -81q0 -78 -63.5 -125t-170.5 -47t-172 75v9l45 41h6q49 -62 131 -62t124 46q20 24 20 57q0 61 -62.5 78.5t-148.5 -17.5l-31 23l72 131q-94 23 -134 111.5t-16 234.5
l111 626h-176l12 68h176l55 317l74 15l6 -4l-57 -328h321l-12 -68h-321l-111 -626q-25 -139 16 -211t138 -72z" />
    <glyph glyph-name="Tcaron" unicode="&#x164;" horiz-adv-x="1001" 
d="M459 0l221 1257h-432l14 74h948l-14 -74h-434l-221 -1257h-82zM1042 1686l23 -46v-6l-315 -184h-11l-250 184v6l39 46h7l225 -150l276 150h6z" />
    <glyph glyph-name="tcaron" unicode="&#x165;" horiz-adv-x="647" 
d="M483 -25q-129 0 -187 92.5t-30 262.5l111 626h-176l12 68h176l55 317l74 15l6 -4l-57 -328h321l-12 -68h-321l-111 -626q-32 -188 50 -252q40 -31 100.5 -31t109.5 31l6 -4l19 -54l-4 -6q-60 -39 -142 -39zM733 1452l8 6h76l4 -6l-149 -340l-8 -6h-46l-2 6z" />
    <glyph glyph-name="Tbar" unicode="&#x166;" horiz-adv-x="1001" 
d="M1196 1257h-434l-98 -557h225l-12 -65h-226l-110 -635h-82l112 635h-213l13 65h211l98 557h-432l14 74h948z" />
    <glyph glyph-name="tbar" unicode="&#x167;" horiz-adv-x="647" 
d="M494.5 47q60.5 0 109.5 31l6 -4l19 -54l-4 -6q-59 -39 -142 -39q-129 0 -187 92.5t-30 262.5l33 186h-176l12 66h176l66 374h-176l12 68h176l55 317l74 15l6 -4l-57 -328h321l-12 -68h-321l-66 -374h264l-12 -66h-264l-33 -186q-32 -188 50 -252q40 -31 100.5 -31z" />
    <glyph glyph-name="Utilde" unicode="&#x168;" horiz-adv-x="1357" 
d="M680 -25q-182 1 -293 93t-129 258q-10 70 16 223l138 782h80l-136 -780q-27 -154 -14 -225q20 -131 112 -203t238 -72q207 0 336 125t176 404l131 751h82l-133 -758q-29 -159 -78 -271t-137 -189q-151 -138 -389 -138zM772 1614q61 0 170 -38q108 -38 182 -38t123 76h8
l27 -55v-7q-70 -84 -178 -84q-63 0 -176 37t-170 37q-82 0 -131 -74h-6l-29 56l2 6q69 84 178 84z" />
    <glyph glyph-name="utilde" unicode="&#x169;" horiz-adv-x="1138" 
d="M1001 -25q-54 0 -81 39t-15 109l6 37q-63 -86 -155 -135t-203 -50q-168 1 -261 93t-87 245q0 45 24 179l97 532h77l-96 -537q-20 -127 -22 -176q-1 -117 73 -191t216 -73q142 0 246 99q103 99 132 255l109 623h78l-158 -895q-14 -84 43 -84q28 1 53 21l8 -3l11 -53l-4 -6
q-37 -29 -91 -29zM608 1309q58 0 158 -36t167 -36t111 72h7l20 -56v-6q-61 -82 -156 -82q-61 0 -163 36t-165 36t-108 -72h-6l-24 56l2 8q63 80 157 80z" />
    <glyph glyph-name="Umacron" unicode="&#x16a;" horiz-adv-x="1357" 
d="M680 -25q-182 1 -293 93t-129 258q-10 70 16 223l138 782h80l-136 -780q-27 -154 -14 -225q20 -131 112 -203t238 -72q207 0 336 125t176 404l131 751h82l-133 -758q-29 -159 -78 -271t-137 -189q-149 -138 -389 -138zM666 1540h540l-12 -63h-539z" />
    <glyph glyph-name="umacron" unicode="&#x16b;" horiz-adv-x="1138" 
d="M1001 -25q-54 0 -81 39t-15 109l6 37q-63 -86 -155 -135t-203 -50q-168 1 -261 93t-87 245q2 45 24 179l97 532h77l-96 -537q-20 -127 -22 -176q-1 -117 73 -191t216 -73q142 0 246 99q103 99 132 255l109 623h78l-158 -895q-14 -84 43 -84q28 1 53 21l8 -3l11 -53l-4 -6
q-37 -29 -91 -29zM1030 1255l-12 -65h-533l13 65h532z" />
    <glyph glyph-name="Uring" unicode="&#x16e;" horiz-adv-x="1357" 
d="M680 -25q-182 1 -293 93t-129 258q-10 70 16 223l138 782h80l-136 -780q-27 -154 -14 -225q20 -131 112 -203t240 -72q205 0 334 125t176 404l131 751h82l-133 -758q-29 -159 -78 -271t-137 -189q-149 -138 -389 -138zM938 1487q47 0 81 40t34 84q0 45 -27 73t-75 28
t-82 -40q-33 -40 -33 -85t27 -73q28 -27 75 -27zM917 1427q-58 0 -102 42q-43 41 -43 99q0 116 98 177q44 27 102 27t101 -42t43 -100t-26 -103q-59 -100 -173 -100z" />
    <glyph glyph-name="uring" unicode="&#x16f;" horiz-adv-x="1138" 
d="M1001 -25q-54 0 -81 39t-15 109l6 37q-63 -86 -155 -135t-203 -50q-168 1 -261 93t-87 245q2 45 24 179l97 532h77l-96 -537q-20 -127 -22 -176q-1 -117 73 -191t216 -73q142 0 246 99q103 99 132 255l109 623h78l-158 -895q-14 -84 43 -84q28 1 53 21l8 -3l11 -53l-4 -6
q-37 -29 -91 -29zM779 1413q-48 0 -82 -39q-33 -39 -33 -83q0 -43 26 -71t64 -28q78 0 112 72t-13 122q-26 28 -74 27zM944 1320q0 -70 -58 -130t-131 -60t-115 42t-42 94q0 93 58 150t131 58t115 -41t42 -113z" />
    <glyph glyph-name="Uhungarumlaut" unicode="&#x170;" horiz-adv-x="1357" 
d="M680 -25q-182 1 -293 93t-129 258q-10 70 16 223l138 782h80l-136 -780q-27 -154 -14 -225q20 -131 112 -203t238 -72q207 0 336 125t176 404l131 751h82l-133 -758q-29 -159 -78 -271t-137 -189q-149 -138 -389 -138zM1155 1755h84l4 -6l-239 -299h-62l-2 6zM922 1755
h84l2 -6l-238 -299h-61l-2 6z" />
    <glyph glyph-name="uhungarumlaut" unicode="&#x171;" horiz-adv-x="1138" 
d="M1001 -25q-54 0 -81 39t-15 109l6 37q-63 -86 -155 -135t-203 -50q-168 1 -261 93t-87 245q0 45 24 179l97 532h77l-96 -537q-20 -127 -22 -176q-1 -117 73 -191t216 -73q142 0 246 99q103 99 132 255l109 623h78l-158 -895q-14 -84 43 -84q28 1 53 21l8 -3l11 -53l-4 -6
q-37 -29 -91 -29zM793 1145l-5 6l201 328l10 6h82l2 -6l-235 -328l-8 -6h-47zM616 1145h-47l-2 6l201 328l10 6h80l2 -6l-233 -328z" />
    <glyph glyph-name="Uogonek" unicode="&#x172;" horiz-adv-x="1357" 
d="M701 -401q-71 -1 -113 35t-41 106q0 70 53 126t141 111q-31 -2 -61 -2q-182 1 -293 93t-129 258q-10 70 16 225l138 780h80l-136 -780q-27 -154 -14 -225q20 -131 112 -203t238 -72q207 0 336 125t176 404l131 751h82l-133 -758q-29 -159 -78 -271t-138 -192t-214 -112
q-197 -131 -226 -197q-12 -25 -12 -61t26 -56q26 -22 76 -23t105 44h8l21 -39l-2 -8q-78 -59 -149 -59z" />
    <glyph glyph-name="uogonek" unicode="&#x173;" horiz-adv-x="1138" 
d="M854 -246q0 -84 94 -88q59 0 113 45h8l23 -39l-2 -8q-78 -59 -150 -59t-114 36q-42 37 -42 105t52 124t137 110q-88 20 -68 143l6 37q-63 -86 -155 -135t-203 -50q-168 1 -261 93t-87 245q0 45 24 179l97 532h77l-96 -537q-20 -127 -22 -176q-1 -117 73 -191t216 -73
q142 0 246 99q103 99 132 255l109 623h78l-158 -895q-14 -84 43 -84q28 1 53 21l8 -3l11 -53l-4 -6v-2q-74 -47 -132 -94q-58 -48 -82 -80t-24 -74z" />
    <glyph glyph-name="Wcircumflex" unicode="&#x174;" horiz-adv-x="1892" 
d="M322 1280q-30 0 -58 -18l-8 2l-16 55l2 8q39 29 98 29q109 0 127 -146l158 -1067l553 1188h79l134 -1186l594 1186h81l2 -6l-673 -1325h-60l-141 1198l-565 -1198h-60l-184 1180q-8 56 -21 78q-12 22 -42 22zM1278 1686l250 -185v-6l-39 -45h-6l-226 149l-276 -149h-6
l-23 45v6l316 185h10z" />
    <glyph glyph-name="wcircumflex" unicode="&#x175;" horiz-adv-x="1507" 
d="M260 979q-29 0 -55 -21l-8 3l-13 53l4 6q40 29 92 29t80 -34t37 -104l117 -757l418 870h74l112 -872l443 872h73l4 -8l-524 -1016h-47l-119 905l-436 -905h-45l-141 870q-10 57 -24 83t-42 26zM750 1145h-7l-28 45v6l303 184h18l236 -184l-2 -6l-41 -45h-6l-213 147z" />
    <glyph glyph-name="Ycircumflex" unicode="&#x176;" horiz-adv-x="1257" 
d="M328 1280q-31 0 -58 -18l-6 2l-18 55l2 8q41 29 88 29t75 -16t47 -45q19 -28 44 -78l272 -582l567 696h89l2 -6l-627 -764l-100 -561h-82l98 557l-297 633q-25 50 -45 70t-51 20zM936 1686l250 -185l-2 -6l-37 -45h-6l-226 149l-276 -149h-8l-21 45v6l314 185h12z" />
    <glyph glyph-name="ycircumflex" unicode="&#x177;" horiz-adv-x="1075" 
d="M278 1049q60 0 88 -35t44 -103l192 -774l535 887h73l4 -8l-686 -1139q-111 -184 -268 -184q-63 0 -113 37l-2 8l35 53l8 2q37 -31 86 -31q102 0 185 136l86 141l-207 823q-16 68 -32 92t-43 25q-28 0 -54 -21l-8 3l-13 53q30 35 90 35zM504 1145h-4l-29 45v6l303 184h17
l235 -184v-6l-41 -45h-6l-213 147z" />
    <glyph glyph-name="Ydieresis" unicode="&#x178;" horiz-adv-x="1257" 
d="M328 1280q-31 0 -58 -18l-6 2l-18 55l2 8q41 29 96 29t88 -32t70 -107l272 -582l567 696h89l2 -6l-627 -764l-100 -561h-82l98 557l-297 633q-25 50 -45 70t-51 20zM1077 1616q35 0 55 -20t19 -56q0 -36 -29 -64q-30 -28 -64 -28t-53 20t-19 56t28 64t63 28zM751 1616
q34 0 54 -20t20 -46q0 -24 -11 -50t-39 -39q-27 -13 -52 -13t-45 20t-20 56t29 64q30 28 64 28z" />
    <glyph glyph-name="Zacute" unicode="&#x179;" horiz-adv-x="1093" 
d="M1239 1325l-8 -49l-1057 -1204h887l-14 -72h-992l-2 6l8 49l1055 1205h-829l14 71h936zM975 1729h6l29 -62l-2 -6l-394 -211h-6l-20 41v6z" />
    <glyph glyph-name="zacute" unicode="&#x17a;" horiz-adv-x="880" 
d="M250 1024h717l4 -8l-10 -51l-793 -899h672l-11 -66h-763l-5 8l7 51l796 899h-626zM809 1456h6l37 -59v-6l-377 -246h-6l-25 41v6z" />
    <glyph glyph-name="Zdotaccent" unicode="&#x17b;" horiz-adv-x="1093" 
d="M1239 1325l-8 -49l-1057 -1204h887l-14 -72h-992l-2 6l8 49l1055 1205h-829l14 71h936zM777 1448q-26 0 -46 22t-20 54q-1 32 29 60t63 28t53 -20t20 -48q0 -27 -14 -48q-31 -48 -85 -48z" />
    <glyph glyph-name="zdotaccent" unicode="&#x17c;" horiz-adv-x="880" 
d="M250 1024h715l6 -8l-10 -51l-793 -899h672l-11 -66h-763l-5 8l7 51l796 899h-626zM623 1145q-27 0 -46 20q-19 21 -19 55t28 62t62 29q34 -1 54 -21t20 -48t-13 -50q-29 -47 -86 -47z" />
    <glyph glyph-name="Zcaron" unicode="&#x17d;" horiz-adv-x="1093" 
d="M1239 1325l-8 -49l-1057 -1204h887l-14 -72h-992l-2 6l8 49l1055 1205h-829l14 71h936zM1075 1686l25 -46l-2 -6l-316 -184h-10l-250 184l2 6l37 46h6l226 -150l276 150h6z" />
    <glyph glyph-name="zcaron" unicode="&#x17e;" horiz-adv-x="880" 
d="M250 1024h717l4 -8l-10 -51l-793 -899h672l-11 -66h-763l-5 8l7 51l796 899h-626zM909 1380l27 -43l-2 -6l-301 -186h-17l-237 186l2 6l41 43h6l211 -147l264 147h6z" />
    <glyph glyph-name="uni01EA" unicode="&#x1ea;" horiz-adv-x="1546" 
d="M1491 754q-1 224 -149 374t-386 150t-419 -145q-121 -99 -186 -241t-64 -317q0 -221 148 -371t387 -150t419 145q121 98 185 240q65 142 65 315zM750 -252q0 -84 92 -88q59 0 114 45h7l22 -39l-2 -8q-78 -59 -149 -59q-70 -1 -112 35t-42 88q0 96 68 158q42 40 129 100
q-39 -4 -78 -5q-258 0 -427 170t-169 420q0 394 286 625q209 166 492 166q168 0 305 -78t214 -213t77 -283t-35 -263q-71 -237 -254 -378q-133 -106 -303 -145q-16 -10 -47 -33t-73 -52t-72 -66q-31 -36 -37 -56t-6 -41z" />
    <glyph glyph-name="uni01EB" unicode="&#x1eb;" horiz-adv-x="1220" 
d="M1151 588q0 168 -109.5 278.5t-282.5 110.5t-310 -111q-92 -74 -144.5 -187.5t-52.5 -242.5q0 -168 107.5 -278.5t275.5 -110.5q217 1 362 148q72 74 113 177t41 216zM771 1049q204 0 333 -129t129 -324q0 -131 -50 -250t-141.5 -208t-220.5 -132q-73 -52 -101 -71
q-134 -90 -134 -177q0 -85 101 -87q50 -1 106 46h8l22 -41l-4 -8q-78 -57 -148.5 -57t-112.5 35t-42 103.5t50 123.5t130 107q-37 -4 -73 -5q-197 0 -324 129t-127 322q0 152 63.5 284t174.5 218q157 121 361 121z" />
    <glyph glyph-name="AEacute" unicode="&#x1fc;" horiz-adv-x="1890" 
d="M1010 403l149 842l-741 -842h592zM1956 1257h-715l-96 -548h563l-14 -72h-564l-98 -563h717l-14 -74h-797l59 330h-643l-291 -330h-90l1162 1331h835zM1401 1450h-6l-19 41v6l387 232h6l29 -62l-2 -6z" />
    <glyph glyph-name="aeacute" unicode="&#x1fd;" horiz-adv-x="1882" 
d="M485 47q131 0 257 89t153 235l20 116q-137 76 -307 76t-284.5 -77.5t-114.5 -213.5q0 -106 72.5 -165.5t203.5 -59.5zM1488 977q-175 0 -307 -111t-173 -313h811q4 31 4 63q10 158 -75 259.5t-260 101.5zM1341.5 -25q-141.5 0 -254 80t-153.5 219q-53 -133 -185.5 -216
t-286 -83t-244.5 75t-91 204q0 162 127 270.5t331.5 108.5t340.5 -76q31 154 30 211q0 104 -85 156.5t-201 52.5q-197 0 -357 -150h-8l-43 45l2 9q176 168 420 168q139 0 237.5 -61.5t110.5 -182.5q47 72 109 121q150 123 350.5 123t307 -116t106.5 -296q-1 -70 -19 -152
h-887q-20 -197 79.5 -317.5t267.5 -120.5q170 0 304 85q66 42 115 99h9l43 -43v-6q-86 -98 -210 -152.5t-265.5 -54.5zM969 1145h-6l-25 41v6l365 264h6l37 -59v-6z" />
    <glyph glyph-name="Oslashacute" unicode="&#x1fe;" horiz-adv-x="1546" 
d="M1491 754q0 242 -168 393l-815 -1004q131 -90 303 -90q317 1 517 231q78 90 121 207q42 118 42 263zM287 575q0 -236 164 -387l815 1004q-131 86 -299 86q-250 0 -430 -145q-121 -98 -185 -241t-65 -317zM203 565q0 394 286 625q209 166 492 166q188 0 338 -99l156 193
h84l2 -10l-185 -226q94 -82 148 -198t53 -249q0 -132 -35 -248q-71 -237 -254 -378q-209 -166 -489 -166q-195 0 -344 103l-146 -178h-86l-2 8l174 215q-192 171 -192 442zM831 1450h-6l-20 41v6l389 232h6l29 -62l-2 -6z" />
    <glyph glyph-name="oslashacute" unicode="&#x1ff;" horiz-adv-x="1220" 
d="M1151 588q0 168 -109 276l-632 -747q96 -70 225 -70q217 1 362 148q154 161 154 393zM252 418q0 -148 104 -258l635 749q-98 68 -225 68q-180 0 -317 -111q-197 -158 -197 -448zM1233 596q0 -131 -50 -250t-139 -205q-172 -166 -421 -166q-152 0 -267 80l-125 -149h-81
l-5 6l160 186q-133 129 -133 328q0 152 63.5 284t174.5 218q158 121 368 121q150 0 264 -78l150 174h80l2 -6l-178 -211q137 -131 137 -332zM702 1145h-6l-24 41v6l364 264h6l37 -59v-6z" />
    <glyph glyph-name="Scommaaccent" unicode="&#x218;" horiz-adv-x="1024" 
d="M500 -106l8 6h74l4 -6l-129 -291l-8 -6h-48l-4 6zM172 246q114 -193 386 -193q138 0 243.5 82t105.5 208t-147 224q-47 31 -146.5 83.5t-139.5 79t-81 65.5q-82 78 -82 198q0 166 126 264.5t300 98.5q244 0 361 -178l-2 -9l-58 -45h-8q-49 76 -128 115t-171 39
q-139 0 -236.5 -75t-97.5 -193q0 -86 61 -149t212.5 -142.5t175.5 -101t53 -45t41 -45t32.5 -58t20.5 -115.5q0 -162 -128 -270.5t-333 -108.5q-137 0 -252.5 57.5t-170.5 160.5v8l57 45h6z" />
    <glyph glyph-name="scommaaccent" unicode="&#x219;" horiz-adv-x="833" 
d="M383 -106l6 6h76l4 -6l-129 -291l-8 -6h-47l-4 6zM160 205q66 -158 288 -158q114 0 194.5 61.5t80.5 161.5t-83 154q-53 35 -112 62.5t-100.5 49t-79 47t-66 72.5t-28.5 109q0 131 102 211q90 74 209 74q231 0 307 -156v-8l-55 -37h-6q-76 129 -233 129
q-106 0 -175 -55.5t-69 -131t42.5 -121.5t180.5 -110t164.5 -93.5t54 -68t27.5 -116.5q0 -147 -117 -234q-96 -72 -255.5 -72t-258.5 85q-49 42 -76 100l2 8l54 37h8z" />
    <glyph glyph-name="uni021A" unicode="&#x21a;" horiz-adv-x="1001" 
d="M438 -106l8 6h76l2 -6l-129 -291l-6 -6h-49l-2 6zM459 0l221 1257h-432l14 74h948l-14 -74h-434l-221 -1257h-82z" />
    <glyph glyph-name="uni021B" unicode="&#x21b;" horiz-adv-x="647" 
d="M406 -106l8 6h75l5 -6l-132 -291l-6 -6h-47l-4 6zM483 -25q-129 0 -187 92.5t-30 262.5l111 626h-176l12 68h176l55 317l74 15l6 -4l-57 -328h321l-12 -68h-321l-111 -626q-32 -188 50 -252q40 -31 100.5 -31t109.5 31l6 -4l19 -54l-4 -6q-60 -39 -142 -39z" />
    <glyph glyph-name="uni0237" unicode="&#x237;" horiz-adv-x="393" 
d="M340 1024h78l-176 -995q-25 -131 -81 -205t-155 -131h-8l-23 55l2 8q80 46 123 104t62 165z" />
    <glyph glyph-name="uni02BC" unicode="&#x2bc;" horiz-adv-x="331" 
d="M420 1450l8 6h76l4 -6l-143 -299l-9 -6h-45l-2 6z" />
    <glyph glyph-name="circumflex" unicode="&#x2c6;" horiz-adv-x="698" 
d="M608 1380l236 -184l-2 -6l-41 -45h-6l-213 147l-263 -147h-4l-28 45v6l303 184h18z" />
    <glyph glyph-name="caron" unicode="&#x2c7;" horiz-adv-x="704" 
d="M842 1380l26 -43l-2 -6l-301 -186h-16l-238 186l2 6l43 43h6l211 -147l263 147h6z" />
    <glyph glyph-name="breve" unicode="&#x2d8;" horiz-adv-x="712" 
d="M568 1208q75 0 137 50q61 50 88 131h69q-41 -147 -172 -213q-61 -31 -149 -31t-150 67q-61 68 -57 177h69q-2 -81 44 -131t121 -50z" />
    <glyph glyph-name="dotaccent" unicode="&#x2d9;" horiz-adv-x="229" 
d="M248 1220q0 34 28 62t63 29q34 -1 54 -21q21 -20 21 -54t-30 -62t-64 -29q-34 0 -53 20q-19 21 -19 55z" />
    <glyph glyph-name="ring" unicode="&#x2da;" horiz-adv-x="493" 
d="M459 1192q78 0 112 72t-13 121q-26 28 -74 28t-82 -39t-34 -83q0 -43 26 -71t65 -28zM507 1475q59 0 99 -42t41 -113q0 -70 -57 -130q-58 -60 -130 -60t-115 42q-42 42 -42 100t27 103q59 100 177 100z" />
    <glyph glyph-name="ogonek" unicode="&#x2db;" horiz-adv-x="477" 
d="M158 -387q-72 0 -114 36t-42 89q0 119 141 217q72 48 86 55h80q-10 -8 -63 -45q-54 -37 -100 -76t-59 -70q-13 -30 -13 -66q0 -35 26 -57t75 -23q50 -1 106 46h6l22 -41l-2 -8q-77 -57 -149 -57z" />
    <glyph glyph-name="tilde" unicode="&#x2dc;" horiz-adv-x="774" 
d="M453 1309q55 0 156 -36t168 -36t112 72h6l20 -56v-6q-63 -82 -157 -82q-60 0 -162 36t-165 36t-107 -72h-7l-24 56v8q66 80 160 80z" />
    <glyph glyph-name="hungarumlaut" unicode="&#x2dd;" horiz-adv-x="708" 
d="M707 1479l10 6h80l2 -6l-234 -328l-8 -6h-47l-4 6zM483 1479l13 6h77l2 -6l-233 -328l-8 -6h-47l-4 6z" />
    <glyph glyph-name="uni0326" unicode="&#x326;" horiz-adv-x="0" 
d="M-236 -111l9 7h75l2 -7l-129 -288l-6 -9h-49l-2 9z" />
    <glyph glyph-name="Wgrave" unicode="&#x1e80;" horiz-adv-x="1892" 
d="M322 1280q-30 0 -58 -18l-8 2l-16 55l2 8q41 29 98 29q109 0 127 -146l158 -1067l553 1188h79l134 -1186l594 1186h81l2 -6l-673 -1325h-60l-141 1198l-565 -1198h-60l-184 1180q-8 56 -21 78q-12 22 -42 22zM1036 1726l387 -231v-6l-22 -39h-6l-396 211v6l31 59h6z" />
    <glyph glyph-name="wgrave" unicode="&#x1e81;" horiz-adv-x="1507" 
d="M260 979q-29 0 -55 -21l-8 3l-13 53l4 6q40 29 92 29t80 -34t37 -104l117 -757l418 870h74l112 -872l443 872h73l4 -8l-524 -1016h-47l-119 905l-436 -905h-45l-143 870q-8 57 -22 83t-42 26zM1176 1145l-377 246v6l41 57h6l364 -264v-6l-28 -39h-6z" />
    <glyph glyph-name="Wacute" unicode="&#x1e82;" horiz-adv-x="1892" 
d="M322 1280q-30 0 -58 -18l-8 2l-16 55l2 8q39 29 98 29q109 0 127 -146l158 -1067l553 1188h79l134 -1186l594 1186h81l2 -6l-673 -1325h-60l-141 1198l-565 -1198h-60l-184 1180q-8 56 -21 78q-12 22 -42 22zM1432 1729h6l28 -62l-2 -6l-395 -211h-6l-19 41v6z" />
    <glyph glyph-name="wacute" unicode="&#x1e83;" horiz-adv-x="1507" 
d="M260 979q-29 0 -55 -21l-8 3l-13 53l4 6q40 29 92 29t80 -34t37 -104l117 -757l418 870h74l112 -872l443 872h73l4 -8l-524 -1016h-47l-119 905l-436 -905h-45l-141 870q-10 57 -24 83t-42 26zM795 1145h-7l-24 41v6l364 264h7l36 -59l-2 -6z" />
    <glyph glyph-name="Wdieresis" unicode="&#x1e84;" horiz-adv-x="1892" 
d="M322 1280q-30 0 -58 -18l-8 2l-16 55l2 8q39 29 98 29q109 0 127 -146l158 -1067l553 1188h79l134 -1186l594 1186h81l2 -6l-673 -1325h-60l-141 1198l-565 -1198h-60l-184 1180q-8 56 -21 78q-12 22 -42 22zM1474 1596q20 -20 19 -56q0 -36 -29 -64t-64 -28
q-34 0 -53 20q-35 37 -10 92q25 56 93 56q24 0 44 -20zM1094 1616q35 0 54 -20t19 -49t-13 -51q-28 -48 -83 -48q-31 0 -51 20t-20 56t29 64q30 28 65 28z" />
    <glyph glyph-name="wdieresis" unicode="&#x1e85;" horiz-adv-x="1507" 
d="M260 979q-29 0 -55 -21l-8 3l-13 53l4 6q40 29 92 29t80 -34t37 -104l117 -757l418 870h74l112 -872l443 872h73l4 -8l-524 -1016h-47l-119 905l-436 -905h-45l-143 870q-8 57 -22 83t-42 26zM1140 1145q-78 0 -77 80q0 29 29 57q30 28 62 29q32 -1 52 -21t20 -54
t-28 -62q-30 -28 -58 -29zM866 1311q34 -1 54 -21t20 -54t-30 -62t-63 -29q-34 0 -53 20q-20 21 -20 55t29 62t63 29z" />
    <glyph glyph-name="uni1E9E" unicode="&#x1e9e;" horiz-adv-x="1200" 
d="M864 1356q262 0 355 -207l-369 -365q14 -2 45 -2q127 -10 205 -102t78 -236t-83 -266q-40 -57 -96 -100q-129 -102 -295 -102t-276 96l-2 6l49 55l6 2q91 -84 229 -84t244 84q141 111 142 297q0 131 -78 205t-201 74h-82l15 75l366 367q-84 125 -266 125q-147 0 -256 -88
q-147 -121 -193 -381l-141 -809h-82l144 813q53 291 227 434q131 109 315 109z" />
    <glyph glyph-name="Ygrave" unicode="&#x1ef2;" horiz-adv-x="1257" 
d="M328 1280q-31 0 -58 -18l-6 2l-18 55l2 8q41 29 96 29t88 -32t70 -107l272 -582l567 696h89l2 -6l-627 -764l-100 -561h-82l98 557l-297 633q-25 50 -45 70t-51 20zM694 1726l387 -231v-6l-22 -39h-6l-396 211l-2 6l33 59h6z" />
    <glyph glyph-name="ygrave" unicode="&#x1ef3;" horiz-adv-x="1075" 
d="M278 1049q60 0 88 -35t44 -103l192 -774l535 887h73l4 -8l-686 -1139q-111 -184 -268 -184q-63 0 -113 37l-2 8l35 53l8 2q37 -31 86 -31q102 0 185 136l86 141l-207 823q-16 68 -32 92t-44 25q-27 0 -53 -21l-8 3l-13 53q30 35 90 35zM891 1145l-377 246v6l41 57h6
l365 -264v-6l-29 -39h-6z" />
    <glyph glyph-name="uni1EF8" unicode="&#x1ef8;" horiz-adv-x="1257" 
d="M328 1280q-31 0 -58 -18l-6 2l-18 55l2 8q41 29 96 29t88 -32t70 -107l272 -582l567 696h89l2 -6l-627 -764l-100 -561h-82l98 557l-297 633q-25 50 -45 70t-51 20zM745 1614q61 0 170 -38t183 -38t123 76h8l26 -55v-7q-70 -84 -178 -84q-53 0 -114 18t-121 38
q-60 18 -111 18q-84 0 -131 -74h-6l-29 56l2 6q69 84 178 84z" />
    <glyph glyph-name="uni1EF9" unicode="&#x1ef9;" horiz-adv-x="1075" 
d="M278 1049q60 0 88 -35t44 -103l192 -774l535 887h73l4 -8l-686 -1139q-111 -184 -268 -184q-63 0 -113 37l-2 8l35 53l8 2q37 -31 86 -31q102 0 185 136l86 141l-207 823q-19 85 -38 101t-42 16t-49 -21l-8 3l-13 53q30 35 90 35zM606 1309q54 0 156 -36t169 -36t111 72
h7l20 -56v-6q-63 -82 -158 -82q-59 0 -161 36t-166 36t-107 -72h-6l-25 56v8q66 80 160 80z" />
    <glyph glyph-name="endash" unicode="&#x2013;" horiz-adv-x="1110" 
d="M252 647h833l-12 -65h-833z" />
    <glyph glyph-name="emdash" unicode="&#x2014;" horiz-adv-x="1398" 
d="M252 647h1122l-10 -65h-1124z" />
    <glyph glyph-name="quoteleft" unicode="&#x2018;" horiz-adv-x="391" 
d="M438 1026q-26 -27 -68 -27t-65 40q-10 19 -10 42q0 113 182 303h6l35 -30v-6q-53 -60 -80 -110t-30 -75q52 -13 54 -78q2 -32 -24 -59z" />
    <glyph glyph-name="quoteright" unicode="&#x2019;" horiz-adv-x="385" 
d="M384 1366q26 27 66 27t66 -41q10 -18 10 -43q0 -111 -182 -301h-8l-33 30v6q51 60 79 110t32 75q-54 13 -55 61q-1 49 25 76z" />
    <glyph glyph-name="quotesinglbase" unicode="&#x201a;" horiz-adv-x="421" 
d="M222 137q36 -1 58 -23t21 -59q0 -111 -180 -303h-8l-35 33l2 6q51 57 79 109t29 75q-54 14 -54 78q0 33 26 59t62 25z" />
    <glyph glyph-name="quotedblleft" unicode="&#x201c;" horiz-adv-x="634" 
d="M609 999q-29 0 -51 24t-21 58q0 113 180 303h8l35 -30l-2 -6q-51 -60 -78 -110t-31 -75q23 -6 39 -26q35 -43 6 -91q-29 -47 -85 -47zM374 999q-36 0 -58 24t-21 58q0 113 180 303h8l35 -30v-6q-53 -60 -80 -110t-30 -75q52 -13 54 -78q0 -32 -26 -59t-62 -27z" />
    <glyph glyph-name="quotedblright" unicode="&#x201d;" horiz-adv-x="630" 
d="M655 1233q-55 13 -55 72q0 58 44 78q21 12 50 12q30 0 52 -23t22 -59q0 -111 -182 -301h-6l-35 30v7q53 59 80 109t30 75zM446 1395q36 0 58 -23t22 -59q0 -111 -182 -301h-6l-35 30v7q53 59 80 109t31 75q-54 13 -55 62t25 75t62 25z" />
    <glyph glyph-name="quotedblbase" unicode="&#x201e;" horiz-adv-x="659" 
d="M460 137q36 1 58 -23t21 -59q0 -111 -181 -303h-8l-35 31l2 8q51 57 79 107t30 77q-23 5 -39 25t-16 52t26 59q27 26 63 26zM131 52q-1 32 25 58t62 27t58 -23t21 -59q0 -111 -180 -303h-8l-35 31l2 6q106 122 108 186q-23 5 -38 25t-15 52z" />
    <glyph glyph-name="dagger" unicode="&#x2020;" horiz-adv-x="886" 
d="M950 899l-10 -68h-309l-205 -1150h-80l205 1150h-311l12 68h311l78 453h80l-78 -453h307z" />
    <glyph glyph-name="daggerdbl" unicode="&#x2021;" horiz-adv-x="886" 
d="M940 831h-309l-111 -630h307l-10 -68h-309l-82 -452h-80l82 452h-311l12 68h311l111 630h-311l12 68h311l78 453h80l-78 -453h307z" />
    <glyph glyph-name="bullet" unicode="&#x2022;" horiz-adv-x="661" 
d="M416 418q-64 0 -104 40q-38 40 -38 106t56 122q56 55 122 55q64 0 103 -40q39 -41 39 -107t-57 -121t-121 -55z" />
    <glyph glyph-name="ellipsis" unicode="&#x2026;" horiz-adv-x="972" 
d="M862 67q0 -34 -28 -63t-63 -29q-34 1 -53 21q-20 20 -20 54t29 63t63 29t53 -21q19 -20 19 -54zM488 -25q-34 1 -54 21t-20 55t29 63q30 28 64 28t53 -21q20 -20 20 -54t-29 -63t-63 -29zM297 72q1 -41 -29 -69t-64 -28q-34 1 -54 21t-20 54t29 63q49 48 103 19
q35 -19 35 -60z" />
    <glyph glyph-name="perthousand" unicode="&#x2030;" horiz-adv-x="2285" 
d="M2208 438q0 108 -46 173t-118 65q-110 0 -180 -116t-70 -286q0 -68 21 -120q41 -111 153 -111q60 0 117 52q57 51 90 143t33 200zM1257 43q109 0 177 114t67 285q0 102 -48 168t-122 66q-109 0 -177 -115t-67 -287q0 -102 48 -166t122 -65zM1946 -25q-98 0 -161 81
t-63 213t44 242t121 171t172 61t157 -80q61 -81 61 -214q0 -203 -96 -339t-235 -135zM1247 -25q-100 0 -165 81q-64 81 -64 213t42 242t117 171t169 61q94 1 161 -81q66 -82 66 -213q1 -203 -93 -339t-233 -135zM487 655q109 0 178 115t68 285q0 104 -49 169t-123 64
q-109 0 -177 -114t-67 -287q0 -102 48 -167t122 -65zM1554 1331v-10l-1216 -1321h-74l-2 8l1219 1323h73zM475 588q-98 0 -163 82t-64 211q0 205 93 340t232 135q98 0 164 -81t66 -214q1 -203 -93 -338t-235 -135z" />
    <glyph glyph-name="guilsinglleft" unicode="&#x2039;" horiz-adv-x="557" 
d="M584 909v-4l-293 -291l190 -290v-5l-53 -47h-6l-225 334l2 17l344 333h6z" />
    <glyph glyph-name="guilsinglright" unicode="&#x203a;" horiz-adv-x="557" 
d="M354 956l224 -333l-5 -17l-340 -334h-6l-37 47v5l293 290l-190 291v4l55 47h6z" />
    <glyph glyph-name="fraction" unicode="&#x2044;" horiz-adv-x="1056" 
d="M1296 1331v-10l-1214 -1321h-74l-2 8l1219 1323h71z" />
    <glyph glyph-name="Euro" unicode="&#x20ac;" horiz-adv-x="1460" 
d="M1085 1356q162 0 291 -66.5t203 -187.5l-2 -8l-61 -41h-7q-66 109 -178 167t-254 58q-250 0 -438 -156q-143 -115 -211 -295h668l-27 -67h-661q-29 -111 -23 -219h662l-29 -68h-627q31 -186 164 -303t320 -117t356 104q78 48 141 111h8l47 -47v-6q-111 -115 -255 -177.5
t-298 -62.5q-229 0 -384.5 139.5t-184.5 358.5h-149l26 68h117q-6 106 25 219h-117l26 67h109q76 217 254 359q213 170 489 170z" />
    <glyph glyph-name="trademark" unicode="&#x2122;" horiz-adv-x="1368" 
d="M774 1329l-10 -55h-205l-108 -608h-66l107 608h-201l8 55h475zM1343 1331h54l-51 -665h-66l39 512l-287 -512h-53l-107 514l-141 -514h-65l186 665h55l117 -573z" />
    <glyph glyph-name="minus" unicode="&#x2212;" horiz-adv-x="1189" 
d="M266 698h905l-12 -65h-905z" />
    <glyph glyph-name="approxequal" unicode="&#x2248;" horiz-adv-x="1116" 
d="M874 446q-80 0 -230 36t-208 36q-110 0 -166 -72h-6l-31 52l3 6q82 86 196 86q80 0 228 -36t232 -36t140 72h6l31 -53l-2 -7q-78 -84 -193 -84zM912 743q-64 0 -215 36t-208 36q-111 0 -165 -72h-7l-30 52v6q82 86 198 86q78 0 228 -36q151 -36 233 -36t137 72h7l32 -53
l-2 -7q-25 -25 -44 -41t-59 -30q-41 -14 -105 -13z" />
    <glyph glyph-name="notequal" unicode="&#x2260;" horiz-adv-x="1189" 
d="M281 143v11l235 315h-301l12 66h340l197 264h-492l13 65h530l201 269h74l-3 -9l-194 -260h299l-12 -65h-336l-197 -264h486l-11 -66h-524l-244 -326h-73z" />
    <glyph glyph-name="uniF8FF" unicode="&#xf8ff;" horiz-adv-x="2807" 
d="M1456 338q0 43 -39 43q-47 0 -47 -62q0 -21 8 -55q78 12 78 74zM1997 350v4l2 4v9q0 39 -37 39q-45 0 -45 -56h80zM2312 518q14 0 15 12q0 12 -15 13h-16v-25h16zM2279 557h33q31 0 31 -25q0 -18 -16 -24l16 -27h-19l-14 23h-14v-23h-17v76zM2308 457q25 0 43 18t19 43
q0 25 -18 43q-18 19 -44 19q-25 0 -43 -18t-18 -44q0 -25 18 -43t43 -18zM2232 518q0 32 23 54t53 22t54 -23q22 -23 22 -53t-23 -54q-23 -22 -53 -22t-54 22q-22 22 -22 54zM1704 346q0 260 252 260q106 0 168 -61t61 -172q0 -24 -10 -74h-246q13 -50 88 -50q76 1 107 32
v-150q-4 -4 -44 -18t-104 -15q-136 0 -204 67t-68 181zM1153 12q0 295 10 420l13 158h159l6 -60q8 -43 9 -94q29 170 159 170q74 0 117 -60t43 -182q1 -122 -67 -194t-193 -72q0 -14 2 -22l2 -64h-260zM829 590q-4 -78 -4 -216q0 -54 33 -55q31 0 31 54v18l-2 92
q-2 31 -2 107h217l6 -82q6 -76 6 -219t-74 -210t-233 -67q-87 0 -133 14t-58 29v170q45 -37 136 -38q92 -1 137 36q20 16 22 37q-30 -30 -116 -31q-190 0 -191 152v16h-92l4 -125q27 0 57 13v-152q-27 -33 -137 -35q-150 0 -149 131l4 168h-55v170l247 82l9 -59h337z
M2502 817q48 1 48 59t-48 58t-48 -58t48 -59zM776 817q49 1 49 59t-49 58q-43 0 -43 -58t43 -59zM2255 901q0 254 246 254q141 0 194 -68q53 -67 53 -183t-61 -182t-185 -65q-124 -1 -186 65t-61 179zM1712 670q0 342 23 477h155l6 -51q6 -92 7 -101l6 21q10 44 34 76
q47 63 127 63t114 -48t36 -159l4 -278h-229l4 192q0 51 -33 51t-33 -51l11 -192h-232zM698 657q-182 0 -182 230q0 133 64 201t206 67q238 0 238 -229v-256h-156l-18 118q-25 -131 -152 -131zM1051 965v170l237 73l8 -61h353q8 -105 12 -157t4 -320h-233q0 248 4 295h-117
l4 -129q-1 -4 19 -4q20 -1 38 8v-148q-2 -8 -30 -21t-97 -14q-160 0 -159 131l4 177h-47zM240 670q0 303 10 446l12 182h195q2 -46 11 -210t9 -418h-237zM1548 1174q-53 0 -87 36t-34 87q0 52 34 87t87 35t87 -35t34 -87q0 -51 -34 -87t-87 -36z" />
    <glyph glyph-name="H.ss01" horiz-adv-x="1431" 
d="M402 1356q58 0 85 -39t15 -109l-88 -499h856l110 622h80l-209 -1188q-16 -92 39 -92q33 0 56 19l6 -2l12 -56l-4 -8q-37 -29 -96 -29t-84 40t-13 108l88 514h-856l-112 -637h-80l211 1190q16 90 -43 90q-25 0 -51 -18l-7 2l-14 55l2 8q39 29 97 29z" />
    <glyph glyph-name="K.ss01" horiz-adv-x="1142" 
d="M1064 -25q-56 0 -100 36t-90 108l-333 520l-168 -150l-86 -489h-82l211 1190q16 90 -41 90q-25 0 -51 -18l-7 2l-14 55l2 8q39 29 97 29t85 -39t13 -109l-107 -608l801 731h96v-6l-686 -629l350 -544q63 -100 127 -101q31 1 56 19l8 -2l14 -56l-2 -8q-37 -29 -93 -29z
" />
    <glyph glyph-name="N.ss01" horiz-adv-x="1456" 
d="M167 -25q-56 0 -87 29l-2 8l31 56l8 2q14 -18 47 -19q59 0 76 92l211 1188h53l702 -1179l209 1179h80l-235 -1331h-54l-704 1180l-185 -1057q-12 -70 -53 -109t-97 -39z" />
    <glyph glyph-name="Nacute.ss01" horiz-adv-x="1456" 
d="M167 -25q-56 0 -87 29l-2 8l31 56l8 2q14 -18 47 -19q59 0 76 92l211 1188h53l702 -1179l209 1179h80l-235 -1331h-54l-704 1180l-185 -1057q-12 -70 -53 -109t-97 -39zM1188 1729h6l29 -62l-2 -6l-396 -211h-6l-18 41v6z" />
    <glyph glyph-name="Ncaron.ss01" horiz-adv-x="1456" 
d="M167 -25q-56 0 -87 29l-2 8l31 56l8 2q14 -18 47 -19q59 0 76 92l211 1188h53l702 -1179l209 1179h80l-235 -1331h-54l-704 1180l-185 -1057q-12 -70 -53 -109t-97 -39zM1288 1686l23 -46v-6l-316 -184h-10l-250 184v6l39 46h6l226 -150l276 150h6z" />
    <glyph glyph-name="Ncommaaccent.ss01" horiz-adv-x="1456" 
d="M713 -106l8 6h76l4 -6l-131 -291l-6 -6h-50l-2 6zM167 -25q-56 0 -87 29l-2 8l31 56l8 2q14 -18 47 -19q59 0 76 92l211 1188h53l702 -1179l209 1179h80l-235 -1331h-54l-704 1180l-185 -1057q-12 -70 -53 -109t-97 -39z" />
    <glyph glyph-name="Eng.ss01" horiz-adv-x="1456" 
d="M882 -397q-249 0 -331 182l2 6l55 41h8q74 -156 261 -156q113 0 193 69t104 200l14 86l-686 1149l-185 -1057q-12 -70 -54 -109t-96 -39t-87 29l-2 8l31 56l8 2q14 -18 47 -19q59 0 76 92l209 1188h55l702 -1177l209 1177h80l-248 -1397q-27 -160 -135 -246t-230 -85z
" />
    <glyph glyph-name="Ntilde.ss01" horiz-adv-x="1456" 
d="M167 -25q-56 0 -87 29l-2 8l31 56l8 2q14 -18 47 -19q59 0 76 92l211 1188h53l702 -1179l209 1179h80l-235 -1331h-54l-704 1180l-185 -1057q-12 -70 -53 -109t-97 -39zM844 1614q61 0 170.5 -38t182.5 -38t124 76h6l27 -55v-7q-70 -84 -176 -84q-66 0 -177.5 37
t-169.5 37q-84 0 -133 -74h-6l-28 56l2 6q69 84 178 84z" />
    <glyph glyph-name="Q.ss01" horiz-adv-x="1542" 
d="M790 53q76 0 128 6q-93 147 -150 199q-57 54 -102 68t-127 14t-174 -51q94 -151 263 -207q86 -29 162 -29zM1491 754q-1 224 -149 374t-386 150t-419 -145q-121 -99 -186 -241t-65 -288t46 -250q111 63 241 64q168 0 280 -125q59 -66 155 -213q128 35 240 126t177 233
q66 142 66 315zM1392 -324q-136 0 -229 74q-92 74 -200 242q-80 -16 -164 -17q-258 0 -427 170t-169 420q0 394 286 625q209 166 479 166t439 -170q170 -170 170 -424t-133 -454q-63 -95 -156 -167q-106 -86 -239 -127q94 -141 168 -201q73 -61 187 -61t214 76l6 -4l27 -55
l-4 -9q-119 -84 -255 -84z" />
    <glyph glyph-name="W.ss01" horiz-adv-x="1925" 
d="M248 1327q41 29 93 29t76 -23q44 -40 60 -125l252 -1075l315 553l-145 639l6 6h76l123 -563l321 563h82l2 -6l-372 -643l120 -553l633 1079q86 148 186 148q54 0 85 -29l2 -8l-33 -55l-8 -2q-20 18 -51 18q-51 0 -111 -100l-694 -1180h-58l-133 600l-344 -600h-57
l-279 1180q-12 52 -28 76t-44 24t-53 -18l-8 2l-18 55z" />
    <glyph glyph-name="Wacute.ss01" horiz-adv-x="1925" 
d="M248 1327q41 29 93 29t76 -23q44 -40 60 -125l252 -1075l315 553l-145 639l6 6h76l123 -563l321 563h82l2 -6l-372 -643l120 -553l633 1079q86 148 186 148q54 0 85 -29l2 -8l-33 -55l-8 -2q-20 18 -51 18q-51 0 -111 -100l-694 -1180h-58l-133 600l-344 -600h-57
l-279 1180q-12 52 -28 76t-44 24t-53 -18l-8 2l-18 55zM1393 1729h6l28 -62l-2 -6l-395 -211h-6l-18 41v6z" />
    <glyph glyph-name="Wcircumflex.ss01" horiz-adv-x="1925" 
d="M336 1356q47 0 74 -18q47 -32 67 -130l252 -1075l315 553l-145 639l6 6h76l123 -563l321 563h82l2 -6l-372 -643l120 -553l633 1079q86 148 186 148q54 0 85 -29l2 -8l-33 -55l-8 -2q-20 18 -51 18q-51 0 -111 -100l-694 -1180h-58l-133 600l-344 -600h-57l-279 1180
q-12 52 -28 76t-44 24t-53 -18l-8 2l-18 55l4 8q41 29 88 29zM1239 1686l250 -185v-6l-39 -45h-6l-225 149l-277 -149h-6l-23 45v6l316 185h10z" />
    <glyph glyph-name="Wdieresis.ss01" horiz-adv-x="1925" 
d="M248 1327q41 29 93 29t76 -23q44 -40 60 -125l252 -1075l315 553l-145 639l6 6h76l123 -563l321 563h82l2 -6l-372 -643l120 -553l633 1079q86 148 186 148q54 0 85 -29l2 -8l-33 -55l-8 -2q-20 18 -51 18q-51 0 -111 -100l-694 -1180h-58l-133 600l-344 -600h-57
l-279 1180q-12 52 -28 76t-44 24t-53 -18l-8 2l-18 55zM1380 1616q34 0 54 -20t20 -56t-29 -64t-63 -28q-33 0 -53 20q-21 20 -21 56t28 64t64 28zM961 1524q-1 36 29 64t65 28t54 -20t19 -49t-13 -51q-28 -48 -83 -48q-31 0 -51 20t-20 56z" />
    <glyph glyph-name="Wgrave.ss01" horiz-adv-x="1925" 
d="M248 1327q41 29 97 29t86 -36q29 -36 46 -112l252 -1075l315 553l-145 639l6 6h76l123 -563l321 563h82l2 -6l-372 -643l120 -553l633 1079q86 148 186 148q54 0 85 -29l2 -8l-33 -55l-8 -2q-20 18 -51 18q-51 0 -111 -100l-694 -1180h-58l-133 600l-344 -600h-57
l-279 1180q-12 52 -28 76t-44 24t-53 -18l-8 2l-18 55zM997 1726l389 -231v-6l-24 -39h-6l-393 211l-2 6l30 59h6z" />
    <glyph glyph-name="N.ss02" horiz-adv-x="1466" 
d="M1540 1280q-55 0 -72 -92l-211 -1188h-53l-702 1180l-187 -1057q-12 -68 -53 -108t-97 -40t-87 29l-2 8l33 56l8 2q16 -18 45 -19q59 0 76 92l211 1188h53l702 -1179l187 1054q12 70 53 110t95 40t87 -29l2 -8l-33 -55l-8 -2q-20 18 -47 18z" />
    <glyph glyph-name="Nacute.ss02" horiz-adv-x="1466" 
d="M1540 1280q-55 0 -72 -92l-211 -1188h-53l-702 1180l-187 -1057q-12 -68 -53 -108t-97 -40t-87 29l-2 8l33 56l8 2q16 -18 45 -19q59 0 76 92l211 1188h53l702 -1179l187 1054q12 70 53 110t95 40t87 -29l2 -8l-33 -55l-8 -2q-20 18 -47 18zM840 1450h-6l-21 41v6
l389 232h6l29 -62l-2 -6z" />
    <glyph glyph-name="Ncaron.ss02" horiz-adv-x="1466" 
d="M1540 1280q-55 0 -72 -92l-211 -1188h-53l-702 1180l-187 -1057q-12 -68 -53 -108t-97 -40t-87 29l-2 8l33 56l8 2q16 -18 45 -19q59 0 76 92l211 1188h53l702 -1179l187 1054q12 70 53 110t95 40t87 -29l2 -8l-33 -55l-8 -2q-20 18 -47 18zM1010 1450h-13l-247 184v6
l38 46h7l225 -150l276 150h7l22 -46v-6z" />
    <glyph glyph-name="Ncommaaccent.ss02" horiz-adv-x="1466" 
d="M723 -100h76l2 -6l-129 -291l-8 -6h-48l-2 6l101 291zM1540 1280q-55 0 -72 -92l-211 -1188h-53l-702 1180l-187 -1057q-12 -68 -53 -108t-97 -40t-87 29l-2 8l33 56l8 2q16 -18 45 -19q59 0 76 92l211 1188h53l702 -1179l187 1054q12 70 53 110t95 40t87 -29l2 -8
l-33 -55l-8 -2q-20 18 -47 18z" />
    <glyph glyph-name="Eng.ss02" horiz-adv-x="1464" 
d="M1546 1356q45 0 78 -29l2 -8l-33 -55l-8 -2q-20 18 -47 18q-55 0 -72 -92l-223 -1254q-29 -160 -134 -245.5t-228 -85.5q-249 0 -332 182l2 6l55 41h8q72 -154 263 -154q113 0 192.5 68t101.5 199l13 82l-684 1153l-185 -1057q-17 -89 -83 -129q-32 -18 -77.5 -18.5
t-76.5 28.5l-2 8l30 56l9 2q16 -18 47 -19q59 0 76 92l208 1188h54l702 -1177l187 1052q17 94 81 132q32 18 76 18z" />
    <glyph glyph-name="Ntilde.ss02" horiz-adv-x="1466" 
d="M1540 1280q-55 0 -72 -92l-211 -1188h-53l-702 1180l-187 -1057q-12 -68 -53 -108t-97 -40t-87 29l-2 8l33 56l8 2q16 -18 45 -19q59 0 76 92l211 1188h53l702 -1179l187 1054q12 70 53 110t95 40t87 -29l2 -8l-33 -55l-8 -2q-20 18 -47 18zM858 1614q61 0 170 -38
t182.5 -38t122.5 76h8l27 -55v-7q-70 -84 -178 -84q-63 0 -176 37t-170 37q-84 0 -131 -74h-6l-29 56l2 6q70 84 178 84z" />
    <glyph glyph-name="W.ss02" horiz-adv-x="1957" 
d="M2100 1280q-28 0 -50 -24t-51 -76l-600 -1180h-60l-139 1198l-565 -1198h-60l-184 1180q-8 52 -22 76t-43 24t-56 -18l-8 2l-18 55l4 8q39 29 98 29q106 0 127 -146l156 -1065l553 1186h82l131 -1184l534 1063q72 145 180 146q53 0 82 -29l4 -8l-34 -55l-7 -2
q-26 18 -54 18z" />
    <glyph glyph-name="Wacute.ss02" horiz-adv-x="1957" 
d="M2100 1280q-28 0 -50 -24t-51 -76l-600 -1180h-60l-139 1198l-565 -1198h-60l-184 1180q-8 52 -22 76t-43 24t-56 -18l-8 2l-18 55l4 8q39 29 98 29q106 0 127 -146l156 -1065l553 1186h82l131 -1184l534 1063q72 145 180 146q53 0 82 -29l4 -8l-34 -55l-7 -2
q-26 18 -54 18zM1427 1729h7l28 -62l-2 -6l-393 -211h-8l-19 41v6z" />
    <glyph glyph-name="Wcircumflex.ss02" horiz-adv-x="1957" 
d="M2106 1280q-22 0 -40 -11t-32 -33t-35 -56l-600 -1180h-60l-139 1198l-565 -1198h-60l-184 1180q-8 52 -22 76t-43 24t-56 -18l-8 2l-18 55l4 8q39 29 98 29q106 0 127 -146l156 -1065l553 1186h82l131 -1184l534 1063q72 145 180 146q53 0 82 -29l4 -8l-34 -55l-7 -2
q-25 18 -48 18zM1274 1686l250 -185v-6l-39 -45h-6l-226 149l-276 -149h-6l-23 45v6l316 185h10z" />
    <glyph glyph-name="Wdieresis.ss02" horiz-adv-x="1957" 
d="M2106 1280q-22 0 -40 -11t-32 -33t-35 -56l-600 -1180h-60l-139 1198l-565 -1198h-60l-184 1180q-8 52 -22 76t-43 24t-56 -18l-8 2l-18 55l4 8q39 29 98 29q106 0 127 -146l156 -1065l553 1186h82l131 -1184l534 1063q72 145 180 146q53 0 82 -29l4 -8l-34 -55l-7 -2
q-25 18 -48 18zM1398 1448q-34 0 -55 20q-20 20 -20 45t8 43q27 60 95 60q24 0 44 -20t20 -56t-29 -64t-63 -28zM1090 1616q35 0 54 -20t19 -49t-13 -51q-28 -48 -83 -48q-31 0 -50 20t-19 56t28 64q29 28 64 28z" />
    <glyph glyph-name="Wgrave.ss02" horiz-adv-x="1957" 
d="M2106 1280q-22 0 -40 -11t-32 -33t-35 -56l-600 -1180h-60l-139 1198l-565 -1198h-60l-184 1180q-8 52 -22 76t-43 24t-56 -18l-8 2l-18 55l4 8q39 29 98 29q106 0 127 -146l156 -1065l553 1186h82l131 -1184l534 1063q72 145 180 146q53 0 82 -29l4 -8l-34 -55l-7 -2
q-25 18 -48 18zM1034 1726l387 -231v-6l-22 -39h-6l-396 211l-2 6l33 59h6z" />
    <glyph glyph-name="i.loclTRK" horiz-adv-x="399" 
d="M160 0l180 1024h78l-180 -1024h-78zM332 1220q0 34 28 62t64 29q35 -1 55 -21q21 -20 21 -54t-31 -62t-65 -29q-34 0 -53 20q-19 21 -19 55z" />
    <glyph glyph-name="a.ss01" 
d="M1106 596q0 170 -100 275t-269 105t-297 -108q-188 -154 -188 -450q0 -148 99 -260t264 -111q165 0 286 92q133 107 180 277q25 86 25 180zM170 424q0 154 61 287t170 217q150 121 359 121q133 0 235 -73t148 -194l43 242h78l-158 -887q-16 -92 41 -92q30 1 55 21l6 -3
l11 -53l-2 -6q-39 -29 -93 -29t-81 39q-26 39 -15 109l14 76q-167 -224 -446 -224q-190 0 -308 128t-118 321z" />
    <glyph glyph-name="aacute.ss01" 
d="M1106 596q0 170 -100 275t-269 105t-297 -108q-188 -154 -188 -450q0 -148 99 -260t264 -111q165 0 286 92q133 107 180 277q25 86 25 180zM170 424q0 154 61 287t170 217q150 121 359 121q133 0 235 -73t148 -194l43 242h78l-158 -887q-16 -92 41 -92q30 1 55 21l6 -3
l11 -53l-2 -6q-39 -29 -93 -29t-81 39q-26 39 -15 109l14 76q-167 -224 -446 -224q-190 0 -308 128t-118 321zM629 1145h-6l-25 41v6l363 264h8l37 -59l-2 -6z" />
    <glyph glyph-name="abreve.ss01" 
d="M1106 596q0 170 -100 275t-269 105t-297 -108q-188 -154 -188 -450q0 -148 99 -260t264 -111q165 0 286 92q133 107 180 277q25 86 25 180zM170 424q0 154 61 287t170 217q150 121 359 121q133 0 235 -73t148 -194l43 242h78l-158 -887q-16 -92 41 -92q30 1 55 21l6 -3
l11 -53l-2 -6q-39 -29 -93 -29t-81 39q-26 39 -15 109l14 76q-167 -224 -446 -224q-190 0 -308 128t-118 321zM762 1145q-88 0 -150 67q-61 68 -57 177h70q-2 -81 44 -131t121 -50t136 50t88 131h69q-41 -147 -171 -213q-62 -31 -150 -31z" />
    <glyph glyph-name="acircumflex.ss01" 
d="M1106 596q0 170 -100 275t-269 105t-297 -108q-188 -154 -188 -450q0 -148 99 -260t264 -111q165 0 286 92q133 107 180 277q25 86 25 180zM170 424q0 154 61 287t170 217q150 121 359 121q133 0 235 -73t148 -194l43 242h78l-158 -887q-16 -92 41 -92q30 1 55 21l6 -3
l11 -53l-2 -6q-39 -29 -93 -29t-81 39q-26 39 -15 109l14 76q-167 -224 -446 -224q-190 0 -308 128t-118 321zM539 1145h-4l-29 45v6l303 184h16l236 -184v-6l-41 -45h-6l-213 147z" />
    <glyph glyph-name="adieresis.ss01" 
d="M1106 596q0 170 -100 275t-269 105t-297 -108q-188 -154 -188 -450q0 -148 99 -260t264 -111q165 0 286 92q133 107 180 277q25 86 25 180zM170 424q0 154 61 287t170 217q150 121 359 121q133 0 235 -73t148 -194l43 242h78l-158 -887q-16 -92 41 -92q30 1 55 21l6 -3
l11 -53l-2 -6q-39 -29 -93 -29t-81 39q-26 39 -15 109l14 76q-167 -224 -446 -224q-190 0 -308 128t-118 321zM930 1145q-78 0 -78 80q0 29 29 57t63 29q34 -1 53 -21q21 -20 21 -54t-30 -62t-58 -29zM656 1311q34 -1 54 -21t21 -54t-29 -62t-64 -29q-34 0 -53 20
q-19 21 -19 55t28 62t62 29z" />
    <glyph glyph-name="agrave.ss01" 
d="M1106 596q0 170 -100 275t-269 105t-297 -108q-188 -154 -188 -450q0 -148 99 -260t264 -111q165 0 286 92q133 107 180 277q25 86 25 180zM170 424q0 154 61 287t170 217q150 121 359 121q133 0 235 -73t148 -194l43 242h78l-158 -887q-16 -92 41 -92q30 1 55 21l6 -3
l11 -53l-2 -6q-39 -29 -93 -29t-81 39q-26 39 -15 109l14 76q-167 -224 -446 -224q-190 0 -308 128t-118 321zM926 1145l-377 246v6l41 57h6l365 -264v-6l-29 -39h-6z" />
    <glyph glyph-name="amacron.ss01" 
d="M1106 596q0 170 -100 275t-269 105t-297 -108q-188 -154 -188 -450q0 -148 99 -260t264 -111q165 0 286 92q133 107 180 277q25 86 25 180zM170 424q0 154 61 287t170 217q150 121 359 121q133 0 235 -73t148 -194l43 242h78l-158 -887q-16 -92 41 -92q30 1 55 21l6 -3
l11 -53l-2 -6q-39 -29 -93 -29t-81 39q-26 39 -15 109l14 76q-167 -224 -446 -224q-190 0 -308 128t-118 321zM1061 1255l-10 -65h-533l12 65h531z" />
    <glyph glyph-name="aogonek.ss01" 
d="M1106 596q0 170 -100 275t-269 105t-297 -108q-188 -154 -188 -450q0 -148 99 -260t264 -111q165 0 286 92q133 107 180 277q25 86 25 180zM170 424q0 154 61 287t170 217q150 121 359 121q133 0 235 -73t148 -194l43 242h78l-158 -887q-16 -92 41 -92q30 1 55 21l6 -3
l11 -53l-2 -6q-161 -107 -199 -158q-39 -50 -39 -93q0 -83 92 -87q59 0 115 45h6l22 -39l-2 -8q-78 -59 -148 -59t-113 36q-42 37 -42 105q-1 68 51 124t136 110q-89 21 -68 143l14 76q-167 -224 -446 -224q-190 0 -308 128t-118 321z" />
    <glyph glyph-name="aring.ss01" 
d="M1106 606q0 104 -45 189q-45 86 -127 134t-186 48q-180 0 -308 -109q-188 -154 -188 -450q0 -148 99 -260t264 -111q165 0 286 92q205 166 205 467zM170 424q0 154 61 287t170 217q150 121 359 121q133 0 235 -73t148 -194l43 242h78l-158 -887q-16 -92 41 -92
q30 1 55 21l6 -3l11 -53l-2 -6q-39 -29 -93 -29t-81 39q-26 39 -15 109l14 76q-167 -224 -446 -224q-190 0 -308 128t-118 321zM911 1324q1 34 -25 62t-74 27q-48 0 -82 -39t-34 -83q0 -43 26 -71t65 -28t67 19q57 38 57 113zM975 1320q1 -70 -57 -130t-131 -60t-115 42
t-41 94q0 93 59 150q58 58 150 58q52 0 94 -41q42 -42 41 -113z" />
    <glyph glyph-name="atilde.ss01" 
d="M1106 596q0 170 -100 275t-269 105t-297 -108q-188 -154 -188 -450q0 -148 99 -260t264 -111q165 0 286 92q133 107 180 277q25 86 25 180zM170 424q0 154 61 287t170 217q150 121 359 121q133 0 235 -73t148 -194l43 242h78l-158 -887q-16 -92 41 -92q30 1 55 21l6 -3
l11 -53l-2 -6q-39 -29 -93 -29t-81 39q-26 39 -15 109l14 76q-167 -224 -446 -224q-190 0 -308 128t-118 321zM641 1309q55 0 157 -36t168 -36t111 72h6l21 -56v-6q-63 -82 -158 -82q-60 0 -162 36t-166 36t-106 -72h-6l-25 56v8q66 80 160 80z" />
    <glyph glyph-name="e.ss01" horiz-adv-x="1110" 
d="M684 461q172 0 280.5 76.5t108.5 216.5q0 100 -84 161.5t-239.5 61.5t-293.5 -102.5t-186 -292.5q97 -66 256 -102q82 -18 158 -19zM639.5 47q184.5 0 349.5 150h8l41 -43v-9q-180 -170 -420 -170q-201 0 -324.5 124t-123.5 303.5t67.5 316.5t186.5 221q152 109 338 109
t288.5 -78t102.5 -205q0 -178 -134 -276.5t-347 -98.5q-113 0 -224.5 32t-191.5 83q-4 -31 -4 -60q-6 -180 98.5 -289.5t289 -109.5z" />
    <glyph glyph-name="eacute.ss01" horiz-adv-x="1110" 
d="M684 461q172 0 280.5 76.5t108.5 216.5q0 100 -84 161.5t-239.5 61.5t-293.5 -102.5t-186 -292.5q97 -66 256 -102q82 -18 158 -19zM639 47q184 0 350 150h8l41 -43v-9q-180 -170 -420 -170q-201 0 -324.5 124t-123.5 303.5t67.5 316.5t186.5 221q152 109 354 109
q113 0 199 -36q176 -74 176 -249.5t-134 -274t-347 -98.5q-113 0 -224.5 32t-191.5 83q-4 -31 -4 -60q-6 -180 98.5 -289.5t288.5 -109.5zM662 1145h-7l-24 41v6l364 264h6l37 -59v-6z" />
    <glyph glyph-name="ecaron.ss01" horiz-adv-x="1110" 
d="M684 461q172 0 280.5 76.5t108.5 216.5q0 100 -84 161.5t-239.5 61.5t-293.5 -102.5t-186 -292.5q97 -66 256 -102q82 -18 158 -19zM639 47q184 0 350 150h8l41 -43v-9q-180 -170 -420 -170q-201 0 -324.5 124t-123.5 303.5t67.5 316.5t186.5 221q152 109 338 109
t288.5 -78t102.5 -205q0 -178 -134 -276.5t-347 -98.5q-113 0 -224.5 32t-191.5 83q-4 -31 -4 -60q-6 -180 98.5 -289.5t288.5 -109.5zM819 1145h-18l-238 186l2 6l43 43h6l211 -147l262 147h7l26 -43l-2 -6z" />
    <glyph glyph-name="ecircumflex.ss01" horiz-adv-x="1110" 
d="M684 461q172 0 280.5 76.5t108.5 216.5q0 100 -84 161.5t-239.5 61.5t-293.5 -102.5t-186 -292.5q97 -66 256 -102q82 -18 158 -19zM639 47q184 0 350 150h8l41 -43v-9q-180 -170 -420 -170q-201 0 -324.5 124t-123.5 303.5t67.5 316.5t186.5 221q152 109 354 109
q113 0 199 -36q176 -74 176 -249.5t-134 -274t-347 -98.5q-113 0 -224.5 32t-191.5 83q-4 -31 -4 -60q-6 -180 98.5 -289.5t288.5 -109.5zM573 1145h-6l-28 45l2 6l301 184h18l236 -184l-2 -6l-41 -45h-6l-211 147z" />
    <glyph glyph-name="edieresis.ss01" horiz-adv-x="1110" 
d="M684 461q172 0 280.5 76.5t108.5 216.5q0 100 -84 161.5t-239.5 61.5t-293.5 -102.5t-186 -292.5q97 -66 256 -102q82 -18 158 -19zM639.5 47q184.5 0 349.5 150h8l41 -43v-9q-180 -170 -420 -170q-201 0 -324.5 124t-123.5 303.5t67.5 316.5t186.5 221q152 109 338 109
t288.5 -78t102.5 -205q0 -178 -134 -276.5t-347 -98.5q-113 0 -224.5 32t-191.5 83q-4 -31 -4 -60q-6 -180 98.5 -289.5t289 -109.5zM964 1145q-78 0 -77 68q0 41 28.5 69.5t61.5 28.5t53.5 -20.5t20.5 -54.5t-29.5 -62.5t-57.5 -28.5zM671 1145q-34 0 -53.5 20.5
t-19.5 54.5t28.5 62.5t62.5 28.5t54.5 -20.5t20.5 -54.5t-29.5 -62.5t-63.5 -28.5z" />
    <glyph glyph-name="edotaccent.ss01" horiz-adv-x="1110" 
d="M684 461q172 0 280.5 76.5t108.5 216.5q0 100 -84 161.5t-239.5 61.5t-293.5 -102.5t-186 -292.5q97 -66 256 -102q82 -18 158 -19zM639.5 47q184.5 0 349.5 150h8l41 -43v-9q-180 -170 -420 -170q-201 0 -324.5 124t-123.5 303.5t67.5 316.5t186.5 221q152 109 354 109
q113 0 199 -36q176 -74 176 -249.5t-134 -274t-347 -98.5q-113 0 -224.5 32t-191.5 83q-4 -31 -4 -60q-6 -180 98.5 -289.5t289 -109.5zM814 1145q-34 0 -53.5 20.5t-19.5 54.5t29 62.5t63 28.5t55 -20.5t21 -54.5t-30.5 -62.5t-64.5 -28.5z" />
    <glyph glyph-name="egrave.ss01" horiz-adv-x="1110" 
d="M684 461q172 0 280.5 76.5t108.5 216.5q0 100 -84 161.5t-239.5 61.5t-293.5 -102.5t-186 -292.5q97 -66 256 -102q82 -18 158 -19zM639.5 47q184.5 0 349.5 150h8l41 -43v-9q-180 -170 -420 -170q-201 0 -324.5 124t-123.5 303.5t67.5 316.5t186.5 221q152 109 354 109
q113 0 199 -36q176 -74 176 -249.5t-134 -274t-347 -98.5q-146 -1 -298 55q-68 24 -118 60q-4 -31 -4 -60q-6 -180 98.5 -289.5t289 -109.5zM958 1145l-374 246l-2 6l41 57h6l364 -264v-6l-28 -39h-7z" />
    <glyph glyph-name="emacron.ss01" horiz-adv-x="1110" 
d="M1073 754q0 100 -84 161.5t-239.5 61.5t-293.5 -102.5t-186 -292.5q60 -42 176.5 -81.5t263 -39.5t255 76.5t108.5 216.5zM639.5 47q184.5 0 349.5 150h8l41 -43v-9q-180 -170 -420 -170q-201 0 -324.5 124t-123.5 303.5t67.5 316.5t186.5 221q152 109 354 109
q113 0 199 -36q176 -74 176 -249.5t-134 -274t-347 -98.5q-146 -1 -298 55q-68 24 -118 60q-4 -31 -4 -60q-6 -180 98.5 -289.5t289 -109.5zM1096 1255l-13 -65h-530l10 65h533z" />
    <glyph glyph-name="eogonek.ss01" horiz-adv-x="1110" 
d="M684 461q172 0 280.5 76.5t108.5 216.5q0 100 -84 161.5t-239.5 61.5t-293.5 -103.5t-186 -291.5q72 -47 187.5 -84t226.5 -37zM649 -209q0 -88 94 -88q59 0 113 45h8l23 -39l-2 -8q-78 -59 -150 -59t-113.5 35.5t-41.5 101.5q0 104 141 205q-51 -8 -103 -9
q-201 0 -324.5 124t-123.5 303.5t67.5 316.5t186.5 221q152 109 338 109t288.5 -78t102.5 -205q0 -178 -134 -276.5t-347 -98.5q-113 0 -224.5 32t-191.5 83q-4 -31 -4 -60q-6 -180 98.5 -289.5t288.5 -109.5t350 150h8l41 -43v-9q-70 -66 -153 -106q-14 -12 -53 -39
q-38 -27 -56 -40q-126 -94 -127 -169z" />
    <glyph glyph-name="f.ss01" horiz-adv-x="600" 
d="M735 1348q-227 0 -276 -285l-8 -39h315l-12 -68h-314l-223 -1265h-78l223 1265h-172l11 68h174l6 39q21 121 75 202q102 152 289 152q94 0 164 -47l2 -8l-37 -53l-6 -2q-61 41 -133 41z" />
    <glyph glyph-name="i.ss01" horiz-adv-x="399" 
d="M160 0l180 1024h78l-180 -1024h-78zM332 1220q0 34 28 62t64 29q35 -1 55 -21q21 -20 21 -54t-31 -62t-65 -29q-34 0 -53 20q-19 21 -19 55z" />
    <glyph glyph-name="dotlessi.ss01" horiz-adv-x="399" 
d="M160 0l180 1024h78l-180 -1024h-78z" />
    <glyph glyph-name="iacute.ss01" horiz-adv-x="399" 
d="M160 0l180 1024h78l-180 -1024h-78zM682 1456h6l37 -59v-6l-377 -246h-6l-25 41v6z" />
    <glyph glyph-name="icircumflex.ss01" horiz-adv-x="399" 
d="M160 0l180 1024h78l-180 -1024h-78zM444 1380l211 -184v-6l-37 -45h-6l-190 147l-238 -147h-4l-24 45v6l272 184h16z" />
    <glyph glyph-name="idieresis.ss01" horiz-adv-x="399" 
d="M160 0l180 1024h78l-180 -1024h-78zM556 1145q-78 0 -79 80q0 29 29 57q28 28 62 29q34 -1 54 -21t19 -54t-29 -62t-56 -29zM354 1239q0 -57 -60 -85q-18 -8 -42 -9q-24 0 -44 20q-20 21 -20 55t29 62t63 29q34 -1 54 -21t20 -51z" />
    <glyph glyph-name="igrave.ss01" horiz-adv-x="399" 
d="M160 0l180 1024h78l-180 -1024h-78zM86 1454l365 -264v-6l-29 -39h-6l-377 246v6l41 57h6z" />
    <glyph glyph-name="ij.ss01" horiz-adv-x="792" 
d="M737 1024h78l-176 -995q-23 -131 -79 -205t-154 -131h-9l-22 55l2 8q80 46 123 104t61 165zM160 0l180 1024h78l-180 -1024h-78zM727 1220q0 34 29 62q28 28 62 29q34 -1 54 -21t20 -54t-28 -62q-30 -28 -64 -29q-34 0 -54 20q-19 21 -19 55zM332 1220q0 34 28 62t64 29
q35 -1 55 -21q21 -20 21 -54t-31 -62t-65 -29q-34 0 -53 20q-19 21 -19 55z" />
    <glyph glyph-name="imacron.ss01" horiz-adv-x="399" 
d="M160 0l180 1024h78l-180 -1024h-78zM176 1255h479l-10 -65h-479z" />
    <glyph glyph-name="iogonek.ss01" horiz-adv-x="399" 
d="M0 -258q0 -36 26 -56q26 -22 76 -23t105 46h8l23 -41l-2 -8q-78 -57 -150 -57t-114 36t-42 89q0 95 77 162q44 39 96 73q53 33 57 37l180 1024h78l-180 -1024q-10 -8 -64 -45t-70 -51t-49 -44t-44 -56t-11 -62zM332 1220q0 34 28 62t65 29q36 0 55 -23q20 -23 20 -55
q0 -31 -31 -59t-65 -29q-34 0 -53 20q-19 21 -19 55z" />
    <glyph glyph-name="itilde.ss01" horiz-adv-x="399" 
d="M160 0l180 1024h78l-180 -1024h-78zM276 1309q52 0 142 -36t150 -36t102 72h6l18 -56l-2 -6q-55 -82 -139 -82q-55 0 -147 36t-149 36t-97 -72h-6l-21 56v8q59 80 143 80z" />
    <glyph glyph-name="k.ss01" horiz-adv-x="972" 
d="M334 1335q-27 0 -53 -20l-9 2l-10 53l4 6q37 29 91 29t82 -38t16 -112l-144 -806l645 575h86l5 -6l-500 -445l274 -446q47 -82 99 -82q22 0 49 16l8 -2l10 -53q-21 -31 -77 -31t-91 29t-74 90l-260 424l-190 -172l-62 -346h-77l219 1241q16 94 -41 94z" />
    <glyph glyph-name="kcommaaccent.ss01" horiz-adv-x="1009" 
d="M494 -96h73l4 -6l-129 -289l-8 -6h-47l-4 6l102 289zM334 1335q-27 0 -53 -20l-9 2l-10 53l4 6q37 29 91 29t82 -38t16 -112l-144 -806l645 575h86l5 -6l-500 -445l274 -446q47 -82 99 -82q22 0 49 16l8 -2l10 -53q-21 -31 -77 -31t-91 29t-74 90l-260 424l-190 -172
l-62 -346h-77l219 1241q16 94 -41 94z" />
    <glyph glyph-name="v.ss01" horiz-adv-x="1112" 
d="M282 1049q52 0 80 -36t41 -102l170 -788l453 788q39 70 77 104t91 34t82 -29l2 -6l-27 -51l-8 -2q-61 53 -124 -32q-17 -24 -42 -67l-497 -862h-54l-192 862q-14 66 -28 92t-45 26q-30 1 -56 -22l-8 3l-11 53l4 6q40 29 92 29z" />
    <glyph glyph-name="y.ss01" horiz-adv-x="1122" 
d="M291 1049q65 0 91 -39t13 -109l-61 -352q-23 -133 -23 -172q-4 -121 69 -195t203 -74q131 0 207 55q149 105 185 296l98 565h78l-154 -870q-39 -223 -176 -343t-359 -120t-343 145l2 8l47 43h8q111 -125 300 -125t302 106t144 288l12 69q-35 -49 -78 -84
q-119 -104 -285 -104t-256 93t-86 245q2 37 27 180l61 332q16 92 -43 92q-27 0 -53 -21l-8 3l-10 53q23 35 88 35z" />
    <glyph glyph-name="yacute.ss01" horiz-adv-x="1122" 
d="M291 1049q65 0 91 -39t13 -109l-61 -352q-23 -133 -23 -172q-4 -121 69 -195t203 -74q131 0 207 55q149 105 185 296l98 565h78l-154 -870q-39 -223 -176 -343t-359 -120t-343 145l2 8l47 43h8q111 -125 300 -125t302 106t144 288l12 69q-35 -49 -78 -84
q-119 -104 -285 -104t-256 93t-84 245q0 37 27 180l59 332q16 92 -43 92q-27 0 -53 -21l-8 3l-10 53q23 35 88 35zM573 1145h-6l-24 41v6l364 264h6l37 -59v-6z" />
    <glyph glyph-name="ycircumflex.ss01" horiz-adv-x="1122" 
d="M291 1049q65 0 91 -39t13 -109l-61 -352q-23 -133 -23 -172q-4 -121 69 -195t203 -74q131 0 207 55q149 105 185 296l98 565h78l-154 -870q-39 -223 -176 -343t-359 -120t-343 145l2 8l47 43h8q111 -125 300 -125t302 106t144 288l12 69q-35 -49 -78 -84
q-119 -104 -285 -104t-256 93t-84 245q0 37 27 180l59 332q16 92 -43 92q-27 0 -53 -21l-8 3l-10 53q23 35 88 35zM485 1145h-6l-28 45l2 6l303 184h16l236 -184v-6l-41 -45h-9l-210 147z" />
    <glyph glyph-name="ydieresis.ss01" horiz-adv-x="1122" 
d="M291 1049q65 0 91 -39t13 -109l-61 -352q-23 -133 -23 -172q-4 -121 69 -195t203 -74q221 1 329 186q46 77 63 165l98 565h78l-154 -870q-39 -223 -176 -343t-359 -120t-343 145l2 8l47 43h8q111 -125 300 -125t302 106t144 288l12 69q-35 -49 -78 -84
q-119 -104 -285 -104t-256 93t-86 245q2 37 27 180l61 332q16 92 -43 92q-27 0 -53 -21l-8 3l-10 53q23 35 88 35zM876 1145q-78 0 -77 68q1 41 29 69t62 29q34 -1 53 -21t19 -54t-28 -62q-30 -28 -58 -29zM512 1220q0 34 29 62t61 29q32 -1 53 -21t21 -54t-30 -62t-62 -29
q-33 0 -53 20q-19 21 -19 55z" />
    <glyph glyph-name="ygrave.ss01" horiz-adv-x="1122" 
d="M291 1049q65 0 91 -39t13 -109l-61 -352q-23 -133 -23 -172q-4 -121 69 -195t203 -74q221 1 329 186q46 77 63 165l98 565h78l-154 -870q-39 -223 -176 -343t-359 -120t-343 145l2 8l47 43h8q111 -125 300 -125t302 106t144 288l12 69q-35 -49 -78 -84
q-119 -104 -285 -104t-256 93t-86 245q2 37 27 180l61 332q16 92 -43 92q-27 0 -53 -21l-8 3l-10 53q23 35 88 35zM870 1145l-374 246l-2 6l43 57h6l364 -264v-6l-28 -39h-9z" />
    <glyph glyph-name="uni1EF9.ss01" horiz-adv-x="1122" 
d="M291 1049q65 0 91 -39t13 -109l-61 -352q-23 -133 -23 -172q-4 -121 69 -195t203 -74q131 0 207 55q149 105 185 296l98 565h78l-154 -870q-39 -223 -176 -343t-359 -120t-343 145l2 8l47 43h8q111 -125 300 -125t302 106t144 288l12 69q-35 -49 -78 -84
q-119 -104 -285 -104t-256 93t-84 245q0 37 27 180l59 332q16 92 -43 92q-27 0 -53 -21l-8 3l-10 53q23 35 88 35zM588 1309q55 0 155 -36t167 -36t112 72h8l21 -56l-2 -6q-61 -82 -156 -82q-61 0 -163 36t-164 36q-64 0 -109 -72h-6l-23 56v8q66 80 160 80z" />
    <glyph glyph-name="f_t" horiz-adv-x="1163" 
d="M999 -25q-129 1 -187 93t-30 262l111 626h-438l-168 -956h-78l170 956h-174l12 68h172l8 39q31 178 122 266t218 88q76 0 142 -37l2 -6l-39 -53l-8 -2q-51 29 -109 29q-201 0 -252 -285l-6 -39h438l56 317l73 15l6 -4l-57 -328h322l-13 -68h-321l-111 -626
q-16 -94 -3 -158q25 -125 153 -125q60 0 110 31l6 -4l19 -54l-4 -6q-59 -39 -142 -39z" />
    <glyph glyph-name="ordfeminine.ss01" horiz-adv-x="901" 
d="M836 1071q0 97 -58 159t-164 62t-192 -94t-86 -208t56 -176q56 -64 164 -64t194 92t86 229zM795 817q-109 -129 -267 -129t-228 134q-32 62 -32 141q0 163 108 277t265 114q76 0 134 -38t87 -102l21 125h67l-92 -526q-10 -63 23 -63q18 0 32 10l7 -2l6 -47
q-13 -20 -63 -20q-50 -1 -63 28t-5 98z" />
    <glyph glyph-name="ampersand.ss01" horiz-adv-x="1175" 
d="M602 -25q-200 -1 -326 99t-124 250q0 150 102 267q102 116 260 161q-143 78 -143 235t121 263t303 106q106 0 200 -49t144 -131v-7l-60 -47h-6q-47 72 -127 116t-168 44q-137 0 -229 -83t-92 -193q1 -110 65 -168q64 -59 180 -60h74l-12 -71h-78q-186 -1 -317 -107
t-131 -246t104 -222q104 -83 269 -83q165 -1 282 103t124 240t-61 214l11 74h270l-12 -74h-166q49 -82 43 -192q-12 -188 -156 -314t-344 -125z" />
    <glyph glyph-name="uni0326.001" horiz-adv-x="0" 
d="M59 1368l9 8h75l4 -8l-149 -338l-8 -6h-45l-2 6z" />
    <glyph glyph-name="acute.case" horiz-adv-x="544" 
d="M670 1425h6l29 -61l-3 -6l-395 -211h-6l-18 41v6z" />
    <glyph glyph-name="breve.case" horiz-adv-x="712" 
d="M552 1208q117 0 188 86q34 41 53 95h69q-33 -109 -118 -177t-188 -68t-166 68q-62 68 -56 177h69q-2 -81 42 -131q43 -50 107 -50z" />
    <glyph glyph-name="caron.case" horiz-adv-x="704" 
d="M850 1382l22 -45v-6l-315 -184h-12l-248 184v6l37 45h6l225 -149l279 149h6z" />
    <glyph glyph-name="circumflex.case" horiz-adv-x="704" 
d="M594 1382l250 -184v-6l-39 -45h-6l-226 149l-276 -149h-6l-23 45v6l316 184h10z" />
    <glyph glyph-name="dieresis.case" horiz-adv-x="671" 
d="M629 1220q-1 36 29 64t64 29q34 -1 54 -21t20 -55t-29 -63q-30 -28 -64 -29q-34 0 -54 20q-20 19 -20 55zM395 1313q35 -1 55 -21t19 -55q0 -35 -29 -63q-30 -28 -64 -29q-34 0 -53 20q-19 19 -19 55t28 64t63 29z" />
    <glyph glyph-name="dotaccent.case" horiz-adv-x="317" 
d="M440 1193q-31 -48 -75 -48q-45 0 -67 37q-9 16 -9 44q1 28 31 56t64 27q34 0 52 -20q19 -20 19 -48q0 -27 -15 -48z" />
    <glyph glyph-name="grave.case" horiz-adv-x="546" 
d="M276 1423l388 -231v-6l-23 -39h-6l-395 211l-2 6l32 59h6z" />
    <glyph glyph-name="hungarumlaut.case" horiz-adv-x="638" 
d="M721 1452h84l4 -6l-240 -299h-61l-2 6zM487 1452h84l2 -6l-237 -299h-60l-4 6z" />
    <glyph glyph-name="macron.case" horiz-adv-x="694" 
d="M295 1237h541l-11 -63h-540z" />
    <glyph glyph-name="ring.case" horiz-adv-x="454" 
d="M342 1269q0 -44 28 -73t74 -29q47 0 82 40t35 84t-27 73q-28 29 -75 29t-82 -40t-35 -84zM424 1108q-57 0 -101 42t-44 99q-1 57 27 103t73 74q45 26 102 26t99 -42t43 -99q0 -57 -26 -103q-58 -100 -173 -100z" />
    <glyph glyph-name="tilde.case" horiz-adv-x="806" 
d="M457 1311q61 0 171 -38t184 -38t122 76h8l27 -56l-2 -6q-68 -84 -176 -84q-66 0 -178 37t-169 37q-84 0 -131 -74h-6l-28 56l2 6q67 84 176 84z" />
    <glyph glyph-name="IJacute" horiz-adv-x="1406" 
d="M852 -25q-242 0 -326 199l2 6l64 45h6q76 -174 266 -174q127 0 221 84t121 225l158 897h-440l14 74h522l-174 -975q-30 -176 -152 -278t-282 -103zM197 0l235 1331h82l-235 -1331h-82zM1047 1450l-21 41l2 6l385 232h8l29 -62v-6l-397 -211h-6zM449 1450l-19 41l2 6
l385 232h6l29 -62v-6l-397 -211h-6z" />
    <glyph glyph-name="ijacute" horiz-adv-x="874" 
d="M477 -307l-20 55v6q78 46 123 106t63 165l176 999h78l-176 -995q-31 -173 -129 -260q-43 -39 -109 -76h-6zM305 45q29 0 51 18l9 -2l10 -51q-23 -35 -85 -35t-90 39t-18 109l160 901h78l-158 -895q-16 -84 43 -84zM840 1145l-25 41l2 6l363 264h6l37 -59v-6l-377 -246h-6
zM362 1145l-24 41v6l364 264h7l36 -59v-6l-376 -246h-7z" />
    <glyph glyph-name="slashlong.case" horiz-adv-x="1234" 
d="M117 -100l-2 10l1253 1540h84l2 -10l-1251 -1540h-86z" />
    <glyph glyph-name="slashlong" horiz-adv-x="1040" 
d="M78 59l-2 7l1044 1232h82l2 -6l-1044 -1233h-82z" />
    <glyph glyph-name="slashshort.case" horiz-adv-x="729" 
d="M831 780l-679 -317l-7 4l13 63l678 318l8 -4z" />
    <glyph glyph-name="slashshort" horiz-adv-x="616" 
d="M170 469h-8l8 61l524 254h8l-10 -61z" />
    <glyph glyph-name="strokelong" horiz-adv-x="1486" 
d="M338 1047h1186l-13 -68h-1185z" />
    <glyph glyph-name="strokeshort" horiz-adv-x="684" 
d="M190 629l13 65h518l-12 -65h-519z" />
    <glyph glyph-name="ijacute.ss01" horiz-adv-x="874" 
d="M477 -307l-20 55v6q80 46 124 106t62 165l176 999h78l-176 -995q-23 -131 -80 -205t-158 -131h-6zM162 0l180 1024h78l-180 -1024h-78zM840 1145l-25 41l2 6l363 264h6l37 -59v-6l-377 -246h-6zM362 1145l-24 41v6l364 264h7l36 -59v-6l-376 -246h-7z" />
    </font>
</defs>
</svg>
