<?xml version="1.0" encoding="UTF-8"?>
<svg xmlns="http://www.w3.org/2000/svg" xmlns:xlink="http://www.w3.org/1999/xlink" version="1.2" >
<font id="Bison DemiBold Itallic">
<font-face  font-family="Bison" units-per-em="1000" ascent="790" descent="-200" font-style="italic" font-weight="600" font-stretch="normal" slope="-10" cap-height="700" x-height="500" underline-position="-75" underline-thickness="50" />
<missing-glyph  horiz-adv-x="600" d="" />
<glyph glyph-name="space" unicode="&#x20;" horiz-adv-x="155" d="" />
<glyph glyph-name="A" unicode="A" horiz-adv-x="408" d="M304 0 L303 145 L157 145 L103 0 L16 0 L286 700 L368 700 L391 0 L304 0 Z M188 230 L302 230 L298 531 L188 230 Z " />
<glyph glyph-name="Aacute" unicode="&#xc1;" horiz-adv-x="408" d="M304 0 L303 145 L157 145 L103 0 L16 0 L286 700 L368 700 L391 0 L304 0 Z M188 230 L302 230 L298 531 L188 230 Z M394 842 L309 737 L359 737 L480 842 L394 842 Z " />
<glyph glyph-name="Abreve" unicode="&#x102;" horiz-adv-x="408" d="M304 0 L303 145 L157 145 L103 0 L16 0 L286 700 L368 700 L391 0 L304 0 Z M188 230 L302 230 L298 531 L188 230 Z M453 838 Q445 797 410.5 767 Q376 737 334 737 Q297 737 273 760.5 Q249 784 249 820 Q249 826 251 838 L294 838 Q293 834 293 828 Q293 808 307 794 Q321 780 342 780 Q366 780 385.5 797 Q405 814 410 838 L453 838 Z " />
<glyph glyph-name="uni1EAE" unicode="&#x1eae;" horiz-adv-x="408" d="M304 0 L303 145 L157 145 L103 0 L16 0 L286 700 L368 700 L391 0 L304 0 Z M188 230 L302 230 L298 531 L188 230 Z M453 838 Q445 797 410.5 767 Q376 737 334 737 Q297 737 273 760.5 Q249 784 249 820 Q249 826 251 838 L294 838 Q293 834 293 828 Q293 808 307 794 Q321 780 342 780 Q366 780 385.5 797 Q405 814 410 838 L453 838 Z M416 971 L331 866 L381 866 L502 971 L416 971 Z " />
<glyph glyph-name="uni1EB6" unicode="&#x1eb6;" horiz-adv-x="408" d="M304 0 L303 145 L157 145 L103 0 L16 0 L286 700 L368 700 L391 0 L304 0 Z M188 230 L302 230 L298 531 L188 230 Z M453 838 Q445 797 410.5 767 Q376 737 334 737 Q297 737 273 760.5 Q249 784 249 820 Q249 826 251 838 L294 838 Q293 834 293 828 Q293 808 307 794 Q321 780 342 780 Q366 780 385.5 797 Q405 814 410 838 L453 838 Z M197 -40 Q178 -40 162.5 -53 Q147 -66 144 -85 Q141 -104 151.5 -117 Q162 -130 181 -130 Q200 -130 215.5 -117 Q231 -104 234 -85 Q237 -66 226.5 -53 Q216 -40 197 -40 Z " />
<glyph glyph-name="uni1EB0" unicode="&#x1eb0;" horiz-adv-x="408" d="M103 0 L16 0 L285 700 L367 700 L391 0 L304 0 L302 145 L156 145 L103 0 Z M301 230 L297 531 L187 230 L301 230 Z M293 838 Q292 834 292 828 Q292 808 306 794 Q320 780 341 780 Q365 780 384.5 797 Q404 814 409 838 L452 838 Q444 797 409.5 767 Q375 737 333 737 Q296 737 272 760.5 Q248 784 248 820 Q248 826 250 838 L293 838 Z M333 971 L247 971 L332 866 L382 866 L333 971 Z " />
<glyph glyph-name="uni1EB2" unicode="&#x1eb2;" horiz-adv-x="408" d="M103 0 L16 0 L285 700 L367 700 L391 0 L304 0 L302 145 L156 145 L103 0 Z M301 230 L297 531 L187 230 L301 230 Z M293 838 Q292 834 292 828 Q292 808 306 794 Q320 780 341 780 Q365 780 384.5 797 Q404 814 409 838 L452 838 Q444 797 409.5 767 Q375 737 333 737 Q296 737 272 760.5 Q248 784 248 820 Q248 826 250 838 L293 838 Z M295 967 Q332 967 356 943 Q380 919 380 884 Q380 878 378 866 L335 866 L336 875 Q336 896 322.5 910 Q309 924 287 924 L256 960 Q274 967 295 967 Z " />
<glyph glyph-name="uni1EB4" unicode="&#x1eb4;" horiz-adv-x="408" d="M103 0 L16 0 L285 700 L367 700 L391 0 L304 0 L302 145 L156 145 L103 0 Z M301 230 L297 531 L187 230 L301 230 Z M293 838 Q292 834 292 828 Q292 808 306 794 Q320 780 341 780 Q365 780 384.5 797 Q404 814 409 838 L452 838 Q444 797 409.5 767 Q375 737 333 737 Q296 737 272 760.5 Q248 784 248 820 Q248 826 250 838 L293 838 Z M260 865 Q288 893 307 896 Q325 899 350 883 Q375 865 403 865 Q446 865 492 913 L463 939 Q437 913 417 909 Q398 906 378 920 Q347 940 321 940 Q279 940 231 892 L260 865 Z " />
<glyph glyph-name="uni01CD" unicode="&#x1cd;" horiz-adv-x="408" d="M304 0 L303 145 L157 145 L103 0 L16 0 L286 700 L368 700 L391 0 L304 0 Z M188 230 L302 230 L298 531 L188 230 Z M462 840 L376 737 L291 737 L241 840 L292 840 L342 783 L412 840 L462 840 Z " />
<glyph glyph-name="Acircumflex" unicode="&#xc2;" horiz-adv-x="408" d="M304 0 L303 145 L157 145 L103 0 L16 0 L286 700 L368 700 L391 0 L304 0 Z M188 230 L302 230 L298 531 L188 230 Z M444 737 L394 737 L344 794 L274 737 L223 737 L309 840 L394 840 L444 737 Z " />
<glyph glyph-name="uni1EA4" unicode="&#x1ea4;" horiz-adv-x="462" d="M304 0 L303 145 L157 145 L103 0 L16 0 L286 700 L368 700 L391 0 L304 0 Z M188 230 L302 230 L298 531 L188 230 Z M444 737 L394 737 L344 794 L274 737 L223 737 L309 840 L394 840 L444 737 Z M525 942 L440 837 L490 837 L611 942 L525 942 Z " />
<glyph glyph-name="uni1EAC" unicode="&#x1eac;" horiz-adv-x="408" d="M304 0 L303 145 L157 145 L103 0 L16 0 L286 700 L368 700 L391 0 L304 0 Z M188 230 L302 230 L298 531 L188 230 Z M197 -40 Q178 -40 162.5 -53 Q147 -66 144 -85 Q141 -104 151.5 -117 Q162 -130 181 -130 Q200 -130 215.5 -117 Q231 -104 234 -85 Q237 -66 226.5 -53 Q216 -40 197 -40 Z M444 737 L394 737 L344 794 L274 737 L223 737 L309 840 L394 840 L444 737 Z " />
<glyph glyph-name="uni1EA6" unicode="&#x1ea6;" horiz-adv-x="408" d="M304 0 L303 145 L157 145 L103 0 L16 0 L286 700 L368 700 L391 0 L304 0 Z M188 230 L302 230 L298 531 L188 230 Z M444 737 L394 737 L344 794 L274 737 L223 737 L309 840 L394 840 L444 737 Z M441 942 L355 942 L440 837 L490 837 L441 942 Z " />
<glyph glyph-name="uni1EA8" unicode="&#x1ea8;" horiz-adv-x="408" d="M304 0 L303 145 L157 145 L103 0 L16 0 L286 700 L368 700 L391 0 L304 0 Z M188 230 L302 230 L298 531 L188 230 Z M444 737 L394 737 L344 794 L274 737 L223 737 L309 840 L394 840 L444 737 Z M399 938 Q436 938 460 913.5 Q484 889 484 853 Q484 843 483 837 L440 837 L441 846 Q441 867 427.5 881 Q414 895 392 895 L361 931 Q379 938 399 938 Z " />
<glyph glyph-name="uni1EAA" unicode="&#x1eaa;" horiz-adv-x="408" d="M304 0 L303 145 L157 145 L103 0 L16 0 L286 700 L368 700 L391 0 L304 0 Z M188 230 L302 230 L298 531 L188 230 Z M257 865 Q285 893 304 896 Q322 899 347 883 Q373 865 400 865 Q443 865 489 913 L460 939 Q434 913 414 909 Q395 906 375 920 Q344 940 318 940 Q276 940 228 892 L257 865 Z M444 737 L394 737 L344 794 L274 737 L223 737 L309 840 L394 840 L444 737 Z " />
<glyph glyph-name="Adieresis" unicode="&#xc4;" horiz-adv-x="408" d="M304 0 L303 145 L157 145 L103 0 L16 0 L286 700 L368 700 L391 0 L304 0 Z M188 230 L302 230 L298 531 L188 230 Z M315 782 Q318 801 307.5 814 Q297 827 278 827 Q259 827 243.5 814 Q228 801 225 782 Q224 779 224 773 Q224 758 235 747.5 Q246 737 262 737 Q281 737 296 750 Q311 763 315 782 Z M459 782 Q462 801 451.5 814 Q441 827 422 827 Q403 827 387.5 814 Q372 801 369 782 Q368 779 368 773 Q368 758 379 747.5 Q390 737 406 737 Q425 737 440 750 Q455 763 459 782 Z " />
<glyph glyph-name="uni01DE" unicode="&#x1de;" horiz-adv-x="408" d="M304 0 L303 145 L157 145 L103 0 L16 0 L286 700 L368 700 L391 0 L304 0 Z M188 230 L302 230 L298 531 L188 230 Z M315 782 Q318 801 307.5 814 Q297 827 278 827 Q259 827 243.5 814 Q228 801 225 782 Q224 779 224 773 Q224 758 235 747.5 Q246 737 262 737 Q281 737 296 750 Q311 763 315 782 Z M459 782 Q462 801 451.5 814 Q441 827 422 827 Q403 827 387.5 814 Q372 801 369 782 Q368 779 368 773 Q368 758 379 747.5 Q390 737 406 737 Q425 737 440 750 Q455 763 459 782 Z M509 865 L516 910 L212 910 L205 865 L509 865 Z " />
<glyph glyph-name="uni1EA0" unicode="&#x1ea0;" horiz-adv-x="408" d="M304 0 L303 145 L157 145 L103 0 L16 0 L286 700 L368 700 L391 0 L304 0 Z M188 230 L302 230 L298 531 L188 230 Z M197 -40 Q178 -40 162.5 -53 Q147 -66 144 -85 Q141 -104 151.5 -117 Q162 -130 181 -130 Q200 -130 215.5 -117 Q231 -104 234 -85 Q237 -66 226.5 -53 Q216 -40 197 -40 Z " />
<glyph glyph-name="Agrave" unicode="&#xc0;" horiz-adv-x="408" d="M304 0 L303 145 L157 145 L103 0 L16 0 L286 700 L368 700 L391 0 L304 0 Z M188 230 L302 230 L298 531 L188 230 Z M310 842 L224 842 L309 737 L359 737 L310 842 Z " />
<glyph glyph-name="uni1EA2" unicode="&#x1ea2;" horiz-adv-x="408" d="M304 0 L303 145 L157 145 L103 0 L16 0 L286 700 L368 700 L391 0 L304 0 Z M188 230 L302 230 L298 531 L188 230 Z M273 838 Q310 838 334 814 Q358 790 358 755 Q358 749 356 737 L313 737 Q314 741 314 747 Q314 767 300 781 Q286 795 265 795 L235 831 Q252 838 273 838 Z " />
<glyph glyph-name="Amacron" unicode="&#x100;" horiz-adv-x="408" d="M304 0 L303 145 L157 145 L103 0 L16 0 L286 700 L368 700 L391 0 L304 0 Z M188 230 L302 230 L298 531 L188 230 Z M485 737 L493 782 L190 782 L182 737 L485 737 Z " />
<glyph glyph-name="Aogonek" unicode="&#x104;" horiz-adv-x="408" d="M325 -59 Q321 -81 361 -81 L370 -81 L362 -126 L343 -126 Q309 -126 287 -115.5 Q265 -105 265 -82 Q265 -76 266 -73 Q272 -35 346 0 L304 0 L303 145 L157 145 L103 0 L16 0 L286 700 L368 700 L391 0 Q366 -8 346.5 -25.5 Q327 -43 325 -59 Z M188 230 L302 230 L298 531 L188 230 Z " />
<glyph glyph-name="Aring" unicode="&#xc5;" horiz-adv-x="408" d="M304 0 L303 145 L157 145 L103 0 L16 0 L286 700 L368 700 L391 0 L304 0 Z M188 230 L302 230 L298 531 L188 230 Z M334 740 Q360 740 382 758.5 Q404 777 409 803 Q410 807 410 814 Q410 837 395 852 Q380 867 357 867 Q331 867 308.5 848 Q286 829 282 803 Q281 799 281 791 Q281 769 296 754.5 Q311 740 334 740 Z M349 824 Q357 824 362 818 Q367 812 366 803 Q365 795 357.5 789 Q350 783 342 783 Q334 783 329 789 Q324 795 325 803 Q326 812 333.5 818 Q341 824 349 824 Z " />
<glyph glyph-name="Atilde" unicode="&#xc3;" horiz-adv-x="408" d="M304 0 L303 145 L157 145 L103 0 L16 0 L286 700 L368 700 L391 0 L304 0 Z M188 230 L302 230 L298 531 L188 230 Z M234 735 Q262 763 281 766 Q299 769 324 753 Q350 735 377 735 Q420 735 466 783 L437 809 Q411 783 391 779 Q373 776 352 790 Q321 810 295 810 Q253 810 205 762 L234 735 Z " />
<glyph glyph-name="AE" unicode="&#xc6;" horiz-adv-x="568" d="M645 615 L455 615 L418 401 L550 401 L535 316 L403 316 L362 85 L552 85 L537 0 L262 0 L284 126 L158 126 L104 0 L16 0 L317 700 L660 700 L645 615 Z M195 211 L299 211 L370 615 L195 211 Z " />
<glyph glyph-name="B" unicode="B" horiz-adv-x="386" d="M199 0 Q265 0 316 37 Q372 80 385 161 L397 227 Q401 253 401 265 Q401 324 358 357 Q411 397 424 471 L436 538 Q440 566 440 578 Q440 631 410 662 Q376 699 306 699 L163 699 L40 0 L199 0 Z M253 307 Q315 307 315 253 Q315 241 312 227 L300 161 Q293 119 271 100 Q250 85 214 85 L140 85 L179 307 L253 307 Z M233 614 L291 614 Q323 614 338 602 Q353 590 353 563 Q353 547 351 538 L339 471 Q331 430 310.5 411 Q290 392 252 392 L194 392 L233 614 Z " />
<glyph glyph-name="uni1E04" unicode="&#x1e04;" horiz-adv-x="386" d="M199 0 Q265 0 316 37 Q372 80 385 161 L397 227 Q401 253 401 265 Q401 324 358 357 Q411 397 424 471 L436 538 Q440 566 440 578 Q440 631 410 662 Q376 699 306 699 L163 699 L40 0 L199 0 Z M253 307 Q315 307 315 253 Q315 241 312 227 L300 161 Q293 119 271 100 Q250 85 214 85 L140 85 L179 307 L253 307 Z M233 614 L291 614 Q323 614 338 602 Q353 590 353 563 Q353 547 351 538 L339 471 Q331 430 310.5 411 Q290 392 252 392 L194 392 L233 614 Z M192 -40 Q173 -40 157.5 -53 Q142 -66 139 -85 Q136 -104 146.5 -117 Q157 -130 176 -130 Q195 -130 210.5 -117 Q226 -104 229 -85 Q232 -66 221.5 -53 Q211 -40 192 -40 Z " />
<glyph glyph-name="uni0181" unicode="&#x181;" horiz-adv-x="431" d="M403 357 Q446 324 446 265 Q446 253 442 227 L430 161 Q417 80 361 37 Q310 0 244 0 L85 0 L201 656 L159 656 Q151 656 143.5 650 Q136 644 135 636 L92 636 Q96 662 118 680.5 Q140 699 166 699 L351 699 Q421 699 455 662 Q485 631 485 578 Q485 566 481 538 L469 471 Q456 397 403 357 Z M239 392 L297 392 Q335 392 355.5 411 Q376 430 384 471 L396 538 Q398 547 398 563 Q398 590 383 602 Q368 614 336 614 L278 614 L239 392 Z M357 227 Q360 241 360 253 Q360 307 298 307 L224 307 L185 85 L259 85 Q295 85 316 100 Q338 119 345 161 L357 227 Z " />
<glyph glyph-name="uni0243" unicode="&#x243;" horiz-adv-x="406" d="M378 357 Q420 325 420 263 Q420 247 417 227 L405 161 Q390 78 335 37 Q286 0 218 0 L103 0 L60 0 L87 154 L27 154 L42 239 L102 239 L183 700 L326 700 Q394 700 430 663 Q460 632 460 579 Q460 558 456 539 L444 471 Q431 397 378 357 Z M214 392 L272 392 Q310 392 331 411 Q352 430 359 471 L371 539 Q374 553 374 564 Q374 591 359 603 Q344 615 311 615 L253 615 L214 392 Z M332 227 Q334 245 334 252 Q334 280 319.5 293.5 Q305 307 273 307 L199 307 L187 239 L245 239 L230 154 L172 154 L160 85 L233 85 Q271 85 290 100 Q313 118 320 161 L332 227 Z " />
<glyph glyph-name="C" unicode="C" horiz-adv-x="381" d="M190 -9 Q258 -9 308 30 Q364 74 379 156 L395 250 L310 250 L294 156 Q287 115 265 95.5 Q243 76 205 76 Q144 76 144 130 Q144 141 147 156 L215 545 Q223 586 244 605.5 Q265 625 302 625 Q365 625 365 571 Q365 559 362 545 L351 481 L436 481 L447 545 Q451 564 451 585 Q451 638 421 671 Q385 710 317 710 Q250 710 200 671 Q145 626 130 545 L62 156 Q58 136 58 114 Q58 60 87 30 Q123 -9 190 -9 Z " />
<glyph glyph-name="Cacute" unicode="&#x106;" horiz-adv-x="381" d="M190 -9 Q258 -9 308 30 Q364 74 379 156 L395 250 L310 250 L294 156 Q287 115 265 95.5 Q243 76 205 76 Q144 76 144 130 Q144 141 147 156 L215 545 Q223 586 244 605.5 Q265 625 302 625 Q365 625 365 571 Q365 559 362 545 L351 481 L436 481 L447 545 Q451 564 451 585 Q451 638 421 671 Q385 710 317 710 Q250 710 200 671 Q145 626 130 545 L62 156 Q58 136 58 114 Q58 60 87 30 Q123 -9 190 -9 Z M381 842 L296 737 L346 737 L467 842 L381 842 Z " />
<glyph glyph-name="Ccaron" unicode="&#x10c;" horiz-adv-x="381" d="M190 -9 Q258 -9 308 30 Q364 74 379 156 L395 250 L310 250 L294 156 Q287 115 265 95.5 Q243 76 205 76 Q144 76 144 130 Q144 141 147 156 L215 545 Q223 586 244 605.5 Q265 625 302 625 Q365 625 365 571 Q365 559 362 545 L351 481 L436 481 L447 545 Q451 564 451 585 Q451 638 421 671 Q385 710 317 710 Q250 710 200 671 Q145 626 130 545 L62 156 Q58 136 58 114 Q58 60 87 30 Q123 -9 190 -9 Z M450 840 L364 737 L279 737 L229 840 L280 840 L330 783 L400 840 L450 840 Z " />
<glyph glyph-name="Ccedilla" unicode="&#xc7;" horiz-adv-x="381" d="M351 480 L362 544 Q365 558 365 570 Q365 624 303 624 Q265 624 244 604.5 Q223 585 215 544 L147 157 Q144 144 144 131 Q144 77 207 77 Q244 77 265 96.5 Q286 116 294 157 L310 251 L395 251 L379 157 Q364 75 308 31 Q269 -1 214 -7 Q214 -10 218 -13 Q219 -13 219.5 -13.5 Q220 -14 219 -15 Q230 -24 236.5 -33.5 Q243 -43 243 -58 Q243 -66 242 -71 Q237 -97 215.5 -116 Q194 -135 168 -135 Q145 -135 129.5 -120 Q114 -105 114 -82 Q114 -75 115 -71 L158 -71 L158 -73 Q158 -81 163 -86.5 Q168 -92 176 -92 Q184 -92 191 -85.5 Q198 -79 199 -71 L200 -66 Q200 -58 188 -49 Q188 -49 186 -47 Q167 -31 170 -7 Q118 -1 87 31 Q58 65 58 116 Q58 138 62 157 L130 544 Q144 626 200 670 Q250 709 318 709 Q351 709 378 699 Q405 689 421 670 Q451 639 451 584 Q451 572 447 544 L436 480 L351 480 Z " />
<glyph glyph-name="Cdotaccent" unicode="&#x10a;" horiz-adv-x="381" d="M190 -9 Q258 -9 308 30 Q364 74 379 156 L395 250 L310 250 L294 156 Q287 115 265 95.5 Q243 76 205 76 Q144 76 144 130 Q144 141 147 156 L215 545 Q223 586 244 605.5 Q265 625 302 625 Q365 625 365 571 Q365 559 362 545 L351 481 L436 481 L447 545 Q451 564 451 585 Q451 638 421 671 Q385 710 317 710 Q250 710 200 671 Q145 626 130 545 L62 156 Q58 136 58 114 Q58 60 87 30 Q123 -9 190 -9 Z M375 782 Q378 801 367.5 814 Q357 827 338 827 Q319 827 303.5 814 Q288 801 285 782 Q284 779 284 773 Q284 758 295 747.5 Q306 737 322 737 Q341 737 356 750 Q371 763 375 782 Z " />
<glyph glyph-name="uni0187" unicode="&#x187;" horiz-adv-x="381" d="M433 711 Q438 737 460 755.5 Q482 774 508 774 L501 731 Q492 731 485 725 Q478 719 476 711 L436 481 L351 481 L362 545 Q365 559 365 571 Q365 625 302 625 Q265 625 244 605.5 Q223 586 215 545 L147 156 Q144 141 144 130 Q144 76 205 76 Q243 76 265 95.5 Q287 115 294 156 L310 250 L395 250 L379 156 Q364 74 308 30 Q258 -9 190 -9 Q123 -9 87 30 Q58 60 58 114 Q58 136 62 156 L130 545 Q145 626 200 671 Q250 710 317 710 Q385 710 421 671 L425 666 L433 711 Z " />
<glyph glyph-name="D" unicode="D" horiz-adv-x="391" d="M199 0 Q267 0 315 36 Q372 81 385 161 L451 535 Q455 554 455 576 Q455 627 426 661 Q390 700 322 700 L163 700 L40 0 L199 0 Z M233 615 L307 615 Q369 615 369 561 Q369 549 366 535 L300 161 Q293 118 270 100 Q251 85 214 85 L140 85 L233 615 Z " />
<glyph glyph-name="uni0189" unicode="&#x189;" horiz-adv-x="395" d="M431 661 Q459 627 459 576 Q459 555 455 535 L389 161 Q376 81 319 36 Q271 0 203 0 L45 0 L99 307 L59 307 L74 392 L114 392 L168 700 L326 700 Q394 700 431 661 Z M370 535 Q373 550 373 561 Q373 589 358 602 Q343 615 311 615 L238 615 L199 392 L259 392 L244 307 L184 307 L145 85 L218 85 Q254 85 275 100 Q296 117 304 161 L370 535 Z " />
<glyph glyph-name="Eth" unicode="&#xd0;" horiz-adv-x="395" d="M431 661 Q459 627 459 576 Q459 555 455 535 L389 161 Q376 81 319 36 Q271 0 203 0 L45 0 L99 307 L59 307 L74 392 L114 392 L168 700 L326 700 Q394 700 431 661 Z M370 535 Q373 550 373 561 Q373 589 358 602 Q343 615 311 615 L238 615 L199 392 L259 392 L244 307 L184 307 L145 85 L218 85 Q254 85 275 100 Q296 117 304 161 L370 535 Z " />
<glyph glyph-name="Dcaron" unicode="&#x10e;" horiz-adv-x="391" d="M199 0 Q267 0 315 36 Q372 81 385 161 L451 535 Q455 554 455 576 Q455 627 426 661 Q390 700 322 700 L163 700 L40 0 L199 0 Z M233 615 L307 615 Q369 615 369 561 Q369 549 366 535 L300 161 Q293 118 270 100 Q251 85 214 85 L140 85 L233 615 Z M457 840 L371 737 L286 737 L236 840 L287 840 L337 783 L407 840 L457 840 Z " />
<glyph glyph-name="uni1E12" unicode="&#x1e12;" horiz-adv-x="391" d="M199 0 Q267 0 315 36 Q372 81 385 161 L451 535 Q455 554 455 576 Q455 627 426 661 Q390 700 322 700 L163 700 L40 0 L199 0 Z M233 615 L307 615 Q369 615 369 561 Q369 549 366 535 L300 161 Q293 118 270 100 Q251 85 214 85 L140 85 L233 615 Z M284 -143 L234 -143 L184 -86 L114 -143 L63 -143 L149 -40 L234 -40 L284 -143 Z " />
<glyph glyph-name="Dcroat" unicode="&#x110;" horiz-adv-x="395" d="M431 661 Q459 627 459 576 Q459 555 455 535 L389 161 Q376 81 319 36 Q271 0 203 0 L45 0 L99 307 L59 307 L74 392 L114 392 L168 700 L326 700 Q394 700 431 661 Z M370 535 Q373 550 373 561 Q373 589 358 602 Q343 615 311 615 L238 615 L199 392 L259 392 L244 307 L184 307 L145 85 L218 85 Q254 85 275 100 Q296 117 304 161 L370 535 Z " />
<glyph glyph-name="uni1E0C" unicode="&#x1e0c;" horiz-adv-x="391" d="M199 0 Q267 0 315 36 Q372 81 385 161 L451 535 Q455 554 455 576 Q455 627 426 661 Q390 700 322 700 L163 700 L40 0 L199 0 Z M233 615 L307 615 Q369 615 369 561 Q369 549 366 535 L300 161 Q293 118 270 100 Q251 85 214 85 L140 85 L233 615 Z M192 -40 Q173 -40 157.5 -53 Q142 -66 139 -85 Q136 -104 146.5 -117 Q157 -130 176 -130 Q195 -130 210.5 -117 Q226 -104 229 -85 Q232 -66 221.5 -53 Q211 -40 192 -40 Z " />
<glyph glyph-name="uni018A" unicode="&#x18a;" horiz-adv-x="436" d="M471 661 Q500 627 500 576 Q500 554 496 535 L430 161 Q417 81 360 36 Q312 0 244 0 L85 0 L201 657 L159 657 Q151 657 143.5 651 Q136 645 135 637 L92 637 Q96 663 118 681.5 Q140 700 166 700 L367 700 Q435 700 471 661 Z M411 535 Q414 549 414 561 Q414 615 352 615 L278 615 L185 85 L259 85 Q296 85 315 100 Q338 118 345 161 L411 535 Z " />
<glyph glyph-name="uni1E0E" unicode="&#x1e0e;" horiz-adv-x="391" d="M199 0 Q267 0 315 36 Q372 81 385 161 L451 535 Q455 554 455 576 Q455 627 426 661 Q390 700 322 700 L163 700 L40 0 L199 0 Z M233 615 L307 615 Q369 615 369 561 Q369 549 366 535 L300 161 Q293 118 270 100 Q251 85 214 85 L140 85 L233 615 Z M335 -85 L343 -40 L40 -40 L32 -85 L335 -85 Z " />
<glyph glyph-name="E" unicode="E" horiz-adv-x="347" d="M424 615 L233 615 L196 401 L329 401 L314 316 L181 316 L140 85 L331 85 L316 0 L40 0 L163 700 L439 700 L424 615 Z " />
<glyph glyph-name="Eacute" unicode="&#xc9;" horiz-adv-x="347" d="M424 615 L233 615 L196 401 L329 401 L314 316 L181 316 L140 85 L331 85 L316 0 L40 0 L163 700 L439 700 L424 615 Z M368 842 L283 737 L333 737 L454 842 L368 842 Z " />
<glyph glyph-name="Ecaron" unicode="&#x11a;" horiz-adv-x="347" d="M424 615 L233 615 L196 401 L329 401 L314 316 L181 316 L140 85 L331 85 L316 0 L40 0 L163 700 L439 700 L424 615 Z M436 840 L350 737 L265 737 L215 840 L266 840 L316 783 L386 840 L436 840 Z " />
<glyph glyph-name="uni0228" unicode="&#x228;" horiz-adv-x="347" d="M233 615 L196 401 L329 401 L314 316 L181 316 L140 85 L331 85 L316 0 L200 0 Q202 -5 204 -6 Q206 -6 206 -8 Q217 -17 223.5 -27 Q230 -37 230 -53 Q230 -60 229 -64 Q225 -90 202.5 -109 Q180 -128 154 -128 Q131 -128 116 -113 Q101 -98 101 -75 Q101 -68 102 -64 L145 -64 L145 -68 Q145 -75 149.5 -80 Q154 -85 162 -85 Q170 -85 177 -78.5 Q184 -72 186 -64 L186 -61 Q186 -55 183.5 -51.5 Q181 -48 175 -42 Q174 -42 172 -40 Q153 -23 156 0 L40 0 L163 700 L439 700 L424 615 L233 615 Z " />
<glyph glyph-name="Ecircumflex" unicode="&#xca;" horiz-adv-x="347" d="M424 615 L233 615 L196 401 L329 401 L314 316 L181 316 L140 85 L331 85 L316 0 L40 0 L163 700 L439 700 L424 615 Z M418 737 L368 737 L318 794 L248 737 L197 737 L283 840 L368 840 L418 737 Z " />
<glyph glyph-name="uni1EBE" unicode="&#x1ebe;" horiz-adv-x="347" d="M424 615 L233 615 L196 401 L329 401 L314 316 L181 316 L140 85 L331 85 L316 0 L40 0 L163 700 L439 700 L424 615 Z M418 737 L368 737 L318 794 L248 737 L197 737 L283 840 L368 840 L418 737 Z M499 942 L414 837 L464 837 L585 942 L499 942 Z " />
<glyph glyph-name="uni1EC6" unicode="&#x1ec6;" horiz-adv-x="347" d="M424 615 L233 615 L196 401 L329 401 L314 316 L181 316 L140 85 L331 85 L316 0 L40 0 L163 700 L439 700 L424 615 Z M171 -40 Q152 -40 136.5 -53 Q121 -66 118 -85 Q115 -104 125.5 -117 Q136 -130 155 -130 Q174 -130 189.5 -117 Q205 -104 208 -85 Q211 -66 200.5 -53 Q190 -40 171 -40 Z M418 737 L368 737 L318 794 L248 737 L197 737 L283 840 L368 840 L418 737 Z " />
<glyph glyph-name="uni1EC0" unicode="&#x1ec0;" horiz-adv-x="347" d="M424 615 L233 615 L196 401 L329 401 L314 316 L181 316 L140 85 L331 85 L316 0 L40 0 L163 700 L439 700 L424 615 Z M418 737 L368 737 L318 794 L248 737 L197 737 L283 840 L368 840 L418 737 Z M415 942 L329 942 L414 837 L464 837 L415 942 Z " />
<glyph glyph-name="uni1EC2" unicode="&#x1ec2;" horiz-adv-x="347" d="M424 615 L233 615 L196 401 L329 401 L314 316 L181 316 L140 85 L331 85 L316 0 L40 0 L163 700 L439 700 L424 615 Z M418 737 L368 737 L318 794 L248 737 L197 737 L283 840 L368 840 L418 737 Z M373 938 Q410 938 434 913.5 Q458 889 458 853 Q458 843 457 837 L414 837 L415 846 Q415 867 401.5 881 Q388 895 366 895 L335 931 Q353 938 373 938 Z " />
<glyph glyph-name="uni1EC4" unicode="&#x1ec4;" horiz-adv-x="347" d="M424 615 L233 615 L196 401 L329 401 L314 316 L181 316 L140 85 L331 85 L316 0 L40 0 L163 700 L439 700 L424 615 Z M231 865 Q259 893 278 896 Q296 899 321 883 Q346 865 374 865 Q417 865 463 913 L434 939 Q408 913 388 909 Q369 906 349 920 Q318 940 292 940 Q250 940 202 892 L231 865 Z M418 737 L368 737 L318 794 L248 737 L197 737 L283 840 L368 840 L418 737 Z " />
<glyph glyph-name="Edieresis" unicode="&#xcb;" horiz-adv-x="347" d="M424 615 L233 615 L196 401 L329 401 L314 316 L181 316 L140 85 L331 85 L316 0 L40 0 L163 700 L439 700 L424 615 Z M289 782 Q292 801 281.5 814 Q271 827 252 827 Q233 827 217.5 814 Q202 801 199 782 Q198 779 198 773 Q198 758 209 747.5 Q220 737 236 737 Q255 737 270 750 Q285 763 289 782 Z M433 782 Q436 801 425.5 814 Q415 827 396 827 Q377 827 361.5 814 Q346 801 343 782 Q342 779 342 773 Q342 758 353 747.5 Q364 737 380 737 Q399 737 414 750 Q429 763 433 782 Z " />
<glyph glyph-name="Edotaccent" unicode="&#x116;" horiz-adv-x="347" d="M424 615 L233 615 L196 401 L329 401 L314 316 L181 316 L140 85 L331 85 L316 0 L40 0 L163 700 L439 700 L424 615 Z M324 827 Q305 827 289.5 814 Q274 801 271 782 Q270 779 270 773 Q270 758 281 747.5 Q292 737 308 737 Q327 737 342 750 Q357 763 361 782 Q364 801 353.5 814 Q343 827 324 827 Z " />
<glyph glyph-name="uni1EB8" unicode="&#x1eb8;" horiz-adv-x="347" d="M424 615 L233 615 L196 401 L329 401 L314 316 L181 316 L140 85 L331 85 L316 0 L40 0 L163 700 L439 700 L424 615 Z M171 -40 Q152 -40 136.5 -53 Q121 -66 118 -85 Q115 -104 125.5 -117 Q136 -130 155 -130 Q174 -130 189.5 -117 Q205 -104 208 -85 Q211 -66 200.5 -53 Q190 -40 171 -40 Z " />
<glyph glyph-name="Egrave" unicode="&#xc8;" horiz-adv-x="347" d="M424 615 L233 615 L196 401 L329 401 L314 316 L181 316 L140 85 L331 85 L316 0 L40 0 L163 700 L439 700 L424 615 Z M284 842 L198 842 L283 737 L333 737 L284 842 Z " />
<glyph glyph-name="uni1EBA" unicode="&#x1eba;" horiz-adv-x="347" d="M424 615 L233 615 L196 401 L329 401 L314 316 L181 316 L140 85 L331 85 L316 0 L40 0 L163 700 L439 700 L424 615 Z M253 838 Q290 838 314 814 Q338 790 338 755 Q338 749 336 737 L293 737 Q294 741 294 747 Q294 767 280 781 Q266 795 245 795 L215 831 Q232 838 253 838 Z " />
<glyph glyph-name="Emacron" unicode="&#x112;" horiz-adv-x="347" d="M424 615 L233 615 L196 401 L329 401 L314 316 L181 316 L140 85 L331 85 L316 0 L40 0 L163 700 L439 700 L424 615 Z M460 737 L468 782 L164 782 L156 737 L460 737 Z " />
<glyph glyph-name="Eogonek" unicode="&#x118;" horiz-adv-x="347" d="M233 615 L196 401 L329 401 L314 316 L181 316 L140 85 L331 85 L316 0 Q291 -8 271.5 -25.5 Q252 -43 250 -59 Q246 -81 286 -81 L295 -81 L287 -126 L268 -126 Q234 -126 212 -115.5 Q190 -105 190 -82 Q190 -76 191 -73 Q197 -35 271 0 L40 0 L163 700 L439 700 L424 615 L233 615 Z " />
<glyph glyph-name="uni018E" unicode="&#x18e;" horiz-adv-x="336" d="M138 615 L153 700 L429 700 L306 0 L30 0 L45 85 L236 85 L277 316 L144 316 L159 401 L292 401 L329 615 L138 615 Z " />
<glyph glyph-name="uni1EBC" unicode="&#x1ebc;" horiz-adv-x="347" d="M424 615 L233 615 L196 401 L329 401 L314 316 L181 316 L140 85 L331 85 L316 0 L40 0 L163 700 L439 700 L424 615 Z M212 737 Q240 765 259 768 Q278 771 302 755 Q329 737 355 737 Q398 737 444 785 L415 811 Q390 786 370 781 Q351 778 331 792 Q300 812 274 812 Q232 812 184 764 L212 737 Z " />
<glyph glyph-name="F" unicode="F" horiz-adv-x="333" d="M424 614 L233 614 L196 402 L329 402 L314 317 L181 317 L125 0 L40 0 L163 699 L439 699 L424 614 Z " />
<glyph glyph-name="uni0191" unicode="&#x191;" horiz-adv-x="333" d="M233 614 L196 402 L329 402 L314 317 L181 317 L125 0 Q118 -43 88.5 -74 Q59 -105 1 -105 L9 -62 Q17 -62 24.5 -56 Q32 -50 33 -42 L163 699 L439 699 L424 614 L233 614 Z " />
<glyph glyph-name="G" unicode="G" horiz-adv-x="385" d="M191 -9 Q259 -9 309 30 Q364 74 379 156 L420 392 L262 392 L247 307 L320 307 L294 156 Q287 115 265.5 95.5 Q244 76 206 76 Q174 76 159 89 Q144 102 144 130 Q144 141 147 156 L215 544 Q223 585 244 604.5 Q265 624 303 624 Q365 624 365 570 Q365 558 362 544 L351 480 L436 480 L447 544 Q451 572 451 584 Q451 636 422 670 Q386 709 318 709 Q251 709 200 670 Q143 624 130 544 L62 156 Q58 136 58 114 Q58 60 87 30 Q124 -9 191 -9 Z " />
<glyph glyph-name="Gbreve" unicode="&#x11e;" horiz-adv-x="385" d="M191 -9 Q259 -9 309 30 Q364 74 379 156 L420 392 L262 392 L247 307 L320 307 L294 156 Q287 115 265.5 95.5 Q244 76 206 76 Q174 76 159 89 Q144 102 144 130 Q144 141 147 156 L215 544 Q223 585 244 604.5 Q265 624 303 624 Q365 624 365 570 Q365 558 362 544 L351 480 L436 480 L447 544 Q451 572 451 584 Q451 636 422 670 Q386 709 318 709 Q251 709 200 670 Q143 624 130 544 L62 156 Q58 136 58 114 Q58 60 87 30 Q124 -9 191 -9 Z M441 838 Q433 797 398.5 767 Q364 737 322 737 Q285 737 261 760.5 Q237 784 237 820 Q237 826 239 838 L282 838 Q281 834 281 828 Q281 808 295 794 Q309 780 330 780 Q354 780 373.5 797 Q393 814 398 838 L441 838 Z " />
<glyph glyph-name="Gcaron" unicode="&#x1e6;" horiz-adv-x="385" d="M191 -9 Q259 -9 309 30 Q364 74 379 156 L420 392 L262 392 L247 307 L320 307 L294 156 Q287 115 265.5 95.5 Q244 76 206 76 Q174 76 159 89 Q144 102 144 130 Q144 141 147 156 L215 544 Q223 585 244 604.5 Q265 624 303 624 Q365 624 365 570 Q365 558 362 544 L351 480 L436 480 L447 544 Q451 572 451 584 Q451 636 422 670 Q386 709 318 709 Q251 709 200 670 Q143 624 130 544 L62 156 Q58 136 58 114 Q58 60 87 30 Q124 -9 191 -9 Z M450 840 L364 737 L279 737 L229 840 L280 840 L330 783 L400 840 L450 840 Z " />
<glyph glyph-name="Gcommaaccent" unicode="&#x122;" horiz-adv-x="385" d="M191 -9 Q259 -9 309 30 Q364 74 379 156 L420 392 L262 392 L247 307 L320 307 L294 156 Q287 115 265.5 95.5 Q244 76 206 76 Q174 76 159 89 Q144 102 144 130 Q144 141 147 156 L215 544 Q223 585 244 604.5 Q265 624 303 624 Q365 624 365 570 Q365 558 362 544 L351 480 L436 480 L447 544 Q451 572 451 584 Q451 636 422 670 Q386 709 318 709 Q251 709 200 670 Q143 624 130 544 L62 156 Q58 136 58 114 Q58 60 87 30 Q124 -9 191 -9 Z M223 -85 Q221 -99 203 -127 Q191 -144 164 -175 L131 -175 Q135 -169 138.5 -162.5 Q142 -156 146 -150 Q151 -138 151 -134 Q151 -128 146 -123 Q132 -111 132 -94 Q132 -88 133 -85 Q136 -66 151.5 -53 Q167 -40 186 -40 Q205 -40 215.5 -53 Q226 -66 223 -85 Z " />
<glyph glyph-name="Gdotaccent" unicode="&#x120;" horiz-adv-x="385" d="M191 -9 Q259 -9 309 30 Q364 74 379 156 L420 392 L262 392 L247 307 L320 307 L294 156 Q287 115 265.5 95.5 Q244 76 206 76 Q174 76 159 89 Q144 102 144 130 Q144 141 147 156 L215 544 Q223 585 244 604.5 Q265 624 303 624 Q365 624 365 570 Q365 558 362 544 L351 480 L436 480 L447 544 Q451 572 451 584 Q451 636 422 670 Q386 709 318 709 Q251 709 200 670 Q143 624 130 544 L62 156 Q58 136 58 114 Q58 60 87 30 Q124 -9 191 -9 Z M375 782 Q378 801 367.5 814 Q357 827 338 827 Q319 827 303.5 814 Q288 801 285 782 Q284 779 284 773 Q284 758 295 747.5 Q306 737 322 737 Q341 737 356 750 Q371 763 375 782 Z " />
<glyph glyph-name="uni0193" unicode="&#x193;" horiz-adv-x="385" d="M433 710 Q437 736 459 754.5 Q481 773 507 773 L500 730 Q492 730 484.5 724 Q477 718 476 710 L436 480 L351 480 L362 544 Q365 558 365 570 Q365 624 303 624 Q265 624 244 604.5 Q223 585 215 544 L147 156 Q144 141 144 130 Q144 102 159 89 Q174 76 206 76 Q244 76 265.5 95.5 Q287 115 294 156 L320 307 L247 307 L262 392 L420 392 L379 156 Q364 74 309 30 Q259 -9 191 -9 Q124 -9 87 30 Q58 60 58 114 Q58 136 62 156 L130 544 Q143 624 200 670 Q251 709 318 709 Q386 709 422 670 Q425 667 425 666 L433 710 Z " />
<glyph glyph-name="H" unicode="H" horiz-adv-x="396" d="M394 700 L479 700 L356 0 L271 0 L327 316 L181 316 L125 0 L40 0 L163 700 L248 700 L196 401 L342 401 L394 700 Z " />
<glyph glyph-name="Hbar" unicode="&#x126;" horiz-adv-x="407" d="M485 700 L460 558 L500 558 L493 514 L453 514 L362 0 L277 0 L333 316 L186 316 L130 0 L45 0 L136 514 L96 514 L103 558 L143 558 L168 700 L253 700 L228 558 L375 558 L400 700 L485 700 Z M348 401 L368 514 L221 514 L201 401 L348 401 Z " />
<glyph glyph-name="uni1E24" unicode="&#x1e24;" horiz-adv-x="396" d="M394 700 L479 700 L356 0 L271 0 L327 316 L181 316 L125 0 L40 0 L163 700 L248 700 L196 401 L342 401 L394 700 Z M228 -85 Q226 -99 208 -127 Q196 -144 169 -175 L136 -175 Q140 -169 143.5 -162.5 Q147 -156 151 -150 Q156 -138 156 -134 Q156 -128 151 -123 Q137 -111 137 -94 Q137 -88 138 -85 Q141 -66 156.5 -53 Q172 -40 191 -40 Q210 -40 220.5 -53 Q231 -66 228 -85 Z " />
<glyph glyph-name="uniA7AA" unicode="&#xa7aa;" horiz-adv-x="441" d="M524 700 L401 0 L316 0 L372 316 L226 316 L170 0 L85 0 L201 657 L159 657 Q151 657 143.5 651 Q136 645 135 637 L92 637 Q96 663 118 681.5 Q140 700 166 700 L293 700 L241 401 L387 401 L439 700 L524 700 Z " />
<glyph glyph-name="I" unicode="I" horiz-adv-x="165" d="M125 0 L248 700 L163 700 L40 0 L125 0 Z " />
<glyph glyph-name="Iacute" unicode="&#xcd;" horiz-adv-x="165" d="M125 0 L248 700 L163 700 L40 0 L125 0 Z M273 841 L187 737 L238 737 L358 841 L273 841 Z " />
<glyph glyph-name="uni01CF" unicode="&#x1cf;" horiz-adv-x="165" d="M125 0 L248 700 L163 700 L40 0 L125 0 Z M341 840 L255 737 L170 737 L120 840 L171 840 L221 783 L291 840 L341 840 Z " />
<glyph glyph-name="Icircumflex" unicode="&#xce;" horiz-adv-x="165" d="M125 0 L248 700 L163 700 L40 0 L125 0 Z M323 737 L273 737 L223 794 L153 737 L102 737 L188 840 L273 840 L323 737 Z " />
<glyph glyph-name="Idieresis" unicode="&#xcf;" horiz-adv-x="164" d="M125 0 L248 700 L163 700 L40 0 L125 0 Z M193 782 Q196 801 185.5 814 Q175 827 156 827 Q137 827 121.5 814 Q106 801 103 782 Q102 779 102 773 Q102 758 113 747.5 Q124 737 140 737 Q159 737 174 750 Q189 763 193 782 Z M337 782 Q340 801 329.5 814 Q319 827 300 827 Q281 827 265.5 814 Q250 801 247 782 Q246 779 246 773 Q246 758 257 747.5 Q268 737 284 737 Q303 737 318 750 Q333 763 337 782 Z " />
<glyph glyph-name="uni1E2E" unicode="&#x1e2e;" horiz-adv-x="165" d="M125 0 L248 700 L163 700 L40 0 L125 0 Z M193 782 Q196 801 185.5 814 Q175 827 156 827 Q137 827 121.5 814 Q106 801 103 782 Q102 779 102 773 Q102 758 113 747.5 Q124 737 140 737 Q159 737 174 750 Q189 763 193 782 Z M337 782 Q340 801 329.5 814 Q319 827 300 827 Q281 827 265.5 814 Q250 801 247 782 Q246 779 246 773 Q246 758 257 747.5 Q268 737 284 737 Q303 737 318 750 Q333 763 337 782 Z M296 969 L210 865 L261 865 L381 969 L296 969 Z " />
<glyph glyph-name="Idot" unicode="&#x130;" horiz-adv-x="170" d="M128 0 L251 700 L166 700 L43 0 L128 0 Z M268 782 Q271 801 260.5 814 Q250 827 231 827 Q212 827 196.5 814 Q181 801 178 782 Q177 779 177 773 Q177 758 188 747.5 Q199 737 215 737 Q234 737 249 750 Q264 763 268 782 Z " />
<glyph glyph-name="uni1ECA" unicode="&#x1eca;" horiz-adv-x="170" d="M78 -40 Q59 -40 43.5 -53 Q28 -66 25 -85 Q22 -104 32.5 -117 Q43 -130 62 -130 Q81 -130 96.5 -117 Q112 -104 115 -85 Q118 -66 107.5 -53 Q97 -40 78 -40 Z M127 0 L250 700 L165 700 L42 0 L127 0 Z " />
<glyph glyph-name="Igrave" unicode="&#xcc;" horiz-adv-x="165" d="M125 0 L248 700 L163 700 L40 0 L125 0 Z M188 841 L103 841 L187 737 L238 737 L188 841 Z " />
<glyph glyph-name="uni1EC8" unicode="&#x1ec8;" horiz-adv-x="165" d="M151 838 Q188 838 212 814 Q236 790 236 755 Q236 749 234 737 L191 737 Q192 741 192 747 Q192 767 178 781 Q164 795 143 795 L113 831 Q130 838 151 838 Z M125 0 L248 700 L163 700 L40 0 L125 0 Z " />
<glyph glyph-name="Imacron" unicode="&#x12a;" horiz-adv-x="164" d="M125 0 L248 700 L163 700 L40 0 L125 0 Z M364 737 L372 782 L68 782 L60 737 L364 737 Z " />
<glyph glyph-name="Iogonek" unicode="&#x12e;" horiz-adv-x="165" d="M248 700 L125 0 Q100 -8 80.5 -25.5 Q61 -43 59 -59 Q55 -81 95 -81 L104 -81 L96 -126 L77 -126 Q43 -126 21 -115.5 Q-1 -105 -1 -82 Q-1 -76 0 -73 Q6 -35 80 0 L40 0 L163 700 L248 700 Z " />
<glyph glyph-name="uni0197" unicode="&#x197;" horiz-adv-x="175" d="M237 382 L230 338 L190 338 L130 0 L45 0 L105 338 L65 338 L72 382 L112 382 L168 700 L253 700 L197 382 L237 382 Z " />
<glyph glyph-name="Itilde" unicode="&#x128;" horiz-adv-x="157" d="M125 0 L248 700 L163 700 L40 0 L125 0 Z M113 735 Q141 763 160 766 Q178 769 203 753 Q228 735 256 735 Q299 735 345 783 L316 809 Q290 783 270 779 Q252 776 231 790 Q200 810 174 810 Q132 810 84 762 L113 735 Z " />
<glyph glyph-name="J" unicode="J" horiz-adv-x="372" d="M174 -9 Q242 -9 292 30 Q347 74 362 156 L457 700 L372 700 L277 156 Q270 115 248.5 95.5 Q227 76 189 76 Q158 76 143 89 Q128 102 128 129 Q128 141 131 156 L146 246 L61 246 L46 156 Q42 136 42 112 Q42 61 70 30 Q107 -9 174 -9 Z " />
<glyph glyph-name="K" unicode="K" horiz-adv-x="392" d="M154 163 L125 0 L40 0 L163 700 L248 700 L189 363 L405 700 L499 700 L286 368 L376 0 L284 0 L219 264 L154 163 Z " />
<glyph glyph-name="Kcommaaccent" unicode="&#x136;" horiz-adv-x="392" d="M154 163 L125 0 L40 0 L163 700 L248 700 L189 363 L405 700 L499 700 L286 368 L376 0 L284 0 L219 264 L154 163 Z M234 -85 Q232 -99 214 -127 Q202 -144 175 -175 L142 -175 Q146 -169 149.5 -162.5 Q153 -156 157 -150 Q162 -138 162 -134 Q162 -128 157 -123 Q143 -111 143 -94 Q143 -88 144 -85 Q147 -66 162.5 -53 Q178 -40 197 -40 Q216 -40 226.5 -53 Q237 -66 234 -85 Z " />
<glyph glyph-name="uni0198" unicode="&#x198;" horiz-adv-x="441" d="M521 700 Q544 700 559 685.5 Q574 671 574 648 Q574 641 573 637 L530 637 L530 641 Q530 648 525.5 652.5 Q521 657 514 657 L472 657 L286 368 L376 0 L284 0 L219 264 L154 163 L125 0 L40 0 L163 700 L248 700 L189 363 L405 700 L521 700 Z " />
<glyph glyph-name="L" unicode="L" horiz-adv-x="332" d="M316 0 L331 85 L140 85 L248 700 L163 700 L40 0 L316 0 Z " />
<glyph glyph-name="Lacute" unicode="&#x139;" horiz-adv-x="332" d="M316 0 L331 85 L140 85 L248 699 L163 699 L40 0 L316 0 Z M273 841 L187 737 L238 737 L358 841 L273 841 Z " />
<glyph glyph-name="Lcaron" unicode="&#x13d;" horiz-adv-x="332" d="M316 0 L331 85 L140 85 L248 699 L163 699 L40 0 L316 0 Z M410 654 Q407 637 390 612 Q378 595 351 564 L318 564 Q323 572 333 589 Q338 602 338 606 Q338 612 334 616 Q317 631 320 654 Q324 673 339 686 Q354 699 373 699 Q389 699 400 688.5 Q411 678 411 663 Q411 657 410 654 Z " />
<glyph glyph-name="uni1E3C" unicode="&#x1e3c;" horiz-adv-x="332" d="M316 0 L331 85 L140 85 L248 699 L163 699 L40 0 L316 0 Z M264 -143 L214 -143 L164 -86 L94 -143 L43 -143 L129 -40 L214 -40 L264 -143 Z " />
<glyph glyph-name="Lcommaaccent" unicode="&#x13b;" horiz-adv-x="332" d="M316 0 L331 85 L140 85 L248 699 L163 699 L40 0 L316 0 Z M208 -85 Q206 -99 188 -127 Q176 -144 149 -175 L116 -175 Q120 -169 123.5 -162.5 Q127 -156 131 -150 Q136 -138 136 -134 Q136 -128 131 -123 Q117 -111 117 -94 Q117 -88 118 -85 Q121 -66 136.5 -53 Q152 -40 171 -40 Q190 -40 200.5 -53 Q211 -66 208 -85 Z " />
<glyph glyph-name="uni1E36" unicode="&#x1e36;" horiz-adv-x="332" d="M316 0 L331 85 L140 85 L248 699 L163 699 L40 0 L316 0 Z M171 -40 Q152 -40 136.5 -53 Q121 -66 118 -85 Q115 -104 125.5 -117 Q136 -130 155 -130 Q174 -130 189.5 -117 Q205 -104 208 -85 Q211 -66 200.5 -53 Q190 -40 171 -40 Z " />
<glyph glyph-name="Lslash" unicode="&#x141;" horiz-adv-x="332" d="M140 85 L331 85 L316 0 L40 0 L73 188 L9 131 L20 194 L84 251 L163 699 L248 699 L185 342 L334 477 L323 414 L174 279 L140 85 Z " />
<glyph glyph-name="M" unicode="M" horiz-adv-x="527" d="M306 237 L562 700 L610 700 L487 0 L402 0 L472 395 L302 86 L255 86 L195 395 L125 0 L40 0 L163 700 L211 700 L306 237 Z " />
<glyph glyph-name="uni1E3E" unicode="&#x1e3e;" horiz-adv-x="527" d="M306 237 L562 700 L610 700 L487 0 L402 0 L472 395 L302 86 L255 86 L195 395 L125 0 L40 0 L163 700 L211 700 L306 237 Z M454 841 L368 737 L419 737 L539 841 L454 841 Z " />
<glyph glyph-name="N" unicode="N" horiz-adv-x="405" d="M198 422 L124 0 L39 0 L162 700 L209 700 L330 277 L404 700 L489 700 L366 0 L319 0 L198 422 Z " />
<glyph glyph-name="Nacute" unicode="&#x143;" horiz-adv-x="405" d="M198 422 L124 0 L39 0 L162 700 L209 700 L330 277 L404 700 L489 700 L366 0 L319 0 L198 422 Z M393 841 L307 737 L358 737 L478 841 L393 841 Z " />
<glyph glyph-name="Ncaron" unicode="&#x147;" horiz-adv-x="405" d="M198 422 L124 0 L39 0 L162 700 L209 700 L330 277 L404 700 L489 700 L366 0 L319 0 L198 422 Z M461 840 L375 737 L290 737 L240 840 L291 840 L341 783 L411 840 L461 840 Z " />
<glyph glyph-name="uni1E4A" unicode="&#x1e4a;" horiz-adv-x="405" d="M198 422 L124 0 L39 0 L162 700 L209 700 L330 277 L404 700 L489 700 L366 0 L319 0 L198 422 Z M288 -143 L238 -143 L188 -86 L118 -143 L67 -143 L153 -40 L238 -40 L288 -143 Z " />
<glyph glyph-name="Ncommaaccent" unicode="&#x145;" horiz-adv-x="405" d="M233 -85 Q231 -99 213 -127 Q201 -144 174 -175 L141 -175 Q145 -169 148.5 -162.5 Q152 -156 156 -150 Q161 -138 161 -134 Q161 -128 156 -123 Q142 -111 142 -94 Q142 -88 143 -85 Q146 -66 161.5 -53 Q177 -40 196 -40 Q215 -40 225.5 -53 Q236 -66 233 -85 Z M198 422 L124 0 L39 0 L162 700 L209 700 L330 277 L404 700 L489 700 L366 0 L319 0 L198 422 Z " />
<glyph glyph-name="uni1E44" unicode="&#x1e44;" horiz-adv-x="405" d="M198 422 L124 0 L39 0 L162 700 L209 700 L330 277 L404 700 L489 700 L366 0 L319 0 L198 422 Z M349 827 Q330 827 314.5 814 Q299 801 296 782 Q295 779 295 773 Q295 758 306 747.5 Q317 737 333 737 Q352 737 367 750 Q382 763 386 782 Q389 801 378.5 814 Q368 827 349 827 Z " />
<glyph glyph-name="uni1E46" unicode="&#x1e46;" horiz-adv-x="405" d="M198 422 L124 0 L39 0 L162 700 L209 700 L330 277 L404 700 L489 700 L366 0 L319 0 L198 422 Z M196 -40 Q177 -40 161.5 -53 Q146 -66 143 -85 Q140 -104 150.5 -117 Q161 -130 180 -130 Q199 -130 214.5 -117 Q230 -104 233 -85 Q236 -66 225.5 -53 Q215 -40 196 -40 Z " />
<glyph glyph-name="Eng" unicode="&#x14a;" horiz-adv-x="405" d="M489 700 L359 -42 Q354 -68 332 -86.5 Q310 -105 284 -105 L292 -62 Q300 -62 307.5 -56 Q315 -50 316 -42 L323 0 L198 422 L124 0 L39 0 L162 700 L209 700 L330 277 L404 700 L489 700 Z " />
<glyph glyph-name="uni019D" unicode="&#x19d;" horiz-adv-x="405" d="M489 700 L366 0 L319 0 L198 422 L124 0 Q117 -43 87.5 -74 Q58 -105 0 -105 L8 -62 Q16 -62 23.5 -56 Q31 -50 32 -42 L162 700 L209 700 L330 277 L404 700 L489 700 Z " />
<glyph glyph-name="Ntilde" unicode="&#xd1;" horiz-adv-x="405" d="M198 422 L124 0 L39 0 L162 700 L209 700 L330 277 L404 700 L489 700 L366 0 L319 0 L198 422 Z M237 735 Q265 763 284 766 Q302 769 327 753 Q353 735 380 735 Q423 735 469 783 L440 809 Q414 783 394 779 Q376 776 355 790 Q324 810 298 810 Q256 810 208 762 L237 735 Z " />
<glyph glyph-name="O" unicode="O" horiz-adv-x="384" d="M190 -9 Q258 -9 308 30 Q363 74 378 156 L446 544 Q450 572 450 584 Q450 636 421 670 Q385 709 317 709 Q250 709 199 670 Q143 624 130 544 L62 156 Q58 136 58 114 Q58 61 86 30 Q123 -9 190 -9 Z M302 624 Q334 624 349 611 Q364 598 364 570 Q364 559 361 544 L293 156 Q285 115 264 95.5 Q243 76 205 76 Q174 76 159 89 Q144 102 144 129 Q144 141 147 156 L215 544 Q223 586 243.5 605 Q264 624 302 624 Z " />
<glyph glyph-name="Oacute" unicode="&#xd3;" horiz-adv-x="384" d="M190 -9 Q258 -9 308 30 Q363 74 378 156 L446 544 Q450 572 450 584 Q450 636 421 670 Q385 709 317 709 Q250 709 199 670 Q143 624 130 544 L62 156 Q58 136 58 114 Q58 61 86 30 Q123 -9 190 -9 Z M302 624 Q334 624 349 611 Q364 598 364 570 Q364 559 361 544 L293 156 Q285 115 264 95.5 Q243 76 205 76 Q174 76 159 89 Q144 102 144 129 Q144 141 147 156 L215 544 Q223 586 243.5 605 Q264 624 302 624 Z M382 841 L296 737 L347 737 L467 841 L382 841 Z " />
<glyph glyph-name="uni01D1" unicode="&#x1d1;" horiz-adv-x="384" d="M190 -9 Q258 -9 308 30 Q363 74 378 156 L446 544 Q450 572 450 584 Q450 636 421 670 Q385 709 317 709 Q250 709 199 670 Q143 624 130 544 L62 156 Q58 136 58 114 Q58 61 86 30 Q123 -9 190 -9 Z M302 624 Q334 624 349 611 Q364 598 364 570 Q364 559 361 544 L293 156 Q285 115 264 95.5 Q243 76 205 76 Q174 76 159 89 Q144 102 144 129 Q144 141 147 156 L215 544 Q223 586 243.5 605 Q264 624 302 624 Z M450 840 L364 737 L279 737 L229 840 L280 840 L330 783 L400 840 L450 840 Z " />
<glyph glyph-name="Ocircumflex" unicode="&#xd4;" horiz-adv-x="384" d="M190 -9 Q258 -9 308 30 Q363 74 378 156 L446 544 Q450 572 450 584 Q450 636 421 670 Q385 709 317 709 Q250 709 199 670 Q143 624 130 544 L62 156 Q58 136 58 114 Q58 61 86 30 Q123 -9 190 -9 Z M302 624 Q334 624 349 611 Q364 598 364 570 Q364 559 361 544 L293 156 Q285 115 264 95.5 Q243 76 205 76 Q174 76 159 89 Q144 102 144 129 Q144 141 147 156 L215 544 Q223 586 243.5 605 Q264 624 302 624 Z M432 737 L382 737 L332 794 L262 737 L211 737 L297 840 L382 840 L432 737 Z " />
<glyph glyph-name="uni1ED0" unicode="&#x1ed0;" horiz-adv-x="384" d="M190 -9 Q258 -9 308 30 Q363 74 378 156 L446 544 Q450 572 450 584 Q450 636 421 670 Q385 709 317 709 Q250 709 199 670 Q143 624 130 544 L62 156 Q58 136 58 114 Q58 61 86 30 Q123 -9 190 -9 Z M302 624 Q334 624 349 611 Q364 598 364 570 Q364 559 361 544 L293 156 Q285 115 264 95.5 Q243 76 205 76 Q174 76 159 89 Q144 102 144 129 Q144 141 147 156 L215 544 Q223 586 243.5 605 Q264 624 302 624 Z M432 737 L382 737 L332 794 L262 737 L211 737 L297 840 L382 840 L432 737 Z M513 942 L428 837 L478 837 L599 942 L513 942 Z " />
<glyph glyph-name="uni1ED8" unicode="&#x1ed8;" horiz-adv-x="384" d="M190 -9 Q258 -9 308 30 Q363 74 378 156 L446 544 Q450 572 450 584 Q450 636 421 670 Q385 709 317 709 Q250 709 199 670 Q143 624 130 544 L62 156 Q58 136 58 114 Q58 61 86 30 Q123 -9 190 -9 Z M302 624 Q334 624 349 611 Q364 598 364 570 Q364 559 361 544 L293 156 Q285 115 264 95.5 Q243 76 205 76 Q174 76 159 89 Q144 102 144 129 Q144 141 147 156 L215 544 Q223 586 243.5 605 Q264 624 302 624 Z M185 -40 Q166 -40 150.5 -53 Q135 -66 132 -85 Q129 -104 139.5 -117 Q150 -130 169 -130 Q188 -130 203.5 -117 Q219 -104 222 -85 Q225 -66 214.5 -53 Q204 -40 185 -40 Z M432 737 L382 737 L332 794 L262 737 L211 737 L297 840 L382 840 L432 737 Z " />
<glyph glyph-name="uni1ED2" unicode="&#x1ed2;" horiz-adv-x="384" d="M190 -9 Q258 -9 308 30 Q363 74 378 156 L446 544 Q450 572 450 584 Q450 636 421 670 Q385 709 317 709 Q250 709 199 670 Q143 624 130 544 L62 156 Q58 136 58 114 Q58 61 86 30 Q123 -9 190 -9 Z M302 624 Q334 624 349 611 Q364 598 364 570 Q364 559 361 544 L293 156 Q285 115 264 95.5 Q243 76 205 76 Q174 76 159 89 Q144 102 144 129 Q144 141 147 156 L215 544 Q223 586 243.5 605 Q264 624 302 624 Z M432 737 L382 737 L332 794 L262 737 L211 737 L297 840 L382 840 L432 737 Z M429 942 L343 942 L428 837 L478 837 L429 942 Z " />
<glyph glyph-name="uni1ED4" unicode="&#x1ed4;" horiz-adv-x="384" d="M190 -9 Q258 -9 308 30 Q363 74 378 156 L446 544 Q450 572 450 584 Q450 636 421 670 Q385 709 317 709 Q250 709 199 670 Q143 624 130 544 L62 156 Q58 136 58 114 Q58 61 86 30 Q123 -9 190 -9 Z M302 624 Q334 624 349 611 Q364 598 364 570 Q364 559 361 544 L293 156 Q285 115 264 95.5 Q243 76 205 76 Q174 76 159 89 Q144 102 144 129 Q144 141 147 156 L215 544 Q223 586 243.5 605 Q264 624 302 624 Z M432 737 L382 737 L332 794 L262 737 L211 737 L297 840 L382 840 L432 737 Z M387 938 Q424 938 448 913.5 Q472 889 472 853 Q472 843 471 837 L428 837 L429 846 Q429 867 415.5 881 Q402 895 380 895 L349 931 Q367 938 387 938 Z " />
<glyph glyph-name="uni1ED6" unicode="&#x1ed6;" horiz-adv-x="384" d="M190 -9 Q258 -9 308 30 Q363 74 378 156 L446 544 Q450 572 450 584 Q450 636 421 670 Q385 709 317 709 Q250 709 199 670 Q143 624 130 544 L62 156 Q58 136 58 114 Q58 61 86 30 Q123 -9 190 -9 Z M302 624 Q334 624 349 611 Q364 598 364 570 Q364 559 361 544 L293 156 Q285 115 264 95.5 Q243 76 205 76 Q174 76 159 89 Q144 102 144 129 Q144 141 147 156 L215 544 Q223 586 243.5 605 Q264 624 302 624 Z M245 865 Q273 893 292 896 Q310 899 335 883 Q361 865 388 865 Q431 865 477 913 L448 939 Q422 913 402 909 Q383 906 363 920 Q332 940 306 940 Q264 940 216 892 L245 865 Z M432 737 L382 737 L332 794 L262 737 L211 737 L297 840 L382 840 L432 737 Z " />
<glyph glyph-name="Odieresis" unicode="&#xd6;" horiz-adv-x="384" d="M190 -9 Q258 -9 308 30 Q363 74 378 156 L446 544 Q450 572 450 584 Q450 636 421 670 Q385 709 317 709 Q250 709 199 670 Q143 624 130 544 L62 156 Q58 136 58 114 Q58 61 86 30 Q123 -9 190 -9 Z M302 624 Q334 624 349 611 Q364 598 364 570 Q364 559 361 544 L293 156 Q285 115 264 95.5 Q243 76 205 76 Q174 76 159 89 Q144 102 144 129 Q144 141 147 156 L215 544 Q223 586 243.5 605 Q264 624 302 624 Z M303 782 Q306 801 295.5 814 Q285 827 266 827 Q247 827 231.5 814 Q216 801 213 782 Q212 779 212 773 Q212 758 223 747.5 Q234 737 250 737 Q269 737 284 750 Q299 763 303 782 Z M447 782 Q450 801 439.5 814 Q429 827 410 827 Q391 827 375.5 814 Q360 801 357 782 Q356 779 356 773 Q356 758 367 747.5 Q378 737 394 737 Q413 737 428 750 Q443 763 447 782 Z " />
<glyph glyph-name="uni022A" unicode="&#x22a;" horiz-adv-x="384" d="M190 -9 Q258 -9 308 30 Q363 74 378 156 L446 544 Q450 572 450 584 Q450 636 421 670 Q385 709 317 709 Q250 709 199 670 Q143 624 130 544 L62 156 Q58 136 58 114 Q58 61 86 30 Q123 -9 190 -9 Z M302 624 Q334 624 349 611 Q364 598 364 570 Q364 559 361 544 L293 156 Q285 115 264 95.5 Q243 76 205 76 Q174 76 159 89 Q144 102 144 129 Q144 141 147 156 L215 544 Q223 586 243.5 605 Q264 624 302 624 Z M303 782 Q306 801 295.5 814 Q285 827 266 827 Q247 827 231.5 814 Q216 801 213 782 Q212 779 212 773 Q212 758 223 747.5 Q234 737 250 737 Q269 737 284 750 Q299 763 303 782 Z M447 782 Q450 801 439.5 814 Q429 827 410 827 Q391 827 375.5 814 Q360 801 357 782 Q356 779 356 773 Q356 758 367 747.5 Q378 737 394 737 Q413 737 428 750 Q443 763 447 782 Z M497 865 L504 910 L200 910 L193 865 L497 865 Z " />
<glyph glyph-name="uni1ECC" unicode="&#x1ecc;" horiz-adv-x="384" d="M190 -9 Q258 -9 308 30 Q363 74 378 156 L446 544 Q450 572 450 584 Q450 636 421 670 Q385 709 317 709 Q250 709 199 670 Q143 624 130 544 L62 156 Q58 136 58 114 Q58 61 86 30 Q123 -9 190 -9 Z M302 624 Q334 624 349 611 Q364 598 364 570 Q364 559 361 544 L293 156 Q285 115 264 95.5 Q243 76 205 76 Q174 76 159 89 Q144 102 144 129 Q144 141 147 156 L215 544 Q223 586 243.5 605 Q264 624 302 624 Z M185 -40 Q166 -40 150.5 -53 Q135 -66 132 -85 Q129 -104 139.5 -117 Q150 -130 169 -130 Q188 -130 203.5 -117 Q219 -104 222 -85 Q225 -66 214.5 -53 Q204 -40 185 -40 Z " />
<glyph glyph-name="Ograve" unicode="&#xd2;" horiz-adv-x="384" d="M190 -9 Q258 -9 308 30 Q363 74 378 156 L446 544 Q450 572 450 584 Q450 636 421 670 Q385 709 317 709 Q250 709 199 670 Q143 624 130 544 L62 156 Q58 136 58 114 Q58 61 86 30 Q123 -9 190 -9 Z M302 624 Q334 624 349 611 Q364 598 364 570 Q364 559 361 544 L293 156 Q285 115 264 95.5 Q243 76 205 76 Q174 76 159 89 Q144 102 144 129 Q144 141 147 156 L215 544 Q223 586 243.5 605 Q264 624 302 624 Z M297 841 L212 841 L296 737 L347 737 L297 841 Z " />
<glyph glyph-name="uni1ECE" unicode="&#x1ece;" horiz-adv-x="384" d="M190 -9 Q258 -9 308 30 Q363 74 378 156 L446 544 Q450 572 450 584 Q450 636 421 670 Q385 709 317 709 Q250 709 199 670 Q143 624 130 544 L62 156 Q58 136 58 114 Q58 61 86 30 Q123 -9 190 -9 Z M302 624 Q334 624 349 611 Q364 598 364 570 Q364 559 361 544 L293 156 Q285 115 264 95.5 Q243 76 205 76 Q174 76 159 89 Q144 102 144 129 Q144 141 147 156 L215 544 Q223 586 243.5 605 Q264 624 302 624 Z M260 838 Q297 838 321 814 Q345 790 345 755 Q345 749 343 737 L300 737 Q301 741 301 747 Q301 767 287 781 Q273 795 252 795 L222 831 Q239 838 260 838 Z " />
<glyph glyph-name="Ohorn" unicode="&#x1a0;" horiz-adv-x="394" d="M543 729 Q538 703 515.5 684.5 Q493 666 467 666 L424 666 Q450 632 450 583 Q450 572 446 544 L378 156 Q363 74 308 30 Q258 -9 190 -9 Q123 -9 86 30 Q58 61 58 114 Q58 136 62 156 L130 544 Q143 624 199 670 Q250 709 317 709 L475 709 Q483 709 491 715 Q499 721 500 729 L543 729 Z M361 544 Q364 559 364 570 Q364 598 349 611 Q334 624 302 624 Q264 624 243.5 605 Q223 586 215 544 L147 156 Q144 141 144 129 Q144 102 159 89 Q174 76 205 76 Q243 76 264 95.5 Q285 115 293 156 L361 544 Z " />
<glyph glyph-name="uni1EDA" unicode="&#x1eda;" horiz-adv-x="394" d="M543 729 Q538 703 515.5 684.5 Q493 666 467 666 L424 666 Q450 632 450 583 Q450 572 446 544 L378 156 Q363 74 308 30 Q258 -9 190 -9 Q123 -9 86 30 Q58 61 58 114 Q58 136 62 156 L130 544 Q143 624 199 670 Q250 709 317 709 L475 709 Q483 709 491 715 Q499 721 500 729 L543 729 Z M361 544 Q364 559 364 570 Q364 598 349 611 Q334 624 302 624 Q264 624 243.5 605 Q223 586 215 544 L147 156 Q144 141 144 129 Q144 102 159 89 Q174 76 205 76 Q243 76 264 95.5 Q285 115 293 156 L361 544 Z M382 841 L296 737 L347 737 L467 841 L382 841 Z " />
<glyph glyph-name="uni1EE2" unicode="&#x1ee2;" horiz-adv-x="394" d="M543 729 Q538 703 515.5 684.5 Q493 666 467 666 L424 666 Q450 632 450 583 Q450 572 446 544 L378 156 Q363 74 308 30 Q258 -9 190 -9 Q123 -9 86 30 Q58 61 58 114 Q58 136 62 156 L130 544 Q143 624 199 670 Q250 709 317 709 L475 709 Q483 709 491 715 Q499 721 500 729 L543 729 Z M361 544 Q364 559 364 570 Q364 598 349 611 Q334 624 302 624 Q264 624 243.5 605 Q223 586 215 544 L147 156 Q144 141 144 129 Q144 102 159 89 Q174 76 205 76 Q243 76 264 95.5 Q285 115 293 156 L361 544 Z M185 -40 Q166 -40 150.5 -53 Q135 -66 132 -85 Q129 -104 139.5 -117 Q150 -130 169 -130 Q188 -130 203.5 -117 Q219 -104 222 -85 Q225 -66 214.5 -53 Q204 -40 185 -40 Z " />
<glyph glyph-name="uni1EDC" unicode="&#x1edc;" horiz-adv-x="394" d="M543 729 Q538 703 515.5 684.5 Q493 666 467 666 L424 666 Q450 632 450 583 Q450 572 446 544 L378 156 Q363 74 308 30 Q258 -9 190 -9 Q123 -9 86 30 Q58 61 58 114 Q58 136 62 156 L130 544 Q143 624 199 670 Q250 709 317 709 L475 709 Q483 709 491 715 Q499 721 500 729 L543 729 Z M361 544 Q364 559 364 570 Q364 598 349 611 Q334 624 302 624 Q264 624 243.5 605 Q223 586 215 544 L147 156 Q144 141 144 129 Q144 102 159 89 Q174 76 205 76 Q243 76 264 95.5 Q285 115 293 156 L361 544 Z M297 841 L212 841 L296 737 L347 737 L297 841 Z " />
<glyph glyph-name="uni1EDE" unicode="&#x1ede;" horiz-adv-x="394" d="M543 729 Q538 703 515.5 684.5 Q493 666 467 666 L424 666 Q450 632 450 583 Q450 572 446 544 L378 156 Q363 74 308 30 Q258 -9 190 -9 Q123 -9 86 30 Q58 61 58 114 Q58 136 62 156 L130 544 Q143 624 199 670 Q250 709 317 709 L475 709 Q483 709 491 715 Q499 721 500 729 L543 729 Z M361 544 Q364 559 364 570 Q364 598 349 611 Q334 624 302 624 Q264 624 243.5 605 Q223 586 215 544 L147 156 Q144 141 144 129 Q144 102 159 89 Q174 76 205 76 Q243 76 264 95.5 Q285 115 293 156 L361 544 Z M260 838 Q297 838 321 814 Q345 790 345 755 Q345 749 343 737 L300 737 Q301 741 301 747 Q301 767 287 781 Q273 795 252 795 L222 831 Q239 838 260 838 Z " />
<glyph glyph-name="uni1EE0" unicode="&#x1ee0;" horiz-adv-x="394" d="M543 729 Q538 703 515.5 684.5 Q493 666 467 666 L424 666 Q450 632 450 583 Q450 572 446 544 L378 156 Q363 74 308 30 Q258 -9 190 -9 Q123 -9 86 30 Q58 61 58 114 Q58 136 62 156 L130 544 Q143 624 199 670 Q250 709 317 709 L475 709 Q483 709 491 715 Q499 721 500 729 L543 729 Z M361 544 Q364 559 364 570 Q364 598 349 611 Q334 624 302 624 Q264 624 243.5 605 Q223 586 215 544 L147 156 Q144 141 144 129 Q144 102 159 89 Q174 76 205 76 Q243 76 264 95.5 Q285 115 293 156 L361 544 Z M227 735 Q255 763 274 766 Q292 769 317 753 Q342 735 370 735 Q413 735 459 783 L430 809 Q404 783 384 779 Q366 776 345 790 Q314 810 288 810 Q246 810 198 762 L227 735 Z " />
<glyph glyph-name="Ohungarumlaut" unicode="&#x150;" horiz-adv-x="384" d="M190 -9 Q258 -9 308 30 Q363 74 378 156 L446 544 Q450 572 450 584 Q450 636 421 670 Q385 709 317 709 Q250 709 199 670 Q143 624 130 544 L62 156 Q58 136 58 114 Q58 61 86 30 Q123 -9 190 -9 Z M302 624 Q334 624 349 611 Q364 598 364 570 Q364 559 361 544 L293 156 Q285 115 264 95.5 Q243 76 205 76 Q174 76 159 89 Q144 102 144 129 Q144 141 147 156 L215 544 Q223 586 243.5 605 Q264 624 302 624 Z M314 842 L229 737 L279 737 L400 842 L314 842 Z M449 842 L364 737 L414 737 L535 842 L449 842 Z " />
<glyph glyph-name="Omacron" unicode="&#x14c;" horiz-adv-x="384" d="M190 -9 Q258 -9 308 30 Q363 74 378 156 L446 544 Q450 572 450 584 Q450 636 421 670 Q385 709 317 709 Q250 709 199 670 Q143 624 130 544 L62 156 Q58 136 58 114 Q58 61 86 30 Q123 -9 190 -9 Z M302 624 Q334 624 349 611 Q364 598 364 570 Q364 559 361 544 L293 156 Q285 115 264 95.5 Q243 76 205 76 Q174 76 159 89 Q144 102 144 129 Q144 141 147 156 L215 544 Q223 586 243.5 605 Q264 624 302 624 Z M474 737 L482 782 L178 782 L170 737 L474 737 Z " />
<glyph glyph-name="uni1E52" unicode="&#x1e52;" horiz-adv-x="384" d="M190 -9 Q258 -9 308 30 Q363 74 378 156 L446 544 Q450 572 450 584 Q450 636 421 670 Q385 709 317 709 Q250 709 199 670 Q143 624 130 544 L62 156 Q58 136 58 114 Q58 61 86 30 Q123 -9 190 -9 Z M302 624 Q334 624 349 611 Q364 598 364 570 Q364 559 361 544 L293 156 Q285 115 264 95.5 Q243 76 205 76 Q174 76 159 89 Q144 102 144 129 Q144 141 147 156 L215 544 Q223 586 243.5 605 Q264 624 302 624 Z M312 924 L227 924 L311 820 L362 820 L312 924 Z M474 737 L482 782 L178 782 L170 737 L474 737 Z " />
<glyph glyph-name="uni1E50" unicode="&#x1e50;" horiz-adv-x="384" d="M190 -9 Q258 -9 308 30 Q363 74 378 156 L446 544 Q450 572 450 584 Q450 636 421 670 Q385 709 317 709 Q250 709 199 670 Q143 624 130 544 L62 156 Q58 136 58 114 Q58 61 86 30 Q123 -9 190 -9 Z M302 624 Q334 624 349 611 Q364 598 364 570 Q364 559 361 544 L293 156 Q285 115 264 95.5 Q243 76 205 76 Q174 76 159 89 Q144 102 144 129 Q144 141 147 156 L215 544 Q223 586 243.5 605 Q264 624 302 624 Z M398 924 L312 820 L363 820 L483 924 L398 924 Z M474 737 L482 782 L178 782 L170 737 L474 737 Z " />
<glyph glyph-name="uni0186" unicode="&#x186;" horiz-adv-x="381" d="M187 -9 Q256 -9 304 30 Q360 74 375 156 L443 545 Q447 564 447 585 Q447 638 417 671 Q383 710 314 710 Q247 710 196 671 Q141 626 126 545 L115 481 L200 481 L211 545 Q219 586 240 605.5 Q261 625 299 625 Q361 625 361 571 Q361 559 358 545 L290 156 Q283 115 261.5 95.5 Q240 76 202 76 Q170 76 155 89 Q140 102 140 130 Q140 141 143 156 L159 250 L74 250 L58 156 Q54 136 54 114 Q54 60 83 30 Q120 -9 187 -9 Z " />
<glyph glyph-name="Oslash" unicode="&#xd8;" horiz-adv-x="385" d="M445 621 Q451 603 451 581 Q451 569 447 543 L378 155 Q365 74 308 30 Q262 -9 191 -9 Q121 -9 87 30 Q86 31 84 34 L51 -19 L14 -1 L63 77 Q57 95 57 117 Q57 129 61 155 L130 543 Q143 624 200 668 Q247 707 318 707 Q386 707 421 668 Q422 667 424 664 L457 717 L494 699 L445 621 Z M161 237 L364 566 Q365 595 350 608.5 Q335 622 303 622 Q265 622 243.5 603 Q222 584 215 543 L161 237 Z M347 461 L144 132 Q143 103 158.5 89.5 Q174 76 206 76 Q244 76 265 95 Q286 114 293 155 L347 461 Z " />
<glyph glyph-name="Oslashacute" unicode="&#x1fe;" horiz-adv-x="385" d="M445 621 Q451 603 451 581 Q451 569 447 543 L378 155 Q365 74 308 30 Q262 -9 191 -9 Q121 -9 87 30 Q86 31 84 34 L51 -19 L14 -1 L63 77 Q57 95 57 117 Q57 129 61 155 L130 543 Q143 624 200 668 Q247 707 318 707 Q386 707 421 668 Q422 667 424 664 L457 717 L494 699 L445 621 Z M161 237 L364 566 Q365 595 350 608.5 Q335 622 303 622 Q265 622 243.5 603 Q222 584 215 543 L161 237 Z M347 461 L144 132 Q143 103 158.5 89.5 Q174 76 206 76 Q244 76 265 95 Q286 114 293 155 L347 461 Z " />
<glyph glyph-name="Otilde" unicode="&#xd5;" horiz-adv-x="384" d="M190 -9 Q258 -9 308 30 Q363 74 378 156 L446 544 Q450 572 450 584 Q450 636 421 670 Q385 709 317 709 Q250 709 199 670 Q143 624 130 544 L62 156 Q58 136 58 114 Q58 61 86 30 Q123 -9 190 -9 Z M302 624 Q334 624 349 611 Q364 598 364 570 Q364 559 361 544 L293 156 Q285 115 264 95.5 Q243 76 205 76 Q174 76 159 89 Q144 102 144 129 Q144 141 147 156 L215 544 Q223 586 243.5 605 Q264 624 302 624 Z M227 735 Q255 763 274 766 Q292 769 317 753 Q342 735 370 735 Q413 735 459 783 L430 809 Q404 783 384 779 Q366 776 345 790 Q314 810 288 810 Q246 810 198 762 L227 735 Z " />
<glyph glyph-name="uni1E4C" unicode="&#x1e4c;" horiz-adv-x="384" d="M190 -9 Q258 -9 308 30 Q363 74 378 156 L446 544 Q450 572 450 584 Q450 636 421 670 Q385 709 317 709 Q250 709 199 670 Q143 624 130 544 L62 156 Q58 136 58 114 Q58 61 86 30 Q123 -9 190 -9 Z M302 624 Q334 624 349 611 Q364 598 364 570 Q364 559 361 544 L293 156 Q285 115 264 95.5 Q243 76 205 76 Q174 76 159 89 Q144 102 144 129 Q144 141 147 156 L215 544 Q223 586 243.5 605 Q264 624 302 624 Z M227 735 Q255 763 274 766 Q292 769 317 753 Q342 735 370 735 Q413 735 459 783 L430 809 Q404 783 384 779 Q366 776 345 790 Q314 810 288 810 Q246 810 198 762 L227 735 Z M403 952 L317 848 L368 848 L488 952 L403 952 Z " />
<glyph glyph-name="OE" unicode="&#x152;" horiz-adv-x="528" d="M414 615 L377 402 L510 402 L495 317 L362 317 L321 85 L512 85 L497 0 L192 0 Q124 0 88 39 Q59 73 59 125 Q59 137 63 165 L128 535 Q143 618 198 661 Q248 700 315 700 L620 700 L605 615 L414 615 Z M148 165 Q145 150 145 139 Q145 111 160 98 Q175 85 207 85 L236 85 L329 615 L300 615 Q262 615 241.5 596 Q221 577 213 535 L148 165 Z " />
<glyph glyph-name="P" unicode="P" horiz-adv-x="379" d="M176 292 L249 292 Q319 292 367 331 Q423 376 436 456 L450 535 Q454 555 454 576 Q454 628 426 661 Q389 700 321 700 L163 700 L40 0 L125 0 L176 292 Z M233 615 L306 615 Q368 615 368 561 Q368 549 365 535 L351 456 Q344 415 323 396 Q302 377 264 377 L191 377 L233 615 Z " />
<glyph glyph-name="uni01A4" unicode="&#x1a4;" horiz-adv-x="424" d="M471 661 Q499 628 499 576 Q499 555 495 535 L481 456 Q468 376 412 331 Q364 292 294 292 L221 292 L170 0 L85 0 L201 657 L159 657 Q151 657 143.5 651 Q136 645 135 637 L92 637 Q96 663 118 681.5 Q140 700 166 700 L366 700 Q434 700 471 661 Z M410 535 Q413 549 413 561 Q413 615 351 615 L278 615 L236 377 L309 377 Q347 377 368 396 Q389 415 396 456 L410 535 Z " />
<glyph glyph-name="Thorn" unicode="&#xde;" horiz-adv-x="379" d="M223 557 L296 557 Q358 557 358 503 Q358 491 355 477 L341 398 Q334 357 313 338 Q292 319 254 319 L181 319 L223 557 Z M166 234 L239 234 Q309 234 357 273 Q413 318 426 398 L440 477 Q444 496 444 518 Q444 571 415 603 Q379 642 311 642 L238 642 L248 700 L163 700 L40 0 L125 0 L166 234 Z " />
<glyph glyph-name="Q" unicode="Q" horiz-adv-x="384" d="M365 -47 L350 -132 L337 -132 Q270 -132 235 -94 Q215 -71 211 -42 Q208 -26 208 -7 Q203 -8 192 -8 Q124 -8 87 31 Q58 65 58 116 Q58 138 62 157 L130 544 Q144 626 200 670 Q251 709 318 709 Q386 709 422 670 Q451 638 451 584 Q451 572 447 544 L379 157 Q364 76 309 31 L295 21 Q293 9 293 3 Q293 -19 304 -32 Q319 -47 352 -47 L365 -47 Z M147 157 Q144 144 144 131 Q144 77 207 77 Q244 77 265 96.5 Q286 116 294 157 L362 544 Q365 558 365 570 Q365 624 303 624 Q265 624 244 604.5 Q223 585 215 544 L147 157 Z " />
<glyph glyph-name="R" unicode="R" horiz-adv-x="385" d="M357 0 L269 0 L240 292 L176 292 L125 0 L40 0 L163 700 L321 700 Q355 700 382 690 Q409 680 426 661 Q455 629 455 576 Q455 554 451 535 L437 456 Q424 375 367 331 Q351 317 327 307 L357 0 Z M366 535 Q369 549 369 561 Q369 615 306 615 L233 615 L191 377 L264 377 Q302 377 323.5 396 Q345 415 352 456 L366 535 Z " />
<glyph glyph-name="Racute" unicode="&#x154;" horiz-adv-x="385" d="M357 0 L269 0 L240 292 L176 292 L125 0 L40 0 L163 700 L321 700 Q355 700 382 690 Q409 680 426 661 Q455 629 455 576 Q455 554 451 535 L437 456 Q424 375 367 331 Q351 317 327 307 L357 0 Z M366 535 Q369 549 369 561 Q369 615 306 615 L233 615 L191 377 L264 377 Q302 377 323.5 396 Q345 415 352 456 L366 535 Z M390 841 L304 737 L355 737 L475 841 L390 841 Z " />
<glyph glyph-name="Rcaron" unicode="&#x158;" horiz-adv-x="385" d="M357 0 L269 0 L240 292 L176 292 L125 0 L40 0 L163 700 L321 700 Q355 700 382 690 Q409 680 426 661 Q455 629 455 576 Q455 554 451 535 L437 456 Q424 375 367 331 Q351 317 327 307 L357 0 Z M366 535 Q369 549 369 561 Q369 615 306 615 L233 615 L191 377 L264 377 Q302 377 323.5 396 Q345 415 352 456 L366 535 Z M438 737 L388 737 L338 794 L268 737 L217 737 L303 840 L388 840 L438 737 Z " />
<glyph glyph-name="Rcommaaccent" unicode="&#x156;" horiz-adv-x="385" d="M357 0 L269 0 L240 292 L176 292 L125 0 L40 0 L163 700 L321 700 Q355 700 382 690 Q409 680 426 661 Q455 629 455 576 Q455 554 451 535 L437 456 Q424 375 367 331 Q351 317 327 307 L357 0 Z M366 535 Q369 549 369 561 Q369 615 306 615 L233 615 L191 377 L264 377 Q302 377 323.5 396 Q345 415 352 456 L366 535 Z M229 -85 Q227 -99 209 -127 Q197 -144 170 -175 L137 -175 Q141 -169 144.5 -162.5 Q148 -156 152 -150 Q157 -138 157 -134 Q157 -128 152 -123 Q138 -111 138 -94 Q138 -88 139 -85 Q142 -66 157.5 -53 Q173 -40 192 -40 Q211 -40 221.5 -53 Q232 -66 229 -85 Z " />
<glyph glyph-name="uni024C" unicode="&#x24c;" horiz-adv-x="390" d="M442 456 Q429 375 372 331 Q356 317 332 307 L362 0 L274 0 L245 292 L181 292 L130 0 L45 0 L96 292 L56 292 L71 377 L111 377 L168 700 L326 700 Q360 700 387 690 Q414 680 431 661 Q460 629 460 576 Q460 554 456 535 L442 456 Z M371 535 Q374 549 374 561 Q374 615 311 615 L238 615 L196 377 L269 377 Q307 377 328.5 396 Q350 415 357 456 L371 535 Z " />
<glyph glyph-name="uni2C64" unicode="&#x2c64;" horiz-adv-x="385" d="M437 456 Q424 375 367 331 Q351 317 327 307 L357 0 L269 0 L240 292 L176 292 L118 -42 L118 -46 Q118 -53 122.5 -57.5 Q127 -62 134 -62 L126 -105 Q38 -105 38 -26 Q38 -16 40 0 L163 700 L321 700 Q355 700 382 690 Q409 680 426 661 Q455 629 455 576 Q455 554 451 535 L437 456 Z M366 535 Q369 549 369 561 Q369 615 306 615 L233 615 L191 377 L264 377 Q302 377 323.5 396 Q345 415 352 456 L366 535 Z " />
<glyph glyph-name="S" unicode="S" horiz-adv-x="371" d="M183 -9 Q217 -9 247.5 1 Q278 11 301 30 Q357 74 372 156 L380 202 Q384 230 384 243 Q384 296 355 336 Q342 356 322.5 371 Q303 386 276 402 Q250 419 237.5 428.5 Q225 438 216 450 Q202 470 202 497 Q202 510 205 525 L208 544 Q216 585 237 604.5 Q258 624 295 624 Q358 624 358 570 Q358 558 355 544 L344 480 L429 480 L440 544 Q444 572 444 584 Q444 637 414 670 Q397 689 370.5 699 Q344 709 310 709 Q243 709 193 670 Q136 624 123 544 L120 525 Q116 504 116 481 Q116 431 143 393 Q157 374 175 360 Q193 346 222 328 Q247 313 260 303 Q273 293 282 280 Q297 259 297 228 Q297 212 295 202 L287 156 Q280 115 258 95.5 Q236 76 198 76 Q137 76 137 130 Q137 141 140 156 L156 251 L71 251 L55 156 Q51 136 51 114 Q51 60 80 30 Q116 -9 183 -9 Z " />
<glyph glyph-name="Sacute" unicode="&#x15a;" horiz-adv-x="371" d="M183 -9 Q217 -9 247.5 1 Q278 11 301 30 Q357 74 372 156 L380 202 Q384 230 384 243 Q384 296 355 336 Q342 356 322.5 371 Q303 386 276 402 Q250 419 237.5 428.5 Q225 438 216 450 Q202 470 202 497 Q202 510 205 525 L208 544 Q216 585 237 604.5 Q258 624 295 624 Q358 624 358 570 Q358 558 355 544 L344 480 L429 480 L440 544 Q444 572 444 584 Q444 637 414 670 Q397 689 370.5 699 Q344 709 310 709 Q243 709 193 670 Q136 624 123 544 L120 525 Q116 504 116 481 Q116 431 143 393 Q157 374 175 360 Q193 346 222 328 Q247 313 260 303 Q273 293 282 280 Q297 259 297 228 Q297 212 295 202 L287 156 Q280 115 258 95.5 Q236 76 198 76 Q137 76 137 130 Q137 141 140 156 L156 251 L71 251 L55 156 Q51 136 51 114 Q51 60 80 30 Q116 -9 183 -9 Z M376 841 L290 737 L341 737 L461 841 L376 841 Z " />
<glyph glyph-name="Scaron" unicode="&#x160;" horiz-adv-x="371" d="M183 -9 Q217 -9 247.5 1 Q278 11 301 30 Q357 74 372 156 L380 202 Q384 230 384 243 Q384 296 355 336 Q342 356 322.5 371 Q303 386 276 402 Q250 419 237.5 428.5 Q225 438 216 450 Q202 470 202 497 Q202 510 205 525 L208 544 Q216 585 237 604.5 Q258 624 295 624 Q358 624 358 570 Q358 558 355 544 L344 480 L429 480 L440 544 Q444 572 444 584 Q444 637 414 670 Q397 689 370.5 699 Q344 709 310 709 Q243 709 193 670 Q136 624 123 544 L120 525 Q116 504 116 481 Q116 431 143 393 Q157 374 175 360 Q193 346 222 328 Q247 313 260 303 Q273 293 282 280 Q297 259 297 228 Q297 212 295 202 L287 156 Q280 115 258 95.5 Q236 76 198 76 Q137 76 137 130 Q137 141 140 156 L156 251 L71 251 L55 156 Q51 136 51 114 Q51 60 80 30 Q116 -9 183 -9 Z M444 840 L358 737 L273 737 L223 840 L274 840 L324 783 L394 840 L444 840 Z " />
<glyph glyph-name="Scedilla" unicode="&#x15e;" horiz-adv-x="371" d="M344 480 L355 544 Q358 558 358 570 Q358 624 295 624 Q258 624 237 604.5 Q216 585 208 544 L205 525 Q202 510 202 497 Q202 470 216 450 Q225 438 237.5 428.5 Q250 419 276 402 Q303 386 322.5 371 Q342 356 355 336 Q384 296 384 243 Q384 230 380 202 L372 156 Q357 74 301 30 Q263 -2 207 -8 Q207 -10 211 -13 Q212 -13 212.5 -13.5 Q213 -14 212 -15 Q223 -24 229.5 -33.5 Q236 -43 236 -58 Q236 -66 235 -71 Q230 -97 208.5 -116 Q187 -135 161 -135 Q138 -135 122.5 -120 Q107 -105 107 -82 Q107 -75 108 -71 L151 -71 L151 -73 Q151 -81 156 -86.5 Q161 -92 169 -92 Q177 -92 184 -85.5 Q191 -79 192 -71 L193 -66 Q193 -58 181 -49 Q181 -49 179 -47 Q160 -31 163 -8 Q110 -2 80 30 Q51 60 51 114 Q51 136 55 156 L71 251 L156 251 L140 156 Q137 141 137 130 Q137 76 198 76 Q236 76 258 95.5 Q280 115 287 156 L295 202 Q297 212 297 228 Q297 259 282 280 Q273 293 260 303 Q247 313 222 328 Q193 346 175 360 Q157 374 143 393 Q116 431 116 481 Q116 504 120 525 L123 544 Q136 624 193 670 Q243 709 310 709 Q344 709 370.5 699 Q397 689 414 670 Q444 637 444 584 Q444 572 440 544 L429 480 L344 480 Z " />
<glyph glyph-name="Scommaaccent" unicode="&#x218;" horiz-adv-x="371" d="M183 -9 Q217 -9 247.5 1 Q278 11 301 30 Q357 74 372 156 L380 202 Q384 230 384 243 Q384 296 355 336 Q342 356 322.5 371 Q303 386 276 402 Q250 419 237.5 428.5 Q225 438 216 450 Q202 470 202 497 Q202 510 205 525 L208 544 Q216 585 237 604.5 Q258 624 295 624 Q358 624 358 570 Q358 558 355 544 L344 480 L429 480 L440 544 Q444 572 444 584 Q444 637 414 670 Q397 689 370.5 699 Q344 709 310 709 Q243 709 193 670 Q136 624 123 544 L120 525 Q116 504 116 481 Q116 431 143 393 Q157 374 175 360 Q193 346 222 328 Q247 313 260 303 Q273 293 282 280 Q297 259 297 228 Q297 212 295 202 L287 156 Q280 115 258 95.5 Q236 76 198 76 Q137 76 137 130 Q137 141 140 156 L156 251 L71 251 L55 156 Q51 136 51 114 Q51 60 80 30 Q116 -9 183 -9 Z M216 -85 Q214 -99 196 -127 Q184 -144 157 -175 L124 -175 Q128 -169 131.5 -162.5 Q135 -156 139 -150 Q144 -138 144 -134 Q144 -128 139 -123 Q125 -111 125 -94 Q125 -88 126 -85 Q129 -66 144.5 -53 Q160 -40 179 -40 Q198 -40 208.5 -53 Q219 -66 216 -85 Z " />
<glyph glyph-name="uni1E62" unicode="&#x1e62;" horiz-adv-x="371" d="M183 -9 Q217 -9 247.5 1 Q278 11 301 30 Q357 74 372 156 L380 202 Q384 230 384 243 Q384 296 355 336 Q342 356 322.5 371 Q303 386 276 402 Q250 419 237.5 428.5 Q225 438 216 450 Q202 470 202 497 Q202 510 205 525 L208 544 Q216 585 237 604.5 Q258 624 295 624 Q358 624 358 570 Q358 558 355 544 L344 480 L429 480 L440 544 Q444 572 444 584 Q444 637 414 670 Q397 689 370.5 699 Q344 709 310 709 Q243 709 193 670 Q136 624 123 544 L120 525 Q116 504 116 481 Q116 431 143 393 Q157 374 175 360 Q193 346 222 328 Q247 313 260 303 Q273 293 282 280 Q297 259 297 228 Q297 212 295 202 L287 156 Q280 115 258 95.5 Q236 76 198 76 Q137 76 137 130 Q137 141 140 156 L156 251 L71 251 L55 156 Q51 136 51 114 Q51 60 80 30 Q116 -9 183 -9 Z M178 -40 Q159 -40 143.5 -53 Q128 -66 125 -85 Q122 -104 132.5 -117 Q143 -130 162 -130 Q181 -130 196.5 -117 Q212 -104 215 -85 Q218 -66 207.5 -53 Q197 -40 178 -40 Z " />
<glyph glyph-name="T" unicode="T" horiz-adv-x="345" d="M456 699 L441 614 L323 614 L215 0 L130 0 L238 614 L121 614 L136 699 L456 699 Z " />
<glyph glyph-name="Tbar" unicode="&#x166;" horiz-adv-x="345" d="M441 614 L323 614 L298 470 L358 470 L350 426 L290 426 L215 0 L130 0 L205 426 L145 426 L153 470 L213 470 L238 614 L121 614 L136 699 L456 699 L441 614 Z " />
<glyph glyph-name="Tcaron" unicode="&#x164;" horiz-adv-x="345" d="M456 699 L441 614 L323 614 L215 0 L130 0 L238 614 L121 614 L136 699 L456 699 Z M431 840 L345 737 L260 737 L210 840 L261 840 L311 783 L381 840 L431 840 Z " />
<glyph glyph-name="uni0162" unicode="&#x162;" horiz-adv-x="345" d="M195 1 L194 -7 Q194 -10 198 -13 Q199 -13 199.5 -13.5 Q200 -14 199 -15 Q210 -24 216.5 -33.5 Q223 -43 223 -58 Q223 -66 222 -71 Q217 -97 195.5 -116 Q174 -135 148 -135 Q125 -135 109.5 -120 Q94 -105 94 -82 Q94 -75 95 -71 L138 -71 L138 -73 Q138 -81 143 -86.5 Q148 -92 156 -92 Q164 -92 171 -85.5 Q178 -79 179 -71 L180 -66 Q180 -58 168 -49 Q168 -49 166 -47 Q147 -31 150 -7 L151 1 L130 1 L238 615 L121 615 L136 700 L456 700 L441 615 L323 615 L215 1 L195 1 Z " />
<glyph glyph-name="uni1E70" unicode="&#x1e70;" horiz-adv-x="345" d="M456 699 L441 614 L323 614 L215 0 L130 0 L238 614 L121 614 L136 699 L456 699 Z M258 -143 L208 -143 L158 -86 L88 -143 L37 -143 L123 -40 L208 -40 L258 -143 Z " />
<glyph glyph-name="uni021A" unicode="&#x21a;" horiz-adv-x="345" d="M456 699 L441 614 L323 614 L215 0 L130 0 L238 614 L121 614 L136 699 L456 699 Z M202 -85 Q200 -99 182 -127 Q170 -144 143 -175 L110 -175 Q114 -169 117.5 -162.5 Q121 -156 125 -150 Q130 -138 130 -134 Q130 -128 125 -123 Q111 -111 111 -94 Q111 -88 112 -85 Q115 -66 130.5 -53 Q146 -40 165 -40 Q184 -40 194.5 -53 Q205 -66 202 -85 Z " />
<glyph glyph-name="uni1E6C" unicode="&#x1e6c;" horiz-adv-x="345" d="M456 699 L441 614 L323 614 L215 0 L130 0 L238 614 L121 614 L136 699 L456 699 Z M165 -40 Q146 -40 130.5 -53 Q115 -66 112 -85 Q109 -104 119.5 -117 Q130 -130 149 -130 Q168 -130 183.5 -117 Q199 -104 202 -85 Q205 -66 194.5 -53 Q184 -40 165 -40 Z " />
<glyph glyph-name="uni01AC" unicode="&#x1ac;" horiz-adv-x="400" d="M511 699 L496 614 L378 614 L270 0 L185 0 L293 614 L176 614 Q168 614 161.5 608 Q155 602 153 594 L110 594 Q120 652 155 675.5 Q190 699 233 699 L511 699 Z " />
<glyph glyph-name="uni1E6E" unicode="&#x1e6e;" horiz-adv-x="346" d="M456 699 L441 614 L323 614 L215 0 L130 0 L238 614 L121 614 L136 699 L456 699 Z M310 -85 L318 -40 L15 -40 L7 -85 L310 -85 Z " />
<glyph glyph-name="uni01AE" unicode="&#x1ae;" horiz-adv-x="345" d="M323 614 L208 -42 L208 -46 Q208 -53 212.5 -57.5 Q217 -62 224 -62 L216 -105 Q128 -105 128 -26 Q128 -16 130 0 L238 614 L121 614 L136 699 L456 699 L441 614 L323 614 Z " />
<glyph glyph-name="U" unicode="U" horiz-adv-x="393" d="M195 -9 Q228 -9 258.5 1 Q289 11 312 30 Q368 74 383 156 L478 700 L393 700 L298 156 Q291 115 269.5 95.5 Q248 76 210 76 Q178 76 163 89 Q148 102 148 130 Q148 141 151 156 L246 700 L161 700 L66 156 Q62 136 62 114 Q62 60 91 30 Q127 -9 195 -9 Z " />
<glyph glyph-name="Uacute" unicode="&#xda;" horiz-adv-x="393" d="M195 -9 Q228 -9 258.5 1 Q289 11 312 30 Q368 74 383 156 L478 700 L393 700 L298 156 Q291 115 269.5 95.5 Q248 76 210 76 Q178 76 163 89 Q148 102 148 130 Q148 141 151 156 L246 700 L161 700 L66 156 Q62 136 62 114 Q62 60 91 30 Q127 -9 195 -9 Z M387 841 L301 737 L352 737 L472 841 L387 841 Z " />
<glyph glyph-name="uni0244" unicode="&#x244;" horiz-adv-x="403" d="M460 338 L420 338 L388 156 Q373 74 317 30 Q294 11 263.5 1 Q233 -9 200 -9 Q132 -9 96 30 Q67 60 67 114 Q67 136 71 156 L103 338 L63 338 L70 382 L110 382 L166 700 L251 700 L195 382 L342 382 L398 700 L483 700 L427 382 L467 382 L460 338 Z M335 338 L188 338 L156 156 Q153 141 153 130 Q153 102 168 89 Q183 76 215 76 Q253 76 274.5 95.5 Q296 115 303 156 L335 338 Z " />
<glyph glyph-name="uni01D3" unicode="&#x1d3;" horiz-adv-x="393" d="M195 -9 Q228 -9 258.5 1 Q289 11 312 30 Q368 74 383 156 L478 700 L393 700 L298 156 Q291 115 269.5 95.5 Q248 76 210 76 Q178 76 163 89 Q148 102 148 130 Q148 141 151 156 L246 700 L161 700 L66 156 Q62 136 62 114 Q62 60 91 30 Q127 -9 195 -9 Z M455 840 L369 737 L284 737 L234 840 L285 840 L335 783 L405 840 L455 840 Z " />
<glyph glyph-name="Ucircumflex" unicode="&#xdb;" horiz-adv-x="393" d="M195 -9 Q228 -9 258.5 1 Q289 11 312 30 Q368 74 383 156 L478 700 L393 700 L298 156 Q291 115 269.5 95.5 Q248 76 210 76 Q178 76 163 89 Q148 102 148 130 Q148 141 151 156 L246 700 L161 700 L66 156 Q62 136 62 114 Q62 60 91 30 Q127 -9 195 -9 Z M437 737 L387 737 L337 794 L267 737 L216 737 L302 840 L387 840 L437 737 Z " />
<glyph glyph-name="Udieresis" unicode="&#xdc;" horiz-adv-x="393" d="M195 -9 Q228 -9 258.5 1 Q289 11 312 30 Q368 74 383 156 L478 700 L393 700 L298 156 Q291 115 269.5 95.5 Q248 76 210 76 Q178 76 163 89 Q148 102 148 130 Q148 141 151 156 L246 700 L161 700 L66 156 Q62 136 62 114 Q62 60 91 30 Q127 -9 195 -9 Z M307 782 Q310 801 299.5 814 Q289 827 270 827 Q251 827 235.5 814 Q220 801 217 782 Q216 779 216 773 Q216 758 227 747.5 Q238 737 254 737 Q273 737 288 750 Q303 763 307 782 Z M451 782 Q454 801 443.5 814 Q433 827 414 827 Q395 827 379.5 814 Q364 801 361 782 Q360 779 360 773 Q360 758 371 747.5 Q382 737 398 737 Q417 737 432 750 Q447 763 451 782 Z " />
<glyph glyph-name="uni01D7" unicode="&#x1d7;" horiz-adv-x="393" d="M195 -9 Q228 -9 258.5 1 Q289 11 312 30 Q368 74 383 156 L478 700 L393 700 L298 156 Q291 115 269.5 95.5 Q248 76 210 76 Q178 76 163 89 Q148 102 148 130 Q148 141 151 156 L246 700 L161 700 L66 156 Q62 136 62 114 Q62 60 91 30 Q127 -9 195 -9 Z M307 782 Q310 801 299.5 814 Q289 827 270 827 Q251 827 235.5 814 Q220 801 217 782 Q216 779 216 773 Q216 758 227 747.5 Q238 737 254 737 Q273 737 288 750 Q303 763 307 782 Z M451 782 Q454 801 443.5 814 Q433 827 414 827 Q395 827 379.5 814 Q364 801 361 782 Q360 779 360 773 Q360 758 371 747.5 Q382 737 398 737 Q417 737 432 750 Q447 763 451 782 Z M410 969 L324 865 L375 865 L495 969 L410 969 Z " />
<glyph glyph-name="uni01D9" unicode="&#x1d9;" horiz-adv-x="393" d="M195 -9 Q228 -9 258.5 1 Q289 11 312 30 Q368 74 383 156 L478 700 L393 700 L298 156 Q291 115 269.5 95.5 Q248 76 210 76 Q178 76 163 89 Q148 102 148 130 Q148 141 151 156 L246 700 L161 700 L66 156 Q62 136 62 114 Q62 60 91 30 Q127 -9 195 -9 Z M307 782 Q310 801 299.5 814 Q289 827 270 827 Q251 827 235.5 814 Q220 801 217 782 Q216 779 216 773 Q216 758 227 747.5 Q238 737 254 737 Q273 737 288 750 Q303 763 307 782 Z M451 782 Q454 801 443.5 814 Q433 827 414 827 Q395 827 379.5 814 Q364 801 361 782 Q360 779 360 773 Q360 758 371 747.5 Q382 737 398 737 Q417 737 432 750 Q447 763 451 782 Z M478 968 L392 865 L307 865 L257 968 L308 968 L358 911 L428 968 L478 968 Z " />
<glyph glyph-name="uni01DB" unicode="&#x1db;" horiz-adv-x="393" d="M194 -9 Q228 -9 258.5 1 Q289 11 312 30 Q368 74 383 156 L478 700 L393 700 L298 156 Q291 115 269 95.5 Q247 76 209 76 Q148 76 148 130 Q148 141 151 156 L246 700 L161 700 L66 156 Q62 136 62 114 Q62 60 91 30 Q127 -9 194 -9 Z M361 773 Q361 758 372 747.5 Q383 737 399 737 Q420 737 436.5 753 Q453 769 453 790 Q453 806 442 816.5 Q431 827 415 827 Q394 827 377.5 811 Q361 795 361 773 Z M217 773 Q217 758 228 747.5 Q239 737 255 737 Q276 737 292.5 753 Q309 769 309 790 Q309 806 298 816.5 Q287 827 271 827 Q250 827 233.5 811 Q217 795 217 773 Z M325 969 L240 969 L324 865 L375 865 L325 969 Z " />
<glyph glyph-name="uni01D5" unicode="&#x1d5;" horiz-adv-x="393" d="M194 -9 Q228 -9 258.5 1 Q289 11 312 30 Q368 74 383 156 L478 700 L393 700 L298 156 Q291 115 269 95.5 Q247 76 209 76 Q148 76 148 130 Q148 141 151 156 L246 700 L161 700 L66 156 Q62 136 62 114 Q62 60 91 30 Q127 -9 194 -9 Z M361 773 Q361 758 372 747.5 Q383 737 399 737 Q420 737 436.5 753 Q453 769 453 790 Q453 806 442 816.5 Q431 827 415 827 Q394 827 377.5 811 Q361 795 361 773 Z M217 773 Q217 758 228 747.5 Q239 737 255 737 Q276 737 292.5 753 Q309 769 309 790 Q309 806 298 816.5 Q287 827 271 827 Q250 827 233.5 811 Q217 795 217 773 Z M502 865 L509 910 L205 910 L198 865 L502 865 Z " />
<glyph glyph-name="uni1EE4" unicode="&#x1ee4;" horiz-adv-x="393" d="M195 -9 Q228 -9 258.5 1 Q289 11 312 30 Q368 74 383 156 L478 700 L393 700 L298 156 Q291 115 269.5 95.5 Q248 76 210 76 Q178 76 163 89 Q148 102 148 130 Q148 141 151 156 L246 700 L161 700 L66 156 Q62 136 62 114 Q62 60 91 30 Q127 -9 195 -9 Z M190 -40 Q171 -40 155.5 -53 Q140 -66 137 -85 Q134 -104 144.5 -117 Q155 -130 174 -130 Q193 -130 208.5 -117 Q224 -104 227 -85 Q230 -66 219.5 -53 Q209 -40 190 -40 Z " />
<glyph glyph-name="Ugrave" unicode="&#xd9;" horiz-adv-x="393" d="M195 -9 Q228 -9 258.5 1 Q289 11 312 30 Q368 74 383 156 L478 700 L393 700 L298 156 Q291 115 269.5 95.5 Q248 76 210 76 Q178 76 163 89 Q148 102 148 130 Q148 141 151 156 L246 700 L161 700 L66 156 Q62 136 62 114 Q62 60 91 30 Q127 -9 195 -9 Z M302 841 L217 841 L301 737 L352 737 L302 841 Z " />
<glyph glyph-name="uni1EE6" unicode="&#x1ee6;" horiz-adv-x="393" d="M195 -9 Q228 -9 258.5 1 Q289 11 312 30 Q368 74 383 156 L478 700 L393 700 L298 156 Q291 115 269.5 95.5 Q248 76 210 76 Q178 76 163 89 Q148 102 148 130 Q148 141 151 156 L246 700 L161 700 L66 156 Q62 136 62 114 Q62 60 91 30 Q127 -9 195 -9 Z M265 838 Q302 838 326 814 Q350 790 350 755 Q350 749 348 737 L305 737 Q306 741 306 747 Q306 767 292 781 Q278 795 257 795 L227 831 Q244 838 265 838 Z " />
<glyph glyph-name="Uhorn" unicode="&#x1af;" horiz-adv-x="440" d="M587 720 Q583 694 561 675.5 Q539 657 513 657 L471 657 L383 156 Q368 74 312 30 Q289 11 258.5 1 Q228 -9 195 -9 Q127 -9 91 30 Q62 60 62 114 Q62 136 66 156 L161 700 L246 700 L151 156 Q148 141 148 130 Q148 102 163 89 Q178 76 210 76 Q248 76 269.5 95.5 Q291 115 298 156 L393 700 L520 700 Q528 700 535.5 706 Q543 712 544 720 L587 720 Z " />
<glyph glyph-name="uni1EE8" unicode="&#x1ee8;" horiz-adv-x="440" d="M587 720 Q583 694 561 675.5 Q539 657 513 657 L471 657 L383 156 Q368 74 312 30 Q289 11 258.5 1 Q228 -9 195 -9 Q127 -9 91 30 Q62 60 62 114 Q62 136 66 156 L161 700 L246 700 L151 156 Q148 141 148 130 Q148 102 163 89 Q178 76 210 76 Q248 76 269.5 95.5 Q291 115 298 156 L393 700 L520 700 Q528 700 535.5 706 Q543 712 544 720 L587 720 Z M387 841 L301 737 L352 737 L472 841 L387 841 Z " />
<glyph glyph-name="uni1EF0" unicode="&#x1ef0;" horiz-adv-x="440" d="M587 720 Q583 694 561 675.5 Q539 657 513 657 L471 657 L383 156 Q368 74 312 30 Q289 11 258.5 1 Q228 -9 195 -9 Q127 -9 91 30 Q62 60 62 114 Q62 136 66 156 L161 700 L246 700 L151 156 Q148 141 148 130 Q148 102 163 89 Q178 76 210 76 Q248 76 269.5 95.5 Q291 115 298 156 L393 700 L520 700 Q528 700 535.5 706 Q543 712 544 720 L587 720 Z M190 -40 Q171 -40 155.5 -53 Q140 -66 137 -85 Q134 -104 144.5 -117 Q155 -130 174 -130 Q193 -130 208.5 -117 Q224 -104 227 -85 Q230 -66 219.5 -53 Q209 -40 190 -40 Z " />
<glyph glyph-name="uni1EEA" unicode="&#x1eea;" horiz-adv-x="440" d="M587 720 Q583 694 561 675.5 Q539 657 513 657 L471 657 L383 156 Q368 74 312 30 Q289 11 258.5 1 Q228 -9 195 -9 Q127 -9 91 30 Q62 60 62 114 Q62 136 66 156 L161 700 L246 700 L151 156 Q148 141 148 130 Q148 102 163 89 Q178 76 210 76 Q248 76 269.5 95.5 Q291 115 298 156 L393 700 L520 700 Q528 700 535.5 706 Q543 712 544 720 L587 720 Z M302 841 L217 841 L301 737 L352 737 L302 841 Z " />
<glyph glyph-name="uni1EEC" unicode="&#x1eec;" horiz-adv-x="440" d="M587 720 Q583 694 561 675.5 Q539 657 513 657 L471 657 L383 156 Q368 74 312 30 Q289 11 258.5 1 Q228 -9 195 -9 Q127 -9 91 30 Q62 60 62 114 Q62 136 66 156 L161 700 L246 700 L151 156 Q148 141 148 130 Q148 102 163 89 Q178 76 210 76 Q248 76 269.5 95.5 Q291 115 298 156 L393 700 L520 700 Q528 700 535.5 706 Q543 712 544 720 L587 720 Z M265 838 Q302 838 326 814 Q350 790 350 755 Q350 749 348 737 L305 737 Q306 741 306 747 Q306 767 292 781 Q278 795 257 795 L227 831 Q244 838 265 838 Z " />
<glyph glyph-name="uni1EEE" unicode="&#x1eee;" horiz-adv-x="440" d="M587 720 Q583 694 561 675.5 Q539 657 513 657 L471 657 L383 156 Q368 74 312 30 Q289 11 258.5 1 Q228 -9 195 -9 Q127 -9 91 30 Q62 60 62 114 Q62 136 66 156 L161 700 L246 700 L151 156 Q148 141 148 130 Q148 102 163 89 Q178 76 210 76 Q248 76 269.5 95.5 Q291 115 298 156 L393 700 L520 700 Q528 700 535.5 706 Q543 712 544 720 L587 720 Z M232 735 Q260 763 279 766 Q297 769 322 753 Q347 735 375 735 Q418 735 464 783 L435 809 Q409 783 389 779 Q371 776 350 790 Q319 810 293 810 Q251 810 203 762 L232 735 Z " />
<glyph glyph-name="Uhungarumlaut" unicode="&#x170;" horiz-adv-x="393" d="M195 -9 Q228 -9 258.5 1 Q289 11 312 30 Q368 74 383 156 L478 700 L393 700 L298 156 Q291 115 269.5 95.5 Q248 76 210 76 Q178 76 163 89 Q148 102 148 130 Q148 141 151 156 L246 700 L161 700 L66 156 Q62 136 62 114 Q62 60 91 30 Q127 -9 195 -9 Z M319 842 L234 737 L284 737 L405 842 L319 842 Z M454 842 L369 737 L419 737 L540 842 L454 842 Z " />
<glyph glyph-name="Umacron" unicode="&#x16a;" horiz-adv-x="393" d="M195 -9 Q228 -9 258.5 1 Q289 11 312 30 Q368 74 383 156 L478 700 L393 700 L298 156 Q291 115 269.5 95.5 Q248 76 210 76 Q178 76 163 89 Q148 102 148 130 Q148 141 151 156 L246 700 L161 700 L66 156 Q62 136 62 114 Q62 60 91 30 Q127 -9 195 -9 Z M479 737 L487 782 L183 782 L175 737 L479 737 Z " />
<glyph glyph-name="Uogonek" unicode="&#x172;" horiz-adv-x="393" d="M478 700 L383 156 Q368 74 312 30 Q281 4 263.5 -15 Q246 -34 242 -55 Q239 -69 252 -75 Q265 -81 278 -81 L287 -81 L279 -126 L260 -126 Q226 -126 204 -115.5 Q182 -105 182 -82 Q182 -76 183 -73 Q188 -47 229 -6 Q213 -9 195 -9 Q127 -9 91 30 Q62 60 62 114 Q62 136 66 156 L161 700 L246 700 L151 156 Q148 141 148 130 Q148 102 163 89 Q178 76 210 76 Q248 76 269.5 95.5 Q291 115 298 156 L393 700 L478 700 Z " />
<glyph glyph-name="Uring" unicode="&#x16e;" horiz-adv-x="393" d="M195 -9 Q228 -9 258.5 1 Q289 11 312 30 Q368 74 383 156 L478 700 L393 700 L298 156 Q291 115 269.5 95.5 Q248 76 210 76 Q178 76 163 89 Q148 102 148 130 Q148 141 151 156 L246 700 L161 700 L66 156 Q62 136 62 114 Q62 60 91 30 Q127 -9 195 -9 Z M327 740 Q353 740 375 758.5 Q397 777 402 803 Q403 807 403 814 Q403 837 388 852 Q373 867 350 867 Q324 867 301.5 848 Q279 829 275 803 Q274 799 274 791 Q274 769 289 754.5 Q304 740 327 740 Z M342 824 Q350 824 355 818 Q360 812 359 803 Q358 795 350.5 789 Q343 783 335 783 Q327 783 322 789 Q317 795 318 803 Q319 812 326.5 818 Q334 824 342 824 Z " />
<glyph glyph-name="Utilde" unicode="&#x168;" horiz-adv-x="393" d="M195 -9 Q228 -9 258.5 1 Q289 11 312 30 Q368 74 383 156 L478 700 L393 700 L298 156 Q291 115 269.5 95.5 Q248 76 210 76 Q178 76 163 89 Q148 102 148 130 Q148 141 151 156 L246 700 L161 700 L66 156 Q62 136 62 114 Q62 60 91 30 Q127 -9 195 -9 Z M231 735 Q259 763 278 766 Q296 769 321 753 Q347 735 374 735 Q417 735 463 783 L434 809 Q408 783 388 779 Q370 776 349 790 Q318 810 292 810 Q250 810 202 762 L231 735 Z " />
<glyph glyph-name="V" unicode="V" horiz-adv-x="403" d="M425 700 L512 700 L243 0 L160 0 L137 700 L224 700 L232 169 L425 700 Z " />
<glyph glyph-name="uni0245" unicode="&#x245;" horiz-adv-x="403" d="M302 0 L296 531 L101 0 L14 0 L283 700 L366 700 L389 0 L302 0 Z " />
<glyph glyph-name="W" unicode="W" horiz-adv-x="500" d="M317 381 L139 0 L104 0 L141 700 L227 700 L204 305 L336 590 L373 590 L405 305 L520 700 L605 700 L397 0 L361 0 L317 381 Z " />
<glyph glyph-name="Wacute" unicode="&#x1e82;" horiz-adv-x="500" d="M317 381 L139 0 L104 0 L141 700 L227 700 L204 305 L336 590 L373 590 L405 305 L520 700 L605 700 L397 0 L361 0 L317 381 Z M441 841 L355 737 L406 737 L526 841 L441 841 Z " />
<glyph glyph-name="Wcircumflex" unicode="&#x174;" horiz-adv-x="500" d="M317 381 L139 0 L104 0 L141 700 L227 700 L204 305 L336 590 L373 590 L405 305 L520 700 L605 700 L397 0 L361 0 L317 381 Z M490 737 L440 737 L390 794 L320 737 L269 737 L355 840 L440 840 L490 737 Z " />
<glyph glyph-name="Wdieresis" unicode="&#x1e84;" horiz-adv-x="500" d="M317 381 L139 0 L104 0 L141 700 L227 700 L204 305 L336 590 L373 590 L405 305 L520 700 L605 700 L397 0 L361 0 L317 381 Z M361 782 Q364 801 353.5 814 Q343 827 324 827 Q305 827 289.5 814 Q274 801 271 782 Q270 779 270 773 Q270 758 281 747.5 Q292 737 308 737 Q327 737 342 750 Q357 763 361 782 Z M505 782 Q508 801 497.5 814 Q487 827 468 827 Q449 827 433.5 814 Q418 801 415 782 Q414 779 414 773 Q414 758 425 747.5 Q436 737 452 737 Q471 737 486 750 Q501 763 505 782 Z " />
<glyph glyph-name="Wgrave" unicode="&#x1e80;" horiz-adv-x="500" d="M317 381 L139 0 L104 0 L141 700 L227 700 L204 305 L336 590 L373 590 L405 305 L520 700 L605 700 L397 0 L361 0 L317 381 Z M356 841 L271 841 L355 737 L406 737 L356 841 Z " />
<glyph glyph-name="uni2C72" unicode="&#x2c72;" horiz-adv-x="562" d="M642 700 Q665 700 680 685.5 Q695 671 695 648 Q695 641 694 637 L651 637 L651 641 Q651 648 646.5 652.5 Q642 657 635 657 L593 657 L397 0 L361 0 L317 381 L139 0 L104 0 L141 700 L227 700 L204 305 L336 590 L373 590 L405 305 L520 700 L642 700 Z " />
<glyph glyph-name="X" unicode="X" horiz-adv-x="408" d="M317 349 L390 0 L299 0 L247 244 L109 0 L18 0 L216 349 L142 700 L233 700 L284 454 L422 700 L513 700 L317 349 Z " />
<glyph glyph-name="Y" unicode="Y" horiz-adv-x="380" d="M260 394 L408 700 L496 700 L276 243 L233 0 L148 0 L191 243 L131 700 L220 700 L260 394 Z " />
<glyph glyph-name="Yacute" unicode="&#xdd;" horiz-adv-x="380" d="M260 394 L408 700 L496 700 L276 243 L233 0 L148 0 L191 243 L131 700 L220 700 L260 394 Z M381 841 L295 737 L346 737 L466 841 L381 841 Z " />
<glyph glyph-name="Ycircumflex" unicode="&#x176;" horiz-adv-x="380" d="M260 394 L408 700 L496 700 L276 243 L233 0 L148 0 L191 243 L131 700 L220 700 L260 394 Z M431 737 L381 737 L331 794 L261 737 L210 737 L296 840 L381 840 L431 737 Z " />
<glyph glyph-name="Ydieresis" unicode="&#x178;" horiz-adv-x="380" d="M302 782 Q305 801 294.5 814 Q284 827 265 827 Q246 827 230.5 814 Q215 801 212 782 Q211 779 211 773 Q211 758 222 747.5 Q233 737 249 737 Q268 737 283 750 Q298 763 302 782 Z M446 782 Q449 801 438.5 814 Q428 827 409 827 Q390 827 374.5 814 Q359 801 356 782 Q355 779 355 773 Q355 758 366 747.5 Q377 737 393 737 Q412 737 427 750 Q442 763 446 782 Z M260 394 L408 700 L496 700 L276 243 L233 0 L148 0 L191 243 L131 700 L220 700 L260 394 Z " />
<glyph glyph-name="uni1EF4" unicode="&#x1ef4;" horiz-adv-x="380" d="M183 -40 Q164 -40 148.5 -53 Q133 -66 130 -85 Q127 -104 137.5 -117 Q148 -130 167 -130 Q186 -130 201.5 -117 Q217 -104 220 -85 Q223 -66 212.5 -53 Q202 -40 183 -40 Z M259 394 L407 700 L496 700 L276 243 L233 0 L148 0 L191 243 L131 700 L219 700 L259 394 Z " />
<glyph glyph-name="Ygrave" unicode="&#x1ef2;" horiz-adv-x="380" d="M259 394 L407 700 L496 700 L276 243 L233 0 L148 0 L191 243 L131 700 L219 700 L259 394 Z M296 841 L211 841 L295 737 L346 737 L296 841 Z " />
<glyph glyph-name="uni01B3" unicode="&#x1b3;" horiz-adv-x="445" d="M525 700 Q548 700 563 685.5 Q578 671 578 648 Q578 641 577 637 L534 637 L534 641 Q534 648 529.5 652.5 Q525 657 518 657 L476 657 L276 243 L233 0 L148 0 L191 243 L131 700 L220 700 L260 394 L408 700 L525 700 Z " />
<glyph glyph-name="uni1EF6" unicode="&#x1ef6;" horiz-adv-x="380" d="M259 394 L407 700 L496 700 L276 243 L233 0 L148 0 L191 243 L131 700 L219 700 L259 394 Z M259 838 Q296 838 320 814 Q344 790 344 755 Q344 749 342 737 L299 737 Q300 741 300 747 Q300 767 286 781 Q272 795 251 795 L221 831 Q238 838 259 838 Z " />
<glyph glyph-name="uni1EF8" unicode="&#x1ef8;" horiz-adv-x="380" d="M259 394 L407 700 L496 700 L276 243 L233 0 L148 0 L191 243 L131 700 L219 700 L259 394 Z M225 737 Q253 765 272 768 Q291 771 315 755 Q342 737 368 737 Q411 737 457 785 L428 811 Q403 786 383 781 Q364 778 344 792 Q313 812 287 812 Q245 812 197 764 L225 737 Z " />
<glyph glyph-name="Z" unicode="Z" horiz-adv-x="375" d="M348 0 L363 85 L160 85 L470 700 L150 700 L135 615 L338 615 L28 0 L348 0 Z " />
<glyph glyph-name="Zacute" unicode="&#x179;" horiz-adv-x="375" d="M348 0 L363 85 L160 85 L470 700 L150 700 L135 615 L338 615 L28 0 L348 0 Z M377 841 L291 737 L342 737 L462 841 L377 841 Z " />
<glyph glyph-name="Zcaron" unicode="&#x17d;" horiz-adv-x="375" d="M348 0 L363 85 L160 85 L470 700 L150 700 L135 615 L338 615 L28 0 L348 0 Z M445 840 L359 737 L274 737 L224 840 L275 840 L325 783 L395 840 L445 840 Z " />
<glyph glyph-name="Zdotaccent" unicode="&#x17b;" horiz-adv-x="375" d="M348 0 L363 85 L160 85 L470 700 L150 700 L135 615 L338 615 L28 0 L348 0 Z M370 782 Q373 801 362.5 814 Q352 827 333 827 Q314 827 298.5 814 Q283 801 280 782 Q279 779 279 773 Q279 758 290 747.5 Q301 737 317 737 Q336 737 351 750 Q366 763 370 782 Z " />
<glyph glyph-name="uni1E92" unicode="&#x1e92;" horiz-adv-x="375" d="M348 0 L363 85 L160 85 L470 700 L150 700 L135 615 L338 615 L28 0 L348 0 Z M217 -85 Q220 -66 209.5 -53 Q199 -40 180 -40 Q161 -40 145.5 -53 Q130 -66 127 -85 Q124 -104 134.5 -117 Q145 -130 164 -130 Q183 -130 198.5 -117 Q214 -104 217 -85 Z " />
<glyph glyph-name="uni0299" unicode="&#x299;" horiz-adv-x="386" d="M199 0 Q265 0 316 37 Q372 80 385 161 L388 177 Q392 203 392 215 Q392 274 349 307 Q402 347 415 421 L418 438 Q422 457 422 478 Q422 531 392 562 Q359 599 289 599 L146 599 L40 0 L199 0 Z M244 257 Q306 257 306 203 Q306 191 303 177 L300 161 Q293 119 271 100 Q250 85 214 85 L140 85 L170 257 L244 257 Z M216 514 L274 514 Q306 514 321 502 Q336 490 336 464 Q336 453 333 438 L330 421 Q323 380 302 361 Q281 342 243 342 L185 342 L216 514 Z " />
<glyph glyph-name="uni0262" unicode="&#x262;" horiz-adv-x="385" d="M191 -9 Q259 -9 309 30 Q364 74 379 156 L411 342 L253 342 L238 257 L311 257 L294 156 Q287 115 265.5 95.5 Q244 76 206 76 Q174 76 159 89 Q144 102 144 130 Q144 141 147 156 L197 444 Q205 485 226 504.5 Q247 524 285 524 Q347 524 347 470 Q347 458 344 444 L342 430 L427 430 L429 444 Q433 464 433 485 Q433 536 405 570 Q368 609 300 609 Q233 609 183 570 Q127 526 112 444 L62 156 Q58 136 58 114 Q58 60 87 30 Q124 -9 191 -9 Z " />
<glyph glyph-name="uni029B" unicode="&#x29b;" horiz-adv-x="385" d="M416 610 Q420 636 442 654.5 Q464 673 490 673 L482 630 Q474 630 467 624 Q460 618 459 610 L427 430 L342 430 L344 444 Q347 458 347 470 Q347 524 285 524 Q247 524 226 504.5 Q205 485 197 444 L147 156 Q144 141 144 130 Q144 102 159 89 Q174 76 206 76 Q244 76 265.5 95.5 Q287 115 294 156 L311 257 L238 257 L253 342 L411 342 L379 156 Q364 74 309 30 Q259 -9 191 -9 Q124 -9 87 30 Q58 60 58 114 Q58 136 62 156 L112 444 Q127 526 183 570 Q233 609 300 609 Q368 609 405 570 Q405 569 408 566 L416 610 Z " />
<glyph glyph-name="uni029C" unicode="&#x29c;" horiz-adv-x="396" d="M377 600 L462 600 L356 0 L271 0 L318 266 L172 266 L125 0 L40 0 L146 600 L231 600 L187 351 L333 351 L377 600 Z " />
<glyph glyph-name="uni026A" unicode="&#x26a;" horiz-adv-x="165" d="M125 0 L231 600 L146 600 L40 0 L125 0 Z " />
<glyph glyph-name="uni029F" unicode="&#x29f;" horiz-adv-x="332" d="M316 0 L331 85 L140 85 L231 599 L146 599 L40 0 L316 0 Z " />
<glyph glyph-name="uni0274" unicode="&#x274;" horiz-adv-x="405" d="M186 352 L124 0 L39 0 L145 600 L192 600 L325 247 L387 600 L472 600 L366 0 L319 0 L186 352 Z " />
<glyph glyph-name="uni0276" unicode="&#x276;" horiz-adv-x="528" d="M397 515 L368 352 L501 352 L486 267 L353 267 L321 85 L512 85 L497 0 L192 0 Q124 0 88 39 Q59 73 59 125 Q59 137 63 165 L111 435 Q125 516 180 561 Q230 600 298 600 L603 600 L588 515 L397 515 Z M148 165 Q145 150 145 139 Q145 111 160 98 Q175 85 207 85 L236 85 L312 515 L283 515 Q245 515 224 495.5 Q203 476 196 435 L148 165 Z " />
<glyph glyph-name="uni0280" unicode="&#x280;" horiz-adv-x="384" d="M356 0 L267 0 L215 242 L168 242 L125 0 L40 0 L146 600 L304 600 Q371 600 408 561 Q437 529 437 475 Q437 463 433 435 L428 406 Q413 324 359 281 Q334 262 302 251 L356 0 Z M256 327 Q294 327 314.5 346 Q335 365 343 406 L348 435 Q350 444 350 460 Q350 488 335.5 501.5 Q321 515 289 515 L216 515 L183 327 L256 327 Z " />
<glyph glyph-name="uni0281" unicode="&#x281;" horiz-adv-x="384" d="M320 349 Q349 338 365 319 Q394 287 394 235 Q394 213 390 194 L385 165 Q371 84 316 39 Q265 0 198 0 L40 0 L146 600 L231 600 L188 358 L235 358 L373 600 L462 600 L320 349 Z M173 273 L140 85 L213 85 Q251 85 271.5 104 Q292 123 300 165 L305 194 Q308 209 308 220 Q308 248 293 260.5 Q278 273 246 273 L173 273 Z " />
<glyph glyph-name="uni028F" unicode="&#x28f;" horiz-adv-x="380" d="M252 344 L391 600 L479 600 L267 193 L233 0 L148 0 L182 193 L114 600 L203 600 L252 344 Z " />
<glyph glyph-name="a" unicode="a" horiz-adv-x="408" d="M304 0 L303 145 L157 145 L103 0 L16 0 L286 700 L368 700 L391 0 L304 0 Z M188 230 L302 230 L298 531 L188 230 Z " />
<glyph glyph-name="aacute" unicode="&#xe1;" horiz-adv-x="408" d="M304 0 L303 145 L157 145 L103 0 L16 0 L286 700 L368 700 L391 0 L304 0 Z M188 230 L302 230 L298 531 L188 230 Z M394 842 L309 737 L359 737 L480 842 L394 842 Z " />
<glyph glyph-name="abreve" unicode="&#x103;" horiz-adv-x="408" d="M304 0 L303 145 L157 145 L103 0 L16 0 L286 700 L368 700 L391 0 L304 0 Z M188 230 L302 230 L298 531 L188 230 Z M453 838 Q445 797 410.5 767 Q376 737 334 737 Q297 737 273 760.5 Q249 784 249 820 Q249 826 251 838 L294 838 Q293 834 293 828 Q293 808 307 794 Q321 780 342 780 Q366 780 385.5 797 Q405 814 410 838 L453 838 Z " />
<glyph glyph-name="uni1EAF" unicode="&#x1eaf;" horiz-adv-x="408" d="M304 0 L303 145 L157 145 L103 0 L16 0 L286 700 L368 700 L391 0 L304 0 Z M188 230 L302 230 L298 531 L188 230 Z M453 838 Q445 797 410.5 767 Q376 737 334 737 Q297 737 273 760.5 Q249 784 249 820 Q249 826 251 838 L294 838 Q293 834 293 828 Q293 808 307 794 Q321 780 342 780 Q366 780 385.5 797 Q405 814 410 838 L453 838 Z M416 971 L331 866 L381 866 L502 971 L416 971 Z " />
<glyph glyph-name="uni1EB7" unicode="&#x1eb7;" horiz-adv-x="408" d="M304 0 L303 145 L157 145 L103 0 L16 0 L286 700 L368 700 L391 0 L304 0 Z M188 230 L302 230 L298 531 L188 230 Z M453 838 Q445 797 410.5 767 Q376 737 334 737 Q297 737 273 760.5 Q249 784 249 820 Q249 826 251 838 L294 838 Q293 834 293 828 Q293 808 307 794 Q321 780 342 780 Q366 780 385.5 797 Q405 814 410 838 L453 838 Z M197 -40 Q178 -40 162.5 -53 Q147 -66 144 -85 Q141 -104 151.5 -117 Q162 -130 181 -130 Q200 -130 215.5 -117 Q231 -104 234 -85 Q237 -66 226.5 -53 Q216 -40 197 -40 Z " />
<glyph glyph-name="uni1EB1" unicode="&#x1eb1;" horiz-adv-x="408" d="M103 0 L16 0 L285 700 L367 700 L391 0 L304 0 L302 145 L156 145 L103 0 Z M301 230 L297 531 L187 230 L301 230 Z M293 838 Q292 834 292 828 Q292 808 306 794 Q320 780 341 780 Q365 780 384.5 797 Q404 814 409 838 L452 838 Q444 797 409.5 767 Q375 737 333 737 Q296 737 272 760.5 Q248 784 248 820 Q248 826 250 838 L293 838 Z M333 971 L247 971 L332 866 L382 866 L333 971 Z " />
<glyph glyph-name="uni1EB3" unicode="&#x1eb3;" horiz-adv-x="408" d="M103 0 L16 0 L285 700 L367 700 L391 0 L304 0 L302 145 L156 145 L103 0 Z M301 230 L297 531 L187 230 L301 230 Z M293 838 Q292 834 292 828 Q292 808 306 794 Q320 780 341 780 Q365 780 384.5 797 Q404 814 409 838 L452 838 Q444 797 409.5 767 Q375 737 333 737 Q296 737 272 760.5 Q248 784 248 820 Q248 826 250 838 L293 838 Z M295 967 Q332 967 356 943 Q380 919 380 884 Q380 878 378 866 L335 866 L336 875 Q336 896 322.5 910 Q309 924 287 924 L256 960 Q274 967 295 967 Z " />
<glyph glyph-name="uni1EB5" unicode="&#x1eb5;" horiz-adv-x="408" d="M103 0 L16 0 L285 700 L367 700 L391 0 L304 0 L302 145 L156 145 L103 0 Z M301 230 L297 531 L187 230 L301 230 Z M293 838 Q292 834 292 828 Q292 808 306 794 Q320 780 341 780 Q365 780 384.5 797 Q404 814 409 838 L452 838 Q444 797 409.5 767 Q375 737 333 737 Q296 737 272 760.5 Q248 784 248 820 Q248 826 250 838 L293 838 Z M260 865 Q288 893 307 896 Q325 899 350 883 Q375 865 403 865 Q446 865 492 913 L463 939 Q437 913 417 909 Q398 906 378 920 Q347 940 321 940 Q279 940 231 892 L260 865 Z " />
<glyph glyph-name="uni01CE" unicode="&#x1ce;" horiz-adv-x="408" d="M304 0 L303 145 L157 145 L103 0 L16 0 L286 700 L368 700 L391 0 L304 0 Z M188 230 L302 230 L298 531 L188 230 Z M462 840 L376 737 L291 737 L241 840 L292 840 L342 783 L412 840 L462 840 Z " />
<glyph glyph-name="acircumflex" unicode="&#xe2;" horiz-adv-x="408" d="M304 0 L303 145 L157 145 L103 0 L16 0 L286 700 L368 700 L391 0 L304 0 Z M188 230 L302 230 L298 531 L188 230 Z M444 737 L394 737 L344 794 L274 737 L223 737 L309 840 L394 840 L444 737 Z " />
<glyph glyph-name="uni1EA5" unicode="&#x1ea5;" horiz-adv-x="462" d="M304 0 L303 145 L157 145 L103 0 L16 0 L286 700 L368 700 L391 0 L304 0 Z M188 230 L302 230 L298 531 L188 230 Z M444 737 L394 737 L344 794 L274 737 L223 737 L309 840 L394 840 L444 737 Z M525 942 L440 837 L490 837 L611 942 L525 942 Z " />
<glyph glyph-name="uni1EAD" unicode="&#x1ead;" horiz-adv-x="408" d="M304 0 L303 145 L157 145 L103 0 L16 0 L286 700 L368 700 L391 0 L304 0 Z M188 230 L302 230 L298 531 L188 230 Z M197 -40 Q178 -40 162.5 -53 Q147 -66 144 -85 Q141 -104 151.5 -117 Q162 -130 181 -130 Q200 -130 215.5 -117 Q231 -104 234 -85 Q237 -66 226.5 -53 Q216 -40 197 -40 Z M444 737 L394 737 L344 794 L274 737 L223 737 L309 840 L394 840 L444 737 Z " />
<glyph glyph-name="uni1EA7" unicode="&#x1ea7;" horiz-adv-x="408" d="M304 0 L303 145 L157 145 L103 0 L16 0 L286 700 L368 700 L391 0 L304 0 Z M188 230 L302 230 L298 531 L188 230 Z M444 737 L394 737 L344 794 L274 737 L223 737 L309 840 L394 840 L444 737 Z M441 942 L355 942 L440 837 L490 837 L441 942 Z " />
<glyph glyph-name="uni1EA9" unicode="&#x1ea9;" horiz-adv-x="408" d="M304 0 L303 145 L157 145 L103 0 L16 0 L286 700 L368 700 L391 0 L304 0 Z M188 230 L302 230 L298 531 L188 230 Z M444 737 L394 737 L344 794 L274 737 L223 737 L309 840 L394 840 L444 737 Z M399 938 Q436 938 460 913.5 Q484 889 484 853 Q484 843 483 837 L440 837 L441 846 Q441 867 427.5 881 Q414 895 392 895 L361 931 Q379 938 399 938 Z " />
<glyph glyph-name="uni1EAB" unicode="&#x1eab;" horiz-adv-x="408" d="M304 0 L303 145 L157 145 L103 0 L16 0 L286 700 L368 700 L391 0 L304 0 Z M188 230 L302 230 L298 531 L188 230 Z M257 865 Q285 893 304 896 Q322 899 347 883 Q373 865 400 865 Q443 865 489 913 L460 939 Q434 913 414 909 Q395 906 375 920 Q344 940 318 940 Q276 940 228 892 L257 865 Z M444 737 L394 737 L344 794 L274 737 L223 737 L309 840 L394 840 L444 737 Z " />
<glyph glyph-name="adieresis" unicode="&#xe4;" horiz-adv-x="408" d="M304 0 L303 145 L157 145 L103 0 L16 0 L286 700 L368 700 L391 0 L304 0 Z M188 230 L302 230 L298 531 L188 230 Z M315 782 Q318 801 307.5 814 Q297 827 278 827 Q259 827 243.5 814 Q228 801 225 782 Q224 779 224 773 Q224 758 235 747.5 Q246 737 262 737 Q281 737 296 750 Q311 763 315 782 Z M459 782 Q462 801 451.5 814 Q441 827 422 827 Q403 827 387.5 814 Q372 801 369 782 Q368 779 368 773 Q368 758 379 747.5 Q390 737 406 737 Q425 737 440 750 Q455 763 459 782 Z " />
<glyph glyph-name="uni01DF" unicode="&#x1df;" horiz-adv-x="408" d="M304 0 L303 145 L157 145 L103 0 L16 0 L286 700 L368 700 L391 0 L304 0 Z M188 230 L302 230 L298 531 L188 230 Z M315 782 Q318 801 307.5 814 Q297 827 278 827 Q259 827 243.5 814 Q228 801 225 782 Q224 779 224 773 Q224 758 235 747.5 Q246 737 262 737 Q281 737 296 750 Q311 763 315 782 Z M459 782 Q462 801 451.5 814 Q441 827 422 827 Q403 827 387.5 814 Q372 801 369 782 Q368 779 368 773 Q368 758 379 747.5 Q390 737 406 737 Q425 737 440 750 Q455 763 459 782 Z M509 865 L516 910 L212 910 L205 865 L509 865 Z " />
<glyph glyph-name="uni1EA1" unicode="&#x1ea1;" horiz-adv-x="408" d="M304 0 L303 145 L157 145 L103 0 L16 0 L286 700 L368 700 L391 0 L304 0 Z M188 230 L302 230 L298 531 L188 230 Z M197 -40 Q178 -40 162.5 -53 Q147 -66 144 -85 Q141 -104 151.5 -117 Q162 -130 181 -130 Q200 -130 215.5 -117 Q231 -104 234 -85 Q237 -66 226.5 -53 Q216 -40 197 -40 Z " />
<glyph glyph-name="agrave" unicode="&#xe0;" horiz-adv-x="408" d="M304 0 L303 145 L157 145 L103 0 L16 0 L286 700 L368 700 L391 0 L304 0 Z M188 230 L302 230 L298 531 L188 230 Z M310 842 L224 842 L309 737 L359 737 L310 842 Z " />
<glyph glyph-name="uni1EA3" unicode="&#x1ea3;" horiz-adv-x="408" d="M304 0 L303 145 L157 145 L103 0 L16 0 L286 700 L368 700 L391 0 L304 0 Z M188 230 L302 230 L298 531 L188 230 Z M273 838 Q310 838 334 814 Q358 790 358 755 Q358 749 356 737 L313 737 Q314 741 314 747 Q314 767 300 781 Q286 795 265 795 L235 831 Q252 838 273 838 Z " />
<glyph glyph-name="amacron" unicode="&#x101;" horiz-adv-x="408" d="M304 0 L303 145 L157 145 L103 0 L16 0 L286 700 L368 700 L391 0 L304 0 Z M188 230 L302 230 L298 531 L188 230 Z M485 737 L493 782 L190 782 L182 737 L485 737 Z " />
<glyph glyph-name="aogonek" unicode="&#x105;" horiz-adv-x="408" d="M325 -59 Q321 -81 361 -81 L370 -81 L362 -126 L343 -126 Q309 -126 287 -115.5 Q265 -105 265 -82 Q265 -76 266 -73 Q272 -35 346 0 L304 0 L303 145 L157 145 L103 0 L16 0 L286 700 L368 700 L391 0 Q366 -8 346.5 -25.5 Q327 -43 325 -59 Z M188 230 L302 230 L298 531 L188 230 Z " />
<glyph glyph-name="aring" unicode="&#xe5;" horiz-adv-x="408" d="M304 0 L303 145 L157 145 L103 0 L16 0 L286 700 L368 700 L391 0 L304 0 Z M188 230 L302 230 L298 531 L188 230 Z M334 740 Q360 740 382 758.5 Q404 777 409 803 Q410 807 410 814 Q410 837 395 852 Q380 867 357 867 Q331 867 308.5 848 Q286 829 282 803 Q281 799 281 791 Q281 769 296 754.5 Q311 740 334 740 Z M349 824 Q357 824 362 818 Q367 812 366 803 Q365 795 357.5 789 Q350 783 342 783 Q334 783 329 789 Q324 795 325 803 Q326 812 333.5 818 Q341 824 349 824 Z " />
<glyph glyph-name="atilde" unicode="&#xe3;" horiz-adv-x="408" d="M304 0 L303 145 L157 145 L103 0 L16 0 L286 700 L368 700 L391 0 L304 0 Z M188 230 L302 230 L298 531 L188 230 Z M234 735 Q262 763 281 766 Q299 769 324 753 Q350 735 377 735 Q420 735 466 783 L437 809 Q411 783 391 779 Q373 776 352 790 Q321 810 295 810 Q253 810 205 762 L234 735 Z " />
<glyph glyph-name="uni0250" unicode="&#x250;" horiz-adv-x="408" d="M427 700 L514 700 L245 0 L163 0 L139 700 L226 700 L229 555 L375 555 L427 700 Z M230 470 L234 169 L344 470 L230 470 Z " />
<glyph glyph-name="ae" unicode="&#xe6;" horiz-adv-x="568" d="M645 615 L455 615 L418 401 L550 401 L535 316 L403 316 L362 85 L552 85 L537 0 L262 0 L284 126 L158 126 L104 0 L16 0 L317 700 L660 700 L645 615 Z M195 211 L299 211 L370 615 L195 211 Z " />
<glyph glyph-name="b" unicode="b" horiz-adv-x="386" d="M199 0 Q265 0 316 37 Q372 80 385 161 L397 227 Q401 253 401 265 Q401 324 358 357 Q411 397 424 471 L436 538 Q440 566 440 578 Q440 631 410 662 Q376 699 306 699 L163 699 L40 0 L199 0 Z M253 307 Q315 307 315 253 Q315 241 312 227 L300 161 Q293 119 271 100 Q250 85 214 85 L140 85 L179 307 L253 307 Z M233 614 L291 614 Q323 614 338 602 Q353 590 353 563 Q353 547 351 538 L339 471 Q331 430 310.5 411 Q290 392 252 392 L194 392 L233 614 Z " />
<glyph glyph-name="uni1E05" unicode="&#x1e05;" horiz-adv-x="386" d="M199 0 Q265 0 316 37 Q372 80 385 161 L397 227 Q401 253 401 265 Q401 324 358 357 Q411 397 424 471 L436 538 Q440 566 440 578 Q440 631 410 662 Q376 699 306 699 L163 699 L40 0 L199 0 Z M253 307 Q315 307 315 253 Q315 241 312 227 L300 161 Q293 119 271 100 Q250 85 214 85 L140 85 L179 307 L253 307 Z M233 614 L291 614 Q323 614 338 602 Q353 590 353 563 Q353 547 351 538 L339 471 Q331 430 310.5 411 Q290 392 252 392 L194 392 L233 614 Z M192 -40 Q173 -40 157.5 -53 Q142 -66 139 -85 Q136 -104 146.5 -117 Q157 -130 176 -130 Q195 -130 210.5 -117 Q226 -104 229 -85 Q232 -66 221.5 -53 Q211 -40 192 -40 Z " />
<glyph glyph-name="uni0253" unicode="&#x253;" horiz-adv-x="431" d="M403 357 Q446 324 446 265 Q446 253 442 227 L430 161 Q417 80 361 37 Q310 0 244 0 L85 0 L201 656 L159 656 Q151 656 143.5 650 Q136 644 135 636 L92 636 Q96 662 118 680.5 Q140 699 166 699 L351 699 Q421 699 455 662 Q485 631 485 578 Q485 566 481 538 L469 471 Q456 397 403 357 Z M239 392 L297 392 Q335 392 355.5 411 Q376 430 384 471 L396 538 Q398 547 398 563 Q398 590 383 602 Q368 614 336 614 L278 614 L239 392 Z M357 227 Q360 241 360 253 Q360 307 298 307 L224 307 L185 85 L259 85 Q295 85 316 100 Q338 119 345 161 L357 227 Z " />
<glyph glyph-name="uni0180" unicode="&#x180;" horiz-adv-x="406" d="M378 357 Q420 325 420 263 Q420 247 417 227 L405 161 Q390 78 335 37 Q286 0 218 0 L103 0 L60 0 L87 154 L27 154 L42 239 L102 239 L183 700 L326 700 Q394 700 430 663 Q460 632 460 579 Q460 558 456 539 L444 471 Q431 397 378 357 Z M214 392 L272 392 Q310 392 331 411 Q352 430 359 471 L371 539 Q374 553 374 564 Q374 591 359 603 Q344 615 311 615 L253 615 L214 392 Z M332 227 Q334 245 334 252 Q334 280 319.5 293.5 Q305 307 273 307 L199 307 L187 239 L245 239 L230 154 L172 154 L160 85 L233 85 Q271 85 290 100 Q313 118 320 161 L332 227 Z " />
<glyph glyph-name="c" unicode="c" horiz-adv-x="381" d="M190 -9 Q258 -9 308 30 Q364 74 379 156 L395 250 L310 250 L294 156 Q287 115 265 95.5 Q243 76 205 76 Q144 76 144 130 Q144 141 147 156 L215 545 Q223 586 244 605.5 Q265 625 302 625 Q365 625 365 571 Q365 559 362 545 L351 481 L436 481 L447 545 Q451 564 451 585 Q451 638 421 671 Q385 710 317 710 Q250 710 200 671 Q145 626 130 545 L62 156 Q58 136 58 114 Q58 60 87 30 Q123 -9 190 -9 Z " />
<glyph glyph-name="cacute" unicode="&#x107;" horiz-adv-x="381" d="M190 -9 Q258 -9 308 30 Q364 74 379 156 L395 250 L310 250 L294 156 Q287 115 265 95.5 Q243 76 205 76 Q144 76 144 130 Q144 141 147 156 L215 545 Q223 586 244 605.5 Q265 625 302 625 Q365 625 365 571 Q365 559 362 545 L351 481 L436 481 L447 545 Q451 564 451 585 Q451 638 421 671 Q385 710 317 710 Q250 710 200 671 Q145 626 130 545 L62 156 Q58 136 58 114 Q58 60 87 30 Q123 -9 190 -9 Z M381 842 L296 737 L346 737 L467 842 L381 842 Z " />
<glyph glyph-name="ccaron" unicode="&#x10d;" horiz-adv-x="381" d="M190 -9 Q258 -9 308 30 Q364 74 379 156 L395 250 L310 250 L294 156 Q287 115 265 95.5 Q243 76 205 76 Q144 76 144 130 Q144 141 147 156 L215 545 Q223 586 244 605.5 Q265 625 302 625 Q365 625 365 571 Q365 559 362 545 L351 481 L436 481 L447 545 Q451 564 451 585 Q451 638 421 671 Q385 710 317 710 Q250 710 200 671 Q145 626 130 545 L62 156 Q58 136 58 114 Q58 60 87 30 Q123 -9 190 -9 Z M450 840 L364 737 L279 737 L229 840 L280 840 L330 783 L400 840 L450 840 Z " />
<glyph glyph-name="ccedilla" unicode="&#xe7;" horiz-adv-x="381" d="M351 480 L362 544 Q365 558 365 570 Q365 624 303 624 Q265 624 244 604.5 Q223 585 215 544 L147 157 Q144 144 144 131 Q144 77 207 77 Q244 77 265 96.5 Q286 116 294 157 L310 251 L395 251 L379 157 Q364 75 308 31 Q269 -1 214 -7 Q214 -10 218 -13 Q219 -13 219.5 -13.5 Q220 -14 219 -15 Q230 -24 236.5 -33.5 Q243 -43 243 -58 Q243 -66 242 -71 Q237 -97 215.5 -116 Q194 -135 168 -135 Q145 -135 129.5 -120 Q114 -105 114 -82 Q114 -75 115 -71 L158 -71 L158 -73 Q158 -81 163 -86.5 Q168 -92 176 -92 Q184 -92 191 -85.5 Q198 -79 199 -71 L200 -66 Q200 -58 188 -49 Q188 -49 186 -47 Q167 -31 170 -7 Q118 -1 87 31 Q58 65 58 116 Q58 138 62 157 L130 544 Q144 626 200 670 Q250 709 318 709 Q351 709 378 699 Q405 689 421 670 Q451 639 451 584 Q451 572 447 544 L436 480 L351 480 Z " />
<glyph glyph-name="cdotaccent" unicode="&#x10b;" horiz-adv-x="381" d="M190 -9 Q258 -9 308 30 Q364 74 379 156 L395 250 L310 250 L294 156 Q287 115 265 95.5 Q243 76 205 76 Q144 76 144 130 Q144 141 147 156 L215 545 Q223 586 244 605.5 Q265 625 302 625 Q365 625 365 571 Q365 559 362 545 L351 481 L436 481 L447 545 Q451 564 451 585 Q451 638 421 671 Q385 710 317 710 Q250 710 200 671 Q145 626 130 545 L62 156 Q58 136 58 114 Q58 60 87 30 Q123 -9 190 -9 Z M375 782 Q378 801 367.5 814 Q357 827 338 827 Q319 827 303.5 814 Q288 801 285 782 Q284 779 284 773 Q284 758 295 747.5 Q306 737 322 737 Q341 737 356 750 Q371 763 375 782 Z " />
<glyph glyph-name="uni0188" unicode="&#x188;" horiz-adv-x="381" d="M433 711 Q438 737 460 755.5 Q482 774 508 774 L501 731 Q492 731 485 725 Q478 719 476 711 L436 481 L351 481 L362 545 Q365 559 365 571 Q365 625 302 625 Q265 625 244 605.5 Q223 586 215 545 L147 156 Q144 141 144 130 Q144 76 205 76 Q243 76 265 95.5 Q287 115 294 156 L310 250 L395 250 L379 156 Q364 74 308 30 Q258 -9 190 -9 Q123 -9 87 30 Q58 60 58 114 Q58 136 62 156 L130 545 Q145 626 200 671 Q250 710 317 710 Q385 710 421 671 L425 666 L433 711 Z " />
<glyph glyph-name="d" unicode="d" horiz-adv-x="391" d="M199 0 Q267 0 315 36 Q372 81 385 161 L451 535 Q455 554 455 576 Q455 627 426 661 Q390 700 322 700 L163 700 L40 0 L199 0 Z M233 615 L307 615 Q369 615 369 561 Q369 549 366 535 L300 161 Q293 118 270 100 Q251 85 214 85 L140 85 L233 615 Z " />
<glyph glyph-name="eth" unicode="&#xf0;" horiz-adv-x="395" d="M431 661 Q459 627 459 576 Q459 555 455 535 L389 161 Q376 81 319 36 Q271 0 203 0 L45 0 L99 307 L59 307 L74 392 L114 392 L168 700 L326 700 Q394 700 431 661 Z M370 535 Q373 550 373 561 Q373 589 358 602 Q343 615 311 615 L238 615 L199 392 L259 392 L244 307 L184 307 L145 85 L218 85 Q254 85 275 100 Q296 117 304 161 L370 535 Z " />
<glyph glyph-name="dcaron" unicode="&#x10f;" horiz-adv-x="391" d="M199 0 Q267 0 315 36 Q372 81 385 161 L451 535 Q455 554 455 576 Q455 627 426 661 Q390 700 322 700 L163 700 L40 0 L199 0 Z M233 615 L307 615 Q369 615 369 561 Q369 549 366 535 L300 161 Q293 118 270 100 Q251 85 214 85 L140 85 L233 615 Z M457 840 L371 737 L286 737 L236 840 L287 840 L337 783 L407 840 L457 840 Z " />
<glyph glyph-name="uni1E13" unicode="&#x1e13;" horiz-adv-x="391" d="M199 0 Q267 0 315 36 Q372 81 385 161 L451 535 Q455 554 455 576 Q455 627 426 661 Q390 700 322 700 L163 700 L40 0 L199 0 Z M233 615 L307 615 Q369 615 369 561 Q369 549 366 535 L300 161 Q293 118 270 100 Q251 85 214 85 L140 85 L233 615 Z M284 -143 L234 -143 L184 -86 L114 -143 L63 -143 L149 -40 L234 -40 L284 -143 Z " />
<glyph glyph-name="dslash" unicode="&#x111;" horiz-adv-x="395" d="M431 661 Q459 627 459 576 Q459 555 455 535 L389 161 Q376 81 319 36 Q271 0 203 0 L45 0 L99 307 L59 307 L74 392 L114 392 L168 700 L326 700 Q394 700 431 661 Z M370 535 Q373 550 373 561 Q373 589 358 602 Q343 615 311 615 L238 615 L199 392 L259 392 L244 307 L184 307 L145 85 L218 85 Q254 85 275 100 Q296 117 304 161 L370 535 Z " />
<glyph glyph-name="uni1E0D" unicode="&#x1e0d;" horiz-adv-x="391" d="M199 0 Q267 0 315 36 Q372 81 385 161 L451 535 Q455 554 455 576 Q455 627 426 661 Q390 700 322 700 L163 700 L40 0 L199 0 Z M233 615 L307 615 Q369 615 369 561 Q369 549 366 535 L300 161 Q293 118 270 100 Q251 85 214 85 L140 85 L233 615 Z M192 -40 Q173 -40 157.5 -53 Q142 -66 139 -85 Q136 -104 146.5 -117 Q157 -130 176 -130 Q195 -130 210.5 -117 Q226 -104 229 -85 Q232 -66 221.5 -53 Q211 -40 192 -40 Z " />
<glyph glyph-name="uni0257" unicode="&#x257;" horiz-adv-x="436" d="M471 661 Q500 627 500 576 Q500 554 496 535 L430 161 Q417 81 360 36 Q312 0 244 0 L85 0 L201 657 L159 657 Q151 657 143.5 651 Q136 645 135 637 L92 637 Q96 663 118 681.5 Q140 700 166 700 L367 700 Q435 700 471 661 Z M411 535 Q414 549 414 561 Q414 615 352 615 L278 615 L185 85 L259 85 Q296 85 315 100 Q338 118 345 161 L411 535 Z " />
<glyph glyph-name="uni1E0F" unicode="&#x1e0f;" horiz-adv-x="391" d="M199 0 Q267 0 315 36 Q372 81 385 161 L451 535 Q455 554 455 576 Q455 627 426 661 Q390 700 322 700 L163 700 L40 0 L199 0 Z M233 615 L307 615 Q369 615 369 561 Q369 549 366 535 L300 161 Q293 118 270 100 Q251 85 214 85 L140 85 L233 615 Z M335 -85 L343 -40 L40 -40 L32 -85 L335 -85 Z " />
<glyph glyph-name="e" unicode="e" horiz-adv-x="347" d="M424 615 L233 615 L196 401 L329 401 L314 316 L181 316 L140 85 L331 85 L316 0 L40 0 L163 700 L439 700 L424 615 Z " />
<glyph glyph-name="eacute" unicode="&#xe9;" horiz-adv-x="347" d="M424 615 L233 615 L196 401 L329 401 L314 316 L181 316 L140 85 L331 85 L316 0 L40 0 L163 700 L439 700 L424 615 Z M368 842 L283 737 L333 737 L454 842 L368 842 Z " />
<glyph glyph-name="ecaron" unicode="&#x11b;" horiz-adv-x="347" d="M424 615 L233 615 L196 401 L329 401 L314 316 L181 316 L140 85 L331 85 L316 0 L40 0 L163 700 L439 700 L424 615 Z M436 840 L350 737 L265 737 L215 840 L266 840 L316 783 L386 840 L436 840 Z " />
<glyph glyph-name="uni0229" unicode="&#x229;" horiz-adv-x="347" d="M233 615 L196 401 L329 401 L314 316 L181 316 L140 85 L331 85 L316 0 L200 0 Q202 -5 204 -6 Q206 -6 206 -8 Q217 -17 223.5 -27 Q230 -37 230 -53 Q230 -60 229 -64 Q225 -90 202.5 -109 Q180 -128 154 -128 Q131 -128 116 -113 Q101 -98 101 -75 Q101 -68 102 -64 L145 -64 L145 -68 Q145 -75 149.5 -80 Q154 -85 162 -85 Q170 -85 177 -78.5 Q184 -72 186 -64 L186 -61 Q186 -55 183.5 -51.5 Q181 -48 175 -42 Q174 -42 172 -40 Q153 -23 156 0 L40 0 L163 700 L439 700 L424 615 L233 615 Z " />
<glyph glyph-name="ecircumflex" unicode="&#xea;" horiz-adv-x="347" d="M424 615 L233 615 L196 401 L329 401 L314 316 L181 316 L140 85 L331 85 L316 0 L40 0 L163 700 L439 700 L424 615 Z M418 737 L368 737 L318 794 L248 737 L197 737 L283 840 L368 840 L418 737 Z " />
<glyph glyph-name="uni1EBF" unicode="&#x1ebf;" horiz-adv-x="347" d="M424 615 L233 615 L196 401 L329 401 L314 316 L181 316 L140 85 L331 85 L316 0 L40 0 L163 700 L439 700 L424 615 Z M418 737 L368 737 L318 794 L248 737 L197 737 L283 840 L368 840 L418 737 Z M499 942 L414 837 L464 837 L585 942 L499 942 Z " />
<glyph glyph-name="uni1EC7" unicode="&#x1ec7;" horiz-adv-x="347" d="M424 615 L233 615 L196 401 L329 401 L314 316 L181 316 L140 85 L331 85 L316 0 L40 0 L163 700 L439 700 L424 615 Z M171 -40 Q152 -40 136.5 -53 Q121 -66 118 -85 Q115 -104 125.5 -117 Q136 -130 155 -130 Q174 -130 189.5 -117 Q205 -104 208 -85 Q211 -66 200.5 -53 Q190 -40 171 -40 Z M418 737 L368 737 L318 794 L248 737 L197 737 L283 840 L368 840 L418 737 Z " />
<glyph glyph-name="uni1EC1" unicode="&#x1ec1;" horiz-adv-x="347" d="M424 615 L233 615 L196 401 L329 401 L314 316 L181 316 L140 85 L331 85 L316 0 L40 0 L163 700 L439 700 L424 615 Z M418 737 L368 737 L318 794 L248 737 L197 737 L283 840 L368 840 L418 737 Z M415 942 L329 942 L414 837 L464 837 L415 942 Z " />
<glyph glyph-name="uni1EC3" unicode="&#x1ec3;" horiz-adv-x="347" d="M424 615 L233 615 L196 401 L329 401 L314 316 L181 316 L140 85 L331 85 L316 0 L40 0 L163 700 L439 700 L424 615 Z M418 737 L368 737 L318 794 L248 737 L197 737 L283 840 L368 840 L418 737 Z M373 938 Q410 938 434 913.5 Q458 889 458 853 Q458 843 457 837 L414 837 L415 846 Q415 867 401.5 881 Q388 895 366 895 L335 931 Q353 938 373 938 Z " />
<glyph glyph-name="uni1EC5" unicode="&#x1ec5;" horiz-adv-x="347" d="M424 615 L233 615 L196 401 L329 401 L314 316 L181 316 L140 85 L331 85 L316 0 L40 0 L163 700 L439 700 L424 615 Z M231 865 Q259 893 278 896 Q296 899 321 883 Q346 865 374 865 Q417 865 463 913 L434 939 Q408 913 388 909 Q369 906 349 920 Q318 940 292 940 Q250 940 202 892 L231 865 Z M418 737 L368 737 L318 794 L248 737 L197 737 L283 840 L368 840 L418 737 Z " />
<glyph glyph-name="edieresis" unicode="&#xeb;" horiz-adv-x="347" d="M424 615 L233 615 L196 401 L329 401 L314 316 L181 316 L140 85 L331 85 L316 0 L40 0 L163 700 L439 700 L424 615 Z M289 782 Q292 801 281.5 814 Q271 827 252 827 Q233 827 217.5 814 Q202 801 199 782 Q198 779 198 773 Q198 758 209 747.5 Q220 737 236 737 Q255 737 270 750 Q285 763 289 782 Z M433 782 Q436 801 425.5 814 Q415 827 396 827 Q377 827 361.5 814 Q346 801 343 782 Q342 779 342 773 Q342 758 353 747.5 Q364 737 380 737 Q399 737 414 750 Q429 763 433 782 Z " />
<glyph glyph-name="edotaccent" unicode="&#x117;" horiz-adv-x="347" d="M424 615 L233 615 L196 401 L329 401 L314 316 L181 316 L140 85 L331 85 L316 0 L40 0 L163 700 L439 700 L424 615 Z M324 827 Q305 827 289.5 814 Q274 801 271 782 Q270 779 270 773 Q270 758 281 747.5 Q292 737 308 737 Q327 737 342 750 Q357 763 361 782 Q364 801 353.5 814 Q343 827 324 827 Z " />
<glyph glyph-name="uni1EB9" unicode="&#x1eb9;" horiz-adv-x="347" d="M424 615 L233 615 L196 401 L329 401 L314 316 L181 316 L140 85 L331 85 L316 0 L40 0 L163 700 L439 700 L424 615 Z M171 -40 Q152 -40 136.5 -53 Q121 -66 118 -85 Q115 -104 125.5 -117 Q136 -130 155 -130 Q174 -130 189.5 -117 Q205 -104 208 -85 Q211 -66 200.5 -53 Q190 -40 171 -40 Z " />
<glyph glyph-name="egrave" unicode="&#xe8;" horiz-adv-x="347" d="M424 615 L233 615 L196 401 L329 401 L314 316 L181 316 L140 85 L331 85 L316 0 L40 0 L163 700 L439 700 L424 615 Z M284 842 L198 842 L283 737 L333 737 L284 842 Z " />
<glyph glyph-name="uni1EBB" unicode="&#x1ebb;" horiz-adv-x="347" d="M424 615 L233 615 L196 401 L329 401 L314 316 L181 316 L140 85 L331 85 L316 0 L40 0 L163 700 L439 700 L424 615 Z M253 838 Q290 838 314 814 Q338 790 338 755 Q338 749 336 737 L293 737 Q294 741 294 747 Q294 767 280 781 Q266 795 245 795 L215 831 Q232 838 253 838 Z " />
<glyph glyph-name="emacron" unicode="&#x113;" horiz-adv-x="347" d="M424 615 L233 615 L196 401 L329 401 L314 316 L181 316 L140 85 L331 85 L316 0 L40 0 L163 700 L439 700 L424 615 Z M460 737 L468 782 L164 782 L156 737 L460 737 Z " />
<glyph glyph-name="eogonek" unicode="&#x119;" horiz-adv-x="347" d="M233 615 L196 401 L329 401 L314 316 L181 316 L140 85 L331 85 L316 0 Q291 -8 271.5 -25.5 Q252 -43 250 -59 Q246 -81 286 -81 L295 -81 L287 -126 L268 -126 Q234 -126 212 -115.5 Q190 -105 190 -82 Q190 -76 191 -73 Q197 -35 271 0 L40 0 L163 700 L439 700 L424 615 L233 615 Z " />
<glyph glyph-name="uni0258" unicode="&#x258;" horiz-adv-x="347" d="M139 615 L154 700 L430 700 L307 0 L31 0 L46 85 L237 85 L278 316 L145 316 L160 401 L293 401 L330 615 L139 615 Z " />
<glyph glyph-name="uni1EBD" unicode="&#x1ebd;" horiz-adv-x="347" d="M424 615 L233 615 L196 401 L329 401 L314 316 L181 316 L140 85 L331 85 L316 0 L40 0 L163 700 L439 700 L424 615 Z M212 737 Q240 765 259 768 Q278 771 302 755 Q329 737 355 737 Q398 737 444 785 L415 811 Q390 786 370 781 Q351 778 331 792 Q300 812 274 812 Q232 812 184 764 L212 737 Z " />
<glyph glyph-name="uni01DD" unicode="&#x1dd;" horiz-adv-x="347" d="M139 615 L154 700 L430 700 L307 0 L31 0 L46 85 L237 85 L278 316 L145 316 L160 401 L293 401 L330 615 L139 615 Z " />
<glyph glyph-name="f" unicode="f" horiz-adv-x="333" d="M424 614 L233 614 L196 402 L329 402 L314 317 L181 317 L125 0 L40 0 L163 699 L439 699 L424 614 Z " />
<glyph glyph-name="g" unicode="g" horiz-adv-x="385" d="M191 -9 Q259 -9 309 30 Q364 74 379 156 L420 392 L262 392 L247 307 L320 307 L294 156 Q287 115 265.5 95.5 Q244 76 206 76 Q174 76 159 89 Q144 102 144 130 Q144 141 147 156 L215 544 Q223 585 244 604.5 Q265 624 303 624 Q365 624 365 570 Q365 558 362 544 L351 480 L436 480 L447 544 Q451 572 451 584 Q451 636 422 670 Q386 709 318 709 Q251 709 200 670 Q143 624 130 544 L62 156 Q58 136 58 114 Q58 60 87 30 Q124 -9 191 -9 Z " />
<glyph glyph-name="gbreve" unicode="&#x11f;" horiz-adv-x="385" d="M191 -9 Q259 -9 309 30 Q364 74 379 156 L420 392 L262 392 L247 307 L320 307 L294 156 Q287 115 265.5 95.5 Q244 76 206 76 Q174 76 159 89 Q144 102 144 130 Q144 141 147 156 L215 544 Q223 585 244 604.5 Q265 624 303 624 Q365 624 365 570 Q365 558 362 544 L351 480 L436 480 L447 544 Q451 572 451 584 Q451 636 422 670 Q386 709 318 709 Q251 709 200 670 Q143 624 130 544 L62 156 Q58 136 58 114 Q58 60 87 30 Q124 -9 191 -9 Z M441 838 Q433 797 398.5 767 Q364 737 322 737 Q285 737 261 760.5 Q237 784 237 820 Q237 826 239 838 L282 838 Q281 834 281 828 Q281 808 295 794 Q309 780 330 780 Q354 780 373.5 797 Q393 814 398 838 L441 838 Z " />
<glyph glyph-name="gcaron" unicode="&#x1e7;" horiz-adv-x="385" d="M191 -9 Q259 -9 309 30 Q364 74 379 156 L420 392 L262 392 L247 307 L320 307 L294 156 Q287 115 265.5 95.5 Q244 76 206 76 Q174 76 159 89 Q144 102 144 130 Q144 141 147 156 L215 544 Q223 585 244 604.5 Q265 624 303 624 Q365 624 365 570 Q365 558 362 544 L351 480 L436 480 L447 544 Q451 572 451 584 Q451 636 422 670 Q386 709 318 709 Q251 709 200 670 Q143 624 130 544 L62 156 Q58 136 58 114 Q58 60 87 30 Q124 -9 191 -9 Z M450 840 L364 737 L279 737 L229 840 L280 840 L330 783 L400 840 L450 840 Z " />
<glyph glyph-name="gcommaaccent" unicode="&#x123;" horiz-adv-x="385" d="M191 -9 Q259 -9 309 30 Q364 74 379 156 L420 392 L262 392 L247 307 L320 307 L294 156 Q287 115 265.5 95.5 Q244 76 206 76 Q174 76 159 89 Q144 102 144 130 Q144 141 147 156 L215 544 Q223 585 244 604.5 Q265 624 303 624 Q365 624 365 570 Q365 558 362 544 L351 480 L436 480 L447 544 Q451 572 451 584 Q451 636 422 670 Q386 709 318 709 Q251 709 200 670 Q143 624 130 544 L62 156 Q58 136 58 114 Q58 60 87 30 Q124 -9 191 -9 Z M223 -85 Q221 -99 203 -127 Q191 -144 164 -175 L131 -175 Q135 -169 138.5 -162.5 Q142 -156 146 -150 Q151 -138 151 -134 Q151 -128 146 -123 Q132 -111 132 -94 Q132 -88 133 -85 Q136 -66 151.5 -53 Q167 -40 186 -40 Q205 -40 215.5 -53 Q226 -66 223 -85 Z " />
<glyph glyph-name="gdotaccent" unicode="&#x121;" horiz-adv-x="385" d="M191 -9 Q259 -9 309 30 Q364 74 379 156 L420 392 L262 392 L247 307 L320 307 L294 156 Q287 115 265.5 95.5 Q244 76 206 76 Q174 76 159 89 Q144 102 144 130 Q144 141 147 156 L215 544 Q223 585 244 604.5 Q265 624 303 624 Q365 624 365 570 Q365 558 362 544 L351 480 L436 480 L447 544 Q451 572 451 584 Q451 636 422 670 Q386 709 318 709 Q251 709 200 670 Q143 624 130 544 L62 156 Q58 136 58 114 Q58 60 87 30 Q124 -9 191 -9 Z M375 782 Q378 801 367.5 814 Q357 827 338 827 Q319 827 303.5 814 Q288 801 285 782 Q284 779 284 773 Q284 758 295 747.5 Q306 737 322 737 Q341 737 356 750 Q371 763 375 782 Z " />
<glyph glyph-name="uni0260" unicode="&#x260;" horiz-adv-x="385" d="M433 710 Q437 736 459 754.5 Q481 773 507 773 L500 730 Q492 730 484.5 724 Q477 718 476 710 L436 480 L351 480 L362 544 Q365 558 365 570 Q365 624 303 624 Q265 624 244 604.5 Q223 585 215 544 L147 156 Q144 141 144 130 Q144 102 159 89 Q174 76 206 76 Q244 76 265.5 95.5 Q287 115 294 156 L320 307 L247 307 L262 392 L420 392 L379 156 Q364 74 309 30 Q259 -9 191 -9 Q124 -9 87 30 Q58 60 58 114 Q58 136 62 156 L130 544 Q143 624 200 670 Q251 709 318 709 Q386 709 422 670 Q425 667 425 666 L433 710 Z " />
<glyph glyph-name="h" unicode="h" horiz-adv-x="396" d="M394 700 L479 700 L356 0 L271 0 L327 316 L181 316 L125 0 L40 0 L163 700 L248 700 L196 401 L342 401 L394 700 Z " />
<glyph glyph-name="hbar" unicode="&#x127;" horiz-adv-x="407" d="M485 700 L460 558 L500 558 L493 514 L453 514 L362 0 L277 0 L333 316 L186 316 L130 0 L45 0 L136 514 L96 514 L103 558 L143 558 L168 700 L253 700 L228 558 L375 558 L400 700 L485 700 Z M348 401 L368 514 L221 514 L201 401 L348 401 Z " />
<glyph glyph-name="uni1E25" unicode="&#x1e25;" horiz-adv-x="396" d="M394 700 L479 700 L356 0 L271 0 L327 316 L181 316 L125 0 L40 0 L163 700 L248 700 L196 401 L342 401 L394 700 Z M228 -85 Q226 -99 208 -127 Q196 -144 169 -175 L136 -175 Q140 -169 143.5 -162.5 Q147 -156 151 -150 Q156 -138 156 -134 Q156 -128 151 -123 Q137 -111 137 -94 Q137 -88 138 -85 Q141 -66 156.5 -53 Q172 -40 191 -40 Q210 -40 220.5 -53 Q231 -66 228 -85 Z " />
<glyph glyph-name="uni0266" unicode="&#x266;" horiz-adv-x="441" d="M524 700 L401 0 L316 0 L372 316 L226 316 L170 0 L85 0 L201 657 L159 657 Q151 657 143.5 651 Q136 645 135 637 L92 637 Q96 663 118 681.5 Q140 700 166 700 L293 700 L241 401 L387 401 L439 700 L524 700 Z " />
<glyph glyph-name="uni0265" unicode="&#x265;" horiz-adv-x="396" d="M394 700 L479 700 L356 0 L271 0 L327 316 L181 316 L125 0 L40 0 L163 700 L248 700 L196 401 L342 401 L394 700 Z " />
<glyph glyph-name="i" unicode="i" horiz-adv-x="165" d="M125 0 L248 700 L163 700 L40 0 L125 0 Z " />
<glyph glyph-name="dotlessi" unicode="&#x131;" horiz-adv-x="165" d="M125 0 L248 700 L163 700 L40 0 L125 0 Z " />
<glyph glyph-name="iacute" unicode="&#xed;" horiz-adv-x="165" d="M125 0 L248 700 L163 700 L40 0 L125 0 Z M273 841 L187 737 L238 737 L358 841 L273 841 Z " />
<glyph glyph-name="uni01D0" unicode="&#x1d0;" horiz-adv-x="165" d="M125 0 L248 700 L163 700 L40 0 L125 0 Z M341 840 L255 737 L170 737 L120 840 L171 840 L221 783 L291 840 L341 840 Z " />
<glyph glyph-name="icircumflex" unicode="&#xee;" horiz-adv-x="165" d="M125 0 L248 700 L163 700 L40 0 L125 0 Z M323 737 L273 737 L223 794 L153 737 L102 737 L188 840 L273 840 L323 737 Z " />
<glyph glyph-name="idieresis" unicode="&#xef;" horiz-adv-x="164" d="M125 0 L248 700 L163 700 L40 0 L125 0 Z M193 782 Q196 801 185.5 814 Q175 827 156 827 Q137 827 121.5 814 Q106 801 103 782 Q102 779 102 773 Q102 758 113 747.5 Q124 737 140 737 Q159 737 174 750 Q189 763 193 782 Z M337 782 Q340 801 329.5 814 Q319 827 300 827 Q281 827 265.5 814 Q250 801 247 782 Q246 779 246 773 Q246 758 257 747.5 Q268 737 284 737 Q303 737 318 750 Q333 763 337 782 Z " />
<glyph glyph-name="uni1E2F" unicode="&#x1e2f;" horiz-adv-x="165" d="M125 0 L248 700 L163 700 L40 0 L125 0 Z M193 782 Q196 801 185.5 814 Q175 827 156 827 Q137 827 121.5 814 Q106 801 103 782 Q102 779 102 773 Q102 758 113 747.5 Q124 737 140 737 Q159 737 174 750 Q189 763 193 782 Z M337 782 Q340 801 329.5 814 Q319 827 300 827 Q281 827 265.5 814 Q250 801 247 782 Q246 779 246 773 Q246 758 257 747.5 Q268 737 284 737 Q303 737 318 750 Q333 763 337 782 Z M296 969 L210 865 L261 865 L381 969 L296 969 Z " />
<glyph glyph-name="uni1ECB" unicode="&#x1ecb;" horiz-adv-x="170" d="M78 -40 Q59 -40 43.5 -53 Q28 -66 25 -85 Q22 -104 32.5 -117 Q43 -130 62 -130 Q81 -130 96.5 -117 Q112 -104 115 -85 Q118 -66 107.5 -53 Q97 -40 78 -40 Z M127 0 L250 700 L165 700 L42 0 L127 0 Z " />
<glyph glyph-name="igrave" unicode="&#xec;" horiz-adv-x="165" d="M125 0 L248 700 L163 700 L40 0 L125 0 Z M188 841 L103 841 L187 737 L238 737 L188 841 Z " />
<glyph glyph-name="uni1EC9" unicode="&#x1ec9;" horiz-adv-x="165" d="M151 838 Q188 838 212 814 Q236 790 236 755 Q236 749 234 737 L191 737 Q192 741 192 747 Q192 767 178 781 Q164 795 143 795 L113 831 Q130 838 151 838 Z M125 0 L248 700 L163 700 L40 0 L125 0 Z " />
<glyph glyph-name="imacron" unicode="&#x12b;" horiz-adv-x="164" d="M125 0 L248 700 L163 700 L40 0 L125 0 Z M364 737 L372 782 L68 782 L60 737 L364 737 Z " />
<glyph glyph-name="iogonek" unicode="&#x12f;" horiz-adv-x="165" d="M248 700 L125 0 Q100 -8 80.5 -25.5 Q61 -43 59 -59 Q55 -81 95 -81 L104 -81 L96 -126 L77 -126 Q43 -126 21 -115.5 Q-1 -105 -1 -82 Q-1 -76 0 -73 Q6 -35 80 0 L40 0 L163 700 L248 700 Z " />
<glyph glyph-name="uni0268" unicode="&#x268;" horiz-adv-x="175" d="M237 382 L230 338 L190 338 L130 0 L45 0 L105 338 L65 338 L72 382 L112 382 L168 700 L253 700 L197 382 L237 382 Z " />
<glyph glyph-name="itilde" unicode="&#x129;" horiz-adv-x="157" d="M125 0 L248 700 L163 700 L40 0 L125 0 Z M113 735 Q141 763 160 766 Q178 769 203 753 Q228 735 256 735 Q299 735 345 783 L316 809 Q290 783 270 779 Q252 776 231 790 Q200 810 174 810 Q132 810 84 762 L113 735 Z " />
<glyph glyph-name="j" unicode="j" horiz-adv-x="372" d="M174 -9 Q242 -9 292 30 Q347 74 362 156 L457 700 L372 700 L277 156 Q270 115 248.5 95.5 Q227 76 189 76 Q158 76 143 89 Q128 102 128 129 Q128 141 131 156 L146 246 L61 246 L46 156 Q42 136 42 112 Q42 61 70 30 Q107 -9 174 -9 Z " />
<glyph glyph-name="k" unicode="k" horiz-adv-x="392" d="M154 163 L125 0 L40 0 L163 700 L248 700 L189 363 L405 700 L499 700 L286 368 L376 0 L284 0 L219 264 L154 163 Z " />
<glyph glyph-name="kcommaaccent" unicode="&#x137;" horiz-adv-x="392" d="M154 163 L125 0 L40 0 L163 700 L248 700 L189 363 L405 700 L499 700 L286 368 L376 0 L284 0 L219 264 L154 163 Z M234 -85 Q232 -99 214 -127 Q202 -144 175 -175 L142 -175 Q146 -169 149.5 -162.5 Q153 -156 157 -150 Q162 -138 162 -134 Q162 -128 157 -123 Q143 -111 143 -94 Q143 -88 144 -85 Q147 -66 162.5 -53 Q178 -40 197 -40 Q216 -40 226.5 -53 Q237 -66 234 -85 Z " />
<glyph glyph-name="uni0199" unicode="&#x199;" horiz-adv-x="441" d="M521 700 Q544 700 559 685.5 Q574 671 574 648 Q574 641 573 637 L530 637 L530 641 Q530 648 525.5 652.5 Q521 657 514 657 L472 657 L286 368 L376 0 L284 0 L219 264 L154 163 L125 0 L40 0 L163 700 L248 700 L189 363 L405 700 L521 700 Z " />
<glyph glyph-name="l" unicode="l" horiz-adv-x="332" d="M316 0 L331 85 L140 85 L248 699 L163 699 L40 0 L316 0 Z " />
<glyph glyph-name="lacute" unicode="&#x13a;" horiz-adv-x="332" d="M316 0 L331 85 L140 85 L248 699 L163 699 L40 0 L316 0 Z M273 841 L187 737 L238 737 L358 841 L273 841 Z " />
<glyph glyph-name="lcaron" unicode="&#x13e;" horiz-adv-x="332" d="M316 0 L331 85 L140 85 L248 699 L163 699 L40 0 L316 0 Z M410 654 Q407 637 390 612 Q378 595 351 564 L318 564 Q323 572 333 589 Q338 602 338 606 Q338 612 334 616 Q317 631 320 654 Q324 673 339 686 Q354 699 373 699 Q389 699 400 688.5 Q411 678 411 663 Q411 657 410 654 Z " />
<glyph glyph-name="uni1E3D" unicode="&#x1e3d;" horiz-adv-x="332" d="M316 0 L331 85 L140 85 L248 699 L163 699 L40 0 L316 0 Z M264 -143 L214 -143 L164 -86 L94 -143 L43 -143 L129 -40 L214 -40 L264 -143 Z " />
<glyph glyph-name="lcommaaccent" unicode="&#x13c;" horiz-adv-x="332" d="M316 0 L331 85 L140 85 L248 699 L163 699 L40 0 L316 0 Z M208 -85 Q206 -99 188 -127 Q176 -144 149 -175 L116 -175 Q120 -169 123.5 -162.5 Q127 -156 131 -150 Q136 -138 136 -134 Q136 -128 131 -123 Q117 -111 117 -94 Q117 -88 118 -85 Q121 -66 136.5 -53 Q152 -40 171 -40 Q190 -40 200.5 -53 Q211 -66 208 -85 Z " />
<glyph glyph-name="uni1E37" unicode="&#x1e37;" horiz-adv-x="332" d="M316 0 L331 85 L140 85 L248 699 L163 699 L40 0 L316 0 Z M171 -40 Q152 -40 136.5 -53 Q121 -66 118 -85 Q115 -104 125.5 -117 Q136 -130 155 -130 Q174 -130 189.5 -117 Q205 -104 208 -85 Q211 -66 200.5 -53 Q190 -40 171 -40 Z " />
<glyph glyph-name="lslash" unicode="&#x142;" horiz-adv-x="332" d="M140 85 L331 85 L316 0 L40 0 L73 188 L9 131 L20 194 L84 251 L163 699 L248 699 L185 342 L334 477 L323 414 L174 279 L140 85 Z " />
<glyph glyph-name="m" unicode="m" horiz-adv-x="527" d="M306 237 L562 700 L610 700 L487 0 L402 0 L472 395 L302 86 L255 86 L195 395 L125 0 L40 0 L163 700 L211 700 L306 237 Z " />
<glyph glyph-name="uni1E3F" unicode="&#x1e3f;" horiz-adv-x="527" d="M306 237 L562 700 L610 700 L487 0 L402 0 L472 395 L302 86 L255 86 L195 395 L125 0 L40 0 L163 700 L211 700 L306 237 Z M454 841 L368 737 L419 737 L539 841 L454 841 Z " />
<glyph glyph-name="uni026F" unicode="&#x26f;" horiz-adv-x="527" d="M346 463 L88 0 L40 0 L163 700 L248 700 L179 305 L348 614 L395 614 L456 305 L525 700 L610 700 L487 0 L439 0 L346 463 Z " />
<glyph glyph-name="n" unicode="n" horiz-adv-x="405" d="M198 422 L124 0 L39 0 L162 700 L209 700 L330 277 L404 700 L489 700 L366 0 L319 0 L198 422 Z " />
<glyph glyph-name="nacute" unicode="&#x144;" horiz-adv-x="405" d="M198 422 L124 0 L39 0 L162 700 L209 700 L330 277 L404 700 L489 700 L366 0 L319 0 L198 422 Z M393 841 L307 737 L358 737 L478 841 L393 841 Z " />
<glyph glyph-name="ncaron" unicode="&#x148;" horiz-adv-x="405" d="M198 422 L124 0 L39 0 L162 700 L209 700 L330 277 L404 700 L489 700 L366 0 L319 0 L198 422 Z M461 840 L375 737 L290 737 L240 840 L291 840 L341 783 L411 840 L461 840 Z " />
<glyph glyph-name="uni1E4B" unicode="&#x1e4b;" horiz-adv-x="405" d="M198 422 L124 0 L39 0 L162 700 L209 700 L330 277 L404 700 L489 700 L366 0 L319 0 L198 422 Z M288 -143 L238 -143 L188 -86 L118 -143 L67 -143 L153 -40 L238 -40 L288 -143 Z " />
<glyph glyph-name="ncommaaccent" unicode="&#x146;" horiz-adv-x="405" d="M233 -85 Q231 -99 213 -127 Q201 -144 174 -175 L141 -175 Q145 -169 148.5 -162.5 Q152 -156 156 -150 Q161 -138 161 -134 Q161 -128 156 -123 Q142 -111 142 -94 Q142 -88 143 -85 Q146 -66 161.5 -53 Q177 -40 196 -40 Q215 -40 225.5 -53 Q236 -66 233 -85 Z M198 422 L124 0 L39 0 L162 700 L209 700 L330 277 L404 700 L489 700 L366 0 L319 0 L198 422 Z " />
<glyph glyph-name="uni1E45" unicode="&#x1e45;" horiz-adv-x="405" d="M198 422 L124 0 L39 0 L162 700 L209 700 L330 277 L404 700 L489 700 L366 0 L319 0 L198 422 Z M349 827 Q330 827 314.5 814 Q299 801 296 782 Q295 779 295 773 Q295 758 306 747.5 Q317 737 333 737 Q352 737 367 750 Q382 763 386 782 Q389 801 378.5 814 Q368 827 349 827 Z " />
<glyph glyph-name="uni1E47" unicode="&#x1e47;" horiz-adv-x="405" d="M198 422 L124 0 L39 0 L162 700 L209 700 L330 277 L404 700 L489 700 L366 0 L319 0 L198 422 Z M196 -40 Q177 -40 161.5 -53 Q146 -66 143 -85 Q140 -104 150.5 -117 Q161 -130 180 -130 Q199 -130 214.5 -117 Q230 -104 233 -85 Q236 -66 225.5 -53 Q215 -40 196 -40 Z " />
<glyph glyph-name="eng" unicode="&#x14b;" horiz-adv-x="405" d="M489 700 L359 -42 Q354 -68 332 -86.5 Q310 -105 284 -105 L292 -62 Q300 -62 307.5 -56 Q315 -50 316 -42 L323 0 L198 422 L124 0 L39 0 L162 700 L209 700 L330 277 L404 700 L489 700 Z " />
<glyph glyph-name="uni0272" unicode="&#x272;" horiz-adv-x="405" d="M489 700 L366 0 L319 0 L198 422 L124 0 Q117 -43 87.5 -74 Q58 -105 0 -105 L8 -62 Q16 -62 23.5 -56 Q31 -50 32 -42 L162 700 L209 700 L330 277 L404 700 L489 700 Z " />
<glyph glyph-name="ntilde" unicode="&#xf1;" horiz-adv-x="405" d="M198 422 L124 0 L39 0 L162 700 L209 700 L330 277 L404 700 L489 700 L366 0 L319 0 L198 422 Z M237 735 Q265 763 284 766 Q302 769 327 753 Q353 735 380 735 Q423 735 469 783 L440 809 Q414 783 394 779 Q376 776 355 790 Q324 810 298 810 Q256 810 208 762 L237 735 Z " />
<glyph glyph-name="o" unicode="o" horiz-adv-x="384" d="M190 -9 Q258 -9 308 30 Q363 74 378 156 L446 544 Q450 572 450 584 Q450 636 421 670 Q385 709 317 709 Q250 709 199 670 Q143 624 130 544 L62 156 Q58 136 58 114 Q58 61 86 30 Q123 -9 190 -9 Z M302 624 Q334 624 349 611 Q364 598 364 570 Q364 559 361 544 L293 156 Q285 115 264 95.5 Q243 76 205 76 Q174 76 159 89 Q144 102 144 129 Q144 141 147 156 L215 544 Q223 586 243.5 605 Q264 624 302 624 Z " />
<glyph glyph-name="oacute" unicode="&#xf3;" horiz-adv-x="384" d="M190 -9 Q258 -9 308 30 Q363 74 378 156 L446 544 Q450 572 450 584 Q450 636 421 670 Q385 709 317 709 Q250 709 199 670 Q143 624 130 544 L62 156 Q58 136 58 114 Q58 61 86 30 Q123 -9 190 -9 Z M302 624 Q334 624 349 611 Q364 598 364 570 Q364 559 361 544 L293 156 Q285 115 264 95.5 Q243 76 205 76 Q174 76 159 89 Q144 102 144 129 Q144 141 147 156 L215 544 Q223 586 243.5 605 Q264 624 302 624 Z M382 841 L296 737 L347 737 L467 841 L382 841 Z " />
<glyph glyph-name="uni01D2" unicode="&#x1d2;" horiz-adv-x="384" d="M190 -9 Q258 -9 308 30 Q363 74 378 156 L446 544 Q450 572 450 584 Q450 636 421 670 Q385 709 317 709 Q250 709 199 670 Q143 624 130 544 L62 156 Q58 136 58 114 Q58 61 86 30 Q123 -9 190 -9 Z M302 624 Q334 624 349 611 Q364 598 364 570 Q364 559 361 544 L293 156 Q285 115 264 95.5 Q243 76 205 76 Q174 76 159 89 Q144 102 144 129 Q144 141 147 156 L215 544 Q223 586 243.5 605 Q264 624 302 624 Z M450 840 L364 737 L279 737 L229 840 L280 840 L330 783 L400 840 L450 840 Z " />
<glyph glyph-name="ocircumflex" unicode="&#xf4;" horiz-adv-x="384" d="M190 -9 Q258 -9 308 30 Q363 74 378 156 L446 544 Q450 572 450 584 Q450 636 421 670 Q385 709 317 709 Q250 709 199 670 Q143 624 130 544 L62 156 Q58 136 58 114 Q58 61 86 30 Q123 -9 190 -9 Z M302 624 Q334 624 349 611 Q364 598 364 570 Q364 559 361 544 L293 156 Q285 115 264 95.5 Q243 76 205 76 Q174 76 159 89 Q144 102 144 129 Q144 141 147 156 L215 544 Q223 586 243.5 605 Q264 624 302 624 Z M432 737 L382 737 L332 794 L262 737 L211 737 L297 840 L382 840 L432 737 Z " />
<glyph glyph-name="uni1ED1" unicode="&#x1ed1;" horiz-adv-x="384" d="M190 -9 Q258 -9 308 30 Q363 74 378 156 L446 544 Q450 572 450 584 Q450 636 421 670 Q385 709 317 709 Q250 709 199 670 Q143 624 130 544 L62 156 Q58 136 58 114 Q58 61 86 30 Q123 -9 190 -9 Z M302 624 Q334 624 349 611 Q364 598 364 570 Q364 559 361 544 L293 156 Q285 115 264 95.5 Q243 76 205 76 Q174 76 159 89 Q144 102 144 129 Q144 141 147 156 L215 544 Q223 586 243.5 605 Q264 624 302 624 Z M432 737 L382 737 L332 794 L262 737 L211 737 L297 840 L382 840 L432 737 Z M513 942 L428 837 L478 837 L599 942 L513 942 Z " />
<glyph glyph-name="uni1ED9" unicode="&#x1ed9;" horiz-adv-x="384" d="M190 -9 Q258 -9 308 30 Q363 74 378 156 L446 544 Q450 572 450 584 Q450 636 421 670 Q385 709 317 709 Q250 709 199 670 Q143 624 130 544 L62 156 Q58 136 58 114 Q58 61 86 30 Q123 -9 190 -9 Z M302 624 Q334 624 349 611 Q364 598 364 570 Q364 559 361 544 L293 156 Q285 115 264 95.5 Q243 76 205 76 Q174 76 159 89 Q144 102 144 129 Q144 141 147 156 L215 544 Q223 586 243.5 605 Q264 624 302 624 Z M185 -40 Q166 -40 150.5 -53 Q135 -66 132 -85 Q129 -104 139.5 -117 Q150 -130 169 -130 Q188 -130 203.5 -117 Q219 -104 222 -85 Q225 -66 214.5 -53 Q204 -40 185 -40 Z M432 737 L382 737 L332 794 L262 737 L211 737 L297 840 L382 840 L432 737 Z " />
<glyph glyph-name="uni1ED3" unicode="&#x1ed3;" horiz-adv-x="384" d="M190 -9 Q258 -9 308 30 Q363 74 378 156 L446 544 Q450 572 450 584 Q450 636 421 670 Q385 709 317 709 Q250 709 199 670 Q143 624 130 544 L62 156 Q58 136 58 114 Q58 61 86 30 Q123 -9 190 -9 Z M302 624 Q334 624 349 611 Q364 598 364 570 Q364 559 361 544 L293 156 Q285 115 264 95.5 Q243 76 205 76 Q174 76 159 89 Q144 102 144 129 Q144 141 147 156 L215 544 Q223 586 243.5 605 Q264 624 302 624 Z M432 737 L382 737 L332 794 L262 737 L211 737 L297 840 L382 840 L432 737 Z M429 942 L343 942 L428 837 L478 837 L429 942 Z " />
<glyph glyph-name="uni1ED5" unicode="&#x1ed5;" horiz-adv-x="384" d="M190 -9 Q258 -9 308 30 Q363 74 378 156 L446 544 Q450 572 450 584 Q450 636 421 670 Q385 709 317 709 Q250 709 199 670 Q143 624 130 544 L62 156 Q58 136 58 114 Q58 61 86 30 Q123 -9 190 -9 Z M302 624 Q334 624 349 611 Q364 598 364 570 Q364 559 361 544 L293 156 Q285 115 264 95.5 Q243 76 205 76 Q174 76 159 89 Q144 102 144 129 Q144 141 147 156 L215 544 Q223 586 243.5 605 Q264 624 302 624 Z M432 737 L382 737 L332 794 L262 737 L211 737 L297 840 L382 840 L432 737 Z M387 938 Q424 938 448 913.5 Q472 889 472 853 Q472 843 471 837 L428 837 L429 846 Q429 867 415.5 881 Q402 895 380 895 L349 931 Q367 938 387 938 Z " />
<glyph glyph-name="uni1ED7" unicode="&#x1ed7;" horiz-adv-x="384" d="M190 -9 Q258 -9 308 30 Q363 74 378 156 L446 544 Q450 572 450 584 Q450 636 421 670 Q385 709 317 709 Q250 709 199 670 Q143 624 130 544 L62 156 Q58 136 58 114 Q58 61 86 30 Q123 -9 190 -9 Z M302 624 Q334 624 349 611 Q364 598 364 570 Q364 559 361 544 L293 156 Q285 115 264 95.5 Q243 76 205 76 Q174 76 159 89 Q144 102 144 129 Q144 141 147 156 L215 544 Q223 586 243.5 605 Q264 624 302 624 Z M245 865 Q273 893 292 896 Q310 899 335 883 Q361 865 388 865 Q431 865 477 913 L448 939 Q422 913 402 909 Q383 906 363 920 Q332 940 306 940 Q264 940 216 892 L245 865 Z M432 737 L382 737 L332 794 L262 737 L211 737 L297 840 L382 840 L432 737 Z " />
<glyph glyph-name="odieresis" unicode="&#xf6;" horiz-adv-x="384" d="M190 -9 Q258 -9 308 30 Q363 74 378 156 L446 544 Q450 572 450 584 Q450 636 421 670 Q385 709 317 709 Q250 709 199 670 Q143 624 130 544 L62 156 Q58 136 58 114 Q58 61 86 30 Q123 -9 190 -9 Z M302 624 Q334 624 349 611 Q364 598 364 570 Q364 559 361 544 L293 156 Q285 115 264 95.5 Q243 76 205 76 Q174 76 159 89 Q144 102 144 129 Q144 141 147 156 L215 544 Q223 586 243.5 605 Q264 624 302 624 Z M303 782 Q306 801 295.5 814 Q285 827 266 827 Q247 827 231.5 814 Q216 801 213 782 Q212 779 212 773 Q212 758 223 747.5 Q234 737 250 737 Q269 737 284 750 Q299 763 303 782 Z M447 782 Q450 801 439.5 814 Q429 827 410 827 Q391 827 375.5 814 Q360 801 357 782 Q356 779 356 773 Q356 758 367 747.5 Q378 737 394 737 Q413 737 428 750 Q443 763 447 782 Z " />
<glyph glyph-name="uni022B" unicode="&#x22b;" horiz-adv-x="384" d="M190 -9 Q258 -9 308 30 Q363 74 378 156 L446 544 Q450 572 450 584 Q450 636 421 670 Q385 709 317 709 Q250 709 199 670 Q143 624 130 544 L62 156 Q58 136 58 114 Q58 61 86 30 Q123 -9 190 -9 Z M302 624 Q334 624 349 611 Q364 598 364 570 Q364 559 361 544 L293 156 Q285 115 264 95.5 Q243 76 205 76 Q174 76 159 89 Q144 102 144 129 Q144 141 147 156 L215 544 Q223 586 243.5 605 Q264 624 302 624 Z M303 782 Q306 801 295.5 814 Q285 827 266 827 Q247 827 231.5 814 Q216 801 213 782 Q212 779 212 773 Q212 758 223 747.5 Q234 737 250 737 Q269 737 284 750 Q299 763 303 782 Z M447 782 Q450 801 439.5 814 Q429 827 410 827 Q391 827 375.5 814 Q360 801 357 782 Q356 779 356 773 Q356 758 367 747.5 Q378 737 394 737 Q413 737 428 750 Q443 763 447 782 Z M497 865 L504 910 L200 910 L193 865 L497 865 Z " />
<glyph glyph-name="uni1ECD" unicode="&#x1ecd;" horiz-adv-x="384" d="M190 -9 Q258 -9 308 30 Q363 74 378 156 L446 544 Q450 572 450 584 Q450 636 421 670 Q385 709 317 709 Q250 709 199 670 Q143 624 130 544 L62 156 Q58 136 58 114 Q58 61 86 30 Q123 -9 190 -9 Z M302 624 Q334 624 349 611 Q364 598 364 570 Q364 559 361 544 L293 156 Q285 115 264 95.5 Q243 76 205 76 Q174 76 159 89 Q144 102 144 129 Q144 141 147 156 L215 544 Q223 586 243.5 605 Q264 624 302 624 Z M185 -40 Q166 -40 150.5 -53 Q135 -66 132 -85 Q129 -104 139.5 -117 Q150 -130 169 -130 Q188 -130 203.5 -117 Q219 -104 222 -85 Q225 -66 214.5 -53 Q204 -40 185 -40 Z " />
<glyph glyph-name="ograve" unicode="&#xf2;" horiz-adv-x="384" d="M190 -9 Q258 -9 308 30 Q363 74 378 156 L446 544 Q450 572 450 584 Q450 636 421 670 Q385 709 317 709 Q250 709 199 670 Q143 624 130 544 L62 156 Q58 136 58 114 Q58 61 86 30 Q123 -9 190 -9 Z M302 624 Q334 624 349 611 Q364 598 364 570 Q364 559 361 544 L293 156 Q285 115 264 95.5 Q243 76 205 76 Q174 76 159 89 Q144 102 144 129 Q144 141 147 156 L215 544 Q223 586 243.5 605 Q264 624 302 624 Z M297 841 L212 841 L296 737 L347 737 L297 841 Z " />
<glyph glyph-name="uni1ECF" unicode="&#x1ecf;" horiz-adv-x="384" d="M190 -9 Q258 -9 308 30 Q363 74 378 156 L446 544 Q450 572 450 584 Q450 636 421 670 Q385 709 317 709 Q250 709 199 670 Q143 624 130 544 L62 156 Q58 136 58 114 Q58 61 86 30 Q123 -9 190 -9 Z M302 624 Q334 624 349 611 Q364 598 364 570 Q364 559 361 544 L293 156 Q285 115 264 95.5 Q243 76 205 76 Q174 76 159 89 Q144 102 144 129 Q144 141 147 156 L215 544 Q223 586 243.5 605 Q264 624 302 624 Z M260 838 Q297 838 321 814 Q345 790 345 755 Q345 749 343 737 L300 737 Q301 741 301 747 Q301 767 287 781 Q273 795 252 795 L222 831 Q239 838 260 838 Z " />
<glyph glyph-name="ohorn" unicode="&#x1a1;" horiz-adv-x="394" d="M543 729 Q538 703 515.5 684.5 Q493 666 467 666 L424 666 Q450 632 450 583 Q450 572 446 544 L378 156 Q363 74 308 30 Q258 -9 190 -9 Q123 -9 86 30 Q58 61 58 114 Q58 136 62 156 L130 544 Q143 624 199 670 Q250 709 317 709 L475 709 Q483 709 491 715 Q499 721 500 729 L543 729 Z M361 544 Q364 559 364 570 Q364 598 349 611 Q334 624 302 624 Q264 624 243.5 605 Q223 586 215 544 L147 156 Q144 141 144 129 Q144 102 159 89 Q174 76 205 76 Q243 76 264 95.5 Q285 115 293 156 L361 544 Z " />
<glyph glyph-name="uni1EDB" unicode="&#x1edb;" horiz-adv-x="394" d="M543 729 Q538 703 515.5 684.5 Q493 666 467 666 L424 666 Q450 632 450 583 Q450 572 446 544 L378 156 Q363 74 308 30 Q258 -9 190 -9 Q123 -9 86 30 Q58 61 58 114 Q58 136 62 156 L130 544 Q143 624 199 670 Q250 709 317 709 L475 709 Q483 709 491 715 Q499 721 500 729 L543 729 Z M361 544 Q364 559 364 570 Q364 598 349 611 Q334 624 302 624 Q264 624 243.5 605 Q223 586 215 544 L147 156 Q144 141 144 129 Q144 102 159 89 Q174 76 205 76 Q243 76 264 95.5 Q285 115 293 156 L361 544 Z M382 841 L296 737 L347 737 L467 841 L382 841 Z " />
<glyph glyph-name="uni1EE3" unicode="&#x1ee3;" horiz-adv-x="394" d="M543 729 Q538 703 515.5 684.5 Q493 666 467 666 L424 666 Q450 632 450 583 Q450 572 446 544 L378 156 Q363 74 308 30 Q258 -9 190 -9 Q123 -9 86 30 Q58 61 58 114 Q58 136 62 156 L130 544 Q143 624 199 670 Q250 709 317 709 L475 709 Q483 709 491 715 Q499 721 500 729 L543 729 Z M361 544 Q364 559 364 570 Q364 598 349 611 Q334 624 302 624 Q264 624 243.5 605 Q223 586 215 544 L147 156 Q144 141 144 129 Q144 102 159 89 Q174 76 205 76 Q243 76 264 95.5 Q285 115 293 156 L361 544 Z M185 -40 Q166 -40 150.5 -53 Q135 -66 132 -85 Q129 -104 139.5 -117 Q150 -130 169 -130 Q188 -130 203.5 -117 Q219 -104 222 -85 Q225 -66 214.5 -53 Q204 -40 185 -40 Z " />
<glyph glyph-name="uni1EDD" unicode="&#x1edd;" horiz-adv-x="394" d="M543 729 Q538 703 515.5 684.5 Q493 666 467 666 L424 666 Q450 632 450 583 Q450 572 446 544 L378 156 Q363 74 308 30 Q258 -9 190 -9 Q123 -9 86 30 Q58 61 58 114 Q58 136 62 156 L130 544 Q143 624 199 670 Q250 709 317 709 L475 709 Q483 709 491 715 Q499 721 500 729 L543 729 Z M361 544 Q364 559 364 570 Q364 598 349 611 Q334 624 302 624 Q264 624 243.5 605 Q223 586 215 544 L147 156 Q144 141 144 129 Q144 102 159 89 Q174 76 205 76 Q243 76 264 95.5 Q285 115 293 156 L361 544 Z M297 841 L212 841 L296 737 L347 737 L297 841 Z " />
<glyph glyph-name="uni1EDF" unicode="&#x1edf;" horiz-adv-x="394" d="M543 729 Q538 703 515.5 684.5 Q493 666 467 666 L424 666 Q450 632 450 583 Q450 572 446 544 L378 156 Q363 74 308 30 Q258 -9 190 -9 Q123 -9 86 30 Q58 61 58 114 Q58 136 62 156 L130 544 Q143 624 199 670 Q250 709 317 709 L475 709 Q483 709 491 715 Q499 721 500 729 L543 729 Z M361 544 Q364 559 364 570 Q364 598 349 611 Q334 624 302 624 Q264 624 243.5 605 Q223 586 215 544 L147 156 Q144 141 144 129 Q144 102 159 89 Q174 76 205 76 Q243 76 264 95.5 Q285 115 293 156 L361 544 Z M260 838 Q297 838 321 814 Q345 790 345 755 Q345 749 343 737 L300 737 Q301 741 301 747 Q301 767 287 781 Q273 795 252 795 L222 831 Q239 838 260 838 Z " />
<glyph glyph-name="uni1EE1" unicode="&#x1ee1;" horiz-adv-x="394" d="M543 729 Q538 703 515.5 684.5 Q493 666 467 666 L424 666 Q450 632 450 583 Q450 572 446 544 L378 156 Q363 74 308 30 Q258 -9 190 -9 Q123 -9 86 30 Q58 61 58 114 Q58 136 62 156 L130 544 Q143 624 199 670 Q250 709 317 709 L475 709 Q483 709 491 715 Q499 721 500 729 L543 729 Z M361 544 Q364 559 364 570 Q364 598 349 611 Q334 624 302 624 Q264 624 243.5 605 Q223 586 215 544 L147 156 Q144 141 144 129 Q144 102 159 89 Q174 76 205 76 Q243 76 264 95.5 Q285 115 293 156 L361 544 Z M227 735 Q255 763 274 766 Q292 769 317 753 Q342 735 370 735 Q413 735 459 783 L430 809 Q404 783 384 779 Q366 776 345 790 Q314 810 288 810 Q246 810 198 762 L227 735 Z " />
<glyph glyph-name="ohungarumlaut" unicode="&#x151;" horiz-adv-x="384" d="M190 -9 Q258 -9 308 30 Q363 74 378 156 L446 544 Q450 572 450 584 Q450 636 421 670 Q385 709 317 709 Q250 709 199 670 Q143 624 130 544 L62 156 Q58 136 58 114 Q58 61 86 30 Q123 -9 190 -9 Z M302 624 Q334 624 349 611 Q364 598 364 570 Q364 559 361 544 L293 156 Q285 115 264 95.5 Q243 76 205 76 Q174 76 159 89 Q144 102 144 129 Q144 141 147 156 L215 544 Q223 586 243.5 605 Q264 624 302 624 Z M314 842 L229 737 L279 737 L400 842 L314 842 Z M449 842 L364 737 L414 737 L535 842 L449 842 Z " />
<glyph glyph-name="omacron" unicode="&#x14d;" horiz-adv-x="384" d="M190 -9 Q258 -9 308 30 Q363 74 378 156 L446 544 Q450 572 450 584 Q450 636 421 670 Q385 709 317 709 Q250 709 199 670 Q143 624 130 544 L62 156 Q58 136 58 114 Q58 61 86 30 Q123 -9 190 -9 Z M302 624 Q334 624 349 611 Q364 598 364 570 Q364 559 361 544 L293 156 Q285 115 264 95.5 Q243 76 205 76 Q174 76 159 89 Q144 102 144 129 Q144 141 147 156 L215 544 Q223 586 243.5 605 Q264 624 302 624 Z M474 737 L482 782 L178 782 L170 737 L474 737 Z " />
<glyph glyph-name="uni1E53" unicode="&#x1e53;" horiz-adv-x="384" d="M190 -9 Q258 -9 308 30 Q363 74 378 156 L446 544 Q450 572 450 584 Q450 636 421 670 Q385 709 317 709 Q250 709 199 670 Q143 624 130 544 L62 156 Q58 136 58 114 Q58 61 86 30 Q123 -9 190 -9 Z M302 624 Q334 624 349 611 Q364 598 364 570 Q364 559 361 544 L293 156 Q285 115 264 95.5 Q243 76 205 76 Q174 76 159 89 Q144 102 144 129 Q144 141 147 156 L215 544 Q223 586 243.5 605 Q264 624 302 624 Z M312 924 L227 924 L311 820 L362 820 L312 924 Z M474 737 L482 782 L178 782 L170 737 L474 737 Z " />
<glyph glyph-name="uni1E51" unicode="&#x1e51;" horiz-adv-x="384" d="M190 -9 Q258 -9 308 30 Q363 74 378 156 L446 544 Q450 572 450 584 Q450 636 421 670 Q385 709 317 709 Q250 709 199 670 Q143 624 130 544 L62 156 Q58 136 58 114 Q58 61 86 30 Q123 -9 190 -9 Z M302 624 Q334 624 349 611 Q364 598 364 570 Q364 559 361 544 L293 156 Q285 115 264 95.5 Q243 76 205 76 Q174 76 159 89 Q144 102 144 129 Q144 141 147 156 L215 544 Q223 586 243.5 605 Q264 624 302 624 Z M398 924 L312 820 L363 820 L483 924 L398 924 Z M474 737 L482 782 L178 782 L170 737 L474 737 Z " />
<glyph glyph-name="uni0254" unicode="&#x254;" horiz-adv-x="381" d="M187 -9 Q256 -9 304 30 Q360 74 375 156 L443 545 Q447 564 447 585 Q447 638 417 671 Q383 710 314 710 Q247 710 196 671 Q141 626 126 545 L115 481 L200 481 L211 545 Q219 586 240 605.5 Q261 625 299 625 Q361 625 361 571 Q361 559 358 545 L290 156 Q283 115 261.5 95.5 Q240 76 202 76 Q170 76 155 89 Q140 102 140 130 Q140 141 143 156 L159 250 L74 250 L58 156 Q54 136 54 114 Q54 60 83 30 Q120 -9 187 -9 Z " />
<glyph glyph-name="oslash" unicode="&#xf8;" horiz-adv-x="385" d="M445 621 Q451 603 451 581 Q451 569 447 543 L378 155 Q365 74 308 30 Q262 -9 191 -9 Q121 -9 87 30 Q86 31 84 34 L51 -19 L14 -1 L63 77 Q57 95 57 117 Q57 129 61 155 L130 543 Q143 624 200 668 Q247 707 318 707 Q386 707 421 668 Q422 667 424 664 L457 717 L494 699 L445 621 Z M161 237 L364 566 Q365 595 350 608.5 Q335 622 303 622 Q265 622 243.5 603 Q222 584 215 543 L161 237 Z M347 461 L144 132 Q143 103 158.5 89.5 Q174 76 206 76 Q244 76 265 95 Q286 114 293 155 L347 461 Z " />
<glyph glyph-name="oslashacute" unicode="&#x1ff;" horiz-adv-x="385" d="M445 621 Q451 603 451 581 Q451 569 447 543 L378 155 Q365 74 308 30 Q262 -9 191 -9 Q121 -9 87 30 Q86 31 84 34 L51 -19 L14 -1 L63 77 Q57 95 57 117 Q57 129 61 155 L130 543 Q143 624 200 668 Q247 707 318 707 Q386 707 421 668 Q422 667 424 664 L457 717 L494 699 L445 621 Z M161 237 L364 566 Q365 595 350 608.5 Q335 622 303 622 Q265 622 243.5 603 Q222 584 215 543 L161 237 Z M347 461 L144 132 Q143 103 158.5 89.5 Q174 76 206 76 Q244 76 265 95 Q286 114 293 155 L347 461 Z " />
<glyph glyph-name="otilde" unicode="&#xf5;" horiz-adv-x="384" d="M190 -9 Q258 -9 308 30 Q363 74 378 156 L446 544 Q450 572 450 584 Q450 636 421 670 Q385 709 317 709 Q250 709 199 670 Q143 624 130 544 L62 156 Q58 136 58 114 Q58 61 86 30 Q123 -9 190 -9 Z M302 624 Q334 624 349 611 Q364 598 364 570 Q364 559 361 544 L293 156 Q285 115 264 95.5 Q243 76 205 76 Q174 76 159 89 Q144 102 144 129 Q144 141 147 156 L215 544 Q223 586 243.5 605 Q264 624 302 624 Z M227 735 Q255 763 274 766 Q292 769 317 753 Q342 735 370 735 Q413 735 459 783 L430 809 Q404 783 384 779 Q366 776 345 790 Q314 810 288 810 Q246 810 198 762 L227 735 Z " />
<glyph glyph-name="uni1E4D" unicode="&#x1e4d;" horiz-adv-x="384" d="M190 -9 Q258 -9 308 30 Q363 74 378 156 L446 544 Q450 572 450 584 Q450 636 421 670 Q385 709 317 709 Q250 709 199 670 Q143 624 130 544 L62 156 Q58 136 58 114 Q58 61 86 30 Q123 -9 190 -9 Z M302 624 Q334 624 349 611 Q364 598 364 570 Q364 559 361 544 L293 156 Q285 115 264 95.5 Q243 76 205 76 Q174 76 159 89 Q144 102 144 129 Q144 141 147 156 L215 544 Q223 586 243.5 605 Q264 624 302 624 Z M227 735 Q255 763 274 766 Q292 769 317 753 Q342 735 370 735 Q413 735 459 783 L430 809 Q404 783 384 779 Q366 776 345 790 Q314 810 288 810 Q246 810 198 762 L227 735 Z M403 952 L317 848 L368 848 L488 952 L403 952 Z " />
<glyph glyph-name="oe" unicode="&#x153;" horiz-adv-x="528" d="M414 615 L377 402 L510 402 L495 317 L362 317 L321 85 L512 85 L497 0 L192 0 Q124 0 88 39 Q59 73 59 125 Q59 137 63 165 L128 535 Q143 618 198 661 Q248 700 315 700 L620 700 L605 615 L414 615 Z M148 165 Q145 150 145 139 Q145 111 160 98 Q175 85 207 85 L236 85 L329 615 L300 615 Q262 615 241.5 596 Q221 577 213 535 L148 165 Z " />
<glyph glyph-name="p" unicode="p" horiz-adv-x="379" d="M176 292 L249 292 Q319 292 367 331 Q423 376 436 456 L450 535 Q454 555 454 576 Q454 628 426 661 Q389 700 321 700 L163 700 L40 0 L125 0 L176 292 Z M233 615 L306 615 Q368 615 368 561 Q368 549 365 535 L351 456 Q344 415 323 396 Q302 377 264 377 L191 377 L233 615 Z " />
<glyph glyph-name="uni01A5" unicode="&#x1a5;" horiz-adv-x="424" d="M471 661 Q499 628 499 576 Q499 555 495 535 L481 456 Q468 376 412 331 Q364 292 294 292 L221 292 L170 0 L85 0 L201 657 L159 657 Q151 657 143.5 651 Q136 645 135 637 L92 637 Q96 663 118 681.5 Q140 700 166 700 L366 700 Q434 700 471 661 Z M410 535 Q413 549 413 561 Q413 615 351 615 L278 615 L236 377 L309 377 Q347 377 368 396 Q389 415 396 456 L410 535 Z " />
<glyph glyph-name="thorn" unicode="&#xfe;" horiz-adv-x="379" d="M223 557 L296 557 Q358 557 358 503 Q358 491 355 477 L341 398 Q334 357 313 338 Q292 319 254 319 L181 319 L223 557 Z M166 234 L239 234 Q309 234 357 273 Q413 318 426 398 L440 477 Q444 496 444 518 Q444 571 415 603 Q379 642 311 642 L238 642 L248 700 L163 700 L40 0 L125 0 L166 234 Z " />
<glyph glyph-name="q" unicode="q" horiz-adv-x="384" d="M365 -47 L350 -132 L337 -132 Q270 -132 235 -94 Q215 -71 211 -42 Q208 -26 208 -7 Q203 -8 192 -8 Q124 -8 87 31 Q58 65 58 116 Q58 138 62 157 L130 544 Q144 626 200 670 Q251 709 318 709 Q386 709 422 670 Q451 638 451 584 Q451 572 447 544 L379 157 Q364 76 309 31 L295 21 Q293 9 293 3 Q293 -19 304 -32 Q319 -47 352 -47 L365 -47 Z M147 157 Q144 144 144 131 Q144 77 207 77 Q244 77 265 96.5 Q286 116 294 157 L362 544 Q365 558 365 570 Q365 624 303 624 Q265 624 244 604.5 Q223 585 215 544 L147 157 Z " />
<glyph glyph-name="r" unicode="r" horiz-adv-x="384" d="M356 0 L267 0 L223 292 L176 292 L125 0 L40 0 L163 700 L321 700 Q389 700 426 661 Q454 628 454 576 Q454 555 450 535 L436 456 Q423 376 367 331 Q343 312 311 301 L356 0 Z M264 377 Q302 377 323 396 Q344 415 351 456 L365 535 Q368 550 368 561 Q368 589 353 602 Q338 615 306 615 L233 615 L191 377 L264 377 Z " />
<glyph glyph-name="racute" unicode="&#x155;" horiz-adv-x="385" d="M357 0 L269 0 L240 292 L176 292 L125 0 L40 0 L163 700 L321 700 Q355 700 382 690 Q409 680 426 661 Q455 629 455 576 Q455 554 451 535 L437 456 Q424 375 367 331 Q351 317 327 307 L357 0 Z M366 535 Q369 549 369 561 Q369 615 306 615 L233 615 L191 377 L264 377 Q302 377 323.5 396 Q345 415 352 456 L366 535 Z M390 841 L304 737 L355 737 L475 841 L390 841 Z " />
<glyph glyph-name="rcaron" unicode="&#x159;" horiz-adv-x="385" d="M357 0 L269 0 L240 292 L176 292 L125 0 L40 0 L163 700 L321 700 Q355 700 382 690 Q409 680 426 661 Q455 629 455 576 Q455 554 451 535 L437 456 Q424 375 367 331 Q351 317 327 307 L357 0 Z M366 535 Q369 549 369 561 Q369 615 306 615 L233 615 L191 377 L264 377 Q302 377 323.5 396 Q345 415 352 456 L366 535 Z M438 737 L388 737 L338 794 L268 737 L217 737 L303 840 L388 840 L438 737 Z " />
<glyph glyph-name="rcommaaccent" unicode="&#x157;" horiz-adv-x="385" d="M357 0 L269 0 L240 292 L176 292 L125 0 L40 0 L163 700 L321 700 Q355 700 382 690 Q409 680 426 661 Q455 629 455 576 Q455 554 451 535 L437 456 Q424 375 367 331 Q351 317 327 307 L357 0 Z M366 535 Q369 549 369 561 Q369 615 306 615 L233 615 L191 377 L264 377 Q302 377 323.5 396 Q345 415 352 456 L366 535 Z M229 -85 Q227 -99 209 -127 Q197 -144 170 -175 L137 -175 Q141 -169 144.5 -162.5 Q148 -156 152 -150 Q157 -138 157 -134 Q157 -128 152 -123 Q138 -111 138 -94 Q138 -88 139 -85 Q142 -66 157.5 -53 Q173 -40 192 -40 Q211 -40 221.5 -53 Q232 -66 229 -85 Z " />
<glyph glyph-name="uni024D" unicode="&#x24d;" horiz-adv-x="390" d="M442 456 Q429 375 372 331 Q356 317 332 307 L362 0 L274 0 L245 292 L181 292 L130 0 L45 0 L96 292 L56 292 L71 377 L111 377 L168 700 L326 700 Q360 700 387 690 Q414 680 431 661 Q460 629 460 576 Q460 554 456 535 L442 456 Z M371 535 Q374 549 374 561 Q374 615 311 615 L238 615 L196 377 L269 377 Q307 377 328.5 396 Q350 415 357 456 L371 535 Z " />
<glyph glyph-name="s" unicode="s" horiz-adv-x="371" d="M183 -9 Q217 -9 247.5 1 Q278 11 301 30 Q357 74 372 156 L380 202 Q384 230 384 243 Q384 296 355 336 Q342 356 322.5 371 Q303 386 276 402 Q250 419 237.5 428.5 Q225 438 216 450 Q202 470 202 497 Q202 510 205 525 L208 544 Q216 585 237 604.5 Q258 624 295 624 Q358 624 358 570 Q358 558 355 544 L344 480 L429 480 L440 544 Q444 572 444 584 Q444 637 414 670 Q397 689 370.5 699 Q344 709 310 709 Q243 709 193 670 Q136 624 123 544 L120 525 Q116 504 116 481 Q116 431 143 393 Q157 374 175 360 Q193 346 222 328 Q247 313 260 303 Q273 293 282 280 Q297 259 297 228 Q297 212 295 202 L287 156 Q280 115 258 95.5 Q236 76 198 76 Q137 76 137 130 Q137 141 140 156 L156 251 L71 251 L55 156 Q51 136 51 114 Q51 60 80 30 Q116 -9 183 -9 Z " />
<glyph glyph-name="sacute" unicode="&#x15b;" horiz-adv-x="371" d="M183 -9 Q217 -9 247.5 1 Q278 11 301 30 Q357 74 372 156 L380 202 Q384 230 384 243 Q384 296 355 336 Q342 356 322.5 371 Q303 386 276 402 Q250 419 237.5 428.5 Q225 438 216 450 Q202 470 202 497 Q202 510 205 525 L208 544 Q216 585 237 604.5 Q258 624 295 624 Q358 624 358 570 Q358 558 355 544 L344 480 L429 480 L440 544 Q444 572 444 584 Q444 637 414 670 Q397 689 370.5 699 Q344 709 310 709 Q243 709 193 670 Q136 624 123 544 L120 525 Q116 504 116 481 Q116 431 143 393 Q157 374 175 360 Q193 346 222 328 Q247 313 260 303 Q273 293 282 280 Q297 259 297 228 Q297 212 295 202 L287 156 Q280 115 258 95.5 Q236 76 198 76 Q137 76 137 130 Q137 141 140 156 L156 251 L71 251 L55 156 Q51 136 51 114 Q51 60 80 30 Q116 -9 183 -9 Z M376 841 L290 737 L341 737 L461 841 L376 841 Z " />
<glyph glyph-name="scaron" unicode="&#x161;" horiz-adv-x="371" d="M183 -9 Q217 -9 247.5 1 Q278 11 301 30 Q357 74 372 156 L380 202 Q384 230 384 243 Q384 296 355 336 Q342 356 322.5 371 Q303 386 276 402 Q250 419 237.5 428.5 Q225 438 216 450 Q202 470 202 497 Q202 510 205 525 L208 544 Q216 585 237 604.5 Q258 624 295 624 Q358 624 358 570 Q358 558 355 544 L344 480 L429 480 L440 544 Q444 572 444 584 Q444 637 414 670 Q397 689 370.5 699 Q344 709 310 709 Q243 709 193 670 Q136 624 123 544 L120 525 Q116 504 116 481 Q116 431 143 393 Q157 374 175 360 Q193 346 222 328 Q247 313 260 303 Q273 293 282 280 Q297 259 297 228 Q297 212 295 202 L287 156 Q280 115 258 95.5 Q236 76 198 76 Q137 76 137 130 Q137 141 140 156 L156 251 L71 251 L55 156 Q51 136 51 114 Q51 60 80 30 Q116 -9 183 -9 Z M444 840 L358 737 L273 737 L223 840 L274 840 L324 783 L394 840 L444 840 Z " />
<glyph glyph-name="scedilla" unicode="&#x15f;" horiz-adv-x="371" d="M344 480 L355 544 Q358 558 358 570 Q358 624 295 624 Q258 624 237 604.5 Q216 585 208 544 L205 525 Q202 510 202 497 Q202 470 216 450 Q225 438 237.5 428.5 Q250 419 276 402 Q303 386 322.5 371 Q342 356 355 336 Q384 296 384 243 Q384 230 380 202 L372 156 Q357 74 301 30 Q263 -2 207 -8 Q207 -10 211 -13 Q212 -13 212.5 -13.5 Q213 -14 212 -15 Q223 -24 229.5 -33.5 Q236 -43 236 -58 Q236 -66 235 -71 Q230 -97 208.5 -116 Q187 -135 161 -135 Q138 -135 122.5 -120 Q107 -105 107 -82 Q107 -75 108 -71 L151 -71 L151 -73 Q151 -81 156 -86.5 Q161 -92 169 -92 Q177 -92 184 -85.5 Q191 -79 192 -71 L193 -66 Q193 -58 181 -49 Q181 -49 179 -47 Q160 -31 163 -8 Q110 -2 80 30 Q51 60 51 114 Q51 136 55 156 L71 251 L156 251 L140 156 Q137 141 137 130 Q137 76 198 76 Q236 76 258 95.5 Q280 115 287 156 L295 202 Q297 212 297 228 Q297 259 282 280 Q273 293 260 303 Q247 313 222 328 Q193 346 175 360 Q157 374 143 393 Q116 431 116 481 Q116 504 120 525 L123 544 Q136 624 193 670 Q243 709 310 709 Q344 709 370.5 699 Q397 689 414 670 Q444 637 444 584 Q444 572 440 544 L429 480 L344 480 Z " />
<glyph glyph-name="scommaaccent" unicode="&#x219;" horiz-adv-x="371" d="M183 -9 Q217 -9 247.5 1 Q278 11 301 30 Q357 74 372 156 L380 202 Q384 230 384 243 Q384 296 355 336 Q342 356 322.5 371 Q303 386 276 402 Q250 419 237.5 428.5 Q225 438 216 450 Q202 470 202 497 Q202 510 205 525 L208 544 Q216 585 237 604.5 Q258 624 295 624 Q358 624 358 570 Q358 558 355 544 L344 480 L429 480 L440 544 Q444 572 444 584 Q444 637 414 670 Q397 689 370.5 699 Q344 709 310 709 Q243 709 193 670 Q136 624 123 544 L120 525 Q116 504 116 481 Q116 431 143 393 Q157 374 175 360 Q193 346 222 328 Q247 313 260 303 Q273 293 282 280 Q297 259 297 228 Q297 212 295 202 L287 156 Q280 115 258 95.5 Q236 76 198 76 Q137 76 137 130 Q137 141 140 156 L156 251 L71 251 L55 156 Q51 136 51 114 Q51 60 80 30 Q116 -9 183 -9 Z M216 -85 Q214 -99 196 -127 Q184 -144 157 -175 L124 -175 Q128 -169 131.5 -162.5 Q135 -156 139 -150 Q144 -138 144 -134 Q144 -128 139 -123 Q125 -111 125 -94 Q125 -88 126 -85 Q129 -66 144.5 -53 Q160 -40 179 -40 Q198 -40 208.5 -53 Q219 -66 216 -85 Z " />
<glyph glyph-name="uni1E63" unicode="&#x1e63;" horiz-adv-x="371" d="M183 -9 Q217 -9 247.5 1 Q278 11 301 30 Q357 74 372 156 L380 202 Q384 230 384 243 Q384 296 355 336 Q342 356 322.5 371 Q303 386 276 402 Q250 419 237.5 428.5 Q225 438 216 450 Q202 470 202 497 Q202 510 205 525 L208 544 Q216 585 237 604.5 Q258 624 295 624 Q358 624 358 570 Q358 558 355 544 L344 480 L429 480 L440 544 Q444 572 444 584 Q444 637 414 670 Q397 689 370.5 699 Q344 709 310 709 Q243 709 193 670 Q136 624 123 544 L120 525 Q116 504 116 481 Q116 431 143 393 Q157 374 175 360 Q193 346 222 328 Q247 313 260 303 Q273 293 282 280 Q297 259 297 228 Q297 212 295 202 L287 156 Q280 115 258 95.5 Q236 76 198 76 Q137 76 137 130 Q137 141 140 156 L156 251 L71 251 L55 156 Q51 136 51 114 Q51 60 80 30 Q116 -9 183 -9 Z M178 -40 Q159 -40 143.5 -53 Q128 -66 125 -85 Q122 -104 132.5 -117 Q143 -130 162 -130 Q181 -130 196.5 -117 Q212 -104 215 -85 Q218 -66 207.5 -53 Q197 -40 178 -40 Z " />
<glyph glyph-name="germandbls" unicode="&#xdf;" horiz-adv-x="386" d="M358 357 Q401 324 401 265 Q401 253 397 227 L385 161 Q372 80 316 37 Q265 0 199 0 L165 0 L180 85 L214 85 Q250 85 271 100 Q293 119 300 161 L312 227 Q315 241 315 253 Q315 307 253 307 L219 307 L234 392 L252 392 Q290 392 310.5 411 Q331 430 339 471 L351 539 Q353 548 353 564 Q353 590 340 602 Q327 614 299 615 Q264 615 245.5 596.5 Q227 578 220 539 L140 85 L125 0 L40 0 L135 539 Q150 622 205 663 Q227 680 255 690 Q283 700 314 700 Q345 700 369.5 690 Q394 680 410 663 Q440 632 440 579 Q440 558 436 539 L424 471 Q411 397 358 357 Z " />
<glyph glyph-name="t" unicode="t" horiz-adv-x="345" d="M456 699 L441 614 L323 614 L215 0 L130 0 L238 614 L121 614 L136 699 L456 699 Z " />
<glyph glyph-name="tbar" unicode="&#x167;" horiz-adv-x="345" d="M441 614 L323 614 L298 470 L358 470 L350 426 L290 426 L215 0 L130 0 L205 426 L145 426 L153 470 L213 470 L238 614 L121 614 L136 699 L456 699 L441 614 Z " />
<glyph glyph-name="tcaron" unicode="&#x165;" horiz-adv-x="345" d="M456 699 L441 614 L323 614 L215 0 L130 0 L238 614 L121 614 L136 699 L456 699 Z M431 840 L345 737 L260 737 L210 840 L261 840 L311 783 L381 840 L431 840 Z " />
<glyph glyph-name="uni0163" unicode="&#x163;" horiz-adv-x="345" d="M195 1 L194 -7 Q194 -10 198 -13 Q199 -13 199.5 -13.5 Q200 -14 199 -15 Q210 -24 216.5 -33.5 Q223 -43 223 -58 Q223 -66 222 -71 Q217 -97 195.5 -116 Q174 -135 148 -135 Q125 -135 109.5 -120 Q94 -105 94 -82 Q94 -75 95 -71 L138 -71 L138 -73 Q138 -81 143 -86.5 Q148 -92 156 -92 Q164 -92 171 -85.5 Q178 -79 179 -71 L180 -66 Q180 -58 168 -49 Q168 -49 166 -47 Q147 -31 150 -7 L151 1 L130 1 L238 615 L121 615 L136 700 L456 700 L441 615 L323 615 L215 1 L195 1 Z " />
<glyph glyph-name="uni1E71" unicode="&#x1e71;" horiz-adv-x="345" d="M456 699 L441 614 L323 614 L215 0 L130 0 L238 614 L121 614 L136 699 L456 699 Z M258 -143 L208 -143 L158 -86 L88 -143 L37 -143 L123 -40 L208 -40 L258 -143 Z " />
<glyph glyph-name="uni021B" unicode="&#x21b;" horiz-adv-x="345" d="M456 699 L441 614 L323 614 L215 0 L130 0 L238 614 L121 614 L136 699 L456 699 Z M202 -85 Q200 -99 182 -127 Q170 -144 143 -175 L110 -175 Q114 -169 117.5 -162.5 Q121 -156 125 -150 Q130 -138 130 -134 Q130 -128 125 -123 Q111 -111 111 -94 Q111 -88 112 -85 Q115 -66 130.5 -53 Q146 -40 165 -40 Q184 -40 194.5 -53 Q205 -66 202 -85 Z " />
<glyph glyph-name="uni1E6D" unicode="&#x1e6d;" horiz-adv-x="345" d="M456 699 L441 614 L323 614 L215 0 L130 0 L238 614 L121 614 L136 699 L456 699 Z M165 -40 Q146 -40 130.5 -53 Q115 -66 112 -85 Q109 -104 119.5 -117 Q130 -130 149 -130 Q168 -130 183.5 -117 Q199 -104 202 -85 Q205 -66 194.5 -53 Q184 -40 165 -40 Z " />
<glyph glyph-name="uni01AD" unicode="&#x1ad;" horiz-adv-x="400" d="M511 699 L496 614 L378 614 L270 0 L185 0 L293 614 L176 614 Q168 614 161.5 608 Q155 602 153 594 L110 594 Q120 652 155 675.5 Q190 699 233 699 L511 699 Z " />
<glyph glyph-name="uni1E6F" unicode="&#x1e6f;" horiz-adv-x="346" d="M456 699 L441 614 L323 614 L215 0 L130 0 L238 614 L121 614 L136 699 L456 699 Z M310 -85 L318 -40 L15 -40 L7 -85 L310 -85 Z " />
<glyph glyph-name="uni0288" unicode="&#x288;" horiz-adv-x="345" d="M323 614 L208 -42 L208 -46 Q208 -53 212.5 -57.5 Q217 -62 224 -62 L216 -105 Q128 -105 128 -26 Q128 -16 130 0 L238 614 L121 614 L136 699 L456 699 L441 614 L323 614 Z " />
<glyph glyph-name="u" unicode="u" horiz-adv-x="393" d="M195 -9 Q228 -9 258.5 1 Q289 11 312 30 Q368 74 383 156 L478 700 L393 700 L298 156 Q291 115 269.5 95.5 Q248 76 210 76 Q178 76 163 89 Q148 102 148 130 Q148 141 151 156 L246 700 L161 700 L66 156 Q62 136 62 114 Q62 60 91 30 Q127 -9 195 -9 Z " />
<glyph glyph-name="uacute" unicode="&#xfa;" horiz-adv-x="393" d="M195 -9 Q228 -9 258.5 1 Q289 11 312 30 Q368 74 383 156 L478 700 L393 700 L298 156 Q291 115 269.5 95.5 Q248 76 210 76 Q178 76 163 89 Q148 102 148 130 Q148 141 151 156 L246 700 L161 700 L66 156 Q62 136 62 114 Q62 60 91 30 Q127 -9 195 -9 Z M387 841 L301 737 L352 737 L472 841 L387 841 Z " />
<glyph glyph-name="uni0289" unicode="&#x289;" horiz-adv-x="403" d="M460 338 L420 338 L388 156 Q373 74 317 30 Q294 11 263.5 1 Q233 -9 200 -9 Q132 -9 96 30 Q67 60 67 114 Q67 136 71 156 L103 338 L63 338 L70 382 L110 382 L166 700 L251 700 L195 382 L342 382 L398 700 L483 700 L427 382 L467 382 L460 338 Z M335 338 L188 338 L156 156 Q153 141 153 130 Q153 102 168 89 Q183 76 215 76 Q253 76 274.5 95.5 Q296 115 303 156 L335 338 Z " />
<glyph glyph-name="uni01D4" unicode="&#x1d4;" horiz-adv-x="393" d="M195 -9 Q228 -9 258.5 1 Q289 11 312 30 Q368 74 383 156 L478 700 L393 700 L298 156 Q291 115 269.5 95.5 Q248 76 210 76 Q178 76 163 89 Q148 102 148 130 Q148 141 151 156 L246 700 L161 700 L66 156 Q62 136 62 114 Q62 60 91 30 Q127 -9 195 -9 Z M455 840 L369 737 L284 737 L234 840 L285 840 L335 783 L405 840 L455 840 Z " />
<glyph glyph-name="ucircumflex" unicode="&#xfb;" horiz-adv-x="393" d="M195 -9 Q228 -9 258.5 1 Q289 11 312 30 Q368 74 383 156 L478 700 L393 700 L298 156 Q291 115 269.5 95.5 Q248 76 210 76 Q178 76 163 89 Q148 102 148 130 Q148 141 151 156 L246 700 L161 700 L66 156 Q62 136 62 114 Q62 60 91 30 Q127 -9 195 -9 Z M437 737 L387 737 L337 794 L267 737 L216 737 L302 840 L387 840 L437 737 Z " />
<glyph glyph-name="udieresis" unicode="&#xfc;" horiz-adv-x="393" d="M195 -9 Q228 -9 258.5 1 Q289 11 312 30 Q368 74 383 156 L478 700 L393 700 L298 156 Q291 115 269.5 95.5 Q248 76 210 76 Q178 76 163 89 Q148 102 148 130 Q148 141 151 156 L246 700 L161 700 L66 156 Q62 136 62 114 Q62 60 91 30 Q127 -9 195 -9 Z M307 782 Q310 801 299.5 814 Q289 827 270 827 Q251 827 235.5 814 Q220 801 217 782 Q216 779 216 773 Q216 758 227 747.5 Q238 737 254 737 Q273 737 288 750 Q303 763 307 782 Z M451 782 Q454 801 443.5 814 Q433 827 414 827 Q395 827 379.5 814 Q364 801 361 782 Q360 779 360 773 Q360 758 371 747.5 Q382 737 398 737 Q417 737 432 750 Q447 763 451 782 Z " />
<glyph glyph-name="uni01D8" unicode="&#x1d8;" horiz-adv-x="393" d="M195 -9 Q228 -9 258.5 1 Q289 11 312 30 Q368 74 383 156 L478 700 L393 700 L298 156 Q291 115 269.5 95.5 Q248 76 210 76 Q178 76 163 89 Q148 102 148 130 Q148 141 151 156 L246 700 L161 700 L66 156 Q62 136 62 114 Q62 60 91 30 Q127 -9 195 -9 Z M307 782 Q310 801 299.5 814 Q289 827 270 827 Q251 827 235.5 814 Q220 801 217 782 Q216 779 216 773 Q216 758 227 747.5 Q238 737 254 737 Q273 737 288 750 Q303 763 307 782 Z M451 782 Q454 801 443.5 814 Q433 827 414 827 Q395 827 379.5 814 Q364 801 361 782 Q360 779 360 773 Q360 758 371 747.5 Q382 737 398 737 Q417 737 432 750 Q447 763 451 782 Z M410 969 L324 865 L375 865 L495 969 L410 969 Z " />
<glyph glyph-name="uni01DA" unicode="&#x1da;" horiz-adv-x="393" d="M195 -9 Q228 -9 258.5 1 Q289 11 312 30 Q368 74 383 156 L478 700 L393 700 L298 156 Q291 115 269.5 95.5 Q248 76 210 76 Q178 76 163 89 Q148 102 148 130 Q148 141 151 156 L246 700 L161 700 L66 156 Q62 136 62 114 Q62 60 91 30 Q127 -9 195 -9 Z M307 782 Q310 801 299.5 814 Q289 827 270 827 Q251 827 235.5 814 Q220 801 217 782 Q216 779 216 773 Q216 758 227 747.5 Q238 737 254 737 Q273 737 288 750 Q303 763 307 782 Z M451 782 Q454 801 443.5 814 Q433 827 414 827 Q395 827 379.5 814 Q364 801 361 782 Q360 779 360 773 Q360 758 371 747.5 Q382 737 398 737 Q417 737 432 750 Q447 763 451 782 Z M478 968 L392 865 L307 865 L257 968 L308 968 L358 911 L428 968 L478 968 Z " />
<glyph glyph-name="uni01DC" unicode="&#x1dc;" horiz-adv-x="393" d="M194 -9 Q228 -9 258.5 1 Q289 11 312 30 Q368 74 383 156 L478 700 L393 700 L298 156 Q291 115 269 95.5 Q247 76 209 76 Q148 76 148 130 Q148 141 151 156 L246 700 L161 700 L66 156 Q62 136 62 114 Q62 60 91 30 Q127 -9 194 -9 Z M361 773 Q361 758 372 747.5 Q383 737 399 737 Q420 737 436.5 753 Q453 769 453 790 Q453 806 442 816.5 Q431 827 415 827 Q394 827 377.5 811 Q361 795 361 773 Z M217 773 Q217 758 228 747.5 Q239 737 255 737 Q276 737 292.5 753 Q309 769 309 790 Q309 806 298 816.5 Q287 827 271 827 Q250 827 233.5 811 Q217 795 217 773 Z M325 969 L240 969 L324 865 L375 865 L325 969 Z " />
<glyph glyph-name="uni01D6" unicode="&#x1d6;" horiz-adv-x="393" d="M194 -9 Q228 -9 258.5 1 Q289 11 312 30 Q368 74 383 156 L478 700 L393 700 L298 156 Q291 115 269 95.5 Q247 76 209 76 Q148 76 148 130 Q148 141 151 156 L246 700 L161 700 L66 156 Q62 136 62 114 Q62 60 91 30 Q127 -9 194 -9 Z M361 773 Q361 758 372 747.5 Q383 737 399 737 Q420 737 436.5 753 Q453 769 453 790 Q453 806 442 816.5 Q431 827 415 827 Q394 827 377.5 811 Q361 795 361 773 Z M217 773 Q217 758 228 747.5 Q239 737 255 737 Q276 737 292.5 753 Q309 769 309 790 Q309 806 298 816.5 Q287 827 271 827 Q250 827 233.5 811 Q217 795 217 773 Z M502 865 L509 910 L205 910 L198 865 L502 865 Z " />
<glyph glyph-name="uni1EE5" unicode="&#x1ee5;" horiz-adv-x="393" d="M195 -9 Q228 -9 258.5 1 Q289 11 312 30 Q368 74 383 156 L478 700 L393 700 L298 156 Q291 115 269.5 95.5 Q248 76 210 76 Q178 76 163 89 Q148 102 148 130 Q148 141 151 156 L246 700 L161 700 L66 156 Q62 136 62 114 Q62 60 91 30 Q127 -9 195 -9 Z M190 -40 Q171 -40 155.5 -53 Q140 -66 137 -85 Q134 -104 144.5 -117 Q155 -130 174 -130 Q193 -130 208.5 -117 Q224 -104 227 -85 Q230 -66 219.5 -53 Q209 -40 190 -40 Z " />
<glyph glyph-name="ugrave" unicode="&#xf9;" horiz-adv-x="393" d="M195 -9 Q228 -9 258.5 1 Q289 11 312 30 Q368 74 383 156 L478 700 L393 700 L298 156 Q291 115 269.5 95.5 Q248 76 210 76 Q178 76 163 89 Q148 102 148 130 Q148 141 151 156 L246 700 L161 700 L66 156 Q62 136 62 114 Q62 60 91 30 Q127 -9 195 -9 Z M302 841 L217 841 L301 737 L352 737 L302 841 Z " />
<glyph glyph-name="uni1EE7" unicode="&#x1ee7;" horiz-adv-x="393" d="M195 -9 Q228 -9 258.5 1 Q289 11 312 30 Q368 74 383 156 L478 700 L393 700 L298 156 Q291 115 269.5 95.5 Q248 76 210 76 Q178 76 163 89 Q148 102 148 130 Q148 141 151 156 L246 700 L161 700 L66 156 Q62 136 62 114 Q62 60 91 30 Q127 -9 195 -9 Z M265 838 Q302 838 326 814 Q350 790 350 755 Q350 749 348 737 L305 737 Q306 741 306 747 Q306 767 292 781 Q278 795 257 795 L227 831 Q244 838 265 838 Z " />
<glyph glyph-name="uhorn" unicode="&#x1b0;" horiz-adv-x="440" d="M587 720 Q583 694 561 675.5 Q539 657 513 657 L471 657 L383 156 Q368 74 312 30 Q289 11 258.5 1 Q228 -9 195 -9 Q127 -9 91 30 Q62 60 62 114 Q62 136 66 156 L161 700 L246 700 L151 156 Q148 141 148 130 Q148 102 163 89 Q178 76 210 76 Q248 76 269.5 95.5 Q291 115 298 156 L393 700 L520 700 Q528 700 535.5 706 Q543 712 544 720 L587 720 Z " />
<glyph glyph-name="uni1EE9" unicode="&#x1ee9;" horiz-adv-x="440" d="M587 720 Q583 694 561 675.5 Q539 657 513 657 L471 657 L383 156 Q368 74 312 30 Q289 11 258.5 1 Q228 -9 195 -9 Q127 -9 91 30 Q62 60 62 114 Q62 136 66 156 L161 700 L246 700 L151 156 Q148 141 148 130 Q148 102 163 89 Q178 76 210 76 Q248 76 269.5 95.5 Q291 115 298 156 L393 700 L520 700 Q528 700 535.5 706 Q543 712 544 720 L587 720 Z M387 841 L301 737 L352 737 L472 841 L387 841 Z " />
<glyph glyph-name="uni1EF1" unicode="&#x1ef1;" horiz-adv-x="440" d="M587 720 Q583 694 561 675.5 Q539 657 513 657 L471 657 L383 156 Q368 74 312 30 Q289 11 258.5 1 Q228 -9 195 -9 Q127 -9 91 30 Q62 60 62 114 Q62 136 66 156 L161 700 L246 700 L151 156 Q148 141 148 130 Q148 102 163 89 Q178 76 210 76 Q248 76 269.5 95.5 Q291 115 298 156 L393 700 L520 700 Q528 700 535.5 706 Q543 712 544 720 L587 720 Z M190 -40 Q171 -40 155.5 -53 Q140 -66 137 -85 Q134 -104 144.5 -117 Q155 -130 174 -130 Q193 -130 208.5 -117 Q224 -104 227 -85 Q230 -66 219.5 -53 Q209 -40 190 -40 Z " />
<glyph glyph-name="uni1EEB" unicode="&#x1eeb;" horiz-adv-x="440" d="M587 720 Q583 694 561 675.5 Q539 657 513 657 L471 657 L383 156 Q368 74 312 30 Q289 11 258.5 1 Q228 -9 195 -9 Q127 -9 91 30 Q62 60 62 114 Q62 136 66 156 L161 700 L246 700 L151 156 Q148 141 148 130 Q148 102 163 89 Q178 76 210 76 Q248 76 269.5 95.5 Q291 115 298 156 L393 700 L520 700 Q528 700 535.5 706 Q543 712 544 720 L587 720 Z M302 841 L217 841 L301 737 L352 737 L302 841 Z " />
<glyph glyph-name="uni1EED" unicode="&#x1eed;" horiz-adv-x="440" d="M587 720 Q583 694 561 675.5 Q539 657 513 657 L471 657 L383 156 Q368 74 312 30 Q289 11 258.5 1 Q228 -9 195 -9 Q127 -9 91 30 Q62 60 62 114 Q62 136 66 156 L161 700 L246 700 L151 156 Q148 141 148 130 Q148 102 163 89 Q178 76 210 76 Q248 76 269.5 95.5 Q291 115 298 156 L393 700 L520 700 Q528 700 535.5 706 Q543 712 544 720 L587 720 Z M265 838 Q302 838 326 814 Q350 790 350 755 Q350 749 348 737 L305 737 Q306 741 306 747 Q306 767 292 781 Q278 795 257 795 L227 831 Q244 838 265 838 Z " />
<glyph glyph-name="uni1EEF" unicode="&#x1eef;" horiz-adv-x="440" d="M587 720 Q583 694 561 675.5 Q539 657 513 657 L471 657 L383 156 Q368 74 312 30 Q289 11 258.5 1 Q228 -9 195 -9 Q127 -9 91 30 Q62 60 62 114 Q62 136 66 156 L161 700 L246 700 L151 156 Q148 141 148 130 Q148 102 163 89 Q178 76 210 76 Q248 76 269.5 95.5 Q291 115 298 156 L393 700 L520 700 Q528 700 535.5 706 Q543 712 544 720 L587 720 Z M232 735 Q260 763 279 766 Q297 769 322 753 Q347 735 375 735 Q418 735 464 783 L435 809 Q409 783 389 779 Q371 776 350 790 Q319 810 293 810 Q251 810 203 762 L232 735 Z " />
<glyph glyph-name="uhungarumlaut" unicode="&#x171;" horiz-adv-x="393" d="M195 -9 Q228 -9 258.5 1 Q289 11 312 30 Q368 74 383 156 L478 700 L393 700 L298 156 Q291 115 269.5 95.5 Q248 76 210 76 Q178 76 163 89 Q148 102 148 130 Q148 141 151 156 L246 700 L161 700 L66 156 Q62 136 62 114 Q62 60 91 30 Q127 -9 195 -9 Z M319 842 L234 737 L284 737 L405 842 L319 842 Z M454 842 L369 737 L419 737 L540 842 L454 842 Z " />
<glyph glyph-name="umacron" unicode="&#x16b;" horiz-adv-x="393" d="M195 -9 Q228 -9 258.5 1 Q289 11 312 30 Q368 74 383 156 L478 700 L393 700 L298 156 Q291 115 269.5 95.5 Q248 76 210 76 Q178 76 163 89 Q148 102 148 130 Q148 141 151 156 L246 700 L161 700 L66 156 Q62 136 62 114 Q62 60 91 30 Q127 -9 195 -9 Z M479 737 L487 782 L183 782 L175 737 L479 737 Z " />
<glyph glyph-name="uogonek" unicode="&#x173;" horiz-adv-x="393" d="M478 700 L383 156 Q368 74 312 30 Q281 4 263.5 -15 Q246 -34 242 -55 Q239 -69 252 -75 Q265 -81 278 -81 L287 -81 L279 -126 L260 -126 Q226 -126 204 -115.5 Q182 -105 182 -82 Q182 -76 183 -73 Q188 -47 229 -6 Q213 -9 195 -9 Q127 -9 91 30 Q62 60 62 114 Q62 136 66 156 L161 700 L246 700 L151 156 Q148 141 148 130 Q148 102 163 89 Q178 76 210 76 Q248 76 269.5 95.5 Q291 115 298 156 L393 700 L478 700 Z " />
<glyph glyph-name="uring" unicode="&#x16f;" horiz-adv-x="393" d="M195 -9 Q228 -9 258.5 1 Q289 11 312 30 Q368 74 383 156 L478 700 L393 700 L298 156 Q291 115 269.5 95.5 Q248 76 210 76 Q178 76 163 89 Q148 102 148 130 Q148 141 151 156 L246 700 L161 700 L66 156 Q62 136 62 114 Q62 60 91 30 Q127 -9 195 -9 Z M327 740 Q353 740 375 758.5 Q397 777 402 803 Q403 807 403 814 Q403 837 388 852 Q373 867 350 867 Q324 867 301.5 848 Q279 829 275 803 Q274 799 274 791 Q274 769 289 754.5 Q304 740 327 740 Z M342 824 Q350 824 355 818 Q360 812 359 803 Q358 795 350.5 789 Q343 783 335 783 Q327 783 322 789 Q317 795 318 803 Q319 812 326.5 818 Q334 824 342 824 Z " />
<glyph glyph-name="utilde" unicode="&#x169;" horiz-adv-x="393" d="M195 -9 Q228 -9 258.5 1 Q289 11 312 30 Q368 74 383 156 L478 700 L393 700 L298 156 Q291 115 269.5 95.5 Q248 76 210 76 Q178 76 163 89 Q148 102 148 130 Q148 141 151 156 L246 700 L161 700 L66 156 Q62 136 62 114 Q62 60 91 30 Q127 -9 195 -9 Z M231 735 Q259 763 278 766 Q296 769 321 753 Q347 735 374 735 Q417 735 463 783 L434 809 Q408 783 388 779 Q370 776 349 790 Q318 810 292 810 Q250 810 202 762 L231 735 Z " />
<glyph glyph-name="v" unicode="v" horiz-adv-x="403" d="M425 700 L512 700 L243 0 L160 0 L137 700 L224 700 L232 169 L425 700 Z " />
<glyph glyph-name="uni028C" unicode="&#x28c;" horiz-adv-x="403" d="M302 0 L296 531 L101 0 L14 0 L283 700 L366 700 L389 0 L302 0 Z " />
<glyph glyph-name="w" unicode="w" horiz-adv-x="500" d="M317 381 L139 0 L104 0 L141 700 L227 700 L204 305 L336 590 L373 590 L405 305 L520 700 L605 700 L397 0 L361 0 L317 381 Z " />
<glyph glyph-name="wacute" unicode="&#x1e83;" horiz-adv-x="500" d="M317 381 L139 0 L104 0 L141 700 L227 700 L204 305 L336 590 L373 590 L405 305 L520 700 L605 700 L397 0 L361 0 L317 381 Z M441 841 L355 737 L406 737 L526 841 L441 841 Z " />
<glyph glyph-name="wcircumflex" unicode="&#x175;" horiz-adv-x="500" d="M317 381 L139 0 L104 0 L141 700 L227 700 L204 305 L336 590 L373 590 L405 305 L520 700 L605 700 L397 0 L361 0 L317 381 Z M490 737 L440 737 L390 794 L320 737 L269 737 L355 840 L440 840 L490 737 Z " />
<glyph glyph-name="wdieresis" unicode="&#x1e85;" horiz-adv-x="500" d="M317 381 L139 0 L104 0 L141 700 L227 700 L204 305 L336 590 L373 590 L405 305 L520 700 L605 700 L397 0 L361 0 L317 381 Z M361 782 Q364 801 353.5 814 Q343 827 324 827 Q305 827 289.5 814 Q274 801 271 782 Q270 779 270 773 Q270 758 281 747.5 Q292 737 308 737 Q327 737 342 750 Q357 763 361 782 Z M505 782 Q508 801 497.5 814 Q487 827 468 827 Q449 827 433.5 814 Q418 801 415 782 Q414 779 414 773 Q414 758 425 747.5 Q436 737 452 737 Q471 737 486 750 Q501 763 505 782 Z " />
<glyph glyph-name="wgrave" unicode="&#x1e81;" horiz-adv-x="500" d="M317 381 L139 0 L104 0 L141 700 L227 700 L204 305 L336 590 L373 590 L405 305 L520 700 L605 700 L397 0 L361 0 L317 381 Z M356 841 L271 841 L355 737 L406 737 L356 841 Z " />
<glyph glyph-name="uni2C73" unicode="&#x2c73;" horiz-adv-x="562" d="M642 700 Q665 700 680 685.5 Q695 671 695 648 Q695 641 694 637 L651 637 L651 641 Q651 648 646.5 652.5 Q642 657 635 657 L593 657 L397 0 L361 0 L317 381 L139 0 L104 0 L141 700 L227 700 L204 305 L336 590 L373 590 L405 305 L520 700 L642 700 Z " />
<glyph glyph-name="uni028D" unicode="&#x28d;" horiz-adv-x="500" d="M306 319 L484 700 L520 700 L482 0 L397 0 L421 395 L288 110 L251 110 L220 395 L104 0 L18 0 L227 700 L262 700 L306 319 Z " />
<glyph glyph-name="x" unicode="x" horiz-adv-x="408" d="M317 349 L390 0 L299 0 L247 244 L109 0 L18 0 L216 349 L142 700 L233 700 L284 454 L422 700 L513 700 L317 349 Z " />
<glyph glyph-name="y" unicode="y" horiz-adv-x="380" d="M260 394 L408 700 L496 700 L276 243 L233 0 L148 0 L191 243 L131 700 L220 700 L260 394 Z " />
<glyph glyph-name="yacute" unicode="&#xfd;" horiz-adv-x="380" d="M260 394 L408 700 L496 700 L276 243 L233 0 L148 0 L191 243 L131 700 L220 700 L260 394 Z M381 841 L295 737 L346 737 L466 841 L381 841 Z " />
<glyph glyph-name="ycircumflex" unicode="&#x177;" horiz-adv-x="380" d="M260 394 L408 700 L496 700 L276 243 L233 0 L148 0 L191 243 L131 700 L220 700 L260 394 Z M431 737 L381 737 L331 794 L261 737 L210 737 L296 840 L381 840 L431 737 Z " />
<glyph glyph-name="ydieresis" unicode="&#xff;" horiz-adv-x="380" d="M302 782 Q305 801 294.5 814 Q284 827 265 827 Q246 827 230.5 814 Q215 801 212 782 Q211 779 211 773 Q211 758 222 747.5 Q233 737 249 737 Q268 737 283 750 Q298 763 302 782 Z M446 782 Q449 801 438.5 814 Q428 827 409 827 Q390 827 374.5 814 Q359 801 356 782 Q355 779 355 773 Q355 758 366 747.5 Q377 737 393 737 Q412 737 427 750 Q442 763 446 782 Z M260 394 L408 700 L496 700 L276 243 L233 0 L148 0 L191 243 L131 700 L220 700 L260 394 Z " />
<glyph glyph-name="uni1EF5" unicode="&#x1ef5;" horiz-adv-x="380" d="M183 -40 Q164 -40 148.5 -53 Q133 -66 130 -85 Q127 -104 137.5 -117 Q148 -130 167 -130 Q186 -130 201.5 -117 Q217 -104 220 -85 Q223 -66 212.5 -53 Q202 -40 183 -40 Z M259 394 L407 700 L496 700 L276 243 L233 0 L148 0 L191 243 L131 700 L219 700 L259 394 Z " />
<glyph glyph-name="ygrave" unicode="&#x1ef3;" horiz-adv-x="380" d="M259 394 L407 700 L496 700 L276 243 L233 0 L148 0 L191 243 L131 700 L219 700 L259 394 Z M296 841 L211 841 L295 737 L346 737 L296 841 Z " />
<glyph glyph-name="uni01B4" unicode="&#x1b4;" horiz-adv-x="445" d="M525 700 Q548 700 563 685.5 Q578 671 578 648 Q578 641 577 637 L534 637 L534 641 Q534 648 529.5 652.5 Q525 657 518 657 L476 657 L276 243 L233 0 L148 0 L191 243 L131 700 L220 700 L260 394 L408 700 L525 700 Z " />
<glyph glyph-name="uni1EF7" unicode="&#x1ef7;" horiz-adv-x="380" d="M259 394 L407 700 L496 700 L276 243 L233 0 L148 0 L191 243 L131 700 L219 700 L259 394 Z M259 838 Q296 838 320 814 Q344 790 344 755 Q344 749 342 737 L299 737 Q300 741 300 747 Q300 767 286 781 Q272 795 251 795 L221 831 Q238 838 259 838 Z " />
<glyph glyph-name="uni1EF9" unicode="&#x1ef9;" horiz-adv-x="380" d="M259 394 L407 700 L496 700 L276 243 L233 0 L148 0 L191 243 L131 700 L219 700 L259 394 Z M225 737 Q253 765 272 768 Q291 771 315 755 Q342 737 368 737 Q411 737 457 785 L428 811 Q403 786 383 781 Q364 778 344 792 Q313 812 287 812 Q245 812 197 764 L225 737 Z " />
<glyph glyph-name="uni028E" unicode="&#x28e;" horiz-adv-x="380" d="M245 306 L97 0 L8 0 L229 457 L271 700 L356 700 L314 457 L373 0 L285 0 L245 306 Z " />
<glyph glyph-name="z" unicode="z" horiz-adv-x="375" d="M348 0 L363 85 L160 85 L470 700 L150 700 L135 615 L338 615 L28 0 L348 0 Z " />
<glyph glyph-name="zacute" unicode="&#x17a;" horiz-adv-x="375" d="M348 0 L363 85 L160 85 L470 700 L150 700 L135 615 L338 615 L28 0 L348 0 Z M377 841 L291 737 L342 737 L462 841 L377 841 Z " />
<glyph glyph-name="zcaron" unicode="&#x17e;" horiz-adv-x="375" d="M348 0 L363 85 L160 85 L470 700 L150 700 L135 615 L338 615 L28 0 L348 0 Z M445 840 L359 737 L274 737 L224 840 L275 840 L325 783 L395 840 L445 840 Z " />
<glyph glyph-name="zdotaccent" unicode="&#x17c;" horiz-adv-x="375" d="M348 0 L363 85 L160 85 L470 700 L150 700 L135 615 L338 615 L28 0 L348 0 Z M370 782 Q373 801 362.5 814 Q352 827 333 827 Q314 827 298.5 814 Q283 801 280 782 Q279 779 279 773 Q279 758 290 747.5 Q301 737 317 737 Q336 737 351 750 Q366 763 370 782 Z " />
<glyph glyph-name="uni1E93" unicode="&#x1e93;" horiz-adv-x="375" d="M348 0 L363 85 L160 85 L470 700 L150 700 L135 615 L338 615 L28 0 L348 0 Z M217 -85 Q220 -66 209.5 -53 Q199 -40 180 -40 Q161 -40 145.5 -53 Q130 -66 127 -85 Q124 -104 134.5 -117 Q145 -130 164 -130 Q183 -130 198.5 -117 Q214 -104 217 -85 Z " />
<glyph glyph-name="uniAB53" unicode="&#xab53;" horiz-adv-x="600" d="" />
<glyph glyph-name="zero" unicode="0" horiz-adv-x="385" d="M191 -9 Q224 -9 254.5 1 Q285 11 308 30 Q364 74 379 156 L447 544 Q451 572 451 584 Q451 637 421 670 Q405 689 378 699 Q351 709 318 709 Q250 709 200 670 Q143 624 130 544 L62 156 Q58 136 58 114 Q58 60 87 30 Q123 -9 191 -9 Z M303 624 Q365 624 365 570 Q365 558 362 544 L294 156 Q287 115 265.5 95.5 Q244 76 206 76 Q174 76 159 89 Q144 102 144 130 Q144 141 147 156 L215 544 Q223 585 244 604.5 Q265 624 303 624 Z " />
<glyph glyph-name="one" unicode="1" horiz-adv-x="263" d="M132 589 L298 700 L346 700 L223 0 L138 0 L238 566 L113 483 L132 589 Z " />
<glyph glyph-name="two" unicode="2" horiz-adv-x="387" d="M320 709 Q390 709 423 670 Q453 639 453 585 Q453 564 449 545 L443 513 Q430 433 373 378 Q351 358 329.5 345 Q308 332 270 312 Q214 284 193 265 Q163 236 154 189 L136 85 L368 85 L353 0 L36 0 L69 189 Q84 269 140 321 Q161 341 184 355 Q207 369 241 386 Q294 413 319 435 Q350 464 358 513 L364 545 Q367 559 367 571 Q367 598 351.5 611 Q336 624 305 624 Q267 624 245.5 605 Q224 586 217 545 L200 447 L115 447 L132 545 Q147 627 202 670 Q250 709 320 709 Z " />
<glyph glyph-name="three" unicode="3" horiz-adv-x="376" d="M371 406 Q354 392 325 372 Q347 354 359 338 Q387 298 387 245 Q387 232 383 204 L375 156 Q360 74 304 30 Q281 11 250.5 1 Q220 -9 186 -9 Q119 -9 83 30 Q54 60 54 114 Q54 136 58 156 L66 202 L151 202 L143 156 Q140 141 140 130 Q140 76 201 76 Q239 76 261 95.5 Q283 115 290 156 L298 204 Q301 219 301 231 Q301 256 289.5 274.5 Q278 293 257.5 307.5 Q237 322 194 347 L203 398 Q259 424 288 441.5 Q317 459 334 481 Q351 503 357 537 L358 544 Q361 558 361 570 Q361 624 298 624 Q261 624 240 604.5 Q219 585 211 544 L208 525 L123 525 L126 544 Q139 624 196 670 Q246 709 313 709 Q347 709 373.5 699 Q400 689 417 670 Q447 637 447 584 Q447 572 443 544 L442 537 Q427 458 371 406 Z " />
<glyph glyph-name="four" unicode="4" horiz-adv-x="424" d="M390 700 L474 700 L386 198 L431 198 L416 113 L371 113 L351 0 L266 0 L286 113 L46 113 L54 158 L390 700 Z M301 198 L358 524 L172 198 L301 198 Z " />
<glyph glyph-name="five" unicode="5" horiz-adv-x="378" d="M189 -9 Q257 -9 307 30 Q362 74 377 156 L386 208 Q390 238 390 251 Q390 305 362 343 Q349 363 331 376.5 Q313 390 283 409 Q258 426 245.5 435.5 Q233 445 224 457 Q209 477 209 505 Q209 517 212 532 L226 615 L457 615 L472 700 L156 700 L127 532 Q123 512 123 489 Q123 437 151 400 Q164 381 181.5 367.5 Q199 354 228 335 Q255 318 268 308.5 Q281 299 290 287 Q304 264 304 237 Q304 225 301 208 L292 156 Q284 115 263 95.5 Q242 76 204 76 Q173 76 158 89 Q143 102 143 129 Q143 141 146 156 L162 249 L77 249 L61 156 Q57 136 57 114 Q57 61 85 30 Q122 -9 189 -9 Z " />
<glyph glyph-name="six" unicode="6" horiz-adv-x="381" d="M352 487 L362 544 Q365 558 365 570 Q365 624 302 624 Q265 624 244 604.5 Q223 585 215 544 L188 392 Q223 407 264 407 Q331 407 368 368 Q398 337 398 282 Q398 270 394 242 L379 156 Q364 74 308 30 Q258 -9 190 -9 Q123 -9 86 30 Q58 61 58 114 Q58 136 62 156 L77 242 L130 544 Q143 624 199 670 Q250 709 317 709 Q385 709 421 670 Q451 637 451 584 Q451 572 447 544 L437 487 L352 487 Z M249 322 Q211 322 190 302.5 Q169 283 162 242 L147 156 Q144 141 144 130 Q144 76 205 76 Q243 76 265 95.5 Q287 115 294 156 L309 242 Q311 260 311 267 Q311 296 296 309 Q281 322 249 322 Z " />
<glyph glyph-name="seven" unicode="7" horiz-adv-x="354" d="M464 700 L161 0 L73 0 L340 615 L126 615 L141 700 L464 700 Z " />
<glyph glyph-name="eight" unicode="8" horiz-adv-x="373" d="M185 -9 Q253 -9 303 30 Q358 74 373 156 L381 202 Q385 232 385 245 Q385 299 357 336 Q345 352 331 365 Q352 378 367 393 Q423 445 438 525 L441 544 Q445 572 445 584 Q445 636 416 670 Q380 709 312 709 Q245 709 194 670 Q137 624 124 544 L121 525 Q117 505 117 482 Q117 431 144 393 Q152 382 171 365 Q143 344 135 336 Q77 283 64 202 L56 156 Q52 136 52 114 Q52 60 81 30 Q118 -9 185 -9 Z M243 316 Q273 295 283 280 Q298 259 298 228 Q298 212 296 202 L288 156 Q281 115 259.5 95.5 Q238 76 200 76 Q168 76 153 89 Q138 102 138 130 Q138 141 141 156 L149 202 Q154 231 164 248.5 Q174 266 188 280 Q208 298 243 316 Z M297 624 Q359 624 359 570 Q359 558 356 544 L353 525 Q344 477 314 450 Q298 434 260 414 Q230 433 217 450 Q203 470 203 497 Q203 510 206 525 L209 544 Q217 585 238 604.5 Q259 624 297 624 Z " />
<glyph glyph-name="nine" unicode="9" horiz-adv-x="379" d="M374 156 Q359 74 303 30 Q280 11 249.5 1 Q219 -9 185 -9 Q118 -9 82 30 Q53 60 53 114 Q53 136 57 156 L66 212 L151 212 L142 156 Q139 141 139 130 Q139 76 200 76 Q238 76 260 95.5 Q282 115 289 156 L315 306 Q278 292 238 292 Q169 292 135 331 Q105 363 105 416 Q105 428 109 456 L125 544 Q138 624 195 670 Q245 709 312 709 Q346 709 372.5 699 Q399 689 416 670 Q446 637 446 584 Q446 572 442 544 L374 156 Z M253 377 Q291 377 312.5 396 Q334 415 341 456 L357 544 Q360 558 360 570 Q360 624 297 624 Q260 624 239 604.5 Q218 585 210 544 L194 456 Q192 438 192 431 Q192 403 207 390 Q222 377 253 377 Z " />
<glyph glyph-name="asterisk" unicode="&#x2a;" horiz-adv-x="370" d="M440 597 L327 543 L421 488 L359 419 L289 501 L249 386 L173 412 L242 517 L123 500 L138 585 L251 569 L219 674 L304 700 L304 585 L402 666 L440 597 Z " />
<glyph glyph-name="backslash" unicode="&#x5c;" horiz-adv-x="315" d="M221 0 L128 700 L216 700 L310 0 L221 0 Z " />
<glyph glyph-name="middot" unicode="&#xb7;" horiz-adv-x="170" d="M156 403 Q137 403 122 390 Q107 377 103 358 Q100 339 110.5 326 Q121 313 140 313 Q159 313 174.5 326 Q190 339 193 358 Q194 361 194 367 Q194 382 183 392.5 Q172 403 156 403 Z " />
<glyph glyph-name="bullet" unicode="&#x2022;" horiz-adv-x="258" d="M272 361 Q273 365 273 374 Q273 403 254.5 421.5 Q236 440 207 440 Q174 440 146.5 417 Q119 394 114 361 Q113 356 113 347 Q113 319 131.5 300.5 Q150 282 179 282 Q211 282 238.5 305 Q266 328 272 361 Z " />
<glyph glyph-name="colon" unicode="&#x3a;" horiz-adv-x="140" d="M155 480 Q136 480 120.5 467 Q105 454 102 435 Q101 432 101 426 Q101 411 112 400.5 Q123 390 139 390 Q158 390 173 403 Q188 416 192 435 Q195 454 184.5 467 Q174 480 155 480 Z M86 88 Q67 88 51.5 75 Q36 62 33 43 Q32 40 32 34 Q32 19 43 8.5 Q54 -2 70 -2 Q89 -2 104 11 Q119 24 123 43 Q126 62 115.5 75 Q105 88 86 88 Z " />
<glyph glyph-name="comma" unicode="&#x2c;" horiz-adv-x="140" d="M86 88 Q105 88 115.5 75 Q126 62 123 43 Q118 24 102 2 Q91 -14 71 -38 Q51 -62 45 -69 L19 -69 Q22 -64 29.5 -50 Q37 -36 45 -22 Q50 -14 50 -6 Q50 1 46 5 Q32 17 32 34 Q32 40 33 43 Q36 62 51.5 75 Q67 88 86 88 Z " />
<glyph glyph-name="ellipsis" unicode="&#x2026;" horiz-adv-x="408" d="M85 87 Q66 87 51 74 Q36 61 33 43 Q32 40 32 34 Q32 19 43 8.5 Q54 -2 70 -2 Q89 -2 104 11 Q119 24 123 43 Q126 61 115 74 Q104 87 85 87 Z M219 87 Q200 87 185 74 Q170 61 167 43 Q166 40 166 34 Q166 19 177 8.5 Q188 -2 204 -2 Q223 -2 238 11 Q253 24 257 43 Q260 61 249 74 Q238 87 219 87 Z M353 87 Q334 87 319 74 Q304 61 301 43 Q300 40 300 34 Q300 19 311 8.5 Q322 -2 338 -2 Q357 -2 372 11 Q387 24 391 43 Q394 61 383 74 Q372 87 353 87 Z " />
<glyph glyph-name="exclam" unicode="&#x21;" horiz-adv-x="169" d="M145 158 L189 349 L250 700 L165 700 L104 349 L80 158 L145 158 Z M137 45 Q140 64 129.5 77 Q119 90 101 90 Q82 90 66.5 77 Q51 64 48 45 Q45 26 55.5 13 Q66 0 85 0 Q103 0 118.5 13 Q134 26 137 45 Z " />
<glyph glyph-name="exclamdown" unicode="&#xa1;" horiz-adv-x="169" d="M213 542 L148 542 L104 351 L42 0 L127 0 L189 351 L213 542 Z M244 655 Q245 658 245 664 Q245 679 234.5 689.5 Q224 700 208 700 Q189 700 174 687 Q159 674 155 655 Q152 636 163 623 Q174 610 193 610 Q211 610 226 623 Q241 636 244 655 Z " />
<glyph glyph-name="numbersign" unicode="&#x23;" horiz-adv-x="618" d="M653 423 L558 423 L486 275 L600 275 L586 190 L446 190 L353 0 L264 0 L357 190 L232 190 L139 0 L50 0 L143 190 L74 190 L88 275 L184 275 L256 423 L142 423 L157 508 L297 508 L390 700 L479 700 L386 508 L511 508 L604 700 L692 700 L600 508 L668 508 L653 423 Z M397 275 L470 423 L345 423 L273 275 L397 275 Z " />
<glyph glyph-name="period" unicode="&#x2e;" horiz-adv-x="140" d="M85 87 Q66 87 51 74 Q36 61 33 43 Q32 40 32 34 Q32 19 43 8.5 Q54 -2 70 -2 Q89 -2 104 11 Q119 24 123 43 Q126 61 115 74 Q104 87 85 87 Z " />
<glyph glyph-name="question" unicode="&#x3f;" horiz-adv-x="376" d="M183 45 Q186 64 175.5 77 Q165 90 146 90 Q128 90 112.5 77 Q97 64 94 45 Q91 26 101.5 13 Q112 0 130 0 Q149 0 164.5 13 Q180 26 183 45 Z M113 143 L122 192 Q134 261 171 311.5 Q208 362 266 392 Q309 414 327 444 Q345 474 354 525 L357 544 Q360 559 360 570 Q360 598 345 611 Q330 624 298 624 Q260 624 239.5 605 Q219 586 211 544 L200 480 L115 480 L126 544 Q139 624 195 669 Q246 709 313 709 Q382 709 417 669 Q446 637 446 584 Q446 572 442 544 L439 525 Q426 452 392 401.5 Q358 351 295 318 Q254 297 234.5 267 Q215 237 207 192 L198 143 L113 143 Z " />
<glyph glyph-name="questiondown" unicode="&#xbf;" horiz-adv-x="376" d="M316 655 Q313 636 324 623 Q335 610 354 610 Q372 610 387 623 Q402 636 405 655 Q406 658 406 664 Q406 679 395.5 689.5 Q385 700 369 700 Q350 700 335 687 Q320 674 316 655 Z M386 557 L378 508 Q365 439 328 388.5 Q291 338 233 308 Q191 286 173 256 Q155 226 146 175 L143 156 Q140 141 140 129 Q140 102 155 89 Q170 76 201 76 Q239 76 260 95.5 Q281 115 289 156 L300 220 L385 220 L374 156 Q359 74 304 31 Q255 -9 186 -9 Q119 -9 82 31 Q54 64 54 115 Q54 136 58 156 L61 175 Q73 247 107 298 Q141 349 204 382 Q245 403 265 433 Q285 463 293 508 L301 557 L386 557 Z " />
<glyph glyph-name="quotedbl" unicode="&#x22;" horiz-adv-x="291" d="M194 503 L253 700 L163 700 L153 503 L194 503 Z M315 503 L374 700 L284 700 L274 503 L315 503 Z " />
<glyph glyph-name="quotesingle" unicode="&#x27;" horiz-adv-x="170" d="M194 503 L253 700 L163 700 L153 503 L194 503 Z " />
<glyph glyph-name="semicolon" unicode="&#x3b;" horiz-adv-x="140" d="M86 88 Q105 88 115.5 75 Q126 62 123 43 Q118 24 102 2 Q91 -14 71 -38 Q51 -62 45 -69 L19 -69 Q22 -64 29.5 -50 Q37 -36 45 -22 Q50 -14 50 -6 Q50 1 46 5 Q32 17 32 34 Q32 40 33 43 Q36 62 51.5 75 Q67 88 86 88 Z M155 480 Q136 480 120.5 467 Q105 454 102 435 Q101 432 101 426 Q101 411 112 400.5 Q123 390 139 390 Q158 390 173 403 Q188 416 192 435 Q195 454 184.5 467 Q174 480 155 480 Z " />
<glyph glyph-name="slash" unicode="&#x2f;" horiz-adv-x="315" d="M94 0 L5 0 L345 700 L433 700 L94 0 Z " />
<glyph glyph-name="underscore" unicode="&#x5f;" horiz-adv-x="482" d="M472 0 L487 85 L25 85 L10 0 L472 0 Z " />
<glyph glyph-name="braceleft" unicode="&#x7b;" horiz-adv-x="304" d="M287 76 Q256 76 241 89 Q226 102 226 130 Q226 146 228 155 L238 211 Q242 237 242 249 Q242 288 226 319 Q221 332 210 349 Q237 379 237 379 Q276 427 287 488 L297 543 Q304 584 325 603.5 Q346 623 384 623 L399 708 Q331 708 281 669 Q225 623 212 543 L202 488 Q192 427 128 383 L76 349 L116 315 Q155 282 155 233 Q155 227 153 211 L143 155 Q139 127 139 115 Q139 62 168 30 Q205 -9 272 -9 L287 76 Z " />
<glyph glyph-name="braceright" unicode="&#x7d;" horiz-adv-x="301" d="M28 -9 Q96 -9 146 30 Q201 75 215 155 L225 211 Q236 274 300 315 L352 349 L312 383 Q272 417 272 466 Q272 472 274 488 L284 544 Q288 572 288 584 Q288 636 259 670 Q223 709 155 709 L140 624 Q172 624 187 611 Q202 598 202 570 Q202 559 199 544 L189 488 Q186 469 186 451 Q186 414 201 379 Q206 366 218 349 Q200 333 190 319 Q151 271 140 211 L130 155 Q123 114 102 95 Q81 76 43 76 L28 -9 Z " />
<glyph glyph-name="bracketleft" unicode="&#x5b;" horiz-adv-x="203" d="M173 0 L188 85 L115 85 L208 615 L281 615 L296 700 L138 700 L15 0 L173 0 Z " />
<glyph glyph-name="bracketright" unicode="&#x5d;" horiz-adv-x="226" d="M28 0 L186 0 L309 700 L151 700 L136 615 L209 615 L116 85 L43 85 L28 0 Z " />
<glyph glyph-name="parenleft" unicode="&#x28;" horiz-adv-x="229" d="M212 76 Q181 76 166 89 Q151 102 151 130 Q151 146 153 155 L222 544 Q230 586 250.5 605 Q271 624 309 624 L324 709 Q257 709 206 670 Q150 624 137 544 L68 155 Q64 127 64 115 Q64 62 93 30 Q130 -9 197 -9 L212 76 Z " />
<glyph glyph-name="parenright" unicode="&#x29;" horiz-adv-x="229" d="M28 -9 Q96 -9 146 30 Q201 75 215 155 L284 544 Q288 572 288 584 Q288 636 259 670 Q223 709 155 709 L140 624 Q172 624 187 611 Q202 598 202 570 Q202 559 199 544 L130 155 Q123 114 102 95 Q81 76 43 76 L28 -9 Z " />
<glyph glyph-name="emdash" unicode="&#x2014;" horiz-adv-x="482" d="M528 316 L543 401 L81 401 L66 316 L528 316 Z " />
<glyph glyph-name="endash" unicode="&#x2013;" horiz-adv-x="482" d="M528 316 L543 401 L81 401 L66 316 L528 316 Z " />
<glyph glyph-name="figuredash" unicode="&#x2012;" horiz-adv-x="296" d="M342 316 L357 401 L81 401 L66 316 L342 316 Z " />
<glyph glyph-name="hyphen" unicode="&#x2d;" horiz-adv-x="211" d="M257 316 L272 401 L81 401 L66 316 L257 316 Z " />
<glyph glyph-name="guillemotleft" unicode="&#xab;" horiz-adv-x="364" d="M322 358 L364 91 L274 91 L233 358 L368 625 L458 625 L322 358 Z M168 358 L210 91 L120 91 L79 358 L214 625 L304 625 L168 358 Z " />
<glyph glyph-name="guillemotright" unicode="&#xbb;" horiz-adv-x="364" d="M168 358 L126 625 L216 625 L257 358 L122 91 L32 91 L168 358 Z M322 358 L280 625 L370 625 L411 358 L276 91 L186 91 L322 358 Z " />
<glyph glyph-name="guilsinglleft" unicode="&#x2039;" horiz-adv-x="210" d="M169 358 L210 91 L121 91 L79 358 L215 625 L304 625 L169 358 Z " />
<glyph glyph-name="guilsinglright" unicode="&#x203a;" horiz-adv-x="210" d="M168 358 L126 625 L216 625 L257 358 L122 91 L32 91 L168 358 Z " />
<glyph glyph-name="quotedblbase" unicode="&#x201e;" horiz-adv-x="284" d="M96 88 Q115 88 125.5 75 Q136 62 133 43 Q128 24 112 2 Q101 -14 81 -38 Q61 -62 55 -69 L29 -69 Q32 -64 39.5 -50 Q47 -36 55 -22 Q60 -14 60 -6 Q60 1 56 5 Q42 17 42 34 Q42 40 43 43 Q46 62 61.5 75 Q77 88 96 88 Z M220 88 Q239 88 249.5 75 Q260 62 257 43 Q252 24 236 2 Q225 -14 205 -38 Q185 -62 179 -69 L153 -69 Q156 -64 163.5 -50 Q171 -36 179 -22 Q184 -14 184 -6 Q184 1 180 5 Q166 17 166 34 Q166 40 167 43 Q170 62 185.5 75 Q201 88 220 88 Z " />
<glyph glyph-name="quotedblleft" unicode="&#x201c;" horiz-adv-x="289" d="M300 543 Q284 543 273 553.5 Q262 564 262 579 Q262 585 263 588 Q266 606 283 629 Q294 645 314 669 Q334 693 340 700 L366 700 Q363 695 355.5 681 Q348 667 340 653 Q335 641 335 636 Q335 630 339 626 Q356 611 353 588 Q349 569 334 556 Q319 543 300 543 Z M176 543 Q160 543 149 553.5 Q138 564 138 579 Q138 585 139 588 Q142 606 159 629 Q170 645 190 669 Q210 693 216 700 L242 700 Q239 695 231.5 681 Q224 667 216 653 Q211 641 211 636 Q211 630 215 626 Q232 611 229 588 Q225 569 210 556 Q195 543 176 543 Z " />
<glyph glyph-name="quotedblright" unicode="&#x201d;" horiz-adv-x="289" d="M209 702 Q228 702 238.5 689 Q249 676 246 657 Q244 642 226 616 Q214 600 194 576 Q174 552 168 545 L142 545 Q145 550 152.5 564 Q160 578 168 592 Q174 602 174 608 Q174 614 169 619 Q155 631 155 648 Q155 654 156 657 Q159 676 174.5 689 Q190 702 209 702 Z M333 702 Q352 702 362.5 689 Q373 676 370 657 Q368 642 350 616 Q338 600 318 576 Q298 552 292 545 L266 545 Q269 550 276.5 564 Q284 578 292 592 Q298 602 298 608 Q298 614 293 619 Q279 631 279 648 Q279 654 280 657 Q283 676 298.5 689 Q314 702 333 702 Z " />
<glyph glyph-name="quoteleft" unicode="&#x2018;" horiz-adv-x="170" d="M181 543 Q165 543 154 553.5 Q143 564 143 579 Q143 585 144 588 Q147 606 164 629 Q175 645 195 669 Q215 693 221 700 L247 700 Q244 695 236.5 681 Q229 667 221 653 Q216 641 216 636 Q216 630 220 626 Q237 611 234 588 Q230 569 215 556 Q200 543 181 543 Z " />
<glyph glyph-name="quoteright" unicode="&#x2019;" horiz-adv-x="170" d="M209 702 Q228 702 238.5 689 Q249 676 246 657 Q244 642 226 616 Q214 600 194 576 Q174 552 168 545 L142 545 Q145 550 152.5 564 Q160 578 168 592 Q174 602 174 608 Q174 614 169 619 Q155 631 155 648 Q155 654 156 657 Q159 676 174.5 689 Q190 702 209 702 Z " />
<glyph glyph-name="quotesinglbase" unicode="&#x201a;" horiz-adv-x="160" d="M96 88 Q115 88 125.5 75 Q136 62 133 43 Q128 24 112 2 Q101 -14 81 -38 Q61 -62 55 -69 L29 -69 Q32 -64 39.5 -50 Q47 -36 55 -22 Q60 -14 60 -6 Q60 1 56 5 Q42 17 42 34 Q42 40 43 43 Q46 62 61.5 75 Q77 88 96 88 Z " />
<glyph glyph-name="uni00A0" unicode="&#xa0;" horiz-adv-x="600" d="" />
<glyph glyph-name="Euro" unicode="&#x20ac;" horiz-adv-x="404" d="M380 7 Q337 -9 297 -9 Q254 -9 219 9 Q184 27 163 60 Q132 109 132 186 Q132 212 135 240 L70 240 L85 325 L150 325 L161 384 L96 384 L111 469 L177 469 Q203 581 266 644 Q298 677 339.5 695 Q381 713 425 713 Q462 713 492 701 L448 622 Q430 628 410 628 Q360 628 322 591 Q282 549 262 469 L415 469 L400 384 L246 384 L235 325 L389 325 L374 240 L221 240 Q219 226 219 201 Q219 145 238 114 Q264 76 312 76 Q338 76 359 85 L380 7 Z " />
<glyph glyph-name="cent" unicode="&#xa2;" horiz-adv-x="395" d="M357 479 L367 535 Q370 549 370 561 Q370 615 308 615 Q270 615 249 595.5 Q228 576 220 535 L155 165 Q152 152 152 139 Q152 85 215 85 Q252 85 273 104.5 Q294 124 302 165 L317 250 L402 250 L387 165 Q374 85 317 39 Q287 14 243 5 L237 -29 L152 -29 L158 5 Q118 14 96 39 Q66 72 66 125 Q66 137 70 165 L135 535 Q150 619 206 661 Q239 688 280 695 L286 729 L371 729 L365 695 Q404 688 427 661 Q456 629 456 576 Q456 554 452 535 L442 479 L357 479 Z " />
<glyph glyph-name="currency" unicode="&#xa4;" horiz-adv-x="380" d="M402 307 Q388 232 343 190 L365 111 L281 76 L261 147 Q236 142 215 142 Q193 142 171 147 L126 76 L55 111 L105 190 Q82 221 82 266 Q82 287 86 307 L101 394 Q115 467 161 511 L139 589 L223 624 L243 553 Q261 558 288 558 Q315 558 333 553 L378 624 L449 589 L399 511 Q421 482 421 435 Q421 414 417 394 L402 307 Z M171 307 Q168 292 168 281 Q168 253 183 240 Q198 227 230 227 Q268 227 288.5 246 Q309 265 317 307 L332 394 Q335 409 335 420 Q335 448 320 460.5 Q305 473 273 473 Q235 473 214.5 454 Q194 435 186 394 L171 307 Z " />
<glyph glyph-name="dollar" unicode="&#x24;" horiz-adv-x="385" d="M350 478 L360 535 Q363 549 363 561 Q363 615 301 615 Q263 615 242 595.5 Q221 576 213 535 L211 523 Q208 508 208 496 Q208 468 223 448 Q233 435 247 424.5 Q261 414 284 400 Q310 384 329 369 Q348 354 363 334 Q390 297 390 244 Q390 220 386 200 L380 165 Q367 85 310 39 Q280 14 236 5 L230 -29 L145 -29 L151 5 Q111 14 89 39 Q59 72 59 125 Q59 137 63 165 L78 249 L163 249 L148 165 Q145 152 145 139 Q145 85 208 85 Q245 85 266 104.5 Q287 124 295 165 L301 200 Q304 217 304 228 Q304 257 289 278 Q279 291 265 301.5 Q251 312 228 326 Q224 329 206 340.5 Q188 352 174 365 Q160 378 150 391 Q122 431 122 482 Q122 495 126 523 L128 535 Q143 619 199 661 Q232 688 273 695 L279 729 L364 729 L358 695 Q397 688 420 661 Q449 629 449 576 Q449 554 445 535 L435 478 L350 478 Z " />
<glyph glyph-name="sterling" unicode="&#xa3;" horiz-adv-x="446" d="M428 85 L224 85 Q261 131 271 193 L274 210 L284 266 L288 292 L419 292 L434 377 L274 377 Q261 401 261 441 Q261 465 265 488 L275 543 Q282 584 303 603.5 Q324 623 362 623 Q394 623 409 610 Q424 597 424 568 Q424 561 422 543 L418 524 L503 524 L507 543 Q511 571 511 583 Q511 636 481 669 Q444 708 377 708 Q308 708 260 669 Q203 623 190 543 L180 488 Q174 455 174 425 Q174 399 178 380 Q180 379 178 377 L116 377 L101 292 L203 292 Q200 272 189 210 L186 193 Q174 126 122 100 Q104 91 87 88 Q70 85 64 85 L46 85 L31 0 L413 0 L428 85 Z " />
<glyph glyph-name="uni20B9" unicode="&#x20b9;" horiz-adv-x="415" d="M343 0 L244 0 L94 378 L251 378 Q287 378 308 395 Q329 412 336 449 L105 449 L120 534 L351 534 L352 536 Q354 554 354 561 Q354 589 339 602 Q324 615 292 615 L134 615 L142 658 L149 700 L518 700 L503 615 L435 615 Q441 597 441 575 Q441 564 437 536 L436 534 L489 534 L474 449 L421 449 Q406 375 354 332 Q303 293 236 293 L226 293 L343 0 Z " />
<glyph glyph-name="yen" unicode="&#xa5;" horiz-adv-x="380" d="M496 699 L285 263 L388 263 L381 221 L272 221 L264 178 L373 178 L366 136 L257 136 L233 0 L148 0 L172 136 L63 136 L70 178 L179 178 L187 221 L78 221 L85 263 L187 263 L130 699 L219 699 L259 394 L407 699 L496 699 Z " />
<glyph glyph-name="plus" unicode="&#x2b;" horiz-adv-x="403" d="M439 401 L424 316 L300 316 L278 192 L193 192 L215 316 L91 316 L106 401 L230 401 L252 525 L337 525 L315 401 L439 401 Z " />
<glyph glyph-name="minus" unicode="&#x2212;" horiz-adv-x="373" d="M394 316 L409 401 L106 401 L91 316 L394 316 Z " />
<glyph glyph-name="multiply" unicode="&#xd7;" horiz-adv-x="365" d="M409 446 L306 358 L378 271 L307 211 L236 298 L132 211 L83 271 L185 358 L114 446 L184 506 L257 418 L359 506 L409 446 Z " />
<glyph glyph-name="divide" unicode="&#xf7;" horiz-adv-x="372" d="M393 320 L408 405 L106 405 L91 320 L393 320 Z M317 493 Q320 512 309 525 Q298 538 280 538 Q261 538 245.5 525 Q230 512 227 493 Q224 474 234.5 461 Q245 448 264 448 Q282 448 298 461 Q314 474 317 493 Z M271 232 Q274 251 263 264 Q252 277 234 277 Q215 277 199.5 264 Q184 251 181 232 Q180 229 180 223 Q180 208 191 197.5 Q202 187 218 187 Q236 187 251.5 200 Q267 213 271 232 Z " />
<glyph glyph-name="equal" unicode="&#x3d;" horiz-adv-x="404" d="M440 402 L455 487 L121 487 L106 402 L440 402 Z M410 230 L425 315 L91 315 L76 230 L410 230 Z " />
<glyph glyph-name="greater" unicode="&#x3e;" horiz-adv-x="373" d="M292 358 L118 442 L135 536 L414 401 L399 316 L72 181 L88 274 L292 358 Z " />
</font>
</svg>
