<?xml version="1.0" encoding="UTF-8"?>
<svg xmlns="http://www.w3.org/2000/svg" xmlns:xlink="http://www.w3.org/1999/xlink" version="1.2" >
<font id="Bodoni URW">
<font-face  font-family="Bodoni URW" units-per-em="1000" ascent="667" descent="-333" font-style="normal" font-weight="400" font-stretch="normal" cap-height="667" x-height="393" underline-position="-89" underline-thickness="53" />
<missing-glyph  horiz-adv-x="250" d="" />
<glyph glyph-name="NULL" d="" />
<glyph glyph-name="CR" unicode="&#xd;" horiz-adv-x="250" d="" />
<glyph glyph-name="space" unicode="&#x20;" horiz-adv-x="250" d="" />
<glyph glyph-name="exclam" unicode="&#x21;" horiz-adv-x="265" d="M143 197 C146 314 154 389 175 501 C190 571 191 581 191 609 C191 650 169 677 134 677 C100 677 76 648 76 607 C76 590 80 565 94 493 C115 395 122 330 125 197 L143 197 Z M133 110 C100 110 73 84 73 51 C73 19 99 -7 131 -7 C164 -7 191 19 191 51 C191 83 165 110 133 110 L133 110 Z " />
<glyph glyph-name="quotedbl" unicode="&#x22;" horiz-adv-x="286" d="M90 412 L116 576 C119 594 120 606 120 617 C120 653 103 677 77 677 C54 677 37 652 37 617 C37 607 39 590 41 576 L66 412 L90 412 Z M220 412 L246 576 C249 599 250 606 250 617 C250 653 233 677 207 677 C184 677 167 652 167 617 C167 608 169 586 170 576 L196 412 L220 412 Z " />
<glyph glyph-name="numbersign" unicode="&#x23;" horiz-adv-x="500" d="M212 442 L240 647 L168 647 L139 442 L50 442 L50 415 L135 415 L111 240 L21 240 L21 213 L107 213 L77 0 L149 0 L179 213 L290 213 L260 0 L332 0 L362 213 L451 213 L451 240 L366 240 L390 415 L480 415 L479 442 L394 442 L423 647 L350 647 L322 442 L212 442 Z M208 415 L318 415 L293 240 L183 240 L208 415 Z " />
<glyph glyph-name="dollar" unicode="&#x24;" horiz-adv-x="500" d="M266 638 C317 636 345 617 345 586 C345 543 345 540 351 524 C359 500 379 484 403 484 C430 484 449 505 449 537 C449 606 373 658 266 661 L266 744 L232 744 L232 661 C185 653 160 644 132 625 C84 591 54 535 54 479 C54 439 71 397 98 368 C121 343 135 334 210 296 C215 293 223 289 232 284 L232 12 C203 12 176 24 158 43 C146 55 141 73 141 100 C141 106 141 106 143 143 C145 176 120 207 91 207 C60 207 36 177 36 139 C36 64 120 -1 232 -11 L232 -101 L266 -101 L266 -11 C310 -6 335 3 363 21 C418 58 453 124 453 190 C453 243 432 285 389 317 C365 335 332 353 266 386 L266 638 Z M232 403 C196 423 186 429 171 441 C142 462 125 496 125 529 C125 586 168 629 232 636 L232 403 Z M266 267 C358 219 384 191 384 136 C384 96 363 57 329 34 C310 22 296 17 266 13 L266 267 Z " />
<glyph glyph-name="percent" unicode="&#x25;" horiz-adv-x="692" d="M166 653 C88 653 26 579 26 487 C26 394 88 320 166 320 C243 320 306 394 306 484 C306 579 245 653 166 653 L166 653 Z M166 635 C185 635 202 626 211 613 C223 595 227 561 227 484 C227 418 223 382 213 364 C205 348 187 338 166 338 C148 338 130 347 121 360 C109 378 105 412 105 486 C105 556 109 590 119 609 C127 625 145 635 166 635 L166 635 Z M487 647 L175 0 L204 0 L517 647 L487 647 Z M525 327 C448 327 386 253 386 161 C386 68 448 -6 526 -6 C602 -6 665 68 665 158 C665 253 604 327 525 327 L525 327 Z M526 309 C544 309 561 300 570 287 C582 269 586 235 586 158 C586 92 582 56 572 38 C564 22 546 12 526 12 C507 12 490 21 481 34 C469 52 465 86 465 160 C465 230 469 265 479 283 C487 299 505 309 526 309 L526 309 Z " />
<glyph glyph-name="ampersand" unicode="&#x26;" horiz-adv-x="598" d="M285 343 C361 368 408 413 408 463 C408 516 353 553 277 553 C192 553 133 513 133 454 C133 426 147 398 198 323 C83 267 35 213 35 138 C35 95 58 48 91 22 C119 -1 160 -13 203 -13 C264 -13 306 5 370 56 L406 0 L569 0 L569 20 L495 20 L427 123 C466 170 490 241 495 323 L575 323 L575 343 L389 343 L389 323 L473 323 C472 253 449 178 416 140 L285 343 Z M275 357 C268 369 267 369 261 378 C240 410 240 410 235 417 C216 450 208 470 208 488 C208 517 232 533 277 533 C321 533 338 514 338 465 C338 411 320 381 275 357 L275 357 Z M360 73 C327 42 292 24 263 24 C228 24 197 41 173 73 C140 116 117 173 117 208 C117 245 145 274 209 305 L360 73 Z " />
<glyph glyph-name="quotesingle" unicode="&#x27;" horiz-adv-x="156" d="M90 412 L116 576 C119 594 120 606 120 617 C120 653 103 677 77 677 C54 677 37 652 37 617 C37 607 39 590 41 576 L66 412 L90 412 Z " />
<glyph glyph-name="parenleft" unicode="&#x28;" horiz-adv-x="269" d="M237 -173 C192 -92 183 -72 165 -19 C138 67 125 151 125 244 C125 397 159 520 239 658 L214 674 C87 505 35 377 35 238 C35 107 95 -36 212 -186 L237 -173 Z " />
<glyph glyph-name="parenright" unicode="&#x29;" horiz-adv-x="269" d="M56 -186 C175 -35 234 107 234 238 C234 377 181 505 55 674 L30 658 C110 519 144 397 144 244 C144 151 131 67 103 -19 C86 -72 76 -93 31 -173 L56 -186 Z " />
<glyph glyph-name="asterisk" unicode="&#x2a;" horiz-adv-x="500" d="M268 475 L272 485 L323 489 C411 496 433 505 433 535 C433 556 417 572 397 572 C383 572 369 566 340 546 C331 541 322 535 314 530 L267 500 L258 506 L270 556 C279 592 285 627 285 639 C285 662 271 677 249 677 C227 677 212 661 212 639 C212 625 214 617 228 560 L242 506 L233 500 L189 527 C140 557 115 569 101 569 C82 569 66 552 66 532 C66 504 86 493 142 490 C158 489 169 489 173 489 L228 485 L232 475 L192 441 C141 397 124 377 124 359 C124 340 141 323 161 323 C183 323 195 337 213 385 C218 399 222 409 224 413 L245 465 L255 465 L275 418 C306 343 319 325 342 325 C362 325 379 342 379 361 C379 382 373 388 311 439 L268 475 Z " />
<glyph glyph-name="plus" unicode="&#x2b;" horiz-adv-x="500" d="M233 306 L233 130 L268 130 L268 306 L454 306 L454 341 L268 341 L268 517 L233 517 L233 341 L47 341 L47 306 L233 306 Z " />
<glyph glyph-name="comma" unicode="&#x2c;" horiz-adv-x="238" d="M96 -151 C161 -100 195 -42 195 17 C195 74 161 113 111 113 C72 113 42 86 42 51 C42 20 64 -2 94 -2 C122 -2 142 19 142 47 C142 48 142 52 141 57 C159 45 167 29 167 7 C167 -20 155 -50 134 -80 C121 -97 111 -107 80 -131 L96 -151 Z " />
<glyph glyph-name="hyphen" unicode="&#x2d;" horiz-adv-x="193" d="M0 234 L0 168 L193 168 L193 234 L0 234 Z " />
<glyph glyph-name="period" unicode="&#x2e;" horiz-adv-x="238" d="M120 110 C87 110 60 84 60 51 C60 19 86 -7 118 -7 C151 -7 178 19 178 51 C178 83 152 110 120 110 L120 110 Z " />
<glyph glyph-name="slash" unicode="&#x2f;" horiz-adv-x="405" d="M-42 -180 L15 -180 L372 667 L314 667 L-42 -180 Z " />
<glyph glyph-name="zero" unicode="0" horiz-adv-x="500" d="M250 657 C133 657 38 508 38 324 C38 139 133 -10 251 -10 C367 -10 463 139 463 319 C463 428 437 515 384 582 C344 632 300 657 250 657 L250 657 Z M251 637 C283 637 313 618 329 589 C349 550 356 480 356 318 C356 179 349 106 333 67 C318 32 287 10 251 10 C218 10 188 29 172 58 C152 97 145 168 145 324 C145 468 151 540 168 580 C183 615 214 637 251 637 L251 637 Z " />
<glyph glyph-name="one" unicode="1" horiz-adv-x="500" d="M221 20 L121 20 L121 0 L414 0 L414 20 L314 20 L314 654 L121 643 L121 622 L195 625 L209 625 C219 625 221 620 221 600 L221 20 Z " />
<glyph glyph-name="two" unicode="2" horiz-adv-x="500" d="M432 177 L414 177 C400 83 397 79 325 80 L104 80 L342 318 C406 391 432 441 432 495 C432 588 352 657 245 657 C142 657 64 594 64 509 C64 454 94 415 135 415 C163 415 186 436 186 461 C186 486 164 506 136 506 C129 506 126 505 112 501 C107 500 103 499 101 499 C92 499 86 509 86 523 C86 578 144 629 207 629 C283 629 333 562 333 459 C333 395 316 352 269 293 C239 256 189 203 39 48 L39 0 L426 0 L432 177 Z " />
<glyph glyph-name="three" unicode="3" horiz-adv-x="500" d="M125 338 C203 337 220 335 252 323 C309 300 332 257 332 171 C332 67 287 10 204 10 C161 10 109 39 109 63 C109 67 111 70 117 74 C133 84 144 103 144 122 C144 147 125 166 99 166 C71 166 48 141 48 110 C48 44 123 -10 216 -10 C343 -10 439 73 439 181 C439 280 367 339 234 351 C338 371 404 435 404 514 C404 596 332 657 236 657 C151 657 85 610 85 550 C85 521 106 497 131 497 C154 497 173 517 173 541 C173 558 164 574 148 585 C142 589 141 591 141 595 C141 616 180 637 221 637 C278 637 305 599 305 520 C305 449 289 407 254 384 C228 366 208 363 125 360 L125 338 Z " />
<glyph glyph-name="four" unicode="4" horiz-adv-x="500" d="M259 173 L259 20 L159 20 L159 0 L439 0 L439 20 L352 20 L352 173 L442 173 L442 98 L465 98 L465 274 L442 274 L442 200 L352 200 L352 653 L301 653 L23 212 L23 173 L259 173 Z M259 200 L44 200 L259 543 L259 200 Z " />
<glyph glyph-name="five" unicode="5" horiz-adv-x="500" d="M138 567 L296 567 C360 567 370 570 381 585 C394 606 402 634 404 674 L388 674 C377 648 374 646 351 647 L190 647 C121 648 116 644 113 594 L98 330 C126 353 164 366 202 366 C236 366 271 353 295 331 C325 303 340 259 340 195 C340 78 294 10 214 10 C169 10 106 39 106 60 C106 65 108 67 115 70 C133 80 148 105 148 126 C148 149 128 169 105 169 C75 169 53 143 53 108 C53 43 128 -10 220 -10 C346 -10 446 80 446 192 C446 303 349 386 221 386 C188 386 165 382 127 368 L138 567 Z " />
<glyph glyph-name="six" unicode="6" horiz-adv-x="500" d="M413 686 C311 665 234 629 173 573 C89 496 40 381 40 257 C40 174 60 109 101 61 C141 15 196 -10 256 -10 C371 -10 465 92 465 218 C465 337 381 429 272 429 C226 429 192 415 160 384 C179 545 258 632 413 663 L413 686 Z M261 409 C333 409 360 353 360 204 C360 64 332 10 259 10 C180 10 148 71 148 221 C148 302 159 349 186 378 C203 397 232 409 261 409 L261 409 Z " />
<glyph glyph-name="seven" unicode="7" horiz-adv-x="500" d="M39 469 L60 464 C92 562 98 568 163 567 L407 567 C401 553 394 538 387 524 C371 488 354 452 337 416 C238 212 237 211 218 161 C199 114 190 76 190 49 C190 11 213 -14 248 -14 C280 -14 303 12 303 50 C303 63 302 70 295 95 C287 126 284 147 284 164 C284 210 302 263 368 409 C392 461 410 501 422 529 C439 567 456 605 461 612 C471 629 473 635 473 640 C473 645 470 647 457 647 L88 647 L39 469 Z " />
<glyph glyph-name="eight" unicode="8" horiz-adv-x="500" d="M293 339 C388 361 442 416 442 492 C442 586 359 657 250 657 C140 657 57 586 57 492 C57 417 111 361 206 339 C96 315 36 254 36 166 C36 67 129 -10 250 -10 C370 -10 463 67 463 167 C463 254 403 315 293 339 L293 339 Z M252 637 C310 637 342 586 342 494 C342 407 309 356 252 356 C195 356 162 407 162 497 C162 586 195 637 252 637 L252 637 Z M249 328 C318 328 354 273 354 167 C354 66 317 10 249 10 C181 10 144 66 144 169 C144 272 181 328 249 328 L249 328 Z " />
<glyph glyph-name="nine" unicode="9" horiz-adv-x="500" d="M78 -43 C193 -22 258 9 326 76 C412 160 461 276 461 395 C461 547 374 657 254 657 C135 657 36 551 36 423 C36 309 126 212 231 212 C276 212 307 227 340 264 C309 85 234 2 83 -21 L78 -43 Z M249 637 C324 637 354 579 354 434 C354 299 316 232 238 232 C201 232 173 251 158 286 C146 312 142 354 142 439 C142 579 174 637 249 637 L249 637 Z " />
<glyph glyph-name="colon" unicode="&#x3a;" horiz-adv-x="239" d="M120 396 C87 396 60 370 60 337 C60 305 86 279 118 279 C151 279 178 305 178 337 C178 369 152 396 120 396 L120 396 Z M121 110 C88 110 61 84 61 51 C61 19 87 -7 119 -7 C152 -7 179 19 179 51 C179 83 153 110 121 110 L121 110 Z " />
<glyph glyph-name="semicolon" unicode="&#x3b;" horiz-adv-x="238" d="M113 400 C80 400 53 374 53 341 C53 309 79 283 111 283 C144 283 171 309 171 341 C171 373 145 400 113 400 L113 400 Z M97 -151 C161 -100 195 -42 195 17 C195 74 161 113 111 113 C72 113 42 86 42 51 C42 20 64 -2 94 -2 C122 -2 142 19 142 47 C142 48 142 52 141 57 C159 45 167 29 167 7 C167 -20 155 -50 134 -80 C121 -98 111 -107 80 -131 L97 -151 Z " />
<glyph glyph-name="less" unicode="&#x3c;" horiz-adv-x="500" d="M456 605 L45 338 L45 332 L456 60 L456 134 L121 357 L456 577 L456 605 Z " />
<glyph glyph-name="equal" unicode="&#x3d;" horiz-adv-x="500" d="M47 393 L47 358 L454 358 L454 393 L47 393 Z M47 288 L47 253 L454 253 L454 288 L47 288 Z " />
<glyph glyph-name="greater" unicode="&#x3e;" horiz-adv-x="500" d="M45 60 L456 327 L456 332 L45 605 L45 531 L381 308 L45 88 L45 60 Z " />
<glyph glyph-name="question" unicode="&#x3f;" horiz-adv-x="373" d="M145 200 C144 207 144 212 144 215 C144 266 163 296 226 341 C272 374 278 379 295 400 C323 434 337 473 337 516 C337 609 270 677 180 677 C98 677 31 619 31 549 C31 514 51 489 79 489 C101 489 119 507 119 531 C119 548 109 567 97 574 C77 585 73 589 73 597 C73 605 81 617 93 628 C114 646 147 657 183 657 C244 657 290 619 290 569 C290 538 272 509 226 468 C149 399 124 347 124 249 C124 231 125 218 128 192 L145 200 Z M144 110 C111 110 84 84 84 51 C84 19 110 -7 142 -7 C175 -7 202 19 202 51 C202 83 176 110 144 110 L144 110 Z " />
<glyph glyph-name="at" unicode="&#x40;" horiz-adv-x="684" d="M562 96 C501 43 432 16 356 16 C187 16 52 154 52 326 C52 498 187 635 357 635 C508 635 633 523 633 386 C633 325 610 268 569 225 C538 193 497 169 472 169 C456 169 448 178 448 196 C448 212 453 242 462 280 L513 492 L440 492 L429 447 C416 482 389 501 353 501 C261 501 169 390 169 281 C169 205 217 149 280 149 C320 149 350 168 382 214 C385 168 410 143 455 143 C503 143 560 173 602 220 C644 267 664 321 664 385 C664 542 529 664 356 664 C170 664 20 513 20 325 C20 137 169 -13 356 -13 C454 -13 534 22 604 96 L562 96 Z M365 483 C397 483 417 455 417 413 C417 380 394 290 373 236 C354 192 325 166 291 166 C260 166 240 192 240 232 C240 289 268 386 300 437 C317 465 342 483 365 483 L365 483 Z " />
<glyph glyph-name="A" unicode="A" horiz-adv-x="586" d="M343 215 L409 20 L322 20 L322 0 L593 0 L593 20 L522 20 L307 667 L277 667 L51 20 L3 20 L3 0 L165 0 L165 20 L78 20 L143 215 L343 215 Z M337 235 L150 235 L244 512 L337 235 Z " />
<glyph glyph-name="B" unicode="B" horiz-adv-x="611" d="M115 20 L32 20 L32 0 L271 0 C398 0 448 10 495 44 C541 78 565 123 565 175 C565 276 493 338 364 349 C478 372 537 425 537 506 C537 553 515 593 476 621 C425 657 376 667 253 667 L32 667 L32 647 L115 647 L115 20 Z M222 647 L250 647 C331 647 361 641 387 619 C413 597 428 554 428 499 C428 398 384 357 277 357 C263 357 255 357 222 358 L222 647 Z M222 20 L222 337 C248 339 265 339 280 339 C402 339 445 297 445 177 C445 114 432 74 403 48 C379 27 349 20 282 20 L222 20 Z " />
<glyph glyph-name="C" unicode="C" horiz-adv-x="584" d="M541 189 L526 189 C485 71 421 13 332 13 C275 13 226 36 200 75 C176 110 168 169 168 306 C168 452 178 538 199 578 C226 627 276 654 340 654 C433 654 500 595 526 491 L541 491 L541 667 L526 667 L492 620 C444 657 389 677 336 677 C175 677 42 521 42 332 C42 144 171 -10 327 -10 C385 -10 435 8 492 48 L526 0 L541 0 L541 189 Z " />
<glyph glyph-name="D" unicode="D" horiz-adv-x="675" d="M115 20 L32 20 L32 0 L269 0 C396 0 441 10 497 51 C585 115 634 218 634 338 C634 445 594 536 518 601 C456 654 406 667 260 667 L32 667 L32 647 L115 647 L115 20 Z M222 20 L222 647 L262 647 C317 647 338 646 355 644 C402 637 437 620 459 594 C496 553 507 494 507 347 C507 240 502 173 489 129 C477 85 443 49 399 34 C364 22 349 20 268 20 L222 20 Z " />
<glyph glyph-name="E" unicode="E" horiz-adv-x="584" d="M115 20 L32 20 L32 0 L528 0 L547 208 L534 208 C491 50 455 13 349 20 L222 20 L222 328 L254 328 C312 328 338 317 352 288 C362 268 364 257 368 196 L381 196 L381 471 L368 471 C366 362 347 346 222 347 L222 647 L299 647 C432 653 475 619 506 484 L519 484 L512 667 L32 667 L32 647 L115 647 L115 20 Z " />
<glyph glyph-name="F" unicode="F" horiz-adv-x="534" d="M115 20 L32 20 L32 0 L305 0 L305 20 L222 20 L222 328 L254 328 C312 328 338 317 352 288 C362 268 364 257 368 196 L381 196 L381 471 L368 471 C366 362 347 346 222 347 L222 647 L284 647 C407 648 418 646 458 604 C483 574 496 542 508 481 L521 481 L508 667 L32 667 L32 647 L115 647 L115 20 Z " />
<glyph glyph-name="G" unicode="G" horiz-adv-x="637" d="M528 667 L515 667 L481 627 C428 661 382 677 334 677 C174 677 42 521 42 333 C42 145 170 -10 325 -10 C406 -10 493 36 533 99 C552 129 560 160 563 213 L627 213 L627 233 L345 233 L345 213 L444 213 C444 152 440 121 431 95 C413 45 368 13 315 13 C260 13 212 43 193 91 C176 133 169 206 169 334 C169 470 181 557 205 594 C229 632 275 654 328 654 C375 654 413 639 446 608 C483 574 502 536 518 468 L533 468 L528 667 Z " />
<glyph glyph-name="H" unicode="H" horiz-adv-x="711" d="M490 331 L490 20 L407 20 L407 0 L680 0 L680 20 L597 20 L597 647 L680 647 L680 667 L407 667 L407 647 L490 647 L490 351 L222 351 L222 647 L305 647 L305 667 L32 667 L32 647 L115 647 L115 20 L32 20 L32 0 L305 0 L305 20 L222 20 L222 331 L490 331 Z " />
<glyph glyph-name="I" unicode="I" horiz-adv-x="337" d="M115 20 L32 20 L32 0 L305 0 L305 20 L222 20 L222 647 L305 647 L305 667 L32 667 L32 647 L115 647 L115 20 Z " />
<glyph glyph-name="J" unicode="J" horiz-adv-x="387" d="M179 647 L179 105 C179 19 178 7 170 -14 C160 -40 136 -59 114 -59 C101 -59 88 -50 88 -41 C88 -38 89 -36 91 -33 C102 -13 105 -5 105 8 C105 36 85 58 60 58 C30 58 7 34 7 2 C7 -44 53 -80 111 -80 C165 -80 224 -45 256 6 C278 42 286 79 286 148 L286 647 L369 647 L369 667 L96 667 L96 647 L179 647 Z " />
<glyph glyph-name="K" unicode="K" horiz-adv-x="653" d="M115 20 L32 20 L32 0 L305 0 L305 20 L222 20 L222 647 L305 647 L305 667 L32 667 L32 647 L115 647 L115 20 Z M318 407 L531 647 L615 647 L615 667 L402 667 L402 647 L500 647 L232 348 L476 20 L390 20 L390 0 L653 0 L653 20 L605 20 L318 407 Z " />
<glyph glyph-name="L" unicode="L" horiz-adv-x="570" d="M115 20 L32 20 L32 0 L530 0 L547 206 L534 206 C497 50 461 15 340 20 L222 20 L222 647 L305 647 L305 667 L32 667 L32 647 L115 647 L115 20 Z " />
<glyph glyph-name="M" unicode="M" horiz-adv-x="766" d="M109 20 L26 20 L26 0 L215 0 L215 20 L132 20 L132 637 L329 0 L354 0 L544 630 L544 20 L461 20 L461 0 L734 0 L734 20 L651 20 L651 647 L734 647 L734 667 L532 667 L383 175 L234 667 L26 667 L26 647 L109 647 L109 20 Z " />
<glyph glyph-name="N" unicode="N" horiz-adv-x="668" d="M108 20 L25 20 L25 0 L215 0 L215 20 L131 20 L131 628 L540 0 L563 0 L563 647 L646 647 L646 667 L456 667 L456 647 L540 647 L540 196 C510 248 493 275 428 374 L234 667 L25 667 L25 647 L108 647 L108 20 Z " />
<glyph glyph-name="O" unicode="O" horiz-adv-x="664" d="M332 677 C175 677 42 519 42 334 C42 148 175 -10 333 -10 C405 -10 474 22 526 79 C586 147 623 242 623 329 C623 520 492 677 332 677 L332 677 Z M333 654 C384 654 431 632 458 595 C486 555 496 488 496 329 C496 192 487 122 464 83 C439 39 389 13 333 13 C281 13 235 35 208 72 C179 112 169 179 169 333 C169 475 178 545 201 584 C226 628 275 654 333 654 L333 654 Z " />
<glyph glyph-name="P" unicode="P" horiz-adv-x="578" d="M115 20 L32 20 L32 0 L305 0 L305 20 L222 20 L222 322 L290 322 C388 322 438 332 482 361 C531 393 558 440 558 495 C558 544 538 585 499 617 C450 657 407 667 288 667 L32 667 L32 647 L115 647 L115 20 Z M222 342 L222 647 L289 647 C411 647 438 619 438 492 C438 430 427 391 404 368 C384 349 355 342 291 342 L222 342 Z " />
<glyph glyph-name="Q" unicode="Q" horiz-adv-x="664" d="M584 -204 C508 -201 476 -194 444 -174 C405 -150 387 -101 387 -24 L387 0 C429 9 455 22 491 50 C577 116 623 213 623 329 C623 518 491 677 335 677 C269 677 200 647 146 593 C78 527 42 437 42 337 C42 229 85 129 162 63 C196 33 226 17 279 0 C277 -158 357 -214 584 -218 L584 -204 Z M333 654 C393 654 436 632 464 586 C487 547 496 477 496 331 C496 207 488 130 471 95 C445 40 399 13 333 13 C272 13 229 35 202 81 C178 120 169 191 169 334 C169 460 177 536 194 573 C220 627 266 654 333 654 L333 654 Z " />
<glyph glyph-name="R" unicode="R" horiz-adv-x="637" d="M115 20 L32 20 L32 0 L305 0 L305 20 L222 20 L222 345 L253 345 C326 345 358 335 381 307 C399 284 405 257 407 195 C409 117 413 95 429 64 C451 23 497 -4 546 -4 C569 -4 592 1 618 12 L611 30 C590 21 581 19 572 19 C542 19 526 45 526 96 C526 99 526 110 527 124 L527 145 C527 196 519 230 498 264 C469 311 413 343 343 353 C469 361 547 423 547 514 C547 565 524 605 479 633 C433 661 396 667 264 667 L32 667 L32 647 L115 647 L115 20 Z M222 367 L222 647 L262 647 C335 647 361 642 388 621 C417 599 433 558 433 508 C433 455 417 413 388 392 C362 373 329 367 258 367 L222 367 Z " />
<glyph glyph-name="S" unicode="S" horiz-adv-x="498" d="M418 677 L404 677 L369 636 C326 664 287 677 244 677 C140 677 60 588 60 474 C60 425 76 384 107 355 C132 330 161 318 243 296 C320 276 338 270 358 255 C387 233 403 198 403 156 C403 71 344 13 258 13 C196 13 142 40 106 90 C84 120 73 151 64 206 L49 206 L49 0 L70 0 L107 48 C156 7 201 -10 257 -10 C372 -10 456 85 456 217 C456 279 436 330 397 365 C370 389 351 397 270 419 C206 436 174 446 157 456 C127 473 113 498 113 534 C113 604 168 654 244 654 C292 654 336 633 366 595 C387 569 397 545 403 501 L418 501 L418 677 Z " />
<glyph glyph-name="T" unicode="T" horiz-adv-x="581" d="M236 20 L142 20 L142 0 L438 0 L438 20 L345 20 L345 647 L379 647 C445 648 464 641 495 605 C526 564 544 519 555 456 L570 456 L563 667 L17 667 L10 456 L25 456 C36 519 54 564 86 605 C116 641 136 648 202 647 L236 647 L236 20 Z " />
<glyph glyph-name="U" unicode="U" horiz-adv-x="642" d="M518 647 L518 265 C518 155 515 132 498 94 C474 41 427 13 362 13 C307 13 260 34 236 70 C210 107 208 124 208 265 L208 647 L292 647 L292 667 L18 667 L18 647 L101 647 L101 265 C101 133 110 94 152 53 C192 14 262 -10 339 -10 C415 -10 474 15 505 61 C535 105 541 137 541 265 L541 647 L624 647 L624 667 L434 667 L434 647 L518 647 Z " />
<glyph glyph-name="V" unicode="V" horiz-adv-x="582" d="M520 647 L586 647 L586 667 L398 667 L398 647 L496 647 L335 158 L169 647 L261 647 L261 667 L-4 667 L-4 647 L56 647 L285 -10 L306 -10 L520 647 Z " />
<glyph glyph-name="W" unicode="W" horiz-adv-x="799" d="M746 647 L799 647 L799 667 L629 667 L629 647 L719 647 L564 151 L464 442 L535 647 L595 647 L595 667 L-3 667 L-3 647 L52 647 L280 -10 L303 -10 L408 287 L513 -10 L535 -10 L746 647 Z M508 647 L450 482 L392 647 L508 647 Z M280 647 L396 326 L334 151 L164 647 L280 647 Z " />
<glyph glyph-name="X" unicode="X" horiz-adv-x="596" d="M262 282 L413 20 L328 20 L328 0 L595 0 L595 20 L539 20 L328 388 L491 647 L561 647 L561 667 L371 667 L371 647 L463 647 L313 410 L174 647 L267 647 L267 667 L3 667 L3 647 L49 647 L249 305 L72 20 L3 20 L3 0 L193 0 L193 20 L99 20 L262 282 Z " />
<glyph glyph-name="Y" unicode="Y" horiz-adv-x="578" d="M236 20 L143 20 L143 0 L436 0 L436 20 L343 20 L343 316 C346 321 348 325 349 327 L352 334 C359 351 360 353 365 363 L376 384 L516 647 L585 647 L585 667 L390 667 L390 647 L490 647 L333 356 C330 364 327 370 319 384 L165 647 L250 647 L250 667 L-9 667 L-9 647 L42 647 L236 316 L236 20 Z " />
<glyph glyph-name="Z" unicode="Z" horiz-adv-x="546" d="M25 0 L501 0 L519 210 L506 210 C485 120 467 82 434 49 C405 23 392 20 304 20 L133 20 L529 667 L67 667 L48 463 L61 463 C100 614 139 654 241 647 L396 647 L25 44 L25 0 Z " />
<glyph glyph-name="bracketleft" unicode="&#x5b;" horiz-adv-x="269" d="M60 -180 L263 -180 L263 -160 L147 -160 L147 647 L263 647 L263 667 L60 667 L60 -180 Z " />
<glyph glyph-name="backslash" unicode="&#x5c;" horiz-adv-x="405" d="M448 -180 L91 667 L34 667 L390 -180 L448 -180 Z " />
<glyph glyph-name="bracketright" unicode="&#x5d;" horiz-adv-x="269" d="M208 667 L5 667 L5 647 L121 647 L121 -160 L5 -160 L5 -180 L208 -180 L208 667 Z " />
<glyph glyph-name="asciicircum" unicode="&#x5e;" horiz-adv-x="500" d="M527 284 L261 700 L254 700 L-26 284 L95 284 L292 577 L481 284 L527 284 Z " />
<glyph glyph-name="underscore" unicode="&#x5f;" horiz-adv-x="500" d="M18 -89 L18 -142 L482 -142 L482 -89 L18 -89 Z " />
<glyph glyph-name="grave" unicode="&#x60;" horiz-adv-x="500" d="M200 616 L125 616 C119 616 116 614 116 608 C116 605 118 602 121 599 L287 463 L297 473 L200 616 Z " />
<glyph glyph-name="a" unicode="a" horiz-adv-x="443" d="M414 35 C396 20 394 19 384 19 C374 19 370 22 367 31 C363 40 363 40 363 135 L363 245 C363 333 362 338 340 361 C316 387 271 403 222 403 C139 403 65 356 65 303 C65 277 83 259 108 259 C131 259 149 277 149 302 C149 313 146 321 135 333 C131 338 130 340 130 344 C130 364 170 386 206 386 C228 386 250 378 260 366 C271 353 273 343 273 286 L273 217 C206 216 165 209 128 195 C69 171 37 132 37 83 C37 28 80 -10 143 -10 C197 -10 244 18 273 68 C279 17 308 -10 357 -10 C383 -10 403 -2 426 20 L414 35 Z M273 180 C273 128 268 98 257 79 C241 50 216 34 186 34 C148 34 126 59 126 101 C126 134 141 159 171 177 C195 192 220 198 273 200 L273 180 Z " />
<glyph glyph-name="b" unicode="b" horiz-adv-x="497" d="M84 20 L17 20 L17 0 L174 0 L174 68 C202 14 237 -10 289 -10 C383 -10 463 87 463 201 C463 312 386 403 294 403 C240 403 197 374 174 322 L174 667 L17 667 L17 647 L84 647 L84 20 Z M281 380 C311 380 334 363 346 333 C354 314 356 281 356 186 C356 117 354 87 351 71 C342 36 316 13 283 13 C217 13 172 89 172 199 C172 304 217 380 281 380 L281 380 Z " />
<glyph glyph-name="c" unicode="c" horiz-adv-x="407" d="M366 127 C341 53 295 13 233 13 C203 13 178 24 162 44 C146 65 141 94 141 167 C141 256 148 314 161 339 C176 366 203 380 239 380 C272 380 308 364 308 349 C308 346 307 345 304 342 C291 327 284 310 284 295 C284 268 303 248 329 248 C357 248 376 269 376 300 C376 356 312 403 236 403 C127 403 35 307 35 194 C35 85 124 -10 227 -10 C304 -10 356 33 391 127 L366 127 Z " />
<glyph glyph-name="d" unicode="d" horiz-adv-x="493" d="M410 667 L253 667 L253 647 L320 647 L320 322 C287 378 251 403 201 403 C110 403 35 311 35 198 C35 84 111 -10 203 -10 C256 -10 298 21 320 76 L320 0 L477 0 L477 20 L410 20 L410 667 Z M212 380 C273 380 318 302 318 198 C318 92 273 13 213 13 C189 13 166 28 154 52 C144 72 142 92 142 184 C142 292 146 329 158 349 C171 368 191 380 212 380 L212 380 Z " />
<glyph glyph-name="e" unicode="e" horiz-adv-x="425" d="M398 229 C396 271 389 295 372 322 C340 373 285 403 223 403 C123 403 35 307 35 197 C35 87 126 -10 228 -10 C308 -10 375 48 391 132 L367 132 C348 57 298 13 234 13 C196 13 167 29 152 59 C141 80 139 101 139 200 L139 229 L398 229 Z M139 249 C139 324 139 324 150 344 C162 367 189 380 222 380 C253 380 277 366 286 341 C293 323 294 315 294 249 L139 249 Z " />
<glyph glyph-name="f" unicode="f" horiz-adv-x="304" d="M188 373 L279 373 L279 393 L188 393 L188 528 C188 607 188 612 197 629 C206 647 222 657 242 657 C254 657 262 655 270 650 C258 637 252 623 252 608 C252 584 269 565 292 565 C314 565 333 586 333 611 C333 647 293 677 245 677 C204 677 165 656 136 620 C108 583 98 546 98 474 L98 393 L31 393 L31 373 L98 373 L98 20 L31 20 L31 0 L270 0 L270 20 L188 20 L188 373 Z " />
<glyph glyph-name="g" unicode="g" horiz-adv-x="439" d="M269 22 C240 22 219 22 215 21 C147 20 147 20 137 20 C86 20 69 29 69 57 C69 83 92 111 136 139 C163 127 181 123 210 123 C306 123 372 179 372 261 C372 293 362 322 341 350 C353 363 357 366 364 366 C370 366 373 361 375 350 C379 330 390 320 409 320 C429 320 445 336 445 358 C445 385 426 403 399 403 C375 403 355 392 327 362 C298 389 260 403 213 403 C123 403 55 342 55 263 C55 218 74 183 117 149 C58 111 29 69 29 24 C29 -20 56 -51 104 -64 C54 -80 25 -112 25 -152 C25 -218 105 -272 205 -272 C330 -272 416 -195 416 -84 C416 -43 403 -12 379 5 C359 18 341 22 298 22 L269 22 Z M213 383 C241 383 257 377 266 363 C275 351 277 333 277 273 C277 208 274 184 265 169 C255 152 237 144 212 144 C164 144 150 165 150 238 C150 305 152 338 159 354 C166 374 184 383 213 383 L213 383 Z M120 -64 C142 -67 151 -67 176 -67 C188 -67 261 -66 281 -65 C306 -64 325 -64 329 -64 C370 -64 385 -75 385 -106 C385 -186 308 -247 208 -247 C135 -247 86 -204 86 -142 C86 -112 96 -89 120 -64 L120 -64 Z " />
<glyph glyph-name="h" unicode="h" horiz-adv-x="528" d="M84 20 L17 20 L17 0 L234 0 L234 20 L174 20 L174 165 C174 239 178 273 190 303 C208 347 247 374 292 374 C315 374 334 366 344 352 C353 338 355 327 355 258 L355 20 L295 20 L295 0 L511 0 L511 20 L445 20 L445 258 C445 328 441 345 424 366 C404 390 366 403 321 403 C255 403 209 378 174 322 L174 667 L17 667 L17 647 L84 647 L84 20 Z " />
<glyph glyph-name="i" unicode="i" horiz-adv-x="270" d="M97 20 L30 20 L30 0 L253 0 L253 20 L187 20 L187 393 L30 393 L30 373 L97 373 L97 20 Z M138 654 C106 654 83 630 83 598 C83 565 106 540 138 540 C169 540 194 565 194 597 C194 629 169 654 138 654 L138 654 Z " />
<glyph glyph-name="j" unicode="j" horiz-adv-x="239" d="M83 373 L83 -144 C83 -197 83 -206 80 -218 C74 -238 62 -250 46 -250 C33 -250 27 -244 27 -229 C27 -226 27 -223 28 -221 C31 -204 31 -203 31 -197 C31 -172 15 -155 -9 -155 C-34 -155 -50 -173 -50 -201 C-50 -241 -11 -271 41 -271 C84 -271 126 -247 150 -208 C168 -178 173 -147 173 -61 L173 393 L16 393 L16 373 L83 373 Z M125 654 C93 654 70 630 70 598 C70 565 94 540 125 540 C156 540 181 565 181 597 C181 629 156 654 125 654 L125 654 Z " />
<glyph glyph-name="k" unicode="k" horiz-adv-x="489" d="M174 667 L17 667 L17 647 L84 647 L84 20 L17 20 L17 0 L240 0 L240 20 L174 20 L174 667 Z M259 252 L384 373 L454 373 L454 393 L252 393 L252 373 L350 373 L183 210 L327 20 L276 20 L276 0 L491 0 L491 20 L445 20 L259 252 Z " />
<glyph glyph-name="l" unicode="l" horiz-adv-x="257" d="M84 20 L17 20 L17 0 L240 0 L240 20 L174 20 L174 667 L17 667 L17 647 L84 647 L84 20 Z " />
<glyph glyph-name="m" unicode="m" horiz-adv-x="763" d="M97 20 L30 20 L30 0 L247 0 L247 20 L187 20 L187 128 C187 243 191 294 204 321 C217 349 251 370 285 370 C305 370 323 361 331 348 C339 335 342 314 342 266 L342 20 L282 20 L282 0 L492 0 L492 20 L432 20 L432 128 C432 284 432 290 449 323 C465 353 498 373 532 373 C548 373 563 368 572 359 C586 345 588 333 588 266 L588 20 L528 20 L528 0 L744 0 L744 20 L678 20 L678 266 C678 320 672 346 658 365 C639 389 603 403 562 403 C502 403 458 382 425 337 C418 360 411 369 397 379 C376 395 348 403 316 403 C263 403 222 384 187 343 L187 393 L30 393 L30 373 L97 373 L97 20 Z " />
<glyph glyph-name="n" unicode="n" horiz-adv-x="526" d="M97 20 L30 20 L30 0 L247 0 L247 20 L187 20 L187 139 C187 262 192 305 212 333 C228 357 259 373 285 373 C305 373 323 364 334 349 C349 329 353 293 353 174 L353 20 L293 20 L293 0 L509 0 L509 20 L443 20 L443 242 C443 316 437 339 415 364 C393 388 353 403 312 403 C259 403 220 384 187 341 L187 393 L30 393 L30 373 L97 373 L97 20 Z " />
<glyph glyph-name="o" unicode="o" horiz-adv-x="475" d="M237 403 C126 403 35 310 35 197 C35 82 125 -10 238 -10 C348 -10 440 82 440 194 C440 311 351 403 237 403 L237 403 Z M236 380 C276 380 301 369 317 345 C332 324 333 312 333 195 C333 90 332 75 322 56 C307 27 279 13 238 13 C199 13 174 24 158 48 C143 70 142 81 142 197 C142 304 143 318 153 338 C168 366 196 380 236 380 L236 380 Z " />
<glyph glyph-name="p" unicode="p" horiz-adv-x="494" d="M84 -247 L17 -247 L17 -267 L240 -267 L240 -247 L174 -247 L174 78 C201 18 238 -10 291 -10 C382 -10 460 89 460 204 C460 314 386 403 295 403 C242 403 200 375 174 320 L174 393 L17 393 L17 373 L84 373 L84 -247 Z M284 380 C307 380 325 371 337 352 C349 333 353 302 353 206 C353 127 349 80 340 57 C329 27 311 13 284 13 C218 13 177 86 177 201 C177 273 194 326 226 354 C246 373 263 380 284 380 L284 380 Z " />
<glyph glyph-name="q" unicode="q" horiz-adv-x="495" d="M412 373 L479 373 L479 393 L322 393 L322 321 C299 371 252 403 203 403 C110 403 35 313 35 201 C35 85 114 -10 209 -10 C257 -10 300 21 322 73 L322 -247 L245 -247 L245 -267 L479 -267 L479 -247 L412 -247 L412 373 Z M214 380 C233 380 253 372 270 356 C305 325 319 278 319 189 C319 121 310 85 286 53 C267 28 241 13 216 13 C185 13 161 32 151 64 C144 84 142 112 142 176 C142 272 145 314 153 337 C162 362 188 380 214 380 L214 380 Z " />
<glyph glyph-name="r" unicode="r" horiz-adv-x="371" d="M97 20 L30 20 L30 0 L253 0 L253 20 L187 20 L187 113 C187 229 197 286 227 337 C236 352 247 362 254 362 C262 362 263 359 264 341 C266 312 283 294 309 294 C337 294 358 316 358 345 C358 379 332 403 295 403 C249 403 214 369 187 298 L187 393 L30 393 L30 373 L97 373 L97 20 Z " />
<glyph glyph-name="s" unicode="s" horiz-adv-x="341" d="M291 398 L276 398 L260 366 C226 393 199 403 163 403 C95 403 45 351 45 281 C45 247 56 216 75 195 C95 174 119 164 181 154 C252 142 275 127 275 89 C275 46 236 13 185 13 C147 13 112 31 91 61 C76 83 66 109 55 150 L41 150 L44 0 L55 0 L79 32 C118 1 145 -10 184 -10 C257 -10 312 47 312 124 C312 156 303 186 286 206 C264 231 239 243 177 254 C100 267 79 280 79 310 C79 349 117 380 165 380 C224 380 270 340 279 280 L294 280 L291 398 Z " />
<glyph glyph-name="t" unicode="t" horiz-adv-x="291" d="M174 546 L158 546 C134 476 89 423 23 387 L23 373 L84 373 L84 119 C84 57 86 47 103 26 C122 2 152 -10 189 -10 C249 -10 285 19 295 75 L274 75 C267 38 250 21 220 21 C203 21 189 28 182 40 C175 50 174 60 174 89 L174 373 L274 373 L274 393 L174 393 L174 546 Z " />
<glyph glyph-name="u" unicode="u" horiz-adv-x="530" d="M440 393 L283 393 L283 373 L350 373 L350 233 C350 124 345 91 325 59 C307 31 274 13 238 13 C216 13 198 19 188 30 C176 44 174 62 174 160 L174 393 L17 393 L17 373 L84 373 L84 160 C84 76 89 51 115 26 C138 3 175 -10 219 -10 C279 -10 322 11 350 55 L350 0 L506 0 L506 20 L440 20 L440 393 Z " />
<glyph glyph-name="v" unicode="v" horiz-adv-x="411" d="M373 373 L413 373 L413 393 L270 393 L270 373 L346 373 L243 104 L138 373 L210 373 L210 393 L-2 393 L-2 373 L40 373 L193 -10 L228 -10 L373 373 Z " />
<glyph glyph-name="w" unicode="w" horiz-adv-x="608" d="M563 373 L610 373 L610 393 L460 393 L460 373 L537 373 L460 114 L357 393 L322 393 L236 114 L142 373 L208 373 L208 393 L-2 393 L-2 373 L44 373 L191 -10 L222 -10 L307 266 L413 -10 L444 -10 L563 373 Z " />
<glyph glyph-name="x" unicode="x" horiz-adv-x="438" d="M247 233 L354 373 L422 373 L422 393 L259 393 L259 373 L324 373 L234 254 L154 373 L213 373 L213 393 L3 393 L3 373 L48 373 L179 181 L58 20 L3 20 L3 0 L163 0 L163 20 L87 20 L192 161 L289 20 L247 20 L247 0 L435 0 L435 20 L394 20 L247 233 Z " />
<glyph glyph-name="y" unicode="y" horiz-adv-x="410" d="M372 373 L412 373 L412 393 L266 393 L266 373 L345 373 L252 117 L141 373 L211 373 L211 393 L-2 393 L-2 373 L41 373 L211 0 L155 -148 C136 -196 133 -201 123 -201 C117 -201 114 -199 108 -190 C98 -176 84 -169 66 -169 C38 -169 18 -189 18 -216 C18 -244 42 -265 75 -265 C120 -265 149 -235 176 -159 L372 373 Z " />
<glyph glyph-name="z" unicode="z" horiz-adv-x="399" d="M379 393 L57 393 L57 240 L70 240 C103 357 122 375 208 373 L261 373 L20 0 L364 0 L366 167 L353 167 C321 37 305 20 213 20 L134 20 L379 393 Z " />
<glyph glyph-name="braceleft" unicode="&#x7b;" horiz-adv-x="269" d="M3 249 C52 246 60 228 59 127 L59 2 C60 -104 63 -119 92 -150 C123 -175 140 -178 244 -180 L244 -160 C205 -159 184 -151 166 -127 C151 -105 150 -100 144 -25 L144 130 C146 207 122 246 66 256 L66 260 C90 264 108 274 123 291 C140 315 141 321 145 390 L145 513 C144 609 170 643 244 647 L244 667 C213 666 185 665 182 665 C143 664 125 660 106 647 C71 621 59 583 59 503 L59 375 C58 289 47 267 3 266 L3 249 Z " />
<glyph glyph-name="bar" unicode="&#x7c;" horiz-adv-x="500" d="M216 667 L216 -167 L284 -167 L284 667 L216 667 Z " />
<glyph glyph-name="braceright" unicode="&#x7d;" horiz-adv-x="269" d="M244 266 C200 267 189 289 188 375 L188 503 C188 632 153 669 33 666 C29 666 16 666 3 667 L3 647 C77 643 103 609 102 513 L102 390 C100 308 120 273 181 260 L181 256 C124 246 100 207 102 130 L102 -25 C101 -126 77 -158 3 -160 L3 -180 C102 -178 115 -176 147 -156 C183 -125 187 -108 188 2 L188 127 C187 228 195 246 244 249 L244 266 Z " />
<glyph glyph-name="asciitilde" unicode="&#x7e;" horiz-adv-x="500" d="M399 375 C378 348 369 342 346 342 C329 342 308 345 293 351 L249 366 C222 375 212 377 193 377 C144 377 111 353 86 300 L101 291 C118 316 132 324 162 324 C179 324 196 321 216 314 L259 300 C283 292 297 289 310 289 C351 289 385 314 414 366 L399 375 Z " />
<glyph glyph-name="uni00A0" unicode="&#xa0;" horiz-adv-x="250" d="" />
<glyph glyph-name="exclamdown" unicode="&#xa1;" horiz-adv-x="265" d="M122 210 C119 92 111 16 90 -94 C75 -163 74 -173 74 -202 C74 -243 96 -270 130 -270 C165 -270 189 -241 189 -200 C189 -182 186 -162 171 -86 C150 13 143 77 141 210 L122 210 Z M134 413 C101 413 74 387 74 355 C74 323 101 296 132 296 C165 296 192 322 192 355 C192 387 166 413 134 413 L134 413 Z " />
<glyph glyph-name="cent" unicode="&#xa2;" horiz-adv-x="500" d="M287 524 C318 522 348 506 348 492 C348 488 347 487 342 482 C332 471 324 451 324 436 C324 410 344 389 370 389 C398 389 417 411 417 441 C417 470 397 500 364 520 C342 534 322 539 287 542 L287 630 L259 630 L259 542 C157 534 75 442 75 337 C75 229 153 142 259 131 L259 36 L287 36 L287 132 C355 139 413 194 432 268 L406 268 C386 201 345 161 287 153 L287 524 Z M259 152 C195 164 178 195 178 299 C178 464 195 510 259 522 L259 152 Z " />
<glyph glyph-name="sterling" unicode="&#xa3;" horiz-adv-x="500" d="M266 296 C256 311 251 319 235 342 C180 419 164 458 164 511 C164 597 217 656 295 656 C351 656 394 625 394 584 C394 577 391 572 384 566 C364 550 357 538 357 520 C357 492 378 471 406 471 C442 471 469 501 469 540 C469 613 386 677 291 677 C173 677 72 588 72 485 C72 445 86 410 117 371 C132 352 140 343 180 296 L58 296 L58 263 L205 263 C239 222 251 195 251 163 C251 150 250 140 246 116 C184 138 159 143 121 143 C54 143 8 113 8 69 C8 25 51 -6 113 -6 C161 -6 191 4 245 38 C295 2 335 -13 374 -13 C461 -13 511 54 512 171 L484 171 L484 156 C484 97 449 54 402 54 C376 54 345 66 278 103 C288 135 293 163 293 193 C293 220 289 238 279 263 L415 263 L415 296 L266 296 Z M216 56 C187 33 155 21 117 21 C75 21 42 42 42 68 C42 90 63 106 90 106 C120 106 164 89 216 56 L216 56 Z " />
<glyph glyph-name="currency" unicode="&#xa4;" horiz-adv-x="500" d="M381 481 C342 512 299 528 250 528 C201 528 161 513 120 481 L54 547 L30 523 L97 457 C65 420 49 375 49 327 C49 279 65 236 96 196 L30 130 L54 106 L120 173 C158 141 203 125 250 125 C298 125 344 142 381 173 L447 106 L471 130 L404 196 C436 234 452 279 452 327 C452 375 437 417 404 457 L471 523 L447 547 L381 481 Z M250 462 C326 462 386 401 386 325 C386 251 325 191 248 191 C176 191 115 253 115 326 C115 401 176 462 250 462 L250 462 Z " />
<glyph glyph-name="yen" unicode="&#xa5;" horiz-adv-x="500" d="M203 304 L203 20 L121 20 L121 0 L378 0 L378 20 L296 20 L296 304 L434 304 L434 324 L303 324 L350 433 L475 433 L475 453 L358 453 L432 627 L493 627 L493 647 L322 647 L322 627 L407 627 L284 339 L158 627 L232 627 L232 647 L6 647 L6 627 L51 627 L133 453 L24 453 L24 433 L143 433 L195 324 L65 324 L65 304 L203 304 Z " />
<glyph glyph-name="brokenbar" unicode="&#xa6;" horiz-adv-x="500" d="M216 667 L216 326 L284 326 L284 667 L216 667 Z M216 153 L216 -167 L284 -167 L284 153 L216 153 Z " />
<glyph glyph-name="section" unicode="&#xa7;" horiz-adv-x="500" d="M350 117 C415 142 448 192 448 262 C448 302 435 333 408 356 C385 377 360 392 276 435 C196 476 187 482 169 494 C144 512 132 535 132 565 C132 621 180 657 254 657 C307 657 340 642 367 607 C327 599 305 578 305 546 C305 520 329 499 357 499 C392 499 419 527 419 563 C419 626 347 677 257 677 C152 677 81 612 81 517 C81 466 103 429 153 393 C90 374 53 322 53 254 C53 210 69 176 99 152 C121 135 140 125 226 80 C309 37 337 21 357 4 C377 -12 387 -34 387 -61 C387 -127 326 -170 233 -170 C170 -170 119 -148 92 -110 C98 -111 102 -111 105 -111 C141 -111 171 -81 171 -44 C171 -11 148 13 117 13 C81 13 51 -18 51 -56 C51 -133 127 -190 228 -190 C355 -190 445 -122 445 -25 C445 32 422 66 350 117 L350 117 Z M169 379 C187 379 199 375 237 357 C285 334 324 313 355 294 C388 274 406 246 406 215 C406 171 372 134 332 134 C309 134 286 144 189 196 C112 237 94 256 94 296 C94 339 130 379 169 379 L169 379 Z " />
<glyph glyph-name="dieresis" unicode="&#xa8;" horiz-adv-x="500" d="M160 591 C131 591 107 568 107 541 C107 512 129 490 158 490 C187 490 210 512 210 540 C210 568 187 591 160 591 L160 591 Z M342 591 C313 591 291 569 291 541 C291 512 313 490 343 490 C373 490 394 510 394 539 C394 568 371 591 342 591 L342 591 Z " />
<glyph glyph-name="copyright" unicode="&#xa9;" horiz-adv-x="777" d="M525 256 L510 256 C486 190 449 158 397 158 C364 158 335 170 320 191 C307 210 302 242 302 318 C302 399 308 447 320 468 C335 494 365 509 401 509 C457 509 495 477 510 418 L525 418 L525 523 L511 523 L492 498 C463 518 430 529 399 529 C300 529 219 440 219 333 C219 226 298 138 393 138 C428 138 457 147 492 169 L511 143 L525 143 L525 256 Z M389 677 C197 677 42 523 42 333 C42 147 198 -10 383 -10 C579 -10 735 141 735 331 C735 524 581 677 389 677 L389 677 Z M389 644 C559 644 695 505 695 331 C695 160 556 23 384 23 C220 23 82 165 82 333 C82 505 219 644 389 644 L389 644 Z " />
<glyph glyph-name="ordfeminine" unicode="&#xaa;" horiz-adv-x="333" d="M308 330 L25 330 L25 297 L308 297 L308 330 Z M296 429 C282 417 282 417 276 417 C264 417 264 417 264 492 L264 566 C264 625 263 629 248 645 C231 663 201 674 166 674 C108 674 57 641 57 604 C57 586 70 572 89 572 C106 572 119 586 119 603 C119 612 116 619 110 625 C108 629 107 630 107 632 C107 644 134 658 155 658 C170 658 183 653 190 645 C197 637 198 631 198 593 L198 550 C94 547 38 515 38 458 C38 419 68 393 113 393 C147 393 181 411 199 440 C205 410 226 393 257 393 C276 393 290 399 307 415 L296 429 Z M198 523 C198 499 196 478 192 466 C185 444 164 428 142 428 C117 428 103 443 103 470 C103 510 134 530 198 533 L198 523 Z " />
<glyph glyph-name="guillemotleft" unicode="&#xab;" horiz-adv-x="382" d="M43 198 L154 94 L217 94 L105 198 L217 304 L158 304 L43 198 Z M158 198 L269 94 L332 94 L220 198 L332 304 L273 304 L158 198 Z " />
<glyph glyph-name="logicalnot" unicode="&#xac;" horiz-adv-x="500" d="M351 0 L466 0 L466 267 L34 267 L34 217 L351 217 L351 0 Z " />
<glyph glyph-name="uni00AD" unicode="&#xad;" horiz-adv-x="193" d="M0 234 L0 168 L193 168 L193 234 L0 234 Z " />
<glyph glyph-name="registered" unicode="&#xae;" horiz-adv-x="777" d="M266 161 L216 161 L216 143 L387 143 L387 161 L337 161 L337 336 C343 337 352 337 353 337 C424 337 440 323 441 256 C443 211 445 198 455 181 C469 157 498 141 528 141 C544 141 558 144 576 151 L569 167 C554 162 548 161 543 161 C527 161 519 174 519 201 C519 202 519 209 520 217 L520 233 C520 289 493 322 431 343 C498 356 532 387 532 434 C532 464 518 487 489 503 C461 520 439 523 359 523 L216 523 L216 505 L266 505 L266 161 Z M337 355 L337 505 L358 505 C400 505 416 502 431 491 C448 479 457 458 457 430 C457 402 447 379 432 369 C416 359 397 355 355 355 L337 355 Z M389 677 C197 677 42 523 42 333 C42 147 198 -10 383 -10 C579 -10 735 141 735 331 C735 524 581 677 389 677 L389 677 Z M389 644 C559 644 695 505 695 331 C695 160 556 23 384 23 C220 23 82 165 82 333 C82 505 219 644 389 644 L389 644 Z " />
<glyph glyph-name="macron" unicode="&#xaf;" horiz-adv-x="410" d="M67 544 L67 510 L344 510 L344 544 L67 544 Z " />
<glyph glyph-name="degree" unicode="&#xb0;" horiz-adv-x="400" d="M203 686 C117 686 50 619 50 534 C50 448 116 380 200 380 C284 380 350 447 350 533 C350 619 286 686 203 686 L203 686 Z M202 629 C252 629 293 586 293 533 C293 479 252 437 200 437 C148 437 106 480 106 532 C106 587 148 629 202 629 L202 629 Z " />
<glyph glyph-name="plusminus" unicode="&#xb1;" horiz-adv-x="500" d="M233 306 L233 130 L268 130 L268 306 L454 306 L454 341 L268 341 L268 517 L233 517 L233 341 L47 341 L47 306 L233 306 Z M47 31 L454 31 L454 66 L47 66 L47 31 Z " />
<glyph glyph-name="twosuperior" unicode="&#xb2;" horiz-adv-x="332" d="M284 369 L265 369 C257 312 257 311 212 312 L82 312 C178 401 226 446 227 447 C269 491 286 522 286 554 C286 611 233 653 162 653 C95 653 45 614 45 562 C45 528 65 503 93 503 C112 503 128 517 128 534 C128 551 113 564 93 564 C89 564 87 563 80 561 C73 559 73 559 72 559 C68 559 66 564 66 570 C66 601 101 630 139 630 C183 630 212 592 212 533 C212 496 202 471 173 437 C155 416 129 389 29 291 L29 258 L280 258 L284 369 Z " />
<glyph glyph-name="threesuperior" unicode="&#xb3;" horiz-adv-x="332" d="M84 458 C137 458 146 457 165 449 C199 437 213 412 213 363 C213 303 187 271 138 271 C113 271 81 287 81 298 C81 300 82 301 86 304 C97 312 103 322 103 334 C103 350 89 363 71 363 C52 363 36 347 36 327 C36 286 85 253 146 253 C228 253 292 303 292 369 C292 423 256 455 178 470 C241 492 270 523 270 566 C270 615 222 653 158 653 C102 653 59 624 59 587 C59 567 73 552 91 552 C108 552 121 565 121 581 C121 591 115 602 108 608 C101 612 101 612 101 614 C101 624 126 635 148 635 C181 635 196 614 196 569 C196 528 187 504 166 491 C150 481 137 479 84 478 L84 458 Z " />
<glyph glyph-name="acute" unicode="&#xb4;" horiz-adv-x="500" d="M300 616 L203 473 L212 463 L379 599 C382 602 384 605 384 608 C384 614 381 616 375 616 L300 616 Z " />
<glyph glyph-name="mu" unicode="&#xb5;" horiz-adv-x="576" d="M442 500 L353 500 L354 131 C318 80 284 58 242 58 C184 58 150 99 150 169 L150 500 L62 500 L62 20 C62 -1 58 -26 51 -56 C34 -118 33 -123 33 -147 C33 -190 54 -219 83 -219 C112 -219 132 -189 132 -145 C132 -124 129 -110 113 -53 C102 -17 101 -8 101 21 L101 33 C143 -3 165 -13 200 -13 C250 -13 301 18 354 80 C362 48 367 36 377 21 C392 0 419 -13 449 -13 C510 -13 553 31 567 108 L540 109 C536 71 515 41 492 41 C462 41 442 77 442 131 L442 500 Z " />
<glyph glyph-name="paragraph" unicode="&#xb6;" horiz-adv-x="500" d="M229 -160 L152 -160 L152 -180 L464 -180 L464 -160 L411 -160 L411 647 L464 647 L464 667 L225 667 C177 667 136 658 108 640 C59 610 28 551 28 486 C28 380 101 308 208 308 L229 308 L229 -160 Z M280 -160 L280 647 L361 647 L361 -160 L280 -160 Z " />
<glyph glyph-name="periodcentered" unicode="&#xb7;" horiz-adv-x="238" d="M120 259 C87 259 60 233 60 200 C60 168 86 142 118 142 C151 142 178 168 178 200 C178 232 152 259 120 259 L120 259 Z " />
<glyph glyph-name="cedilla" unicode="&#xb8;" horiz-adv-x="500" d="M284 0 L264 -60 C303 -75 315 -88 315 -117 C315 -145 297 -162 268 -162 C247 -162 227 -152 227 -142 L227 -136 C228 -133 228 -130 228 -128 C228 -110 220 -98 208 -98 C199 -98 192 -106 192 -118 C192 -152 230 -178 282 -178 C340 -178 383 -147 383 -106 C383 -74 350 -52 302 -52 L287 -52 L304 0 L284 0 Z " />
<glyph glyph-name="onesuperior" unicode="&#xb9;" horiz-adv-x="332" d="M141 278 L78 278 L78 259 L275 259 L275 278 L212 278 L212 651 L78 644 L78 626 L128 627 L137 627 C139 627 140 627 140 626 C141 625 141 624 141 616 L141 278 Z " />
<glyph glyph-name="ordmasculine" unicode="&#xba;" horiz-adv-x="333" d="M308 330 L25 330 L25 297 L308 297 L308 330 Z M166 674 C89 674 27 611 27 534 C27 456 89 393 167 393 C243 393 306 456 306 532 C306 612 245 674 166 674 L166 674 Z M166 653 C191 653 207 646 218 631 C227 617 228 610 228 533 C228 463 227 453 221 441 C211 423 194 414 167 414 C142 414 126 421 115 436 C106 450 105 457 105 534 C105 605 106 614 112 626 C122 644 139 653 166 653 L166 653 Z " />
<glyph glyph-name="guillemotright" unicode="&#xbb;" horiz-adv-x="382" d="M339 200 L228 304 L165 304 L277 200 L165 94 L224 94 L339 200 Z M224 200 L113 304 L50 304 L162 200 L50 94 L109 94 L224 200 Z " />
<glyph glyph-name="onequarter" unicode="&#xbc;" horiz-adv-x="758" d="M141 278 L78 278 L78 259 L275 259 L275 278 L212 278 L212 651 L78 644 L78 626 L128 627 L137 627 C139 627 140 627 140 626 C141 625 141 624 141 616 L141 278 Z M533 647 L221 0 L251 0 L563 647 L533 647 Z M594 102 L594 19 L531 19 L531 0 L720 0 L720 19 L665 19 L665 102 L710 102 L710 58 L731 58 L731 168 L710 168 L710 124 L665 124 L665 392 L622 392 L446 129 L446 102 L594 102 Z M594 124 L468 124 L594 313 L594 124 Z " />
<glyph glyph-name="onehalf" unicode="&#xbd;" horiz-adv-x="758" d="M141 278 L78 278 L78 259 L275 259 L275 278 L212 278 L212 651 L78 644 L78 626 L128 627 L137 627 C139 627 140 627 140 626 C141 625 141 624 141 616 L141 278 Z M520 647 L208 0 L237 0 L549 647 L520 647 Z M710 111 L692 111 C683 54 683 53 639 54 L509 54 C605 142 653 187 654 188 C696 232 713 263 713 295 C713 352 660 394 589 394 C521 394 471 355 471 304 C471 270 491 245 520 245 C539 245 555 259 555 275 C555 292 540 305 520 305 C516 305 513 304 506 302 C499 300 499 300 498 300 C495 300 492 305 492 311 C492 342 528 371 565 371 C610 371 639 333 639 274 C639 237 629 213 600 178 C582 157 553 128 456 33 L456 0 L706 0 L710 111 Z " />
<glyph glyph-name="threequarters" unicode="&#xbe;" horiz-adv-x="758" d="M84 458 C137 458 146 457 165 449 C199 437 213 412 213 363 C213 303 187 271 138 271 C113 271 81 287 81 298 C81 300 82 301 86 304 C97 312 103 322 103 334 C103 350 89 363 71 363 C52 363 36 347 36 327 C36 286 85 253 146 253 C228 253 292 303 292 369 C292 423 256 455 178 470 C241 492 270 523 270 566 C270 615 222 653 158 653 C102 653 59 624 59 587 C59 567 73 552 91 552 C108 552 121 565 121 581 C121 591 115 602 108 608 C101 612 101 612 101 614 C101 624 126 635 148 635 C181 635 196 614 196 569 C196 528 187 504 166 491 C150 481 137 479 84 478 L84 458 Z M541 647 L229 0 L258 0 L570 647 L541 647 Z M595 102 L595 19 L532 19 L532 0 L721 0 L721 19 L666 19 L666 102 L711 102 L711 58 L732 58 L732 168 L711 168 L711 124 L666 124 L666 392 L623 392 L447 129 L447 102 L595 102 Z M595 124 L469 124 L595 313 L595 124 Z " />
<glyph glyph-name="questiondown" unicode="&#xbf;" horiz-adv-x="373" d="M228 207 L228 192 C228 141 209 111 146 66 C102 34 94 27 77 7 C49 -27 35 -66 35 -109 C35 -202 102 -270 192 -270 C274 -270 341 -212 341 -142 C341 -107 321 -82 294 -82 C271 -82 254 -100 254 -124 C254 -141 264 -160 276 -167 C295 -178 300 -182 300 -190 C300 -198 292 -210 280 -221 C260 -239 225 -250 189 -250 C128 -250 82 -212 82 -162 C82 -131 100 -102 146 -61 C223 8 248 60 248 157 C248 177 247 190 244 215 L228 207 Z M231 414 C198 414 171 388 171 356 C171 324 198 297 229 297 C262 297 289 323 289 356 C289 388 263 414 231 414 L231 414 Z " />
<glyph glyph-name="Agrave" unicode="&#xc0;" horiz-adv-x="586" d="M343 215 L409 20 L322 20 L322 0 L593 0 L593 20 L522 20 L307 667 L277 667 L51 20 L3 20 L3 0 L165 0 L165 20 L78 20 L143 215 L343 215 Z M337 235 L150 235 L244 512 L337 235 Z M226 837 L125 837 C113 837 109 834 109 826 C109 821 113 817 124 812 L356 720 L364 732 L226 837 Z " />
<glyph glyph-name="Aacute" unicode="&#xc1;" horiz-adv-x="586" d="M343 215 L409 20 L322 20 L322 0 L593 0 L593 20 L522 20 L307 667 L277 667 L51 20 L3 20 L3 0 L165 0 L165 20 L78 20 L143 215 L343 215 Z M337 235 L150 235 L244 512 L337 235 Z M362 837 L224 732 L231 720 L464 812 C474 816 478 820 478 826 C478 834 474 837 462 837 L362 837 Z " />
<glyph glyph-name="Acircumflex" unicode="&#xc2;" horiz-adv-x="586" d="M343 215 L409 20 L322 20 L322 0 L593 0 L593 20 L522 20 L307 667 L277 667 L51 20 L3 20 L3 0 L165 0 L165 20 L78 20 L143 215 L343 215 Z M337 235 L150 235 L244 512 L337 235 Z M291 843 L124 732 L130 720 L291 769 L452 720 L458 732 L291 843 Z " />
<glyph glyph-name="Atilde" unicode="&#xc3;" horiz-adv-x="586" d="M343 215 L409 20 L322 20 L322 0 L593 0 L593 20 L522 20 L307 667 L277 667 L51 20 L3 20 L3 0 L165 0 L165 20 L78 20 L143 215 L343 215 Z M337 235 L150 235 L244 512 L337 235 Z M449 819 C428 791 418 785 396 785 C379 785 359 789 343 794 L299 809 C274 818 262 820 243 820 C194 820 160 796 136 744 L150 734 C168 759 182 767 211 767 C229 767 247 764 266 758 L308 743 C335 735 346 732 360 732 C401 732 434 757 464 810 L449 819 Z " />
<glyph glyph-name="Adieresis" unicode="&#xc4;" horiz-adv-x="586" d="M343 215 L409 20 L322 20 L322 0 L593 0 L593 20 L522 20 L307 667 L277 667 L51 20 L3 20 L3 0 L165 0 L165 20 L78 20 L143 215 L343 215 Z M337 235 L150 235 L244 512 L337 235 Z M186 830 C158 830 134 806 134 778 C134 749 157 727 186 727 C216 727 238 750 238 779 C238 807 214 830 186 830 L186 830 Z M396 830 C368 830 344 806 344 778 C344 749 367 727 396 727 C426 727 448 750 448 779 C448 807 424 830 396 830 L396 830 Z " />
<glyph glyph-name="Aring" unicode="&#xc5;" horiz-adv-x="586" d="M343 215 L409 20 L322 20 L322 0 L593 0 L593 20 L522 20 L307 667 L277 667 L51 20 L3 20 L3 0 L165 0 L165 20 L78 20 L143 215 L343 215 Z M337 235 L150 235 L244 512 L337 235 Z M292 859 C249 859 215 825 215 782 C215 740 248 707 291 707 C334 707 367 740 367 781 C367 825 334 859 292 859 L292 859 Z M292 831 C315 831 337 808 337 783 C337 757 315 735 291 735 C266 735 245 757 245 783 C245 809 266 831 292 831 L292 831 Z " />
<glyph glyph-name="AE" unicode="&#xc6;" horiz-adv-x="854" d="M385 209 L385 20 L301 20 L301 0 L798 0 L817 208 L803 208 C760 49 724 13 619 20 L492 20 L492 327 C507 328 514 328 524 328 C582 328 608 317 622 288 C631 268 633 257 637 196 L651 196 L651 471 L637 471 C636 362 616 345 492 347 L492 647 L569 647 C702 653 745 618 775 484 L789 484 L782 667 L261 667 L261 647 L360 647 L56 20 L-21 20 L-21 0 L183 0 L183 20 L84 20 L176 209 L385 209 Z M385 229 L183 229 L385 640 L385 229 Z " />
<glyph glyph-name="Ccedilla" unicode="&#xc7;" horiz-adv-x="584" d="M331 -10 C388 -8 443 12 492 48 L526 0 L541 0 L541 189 L526 189 C485 71 421 13 332 13 C275 13 226 36 200 75 C176 110 168 169 168 306 C168 452 178 538 199 578 C226 627 276 654 340 654 C433 654 500 595 526 491 L541 491 L541 667 L526 667 L492 620 C444 657 389 677 336 677 C175 677 42 521 42 332 C42 208 96 97 187 36 C225 10 259 -3 311 -10 L294 -61 C334 -76 347 -90 347 -118 C347 -147 329 -164 298 -164 C276 -164 256 -154 256 -144 L256 -138 C257 -135 257 -132 257 -130 C257 -112 249 -100 237 -100 C227 -100 220 -108 220 -120 C220 -155 259 -181 312 -181 C372 -181 416 -150 416 -108 C416 -75 382 -53 333 -53 L318 -53 L331 -10 Z " />
<glyph glyph-name="Egrave" unicode="&#xc8;" horiz-adv-x="584" d="M115 20 L32 20 L32 0 L528 0 L547 208 L534 208 C491 50 455 13 349 20 L222 20 L222 328 L254 328 C312 328 338 317 352 288 C362 268 364 257 368 196 L381 196 L381 471 L368 471 C366 362 347 346 222 347 L222 647 L299 647 C432 653 475 619 506 484 L519 484 L512 667 L32 667 L32 647 L115 647 L115 20 Z M252 837 L152 837 C140 837 136 834 136 826 C136 820 140 816 151 812 L383 720 L390 732 L252 837 Z " />
<glyph glyph-name="Eacute" unicode="&#xc9;" horiz-adv-x="584" d="M115 20 L32 20 L32 0 L528 0 L547 208 L534 208 C491 50 455 13 349 20 L222 20 L222 328 L254 328 C312 328 338 317 352 288 C362 268 364 257 368 196 L381 196 L381 471 L368 471 C366 362 347 346 222 347 L222 647 L299 647 C432 653 475 619 506 484 L519 484 L512 667 L32 667 L32 647 L115 647 L115 20 Z M367 837 L229 732 L237 720 L469 812 C480 817 484 820 484 826 C484 834 480 837 468 837 L367 837 Z " />
<glyph glyph-name="Ecircumflex" unicode="&#xca;" horiz-adv-x="584" d="M115 20 L32 20 L32 0 L528 0 L547 208 L534 208 C491 50 455 13 349 20 L222 20 L222 328 L254 328 C312 328 338 317 352 288 C362 268 364 257 368 196 L381 196 L381 471 L368 471 C366 362 347 346 222 347 L222 647 L299 647 C432 653 475 619 506 484 L519 484 L512 667 L32 667 L32 647 L115 647 L115 20 Z M306 843 L140 732 L146 720 L306 769 L467 720 L473 732 L306 843 Z " />
<glyph glyph-name="Edieresis" unicode="&#xcb;" horiz-adv-x="584" d="M115 20 L32 20 L32 0 L528 0 L547 208 L534 208 C491 50 455 13 349 20 L222 20 L222 328 L254 328 C312 328 338 317 352 288 C362 268 364 257 368 196 L381 196 L381 471 L368 471 C366 362 347 346 222 347 L222 647 L299 647 C432 653 475 619 506 484 L519 484 L512 667 L32 667 L32 647 L115 647 L115 20 Z M198 830 C170 830 146 806 146 778 C146 749 169 727 198 727 C228 727 250 750 250 779 C250 807 226 830 198 830 L198 830 Z M408 830 C380 830 356 806 356 778 C356 749 379 727 408 727 C438 727 460 750 460 779 C460 807 436 830 408 830 L408 830 Z " />
<glyph glyph-name="Igrave" unicode="&#xcc;" horiz-adv-x="337" d="M115 20 L32 20 L32 0 L305 0 L305 20 L222 20 L222 647 L305 647 L305 667 L32 667 L32 647 L115 647 L115 20 Z M135 837 L38 837 C26 837 22 835 22 827 C22 820 24 818 37 812 L239 720 L246 732 L135 837 Z " />
<glyph glyph-name="Iacute" unicode="&#xcd;" horiz-adv-x="337" d="M115 20 L32 20 L32 0 L305 0 L305 20 L222 20 L222 647 L305 647 L305 667 L32 667 L32 647 L115 647 L115 20 Z M222 837 L111 732 L118 720 L320 812 C333 818 335 820 335 827 C335 835 331 837 319 837 L222 837 Z " />
<glyph glyph-name="Icircumflex" unicode="&#xce;" horiz-adv-x="337" d="M115 20 L32 20 L32 0 L305 0 L305 20 L222 20 L222 647 L305 647 L305 667 L32 667 L32 647 L115 647 L115 20 Z M168 843 L22 732 L28 720 L168 769 L308 720 L314 732 L168 843 Z " />
<glyph glyph-name="Idieresis" unicode="&#xcf;" horiz-adv-x="337" d="M115 20 L32 20 L32 0 L305 0 L305 20 L222 20 L222 647 L305 647 L305 667 L32 667 L32 647 L115 647 L115 20 Z M82 830 C54 830 30 806 30 778 C30 749 53 727 82 727 C112 727 134 750 134 779 C134 807 110 830 82 830 L82 830 Z M255 830 C227 830 203 806 203 778 C203 749 226 727 255 727 C285 727 307 750 307 779 C307 807 283 830 255 830 L255 830 Z " />
<glyph glyph-name="Eth" unicode="&#xd0;" horiz-adv-x="675" d="M115 20 L32 20 L32 0 L287 0 C387 0 427 7 473 34 C574 94 634 207 634 338 C634 444 596 532 523 598 C464 651 408 667 286 667 L32 667 L32 647 L115 647 L115 351 L32 351 L32 331 L115 331 L115 20 Z M222 20 L222 331 L359 331 L359 351 L222 351 L222 647 L284 647 C346 647 363 645 390 637 C433 624 465 596 483 558 C498 524 507 447 507 343 C507 196 495 121 465 81 C433 38 381 20 287 20 L222 20 Z " />
<glyph glyph-name="Ntilde" unicode="&#xd1;" horiz-adv-x="668" d="M108 20 L25 20 L25 0 L215 0 L215 20 L131 20 L131 628 L540 0 L563 0 L563 647 L646 647 L646 667 L456 667 L456 647 L540 647 L540 196 C510 248 493 275 428 374 L234 667 L25 667 L25 647 L108 647 L108 20 Z M491 819 C471 791 461 785 438 785 C422 785 401 789 385 794 L342 809 C316 818 304 820 285 820 C236 820 203 796 178 744 L193 734 C210 759 225 767 254 767 C272 767 289 764 308 758 L351 743 C377 735 389 732 402 732 C443 732 477 757 506 810 L491 819 Z " />
<glyph glyph-name="Ograve" unicode="&#xd2;" horiz-adv-x="664" d="M332 677 C175 677 42 519 42 334 C42 148 175 -10 333 -10 C405 -10 474 22 526 79 C586 147 623 242 623 329 C623 520 492 677 332 677 L332 677 Z M333 654 C384 654 431 632 458 595 C486 555 496 488 496 329 C496 192 487 122 464 83 C439 39 389 13 333 13 C281 13 235 35 208 72 C179 112 169 179 169 333 C169 475 178 545 201 584 C226 628 275 654 333 654 L333 654 Z M271 837 L171 837 C159 837 155 834 155 826 C155 820 159 817 170 812 L402 720 L409 732 L271 837 Z " />
<glyph glyph-name="Oacute" unicode="&#xd3;" horiz-adv-x="664" d="M332 677 C175 677 42 519 42 334 C42 148 175 -10 333 -10 C405 -10 474 22 526 79 C586 147 623 242 623 329 C623 520 492 677 332 677 L332 677 Z M333 654 C384 654 431 632 458 595 C486 555 496 488 496 329 C496 192 487 122 464 83 C439 39 389 13 333 13 C281 13 235 35 208 72 C179 112 169 179 169 333 C169 475 178 545 201 584 C226 628 275 654 333 654 L333 654 Z M400 837 L262 732 L269 720 L501 812 C512 816 516 821 516 826 C516 834 512 837 500 837 L400 837 Z " />
<glyph glyph-name="Ocircumflex" unicode="&#xd4;" horiz-adv-x="664" d="M332 677 C175 677 42 519 42 334 C42 148 175 -10 333 -10 C405 -10 474 22 526 79 C586 147 623 242 623 329 C623 520 492 677 332 677 L332 677 Z M333 654 C384 654 431 632 458 595 C486 555 496 488 496 329 C496 192 487 122 464 83 C439 39 389 13 333 13 C281 13 235 35 208 72 C179 112 169 179 169 333 C169 475 178 545 201 584 C226 628 275 654 333 654 L333 654 Z M332 843 L166 732 L172 720 L332 769 L493 720 L499 732 L332 843 Z " />
<glyph glyph-name="Otilde" unicode="&#xd5;" horiz-adv-x="664" d="M332 677 C175 677 42 519 42 334 C42 148 175 -10 333 -10 C405 -10 474 22 526 79 C586 147 623 242 623 329 C623 520 492 677 332 677 L332 677 Z M333 654 C384 654 431 632 458 595 C486 555 496 488 496 329 C496 192 487 122 464 83 C439 39 389 13 333 13 C281 13 235 35 208 72 C179 112 169 179 169 333 C169 475 178 545 201 584 C226 628 275 654 333 654 L333 654 Z M488 819 C467 791 458 785 435 785 C419 785 398 789 382 794 L338 809 C313 818 301 820 282 820 C233 820 200 796 175 744 L189 734 C207 759 221 767 251 767 C268 767 286 764 305 758 L348 743 C374 735 386 732 399 732 C440 732 474 757 503 810 L488 819 Z " />
<glyph glyph-name="Odieresis" unicode="&#xd6;" horiz-adv-x="664" d="M332 677 C175 677 42 519 42 334 C42 148 175 -10 333 -10 C405 -10 474 22 526 79 C586 147 623 242 623 329 C623 520 492 677 332 677 L332 677 Z M333 654 C384 654 431 632 458 595 C486 555 496 488 496 329 C496 192 487 122 464 83 C439 39 389 13 333 13 C281 13 235 35 208 72 C179 112 169 179 169 333 C169 475 178 545 201 584 C226 628 275 654 333 654 L333 654 Z M227 830 C199 830 175 806 175 778 C175 749 198 727 227 727 C257 727 279 750 279 779 C279 807 255 830 227 830 L227 830 Z M437 830 C409 830 385 806 385 778 C385 749 408 727 437 727 C467 727 489 750 489 779 C489 807 465 830 437 830 L437 830 Z " />
<glyph glyph-name="multiply" unicode="&#xd7;" horiz-adv-x="500" d="M250 298 L396 153 L421 178 L275 323 L421 469 L396 494 L250 348 L105 494 L80 469 L225 323 L80 178 L105 153 L250 298 Z " />
<glyph glyph-name="Oslash" unicode="&#xd8;" horiz-adv-x="664" d="M569 663 L552 675 L504 609 C450 656 396 677 332 677 C175 677 42 519 42 333 C42 238 78 147 145 74 L95 -2 L111 -14 L160 58 C215 11 269 -10 333 -10 C490 -10 623 148 623 333 C623 429 585 524 521 592 L569 663 Z M481 542 C492 492 496 442 496 337 C496 191 488 122 464 83 C439 39 389 13 332 13 C267 13 215 45 192 101 L481 542 Z M184 126 C173 170 169 227 169 331 C169 475 178 545 201 584 C226 628 275 654 333 654 C398 654 447 624 473 567 L184 126 Z " />
<glyph glyph-name="Ugrave" unicode="&#xd9;" horiz-adv-x="642" d="M518 647 L518 265 C518 155 515 132 498 94 C474 41 427 13 362 13 C307 13 260 34 236 70 C210 107 208 124 208 265 L208 647 L292 647 L292 667 L18 667 L18 647 L101 647 L101 265 C101 133 110 94 152 53 C192 14 262 -10 339 -10 C415 -10 474 15 505 61 C535 105 541 137 541 265 L541 647 L624 647 L624 667 L434 667 L434 647 L518 647 Z M283 837 L183 837 C171 837 167 834 167 826 C167 820 171 817 182 812 L414 720 L421 732 L283 837 Z " />
<glyph glyph-name="Uacute" unicode="&#xda;" horiz-adv-x="642" d="M518 647 L518 265 C518 155 515 132 498 94 C474 41 427 13 362 13 C307 13 260 34 236 70 C210 107 208 124 208 265 L208 647 L292 647 L292 667 L18 667 L18 647 L101 647 L101 265 C101 133 110 94 152 53 C192 14 262 -10 339 -10 C415 -10 474 15 505 61 C535 105 541 137 541 265 L541 647 L624 647 L624 667 L434 667 L434 647 L518 647 Z M409 837 L271 732 L278 720 L510 812 C521 817 525 820 525 826 C525 834 521 837 509 837 L409 837 Z " />
<glyph glyph-name="Ucircumflex" unicode="&#xdb;" horiz-adv-x="642" d="M518 647 L518 265 C518 155 515 132 498 94 C474 41 427 13 362 13 C307 13 260 34 236 70 C210 107 208 124 208 265 L208 647 L292 647 L292 667 L18 667 L18 647 L101 647 L101 265 C101 133 110 94 152 53 C192 14 262 -10 339 -10 C415 -10 474 15 505 61 C535 105 541 137 541 265 L541 647 L624 647 L624 667 L434 667 L434 647 L518 647 Z M344 843 L178 732 L184 720 L344 769 L505 720 L511 732 L344 843 Z " />
<glyph glyph-name="Udieresis" unicode="&#xdc;" horiz-adv-x="642" d="M518 647 L518 265 C518 155 515 132 498 94 C474 41 427 13 362 13 C307 13 260 34 236 70 C210 107 208 124 208 265 L208 647 L292 647 L292 667 L18 667 L18 647 L101 647 L101 265 C101 133 110 94 152 53 C192 14 262 -10 339 -10 C415 -10 474 15 505 61 C535 105 541 137 541 265 L541 647 L624 647 L624 667 L434 667 L434 647 L518 647 Z M239 830 C211 830 187 806 187 778 C187 749 210 727 239 727 C269 727 291 750 291 779 C291 807 267 830 239 830 L239 830 Z M449 830 C421 830 397 806 397 778 C397 749 420 727 449 727 C479 727 501 750 501 779 C501 807 477 830 449 830 L449 830 Z " />
<glyph glyph-name="Yacute" unicode="&#xdd;" horiz-adv-x="578" d="M236 20 L143 20 L143 0 L436 0 L436 20 L343 20 L343 316 C346 321 348 325 349 327 L352 334 C359 351 360 353 365 363 L376 384 L516 647 L585 647 L585 667 L390 667 L390 647 L490 647 L333 356 C330 364 327 370 319 384 L165 647 L250 647 L250 667 L-9 667 L-9 647 L42 647 L236 316 L236 20 Z M369 837 L231 732 L238 720 L470 812 C481 816 485 820 485 826 C485 834 481 837 469 837 L369 837 Z " />
<glyph glyph-name="Thorn" unicode="&#xde;" horiz-adv-x="584" d="M115 20 L32 20 L32 0 L305 0 L305 20 L222 20 L222 203 L290 203 C388 203 438 213 482 242 C531 274 558 321 558 376 C558 425 538 466 499 498 C450 538 407 548 288 548 L222 548 L222 647 L305 647 L305 667 L32 667 L32 647 L115 647 L115 20 Z M222 223 L222 528 L289 528 C411 528 438 500 438 373 C438 311 427 272 404 249 C384 230 355 223 291 223 L222 223 Z " />
<glyph glyph-name="germandbls" unicode="&#xdf;" horiz-adv-x="494" d="M84 20 L17 20 L17 0 L220 0 L220 20 L174 20 L174 208 C174 277 182 310 206 337 C226 358 262 374 294 374 C328 374 351 352 351 316 C351 272 317 244 263 244 C260 244 255 244 249 245 L249 225 C293 224 305 223 320 216 C350 203 370 160 370 110 C370 51 352 13 323 13 C309 13 297 21 297 31 C297 34 298 36 301 41 C310 50 315 63 315 75 C315 97 298 115 276 115 C251 115 235 97 235 70 C235 24 277 -10 333 -10 C401 -10 461 46 461 111 C461 179 403 227 314 233 C395 238 443 270 443 320 C443 371 399 403 329 403 C258 403 198 375 174 330 L174 423 C174 525 181 575 200 615 C213 640 237 657 260 657 C273 657 282 649 282 639 C282 636 281 632 279 627 C272 611 271 607 271 597 C271 577 288 562 311 562 C337 562 357 582 357 608 C357 647 318 677 267 677 C209 677 147 634 114 570 C90 523 84 486 84 384 L84 20 Z " />
<glyph glyph-name="agrave" unicode="&#xe0;" horiz-adv-x="443" d="M414 35 C396 20 394 19 384 19 C374 19 370 22 367 31 C363 40 363 40 363 135 L363 245 C363 333 362 338 340 361 C316 387 271 403 222 403 C139 403 65 356 65 303 C65 277 83 259 108 259 C131 259 149 277 149 302 C149 313 146 321 135 333 C131 338 130 340 130 344 C130 364 170 386 206 386 C228 386 250 378 260 366 C271 353 273 343 273 286 L273 217 C206 216 165 209 128 195 C69 171 37 132 37 83 C37 28 80 -10 143 -10 C197 -10 244 18 273 68 C279 17 308 -10 357 -10 C383 -10 403 -2 426 20 L414 35 Z M273 180 C273 128 268 98 257 79 C241 50 216 34 186 34 C148 34 126 59 126 101 C126 134 141 159 171 177 C195 192 220 198 273 200 L273 180 Z M194 616 L119 616 C113 616 110 614 110 608 C110 605 112 602 115 599 L281 463 L290 473 L194 616 Z " />
<glyph glyph-name="aacute" unicode="&#xe1;" horiz-adv-x="443" d="M414 35 C396 20 394 19 384 19 C374 19 370 22 367 31 C363 40 363 40 363 135 L363 245 C363 333 362 338 340 361 C316 387 271 403 222 403 C139 403 65 356 65 303 C65 277 83 259 108 259 C131 259 149 277 149 302 C149 313 146 321 135 333 C131 338 130 340 130 344 C130 364 170 386 206 386 C228 386 250 378 260 366 C271 353 273 343 273 286 L273 217 C206 216 165 209 128 195 C69 171 37 132 37 83 C37 28 80 -10 143 -10 C197 -10 244 18 273 68 C279 17 308 -10 357 -10 C383 -10 403 -2 426 20 L414 35 Z M273 180 C273 128 268 98 257 79 C241 50 216 34 186 34 C148 34 126 59 126 101 C126 134 141 159 171 177 C195 192 220 198 273 200 L273 180 Z M290 616 L193 473 L202 463 L369 599 C372 602 374 605 374 608 C374 614 371 616 365 616 L290 616 Z " />
<glyph glyph-name="acircumflex" unicode="&#xe2;" horiz-adv-x="443" d="M414 35 C396 20 394 19 384 19 C374 19 370 22 367 31 C363 40 363 40 363 135 L363 245 C363 333 362 338 340 361 C316 387 271 403 222 403 C139 403 65 356 65 303 C65 277 83 259 108 259 C131 259 149 277 149 302 C149 313 146 321 135 333 C131 338 130 340 130 344 C130 364 170 386 206 386 C228 386 250 378 260 366 C271 353 273 343 273 286 L273 217 C206 216 165 209 128 195 C69 171 37 132 37 83 C37 28 80 -10 143 -10 C197 -10 244 18 273 68 C279 17 308 -10 357 -10 C383 -10 403 -2 426 20 L414 35 Z M273 180 C273 128 268 98 257 79 C241 50 216 34 186 34 C148 34 126 59 126 101 C126 134 141 159 171 177 C195 192 220 198 273 200 L273 180 Z M230 536 L365 463 L373 473 L230 620 L87 474 L95 464 L230 536 Z " />
<glyph glyph-name="atilde" unicode="&#xe3;" horiz-adv-x="443" d="M414 35 C396 20 394 19 384 19 C374 19 370 22 367 31 C363 40 363 40 363 135 L363 245 C363 333 362 338 340 361 C316 387 271 403 222 403 C139 403 65 356 65 303 C65 277 83 259 108 259 C131 259 149 277 149 302 C149 313 146 321 135 333 C131 338 130 340 130 344 C130 364 170 386 206 386 C228 386 250 378 260 366 C271 353 273 343 273 286 L273 217 C206 216 165 209 128 195 C69 171 37 132 37 83 C37 28 80 -10 143 -10 C197 -10 244 18 273 68 C279 17 308 -10 357 -10 C383 -10 403 -2 426 20 L414 35 Z M273 180 C273 128 268 98 257 79 C241 50 216 34 186 34 C148 34 126 59 126 101 C126 134 141 159 171 177 C195 192 220 198 273 200 L273 180 Z M370 580 C350 552 344 548 321 548 C307 548 290 551 275 556 L231 571 C205 580 193 582 176 582 C131 582 109 564 84 506 L96 498 C111 523 121 530 145 530 C161 530 178 527 197 520 L240 507 C260 500 281 496 294 496 C330 496 355 518 383 572 L370 580 Z " />
<glyph glyph-name="adieresis" unicode="&#xe4;" horiz-adv-x="443" d="M414 35 C396 20 394 19 384 19 C374 19 370 22 367 31 C363 40 363 40 363 135 L363 245 C363 333 362 338 340 361 C316 387 271 403 222 403 C139 403 65 356 65 303 C65 277 83 259 108 259 C131 259 149 277 149 302 C149 313 146 321 135 333 C131 338 130 340 130 344 C130 364 170 386 206 386 C228 386 250 378 260 366 C271 353 273 343 273 286 L273 217 C206 216 165 209 128 195 C69 171 37 132 37 83 C37 28 80 -10 143 -10 C197 -10 244 18 273 68 C279 17 308 -10 357 -10 C383 -10 403 -2 426 20 L414 35 Z M273 180 C273 128 268 98 257 79 C241 50 216 34 186 34 C148 34 126 59 126 101 C126 134 141 159 171 177 C195 192 220 198 273 200 L273 180 Z M140 591 C111 591 87 568 87 541 C87 512 109 490 138 490 C167 490 190 512 190 540 C190 568 167 591 140 591 L140 591 Z M322 591 C293 591 271 569 271 541 C271 512 293 490 323 490 C353 490 374 510 374 539 C374 568 351 591 322 591 L322 591 Z " />
<glyph glyph-name="aring" unicode="&#xe5;" horiz-adv-x="443" d="M414 35 C396 20 394 19 384 19 C374 19 370 22 367 31 C363 40 363 40 363 135 L363 245 C363 333 362 338 340 361 C316 387 271 403 222 403 C139 403 65 356 65 303 C65 277 83 259 108 259 C131 259 149 277 149 302 C149 313 146 321 135 333 C131 338 130 340 130 344 C130 364 170 386 206 386 C228 386 250 378 260 366 C271 353 273 343 273 286 L273 217 C206 216 165 209 128 195 C69 171 37 132 37 83 C37 28 80 -10 143 -10 C197 -10 244 18 273 68 C279 17 308 -10 357 -10 C383 -10 403 -2 426 20 L414 35 Z M273 180 C273 128 268 98 257 79 C241 50 216 34 186 34 C148 34 126 59 126 101 C126 134 141 159 171 177 C195 192 220 198 273 200 L273 180 Z M229 615 C186 615 152 581 152 538 C152 496 185 463 228 463 C271 463 304 496 304 537 C304 581 271 615 229 615 L229 615 Z M229 587 C252 587 274 564 274 539 C274 513 252 491 228 491 C203 491 182 513 182 539 C182 565 203 587 229 587 L229 587 Z " />
<glyph glyph-name="ae" unicode="&#xe6;" horiz-adv-x="627" d="M600 228 C594 277 584 305 566 332 C536 377 484 403 425 403 C380 403 355 392 323 359 C292 390 260 403 213 403 C134 403 64 354 64 300 C64 275 81 257 104 257 C127 257 145 275 145 299 C145 311 143 317 132 334 C129 339 128 342 128 345 C128 361 167 379 202 379 C224 379 245 367 250 351 C255 340 257 303 257 242 C257 238 257 228 256 218 C125 217 37 163 37 82 C37 28 78 -10 138 -10 C172 -10 207 1 231 21 C250 35 259 49 275 87 C312 26 373 -10 436 -10 C513 -10 572 44 592 133 L570 133 C558 97 549 79 536 63 C510 32 475 13 442 13 C412 13 381 28 366 50 C352 70 346 102 346 153 L345 203 L345 228 L600 228 Z M345 248 L345 280 C345 307 345 315 348 326 C355 358 383 379 422 379 C460 379 486 359 491 323 C493 306 494 294 495 248 L345 248 Z M257 174 C257 132 254 100 249 83 C240 54 218 35 194 35 C164 35 144 61 144 100 C144 159 181 191 256 200 L257 174 Z " />
<glyph glyph-name="ccedilla" unicode="&#xe7;" horiz-adv-x="407" d="M226 -10 C304 -10 360 37 391 127 L366 127 C341 53 295 13 233 13 C203 13 178 24 162 44 C146 65 141 94 141 167 C141 256 148 314 161 339 C176 366 203 380 239 380 C272 380 308 364 308 349 C308 346 307 345 304 342 C291 327 284 310 284 295 C284 268 303 248 329 248 C357 248 376 269 376 300 C376 356 312 403 236 403 C127 403 35 307 35 194 C35 93 109 5 207 -9 L190 -60 C228 -75 240 -88 240 -117 C240 -145 222 -162 193 -162 C172 -162 152 -152 152 -142 L152 -136 C153 -133 153 -130 153 -128 C153 -110 145 -98 133 -98 C124 -98 117 -106 117 -118 C117 -152 155 -178 207 -178 C265 -178 308 -147 308 -106 C308 -74 275 -52 228 -52 L213 -52 L226 -10 Z " />
<glyph glyph-name="egrave" unicode="&#xe8;" horiz-adv-x="425" d="M398 229 C396 271 389 295 372 322 C340 373 285 403 223 403 C123 403 35 307 35 197 C35 87 126 -10 228 -10 C308 -10 375 48 391 132 L367 132 C348 57 298 13 234 13 C196 13 167 29 152 59 C141 80 139 101 139 200 L139 229 L398 229 Z M139 249 C139 324 139 324 150 344 C162 367 189 380 222 380 C253 380 277 366 286 341 C293 323 294 315 294 249 L139 249 Z M192 616 L117 616 C111 616 108 614 108 608 C108 605 110 602 113 599 L279 463 L288 473 L192 616 Z " />
<glyph glyph-name="eacute" unicode="&#xe9;" horiz-adv-x="425" d="M398 229 C396 271 389 295 372 322 C340 373 285 403 223 403 C123 403 35 307 35 197 C35 87 126 -10 228 -10 C308 -10 375 48 391 132 L367 132 C348 57 298 13 234 13 C196 13 167 29 152 59 C141 80 139 101 139 200 L139 229 L398 229 Z M139 249 C139 324 139 324 150 344 C162 367 189 380 222 380 C253 380 277 366 286 341 C293 323 294 315 294 249 L139 249 Z M276 616 L179 473 L189 463 L355 599 C358 602 360 605 360 608 C360 614 357 616 351 616 L276 616 Z " />
<glyph glyph-name="ecircumflex" unicode="&#xea;" horiz-adv-x="425" d="M398 229 C396 271 389 295 372 322 C340 373 285 403 223 403 C123 403 35 307 35 197 C35 87 126 -10 228 -10 C308 -10 375 48 391 132 L367 132 C348 57 298 13 234 13 C196 13 167 29 152 59 C141 80 139 101 139 200 L139 229 L398 229 Z M139 249 C139 324 139 324 150 344 C162 367 189 380 222 380 C253 380 277 366 286 341 C293 323 294 315 294 249 L139 249 Z M223 536 L359 463 L367 473 L223 620 L80 474 L88 464 L223 536 Z " />
<glyph glyph-name="edieresis" unicode="&#xeb;" horiz-adv-x="425" d="M398 229 C396 271 389 295 372 322 C340 373 285 403 223 403 C123 403 35 307 35 197 C35 87 126 -10 228 -10 C308 -10 375 48 391 132 L367 132 C348 57 298 13 234 13 C196 13 167 29 152 59 C141 80 139 101 139 200 L139 229 L398 229 Z M139 249 C139 324 139 324 150 344 C162 367 189 380 222 380 C253 380 277 366 286 341 C293 323 294 315 294 249 L139 249 Z M133 591 C104 591 80 568 80 541 C80 512 102 490 131 490 C160 490 183 512 183 540 C183 568 160 591 133 591 L133 591 Z M315 591 C286 591 264 569 264 541 C264 512 286 490 316 490 C346 490 367 510 367 539 C367 568 344 591 315 591 L315 591 Z " />
<glyph glyph-name="igrave" unicode="&#xec;" horiz-adv-x="270" d="M97 20 L30 20 L30 0 L254 0 L254 20 L187 20 L187 393 L30 393 L30 373 L97 373 L97 20 Z M90 616 L15 616 C9 616 6 614 6 608 C6 605 8 602 11 599 L177 463 L187 473 L90 616 Z " />
<glyph glyph-name="iacute" unicode="&#xed;" horiz-adv-x="270" d="M97 20 L30 20 L30 0 L253 0 L253 20 L187 20 L187 393 L30 393 L30 373 L97 373 L97 20 Z M183 616 L86 473 L95 463 L262 599 C265 602 267 605 267 608 C267 614 264 616 258 616 L183 616 Z " />
<glyph glyph-name="icircumflex" unicode="&#xee;" horiz-adv-x="270" d="M97 20 L30 20 L30 0 L254 0 L254 20 L187 20 L187 393 L30 393 L30 373 L97 373 L97 20 Z M137 536 L259 463 L267 473 L137 620 L7 474 L15 464 L137 536 Z " />
<glyph glyph-name="idieresis" unicode="&#xef;" horiz-adv-x="270" d="M97 20 L30 20 L30 0 L254 0 L254 20 L187 20 L187 393 L30 393 L30 373 L97 373 L97 20 Z M65 591 C36 591 12 568 12 541 C12 512 34 490 63 490 C92 490 115 512 115 540 C115 568 92 591 65 591 L65 591 Z M214 591 C185 591 163 569 163 541 C163 512 185 490 215 490 C245 490 266 510 266 539 C266 568 243 591 214 591 L214 591 Z " />
<glyph glyph-name="eth" unicode="&#xf0;" horiz-adv-x="475" d="M150 541 L161 524 L237 578 C279 514 300 465 317 388 C283 399 265 403 237 403 C125 403 35 311 35 197 C35 83 126 -10 238 -10 C354 -10 440 82 440 207 C440 332 384 453 262 594 L340 649 L328 665 L248 610 C220 641 188 669 155 695 L144 682 C177 652 189 638 225 595 L150 541 Z M236 380 C276 380 301 369 317 345 C332 324 333 312 333 195 C333 90 332 75 322 56 C307 27 279 13 238 13 C199 13 174 24 158 48 C143 70 142 81 142 197 C142 304 143 318 153 338 C168 366 196 380 236 380 L236 380 Z " />
<glyph glyph-name="ntilde" unicode="&#xf1;" horiz-adv-x="526" d="M97 20 L30 20 L30 0 L247 0 L247 20 L187 20 L187 139 C187 262 192 305 212 333 C228 357 259 373 285 373 C305 373 323 364 334 349 C349 329 353 293 353 174 L353 20 L293 20 L293 0 L509 0 L509 20 L443 20 L443 242 C443 316 437 339 415 364 C393 388 353 403 312 403 C259 403 220 384 187 341 L187 393 L30 393 L30 373 L97 373 L97 20 Z M408 580 C388 552 382 548 359 548 C345 548 328 551 313 556 L269 571 C243 580 231 582 214 582 C169 582 147 564 122 506 L134 498 C149 523 159 530 183 530 C199 530 216 527 235 520 L278 507 C298 500 319 496 332 496 C368 496 393 518 421 572 L408 580 Z " />
<glyph glyph-name="ograve" unicode="&#xf2;" horiz-adv-x="475" d="M237 403 C126 403 35 310 35 197 C35 82 125 -10 238 -10 C348 -10 440 82 440 194 C440 311 351 403 237 403 L237 403 Z M236 380 C276 380 301 369 317 345 C332 324 333 312 333 195 C333 90 332 75 322 56 C307 27 279 13 238 13 C199 13 174 24 158 48 C143 70 142 81 142 197 C142 304 143 318 153 338 C168 366 196 380 236 380 L236 380 Z M208 616 L133 616 C127 616 124 614 124 608 C124 605 125 602 129 599 L296 463 L305 473 L208 616 Z " />
<glyph glyph-name="oacute" unicode="&#xf3;" horiz-adv-x="475" d="M237 403 C126 403 35 310 35 197 C35 82 125 -10 238 -10 C348 -10 440 82 440 194 C440 311 351 403 237 403 L237 403 Z M236 380 C276 380 301 369 317 345 C332 324 333 312 333 195 C333 90 332 75 322 56 C307 27 279 13 238 13 C199 13 174 24 158 48 C143 70 142 81 142 197 C142 304 143 318 153 338 C168 366 196 380 236 380 L236 380 Z M300 616 L203 473 L212 463 L379 599 C382 602 384 605 384 608 C384 614 381 616 375 616 L300 616 Z " />
<glyph glyph-name="ocircumflex" unicode="&#xf4;" horiz-adv-x="475" d="M237 403 C126 403 35 310 35 197 C35 82 125 -10 238 -10 C348 -10 440 82 440 194 C440 311 351 403 237 403 L237 403 Z M236 380 C276 380 301 369 317 345 C332 324 333 312 333 195 C333 90 332 75 322 56 C307 27 279 13 238 13 C199 13 174 24 158 48 C143 70 142 81 142 197 C142 304 143 318 153 338 C168 366 196 380 236 380 L236 380 Z M237 536 L373 463 L381 473 L237 620 L94 474 L102 464 L237 536 Z " />
<glyph glyph-name="otilde" unicode="&#xf5;" horiz-adv-x="475" d="M237 403 C126 403 35 310 35 197 C35 82 125 -10 238 -10 C348 -10 440 82 440 194 C440 311 351 403 237 403 L237 403 Z M236 380 C276 380 301 369 317 345 C332 324 333 312 333 195 C333 90 332 75 322 56 C307 27 279 13 238 13 C199 13 174 24 158 48 C143 70 142 81 142 197 C142 304 143 318 153 338 C168 366 196 380 236 380 L236 380 Z M380 580 C361 552 354 548 332 548 C318 548 301 551 285 556 L242 571 C216 580 204 582 187 582 C142 582 120 564 95 506 L107 498 C122 523 132 530 155 530 C171 530 188 527 208 520 L251 507 C271 500 291 496 305 496 C340 496 365 518 393 572 L380 580 Z " />
<glyph glyph-name="odieresis" unicode="&#xf6;" horiz-adv-x="475" d="M237 403 C126 403 35 310 35 197 C35 82 125 -10 238 -10 C348 -10 440 82 440 194 C440 311 351 403 237 403 L237 403 Z M236 380 C276 380 301 369 317 345 C332 324 333 312 333 195 C333 90 332 75 322 56 C307 27 279 13 238 13 C199 13 174 24 158 48 C143 70 142 81 142 197 C142 304 143 318 153 338 C168 366 196 380 236 380 L236 380 Z M147 591 C118 591 94 568 94 541 C94 512 116 490 145 490 C174 490 197 512 197 540 C197 568 174 591 147 591 L147 591 Z M329 591 C300 591 278 569 278 541 C278 512 300 490 330 490 C360 490 381 510 381 539 C381 568 358 591 329 591 L329 591 Z " />
<glyph glyph-name="divide" unicode="&#xf7;" horiz-adv-x="500" d="M47 306 L454 306 L454 341 L47 341 L47 306 Z M251 537 C218 537 191 511 191 478 C191 446 217 420 249 420 C282 420 309 446 309 478 C309 510 283 537 251 537 L251 537 Z M252 230 C219 230 192 204 192 171 C192 139 218 113 250 113 C283 113 310 139 310 171 C310 203 284 230 252 230 L252 230 Z " />
<glyph glyph-name="oslash" unicode="&#xf8;" horiz-adv-x="475" d="M408 395 L393 406 L359 362 C323 390 283 403 237 403 C125 403 35 311 35 197 C35 139 57 88 100 45 L66 1 L80 -12 L114 33 C151 4 191 -10 237 -10 C350 -10 440 82 440 197 C440 255 417 308 373 350 L408 395 Z M331 304 C332 289 333 249 333 177 C333 94 331 74 322 56 C306 27 279 13 237 13 C190 13 163 29 148 67 L331 304 Z M144 92 C142 106 142 120 142 194 C142 304 143 318 153 338 C168 366 196 380 236 380 C284 380 310 365 325 329 L144 92 Z " />
<glyph glyph-name="ugrave" unicode="&#xf9;" horiz-adv-x="530" d="M440 393 L283 393 L283 373 L350 373 L350 233 C350 124 345 91 325 59 C307 31 274 13 238 13 C216 13 198 19 188 30 C176 44 174 62 174 160 L174 393 L17 393 L17 373 L84 373 L84 160 C84 76 89 51 115 26 C138 3 175 -10 219 -10 C279 -10 322 11 350 55 L350 0 L506 0 L506 20 L440 20 L440 393 Z M215 616 L140 616 C134 616 131 614 131 608 C131 605 132 602 136 599 L302 463 L312 473 L215 616 Z " />
<glyph glyph-name="uacute" unicode="&#xfa;" horiz-adv-x="530" d="M440 393 L283 393 L283 373 L350 373 L350 233 C350 124 345 91 325 59 C307 31 274 13 238 13 C216 13 198 19 188 30 C176 44 174 62 174 160 L174 393 L17 393 L17 373 L84 373 L84 160 C84 76 89 51 115 26 C138 3 175 -10 219 -10 C279 -10 322 11 350 55 L350 0 L506 0 L506 20 L440 20 L440 393 Z M301 616 L204 473 L214 463 L380 599 C383 602 385 605 385 608 C385 614 382 616 376 616 L301 616 Z " />
<glyph glyph-name="ucircumflex" unicode="&#xfb;" horiz-adv-x="530" d="M440 393 L283 393 L283 373 L350 373 L350 233 C350 124 345 91 325 59 C307 31 274 13 238 13 C216 13 198 19 188 30 C176 44 174 62 174 160 L174 393 L17 393 L17 373 L84 373 L84 160 C84 76 89 51 115 26 C138 3 175 -10 219 -10 C279 -10 322 11 350 55 L350 0 L506 0 L506 20 L440 20 L440 393 Z M257 536 L392 463 L400 473 L257 620 L113 474 L121 464 L257 536 Z " />
<glyph glyph-name="udieresis" unicode="&#xfc;" horiz-adv-x="530" d="M440 393 L283 393 L283 373 L350 373 L350 233 C350 124 345 91 325 59 C307 31 274 13 238 13 C216 13 198 19 188 30 C176 44 174 62 174 160 L174 393 L17 393 L17 373 L84 373 L84 160 C84 76 89 51 115 26 C138 3 175 -10 219 -10 C279 -10 322 11 350 55 L350 0 L506 0 L506 20 L440 20 L440 393 Z M167 591 C138 591 115 568 115 541 C115 512 137 490 166 490 C195 490 218 512 218 540 C218 568 195 591 167 591 L167 591 Z M350 591 C321 591 299 569 299 541 C299 512 321 490 350 490 C381 490 402 510 402 539 C402 568 379 591 350 591 L350 591 Z " />
<glyph glyph-name="yacute" unicode="&#xfd;" horiz-adv-x="410" d="M372 373 L412 373 L412 393 L266 393 L266 373 L345 373 L252 117 L141 373 L211 373 L211 393 L-2 393 L-2 373 L41 373 L211 0 L155 -148 C136 -196 133 -201 123 -201 C117 -201 114 -199 108 -190 C98 -176 84 -169 66 -169 C38 -169 18 -189 18 -216 C18 -244 42 -265 75 -265 C120 -265 149 -235 176 -159 L372 373 Z M268 616 L171 473 L180 463 L347 599 C350 602 352 605 352 608 C352 614 349 616 343 616 L268 616 Z " />
<glyph glyph-name="thorn" unicode="&#xfe;" horiz-adv-x="494" d="M84 -247 L17 -247 L17 -267 L240 -267 L240 -247 L174 -247 L174 78 C201 18 238 -10 291 -10 C382 -10 460 89 460 204 C460 314 386 403 295 403 C242 403 200 375 174 320 L174 667 L17 667 L17 647 L84 647 L84 -247 Z M284 380 C307 380 325 371 337 352 C349 333 353 302 353 206 C353 127 349 80 340 57 C329 27 311 13 284 13 C218 13 177 86 177 201 C177 273 194 326 226 354 C247 373 263 380 284 380 L284 380 Z " />
<glyph glyph-name="ydieresis" unicode="&#xff;" horiz-adv-x="410" d="M372 373 L412 373 L412 393 L266 393 L266 373 L345 373 L252 117 L141 373 L211 373 L211 393 L-2 393 L-2 373 L41 373 L211 0 L155 -148 C136 -196 133 -201 123 -201 C117 -201 114 -199 108 -190 C98 -176 84 -169 66 -169 C38 -169 18 -189 18 -216 C18 -244 42 -265 75 -265 C120 -265 149 -235 176 -159 L372 373 Z M128 591 C99 591 75 568 75 541 C75 512 97 490 126 490 C155 490 178 512 178 540 C178 568 155 591 128 591 L128 591 Z M310 591 C281 591 259 569 259 541 C259 512 281 490 311 490 C341 490 362 510 362 539 C362 568 339 591 310 591 L310 591 Z " />
<glyph glyph-name="Amacron" unicode="&#x100;" horiz-adv-x="586" d="M343 215 L409 20 L322 20 L322 0 L593 0 L593 20 L522 20 L307 667 L277 667 L51 20 L3 20 L3 0 L165 0 L165 20 L78 20 L143 215 L343 215 Z M337 235 L150 235 L244 512 L337 235 Z M139 785 L139 750 L440 750 L440 785 L139 785 Z " />
<glyph glyph-name="amacron" unicode="&#x101;" horiz-adv-x="443" d="M414 35 C396 20 394 19 384 19 C374 19 370 22 367 31 C363 40 363 40 363 135 L363 245 C363 333 362 338 340 361 C316 387 271 403 222 403 C139 403 65 356 65 303 C65 277 83 259 108 259 C131 259 149 277 149 302 C149 313 146 321 135 333 C131 338 130 340 130 344 C130 364 170 386 206 386 C228 386 250 378 260 366 C271 353 273 343 273 286 L273 217 C206 216 165 209 128 195 C69 171 37 132 37 83 C37 28 80 -10 143 -10 C197 -10 244 18 273 68 C279 17 308 -10 357 -10 C383 -10 403 -2 426 20 L414 35 Z M273 180 C273 128 268 98 257 79 C241 50 216 34 186 34 C148 34 126 59 126 101 C126 134 141 159 171 177 C195 192 220 198 273 200 L273 180 Z M89 544 L89 510 L366 510 L366 544 L89 544 Z " />
<glyph glyph-name="Abreve" unicode="&#x102;" horiz-adv-x="586" d="M344 215 L409 20 L322 20 L322 0 L593 0 L593 20 L523 20 L307 667 L277 667 L51 20 L3 20 L3 0 L165 0 L165 20 L78 20 L143 215 L344 215 Z M337 235 L150 235 L244 512 L337 235 Z M428 843 C401 798 361 778 296 778 C231 778 192 798 169 843 L155 843 C160 807 166 790 184 768 C210 737 250 720 298 720 C343 720 381 734 407 761 C428 783 437 803 441 843 L428 843 Z " />
<glyph glyph-name="abreve" unicode="&#x103;" horiz-adv-x="443" d="M414 35 C396 20 394 19 384 19 C364 19 363 22 363 135 L363 245 C363 331 361 339 340 361 C313 388 272 403 222 403 C139 403 65 356 65 303 C65 277 83 259 108 259 C131 259 149 277 149 302 C149 311 146 320 141 326 C130 339 130 339 130 344 C130 364 170 386 206 386 C229 386 247 379 259 367 C271 354 273 342 273 286 L273 217 C204 215 169 210 133 197 C71 174 37 134 37 83 C37 28 80 -10 143 -10 C198 -10 238 14 273 68 C281 14 307 -10 356 -10 C384 -10 401 -3 426 20 L414 35 Z M273 180 C273 138 270 111 264 93 C252 57 221 34 186 34 C148 34 126 59 126 101 C126 136 144 165 179 183 C201 194 221 197 273 200 L273 180 Z M351 613 C326 553 289 527 229 527 C170 527 133 554 113 613 L100 613 C103 570 109 550 125 524 C149 487 187 466 231 466 C273 466 309 484 332 515 C351 542 359 566 363 613 L351 613 Z " />
<glyph glyph-name="Aogonek" unicode="&#x104;" horiz-adv-x="586" d="M496 0 C423 -30 397 -55 397 -97 C397 -138 430 -162 485 -162 C515 -162 538 -156 572 -141 L572 -124 C551 -131 539 -133 523 -133 C484 -133 462 -115 462 -84 C462 -53 479 -32 531 0 L593 0 L593 20 L523 20 L307 667 L277 667 L51 20 L3 20 L3 0 L165 0 L165 20 L78 20 L143 215 L344 215 L409 20 L322 20 L322 0 L496 0 Z M337 235 L150 235 L244 512 L337 235 Z " />
<glyph glyph-name="aogonek" unicode="&#x105;" horiz-adv-x="443" d="M431 -124 C412 -131 401 -133 385 -133 C350 -133 329 -115 329 -84 C329 -55 344 -34 383 -6 C400 -1 408 4 426 20 L414 35 C396 20 394 19 384 19 C364 19 363 22 363 135 L363 245 C363 331 361 339 340 361 C313 388 272 403 222 403 C139 403 65 356 65 303 C65 277 83 259 108 259 C131 259 149 277 149 302 C149 311 146 320 141 326 C130 339 130 339 130 344 C130 364 170 386 206 386 C229 386 247 379 259 367 C271 354 273 342 273 286 L273 217 C204 215 169 210 133 197 C71 174 37 134 37 83 C37 28 80 -10 143 -10 C198 -10 238 14 273 68 C278 23 301 -3 341 -9 C291 -33 269 -60 269 -97 C269 -138 300 -162 350 -162 C379 -162 400 -156 431 -141 L431 -124 Z M273 180 C273 138 270 111 264 93 C252 57 221 34 186 34 C148 34 126 59 126 101 C126 136 144 165 179 183 C201 194 221 197 273 200 L273 180 Z " />
<glyph glyph-name="Cacute" unicode="&#x106;" horiz-adv-x="584" d="M541 189 L526 189 C501 125 486 98 459 69 C424 31 382 13 331 13 C277 13 228 35 202 72 C176 108 168 165 168 303 C168 449 177 531 197 573 C222 624 274 654 339 654 C396 654 444 632 479 590 C500 565 510 543 526 491 L541 491 L541 667 L526 667 L492 620 C436 660 390 677 335 677 C175 677 42 521 42 332 C42 144 171 -10 328 -10 C385 -10 428 6 492 49 L526 0 L541 0 L541 189 Z M398 837 L260 732 L267 720 L499 812 C511 817 514 820 514 827 C514 835 510 837 498 837 L398 837 Z " />
<glyph glyph-name="cacute" unicode="&#x107;" horiz-adv-x="407" d="M366 127 C335 46 296 13 233 13 C203 13 178 23 163 42 C146 62 141 92 141 164 C141 251 148 310 160 337 C172 363 203 380 238 380 C272 380 308 364 308 349 C308 346 307 345 304 342 C293 331 284 310 284 295 C284 268 303 248 329 248 C357 248 376 269 376 300 C376 356 312 403 236 403 C127 403 35 307 35 194 C35 84 124 -10 229 -10 C272 -10 308 5 337 35 C358 57 370 78 391 127 L366 127 Z M287 616 L190 473 L199 463 L366 599 C369 601 371 605 371 608 C371 613 368 616 362 616 L287 616 Z " />
<glyph glyph-name="Ccircumflex" unicode="&#x108;" horiz-adv-x="584" d="M541 189 L526 189 C501 125 486 98 459 69 C424 31 382 13 331 13 C277 13 228 35 202 72 C176 108 168 165 168 303 C168 449 177 531 197 573 C222 624 274 654 339 654 C396 654 444 632 479 590 C500 565 510 543 526 491 L541 491 L541 667 L526 667 L492 620 C436 660 390 677 335 677 C175 677 42 521 42 332 C42 144 171 -10 328 -10 C385 -10 428 6 492 49 L526 0 L541 0 L541 189 Z M339 843 L172 732 L178 720 L339 769 L499 720 L505 732 L339 843 Z " />
<glyph glyph-name="Cdotaccent" unicode="&#x10a;" horiz-adv-x="584" d="M541 189 L526 189 C501 125 486 98 459 69 C424 31 382 13 331 13 C277 13 228 35 202 72 C176 108 168 165 168 303 C168 449 177 531 197 573 C222 624 274 654 339 654 C396 654 444 632 479 590 C500 565 510 543 526 491 L541 491 L541 667 L526 667 L492 620 C436 660 390 677 335 677 C175 677 42 521 42 332 C42 144 171 -10 328 -10 C385 -10 428 6 492 49 L526 0 L541 0 L541 189 Z M329 831 C301 831 277 807 277 779 C277 750 300 727 329 727 C358 727 381 750 381 778 C381 807 357 831 329 831 L329 831 Z " />
<glyph glyph-name="cdotaccent" unicode="&#x10b;" horiz-adv-x="407" d="M366 127 C335 46 296 13 233 13 C203 13 178 23 163 42 C146 62 141 92 141 164 C141 251 148 310 160 337 C172 363 203 380 238 380 C272 380 308 364 308 349 C308 346 307 345 304 342 C293 331 284 310 284 295 C284 268 303 248 329 248 C357 248 376 269 376 300 C376 356 312 403 236 403 C127 403 35 307 35 194 C35 84 124 -10 229 -10 C272 -10 308 5 337 35 C358 57 370 78 391 127 L366 127 Z M231 593 C202 593 180 571 180 542 C180 512 202 490 232 490 C262 490 283 511 283 540 C283 570 260 593 231 593 L231 593 Z " />
<glyph glyph-name="Ccaron" unicode="&#x10c;" horiz-adv-x="584" d="M541 189 L526 189 C501 125 486 98 459 69 C424 31 382 13 331 13 C277 13 228 35 202 72 C176 108 168 165 168 303 C168 449 177 531 197 573 C222 624 274 654 339 654 C396 654 444 632 479 590 C500 565 510 543 526 491 L541 491 L541 667 L526 667 L492 620 C436 660 390 677 335 677 C175 677 42 521 42 332 C42 144 171 -10 328 -10 C385 -10 428 6 492 49 L526 0 L541 0 L541 189 Z M327 720 L493 832 L487 843 L327 795 L166 843 L160 832 L327 720 Z " />
<glyph glyph-name="ccaron" unicode="&#x10d;" horiz-adv-x="407" d="M366 127 C335 46 296 13 233 13 C203 13 178 23 163 42 C146 62 141 92 141 164 C141 251 148 310 160 337 C172 363 203 380 238 380 C272 380 308 364 308 349 C308 346 307 345 304 342 C293 331 284 310 284 295 C284 268 303 248 329 248 C357 248 376 269 376 300 C376 356 312 403 236 403 C127 403 35 307 35 194 C35 84 124 -10 229 -10 C272 -10 308 5 337 35 C358 57 370 78 391 127 L366 127 Z M232 547 L97 620 L89 610 L232 463 L376 610 L368 620 L232 547 Z " />
<glyph glyph-name="Dcaron" unicode="&#x10e;" horiz-adv-x="675" d="M115 20 L32 20 L32 0 L269 0 C393 0 437 9 491 47 C582 110 634 216 634 339 C634 442 597 530 524 596 C464 651 405 667 260 667 L32 667 L32 647 L115 647 L115 20 Z M222 20 L222 647 L262 647 C307 647 333 646 351 644 C398 638 434 622 459 594 C496 553 507 494 507 340 C507 128 486 67 399 34 C369 22 346 20 268 20 L222 20 Z M285 720 L451 832 L445 843 L285 795 L124 843 L118 832 L285 720 Z " />
<glyph glyph-name="dcaron" unicode="&#x10f;" horiz-adv-x="569" d="M410 667 L253 667 L253 647 L320 647 L320 322 C282 382 251 403 201 403 C110 403 35 311 35 198 C35 84 111 -10 203 -10 C257 -10 293 16 320 76 L320 0 L476 0 L476 20 L410 20 L410 667 Z M212 380 C271 380 318 300 318 199 C318 92 273 13 213 13 C189 13 167 27 155 49 C144 69 142 90 142 179 C142 286 146 327 157 347 C168 367 190 380 212 380 L212 380 Z M490 457 C546 504 569 543 569 591 C569 636 542 667 502 667 C471 667 447 646 447 618 C447 594 464 576 488 576 C510 576 526 592 526 615 C526 617 526 620 525 623 C541 612 547 601 547 583 C547 561 537 536 518 511 C509 499 500 491 477 473 L490 457 Z " />
<glyph glyph-name="Dcroat" unicode="&#x110;" horiz-adv-x="675" d="M115 20 L32 20 L32 0 L287 0 C387 0 427 7 473 34 C574 94 634 207 634 338 C634 444 596 532 523 598 C464 651 408 667 286 667 L32 667 L32 647 L115 647 L115 351 L32 351 L32 331 L115 331 L115 20 Z M222 20 L222 331 L359 331 L359 351 L222 351 L222 647 L284 647 C346 647 363 645 390 637 C433 624 465 596 483 558 C498 524 507 447 507 343 C507 196 495 121 465 81 C433 38 381 20 287 20 L222 20 Z " />
<glyph glyph-name="dcroat" unicode="&#x111;" horiz-adv-x="493" d="M320 557 L199 557 L199 535 L320 535 L320 322 C282 382 251 403 201 403 C110 403 35 311 35 198 C35 84 111 -10 203 -10 C257 -10 293 16 320 76 L320 0 L476 0 L476 20 L410 20 L410 535 L476 535 L476 557 L410 557 L410 667 L253 667 L253 647 L320 647 L320 557 Z M212 380 C271 380 318 300 318 199 C318 92 273 13 213 13 C189 13 167 27 155 49 C144 69 142 90 142 179 C142 286 146 327 157 347 C168 367 190 380 212 380 L212 380 Z " />
<glyph glyph-name="Emacron" unicode="&#x112;" horiz-adv-x="584" d="M115 20 L32 20 L32 0 L528 0 L547 208 L534 208 C491 50 455 13 349 20 L222 20 L222 328 L254 328 C312 328 338 317 352 288 C362 268 364 257 368 196 L381 196 L381 471 L368 471 C366 362 347 346 222 347 L222 647 L299 647 C432 653 475 619 506 484 L519 484 L512 667 L32 667 L32 647 L115 647 L115 20 Z M144 785 L144 750 L445 750 L445 785 L144 785 Z " />
<glyph glyph-name="emacron" unicode="&#x113;" horiz-adv-x="425" d="M398 229 C396 271 389 295 372 322 C340 373 285 403 223 403 C123 403 35 307 35 197 C35 87 126 -10 228 -10 C308 -10 375 48 391 132 L367 132 C348 57 298 13 234 13 C196 13 167 29 152 59 C141 80 139 101 139 200 L139 229 L398 229 Z M139 249 C139 324 139 324 150 344 C162 367 189 380 222 380 C253 380 277 366 286 341 C293 323 294 315 294 249 L139 249 Z M89 544 L89 510 L366 510 L366 544 L89 544 Z " />
<glyph glyph-name="Ebreve" unicode="&#x114;" horiz-adv-x="584" d="M115 20 L32 20 L32 0 L528 0 L547 208 L534 208 C507 115 492 80 469 56 C431 21 428 20 349 20 L222 20 L222 328 L254 328 C344 327 364 304 368 196 L381 196 L381 471 L368 471 C366 362 347 346 222 347 L222 647 L299 647 C430 654 476 617 506 484 L519 484 L512 667 L32 667 L32 647 L115 647 L115 20 Z M428 843 C401 798 361 778 296 778 C232 778 192 798 170 843 L155 843 C160 807 166 790 184 768 C210 737 250 720 298 720 C343 720 382 734 407 761 C428 783 437 803 441 843 L428 843 Z " />
<glyph glyph-name="ebreve" unicode="&#x115;" horiz-adv-x="425" d="M398 229 C395 267 391 285 380 307 C350 367 291 403 225 403 C123 403 35 308 35 198 C35 87 125 -10 228 -10 C274 -10 317 9 347 43 C370 68 381 90 391 132 L367 132 C355 94 348 78 332 60 C306 29 273 13 234 13 C197 13 169 28 153 57 C141 78 139 99 139 200 L139 229 L398 229 Z M139 249 L139 271 C139 319 142 335 156 352 C171 370 193 380 221 380 C256 380 279 365 288 334 C293 320 294 311 294 249 L139 249 Z M344 613 C320 553 283 527 223 527 C163 527 127 554 106 613 L93 613 C97 570 103 550 119 524 C143 487 180 466 225 466 C266 466 302 484 325 515 C345 542 352 566 356 613 L344 613 Z " />
<glyph glyph-name="Edotaccent" unicode="&#x116;" horiz-adv-x="584" d="M115 20 L32 20 L32 0 L528 0 L547 208 L534 208 C507 115 492 80 469 56 C431 21 428 20 349 20 L222 20 L222 328 L254 328 C344 327 364 304 368 196 L381 196 L381 471 L368 471 C366 362 347 346 222 347 L222 647 L299 647 C430 654 476 617 506 484 L519 484 L512 667 L32 667 L32 647 L115 647 L115 20 Z M290 831 C262 831 238 807 238 779 C238 750 261 727 290 727 C319 727 342 750 342 778 C342 807 318 831 290 831 L290 831 Z " />
<glyph glyph-name="edotaccent" unicode="&#x117;" horiz-adv-x="425" d="M398 229 C395 267 391 285 380 307 C350 367 291 403 225 403 C123 403 35 308 35 198 C35 87 125 -10 228 -10 C274 -10 317 9 347 43 C370 68 381 90 391 132 L367 132 C355 94 348 78 332 60 C306 29 273 13 234 13 C197 13 169 28 153 57 C141 78 139 99 139 200 L139 229 L398 229 Z M139 249 L139 271 C139 319 142 335 156 352 C171 370 193 380 221 380 C256 380 279 365 288 334 C293 320 294 311 294 249 L139 249 Z M233 593 C204 593 182 571 182 542 C182 512 204 490 234 490 C264 490 285 511 285 540 C285 570 262 593 233 593 L233 593 Z " />
<glyph glyph-name="Eogonek" unicode="&#x118;" horiz-adv-x="584" d="M448 0 C375 -30 349 -55 349 -97 C349 -138 382 -162 437 -162 C467 -162 490 -156 523 -141 L523 -124 C503 -131 491 -133 474 -133 C436 -133 414 -115 414 -84 C414 -53 430 -32 482 0 L528 0 L547 208 L534 208 C507 115 492 80 469 56 C431 21 428 20 349 20 L222 20 L222 328 L254 328 C344 327 364 304 368 196 L381 196 L381 471 L368 471 C366 362 347 346 222 347 L222 647 L299 647 C430 654 476 617 506 484 L519 484 L512 667 L32 667 L32 647 L115 647 L115 20 L32 20 L32 0 L448 0 Z " />
<glyph glyph-name="eogonek" unicode="&#x119;" horiz-adv-x="425" d="M337 -124 C318 -131 307 -133 291 -133 C256 -133 235 -115 235 -84 C235 -54 249 -35 302 5 C357 44 378 75 391 132 L367 132 C355 94 348 78 332 60 C306 29 273 13 234 13 C197 13 169 28 153 57 C141 78 139 99 139 200 L139 229 L398 229 C395 267 391 285 380 307 C350 367 291 403 225 403 C123 403 35 308 35 198 C35 87 125 -10 228 -10 C233 -10 239 -10 247 -9 C199 -31 175 -60 175 -97 C175 -138 206 -162 256 -162 C285 -162 306 -156 337 -141 L337 -124 Z M139 249 L139 271 C139 319 142 335 156 352 C171 370 193 380 221 380 C256 380 279 365 288 334 C293 320 294 311 294 249 L139 249 Z " />
<glyph glyph-name="Ecaron" unicode="&#x11a;" horiz-adv-x="584" d="M115 20 L32 20 L32 0 L528 0 L547 208 L534 208 C507 115 492 80 469 56 C431 21 428 20 349 20 L222 20 L222 328 L254 328 C344 327 364 304 368 196 L381 196 L381 471 L368 471 C366 362 347 346 222 347 L222 647 L299 647 C430 654 476 617 506 484 L519 484 L512 667 L32 667 L32 647 L115 647 L115 20 Z M294 720 L460 832 L454 843 L294 795 L133 843 L127 832 L294 720 Z " />
<glyph glyph-name="ecaron" unicode="&#x11b;" horiz-adv-x="425" d="M398 229 C395 267 391 285 380 307 C350 367 291 403 225 403 C123 403 35 308 35 198 C35 87 125 -10 228 -10 C274 -10 317 9 347 43 C370 68 381 90 391 132 L367 132 C355 94 348 78 332 60 C306 29 273 13 234 13 C197 13 169 28 153 57 C141 78 139 99 139 200 L139 229 L398 229 Z M139 249 L139 271 C139 319 142 335 156 352 C171 370 193 380 221 380 C256 380 279 365 288 334 C293 320 294 311 294 249 L139 249 Z M227 547 L92 620 L84 610 L227 463 L371 610 L363 620 L227 547 Z " />
<glyph glyph-name="Gcircumflex" unicode="&#x11c;" horiz-adv-x="637" d="M528 667 L515 667 L481 627 C422 664 382 677 333 677 C174 677 42 520 42 332 C42 145 170 -10 325 -10 C410 -10 499 39 538 107 C554 135 560 161 564 213 L627 213 L627 233 L345 233 L345 213 L445 213 C444 157 442 137 437 115 C422 51 376 13 314 13 C259 13 212 44 193 91 C176 134 169 205 169 327 C169 469 180 554 205 594 C228 631 275 654 329 654 C377 654 419 637 453 602 C485 570 501 538 518 468 L533 468 L528 667 Z M336 843 L169 732 L175 720 L336 769 L496 720 L502 732 L336 843 Z " />
<glyph glyph-name="gcircumflex" unicode="&#x11d;" horiz-adv-x="439" d="M269 22 L215 21 L163 20 L144 20 L137 20 C86 20 69 29 69 56 C69 83 88 106 136 139 C165 126 181 123 208 123 C306 123 372 179 372 261 C372 293 364 318 341 350 C354 363 357 366 364 366 C370 366 372 363 375 350 C379 329 390 320 408 320 C430 320 445 336 445 359 C445 385 426 403 398 403 C374 403 357 393 327 362 C292 391 260 403 214 403 C123 403 55 343 55 262 C55 217 72 187 117 149 C54 105 29 70 29 24 C29 -21 51 -47 104 -64 C49 -84 25 -111 25 -152 C25 -219 105 -272 206 -272 C329 -272 416 -195 416 -85 C416 -43 403 -12 379 5 C361 17 340 22 298 22 L269 22 Z M214 383 C233 383 248 379 258 372 C274 360 277 345 277 275 C277 205 274 180 262 165 C251 151 235 144 211 144 C162 144 150 165 150 253 C150 363 160 383 214 383 L214 383 Z M329 -64 C369 -63 385 -76 385 -106 C385 -185 308 -247 211 -247 C135 -247 86 -205 86 -141 C86 -112 95 -92 120 -64 C144 -67 147 -67 171 -67 C201 -67 245 -66 281 -65 L329 -64 Z M214 536 L350 463 L358 473 L214 620 L71 474 L79 464 L214 536 Z " />
<glyph glyph-name="Gbreve" unicode="&#x11e;" horiz-adv-x="637" d="M528 667 L515 667 L481 627 C422 664 382 677 333 677 C174 677 42 520 42 332 C42 145 170 -10 325 -10 C410 -10 499 39 538 107 C554 135 560 161 564 213 L627 213 L627 233 L345 233 L345 213 L445 213 C444 157 442 137 437 115 C422 51 376 13 314 13 C259 13 212 44 193 91 C176 134 169 205 169 327 C169 469 180 554 205 594 C228 631 275 654 329 654 C377 654 419 637 453 602 C485 570 501 538 518 468 L533 468 L528 667 Z M464 843 C438 798 398 778 333 778 C268 778 228 798 206 843 L192 843 C196 807 203 790 220 768 C246 737 286 720 335 720 C380 720 418 734 444 761 C465 783 473 803 477 843 L464 843 Z " />
<glyph glyph-name="gbreve" unicode="&#x11f;" horiz-adv-x="439" d="M269 22 L215 21 L163 20 L144 20 L137 20 C86 20 69 29 69 56 C69 83 88 106 136 139 C165 126 181 123 208 123 C306 123 372 179 372 261 C372 293 364 318 341 350 C354 363 357 366 364 366 C370 366 372 363 375 350 C379 329 390 320 408 320 C430 320 445 336 445 359 C445 385 426 403 398 403 C374 403 357 393 327 362 C292 391 260 403 214 403 C123 403 55 343 55 262 C55 217 72 187 117 149 C54 105 29 70 29 24 C29 -21 51 -47 104 -64 C49 -84 25 -111 25 -152 C25 -219 105 -272 206 -272 C329 -272 416 -195 416 -85 C416 -43 403 -12 379 5 C361 17 340 22 298 22 L269 22 Z M214 383 C233 383 248 379 258 372 C274 360 277 345 277 275 C277 205 274 180 262 165 C251 151 235 144 211 144 C162 144 150 165 150 253 C150 363 160 383 214 383 L214 383 Z M329 -64 C369 -63 385 -76 385 -106 C385 -185 308 -247 211 -247 C135 -247 86 -205 86 -141 C86 -112 95 -92 120 -64 C144 -67 147 -67 171 -67 C201 -67 245 -66 281 -65 L329 -64 Z M338 613 C314 553 277 527 217 527 C158 527 121 554 100 613 L87 613 C91 570 97 550 113 524 C137 487 174 466 219 466 C260 466 297 484 320 515 C339 542 347 566 350 613 L338 613 Z " />
<glyph glyph-name="Gdotaccent" unicode="&#x120;" horiz-adv-x="637" d="M528 667 L515 667 L481 627 C422 664 382 677 333 677 C174 677 42 520 42 332 C42 145 170 -10 325 -10 C410 -10 499 39 538 107 C554 135 560 161 564 213 L627 213 L627 233 L345 233 L345 213 L445 213 C444 157 442 137 437 115 C422 51 376 13 314 13 C259 13 212 44 193 91 C176 134 169 205 169 327 C169 469 180 554 205 594 C228 631 275 654 329 654 C377 654 419 637 453 602 C485 570 501 538 518 468 L533 468 L528 667 Z M335 831 C307 831 283 807 283 779 C283 750 306 727 335 727 C364 727 387 750 387 778 C387 807 363 831 335 831 L335 831 Z " />
<glyph glyph-name="gdotaccent" unicode="&#x121;" horiz-adv-x="439" d="M269 22 L215 21 L163 20 L144 20 L137 20 C86 20 69 29 69 56 C69 83 88 106 136 139 C165 126 181 123 208 123 C306 123 372 179 372 261 C372 293 364 318 341 350 C354 363 357 366 364 366 C370 366 372 363 375 350 C379 329 390 320 408 320 C430 320 445 336 445 359 C445 385 426 403 398 403 C374 403 357 393 327 362 C292 391 260 403 214 403 C123 403 55 343 55 262 C55 217 72 187 117 149 C54 105 29 70 29 24 C29 -21 51 -47 104 -64 C49 -84 25 -111 25 -152 C25 -219 105 -272 206 -272 C329 -272 416 -195 416 -85 C416 -43 403 -12 379 5 C361 17 340 22 298 22 L269 22 Z M214 383 C233 383 248 379 258 372 C274 360 277 345 277 275 C277 205 274 180 262 165 C251 151 235 144 211 144 C162 144 150 165 150 253 C150 363 160 383 214 383 L214 383 Z M329 -64 C369 -63 385 -76 385 -106 C385 -185 308 -247 211 -247 C135 -247 86 -205 86 -141 C86 -112 95 -92 120 -64 C144 -67 147 -67 171 -67 C201 -67 245 -66 281 -65 L329 -64 Z M218 593 C189 593 167 571 167 542 C167 512 189 490 219 490 C249 490 270 511 270 540 C270 570 247 593 218 593 L218 593 Z " />
<glyph glyph-name="Gcommaaccent" unicode="&#x122;" horiz-adv-x="637" d="M528 667 L515 667 L481 627 C422 664 382 677 333 677 C174 677 42 520 42 332 C42 145 170 -10 325 -10 C410 -10 499 39 538 107 C554 135 560 161 564 213 L627 213 L627 233 L345 233 L345 213 L445 213 C444 157 442 137 437 115 C422 51 376 13 314 13 C259 13 212 44 193 91 C176 134 169 205 169 327 C169 469 180 554 205 594 C228 631 275 654 329 654 C377 654 419 637 453 602 C485 570 501 538 518 468 L533 468 L528 667 Z M307 -262 C366 -212 390 -170 390 -120 C390 -72 361 -39 320 -39 C286 -39 261 -62 261 -92 C261 -117 280 -136 305 -136 C329 -136 346 -119 346 -95 C346 -92 346 -90 345 -86 C360 -98 366 -109 366 -128 C366 -152 356 -178 336 -204 C327 -217 318 -226 293 -245 L307 -262 Z " />
<glyph glyph-name="gcommaaccent" unicode="&#x123;" horiz-adv-x="439" d="M269 22 L215 21 L163 20 L144 20 L137 20 C86 20 69 29 69 56 C69 83 88 106 136 139 C165 126 181 123 208 123 C306 123 372 179 372 261 C372 293 364 318 341 350 C354 363 357 366 364 366 C370 366 372 363 375 350 C379 329 390 320 408 320 C430 320 445 336 445 359 C445 385 426 403 398 403 C374 403 357 393 327 362 C292 391 260 403 214 403 C123 403 55 343 55 262 C55 217 72 187 117 149 C54 105 29 70 29 24 C29 -21 51 -47 104 -64 C49 -84 25 -111 25 -152 C25 -219 105 -272 206 -272 C329 -272 416 -195 416 -85 C416 -43 403 -12 379 5 C361 17 340 22 298 22 L269 22 Z M214 383 C233 383 248 379 258 372 C274 360 277 345 277 275 C277 205 274 180 262 165 C251 151 235 144 211 144 C162 144 150 165 150 253 C150 363 160 383 214 383 L214 383 Z M329 -64 C369 -63 385 -76 385 -106 C385 -185 308 -247 211 -247 C135 -247 86 -205 86 -141 C86 -112 95 -92 120 -64 C144 -67 147 -67 171 -67 C201 -67 245 -66 281 -65 L329 -64 Z M244 667 C188 620 165 581 165 534 C165 488 192 457 232 457 C263 457 287 478 287 506 C287 530 270 548 246 548 C224 548 208 532 208 510 L208 501 C193 512 187 523 187 541 C187 580 208 613 257 651 L244 667 Z " />
<glyph glyph-name="Hcircumflex" unicode="&#x124;" horiz-adv-x="711" d="M490 331 L490 20 L407 20 L407 0 L680 0 L680 20 L597 20 L597 647 L680 647 L680 667 L407 667 L407 647 L490 647 L490 351 L222 351 L222 647 L305 647 L305 667 L32 667 L32 647 L115 647 L115 20 L32 20 L32 0 L305 0 L305 20 L222 20 L222 331 L490 331 Z M371 843 L204 732 L210 720 L371 769 L531 720 L537 732 L371 843 Z " />
<glyph glyph-name="Hbar" unicode="&#x126;" horiz-adv-x="711" d="M115 478 L115 20 L32 20 L32 0 L305 0 L305 20 L222 20 L222 331 L490 331 L490 20 L407 20 L407 0 L680 0 L680 20 L597 20 L597 478 L659 478 L659 498 L597 498 L597 647 L680 647 L680 667 L407 667 L407 647 L490 647 L490 498 L222 498 L222 647 L305 647 L305 667 L32 667 L32 647 L115 647 L115 498 L52 498 L52 478 L115 478 Z M222 478 L490 478 L490 351 L222 351 L222 478 Z " />
<glyph glyph-name="hbar" unicode="&#x127;" horiz-adv-x="528" d="M174 535 L294 535 L294 557 L174 557 L174 667 L17 667 L17 647 L84 647 L84 557 L17 557 L17 535 L84 535 L84 20 L17 20 L17 0 L234 0 L234 20 L174 20 L174 165 C174 238 178 276 190 303 C208 346 249 374 292 374 C315 374 333 367 343 354 C353 341 355 327 355 258 L355 20 L295 20 L295 0 L512 0 L512 20 L445 20 L445 258 C445 326 442 344 425 364 C404 390 368 403 320 403 C253 403 214 381 174 322 L174 535 Z " />
<glyph glyph-name="Imacron" unicode="&#x12a;" horiz-adv-x="337" d="M115 20 L32 20 L32 0 L305 0 L305 20 L222 20 L222 647 L305 647 L305 667 L32 667 L32 647 L115 647 L115 20 Z M32 785 L32 750 L305 750 L305 785 L32 785 Z " />
<glyph glyph-name="imacron" unicode="&#x12b;" horiz-adv-x="270" d="M97 20 L30 20 L30 0 L254 0 L254 20 L187 20 L187 393 L30 393 L30 373 L97 373 L97 20 Z M3 544 L3 510 L248 510 L248 544 L3 544 Z " />
<glyph glyph-name="ibreve" unicode="&#x12d;" horiz-adv-x="270" d="M98 20 L31 20 L31 0 L254 0 L254 20 L188 20 L188 393 L31 393 L31 373 L98 373 L98 20 Z M261 613 C237 553 200 527 140 527 C80 527 44 554 23 613 L10 613 C14 570 20 550 36 524 C60 487 97 466 142 466 C183 466 219 484 242 515 C262 542 269 566 273 613 L261 613 Z " />
<glyph glyph-name="Iogonek" unicode="&#x12e;" horiz-adv-x="337" d="M199 0 C126 -30 100 -55 100 -97 C100 -138 133 -162 188 -162 C218 -162 242 -156 275 -141 L275 -124 C254 -131 243 -133 226 -133 C187 -133 165 -115 165 -84 C165 -53 182 -32 234 0 L305 0 L305 20 L222 20 L222 647 L305 647 L305 667 L32 667 L32 647 L115 647 L115 20 L32 20 L32 0 L199 0 Z " />
<glyph glyph-name="iogonek" unicode="&#x12f;" horiz-adv-x="270" d="M164 0 C96 -30 72 -55 72 -97 C72 -138 103 -162 153 -162 C182 -162 203 -156 234 -141 L234 -124 C215 -131 204 -133 188 -133 C153 -133 132 -115 132 -84 C132 -52 145 -35 196 0 L253 0 L253 20 L187 20 L187 393 L30 393 L30 373 L97 373 L97 20 L30 20 L30 0 L164 0 Z M138 653 C107 653 83 629 83 597 C83 565 107 540 139 540 C171 540 196 565 196 597 C196 628 171 653 138 653 L138 653 Z " />
<glyph glyph-name="Idotaccent" unicode="&#x130;" horiz-adv-x="337" d="M115 20 L32 20 L32 0 L305 0 L305 20 L222 20 L222 647 L305 647 L305 667 L32 667 L32 647 L115 647 L115 20 Z M169 831 C141 831 117 807 117 779 C117 750 140 727 169 727 C198 727 221 750 221 778 C221 807 197 831 169 831 L169 831 Z " />
<glyph glyph-name="dotlessi" unicode="&#x131;" horiz-adv-x="270" d="M97 20 L30 20 L30 0 L253 0 L253 20 L187 20 L187 393 L30 393 L30 373 L97 373 L97 20 Z " />
<glyph glyph-name="Kcommaaccent" unicode="&#x136;" horiz-adv-x="653" d="M115 20 L32 20 L32 0 L305 0 L305 20 L222 20 L222 647 L305 647 L305 667 L32 667 L32 647 L115 647 L115 20 Z M318 407 L531 647 L615 647 L615 667 L402 667 L402 647 L500 647 L232 348 L477 20 L390 20 L390 0 L653 0 L653 20 L605 20 L318 407 Z M324 -262 C383 -212 407 -170 407 -120 C407 -72 378 -39 337 -39 C303 -39 278 -62 278 -92 C278 -117 296 -136 321 -136 C345 -136 362 -119 362 -95 C362 -92 362 -89 361 -86 C377 -98 383 -109 383 -128 C383 -152 373 -179 353 -204 C344 -217 334 -226 310 -245 L324 -262 Z " />
<glyph glyph-name="kcommaaccent" unicode="&#x137;" horiz-adv-x="489" d="M174 667 L17 667 L17 647 L84 647 L84 20 L17 20 L17 0 L240 0 L240 20 L174 20 L174 667 Z M259 252 L385 373 L454 373 L454 393 L252 393 L252 373 L350 373 L183 210 L327 20 L277 20 L277 0 L491 0 L491 20 L445 20 L259 252 Z M240 -250 C295 -203 318 -164 318 -116 C318 -70 291 -39 251 -39 C220 -39 196 -60 196 -89 C196 -113 213 -131 237 -131 C260 -131 276 -115 276 -92 C276 -89 276 -87 275 -84 C290 -95 296 -106 296 -123 C296 -163 275 -196 227 -234 L240 -250 Z " />
<glyph glyph-name="Lacute" unicode="&#x139;" horiz-adv-x="570" d="M115 20 L32 20 L32 0 L530 0 L547 206 L533 206 C496 47 463 16 340 20 L222 20 L222 647 L305 647 L305 667 L32 667 L32 647 L115 647 L115 20 Z M292 837 L154 732 L161 720 L393 812 C405 817 408 820 408 827 C408 835 404 837 392 837 L292 837 Z " />
<glyph glyph-name="lacute" unicode="&#x13a;" horiz-adv-x="257" d="M84 20 L17 20 L17 0 L240 0 L240 20 L174 20 L174 667 L17 667 L17 647 L84 647 L84 20 Z M221 837 L83 732 L90 720 L322 812 C334 817 337 820 337 827 C337 835 333 837 321 837 L221 837 Z " />
<glyph glyph-name="Lcommaaccent" unicode="&#x13b;" horiz-adv-x="570" d="M115 20 L32 20 L32 0 L530 0 L547 206 L533 206 C496 47 463 16 340 20 L222 20 L222 647 L305 647 L305 667 L32 667 L32 647 L115 647 L115 20 Z M271 -262 C330 -212 354 -170 354 -120 C354 -72 325 -39 284 -39 C250 -39 225 -62 225 -92 C225 -117 243 -136 268 -136 C292 -136 309 -119 309 -95 C309 -92 309 -89 308 -86 C324 -98 330 -109 330 -128 C330 -152 320 -179 300 -204 C291 -217 281 -226 257 -245 L271 -262 Z " />
<glyph glyph-name="lcommaaccent" unicode="&#x13c;" horiz-adv-x="257" d="M84 20 L17 20 L17 0 L240 0 L240 20 L174 20 L174 667 L17 667 L17 647 L84 647 L84 20 Z M114 -250 C170 -203 193 -164 193 -116 C193 -70 166 -39 126 -39 C95 -39 71 -60 71 -89 C71 -113 88 -131 112 -131 C135 -131 151 -115 151 -92 C151 -89 151 -87 150 -84 C165 -95 171 -106 171 -123 C171 -163 150 -196 101 -234 L114 -250 Z " />
<glyph glyph-name="Lcaron" unicode="&#x13d;" horiz-adv-x="570" d="M115 20 L32 20 L32 0 L530 0 L547 206 L533 206 C496 47 463 16 340 20 L222 20 L222 647 L305 647 L305 667 L32 667 L32 647 L115 647 L115 20 Z M378 445 C437 494 461 536 461 586 C461 634 432 667 391 667 C357 667 332 644 332 614 C332 589 350 570 375 570 C399 570 416 587 416 611 L416 620 C431 609 437 597 437 579 C437 537 415 502 364 462 L378 445 Z " />
<glyph glyph-name="lcaron" unicode="&#x13e;" horiz-adv-x="326" d="M84 20 L17 20 L17 0 L240 0 L240 20 L174 20 L174 667 L17 667 L17 647 L84 647 L84 20 Z M247 457 C303 504 326 543 326 591 C326 636 299 667 259 667 C228 667 204 646 204 618 C204 594 221 576 245 576 C268 576 284 592 284 615 C284 618 284 618 283 623 C298 612 304 601 304 583 C304 544 284 511 234 473 L247 457 Z " />
<glyph glyph-name="Ldot" unicode="&#x13f;" horiz-adv-x="570" d="M115 20 L32 20 L32 0 L530 0 L547 206 L533 206 C496 47 463 16 340 20 L222 20 L222 647 L305 647 L305 667 L32 667 L32 647 L115 647 L115 20 Z M354 377 C325 377 303 355 303 326 C303 296 325 274 355 274 C385 274 406 295 406 324 C406 354 383 377 354 377 L354 377 Z " />
<glyph glyph-name="ldot" unicode="&#x140;" horiz-adv-x="312" d="M84 20 L17 20 L17 0 L240 0 L240 20 L174 20 L174 667 L17 667 L17 647 L84 647 L84 20 Z M269 385 C240 385 218 363 218 334 C218 304 240 282 270 282 C300 282 321 303 321 332 C321 362 298 385 269 385 L269 385 Z " />
<glyph glyph-name="Lslash" unicode="&#x141;" horiz-adv-x="570" d="M115 286 L32 220 L32 195 L115 261 L115 20 L32 20 L32 0 L530 0 L547 206 L534 206 C497 50 461 15 340 20 L222 20 L222 323 L379 444 L379 469 L222 348 L222 647 L305 647 L305 667 L32 667 L32 647 L115 647 L115 286 Z " />
<glyph glyph-name="lslash" unicode="&#x142;" horiz-adv-x="257" d="M84 337 L17 285 L17 260 L84 311 L84 20 L17 20 L17 0 L240 0 L240 20 L174 20 L174 360 L240 412 L240 437 L174 386 L174 667 L17 667 L17 647 L84 647 L84 337 Z " />
<glyph glyph-name="Nacute" unicode="&#x143;" horiz-adv-x="668" d="M108 20 L25 20 L25 0 L215 0 L215 20 L131 20 L131 628 L540 0 L563 0 L563 647 L646 647 L646 667 L456 667 L456 647 L540 647 L540 196 C507 251 486 284 428 374 L234 667 L25 667 L25 647 L108 647 L108 20 Z M419 837 L281 732 L288 720 L520 812 C532 817 535 820 535 827 C535 835 531 837 519 837 L419 837 Z " />
<glyph glyph-name="nacute" unicode="&#x144;" horiz-adv-x="526" d="M97 20 L30 20 L30 0 L247 0 L247 20 L187 20 L187 139 C187 258 193 305 212 333 C228 357 258 373 285 373 C305 373 322 365 333 350 C349 329 353 293 353 174 L353 20 L293 20 L293 0 L509 0 L509 20 L443 20 L443 242 C443 316 437 340 415 364 C392 389 353 403 311 403 C259 403 224 386 187 341 L187 393 L30 393 L30 373 L97 373 L97 20 Z M320 616 L223 473 L232 463 L399 599 C402 602 404 605 404 608 C404 613 400 616 395 616 L320 616 Z " />
<glyph glyph-name="Ncommaaccent" unicode="&#x145;" horiz-adv-x="668" d="M108 20 L25 20 L25 0 L215 0 L215 20 L131 20 L131 628 L540 0 L563 0 L563 647 L646 647 L646 667 L456 667 L456 647 L540 647 L540 196 C507 251 486 284 428 374 L234 667 L25 667 L25 647 L108 647 L108 20 Z M317 -262 C376 -212 400 -170 400 -120 C400 -72 371 -39 330 -39 C296 -39 271 -62 271 -92 C271 -117 289 -136 314 -136 C338 -136 355 -119 355 -95 C355 -92 355 -89 354 -86 C370 -98 376 -109 376 -128 C376 -152 366 -179 346 -204 C337 -217 327 -226 303 -245 L317 -262 Z " />
<glyph glyph-name="ncommaaccent" unicode="&#x146;" horiz-adv-x="526" d="M97 20 L30 20 L30 0 L247 0 L247 20 L187 20 L187 139 C187 258 193 305 212 333 C228 357 258 373 285 373 C305 373 322 365 333 350 C349 329 353 293 353 174 L353 20 L293 20 L293 0 L509 0 L509 20 L443 20 L443 242 C443 316 437 340 415 364 C392 389 353 403 311 403 C259 403 224 386 187 341 L187 393 L30 393 L30 373 L97 373 L97 20 Z M255 -250 C311 -203 334 -164 334 -116 C334 -70 307 -39 267 -39 C236 -39 212 -60 212 -89 C212 -113 229 -131 253 -131 C276 -131 292 -115 292 -92 C292 -89 292 -87 291 -84 C306 -95 312 -106 312 -123 C312 -163 291 -196 242 -234 L255 -250 Z " />
<glyph glyph-name="Ncaron" unicode="&#x147;" horiz-adv-x="668" d="M108 20 L25 20 L25 0 L215 0 L215 20 L131 20 L131 628 L540 0 L563 0 L563 647 L646 647 L646 667 L456 667 L456 647 L540 647 L540 196 C507 251 486 284 428 374 L234 667 L25 667 L25 647 L108 647 L108 20 Z M340 720 L506 832 L500 843 L340 795 L179 843 L173 832 L340 720 Z " />
<glyph glyph-name="ncaron" unicode="&#x148;" horiz-adv-x="526" d="M97 20 L30 20 L30 0 L247 0 L247 20 L187 20 L187 139 C187 258 193 305 212 333 C228 357 258 373 285 373 C305 373 322 365 333 350 C349 329 353 293 353 174 L353 20 L293 20 L293 0 L509 0 L509 20 L443 20 L443 242 C443 316 437 340 415 364 C392 389 353 403 311 403 C259 403 224 386 187 341 L187 393 L30 393 L30 373 L97 373 L97 20 Z M270 547 L135 620 L127 610 L270 463 L414 610 L406 620 L270 547 Z " />
<glyph glyph-name="Omacron" unicode="&#x14c;" horiz-adv-x="664" d="M332 677 C175 677 42 519 42 334 C42 148 175 -10 333 -10 C405 -10 474 22 526 79 C586 147 623 242 623 329 C623 520 492 677 332 677 L332 677 Z M333 654 C384 654 431 632 458 595 C486 555 496 488 496 329 C496 192 487 122 464 83 C439 39 389 13 333 13 C281 13 235 35 208 72 C179 112 169 179 169 333 C169 475 178 545 201 584 C226 628 275 654 333 654 L333 654 Z M186 785 L186 750 L487 750 L487 785 L186 785 Z " />
<glyph glyph-name="omacron" unicode="&#x14d;" horiz-adv-x="475" d="M237 403 C126 403 35 310 35 197 C35 82 125 -10 238 -10 C348 -10 440 82 440 194 C440 311 351 403 237 403 L237 403 Z M236 380 C276 380 301 369 317 345 C332 324 333 312 333 195 C333 90 332 75 322 56 C307 27 279 13 238 13 C199 13 174 24 158 48 C143 70 142 81 142 197 C142 304 143 318 153 338 C168 366 196 380 236 380 L236 380 Z M99 544 L99 510 L376 510 L376 544 L99 544 Z " />
<glyph glyph-name="Ohungarumlaut" unicode="&#x150;" horiz-adv-x="664" d="M331 677 C175 677 42 519 42 334 C42 147 175 -10 333 -10 C405 -10 475 22 526 79 C586 145 623 243 623 334 C623 521 490 677 331 677 L331 677 Z M334 654 C376 654 415 639 443 611 C484 572 496 507 496 329 C496 198 487 127 466 87 C441 41 391 13 332 13 C281 13 237 33 210 69 C179 110 169 176 169 336 C169 473 177 540 199 580 C224 627 274 654 334 654 L334 654 Z M523 837 L385 732 L392 720 L624 812 C636 817 639 820 639 827 C639 835 635 837 623 837 L523 837 Z M348 837 L210 732 L217 720 L449 812 C461 817 464 820 464 827 C464 835 460 837 448 837 L348 837 Z " />
<glyph glyph-name="ohungarumlaut" unicode="&#x151;" horiz-adv-x="475" d="M236 403 C126 403 35 310 35 196 C35 82 125 -10 237 -10 C349 -10 440 82 440 195 C440 312 350 403 236 403 L236 403 Z M237 380 C270 380 293 372 309 355 C331 333 333 319 333 215 C333 84 332 70 317 48 C302 25 276 13 237 13 C200 13 177 23 159 46 C144 66 142 82 142 178 C142 310 143 323 158 345 C173 369 199 380 237 380 L237 380 Z M390 616 L293 473 L302 463 L462 599 C465 601 467 605 467 608 C467 613 464 616 458 616 L390 616 Z M251 616 L154 473 L163 463 L323 599 C326 601 328 605 328 608 C328 613 325 616 319 616 L251 616 Z " />
<glyph glyph-name="OE" unicode="&#x152;" horiz-adv-x="920" d="M848 667 L443 667 C411 675 392 677 363 677 C179 677 42 529 42 332 C42 228 83 130 154 66 C210 15 276 -10 356 -10 C386 -10 407 -8 443 0 L864 0 L883 208 L870 208 C827 50 791 13 685 20 L558 20 L558 328 L590 328 C648 328 674 317 688 288 C698 268 700 257 704 196 L717 196 L717 471 L704 471 C702 362 683 346 558 347 L558 647 L635 647 C768 653 811 619 842 484 L855 484 L848 667 Z M451 29 C412 17 389 13 354 13 C288 13 240 33 210 74 C181 115 169 185 169 328 C169 480 179 550 206 586 C238 630 294 654 361 654 C392 654 414 650 451 639 L451 29 Z " />
<glyph glyph-name="oe" unicode="&#x153;" horiz-adv-x="699" d="M671 227 C669 270 662 294 644 323 C613 372 557 403 499 403 C449 403 410 383 372 337 C335 380 286 403 233 403 C127 403 35 305 35 191 C35 84 124 -10 228 -10 C283 -10 328 12 367 58 C404 13 452 -10 509 -10 C592 -10 653 44 671 135 L645 135 C625 56 578 13 511 13 C472 13 444 28 431 57 C420 80 416 115 416 190 C416 195 416 211 417 227 L671 227 Z M569 247 L416 247 L416 271 C416 315 421 339 433 354 C446 369 470 379 496 379 C522 379 543 370 555 352 C567 337 569 327 569 271 L569 247 Z M229 379 C263 379 291 364 305 338 C315 318 318 291 318 203 C318 105 317 82 311 65 C300 32 270 13 231 13 C187 13 157 36 148 75 C143 101 141 141 141 244 C141 303 144 324 156 343 C170 366 196 379 229 379 L229 379 Z " />
<glyph glyph-name="Racute" unicode="&#x154;" horiz-adv-x="637" d="M115 20 L32 20 L32 0 L305 0 L305 20 L222 20 L222 345 L253 345 C372 346 405 314 407 195 C410 120 411 109 419 87 C439 30 487 -4 546 -4 C570 -4 590 1 617 12 L610 30 C590 21 582 19 572 19 C542 19 526 45 526 96 L526 124 L526 145 C528 261 464 334 343 353 C410 360 442 370 478 393 C524 422 547 464 547 515 C547 564 526 601 483 630 C437 660 398 667 263 667 L32 667 L32 647 L115 647 L115 20 Z M222 367 L222 647 L262 647 C334 647 362 641 388 621 C417 598 433 558 433 507 C433 455 417 413 388 392 C364 374 329 367 258 367 L222 367 Z M367 837 L229 732 L236 720 L468 812 C480 817 483 820 483 827 C483 835 479 837 467 837 L367 837 Z " />
<glyph glyph-name="racute" unicode="&#x155;" horiz-adv-x="371" d="M97 20 L30 20 L30 0 L253 0 L253 20 L187 20 L187 113 C187 232 199 297 230 342 C239 354 248 362 254 362 C261 362 264 356 264 338 C265 312 284 294 309 294 C337 294 358 316 358 345 C358 379 332 403 295 403 C248 403 218 374 187 298 L187 393 L30 393 L30 373 L97 373 L97 20 Z M261 616 L164 473 L173 463 L340 599 C343 601 345 605 345 608 C345 613 342 616 336 616 L261 616 Z " />
<glyph glyph-name="Rcommaaccent" unicode="&#x156;" horiz-adv-x="637" d="M115 20 L32 20 L32 0 L305 0 L305 20 L222 20 L222 345 L253 345 C372 346 405 314 407 195 C410 120 411 109 419 87 C439 30 487 -4 546 -4 C570 -4 590 1 617 12 L610 30 C590 21 582 19 572 19 C542 19 526 45 526 96 L526 124 L526 145 C528 261 464 334 343 353 C410 360 442 370 478 393 C524 422 547 464 547 515 C547 564 526 601 483 630 C437 660 398 667 263 667 L32 667 L32 647 L115 647 L115 20 Z M222 367 L222 647 L262 647 C334 647 362 641 388 621 C417 598 433 558 433 507 C433 455 417 413 388 392 C364 374 329 367 258 367 L222 367 Z M306 -262 C365 -212 389 -170 389 -120 C389 -72 360 -39 319 -39 C285 -39 260 -62 260 -92 C260 -117 278 -136 303 -136 C327 -136 344 -119 344 -95 C344 -92 344 -89 343 -86 C359 -98 365 -109 365 -128 C365 -152 355 -179 335 -204 C326 -217 316 -226 292 -245 L306 -262 Z " />
<glyph glyph-name="rcommaaccent" unicode="&#x157;" horiz-adv-x="371" d="M97 20 L30 20 L30 0 L253 0 L253 20 L187 20 L187 113 C187 232 199 297 230 342 C239 354 248 362 254 362 C261 362 264 356 264 338 C265 312 284 294 309 294 C337 294 358 316 358 345 C358 379 332 403 295 403 C248 403 218 374 187 298 L187 393 L30 393 L30 373 L97 373 L97 20 Z M131 -250 C187 -203 210 -163 210 -116 C210 -70 183 -39 143 -39 C112 -39 88 -60 88 -89 C88 -113 105 -131 129 -131 C152 -131 168 -115 168 -92 C168 -89 168 -88 167 -84 C182 -95 188 -106 188 -123 C188 -163 167 -196 118 -234 L131 -250 Z " />
<glyph glyph-name="Rcaron" unicode="&#x158;" horiz-adv-x="637" d="M115 20 L32 20 L32 0 L305 0 L305 20 L222 20 L222 345 L253 345 C372 346 405 314 407 195 C410 120 411 109 419 87 C439 30 487 -4 546 -4 C570 -4 590 1 617 12 L610 30 C590 21 582 19 572 19 C542 19 526 45 526 96 L526 124 L526 145 C528 261 464 334 343 353 C410 360 442 370 478 393 C524 422 547 464 547 515 C547 564 526 601 483 630 C437 660 398 667 263 667 L32 667 L32 647 L115 647 L115 20 Z M222 367 L222 647 L262 647 C334 647 362 641 388 621 C417 598 433 558 433 507 C433 455 417 413 388 392 C364 374 329 367 258 367 L222 367 Z M287 720 L453 832 L447 843 L287 795 L126 843 L120 832 L287 720 Z " />
<glyph glyph-name="rcaron" unicode="&#x159;" horiz-adv-x="371" d="M97 20 L30 20 L30 0 L253 0 L253 20 L187 20 L187 113 C187 232 199 297 230 342 C239 354 248 362 254 362 C261 362 264 356 264 338 C265 312 284 294 309 294 C337 294 358 316 358 345 C358 379 332 403 295 403 C248 403 218 374 187 298 L187 393 L30 393 L30 373 L97 373 L97 20 Z M194 547 L59 620 L51 610 L194 463 L338 610 L330 620 L194 547 Z " />
<glyph glyph-name="Sacute" unicode="&#x15a;" horiz-adv-x="498" d="M418 677 L404 677 L369 636 C321 666 287 677 245 677 C140 677 60 589 60 475 C60 421 78 379 115 348 C138 328 169 316 243 296 C315 277 326 274 344 264 C381 244 403 204 403 155 C403 71 344 13 257 13 C194 13 137 43 101 97 C82 125 74 151 64 206 L49 206 L49 0 L70 0 L107 48 C161 5 200 -10 255 -10 C372 -10 456 84 456 217 C456 283 433 336 389 372 C366 390 338 401 270 419 C207 435 190 441 170 450 C131 467 113 493 113 534 C113 604 168 654 245 654 C292 654 333 636 361 602 C384 575 394 550 403 501 L418 501 L418 677 Z M343 837 L205 732 L212 720 L444 812 C456 817 459 820 459 827 C459 835 455 837 443 837 L343 837 Z " />
<glyph glyph-name="sacute" unicode="&#x15b;" horiz-adv-x="341" d="M291 399 L276 399 L260 366 C223 394 198 404 164 404 C96 404 45 352 45 280 C45 243 58 210 82 189 C101 172 122 164 181 154 C255 141 275 127 275 90 C275 45 236 13 183 13 C118 13 84 49 55 150 L41 150 L44 0 L55 0 L79 32 C120 0 145 -10 182 -10 C257 -10 312 47 312 124 C312 161 299 195 278 215 C257 235 236 243 177 254 C98 269 79 280 79 310 C79 350 117 380 166 380 C224 380 265 344 279 281 L294 281 L291 399 Z M240 616 L143 473 L152 463 L319 599 C322 601 324 605 324 608 C324 613 321 616 315 616 L240 616 Z " />
<glyph glyph-name="Scircumflex" unicode="&#x15c;" horiz-adv-x="498" d="M418 677 L404 677 L369 636 C321 666 287 677 245 677 C140 677 60 589 60 475 C60 421 78 379 115 348 C138 328 169 316 243 296 C315 277 326 274 344 264 C381 244 403 204 403 155 C403 71 344 13 257 13 C194 13 137 43 101 97 C82 125 74 151 64 206 L49 206 L49 0 L70 0 L107 48 C161 5 200 -10 255 -10 C372 -10 456 84 456 217 C456 283 433 336 389 372 C366 390 338 401 270 419 C207 435 190 441 170 450 C131 467 113 493 113 534 C113 604 168 654 245 654 C292 654 333 636 361 602 C384 575 394 550 403 501 L418 501 L418 677 Z M261 843 L94 732 L100 720 L261 769 L421 720 L427 732 L261 843 Z " />
<glyph glyph-name="scircumflex" unicode="&#x15d;" horiz-adv-x="341" d="M291 399 L276 399 L260 366 C223 394 198 404 164 404 C95 404 45 352 45 280 C45 243 58 210 82 189 C101 172 122 164 181 154 C255 141 275 127 275 90 C275 45 236 13 183 13 C117 13 84 49 55 150 L41 150 L44 0 L55 0 L79 32 C120 0 145 -10 182 -10 C257 -10 312 47 312 124 C312 161 299 195 278 215 C257 235 236 243 177 254 C98 269 79 280 79 310 C79 350 117 380 166 380 C224 380 265 344 279 281 L294 281 L291 399 Z M183 536 L319 463 L327 473 L183 620 L40 474 L48 464 L183 536 Z " />
<glyph glyph-name="Scedilla" unicode="&#x15e;" horiz-adv-x="498" d="M223 -61 C265 -78 276 -90 276 -118 C276 -147 258 -164 228 -164 C206 -164 185 -154 185 -144 L185 -138 C186 -135 186 -133 186 -129 C186 -112 178 -100 166 -100 C156 -100 149 -108 149 -121 C149 -155 189 -181 241 -181 C300 -181 345 -150 345 -109 C345 -71 314 -53 247 -53 L262 -10 C377 -6 456 87 456 217 C456 283 433 336 389 372 C366 390 338 401 270 419 C207 435 190 441 170 450 C131 467 113 493 113 534 C113 604 168 654 245 654 C292 654 333 636 361 602 C384 575 394 550 403 501 L418 501 L418 677 L404 677 L369 636 C321 666 287 677 245 677 C140 677 60 589 60 475 C60 421 78 379 115 348 C138 328 169 316 243 296 C315 277 326 274 344 264 C381 244 403 204 403 155 C403 71 344 13 257 13 C194 13 137 43 101 97 C82 125 74 151 64 206 L49 206 L49 0 L70 0 L107 48 C153 10 190 -6 241 -10 L223 -61 Z " />
<glyph glyph-name="scedilla" unicode="&#x15f;" horiz-adv-x="341" d="M149 -60 C189 -76 200 -88 200 -116 C200 -145 182 -162 153 -162 C132 -162 112 -152 112 -142 L112 -136 C113 -132 113 -131 113 -127 C113 -110 105 -98 93 -98 C83 -98 77 -106 77 -119 C77 -152 116 -178 167 -178 C224 -178 268 -147 268 -107 C268 -74 235 -52 187 -52 L172 -52 L186 -10 C258 -9 312 48 312 124 C312 161 299 196 278 215 C257 235 235 243 177 254 C98 269 79 280 79 310 C79 350 117 380 166 380 C224 380 265 344 279 281 L294 281 L291 399 L276 399 L260 366 C223 394 198 404 164 404 C96 404 45 352 45 280 C45 243 58 210 82 189 C101 172 122 164 181 154 C255 141 275 127 275 90 C275 45 236 13 183 13 C118 13 84 49 55 150 L41 150 L44 0 L55 0 L79 32 C114 5 135 -5 166 -9 L149 -60 Z " />
<glyph glyph-name="Scaron" unicode="&#x160;" horiz-adv-x="498" d="M418 677 L404 677 L369 636 C326 664 287 677 244 677 C140 677 60 588 60 474 C60 425 76 384 107 355 C132 330 161 318 243 296 C320 276 338 270 358 255 C387 233 403 198 403 156 C403 71 344 13 258 13 C196 13 142 40 106 90 C84 120 73 151 64 206 L49 206 L49 0 L70 0 L107 48 C156 7 201 -10 257 -10 C372 -10 456 85 456 217 C456 279 436 330 397 365 C370 389 351 397 270 419 C206 436 174 446 157 456 C127 473 113 498 113 534 C113 604 168 654 244 654 C292 654 336 633 366 595 C387 569 397 545 403 501 L418 501 L418 677 Z M252 720 L419 832 L413 843 L252 795 L91 843 L86 832 L252 720 Z " />
<glyph glyph-name="scaron" unicode="&#x161;" horiz-adv-x="341" d="M290 398 L275 398 L259 366 C225 393 199 403 163 403 C94 403 44 351 44 281 C44 247 55 216 74 195 C94 174 118 164 180 154 C252 142 275 127 275 89 C275 46 236 13 185 13 C118 13 79 54 55 150 L40 150 L44 0 L55 0 L78 32 C117 1 145 -10 184 -10 C257 -10 312 47 312 124 C312 156 303 186 286 206 C264 231 238 243 176 254 C100 267 78 280 78 310 C78 349 116 380 164 380 C223 380 269 340 279 280 L294 280 L290 398 Z M173 547 L44 620 L36 610 L173 463 L309 610 L301 620 L173 547 Z " />
<glyph glyph-name="Tcommaaccent" unicode="&#x162;" horiz-adv-x="581" d="M236 20 L142 20 L142 0 L438 0 L438 20 L345 20 L345 647 L379 647 C454 646 469 640 503 594 C530 555 542 522 555 456 L570 456 L563 667 L17 667 L10 456 L25 456 C37 519 49 551 73 589 C108 638 122 645 202 647 L236 647 L236 20 Z M271 -262 C330 -212 354 -170 354 -120 C354 -72 325 -39 284 -39 C251 -39 226 -62 226 -92 C226 -117 244 -136 269 -136 C293 -136 310 -119 310 -95 C310 -92 310 -91 309 -86 C324 -98 330 -109 330 -128 C330 -152 320 -179 301 -204 C291 -217 282 -225 258 -245 L271 -262 Z " />
<glyph glyph-name="tcommaaccent" unicode="&#x163;" horiz-adv-x="291" d="M174 546 L158 546 C132 473 93 426 23 387 L23 373 L84 373 L84 120 C84 58 86 47 104 26 C125 1 152 -10 190 -10 C250 -10 282 16 294 75 L274 75 C264 35 250 21 220 21 C185 21 174 38 174 89 L174 373 L274 373 L274 393 L174 393 L174 546 Z M144 -250 C200 -203 223 -164 223 -116 C223 -70 196 -39 156 -39 C125 -39 101 -60 101 -89 C101 -113 118 -131 142 -131 C165 -131 181 -115 181 -92 C181 -89 181 -87 180 -84 C195 -95 201 -106 201 -123 C201 -163 180 -196 131 -234 L144 -250 Z " />
<glyph glyph-name="Tcaron" unicode="&#x164;" horiz-adv-x="581" d="M236 20 L142 20 L142 0 L438 0 L438 20 L345 20 L345 647 L379 647 C454 646 469 640 503 594 C530 555 542 522 555 456 L570 456 L563 667 L17 667 L10 456 L25 456 C37 519 49 551 73 589 C108 638 122 645 202 647 L236 647 L236 20 Z M294 720 L460 832 L454 843 L294 795 L133 843 L127 832 L294 720 Z " />
<glyph glyph-name="tcaron" unicode="&#x165;" horiz-adv-x="309" d="M174 546 L158 546 C132 473 93 426 23 387 L23 373 L84 373 L84 120 C84 58 86 47 104 26 C125 1 152 -10 190 -10 C250 -10 282 16 294 75 L274 75 C264 35 250 21 220 21 C185 21 174 38 174 89 L174 373 L274 373 L274 393 L174 393 L174 546 Z M230 457 C286 504 309 543 309 591 C309 636 282 667 242 667 C211 667 187 646 187 618 C187 594 204 576 228 576 C251 576 267 592 267 615 C267 617 267 620 266 623 C281 612 287 601 287 583 C287 544 266 511 218 473 L230 457 Z " />
<glyph glyph-name="utilde" unicode="&#x169;" horiz-adv-x="530" d="M440 393 L283 393 L283 373 L350 373 L350 233 C350 127 345 92 327 62 C308 31 275 13 238 13 C217 13 200 19 190 29 C176 43 174 62 174 160 L174 393 L17 393 L17 373 L84 373 L84 160 C84 77 90 51 115 26 C138 3 176 -10 220 -10 C281 -10 317 8 350 55 L350 0 L506 0 L506 20 L440 20 L440 393 Z M399 580 C378 552 372 548 350 548 C335 548 319 551 304 556 L260 571 C234 580 223 582 206 582 C159 582 140 567 113 506 L126 498 C140 524 150 530 173 530 C189 530 202 528 227 520 L269 507 C298 498 308 496 324 496 C359 496 380 515 412 572 L399 580 Z " />
<glyph glyph-name="Umacron" unicode="&#x16a;" horiz-adv-x="642" d="M518 647 L518 265 C518 155 515 132 498 94 C474 41 427 13 362 13 C307 13 260 34 236 70 C210 107 208 124 208 265 L208 647 L292 647 L292 667 L18 667 L18 647 L101 647 L101 265 C101 133 110 94 152 53 C192 14 262 -10 339 -10 C415 -10 474 15 505 61 C535 105 541 137 541 265 L541 647 L624 647 L624 667 L434 667 L434 647 L518 647 Z M175 785 L175 750 L476 750 L476 785 L175 785 Z " />
<glyph glyph-name="umacron" unicode="&#x16b;" horiz-adv-x="530" d="M440 393 L283 393 L283 373 L350 373 L350 233 C350 124 345 91 325 59 C307 31 274 13 238 13 C216 13 198 19 188 30 C176 44 174 62 174 160 L174 393 L17 393 L17 373 L84 373 L84 160 C84 76 89 51 115 26 C138 3 175 -10 219 -10 C279 -10 322 11 350 55 L350 0 L506 0 L506 20 L440 20 L440 393 Z M123 544 L123 510 L400 510 L400 544 L123 544 Z " />
<glyph glyph-name="ubreve" unicode="&#x16d;" horiz-adv-x="530" d="M440 393 L283 393 L283 373 L350 373 L350 233 C350 127 345 92 327 62 C308 31 275 13 238 13 C217 13 200 19 190 29 C176 43 174 62 174 160 L174 393 L17 393 L17 373 L84 373 L84 160 C84 77 90 51 115 26 C138 3 176 -10 220 -10 C281 -10 317 8 350 55 L350 0 L506 0 L506 20 L440 20 L440 393 Z M381 613 C356 553 319 527 259 527 C200 527 163 554 143 613 L130 613 C133 570 139 550 155 524 C179 487 217 466 261 466 C303 466 339 484 362 515 C381 542 389 566 393 613 L381 613 Z " />
<glyph glyph-name="Uring" unicode="&#x16e;" horiz-adv-x="642" d="M518 647 L518 265 C518 157 515 132 499 97 C473 40 428 13 362 13 C305 13 264 32 236 70 C211 104 208 125 208 265 L208 647 L291 647 L291 667 L18 667 L18 647 L101 647 L101 265 C101 133 111 93 152 53 C193 13 260 -10 337 -10 C415 -10 470 13 505 61 C534 101 541 140 541 265 L541 647 L624 647 L624 667 L434 667 L434 647 L518 647 Z M345 859 C303 859 270 825 270 782 C270 740 303 707 346 707 C388 707 421 740 421 781 C421 825 388 859 345 859 L345 859 Z M346 831 C370 831 391 808 391 783 C391 757 370 735 345 735 C321 735 300 757 300 783 C300 809 321 831 346 831 L346 831 Z " />
<glyph glyph-name="uring" unicode="&#x16f;" horiz-adv-x="530" d="M440 393 L283 393 L283 373 L350 373 L350 233 C350 127 345 92 327 62 C308 31 275 13 238 13 C217 13 200 19 190 29 C176 43 174 62 174 160 L174 393 L17 393 L17 373 L84 373 L84 160 C84 77 90 51 115 26 C138 3 176 -10 220 -10 C281 -10 317 8 350 55 L350 0 L506 0 L506 20 L440 20 L440 393 Z M253 615 C211 615 178 581 178 538 C178 496 211 463 254 463 C296 463 329 496 329 537 C329 581 296 615 253 615 L253 615 Z M254 587 C278 587 299 564 299 539 C299 513 278 491 253 491 C229 491 208 513 208 539 C208 565 229 587 254 587 L254 587 Z " />
<glyph glyph-name="Uhungarumlaut" unicode="&#x170;" horiz-adv-x="642" d="M518 647 L518 265 C518 157 515 132 499 97 C473 40 428 13 362 13 C305 13 264 32 236 70 C211 104 208 125 208 265 L208 647 L291 647 L291 667 L18 667 L18 647 L101 647 L101 265 C101 133 111 93 152 53 C193 13 260 -10 337 -10 C415 -10 470 13 505 61 C534 101 541 140 541 265 L541 647 L624 647 L624 667 L434 667 L434 647 L518 647 Z M524 837 L386 732 L393 720 L625 812 C637 817 640 820 640 827 C640 835 636 837 624 837 L524 837 Z M348 837 L210 732 L217 720 L449 812 C461 817 464 820 464 827 C464 835 460 837 448 837 L348 837 Z " />
<glyph glyph-name="uhungarumlaut" unicode="&#x171;" horiz-adv-x="530" d="M440 393 L283 393 L283 373 L350 373 L350 233 C350 127 345 92 327 62 C308 31 275 13 238 13 C217 13 200 19 190 29 C176 43 174 62 174 160 L174 393 L17 393 L17 373 L84 373 L84 160 C84 77 90 51 115 26 C138 3 176 -10 220 -10 C281 -10 317 8 350 55 L350 0 L506 0 L506 20 L440 20 L440 393 Z M402 616 L305 473 L314 463 L474 599 C477 602 479 605 479 608 C479 613 475 616 470 616 L402 616 Z M263 616 L166 473 L175 463 L335 599 C338 602 340 605 340 608 C340 613 336 616 331 616 L263 616 Z " />
<glyph glyph-name="Uogonek" unicode="&#x172;" horiz-adv-x="642" d="M479 -124 C459 -131 447 -133 430 -133 C392 -133 370 -115 370 -84 C370 -52 384 -36 452 12 C529 67 541 102 541 265 L541 647 L624 647 L624 667 L434 667 L434 647 L518 647 L518 265 C518 157 515 132 499 97 C473 40 428 13 362 13 C305 13 264 32 236 70 C211 104 208 125 208 265 L208 647 L291 647 L291 667 L18 667 L18 647 L101 647 L101 265 C101 133 111 93 152 53 C193 13 260 -10 336 -10 C355 -10 372 -9 390 -6 C332 -29 305 -58 305 -97 C305 -138 338 -162 392 -162 C423 -162 446 -156 479 -141 L479 -124 Z " />
<glyph glyph-name="uogonek" unicode="&#x173;" horiz-adv-x="530" d="M419 0 C351 -30 327 -55 327 -97 C327 -138 358 -162 408 -162 C437 -162 458 -156 489 -141 L489 -124 C470 -131 459 -133 443 -133 C408 -133 387 -115 387 -84 C387 -53 402 -32 451 0 L506 0 L506 20 L440 20 L440 393 L283 393 L283 373 L350 373 L350 233 C350 127 345 92 327 62 C308 31 275 13 238 13 C217 13 200 19 190 29 C176 43 174 62 174 160 L174 393 L17 393 L17 373 L84 373 L84 160 C84 77 90 51 115 26 C138 3 176 -10 220 -10 C281 -10 317 8 350 55 L350 0 L419 0 Z " />
<glyph glyph-name="Wcircumflex" unicode="&#x174;" horiz-adv-x="799" d="M746 647 L799 647 L799 667 L629 667 L629 647 L719 647 L564 151 L464 442 L536 647 L595 647 L595 667 L-3 667 L-3 647 L52 647 L280 -10 L303 -10 L408 287 L513 -10 L536 -10 L746 647 Z M508 647 L450 482 L392 647 L508 647 Z M281 647 L396 326 L334 151 L164 647 L281 647 Z M413 843 L246 732 L252 720 L413 769 L573 720 L579 732 L413 843 Z " />
<glyph glyph-name="Ycircumflex" unicode="&#x176;" horiz-adv-x="578" d="M236 20 L143 20 L143 0 L436 0 L436 20 L343 20 L343 316 L349 327 C352 335 353 338 359 350 C368 368 371 375 376 384 L515 647 L585 647 L585 667 L390 667 L390 647 L489 647 L333 356 C330 365 328 369 319 384 L165 647 L250 647 L250 667 L-9 667 L-9 647 L42 647 L236 316 L236 20 Z M303 843 L136 732 L142 720 L303 769 L463 720 L469 732 L303 843 Z " />
<glyph glyph-name="ycircumflex" unicode="&#x177;" horiz-adv-x="410" d="M372 373 L412 373 L412 393 L267 393 L267 373 L345 373 L252 117 L141 373 L211 373 L211 393 L-2 393 L-2 373 L41 373 L211 0 L155 -148 C137 -195 134 -201 123 -201 C118 -201 114 -199 111 -195 C98 -176 86 -169 67 -169 C38 -169 18 -188 18 -216 C18 -245 42 -265 76 -265 C120 -265 150 -234 177 -159 L372 373 Z M226 536 L362 463 L370 473 L226 620 L83 474 L91 464 L226 536 Z " />
<glyph glyph-name="Ydieresis" unicode="&#x178;" horiz-adv-x="578" d="M236 20 L143 20 L143 0 L436 0 L436 20 L343 20 L343 316 C346 321 348 325 349 327 L352 334 C359 351 360 353 365 363 L376 384 L516 647 L585 647 L585 667 L390 667 L390 647 L490 647 L333 356 C330 364 327 370 319 384 L165 647 L250 647 L250 667 L-9 667 L-9 647 L42 647 L236 316 L236 20 Z M196 830 C168 830 144 806 144 778 C144 749 167 727 196 727 C226 727 248 750 248 779 C248 807 224 830 196 830 L196 830 Z M406 830 C378 830 354 806 354 778 C354 749 377 727 406 727 C436 727 458 750 458 779 C458 807 434 830 406 830 L406 830 Z " />
<glyph glyph-name="Zacute" unicode="&#x179;" horiz-adv-x="546" d="M25 0 L501 0 L519 210 L506 210 C486 131 476 103 454 72 C416 24 405 21 304 20 L133 20 L529 667 L67 667 L48 463 L61 463 C101 616 139 654 241 647 L396 647 L25 44 L25 0 Z M383 837 L245 732 L252 720 L484 812 C496 817 499 820 499 827 C499 835 495 837 483 837 L383 837 Z " />
<glyph glyph-name="zacute" unicode="&#x17a;" horiz-adv-x="399" d="M379 393 L57 393 L57 240 L70 240 C103 358 120 374 208 373 L261 373 L20 0 L364 0 L366 167 L353 167 C321 36 306 20 213 20 L134 20 L379 393 Z M282 616 L185 473 L194 463 L361 599 C364 601 366 605 366 608 C366 613 363 616 357 616 L282 616 Z " />
<glyph glyph-name="Zdotaccent" unicode="&#x17b;" horiz-adv-x="546" d="M25 0 L501 0 L519 210 L506 210 C486 131 476 103 454 72 C416 24 405 21 304 20 L133 20 L529 667 L67 667 L48 463 L61 463 C101 616 139 654 241 647 L396 647 L25 44 L25 0 Z M305 831 C277 831 253 807 253 779 C253 750 276 727 305 727 C334 727 357 750 357 778 C357 807 333 831 305 831 L305 831 Z " />
<glyph glyph-name="zdotaccent" unicode="&#x17c;" horiz-adv-x="399" d="M379 393 L57 393 L57 240 L70 240 C103 358 120 374 208 373 L261 373 L20 0 L364 0 L366 167 L353 167 C321 36 306 20 213 20 L134 20 L379 393 Z M223 593 C194 593 172 571 172 542 C172 512 194 490 224 490 C254 490 275 511 275 540 C275 570 252 593 223 593 L223 593 Z " />
<glyph glyph-name="Zcaron" unicode="&#x17d;" horiz-adv-x="546" d="M25 0 L501 0 L519 210 L506 210 C485 120 467 82 434 49 C405 23 392 20 304 20 L133 20 L529 667 L67 667 L48 463 L61 463 C100 614 139 654 241 647 L396 647 L25 44 L25 0 Z M297 720 L464 832 L458 843 L297 795 L136 843 L131 832 L297 720 Z " />
<glyph glyph-name="zcaron" unicode="&#x17e;" horiz-adv-x="399" d="M379 393 L57 393 L57 240 L70 240 C103 357 122 375 208 373 L261 373 L20 0 L364 0 L366 167 L353 167 C321 37 305 20 213 20 L134 20 L379 393 Z M218 547 L82 620 L74 610 L218 463 L361 610 L353 620 L218 547 Z " />
<glyph glyph-name="uni018F" unicode="&#x18f;" horiz-adv-x="664" d="M50 276 C54 207 65 167 92 123 C144 39 231 -10 329 -10 C400 -10 455 13 511 67 C584 136 625 231 625 331 C625 513 481 677 322 677 C198 677 96 579 72 437 L112 437 C125 496 137 528 161 562 C202 621 254 650 316 650 C369 650 420 629 450 596 C483 560 494 513 494 413 L493 276 L50 276 Z M493 242 L493 218 L493 177 C492 124 487 103 472 77 C446 37 395 14 329 14 C261 14 212 38 192 82 C177 112 175 127 174 242 L493 242 Z " />
<glyph glyph-name="florin" unicode="&#x192;" horiz-adv-x="500" d="M200 317 L129 -48 C105 -173 96 -202 74 -227 C60 -242 45 -250 27 -250 C13 -250 2 -245 2 -238 C2 -236 3 -233 6 -229 C12 -220 14 -215 14 -207 C14 -189 0 -176 -19 -176 C-39 -176 -54 -192 -54 -214 C-54 -244 -22 -267 22 -267 C75 -267 126 -233 161 -174 C197 -113 212 -65 237 62 L287 317 L378 317 L382 337 L290 337 L312 449 C334 563 351 607 386 641 C398 653 414 660 430 660 C438 660 443 656 443 650 C443 646 441 643 437 640 C426 633 421 626 421 615 C421 595 437 580 458 580 C483 580 502 599 502 623 C502 655 473 677 431 677 C377 677 324 643 284 584 C245 525 230 478 204 337 L116 337 L112 317 L200 317 Z " />
<glyph glyph-name="uni01CD" unicode="&#x1cd;" horiz-adv-x="586" d="M344 215 L409 20 L322 20 L322 0 L593 0 L593 20 L523 20 L307 667 L277 667 L51 20 L3 20 L3 0 L165 0 L165 20 L78 20 L143 215 L344 215 Z M337 235 L150 235 L244 512 L337 235 Z M292 720 L458 832 L452 843 L292 795 L131 843 L125 832 L292 720 Z " />
<glyph glyph-name="uni01CE" unicode="&#x1ce;" horiz-adv-x="443" d="M414 35 C396 20 394 19 384 19 C364 19 363 22 363 135 L363 245 C363 331 361 339 340 361 C313 388 272 403 222 403 C139 403 65 356 65 303 C65 277 83 259 108 259 C131 259 149 277 149 302 C149 311 146 320 141 326 C130 339 130 339 130 344 C130 364 170 386 206 386 C229 386 247 379 259 367 C271 354 273 342 273 286 L273 217 C204 215 169 210 133 197 C71 174 37 134 37 83 C37 28 80 -10 143 -10 C198 -10 238 14 273 68 C281 14 307 -10 356 -10 C384 -10 401 -3 426 20 L414 35 Z M273 180 C273 138 270 111 264 93 C252 57 221 34 186 34 C148 34 126 59 126 101 C126 136 144 165 179 183 C201 194 221 197 273 200 L273 180 Z M232 547 L97 620 L89 610 L232 463 L376 610 L368 620 L232 547 Z " />
<glyph glyph-name="uni01D3" unicode="&#x1d3;" horiz-adv-x="642" d="M518 647 L518 265 C518 157 515 132 499 97 C473 40 428 13 362 13 C305 13 264 32 236 70 C211 104 208 125 208 265 L208 647 L291 647 L291 667 L18 667 L18 647 L101 647 L101 265 C101 133 111 93 152 53 C193 13 260 -10 337 -10 C415 -10 470 13 505 61 C534 101 541 140 541 265 L541 647 L624 647 L624 667 L434 667 L434 647 L518 647 Z M346 720 L512 832 L506 843 L346 795 L185 843 L179 832 L346 720 Z " />
<glyph glyph-name="uni01D4" unicode="&#x1d4;" horiz-adv-x="530" d="M440 393 L283 393 L283 373 L350 373 L350 233 C350 127 345 92 327 62 C308 31 275 13 238 13 C217 13 200 19 190 29 C176 43 174 62 174 160 L174 393 L17 393 L17 373 L84 373 L84 160 C84 77 90 51 115 26 C138 3 176 -10 220 -10 C281 -10 317 8 350 55 L350 0 L506 0 L506 20 L440 20 L440 393 Z M262 547 L127 620 L119 610 L262 463 L406 610 L398 620 L262 547 Z " />
<glyph glyph-name="uni01DD" unicode="&#x1dd;" horiz-adv-x="425" d="M35 165 C38 123 44 98 61 72 C94 20 148 -10 210 -10 C310 -10 398 87 398 197 C398 306 307 403 205 403 C125 403 58 345 43 261 L66 261 C85 336 135 380 199 380 C237 380 266 364 281 334 C293 312 293 307 294 194 L294 165 L35 165 Z M294 145 C294 69 294 69 283 50 C271 26 245 13 212 13 C180 13 157 27 147 52 C140 71 140 78 139 145 L294 145 Z " />
<glyph glyph-name="Gcaron" unicode="&#x1e6;" horiz-adv-x="637" d="M528 667 L515 667 L481 627 C422 664 382 677 333 677 C174 677 42 520 42 332 C42 145 170 -10 325 -10 C410 -10 499 39 538 107 C554 135 560 161 564 213 L627 213 L627 233 L345 233 L345 213 L445 213 C444 157 442 137 437 115 C422 51 376 13 314 13 C259 13 212 44 193 91 C176 134 169 205 169 327 C169 469 180 554 205 594 C228 631 275 654 329 654 C377 654 419 637 453 602 C485 570 501 538 518 468 L533 468 L528 667 Z M330 720 L496 832 L490 843 L330 795 L169 843 L163 832 L330 720 Z " />
<glyph glyph-name="gcaron" unicode="&#x1e7;" horiz-adv-x="439" d="M269 22 L215 21 L163 20 L144 20 L137 20 C86 20 69 29 69 56 C69 83 88 106 136 139 C165 126 181 123 208 123 C306 123 372 179 372 261 C372 293 364 318 341 350 C354 363 357 366 364 366 C370 366 372 363 375 350 C379 329 390 320 408 320 C430 320 445 336 445 359 C445 385 426 403 398 403 C374 403 357 393 327 362 C292 391 260 403 214 403 C123 403 55 343 55 262 C55 217 72 187 117 149 C54 105 29 70 29 24 C29 -21 51 -47 104 -64 C49 -84 25 -111 25 -152 C25 -219 105 -272 206 -272 C329 -272 416 -195 416 -85 C416 -43 403 -12 379 5 C361 17 340 22 298 22 L269 22 Z M214 383 C233 383 248 379 258 372 C274 360 277 345 277 275 C277 205 274 180 262 165 C251 151 235 144 211 144 C162 144 150 165 150 253 C150 363 160 383 214 383 L214 383 Z M329 -64 C369 -63 385 -76 385 -106 C385 -185 308 -247 211 -247 C135 -247 86 -205 86 -141 C86 -112 95 -92 120 -64 C144 -67 147 -67 171 -67 C201 -67 245 -66 281 -65 L329 -64 Z M221 547 L86 620 L78 610 L221 463 L365 610 L357 620 L221 547 Z " />
<glyph glyph-name="Scommaaccent" unicode="&#x218;" horiz-adv-x="498" d="M418 677 L404 677 L369 636 C321 666 287 677 245 677 C140 677 60 589 60 475 C60 421 78 379 115 348 C138 328 169 316 243 296 C315 277 326 274 344 264 C381 244 403 204 403 155 C403 71 344 13 257 13 C194 13 137 43 101 97 C82 125 74 151 64 206 L49 206 L49 0 L70 0 L107 48 C161 5 200 -10 255 -10 C372 -10 456 84 456 217 C456 283 433 336 389 372 C366 390 338 401 270 419 C207 435 190 441 170 450 C131 467 113 493 113 534 C113 604 168 654 245 654 C292 654 333 636 361 602 C384 575 394 550 403 501 L418 501 L418 677 Z M234 -262 C293 -212 317 -170 317 -120 C317 -72 288 -39 247 -39 C213 -39 188 -62 188 -92 C188 -117 206 -136 231 -136 C255 -136 272 -119 272 -95 C272 -92 272 -89 271 -86 C287 -98 293 -109 293 -128 C293 -152 283 -179 263 -204 C254 -217 244 -226 220 -245 L234 -262 Z " />
<glyph glyph-name="scommaaccent" unicode="&#x219;" horiz-adv-x="341" d="M291 399 L276 399 L260 366 C223 394 198 404 164 404 C96 404 45 352 45 280 C45 243 58 210 82 189 C101 172 122 164 181 154 C255 141 275 127 275 90 C275 45 236 13 183 13 C118 13 84 49 55 150 L41 150 L44 0 L55 0 L79 32 C120 0 145 -10 182 -10 C257 -10 312 47 312 124 C312 161 299 195 278 215 C257 235 236 243 177 254 C98 269 79 280 79 310 C79 350 117 380 166 380 C224 380 265 344 279 281 L294 281 L291 399 Z M162 -250 C218 -203 241 -164 241 -116 C241 -70 214 -39 174 -39 C143 -39 119 -60 119 -89 C119 -113 136 -131 160 -131 C183 -131 199 -115 199 -92 C199 -89 199 -87 198 -84 C213 -95 219 -106 219 -123 C219 -163 198 -196 149 -234 L162 -250 Z " />
<glyph glyph-name="uni021A" unicode="&#x21a;" horiz-adv-x="581" d="M236 20 L142 20 L142 0 L438 0 L438 20 L345 20 L345 647 L379 647 C454 646 469 640 503 594 C530 555 542 522 555 456 L570 456 L563 667 L17 667 L10 456 L25 456 C37 519 49 551 73 589 C108 638 122 645 202 647 L236 647 L236 20 Z M271 -262 C330 -212 354 -170 354 -120 C354 -72 325 -39 284 -39 C251 -39 226 -62 226 -92 C226 -117 244 -136 269 -136 C293 -136 310 -119 310 -95 C310 -92 310 -91 309 -86 C324 -98 330 -109 330 -128 C330 -152 320 -179 301 -204 C291 -217 282 -225 258 -245 L271 -262 Z " />
<glyph glyph-name="uni021B" unicode="&#x21b;" horiz-adv-x="291" d="M174 546 L158 546 C132 473 93 426 23 387 L23 373 L84 373 L84 120 C84 58 86 47 104 26 C125 1 152 -10 190 -10 C250 -10 282 16 294 75 L274 75 C264 35 250 21 220 21 C185 21 174 38 174 89 L174 373 L274 373 L274 393 L174 393 L174 546 Z M144 -250 C200 -203 223 -164 223 -116 C223 -70 196 -39 156 -39 C125 -39 101 -60 101 -89 C101 -113 118 -131 142 -131 C165 -131 181 -115 181 -92 C181 -89 181 -87 180 -84 C195 -95 201 -106 201 -123 C201 -163 180 -196 131 -234 L144 -250 Z " />
<glyph glyph-name="uni0259" unicode="&#x259;" horiz-adv-x="425" d="M35 165 C38 123 44 98 61 72 C94 20 148 -10 210 -10 C310 -10 398 87 398 197 C398 306 307 403 205 403 C125 403 58 345 43 261 L66 261 C85 336 135 380 199 380 C237 380 266 364 281 334 C293 312 293 307 294 194 L294 165 L35 165 Z M294 145 C294 69 294 69 283 50 C271 26 245 13 212 13 C180 13 157 27 147 52 C140 71 140 78 139 145 L294 145 Z " />
<glyph glyph-name="afii57929" unicode="&#x2bc;" horiz-adv-x="246" d="M101 412 C166 463 200 521 200 581 C200 638 166 677 116 677 C77 677 47 650 47 614 C47 583 68 561 99 561 C127 561 147 582 147 610 C147 612 147 616 146 620 C164 609 172 593 172 570 C172 544 160 513 139 483 C126 466 116 457 85 432 L101 412 Z " />
<glyph glyph-name="circumflex" unicode="&#x2c6;" horiz-adv-x="500" d="M250 536 L386 463 L394 473 L250 620 L107 474 L115 464 L250 536 Z " />
<glyph glyph-name="caron" unicode="&#x2c7;" horiz-adv-x="500" d="M250 547 L115 620 L107 610 L250 463 L394 610 L386 620 L250 547 Z " />
<glyph glyph-name="uni02C9" unicode="&#x2c9;" horiz-adv-x="410" d="M67 544 L67 510 L344 510 L344 544 L67 544 Z " />
<glyph glyph-name="breve" unicode="&#x2d8;" horiz-adv-x="500" d="M369 613 C350 559 306 528 248 528 C190 528 147 559 131 613 L118 613 C122 526 175 467 249 467 C326 467 378 525 381 613 L369 613 Z " />
<glyph glyph-name="dotaccent" unicode="&#x2d9;" horiz-adv-x="500" d="M250 592 C221 592 198 570 198 542 C198 512 220 490 250 490 C281 490 302 510 302 540 C302 569 279 592 250 592 L250 592 Z " />
<glyph glyph-name="ring" unicode="&#x2da;" horiz-adv-x="500" d="M237 615 C194 615 161 581 161 538 C161 496 194 463 237 463 C279 463 312 496 312 537 C312 581 279 615 237 615 L237 615 Z M237 587 C261 587 282 564 282 539 C282 513 261 491 236 491 C212 491 191 513 191 539 C191 565 212 587 237 587 L237 587 Z " />
<glyph glyph-name="ogonek" unicode="&#x2db;" horiz-adv-x="500" d="M388 0 C324 -26 296 -56 296 -98 C296 -137 327 -162 376 -162 C405 -162 430 -156 458 -141 L458 -124 C440 -131 427 -133 412 -133 C377 -133 356 -115 356 -85 C356 -54 374 -29 420 0 L388 0 Z " />
<glyph glyph-name="tilde" unicode="&#x2dc;" horiz-adv-x="500" d="M387 580 C367 552 361 548 338 548 C324 548 307 551 292 556 L248 571 C222 580 211 582 193 582 C148 582 127 564 101 506 L114 498 C128 523 138 530 162 530 C178 530 195 527 215 520 L257 507 C277 500 298 496 311 496 C347 496 372 518 400 572 L387 580 Z " />
<glyph glyph-name="hungarumlaut" unicode="&#x2dd;" horiz-adv-x="500" d="M390 616 L293 473 L302 463 L462 599 C465 602 467 605 467 608 C467 614 464 616 458 616 L390 616 Z M251 616 L154 473 L163 463 L323 599 C327 602 328 605 328 608 C328 614 325 616 319 616 L251 616 Z " />
<glyph glyph-name="uni031B" unicode="&#x31b;" horiz-adv-x="262" d="M117 457 C173 504 196 543 196 591 C196 636 169 667 129 667 C98 667 74 646 74 618 C74 594 91 576 115 576 C138 576 154 592 154 615 C154 617 154 619 153 623 C168 612 174 601 174 583 C174 544 153 511 104 473 L117 457 Z " />
<glyph glyph-name="Wdieresis" unicode="&#x1e84;" horiz-adv-x="799" d="M746 647 L799 647 L799 667 L629 667 L629 647 L719 647 L564 151 L464 442 L536 647 L595 647 L595 667 L-3 667 L-3 647 L52 647 L280 -10 L303 -10 L408 287 L513 -10 L536 -10 L746 647 Z M508 647 L450 482 L392 647 L508 647 Z M281 647 L396 326 L334 151 L164 647 L281 647 Z M321 831 C293 831 269 807 269 779 C269 750 292 727 321 727 C350 727 373 750 373 778 C373 807 349 831 321 831 L321 831 Z M531 831 C503 831 479 807 479 779 C479 750 502 727 531 727 C560 727 583 750 583 778 C583 807 559 831 531 831 L531 831 Z " />
<glyph glyph-name="uni2011" unicode="&#x2011;" horiz-adv-x="193" d="M0 234 L0 168 L193 168 L193 234 L0 234 Z " />
<glyph glyph-name="figuredash" unicode="&#x2012;" horiz-adv-x="500" d="M38 234 L38 168 L463 168 L463 234 L38 234 Z " />
<glyph glyph-name="endash" unicode="&#x2013;" horiz-adv-x="500" d="M38 234 L38 168 L463 168 L463 234 L38 234 Z " />
<glyph glyph-name="emdash" unicode="&#x2014;" horiz-adv-x="581" d="M0 234 L0 168 L581 168 L581 234 L0 234 Z " />
<glyph glyph-name="afii00208" unicode="&#x2015;" horiz-adv-x="581" d="M0 234 L0 168 L581 168 L581 234 L0 234 Z " />
<glyph glyph-name="quoteleft" unicode="&#x2018;" horiz-adv-x="246" d="M146 677 C81 626 47 568 47 509 C47 452 81 412 130 412 C170 412 200 439 200 475 C200 506 179 528 148 528 C120 528 100 507 100 479 C100 477 100 473 101 469 C83 480 75 496 75 519 C75 566 102 610 162 656 L146 677 Z " />
<glyph glyph-name="quoteright" unicode="&#x2019;" horiz-adv-x="246" d="M101 412 C166 463 200 521 200 581 C200 638 166 677 116 677 C77 677 47 650 47 614 C47 583 68 561 99 561 C127 561 147 582 147 610 C147 612 147 616 146 620 C164 609 172 593 172 570 C172 544 160 513 139 483 C126 466 116 457 85 432 L101 412 Z " />
<glyph glyph-name="quotesinglbase" unicode="&#x201a;" horiz-adv-x="246" d="M101 -151 C166 -100 200 -42 200 18 C200 75 166 114 116 114 C77 114 47 87 47 51 C47 20 68 -2 99 -2 C127 -2 147 19 147 47 C147 49 147 52 146 57 C164 45 172 29 172 7 C172 -20 160 -50 139 -80 C126 -97 116 -107 85 -131 L101 -151 Z " />
<glyph glyph-name="quotedblleft" unicode="&#x201c;" horiz-adv-x="457" d="M356 677 C292 626 258 568 258 509 C258 451 292 412 342 412 C381 412 411 439 411 475 C411 506 389 528 359 528 C332 528 311 507 311 479 C311 477 311 473 312 469 C294 480 286 496 286 519 C286 545 298 576 319 605 C332 623 341 632 372 656 L356 677 Z M146 677 C81 625 47 568 47 509 C47 451 81 412 131 412 C170 412 200 439 200 475 C200 506 179 528 148 528 C120 528 100 507 100 479 C100 477 100 473 101 468 C83 480 75 496 75 519 C75 545 87 576 108 605 C121 623 131 632 162 656 L146 677 Z " />
<glyph glyph-name="quotedblright" unicode="&#x201d;" horiz-adv-x="457" d="M101 412 C166 463 200 521 200 580 C200 637 166 677 116 677 C77 677 47 650 47 614 C47 583 68 561 99 561 C126 561 147 582 147 610 C147 612 147 616 146 620 C164 608 172 593 172 570 C172 543 160 513 139 483 C126 466 116 456 85 432 L101 412 Z M312 412 C377 463 411 521 411 581 C411 638 377 677 327 677 C288 677 258 650 258 614 C258 583 279 561 310 561 C338 561 358 582 358 610 C358 612 358 616 357 620 C375 609 383 593 383 570 C383 544 371 513 350 483 C337 466 327 457 296 432 L312 412 Z " />
<glyph glyph-name="quotedblbase" unicode="&#x201e;" horiz-adv-x="457" d="M101 -151 C166 -100 200 -42 200 17 C200 74 166 114 116 114 C77 114 47 87 47 51 C47 20 69 -2 99 -2 C126 -2 147 19 147 46 C147 48 147 52 146 57 C164 45 172 29 172 7 C172 -20 160 -51 139 -80 C126 -97 116 -107 85 -131 L101 -151 Z M312 -151 C377 -100 411 -42 411 18 C411 75 377 114 327 114 C288 114 258 87 258 51 C258 20 279 -2 310 -2 C338 -2 358 19 358 47 C358 48 358 52 357 57 C375 45 383 29 383 7 C383 -20 371 -50 350 -80 C337 -97 327 -106 296 -131 L312 -151 Z " />
<glyph glyph-name="dagger" unicode="&#x2020;" horiz-adv-x="500" d="M242 369 C235 301 232 278 228 245 C201 44 195 -13 195 -82 C195 -132 200 -156 214 -173 C223 -183 237 -190 250 -190 C288 -190 305 -156 305 -82 C305 -35 298 56 288 126 C285 150 282 174 279 197 C273 237 270 265 268 281 C264 315 263 317 258 369 C303 355 306 354 361 336 C411 319 420 317 442 317 C476 317 499 339 499 370 C499 398 476 420 446 420 C436 420 422 418 407 415 C323 395 321 395 259 381 C266 418 276 462 288 513 C301 573 305 594 305 617 C305 654 284 677 250 677 C216 677 195 654 195 617 C195 594 199 573 212 513 C224 461 234 418 241 381 C189 392 178 395 137 404 C70 420 70 420 54 420 C24 420 1 398 1 370 C1 339 24 317 58 317 C80 317 89 319 139 336 C145 338 160 343 180 350 C191 353 201 356 211 359 L242 369 Z " />
<glyph glyph-name="daggerdbl" unicode="&#x2021;" horiz-adv-x="500" d="M242 407 C239 352 230 311 206 248 C229 186 239 144 242 89 C210 96 191 100 137 112 C70 128 70 128 54 128 C24 128 1 106 1 78 C1 47 24 25 58 25 C80 25 90 28 139 44 C154 49 160 51 211 67 L241 77 C238 65 235 52 235 51 L225 11 C201 -75 198 -90 198 -123 C198 -164 220 -190 254 -190 C286 -190 306 -164 306 -123 C306 -96 302 -72 289 -31 C276 12 276 13 272 29 C271 35 267 50 261 76 L289 67 C341 51 347 49 361 44 C410 28 421 25 442 25 C476 25 499 47 499 78 C499 106 476 128 446 128 C436 128 422 126 407 123 C328 104 308 100 262 90 C262 136 275 194 298 248 C276 301 262 362 262 406 L289 397 C340 381 346 379 361 374 C410 358 421 355 442 355 C476 355 499 377 499 408 C499 436 476 458 446 458 C436 458 422 456 407 453 C327 434 315 431 261 420 C263 430 266 440 267 444 C267 446 271 457 276 473 C296 535 306 580 306 610 C306 651 286 677 254 677 C219 677 198 651 198 609 C198 580 208 531 225 476 C228 466 232 456 235 445 C236 442 238 433 241 420 C213 425 208 426 181 432 C166 436 152 439 137 442 C70 458 70 458 54 458 C24 458 1 436 1 408 C1 377 24 355 58 355 C80 355 90 358 139 374 C154 379 160 381 211 397 L242 407 Z " />
<glyph glyph-name="bullet" unicode="&#x2022;" horiz-adv-x="667" d="M335 479 C257 479 196 418 196 339 C196 262 258 200 334 200 C410 200 471 262 471 340 C471 416 410 479 335 479 L335 479 Z " />
<glyph glyph-name="ellipsis" unicode="&#x2026;" horiz-adv-x="714" d="M120 110 C87 110 60 84 60 51 C60 19 86 -7 118 -7 C151 -7 178 19 178 51 C178 83 152 110 120 110 L120 110 Z M358 110 C325 110 298 84 298 51 C298 19 324 -7 356 -7 C389 -7 416 19 416 51 C416 83 390 110 358 110 L358 110 Z M596 110 C563 110 536 84 536 51 C536 19 562 -7 594 -7 C627 -7 654 19 654 51 C654 83 628 110 596 110 L596 110 Z " />
<glyph glyph-name="perthousand" unicode="&#x2030;" horiz-adv-x="1023" d="M166 653 C88 653 26 579 26 487 C26 394 88 320 166 320 C243 320 306 394 306 484 C306 579 245 653 166 653 L166 653 Z M166 635 C185 635 202 626 211 613 C223 595 227 561 227 484 C227 418 223 382 213 364 C205 348 187 338 166 338 C148 338 130 347 121 360 C109 378 105 412 105 486 C105 556 109 590 119 609 C127 625 145 635 166 635 L166 635 Z M487 647 L175 0 L204 0 L517 647 L487 647 Z M525 327 C448 327 386 253 386 161 C386 68 448 -6 526 -6 C602 -6 665 68 665 158 C665 253 604 327 525 327 L525 327 Z M526 309 C544 309 561 300 570 287 C582 269 586 235 586 158 C586 92 582 56 572 38 C564 22 546 12 526 12 C507 12 490 21 481 34 C469 52 465 86 465 160 C465 230 469 265 479 283 C487 299 505 309 526 309 L526 309 Z M857 327 C780 327 718 253 718 161 C718 68 780 -6 858 -6 C934 -6 997 68 997 158 C997 253 936 327 857 327 L857 327 Z M858 309 C876 309 893 300 902 287 C914 269 918 235 918 158 C918 92 914 56 904 38 C896 22 878 12 858 12 C839 12 822 21 813 34 C801 52 797 86 797 160 C797 230 801 265 811 283 C819 299 837 309 858 309 L858 309 Z " />
<glyph glyph-name="guilsinglleft" unicode="&#x2039;" horiz-adv-x="268" d="M43 198 L154 94 L217 94 L105 198 L217 304 L158 304 L43 198 Z " />
<glyph glyph-name="guilsinglright" unicode="&#x203a;" horiz-adv-x="268" d="M224 200 L113 304 L50 304 L162 200 L50 94 L109 94 L224 200 Z " />
<glyph glyph-name="uni203E" unicode="&#x203e;" horiz-adv-x="464" d="M0 847 L0 807 L464 807 L464 847 L0 847 Z " />
<glyph glyph-name="fraction" unicode="&#x2044;" horiz-adv-x="95" d="M189 647 L-123 0 L-94 0 L219 647 L189 647 Z " />
<glyph glyph-name="franc" unicode="&#x20a3;" horiz-adv-x="746" d="M115 20 L32 20 L32 0 L305 0 L305 20 L222 20 L222 328 L254 328 C344 327 364 304 368 196 L381 196 L381 471 L368 471 C366 362 347 346 222 347 L222 647 L284 647 C365 647 372 647 383 645 C398 643 413 639 424 632 C471 602 490 567 508 481 L521 481 L508 667 L32 667 L32 647 L115 647 L115 20 Z M498 20 L431 20 L431 0 L654 0 L654 20 L588 20 L588 113 C588 232 600 297 631 342 C640 354 649 362 655 362 C662 362 665 356 665 338 C666 312 685 294 710 294 C738 294 759 316 759 345 C759 379 733 403 696 403 C649 403 619 374 588 298 L588 393 L431 393 L431 373 L498 373 L498 20 Z " />
<glyph glyph-name="Euro" unicode="&#x20ac;" horiz-adv-x="586" d="M46 284 C66 116 188 -10 329 -10 C386 -10 437 8 494 48 L528 0 L543 0 L543 188 L528 188 C487 72 422 13 333 13 C261 13 202 51 186 108 C175 146 170 201 170 284 L379 284 L393 319 L170 319 L170 322 L170 340 L170 346 L170 349 L406 349 L421 384 L171 384 C175 473 179 514 189 550 C208 614 266 654 341 654 C435 654 502 595 528 491 L543 491 L543 667 L528 667 L494 620 C446 657 391 677 338 677 C194 677 66 548 46 384 L2 384 L-13 349 L44 349 L44 346 C44 329 44 325 43 322 L43 319 L2 319 L-13 284 L46 284 Z " />
<glyph glyph-name="trademark" unicode="&#x2122;" horiz-adv-x="843" d="M153 306 L98 306 L98 287 L280 287 L280 306 L225 306 L225 648 L241 648 C296 653 326 622 342 541 L358 541 L354 667 L24 667 L20 541 L36 541 C52 622 82 653 137 648 L153 648 L153 306 Z M429 306 L380 306 L380 287 L500 287 L500 306 L451 306 L451 621 L560 287 L581 287 L686 617 L686 306 L637 306 L637 287 L806 287 L806 306 L757 306 L757 648 L806 648 L806 667 L680 667 L595 402 L510 667 L380 667 L380 648 L429 648 L429 306 Z " />
<glyph glyph-name="uni2126" unicode="&#x2126;" horiz-adv-x="768" d="M326 0 L308 155 C230 199 180 288 180 382 C180 434 195 493 221 540 C257 605 317 642 385 642 C453 642 513 605 549 540 C575 493 590 434 590 382 C590 288 540 199 462 155 L444 0 L736 0 L736 153 L712 153 C704 108 684 90 643 90 L497 90 L500 128 C535 141 557 151 580 166 C657 215 702 296 702 382 C702 449 673 522 625 578 C564 648 480 686 385 686 C290 686 206 648 145 578 C97 522 68 449 68 382 C68 296 113 215 190 166 C213 151 235 141 270 128 L273 90 L127 90 C86 90 66 108 58 153 L34 153 L34 0 L326 0 Z " />
<glyph glyph-name="partialdiff" unicode="&#x2202;" horiz-adv-x="494" d="M107 673 C152 697 184 706 219 706 C321 706 379 611 379 447 C379 418 377 394 372 346 C308 396 272 412 221 412 C172 412 131 394 95 355 C51 309 26 246 26 184 C26 76 109 -10 213 -10 C282 -10 341 22 383 84 C429 152 462 286 462 402 C462 519 429 610 360 681 C312 730 259 753 195 753 C156 753 121 745 66 724 L107 673 Z M366 312 C350 201 340 158 314 106 C288 54 245 21 201 21 C146 21 113 73 113 159 C113 273 180 367 261 367 C299 367 324 354 366 312 L366 312 Z " />
<glyph glyph-name="Delta" unicode="&#x2206;" horiz-adv-x="612" d="M6 0 L608 0 L327 688 L6 0 Z M77 51 L290 509 L479 51 L77 51 Z " />
<glyph glyph-name="product" unicode="&#x220f;" horiz-adv-x="823" d="M25 -124 L315 -124 L315 -98 L312 -98 C242 -94 221 -67 224 18 L224 594 C224 656 228 677 242 690 C260 707 272 708 413 708 C556 708 568 707 586 690 C600 677 604 656 604 594 L604 18 C607 -67 586 -94 516 -98 L513 -98 L513 -124 L803 -124 L803 -98 L800 -98 C730 -94 709 -67 712 18 L712 609 C709 694 730 721 800 725 L803 725 L803 751 L25 751 L25 725 L28 725 C98 721 119 694 116 609 L116 18 C119 -67 98 -94 28 -98 L25 -98 L25 -124 Z " />
<glyph glyph-name="summation" unicode="&#x2211;" horiz-adv-x="713" d="M176 711 L444 711 C560 710 590 688 606 587 L632 587 L622 752 L23 752 L256 285 L14 -123 L641 -123 L695 87 L669 87 C639 7 605 -12 491 -11 L163 -11 L364 341 L176 711 Z " />
<glyph glyph-name="minus" unicode="&#x2212;" horiz-adv-x="500" d="M47 341 L47 306 L454 306 L454 341 L47 341 Z " />
<glyph glyph-name="uni2215" unicode="&#x2215;" horiz-adv-x="95" d="M189 647 L-123 0 L-94 0 L219 647 L189 647 Z " />
<glyph glyph-name="uni2219" unicode="&#x2219;" horiz-adv-x="238" d="M120 259 C87 259 60 233 60 200 C60 168 86 142 118 142 C151 142 178 168 178 200 C178 232 152 259 120 259 L120 259 Z " />
<glyph glyph-name="radical" unicode="&#x221a;" horiz-adv-x="549" d="M363 -35 L515 908 L480 913 L353 123 L156 520 L10 449 L26 414 L121 461 L363 -35 Z " />
<glyph glyph-name="infinity" unicode="&#x221e;" horiz-adv-x="713" d="M357 227 C415 156 485 115 548 115 C631 115 688 176 688 266 C688 354 629 414 543 414 C476 414 412 376 357 303 C300 375 234 414 171 414 C86 414 26 351 26 263 C26 176 84 115 167 115 C224 115 281 142 327 192 L357 227 Z M391 264 C434 325 493 362 546 362 C600 362 638 321 638 264 C638 205 603 167 549 167 C495 167 461 188 391 264 L391 264 Z M324 266 C275 203 216 167 163 167 C111 167 76 207 76 266 C76 323 113 362 167 362 C218 362 258 337 324 266 L324 266 Z " />
<glyph glyph-name="integral" unicode="&#x222b;" horiz-adv-x="274" d="M180 576 C180 653 179 691 176 746 C174 774 173 800 173 815 C173 855 184 878 202 878 C208 878 213 876 215 872 C232 845 239 839 256 839 C276 839 291 853 291 871 C291 898 267 916 231 916 C186 916 152 887 138 838 C123 784 113 682 113 577 L113 232 C113 160 114 124 117 63 C119 34 120 4 120 -12 C120 -47 108 -70 89 -70 C81 -70 74 -65 68 -52 C59 -35 51 -30 37 -30 C17 -30 2 -44 2 -63 C2 -89 26 -107 62 -107 C107 -107 141 -78 155 -29 C170 25 180 126 180 232 L180 576 Z " />
<glyph glyph-name="approxequal" unicode="&#x2248;" horiz-adv-x="549" d="M489 251 C444 199 423 187 384 187 C365 187 354 190 285 211 C212 234 188 239 160 239 C101 239 54 211 14 155 L57 121 C103 174 120 184 159 184 C180 184 180 184 271 157 C350 133 354 132 385 132 C449 132 496 160 527 217 L489 251 Z M489 408 C443 356 423 344 384 344 C365 344 354 347 285 368 C212 391 188 396 160 396 C101 396 54 369 14 312 L57 278 C103 331 119 341 159 341 C180 341 180 341 271 314 C350 290 354 289 385 289 C449 289 496 317 527 374 L489 408 Z " />
<glyph glyph-name="notequal" unicode="&#x2260;" horiz-adv-x="549" d="M187 142 L115 -1 L161 -25 L246 142 L540 142 L540 197 L273 197 L344 336 L540 336 L540 391 L371 391 L439 525 L392 549 L312 391 L15 391 L15 336 L285 336 L215 197 L15 197 L15 142 L187 142 Z " />
<glyph glyph-name="lessequal" unicode="&#x2264;" horiz-adv-x="549" d="M526 55 L29 55 L29 0 L526 0 L526 55 Z M526 639 L29 405 L29 350 L526 117 L526 179 L108 378 L526 577 L526 639 Z " />
<glyph glyph-name="greaterequal" unicode="&#x2265;" horiz-adv-x="549" d="M526 55 L29 55 L29 0 L526 0 L526 55 Z M29 639 L29 577 L447 378 L29 179 L29 117 L526 350 L526 405 L29 639 Z " />
<glyph glyph-name="lozenge" unicode="&#x25ca;" horiz-adv-x="494" d="M209 0 L269 -1 L466 374 L277 740 L214 740 L18 377 L209 0 Z M240 58 L81 376 L245 683 L402 373 L240 58 Z " />
<glyph glyph-name="fi" unicode="&#xfb01;" horiz-adv-x="517" d="M434 393 L188 393 L188 528 C188 605 189 612 201 629 C217 648 245 659 283 659 C314 659 336 654 361 640 C344 624 338 611 338 591 C338 560 360 537 392 537 C421 537 443 561 443 592 C443 644 379 680 288 680 C224 680 175 661 142 623 C109 585 98 546 98 474 L98 393 L31 393 L31 373 L98 373 L98 20 L31 20 L31 0 L248 0 L248 20 L188 20 L188 373 L344 373 L344 20 L284 20 L284 0 L500 0 L500 20 L434 20 L434 393 Z " />
<glyph glyph-name="fl" unicode="&#xfb02;" horiz-adv-x="517" d="M188 20 L188 373 L279 373 L279 393 L188 393 L188 528 C188 605 189 612 201 629 C217 648 242 659 273 659 C306 659 328 647 337 623 C343 608 343 604 344 547 L344 20 L284 20 L284 0 L500 0 L500 20 L434 20 L434 680 L352 673 C313 679 305 680 286 680 C224 680 175 661 142 623 C109 585 98 546 98 474 L98 393 L31 393 L31 373 L98 373 L98 20 L31 20 L31 0 L248 0 L248 20 L188 20 Z " />
</font>
</svg>
