<?xml version="1.0" encoding="UTF-8"?>
<svg xmlns="http://www.w3.org/2000/svg" xmlns:xlink="http://www.w3.org/1999/xlink" version="1.2" >
<font id="Clarendon URW Extra Narrow Regular Oblique">
<font-face  font-family="Clarendon URW Extra Narrow" units-per-em="1000" ascent="667" descent="-333" font-style="italic" font-weight="400" font-stretch="semi-condensed" cap-height="667" x-height="469" underline-position="-63" underline-thickness="74" />
<missing-glyph  horiz-adv-x="250" d="" />
<glyph glyph-name="NULL" d="" />
<glyph glyph-name="CR" unicode="&#xd;" horiz-adv-x="250" d="" />
<glyph glyph-name="space" unicode="&#x20;" horiz-adv-x="250" d="" />
<glyph glyph-name="exclam" unicode="&#x21;" horiz-adv-x="286" d="M133 130 C88 130 47 88 47 41 C47 6 68 -17 100 -17 C142 -17 183 27 183 73 C183 106 162 130 133 130 L133 130 Z M171 190 C200 293 214 340 259 476 C301 603 303 612 303 638 C303 672 286 687 250 687 C213 687 189 670 175 633 C166 611 163 596 151 476 C133 308 131 298 115 190 L171 190 Z " />
<glyph glyph-name="quotedbl" unicode="&#x22;" horiz-adv-x="325" d="M136 399 L210 667 L102 667 L63 399 L136 399 Z M289 399 L363 667 L256 667 L216 399 L289 399 Z " />
<glyph glyph-name="numbersign" unicode="&#x23;" horiz-adv-x="559" d="M504 288 L410 288 L447 391 L540 391 L573 488 L480 488 L544 667 L444 667 L381 488 L286 488 L350 667 L251 667 L188 488 L95 488 L61 391 L155 391 L118 288 L24 288 L-10 191 L85 191 L16 0 L114 0 L182 191 L276 191 L206 0 L309 0 L376 191 L471 191 L504 288 Z M346 391 L310 288 L217 288 L253 391 L346 391 Z " />
<glyph glyph-name="dollar" unicode="&#x24;" horiz-adv-x="559" d="M146 -104 L212 -104 L234 -1 C322 9 363 24 408 63 C453 103 481 162 481 220 C481 254 471 282 450 303 C424 329 393 343 312 364 L350 543 C408 539 422 534 452 502 C408 498 382 472 382 434 C382 407 403 388 433 388 C475 388 513 432 513 483 C513 510 502 538 482 560 C457 587 429 597 363 605 L379 680 L312 680 L296 605 C216 592 178 575 136 533 C95 493 71 440 71 390 C71 352 84 321 108 300 C130 282 152 272 220 248 L181 63 C115 68 99 75 67 114 C95 114 108 119 121 135 C134 149 142 169 142 188 C142 215 121 235 91 235 C42 235 4 187 4 125 C4 92 15 66 38 45 C68 18 101 6 168 0 L146 -104 Z M284 235 C344 219 361 204 361 171 C361 143 350 115 332 97 C310 76 289 68 248 65 L284 235 Z M248 378 C204 392 190 406 190 437 C190 460 199 485 213 503 C230 525 247 534 283 542 L248 378 Z " />
<glyph glyph-name="percent" unicode="&#x25;" horiz-adv-x="862" d="M259 622 C140 622 41 511 41 378 C41 293 94 239 177 239 C295 239 395 351 395 482 C395 568 342 622 259 622 L259 622 Z M247 559 C273 559 288 539 288 501 C288 471 277 413 263 372 C248 328 222 302 192 302 C163 302 149 322 149 361 C149 391 160 445 175 488 C191 535 216 559 247 559 L247 559 Z M695 622 L622 622 L151 -17 L223 -17 L695 622 Z M668 366 C550 366 451 255 451 122 C451 37 504 -17 587 -17 C705 -17 804 95 804 226 C804 312 751 366 668 366 L668 366 Z M655 303 C683 302 696 283 696 245 C696 215 685 157 671 116 C656 72 630 46 600 46 C572 46 558 66 558 105 C558 135 569 190 583 232 C599 278 626 304 655 303 L655 303 Z " />
<glyph glyph-name="ampersand" unicode="&#x26;" horiz-adv-x="755" d="M627 229 C613 182 606 165 594 142 C575 105 545 85 511 85 C486 85 473 93 451 120 C505 176 531 206 552 235 C618 331 624 335 687 339 L719 339 L735 415 L449 415 L433 339 L460 339 C494 339 511 334 511 323 C511 313 502 293 489 271 C472 244 455 225 415 188 C378 264 367 292 340 374 C394 408 418 427 443 457 C478 498 498 548 498 592 C498 652 458 687 392 687 C283 687 193 585 193 462 C193 449 196 425 200 399 C113 354 78 328 44 283 C13 242 -5 190 -5 141 C-5 43 60 -19 164 -19 C221 -19 262 -6 344 36 C397 -7 427 -20 472 -20 C530 -20 590 9 627 57 C658 96 674 136 695 229 L627 229 Z M218 315 C245 215 257 185 300 101 C265 84 246 78 225 78 C174 78 143 114 143 176 C143 235 164 273 218 315 L218 315 Z M316 452 C310 477 309 488 309 504 C309 567 335 610 372 610 C394 610 406 596 406 570 C406 526 378 490 316 452 L316 452 Z " />
<glyph glyph-name="quotesingle" unicode="&#x27;" horiz-adv-x="166" d="M133 399 L207 667 L99 667 L60 399 L133 399 Z " />
<glyph glyph-name="parenleft" unicode="&#x28;" horiz-adv-x="344" d="M218 -130 C174 -97 159 -78 147 -36 C139 -5 135 25 135 64 C135 202 186 399 249 503 C286 563 311 587 378 624 L392 687 C320 662 278 644 245 621 C194 586 148 538 111 481 C45 378 2 234 2 112 C2 34 18 -30 50 -81 C82 -132 118 -158 205 -192 L218 -130 Z " />
<glyph glyph-name="parenright" unicode="&#x29;" horiz-adv-x="344" d="M-80 -192 C-8 -168 34 -149 67 -126 C117 -92 164 -43 200 13 C267 117 310 260 310 383 C310 460 294 525 262 576 C230 627 194 653 107 687 L93 624 C138 592 153 572 165 531 C173 500 177 469 177 431 C177 293 126 96 63 -8 C26 -69 1 -92 -67 -130 L-80 -192 Z " />
<glyph glyph-name="asterisk" unicode="&#x2a;" horiz-adv-x="447" d="M251 490 C227 512 219 525 205 558 C187 605 183 610 162 610 C131 610 98 574 98 539 C98 529 101 521 107 514 C117 504 123 502 162 500 C196 497 214 492 242 475 C209 460 190 455 153 452 C110 449 104 447 89 435 C75 424 66 406 66 389 C66 361 81 342 102 342 C127 342 135 349 170 393 C197 426 214 441 247 462 C237 428 229 410 203 369 C174 326 172 322 172 302 C172 279 187 266 213 266 C245 266 272 294 272 328 C272 337 270 346 265 369 C259 391 257 405 257 420 C257 429 258 441 261 462 C283 443 291 431 306 393 C322 350 329 342 350 342 C380 342 412 378 412 411 C412 435 400 448 377 450 C315 454 299 458 270 477 C304 492 320 496 359 500 C410 505 411 505 422 516 C437 529 445 546 445 563 C445 590 430 610 410 610 C386 610 376 603 341 559 C313 523 298 511 265 490 C280 535 287 550 308 582 C334 619 340 632 340 648 C340 672 325 687 300 687 C266 687 239 658 239 622 C239 614 239 614 248 583 C253 566 255 549 255 530 C255 523 253 506 251 490 L251 490 Z " />
<glyph glyph-name="plus" unicode="&#x2b;" horiz-adv-x="510" d="M65 358 L46 267 L192 267 L157 104 L255 104 L290 267 L436 267 L455 358 L309 358 L344 521 L246 521 L211 358 L65 358 Z " />
<glyph glyph-name="comma" unicode="&#x2c;" horiz-adv-x="215" d="M-72 -143 C33 -125 112 -39 112 58 C112 101 86 130 46 130 C0 130 -38 91 -38 44 C-38 16 -22 -1 4 -1 C18 -1 27 2 46 14 C32 -46 -3 -82 -63 -99 L-72 -143 Z " />
<glyph glyph-name="hyphen" unicode="&#x2d;" horiz-adv-x="242" d="M-32 184 L210 184 L233 290 L-9 290 L-32 184 Z " />
<glyph glyph-name="period" unicode="&#x2e;" horiz-adv-x="277" d="M98 130 C53 130 12 88 12 41 C12 6 33 -17 65 -17 C107 -17 148 27 148 73 C148 106 127 130 98 130 L98 130 Z " />
<glyph glyph-name="slash" unicode="&#x2f;" horiz-adv-x="332" d="M-14 -92 L372 686 L306 686 L-80 -92 L-14 -92 Z " />
<glyph glyph-name="zero" unicode="0" horiz-adv-x="559" d="M340 621 C162 621 10 428 10 204 C10 69 85 -17 204 -17 C381 -17 534 176 534 399 C534 535 459 621 340 621 L340 621 Z M324 544 C366 544 388 510 388 443 C388 385 366 273 340 192 C311 105 270 60 220 60 C177 60 155 95 155 162 C155 219 176 325 204 412 C232 499 273 544 324 544 L324 544 Z " />
<glyph glyph-name="one" unicode="1" horiz-adv-x="559" d="M41 0 L377 0 L392 71 L349 71 C309 71 298 76 298 95 C298 102 300 113 303 128 L405 611 L329 611 C279 542 251 528 151 519 L136 448 L246 448 L179 130 C167 79 157 71 96 71 L56 71 L41 0 Z " />
<glyph glyph-name="two" unicode="2" horiz-adv-x="559" d="M20 -4 C37 46 54 63 84 63 C100 63 118 57 131 49 C183 15 183 15 194 9 C228 -7 263 -17 291 -17 C335 -17 377 7 410 50 C442 92 457 130 476 217 L425 217 C410 168 405 156 394 139 C381 118 355 104 329 104 C318 104 306 106 261 117 C218 127 162 137 145 137 C122 137 103 131 69 111 C118 182 167 210 293 239 C374 259 414 278 449 314 C487 353 511 413 511 470 C511 518 493 558 459 582 C424 607 374 622 323 622 C251 622 186 595 135 545 C96 505 72 456 72 413 C72 366 97 337 138 337 C187 337 229 382 229 434 C229 462 209 482 182 482 C174 482 161 480 148 476 C183 530 219 553 269 553 C325 553 361 519 361 465 C361 437 352 407 336 381 C315 347 294 330 238 304 C58 222 -3 151 -32 -4 L20 -4 Z " />
<glyph glyph-name="three" unicode="3" horiz-adv-x="559" d="M212 286 C298 286 324 267 324 202 C324 115 261 52 172 52 C126 52 101 64 73 99 C109 101 125 108 143 131 C156 148 164 169 164 190 C164 227 144 247 107 247 C50 247 3 190 3 122 C3 38 74 -17 184 -17 C261 -17 331 2 381 37 C439 77 475 142 475 204 C475 241 460 274 434 294 C418 306 396 316 356 326 C421 343 447 355 474 382 C504 412 522 454 522 494 C522 574 455 622 342 622 C266 622 201 600 151 557 C112 524 90 483 90 446 C90 407 112 385 150 385 C195 385 236 427 236 473 C236 501 224 514 194 521 C236 550 259 558 294 558 C345 558 377 529 377 483 C377 444 358 404 331 383 C308 366 286 361 228 359 L212 286 Z " />
<glyph glyph-name="four" unicode="4" horiz-adv-x="559" d="M133 0 L449 0 L464 71 L414 71 C385 71 368 81 368 98 C368 107 369 116 371 125 L380 168 L485 168 L503 254 L398 254 L474 610 L388 610 L12 244 L-4 168 L267 168 L258 125 C249 78 241 72 180 71 L148 71 L133 0 Z M285 254 L111 254 L335 471 L285 254 Z " />
<glyph glyph-name="five" unicode="5" horiz-adv-x="559" d="M183 487 C231 479 254 477 280 477 C333 477 382 486 424 505 C472 526 498 552 534 619 C446 594 409 588 337 588 C266 588 233 594 155 620 L59 298 L119 295 C166 342 196 358 239 358 C298 358 335 320 335 260 C335 212 318 155 294 119 C265 76 221 52 169 52 C127 52 102 63 71 94 C106 97 122 103 139 122 C154 140 163 164 163 185 C163 219 140 240 104 240 C47 240 0 187 0 122 C0 37 74 -17 193 -17 C278 -17 345 10 399 66 C451 120 482 195 482 266 C482 366 411 431 302 431 C255 431 223 423 157 395 L183 487 Z " />
<glyph glyph-name="six" unicode="6" horiz-adv-x="558" d="M435 536 C396 520 379 498 379 465 C379 433 399 414 433 414 C484 414 526 458 526 512 C526 578 464 622 370 622 C270 622 191 579 126 489 C65 403 27 286 27 180 C27 49 91 -18 216 -18 C295 -18 364 9 413 59 C461 107 490 172 490 232 C490 326 429 386 334 386 C284 386 250 374 186 334 C216 441 236 485 268 517 C296 545 332 561 369 561 C395 561 410 556 435 536 L435 536 Z M278 301 C316 301 340 274 340 230 C340 192 327 142 310 112 C289 75 261 55 228 55 C188 55 166 80 166 128 C166 164 177 209 193 240 C213 280 243 301 278 301 L278 301 Z " />
<glyph glyph-name="seven" unicode="7" horiz-adv-x="559" d="M275 -4 C312 178 342 243 457 388 C508 451 538 488 546 500 C570 533 578 550 599 605 L543 605 C525 575 509 564 485 564 C469 564 457 568 418 586 C380 604 352 611 321 611 C272 611 243 595 191 537 L206 606 L134 606 L75 330 L143 330 C161 400 170 426 184 449 C200 474 231 491 258 491 C271 491 288 489 307 484 C346 475 368 472 386 472 C409 472 429 477 468 492 C443 466 426 449 418 441 L391 416 C322 350 312 339 274 292 C208 208 187 154 155 -4 L275 -4 Z " />
<glyph glyph-name="eight" unicode="8" horiz-adv-x="559" d="M140 291 C78 266 52 249 28 217 C6 189 -7 153 -7 120 C-7 37 74 -17 199 -17 C289 -17 374 12 421 60 C462 101 488 160 488 214 C488 270 466 301 401 340 C452 365 474 380 494 405 C515 432 528 467 528 499 C528 573 453 622 339 622 C193 622 78 528 78 408 C78 361 93 333 140 291 L140 291 Z M311 218 C338 208 355 186 355 162 C355 98 305 61 220 61 C145 61 109 85 109 137 C109 188 144 237 199 262 L311 218 Z M249 397 C223 406 207 428 207 457 C207 513 257 553 327 553 C384 553 419 528 419 487 C419 467 412 443 401 422 C387 398 375 387 344 367 L249 397 Z " />
<glyph glyph-name="nine" unicode="9" horiz-adv-x="559" d="M116 64 C154 81 170 102 170 135 C170 167 151 186 117 186 C66 186 24 142 24 89 C24 24 84 -19 173 -19 C262 -19 336 14 393 80 C470 168 517 297 517 420 C517 554 454 622 330 622 C249 622 175 592 125 539 C80 491 53 428 53 369 C53 275 113 216 207 216 C260 216 296 229 361 273 C333 165 315 121 283 88 C256 58 217 41 179 41 C155 41 141 46 116 64 L116 64 Z M315 549 C355 549 376 524 376 477 C376 378 328 302 266 302 C228 302 204 330 204 373 C204 472 253 549 315 549 L315 549 Z " />
<glyph glyph-name="colon" unicode="&#x3a;" horiz-adv-x="286" d="M133 130 C88 130 47 88 47 41 C47 6 68 -17 100 -17 C142 -17 183 27 183 73 C183 106 162 130 133 130 L133 130 Z M200 447 C155 447 114 405 114 358 C114 323 135 300 167 300 C209 300 250 344 250 390 C250 423 229 447 200 447 L200 447 Z " />
<glyph glyph-name="semicolon" unicode="&#x3b;" horiz-adv-x="286" d="M211 447 C166 447 125 405 125 358 C125 323 146 300 178 300 C220 300 261 344 261 390 C261 423 240 447 211 447 L211 447 Z M13 -143 C118 -125 197 -39 197 58 C197 101 171 130 131 130 C85 130 47 91 47 44 C47 16 63 -1 89 -1 C103 -1 112 2 131 14 C117 -46 82 -82 22 -99 L13 -143 Z " />
<glyph glyph-name="less" unicode="&#x3c;" horiz-adv-x="450" d="M477 603 L41 385 L19 282 L362 63 L388 184 L146 333 L452 482 L477 603 Z " />
<glyph glyph-name="equal" unicode="&#x3d;" horiz-adv-x="510" d="M83 442 L64 356 L454 356 L473 442 L83 442 Z M48 280 L30 194 L420 194 L438 280 L48 280 Z " />
<glyph glyph-name="greater" unicode="&#x3e;" horiz-adv-x="450" d="M88 603 L62 482 L304 333 L-1 184 L-27 63 L409 282 L431 385 L88 603 Z " />
<glyph glyph-name="question" unicode="&#x3f;" horiz-adv-x="474" d="M183 130 C138 130 97 88 97 41 C97 6 118 -17 150 -17 C192 -17 233 27 233 73 C233 106 212 130 183 130 L183 130 Z M223 189 C238 247 255 270 309 310 C406 376 417 384 443 414 C477 451 494 495 494 542 C494 630 427 687 323 687 C246 687 181 658 132 604 C97 564 76 513 76 465 C76 414 104 379 145 379 C193 379 238 424 238 472 C238 502 221 521 194 521 C176 521 163 515 138 498 C152 543 163 562 188 583 C211 603 239 614 266 614 C317 614 350 582 350 533 C350 481 335 453 268 383 C195 306 182 281 166 189 L223 189 Z " />
<glyph glyph-name="at" unicode="&#x40;" horiz-adv-x="668" d="M469 493 L452 449 C442 484 413 504 372 504 C273 504 166 377 166 259 C166 189 205 143 264 143 C310 143 358 168 391 208 C391 174 414 151 447 151 C546 151 654 308 654 453 C654 591 563 681 425 681 C216 681 22 472 22 247 C22 84 118 -15 277 -15 C347 -15 416 -3 476 20 L474 92 C418 69 359 58 296 58 C219 58 166 82 134 132 C112 168 101 210 101 259 C101 441 251 609 412 609 C516 609 582 544 582 442 C582 345 516 219 464 217 C455 217 448 225 448 238 C448 250 451 262 465 297 L541 493 L469 493 Z M368 419 C396 418 412 399 412 367 C412 300 356 224 306 224 C277 224 259 245 259 278 C259 346 318 421 368 419 L368 419 Z " />
<glyph glyph-name="A" unicode="A" horiz-adv-x="644" d="M-84 0 L195 0 L211 76 L165 76 C129 76 121 79 121 92 C121 100 125 110 135 129 L179 212 L377 212 L386 134 C387 124 388 113 388 110 C388 83 376 76 331 76 L283 76 L267 0 L577 0 L593 76 L575 76 C529 76 522 84 516 140 L450 667 L323 667 L44 140 C20 91 -3 76 -49 76 L-68 76 L-84 0 Z M369 290 L220 290 L340 522 L369 290 Z " />
<glyph glyph-name="B" unicode="B" horiz-adv-x="652" d="M-48 0 L284 0 C414 0 479 19 527 70 C563 109 587 171 587 228 C587 296 557 329 476 353 C543 374 572 393 597 429 C618 460 631 505 631 545 C631 628 570 667 443 667 L94 667 L78 591 L109 591 C146 591 155 586 155 566 C155 559 153 547 149 529 L66 137 C55 83 47 75 0 76 L-32 76 L-48 0 Z M193 75 L242 307 L332 307 C374 307 397 303 414 294 C433 282 444 259 444 229 C444 194 432 153 412 124 C388 88 355 75 291 75 L193 75 Z M259 383 L303 590 L396 590 C463 590 487 572 487 523 C487 492 477 458 463 434 C438 396 408 383 343 383 L259 383 Z " />
<glyph glyph-name="C" unicode="C" horiz-adv-x="635" d="M495 258 C467 185 450 155 418 123 C385 90 344 72 302 72 C223 72 174 129 174 221 C174 303 202 414 241 481 C286 562 347 605 414 605 C489 605 536 549 536 459 C536 446 535 424 534 404 L602 404 L660 677 L596 677 L566 617 C507 671 472 686 405 686 C206 686 21 473 21 242 C21 83 114 -19 260 -19 C345 -19 415 11 473 72 C518 119 539 160 571 258 L495 258 Z " />
<glyph glyph-name="D" unicode="D" horiz-adv-x="724" d="M-48 0 L296 0 C421 0 514 39 586 122 C650 196 694 328 694 444 C694 516 667 580 621 618 C581 650 518 667 438 667 L94 667 L78 591 L109 591 C146 591 155 586 155 566 C155 559 153 546 150 530 L66 137 C55 83 47 75 0 76 L-32 76 L-48 0 Z M193 76 L303 591 L380 591 C442 591 474 584 497 567 C523 545 538 504 538 448 C538 357 510 250 469 179 C423 99 378 76 270 76 L193 76 Z " />
<glyph glyph-name="E" unicode="E" horiz-adv-x="675" d="M-48 0 L542 0 L602 283 L534 283 C484 112 451 75 346 76 L195 76 L245 310 L279 310 C335 310 349 299 349 256 C349 236 347 218 340 174 L406 174 L477 507 L411 507 C380 397 371 389 294 386 L261 386 L305 591 L443 591 C545 591 570 571 570 492 C570 467 567 446 559 402 L627 402 L684 667 L94 667 L78 591 L110 591 C148 591 157 586 157 565 C157 559 155 547 151 529 L68 138 C57 83 49 75 0 76 L-32 76 L-48 0 Z " />
<glyph glyph-name="F" unicode="F" horiz-adv-x="621" d="M-48 0 L274 0 L290 76 L250 76 C212 76 203 81 203 102 C203 108 205 122 208 138 L245 310 L260 310 C314 310 328 299 328 256 C328 237 326 218 319 174 L388 174 L458 507 L390 507 C359 397 350 388 275 386 L261 386 L305 591 L409 591 C511 591 537 571 537 492 C537 465 534 441 524 390 L592 390 L651 667 L94 667 L78 591 L110 591 C148 591 157 586 157 565 C157 559 155 547 151 529 L68 138 C57 83 49 75 0 76 L-32 76 L-48 0 Z " />
<glyph glyph-name="G" unicode="G" horiz-adv-x="706" d="M470 -4 L546 -4 L593 219 C605 274 611 280 651 281 L686 281 L702 357 L385 357 L369 281 L404 281 C452 281 461 277 461 258 C461 251 459 240 457 226 L449 189 C440 149 429 129 404 108 C375 83 337 69 299 69 C221 69 175 125 175 222 C175 305 201 407 239 478 C284 560 344 605 410 605 C454 605 491 583 513 543 C533 509 538 478 538 410 L611 410 L666 671 L599 671 L561 613 C507 672 474 687 405 687 C203 687 21 475 21 240 C21 82 111 -19 253 -19 C324 -19 366 -4 448 52 L470 -4 Z " />
<glyph glyph-name="H" unicode="H" horiz-adv-x="742" d="M-50 0 L272 0 L288 76 L248 76 C210 76 201 81 201 102 C201 108 203 122 206 137 L241 302 L486 302 L451 137 C440 83 432 75 383 76 L344 76 L328 0 L649 0 L665 76 L633 76 C595 76 586 81 586 102 C586 108 588 120 592 137 L675 529 C686 584 694 592 743 591 L775 591 L791 667 L469 667 L453 591 L493 591 C531 591 540 586 540 565 C540 559 538 545 535 529 L503 382 L258 382 L290 529 C301 584 309 592 358 591 L397 591 L413 667 L92 667 L76 591 L108 591 C146 591 155 586 155 565 C155 559 153 547 149 529 L66 137 C55 83 47 75 -2 76 L-34 76 L-50 0 Z " />
<glyph glyph-name="I" unicode="I" horiz-adv-x="371" d="M-47 0 L276 0 L292 76 L257 76 C218 76 209 81 209 102 C209 107 210 115 215 137 L298 530 C310 584 318 592 366 591 L402 591 L418 667 L95 667 L79 591 L114 591 C152 591 161 586 161 565 C161 558 159 545 156 530 L73 137 C61 83 53 75 5 76 L-31 76 L-47 0 Z " />
<glyph glyph-name="J" unicode="J" horiz-adv-x="518" d="M236 591 L275 591 C314 591 323 586 323 565 C323 560 322 552 317 530 L246 193 C233 134 224 111 207 91 C189 69 161 57 130 57 C100 57 87 63 65 86 C97 96 111 105 125 125 C137 143 144 165 144 187 C144 225 124 246 87 246 C25 246 -21 189 -21 112 C-21 32 43 -20 141 -20 C206 -20 266 1 309 39 C352 76 372 117 392 213 L459 530 C471 584 479 592 527 591 L551 591 L567 667 L252 667 L236 591 Z " />
<glyph glyph-name="K" unicode="K" horiz-adv-x="693" d="M224 229 L336 324 L418 128 C422 117 425 105 425 98 C425 81 415 76 383 76 L335 76 L318 0 L651 0 L667 76 L638 76 C591 76 583 82 562 126 L441 414 L548 503 C629 570 667 590 719 591 L739 591 L755 667 L453 667 L437 591 L476 591 C499 591 509 588 509 580 C509 574 501 564 489 553 L248 342 L288 530 C299 584 308 592 356 591 L383 591 L399 667 L94 667 L78 591 L110 591 C148 591 157 586 157 566 C157 559 155 546 152 530 L68 137 C57 83 49 75 0 76 L-32 76 L-48 0 L252 0 L268 76 L246 76 C208 76 199 81 199 102 C199 107 200 115 205 137 L224 229 Z " />
<glyph glyph-name="L" unicode="L" horiz-adv-x="621" d="M94 667 L78 591 L110 591 C148 591 157 586 157 565 C157 559 155 547 151 530 L68 137 C57 83 49 75 0 76 L-32 76 L-48 0 L509 0 L570 288 L502 288 C464 113 426 73 299 76 L195 76 L292 530 C303 584 311 592 360 591 L399 591 L415 667 L94 667 Z " />
<glyph glyph-name="M" unicode="M" horiz-adv-x="872" d="M472 0 L781 0 L797 76 L765 76 C726 76 717 81 717 102 C717 108 719 120 723 137 L806 530 C817 584 825 592 874 591 L906 591 L923 667 L652 667 L414 234 L374 667 L94 667 L78 591 L108 591 C147 591 156 586 156 565 C156 558 154 547 151 530 L67 137 C56 83 48 75 -2 76 L-32 76 L-48 0 L232 0 L248 76 L215 76 C175 76 166 81 166 102 C166 107 167 115 172 137 L266 579 L320 0 L379 0 L686 569 L594 137 C583 83 575 75 526 76 L489 76 L472 0 Z " />
<glyph glyph-name="N" unicode="N" horiz-adv-x="733" d="M563 0 L675 530 C686 584 695 592 744 591 L771 591 L787 667 L504 667 L488 591 L527 591 C567 591 576 586 576 565 C576 558 574 548 570 530 L497 183 L341 667 L83 667 L67 591 L103 591 C143 591 152 586 152 565 C152 558 151 550 146 530 L63 137 C52 83 44 75 -6 76 L-46 76 L-62 0 L233 0 L250 76 L211 76 C171 76 162 81 162 102 C162 109 163 115 168 137 L254 543 L427 0 L563 0 Z " />
<glyph glyph-name="O" unicode="O" horiz-adv-x="724" d="M436 686 C323 686 219 639 140 552 C66 471 22 353 22 238 C22 79 123 -19 287 -19 C402 -19 504 27 583 115 C657 196 702 315 702 427 C702 588 601 686 436 686 L436 686 Z M419 607 C500 607 549 546 549 448 C549 369 521 253 486 190 C441 107 376 60 305 60 C224 60 175 120 175 219 C175 298 203 414 238 477 C283 561 348 607 419 607 L419 607 Z " />
<glyph glyph-name="P" unicode="P" horiz-adv-x="612" d="M290 76 L250 76 C212 76 203 81 203 102 C203 108 205 122 208 137 L243 301 L320 301 C444 301 500 315 547 358 C591 399 619 465 619 526 C619 623 553 667 409 667 L94 667 L78 591 L110 591 C148 591 157 586 157 565 C157 559 155 547 151 530 L68 137 C57 83 49 75 0 76 L-32 76 L-48 0 L274 0 L290 76 Z M259 377 L305 591 L353 591 C405 591 422 589 439 581 C462 571 472 550 472 518 C472 486 461 450 444 425 C419 389 387 377 314 377 L259 377 Z " />
<glyph glyph-name="Q" unicode="Q" horiz-adv-x="746" d="M645 130 C624 56 614 39 589 39 C570 39 557 50 542 79 C643 167 701 292 701 427 C701 588 600 686 435 686 C320 686 219 640 140 552 C66 470 21 352 21 240 C21 80 122 -19 286 -19 C333 -19 364 -13 428 7 C472 -54 493 -69 536 -69 C572 -69 604 -56 630 -31 C665 2 683 41 703 130 L645 130 Z M392 86 C361 64 332 55 297 55 C262 55 240 75 240 107 C240 147 272 182 308 182 C348 182 371 156 392 86 L392 86 Z M493 169 C437 246 398 271 337 271 C296 271 260 255 234 225 C212 200 202 176 193 122 C176 151 172 169 172 213 C172 284 190 370 219 439 C264 547 336 607 421 607 C505 607 553 547 553 444 C553 363 531 264 493 169 L493 169 Z " />
<glyph glyph-name="R" unicode="R" horiz-adv-x="693" d="M290 76 L250 76 C212 76 203 81 203 102 C203 108 205 122 208 137 L246 314 L285 314 C369 314 399 295 399 242 C399 226 397 203 393 181 L379 103 C377 93 376 84 376 72 C376 11 407 -19 470 -19 C523 -19 566 5 591 48 C610 82 619 109 636 190 L579 190 C558 96 550 78 529 78 C515 78 509 84 509 99 C509 109 510 122 512 135 L521 194 C526 221 528 242 528 253 C528 275 518 296 500 311 C486 323 467 330 432 337 C507 350 541 364 577 397 C618 433 643 489 643 545 C643 630 585 667 452 667 L94 667 L78 591 L110 591 C148 591 157 586 157 565 C157 559 155 547 151 529 L68 137 C57 83 49 75 0 76 L-32 76 L-48 0 L274 0 L290 76 Z M262 390 L305 591 L401 591 C471 591 493 575 493 524 C493 493 483 459 467 435 C444 403 414 390 360 390 L262 390 Z " />
<glyph glyph-name="S" unicode="S" horiz-adv-x="577" d="M-33 0 L29 0 L62 62 C128 1 173 -19 244 -19 C393 -19 518 99 518 239 C518 281 506 317 482 341 C458 366 413 390 366 402 L252 433 C212 444 192 466 192 500 C192 562 245 606 320 606 C408 606 461 543 461 439 L461 414 L528 414 L582 667 L529 667 L487 618 C426 673 394 687 326 687 C180 687 62 574 62 433 C62 357 109 312 221 281 L313 256 C359 244 384 217 384 182 C384 113 332 70 249 70 C192 70 156 86 127 123 C104 152 94 188 94 241 C94 247 94 260 95 275 L25 275 L-33 0 Z " />
<glyph glyph-name="T" unicode="T" horiz-adv-x="608" d="M192 137 C181 83 173 75 124 76 L76 76 L59 0 L407 0 L423 76 L375 76 C336 76 327 81 327 102 C327 109 329 119 332 137 L429 593 C512 593 542 564 542 486 C542 464 539 438 530 391 L598 391 L657 667 L93 667 L34 391 L102 391 C137 543 186 596 289 593 L192 137 Z " />
<glyph glyph-name="U" unicode="U" horiz-adv-x="684" d="M73 591 L99 591 C137 591 146 586 146 565 C146 559 144 548 140 530 L73 211 C67 185 64 157 64 135 C64 38 139 -20 264 -20 C422 -20 524 61 556 211 L624 530 C635 584 643 592 692 591 L718 591 L734 667 L456 667 L440 591 L473 591 C512 591 521 586 521 565 C521 558 519 546 516 530 L448 211 C437 160 424 134 400 114 C373 92 335 78 299 78 C244 78 205 108 205 150 C205 165 208 187 213 211 L281 530 C292 584 300 592 349 591 L384 591 L400 667 L89 667 L73 591 Z " />
<glyph glyph-name="V" unicode="V" horiz-adv-x="639" d="M179 0 L303 0 L592 526 C621 580 635 590 682 591 L700 591 L717 667 L431 667 L415 591 L455 591 C493 591 506 586 506 573 C506 563 497 539 487 520 L293 166 L256 512 C255 522 254 532 254 543 C254 579 267 591 309 591 L356 591 L372 667 L57 667 L41 591 L67 591 C106 590 119 575 123 528 L179 0 Z " />
<glyph glyph-name="W" unicode="W" horiz-adv-x="876" d="M149 0 L263 0 L447 357 L465 0 L584 0 L832 524 C853 570 877 592 906 591 L926 591 L942 667 L697 667 L680 591 L710 591 C738 591 755 583 755 570 C755 560 747 536 735 511 L573 173 L550 537 L549 549 C547 578 562 591 598 591 L631 591 L648 667 L385 667 L368 591 L390 591 C427 590 440 571 440 517 L440 507 L260 163 L247 539 C247 578 256 589 292 591 L320 591 L336 667 L80 667 L64 591 L79 591 C120 588 127 575 130 502 L149 0 Z " />
<glyph glyph-name="X" unicode="X" horiz-adv-x="706" d="M258 76 L216 76 C187 76 179 80 179 92 C179 106 191 124 218 152 L327 261 L395 124 C398 117 400 111 400 103 C400 82 389 76 354 76 L313 76 L297 0 L640 0 L656 76 L630 76 C579 75 571 81 537 146 L430 357 L597 517 C660 579 677 590 707 591 L740 591 L756 667 L474 667 L458 591 L492 591 C515 591 529 585 529 576 C529 569 521 557 508 545 L389 435 L333 540 C327 551 324 560 324 566 C324 583 334 591 355 591 L396 591 L412 667 L95 667 L79 591 L109 591 C151 588 164 580 186 537 L285 341 L68 124 C20 80 16 77 -25 76 L-55 76 L-71 0 L241 0 L258 76 Z " />
<glyph glyph-name="Y" unicode="Y" horiz-adv-x="657" d="M448 76 L399 76 C360 76 351 81 351 102 C351 108 353 119 357 137 L387 279 L615 547 C647 583 660 590 694 591 L715 591 L731 667 L453 667 L437 591 L494 591 C512 591 520 587 520 577 C520 568 514 555 503 543 L358 381 L285 538 C282 545 280 552 280 561 C280 583 291 591 323 591 L373 591 L389 667 L71 667 L55 591 L85 591 C120 589 135 575 157 523 L247 279 L216 137 C205 83 197 76 148 76 L99 76 L83 0 L432 0 L448 76 Z " />
<glyph glyph-name="Z" unicode="Z" horiz-adv-x="590" d="M-35 0 L471 0 L536 302 L467 302 C410 105 379 75 228 76 L133 76 L595 581 L613 667 L125 667 L66 387 L134 387 C173 554 216 595 347 591 L449 591 L-18 80 L-35 0 Z " />
<glyph glyph-name="bracketleft" unicode="&#x5b;" horiz-adv-x="344" d="M-27 -172 L196 -172 L211 -105 L115 -105 L265 600 L361 600 L375 667 L151 667 L-27 -172 Z " />
<glyph glyph-name="backslash" unicode="&#x5c;" horiz-adv-x="332" d="M166 -92 L232 -92 L177 686 L111 686 L166 -92 Z " />
<glyph glyph-name="bracketright" unicode="&#x5d;" horiz-adv-x="344" d="M156 -172 L335 667 L111 667 L97 600 L192 600 L42 -105 L-53 -105 L-67 -172 L156 -172 Z " />
<glyph glyph-name="asciicircum" unicode="&#x5e;" horiz-adv-x="450" d="M123 360 L279 588 L338 360 L436 360 L358 670 L235 670 L25 360 L123 360 Z " />
<glyph glyph-name="underscore" unicode="&#x5f;" horiz-adv-x="500" d="M-84 -63 L-100 -137 L400 -137 L416 -63 L-84 -63 Z " />
<glyph glyph-name="grave" unicode="&#x60;" horiz-adv-x="476" d="M365 540 L261 683 C235 719 219 730 196 730 C161 730 130 700 130 667 C130 648 142 634 169 619 L311 540 L365 540 Z " />
<glyph glyph-name="a" unicode="a" horiz-adv-x="510" d="M421 175 C404 92 392 65 372 65 C362 65 356 71 356 81 C356 88 357 94 358 100 L402 308 C409 341 414 373 414 387 C414 451 358 486 255 486 C139 486 51 423 51 342 C51 307 72 285 105 285 C147 285 181 320 181 363 C181 390 168 401 134 403 C163 424 186 432 221 432 C271 432 298 413 298 377 C298 357 292 336 283 321 C269 298 248 286 203 273 C108 248 75 235 44 212 C2 180 -24 130 -24 79 C-24 18 13 -18 76 -18 C139 -18 178 1 232 57 C239 3 262 -17 317 -17 C368 -17 406 4 432 47 C448 72 456 97 474 175 L421 175 Z M257 188 C241 111 201 65 151 65 C126 65 114 78 114 104 C114 144 141 182 184 202 L228 222 C235 226 249 234 269 245 L257 188 Z " />
<glyph glyph-name="b" unicode="b" horiz-adv-x="532" d="M109 60 C146 4 183 -17 246 -17 C316 -17 372 16 422 87 C465 148 493 245 493 333 C493 426 439 486 354 486 C290 486 248 462 195 395 L252 667 L70 667 L56 600 L73 600 C100 600 111 593 111 576 C111 568 109 557 106 541 L-10 -5 L55 -5 L109 60 Z M292 400 C333 400 356 369 356 315 C356 264 336 179 315 138 C291 91 258 66 222 66 C178 66 151 101 151 158 C151 206 170 285 190 324 C216 373 253 400 292 400 L292 400 Z " />
<glyph glyph-name="c" unicode="c" horiz-adv-x="460" d="M334 195 C303 107 269 72 212 72 C160 72 133 103 133 163 C133 207 146 268 167 316 C195 384 240 421 294 421 C323 421 338 413 364 385 C338 380 327 374 315 358 C303 343 297 324 297 307 C297 276 317 257 350 257 C400 257 441 307 441 369 C441 440 383 486 293 486 C130 486 -2 340 -2 160 C-2 48 61 -17 170 -17 C234 -17 290 6 330 48 C363 84 381 119 403 195 L334 195 Z " />
<glyph glyph-name="d" unicode="d" horiz-adv-x="559" d="M309 600 L351 600 C385 600 400 592 400 573 C400 567 398 555 395 541 L363 391 C343 461 312 486 245 486 C174 486 115 452 70 386 C28 324 0 224 0 138 C0 43 51 -14 138 -14 C206 -14 246 10 298 82 L280 0 L471 0 L485 67 L462 67 C434 67 422 74 422 91 C422 99 424 113 427 126 L542 667 L323 667 L309 600 Z M269 400 C313 400 339 366 339 309 C339 260 320 181 300 142 C274 93 238 66 200 66 C159 66 136 96 136 151 C136 201 156 287 177 328 C201 375 233 400 269 400 L269 400 Z " />
<glyph glyph-name="e" unicode="e" horiz-adv-x="478" d="M337 167 C301 88 268 62 204 62 C149 62 119 95 119 156 C119 171 122 199 126 225 L427 225 C434 266 439 308 439 334 C439 429 381 486 282 486 C207 486 141 456 88 398 C32 337 -2 248 -2 164 C-2 49 62 -18 172 -18 C226 -18 276 -2 319 30 C363 62 385 95 412 167 L337 167 Z M144 295 C178 383 215 420 267 420 C306 420 327 396 327 352 C327 335 326 316 323 295 L144 295 Z " />
<glyph glyph-name="f" unicode="f" horiz-adv-x="335" d="M117 398 L59 126 C49 76 41 69 -8 67 L-34 67 L-48 0 L231 0 L246 67 L206 67 C175 67 162 75 162 93 C162 100 164 111 167 126 L225 398 L316 398 L331 467 L239 467 L254 535 C269 608 290 633 334 633 C350 633 358 630 368 619 C336 608 317 583 317 550 C317 523 335 506 364 506 C406 506 442 550 442 602 C442 652 399 684 333 684 C229 684 164 618 135 483 L132 467 L51 467 L37 398 L117 398 Z " />
<glyph glyph-name="g" unicode="g" horiz-adv-x="594" d="M142 81 C110 81 101 87 101 107 C101 121 106 131 121 149 C164 136 183 132 215 132 C287 132 349 155 389 196 C429 236 454 295 454 348 C454 363 452 377 445 403 C472 432 492 444 513 444 C524 444 530 441 540 431 C502 419 484 396 484 361 C484 335 503 316 530 316 C572 316 607 360 607 413 C607 460 578 486 528 486 C493 486 469 475 431 441 C389 474 353 486 293 486 C157 486 52 392 52 270 C52 234 60 213 88 175 C18 146 -15 108 -15 56 C-15 21 0 2 41 -13 C-3 -28 -22 -37 -38 -55 C-53 -71 -62 -94 -62 -117 C-62 -179 11 -214 139 -214 C237 -214 324 -192 367 -156 C409 -122 435 -72 435 -24 C435 4 427 27 411 44 C387 71 348 81 264 81 L142 81 Z M277 428 C310 428 326 409 326 369 C326 336 313 278 300 248 C284 213 260 195 228 195 C196 195 181 213 181 253 C181 280 189 324 201 358 C217 404 243 428 277 428 L277 428 Z M185 -25 C292 -25 324 -36 324 -73 C324 -127 259 -157 144 -157 C48 -157 2 -138 2 -100 C2 -80 16 -58 37 -45 C59 -31 104 -25 185 -25 L185 -25 Z " />
<glyph glyph-name="h" unicode="h" horiz-adv-x="581" d="M80 600 L101 600 C128 600 140 593 140 576 C140 567 138 554 136 541 L47 126 C37 76 30 69 -12 67 L-34 67 L-48 0 L204 0 L218 67 L202 67 C174 67 162 74 162 91 C162 99 164 111 167 126 L192 243 C204 300 216 330 240 358 C267 389 299 407 330 407 C358 407 378 388 378 361 C378 353 375 333 370 311 L331 126 C320 76 313 69 271 67 L255 67 L241 0 L494 0 L508 67 L485 67 C458 67 446 74 446 91 C446 100 448 113 450 126 L490 311 C496 343 501 376 501 394 C501 448 459 484 396 484 C338 484 294 460 222 387 L282 667 L94 667 L80 600 Z " />
<glyph glyph-name="i" unicode="i" horiz-adv-x="313" d="M228 675 C179 675 135 634 135 588 C135 552 159 527 193 527 C241 527 285 570 285 616 C285 650 261 675 228 675 L228 675 Z M-48 0 L223 0 L237 67 L213 67 C185 67 173 74 173 92 C173 99 175 111 178 126 L251 469 L52 469 L38 402 L70 402 C100 402 113 395 113 377 C113 368 111 355 109 343 L63 126 C52 76 44 69 -2 67 L-34 67 L-48 0 Z " />
<glyph glyph-name="j" unicode="j" horiz-adv-x="296" d="M13 402 L52 402 C87 402 101 394 101 375 C101 367 99 355 97 343 L12 -58 C1 -106 -4 -120 -16 -138 C-28 -153 -49 -165 -66 -165 C-76 -165 -91 -161 -108 -154 C-63 -145 -43 -123 -43 -82 C-43 -58 -57 -43 -82 -43 C-121 -43 -155 -85 -155 -133 C-155 -181 -112 -214 -49 -214 C3 -214 54 -192 87 -156 C111 -129 125 -93 140 -26 L245 469 L27 469 L13 402 Z M225 675 C176 675 132 634 132 587 C132 552 156 527 191 527 C238 527 283 570 283 616 C283 650 259 675 225 675 L225 675 Z " />
<glyph glyph-name="k" unicode="k" horiz-adv-x="572" d="M191 241 L282 667 L94 667 L80 600 L103 600 C133 600 146 593 146 574 C146 567 144 553 142 541 L53 126 C43 76 35 69 -11 67 L-34 67 L-48 0 L196 0 L211 67 L201 67 C174 67 162 74 162 91 C162 99 164 111 167 126 L172 149 L266 223 L313 108 C316 100 318 91 318 85 C318 74 306 67 289 67 L259 67 L245 0 L503 0 L518 67 L497 67 C463 68 442 84 426 123 L356 289 L455 365 C495 395 505 400 540 402 L558 402 L573 469 L306 469 L292 402 L340 402 C364 402 369 400 369 391 C369 384 364 377 348 364 L191 241 Z " />
<glyph glyph-name="l" unicode="l" horiz-adv-x="304" d="M283 667 L89 667 L75 600 L102 600 C132 600 145 593 145 574 C145 566 143 553 141 541 L53 126 C42 76 34 69 -11 67 L-39 67 L-53 0 L214 0 L228 67 L203 67 C175 67 163 74 163 92 C163 99 165 110 168 126 L283 667 Z " />
<glyph glyph-name="m" unicode="m" horiz-adv-x="831" d="M238 469 L52 469 L38 402 L67 402 C97 402 110 394 110 376 C110 369 108 356 105 343 L59 126 C49 76 41 69 -5 67 L-34 67 L-48 0 L200 0 L214 67 L204 67 C173 67 160 74 160 93 C160 99 161 108 165 126 L197 277 C213 350 267 407 321 407 C350 407 367 391 367 363 C367 353 365 338 359 311 L320 126 C309 76 302 69 260 67 L251 67 L237 0 L466 0 L481 67 L471 67 C444 67 432 74 432 91 C432 98 434 109 437 126 L469 277 C485 350 538 407 589 407 C617 407 633 392 633 364 C633 353 630 335 625 311 L586 126 C575 76 568 69 527 67 L518 67 L503 0 L748 0 L762 67 L739 67 C711 67 699 74 699 91 C699 99 701 113 704 126 L743 311 C751 349 756 384 756 402 C756 450 714 484 657 484 C603 484 569 464 488 389 C477 459 451 484 389 484 C332 484 293 462 221 390 L238 469 Z " />
<glyph glyph-name="n" unicode="n" horiz-adv-x="585" d="M-48 0 L209 0 L224 67 L206 67 C175 67 162 74 162 93 C162 100 164 111 167 126 L193 247 C205 304 216 329 241 358 C268 389 301 407 333 407 C362 407 383 387 383 360 C383 350 380 331 376 311 L337 126 C326 76 319 69 277 67 L261 67 L247 0 L500 0 L514 67 L491 67 C463 67 451 74 451 91 C451 99 452 107 456 126 L496 311 C502 342 506 372 506 393 C506 448 463 484 398 484 C339 484 295 459 222 387 L240 469 L52 469 L38 402 L67 402 C97 402 110 394 110 376 C110 369 108 356 105 343 L59 126 C49 76 41 69 -5 67 L-34 67 L-48 0 Z " />
<glyph glyph-name="o" unicode="o" horiz-adv-x="527" d="M295 486 C129 486 -3 344 -3 166 C-3 52 70 -17 189 -17 C273 -17 344 15 402 77 C455 135 488 220 488 302 C488 417 416 486 295 486 L295 486 Z M281 416 C330 416 356 384 356 323 C356 266 335 177 311 130 C285 79 249 53 204 53 C154 53 129 84 129 146 C129 203 149 291 174 339 C200 390 236 416 281 416 L281 416 Z " />
<glyph glyph-name="p" unicode="p" horiz-adv-x="559" d="M28 402 L51 402 C81 402 94 395 94 377 C94 369 92 355 90 343 L-2 -88 C-13 -137 -20 -144 -66 -147 L-93 -147 L-107 -214 L170 -214 L184 -147 L145 -147 C114 -147 101 -139 101 -121 C101 -114 103 -101 106 -88 L141 78 C162 8 194 -17 262 -17 C334 -17 394 17 439 83 C482 145 510 243 510 330 C510 426 457 483 369 483 C300 483 259 459 207 387 L224 469 L42 469 L28 402 Z M308 403 C350 403 374 372 374 317 C374 266 354 182 333 141 C308 94 276 69 238 69 C192 69 165 104 165 162 C165 210 184 289 204 327 C231 376 268 403 308 403 L308 403 Z " />
<glyph glyph-name="q" unicode="q" horiz-adv-x="563" d="M451 -147 L423 -147 C392 -147 379 -139 379 -121 C379 -115 381 -105 384 -88 L476 343 C486 393 494 400 540 402 L563 402 L577 469 L395 469 L378 387 C357 458 325 483 256 483 C184 483 124 449 79 383 C36 321 8 222 8 136 C8 40 61 -17 149 -17 C219 -17 260 7 312 78 L277 -88 C266 -137 258 -145 212 -147 L173 -147 L158 -214 L437 -214 L451 -147 Z M282 403 C327 403 355 368 355 310 C355 261 336 184 315 145 C289 96 252 69 212 69 C169 69 145 100 145 155 C145 206 165 290 186 331 C211 378 244 403 282 403 L282 403 Z " />
<glyph glyph-name="r" unicode="r" horiz-adv-x="442" d="M250 67 L206 67 C175 67 162 75 162 93 C162 100 164 111 167 126 L194 253 C204 301 224 347 249 377 C274 408 308 429 332 429 C341 429 355 425 370 419 C323 403 300 376 300 337 C300 308 318 291 351 291 C401 291 443 341 443 399 C443 450 409 482 357 482 C308 482 272 459 225 399 L240 469 L52 469 L38 402 L67 402 C97 402 110 395 110 377 C110 369 108 357 105 343 L59 126 C49 77 41 70 -5 67 L-34 67 L-48 0 L236 0 L250 67 Z " />
<glyph glyph-name="s" unicode="s" horiz-adv-x="442" d="M-45 -6 L14 -6 L39 36 C91 -7 116 -17 171 -17 C236 -17 291 4 328 44 C359 78 378 126 378 169 C378 230 343 265 256 289 L180 310 C162 315 150 330 150 346 C150 386 182 415 227 415 C255 415 285 402 301 383 C317 365 324 345 327 302 L387 302 L424 475 L373 475 L346 439 C308 473 276 486 228 486 C117 486 29 407 29 308 C29 252 65 215 139 194 L202 177 C234 168 253 150 253 128 C253 86 216 55 167 55 C141 55 119 61 102 74 C73 96 62 126 61 186 L-4 186 L-45 -6 Z " />
<glyph glyph-name="t" unicode="t" horiz-adv-x="362" d="M92 400 L38 147 C32 117 28 93 27 73 C26 53 32 31 43 15 C57 -6 83 -17 119 -17 C171 -17 214 5 241 46 C266 84 280 124 299 221 L241 221 C213 95 203 75 173 75 C157 75 149 83 149 98 C149 104 150 112 155 133 L211 400 L324 400 L338 469 L222 469 L261 653 L204 653 C167 526 132 486 42 465 L28 400 L92 400 Z " />
<glyph glyph-name="u" unicode="u" horiz-adv-x="581" d="M37 402 L60 402 C95 402 109 394 109 375 C109 368 108 358 104 343 L65 158 C58 126 54 93 54 73 C54 20 92 -15 151 -15 C206 -15 247 9 315 82 L297 0 L489 0 L504 67 L481 67 C452 67 439 74 439 92 C439 100 441 111 444 126 L517 469 L294 469 L280 402 L326 402 C360 402 375 394 375 375 C375 368 374 358 370 343 L344 221 C333 167 321 139 300 111 C275 79 246 62 219 62 C194 62 177 80 177 108 C177 118 179 133 185 158 L251 469 L51 469 L37 402 Z " />
<glyph glyph-name="v" unicode="v" horiz-adv-x="496" d="M116 0 L230 0 L411 342 C433 383 451 399 478 402 L501 402 L515 469 L307 469 L292 402 L314 402 C337 402 349 396 349 384 C349 374 344 359 336 344 L216 118 L196 335 C195 340 195 345 195 353 C195 391 205 402 237 402 L251 402 L266 469 L33 469 L19 402 L45 402 C69 400 80 385 82 352 L116 0 Z " />
<glyph glyph-name="w" unicode="w" horiz-adv-x="737" d="M111 0 L218 0 L355 262 L375 0 L480 0 L653 337 C681 389 693 402 717 402 L736 402 L750 469 L564 469 L550 402 L572 402 C587 402 597 395 597 385 C597 374 591 357 576 328 L462 103 L443 348 L443 359 C443 391 452 402 477 402 L504 402 L518 469 L302 469 L288 402 L305 402 C331 402 340 397 340 382 C340 372 336 361 326 342 L201 109 L189 338 C188 348 188 356 188 357 C188 392 196 402 224 402 L245 402 L260 469 L38 469 L24 402 L43 402 C73 400 80 391 83 344 L111 0 Z " />
<glyph glyph-name="x" unicode="x" horiz-adv-x="577" d="M-66 0 L175 0 L189 67 L155 67 C141 67 132 72 132 79 C132 85 136 89 153 104 L243 178 L292 105 C297 97 300 90 300 84 C300 73 287 67 263 67 L244 67 L230 0 L495 0 L510 67 L491 67 C464 67 449 78 419 120 L332 252 L452 352 C494 388 513 398 549 402 L567 402 L581 469 L355 469 L341 402 L360 402 C377 402 386 398 386 390 C386 383 379 374 361 359 L294 303 L256 365 C250 375 248 380 248 385 C248 396 258 402 276 402 L295 402 L309 469 L51 469 L37 402 L55 402 C89 399 104 390 126 355 L205 231 L54 107 C22 81 -10 66 -30 67 L-52 67 L-66 0 Z " />
<glyph glyph-name="y" unicode="y" horiz-adv-x="523" d="M158 0 C91 -115 56 -149 8 -149 C-11 -149 -19 -144 -32 -125 C-1 -125 13 -119 28 -103 C41 -89 48 -69 48 -50 C48 -19 29 0 -2 0 C-53 0 -97 -53 -97 -116 C-97 -176 -57 -214 5 -214 C92 -214 147 -158 270 56 L428 331 C462 385 478 400 509 402 L529 402 L543 469 L328 469 L313 402 L337 402 C361 402 373 397 373 385 C373 376 368 362 359 347 L242 140 L205 356 C204 360 204 360 204 368 C204 392 216 402 240 402 L271 402 L285 469 L27 469 L12 402 L39 402 C72 400 84 387 93 342 L158 0 Z " />
<glyph glyph-name="z" unicode="z" horiz-adv-x="451" d="M-53 0 L343 0 L390 224 L327 224 C291 85 272 66 167 67 L89 67 L426 394 L442 469 L65 469 L21 262 L84 262 C112 377 134 402 211 402 L305 402 L-38 73 L-53 0 Z " />
<glyph glyph-name="braceleft" unicode="&#x7b;" horiz-adv-x="344" d="M250 522 C262 577 264 582 280 594 C294 605 305 607 345 607 C348 607 357 607 366 606 L379 669 C338 671 326 671 312 671 C191 671 146 637 123 529 L87 358 C74 303 59 282 25 272 L12 212 C32 206 43 191 43 168 C43 157 41 144 37 122 L2 -41 C-3 -63 -5 -82 -5 -100 C-5 -134 8 -158 33 -172 C52 -183 77 -187 127 -187 C148 -187 167 -187 198 -185 L211 -122 C202 -123 193 -123 190 -123 C138 -123 122 -115 122 -89 C122 -80 122 -78 131 -37 L164 119 C168 140 170 153 170 168 C170 202 160 220 130 242 C181 269 199 295 216 365 L250 522 Z " />
<glyph glyph-name="bar" unicode="&#x7c;" horiz-adv-x="462" d="M241 667 L64 -167 L186 -167 L363 667 L241 667 Z " />
<glyph glyph-name="braceright" unicode="&#x7d;" horiz-adv-x="344" d="M56 -39 C44 -92 41 -98 26 -110 C12 -121 0 -123 -39 -123 C-42 -123 -51 -123 -61 -122 L-74 -185 C-32 -187 -20 -187 -6 -187 C114 -187 159 -153 182 -45 L219 126 C231 181 246 202 281 211 L294 272 C274 278 263 293 263 315 C263 326 265 346 269 362 L304 525 C307 544 310 567 310 584 C310 618 298 642 272 656 C253 667 229 671 179 671 C155 671 137 670 108 669 L94 606 C103 607 112 607 115 607 C168 607 183 599 183 573 C183 564 183 562 175 521 L142 365 C138 349 136 331 136 316 C136 282 146 263 176 242 C124 215 106 189 89 119 L56 -39 Z " />
<glyph glyph-name="asciitilde" unicode="&#x7e;" horiz-adv-x="648" d="M193 564 C233 614 255 630 286 630 C306 630 320 625 372 600 C432 570 447 565 471 565 C532 565 582 602 641 693 L591 743 C555 695 528 676 498 676 C477 676 467 680 417 705 C365 732 340 740 313 740 C253 740 198 700 143 613 L193 564 Z " />
<glyph glyph-name="uni00A0" unicode="&#xa0;" horiz-adv-x="250" d="" />
<glyph glyph-name="exclamdown" unicode="&#xa1;" horiz-adv-x="277" d="M171 484 C129 484 88 440 88 393 C88 360 109 336 138 336 C183 336 224 379 224 425 C224 461 203 484 171 484 L171 484 Z M100 277 C69 170 57 129 11 -9 C-31 -137 -33 -145 -33 -171 C-33 -205 -17 -220 20 -220 C57 -220 82 -203 96 -166 C105 -143 106 -138 120 -9 C137 152 139 167 155 277 L100 277 Z " />
<glyph glyph-name="cent" unicode="&#xa2;" horiz-adv-x="559" d="M38 -99 L91 -99 L161 5 C183 2 206 0 217 0 C278 0 337 26 378 71 C409 105 425 138 448 212 L378 212 C362 169 353 151 337 131 C315 106 284 90 254 90 C244 90 233 91 219 93 L353 290 C368 277 376 274 392 274 C442 274 485 325 485 386 C485 407 480 423 463 453 L542 569 L489 569 L430 482 C391 500 374 504 338 504 C174 504 42 358 42 177 C42 103 59 69 119 21 L38 -99 Z M183 116 C176 138 174 149 174 163 C174 210 190 285 210 333 C239 401 284 438 337 438 C366 438 382 430 407 402 C382 396 378 394 359 375 L183 116 Z " />
<glyph glyph-name="sterling" unicode="&#xa3;" horiz-adv-x="559" d="M-1 -14 C53 31 86 46 127 46 C154 46 180 38 219 16 C269 -11 288 -18 316 -18 C365 -18 409 8 440 55 C463 91 475 123 489 195 L440 195 C428 151 422 136 410 120 C400 106 383 97 367 97 C354 97 349 100 307 123 C278 139 246 148 221 148 C202 148 182 142 138 122 L136 129 C190 162 228 212 243 270 L350 270 L362 329 L249 329 C248 390 248 390 248 398 C248 443 251 466 261 487 C281 531 322 559 369 559 C405 559 423 549 450 515 C407 496 389 473 389 438 C389 407 411 386 443 386 C496 386 540 436 540 497 C540 570 464 621 356 621 C211 621 101 532 101 415 C101 393 104 372 114 329 L42 329 L30 270 L118 270 C100 172 72 130 -17 66 L-1 -14 Z " />
<glyph glyph-name="currency" unicode="&#xa4;" horiz-adv-x="600" d="M-14 133 L28 72 L139 172 C178 139 212 125 256 125 C302 125 346 140 394 172 L463 72 L531 133 L462 234 C513 297 538 358 538 423 C538 453 533 477 519 512 L630 612 L588 673 L477 573 C441 605 407 618 361 618 C315 618 275 605 224 572 L155 673 L87 612 L157 511 C105 448 80 387 80 320 C80 288 85 263 97 233 L-14 133 Z M341 518 C395 518 434 472 434 408 C434 314 357 225 277 225 C223 225 184 271 184 335 C184 429 261 518 341 518 L341 518 Z " />
<glyph glyph-name="yen" unicode="&#xa5;" horiz-adv-x="651" d="M234 203 L217 125 C207 75 200 69 155 69 L111 69 L96 0 L413 0 L427 69 L383 69 C348 69 340 73 340 92 C340 99 342 112 345 125 L361 203 L513 203 L525 261 L378 261 L425 316 L543 316 L555 374 L473 374 L579 496 C609 529 620 535 651 536 L669 536 L684 605 L432 605 L417 536 L469 536 C486 536 493 532 493 523 C493 515 487 504 477 492 L346 345 L279 487 C276 494 275 501 275 509 C275 529 285 536 314 536 L359 536 L374 605 L86 605 L71 536 L98 536 C130 535 144 521 163 474 L201 374 L113 374 L100 316 L222 316 L242 261 L95 261 L82 203 L234 203 Z " />
<glyph glyph-name="brokenbar" unicode="&#xa6;" horiz-adv-x="462" d="M241 667 L168 322 L290 322 L363 667 L241 667 Z M132 153 L64 -167 L186 -167 L254 153 L132 153 Z " />
<glyph glyph-name="section" unicode="&#xa7;" horiz-adv-x="532" d="M275 458 C238 475 215 500 215 522 C215 588 267 634 341 634 C367 634 382 630 413 616 C383 594 369 572 369 547 C369 518 389 498 418 498 C459 498 497 542 497 591 C497 649 438 687 350 687 C280 687 218 665 176 625 C138 589 115 540 115 497 C115 458 128 434 166 396 C116 375 93 360 68 333 C36 299 18 255 18 211 C18 148 49 116 152 72 L218 44 C258 27 279 3 279 -27 C279 -102 217 -157 133 -157 C104 -157 87 -151 53 -130 C76 -119 85 -113 92 -104 C102 -92 110 -69 110 -52 C110 -26 88 -6 59 -6 C15 -6 -26 -53 -26 -103 C-26 -167 42 -214 135 -214 C271 -214 385 -114 385 5 C385 44 371 68 327 104 C380 130 402 144 425 169 C456 202 474 244 474 283 C474 339 441 383 376 412 L275 458 Z M157 196 C134 207 119 229 119 250 C119 274 127 298 140 315 C160 342 181 353 221 360 L325 313 C355 300 371 276 371 247 C371 226 365 205 354 188 C336 162 315 149 272 139 L157 196 Z " />
<glyph glyph-name="dieresis" unicode="&#xa8;" horiz-adv-x="464" d="M227 699 C182 699 139 659 139 617 C139 582 162 560 197 560 C240 560 280 600 280 643 C280 675 258 699 227 699 L227 699 Z M397 699 C352 699 309 659 309 617 C309 582 332 560 367 560 C410 560 450 600 450 643 C450 675 428 699 397 699 L397 699 Z " />
<glyph glyph-name="copyright" unicode="&#xa9;" horiz-adv-x="712" d="M449 294 C421 221 389 190 342 190 C298 190 271 221 271 271 C271 317 287 379 308 415 C332 458 366 482 403 482 C445 482 470 452 470 402 C470 393 470 382 469 370 L513 370 L547 529 L506 529 L489 497 C456 526 437 534 399 534 C283 534 177 413 177 281 C177 190 231 132 316 132 C366 132 406 149 440 184 C466 212 479 236 498 294 L449 294 Z M434 681 C223 681 24 476 24 257 C24 100 131 -14 280 -14 C490 -14 688 191 688 410 C688 568 582 681 434 681 L434 681 Z M421 625 C538 625 622 531 622 401 C622 217 462 42 292 42 C175 42 90 136 90 266 C90 451 251 625 421 625 L421 625 Z " />
<glyph glyph-name="ordfeminine" unicode="&#xaa;" horiz-adv-x="327" d="M309 438 C299 389 292 373 282 373 C277 373 274 376 274 381 C274 385 274 387 275 390 L301 513 C305 533 308 551 308 560 C308 600 271 622 204 622 C129 622 73 584 73 533 C73 510 87 496 110 496 C138 496 161 518 161 546 C161 562 154 569 137 572 C150 580 164 584 182 584 C212 584 228 573 228 553 C228 522 213 507 172 497 C114 482 91 473 72 460 C45 440 28 409 28 378 C28 340 53 317 94 317 C133 317 158 328 190 359 C196 329 211 318 246 318 C280 318 305 331 322 358 C332 374 337 390 348 438 L309 438 Z M204 443 C194 398 172 373 143 373 C129 373 122 380 122 394 C122 416 137 436 162 447 L189 459 C192 461 200 465 210 471 L204 443 Z " />
<glyph glyph-name="guillemotleft" unicode="&#xab;" horiz-adv-x="434" d="M151 403 L104 346 C55 288 32 249 32 225 C32 206 43 163 57 129 L81 72 L145 72 L134 139 C132 151 131 164 131 175 C131 231 147 286 176 336 L216 403 L151 403 Z M326 403 L278 346 C229 287 206 249 206 225 C206 206 217 164 232 129 L255 72 L320 72 L308 139 C307 149 306 160 306 175 C306 231 322 288 350 336 L390 403 L326 403 Z " />
<glyph glyph-name="logicalnot" unicode="&#xac;" horiz-adv-x="450" d="M231 0 L349 0 L410 286 L20 286 L-3 179 L269 179 L231 0 Z " />
<glyph glyph-name="uni00AD" unicode="&#xad;" horiz-adv-x="242" d="M-32 184 L210 184 L233 290 L-9 290 L-32 184 Z " />
<glyph glyph-name="registered" unicode="&#xae;" horiz-adv-x="712" d="M338 192 L313 192 C292 192 288 194 288 204 C288 207 288 207 291 223 L312 320 L331 320 C377 320 393 309 393 281 C393 269 392 259 390 247 L382 204 C381 199 381 194 381 187 C381 150 399 132 437 132 C468 132 494 146 509 172 C521 192 526 208 535 256 L497 256 C486 204 482 193 472 193 C465 193 463 195 463 203 C463 211 463 215 464 222 L470 255 C472 269 473 281 473 289 C473 312 459 328 432 336 C498 350 538 393 538 452 C538 501 504 523 427 523 L219 523 L209 474 L230 474 C251 474 255 472 255 462 C255 459 255 459 252 443 L205 223 C199 195 196 192 170 192 L149 192 L139 143 L328 143 L338 192 Z M322 369 L345 474 L396 474 C434 474 446 466 446 439 C446 394 421 369 375 369 L322 369 Z M434 681 C223 681 24 476 24 257 C24 100 131 -14 280 -14 C490 -14 688 191 688 410 C688 568 582 681 434 681 L434 681 Z M421 625 C538 625 622 531 622 401 C622 217 462 42 292 42 C175 42 90 136 90 266 C90 451 251 625 421 625 L421 625 Z " />
<glyph glyph-name="macron" unicode="&#xaf;" horiz-adv-x="480" d="M145 588 L443 588 L460 670 L162 670 L145 588 Z " />
<glyph glyph-name="degree" unicode="&#xb0;" horiz-adv-x="400" d="M203 686 C117 686 50 619 50 534 C50 448 116 381 200 381 C284 381 350 448 350 533 C350 619 286 686 203 686 L203 686 Z M202 629 C252 629 293 586 293 534 C293 480 252 438 200 438 C148 438 106 481 106 533 C106 587 148 629 202 629 L202 629 Z " />
<glyph glyph-name="plusminus" unicode="&#xb1;" horiz-adv-x="549" d="M11 55 L11 0 L535 0 L535 55 L11 55 Z M302 662 L247 662 L247 423 L10 423 L10 368 L247 368 L247 129 L302 129 L302 368 L539 368 L539 423 L302 423 L302 662 Z " />
<glyph glyph-name="twosuperior" unicode="&#xb2;" horiz-adv-x="353" d="M45 264 C55 292 65 302 84 302 C94 302 105 299 114 294 C167 263 185 257 216 257 C243 257 269 270 290 295 C309 318 318 339 329 388 L297 388 C288 361 285 353 279 345 C270 333 254 325 238 325 C231 325 223 326 195 332 C167 338 132 343 121 343 C107 343 96 340 74 328 C104 369 135 385 213 401 C264 412 289 422 310 442 C333 464 347 496 347 527 C347 581 300 615 226 615 C146 615 71 559 71 499 C71 472 87 455 114 455 C145 455 170 479 170 509 C170 524 157 536 140 536 C134 536 127 535 118 533 C140 564 162 576 193 576 C230 576 253 556 253 526 C253 486 230 459 178 437 C66 391 28 351 12 264 L45 264 Z " />
<glyph glyph-name="threesuperior" unicode="&#xb3;" horiz-adv-x="353" d="M158 427 C215 427 231 416 231 377 C231 330 192 296 137 296 C108 296 92 303 73 322 C108 323 130 342 130 372 C130 393 117 405 93 405 C58 405 29 374 29 337 C29 288 75 257 146 257 C250 257 326 308 326 378 C326 417 305 436 248 449 C289 458 306 466 322 480 C340 497 351 520 351 542 C351 588 308 615 235 615 C152 615 79 570 79 518 C79 495 93 482 118 482 C146 482 171 505 171 530 C171 547 163 555 143 558 C170 575 184 579 206 579 C239 579 260 562 260 535 C260 514 249 493 232 481 C218 472 204 469 167 468 L158 427 Z " />
<glyph glyph-name="acute" unicode="&#xb4;" horiz-adv-x="476" d="M178 540 L233 540 L408 619 C453 639 472 659 472 688 C472 713 455 730 429 730 C405 730 384 719 343 683 L178 540 Z " />
<glyph glyph-name="mu" unicode="&#xb5;" horiz-adv-x="576" d="M442 500 L353 500 L354 131 C318 80 284 58 242 58 C184 58 150 99 150 169 L150 500 L62 500 L62 20 C62 -1 58 -26 51 -56 C34 -118 33 -123 33 -147 C33 -190 54 -219 83 -219 C112 -219 132 -189 132 -145 C132 -124 129 -110 113 -53 C102 -17 101 -8 101 21 L101 33 C143 -3 165 -13 200 -13 C250 -13 301 18 354 80 C362 48 367 36 377 21 C392 0 419 -13 449 -13 C510 -13 553 31 567 108 L540 109 C536 71 515 41 492 41 C462 41 442 77 442 131 L442 500 Z " />
<glyph glyph-name="paragraph" unicode="&#xb6;" horiz-adv-x="542" d="M107 -94 L202 -94 L346 581 L415 581 L272 -94 L367 -94 L510 581 L566 581 L585 667 L304 667 C227 667 169 649 129 613 C84 574 55 507 55 445 C55 367 104 319 184 319 C185 319 190 319 195 320 L107 -94 Z " />
<glyph glyph-name="periodcentered" unicode="&#xb7;" horiz-adv-x="277" d="M135 308 C90 308 49 266 49 219 C49 184 70 161 102 161 C144 161 185 205 185 251 C185 284 164 308 135 308 L135 308 Z " />
<glyph glyph-name="cedilla" unicode="&#xb8;" horiz-adv-x="449" d="M-5 -181 C50 -214 88 -227 130 -227 C197 -227 249 -178 249 -114 C249 -77 227 -53 193 -53 C181 -53 170 -54 157 -56 L168 0 L126 0 L105 -99 C115 -97 125 -95 130 -95 C148 -95 159 -105 159 -121 C159 -151 141 -171 114 -171 C85 -171 55 -158 26 -132 L-5 -181 Z " />
<glyph glyph-name="onesuperior" unicode="&#xb9;" horiz-adv-x="353" d="M66 267 L278 267 L286 307 L259 307 C234 307 225 310 226 321 C226 325 227 331 229 339 L287 609 L238 609 C208 570 191 563 128 557 L119 518 L189 518 L151 340 C144 311 138 307 99 307 L74 307 L66 267 Z " />
<glyph glyph-name="ordmasculine" unicode="&#xba;" horiz-adv-x="338" d="M232 621 C124 621 41 538 41 430 C41 361 89 318 166 318 C273 318 356 402 356 508 C356 578 309 621 232 621 L232 621 Z M221 573 C251 573 266 555 266 519 C266 486 254 436 240 409 C224 381 203 366 177 366 C146 366 131 384 131 419 C131 453 143 503 157 530 C173 558 194 573 221 573 L221 573 Z " />
<glyph glyph-name="guillemotright" unicode="&#xbb;" horiz-adv-x="434" d="M63 72 L110 129 C159 187 182 227 182 250 C182 268 170 311 156 346 L133 403 L68 403 L80 336 C81 326 82 316 82 300 C82 244 66 187 38 139 L-2 72 L63 72 Z M237 72 L284 129 C335 189 357 226 357 250 C357 268 346 308 331 346 L307 403 L243 403 L254 336 C256 324 257 312 257 300 C257 244 241 188 212 139 L172 72 L237 72 Z " />
<glyph glyph-name="onequarter" unicode="&#xbc;" horiz-adv-x="854" d="M66 267 L278 267 L286 307 L259 307 C234 307 225 310 226 321 C226 325 227 331 229 339 L287 609 L238 609 C208 570 191 563 128 557 L119 518 L189 518 L151 340 C144 311 138 307 99 307 L74 307 L66 267 Z M131 -17 L199 -17 L714 622 L643 622 L131 -17 Z M556 0 L755 0 L764 40 L732 40 C713 40 702 46 702 56 C702 58 703 65 704 70 L709 94 L775 94 L785 142 L719 142 L762 342 L707 342 L476 136 L467 94 L638 94 L633 70 C628 43 623 40 584 40 L564 40 L556 0 Z M648 142 L539 142 L676 264 L648 142 Z " />
<glyph glyph-name="onehalf" unicode="&#xbd;" horiz-adv-x="854" d="M66 267 L278 267 L286 307 L259 307 C234 307 225 310 226 321 C226 325 227 331 229 339 L287 609 L238 609 C208 570 191 563 128 557 L119 518 L189 518 L151 340 C144 311 138 307 99 307 L74 307 L66 267 Z M131 -17 L199 -17 L714 622 L643 622 L131 -17 Z M488 -2 C498 26 508 35 528 35 C538 35 549 32 558 27 C611 -4 629 -10 659 -10 C687 -10 713 3 733 28 C753 51 762 73 773 121 L741 121 C732 94 728 87 722 78 C714 66 698 58 682 58 C674 58 667 59 638 66 C612 71 576 77 565 77 C551 77 539 73 517 62 C547 102 579 118 657 134 C707 145 733 156 754 175 C777 197 791 229 791 260 C791 314 744 348 670 348 C589 348 515 292 515 232 C515 205 532 188 558 188 C588 188 613 213 613 242 C613 258 600 270 583 270 C578 270 570 269 562 266 C584 297 606 309 637 309 C674 309 697 289 697 258 C697 219 674 192 622 170 C509 124 471 84 456 -2 L488 -2 Z " />
<glyph glyph-name="threequarters" unicode="&#xbe;" horiz-adv-x="854" d="M158 427 C215 427 231 416 231 377 C231 330 192 296 137 296 C108 296 92 303 73 322 C108 323 130 342 130 372 C130 393 117 405 93 405 C58 405 29 374 29 337 C29 288 75 257 146 257 C250 257 326 308 326 378 C326 417 305 436 248 449 C289 458 306 466 322 480 C340 497 351 520 351 542 C351 588 308 615 235 615 C152 615 79 570 79 518 C79 495 93 482 118 482 C146 482 171 505 171 530 C171 547 163 555 143 558 C170 575 184 579 206 579 C239 579 260 562 260 535 C260 514 249 493 232 481 C218 472 204 469 167 468 L158 427 Z M131 -17 L199 -17 L714 622 L643 622 L131 -17 Z M556 0 L756 0 L764 40 L732 40 C714 40 703 46 703 56 C703 60 703 65 705 70 L710 94 L776 94 L786 142 L720 142 L762 342 L708 342 L477 136 L468 94 L639 94 L634 70 C628 43 624 40 585 40 L565 40 L556 0 Z M649 142 L539 142 L677 264 L649 142 Z " />
<glyph glyph-name="questiondown" unicode="&#xbf;" horiz-adv-x="447" d="M279 483 C237 483 196 439 196 393 C196 360 217 336 246 336 C291 336 332 378 332 425 C332 460 311 483 279 483 L279 483 Z M206 277 C191 220 175 196 120 157 C23 90 11 82 -14 53 C-48 15 -65 -28 -65 -75 C-65 -163 2 -220 106 -220 C183 -220 249 -191 297 -137 C332 -98 353 -46 353 1 C353 52 325 87 284 87 C236 87 191 42 191 -6 C191 -36 208 -55 236 -55 C253 -55 266 -49 291 -31 C277 -77 266 -95 241 -116 C218 -136 190 -147 163 -147 C112 -147 79 -115 79 -66 C79 -14 95 14 161 83 C235 161 247 185 263 277 L206 277 Z " />
<glyph glyph-name="Agrave" unicode="&#xc0;" horiz-adv-x="644" d="M-84 0 L195 0 L211 76 L165 76 C129 76 121 79 121 92 C121 100 125 110 135 129 L179 212 L377 212 L386 134 C387 124 388 113 388 110 C388 83 376 76 331 76 L283 76 L267 0 L577 0 L593 76 L575 76 C529 76 522 84 516 140 L450 667 L323 667 L44 140 C20 91 -3 76 -49 76 L-68 76 L-84 0 Z M369 290 L220 290 L340 522 L369 290 Z M444 721 L498 721 L387 842 C368 862 357 868 341 868 C313 868 284 840 284 813 C284 796 297 781 317 772 L444 721 Z " />
<glyph glyph-name="Aacute" unicode="&#xc1;" horiz-adv-x="644" d="M-84 0 L195 0 L211 76 L165 76 C129 76 121 79 121 92 C121 100 125 110 135 129 L179 212 L377 212 L386 134 C387 124 388 113 388 110 C388 83 376 76 331 76 L283 76 L267 0 L577 0 L593 76 L575 76 C529 76 522 84 516 140 L450 667 L323 667 L44 140 C20 91 -3 76 -49 76 L-68 76 L-84 0 Z M369 290 L220 290 L340 522 L369 290 Z M366 721 L514 772 C548 784 569 807 569 831 C569 852 554 868 532 868 C516 868 500 861 475 842 L312 721 L366 721 Z " />
<glyph glyph-name="Acircumflex" unicode="&#xc2;" horiz-adv-x="644" d="M-84 0 L195 0 L211 76 L165 76 C129 76 121 79 121 92 C121 100 125 110 135 129 L179 212 L377 212 L386 134 C387 124 388 113 388 110 C388 83 376 76 331 76 L283 76 L267 0 L577 0 L593 76 L575 76 C529 76 522 84 516 140 L450 667 L323 667 L44 140 C20 91 -3 76 -49 76 L-68 76 L-84 0 Z M369 290 L220 290 L340 522 L369 290 Z M250 721 L297 721 L416 776 L512 721 L558 721 L491 858 L376 858 L250 721 Z " />
<glyph glyph-name="Atilde" unicode="&#xc3;" horiz-adv-x="644" d="M-84 0 L195 0 L211 76 L165 76 C129 76 121 79 121 92 C121 100 125 110 135 129 L179 212 L377 212 L386 134 C387 124 388 113 388 110 C388 83 376 76 331 76 L283 76 L267 0 L577 0 L593 76 L575 76 C529 76 522 84 516 140 L450 667 L323 667 L44 140 C20 91 -3 76 -49 76 L-68 76 L-84 0 Z M369 290 L220 290 L340 522 L369 290 Z M291 720 C306 748 321 761 343 761 C350 761 360 759 372 756 L423 741 C433 739 444 737 454 737 C480 737 505 748 528 769 C551 790 564 810 584 858 L547 858 C529 827 517 818 495 818 C489 818 481 819 474 821 L421 836 C410 839 398 841 386 841 C328 841 292 808 253 720 L291 720 Z " />
<glyph glyph-name="Adieresis" unicode="&#xc4;" horiz-adv-x="644" d="M-84 0 L195 0 L211 76 L165 76 C129 76 121 79 121 92 C121 100 125 110 135 129 L179 212 L377 212 L386 134 C387 124 388 113 388 110 C388 83 376 76 331 76 L283 76 L267 0 L577 0 L593 76 L575 76 C529 76 522 84 516 140 L450 667 L323 667 L44 140 C20 91 -3 76 -49 76 L-68 76 L-84 0 Z M369 290 L220 290 L340 522 L369 290 Z M349 858 C305 858 263 819 263 778 C263 744 285 722 317 722 C360 722 402 761 402 802 C402 833 378 858 349 858 L349 858 Z M516 858 C472 858 431 819 431 778 C431 745 453 722 484 722 C528 722 569 761 569 802 C569 833 546 858 516 858 L516 858 Z " />
<glyph glyph-name="Aring" unicode="&#xc5;" horiz-adv-x="644" d="M-84 0 L195 0 L211 76 L165 76 C129 76 121 79 121 92 C121 100 125 110 135 129 L179 212 L377 212 L386 134 C387 124 388 113 388 110 C388 83 376 76 331 76 L283 76 L267 0 L577 0 L593 76 L575 76 C529 76 522 84 516 140 L450 667 L323 667 L44 140 C20 91 -3 76 -49 76 L-68 76 L-84 0 Z M369 290 L220 290 L340 522 L369 290 Z M444 932 C372 932 309 873 309 806 C309 754 344 716 393 716 C462 716 529 781 529 847 C529 896 493 932 444 932 L444 932 Z M430 873 C453 872 468 856 468 834 C468 804 439 776 407 776 C385 776 369 792 369 816 C369 845 400 875 430 873 L430 873 Z " />
<glyph glyph-name="AE" unicode="&#xc6;" horiz-adv-x="988" d="M220 234 L398 234 L378 138 C366 83 358 75 309 76 L270 76 L254 0 L848 0 L908 283 L840 283 C792 114 757 75 653 76 L502 76 L551 310 L585 310 C641 310 655 299 655 255 C655 235 653 217 647 174 L713 174 L784 507 L718 507 C686 398 677 389 600 386 L567 386 L611 591 L750 591 C850 591 876 571 876 493 C876 468 874 446 865 402 L934 402 L990 667 L269 667 L253 591 L295 591 C333 591 345 587 345 573 C345 564 341 556 322 529 L50 140 C17 97 -17 76 -54 76 L-68 76 L-84 0 L189 0 L205 76 L163 76 C138 76 127 81 127 91 C127 97 133 107 156 141 L220 234 Z M414 310 L272 310 L457 591 L474 591 L414 310 Z " />
<glyph glyph-name="Ccedilla" unicode="&#xc7;" horiz-adv-x="635" d="M258 -19 C416 -16 518 74 571 258 L496 258 C468 185 451 155 419 123 C386 90 345 72 302 72 C223 72 174 129 174 221 C174 303 202 414 241 481 C286 562 347 605 414 605 C490 605 537 549 537 458 C537 446 536 424 535 404 L602 404 L660 677 L597 677 L567 617 C508 671 473 686 406 686 C206 686 21 473 21 241 C21 99 94 2 216 -16 L198 -101 C208 -99 218 -98 224 -98 C243 -98 254 -108 254 -125 C254 -152 235 -171 208 -171 C179 -171 149 -158 118 -132 L87 -182 C142 -214 181 -227 223 -227 C291 -227 344 -179 344 -117 C344 -80 321 -55 286 -55 C276 -55 263 -56 249 -59 L258 -19 Z " />
<glyph glyph-name="Egrave" unicode="&#xc8;" horiz-adv-x="675" d="M-48 0 L542 0 L602 283 L534 283 C484 112 451 75 346 76 L195 76 L245 310 L279 310 C335 310 349 299 349 256 C349 236 347 218 340 174 L406 174 L477 507 L411 507 C380 397 371 389 294 386 L261 386 L305 591 L443 591 C545 591 570 571 570 492 C570 467 567 446 559 402 L627 402 L684 667 L94 667 L78 591 L110 591 C148 591 157 586 157 565 C157 559 155 547 151 529 L68 138 C57 83 49 75 0 76 L-32 76 L-48 0 Z M460 721 L514 721 L403 842 C384 862 374 868 357 868 C329 868 300 840 300 813 C300 796 313 781 333 772 L460 721 Z " />
<glyph glyph-name="Eacute" unicode="&#xc9;" horiz-adv-x="675" d="M-48 0 L542 0 L602 283 L534 283 C484 112 451 75 346 76 L195 76 L245 310 L279 310 C335 310 349 299 349 256 C349 236 347 218 340 174 L406 174 L477 507 L411 507 C380 397 371 389 294 386 L261 386 L305 591 L443 591 C545 591 570 571 570 492 C570 467 567 446 559 402 L627 402 L684 667 L94 667 L78 591 L110 591 C148 591 157 586 157 565 C157 559 155 547 151 529 L68 138 C57 83 49 75 0 76 L-32 76 L-48 0 Z M382 721 L530 772 C564 784 585 807 585 831 C585 852 569 868 548 868 C531 868 516 861 491 842 L328 721 L382 721 Z " />
<glyph glyph-name="Ecircumflex" unicode="&#xca;" horiz-adv-x="675" d="M-48 0 L542 0 L602 283 L534 283 C484 112 451 75 346 76 L195 76 L245 310 L279 310 C335 310 349 299 349 256 C349 236 347 218 340 174 L406 174 L477 507 L411 507 C380 397 371 389 294 386 L261 386 L305 591 L443 591 C545 591 570 571 570 492 C570 467 567 446 559 402 L627 402 L684 667 L94 667 L78 591 L110 591 C148 591 157 586 157 565 C157 559 155 547 151 529 L68 138 C57 83 49 75 0 76 L-32 76 L-48 0 Z M266 721 L313 721 L432 776 L528 721 L574 721 L507 858 L392 858 L266 721 Z " />
<glyph glyph-name="Edieresis" unicode="&#xcb;" horiz-adv-x="675" d="M-48 0 L542 0 L602 283 L534 283 C484 112 451 75 346 76 L195 76 L245 310 L279 310 C335 310 349 299 349 256 C349 236 347 218 340 174 L406 174 L477 507 L411 507 C380 397 371 389 294 386 L261 386 L305 591 L443 591 C545 591 570 571 570 492 C570 467 567 446 559 402 L627 402 L684 667 L94 667 L78 591 L110 591 C148 591 157 586 157 565 C157 559 155 547 151 529 L68 138 C57 83 49 75 0 76 L-32 76 L-48 0 Z M368 858 C324 858 282 819 282 778 C282 744 304 722 336 722 C379 722 421 761 421 802 C421 833 397 858 368 858 L368 858 Z M535 858 C492 858 450 819 450 778 C450 745 472 722 503 722 C547 722 588 761 588 802 C588 833 565 858 535 858 L535 858 Z " />
<glyph glyph-name="Igrave" unicode="&#xcc;" horiz-adv-x="371" d="M-47 0 L276 0 L292 76 L257 76 C218 76 209 81 209 102 C209 107 210 115 215 137 L298 530 C310 584 318 592 366 591 L402 591 L418 667 L95 667 L79 591 L114 591 C152 591 161 586 161 565 C161 558 159 545 156 530 L73 137 C61 83 53 75 5 76 L-31 76 L-47 0 Z M308 721 L362 721 L250 842 C232 862 221 868 204 868 C176 868 147 840 147 813 C147 796 160 781 181 772 L308 721 Z " />
<glyph glyph-name="Iacute" unicode="&#xcd;" horiz-adv-x="371" d="M-47 0 L276 0 L292 76 L257 76 C218 76 209 81 209 102 C209 107 210 115 215 137 L298 530 C310 584 318 592 366 591 L402 591 L418 667 L95 667 L79 591 L114 591 C152 591 161 586 161 565 C161 558 159 545 156 530 L73 137 C61 83 53 75 5 76 L-31 76 L-47 0 Z M229 721 L378 772 C411 784 432 807 432 831 C432 852 417 868 395 868 C379 868 364 861 338 842 L175 721 L229 721 Z " />
<glyph glyph-name="Icircumflex" unicode="&#xce;" horiz-adv-x="371" d="M-47 0 L276 0 L292 76 L257 76 C218 76 209 81 209 102 C209 107 210 115 215 137 L298 530 C310 584 318 592 366 591 L402 591 L418 667 L95 667 L79 591 L114 591 C152 591 161 586 161 565 C161 558 159 545 156 530 L73 137 C61 83 53 75 5 76 L-31 76 L-47 0 Z M114 721 L160 721 L279 776 L375 721 L422 721 L355 858 L239 858 L114 721 Z " />
<glyph glyph-name="Idieresis" unicode="&#xcf;" horiz-adv-x="371" d="M-47 0 L276 0 L292 76 L257 76 C218 76 209 81 209 102 C209 107 210 115 215 137 L298 530 C310 584 318 592 366 591 L402 591 L418 667 L95 667 L79 591 L114 591 C152 591 161 586 161 565 C161 558 159 545 156 530 L73 137 C61 83 53 75 5 76 L-31 76 L-47 0 Z M218 858 C174 858 132 819 132 778 C132 744 154 722 186 722 C229 722 271 761 271 802 C271 833 247 858 218 858 L218 858 Z M380 858 C336 858 294 819 294 778 C294 745 316 722 348 722 C391 722 433 761 433 802 C433 833 410 858 380 858 L380 858 Z " />
<glyph glyph-name="Eth" unicode="&#xd0;" horiz-adv-x="729" d="M-47 0 L295 0 C421 0 514 39 587 122 C651 196 695 327 695 442 C695 516 668 580 621 618 C581 650 517 667 437 667 L95 667 L79 591 L111 591 C149 591 158 586 158 565 C158 559 156 546 153 530 L120 377 L9 377 L-5 308 L105 308 L69 137 C58 83 50 75 1 76 L-31 76 L-47 0 Z M196 76 L246 308 L389 308 L404 377 L260 377 L306 591 L380 591 C443 591 475 584 497 567 C524 545 539 503 539 448 C539 357 511 249 470 178 C423 99 379 76 271 76 L196 76 Z " />
<glyph glyph-name="Ntilde" unicode="&#xd1;" horiz-adv-x="733" d="M563 0 L675 530 C686 584 695 592 744 591 L771 591 L787 667 L504 667 L488 591 L527 591 C567 591 576 586 576 565 C576 558 574 548 570 530 L497 183 L341 667 L83 667 L67 591 L103 591 C143 591 152 586 152 565 C152 558 151 550 146 530 L63 137 C52 83 44 75 -6 76 L-46 76 L-62 0 L233 0 L250 76 L211 76 C171 76 162 81 162 102 C162 109 163 115 168 137 L254 543 L427 0 L563 0 Z M336 720 C350 748 366 761 387 761 C395 761 404 759 416 756 L467 741 C478 739 488 737 498 737 C524 737 550 748 572 769 C595 790 608 810 629 858 L591 858 C574 827 562 818 539 818 C533 818 526 819 519 821 L465 836 C454 839 442 841 430 841 C372 841 336 808 298 720 L336 720 Z " />
<glyph glyph-name="Ograve" unicode="&#xd2;" horiz-adv-x="724" d="M436 686 C323 686 219 639 140 552 C66 471 22 353 22 238 C22 79 123 -19 287 -19 C402 -19 504 27 583 115 C657 196 702 315 702 427 C702 588 601 686 436 686 L436 686 Z M419 607 C500 607 549 546 549 448 C549 369 521 253 486 190 C441 107 376 60 305 60 C224 60 175 120 175 219 C175 298 203 414 238 477 C283 561 348 607 419 607 L419 607 Z M484 721 L538 721 L427 842 C408 862 397 868 381 868 C353 868 324 840 324 813 C324 796 337 781 357 772 L484 721 Z " />
<glyph glyph-name="Oacute" unicode="&#xd3;" horiz-adv-x="724" d="M436 686 C323 686 219 639 140 552 C66 471 22 353 22 238 C22 79 123 -19 287 -19 C402 -19 504 27 583 115 C657 196 702 315 702 427 C702 588 601 686 436 686 L436 686 Z M419 607 C500 607 549 546 549 448 C549 369 521 253 486 190 C441 107 376 60 305 60 C224 60 175 120 175 219 C175 298 203 414 238 477 C283 561 348 607 419 607 L419 607 Z M406 721 L554 772 C587 784 609 807 609 830 C609 853 594 868 572 868 C555 868 541 861 515 842 L351 721 L406 721 Z " />
<glyph glyph-name="Ocircumflex" unicode="&#xd4;" horiz-adv-x="724" d="M436 686 C323 686 219 639 140 552 C66 471 22 353 22 238 C22 79 123 -19 287 -19 C402 -19 504 27 583 115 C657 196 702 315 702 427 C702 588 601 686 436 686 L436 686 Z M419 607 C500 607 549 546 549 448 C549 369 521 253 486 190 C441 107 376 60 305 60 C224 60 175 120 175 219 C175 298 203 414 238 477 C283 561 348 607 419 607 L419 607 Z M290 721 L337 721 L456 776 L552 721 L598 721 L531 858 L416 858 L290 721 Z " />
<glyph glyph-name="Otilde" unicode="&#xd5;" horiz-adv-x="724" d="M436 686 C323 686 219 639 140 552 C66 471 22 353 22 238 C22 79 123 -19 287 -19 C402 -19 504 27 583 115 C657 196 702 315 702 427 C702 588 601 686 436 686 L436 686 Z M419 607 C500 607 549 546 549 448 C549 369 521 253 486 190 C441 107 376 60 305 60 C224 60 175 120 175 219 C175 298 203 414 238 477 C283 561 348 607 419 607 L419 607 Z M331 720 C346 748 361 761 383 761 C390 761 400 759 411 756 L463 741 C473 739 484 737 494 737 C520 737 545 748 568 769 C591 790 604 810 624 858 L587 858 C570 828 557 818 535 818 C529 818 521 819 514 821 L461 836 C450 839 438 841 426 841 C368 841 332 808 293 720 L331 720 Z " />
<glyph glyph-name="Odieresis" unicode="&#xd6;" horiz-adv-x="724" d="M435 686 C322 686 218 639 139 552 C65 471 21 353 21 238 C21 79 122 -19 286 -19 C401 -19 503 27 582 115 C656 196 701 315 701 427 C701 588 600 686 435 686 L435 686 Z M418 607 C499 607 548 546 548 448 C548 369 520 253 485 190 C440 107 375 60 304 60 C223 60 174 120 174 219 C174 298 202 414 237 477 C282 561 347 607 418 607 L418 607 Z M388 858 C343 858 302 819 302 778 C302 744 324 722 356 722 C399 722 441 761 441 802 C441 833 417 858 388 858 L388 858 Z M555 858 C511 858 470 819 470 778 C470 744 492 722 523 722 C566 722 608 761 608 802 C608 833 585 858 555 858 L555 858 Z " />
<glyph glyph-name="multiply" unicode="&#xd7;" horiz-adv-x="510" d="M33 170 L77 105 L237 249 L335 105 L407 170 L308 313 L468 456 L423 521 L264 377 L166 521 L94 456 L192 313 L33 170 Z " />
<glyph glyph-name="Oslash" unicode="&#xd8;" horiz-adv-x="724" d="M703 700 L623 624 C573 667 517 686 438 686 C322 686 220 640 141 552 C67 470 22 353 22 240 C22 178 33 136 62 90 L-15 16 L17 -32 L99 46 C149 1 207 -19 289 -19 C403 -19 505 27 584 115 C658 197 703 314 703 427 C703 491 691 535 660 581 L736 653 L703 700 Z M176 198 C175 209 175 213 175 220 C175 283 194 375 220 439 C262 544 338 607 420 607 C473 607 509 584 532 537 L176 198 Z M548 474 C550 462 550 457 550 448 C550 385 531 291 505 228 C463 123 387 60 305 60 C250 60 214 84 192 134 L548 474 Z " />
<glyph glyph-name="Ugrave" unicode="&#xd9;" horiz-adv-x="684" d="M73 591 L99 591 C137 591 146 586 146 565 C146 559 144 548 140 530 L73 211 C67 185 64 157 64 135 C64 38 139 -20 264 -20 C422 -20 524 61 556 211 L624 530 C635 584 643 592 692 591 L718 591 L734 667 L456 667 L440 591 L473 591 C512 591 521 586 521 565 C521 558 519 546 516 530 L448 211 C437 160 424 134 400 114 C373 92 335 78 299 78 C244 78 205 108 205 150 C205 165 208 187 213 211 L281 530 C292 584 300 592 349 591 L384 591 L400 667 L89 667 L73 591 Z M464 721 L518 721 L406 842 C388 862 377 868 361 868 C333 868 304 840 304 813 C304 796 317 781 337 772 L464 721 Z " />
<glyph glyph-name="Uacute" unicode="&#xda;" horiz-adv-x="684" d="M73 591 L99 591 C137 591 146 586 146 565 C146 559 144 548 140 530 L73 211 C67 185 64 157 64 135 C64 38 139 -20 264 -20 C422 -20 524 61 556 211 L624 530 C635 584 643 592 692 591 L718 591 L734 667 L456 667 L440 591 L473 591 C512 591 521 586 521 565 C521 558 519 546 516 530 L448 211 C437 160 424 134 400 114 C373 92 335 78 299 78 C244 78 205 108 205 150 C205 165 208 187 213 211 L281 530 C292 584 300 592 349 591 L384 591 L400 667 L89 667 L73 591 Z M385 721 L534 772 C568 784 589 807 589 831 C589 852 573 868 552 868 C535 868 520 861 495 842 L331 721 L385 721 Z " />
<glyph glyph-name="Ucircumflex" unicode="&#xdb;" horiz-adv-x="684" d="M73 591 L99 591 C137 591 146 586 146 565 C146 559 144 548 140 530 L73 211 C67 185 64 157 64 135 C64 38 139 -20 264 -20 C422 -20 524 61 556 211 L624 530 C635 584 643 592 692 591 L718 591 L734 667 L456 667 L440 591 L473 591 C512 591 521 586 521 565 C521 558 519 546 516 530 L448 211 C437 160 424 134 400 114 C373 92 335 78 299 78 C244 78 205 108 205 150 C205 165 208 187 213 211 L281 530 C292 584 300 592 349 591 L384 591 L400 667 L89 667 L73 591 Z M270 721 L316 721 L436 776 L532 721 L578 721 L511 858 L395 858 L270 721 Z " />
<glyph glyph-name="Udieresis" unicode="&#xdc;" horiz-adv-x="684" d="M73 591 L99 591 C137 591 146 586 146 565 C146 559 144 548 140 530 L73 211 C67 185 64 157 64 135 C64 38 139 -20 264 -20 C422 -20 524 61 556 211 L624 530 C635 584 643 592 692 591 L718 591 L734 667 L456 667 L440 591 L473 591 C512 591 521 586 521 565 C521 558 519 546 516 530 L448 211 C437 160 424 134 400 114 C373 92 335 78 299 78 C244 78 205 108 205 150 C205 165 208 187 213 211 L281 530 C292 584 300 592 349 591 L384 591 L400 667 L89 667 L73 591 Z M371 858 C327 858 285 819 285 778 C285 744 307 722 339 722 C382 722 424 761 424 802 C424 833 400 858 371 858 L371 858 Z M538 858 C494 858 453 819 453 778 C453 745 475 722 506 722 C550 722 591 761 591 802 C591 833 568 858 538 858 L538 858 Z " />
<glyph glyph-name="Yacute" unicode="&#xdd;" horiz-adv-x="657" d="M448 76 L399 76 C360 76 351 81 351 102 C351 108 353 119 357 137 L387 279 L615 547 C647 583 660 590 694 591 L715 591 L731 667 L453 667 L437 591 L494 591 C512 591 520 587 520 577 C520 568 514 555 503 543 L358 381 L285 538 C282 545 280 552 280 561 C280 583 291 591 323 591 L373 591 L389 667 L71 667 L55 591 L85 591 C120 589 135 575 157 523 L247 279 L216 137 C205 83 197 76 148 76 L99 76 L83 0 L432 0 L448 76 Z M372 721 L521 772 C555 784 576 807 576 831 C576 852 560 868 539 868 C522 868 507 861 481 842 L318 721 L372 721 Z " />
<glyph glyph-name="Thorn" unicode="&#xde;" horiz-adv-x="612" d="M-48 0 L274 0 L290 76 L247 76 C206 76 196 81 196 102 C196 109 198 121 201 137 L206 157 L289 157 C413 157 469 171 516 214 C561 255 589 321 589 383 C589 479 523 523 378 523 L283 523 L285 530 C296 584 304 592 357 591 L399 591 L415 667 L94 667 L78 591 L112 591 C154 591 164 586 164 565 C164 558 162 548 158 530 L75 137 C64 83 55 75 3 76 L-32 76 L-48 0 Z M222 233 L267 447 L319 447 C372 447 390 445 408 437 C431 427 442 406 442 373 C442 342 431 306 413 281 C388 245 356 233 281 233 L222 233 Z " />
<glyph glyph-name="germandbls" unicode="&#xdf;" horiz-adv-x="563" d="M-53 0 L150 0 L252 484 C272 575 302 614 352 614 C383 614 400 594 400 559 C400 531 390 499 375 477 C356 450 337 442 284 439 L269 368 C340 368 364 349 364 293 C364 252 346 165 324 100 C315 74 303 60 289 60 C277 60 271 68 271 85 C271 100 274 122 284 170 L222 170 C209 113 206 91 206 67 C206 11 234 -17 291 -17 C346 -17 389 10 430 68 C469 125 496 209 496 277 C496 316 483 354 461 377 C447 391 430 401 397 412 C460 437 487 455 509 488 C524 510 532 538 532 565 C532 638 469 684 368 684 C240 684 160 612 130 470 L57 126 C46 76 38 69 -13 67 L-39 67 L-53 0 Z " />
<glyph glyph-name="agrave" unicode="&#xe0;" horiz-adv-x="510" d="M421 175 C404 92 392 65 372 65 C362 65 356 71 356 81 C356 88 357 94 358 100 L402 308 C409 341 414 373 414 387 C414 451 358 486 255 486 C139 486 51 423 51 342 C51 307 72 285 105 285 C147 285 181 320 181 363 C181 390 168 401 134 403 C163 424 186 432 221 432 C271 432 298 413 298 377 C298 357 292 336 283 321 C269 298 248 286 203 273 C108 248 75 235 44 212 C2 180 -24 130 -24 79 C-24 18 13 -18 76 -18 C139 -18 178 1 232 57 C239 3 262 -17 317 -17 C368 -17 406 4 432 47 C448 72 456 97 474 175 L421 175 Z M257 188 C241 111 201 65 151 65 C126 65 114 78 114 104 C114 144 141 182 184 202 L228 222 C235 226 249 234 269 245 L257 188 Z M382 540 L278 683 C252 719 236 730 212 730 C177 730 146 700 146 667 C146 648 157 635 185 619 L327 540 L382 540 Z " />
<glyph glyph-name="aacute" unicode="&#xe1;" horiz-adv-x="510" d="M421 175 C404 92 392 65 372 65 C362 65 356 71 356 81 C356 88 357 94 358 100 L402 308 C409 341 414 373 414 387 C414 451 358 486 255 486 C139 486 51 423 51 342 C51 307 72 285 105 285 C147 285 181 320 181 363 C181 390 168 401 134 403 C163 424 186 432 221 432 C271 432 298 413 298 377 C298 357 292 336 283 321 C269 298 248 286 203 273 C108 248 75 235 44 212 C2 180 -24 130 -24 79 C-24 18 13 -18 76 -18 C139 -18 178 1 232 57 C239 3 262 -17 317 -17 C368 -17 406 4 432 47 C448 72 456 97 474 175 L421 175 Z M257 188 C241 111 201 65 151 65 C126 65 114 78 114 104 C114 144 141 182 184 202 L228 222 C235 226 249 234 269 245 L257 188 Z M194 540 L249 540 L424 619 C469 639 488 660 488 688 C488 713 471 730 445 730 C421 730 400 719 360 683 L194 540 Z " />
<glyph glyph-name="acircumflex" unicode="&#xe2;" horiz-adv-x="510" d="M421 175 C404 92 392 65 372 65 C362 65 356 71 356 81 C356 88 357 94 358 100 L402 308 C409 341 414 373 414 387 C414 451 358 486 255 486 C139 486 51 423 51 342 C51 307 72 285 105 285 C147 285 181 320 181 363 C181 390 168 401 134 403 C163 424 186 432 221 432 C271 432 298 413 298 377 C298 357 292 336 283 321 C269 298 248 286 203 273 C108 248 75 235 44 212 C2 180 -24 130 -24 79 C-24 18 13 -18 76 -18 C139 -18 178 1 232 57 C239 3 262 -17 317 -17 C368 -17 406 4 432 47 C448 72 456 97 474 175 L421 175 Z M257 188 C241 111 201 65 151 65 C126 65 114 78 114 104 C114 144 141 182 184 202 L228 222 C235 226 249 234 269 245 L257 188 Z M128 540 L177 540 L301 623 L391 540 L440 540 L367 720 L277 720 L128 540 Z " />
<glyph glyph-name="atilde" unicode="&#xe3;" horiz-adv-x="510" d="M421 175 C404 92 392 65 372 65 C362 65 356 71 356 81 C356 88 357 94 358 100 L402 308 C409 341 414 373 414 387 C414 451 358 486 255 486 C139 486 51 423 51 342 C51 307 72 285 105 285 C147 285 181 320 181 363 C181 390 168 401 134 403 C163 424 186 432 221 432 C271 432 298 413 298 377 C298 357 292 336 283 321 C269 298 248 286 203 273 C108 248 75 235 44 212 C2 180 -24 130 -24 79 C-24 18 13 -18 76 -18 C139 -18 178 1 232 57 C239 3 262 -17 317 -17 C368 -17 406 4 432 47 C448 72 456 97 474 175 L421 175 Z M257 188 C241 111 201 65 151 65 C126 65 114 78 114 104 C114 144 141 182 184 202 L228 222 C235 226 249 234 269 245 L257 188 Z M167 555 C183 588 199 601 223 601 C230 601 240 599 252 596 L306 580 C316 577 326 576 337 576 C396 576 433 610 476 704 L436 704 C416 670 404 660 381 660 C375 660 367 661 359 663 L304 679 C291 682 278 684 266 684 C206 684 169 649 127 555 L167 555 Z " />
<glyph glyph-name="adieresis" unicode="&#xe4;" horiz-adv-x="510" d="M421 175 C404 92 392 65 372 65 C362 65 356 71 356 81 C356 88 357 94 358 100 L402 308 C409 341 414 373 414 387 C414 451 358 486 255 486 C139 486 51 423 51 342 C51 307 72 285 105 285 C147 285 181 320 181 363 C181 390 168 401 134 403 C163 424 186 432 221 432 C271 432 298 413 298 377 C298 357 292 336 283 321 C269 298 248 286 203 273 C108 248 75 235 44 212 C2 180 -24 130 -24 79 C-24 18 13 -18 76 -18 C139 -18 178 1 232 57 C239 3 262 -17 317 -17 C368 -17 406 4 432 47 C448 72 456 97 474 175 L421 175 Z M257 188 C241 111 201 65 151 65 C126 65 114 78 114 104 C114 144 141 182 184 202 L228 222 C235 226 249 234 269 245 L257 188 Z M262 699 C216 699 173 659 173 617 C173 583 196 560 229 560 C274 560 315 599 315 643 C315 675 292 699 262 699 L262 699 Z M432 699 C386 699 343 659 343 617 C343 583 366 560 399 560 C444 560 485 599 485 643 C485 675 462 699 432 699 L432 699 Z " />
<glyph glyph-name="aring" unicode="&#xe5;" horiz-adv-x="510" d="M421 175 C403 90 392 65 371 65 C361 65 355 71 355 80 C355 84 356 91 358 100 L402 308 C409 341 414 373 414 387 C414 451 358 486 255 486 C139 486 51 423 51 342 C51 307 72 285 105 285 C147 285 181 320 181 363 C181 390 168 401 134 403 C163 424 186 432 221 432 C271 432 298 413 298 377 C298 357 292 336 283 321 C269 298 248 286 203 273 C108 248 75 235 44 212 C2 180 -24 130 -24 79 C-24 18 13 -18 76 -18 C139 -18 178 1 232 57 C239 3 262 -17 317 -17 C368 -17 406 4 432 47 C448 72 456 97 474 175 L421 175 Z M257 188 C241 111 201 65 151 65 C126 65 114 78 114 104 C114 144 141 182 184 202 L228 222 C235 226 249 234 269 245 L257 188 Z M329 778 C243 778 167 706 167 625 C167 562 208 520 269 520 C352 520 430 595 430 674 C430 734 387 778 329 778 L329 778 Z M314 714 C345 713 365 692 365 662 C365 621 326 584 283 584 C253 584 232 605 232 636 C232 677 273 716 314 714 L314 714 Z " />
<glyph glyph-name="ae" unicode="&#xe6;" horiz-adv-x="760" d="M607 167 C573 90 538 62 476 62 C418 62 388 94 388 154 C388 168 392 199 396 225 L697 225 C705 266 709 307 709 334 C709 426 650 486 560 486 C507 486 472 473 409 428 C361 471 322 486 256 486 C139 486 50 424 50 342 C50 307 72 285 107 285 C149 285 184 320 184 363 C184 390 171 401 135 403 C181 426 204 433 238 433 C294 433 324 412 324 371 C324 353 319 335 310 321 C295 298 274 286 225 275 C131 253 88 239 56 219 C6 189 -25 135 -25 80 C-25 18 19 -19 92 -19 C125 -19 159 -11 191 4 C227 21 250 40 294 88 C334 9 373 -17 452 -17 C514 -17 559 1 605 42 C642 76 658 103 683 167 L607 167 Z M285 188 C268 107 222 61 158 61 C127 61 112 76 112 106 C112 149 137 177 200 203 C218 210 235 217 252 224 C259 227 274 235 297 246 L285 188 Z M415 295 C445 386 478 420 535 420 C576 420 597 397 597 352 C597 334 596 316 594 295 L415 295 Z " />
<glyph glyph-name="ccedilla" unicode="&#xe7;" horiz-adv-x="460" d="M171 -17 C291 -17 366 53 403 195 L335 195 C304 107 270 72 213 72 C160 72 133 103 133 163 C133 208 146 268 167 316 C196 384 240 421 294 421 C323 421 339 413 365 385 C339 380 329 374 316 358 C305 343 299 324 299 307 C299 276 319 257 351 257 C400 257 441 307 441 369 C441 440 383 486 293 486 C130 486 -2 340 -2 159 C-2 106 13 62 43 29 C66 4 87 -7 129 -14 L111 -99 C121 -97 132 -95 138 -95 C156 -95 167 -105 167 -122 C167 -151 149 -171 121 -171 C92 -171 62 -158 32 -132 L0 -182 C56 -214 94 -227 136 -227 C204 -227 256 -178 256 -114 C256 -77 234 -53 199 -53 C188 -53 177 -54 163 -56 L171 -17 Z " />
<glyph glyph-name="egrave" unicode="&#xe8;" horiz-adv-x="478" d="M337 167 C301 88 268 62 204 62 C149 62 119 95 119 156 C119 171 122 199 126 225 L427 225 C434 266 439 308 439 334 C439 429 381 486 282 486 C207 486 141 456 88 398 C32 337 -2 248 -2 164 C-2 49 62 -18 172 -18 C226 -18 276 -2 319 30 C363 62 385 95 412 167 L337 167 Z M144 295 C178 383 215 420 267 420 C306 420 327 396 327 352 C327 335 326 316 323 295 L144 295 Z M366 540 L262 683 C236 719 220 730 196 730 C162 730 131 700 131 667 C131 648 143 634 170 619 L311 540 L366 540 Z " />
<glyph glyph-name="eacute" unicode="&#xe9;" horiz-adv-x="478" d="M337 167 C301 88 268 62 204 62 C149 62 119 95 119 156 C119 171 122 199 126 225 L427 225 C434 266 439 308 439 334 C439 429 381 486 282 486 C207 486 141 456 88 398 C32 337 -2 248 -2 164 C-2 49 62 -18 172 -18 C226 -18 276 -2 319 30 C363 62 385 95 412 167 L337 167 Z M144 295 C178 383 215 420 267 420 C306 420 327 396 327 352 C327 335 326 316 323 295 L144 295 Z M178 540 L233 540 L409 619 C453 639 472 659 472 688 C472 713 455 730 429 730 C405 730 385 719 344 683 L178 540 Z " />
<glyph glyph-name="ecircumflex" unicode="&#xea;" horiz-adv-x="478" d="M337 167 C301 88 268 62 204 62 C149 62 119 95 119 156 C119 171 122 199 126 225 L427 225 C434 266 439 308 439 334 C439 429 381 486 282 486 C207 486 141 456 88 398 C32 337 -2 248 -2 164 C-2 49 62 -18 172 -18 C226 -18 276 -2 319 30 C363 62 385 95 412 167 L337 167 Z M144 295 C178 383 215 420 267 420 C306 420 327 396 327 352 C327 335 326 316 323 295 L144 295 Z M127 540 L176 540 L301 623 L390 540 L439 540 L366 720 L276 720 L127 540 Z " />
<glyph glyph-name="edieresis" unicode="&#xeb;" horiz-adv-x="478" d="M337 167 C301 88 268 62 204 62 C149 62 119 95 119 156 C119 171 122 199 126 225 L427 225 C434 266 439 308 439 334 C439 429 381 486 282 486 C207 486 141 456 88 398 C32 337 -2 248 -2 164 C-2 49 62 -18 172 -18 C226 -18 276 -2 319 30 C363 62 385 95 412 167 L337 167 Z M144 295 C178 383 215 420 267 420 C306 420 327 396 327 352 C327 335 326 316 323 295 L144 295 Z M235 699 C189 699 146 659 146 616 C146 582 169 560 204 560 C248 560 288 600 288 643 C288 675 265 699 235 699 L235 699 Z M405 699 C359 699 316 659 316 617 C316 583 339 560 372 560 C417 560 458 599 458 643 C458 675 435 699 405 699 L405 699 Z " />
<glyph glyph-name="igrave" unicode="&#xec;" horiz-adv-x="314" d="M-47 0 L224 0 L238 67 L214 67 C186 67 174 74 174 92 C174 99 176 111 179 126 L252 469 L53 469 L39 402 L71 402 C101 402 114 395 114 377 C114 368 112 355 110 343 L64 126 C53 76 45 69 -1 67 L-33 67 L-47 0 Z M256 538 L205 678 C193 710 178 723 153 723 C122 723 94 697 94 667 C94 651 104 634 128 614 L216 538 L256 538 Z " />
<glyph glyph-name="iacute" unicode="&#xed;" horiz-adv-x="313" d="M114 538 L154 538 L275 614 C317 641 335 663 335 688 C335 709 319 723 296 723 C271 723 250 710 225 678 L114 538 Z M-48 0 L223 0 L237 67 L213 67 C185 67 173 74 173 92 C173 99 175 111 178 126 L251 469 L52 469 L38 402 L70 402 C100 402 113 395 113 377 C113 368 111 355 109 343 L63 126 C52 76 44 69 -2 67 L-34 67 L-48 0 Z " />
<glyph glyph-name="icircumflex" unicode="&#xee;" horiz-adv-x="327" d="M64 538 L111 538 L222 630 L295 538 L341 538 L285 715 L196 715 L64 538 Z M-35 0 L236 0 L250 67 L226 67 C198 67 186 74 186 91 C186 99 188 111 191 126 L264 469 L65 469 L51 402 L83 402 C113 402 126 395 126 377 C126 368 124 355 122 343 L76 126 C65 76 57 69 11 67 L-21 67 L-35 0 Z " />
<glyph glyph-name="idieresis" unicode="&#xef;" horiz-adv-x="324" d="M-41 0 L230 0 L244 67 L220 67 C192 67 180 74 180 91 C180 99 182 111 185 126 L258 469 L59 469 L45 402 L77 402 C107 402 120 395 120 377 C120 368 118 355 116 343 L70 126 C59 76 51 69 5 67 L-27 67 L-41 0 Z M155 699 C110 699 67 659 67 617 C67 582 90 560 125 560 C168 560 208 600 208 643 C208 675 186 699 155 699 L155 699 Z M316 699 C271 699 228 659 228 617 C228 582 251 560 286 560 C329 560 369 600 369 643 C369 675 347 699 316 699 L316 699 Z " />
<glyph glyph-name="eth" unicode="&#xf0;" horiz-adv-x="529" d="M270 667 C280 646 282 642 298 604 L226 575 L237 522 L314 555 L326 524 C336 499 336 499 342 477 C324 483 311 485 290 485 C130 485 -1 341 -1 165 C-1 52 73 -17 194 -17 C360 -17 491 125 491 305 C491 382 465 454 390 589 L464 618 L453 671 L364 636 C353 650 352 652 341 667 L270 667 Z M284 416 C334 416 359 384 359 323 C359 266 338 177 314 130 C288 79 252 53 207 53 C157 53 132 84 132 146 C132 203 153 291 177 339 C203 390 239 416 284 416 L284 416 Z " />
<glyph glyph-name="ntilde" unicode="&#xf1;" horiz-adv-x="585" d="M-48 0 L209 0 L224 67 L206 67 C175 67 162 74 162 93 C162 100 164 111 167 126 L193 247 C205 304 216 329 241 358 C268 389 301 407 333 407 C362 407 383 387 383 360 C383 350 380 331 376 311 L337 126 C326 76 319 69 277 67 L261 67 L247 0 L500 0 L514 67 L491 67 C463 67 451 74 451 91 C451 99 452 107 456 126 L496 311 C502 342 506 372 506 393 C506 448 463 484 398 484 C339 484 295 459 222 387 L240 469 L52 469 L38 402 L67 402 C97 402 110 394 110 376 C110 369 108 356 105 343 L59 126 C49 76 41 69 -5 67 L-34 67 L-48 0 Z M222 555 C237 587 254 601 278 601 C285 601 295 599 307 596 L360 580 C370 577 381 576 392 576 C451 576 488 610 531 704 L490 704 C471 670 459 660 436 660 C430 660 421 661 414 663 L359 679 C346 682 333 684 321 684 C261 684 224 649 182 555 L222 555 Z " />
<glyph glyph-name="ograve" unicode="&#xf2;" horiz-adv-x="527" d="M295 486 C129 486 -3 344 -3 166 C-3 52 70 -17 189 -17 C273 -17 344 15 402 77 C455 135 488 220 488 302 C488 417 416 486 295 486 L295 486 Z M281 416 C330 416 356 384 356 323 C356 266 335 177 311 130 C285 79 249 53 204 53 C154 53 129 84 129 146 C129 203 149 291 174 339 C200 390 236 416 281 416 L281 416 Z M390 540 L286 683 C260 719 244 730 221 730 C186 730 155 700 155 667 C155 648 167 634 194 619 L336 540 L390 540 Z " />
<glyph glyph-name="oacute" unicode="&#xf3;" horiz-adv-x="527" d="M295 486 C129 486 -3 344 -3 166 C-3 52 70 -17 189 -17 C273 -17 344 15 402 77 C455 135 488 220 488 302 C488 417 416 486 295 486 L295 486 Z M281 416 C330 416 356 384 356 323 C356 266 335 177 311 130 C285 79 249 53 204 53 C154 53 129 84 129 146 C129 203 149 291 174 339 C200 390 236 416 281 416 L281 416 Z M203 540 L258 540 L433 619 C478 639 497 659 497 688 C497 713 480 730 454 730 C430 730 409 719 368 683 L203 540 Z " />
<glyph glyph-name="ocircumflex" unicode="&#xf4;" horiz-adv-x="527" d="M295 486 C129 486 -3 344 -3 166 C-3 52 70 -17 189 -17 C273 -17 344 15 402 77 C455 135 488 220 488 302 C488 417 416 486 295 486 L295 486 Z M281 416 C330 416 356 384 356 323 C356 266 335 177 311 130 C285 79 249 53 204 53 C154 53 129 84 129 146 C129 203 149 291 174 339 C200 390 236 416 281 416 L281 416 Z M152 540 L200 540 L325 623 L414 540 L463 540 L390 720 L301 720 L152 540 Z " />
<glyph glyph-name="otilde" unicode="&#xf5;" horiz-adv-x="527" d="M295 486 C129 486 -3 344 -3 166 C-3 52 70 -17 189 -17 C273 -17 344 15 402 77 C455 135 488 220 488 302 C488 417 416 486 295 486 L295 486 Z M281 416 C330 416 356 384 356 323 C356 266 335 177 311 130 C285 79 249 53 204 53 C154 53 129 84 129 146 C129 203 149 291 174 339 C200 390 236 416 281 416 L281 416 Z M192 555 C208 588 224 601 248 601 C255 601 265 599 277 596 L331 580 C341 577 351 576 362 576 C421 576 458 610 501 704 L461 704 C441 670 429 660 406 660 C400 660 392 661 384 663 L329 679 C316 682 303 684 291 684 C231 684 194 650 152 555 L192 555 Z " />
<glyph glyph-name="odieresis" unicode="&#xf6;" horiz-adv-x="527" d="M297 486 C131 486 -1 344 -1 166 C-1 52 72 -17 191 -17 C275 -17 346 15 404 77 C457 135 490 220 490 302 C490 417 418 486 297 486 L297 486 Z M283 416 C332 416 358 384 358 323 C358 266 337 177 313 130 C287 79 251 53 206 53 C156 53 131 84 131 146 C131 203 151 291 176 339 C202 390 238 416 283 416 L283 416 Z M266 699 C220 699 178 659 178 616 C178 582 201 560 235 560 C279 560 319 600 319 643 C319 675 296 699 266 699 L266 699 Z M436 699 C390 699 348 659 348 616 C348 583 371 560 404 560 C449 560 489 599 489 643 C489 675 466 699 436 699 L436 699 Z " />
<glyph glyph-name="divide" unicode="&#xf7;" horiz-adv-x="549" d="M273 126 C239 126 211 99 211 64 C211 30 238 2 273 2 C306 2 334 30 334 64 C334 98 306 126 273 126 L273 126 Z M273 525 C239 525 211 498 211 463 C211 429 238 401 273 401 C306 401 334 429 334 463 C334 497 306 525 273 525 L273 525 Z M10 294 L10 239 L536 239 L536 294 L10 294 Z " />
<glyph glyph-name="oslash" unicode="&#xf8;" horiz-adv-x="527" d="M503 504 L432 441 C394 473 356 486 296 486 C129 486 -3 345 -3 167 C-3 126 3 99 20 69 L-47 8 L-19 -35 L52 29 C91 -4 129 -17 189 -17 C273 -17 344 14 402 77 C456 135 488 220 488 302 C488 343 482 370 464 401 L533 463 L503 504 Z M130 168 C134 220 145 269 163 314 C189 381 229 416 281 416 C317 416 340 399 350 367 L130 168 Z M355 302 C351 252 340 201 322 155 C296 88 255 53 204 53 C168 53 144 70 134 103 L355 302 Z " />
<glyph glyph-name="ugrave" unicode="&#xf9;" horiz-adv-x="581" d="M37 402 L60 402 C95 402 109 394 109 375 C109 368 108 358 104 343 L65 158 C58 126 54 93 54 73 C54 20 92 -15 151 -15 C206 -15 247 9 315 82 L297 0 L489 0 L504 67 L481 67 C452 67 439 74 439 92 C439 100 441 111 444 126 L517 469 L294 469 L280 402 L326 402 C360 402 375 394 375 375 C375 368 374 358 370 343 L344 221 C333 167 321 139 300 111 C275 79 246 62 219 62 C194 62 177 80 177 108 C177 118 179 133 185 158 L251 469 L51 469 L37 402 Z M418 540 L313 683 C288 719 272 730 248 730 C213 730 182 700 182 667 C182 648 193 634 221 619 L363 540 L418 540 Z " />
<glyph glyph-name="uacute" unicode="&#xfa;" horiz-adv-x="581" d="M37 402 L60 402 C95 402 109 394 109 375 C109 368 108 358 104 343 L65 158 C58 126 54 93 54 73 C54 20 92 -15 151 -15 C206 -15 247 9 315 82 L297 0 L489 0 L504 67 L481 67 C452 67 439 74 439 92 C439 100 441 111 444 126 L517 469 L294 469 L280 402 L326 402 C360 402 375 394 375 375 C375 368 374 358 370 343 L344 221 C333 167 321 139 300 111 C275 79 246 62 219 62 C194 62 177 80 177 108 C177 118 179 133 185 158 L251 469 L51 469 L37 402 Z M230 540 L285 540 L460 619 C505 639 524 659 524 688 C524 713 507 730 481 730 C457 730 436 719 395 683 L230 540 Z " />
<glyph glyph-name="ucircumflex" unicode="&#xfb;" horiz-adv-x="581" d="M37 402 L60 402 C95 402 109 394 109 375 C109 368 108 358 104 343 L65 158 C58 126 54 93 54 73 C54 20 92 -15 151 -15 C206 -15 247 9 315 82 L297 0 L489 0 L504 67 L481 67 C452 67 439 74 439 92 C439 100 441 111 444 126 L517 469 L294 469 L280 402 L326 402 C360 402 375 394 375 375 C375 368 374 358 370 343 L344 221 C333 167 321 139 300 111 C275 79 246 62 219 62 C194 62 177 80 177 108 C177 118 179 133 185 158 L251 469 L51 469 L37 402 Z M179 540 L227 540 L352 623 L441 540 L490 540 L418 720 L328 720 L179 540 Z " />
<glyph glyph-name="udieresis" unicode="&#xfc;" horiz-adv-x="581" d="M37 402 L60 402 C95 402 109 394 109 375 C109 368 108 358 104 343 L65 158 C58 126 54 93 54 73 C54 20 92 -15 151 -15 C206 -15 247 9 315 82 L297 0 L489 0 L504 67 L481 67 C452 67 439 74 439 92 C439 100 441 111 444 126 L517 469 L294 469 L280 402 L326 402 C360 402 375 394 375 375 C375 368 374 358 370 343 L344 221 C333 167 321 139 300 111 C275 79 246 62 219 62 C194 62 177 80 177 108 C177 118 179 133 185 158 L251 469 L51 469 L37 402 Z M286 699 C241 699 198 659 198 617 C198 582 221 560 256 560 C299 560 339 600 339 643 C339 675 317 699 286 699 L286 699 Z M456 699 C411 699 368 659 368 617 C368 582 391 560 426 560 C469 560 509 600 509 643 C509 675 487 699 456 699 L456 699 Z " />
<glyph glyph-name="yacute" unicode="&#xfd;" horiz-adv-x="523" d="M158 0 C91 -115 56 -149 8 -149 C-11 -149 -19 -144 -32 -125 C-1 -125 13 -119 28 -103 C41 -89 48 -69 48 -50 C48 -19 29 0 -2 0 C-53 0 -97 -53 -97 -116 C-97 -176 -57 -214 5 -214 C92 -214 147 -158 270 56 L428 331 C462 385 478 400 509 402 L529 402 L543 469 L328 469 L313 402 L337 402 C361 402 373 397 373 385 C373 376 368 362 359 347 L242 140 L205 356 C204 360 204 360 204 368 C204 392 216 402 240 402 L271 402 L285 469 L27 469 L12 402 L39 402 C72 400 84 387 93 342 L158 0 Z M201 540 L256 540 L431 619 C476 639 495 659 495 688 C495 713 478 730 452 730 C428 730 407 719 366 683 L201 540 Z " />
<glyph glyph-name="thorn" unicode="&#xfe;" horiz-adv-x="559" d="M70 600 L91 600 C118 600 130 593 130 576 C130 567 128 554 126 541 L-8 -88 C-19 -137 -26 -145 -68 -147 L-93 -147 L-107 -214 L170 -214 L184 -147 L147 -147 C119 -147 107 -139 107 -122 C107 -114 109 -100 112 -88 L147 78 C167 8 198 -17 266 -17 C336 -17 396 17 441 83 C483 145 511 244 511 331 C511 427 460 483 373 483 C305 483 264 459 213 387 L272 667 L84 667 L70 600 Z M312 403 C353 403 376 373 376 318 C376 268 356 182 335 141 C310 94 278 69 241 69 C197 69 171 103 171 161 C171 208 190 288 211 327 C237 376 273 403 312 403 L312 403 Z " />
<glyph glyph-name="ydieresis" unicode="&#xff;" horiz-adv-x="523" d="M158 0 C91 -115 56 -149 8 -149 C-11 -149 -19 -144 -32 -125 C-1 -125 13 -119 28 -103 C41 -89 48 -69 48 -50 C48 -19 29 0 -2 0 C-53 0 -97 -53 -97 -116 C-97 -176 -57 -214 5 -214 C92 -214 147 -158 270 56 L428 331 C462 385 478 400 509 402 L529 402 L543 469 L328 469 L313 402 L337 402 C361 402 373 397 373 385 C373 376 368 362 359 347 L242 140 L205 356 C204 360 204 360 204 368 C204 392 216 402 240 402 L271 402 L285 469 L27 469 L12 402 L39 402 C72 400 84 387 93 342 L158 0 Z M257 699 C211 699 169 659 169 616 C169 582 192 560 226 560 C270 560 310 600 310 643 C310 675 287 699 257 699 L257 699 Z M427 699 C382 699 339 659 339 617 C339 583 362 560 395 560 C440 560 480 599 480 643 C480 675 457 699 427 699 L427 699 Z " />
<glyph glyph-name="Amacron" unicode="&#x100;" horiz-adv-x="644" d="M-84 0 L195 0 L211 76 L165 76 C129 76 121 79 121 92 C121 100 125 110 135 129 L179 212 L377 212 L386 134 C387 124 388 113 388 110 C388 83 376 76 331 76 L283 76 L267 0 L577 0 L593 76 L575 76 C529 76 522 84 516 140 L450 667 L323 667 L44 140 C20 91 -3 76 -49 76 L-68 76 L-84 0 Z M369 290 L220 290 L340 522 L369 290 Z M266 750 L555 750 L572 829 L283 829 L266 750 Z " />
<glyph glyph-name="amacron" unicode="&#x101;" horiz-adv-x="510" d="M421 175 C404 92 392 65 372 65 C362 65 356 71 356 81 C356 88 357 94 358 100 L402 308 C409 341 414 373 414 387 C414 451 358 486 255 486 C139 486 51 423 51 342 C51 307 72 285 105 285 C147 285 181 320 181 363 C181 390 168 401 134 403 C163 424 186 432 221 432 C271 432 298 413 298 377 C298 357 292 336 283 321 C269 298 248 286 203 273 C108 248 75 235 44 212 C2 180 -24 130 -24 79 C-24 18 13 -18 76 -18 C139 -18 178 1 232 57 C239 3 262 -17 317 -17 C368 -17 406 4 432 47 C448 72 456 97 474 175 L421 175 Z M257 188 C241 111 201 65 151 65 C126 65 114 78 114 104 C114 144 141 182 184 202 L228 222 C235 226 249 234 269 245 L257 188 Z M160 588 L458 588 L475 670 L178 670 L160 588 Z " />
<glyph glyph-name="Abreve" unicode="&#x102;" horiz-adv-x="644" d="M-84 0 L195 0 L211 76 L165 76 C129 76 121 79 121 92 C121 100 125 110 135 129 L179 212 L377 212 L386 134 C387 124 388 113 388 110 C388 83 376 76 331 76 L283 76 L267 0 L577 0 L593 76 L575 76 C529 76 522 84 516 140 L450 667 L323 667 L44 140 C20 91 -3 76 -49 76 L-68 76 L-84 0 Z M369 290 L220 290 L340 522 L369 290 Z M277 858 C277 809 283 786 300 764 C322 736 359 720 404 720 C449 720 495 736 528 764 C555 786 569 808 590 858 L545 858 C521 820 489 806 423 806 C356 806 331 819 322 858 L277 858 Z " />
<glyph glyph-name="abreve" unicode="&#x103;" horiz-adv-x="510" d="M421 175 C404 92 392 65 372 65 C362 65 356 71 356 81 C356 88 357 94 358 100 L402 308 C409 341 414 373 414 387 C414 451 358 486 255 486 C139 486 51 423 51 342 C51 307 72 285 105 285 C147 285 181 320 181 363 C181 390 168 401 134 403 C163 424 186 432 221 432 C271 432 298 413 298 377 C298 357 292 336 283 321 C269 298 248 286 203 273 C108 248 75 235 44 212 C2 180 -24 130 -24 79 C-24 18 13 -18 76 -18 C139 -18 178 1 232 57 C239 3 262 -17 317 -17 C368 -17 406 4 432 47 C448 72 456 97 474 175 L421 175 Z M257 188 C241 111 201 65 151 65 C126 65 114 78 114 104 C114 144 141 182 184 202 L228 222 C235 226 249 234 269 245 L257 188 Z M176 704 C176 665 177 645 183 629 C199 583 243 555 301 555 C347 555 393 572 426 600 C454 624 469 648 492 704 L447 704 C421 658 391 644 322 644 C252 644 228 658 221 704 L176 704 Z " />
<glyph glyph-name="Aogonek" unicode="&#x104;" horiz-adv-x="644" d="M577 0 L593 76 L575 76 C529 76 522 84 516 140 L450 667 L323 667 L44 140 C20 91 -3 76 -49 76 L-68 76 L-84 0 L195 0 L211 76 L165 76 C128 76 121 79 121 93 C121 100 125 111 135 129 L179 212 L377 212 L386 134 C387 124 388 113 388 110 C388 83 376 76 331 76 L283 76 L267 0 L501 0 C414 -52 361 -117 361 -172 C361 -207 384 -227 424 -227 C469 -227 506 -201 546 -140 L533 -130 C508 -159 501 -164 483 -164 C466 -164 457 -153 457 -134 C457 -92 483 -46 534 0 L577 0 Z M369 290 L220 290 L340 522 L369 290 Z " />
<glyph glyph-name="aogonek" unicode="&#x105;" horiz-adv-x="510" d="M421 175 C404 91 392 64 372 64 C362 64 356 71 356 82 C356 87 357 94 358 100 L402 308 C409 341 414 373 414 387 C414 451 358 486 254 486 C139 486 51 423 51 341 C51 307 73 285 106 285 C147 285 181 320 181 364 C181 390 168 401 134 403 C163 424 186 432 221 432 C271 432 298 413 298 376 C298 357 292 335 283 321 C269 298 248 286 203 273 C108 248 75 235 44 212 C2 180 -24 130 -24 78 C-24 18 14 -18 76 -18 C139 -18 178 1 232 57 C238 7 254 -10 303 -17 C227 -72 191 -122 191 -173 C191 -207 213 -227 252 -227 C297 -227 334 -201 373 -140 L360 -130 C336 -159 328 -164 311 -164 C294 -164 285 -153 285 -134 C285 -94 313 -43 346 -23 C432 24 444 43 474 175 L421 175 Z M257 188 C241 111 201 65 151 65 C126 65 114 78 114 104 C114 144 141 182 184 202 L228 222 C235 226 249 234 269 245 L257 188 Z " />
<glyph glyph-name="Cacute" unicode="&#x106;" horiz-adv-x="635" d="M495 258 C467 185 450 155 418 123 C385 90 344 72 302 72 C223 72 174 129 174 221 C174 303 202 414 241 481 C286 562 347 605 414 605 C489 605 536 549 536 459 C536 446 535 424 534 404 L602 404 L660 677 L596 677 L566 617 C507 671 472 686 405 686 C206 686 21 473 21 242 C21 83 114 -19 260 -19 C345 -19 415 11 473 72 C518 119 539 160 571 258 L495 258 Z M360 721 L509 772 C543 784 564 807 564 831 C564 852 548 868 527 868 C510 868 495 861 470 842 L306 721 L360 721 Z " />
<glyph glyph-name="cacute" unicode="&#x107;" horiz-adv-x="460" d="M334 195 C303 107 269 72 212 72 C160 72 133 103 133 163 C133 207 146 268 167 316 C195 384 240 421 294 421 C323 421 338 413 364 385 C338 380 327 374 315 358 C303 343 297 324 297 307 C297 276 317 257 350 257 C400 257 441 307 441 369 C441 440 383 486 293 486 C130 486 -2 340 -2 160 C-2 48 61 -17 170 -17 C234 -17 290 6 330 48 C363 84 381 119 403 195 L334 195 Z M170 540 L225 540 L400 619 C445 639 464 659 464 688 C464 713 447 730 421 730 C397 730 376 719 335 683 L170 540 Z " />
<glyph glyph-name="Ccaron" unicode="&#x10c;" horiz-adv-x="635" d="M495 258 C467 185 450 155 418 123 C385 90 344 72 302 72 C223 72 174 129 174 221 C174 303 202 414 241 481 C286 562 347 605 414 605 C489 605 536 549 536 459 C536 446 535 424 534 404 L602 404 L660 677 L596 677 L566 617 C507 671 472 686 405 686 C206 686 21 473 21 242 C21 83 114 -19 260 -19 C345 -19 415 11 473 72 C518 119 539 160 571 258 L495 258 Z M274 858 L341 721 L457 721 L583 858 L536 858 L417 803 L321 858 L274 858 Z " />
<glyph glyph-name="ccaron" unicode="&#x10d;" horiz-adv-x="460" d="M334 195 C303 107 269 72 212 72 C160 72 133 103 133 163 C133 207 146 268 167 316 C195 384 240 421 294 421 C323 421 338 413 364 385 C338 380 327 374 315 358 C303 343 297 324 297 307 C297 276 317 257 350 257 C400 257 441 307 441 369 C441 440 383 486 293 486 C130 486 -2 340 -2 160 C-2 48 61 -17 170 -17 C234 -17 290 6 330 48 C363 84 381 119 403 195 L334 195 Z M157 719 L230 540 L319 540 L468 719 L420 719 L295 636 L206 719 L157 719 Z " />
<glyph glyph-name="Dcaron" unicode="&#x10e;" horiz-adv-x="724" d="M-48 0 L296 0 C421 0 514 39 586 122 C650 196 694 328 694 444 C694 516 667 580 621 618 C581 650 518 667 438 667 L94 667 L78 591 L109 591 C146 591 155 586 155 566 C155 559 153 546 150 530 L66 137 C55 83 47 75 0 76 L-32 76 L-48 0 Z M193 76 L303 591 L380 591 C442 591 474 584 497 567 C523 545 538 504 538 448 C538 357 510 250 469 179 C423 99 378 76 270 76 L193 76 Z M189 858 L256 721 L372 721 L498 858 L451 858 L332 803 L236 858 L189 858 Z " />
<glyph glyph-name="dcaron" unicode="&#x10f;" horiz-adv-x="559" d="M309 600 L351 600 C385 600 400 592 400 573 C400 567 398 555 395 541 L363 391 C343 461 312 486 245 486 C174 486 115 452 70 386 C28 324 0 224 0 138 C0 43 51 -14 138 -14 C206 -14 246 10 298 82 L280 0 L471 0 L485 67 L462 67 C434 67 422 74 422 91 C422 99 424 113 427 126 L542 667 L323 667 L309 600 Z M269 400 C313 400 339 366 339 309 C339 260 320 181 300 142 C274 93 238 66 200 66 C159 66 136 96 136 151 C136 201 156 287 177 328 C201 375 233 400 269 400 L269 400 Z M571 443 C620 448 648 461 676 488 C707 519 727 564 727 603 C727 641 701 666 661 666 C618 666 582 634 582 595 C582 571 598 555 623 555 C636 555 645 558 664 567 C648 512 625 490 579 483 L571 443 Z " />
<glyph glyph-name="Dcroat" unicode="&#x110;" horiz-adv-x="729" d="M-47 0 L295 0 C421 0 514 39 587 122 C651 196 695 327 695 442 C695 516 668 580 621 618 C581 650 517 667 437 667 L95 667 L79 591 L111 591 C149 591 158 586 158 565 C158 559 156 546 153 530 L120 377 L9 377 L-5 308 L105 308 L69 137 C58 83 50 75 1 76 L-31 76 L-47 0 Z M196 76 L246 308 L389 308 L404 377 L260 377 L306 591 L380 591 C443 591 475 584 497 567 C524 545 539 503 539 448 C539 357 511 249 470 178 C423 99 379 76 271 76 L196 76 Z " />
<glyph glyph-name="dcroat" unicode="&#x111;" horiz-adv-x="559" d="M521 571 L542 667 L323 667 L309 600 L351 600 C389 599 401 591 400 571 L265 571 L252 513 L389 513 L363 391 C343 461 312 486 245 486 C174 486 115 452 70 386 C28 324 0 224 0 138 C0 43 51 -14 138 -14 C206 -14 246 10 298 82 L280 0 L471 0 L485 67 L462 67 C434 67 422 74 422 92 C422 99 424 114 427 126 L509 513 L572 513 L585 571 L521 571 Z M269 400 C313 400 339 366 339 309 C339 260 320 181 300 142 C274 93 238 66 200 66 C159 66 136 96 136 151 C136 201 156 287 177 328 C201 375 233 400 269 400 L269 400 Z " />
<glyph glyph-name="Emacron" unicode="&#x112;" horiz-adv-x="675" d="M-48 0 L542 0 L602 283 L534 283 C484 112 451 75 346 76 L195 76 L245 310 L279 310 C335 310 349 299 349 256 C349 236 347 218 340 174 L406 174 L477 507 L411 507 C380 397 371 389 294 386 L261 386 L305 591 L443 591 C545 591 570 571 570 492 C570 467 567 446 559 402 L627 402 L684 667 L94 667 L78 591 L110 591 C148 591 157 586 157 565 C157 559 155 547 151 529 L68 138 C57 83 49 75 0 76 L-32 76 L-48 0 Z M264 750 L553 750 L570 829 L280 829 L264 750 Z " />
<glyph glyph-name="emacron" unicode="&#x113;" horiz-adv-x="478" d="M337 167 C301 88 268 62 204 62 C149 62 119 95 119 156 C119 171 122 199 126 225 L427 225 C434 266 439 308 439 334 C439 429 381 486 282 486 C207 486 141 456 88 398 C32 337 -2 248 -2 164 C-2 49 62 -18 172 -18 C226 -18 276 -2 319 30 C363 62 385 95 412 167 L337 167 Z M144 295 C178 383 215 420 267 420 C306 420 327 396 327 352 C327 335 326 316 323 295 L144 295 Z M145 588 L442 588 L459 670 L162 670 L145 588 Z " />
<glyph glyph-name="Edotaccent" unicode="&#x116;" horiz-adv-x="675" d="M-48 0 L542 0 L602 283 L534 283 C484 112 451 75 346 76 L195 76 L245 310 L279 310 C335 310 349 299 349 256 C349 236 347 218 340 174 L406 174 L477 507 L411 507 C380 397 371 389 294 386 L261 386 L305 591 L443 591 C545 591 570 571 570 492 C570 467 567 446 559 402 L627 402 L684 667 L94 667 L78 591 L110 591 C148 591 157 586 157 565 C157 559 155 547 151 529 L68 138 C57 83 49 75 0 76 L-32 76 L-48 0 Z M406 862 C361 862 318 821 318 779 C318 745 341 721 373 721 C418 721 461 762 461 804 C461 836 437 862 406 862 L406 862 Z " />
<glyph glyph-name="edotaccent" unicode="&#x117;" horiz-adv-x="478" d="M337 167 C301 88 268 62 204 62 C149 62 119 95 119 156 C119 171 122 199 126 225 L427 225 C434 266 439 308 439 334 C439 429 381 486 282 486 C207 486 141 456 88 398 C32 337 -2 248 -2 164 C-2 49 62 -18 172 -18 C226 -18 276 -2 319 30 C363 62 385 95 412 167 L337 167 Z M144 295 C178 383 215 420 267 420 C306 420 327 396 327 352 C327 335 326 316 323 295 L144 295 Z M321 702 C274 702 229 660 229 617 C229 581 253 557 289 557 C334 557 376 599 376 643 C376 677 353 702 321 702 L321 702 Z " />
<glyph glyph-name="Eogonek" unicode="&#x118;" horiz-adv-x="675" d="M542 0 L602 283 L534 283 C484 112 451 75 346 76 L195 76 L245 310 L279 310 C335 310 349 299 349 256 C349 236 347 218 340 174 L406 174 L477 507 L411 507 C380 397 371 389 294 386 L261 386 L305 591 L443 591 C545 591 570 571 570 491 C570 467 567 446 559 402 L627 402 L684 667 L94 667 L78 591 L110 591 C149 591 157 586 157 565 C157 558 155 547 151 529 L68 138 C57 83 49 75 0 76 L-32 76 L-48 0 L471 0 C384 -52 331 -117 331 -172 C331 -207 354 -227 394 -227 C439 -227 476 -201 516 -140 L503 -130 C478 -159 471 -164 453 -164 C436 -164 427 -153 427 -134 C427 -92 453 -46 504 0 L542 0 Z " />
<glyph glyph-name="eogonek" unicode="&#x119;" horiz-adv-x="478" d="M337 167 C301 88 268 62 203 62 C149 62 119 95 119 156 C119 171 122 199 126 225 L427 225 C434 266 439 308 439 334 C439 429 381 486 282 486 C207 486 141 456 88 398 C32 336 -2 248 -2 162 C-2 48 62 -18 172 -18 L180 -18 C104 -73 68 -122 68 -173 C68 -207 90 -227 129 -227 C174 -227 212 -200 251 -140 L238 -130 C213 -159 206 -164 188 -164 C171 -164 162 -153 162 -133 C162 -115 169 -93 182 -68 C199 -35 214 -20 243 -8 C262 0 280 8 298 16 C307 19 327 34 346 53 C377 85 388 105 412 167 L337 167 Z M144 295 C178 383 215 420 267 420 C306 420 327 396 327 352 C327 335 326 316 323 295 L144 295 Z " />
<glyph glyph-name="Ecaron" unicode="&#x11a;" horiz-adv-x="675" d="M-48 0 L542 0 L602 283 L534 283 C484 112 451 75 346 76 L195 76 L245 310 L279 310 C335 310 349 299 349 256 C349 236 347 218 340 174 L406 174 L477 507 L411 507 C380 397 371 389 294 386 L261 386 L305 591 L443 591 C545 591 570 571 570 492 C570 467 567 446 559 402 L627 402 L684 667 L94 667 L78 591 L110 591 C148 591 157 586 157 565 C157 559 155 547 151 529 L68 138 C57 83 49 75 0 76 L-32 76 L-48 0 Z M270 858 L337 721 L453 721 L579 858 L532 858 L413 803 L317 858 L270 858 Z " />
<glyph glyph-name="ecaron" unicode="&#x11b;" horiz-adv-x="478" d="M337 167 C301 88 268 62 204 62 C149 62 119 95 119 156 C119 171 122 199 126 225 L427 225 C434 266 439 308 439 334 C439 429 381 486 282 486 C207 486 141 456 88 398 C32 337 -2 248 -2 164 C-2 49 62 -18 172 -18 C226 -18 276 -2 319 30 C363 62 385 95 412 167 L337 167 Z M144 295 C178 383 215 420 267 420 C306 420 327 396 327 352 C327 335 326 316 323 295 L144 295 Z M165 719 L238 540 L328 540 L477 719 L428 719 L303 636 L214 719 L165 719 Z " />
<glyph glyph-name="Gbreve" unicode="&#x11e;" horiz-adv-x="706" d="M470 -4 L546 -4 L593 219 C605 274 611 280 651 281 L686 281 L702 357 L385 357 L369 281 L404 281 C452 281 461 277 461 258 C461 251 459 240 457 226 L449 189 C440 149 429 129 404 108 C375 83 337 69 299 69 C221 69 175 125 175 222 C175 305 201 407 239 478 C284 560 344 605 410 605 C454 605 491 583 513 543 C533 509 538 478 538 410 L611 410 L666 671 L599 671 L561 613 C507 672 474 687 405 687 C203 687 21 475 21 240 C21 82 111 -19 253 -19 C324 -19 366 -4 448 52 L470 -4 Z M282 858 C282 809 288 786 305 764 C327 736 365 720 409 720 C455 720 500 736 534 764 C560 786 574 808 596 858 L551 858 C527 820 495 806 429 806 C362 806 336 819 327 858 L282 858 Z " />
<glyph glyph-name="gbreve" unicode="&#x11f;" horiz-adv-x="594" d="M142 81 C110 81 101 87 101 107 C101 121 106 131 121 149 C164 136 183 132 215 132 C287 132 349 155 389 196 C429 236 454 295 454 348 C454 363 452 377 445 403 C472 432 492 444 513 444 C524 444 530 441 540 431 C502 419 484 396 484 361 C484 335 503 316 530 316 C572 316 607 360 607 413 C607 460 578 486 528 486 C493 486 469 475 431 441 C389 474 353 486 293 486 C157 486 52 392 52 270 C52 234 60 213 88 175 C18 146 -15 108 -15 56 C-15 21 0 2 41 -13 C-3 -28 -22 -37 -38 -55 C-53 -71 -62 -94 -62 -117 C-62 -179 11 -214 139 -214 C237 -214 324 -192 367 -156 C409 -122 435 -72 435 -24 C435 4 427 27 411 44 C387 71 348 81 264 81 L142 81 Z M277 428 C310 428 326 409 326 369 C326 336 313 278 300 248 C284 213 260 195 228 195 C196 195 181 213 181 253 C181 280 189 324 201 358 C217 404 243 428 277 428 L277 428 Z M185 -25 C292 -25 324 -36 324 -73 C324 -127 259 -157 144 -157 C48 -157 2 -138 2 -100 C2 -80 16 -58 37 -45 C59 -31 104 -25 185 -25 L185 -25 Z M181 704 C181 665 183 645 189 629 C205 583 249 555 307 555 C353 555 399 572 432 600 C459 624 475 648 498 704 L452 704 C426 658 396 644 328 644 C258 644 234 658 226 704 L181 704 Z " />
<glyph glyph-name="Gcommaaccent" unicode="&#x122;" horiz-adv-x="706" d="M470 -4 L546 -4 L593 219 C605 274 611 280 651 281 L686 281 L702 357 L385 357 L369 281 L404 281 C452 281 461 277 461 258 C461 251 459 240 457 226 L449 189 C440 149 429 129 404 108 C375 83 337 69 299 69 C221 69 175 125 175 222 C175 305 201 407 239 478 C284 560 344 605 410 605 C454 605 491 583 513 543 C533 509 538 478 538 410 L611 410 L666 671 L599 671 L561 613 C507 672 474 687 405 687 C203 687 21 475 21 240 C21 82 111 -19 253 -19 C324 -19 366 -4 448 52 L470 -4 Z M170 -280 C219 -275 247 -263 275 -235 C306 -204 326 -159 326 -120 C326 -82 300 -57 261 -57 C218 -57 182 -89 182 -128 C182 -152 198 -168 223 -168 C235 -168 244 -165 263 -157 C247 -210 224 -233 179 -240 L170 -280 Z " />
<glyph glyph-name="gcommaaccent" unicode="&#x123;" horiz-adv-x="594" d="M142 81 C110 81 101 87 101 107 C101 121 106 131 121 149 C164 136 183 132 215 132 C287 132 349 155 389 196 C429 236 454 295 454 348 C454 363 452 377 445 403 C472 432 492 444 513 444 C524 444 530 441 540 431 C502 419 484 396 484 361 C484 335 503 316 530 316 C572 316 607 360 607 413 C607 460 578 486 528 486 C493 486 469 475 431 441 C389 474 353 486 293 486 C157 486 52 392 52 270 C52 234 60 213 88 175 C18 146 -15 108 -15 56 C-15 21 0 2 41 -13 C-3 -28 -22 -37 -38 -55 C-53 -71 -62 -94 -62 -117 C-62 -179 11 -214 139 -214 C237 -214 324 -192 367 -156 C409 -122 435 -72 435 -24 C435 4 427 27 411 44 C387 71 348 81 264 81 L142 81 Z M277 428 C310 428 326 409 326 369 C326 336 313 278 300 248 C284 213 260 195 228 195 C196 195 181 213 181 253 C181 280 189 324 201 358 C217 404 243 428 277 428 L277 428 Z M185 -25 C292 -25 324 -36 324 -73 C324 -127 259 -157 144 -157 C48 -157 2 -138 2 -100 C2 -80 16 -58 37 -45 C59 -31 104 -25 185 -25 L185 -25 Z M409 749 C360 744 332 732 304 704 C273 673 253 628 253 589 C253 551 279 526 319 526 C362 526 398 558 398 597 C398 621 382 637 357 637 C344 637 335 634 316 626 C332 679 355 702 401 709 L409 749 Z " />
<glyph glyph-name="Imacron" unicode="&#x12a;" horiz-adv-x="371" d="M-47 0 L276 0 L292 76 L257 76 C218 76 209 81 209 102 C209 107 210 115 215 137 L298 530 C310 584 318 592 366 591 L402 591 L418 667 L95 667 L79 591 L114 591 C152 591 161 586 161 565 C161 558 159 545 156 530 L73 137 C61 83 53 75 5 76 L-31 76 L-47 0 Z M129 750 L419 750 L435 829 L146 829 L129 750 Z " />
<glyph glyph-name="imacron" unicode="&#x12b;" horiz-adv-x="313" d="M-48 0 L223 0 L237 67 L213 67 C185 67 173 74 173 92 C173 99 175 111 178 126 L251 469 L52 469 L38 402 L70 402 C100 402 113 395 113 377 C113 368 111 355 109 343 L63 126 C52 76 44 69 -2 67 L-34 67 L-48 0 Z M62 588 L360 588 L377 670 L80 670 L62 588 Z " />
<glyph glyph-name="Iogonek" unicode="&#x12e;" horiz-adv-x="371" d="M276 0 L292 76 L257 76 C218 76 209 81 209 102 C209 107 210 116 215 137 L298 530 C310 584 318 592 366 591 L402 591 L418 667 L95 667 L79 591 L114 591 C153 591 161 586 161 565 C161 558 159 544 156 530 L73 137 C61 83 53 75 5 76 L-31 76 L-47 0 L206 0 C120 -51 67 -117 67 -172 C67 -207 90 -227 130 -227 C175 -227 210 -201 251 -140 L238 -130 C214 -158 206 -164 189 -164 C172 -164 163 -153 163 -134 C163 -92 190 -45 239 0 L276 0 Z " />
<glyph glyph-name="iogonek" unicode="&#x12f;" horiz-adv-x="313" d="M223 0 L237 67 L213 67 C185 67 173 74 173 92 C173 99 175 112 178 126 L251 469 L52 469 L38 402 L70 402 C101 402 113 395 113 376 C113 368 111 355 109 343 L63 126 C52 76 44 69 -2 67 L-34 67 L-48 0 L168 0 C82 -52 29 -117 29 -172 C29 -207 52 -227 92 -227 C137 -227 173 -201 213 -140 L200 -130 C176 -159 169 -164 151 -164 C134 -164 125 -153 125 -134 C125 -92 151 -46 202 0 L223 0 Z M227 675 C179 675 134 632 134 586 C134 552 159 527 193 527 C241 527 285 570 285 616 C285 650 260 675 227 675 L227 675 Z " />
<glyph glyph-name="Idotaccent" unicode="&#x130;" horiz-adv-x="371" d="M-47 0 L276 0 L292 76 L257 76 C218 76 209 81 209 102 C209 107 210 115 215 137 L298 530 C310 584 318 592 366 591 L402 591 L418 667 L95 667 L79 591 L114 591 C152 591 161 586 161 565 C161 558 159 545 156 530 L73 137 C61 83 53 75 5 76 L-31 76 L-47 0 Z M300 862 C255 862 211 821 211 779 C211 745 234 721 267 721 C311 721 355 762 355 804 C355 836 330 862 300 862 L300 862 Z " />
<glyph glyph-name="dotlessi" unicode="&#x131;" horiz-adv-x="313" d="M-48 0 L223 0 L237 67 L213 67 C185 67 173 74 173 92 C173 99 175 111 178 126 L251 469 L52 469 L38 402 L70 402 C100 402 113 395 113 377 C113 368 111 355 109 343 L63 126 C52 76 44 69 -2 67 L-34 67 L-48 0 Z " />
<glyph glyph-name="Kcommaaccent" unicode="&#x136;" horiz-adv-x="693" d="M224 229 L336 324 L418 128 C422 117 425 105 425 98 C425 81 415 76 383 76 L335 76 L318 0 L651 0 L667 76 L638 76 C591 76 583 82 562 126 L441 414 L548 503 C629 570 667 590 719 591 L739 591 L755 667 L453 667 L437 591 L476 591 C499 591 509 588 509 580 C509 574 501 564 489 553 L248 342 L288 530 C299 584 308 592 356 591 L383 591 L399 667 L94 667 L78 591 L110 591 C148 591 157 586 157 566 C157 559 155 546 152 530 L68 137 C57 83 49 75 0 76 L-32 76 L-48 0 L252 0 L268 76 L246 76 C208 76 199 81 199 102 C199 107 200 115 205 137 L224 229 Z M164 -280 C213 -275 241 -263 269 -235 C300 -204 320 -159 320 -120 C320 -82 294 -57 255 -57 C212 -57 176 -89 176 -128 C176 -152 192 -168 217 -168 C229 -168 238 -165 257 -157 C241 -210 218 -233 172 -240 L164 -280 Z " />
<glyph glyph-name="kcommaaccent" unicode="&#x137;" horiz-adv-x="572" d="M191 241 L282 667 L94 667 L80 600 L103 600 C133 600 146 593 146 574 C146 567 144 553 142 541 L53 126 C43 76 35 69 -11 67 L-34 67 L-48 0 L196 0 L211 67 L201 67 C174 67 162 74 162 91 C162 99 164 111 167 126 L172 149 L266 223 L313 108 C316 100 318 91 318 85 C318 74 306 67 289 67 L259 67 L245 0 L503 0 L518 67 L497 67 C463 68 442 84 426 123 L356 289 L455 365 C495 395 505 400 540 402 L558 402 L573 469 L306 469 L292 402 L340 402 C364 402 369 400 369 391 C369 384 364 377 348 364 L191 241 Z M104 -280 C152 -275 181 -263 209 -235 C240 -204 260 -159 260 -120 C260 -82 234 -57 194 -57 C151 -57 115 -89 115 -128 C115 -152 131 -168 156 -168 C169 -168 178 -165 197 -157 C181 -210 158 -233 112 -240 L104 -280 Z " />
<glyph glyph-name="Lacute" unicode="&#x139;" horiz-adv-x="621" d="M94 667 L78 591 L110 591 C148 591 157 586 157 565 C157 559 155 547 151 530 L68 137 C57 83 49 75 0 76 L-32 76 L-48 0 L509 0 L570 288 L502 288 C464 113 426 73 299 76 L195 76 L292 530 C303 584 311 592 360 591 L399 591 L415 667 L94 667 Z M355 721 L503 772 C537 784 558 807 558 831 C558 852 542 868 521 868 C504 868 489 861 464 842 L301 721 L355 721 Z " />
<glyph glyph-name="lacute" unicode="&#x13a;" horiz-adv-x="304" d="M283 667 L89 667 L75 600 L102 600 C132 600 145 593 145 574 C145 566 143 553 141 541 L53 126 C42 76 34 69 -11 67 L-39 67 L-53 0 L214 0 L228 67 L203 67 C175 67 163 74 163 92 C163 99 165 110 168 126 L283 667 Z M181 721 L236 721 L411 800 C456 820 475 840 475 869 C475 894 458 911 432 911 C408 911 388 900 347 864 L181 721 Z " />
<glyph glyph-name="Lcommaaccent" unicode="&#x13b;" horiz-adv-x="621" d="M94 667 L78 591 L110 591 C148 591 157 586 157 565 C157 559 155 547 151 530 L68 137 C57 83 49 75 0 76 L-32 76 L-48 0 L509 0 L570 288 L502 288 C464 113 426 73 299 76 L195 76 L292 530 C303 584 311 592 360 591 L399 591 L415 667 L94 667 Z M128 -280 C177 -275 205 -263 233 -235 C264 -204 284 -159 284 -120 C284 -82 258 -57 219 -57 C176 -57 140 -89 140 -128 C140 -152 156 -168 181 -168 C193 -168 202 -165 221 -157 C205 -210 182 -233 137 -240 L128 -280 Z " />
<glyph glyph-name="lcommaaccent" unicode="&#x13c;" horiz-adv-x="304" d="M283 667 L89 667 L75 600 L102 600 C132 600 145 593 145 574 C145 566 143 553 141 541 L53 126 C42 76 34 69 -11 67 L-39 67 L-53 0 L214 0 L228 67 L203 67 C175 67 163 74 163 92 C163 99 165 110 168 126 L283 667 Z M-31 -280 C18 -275 46 -263 74 -235 C105 -204 125 -159 125 -120 C125 -82 99 -57 60 -57 C17 -57 -19 -89 -19 -128 C-19 -152 -3 -168 22 -168 C34 -168 43 -165 62 -157 C46 -210 23 -233 -23 -240 L-31 -280 Z " />
<glyph glyph-name="Lcaron" unicode="&#x13d;" horiz-adv-x="621" d="M94 667 L78 591 L110 591 C148 591 157 586 157 565 C157 559 155 547 151 530 L68 137 C57 83 49 75 0 76 L-32 76 L-48 0 L509 0 L570 288 L502 288 C464 113 426 73 299 76 L195 76 L292 530 C303 584 311 592 360 591 L399 591 L415 667 L94 667 Z M451 456 C495 462 521 474 547 502 C576 534 595 580 595 620 C595 656 572 680 538 680 C498 680 465 646 465 607 C465 583 479 568 501 568 C512 568 520 571 537 580 C522 526 501 504 459 496 L451 456 Z " />
<glyph glyph-name="lcaron" unicode="&#x13e;" horiz-adv-x="304" d="M283 667 L89 667 L75 600 L102 600 C132 600 145 593 145 574 C145 566 143 553 141 541 L53 126 C42 76 34 69 -11 67 L-39 67 L-53 0 L214 0 L228 67 L203 67 C175 67 163 74 163 92 C163 99 165 110 168 126 L283 667 Z M312 454 C361 459 389 472 417 500 C448 531 468 576 468 615 C468 653 442 678 403 678 C360 678 324 645 324 606 C324 582 340 566 365 566 C377 566 386 569 405 578 C389 524 367 501 321 494 L312 454 Z " />
<glyph glyph-name="Lslash" unicode="&#x141;" horiz-adv-x="626" d="M96 667 L80 591 L112 591 C150 591 159 586 159 565 C159 559 157 547 153 530 L108 317 L-18 227 L-36 147 L91 236 L70 137 C59 83 51 75 2 76 L-30 76 L-46 0 L511 0 L572 288 L504 288 C466 113 428 73 301 76 L197 76 L244 297 L418 418 L435 499 L262 378 L294 530 C305 584 313 592 362 591 L401 591 L417 667 L96 667 Z " />
<glyph glyph-name="lslash" unicode="&#x142;" horiz-adv-x="313" d="M91 282 L58 126 C47 76 39 69 -6 67 L-34 67 L-48 0 L219 0 L233 67 L208 67 C180 67 168 74 168 92 C168 99 170 110 173 126 L217 335 L331 412 L344 476 L231 398 L288 667 L94 667 L80 600 L107 600 C138 600 151 593 151 574 C151 568 149 558 146 541 L104 346 L-9 273 L-22 209 L91 282 Z " />
<glyph glyph-name="Nacute" unicode="&#x143;" horiz-adv-x="733" d="M563 0 L675 530 C686 584 695 592 744 591 L771 591 L787 667 L504 667 L488 591 L527 591 C567 591 576 586 576 565 C576 558 574 548 570 530 L497 183 L341 667 L83 667 L67 591 L103 591 C143 591 152 586 152 565 C152 558 151 550 146 530 L63 137 C52 83 44 75 -6 76 L-46 76 L-62 0 L233 0 L250 76 L211 76 C171 76 162 81 162 102 C162 109 163 115 168 137 L254 543 L427 0 L563 0 Z M410 721 L558 772 C592 784 613 807 613 831 C613 852 598 868 576 868 C560 868 545 861 519 842 L356 721 L410 721 Z " />
<glyph glyph-name="nacute" unicode="&#x144;" horiz-adv-x="585" d="M-48 0 L209 0 L224 67 L206 67 C175 67 162 74 162 93 C162 100 164 111 167 126 L193 247 C205 304 216 329 241 358 C268 389 301 407 333 407 C362 407 383 387 383 360 C383 350 380 331 376 311 L337 126 C326 76 319 69 277 67 L261 67 L247 0 L500 0 L514 67 L491 67 C463 67 451 74 451 91 C451 99 452 107 456 126 L496 311 C502 342 506 372 506 393 C506 448 463 484 398 484 C339 484 295 459 222 387 L240 469 L52 469 L38 402 L67 402 C97 402 110 394 110 376 C110 369 108 356 105 343 L59 126 C49 76 41 69 -5 67 L-34 67 L-48 0 Z M233 540 L288 540 L463 619 C507 639 526 659 526 688 C526 713 509 730 483 730 C459 730 439 719 398 683 L233 540 Z " />
<glyph glyph-name="Ncommaaccent" unicode="&#x145;" horiz-adv-x="733" d="M563 0 L675 530 C686 584 695 592 744 591 L771 591 L787 667 L504 667 L488 591 L527 591 C567 591 576 586 576 565 C576 558 574 548 570 530 L497 183 L341 667 L83 667 L67 591 L103 591 C143 591 152 586 152 565 C152 558 151 550 146 530 L63 137 C52 83 44 75 -6 76 L-46 76 L-62 0 L233 0 L250 76 L211 76 C171 76 162 81 162 102 C162 109 163 115 168 137 L254 543 L427 0 L563 0 Z M183 -280 C232 -275 261 -263 289 -235 C320 -204 340 -159 340 -120 C340 -82 314 -57 274 -57 C231 -57 195 -89 195 -128 C195 -152 211 -168 236 -168 C249 -168 257 -165 276 -157 C261 -210 238 -233 192 -240 L183 -280 Z " />
<glyph glyph-name="ncommaaccent" unicode="&#x146;" horiz-adv-x="585" d="M-48 0 L209 0 L224 67 L206 67 C175 67 162 74 162 93 C162 100 164 111 167 126 L193 247 C205 304 216 329 241 358 C268 389 301 407 333 407 C362 407 383 387 383 360 C383 350 380 331 376 311 L337 126 C326 76 319 69 277 67 L261 67 L247 0 L500 0 L514 67 L491 67 C463 67 451 74 451 91 C451 99 452 107 456 126 L496 311 C502 342 506 372 506 393 C506 448 463 484 398 484 C339 484 295 459 222 387 L240 469 L52 469 L38 402 L67 402 C97 402 110 394 110 376 C110 369 108 356 105 343 L59 126 C49 76 41 69 -5 67 L-34 67 L-48 0 Z M110 -280 C159 -275 187 -263 215 -235 C246 -204 266 -159 266 -120 C266 -82 240 -57 201 -57 C158 -57 122 -89 122 -128 C122 -152 138 -168 163 -168 C175 -168 184 -165 203 -157 C188 -210 164 -233 119 -240 L110 -280 Z " />
<glyph glyph-name="Ncaron" unicode="&#x147;" horiz-adv-x="733" d="M563 0 L675 530 C686 584 695 592 744 591 L771 591 L787 667 L504 667 L488 591 L527 591 C567 591 576 586 576 565 C576 558 574 548 570 530 L497 183 L341 667 L83 667 L67 591 L103 591 C143 591 152 586 152 565 C152 558 151 550 146 530 L63 137 C52 83 44 75 -6 76 L-46 76 L-62 0 L233 0 L250 76 L211 76 C171 76 162 81 162 102 C162 109 163 115 168 137 L254 543 L427 0 L563 0 Z M324 858 L391 721 L507 721 L632 858 L585 858 L466 803 L370 858 L324 858 Z " />
<glyph glyph-name="ncaron" unicode="&#x148;" horiz-adv-x="585" d="M-48 0 L209 0 L224 67 L206 67 C175 67 162 74 162 93 C162 100 164 111 167 126 L193 247 C205 304 216 329 241 358 C268 389 301 407 333 407 C362 407 383 387 383 360 C383 350 380 331 376 311 L337 126 C326 76 319 69 277 67 L261 67 L247 0 L500 0 L514 67 L491 67 C463 67 451 74 451 91 C451 99 452 107 456 126 L496 311 C502 342 506 372 506 393 C506 448 463 484 398 484 C339 484 295 459 222 387 L240 469 L52 469 L38 402 L67 402 C97 402 110 394 110 376 C110 369 108 356 105 343 L59 126 C49 76 41 69 -5 67 L-34 67 L-48 0 Z M220 719 L292 540 L382 540 L531 719 L482 719 L358 636 L268 719 L220 719 Z " />
<glyph glyph-name="Omacron" unicode="&#x14c;" horiz-adv-x="724" d="M436 686 C323 686 219 639 140 552 C66 471 22 353 22 238 C22 79 123 -19 287 -19 C402 -19 504 27 583 115 C657 196 702 315 702 427 C702 588 601 686 436 686 L436 686 Z M419 607 C500 607 549 546 549 448 C549 369 521 253 486 190 C441 107 376 60 305 60 C224 60 175 120 175 219 C175 298 203 414 238 477 C283 561 348 607 419 607 L419 607 Z M306 750 L595 750 L612 829 L323 829 L306 750 Z " />
<glyph glyph-name="omacron" unicode="&#x14d;" horiz-adv-x="527" d="M295 486 C129 486 -3 344 -3 166 C-3 52 70 -17 189 -17 C273 -17 344 15 402 77 C455 135 488 220 488 302 C488 417 416 486 295 486 L295 486 Z M281 416 C330 416 356 384 356 323 C356 266 335 177 311 130 C285 79 249 53 204 53 C154 53 129 84 129 146 C129 203 149 291 174 339 C200 390 236 416 281 416 L281 416 Z M169 588 L466 588 L484 670 L186 670 L169 588 Z " />
<glyph glyph-name="Ohungarumlaut" unicode="&#x150;" horiz-adv-x="724" d="M436 686 C323 686 219 639 140 552 C66 471 22 353 22 238 C22 79 123 -19 287 -19 C402 -19 504 27 583 115 C657 196 702 315 702 427 C702 588 601 686 436 686 L436 686 Z M419 607 C500 607 549 546 549 448 C549 369 521 253 486 190 C441 107 376 60 305 60 C224 60 175 120 175 219 C175 298 203 414 238 477 C283 561 348 607 419 607 L419 607 Z M395 721 L503 786 C526 800 540 818 540 836 C540 854 524 869 505 869 C487 869 471 858 449 831 L357 721 L395 721 Z M513 721 L647 783 C677 797 692 813 692 833 C692 852 677 868 659 868 C642 868 625 859 602 838 L474 721 L513 721 Z " />
<glyph glyph-name="ohungarumlaut" unicode="&#x151;" horiz-adv-x="527" d="M295 486 C129 486 -3 344 -3 166 C-3 52 70 -17 189 -17 C273 -17 344 15 402 77 C455 135 488 220 488 302 C488 417 416 486 295 486 L295 486 Z M281 416 C330 416 356 384 356 323 C356 266 335 177 311 130 C285 79 249 53 204 53 C154 53 129 84 129 146 C129 203 149 291 174 339 C200 390 236 416 281 416 L281 416 Z M221 540 L265 540 L394 637 C421 657 435 677 435 695 C435 717 421 731 399 731 C372 731 355 718 320 671 L221 540 Z M338 540 L382 540 L542 631 C575 650 592 671 592 692 C592 714 577 729 556 729 C530 729 516 720 476 680 L338 540 Z " />
<glyph glyph-name="OE" unicode="&#x152;" horiz-adv-x="1113" d="M1118 667 L728 667 L444 686 C327 686 221 639 141 551 C66 470 21 353 21 241 C21 81 126 -19 295 -19 C332 -19 388 -16 443 -10 C507 -3 566 1 586 0 L976 0 L1036 283 L968 283 C919 112 886 75 782 76 L633 76 L682 311 L716 311 C771 311 785 300 785 256 C785 237 783 219 776 174 L842 174 L913 507 L847 507 C816 398 807 389 731 386 L699 386 L742 591 L879 591 C979 591 1004 571 1004 494 C1004 468 1002 447 994 402 L1061 402 L1118 667 Z M505 138 C497 99 492 88 477 80 C451 67 394 57 342 57 C231 57 175 113 175 225 C175 335 214 457 274 529 C319 583 380 610 461 610 C503 610 541 604 571 593 C588 587 594 580 594 565 C594 558 592 544 589 529 L505 138 Z " />
<glyph glyph-name="oe" unicode="&#x153;" horiz-adv-x="822" d="M683 167 C663 122 650 103 629 87 C608 71 576 61 547 61 C496 61 463 97 463 155 C463 169 467 199 472 225 L773 225 C780 266 785 308 785 334 C785 428 727 486 631 486 C566 486 522 468 455 415 C404 466 359 486 292 486 C131 486 -2 342 -2 167 C-2 54 71 -17 186 -17 C264 -17 318 6 381 67 C397 40 408 26 422 15 C449 -5 489 -17 531 -17 C590 -17 635 1 680 42 C718 76 734 103 758 167 L683 167 Z M289 416 C343 416 371 383 371 320 C371 263 350 176 325 130 C298 79 260 53 213 53 C159 53 131 85 131 148 C131 208 151 292 177 339 C204 390 242 416 289 416 L289 416 Z M490 295 C523 389 552 420 610 420 C652 420 673 398 673 352 C673 335 672 316 669 295 L490 295 Z " />
<glyph glyph-name="Racute" unicode="&#x154;" horiz-adv-x="693" d="M290 76 L250 76 C212 76 203 81 203 102 C203 108 205 122 208 137 L246 314 L285 314 C369 314 399 295 399 242 C399 226 397 203 393 181 L379 103 C377 93 376 84 376 72 C376 11 407 -19 470 -19 C523 -19 566 5 591 48 C610 82 619 109 636 190 L579 190 C558 96 550 78 529 78 C515 78 509 84 509 99 C509 109 510 122 512 135 L521 194 C526 221 528 242 528 253 C528 275 518 296 500 311 C486 323 467 330 432 337 C507 350 541 364 577 397 C618 433 643 489 643 545 C643 630 585 667 452 667 L94 667 L78 591 L110 591 C148 591 157 586 157 565 C157 559 155 547 151 529 L68 137 C57 83 49 75 0 76 L-32 76 L-48 0 L274 0 L290 76 Z M262 390 L305 591 L401 591 C471 591 493 575 493 524 C493 493 483 459 467 435 C444 403 414 390 360 390 L262 390 Z M320 721 L468 772 C502 784 523 807 523 831 C523 852 507 868 486 868 C469 868 454 861 429 842 L266 721 L320 721 Z " />
<glyph glyph-name="racute" unicode="&#x155;" horiz-adv-x="443" d="M250 67 L206 67 C175 67 162 75 162 93 C162 100 164 111 167 126 L194 253 C204 301 224 347 249 377 C274 408 308 429 332 429 C341 429 355 425 370 419 C323 403 300 376 300 337 C300 308 318 291 351 291 C401 291 443 341 443 399 C443 450 409 482 357 482 C308 482 272 459 225 399 L240 469 L52 469 L38 402 L67 402 C97 402 110 395 110 377 C110 369 108 357 105 343 L59 126 C49 77 41 70 -5 67 L-34 67 L-48 0 L236 0 L250 67 Z M161 540 L216 540 L391 619 C436 639 455 659 455 688 C455 713 438 730 412 730 C388 730 367 719 327 683 L161 540 Z " />
<glyph glyph-name="Rcommaaccent" unicode="&#x156;" horiz-adv-x="693" d="M290 76 L250 76 C212 76 203 81 203 102 C203 108 205 122 208 137 L246 314 L285 314 C369 314 399 295 399 242 C399 226 397 203 393 181 L379 103 C377 93 376 84 376 72 C376 11 407 -19 470 -19 C523 -19 566 5 591 48 C610 82 619 109 636 190 L579 190 C558 96 550 78 529 78 C515 78 509 84 509 99 C509 109 510 122 512 135 L521 194 C526 221 528 242 528 253 C528 275 518 296 500 311 C486 323 467 330 432 337 C507 350 541 364 577 397 C618 433 643 489 643 545 C643 630 585 667 452 667 L94 667 L78 591 L110 591 C148 591 157 586 157 565 C157 559 155 547 151 529 L68 137 C57 83 49 75 0 76 L-32 76 L-48 0 L274 0 L290 76 Z M262 390 L305 591 L401 591 C471 591 493 575 493 524 C493 493 483 459 467 435 C444 403 414 390 360 390 L262 390 Z M164 -280 C213 -275 241 -262 269 -235 C300 -204 320 -159 320 -120 C320 -82 294 -57 254 -57 C211 -57 175 -89 175 -128 C175 -152 191 -168 216 -168 C229 -168 238 -165 257 -157 C241 -210 218 -233 172 -240 L164 -280 Z " />
<glyph glyph-name="rcommaaccent" unicode="&#x157;" horiz-adv-x="442" d="M250 67 L206 67 C175 67 162 75 162 93 C162 100 164 111 167 126 L194 253 C204 301 224 347 249 377 C274 408 308 429 332 429 C341 429 355 425 370 419 C323 403 300 376 300 337 C300 308 318 291 351 291 C401 291 443 341 443 399 C443 450 409 482 357 482 C308 482 272 459 225 399 L240 469 L52 469 L38 402 L67 402 C97 402 110 395 110 377 C110 369 108 357 105 343 L59 126 C49 77 41 70 -5 67 L-34 67 L-48 0 L236 0 L250 67 Z M-6 -280 C43 -275 71 -262 99 -235 C130 -204 150 -159 150 -120 C150 -82 124 -57 85 -57 C42 -57 6 -89 6 -128 C6 -152 22 -168 47 -168 C59 -168 68 -165 87 -157 C71 -210 48 -233 3 -240 L-6 -280 Z " />
<glyph glyph-name="Rcaron" unicode="&#x158;" horiz-adv-x="693" d="M290 76 L250 76 C212 76 203 81 203 102 C203 108 205 122 208 137 L246 314 L285 314 C369 314 399 295 399 242 C399 226 397 203 393 181 L379 103 C377 93 376 84 376 72 C376 11 407 -19 470 -19 C523 -19 566 5 591 48 C610 82 619 109 636 190 L579 190 C558 96 550 78 529 78 C515 78 509 84 509 99 C509 109 510 122 512 135 L521 194 C526 221 528 242 528 253 C528 275 518 296 500 311 C486 323 467 330 432 337 C507 350 541 364 577 397 C618 433 643 489 643 545 C643 630 585 667 452 667 L94 667 L78 591 L110 591 C148 591 157 586 157 565 C157 559 155 547 151 529 L68 137 C57 83 49 75 0 76 L-32 76 L-48 0 L274 0 L290 76 Z M262 390 L305 591 L401 591 C471 591 493 575 493 524 C493 493 483 459 467 435 C444 403 414 390 360 390 L262 390 Z M195 858 L262 721 L378 721 L503 858 L457 858 L337 803 L242 858 L195 858 Z " />
<glyph glyph-name="rcaron" unicode="&#x159;" horiz-adv-x="442" d="M250 67 L206 67 C175 67 162 75 162 93 C162 100 164 111 167 126 L194 253 C204 301 224 347 249 377 C274 408 308 429 332 429 C341 429 355 425 370 419 C323 403 300 376 300 337 C300 308 318 291 351 291 C401 291 443 341 443 399 C443 450 409 482 357 482 C308 482 272 459 225 399 L240 469 L52 469 L38 402 L67 402 C97 402 110 395 110 377 C110 369 108 357 105 343 L59 126 C49 77 41 70 -5 67 L-34 67 L-48 0 L236 0 L250 67 Z M148 719 L221 540 L311 540 L459 719 L411 719 L286 636 L197 719 L148 719 Z " />
<glyph glyph-name="Sacute" unicode="&#x15a;" horiz-adv-x="577" d="M-33 0 L29 0 L62 62 C128 1 173 -19 244 -19 C393 -19 518 99 518 239 C518 281 506 317 482 341 C458 366 413 390 366 402 L252 433 C212 444 192 466 192 500 C192 562 245 606 320 606 C408 606 461 543 461 439 L461 414 L528 414 L582 667 L529 667 L487 618 C426 673 394 687 326 687 C180 687 62 574 62 433 C62 357 109 312 221 281 L313 256 C359 244 384 217 384 182 C384 113 332 70 249 70 C192 70 156 86 127 123 C104 152 94 188 94 241 C94 247 94 260 95 275 L25 275 L-33 0 Z M332 721 L480 772 C514 784 535 807 535 831 C535 852 520 868 498 868 C482 868 466 861 441 842 L278 721 L332 721 Z " />
<glyph glyph-name="sacute" unicode="&#x15b;" horiz-adv-x="443" d="M-45 -6 L14 -6 L39 36 C91 -7 116 -17 171 -17 C236 -17 291 4 328 44 C359 78 378 126 378 169 C378 230 343 265 256 289 L180 310 C162 315 150 330 150 346 C150 386 182 415 227 415 C255 415 285 402 301 383 C317 365 324 345 327 302 L387 302 L424 475 L373 475 L346 439 C308 473 276 486 228 486 C117 486 29 407 29 308 C29 252 65 215 139 194 L202 177 C234 168 253 150 253 128 C253 86 216 55 167 55 C141 55 119 61 102 74 C73 96 62 126 61 186 L-4 186 L-45 -6 Z M161 540 L216 540 L391 619 C436 639 455 659 455 688 C455 713 438 730 412 730 C388 730 367 719 326 683 L161 540 Z " />
<glyph glyph-name="Scedilla" unicode="&#x15e;" horiz-adv-x="577" d="M228 -19 C390 -22 518 93 518 240 C518 281 505 317 482 341 C458 366 413 390 366 402 L252 433 C212 444 192 466 192 500 C192 562 245 606 320 606 C408 606 461 543 461 438 L461 414 L528 414 L582 667 L529 667 L487 618 C426 673 394 687 326 687 C179 687 62 574 62 432 C62 357 110 311 221 281 L313 256 C359 244 384 217 384 182 C384 114 332 71 249 71 C192 71 156 86 127 123 C103 153 94 187 94 245 C94 249 94 262 95 275 L25 275 L-33 0 L29 0 L62 62 C111 16 138 0 187 -13 L168 -101 C177 -99 188 -98 193 -98 C211 -98 222 -108 222 -124 C222 -152 204 -171 177 -171 C148 -171 119 -158 89 -132 L58 -182 C114 -214 151 -227 193 -227 C261 -227 313 -179 313 -116 C313 -80 290 -55 256 -55 C245 -55 233 -56 219 -59 L228 -19 Z " />
<glyph glyph-name="scedilla" unicode="&#x15f;" horiz-adv-x="442" d="M162 -17 C225 -17 270 -4 308 26 C350 60 378 116 378 170 C378 230 342 265 256 289 L180 310 C162 315 150 329 150 347 C150 386 183 415 227 415 C255 415 285 402 301 383 C317 365 324 345 327 302 L387 302 L424 475 L373 475 L346 439 C308 473 276 486 228 486 C116 486 29 407 29 307 C29 252 65 215 139 194 L202 177 C235 168 253 150 253 128 C253 87 216 56 167 56 C141 56 119 63 102 75 C73 97 62 127 61 186 L-4 186 L-45 -6 L14 -6 L39 36 C75 6 95 -6 121 -12 L102 -99 C111 -97 122 -95 127 -95 C145 -95 155 -105 155 -122 C155 -151 137 -171 110 -171 C81 -171 52 -158 23 -132 L-8 -182 C47 -214 85 -227 126 -227 C194 -227 245 -178 245 -114 C245 -77 223 -53 189 -53 C178 -53 167 -54 153 -56 L162 -17 Z " />
<glyph glyph-name="Scaron" unicode="&#x160;" horiz-adv-x="577" d="M-33 0 L29 0 L62 62 C128 1 173 -19 244 -19 C393 -19 518 99 518 239 C518 281 506 317 482 341 C458 366 413 390 366 402 L252 433 C212 444 192 466 192 500 C192 562 245 606 320 606 C408 606 461 543 461 439 L461 414 L528 414 L582 667 L529 667 L487 618 C426 673 394 687 326 687 C180 687 62 574 62 433 C62 357 109 312 221 281 L313 256 C359 244 384 217 384 182 C384 113 332 70 249 70 C192 70 156 86 127 123 C104 152 94 188 94 241 C94 247 94 260 95 275 L25 275 L-33 0 Z M246 858 L312 721 L428 721 L554 858 L507 858 L388 803 L292 858 L246 858 Z " />
<glyph glyph-name="scaron" unicode="&#x161;" horiz-adv-x="443" d="M-45 -6 L14 -6 L39 36 C91 -7 116 -17 171 -17 C236 -17 291 4 328 44 C359 78 378 126 378 169 C378 230 343 265 256 289 L180 310 C162 315 150 330 150 346 C150 386 182 415 227 415 C255 415 285 402 301 383 C317 365 324 345 327 302 L387 302 L424 475 L373 475 L346 439 C308 473 276 486 228 486 C117 486 29 407 29 308 C29 252 65 215 139 194 L202 177 C234 168 253 150 253 128 C253 86 216 55 167 55 C141 55 119 61 102 74 C73 96 62 126 61 186 L-4 186 L-45 -6 Z M148 719 L221 540 L310 540 L459 719 L411 719 L286 636 L197 719 L148 719 Z " />
<glyph glyph-name="Tcommaaccent" unicode="&#x162;" horiz-adv-x="608" d="M192 137 C181 83 173 75 124 76 L76 76 L59 0 L407 0 L423 76 L375 76 C336 76 327 81 327 102 C327 109 329 119 332 137 L429 593 C512 593 542 564 542 486 C542 464 539 438 530 391 L598 391 L657 667 L93 667 L34 391 L102 391 C137 543 186 596 289 593 L192 137 Z M121 -280 C170 -275 198 -263 226 -235 C257 -204 277 -159 277 -120 C277 -82 251 -57 212 -57 C169 -57 133 -89 133 -128 C133 -152 149 -168 174 -168 C186 -168 195 -165 214 -157 C198 -210 175 -233 130 -240 L121 -280 Z " />
<glyph glyph-name="tcommaaccent" unicode="&#x163;" horiz-adv-x="362" d="M91 400 L37 147 C31 119 27 87 27 73 C27 14 59 -17 119 -17 C171 -17 213 5 241 46 C266 84 279 124 298 221 L240 221 C212 94 203 75 172 75 C157 75 149 83 149 98 C149 105 151 118 154 133 L211 400 L323 400 L338 469 L221 469 L261 653 L204 653 C166 526 132 486 42 465 L28 400 L91 400 Z M-36 -280 C13 -275 41 -262 69 -235 C100 -204 120 -159 120 -120 C120 -82 94 -57 55 -57 C12 -57 -24 -89 -24 -128 C-24 -152 -8 -168 17 -168 C29 -168 38 -165 57 -157 C41 -210 18 -233 -27 -240 L-36 -280 Z " />
<glyph glyph-name="Tcaron" unicode="&#x164;" horiz-adv-x="608" d="M192 137 C181 83 173 75 124 76 L76 76 L59 0 L407 0 L423 76 L375 76 C336 76 327 81 327 102 C327 109 329 119 332 137 L429 593 C512 593 542 564 542 486 C542 464 539 438 530 391 L598 391 L657 667 L93 667 L34 391 L102 391 C137 543 186 596 289 593 L192 137 Z M261 858 L328 721 L444 721 L570 858 L523 858 L404 803 L308 858 L261 858 Z " />
<glyph glyph-name="tcaron" unicode="&#x165;" horiz-adv-x="362" d="M92 400 L38 147 C32 117 28 93 27 73 C26 53 32 31 43 15 C57 -6 83 -17 119 -17 C171 -17 214 5 241 46 C266 84 280 124 299 221 L241 221 C213 95 203 75 173 75 C157 75 149 83 149 98 C149 104 150 112 155 133 L211 400 L324 400 L338 469 L222 469 L261 653 L204 653 C167 526 132 486 42 465 L28 400 L92 400 Z M324 531 C372 537 401 549 429 577 C460 608 480 653 480 692 C480 730 454 755 414 755 C371 755 335 722 335 683 C335 659 351 643 376 643 C388 643 398 646 417 655 C401 601 378 579 332 571 L324 531 Z " />
<glyph glyph-name="Umacron" unicode="&#x16a;" horiz-adv-x="684" d="M73 591 L99 591 C137 591 146 586 146 565 C146 559 144 548 140 530 L73 211 C67 185 64 157 64 135 C64 38 139 -20 264 -20 C422 -20 524 61 556 211 L624 530 C635 584 643 592 692 591 L718 591 L734 667 L456 667 L440 591 L473 591 C512 591 521 586 521 565 C521 558 519 546 516 530 L448 211 C437 160 424 134 400 114 C373 92 335 78 299 78 C244 78 205 108 205 150 C205 165 208 187 213 211 L281 530 C292 584 300 592 349 591 L384 591 L400 667 L89 667 L73 591 Z M286 750 L575 750 L592 829 L303 829 L286 750 Z " />
<glyph glyph-name="umacron" unicode="&#x16b;" horiz-adv-x="581" d="M37 402 L60 402 C95 402 109 394 109 375 C109 368 108 358 104 343 L65 158 C58 126 54 93 54 73 C54 20 92 -15 151 -15 C206 -15 247 9 315 82 L297 0 L489 0 L504 67 L481 67 C452 67 439 74 439 92 C439 100 441 111 444 126 L517 469 L294 469 L280 402 L326 402 C360 402 375 394 375 375 C375 368 374 358 370 343 L344 221 C333 167 321 139 300 111 C275 79 246 62 219 62 C194 62 177 80 177 108 C177 118 179 133 185 158 L251 469 L51 469 L37 402 Z M160 588 L457 588 L475 670 L177 670 L160 588 Z " />
<glyph glyph-name="Uring" unicode="&#x16e;" horiz-adv-x="684" d="M73 591 L99 591 C137 591 146 586 146 565 C146 559 144 548 140 530 L73 211 C67 185 64 157 64 135 C64 38 139 -20 264 -20 C422 -20 524 61 556 211 L624 530 C635 584 643 592 692 591 L718 591 L734 667 L456 667 L440 591 L473 591 C512 591 521 586 521 565 C521 558 519 546 516 530 L448 211 C437 160 424 134 400 114 C373 92 335 78 299 78 C244 78 205 108 205 150 C205 165 208 187 213 211 L281 530 C292 584 300 592 349 591 L384 591 L400 667 L89 667 L73 591 Z M472 932 C400 932 337 873 337 806 C337 754 372 716 421 716 C490 716 557 781 557 847 C557 896 521 932 472 932 L472 932 Z M458 873 C481 872 496 856 496 834 C496 804 467 776 435 776 C413 776 397 792 397 816 C397 845 428 875 458 873 L458 873 Z " />
<glyph glyph-name="uring" unicode="&#x16f;" horiz-adv-x="581" d="M37 402 L60 402 C95 402 109 394 109 375 C109 368 108 358 104 343 L65 158 C58 126 54 93 54 73 C54 20 92 -15 151 -15 C206 -15 247 9 315 82 L297 0 L489 0 L504 67 L481 67 C452 67 439 74 439 92 C439 100 441 111 444 126 L517 469 L294 469 L280 402 L326 402 C360 402 375 394 375 375 C375 368 374 358 370 343 L344 221 C333 167 321 139 300 111 C275 79 246 62 219 62 C194 62 177 80 177 108 C177 118 179 133 185 158 L251 469 L51 469 L37 402 Z M365 778 C279 778 203 706 203 625 C203 562 244 520 304 520 C387 520 465 595 465 674 C465 734 422 778 365 778 L365 778 Z M349 714 C380 713 400 692 400 662 C400 621 361 584 319 584 C288 584 268 605 268 636 C268 677 308 716 349 714 L349 714 Z " />
<glyph glyph-name="Uhungarumlaut" unicode="&#x170;" horiz-adv-x="684" d="M73 591 L99 591 C137 591 146 586 146 565 C146 559 144 548 140 530 L73 211 C67 185 64 157 64 135 C64 38 139 -20 264 -20 C422 -20 524 61 556 211 L624 530 C635 584 643 592 692 591 L718 591 L734 667 L456 667 L440 591 L473 591 C512 591 521 586 521 565 C521 558 519 546 516 530 L448 211 C437 160 424 134 400 114 C373 92 335 78 299 78 C244 78 205 108 205 150 C205 165 208 187 213 211 L281 530 C292 584 300 592 349 591 L384 591 L400 667 L89 667 L73 591 Z M377 721 L486 786 C510 800 523 818 523 836 C523 854 507 869 488 869 C470 869 454 858 431 831 L339 721 L377 721 Z M495 721 L629 783 C659 796 674 813 674 833 C674 852 659 868 641 868 C624 868 608 860 585 838 L457 721 L495 721 Z " />
<glyph glyph-name="uhungarumlaut" unicode="&#x171;" horiz-adv-x="581" d="M37 402 L60 402 C95 402 109 394 109 375 C109 368 108 358 104 343 L65 158 C58 126 54 93 54 73 C54 20 92 -15 151 -15 C206 -15 247 9 315 82 L297 0 L489 0 L504 67 L481 67 C452 67 439 74 439 92 C439 100 441 111 444 126 L517 469 L294 469 L280 402 L326 402 C360 402 375 394 375 375 C375 368 374 358 370 343 L344 221 C333 167 321 139 300 111 C275 79 246 62 219 62 C194 62 177 80 177 108 C177 118 179 133 185 158 L251 469 L51 469 L37 402 Z M217 540 L260 540 L389 637 C416 657 430 677 430 695 C430 717 416 731 394 731 C368 731 350 718 315 671 L217 540 Z M333 540 L377 540 L537 631 C571 651 588 671 588 692 C588 714 573 729 551 729 C526 729 511 720 471 680 L333 540 Z " />
<glyph glyph-name="Uogonek" unicode="&#x172;" horiz-adv-x="684" d="M718 591 L734 667 L456 667 L440 591 L473 591 C512 591 521 586 521 564 C521 558 519 545 516 530 L448 211 C437 160 424 134 400 114 C373 92 335 78 299 78 C244 78 205 108 205 150 C205 165 208 187 213 211 L281 530 C292 584 300 592 349 591 L384 591 L400 667 L89 667 L73 591 L99 591 C138 591 146 586 146 565 C146 559 144 547 140 530 L73 211 C67 184 64 157 64 132 C64 41 138 -17 255 -20 C178 -77 146 -122 146 -172 C146 -207 169 -227 209 -227 C254 -227 290 -201 330 -140 L317 -130 C292 -159 285 -164 268 -164 C251 -164 242 -153 242 -134 C242 -111 252 -83 268 -63 C287 -38 302 -30 380 -1 C478 34 530 96 556 211 L624 530 C635 584 643 592 692 591 L718 591 Z " />
<glyph glyph-name="uogonek" unicode="&#x173;" horiz-adv-x="581" d="M489 0 L504 67 L481 67 C451 67 439 74 439 93 C439 100 441 112 444 126 L517 469 L294 469 L280 402 L326 402 C361 402 375 394 375 375 C375 368 373 357 370 343 L344 221 C333 167 321 139 300 111 C275 79 246 62 219 62 C193 62 177 80 177 109 C177 118 180 135 185 158 L251 469 L51 469 L37 402 L60 402 C95 402 109 394 109 375 C109 368 107 357 104 343 L65 158 C58 126 54 93 54 73 C54 20 92 -15 151 -15 C206 -15 247 9 315 82 L297 0 L411 0 C320 -58 273 -116 273 -173 C273 -207 295 -227 334 -227 C379 -227 417 -200 456 -140 L443 -130 C418 -159 411 -164 393 -164 C376 -164 367 -153 367 -134 C367 -92 393 -47 444 0 L489 0 Z " />
<glyph glyph-name="Ydieresis" unicode="&#x178;" horiz-adv-x="657" d="M448 76 L399 76 C360 76 351 81 351 102 C351 108 353 119 357 137 L387 279 L615 547 C647 583 660 590 694 591 L715 591 L731 667 L453 667 L437 591 L494 591 C512 591 520 587 520 577 C520 568 514 555 503 543 L358 381 L285 538 C282 545 280 552 280 561 C280 583 291 591 323 591 L373 591 L389 667 L71 667 L55 591 L85 591 C120 589 135 575 157 523 L247 279 L216 137 C205 83 197 76 148 76 L99 76 L83 0 L432 0 L448 76 Z M358 858 C314 858 273 819 273 778 C273 745 295 722 326 722 C370 722 411 761 411 802 C411 833 388 858 358 858 L358 858 Z M526 858 C482 858 440 819 440 778 C440 745 462 722 494 722 C537 722 579 761 579 802 C579 833 556 858 526 858 L526 858 Z " />
<glyph glyph-name="Zacute" unicode="&#x179;" horiz-adv-x="590" d="M-35 0 L471 0 L536 302 L467 302 C410 105 379 75 228 76 L133 76 L595 581 L613 667 L125 667 L66 387 L134 387 C173 554 216 595 347 591 L449 591 L-18 80 L-35 0 Z M339 721 L487 772 C521 784 542 807 542 831 C542 852 527 868 505 868 C489 868 473 861 448 842 L285 721 L339 721 Z " />
<glyph glyph-name="zacute" unicode="&#x17a;" horiz-adv-x="451" d="M-53 0 L343 0 L390 224 L327 224 C291 85 272 66 167 67 L89 67 L426 394 L442 469 L65 469 L21 262 L84 262 C112 377 134 402 211 402 L305 402 L-38 73 L-53 0 Z M209 540 L264 540 L439 619 C484 639 503 659 503 688 C503 713 486 730 460 730 C436 730 415 719 374 683 L209 540 Z " />
<glyph glyph-name="Zdotaccent" unicode="&#x17b;" horiz-adv-x="590" d="M-35 0 L471 0 L536 302 L467 302 C410 105 379 75 228 76 L133 76 L595 581 L613 667 L125 667 L66 387 L134 387 C173 554 216 595 347 591 L449 591 L-18 80 L-35 0 Z M409 862 C364 862 321 821 321 779 C321 745 344 721 376 721 C421 721 464 762 464 804 C464 836 440 862 409 862 L409 862 Z " />
<glyph glyph-name="zdotaccent" unicode="&#x17c;" horiz-adv-x="451" d="M-53 0 L343 0 L390 224 L327 224 C291 85 272 66 167 67 L89 67 L426 394 L442 469 L65 469 L21 262 L84 262 C112 377 134 402 211 402 L305 402 L-38 73 L-53 0 Z M307 702 C260 702 215 660 215 617 C215 581 239 557 275 557 C320 557 362 599 362 643 C362 677 339 702 307 702 L307 702 Z " />
<glyph glyph-name="Zcaron" unicode="&#x17d;" horiz-adv-x="590" d="M-35 0 L471 0 L536 302 L467 302 C410 105 379 75 228 76 L133 76 L595 581 L613 667 L125 667 L66 387 L134 387 C173 554 216 595 347 591 L449 591 L-18 80 L-35 0 Z M253 858 L319 721 L435 721 L561 858 L514 858 L395 803 L299 858 L253 858 Z " />
<glyph glyph-name="zcaron" unicode="&#x17e;" horiz-adv-x="451" d="M-53 0 L343 0 L390 224 L327 224 C291 85 272 66 167 67 L89 67 L426 394 L442 469 L65 469 L21 262 L84 262 C112 377 134 402 211 402 L305 402 L-38 73 L-53 0 Z M152 719 L225 540 L314 540 L463 719 L415 719 L290 636 L201 719 L152 719 Z " />
<glyph glyph-name="florin" unicode="&#x192;" horiz-adv-x="547" d="M363 398 L454 398 L479 467 L387 467 L411 535 C437 608 461 633 505 633 C521 633 529 630 538 619 C501 607 476 576 476 541 C476 520 492 506 517 506 C564 506 610 560 610 615 C610 657 571 684 512 684 C408 684 333 617 285 483 L280 467 L199 467 L175 398 L255 398 L108 -15 C82 -88 58 -113 15 -113 C-1 -113 -9 -110 -18 -99 C19 -87 43 -56 43 -22 C43 -1 27 13 3 13 C-45 13 -90 -40 -90 -96 C-90 -137 -51 -164 8 -164 C112 -164 187 -98 234 37 L363 398 Z " />
<glyph glyph-name="uni01D3" unicode="&#x1d3;" horiz-adv-x="684" d="M73 591 L99 591 C137 591 146 586 146 565 C146 559 144 548 140 530 L73 211 C67 185 64 157 64 135 C64 38 139 -20 264 -20 C422 -20 524 61 556 211 L624 530 C635 584 643 592 692 591 L718 591 L734 667 L456 667 L440 591 L473 591 C512 591 521 586 521 565 C521 558 519 546 516 530 L448 211 C437 160 424 134 400 114 C373 92 335 78 299 78 C244 78 205 108 205 150 C205 165 208 187 213 211 L281 530 C292 584 300 592 349 591 L384 591 L400 667 L89 667 L73 591 Z M299 858 L366 721 L482 721 L608 858 L561 858 L442 803 L346 858 L299 858 Z " />
<glyph glyph-name="Scommaaccent" unicode="&#x218;" horiz-adv-x="577" d="M-33 0 L29 0 L62 62 C128 1 173 -19 244 -19 C393 -19 518 99 518 239 C518 281 506 317 482 341 C458 366 413 390 366 402 L252 433 C212 444 192 466 192 500 C192 562 245 606 320 606 C408 606 461 543 461 439 L461 414 L528 414 L582 667 L529 667 L487 618 C426 673 394 687 326 687 C180 687 62 574 62 433 C62 357 109 312 221 281 L313 256 C359 244 384 217 384 182 C384 113 332 70 249 70 C192 70 156 86 127 123 C104 152 94 188 94 241 C94 247 94 260 95 275 L25 275 L-33 0 Z M112 -280 C160 -275 189 -263 217 -235 C248 -204 268 -159 268 -120 C268 -82 242 -57 202 -57 C159 -57 123 -89 123 -128 C123 -152 139 -168 164 -168 C177 -168 186 -165 205 -157 C189 -210 166 -233 120 -240 L112 -280 Z " />
<glyph glyph-name="scommaaccent" unicode="&#x219;" horiz-adv-x="442" d="M-45 -6 L14 -6 L39 36 C91 -7 116 -17 171 -17 C236 -17 291 4 328 44 C359 78 378 126 378 169 C378 230 343 265 256 289 L180 310 C162 315 150 330 150 346 C150 386 182 415 227 415 C255 415 285 402 301 383 C317 365 324 345 327 302 L387 302 L424 475 L373 475 L346 439 C308 473 276 486 228 486 C117 486 29 407 29 308 C29 252 65 215 139 194 L202 177 C234 168 253 150 253 128 C253 86 216 55 167 55 C141 55 119 61 102 74 C73 96 62 126 61 186 L-4 186 L-45 -6 Z M39 -280 C87 -275 116 -263 144 -235 C175 -204 195 -159 195 -120 C195 -82 169 -57 129 -57 C86 -57 50 -89 50 -128 C50 -152 66 -168 91 -168 C104 -168 113 -165 132 -157 C116 -210 93 -233 47 -240 L39 -280 Z " />
<glyph glyph-name="uni021A" unicode="&#x21a;" horiz-adv-x="608" d="M192 137 C181 83 173 75 124 76 L76 76 L59 0 L407 0 L423 76 L375 76 C336 76 327 81 327 102 C327 109 329 119 332 137 L429 593 C512 593 542 564 542 486 C542 464 539 438 530 391 L598 391 L657 667 L93 667 L34 391 L102 391 C137 543 186 596 289 593 L192 137 Z M121 -280 C170 -275 198 -263 226 -235 C257 -204 277 -159 277 -120 C277 -82 251 -57 212 -57 C169 -57 133 -89 133 -128 C133 -152 149 -168 174 -168 C186 -168 195 -165 214 -157 C198 -210 175 -233 130 -240 L121 -280 Z " />
<glyph glyph-name="uni021B" unicode="&#x21b;" horiz-adv-x="362" d="M91 400 L37 147 C31 119 27 87 27 73 C27 14 59 -17 119 -17 C171 -17 213 5 241 46 C266 84 279 124 298 221 L240 221 C212 94 203 75 172 75 C157 75 149 83 149 98 C149 105 151 118 154 133 L211 400 L323 400 L338 469 L221 469 L261 653 L204 653 C166 526 132 486 42 465 L28 400 L91 400 Z M-36 -280 C13 -275 41 -262 69 -235 C100 -204 120 -159 120 -120 C120 -82 94 -57 55 -57 C12 -57 -24 -89 -24 -128 C-24 -152 -8 -168 17 -168 C29 -168 38 -165 57 -157 C41 -210 18 -233 -27 -240 L-36 -280 Z " />
<glyph glyph-name="afii57929" unicode="&#x2bc;" horiz-adv-x="215" d="M46 413 C150 430 230 518 230 614 C230 658 204 687 164 687 C118 687 80 648 80 600 C80 572 96 555 122 555 C135 555 145 558 164 570 C150 510 115 474 55 457 L46 413 Z " />
<glyph glyph-name="circumflex" unicode="&#x2c6;" horiz-adv-x="481" d="M129 540 L178 540 L302 623 L392 540 L440 540 L368 720 L278 720 L129 540 Z " />
<glyph glyph-name="caron" unicode="&#x2c7;" horiz-adv-x="481" d="M167 719 L240 540 L330 540 L478 719 L430 719 L305 636 L216 719 L167 719 Z " />
<glyph glyph-name="uni02C9" unicode="&#x2c9;" horiz-adv-x="480" d="M145 588 L443 588 L460 670 L162 670 L145 588 Z " />
<glyph glyph-name="breve" unicode="&#x2d8;" horiz-adv-x="482" d="M161 704 C161 665 163 645 168 629 C184 583 228 555 287 555 C332 555 378 572 412 600 C439 624 454 648 477 704 L432 704 C406 658 376 644 307 644 C237 644 214 658 206 704 L161 704 Z " />
<glyph glyph-name="dotaccent" unicode="&#x2d9;" horiz-adv-x="464" d="M314 702 C267 702 222 660 222 617 C222 581 246 557 282 557 C327 557 369 599 369 643 C369 677 346 702 314 702 L314 702 Z " />
<glyph glyph-name="ring" unicode="&#x2da;" horiz-adv-x="476" d="M312 778 C226 778 150 706 150 625 C150 562 191 520 252 520 C335 520 413 595 413 674 C413 734 370 778 312 778 L312 778 Z M297 714 C328 713 348 692 348 662 C348 621 309 584 266 584 C236 584 215 605 215 636 C215 677 256 716 297 714 L297 714 Z " />
<glyph glyph-name="ogonek" unicode="&#x2db;" horiz-adv-x="450" d="M192 14 C83 -50 30 -111 30 -172 C30 -207 52 -227 91 -227 C136 -227 174 -200 213 -140 L200 -130 C175 -159 168 -164 150 -164 C133 -164 124 -153 124 -134 C124 -109 135 -78 155 -51 C169 -30 181 -17 217 14 L192 14 Z " />
<glyph glyph-name="tilde" unicode="&#x2dc;" horiz-adv-x="482" d="M169 555 C185 588 201 601 225 601 C232 601 243 599 254 596 L308 580 C318 577 328 576 339 576 C398 576 435 610 478 704 L438 704 C419 670 407 660 383 660 C377 660 369 661 361 663 L306 679 C293 682 280 684 269 684 C209 684 171 649 129 555 L169 555 Z " />
<glyph glyph-name="hungarumlaut" unicode="&#x2dd;" horiz-adv-x="470" d="M161 540 L205 540 L333 637 C361 657 375 677 375 695 C375 717 360 731 339 731 C312 731 294 717 260 671 L161 540 Z M278 540 L321 540 L481 631 C515 650 532 671 532 692 C532 714 517 729 495 729 C470 729 455 720 416 680 L278 540 Z " />
<glyph glyph-name="uni2011" unicode="&#x2011;" horiz-adv-x="242" d="M-32 184 L210 184 L233 290 L-9 290 L-32 184 Z " />
<glyph glyph-name="figuredash" unicode="&#x2012;" horiz-adv-x="501" d="M-2 196 L445 196 L462 279 L16 279 L-2 196 Z " />
<glyph glyph-name="endash" unicode="&#x2013;" horiz-adv-x="501" d="M-2 196 L445 196 L462 279 L16 279 L-2 196 Z " />
<glyph glyph-name="emdash" unicode="&#x2014;" horiz-adv-x="638" d="M-29 196 L609 196 L627 279 L-11 279 L-29 196 Z " />
<glyph glyph-name="afii00208" unicode="&#x2015;" horiz-adv-x="638" d="M-29 196 L609 196 L627 279 L-11 279 L-29 196 Z " />
<glyph glyph-name="quoteleft" unicode="&#x2018;" horiz-adv-x="215" d="M264 687 C160 669 81 582 81 485 C81 442 107 413 147 413 C192 413 230 452 230 500 C230 528 214 545 188 545 C175 545 165 542 146 530 C160 590 195 625 255 642 L264 687 Z " />
<glyph glyph-name="quoteright" unicode="&#x2019;" horiz-adv-x="215" d="M46 413 C150 430 230 518 230 614 C230 658 204 687 164 687 C118 687 80 648 80 600 C80 572 96 555 122 555 C135 555 145 558 164 570 C150 510 115 474 55 457 L46 413 Z " />
<glyph glyph-name="quotesinglbase" unicode="&#x201a;" horiz-adv-x="215" d="M-72 -143 C32 -126 112 -39 112 57 C112 101 86 130 46 130 C0 130 -38 91 -38 44 C-38 16 -22 -1 4 -1 C17 -1 27 2 46 14 C32 -46 -3 -82 -63 -99 L-72 -143 Z " />
<glyph glyph-name="quotedblleft" unicode="&#x201c;" horiz-adv-x="429" d="M476 687 C371 669 292 582 292 485 C292 442 318 413 358 413 C404 413 442 452 442 500 C442 528 426 545 400 545 C386 545 377 542 358 530 C372 590 406 625 467 642 L476 687 Z M264 687 C160 669 81 582 81 485 C81 442 107 413 147 413 C192 413 230 452 230 500 C230 528 214 545 188 545 C175 545 165 542 146 530 C160 590 195 625 255 642 L264 687 Z " />
<glyph glyph-name="quotedblright" unicode="&#x201d;" horiz-adv-x="429" d="M258 413 C362 430 441 518 441 615 C441 658 415 687 375 687 C330 687 292 648 292 600 C292 572 308 555 334 555 C347 555 357 558 376 570 C362 510 327 474 267 457 L258 413 Z M46 413 C150 430 230 518 230 614 C230 658 204 687 164 687 C118 687 80 648 80 600 C80 572 96 555 122 555 C135 555 145 558 164 570 C150 510 115 474 55 457 L46 413 Z " />
<glyph glyph-name="quotedblbase" unicode="&#x201e;" horiz-adv-x="429" d="M139 -143 C244 -125 323 -39 323 58 C323 101 297 130 257 130 C212 130 174 91 174 44 C174 16 190 -1 216 -1 C229 -1 239 2 258 14 C243 -46 209 -82 149 -99 L139 -143 Z M-72 -143 C33 -125 112 -39 112 58 C112 101 86 130 46 130 C0 130 -38 91 -38 44 C-38 16 -22 -1 4 -1 C18 -1 27 2 46 14 C32 -46 -3 -82 -63 -99 L-72 -143 Z " />
<glyph glyph-name="dagger" unicode="&#x2020;" horiz-adv-x="532" d="M306 404 C325 478 332 497 368 582 C381 611 386 630 386 644 C386 672 371 687 341 687 C294 687 271 653 271 582 C270 490 270 481 257 404 C224 409 219 410 191 421 C157 433 141 437 121 437 C82 437 55 410 55 372 C55 346 69 333 99 333 C119 333 138 337 176 349 C208 360 214 361 249 366 C215 219 199 157 146 -19 C109 -135 108 -141 108 -167 C108 -199 121 -214 151 -214 C195 -214 218 -176 228 -87 C253 133 266 218 298 366 C330 361 335 360 364 349 C397 337 414 333 434 333 C473 333 500 360 500 398 C500 424 486 437 456 437 C436 437 418 433 379 421 C347 410 341 409 306 404 L306 404 Z " />
<glyph glyph-name="daggerdbl" unicode="&#x2021;" horiz-adv-x="532" d="M220 -52 C220 -24 222 -6 228 37 C260 32 266 30 294 20 C329 7 343 4 364 4 C403 4 430 30 430 68 C430 94 416 107 386 107 C366 107 348 103 309 91 C277 81 271 79 236 74 C249 132 265 171 302 236 C297 273 296 290 296 310 C296 335 298 355 305 398 C337 393 342 392 371 381 C405 369 421 365 441 365 C480 365 507 392 507 430 C507 456 493 469 463 469 C443 469 425 465 386 453 C354 442 348 441 313 436 C326 483 331 500 347 536 C382 615 385 623 385 644 C385 673 370 687 341 687 C295 687 270 652 270 588 L272 524 C272 495 271 480 263 436 C231 441 225 442 197 453 C163 465 148 469 127 469 C88 469 61 442 61 404 C61 377 75 365 105 365 C125 365 143 369 182 381 C214 391 220 393 255 398 C243 341 227 302 189 236 C194 200 196 183 196 159 C196 131 194 113 187 74 C154 79 149 81 121 91 C87 103 72 107 51 107 C12 107 -15 80 -15 43 C-15 16 -1 4 29 4 C50 4 67 8 106 20 C137 30 144 31 179 37 C166 -11 160 -29 144 -63 C109 -142 106 -150 106 -172 C106 -199 121 -214 150 -214 C196 -214 221 -179 221 -115 L220 -52 Z " />
<glyph glyph-name="bullet" unicode="&#x2022;" horiz-adv-x="600" d="M332 480 C251 480 174 396 174 307 C174 245 214 200 271 200 C352 200 429 284 429 373 C429 435 389 480 332 480 L332 480 Z " />
<glyph glyph-name="ellipsis" unicode="&#x2026;" horiz-adv-x="831" d="M98 130 C53 130 12 88 12 41 C12 6 33 -17 65 -17 C107 -17 148 27 148 73 C148 106 127 130 98 130 L98 130 Z M375 130 C330 130 289 88 289 41 C289 6 310 -17 342 -17 C384 -17 425 27 425 73 C425 106 404 130 375 130 L375 130 Z M652 130 C607 130 566 88 566 41 C566 6 587 -17 619 -17 C661 -17 702 27 702 73 C702 106 681 130 652 130 L652 130 Z " />
<glyph glyph-name="perthousand" unicode="&#x2030;" horiz-adv-x="1246" d="M259 622 C140 622 41 511 41 378 C41 293 94 239 177 239 C295 239 395 351 395 482 C395 568 342 622 259 622 L259 622 Z M247 559 C273 559 288 539 288 501 C288 471 277 413 263 372 C248 328 222 302 192 302 C163 302 149 322 149 361 C149 391 160 445 175 488 C191 535 216 559 247 559 L247 559 Z M695 622 L622 622 L151 -17 L223 -17 L695 622 Z M668 366 C550 366 451 255 451 122 C451 37 504 -17 587 -17 C705 -17 804 95 804 226 C804 312 751 366 668 366 L668 366 Z M655 303 C683 302 696 283 696 245 C696 215 685 157 671 116 C656 72 630 46 600 46 C572 46 558 66 558 105 C558 135 569 190 583 232 C599 278 626 304 655 303 L655 303 Z M1052 366 C933 366 834 255 834 122 C834 37 887 -17 970 -17 C1088 -17 1188 95 1188 226 C1188 312 1135 366 1052 366 L1052 366 Z M1039 303 C1066 302 1080 283 1080 245 C1080 215 1069 157 1055 116 C1040 72 1014 46 983 46 C955 46 941 66 941 105 C941 135 952 190 967 232 C982 278 1009 304 1039 303 L1039 303 Z " />
<glyph glyph-name="guilsinglleft" unicode="&#x2039;" horiz-adv-x="259" d="M151 403 L104 346 C55 288 32 249 32 225 C32 206 43 163 57 129 L81 72 L145 72 L134 139 C132 151 131 164 131 175 C131 231 147 286 176 336 L216 403 L151 403 Z " />
<glyph glyph-name="guilsinglright" unicode="&#x203a;" horiz-adv-x="259" d="M63 72 L110 129 C159 187 182 227 182 250 C182 268 170 311 156 346 L133 403 L68 403 L80 336 C81 326 82 316 82 300 C82 244 66 187 38 139 L-2 72 L63 72 Z " />
<glyph glyph-name="fraction" unicode="&#x2044;" horiz-adv-x="148" d="M-222 -17 L-154 -17 L361 622 L290 622 L-222 -17 Z " />
<glyph glyph-name="Euro" unicode="&#x20ac;" horiz-adv-x="749" d="M99 355 C95 339 92 326 90 311 L46 311 L11 252 L85 252 C84 247 84 242 84 241 C84 175 99 123 132 73 C173 13 239 -19 323 -19 C408 -19 478 11 536 72 C581 119 603 160 634 258 L558 258 C530 185 513 155 481 123 C448 90 407 72 365 72 C285 72 237 129 237 222 C237 230 237 239 238 252 L410 252 L445 311 L246 311 C248 324 252 340 256 355 L471 355 L506 414 L273 414 C317 535 392 605 477 605 C553 605 599 549 599 457 C599 444 598 424 597 404 L666 404 L723 677 L659 677 L629 618 C570 671 536 686 469 686 C326 686 186 577 118 414 L68 414 L33 355 L99 355 Z " />
<glyph glyph-name="uni2117" unicode="&#x2117;" horiz-adv-x="282" d="M168 474 C130 474 95 446 95 414 C95 388 115 370 147 370 C183 370 218 400 218 431 C218 456 197 474 168 474 L168 474 Z M-53 0 L196 0 L206 47 L183 47 C156 47 145 53 145 66 C145 71 146 78 148 89 L200 330 L17 330 L7 283 L37 283 C66 283 78 277 78 263 C78 258 77 250 75 241 L43 89 C35 54 29 49 -13 47 L-43 47 L-53 0 Z " />
<glyph glyph-name="trademark" unicode="&#x2122;" horiz-adv-x="900" d="M147 367 C142 338 139 336 111 336 L79 336 L69 287 L283 287 L294 336 L262 336 C240 336 235 338 235 348 C235 351 235 354 238 367 L292 619 C337 618 354 602 354 560 C354 547 352 532 348 505 L395 505 L429 667 L84 667 L50 505 L97 505 C116 590 143 620 201 619 L147 367 Z M687 287 L878 287 L888 336 L866 336 C845 336 840 338 840 348 C840 352 841 360 843 367 L889 587 C895 616 898 618 926 618 L948 618 L959 667 L791 667 L656 431 L628 667 L455 667 L445 618 L466 618 C488 618 493 616 493 606 C493 603 493 603 490 587 L443 367 C437 339 434 336 406 336 L385 336 L375 287 L549 287 L559 336 L536 336 C514 336 509 338 509 348 C509 351 509 351 512 367 L561 596 L596 287 L636 287 L807 592 L759 367 C753 338 750 336 722 336 L697 336 L687 287 Z " />
<glyph glyph-name="uni2126" unicode="&#x2126;" horiz-adv-x="768" d="M326 0 L308 155 C230 199 180 288 180 382 C180 434 195 493 221 540 C257 605 317 642 385 642 C453 642 513 605 549 540 C575 493 590 434 590 382 C590 288 540 199 462 155 L444 0 L736 0 L736 153 L712 153 C704 108 684 90 643 90 L497 90 L500 128 C535 141 557 151 580 166 C657 215 702 296 702 382 C702 449 673 522 625 578 C564 648 480 686 385 686 C290 686 206 648 145 578 C97 522 68 449 68 382 C68 296 113 215 190 166 C213 151 235 141 270 128 L273 90 L127 90 C86 90 66 108 58 153 L34 153 L34 0 L326 0 Z " />
<glyph glyph-name="partialdiff" unicode="&#x2202;" horiz-adv-x="494" d="M107 674 C152 697 184 706 219 706 C321 706 379 611 379 447 C379 418 377 394 372 346 C308 396 272 412 221 412 C172 412 131 394 95 355 C51 309 26 246 26 184 C26 76 109 -10 213 -10 C282 -10 341 22 383 84 C429 152 462 286 462 403 C462 519 428 611 360 681 C312 730 259 753 195 753 C155 753 122 746 66 725 L107 674 Z M366 312 C350 201 340 158 314 107 C288 54 245 21 201 21 C146 21 113 73 113 159 C113 273 180 367 261 367 C299 367 324 354 366 312 L366 312 Z " />
<glyph glyph-name="Delta" unicode="&#x2206;" horiz-adv-x="612" d="M6 0 L608 0 L327 688 L6 0 Z M77 51 L290 509 L479 51 L77 51 Z " />
<glyph glyph-name="product" unicode="&#x220f;" horiz-adv-x="823" d="M25 -124 L315 -124 L315 -98 L312 -98 C242 -94 221 -67 224 18 L224 594 C224 656 228 677 242 690 C260 707 272 708 413 708 C556 708 568 707 586 690 C600 677 604 656 604 594 L604 18 C607 -67 586 -94 516 -98 L513 -98 L513 -124 L803 -124 L803 -98 L800 -98 C730 -94 709 -67 712 18 L712 609 C709 694 730 721 800 725 L803 725 L803 751 L25 751 L25 725 L28 725 C98 721 119 694 116 609 L116 18 C119 -67 98 -94 28 -98 L25 -98 L25 -124 Z " />
<glyph glyph-name="summation" unicode="&#x2211;" horiz-adv-x="713" d="M176 711 L444 711 C560 710 590 688 606 587 L632 587 L622 752 L23 752 L256 285 L14 -123 L641 -123 L695 87 L669 87 C639 7 605 -12 491 -11 L163 -11 L364 341 L176 711 Z " />
<glyph glyph-name="minus" unicode="&#x2212;" horiz-adv-x="510" d="M65 358 L46 267 L436 267 L455 358 L65 358 Z " />
<glyph glyph-name="uni2215" unicode="&#x2215;" horiz-adv-x="148" d="M-222 -17 L-154 -17 L361 622 L290 622 L-222 -17 Z " />
<glyph glyph-name="uni2219" unicode="&#x2219;" horiz-adv-x="277" d="M135 308 C90 308 49 266 49 219 C49 184 70 161 102 161 C144 161 185 205 185 251 C185 284 164 308 135 308 L135 308 Z " />
<glyph glyph-name="radical" unicode="&#x221a;" horiz-adv-x="549" d="M363 -35 L515 908 L480 913 L353 123 L156 520 L10 449 L26 414 L121 461 L363 -35 Z " />
<glyph glyph-name="infinity" unicode="&#x221e;" horiz-adv-x="713" d="M357 227 C415 156 485 115 548 115 C631 115 688 176 688 266 C688 354 629 414 543 414 C476 414 412 376 357 303 C300 375 234 414 171 414 C86 414 26 351 26 263 C26 176 84 115 167 115 C224 115 281 142 327 192 L357 227 Z M391 264 C434 325 493 362 546 362 C600 362 638 321 638 264 C638 205 603 167 549 167 C495 167 461 188 391 264 L391 264 Z M324 266 C275 203 216 167 163 167 C111 167 76 207 76 266 C76 323 113 362 167 362 C218 362 258 337 324 266 L324 266 Z " />
<glyph glyph-name="integral" unicode="&#x222b;" horiz-adv-x="274" d="M180 576 C180 653 179 691 176 746 C174 774 173 800 173 815 C173 855 184 878 202 878 C208 878 213 876 215 872 C232 845 239 839 256 839 C276 839 291 853 291 871 C291 898 267 916 231 916 C186 916 152 887 138 838 C123 784 113 682 113 577 L113 232 C113 160 114 124 117 63 C119 34 120 4 120 -12 C120 -47 108 -70 89 -70 C81 -70 74 -65 68 -52 C59 -35 51 -30 37 -30 C17 -30 2 -44 2 -63 C2 -89 26 -107 62 -107 C107 -107 141 -78 155 -29 C170 25 180 126 180 232 L180 576 Z " />
<glyph glyph-name="approxequal" unicode="&#x2248;" horiz-adv-x="549" d="M489 251 C444 199 423 187 384 187 C365 187 354 190 285 211 C212 234 188 239 160 239 C101 239 54 211 14 155 L57 121 C103 174 120 184 159 184 C180 184 180 184 271 157 C350 133 354 132 385 132 C449 132 496 160 527 217 L489 251 Z M489 408 C444 356 423 344 384 344 C365 344 354 347 285 368 C212 391 188 396 160 396 C101 396 54 369 14 312 L57 278 C103 331 120 341 159 341 C180 341 180 341 271 314 C350 290 354 289 385 289 C449 289 496 318 527 375 L489 408 Z " />
<glyph glyph-name="notequal" unicode="&#x2260;" horiz-adv-x="549" d="M187 142 L115 -1 L161 -25 L246 142 L540 142 L540 197 L273 197 L344 336 L540 336 L540 391 L371 391 L439 525 L392 549 L312 391 L15 391 L15 336 L285 336 L215 197 L15 197 L15 142 L187 142 Z " />
<glyph glyph-name="lessequal" unicode="&#x2264;" horiz-adv-x="549" d="M526 55 L29 55 L29 0 L526 0 L526 55 Z M526 639 L29 405 L29 350 L526 117 L526 179 L108 378 L526 577 L526 639 Z " />
<glyph glyph-name="greaterequal" unicode="&#x2265;" horiz-adv-x="549" d="M526 55 L29 55 L29 0 L526 0 L526 55 Z M29 639 L29 577 L447 378 L29 179 L29 117 L526 350 L526 405 L29 639 Z " />
<glyph glyph-name="lozenge" unicode="&#x25ca;" horiz-adv-x="494" d="M209 0 L269 -1 L466 374 L277 740 L214 740 L18 377 L209 0 Z M240 58 L81 376 L245 683 L402 373 L240 58 Z " />
<glyph glyph-name="fi" unicode="&#xfb01;" horiz-adv-x="585" d="M237 467 L243 494 C262 586 299 623 373 623 C396 623 408 620 430 608 C412 588 405 573 405 553 C405 524 425 508 462 508 C510 508 544 542 544 592 C544 651 487 684 385 684 C315 684 261 670 220 640 C173 607 150 566 133 483 L129 467 L42 467 L28 398 L115 398 L57 126 C46 77 38 69 -7 67 L-43 67 L-57 0 L207 0 L221 67 L203 67 C173 67 160 75 160 93 C160 101 162 113 164 126 L222 398 L345 398 C372 398 384 390 384 373 C384 365 382 353 379 339 L334 126 C324 77 316 69 274 67 L258 67 L244 0 L508 0 L522 67 L489 67 C461 67 449 75 449 92 C449 99 451 112 454 126 L526 467 L237 467 Z " />
<glyph glyph-name="fl" unicode="&#xfb02;" horiz-adv-x="586" d="M-48 0 L209 0 L224 67 L206 67 C175 67 162 74 162 93 C162 99 164 111 167 126 L225 398 L346 398 L360 467 L239 467 L245 494 C265 587 302 624 374 624 C399 624 412 620 433 608 C414 587 407 572 407 550 C407 537 410 531 420 518 L337 126 C326 76 319 69 278 67 L261 67 L247 0 L500 0 L514 67 L491 67 C463 67 451 74 451 91 C451 98 453 109 456 126 L571 667 L499 667 C445 681 419 685 379 685 C314 685 263 671 222 641 C176 608 153 567 135 483 L132 467 L51 467 L37 398 L117 398 L59 126 C49 76 41 69 -5 67 L-34 67 L-48 0 Z " />
</font>
</svg>
