<?xml version="1.0" encoding="UTF-8"?>
<svg xmlns="http://www.w3.org/2000/svg" xmlns:xlink="http://www.w3.org/1999/xlink" version="1.2" >
<font id="Bodoni URW Extra Wide Extra Bold Oblique">
<font-face  font-family="Bodoni URW Extra Wide" units-per-em="1000" ascent="680" descent="-320" font-style="italic" font-weight="800" font-stretch="normal" cap-height="667" x-height="407" underline-position="-94" underline-thickness="98" />
<missing-glyph  horiz-adv-x="250" d="" />
<glyph glyph-name="NULL" d="" />
<glyph glyph-name="CR" unicode="&#xd;" horiz-adv-x="250" d="" />
<glyph glyph-name="space" unicode="&#x20;" horiz-adv-x="250" d="" />
<glyph glyph-name="exclam" unicode="&#x21;" horiz-adv-x="345" d="M136 162 C56 162 -12 117 -12 63 C-12 22 36 -10 98 -10 C181 -10 248 34 248 88 C248 131 201 162 136 162 L136 162 Z M161 196 L305 515 C324 558 335 591 335 606 C335 649 300 674 243 674 C160 674 107 626 107 552 C107 545 107 531 108 515 L121 196 L161 196 Z " />
<glyph glyph-name="quotedbl" unicode="&#x22;" horiz-adv-x="573" d="M199 399 L318 667 L106 667 L110 399 L199 399 Z M491 399 L609 667 L398 667 L401 399 L491 399 Z " />
<glyph glyph-name="numbersign" unicode="&#x23;" horiz-adv-x="733" d="M447 250 L594 250 L603 291 L462 291 L500 394 L649 394 L658 436 L515 436 L600 670 L555 670 L468 436 L350 436 L435 670 L387 670 L302 436 L145 436 L136 394 L286 394 L249 291 L89 291 L80 250 L234 250 L143 0 L190 0 L282 250 L401 250 L310 0 L355 0 L447 250 Z M453 394 L416 291 L297 291 L334 394 L453 394 Z " />
<glyph glyph-name="dollar" unicode="&#x24;" horiz-adv-x="733" d="M298 22 C276 18 261 16 240 16 C203 16 163 21 127 29 C190 48 223 83 223 133 C223 177 187 209 136 209 C69 209 7 154 7 95 C7 27 103 -10 281 -10 L288 -10 L291 -10 L276 -81 L296 -81 L311 -9 C385 -7 438 5 492 30 C593 76 656 160 656 247 C656 322 618 370 513 426 L415 478 L451 645 C477 651 500 653 527 653 C563 653 587 649 624 637 C589 634 572 630 554 619 C524 600 506 567 506 532 C506 486 540 458 594 458 C661 458 719 511 719 572 C719 638 639 677 501 677 C487 677 480 677 457 676 L472 744 L452 744 L436 673 C236 649 109 545 109 407 C109 357 131 316 179 276 C202 256 202 256 319 196 L326 192 L333 189 L298 22 Z M351 178 C414 151 433 136 433 111 C433 75 396 48 319 28 L351 178 Z M393 488 C357 510 341 531 341 555 C341 590 372 622 425 640 L393 488 Z " />
<glyph glyph-name="percent" unicode="&#x25;" horiz-adv-x="902" d="M289 678 C158 678 37 543 37 397 C37 295 96 230 188 230 C261 230 328 263 372 320 C416 375 441 446 441 511 C441 610 379 678 289 678 L289 678 Z M236 618 C242 646 254 655 284 655 C305 655 315 648 315 634 C315 630 314 623 313 618 L243 289 C237 261 225 252 196 252 C174 252 164 259 164 273 C164 276 165 282 166 289 L236 618 Z M248 0 L694 667 L664 667 L219 0 L248 0 Z M716 437 C585 437 464 302 464 156 C464 54 523 -11 615 -11 C688 -11 755 22 799 79 C843 134 868 205 868 270 C868 370 807 437 716 437 L716 437 Z M663 377 C669 405 681 414 711 414 C731 414 743 407 742 394 C742 389 741 383 740 377 L670 48 C664 20 652 11 622 11 C601 11 591 18 591 32 C591 36 592 42 593 48 L663 377 Z " />
<glyph glyph-name="ampersand" unicode="&#x26;" horiz-adv-x="986" d="M904 167 C890 101 878 83 847 83 C832 83 823 91 813 112 L753 240 C810 276 839 315 852 378 L949 378 L954 401 L740 401 L735 378 L819 378 C811 326 789 292 743 263 L648 469 C726 498 770 543 770 593 C770 648 715 680 621 680 C521 680 419 644 365 589 C334 557 315 512 315 469 C315 458 316 450 320 435 C243 413 177 386 129 355 C44 301 -6 225 -6 147 C-6 51 70 -13 182 -13 C281 -13 379 11 487 61 C527 8 580 -13 671 -13 C776 -13 862 18 896 70 C912 94 917 107 929 167 L904 167 Z M477 81 C453 69 438 65 418 65 C376 65 359 80 333 138 L259 306 C254 317 251 329 251 341 C251 375 271 394 327 413 L477 81 Z M640 496 C627 523 617 556 617 571 C617 605 646 635 680 635 C710 635 730 616 730 587 C730 548 696 515 640 496 L640 496 Z " />
<glyph glyph-name="quotesingle" unicode="&#x27;" horiz-adv-x="314" d="M219 399 L337 667 L118 667 L123 399 L219 399 Z " />
<glyph glyph-name="parenleft" unicode="&#x28;" horiz-adv-x="397" d="M250 -253 C246 -250 243 -248 242 -247 L216 -229 C205 -221 195 -213 180 -198 L359 645 C380 659 393 667 409 676 L442 694 L452 700 L439 715 C325 654 263 607 189 528 C72 400 10 262 10 127 C10 38 38 -53 89 -131 C124 -185 158 -218 230 -269 L250 -253 Z " />
<glyph glyph-name="parenright" unicode="&#x29;" horiz-adv-x="397" d="M-90 -269 C25 -207 87 -161 160 -81 C278 47 340 184 340 320 C340 409 312 500 261 578 C226 632 191 666 119 715 L100 700 C104 697 107 694 107 694 C116 688 125 682 133 676 C145 668 155 659 170 645 L-10 -198 C-31 -213 -44 -221 -59 -229 C-70 -235 -81 -241 -93 -247 L-103 -253 L-90 -269 Z " />
<glyph glyph-name="asterisk" unicode="&#x2a;" horiz-adv-x="551" d="M117 378 C109 376 102 371 102 366 C102 360 108 356 130 346 C131 345 136 343 140 341 C123 310 116 292 116 281 C116 273 121 268 128 268 L129 268 C129 268 132 269 135 269 C140 268 162 277 182 289 L199 300 C211 280 222 272 232 272 C238 272 241 276 243 282 L244 292 C254 351 265 380 302 445 C307 416 308 401 308 375 C308 342 305 311 300 296 L298 289 C297 284 296 281 296 280 C296 275 299 272 303 272 C311 272 327 283 349 303 C375 281 391 272 404 272 C419 272 427 284 427 308 C427 320 426 329 423 347 C454 357 471 366 471 374 C471 378 467 381 460 383 L454 384 C404 397 347 427 318 455 L341 455 C391 455 441 448 477 435 L487 432 C489 431 494 430 497 430 C503 430 507 433 507 440 C507 453 504 462 494 478 C536 501 557 519 557 531 C557 541 535 548 507 548 C503 548 495 548 483 547 C484 560 485 567 485 573 C485 585 481 592 475 592 C471 592 466 589 462 585 L456 579 C413 533 366 497 315 470 C341 523 372 564 418 609 L425 616 C428 618 430 623 430 626 L430 627 C430 630 427 632 419 632 C407 632 399 631 377 626 C370 668 362 686 348 686 C335 686 318 666 295 624 C279 628 268 630 261 630 C250 630 241 625 241 618 C241 617 242 614 245 610 L249 604 C277 562 290 523 297 469 C245 506 231 520 199 573 L193 581 C190 587 187 589 183 589 C172 589 165 576 157 542 C99 541 76 535 76 519 C76 507 90 492 119 472 C100 452 92 439 92 429 C92 426 94 424 97 424 C100 424 104 425 109 427 L117 429 C164 445 198 450 289 454 C245 424 179 393 128 380 L117 378 Z " />
<glyph glyph-name="plus" unicode="&#x2b;" horiz-adv-x="733" d="M628 356 L392 356 L440 581 L398 581 L350 356 L114 356 L105 313 L341 313 L293 88 L335 88 L383 313 L619 313 L628 356 Z " />
<glyph glyph-name="comma" unicode="&#x2c;" horiz-adv-x="356" d="M-7 -87 C91 -86 128 -79 168 -54 C217 -25 258 40 258 89 C258 140 211 175 142 175 C62 175 -8 129 -8 76 C-8 34 41 0 99 0 C140 0 175 11 205 32 C173 -39 123 -62 -2 -63 L-7 -87 Z " />
<glyph glyph-name="hyphen" unicode="&#x2d;" horiz-adv-x="315" d="M276 151 L313 324 L-2 324 L-39 151 L276 151 Z " />
<glyph glyph-name="period" unicode="&#x2e;" horiz-adv-x="346" d="M138 167 C59 167 -12 119 -12 66 C-12 20 35 -13 101 -13 C183 -13 248 31 248 87 C248 134 203 167 138 167 L138 167 Z " />
<glyph glyph-name="slash" unicode="&#x2f;" horiz-adv-x="220" d="M-154 -227 L356 680 L326 680 L-183 -227 L-154 -227 Z " />
<glyph glyph-name="zero" unicode="0" horiz-adv-x="733" d="M442 683 C341 683 235 636 157 556 C75 473 25 357 25 253 C25 92 129 -16 284 -16 C387 -16 483 18 554 80 C647 161 709 296 709 415 C709 575 601 683 442 683 L442 683 Z M346 594 C356 640 381 657 438 657 C481 657 503 644 503 617 C503 607 502 602 501 594 L390 72 C380 26 355 9 298 9 C255 9 233 22 233 49 C233 57 234 64 235 72 L346 594 Z " />
<glyph glyph-name="one" unicode="1" horiz-adv-x="733" d="M511 0 L516 23 L429 23 L570 687 C482 646 429 635 308 633 L238 633 L233 610 L322 610 L197 23 L108 23 L103 0 L511 0 Z " />
<glyph glyph-name="two" unicode="2" horiz-adv-x="733" d="M-23 -19 C19 9 51 19 96 19 C141 19 186 13 272 -3 C298 -8 324 -11 339 -11 C373 -11 409 -4 444 10 C480 24 505 42 546 83 C595 133 624 168 668 231 L646 245 C606 197 587 190 492 190 C456 190 429 192 344 199 C317 202 297 203 285 203 C257 203 235 199 209 187 C241 209 257 214 337 231 C461 255 523 278 588 319 C657 364 693 424 693 497 C693 616 585 683 392 683 C293 683 219 663 156 619 C104 582 72 534 72 492 C72 443 115 406 171 406 C244 406 308 465 308 532 C308 579 276 606 220 606 C205 606 193 604 174 599 C219 634 267 651 321 651 C401 651 451 614 451 554 C451 499 429 416 402 369 C370 312 316 264 233 221 C79 145 4 83 -43 -6 L-23 -19 Z " />
<glyph glyph-name="three" unicode="3" horiz-adv-x="733" d="M427 437 C419 399 400 386 356 387 L273 387 L267 359 L336 359 C385 359 404 350 404 328 C404 320 403 313 401 305 L357 97 C350 63 343 48 324 34 C306 20 279 13 242 13 C203 13 166 18 133 27 C96 38 79 50 67 74 C91 58 106 53 128 53 C194 53 248 103 248 163 C248 209 213 240 160 240 C85 240 19 180 19 112 C19 78 39 46 75 22 C112 -3 177 -16 260 -16 C310 -16 368 -10 418 0 C478 13 514 28 554 59 C611 102 643 160 643 219 C643 263 626 302 597 326 C562 356 528 368 467 373 C551 378 595 392 631 424 C664 453 686 502 686 546 C686 634 594 683 432 683 C336 683 259 668 208 638 C166 613 137 570 137 530 C137 485 171 456 226 456 C297 456 357 507 357 567 C357 599 339 622 306 633 C293 637 290 638 261 638 C294 650 334 657 377 657 C438 657 461 644 461 610 C461 602 460 590 457 580 L427 437 Z " />
<glyph glyph-name="four" unicode="4" horiz-adv-x="733" d="M622 0 L627 23 L549 23 L579 163 L657 163 L662 186 L584 186 L686 667 L490 667 L-17 163 L345 163 L315 23 L190 23 L185 0 L622 0 Z M350 186 L42 186 L430 565 L350 186 Z " />
<glyph glyph-name="five" unicode="5" horiz-adv-x="733" d="M195 377 C253 405 295 417 335 417 C372 417 394 402 394 375 C394 368 393 359 391 351 L337 94 C330 63 323 50 305 38 C282 22 248 13 207 13 C163 13 133 19 107 34 C141 35 159 39 180 48 C219 66 241 100 241 142 C241 189 207 219 153 219 C73 219 10 166 10 97 C10 64 25 37 54 19 C90 -3 148 -16 213 -16 C311 -16 404 3 476 37 C569 82 625 171 625 274 C625 378 532 448 395 448 C339 448 291 440 239 421 L265 501 L407 501 C577 496 673 550 737 687 C663 673 593 667 503 667 C423 667 354 671 297 680 L195 377 Z " />
<glyph glyph-name="six" unicode="6" horiz-adv-x="733" d="M367 555 C377 598 383 612 403 627 C429 647 467 657 512 657 C533 657 544 655 566 649 C513 630 484 592 484 542 C484 495 514 466 565 466 C633 466 683 514 683 580 C683 646 617 683 498 683 C401 683 295 650 215 594 C98 512 24 376 24 242 C24 86 134 -16 302 -16 C409 -16 523 20 585 74 C643 123 679 193 679 257 C679 353 601 420 489 420 C437 420 393 410 331 383 L367 555 Z M326 360 C379 377 382 378 401 378 C431 378 447 365 447 341 C447 334 446 324 445 317 L390 58 C384 30 355 13 315 13 C280 13 261 26 262 49 C262 52 263 56 264 60 L326 360 Z " />
<glyph glyph-name="seven" unicode="7" horiz-adv-x="733" d="M757 678 C726 663 692 657 642 657 C619 657 599 658 582 661 C468 680 439 683 385 683 C308 683 231 667 181 641 C184 655 185 661 186 664 L188 678 L189 684 L165 684 C157 608 120 513 66 429 L93 429 C132 484 156 498 216 498 C227 498 242 498 258 497 C292 495 315 494 325 494 C462 494 570 524 650 586 C607 541 578 517 501 463 C385 381 320 330 269 280 C206 217 164 137 164 79 C164 22 210 -16 280 -16 C325 -16 373 0 403 25 C445 59 467 107 488 206 C520 382 637 574 765 660 L757 678 Z " />
<glyph glyph-name="eight" unicode="8" horiz-adv-x="733" d="M500 386 C633 403 704 462 704 554 C704 642 617 683 430 683 C321 683 238 664 185 628 C135 594 105 545 105 497 C105 468 117 441 138 423 C163 402 185 393 241 381 C162 371 121 356 76 319 C25 277 -5 216 -5 152 C-5 109 9 76 37 49 C79 11 179 -16 284 -16 C381 -16 482 9 558 51 C635 93 683 169 683 246 C683 294 663 332 625 353 C593 372 567 379 500 386 L500 386 Z M354 608 C361 644 383 657 436 657 C476 657 497 646 497 626 C497 622 496 614 495 608 L461 448 C453 412 431 399 379 399 C339 399 318 410 318 430 C318 438 318 442 320 448 L354 608 Z M291 329 C299 365 321 378 377 378 C420 378 442 367 442 346 C442 343 441 335 440 329 L382 56 C374 20 351 7 296 7 C254 7 231 18 231 38 C231 45 232 50 233 56 L291 329 Z " />
<glyph glyph-name="nine" unicode="9" horiz-adv-x="733" d="M372 113 C363 69 348 48 313 33 C283 20 247 13 209 13 C172 13 147 17 115 30 C163 46 193 86 193 133 C193 180 165 208 119 208 C55 208 -2 155 -2 95 C-2 25 73 -16 203 -16 C297 -16 403 13 487 61 C621 136 705 277 705 424 C705 512 671 586 607 634 C563 668 507 683 427 683 C323 683 227 654 163 603 C100 553 60 480 60 415 C60 317 145 251 273 251 C327 251 348 255 408 278 L372 113 Z M412 306 C382 291 352 283 328 283 C306 283 292 297 292 318 C292 329 293 339 296 351 L345 583 C350 609 355 621 362 630 C376 647 399 657 425 657 C459 657 476 642 476 612 C476 604 475 597 474 589 L412 306 Z " />
<glyph glyph-name="colon" unicode="&#x3a;" horiz-adv-x="346" d="M138 167 C59 167 -12 119 -12 66 C-12 20 35 -13 101 -13 C183 -13 248 31 248 87 C248 134 203 167 138 167 L138 167 Z M192 420 C113 420 42 372 42 319 C42 273 89 240 155 240 C237 240 302 284 302 339 C302 387 257 420 192 420 L192 420 Z " />
<glyph glyph-name="semicolon" unicode="&#x3b;" horiz-adv-x="356" d="M-7 -87 C91 -86 128 -79 168 -54 C217 -25 258 40 258 89 C258 140 211 175 142 175 C62 175 -8 129 -8 76 C-8 34 41 0 99 0 C140 0 175 11 205 32 C174 -39 123 -62 -1 -63 L-7 -87 Z M192 420 C114 420 43 372 43 319 C43 273 90 240 156 240 C237 240 302 284 302 340 C302 387 257 420 192 420 L192 420 Z " />
<glyph glyph-name="less" unicode="&#x3c;" horiz-adv-x="550" d="M577 649 L51 387 L49 377 L456 81 L502 298 L305 441 L559 568 L577 649 Z " />
<glyph glyph-name="equal" unicode="&#x3d;" horiz-adv-x="733" d="M641 416 L127 416 L118 373 L632 373 L641 416 Z M615 295 L101 295 L92 252 L606 252 L615 295 Z " />
<glyph glyph-name="greater" unicode="&#x3e;" horiz-adv-x="550" d="M-14 81 L512 343 L514 353 L107 649 L61 433 L258 289 L3 163 L-14 81 Z " />
<glyph glyph-name="question" unicode="&#x3f;" horiz-adv-x="522" d="M158 139 C87 139 25 100 25 56 C25 19 68 -10 124 -10 C199 -10 260 27 260 72 C260 111 217 139 158 139 L158 139 Z M148 154 L183 188 C274 194 340 214 395 252 C469 302 517 387 517 466 C517 582 414 674 285 674 C173 674 60 587 60 500 C60 454 91 427 143 427 C209 427 261 472 261 529 C261 572 230 599 180 599 C164 599 152 597 133 590 C178 630 216 647 263 647 C336 647 392 590 392 515 C392 418 303 353 163 349 L148 154 Z " />
<glyph glyph-name="at" unicode="&#x40;" horiz-adv-x="815" d="M535 519 L522 496 C510 522 493 533 463 533 C385 533 292 478 223 389 C175 329 148 265 148 216 C148 169 181 134 225 134 C272 134 317 155 374 202 C375 178 378 167 385 157 C396 142 418 133 443 133 C485 133 544 153 603 187 C728 258 810 375 810 482 C810 600 699 684 542 684 C284 684 15 446 15 218 C15 77 129 -17 298 -17 C417 -17 544 25 645 98 C681 123 700 142 731 181 L693 181 C623 87 448 10 302 10 C157 10 55 96 55 218 C55 336 136 471 260 560 C347 623 444 656 540 656 C673 656 779 576 779 477 C779 415 740 336 681 278 C636 234 568 193 540 193 C533 193 527 198 527 204 C527 209 532 222 540 236 L702 519 L535 519 Z M408 296 C385 257 383 252 375 227 C345 200 320 184 307 184 C298 184 291 192 291 202 C291 209 297 222 312 249 L419 436 C443 477 461 495 480 495 C490 495 496 488 505 466 L408 296 Z " />
<glyph glyph-name="A" unicode="A" horiz-adv-x="860" d="M785 0 L790 23 L750 23 L640 667 L389 667 L91 174 C29 83 -26 28 -62 23 L-67 0 L218 0 L223 23 C146 24 113 51 113 113 C113 144 119 166 139 205 L393 205 L424 23 L341 23 L336 0 L785 0 Z M391 228 L152 228 L337 539 L391 228 Z " />
<glyph glyph-name="B" unicode="B" horiz-adv-x="917" d="M-45 0 L565 0 C668 0 723 14 776 52 C828 90 858 149 858 213 C858 259 841 290 804 317 C773 339 747 346 691 347 C768 351 804 363 841 398 C880 434 903 486 903 538 C903 583 885 622 853 642 C824 662 793 667 713 667 L97 667 L92 644 L185 644 L53 23 L-40 23 L-45 0 Z M366 23 L431 326 L475 326 C524 326 539 318 539 293 C539 285 537 274 535 261 L497 85 C487 32 476 24 416 23 L366 23 Z M435 348 L498 644 L545 644 C590 644 604 635 604 604 C604 591 602 579 597 555 L568 417 C556 363 539 348 485 348 L435 348 Z " />
<glyph glyph-name="C" unicode="C" horiz-adv-x="770" d="M651 133 C562 50 477 10 390 10 C343 10 320 30 320 72 C320 83 322 99 326 117 L419 557 C428 597 434 614 445 627 C461 647 484 657 513 657 C618 657 711 565 711 461 C711 446 710 434 706 412 L731 412 L789 687 L667 631 C612 673 568 687 492 687 C374 687 262 648 181 579 C84 496 25 374 25 257 C25 90 152 -20 346 -20 C469 -20 565 20 673 117 L651 133 Z " />
<glyph glyph-name="D" unicode="D" horiz-adv-x="950" d="M-45 0 L532 0 C636 0 722 40 802 125 C880 208 926 314 926 409 C926 481 900 552 857 599 C813 646 748 667 648 667 L97 667 L92 644 L178 644 L46 23 L-40 23 L-45 0 Z M361 23 L493 644 L548 644 C603 644 617 636 617 603 C617 590 614 570 610 549 L518 118 C505 45 477 22 405 23 L361 23 Z " />
<glyph glyph-name="E" unicode="E" horiz-adv-x="821" d="M684 0 L736 246 L713 246 C662 114 524 26 361 23 L427 331 L448 331 C509 331 551 288 551 225 C551 213 550 202 545 179 L569 179 L639 511 L616 511 C600 418 537 356 455 355 L431 355 L493 644 C577 644 608 639 646 620 C699 592 735 538 735 485 C735 478 735 471 733 457 L757 457 L802 667 L97 667 L92 644 L178 644 L46 23 L-40 23 L-45 0 L684 0 Z " />
<glyph glyph-name="F" unicode="F" horiz-adv-x="795" d="M453 0 L458 23 L361 23 L424 318 C514 318 549 291 549 224 C549 207 547 191 544 169 L569 169 L639 501 L614 501 C594 395 530 340 429 341 L493 644 L544 644 C668 650 745 585 745 475 L745 469 L745 460 L771 460 L815 667 L97 667 L92 644 L178 644 L46 23 L-40 23 L-45 0 L453 0 Z " />
<glyph glyph-name="G" unicode="G" horiz-adv-x="863" d="M826 277 L830 300 L443 300 L438 277 L519 277 L480 93 C468 38 435 10 384 10 C347 10 329 25 329 56 C329 64 330 75 332 83 L434 562 C449 635 474 657 544 657 C604 657 656 635 699 592 C735 555 756 511 756 469 C756 457 755 448 751 427 L772 427 L828 687 L718 631 C652 674 605 687 520 687 C417 687 319 663 245 621 C116 546 23 393 23 255 C23 88 160 -20 371 -20 C479 -20 566 1 646 46 L708 -32 L773 277 L826 277 Z " />
<glyph glyph-name="H" unicode="H" horiz-adv-x="982" d="M886 0 L891 23 L805 23 L937 644 L1022 644 L1027 667 L571 667 L566 644 L621 644 L561 359 L432 359 L493 644 L548 644 L553 667 L97 667 L92 644 L178 644 L46 23 L-40 23 L-45 0 L411 0 L416 23 L361 23 L427 336 L556 336 L489 23 L434 23 L429 0 L886 0 Z " />
<glyph glyph-name="I" unicode="I" horiz-adv-x="543" d="M446 0 L451 23 L365 23 L497 644 L583 644 L588 667 L97 667 L92 644 L178 644 L46 23 L-40 23 L-45 0 L446 0 Z " />
<glyph glyph-name="J" unicode="J" horiz-adv-x="719" d="M763 644 L768 667 L262 667 L257 644 L362 644 L255 141 C245 95 234 69 213 50 C189 25 154 11 119 11 C84 11 46 28 28 52 C44 49 51 48 61 48 C139 48 203 103 203 171 C203 216 171 246 121 246 C42 246 -26 184 -26 112 C-26 33 48 -20 158 -20 C274 -20 397 0 456 29 C532 66 563 108 582 197 L677 644 L763 644 Z " />
<glyph glyph-name="K" unicode="K" horiz-adv-x="991" d="M913 0 L918 23 L882 23 L705 510 L752 542 C892 623 947 646 1000 644 L1014 644 L1019 667 L630 667 L625 644 C702 644 728 631 728 590 C728 562 712 543 657 510 L436 377 L493 644 L583 644 L588 667 L97 667 L92 644 L178 644 L46 23 L-40 23 L-45 0 L440 0 L445 23 L361 23 L429 345 L547 23 L472 23 L467 0 L913 0 Z " />
<glyph glyph-name="L" unicode="L" horiz-adv-x="789" d="M727 250 L701 250 C674 138 521 36 361 23 L493 644 L588 644 L593 667 L97 667 L92 644 L178 644 L46 23 L-40 23 L-45 0 L674 0 L727 250 Z " />
<glyph glyph-name="M" unicode="M" horiz-adv-x="1151" d="M1055 0 L1060 23 L974 23 L1106 644 L1192 644 L1197 667 L809 667 L596 335 L518 667 L104 667 L99 644 L171 644 L186 604 L101 203 C79 95 16 20 -51 23 L-56 0 L226 0 L231 24 L220 24 C154 24 123 59 123 132 C123 152 128 196 133 219 L208 573 L338 0 L410 0 L775 573 L659 23 L568 23 L563 0 L1055 0 Z " />
<glyph glyph-name="N" unicode="N" horiz-adv-x="903" d="M702 0 L799 457 C824 573 884 645 955 644 L960 667 L666 667 L661 644 L686 644 C750 644 780 610 780 537 C780 505 777 478 771 449 L738 295 L510 667 L86 667 L81 644 L149 644 L184 582 L101 192 C76 87 17 22 -51 23 L-56 0 L227 0 L232 23 C160 24 126 62 126 142 C126 167 129 195 136 228 L204 545 L525 0 L702 0 Z " />
<glyph glyph-name="O" unicode="O" horiz-adv-x="885" d="M518 687 C230 687 24 504 24 248 C24 167 54 104 118 53 C179 4 262 -20 369 -20 C523 -20 631 20 727 113 C815 199 862 304 862 416 C862 589 738 687 518 687 L518 687 Z M441 601 C450 644 474 666 512 666 C546 666 561 653 561 623 C561 615 560 608 559 601 L446 68 C436 21 414 1 373 1 C341 1 324 14 324 40 C324 46 325 58 328 68 L441 601 Z " />
<glyph glyph-name="P" unicode="P" horiz-adv-x="892" d="M456 0 L461 23 L361 23 L413 268 L542 268 C662 268 739 284 790 319 C855 363 899 445 899 523 C899 575 879 618 845 641 C819 659 771 667 695 667 L97 667 L92 644 L178 644 L46 23 L-40 23 L-45 0 L456 0 Z M418 292 L493 644 L533 644 C581 644 594 635 594 603 C594 586 591 561 587 541 L550 366 C539 314 509 291 455 291 L450 291 L427 292 L418 292 Z " />
<glyph glyph-name="Q" unicode="Q" horiz-adv-x="886" d="M644 -197 C626 -199 616 -200 602 -200 C508 -200 474 -163 474 -63 C474 -42 475 -32 479 -11 C696 22 862 207 862 417 C862 588 736 687 517 687 C228 687 24 507 24 251 C24 170 55 107 119 54 C166 15 216 -5 291 -15 C287 -41 285 -55 285 -71 C285 -118 303 -159 336 -187 C376 -220 453 -238 552 -238 C580 -238 604 -237 636 -234 L644 -197 Z M443 601 C452 647 473 666 514 666 C546 666 562 654 562 629 C562 622 561 611 558 601 L444 63 C435 20 413 1 374 1 C342 1 326 13 326 39 C326 48 327 56 328 63 L443 601 Z " />
<glyph glyph-name="R" unicode="R" horiz-adv-x="950" d="M847 118 C835 90 825 78 814 78 C805 78 799 84 799 92 C799 104 802 115 818 177 C828 213 831 233 831 252 C831 276 823 296 808 312 C794 327 783 333 736 351 C782 367 807 380 834 403 C876 440 900 493 900 548 C900 585 888 614 864 634 C835 657 786 667 700 667 L97 667 L92 644 L178 644 L46 23 L-40 23 L-45 0 L430 0 L434 23 L361 23 L428 339 C442 340 450 340 457 340 C492 340 503 339 513 335 C526 328 534 317 534 303 C534 295 533 285 531 275 C510 172 504 133 504 111 C504 65 528 24 565 7 C593 -6 637 -14 685 -14 C747 -14 792 2 824 34 C841 52 853 71 870 112 L847 118 Z M493 644 L530 644 C583 644 598 635 598 604 C598 595 597 584 595 575 L565 434 C549 373 526 361 433 363 L493 644 Z " />
<glyph glyph-name="S" unicode="S" horiz-adv-x="697" d="M665 456 L714 687 L601 631 C539 673 491 687 418 687 C330 687 241 655 179 602 C120 550 83 478 83 414 C83 340 139 275 254 217 C351 168 354 167 375 150 C396 133 405 119 405 102 C405 48 343 9 258 9 C210 9 161 25 125 51 C67 94 40 139 40 193 C40 213 42 230 48 254 L20 254 L-38 -17 L73 43 C135 -5 181 -21 252 -21 C342 -21 447 9 516 53 C588 100 634 183 634 264 C634 345 590 388 416 480 C346 517 338 521 321 534 C308 545 300 559 300 573 C300 623 350 661 416 661 C482 661 542 640 590 601 C627 570 642 539 642 492 C642 480 641 472 638 456 L665 456 Z " />
<glyph glyph-name="T" unicode="T" horiz-adv-x="813" d="M592 0 L597 23 L499 23 L631 644 C724 612 786 536 789 450 L789 444 L789 435 L815 435 L864 667 L90 667 L41 435 L66 435 C112 535 192 602 316 644 L184 23 L86 23 L81 0 L592 0 Z " />
<glyph glyph-name="U" unicode="U" horiz-adv-x="847" d="M903 667 L624 667 L619 644 C657 643 671 640 688 628 C712 610 724 578 724 530 C724 500 722 485 712 437 L657 180 C647 130 624 94 587 68 C543 37 485 18 436 18 C391 18 369 34 369 65 C369 75 371 86 376 110 L489 644 L567 644 L572 667 L93 667 L88 644 L174 644 L75 176 C70 156 68 138 68 125 C68 73 111 32 193 7 C245 -9 318 -20 376 -20 C538 -20 657 54 682 170 L745 467 C769 575 828 644 898 644 L903 667 Z " />
<glyph glyph-name="V" unicode="V" horiz-adv-x="840" d="M911 667 L662 667 L657 644 C712 643 736 623 736 577 C736 550 719 508 693 469 L531 230 L457 644 L527 644 L532 667 L71 667 L66 644 L124 644 L236 0 L403 0 L731 475 C791 564 857 628 906 644 L911 667 Z " />
<glyph glyph-name="W" unicode="W" horiz-adv-x="1289" d="M1360 667 L1110 667 L1105 644 C1135 642 1144 640 1154 636 C1172 627 1183 607 1183 581 C1183 549 1169 510 1144 472 L980 230 L915 644 L976 644 L981 667 L535 667 L530 644 L583 644 L629 348 L532 214 L455 644 L508 644 L513 667 L71 667 L66 644 L123 644 L236 0 L409 0 L636 312 L684 0 L853 0 L1174 469 C1241 565 1297 619 1355 644 L1360 667 Z " />
<glyph glyph-name="X" unicode="X" horiz-adv-x="895" d="M817 0 L822 23 L761 23 L623 397 L805 552 C883 620 917 641 954 644 L959 667 L692 667 L687 644 C745 643 762 633 762 599 C762 566 738 527 697 493 L615 423 L533 644 L611 644 L616 667 L117 667 L112 644 L178 644 L306 292 L145 145 C65 72 -7 29 -58 23 L-63 0 L217 0 L222 23 C180 26 156 46 156 77 C156 106 176 138 217 176 L315 266 L406 23 L318 23 L313 0 L817 0 Z " />
<glyph glyph-name="Y" unicode="Y" horiz-adv-x="840" d="M911 667 L662 667 L657 644 C690 642 701 640 712 634 C727 626 737 607 737 586 C737 561 720 527 689 489 L581 358 L471 644 L550 644 L555 667 L71 667 L66 644 L112 644 L260 260 L210 23 L119 23 L114 0 L618 0 L623 23 L525 23 L590 328 L732 500 C798 580 853 625 906 644 L911 667 Z " />
<glyph glyph-name="Z" unicode="Z" horiz-adv-x="806" d="M739 285 L713 285 C698 227 655 170 585 113 C496 42 439 21 343 23 L833 667 L154 667 L100 415 L126 415 C145 488 185 543 255 589 C317 630 357 641 460 644 L-27 0 L679 0 L739 285 Z " />
<glyph glyph-name="bracketleft" unicode="&#x5b;" horiz-adv-x="404" d="M287 -253 L291 -233 L177 -233 L371 680 L485 680 L489 700 L130 700 L-73 -253 L287 -253 Z " />
<glyph glyph-name="backslash" unicode="&#x5c;" horiz-adv-x="220" d="M136 -227 L165 -227 L41 680 L12 680 L136 -227 Z " />
<glyph glyph-name="bracketright" unicode="&#x5d;" horiz-adv-x="404" d="M-132 -253 L228 -253 L431 700 L71 700 L66 680 L180 680 L-14 -233 L-128 -233 L-132 -253 Z " />
<glyph glyph-name="asciicircum" unicode="&#x5e;" horiz-adv-x="550" d="M574 273 L377 700 L366 700 L-51 273 L188 273 L389 480 L485 273 L574 273 Z " />
<glyph glyph-name="underscore" unicode="&#x5f;" horiz-adv-x="500" d="M-92 -93 L-113 -191 L390 -191 L411 -93 L-92 -93 Z " />
<glyph glyph-name="grave" unicode="&#x60;" horiz-adv-x="530" d="M324 483 L318 623 L152 623 L146 596 L291 483 L324 483 Z " />
<glyph glyph-name="a" unicode="a" horiz-adv-x="679" d="M596 88 C568 59 561 53 553 53 C550 53 549 55 549 60 C549 63 550 70 552 78 L592 267 C597 289 599 304 599 312 C599 383 500 420 309 420 C168 420 82 375 82 303 C82 263 109 240 154 240 C212 240 256 282 256 338 C256 365 243 380 210 390 C232 395 249 397 276 397 C342 397 383 378 383 346 C383 341 381 328 378 313 L357 213 C316 226 277 231 228 231 C167 231 122 224 84 209 C21 184 -21 136 -21 89 C-21 29 49 -13 151 -13 C210 -13 256 -1 323 31 C351 -1 379 -13 425 -13 C505 -13 571 19 614 78 L596 88 Z M322 48 C273 33 251 28 228 28 C201 28 186 39 186 57 L187 68 L207 161 C214 192 232 204 275 204 C297 204 316 201 352 192 L322 48 Z " />
<glyph glyph-name="b" unicode="b" horiz-adv-x="708" d="M244 34 C280 2 321 -13 374 -13 C529 -13 664 109 664 249 C664 355 596 420 485 420 C439 420 404 414 320 390 L382 680 C351 673 301 668 234 667 L79 667 L74 647 L148 647 L15 20 L-59 20 L-63 0 L152 0 C177 0 214 -5 234 -13 L244 34 Z M315 365 C341 375 365 380 389 380 C425 380 443 367 443 342 C443 334 442 325 440 315 L388 70 C382 45 367 34 337 34 C308 34 277 44 250 62 L315 365 Z " />
<glyph glyph-name="c" unicode="c" horiz-adv-x="550" d="M447 95 C388 43 327 16 269 16 C225 16 207 28 207 57 C207 67 209 79 212 95 L264 338 C273 383 292 399 336 399 C388 399 417 392 439 374 C424 377 417 378 409 378 C355 378 306 334 306 285 C306 249 341 224 392 224 C458 224 508 267 508 323 C508 384 447 420 344 420 C148 420 -11 303 -11 159 C-11 51 79 -13 230 -13 C331 -13 404 17 468 85 L447 95 Z " />
<glyph glyph-name="d" unicode="d" horiz-adv-x="708" d="M328 -13 C365 -4 382 -2 431 0 L630 0 L635 20 L561 20 L702 680 C643 671 621 668 570 667 L376 667 L372 647 L468 647 L413 388 C353 411 311 420 261 420 C109 420 -11 302 -11 153 C-11 59 73 -13 182 -13 C231 -13 281 2 338 34 L328 -13 Z M344 62 C306 44 267 33 240 33 C219 33 208 43 208 61 C208 66 209 72 210 78 L263 326 C271 363 295 380 341 380 C355 380 369 377 408 365 L344 62 Z " />
<glyph glyph-name="e" unicode="e" horiz-adv-x="597" d="M506 131 C437 68 335 20 268 20 C231 20 209 38 209 69 C209 81 212 101 216 121 L235 209 L549 209 C550 216 550 223 550 226 C550 288 519 350 471 383 C436 408 391 420 336 420 C147 420 -11 301 -11 158 C-11 59 94 -13 238 -13 C338 -13 438 32 520 114 L506 131 Z M366 230 L239 230 L264 348 C272 384 296 401 341 401 C376 401 392 389 392 365 C392 356 392 352 390 347 L366 230 Z " />
<glyph glyph-name="f" unicode="f" horiz-adv-x="421" d="M424 393 L428 413 L348 413 C298 413 280 418 259 438 C235 460 221 491 221 522 C221 591 280 665 335 665 C339 665 342 664 347 661 C294 643 258 598 258 550 C258 510 293 484 348 484 C419 484 474 531 474 592 C474 648 427 684 355 684 C300 684 246 663 198 624 C151 586 126 543 112 478 L98 413 L25 413 L21 393 L94 393 L15 20 L-59 20 L-63 0 L340 0 L345 20 L241 20 L321 393 L424 393 Z " />
<glyph glyph-name="g" unicode="g" horiz-adv-x="634" d="M279 85 C193 84 193 84 177 84 C117 84 96 90 96 108 C96 119 107 131 127 141 C173 128 217 123 271 123 C352 123 443 142 498 169 C546 193 578 241 578 288 C578 347 531 386 432 410 C448 442 467 463 492 476 C486 465 484 455 484 444 C484 421 501 407 529 407 C566 407 599 439 599 476 C599 502 580 518 550 518 C501 518 445 475 413 413 C382 418 361 420 330 420 C232 420 138 398 88 362 C45 331 20 287 20 243 C20 200 40 177 106 147 C20 106 -27 51 -27 -8 C-27 -25 -23 -38 -12 -56 C-40 -86 -52 -107 -52 -130 C-52 -191 34 -232 161 -232 C376 -232 518 -150 518 -25 C518 48 458 85 336 85 L279 85 Z M350 189 C343 154 318 138 270 138 C233 138 216 150 216 174 C216 178 217 183 218 187 L253 354 C260 385 286 401 333 401 C369 401 388 389 387 366 C387 363 386 359 385 355 L350 189 Z M20 -68 C42 -88 68 -96 112 -96 C126 -96 143 -95 161 -94 C213 -91 221 -91 245 -91 C321 -91 344 -100 344 -131 C344 -179 281 -210 185 -210 C77 -210 2 -171 2 -116 C2 -100 7 -86 20 -68 L20 -68 Z " />
<glyph glyph-name="h" unicode="h" horiz-adv-x="753" d="M675 0 L680 20 L584 20 L638 275 C643 301 646 320 646 336 C646 390 602 420 523 420 C455 420 387 403 315 368 L382 680 C336 670 308 667 258 667 L79 667 L74 644 L147 644 L15 20 L-59 20 L-63 0 L296 0 L300 20 L241 20 L310 344 C340 359 366 367 387 367 C407 367 423 354 423 338 C423 333 422 323 420 314 L357 20 L322 20 L317 0 L675 0 Z " />
<glyph glyph-name="i" unicode="i" horiz-adv-x="388" d="M310 0 L315 20 L241 20 L328 426 C295 419 235 413 199 413 L25 413 L21 393 L94 393 L15 20 L-59 20 L-63 0 L310 0 Z M255 674 C180 674 121 631 121 577 C121 535 158 509 217 509 C297 509 354 550 354 607 C354 647 314 674 255 674 L255 674 Z " />
<glyph glyph-name="j" unicode="j" horiz-adv-x="414" d="M354 426 C336 420 260 412 222 413 L28 413 L24 393 L120 393 L37 0 C93 -1 103 -3 125 -16 C151 -31 165 -55 165 -86 C165 -147 120 -201 67 -202 L60 -202 C104 -182 130 -145 130 -105 C130 -61 98 -35 44 -35 C-25 -35 -85 -86 -85 -147 C-85 -194 -43 -227 17 -227 C75 -227 135 -208 174 -177 C219 -141 244 -92 263 0 L354 426 Z M281 674 C206 674 147 631 147 577 C147 535 184 509 243 509 C323 509 380 550 380 607 C380 647 340 674 281 674 L281 674 Z " />
<glyph glyph-name="k" unicode="k" horiz-adv-x="778" d="M704 0 L709 20 L688 20 L504 343 C578 387 596 394 641 393 L684 393 L688 413 L494 413 L490 393 L504 393 C524 393 530 391 530 384 C530 376 518 366 495 354 L291 252 L382 680 C344 672 300 667 264 667 L79 667 L74 647 L148 647 L15 20 L-59 20 L-63 0 L310 0 L315 20 L241 20 L287 235 L403 20 L360 20 L356 0 L704 0 Z " />
<glyph glyph-name="l" unicode="l" horiz-adv-x="388" d="M310 0 L315 20 L241 20 L382 680 C359 673 318 668 277 667 L79 667 L74 647 L148 647 L15 20 L-59 20 L-63 0 L310 0 Z " />
<glyph glyph-name="m" unicode="m" horiz-adv-x="1028" d="M950 0 L954 20 L881 20 L937 283 C940 298 942 314 942 325 C942 382 889 420 807 420 C747 420 696 402 628 355 C593 400 548 420 485 420 C428 420 376 401 313 356 L328 426 C299 419 233 413 192 413 L25 413 L21 393 L94 393 L15 20 L-59 20 L-63 0 L275 0 L279 20 L241 20 L308 331 C336 352 358 361 376 361 C391 361 401 353 401 341 C401 336 399 326 397 315 L334 20 L297 20 L293 0 L595 0 L599 20 L561 20 L627 331 C651 352 673 362 694 362 C711 362 721 353 721 340 C721 336 719 326 716 309 L654 20 L617 20 L612 0 L950 0 Z " />
<glyph glyph-name="n" unicode="n" horiz-adv-x="732" d="M654 0 L659 20 L585 20 L642 287 C645 302 647 317 647 330 C647 384 593 420 512 420 C447 420 382 400 313 359 L328 426 C281 417 260 414 224 413 L25 413 L21 393 L94 393 L15 20 L-59 20 L-63 0 L298 0 L302 20 L241 20 L308 334 C345 355 367 363 389 363 C410 363 423 351 423 332 C423 327 422 319 421 311 L359 20 L321 20 L317 0 L654 0 Z " />
<glyph glyph-name="o" unicode="o" horiz-adv-x="673" d="M354 420 C256 420 153 391 91 345 C27 298 -12 226 -12 155 C-12 55 98 -13 258 -13 C376 -13 489 20 548 72 C598 115 627 177 627 239 C627 294 603 340 561 367 C508 402 437 420 354 420 L354 420 Z M356 70 C346 25 320 8 263 8 C224 8 202 21 202 44 C202 51 203 60 205 70 L261 335 C272 384 296 402 353 402 C394 402 417 389 417 367 C417 362 415 350 413 338 L356 70 Z " />
<glyph glyph-name="p" unicode="p" horiz-adv-x="709" d="M245 44 C316 0 341 -9 396 -9 C464 -9 539 23 587 73 C636 125 666 194 666 256 C666 354 594 420 488 420 C441 420 401 410 316 376 L327 426 C291 419 235 413 200 413 L24 413 L20 393 L93 393 L-34 -207 L-108 -207 L-112 -227 L284 -227 L288 -207 L192 -207 L245 44 Z M311 352 C343 368 378 377 406 377 C434 377 451 365 451 345 C451 336 451 331 449 324 L402 101 C392 59 375 43 335 43 C306 43 283 50 251 69 L311 352 Z " />
<glyph glyph-name="q" unicode="q" horiz-adv-x="707" d="M285 -207 L189 -207 L185 -227 L581 -227 L585 -207 L512 -207 L639 393 L713 393 L717 413 L543 413 C497 414 447 420 420 426 L409 373 C359 404 305 420 253 420 C112 420 -11 294 -11 150 C-11 53 61 -14 165 -14 C220 -14 270 2 338 41 L285 -207 Z M343 66 C312 49 279 40 248 40 C218 40 204 52 204 78 C204 83 205 92 206 98 L252 311 C260 352 284 373 323 373 C346 373 373 365 403 349 L343 66 Z " />
<glyph glyph-name="r" unicode="r" horiz-adv-x="573" d="M333 0 L337 20 L241 20 L292 258 C306 288 339 320 370 335 C363 321 361 312 361 298 C361 260 393 234 439 234 C507 234 567 288 567 348 C567 391 538 416 488 416 C430 416 373 384 304 313 L328 426 C285 416 253 413 200 413 L25 413 L21 393 L94 393 L15 20 L-59 20 L-63 0 L333 0 Z " />
<glyph glyph-name="s" unicode="s" horiz-adv-x="557" d="M477 247 L515 423 L421 378 C368 407 323 420 270 420 L265 420 C138 420 24 338 24 247 C24 218 38 193 67 169 C107 137 146 119 245 88 C277 78 287 71 287 56 C287 29 264 14 223 14 C109 14 23 69 23 142 C23 148 24 154 25 167 L1 167 L-38 -17 L45 33 C90 3 158 -14 230 -14 C375 -14 479 57 479 156 C479 214 453 236 300 304 C217 346 217 346 217 361 C217 381 237 394 271 394 C314 394 368 379 402 358 C433 337 455 300 455 266 C455 264 455 259 454 247 L477 247 Z " />
<glyph glyph-name="t" unicode="t" horiz-adv-x="437" d="M361 152 C320 90 297 70 265 70 C247 70 239 75 239 87 C239 93 240 101 245 122 L302 393 L398 393 L402 413 L307 413 L350 616 L327 616 C281 521 126 417 24 413 L20 393 L76 393 L14 104 C12 91 10 79 10 70 C10 22 60 -7 142 -7 C212 -7 266 11 308 47 C332 68 351 93 382 146 L361 152 Z " />
<glyph glyph-name="u" unicode="u" horiz-adv-x="735" d="M357 0 L657 0 L661 20 L587 20 L674 426 C643 418 600 413 560 413 L359 413 L355 393 L440 393 L374 80 C344 62 315 52 295 52 C275 52 263 62 263 79 C263 85 264 93 267 108 L335 426 C299 418 256 413 219 413 L24 413 L20 393 L101 393 L39 102 C37 90 36 81 36 68 C36 17 83 -14 162 -14 C230 -14 293 7 368 53 L357 0 Z " />
<glyph glyph-name="v" unicode="v" horiz-adv-x="574" d="M595 413 L402 413 L397 393 C440 391 459 377 459 347 C459 329 451 306 436 282 L366 169 L307 393 L366 393 L370 413 L13 413 L9 393 L44 393 L146 0 L282 0 L472 295 C519 362 545 383 590 393 L595 413 Z " />
<glyph glyph-name="w" unicode="w" horiz-adv-x="926" d="M947 413 L756 413 L752 393 C791 390 811 374 811 343 C811 325 805 309 791 287 L715 170 L657 393 L718 393 L722 413 L367 413 L363 393 L395 393 L425 270 L361 170 L304 393 L343 393 L347 413 L13 413 L9 393 L42 393 L142 0 L280 0 L435 238 L495 0 L634 0 L821 283 C869 356 896 381 943 393 L947 413 Z " />
<glyph glyph-name="x" unicode="x" horiz-adv-x="609" d="M535 0 L539 20 L509 20 L405 270 L507 352 C551 384 570 391 618 393 L623 413 L422 413 L418 393 C454 393 469 387 469 371 C469 355 462 347 430 320 L397 293 L354 393 L391 393 L395 413 L21 413 L17 393 L71 393 L161 166 L62 89 C21 57 -41 23 -63 20 L-67 0 L115 0 L120 20 C88 22 77 28 77 44 C77 61 91 82 114 101 L170 144 L223 20 L180 20 L175 0 L535 0 Z " />
<glyph glyph-name="y" unicode="y" horiz-adv-x="567" d="M588 413 L400 413 L396 393 C440 388 455 378 455 351 C455 335 445 314 426 290 L390 244 L329 393 L376 393 L381 413 L17 413 L13 393 L42 393 L204 4 L111 -115 C111 -66 77 -34 23 -34 C-45 -34 -105 -89 -105 -152 C-105 -199 -71 -228 -16 -228 C33 -228 78 -199 126 -137 L469 308 C512 365 540 386 584 393 L588 413 Z " />
<glyph glyph-name="z" unicode="z" horiz-adv-x="578" d="M485 0 L523 178 L497 178 C479 93 371 23 253 20 L573 413 L59 413 L21 233 L47 233 C80 330 169 392 276 392 L-49 0 L485 0 Z " />
<glyph glyph-name="braceleft" unicode="&#x7b;" horiz-adv-x="433" d="M-9 213 L9 213 C42 213 62 198 62 172 C62 167 60 148 57 130 C52 99 49 72 49 52 C49 -51 91 -140 171 -202 C215 -237 251 -259 278 -269 L291 -254 C261 -241 246 -231 222 -209 L262 -23 C279 57 282 75 282 94 C282 133 262 162 221 186 C190 203 155 213 91 221 L92 226 C170 235 216 248 264 275 C330 317 339 335 367 470 L406 655 C439 678 458 688 494 701 L488 715 C459 709 359 657 313 624 C199 544 127 442 96 317 C84 256 62 235 13 233 L-5 233 L-9 213 Z " />
<glyph glyph-name="bar" unicode="&#x7c;" horiz-adv-x="537" d="M274 667 L97 -167 L229 -167 L406 667 L274 667 Z " />
<glyph glyph-name="braceright" unicode="&#x7d;" horiz-adv-x="433" d="M396 233 L378 233 C345 233 325 249 325 274 C325 279 327 299 330 317 C335 348 338 375 338 395 C338 498 296 586 216 649 C172 683 136 706 109 715 L96 701 C126 688 141 678 165 655 L125 470 C108 387 105 371 105 352 C105 314 125 285 167 261 C197 243 233 234 296 226 L295 221 C217 212 171 199 123 172 C57 129 48 112 21 -23 L-19 -209 C-52 -231 -71 -241 -107 -254 L-100 -269 C-72 -262 28 -210 74 -177 C188 -97 260 4 291 130 C304 190 325 212 374 213 L392 213 L396 233 Z " />
<glyph glyph-name="asciitilde" unicode="&#x7e;" horiz-adv-x="512" d="M438 381 C417 365 404 360 388 360 C372 360 358 364 320 377 C279 391 257 396 232 396 C184 396 159 383 61 302 L76 287 C98 304 107 308 120 308 C132 308 138 306 172 291 C204 277 232 270 262 270 C298 270 342 284 377 306 C396 318 403 324 452 370 L438 381 Z " />
<glyph glyph-name="uni00A0" unicode="&#xa0;" horiz-adv-x="250" d="" />
<glyph glyph-name="exclamdown" unicode="&#xa1;" horiz-adv-x="345" d="M193 420 C110 420 43 376 43 322 C43 279 90 248 154 248 C234 248 302 293 302 346 C302 388 255 420 193 420 L193 420 Z M129 214 L-15 -105 C-45 -175 -46 -178 -46 -196 C-46 -238 -11 -263 46 -263 C129 -263 183 -215 183 -140 C183 -136 183 -122 182 -105 L168 214 L129 214 Z " />
<glyph glyph-name="cent" unicode="&#xa2;" horiz-adv-x="733" d="M349 154 C456 154 530 184 594 251 L576 261 C516 208 454 181 388 181 C351 181 335 194 335 225 C335 234 337 248 340 261 L390 500 C397 534 400 540 413 549 C426 559 444 563 474 563 C520 563 546 557 574 541 C562 543 557 544 550 544 C495 544 452 502 452 450 C452 413 481 390 527 390 C587 390 635 435 635 490 C635 526 617 551 579 567 C548 580 508 587 465 587 C459 587 459 587 441 586 L458 667 L438 667 L421 584 C340 573 309 564 258 534 C170 484 116 403 116 324 C116 266 148 215 204 182 C237 162 261 157 329 154 L312 72 L332 72 L349 154 Z " />
<glyph glyph-name="sterling" unicode="&#xa3;" horiz-adv-x="733" d="M654 144 C640 105 626 86 596 64 C549 29 487 10 418 10 C367 10 334 18 288 43 C353 88 390 153 434 305 L564 305 L569 325 L438 325 C448 373 448 373 461 452 C468 490 480 537 490 565 C511 625 552 656 608 656 C635 656 652 653 675 643 C636 638 618 631 595 614 C566 592 548 558 548 524 C548 478 582 449 636 449 C706 449 765 506 765 575 C765 644 699 683 581 683 C485 683 395 663 336 627 C254 579 212 510 185 381 L173 325 L75 325 L71 305 L168 305 C142 178 133 146 113 108 C84 121 69 125 48 125 C0 125 -43 87 -43 43 C-43 3 -7 -16 69 -16 C133 -16 206 1 261 29 C349 -50 407 -80 471 -80 C573 -80 648 0 683 144 L654 144 Z M99 80 C80 46 57 30 27 30 C5 30 -10 39 -10 54 C-10 77 14 97 42 97 C60 97 77 92 99 80 L99 80 Z " />
<glyph glyph-name="currency" unicode="&#xa4;" horiz-adv-x="733" d="M28 118 L55 87 L167 178 C216 142 264 126 323 126 C385 126 443 144 502 180 L576 87 L617 118 L539 211 C599 271 627 332 627 399 C627 434 619 464 601 497 L715 588 L688 619 L576 528 C528 566 482 582 420 582 C357 582 303 566 239 528 L166 619 L125 588 L201 496 C143 437 114 375 114 309 C114 272 123 242 142 209 L28 118 Z M318 496 C327 540 360 561 416 561 C463 561 486 545 486 512 C486 505 486 501 485 496 L425 214 C415 167 385 147 325 147 C279 147 256 162 256 192 C256 200 257 206 258 214 L318 496 Z " />
<glyph glyph-name="yen" unicode="&#xa5;" horiz-adv-x="733" d="M433 23 L493 307 L697 307 L702 330 L508 330 L580 427 L723 427 L728 450 L597 450 L634 500 C698 578 755 626 808 644 L813 667 L564 667 L559 644 C592 642 603 640 614 634 C629 625 639 607 639 585 C639 560 628 538 590 489 L486 347 L399 644 L467 644 L472 667 L62 667 L57 644 L124 644 L189 450 L53 450 L49 427 L194 427 L228 330 L28 330 L23 307 L235 307 L251 260 L201 23 L90 23 L85 0 L526 0 L531 23 L433 23 Z " />
<glyph glyph-name="brokenbar" unicode="&#xa6;" horiz-adv-x="537" d="M274 667 L196 299 L328 299 L406 667 L274 667 Z M165 153 L97 -167 L229 -167 L297 153 L165 153 Z " />
<glyph glyph-name="section" unicode="&#xa7;" horiz-adv-x="625" d="M431 93 C530 162 570 218 570 287 C570 330 551 365 517 386 C485 405 485 405 361 456 C254 498 254 498 233 524 C227 531 223 543 223 553 C223 608 320 666 411 666 C460 666 508 650 527 627 C535 617 537 610 537 589 C522 610 506 617 474 617 C409 617 360 577 360 524 C360 488 393 462 440 462 C511 462 569 517 569 585 C569 648 510 687 417 687 C320 687 234 646 176 572 C144 531 127 485 127 443 C127 409 134 389 153 362 C62 306 9 234 9 166 C9 123 30 83 66 57 C96 36 117 25 209 -10 C360 -68 381 -81 381 -116 C381 -174 293 -224 192 -224 C147 -224 108 -215 78 -199 C58 -188 51 -179 44 -157 C61 -171 78 -177 102 -177 C159 -177 207 -134 207 -83 C207 -46 178 -22 132 -22 C63 -22 9 -74 9 -140 C9 -206 72 -247 173 -247 C245 -247 313 -229 361 -199 C432 -153 480 -75 480 -5 C480 38 466 66 431 93 L431 93 Z M411 105 C375 124 360 131 314 149 C221 184 149 215 125 228 C99 242 91 251 91 267 C91 294 109 315 152 338 C156 340 161 343 166 346 C210 319 252 300 421 233 C464 217 485 199 485 180 C485 156 461 131 411 105 L411 105 Z " />
<glyph glyph-name="dieresis" unicode="&#xa8;" horiz-adv-x="514" d="M451 646 C387 646 334 602 334 549 C334 509 369 484 422 484 C482 484 531 528 531 582 C531 621 500 646 451 646 L451 646 Z M197 647 C135 647 81 602 81 552 C81 511 114 485 166 485 C229 485 278 529 278 584 C278 622 246 647 197 647 L197 647 Z " />
<glyph glyph-name="copyright" unicode="&#xa9;" horiz-adv-x="829" d="M562 220 C503 170 447 146 389 146 C359 146 344 158 344 181 C344 187 345 198 347 206 L402 465 C411 507 424 520 458 520 C528 520 592 465 592 404 C592 397 591 390 589 376 L615 376 L652 548 L564 513 C531 537 504 545 457 545 C385 545 316 522 266 480 C206 432 170 359 170 290 C170 188 252 121 377 121 C453 121 515 146 583 207 L562 220 Z M488 680 C249 680 26 482 26 268 C26 107 159 -13 337 -13 C580 -13 803 184 803 400 C803 563 671 680 488 680 L488 680 Z M482 654 C650 654 771 545 771 395 C771 196 566 13 343 13 C179 13 58 124 58 273 C58 470 263 654 482 654 L482 654 Z " />
<glyph glyph-name="ordfeminine" unicode="&#xaa;" horiz-adv-x="435" d="M418 343 L22 343 L14 308 L410 308 L418 343 Z M435 480 C423 466 415 459 412 459 C410 459 409 460 409 463 L409 468 L433 580 C436 592 437 601 437 607 C437 650 373 674 258 674 L250 674 C203 673 180 669 152 657 C126 646 108 624 108 602 C108 580 124 567 150 567 C186 567 215 591 215 622 C215 636 210 643 196 650 C211 652 223 653 234 653 C263 653 284 642 283 626 C283 622 282 616 280 607 L267 546 C249 552 226 555 198 555 C108 555 45 522 45 474 C45 437 91 410 155 410 C188 410 214 417 250 435 C272 417 293 410 326 410 C379 410 421 430 449 470 L435 480 Z M247 452 C230 445 216 441 207 441 C198 441 192 446 193 454 L194 462 L205 510 C208 527 215 532 231 532 C241 532 251 530 263 526 L247 452 Z " />
<glyph glyph-name="guillemotleft" unicode="&#xab;" horiz-adv-x="600" d="M504 55 L383 208 L569 361 L404 361 L216 208 L335 55 L504 55 Z M285 55 L163 208 L350 361 L183 361 L-5 208 L118 55 L285 55 Z " />
<glyph glyph-name="logicalnot" unicode="&#xac;" horiz-adv-x="550" d="M241 0 L451 0 L508 267 L14 267 L-5 178 L279 178 L241 0 Z " />
<glyph glyph-name="uni00AD" unicode="&#xad;" horiz-adv-x="315" d="M276 151 L313 324 L-2 324 L-39 151 L276 151 Z " />
<glyph glyph-name="registered" unicode="&#xae;" horiz-adv-x="829" d="M621 210 C615 193 610 186 605 186 C602 186 600 189 600 193 C600 199 602 209 605 217 C619 263 621 270 621 288 C621 314 608 330 576 343 C630 365 661 409 661 463 C661 514 633 533 558 533 L231 533 L227 513 L269 513 L192 153 L151 153 L146 133 L388 133 L393 153 L335 153 L373 333 L403 333 C430 333 441 327 441 311 C441 307 440 301 439 295 C426 227 423 211 423 198 C423 148 454 125 521 125 C586 125 615 145 642 206 L621 210 Z M411 513 L436 513 C494 513 507 508 507 485 C507 481 507 477 506 472 L489 396 C479 360 460 353 377 354 L411 513 Z M488 680 C249 680 26 482 26 268 C26 107 159 -13 337 -13 C580 -13 803 184 803 400 C803 563 671 680 488 680 L488 680 Z M482 654 C650 654 771 545 771 395 C771 196 566 13 343 13 C179 13 58 124 58 273 C58 470 263 654 482 654 L482 654 Z " />
<glyph glyph-name="macron" unicode="&#xaf;" horiz-adv-x="392" d="M416 602 L90 602 L75 530 L400 530 L416 602 Z " />
<glyph glyph-name="degree" unicode="&#xb0;" horiz-adv-x="400" d="M204 686 C118 686 50 619 50 534 C50 449 116 381 200 381 C284 381 350 448 350 534 C350 619 286 686 204 686 L204 686 Z M202 629 C252 629 293 586 293 534 C293 480 252 438 200 438 C148 438 106 481 106 533 C106 587 148 629 202 629 L202 629 Z " />
<glyph glyph-name="plusminus" unicode="&#xb1;" horiz-adv-x="733" d="M629 356 L392 356 L440 581 L398 581 L350 356 L115 356 L105 313 L341 313 L293 88 L335 88 L383 313 L619 313 L629 356 Z M562 43 L48 43 L39 1 L553 1 L562 43 Z " />
<glyph glyph-name="twosuperior" unicode="&#xb2;" horiz-adv-x="477" d="M160 630 C188 645 209 651 237 651 C286 651 317 630 317 595 C317 562 305 517 289 489 C269 456 237 429 186 404 C86 357 40 320 10 265 L27 255 C54 272 73 278 100 278 C128 278 155 275 209 266 C227 263 242 261 252 261 C303 261 342 278 383 317 C413 347 432 369 460 408 L440 420 C414 386 404 382 346 382 C331 382 310 383 289 385 C227 390 227 390 192 390 C209 395 213 396 243 401 C400 430 473 482 473 562 C473 635 404 676 282 676 C221 676 175 664 137 638 C104 617 84 587 84 563 C84 533 111 510 146 510 C192 510 231 544 231 585 C231 612 210 631 180 631 L160 630 Z " />
<glyph glyph-name="threesuperior" unicode="&#xb3;" horiz-adv-x="477" d="M303 532 C297 508 288 501 260 502 L211 502 L207 479 L247 479 C277 479 288 474 288 461 C288 456 288 452 286 447 L261 327 C254 292 237 280 193 280 C149 280 113 289 93 304 C105 301 110 300 118 300 C160 300 194 330 194 366 C194 393 171 412 138 412 C91 412 51 377 51 337 C51 286 106 257 202 257 C282 257 346 273 386 302 C422 328 443 363 443 398 C443 445 418 472 358 490 C403 498 423 507 441 528 C457 546 467 570 467 593 C467 645 407 676 305 676 C246 676 199 667 167 649 C141 634 122 608 122 584 C122 557 143 540 178 540 C222 540 259 569 259 604 C259 628 246 641 215 648 C239 653 252 654 269 654 C308 654 322 647 322 628 C322 624 321 618 320 612 L303 532 Z " />
<glyph glyph-name="acute" unicode="&#xb4;" horiz-adv-x="530" d="M269 483 L302 483 L496 596 L501 623 L335 623 L269 483 Z " />
<glyph glyph-name="mu" unicode="&#xb5;" horiz-adv-x="576" d="M442 500 L353 500 L354 131 C318 80 284 58 242 58 C184 58 150 99 150 169 L150 500 L62 500 L62 20 C62 -1 58 -26 51 -56 C34 -118 33 -123 33 -147 C33 -190 54 -219 83 -219 C112 -219 132 -189 132 -146 C132 -124 129 -111 113 -53 C103 -17 101 -8 101 21 L101 33 C143 -2 166 -13 200 -13 C250 -13 301 18 354 80 C362 48 367 36 377 21 C392 0 419 -13 449 -13 C510 -13 553 31 567 108 L540 109 C536 71 515 41 492 41 C462 41 442 77 442 131 L442 500 Z " />
<glyph glyph-name="paragraph" unicode="&#xb6;" horiz-adv-x="905" d="M960 700 L338 700 C298 700 276 699 259 695 C217 685 176 662 143 629 C86 570 49 479 49 396 C49 325 80 268 130 244 C157 231 186 227 250 227 L323 227 L226 -233 L120 -233 L116 -253 L400 -253 L598 680 L672 680 L473 -253 L757 -253 L762 -233 L656 -233 L850 680 L956 680 L960 700 Z M329 251 L285 251 C252 251 229 273 229 306 C229 317 232 337 235 355 L283 576 C294 643 326 678 376 680 L420 680 L329 251 Z " />
<glyph glyph-name="periodcentered" unicode="&#xb7;" horiz-adv-x="346" d="M166 296 C87 296 16 248 16 195 C16 149 63 116 129 116 C211 116 276 160 276 216 C276 263 231 296 166 296 L166 296 Z " />
<glyph glyph-name="cedilla" unicode="&#xb8;" horiz-adv-x="550" d="M199 0 L120 -83 L130 -94 C143 -88 150 -86 163 -86 C186 -86 201 -98 201 -117 C201 -150 167 -172 117 -172 C89 -172 70 -169 37 -158 L24 -175 C66 -193 101 -199 160 -199 C219 -199 253 -192 281 -174 C306 -158 321 -135 321 -111 C321 -76 287 -55 232 -55 C209 -55 192 -58 165 -65 L226 0 L199 0 Z " />
<glyph glyph-name="onesuperior" unicode="&#xb9;" horiz-adv-x="477" d="M363 266 L367 287 L313 287 L396 682 C339 655 308 649 231 647 L167 647 L163 627 L233 627 L161 287 L90 287 L86 266 L363 266 Z " />
<glyph glyph-name="ordmasculine" unicode="&#xba;" horiz-adv-x="435" d="M418 343 L22 343 L14 308 L410 308 L418 343 Z M289 674 C157 674 59 606 59 514 C59 452 129 410 231 410 C370 410 463 471 463 563 C463 632 397 674 289 674 L289 674 Z M273 463 C267 438 258 429 236 429 C222 429 215 434 215 447 C215 449 215 452 218 463 L251 620 C257 648 266 657 287 657 C302 657 309 651 309 640 C309 637 308 631 306 622 L273 463 Z " />
<glyph glyph-name="guillemotright" unicode="&#xbb;" horiz-adv-x="600" d="M42 361 L163 208 L-23 55 L142 55 L330 208 L211 361 L42 361 Z M261 361 L383 208 L196 55 L363 55 L551 208 L428 361 L261 361 Z " />
<glyph glyph-name="onequarter" unicode="&#xbc;" horiz-adv-x="1040" d="M363 266 L367 287 L313 287 L396 682 C339 655 308 649 231 647 L167 647 L163 627 L233 627 L161 287 L90 287 L86 266 L363 266 Z M242 -13 L832 680 L800 680 L210 -13 L242 -13 Z M938 0 L942 21 L894 21 L910 96 L958 96 L963 117 L914 117 L974 400 L847 400 L529 96 L757 96 L741 21 L663 21 L658 0 L938 0 Z M762 117 L578 117 L806 328 L762 117 Z " />
<glyph glyph-name="onehalf" unicode="&#xbd;" horiz-adv-x="1040" d="M363 266 L367 287 L313 287 L396 682 C339 655 308 649 231 647 L167 647 L163 627 L233 627 L161 287 L90 287 L86 266 L363 266 Z M242 -13 L832 680 L800 680 L210 -13 L242 -13 Z M534 -12 C561 5 579 11 607 11 C623 11 664 7 679 5 C739 -7 743 -7 759 -7 C809 -7 848 10 889 50 C919 79 938 101 967 141 L947 152 C920 118 911 115 853 115 C838 115 815 116 796 118 C736 122 735 122 699 123 C716 128 720 129 750 134 C907 163 980 215 980 295 C980 368 911 409 788 409 C727 409 681 397 643 371 C610 349 590 320 590 295 C590 265 617 242 652 242 C698 242 737 277 737 318 C737 345 716 364 687 364 C682 364 674 363 666 362 C694 378 716 384 744 384 C793 384 824 363 824 328 C824 295 812 250 795 222 C776 189 744 162 693 137 C593 90 546 53 517 -2 L534 -12 Z " />
<glyph glyph-name="threequarters" unicode="&#xbe;" horiz-adv-x="1040" d="M288 532 C282 508 274 501 252 502 L212 502 L207 479 L240 479 C263 479 273 474 272 462 C272 458 271 453 270 446 L244 327 C237 292 221 280 182 280 C143 280 111 289 93 304 C104 301 110 300 118 300 C159 300 192 330 192 366 C192 393 170 412 137 412 C91 412 51 377 51 336 C51 286 104 257 194 257 C271 257 332 273 371 302 C406 328 426 364 426 398 C426 445 401 471 341 490 C387 498 408 507 426 528 C442 546 452 570 452 593 C452 646 395 676 298 676 C242 676 196 667 166 649 C140 634 122 608 122 584 C122 557 142 540 175 540 C218 540 254 570 254 605 C254 628 242 641 215 648 C236 653 247 654 262 654 C295 654 307 648 307 629 C307 625 306 618 305 612 L288 532 Z M242 -13 L832 680 L799 680 L210 -13 L242 -13 Z M938 0 L942 21 L894 21 L910 96 L958 96 L962 117 L914 117 L974 400 L847 400 L529 96 L757 96 L741 21 L662 21 L658 0 L938 0 Z M761 117 L578 117 L806 328 L761 117 Z " />
<glyph glyph-name="questiondown" unicode="&#xbf;" horiz-adv-x="522" d="M336 420 C261 420 200 383 200 337 C200 299 244 270 303 270 C374 270 436 309 436 354 C436 391 393 420 336 420 L336 420 Z M313 256 L277 221 C187 216 121 196 66 158 C-8 107 -56 22 -56 -56 C-56 -172 47 -264 176 -264 C288 -264 401 -177 401 -91 C401 -45 370 -18 319 -18 C252 -18 200 -63 200 -120 C200 -163 231 -190 280 -190 C297 -190 309 -187 327 -180 C283 -220 244 -237 198 -237 C125 -237 69 -180 69 -105 C69 -8 158 56 298 60 L313 256 Z " />
<glyph glyph-name="Agrave" unicode="&#xc0;" horiz-adv-x="860" d="M599 716 L591 856 L416 856 L410 829 L572 716 L599 716 Z M785 0 L790 23 L750 23 L640 667 L389 667 L91 174 C29 83 -26 28 -62 23 L-67 0 L218 0 L223 23 C146 24 113 51 113 113 C113 144 119 166 139 205 L393 205 L424 23 L341 23 L336 0 L785 0 Z M391 228 L152 228 L337 539 L391 228 Z " />
<glyph glyph-name="Aacute" unicode="&#xc1;" horiz-adv-x="860" d="M470 716 L497 716 L707 829 L712 856 L537 856 L470 716 Z M785 0 L790 23 L750 23 L640 667 L389 667 L91 174 C29 83 -26 28 -62 23 L-67 0 L218 0 L223 23 C146 24 113 51 113 113 C113 144 119 166 139 205 L393 205 L424 23 L341 23 L336 0 L785 0 Z M391 228 L152 228 L337 539 L391 228 Z " />
<glyph glyph-name="Acircumflex" unicode="&#xc2;" horiz-adv-x="860" d="M723 758 C662 782 621 823 612 869 L497 869 C468 823 410 782 339 758 L342 728 C402 732 469 750 536 780 C590 750 648 732 707 728 L723 758 Z M785 0 L790 23 L750 23 L640 667 L389 667 L91 174 C29 83 -26 28 -62 23 L-67 0 L218 0 L223 23 C146 24 113 51 113 113 C113 144 119 166 139 205 L393 205 L424 23 L341 23 L336 0 L785 0 Z M391 228 L152 228 L337 539 L391 228 Z " />
<glyph glyph-name="Atilde" unicode="&#xc3;" horiz-adv-x="860" d="M731 850 C710 834 697 829 680 829 C665 829 650 833 613 846 C571 860 549 865 525 865 C477 865 452 852 354 771 L369 756 C390 773 399 777 413 777 C425 777 431 775 465 760 C496 746 525 739 555 739 C591 739 634 753 670 775 C688 787 695 792 745 839 L731 850 Z M785 0 L790 23 L750 23 L640 667 L389 667 L91 174 C29 83 -26 28 -62 23 L-67 0 L218 0 L223 23 C146 24 113 51 113 113 C113 144 119 166 139 205 L393 205 L424 23 L341 23 L336 0 L785 0 Z M391 228 L152 228 L337 539 L391 228 Z " />
<glyph glyph-name="Adieresis" unicode="&#xc4;" horiz-adv-x="860" d="M698 886 C634 886 581 842 581 789 C581 749 616 724 669 724 C729 724 778 768 778 822 C778 861 747 886 698 886 L698 886 Z M399 887 C337 887 283 842 283 792 C283 751 316 725 368 725 C431 725 480 769 480 824 C480 862 448 887 399 887 L399 887 Z M785 0 L790 23 L750 23 L640 667 L389 667 L91 174 C29 83 -26 28 -62 23 L-67 0 L218 0 L223 23 C146 24 113 51 113 113 C113 144 119 166 139 205 L393 205 L424 23 L341 23 L336 0 L785 0 Z M391 228 L152 228 L337 539 L391 228 Z " />
<glyph glyph-name="Aring" unicode="&#xc5;" horiz-adv-x="860" d="M566 906 C479 906 408 856 408 796 C408 748 452 718 524 718 C616 718 684 764 684 826 C684 875 638 906 566 906 L566 906 Z M560 877 C615 877 654 854 654 821 C654 778 603 747 530 747 C474 747 438 768 438 802 C438 843 493 877 560 877 L560 877 Z M785 0 L790 23 L750 23 L640 667 L389 667 L91 174 C29 83 -26 28 -62 23 L-67 0 L218 0 L223 23 C146 24 113 51 113 113 C113 144 119 166 139 205 L393 205 L424 23 L341 23 L336 0 L785 0 Z M391 228 L152 228 L337 539 L391 228 Z " />
<glyph glyph-name="AE" unicode="&#xc6;" horiz-adv-x="1197" d="M1060 0 L1113 249 L1089 249 C1049 164 1026 135 961 91 C884 43 852 33 737 23 L803 333 C847 332 867 327 886 314 C912 295 927 265 927 230 C927 215 926 203 921 180 L947 180 L1017 511 L992 511 C965 403 911 357 808 355 L869 643 C943 642 981 637 1011 624 C1075 597 1109 543 1109 471 L1109 457 L1134 457 L1178 667 L492 667 L487 644 L574 644 L117 170 C55 101 -24 40 -73 23 L-78 0 L164 0 L169 23 C123 29 96 50 96 81 C96 97 102 114 113 127 C119 134 119 134 153 173 L184 205 L477 205 L438 23 L351 23 L346 0 L1060 0 Z M482 230 L208 230 L559 594 L482 230 Z " />
<glyph glyph-name="Ccedilla" unicode="&#xc7;" horiz-adv-x="770" d="M308 -19 C326 -20 334 -20 344 -20 C469 -20 565 20 673 117 L651 133 C562 50 477 10 391 10 C344 10 320 31 320 72 C320 83 322 99 326 117 L419 557 C428 597 434 614 445 627 C461 647 484 657 513 657 C618 657 711 565 711 461 C711 446 710 434 706 412 L731 412 L790 687 L667 631 C612 673 568 687 492 687 C374 687 262 648 181 579 C84 496 25 374 25 257 C25 110 122 7 282 -16 L215 -83 L226 -94 C240 -88 247 -86 261 -86 C285 -86 301 -98 301 -117 C301 -150 266 -172 213 -172 C184 -172 163 -169 129 -158 L116 -175 C160 -193 197 -199 259 -199 C321 -199 357 -192 386 -174 C413 -158 428 -135 428 -112 C428 -77 392 -55 334 -55 C309 -55 291 -58 262 -65 L308 -19 Z " />
<glyph glyph-name="Egrave" unicode="&#xc8;" horiz-adv-x="821" d="M563 716 L555 856 L380 856 L374 829 L536 716 L563 716 Z M684 0 L736 246 L713 246 C662 114 524 26 361 23 L427 331 L448 331 C509 331 551 288 551 225 C551 213 550 202 545 179 L569 179 L639 511 L616 511 C600 418 537 356 455 355 L431 355 L493 644 C577 644 608 639 646 620 C699 592 735 538 735 485 C735 478 735 471 733 457 L757 457 L802 667 L97 667 L92 644 L178 644 L46 23 L-40 23 L-45 0 L684 0 Z " />
<glyph glyph-name="Eacute" unicode="&#xc9;" horiz-adv-x="821" d="M448 716 L474 716 L684 829 L690 856 L515 856 L448 716 Z M684 0 L736 246 L713 246 C662 114 524 26 361 23 L427 331 L448 331 C509 331 551 288 551 225 C551 213 550 202 545 179 L569 179 L639 511 L616 511 C600 418 537 356 455 355 L431 355 L493 644 C577 644 608 639 646 620 C699 592 735 538 735 485 C735 478 735 471 733 457 L757 457 L802 667 L97 667 L92 644 L178 644 L46 23 L-40 23 L-45 0 L684 0 Z " />
<glyph glyph-name="Ecircumflex" unicode="&#xca;" horiz-adv-x="821" d="M701 758 C641 782 599 823 590 869 L475 869 C446 823 388 782 317 758 L320 728 C381 732 448 750 514 780 C568 750 627 732 685 728 L701 758 Z M684 0 L736 246 L713 246 C662 114 524 26 361 23 L427 331 L448 331 C509 331 551 288 551 225 C551 213 550 202 545 179 L569 179 L639 511 L616 511 C600 418 537 356 455 355 L431 355 L493 644 C577 644 608 639 646 620 C699 592 735 538 735 485 C735 478 735 471 733 457 L757 457 L802 667 L97 667 L92 644 L178 644 L46 23 L-40 23 L-45 0 L684 0 Z " />
<glyph glyph-name="Edieresis" unicode="&#xcb;" horiz-adv-x="821" d="M689 886 C625 886 572 842 572 789 C572 749 607 724 660 724 C720 724 769 768 769 822 C769 861 738 886 689 886 L689 886 Z M390 887 C328 887 274 842 274 792 C274 751 307 725 359 725 C422 725 471 769 471 824 C471 862 439 887 390 887 L390 887 Z M684 0 L736 246 L713 246 C662 114 524 26 361 23 L427 331 L448 331 C509 331 551 288 551 225 C551 213 550 202 545 179 L569 179 L639 511 L616 511 C600 418 537 356 455 355 L431 355 L493 644 C577 644 608 639 646 620 C699 592 735 538 735 485 C735 478 735 471 733 457 L757 457 L802 667 L97 667 L92 644 L178 644 L46 23 L-40 23 L-45 0 L684 0 Z " />
<glyph glyph-name="Igrave" unicode="&#xcc;" horiz-adv-x="543" d="M446 0 L451 23 L365 23 L497 644 L583 644 L588 667 L97 667 L92 644 L178 644 L46 23 L-40 23 L-45 0 L446 0 Z M443 716 L435 856 L260 856 L254 829 L416 716 L443 716 Z " />
<glyph glyph-name="Iacute" unicode="&#xcd;" horiz-adv-x="543" d="M446 0 L451 23 L365 23 L497 644 L583 644 L588 667 L97 667 L92 644 L178 644 L46 23 L-40 23 L-45 0 L446 0 Z M303 716 L330 716 L540 829 L545 856 L370 856 L303 716 Z " />
<glyph glyph-name="Icircumflex" unicode="&#xce;" horiz-adv-x="543" d="M446 0 L451 23 L365 23 L497 644 L583 644 L588 667 L97 667 L92 644 L178 644 L46 23 L-40 23 L-45 0 L446 0 Z M554 758 C493 782 452 823 443 869 L328 869 C299 823 241 782 170 758 L173 728 C233 732 300 750 367 780 C421 750 479 732 538 728 L554 758 Z " />
<glyph glyph-name="Idieresis" unicode="&#xcf;" horiz-adv-x="543" d="M446 0 L451 23 L365 23 L497 644 L583 644 L588 667 L97 667 L92 644 L178 644 L46 23 L-40 23 L-45 0 L446 0 Z M510 886 C450 886 400 841 400 788 C400 749 432 724 481 724 C538 724 584 768 584 823 C584 862 556 886 510 886 L510 886 Z M269 887 C212 887 160 841 160 790 C160 751 191 725 238 725 C297 725 344 770 344 825 C344 863 314 887 269 887 L269 887 Z " />
<glyph glyph-name="Eth" unicode="&#xd0;" horiz-adv-x="950" d="M27 340 L113 340 L46 23 L-40 23 L-45 0 L532 0 C636 0 722 40 802 125 C880 208 926 313 926 408 C926 481 900 551 857 599 C813 646 748 667 648 667 L97 667 L92 644 L178 644 L118 363 L32 363 L27 340 Z M433 363 L493 644 L548 644 C603 644 617 636 617 603 C617 590 614 570 610 549 L518 118 C505 45 477 22 405 23 L361 23 L428 340 L496 340 L501 363 L433 363 Z " />
<glyph glyph-name="Ntilde" unicode="&#xd1;" horiz-adv-x="903" d="M744 850 C723 834 711 829 694 829 C678 829 664 833 626 846 C585 860 563 865 538 865 C490 865 466 852 367 771 L383 756 C404 773 413 777 426 777 C438 777 444 775 479 760 C510 746 538 739 568 739 C605 739 648 753 684 775 C702 787 708 792 758 839 L744 850 Z M702 0 L799 457 C824 573 884 645 955 644 L960 667 L666 667 L661 644 L686 644 C750 644 780 610 780 537 C780 505 777 478 771 449 L738 295 L510 667 L86 667 L81 644 L149 644 L184 582 L101 192 C76 87 17 22 -51 23 L-56 0 L227 0 L232 23 C160 24 126 62 126 142 C126 167 129 195 136 228 L204 545 L525 0 L702 0 Z " />
<glyph glyph-name="Ograve" unicode="&#xd2;" horiz-adv-x="885" d="M587 716 L579 856 L404 856 L398 829 L560 716 L587 716 Z M518 687 C230 687 24 504 24 248 C24 167 54 104 118 53 C179 4 262 -20 369 -20 C523 -20 631 20 727 113 C815 199 862 304 862 416 C862 589 738 687 518 687 L518 687 Z M441 601 C450 644 474 666 512 666 C546 666 561 653 561 623 C561 615 560 608 559 601 L446 68 C436 21 414 1 373 1 C341 1 324 14 324 40 C324 46 325 58 328 68 L441 601 Z " />
<glyph glyph-name="Oacute" unicode="&#xd3;" horiz-adv-x="885" d="M483 716 L510 716 L720 829 L725 856 L550 856 L483 716 Z M518 687 C230 687 24 504 24 248 C24 167 54 104 118 53 C179 4 262 -20 369 -20 C523 -20 631 20 727 113 C815 199 862 304 862 416 C862 589 738 687 518 687 L518 687 Z M441 601 C450 644 474 666 512 666 C546 666 561 653 561 623 C561 615 560 608 559 601 L446 68 C436 21 414 1 373 1 C341 1 324 14 324 40 C324 46 325 58 328 68 L441 601 Z " />
<glyph glyph-name="Ocircumflex" unicode="&#xd4;" horiz-adv-x="885" d="M725 758 C665 782 624 823 615 869 L499 869 C471 824 412 782 341 758 L344 728 C405 732 471 750 538 780 C592 750 651 732 710 728 L725 758 Z M518 687 C230 687 24 504 24 248 C24 167 54 104 118 53 C179 4 262 -20 369 -20 C523 -20 631 20 727 113 C815 199 862 304 862 416 C862 589 738 687 518 687 L518 687 Z M441 601 C450 644 474 666 512 666 C546 666 561 653 561 623 C561 615 560 608 559 601 L446 68 C436 21 414 1 373 1 C341 1 324 14 324 40 C324 46 325 58 328 68 L441 601 Z " />
<glyph glyph-name="Otilde" unicode="&#xd5;" horiz-adv-x="885" d="M725 850 C704 834 691 829 674 829 C659 829 645 833 607 846 C566 860 544 865 519 865 C471 865 444 850 348 771 L363 756 C384 773 393 777 407 777 C419 777 425 775 459 760 C490 746 519 739 549 739 C585 739 628 753 664 775 C682 787 689 792 739 839 L725 850 Z M518 687 C230 687 24 504 24 248 C24 167 54 104 118 53 C179 4 262 -20 369 -20 C523 -20 631 20 727 113 C815 199 862 304 862 416 C862 589 738 687 518 687 L518 687 Z M441 601 C450 644 474 666 512 666 C546 666 561 653 561 623 C561 615 560 608 559 601 L446 68 C436 21 414 1 373 1 C341 1 324 14 324 40 C324 46 325 58 328 68 L441 601 Z " />
<glyph glyph-name="Odieresis" unicode="&#xd6;" horiz-adv-x="885" d="M711 886 C647 886 594 842 594 789 C594 749 628 724 682 724 C742 724 791 768 791 822 C791 861 760 886 711 886 L711 886 Z M412 887 C350 887 296 842 296 792 C296 751 329 725 381 725 C443 725 493 769 493 824 C493 862 461 887 412 887 L412 887 Z M518 687 C230 687 24 504 24 248 C24 167 54 104 118 53 C179 4 262 -20 369 -20 C523 -20 631 20 727 113 C815 199 862 304 862 416 C862 589 738 687 518 687 L518 687 Z M441 601 C450 644 474 666 512 666 C546 666 561 653 561 623 C561 615 560 608 559 601 L446 68 C436 21 414 1 373 1 C341 1 324 14 324 40 C324 46 325 58 328 68 L441 601 Z " />
<glyph glyph-name="multiply" unicode="&#xd7;" horiz-adv-x="733" d="M583 524 L373 364 L223 533 L184 503 L334 334 L124 175 L151 145 L360 304 L510 136 L549 165 L399 334 L610 494 L583 524 Z " />
<glyph glyph-name="Oslash" unicode="&#xd8;" horiz-adv-x="885" d="M-4 58 L70 101 C133 19 230 -20 371 -20 C521 -20 631 21 725 113 C814 199 860 303 860 415 C860 467 851 509 830 548 L898 587 L886 608 L818 568 C763 645 658 687 518 687 C228 687 23 505 23 248 C23 196 32 163 56 121 L-16 79 L-4 58 Z M513 389 L378 310 L440 601 C449 644 473 666 511 666 C545 666 560 653 560 623 C560 614 559 607 558 601 L513 389 Z M371 278 L506 358 L445 68 C435 21 413 1 372 1 C340 1 324 14 324 40 C324 50 325 59 327 68 L371 278 Z " />
<glyph glyph-name="Ugrave" unicode="&#xd9;" horiz-adv-x="847" d="M616 716 L608 856 L433 856 L427 829 L589 716 L616 716 Z M903 667 L624 667 L619 644 C657 643 671 640 688 628 C712 610 724 578 724 530 C724 500 722 485 712 437 L657 180 C647 130 624 94 587 68 C543 37 485 18 436 18 C391 18 369 34 369 65 C369 75 371 86 376 110 L489 644 L567 644 L572 667 L93 667 L88 644 L174 644 L75 176 C70 156 68 138 68 125 C68 73 111 32 193 7 C245 -9 318 -20 376 -20 C538 -20 657 54 682 170 L745 467 C769 575 828 644 898 644 L903 667 Z " />
<glyph glyph-name="Uacute" unicode="&#xda;" horiz-adv-x="847" d="M499 716 L526 716 L736 829 L742 856 L567 856 L499 716 Z M903 667 L624 667 L619 644 C657 643 671 640 688 628 C712 610 724 578 724 530 C724 500 722 485 712 437 L657 180 C647 130 624 94 587 68 C543 37 485 18 436 18 C391 18 369 34 369 65 C369 75 371 86 376 110 L489 644 L567 644 L572 667 L93 667 L88 644 L174 644 L75 176 C70 156 68 138 68 125 C68 73 111 32 193 7 C245 -9 318 -20 376 -20 C538 -20 657 54 682 170 L745 467 C769 575 828 644 898 644 L903 667 Z " />
<glyph glyph-name="Ucircumflex" unicode="&#xdb;" horiz-adv-x="847" d="M740 758 C679 782 638 823 629 869 L514 869 C485 823 426 782 355 758 L358 728 C419 732 486 750 552 780 C607 750 665 732 724 728 L740 758 Z M903 667 L624 667 L619 644 C657 643 671 640 688 628 C712 610 724 578 724 530 C724 500 722 485 712 437 L657 180 C647 130 624 94 587 68 C543 37 485 18 436 18 C391 18 369 34 369 65 C369 75 371 86 376 110 L489 644 L567 644 L572 667 L93 667 L88 644 L174 644 L75 176 C70 156 68 138 68 125 C68 73 111 32 193 7 C245 -9 318 -20 376 -20 C538 -20 657 54 682 170 L745 467 C769 575 828 644 898 644 L903 667 Z " />
<glyph glyph-name="Udieresis" unicode="&#xdc;" horiz-adv-x="847" d="M727 886 C663 886 610 842 610 789 C610 749 644 724 698 724 C758 724 807 768 807 822 C807 861 776 886 727 886 L727 886 Z M428 887 C366 887 312 842 312 792 C312 751 345 725 397 725 C460 725 509 769 509 824 C509 862 477 887 428 887 L428 887 Z M903 667 L624 667 L619 644 C657 643 671 640 688 628 C712 610 724 578 724 530 C724 500 722 485 712 437 L657 180 C647 130 624 94 587 68 C543 37 485 18 436 18 C391 18 369 34 369 65 C369 75 371 86 376 110 L489 644 L567 644 L572 667 L93 667 L88 644 L174 644 L75 176 C70 156 68 138 68 125 C68 73 111 32 193 7 C245 -9 318 -20 376 -20 C538 -20 657 54 682 170 L745 467 C769 575 828 644 898 644 L903 667 Z " />
<glyph glyph-name="Yacute" unicode="&#xdd;" horiz-adv-x="840" d="M511 716 L537 716 L747 829 L753 856 L578 856 L511 716 Z M911 667 L662 667 L657 644 C690 642 701 640 712 634 C727 626 737 607 737 586 C737 561 720 527 689 489 L581 358 L471 644 L550 644 L555 667 L71 667 L66 644 L112 644 L260 260 L210 23 L119 23 L114 0 L618 0 L623 23 L525 23 L590 328 L732 500 C798 580 853 625 906 644 L911 667 Z " />
<glyph glyph-name="Thorn" unicode="&#xde;" horiz-adv-x="893" d="M444 0 L449 23 L361 23 L395 182 L524 182 C644 182 721 198 772 233 C837 277 881 359 881 437 C881 488 861 531 827 554 C799 573 773 577 678 580 L479 580 L493 644 L581 644 L586 667 L97 667 L92 644 L178 644 L46 23 L-40 23 L-45 0 L444 0 Z M400 206 L474 557 L515 557 C564 557 577 548 577 515 C577 499 574 479 569 455 L532 280 C521 228 491 205 437 205 L432 205 L408 206 L400 206 Z " />
<glyph glyph-name="germandbls" unicode="&#xdf;" horiz-adv-x="731" d="M273 0 C317 -7 347 -10 380 -10 C550 -10 686 102 686 242 C686 285 670 323 641 345 C608 372 573 381 492 385 C575 394 613 407 647 441 C679 473 698 516 698 557 C698 639 620 684 480 684 C339 684 233 650 175 587 C132 540 118 506 95 397 L15 20 L-59 20 L-63 0 L237 0 L364 598 C374 646 399 666 447 666 C479 666 498 654 498 633 C498 627 497 617 495 608 L466 471 C450 406 432 392 356 391 L352 371 C414 371 433 362 433 333 C433 321 432 312 429 300 L384 88 C372 41 351 27 277 17 L273 0 Z " />
<glyph glyph-name="agrave" unicode="&#xe0;" horiz-adv-x="679" d="M477 483 L471 623 L305 623 L299 596 L444 483 L477 483 Z M596 88 C568 59 561 53 553 53 C550 53 549 55 549 60 C549 63 550 70 552 78 L592 267 C597 289 599 304 599 312 C599 383 500 420 309 420 C168 420 82 375 82 303 C82 263 109 240 154 240 C212 240 256 282 256 338 C256 365 243 380 210 390 C232 395 249 397 276 397 C342 397 383 378 383 346 C383 341 381 328 378 313 L357 213 C316 226 277 231 228 231 C167 231 122 224 84 209 C21 184 -21 136 -21 89 C-21 29 49 -13 151 -13 C210 -13 256 -1 323 31 C351 -1 379 -13 425 -13 C505 -13 571 19 614 78 L596 88 Z M322 48 C273 33 251 28 228 28 C201 28 186 39 186 57 L187 68 L207 161 C214 192 232 204 275 204 C297 204 316 201 352 192 L322 48 Z " />
<glyph glyph-name="aacute" unicode="&#xe1;" horiz-adv-x="679" d="M361 483 L394 483 L587 596 L593 623 L426 623 L361 483 Z M596 88 C568 59 561 53 553 53 C550 53 549 55 549 60 C549 63 550 70 552 78 L592 267 C597 289 599 304 599 312 C599 383 500 420 309 420 C168 420 82 375 82 303 C82 263 109 240 154 240 C212 240 256 282 256 338 C256 365 243 380 210 390 C232 395 249 397 276 397 C342 397 383 378 383 346 C383 341 381 328 378 313 L357 213 C316 226 277 231 228 231 C167 231 122 224 84 209 C21 184 -21 136 -21 89 C-21 29 49 -13 151 -13 C210 -13 256 -1 323 31 C351 -1 379 -13 425 -13 C505 -13 571 19 614 78 L596 88 Z M322 48 C273 33 251 28 228 28 C201 28 186 39 186 57 L187 68 L207 161 C214 192 232 204 275 204 C297 204 316 201 352 192 L322 48 Z " />
<glyph glyph-name="acircumflex" unicode="&#xe2;" horiz-adv-x="679" d="M584 525 C527 549 488 590 480 636 L370 636 C342 590 286 549 219 525 L221 495 C279 499 342 517 406 547 C457 517 513 499 569 495 L584 525 Z M596 88 C568 59 561 53 553 53 C550 53 549 55 549 60 C549 63 550 70 552 78 L592 267 C597 289 599 304 599 312 C599 383 500 420 309 420 C168 420 82 375 82 303 C82 263 109 240 154 240 C212 240 256 282 256 338 C256 365 243 380 210 390 C232 395 249 397 276 397 C342 397 383 378 383 346 C383 341 381 328 378 313 L357 213 C316 226 277 231 228 231 C167 231 122 224 84 209 C21 184 -21 136 -21 89 C-21 29 49 -13 151 -13 C210 -13 256 -1 323 31 C351 -1 379 -13 425 -13 C505 -13 571 19 614 78 L596 88 Z M322 48 C273 33 251 28 228 28 C201 28 186 39 186 57 L187 68 L207 161 C214 192 232 204 275 204 C297 204 316 201 352 192 L322 48 Z " />
<glyph glyph-name="atilde" unicode="&#xe3;" horiz-adv-x="679" d="M585 617 C564 600 553 595 537 595 C522 595 508 599 472 612 C434 627 413 632 389 632 C344 632 315 616 225 538 L239 523 C260 539 269 543 281 543 C293 543 299 541 331 526 C361 512 388 505 416 505 C451 505 492 519 526 542 C544 553 552 561 598 606 L585 617 Z M596 88 C568 59 561 53 553 53 C550 53 549 55 549 60 C549 63 550 70 552 78 L592 267 C597 289 599 304 599 312 C599 383 500 420 309 420 C168 420 82 375 82 303 C82 263 109 240 154 240 C212 240 256 282 256 338 C256 365 243 380 210 390 C232 395 249 397 276 397 C342 397 383 378 383 346 C383 341 381 328 378 313 L357 213 C316 226 277 231 228 231 C167 231 122 224 84 209 C21 184 -21 136 -21 89 C-21 29 49 -13 151 -13 C210 -13 256 -1 323 31 C351 -1 379 -13 425 -13 C505 -13 571 19 614 78 L596 88 Z M322 48 C273 33 251 28 228 28 C201 28 186 39 186 57 L187 68 L207 161 C214 192 232 204 275 204 C297 204 316 201 352 192 L322 48 Z " />
<glyph glyph-name="adieresis" unicode="&#xe4;" horiz-adv-x="679" d="M552 646 C488 646 436 602 436 549 C436 509 470 484 523 484 C583 484 632 528 632 582 C632 621 601 646 552 646 L552 646 Z M298 647 C236 647 182 602 182 552 C182 511 215 485 267 485 C330 485 379 529 379 584 C379 622 347 647 298 647 L298 647 Z M596 88 C568 59 561 53 553 53 C550 53 549 55 549 60 C549 63 550 70 552 78 L592 267 C597 289 599 304 599 312 C599 383 500 420 309 420 C168 420 82 375 82 303 C82 263 109 240 154 240 C212 240 256 282 256 338 C256 365 243 380 210 390 C232 395 249 397 276 397 C342 397 383 378 383 346 C383 341 381 328 378 313 L357 213 C316 226 277 231 228 231 C167 231 122 224 84 209 C21 184 -21 136 -21 89 C-21 29 49 -13 151 -13 C210 -13 256 -1 323 31 C351 -1 379 -13 425 -13 C505 -13 571 19 614 78 L596 88 Z M322 48 C273 33 251 28 228 28 C201 28 186 39 186 57 L187 68 L207 161 C214 192 232 204 275 204 C297 204 316 201 352 192 L322 48 Z " />
<glyph glyph-name="aring" unicode="&#xe5;" horiz-adv-x="679" d="M437 672 C363 672 296 622 296 566 C296 523 339 490 395 490 C469 490 535 540 535 596 C535 639 492 672 437 672 L437 672 Z M430 645 C471 645 504 621 504 591 C504 552 455 517 401 517 C359 517 326 541 326 571 C326 610 375 645 430 645 L430 645 Z M596 88 C568 59 561 53 553 53 C550 53 549 55 549 60 C549 63 550 70 552 78 L592 267 C597 289 599 304 599 312 C599 383 500 420 309 420 C168 420 82 375 82 303 C82 263 109 240 154 240 C212 240 256 282 256 338 C256 365 243 380 210 390 C232 395 249 397 276 397 C342 397 383 378 383 346 C383 341 381 328 378 313 L357 213 C316 226 277 231 228 231 C167 231 122 224 84 209 C21 184 -21 136 -21 89 C-21 29 49 -13 151 -13 C210 -13 256 -1 323 31 C351 -1 379 -13 425 -13 C505 -13 571 19 614 78 L596 88 Z M322 48 C273 33 251 28 228 28 C201 28 186 39 186 57 L187 68 L207 161 C214 192 232 204 275 204 C297 204 316 201 352 192 L322 48 Z " />
<glyph glyph-name="ae" unicode="&#xe6;" horiz-adv-x="914" d="M822 130 C757 66 661 18 599 18 C568 18 546 38 546 66 C546 73 548 84 551 101 L574 207 L865 207 C865 340 787 420 657 420 C614 420 576 414 524 398 C459 413 391 420 319 420 C167 420 80 377 80 302 C80 263 105 240 147 240 C202 240 247 284 247 339 C247 365 238 378 209 391 C231 396 247 397 270 397 C345 397 379 380 379 343 C379 334 377 322 372 298 L354 214 C298 226 268 229 222 229 C76 229 -21 172 -21 86 C-21 29 50 -13 146 -13 C223 -13 268 3 352 61 C396 10 459 -13 558 -13 C629 -13 681 1 737 35 C780 61 808 83 835 112 L822 130 Z M682 227 L578 227 L602 337 C611 381 630 399 666 399 C695 399 708 388 708 365 C708 356 707 347 705 339 L682 227 Z M205 157 C212 191 229 204 268 204 C293 204 313 201 349 191 L339 142 C336 131 335 117 335 105 C335 95 336 89 342 78 C289 43 252 27 221 27 C197 27 185 37 185 56 C185 61 186 70 188 78 L205 157 Z " />
<glyph glyph-name="ccedilla" unicode="&#xe7;" horiz-adv-x="550" d="M219 -13 L222 -13 C328 -15 398 13 468 85 L447 95 C388 43 327 15 269 15 C225 15 207 27 207 57 C207 66 209 80 212 95 L264 338 C273 383 292 399 336 399 C388 399 417 392 439 374 C424 377 417 378 409 378 C355 378 306 334 306 285 C306 249 341 224 392 224 C458 224 508 267 508 323 C508 384 447 420 344 420 C148 420 -11 303 -11 159 C-11 60 62 -1 192 -12 L125 -83 L135 -94 C148 -88 155 -86 168 -86 C191 -86 206 -98 206 -117 C206 -150 172 -172 122 -172 C94 -172 74 -169 42 -158 L29 -175 C71 -193 106 -199 165 -199 C224 -199 258 -192 286 -174 C311 -158 326 -135 326 -111 C326 -76 292 -55 237 -55 C214 -55 197 -58 170 -65 L219 -13 Z " />
<glyph glyph-name="egrave" unicode="&#xe8;" horiz-adv-x="597" d="M397 483 L390 623 L224 623 L218 596 L363 483 L397 483 Z M506 131 C437 68 335 20 268 20 C231 20 209 38 209 69 C209 81 212 101 216 121 L235 209 L549 209 C550 216 550 223 550 226 C550 288 519 350 471 383 C436 408 391 420 336 420 C147 420 -11 301 -11 158 C-11 59 94 -13 238 -13 C338 -13 438 32 520 114 L506 131 Z M366 230 L239 230 L264 348 C272 384 296 401 341 401 C376 401 392 389 392 365 C392 356 392 352 390 347 L366 230 Z " />
<glyph glyph-name="eacute" unicode="&#xe9;" horiz-adv-x="597" d="M311 483 L345 483 L538 596 L544 623 L377 623 L311 483 Z M506 131 C437 68 335 20 268 20 C231 20 209 38 209 69 C209 81 212 101 216 121 L235 209 L549 209 C550 216 550 223 550 226 C550 288 519 350 471 383 C436 408 391 420 336 420 C147 420 -11 301 -11 158 C-11 59 94 -13 238 -13 C338 -13 438 32 520 114 L506 131 Z M366 230 L239 230 L264 348 C272 384 296 401 341 401 C376 401 392 389 392 365 C392 356 392 352 390 347 L366 230 Z " />
<glyph glyph-name="ecircumflex" unicode="&#xea;" horiz-adv-x="597" d="M540 525 C482 549 443 590 435 636 L325 636 C298 590 241 549 174 525 L176 495 C234 499 297 517 361 547 C413 517 468 499 524 495 L540 525 Z M506 131 C437 68 335 20 268 20 C231 20 209 38 209 69 C209 81 212 101 216 121 L235 209 L549 209 C550 216 550 223 550 226 C550 288 519 350 471 383 C436 408 391 420 336 420 C147 420 -11 301 -11 158 C-11 59 94 -13 238 -13 C338 -13 438 32 520 114 L506 131 Z M366 230 L239 230 L264 348 C272 384 296 401 341 401 C376 401 392 389 392 365 C392 356 392 352 390 347 L366 230 Z " />
<glyph glyph-name="edieresis" unicode="&#xeb;" horiz-adv-x="597" d="M509 646 C445 646 392 602 392 549 C392 509 427 484 480 484 C540 484 589 528 589 582 C589 621 558 646 509 646 L509 646 Z M254 647 C192 647 138 602 138 552 C138 511 171 485 223 485 C285 485 335 529 335 584 C335 622 303 647 254 647 L254 647 Z M506 131 C437 68 335 20 268 20 C231 20 209 38 209 69 C209 81 212 101 216 121 L235 209 L549 209 C550 216 550 223 550 226 C550 288 519 350 471 383 C436 408 391 420 336 420 C147 420 -11 301 -11 158 C-11 59 94 -13 238 -13 C338 -13 438 32 520 114 L506 131 Z M366 230 L239 230 L264 348 C272 384 296 401 341 401 C376 401 392 389 392 365 C392 356 392 352 390 347 L366 230 Z " />
<glyph glyph-name="igrave" unicode="&#xec;" horiz-adv-x="388" d="M310 0 L315 20 L241 20 L328 426 C295 419 235 413 199 413 L25 413 L21 393 L94 393 L15 20 L-59 20 L-63 0 L310 0 Z M296 483 L290 623 L123 623 L118 596 L263 483 L296 483 Z " />
<glyph glyph-name="iacute" unicode="&#xed;" horiz-adv-x="388" d="M310 0 L315 20 L241 20 L328 426 C295 419 235 413 199 413 L25 413 L21 393 L94 393 L15 20 L-59 20 L-63 0 L310 0 Z M198 483 L232 483 L425 596 L431 623 L264 623 L198 483 Z " />
<glyph glyph-name="icircumflex" unicode="&#xee;" horiz-adv-x="388" d="M310 0 L315 20 L241 20 L328 426 C295 419 235 413 199 413 L25 413 L21 393 L94 393 L15 20 L-59 20 L-63 0 L310 0 Z M418 525 C361 549 322 590 314 636 L204 636 C176 590 120 549 52 525 L55 495 C113 499 176 517 240 547 C291 517 347 499 403 495 L418 525 Z " />
<glyph glyph-name="idieresis" unicode="&#xef;" horiz-adv-x="388" d="M310 0 L315 20 L241 20 L328 426 C295 419 235 413 199 413 L25 413 L21 393 L94 393 L15 20 L-59 20 L-63 0 L310 0 Z M370 646 C313 646 266 600 266 546 C266 508 295 484 342 484 C393 484 437 530 437 584 C437 622 411 646 370 646 L370 646 Z M153 647 C100 647 51 600 51 549 C51 510 79 485 123 485 C177 485 222 531 222 586 C222 623 195 647 153 647 L153 647 Z " />
<glyph glyph-name="eth" unicode="&#xf0;" horiz-adv-x="674" d="M216 504 L224 490 L346 551 C393 464 394 462 404 418 C389 420 389 420 367 420 C284 420 204 402 134 369 C46 326 -12 241 -12 155 C-12 55 98 -13 262 -13 C375 -13 490 21 548 72 C600 117 628 179 628 246 C628 315 604 388 559 456 C531 497 498 536 439 593 L552 655 L544 670 L417 606 C396 621 377 634 368 638 C349 649 329 659 310 669 L300 675 L280 663 C291 648 299 636 312 610 C327 582 328 580 334 569 L216 504 Z M355 70 C346 26 320 8 262 8 C223 8 201 21 201 44 C201 49 202 59 205 70 L261 335 C271 384 295 402 352 402 C394 402 416 389 416 366 L416 364 L412 338 L355 70 Z " />
<glyph glyph-name="ntilde" unicode="&#xf1;" horiz-adv-x="755" d="M598 617 C577 600 565 595 550 595 C535 595 521 599 485 612 C446 627 425 632 402 632 C356 632 328 616 238 538 L252 523 C273 539 281 543 294 543 C306 543 311 541 344 526 C373 512 400 505 429 505 C464 505 505 519 539 542 C557 553 565 561 611 606 L598 617 Z M654 0 L659 20 L585 20 L642 287 C645 302 647 317 647 330 C647 384 593 420 512 420 C447 420 382 400 313 359 L328 426 C281 417 260 414 224 413 L25 413 L21 393 L94 393 L15 20 L-59 20 L-63 0 L298 0 L302 20 L241 20 L308 334 C345 355 367 363 389 363 C410 363 423 351 423 332 C423 327 422 319 421 311 L359 20 L321 20 L317 0 L654 0 Z " />
<glyph glyph-name="ograve" unicode="&#xf2;" horiz-adv-x="673" d="M434 483 L428 623 L261 623 L255 596 L401 483 L434 483 Z M354 420 C256 420 153 391 91 345 C27 298 -12 226 -12 155 C-12 55 98 -13 258 -13 C376 -13 489 20 548 72 C598 115 627 177 627 239 C627 294 603 340 561 367 C508 402 437 420 354 420 L354 420 Z M356 70 C346 25 320 8 263 8 C224 8 202 21 202 44 C202 51 203 60 205 70 L261 335 C272 384 296 402 353 402 C394 402 417 389 417 367 C417 362 415 350 413 338 L356 70 Z " />
<glyph glyph-name="oacute" unicode="&#xf3;" horiz-adv-x="673" d="M344 483 L378 483 L571 596 L577 623 L410 623 L344 483 Z M354 420 C256 420 153 391 91 345 C27 298 -12 226 -12 155 C-12 55 98 -13 258 -13 C376 -13 489 20 548 72 C598 115 627 177 627 239 C627 294 603 340 561 367 C508 402 437 420 354 420 L354 420 Z M356 70 C346 25 320 8 263 8 C224 8 202 21 202 44 C202 51 203 60 205 70 L261 335 C272 384 296 402 353 402 C394 402 417 389 417 367 C417 362 415 350 413 338 L356 70 Z " />
<glyph glyph-name="ocircumflex" unicode="&#xf4;" horiz-adv-x="673" d="M560 525 C502 549 464 590 455 636 L346 636 C318 590 262 549 194 525 L197 495 C255 499 318 517 382 547 C433 517 489 499 545 495 L560 525 Z M354 420 C256 420 153 391 91 345 C27 298 -12 226 -12 155 C-12 55 98 -13 258 -13 C376 -13 489 20 548 72 C598 115 627 177 627 239 C627 294 603 340 561 367 C508 402 437 420 354 420 L354 420 Z M356 70 C346 25 320 8 263 8 C224 8 202 21 202 44 C202 51 203 60 205 70 L261 335 C272 384 296 402 353 402 C394 402 417 389 417 367 C417 362 415 350 413 338 L356 70 Z " />
<glyph glyph-name="otilde" unicode="&#xf5;" horiz-adv-x="673" d="M569 617 C549 601 536 595 521 595 C506 595 492 599 456 612 C417 627 397 632 373 632 C327 632 301 617 209 538 L223 523 C244 539 252 543 265 543 C277 543 283 541 315 526 C345 512 371 505 400 505 C435 505 476 519 510 542 C528 553 536 561 582 606 L569 617 Z M354 420 C256 420 153 391 91 345 C27 298 -12 226 -12 155 C-12 55 98 -13 258 -13 C376 -13 489 20 548 72 C598 115 627 177 627 239 C627 294 603 340 561 367 C508 402 437 420 354 420 L354 420 Z M356 70 C346 25 320 8 263 8 C224 8 202 21 202 44 C202 51 203 60 205 70 L261 335 C272 384 296 402 353 402 C394 402 417 389 417 367 C417 362 415 350 413 338 L356 70 Z " />
<glyph glyph-name="odieresis" unicode="&#xf6;" horiz-adv-x="673" d="M534 646 C470 646 417 602 417 549 C417 509 452 484 505 484 C565 484 614 528 614 581 C614 621 583 646 534 646 L534 646 Z M279 647 C218 647 164 602 164 551 C164 511 197 485 249 485 C311 485 361 529 361 584 C361 622 329 647 279 647 L279 647 Z M354 420 C256 420 153 391 91 345 C27 298 -12 226 -12 155 C-12 55 98 -13 258 -13 C376 -13 489 20 548 72 C598 115 627 177 627 239 C627 294 603 340 561 367 C508 402 437 420 354 420 L354 420 Z M356 70 C346 25 320 8 263 8 C224 8 202 21 202 44 C202 51 203 60 205 70 L261 335 C272 384 296 402 353 402 C394 402 417 389 417 367 C417 362 415 350 413 338 L356 70 Z " />
<glyph glyph-name="divide" unicode="&#xf7;" horiz-adv-x="733" d="M628 356 L114 356 L105 313 L619 313 L628 356 Z M426 607 C361 607 305 567 305 522 C305 487 343 460 394 460 C456 460 513 500 513 545 C513 580 476 607 426 607 L426 607 Z M342 212 C277 212 221 172 221 127 C221 91 258 65 309 65 C373 65 429 105 429 150 C429 185 392 212 342 212 L342 212 Z " />
<glyph glyph-name="oslash" unicode="&#xf8;" horiz-adv-x="673" d="M653 387 L643 403 L576 360 C526 400 452 420 358 420 C254 420 150 389 87 339 C26 291 -11 222 -11 156 C-11 112 3 78 30 51 L-26 14 L-17 -1 L45 39 C99 4 176 -14 268 -14 C359 -14 472 16 529 56 C591 100 628 170 628 243 C628 287 617 316 589 347 L653 387 Z M393 245 L229 175 L264 342 C273 384 298 400 356 400 C396 400 415 386 415 358 C415 349 415 349 414 344 L393 245 Z M388 219 L353 59 C346 23 317 6 265 6 C224 6 203 18 203 41 C203 50 204 56 205 63 L223 150 L388 219 Z " />
<glyph glyph-name="ugrave" unicode="&#xf9;" horiz-adv-x="735" d="M484 483 L478 623 L311 623 L305 596 L450 483 L484 483 Z M357 0 L657 0 L661 20 L587 20 L674 426 C643 418 600 413 560 413 L359 413 L355 393 L440 393 L374 80 C344 62 315 52 295 52 C275 52 263 62 263 79 C263 85 264 93 267 108 L335 426 C299 418 256 413 219 413 L24 413 L20 393 L101 393 L39 102 C37 90 36 81 36 68 C36 17 83 -14 162 -14 C230 -14 293 7 368 53 L357 0 Z " />
<glyph glyph-name="uacute" unicode="&#xfa;" horiz-adv-x="735" d="M377 483 L411 483 L604 596 L610 623 L443 623 L377 483 Z M357 0 L657 0 L661 20 L587 20 L674 426 C643 418 600 413 560 413 L359 413 L355 393 L440 393 L374 80 C344 62 315 52 295 52 C275 52 263 62 263 79 C263 85 264 93 267 108 L335 426 C299 418 256 413 219 413 L24 413 L20 393 L101 393 L39 102 C37 90 36 81 36 68 C36 17 83 -14 162 -14 C230 -14 293 7 368 53 L357 0 Z " />
<glyph glyph-name="ucircumflex" unicode="&#xfb;" horiz-adv-x="735" d="M599 525 C542 549 503 590 495 636 L385 636 C357 590 301 549 233 525 L236 495 C294 499 357 517 421 547 C472 517 528 499 584 495 L599 525 Z M357 0 L657 0 L661 20 L587 20 L674 426 C643 418 600 413 560 413 L359 413 L355 393 L440 393 L374 80 C344 62 315 52 295 52 C275 52 263 62 263 79 C263 85 264 93 267 108 L335 426 C299 418 256 413 219 413 L24 413 L20 393 L101 393 L39 102 C37 90 36 81 36 68 C36 17 83 -14 162 -14 C230 -14 293 7 368 53 L357 0 Z " />
<glyph glyph-name="udieresis" unicode="&#xfc;" horiz-adv-x="735" d="M572 646 C508 646 455 602 455 549 C455 509 490 484 543 484 C603 484 652 528 652 582 C652 621 621 646 572 646 L572 646 Z M316 647 C255 647 201 602 201 552 C201 511 234 485 286 485 C348 485 398 529 398 584 C398 622 366 647 316 647 L316 647 Z M357 0 L657 0 L661 20 L587 20 L674 426 C643 418 600 413 560 413 L359 413 L355 393 L440 393 L374 80 C344 62 315 52 295 52 C275 52 263 62 263 79 C263 85 264 93 267 108 L335 426 C299 418 256 413 219 413 L24 413 L20 393 L101 393 L39 102 C37 90 36 81 36 68 C36 17 83 -14 162 -14 C230 -14 293 7 368 53 L357 0 Z " />
<glyph glyph-name="yacute" unicode="&#xfd;" horiz-adv-x="567" d="M310 483 L343 483 L536 596 L542 623 L375 623 L310 483 Z M588 413 L400 413 L396 393 C440 388 455 378 455 351 C455 335 445 314 426 290 L390 244 L329 393 L376 393 L381 413 L17 413 L13 393 L42 393 L204 4 L111 -115 C111 -66 77 -34 23 -34 C-45 -34 -105 -89 -105 -152 C-105 -199 -71 -228 -16 -228 C33 -228 78 -199 126 -137 L469 308 C512 365 540 386 584 393 L588 413 Z " />
<glyph glyph-name="thorn" unicode="&#xfe;" horiz-adv-x="709" d="M245 44 C316 0 341 -9 396 -9 C464 -9 539 23 587 73 C636 125 666 194 666 256 C666 354 594 420 488 420 C441 420 401 410 316 376 L381 680 C344 673 289 667 254 667 L78 667 L74 647 L147 647 L-34 -207 L-108 -207 L-112 -227 L284 -227 L288 -207 L192 -207 L245 44 Z M311 352 C343 368 378 377 406 377 C434 377 451 365 451 345 C451 336 451 331 449 324 L402 101 C392 59 375 43 335 43 C306 43 283 50 251 69 L311 352 Z " />
<glyph glyph-name="ydieresis" unicode="&#xff;" horiz-adv-x="567" d="M494 646 C430 646 377 602 377 549 C377 509 412 484 465 484 C525 484 574 528 574 582 C574 621 543 646 494 646 L494 646 Z M239 647 C178 647 124 602 124 552 C124 511 157 485 209 485 C271 485 321 529 321 584 C321 622 289 647 239 647 L239 647 Z M588 413 L400 413 L396 393 C440 388 455 378 455 351 C455 335 445 314 426 290 L390 244 L329 393 L376 393 L381 413 L17 413 L13 393 L42 393 L204 4 L111 -115 C111 -66 77 -34 23 -34 C-45 -34 -105 -89 -105 -152 C-105 -199 -71 -228 -16 -228 C33 -228 78 -199 126 -137 L469 308 C512 365 540 386 584 393 L588 413 Z " />
<glyph glyph-name="Amacron" unicode="&#x100;" horiz-adv-x="860" d="M785 0 L790 23 L750 23 L640 667 L389 667 L91 174 C29 83 -26 28 -62 23 L-67 0 L218 0 L223 23 C146 24 113 51 113 113 C113 144 119 166 139 205 L393 205 L424 23 L341 23 L336 0 L785 0 Z M391 228 L152 228 L337 539 L391 228 Z M716 828 L375 828 L360 756 L701 756 L716 828 Z " />
<glyph glyph-name="amacron" unicode="&#x101;" horiz-adv-x="679" d="M596 88 C568 59 561 53 553 53 C550 53 549 55 549 60 C549 63 550 70 552 78 L592 267 C597 289 599 304 599 312 C599 383 500 420 309 420 C168 420 82 375 82 303 C82 263 109 240 154 240 C212 240 256 282 256 338 C256 365 243 380 210 390 C232 395 249 397 276 397 C342 397 383 378 383 346 C383 341 381 328 378 313 L357 213 C316 226 277 231 228 231 C167 231 122 224 84 209 C21 184 -21 136 -21 89 C-21 29 49 -13 151 -13 C210 -13 256 -1 323 31 C351 -1 379 -13 425 -13 C505 -13 571 19 614 78 L596 88 Z M322 48 C273 33 251 28 228 28 C201 28 186 39 186 57 L187 68 L207 161 C214 192 232 204 275 204 C297 204 316 201 352 192 L322 48 Z M577 602 L252 602 L237 530 L562 530 L577 602 Z " />
<glyph glyph-name="Abreve" unicode="&#x102;" horiz-adv-x="860" d="M785 0 L790 23 L750 23 L640 667 L389 667 L91 174 C29 83 -26 28 -62 23 L-67 0 L218 0 L223 23 C146 24 113 51 113 113 C113 144 119 166 139 205 L393 205 L424 23 L341 23 L336 0 L785 0 Z M391 228 L152 228 L337 539 L391 228 Z M693 878 C685 862 680 856 668 849 C646 837 600 830 544 830 C493 830 451 836 432 847 C420 854 416 861 416 878 L393 878 C391 859 390 850 390 839 C390 771 430 742 522 742 C638 742 685 775 715 878 L693 878 Z " />
<glyph glyph-name="abreve" unicode="&#x103;" horiz-adv-x="679" d="M596 88 C568 59 561 53 553 53 C550 53 549 55 549 60 C549 63 550 70 552 78 L592 267 C597 289 599 304 599 312 C599 383 500 420 309 420 C168 420 82 375 82 303 C82 263 109 240 154 240 C212 240 256 282 256 338 C256 365 243 380 210 390 C232 395 249 397 276 397 C342 397 383 378 383 346 C383 341 381 328 378 313 L357 213 C316 226 277 231 228 231 C167 231 122 224 84 209 C21 184 -21 136 -21 89 C-21 29 49 -13 151 -13 C210 -13 256 -1 323 31 C351 -1 379 -13 425 -13 C505 -13 571 19 614 78 L596 88 Z M322 48 C273 33 251 28 228 28 C201 28 186 39 186 57 L187 68 L207 161 C214 192 232 204 275 204 C297 204 316 201 352 192 L322 48 Z M567 638 C560 622 554 615 543 609 C521 597 477 590 425 590 C376 590 336 596 318 607 C307 614 303 621 303 638 L282 638 C279 618 278 608 278 597 C278 531 316 502 403 502 C513 502 558 535 588 638 L567 638 Z " />
<glyph glyph-name="Aogonek" unicode="&#x104;" horiz-adv-x="860" d="M785 0 L790 23 L750 23 L640 667 L389 667 L91 174 C29 83 -26 28 -62 23 L-67 0 L218 0 L223 23 C146 24 113 51 113 113 C113 144 119 166 139 205 L393 205 L424 23 L341 23 L336 0 L699 0 C573 -25 503 -66 503 -116 C503 -154 549 -180 615 -180 C648 -180 664 -177 716 -163 L720 -146 C647 -145 610 -130 610 -101 C610 -78 628 -54 658 -36 C679 -23 692 -18 742 0 L785 0 Z M391 228 L152 228 L337 539 L391 228 Z " />
<glyph glyph-name="aogonek" unicode="&#x105;" horiz-adv-x="679" d="M596 88 C568 59 561 53 553 53 C550 53 549 55 549 60 C549 63 550 70 552 78 L592 267 C597 289 599 304 599 312 C599 383 500 420 309 420 C168 420 82 375 82 303 C82 263 109 240 154 240 C212 240 256 282 256 338 C256 365 243 380 210 390 C232 395 249 397 276 397 C342 397 383 378 383 346 C383 341 381 328 378 313 L357 213 C316 226 277 231 228 231 C167 231 122 224 84 209 C21 184 -21 136 -21 89 C-21 29 49 -13 151 -13 C210 -13 256 -1 323 31 C349 0 375 -11 422 -13 C343 -35 300 -73 300 -120 C300 -159 340 -180 415 -180 C442 -180 463 -178 506 -171 L511 -150 C438 -145 408 -131 408 -102 C408 -63 440 -31 506 -1 C545 10 589 42 614 78 L596 88 Z M322 48 C273 33 251 28 228 28 C201 28 186 39 186 57 L187 68 L207 161 C214 192 232 204 275 204 C297 204 316 201 352 192 L322 48 Z " />
<glyph glyph-name="Cacute" unicode="&#x106;" horiz-adv-x="770" d="M651 133 C562 50 477 10 390 10 C343 10 320 30 320 72 C320 83 322 99 326 117 L419 557 C428 597 434 614 445 627 C461 647 484 657 513 657 C618 657 711 565 711 461 C711 446 710 434 706 412 L731 412 L789 687 L667 631 C612 673 568 687 492 687 C374 687 262 648 181 579 C84 496 25 374 25 257 C25 90 152 -20 346 -20 C469 -20 565 20 673 117 L651 133 Z M445 716 L472 716 L682 829 L688 856 L513 856 L445 716 Z " />
<glyph glyph-name="cacute" unicode="&#x107;" horiz-adv-x="550" d="M447 95 C388 43 327 16 269 16 C225 16 207 28 207 57 C207 67 209 79 212 95 L264 338 C273 383 292 399 336 399 C388 399 417 392 439 374 C424 377 417 378 409 378 C355 378 306 334 306 285 C306 249 341 224 392 224 C458 224 508 267 508 323 C508 384 447 420 344 420 C148 420 -11 303 -11 159 C-11 51 79 -13 230 -13 C331 -13 404 17 468 85 L447 95 Z M290 483 L323 483 L516 596 L522 623 L355 623 L290 483 Z " />
<glyph glyph-name="Ccircumflex" unicode="&#x108;" horiz-adv-x="770" d="M651 133 C562 50 477 10 390 10 C343 10 320 30 320 72 C320 83 322 99 326 117 L419 557 C428 597 434 614 445 627 C461 647 484 657 513 657 C618 657 711 565 711 461 C711 446 710 434 706 412 L731 412 L789 687 L667 631 C612 673 568 687 492 687 C374 687 262 648 181 579 C84 496 25 374 25 257 C25 90 152 -20 346 -20 C469 -20 565 20 673 117 L651 133 Z M692 758 C631 782 590 823 581 869 L466 869 C438 823 379 782 308 758 L311 728 C371 732 438 750 505 780 C559 750 617 732 676 728 L692 758 Z " />
<glyph glyph-name="Cdotaccent" unicode="&#x10a;" horiz-adv-x="770" d="M651 133 C562 50 477 10 390 10 C343 10 320 30 320 72 C320 83 322 99 326 117 L419 557 C428 597 434 614 445 627 C461 647 484 657 513 657 C618 657 711 565 711 461 C711 446 710 434 706 412 L731 412 L789 687 L667 631 C612 673 568 687 492 687 C374 687 262 648 181 579 C84 496 25 374 25 257 C25 90 152 -20 346 -20 C469 -20 565 20 673 117 L651 133 Z M512 887 C451 887 397 842 397 792 C397 751 430 725 482 725 C544 725 594 769 594 824 C594 862 562 887 512 887 L512 887 Z " />
<glyph glyph-name="cdotaccent" unicode="&#x10b;" horiz-adv-x="550" d="M447 95 C388 43 327 16 269 16 C225 16 207 28 207 57 C207 67 209 79 212 95 L264 338 C273 383 292 399 336 399 C388 399 417 392 439 374 C424 377 417 378 409 378 C355 378 306 334 306 285 C306 249 341 224 392 224 C458 224 508 267 508 323 C508 384 447 420 344 420 C148 420 -11 303 -11 159 C-11 51 79 -13 230 -13 C331 -13 404 17 468 85 L447 95 Z M366 647 C305 647 251 602 251 552 C251 511 284 485 336 485 C398 485 448 529 448 584 C448 622 416 647 366 647 L366 647 Z " />
<glyph glyph-name="Ccaron" unicode="&#x10c;" horiz-adv-x="770" d="M651 133 C562 50 477 10 390 10 C343 10 320 30 320 72 C320 83 322 99 326 117 L419 557 C428 597 434 614 445 627 C461 647 484 657 513 657 C618 657 711 565 711 461 C711 446 710 434 706 412 L731 412 L789 687 L667 631 C612 673 568 687 492 687 C374 687 262 648 181 579 C84 496 25 374 25 257 C25 90 152 -20 346 -20 C469 -20 565 20 673 117 L651 133 Z M321 849 C381 825 423 784 432 738 L547 738 C576 784 634 825 705 849 L702 879 C641 875 575 857 508 827 C455 857 396 875 337 879 L321 849 Z " />
<glyph glyph-name="ccaron" unicode="&#x10d;" horiz-adv-x="550" d="M447 95 C388 43 327 16 269 16 C225 16 207 28 207 57 C207 67 209 79 212 95 L264 338 C273 383 292 399 336 399 C388 399 417 392 439 374 C424 377 417 378 409 378 C355 378 306 334 306 285 C306 249 341 224 392 224 C458 224 508 267 508 323 C508 384 447 420 344 420 C148 420 -11 303 -11 159 C-11 51 79 -13 230 -13 C331 -13 404 17 468 85 L447 95 Z M171 606 C229 582 268 541 276 495 L386 495 C413 541 470 582 537 606 L535 636 C477 632 414 614 350 584 C298 614 243 632 187 636 L171 606 Z " />
<glyph glyph-name="Dcaron" unicode="&#x10e;" horiz-adv-x="950" d="M-45 0 L532 0 C636 0 722 40 802 125 C880 208 926 314 926 409 C926 481 900 552 857 599 C813 646 748 667 648 667 L97 667 L92 644 L178 644 L46 23 L-40 23 L-45 0 Z M361 23 L493 644 L548 644 C603 644 617 636 617 603 C617 590 614 570 610 549 L518 118 C505 45 477 22 405 23 L361 23 Z M357 849 C418 825 459 784 468 738 L583 738 C612 784 670 825 742 849 L739 879 C678 875 612 857 545 827 C491 856 432 875 373 879 L357 849 Z " />
<glyph glyph-name="dcaron" unicode="&#x10f;" horiz-adv-x="897" d="M328 -13 C365 -4 382 -2 431 0 L630 0 L635 20 L561 20 L702 680 C643 671 621 668 570 667 L376 667 L372 647 L468 647 L413 388 C353 411 311 420 261 420 C109 420 -11 302 -11 153 C-11 59 73 -13 182 -13 C231 -13 281 2 338 34 L328 -13 Z M344 62 C306 44 267 33 240 33 C219 33 208 43 208 61 C208 66 209 72 210 78 L263 326 C271 363 295 380 341 380 C355 380 369 377 408 365 L344 62 Z M717 453 C799 454 834 460 869 481 C911 507 947 563 947 606 C947 650 906 680 847 680 C777 680 716 640 716 594 C716 558 758 528 808 528 C844 528 875 537 901 556 C874 496 831 477 722 477 L717 453 Z " />
<glyph glyph-name="Dcroat" unicode="&#x110;" horiz-adv-x="950" d="M27 340 L113 340 L46 23 L-40 23 L-45 0 L532 0 C636 0 722 40 802 125 C880 208 926 313 926 408 C926 481 900 551 857 599 C813 646 748 667 648 667 L97 667 L92 644 L178 644 L118 363 L32 363 L27 340 Z M433 363 L493 644 L548 644 C603 644 617 636 617 603 C617 590 614 570 610 549 L518 118 C505 45 477 22 405 23 L361 23 L428 340 L496 340 L501 363 L433 363 Z " />
<glyph glyph-name="dcroat" unicode="&#x111;" horiz-adv-x="708" d="M444 534 L413 388 C353 411 311 420 261 420 C109 420 -11 302 -11 153 C-11 59 73 -13 182 -13 C231 -13 281 2 338 34 L328 -13 C365 -4 382 -2 431 0 L630 0 L635 20 L561 20 L671 534 L744 534 L749 557 L676 557 L702 680 C643 671 621 668 570 667 L376 667 L372 647 L468 647 L449 557 L280 557 L275 534 L444 534 Z M344 62 C306 44 267 33 240 33 C219 33 208 43 208 61 C208 66 209 72 210 78 L263 326 C271 363 295 380 341 380 C355 380 369 377 408 365 L344 62 Z " />
<glyph glyph-name="Emacron" unicode="&#x112;" horiz-adv-x="821" d="M684 0 L736 246 L713 246 C662 114 524 26 361 23 L427 331 L448 331 C509 331 551 288 551 225 C551 213 550 202 545 179 L569 179 L639 511 L616 511 C600 418 537 356 455 355 L431 355 L493 644 C577 644 608 639 646 620 C699 592 735 538 735 485 C735 478 735 471 733 457 L757 457 L802 667 L97 667 L92 644 L178 644 L46 23 L-40 23 L-45 0 L684 0 Z M695 828 L355 828 L339 756 L680 756 L695 828 Z " />
<glyph glyph-name="emacron" unicode="&#x113;" horiz-adv-x="597" d="M506 131 C437 68 335 20 268 20 C231 20 209 38 209 69 C209 81 212 101 216 121 L235 209 L549 209 C550 216 550 223 550 226 C550 288 519 350 471 383 C436 408 391 420 336 420 C147 420 -11 301 -11 158 C-11 59 94 -13 238 -13 C338 -13 438 32 520 114 L506 131 Z M366 230 L239 230 L264 348 C272 384 296 401 341 401 C376 401 392 389 392 365 C392 356 392 352 390 347 L366 230 Z M525 602 L200 602 L185 530 L510 530 L525 602 Z " />
<glyph glyph-name="Ebreve" unicode="&#x114;" horiz-adv-x="821" d="M684 0 L736 246 L713 246 C662 114 524 26 361 23 L427 331 L448 331 C509 331 551 288 551 225 C551 213 550 202 545 179 L569 179 L639 511 L616 511 C600 418 537 356 455 355 L431 355 L493 644 C577 644 608 639 646 620 C699 592 735 538 735 485 C735 478 735 471 733 457 L757 457 L802 667 L97 667 L92 644 L178 644 L46 23 L-40 23 L-45 0 L684 0 Z M683 878 C675 862 669 856 658 849 C635 837 589 830 534 830 C483 830 440 836 422 847 C410 854 406 861 405 878 L383 878 C381 859 380 850 380 839 C380 771 419 742 512 742 C627 742 674 775 705 878 L683 878 Z " />
<glyph glyph-name="ebreve" unicode="&#x115;" horiz-adv-x="597" d="M506 131 C437 68 335 20 268 20 C231 20 209 38 209 69 C209 81 212 101 216 121 L235 209 L549 209 C550 216 550 223 550 226 C550 288 519 350 471 383 C436 408 391 420 336 420 C147 420 -11 301 -11 158 C-11 59 94 -13 238 -13 C338 -13 438 32 520 114 L506 131 Z M366 230 L239 230 L264 348 C272 384 296 401 341 401 C376 401 392 389 392 365 C392 356 392 352 390 347 L366 230 Z M504 638 C497 622 492 616 480 609 C459 597 415 590 362 590 C313 590 273 596 256 607 C244 614 241 621 240 638 L219 638 C217 618 216 609 216 597 C216 530 253 502 341 502 C451 502 496 535 526 638 L504 638 Z " />
<glyph glyph-name="Edotaccent" unicode="&#x116;" horiz-adv-x="821" d="M684 0 L736 246 L713 246 C662 114 524 26 361 23 L427 331 L448 331 C509 331 551 288 551 225 C551 213 550 202 545 179 L569 179 L639 511 L616 511 C600 418 537 356 455 355 L431 355 L493 644 C577 644 608 639 646 620 C699 592 735 538 735 485 C735 478 735 471 733 457 L757 457 L802 667 L97 667 L92 644 L178 644 L46 23 L-40 23 L-45 0 L684 0 Z M531 887 C470 887 416 842 416 792 C416 751 449 725 501 725 C563 725 612 769 612 824 C612 862 580 887 531 887 L531 887 Z " />
<glyph glyph-name="edotaccent" unicode="&#x117;" horiz-adv-x="597" d="M506 131 C437 68 335 20 268 20 C231 20 209 38 209 69 C209 81 212 101 216 121 L235 209 L549 209 C550 216 550 223 550 226 C550 288 519 350 471 383 C436 408 391 420 336 420 C147 420 -11 301 -11 158 C-11 59 94 -13 238 -13 C338 -13 438 32 520 114 L506 131 Z M366 230 L239 230 L264 348 C272 384 296 401 341 401 C376 401 392 389 392 365 C392 356 392 352 390 347 L366 230 Z M382 647 C320 647 266 602 266 552 C266 511 299 485 351 485 C413 485 463 529 463 584 C463 622 431 647 382 647 L382 647 Z " />
<glyph glyph-name="Eogonek" unicode="&#x118;" horiz-adv-x="821" d="M684 0 L736 246 L713 246 C662 114 524 26 361 23 L427 331 L448 331 C509 331 551 288 551 225 C551 213 550 202 545 179 L569 179 L639 511 L616 511 C600 418 537 356 455 355 L431 355 L493 644 C577 644 608 639 646 620 C699 592 735 538 735 485 C735 478 735 471 733 457 L757 457 L802 667 L97 667 L92 644 L178 644 L46 23 L-40 23 L-45 0 L624 0 C497 -25 427 -66 427 -116 C427 -154 473 -180 540 -180 C573 -180 589 -177 641 -163 L645 -146 C571 -145 534 -130 534 -101 C534 -78 552 -54 582 -36 C603 -23 615 -18 667 0 L684 0 Z " />
<glyph glyph-name="eogonek" unicode="&#x119;" horiz-adv-x="597" d="M358 -150 C285 -145 255 -131 255 -102 C255 -75 276 -44 306 -24 C321 -14 344 -2 382 17 C428 38 487 80 520 114 L506 131 C437 68 335 20 268 20 C231 20 209 38 209 69 C209 81 212 101 216 121 L235 209 L549 209 C550 216 550 223 550 226 C550 288 519 350 471 383 C436 408 391 420 336 420 C147 420 -11 301 -11 158 C-11 59 94 -13 240 -13 C255 -13 264 -13 277 -11 C193 -33 147 -71 147 -120 C147 -159 187 -180 262 -180 C289 -180 310 -178 354 -171 L358 -150 Z M366 230 L239 230 L264 348 C272 384 296 401 341 401 C376 401 392 389 392 365 C392 356 392 352 390 347 L366 230 Z " />
<glyph glyph-name="Ecaron" unicode="&#x11a;" horiz-adv-x="821" d="M684 0 L736 246 L713 246 C662 114 524 26 361 23 L427 331 L448 331 C509 331 551 288 551 225 C551 213 550 202 545 179 L569 179 L639 511 L616 511 C600 418 537 356 455 355 L431 355 L493 644 C577 644 608 639 646 620 C699 592 735 538 735 485 C735 478 735 471 733 457 L757 457 L802 667 L97 667 L92 644 L178 644 L46 23 L-40 23 L-45 0 L684 0 Z M344 849 C404 825 445 784 455 738 L570 738 C598 784 657 825 728 849 L725 879 C664 875 598 857 531 827 C478 856 418 875 360 879 L344 849 Z " />
<glyph glyph-name="ecaron" unicode="&#x11b;" horiz-adv-x="597" d="M506 131 C437 68 335 20 268 20 C231 20 209 38 209 69 C209 81 212 101 216 121 L235 209 L549 209 C550 216 550 223 550 226 C550 288 519 350 471 383 C436 408 391 420 336 420 C147 420 -11 301 -11 158 C-11 59 94 -13 238 -13 C338 -13 438 32 520 114 L506 131 Z M366 230 L239 230 L264 348 C272 384 296 401 341 401 C376 401 392 389 392 365 C392 356 392 352 390 347 L366 230 Z M191 606 C248 582 287 541 295 495 L405 495 C433 541 489 582 557 606 L554 636 C496 632 433 614 369 584 C318 614 262 632 206 636 L191 606 Z " />
<glyph glyph-name="Gcircumflex" unicode="&#x11c;" horiz-adv-x="863" d="M826 277 L830 300 L443 300 L438 277 L519 277 L480 93 C468 38 435 10 384 10 C347 10 329 25 329 56 C329 64 330 75 332 83 L434 562 C449 635 474 657 544 657 C604 657 656 635 699 592 C735 555 756 511 756 469 C756 457 755 448 751 427 L772 427 L828 687 L718 631 C652 674 605 687 520 687 C417 687 319 663 245 621 C116 546 23 393 23 255 C23 88 160 -20 371 -20 C479 -20 566 1 646 46 L708 -32 L773 277 L826 277 Z M722 758 C661 782 620 823 611 869 L496 869 C467 823 409 782 338 758 L341 728 C401 732 468 750 535 780 C589 750 647 732 706 728 L722 758 Z " />
<glyph glyph-name="gcircumflex" unicode="&#x11d;" horiz-adv-x="634" d="M279 85 C193 84 193 84 177 84 C117 84 96 90 96 108 C96 119 107 131 127 141 C173 128 217 123 271 123 C352 123 443 142 498 169 C546 193 578 241 578 288 C578 347 531 386 432 410 C448 443 466 463 492 476 C486 465 484 456 484 444 C484 421 501 407 529 407 C566 407 599 439 599 476 C599 501 580 518 550 518 C544 518 539 517 532 516 L536 525 C479 549 440 590 432 636 L322 636 C294 590 238 549 170 525 L173 494 C231 499 294 517 358 547 C401 522 441 507 489 498 C460 480 429 445 413 413 C382 418 361 420 330 420 C232 420 138 398 88 362 C45 331 20 287 20 243 C20 200 40 177 106 147 C20 106 -27 51 -27 -8 C-27 -25 -23 -38 -12 -56 C-40 -86 -52 -107 -52 -130 C-52 -191 34 -232 161 -232 C376 -232 518 -150 518 -25 C518 48 458 85 336 85 L279 85 Z M350 189 C343 154 318 138 270 138 C233 138 216 150 216 174 C216 178 217 183 218 187 L253 354 C260 385 286 401 333 401 C369 401 388 389 387 366 C387 363 386 359 385 355 L350 189 Z M20 -68 C42 -88 68 -96 112 -96 C126 -96 143 -95 161 -94 C213 -91 221 -91 245 -91 C321 -91 344 -100 344 -131 C344 -179 281 -210 185 -210 C77 -210 2 -171 2 -116 C2 -100 7 -86 20 -68 L20 -68 Z " />
<glyph glyph-name="Gbreve" unicode="&#x11e;" horiz-adv-x="863" d="M826 277 L830 300 L443 300 L438 277 L519 277 L480 93 C468 38 435 10 384 10 C347 10 329 25 329 56 C329 64 330 75 332 83 L434 562 C449 635 474 657 544 657 C604 657 656 635 699 592 C735 555 756 511 756 469 C756 457 755 448 751 427 L772 427 L828 687 L718 631 C652 674 605 687 520 687 C417 687 319 663 245 621 C116 546 23 393 23 255 C23 88 160 -20 371 -20 C479 -20 566 1 646 46 L708 -32 L773 277 L826 277 Z M696 878 C689 862 683 856 671 849 C649 837 603 830 547 830 C496 830 454 836 435 847 C423 854 419 861 419 878 L397 878 C394 859 393 850 393 839 C393 771 433 742 525 742 C641 742 688 775 718 878 L696 878 Z " />
<glyph glyph-name="gbreve" unicode="&#x11f;" horiz-adv-x="634" d="M279 85 C193 84 193 84 177 84 C117 84 96 90 96 108 C96 119 107 131 127 141 C173 128 217 123 271 123 C352 123 443 142 498 169 C546 193 578 241 578 288 C578 347 531 386 432 410 C448 442 467 463 492 476 C486 465 484 455 484 444 C484 421 501 407 529 407 C566 407 599 439 599 476 C599 502 580 518 550 518 C501 518 445 475 413 413 C382 418 361 420 330 420 C232 420 138 398 88 362 C45 331 20 287 20 243 C20 200 40 177 106 147 C20 106 -27 51 -27 -8 C-27 -25 -23 -38 -12 -56 C-40 -86 -52 -107 -52 -130 C-52 -191 34 -232 161 -232 C376 -232 518 -150 518 -25 C518 48 458 85 336 85 L279 85 Z M350 189 C343 154 318 138 270 138 C233 138 216 150 216 174 C216 178 217 183 218 187 L253 354 C260 385 286 401 333 401 C369 401 388 389 387 366 C387 363 386 359 385 355 L350 189 Z M20 -68 C42 -88 68 -96 112 -96 C126 -96 143 -95 161 -94 C213 -91 221 -91 245 -91 C321 -91 344 -100 344 -131 C344 -179 281 -210 185 -210 C77 -210 2 -171 2 -116 C2 -100 7 -86 20 -68 L20 -68 Z M513 638 C506 622 501 616 489 609 C468 597 424 590 372 590 C322 590 282 596 265 607 C253 614 250 621 249 638 L228 638 C226 618 225 608 225 597 C225 530 262 502 350 502 C460 502 505 535 535 638 L513 638 Z " />
<glyph glyph-name="Gdotaccent" unicode="&#x120;" horiz-adv-x="863" d="M826 277 L830 300 L443 300 L438 277 L519 277 L480 93 C468 38 435 10 384 10 C347 10 329 25 329 56 C329 64 330 75 332 83 L434 562 C449 635 474 657 544 657 C604 657 656 635 699 592 C735 555 756 511 756 469 C756 457 755 448 751 427 L772 427 L828 687 L718 631 C652 674 605 687 520 687 C417 687 319 663 245 621 C116 546 23 393 23 255 C23 88 160 -20 371 -20 C479 -20 566 1 646 46 L708 -32 L773 277 L826 277 Z M553 887 C492 887 438 842 438 792 C438 751 471 725 523 725 C585 725 634 769 634 824 C634 862 602 887 553 887 L553 887 Z " />
<glyph glyph-name="gdotaccent" unicode="&#x121;" horiz-adv-x="634" d="M279 85 C193 84 193 84 177 84 C117 84 96 90 96 108 C96 119 107 131 127 141 C173 128 217 123 271 123 C352 123 443 142 498 169 C546 193 578 241 578 288 C578 347 531 386 432 410 C448 442 467 463 492 476 C486 465 484 455 484 444 C484 421 501 407 529 407 C566 407 599 439 599 476 C599 502 580 518 550 518 C501 518 445 475 413 413 C382 418 361 420 330 420 C232 420 138 398 88 362 C45 331 20 287 20 243 C20 200 40 177 106 147 C20 106 -27 51 -27 -8 C-27 -25 -23 -38 -12 -56 C-40 -86 -52 -107 -52 -130 C-52 -191 34 -232 161 -232 C376 -232 518 -150 518 -25 C518 48 458 85 336 85 L279 85 Z M350 189 C343 154 318 138 270 138 C233 138 216 150 216 174 C216 178 217 183 218 187 L253 354 C260 385 286 401 333 401 C369 401 388 389 387 366 C387 363 386 359 385 355 L350 189 Z M20 -68 C42 -88 68 -96 112 -96 C126 -96 143 -95 161 -94 C213 -91 221 -91 245 -91 C321 -91 344 -100 344 -131 C344 -179 281 -210 185 -210 C77 -210 2 -171 2 -116 C2 -100 7 -86 20 -68 L20 -68 Z M385 647 C323 647 269 602 269 552 C269 511 302 485 354 485 C416 485 466 529 466 584 C466 622 434 647 385 647 L385 647 Z " />
<glyph glyph-name="Gcommaaccent" unicode="&#x122;" horiz-adv-x="863" d="M826 277 L830 300 L443 300 L438 277 L519 277 L480 93 C468 38 435 10 384 10 C347 10 329 25 329 56 C329 64 330 75 332 83 L434 562 C449 635 474 657 544 657 C604 657 656 635 699 592 C735 555 756 511 756 469 C756 457 755 448 751 427 L772 427 L828 687 L718 631 C652 674 605 687 520 687 C417 687 319 663 245 621 C116 546 23 393 23 255 C23 88 160 -20 371 -20 C479 -20 566 1 646 46 L708 -32 L773 277 L826 277 Z M223 -288 C313 -287 347 -281 383 -259 C429 -231 466 -172 466 -127 C466 -80 423 -48 360 -48 C286 -48 222 -90 222 -139 C222 -177 266 -209 320 -209 C357 -209 389 -199 417 -179 C388 -244 343 -264 228 -264 L223 -288 Z " />
<glyph glyph-name="gcommaaccent" unicode="&#x123;" horiz-adv-x="634" d="M279 85 C193 84 193 84 177 84 C117 84 96 90 96 108 C96 119 107 131 127 141 C173 128 217 123 271 123 C352 123 443 142 498 169 C546 193 578 241 578 288 C578 347 531 386 432 410 C448 442 467 463 492 476 C486 465 484 455 484 444 C484 421 501 407 529 407 C566 407 599 439 599 476 C599 502 580 518 550 518 C501 518 445 475 413 413 C382 418 361 420 330 420 C232 420 138 398 88 362 C45 331 20 287 20 243 C20 200 40 177 106 147 C20 106 -27 51 -27 -8 C-27 -25 -23 -38 -12 -56 C-40 -86 -52 -107 -52 -130 C-52 -191 34 -232 161 -232 C376 -232 518 -150 518 -25 C518 48 458 85 336 85 L279 85 Z M350 189 C343 154 318 138 270 138 C233 138 216 150 216 174 C216 178 217 183 218 187 L253 354 C260 385 286 401 333 401 C369 401 388 389 387 366 C387 363 386 359 385 355 L350 189 Z M20 -68 C42 -88 68 -96 112 -96 C126 -96 143 -95 161 -94 C213 -91 221 -91 245 -91 C321 -91 344 -100 344 -131 C344 -179 281 -210 185 -210 C77 -210 2 -171 2 -116 C2 -100 7 -86 20 -68 L20 -68 Z M482 701 C399 700 364 694 329 673 C286 647 251 590 251 548 C251 503 292 473 352 473 C422 473 483 513 483 559 C483 595 441 625 390 625 C355 625 323 616 297 597 C325 657 368 676 477 677 L482 701 Z " />
<glyph glyph-name="Hcircumflex" unicode="&#x124;" horiz-adv-x="982" d="M886 0 L891 23 L805 23 L937 644 L1022 644 L1027 667 L571 667 L566 644 L621 644 L561 359 L432 359 L493 644 L548 644 L553 667 L97 667 L92 644 L178 644 L46 23 L-40 23 L-45 0 L411 0 L416 23 L361 23 L427 336 L556 336 L489 23 L434 23 L429 0 L886 0 Z M774 758 C713 782 672 823 663 869 L548 869 C519 823 460 782 389 758 L392 728 C453 732 520 750 586 780 C641 750 699 732 758 728 L774 758 Z " />
<glyph glyph-name="Hbar" unicode="&#x126;" horiz-adv-x="982" d="M143 480 L46 23 L-40 23 L-45 0 L411 0 L416 23 L361 23 L427 336 L556 336 L489 23 L434 23 L429 0 L886 0 L891 23 L805 23 L902 480 L977 480 L983 505 L907 505 L937 644 L1022 644 L1027 667 L571 667 L566 644 L621 644 L592 505 L463 505 L493 644 L548 644 L553 667 L97 667 L92 644 L178 644 L148 505 L70 505 L65 480 L143 480 Z M458 480 L586 480 L561 359 L432 359 L458 480 Z " />
<glyph glyph-name="hbar" unicode="&#x127;" horiz-adv-x="753" d="M124 534 L15 20 L-59 20 L-63 0 L296 0 L300 20 L241 20 L310 344 C340 359 366 367 387 367 C407 367 423 354 423 338 C423 333 422 323 420 314 L357 20 L322 20 L317 0 L675 0 L680 20 L584 20 L638 275 C643 301 646 320 646 336 C646 390 602 420 523 420 C455 420 387 403 315 368 L351 534 L507 534 L512 557 L355 557 L382 680 C336 670 308 667 258 667 L79 667 L74 644 L147 644 L129 557 L56 557 L51 534 L124 534 Z " />
<glyph glyph-name="Imacron" unicode="&#x12a;" horiz-adv-x="543" d="M446 0 L451 23 L365 23 L497 644 L583 644 L588 667 L97 667 L92 644 L178 644 L46 23 L-40 23 L-45 0 L446 0 Z M547 828 L206 828 L191 756 L532 756 L547 828 Z " />
<glyph glyph-name="imacron" unicode="&#x12b;" horiz-adv-x="388" d="M310 0 L315 20 L241 20 L328 426 C295 419 235 413 199 413 L25 413 L21 393 L94 393 L15 20 L-59 20 L-63 0 L310 0 Z M404 602 L89 602 L74 530 L388 530 L404 602 Z " />
<glyph glyph-name="ibreve" unicode="&#x12d;" horiz-adv-x="388" d="M310 0 L315 20 L241 20 L328 426 C295 419 235 413 199 413 L25 413 L21 393 L94 393 L15 20 L-59 20 L-63 0 L310 0 Z M391 638 C384 622 378 615 367 609 C346 597 302 590 249 590 C200 590 160 596 143 607 C131 614 128 621 127 638 L106 638 C104 618 103 609 103 597 C103 531 140 502 228 502 C338 502 382 535 413 638 L391 638 Z " />
<glyph glyph-name="Iogonek" unicode="&#x12e;" horiz-adv-x="543" d="M446 0 L451 23 L365 23 L497 644 L583 644 L588 667 L97 667 L92 644 L178 644 L46 23 L-40 23 L-45 0 L335 0 C208 -25 138 -66 138 -116 C138 -154 184 -180 251 -180 C284 -180 300 -177 352 -163 L356 -146 C282 -145 245 -130 245 -101 C245 -78 263 -54 293 -36 C314 -23 326 -18 378 0 L446 0 Z " />
<glyph glyph-name="iogonek" unicode="&#x12f;" horiz-adv-x="388" d="M310 0 L315 20 L241 20 L328 426 C295 419 235 413 199 413 L25 413 L21 393 L94 393 L15 20 L-59 20 L-63 0 L220 0 C89 -26 36 -61 36 -121 C36 -159 77 -180 152 -180 C178 -180 199 -178 243 -171 L247 -150 C174 -145 144 -131 144 -101 C144 -63 177 -30 244 0 L310 0 Z M255 674 C180 674 121 631 121 577 C121 535 158 509 217 509 C297 509 354 550 354 607 C354 647 314 674 255 674 L255 674 Z " />
<glyph glyph-name="Idotaccent" unicode="&#x130;" horiz-adv-x="543" d="M446 0 L451 23 L365 23 L497 644 L583 644 L588 667 L97 667 L92 644 L178 644 L46 23 L-40 23 L-45 0 L446 0 Z M390 887 C328 887 274 842 274 792 C274 751 307 725 359 725 C422 725 471 769 471 824 C471 862 439 887 390 887 L390 887 Z " />
<glyph glyph-name="dotlessi" unicode="&#x131;" horiz-adv-x="388" d="M310 0 L315 20 L241 20 L328 426 C295 419 235 413 199 413 L25 413 L21 393 L94 393 L15 20 L-59 20 L-63 0 L310 0 Z " />
<glyph glyph-name="Kcommaaccent" unicode="&#x136;" horiz-adv-x="991" d="M913 0 L918 23 L882 23 L705 510 L752 542 C892 623 947 646 1000 644 L1014 644 L1019 667 L630 667 L625 644 C702 644 728 631 728 590 C728 562 712 543 657 510 L436 377 L493 644 L583 644 L588 667 L97 667 L92 644 L178 644 L46 23 L-40 23 L-45 0 L440 0 L445 23 L361 23 L429 345 L547 23 L472 23 L467 0 L913 0 Z M286 -288 C376 -287 410 -281 446 -259 C492 -231 529 -172 529 -127 C529 -80 486 -48 423 -48 C349 -48 285 -90 285 -139 C285 -177 330 -209 383 -209 C420 -209 452 -199 480 -179 C451 -244 406 -264 291 -264 L286 -288 Z " />
<glyph glyph-name="kcommaaccent" unicode="&#x137;" horiz-adv-x="778" d="M704 0 L709 20 L688 20 L504 343 C578 387 596 394 641 393 L684 393 L688 413 L494 413 L490 393 L504 393 C524 393 530 391 530 384 C530 376 518 366 495 354 L291 252 L382 680 C344 672 300 667 264 667 L79 667 L74 647 L148 647 L15 20 L-59 20 L-63 0 L310 0 L315 20 L241 20 L287 235 L403 20 L360 20 L356 0 L704 0 Z M167 -276 C250 -275 285 -268 319 -248 C362 -222 397 -165 397 -123 C397 -78 357 -48 297 -48 C226 -48 166 -88 166 -135 C166 -170 209 -200 259 -200 C294 -200 325 -191 351 -172 C324 -232 281 -251 172 -251 L167 -276 Z " />
<glyph glyph-name="Lacute" unicode="&#x139;" horiz-adv-x="789" d="M727 250 L701 250 C674 138 521 36 361 23 L493 644 L588 644 L593 667 L97 667 L92 644 L178 644 L46 23 L-40 23 L-45 0 L674 0 L727 250 Z M329 716 L355 716 L566 829 L571 856 L396 856 L329 716 Z " />
<glyph glyph-name="lacute" unicode="&#x13a;" horiz-adv-x="388" d="M310 0 L315 20 L241 20 L382 680 C359 673 318 668 277 667 L79 667 L74 647 L148 647 L15 20 L-59 20 L-63 0 L310 0 Z M241 716 L267 716 L477 829 L483 856 L308 856 L241 716 Z " />
<glyph glyph-name="Lcommaaccent" unicode="&#x13b;" horiz-adv-x="789" d="M727 250 L701 250 C674 138 521 36 361 23 L493 644 L588 644 L593 667 L97 667 L92 644 L178 644 L46 23 L-40 23 L-45 0 L674 0 L727 250 Z M181 -288 C271 -287 305 -281 342 -259 C387 -231 424 -171 424 -127 C424 -80 381 -48 318 -48 C244 -48 180 -90 180 -139 C180 -177 225 -209 278 -209 C316 -209 348 -199 376 -179 C346 -244 302 -264 186 -264 L181 -288 Z " />
<glyph glyph-name="lcommaaccent" unicode="&#x13c;" horiz-adv-x="388" d="M310 0 L315 20 L241 20 L382 680 C359 673 318 668 277 667 L79 667 L74 647 L148 647 L15 20 L-59 20 L-63 0 L310 0 Z M-19 -276 C63 -275 98 -268 133 -248 C175 -222 211 -165 211 -123 C211 -78 170 -48 110 -48 C40 -48 -21 -88 -21 -135 C-21 -170 22 -200 72 -200 C108 -200 139 -191 165 -172 C138 -232 95 -251 -14 -251 L-19 -276 Z " />
<glyph glyph-name="Lcaron" unicode="&#x13d;" horiz-adv-x="789" d="M727 250 L701 250 C674 138 521 36 361 23 L493 644 L588 644 L593 667 L97 667 L92 644 L178 644 L46 23 L-40 23 L-45 0 L674 0 L727 250 Z M587 426 C678 428 711 434 748 456 C793 484 830 543 830 588 C830 635 787 667 724 667 C650 667 586 625 586 576 C586 538 631 506 684 506 C722 506 754 516 782 536 C752 471 708 452 593 451 L587 426 Z " />
<glyph glyph-name="lcaron" unicode="&#x13e;" horiz-adv-x="577" d="M310 0 L315 20 L241 20 L382 680 C359 673 318 668 277 667 L79 667 L74 647 L148 647 L15 20 L-59 20 L-63 0 L310 0 Z M400 453 C483 454 518 460 552 481 C595 507 630 563 630 606 C630 650 589 680 530 680 C460 680 399 640 399 594 C399 558 442 528 491 528 C527 528 558 537 585 556 C557 496 514 477 405 477 L400 453 Z " />
<glyph glyph-name="Ldot" unicode="&#x13f;" horiz-adv-x="789" d="M727 250 L701 250 C674 138 521 36 361 23 L493 644 L588 644 L593 667 L97 667 L92 644 L178 644 L46 23 L-40 23 L-45 0 L674 0 L727 250 Z M586 415 C525 415 471 370 471 320 C471 280 504 254 556 254 C618 254 668 298 668 352 C668 390 636 415 586 415 L586 415 Z " />
<glyph glyph-name="ldot" unicode="&#x140;" horiz-adv-x="524" d="M310 0 L315 20 L241 20 L382 680 C359 673 318 668 277 667 L79 667 L74 647 L148 647 L15 20 L-59 20 L-63 0 L310 0 Z M465 415 C404 415 350 370 350 320 C350 280 383 254 435 254 C497 254 547 298 547 352 C547 390 515 415 465 415 L465 415 Z " />
<glyph glyph-name="Lslash" unicode="&#x141;" horiz-adv-x="789" d="M-1 209 L94 251 L46 23 L-40 23 L-45 0 L674 0 L727 250 L701 250 C674 138 521 36 361 23 L443 409 L593 477 L598 502 L448 435 L493 644 L588 644 L593 667 L97 667 L92 644 L178 644 L100 277 L5 235 L-1 209 Z " />
<glyph glyph-name="lslash" unicode="&#x142;" horiz-adv-x="388" d="M-24 185 L63 247 L15 20 L-59 20 L-63 0 L310 0 L315 20 L241 20 L327 424 L414 487 L419 513 L333 450 L382 680 C359 673 318 668 277 667 L79 667 L74 647 L148 647 L68 274 L-18 211 L-24 185 Z " />
<glyph glyph-name="Nacute" unicode="&#x143;" horiz-adv-x="903" d="M702 0 L799 457 C824 573 884 645 955 644 L960 667 L666 667 L661 644 L686 644 C750 644 780 610 780 537 C780 505 777 478 771 449 L738 295 L510 667 L86 667 L81 644 L149 644 L184 582 L101 192 C76 87 17 22 -51 23 L-56 0 L227 0 L232 23 C160 24 126 62 126 142 C126 167 129 195 136 228 L204 545 L525 0 L702 0 Z M494 716 L521 716 L731 829 L736 856 L561 856 L494 716 Z " />
<glyph glyph-name="nacute" unicode="&#x144;" horiz-adv-x="732" d="M654 0 L659 20 L585 20 L642 287 C645 302 647 317 647 330 C647 384 593 420 512 420 C447 420 382 400 313 359 L328 426 C281 417 260 414 224 413 L25 413 L21 393 L94 393 L15 20 L-59 20 L-63 0 L298 0 L302 20 L241 20 L308 334 C345 355 367 363 389 363 C410 363 423 351 423 332 C423 327 422 319 421 311 L359 20 L321 20 L317 0 L654 0 Z M360 483 L393 483 L586 596 L592 623 L425 623 L360 483 Z " />
<glyph glyph-name="Ncommaaccent" unicode="&#x145;" horiz-adv-x="903" d="M702 0 L799 457 C824 573 884 645 955 644 L960 667 L666 667 L661 644 L686 644 C750 644 780 610 780 537 C780 505 777 478 771 449 L738 295 L510 667 L86 667 L81 644 L149 644 L184 582 L101 192 C76 87 17 22 -51 23 L-56 0 L227 0 L232 23 C160 24 126 62 126 142 C126 167 129 195 136 228 L204 545 L525 0 L702 0 Z M239 -288 C329 -287 363 -281 400 -259 C445 -231 482 -171 482 -127 C482 -80 439 -48 376 -48 C302 -48 238 -90 238 -139 C238 -177 283 -209 336 -209 C374 -209 406 -199 434 -179 C404 -244 359 -264 244 -264 L239 -288 Z " />
<glyph glyph-name="ncommaaccent" unicode="&#x146;" horiz-adv-x="732" d="M654 0 L659 20 L585 20 L642 287 C645 302 647 317 647 330 C647 384 593 420 512 420 C447 420 382 400 313 359 L328 426 C281 417 260 414 224 413 L25 413 L21 393 L94 393 L15 20 L-59 20 L-63 0 L298 0 L302 20 L241 20 L308 334 C345 355 367 363 389 363 C410 363 423 351 423 332 C423 327 422 319 421 311 L359 20 L321 20 L317 0 L654 0 Z M155 -276 C238 -275 272 -268 307 -248 C349 -222 385 -165 385 -123 C385 -78 345 -48 285 -48 C214 -48 154 -88 154 -135 C154 -170 197 -200 246 -200 C282 -200 313 -191 339 -172 C312 -232 269 -251 160 -251 L155 -276 Z " />
<glyph glyph-name="Ncaron" unicode="&#x147;" horiz-adv-x="903" d="M702 0 L799 457 C824 573 884 645 955 644 L960 667 L666 667 L661 644 L686 644 C750 644 780 610 780 537 C780 505 777 478 771 449 L738 295 L510 667 L86 667 L81 644 L149 644 L184 582 L101 192 C76 87 17 22 -51 23 L-56 0 L227 0 L232 23 C160 24 126 62 126 142 C126 167 129 195 136 228 L204 545 L525 0 L702 0 Z M374 849 C434 825 476 784 485 738 L600 738 C629 784 687 825 758 849 L755 879 C694 875 628 857 561 827 C508 856 448 875 390 879 L374 849 Z " />
<glyph glyph-name="ncaron" unicode="&#x148;" horiz-adv-x="732" d="M654 0 L659 20 L585 20 L642 287 C645 302 647 317 647 330 C647 384 593 420 512 420 C447 420 382 400 313 359 L328 426 C281 417 260 414 224 413 L25 413 L21 393 L94 393 L15 20 L-59 20 L-63 0 L298 0 L302 20 L241 20 L308 334 C345 355 367 363 389 363 C410 363 423 351 423 332 C423 327 422 319 421 311 L359 20 L321 20 L317 0 L654 0 Z M237 606 C295 582 333 541 342 495 L451 495 C479 541 536 582 603 606 L601 636 C543 632 480 614 415 584 C364 614 309 632 253 636 L237 606 Z " />
<glyph glyph-name="Omacron" unicode="&#x14c;" horiz-adv-x="885" d="M518 687 C230 687 24 504 24 248 C24 167 54 104 118 53 C179 4 262 -20 369 -20 C523 -20 631 20 727 113 C815 199 862 304 862 416 C862 589 738 687 518 687 L518 687 Z M441 601 C450 644 474 666 512 666 C546 666 561 653 561 623 C561 615 560 608 559 601 L446 68 C436 21 414 1 373 1 C341 1 324 14 324 40 C324 46 325 58 328 68 L441 601 Z M718 828 L378 828 L363 756 L703 756 L718 828 Z " />
<glyph glyph-name="omacron" unicode="&#x14d;" horiz-adv-x="673" d="M354 420 C256 420 153 391 91 345 C27 298 -12 226 -12 155 C-12 55 98 -13 258 -13 C376 -13 489 20 548 72 C598 115 627 177 627 239 C627 294 603 340 561 367 C508 402 437 420 354 420 L354 420 Z M356 70 C346 25 320 8 263 8 C224 8 202 21 202 44 C202 51 203 60 205 70 L261 335 C272 384 296 402 353 402 C394 402 417 389 417 367 C417 362 415 350 413 338 L356 70 Z M554 602 L229 602 L213 530 L539 530 L554 602 Z " />
<glyph glyph-name="Ohungarumlaut" unicode="&#x150;" horiz-adv-x="885" d="M518 687 C230 687 24 504 24 248 C24 167 54 104 118 53 C179 4 262 -20 369 -20 C523 -20 631 20 727 113 C815 199 862 304 862 416 C862 589 738 687 518 687 L518 687 Z M441 601 C450 644 474 666 512 666 C546 666 561 653 561 623 C561 615 560 608 559 601 L446 68 C436 21 414 1 373 1 C341 1 324 14 324 40 C324 46 325 58 328 68 L441 601 Z M399 717 L422 718 L619 836 L624 859 L458 859 L399 717 Z M604 717 L627 718 L824 836 L829 859 L663 859 L604 717 Z " />
<glyph glyph-name="ohungarumlaut" unicode="&#x151;" horiz-adv-x="673" d="M354 420 C256 420 153 391 91 345 C27 298 -12 226 -12 155 C-12 55 98 -13 258 -13 C376 -13 489 20 548 72 C598 115 627 177 627 239 C627 294 603 340 561 367 C508 402 437 420 354 420 L354 420 Z M356 70 C346 25 320 8 263 8 C224 8 202 21 202 44 C202 51 203 60 205 70 L261 335 C272 384 296 402 353 402 C394 402 417 389 417 367 C417 362 415 350 413 338 L356 70 Z M258 483 L280 484 L469 602 L474 625 L315 625 L258 483 Z M459 483 L482 484 L679 602 L684 625 L517 625 L459 483 Z " />
<glyph glyph-name="OE" unicode="&#x152;" horiz-adv-x="1189" d="M1053 0 L1105 245 L1080 245 C1032 113 903 31 732 24 L797 331 C844 331 867 324 889 305 C910 287 922 260 922 232 C922 216 921 203 916 179 L939 179 L1010 509 L986 509 C969 410 899 351 802 354 L863 642 C950 642 983 636 1024 612 C1074 582 1103 536 1103 484 C1103 477 1103 470 1101 455 L1125 455 L1170 667 L656 667 C603 682 569 687 517 687 C387 687 273 651 187 583 C87 503 26 384 26 268 C26 88 152 -20 362 -20 C416 -20 461 -14 523 0 L1053 0 Z M434 590 C446 645 467 666 508 666 C537 666 556 651 556 628 C556 616 555 605 552 590 L443 77 C431 22 410 1 368 1 C340 1 321 16 321 39 C321 52 322 63 325 77 L434 590 Z " />
<glyph glyph-name="oe" unicode="&#x153;" horiz-adv-x="947" d="M855 129 C787 68 679 19 610 19 C577 19 556 39 556 70 C556 78 557 87 563 112 L583 207 L898 207 C897 341 815 420 676 420 C624 420 573 410 510 388 C456 411 407 420 346 420 C149 420 -10 307 -10 167 C-10 114 16 69 65 38 C117 6 186 -13 255 -13 C310 -13 369 -2 431 19 C475 -4 514 -14 563 -14 C674 -14 785 32 868 112 L855 129 Z M713 228 L587 228 L611 339 C619 377 646 397 688 397 C721 397 739 383 739 358 C739 353 738 345 737 339 L713 228 Z M332 67 C322 23 300 4 257 4 C221 4 203 17 203 41 C203 49 204 57 206 66 L264 339 C273 381 299 401 345 401 C376 401 392 388 392 363 C392 354 391 346 390 338 L332 67 Z " />
<glyph glyph-name="Racute" unicode="&#x154;" horiz-adv-x="950" d="M847 118 C835 90 825 78 814 78 C805 78 799 84 799 92 C799 104 802 115 818 177 C828 213 831 233 831 252 C831 276 823 296 808 312 C794 327 783 333 736 351 C782 367 807 380 834 403 C876 440 900 493 900 548 C900 585 888 614 864 634 C835 657 786 667 700 667 L97 667 L92 644 L178 644 L46 23 L-40 23 L-45 0 L430 0 L434 23 L361 23 L428 339 C442 340 450 340 457 340 C492 340 503 339 513 335 C526 328 534 317 534 303 C534 295 533 285 531 275 C510 172 504 133 504 111 C504 65 528 24 565 7 C593 -6 637 -14 685 -14 C747 -14 792 2 824 34 C841 52 853 71 870 112 L847 118 Z M493 644 L530 644 C583 644 598 635 598 604 C598 595 597 584 595 575 L565 434 C549 373 526 361 433 363 L493 644 Z M472 716 L498 716 L708 829 L714 856 L539 856 L472 716 Z " />
<glyph glyph-name="racute" unicode="&#x155;" horiz-adv-x="573" d="M333 0 L337 20 L241 20 L292 258 C306 288 339 320 370 335 C363 321 361 312 361 298 C361 260 393 234 439 234 C507 234 567 288 567 348 C567 391 538 416 488 416 C430 416 373 384 304 313 L328 426 C285 416 253 413 200 413 L25 413 L21 393 L94 393 L15 20 L-59 20 L-63 0 L333 0 Z M284 483 L318 483 L511 596 L517 623 L350 623 L284 483 Z " />
<glyph glyph-name="Rcommaaccent" unicode="&#x156;" horiz-adv-x="950" d="M847 118 C835 90 825 78 814 78 C805 78 799 84 799 92 C799 104 802 115 818 177 C828 213 831 233 831 252 C831 276 823 296 808 312 C794 327 783 333 736 351 C782 367 807 380 834 403 C876 440 900 493 900 548 C900 585 888 614 864 634 C835 657 786 667 700 667 L97 667 L92 644 L178 644 L46 23 L-40 23 L-45 0 L430 0 L434 23 L361 23 L428 339 C442 340 450 340 457 340 C492 340 503 339 513 335 C526 328 534 317 534 303 C534 295 533 285 531 275 C510 172 504 133 504 111 C504 65 528 24 565 7 C593 -6 637 -14 685 -14 C747 -14 792 2 824 34 C841 52 853 71 870 112 L847 118 Z M493 644 L530 644 C583 644 598 635 598 604 C598 595 597 584 595 575 L565 434 C549 373 526 361 433 363 L493 644 Z M261 -288 C351 -287 385 -281 421 -259 C467 -231 504 -172 504 -127 C504 -80 461 -48 398 -48 C324 -48 260 -90 260 -139 C260 -177 305 -209 358 -209 C395 -209 427 -199 455 -179 C426 -244 381 -264 266 -264 L261 -288 Z " />
<glyph glyph-name="rcommaaccent" unicode="&#x157;" horiz-adv-x="573" d="M333 0 L337 20 L241 20 L292 258 C306 288 339 320 370 335 C363 321 361 312 361 298 C361 260 393 234 439 234 C507 234 567 288 567 348 C567 391 538 416 488 416 C430 416 373 384 304 313 L328 426 C285 416 253 413 200 413 L25 413 L21 393 L94 393 L15 20 L-59 20 L-63 0 L333 0 Z M-15 -276 C68 -275 103 -268 137 -248 C179 -222 215 -165 215 -123 C215 -78 175 -48 115 -48 C44 -48 -16 -88 -16 -135 C-16 -170 27 -200 76 -200 C112 -200 143 -191 169 -172 C142 -232 99 -251 -10 -251 L-15 -276 Z " />
<glyph glyph-name="Rcaron" unicode="&#x158;" horiz-adv-x="950" d="M847 118 C835 90 825 78 814 78 C805 78 799 84 799 92 C799 104 802 115 818 177 C828 213 831 233 831 252 C831 276 823 296 808 312 C794 327 783 333 736 351 C782 367 807 380 834 403 C876 440 900 493 900 548 C900 585 888 614 864 634 C835 657 786 667 700 667 L97 667 L92 644 L178 644 L46 23 L-40 23 L-45 0 L430 0 L434 23 L361 23 L428 339 C442 340 450 340 457 340 C492 340 503 339 513 335 C526 328 534 317 534 303 C534 295 533 285 531 275 C510 172 504 133 504 111 C504 65 528 24 565 7 C593 -6 637 -14 685 -14 C747 -14 792 2 824 34 C841 52 853 71 870 112 L847 118 Z M493 644 L530 644 C583 644 598 635 598 604 C598 595 597 584 595 575 L565 434 C549 373 526 361 433 363 L493 644 Z M360 849 C420 825 462 784 471 738 L586 738 C615 784 673 825 744 849 L741 879 C680 875 614 857 547 827 C494 856 434 875 376 879 L360 849 Z " />
<glyph glyph-name="rcaron" unicode="&#x159;" horiz-adv-x="573" d="M333 0 L337 20 L241 20 L292 258 C306 288 339 320 370 335 C363 321 361 312 361 298 C361 260 393 234 439 234 C507 234 567 288 567 348 C567 391 538 416 488 416 C430 416 373 384 304 313 L328 426 C285 416 253 413 200 413 L25 413 L21 393 L94 393 L15 20 L-59 20 L-63 0 L333 0 Z M158 606 C215 582 254 541 262 495 L372 495 C399 541 456 582 524 606 L521 636 C463 632 400 614 336 584 C285 614 229 632 173 636 L158 606 Z " />
<glyph glyph-name="Sacute" unicode="&#x15a;" horiz-adv-x="697" d="M665 456 L714 687 L601 631 C539 673 491 687 418 687 C330 687 241 655 179 602 C120 550 83 478 83 414 C83 340 139 275 254 217 C351 168 354 167 375 150 C396 133 405 119 405 102 C405 48 343 9 258 9 C210 9 161 25 125 51 C67 94 40 139 40 193 C40 213 42 230 48 254 L20 254 L-38 -17 L73 43 C135 -5 181 -21 252 -21 C342 -21 447 9 516 53 C588 100 634 183 634 264 C634 345 590 388 416 480 C346 517 338 521 321 534 C308 545 300 559 300 573 C300 623 350 661 416 661 C482 661 542 640 590 601 C627 570 642 539 642 492 C642 480 641 472 638 456 L665 456 Z M393 716 L420 716 L630 829 L636 856 L461 856 L393 716 Z " />
<glyph glyph-name="sacute" unicode="&#x15b;" horiz-adv-x="557" d="M477 247 L515 423 L421 378 C368 407 323 420 270 420 L265 420 C138 420 24 338 24 247 C24 218 38 193 67 169 C107 137 146 119 245 88 C277 78 287 71 287 56 C287 29 264 14 223 14 C109 14 23 69 23 142 C23 148 24 154 25 167 L1 167 L-38 -17 L45 33 C90 3 158 -14 230 -14 C375 -14 479 57 479 156 C479 214 453 236 300 304 C217 346 217 346 217 361 C217 381 237 394 271 394 C314 394 368 379 402 358 C433 337 455 300 455 266 C455 264 455 259 454 247 L477 247 Z M288 483 L322 483 L515 596 L520 623 L354 623 L288 483 Z " />
<glyph glyph-name="Scircumflex" unicode="&#x15c;" horiz-adv-x="697" d="M665 456 L714 687 L601 631 C539 673 491 687 418 687 C330 687 241 655 179 602 C120 550 83 478 83 414 C83 340 139 275 254 217 C351 168 354 167 375 150 C396 133 405 119 405 102 C405 48 343 9 258 9 C210 9 161 25 125 51 C67 94 40 139 40 193 C40 213 42 230 48 254 L20 254 L-38 -17 L73 43 C135 -5 181 -21 252 -21 C342 -21 447 9 516 53 C588 100 634 183 634 264 C634 345 590 388 416 480 C346 517 338 521 321 534 C308 545 300 559 300 573 C300 623 350 661 416 661 C482 661 542 640 590 601 C627 570 642 539 642 492 C642 480 641 472 638 456 L665 456 Z M642 758 C582 782 540 823 531 869 L416 869 C387 823 329 782 258 758 L261 728 C321 732 389 751 455 780 C509 750 567 732 626 728 L642 758 Z " />
<glyph glyph-name="scircumflex" unicode="&#x15d;" horiz-adv-x="557" d="M477 247 L515 423 L421 378 C368 407 323 420 270 420 L265 420 C138 420 24 338 24 247 C24 218 38 193 67 169 C107 137 146 119 245 88 C277 78 287 71 287 56 C287 29 264 14 223 14 C109 14 23 69 23 142 C23 148 24 154 25 167 L1 167 L-38 -17 L45 33 C90 3 158 -14 230 -14 C375 -14 479 57 479 156 C479 214 453 236 300 304 C217 346 217 346 217 361 C217 381 237 394 271 394 C314 394 368 379 402 358 C433 337 455 300 455 266 C455 264 455 259 454 247 L477 247 Z M512 525 C455 549 416 590 408 636 L298 636 C270 590 214 549 146 525 L149 495 C207 499 270 517 334 547 C385 517 441 499 497 495 L512 525 Z " />
<glyph glyph-name="Scedilla" unicode="&#x15e;" horiz-adv-x="697" d="M270 -20 C328 -18 404 -1 457 22 C568 70 634 161 634 264 C634 345 591 388 416 480 C343 518 338 521 321 534 C308 545 300 559 300 573 C300 623 350 661 416 661 C482 661 542 640 590 601 C627 570 642 539 642 492 C642 480 641 472 638 456 L665 456 L714 687 L601 631 C539 673 491 687 418 687 C330 687 241 655 179 602 C120 551 83 478 83 415 C83 340 139 276 254 218 C352 169 354 167 375 151 C396 134 405 119 405 103 C405 49 343 10 258 10 C210 10 161 26 125 52 C67 95 40 140 40 194 C40 213 42 230 48 254 L20 254 L-38 -17 L73 43 C127 0 174 -17 240 -20 L179 -83 L189 -94 C203 -88 210 -86 224 -86 C248 -86 264 -98 264 -117 C264 -150 229 -172 177 -172 C147 -172 127 -169 92 -158 L79 -175 C123 -193 160 -199 223 -199 C285 -199 320 -192 349 -174 C376 -158 391 -135 391 -112 C391 -77 355 -55 297 -55 C273 -55 255 -58 226 -65 L270 -20 Z " />
<glyph glyph-name="scedilla" unicode="&#x15f;" horiz-adv-x="557" d="M217 -13 C224 -14 227 -14 234 -14 C375 -14 479 59 479 156 C479 214 453 235 300 305 C217 346 217 346 217 361 C217 381 237 394 271 394 C314 394 368 379 402 358 C433 337 455 300 455 266 C455 264 455 259 454 247 L477 247 L515 423 L421 378 C368 407 323 420 270 420 L265 420 C138 420 24 338 24 247 C24 218 38 193 67 169 C107 137 146 119 245 88 C277 78 287 71 287 56 C287 29 264 14 223 14 C109 14 23 69 23 142 C23 148 24 154 25 167 L1 167 L-38 -17 L45 33 C74 11 138 -8 191 -12 L123 -83 L133 -94 C146 -88 153 -86 167 -86 C190 -86 205 -98 205 -117 C205 -150 171 -172 121 -172 C92 -172 73 -169 40 -158 L27 -175 C69 -193 104 -199 164 -199 C223 -199 257 -192 285 -174 C310 -158 325 -135 325 -112 C325 -76 291 -55 236 -55 C213 -55 196 -58 168 -65 L217 -13 Z " />
<glyph glyph-name="Scaron" unicode="&#x160;" horiz-adv-x="697" d="M272 849 C333 825 375 783 383 738 L498 738 C528 784 586 825 657 849 L654 879 C593 875 527 857 460 827 C406 857 347 875 288 879 L272 849 Z M665 456 L714 687 L601 631 C539 673 491 687 418 687 C330 687 241 655 179 602 C120 550 83 478 83 414 C83 340 139 275 254 217 C351 168 354 167 375 150 C396 133 405 119 405 102 C405 48 343 9 258 9 C210 9 161 25 125 51 C67 94 40 139 40 193 C40 213 42 230 48 254 L20 254 L-38 -17 L73 43 C135 -5 181 -21 252 -21 C342 -21 447 9 516 53 C588 100 634 183 634 264 C634 345 590 388 416 480 C346 517 338 521 321 534 C308 545 300 559 300 573 C300 623 350 661 416 661 C482 661 542 640 590 601 C627 570 642 539 642 492 C642 480 641 472 638 456 L665 456 Z " />
<glyph glyph-name="scaron" unicode="&#x161;" horiz-adv-x="557" d="M166 606 C223 582 262 541 270 495 L380 495 C408 541 464 582 532 606 L529 636 C471 632 408 614 344 584 C293 614 237 632 181 636 L166 606 Z M477 247 L515 423 L421 378 C368 407 323 420 270 420 L265 420 C138 420 24 338 24 247 C24 218 38 193 67 169 C107 137 146 119 245 88 C277 78 287 71 287 56 C287 29 264 14 223 14 C109 14 23 69 23 142 C23 148 24 154 25 167 L1 167 L-38 -17 L45 33 C90 3 158 -14 230 -14 C375 -14 479 57 479 156 C479 214 453 236 300 304 C217 346 217 346 217 361 C217 381 237 394 271 394 C314 394 368 379 402 358 C433 337 455 300 455 266 C455 264 455 259 454 247 L477 247 Z " />
<glyph glyph-name="Tcommaaccent" unicode="&#x162;" horiz-adv-x="813" d="M592 0 L597 23 L499 23 L631 644 C724 612 786 536 789 450 L789 444 L789 435 L815 435 L864 667 L90 667 L41 435 L66 435 C112 535 192 602 316 644 L184 23 L86 23 L81 0 L592 0 Z M198 -288 C288 -287 322 -281 358 -259 C404 -231 441 -172 441 -126 C441 -80 398 -48 335 -48 C261 -48 197 -90 197 -139 C197 -177 242 -209 295 -209 C332 -209 364 -199 392 -179 C363 -244 318 -264 203 -264 L198 -288 Z " />
<glyph glyph-name="tcommaaccent" unicode="&#x163;" horiz-adv-x="437" d="M361 152 C320 90 297 70 265 70 C247 70 239 75 239 87 C239 94 240 103 245 122 L302 393 L397 393 L402 413 L306 413 L350 616 L326 616 C280 521 125 417 24 413 L20 393 L75 393 L14 104 C11 92 10 80 10 70 C10 22 60 -7 142 -7 C212 -7 266 11 308 47 C332 68 351 93 382 146 L361 152 Z M-6 -276 C77 -275 112 -268 146 -248 C188 -222 224 -165 224 -123 C224 -78 184 -48 124 -48 C54 -48 -7 -88 -7 -134 C-7 -170 35 -200 85 -200 C121 -200 152 -191 178 -172 C151 -232 108 -251 -1 -251 L-6 -276 Z " />
<glyph glyph-name="Tcaron" unicode="&#x164;" horiz-adv-x="813" d="M592 0 L597 23 L499 23 L631 644 C724 612 786 536 789 450 L789 444 L789 435 L815 435 L864 667 L90 667 L41 435 L66 435 C112 535 192 602 316 644 L184 23 L86 23 L81 0 L592 0 Z M324 849 C384 825 426 784 435 738 L550 738 C579 784 637 825 708 849 L705 879 C644 875 578 857 511 827 C457 857 399 875 340 879 L324 849 Z " />
<glyph glyph-name="tcaron" unicode="&#x165;" horiz-adv-x="565" d="M361 152 C320 90 297 70 265 70 C247 70 239 75 239 87 C239 93 240 101 245 122 L302 393 L398 393 L402 413 L307 413 L350 616 L327 616 C281 521 126 417 24 413 L20 393 L76 393 L14 104 C12 91 10 79 10 70 C10 22 60 -7 142 -7 C212 -7 266 11 308 47 C332 68 351 93 382 146 L361 152 Z M393 494 C476 495 511 502 546 523 C589 549 624 605 624 648 C624 692 583 722 523 722 C453 722 392 682 392 635 C392 600 435 570 485 570 C521 570 552 579 578 598 C550 538 508 519 398 519 L393 494 Z " />
<glyph glyph-name="utilde" unicode="&#x169;" horiz-adv-x="735" d="M357 0 L657 0 L661 20 L587 20 L674 426 C643 418 600 413 560 413 L359 413 L355 393 L440 393 L374 80 C344 62 315 52 295 52 C275 52 263 62 263 79 C263 85 264 93 267 108 L335 426 C299 418 256 413 219 413 L24 413 L20 393 L101 393 L39 102 C37 90 36 81 36 68 C36 17 83 -14 162 -14 C230 -14 293 7 368 53 L357 0 Z M604 617 C584 600 572 595 556 595 C541 595 527 599 491 612 C453 627 432 632 408 632 C362 632 336 617 244 538 L259 523 C279 539 288 543 300 543 C312 543 318 541 350 526 C380 512 407 505 435 505 C470 505 511 519 545 542 C563 553 571 561 617 606 L604 617 Z " />
<glyph glyph-name="Umacron" unicode="&#x16a;" horiz-adv-x="847" d="M903 667 L624 667 L619 644 C657 643 671 640 688 628 C712 610 724 578 724 530 C724 500 722 485 712 437 L657 180 C647 130 624 94 587 68 C543 37 485 18 436 18 C391 18 369 34 369 65 C369 75 371 86 376 110 L489 644 L567 644 L572 667 L93 667 L88 644 L174 644 L75 176 C70 156 68 138 68 125 C68 73 111 32 193 7 C245 -9 318 -20 376 -20 C538 -20 657 54 682 170 L745 467 C769 575 828 644 898 644 L903 667 Z M724 828 L383 828 L368 756 L708 756 L724 828 Z " />
<glyph glyph-name="umacron" unicode="&#x16b;" horiz-adv-x="735" d="M357 0 L657 0 L661 20 L587 20 L674 426 C643 418 600 413 560 413 L359 413 L355 393 L440 393 L374 80 C344 62 315 52 295 52 C275 52 263 62 263 79 C263 85 264 93 267 108 L335 426 C299 418 256 413 219 413 L24 413 L20 393 L101 393 L39 102 C37 90 36 81 36 68 C36 17 83 -14 162 -14 C230 -14 293 7 368 53 L357 0 Z M595 602 L270 602 L255 530 L580 530 L595 602 Z " />
<glyph glyph-name="ubreve" unicode="&#x16d;" horiz-adv-x="735" d="M357 0 L657 0 L661 20 L587 20 L674 426 C643 418 600 413 560 413 L359 413 L355 393 L440 393 L374 80 C344 62 315 52 295 52 C275 52 263 62 263 79 C263 85 264 93 267 108 L335 426 C299 418 256 413 219 413 L24 413 L20 393 L101 393 L39 102 C37 90 36 81 36 68 C36 17 83 -14 162 -14 C230 -14 293 7 368 53 L357 0 Z M573 638 C565 622 560 615 549 609 C527 597 483 590 430 590 C381 590 342 596 324 607 C312 614 309 621 309 638 L287 638 C285 618 284 609 284 597 C284 531 321 502 409 502 C519 502 563 535 594 638 L573 638 Z " />
<glyph glyph-name="Uring" unicode="&#x16e;" horiz-adv-x="847" d="M903 667 L624 667 L619 644 C657 643 671 640 688 628 C712 610 724 578 724 530 C724 500 722 485 712 437 L657 180 C647 130 624 94 587 68 C543 37 485 18 436 18 C391 18 369 34 369 65 C369 75 371 86 376 110 L489 644 L567 644 L572 667 L93 667 L88 644 L174 644 L75 176 C70 156 68 138 68 125 C68 73 111 32 193 7 C245 -9 318 -20 376 -20 C538 -20 657 54 682 170 L745 467 C769 575 828 644 898 644 L903 667 Z M574 906 C487 906 416 856 416 796 C416 748 460 718 532 718 C624 718 692 764 692 826 C692 874 645 906 574 906 L574 906 Z M568 877 C623 877 662 854 662 820 C662 778 611 747 538 747 C481 747 446 768 446 802 C446 843 501 877 568 877 L568 877 Z " />
<glyph glyph-name="uring" unicode="&#x16f;" horiz-adv-x="735" d="M357 0 L657 0 L661 20 L587 20 L674 426 C643 418 600 413 560 413 L359 413 L355 393 L440 393 L374 80 C344 62 315 52 295 52 C275 52 263 62 263 79 C263 85 264 93 267 108 L335 426 C299 418 256 413 219 413 L24 413 L20 393 L101 393 L39 102 C37 90 36 81 36 68 C36 17 83 -14 162 -14 C230 -14 293 7 368 53 L357 0 Z M456 672 C382 672 315 622 315 566 C315 523 358 490 414 490 C488 490 554 540 554 596 C554 639 511 672 456 672 L456 672 Z M449 645 C490 645 523 621 523 591 C523 552 474 517 420 517 C378 517 345 541 345 571 C345 610 394 645 449 645 L449 645 Z " />
<glyph glyph-name="Uhungarumlaut" unicode="&#x170;" horiz-adv-x="847" d="M903 667 L624 667 L619 644 C657 643 671 640 688 628 C712 610 724 578 724 530 C724 500 722 485 712 437 L657 180 C647 130 624 94 587 68 C543 37 485 18 436 18 C391 18 369 34 369 65 C369 75 371 86 376 110 L489 644 L567 644 L572 667 L93 667 L88 644 L174 644 L75 176 C70 156 68 138 68 125 C68 73 111 32 193 7 C245 -9 318 -20 376 -20 C538 -20 657 54 682 170 L745 467 C769 575 828 644 898 644 L903 667 Z M398 717 L421 718 L618 836 L623 859 L456 859 L398 717 Z M603 717 L626 718 L823 836 L828 859 L662 859 L603 717 Z " />
<glyph glyph-name="uhungarumlaut" unicode="&#x171;" horiz-adv-x="735" d="M357 0 L657 0 L661 20 L587 20 L674 426 C643 418 600 413 560 413 L359 413 L355 393 L440 393 L374 80 C344 62 315 52 295 52 C275 52 263 62 263 79 C263 85 264 93 267 108 L335 426 C299 418 256 413 219 413 L24 413 L20 393 L101 393 L39 102 C37 90 36 81 36 68 C36 17 83 -14 162 -14 C230 -14 293 7 368 53 L357 0 Z M279 483 L301 484 L489 602 L494 625 L336 625 L279 483 Z M479 483 L502 484 L699 602 L704 625 L538 625 L479 483 Z " />
<glyph glyph-name="Uogonek" unicode="&#x172;" horiz-adv-x="847" d="M537 -146 C462 -145 426 -130 426 -98 L426 -96 C426 -76 447 -47 475 -28 C492 -17 509 -8 559 19 C624 51 668 106 682 170 L745 467 C769 575 828 644 898 644 L903 667 L624 667 L619 644 C657 643 671 640 688 628 C712 610 724 578 724 530 C724 500 722 485 712 437 L657 180 C647 130 624 94 587 68 C543 37 485 18 436 18 C391 18 369 34 369 65 C369 75 371 86 376 110 L489 644 L567 644 L572 667 L93 667 L88 644 L174 644 L75 176 C70 156 68 138 68 125 C68 73 111 32 193 7 C245 -9 319 -20 378 -20 C393 -20 405 -20 421 -18 C354 -47 319 -81 319 -116 C319 -154 365 -180 431 -180 C464 -180 483 -177 533 -163 L537 -146 Z " />
<glyph glyph-name="uogonek" unicode="&#x173;" horiz-adv-x="735" d="M657 0 L661 20 L587 20 L674 426 C643 418 600 413 560 413 L359 413 L355 393 L440 393 L374 80 C344 62 315 52 295 52 C275 52 263 62 263 79 C263 85 264 93 267 108 L335 426 C299 418 256 413 219 413 L24 413 L20 393 L101 393 L39 102 C37 90 36 81 36 68 C36 17 83 -14 162 -14 C230 -14 293 7 368 53 L357 0 L571 0 C441 -25 388 -61 388 -121 C388 -159 429 -180 504 -180 C529 -180 550 -178 594 -171 L599 -150 C526 -145 496 -131 496 -101 C496 -63 529 -29 596 0 L657 0 Z " />
<glyph glyph-name="Wcircumflex" unicode="&#x174;" horiz-adv-x="1289" d="M1360 667 L1110 667 L1105 644 C1135 642 1144 640 1154 636 C1172 627 1183 607 1183 581 C1183 549 1169 510 1144 472 L980 230 L915 644 L976 644 L981 667 L535 667 L530 644 L583 644 L629 348 L532 214 L455 644 L508 644 L513 667 L71 667 L66 644 L123 644 L236 0 L409 0 L636 312 L684 0 L853 0 L1174 469 C1241 565 1297 619 1355 644 L1360 667 Z M944 758 C883 782 842 823 833 869 L718 869 C689 823 630 782 560 758 L563 728 C623 732 690 750 756 780 C811 750 869 732 928 728 L944 758 Z " />
<glyph glyph-name="Ycircumflex" unicode="&#x176;" horiz-adv-x="840" d="M911 667 L662 667 L657 644 C690 642 701 640 712 634 C727 626 737 607 737 586 C737 561 720 527 689 489 L581 358 L471 644 L550 644 L555 667 L71 667 L66 644 L112 644 L260 260 L210 23 L119 23 L114 0 L618 0 L623 23 L525 23 L590 328 L732 500 C798 580 853 625 906 644 L911 667 Z M724 758 C663 782 622 823 613 869 L498 869 C469 823 410 782 340 758 L343 728 C403 732 470 750 536 780 C591 750 649 732 708 728 L724 758 Z " />
<glyph glyph-name="ycircumflex" unicode="&#x177;" horiz-adv-x="567" d="M588 413 L400 413 L396 393 C440 388 455 378 455 351 C455 335 445 314 426 290 L390 244 L329 393 L376 393 L381 413 L17 413 L13 393 L42 393 L204 4 L111 -115 C111 -66 77 -34 23 -34 C-45 -34 -105 -89 -105 -152 C-105 -199 -71 -228 -16 -228 C33 -228 78 -199 126 -137 L469 308 C512 365 540 386 584 393 L588 413 Z M524 525 C467 549 428 590 420 636 L310 636 C282 590 226 549 158 525 L161 495 C219 499 282 517 346 547 C397 517 453 499 509 495 L524 525 Z " />
<glyph glyph-name="Ydieresis" unicode="&#x178;" horiz-adv-x="840" d="M701 886 C637 886 584 842 584 789 C584 749 619 724 672 724 C732 724 781 768 781 822 C781 861 750 886 701 886 L701 886 Z M401 887 C340 887 286 842 286 792 C286 751 319 725 371 725 C434 725 483 769 483 824 C483 862 451 887 401 887 L401 887 Z M911 667 L662 667 L657 644 C690 642 701 640 712 634 C727 626 737 607 737 586 C737 561 720 527 689 489 L581 358 L471 644 L550 644 L555 667 L71 667 L66 644 L112 644 L260 260 L210 23 L119 23 L114 0 L618 0 L623 23 L525 23 L590 328 L732 500 C798 580 853 625 906 644 L911 667 Z " />
<glyph glyph-name="Zacute" unicode="&#x179;" horiz-adv-x="806" d="M739 285 L713 285 C698 227 655 170 585 113 C496 42 439 21 343 23 L833 667 L154 667 L100 415 L126 415 C145 488 185 543 255 589 C317 630 357 641 460 644 L-27 0 L679 0 L739 285 Z M498 716 L524 716 L734 829 L740 856 L565 856 L498 716 Z " />
<glyph glyph-name="zacute" unicode="&#x17a;" horiz-adv-x="578" d="M485 0 L523 178 L497 178 C479 93 371 23 253 20 L573 413 L59 413 L21 233 L47 233 C80 330 169 392 276 392 L-49 0 L485 0 Z M310 483 L343 483 L536 596 L542 623 L375 623 L310 483 Z " />
<glyph glyph-name="Zdotaccent" unicode="&#x17b;" horiz-adv-x="806" d="M739 285 L713 285 C698 227 655 170 585 113 C496 42 439 21 343 23 L833 667 L154 667 L100 415 L126 415 C145 488 185 543 255 589 C317 630 357 641 460 644 L-27 0 L679 0 L739 285 Z M550 887 C489 887 435 842 435 792 C435 751 468 725 520 725 C582 725 631 769 631 824 C631 862 599 887 550 887 L550 887 Z " />
<glyph glyph-name="zdotaccent" unicode="&#x17c;" horiz-adv-x="578" d="M485 0 L523 178 L497 178 C479 93 371 23 253 20 L573 413 L59 413 L21 233 L47 233 C80 330 169 392 276 392 L-49 0 L485 0 Z M375 647 C314 647 260 602 260 552 C260 511 293 485 345 485 C408 485 457 529 457 584 C457 622 425 647 375 647 L375 647 Z " />
<glyph glyph-name="Zcaron" unicode="&#x17d;" horiz-adv-x="806" d="M362 849 C422 825 463 784 472 738 L588 738 C616 784 675 825 746 849 L743 879 C682 875 616 857 549 827 C495 856 436 875 377 879 L362 849 Z M739 285 L713 285 C698 227 655 170 585 113 C496 42 439 21 343 23 L833 667 L154 667 L100 415 L126 415 C145 488 185 543 255 589 C317 630 357 641 460 644 L-27 0 L679 0 L739 285 Z " />
<glyph glyph-name="zcaron" unicode="&#x17e;" horiz-adv-x="578" d="M192 606 C250 582 288 541 297 495 L406 495 C434 541 491 582 558 606 L555 636 C497 632 435 614 370 584 C319 614 263 632 208 636 L192 606 Z M485 0 L523 178 L497 178 C479 93 371 23 253 20 L573 413 L59 413 L21 233 L47 233 C80 330 169 392 276 392 L-49 0 L485 0 Z " />
<glyph glyph-name="florin" unicode="&#x192;" horiz-adv-x="733" d="M243 -227 L496 393 L579 393 L587 413 L545 413 C464 413 411 458 411 528 C411 595 459 653 514 653 C516 653 520 653 524 652 C478 634 456 606 456 568 C456 521 497 484 549 484 C606 484 656 528 656 578 C656 634 603 671 524 671 C414 671 317 603 273 493 L240 413 L175 413 L167 393 L232 393 L-20 -227 L243 -227 Z " />
<glyph glyph-name="uni01CD" unicode="&#x1cd;" horiz-adv-x="860" d="M785 0 L790 23 L750 23 L640 667 L389 667 L91 174 C29 83 -26 28 -62 23 L-67 0 L218 0 L223 23 C146 24 113 51 113 113 C113 144 119 166 139 205 L393 205 L424 23 L341 23 L336 0 L785 0 Z M391 228 L152 228 L337 539 L391 228 Z M360 849 C421 825 462 784 471 738 L586 738 C615 784 673 825 744 849 L741 879 C681 875 615 857 548 827 C494 856 435 875 376 879 L360 849 Z " />
<glyph glyph-name="uni01CE" unicode="&#x1ce;" horiz-adv-x="679" d="M596 88 C568 59 561 53 553 53 C550 53 549 55 549 60 C549 63 550 70 552 78 L592 267 C597 289 599 304 599 312 C599 383 500 420 309 420 C168 420 82 375 82 303 C82 263 109 240 154 240 C212 240 256 282 256 338 C256 365 243 380 210 390 C232 395 249 397 276 397 C342 397 383 378 383 346 C383 341 381 328 378 313 L357 213 C316 226 277 231 228 231 C167 231 122 224 84 209 C21 184 -21 136 -21 89 C-21 29 49 -13 151 -13 C210 -13 256 -1 323 31 C351 -1 379 -13 425 -13 C505 -13 571 19 614 78 L596 88 Z M322 48 C273 33 251 28 228 28 C201 28 186 39 186 57 L187 68 L207 161 C214 192 232 204 275 204 C297 204 316 201 352 192 L322 48 Z M234 606 C292 582 331 541 339 495 L449 495 C476 541 533 582 600 606 L598 636 C540 632 477 614 413 584 C362 614 306 632 250 636 L234 606 Z " />
<glyph glyph-name="uni01D3" unicode="&#x1d3;" horiz-adv-x="847" d="M903 667 L624 667 L619 644 C657 643 671 640 688 628 C712 610 724 578 724 530 C724 500 722 485 712 437 L657 180 C647 130 624 94 587 68 C543 37 485 18 436 18 C391 18 369 34 369 65 C369 75 371 86 376 110 L489 644 L567 644 L572 667 L93 667 L88 644 L174 644 L75 176 C70 156 68 138 68 125 C68 73 111 32 193 7 C245 -9 318 -20 376 -20 C538 -20 657 54 682 170 L745 467 C769 575 828 644 898 644 L903 667 Z M372 849 C433 825 474 784 483 738 L598 738 C627 784 685 825 756 849 L753 879 C693 875 626 857 559 827 C505 857 447 875 388 879 L372 849 Z " />
<glyph glyph-name="uni01D4" unicode="&#x1d4;" horiz-adv-x="735" d="M357 0 L657 0 L661 20 L587 20 L674 426 C643 418 600 413 560 413 L359 413 L355 393 L440 393 L374 80 C344 62 315 52 295 52 C275 52 263 62 263 79 C263 85 264 93 267 108 L335 426 C299 418 256 413 219 413 L24 413 L20 393 L101 393 L39 102 C37 90 36 81 36 68 C36 17 83 -14 162 -14 C230 -14 293 7 368 53 L357 0 Z M257 606 C315 582 353 541 362 495 L471 495 C499 541 555 582 623 606 L620 636 C562 632 500 614 435 584 C384 614 328 632 272 636 L257 606 Z " />
<glyph glyph-name="Gcaron" unicode="&#x1e6;" horiz-adv-x="863" d="M826 277 L830 300 L443 300 L438 277 L519 277 L480 93 C468 38 435 10 384 10 C347 10 329 25 329 56 C329 64 330 75 332 83 L434 562 C449 635 474 657 544 657 C604 657 656 635 699 592 C735 555 756 511 756 469 C756 457 755 448 751 427 L772 427 L828 687 L718 631 C652 674 605 687 520 687 C417 687 319 663 245 621 C116 546 23 393 23 255 C23 88 160 -20 371 -20 C479 -20 566 1 646 46 L708 -32 L773 277 L826 277 Z M359 849 C420 825 461 784 470 738 L585 738 C614 784 672 825 743 849 L740 879 C680 875 614 857 547 827 C493 856 434 875 375 879 L359 849 Z " />
<glyph glyph-name="gcaron" unicode="&#x1e7;" horiz-adv-x="634" d="M279 85 C193 84 193 84 177 84 C117 84 96 90 96 108 C96 119 107 131 127 141 C173 128 217 123 271 123 C352 123 443 142 498 169 C546 193 578 241 578 288 C578 347 531 386 432 410 C448 442 467 463 492 476 C486 465 484 455 484 444 C484 421 501 407 529 407 C566 407 599 439 599 476 C599 502 580 518 550 518 C501 518 445 475 413 413 C382 418 361 420 330 420 C232 420 138 398 88 362 C45 331 20 287 20 243 C20 200 40 177 106 147 C20 106 -27 51 -27 -8 C-27 -25 -23 -38 -12 -56 C-40 -86 -52 -107 -52 -130 C-52 -191 34 -232 161 -232 C376 -232 518 -150 518 -25 C518 48 458 85 336 85 L279 85 Z M350 189 C343 154 318 138 270 138 C233 138 216 150 216 174 C216 178 217 183 218 187 L253 354 C260 385 286 401 333 401 C369 401 388 389 387 366 C387 363 386 359 385 355 L350 189 Z M20 -68 C42 -88 68 -96 112 -96 C126 -96 143 -95 161 -94 C213 -91 221 -91 245 -91 C321 -91 344 -100 344 -131 C344 -179 281 -210 185 -210 C77 -210 2 -171 2 -116 C2 -100 7 -86 20 -68 L20 -68 Z M192 606 C249 582 288 541 296 495 L406 495 C434 541 490 582 557 606 L555 636 C497 632 434 614 370 584 C319 614 263 632 207 636 L192 606 Z " />
<glyph glyph-name="Scommaaccent" unicode="&#x218;" horiz-adv-x="697" d="M665 456 L714 687 L601 631 C539 673 491 687 418 687 C330 687 241 655 179 602 C120 550 83 478 83 414 C83 340 139 275 254 217 C351 168 354 167 375 150 C396 133 405 119 405 102 C405 48 343 9 258 9 C210 9 161 25 125 51 C67 94 40 139 40 193 C40 213 42 230 48 254 L20 254 L-38 -17 L73 43 C135 -5 181 -21 252 -21 C342 -21 447 9 516 53 C588 100 634 183 634 264 C634 345 590 388 416 480 C346 517 338 521 321 534 C308 545 300 559 300 573 C300 623 350 661 416 661 C482 661 542 640 590 601 C627 570 642 539 642 492 C642 480 641 472 638 456 L665 456 Z M124 -288 C214 -287 248 -281 284 -259 C330 -231 367 -171 367 -127 C367 -80 324 -48 261 -48 C187 -48 123 -90 123 -139 C123 -177 168 -209 221 -209 C258 -209 290 -199 318 -179 C289 -244 244 -264 129 -264 L124 -288 Z " />
<glyph glyph-name="scommaaccent" unicode="&#x219;" horiz-adv-x="557" d="M477 247 L515 423 L421 378 C368 407 323 420 270 420 L265 420 C138 420 24 338 24 247 C24 218 38 193 67 169 C107 137 146 119 245 88 C277 78 287 71 287 56 C287 29 264 14 223 14 C109 14 23 69 23 142 C23 148 24 154 25 167 L1 167 L-38 -17 L45 33 C90 3 158 -14 230 -14 C375 -14 479 57 479 156 C479 214 453 236 300 304 C217 346 217 346 217 361 C217 381 237 394 271 394 C314 394 368 379 402 358 C433 337 455 300 455 266 C455 264 455 259 454 247 L477 247 Z M66 -276 C149 -275 184 -268 219 -248 C261 -222 297 -165 297 -123 C297 -78 256 -48 196 -48 C126 -48 65 -88 65 -134 C65 -170 107 -200 158 -200 C193 -200 224 -191 251 -172 C223 -232 180 -251 71 -251 L66 -276 Z " />
<glyph glyph-name="uni021A" unicode="&#x21a;" horiz-adv-x="813" d="M592 0 L597 23 L499 23 L631 644 C724 612 786 536 789 450 L789 444 L789 435 L815 435 L864 667 L90 667 L41 435 L66 435 C112 535 192 602 316 644 L184 23 L86 23 L81 0 L592 0 Z M198 -288 C288 -287 322 -281 358 -259 C404 -231 441 -172 441 -126 C441 -80 398 -48 335 -48 C261 -48 197 -90 197 -139 C197 -177 242 -209 295 -209 C332 -209 364 -199 392 -179 C363 -244 318 -264 203 -264 L198 -288 Z " />
<glyph glyph-name="uni021B" unicode="&#x21b;" horiz-adv-x="437" d="M361 152 C320 90 297 70 265 70 C247 70 239 75 239 87 C239 94 240 103 245 122 L302 393 L397 393 L402 413 L306 413 L350 616 L326 616 C280 521 125 417 24 413 L20 393 L75 393 L14 104 C11 92 10 80 10 70 C10 22 60 -7 142 -7 C212 -7 266 11 308 47 C332 68 351 93 382 146 L361 152 Z M-6 -276 C77 -275 112 -268 146 -248 C188 -222 224 -165 224 -123 C224 -78 184 -48 124 -48 C54 -48 -7 -88 -7 -134 C-7 -170 35 -200 85 -200 C121 -200 152 -191 178 -172 C151 -232 108 -251 -1 -251 L-6 -276 Z " />
<glyph glyph-name="circumflex" unicode="&#x2c6;" horiz-adv-x="513" d="M481 525 C424 549 385 590 376 636 L267 636 C239 590 183 549 115 525 L118 495 C175 499 239 517 303 547 C354 517 409 499 465 495 L481 525 Z " />
<glyph glyph-name="caron" unicode="&#x2c7;" horiz-adv-x="513" d="M132 606 C189 582 228 541 237 495 L346 495 C374 541 430 582 498 606 L495 636 C437 632 374 614 310 584 C259 614 203 632 147 636 L132 606 Z " />
<glyph glyph-name="uni02C9" unicode="&#x2c9;" horiz-adv-x="392" d="M416 602 L90 602 L75 530 L400 530 L416 602 Z " />
<glyph glyph-name="breve" unicode="&#x2d8;" horiz-adv-x="519" d="M457 638 C450 622 444 616 433 609 C411 597 368 590 315 590 C266 590 226 596 208 607 C197 614 193 621 193 638 L172 638 C169 618 168 609 168 597 C168 530 205 502 293 502 C403 502 448 535 478 638 L457 638 Z " />
<glyph glyph-name="dotaccent" unicode="&#x2d9;" horiz-adv-x="531" d="M334 647 C272 647 218 602 218 552 C218 511 251 485 303 485 C366 485 415 529 415 584 C415 622 383 647 334 647 L334 647 Z " />
<glyph glyph-name="ring" unicode="&#x2da;" horiz-adv-x="527" d="M338 672 C263 672 197 622 197 566 C197 523 240 490 296 490 C369 490 436 540 436 596 C436 639 393 672 338 672 L338 672 Z M331 645 C372 645 405 621 405 591 C405 552 356 517 302 517 C260 517 227 541 227 571 C227 610 276 645 331 645 L331 645 Z " />
<glyph glyph-name="ogonek" unicode="&#x2db;" horiz-adv-x="550" d="M292 0 C166 -23 108 -61 108 -121 C108 -159 149 -180 224 -180 C250 -180 270 -178 314 -171 L319 -150 C246 -145 216 -131 216 -102 C216 -63 250 -29 317 1 L292 0 Z " />
<glyph glyph-name="tilde" unicode="&#x2dc;" horiz-adv-x="514" d="M481 617 C461 601 448 595 433 595 C418 595 404 599 368 612 C329 627 309 632 285 632 C239 632 213 617 121 538 L135 523 C156 539 164 543 177 543 C189 543 195 541 227 526 C257 512 283 505 312 505 C347 505 388 519 422 542 C440 553 449 561 494 606 L481 617 Z " />
<glyph glyph-name="hungarumlaut" unicode="&#x2dd;" horiz-adv-x="531" d="M198 483 L220 484 L408 602 L413 625 L255 625 L198 483 Z M398 483 L422 484 L619 602 L623 625 L457 625 L398 483 Z " />
<glyph glyph-name="Wdieresis" unicode="&#x1e84;" horiz-adv-x="1289" d="M1360 667 L1110 667 L1105 644 C1135 642 1144 640 1154 636 C1172 627 1183 607 1183 581 C1183 549 1169 510 1144 472 L980 230 L915 644 L976 644 L981 667 L535 667 L530 644 L583 644 L629 348 L532 214 L455 644 L508 644 L513 667 L71 667 L66 644 L123 644 L236 0 L409 0 L636 312 L684 0 L853 0 L1174 469 C1241 565 1297 619 1355 644 L1360 667 Z M917 886 C853 886 800 842 800 789 C800 749 835 724 888 724 C948 724 997 768 997 822 C997 861 966 886 917 886 L917 886 Z M617 887 C556 887 502 842 502 792 C502 751 535 725 587 725 C649 725 698 769 698 824 C698 862 666 887 617 887 L617 887 Z " />
<glyph glyph-name="uni2011" unicode="&#x2011;" horiz-adv-x="315" d="M276 151 L313 324 L-2 324 L-39 151 L276 151 Z " />
<glyph glyph-name="figuredash" unicode="&#x2012;" horiz-adv-x="733" d="M629 171 L657 304 L63 304 L35 171 L629 171 Z " />
<glyph glyph-name="endash" unicode="&#x2013;" horiz-adv-x="733" d="M629 171 L657 304 L63 304 L35 171 L629 171 Z " />
<glyph glyph-name="emdash" unicode="&#x2014;" horiz-adv-x="924" d="M-35 171 L889 171 L917 304 L-7 304 L-35 171 Z " />
<glyph glyph-name="afii00208" unicode="&#x2015;" horiz-adv-x="924" d="M-35 171 L889 171 L917 304 L-7 304 L-35 171 Z " />
<glyph glyph-name="quoteleft" unicode="&#x2018;" horiz-adv-x="328" d="M321 662 L327 687 C244 686 209 678 169 653 C119 622 84 563 84 508 C84 457 123 426 188 426 C262 426 324 472 324 527 C324 569 284 599 229 599 C196 599 161 588 131 568 C139 595 156 616 183 634 C212 653 251 662 306 662 L321 662 Z " />
<glyph glyph-name="quoteright" unicode="&#x2019;" horiz-adv-x="328" d="M96 425 C178 426 215 434 254 459 C304 491 339 550 339 605 C339 657 300 687 235 687 C161 687 99 641 99 586 C99 544 139 513 193 513 C227 513 262 524 292 544 C275 484 213 450 122 450 C119 450 111 450 102 451 L96 425 Z " />
<glyph glyph-name="quotesinglbase" unicode="&#x201a;" horiz-adv-x="352" d="M-10 -87 C82 -86 120 -78 164 -53 C218 -22 254 36 254 90 C254 143 210 174 137 174 C57 174 -10 129 -10 75 C-10 32 35 1 96 1 C132 1 171 12 203 32 C180 -33 114 -63 -4 -61 L-10 -87 Z " />
<glyph glyph-name="quotedblleft" unicode="&#x201c;" horiz-adv-x="609" d="M321 662 L327 687 C244 686 209 678 169 653 C119 622 84 563 84 508 C84 457 123 426 188 426 C262 426 324 472 324 527 C324 569 284 599 229 599 C196 599 161 588 131 568 C139 595 156 616 183 634 C212 653 251 662 306 662 L321 662 Z M602 662 L608 687 C525 686 490 678 451 653 C401 622 366 562 366 508 C366 457 405 426 470 426 C543 426 605 472 605 527 C605 569 565 600 511 600 C478 600 443 589 412 568 C420 595 437 616 464 634 C494 653 532 662 587 662 L602 662 Z " />
<glyph glyph-name="quotedblright" unicode="&#x201d;" horiz-adv-x="609" d="M96 425 C178 426 215 434 254 459 C304 491 339 550 339 605 C339 657 300 687 235 687 C161 687 99 641 99 586 C99 544 139 513 193 513 C227 513 262 524 292 544 C275 484 213 450 122 450 C119 450 111 450 102 451 L96 425 Z M377 425 C459 426 496 434 535 459 C586 491 620 550 620 605 C620 657 582 687 516 687 C442 687 381 641 381 586 C381 544 421 513 475 513 C509 513 543 524 573 544 C556 484 494 450 403 450 C400 450 392 450 384 451 L377 425 Z " />
<glyph glyph-name="quotedblbase" unicode="&#x201e;" horiz-adv-x="633" d="M-10 -87 C82 -86 120 -78 164 -53 C218 -22 254 36 254 90 C254 143 210 174 137 174 C57 174 -10 129 -10 75 C-10 32 35 1 96 1 C132 1 171 12 203 32 C180 -33 114 -63 -4 -61 L-10 -87 Z M271 -87 C363 -86 402 -78 445 -53 C499 -22 535 36 535 90 C535 143 491 174 419 174 C339 174 272 129 272 75 C272 32 316 1 378 1 C414 1 452 12 484 32 C462 -33 395 -63 278 -61 L271 -87 Z " />
<glyph glyph-name="dagger" unicode="&#x2020;" horiz-adv-x="746" d="M551 573 C561 584 564 589 564 595 C564 603 558 608 549 608 C541 608 527 605 490 595 C477 664 466 687 447 687 C428 687 400 655 367 595 C343 604 327 608 316 608 C305 608 294 598 294 589 C294 585 296 578 298 573 L305 559 C335 505 362 409 364 350 C311 362 215 416 184 450 L175 460 C169 466 162 469 154 469 C139 469 133 458 133 429 C133 422 133 405 134 395 C41 365 23 355 23 336 C23 320 40 310 110 284 C87 239 85 233 85 222 C85 216 92 209 98 209 C105 209 114 213 126 222 L142 233 C191 269 310 322 360 329 C301 152 239 21 147 -117 L136 -133 C126 -150 123 -155 123 -160 C123 -167 130 -173 138 -173 C146 -173 172 -166 197 -157 L208 -154 C222 -226 232 -247 251 -247 C266 -247 287 -223 331 -154 C370 -170 379 -173 390 -173 C403 -173 413 -164 413 -153 L410 -133 L405 -117 C386 -41 375 56 375 155 C375 217 378 270 384 329 C438 317 522 273 564 233 L575 222 C581 215 588 212 595 212 C609 212 618 223 617 240 L617 244 L617 249 C617 256 616 265 615 284 C688 307 726 326 726 342 C726 357 709 367 639 395 C661 441 664 448 664 456 C664 464 658 469 651 469 C642 469 632 465 624 460 L605 445 C564 414 435 357 390 350 C411 402 479 498 538 559 L551 573 Z " />
<glyph glyph-name="daggerdbl" unicode="&#x2021;" horiz-adv-x="746" d="M551 573 C560 583 563 589 563 595 C563 603 557 608 548 608 C539 608 525 605 489 595 C476 663 465 687 447 687 C430 687 407 661 367 595 C335 605 322 608 313 608 C301 608 291 599 291 588 C291 585 293 579 296 573 L303 559 C334 502 362 406 364 349 C300 358 210 391 184 413 L167 425 C155 434 152 435 146 435 C132 435 124 425 124 409 C124 403 125 397 128 374 C44 356 25 349 25 337 C25 332 28 329 35 326 C43 322 94 307 113 303 C98 275 92 262 92 257 C92 250 98 244 105 244 C109 244 109 244 129 254 L147 262 C186 287 273 314 359 328 L322 219 L313 112 C230 127 158 153 129 178 L115 186 C99 196 99 196 96 196 C83 196 75 187 75 172 C75 163 76 154 78 137 C38 129 -9 116 -19 110 C-22 108 -25 103 -25 100 C-25 90 -12 85 63 66 C48 39 40 23 40 18 C40 11 47 5 54 5 C61 5 64 6 80 15 L102 27 C140 50 241 82 309 91 C285 37 215 -61 159 -119 L146 -133 C136 -144 133 -149 133 -155 C133 -163 139 -168 148 -168 C157 -168 170 -165 207 -155 C220 -222 231 -247 249 -247 C267 -247 288 -222 330 -155 C363 -165 375 -168 384 -168 C396 -168 406 -159 406 -148 C406 -144 405 -140 401 -133 L393 -119 C363 -62 335 35 333 91 C396 82 487 50 513 27 L529 15 C542 6 544 5 550 5 C564 5 572 15 572 31 C572 37 572 42 568 66 C658 87 671 91 671 104 C671 113 641 124 583 137 L587 144 C604 176 605 177 605 183 C605 190 599 196 591 196 C588 196 588 196 567 186 L550 178 C511 153 423 126 338 112 L374 219 L384 328 C466 313 538 287 568 262 L582 254 C598 244 598 244 601 244 C613 244 622 254 622 266 L622 269 C621 282 621 286 619 303 C689 317 722 329 722 339 C722 351 707 356 634 374 C641 386 646 397 649 401 C653 409 656 416 656 421 C655 430 650 435 642 435 C636 435 632 433 617 425 L595 413 C557 390 457 359 388 349 C412 403 483 502 537 559 L551 573 Z " />
<glyph glyph-name="bullet" unicode="&#x2022;" horiz-adv-x="733" d="M400 480 C303 480 214 400 214 313 C214 248 267 200 338 200 C433 200 522 281 522 367 C522 432 470 480 400 480 L400 480 Z " />
<glyph glyph-name="ellipsis" unicode="&#x2026;" horiz-adv-x="1038" d="M138 167 C59 167 -12 119 -12 66 C-12 20 35 -13 101 -13 C183 -13 248 31 248 87 C248 134 203 167 138 167 L138 167 Z M484 167 C405 167 334 119 334 66 C334 20 381 -13 447 -13 C529 -13 594 31 594 86 C594 134 549 167 484 167 L484 167 Z M830 167 C751 167 680 119 680 66 C680 20 727 -13 793 -13 C875 -13 940 31 940 87 C940 134 895 167 830 167 L830 167 Z " />
<glyph glyph-name="perthousand" unicode="&#x2030;" horiz-adv-x="1346" d="M289 678 C158 678 37 543 37 397 C37 295 96 230 188 230 C261 230 328 263 372 320 C416 375 441 446 441 511 C441 610 379 678 289 678 L289 678 Z M236 618 C242 646 254 655 284 655 C305 655 315 648 315 634 C315 630 314 623 313 618 L243 289 C237 261 225 252 196 252 C174 252 164 259 164 273 C164 276 165 282 166 289 L236 618 Z M248 0 L694 667 L664 667 L219 0 L248 0 Z M708 437 C573 437 448 303 448 159 C448 55 510 -11 607 -11 C683 -11 752 22 798 79 C842 134 868 204 868 268 C868 369 803 437 708 437 L708 437 Z M647 377 C653 405 667 414 703 414 C729 414 741 407 741 392 C741 386 741 381 740 377 L670 48 C664 20 650 11 615 11 C588 11 576 18 576 34 C576 40 576 44 577 48 L647 377 Z M1161 437 C1030 437 909 302 909 156 C909 54 968 -11 1060 -11 C1134 -11 1201 22 1245 79 C1289 134 1314 205 1314 270 C1314 370 1253 437 1161 437 L1161 437 Z M1108 377 C1114 405 1126 414 1156 414 C1177 414 1187 407 1187 394 C1187 387 1187 382 1186 377 L1116 48 C1110 20 1098 11 1068 11 C1046 11 1036 18 1036 32 C1036 35 1037 42 1038 48 L1108 377 Z " />
<glyph glyph-name="guilsinglleft" unicode="&#x2039;" horiz-adv-x="381" d="M285 55 L163 208 L350 361 L183 361 L-5 208 L118 55 L285 55 Z " />
<glyph glyph-name="guilsinglright" unicode="&#x203a;" horiz-adv-x="381" d="M42 361 L164 208 L-23 55 L145 55 L332 208 L210 361 L42 361 Z " />
<glyph glyph-name="uni203E" unicode="&#x203e;" horiz-adv-x="500" d="M110 847 L101 807 L601 807 L610 847 L110 847 Z " />
<glyph glyph-name="fraction" unicode="&#x2044;" horiz-adv-x="87" d="M-235 -13 L355 680 L323 680 L-267 -13 L-235 -13 Z " />
<glyph glyph-name="franc" unicode="&#x20a3;" horiz-adv-x="1171" d="M453 0 L458 23 L361 23 L424 318 C514 318 549 291 549 224 C549 207 547 191 544 169 L569 169 L639 501 L614 501 C594 395 530 340 429 341 L493 644 L544 644 C668 650 745 585 745 475 L745 469 L745 460 L771 460 L815 667 L97 667 L92 644 L178 644 L46 23 L-40 23 L-45 0 L453 0 Z M968 0 L973 20 L877 20 L919 221 C933 251 966 283 998 298 C990 284 988 276 988 263 C988 223 1019 197 1066 197 C1135 197 1195 251 1195 311 C1195 354 1166 379 1116 379 C1058 379 999 346 931 276 L955 389 C911 379 881 376 827 376 L652 376 L648 356 L721 356 L650 20 L577 20 L572 0 L968 0 Z " />
<glyph glyph-name="Euro" unicode="&#x20ac;" horiz-adv-x="880" d="M97 343 C95 335 94 330 94 330 L93 326 L93 323 L46 323 L32 303 L90 303 C88 285 87 272 87 258 C87 90 214 -20 406 -20 C531 -20 627 20 735 117 L712 133 C623 50 539 10 452 10 C405 10 382 30 382 73 C382 83 384 102 388 117 L427 303 L590 303 L603 323 L431 323 L436 343 L617 343 L630 363 L440 363 L481 557 C490 597 496 614 507 627 C522 647 546 657 576 657 C680 657 773 564 773 460 C773 445 772 434 767 411 L793 411 L851 687 L728 631 C674 673 629 687 553 687 C338 687 159 559 102 363 L54 363 L41 343 L97 343 Z " />
<glyph glyph-name="trademark" unicode="&#x2122;" horiz-adv-x="1167" d="M384 287 L388 307 L333 307 L405 646 C462 623 493 582 491 531 L514 531 L543 667 L78 667 L49 531 L72 531 C101 587 146 620 227 645 L155 307 L81 307 L77 287 L384 287 Z M1146 287 L1150 307 L1098 307 L1170 647 L1223 647 L1227 667 L1006 667 L870 488 L824 667 L572 667 L568 647 L612 647 L620 627 L573 404 C560 343 524 303 485 307 L481 287 L655 287 L660 307 C634 307 624 309 614 316 C604 325 596 344 596 365 C596 375 599 402 601 413 L639 591 L714 287 L762 287 L981 590 L921 307 L850 307 L846 287 L1146 287 Z " />
<glyph glyph-name="uni2126" unicode="&#x2126;" horiz-adv-x="768" d="M326 0 L308 155 C230 199 180 288 180 383 C180 434 196 493 221 540 C257 605 316 642 385 642 C454 642 513 605 549 540 C575 493 590 435 590 381 C590 288 540 199 462 155 L444 0 L736 0 L736 153 L712 153 C704 108 684 90 643 90 L497 90 L500 128 C535 141 557 151 580 166 C657 215 702 296 702 382 C702 449 673 522 625 578 C564 648 480 686 385 686 C290 686 206 648 145 578 C97 522 68 448 68 382 C68 296 114 215 190 166 C213 151 234 141 270 128 L273 90 L127 90 C86 90 66 108 58 153 L34 153 L34 0 L326 0 Z " />
<glyph glyph-name="partialdiff" unicode="&#x2202;" horiz-adv-x="494" d="M107 673 C152 696 185 705 219 705 C321 705 379 610 379 447 C379 417 377 394 372 346 C308 396 272 412 221 412 C172 412 131 394 95 355 C51 309 26 246 26 184 C26 76 109 -10 213 -10 C282 -10 341 23 383 84 C429 151 462 286 462 402 C462 518 428 610 360 680 C312 729 259 752 194 752 C155 752 122 745 66 724 L107 673 Z M366 312 C350 200 340 158 314 106 C288 54 245 21 201 21 C147 21 113 74 113 159 C113 273 180 367 261 367 C299 367 324 354 366 312 L366 312 Z " />
<glyph glyph-name="Delta" unicode="&#x2206;" horiz-adv-x="612" d="M6 0 L608 0 L327 688 L6 0 Z M77 51 L290 509 L479 51 L77 51 Z " />
<glyph glyph-name="product" unicode="&#x220f;" horiz-adv-x="823" d="M25 -124 L315 -124 L315 -98 L312 -98 C242 -94 221 -67 224 18 L224 594 C224 656 228 677 242 690 C260 707 271 708 413 708 C557 708 567 707 586 690 C600 677 604 656 604 594 L604 18 C607 -67 586 -94 516 -98 L513 -98 L513 -124 L803 -124 L803 -98 L800 -98 C730 -94 709 -67 712 18 L712 609 C709 694 730 721 800 725 L803 725 L803 751 L25 751 L25 725 L28 725 C98 721 119 694 116 609 L116 18 C119 -67 98 -94 28 -98 L25 -98 L25 -124 Z " />
<glyph glyph-name="summation" unicode="&#x2211;" horiz-adv-x="713" d="M176 711 L444 711 C560 710 590 688 606 587 L632 587 L622 752 L23 752 L256 285 L14 -123 L641 -123 L695 87 L669 87 C639 7 605 -12 491 -11 L163 -11 L364 341 L176 711 Z " />
<glyph glyph-name="minus" unicode="&#x2212;" horiz-adv-x="733" d="M628 356 L114 356 L105 313 L619 313 L628 356 Z " />
<glyph glyph-name="uni2215" unicode="&#x2215;" horiz-adv-x="87" d="M-235 -13 L355 680 L323 680 L-267 -13 L-235 -13 Z " />
<glyph glyph-name="uni2219" unicode="&#x2219;" horiz-adv-x="346" d="M166 296 C87 296 16 248 16 195 C16 149 63 116 129 116 C211 116 276 160 276 216 C276 263 231 296 166 296 L166 296 Z " />
<glyph glyph-name="radical" unicode="&#x221a;" horiz-adv-x="549" d="M363 -35 L515 908 L480 913 L353 123 L156 520 L10 449 L26 414 L121 461 L363 -35 Z " />
<glyph glyph-name="infinity" unicode="&#x221e;" horiz-adv-x="713" d="M357 302 C300 375 234 414 171 414 C87 414 26 351 26 263 C26 176 84 115 167 115 C225 115 281 142 327 192 C334 200 340 206 357 227 C415 155 485 114 549 114 C631 114 688 176 688 265 C688 354 629 414 543 414 C476 414 413 376 357 302 L357 302 Z M391 264 C434 325 493 362 546 362 C600 362 638 321 638 264 C638 204 603 166 549 166 C496 166 460 188 391 264 L391 264 Z M324 266 C276 204 215 167 163 167 C111 167 76 208 76 266 C76 323 113 362 167 362 C218 362 257 338 324 266 L324 266 Z " />
<glyph glyph-name="integral" unicode="&#x222b;" horiz-adv-x="274" d="M180 576 C180 653 179 691 176 746 C174 774 173 800 173 815 C173 855 184 878 202 878 C208 878 213 876 215 872 C232 845 239 839 256 839 C276 839 291 853 291 871 C291 898 267 916 231 916 C186 916 152 887 138 838 C123 784 113 682 113 577 L113 232 C113 160 114 124 117 63 C119 34 120 4 120 -12 C120 -47 108 -70 89 -70 C81 -70 75 -65 68 -52 C59 -35 51 -30 37 -30 C17 -30 2 -44 2 -63 C2 -89 26 -107 62 -107 C107 -107 141 -79 155 -29 C170 25 180 126 180 232 L180 576 Z " />
<glyph glyph-name="approxequal" unicode="&#x2248;" horiz-adv-x="549" d="M489 251 C444 199 423 187 384 187 C365 187 354 190 285 211 C212 234 188 239 160 239 C101 239 54 212 14 155 L57 121 C103 174 120 184 159 184 C180 184 180 184 271 157 C350 133 354 132 385 132 C449 132 496 160 527 217 L489 251 Z M489 408 C443 356 423 344 384 344 C365 344 354 347 285 368 C212 391 188 396 160 396 C101 396 54 368 14 312 L57 278 C103 331 119 341 159 341 C180 341 180 341 271 314 C350 290 354 289 385 289 C449 289 496 317 527 374 L489 408 Z " />
<glyph glyph-name="notequal" unicode="&#x2260;" horiz-adv-x="549" d="M187 142 L115 -1 L161 -25 L246 142 L540 142 L540 197 L273 197 L344 336 L540 336 L540 391 L371 391 L439 525 L392 549 L312 391 L15 391 L15 336 L285 336 L215 197 L15 197 L15 142 L187 142 Z " />
<glyph glyph-name="lessequal" unicode="&#x2264;" horiz-adv-x="549" d="M467 55 L-30 55 L-42 0 L455 0 L467 55 Z M591 639 L44 405 L32 350 L480 117 L493 179 L117 378 L578 577 L591 639 Z " />
<glyph glyph-name="greaterequal" unicode="&#x2265;" horiz-adv-x="549" d="M467 55 L-30 55 L-42 0 L455 0 L467 55 Z M94 639 L81 577 L457 378 L-4 179 L-17 117 L529 350 L541 405 L94 639 Z " />
<glyph glyph-name="lozenge" unicode="&#x25ca;" horiz-adv-x="494" d="M209 0 L269 -1 L466 374 L277 740 L214 740 L18 377 L209 0 Z M240 58 L81 376 L245 683 L402 373 L240 58 Z " />
<glyph glyph-name="fi" unicode="&#xfb01;" horiz-adv-x="808" d="M735 20 L661 20 L748 426 C718 419 653 413 620 413 L349 413 C298 413 280 418 258 437 C234 459 220 490 220 521 C220 590 280 664 335 664 C339 664 342 663 347 660 C295 643 258 597 258 550 C258 510 293 484 348 484 C419 484 475 531 475 592 C475 647 428 683 356 683 C301 683 246 662 198 623 C151 586 126 542 112 477 L98 413 L25 413 L21 393 L94 393 L15 20 L-59 20 L-63 0 L310 0 L315 20 L241 20 L321 393 L514 393 L435 20 L361 20 L357 0 L730 0 L735 20 Z M675 674 C600 674 541 631 541 577 C541 535 578 509 637 509 C717 509 774 550 774 607 C774 647 734 674 675 674 L675 674 Z " />
<glyph glyph-name="fl" unicode="&#xfb02;" horiz-adv-x="808" d="M424 393 L428 413 L349 413 C298 413 280 418 258 437 C234 459 220 490 220 521 C220 590 280 664 335 664 C339 664 342 663 347 660 C295 643 258 597 258 549 C258 510 293 484 348 484 C418 484 474 531 474 592 C474 647 427 683 355 683 C300 683 246 662 197 623 C151 586 126 542 112 477 L98 413 L25 413 L21 393 L94 393 L15 20 L-59 20 L-63 0 L329 0 L334 20 L241 20 L321 393 L424 393 Z M730 0 L735 20 L661 20 L802 680 C779 673 737 668 697 667 L500 667 L496 647 L568 647 L435 20 L361 20 L357 0 L730 0 Z " />
</font>
</svg>
