<?xml version="1.0" encoding="UTF-8"?>
<svg xmlns="http://www.w3.org/2000/svg" xmlns:xlink="http://www.w3.org/1999/xlink" version="1.2" >
<font id="FranklinGothic URW Cond Demi">
<font-face  font-family="FranklinGothic URW Cond" units-per-em="1000" ascent="667" descent="-333" font-style="normal" font-weight="600" font-stretch="normal" cap-height="667" x-height="493" underline-position="-57" underline-thickness="89" />
<missing-glyph  horiz-adv-x="187" d="" />
<glyph glyph-name="NULL" d="" />
<glyph glyph-name="CR" unicode="&#xd;" horiz-adv-x="250" d="" />
<glyph glyph-name="space" unicode="&#x20;" horiz-adv-x="187" d="" />
<glyph glyph-name="exclam" unicode="&#x21;" horiz-adv-x="341" d="M83 667 L126 199 L215 199 L259 667 L83 667 Z M103 148 L103 0 L239 0 L239 148 L103 148 Z " />
<glyph glyph-name="quotedbl" unicode="&#x22;" horiz-adv-x="511" d="M97 667 L116 374 L207 374 L226 667 L97 667 Z M284 667 L303 374 L395 374 L413 667 L284 667 Z " />
<glyph glyph-name="numbersign" unicode="&#x23;" horiz-adv-x="511" d="M170 667 L140 474 L51 474 L39 393 L128 393 L112 286 L22 286 L10 204 L100 204 L69 0 L155 0 L186 204 L285 204 L254 0 L340 0 L371 204 L461 204 L473 286 L384 286 L400 393 L489 393 L502 474 L412 474 L441 667 L355 667 L326 474 L227 474 L256 667 L170 667 Z M215 393 L313 393 L297 286 L198 286 L215 393 Z " />
<glyph glyph-name="dollar" unicode="&#x24;" horiz-adv-x="511" d="M219 722 L219 653 C171 645 146 635 119 612 C81 580 58 526 58 470 C58 384 106 324 202 291 C286 262 286 262 304 253 C329 239 342 220 342 194 C342 150 310 122 259 122 C198 122 163 154 152 220 L36 190 C59 86 120 29 219 19 L219 -71 L294 -71 L294 19 C353 27 384 39 417 69 C455 104 476 154 476 210 C476 302 429 356 314 398 C239 425 239 425 222 435 C201 447 190 466 190 488 C190 527 219 555 260 555 C305 555 329 532 353 468 L457 510 C433 593 376 643 294 653 L294 722 L219 722 Z " />
<glyph glyph-name="percent" unicode="&#x25;" horiz-adv-x="664" d="M160 670 C75 670 27 609 27 499 C27 389 75 327 159 327 C242 327 290 389 290 499 C290 607 242 670 160 670 L160 670 Z M159 596 C185 596 195 569 195 499 C195 427 185 401 159 401 C132 401 122 427 122 499 C122 571 132 596 159 596 L159 596 Z M453 667 L138 0 L214 0 L528 667 L453 667 Z M506 340 C421 340 373 278 373 169 C373 59 421 -3 505 -3 C589 -3 637 59 637 168 C637 277 589 340 506 340 L506 340 Z M506 266 C532 266 542 239 542 169 C542 97 532 71 505 71 C478 71 468 97 468 169 C468 241 478 266 506 266 L506 266 Z " />
<glyph glyph-name="ampersand" unicode="&#x26;" horiz-adv-x="647" d="M511 381 C499 321 480 268 460 235 L367 357 C447 400 483 450 483 518 C483 611 412 677 312 677 C212 677 136 612 136 528 C136 484 156 437 198 379 C96 336 46 273 46 187 C46 133 69 75 104 42 C140 8 194 -10 259 -10 C331 -10 374 6 440 56 C488 8 519 -7 569 -7 C586 -7 598 -5 620 0 L620 114 C601 112 601 112 597 112 C575 112 555 123 529 149 C572 212 601 281 620 362 L511 381 Z M311 434 C280 476 267 505 267 530 C267 561 287 581 319 581 C351 581 371 560 371 525 C371 487 351 456 311 434 L311 434 Z M374 139 C343 110 318 100 281 100 C222 100 185 137 185 196 C185 240 207 274 253 302 L374 139 Z " />
<glyph glyph-name="quotesingle" unicode="&#x27;" horiz-adv-x="341" d="M106 667 L125 374 L216 374 L235 667 L106 667 Z " />
<glyph glyph-name="parenleft" unicode="&#x28;" horiz-adv-x="341" d="M171 667 C92 550 50 405 50 250 C50 95 92 -49 171 -167 L279 -167 C213 -45 177 103 177 250 C177 397 213 544 279 667 L171 667 Z " />
<glyph glyph-name="parenright" unicode="&#x29;" horiz-adv-x="341" d="M170 -167 C249 -48 291 95 291 250 C291 405 249 548 170 667 L62 667 C127 545 164 396 164 250 C164 104 127 -46 62 -167 L170 -167 Z " />
<glyph glyph-name="asterisk" unicode="&#x2a;" horiz-adv-x="511" d="M214 667 L226 544 L125 613 L84 538 L193 489 L84 441 L125 366 L226 435 L214 312 L297 312 L285 435 L386 366 L427 441 L318 489 L427 538 L386 613 L285 544 L297 667 L214 667 Z " />
<glyph glyph-name="plus" unicode="&#x2b;" horiz-adv-x="511" d="M310 386 L310 538 L200 538 L200 386 L51 386 L51 280 L200 280 L200 129 L310 129 L310 280 L460 280 L460 386 L310 386 Z " />
<glyph glyph-name="comma" unicode="&#x2c;" horiz-adv-x="256" d="M60 148 L60 0 L124 0 L60 -158 L114 -158 L196 14 L196 148 L60 148 Z " />
<glyph glyph-name="hyphen" unicode="&#x2d;" horiz-adv-x="273" d="M37 307 L37 199 L236 199 L236 307 L37 307 Z " />
<glyph glyph-name="period" unicode="&#x2e;" horiz-adv-x="256" d="M60 148 L60 0 L196 0 L196 148 L60 148 Z " />
<glyph glyph-name="slash" unicode="&#x2f;" horiz-adv-x="528" d="M387 667 L-19 -167 L74 -167 L480 667 L387 667 Z " />
<glyph glyph-name="zero" unicode="0" horiz-adv-x="511" d="M259 677 C189 677 142 659 107 619 C57 563 33 470 33 334 C33 97 102 -10 255 -10 C408 -10 478 97 478 333 C478 568 408 677 259 677 L259 677 Z M256 570 C282 570 299 556 309 528 C319 500 323 446 323 334 C323 139 311 97 255 97 C199 97 187 138 187 337 C187 529 199 570 256 570 L256 570 Z " />
<glyph glyph-name="one" unicode="1" horiz-adv-x="511" d="M246 672 C202 618 158 580 99 550 L99 419 C143 442 177 467 211 503 L211 109 L99 109 L99 0 L468 0 L468 109 L358 109 L358 672 L246 672 Z " />
<glyph glyph-name="two" unicode="2" horiz-adv-x="511" d="M161 432 C170 520 194 558 240 558 C280 558 302 529 302 475 C302 387 246 317 28 131 L28 0 L455 0 L465 131 L177 131 C236 170 279 202 321 238 C414 319 456 396 456 483 C456 601 375 677 250 677 C177 677 125 655 87 607 C54 566 40 531 28 459 L161 432 Z " />
<glyph glyph-name="three" unicode="3" horiz-adv-x="511" d="M159 481 C173 541 194 563 235 563 C278 563 303 534 303 482 C303 452 294 429 276 416 C260 402 247 399 207 399 L167 399 L167 291 L207 292 C276 293 310 262 310 200 C310 143 281 109 233 109 C179 109 155 137 145 208 L16 187 C27 120 42 86 74 53 C112 13 174 -10 242 -10 C377 -10 461 67 461 190 C461 274 425 325 349 349 C418 382 448 426 448 497 C448 610 375 677 251 677 C136 677 65 621 31 505 L159 481 Z " />
<glyph glyph-name="four" unicode="4" horiz-adv-x="511" d="M252 677 L25 271 L25 157 L265 157 L265 0 L411 0 L411 157 L486 157 L486 271 L411 271 L411 677 L252 677 Z M276 263 L129 263 L276 538 L276 263 Z " />
<glyph glyph-name="five" unicode="5" horiz-adv-x="511" d="M87 667 L63 294 L178 272 C195 310 214 324 252 324 C305 324 337 283 337 217 C337 148 307 109 254 109 C203 109 178 135 167 200 L34 178 C41 121 55 90 87 56 C128 12 185 -10 254 -10 C396 -10 479 77 479 225 C479 307 455 368 410 404 C380 428 338 443 299 443 C250 443 218 427 185 386 L194 536 L429 536 L443 667 L87 667 Z " />
<glyph glyph-name="six" unicode="6" horiz-adv-x="511" d="M479 500 C462 577 440 614 392 646 C361 667 326 677 281 677 C211 677 159 652 119 600 C71 536 51 456 51 329 C51 185 77 97 135 41 C170 7 216 -10 273 -10 C403 -10 483 73 483 210 C483 291 455 354 404 391 C377 410 343 421 309 421 C253 421 219 400 186 345 C189 432 190 444 196 478 C207 538 235 570 277 570 C321 570 350 535 360 464 L479 500 Z M271 314 C317 314 341 279 341 211 C341 133 317 97 267 97 C220 97 193 135 193 202 C193 277 219 314 271 314 L271 314 Z " />
<glyph glyph-name="seven" unicode="7" horiz-adv-x="511" d="M69 667 L58 536 L340 536 C214 386 145 198 144 0 L303 0 C305 233 358 416 465 554 L465 667 L69 667 Z " />
<glyph glyph-name="eight" unicode="8" horiz-adv-x="511" d="M379 364 C439 402 464 443 464 507 C464 614 390 677 264 677 C192 677 140 659 103 621 C69 587 49 537 49 486 C49 418 75 372 139 329 C58 285 30 245 30 173 C30 58 111 -10 248 -10 C327 -10 384 10 426 52 C462 87 482 137 482 191 C482 266 449 321 379 364 L379 364 Z M291 408 C214 441 187 468 187 508 C187 551 219 581 264 581 C309 581 338 549 338 499 C338 466 326 443 291 408 L291 408 Z M223 281 C276 257 291 249 311 234 C332 217 345 192 345 169 C345 124 307 91 255 91 C196 91 159 127 159 184 C159 225 175 249 223 281 L223 281 Z " />
<glyph glyph-name="nine" unicode="9" horiz-adv-x="511" d="M42 153 C58 92 73 64 101 36 C133 6 179 -10 236 -10 C386 -10 460 107 460 343 C460 570 389 677 238 677 C179 677 135 663 99 632 C53 593 27 530 27 460 C27 336 102 247 207 247 C259 247 293 264 323 307 C324 295 324 284 324 280 C324 158 297 97 242 97 C201 97 182 119 170 177 L42 153 Z M244 570 C289 570 318 530 318 468 C318 400 293 366 243 366 C194 366 169 401 169 468 C169 532 197 570 244 570 L244 570 Z " />
<glyph glyph-name="colon" unicode="&#x3a;" horiz-adv-x="256" d="M60 148 L60 0 L196 0 L196 148 L60 148 Z M60 493 L60 346 L196 345 L196 493 L60 493 Z " />
<glyph glyph-name="semicolon" unicode="&#x3b;" horiz-adv-x="256" d="M60 148 L60 0 L124 0 L60 -158 L114 -158 L196 14 L196 148 L60 148 Z M60 493 L60 346 L196 345 L196 493 L60 493 Z " />
<glyph glyph-name="less" unicode="&#x3c;" horiz-adv-x="511" d="M472 623 L39 396 L39 271 L472 44 L471 191 L197 333 L472 475 L472 623 Z " />
<glyph glyph-name="equal" unicode="&#x3d;" horiz-adv-x="511" d="M460 362 L460 468 L51 468 L51 362 L460 362 Z M460 199 L460 305 L51 305 L51 199 L460 199 Z " />
<glyph glyph-name="greater" unicode="&#x3e;" horiz-adv-x="511" d="M39 44 L472 271 L472 396 L39 623 L40 476 L314 334 L39 192 L39 44 Z " />
<glyph glyph-name="question" unicode="&#x3f;" horiz-adv-x="477" d="M154 438 C155 476 158 497 165 514 C176 542 198 558 225 558 C260 558 282 533 282 493 C282 452 266 418 233 385 C167 323 161 309 161 213 L161 191 L278 191 C278 253 281 260 332 306 C371 341 389 361 401 382 C420 414 430 452 430 490 C430 605 355 677 234 677 C166 677 117 656 80 611 C46 570 32 525 29 455 L154 438 Z M154 142 L154 0 L285 0 L285 142 L154 142 Z " />
<glyph glyph-name="at" unicode="&#x40;" horiz-adv-x="630" d="M396 508 L390 464 C372 501 351 515 318 515 C238 515 176 420 176 299 C176 200 218 134 279 134 C316 134 342 151 365 191 C380 150 399 135 438 135 C535 135 612 248 612 389 C612 571 501 689 331 689 C146 689 18 542 18 331 C18 214 61 108 134 49 C185 7 263 -19 337 -19 C409 -19 478 2 542 43 L515 108 C456 69 407 54 341 54 C195 54 105 161 105 334 C105 504 195 616 331 616 C456 616 530 529 530 382 C530 290 494 210 453 210 C436 210 430 219 430 243 C430 256 430 256 435 304 L464 508 L396 508 Z M324 424 C345 424 357 400 357 358 C357 314 351 272 340 249 C334 235 319 225 304 225 C280 225 267 250 267 298 C267 374 289 424 324 424 L324 424 Z " />
<glyph glyph-name="A" unicode="A" horiz-adv-x="511" d="M180 667 L-20 0 L115 0 L147 137 L335 137 L368 0 L518 0 L328 667 L180 667 Z M307 252 L175 252 L240 524 L307 252 Z " />
<glyph glyph-name="B" unicode="B" horiz-adv-x="562" d="M63 667 L63 0 L291 0 C381 0 415 6 452 31 C496 61 525 121 525 184 C525 265 486 322 412 348 C480 374 508 415 508 491 C508 554 483 612 444 638 C410 661 376 667 291 667 L63 667 Z M204 398 L204 559 L262 559 C330 559 359 535 359 481 C359 453 348 427 332 415 C316 403 291 398 251 398 L204 398 Z M204 115 L204 290 L276 290 C346 290 376 264 376 203 C376 143 344 115 276 115 L204 115 Z " />
<glyph glyph-name="C" unicode="C" horiz-adv-x="545" d="M387 243 C376 151 346 109 293 109 C222 109 193 171 193 322 C193 489 222 558 293 558 C324 558 348 543 365 513 C378 490 382 467 386 409 L520 419 C514 495 503 538 477 580 C438 644 375 677 292 677 C130 677 39 553 39 333 C39 115 130 -10 290 -10 C423 -10 511 83 523 234 L387 243 Z " />
<glyph glyph-name="D" unicode="D" horiz-adv-x="562" d="M63 667 L63 0 L238 0 C328 0 364 9 410 40 C485 91 528 200 528 339 C528 468 492 568 426 616 C377 653 319 667 220 667 L63 667 Z M209 552 L234 552 C284 552 307 544 330 517 C359 483 373 428 373 341 C373 254 361 194 336 159 C312 125 287 115 234 115 L209 115 L209 552 Z " />
<glyph glyph-name="E" unicode="E" horiz-adv-x="477" d="M63 667 L63 0 L468 0 L468 119 L209 119 L209 283 L411 283 L411 398 L209 398 L209 552 L468 552 L468 667 L63 667 Z " />
<glyph glyph-name="F" unicode="F" horiz-adv-x="443" d="M63 667 L63 0 L209 0 L209 263 L401 263 L401 378 L209 378 L209 552 L458 552 L458 667 L63 667 Z " />
<glyph glyph-name="G" unicode="G" horiz-adv-x="579" d="M296 356 L296 241 L396 241 C394 198 391 180 384 163 C369 128 342 109 305 109 C226 109 192 177 192 331 C192 486 227 558 300 558 C332 558 357 543 373 515 C384 496 390 473 396 427 L528 449 C507 608 438 677 298 677 C235 677 183 660 143 625 C75 566 38 460 38 325 C38 118 133 -10 285 -10 C357 -10 408 17 447 76 L466 0 L528 0 L528 356 L296 356 Z " />
<glyph glyph-name="H" unicode="H" horiz-adv-x="579" d="M63 667 L63 0 L209 0 L209 273 L370 273 L370 0 L516 0 L516 667 L370 667 L370 398 L209 398 L209 667 L63 667 Z " />
<glyph glyph-name="I" unicode="I" horiz-adv-x="272" d="M63 667 L63 0 L209 0 L209 667 L63 667 Z " />
<glyph glyph-name="J" unicode="J" horiz-adv-x="324" d="M118 667 L118 224 C118 136 106 116 54 116 C38 116 23 118 -5 122 L-5 0 C43 -8 59 -10 85 -10 C146 -10 193 5 220 35 C253 70 264 118 264 224 L264 667 L118 667 Z " />
<glyph glyph-name="K" unicode="K" horiz-adv-x="528" d="M63 667 L63 0 L209 0 L209 226 L264 307 L382 0 L533 0 L352 422 L519 667 L371 667 L209 389 L209 667 L63 667 Z " />
<glyph glyph-name="L" unicode="L" horiz-adv-x="426" d="M63 667 L63 0 L424 0 L424 125 L209 125 L209 667 L63 667 Z " />
<glyph glyph-name="M" unicode="M" horiz-adv-x="749" d="M63 667 L63 0 L182 0 L182 558 L306 0 L413 0 L549 558 L549 0 L686 0 L686 667 L478 667 L372 255 L278 667 L63 667 Z " />
<glyph glyph-name="N" unicode="N" horiz-adv-x="562" d="M57 667 L57 0 L171 0 L171 483 L373 0 L504 0 L504 667 L390 667 L390 253 L220 667 L57 667 Z " />
<glyph glyph-name="O" unicode="O" horiz-adv-x="562" d="M284 677 C121 677 39 562 39 331 C39 107 122 -10 281 -10 C440 -10 523 107 523 333 C523 464 497 554 443 613 C405 654 348 677 284 677 L284 677 Z M282 558 C346 558 369 500 369 334 C369 166 347 109 281 109 C215 109 193 166 193 335 C193 502 216 558 282 558 L282 558 Z " />
<glyph glyph-name="P" unicode="P" horiz-adv-x="511" d="M63 667 L63 0 L209 0 L209 246 L261 246 C347 246 388 255 427 281 C475 313 503 377 503 458 C503 536 475 600 425 634 C388 660 350 667 254 667 L63 667 Z M209 559 L254 559 C290 559 307 555 321 541 C338 525 348 496 348 462 C348 389 322 361 254 361 L209 361 L209 559 Z " />
<glyph glyph-name="Q" unicode="Q" horiz-adv-x="562" d="M499 -23 C478 -29 465 -31 449 -31 C415 -31 403 -19 401 19 C423 34 433 42 443 54 C498 115 523 203 523 336 C523 560 440 677 281 677 C122 677 39 560 39 334 C39 203 65 113 119 54 C156 14 214 -10 276 -10 C283 -10 292 -10 304 -9 C311 -99 351 -138 437 -138 C458 -138 473 -136 499 -129 L499 -23 Z M282 558 C346 558 369 500 369 334 C369 166 347 109 281 109 C215 109 193 166 193 335 C193 502 216 558 282 558 L282 558 Z " />
<glyph glyph-name="R" unicode="R" horiz-adv-x="545" d="M63 667 L63 0 L209 0 L209 263 L282 263 L371 0 L531 0 L408 291 C475 331 502 380 502 465 C502 538 476 597 430 632 C391 660 362 667 272 667 L63 667 Z M209 559 L267 559 C299 559 317 554 330 543 C349 527 359 500 359 468 C359 405 329 371 273 371 L209 371 L209 559 Z " />
<glyph glyph-name="S" unicode="S" horiz-adv-x="511" d="M471 522 C453 578 437 605 405 630 C367 661 316 677 257 677 C128 677 43 595 43 473 C43 416 65 368 105 333 C138 306 160 295 244 265 C313 240 336 219 336 181 C336 138 302 109 251 109 C195 109 163 139 144 209 L16 173 C50 49 125 -10 248 -10 C389 -10 484 75 484 203 C484 263 461 312 418 347 C389 371 365 383 300 408 C204 444 185 459 185 497 C185 533 214 558 255 558 C302 558 331 533 349 475 L471 522 Z " />
<glyph glyph-name="T" unicode="T" horiz-adv-x="392" d="M-12 667 L-12 542 L121 542 L121 0 L268 0 L268 542 L404 542 L404 667 L-12 667 Z " />
<glyph glyph-name="U" unicode="U" horiz-adv-x="579" d="M63 667 L63 286 C63 157 74 103 108 58 C143 14 207 -10 291 -10 C367 -10 426 12 465 54 C506 98 516 145 516 292 L516 667 L393 667 L393 286 C393 199 392 181 383 159 C371 126 344 109 304 109 C263 109 235 126 221 159 C212 180 209 213 209 286 L209 667 L63 667 Z " />
<glyph glyph-name="V" unicode="V" horiz-adv-x="460" d="M-14 667 L146 0 L310 -3 L474 667 L348 667 L242 159 L140 667 L-14 667 Z " />
<glyph glyph-name="W" unicode="W" horiz-adv-x="715" d="M-5 667 L140 -3 L269 -3 L360 460 L449 -3 L580 -3 L723 667 L600 667 L518 204 L436 667 L302 667 L215 205 L145 667 L-5 667 Z " />
<glyph glyph-name="X" unicode="X" horiz-adv-x="477" d="M5 667 L168 342 L-15 0 L125 0 L234 218 L332 0 L492 0 L315 366 L472 667 L332 667 L248 493 L168 667 L5 667 Z " />
<glyph glyph-name="Y" unicode="Y" horiz-adv-x="443" d="M-28 667 L139 282 L139 0 L285 0 L285 282 L470 667 L327 667 L227 423 L133 667 L-28 667 Z " />
<glyph glyph-name="Z" unicode="Z" horiz-adv-x="460" d="M21 667 L21 548 L282 548 L1 102 L1 0 L459 0 L459 119 L171 119 L450 563 L450 667 L21 667 Z " />
<glyph glyph-name="bracketleft" unicode="&#x5b;" horiz-adv-x="341" d="M73 667 L73 -167 L279 -167 L279 -105 L195 -105 L195 605 L279 605 L279 667 L73 667 Z " />
<glyph glyph-name="backslash" unicode="&#x5c;" horiz-adv-x="528" d="M142 667 L49 667 L456 -167 L548 -167 L142 667 Z " />
<glyph glyph-name="bracketright" unicode="&#x5d;" horiz-adv-x="341" d="M268 -167 L268 667 L62 667 L62 605 L146 605 L146 -105 L62 -105 L62 -167 L268 -167 Z " />
<glyph glyph-name="asciicircum" unicode="&#x5e;" horiz-adv-x="500" d="M147 351 L250 570 L352 351 L484 351 L333 670 L167 670 L15 351 L147 351 Z " />
<glyph glyph-name="underscore" unicode="&#x5f;" horiz-adv-x="500" d="M0 -57 L0 -146 L500 -146 L500 -57 L0 -57 Z " />
<glyph glyph-name="grave" unicode="&#x60;" horiz-adv-x="460" d="M318 587 L152 741 L97 659 L277 546 L318 587 Z " />
<glyph glyph-name="a" unicode="a" horiz-adv-x="477" d="M183 337 C188 391 204 412 241 412 C278 412 290 392 290 325 L290 306 C224 302 173 292 130 275 C70 251 36 196 36 125 C36 41 85 -10 166 -10 C204 -10 239 3 264 25 C277 37 285 48 301 75 C301 28 301 24 308 0 L435 0 C428 21 428 30 427 110 L427 306 C427 390 420 425 396 450 C365 484 314 503 252 503 C138 503 67 449 53 349 L183 337 Z M290 212 C290 160 285 134 271 112 C258 91 242 81 224 81 C194 81 178 103 178 143 C178 203 205 226 290 236 L290 212 Z " />
<glyph glyph-name="b" unicode="b" horiz-adv-x="477" d="M51 667 L51 0 L132 0 C142 30 147 43 158 64 C183 11 216 -10 272 -10 C385 -10 448 83 448 250 C448 406 388 500 289 500 C246 500 218 486 186 447 L186 667 L51 667 Z M186 319 C186 352 188 362 195 377 C204 397 224 409 246 409 C290 409 306 365 306 246 C306 128 289 85 244 85 C221 85 204 97 195 119 C187 139 186 151 186 205 L186 319 Z " />
<glyph glyph-name="c" unicode="c" horiz-adv-x="443" d="M420 312 C414 381 401 416 366 453 C334 487 291 503 234 503 C102 503 30 412 30 247 C30 79 98 -10 226 -10 C342 -10 405 53 420 184 L291 192 C287 127 271 101 235 101 C188 101 168 146 168 252 C168 353 190 399 237 399 C272 399 287 374 291 307 L420 312 Z " />
<glyph glyph-name="d" unicode="d" horiz-adv-x="477" d="M292 667 L292 447 C268 485 241 500 193 500 C90 500 30 407 30 246 C30 85 87 -7 187 -7 C245 -7 274 16 300 82 L300 0 L427 0 L427 667 L292 667 Z M292 199 C292 122 274 89 231 89 C202 89 185 109 178 149 C173 176 172 195 172 270 C172 369 189 409 232 409 C254 409 273 396 280 376 C290 348 292 337 292 286 L292 199 Z " />
<glyph glyph-name="e" unicode="e" horiz-adv-x="460" d="M431 224 C430 320 423 361 395 413 C365 469 304 503 235 503 C106 503 30 405 30 240 C30 81 105 -10 235 -10 C297 -10 344 8 379 47 C406 78 419 105 431 162 L308 170 C301 110 280 86 238 86 C191 86 172 119 172 198 L172 224 L431 224 Z M173 303 C175 380 194 412 237 412 C261 412 281 399 291 377 C298 361 301 341 301 303 L173 303 Z " />
<glyph glyph-name="f" unicode="f" horiz-adv-x="290" d="M206 493 C206 570 214 583 268 583 C277 583 285 582 299 581 L299 688 C271 692 255 693 234 693 C174 693 138 679 108 643 C82 613 76 584 74 493 L18 493 L18 385 L74 385 L74 0 L206 0 L206 385 L293 385 L293 493 L206 493 Z " />
<glyph glyph-name="g" unicode="g" horiz-adv-x="460" d="M470 574 C455 578 448 579 432 579 C372 579 349 554 339 481 C298 498 274 503 233 503 C118 503 49 447 49 353 C49 291 68 259 122 229 C95 214 85 207 72 195 C51 177 37 147 37 121 C37 83 57 56 101 35 C44 15 21 -12 21 -57 C21 -134 90 -174 222 -174 C383 -174 464 -119 464 -9 C464 37 448 73 417 96 C387 119 363 125 267 131 C184 136 181 136 169 141 C156 146 150 154 150 165 C150 181 161 194 182 206 C209 200 224 198 247 198 C353 198 425 258 425 346 C425 385 412 418 388 444 C395 475 411 488 440 488 C451 488 457 487 470 485 L470 574 Z M240 429 C270 429 283 405 283 350 C283 293 271 272 239 272 C206 272 191 296 191 346 C191 406 205 429 240 429 L240 429 Z M177 21 C203 18 216 17 239 16 C302 13 310 11 325 3 C338 -5 345 -19 345 -36 C345 -73 316 -88 244 -88 C168 -88 134 -72 134 -38 C134 -12 147 6 177 21 L177 21 Z " />
<glyph glyph-name="h" unicode="h" horiz-adv-x="477" d="M51 667 L51 0 L188 0 L188 313 C188 374 204 396 249 396 C288 396 297 381 297 316 L297 0 L434 0 L434 316 C434 390 431 417 418 443 C399 483 363 503 310 503 C252 503 218 486 188 441 L188 667 L51 667 Z " />
<glyph glyph-name="i" unicode="i" horiz-adv-x="238" d="M50 493 L50 0 L187 0 L187 493 L50 493 Z M189 534 L189 670 L49 670 L49 534 L189 534 Z " />
<glyph glyph-name="j" unicode="j" horiz-adv-x="239" d="M56 493 L56 20 C55 -35 55 -35 49 -46 C43 -58 32 -63 10 -63 C5 -63 1 -63 -8 -61 L-8 -174 C27 -179 44 -181 66 -181 C117 -181 155 -162 174 -126 C189 -99 193 -68 193 16 L193 493 L56 493 Z M194 534 L194 670 L54 670 L54 534 L194 534 Z " />
<glyph glyph-name="k" unicode="k" horiz-adv-x="460" d="M51 667 L51 0 L188 0 L188 159 L239 229 L316 0 L464 0 L327 328 L452 493 L327 493 L188 303 L188 667 L51 667 Z " />
<glyph glyph-name="l" unicode="l" horiz-adv-x="239" d="M51 667 L51 0 L188 0 L188 667 L51 667 Z " />
<glyph glyph-name="m" unicode="m" horiz-adv-x="698" d="M51 493 L51 0 L188 0 L188 287 C188 373 199 396 242 396 C262 396 275 389 281 375 C285 366 285 364 286 312 L286 0 L423 0 L423 287 C423 375 433 396 474 396 C511 396 518 382 518 308 L518 0 L655 0 L655 322 C655 396 651 425 638 450 C619 485 581 503 529 503 C468 503 432 480 407 426 C391 482 362 503 301 503 C242 503 206 480 182 426 L182 493 L51 493 Z " />
<glyph glyph-name="n" unicode="n" horiz-adv-x="477" d="M51 493 L51 0 L188 0 L188 289 C188 329 189 346 193 359 C201 384 219 396 249 396 C286 396 297 380 297 323 L297 0 L434 0 L434 323 C434 397 430 422 416 447 C395 484 358 503 306 503 C241 503 207 482 182 426 L182 493 L51 493 Z " />
<glyph glyph-name="o" unicode="o" horiz-adv-x="460" d="M233 503 C96 503 30 419 30 245 C30 76 97 -10 231 -10 C364 -10 431 76 431 246 C431 416 364 503 233 503 L233 503 Z M232 407 C274 407 289 365 289 246 C289 126 274 86 231 86 C187 86 172 126 172 247 C172 367 187 407 232 407 L232 407 Z " />
<glyph glyph-name="p" unicode="p" horiz-adv-x="477" d="M51 493 L51 -167 L186 -167 L186 37 C216 5 241 -7 281 -7 C388 -7 448 86 448 253 C448 408 389 500 290 500 C240 500 210 479 178 419 L178 493 L51 493 Z M186 295 C186 331 187 345 191 360 C200 393 219 409 248 409 C292 409 306 371 306 255 C306 126 292 89 244 89 C220 89 202 99 194 116 C189 129 186 155 186 202 L186 295 Z " />
<glyph glyph-name="q" unicode="q" horiz-adv-x="477" d="M352 493 C340 463 331 449 314 429 C280 481 248 500 197 500 C169 500 143 493 120 480 C60 445 30 366 30 245 C30 144 52 74 97 29 C121 6 153 -7 187 -7 C230 -7 258 10 288 51 L288 -167 L423 -167 L423 367 C423 438 424 458 427 493 L352 493 Z M288 224 C288 124 272 88 230 88 C200 88 180 112 176 154 C174 178 172 220 172 259 C172 380 183 409 230 409 C272 409 288 379 288 297 L288 224 Z " />
<glyph glyph-name="r" unicode="r" horiz-adv-x="307" d="M51 493 L51 0 L188 0 L188 213 C188 316 220 365 289 365 C293 365 303 364 312 363 L312 497 C301 499 296 500 288 500 C232 500 197 462 172 374 L172 493 L51 493 Z " />
<glyph glyph-name="s" unicode="s" horiz-adv-x="409" d="M376 375 C364 417 352 437 327 460 C297 488 256 503 209 503 C106 503 34 439 34 346 C34 271 78 225 182 191 C247 171 261 159 261 127 C261 98 241 81 207 81 C164 81 139 104 128 154 L19 136 C27 87 38 61 64 37 C96 7 146 -10 204 -10 C315 -10 391 55 391 151 C391 193 375 229 345 254 C322 273 308 280 245 302 C177 326 163 337 163 369 C163 395 180 412 206 412 C241 412 262 393 278 345 L376 375 Z " />
<glyph glyph-name="t" unicode="t" horiz-adv-x="307" d="M89 639 L78 493 L16 493 L16 385 L71 385 L71 189 C71 97 75 74 93 45 C116 9 159 -10 219 -10 C246 -10 266 -8 302 0 L302 105 C280 104 277 104 265 104 C241 104 226 108 217 118 C206 130 205 138 205 204 L205 385 L295 385 L295 493 L205 493 L205 649 L89 639 Z " />
<glyph glyph-name="u" unicode="u" horiz-adv-x="477" d="M44 493 L44 173 C44 86 48 62 67 34 C87 5 122 -10 170 -10 C234 -10 260 6 298 67 L298 0 L427 0 L427 493 L290 493 L290 241 C290 164 289 147 283 132 C275 108 257 97 229 97 C206 97 193 104 186 121 C182 130 181 140 181 177 L181 493 L44 493 Z " />
<glyph glyph-name="v" unicode="v" horiz-adv-x="358" d="M-11 493 L128 0 L237 0 L372 493 L258 493 L189 202 L121 493 L-11 493 Z " />
<glyph glyph-name="w" unicode="w" horiz-adv-x="579" d="M-8 493 L116 0 L228 0 L290 335 L353 0 L469 0 L592 493 L484 493 L418 193 L373 493 L239 493 L184 193 L126 493 L-8 493 Z " />
<glyph glyph-name="x" unicode="x" horiz-adv-x="375" d="M-5 493 L122 252 L-24 0 L95 0 L178 148 L250 0 L399 0 L253 276 L380 493 L260 493 L197 379 L144 493 L-5 493 Z " />
<glyph glyph-name="y" unicode="y" horiz-adv-x="358" d="M-13 493 L129 9 C111 -52 99 -62 47 -62 C33 -62 25 -61 7 -59 L7 -167 C32 -173 45 -175 66 -175 C109 -175 142 -163 166 -139 C190 -114 201 -91 225 -8 L374 493 L255 493 L191 192 L124 493 L-13 493 Z " />
<glyph glyph-name="z" unicode="z" horiz-adv-x="358" d="M37 493 L37 395 L199 395 L20 98 L20 0 L349 0 L349 98 L162 98 L345 405 L345 493 L37 493 Z " />
<glyph glyph-name="braceleft" unicode="&#x7b;" horiz-adv-x="341" d="M267 666 C244 667 232 667 220 667 C118 667 92 636 92 514 L92 401 C93 306 91 301 43 297 L43 216 C91 212 93 207 92 112 L92 -14 C92 -135 118 -167 218 -167 C232 -167 243 -167 267 -166 L267 -101 C218 -99 211 -89 212 -14 L212 108 C213 223 208 235 153 257 C208 278 213 290 212 406 L212 514 C211 589 218 600 267 600 L267 666 Z " />
<glyph glyph-name="bar" unicode="&#x7c;" horiz-adv-x="500" d="M175 667 L175 -167 L325 -167 L325 667 L175 667 Z " />
<glyph glyph-name="braceright" unicode="&#x7d;" horiz-adv-x="341" d="M74 -166 C97 -167 109 -167 122 -167 C223 -167 249 -136 249 -14 L249 112 C248 207 250 212 298 216 L298 297 C250 301 248 306 249 401 L249 514 C249 635 223 667 123 667 C108 667 98 667 74 666 L74 600 C123 600 130 589 129 514 L129 406 C128 290 133 278 188 257 C133 235 128 223 129 108 L129 -14 C130 -89 123 -99 74 -101 L74 -166 Z " />
<glyph glyph-name="asciitilde" unicode="&#x7e;" horiz-adv-x="667" d="M166 552 C190 597 209 614 236 614 C252 614 273 608 309 592 C380 561 393 557 420 557 C493 557 536 594 576 691 L504 752 C480 708 459 690 431 690 C415 690 407 693 354 715 C296 740 267 749 242 749 C179 749 130 705 93 613 L166 552 Z " />
<glyph glyph-name="uni00A0" unicode="&#xa0;" horiz-adv-x="187" d="" />
<glyph glyph-name="exclamdown" unicode="&#xa1;" horiz-adv-x="341" d="M259 -174 L215 294 L126 294 L83 -174 L259 -174 Z M239 345 L239 493 L103 493 L103 345 L239 345 Z " />
<glyph glyph-name="cent" unicode="&#xa2;" horiz-adv-x="511" d="M228 670 L228 580 C194 577 173 570 151 553 C97 512 67 436 67 339 C67 241 98 165 155 126 C175 112 193 105 228 99 L228 -7 L299 -7 L299 99 C381 110 431 172 445 278 L329 289 C324 254 322 245 315 230 C307 212 288 201 265 201 C220 201 204 238 204 342 C204 445 221 484 266 484 C305 484 323 458 329 395 L445 402 C436 505 383 570 299 580 L299 670 L228 670 Z " />
<glyph glyph-name="sterling" unicode="&#xa3;" horiz-adv-x="511" d="M271 408 L270 422 C270 424 269 439 266 461 C265 478 264 490 264 502 C264 549 278 570 309 570 C340 570 360 549 371 501 L477 551 C451 640 401 677 308 677 C195 677 126 606 126 488 C126 466 127 447 132 408 L73 408 L73 306 L149 306 C151 283 152 272 152 255 C152 209 145 170 132 148 C117 121 102 114 59 114 L8 114 L8 0 L285 0 C441 -6 507 40 537 174 L429 214 C405 139 367 112 285 114 L211 114 C273 170 287 208 285 306 L383 306 L383 408 L271 408 Z " />
<glyph glyph-name="currency" unicode="&#xa4;" horiz-adv-x="511" d="M339 496 C311 511 286 517 256 517 C227 517 203 511 175 497 L110 562 L37 489 L102 424 C88 396 82 373 82 344 C82 314 88 290 103 261 L39 196 L109 126 L173 191 C202 176 227 170 256 170 C283 170 308 176 337 189 L401 125 L475 198 L410 263 C424 292 430 315 430 344 C430 374 424 397 409 426 L473 491 L403 561 L339 496 Z M256 421 C299 421 334 386 334 343 C334 300 299 266 255 266 C213 266 178 301 178 343 C178 386 213 421 256 421 L256 421 Z " />
<glyph glyph-name="yen" unicode="&#xa5;" horiz-adv-x="511" d="M24 667 L133 407 L39 407 L39 334 L164 334 L189 274 L39 274 L39 201 L189 201 L189 0 L321 0 L321 201 L477 201 L477 274 L321 274 L346 334 L477 334 L477 407 L377 407 L487 667 L373 667 L266 396 L166 667 L24 667 Z " />
<glyph glyph-name="brokenbar" unicode="&#xa6;" horiz-adv-x="500" d="M175 667 L175 315 L325 315 L325 667 L175 667 Z M175 153 L175 -167 L325 -167 L325 153 L175 153 Z " />
<glyph glyph-name="section" unicode="&#xa7;" horiz-adv-x="511" d="M459 552 C444 593 433 612 412 631 C380 661 330 677 273 677 C162 677 93 614 93 514 C93 464 107 434 147 397 C93 363 71 324 71 263 C71 197 108 143 175 114 C264 75 272 71 294 57 C323 38 334 21 334 -7 C334 -49 307 -73 259 -73 C207 -73 180 -50 167 4 L53 -16 C66 -64 77 -87 97 -109 C131 -146 191 -168 258 -168 C381 -168 457 -100 457 10 C457 71 437 109 385 148 C435 190 451 223 451 279 C451 322 438 357 413 385 C391 407 368 422 313 448 C257 473 249 478 236 488 C224 498 216 514 216 531 C216 565 241 586 279 586 C321 586 343 568 357 521 L459 552 Z M213 356 C227 348 227 348 239 342 C285 319 285 319 292 315 C327 295 341 276 341 249 C341 225 333 206 315 190 C302 196 302 196 291 201 C252 219 252 219 243 223 C200 246 185 266 185 298 C185 321 192 336 213 356 L213 356 Z " />
<glyph glyph-name="dieresis" unicode="&#xa8;" horiz-adv-x="460" d="M148 673 C117 673 92 650 92 620 C92 592 117 568 147 568 C179 568 204 591 204 620 C204 650 179 673 148 673 L148 673 Z M313 673 C282 673 257 650 257 620 C257 592 282 568 312 568 C344 568 369 591 369 620 C369 650 344 673 313 673 L313 673 Z " />
<glyph glyph-name="copyright" unicode="&#xa9;" horiz-adv-x="779" d="M454 286 C448 230 431 207 399 207 C359 207 342 242 342 327 C342 420 359 459 400 459 C435 459 449 437 454 372 L554 379 C546 487 495 539 399 539 C289 539 228 465 228 331 C228 202 290 127 398 127 C490 127 548 184 556 280 L454 286 Z M390 679 C197 679 40 524 40 333 C40 146 197 -12 384 -12 C581 -12 739 140 739 331 C739 525 584 679 390 679 L390 679 Z M390 602 C536 602 654 482 654 331 C654 183 535 65 385 65 C244 65 125 187 125 333 C125 482 243 602 390 602 L390 602 Z " />
<glyph glyph-name="ordfeminine" unicode="&#xaa;" horiz-adv-x="324" d="M132 473 C136 499 143 507 162 507 C181 507 188 497 188 470 L188 458 C76 453 22 417 22 347 C22 295 57 261 112 261 C150 261 178 275 203 309 C205 289 205 286 209 267 L296 267 C289 285 288 291 288 338 L288 451 C288 498 284 518 270 536 C251 559 214 573 167 573 C93 573 46 541 33 482 L132 473 Z M188 397 C188 349 176 327 150 327 C134 327 126 336 126 357 C126 389 142 400 188 402 L188 397 Z " />
<glyph glyph-name="guillemotleft" unicode="&#xab;" horiz-adv-x="443" d="M395 81 L334 256 L395 431 L322 431 L219 256 L322 81 L395 81 Z M224 81 L163 256 L224 431 L152 431 L49 256 L152 81 L224 81 Z " />
<glyph glyph-name="logicalnot" unicode="&#xac;" horiz-adv-x="500" d="M321 0 L466 0 L466 291 L33 291 L33 160 L321 160 L321 0 Z " />
<glyph glyph-name="uni00AD" unicode="&#xad;" horiz-adv-x="273" d="M37 307 L37 199 L236 199 L236 307 L37 307 Z " />
<glyph glyph-name="registered" unicode="&#xae;" horiz-adv-x="779" d="M246 533 L246 133 L355 133 L355 287 L381 287 L432 133 L551 133 L476 307 C517 329 535 361 535 410 C535 455 517 491 485 512 C459 529 438 533 379 533 L246 533 Z M355 459 L376 459 C413 459 429 445 429 412 C429 378 413 361 380 361 L355 361 L355 459 Z M390 679 C197 679 40 524 40 333 C40 146 197 -12 384 -12 C581 -12 739 140 739 331 C739 525 584 679 390 679 L390 679 Z M390 602 C536 602 654 482 654 331 C654 183 535 65 385 65 C244 65 125 187 125 333 C125 482 243 602 390 602 L390 602 Z " />
<glyph glyph-name="macron" unicode="&#xaf;" horiz-adv-x="460" d="M93 656 L93 584 L367 584 L367 656 L93 656 Z " />
<glyph glyph-name="degree" unicode="&#xb0;" horiz-adv-x="511" d="M258 677 C168 677 97 607 97 518 C97 430 168 359 256 359 C344 359 415 430 415 518 C415 605 344 677 258 677 L258 677 Z M257 598 C294 598 324 562 324 518 C324 474 294 439 256 439 C218 439 188 474 188 518 C188 563 218 598 257 598 L257 598 Z " />
<glyph glyph-name="plusminus" unicode="&#xb1;" horiz-adv-x="511" d="M310 386 L310 538 L200 538 L200 386 L51 386 L51 280 L200 280 L200 140 L310 140 L310 280 L460 280 L460 386 L310 386 Z M460 -11 L460 95 L51 95 L51 -11 L460 -11 Z " />
<glyph glyph-name="twosuperior" unicode="&#xb2;" horiz-adv-x="341" d="M116 514 C121 568 133 588 160 588 C180 588 191 574 191 549 C191 501 157 463 16 354 L16 267 L304 267 L312 358 L134 358 C187 390 209 404 229 421 C280 462 306 507 306 554 C306 625 250 673 166 673 C78 673 31 629 15 533 L116 514 Z " />
<glyph glyph-name="threesuperior" unicode="&#xb3;" horiz-adv-x="341" d="M114 543 C122 578 134 592 157 592 C180 592 193 578 193 552 C193 521 179 510 140 510 L106 510 L106 437 L140 437 C179 437 197 423 197 391 C197 362 182 346 156 346 C124 346 112 360 107 404 L8 389 C15 343 26 321 49 299 C75 275 117 261 162 261 C251 261 310 309 310 381 C310 429 286 460 237 477 C285 500 302 523 302 565 C302 631 250 673 168 673 C87 673 40 637 17 559 L114 543 Z " />
<glyph glyph-name="acute" unicode="&#xb4;" horiz-adv-x="460" d="M182 587 L223 546 L403 659 L348 741 L182 587 Z " />
<glyph glyph-name="mu" unicode="&#xb5;" horiz-adv-x="477" d="M290 493 L290 241 C290 171 289 152 286 137 C280 111 263 97 236 97 C211 97 194 109 187 130 C182 146 181 162 181 241 L181 493 L44 493 L44 -167 L173 -167 L173 67 C186 7 200 -10 236 -10 C271 -10 285 7 298 67 L298 0 L427 0 L427 493 L290 493 Z " />
<glyph glyph-name="paragraph" unicode="&#xb6;" horiz-adv-x="545" d="M468 667 L236 667 C160 667 130 662 99 643 C50 612 21 547 21 466 C21 395 40 335 74 303 C108 269 147 258 229 258 L264 258 L264 -167 L342 -167 L342 588 L390 588 L390 -167 L468 -167 L468 667 Z " />
<glyph glyph-name="periodcentered" unicode="&#xb7;" horiz-adv-x="256" d="M60 330 L60 183 L196 182 L196 330 L60 330 Z " />
<glyph glyph-name="cedilla" unicode="&#xb8;" horiz-adv-x="460" d="M208 0 L176 -89 C193 -87 200 -86 209 -86 C242 -86 266 -103 266 -128 C266 -146 252 -158 231 -158 C209 -158 188 -152 152 -134 L136 -174 C180 -200 207 -209 243 -209 C305 -209 344 -176 344 -126 C344 -80 311 -48 265 -48 C260 -48 257 -48 245 -49 L265 0 L208 0 Z " />
<glyph glyph-name="onesuperior" unicode="&#xb9;" horiz-adv-x="341" d="M160 670 C134 638 103 615 62 596 L62 503 C91 516 106 525 134 546 L134 345 L62 345 L62 266 L314 266 L314 345 L244 345 L244 670 L160 670 Z " />
<glyph glyph-name="ordmasculine" unicode="&#xba;" horiz-adv-x="307" d="M155 572 C63 572 17 520 17 417 C17 314 63 261 153 261 C243 261 289 314 289 418 C289 518 242 572 155 572 L155 572 Z M153 501 C175 501 182 479 182 416 C182 353 175 332 153 332 C131 332 124 353 124 417 C124 480 131 501 153 501 L153 501 Z " />
<glyph glyph-name="guillemotright" unicode="&#xbb;" horiz-adv-x="443" d="M49 431 L110 256 L49 81 L122 81 L224 256 L122 431 L49 431 Z M219 431 L280 256 L219 81 L292 81 L395 256 L292 431 L219 431 Z " />
<glyph glyph-name="onequarter" unicode="&#xbc;" horiz-adv-x="801" d="M149 670 C123 638 92 615 51 596 L51 503 C80 516 95 525 123 546 L123 345 L51 345 L51 266 L303 266 L303 345 L233 345 L233 670 L149 670 Z M514 667 L199 0 L286 0 L601 667 L514 667 Z M606 406 L458 166 L458 90 L611 90 L611 0 L721 0 L721 90 L769 90 L769 171 L721 171 L721 406 L606 406 Z M621 161 L532 161 L621 313 L621 161 Z " />
<glyph glyph-name="onehalf" unicode="&#xbd;" horiz-adv-x="801" d="M152 670 C126 638 95 615 54 596 L54 503 C83 516 98 525 126 546 L126 345 L54 345 L54 266 L306 266 L306 345 L236 345 L236 670 L152 670 Z M514 667 L200 0 L287 0 L601 667 L514 667 Z M557 247 C561 300 574 321 601 321 C621 321 632 307 632 282 C632 234 595 193 457 87 L457 0 L745 0 L753 91 L575 91 C628 123 649 137 670 154 C721 195 747 240 747 287 C747 358 691 406 606 406 C519 406 473 362 456 266 L557 247 Z " />
<glyph glyph-name="threequarters" unicode="&#xbe;" horiz-adv-x="801" d="M137 543 C145 578 157 592 180 592 C203 592 216 578 216 552 C216 521 202 510 163 510 L129 510 L129 437 L163 437 C202 437 220 423 220 391 C220 362 205 346 179 346 C147 346 135 360 130 404 L31 389 C38 343 49 321 72 299 C98 275 140 261 185 261 C274 261 333 309 333 381 C333 429 309 460 260 477 C308 500 325 523 325 565 C325 631 273 673 191 673 C110 673 63 637 40 559 L137 543 Z M537 667 L223 0 L309 0 L624 667 L537 667 Z M612 406 L464 166 L464 90 L617 90 L617 0 L727 0 L727 90 L775 90 L775 171 L727 171 L727 406 L612 406 Z M627 161 L538 161 L627 313 L627 161 Z " />
<glyph glyph-name="questiondown" unicode="&#xbf;" horiz-adv-x="477" d="M323 56 C322 17 319 -4 312 -21 C300 -49 279 -65 252 -65 C217 -65 195 -40 195 0 C195 41 211 75 244 108 C310 170 316 184 316 280 L316 302 L199 302 C199 240 196 232 145 187 C106 152 88 132 76 111 C57 79 47 41 47 3 C47 -112 122 -184 243 -184 C311 -184 360 -163 397 -118 C430 -78 445 -33 448 38 L323 56 Z M322 351 L322 493 L192 493 L192 351 L322 351 Z " />
<glyph glyph-name="Agrave" unicode="&#xc0;" horiz-adv-x="511" d="M180 667 L-20 0 L115 0 L147 137 L335 137 L368 0 L518 0 L328 667 L180 667 Z M307 252 L175 252 L240 524 L307 252 Z M335 769 L129 878 L96 782 L305 718 L335 769 Z " />
<glyph glyph-name="Aacute" unicode="&#xc1;" horiz-adv-x="511" d="M180 667 L-20 0 L115 0 L147 137 L335 137 L368 0 L518 0 L328 667 L180 667 Z M307 252 L175 252 L240 524 L307 252 Z M173 769 L203 718 L412 782 L379 878 L173 769 Z " />
<glyph glyph-name="Acircumflex" unicode="&#xc2;" horiz-adv-x="511" d="M180 667 L-20 0 L115 0 L147 137 L335 137 L368 0 L518 0 L328 667 L180 667 Z M307 252 L175 252 L240 524 L307 252 Z M54 726 L163 726 L255 774 L347 726 L457 726 L255 872 L54 726 Z " />
<glyph glyph-name="Atilde" unicode="&#xc3;" horiz-adv-x="511" d="M180 667 L-20 0 L115 0 L147 137 L335 137 L368 0 L518 0 L328 667 L180 667 Z M307 252 L175 252 L240 524 L307 252 Z M383 835 C361 806 351 799 334 799 C320 799 307 803 270 818 C237 832 222 836 202 836 C162 836 130 816 88 764 L133 730 C159 757 166 762 182 762 C196 762 208 758 245 742 C276 729 291 725 310 725 C355 725 394 750 429 802 L383 835 Z " />
<glyph glyph-name="Adieresis" unicode="&#xc4;" horiz-adv-x="511" d="M180 667 L-20 0 L115 0 L147 137 L335 137 L368 0 L518 0 L328 667 L180 667 Z M307 252 L175 252 L240 524 L307 252 Z M167 838 C135 838 109 813 109 783 C109 754 135 729 166 729 C198 729 224 753 224 783 C224 814 198 838 167 838 L167 838 Z M336 838 C304 838 279 814 279 783 C279 754 305 729 336 729 C368 729 394 753 394 783 C394 814 368 838 336 838 L336 838 Z " />
<glyph glyph-name="Aring" unicode="&#xc5;" horiz-adv-x="511" d="M180 667 L-20 0 L115 0 L147 137 L335 137 L368 0 L518 0 L328 667 L180 667 Z M307 252 L175 252 L240 524 L307 252 Z M255 903 C201 903 158 860 158 805 C158 753 202 709 254 709 C309 709 352 752 352 806 C352 860 309 903 255 903 L255 903 Z M255 847 C276 847 294 828 294 806 C294 783 276 765 254 765 C234 765 216 784 216 806 C216 828 233 847 255 847 L255 847 Z " />
<glyph glyph-name="AE" unicode="&#xc6;" horiz-adv-x="682" d="M222 667 L-40 0 L87 0 L140 154 L286 154 L286 0 L673 0 L673 119 L427 119 L427 283 L620 283 L620 398 L427 398 L427 552 L673 552 L673 667 L222 667 Z M289 262 L177 262 L289 569 L289 262 Z " />
<glyph glyph-name="Ccedilla" unicode="&#xc7;" horiz-adv-x="545" d="M520 419 C514 495 503 538 477 580 C438 644 375 677 292 677 C130 677 39 553 39 333 C39 192 78 86 150 32 C179 11 206 0 251 -8 L222 -92 C227 -91 231 -91 234 -91 L252 -91 C288 -91 310 -107 310 -133 C310 -150 298 -161 278 -161 C256 -161 233 -154 197 -136 L181 -180 C225 -207 253 -216 291 -216 C354 -216 395 -182 395 -130 C395 -83 361 -50 313 -50 C308 -50 305 -50 293 -51 L307 -10 C430 -2 512 90 523 234 L387 243 C376 151 346 109 293 109 C222 109 193 171 193 322 C193 489 222 558 293 558 C324 558 348 543 365 513 C378 490 382 467 386 409 L520 419 Z " />
<glyph glyph-name="Egrave" unicode="&#xc8;" horiz-adv-x="477" d="M63 667 L63 0 L468 0 L468 119 L209 119 L209 283 L411 283 L411 398 L209 398 L209 552 L468 552 L468 667 L63 667 Z M355 769 L149 878 L116 782 L325 718 L355 769 Z " />
<glyph glyph-name="Eacute" unicode="&#xc9;" horiz-adv-x="477" d="M63 667 L63 0 L468 0 L468 119 L209 119 L209 283 L411 283 L411 398 L209 398 L209 552 L468 552 L468 667 L63 667 Z M190 769 L220 718 L429 782 L396 878 L190 769 Z " />
<glyph glyph-name="Ecircumflex" unicode="&#xca;" horiz-adv-x="477" d="M63 667 L63 0 L468 0 L468 119 L209 119 L209 283 L411 283 L411 398 L209 398 L209 552 L468 552 L468 667 L63 667 Z M67 726 L176 726 L269 774 L361 726 L470 726 L269 872 L67 726 Z " />
<glyph glyph-name="Edieresis" unicode="&#xcb;" horiz-adv-x="477" d="M63 667 L63 0 L468 0 L468 119 L209 119 L209 283 L411 283 L411 398 L209 398 L209 552 L468 552 L468 667 L63 667 Z M181 838 C149 838 123 814 123 783 C123 754 149 729 180 729 C212 729 238 753 238 783 C238 814 212 838 181 838 L181 838 Z M350 838 C319 838 293 813 293 783 C293 754 319 729 350 729 C382 729 408 753 408 783 C408 814 382 838 350 838 L350 838 Z " />
<glyph glyph-name="Igrave" unicode="&#xcc;" horiz-adv-x="272" d="M63 667 L63 0 L209 0 L209 667 L63 667 Z M226 769 L33 878 L-3 786 L196 718 L226 769 Z " />
<glyph glyph-name="Iacute" unicode="&#xcd;" horiz-adv-x="272" d="M63 667 L63 0 L209 0 L209 667 L63 667 Z M56 769 L86 718 L285 786 L249 878 L56 769 Z " />
<glyph glyph-name="Icircumflex" unicode="&#xce;" horiz-adv-x="272" d="M63 667 L63 0 L209 0 L209 667 L63 667 Z M-39 726 L67 726 L136 774 L205 726 L311 726 L136 872 L-39 726 Z " />
<glyph glyph-name="Idieresis" unicode="&#xcf;" horiz-adv-x="273" d="M63 667 L63 0 L209 0 L209 667 L63 667 Z M63 838 C31 838 5 814 5 783 C5 754 31 729 62 729 C94 729 120 753 120 783 C120 814 94 838 63 838 L63 838 Z M211 838 C180 838 154 813 154 783 C154 754 180 729 211 729 C243 729 269 753 269 783 C269 814 243 838 211 838 L211 838 Z " />
<glyph glyph-name="Eth" unicode="&#xd0;" horiz-adv-x="562" d="M63 667 L63 387 L6 387 L6 287 L63 287 L63 0 L239 0 C328 0 365 8 411 40 C486 91 529 199 529 339 C529 468 492 567 427 616 C378 653 320 667 221 667 L63 667 Z M210 552 L235 552 C285 552 308 544 332 517 C361 483 375 427 375 340 C375 254 362 194 337 158 C313 125 288 115 235 115 L210 115 L210 287 L307 287 L307 387 L210 387 L210 552 Z " />
<glyph glyph-name="Ntilde" unicode="&#xd1;" horiz-adv-x="562" d="M57 667 L57 0 L171 0 L171 483 L373 0 L504 0 L504 667 L390 667 L390 253 L220 667 L57 667 Z M414 835 C392 807 382 799 365 799 C351 799 339 803 301 818 C269 832 253 836 233 836 C194 836 160 815 119 764 L164 730 C190 757 197 762 213 762 C227 762 240 758 277 742 C307 729 322 725 342 725 C386 725 425 750 460 802 L414 835 Z " />
<glyph glyph-name="Ograve" unicode="&#xd2;" horiz-adv-x="562" d="M284 677 C121 677 39 562 39 331 C39 107 122 -10 281 -10 C440 -10 523 107 523 333 C523 464 497 554 443 613 C405 654 348 677 284 677 L284 677 Z M282 558 C346 558 369 500 369 334 C369 166 347 109 281 109 C215 109 193 166 193 335 C193 502 216 558 282 558 L282 558 Z M367 769 L161 878 L128 782 L337 718 L367 769 Z " />
<glyph glyph-name="Oacute" unicode="&#xd3;" horiz-adv-x="562" d="M284 677 C121 677 39 562 39 331 C39 107 122 -10 281 -10 C440 -10 523 107 523 333 C523 464 497 554 443 613 C405 654 348 677 284 677 L284 677 Z M282 558 C346 558 369 500 369 334 C369 166 347 109 281 109 C215 109 193 166 193 335 C193 502 216 558 282 558 L282 558 Z M205 769 L235 718 L444 782 L411 878 L205 769 Z " />
<glyph glyph-name="Ocircumflex" unicode="&#xd4;" horiz-adv-x="562" d="M284 677 C121 677 39 562 39 331 C39 107 122 -10 281 -10 C440 -10 523 107 523 333 C523 464 497 554 443 613 C405 654 348 677 284 677 L284 677 Z M282 558 C346 558 369 500 369 334 C369 166 347 109 281 109 C215 109 193 166 193 335 C193 502 216 558 282 558 L282 558 Z M83 726 L192 726 L284 774 L376 726 L486 726 L284 872 L83 726 Z " />
<glyph glyph-name="Otilde" unicode="&#xd5;" horiz-adv-x="562" d="M284 677 C121 677 39 562 39 331 C39 107 122 -10 281 -10 C440 -10 523 107 523 333 C523 464 497 554 443 613 C405 654 348 677 284 677 L284 677 Z M282 558 C346 558 369 500 369 334 C369 166 347 109 281 109 C215 109 193 166 193 335 C193 502 216 558 282 558 L282 558 Z M415 835 C393 806 383 799 366 799 C352 799 340 803 302 818 C270 832 254 836 235 836 C195 836 163 816 121 764 L165 730 C191 757 198 762 214 762 C228 762 241 758 278 742 C308 729 323 725 343 725 C387 725 426 750 461 802 L415 835 Z " />
<glyph glyph-name="Odieresis" unicode="&#xd6;" horiz-adv-x="562" d="M284 677 C121 677 39 562 39 331 C39 107 122 -10 281 -10 C440 -10 523 107 523 333 C523 464 497 554 443 613 C405 654 348 677 284 677 L284 677 Z M282 558 C346 558 369 500 369 334 C369 166 347 109 281 109 C215 109 193 166 193 335 C193 502 216 558 282 558 L282 558 Z M199 838 C168 838 142 814 142 783 C142 754 168 729 199 729 C231 729 257 753 257 783 C257 814 231 838 199 838 L199 838 Z M369 838 C338 838 312 813 312 783 C312 754 338 729 369 729 C401 729 427 753 427 783 C427 814 401 838 369 838 L369 838 Z " />
<glyph glyph-name="multiply" unicode="&#xd7;" horiz-adv-x="511" d="M255 411 L142 525 L64 447 L178 333 L64 220 L142 142 L255 255 L369 142 L447 220 L333 333 L447 447 L369 525 L255 411 Z " />
<glyph glyph-name="Oslash" unicode="&#xd8;" horiz-adv-x="562" d="M431 705 L401 647 C365 668 327 677 279 677 C122 677 39 559 39 337 C39 209 59 133 110 64 L58 -41 L134 -41 L165 17 C206 -3 239 -10 282 -10 C440 -10 523 108 523 333 C523 456 502 537 454 599 L508 705 L431 705 Z M187 212 C181 257 180 271 180 314 C180 390 182 423 188 463 C198 530 230 566 280 566 C305 566 321 559 341 541 L187 212 Z M375 450 C381 405 382 394 382 355 C382 279 380 241 374 204 C363 137 331 100 284 100 C259 100 239 106 223 119 L375 450 Z " />
<glyph glyph-name="Ugrave" unicode="&#xd9;" horiz-adv-x="579" d="M63 667 L63 286 C63 157 74 103 108 58 C143 14 207 -10 291 -10 C367 -10 426 12 465 54 C506 98 516 145 516 292 L516 667 L393 667 L393 286 C393 199 392 181 383 159 C371 126 344 109 304 109 C263 109 235 126 221 159 C212 180 209 213 209 286 L209 667 L63 667 Z M379 769 L173 878 L140 782 L349 718 L379 769 Z " />
<glyph glyph-name="Uacute" unicode="&#xda;" horiz-adv-x="579" d="M63 667 L63 286 C63 157 74 103 108 58 C143 14 207 -10 291 -10 C367 -10 426 12 465 54 C506 98 516 145 516 292 L516 667 L393 667 L393 286 C393 199 392 181 383 159 C371 126 344 109 304 109 C263 109 235 126 221 159 C212 180 209 213 209 286 L209 667 L63 667 Z M214 769 L244 718 L453 782 L420 878 L214 769 Z " />
<glyph glyph-name="Ucircumflex" unicode="&#xdb;" horiz-adv-x="579" d="M63 667 L63 286 C63 157 74 103 108 58 C143 14 207 -10 291 -10 C367 -10 426 12 465 54 C506 98 516 145 516 292 L516 667 L393 667 L393 286 C393 199 392 181 383 159 C371 126 344 109 304 109 C263 109 235 126 221 159 C212 180 209 213 209 286 L209 667 L63 667 Z M91 726 L201 726 L293 774 L385 726 L495 726 L293 872 L91 726 Z " />
<glyph glyph-name="Udieresis" unicode="&#xdc;" horiz-adv-x="579" d="M63 667 L63 286 C63 157 74 103 108 58 C143 14 207 -10 291 -10 C367 -10 426 12 465 54 C506 98 516 145 516 292 L516 667 L393 667 L393 286 C393 199 392 181 383 159 C371 126 344 109 304 109 C263 109 235 126 221 159 C212 180 209 213 209 286 L209 667 L63 667 Z M208 838 C176 838 150 814 150 783 C150 754 176 729 207 729 C239 729 265 753 265 783 C265 814 240 838 208 838 L208 838 Z M377 838 C346 838 320 813 320 783 C320 754 346 729 377 729 C409 729 435 753 435 783 C435 814 410 838 377 838 L377 838 Z " />
<glyph glyph-name="Yacute" unicode="&#xdd;" horiz-adv-x="443" d="M-28 667 L139 282 L139 0 L285 0 L285 282 L470 667 L327 667 L227 423 L133 667 L-28 667 Z M149 769 L179 718 L388 782 L355 878 L149 769 Z " />
<glyph glyph-name="Thorn" unicode="&#xde;" horiz-adv-x="511" d="M63 667 L63 0 L209 0 L209 156 L261 156 C347 156 388 165 427 191 C475 223 503 287 503 368 C503 446 474 510 425 543 C388 569 349 576 254 576 L209 576 L209 667 L63 667 Z M209 468 L254 468 C291 468 307 464 321 450 C338 434 348 406 348 371 C348 341 341 314 330 298 C317 280 293 271 254 271 L209 271 L209 468 Z " />
<glyph glyph-name="germandbls" unicode="&#xdf;" horiz-adv-x="545" d="M10 339 L65 339 L65 -58 L202 -58 L202 451 C202 536 204 551 216 575 C230 599 249 611 276 611 C318 611 344 584 344 541 C344 493 316 468 251 457 C237 420 232 398 232 374 C232 324 259 290 330 247 C397 207 411 191 411 151 C411 109 387 85 345 85 C322 85 303 90 271 103 L238 10 C275 -3 312 -10 348 -10 C459 -10 534 65 534 177 C534 269 494 318 385 365 C342 383 334 388 324 403 C359 415 377 423 396 435 C445 466 472 511 472 561 C472 649 404 706 300 706 C224 706 158 678 117 627 C80 583 65 531 65 447 L10 447 L10 339 Z " />
<glyph glyph-name="agrave" unicode="&#xe0;" horiz-adv-x="477" d="M183 337 C188 391 204 412 241 412 C278 412 290 392 290 325 L290 306 C224 302 173 292 130 275 C70 251 36 196 36 125 C36 41 85 -10 166 -10 C204 -10 239 3 264 25 C277 37 285 48 301 75 C301 28 301 24 308 0 L435 0 C428 21 428 30 427 110 L427 306 C427 380 421 413 404 440 C379 479 321 503 251 503 C138 503 67 449 53 349 L183 337 Z M290 212 C290 160 285 134 271 112 C258 91 242 81 224 81 C194 81 178 103 178 143 C178 203 205 226 290 236 L290 212 Z M327 587 L160 741 L106 659 L286 546 L327 587 Z " />
<glyph glyph-name="aacute" unicode="&#xe1;" horiz-adv-x="477" d="M183 337 C188 391 204 412 241 412 C278 412 290 392 290 325 L290 306 C224 302 173 292 130 275 C70 251 36 196 36 125 C36 41 85 -10 166 -10 C204 -10 239 3 264 25 C277 37 285 48 301 75 C301 28 301 24 308 0 L435 0 C428 21 428 30 427 110 L427 306 C427 380 421 413 404 440 C379 479 321 503 251 503 C138 503 67 449 53 349 L183 337 Z M290 212 C290 160 285 134 271 112 C258 91 242 81 224 81 C194 81 178 103 178 143 C178 203 205 226 290 236 L290 212 Z M178 587 L219 546 L399 659 L344 741 L178 587 Z " />
<glyph glyph-name="acircumflex" unicode="&#xe2;" horiz-adv-x="477" d="M183 337 C188 391 204 412 241 412 C278 412 290 392 290 325 L290 306 C224 302 173 292 130 275 C70 251 36 196 36 125 C36 41 85 -10 166 -10 C204 -10 239 3 264 25 C277 37 285 48 301 75 C301 28 301 24 308 0 L435 0 C428 21 428 30 427 110 L427 306 C427 390 420 425 396 450 C365 484 314 503 252 503 C138 503 67 449 53 349 L183 337 Z M290 212 C290 160 285 134 271 112 C258 91 242 81 224 81 C194 81 178 103 178 143 C178 203 205 226 290 236 L290 212 Z M53 553 L159 553 L249 611 L338 553 L445 553 L249 706 L53 553 Z " />
<glyph glyph-name="atilde" unicode="&#xe3;" horiz-adv-x="477" d="M183 337 C188 391 204 412 241 412 C278 412 290 392 290 325 L290 306 C224 302 173 292 130 275 C70 251 36 196 36 125 C36 41 85 -10 166 -10 C204 -10 239 3 264 25 C277 37 285 48 301 75 C301 28 301 24 308 0 L435 0 C428 21 428 30 427 110 L427 306 C427 390 420 425 396 450 C365 484 314 503 252 503 C138 503 67 449 53 349 L183 337 Z M290 212 C290 160 285 134 271 112 C258 91 242 81 224 81 C194 81 178 103 178 143 C178 203 205 226 290 236 L290 212 Z M366 677 C346 650 336 642 320 642 C307 642 295 646 259 660 C228 673 215 677 196 677 C158 677 128 657 88 608 L130 575 C154 601 161 606 177 606 C189 606 202 602 236 587 C266 574 280 570 298 570 C339 570 375 594 410 644 L366 677 Z " />
<glyph glyph-name="adieresis" unicode="&#xe4;" horiz-adv-x="477" d="M183 337 C188 391 204 412 241 412 C278 412 290 392 290 325 L290 306 C224 302 173 292 130 275 C70 251 36 196 36 125 C36 41 85 -10 166 -10 C204 -10 239 3 264 25 C277 37 285 48 301 75 C301 28 301 24 308 0 L435 0 C428 21 428 30 427 110 L427 306 C427 380 421 413 404 440 C379 479 321 503 251 503 C138 503 67 449 53 349 L183 337 Z M290 212 C290 160 285 134 271 112 C258 91 242 81 224 81 C194 81 178 103 178 143 C178 203 205 226 290 236 L290 212 Z M167 673 C136 673 111 650 111 620 C111 592 136 568 166 568 C198 568 223 591 223 620 C223 650 198 673 167 673 L167 673 Z M331 673 C300 673 275 650 275 620 C275 592 300 568 330 568 C362 568 387 591 387 620 C387 650 362 673 331 673 L331 673 Z " />
<glyph glyph-name="aring" unicode="&#xe5;" horiz-adv-x="477" d="M183 337 C188 391 204 412 241 412 C278 412 290 392 290 325 L290 306 C224 302 173 292 130 275 C70 251 36 196 36 125 C36 41 85 -10 166 -10 C204 -10 239 3 264 25 C277 37 285 48 301 75 C301 28 301 24 308 0 L435 0 C428 21 428 30 427 110 L427 306 C427 380 421 413 404 440 C379 479 321 503 251 503 C138 503 67 449 53 349 L183 337 Z M290 212 C290 160 285 134 271 112 C258 91 242 81 224 81 C194 81 178 103 178 143 C178 203 205 226 290 236 L290 212 Z M250 731 C198 731 156 688 156 636 C156 585 198 542 249 542 C302 542 344 584 344 636 C344 689 302 731 250 731 L250 731 Z M250 676 C270 676 287 658 287 636 C287 615 270 597 250 597 C230 597 213 615 213 636 C213 658 230 676 250 676 L250 676 Z " />
<glyph glyph-name="ae" unicode="&#xe6;" horiz-adv-x="698" d="M669 224 C669 302 663 346 649 384 C619 462 560 503 478 503 C424 503 391 489 354 452 C330 488 294 503 236 503 C179 503 137 489 104 459 C71 430 57 402 48 346 L168 333 C173 389 190 412 228 412 C266 412 281 392 281 340 C281 330 281 323 280 307 C191 297 168 292 132 278 C72 254 36 198 36 129 C36 42 91 -10 181 -10 C251 -10 299 16 338 74 C368 15 409 -10 479 -10 C586 -10 640 39 665 159 L547 168 C539 110 519 86 479 86 C435 86 414 123 414 202 L414 224 L669 224 Z M413 303 C419 381 437 412 478 412 C520 412 538 380 540 303 L413 303 Z M281 198 C281 122 259 81 219 81 C189 81 173 103 173 145 C173 178 184 202 205 216 C221 225 235 229 280 236 L281 198 Z " />
<glyph glyph-name="ccedilla" unicode="&#xe7;" horiz-adv-x="443" d="M420 312 C414 381 401 416 366 453 C334 487 291 503 234 503 C102 503 30 412 30 246 C30 94 84 9 193 -8 L163 -89 C179 -87 186 -86 196 -86 C229 -86 253 -103 253 -128 C253 -146 239 -158 218 -158 C196 -158 175 -151 139 -131 L123 -174 C166 -200 193 -209 230 -209 C291 -209 331 -177 331 -127 C331 -81 298 -49 252 -49 C245 -49 245 -49 232 -50 L248 -10 C354 2 407 62 420 184 L291 192 C287 127 271 101 235 101 C188 101 168 146 168 252 C168 353 190 399 237 399 C272 399 287 373 291 306 L420 312 Z " />
<glyph glyph-name="egrave" unicode="&#xe8;" horiz-adv-x="460" d="M431 224 C430 320 423 361 395 413 C365 469 304 503 235 503 C106 503 30 405 30 240 C30 81 105 -10 235 -10 C297 -10 344 8 379 47 C406 78 419 105 431 162 L308 170 C301 110 280 86 238 86 C191 86 172 119 172 198 L172 224 L431 224 Z M173 303 C175 380 194 412 237 412 C261 412 281 399 291 377 C298 361 301 341 301 303 L173 303 Z M318 587 L152 741 L97 659 L277 546 L318 587 Z " />
<glyph glyph-name="eacute" unicode="&#xe9;" horiz-adv-x="460" d="M431 224 C430 320 423 361 395 413 C365 469 304 503 235 503 C106 503 30 405 30 240 C30 81 105 -10 235 -10 C297 -10 344 8 379 47 C406 78 419 105 431 162 L308 170 C301 110 280 86 238 86 C191 86 172 119 172 198 L172 224 L431 224 Z M173 303 C175 380 194 412 237 412 C261 412 281 399 291 377 C298 361 301 341 301 303 L173 303 Z M166 587 L207 546 L387 659 L332 741 L166 587 Z " />
<glyph glyph-name="ecircumflex" unicode="&#xea;" horiz-adv-x="460" d="M431 224 C430 320 423 361 395 413 C365 469 304 503 235 503 C106 503 30 405 30 240 C30 81 105 -10 235 -10 C297 -10 344 8 379 47 C406 78 419 105 431 162 L308 170 C301 110 280 86 238 86 C191 86 172 119 172 198 L172 224 L431 224 Z M173 303 C175 380 194 412 237 412 C261 412 281 399 291 377 C298 361 301 341 301 303 L173 303 Z M45 553 L151 553 L241 611 L330 553 L436 553 L241 706 L45 553 Z " />
<glyph glyph-name="edieresis" unicode="&#xeb;" horiz-adv-x="460" d="M431 224 C430 320 423 361 395 413 C365 469 304 503 235 503 C106 503 30 405 30 240 C30 81 105 -10 235 -10 C297 -10 344 8 379 47 C406 78 419 105 431 162 L308 170 C301 110 280 86 238 86 C191 86 172 119 172 198 L172 224 L431 224 Z M173 303 C175 380 194 412 237 412 C261 412 281 399 291 377 C298 361 301 341 301 303 L173 303 Z M158 673 C127 673 102 650 102 620 C102 592 127 568 157 568 C189 568 214 591 214 620 C214 650 189 673 158 673 L158 673 Z M323 673 C292 673 267 650 267 620 C267 592 292 568 322 568 C354 568 379 591 379 620 C379 650 354 673 323 673 L323 673 Z " />
<glyph glyph-name="igrave" unicode="&#xec;" horiz-adv-x="238" d="M51 493 L51 0 L188 0 L188 493 L51 493 Z M197 587 L41 741 L-17 663 L156 546 L197 587 Z " />
<glyph glyph-name="iacute" unicode="&#xed;" horiz-adv-x="238" d="M51 493 L51 0 L188 0 L188 493 L51 493 Z M42 587 L83 546 L256 663 L198 741 L42 587 Z " />
<glyph glyph-name="icircumflex" unicode="&#xee;" horiz-adv-x="238" d="M50 493 L50 0 L187 0 L187 493 L50 493 Z M-50 553 L53 553 L119 611 L185 553 L288 553 L119 706 L-50 553 Z " />
<glyph glyph-name="idieresis" unicode="&#xef;" horiz-adv-x="238" d="M50 493 L50 0 L187 0 L187 493 L50 493 Z M47 673 C16 673 -9 650 -9 620 C-9 592 16 568 46 568 C78 568 103 591 103 620 C103 650 78 673 47 673 L47 673 Z M192 673 C161 673 136 650 136 620 C136 592 161 568 191 568 C223 568 248 591 248 620 C248 650 223 673 192 673 L192 673 Z " />
<glyph glyph-name="eth" unicode="&#xf0;" horiz-adv-x="460" d="M275 667 C263 686 251 704 239 721 L161 674 L168 664 L189 629 L195 619 L126 578 L156 528 L224 569 C241 539 251 515 263 480 C239 497 224 502 199 502 C159 502 118 483 91 452 C50 406 30 339 30 246 C30 75 97 -10 232 -10 C292 -10 338 7 369 41 C410 86 431 153 431 239 C431 361 390 486 307 619 L369 656 L339 706 L275 667 Z M232 407 C274 407 289 365 289 246 C289 126 274 86 231 86 C187 86 172 126 172 247 C172 367 187 407 232 407 L232 407 Z " />
<glyph glyph-name="ntilde" unicode="&#xf1;" horiz-adv-x="477" d="M51 493 L51 0 L188 0 L188 289 C188 329 189 346 193 359 C201 384 219 396 249 396 C286 396 297 380 297 323 L297 0 L434 0 L434 323 C434 397 430 422 416 447 C395 484 358 503 306 503 C241 503 207 482 182 426 L182 493 L51 493 Z M353 677 C332 649 322 642 307 642 C294 642 281 646 246 660 C215 673 201 677 183 677 C145 677 115 658 75 608 L117 575 C141 601 148 606 164 606 C176 606 189 602 223 587 C253 574 267 570 285 570 C326 570 363 594 396 644 L353 677 Z " />
<glyph glyph-name="ograve" unicode="&#xf2;" horiz-adv-x="460" d="M233 503 C96 503 30 419 30 245 C30 76 97 -10 231 -10 C364 -10 431 76 431 246 C431 416 364 503 233 503 L233 503 Z M232 407 C274 407 289 365 289 246 C289 126 274 86 231 86 C187 86 172 126 172 247 C172 367 187 407 232 407 L232 407 Z M312 587 L145 741 L91 659 L271 546 L312 587 Z " />
<glyph glyph-name="oacute" unicode="&#xf3;" horiz-adv-x="460" d="M233 503 C96 503 30 419 30 245 C30 76 97 -10 231 -10 C364 -10 431 76 431 246 C431 416 364 503 233 503 L233 503 Z M232 407 C274 407 289 365 289 246 C289 126 274 86 231 86 C187 86 172 126 172 247 C172 367 187 407 232 407 L232 407 Z M159 587 L200 546 L380 659 L325 741 L159 587 Z " />
<glyph glyph-name="ocircumflex" unicode="&#xf4;" horiz-adv-x="460" d="M233 503 C96 503 30 419 30 245 C30 76 97 -10 231 -10 C364 -10 431 76 431 246 C431 416 364 503 233 503 L233 503 Z M232 407 C274 407 289 365 289 246 C289 126 274 86 231 86 C187 86 172 126 172 247 C172 367 187 407 232 407 L232 407 Z M36 553 L143 553 L232 611 L321 553 L428 553 L232 706 L36 553 Z " />
<glyph glyph-name="otilde" unicode="&#xf5;" horiz-adv-x="460" d="M233 503 C96 503 30 419 30 245 C30 76 97 -10 231 -10 C364 -10 431 76 431 246 C431 416 364 503 233 503 L233 503 Z M232 407 C274 407 289 365 289 246 C289 126 274 86 231 86 C187 86 172 126 172 247 C172 367 187 407 232 407 L232 407 Z M354 677 C334 650 324 642 308 642 C295 642 283 646 248 660 C216 673 203 677 184 677 C147 677 116 657 77 608 L119 575 C142 601 150 606 165 606 C177 606 191 602 225 587 C254 574 268 570 286 570 C328 570 364 594 398 644 L354 677 Z " />
<glyph glyph-name="odieresis" unicode="&#xf6;" horiz-adv-x="460" d="M233 503 C96 503 30 419 30 245 C30 76 97 -10 231 -10 C364 -10 431 76 431 246 C431 416 364 503 233 503 L233 503 Z M232 407 C274 407 289 365 289 246 C289 126 274 86 231 86 C187 86 172 126 172 247 C172 367 187 407 232 407 L232 407 Z M150 673 C119 673 94 650 94 620 C94 592 119 568 149 568 C180 568 205 591 205 620 C205 650 180 673 150 673 L150 673 Z M314 673 C284 673 259 650 259 620 C259 592 284 568 314 568 C345 568 370 591 370 620 C370 650 345 673 314 673 L314 673 Z " />
<glyph glyph-name="divide" unicode="&#xf7;" horiz-adv-x="511" d="M460 280 L460 386 L51 386 L51 280 L460 280 Z M314 432 L314 564 L196 564 L196 432 L314 432 Z M314 103 L314 235 L196 235 L196 103 L314 103 Z " />
<glyph glyph-name="oslash" unicode="&#xf8;" horiz-adv-x="460" d="M353 544 L323 486 C293 498 268 503 230 503 C98 503 30 417 30 249 C30 149 48 91 94 38 L47 -57 L112 -57 L143 5 C175 -7 195 -10 230 -10 C364 -10 431 75 431 247 C431 340 413 400 371 450 L418 544 L353 544 Z M157 149 C154 187 153 209 153 239 C153 373 171 414 232 414 C248 414 259 411 276 403 L157 149 Z M305 333 C308 287 308 278 308 253 C308 120 290 79 230 79 C216 79 203 81 191 86 L305 333 Z " />
<glyph glyph-name="ugrave" unicode="&#xf9;" horiz-adv-x="477" d="M44 493 L44 173 C44 86 48 62 67 34 C87 5 122 -10 170 -10 C234 -10 260 6 298 67 L298 0 L427 0 L427 493 L290 493 L290 241 C290 164 289 147 283 132 C275 108 257 97 229 97 C206 97 193 104 186 121 C182 130 181 140 181 177 L181 493 L44 493 Z M313 587 L147 741 L92 659 L272 546 L313 587 Z " />
<glyph glyph-name="uacute" unicode="&#xfa;" horiz-adv-x="477" d="M44 493 L44 173 C44 86 48 62 67 34 C87 5 122 -10 170 -10 C234 -10 260 6 298 67 L298 0 L427 0 L427 493 L290 493 L290 241 C290 164 289 147 283 132 C275 108 257 97 229 97 C206 97 193 104 186 121 C182 130 181 140 181 177 L181 493 L44 493 Z M161 587 L202 546 L382 659 L327 741 L161 587 Z " />
<glyph glyph-name="ucircumflex" unicode="&#xfb;" horiz-adv-x="477" d="M43 493 L43 173 C43 86 47 62 66 34 C86 5 121 -10 169 -10 C233 -10 259 6 297 67 L297 0 L426 0 L426 493 L289 493 L289 241 C289 164 288 147 282 132 C274 108 256 97 228 97 C205 97 192 104 185 121 C181 130 180 140 180 177 L180 493 L43 493 Z M39 553 L145 553 L235 611 L324 553 L431 553 L235 706 L39 553 Z " />
<glyph glyph-name="udieresis" unicode="&#xfc;" horiz-adv-x="477" d="M44 493 L44 173 C44 86 48 62 67 34 C87 5 122 -10 170 -10 C234 -10 260 6 298 67 L298 0 L427 0 L427 493 L290 493 L290 241 C290 164 289 147 283 132 C275 108 257 97 229 97 C206 97 193 104 186 121 C182 130 181 140 181 177 L181 493 L44 493 Z M153 673 C122 673 97 650 97 620 C97 592 122 568 152 568 C184 568 209 591 209 620 C209 650 184 673 153 673 L153 673 Z M318 673 C287 673 262 649 262 620 C262 592 287 568 317 568 C349 568 374 591 374 620 C374 650 349 673 318 673 L318 673 Z " />
<glyph glyph-name="yacute" unicode="&#xfd;" horiz-adv-x="358" d="M-13 493 L129 9 C111 -52 99 -62 47 -62 C33 -62 25 -61 7 -59 L7 -167 C32 -173 45 -175 66 -175 C109 -175 142 -163 166 -139 C190 -114 201 -91 225 -8 L374 493 L255 493 L191 192 L124 493 L-13 493 Z M116 587 L157 546 L337 659 L282 741 L116 587 Z " />
<glyph glyph-name="thorn" unicode="&#xfe;" horiz-adv-x="477" d="M51 667 L51 -167 L186 -167 L188 37 C217 5 242 -7 281 -7 C388 -7 448 86 448 253 C448 406 389 500 293 500 C249 500 217 480 186 431 L186 667 L51 667 Z M186 295 C186 337 189 354 199 373 C211 395 231 409 251 409 C292 409 306 370 306 257 C306 125 293 89 244 89 C220 89 202 99 194 116 C189 129 186 155 186 202 L186 295 Z " />
<glyph glyph-name="ydieresis" unicode="&#xff;" horiz-adv-x="358" d="M-13 493 L129 9 C111 -52 99 -62 47 -62 C33 -62 25 -61 7 -59 L7 -167 C32 -173 45 -175 66 -175 C109 -175 142 -163 166 -139 C190 -114 201 -91 225 -8 L374 493 L255 493 L191 192 L124 493 L-13 493 Z M104 673 C73 673 48 650 48 620 C48 592 73 568 103 568 C135 568 160 591 160 620 C160 650 135 673 104 673 L104 673 Z M269 673 C238 673 213 650 213 620 C213 592 238 568 268 568 C300 568 325 591 325 620 C325 650 300 673 269 673 L269 673 Z " />
<glyph glyph-name="Amacron" unicode="&#x100;" horiz-adv-x="511" d="M180 667 L-20 0 L115 0 L147 137 L335 137 L368 0 L518 0 L328 667 L180 667 Z M307 252 L175 252 L240 524 L307 252 Z M108 820 L108 746 L390 746 L390 820 L108 820 Z " />
<glyph glyph-name="amacron" unicode="&#x101;" horiz-adv-x="477" d="M183 337 C188 391 204 412 241 412 C278 412 290 392 290 325 L290 306 C224 302 173 292 130 275 C70 251 36 196 36 125 C36 41 85 -10 166 -10 C204 -10 239 3 264 25 C277 37 285 48 301 75 C301 28 301 24 308 0 L435 0 C428 21 428 30 427 110 L427 306 C427 390 420 425 396 450 C365 484 314 503 252 503 C138 503 67 449 53 349 L183 337 Z M290 212 C290 160 285 134 271 112 C258 91 242 81 224 81 C194 81 178 103 178 143 C178 203 205 226 290 236 L290 212 Z M112 656 L112 584 L386 584 L386 656 L112 656 Z " />
<glyph glyph-name="Abreve" unicode="&#x102;" horiz-adv-x="511" d="M180 667 L-20 0 L115 0 L147 137 L335 137 L368 0 L518 0 L328 667 L180 667 Z M307 252 L175 252 L240 524 L307 252 Z M82 843 C111 762 160 728 249 728 C337 728 388 763 416 843 L335 843 C317 814 293 802 249 802 C205 802 180 814 164 843 L82 843 Z " />
<glyph glyph-name="abreve" unicode="&#x103;" horiz-adv-x="477" d="M183 337 C188 391 204 412 241 412 C278 412 290 392 290 325 L290 306 C224 302 173 292 130 275 C70 251 36 196 36 125 C36 41 85 -10 166 -10 C204 -10 239 3 264 25 C277 37 285 48 301 75 C301 28 301 24 308 0 L435 0 C428 21 428 30 427 110 L427 306 C427 390 420 425 396 450 C365 484 314 503 252 503 C138 503 67 449 53 349 L183 337 Z M290 212 C290 160 285 134 271 112 C258 91 242 81 224 81 C194 81 178 103 178 143 C178 203 205 226 290 236 L290 212 Z M87 684 C115 598 163 562 249 562 C334 562 382 598 410 684 L332 684 C315 648 291 634 249 634 C206 634 182 649 166 684 L87 684 Z " />
<glyph glyph-name="Aogonek" unicode="&#x104;" horiz-adv-x="511" d="M180 667 L-20 0 L115 0 L147 137 L335 137 L368 0 L464 0 C412 -32 393 -57 393 -97 C393 -154 441 -188 522 -188 C543 -188 555 -186 582 -180 L571 -132 C565 -134 551 -135 539 -135 C497 -135 472 -115 472 -81 C472 -54 485 -32 518 0 L328 667 L180 667 Z M307 252 L175 252 L240 524 L307 252 Z " />
<glyph glyph-name="aogonek" unicode="&#x105;" horiz-adv-x="477" d="M183 337 C188 391 204 412 241 412 C278 412 290 392 290 325 L290 306 C224 302 173 292 130 275 C70 251 36 196 36 125 C36 41 85 -10 166 -10 C204 -10 239 3 264 25 C277 37 285 48 301 75 C301 28 301 24 308 0 L383 0 C333 -30 314 -56 314 -93 C314 -149 361 -182 440 -182 C459 -182 471 -180 497 -174 L487 -128 C481 -130 467 -131 455 -131 C415 -131 391 -111 391 -79 C391 -53 403 -31 435 0 C428 21 428 30 427 110 L427 306 C427 380 421 413 404 440 C379 479 321 503 251 503 C138 503 67 449 53 349 L183 337 Z M290 212 C290 160 285 134 271 112 C258 91 242 81 224 81 C194 81 178 103 178 143 C178 203 205 226 290 236 L290 212 Z " />
<glyph glyph-name="Cacute" unicode="&#x106;" horiz-adv-x="545" d="M387 243 C376 151 346 109 293 109 C222 109 193 171 193 322 C193 489 222 558 293 558 C324 558 348 543 365 513 C378 490 382 467 386 409 L520 419 C514 495 503 538 477 580 C438 644 375 677 292 677 C130 677 39 553 39 333 C39 115 130 -10 290 -10 C423 -10 511 83 523 234 L387 243 Z M208 769 L238 718 L447 782 L414 878 L208 769 Z " />
<glyph glyph-name="cacute" unicode="&#x107;" horiz-adv-x="443" d="M420 312 C414 381 401 416 366 453 C334 487 291 503 234 503 C102 503 30 412 30 247 C30 79 98 -10 226 -10 C342 -10 405 53 420 184 L291 192 C287 127 271 101 235 101 C188 101 168 146 168 252 C168 353 190 399 237 399 C272 399 287 374 291 307 L420 312 Z M163 587 L204 546 L384 659 L329 741 L163 587 Z " />
<glyph glyph-name="Ccircumflex" unicode="&#x108;" horiz-adv-x="545" d="M387 243 C376 151 346 109 293 109 C222 109 193 171 193 322 C193 489 222 558 293 558 C324 558 348 543 365 513 C378 490 382 467 386 409 L520 419 C514 495 503 538 477 580 C438 644 375 677 292 677 C130 677 39 553 39 333 C39 115 130 -10 290 -10 C423 -10 511 83 523 234 L387 243 Z M89 726 L199 726 L291 774 L383 726 L492 726 L291 872 L89 726 Z " />
<glyph glyph-name="ccircumflex" unicode="&#x109;" horiz-adv-x="443" d="M420 312 C414 381 401 416 366 453 C334 487 291 503 234 503 C102 503 30 412 30 247 C30 79 98 -10 226 -10 C342 -10 405 53 420 184 L291 192 C287 127 271 101 235 101 C188 101 168 146 168 252 C168 353 190 399 237 399 C272 399 287 374 291 307 L420 312 Z M38 549 L145 549 L234 607 L324 549 L430 549 L234 702 L38 549 Z " />
<glyph glyph-name="Cdotaccent" unicode="&#x10a;" horiz-adv-x="545" d="M387 243 C376 151 346 109 293 109 C222 109 193 171 193 322 C193 489 222 558 293 558 C324 558 348 543 365 513 C378 490 382 467 386 409 L520 419 C514 495 503 538 477 580 C438 644 375 677 292 677 C130 677 39 553 39 333 C39 115 130 -10 290 -10 C423 -10 511 83 523 234 L387 243 Z M289 846 C254 846 225 818 225 783 C225 749 254 721 288 721 C324 721 353 748 353 783 C353 818 324 846 289 846 L289 846 Z " />
<glyph glyph-name="cdotaccent" unicode="&#x10b;" horiz-adv-x="443" d="M420 312 C414 381 401 416 366 453 C334 487 291 503 234 503 C102 503 30 412 30 247 C30 79 98 -10 226 -10 C342 -10 405 53 420 184 L291 192 C287 127 271 101 235 101 C188 101 168 146 168 252 C168 353 190 399 237 399 C272 399 287 374 291 307 L420 312 Z M236 681 C202 681 174 654 174 620 C174 587 202 560 235 560 C270 560 298 587 298 620 C298 654 271 681 236 681 L236 681 Z " />
<glyph glyph-name="Ccaron" unicode="&#x10c;" horiz-adv-x="545" d="M387 243 C376 151 346 109 293 109 C222 109 193 171 193 322 C193 489 222 558 293 558 C324 558 348 543 365 513 C378 490 382 467 386 409 L520 419 C514 495 503 538 477 580 C438 644 375 677 292 677 C130 677 39 553 39 333 C39 115 130 -10 290 -10 C423 -10 511 83 523 234 L387 243 Z M89 853 L291 707 L492 853 L383 853 L291 805 L199 853 L89 853 Z " />
<glyph glyph-name="ccaron" unicode="&#x10d;" horiz-adv-x="443" d="M420 312 C414 381 401 416 366 453 C334 487 291 503 234 503 C102 503 30 412 30 247 C30 79 98 -10 226 -10 C342 -10 405 53 420 184 L291 192 C287 127 271 101 235 101 C188 101 168 146 168 252 C168 353 190 399 237 399 C272 399 287 374 291 307 L420 312 Z M41 696 L237 543 L432 696 L326 696 L237 638 L147 696 L41 696 Z " />
<glyph glyph-name="Dcaron" unicode="&#x10e;" horiz-adv-x="562" d="M63 667 L63 0 L238 0 C328 0 364 9 410 40 C485 91 528 200 528 339 C528 468 492 568 426 616 C377 653 319 667 220 667 L63 667 Z M209 552 L234 552 C284 552 307 544 330 517 C359 483 373 428 373 341 C373 254 361 194 336 159 C312 125 287 115 234 115 L209 115 L209 552 Z M61 853 L263 707 L464 853 L355 853 L263 805 L171 853 L61 853 Z " />
<glyph glyph-name="dcaron" unicode="&#x10f;" horiz-adv-x="581" d="M292 667 L292 447 C268 485 241 500 193 500 C90 500 30 407 30 246 C30 85 87 -7 187 -7 C245 -7 274 16 300 82 L300 0 L427 0 L427 667 L292 667 Z M292 199 C292 122 274 89 231 89 C202 89 185 109 178 149 C173 176 172 195 172 270 C172 369 189 409 232 409 C254 409 273 396 280 376 C290 348 292 337 292 286 L292 199 Z M487 667 L459 471 L511 471 L589 667 L487 667 Z " />
<glyph glyph-name="Dcroat" unicode="&#x110;" horiz-adv-x="562" d="M63 667 L63 387 L6 387 L6 287 L63 287 L63 0 L239 0 C328 0 365 8 411 40 C486 91 529 199 529 339 C529 468 492 567 427 616 C378 653 320 667 221 667 L63 667 Z M210 552 L235 552 C285 552 308 544 332 517 C361 483 375 427 375 340 C375 254 362 194 337 158 C313 125 288 115 235 115 L210 115 L210 287 L307 287 L307 387 L210 387 L210 552 Z " />
<glyph glyph-name="dcroat" unicode="&#x111;" horiz-adv-x="477" d="M292 667 L292 609 L195 609 L195 542 L292 542 L292 447 C268 486 240 500 192 500 C90 500 30 406 30 246 C30 85 87 -7 187 -7 C245 -7 274 16 300 82 L300 0 L427 0 L427 542 L480 542 L480 609 L427 609 L427 667 L292 667 Z M292 199 C292 122 274 89 231 89 C202 89 185 108 178 149 C173 177 172 195 172 270 C172 369 189 409 232 409 C254 409 273 396 280 376 C290 348 292 337 292 286 L292 199 Z " />
<glyph glyph-name="Emacron" unicode="&#x112;" horiz-adv-x="477" d="M63 667 L63 0 L468 0 L468 119 L209 119 L209 283 L411 283 L411 398 L209 398 L209 552 L468 552 L468 667 L63 667 Z M124 820 L124 746 L407 746 L407 820 L124 820 Z " />
<glyph glyph-name="emacron" unicode="&#x113;" horiz-adv-x="460" d="M431 224 C430 320 423 361 395 413 C365 469 304 503 235 503 C106 503 30 405 30 240 C30 81 105 -10 235 -10 C297 -10 344 8 379 47 C406 78 419 105 431 162 L308 170 C301 110 280 86 238 86 C191 86 172 119 172 198 L172 224 L431 224 Z M173 303 C175 380 194 412 237 412 C261 412 281 399 291 377 C298 361 301 341 301 303 L173 303 Z M103 656 L103 584 L378 584 L378 656 L103 656 Z " />
<glyph glyph-name="Ebreve" unicode="&#x114;" horiz-adv-x="477" d="M63 667 L63 0 L468 0 L468 119 L209 119 L209 283 L411 283 L411 398 L209 398 L209 552 L468 552 L468 667 L63 667 Z M99 843 C128 762 177 728 266 728 C354 728 405 763 432 843 L351 843 C334 814 310 802 266 802 C222 802 197 814 180 843 L99 843 Z " />
<glyph glyph-name="ebreve" unicode="&#x115;" horiz-adv-x="460" d="M431 224 C430 320 423 361 395 413 C365 469 304 503 235 503 C106 503 30 405 30 240 C30 81 105 -10 235 -10 C297 -10 344 8 379 47 C406 78 419 105 431 162 L308 170 C301 110 280 86 238 86 C191 86 172 119 172 198 L172 224 L431 224 Z M173 303 C175 380 194 412 237 412 C261 412 281 399 291 377 C298 361 301 341 301 303 L173 303 Z M79 684 C107 598 155 562 241 562 C326 562 374 598 402 684 L324 684 C307 648 283 634 240 634 C198 634 174 649 157 684 L79 684 Z " />
<glyph glyph-name="Edotaccent" unicode="&#x116;" horiz-adv-x="477" d="M63 667 L63 0 L468 0 L468 119 L209 119 L209 283 L411 283 L411 398 L209 398 L209 552 L468 552 L468 667 L63 667 Z M266 846 C231 846 202 818 202 783 C202 749 231 721 265 721 C301 721 330 748 330 783 C330 818 301 846 266 846 L266 846 Z " />
<glyph glyph-name="edotaccent" unicode="&#x117;" horiz-adv-x="460" d="M431 224 C430 320 423 361 395 413 C365 469 304 503 235 503 C106 503 30 405 30 240 C30 81 105 -10 235 -10 C297 -10 344 8 379 47 C406 78 419 105 431 162 L308 170 C301 110 280 86 238 86 C191 86 172 119 172 198 L172 224 L431 224 Z M173 303 C175 380 194 412 237 412 C261 412 281 399 291 377 C298 361 301 341 301 303 L173 303 Z M240 681 C206 681 178 654 178 620 C178 587 206 560 239 560 C274 560 302 587 302 620 C302 654 275 681 240 681 L240 681 Z " />
<glyph glyph-name="Eogonek" unicode="&#x118;" horiz-adv-x="477" d="M63 667 L63 0 L415 0 C362 -32 344 -57 344 -96 C344 -153 393 -188 473 -188 C493 -188 505 -186 532 -180 L522 -132 C516 -134 501 -135 489 -135 C448 -135 423 -115 423 -81 C423 -54 436 -31 468 0 L468 119 L209 119 L209 283 L411 283 L411 398 L209 398 L209 552 L468 552 L468 667 L63 667 Z " />
<glyph glyph-name="eogonek" unicode="&#x119;" horiz-adv-x="460" d="M402 -122 C396 -123 384 -123 368 -123 C329 -123 306 -103 306 -70 C306 -42 320 -11 344 12 C401 66 416 92 431 162 L308 170 C301 109 281 85 238 85 C191 85 172 118 172 198 L172 224 L431 224 C430 320 423 361 395 413 C365 469 304 503 235 503 C106 503 30 405 30 239 C30 137 63 60 123 19 C152 -1 193 -11 244 -11 C254 -11 263 -10 281 -6 C243 -31 229 -53 229 -86 C229 -142 276 -175 355 -175 C374 -175 386 -173 412 -168 L402 -122 Z M173 303 C175 380 194 412 237 412 C261 412 281 399 291 377 C298 361 301 341 301 303 L173 303 Z " />
<glyph glyph-name="Ecaron" unicode="&#x11a;" horiz-adv-x="477" d="M63 667 L63 0 L468 0 L468 119 L209 119 L209 283 L411 283 L411 398 L209 398 L209 552 L468 552 L468 667 L63 667 Z M64 853 L266 707 L467 853 L358 853 L266 805 L174 853 L64 853 Z " />
<glyph glyph-name="ecaron" unicode="&#x11b;" horiz-adv-x="460" d="M431 224 C430 320 423 361 395 413 C365 469 304 503 235 503 C106 503 30 405 30 240 C30 81 105 -10 235 -10 C297 -10 344 8 379 47 C406 78 419 105 431 162 L308 170 C301 110 280 86 238 86 C191 86 172 119 172 198 L172 224 L431 224 Z M173 303 C175 380 194 412 237 412 C261 412 281 399 291 377 C298 361 301 341 301 303 L173 303 Z M45 696 L240 543 L436 696 L330 696 L240 638 L151 696 L45 696 Z " />
<glyph glyph-name="Gcircumflex" unicode="&#x11c;" horiz-adv-x="579" d="M296 356 L296 241 L396 241 C394 198 391 180 384 163 C369 128 342 109 305 109 C226 109 192 177 192 331 C192 486 227 558 300 558 C332 558 357 543 373 515 C384 496 390 473 396 427 L528 449 C507 608 438 677 298 677 C235 677 183 660 143 625 C75 566 38 460 38 325 C38 118 133 -10 285 -10 C357 -10 408 17 447 76 L466 0 L528 0 L528 356 L296 356 Z M99 726 L208 726 L300 774 L392 726 L502 726 L300 872 L99 726 Z " />
<glyph glyph-name="gcircumflex" unicode="&#x11d;" horiz-adv-x="460" d="M470 551 C455 555 448 556 432 556 C381 556 363 542 341 481 C299 498 275 503 233 503 C118 503 49 447 49 353 C49 291 68 259 122 229 C95 214 85 207 72 195 C51 177 37 147 37 121 C37 83 57 56 101 35 C44 15 21 -12 21 -57 C21 -134 90 -174 222 -174 C383 -174 464 -119 464 -9 C464 37 448 73 417 96 C387 119 363 125 267 131 C184 136 181 136 169 141 C156 146 150 154 150 165 C150 181 161 194 182 206 C209 200 224 198 247 198 C353 198 425 258 425 346 C425 385 412 418 388 444 C392 457 409 465 438 465 C450 465 457 464 470 461 L470 551 Z M240 429 C270 429 283 405 283 350 C283 293 271 272 239 272 C206 272 191 296 191 346 C191 406 205 429 240 429 L240 429 Z M177 21 C203 18 216 17 239 16 C302 13 310 11 325 3 C338 -5 345 -19 345 -36 C345 -73 316 -88 244 -88 C168 -88 134 -72 134 -38 C134 -12 147 6 177 21 L177 21 Z M73 566 L176 566 L239 624 L302 566 L405 566 L239 719 L73 566 Z " />
<glyph glyph-name="Gbreve" unicode="&#x11e;" horiz-adv-x="579" d="M296 356 L296 241 L396 241 C394 198 391 180 384 163 C369 128 342 109 305 109 C226 109 192 177 192 331 C192 486 227 558 300 558 C332 558 357 543 373 515 C384 496 390 473 396 427 L528 449 C507 608 438 677 298 677 C235 677 183 660 143 625 C75 566 38 460 38 325 C38 118 133 -10 285 -10 C357 -10 408 17 447 76 L466 0 L528 0 L528 356 L296 356 Z M135 843 C164 762 213 728 302 728 C390 728 440 763 468 843 L387 843 C370 814 345 802 302 802 C258 802 233 814 216 843 L135 843 Z " />
<glyph glyph-name="gbreve" unicode="&#x11f;" horiz-adv-x="460" d="M470 574 C455 578 448 579 432 579 C372 579 349 554 339 481 C298 498 274 503 233 503 C118 503 49 447 49 353 C49 291 68 259 122 229 C95 214 85 207 72 195 C51 177 37 147 37 121 C37 83 57 56 101 35 C44 15 21 -12 21 -57 C21 -134 90 -174 222 -174 C383 -174 464 -119 464 -9 C464 37 448 73 417 96 C387 119 363 125 267 131 C184 136 181 136 169 141 C156 146 150 154 150 165 C150 181 161 194 182 206 C209 200 224 198 247 198 C353 198 425 258 425 346 C425 385 412 418 388 444 C395 475 411 488 440 488 C451 488 457 487 470 485 L470 574 Z M240 429 C270 429 283 405 283 350 C283 293 271 272 239 272 C206 272 191 296 191 346 C191 406 205 429 240 429 L240 429 Z M177 21 C203 18 216 17 239 16 C302 13 310 11 325 3 C338 -5 345 -19 345 -36 C345 -73 316 -88 244 -88 C168 -88 134 -72 134 -38 C134 -12 147 6 177 21 L177 21 Z M77 684 C106 598 153 562 239 562 C325 562 373 598 401 684 L322 684 C305 648 281 634 239 634 C196 634 172 649 156 684 L77 684 Z " />
<glyph glyph-name="Gdotaccent" unicode="&#x120;" horiz-adv-x="579" d="M296 356 L296 241 L396 241 C394 198 391 180 384 163 C369 128 342 109 305 109 C226 109 192 177 192 331 C192 486 227 558 300 558 C332 558 357 543 373 515 C384 496 390 473 396 427 L528 449 C507 608 438 677 298 677 C235 677 183 660 143 625 C75 566 38 460 38 325 C38 118 133 -10 285 -10 C357 -10 408 17 447 76 L466 0 L528 0 L528 356 L296 356 Z M300 846 C265 846 236 818 236 783 C236 749 265 721 299 721 C335 721 364 748 364 783 C364 818 335 846 300 846 L300 846 Z " />
<glyph glyph-name="gdotaccent" unicode="&#x121;" horiz-adv-x="460" d="M470 574 C455 578 448 579 432 579 C372 579 349 554 339 481 C298 498 274 503 233 503 C118 503 49 447 49 353 C49 291 68 259 122 229 C95 214 85 207 72 195 C51 177 37 147 37 121 C37 83 57 56 101 35 C44 15 21 -12 21 -57 C21 -134 90 -174 222 -174 C383 -174 464 -119 464 -9 C464 37 448 73 417 96 C387 119 363 125 267 131 C184 136 181 136 169 141 C156 146 150 154 150 165 C150 181 161 194 182 206 C209 200 224 198 247 198 C353 198 425 258 425 346 C425 385 412 418 388 444 C395 475 411 488 440 488 C451 488 457 487 470 485 L470 574 Z M240 429 C270 429 283 405 283 350 C283 293 271 272 239 272 C206 272 191 296 191 346 C191 406 205 429 240 429 L240 429 Z M177 21 C203 18 216 17 239 16 C302 13 310 11 325 3 C338 -5 345 -19 345 -36 C345 -73 316 -88 244 -88 C168 -88 134 -72 134 -38 C134 -12 147 6 177 21 L177 21 Z M239 681 C205 681 177 654 177 620 C177 587 205 560 238 560 C273 560 301 587 301 620 C301 654 274 681 239 681 L239 681 Z " />
<glyph glyph-name="Gcommaaccent" unicode="&#x122;" horiz-adv-x="579" d="M296 356 L296 241 L396 241 C394 198 391 180 384 163 C369 128 342 109 305 109 C226 109 192 177 192 331 C192 486 227 558 300 558 C332 558 357 543 373 515 C384 496 390 473 396 427 L528 449 C507 608 438 677 298 677 C235 677 183 660 143 625 C75 566 38 460 38 325 C38 118 133 -10 285 -10 C357 -10 408 17 447 76 L466 0 L528 0 L528 356 L296 356 Z M248 -53 L221 -242 L275 -242 L353 -53 L248 -53 Z " />
<glyph glyph-name="gcommaaccent" unicode="&#x123;" horiz-adv-x="460" d="M470 574 C455 578 448 579 432 579 C372 579 349 554 339 481 C298 498 274 503 233 503 C118 503 49 447 49 353 C49 291 68 259 122 229 C95 214 85 207 72 195 C51 177 37 147 37 121 C37 83 57 56 101 35 C44 15 21 -12 21 -57 C21 -134 90 -174 222 -174 C383 -174 464 -119 464 -9 C464 37 448 73 417 96 C387 119 363 125 267 131 C184 136 181 136 169 141 C156 146 150 154 150 165 C150 181 161 194 182 206 C209 200 224 198 247 198 C353 198 425 258 425 346 C425 385 412 418 388 444 C395 475 411 488 440 488 C451 488 457 487 470 485 L470 574 Z M240 429 C270 429 283 405 283 350 C283 293 271 272 239 272 C206 272 191 296 191 346 C191 406 205 429 240 429 L240 429 Z M177 21 C203 18 216 17 239 16 C302 13 310 11 325 3 C338 -5 345 -19 345 -36 C345 -73 316 -88 244 -88 C168 -88 134 -72 134 -38 C134 -12 147 6 177 21 L177 21 Z M283 554 L310 740 L259 740 L181 554 L283 554 Z " />
<glyph glyph-name="Hcircumflex" unicode="&#x124;" horiz-adv-x="579" d="M63 667 L63 0 L209 0 L209 273 L370 273 L370 0 L516 0 L516 667 L370 667 L370 398 L209 398 L209 667 L63 667 Z M88 726 L197 726 L290 774 L382 726 L491 726 L290 872 L88 726 Z " />
<glyph glyph-name="hcircumflex" unicode="&#x125;" horiz-adv-x="477" d="M50 667 L50 0 L187 0 L187 313 C187 374 203 396 248 396 C287 396 296 381 296 316 L296 0 L433 0 L433 316 C433 390 430 417 417 443 C398 483 362 503 309 503 C251 503 217 486 187 441 L187 667 L50 667 Z M-69 724 L37 724 L127 782 L216 724 L323 724 L127 877 L-69 724 Z " />
<glyph glyph-name="Hbar" unicode="&#x126;" horiz-adv-x="579" d="M209 586 L209 667 L63 667 L63 586 L-4 586 L-4 477 L63 477 L63 0 L209 0 L209 273 L370 273 L370 0 L516 0 L516 477 L583 477 L583 586 L516 586 L516 667 L370 667 L370 586 L209 586 Z M209 477 L370 477 L370 398 L209 398 L209 477 Z " />
<glyph glyph-name="hbar" unicode="&#x127;" horiz-adv-x="485" d="M176 628 L176 667 L39 667 L39 628 L-28 628 L-28 548 L39 548 L39 0 L176 0 L176 313 C176 374 192 396 237 396 C276 396 285 381 285 316 L285 0 L422 0 L422 316 C422 390 419 417 406 443 C387 483 351 503 298 503 C240 503 206 486 176 441 L176 548 L356 548 L356 628 L176 628 Z " />
<glyph glyph-name="Itilde" unicode="&#x128;" horiz-adv-x="272" d="M63 667 L63 0 L209 0 L209 667 L63 667 Z M264 837 C242 809 232 802 215 802 C201 802 188 806 151 821 C118 834 103 838 83 838 C43 838 12 818 -31 766 L14 733 C40 760 47 764 63 764 C77 764 89 760 126 745 C157 732 172 728 191 728 C235 728 275 753 310 804 L264 837 Z " />
<glyph glyph-name="itilde" unicode="&#x129;" horiz-adv-x="238" d="M50 493 L50 0 L187 0 L187 493 L50 493 Z M234 672 C213 645 203 637 187 637 C175 637 162 641 127 655 C96 668 82 672 64 672 C26 672 -5 652 -44 603 L-2 570 C22 596 29 601 44 601 C57 601 70 597 104 582 C134 569 147 565 165 565 C207 565 243 589 277 640 L234 672 Z " />
<glyph glyph-name="Imacron" unicode="&#x12a;" horiz-adv-x="272" d="M63 667 L63 0 L209 0 L209 667 L63 667 Z M5 820 L5 746 L267 746 L267 820 L5 820 Z " />
<glyph glyph-name="imacron" unicode="&#x12b;" horiz-adv-x="238" d="M50 493 L50 0 L187 0 L187 493 L50 493 Z M-5 656 L-5 584 L243 584 L243 656 L-5 656 Z " />
<glyph glyph-name="Ibreve" unicode="&#x12c;" horiz-adv-x="272" d="M63 667 L63 0 L209 0 L209 667 L63 667 Z M-29 842 C0 761 49 727 138 727 C226 727 276 762 304 842 L223 842 C206 813 181 801 137 801 C94 801 69 813 52 842 L-29 842 Z " />
<glyph glyph-name="ibreve" unicode="&#x12d;" horiz-adv-x="238" d="M51 493 L51 0 L188 0 L188 493 L51 493 Z M-26 684 C-11 605 40 562 120 562 C199 562 251 605 265 684 L187 684 C181 652 156 634 120 634 C83 634 58 653 53 684 L-26 684 Z " />
<glyph glyph-name="Iogonek" unicode="&#x12e;" horiz-adv-x="272" d="M209 667 L63 667 L63 0 L152 0 C96 -28 75 -55 75 -96 C75 -150 123 -188 192 -188 C210 -188 225 -186 250 -180 L239 -132 C229 -134 224 -135 218 -135 C178 -135 154 -114 154 -80 C154 -51 163 -37 209 0 L209 667 Z " />
<glyph glyph-name="iogonek" unicode="&#x12f;" horiz-adv-x="238" d="M187 493 L50 493 L50 0 L132 0 C78 -32 60 -56 60 -93 C60 -144 107 -182 170 -182 C187 -182 201 -180 226 -174 L216 -128 C202 -130 197 -131 191 -131 C161 -131 137 -108 137 -77 C137 -50 149 -30 187 0 L187 493 Z M189 534 L189 670 L49 670 L49 534 L189 534 Z " />
<glyph glyph-name="Idotaccent" unicode="&#x130;" horiz-adv-x="272" d="M63 667 L63 0 L209 0 L209 667 L63 667 Z M136 846 C101 846 72 818 72 783 C72 749 101 721 135 721 C171 721 200 748 200 783 C200 818 171 846 136 846 L136 846 Z " />
<glyph glyph-name="dotlessi" unicode="&#x131;" horiz-adv-x="238" d="M51 493 L51 0 L188 0 L188 493 L51 493 Z " />
<glyph glyph-name="IJ" unicode="&#x132;" horiz-adv-x="593" d="M63 667 L63 0 L209 0 L209 667 L63 667 Z M387 667 L387 224 C387 136 375 116 323 116 C307 116 292 118 264 122 L264 0 C312 -8 328 -10 354 -10 C415 -10 462 5 489 35 C522 70 533 118 533 224 L533 667 L387 667 Z " />
<glyph glyph-name="ij" unicode="&#x133;" horiz-adv-x="477" d="M50 493 L50 0 L187 0 L187 493 L50 493 Z M189 534 L189 670 L49 670 L49 534 L189 534 Z M294 493 L294 20 C293 -35 293 -35 287 -46 C281 -58 270 -63 248 -63 C243 -63 239 -63 230 -61 L230 -174 C266 -179 282 -181 304 -181 C355 -181 393 -162 412 -126 C427 -99 431 -67 431 16 L431 493 L294 493 Z M432 534 L432 670 L292 670 L292 534 L432 534 Z " />
<glyph glyph-name="Jcircumflex" unicode="&#x134;" horiz-adv-x="324" d="M101 667 L101 224 C101 136 89 116 37 116 C21 116 6 118 -22 122 L-22 0 C26 -8 42 -10 68 -10 C129 -10 176 5 203 35 C236 70 247 118 247 224 L247 667 L101 667 Z M-19 723 L91 723 L183 771 L275 723 L385 723 L183 869 L-19 723 Z " />
<glyph glyph-name="jcircumflex" unicode="&#x135;" horiz-adv-x="239" d="M8 493 L8 20 C7 -35 7 -35 1 -46 C-5 -58 -16 -63 -38 -63 C-43 -63 -47 -63 -56 -61 L-56 -174 C-21 -179 -4 -181 18 -181 C69 -181 107 -162 126 -126 C141 -99 145 -68 145 16 L145 493 L8 493 Z M-111 556 L-5 556 L85 614 L174 556 L281 556 L85 709 L-111 556 Z " />
<glyph glyph-name="Kcommaaccent" unicode="&#x136;" horiz-adv-x="528" d="M63 667 L63 0 L209 0 L209 226 L264 307 L382 0 L533 0 L352 422 L519 667 L371 667 L209 389 L209 667 L63 667 Z M246 -53 L219 -242 L273 -242 L351 -53 L246 -53 Z " />
<glyph glyph-name="kcommaaccent" unicode="&#x137;" horiz-adv-x="460" d="M51 667 L51 0 L188 0 L188 159 L239 229 L316 0 L464 0 L327 328 L452 493 L327 493 L188 303 L188 667 L51 667 Z M201 -53 L173 -239 L224 -239 L302 -53 L201 -53 Z " />
<glyph glyph-name="kgreenlandic" unicode="&#x138;" horiz-adv-x="460" d="M51 493 L51 0 L188 0 L188 159 L239 229 L316 0 L464 0 L327 328 L452 493 L327 493 L188 303 L188 493 L51 493 Z " />
<glyph glyph-name="Lacute" unicode="&#x139;" horiz-adv-x="426" d="M63 667 L63 0 L424 0 L424 125 L209 125 L209 667 L63 667 Z M57 769 L87 718 L296 782 L263 878 L57 769 Z " />
<glyph glyph-name="lacute" unicode="&#x13a;" horiz-adv-x="239" d="M45 667 L45 0 L182 0 L182 667 L45 667 Z M39 766 L69 718 L268 789 L232 878 L39 766 Z " />
<glyph glyph-name="Lcommaaccent" unicode="&#x13b;" horiz-adv-x="426" d="M63 667 L63 0 L424 0 L424 125 L209 125 L209 667 L63 667 Z M195 -53 L167 -242 L222 -242 L300 -53 L195 -53 Z " />
<glyph glyph-name="lcommaaccent" unicode="&#x13c;" horiz-adv-x="239" d="M51 667 L51 0 L188 0 L188 667 L51 667 Z M71 -53 L43 -239 L94 -239 L172 -53 L71 -53 Z " />
<glyph glyph-name="Lcaron" unicode="&#x13d;" horiz-adv-x="426" d="M63 667 L63 0 L424 0 L424 125 L209 125 L209 667 L63 667 Z M303 667 L275 471 L330 471 L408 667 L303 667 Z " />
<glyph glyph-name="lcaron" unicode="&#x13e;" horiz-adv-x="343" d="M51 667 L51 0 L188 0 L188 667 L51 667 Z M248 667 L221 471 L272 471 L350 667 L248 667 Z " />
<glyph glyph-name="Ldot" unicode="&#x13f;" horiz-adv-x="426" d="M63 667 L63 0 L424 0 L424 125 L209 125 L209 667 L63 667 Z M274 415 L274 264 L424 264 L424 415 L274 415 Z " />
<glyph glyph-name="ldot" unicode="&#x140;" horiz-adv-x="379" d="M51 667 L51 0 L188 0 L188 667 L51 667 Z M239 412 L239 265 L379 264 L379 412 L239 412 Z " />
<glyph glyph-name="Lslash" unicode="&#x141;" horiz-adv-x="426" d="M63 667 L63 335 L6 277 L6 160 L63 217 L63 0 L424 0 L424 125 L210 125 L210 317 L318 426 L318 544 L210 435 L210 667 L63 667 Z " />
<glyph glyph-name="lslash" unicode="&#x142;" horiz-adv-x="273" d="M68 667 L68 351 L8 290 L8 193 L68 254 L68 0 L205 0 L205 345 L265 402 L265 500 L205 442 L205 667 L68 667 Z " />
<glyph glyph-name="Nacute" unicode="&#x143;" horiz-adv-x="562" d="M57 667 L57 0 L171 0 L171 483 L373 0 L504 0 L504 667 L390 667 L390 253 L220 667 L57 667 Z M198 769 L228 718 L437 782 L404 878 L198 769 Z " />
<glyph glyph-name="nacute" unicode="&#x144;" horiz-adv-x="477" d="M51 493 L51 0 L188 0 L188 289 C188 329 189 346 193 359 C201 384 219 396 249 396 C286 396 297 380 297 323 L297 0 L434 0 L434 323 C434 397 430 422 416 447 C395 484 358 503 306 503 C241 503 207 482 182 426 L182 493 L51 493 Z M168 587 L210 546 L390 659 L335 741 L168 587 Z " />
<glyph glyph-name="Ncommaaccent" unicode="&#x145;" horiz-adv-x="562" d="M57 667 L57 0 L171 0 L171 483 L373 0 L504 0 L504 667 L390 667 L390 253 L220 667 L57 667 Z M232 -53 L204 -242 L259 -242 L337 -53 L232 -53 Z " />
<glyph glyph-name="ncommaaccent" unicode="&#x146;" horiz-adv-x="477" d="M51 493 L51 0 L188 0 L188 289 C188 329 189 346 193 359 C201 384 219 396 249 396 C286 396 297 380 297 323 L297 0 L434 0 L434 323 C434 397 430 422 416 447 C395 484 358 503 306 503 C241 503 207 482 182 426 L182 493 L51 493 Z M195 -53 L168 -239 L219 -239 L297 -53 L195 -53 Z " />
<glyph glyph-name="Ncaron" unicode="&#x147;" horiz-adv-x="562" d="M57 667 L57 0 L171 0 L171 483 L373 0 L504 0 L504 667 L390 667 L390 253 L220 667 L57 667 Z M82 853 L284 707 L486 853 L376 853 L284 805 L192 853 L82 853 Z " />
<glyph glyph-name="ncaron" unicode="&#x148;" horiz-adv-x="477" d="M50 493 L50 0 L187 0 L187 289 C187 329 188 346 192 359 C200 384 218 396 248 396 C285 396 296 380 296 323 L296 0 L433 0 L433 323 C433 397 429 422 415 447 C394 484 357 503 305 503 C240 503 206 482 181 426 L181 493 L50 493 Z M39 696 L235 543 L431 696 L324 696 L235 638 L145 696 L39 696 Z " />
<glyph glyph-name="napostrophe" unicode="&#x149;" horiz-adv-x="542" d="M95 493 L95 0 L232 0 L232 289 C232 329 233 346 237 359 C245 384 263 396 292 396 C329 396 340 380 340 323 L340 0 L477 0 L477 323 C477 397 473 422 459 447 C438 484 401 503 349 503 C285 503 251 481 226 426 L226 493 L95 493 Z M-28 685 L-28 537 L27 537 L-28 407 L26 407 L97 537 L97 685 L-28 685 Z " />
<glyph glyph-name="Eng" unicode="&#x14a;" horiz-adv-x="584" d="M47 0 L193 0 L193 372 C193 480 242 552 317 552 C368 552 393 516 393 442 L393 39 C393 -44 376 -63 303 -63 C284 -63 281 -63 235 -54 L235 -173 C280 -184 286 -185 318 -185 C386 -185 439 -166 478 -129 C522 -86 539 -33 539 64 L539 426 C539 489 532 532 516 573 C489 639 426 677 345 677 C280 677 231 653 190 599 L190 667 L47 667 L47 0 Z " />
<glyph glyph-name="eng" unicode="&#x14b;" horiz-adv-x="460" d="M209 -159 C253 -167 265 -169 289 -169 C387 -169 434 -114 434 0 L434 323 C434 397 430 422 416 447 C395 484 358 503 306 503 C242 503 207 481 182 426 L182 493 L51 493 L51 0 L188 0 L188 289 C188 329 189 346 193 359 C202 384 219 396 249 396 C286 396 297 380 297 323 L297 0 C297 -42 291 -53 268 -53 C251 -53 239 -51 209 -44 L209 -159 Z " />
<glyph glyph-name="Omacron" unicode="&#x14c;" horiz-adv-x="562" d="M284 677 C121 677 39 562 39 331 C39 107 122 -10 281 -10 C440 -10 523 107 523 333 C523 464 497 554 443 613 C405 654 348 677 284 677 L284 677 Z M282 558 C346 558 369 500 369 334 C369 166 347 109 281 109 C215 109 193 166 193 335 C193 502 216 558 282 558 L282 558 Z M143 820 L143 746 L425 746 L425 820 L143 820 Z " />
<glyph glyph-name="omacron" unicode="&#x14d;" horiz-adv-x="460" d="M233 503 C96 503 30 419 30 245 C30 76 97 -10 231 -10 C364 -10 431 76 431 246 C431 416 364 503 233 503 L233 503 Z M232 407 C274 407 289 365 289 246 C289 126 274 86 231 86 C187 86 172 126 172 247 C172 367 187 407 232 407 L232 407 Z M95 656 L95 584 L369 584 L369 656 L95 656 Z " />
<glyph glyph-name="Obreve" unicode="&#x14e;" horiz-adv-x="562" d="M284 677 C121 677 39 562 39 331 C39 107 122 -10 281 -10 C440 -10 523 107 523 333 C523 464 497 554 443 613 C405 654 348 677 284 677 L284 677 Z M282 558 C346 558 369 500 369 334 C369 166 347 109 281 109 C215 109 193 166 193 335 C193 502 216 558 282 558 L282 558 Z M115 844 C143 763 192 729 281 729 C370 729 420 764 448 844 L367 844 C349 815 325 803 281 803 C237 803 213 815 196 844 L115 844 Z " />
<glyph glyph-name="obreve" unicode="&#x14f;" horiz-adv-x="460" d="M233 503 C96 503 30 419 30 245 C30 76 97 -10 231 -10 C364 -10 431 76 431 246 C431 416 364 503 233 503 L233 503 Z M232 407 C274 407 289 365 289 246 C289 126 274 86 231 86 C187 86 172 126 172 247 C172 367 187 407 232 407 L232 407 Z M67 675 C96 588 143 553 229 553 C314 553 362 589 390 675 L312 675 C294 639 271 625 229 625 C186 625 163 639 146 675 L67 675 Z " />
<glyph glyph-name="Ohungarumlaut" unicode="&#x150;" horiz-adv-x="562" d="M284 677 C121 677 39 562 39 331 C39 107 122 -10 281 -10 C440 -10 523 107 523 333 C523 464 497 554 443 613 C405 654 348 677 284 677 L284 677 Z M282 558 C346 558 369 500 369 334 C369 166 347 109 281 109 C215 109 193 166 193 335 C193 502 216 558 282 558 L282 558 Z M298 878 L156 757 L188 713 L343 806 L298 878 Z M466 877 L325 757 L356 713 L512 806 L466 877 Z " />
<glyph glyph-name="ohungarumlaut" unicode="&#x151;" horiz-adv-x="460" d="M233 503 C96 503 30 419 30 245 C30 76 97 -10 231 -10 C364 -10 431 76 431 246 C431 416 364 503 233 503 L233 503 Z M232 407 C274 407 289 365 289 246 C289 126 274 86 231 86 C187 86 172 126 172 247 C172 367 187 407 232 407 L232 407 Z M240 717 L119 583 L156 546 L296 657 L240 717 Z M393 717 L272 583 L309 546 L449 657 L393 717 Z " />
<glyph glyph-name="OE" unicode="&#x152;" horiz-adv-x="784" d="M775 667 L386 667 C345 674 322 677 296 677 C236 677 181 659 141 628 C75 576 39 470 39 330 C39 252 53 180 81 115 C98 75 127 42 164 21 C198 2 246 -10 291 -10 C314 -10 346 -6 378 0 L775 0 L775 119 L513 119 L513 283 L718 283 L718 398 L513 398 L513 552 L775 552 L775 667 Z M372 134 C354 117 330 109 300 109 C229 109 193 180 193 323 C193 415 205 485 228 522 C241 545 266 557 298 557 C329 557 351 549 372 531 L372 134 Z " />
<glyph glyph-name="oe" unicode="&#x153;" horiz-adv-x="715" d="M686 224 C686 319 678 361 650 413 C620 469 560 503 490 503 C435 503 400 487 363 446 C329 486 289 503 227 503 C97 503 30 415 30 247 C30 78 97 -10 226 -10 C287 -10 321 4 358 43 C400 4 435 -10 494 -10 C553 -10 599 9 634 47 C662 77 674 105 686 162 L564 170 C556 109 536 85 493 85 C445 85 424 118 424 197 C424 202 424 213 425 224 L686 224 Z M232 407 C274 407 289 365 289 246 C289 126 274 86 231 86 C186 86 172 126 172 247 C172 367 187 407 232 407 L232 407 Z M557 303 L425 303 C427 378 448 412 492 412 C534 412 557 378 557 317 L557 303 Z " />
<glyph glyph-name="Racute" unicode="&#x154;" horiz-adv-x="545" d="M63 667 L63 0 L209 0 L209 263 L282 263 L371 0 L531 0 L408 291 C475 331 502 380 502 465 C502 538 476 597 430 632 C391 660 362 667 272 667 L63 667 Z M209 559 L267 559 C299 559 317 554 330 543 C349 527 359 500 359 468 C359 405 329 371 273 371 L209 371 L209 559 Z M188 769 L218 718 L427 782 L394 878 L188 769 Z " />
<glyph glyph-name="racute" unicode="&#x155;" horiz-adv-x="307" d="M51 493 L51 0 L188 0 L188 213 C188 316 220 365 289 365 C293 365 303 364 312 363 L312 497 C301 499 296 500 288 500 C232 500 197 462 172 374 L172 493 L51 493 Z M118 587 L159 546 L339 659 L284 741 L118 587 Z " />
<glyph glyph-name="Rcommaaccent" unicode="&#x156;" horiz-adv-x="545" d="M63 667 L63 0 L209 0 L209 263 L282 263 L371 0 L531 0 L408 291 C475 331 502 380 502 465 C502 538 476 597 430 632 C391 660 362 667 272 667 L63 667 Z M209 559 L267 559 C299 559 317 554 330 543 C349 527 359 500 359 468 C359 405 329 371 273 371 L209 371 L209 559 Z M235 -53 L208 -242 L262 -242 L340 -53 L235 -53 Z " />
<glyph glyph-name="rcommaaccent" unicode="&#x157;" horiz-adv-x="307" d="M51 493 L51 0 L188 0 L188 213 C188 316 220 365 289 365 C293 365 303 364 312 363 L312 497 C301 499 296 500 288 500 C232 500 197 462 172 374 L172 493 L51 493 Z M70 -53 L42 -239 L93 -239 L171 -53 L70 -53 Z " />
<glyph glyph-name="Rcaron" unicode="&#x158;" horiz-adv-x="545" d="M63 667 L63 0 L209 0 L209 263 L282 263 L371 0 L531 0 L408 291 C475 331 502 380 502 465 C502 538 476 597 430 632 C391 660 362 667 272 667 L63 667 Z M209 559 L267 559 C299 559 317 554 330 543 C349 527 359 500 359 468 C359 405 329 371 273 371 L209 371 L209 559 Z M69 853 L271 707 L472 853 L363 853 L271 805 L178 853 L69 853 Z " />
<glyph glyph-name="rcaron" unicode="&#x159;" horiz-adv-x="306" d="M50 493 L50 0 L187 0 L187 213 C187 316 219 365 288 365 C292 365 302 364 311 363 L311 497 C300 499 295 500 287 500 C231 500 196 462 171 374 L171 493 L50 493 Z M5 696 L181 543 L357 696 L254 696 L181 638 L108 696 L5 696 Z " />
<glyph glyph-name="Sacute" unicode="&#x15a;" horiz-adv-x="511" d="M471 522 C453 578 437 605 405 630 C367 661 316 677 257 677 C128 677 43 595 43 473 C43 416 65 368 105 333 C138 306 160 295 244 265 C313 240 336 219 336 181 C336 138 302 109 251 109 C195 109 163 139 144 209 L16 173 C50 49 125 -10 248 -10 C389 -10 484 75 484 203 C484 263 461 312 418 347 C389 371 365 383 300 408 C204 444 185 459 185 497 C185 533 214 558 255 558 C302 558 331 533 349 475 L471 522 Z M177 769 L207 718 L416 782 L383 878 L177 769 Z " />
<glyph glyph-name="sacute" unicode="&#x15b;" horiz-adv-x="409" d="M376 375 C364 417 352 437 327 460 C297 488 256 503 209 503 C106 503 34 439 34 346 C34 271 78 225 182 191 C247 171 261 159 261 127 C261 98 241 81 207 81 C164 81 139 104 128 154 L19 136 C27 87 38 61 64 37 C96 7 146 -10 204 -10 C315 -10 391 55 391 151 C391 193 375 229 345 254 C322 273 308 280 245 302 C177 326 163 337 163 369 C163 395 180 412 206 412 C241 412 262 393 278 345 L376 375 Z M137 587 L179 546 L359 659 L304 741 L137 587 Z " />
<glyph glyph-name="Scircumflex" unicode="&#x15c;" horiz-adv-x="511" d="M471 522 C453 578 437 605 405 630 C367 661 316 677 257 677 C128 677 43 595 43 473 C43 416 65 368 105 333 C138 306 160 295 244 265 C313 240 336 219 336 181 C336 138 302 109 251 109 C195 109 163 139 144 209 L16 173 C50 49 125 -10 248 -10 C389 -10 484 75 484 203 C484 263 461 312 418 347 C389 371 365 383 300 408 C204 444 185 459 185 497 C185 533 214 558 255 558 C302 558 331 533 349 475 L471 522 Z M62 726 L171 726 L263 774 L355 726 L465 726 L263 872 L62 726 Z " />
<glyph glyph-name="scircumflex" unicode="&#x15d;" horiz-adv-x="409" d="M376 375 C364 417 353 437 327 460 C297 488 256 503 209 503 C106 503 34 439 34 346 C34 271 78 225 182 191 C247 171 261 159 261 127 C261 98 241 81 207 81 C164 81 139 104 128 154 L19 136 C27 87 38 61 64 37 C96 7 146 -10 204 -10 C315 -10 391 55 391 151 C391 193 375 229 345 254 C322 273 308 280 245 302 C177 326 163 337 163 369 C163 395 180 412 206 412 C241 412 262 393 278 345 L376 375 Z M14 553 L120 553 L210 611 L299 553 L406 553 L210 706 L14 553 Z " />
<glyph glyph-name="Scedilla" unicode="&#x15e;" horiz-adv-x="511" d="M471 522 C453 578 437 605 405 630 C367 661 316 677 257 677 C128 677 43 595 43 473 C43 416 65 368 105 333 C138 306 160 295 244 265 C313 240 336 219 336 181 C336 138 302 109 251 109 C195 109 163 139 144 209 L16 173 C43 67 109 5 208 -8 L178 -92 C183 -91 187 -91 190 -91 L208 -91 C244 -91 266 -107 266 -133 C266 -150 254 -161 235 -161 C212 -161 188 -154 154 -136 L137 -180 C181 -207 209 -216 248 -216 C310 -216 351 -182 351 -131 C351 -83 317 -50 269 -50 C264 -50 262 -50 249 -51 L264 -10 C313 -7 340 0 372 17 C443 53 484 120 484 203 C484 263 461 312 418 347 C389 371 364 384 300 408 C204 444 185 459 185 497 C185 533 214 558 255 558 C302 558 331 533 349 475 L471 522 Z " />
<glyph glyph-name="scedilla" unicode="&#x15f;" horiz-adv-x="409" d="M219 -10 C324 -4 391 59 391 151 C391 193 375 228 345 253 C322 273 307 280 245 302 C177 326 163 337 163 369 C163 395 180 412 206 412 C241 412 262 393 278 345 L376 375 C364 417 352 437 327 460 C297 488 256 503 209 503 C106 503 34 439 34 346 C34 271 78 225 182 191 C247 171 261 159 261 127 C261 98 241 81 207 81 C164 81 139 104 128 154 L19 136 C29 52 76 6 164 -8 L134 -89 C150 -87 157 -86 167 -86 C200 -86 224 -104 224 -128 C224 -146 210 -158 189 -158 C167 -158 146 -152 110 -134 L94 -174 C138 -200 165 -209 201 -209 C263 -209 302 -177 302 -126 C302 -81 269 -49 223 -49 C216 -49 216 -49 203 -50 L219 -10 Z " />
<glyph glyph-name="Scaron" unicode="&#x160;" horiz-adv-x="511" d="M471 522 C453 578 437 605 405 630 C367 661 316 677 257 677 C128 677 43 595 43 473 C43 416 65 368 105 333 C138 306 160 295 244 265 C313 240 336 219 336 181 C336 138 302 109 251 109 C195 109 163 139 144 209 L16 173 C50 49 125 -10 248 -10 C389 -10 484 75 484 203 C484 263 461 312 418 347 C389 371 365 383 300 408 C204 444 185 459 185 497 C185 533 214 558 255 558 C302 558 331 533 349 475 L471 522 Z M61 853 L262 707 L464 853 L354 853 L262 805 L170 853 L61 853 Z " />
<glyph glyph-name="scaron" unicode="&#x161;" horiz-adv-x="409" d="M376 375 C365 417 353 437 328 460 C297 488 256 503 209 503 C106 503 34 439 34 346 C34 271 78 225 182 191 C247 171 261 159 261 127 C261 98 241 81 207 81 C164 81 139 104 129 154 L20 136 C27 87 39 61 65 37 C96 7 146 -10 204 -10 C315 -10 391 55 391 151 C391 193 375 229 345 254 C322 273 308 280 245 302 C177 326 163 337 163 369 C163 395 180 412 206 412 C242 412 263 393 278 345 L376 375 Z M14 696 L210 543 L406 696 L299 696 L210 638 L120 696 L14 696 Z " />
<glyph glyph-name="Tcommaaccent" unicode="&#x162;" horiz-adv-x="392" d="M-12 667 L-12 542 L121 542 L121 0 L268 0 L268 542 L404 542 L404 667 L-12 667 Z M144 -53 L116 -242 L171 -242 L249 -53 L144 -53 Z " />
<glyph glyph-name="tcommaaccent" unicode="&#x163;" horiz-adv-x="307" d="M89 639 L78 493 L16 493 L16 385 L71 385 L71 189 C71 97 75 74 93 45 C116 9 159 -10 219 -10 C246 -10 266 -8 302 0 L302 105 C280 104 277 104 265 104 C241 104 226 108 217 118 C206 130 205 138 205 204 L205 385 L295 385 L295 493 L205 493 L205 649 L89 639 Z M135 -53 L108 -239 L159 -239 L237 -53 L135 -53 Z " />
<glyph glyph-name="Tcaron" unicode="&#x164;" horiz-adv-x="392" d="M-12 667 L-12 542 L121 542 L121 0 L268 0 L268 542 L404 542 L404 667 L-12 667 Z M-6 853 L196 707 L398 853 L288 853 L196 805 L104 853 L-6 853 Z " />
<glyph glyph-name="tcaron" unicode="&#x165;" horiz-adv-x="367" d="M89 639 L78 493 L16 493 L16 385 L71 385 L71 189 C71 97 75 74 93 45 C116 9 159 -10 219 -10 C246 -10 266 -8 302 0 L302 105 C280 104 277 104 265 104 C241 104 226 108 217 118 C206 130 205 138 205 204 L205 385 L295 385 L295 493 L205 493 L205 649 L89 639 Z M279 742 L251 546 L302 546 L380 742 L279 742 Z " />
<glyph glyph-name="Tbar" unicode="&#x166;" horiz-adv-x="392" d="M268 447 L268 542 L404 542 L404 667 L-12 667 L-12 542 L121 542 L121 447 L-37 447 L-37 321 L121 321 L121 0 L268 0 L268 321 L435 321 L435 447 L268 447 Z " />
<glyph glyph-name="tbar" unicode="&#x167;" horiz-adv-x="307" d="M205 344 L205 385 L295 385 L295 493 L205 493 L205 649 L89 639 L78 493 L16 493 L16 385 L71 385 L71 344 L17 344 L17 247 L71 247 L71 189 C71 97 75 74 93 45 C116 9 159 -10 219 -10 C246 -10 266 -8 302 0 L302 105 C280 104 277 104 265 104 C241 104 226 108 217 118 C206 130 205 138 205 204 L205 247 L274 247 L274 344 L205 344 Z " />
<glyph glyph-name="Utilde" unicode="&#x168;" horiz-adv-x="579" d="M63 667 L63 286 C63 157 74 103 108 58 C143 14 207 -10 291 -10 C367 -10 426 12 465 54 C506 98 516 145 516 292 L516 667 L393 667 L393 286 C393 199 392 181 383 159 C371 126 344 109 304 109 C263 109 235 126 221 159 C212 180 209 213 209 286 L209 667 L63 667 Z M417 836 C395 807 384 800 367 800 C353 800 341 804 303 819 C271 832 256 836 236 836 C196 836 164 816 122 765 L166 731 C193 758 200 762 216 762 C229 762 242 758 279 743 C309 730 324 726 344 726 C388 726 428 752 463 802 L417 836 Z " />
<glyph glyph-name="utilde" unicode="&#x169;" horiz-adv-x="477" d="M44 493 L44 173 C44 86 48 62 67 34 C87 5 122 -10 170 -10 C234 -10 260 6 298 67 L298 0 L427 0 L427 493 L290 493 L290 241 C290 164 289 147 283 132 C275 108 257 97 229 97 C206 97 193 104 186 121 C182 130 181 140 181 177 L181 493 L44 493 Z M356 677 C335 650 325 642 309 642 C297 642 284 646 249 660 C218 673 204 677 186 677 C148 677 118 657 78 608 L120 575 C144 601 151 606 167 606 C179 606 192 602 226 587 C256 574 270 570 288 570 C329 570 365 594 399 644 L356 677 Z " />
<glyph glyph-name="Umacron" unicode="&#x16a;" horiz-adv-x="579" d="M63 667 L63 286 C63 157 74 103 108 58 C143 14 207 -10 291 -10 C367 -10 426 12 465 54 C506 98 516 145 516 292 L516 667 L393 667 L393 286 C393 199 392 181 383 159 C371 126 344 109 304 109 C263 109 235 126 221 159 C212 180 209 213 209 286 L209 667 L63 667 Z M152 820 L152 746 L434 746 L434 820 L152 820 Z " />
<glyph glyph-name="umacron" unicode="&#x16b;" horiz-adv-x="477" d="M44 493 L44 173 C44 86 48 62 67 34 C87 5 122 -10 170 -10 C234 -10 260 6 298 67 L298 0 L427 0 L427 493 L290 493 L290 241 C290 164 289 147 283 132 C275 108 257 97 229 97 C206 97 193 104 186 121 C182 130 181 140 181 177 L181 493 L44 493 Z M98 656 L98 584 L373 584 L373 656 L98 656 Z " />
<glyph glyph-name="Ubreve" unicode="&#x16c;" horiz-adv-x="579" d="M63 667 L63 286 C63 157 74 103 108 58 C143 14 207 -10 291 -10 C367 -10 426 12 465 54 C506 98 516 145 516 292 L516 667 L393 667 L393 286 C393 199 392 181 383 159 C371 126 344 109 304 109 C263 109 235 126 221 159 C212 180 209 213 209 286 L209 667 L63 667 Z M124 841 C152 760 201 726 290 726 C378 726 429 761 457 841 L376 841 C358 812 334 800 290 800 C246 800 222 812 205 841 L124 841 Z " />
<glyph glyph-name="ubreve" unicode="&#x16d;" horiz-adv-x="477" d="M44 493 L44 173 C44 86 48 62 67 34 C87 5 122 -10 170 -10 C234 -10 260 6 298 67 L298 0 L427 0 L427 493 L290 493 L290 241 C290 164 289 147 283 132 C275 108 257 97 229 97 C206 97 193 104 186 121 C182 130 181 140 181 177 L181 493 L44 493 Z M74 684 C102 598 149 562 236 562 C321 562 369 598 397 684 L318 684 C302 648 278 634 235 634 C193 634 168 649 152 684 L74 684 Z " />
<glyph glyph-name="Uring" unicode="&#x16e;" horiz-adv-x="579" d="M63 667 L63 286 C63 157 74 103 108 58 C143 14 207 -10 291 -10 C367 -10 426 12 465 54 C506 98 516 145 516 292 L516 667 L393 667 L393 286 C393 199 392 181 383 159 C371 126 344 109 304 109 C263 109 235 126 221 159 C212 180 209 213 209 286 L209 667 L63 667 Z M293 903 C239 903 196 860 196 805 C196 753 240 709 292 709 C347 709 390 752 390 805 C390 860 347 903 293 903 L293 903 Z M293 847 C314 847 332 828 332 806 C332 783 314 765 292 765 C272 765 254 784 254 805 C254 828 271 847 293 847 L293 847 Z " />
<glyph glyph-name="uring" unicode="&#x16f;" horiz-adv-x="477" d="M44 493 L44 173 C44 86 48 62 67 34 C87 5 122 -10 170 -10 C234 -10 260 6 298 67 L298 0 L427 0 L427 493 L290 493 L290 241 C290 164 289 147 283 132 C275 108 257 97 229 97 C206 97 193 104 186 121 C182 130 181 140 181 177 L181 493 L44 493 Z M236 731 C183 731 141 689 141 636 C141 585 184 542 234 542 C288 542 330 584 330 636 C330 689 288 731 236 731 L236 731 Z M235 676 C256 676 273 658 273 636 C273 615 256 597 235 597 C215 597 198 615 198 636 C198 658 215 676 235 676 L235 676 Z " />
<glyph glyph-name="Uhungarumlaut" unicode="&#x170;" horiz-adv-x="579" d="M63 667 L63 286 C63 157 74 103 108 58 C143 14 207 -10 291 -10 C367 -10 426 12 465 54 C506 98 516 145 516 292 L516 667 L393 667 L393 286 C393 199 392 181 383 159 C371 126 344 109 304 109 C263 109 235 126 221 159 C212 180 209 213 209 286 L209 667 L63 667 Z M303 878 L162 757 L193 713 L349 806 L303 878 Z M472 877 L330 757 L362 713 L517 806 L472 877 Z " />
<glyph glyph-name="uhungarumlaut" unicode="&#x171;" horiz-adv-x="477" d="M44 493 L44 173 C44 86 48 62 67 34 C87 5 122 -10 170 -10 C234 -10 260 6 298 67 L298 0 L427 0 L427 493 L290 493 L290 241 C290 164 289 147 283 132 C275 108 257 97 229 97 C206 97 193 104 186 121 C182 130 181 140 181 177 L181 493 L44 493 Z M242 717 L121 583 L158 546 L297 657 L242 717 Z M394 717 L273 583 L311 546 L450 657 L394 717 Z " />
<glyph glyph-name="Uogonek" unicode="&#x172;" horiz-adv-x="579" d="M473 -126 C468 -127 452 -128 440 -128 C398 -128 374 -108 374 -72 C374 -39 393 -8 433 24 C503 80 517 124 516 292 L516 667 L393 667 L393 286 C393 199 392 181 383 159 C371 126 344 109 304 109 C263 109 235 126 221 159 C212 180 209 213 209 286 L209 667 L63 667 L63 286 C63 156 74 102 108 57 C142 14 209 -11 289 -11 C305 -11 319 -10 348 -6 C310 -33 295 -56 295 -90 C295 -147 344 -181 424 -181 C444 -181 458 -179 484 -173 L473 -126 Z " />
<glyph glyph-name="uogonek" unicode="&#x173;" horiz-adv-x="477" d="M427 493 L290 493 L290 241 C290 164 289 147 283 132 C275 108 257 97 229 97 C206 97 193 104 186 121 C182 130 181 140 181 177 L181 493 L44 493 L44 173 C44 86 48 62 67 34 C87 5 122 -10 170 -10 C234 -10 264 8 297 67 L297 0 L375 0 C325 -30 305 -56 305 -93 C305 -149 352 -182 431 -182 C451 -182 464 -180 489 -174 L479 -128 C473 -130 458 -131 446 -131 C407 -131 382 -111 382 -79 C382 -53 395 -31 427 0 L427 493 Z " />
<glyph glyph-name="Wcircumflex" unicode="&#x174;" horiz-adv-x="715" d="M-5 667 L140 -3 L269 -3 L360 460 L449 -3 L580 -3 L723 667 L600 667 L518 204 L436 667 L302 667 L215 205 L145 667 L-5 667 Z M168 726 L277 726 L369 774 L461 726 L571 726 L369 872 L168 726 Z " />
<glyph glyph-name="wcircumflex" unicode="&#x175;" horiz-adv-x="579" d="M-8 493 L116 0 L228 0 L290 335 L353 0 L469 0 L592 493 L484 493 L418 193 L373 493 L239 493 L184 193 L126 493 L-8 493 Z M98 553 L204 553 L294 611 L383 553 L489 553 L294 706 L98 553 Z " />
<glyph glyph-name="Ycircumflex" unicode="&#x176;" horiz-adv-x="443" d="M-28 667 L139 282 L139 0 L285 0 L285 282 L470 667 L327 667 L227 423 L133 667 L-28 667 Z M20 726 L129 726 L222 774 L314 726 L423 726 L222 872 L20 726 Z " />
<glyph glyph-name="ycircumflex" unicode="&#x177;" horiz-adv-x="358" d="M-13 493 L129 9 C111 -52 99 -62 47 -62 C33 -62 25 -61 7 -59 L7 -167 C32 -173 45 -175 66 -175 C109 -175 142 -163 166 -139 C190 -114 201 -91 225 -8 L374 493 L255 493 L191 192 L124 493 L-13 493 Z M-12 553 L94 553 L184 611 L273 553 L380 553 L184 706 L-12 553 Z " />
<glyph glyph-name="Ydieresis" unicode="&#x178;" horiz-adv-x="443" d="M-28 667 L139 282 L139 0 L285 0 L285 282 L470 667 L327 667 L227 423 L133 667 L-28 667 Z M137 838 C105 838 79 814 79 783 C79 754 105 729 136 729 C168 729 194 753 194 783 C194 814 168 838 137 838 L137 838 Z M306 838 C275 838 249 813 249 783 C249 754 275 729 306 729 C338 729 364 753 364 783 C364 814 338 838 306 838 L306 838 Z " />
<glyph glyph-name="Zacute" unicode="&#x179;" horiz-adv-x="460" d="M21 667 L21 548 L282 548 L1 102 L1 0 L459 0 L459 119 L171 119 L450 563 L450 667 L21 667 Z M157 769 L187 718 L396 782 L363 878 L157 769 Z " />
<glyph glyph-name="zacute" unicode="&#x17a;" horiz-adv-x="358" d="M37 493 L37 395 L199 395 L20 98 L20 0 L349 0 L349 98 L162 98 L345 405 L345 493 L37 493 Z M127 587 L169 546 L349 659 L294 741 L127 587 Z " />
<glyph glyph-name="Zdotaccent" unicode="&#x17b;" horiz-adv-x="460" d="M21 667 L21 548 L282 548 L1 102 L1 0 L459 0 L459 119 L171 119 L450 563 L450 667 L21 667 Z M241 846 C206 846 177 818 177 783 C177 749 206 721 240 721 C276 721 305 748 305 783 C305 818 276 846 241 846 L241 846 Z " />
<glyph glyph-name="zdotaccent" unicode="&#x17c;" horiz-adv-x="358" d="M37 493 L37 395 L199 395 L20 98 L20 0 L349 0 L349 98 L162 98 L345 405 L345 493 L37 493 Z M196 681 C162 681 134 654 134 620 C134 587 162 560 195 560 C230 560 258 586 258 620 C258 654 231 681 196 681 L196 681 Z " />
<glyph glyph-name="Zcaron" unicode="&#x17d;" horiz-adv-x="460" d="M21 667 L21 548 L282 548 L1 102 L1 0 L459 0 L459 119 L171 119 L450 563 L450 667 L21 667 Z M38 853 L240 707 L442 853 L332 853 L240 805 L148 853 L38 853 Z " />
<glyph glyph-name="zcaron" unicode="&#x17e;" horiz-adv-x="358" d="M37 493 L37 395 L199 395 L20 98 L20 0 L350 0 L350 98 L162 98 L345 405 L345 493 L37 493 Z M0 696 L196 543 L392 696 L285 696 L196 638 L106 696 L0 696 Z " />
<glyph glyph-name="uni018F" unicode="&#x18f;" horiz-adv-x="550" d="M362 344 L33 344 L33 341 L33 335 C33 109 116 -9 275 -9 C434 -9 517 109 517 335 C517 560 434 679 278 679 C204 679 136 652 96 607 C64 571 50 543 41 495 L185 463 C200 529 228 559 276 559 C312 559 333 541 347 499 C358 466 361 439 362 347 L362 344 Z M358 226 C348 144 324 111 275 111 C226 111 202 144 192 226 L358 226 Z " />
<glyph glyph-name="florin" unicode="&#x192;" horiz-adv-x="511" d="M356 480 C365 554 376 572 412 572 C425 572 435 570 454 563 L469 672 C432 680 414 683 393 683 C342 683 301 666 277 636 C254 607 243 572 227 480 L157 480 L141 372 L212 372 L168 58 C161 7 158 -2 149 -15 C140 -29 128 -34 106 -34 C98 -34 91 -33 75 -31 L58 -140 C82 -145 95 -147 115 -147 C167 -147 211 -131 240 -101 C266 -74 284 -25 294 43 L340 372 L425 372 L441 480 L356 480 Z " />
<glyph glyph-name="uni01CD" unicode="&#x1cd;" horiz-adv-x="511" d="M180 667 L-20 0 L115 0 L147 137 L335 137 L368 0 L518 0 L328 667 L180 667 Z M307 252 L175 252 L240 524 L307 252 Z M47 853 L249 707 L451 853 L341 853 L249 805 L157 853 L47 853 Z " />
<glyph glyph-name="uni01CE" unicode="&#x1ce;" horiz-adv-x="477" d="M183 337 C188 391 204 412 241 412 C278 412 290 392 290 325 L290 306 C224 302 173 292 130 275 C70 251 36 196 36 125 C36 41 85 -10 166 -10 C204 -10 239 3 264 25 C277 37 285 48 301 75 C301 28 301 24 308 0 L435 0 C428 21 428 30 427 110 L427 306 C427 390 420 425 396 450 C365 484 314 503 252 503 C138 503 67 449 53 349 L183 337 Z M290 212 C290 160 285 134 271 112 C258 91 242 81 224 81 C194 81 178 103 178 143 C178 203 205 226 290 236 L290 212 Z M53 696 L249 543 L445 696 L338 696 L249 638 L159 696 L53 696 Z " />
<glyph glyph-name="uni01D3" unicode="&#x1d3;" horiz-adv-x="579" d="M63 667 L63 286 C63 157 74 103 108 58 C143 14 207 -10 291 -10 C367 -10 426 12 465 54 C506 98 516 145 516 292 L516 667 L393 667 L393 286 C393 199 392 181 383 159 C371 126 344 109 304 109 C263 109 235 126 221 159 C212 180 209 213 209 286 L209 667 L63 667 Z M91 853 L293 707 L495 853 L385 853 L293 805 L201 853 L91 853 Z " />
<glyph glyph-name="uni01D4" unicode="&#x1d4;" horiz-adv-x="477" d="M43 493 L43 173 C43 86 47 62 66 34 C86 5 121 -10 169 -10 C233 -10 259 6 297 67 L297 0 L426 0 L426 493 L289 493 L289 241 C289 164 288 147 282 132 C274 108 256 97 228 97 C205 97 192 104 185 121 C181 130 180 140 180 177 L180 493 L43 493 Z M39 696 L235 543 L431 696 L324 696 L235 638 L145 696 L39 696 Z " />
<glyph glyph-name="uni01DD" unicode="&#x1dd;" horiz-adv-x="454" d="M27 269 C27 173 35 131 63 80 C93 24 153 -10 223 -10 C352 -10 428 88 428 253 C428 412 353 503 223 503 C160 503 114 484 79 446 C51 415 39 388 27 331 L149 323 C157 383 177 407 220 407 C267 407 286 374 286 295 L286 269 L27 269 Z M285 190 C283 113 264 81 221 81 C179 81 156 115 156 176 C156 178 156 184 157 190 L285 190 Z " />
<glyph glyph-name="Gcaron" unicode="&#x1e6;" horiz-adv-x="579" d="M296 356 L296 241 L396 241 C394 198 391 180 384 163 C369 128 342 109 305 109 C226 109 192 177 192 331 C192 486 227 558 300 558 C332 558 357 543 373 515 C384 496 390 473 396 427 L528 449 C507 608 438 677 298 677 C235 677 183 660 143 625 C75 566 38 460 38 325 C38 118 133 -10 285 -10 C357 -10 408 17 447 76 L466 0 L528 0 L528 356 L296 356 Z M99 853 L300 707 L502 853 L392 853 L300 805 L208 853 L99 853 Z " />
<glyph glyph-name="gcaron" unicode="&#x1e7;" horiz-adv-x="460" d="M470 574 C455 578 448 579 432 579 C372 579 349 554 339 481 C298 498 274 503 233 503 C118 503 49 447 49 353 C49 291 68 259 122 229 C95 214 85 207 72 195 C51 177 37 147 37 121 C37 83 57 56 101 35 C44 15 21 -12 21 -57 C21 -134 90 -174 222 -174 C383 -174 464 -119 464 -9 C464 37 448 73 417 96 C387 119 363 125 267 131 C184 136 181 136 169 141 C156 146 150 154 150 165 C150 181 161 194 182 206 C209 200 224 198 247 198 C353 198 425 258 425 346 C425 385 412 418 388 444 C395 475 411 488 440 488 C451 488 457 487 470 485 L470 574 Z M240 429 C270 429 283 405 283 350 C283 293 271 272 239 272 C206 272 191 296 191 346 C191 406 205 429 240 429 L240 429 Z M177 21 C203 18 216 17 239 16 C302 13 310 11 325 3 C338 -5 345 -19 345 -36 C345 -73 316 -88 244 -88 C168 -88 134 -72 134 -38 C134 -12 147 6 177 21 L177 21 Z M56 696 L239 543 L421 696 L318 696 L239 638 L160 696 L56 696 Z " />
<glyph glyph-name="uni01F4" unicode="&#x1f4;" horiz-adv-x="579" d="M296 356 L296 241 L396 241 C394 198 391 180 384 163 C369 128 342 109 305 109 C226 109 192 177 192 331 C192 486 227 558 300 558 C332 558 357 543 373 515 C384 496 390 473 396 427 L528 449 C507 608 438 677 298 677 C235 677 183 660 143 625 C75 566 38 460 38 325 C38 118 133 -10 285 -10 C357 -10 408 17 447 76 L466 0 L528 0 L528 356 L296 356 Z M214 769 L244 718 L453 782 L421 878 L214 769 Z " />
<glyph glyph-name="Aringacute" unicode="&#x1fa;" horiz-adv-x="511" d="M329 663 C344 680 352 701 352 725 C352 780 309 823 255 823 C201 823 158 780 158 725 C158 702 165 683 179 665 L-20 0 L115 0 L147 137 L335 137 L368 0 L518 0 L329 663 Z M307 252 L175 252 L240 524 L307 252 Z M255 767 C276 767 294 748 294 726 C294 703 276 685 254 685 C234 685 216 704 216 726 C216 748 233 767 255 767 L255 767 Z M138 894 L168 842 L377 907 L344 1002 L138 894 Z " />
<glyph glyph-name="aringacute" unicode="&#x1fb;" horiz-adv-x="477" d="M183 337 C188 391 204 412 241 412 C278 412 290 392 290 325 L290 306 C224 302 173 292 130 275 C70 251 36 196 36 125 C36 41 85 -10 166 -10 C204 -10 239 3 264 25 C277 37 285 48 301 75 C301 28 301 24 308 0 L435 0 C428 21 428 30 427 110 L427 306 C427 380 421 413 404 440 C379 479 321 503 251 503 C138 503 67 449 53 349 L183 337 Z M290 212 C290 160 285 134 271 112 C258 91 242 81 224 81 C194 81 178 103 178 143 C178 203 205 226 290 236 L290 212 Z M250 731 C198 731 156 688 156 636 C156 585 198 542 249 542 C302 542 344 584 344 636 C344 689 302 731 250 731 L250 731 Z M250 676 C270 676 287 658 287 636 C287 615 270 597 250 597 C230 597 213 615 213 636 C213 658 230 676 250 676 L250 676 Z M142 767 L183 726 L363 839 L308 920 L142 767 Z " />
<glyph glyph-name="AEacute" unicode="&#x1fc;" horiz-adv-x="682" d="M222 667 L-40 0 L87 0 L140 154 L286 154 L286 0 L673 0 L673 119 L427 119 L427 283 L620 283 L620 398 L427 398 L427 552 L673 552 L673 667 L222 667 Z M289 262 L177 262 L289 569 L289 262 Z M343 773 L373 721 L582 786 L549 881 L343 773 Z " />
<glyph glyph-name="aeacute" unicode="&#x1fd;" horiz-adv-x="511" d="M218 722 L218 -71 L293 -71 L293 722 L218 722 Z " />
<glyph glyph-name="Oslashacute" unicode="&#x1fe;" horiz-adv-x="562" d="M431 705 L401 647 C365 668 327 677 279 677 C122 677 39 559 39 337 C39 209 59 133 110 64 L58 -41 L134 -41 L165 17 C206 -3 239 -10 282 -10 C440 -10 523 108 523 333 C523 456 502 537 454 599 L508 705 L431 705 Z M187 212 C181 257 180 271 180 314 C180 390 182 423 188 463 C198 530 230 566 280 566 C305 566 321 559 341 541 L187 212 Z M375 450 C381 405 382 394 382 355 C382 279 380 241 374 204 C363 137 331 100 284 100 C259 100 239 106 223 119 L375 450 Z M167 772 L197 721 L406 785 L373 881 L167 772 Z " />
<glyph glyph-name="oslashacute" unicode="&#x1ff;" horiz-adv-x="460" d="M353 544 L323 486 C293 498 268 503 230 503 C98 503 30 417 30 249 C30 149 48 91 94 38 L47 -57 L112 -57 L143 5 C175 -7 195 -10 230 -10 C364 -10 431 75 431 247 C431 340 413 400 371 450 L418 544 L353 544 Z M157 149 C154 187 153 209 153 239 C153 373 171 414 232 414 C248 414 259 411 276 403 L157 149 Z M305 333 C308 287 308 278 308 253 C308 120 290 79 230 79 C216 79 203 81 191 86 L305 333 Z M138 589 L179 548 L359 661 L304 742 L138 589 Z " />
<glyph glyph-name="Scommaaccent" unicode="&#x218;" horiz-adv-x="511" d="M471 522 C453 578 437 605 405 630 C367 661 316 677 257 677 C128 677 43 595 43 473 C43 416 65 368 105 333 C138 306 160 295 244 265 C313 240 336 219 336 181 C336 138 302 109 251 109 C195 109 163 139 144 209 L16 173 C50 49 125 -10 248 -10 C389 -10 484 75 484 203 C484 263 461 312 418 347 C389 371 365 383 300 408 C204 444 185 459 185 497 C185 533 214 558 255 558 C302 558 331 533 349 475 L471 522 Z M195 -53 L167 -242 L222 -242 L300 -53 L195 -53 Z " />
<glyph glyph-name="scommaaccent" unicode="&#x219;" horiz-adv-x="409" d="M376 375 C364 417 352 437 327 460 C297 488 256 503 209 503 C106 503 34 439 34 346 C34 271 78 225 182 191 C247 171 261 159 261 127 C261 98 241 81 207 81 C164 81 139 104 128 154 L19 136 C27 87 38 61 64 37 C96 7 146 -10 204 -10 C315 -10 391 55 391 151 C391 193 375 229 345 254 C322 273 308 280 245 302 C177 326 163 337 163 369 C163 395 180 412 206 412 C241 412 262 393 278 345 L376 375 Z M154 -53 L127 -239 L178 -239 L256 -53 L154 -53 Z " />
<glyph glyph-name="uni021A" unicode="&#x21a;" horiz-adv-x="392" d="M-12 667 L-12 542 L121 542 L121 0 L268 0 L268 542 L404 542 L404 667 L-12 667 Z M144 -53 L116 -242 L171 -242 L249 -53 L144 -53 Z " />
<glyph glyph-name="uni021B" unicode="&#x21b;" horiz-adv-x="307" d="M89 639 L78 493 L16 493 L16 385 L71 385 L71 189 C71 97 75 74 93 45 C116 9 159 -10 219 -10 C246 -10 266 -8 302 0 L302 105 C280 104 277 104 265 104 C241 104 226 108 217 118 C206 130 205 138 205 204 L205 385 L295 385 L295 493 L205 493 L205 649 L89 639 Z M135 -53 L108 -239 L159 -239 L237 -53 L135 -53 Z " />
<glyph glyph-name="uni0226" unicode="&#x226;" horiz-adv-x="511" d="M180 667 L-20 0 L115 0 L147 137 L335 137 L368 0 L518 0 L328 667 L180 667 Z M307 252 L175 252 L240 524 L307 252 Z M252 846 C217 846 188 818 188 783 C188 749 217 721 251 721 C287 721 316 748 316 783 C316 818 287 846 252 846 L252 846 Z " />
<glyph glyph-name="uni0227" unicode="&#x227;" horiz-adv-x="477" d="M183 337 C188 391 204 412 241 412 C278 412 290 392 290 325 L290 306 C224 302 173 292 130 275 C70 251 36 196 36 125 C36 41 85 -10 166 -10 C204 -10 239 3 264 25 C277 37 285 48 301 75 C301 28 301 24 308 0 L435 0 C428 21 428 30 427 110 L427 306 C427 390 420 425 396 450 C365 484 314 503 252 503 C138 503 67 449 53 349 L183 337 Z M290 212 C290 160 285 134 271 112 C258 91 242 81 224 81 C194 81 178 103 178 143 C178 203 205 226 290 236 L290 212 Z M249 681 C215 681 187 654 187 620 C187 587 215 560 248 560 C283 560 311 587 311 620 C311 654 284 681 249 681 L249 681 Z " />
<glyph glyph-name="uni0237" unicode="&#x237;" horiz-adv-x="239" d="M56 493 L56 20 C55 -35 55 -35 49 -46 C43 -58 32 -63 10 -63 C5 -63 1 -63 -8 -61 L-8 -174 C27 -179 44 -181 66 -181 C117 -181 155 -162 174 -126 C189 -99 193 -68 193 16 L193 493 L56 493 Z " />
<glyph glyph-name="uni0259" unicode="&#x259;" horiz-adv-x="454" d="M27 269 C27 173 35 131 63 80 C93 24 153 -10 223 -10 C352 -10 428 88 428 253 C428 412 353 503 223 503 C160 503 114 484 79 446 C51 415 39 388 27 331 L149 323 C157 383 177 407 220 407 C267 407 286 374 286 295 L286 269 L27 269 Z M285 190 C283 113 264 81 221 81 C179 81 156 115 156 176 C156 178 156 184 157 190 L285 190 Z " />
<glyph glyph-name="afii57929" unicode="&#x2bc;" horiz-adv-x="204" d="M28 667 L28 519 L83 519 L28 388 L82 388 L153 519 L153 667 L28 667 Z " />
<glyph glyph-name="circumflex" unicode="&#x2c6;" horiz-adv-x="460" d="M34 553 L140 553 L230 611 L319 553 L426 553 L230 706 L34 553 Z " />
<glyph glyph-name="caron" unicode="&#x2c7;" horiz-adv-x="460" d="M34 696 L230 543 L426 696 L319 696 L230 638 L140 696 L34 696 Z " />
<glyph glyph-name="uni02C9" unicode="&#x2c9;" horiz-adv-x="460" d="M93 656 L93 584 L367 584 L367 656 L93 656 Z " />
<glyph glyph-name="breve" unicode="&#x2d8;" horiz-adv-x="460" d="M68 684 C96 598 144 562 230 562 C315 562 363 598 391 684 L313 684 C296 648 272 634 230 634 C187 634 163 649 147 684 L68 684 Z " />
<glyph glyph-name="dotaccent" unicode="&#x2d9;" horiz-adv-x="460" d="M230 681 C196 681 168 654 168 620 C168 587 196 560 229 560 C264 560 292 587 292 620 C292 654 265 681 230 681 L230 681 Z " />
<glyph glyph-name="ring" unicode="&#x2da;" horiz-adv-x="460" d="M230 731 C178 731 136 688 136 636 C136 585 179 542 229 542 C282 542 324 584 324 636 C324 689 282 731 230 731 L230 731 Z M230 676 C250 676 267 658 267 636 C267 615 250 597 230 597 C210 597 193 615 193 636 C193 658 210 676 230 676 L230 676 Z " />
<glyph glyph-name="ogonek" unicode="&#x2db;" horiz-adv-x="460" d="M255 0 C206 -30 186 -56 186 -93 C186 -149 233 -182 312 -182 C331 -182 344 -180 369 -174 L359 -128 C354 -130 339 -131 327 -131 C287 -131 263 -111 263 -79 C263 -53 275 -31 307 0 L255 0 Z " />
<glyph glyph-name="tilde" unicode="&#x2dc;" horiz-adv-x="460" d="M347 677 C326 650 316 642 300 642 C288 642 275 646 240 660 C209 673 195 677 177 677 C139 677 109 657 69 608 L111 575 C135 601 142 606 157 606 C170 606 183 602 217 587 C247 574 260 570 278 570 C320 570 356 594 390 644 L347 677 Z " />
<glyph glyph-name="hungarumlaut" unicode="&#x2dd;" horiz-adv-x="460" d="M248 717 L127 583 L164 546 L304 657 L248 717 Z M401 717 L280 583 L317 546 L457 657 L401 717 Z " />
<glyph glyph-name="uni037E" unicode="&#x37e;" horiz-adv-x="256" d="M60 148 L60 0 L124 0 L60 -158 L114 -158 L196 14 L196 148 L60 148 Z M60 493 L60 346 L196 345 L196 493 L60 493 Z " />
<glyph glyph-name="tonos" unicode="&#x384;" horiz-adv-x="451" d="M30 714 L-26 478 L56 450 L148 675 L30 714 Z " />
<glyph glyph-name="dieresistonos" unicode="&#x385;" horiz-adv-x="496" d="M166 678 C130 678 102 651 102 617 C102 584 131 557 165 557 C201 557 230 584 230 617 C230 651 202 678 166 678 L166 678 Z M331 678 C295 678 267 651 267 617 C267 585 296 557 330 557 C366 557 395 584 395 617 C395 651 366 678 331 678 L331 678 Z M194 716 L255 676 L373 828 L281 885 L194 716 Z " />
<glyph glyph-name="Alphatonos" unicode="&#x386;" horiz-adv-x="554" d="M223 667 L23 0 L158 0 L190 137 L378 137 L411 0 L561 0 L371 667 L223 667 Z M350 252 L218 252 L283 524 L350 252 Z M42 702 L-12 476 L60 451 L148 667 L42 702 Z " />
<glyph glyph-name="Epsilontonos" unicode="&#x388;" horiz-adv-x="627" d="M196 667 L196 0 L602 0 L602 119 L342 119 L342 283 L544 283 L544 398 L342 398 L342 552 L602 552 L602 667 L196 667 Z M44 702 L-10 476 L62 451 L150 667 L44 702 Z " />
<glyph glyph-name="Etatonos" unicode="&#x389;" horiz-adv-x="712" d="M196 667 L196 0 L342 0 L342 273 L503 273 L503 0 L649 0 L649 667 L503 667 L503 398 L342 398 L342 667 L196 667 Z M44 702 L-10 476 L62 451 L150 667 L44 702 Z " />
<glyph glyph-name="Iotatonos" unicode="&#x38a;" horiz-adv-x="406" d="M197 667 L197 0 L343 0 L343 667 L197 667 Z M44 702 L-10 476 L62 451 L150 667 L44 702 Z " />
<glyph glyph-name="Omicrontonos" unicode="&#x38c;" horiz-adv-x="653" d="M381 677 C218 677 136 562 136 331 C136 107 219 -10 378 -10 C537 -10 620 107 620 333 C620 464 594 554 540 613 C502 654 445 677 381 677 L381 677 Z M379 558 C443 558 466 500 466 334 C466 166 444 109 378 109 C312 109 290 166 290 335 C290 502 313 558 379 558 L379 558 Z M44 702 L-10 476 L62 451 L150 667 L44 702 Z " />
<glyph glyph-name="Upsilontonos" unicode="&#x38e;" horiz-adv-x="655" d="M185 667 L352 282 L352 0 L498 0 L498 282 L683 667 L540 667 L440 423 L346 667 L185 667 Z M44 702 L-10 476 L62 451 L150 667 L44 702 Z " />
<glyph glyph-name="Omegatonos" unicode="&#x38f;" horiz-adv-x="696" d="M127 0 L370 0 L370 118 C339 139 326 158 319 194 C312 232 307 298 307 366 C307 497 336 559 398 559 C460 559 489 495 489 358 C489 291 484 226 476 188 C469 154 456 137 427 118 L427 0 L670 0 L670 122 L556 122 C631 185 661 258 661 377 C661 562 560 678 399 678 C237 678 136 562 136 377 C136 258 166 185 241 122 L127 122 L127 0 Z M44 702 L-10 476 L62 451 L150 667 L44 702 Z " />
<glyph glyph-name="iotadieresistonos" unicode="&#x390;" horiz-adv-x="238" d="M50 493 L50 0 L187 0 L187 493 L50 493 Z M36 668 C4 668 -22 643 -22 612 C-22 582 4 557 36 557 C69 557 95 582 95 612 C95 643 69 668 36 668 L36 668 Z M201 668 C169 668 143 643 143 612 C143 582 169 557 201 557 C234 557 260 582 260 612 C260 643 234 668 201 668 L201 668 Z M71 713 L124 678 L235 821 L154 872 L71 713 Z " />
<glyph glyph-name="Alpha" unicode="&#x391;" horiz-adv-x="511" d="M180 667 L-20 0 L115 0 L147 137 L335 137 L368 0 L518 0 L328 667 L180 667 Z M307 252 L175 252 L240 524 L307 252 Z " />
<glyph glyph-name="Beta" unicode="&#x392;" horiz-adv-x="557" d="M63 667 L63 0 L291 0 C381 0 415 6 452 31 C496 61 525 121 525 184 C525 265 486 322 412 348 C480 374 508 415 508 491 C508 554 483 612 444 638 C410 661 376 667 291 667 L63 667 Z M204 398 L204 559 L262 559 C330 559 359 535 359 481 C359 453 348 427 332 415 C316 403 291 398 251 398 L204 398 Z M204 115 L204 290 L276 290 C346 290 376 264 376 203 C376 143 344 115 276 115 L204 115 Z " />
<glyph glyph-name="Gamma" unicode="&#x393;" horiz-adv-x="468" d="M468 667 L63 667 L63 0 L209 0 L209 546 L468 546 L468 667 Z " />
<glyph glyph-name="uni0394" unicode="&#x394;" horiz-adv-x="508" d="M168 667 L-15 0 L523 0 L333 667 L168 667 Z M346 125 L150 125 L245 524 L346 125 Z " />
<glyph glyph-name="Epsilon" unicode="&#x395;" horiz-adv-x="494" d="M63 667 L63 0 L468 0 L468 119 L209 119 L209 283 L411 283 L411 398 L209 398 L209 552 L468 552 L468 667 L63 667 Z " />
<glyph glyph-name="Zeta" unicode="&#x396;" horiz-adv-x="496" d="M39 667 L39 548 L300 548 L19 102 L19 0 L477 0 L477 119 L189 119 L468 563 L468 667 L39 667 Z " />
<glyph glyph-name="Eta" unicode="&#x397;" horiz-adv-x="579" d="M63 667 L63 0 L209 0 L209 273 L370 273 L370 0 L516 0 L516 667 L370 667 L370 398 L209 398 L209 667 L63 667 Z " />
<glyph glyph-name="Theta" unicode="&#x398;" horiz-adv-x="569" d="M345 396 L224 396 L224 281 L345 281 L345 396 Z M288 677 C119 677 33 562 33 334 C33 107 119 -10 285 -10 C450 -10 536 107 536 333 C536 464 509 555 453 613 C413 654 355 677 288 677 L288 677 Z M286 558 C352 558 375 500 375 334 C375 166 352 109 285 109 C217 109 194 166 194 335 C194 502 217 558 286 558 L286 558 Z " />
<glyph glyph-name="Iota" unicode="&#x399;" horiz-adv-x="272" d="M63 667 L63 0 L209 0 L209 667 L63 667 Z " />
<glyph glyph-name="Kappa" unicode="&#x39a;" horiz-adv-x="545" d="M63 667 L63 0 L209 0 L209 226 L264 307 L382 0 L533 0 L352 422 L519 667 L371 667 L209 389 L209 667 L63 667 Z " />
<glyph glyph-name="Lambda" unicode="&#x39b;" horiz-adv-x="512" d="M120 0 L245 524 L378 0 L523 0 L333 667 L168 667 L-15 0 L120 0 Z " />
<glyph glyph-name="Mu" unicode="&#x39c;" horiz-adv-x="749" d="M63 667 L63 0 L182 0 L182 558 L306 0 L413 0 L549 558 L549 0 L686 0 L686 667 L478 667 L372 255 L278 667 L63 667 Z " />
<glyph glyph-name="Nu" unicode="&#x39d;" horiz-adv-x="573" d="M63 667 L63 0 L177 0 L177 483 L379 0 L510 0 L510 667 L396 667 L396 253 L226 667 L63 667 Z " />
<glyph glyph-name="Xi" unicode="&#x39e;" horiz-adv-x="450" d="M359 401 L93 401 L93 278 L359 278 L359 401 Z M419 123 L32 123 L32 -1 L419 -1 L419 123 Z M419 667 L32 667 L32 544 L419 544 L419 667 Z " />
<glyph glyph-name="Omicron" unicode="&#x39f;" horiz-adv-x="550" d="M278 677 C115 677 33 562 33 331 C33 107 116 -10 275 -10 C434 -10 517 107 517 333 C517 464 491 554 437 613 C399 654 342 677 278 677 L278 677 Z M276 558 C340 558 363 500 363 334 C363 166 341 109 275 109 C209 109 187 166 187 335 C187 502 210 558 276 558 L276 558 Z " />
<glyph glyph-name="Pi" unicode="&#x3a0;" horiz-adv-x="579" d="M63 667 L63 0 L209 0 L209 542 L370 542 L370 0 L516 0 L516 667 L370 667 L209 667 L63 667 Z " />
<glyph glyph-name="Rho" unicode="&#x3a1;" horiz-adv-x="523" d="M63 667 L63 0 L209 0 L209 246 L261 246 C349 246 392 256 434 286 C478 319 503 381 503 459 C503 536 475 600 425 634 C388 660 350 667 254 667 L63 667 Z M209 559 L254 559 C290 559 307 555 321 541 C338 525 348 496 348 462 C348 389 322 361 254 361 L209 361 L209 559 Z " />
<glyph glyph-name="Sigma" unicode="&#x3a3;" horiz-adv-x="447" d="M28 667 L28 552 L168 359 L28 119 L28 0 L433 0 L433 119 L161 119 L307 369 L175 552 L417 552 L417 667 L28 667 Z " />
<glyph glyph-name="Tau" unicode="&#x3a4;" horiz-adv-x="416" d="M0 667 L0 542 L133 542 L133 0 L280 0 L280 542 L416 542 L416 667 L0 667 Z " />
<glyph glyph-name="Upsilon" unicode="&#x3a5;" horiz-adv-x="443" d="M-28 667 L139 282 L139 0 L285 0 L285 282 L470 667 L327 667 L227 423 L133 667 L-28 667 Z " />
<glyph glyph-name="Phi" unicode="&#x3a6;" horiz-adv-x="651" d="M263 -19 L389 -19 L389 62 C449 76 471 84 497 98 C572 138 617 226 617 332 C617 431 583 507 517 557 C480 584 449 596 389 606 L389 687 L263 687 L263 607 C198 594 166 581 129 551 C67 502 35 428 35 332 C35 227 78 142 153 98 C181 81 206 73 263 61 L263 -19 Z M263 175 C202 200 177 248 177 335 C177 420 203 468 263 493 L263 175 Z M389 493 C449 468 475 420 475 334 C475 248 449 200 389 174 L389 493 Z " />
<glyph glyph-name="Chi" unicode="&#x3a7;" horiz-adv-x="477" d="M5 667 L168 342 L-15 0 L125 0 L234 218 L332 0 L492 0 L315 366 L472 667 L332 667 L248 493 L168 667 L5 667 Z " />
<glyph glyph-name="Psi" unicode="&#x3a8;" horiz-adv-x="710" d="M288 0 L434 0 L434 120 C612 141 668 226 662 465 L662 667 L516 667 L516 465 C518 296 504 260 434 241 L434 667 L288 667 L288 241 C218 260 204 297 206 465 L206 667 L60 667 L60 465 C54 227 110 141 288 120 L288 0 Z " />
<glyph glyph-name="uni03A9" unicode="&#x3a9;" horiz-adv-x="595" d="M26 0 L269 0 L269 118 C238 139 225 158 218 194 C211 232 206 298 206 366 C206 497 235 559 297 559 C359 559 388 495 388 358 C388 291 383 226 375 188 C368 154 355 137 326 118 L326 0 L569 0 L569 122 L455 122 C530 185 560 258 560 377 C560 562 459 678 298 678 C136 678 35 562 35 377 C35 258 65 185 140 122 L26 122 L26 0 Z " />
<glyph glyph-name="Iotadieresis" unicode="&#x3aa;" horiz-adv-x="272" d="M63 667 L63 0 L209 0 L209 667 L63 667 Z M52 838 C20 838 -6 814 -6 783 C-6 754 20 729 51 729 C83 729 109 753 109 783 C109 814 83 838 52 838 L52 838 Z M221 838 C190 838 164 813 164 783 C164 754 190 729 221 729 C253 729 279 753 279 783 C279 814 253 838 221 838 L221 838 Z " />
<glyph glyph-name="Upsilondieresis" unicode="&#x3ab;" horiz-adv-x="443" d="M-28 667 L139 282 L139 0 L285 0 L285 282 L470 667 L327 667 L227 423 L133 667 L-28 667 Z M147 838 C115 838 89 814 89 783 C89 754 115 729 146 729 C178 729 204 753 204 783 C204 814 178 838 147 838 L147 838 Z M316 838 C285 838 259 813 259 783 C259 754 285 729 316 729 C348 729 374 753 374 783 C374 814 348 838 316 838 L316 838 Z " />
<glyph glyph-name="alphatonos" unicode="&#x3ac;" horiz-adv-x="477" d="M292 493 L292 447 C268 485 241 499 193 499 C90 499 30 406 30 245 C30 84 87 -7 187 -7 C245 -7 274 16 300 81 L300 0 L427 0 L427 493 L292 493 Z M292 199 C292 121 274 88 231 88 C202 88 185 108 178 148 C173 175 172 194 172 269 C172 368 189 408 232 408 C254 408 273 395 280 375 C290 348 292 336 292 286 L292 199 Z M262 782 L182 588 L256 548 L371 726 L262 782 Z " />
<glyph glyph-name="epsilontonos" unicode="&#x3ad;" horiz-adv-x="424" d="M280 298 L251 298 C226 298 218 299 206 304 C192 310 183 328 183 353 C183 390 200 412 228 412 C258 412 270 395 280 343 L403 366 C385 458 325 503 219 503 C110 503 41 448 41 363 C41 316 60 286 107 258 C49 229 29 199 29 146 C29 97 50 52 86 24 C116 0 159 -11 215 -11 C323 -11 371 25 413 136 L296 157 C280 105 257 81 224 81 C192 81 171 108 171 149 C171 193 189 205 253 205 L280 205 L280 298 Z M251 769 L174 585 L241 550 L349 719 L251 769 Z " />
<glyph glyph-name="etatonos" unicode="&#x3ae;" horiz-adv-x="481" d="M51 493 L51 0 L188 0 L188 289 C188 324 192 360 197 371 C209 398 232 416 254 416 C277 416 291 406 294 388 C296 376 297 357 297 323 L297 -168 L434 -168 L434 323 C434 397 430 422 417 447 C395 485 360 503 309 503 C247 503 215 483 188 426 L188 493 L51 493 Z M287 769 L211 585 L277 550 L386 719 L287 769 Z " />
<glyph glyph-name="iotatonos" unicode="&#x3af;" horiz-adv-x="239" d="M51 493 L51 0 L188 0 L188 493 L51 493 Z M149 769 L72 585 L139 550 L247 719 L149 769 Z " />
<glyph glyph-name="upsilondieresistonos" unicode="&#x3b0;" horiz-adv-x="471" d="M47 493 L47 208 C47 144 52 108 63 80 C89 19 147 -11 235 -11 C318 -11 373 15 401 67 C418 97 424 134 424 208 L424 493 L287 493 L287 208 C287 162 286 139 283 127 C277 106 261 95 236 95 C212 95 196 105 190 123 C185 135 184 156 184 208 L184 493 L47 493 Z M153 668 C121 668 95 643 95 612 C95 582 121 557 153 557 C186 557 212 582 212 612 C212 643 186 668 153 668 L153 668 Z M318 668 C286 668 260 643 260 612 C260 582 286 557 318 557 C351 557 377 582 377 612 C377 643 351 668 318 668 L318 668 Z M188 713 L241 678 L352 821 L271 872 L188 713 Z " />
<glyph glyph-name="alpha" unicode="&#x3b1;" horiz-adv-x="477" d="M292 493 L292 447 C268 485 241 499 193 499 C90 499 30 406 30 245 C30 84 87 -7 187 -7 C245 -7 274 16 300 81 L300 0 L427 0 L427 493 L292 493 Z M292 199 C292 121 274 88 231 88 C202 88 185 108 178 148 C173 175 172 194 172 269 C172 368 189 408 232 408 C254 408 273 395 280 375 C290 348 292 336 292 286 L292 199 Z " />
<glyph glyph-name="beta" unicode="&#x3b2;" horiz-adv-x="505" d="M54 -166 L191 -166 L191 40 C217 3 245 -10 293 -10 C345 -10 399 17 430 58 C459 95 478 154 478 203 C478 253 458 303 425 333 C404 353 383 363 336 377 C408 399 442 443 442 515 C442 559 427 598 398 628 C363 662 318 678 253 678 C167 678 115 653 84 598 C61 556 54 518 54 430 L54 -166 Z M191 450 C191 566 203 595 250 595 C294 595 320 558 320 497 C320 435 301 412 246 409 L246 327 C274 326 286 323 296 316 C320 300 333 264 333 214 C333 134 301 80 255 80 C236 80 216 90 201 107 C191 117 191 119 191 134 L191 450 Z " />
<glyph glyph-name="gamma" unicode="&#x3b3;" horiz-adv-x="384" d="M120 -167 L257 -167 L257 0 L402 493 L286 493 L206 176 L125 493 L-12 493 L120 0 L120 -167 Z " />
<glyph glyph-name="delta" unicode="&#x3b4;" horiz-adv-x="494" d="M408 667 L87 667 L87 575 L211 457 C165 450 140 440 110 415 C54 367 28 310 28 229 C28 81 113 -12 247 -12 C380 -12 464 82 464 231 C464 303 446 360 405 419 C377 460 376 461 299 524 L242 575 L408 575 L408 667 Z M256 372 C306 372 329 328 329 231 C329 132 305 86 255 86 C203 86 181 130 181 232 C181 328 205 372 256 372 L256 372 Z " />
<glyph glyph-name="epsilon" unicode="&#x3b5;" horiz-adv-x="424" d="M280 298 L251 298 C226 298 218 299 206 304 C192 310 183 328 183 353 C183 390 200 412 228 412 C258 412 270 395 280 343 L403 366 C385 458 325 503 219 503 C110 503 41 448 41 363 C41 316 60 286 107 258 C49 229 29 199 29 146 C29 97 50 52 86 24 C116 0 159 -11 215 -11 C323 -11 371 25 413 136 L296 157 C280 105 257 81 224 81 C192 81 171 108 171 149 C171 193 189 205 253 205 L280 205 L280 298 Z " />
<glyph glyph-name="zeta" unicode="&#x3b6;" horiz-adv-x="350" d="M45 561 L202 561 C77 431 28 328 28 194 C28 129 43 78 70 47 C91 22 122 9 180 0 C210 -5 217 -11 217 -33 C217 -61 206 -101 183 -156 L279 -176 C325 -107 345 -50 345 8 C345 78 319 106 246 118 C181 128 167 145 167 215 C167 300 187 372 234 453 C259 496 271 512 336 581 L336 667 L45 667 L45 561 Z " />
<glyph glyph-name="eta" unicode="&#x3b7;" horiz-adv-x="481" d="M51 493 L51 0 L188 0 L188 289 C188 324 192 360 197 371 C209 398 232 416 254 416 C277 416 291 406 294 388 C296 376 297 357 297 323 L297 -168 L434 -168 L434 323 C434 397 430 422 417 447 C395 485 360 503 309 503 C247 503 215 483 188 426 L188 493 L51 493 Z " />
<glyph glyph-name="theta" unicode="&#x3b8;" horiz-adv-x="494" d="M247 677 C111 677 31 551 31 337 C31 114 108 -10 247 -10 C384 -10 463 115 463 333 C463 552 384 677 247 677 L247 677 Z M163 388 C164 439 167 467 174 495 C189 551 214 580 249 580 C274 580 296 560 309 527 C324 491 330 455 332 388 L163 388 Z M332 301 C329 153 303 87 247 87 C190 87 164 154 163 301 L332 301 Z " />
<glyph glyph-name="iota" unicode="&#x3b9;" horiz-adv-x="239" d="M51 493 L51 0 L188 0 L188 493 L51 493 Z " />
<glyph glyph-name="kappa" unicode="&#x3ba;" horiz-adv-x="454" d="M51 493 L51 0 L188 0 L188 159 L239 229 L316 0 L464 0 L327 328 L452 493 L327 493 L188 303 L188 493 L51 493 Z " />
<glyph glyph-name="lambda" unicode="&#x3bb;" horiz-adv-x="389" d="M-12 0 L106 0 L189 283 L262 0 L402 0 L204 667 L67 667 L127 451 L-12 0 Z " />
<glyph glyph-name="uni03BC" unicode="&#x3bc;" horiz-adv-x="487" d="M51 -168 L180 -168 L180 65 C189 12 207 -12 241 -12 C259 -12 276 -3 286 13 C293 22 295 28 304 67 L304 0 L437 0 L437 493 L300 493 L300 232 C300 126 287 95 242 95 C222 95 207 103 198 120 C189 137 188 143 188 232 L188 493 L51 493 L51 -168 Z " />
<glyph glyph-name="nu" unicode="&#x3bd;" horiz-adv-x="382" d="M-4 493 L135 0 L244 0 L379 493 L265 493 L196 202 L128 493 L-4 493 Z " />
<glyph glyph-name="xi" unicode="&#x3be;" horiz-adv-x="398" d="M354 -176 C382 -111 396 -55 396 -7 C396 68 370 99 300 110 C234 120 232 121 219 127 C193 138 180 162 180 199 C180 235 192 262 214 277 C231 289 250 292 298 292 L346 292 L346 397 L298 397 C242 397 212 425 212 478 C212 508 225 533 247 548 C264 559 277 561 319 561 L380 561 L380 667 L47 667 L47 561 L156 561 C90 539 58 504 58 455 C58 429 71 403 91 387 C107 374 119 368 159 352 C62 312 27 265 27 175 C27 98 54 40 104 11 C132 -5 152 -9 220 -14 C261 -17 275 -28 275 -55 C275 -82 269 -121 259 -153 L354 -176 Z " />
<glyph glyph-name="omicron" unicode="&#x3bf;" horiz-adv-x="454" d="M230 503 C93 503 27 419 27 245 C27 76 94 -10 228 -10 C361 -10 428 76 428 246 C428 416 361 503 230 503 L230 503 Z M229 407 C271 407 286 365 286 246 C286 126 271 86 228 86 C184 86 169 126 169 247 C169 367 184 407 229 407 L229 407 Z " />
<glyph glyph-name="pi" unicode="&#x3c0;" horiz-adv-x="541" d="M476 382 L526 382 L526 493 L15 493 L15 382 L65 382 L65 0 L202 0 L202 382 L339 382 L339 0 L476 0 L476 382 Z " />
<glyph glyph-name="rho" unicode="&#x3c1;" horiz-adv-x="476" d="M181 37 C191 10 199 0 218 -6 C234 -12 254 -15 274 -15 C383 -15 449 83 449 244 C449 417 383 503 247 503 C163 503 107 471 74 402 C55 363 44 283 44 180 L44 -167 L181 -167 L181 37 Z M250 407 C292 407 307 365 307 246 C307 126 292 86 249 86 C205 86 190 126 190 247 C190 367 205 407 250 407 L250 407 Z " />
<glyph glyph-name="uni03C2" unicode="&#x3c2;" horiz-adv-x="432" d="M360 -176 C398 -107 417 -50 417 -7 C417 26 406 54 387 73 C369 90 347 99 300 107 C243 117 222 125 204 143 C180 165 169 204 169 263 C169 348 193 398 233 398 C265 398 284 369 291 307 L417 332 C407 376 398 400 383 427 C355 476 301 504 234 504 C106 504 27 407 27 248 C27 143 63 66 133 24 C166 4 192 -4 246 -9 C278 -12 288 -21 288 -44 C288 -73 280 -106 262 -146 L360 -176 Z " />
<glyph glyph-name="sigma" unicode="&#x3c3;" horiz-adv-x="484" d="M300 494 C278 500 255 503 226 503 C94 503 27 416 27 246 C27 75 94 -10 228 -10 C361 -10 428 76 428 247 C428 324 418 355 382 395 L475 395 L475 493 L300 494 Z M229 407 C271 407 286 365 286 246 C286 126 271 86 228 86 C183 86 169 126 169 247 C169 367 184 407 229 407 L229 407 Z " />
<glyph glyph-name="tau" unicode="&#x3c4;" horiz-adv-x="365" d="M-3 493 L-3 384 L113 384 L113 0 L250 0 L250 384 L369 384 L369 493 L-3 493 Z " />
<glyph glyph-name="upsilon" unicode="&#x3c5;" horiz-adv-x="471" d="M47 493 L47 208 C47 144 52 108 63 80 C89 19 147 -11 235 -11 C318 -11 373 15 401 67 C418 97 424 134 424 208 L424 493 L287 493 L287 208 C287 162 286 139 283 127 C277 106 261 95 236 95 C212 95 196 105 190 123 C185 135 184 156 184 208 L184 493 L47 493 Z " />
<glyph glyph-name="phi" unicode="&#x3c6;" horiz-adv-x="622" d="M246 -167 L371 -167 L371 -12 C434 -5 467 7 502 36 C559 81 593 158 593 243 C593 329 560 403 500 450 C453 488 399 503 310 503 C287 503 273 502 246 499 L246 88 C222 98 210 106 200 120 C180 148 168 193 168 246 C168 299 177 330 204 366 L166 480 C74 436 29 360 29 246 C29 154 59 82 118 35 C155 5 187 -7 246 -12 L246 -167 Z M371 409 C425 389 451 338 451 250 C451 196 440 149 420 121 C409 106 396 97 371 87 L371 409 Z " />
<glyph glyph-name="chi" unicode="&#x3c7;" horiz-adv-x="412" d="M7 493 L138 180 L-22 -165 L94 -165 L204 65 L297 -165 L428 -165 L284 165 L428 493 L311 493 L217 306 L138 493 L7 493 Z " />
<glyph glyph-name="psi" unicode="&#x3c8;" horiz-adv-x="660" d="M267 -167 L404 -167 L404 -8 C556 -4 624 73 618 236 L618 493 L481 493 L481 236 C480 124 468 102 404 100 L404 493 L267 493 L267 100 C204 102 192 124 191 236 L191 493 L54 493 L54 236 C48 73 115 -4 267 -8 L267 -167 Z " />
<glyph glyph-name="omega" unicode="&#x3c9;" horiz-adv-x="625" d="M375 349 L250 349 L250 222 C250 124 243 95 218 95 C186 95 169 142 169 229 C169 318 192 393 237 454 L133 509 C58 422 27 340 27 231 C27 76 93 -11 209 -11 C258 -11 287 3 313 41 C338 3 367 -11 416 -11 C532 -11 598 76 598 231 C598 340 575 402 493 509 L389 453 C434 393 456 318 456 229 C456 143 439 95 407 95 C382 95 375 124 375 222 L375 349 Z " />
<glyph glyph-name="iotadieresis" unicode="&#x3ca;" horiz-adv-x="238" d="M51 493 L51 0 L188 0 L188 493 L51 493 Z M37 673 C6 673 -19 650 -19 620 C-19 592 6 568 36 568 C68 568 93 591 93 620 C93 650 68 673 37 673 L37 673 Z M202 673 C171 673 146 650 146 620 C146 592 171 568 201 568 C233 568 258 591 258 620 C258 650 233 673 202 673 L202 673 Z " />
<glyph glyph-name="upsilondieresis" unicode="&#x3cb;" horiz-adv-x="471" d="M47 493 L47 208 C47 144 52 108 63 80 C89 19 147 -11 235 -11 C318 -11 373 15 401 67 C418 97 424 134 424 208 L424 493 L287 493 L287 208 C287 162 286 139 283 127 C277 106 261 95 236 95 C212 95 196 105 190 123 C185 135 184 156 184 208 L184 493 L47 493 Z M153 673 C122 673 97 650 97 620 C97 592 122 568 152 568 C184 568 209 591 209 620 C209 650 184 673 153 673 L153 673 Z M318 673 C287 673 262 650 262 620 C262 592 287 568 317 568 C349 568 374 591 374 620 C374 650 349 673 318 673 L318 673 Z " />
<glyph glyph-name="omicrontonos" unicode="&#x3cc;" horiz-adv-x="454" d="M230 503 C93 503 27 419 27 245 C27 76 94 -10 228 -10 C361 -10 428 76 428 246 C428 416 361 503 230 503 L230 503 Z M229 407 C271 407 286 365 286 246 C286 126 271 86 228 86 C184 86 169 126 169 247 C169 367 184 407 229 407 L229 407 Z M260 769 L184 585 L250 550 L359 719 L260 769 Z " />
<glyph glyph-name="upsilontonos" unicode="&#x3cd;" horiz-adv-x="471" d="M47 493 L47 208 C47 144 52 108 63 80 C89 19 147 -11 235 -11 C318 -11 373 15 401 67 C418 97 424 134 424 208 L424 493 L287 493 L287 208 C287 162 286 139 283 127 C277 106 261 95 236 95 C212 95 196 105 190 123 C185 135 184 156 184 208 L184 493 L47 493 Z M276 769 L200 585 L267 550 L375 719 L276 769 Z " />
<glyph glyph-name="omegatonos" unicode="&#x3ce;" horiz-adv-x="625" d="M375 349 L250 349 L250 222 C250 124 243 95 218 95 C186 95 169 142 169 229 C169 318 192 393 237 454 L133 509 C58 422 27 340 27 231 C27 76 93 -11 209 -11 C258 -11 287 3 313 41 C338 3 367 -11 416 -11 C532 -11 598 76 598 231 C598 340 575 402 493 509 L389 453 C434 393 456 318 456 229 C456 143 439 95 407 95 C382 95 375 124 375 222 L375 349 Z M358 769 L282 585 L348 550 L457 719 L358 769 Z " />
<glyph glyph-name="phi1" unicode="&#x3d5;" horiz-adv-x="579" d="M233 -165 L346 -165 L346 2 C393 11 415 18 443 36 C513 80 550 154 550 250 C550 385 480 470 346 499 L346 658 L233 658 L233 499 C99 470 29 385 29 250 C29 161 60 92 121 47 C153 22 179 12 233 2 L233 -165 Z M233 102 C182 130 162 172 162 250 C162 328 182 370 233 398 L233 102 Z M346 398 C397 370 417 328 417 250 C417 172 397 130 346 102 L346 398 Z " />
<glyph glyph-name="afii10023" unicode="&#x401;" horiz-adv-x="478" d="M63 667 L63 0 L468 0 L468 119 L209 119 L209 283 L411 283 L411 398 L209 398 L209 552 L468 552 L468 667 L63 667 Z M183 840 C151 840 125 816 125 785 C125 756 151 731 182 731 C214 731 240 755 240 785 C240 816 214 840 183 840 L183 840 Z M352 840 C321 840 295 815 295 785 C295 756 321 731 352 731 C384 731 410 755 410 785 C410 816 384 840 352 840 L352 840 Z " />
<glyph glyph-name="afii10051" unicode="&#x402;" horiz-adv-x="507" d="M243 -159 C283 -167 299 -169 322 -169 C421 -169 468 -115 468 0 L468 323 C468 397 465 425 453 452 C434 492 398 513 346 513 C289 513 256 495 227 449 L227 552 L408 552 L408 667 L-8 667 L-8 552 L81 552 L81 0 L227 0 L227 319 C227 382 242 404 285 404 C321 404 330 388 330 323 L330 0 C330 -42 324 -53 301 -53 C284 -53 272 -51 243 -44 L243 -159 Z " />
<glyph glyph-name="afii10052" unicode="&#x403;" horiz-adv-x="468" d="M468 667 L63 667 L63 0 L209 0 L209 546 L468 546 L468 667 Z M157 769 L187 718 L396 782 L363 878 L157 769 Z " />
<glyph glyph-name="afii10053" unicode="&#x404;" horiz-adv-x="559" d="M378 400 L182 400 C194 513 227 559 297 559 C356 559 384 533 400 462 L544 495 C535 539 525 561 498 595 C454 652 388 679 296 679 C225 679 171 660 130 621 C66 560 33 462 33 332 C33 212 62 117 119 56 C160 11 219 -11 294 -11 C445 -11 524 54 546 199 L416 228 C405 180 395 160 374 140 C353 120 325 109 295 109 C224 109 189 164 180 288 L378 288 L378 400 Z " />
<glyph glyph-name="afii10054" unicode="&#x405;" horiz-adv-x="501" d="M455 522 C437 578 421 605 389 630 C351 661 300 677 241 677 C112 677 27 595 27 473 C27 416 49 368 89 333 C122 306 144 295 228 265 C297 240 320 219 320 181 C320 138 286 109 235 109 C179 109 147 139 128 209 L0 173 C34 49 109 -10 232 -10 C373 -10 468 75 468 203 C468 263 445 312 402 347 C373 371 349 383 284 408 C188 444 169 459 169 497 C169 533 198 558 239 558 C286 558 315 533 333 475 L455 522 Z " />
<glyph glyph-name="afii10055" unicode="&#x406;" horiz-adv-x="272" d="M63 667 L63 0 L209 0 L209 667 L63 667 Z " />
<glyph glyph-name="afii10056" unicode="&#x407;" horiz-adv-x="302" d="M78 667 L78 0 L224 0 L224 667 L78 667 Z M67 840 C35 840 9 816 9 785 C9 756 35 731 66 731 C98 731 124 755 124 785 C124 816 98 840 67 840 L67 840 Z M236 840 C205 840 179 815 179 785 C179 756 205 731 236 731 C268 731 294 755 294 785 C294 816 268 840 236 840 L236 840 Z " />
<glyph glyph-name="afii10057" unicode="&#x408;" horiz-adv-x="332" d="M129 667 L129 224 C129 136 117 116 65 116 C49 116 34 118 6 122 L6 0 C54 -8 70 -10 96 -10 C157 -10 204 5 231 35 C264 70 275 118 275 224 L275 667 L129 667 Z " />
<glyph glyph-name="afii10058" unicode="&#x409;" horiz-adv-x="772" d="M403 420 L333 667 L168 667 L-15 0 L120 0 L245 524 L378 0 L523 0 C594 0 634 7 667 25 C724 56 757 124 757 207 C757 277 736 338 699 370 C658 407 610 420 515 420 L403 420 Z M492 108 L436 305 L508 305 C576 305 602 277 602 205 C602 173 594 147 579 130 C564 113 548 108 508 108 L492 108 Z " />
<glyph glyph-name="afii10059" unicode="&#x40a;" horiz-adv-x="827" d="M517 667 L371 667 L371 392 L209 392 L209 667 L63 667 L63 0 L209 0 L209 277 L371 277 L371 0 L562 0 C650 0 685 6 720 25 C777 56 811 124 811 208 C811 277 789 338 753 370 C711 407 664 420 569 420 L517 420 L517 667 Z M517 115 L517 305 L562 305 C630 305 656 278 656 208 C656 178 648 152 633 137 C619 120 601 115 562 115 L517 115 Z " />
<glyph glyph-name="afii10060" unicode="&#x40b;" horiz-adv-x="520" d="M468 0 L468 323 C468 397 465 425 453 452 C434 492 398 513 346 513 C289 513 256 495 227 449 L227 552 L408 552 L408 667 L-8 667 L-8 552 L81 552 L81 0 L227 0 L227 319 C227 382 242 404 285 404 C321 404 330 388 330 323 L330 0 L468 0 Z " />
<glyph glyph-name="afii10061" unicode="&#x40c;" horiz-adv-x="545" d="M63 667 L63 0 L209 0 L209 226 L264 307 L382 0 L533 0 L352 422 L519 667 L371 667 L209 389 L209 667 L63 667 Z M191 773 L221 721 L430 786 L397 881 L191 773 Z " />
<glyph glyph-name="afii10062" unicode="&#x40e;" horiz-adv-x="465" d="M185 200 L179 183 C162 136 153 127 122 124 L60 124 L60 0 L122 0 C215 -2 261 40 305 166 L483 667 L348 667 L248 376 L133 667 L-16 667 L185 200 Z M100 849 C129 768 178 734 267 734 C355 734 405 769 433 849 L352 849 C334 820 310 808 266 808 C223 808 198 820 181 849 L100 849 Z " />
<glyph glyph-name="afii10145" unicode="&#x40f;" horiz-adv-x="579" d="M235 0 L244 -140 L332 -142 L342 0 L516 0 L516 667 L370 667 L370 125 L209 125 L209 667 L63 667 L63 0 L235 0 Z " />
<glyph glyph-name="afii10017" unicode="&#x410;" horiz-adv-x="511" d="M180 667 L-20 0 L115 0 L147 137 L335 137 L368 0 L518 0 L328 667 L180 667 Z M307 252 L175 252 L240 524 L307 252 Z " />
<glyph glyph-name="afii10018" unicode="&#x411;" horiz-adv-x="534" d="M63 667 L63 0 L254 0 C342 0 378 6 413 25 C470 57 504 124 504 208 C504 277 482 338 446 370 C404 407 357 420 261 420 L209 420 L209 552 L442 552 L442 667 L63 667 Z M209 305 L254 305 C323 305 349 278 349 208 C349 178 341 152 326 137 C311 120 294 115 254 115 L209 115 L209 305 Z " />
<glyph glyph-name="afii10019" unicode="&#x412;" horiz-adv-x="557" d="M63 667 L63 0 L291 0 C381 0 415 6 452 31 C496 61 525 121 525 184 C525 265 486 322 412 348 C480 374 508 415 508 491 C508 554 483 612 444 638 C410 661 376 667 291 667 L63 667 Z M204 398 L204 559 L262 559 C330 559 359 535 359 481 C359 453 348 427 332 415 C316 403 291 398 251 398 L204 398 Z M204 115 L204 290 L276 290 C346 290 376 264 376 203 C376 143 344 115 276 115 L204 115 Z " />
<glyph glyph-name="afii10020" unicode="&#x413;" horiz-adv-x="468" d="M468 667 L63 667 L63 0 L209 0 L209 552 L468 552 L468 667 Z " />
<glyph glyph-name="afii10021" unicode="&#x414;" horiz-adv-x="518" d="M27 122 L-15 122 L-15 -135 L94 -135 L106 0 L411 0 L424 -135 L533 -135 L533 122 L491 122 L360 667 L172 667 L27 122 Z M160 122 L244 526 L263 526 L343 122 L160 122 Z " />
<glyph glyph-name="afii10022" unicode="&#x415;" horiz-adv-x="494" d="M63 667 L63 0 L468 0 L468 119 L209 119 L209 283 L411 283 L411 398 L209 398 L209 552 L468 552 L468 667 L63 667 Z " />
<glyph glyph-name="afii10024" unicode="&#x416;" horiz-adv-x="717" d="M545 380 L717 667 L575 667 L442 423 L437 421 L437 667 L291 667 L291 421 L280 423 L152 667 L-1 667 L182 347 L-15 0 L126 0 L286 291 L291 286 L291 0 L437 0 L437 286 L443 291 L601 0 L755 0 L545 380 Z " />
<glyph glyph-name="afii10025" unicode="&#x417;" horiz-adv-x="494" d="M157 465 C168 517 169 520 175 532 C185 551 208 563 237 563 C281 563 305 534 305 482 C305 453 296 430 279 416 C262 402 250 399 211 399 L189 399 L189 292 L211 292 C281 292 314 263 314 201 C314 142 285 109 235 109 C203 109 181 119 166 142 C157 157 153 171 140 229 L11 207 C32 119 44 87 74 48 C106 6 151 -11 224 -11 C381 -11 465 59 465 190 C465 274 429 325 352 350 C422 383 451 426 451 498 C451 611 377 677 253 677 C181 677 123 657 88 620 C62 591 48 561 30 489 L157 465 Z " />
<glyph glyph-name="afii10026" unicode="&#x418;" horiz-adv-x="590" d="M209 68 L358 328 L382 372 L381 345 L381 0 L527 0 L527 667 L381 667 L381 593 L231 333 L209 292 L209 667 L63 667 L63 0 L209 0 L209 68 Z " />
<glyph glyph-name="afii10027" unicode="&#x419;" horiz-adv-x="591" d="M210 68 L359 328 L383 372 L382 345 L382 0 L528 0 L528 667 L382 667 L382 593 L232 333 L210 292 L210 667 L64 667 L64 0 L210 0 L210 68 Z M136 841 C165 760 214 726 303 726 C391 726 442 761 469 841 L388 841 C371 812 347 800 303 800 C259 800 234 812 217 841 L136 841 Z " />
<glyph glyph-name="afii10028" unicode="&#x41a;" horiz-adv-x="545" d="M63 667 L63 0 L209 0 L209 226 L264 307 L382 0 L533 0 L352 422 L519 667 L371 667 L209 389 L209 667 L63 667 Z " />
<glyph glyph-name="afii10029" unicode="&#x41b;" horiz-adv-x="512" d="M120 0 L245 524 L378 0 L523 0 L333 667 L168 667 L-15 0 L120 0 Z " />
<glyph glyph-name="afii10030" unicode="&#x41c;" horiz-adv-x="749" d="M63 667 L63 0 L182 0 L182 558 L306 0 L413 0 L549 558 L549 0 L686 0 L686 667 L478 667 L372 255 L278 667 L63 667 Z " />
<glyph glyph-name="afii10031" unicode="&#x41d;" horiz-adv-x="579" d="M63 667 L63 0 L209 0 L209 273 L370 273 L370 0 L516 0 L516 667 L370 667 L370 398 L209 398 L209 667 L63 667 Z " />
<glyph glyph-name="afii10032" unicode="&#x41e;" horiz-adv-x="550" d="M278 677 C115 677 33 562 33 331 C33 107 116 -10 275 -10 C434 -10 517 107 517 333 C517 464 491 554 437 613 C399 654 342 677 278 677 L278 677 Z M276 558 C340 558 363 500 363 334 C363 166 341 109 275 109 C209 109 187 166 187 335 C187 502 210 558 276 558 L276 558 Z " />
<glyph glyph-name="afii10033" unicode="&#x41f;" horiz-adv-x="579" d="M63 667 L63 0 L209 0 L209 542 L370 542 L370 0 L516 0 L516 667 L370 667 L209 667 L63 667 Z " />
<glyph glyph-name="afii10034" unicode="&#x420;" horiz-adv-x="523" d="M63 667 L63 0 L209 0 L209 246 L261 246 C349 246 392 256 434 286 C478 319 503 381 503 459 C503 536 475 600 425 634 C388 660 350 667 254 667 L63 667 Z M209 559 L254 559 C290 559 307 555 321 541 C338 525 348 496 348 462 C348 389 322 361 254 361 L209 361 L209 559 Z " />
<glyph glyph-name="afii10035" unicode="&#x421;" horiz-adv-x="539" d="M381 243 C370 151 340 109 287 109 C216 109 187 171 187 322 C187 489 216 558 287 558 C318 558 342 543 359 513 C372 490 376 467 380 409 L514 419 C508 495 497 538 471 580 C432 644 369 677 286 677 C124 677 33 553 33 333 C33 115 124 -10 284 -10 C417 -10 505 83 517 234 L381 243 Z " />
<glyph glyph-name="afii10036" unicode="&#x422;" horiz-adv-x="416" d="M0 667 L0 542 L133 542 L133 0 L280 0 L280 542 L416 542 L416 667 L0 667 Z " />
<glyph glyph-name="afii10037" unicode="&#x423;" horiz-adv-x="456" d="M181 200 L175 183 C158 136 149 127 118 124 L56 124 L56 0 L118 0 C211 -2 257 40 301 166 L479 667 L344 667 L244 376 L129 667 L-20 667 L181 200 Z " />
<glyph glyph-name="afii10038" unicode="&#x424;" horiz-adv-x="649" d="M263 -19 L388 -19 L388 62 C448 76 470 84 496 98 C571 138 616 226 616 332 C616 431 582 507 516 557 C479 584 448 596 388 606 L388 687 L263 687 L263 607 C198 594 166 581 129 551 C67 502 35 428 35 332 C35 227 78 142 153 98 C181 81 206 73 263 61 L263 -19 Z M263 175 C202 200 177 248 177 335 C177 420 203 468 263 493 L263 175 Z M388 493 C448 468 474 420 474 334 C474 248 448 200 388 174 L388 493 Z " />
<glyph glyph-name="afii10039" unicode="&#x425;" horiz-adv-x="477" d="M5 667 L168 342 L-15 0 L125 0 L234 218 L332 0 L492 0 L315 366 L472 667 L332 667 L248 493 L168 667 L5 667 Z " />
<glyph glyph-name="afii10040" unicode="&#x426;" horiz-adv-x="616" d="M521 125 L521 667 L375 667 L375 125 L214 125 L214 667 L68 667 L68 0 L499 0 L512 -135 L621 -135 L621 125 L521 125 Z " />
<glyph glyph-name="afii10041" unicode="&#x427;" horiz-adv-x="549" d="M340 0 L486 0 L486 667 L340 667 L340 373 C313 342 283 326 252 326 C210 326 195 352 195 424 L195 667 L49 667 L49 430 C49 353 57 315 82 278 C114 231 163 206 226 206 C272 206 300 215 340 244 L340 0 Z " />
<glyph glyph-name="afii10042" unicode="&#x428;" horiz-adv-x="819" d="M68 0 L751 0 L751 667 L605 667 L605 125 L482 125 L482 667 L336 667 L336 125 L214 125 L214 667 L68 667 L68 0 Z " />
<glyph glyph-name="afii10043" unicode="&#x429;" horiz-adv-x="841" d="M746 125 L746 667 L600 667 L600 125 L477 125 L477 667 L331 667 L331 125 L209 125 L209 667 L63 667 L63 0 L724 0 L737 -135 L846 -135 L846 125 L746 125 Z " />
<glyph glyph-name="afii10044" unicode="&#x42a;" horiz-adv-x="589" d="M131 0 L323 0 C411 0 446 6 481 25 C539 57 572 124 572 208 C572 277 550 338 514 370 C473 407 425 420 330 420 L278 420 L278 667 L-25 667 L-25 534 L132 534 L131 0 Z M278 108 L278 305 L323 305 C391 305 417 277 417 205 C417 174 409 147 394 130 C380 113 362 108 323 108 L278 108 Z " />
<glyph glyph-name="afii10045" unicode="&#x42b;" horiz-adv-x="784" d="M63 0 L254 0 C342 0 377 6 412 25 C470 57 503 124 503 208 C503 277 481 338 445 370 C404 407 356 420 261 420 L209 420 L209 667 L63 667 L63 0 Z M209 108 L209 305 L254 305 C322 305 348 277 348 205 C348 174 340 147 325 130 C311 113 293 108 254 108 L209 108 Z M575 667 L575 0 L721 0 L721 667 L575 667 Z " />
<glyph glyph-name="afii10046" unicode="&#x42c;" horiz-adv-x="521" d="M63 0 L254 0 C342 0 377 6 412 25 C470 57 503 124 503 208 C503 277 481 338 445 370 C404 407 356 420 261 420 L209 420 L209 667 L63 667 L63 0 Z M209 108 L209 305 L254 305 C322 305 348 277 348 205 C348 174 340 147 325 130 C311 113 293 108 254 108 L209 108 Z " />
<glyph glyph-name="afii10047" unicode="&#x42d;" horiz-adv-x="559" d="M181 400 L181 288 L379 288 C369 164 335 109 264 109 C234 109 206 120 185 140 C164 160 154 180 143 228 L13 199 C35 54 114 -11 265 -11 C340 -11 399 11 440 56 C496 117 526 212 526 332 C526 462 493 560 429 621 C388 660 334 679 263 679 C178 679 113 655 70 607 C38 571 24 542 15 495 L159 462 C175 533 203 559 262 559 C332 559 365 513 377 400 L181 400 Z " />
<glyph glyph-name="afii10048" unicode="&#x42e;" horiz-adv-x="806" d="M289 273 C304 155 322 104 368 54 C407 12 463 -10 530 -10 C689 -10 772 107 772 334 C772 560 689 677 530 677 C463 677 406 655 368 613 C323 564 305 514 289 398 L209 398 L209 667 L63 667 L63 0 L209 0 L209 273 L289 273 Z M532 558 C596 558 618 500 618 334 C618 166 596 109 531 109 C465 109 443 166 443 335 C443 502 465 558 532 558 L532 558 Z " />
<glyph glyph-name="afii10049" unicode="&#x42f;" horiz-adv-x="557" d="M493 667 L284 667 C201 667 175 662 139 641 C84 608 54 545 54 465 C54 380 81 331 148 291 L25 0 L185 0 L273 263 L347 263 L347 0 L493 0 L493 667 Z M347 559 L347 371 L283 371 C227 371 197 405 197 468 C197 498 206 523 222 539 C236 554 254 559 288 559 L347 559 Z " />
<glyph glyph-name="afii10065" unicode="&#x430;" horiz-adv-x="467" d="M172 337 C177 391 193 412 230 412 C267 412 279 392 279 325 L279 306 C213 302 162 292 119 275 C59 251 25 196 25 125 C25 41 74 -10 155 -10 C193 -10 228 3 253 25 C266 37 274 48 290 75 C290 28 290 24 297 0 L424 0 C417 21 417 30 416 110 L416 306 C416 390 409 425 385 450 C354 484 303 503 241 503 C127 503 56 449 42 349 L172 337 Z M279 212 C279 160 274 134 260 112 C247 91 231 81 213 81 C183 81 167 103 167 143 C167 203 194 226 279 236 L279 212 Z " />
<glyph glyph-name="afii10066" unicode="&#x431;" horiz-adv-x="481" d="M282 708 C279 676 272 671 214 660 C147 646 101 603 68 524 C42 463 29 376 29 272 C29 197 38 141 58 100 C93 27 154 -11 239 -11 C374 -11 451 85 451 253 C451 414 378 514 262 514 C222 514 195 505 166 483 C180 541 200 566 241 577 C363 606 408 642 407 708 L282 708 Z M237 408 C283 408 309 351 309 248 C309 150 284 95 238 95 C189 95 163 149 163 250 C163 351 190 408 237 408 L237 408 Z " />
<glyph glyph-name="afii10067" unicode="&#x432;" horiz-adv-x="486" d="M51 0 L320 0 C405 0 460 56 460 143 C460 200 438 235 384 263 C427 291 445 321 445 367 C445 410 428 446 397 469 C371 488 351 493 300 493 L51 493 L51 0 Z M197 301 L197 403 L272 403 C306 403 317 390 317 351 C317 315 305 301 272 301 L197 301 Z M197 106 L197 217 L279 217 C313 217 327 201 327 161 C327 121 314 106 279 106 L197 106 Z " />
<glyph glyph-name="afii10068" unicode="&#x433;" horiz-adv-x="334" d="M51 493 L51 0 L188 0 L188 386 L331 386 L331 493 L51 493 Z " />
<glyph glyph-name="afii10069" unicode="&#x434;" horiz-adv-x="429" d="M31 107 L-9 107 L-9 -110 L90 -110 L102 0 L327 0 L339 -110 L438 -110 L438 107 L398 107 L309 493 L131 493 L31 107 Z M134 107 L200 361 L209 361 L260 107 L134 107 Z " />
<glyph glyph-name="afii10070" unicode="&#x435;" horiz-adv-x="454" d="M428 224 C427 320 420 361 392 413 C362 469 301 503 232 503 C103 503 27 405 27 240 C27 81 102 -10 232 -10 C294 -10 341 8 376 47 C403 78 416 105 428 162 L305 170 C298 110 277 86 235 86 C188 86 169 119 169 198 L169 224 L428 224 Z M170 303 C172 380 191 412 234 412 C258 412 278 399 288 377 C295 361 298 341 298 303 L170 303 Z " />
<glyph glyph-name="afii10072" unicode="&#x436;" horiz-adv-x="596" d="M469 296 L599 493 L464 493 L378 335 L366 328 L366 493 L237 493 L237 328 L223 335 L139 493 L0 493 L137 265 L-14 0 L118 0 L234 213 L237 212 L237 0 L366 0 L366 212 L369 213 L480 0 L623 0 L469 296 Z " />
<glyph glyph-name="afii10073" unicode="&#x437;" horiz-adv-x="422" d="M144 298 L144 205 L171 205 C235 205 253 193 253 149 C253 108 232 81 200 81 C167 81 144 105 128 157 L11 136 C53 25 101 -11 209 -11 C265 -11 308 0 338 24 C374 52 395 97 395 146 C395 199 375 229 317 258 C364 286 383 316 383 363 C383 448 314 503 205 503 C99 503 39 458 21 366 L144 343 C154 395 166 412 196 412 C224 412 241 390 241 353 C241 309 226 298 166 298 L144 298 Z " />
<glyph glyph-name="afii10074" unicode="&#x438;" horiz-adv-x="487" d="M188 59 L277 193 L300 230 L300 0 L437 0 L437 493 L300 493 L300 430 L206 284 L188 256 L188 493 L51 493 L51 0 L188 0 L188 59 Z " />
<glyph glyph-name="afii10075" unicode="&#x439;" horiz-adv-x="487" d="M188 59 L277 193 L300 230 L300 0 L437 0 L437 493 L300 493 L300 430 L206 284 L188 256 L188 493 L51 493 L51 0 L188 0 L188 59 Z M86 675 C116 588 162 553 248 553 C334 553 381 589 410 675 L331 675 C313 639 290 625 248 625 C206 625 183 639 165 675 L86 675 Z " />
<glyph glyph-name="afii10076" unicode="&#x43a;" horiz-adv-x="443" d="M51 493 L51 0 L188 0 L188 159 L239 229 L316 0 L464 0 L327 328 L452 493 L327 493 L188 303 L188 493 L51 493 Z " />
<glyph glyph-name="afii10077" unicode="&#x43b;" horiz-adv-x="403" d="M-14 0 L113 0 L195 321 L270 0 L412 0 L276 493 L133 493 L-14 0 Z " />
<glyph glyph-name="afii10078" unicode="&#x43c;" horiz-adv-x="626" d="M51 0 L167 0 L167 276 L243 0 L373 0 L450 277 L450 0 L576 0 L576 493 L408 493 L320 159 L229 493 L51 493 L51 0 Z " />
<glyph glyph-name="afii10079" unicode="&#x43d;" horiz-adv-x="486" d="M51 0 L188 0 L188 209 L299 209 L299 0 L436 0 L436 493 L299 493 L299 316 L188 316 L188 493 L51 493 L51 0 Z " />
<glyph glyph-name="afii10080" unicode="&#x43e;" horiz-adv-x="454" d="M230 503 C93 503 27 419 27 245 C27 76 94 -10 228 -10 C361 -10 428 76 428 246 C428 416 361 503 230 503 L230 503 Z M229 407 C271 407 286 365 286 246 C286 126 271 86 228 86 C184 86 169 126 169 247 C169 367 184 407 229 407 L229 407 Z " />
<glyph glyph-name="afii10081" unicode="&#x43f;" horiz-adv-x="468" d="M51 0 L188 0 L188 403 L281 403 L281 0 L418 0 L418 493 L51 493 L51 0 Z " />
<glyph glyph-name="afii10082" unicode="&#x440;" horiz-adv-x="476" d="M51 493 L51 -167 L186 -167 L186 37 C216 5 241 -7 281 -7 C388 -7 448 86 448 253 C448 408 389 500 290 500 C240 500 210 479 178 419 L178 493 L51 493 Z M186 295 C186 331 187 345 191 360 C200 393 219 409 248 409 C292 409 306 371 306 255 C306 126 292 89 244 89 C220 89 202 99 194 116 C189 129 186 155 186 202 L186 295 Z " />
<glyph glyph-name="afii10083" unicode="&#x441;" horiz-adv-x="432" d="M417 312 C411 381 398 416 363 453 C331 487 288 503 231 503 C99 503 27 412 27 247 C27 79 95 -10 223 -10 C339 -10 402 53 417 184 L288 192 C284 127 268 101 232 101 C185 101 165 146 165 252 C165 353 187 399 234 399 C269 399 284 374 288 307 L417 312 Z " />
<glyph glyph-name="afii10084" unicode="&#x442;" horiz-adv-x="349" d="M-12 493 L-12 384 L104 384 L104 0 L241 0 L241 384 L360 384 L360 493 L-12 493 Z " />
<glyph glyph-name="afii10085" unicode="&#x443;" horiz-adv-x="386" d="M-4 493 L138 9 C120 -52 108 -62 56 -62 C42 -62 34 -61 16 -59 L16 -167 C41 -173 54 -175 75 -175 C118 -175 151 -163 175 -139 C199 -114 210 -91 234 -8 L383 493 L264 493 L200 192 L133 493 L-4 493 Z " />
<glyph glyph-name="afii10086" unicode="&#x444;" horiz-adv-x="579" d="M233 -165 L346 -165 L346 2 C393 11 415 18 443 36 C513 80 550 154 550 250 C550 385 480 470 346 499 L346 658 L233 658 L233 499 C99 470 29 385 29 250 C29 161 60 92 121 47 C153 22 179 12 233 2 L233 -165 Z M233 102 C182 130 162 172 162 250 C162 328 182 370 233 398 L233 102 Z M346 398 C397 370 417 328 417 250 C417 172 397 130 346 102 L346 398 Z " />
<glyph glyph-name="afii10087" unicode="&#x445;" horiz-adv-x="375" d="M-5 493 L122 252 L-24 0 L95 0 L178 148 L250 0 L399 0 L253 276 L380 493 L260 493 L197 379 L144 493 L-5 493 Z " />
<glyph glyph-name="afii10088" unicode="&#x446;" horiz-adv-x="478" d="M51 0 L375 0 L387 -116 L486 -116 L486 107 L425 107 L425 493 L288 493 L288 107 L188 107 L188 493 L51 493 L51 0 Z " />
<glyph glyph-name="afii10089" unicode="&#x447;" horiz-adv-x="450" d="M263 0 L400 0 L400 493 L263 493 L263 267 C249 257 234 253 215 253 C187 253 176 268 176 307 L176 493 L39 493 L39 292 C39 248 46 221 66 196 C91 164 132 146 181 146 C212 146 230 150 263 164 L263 0 Z " />
<glyph glyph-name="afii10090" unicode="&#x448;" horiz-adv-x="689" d="M53 0 L636 0 L636 493 L499 493 L499 107 L413 107 L413 493 L276 493 L276 107 L190 107 L190 493 L53 493 L53 0 Z " />
<glyph glyph-name="afii10091" unicode="&#x449;" horiz-adv-x="688" d="M51 0 L585 0 L597 -116 L696 -116 L696 107 L634 107 L634 493 L499 493 L499 107 L410 107 L410 493 L275 493 L275 107 L186 107 L186 493 L51 493 L51 0 Z " />
<glyph glyph-name="afii10092" unicode="&#x44a;" horiz-adv-x="476" d="M79 0 L300 0 C349 0 381 9 407 31 C441 60 459 105 459 160 C459 214 441 261 409 290 C384 313 352 323 307 323 L216 323 L216 493 L-28 493 L-28 396 L79 396 L79 0 Z M217 96 L217 224 L283 224 C313 224 326 205 326 161 C326 144 323 129 317 119 C310 107 294 96 283 96 L217 96 Z " />
<glyph glyph-name="afii10093" unicode="&#x44b;" horiz-adv-x="673" d="M51 0 L272 0 C321 0 353 9 378 31 C413 60 431 105 431 160 C431 214 413 261 381 290 C355 313 324 323 279 323 L188 323 L188 493 L51 493 L51 0 Z M188 96 L188 224 L254 224 C285 224 298 205 298 161 C298 143 295 129 289 119 C281 107 265 96 254 96 L188 96 Z M486 0 L623 0 L623 493 L486 493 L486 0 Z " />
<glyph glyph-name="afii10094" unicode="&#x44c;" horiz-adv-x="448" d="M51 0 L272 0 C321 0 353 9 378 31 C413 60 431 105 431 160 C431 214 413 261 381 290 C355 313 324 323 279 323 L188 323 L188 493 L51 493 L51 0 Z M188 96 L188 224 L254 224 C285 224 298 205 298 161 C298 143 295 129 289 119 C281 107 265 96 254 96 L188 96 Z " />
<glyph glyph-name="afii10095" unicode="&#x44d;" horiz-adv-x="430" d="M110 297 L110 207 L265 207 C260 135 238 102 193 102 C160 102 145 119 138 165 L10 140 C27 43 95 -11 199 -11 C332 -11 403 81 403 253 C403 344 384 402 338 448 C300 486 254 504 194 504 C98 504 35 454 11 358 L140 345 C150 390 162 403 194 403 C238 403 257 375 263 297 L110 297 Z " />
<glyph glyph-name="afii10096" unicode="&#x44e;" horiz-adv-x="661" d="M234 208 C244 119 258 80 295 41 C328 6 372 -10 434 -10 C567 -10 634 76 634 246 C634 417 567 503 434 503 C371 503 328 487 295 451 C262 416 248 384 237 312 L188 312 L188 488 L51 488 L51 0 L188 0 L188 208 L234 208 Z M435 407 C477 407 492 365 492 246 C492 126 477 86 434 86 C390 86 375 126 375 247 C375 367 390 407 435 407 L435 407 Z " />
<glyph glyph-name="afii10097" unicode="&#x44f;" horiz-adv-x="476" d="M288 0 L425 0 L425 493 L211 493 C157 493 129 487 102 468 C63 441 42 395 42 340 C42 282 62 246 111 216 L11 0 L152 0 L227 187 L288 187 L288 0 Z M288 286 L235 286 C191 286 176 300 176 342 C176 387 190 403 229 403 L288 403 L288 286 Z " />
<glyph glyph-name="afii10071" unicode="&#x451;" horiz-adv-x="454" d="M428 224 C427 320 420 361 392 413 C362 469 301 503 232 503 C103 503 27 405 27 240 C27 81 102 -10 232 -10 C294 -10 341 8 376 47 C403 78 416 105 428 162 L305 170 C298 110 277 86 235 86 C188 86 169 119 169 198 L169 224 L428 224 Z M170 303 C172 380 191 412 234 412 C258 412 278 399 288 377 C295 361 298 341 298 303 L170 303 Z M149 668 C118 668 93 645 93 615 C93 587 118 563 148 563 C180 563 205 586 205 615 C205 645 180 668 149 668 L149 668 Z M313 668 C282 668 257 645 257 615 C257 587 282 563 312 563 C344 563 369 586 369 615 C369 645 344 668 313 668 L313 668 Z " />
<glyph glyph-name="afii10099" unicode="&#x452;" horiz-adv-x="471" d="M50 0 L185 0 L185 255 C185 333 211 380 255 380 C296 380 305 341 305 159 C305 46 300 -10 288 -32 C279 -48 263 -59 247 -59 C242 -59 235 -59 227 -58 L238 -158 L273 -159 C336 -159 389 -127 410 -75 C428 -33 433 23 433 158 C433 279 429 348 419 388 C403 454 353 493 284 493 C243 493 215 483 185 458 L185 530 L346 530 L346 622 L185 622 L185 677 L50 677 L50 622 L-22 622 L-22 530 L50 530 L50 0 Z " />
<glyph glyph-name="afii10100" unicode="&#x453;" horiz-adv-x="334" d="M51 493 L51 0 L188 0 L188 386 L331 386 L331 493 L51 493 Z M108 592 L149 551 L329 664 L274 746 L108 592 Z " />
<glyph glyph-name="afii10101" unicode="&#x454;" horiz-adv-x="431" d="M320 297 L167 297 C173 375 192 403 236 403 C268 403 280 390 290 345 L419 358 C395 454 332 504 236 504 C176 504 130 486 92 448 C46 402 27 344 27 253 C27 81 98 -11 231 -11 C335 -11 400 41 420 140 L292 165 C285 119 270 102 237 102 C192 102 170 135 165 207 L320 207 L320 297 Z " />
<glyph glyph-name="afii10102" unicode="&#x455;" horiz-adv-x="395" d="M361 375 C349 417 337 437 312 460 C282 488 241 503 194 503 C91 503 19 439 19 346 C19 271 63 225 167 191 C232 171 246 159 246 127 C246 98 226 81 192 81 C149 81 124 104 113 154 L4 136 C12 87 23 61 49 37 C81 7 131 -10 189 -10 C300 -10 376 55 376 151 C376 193 360 229 330 254 C307 273 293 280 230 302 C162 326 148 337 148 369 C148 395 165 412 191 412 C226 412 247 393 263 345 L361 375 Z " />
<glyph glyph-name="afii10103" unicode="&#x456;" horiz-adv-x="241" d="M52 493 L52 0 L189 0 L189 493 L52 493 Z M191 534 L191 670 L51 670 L51 534 L191 534 Z " />
<glyph glyph-name="afii10104" unicode="&#x457;" horiz-adv-x="281" d="M74 493 L74 0 L211 0 L211 493 L74 493 Z M58 668 C27 668 2 645 2 615 C2 587 27 563 57 563 C89 563 114 586 114 615 C114 645 89 668 58 668 L58 668 Z M223 668 C192 668 167 645 167 615 C167 587 192 563 222 563 C254 563 279 586 279 615 C279 645 254 668 223 668 L223 668 Z " />
<glyph glyph-name="afii10105" unicode="&#x458;" horiz-adv-x="218" d="M29 493 L29 20 C28 -35 28 -35 22 -46 C16 -58 5 -63 -17 -63 C-22 -63 -26 -63 -35 -61 L-35 -174 C0 -179 17 -181 39 -181 C90 -181 128 -162 147 -126 C162 -99 166 -68 166 16 L166 493 L29 493 Z M167 534 L167 670 L27 670 L27 534 L167 534 Z " />
<glyph glyph-name="afii10106" unicode="&#x459;" horiz-adv-x="626" d="M329 323 L291 493 L147 493 L-14 0 L113 0 L205 317 L260 0 L453 0 C502 0 534 9 559 31 C594 60 612 105 612 160 C612 214 594 261 562 290 C536 313 505 323 460 323 L329 323 Z M375 99 L350 224 L435 224 C466 224 479 205 479 161 C479 122 462 99 435 99 L375 99 Z " />
<glyph glyph-name="afii10107" unicode="&#x45a;" horiz-adv-x="695" d="M436 493 L299 493 L299 316 L188 316 L188 493 L51 493 L51 0 L188 0 L188 209 L299 209 L299 0 L520 0 C569 0 601 9 626 31 C661 60 679 105 679 160 C679 263 623 323 527 323 L436 323 L436 493 Z M436 96 L436 224 L502 224 C533 224 546 205 546 161 C546 143 543 129 537 119 C529 107 513 96 502 96 L436 96 Z " />
<glyph glyph-name="afii10108" unicode="&#x45b;" horiz-adv-x="475" d="M50 622 L-22 622 L-22 530 L50 530 L50 0 L185 0 L185 255 C185 328 215 379 257 379 C290 379 300 356 300 281 L300 0 L435 0 L435 291 C435 368 429 399 408 432 C384 471 342 492 290 492 C244 492 218 481 185 448 L185 530 L343 530 L343 622 L185 622 L185 679 L50 679 L50 622 Z " />
<glyph glyph-name="afii10109" unicode="&#x45c;" horiz-adv-x="443" d="M51 493 L51 0 L188 0 L188 159 L239 229 L316 0 L464 0 L327 328 L452 493 L327 493 L188 303 L188 493 L51 493 Z M169 590 L210 550 L390 663 L335 744 L169 590 Z " />
<glyph glyph-name="afii10110" unicode="&#x45e;" horiz-adv-x="386" d="M-4 493 L138 9 C120 -52 108 -62 56 -62 C42 -62 34 -61 16 -59 L16 -167 C41 -173 54 -175 75 -175 C118 -175 151 -163 175 -139 C199 -114 210 -91 234 -8 L383 493 L264 493 L200 192 L133 493 L-4 493 Z M33 675 C62 588 109 553 195 553 C280 553 328 589 356 675 L278 675 C260 639 237 625 195 625 C152 625 129 639 112 675 L33 675 Z " />
<glyph glyph-name="afii10193" unicode="&#x45f;" horiz-adv-x="474" d="M51 0 L181 0 L190 -116 L285 -116 L294 0 L424 0 L424 493 L287 493 L287 107 L188 107 L188 493 L51 493 L51 0 Z " />
<glyph glyph-name="afii10050" unicode="&#x490;" horiz-adv-x="468" d="M468 791 L350 791 L350 667 L63 667 L63 0 L209 0 L209 546 L468 546 L468 791 Z " />
<glyph glyph-name="afii10098" unicode="&#x491;" horiz-adv-x="348" d="M208 502 L51 502 L51 0 L188 0 L188 396 L345 396 L345 604 L208 604 L208 502 Z " />
<glyph glyph-name="uni0492" unicode="&#x492;" horiz-adv-x="468" d="M209 401 L209 552 L468 552 L468 667 L63 667 L63 401 L33 401 L33 283 L63 283 L63 0 L209 0 L209 283 L408 283 L408 401 L209 401 Z " />
<glyph glyph-name="uni0493" unicode="&#x493;" horiz-adv-x="334" d="M187 298 L187 386 L330 386 L330 493 L50 493 L50 298 L22 298 L22 191 L50 191 L50 0 L187 0 L187 191 L260 191 L260 298 L187 298 Z " />
<glyph glyph-name="uni0496" unicode="&#x496;" horiz-adv-x="819" d="M693 0 L704 -150 L796 -150 L796 63 L720 63 L545 380 L717 667 L575 667 L442 423 L437 421 L437 667 L291 667 L291 421 L280 423 L152 667 L-1 667 L182 347 L-15 0 L126 0 L286 291 L291 286 L291 0 L437 0 L437 286 L443 291 L601 0 L693 0 Z " />
<glyph glyph-name="uni0497" unicode="&#x497;" horiz-adv-x="666" d="M582 78 L469 296 L600 493 L464 493 L378 335 L366 327 L366 493 L237 493 L237 327 L223 334 L139 493 L0 493 L137 265 L-14 0 L118 0 L234 212 L237 211 L237 0 L366 0 L366 211 L369 212 L481 0 L548 0 L558 -135 L650 -135 L650 78 L582 78 Z " />
<glyph glyph-name="uni049A" unicode="&#x49a;" horiz-adv-x="566" d="M63 667 L63 0 L209 0 L209 226 L265 307 L382 0 L458 0 L471 -135 L580 -135 L580 125 L480 125 L352 422 L520 667 L371 667 L209 389 L209 667 L63 667 Z " />
<glyph glyph-name="uni049B" unicode="&#x49b;" horiz-adv-x="467" d="M51 493 L51 0 L188 0 L188 160 L239 229 L316 0 L369 0 L382 -116 L481 -116 L481 107 L420 107 L328 328 L452 493 L327 493 L188 303 L188 493 L51 493 Z " />
<glyph glyph-name="uni049C" unicode="&#x49c;" horiz-adv-x="545" d="M228 420 L209 388 L209 667 L63 667 L63 0 L209 0 L209 226 L228 253 L228 119 L296 119 L296 227 L383 0 L534 0 L353 421 L520 667 L372 667 L296 536 L296 604 L228 604 L228 420 Z " />
<glyph glyph-name="uni049D" unicode="&#x49d;" horiz-adv-x="443" d="M203 323 L188 303 L188 493 L51 493 L51 0 L188 0 L188 159 L203 179 L203 98 L260 98 L260 165 L316 0 L464 0 L327 327 L452 493 L327 493 L260 401 L260 452 L203 452 L203 323 Z " />
<glyph glyph-name="uni04A2" unicode="&#x4a2;" horiz-adv-x="612" d="M63 667 L63 0 L209 0 L209 273 L370 273 L370 0 L494 0 L507 -135 L616 -135 L616 125 L516 125 L516 667 L370 667 L370 398 L209 398 L209 667 L63 667 Z " />
<glyph glyph-name="uni04A3" unicode="&#x4a3;" horiz-adv-x="489" d="M51 0 L188 0 L188 209 L299 209 L299 0 L386 0 L398 -116 L497 -116 L497 107 L436 107 L436 493 L299 493 L299 316 L188 316 L188 493 L51 493 L51 0 Z " />
<glyph glyph-name="uni04AE" unicode="&#x4ae;" horiz-adv-x="443" d="M-28 667 L139 282 L139 0 L285 0 L285 282 L470 667 L327 667 L227 423 L133 667 L-28 667 Z " />
<glyph glyph-name="uni04AF" unicode="&#x4af;" horiz-adv-x="393" d="M264 64 L390 493 L271 493 L204 192 L141 493 L3 493 L129 64 L129 -167 L264 -167 L264 64 Z " />
<glyph glyph-name="uni04B0" unicode="&#x4b0;" horiz-adv-x="443" d="M136 288 L6 288 L6 170 L139 170 L139 0 L285 0 L285 170 L418 170 L418 288 L288 288 L469 667 L327 667 L227 423 L133 667 L-28 667 L136 288 Z " />
<glyph glyph-name="uni04B1" unicode="&#x4b1;" horiz-adv-x="393" d="M264 45 L264 63 L390 493 L271 493 L204 191 L141 493 L3 493 L129 63 L129 45 L40 45 L40 -62 L129 -62 L129 -167 L264 -167 L264 -62 L353 -62 L353 45 L264 45 Z " />
<glyph glyph-name="uni04B2" unicode="&#x4b2;" horiz-adv-x="518" d="M5 667 L168 342 L-15 0 L125 0 L234 218 L331 0 L409 0 L423 -135 L531 -135 L531 125 L431 125 L314 366 L472 667 L331 667 L247 493 L168 667 L5 667 Z " />
<glyph glyph-name="uni04B3" unicode="&#x4b3;" horiz-adv-x="390" d="M-5 493 L122 253 L-24 0 L95 0 L178 148 L250 0 L292 0 L304 -116 L404 -116 L404 107 L343 107 L253 276 L380 493 L260 493 L197 379 L144 493 L-5 493 Z " />
<glyph glyph-name="uni04B8" unicode="&#x4b8;" horiz-adv-x="549" d="M307 221 C321 227 329 232 346 244 L346 0 L492 0 L492 667 L346 667 L346 372 C335 359 322 349 307 340 L307 536 L239 536 L239 328 C211 336 203 357 201 423 L201 667 L55 667 L55 429 C49 289 114 207 232 206 L236 206 L239 206 L239 95 L307 95 L307 221 Z " />
<glyph glyph-name="uni04B9" unicode="&#x4b9;" horiz-adv-x="450" d="M251 158 C257 160 257 160 266 164 L266 0 L403 0 L403 493 L266 493 L266 267 C259 262 257 261 251 259 L251 377 L194 377 L194 258 C184 266 179 283 179 307 L179 493 L42 493 L42 292 C39 199 97 144 194 146 L194 69 L251 69 L251 158 Z " />
<glyph glyph-name="uni04BA" unicode="&#x4ba;" horiz-adv-x="549" d="M209 667 L63 667 L63 0 L209 0 L209 294 C236 325 266 341 297 341 C339 341 354 315 354 243 L354 0 L500 0 L500 237 C500 314 492 352 467 389 C435 436 386 461 323 461 C277 461 249 452 209 423 L209 667 Z " />
<glyph glyph-name="uni04BB" unicode="&#x4bb;" horiz-adv-x="477" d="M51 667 L51 0 L188 0 L188 313 C188 374 204 396 250 396 C288 396 297 380 297 316 L297 0 L434 0 L434 316 C434 386 431 416 420 440 C401 482 364 503 306 503 C251 503 221 487 188 441 L188 667 L51 667 Z " />
<glyph glyph-name="uni04C0" unicode="&#x4c0;" horiz-adv-x="272" d="M63 667 L63 0 L209 0 L209 667 L63 667 Z " />
<glyph glyph-name="uni04CF" unicode="&#x4cf;" horiz-adv-x="272" d="M63 667 L63 0 L209 0 L209 667 L63 667 Z " />
<glyph glyph-name="uni04D8" unicode="&#x4d8;" horiz-adv-x="550" d="M362 344 L33 344 L33 341 L33 335 C33 109 116 -9 275 -9 C434 -9 517 109 517 335 C517 560 434 679 278 679 C204 679 136 652 96 607 C64 571 50 543 41 495 L185 463 C200 529 228 559 276 559 C312 559 333 541 347 499 C358 466 361 439 362 347 L362 344 Z M358 226 C348 144 324 111 275 111 C226 111 202 144 192 226 L358 226 Z " />
<glyph glyph-name="afii10846" unicode="&#x4d9;" horiz-adv-x="454" d="M27 269 C27 173 35 131 63 80 C93 24 153 -10 223 -10 C352 -10 428 88 428 253 C428 412 353 503 223 503 C160 503 114 484 79 446 C51 415 39 388 27 331 L149 323 C157 383 177 407 220 407 C267 407 286 374 286 295 L286 269 L27 269 Z M285 190 C283 113 264 81 221 81 C179 81 156 115 156 176 C156 178 156 184 157 190 L285 190 Z " />
<glyph glyph-name="uni04E8" unicode="&#x4e8;" horiz-adv-x="550" d="M189 393 C193 511 218 558 275 558 C332 558 357 511 361 393 L189 393 Z M361 275 C357 156 332 109 275 109 C218 109 193 156 188 275 L361 275 Z M278 677 C115 677 33 562 33 331 C33 107 116 -10 275 -10 C434 -10 517 107 517 333 C517 464 491 554 437 613 C399 654 342 677 278 677 L278 677 Z " />
<glyph glyph-name="uni04E9" unicode="&#x4e9;" horiz-adv-x="454" d="M170 300 L171 303 L171 310 C175 381 191 408 228 408 C266 408 279 381 284 300 L170 300 Z M284 193 C280 113 265 86 228 86 C189 86 175 113 171 193 L284 193 Z M230 503 C93 503 27 419 27 245 C27 76 94 -10 228 -10 C361 -10 428 76 428 246 C428 416 361 503 230 503 L230 503 Z " />
<glyph glyph-name="uni1E1E" unicode="&#x1e1e;" horiz-adv-x="443" d="M63 667 L63 0 L209 0 L209 263 L401 263 L401 378 L209 378 L209 552 L458 552 L458 667 L63 667 Z M261 846 C226 846 197 818 197 783 C197 749 226 721 260 721 C296 721 325 748 325 783 C325 818 296 846 261 846 L261 846 Z " />
<glyph glyph-name="Wdieresis" unicode="&#x1e84;" horiz-adv-x="715" d="M-5 667 L140 -3 L269 -3 L360 460 L449 -3 L580 -3 L723 667 L600 667 L518 204 L436 667 L302 667 L215 205 L145 667 L-5 667 Z M285 838 C253 838 227 814 227 783 C227 754 253 729 284 729 C316 729 342 753 342 783 C342 814 316 838 285 838 L285 838 Z M454 838 C423 838 397 813 397 783 C397 754 423 729 454 729 C486 729 512 753 512 783 C512 814 486 838 454 838 L454 838 Z " />
<glyph glyph-name="uni2011" unicode="&#x2011;" horiz-adv-x="273" d="M37 307 L37 199 L236 199 L236 307 L37 307 Z " />
<glyph glyph-name="figuredash" unicode="&#x2012;" horiz-adv-x="443" d="M40 304 L40 202 L403 202 L403 304 L40 304 Z " />
<glyph glyph-name="endash" unicode="&#x2013;" horiz-adv-x="443" d="M40 304 L40 202 L403 202 L403 304 L40 304 Z " />
<glyph glyph-name="emdash" unicode="&#x2014;" horiz-adv-x="664" d="M37 304 L37 202 L628 202 L628 304 L37 304 Z " />
<glyph glyph-name="afii00208" unicode="&#x2015;" horiz-adv-x="664" d="M37 304 L37 202 L628 202 L628 304 L37 304 Z " />
<glyph glyph-name="underscoredbl" unicode="&#x2017;" horiz-adv-x="500" d="M0 -48 L0 -126 L500 -126 L500 -48 L0 -48 Z M0 -165 L0 -243 L500 -243 L500 -165 L0 -165 Z " />
<glyph glyph-name="quoteleft" unicode="&#x2018;" horiz-adv-x="239" d="M182 399 L182 547 L127 547 L182 678 L128 678 L57 547 L57 399 L182 399 Z " />
<glyph glyph-name="quoteright" unicode="&#x2019;" horiz-adv-x="239" d="M57 667 L57 519 L112 519 L57 388 L111 388 L182 519 L182 667 L57 667 Z " />
<glyph glyph-name="quotesinglbase" unicode="&#x201a;" horiz-adv-x="239" d="M57 148 L57 0 L112 0 L57 -131 L111 -131 L182 0 L182 148 L57 148 Z " />
<glyph glyph-name="quotedblleft" unicode="&#x201c;" horiz-adv-x="426" d="M360 399 L360 547 L305 547 L360 678 L306 678 L235 547 L235 399 L360 399 Z M190 399 L190 547 L135 547 L190 678 L136 678 L65 547 L65 399 L190 399 Z " />
<glyph glyph-name="quotedblright" unicode="&#x201d;" horiz-adv-x="426" d="M65 667 L65 519 L120 519 L65 388 L119 388 L190 519 L190 667 L65 667 Z M235 667 L235 519 L290 519 L235 388 L289 388 L360 519 L360 667 L235 667 Z " />
<glyph glyph-name="quotedblbase" unicode="&#x201e;" horiz-adv-x="426" d="M65 148 L65 0 L120 0 L65 -131 L119 -131 L190 0 L190 148 L65 148 Z M235 148 L235 0 L290 0 L235 -131 L289 -131 L360 0 L360 148 L235 148 Z " />
<glyph glyph-name="dagger" unicode="&#x2020;" horiz-adv-x="511" d="M189 667 L189 488 L51 488 L51 373 L189 373 L189 -167 L321 -167 L321 373 L460 373 L460 488 L321 488 L321 667 L189 667 Z " />
<glyph glyph-name="daggerdbl" unicode="&#x2021;" horiz-adv-x="511" d="M189 667 L189 488 L51 488 L51 373 L189 373 L189 127 L51 127 L51 12 L189 12 L189 -167 L321 -167 L321 12 L460 12 L460 127 L321 127 L321 373 L460 373 L460 488 L321 488 L321 667 L189 667 Z " />
<glyph glyph-name="bullet" unicode="&#x2022;" horiz-adv-x="667" d="M336 479 C258 479 196 417 196 339 C196 263 258 200 334 200 C410 200 471 262 471 340 C471 416 410 479 336 479 L336 479 Z " />
<glyph glyph-name="ellipsis" unicode="&#x2026;" horiz-adv-x="767" d="M60 148 L60 0 L196 0 L196 148 L60 148 Z M316 148 L316 0 L452 0 L452 148 L316 148 Z M571 148 L571 0 L707 0 L707 148 L571 148 Z " />
<glyph glyph-name="perthousand" unicode="&#x2030;" horiz-adv-x="971" d="M160 670 C75 670 27 609 27 499 C27 389 75 327 159 327 C242 327 290 389 290 499 C290 607 242 670 160 670 L160 670 Z M159 596 C185 596 195 569 195 499 C195 427 185 401 159 401 C132 401 122 427 122 499 C122 571 132 596 159 596 L159 596 Z M453 667 L138 0 L214 0 L528 667 L453 667 Z M506 340 C421 340 373 278 373 169 C373 59 421 -3 505 -3 C589 -3 637 59 637 168 C637 277 589 340 506 340 L506 340 Z M506 266 C532 266 542 239 542 169 C542 97 532 71 505 71 C478 71 468 97 468 169 C468 241 478 266 506 266 L506 266 Z M810 340 C725 340 677 278 677 169 C677 59 724 -3 809 -3 C892 -3 940 59 940 168 C940 277 892 340 810 340 L810 340 Z M809 266 C835 266 845 239 845 169 C845 98 835 71 809 71 C782 71 772 96 772 169 C772 241 782 266 809 266 L809 266 Z " />
<glyph glyph-name="guilsinglleft" unicode="&#x2039;" horiz-adv-x="273" d="M224 81 L163 256 L224 431 L152 431 L49 256 L152 81 L224 81 Z " />
<glyph glyph-name="guilsinglright" unicode="&#x203a;" horiz-adv-x="273" d="M49 431 L110 256 L49 81 L122 81 L224 256 L122 431 L49 431 Z " />
<glyph glyph-name="uni203E" unicode="&#x203e;" horiz-adv-x="500" d="M0 812 L0 723 L500 723 L500 812 L0 812 Z " />
<glyph glyph-name="fraction" unicode="&#x2044;" horiz-adv-x="119" d="M174 667 L-141 0 L-54 0 L261 667 L174 667 Z " />
<glyph glyph-name="zerosuperior" unicode="&#x2070;" horiz-adv-x="341" d="M172 673 C67 673 20 609 20 465 C20 326 68 261 170 261 C273 261 321 326 321 467 C321 607 273 673 172 673 L172 673 Z M171 596 C200 596 206 574 206 467 C206 359 200 338 171 338 C141 338 135 360 135 468 C135 574 141 596 171 596 L171 596 Z " />
<glyph glyph-name="foursuperior" unicode="&#x2074;" horiz-adv-x="341" d="M163 672 L15 433 L15 357 L168 357 L168 267 L278 267 L278 357 L326 357 L326 438 L278 438 L278 672 L163 672 Z M178 428 L89 428 L178 580 L178 428 Z " />
<glyph glyph-name="fivesuperior" unicode="&#x2075;" horiz-adv-x="341" d="M54 667 L38 438 L125 423 C133 445 146 454 167 454 C197 454 213 435 213 400 C213 365 197 346 168 346 C140 346 127 358 121 391 L20 376 C31 303 85 261 168 261 C263 261 320 315 320 405 C320 484 274 535 201 535 C170 535 149 526 126 503 L132 578 L288 578 L299 667 L54 667 Z " />
<glyph glyph-name="sixsuperior" unicode="&#x2076;" horiz-adv-x="341" d="M323 557 C306 636 263 673 187 673 C87 673 32 599 32 462 C32 331 84 261 181 261 C269 261 324 313 324 395 C324 471 276 525 207 525 C177 525 155 514 134 487 C137 565 151 596 185 596 C207 596 222 580 229 548 L323 557 Z M180 448 C205 448 217 431 217 397 C217 356 205 338 178 338 C153 338 139 356 139 390 C139 430 152 448 180 448 L180 448 Z " />
<glyph glyph-name="sevensuperior" unicode="&#x2077;" horiz-adv-x="341" d="M43 667 L35 576 L209 576 C131 489 90 381 91 267 L208 267 C209 407 242 509 312 592 L312 667 L43 667 Z " />
<glyph glyph-name="eightsuperior" unicode="&#x2078;" horiz-adv-x="341" d="M251 486 C298 512 312 531 312 569 C312 633 260 673 176 673 C127 673 93 662 67 639 C44 618 30 587 30 556 C30 516 47 490 91 464 C34 436 18 416 18 373 C18 303 74 261 166 261 C260 261 323 310 323 384 C323 428 305 455 251 486 L251 486 Z M191 513 C150 532 134 547 134 567 C134 588 151 602 176 602 C201 602 216 587 216 562 C216 545 209 532 191 513 L191 513 Z M150 435 C203 410 219 395 219 373 C219 350 199 335 169 335 C136 335 116 353 116 381 C116 403 126 419 150 435 L150 435 Z " />
<glyph glyph-name="ninesuperior" unicode="&#x2079;" horiz-adv-x="341" d="M24 369 C46 291 83 261 158 261 C258 261 309 332 309 472 C309 608 261 673 160 673 C72 673 17 621 17 538 C17 463 65 408 131 408 C165 408 187 420 208 450 C205 368 193 338 161 338 C138 338 128 350 122 386 L24 369 Z M163 596 C187 596 202 576 202 544 C202 510 189 492 163 492 C137 492 124 510 124 545 C124 577 138 596 163 596 L163 596 Z " />
<glyph glyph-name="zeroinferior" unicode="&#x2080;" horiz-adv-x="341" d="M172 406 C67 406 20 342 20 198 C20 59 68 -6 170 -6 C273 -6 321 59 321 200 C321 339 273 406 172 406 L172 406 Z M171 329 C200 329 206 307 206 200 C206 93 200 71 171 71 C141 71 135 93 135 202 C135 306 141 329 171 329 L171 329 Z " />
<glyph glyph-name="oneinferior" unicode="&#x2081;" horiz-adv-x="341" d="M160 403 C134 371 102 347 62 329 L62 237 C91 249 106 258 134 280 L134 79 L62 79 L62 0 L314 0 L314 79 L244 79 L244 403 L160 403 Z " />
<glyph glyph-name="twoinferior" unicode="&#x2082;" horiz-adv-x="341" d="M116 247 C121 301 133 321 159 321 C180 321 191 307 191 282 C191 234 155 194 16 87 L16 0 L304 0 L312 91 L134 91 C187 123 209 137 229 154 C280 195 306 240 306 287 C306 358 250 406 165 406 C78 406 31 362 15 266 L116 247 Z " />
<glyph glyph-name="threeinferior" unicode="&#x2083;" horiz-adv-x="341" d="M114 276 C122 310 134 324 157 324 C180 324 192 310 192 285 C192 254 178 243 140 243 L106 243 L106 170 L140 170 C179 170 197 156 197 123 C197 94 182 78 156 78 C124 78 112 92 107 137 L8 122 C15 76 26 54 49 32 C75 8 117 -6 162 -6 C251 -6 310 42 310 115 C310 162 286 193 237 210 C285 235 301 256 301 297 C301 363 249 405 168 405 C87 405 40 370 17 292 L114 276 Z " />
<glyph glyph-name="fourinferior" unicode="&#x2084;" horiz-adv-x="341" d="M163 406 L15 166 L15 90 L168 90 L168 0 L278 0 L278 90 L326 90 L326 171 L278 171 L278 406 L163 406 Z M178 161 L89 161 L178 313 L178 161 Z " />
<glyph glyph-name="fiveinferior" unicode="&#x2085;" horiz-adv-x="341" d="M54 400 L38 171 L125 156 C133 178 146 187 167 187 C197 187 213 168 213 133 C213 98 197 79 168 79 C140 79 127 91 121 124 L20 109 C31 36 85 -6 168 -6 C263 -6 320 48 320 138 C320 217 274 268 201 268 C170 268 149 259 126 236 L132 311 L288 311 L299 400 L54 400 Z " />
<glyph glyph-name="sixinferior" unicode="&#x2086;" horiz-adv-x="341" d="M323 290 C312 342 297 367 263 387 C241 400 217 406 187 406 C87 406 32 331 32 195 C32 64 84 -6 181 -6 C269 -6 324 46 324 127 C324 204 276 258 207 258 C176 258 156 247 134 220 C137 298 151 329 185 329 C207 329 222 313 229 281 L323 290 Z M180 181 C205 181 217 164 217 130 C217 89 205 71 178 71 C153 71 139 89 139 124 C139 163 152 181 180 181 L180 181 Z " />
<glyph glyph-name="seveninferior" unicode="&#x2087;" horiz-adv-x="341" d="M43 400 L35 309 L209 309 C131 221 90 114 91 0 L208 0 C209 140 242 243 312 325 L312 400 L43 400 Z " />
<glyph glyph-name="eightinferior" unicode="&#x2088;" horiz-adv-x="341" d="M251 219 C299 246 312 264 312 302 C312 366 260 406 176 406 C87 406 30 360 30 289 C30 249 48 222 91 197 C34 169 18 149 18 106 C18 36 74 -6 166 -6 C261 -6 323 43 323 117 C323 161 304 188 251 219 L251 219 Z M191 246 C151 264 134 280 134 300 C134 321 151 335 176 335 C201 335 216 320 216 295 C216 278 209 264 191 246 L191 246 Z M150 168 C203 143 219 128 219 105 C219 83 199 68 169 68 C136 68 116 86 116 114 C116 136 126 151 150 168 L150 168 Z " />
<glyph glyph-name="nineinferior" unicode="&#x2089;" horiz-adv-x="341" d="M24 102 C46 24 83 -6 158 -6 C258 -6 309 64 309 205 C309 341 261 406 160 406 C73 406 17 354 17 272 C17 197 65 142 131 142 C165 142 187 154 208 183 C206 101 193 71 161 71 C138 71 128 83 122 119 L24 102 Z M163 329 C187 329 202 309 202 278 C202 244 189 226 163 226 C137 226 124 244 124 278 C124 311 138 329 163 329 L163 329 Z " />
<glyph glyph-name="franc" unicode="&#x20a3;" horiz-adv-x="749" d="M63 667 L63 0 L209 0 L209 263 L401 263 L401 378 L209 378 L209 552 L458 552 L458 667 L63 667 Z M493 493 L493 0 L631 0 L631 213 C631 316 663 365 732 365 C736 365 746 364 755 363 L755 497 C744 499 739 500 731 500 C675 500 642 464 614 374 L614 493 L493 493 Z " />
<glyph glyph-name="lira" unicode="&#x20a4;" horiz-adv-x="511" d="M284 310 L284 314 L281 332 C281 335 279 346 277 359 L401 359 L401 446 L268 446 C265 472 264 488 264 501 C264 549 278 570 308 570 C340 570 359 548 371 501 L477 551 C450 640 401 677 308 677 C194 677 126 606 126 486 C126 478 127 464 128 446 L73 446 L73 359 L140 359 C142 347 144 336 145 332 L148 314 L148 310 L73 310 L73 223 L151 223 C143 139 119 111 59 114 L8 114 L8 0 L285 0 C440 -6 507 40 537 173 L429 214 C404 138 366 112 285 114 L211 114 C249 146 273 183 281 223 L401 223 L401 310 L284 310 Z " />
<glyph glyph-name="peseta" unicode="&#x20a7;" horiz-adv-x="961" d="M63 667 L63 0 L209 0 L209 246 L261 246 C347 246 388 255 427 281 C475 313 503 377 503 458 C503 536 475 600 425 634 C388 660 350 667 254 667 L63 667 Z M209 559 L254 559 C290 559 307 555 321 541 C338 525 348 496 348 462 C348 389 322 361 254 361 L209 361 L209 559 Z M539 383 L532 300 L483 300 L483 222 L523 222 L523 117 C523 61 525 48 539 29 C554 6 584 -6 625 -6 C645 -6 659 -4 687 1 L687 77 C669 75 661 75 652 75 C624 75 621 80 621 125 L621 222 L683 222 L683 300 L621 300 L621 391 L539 383 Z M944 226 C928 278 888 306 830 306 C760 306 710 266 710 209 C710 161 736 137 813 113 C851 101 859 96 859 81 C859 66 847 56 829 56 C805 56 792 69 786 98 L700 85 C710 24 752 -6 827 -6 C902 -6 954 35 954 94 C954 141 927 166 852 187 C813 198 803 205 803 221 C803 234 812 243 827 243 C847 243 858 231 866 205 L944 226 Z " />
<glyph glyph-name="Euro" unicode="&#x20ac;" horiz-adv-x="511" d="M59 212 C72 153 106 90 144 55 C188 14 246 -10 299 -10 C330 -10 381 0 435 17 L435 160 C400 130 369 117 329 117 C272 117 231 152 218 212 L336 212 L362 299 L207 299 L207 302 L207 322 L207 343 L207 346 L376 346 L402 433 L216 433 C232 514 266 550 328 550 C372 550 403 532 435 488 L484 622 C425 665 388 677 317 677 C182 677 87 589 55 433 L29 433 L2 346 L46 346 C46 320 46 312 47 299 L29 299 L2 212 L59 212 Z " />
<glyph glyph-name="afii61248" unicode="&#x2105;" horiz-adv-x="511" d="M324 257 L324 409 L188 409 L188 257 L324 257 Z " />
<glyph glyph-name="afii61289" unicode="&#x2113;" horiz-adv-x="587" d="M304 265 C373 339 392 360 410 388 C453 454 480 527 480 581 C480 638 448 676 399 676 C347 676 304 636 269 551 C235 470 211 383 188 259 C179 247 174 240 168 234 C159 224 151 215 141 204 C131 193 128 186 128 176 C128 162 138 149 148 149 C152 149 159 153 166 161 C169 163 171 166 174 169 L181 175 C179 153 179 143 179 131 C179 30 204 -16 260 -16 C316 -16 372 43 372 102 C372 116 365 124 353 124 C343 124 338 120 330 103 C316 73 302 56 291 56 C280 56 276 65 276 86 C276 117 279 139 302 256 L304 265 Z M319 356 C332 430 354 524 369 570 C377 593 390 609 401 609 C411 609 418 595 418 573 C418 510 380 427 319 356 L319 356 Z " />
<glyph glyph-name="afii61352" unicode="&#x2116;" horiz-adv-x="893" d="M63 667 L63 0 L177 0 L177 483 L379 0 L511 0 L511 667 L397 667 L397 253 L226 667 L63 667 Z M723 492 C631 492 585 440 585 336 C585 233 631 180 721 180 C811 180 857 233 857 337 C857 438 810 492 723 492 L723 492 Z M721 421 C743 421 750 399 750 336 C750 272 743 251 721 251 C699 251 692 272 692 336 C692 400 699 421 721 421 L721 421 Z M585 102 L585 0 L857 0 L857 102 L585 102 Z " />
<glyph glyph-name="uni2117" unicode="&#x2117;" horiz-adv-x="170" d="M33 567 L33 267 L137 267 L137 567 L33 567 Z M137 597 L137 691 L32 691 L32 597 L137 597 Z " />
<glyph glyph-name="trademark" unicode="&#x2122;" horiz-adv-x="733" d="M13 647 L13 576 L93 576 L93 267 L181 267 L181 576 L262 576 L262 647 L13 647 Z M293 647 L293 267 L365 267 L365 583 L439 267 L503 267 L584 583 L584 267 L667 267 L667 647 L540 647 L478 414 L424 647 L293 647 Z " />
<glyph glyph-name="uni2126" unicode="&#x2126;" horiz-adv-x="666" d="M27 0 L296 0 L296 114 C210 158 167 235 167 344 C167 465 240 559 333 559 C427 559 499 465 499 343 C499 239 453 157 370 114 L370 0 L639 0 L639 123 L498 123 C598 185 642 260 642 369 C642 544 506 683 333 683 C161 683 24 544 24 369 C24 260 68 185 168 123 L27 123 L27 0 Z " />
<glyph glyph-name="onethird" unicode="&#x2153;" horiz-adv-x="801" d="M155 670 C129 638 98 615 57 596 L57 503 C86 516 101 525 129 546 L129 345 L57 345 L57 266 L309 266 L309 345 L239 345 L239 670 L155 670 Z M522 667 L208 0 L295 0 L609 667 L522 667 Z M569 276 C576 311 588 324 611 324 C634 324 646 310 646 284 C646 254 633 243 594 243 L560 243 L560 170 L594 170 C634 170 651 156 651 123 C651 94 637 78 610 78 C578 78 566 92 561 137 L462 122 C470 76 480 54 503 32 C529 8 571 -6 617 -6 C705 -6 764 42 764 114 C764 162 740 193 691 210 C740 235 755 256 755 298 C755 363 703 405 622 405 C542 405 494 370 471 292 L569 276 Z " />
<glyph glyph-name="twothirds" unicode="&#x2154;" horiz-adv-x="801" d="M116 514 C121 568 133 588 160 588 C180 588 191 574 191 549 C191 501 157 463 16 354 L16 267 L304 267 L312 358 L134 358 C187 390 209 404 229 421 C280 462 306 507 306 554 C306 625 250 673 166 673 C78 673 31 629 15 533 L116 514 Z M520 667 L205 0 L292 0 L606 667 L520 667 Z M569 276 C576 311 588 324 611 324 C635 324 647 310 647 285 C647 254 633 243 594 243 L560 243 L560 170 L594 170 C634 170 651 156 651 123 C651 94 636 78 610 78 C578 78 567 92 561 137 L462 122 C470 76 480 54 503 32 C529 8 571 -6 617 -6 C705 -6 764 42 764 115 C764 162 740 193 691 210 C740 234 756 256 756 298 C756 363 704 405 622 405 C542 405 495 370 471 292 L569 276 Z " />
<glyph glyph-name="oneeighth" unicode="&#x215b;" horiz-adv-x="801" d="M138 670 C112 638 81 615 40 596 L40 503 C69 516 84 525 112 546 L112 345 L40 345 L40 266 L292 266 L292 345 L222 345 L222 670 L138 670 Z M503 667 L188 0 L275 0 L590 667 L503 667 Z M689 219 C736 246 749 264 749 302 C749 366 697 406 613 406 C525 406 468 360 468 289 C468 249 486 221 528 197 C472 170 455 149 455 106 C455 36 511 -6 603 -6 C698 -6 760 43 760 116 C760 161 741 189 689 219 L689 219 Z M629 246 C588 264 572 280 572 301 C572 321 589 335 614 335 C638 335 653 320 653 295 C653 278 646 264 629 246 L629 246 Z M588 168 C641 143 656 129 656 105 C656 83 636 68 606 68 C573 68 553 85 553 115 C553 136 563 152 588 168 L588 168 Z " />
<glyph glyph-name="threeeighths" unicode="&#x215c;" horiz-adv-x="801" d="M108 543 C116 578 128 592 151 592 C174 592 187 578 187 552 C187 521 173 510 134 510 L100 510 L100 437 L134 437 C173 437 191 423 191 391 C191 362 176 346 150 346 C118 346 106 360 101 404 L2 389 C9 343 20 321 43 299 C69 275 111 261 156 261 C245 261 304 309 304 381 C304 429 280 460 231 477 C279 500 296 523 296 565 C296 631 244 673 162 673 C81 673 34 637 11 559 L108 543 Z M508 667 L194 0 L280 0 L595 667 L508 667 Z M705 219 C752 246 765 264 765 302 C765 366 713 406 629 406 C541 406 484 360 484 289 C484 249 502 222 545 197 C489 170 472 149 472 106 C472 36 527 -6 620 -6 C715 -6 777 43 777 117 C777 161 757 189 705 219 L705 219 Z M645 246 C604 265 588 280 588 301 C588 321 605 335 629 335 C654 335 669 320 669 295 C669 278 662 264 645 246 L645 246 Z M604 168 C657 143 673 128 673 105 C673 83 653 68 623 68 C590 68 570 85 570 114 C570 136 580 152 604 168 L604 168 Z " />
<glyph glyph-name="fiveeighths" unicode="&#x215d;" horiz-adv-x="801" d="M54 667 L38 438 L125 423 C133 445 146 454 167 454 C197 454 213 435 213 400 C213 365 197 346 168 346 C140 346 127 358 121 391 L20 376 C31 303 85 261 168 261 C263 261 320 315 320 405 C320 484 274 535 201 535 C170 535 149 526 126 503 L132 578 L288 578 L299 667 L54 667 Z M514 667 L199 0 L286 0 L601 667 L514 667 Z M711 219 C758 247 771 264 771 302 C771 366 719 406 636 406 C547 406 490 360 490 289 C490 249 508 222 550 197 C494 169 477 149 477 106 C477 36 533 -6 625 -6 C721 -6 783 43 783 116 C783 161 763 189 711 219 L711 219 Z M651 246 C610 264 594 280 594 301 C594 321 611 335 636 335 C660 335 675 320 675 295 C675 278 668 264 651 246 L651 246 Z M610 168 C663 143 679 128 679 106 C679 83 659 68 629 68 C595 68 575 85 575 114 C575 136 585 151 610 168 L610 168 Z " />
<glyph glyph-name="seveneighths" unicode="&#x215e;" horiz-adv-x="801" d="M43 667 L35 576 L209 576 C131 489 90 381 91 267 L208 267 C209 407 242 509 312 592 L312 667 L43 667 Z M469 667 L154 0 L241 0 L556 667 L469 667 Z M666 219 C713 247 726 264 726 302 C726 366 674 406 590 406 C502 406 445 360 445 289 C445 250 463 221 505 197 C449 170 432 149 432 106 C432 36 488 -6 581 -6 C676 -6 738 43 738 116 C738 161 719 188 666 219 L666 219 Z M606 246 C564 265 549 280 549 301 C549 321 566 335 591 335 C615 335 630 320 630 295 C630 278 623 263 606 246 L606 246 Z M565 168 C618 143 634 128 634 106 C634 83 614 68 584 68 C551 68 531 85 531 115 C531 136 541 151 565 168 L565 168 Z " />
<glyph glyph-name="partialdiff" unicode="&#x2202;" horiz-adv-x="500" d="M61 556 C202 541 293 492 332 408 C332 408 340 394 344 386 C303 422 274 433 221 433 C106 433 19 340 19 219 C19 88 116 -9 247 -9 C328 -9 395 26 437 89 C467 134 481 188 481 260 C481 386 440 486 357 559 C287 620 207 650 78 665 L61 556 Z M252 329 C309 329 353 280 353 217 C353 153 307 103 248 103 C191 103 144 154 144 215 C144 279 192 329 252 329 L252 329 Z " />
<glyph glyph-name="emptyset" unicode="&#x2205;" horiz-adv-x="618" d="M496 655 L448 680 L395 574 C364 585 340 589 310 589 C175 589 67 481 67 347 C67 265 107 191 176 144 L123 38 L172 13 L225 119 C255 108 279 104 309 104 C444 104 552 212 552 347 C552 428 513 502 443 550 L496 655 Z M417 499 C467 463 496 407 496 347 C496 243 413 160 309 160 C288 160 273 163 251 169 L417 499 Z M202 194 C150 233 123 286 123 347 C123 450 206 533 310 533 C331 533 347 531 369 524 L202 194 Z " />
<glyph glyph-name="Delta" unicode="&#x2206;" horiz-adv-x="647" d="M8 0 L639 0 L396 667 L250 667 L8 0 Z M188 123 L324 518 L456 123 L188 123 Z " />
<glyph glyph-name="product" unicode="&#x220f;" horiz-adv-x="667" d="M19 750 L19 637 L92 637 L92 -137 L19 -137 L19 -250 L282 -250 L282 -137 L217 -137 L217 637 L448 637 L448 -137 L383 -137 L383 -250 L647 -250 L647 -137 L575 -137 L575 637 L647 637 L647 750 L19 750 Z " />
<glyph glyph-name="summation" unicode="&#x2211;" horiz-adv-x="667" d="M621 750 L34 750 L34 601 L268 265 L34 -100 L34 -250 L630 -250 L630 8 L496 8 L487 -120 L194 -120 L435 266 L192 620 L478 620 L493 496 L621 496 L621 750 Z " />
<glyph glyph-name="minus" unicode="&#x2212;" horiz-adv-x="511" d="M460 280 L460 386 L51 386 L51 280 L460 280 Z " />
<glyph glyph-name="uni2215" unicode="&#x2215;" horiz-adv-x="119" d="M174 667 L-141 0 L-54 0 L261 667 L174 667 Z " />
</font>
</svg>
