<?xml version="1.0" encoding="UTF-8"?>
<svg xmlns="http://www.w3.org/2000/svg" xmlns:xlink="http://www.w3.org/1999/xlink" version="1.2" >
<font id="Clarendon URW Narrow Extra Bold">
<font-face  font-family="Clarendon URW Narrow" units-per-em="1000" ascent="667" descent="-333" font-style="normal" font-weight="800" font-stretch="semi-condensed" cap-height="667" x-height="469" underline-position="-48" underline-thickness="113" />
<missing-glyph  horiz-adv-x="250" d="" />
<glyph glyph-name="NULL" d="" />
<glyph glyph-name="CR" unicode="&#xd;" horiz-adv-x="250" d="" />
<glyph glyph-name="space" unicode="&#x20;" horiz-adv-x="250" d="" />
<glyph glyph-name="exclam" unicode="&#x21;" horiz-adv-x="330" d="M243 207 C250 283 255 324 264 376 C289 520 290 525 290 564 C290 639 252 687 192 687 C133 687 94 639 94 564 C94 539 98 501 104 466 C130 320 131 314 141 207 L243 207 Z M193 166 C146 166 106 126 106 77 C106 24 144 -17 193 -17 C241 -17 280 24 280 75 C280 125 241 166 193 166 L193 166 Z " />
<glyph glyph-name="quotedbl" unicode="&#x22;" horiz-adv-x="428" d="M164 399 L194 667 L23 667 L52 399 L164 399 Z M375 399 L404 667 L234 667 L263 399 L375 399 Z " />
<glyph glyph-name="numbersign" unicode="&#x23;" horiz-adv-x="610" d="M562 299 L466 299 L478 381 L573 381 L590 498 L495 498 L521 667 L395 667 L369 498 L286 498 L314 667 L188 667 L163 498 L68 498 L51 381 L147 381 L134 299 L38 299 L21 182 L117 182 L89 0 L212 0 L241 182 L322 182 L291 0 L421 0 L449 182 L545 182 L562 299 Z M352 381 L339 299 L259 299 L271 381 L352 381 Z " />
<glyph glyph-name="dollar" unicode="&#x24;" horiz-adv-x="613" d="M268 -112 L344 -112 L344 -3 C427 4 465 16 503 46 C546 80 570 129 570 186 C570 250 541 302 490 331 C456 350 429 359 344 380 L344 528 C384 526 394 523 421 509 C398 490 389 474 389 450 C389 412 422 382 466 382 C513 382 547 418 547 469 C547 504 533 534 507 557 C471 588 430 600 344 606 L344 677 L268 677 L268 605 C204 598 174 589 136 565 C79 529 46 471 46 405 C46 345 73 298 123 272 C157 254 177 247 268 222 L268 71 L259 71 C210 71 195 75 159 97 C192 107 206 126 206 156 C206 197 171 228 126 228 C76 228 40 190 40 139 C40 101 55 69 82 46 C122 12 170 -1 268 -3 L268 -112 Z M268 396 C224 408 211 424 211 462 C211 500 229 521 268 526 L268 396 Z M344 204 C390 192 410 172 410 138 C410 117 400 96 385 86 C376 80 366 77 344 74 L344 204 Z " />
<glyph glyph-name="percent" unicode="&#x25;" horiz-adv-x="910" d="M226 -17 L317 -17 L677 623 L588 623 L226 -17 Z M210 622 C102 622 28 545 28 433 C28 316 99 240 210 240 C318 240 391 317 391 431 C391 546 319 622 210 622 L210 622 Z M210 547 C248 547 264 512 264 431 C264 349 248 315 209 315 C171 315 155 350 155 433 C155 511 172 547 210 547 L210 547 Z M697 365 C589 365 515 288 515 176 C515 59 586 -17 697 -17 C805 -17 878 60 878 174 C878 289 806 365 697 365 L697 365 Z M697 290 C735 290 751 255 751 174 C751 93 735 58 697 58 C658 58 642 92 642 176 C642 254 659 290 697 290 L697 290 Z " />
<glyph glyph-name="ampersand" unicode="&#x26;" horiz-adv-x="826" d="M710 230 C709 177 705 154 693 133 C680 111 662 98 643 98 C623 98 606 109 578 138 C609 180 622 199 635 225 C677 312 685 319 762 329 L762 415 L492 415 L492 329 C546 327 561 321 561 303 C561 282 548 259 510 212 C469 255 430 311 393 379 C470 436 496 477 496 542 C496 630 431 687 331 687 C229 687 160 626 160 536 C160 495 169 466 199 406 C147 382 114 362 93 342 C50 303 28 250 28 186 C28 56 113 -20 259 -20 C335 -20 376 -9 456 35 C514 -5 561 -20 628 -20 C746 -20 807 59 807 211 L807 230 L710 230 Z M334 473 C308 505 299 524 299 548 C299 577 319 597 348 597 C377 597 397 576 397 546 C397 513 380 493 334 473 L334 473 Z M247 301 C312 191 331 164 379 112 C349 95 334 89 314 89 C256 89 210 143 210 210 C210 245 220 269 247 301 L247 301 Z " />
<glyph glyph-name="quotesingle" unicode="&#x27;" horiz-adv-x="222" d="M169 399 L199 667 L23 667 L52 399 L169 399 Z " />
<glyph glyph-name="parenleft" unicode="&#x28;" horiz-adv-x="406" d="M385 687 C341 681 309 675 286 668 C217 645 158 595 120 526 C84 463 61 350 61 241 C61 63 100 -49 188 -128 C242 -176 289 -192 385 -196 L385 -111 C337 -94 320 -77 300 -31 C272 34 261 114 261 246 C261 378 272 457 300 522 C320 569 337 585 385 601 L385 687 Z " />
<glyph glyph-name="parenright" unicode="&#x29;" horiz-adv-x="406" d="M19 -196 C63 -190 95 -184 118 -177 C187 -154 246 -104 284 -35 C320 28 343 141 343 250 C343 428 304 540 216 619 C162 667 115 683 19 687 L19 602 C67 584 84 568 104 522 C132 457 143 378 143 245 C143 112 132 34 104 -32 C84 -78 67 -94 19 -110 L19 -196 Z " />
<glyph glyph-name="asterisk" unicode="&#x2a;" horiz-adv-x="486" d="M234 483 C201 508 194 516 171 553 C144 597 134 606 108 606 C77 606 52 578 52 543 C52 524 60 508 75 499 C89 490 89 490 134 488 C174 485 195 480 224 464 C192 448 178 444 137 441 C99 438 91 437 80 432 C63 424 52 406 52 385 C52 350 77 322 108 322 C134 322 142 329 170 376 C195 415 208 428 236 445 C233 415 227 395 210 355 C189 311 189 311 189 293 C189 263 211 242 244 242 C276 242 300 265 300 294 C300 310 296 322 280 353 C262 389 258 403 254 447 C279 430 288 421 317 377 C351 325 355 321 379 321 C411 321 436 350 436 386 C436 406 427 423 411 431 C399 438 396 439 355 441 C315 444 295 449 263 465 C291 480 307 484 352 488 C398 491 398 491 410 498 C426 507 436 525 436 545 C436 578 410 607 381 607 C356 607 346 599 318 553 C294 515 281 501 253 483 C258 525 263 546 278 575 C298 616 299 618 299 633 C299 664 275 687 243 687 C210 687 188 666 188 635 C188 619 191 611 208 576 C225 543 231 523 234 483 L234 483 Z " />
<glyph glyph-name="plus" unicode="&#x2b;" horiz-adv-x="613" d="M75 387 L75 252 L239 252 L239 87 L375 87 L375 252 L539 252 L539 387 L375 387 L375 552 L239 552 L239 387 L75 387 Z " />
<glyph glyph-name="comma" unicode="&#x2c;" horiz-adv-x="307" d="M62 -131 C118 -123 146 -112 179 -83 C221 -47 245 3 245 53 C245 119 203 166 144 166 C93 166 55 127 55 74 C55 28 86 -8 126 -8 C131 -8 139 -7 148 -6 C130 -49 115 -59 62 -68 L62 -131 Z " />
<glyph glyph-name="hyphen" unicode="&#x2d;" horiz-adv-x="275" d="M0 154 L275 154 L275 312 L0 312 L0 154 Z " />
<glyph glyph-name="period" unicode="&#x2e;" horiz-adv-x="307" d="M153 166 C106 166 66 126 66 77 C66 24 104 -17 153 -17 C201 -17 240 24 240 75 C240 125 201 166 153 166 L153 166 Z " />
<glyph glyph-name="slash" unicode="&#x2f;" horiz-adv-x="377" d="M95 -92 L339 686 L252 686 L9 -92 L95 -92 Z " />
<glyph glyph-name="zero" unicode="0" horiz-adv-x="613" d="M305 622 C221 622 151 590 96 527 C48 471 24 398 24 307 C24 206 45 138 96 78 C149 16 221 -17 305 -17 C388 -17 460 16 513 78 C562 137 585 207 585 304 C585 399 563 469 513 527 C459 590 389 622 305 622 L305 622 Z M304 525 C352 525 371 461 371 300 C371 147 351 80 305 80 C258 80 238 145 238 302 C238 457 258 525 304 525 L304 525 Z " />
<glyph glyph-name="one" unicode="1" horiz-adv-x="613" d="M127 439 L220 439 L220 148 C221 94 218 91 151 87 L127 87 L127 0 L502 0 L502 87 L481 87 C428 88 417 95 418 128 L418 605 L261 605 C243 557 205 535 127 528 L127 439 Z " />
<glyph glyph-name="two" unicode="2" horiz-adv-x="613" d="M145 0 C154 21 166 29 186 29 C201 29 219 26 236 21 C357 -15 368 -17 418 -17 C484 -17 529 9 554 61 C567 89 572 123 572 178 C572 184 572 198 571 213 L475 213 C475 157 463 136 434 136 C429 136 423 137 418 138 C329 160 327 160 295 160 C255 160 229 152 177 125 C195 169 212 178 342 214 C406 232 458 256 487 280 C528 316 550 364 550 417 C550 538 446 622 297 622 C151 622 44 536 44 419 C44 352 80 311 139 311 C194 311 232 348 232 401 C232 430 222 454 204 465 C193 472 181 474 156 475 C183 504 207 514 244 514 C302 514 338 482 338 431 C338 381 314 350 239 302 C85 204 42 136 46 0 L145 0 Z " />
<glyph glyph-name="three" unicode="3" horiz-adv-x="613" d="M258 272 C290 271 304 267 320 256 C341 241 354 212 354 178 C354 111 315 75 243 75 C207 75 189 80 157 97 C212 105 233 125 233 171 C233 223 197 257 143 257 C83 257 37 210 37 147 C37 105 58 61 90 36 C134 1 207 -17 300 -17 C470 -17 568 50 568 167 C568 211 553 250 525 277 C507 295 484 308 441 325 C515 352 546 390 546 456 C546 561 461 622 315 622 C157 622 53 551 53 444 C53 385 88 349 147 349 C198 349 231 378 231 425 C231 469 213 489 171 493 C194 520 213 529 248 529 C306 529 346 490 346 433 C346 406 336 384 320 372 C306 363 293 359 258 355 L258 272 Z " />
<glyph glyph-name="four" unicode="4" horiz-adv-x="613" d="M491 173 L579 173 L579 257 L491 257 L491 605 L313 605 L28 279 L28 173 L312 173 L312 148 C314 95 310 92 239 88 L214 88 L214 0 L579 0 L579 87 L557 87 C502 88 490 95 491 128 L491 173 Z M131 257 L314 469 L312 257 L131 257 Z " />
<glyph glyph-name="five" unicode="5" horiz-adv-x="613" d="M79 307 L180 307 C208 332 223 339 251 339 C307 339 342 291 342 213 C342 129 298 71 235 71 C208 71 192 78 165 100 C193 107 203 111 213 120 C224 131 232 153 232 175 C232 227 195 262 140 262 C79 262 39 221 39 157 C39 51 133 -18 276 -18 C443 -18 554 75 554 217 C554 351 458 440 312 440 C256 440 233 434 185 409 L188 487 C244 482 271 480 299 480 C359 480 407 491 450 516 C495 541 523 576 523 606 C523 620 516 628 504 628 C498 628 491 627 483 626 C387 606 385 606 321 606 C262 606 207 609 96 618 L79 307 Z " />
<glyph glyph-name="six" unicode="6" horiz-adv-x="613" d="M244 345 C247 413 253 445 271 475 C294 513 331 536 368 536 C378 536 388 534 406 529 C381 511 373 497 373 472 C373 428 409 397 460 397 C515 397 550 430 550 482 C550 565 468 622 350 622 C168 622 52 491 52 285 C52 93 155 -17 334 -17 C480 -17 571 61 571 186 C571 304 493 382 375 382 C328 382 298 374 244 345 L244 345 Z M318 285 C341 285 361 265 367 236 C373 204 378 149 376 124 C374 93 350 67 323 67 C287 67 264 110 264 177 C264 242 286 285 318 285 L318 285 Z " />
<glyph glyph-name="seven" unicode="7" horiz-adv-x="613" d="M198 0 L391 0 C395 182 410 231 520 416 C581 522 585 533 585 605 L504 605 C502 576 496 569 473 569 C460 569 447 573 410 590 C368 608 333 617 300 617 C243 617 211 598 178 543 L179 605 L66 605 L66 324 L178 324 L178 360 C178 397 181 412 189 428 C199 446 220 457 244 457 C253 457 258 456 301 447 C325 443 347 440 367 440 C397 440 415 445 450 461 C429 435 418 423 394 399 C279 290 263 270 233 209 C207 155 198 107 198 27 L198 0 Z " />
<glyph glyph-name="eight" unicode="8" horiz-adv-x="613" d="M136 299 C106 284 87 273 74 262 C44 235 28 199 28 155 C28 45 123 -17 295 -17 C473 -17 580 57 580 179 C580 233 560 279 524 310 C508 323 491 334 454 354 C519 380 544 412 544 469 C544 563 454 622 309 622 C237 622 170 606 131 579 C82 545 54 495 54 439 C54 380 73 347 136 299 L136 299 Z M308 415 C257 432 233 453 233 479 C233 512 265 534 314 534 C368 534 405 507 405 466 C405 438 394 422 361 398 L308 415 Z M314 211 C366 190 392 162 392 130 C392 89 356 65 295 65 C219 65 167 104 167 161 C167 196 183 222 224 249 L314 211 Z " />
<glyph glyph-name="nine" unicode="9" horiz-adv-x="613" d="M369 260 C366 192 359 160 341 130 C319 93 282 69 245 69 C235 69 225 71 206 75 C232 94 240 107 240 133 C240 176 203 207 153 207 C97 207 62 175 62 123 C62 40 143 -17 262 -17 C444 -17 561 114 561 316 C561 505 454 622 280 622 C136 622 42 541 42 416 C42 301 122 223 238 223 C285 223 314 231 369 260 L369 260 Z M290 538 C326 538 349 495 349 428 C349 364 327 320 295 320 C272 320 252 341 246 369 C240 404 235 456 237 482 C239 512 263 538 290 538 L290 538 Z " />
<glyph glyph-name="colon" unicode="&#x3a;" horiz-adv-x="330" d="M181 448 C133 448 94 408 94 359 C94 306 132 265 181 265 C229 265 268 306 268 357 C268 407 229 448 181 448 L181 448 Z M181 166 C134 166 94 125 94 77 C94 24 132 -17 181 -17 C229 -17 268 24 268 75 C268 125 229 166 181 166 L181 166 Z " />
<glyph glyph-name="semicolon" unicode="&#x3b;" horiz-adv-x="330" d="M99 -131 C155 -123 183 -112 216 -83 C258 -47 282 3 282 53 C282 119 240 166 181 166 C130 166 92 127 92 74 C92 28 123 -8 163 -8 C168 -8 176 -7 185 -6 C167 -49 152 -59 99 -68 L99 -131 Z M186 448 C138 448 99 408 99 359 C99 306 137 265 186 265 C234 265 273 306 273 357 C273 407 234 448 186 448 L186 448 Z " />
<glyph glyph-name="less" unicode="&#x3c;" horiz-adv-x="475" d="M444 657 L32 415 L32 253 L444 10 L444 204 L228 333 L444 463 L444 657 Z " />
<glyph glyph-name="equal" unicode="&#x3d;" horiz-adv-x="613" d="M75 475 L75 348 L539 348 L539 475 L75 475 Z M75 284 L75 157 L539 157 L539 284 L75 284 Z " />
<glyph glyph-name="greater" unicode="&#x3e;" horiz-adv-x="475" d="M32 657 L32 463 L248 333 L32 204 L32 10 L444 253 L444 415 L32 657 Z " />
<glyph glyph-name="question" unicode="&#x3f;" horiz-adv-x="566" d="M280 166 C233 166 194 126 194 77 C194 23 231 -17 280 -17 C328 -17 367 24 367 75 C367 125 328 166 280 166 L280 166 Z M338 209 C340 256 347 267 390 300 C502 382 532 425 532 502 C532 614 442 687 305 687 C215 687 151 658 108 600 C82 565 68 521 68 479 C68 399 107 352 172 352 C225 352 262 390 262 445 C262 490 236 520 197 520 C188 520 172 518 157 514 C169 564 195 586 240 586 C287 586 321 550 321 501 C321 464 307 422 276 367 C232 287 227 274 227 241 C227 232 227 221 228 209 L338 209 Z " />
<glyph glyph-name="at" unicode="&#x40;" horiz-adv-x="703" d="M453 493 L446 455 C429 485 392 504 353 504 C264 504 186 410 186 302 C186 212 244 144 321 144 C369 144 414 168 439 207 C448 175 478 153 514 153 C597 153 671 263 671 385 C671 556 543 682 369 682 C180 682 32 526 32 327 C32 232 70 138 133 75 C194 15 272 -15 370 -15 C441 -15 509 -5 565 15 L546 96 C488 76 433 66 375 66 C292 66 233 88 189 136 C145 186 119 255 119 326 C119 481 230 601 373 601 C502 601 592 512 592 384 C592 307 554 226 517 226 C505 226 497 238 497 257 C497 266 499 281 503 301 L538 493 L453 493 Z M367 408 C401 408 425 379 425 338 C425 284 388 235 347 235 C312 235 288 264 288 305 C288 360 325 408 367 408 L367 408 Z " />
<glyph glyph-name="A" unicode="A" horiz-adv-x="665" d="M325 0 L709 0 L709 94 L676 94 C632 97 628 100 608 165 L459 667 L231 667 L65 163 C47 112 33 97 -4 94 L-28 94 L-28 0 L256 0 L256 94 L224 94 C194 94 180 100 180 114 C180 122 182 132 188 151 L208 214 L379 214 L401 143 C403 136 405 124 405 115 C405 96 401 94 354 94 L325 94 L325 0 Z M348 310 L238 310 L292 512 L348 310 Z " />
<glyph glyph-name="B" unicode="B" horiz-adv-x="708" d="M14 0 L389 0 C495 0 555 11 597 37 C641 65 667 119 667 181 C667 233 650 272 617 302 C590 325 566 336 506 352 C552 370 571 382 592 403 C621 432 636 469 636 509 C636 557 614 603 580 628 C543 656 491 667 398 667 L14 667 L14 572 L42 572 C85 572 91 565 90 515 L90 152 C92 101 87 95 43 94 L14 94 L14 0 Z M310 392 L310 570 L347 570 C404 570 427 545 427 484 C427 420 402 392 344 392 L310 392 Z M310 94 L310 305 L349 305 C413 305 443 272 443 201 C443 166 435 137 421 119 C407 101 386 94 350 94 L310 94 Z " />
<glyph glyph-name="C" unicode="C" horiz-adv-x="698" d="M563 258 C557 194 548 166 525 134 C499 99 460 79 420 79 C375 79 339 102 320 143 C300 186 293 239 293 334 C293 512 329 586 415 586 C455 586 490 565 511 528 C527 498 535 474 549 402 L663 402 L663 676 L559 676 L544 640 C475 677 437 687 365 687 C158 687 28 548 28 327 C28 108 153 -20 368 -20 C475 -20 560 15 611 81 C645 124 658 166 666 258 L563 258 Z " />
<glyph glyph-name="D" unicode="D" horiz-adv-x="764" d="M14 0 L362 0 C492 0 567 20 629 72 C697 129 732 217 732 334 C732 450 697 538 629 595 C567 647 492 667 362 667 L14 667 L14 573 L42 573 C85 572 91 566 90 515 L90 152 C92 101 87 95 43 94 L14 94 L14 0 Z M312 97 L312 570 L362 570 C442 570 475 502 475 334 C475 165 442 97 362 97 L312 97 Z " />
<glyph glyph-name="E" unicode="E" horiz-adv-x="736" d="M678 667 L14 667 L14 573 L43 573 C87 573 93 566 92 515 L92 152 C94 101 89 95 44 94 L14 94 L14 0 L682 0 L682 275 L578 275 C573 205 567 174 550 142 C524 98 507 93 399 94 L309 94 L309 301 L334 301 C393 301 404 285 408 191 L485 191 L485 495 L408 495 C406 410 393 393 333 389 L309 389 L309 573 L388 573 C521 577 551 553 578 419 L678 419 L678 667 Z " />
<glyph glyph-name="F" unicode="F" horiz-adv-x="679" d="M657 667 L14 667 L14 573 L43 573 C87 573 93 566 92 515 L92 152 C94 101 89 95 44 94 L14 94 L14 0 L391 0 L391 94 L357 94 C312 95 307 101 309 152 L309 302 L333 302 C392 301 402 286 406 191 L485 191 L485 495 L406 495 C404 409 392 392 332 389 L309 389 L309 573 L385 573 C477 573 492 568 523 529 C542 501 549 470 555 393 L657 393 L657 667 Z " />
<glyph glyph-name="G" unicode="G" horiz-adv-x="778" d="M392 261 L411 261 C455 260 461 253 460 203 L460 153 C460 127 457 107 452 101 C445 91 420 82 397 82 C358 82 327 104 310 144 C292 187 285 238 285 333 C285 429 292 480 311 523 C329 563 361 585 402 585 C441 585 475 564 494 528 C510 497 517 474 531 402 L644 402 L644 676 L541 676 L525 640 C464 677 428 687 356 687 C157 687 28 545 28 328 C28 217 61 123 121 63 C174 10 258 -22 342 -22 C407 -22 456 -7 528 34 L549 -7 L672 -7 L672 203 C671 254 676 260 720 261 L742 261 L742 355 L392 355 L392 261 Z " />
<glyph glyph-name="H" unicode="H" horiz-adv-x="797" d="M367 667 L16 667 L16 573 L46 573 C90 572 95 567 94 515 L94 152 C96 101 90 95 46 94 L16 94 L16 0 L367 0 L367 94 L363 94 C321 94 316 100 316 151 L316 301 L480 301 L480 151 C480 101 474 94 435 94 L429 94 L429 0 L780 0 L780 94 L750 94 C706 95 700 102 701 152 L701 515 C700 566 706 573 750 573 L780 573 L780 667 L429 667 L429 573 L433 573 C475 573 480 566 480 515 L480 395 L316 395 L316 515 C316 566 322 573 361 573 L367 573 L367 667 Z " />
<glyph glyph-name="I" unicode="I" horiz-adv-x="415" d="M19 0 L396 0 L396 94 L366 94 C322 95 316 102 317 152 L317 515 C316 565 322 572 366 573 L396 573 L396 667 L19 667 L19 573 L48 573 C92 572 98 566 97 515 L97 152 C98 102 92 95 48 94 L19 94 L19 0 Z " />
<glyph glyph-name="J" unicode="J" horiz-adv-x="604" d="M210 572 L243 572 C287 572 293 565 292 515 L292 234 C292 151 290 137 274 115 C260 96 231 83 204 83 C170 83 150 96 130 132 C142 130 152 129 160 129 C202 129 234 167 234 218 C234 275 200 310 144 310 C71 310 19 251 19 168 C19 56 117 -20 264 -20 C341 -20 409 0 451 37 C498 77 513 121 513 224 L513 515 C511 565 517 571 561 572 L588 572 L588 667 L210 667 L210 572 Z " />
<glyph glyph-name="K" unicode="K" horiz-adv-x="802" d="M360 667 L14 667 L14 573 L43 573 C87 573 93 566 92 516 L92 152 C93 101 87 95 43 94 L14 94 L14 0 L375 0 L375 94 L354 94 C312 95 307 101 309 152 L309 208 L399 286 L492 137 C496 129 499 120 499 113 C499 99 487 94 455 94 L425 94 L425 0 L815 0 L815 94 L777 94 C750 93 732 105 709 139 L538 408 L666 524 C700 555 735 574 755 573 L787 573 L787 667 L435 667 L435 573 L488 573 C513 573 525 568 525 556 C525 548 519 538 510 530 L309 350 L309 516 C307 566 312 572 354 573 L360 573 L360 667 Z " />
<glyph glyph-name="L" unicode="L" horiz-adv-x="651" d="M395 667 L14 667 L14 572 L43 572 C87 572 93 565 92 515 L92 152 C93 102 87 95 43 95 L14 95 L14 0 L610 0 L610 278 L512 278 C501 121 477 93 353 97 L313 97 L313 515 C311 565 316 571 361 572 L395 572 L395 667 Z " />
<glyph glyph-name="M" unicode="M" horiz-adv-x="976" d="M958 667 L592 667 L477 269 L369 667 L14 667 L14 573 L42 573 C87 572 93 565 92 515 L92 152 C93 102 87 95 42 94 L14 94 L14 0 L298 0 L298 94 L276 94 C231 95 225 101 226 152 L226 557 L377 0 L525 0 L681 557 L681 152 C683 101 677 95 633 94 L611 94 L611 0 L958 0 L958 94 L929 94 C884 95 879 102 880 152 L880 515 C879 566 884 572 929 573 L958 573 L958 667 Z " />
<glyph glyph-name="N" unicode="N" horiz-adv-x="769" d="M327 667 L14 667 L14 573 L44 573 C90 573 96 566 95 515 L95 152 C96 102 90 95 44 94 L14 94 L14 0 L293 0 L293 94 L266 94 C221 95 215 102 216 152 L216 479 L459 0 L679 0 L679 515 C678 566 684 573 729 573 L751 573 L751 667 L473 667 L473 573 L507 573 C553 572 559 566 557 515 L557 218 L327 667 Z " />
<glyph glyph-name="O" unicode="O" horiz-adv-x="797" d="M399 687 C284 687 199 658 132 594 C68 534 32 442 32 339 C32 224 64 138 132 73 C197 9 283 -20 400 -20 C515 -20 601 10 666 73 C733 137 766 224 766 333 C766 555 629 687 399 687 L399 687 Z M399 586 C437 586 467 564 484 524 C502 483 509 427 509 334 C509 240 502 188 484 144 C468 105 437 82 399 82 C361 82 331 104 314 144 C295 188 289 238 289 338 C289 429 296 482 314 524 C331 564 361 586 399 586 L399 586 Z " />
<glyph glyph-name="P" unicode="P" horiz-adv-x="708" d="M312 295 L429 295 C531 295 582 307 625 340 C665 371 687 421 687 480 C687 538 666 587 629 618 C587 654 533 667 429 667 L14 667 L14 573 L43 573 C87 572 93 566 92 515 L92 151 C93 101 87 95 43 94 L14 94 L14 0 L395 0 L395 94 L361 94 C317 95 312 101 312 151 L312 295 Z M313 377 L313 569 L356 569 C432 569 458 545 458 474 C458 403 430 377 353 377 L313 377 Z " />
<glyph glyph-name="Q" unicode="Q" horiz-adv-x="821" d="M766 149 C764 84 755 66 726 66 C713 66 700 73 678 90 C701 117 712 132 723 151 C748 198 762 263 762 331 C762 443 729 530 662 594 C597 657 511 687 395 687 C279 687 193 657 128 594 C62 530 28 442 28 333 C28 118 167 -21 380 -21 C435 -21 470 -14 538 9 C592 -49 628 -68 684 -68 C740 -68 779 -46 804 0 C825 37 832 71 836 149 L766 149 Z M485 96 C447 71 425 63 393 63 C349 63 319 89 319 127 C319 159 340 183 369 183 C406 183 439 158 485 96 L485 96 Z M284 223 C283 272 282 313 282 341 C282 513 319 586 404 586 C457 586 492 556 511 494 C522 458 527 404 527 322 C527 298 526 277 524 235 C466 299 434 318 383 318 C328 318 300 291 284 223 L284 223 Z " />
<glyph glyph-name="R" unicode="R" horiz-adv-x="774" d="M14 573 L43 573 C87 572 93 565 92 515 L92 152 C93 101 87 95 43 94 L14 94 L14 0 L395 0 L395 94 L361 94 C317 95 311 101 312 152 L312 300 L366 300 C441 298 452 284 451 197 L451 142 C451 33 501 -16 612 -16 C691 -16 730 6 754 63 C766 92 768 110 768 188 L705 188 L705 154 C705 118 695 96 679 96 C665 96 655 115 655 145 C657 312 645 335 545 353 C588 365 607 373 628 390 C661 417 679 457 679 503 C679 553 658 599 622 626 C585 655 534 667 450 667 L14 667 L14 573 Z M311 391 L311 568 L369 568 C404 568 422 563 434 550 C448 535 455 510 455 479 C455 414 431 391 363 391 L311 391 Z " />
<glyph glyph-name="S" unicode="S" horiz-adv-x="665" d="M51 245 L51 -3 L138 -3 L161 34 C249 -8 296 -20 372 -20 C536 -20 641 66 641 200 C641 264 614 322 568 357 C527 389 470 412 383 431 C278 455 278 455 259 469 C248 477 241 492 241 507 C241 550 281 579 341 579 C384 579 422 565 451 539 C477 515 489 492 503 438 L609 438 L609 670 L519 670 L502 637 C425 673 373 686 300 686 C138 686 34 599 34 463 C34 400 62 343 107 312 C141 289 205 264 292 239 C384 213 392 209 410 190 C419 181 424 166 424 151 C424 110 388 82 333 82 C288 82 239 102 205 133 C177 159 162 185 142 245 L51 245 Z " />
<glyph glyph-name="T" unicode="T" horiz-adv-x="703" d="M111 414 C113 515 142 556 215 562 L240 562 L240 152 C242 101 236 95 192 94 L146 94 L146 0 L561 0 L561 94 L511 94 C466 95 460 101 461 152 L461 562 L487 562 C560 557 589 515 591 414 L685 414 L685 667 L18 667 L18 414 L111 414 Z " />
<glyph glyph-name="U" unicode="U" horiz-adv-x="736" d="M436 572 L466 572 C511 572 517 565 516 515 L516 213 C516 120 483 82 402 82 C371 82 348 91 330 108 C310 129 304 154 304 221 L304 515 C303 565 309 572 353 572 L387 572 L387 667 L5 667 L5 572 L35 572 C79 572 85 565 84 515 L84 188 C84 125 102 82 143 46 C193 1 264 -21 360 -21 C549 -21 651 55 651 196 L651 518 C650 564 657 572 701 572 L729 572 L729 667 L436 667 L436 572 Z " />
<glyph glyph-name="V" unicode="V" horiz-adv-x="679" d="M-24 572 L6 572 C43 572 66 548 84 490 L230 0 L447 0 L606 507 C621 557 636 570 679 572 L701 572 L701 667 L407 667 L407 572 L439 572 C475 572 486 566 486 548 C486 540 485 531 482 522 L377 181 L277 521 C275 527 274 535 274 544 C274 567 282 572 319 572 L355 572 L355 667 L-24 667 L-24 572 Z " />
<glyph glyph-name="W" unicode="W" horiz-adv-x="939" d="M290 667 L0 667 L0 573 C43 569 62 549 78 489 L207 0 L409 0 L472 272 L534 0 L729 0 L868 508 C883 558 897 571 943 573 L943 667 L688 667 L688 573 C733 572 744 568 744 550 C744 545 743 539 739 523 L661 184 L585 521 C583 529 582 539 582 546 C582 568 591 573 629 573 L649 573 L649 667 L339 667 L339 573 C396 568 403 562 416 499 L344 184 L254 521 C253 527 252 536 252 543 C252 567 258 572 290 573 L290 667 Z " />
<glyph glyph-name="X" unicode="X" horiz-adv-x="698" d="M-2 573 L20 573 C44 571 56 563 80 530 L239 315 L105 148 C74 107 58 97 17 94 L-14 94 L-14 0 L301 0 L301 94 L266 94 C247 94 236 100 236 110 C236 115 239 122 244 127 L326 230 L383 149 C395 132 400 122 400 112 C400 101 390 94 372 94 L352 94 L352 0 L712 0 L712 94 L686 94 C657 98 637 110 623 133 L462 369 L604 542 C623 563 645 573 672 573 L689 573 L689 667 L400 667 L400 573 L427 573 C447 573 458 567 458 556 C458 552 455 546 449 539 L373 448 L326 517 C313 535 309 545 309 554 C309 566 319 573 337 573 L353 573 L353 667 L-2 667 L-2 573 Z " />
<glyph glyph-name="Y" unicode="Y" horiz-adv-x="651" d="M-24 573 L-5 573 C32 571 53 555 81 510 L214 268 L214 152 C216 101 210 95 165 94 L132 94 L132 0 L517 0 L517 94 L484 94 C440 95 434 101 435 152 L435 268 L570 506 C594 551 618 571 652 573 L671 573 L671 667 L387 667 L387 573 L414 573 C440 573 455 566 455 555 C455 546 451 533 445 523 L366 394 L288 521 C281 533 278 542 278 549 C278 565 292 573 322 573 L345 573 L345 667 L-24 667 L-24 573 Z " />
<glyph glyph-name="Z" unicode="Z" horiz-adv-x="637" d="M14 0 L610 0 L610 267 L498 267 C489 132 453 90 347 94 L261 94 L610 573 L610 667 L30 667 L30 419 L138 419 C148 541 176 572 281 573 L365 573 L14 94 L14 0 Z " />
<glyph glyph-name="bracketleft" unicode="&#x5b;" horiz-adv-x="406" d="M374 -182 L374 -82 L280 -82 L280 569 L374 569 L374 667 L94 667 L94 -182 L374 -182 Z " />
<glyph glyph-name="backslash" unicode="&#x5c;" horiz-adv-x="377" d="M282 -92 L368 -92 L125 686 L38 686 L282 -92 Z " />
<glyph glyph-name="bracketright" unicode="&#x5d;" horiz-adv-x="406" d="M32 -182 L313 -182 L313 667 L32 667 L32 569 L127 569 L127 -82 L32 -82 L32 -182 Z " />
<glyph glyph-name="asciicircum" unicode="&#x5e;" horiz-adv-x="475" d="M166 335 L238 541 L310 335 L471 335 L340 672 L136 672 L5 335 L166 335 Z " />
<glyph glyph-name="underscore" unicode="&#x5f;" horiz-adv-x="500" d="M0 -47 L0 -160 L500 -160 L500 -47 L0 -47 Z " />
<glyph glyph-name="grave" unicode="&#x60;" horiz-adv-x="489" d="M327 534 L184 686 C150 722 129 735 104 735 C72 735 47 711 47 679 C47 654 62 637 100 618 L269 534 L327 534 Z " />
<glyph glyph-name="a" unicode="a" horiz-adv-x="599" d="M589 189 L523 189 L523 133 C523 109 519 103 504 103 C490 103 486 110 486 133 L486 313 C486 381 478 411 452 435 C418 467 345 486 257 486 C118 486 32 437 32 356 C32 304 66 272 122 272 C173 272 207 299 207 340 C207 374 194 390 157 404 C181 417 195 421 217 421 C267 421 301 390 301 344 C301 291 272 271 178 258 C58 241 14 202 14 113 C14 31 68 -17 161 -17 C198 -17 238 -9 268 6 C291 16 301 25 322 50 C358 -1 389 -17 452 -17 C501 -17 538 -3 562 23 C582 46 589 72 589 128 L589 189 Z M304 157 C304 114 284 87 251 87 C226 87 207 107 207 134 C207 160 213 166 269 197 C274 200 288 208 302 218 L304 157 Z " />
<glyph glyph-name="b" unicode="b" horiz-adv-x="609" d="M0 580 L6 580 C52 580 60 573 60 533 L60 0 L187 0 L231 65 C290 2 323 -16 385 -16 C509 -16 575 70 575 232 C575 388 504 486 391 486 C335 486 296 466 255 416 L255 667 L0 667 L0 580 Z M310 382 C347 382 365 334 365 235 C365 133 347 84 310 84 C273 84 255 134 255 242 C255 335 273 382 310 382 L310 382 Z " />
<glyph glyph-name="c" unicode="c" horiz-adv-x="500" d="M360 163 C357 103 337 74 299 74 C278 74 257 88 248 109 C237 134 232 170 232 234 C232 299 236 335 248 360 C258 383 281 397 307 397 C328 397 338 391 349 373 C309 368 290 345 290 304 C290 256 323 226 375 226 C439 226 476 264 476 327 C476 423 395 487 276 487 C118 487 19 390 19 235 C19 80 117 -19 269 -19 C321 -19 367 -7 405 18 C449 46 468 84 475 163 L360 163 Z " />
<glyph glyph-name="d" unicode="d" horiz-adv-x="608" d="M266 580 L282 580 C329 580 338 572 338 533 L338 416 C295 467 257 486 202 486 C89 486 19 388 19 232 C19 71 85 -16 208 -16 C268 -16 299 1 356 65 L356 0 L593 0 L593 87 L572 87 C539 88 534 95 533 134 L533 667 L266 667 L266 580 Z M282 382 C322 382 338 337 338 228 C338 135 319 84 284 84 C247 84 229 133 229 234 C229 334 246 382 282 382 L282 382 Z " />
<glyph glyph-name="e" unicode="e" horiz-adv-x="538" d="M392 163 C379 102 350 74 301 74 C271 74 243 89 228 113 C216 135 212 156 211 207 L506 207 C505 299 497 340 469 386 C430 452 361 487 271 487 C118 487 19 388 19 235 C19 78 116 -18 273 -18 C347 -18 411 3 449 39 C478 66 493 99 508 163 L392 163 Z M211 294 C213 334 216 350 225 366 C235 385 258 398 280 398 C302 398 322 386 333 368 C343 350 346 333 347 294 L211 294 Z " />
<glyph glyph-name="f" unicode="f" horiz-adv-x="382" d="M86 378 L86 134 C85 94 79 88 42 87 L19 87 L19 0 L355 0 L355 87 L316 87 C278 88 273 94 272 135 L272 378 L353 378 L353 469 L272 469 L272 532 C272 580 275 592 288 606 C295 614 306 619 318 619 C326 619 331 618 343 614 C319 598 309 582 309 558 C309 521 340 494 382 494 C429 494 463 526 463 570 C463 640 397 685 296 685 C239 685 186 672 151 651 C103 621 86 581 86 496 L86 469 L19 469 L19 378 L86 378 Z " />
<glyph glyph-name="g" unicode="g" horiz-adv-x="585" d="M78 167 C26 144 3 112 3 66 C3 29 17 4 54 -27 C14 -43 -6 -69 -6 -104 C-6 -132 8 -157 36 -176 C71 -200 151 -214 259 -214 C444 -214 533 -162 533 -54 C533 -19 521 15 501 33 C472 62 435 72 364 72 C353 72 336 72 323 71 C211 68 211 68 192 68 C146 68 134 74 134 94 C134 104 137 109 145 118 C186 106 204 103 233 103 C369 103 459 178 459 292 C459 342 450 370 421 410 C446 429 461 436 475 436 C483 436 490 433 501 424 C480 404 473 391 473 372 C473 340 503 316 542 316 C584 316 610 344 610 388 C610 446 561 488 493 488 C459 488 436 479 393 449 C319 481 302 485 252 485 C108 485 25 416 25 297 C25 241 40 205 78 167 L78 167 Z M243 416 C267 416 275 383 275 291 C275 206 265 172 242 172 C220 172 209 211 209 290 C209 378 219 416 243 416 L243 416 Z M268 -70 C311 -70 350 -73 376 -77 C398 -81 407 -89 407 -104 C407 -130 367 -141 270 -141 C171 -141 130 -130 130 -104 C130 -79 168 -70 268 -70 L268 -70 Z " />
<glyph glyph-name="h" unicode="h" horiz-adv-x="646" d="M632 87 L621 87 C587 88 582 95 581 134 L581 308 C581 384 573 415 547 441 C521 468 478 482 426 482 C354 482 316 462 264 398 L264 667 L14 667 L14 580 L28 580 C63 579 68 572 69 533 L69 134 C68 95 63 88 28 87 L14 87 L14 0 L309 0 L309 87 C270 87 265 92 264 134 L264 288 C264 347 289 383 329 383 C368 383 386 357 386 303 L386 134 C385 92 380 87 341 87 L341 0 L632 0 L632 87 Z " />
<glyph glyph-name="i" unicode="i" horiz-adv-x="344" d="M328 87 L313 87 C278 88 273 95 272 134 L272 469 L19 469 L19 382 L38 382 C75 381 81 374 82 335 L82 134 C81 95 75 88 38 87 L19 87 L19 0 L328 0 L328 87 Z M162 686 C113 686 73 646 73 598 C73 546 112 507 162 507 C212 507 252 547 252 597 C252 646 212 686 162 686 L162 686 Z " />
<glyph glyph-name="j" unicode="j" horiz-adv-x="335" d="M269 469 L3 469 L3 382 L27 382 C67 381 73 374 74 335 L74 -98 C74 -125 63 -141 44 -141 C37 -141 28 -138 15 -133 C36 -114 42 -103 42 -84 C42 -45 13 -18 -29 -18 C-74 -18 -105 -51 -105 -100 C-105 -174 -45 -215 65 -215 C180 -215 244 -181 263 -110 C268 -90 269 -79 269 -12 L269 469 Z M163 686 C114 686 74 646 74 598 C74 546 113 507 163 507 C213 507 253 547 253 597 C253 646 213 686 163 686 L163 686 Z " />
<glyph glyph-name="k" unicode="k" horiz-adv-x="637" d="M14 580 L33 580 C68 579 73 572 74 533 L74 134 C73 95 68 88 33 87 L16 87 L16 0 L307 0 L307 87 C270 89 266 95 267 152 L330 203 L366 141 C380 118 384 108 384 100 C384 90 379 88 351 87 L351 0 L642 0 L642 87 C599 90 586 97 569 124 L461 307 L524 359 C543 375 563 381 600 382 L600 469 L333 469 L333 382 L343 382 C363 382 370 378 370 368 C370 362 365 354 357 347 L267 269 L267 667 L14 667 L14 580 Z " />
<glyph glyph-name="l" unicode="l" horiz-adv-x="335" d="M265 667 L9 667 L9 580 L30 580 C67 579 73 572 74 533 L74 134 C73 95 67 88 30 87 L9 87 L9 0 L319 0 L319 87 L305 87 C271 88 266 95 265 134 L265 667 Z " />
<glyph glyph-name="m" unicode="m" horiz-adv-x="920" d="M261 469 L19 469 L19 382 L34 382 C69 381 74 374 75 335 L75 134 C74 95 69 88 34 87 L19 87 L19 0 L307 0 L307 87 C276 88 271 95 270 134 L270 273 C270 350 286 383 325 383 C356 383 369 360 369 303 L369 134 C369 94 365 87 339 87 L335 87 L335 0 L600 0 L600 87 L595 87 C568 87 564 94 564 134 L564 275 C564 350 581 383 618 383 C650 383 663 360 663 303 L663 134 C662 95 659 90 628 87 L628 0 L909 0 L909 87 L898 87 C864 88 859 95 858 134 L858 312 C858 388 850 419 824 445 C799 471 755 486 707 486 C647 486 607 470 553 424 C520 470 487 487 425 487 C359 487 321 469 261 410 L261 469 Z " />
<glyph glyph-name="n" unicode="n" horiz-adv-x="651" d="M641 87 L624 87 C589 88 584 95 583 134 L583 308 C583 384 575 415 549 441 C523 467 479 482 429 482 C395 482 361 475 332 461 C305 449 288 434 258 396 L258 469 L9 469 L9 382 L30 382 C65 381 70 374 71 335 L71 134 C70 95 65 88 30 87 L9 87 L9 0 L313 0 L313 87 C272 87 267 93 266 134 L266 288 C266 347 291 383 331 383 C370 383 388 357 388 303 L388 134 C388 92 383 87 343 87 L343 0 L641 0 L641 87 Z " />
<glyph glyph-name="o" unicode="o" horiz-adv-x="580" d="M290 486 C123 486 20 391 20 238 C20 154 43 94 92 50 C140 6 209 -17 291 -17 C457 -17 560 80 560 234 C560 390 457 486 290 486 L290 486 Z M290 394 C334 394 349 354 349 234 C349 115 334 75 290 75 C246 75 231 115 231 237 C231 354 246 394 290 394 L290 394 Z " />
<glyph glyph-name="p" unicode="p" horiz-adv-x="609" d="M250 469 L14 469 L14 382 L34 382 C67 381 72 374 73 335 L73 -80 C72 -119 67 -126 34 -127 L14 -127 L14 -214 L325 -214 L325 -127 L319 -127 C277 -127 268 -119 268 -80 L268 53 C311 2 349 -17 404 -17 C517 -17 587 81 587 237 C587 398 521 485 399 485 C339 485 304 466 250 404 L250 469 Z M323 385 C359 385 377 336 377 235 C377 135 359 87 323 87 C285 87 268 133 268 232 C268 335 286 385 323 385 L323 385 Z " />
<glyph glyph-name="q" unicode="q" horiz-adv-x="609" d="M356 404 C302 466 267 485 207 485 C85 485 19 398 19 237 C19 81 89 -17 202 -17 C257 -17 295 2 338 53 L338 -80 C338 -118 329 -127 289 -127 L281 -127 L281 -214 L592 -214 L592 -127 L572 -127 C539 -126 534 -119 533 -80 L533 335 C534 374 539 381 572 382 L592 382 L592 469 L356 469 L356 404 Z M283 385 C321 385 338 335 338 227 C338 134 320 87 283 87 C247 87 229 135 229 234 C229 336 247 385 283 385 L283 385 Z " />
<glyph glyph-name="r" unicode="r" horiz-adv-x="486" d="M261 469 L19 469 L19 382 L34 382 C69 381 74 374 75 335 L75 134 C74 95 69 88 34 87 L19 87 L19 0 L340 0 L340 87 L312 87 C276 88 271 95 270 134 L270 272 C270 317 276 347 290 372 C303 395 327 412 347 412 C352 412 359 411 368 409 C338 390 326 372 326 343 C326 302 358 271 401 271 C452 271 488 311 488 370 C488 439 443 485 376 485 C331 485 300 469 261 423 L261 469 Z " />
<glyph glyph-name="s" unicode="s" horiz-adv-x="538" d="M95 -7 L112 30 C166 -3 222 -17 294 -17 C418 -17 498 46 498 143 C498 189 482 224 451 250 C428 268 407 277 323 305 C248 331 248 331 237 340 C231 345 227 355 227 365 C227 389 248 403 284 403 C301 403 317 400 334 393 C365 381 379 368 402 330 L476 330 L476 478 L406 478 L393 450 C326 479 294 486 233 486 C99 486 19 427 19 327 C19 251 55 218 183 176 C272 146 272 146 282 138 C288 133 293 121 293 110 C293 86 273 74 234 74 C213 74 193 78 175 86 C145 99 130 118 112 164 L29 164 L29 -7 L95 -7 Z " />
<glyph glyph-name="t" unicode="t" horiz-adv-x="434" d="M62 383 L62 167 C62 90 67 69 90 39 C121 1 170 -19 237 -19 C301 -19 348 -1 375 32 C398 61 405 89 405 158 L405 221 L320 221 L320 178 C320 97 312 73 286 73 C264 73 257 89 257 142 L257 383 L382 383 L382 469 L257 469 L257 652 L140 652 C117 513 86 471 5 469 L5 383 L62 383 Z " />
<glyph glyph-name="u" unicode="u" horiz-adv-x="651" d="M394 0 L635 0 L635 87 L617 87 C584 88 579 95 578 134 L578 469 L317 469 L317 381 L336 381 C376 380 382 374 383 335 L383 181 C383 122 359 86 321 86 C284 86 267 112 267 166 L267 469 L9 469 L9 381 L25 381 C65 380 71 374 72 335 L72 156 C72 80 80 50 106 24 C132 -2 175 -17 224 -17 C297 -17 342 5 394 69 L394 0 Z " />
<glyph glyph-name="v" unicode="v" horiz-adv-x="542" d="M322 382 C359 379 373 371 373 353 C373 346 372 341 371 335 L307 124 L246 335 C244 343 242 352 242 358 C242 377 252 382 292 382 L292 469 L5 469 L5 382 L22 382 C46 382 52 376 65 335 L164 0 L362 0 L475 329 C487 368 507 381 551 382 L551 469 L322 469 L322 382 Z " />
<glyph glyph-name="w" unicode="w" horiz-adv-x="807" d="M340 0 L403 227 L458 0 L637 0 L738 329 C749 368 768 382 809 382 L809 469 L605 469 L605 382 C633 377 644 370 644 355 C644 349 643 342 641 335 L587 124 L540 335 C538 343 538 348 538 357 C538 374 546 382 563 382 L573 382 L573 469 L308 469 L308 382 C337 377 348 370 347 353 C347 348 346 342 344 335 L284 119 L234 335 C232 342 231 350 231 357 C231 376 238 382 261 382 L268 382 L268 469 L5 469 L5 382 L26 382 C52 382 57 375 74 310 L150 0 L340 0 Z " />
<glyph glyph-name="x" unicode="x" horiz-adv-x="599" d="M603 87 L595 87 C554 90 535 99 503 134 L392 255 L495 349 C525 376 542 382 588 382 L596 382 L596 469 L352 469 L352 386 L357 386 C369 385 369 385 370 384 C376 382 379 379 379 374 C379 370 376 365 369 357 L334 313 L308 351 C295 370 295 370 295 375 C295 383 302 387 315 387 L318 387 L318 469 L20 469 L20 382 C66 379 70 377 110 335 L203 229 L81 111 C66 96 38 87 7 87 L0 87 L0 0 L239 0 L239 83 L234 83 C214 83 206 86 206 95 C206 101 210 108 215 115 L260 165 L296 118 C306 105 310 99 310 94 C310 86 304 83 289 83 L275 83 L275 0 L603 0 L603 87 Z " />
<glyph glyph-name="y" unicode="y" horiz-adv-x="547" d="M315 382 C361 380 375 375 375 359 C375 355 373 347 370 337 L309 174 L252 338 C245 359 245 359 245 363 C245 377 251 380 285 382 L285 469 L-2 469 L-2 382 L15 382 C45 380 51 373 79 306 L225 -51 C193 -117 163 -147 125 -147 C112 -147 104 -143 91 -130 C133 -119 150 -98 150 -61 C150 -18 118 12 71 12 C17 12 -20 -27 -20 -84 C-20 -162 39 -214 129 -214 C219 -214 278 -163 328 -40 L478 329 C492 369 509 381 554 382 L554 469 L315 469 L315 382 Z " />
<glyph glyph-name="z" unicode="z" horiz-adv-x="486" d="M14 0 L458 0 L458 206 L373 206 C372 106 361 91 287 87 L224 87 L458 373 L458 469 L30 469 L30 280 L115 280 C120 368 128 378 191 382 L254 382 L14 96 L14 0 Z " />
<glyph glyph-name="braceleft" unicode="&#x7b;" horiz-adv-x="406" d="M285 476 C285 549 286 552 303 562 C312 567 325 569 359 569 C362 569 368 569 374 568 L374 665 C314 668 302 668 285 668 C196 668 168 662 139 640 C112 618 99 581 99 523 L99 369 C99 308 88 288 51 279 L51 185 C88 176 99 154 99 96 L99 -59 C99 -111 110 -147 133 -169 C160 -195 192 -203 275 -203 C298 -203 318 -203 374 -201 L374 -104 C285 -104 283 -103 285 -12 L285 106 C284 175 270 205 225 232 C271 261 283 287 285 358 L285 476 Z " />
<glyph glyph-name="bar" unicode="&#x7c;" horiz-adv-x="485" d="M144 667 L144 -167 L340 -167 L340 667 L144 667 Z " />
<glyph glyph-name="braceright" unicode="&#x7d;" horiz-adv-x="406" d="M122 -12 C124 -103 121 -105 32 -104 L32 -200 C96 -203 109 -203 122 -203 C211 -203 239 -197 268 -175 C295 -153 308 -116 308 -59 L308 96 C308 156 319 177 355 185 L355 279 C319 289 308 310 308 369 L308 523 C308 576 297 612 274 634 C247 660 215 668 132 668 C107 668 93 668 32 665 L32 569 L48 569 C81 569 98 566 107 560 C121 550 122 547 122 476 L122 359 C123 290 137 260 182 232 C136 203 124 177 122 106 L122 -12 Z " />
<glyph glyph-name="asciitilde" unicode="&#x7e;" horiz-adv-x="658" d="M180 534 C201 575 215 588 238 588 C250 588 262 585 290 574 C376 542 395 536 416 536 C457 536 495 557 525 595 C542 618 554 641 573 689 L481 767 C458 725 445 714 422 714 C408 714 403 715 349 736 C273 763 270 764 243 764 C175 764 127 718 87 613 L180 534 Z " />
<glyph glyph-name="uni00A0" unicode="&#xa0;" horiz-adv-x="250" d="" />
<glyph glyph-name="exclamdown" unicode="&#xa1;" horiz-adv-x="326" d="M113 259 C106 183 101 144 92 90 C67 -53 66 -58 66 -97 C66 -172 104 -220 163 -220 C223 -220 262 -172 262 -98 C262 -73 258 -35 252 0 C226 145 225 151 215 259 L113 259 Z M162 483 C114 483 76 442 76 391 C76 341 115 300 162 300 C210 300 249 340 249 389 C249 442 211 483 162 483 L162 483 Z " />
<glyph glyph-name="cent" unicode="&#xa2;" horiz-adv-x="613" d="M380 254 C404 246 416 243 431 243 C490 243 528 283 528 345 C528 386 516 413 477 455 L530 564 L457 564 L419 487 C370 501 342 506 316 506 C254 506 192 483 148 443 C98 398 71 332 71 252 C71 201 83 150 104 112 C123 77 144 58 197 26 L133 -107 L205 -107 L260 5 C289 2 317 0 338 0 C395 0 451 23 485 59 C510 86 521 118 527 180 L412 180 C409 120 387 91 345 91 C331 91 323 94 308 106 L380 254 Z M273 183 C276 221 277 234 278 265 C280 331 280 331 283 345 C293 388 320 414 354 414 C374 414 385 409 401 389 C361 383 351 373 343 327 L273 183 Z " />
<glyph glyph-name="sterling" unicode="&#xa3;" horiz-adv-x="613" d="M84 -17 C140 24 171 38 206 38 C226 38 252 32 283 21 C376 -13 392 -17 433 -17 C533 -17 585 42 585 157 C585 173 585 194 584 216 L495 216 C496 211 496 203 496 202 C496 153 483 131 452 131 C441 131 429 133 418 137 C348 164 348 164 325 164 C295 164 271 156 221 130 C284 185 290 194 296 260 L418 260 L418 351 L289 351 C283 410 280 441 280 446 C280 501 319 542 373 542 C403 542 417 536 439 516 C411 498 403 484 403 453 C403 410 439 377 485 377 C534 377 570 413 570 462 C570 494 556 527 533 553 C491 599 423 622 333 622 C242 622 179 599 133 551 C102 518 85 475 85 431 C85 407 89 389 101 351 L28 351 L28 260 L126 260 C129 243 130 228 130 217 C130 166 105 133 34 88 L84 -17 Z " />
<glyph glyph-name="currency" unicode="&#xa4;" horiz-adv-x="694" d="M28 107 L122 9 L221 112 C268 86 303 76 348 76 C392 76 432 88 475 112 L573 8 L667 108 L567 213 C589 259 597 293 597 337 C597 385 587 424 562 470 L662 575 L569 674 L465 566 C422 588 389 597 347 597 C305 597 273 588 228 565 L124 675 L29 575 L131 468 C108 422 98 381 98 338 C98 297 109 252 128 213 L28 107 Z M349 434 C393 434 429 391 429 339 C429 287 393 244 348 244 C303 244 267 287 267 339 C267 392 303 434 349 434 L349 434 Z " />
<glyph glyph-name="yen" unicode="&#xa5;" horiz-adv-x="651" d="M361 346 L288 472 C282 483 279 491 279 497 C279 512 291 519 317 519 L337 519 L337 605 L15 605 L15 519 L32 519 C65 517 86 502 110 462 L143 404 L76 404 L76 313 L195 313 L231 252 L89 252 L89 161 L236 161 L236 138 C238 92 233 87 189 86 L157 86 L157 0 L496 0 L496 86 L464 86 C421 86 415 92 416 138 L416 161 L560 161 L560 252 L421 252 L458 313 L573 313 L573 404 L512 404 L543 458 C565 500 587 517 618 519 L635 519 L635 605 L386 605 L386 519 L408 519 C430 519 443 513 443 503 C443 495 440 483 434 474 L361 346 Z " />
<glyph glyph-name="brokenbar" unicode="&#xa6;" horiz-adv-x="485" d="M144 667 L144 304 L340 304 L340 667 L144 667 Z M144 153 L144 -167 L340 -167 L340 153 L144 153 Z " />
<glyph glyph-name="section" unicode="&#xa7;" horiz-adv-x="590" d="M212 -111 C230 -91 236 -79 236 -62 C236 -16 202 18 158 18 C113 18 81 -17 81 -67 C81 -152 163 -210 285 -210 C423 -210 520 -133 520 -22 C520 38 501 70 439 119 C473 137 490 151 503 168 C523 196 534 231 534 266 C534 351 488 398 344 456 C230 503 218 511 218 547 C218 587 254 614 307 614 C332 614 344 611 367 597 C349 579 343 569 343 552 C343 512 378 481 422 481 C467 481 499 513 499 558 C499 635 417 687 294 687 C162 687 82 621 82 514 C82 464 99 434 152 389 C75 345 47 305 47 240 C47 191 70 144 107 118 C138 96 162 85 279 38 C360 5 383 -16 383 -57 C383 -103 345 -131 284 -131 C253 -131 240 -127 212 -111 L212 -111 Z M231 342 C250 342 284 328 354 291 C389 273 405 252 405 225 C405 192 376 163 346 165 C329 166 290 182 239 208 C194 231 176 252 176 283 C176 315 202 342 231 342 L231 342 Z " />
<glyph glyph-name="dieresis" unicode="&#xa8;" horiz-adv-x="483" d="M142 715 C100 715 63 679 63 638 C63 594 98 559 143 559 C186 559 219 593 219 636 C219 680 185 715 142 715 L142 715 Z M343 715 C301 715 264 679 264 638 C264 594 299 559 344 559 C387 559 420 593 420 636 C420 680 386 715 343 715 L343 715 Z " />
<glyph glyph-name="copyright" unicode="&#xa9;" horiz-adv-x="791" d="M503 294 C500 257 495 241 482 224 C468 205 447 194 425 194 C375 194 356 233 356 333 C356 431 375 471 422 471 C444 471 463 460 473 440 C483 424 487 410 496 368 L566 368 L566 528 L502 528 L493 509 C455 529 434 534 392 534 C273 534 198 455 198 329 C198 205 271 132 395 132 C457 132 506 152 536 190 C556 215 564 240 568 294 L503 294 Z M401 703 C195 703 32 540 32 333 C32 130 196 -36 396 -36 C596 -36 759 129 759 333 C759 535 597 703 401 703 L401 703 Z M400 631 C551 631 676 496 676 333 C676 169 551 36 396 36 C242 36 115 170 115 333 C115 500 240 631 400 631 L400 631 Z " />
<glyph glyph-name="ordfeminine" unicode="&#xaa;" horiz-adv-x="396" d="M389 446 L339 446 L339 410 C339 398 338 396 330 396 C323 396 322 398 322 410 L322 516 C322 557 316 575 299 590 C276 610 228 621 171 621 C78 621 21 591 21 542 C21 512 44 495 83 495 C118 495 140 510 140 535 C140 552 133 562 114 570 C125 575 132 576 144 576 C175 576 195 559 195 533 C195 505 177 494 118 486 C39 476 9 452 9 398 C9 348 46 318 108 318 C154 318 187 330 212 356 C235 328 257 318 297 318 C329 318 354 326 370 342 C384 357 389 373 389 407 L389 446 Z M197 454 L197 424 C198 400 186 386 167 386 C152 386 141 396 141 410 C141 419 147 428 157 433 C164 437 171 441 179 444 L197 454 Z " />
<glyph glyph-name="guillemotleft" unicode="&#xab;" horiz-adv-x="476" d="M238 67 C188 194 183 209 183 237 C183 265 186 275 231 406 L136 406 C67 310 38 258 38 234 C38 212 43 203 137 67 L238 67 Z M443 67 C393 194 388 209 388 237 C388 265 391 275 435 406 L341 406 C273 311 243 258 243 234 C243 212 248 203 341 67 L443 67 Z " />
<glyph glyph-name="logicalnot" unicode="&#xac;" horiz-adv-x="475" d="M254 0 L444 0 L444 299 L32 299 L32 128 L254 128 L254 0 Z " />
<glyph glyph-name="uni00AD" unicode="&#xad;" horiz-adv-x="275" d="M0 154 L275 154 L275 312 L0 312 L0 154 Z " />
<glyph glyph-name="registered" unicode="&#xae;" horiz-adv-x="791" d="M193 464 L213 464 C236 463 238 461 238 435 L238 231 C238 205 236 203 213 202 L193 202 L193 143 L417 143 L417 202 L395 202 C371 203 370 205 370 231 L370 311 L398 311 C438 310 443 304 443 257 L443 226 C443 163 473 134 538 134 C604 134 630 163 630 237 L630 255 L587 255 C588 247 588 236 588 233 C588 215 583 203 576 204 C570 205 566 214 566 228 C567 317 559 334 513 345 C556 358 579 387 579 428 C579 457 566 484 545 499 C523 516 494 523 445 523 L193 523 L193 464 Z M369 369 L369 461 L399 461 C434 461 445 449 445 414 C445 380 433 369 396 369 L369 369 Z M401 703 C195 703 32 540 32 333 C32 130 196 -36 396 -36 C596 -36 759 129 759 333 C759 535 597 703 401 703 L401 703 Z M400 631 C551 631 676 496 676 333 C676 169 551 36 396 36 C241 36 115 170 115 333 C115 500 240 631 400 631 L400 631 Z " />
<glyph glyph-name="macron" unicode="&#xaf;" horiz-adv-x="491" d="M88 585 L403 585 L403 672 L88 672 L88 585 Z " />
<glyph glyph-name="degree" unicode="&#xb0;" horiz-adv-x="400" d="M203 686 C117 686 50 619 50 534 C50 448 116 381 200 381 C284 381 350 448 350 533 C350 619 286 686 203 686 L203 686 Z M202 629 C252 629 293 586 293 534 C293 480 252 438 200 438 C148 438 106 481 106 533 C106 587 148 629 202 629 L202 629 Z " />
<glyph glyph-name="plusminus" unicode="&#xb1;" horiz-adv-x="549" d="M11 55 L11 0 L535 0 L535 55 L11 55 Z M302 662 L247 662 L247 423 L10 423 L10 368 L247 368 L247 129 L302 129 L302 368 L539 368 L539 423 L302 423 L302 662 Z " />
<glyph glyph-name="twosuperior" unicode="&#xb2;" horiz-adv-x="354" d="M83 266 C89 278 95 282 107 282 C116 282 126 280 137 278 C207 258 212 257 242 257 C304 257 331 291 331 367 L331 386 L275 386 C275 355 268 343 252 343 C248 343 245 343 242 344 C190 356 189 356 171 356 C148 356 132 352 102 337 C113 361 123 367 198 387 C282 409 319 444 319 500 C319 568 259 615 172 615 C87 615 25 567 25 502 C25 464 45 441 80 441 C112 441 134 462 134 491 C134 520 122 532 90 533 C106 549 119 555 141 555 C175 555 196 537 196 508 C196 480 182 463 138 436 C49 381 24 343 26 266 L83 266 Z " />
<glyph glyph-name="threesuperior" unicode="&#xb3;" horiz-adv-x="354" d="M152 419 C191 417 208 401 208 366 C208 328 186 308 144 308 C123 308 113 311 93 321 C126 326 137 337 137 363 C137 391 116 410 85 410 C50 410 24 384 24 349 C24 290 79 257 177 257 C275 257 332 295 332 360 C332 404 312 428 258 448 C301 464 319 485 319 522 C319 581 270 615 185 615 C93 615 33 575 33 515 C33 482 53 462 87 462 C117 462 136 479 136 505 C136 529 125 541 102 543 C115 558 126 563 146 563 C180 563 203 541 203 509 C203 481 191 470 152 466 L152 419 Z " />
<glyph glyph-name="acute" unicode="&#xb4;" horiz-adv-x="489" d="M137 534 L195 534 L363 617 C400 636 416 654 416 679 C416 711 392 735 360 735 C334 735 315 723 280 686 L137 534 Z " />
<glyph glyph-name="mu" unicode="&#xb5;" horiz-adv-x="576" d="M442 500 L353 500 L354 131 C318 80 284 58 242 58 C184 58 150 99 150 169 L150 500 L62 500 L62 20 C62 -1 58 -26 51 -56 C34 -118 33 -123 33 -147 C33 -190 54 -219 83 -219 C112 -219 132 -189 132 -145 C132 -124 129 -110 113 -53 C102 -17 101 -8 101 21 L101 33 C143 -3 165 -13 200 -13 C250 -13 301 18 354 80 C362 48 367 36 377 21 C392 0 419 -13 449 -13 C510 -13 553 31 567 108 L540 109 C536 71 515 41 492 41 C462 41 442 77 442 131 L442 500 Z " />
<glyph glyph-name="paragraph" unicode="&#xb6;" horiz-adv-x="588" d="M204 -92 L316 -92 L316 565 L387 565 L387 -92 L499 -92 L499 565 L563 565 L563 667 L245 667 C187 667 134 657 103 640 C53 611 25 558 25 491 C25 390 93 321 192 321 L204 321 L204 -92 Z " />
<glyph glyph-name="periodcentered" unicode="&#xb7;" horiz-adv-x="307" d="M153 326 C106 326 66 286 66 237 C66 184 104 143 153 143 C201 143 240 184 240 235 C240 285 201 326 153 326 L153 326 Z " />
<glyph glyph-name="cedilla" unicode="&#xb8;" horiz-adv-x="475" d="M98 -182 C172 -217 214 -230 259 -230 C326 -230 370 -192 370 -135 C370 -86 335 -49 287 -49 C278 -49 262 -51 248 -53 L248 0 L204 0 L204 -98 C214 -96 226 -94 232 -94 C257 -94 274 -109 274 -133 C274 -156 257 -171 232 -171 C201 -171 168 -159 121 -130 L98 -182 Z " />
<glyph glyph-name="onesuperior" unicode="&#xb9;" horiz-adv-x="354" d="M71 513 L131 513 L131 350 C132 320 130 318 95 316 L83 316 L83 267 L288 267 L288 316 L277 316 C251 316 245 320 246 339 L246 605 L155 605 C144 578 120 566 71 562 L71 513 Z " />
<glyph glyph-name="ordmasculine" unicode="&#xba;" horiz-adv-x="384" d="M194 622 C80 622 13 566 13 470 C13 375 81 318 192 318 C302 318 371 376 371 470 C371 563 302 622 194 622 L194 622 Z M192 561 C219 561 227 539 227 469 C227 401 218 379 192 379 C166 379 157 402 157 470 C157 539 166 561 192 561 L192 561 Z " />
<glyph glyph-name="guillemotright" unicode="&#xbb;" horiz-adv-x="476" d="M344 67 C438 203 443 212 443 234 C443 258 414 310 345 406 L250 406 C296 271 298 265 298 237 C298 209 294 197 243 67 L344 67 Z M139 67 C228 196 238 212 238 234 C238 258 208 311 140 406 L45 406 C90 277 93 265 93 237 C93 209 88 193 38 67 L139 67 Z " />
<glyph glyph-name="onequarter" unicode="&#xbc;" horiz-adv-x="863" d="M71 513 L131 513 L131 350 C132 320 130 318 92 316 L78 316 L78 267 L293 267 L293 316 L281 316 C252 316 245 320 246 339 L246 605 L155 605 C144 578 120 566 71 562 L71 513 Z M204 -17 L293 -17 L672 622 L584 622 L204 -17 Z M793 97 L844 97 L844 144 L793 144 L793 339 L691 339 L527 156 L527 97 L690 97 L690 83 C691 53 689 51 649 49 L634 49 L634 0 L844 0 L844 49 L831 49 C799 49 792 53 793 72 L793 97 Z M586 144 L692 263 L690 144 L586 144 Z " />
<glyph glyph-name="onehalf" unicode="&#xbd;" horiz-adv-x="863" d="M71 513 L131 513 L131 350 C132 320 130 318 92 316 L78 316 L78 267 L293 267 L293 316 L281 316 C252 316 245 320 246 339 L246 605 L155 605 C144 578 120 566 71 562 L71 513 Z M204 -17 L293 -17 L673 622 L584 622 L204 -17 Z M594 0 C600 12 606 16 617 16 C626 16 636 14 647 12 C716 -8 722 -9 751 -9 C809 -9 839 25 839 92 L839 102 L839 119 L784 119 C784 88 777 76 761 76 C757 76 754 76 751 77 C700 89 699 89 680 89 C658 89 642 85 612 70 C623 95 633 100 707 120 C790 142 827 177 827 233 C827 301 768 348 682 348 C597 348 536 300 536 235 C536 197 556 174 591 174 C622 174 644 195 644 224 C644 253 632 265 601 266 C616 282 629 288 650 288 C684 288 704 270 704 241 C704 213 690 196 647 169 C559 114 535 76 537 0 L594 0 Z " />
<glyph glyph-name="threequarters" unicode="&#xbe;" horiz-adv-x="863" d="M152 419 C191 417 208 401 208 366 C208 328 186 308 144 308 C123 308 113 311 93 321 C126 326 137 337 137 363 C137 391 116 410 85 410 C50 410 24 384 24 349 C24 290 79 257 177 257 C275 257 332 295 332 360 C332 404 312 428 258 448 C301 464 319 485 319 522 C319 581 270 615 185 615 C93 615 33 575 33 515 C33 482 53 462 87 462 C117 462 136 479 136 505 C136 529 125 541 102 543 C115 558 126 563 146 563 C180 563 203 541 203 509 C203 481 191 470 152 466 L152 419 Z M199 -17 L288 -17 L671 622 L582 622 L199 -17 Z M792 97 L844 97 L844 144 L792 144 L792 339 L689 339 L524 156 L524 97 L689 97 L689 83 C689 53 688 52 647 49 L632 49 L632 0 L844 0 L844 49 L831 49 C799 49 791 53 792 72 L792 97 Z M584 144 L690 263 L689 144 L584 144 Z " />
<glyph glyph-name="questiondown" unicode="&#xbf;" horiz-adv-x="561" d="M304 483 C256 483 217 442 217 391 C217 341 256 300 304 300 C351 300 390 340 390 389 C390 443 353 483 304 483 L304 483 Z M246 257 C244 210 237 199 194 166 C82 85 52 42 52 -36 C52 -147 142 -220 279 -220 C368 -220 433 -191 476 -133 C502 -98 516 -55 516 -12 C516 67 477 114 412 114 C359 114 322 76 322 21 C322 -24 348 -54 387 -54 C396 -54 412 -52 427 -48 C415 -97 389 -119 344 -119 C297 -119 263 -83 263 -35 C263 3 277 44 308 100 C352 179 357 192 357 225 C357 233 357 245 356 257 L246 257 Z " />
<glyph glyph-name="Agrave" unicode="&#xc0;" horiz-adv-x="665" d="M325 0 L709 0 L709 94 L676 94 C632 97 628 100 608 165 L459 667 L231 667 L65 163 C47 112 33 97 -4 94 L-28 94 L-28 0 L256 0 L256 94 L224 94 C194 94 180 100 180 114 C180 122 182 132 188 151 L208 214 L379 214 L401 143 C403 136 405 124 405 115 C405 96 401 94 354 94 L325 94 L325 0 Z M348 310 L238 310 L292 512 L348 310 Z M394 723 L451 723 L306 851 C283 871 268 879 251 879 C225 879 202 856 202 830 C202 808 219 788 248 777 L394 723 Z " />
<glyph glyph-name="Aacute" unicode="&#xc1;" horiz-adv-x="665" d="M325 0 L709 0 L709 94 L676 94 C632 97 628 100 608 165 L459 667 L231 667 L65 163 C47 112 33 97 -4 94 L-28 94 L-28 0 L256 0 L256 94 L224 94 C194 94 180 100 180 114 C180 122 182 132 188 151 L208 214 L379 214 L401 143 C403 136 405 124 405 115 C405 96 401 94 354 94 L325 94 L325 0 Z M348 310 L238 310 L292 512 L348 310 Z M272 723 L418 777 C447 788 464 808 464 830 C464 857 442 879 415 879 C398 879 384 872 361 851 L215 723 L272 723 Z " />
<glyph glyph-name="Acircumflex" unicode="&#xc2;" horiz-adv-x="665" d="M325 0 L709 0 L709 94 L676 94 C632 97 628 100 608 165 L459 667 L231 667 L65 163 C47 112 33 97 -4 94 L-28 94 L-28 0 L256 0 L256 94 L224 94 C194 94 180 100 180 114 C180 122 182 132 188 151 L208 214 L379 214 L401 143 C403 136 405 124 405 115 C405 96 401 94 354 94 L325 94 L325 0 Z M348 310 L238 310 L292 512 L348 310 Z M173 723 L223 723 L337 782 L451 723 L500 723 L398 869 L275 869 L173 723 Z " />
<glyph glyph-name="Atilde" unicode="&#xc3;" horiz-adv-x="665" d="M325 0 L709 0 L709 94 L676 94 C632 97 628 100 608 165 L459 667 L231 667 L65 163 C47 112 33 97 -4 94 L-28 94 L-28 0 L256 0 L256 94 L224 94 C194 94 180 100 180 114 C180 122 182 132 188 151 L208 214 L379 214 L401 143 C403 136 405 124 405 115 C405 96 401 94 354 94 L325 94 L325 0 Z M348 310 L238 310 L292 512 L348 310 Z M213 723 C222 752 236 766 258 766 C268 766 278 765 290 761 L348 746 C359 743 371 741 381 741 C409 741 434 752 453 774 C473 797 482 818 493 869 L453 869 C441 837 431 827 407 827 C401 827 392 828 384 830 L325 846 C312 849 299 851 286 851 C224 851 193 815 173 723 L213 723 Z " />
<glyph glyph-name="Adieresis" unicode="&#xc4;" horiz-adv-x="665" d="M325 0 L709 0 L709 94 L676 94 C632 97 628 100 608 165 L459 667 L231 667 L65 163 C47 112 33 97 -4 94 L-28 94 L-28 0 L256 0 L256 94 L224 94 C194 94 180 100 180 114 C180 122 182 132 188 151 L208 214 L379 214 L401 143 C403 136 405 124 405 115 C405 96 401 94 354 94 L325 94 L325 0 Z M348 310 L238 310 L292 512 L348 310 Z M249 878 C208 878 172 842 172 803 C172 760 206 726 249 726 C290 726 325 760 325 801 C325 842 289 878 249 878 L249 878 Z M448 878 C407 878 371 842 371 803 C371 760 405 726 448 726 C490 726 524 760 524 801 C524 842 489 878 448 878 L448 878 Z " />
<glyph glyph-name="Aring" unicode="&#xc5;" horiz-adv-x="665" d="M325 0 L709 0 L709 94 L676 94 C632 97 628 100 608 165 L459 654 L231 654 L65 163 C47 112 33 98 -4 94 L-28 94 L-28 0 L256 0 L256 94 L224 94 C194 94 180 100 180 114 C180 122 182 132 188 151 L208 214 L379 214 L401 143 C403 136 405 124 405 115 C405 96 401 94 354 94 L325 94 L325 0 Z M348 310 L238 310 L292 512 L348 310 Z M336 921 C274 921 221 871 221 810 C221 745 274 691 337 691 C398 691 451 745 451 808 C451 870 400 921 336 921 L336 921 Z M336 850 C360 850 381 829 381 805 C381 781 360 761 336 761 C311 761 291 781 291 806 C291 829 312 850 336 850 L336 850 Z " />
<glyph glyph-name="AE" unicode="&#xc6;" horiz-adv-x="1047" d="M416 214 L416 152 C418 101 413 95 369 94 L336 94 L336 0 L994 0 L994 275 L892 275 C880 113 856 88 717 94 L624 94 L624 301 L652 301 C711 301 721 285 726 191 L801 191 L801 495 L726 495 C723 410 711 393 651 389 L624 389 L624 573 L706 573 C836 577 866 553 893 419 L991 419 L991 667 L182 667 L182 573 L216 573 C259 573 268 569 268 549 C268 541 265 530 260 521 L73 159 C45 112 25 97 -15 94 L-38 94 L-38 0 L267 0 L267 94 L237 94 C207 94 193 101 193 115 C193 124 197 136 204 150 L236 214 L416 214 Z M416 310 L281 310 L399 573 L416 573 L416 310 Z " />
<glyph glyph-name="Ccedilla" unicode="&#xc7;" horiz-adv-x="698" d="M362 -20 C439 -21 510 -3 560 32 C633 87 657 139 666 258 L564 258 C557 194 549 166 525 134 C499 99 460 79 420 79 C375 79 339 102 320 143 C301 186 293 239 293 335 C293 512 329 586 415 586 C456 586 491 565 511 528 C528 498 535 474 550 402 L663 402 L663 676 L560 676 L544 640 C475 677 437 687 365 687 C158 687 28 548 28 327 C28 124 127 6 318 -17 L318 -99 C329 -97 342 -95 348 -95 C373 -95 390 -110 390 -134 C390 -156 373 -171 348 -171 C316 -171 282 -159 235 -130 L212 -182 C286 -217 329 -230 374 -230 C442 -230 487 -192 487 -136 C487 -87 451 -50 402 -50 C393 -50 377 -52 362 -54 L362 -20 Z " />
<glyph glyph-name="Egrave" unicode="&#xc8;" horiz-adv-x="736" d="M678 667 L14 667 L14 573 L43 573 C87 573 93 566 92 515 L92 152 C94 101 89 95 44 94 L14 94 L14 0 L682 0 L682 275 L578 275 C573 205 567 174 550 142 C524 98 507 93 399 94 L309 94 L309 301 L334 301 C393 301 404 285 408 191 L485 191 L485 495 L408 495 C406 410 393 393 333 389 L309 389 L309 573 L388 573 C521 577 551 553 578 419 L678 419 L678 667 Z M410 723 L467 723 L322 851 C299 872 284 879 267 879 C241 879 218 856 218 830 C218 808 235 788 264 777 L410 723 Z " />
<glyph glyph-name="Eacute" unicode="&#xc9;" horiz-adv-x="736" d="M678 667 L14 667 L14 573 L43 573 C87 573 93 566 92 515 L92 152 C94 101 89 95 44 94 L14 94 L14 0 L682 0 L682 275 L578 275 C573 205 567 174 550 142 C524 98 507 93 399 94 L309 94 L309 301 L334 301 C393 301 404 285 408 191 L485 191 L485 495 L408 495 C406 410 393 393 333 389 L309 389 L309 573 L388 573 C521 577 551 553 578 419 L678 419 L678 667 Z M307 723 L453 777 C482 788 499 808 499 830 C499 857 477 879 450 879 C433 879 419 872 396 851 L250 723 L307 723 Z " />
<glyph glyph-name="Ecircumflex" unicode="&#xca;" horiz-adv-x="736" d="M678 667 L14 667 L14 573 L43 573 C87 573 93 566 92 515 L92 152 C94 101 89 95 44 94 L14 94 L14 0 L682 0 L682 275 L578 275 C573 205 567 174 550 142 C524 98 507 93 399 94 L309 94 L309 301 L334 301 C393 301 404 285 408 191 L485 191 L485 495 L408 495 C406 410 393 393 333 389 L309 389 L309 573 L388 573 C521 577 551 553 578 419 L678 419 L678 667 Z M205 723 L254 723 L368 782 L482 723 L531 723 L429 869 L306 869 L205 723 Z " />
<glyph glyph-name="Edieresis" unicode="&#xcb;" horiz-adv-x="736" d="M678 667 L14 667 L14 573 L43 573 C87 573 93 566 92 515 L92 152 C94 101 89 95 44 94 L14 94 L14 0 L682 0 L682 275 L578 275 C573 205 567 174 550 142 C524 98 507 93 399 94 L309 94 L309 301 L334 301 C393 301 404 285 408 191 L485 191 L485 495 L408 495 C406 410 393 393 333 389 L309 389 L309 573 L388 573 C521 577 551 553 578 419 L678 419 L678 667 Z M269 878 C228 878 192 842 192 803 C192 760 226 726 269 726 C310 726 345 760 345 801 C345 842 309 878 269 878 L269 878 Z M468 878 C427 878 391 842 391 803 C391 760 425 726 468 726 C510 726 544 760 544 801 C544 842 509 878 468 878 L468 878 Z " />
<glyph glyph-name="Igrave" unicode="&#xcc;" horiz-adv-x="415" d="M19 0 L396 0 L396 94 L366 94 C322 95 316 102 317 152 L317 515 C316 565 322 572 366 573 L396 573 L396 667 L19 667 L19 573 L48 573 C92 572 98 566 97 515 L97 152 C98 102 92 95 48 94 L19 94 L19 0 Z M250 723 L307 723 L161 851 C138 872 124 879 106 879 C81 879 58 856 58 830 C58 808 75 788 104 777 L250 723 Z " />
<glyph glyph-name="Iacute" unicode="&#xcd;" horiz-adv-x="415" d="M19 0 L396 0 L396 94 L366 94 C322 95 316 102 317 152 L317 515 C316 565 322 572 366 573 L396 573 L396 667 L19 667 L19 573 L48 573 C92 572 98 566 97 515 L97 152 C98 102 92 95 48 94 L19 94 L19 0 Z M159 723 L305 777 C334 788 351 808 351 830 C351 857 329 879 303 879 C285 879 271 872 248 851 L102 723 L159 723 Z " />
<glyph glyph-name="Icircumflex" unicode="&#xce;" horiz-adv-x="415" d="M19 0 L396 0 L396 94 L366 94 C322 95 316 102 317 152 L317 515 C316 565 322 572 366 573 L396 573 L396 667 L19 667 L19 573 L48 573 C92 572 98 566 97 515 L97 152 C98 102 92 95 48 94 L19 94 L19 0 Z M44 723 L93 723 L207 782 L321 723 L371 723 L269 869 L146 869 L44 723 Z " />
<glyph glyph-name="Idieresis" unicode="&#xcf;" horiz-adv-x="415" d="M19 0 L396 0 L396 94 L366 94 C322 95 316 102 317 152 L317 515 C316 565 322 572 366 573 L396 573 L396 667 L19 667 L19 573 L48 573 C92 572 98 566 97 515 L97 152 C98 102 92 95 48 94 L19 94 L19 0 Z M114 878 C73 878 37 842 37 803 C37 760 71 726 114 726 C155 726 190 760 190 801 C190 842 154 878 114 878 L114 878 Z M302 878 C261 878 225 842 225 803 C225 760 259 726 302 726 C344 726 378 760 378 801 C378 842 343 878 302 878 L302 878 Z " />
<glyph glyph-name="Eth" unicode="&#xd0;" horiz-adv-x="769" d="M18 0 L365 0 C495 0 570 20 632 72 C700 129 735 217 735 334 C735 450 700 538 632 595 C570 647 495 667 365 667 L18 667 L18 573 L47 573 C91 572 97 566 96 515 L96 391 L5 391 L5 306 L96 306 L96 152 C98 101 93 95 48 94 L18 94 L18 0 Z M314 97 L314 306 L407 306 L407 391 L314 391 L314 570 L368 570 C448 570 481 502 481 334 C481 165 448 97 368 97 L314 97 Z " />
<glyph glyph-name="Ntilde" unicode="&#xd1;" horiz-adv-x="769" d="M327 667 L14 667 L14 573 L44 573 C90 573 96 566 95 515 L95 152 C96 102 90 95 44 94 L14 94 L14 0 L293 0 L293 94 L266 94 C221 95 215 102 216 152 L216 479 L459 0 L679 0 L679 515 C678 566 684 573 729 573 L751 573 L751 667 L473 667 L473 573 L507 573 C553 572 559 566 557 515 L557 218 L327 667 Z M265 723 C273 752 287 766 309 766 C320 766 330 765 342 761 L400 746 C410 743 423 741 432 741 C461 741 485 752 505 774 C524 797 533 818 544 869 L504 869 C493 837 482 827 459 827 C452 827 444 828 436 830 L376 846 C364 849 351 851 337 851 C276 851 244 815 225 723 L265 723 Z " />
<glyph glyph-name="Ograve" unicode="&#xd2;" horiz-adv-x="797" d="M399 687 C284 687 199 658 132 594 C68 534 32 442 32 339 C32 224 64 138 132 73 C197 9 283 -20 400 -20 C515 -20 601 10 666 73 C733 137 766 224 766 333 C766 555 629 687 399 687 L399 687 Z M399 586 C437 586 467 564 484 524 C502 483 509 427 509 334 C509 240 502 188 484 144 C468 105 437 82 399 82 C361 82 331 104 314 144 C295 188 289 238 289 338 C289 429 296 482 314 524 C331 564 361 586 399 586 L399 586 Z M445 723 L502 723 L356 851 C333 872 319 879 301 879 C276 879 253 856 253 830 C253 808 270 788 299 777 L445 723 Z " />
<glyph glyph-name="Oacute" unicode="&#xd3;" horiz-adv-x="797" d="M399 687 C284 687 199 658 132 594 C68 534 32 442 32 339 C32 224 64 138 132 73 C197 9 283 -20 400 -20 C515 -20 601 10 666 73 C733 137 766 224 766 333 C766 555 629 687 399 687 L399 687 Z M399 586 C437 586 467 564 484 524 C502 483 509 427 509 334 C509 240 502 188 484 144 C468 105 437 82 399 82 C361 82 331 104 314 144 C295 188 289 238 289 338 C289 429 296 482 314 524 C331 564 361 586 399 586 L399 586 Z M342 723 L488 777 C516 788 533 808 533 830 C533 857 511 879 485 879 C467 879 453 872 430 851 L285 723 L342 723 Z " />
<glyph glyph-name="Ocircumflex" unicode="&#xd4;" horiz-adv-x="797" d="M399 687 C284 687 199 658 132 594 C68 534 32 442 32 339 C32 224 64 138 132 73 C197 9 283 -20 400 -20 C515 -20 601 10 666 73 C733 137 766 224 766 333 C766 555 629 687 399 687 L399 687 Z M399 586 C437 586 467 564 484 524 C502 483 509 427 509 334 C509 240 502 188 484 144 C468 105 437 82 399 82 C361 82 331 104 314 144 C295 188 289 238 289 338 C289 429 296 482 314 524 C331 564 361 586 399 586 L399 586 Z M239 723 L288 723 L402 782 L516 723 L566 723 L464 869 L341 869 L239 723 Z " />
<glyph glyph-name="Otilde" unicode="&#xd5;" horiz-adv-x="797" d="M399 687 C284 687 199 658 132 594 C68 534 32 442 32 339 C32 224 64 138 132 73 C197 9 283 -20 400 -20 C515 -20 601 10 666 73 C733 137 766 224 766 333 C766 555 629 687 399 687 L399 687 Z M399 586 C437 586 467 564 484 524 C502 483 509 427 509 334 C509 240 502 188 484 144 C468 105 437 82 399 82 C361 82 331 104 314 144 C295 188 289 238 289 338 C289 429 296 482 314 524 C331 564 361 586 399 586 L399 586 Z M283 723 C291 752 305 766 327 766 C338 766 348 765 360 761 L418 746 C428 743 441 741 450 741 C479 741 503 752 523 774 C542 797 551 818 562 869 L522 869 C511 837 500 827 477 827 C470 827 462 828 454 830 L394 846 C382 849 369 851 355 851 C294 851 262 815 243 723 L283 723 Z " />
<glyph glyph-name="Odieresis" unicode="&#xd6;" horiz-adv-x="797" d="M399 687 C284 687 199 658 132 594 C68 534 32 442 32 339 C32 224 64 138 132 73 C197 9 283 -20 400 -20 C515 -20 601 10 666 73 C733 137 766 224 766 333 C766 555 629 687 399 687 L399 687 Z M401 586 C436 586 467 563 484 524 C502 483 509 427 509 334 C509 240 502 188 484 144 C468 104 437 82 399 82 C361 82 331 104 314 144 C296 187 289 239 289 331 C289 430 295 480 314 524 C331 564 361 586 401 586 L401 586 Z M306 878 C266 878 229 842 229 803 C229 760 263 726 306 726 C347 726 382 760 382 801 C382 842 346 878 306 878 L306 878 Z M504 878 C463 878 427 843 427 803 C427 760 461 726 504 726 C546 726 580 760 580 801 C580 842 545 878 504 878 L504 878 Z " />
<glyph glyph-name="multiply" unicode="&#xd7;" horiz-adv-x="613" d="M81 178 L172 82 L306 223 L440 82 L531 178 L397 319 L531 460 L440 556 L306 415 L172 556 L81 460 L215 319 L81 178 Z " />
<glyph glyph-name="Oslash" unicode="&#xd8;" horiz-adv-x="797" d="M686 707 L616 633 C558 669 487 687 399 687 C283 687 197 657 132 594 C66 531 32 443 32 334 C32 238 57 160 108 98 L35 20 L92 -46 L173 39 C235 -2 304 -20 399 -20 C515 -20 600 10 666 73 C733 136 766 223 766 333 C766 434 739 512 683 577 L744 642 L686 707 Z M290 290 C289 308 289 324 289 339 C289 430 296 481 314 524 C330 563 361 586 399 586 C444 586 472 560 491 502 L290 290 Z M507 392 C508 369 509 350 509 329 C509 157 476 82 399 82 C352 82 322 111 303 176 L507 392 Z " />
<glyph glyph-name="Ugrave" unicode="&#xd9;" horiz-adv-x="736" d="M436 572 L466 572 C511 572 517 565 516 515 L516 213 C516 120 483 82 402 82 C371 82 348 91 330 108 C310 129 304 154 304 221 L304 515 C303 565 309 572 353 572 L387 572 L387 667 L5 667 L5 572 L35 572 C79 572 85 565 84 515 L84 188 C84 125 102 82 143 46 C193 1 264 -21 360 -21 C549 -21 651 55 651 196 L651 518 C650 564 657 572 701 572 L729 572 L729 667 L436 667 L436 572 Z M411 723 L468 723 L322 851 C299 872 285 879 267 879 C242 879 219 856 219 830 C219 808 236 788 265 777 L411 723 Z " />
<glyph glyph-name="Uacute" unicode="&#xda;" horiz-adv-x="736" d="M436 572 L466 572 C511 572 517 565 516 515 L516 213 C516 120 483 82 402 82 C371 82 348 91 330 108 C310 129 304 154 304 221 L304 515 C303 565 309 572 353 572 L387 572 L387 667 L5 667 L5 572 L35 572 C79 572 85 565 84 515 L84 188 C84 125 102 82 143 46 C193 1 264 -21 360 -21 C549 -21 651 55 651 196 L651 518 C650 564 657 572 701 572 L729 572 L729 667 L436 667 L436 572 Z M308 723 L454 777 C482 788 499 808 499 830 C499 857 477 879 451 879 C433 879 419 872 396 851 L250 723 L308 723 Z " />
<glyph glyph-name="Ucircumflex" unicode="&#xdb;" horiz-adv-x="736" d="M436 572 L466 572 C511 572 517 565 516 515 L516 213 C516 120 483 82 402 82 C371 82 348 91 330 108 C310 129 304 154 304 221 L304 515 C303 565 309 572 353 572 L387 572 L387 667 L5 667 L5 572 L35 572 C79 572 85 565 84 515 L84 188 C84 125 102 82 143 46 C193 1 264 -21 360 -21 C549 -21 651 55 651 196 L651 518 C650 564 657 572 701 572 L729 572 L729 667 L436 667 L436 572 Z M205 723 L254 723 L368 782 L482 723 L532 723 L430 869 L307 869 L205 723 Z " />
<glyph glyph-name="Udieresis" unicode="&#xdc;" horiz-adv-x="736" d="M436 572 L466 572 C511 572 517 565 516 515 L516 213 C516 120 483 82 402 82 C371 82 348 91 330 108 C310 129 304 154 304 221 L304 515 C303 565 309 572 353 572 L387 572 L387 667 L5 667 L5 572 L35 572 C79 572 85 565 84 515 L84 188 C84 125 102 82 143 46 C193 1 264 -21 360 -21 C549 -21 651 55 651 196 L651 518 C650 564 657 572 701 572 L729 572 L729 667 L436 667 L436 572 Z M285 878 C244 878 208 842 208 803 C208 760 242 726 285 726 C326 726 361 760 361 801 C361 842 325 878 285 878 L285 878 Z M483 878 C442 878 406 843 406 803 C406 760 440 726 483 726 C525 726 559 760 559 801 C559 842 524 878 483 878 L483 878 Z " />
<glyph glyph-name="Yacute" unicode="&#xdd;" horiz-adv-x="651" d="M-24 573 L-5 573 C32 571 53 555 81 510 L214 268 L214 152 C216 101 210 95 165 94 L132 94 L132 0 L517 0 L517 94 L484 94 C440 95 434 101 435 152 L435 268 L570 506 C594 551 618 571 652 573 L671 573 L671 667 L387 667 L387 573 L414 573 C440 573 455 566 455 555 C455 546 451 533 445 523 L366 394 L288 521 C281 533 278 542 278 549 C278 565 292 573 322 573 L345 573 L345 667 L-24 667 L-24 573 Z M283 723 L429 777 C458 788 475 808 475 830 C475 857 453 879 427 879 C409 879 395 872 372 851 L226 723 L283 723 Z " />
<glyph glyph-name="Thorn" unicode="&#xde;" horiz-adv-x="708" d="M14 0 L395 0 L395 94 L359 94 C314 94 307 102 307 145 L307 154 L429 154 C531 154 582 166 625 199 C665 231 687 281 687 340 C687 397 666 446 629 477 C587 513 533 526 429 526 L307 526 L307 532 C308 565 318 572 359 572 L395 572 L395 667 L14 667 L14 572 L46 572 C87 572 97 565 98 532 L98 145 C98 102 91 94 46 94 L14 94 L14 0 Z M308 243 L308 435 L354 435 C431 435 458 411 458 340 C458 269 429 243 350 243 L308 243 Z " />
<glyph glyph-name="germandbls" unicode="&#xdf;" horiz-adv-x="627" d="M19 88 L19 0 L278 0 L278 490 C278 548 281 567 294 585 C302 596 316 603 330 603 C360 603 378 577 378 534 C378 507 372 483 361 468 C353 457 341 452 317 449 L317 361 L324 361 L334 361 C354 360 369 353 383 338 C404 317 409 285 409 179 C409 92 406 76 391 76 C382 76 378 87 378 116 L378 174 L307 174 L307 113 C307 32 351 -13 430 -13 C535 -13 607 79 607 212 C607 276 588 328 551 362 C527 385 503 396 450 411 C488 423 513 434 528 448 C554 471 569 506 569 544 C569 636 489 687 342 687 C247 687 180 667 134 623 C94 587 83 549 83 449 L83 135 C83 96 76 88 37 88 L19 88 Z " />
<glyph glyph-name="agrave" unicode="&#xe0;" horiz-adv-x="599" d="M589 189 L523 189 L523 133 C523 109 519 103 504 103 C490 103 486 110 486 133 L486 313 C486 381 478 411 452 435 C418 467 345 486 257 486 C118 486 32 437 32 356 C32 304 66 272 122 272 C173 272 207 299 207 340 C207 374 194 390 157 404 C181 417 195 421 217 421 C267 421 301 390 301 344 C301 291 272 271 178 258 C58 241 14 202 14 113 C14 31 68 -17 161 -17 C198 -17 238 -9 268 6 C291 16 301 25 322 50 C358 -1 389 -17 452 -17 C501 -17 538 -3 562 23 C582 46 589 72 589 128 L589 189 Z M304 157 C304 114 284 87 251 87 C226 87 207 107 207 134 C207 160 213 166 269 197 C274 200 288 208 302 218 L304 157 Z M382 534 L239 686 C205 722 184 735 160 735 C128 735 103 711 103 679 C103 654 118 636 156 618 L324 534 L382 534 Z " />
<glyph glyph-name="aacute" unicode="&#xe1;" horiz-adv-x="599" d="M589 189 L523 189 L523 133 C523 109 519 103 504 103 C490 103 486 110 486 133 L486 313 C486 381 478 411 452 435 C418 467 345 486 257 486 C118 486 32 437 32 356 C32 304 66 272 122 272 C173 272 207 299 207 340 C207 374 194 390 157 404 C181 417 195 421 217 421 C267 421 301 390 301 344 C301 291 272 271 178 258 C58 241 14 202 14 113 C14 31 68 -17 161 -17 C198 -17 238 -9 268 6 C291 16 301 25 322 50 C358 -1 389 -17 452 -17 C501 -17 538 -3 562 23 C582 46 589 72 589 128 L589 189 Z M304 157 C304 114 284 87 251 87 C226 87 207 107 207 134 C207 160 213 166 269 197 C274 200 288 208 302 218 L304 157 Z M186 534 L244 534 L412 617 C449 636 465 654 465 679 C465 711 441 735 409 735 C383 735 363 723 329 686 L186 534 Z " />
<glyph glyph-name="acircumflex" unicode="&#xe2;" horiz-adv-x="599" d="M589 189 L523 189 L523 133 C523 109 519 103 504 103 C490 103 486 110 486 133 L486 313 C486 381 478 411 452 435 C418 467 345 486 257 486 C118 486 32 437 32 356 C32 304 66 272 122 272 C173 272 207 299 207 340 C207 374 194 390 157 404 C181 417 195 421 217 421 C267 421 301 390 301 344 C301 291 272 271 178 258 C58 241 14 202 14 113 C14 31 68 -17 161 -17 C198 -17 238 -9 268 6 C291 16 301 25 322 50 C358 -1 389 -17 452 -17 C501 -17 538 -3 562 23 C582 46 589 72 589 128 L589 189 Z M304 157 C304 114 284 87 251 87 C226 87 207 107 207 134 C207 160 213 166 269 197 C274 200 288 208 302 218 L304 157 Z M112 534 L164 534 L277 622 L391 534 L442 534 L325 724 L230 724 L112 534 Z " />
<glyph glyph-name="atilde" unicode="&#xe3;" horiz-adv-x="599" d="M589 189 L523 189 L523 133 C523 109 519 103 504 103 C490 103 486 110 486 133 L486 313 C486 381 478 411 452 435 C418 467 345 486 257 486 C118 486 32 437 32 356 C32 304 66 272 122 272 C173 272 207 299 207 340 C207 374 194 390 157 404 C181 417 195 421 217 421 C267 421 301 390 301 344 C301 291 272 271 178 258 C58 241 14 202 14 113 C14 31 68 -17 161 -17 C198 -17 238 -9 268 6 C291 16 301 25 322 50 C358 -1 389 -17 452 -17 C501 -17 538 -3 562 23 C582 46 589 72 589 128 L589 189 Z M304 157 C304 114 284 87 251 87 C226 87 207 107 207 134 C207 160 213 166 269 197 C274 200 288 208 302 218 L304 157 Z M149 549 C158 582 172 597 196 597 C207 597 217 596 229 592 L290 576 C301 573 313 571 324 571 C354 571 381 583 400 605 C419 629 429 651 442 708 L400 708 C387 672 376 661 352 661 C345 661 336 662 328 664 L266 681 C252 684 238 686 225 686 C161 686 129 649 106 549 L149 549 Z " />
<glyph glyph-name="adieresis" unicode="&#xe4;" horiz-adv-x="599" d="M589 189 L523 189 L523 133 C523 109 519 103 504 103 C490 103 486 110 486 133 L486 313 C486 381 478 411 452 435 C418 467 345 486 257 486 C118 486 32 437 32 356 C32 304 66 272 122 272 C173 272 207 299 207 340 C207 374 194 390 157 404 C181 417 195 421 217 421 C267 421 301 390 301 344 C301 291 272 271 178 258 C58 241 14 202 14 113 C14 31 68 -17 161 -17 C198 -17 238 -9 268 6 C291 16 301 25 322 50 C358 -1 389 -17 452 -17 C501 -17 538 -3 562 23 C582 46 589 72 589 128 L589 189 Z M304 157 C304 114 284 87 251 87 C226 87 207 107 207 134 C207 160 213 166 269 197 C274 200 288 208 302 218 L304 157 Z M179 715 C137 715 100 679 100 638 C100 594 135 559 180 559 C223 559 256 593 256 636 C256 680 222 715 179 715 L179 715 Z M381 715 C339 715 302 679 302 638 C302 594 337 559 382 559 C425 559 458 593 458 636 C458 680 424 715 381 715 L381 715 Z " />
<glyph glyph-name="aring" unicode="&#xe5;" horiz-adv-x="599" d="M589 189 L523 189 L523 133 C523 109 519 103 504 103 C490 103 486 110 486 133 L486 313 C486 381 478 411 452 435 C418 467 345 486 257 486 C118 486 32 437 32 356 C32 304 66 272 122 272 C173 272 207 299 207 340 C207 374 194 390 157 404 C181 417 195 421 217 421 C267 421 301 390 301 344 C301 291 272 271 178 258 C58 241 14 202 14 113 C14 31 68 -17 161 -17 C198 -17 238 -9 268 6 C291 16 301 25 322 50 C358 -1 389 -17 452 -17 C501 -17 538 -3 562 23 C582 46 589 72 589 128 L589 189 Z M304 157 C304 114 284 87 251 87 C226 87 207 107 207 134 C207 160 213 166 269 197 C274 200 288 208 302 218 L304 157 Z M274 793 C200 793 137 732 137 659 C137 581 197 520 274 520 C349 520 410 582 410 657 C410 731 348 793 274 793 L274 793 Z M273 715 C305 715 332 688 332 656 C332 624 306 598 274 598 C241 598 215 624 215 657 C215 688 242 715 273 715 L273 715 Z " />
<glyph glyph-name="ae" unicode="&#xe6;" horiz-adv-x="802" d="M656 163 C642 101 615 74 568 74 C538 74 511 89 497 113 C485 135 481 156 480 207 L766 207 C765 299 757 340 730 386 C692 452 630 486 545 486 C492 486 464 477 406 442 C341 476 306 486 248 486 C120 486 33 433 33 356 C33 304 67 272 124 272 C175 272 208 299 208 342 C208 374 194 391 158 404 C182 416 193 419 218 419 C270 419 302 390 302 342 C302 290 271 269 179 257 C59 241 14 202 14 113 C14 30 71 -17 173 -17 C215 -17 257 -8 288 6 C315 19 331 33 361 69 C418 5 467 -18 549 -18 C614 -18 674 3 711 39 C739 66 754 99 768 163 L656 163 Z M480 294 C482 335 485 351 493 366 C503 385 525 398 547 398 C568 398 587 386 598 368 C608 350 611 333 611 294 L480 294 Z M305 156 C306 114 285 87 252 87 C226 87 207 107 207 134 C207 159 214 165 270 197 C274 199 289 208 304 218 L305 156 Z " />
<glyph glyph-name="ccedilla" unicode="&#xe7;" horiz-adv-x="500" d="M261 -19 L271 -19 C321 -19 368 -6 406 18 C449 46 468 84 475 163 L361 163 C357 103 338 74 300 74 C278 74 257 88 248 109 C237 134 232 170 232 234 C232 299 236 335 248 360 C258 383 281 397 308 397 C329 397 339 391 349 373 C310 368 291 345 291 304 C291 256 324 226 376 226 C438 226 475 264 475 327 C475 423 394 487 275 487 C118 487 19 390 19 235 C19 156 45 89 93 44 C127 12 157 -2 217 -14 L217 -98 C228 -96 240 -94 246 -94 C272 -94 288 -109 288 -133 C288 -156 272 -171 247 -171 C214 -171 181 -159 134 -130 L111 -182 C185 -217 228 -230 273 -230 C340 -230 384 -192 384 -135 C384 -86 349 -49 301 -49 C291 -49 276 -51 261 -53 L261 -19 Z " />
<glyph glyph-name="egrave" unicode="&#xe8;" horiz-adv-x="538" d="M392 163 C379 102 350 74 301 74 C271 74 243 89 228 113 C216 135 212 156 211 207 L506 207 C505 299 497 340 469 386 C430 452 361 487 271 487 C118 487 19 388 19 235 C19 78 116 -18 273 -18 C347 -18 411 3 449 39 C478 66 493 99 508 163 L392 163 Z M211 294 C213 334 216 350 225 366 C235 385 258 398 280 398 C302 398 322 386 333 368 C343 350 346 333 347 294 L211 294 Z M352 534 L209 686 C175 722 154 735 129 735 C97 735 72 711 72 679 C72 654 87 637 125 618 L293 534 L352 534 Z " />
<glyph glyph-name="eacute" unicode="&#xe9;" horiz-adv-x="538" d="M392 163 C379 102 350 74 301 74 C271 74 243 89 228 113 C216 135 212 156 211 207 L506 207 C505 299 497 340 469 386 C430 452 361 487 271 487 C118 487 19 388 19 235 C19 78 116 -18 273 -18 C347 -18 411 3 449 39 C478 66 493 99 508 163 L392 163 Z M211 294 C213 334 216 350 225 366 C235 385 258 398 280 398 C302 398 322 386 333 368 C343 350 346 333 347 294 L211 294 Z M162 534 L220 534 L388 617 C425 636 441 654 441 679 C441 711 417 735 385 735 C359 735 339 723 305 686 L162 534 Z " />
<glyph glyph-name="ecircumflex" unicode="&#xea;" horiz-adv-x="538" d="M392 163 C379 102 350 74 301 74 C271 74 243 89 228 113 C216 135 212 156 211 207 L506 207 C505 299 497 340 469 386 C430 452 361 487 271 487 C118 487 19 388 19 235 C19 78 116 -18 273 -18 C347 -18 411 3 449 39 C478 66 493 99 508 163 L392 163 Z M211 294 C213 334 216 350 225 366 C235 385 258 398 280 398 C302 398 322 386 333 368 C343 350 346 333 347 294 L211 294 Z M104 534 L156 534 L269 622 L383 534 L434 534 L317 724 L222 724 L104 534 Z " />
<glyph glyph-name="edieresis" unicode="&#xeb;" horiz-adv-x="538" d="M392 163 C379 102 350 74 301 74 C271 74 243 89 228 113 C216 135 212 156 211 207 L506 207 C505 299 497 340 469 386 C430 452 361 487 271 487 C118 487 19 388 19 235 C19 78 116 -18 273 -18 C347 -18 411 3 449 39 C478 66 493 99 508 163 L392 163 Z M211 294 C213 334 216 350 225 366 C235 385 258 398 280 398 C302 398 322 386 333 368 C343 350 346 333 347 294 L211 294 Z M169 715 C127 715 90 679 90 638 C90 594 125 559 170 559 C213 559 246 593 246 636 C246 680 212 715 169 715 L169 715 Z M371 715 C329 715 292 679 292 638 C292 594 327 559 372 559 C415 559 448 593 448 636 C448 680 414 715 371 715 L371 715 Z " />
<glyph glyph-name="igrave" unicode="&#xec;" horiz-adv-x="345" d="M20 0 L329 0 L329 87 L314 87 C279 88 274 95 273 134 L273 469 L20 469 L20 382 L39 382 C76 381 82 374 83 335 L83 134 C82 95 76 88 39 87 L20 87 L20 0 Z M259 534 L146 684 C117 722 99 735 75 735 C42 735 19 714 19 685 C19 660 35 639 69 618 L206 534 L259 534 Z " />
<glyph glyph-name="iacute" unicode="&#xed;" horiz-adv-x="344" d="M19 0 L328 0 L328 87 L313 87 C278 88 273 95 272 134 L272 469 L19 469 L19 382 L38 382 C75 381 81 374 82 335 L82 134 C81 95 75 88 38 87 L19 87 L19 0 Z M69 534 L122 534 L258 618 C293 640 309 660 309 685 C309 714 286 735 253 735 C229 735 211 722 182 684 L69 534 Z " />
<glyph glyph-name="icircumflex" unicode="&#xee;" horiz-adv-x="352" d="M27 0 L336 0 L336 87 L321 87 C286 88 281 95 280 134 L280 469 L27 469 L27 382 L46 382 C83 381 89 374 90 335 L90 134 C89 95 83 88 46 87 L27 87 L27 0 Z M13 534 L64 534 L167 622 L271 534 L322 534 L214 724 L121 724 L13 534 Z " />
<glyph glyph-name="idieresis" unicode="&#xef;" horiz-adv-x="352" d="M332 87 L317 87 C282 88 277 95 276 134 L276 469 L23 469 L23 382 L42 382 C79 381 85 374 86 335 L86 134 C85 95 79 88 42 87 L23 87 L23 0 L332 0 L332 87 Z M72 715 C30 715 -7 679 -7 638 C-7 594 28 559 73 559 C116 559 149 593 149 636 C149 680 115 715 72 715 L72 715 Z M263 715 C221 715 184 679 184 638 C184 594 219 559 264 559 C307 559 340 593 340 636 C340 680 306 715 263 715 L263 715 Z " />
<glyph glyph-name="eth" unicode="&#xf0;" horiz-adv-x="580" d="M170 667 C188 641 196 628 211 603 L138 573 L165 506 L247 540 C266 509 269 504 281 481 C272 483 268 483 261 483 C201 483 136 458 92 419 C44 376 20 315 20 234 C20 154 44 93 92 50 C140 6 209 -17 290 -17 C457 -17 560 79 560 235 C560 308 539 371 495 431 C467 469 465 471 380 565 L361 586 L425 613 L396 680 L308 643 L285 667 L170 667 Z M290 394 C334 394 349 354 349 232 C349 115 334 75 290 75 C246 75 231 115 231 234 C231 354 246 394 290 394 L290 394 Z " />
<glyph glyph-name="ntilde" unicode="&#xf1;" horiz-adv-x="651" d="M641 87 L624 87 C589 88 584 95 583 134 L583 308 C583 384 575 415 549 441 C523 467 479 482 429 482 C395 482 361 475 332 461 C305 449 288 434 258 396 L258 469 L9 469 L9 382 L30 382 C65 381 70 374 71 335 L71 134 C70 95 65 88 30 87 L9 87 L9 0 L313 0 L313 87 C272 87 267 93 266 134 L266 288 C266 347 291 383 331 383 C370 383 388 357 388 303 L388 134 C388 92 383 87 343 87 L343 0 L641 0 L641 87 Z M200 549 C209 582 223 597 247 597 C258 597 268 596 280 592 L341 576 C352 573 364 571 375 571 C405 571 432 583 451 605 C470 629 480 651 493 708 L451 708 C438 672 427 661 403 661 C396 661 387 662 379 664 L317 681 C303 684 289 686 276 686 C212 686 179 649 157 549 L200 549 Z " />
<glyph glyph-name="ograve" unicode="&#xf2;" horiz-adv-x="580" d="M293 486 C121 486 20 393 20 234 C20 78 122 -17 290 -17 C457 -17 560 79 560 234 C560 388 457 486 293 486 L293 486 Z M290 394 C334 394 349 354 349 232 C349 115 334 75 290 75 C246 75 231 115 231 234 C231 354 246 394 290 394 L290 394 Z M373 534 L230 686 C196 722 175 735 150 735 C118 735 93 711 93 679 C93 654 108 637 146 618 L315 534 L373 534 Z " />
<glyph glyph-name="oacute" unicode="&#xf3;" horiz-adv-x="580" d="M293 486 C121 486 20 393 20 234 C20 78 122 -17 290 -17 C457 -17 560 79 560 234 C560 388 457 486 293 486 L293 486 Z M290 394 C334 394 349 354 349 232 C349 115 334 75 290 75 C246 75 231 115 231 234 C231 354 246 394 290 394 L290 394 Z M183 534 L241 534 L409 617 C446 636 462 654 462 679 C462 711 438 735 406 735 C380 735 360 723 326 686 L183 534 Z " />
<glyph glyph-name="ocircumflex" unicode="&#xf4;" horiz-adv-x="580" d="M293 486 C121 486 20 393 20 234 C20 78 122 -17 290 -17 C457 -17 560 79 560 234 C560 388 457 486 293 486 L293 486 Z M290 394 C334 394 349 354 349 232 C349 115 334 75 290 75 C246 75 231 115 231 234 C231 354 246 394 290 394 L290 394 Z M125 534 L177 534 L290 622 L404 534 L455 534 L338 724 L243 724 L125 534 Z " />
<glyph glyph-name="otilde" unicode="&#xf5;" horiz-adv-x="580" d="M293 486 C121 486 20 393 20 234 C20 78 122 -17 290 -17 C457 -17 560 79 560 234 C560 388 457 486 293 486 L293 486 Z M290 394 C334 394 349 354 349 232 C349 115 334 75 290 75 C246 75 231 115 231 234 C231 354 246 394 290 394 L290 394 Z M165 549 C174 582 188 597 212 597 C223 597 233 596 246 592 L306 576 C317 573 329 571 340 571 C370 571 397 583 416 605 C435 629 445 651 458 708 L416 708 C403 672 392 661 368 661 C361 661 352 662 344 664 L282 681 C268 684 255 686 241 686 C177 686 145 649 122 549 L165 549 Z " />
<glyph glyph-name="odieresis" unicode="&#xf6;" horiz-adv-x="580" d="M292 486 C120 486 19 393 19 234 C19 78 121 -17 289 -17 C456 -17 559 79 559 234 C559 388 456 486 292 486 L292 486 Z M289 394 C333 394 348 354 348 232 C348 115 333 75 289 75 C245 75 230 115 230 234 C230 354 245 394 289 394 L289 394 Z M191 715 C149 715 112 679 112 638 C112 594 147 559 192 559 C235 559 268 593 268 636 C268 680 234 715 191 715 L191 715 Z M393 715 C351 715 314 679 314 638 C314 594 349 559 394 559 C437 559 470 593 470 636 C470 680 436 715 393 715 L393 715 Z " />
<glyph glyph-name="divide" unicode="&#xf7;" horiz-adv-x="549" d="M273 126 C239 126 211 99 211 64 C211 30 238 2 273 2 C306 2 334 30 334 64 C334 98 306 126 273 126 L273 126 Z M273 525 C239 525 211 498 211 463 C211 429 238 401 273 401 C306 401 334 429 334 463 C334 497 306 525 273 525 L273 525 Z M10 294 L10 239 L536 239 L536 294 L10 294 Z " />
<glyph glyph-name="oslash" unicode="&#xf8;" horiz-adv-x="580" d="M489 517 L433 456 C391 476 344 486 289 486 C209 486 140 463 92 419 C44 376 20 315 20 235 C20 163 37 111 76 66 L20 6 L74 -50 L137 18 C181 -5 232 -17 291 -17 C457 -17 561 80 561 234 C561 308 540 366 497 410 L545 463 L489 517 Z M228 233 C228 359 244 402 290 402 C317 402 333 388 342 357 L228 233 Z M352 253 C353 244 353 234 353 232 C353 108 337 67 291 67 C260 67 246 82 236 126 L352 253 Z " />
<glyph glyph-name="ugrave" unicode="&#xf9;" horiz-adv-x="651" d="M394 0 L635 0 L635 87 L617 87 C584 88 579 95 578 134 L578 469 L317 469 L317 381 L336 381 C376 380 382 374 383 335 L383 181 C383 122 359 86 321 86 C284 86 267 112 267 166 L267 469 L9 469 L9 381 L25 381 C65 380 71 374 72 335 L72 156 C72 80 80 50 106 24 C132 -2 175 -17 224 -17 C297 -17 342 5 394 69 L394 0 Z M408 534 L265 686 C231 722 210 735 185 735 C153 735 128 711 128 679 C128 654 143 637 181 618 L350 534 L408 534 Z " />
<glyph glyph-name="uacute" unicode="&#xfa;" horiz-adv-x="651" d="M394 0 L635 0 L635 87 L617 87 C584 88 579 95 578 134 L578 469 L317 469 L317 381 L336 381 C376 380 382 374 383 335 L383 181 C383 122 359 86 321 86 C284 86 267 112 267 166 L267 469 L9 469 L9 381 L25 381 C65 380 71 374 72 335 L72 156 C72 80 80 50 106 24 C132 -2 175 -17 224 -17 C297 -17 342 5 394 69 L394 0 Z M218 534 L276 534 L444 617 C481 636 497 654 497 679 C497 711 473 735 441 735 C415 735 395 723 361 686 L218 534 Z " />
<glyph glyph-name="ucircumflex" unicode="&#xfb;" horiz-adv-x="651" d="M394 0 L635 0 L635 87 L617 87 C584 88 579 95 578 134 L578 469 L317 469 L317 381 L336 381 C376 380 382 374 383 335 L383 181 C383 122 359 86 321 86 C284 86 267 112 267 166 L267 469 L9 469 L9 381 L25 381 C65 380 71 374 72 335 L72 156 C72 80 80 50 106 24 C132 -2 175 -17 224 -17 C297 -17 342 5 394 69 L394 0 Z M150 534 L202 534 L315 622 L429 534 L481 534 L363 724 L268 724 L150 534 Z " />
<glyph glyph-name="udieresis" unicode="&#xfc;" horiz-adv-x="651" d="M394 0 L635 0 L635 87 L617 87 C584 88 579 95 578 134 L578 469 L317 469 L317 381 L336 381 C376 380 382 374 383 335 L383 181 C383 122 359 86 321 86 C284 86 267 112 267 166 L267 469 L9 469 L9 381 L25 381 C65 380 71 374 72 335 L72 156 C72 80 80 50 106 24 C132 -2 175 -17 224 -17 C297 -17 342 5 394 69 L394 0 Z M229 715 C187 715 150 679 150 638 C150 594 185 559 230 559 C273 559 306 593 306 636 C306 680 272 715 229 715 L229 715 Z M430 715 C388 715 351 679 351 638 C351 594 386 559 431 559 C474 559 507 593 507 636 C507 680 473 715 430 715 L430 715 Z " />
<glyph glyph-name="yacute" unicode="&#xfd;" horiz-adv-x="547" d="M315 382 C361 380 375 375 375 359 C375 355 373 347 370 337 L309 174 L252 338 C245 359 245 359 245 363 C245 377 251 380 285 382 L285 469 L-2 469 L-2 382 L15 382 C45 380 51 373 79 306 L225 -51 C193 -117 163 -147 125 -147 C112 -147 104 -143 91 -130 C133 -119 150 -98 150 -61 C150 -18 118 12 71 12 C17 12 -20 -27 -20 -84 C-20 -162 39 -214 129 -214 C219 -214 278 -163 328 -40 L478 329 C492 369 509 381 554 382 L554 469 L315 469 L315 382 Z M166 534 L224 534 L392 617 C429 636 445 654 445 679 C445 711 421 735 389 735 C364 735 344 723 309 686 L166 534 Z " />
<glyph glyph-name="thorn" unicode="&#xfe;" horiz-adv-x="612" d="M271 667 L16 667 L16 580 L36 580 C70 579 75 572 76 533 L76 -80 C75 -120 70 -126 37 -127 L18 -127 L18 -214 L329 -214 L329 -127 L323 -127 C280 -127 271 -119 271 -80 L271 53 C315 3 353 -17 408 -17 C521 -17 591 81 591 237 C591 398 526 485 406 485 C351 485 316 468 271 419 L271 667 Z M327 385 C363 385 381 336 381 235 C381 135 363 87 327 87 C289 87 271 133 271 232 C271 335 289 385 327 385 L327 385 Z " />
<glyph glyph-name="ydieresis" unicode="&#xff;" horiz-adv-x="547" d="M315 382 C361 380 375 375 375 359 C375 355 373 347 370 337 L309 174 L252 338 C245 359 245 359 245 363 C245 377 251 380 285 382 L285 469 L-2 469 L-2 382 L15 382 C45 380 51 373 79 306 L225 -51 C193 -117 163 -147 125 -147 C112 -147 104 -143 91 -130 C133 -119 150 -98 150 -61 C150 -18 118 12 71 12 C17 12 -20 -27 -20 -84 C-20 -162 39 -214 129 -214 C219 -214 278 -163 328 -40 L478 329 C492 369 509 381 554 382 L554 469 L315 469 L315 382 Z M177 715 C135 715 98 679 98 638 C98 594 133 559 178 559 C221 559 254 593 254 636 C254 680 220 715 177 715 L177 715 Z M378 715 C336 715 299 679 299 638 C299 594 334 559 379 559 C422 559 455 593 455 636 C455 680 421 715 378 715 L378 715 Z " />
<glyph glyph-name="Amacron" unicode="&#x100;" horiz-adv-x="665" d="M325 0 L709 0 L709 94 L676 94 C632 97 628 100 608 165 L459 667 L231 667 L65 163 C47 112 33 97 -4 94 L-28 94 L-28 0 L256 0 L256 94 L224 94 C194 94 180 100 180 114 C180 122 182 132 188 151 L208 214 L379 214 L401 143 C403 136 405 124 405 115 C405 96 401 94 354 94 L325 94 L325 0 Z M348 310 L238 310 L292 512 L348 310 Z M188 754 L495 754 L495 838 L188 838 L188 754 Z " />
<glyph glyph-name="amacron" unicode="&#x101;" horiz-adv-x="599" d="M589 189 L523 189 L523 133 C523 109 519 103 504 103 C490 103 486 110 486 133 L486 313 C486 381 478 411 452 435 C418 467 345 486 257 486 C118 486 32 437 32 356 C32 304 66 272 122 272 C173 272 207 299 207 340 C207 374 194 390 157 404 C181 417 195 421 217 421 C267 421 301 390 301 344 C301 291 272 271 178 258 C58 241 14 202 14 113 C14 31 68 -17 161 -17 C198 -17 238 -9 268 6 C291 16 301 25 322 50 C358 -1 389 -17 452 -17 C501 -17 538 -3 562 23 C582 46 589 72 589 128 L589 189 Z M304 157 C304 114 284 87 251 87 C226 87 207 107 207 134 C207 160 213 166 269 197 C274 200 288 208 302 218 L304 157 Z M118 585 L434 585 L434 672 L118 672 L118 585 Z " />
<glyph glyph-name="Abreve" unicode="&#x102;" horiz-adv-x="665" d="M325 0 L709 0 L709 94 L676 94 C632 97 628 100 608 165 L459 667 L231 667 L65 163 C47 112 33 97 -4 94 L-28 94 L-28 0 L256 0 L256 94 L224 94 C194 94 180 100 180 114 C180 122 182 132 188 151 L208 214 L379 214 L401 143 C403 136 405 124 405 115 C405 96 401 94 354 94 L325 94 L325 0 Z M348 310 L238 310 L292 512 L348 310 Z M175 869 C187 816 198 793 221 769 C250 740 293 723 341 723 C389 723 433 740 463 769 C486 793 497 816 508 869 L460 869 C450 846 442 836 424 828 C403 819 375 814 342 814 C271 814 241 828 223 869 L175 869 Z " />
<glyph glyph-name="abreve" unicode="&#x103;" horiz-adv-x="599" d="M589 189 L523 189 L523 133 C523 109 519 103 504 103 C490 103 486 110 486 133 L486 313 C486 381 478 411 452 435 C418 467 345 486 257 486 C118 486 32 437 32 356 C32 304 66 272 122 272 C173 272 207 299 207 340 C207 374 194 390 157 404 C181 417 195 421 217 421 C267 421 301 390 301 344 C301 291 272 271 178 258 C58 241 14 202 14 113 C14 31 68 -17 161 -17 C198 -17 238 -9 268 6 C291 16 301 25 322 50 C358 -1 389 -17 452 -17 C501 -17 538 -3 562 23 C582 46 589 72 589 128 L589 189 Z M304 157 C304 114 284 87 251 87 C226 87 207 107 207 134 C207 160 213 166 269 197 C274 200 288 208 302 218 L304 157 Z M106 708 C118 649 129 623 153 598 C182 567 226 550 273 550 C321 550 365 568 395 598 C418 622 430 649 441 708 L393 708 C383 680 374 668 356 660 C336 650 307 645 274 645 C240 645 210 650 191 660 C174 668 164 680 154 708 L106 708 Z " />
<glyph glyph-name="Aogonek" unicode="&#x104;" horiz-adv-x="665" d="M709 0 L709 94 L676 94 C632 97 628 100 608 165 L459 667 L231 667 L65 163 C47 112 33 97 -4 94 L-28 94 L-28 0 L256 0 L256 94 L224 94 C193 94 180 100 180 115 C180 122 182 132 188 151 L208 214 L379 214 L401 143 C403 135 405 124 405 114 C405 96 400 94 354 94 L325 94 L325 0 L654 0 C573 -54 533 -108 533 -163 C533 -212 565 -242 618 -242 C669 -242 705 -213 734 -150 L717 -140 C697 -168 687 -175 666 -175 C640 -175 626 -156 626 -122 C626 -79 643 -46 689 0 L709 0 Z M348 310 L238 310 L292 512 L348 310 Z " />
<glyph glyph-name="aogonek" unicode="&#x105;" horiz-adv-x="599" d="M589 189 L523 189 L523 133 C523 109 519 103 504 103 C490 103 486 110 486 133 L486 313 C486 381 478 411 452 435 C418 467 345 486 257 486 C117 486 32 437 32 356 C32 304 66 272 122 272 C173 272 207 300 207 340 C207 374 194 390 157 404 C181 417 195 421 217 421 C267 421 301 390 301 344 C301 291 272 271 178 258 C59 241 14 202 14 113 C14 31 68 -17 161 -17 C198 -17 238 -9 268 6 C290 16 301 25 322 50 C354 2 386 -15 447 -17 L454 -17 L457 -17 C403 -66 381 -103 381 -147 C381 -197 413 -227 465 -227 C515 -227 552 -198 580 -135 L563 -124 C543 -153 534 -160 513 -160 C486 -160 472 -141 472 -106 C472 -67 485 -42 521 -12 C581 37 588 51 589 128 L589 189 Z M304 157 C304 114 284 87 251 87 C226 87 207 107 207 134 C207 160 213 166 269 197 C274 200 288 208 302 218 L304 157 Z " />
<glyph glyph-name="Cacute" unicode="&#x106;" horiz-adv-x="698" d="M563 258 C557 194 548 166 525 134 C499 99 460 79 420 79 C375 79 339 102 320 143 C300 186 293 239 293 334 C293 512 329 586 415 586 C455 586 490 565 511 528 C527 498 535 474 549 402 L663 402 L663 676 L559 676 L544 640 C475 677 437 687 365 687 C158 687 28 548 28 327 C28 108 153 -20 368 -20 C475 -20 560 15 611 81 C645 124 658 166 666 258 L563 258 Z M301 723 L447 777 C475 788 492 808 492 830 C492 857 470 879 444 879 C427 879 413 872 389 851 L244 723 L301 723 Z " />
<glyph glyph-name="cacute" unicode="&#x107;" horiz-adv-x="500" d="M360 163 C357 103 337 74 299 74 C278 74 257 88 248 109 C237 134 232 170 232 234 C232 299 236 335 248 360 C258 383 281 397 307 397 C328 397 338 391 349 373 C309 368 290 345 290 304 C290 256 323 226 375 226 C439 226 476 264 476 327 C476 423 395 487 276 487 C118 487 19 390 19 235 C19 80 117 -19 269 -19 C321 -19 367 -7 405 18 C449 46 468 84 475 163 L360 163 Z M176 534 L234 534 L402 617 C439 636 455 654 455 679 C455 711 431 735 399 735 C373 735 353 723 319 686 L176 534 Z " />
<glyph glyph-name="Ccaron" unicode="&#x10c;" horiz-adv-x="698" d="M563 258 C557 194 548 166 525 134 C499 99 460 79 420 79 C375 79 339 102 320 143 C300 186 293 239 293 334 C293 512 329 586 415 586 C455 586 490 565 511 528 C527 498 535 474 549 402 L663 402 L663 676 L559 676 L544 640 C475 677 437 687 365 687 C158 687 28 548 28 327 C28 108 153 -20 368 -20 C475 -20 560 15 611 81 C645 124 658 166 666 258 L563 258 Z M185 869 L287 723 L410 723 L512 869 L463 869 L349 810 L235 869 L185 869 Z " />
<glyph glyph-name="ccaron" unicode="&#x10d;" horiz-adv-x="500" d="M360 163 C357 103 337 74 299 74 C278 74 257 88 248 109 C237 134 232 170 232 234 C232 299 236 335 248 360 C258 383 281 397 307 397 C328 397 338 391 349 373 C309 368 290 345 290 304 C290 256 323 226 375 226 C439 226 476 264 476 327 C476 423 395 487 276 487 C118 487 19 390 19 235 C19 80 117 -19 269 -19 C321 -19 367 -7 405 18 C449 46 468 84 475 163 L360 163 Z M85 724 L203 534 L298 534 L415 724 L364 724 L250 636 L137 724 L85 724 Z " />
<glyph glyph-name="Dcaron" unicode="&#x10e;" horiz-adv-x="764" d="M14 0 L362 0 C492 0 567 20 629 72 C697 129 732 217 732 334 C732 450 697 538 629 595 C567 647 492 667 362 667 L14 667 L14 573 L42 573 C85 572 91 566 90 515 L90 152 C92 101 87 95 43 94 L14 94 L14 0 Z M312 97 L312 570 L362 570 C442 570 475 502 475 334 C475 165 442 97 362 97 L312 97 Z M112 869 L214 723 L336 723 L438 869 L389 869 L275 810 L161 869 L112 869 Z " />
<glyph glyph-name="dcaron" unicode="&#x10f;" horiz-adv-x="608" d="M266 580 L282 580 C329 580 338 572 338 533 L338 416 C295 467 257 486 202 486 C89 486 19 388 19 232 C19 71 85 -16 208 -16 C268 -16 299 1 356 65 L356 0 L593 0 L593 87 L572 87 C539 88 534 95 533 134 L533 667 L266 667 L266 580 Z M282 382 C322 382 338 337 338 228 C338 135 319 84 284 84 C247 84 229 133 229 234 C229 334 246 382 282 382 L282 382 Z M609 447 C655 454 678 464 705 486 C738 514 757 553 757 592 C757 646 722 684 672 684 C630 684 598 653 598 611 C598 576 624 547 655 547 C661 547 668 548 677 549 C663 517 652 509 609 500 L609 447 Z " />
<glyph glyph-name="Dcroat" unicode="&#x110;" horiz-adv-x="769" d="M18 0 L365 0 C495 0 570 20 632 72 C700 129 735 217 735 334 C735 450 700 538 632 595 C570 647 495 667 365 667 L18 667 L18 573 L47 573 C91 572 97 566 96 515 L96 391 L5 391 L5 306 L96 306 L96 152 C98 101 93 95 48 94 L18 94 L18 0 Z M314 97 L314 306 L407 306 L407 391 L314 391 L314 570 L368 570 C448 570 481 502 481 334 C481 165 448 97 368 97 L314 97 Z " />
<glyph glyph-name="dcroat" unicode="&#x111;" horiz-adv-x="608" d="M533 572 L533 667 L266 667 L266 580 L282 580 C306 580 318 578 326 572 L208 572 L208 495 L338 495 L338 416 C295 467 258 486 202 486 C89 486 19 389 19 232 C19 70 85 -16 209 -16 C268 -16 300 1 356 65 L356 0 L593 0 L593 87 L572 87 C539 88 534 95 533 134 L533 495 L598 495 L598 572 L533 572 Z M282 382 C322 382 338 337 338 228 C338 135 319 84 283 84 C247 84 229 133 229 234 C229 334 246 382 282 382 L282 382 Z " />
<glyph glyph-name="Emacron" unicode="&#x112;" horiz-adv-x="736" d="M678 667 L14 667 L14 573 L43 573 C87 573 93 566 92 515 L92 152 C94 101 89 95 44 94 L14 94 L14 0 L682 0 L682 275 L578 275 C573 205 567 174 550 142 C524 98 507 93 399 94 L309 94 L309 301 L334 301 C393 301 404 285 408 191 L485 191 L485 495 L408 495 C406 410 393 393 333 389 L309 389 L309 573 L388 573 C521 577 551 553 578 419 L678 419 L678 667 Z M214 754 L521 754 L521 838 L214 838 L214 754 Z " />
<glyph glyph-name="emacron" unicode="&#x113;" horiz-adv-x="538" d="M392 163 C379 102 350 74 301 74 C271 74 243 89 228 113 C216 135 212 156 211 207 L506 207 C505 299 497 340 469 386 C430 452 361 487 271 487 C118 487 19 388 19 235 C19 78 116 -18 273 -18 C347 -18 411 3 449 39 C478 66 493 99 508 163 L392 163 Z M211 294 C213 334 216 350 225 366 C235 385 258 398 280 398 C302 398 322 386 333 368 C343 350 346 333 347 294 L211 294 Z M111 585 L427 585 L427 672 L111 672 L111 585 Z " />
<glyph glyph-name="Edotaccent" unicode="&#x116;" horiz-adv-x="736" d="M678 667 L14 667 L14 573 L43 573 C87 573 93 566 92 515 L92 152 C94 101 89 95 44 94 L14 94 L14 0 L682 0 L682 275 L578 275 C573 205 567 174 550 142 C524 98 507 93 399 94 L309 94 L309 301 L334 301 C393 301 404 285 408 191 L485 191 L485 495 L408 495 C406 410 393 393 333 389 L309 389 L309 573 L388 573 C521 577 551 553 578 419 L678 419 L678 667 Z M351 866 C312 866 276 831 276 793 C276 751 310 717 351 717 C391 717 425 751 425 791 C425 831 390 866 351 866 L351 866 Z " />
<glyph glyph-name="edotaccent" unicode="&#x117;" horiz-adv-x="538" d="M392 163 C379 102 350 74 301 74 C271 74 243 89 228 113 C216 135 212 156 211 207 L506 207 C505 299 497 340 469 386 C430 452 361 487 271 487 C118 487 19 388 19 235 C19 78 116 -18 273 -18 C347 -18 411 3 449 39 C478 66 493 99 508 163 L392 163 Z M211 294 C213 334 216 350 225 366 C235 385 258 398 280 398 C302 398 322 386 333 368 C343 350 346 333 347 294 L211 294 Z M270 707 C230 707 192 671 192 631 C192 588 227 553 271 553 C313 553 346 587 346 629 C346 672 312 707 270 707 L270 707 Z " />
<glyph glyph-name="Eogonek" unicode="&#x118;" horiz-adv-x="736" d="M682 0 L682 275 L578 275 C573 205 567 174 550 142 C524 98 507 93 399 94 L309 94 L309 301 L334 301 C393 301 404 285 408 191 L485 191 L485 495 L408 495 C406 410 393 393 333 389 L309 389 L309 573 L388 573 C521 577 551 553 578 419 L678 419 L678 667 L14 667 L14 573 L43 573 C87 573 93 566 92 515 L92 152 C94 101 89 95 44 94 L14 94 L14 0 L607 0 C531 -52 492 -106 492 -159 C492 -208 524 -238 577 -238 C627 -238 665 -208 693 -146 L676 -136 C656 -165 646 -172 625 -172 C599 -172 585 -153 585 -119 C585 -77 601 -44 644 0 L682 0 Z " />
<glyph glyph-name="eogonek" unicode="&#x119;" horiz-adv-x="538" d="M392 163 C379 102 350 74 301 74 C271 74 243 89 228 113 C216 135 212 156 211 207 L506 207 C505 299 497 340 469 386 C430 452 361 487 271 487 C118 487 19 388 19 235 C19 79 116 -18 272 -18 L289 -18 C234 -66 210 -106 210 -151 C210 -200 242 -230 293 -230 C343 -230 380 -200 409 -138 L392 -128 C371 -157 362 -163 341 -163 C315 -163 301 -144 301 -108 C301 -70 320 -32 347 -19 C465 35 479 51 508 163 L392 163 Z M211 294 C213 334 216 350 225 366 C235 385 258 398 280 398 C302 398 322 386 333 368 C343 350 346 333 347 294 L211 294 Z " />
<glyph glyph-name="Ecaron" unicode="&#x11a;" horiz-adv-x="736" d="M678 667 L14 667 L14 573 L43 573 C87 573 93 566 92 515 L92 152 C94 101 89 95 44 94 L14 94 L14 0 L682 0 L682 275 L578 275 C573 205 567 174 550 142 C524 98 507 93 399 94 L309 94 L309 301 L334 301 C393 301 404 285 408 191 L485 191 L485 495 L408 495 C406 410 393 393 333 389 L309 389 L309 573 L388 573 C521 577 551 553 578 419 L678 419 L678 667 Z M187 869 L289 723 L412 723 L514 869 L464 869 L350 810 L236 869 L187 869 Z " />
<glyph glyph-name="ecaron" unicode="&#x11b;" horiz-adv-x="538" d="M392 163 C379 102 350 74 301 74 C271 74 243 89 228 113 C216 135 212 156 211 207 L506 207 C505 299 497 340 469 386 C430 452 361 487 271 487 C118 487 19 388 19 235 C19 78 116 -18 273 -18 C347 -18 411 3 449 39 C478 66 493 99 508 163 L392 163 Z M211 294 C213 334 216 350 225 366 C235 385 258 398 280 398 C302 398 322 386 333 368 C343 350 346 333 347 294 L211 294 Z M104 724 L222 534 L317 534 L434 724 L383 724 L269 636 L156 724 L104 724 Z " />
<glyph glyph-name="Gbreve" unicode="&#x11e;" horiz-adv-x="778" d="M392 261 L411 261 C455 260 461 253 460 203 L460 153 C460 127 457 107 452 101 C445 91 420 82 397 82 C358 82 327 104 310 144 C292 187 285 238 285 333 C285 429 292 480 311 523 C329 563 361 585 402 585 C441 585 475 564 494 528 C510 497 517 474 531 402 L644 402 L644 676 L541 676 L525 640 C464 677 428 687 356 687 C157 687 28 545 28 328 C28 217 61 123 121 63 C174 10 258 -22 342 -22 C407 -22 456 -7 528 34 L549 -7 L672 -7 L672 203 C671 254 676 260 720 261 L742 261 L742 355 L392 355 L392 261 Z M169 869 C180 816 191 793 214 769 C244 740 287 723 335 723 C383 723 426 740 456 769 C479 793 490 816 501 869 L453 869 C444 846 435 836 418 828 C397 819 369 814 335 814 C265 814 235 828 216 869 L169 869 Z " />
<glyph glyph-name="gbreve" unicode="&#x11f;" horiz-adv-x="585" d="M78 167 C26 144 3 112 3 66 C3 29 17 4 54 -27 C14 -43 -6 -69 -6 -104 C-6 -132 8 -157 36 -176 C71 -200 151 -214 259 -214 C444 -214 533 -162 533 -54 C533 -19 521 15 501 33 C472 62 435 72 364 72 C353 72 336 72 323 71 C211 68 211 68 192 68 C146 68 134 74 134 94 C134 104 137 109 145 118 C186 106 204 103 233 103 C369 103 459 178 459 292 C459 342 450 370 421 410 C446 429 461 436 475 436 C483 436 490 433 501 424 C480 404 473 391 473 372 C473 340 503 316 542 316 C584 316 610 344 610 388 C610 446 561 488 493 488 C459 488 436 479 393 449 C319 481 302 485 252 485 C108 485 25 416 25 297 C25 241 40 205 78 167 L78 167 Z M243 416 C267 416 275 383 275 291 C275 206 265 172 242 172 C220 172 209 211 209 290 C209 378 219 416 243 416 L243 416 Z M268 -70 C311 -70 350 -73 376 -77 C398 -81 407 -89 407 -104 C407 -130 367 -141 270 -141 C171 -141 130 -130 130 -104 C130 -79 168 -70 268 -70 L268 -70 Z M71 708 C82 649 94 623 118 598 C147 567 191 550 238 550 C286 550 330 568 360 598 C383 622 395 649 406 708 L358 708 C348 680 339 668 321 660 C301 650 272 645 239 645 C205 645 175 650 156 660 C139 668 129 680 118 708 L71 708 Z " />
<glyph glyph-name="Gcommaaccent" unicode="&#x122;" horiz-adv-x="778" d="M392 261 L411 261 C455 260 461 253 460 203 L460 153 C460 127 457 107 452 101 C445 91 420 82 397 82 C358 82 327 104 310 144 C292 187 285 238 285 333 C285 429 292 480 311 523 C329 563 361 585 402 585 C441 585 475 564 494 528 C510 497 517 474 531 402 L644 402 L644 676 L541 676 L525 640 C464 677 428 687 356 687 C157 687 28 545 28 328 C28 217 61 123 121 63 C174 10 258 -22 342 -22 C407 -22 456 -7 528 34 L549 -7 L672 -7 L672 203 C671 254 676 260 720 261 L742 261 L742 355 L392 355 L392 261 Z M322 -290 C368 -283 391 -274 418 -251 C451 -223 470 -184 470 -145 C470 -92 435 -53 385 -53 C343 -53 311 -85 311 -127 C311 -162 336 -191 368 -191 C373 -191 381 -190 390 -188 C376 -220 365 -228 322 -238 L322 -290 Z " />
<glyph glyph-name="gcommaaccent" unicode="&#x123;" horiz-adv-x="585" d="M78 167 C26 144 3 112 3 66 C3 29 17 4 54 -27 C14 -43 -6 -69 -6 -104 C-6 -132 8 -157 36 -176 C71 -200 151 -214 259 -214 C444 -214 533 -162 533 -54 C533 -19 521 15 501 33 C472 62 435 72 364 72 C353 72 336 72 323 71 C211 68 211 68 192 68 C146 68 134 74 134 94 C134 104 137 109 145 118 C186 106 204 103 233 103 C369 103 459 178 459 292 C459 342 450 370 421 410 C446 429 461 436 475 436 C483 436 490 433 501 424 C480 404 473 391 473 372 C473 340 503 316 542 316 C584 316 610 344 610 388 C610 446 561 488 493 488 C459 488 436 479 393 449 C319 481 302 485 252 485 C108 485 25 416 25 297 C25 241 40 205 78 167 L78 167 Z M243 416 C267 416 275 383 275 291 C275 206 265 172 242 172 C220 172 209 211 209 290 C209 378 219 416 243 416 L243 416 Z M268 -70 C311 -70 350 -73 376 -77 C398 -81 407 -89 407 -104 C407 -130 367 -141 270 -141 C171 -141 130 -130 130 -104 C130 -79 168 -70 268 -70 L268 -70 Z M328 762 C282 754 259 745 232 722 C199 695 180 656 180 617 C180 563 215 525 265 525 C307 525 339 556 339 598 C339 633 313 662 282 662 C277 662 269 661 260 659 C274 691 285 699 328 709 L328 762 Z " />
<glyph glyph-name="Imacron" unicode="&#x12a;" horiz-adv-x="415" d="M19 0 L396 0 L396 94 L366 94 C322 95 316 102 317 152 L317 515 C316 565 322 572 366 573 L396 573 L396 667 L19 667 L19 573 L48 573 C92 572 98 566 97 515 L97 152 C98 102 92 95 48 94 L19 94 L19 0 Z M54 754 L361 754 L361 838 L54 838 L54 754 Z " />
<glyph glyph-name="imacron" unicode="&#x12b;" horiz-adv-x="344" d="M327 87 L312 87 C278 88 273 95 272 134 L272 469 L18 469 L18 382 L37 382 C75 381 81 374 82 335 L82 134 C81 95 75 88 37 87 L18 87 L18 0 L327 0 L327 87 Z M14 585 L329 585 L329 672 L14 672 L14 585 Z " />
<glyph glyph-name="Iogonek" unicode="&#x12e;" horiz-adv-x="415" d="M396 0 L396 94 L366 94 C322 95 316 102 317 152 L317 515 C316 565 322 572 366 573 L396 573 L396 667 L19 667 L19 573 L48 573 C92 572 98 566 97 515 L97 152 C98 102 92 95 48 94 L19 94 L19 0 L336 0 C263 -50 223 -105 223 -158 C223 -207 255 -237 308 -237 C359 -237 395 -209 424 -145 L407 -135 C387 -164 377 -171 357 -171 C330 -171 316 -152 316 -118 C316 -76 334 -41 374 0 L396 0 Z " />
<glyph glyph-name="iogonek" unicode="&#x12f;" horiz-adv-x="344" d="M328 0 L328 87 L313 87 C278 88 273 95 272 134 L272 469 L19 469 L19 382 L38 382 C75 381 81 374 82 335 L82 134 C81 95 75 88 38 87 L19 87 L19 0 L262 0 C185 -56 151 -104 151 -157 C151 -206 183 -236 236 -236 C287 -236 323 -207 352 -144 L335 -133 C315 -162 305 -169 284 -169 C258 -169 244 -150 244 -116 C244 -75 260 -42 301 0 L328 0 Z M162 686 C112 686 73 646 73 595 C73 547 113 507 162 507 C212 507 252 547 252 597 C252 646 212 686 162 686 L162 686 Z " />
<glyph glyph-name="Idotaccent" unicode="&#x130;" horiz-adv-x="415" d="M19 0 L396 0 L396 94 L366 94 C322 95 316 102 317 152 L317 515 C316 565 322 572 366 573 L396 573 L396 667 L19 667 L19 573 L48 573 C92 572 98 566 97 515 L97 152 C98 102 92 95 48 94 L19 94 L19 0 Z M208 866 C169 866 133 831 133 793 C133 751 167 717 208 717 C248 717 282 751 282 791 C282 831 247 866 208 866 L208 866 Z " />
<glyph glyph-name="dotlessi" unicode="&#x131;" horiz-adv-x="344" d="M328 87 L313 87 C278 88 273 95 272 134 L272 469 L19 469 L19 382 L38 382 C75 381 81 374 82 335 L82 134 C81 95 75 88 38 87 L19 87 L19 0 L328 0 L328 87 Z " />
<glyph glyph-name="Kcommaaccent" unicode="&#x136;" horiz-adv-x="802" d="M360 667 L14 667 L14 573 L43 573 C87 573 93 566 92 516 L92 152 C93 101 87 95 43 94 L14 94 L14 0 L375 0 L375 94 L354 94 C312 95 307 101 309 152 L309 208 L399 286 L492 137 C496 129 499 120 499 113 C499 99 487 94 455 94 L425 94 L425 0 L815 0 L815 94 L777 94 C750 93 732 105 709 139 L538 408 L666 524 C700 555 735 574 755 573 L787 573 L787 667 L435 667 L435 573 L488 573 C513 573 525 568 525 556 C525 548 519 538 510 530 L309 350 L309 516 C307 566 312 572 354 573 L360 573 L360 667 Z M334 -290 C380 -283 403 -274 430 -251 C463 -223 482 -184 482 -145 C482 -92 447 -53 397 -53 C355 -53 323 -85 323 -127 C323 -162 348 -191 380 -191 C385 -191 393 -190 402 -188 C388 -220 377 -228 334 -238 L334 -290 Z " />
<glyph glyph-name="kcommaaccent" unicode="&#x137;" horiz-adv-x="637" d="M14 580 L33 580 C68 579 73 572 74 533 L74 134 C73 95 68 88 33 87 L16 87 L16 0 L307 0 L307 87 C270 89 266 95 267 152 L330 203 L366 141 C380 118 384 108 384 100 C384 90 379 88 351 87 L351 0 L642 0 L642 87 C599 90 586 97 569 124 L461 307 L524 359 C543 375 563 381 600 382 L600 469 L333 469 L333 382 L343 382 C363 382 370 378 370 368 C370 362 365 354 357 347 L267 269 L267 667 L14 667 L14 580 Z M251 -290 C297 -283 320 -274 347 -251 C380 -223 399 -184 399 -145 C399 -92 364 -53 314 -53 C272 -53 240 -85 240 -127 C240 -162 265 -191 297 -191 C302 -191 310 -190 319 -188 C305 -220 294 -228 251 -238 L251 -290 Z " />
<glyph glyph-name="Lacute" unicode="&#x139;" horiz-adv-x="651" d="M395 667 L14 667 L14 572 L43 572 C87 572 93 565 92 515 L92 152 C93 102 87 95 43 95 L14 95 L14 0 L610 0 L610 278 L512 278 C501 121 477 93 353 97 L313 97 L313 515 C311 565 316 571 361 572 L395 572 L395 667 Z M277 723 L423 777 C452 788 469 808 469 830 C469 857 447 879 421 879 C403 879 389 872 366 851 L220 723 L277 723 Z " />
<glyph glyph-name="lacute" unicode="&#x13a;" horiz-adv-x="335" d="M265 667 L9 667 L9 580 L30 580 C67 579 73 572 74 533 L74 134 C73 95 67 88 30 87 L9 87 L9 0 L319 0 L319 87 L305 87 C271 88 266 95 265 134 L265 667 Z M165 717 L223 717 L391 800 C428 819 444 837 444 862 C444 894 420 918 388 918 C362 918 342 906 308 869 L165 717 Z " />
<glyph glyph-name="Lcommaaccent" unicode="&#x13b;" horiz-adv-x="651" d="M395 667 L14 667 L14 572 L43 572 C87 572 93 565 92 515 L92 152 C93 102 87 95 43 95 L14 95 L14 0 L610 0 L610 278 L512 278 C501 121 477 93 353 97 L313 97 L313 515 C311 565 316 571 361 572 L395 572 L395 667 Z M258 -290 C304 -283 327 -274 354 -251 C387 -223 406 -184 406 -145 C406 -92 371 -53 321 -53 C279 -53 247 -85 247 -127 C247 -162 272 -191 304 -191 C309 -191 317 -190 326 -188 C312 -220 301 -228 258 -238 L258 -290 Z " />
<glyph glyph-name="lcommaaccent" unicode="&#x13c;" horiz-adv-x="335" d="M265 667 L9 667 L9 580 L30 580 C67 579 73 572 74 533 L74 134 C73 95 67 88 30 87 L9 87 L9 0 L319 0 L319 87 L305 87 C271 88 266 95 265 134 L265 667 Z M100 -290 C146 -283 169 -274 196 -251 C229 -223 248 -184 248 -145 C248 -92 213 -53 163 -53 C121 -53 89 -85 89 -127 C89 -162 114 -191 146 -191 C151 -191 159 -190 168 -188 C154 -220 143 -228 100 -238 L100 -290 Z " />
<glyph glyph-name="Lcaron" unicode="&#x13d;" horiz-adv-x="651" d="M395 667 L14 667 L14 572 L43 572 C87 572 93 565 92 515 L92 152 C93 102 87 95 43 95 L14 95 L14 0 L610 0 L610 278 L512 278 C501 121 477 93 353 97 L313 97 L313 515 C311 565 316 571 361 572 L395 572 L395 667 Z M451 443 C494 451 516 460 542 483 C573 510 591 549 591 588 C591 642 558 680 511 680 C471 680 441 648 441 607 C441 571 465 543 495 543 C500 543 507 544 515 546 C503 514 492 505 451 496 L451 443 Z " />
<glyph glyph-name="lcaron" unicode="&#x13e;" horiz-adv-x="335" d="M265 667 L9 667 L9 580 L30 580 C67 579 73 572 74 533 L74 134 C73 95 67 88 30 87 L9 87 L9 0 L319 0 L319 87 L305 87 C271 88 266 95 265 134 L265 667 Z M349 443 C395 450 418 459 445 482 C478 510 497 549 497 588 C497 642 462 680 412 680 C370 680 338 648 338 606 C338 571 364 542 395 542 C400 542 408 543 417 545 C403 513 392 505 349 495 L349 443 Z " />
<glyph glyph-name="Lslash" unicode="&#x141;" horiz-adv-x="656" d="M399 667 L18 667 L18 572 L47 572 C91 572 97 565 96 515 L96 318 L0 249 L0 153 L96 223 L96 152 C97 102 91 95 47 95 L18 95 L18 0 L614 0 L614 278 L515 278 C505 121 481 93 357 97 L317 97 L317 315 L450 410 L450 506 L317 411 L317 515 C315 565 321 571 365 572 L399 572 L399 667 Z " />
<glyph glyph-name="lslash" unicode="&#x142;" horiz-adv-x="349" d="M78 263 L78 134 C77 95 72 88 37 87 L17 87 L17 0 L328 0 L328 87 L314 87 C279 88 274 95 273 134 L273 339 L351 395 L351 473 L273 417 L273 667 L17 667 L17 580 L37 580 C72 579 77 572 78 533 L78 341 L0 285 L0 206 L78 263 Z " />
<glyph glyph-name="Nacute" unicode="&#x143;" horiz-adv-x="769" d="M327 667 L14 667 L14 573 L44 573 C90 573 96 566 95 515 L95 152 C96 102 90 95 44 94 L14 94 L14 0 L293 0 L293 94 L266 94 C221 95 215 102 216 152 L216 479 L459 0 L679 0 L679 515 C678 566 684 573 729 573 L751 573 L751 667 L473 667 L473 573 L507 573 C553 572 559 566 557 515 L557 218 L327 667 Z M336 723 L482 777 C511 788 528 808 528 830 C528 857 506 879 480 879 C462 879 448 872 425 851 L279 723 L336 723 Z " />
<glyph glyph-name="nacute" unicode="&#x144;" horiz-adv-x="651" d="M641 87 L624 87 C589 88 584 95 583 134 L583 308 C583 384 575 415 549 441 C523 467 479 482 429 482 C395 482 361 475 332 461 C305 449 288 434 258 396 L258 469 L9 469 L9 382 L30 382 C65 381 70 374 71 335 L71 134 C70 95 65 88 30 87 L9 87 L9 0 L313 0 L313 87 C272 87 267 93 266 134 L266 288 C266 347 291 383 331 383 C370 383 388 357 388 303 L388 134 C388 92 383 87 343 87 L343 0 L641 0 L641 87 Z M218 534 L276 534 L444 617 C481 636 497 654 497 679 C497 711 473 735 441 735 C415 735 395 723 361 686 L218 534 Z " />
<glyph glyph-name="Ncommaaccent" unicode="&#x145;" horiz-adv-x="769" d="M327 667 L14 667 L14 573 L44 573 C90 573 96 566 95 515 L95 152 C96 102 90 95 44 94 L14 94 L14 0 L293 0 L293 94 L266 94 C221 95 215 102 216 152 L216 479 L459 0 L679 0 L679 515 C678 566 684 573 729 573 L751 573 L751 667 L473 667 L473 573 L507 573 C553 572 559 566 557 515 L557 218 L327 667 Z M317 -290 C363 -283 386 -274 413 -251 C446 -223 465 -184 465 -145 C465 -92 430 -53 380 -53 C338 -53 306 -85 306 -127 C306 -162 331 -191 363 -191 C368 -191 376 -190 385 -188 C371 -220 360 -228 317 -238 L317 -290 Z " />
<glyph glyph-name="ncommaaccent" unicode="&#x146;" horiz-adv-x="651" d="M641 87 L624 87 C589 88 584 95 583 134 L583 308 C583 384 575 415 549 441 C523 467 479 482 429 482 C395 482 361 475 332 461 C305 449 288 434 258 396 L258 469 L9 469 L9 382 L30 382 C65 381 70 374 71 335 L71 134 C70 95 65 88 30 87 L9 87 L9 0 L313 0 L313 87 C272 87 267 93 266 134 L266 288 C266 347 291 383 331 383 C370 383 388 357 388 303 L388 134 C388 92 383 87 343 87 L343 0 L641 0 L641 87 Z M258 -290 C304 -283 327 -274 354 -251 C387 -223 406 -184 406 -145 C406 -92 371 -53 321 -53 C279 -53 247 -85 247 -127 C247 -162 272 -191 304 -191 C309 -191 317 -190 326 -188 C312 -220 301 -228 258 -238 L258 -290 Z " />
<glyph glyph-name="Ncaron" unicode="&#x147;" horiz-adv-x="769" d="M327 667 L14 667 L14 573 L44 573 C90 573 96 566 95 515 L95 152 C96 102 90 95 44 94 L14 94 L14 0 L293 0 L293 94 L266 94 C221 95 215 102 216 152 L216 479 L459 0 L679 0 L679 515 C678 566 684 573 729 573 L751 573 L751 667 L473 667 L473 573 L507 573 C553 572 559 566 557 515 L557 218 L327 667 Z M221 869 L323 723 L446 723 L548 869 L498 869 L384 810 L270 869 L221 869 Z " />
<glyph glyph-name="ncaron" unicode="&#x148;" horiz-adv-x="651" d="M641 87 L624 87 C589 88 584 95 583 134 L583 308 C583 384 575 415 549 441 C523 467 479 482 429 482 C395 482 361 475 332 461 C305 449 288 434 258 396 L258 469 L9 469 L9 382 L30 382 C65 381 70 374 71 335 L71 134 C70 95 65 88 30 87 L9 87 L9 0 L313 0 L313 87 C272 87 267 93 266 134 L266 288 C266 347 291 383 331 383 C370 383 388 357 388 303 L388 134 C388 92 383 87 343 87 L343 0 L641 0 L641 87 Z M160 724 L278 534 L373 534 L490 724 L439 724 L325 636 L212 724 L160 724 Z " />
<glyph glyph-name="Omacron" unicode="&#x14c;" horiz-adv-x="797" d="M399 687 C284 687 199 658 132 594 C68 534 32 442 32 339 C32 224 64 138 132 73 C197 9 283 -20 400 -20 C515 -20 601 10 666 73 C733 137 766 224 766 333 C766 555 629 687 399 687 L399 687 Z M399 586 C437 586 467 564 484 524 C502 483 509 427 509 334 C509 240 502 188 484 144 C468 105 437 82 399 82 C361 82 331 104 314 144 C295 188 289 238 289 338 C289 429 296 482 314 524 C331 564 361 586 399 586 L399 586 Z M246 754 L552 754 L552 838 L246 838 L246 754 Z " />
<glyph glyph-name="omacron" unicode="&#x14d;" horiz-adv-x="580" d="M290 486 C123 486 20 391 20 238 C20 154 43 94 92 50 C140 6 209 -17 291 -17 C457 -17 560 80 560 234 C560 390 457 486 290 486 L290 486 Z M290 394 C334 394 349 354 349 234 C349 115 334 75 290 75 C246 75 231 115 231 237 C231 354 246 394 290 394 L290 394 Z M132 585 L448 585 L448 672 L132 672 L132 585 Z " />
<glyph glyph-name="Ohungarumlaut" unicode="&#x150;" horiz-adv-x="797" d="M399 687 C284 687 199 658 132 594 C68 534 32 442 32 339 C32 224 64 138 132 73 C197 9 283 -20 400 -20 C515 -20 601 10 666 73 C733 137 766 224 766 333 C766 555 629 687 399 687 L399 687 Z M399 586 C437 586 467 564 484 524 C502 483 509 427 509 334 C509 240 502 188 484 144 C468 105 437 82 399 82 C361 82 331 104 314 144 C295 188 289 238 289 338 C289 429 296 482 314 524 C331 564 361 586 399 586 L399 586 Z M323 721 L422 789 C441 803 451 818 451 834 C451 857 430 877 407 877 C387 877 373 866 355 838 L282 721 L323 721 Z M451 721 L579 787 C605 800 616 814 616 833 C616 855 594 877 572 877 C554 877 540 868 519 845 L411 721 L451 721 Z " />
<glyph glyph-name="ohungarumlaut" unicode="&#x151;" horiz-adv-x="580" d="M290 486 C123 486 20 391 20 238 C20 154 43 94 92 50 C140 6 209 -17 291 -17 C457 -17 560 80 560 234 C560 390 457 486 290 486 L290 486 Z M290 394 C334 394 349 354 349 234 C349 115 334 75 290 75 C246 75 231 115 231 237 C231 354 246 394 290 394 L290 394 Z M203 535 L250 535 L364 637 C385 655 396 674 396 690 C396 716 375 737 348 737 C320 737 306 724 278 674 L203 535 Z M331 535 L377 535 L526 632 C554 650 567 667 567 686 C567 713 545 735 519 735 C492 735 479 726 446 683 L331 535 Z " />
<glyph glyph-name="OE" unicode="&#x152;" horiz-adv-x="1137" d="M1081 667 L639 667 L376 687 C282 687 190 653 128 594 C62 531 28 442 28 333 C28 114 167 -20 394 -20 C425 -20 459 -18 495 -15 L597 -4 C623 -1 652 0 682 0 L1085 0 L1085 275 L985 275 C973 114 948 88 812 94 L726 94 L726 301 L750 301 C807 301 817 286 821 191 L895 191 L895 495 L821 495 C819 410 807 393 749 389 L726 389 L726 573 L802 573 C929 578 959 552 985 419 L1081 419 L1081 667 Z M513 251 C513 176 507 138 491 115 C476 95 443 81 409 81 C379 81 353 92 332 115 C300 150 285 218 285 333 C285 511 322 586 410 586 C443 586 476 572 491 552 C506 530 513 490 513 416 L513 251 Z " />
<glyph glyph-name="oe" unicode="&#x153;" horiz-adv-x="882" d="M731 163 C717 102 689 74 640 74 C610 74 581 89 567 113 C554 135 550 156 549 207 L844 207 C844 318 828 370 783 420 C743 464 681 488 609 488 C552 488 515 476 453 435 C387 475 351 486 286 486 C208 486 139 462 91 419 C43 376 19 315 19 235 C19 154 43 93 91 50 C138 8 209 -17 280 -17 C342 -17 382 -5 456 37 C500 -1 553 -18 623 -18 C689 -18 749 3 787 39 C816 66 832 99 846 163 L731 163 Z M294 394 C343 394 359 354 359 232 C359 115 343 75 295 75 C246 75 230 115 230 235 C230 354 246 394 294 394 L294 394 Z M549 294 C552 335 555 351 563 366 C573 386 596 399 618 399 C640 399 660 387 671 368 C681 351 684 333 685 294 L549 294 Z " />
<glyph glyph-name="Racute" unicode="&#x154;" horiz-adv-x="774" d="M14 573 L43 573 C87 572 93 565 92 515 L92 152 C93 101 87 95 43 94 L14 94 L14 0 L395 0 L395 94 L361 94 C317 95 311 101 312 152 L312 300 L366 300 C441 298 452 284 451 197 L451 142 C451 33 501 -16 612 -16 C691 -16 730 6 754 63 C766 92 768 110 768 188 L705 188 L705 154 C705 118 695 96 679 96 C665 96 655 115 655 145 C657 312 645 335 545 353 C588 365 607 373 628 390 C661 417 679 457 679 503 C679 553 658 599 622 626 C585 655 534 667 450 667 L14 667 L14 573 Z M311 391 L311 568 L369 568 C404 568 422 563 434 550 C448 535 455 510 455 479 C455 414 431 391 363 391 L311 391 Z M287 723 L433 777 C462 788 479 808 479 830 C479 857 457 879 431 879 C413 879 399 872 376 851 L230 723 L287 723 Z " />
<glyph glyph-name="racute" unicode="&#x155;" horiz-adv-x="486" d="M261 469 L19 469 L19 382 L34 382 C69 381 74 374 75 335 L75 134 C74 95 69 88 34 87 L19 87 L19 0 L340 0 L340 87 L312 87 C276 88 271 95 270 134 L270 272 C270 317 276 347 290 372 C303 395 327 412 347 412 C352 412 359 411 368 409 C338 390 326 372 326 343 C326 302 358 271 401 271 C452 271 488 311 488 370 C488 439 443 485 376 485 C331 485 300 469 261 423 L261 469 Z M136 534 L194 534 L362 617 C399 636 415 654 415 679 C415 711 391 735 359 735 C333 735 313 723 279 686 L136 534 Z " />
<glyph glyph-name="Rcommaaccent" unicode="&#x156;" horiz-adv-x="774" d="M14 573 L43 573 C87 572 93 565 92 515 L92 152 C93 101 87 95 43 94 L14 94 L14 0 L395 0 L395 94 L361 94 C317 95 311 101 312 152 L312 300 L366 300 C441 298 452 284 451 197 L451 142 C451 33 501 -16 612 -16 C691 -16 730 6 754 63 C766 92 768 110 768 188 L705 188 L705 154 C705 118 695 96 679 96 C665 96 655 115 655 145 C657 312 645 335 545 353 C588 365 607 373 628 390 C661 417 679 457 679 503 C679 553 658 599 622 626 C585 655 534 667 450 667 L14 667 L14 573 Z M311 391 L311 568 L369 568 C404 568 422 563 434 550 C448 535 455 510 455 479 C455 414 431 391 363 391 L311 391 Z M320 -290 C366 -283 389 -274 416 -251 C449 -223 468 -184 468 -145 C468 -92 433 -53 383 -53 C341 -53 309 -85 309 -127 C309 -162 334 -191 366 -191 C371 -191 379 -190 388 -188 C374 -220 363 -228 320 -238 L320 -290 Z " />
<glyph glyph-name="rcommaaccent" unicode="&#x157;" horiz-adv-x="486" d="M261 469 L19 469 L19 382 L34 382 C69 381 74 374 75 335 L75 134 C74 95 69 88 34 87 L19 87 L19 0 L340 0 L340 87 L312 87 C276 88 271 95 270 134 L270 272 C270 317 276 347 290 372 C303 395 327 412 347 412 C352 412 359 411 368 409 C338 390 326 372 326 343 C326 302 358 271 401 271 C452 271 488 311 488 370 C488 439 443 485 376 485 C331 485 300 469 261 423 L261 469 Z M102 -290 C148 -283 171 -274 198 -251 C231 -223 250 -184 250 -145 C250 -92 215 -53 165 -53 C123 -53 91 -85 91 -127 C91 -162 116 -191 148 -191 C153 -191 161 -190 170 -188 C156 -220 145 -228 102 -238 L102 -290 Z " />
<glyph glyph-name="Rcaron" unicode="&#x158;" horiz-adv-x="774" d="M14 573 L43 573 C87 572 93 565 92 515 L92 152 C93 101 87 95 43 94 L14 94 L14 0 L395 0 L395 94 L361 94 C317 95 311 101 312 152 L312 300 L366 300 C441 298 452 284 451 197 L451 142 C451 33 501 -16 612 -16 C691 -16 730 6 754 63 C766 92 768 110 768 188 L705 188 L705 154 C705 118 695 96 679 96 C665 96 655 115 655 145 C657 312 645 335 545 353 C588 365 607 373 628 390 C661 417 679 457 679 503 C679 553 658 599 622 626 C585 655 534 667 450 667 L14 667 L14 573 Z M311 391 L311 568 L369 568 C404 568 422 563 434 550 C448 535 455 510 455 479 C455 414 431 391 363 391 L311 391 Z M128 869 L230 723 L353 723 L455 869 L405 869 L291 810 L177 869 L128 869 Z " />
<glyph glyph-name="rcaron" unicode="&#x159;" horiz-adv-x="486" d="M261 469 L19 469 L19 382 L34 382 C69 381 74 374 75 335 L75 134 C74 95 69 88 34 87 L19 87 L19 0 L340 0 L340 87 L312 87 C276 88 271 95 270 134 L270 272 C270 317 276 347 290 372 C303 395 327 412 347 412 C352 412 359 411 368 409 C338 390 326 372 326 343 C326 302 358 271 401 271 C452 271 488 311 488 370 C488 439 443 485 376 485 C331 485 300 469 261 423 L261 469 Z M78 724 L196 534 L291 534 L408 724 L357 724 L243 636 L130 724 L78 724 Z " />
<glyph glyph-name="Sacute" unicode="&#x15a;" horiz-adv-x="665" d="M51 245 L51 -3 L138 -3 L161 34 C249 -8 296 -20 372 -20 C536 -20 641 66 641 200 C641 264 614 322 568 357 C527 389 470 412 383 431 C278 455 278 455 259 469 C248 477 241 492 241 507 C241 550 281 579 341 579 C384 579 422 565 451 539 C477 515 489 492 503 438 L609 438 L609 670 L519 670 L502 637 C425 673 373 686 300 686 C138 686 34 599 34 463 C34 400 62 343 107 312 C141 289 205 264 292 239 C384 213 392 209 410 190 C419 181 424 166 424 151 C424 110 388 82 333 82 C288 82 239 102 205 133 C177 159 162 185 142 245 L51 245 Z M285 723 L431 777 C459 788 476 808 476 830 C476 857 454 879 428 879 C410 879 397 872 373 851 L228 723 L285 723 Z " />
<glyph glyph-name="sacute" unicode="&#x15b;" horiz-adv-x="538" d="M95 -7 L112 30 C166 -3 222 -17 294 -17 C418 -17 498 46 498 143 C498 189 482 224 451 250 C428 268 407 277 323 305 C248 331 248 331 237 340 C231 345 227 355 227 365 C227 389 248 403 284 403 C301 403 317 400 334 393 C365 381 379 368 402 330 L476 330 L476 478 L406 478 L393 450 C326 479 294 486 233 486 C99 486 19 427 19 327 C19 251 55 218 183 176 C272 146 272 146 282 138 C288 133 293 121 293 110 C293 86 273 74 234 74 C213 74 193 78 175 86 C145 99 130 118 112 164 L29 164 L29 -7 L95 -7 Z M162 534 L220 534 L388 617 C425 636 441 654 441 679 C441 711 417 735 385 735 C359 735 339 723 305 686 L162 534 Z " />
<glyph glyph-name="Scedilla" unicode="&#x15e;" horiz-adv-x="665" d="M346 -19 C354 -20 361 -20 370 -20 C536 -20 641 65 641 200 C641 264 614 322 568 357 C528 389 470 412 382 431 C278 455 278 455 259 469 C248 477 241 492 241 507 C241 550 281 579 341 579 C384 579 422 565 451 539 C477 515 489 492 503 438 L609 438 L609 670 L519 670 L502 637 C426 673 373 686 300 686 C137 686 34 599 34 462 C34 400 62 342 107 312 C142 289 205 264 293 238 C383 212 392 208 410 189 C419 180 424 165 424 150 C424 109 388 81 333 81 C289 81 239 101 205 133 C177 159 162 185 142 245 L51 245 L51 -3 L138 -3 L161 34 C233 1 259 -8 302 -14 L302 -99 C313 -97 325 -95 331 -95 C356 -95 373 -110 373 -134 C373 -156 356 -171 332 -171 C300 -171 265 -158 219 -130 L196 -182 C271 -218 313 -230 358 -230 C425 -230 470 -192 470 -136 C470 -87 434 -50 386 -50 C376 -50 361 -51 346 -54 L346 -19 Z " />
<glyph glyph-name="scedilla" unicode="&#x15f;" horiz-adv-x="538" d="M280 -17 C419 -17 498 41 498 143 C498 189 482 224 451 249 C428 268 399 280 323 305 C236 334 227 339 227 364 C227 389 248 403 284 403 C300 403 317 400 334 393 C365 381 379 368 402 330 L476 330 L476 478 L406 478 L393 450 C326 479 293 486 233 486 C99 486 19 426 19 327 C19 251 55 218 183 176 C270 147 270 147 281 138 C288 133 292 122 292 111 C292 86 272 74 233 74 C212 74 192 78 175 86 C145 99 130 118 112 164 L29 164 L29 -7 L96 -7 L112 30 C149 7 182 -5 236 -13 L236 -98 C247 -96 259 -94 265 -94 C290 -94 306 -109 306 -133 C306 -156 290 -171 265 -171 C233 -171 200 -159 154 -130 L130 -182 C204 -217 247 -230 292 -230 C358 -230 402 -192 402 -135 C402 -86 367 -49 320 -49 C310 -49 295 -51 280 -53 L280 -17 Z " />
<glyph glyph-name="Scaron" unicode="&#x160;" horiz-adv-x="665" d="M51 245 L51 -3 L138 -3 L161 34 C249 -8 296 -20 372 -20 C536 -20 641 66 641 200 C641 264 614 322 568 357 C527 389 470 412 383 431 C278 455 278 455 259 469 C248 477 241 492 241 507 C241 550 281 579 341 579 C384 579 422 565 451 539 C477 515 489 492 503 438 L609 438 L609 670 L519 670 L502 637 C425 673 373 686 300 686 C138 686 34 599 34 463 C34 400 62 343 107 312 C141 289 205 264 292 239 C384 213 392 209 410 190 C419 181 424 166 424 151 C424 110 388 82 333 82 C288 82 239 102 205 133 C177 159 162 185 142 245 L51 245 Z M163 869 L265 723 L388 723 L490 869 L440 869 L326 810 L212 869 L163 869 Z " />
<glyph glyph-name="scaron" unicode="&#x161;" horiz-adv-x="538" d="M95 -7 L112 30 C166 -3 222 -17 294 -17 C418 -17 498 46 498 143 C498 189 482 224 451 250 C428 268 407 277 323 305 C248 331 248 331 237 340 C231 345 227 355 227 365 C227 389 248 403 284 403 C301 403 317 400 334 393 C365 381 379 368 402 330 L476 330 L476 478 L406 478 L393 450 C326 479 294 486 233 486 C99 486 19 427 19 327 C19 251 55 218 183 176 C272 146 272 146 282 138 C288 133 293 121 293 110 C293 86 273 74 234 74 C213 74 193 78 175 86 C145 99 130 118 112 164 L29 164 L29 -7 L95 -7 Z M91 724 L209 534 L304 534 L422 724 L370 724 L256 636 L143 724 L91 724 Z " />
<glyph glyph-name="Tcommaaccent" unicode="&#x162;" horiz-adv-x="703" d="M111 414 C113 515 142 556 215 562 L240 562 L240 152 C242 101 236 95 192 94 L146 94 L146 0 L561 0 L561 94 L511 94 C466 95 460 101 461 152 L461 562 L487 562 C560 557 589 515 591 414 L685 414 L685 667 L18 667 L18 414 L111 414 Z M284 -290 C330 -283 353 -274 380 -251 C413 -223 432 -184 432 -145 C432 -92 397 -53 347 -53 C305 -53 273 -85 273 -127 C273 -162 298 -191 330 -191 C335 -191 343 -190 352 -188 C338 -220 327 -228 284 -238 L284 -290 Z " />
<glyph glyph-name="tcommaaccent" unicode="&#x163;" horiz-adv-x="434" d="M62 383 L62 167 C62 90 67 69 90 39 C121 1 170 -19 237 -19 C301 -19 348 -1 375 32 C398 61 405 89 405 158 L405 221 L320 221 L320 178 C320 97 312 73 286 73 C264 73 257 89 257 142 L257 383 L382 383 L382 469 L257 469 L257 652 L140 652 C117 513 86 471 5 469 L5 383 L62 383 Z M114 -290 C160 -283 183 -274 210 -251 C243 -223 262 -184 262 -145 C262 -92 227 -53 177 -53 C135 -53 103 -85 103 -127 C103 -162 128 -191 160 -191 C165 -191 173 -190 182 -188 C168 -220 157 -228 114 -238 L114 -290 Z " />
<glyph glyph-name="Tcaron" unicode="&#x164;" horiz-adv-x="703" d="M111 414 C113 515 142 556 215 562 L240 562 L240 152 C242 101 236 95 192 94 L146 94 L146 0 L561 0 L561 94 L511 94 C466 95 460 101 461 152 L461 562 L487 562 C560 557 589 515 591 414 L685 414 L685 667 L18 667 L18 414 L111 414 Z M188 869 L290 723 L413 723 L515 869 L465 869 L351 810 L237 869 L188 869 Z " />
<glyph glyph-name="tcaron" unicode="&#x165;" horiz-adv-x="434" d="M62 383 L62 167 C62 90 67 69 90 39 C121 1 170 -19 237 -19 C301 -19 348 -1 375 32 C398 61 405 89 405 158 L405 221 L320 221 L320 178 C320 97 312 73 286 73 C264 73 257 89 257 142 L257 383 L382 383 L382 469 L257 469 L257 652 L140 652 C117 513 86 471 5 469 L5 383 L62 383 Z M346 526 C392 533 415 543 442 565 C475 593 494 632 494 671 C494 725 459 763 409 763 C367 763 335 732 335 690 C335 655 361 626 392 626 C398 626 405 627 414 628 C400 596 389 588 346 579 L346 526 Z " />
<glyph glyph-name="Umacron" unicode="&#x16a;" horiz-adv-x="736" d="M436 572 L466 572 C511 572 517 565 516 515 L516 213 C516 120 483 82 402 82 C371 82 348 91 330 108 C310 129 304 154 304 221 L304 515 C303 565 309 572 353 572 L387 572 L387 667 L5 667 L5 572 L35 572 C79 572 85 565 84 515 L84 188 C84 125 102 82 143 46 C193 1 264 -21 360 -21 C549 -21 651 55 651 196 L651 518 C650 564 657 572 701 572 L729 572 L729 667 L436 667 L436 572 Z M215 754 L522 754 L522 838 L215 838 L215 754 Z " />
<glyph glyph-name="umacron" unicode="&#x16b;" horiz-adv-x="651" d="M394 0 L635 0 L635 87 L617 87 C584 88 579 95 578 134 L578 469 L317 469 L317 381 L336 381 C376 380 382 374 383 335 L383 181 C383 122 359 86 321 86 C284 86 267 112 267 166 L267 469 L9 469 L9 381 L25 381 C65 380 71 374 72 335 L72 156 C72 80 80 50 106 24 C132 -2 175 -17 224 -17 C297 -17 342 5 394 69 L394 0 Z M142 585 L458 585 L458 672 L142 672 L142 585 Z " />
<glyph glyph-name="Uring" unicode="&#x16e;" horiz-adv-x="736" d="M436 572 L466 572 C511 572 517 565 516 515 L516 213 C516 120 483 82 402 82 C371 82 348 91 330 108 C310 129 304 154 304 221 L304 515 C303 565 309 572 353 572 L387 572 L387 667 L5 667 L5 572 L35 572 C79 572 85 565 84 515 L84 188 C84 125 102 82 143 46 C193 1 264 -21 360 -21 C549 -21 651 55 651 196 L651 518 C650 564 657 572 701 572 L729 572 L729 667 L436 667 L436 572 Z M369 921 C306 921 253 871 253 810 C253 745 306 691 370 691 C431 691 484 745 484 808 C484 870 433 921 369 921 L369 921 Z M369 850 C393 850 414 829 414 805 C414 781 393 761 369 761 C344 761 323 781 323 806 C323 830 345 850 369 850 L369 850 Z " />
<glyph glyph-name="uring" unicode="&#x16f;" horiz-adv-x="651" d="M394 0 L635 0 L635 87 L617 87 C584 88 579 95 578 134 L578 469 L317 469 L317 381 L336 381 C376 380 382 374 383 335 L383 181 C383 122 359 86 321 86 C284 86 267 112 267 166 L267 469 L9 469 L9 381 L25 381 C65 380 71 374 72 335 L72 156 C72 80 80 50 106 24 C132 -2 175 -17 224 -17 C297 -17 342 5 394 69 L394 0 Z M303 793 C229 793 166 732 166 659 C166 581 226 520 303 520 C378 520 439 582 439 657 C439 731 377 793 303 793 L303 793 Z M302 715 C334 715 361 688 361 656 C361 624 335 598 303 598 C270 598 244 624 244 657 C244 688 271 715 302 715 L302 715 Z " />
<glyph glyph-name="Uhungarumlaut" unicode="&#x170;" horiz-adv-x="736" d="M436 572 L466 572 C511 572 517 565 516 515 L516 213 C516 120 483 82 402 82 C371 82 348 91 330 108 C310 129 304 154 304 221 L304 515 C303 565 309 572 353 572 L387 572 L387 667 L5 667 L5 572 L35 572 C79 572 85 565 84 515 L84 188 C84 125 102 82 143 46 C193 1 264 -21 360 -21 C549 -21 651 55 651 196 L651 518 C650 564 657 572 701 572 L729 572 L729 667 L436 667 L436 572 Z M292 721 L392 789 C412 803 421 817 421 834 C421 857 400 877 376 877 C356 877 342 866 324 838 L251 721 L292 721 Z M421 721 L549 787 C574 800 585 814 585 833 C585 855 563 877 541 877 C523 877 510 869 489 845 L380 721 L421 721 Z " />
<glyph glyph-name="uhungarumlaut" unicode="&#x171;" horiz-adv-x="651" d="M394 0 L635 0 L635 87 L617 87 C584 88 579 95 578 134 L578 469 L317 469 L317 381 L336 381 C376 380 382 374 383 335 L383 181 C383 122 359 86 321 86 C284 86 267 112 267 166 L267 469 L9 469 L9 381 L25 381 C65 380 71 374 72 335 L72 156 C72 80 80 50 106 24 C132 -2 175 -17 224 -17 C297 -17 342 5 394 69 L394 0 Z M202 535 L248 535 L363 637 C384 655 395 674 395 690 C395 716 374 737 347 737 C319 737 304 724 277 674 L202 535 Z M330 535 L376 535 L525 632 C553 650 566 667 566 686 C566 713 544 735 517 735 C491 735 478 726 444 683 L330 535 Z " />
<glyph glyph-name="Uogonek" unicode="&#x172;" horiz-adv-x="736" d="M729 572 L729 667 L436 667 L436 572 L466 572 C511 572 517 565 516 515 L516 213 C516 120 483 82 401 82 C371 82 347 91 330 108 C310 129 304 154 304 221 L304 515 C303 565 309 572 353 572 L387 572 L387 667 L5 667 L5 572 L35 572 C79 572 85 565 84 515 L84 188 C84 125 102 82 143 46 C193 1 264 -21 359 -21 C377 -21 398 -20 421 -18 C365 -63 338 -107 338 -152 C338 -201 371 -231 424 -231 C474 -231 509 -203 539 -139 L522 -129 C501 -158 493 -164 472 -164 C446 -164 432 -145 432 -110 C432 -65 457 -23 494 -7 C515 2 537 12 559 21 C582 31 605 53 623 86 C641 117 651 158 651 196 L651 518 C650 564 657 572 701 572 L729 572 Z " />
<glyph glyph-name="uogonek" unicode="&#x173;" horiz-adv-x="651" d="M635 0 L635 87 L617 87 C584 88 579 95 578 134 L578 469 L317 469 L317 381 L336 381 C376 380 382 374 383 335 L383 181 C383 122 359 86 321 86 C284 86 267 112 267 166 L267 469 L9 469 L9 381 L25 381 C65 380 71 374 72 335 L72 156 C72 80 80 50 106 24 C132 -2 175 -17 224 -17 C297 -17 342 5 394 69 L394 0 L564 0 C494 -46 451 -107 451 -159 C451 -209 482 -239 534 -239 C584 -239 622 -209 650 -147 L633 -136 C612 -165 603 -172 582 -172 C556 -172 542 -153 542 -119 C542 -77 560 -41 601 0 L635 0 Z " />
<glyph glyph-name="Ydieresis" unicode="&#x178;" horiz-adv-x="651" d="M-24 573 L-5 573 C32 571 53 555 81 510 L214 268 L214 152 C216 101 210 95 165 94 L132 94 L132 0 L517 0 L517 94 L484 94 C440 95 434 101 435 152 L435 268 L570 506 C594 551 618 571 652 573 L671 573 L671 667 L387 667 L387 573 L414 573 C440 573 455 566 455 555 C455 546 451 533 445 523 L366 394 L288 521 C281 533 278 542 278 549 C278 565 292 573 322 573 L345 573 L345 667 L-24 667 L-24 573 Z M233 878 C192 878 156 842 156 803 C156 760 190 726 233 726 C274 726 309 760 309 801 C309 842 273 878 233 878 L233 878 Z M431 878 C390 878 354 842 354 803 C354 760 388 726 431 726 C473 726 507 760 507 801 C507 842 472 878 431 878 L431 878 Z " />
<glyph glyph-name="Zacute" unicode="&#x179;" horiz-adv-x="637" d="M14 0 L610 0 L610 267 L498 267 C489 132 453 90 347 94 L261 94 L610 573 L610 667 L30 667 L30 419 L138 419 C148 541 176 572 281 573 L365 573 L14 94 L14 0 Z M270 723 L416 777 C445 788 462 808 462 830 C462 857 440 879 414 879 C396 879 382 872 359 851 L213 723 L270 723 Z " />
<glyph glyph-name="zacute" unicode="&#x17a;" horiz-adv-x="486" d="M14 0 L458 0 L458 206 L373 206 C372 106 361 91 287 87 L224 87 L458 373 L458 469 L30 469 L30 280 L115 280 C120 368 128 378 191 382 L254 382 L14 96 L14 0 Z M135 534 L194 534 L361 617 C399 636 415 654 415 679 C415 711 391 735 359 735 C333 735 313 723 278 686 L135 534 Z " />
<glyph glyph-name="Zdotaccent" unicode="&#x17b;" horiz-adv-x="637" d="M14 0 L610 0 L610 267 L498 267 C489 132 453 90 347 94 L261 94 L610 573 L610 667 L30 667 L30 419 L138 419 C148 541 176 572 281 573 L365 573 L14 94 L14 0 Z M319 866 C280 866 244 831 244 793 C244 751 278 717 319 717 C359 717 393 751 393 791 C393 831 358 866 319 866 L319 866 Z " />
<glyph glyph-name="zdotaccent" unicode="&#x17c;" horiz-adv-x="486" d="M14 0 L458 0 L458 206 L373 206 C372 106 361 91 287 87 L224 87 L458 373 L458 469 L30 469 L30 280 L115 280 C120 368 128 378 191 382 L254 382 L14 96 L14 0 Z M244 707 C204 707 166 671 166 631 C166 588 201 553 245 553 C287 553 320 587 320 629 C320 672 286 707 244 707 L244 707 Z " />
<glyph glyph-name="Zcaron" unicode="&#x17d;" horiz-adv-x="637" d="M14 0 L610 0 L610 267 L498 267 C489 132 453 90 347 94 L261 94 L610 573 L610 667 L30 667 L30 419 L138 419 C148 541 176 572 281 573 L365 573 L14 94 L14 0 Z M155 869 L257 723 L380 723 L482 869 L432 869 L318 810 L204 869 L155 869 Z " />
<glyph glyph-name="zcaron" unicode="&#x17e;" horiz-adv-x="486" d="M14 0 L458 0 L458 206 L373 206 C372 106 361 91 287 87 L224 87 L458 373 L458 469 L30 469 L30 280 L115 280 C120 368 128 378 191 382 L254 382 L14 96 L14 0 Z M78 724 L195 534 L291 534 L408 724 L356 724 L243 636 L129 724 L78 724 Z " />
<glyph glyph-name="florin" unicode="&#x192;" horiz-adv-x="629" d="M412 469 L421 532 C428 579 433 592 448 605 C457 613 469 618 481 618 C488 618 493 617 505 614 C476 596 462 576 462 549 C462 516 488 494 527 494 C578 494 619 533 619 583 C619 646 563 684 472 684 C398 684 332 660 293 621 C266 593 253 560 243 496 L239 469 L172 469 L159 378 L225 378 L166 -18 C159 -61 156 -74 149 -84 C139 -101 123 -111 105 -111 C98 -111 92 -110 81 -106 C110 -89 124 -68 124 -41 C124 -8 98 14 59 14 C8 14 -33 -26 -33 -75 C-33 -138 24 -177 115 -177 C187 -177 255 -152 293 -113 C323 -83 333 -54 346 32 L398 378 L480 378 L493 469 L412 469 Z " />
<glyph glyph-name="uni01D3" unicode="&#x1d3;" horiz-adv-x="736" d="M436 572 L466 572 C511 572 517 565 516 515 L516 213 C516 120 483 82 402 82 C371 82 348 91 330 108 C310 129 304 154 304 221 L304 515 C303 565 309 572 353 572 L387 572 L387 667 L5 667 L5 572 L35 572 C79 572 85 565 84 515 L84 188 C84 125 102 82 143 46 C193 1 264 -21 360 -21 C549 -21 651 55 651 196 L651 518 C650 564 657 572 701 572 L729 572 L729 667 L436 667 L436 572 Z M205 869 L307 723 L430 723 L532 869 L482 869 L368 810 L254 869 L205 869 Z " />
<glyph glyph-name="Scommaaccent" unicode="&#x218;" horiz-adv-x="665" d="M51 245 L51 -3 L138 -3 L161 34 C249 -8 296 -20 372 -20 C536 -20 641 66 641 200 C641 264 614 322 568 357 C527 389 470 412 383 431 C278 455 278 455 259 469 C248 477 241 492 241 507 C241 550 281 579 341 579 C384 579 422 565 451 539 C477 515 489 492 503 438 L609 438 L609 670 L519 670 L502 637 C425 673 373 686 300 686 C138 686 34 599 34 463 C34 400 62 343 107 312 C141 289 205 264 292 239 C384 213 392 209 410 190 C419 181 424 166 424 151 C424 110 388 82 333 82 C288 82 239 102 205 133 C177 159 162 185 142 245 L51 245 Z M260 -304 C306 -296 329 -287 356 -264 C389 -237 408 -198 408 -159 C408 -105 373 -67 323 -67 C281 -67 249 -99 249 -140 C249 -176 275 -204 306 -204 C311 -204 319 -203 328 -201 C314 -233 303 -241 260 -251 L260 -304 Z " />
<glyph glyph-name="scommaaccent" unicode="&#x219;" horiz-adv-x="538" d="M95 -7 L112 30 C166 -3 222 -17 294 -17 C418 -17 498 46 498 143 C498 189 482 224 451 250 C428 268 407 277 323 305 C248 331 248 331 237 340 C231 345 227 355 227 365 C227 389 248 403 284 403 C301 403 317 400 334 393 C365 381 379 368 402 330 L476 330 L476 478 L406 478 L393 450 C326 479 294 486 233 486 C99 486 19 427 19 327 C19 251 55 218 183 176 C272 146 272 146 282 138 C288 133 293 121 293 110 C293 86 273 74 234 74 C213 74 193 78 175 86 C145 99 130 118 112 164 L29 164 L29 -7 L95 -7 Z M202 -290 C248 -283 271 -274 298 -251 C331 -223 350 -184 350 -145 C350 -92 315 -53 265 -53 C223 -53 191 -85 191 -127 C191 -162 216 -191 248 -191 C253 -191 261 -190 270 -188 C256 -220 245 -228 202 -238 L202 -290 Z " />
<glyph glyph-name="uni021A" unicode="&#x21a;" horiz-adv-x="703" d="M111 414 C113 515 142 556 215 562 L240 562 L240 152 C242 101 236 95 192 94 L146 94 L146 0 L561 0 L561 94 L511 94 C466 95 460 101 461 152 L461 562 L487 562 C560 557 589 515 591 414 L685 414 L685 667 L18 667 L18 414 L111 414 Z M284 -290 C330 -283 353 -274 380 -251 C413 -223 432 -184 432 -145 C432 -92 397 -53 347 -53 C305 -53 273 -85 273 -127 C273 -162 298 -191 330 -191 C335 -191 343 -190 352 -188 C338 -220 327 -228 284 -238 L284 -290 Z " />
<glyph glyph-name="uni021B" unicode="&#x21b;" horiz-adv-x="434" d="M62 383 L62 167 C62 90 67 69 90 39 C121 1 170 -19 237 -19 C301 -19 348 -1 375 32 C398 61 405 89 405 158 L405 221 L320 221 L320 178 C320 97 312 73 286 73 C264 73 257 89 257 142 L257 383 L382 383 L382 469 L257 469 L257 652 L140 652 C117 513 86 471 5 469 L5 383 L62 383 Z M114 -290 C160 -283 183 -274 210 -251 C243 -223 262 -184 262 -145 C262 -92 227 -53 177 -53 C135 -53 103 -85 103 -127 C103 -162 128 -191 160 -191 C165 -191 173 -190 182 -188 C168 -220 157 -228 114 -238 L114 -290 Z " />
<glyph glyph-name="afii57929" unicode="&#x2bc;" horiz-adv-x="259" d="M38 393 C94 401 122 412 155 441 C197 477 221 527 221 577 C221 644 179 690 120 690 C69 690 31 651 31 598 C31 552 62 516 102 516 C108 516 115 517 124 518 C106 475 91 464 38 455 L38 393 Z " />
<glyph glyph-name="circumflex" unicode="&#x2c6;" horiz-adv-x="492" d="M81 534 L133 534 L246 622 L360 534 L411 534 L294 724 L199 724 L81 534 Z " />
<glyph glyph-name="caron" unicode="&#x2c7;" horiz-adv-x="492" d="M81 724 L199 534 L294 534 L411 724 L360 724 L246 636 L133 724 L81 724 Z " />
<glyph glyph-name="uni02C9" unicode="&#x2c9;" horiz-adv-x="491" d="M88 585 L403 585 L403 672 L88 672 L88 585 Z " />
<glyph glyph-name="breve" unicode="&#x2d8;" horiz-adv-x="492" d="M78 708 C90 649 101 623 125 598 C154 567 198 550 245 550 C293 550 338 568 367 598 C391 622 402 649 413 708 L365 708 C356 680 346 668 329 660 C308 650 279 645 246 645 C212 645 182 650 163 660 C146 668 137 680 126 708 L78 708 Z " />
<glyph glyph-name="dotaccent" unicode="&#x2d9;" horiz-adv-x="483" d="M242 707 C202 707 164 671 164 631 C164 588 199 553 243 553 C285 553 318 587 318 629 C318 672 284 707 242 707 L242 707 Z " />
<glyph glyph-name="ring" unicode="&#x2da;" horiz-adv-x="613" d="M284 793 C210 793 147 732 147 659 C147 581 207 520 284 520 C359 520 420 582 420 657 C420 731 358 793 284 793 L284 793 Z M283 715 C315 715 342 688 342 656 C342 624 316 598 284 598 C251 598 225 624 225 657 C225 688 252 715 283 715 L283 715 Z " />
<glyph glyph-name="ogonek" unicode="&#x2db;" horiz-adv-x="475" d="M277 25 C182 -36 138 -91 138 -151 C138 -200 170 -230 221 -230 C271 -230 309 -200 337 -138 L320 -128 C300 -156 290 -163 269 -163 C243 -163 229 -144 229 -110 C229 -80 242 -44 263 -19 C273 -7 280 0 305 25 L277 25 Z " />
<glyph glyph-name="tilde" unicode="&#x2dc;" horiz-adv-x="492" d="M121 549 C130 582 144 597 168 597 C179 597 189 596 201 592 L262 576 C273 573 285 571 296 571 C326 571 353 583 372 605 C391 629 401 651 414 708 L372 708 C359 672 348 661 324 661 C317 661 308 662 300 664 L238 681 C224 684 210 686 197 686 C133 686 100 649 78 549 L121 549 Z " />
<glyph glyph-name="hungarumlaut" unicode="&#x2dd;" horiz-adv-x="486" d="M120 535 L166 535 L281 637 C301 654 312 674 312 690 C312 716 291 737 265 737 C236 737 222 724 195 674 L120 535 Z M247 535 L294 535 L442 632 C470 650 483 667 483 686 C483 713 462 735 435 735 C408 735 396 726 362 683 L247 535 Z " />
<glyph glyph-name="uni2011" unicode="&#x2011;" horiz-adv-x="275" d="M0 154 L275 154 L275 312 L0 312 L0 154 Z " />
<glyph glyph-name="figuredash" unicode="&#x2012;" horiz-adv-x="522" d="M25 170 L497 170 L497 295 L25 295 L25 170 Z " />
<glyph glyph-name="endash" unicode="&#x2013;" horiz-adv-x="522" d="M25 170 L497 170 L497 295 L25 295 L25 170 Z " />
<glyph glyph-name="emdash" unicode="&#x2014;" horiz-adv-x="774" d="M0 170 L774 170 L774 295 L0 295 L0 170 Z " />
<glyph glyph-name="afii00208" unicode="&#x2015;" horiz-adv-x="774" d="M0 170 L774 170 L774 295 L0 295 L0 170 Z " />
<glyph glyph-name="quoteleft" unicode="&#x2018;" horiz-adv-x="259" d="M215 687 C159 679 131 667 98 639 C56 602 32 553 32 503 C32 436 74 390 133 390 C184 390 222 429 222 482 C222 528 191 563 152 563 C144 563 138 563 129 562 C147 604 162 615 215 624 L215 687 Z " />
<glyph glyph-name="quoteright" unicode="&#x2019;" horiz-adv-x="259" d="M38 393 C94 401 122 412 155 441 C197 477 221 527 221 577 C221 644 179 690 120 690 C69 690 31 651 31 598 C31 552 62 516 102 516 C108 516 115 517 124 518 C106 475 91 464 38 455 L38 393 Z " />
<glyph glyph-name="quotesinglbase" unicode="&#x201a;" horiz-adv-x="259" d="M38 -131 C94 -123 122 -112 155 -83 C197 -47 221 3 221 53 C221 120 179 166 120 166 C69 166 31 127 31 74 C31 28 62 -8 102 -8 C107 -8 115 -7 124 -6 C106 -49 91 -59 38 -68 L38 -131 Z " />
<glyph glyph-name="quotedblleft" unicode="&#x201c;" horiz-adv-x="481" d="M432 692 C376 684 348 673 315 644 C273 607 249 558 249 508 C249 442 291 395 350 395 C401 395 439 434 439 487 C439 533 408 569 369 569 C363 569 355 568 346 567 C364 610 379 620 432 629 L432 692 Z M210 692 C155 684 126 673 93 644 C51 608 27 558 27 508 C27 442 69 395 128 395 C179 395 217 434 217 487 C217 533 186 569 147 569 C141 569 133 568 124 567 C142 610 157 620 210 629 L210 692 Z " />
<glyph glyph-name="quotedblright" unicode="&#x201d;" horiz-adv-x="481" d="M261 393 C317 401 345 412 378 441 C420 477 444 527 444 577 C444 644 402 690 343 690 C292 690 254 651 254 598 C254 552 285 516 325 516 C331 516 338 517 347 518 C329 475 314 465 261 455 L261 393 Z M38 393 C94 401 122 412 155 441 C197 477 221 527 221 577 C221 644 179 690 120 690 C69 690 31 651 31 598 C31 552 62 516 102 516 C108 516 115 517 124 518 C106 475 91 464 38 455 L38 393 Z " />
<glyph glyph-name="quotedblbase" unicode="&#x201e;" horiz-adv-x="481" d="M38 -131 C94 -123 122 -112 155 -83 C197 -47 221 3 221 53 C221 119 179 166 120 166 C69 166 31 127 31 74 C31 28 62 -8 102 -8 C107 -8 115 -7 124 -6 C106 -49 91 -59 38 -68 L38 -131 Z M261 -131 C317 -123 345 -112 378 -83 C420 -47 444 3 444 53 C444 119 402 166 343 166 C292 166 254 127 254 74 C254 28 285 -8 325 -8 C330 -8 338 -7 347 -6 C329 -49 314 -59 261 -68 L261 -131 Z " />
<glyph glyph-name="dagger" unicode="&#x2020;" horiz-adv-x="590" d="M216 431 L198 439 C160 454 148 458 132 458 C89 458 61 428 61 381 C61 335 86 305 125 305 C160 305 176 311 262 358 C263 344 263 337 263 327 C263 286 250 167 230 33 C222 -22 218 -61 218 -89 C218 -128 223 -152 234 -169 C246 -187 272 -200 297 -200 C348 -200 373 -164 373 -91 C373 -61 369 -23 361 33 C338 187 327 281 327 329 C327 334 327 345 328 358 C432 305 432 305 465 305 C505 305 530 334 530 382 C530 428 502 458 459 458 C438 458 431 456 329 412 C331 448 334 465 346 501 C372 585 372 585 372 614 C372 664 347 688 298 688 C243 688 218 665 218 615 C218 587 220 578 244 501 C257 461 260 447 261 412 L216 431 Z " />
<glyph glyph-name="daggerdbl" unicode="&#x2021;" horiz-adv-x="590" d="M218 372 C226 375 241 380 262 385 C261 353 241 296 213 244 C240 199 262 138 263 105 C230 112 230 112 176 136 C166 141 142 145 126 145 C86 145 61 118 61 74 C61 32 89 4 132 4 C153 4 168 9 262 46 C259 15 256 0 245 -32 C219 -106 219 -106 219 -132 C219 -177 244 -199 295 -199 C347 -199 372 -177 372 -133 C372 -108 370 -102 346 -32 C334 3 331 16 329 46 C349 39 365 33 375 29 C381 26 387 24 393 22 C430 7 442 4 459 4 C502 4 530 32 530 75 C530 118 505 145 465 145 C449 145 425 141 415 136 L372 118 C365 115 350 110 328 105 C329 136 350 195 377 244 C348 298 328 354 328 385 C360 378 360 378 415 354 C425 349 449 345 465 345 C505 345 530 372 530 416 C530 458 502 486 459 486 C438 486 428 483 329 443 C331 475 335 490 346 522 C372 596 372 596 372 622 C372 666 348 688 299 688 C243 688 218 668 218 623 C218 598 220 590 244 522 C257 486 259 474 261 443 C256 446 235 454 198 468 C160 483 149 486 132 486 C89 486 61 458 61 415 C61 372 86 345 125 345 C142 345 165 349 176 354 L218 372 Z " />
<glyph glyph-name="bullet" unicode="&#x2022;" horiz-adv-x="633" d="M318 480 C244 480 186 418 186 340 C186 263 244 200 317 200 C389 200 447 263 447 340 C447 417 389 480 318 480 L318 480 Z " />
<glyph glyph-name="ellipsis" unicode="&#x2026;" horiz-adv-x="920" d="M153 166 C106 166 66 126 66 77 C66 24 104 -17 153 -17 C201 -17 240 24 240 75 C240 125 201 166 153 166 L153 166 Z M460 166 C412 166 373 125 373 77 C373 24 411 -17 460 -17 C508 -17 546 24 546 75 C546 125 507 166 460 166 L460 166 Z M766 166 C719 166 679 126 679 77 C679 24 717 -17 766 -17 C814 -17 853 24 853 75 C853 125 814 166 766 166 L766 166 Z " />
<glyph glyph-name="perthousand" unicode="&#x2030;" horiz-adv-x="1319" d="M210 622 C102 622 28 545 28 433 C28 316 99 240 210 240 C318 240 391 317 391 431 C391 546 319 622 210 622 L210 622 Z M210 547 C248 547 264 512 264 431 C264 349 248 315 209 315 C171 315 155 350 155 433 C155 511 172 547 210 547 L210 547 Z M697 365 C589 365 515 288 515 176 C515 59 586 -17 697 -17 C805 -17 878 60 878 174 C878 289 806 365 697 365 L697 365 Z M697 290 C735 290 751 255 751 174 C751 93 735 58 697 58 C658 58 642 92 642 176 C642 254 659 290 697 290 L697 290 Z M226 -17 L317 -17 L677 623 L588 623 L226 -17 Z M1105 365 C997 365 923 288 923 176 C923 59 994 -17 1105 -17 C1213 -17 1286 60 1286 174 C1286 289 1214 365 1105 365 L1105 365 Z M1105 290 C1143 290 1159 255 1159 174 C1159 93 1143 58 1105 58 C1066 58 1050 92 1050 176 C1050 254 1067 290 1105 290 L1105 290 Z " />
<glyph glyph-name="guilsinglleft" unicode="&#x2039;" horiz-adv-x="274" d="M238 67 C188 194 183 209 183 237 C183 265 186 275 231 406 L136 406 C67 310 38 258 38 234 C38 212 43 203 137 67 L238 67 Z " />
<glyph glyph-name="guilsinglright" unicode="&#x203a;" horiz-adv-x="274" d="M139 67 C228 196 238 212 238 234 C238 258 208 311 140 406 L45 406 C90 277 93 265 93 237 C93 209 88 193 38 67 L139 67 Z " />
<glyph glyph-name="uni203E" unicode="&#x203e;" horiz-adv-x="499" d="M0 785 L0 672 L500 672 L500 785 L0 785 Z " />
<glyph glyph-name="fraction" unicode="&#x2044;" horiz-adv-x="156" d="M-156 -17 L-67 -17 L317 622 L227 622 L-156 -17 Z " />
<glyph glyph-name="Euro" unicode="&#x20ac;" horiz-adv-x="773" d="M108 355 C107 334 107 333 107 325 L107 310 L60 310 L24 221 L119 221 C153 66 270 -20 447 -20 C554 -20 639 15 690 81 C724 124 737 166 745 258 L642 258 C636 194 627 166 604 134 C578 99 539 79 499 79 C432 79 388 131 378 221 L454 221 L490 310 L372 310 L372 335 L372 355 L509 355 L545 444 L378 444 C388 535 429 586 494 586 C535 586 569 565 590 528 C606 498 614 474 628 402 L742 402 L742 676 L638 676 L623 640 C554 677 516 687 444 687 C278 687 160 598 121 444 L60 444 L24 355 L108 355 Z " />
<glyph glyph-name="trademark" unicode="&#x2122;" horiz-adv-x="1070" d="M75 519 C77 578 92 598 138 602 L151 602 L151 375 C152 348 150 347 123 346 L91 346 L91 287 L360 287 L360 346 L325 346 C299 346 297 349 297 375 L297 602 L311 602 C356 598 372 577 373 519 L437 519 L437 667 L11 667 L11 519 L75 519 Z M1059 667 L823 667 L753 452 L687 667 L458 667 L458 608 L478 608 C504 607 506 605 506 579 L506 375 C506 349 504 347 478 346 L458 346 L458 287 L643 287 L643 346 L626 346 C599 347 597 349 597 375 L597 581 L687 287 L785 287 L878 582 L878 375 C879 349 877 347 851 346 L834 346 L834 287 L1059 287 L1059 346 L1038 346 C1011 347 1009 349 1010 375 L1010 579 C1009 605 1011 607 1038 608 L1059 608 L1059 667 Z " />
<glyph glyph-name="uni2126" unicode="&#x2126;" horiz-adv-x="768" d="M326 0 L308 155 C230 199 180 288 180 382 C180 434 195 493 221 540 C257 605 317 642 385 642 C453 642 513 605 549 540 C575 493 590 434 590 382 C590 288 540 199 462 155 L444 0 L736 0 L736 153 L712 153 C704 108 684 90 643 90 L497 90 L500 128 C535 141 557 151 580 166 C657 215 702 296 702 382 C702 449 673 522 625 578 C564 648 480 686 385 686 C290 686 206 648 145 578 C97 522 68 449 68 382 C68 296 113 215 190 166 C213 151 235 141 270 128 L273 90 L127 90 C86 90 66 108 58 153 L34 153 L34 0 L326 0 Z " />
<glyph glyph-name="partialdiff" unicode="&#x2202;" horiz-adv-x="494" d="M107 674 C152 697 184 706 219 706 C321 706 379 611 379 447 C379 418 377 394 372 346 C308 396 272 412 221 412 C172 412 131 394 95 355 C51 309 26 246 26 184 C26 76 109 -10 213 -10 C282 -10 341 22 383 84 C429 152 462 286 462 403 C462 519 428 611 360 681 C312 730 259 753 195 753 C155 753 122 746 66 725 L107 674 Z M366 312 C350 201 340 158 314 107 C288 54 245 21 201 21 C146 21 113 73 113 159 C113 273 180 367 261 367 C299 367 324 354 366 312 L366 312 Z " />
<glyph glyph-name="Delta" unicode="&#x2206;" horiz-adv-x="612" d="M6 0 L608 0 L327 688 L6 0 Z M77 51 L290 509 L479 51 L77 51 Z " />
<glyph glyph-name="product" unicode="&#x220f;" horiz-adv-x="823" d="M25 -124 L315 -124 L315 -98 L312 -98 C242 -94 221 -67 224 18 L224 594 C224 656 228 677 242 690 C260 707 272 708 413 708 C556 708 568 707 586 690 C600 677 604 656 604 594 L604 18 C607 -67 586 -94 516 -98 L513 -98 L513 -124 L803 -124 L803 -98 L800 -98 C730 -94 709 -67 712 18 L712 609 C709 694 730 721 800 725 L803 725 L803 751 L25 751 L25 725 L28 725 C98 721 119 694 116 609 L116 18 C119 -67 98 -94 28 -98 L25 -98 L25 -124 Z " />
<glyph glyph-name="summation" unicode="&#x2211;" horiz-adv-x="713" d="M176 711 L444 711 C560 710 590 688 606 587 L632 587 L622 752 L23 752 L256 285 L14 -123 L641 -123 L695 87 L669 87 C639 7 605 -12 491 -11 L163 -11 L364 341 L176 711 Z " />
<glyph glyph-name="minus" unicode="&#x2212;" horiz-adv-x="613" d="M75 387 L75 252 L539 252 L539 387 L75 387 Z " />
<glyph glyph-name="uni2215" unicode="&#x2215;" horiz-adv-x="156" d="M-156 -17 L-67 -17 L317 622 L227 622 L-156 -17 Z " />
<glyph glyph-name="uni2219" unicode="&#x2219;" horiz-adv-x="307" d="M153 326 C106 326 66 286 66 237 C66 184 104 143 153 143 C201 143 240 184 240 235 C240 285 201 326 153 326 L153 326 Z " />
<glyph glyph-name="radical" unicode="&#x221a;" horiz-adv-x="549" d="M363 -35 L515 908 L480 913 L353 123 L156 520 L10 449 L26 414 L121 461 L363 -35 Z " />
<glyph glyph-name="infinity" unicode="&#x221e;" horiz-adv-x="713" d="M357 227 C415 156 485 115 548 115 C631 115 688 176 688 266 C688 354 629 414 543 414 C476 414 412 376 357 303 C300 375 234 414 171 414 C86 414 26 351 26 263 C26 176 84 115 167 115 C224 115 281 142 327 192 L357 227 Z M391 264 C434 325 493 362 546 362 C600 362 638 321 638 264 C638 205 603 167 549 167 C495 167 461 188 391 264 L391 264 Z M324 266 C275 203 216 167 163 167 C111 167 76 207 76 266 C76 323 113 362 167 362 C218 362 258 337 324 266 L324 266 Z " />
<glyph glyph-name="integral" unicode="&#x222b;" horiz-adv-x="274" d="M180 576 C180 653 179 691 176 746 C174 774 173 800 173 815 C173 855 184 878 202 878 C208 878 213 876 215 872 C232 845 239 839 256 839 C276 839 291 853 291 871 C291 898 267 916 231 916 C186 916 152 887 138 838 C123 784 113 682 113 577 L113 232 C113 160 114 124 117 63 C119 34 120 4 120 -12 C120 -47 108 -70 89 -70 C81 -70 74 -65 68 -52 C59 -35 51 -30 37 -30 C17 -30 2 -44 2 -63 C2 -89 26 -107 62 -107 C107 -107 141 -78 155 -29 C170 25 180 126 180 232 L180 576 Z " />
<glyph glyph-name="approxequal" unicode="&#x2248;" horiz-adv-x="549" d="M489 251 C444 199 423 187 384 187 C365 187 354 190 285 211 C212 234 188 239 160 239 C101 239 54 211 14 155 L57 121 C103 174 120 184 159 184 C180 184 180 184 271 157 C350 133 354 132 385 132 C449 132 496 160 527 217 L489 251 Z M489 408 C444 356 423 344 384 344 C365 344 354 347 285 368 C212 391 188 396 160 396 C101 396 54 369 14 312 L57 278 C103 331 120 341 159 341 C180 341 180 341 271 314 C350 290 354 289 385 289 C449 289 496 318 527 375 L489 408 Z " />
<glyph glyph-name="notequal" unicode="&#x2260;" horiz-adv-x="549" d="M187 142 L115 -1 L161 -25 L246 142 L540 142 L540 197 L273 197 L344 336 L540 336 L540 391 L371 391 L439 525 L392 549 L312 391 L15 391 L15 336 L285 336 L215 197 L15 197 L15 142 L187 142 Z " />
<glyph glyph-name="lessequal" unicode="&#x2264;" horiz-adv-x="549" d="M526 55 L29 55 L29 0 L526 0 L526 55 Z M526 639 L29 405 L29 350 L526 117 L526 179 L108 378 L526 577 L526 639 Z " />
<glyph glyph-name="greaterequal" unicode="&#x2265;" horiz-adv-x="549" d="M526 55 L29 55 L29 0 L526 0 L526 55 Z M29 639 L29 577 L447 378 L29 179 L29 117 L526 350 L526 405 L29 639 Z " />
<glyph glyph-name="lozenge" unicode="&#x25ca;" horiz-adv-x="494" d="M209 0 L269 -1 L466 374 L277 740 L214 740 L18 377 L209 0 Z M240 58 L81 376 L245 683 L402 373 L240 58 Z " />
<glyph glyph-name="fi" unicode="&#xfb01;" horiz-adv-x="675" d="M86 378 L86 134 C85 95 79 88 42 87 L19 87 L19 0 L326 0 L326 87 L317 87 C279 87 272 95 272 135 L272 378 L369 378 C403 377 408 371 409 331 L409 134 C408 97 403 90 376 87 L365 87 L365 0 L659 0 L659 87 L645 87 C610 88 605 95 604 134 L604 469 L272 469 L272 504 C272 580 306 616 378 616 C399 616 411 614 435 607 C411 589 403 576 403 553 C403 513 435 489 490 489 C547 489 581 519 581 567 C581 639 493 685 352 685 C292 685 235 677 194 662 C118 635 87 588 87 504 L87 469 L19 469 L19 378 L86 378 Z " />
<glyph glyph-name="fl" unicode="&#xfb02;" horiz-adv-x="675" d="M86 378 L86 134 C85 95 79 88 42 87 L19 87 L19 0 L325 0 L325 87 L316 87 C279 87 272 95 272 135 L272 378 L351 378 L351 469 L272 469 L272 520 C272 578 311 615 371 615 C384 615 393 614 413 609 C399 592 395 583 395 565 C395 545 399 535 413 517 L413 134 C412 97 407 90 380 87 L369 87 L369 0 L659 0 L659 87 L645 87 C610 88 605 95 604 134 L604 667 L481 667 C418 680 387 684 342 684 C256 684 182 665 138 632 C104 606 87 562 87 500 L87 469 L19 469 L19 378 L86 378 Z " />
</font>
</svg>
