<?xml version="1.0" encoding="UTF-8"?>
<svg xmlns="http://www.w3.org/2000/svg" xmlns:xlink="http://www.w3.org/1999/xlink" version="1.2" >
<font id="Bison Light">
<font-face  font-family="Bison" units-per-em="1000" ascent="770" descent="-200" font-style="normal" font-weight="300" font-stretch="normal" cap-height="700" x-height="500" underline-position="-75" underline-thickness="50" />
<missing-glyph  horiz-adv-x="600" d="" />
<glyph glyph-name="space" unicode="&#x20;" horiz-adv-x="155" d="" />
<glyph glyph-name="A" unicode="A" horiz-adv-x="364" d="M321 0 L279 199 L86 199 L43 0 L20 0 L171 700 L193 700 L344 0 L321 0 Z M90 221 L274 221 L182 650 L90 221 Z " />
<glyph glyph-name="Aacute" unicode="&#xc1;" horiz-adv-x="364" d="M321 0 L279 199 L86 199 L43 0 L20 0 L171 700 L193 700 L344 0 L321 0 Z M90 221 L274 221 L182 650 L90 221 Z M266 835 L192 737 L172 737 L235 835 L266 835 Z " />
<glyph glyph-name="Abreve" unicode="&#x102;" horiz-adv-x="364" d="M321 0 L279 199 L86 199 L43 0 L20 0 L171 700 L193 700 L344 0 L321 0 Z M90 221 L274 221 L182 650 L90 221 Z M273 828 Q273 791 246.5 764 Q220 737 182 737 Q145 737 118 764 Q91 791 91 828 L113 828 Q113 800 133.5 779.5 Q154 759 182 759 Q211 759 231 779.5 Q251 800 251 828 L273 828 Z " />
<glyph glyph-name="uni1EAE" unicode="&#x1eae;" horiz-adv-x="364" d="M321 0 L279 199 L86 199 L43 0 L20 0 L171 700 L193 700 L344 0 L321 0 Z M90 221 L274 221 L182 650 L90 221 Z M273 828 Q273 791 246.5 764 Q220 737 182 737 Q145 737 118 764 Q91 791 91 828 L113 828 Q113 800 133.5 779.5 Q154 759 182 759 Q211 759 231 779.5 Q251 800 251 828 L273 828 Z M266 954 L192 856 L172 856 L235 954 L266 954 Z " />
<glyph glyph-name="uni1EB6" unicode="&#x1eb6;" horiz-adv-x="364" d="M321 0 L279 199 L86 199 L43 0 L20 0 L171 700 L193 700 L344 0 L321 0 Z M90 221 L274 221 L182 650 L90 221 Z M273 828 Q273 791 246.5 764 Q220 737 182 737 Q145 737 118 764 Q91 791 91 828 L113 828 Q113 800 133.5 779.5 Q154 759 182 759 Q211 759 231 779.5 Q251 800 251 828 L273 828 Z M321 0 L279 199 L86 199 L43 0 L20 0 L171 700 L193 700 L344 0 L321 0 Z M90 221 L274 221 L182 650 L90 221 Z M273 828 Q273 791 246.5 764 Q220 737 182 737 Q145 737 118 764 Q91 791 91 828 L113 828 Q113 800 133.5 779.5 Q154 759 182 759 Q211 759 231 779.5 Q251 800 251 828 L273 828 Z M208 -66 Q208 -55 200.5 -47.5 Q193 -40 182 -40 Q171 -40 163.5 -47.5 Q156 -55 156 -66 Q156 -77 164 -84.5 Q172 -92 182 -92 Q193 -92 200.5 -84.5 Q208 -77 208 -66 Z " />
<glyph glyph-name="uni1EB0" unicode="&#x1eb0;" horiz-adv-x="364" d="M321 0 L279 199 L86 199 L43 0 L20 0 L171 700 L193 700 L344 0 L321 0 Z M90 221 L274 221 L182 650 L90 221 Z M113 828 Q113 800 133.5 779.5 Q154 759 182 759 Q211 759 231 779.5 Q251 800 251 828 L273 828 Q273 791 246.5 764 Q220 737 182 737 Q145 737 118 764 Q91 791 91 828 L113 828 Z M98 954 L129 954 L192 856 L172 856 L98 954 Z " />
<glyph glyph-name="uni1EB2" unicode="&#x1eb2;" horiz-adv-x="364" d="M321 0 L279 199 L86 199 L43 0 L20 0 L171 700 L193 700 L344 0 L321 0 Z M90 221 L274 221 L182 650 L90 221 Z M273 828 Q273 791 246.5 764 Q220 737 182 737 Q145 737 118 764 Q91 791 91 828 L113 828 Q113 800 133.5 779.5 Q154 759 182 759 Q211 759 231 779.5 Q251 800 251 828 L273 828 Z M172 856 Q172 884 151.5 904.5 Q131 925 102 925 L83 944 Q92 947 102 947 Q139 947 165.5 920.5 Q192 894 192 856 L172 856 Z " />
<glyph glyph-name="uni1EB4" unicode="&#x1eb4;" horiz-adv-x="364" d="M321 0 L279 199 L86 199 L43 0 L20 0 L171 700 L193 700 L344 0 L321 0 Z M90 221 L274 221 L182 650 L90 221 Z M273 828 Q273 791 246.5 764 Q220 737 182 737 Q145 737 118 764 Q91 791 91 828 L113 828 Q113 800 133.5 779.5 Q154 759 182 759 Q211 759 231 779.5 Q251 800 251 828 L273 828 Z M66 856 Q94 890 121 890 Q140 890 166 874 Q196 856 219 856 Q227 856 230 857 Q261 861 290 898 L273 911 Q246 878 219 878 Q201 878 178 892 Q143 912 121 912 L111 911 Q80 907 49 870 L66 856 Z " />
<glyph glyph-name="uni01CD" unicode="&#x1cd;" horiz-adv-x="364" d="M321 0 L279 199 L86 199 L43 0 L20 0 L171 700 L193 700 L344 0 L321 0 Z M90 221 L274 221 L182 650 L90 221 Z M169 737 L101 835 L121 835 L182 758 L243 835 L263 835 L196 737 L169 737 Z " />
<glyph glyph-name="Acircumflex" unicode="&#xc2;" horiz-adv-x="364" d="M321 0 L279 199 L86 199 L43 0 L20 0 L171 700 L193 700 L344 0 L321 0 Z M90 221 L274 221 L182 650 L90 221 Z M169 835 L196 835 L263 737 L243 737 L182 814 L121 737 L101 737 L169 835 Z " />
<glyph glyph-name="uni1EA4" unicode="&#x1ea4;" horiz-adv-x="364" d="M321 0 L279 199 L86 199 L43 0 L20 0 L171 700 L193 700 L344 0 L321 0 Z M90 221 L274 221 L182 650 L90 221 Z M169 835 L196 835 L263 737 L243 737 L182 814 L121 737 L101 737 L169 835 Z M336 935 L262 837 L242 837 L305 935 L336 935 Z " />
<glyph glyph-name="uni1EAC" unicode="&#x1eac;" horiz-adv-x="364" d="M321 0 L279 199 L86 199 L43 0 L20 0 L171 700 L193 700 L344 0 L321 0 Z M90 221 L274 221 L182 650 L90 221 Z M169 835 L196 835 L263 737 L243 737 L182 814 L121 737 L101 737 L169 835 Z M208 -66 Q208 -55 200.5 -47.5 Q193 -40 182 -40 Q171 -40 163.5 -47.5 Q156 -55 156 -66 Q156 -77 164 -84.5 Q172 -92 182 -92 Q193 -92 200.5 -84.5 Q208 -77 208 -66 Z " />
<glyph glyph-name="uni1EA6" unicode="&#x1ea6;" horiz-adv-x="364" d="M321 0 L279 199 L86 199 L43 0 L20 0 L171 700 L193 700 L344 0 L321 0 Z M90 221 L274 221 L182 650 L90 221 Z M169 835 L196 835 L263 737 L243 737 L182 814 L121 737 L101 737 L169 835 Z M168 935 L199 935 L262 837 L242 837 L168 935 Z " />
<glyph glyph-name="uni1EA8" unicode="&#x1ea8;" horiz-adv-x="364" d="M321 0 L279 199 L86 199 L43 0 L20 0 L171 700 L193 700 L344 0 L321 0 Z M90 221 L274 221 L182 650 L90 221 Z M169 835 L196 835 L263 737 L243 737 L182 814 L121 737 L101 737 L169 835 Z M172 856 Q172 884 151.5 904.5 Q131 925 102 925 L83 944 Q92 947 102 947 Q139 947 165.5 920.5 Q192 894 192 856 L172 856 Z " />
<glyph glyph-name="uni1EAA" unicode="&#x1eaa;" horiz-adv-x="364" d="M321 0 L279 199 L86 199 L43 0 L20 0 L171 700 L193 700 L344 0 L321 0 Z M90 221 L274 221 L182 650 L90 221 Z M169 835 L196 835 L263 737 L243 737 L182 814 L121 737 L101 737 L169 835 Z M78 856 Q106 890 133 890 Q152 890 178 874 Q208 856 231 856 Q239 856 242 857 Q273 861 302 898 L285 911 Q258 878 231 878 Q213 878 190 892 Q155 912 133 912 L123 911 Q92 907 61 870 L78 856 Z " />
<glyph glyph-name="Adieresis" unicode="&#xc4;" horiz-adv-x="364" d="M321 0 L279 199 L86 199 L43 0 L20 0 L171 700 L193 700 L344 0 L321 0 Z M90 221 L274 221 L182 650 L90 221 Z M141 763 Q141 774 133.5 781.5 Q126 789 115 789 Q104 789 96.5 781.5 Q89 774 89 763 Q89 753 97 745 Q105 737 115 737 Q126 737 133.5 744.5 Q141 752 141 763 Z M275 763 Q275 774 267.5 781.5 Q260 789 249 789 Q238 789 230.5 781.5 Q223 774 223 763 Q223 753 231 745 Q239 737 249 737 Q260 737 267.5 744.5 Q275 752 275 763 Z " />
<glyph glyph-name="uni01DE" unicode="&#x1de;" horiz-adv-x="379" d="M321 0 L279 199 L86 199 L43 0 L20 0 L171 700 L193 700 L344 0 L321 0 Z M90 221 L274 221 L182 650 L90 221 Z M141 763 Q141 774 133.5 781.5 Q126 789 115 789 Q104 789 96.5 781.5 Q89 774 89 763 Q89 753 97 745 Q105 737 115 737 Q126 737 133.5 744.5 Q141 752 141 763 Z M275 763 Q275 774 267.5 781.5 Q260 789 249 789 Q238 789 230.5 781.5 Q223 774 223 763 Q223 753 231 745 Q239 737 249 737 Q260 737 267.5 744.5 Q275 752 275 763 Z M359 827 L359 849 L25 849 L25 827 L359 827 Z " />
<glyph glyph-name="uni1EA0" unicode="&#x1ea0;" horiz-adv-x="364" d="M321 0 L279 199 L86 199 L43 0 L20 0 L171 700 L193 700 L344 0 L321 0 Z M90 221 L274 221 L182 650 L90 221 Z M208 -66 Q208 -55 200.5 -47.5 Q193 -40 182 -40 Q171 -40 163.5 -47.5 Q156 -55 156 -66 Q156 -77 164 -84.5 Q172 -92 182 -92 Q193 -92 200.5 -84.5 Q208 -77 208 -66 Z " />
<glyph glyph-name="Agrave" unicode="&#xc0;" horiz-adv-x="364" d="M321 0 L279 199 L86 199 L43 0 L20 0 L171 700 L193 700 L344 0 L321 0 Z M90 221 L274 221 L182 650 L90 221 Z M98 835 L129 835 L192 737 L172 737 L98 835 Z " />
<glyph glyph-name="uni1EA2" unicode="&#x1ea2;" horiz-adv-x="364" d="M321 0 L279 199 L86 199 L43 0 L20 0 L171 700 L193 700 L344 0 L321 0 Z M90 221 L274 221 L182 650 L90 221 Z M172 737 Q172 765 151.5 785.5 Q131 806 102 806 L83 825 Q92 828 102 828 Q139 828 165.5 801.5 Q192 775 192 737 L172 737 Z " />
<glyph glyph-name="Amacron" unicode="&#x100;" horiz-adv-x="374" d="M326 0 L284 199 L91 199 L48 0 L25 0 L176 700 L198 700 L349 0 L326 0 Z M95 221 L279 221 L187 650 L95 221 Z M354 737 L354 759 L20 759 L20 737 L354 737 Z " />
<glyph glyph-name="Aogonek" unicode="&#x104;" horiz-adv-x="364" d="M285 -60 Q285 -81 328 -81 L337 -81 L337 -104 L318 -104 Q289 -104 270 -97 Q251 -90 251 -69 Q251 -33 320 0 L321 0 L279 199 L86 199 L43 0 L20 0 L171 700 L193 700 L344 0 Q312 -18 298.5 -32 Q285 -46 285 -60 Z M90 221 L274 221 L182 650 L90 221 Z " />
<glyph glyph-name="Aring" unicode="&#xc5;" horiz-adv-x="364" d="M321 0 L279 199 L86 199 L43 0 L20 0 L171 700 L193 700 L344 0 L321 0 Z M90 221 L274 221 L182 650 L90 221 Z M182 737 Q204 737 219.5 752.5 Q235 768 235 790 Q235 812 219.5 827.5 Q204 843 182 843 Q160 843 144.5 827.5 Q129 812 129 790 Q129 768 144.5 752.5 Q160 737 182 737 Z M182 821 Q195 821 204 812 Q213 803 213 790 Q213 777 204 768 Q195 759 182 759 Q169 759 160 768 Q151 777 151 790 Q151 803 160 812 Q169 821 182 821 Z " />
<glyph glyph-name="Atilde" unicode="&#xc3;" horiz-adv-x="364" d="M321 0 L279 199 L86 199 L43 0 L20 0 L171 700 L193 700 L344 0 L321 0 Z M90 221 L274 221 L182 650 L90 221 Z M76 738 Q104 772 131 772 Q150 772 176 756 Q206 738 229 738 Q237 738 240 739 Q271 743 300 780 L283 793 Q256 760 229 760 Q211 760 188 774 Q153 794 131 794 L121 793 Q90 789 59 752 L76 738 Z " />
<glyph glyph-name="AE" unicode="&#xc6;" horiz-adv-x="518" d="M241 700 L278 700 L494 700 L494 678 L281 678 L281 370 L430 370 L430 348 L281 348 L281 22 L494 22 L494 0 L259 0 L259 161 L94 161 L43 0 L20 0 L241 700 Z M259 183 L259 676 L101 183 L259 183 Z " />
<glyph glyph-name="B" unicode="B" horiz-adv-x="351" d="M179 0 Q242 0 276 31 Q317 66 317 141 L317 214 Q317 288 277 327 Q256 345 231 353 Q248 361 259 372 Q300 409 300 484 L300 558 Q300 632 259 668 Q224 700 162 700 L40 700 L40 0 L179 0 Z M62 338 L179 338 Q233 338 262 310 Q295 280 295 214 L295 141 Q295 22 179 22 L62 22 L62 338 Z M62 678 L162 678 Q278 678 278 558 L278 484 Q278 419 244 388 Q216 360 162 360 L62 360 L62 678 Z " />
<glyph glyph-name="uni1E04" unicode="&#x1e04;" horiz-adv-x="351" d="M179 0 Q242 0 276 31 Q317 66 317 141 L317 214 Q317 288 277 327 Q256 345 231 353 Q248 361 259 372 Q300 409 300 484 L300 558 Q300 632 259 668 Q224 700 162 700 L40 700 L40 0 L179 0 Z M62 338 L179 338 Q233 338 262 310 Q295 280 295 214 L295 141 Q295 22 179 22 L62 22 L62 338 Z M62 678 L162 678 Q278 678 278 558 L278 484 Q278 419 244 388 Q216 360 162 360 L62 360 L62 678 Z M206 -66 Q206 -55 198.5 -47.5 Q191 -40 180 -40 Q169 -40 161.5 -47.5 Q154 -55 154 -66 Q154 -77 162 -84.5 Q170 -92 180 -92 Q191 -92 198.5 -84.5 Q206 -77 206 -66 Z " />
<glyph glyph-name="uni0181" unicode="&#x181;" horiz-adv-x="386" d="M312 327 Q352 288 352 214 L352 141 Q352 66 311 31 Q277 0 214 0 L75 0 L75 678 L33 678 Q20 678 11 669 Q2 660 2 647 L-20 647 Q-20 669 -4.5 684.5 Q11 700 33 700 L197 700 Q259 700 294 668 Q335 632 335 558 L335 484 Q335 409 294 372 Q283 361 266 353 Q291 345 312 327 Z M97 360 L197 360 Q251 360 279 388 Q313 419 313 484 L313 558 Q313 678 197 678 L97 678 L97 360 Z M330 214 Q330 280 297 310 Q268 338 214 338 L97 338 L97 22 L214 22 Q330 22 330 141 L330 214 Z " />
<glyph glyph-name="uni0243" unicode="&#x243;" horiz-adv-x="381" d="M306 327 Q347 289 347 215 L347 141 Q347 66 306 31 Q270 0 209 0 L70 0 L70 169 L0 169 L0 191 L70 191 L70 700 L191 700 Q252 700 289 668 Q330 632 330 558 L330 484 Q330 410 289 372 Q278 361 261 353 Q287 344 306 327 Z M92 360 L191 360 Q244 360 274 388 Q308 419 308 484 L308 558 Q308 678 191 678 L92 678 L92 360 Z M325 215 Q325 280 291 311 Q263 338 209 338 L92 338 L92 191 L163 191 L163 169 L92 169 L92 22 L209 22 Q325 22 325 141 L325 215 Z " />
<glyph glyph-name="C" unicode="C" horiz-adv-x="343" d="M172 -9 Q234 -9 270 25 Q311 63 311 137 L311 240 L289 240 L289 137 Q289 72 255 41 Q225 13 172 13 Q120 13 90 41 Q56 72 56 137 L56 563 Q56 628 90 659 Q120 687 172 687 Q225 687 255 659 Q289 628 289 563 L289 493 L311 493 L311 563 Q311 637 270 675 Q234 709 172 709 Q111 709 75 675 Q34 638 34 563 L34 137 Q34 62 75 25 Q111 -9 172 -9 Z " />
<glyph glyph-name="Cacute" unicode="&#x106;" horiz-adv-x="343" d="M172 -9 Q234 -9 270 25 Q311 63 311 137 L311 240 L289 240 L289 137 Q289 72 255 41 Q225 13 172 13 Q120 13 90 41 Q56 72 56 137 L56 563 Q56 628 90 659 Q120 687 172 687 Q225 687 255 659 Q289 628 289 563 L289 493 L311 493 L311 563 Q311 637 270 675 Q234 709 172 709 Q111 709 75 675 Q34 638 34 563 L34 137 Q34 62 75 25 Q111 -9 172 -9 Z M257 835 L183 737 L163 737 L226 835 L257 835 Z " />
<glyph glyph-name="Ccaron" unicode="&#x10c;" horiz-adv-x="343" d="M172 -9 Q234 -9 270 25 Q311 63 311 137 L311 240 L289 240 L289 137 Q289 72 255 41 Q225 13 172 13 Q120 13 90 41 Q56 72 56 137 L56 563 Q56 628 90 659 Q120 687 172 687 Q225 687 255 659 Q289 628 289 563 L289 493 L311 493 L311 563 Q311 637 270 675 Q234 709 172 709 Q111 709 75 675 Q34 638 34 563 L34 137 Q34 62 75 25 Q111 -9 172 -9 Z M160 737 L92 835 L112 835 L173 758 L234 835 L254 835 L187 737 L160 737 Z " />
<glyph glyph-name="Ccedilla" unicode="&#xc7;" horiz-adv-x="343" d="M289 492 L289 563 Q289 628 255 659 Q225 687 172 687 Q120 687 90 659 Q56 628 56 563 L56 136 Q56 71 90 40 Q120 12 172 12 Q225 12 255 40 Q289 71 289 136 L289 239 L311 239 L311 136 Q311 62 270 24 Q239 -6 183 -9 Q185 -19 194 -26 Q194 -26 196 -28 Q209 -37 217 -47.5 Q225 -58 225 -76 Q225 -98 209.5 -113.5 Q194 -129 172 -129 Q150 -129 134.5 -113.5 Q119 -98 119 -76 L141 -76 Q141 -89 150 -98 Q159 -107 172 -107 Q185 -107 194 -98 Q203 -89 203 -76 Q203 -65 198.5 -59 Q194 -53 183 -45 L181 -44 Q163 -30 161 -9 Q106 -6 75 24 Q34 62 34 136 L34 563 Q34 637 75 675 Q111 709 172 709 Q234 709 270 675 Q311 637 311 563 L311 492 L289 492 Z " />
<glyph glyph-name="Cdotaccent" unicode="&#x10a;" horiz-adv-x="343" d="M172 -9 Q234 -9 270 25 Q311 63 311 137 L311 240 L289 240 L289 137 Q289 72 255 41 Q225 13 172 13 Q120 13 90 41 Q56 72 56 137 L56 563 Q56 628 90 659 Q120 687 172 687 Q225 687 255 659 Q289 628 289 563 L289 493 L311 493 L311 563 Q311 637 270 675 Q234 709 172 709 Q111 709 75 675 Q34 638 34 563 L34 137 Q34 62 75 25 Q111 -9 172 -9 Z M198 763 Q198 774 190.5 781.5 Q183 789 172 789 Q161 789 153.5 781.5 Q146 774 146 763 Q146 753 154 745 Q162 737 172 737 Q183 737 190.5 744.5 Q198 752 198 763 Z " />
<glyph glyph-name="uni0187" unicode="&#x187;" horiz-adv-x="343" d="M289 709 Q289 731 304.5 746.5 Q320 762 342 762 L342 740 Q329 740 320 731 Q311 722 311 709 L311 493 L289 493 L289 563 Q289 628 255 659 Q225 687 172 687 Q120 687 90 659 Q56 628 56 563 L56 137 Q56 72 90 41 Q120 13 172 13 Q225 13 255 41 Q289 72 289 137 L289 240 L311 240 L311 137 Q311 63 270 25 Q234 -9 172 -9 Q111 -9 75 25 Q34 62 34 137 L34 563 Q34 638 75 675 Q111 709 172 709 Q234 709 270 675 Q284 661 289 652 L289 709 Z " />
<glyph glyph-name="D" unicode="D" horiz-adv-x="353" d="M178 0 Q241 0 276 31 Q317 67 317 141 L317 555 Q317 629 276 667 Q240 700 178 700 L40 700 L40 0 L178 0 Z M62 678 L178 678 Q233 678 261 651 Q295 620 295 555 L295 141 Q295 22 178 22 L62 22 L62 678 Z " />
<glyph glyph-name="uni0189" unicode="&#x189;" horiz-adv-x="358" d="M281 666 Q322 628 322 554 L322 141 Q322 67 281 31 Q245 0 183 0 L45 0 L45 338 L5 338 L5 360 L45 360 L45 700 L183 700 Q245 700 281 666 Z M300 554 Q300 619 266 650 Q236 678 183 678 L67 678 L67 360 L147 360 L147 338 L67 338 L67 22 L183 22 Q300 22 300 141 L300 554 Z " />
<glyph glyph-name="Eth" unicode="&#xd0;" horiz-adv-x="358" d="M281 666 Q322 628 322 554 L322 141 Q322 67 281 31 Q245 0 183 0 L45 0 L45 338 L5 338 L5 360 L45 360 L45 700 L183 700 Q245 700 281 666 Z M300 554 Q300 619 266 650 Q236 678 183 678 L67 678 L67 360 L147 360 L147 338 L67 338 L67 22 L183 22 Q300 22 300 141 L300 554 Z " />
<glyph glyph-name="Dcaron" unicode="&#x10e;" horiz-adv-x="353" d="M178 0 Q241 0 276 31 Q317 67 317 141 L317 555 Q317 629 276 667 Q240 700 178 700 L40 700 L40 0 L178 0 Z M62 678 L178 678 Q233 678 261 651 Q295 620 295 555 L295 141 Q295 22 178 22 L62 22 L62 678 Z M165 737 L97 835 L117 835 L178 758 L239 835 L259 835 L192 737 L165 737 Z " />
<glyph glyph-name="uni1E12" unicode="&#x1e12;" horiz-adv-x="353" d="M178 0 Q241 0 276 31 Q317 67 317 141 L317 555 Q317 629 276 667 Q240 700 178 700 L40 700 L40 0 L178 0 Z M62 678 L178 678 Q233 678 261 651 Q295 620 295 555 L295 141 Q295 22 178 22 L62 22 L62 678 Z M165 -40 L192 -40 L259 -138 L239 -138 L178 -61 L117 -138 L97 -138 L165 -40 Z " />
<glyph glyph-name="Dcroat" unicode="&#x110;" horiz-adv-x="358" d="M281 666 Q322 628 322 554 L322 141 Q322 67 281 31 Q245 0 183 0 L45 0 L45 338 L5 338 L5 360 L45 360 L45 700 L183 700 Q245 700 281 666 Z M300 554 Q300 619 266 650 Q236 678 183 678 L67 678 L67 360 L147 360 L147 338 L67 338 L67 22 L183 22 Q300 22 300 141 L300 554 Z " />
<glyph glyph-name="uni1E0C" unicode="&#x1e0c;" horiz-adv-x="353" d="M178 0 Q241 0 276 31 Q317 67 317 141 L317 555 Q317 629 276 667 Q240 700 178 700 L40 700 L40 0 L178 0 Z M62 678 L178 678 Q233 678 261 651 Q295 620 295 555 L295 141 Q295 22 178 22 L62 22 L62 678 Z M204 -66 Q204 -55 196.5 -47.5 Q189 -40 178 -40 Q167 -40 159.5 -47.5 Q152 -55 152 -66 Q152 -77 160 -84.5 Q168 -92 178 -92 Q189 -92 196.5 -84.5 Q204 -77 204 -66 Z " />
<glyph glyph-name="uni018A" unicode="&#x18a;" horiz-adv-x="388" d="M311 667 Q352 629 352 555 L352 141 Q352 67 311 31 Q276 0 213 0 L75 0 L75 678 L33 678 Q20 678 11 669 Q2 660 2 647 L-20 647 Q-20 669 -4.5 684.5 Q11 700 33 700 L213 700 Q275 700 311 667 Z M330 555 Q330 620 296 651 Q268 678 213 678 L97 678 L97 22 L213 22 Q330 22 330 141 L330 555 Z " />
<glyph glyph-name="uni1E0E" unicode="&#x1e0e;" horiz-adv-x="353" d="M178 0 Q241 0 276 31 Q317 67 317 141 L317 555 Q317 629 276 667 Q240 700 178 700 L40 700 L40 0 L178 0 Z M62 678 L178 678 Q233 678 261 651 Q295 620 295 555 L295 141 Q295 22 178 22 L62 22 L62 678 Z M346 -62 L346 -40 L12 -40 L12 -62 L346 -62 Z " />
<glyph glyph-name="E" unicode="E" horiz-adv-x="299" d="M275 678 L62 678 L62 370 L211 370 L211 348 L62 348 L62 22 L275 22 L275 0 L40 0 L40 700 L275 700 L275 678 Z " />
<glyph glyph-name="Eacute" unicode="&#xc9;" horiz-adv-x="299" d="M275 678 L62 678 L62 370 L211 370 L211 348 L62 348 L62 22 L275 22 L275 0 L40 0 L40 700 L275 700 L275 678 Z M242 835 L168 737 L148 737 L211 835 L242 835 Z " />
<glyph glyph-name="Ecaron" unicode="&#x11a;" horiz-adv-x="299" d="M145 737 L77 835 L97 835 L158 758 L219 835 L239 835 L172 737 L145 737 Z M275 678 L62 678 L62 370 L211 370 L211 348 L62 348 L62 22 L275 22 L275 0 L40 0 L40 700 L275 700 L275 678 Z " />
<glyph glyph-name="uni0228" unicode="&#x228;" horiz-adv-x="299" d="M62 678 L62 370 L211 370 L211 348 L62 348 L62 22 L275 22 L275 0 L168 0 Q170 -10 179 -17 Q179 -17 181 -19 Q194 -28 202 -38.5 Q210 -49 210 -67 Q210 -89 194.5 -104.5 Q179 -120 157 -120 Q135 -120 119.5 -104.5 Q104 -89 104 -67 L126 -67 Q126 -80 135 -89 Q144 -98 157 -98 Q170 -98 179 -89 Q188 -80 188 -67 Q188 -56 183.5 -50 Q179 -44 168 -36 L166 -35 Q148 -21 146 0 L40 0 L40 700 L275 700 L275 678 L62 678 Z " />
<glyph glyph-name="Ecircumflex" unicode="&#xca;" horiz-adv-x="299" d="M275 678 L62 678 L62 370 L211 370 L211 348 L62 348 L62 22 L275 22 L275 0 L40 0 L40 700 L275 700 L275 678 Z M145 835 L172 835 L239 737 L219 737 L158 814 L97 737 L77 737 L145 835 Z " />
<glyph glyph-name="uni1EBE" unicode="&#x1ebe;" horiz-adv-x="299" d="M275 678 L62 678 L62 370 L211 370 L211 348 L62 348 L62 22 L275 22 L275 0 L40 0 L40 700 L275 700 L275 678 Z M145 835 L172 835 L239 737 L219 737 L158 814 L97 737 L77 737 L145 835 Z M312 935 L238 837 L218 837 L281 935 L312 935 Z " />
<glyph glyph-name="uni1EC6" unicode="&#x1ec6;" horiz-adv-x="299" d="M275 678 L62 678 L62 370 L211 370 L211 348 L62 348 L62 22 L275 22 L275 0 L40 0 L40 700 L275 700 L275 678 Z M145 835 L172 835 L239 737 L219 737 L158 814 L97 737 L77 737 L145 835 Z M184 -66 Q184 -55 176.5 -47.5 Q169 -40 158 -40 Q147 -40 139.5 -47.5 Q132 -55 132 -66 Q132 -77 140 -84.5 Q148 -92 158 -92 Q169 -92 176.5 -84.5 Q184 -77 184 -66 Z " />
<glyph glyph-name="uni1EC0" unicode="&#x1ec0;" horiz-adv-x="299" d="M275 678 L62 678 L62 370 L211 370 L211 348 L62 348 L62 22 L275 22 L275 0 L40 0 L40 700 L275 700 L275 678 Z M145 835 L172 835 L239 737 L219 737 L158 814 L97 737 L77 737 L145 835 Z M144 935 L175 935 L238 837 L218 837 L144 935 Z " />
<glyph glyph-name="uni1EC2" unicode="&#x1ec2;" horiz-adv-x="299" d="M275 678 L62 678 L62 370 L211 370 L211 348 L62 348 L62 22 L275 22 L275 0 L40 0 L40 700 L275 700 L275 678 Z M145 835 L172 835 L239 737 L219 737 L158 814 L97 737 L77 737 L145 835 Z M148 856 Q148 884 127.5 904.5 Q107 925 78 925 L59 944 Q68 947 78 947 Q115 947 141.5 920.5 Q168 894 168 856 L148 856 Z " />
<glyph glyph-name="uni1EC4" unicode="&#x1ec4;" horiz-adv-x="299" d="M275 678 L62 678 L62 370 L211 370 L211 348 L62 348 L62 22 L275 22 L275 0 L40 0 L40 700 L275 700 L275 678 Z M145 835 L172 835 L239 737 L219 737 L158 814 L97 737 L77 737 L145 835 Z M54 856 Q82 890 109 890 Q128 890 154 874 Q184 856 207 856 Q215 856 218 857 Q249 861 278 898 L261 911 Q234 878 207 878 Q189 878 166 892 Q131 912 109 912 L99 911 Q68 907 37 870 L54 856 Z " />
<glyph glyph-name="Edieresis" unicode="&#xcb;" horiz-adv-x="299" d="M275 678 L62 678 L62 370 L211 370 L211 348 L62 348 L62 22 L275 22 L275 0 L40 0 L40 700 L275 700 L275 678 Z M117 763 Q117 774 109.5 781.5 Q102 789 91 789 Q80 789 72.5 781.5 Q65 774 65 763 Q65 753 73 745 Q81 737 91 737 Q102 737 109.5 744.5 Q117 752 117 763 Z M251 763 Q251 774 243.5 781.5 Q236 789 225 789 Q214 789 206.5 781.5 Q199 774 199 763 Q199 753 207 745 Q215 737 225 737 Q236 737 243.5 744.5 Q251 752 251 763 Z " />
<glyph glyph-name="Edotaccent" unicode="&#x116;" horiz-adv-x="299" d="M275 678 L62 678 L62 370 L211 370 L211 348 L62 348 L62 22 L275 22 L275 0 L40 0 L40 700 L275 700 L275 678 Z M184 763 Q184 774 176.5 781.5 Q169 789 158 789 Q147 789 139.5 781.5 Q132 774 132 763 Q132 753 140 745 Q148 737 158 737 Q169 737 176.5 744.5 Q184 752 184 763 Z " />
<glyph glyph-name="uni1EB8" unicode="&#x1eb8;" horiz-adv-x="299" d="M275 678 L62 678 L62 370 L211 370 L211 348 L62 348 L62 22 L275 22 L275 0 L40 0 L40 700 L275 700 L275 678 Z M184 -66 Q184 -55 176.5 -47.5 Q169 -40 158 -40 Q147 -40 139.5 -47.5 Q132 -55 132 -66 Q132 -77 140 -84.5 Q148 -92 158 -92 Q169 -92 176.5 -84.5 Q184 -77 184 -66 Z " />
<glyph glyph-name="Egrave" unicode="&#xc8;" horiz-adv-x="299" d="M275 678 L62 678 L62 370 L211 370 L211 348 L62 348 L62 22 L275 22 L275 0 L40 0 L40 700 L275 700 L275 678 Z M74 835 L105 835 L168 737 L148 737 L74 835 Z " />
<glyph glyph-name="uni1EBA" unicode="&#x1eba;" horiz-adv-x="299" d="M275 678 L62 678 L62 370 L211 370 L211 348 L62 348 L62 22 L275 22 L275 0 L40 0 L40 700 L275 700 L275 678 Z M148 737 Q148 765 127.5 785.5 Q107 806 78 806 L59 825 Q68 828 78 828 Q115 828 141.5 801.5 Q168 775 168 737 L148 737 Z " />
<glyph glyph-name="Emacron" unicode="&#x112;" horiz-adv-x="299" d="M275 678 L62 678 L62 370 L211 370 L211 348 L62 348 L62 22 L275 22 L275 0 L40 0 L40 700 L275 700 L275 678 Z M325 737 L325 759 L-9 759 L-9 737 L325 737 Z " />
<glyph glyph-name="Eogonek" unicode="&#x118;" horiz-adv-x="299" d="M62 678 L62 370 L211 370 L211 348 L62 348 L62 22 L275 22 L275 0 Q243 -18 229.5 -32 Q216 -46 216 -60 Q216 -81 259 -81 L268 -81 L268 -104 L249 -104 Q220 -104 201 -97 Q182 -90 182 -69 Q182 -33 251 0 L40 0 L40 700 L275 700 L275 678 L62 678 Z " />
<glyph glyph-name="uni018E" unicode="&#x18e;" horiz-adv-x="299" d="M24 678 L24 700 L259 700 L259 0 L24 0 L24 22 L237 22 L237 348 L88 348 L88 370 L237 370 L237 678 L24 678 Z " />
<glyph glyph-name="uni1EBC" unicode="&#x1ebc;" horiz-adv-x="299" d="M275 678 L62 678 L62 370 L211 370 L211 348 L62 348 L62 22 L275 22 L275 0 L40 0 L40 700 L275 700 L275 678 Z M54 737 Q82 771 109 771 Q128 771 154 755 Q184 737 207 737 Q215 737 218 738 Q249 742 278 779 L261 792 Q234 759 207 759 Q189 759 166 773 Q131 793 109 793 L99 792 Q68 788 37 751 L54 737 Z " />
<glyph glyph-name="F" unicode="F" horiz-adv-x="292" d="M275 678 L62 678 L62 369 L211 369 L211 347 L62 347 L62 0 L40 0 L40 700 L275 700 L275 678 Z " />
<glyph glyph-name="uni0191" unicode="&#x191;" horiz-adv-x="292" d="M62 678 L62 369 L211 369 L211 347 L62 347 L62 -42 Q62 -64 46.5 -79.5 Q31 -95 9 -95 L9 -73 Q22 -73 31 -64 Q40 -55 40 -42 L40 700 L275 700 L275 678 L62 678 Z " />
<glyph glyph-name="G" unicode="G" horiz-adv-x="346" d="M173 -9 Q235 -9 271 24 Q312 62 312 136 L312 361 L173 361 L173 339 L290 339 L290 136 Q290 72 256 40 Q226 13 173 13 Q119 13 90 40 Q56 71 56 136 L56 563 Q56 628 90 659 Q120 687 173 687 Q225 687 256 659 Q290 627 290 563 L290 493 L312 493 L312 563 Q312 637 271 675 Q234 709 173 709 Q112 709 75 675 Q34 637 34 563 L34 136 Q34 62 75 24 Q111 -9 173 -9 Z " />
<glyph glyph-name="Gbreve" unicode="&#x11e;" horiz-adv-x="346" d="M173 -9 Q235 -9 271 24 Q312 62 312 136 L312 361 L173 361 L173 339 L290 339 L290 136 Q290 72 256 40 Q226 13 173 13 Q119 13 90 40 Q56 71 56 136 L56 563 Q56 628 90 659 Q120 687 173 687 Q225 687 256 659 Q290 627 290 563 L290 493 L312 493 L312 563 Q312 637 271 675 Q234 709 173 709 Q112 709 75 675 Q34 637 34 563 L34 136 Q34 62 75 24 Q111 -9 173 -9 Z M264 828 Q264 791 237.5 764 Q211 737 173 737 Q136 737 109 764 Q82 791 82 828 L104 828 Q104 800 124.5 779.5 Q145 759 173 759 Q202 759 222 779.5 Q242 800 242 828 L264 828 Z " />
<glyph glyph-name="Gcaron" unicode="&#x1e6;" horiz-adv-x="346" d="M173 -9 Q235 -9 271 24 Q312 62 312 136 L312 361 L173 361 L173 339 L290 339 L290 136 Q290 72 256 40 Q226 13 173 13 Q119 13 90 40 Q56 71 56 136 L56 563 Q56 628 90 659 Q120 687 173 687 Q225 687 256 659 Q290 627 290 563 L290 493 L312 493 L312 563 Q312 637 271 675 Q234 709 173 709 Q112 709 75 675 Q34 637 34 563 L34 136 Q34 62 75 24 Q111 -9 173 -9 Z M159 737 L91 835 L111 835 L172 758 L233 835 L253 835 L186 737 L159 737 Z " />
<glyph glyph-name="Gcommaaccent" unicode="&#x122;" horiz-adv-x="346" d="M173 -9 Q235 -9 271 24 Q312 62 312 136 L312 361 L173 361 L173 339 L290 339 L290 136 Q290 72 256 40 Q226 13 173 13 Q119 13 90 40 Q56 71 56 136 L56 563 Q56 628 90 659 Q120 687 173 687 Q225 687 256 659 Q290 627 290 563 L290 493 L312 493 L312 563 Q312 637 271 675 Q234 709 173 709 Q112 709 75 675 Q34 637 34 563 L34 136 Q34 62 75 24 Q111 -9 173 -9 Z M199 -66 Q199 -76 192 -90 Q190 -94 175 -118 L155 -118 L161 -104 Q163 -100 163 -97 Q163 -92 159 -88 Q147 -79 147 -66 Q147 -56 155 -48 Q163 -40 173 -40 Q184 -40 191.5 -48 Q199 -56 199 -66 Z " />
<glyph glyph-name="Gdotaccent" unicode="&#x120;" horiz-adv-x="346" d="M173 -9 Q235 -9 271 24 Q312 62 312 136 L312 361 L173 361 L173 339 L290 339 L290 136 Q290 72 256 40 Q226 13 173 13 Q119 13 90 40 Q56 71 56 136 L56 563 Q56 628 90 659 Q120 687 173 687 Q225 687 256 659 Q290 627 290 563 L290 493 L312 493 L312 563 Q312 637 271 675 Q234 709 173 709 Q112 709 75 675 Q34 637 34 563 L34 136 Q34 62 75 24 Q111 -9 173 -9 Z M198 763 Q198 774 190.5 781.5 Q183 789 172 789 Q161 789 153.5 781.5 Q146 774 146 763 Q146 753 154 745 Q162 737 172 737 Q183 737 190.5 744.5 Q198 752 198 763 Z " />
<glyph glyph-name="uni0193" unicode="&#x193;" horiz-adv-x="346" d="M290 709 Q290 731 305.5 746.5 Q321 762 343 762 L343 740 Q330 740 321 731 Q312 722 312 709 L312 493 L290 493 L290 563 Q290 627 256 659 Q225 687 173 687 Q120 687 90 659 Q56 628 56 563 L56 136 Q56 71 90 40 Q119 13 173 13 Q226 13 256 40 Q290 72 290 136 L290 339 L173 339 L173 361 L312 361 L312 136 Q312 62 271 24 Q235 -9 173 -9 Q111 -9 75 24 Q34 62 34 136 L34 563 Q34 637 75 675 Q112 709 173 709 Q234 709 271 675 Q285 661 290 652 L290 709 Z " />
<glyph glyph-name="H" unicode="H" horiz-adv-x="367" d="M300 700 L322 700 L322 0 L300 0 L300 348 L67 348 L67 0 L45 0 L45 700 L67 700 L67 370 L300 370 L300 700 Z " />
<glyph glyph-name="Hbar" unicode="&#x126;" horiz-adv-x="377" d="M367 547 L367 525 L327 525 L327 0 L305 0 L305 348 L72 348 L72 0 L50 0 L50 525 L10 525 L10 547 L50 547 L50 700 L72 700 L72 547 L305 547 L305 700 L327 700 L327 547 L367 547 Z M305 370 L305 525 L72 525 L72 370 L305 370 Z " />
<glyph glyph-name="uni1E24" unicode="&#x1e24;" horiz-adv-x="367" d="M300 700 L322 700 L322 0 L300 0 L300 348 L67 348 L67 0 L45 0 L45 700 L67 700 L67 370 L300 370 L300 700 Z M210 -66 Q210 -76 203 -90 Q201 -94 186 -118 L166 -118 L172 -104 Q174 -100 174 -97 Q174 -92 170 -88 Q158 -79 158 -66 Q158 -56 166 -48 Q174 -40 184 -40 Q195 -40 202.5 -48 Q210 -56 210 -66 Z " />
<glyph glyph-name="uniA7AA" unicode="&#xa7aa;" horiz-adv-x="397" d="M352 700 L352 0 L330 0 L330 348 L97 348 L97 0 L75 0 L75 678 L33 678 Q20 678 11 669 Q2 660 2 647 L-20 647 Q-20 669 -4.5 684.5 Q11 700 33 700 L97 700 L97 370 L330 370 L330 700 L352 700 Z " />
<glyph glyph-name="I" unicode="I" horiz-adv-x="122" d="M72 0 L72 700 L50 700 L50 0 L72 0 Z " />
<glyph glyph-name="Iacute" unicode="&#xcd;" horiz-adv-x="122" d="M72 0 L72 700 L50 700 L50 0 L72 0 Z M145 835 L71 737 L51 737 L114 835 L145 835 Z " />
<glyph glyph-name="uni01CF" unicode="&#x1cf;" horiz-adv-x="122" d="M72 0 L72 700 L50 700 L50 0 L72 0 Z M48 737 L-20 835 L0 835 L61 758 L122 835 L142 835 L75 737 L48 737 Z " />
<glyph glyph-name="Icircumflex" unicode="&#xce;" horiz-adv-x="122" d="M72 0 L72 700 L50 700 L50 0 L72 0 Z M48 835 L75 835 L142 737 L122 737 L61 814 L0 737 L-20 737 L48 835 Z " />
<glyph glyph-name="Idieresis" unicode="&#xcf;" horiz-adv-x="122" d="M72 0 L72 700 L50 700 L50 0 L72 0 Z M20 763 Q20 774 12.5 781.5 Q5 789 -6 789 Q-17 789 -24.5 781.5 Q-32 774 -32 763 Q-32 753 -24.5 745 Q-17 737 -6 737 Q5 737 12.5 744.5 Q20 752 20 763 Z M154 763 Q154 774 146.5 781.5 Q139 789 128 789 Q117 789 109.5 781.5 Q102 774 102 763 Q102 753 110 745 Q118 737 128 737 Q139 737 146.5 744.5 Q154 752 154 763 Z " />
<glyph glyph-name="uni1E2E" unicode="&#x1e2e;" horiz-adv-x="122" d="M72 0 L72 700 L50 700 L50 0 L72 0 Z M20 763 Q20 774 12.5 781.5 Q5 789 -6 789 Q-17 789 -24.5 781.5 Q-32 774 -32 763 Q-32 753 -24.5 745 Q-17 737 -6 737 Q5 737 12.5 744.5 Q20 752 20 763 Z M154 763 Q154 774 146.5 781.5 Q139 789 128 789 Q117 789 109.5 781.5 Q102 774 102 763 Q102 753 110 745 Q118 737 128 737 Q139 737 146.5 744.5 Q154 752 154 763 Z M145 925 L71 827 L51 827 L114 925 L145 925 Z " />
<glyph glyph-name="Idot" unicode="&#x130;" horiz-adv-x="122" d="M72 0 L72 700 L50 700 L50 0 L72 0 Z M87 763 Q87 774 79.5 781.5 Q72 789 61 789 Q50 789 42.5 781.5 Q35 774 35 763 Q35 753 43 745 Q51 737 61 737 Q72 737 79.5 744.5 Q87 752 87 763 Z " />
<glyph glyph-name="uni1ECA" unicode="&#x1eca;" horiz-adv-x="122" d="M72 0 L72 700 L50 700 L50 0 L72 0 Z M87 -66 Q87 -55 79.5 -47.5 Q72 -40 61 -40 Q50 -40 42.5 -47.5 Q35 -55 35 -66 Q35 -77 43 -84.5 Q51 -92 61 -92 Q72 -92 79.5 -84.5 Q87 -77 87 -66 Z " />
<glyph glyph-name="Igrave" unicode="&#xcc;" horiz-adv-x="122" d="M72 0 L72 700 L50 700 L50 0 L72 0 Z M-23 835 L8 835 L71 737 L51 737 L-23 835 Z " />
<glyph glyph-name="uni1EC8" unicode="&#x1ec8;" horiz-adv-x="122" d="M72 0 L72 700 L50 700 L50 0 L72 0 Z M51 737 Q51 765 30.5 785.5 Q10 806 -19 806 L-38 825 Q-29 828 -19 828 Q18 828 44.5 801.5 Q71 775 71 737 L51 737 Z " />
<glyph glyph-name="Imacron" unicode="&#x12a;" horiz-adv-x="122" d="M72 0 L72 700 L50 700 L50 0 L72 0 Z M228 737 L228 759 L-106 759 L-106 737 L228 737 Z " />
<glyph glyph-name="Iogonek" unicode="&#x12e;" horiz-adv-x="122" d="M72 700 L72 0 Q40 -18 26.5 -32 Q13 -46 13 -60 Q13 -81 56 -81 L65 -81 L65 -104 L46 -104 Q17 -104 -2 -97 Q-21 -90 -21 -69 Q-21 -34 50 0 L50 700 L72 700 Z " />
<glyph glyph-name="uni0197" unicode="&#x197;" horiz-adv-x="132" d="M117 371 L117 349 L77 349 L77 0 L55 0 L55 349 L15 349 L15 371 L55 371 L55 700 L77 700 L77 371 L117 371 Z " />
<glyph glyph-name="Itilde" unicode="&#x128;" horiz-adv-x="117" d="M72 0 L72 700 L50 700 L50 0 L72 0 Z M-45 738 Q-17 772 10 772 Q29 772 55 756 Q85 738 108 738 Q116 738 119 739 Q150 743 179 780 L162 793 Q135 760 108 760 Q90 760 67 774 Q32 794 10 794 L0 793 Q-31 789 -62 752 L-45 738 Z " />
<glyph glyph-name="J" unicode="J" horiz-adv-x="342" d="M167 -9 Q229 -9 265 24 Q306 63 306 136 L306 700 L284 700 L284 136 Q284 72 250 40 Q220 13 167 13 Q114 13 84 40 Q50 72 50 136 L50 236 L28 236 L28 136 Q28 63 69 24 Q105 -9 167 -9 Z " />
<glyph glyph-name="K" unicode="K" horiz-adv-x="352" d="M333 700 L184 368 L334 0 L310 0 L171 341 L62 99 L62 0 L40 0 L40 700 L62 700 L62 152 L309 700 L333 700 Z " />
<glyph glyph-name="Kcommaaccent" unicode="&#x136;" horiz-adv-x="352" d="M333 700 L184 368 L334 0 L310 0 L171 341 L62 99 L62 0 L40 0 L40 700 L62 700 L62 152 L309 700 L333 700 Z M202 -66 Q202 -76 195 -90 Q193 -94 178 -118 L158 -118 L164 -104 Q166 -100 166 -97 Q166 -92 162 -88 Q150 -79 150 -66 Q150 -56 158 -48 Q166 -40 176 -40 Q187 -40 194.5 -48 Q202 -56 202 -66 Z " />
<glyph glyph-name="uni0198" unicode="&#x198;" horiz-adv-x="398" d="M365 700 Q387 700 402.5 684.5 Q418 669 418 647 L396 647 Q396 660 387 669 Q378 678 365 678 L323 678 L184 368 L334 0 L310 0 L171 341 L62 99 L62 0 L40 0 L40 700 L62 700 L62 152 L309 700 L365 700 Z " />
<glyph glyph-name="L" unicode="L" horiz-adv-x="293" d="M275 0 L275 22 L62 22 L62 700 L40 700 L40 0 L275 0 Z " />
<glyph glyph-name="Lacute" unicode="&#x139;" horiz-adv-x="293" d="M135 835 L61 737 L41 737 L104 835 L135 835 Z M275 0 L275 22 L62 22 L62 700 L40 700 L40 0 L275 0 Z " />
<glyph glyph-name="Lcaron" unicode="&#x13d;" horiz-adv-x="293" d="M275 0 L275 22 L62 22 L62 700 L40 700 L40 0 L275 0 Z M239 674 Q239 664 232 650 Q230 646 215 622 L195 622 L201 636 Q203 640 203 643 Q203 648 199 652 Q187 661 187 674 Q187 685 195 692.5 Q203 700 213 700 Q224 700 231.5 692.5 Q239 685 239 674 Z " />
<glyph glyph-name="uni1E3C" unicode="&#x1e3c;" horiz-adv-x="293" d="M275 0 L275 22 L62 22 L62 700 L40 700 L40 0 L275 0 Z M145 -40 L172 -40 L239 -138 L219 -138 L158 -61 L97 -138 L77 -138 L145 -40 Z " />
<glyph glyph-name="Lcommaaccent" unicode="&#x13b;" horiz-adv-x="293" d="M275 0 L275 22 L62 22 L62 700 L40 700 L40 0 L275 0 Z M184 -66 Q184 -76 177 -90 Q175 -94 160 -118 L140 -118 L146 -104 Q148 -100 148 -97 Q148 -92 144 -88 Q132 -79 132 -66 Q132 -56 140 -48 Q148 -40 158 -40 Q169 -40 176.5 -48 Q184 -56 184 -66 Z " />
<glyph glyph-name="uni1E36" unicode="&#x1e36;" horiz-adv-x="293" d="M275 0 L275 22 L62 22 L62 700 L40 700 L40 0 L275 0 Z M184 -66 Q184 -55 176.5 -47.5 Q169 -40 158 -40 Q147 -40 139.5 -47.5 Q132 -55 132 -66 Q132 -77 140 -84.5 Q148 -92 158 -92 Q169 -92 176.5 -84.5 Q184 -77 184 -66 Z " />
<glyph glyph-name="Lslash" unicode="&#x141;" horiz-adv-x="293" d="M62 22 L275 22 L275 0 L40 0 L40 239 L-23 171 L-23 204 L40 271 L40 700 L62 700 L62 295 L196 438 L196 406 L62 262 L62 22 Z " />
<glyph glyph-name="M" unicode="M" horiz-adv-x="487" d="M244 155 L435 700 L447 700 L447 0 L425 0 L425 610 L250 110 L238 110 L62 610 L62 0 L40 0 L40 700 L52 700 L244 155 Z " />
<glyph glyph-name="uni1E3E" unicode="&#x1e3e;" horiz-adv-x="487" d="M244 155 L435 700 L447 700 L447 0 L425 0 L425 610 L250 110 L238 110 L62 610 L62 0 L40 0 L40 700 L52 700 L244 155 Z M328 835 L254 737 L234 737 L297 835 L328 835 Z " />
<glyph glyph-name="N" unicode="N" horiz-adv-x="377" d="M332 700 L332 0 L320 0 L67 621 L67 0 L45 0 L45 700 L57 700 L310 79 L310 700 L332 700 Z " />
<glyph glyph-name="Nacute" unicode="&#x143;" horiz-adv-x="377" d="M332 700 L332 0 L320 0 L67 621 L67 0 L45 0 L45 700 L57 700 L310 79 L310 700 L332 700 Z M272 835 L198 737 L178 737 L241 835 L272 835 Z " />
<glyph glyph-name="Ncaron" unicode="&#x147;" horiz-adv-x="377" d="M332 700 L332 0 L320 0 L67 621 L67 0 L45 0 L45 700 L57 700 L310 79 L310 700 L332 700 Z M175 737 L107 835 L127 835 L188 758 L249 835 L269 835 L202 737 L175 737 Z " />
<glyph glyph-name="uni1E4A" unicode="&#x1e4a;" horiz-adv-x="377" d="M332 700 L332 0 L320 0 L67 621 L67 0 L45 0 L45 700 L57 700 L310 79 L310 700 L332 700 Z M175 -40 L202 -40 L269 -138 L249 -138 L188 -61 L127 -138 L107 -138 L175 -40 Z " />
<glyph glyph-name="Ncommaaccent" unicode="&#x145;" horiz-adv-x="377" d="M332 700 L332 0 L320 0 L67 621 L67 0 L45 0 L45 700 L57 700 L310 79 L310 700 L332 700 Z M214 -66 Q214 -76 207 -90 Q205 -94 190 -118 L170 -118 L176 -104 Q178 -100 178 -97 Q178 -92 174 -88 Q162 -79 162 -66 Q162 -56 170 -48 Q178 -40 188 -40 Q199 -40 206.5 -48 Q214 -56 214 -66 Z " />
<glyph glyph-name="uni1E44" unicode="&#x1e44;" horiz-adv-x="377" d="M332 700 L332 0 L320 0 L67 621 L67 0 L45 0 L45 700 L57 700 L310 79 L310 700 L332 700 Z M214 763 Q214 774 206.5 781.5 Q199 789 188 789 Q177 789 169.5 781.5 Q162 774 162 763 Q162 753 170 745 Q178 737 188 737 Q199 737 206.5 744.5 Q214 752 214 763 Z " />
<glyph glyph-name="uni1E46" unicode="&#x1e46;" horiz-adv-x="377" d="M332 700 L332 0 L320 0 L67 621 L67 0 L45 0 L45 700 L57 700 L310 79 L310 700 L332 700 Z M214 -66 Q214 -55 206.5 -47.5 Q199 -40 188 -40 Q177 -40 169.5 -47.5 Q162 -55 162 -66 Q162 -77 170 -84.5 Q178 -92 188 -92 Q199 -92 206.5 -84.5 Q214 -77 214 -66 Z " />
<glyph glyph-name="Eng" unicode="&#x14a;" horiz-adv-x="377" d="M332 700 L332 -42 Q332 -64 316.5 -79.5 Q301 -95 279 -95 L279 -73 Q292 -73 301 -64 Q310 -55 310 -42 L310 0 L67 621 L67 0 L45 0 L45 700 L57 700 L310 63 L310 700 L332 700 Z " />
<glyph glyph-name="uni019D" unicode="&#x19d;" horiz-adv-x="377" d="M332 700 L332 0 L320 0 L67 621 L67 -42 Q67 -64 51.5 -79.5 Q36 -95 14 -95 L14 -73 Q27 -73 36 -64 Q45 -55 45 -42 L45 700 L57 700 L310 79 L310 700 L332 700 Z " />
<glyph glyph-name="Ntilde" unicode="&#xd1;" horiz-adv-x="377" d="M332 700 L332 0 L320 0 L67 621 L67 0 L45 0 L45 700 L57 700 L310 79 L310 700 L332 700 Z M85 738 Q113 772 140 772 Q159 772 185 756 Q215 738 238 738 Q246 738 249 739 Q280 743 309 780 L292 793 Q265 760 238 760 Q220 760 197 774 Q162 794 140 794 L130 793 Q99 789 68 752 L85 738 Z " />
<glyph glyph-name="O" unicode="O" horiz-adv-x="346" d="M173 -9 Q233 -9 271 24 Q312 63 312 137 L312 563 Q312 637 271 675 Q234 709 173 709 Q112 709 75 675 Q34 637 34 563 L34 137 Q34 63 75 24 Q113 -9 173 -9 Z M173 687 Q225 687 256 659 Q290 627 290 563 L290 137 Q290 72 256 41 Q227 13 173 13 Q118 13 90 41 Q56 71 56 137 L56 563 Q56 628 90 659 Q120 687 173 687 Z " />
<glyph glyph-name="Oacute" unicode="&#xd3;" horiz-adv-x="346" d="M173 -9 Q233 -9 271 24 Q312 63 312 137 L312 563 Q312 637 271 675 Q234 709 173 709 Q112 709 75 675 Q34 637 34 563 L34 137 Q34 63 75 24 Q113 -9 173 -9 Z M173 687 Q225 687 256 659 Q290 627 290 563 L290 137 Q290 72 256 41 Q227 13 173 13 Q118 13 90 41 Q56 71 56 137 L56 563 Q56 628 90 659 Q120 687 173 687 Z M257 835 L183 737 L163 737 L226 835 L257 835 Z " />
<glyph glyph-name="uni01D1" unicode="&#x1d1;" horiz-adv-x="346" d="M173 -9 Q233 -9 271 24 Q312 63 312 137 L312 563 Q312 637 271 675 Q234 709 173 709 Q112 709 75 675 Q34 637 34 563 L34 137 Q34 63 75 24 Q113 -9 173 -9 Z M173 687 Q225 687 256 659 Q290 627 290 563 L290 137 Q290 72 256 41 Q227 13 173 13 Q118 13 90 41 Q56 71 56 137 L56 563 Q56 628 90 659 Q120 687 173 687 Z M160 737 L92 835 L112 835 L173 758 L234 835 L254 835 L187 737 L160 737 Z " />
<glyph glyph-name="Ocircumflex" unicode="&#xd4;" horiz-adv-x="346" d="M173 -9 Q233 -9 271 24 Q312 63 312 137 L312 563 Q312 637 271 675 Q234 709 173 709 Q112 709 75 675 Q34 637 34 563 L34 137 Q34 63 75 24 Q113 -9 173 -9 Z M173 687 Q225 687 256 659 Q290 627 290 563 L290 137 Q290 72 256 41 Q227 13 173 13 Q118 13 90 41 Q56 71 56 137 L56 563 Q56 628 90 659 Q120 687 173 687 Z M160 835 L187 835 L254 737 L234 737 L173 814 L112 737 L92 737 L160 835 Z " />
<glyph glyph-name="uni1ED0" unicode="&#x1ed0;" horiz-adv-x="346" d="M173 -9 Q233 -9 271 24 Q312 63 312 137 L312 563 Q312 637 271 675 Q234 709 173 709 Q112 709 75 675 Q34 637 34 563 L34 137 Q34 63 75 24 Q113 -9 173 -9 Z M173 687 Q225 687 256 659 Q290 627 290 563 L290 137 Q290 72 256 41 Q227 13 173 13 Q118 13 90 41 Q56 71 56 137 L56 563 Q56 628 90 659 Q120 687 173 687 Z M160 835 L187 835 L254 737 L234 737 L173 814 L112 737 L92 737 L160 835 Z M327 935 L253 837 L233 837 L296 935 L327 935 Z " />
<glyph glyph-name="uni1ED8" unicode="&#x1ed8;" horiz-adv-x="346" d="M173 -9 Q233 -9 271 24 Q312 63 312 137 L312 563 Q312 637 271 675 Q234 709 173 709 Q112 709 75 675 Q34 637 34 563 L34 137 Q34 63 75 24 Q113 -9 173 -9 Z M173 687 Q225 687 256 659 Q290 627 290 563 L290 137 Q290 72 256 41 Q227 13 173 13 Q118 13 90 41 Q56 71 56 137 L56 563 Q56 628 90 659 Q120 687 173 687 Z M160 835 L187 835 L254 737 L234 737 L173 814 L112 737 L92 737 L160 835 Z M199 -66 Q199 -55 191.5 -47.5 Q184 -40 173 -40 Q162 -40 154.5 -47.5 Q147 -55 147 -66 Q147 -77 155 -84.5 Q163 -92 173 -92 Q184 -92 191.5 -84.5 Q199 -77 199 -66 Z " />
<glyph glyph-name="uni1ED2" unicode="&#x1ed2;" horiz-adv-x="346" d="M173 -9 Q233 -9 271 24 Q312 63 312 137 L312 563 Q312 637 271 675 Q234 709 173 709 Q112 709 75 675 Q34 637 34 563 L34 137 Q34 63 75 24 Q113 -9 173 -9 Z M173 687 Q225 687 256 659 Q290 627 290 563 L290 137 Q290 72 256 41 Q227 13 173 13 Q118 13 90 41 Q56 71 56 137 L56 563 Q56 628 90 659 Q120 687 173 687 Z M160 835 L187 835 L254 737 L234 737 L173 814 L112 737 L92 737 L160 835 Z M159 935 L190 935 L253 837 L233 837 L159 935 Z " />
<glyph glyph-name="uni1ED4" unicode="&#x1ed4;" horiz-adv-x="346" d="M173 -9 Q233 -9 271 24 Q312 63 312 137 L312 563 Q312 637 271 675 Q234 709 173 709 Q112 709 75 675 Q34 637 34 563 L34 137 Q34 63 75 24 Q113 -9 173 -9 Z M173 687 Q225 687 256 659 Q290 627 290 563 L290 137 Q290 72 256 41 Q227 13 173 13 Q118 13 90 41 Q56 71 56 137 L56 563 Q56 628 90 659 Q120 687 173 687 Z M160 835 L187 835 L254 737 L234 737 L173 814 L112 737 L92 737 L160 835 Z M163 856 Q163 884 142.5 904.5 Q122 925 93 925 L74 944 Q83 947 93 947 Q130 947 156.5 920.5 Q183 894 183 856 L163 856 Z " />
<glyph glyph-name="uni1ED6" unicode="&#x1ed6;" horiz-adv-x="346" d="M173 -9 Q233 -9 271 24 Q312 63 312 137 L312 563 Q312 637 271 675 Q234 709 173 709 Q112 709 75 675 Q34 637 34 563 L34 137 Q34 63 75 24 Q113 -9 173 -9 Z M173 687 Q225 687 256 659 Q290 627 290 563 L290 137 Q290 72 256 41 Q227 13 173 13 Q118 13 90 41 Q56 71 56 137 L56 563 Q56 628 90 659 Q120 687 173 687 Z M160 835 L187 835 L254 737 L234 737 L173 814 L112 737 L92 737 L160 835 Z M69 856 Q97 890 124 890 Q143 890 169 874 Q199 856 222 856 Q230 856 233 857 Q264 861 293 898 L276 911 Q249 878 222 878 Q204 878 181 892 Q146 912 124 912 L114 911 Q83 907 52 870 L69 856 Z " />
<glyph glyph-name="Odieresis" unicode="&#xd6;" horiz-adv-x="346" d="M173 -9 Q233 -9 271 24 Q312 63 312 137 L312 563 Q312 637 271 675 Q234 709 173 709 Q112 709 75 675 Q34 637 34 563 L34 137 Q34 63 75 24 Q113 -9 173 -9 Z M173 687 Q225 687 256 659 Q290 627 290 563 L290 137 Q290 72 256 41 Q227 13 173 13 Q118 13 90 41 Q56 71 56 137 L56 563 Q56 628 90 659 Q120 687 173 687 Z M131 763 Q131 774 123.5 781.5 Q116 789 105 789 Q94 789 86.5 781.5 Q79 774 79 763 Q79 753 87 745 Q95 737 105 737 Q116 737 123.5 744.5 Q131 752 131 763 Z M265 763 Q265 774 257.5 781.5 Q250 789 239 789 Q228 789 220.5 781.5 Q213 774 213 763 Q213 753 221 745 Q229 737 239 737 Q250 737 257.5 744.5 Q265 752 265 763 Z " />
<glyph glyph-name="uni022A" unicode="&#x22a;" horiz-adv-x="346" d="M173 -9 Q233 -9 271 24 Q312 63 312 137 L312 563 Q312 637 271 675 Q234 709 173 709 Q112 709 75 675 Q34 637 34 563 L34 137 Q34 63 75 24 Q113 -9 173 -9 Z M173 687 Q225 687 256 659 Q290 627 290 563 L290 137 Q290 72 256 41 Q227 13 173 13 Q118 13 90 41 Q56 71 56 137 L56 563 Q56 628 90 659 Q120 687 173 687 Z M131 763 Q131 774 123.5 781.5 Q116 789 105 789 Q94 789 86.5 781.5 Q79 774 79 763 Q79 753 87 745 Q95 737 105 737 Q116 737 123.5 744.5 Q131 752 131 763 Z M265 763 Q265 774 257.5 781.5 Q250 789 239 789 Q228 789 220.5 781.5 Q213 774 213 763 Q213 753 221 745 Q229 737 239 737 Q250 737 257.5 744.5 Q265 752 265 763 Z M340 827 L340 849 L6 849 L6 827 L340 827 Z " />
<glyph glyph-name="uni1ECC" unicode="&#x1ecc;" horiz-adv-x="346" d="M173 -9 Q233 -9 271 24 Q312 63 312 137 L312 563 Q312 637 271 675 Q234 709 173 709 Q112 709 75 675 Q34 637 34 563 L34 137 Q34 63 75 24 Q113 -9 173 -9 Z M173 687 Q225 687 256 659 Q290 627 290 563 L290 137 Q290 72 256 41 Q227 13 173 13 Q118 13 90 41 Q56 71 56 137 L56 563 Q56 628 90 659 Q120 687 173 687 Z M199 -66 Q199 -55 191.5 -47.5 Q184 -40 173 -40 Q162 -40 154.5 -47.5 Q147 -55 147 -66 Q147 -77 155 -84.5 Q163 -92 173 -92 Q184 -92 191.5 -84.5 Q199 -77 199 -66 Z " />
<glyph glyph-name="Ograve" unicode="&#xd2;" horiz-adv-x="346" d="M173 -9 Q233 -9 271 24 Q312 63 312 137 L312 563 Q312 637 271 675 Q234 709 173 709 Q112 709 75 675 Q34 637 34 563 L34 137 Q34 63 75 24 Q113 -9 173 -9 Z M173 687 Q225 687 256 659 Q290 627 290 563 L290 137 Q290 72 256 41 Q227 13 173 13 Q118 13 90 41 Q56 71 56 137 L56 563 Q56 628 90 659 Q120 687 173 687 Z M89 835 L120 835 L183 737 L163 737 L89 835 Z " />
<glyph glyph-name="uni1ECE" unicode="&#x1ece;" horiz-adv-x="346" d="M173 -9 Q233 -9 271 24 Q312 63 312 137 L312 563 Q312 637 271 675 Q234 709 173 709 Q112 709 75 675 Q34 637 34 563 L34 137 Q34 63 75 24 Q113 -9 173 -9 Z M173 687 Q225 687 256 659 Q290 627 290 563 L290 137 Q290 72 256 41 Q227 13 173 13 Q118 13 90 41 Q56 71 56 137 L56 563 Q56 628 90 659 Q120 687 173 687 Z M163 737 Q163 765 142.5 785.5 Q122 806 93 806 L74 825 Q83 828 93 828 Q130 828 156.5 801.5 Q183 775 183 737 L163 737 Z " />
<glyph glyph-name="Ohorn" unicode="&#x1a0;" horiz-adv-x="345" d="M365 740 Q365 718 349.5 702.5 Q334 687 312 687 L255 687 L271 675 Q312 637 312 563 L312 137 Q312 63 271 24 Q233 -9 173 -9 Q113 -9 75 24 Q34 63 34 137 L34 563 Q34 637 75 675 Q112 709 173 709 L312 709 Q325 709 334 718 Q343 727 343 740 L365 740 Z M256 659 Q225 687 173 687 Q120 687 90 659 Q56 628 56 563 L56 137 Q56 71 90 41 Q118 13 173 13 Q227 13 256 41 Q290 72 290 137 L290 563 Q290 627 256 659 Z " />
<glyph glyph-name="uni1EDA" unicode="&#x1eda;" horiz-adv-x="345" d="M365 740 Q365 718 349.5 702.5 Q334 687 312 687 L255 687 L271 675 Q312 637 312 563 L312 137 Q312 63 271 24 Q233 -9 173 -9 Q113 -9 75 24 Q34 63 34 137 L34 563 Q34 637 75 675 Q112 709 173 709 L312 709 Q325 709 334 718 Q343 727 343 740 L365 740 Z M256 659 Q225 687 173 687 Q120 687 90 659 Q56 628 56 563 L56 137 Q56 71 90 41 Q118 13 173 13 Q227 13 256 41 Q290 72 290 137 L290 563 Q290 627 256 659 Z M257 835 L183 737 L163 737 L226 835 L257 835 Z " />
<glyph glyph-name="uni1EE2" unicode="&#x1ee2;" horiz-adv-x="345" d="M365 740 Q365 718 349.5 702.5 Q334 687 312 687 L255 687 L271 675 Q312 637 312 563 L312 137 Q312 63 271 24 Q233 -9 173 -9 Q113 -9 75 24 Q34 63 34 137 L34 563 Q34 637 75 675 Q112 709 173 709 L312 709 Q325 709 334 718 Q343 727 343 740 L365 740 Z M256 659 Q225 687 173 687 Q120 687 90 659 Q56 628 56 563 L56 137 Q56 71 90 41 Q118 13 173 13 Q227 13 256 41 Q290 72 290 137 L290 563 Q290 627 256 659 Z M199 -66 Q199 -55 191.5 -47.5 Q184 -40 173 -40 Q162 -40 154.5 -47.5 Q147 -55 147 -66 Q147 -77 155 -84.5 Q163 -92 173 -92 Q184 -92 191.5 -84.5 Q199 -77 199 -66 Z " />
<glyph glyph-name="uni1EDC" unicode="&#x1edc;" horiz-adv-x="345" d="M365 740 Q365 718 349.5 702.5 Q334 687 312 687 L255 687 L271 675 Q312 637 312 563 L312 137 Q312 63 271 24 Q233 -9 173 -9 Q113 -9 75 24 Q34 63 34 137 L34 563 Q34 637 75 675 Q112 709 173 709 L312 709 Q325 709 334 718 Q343 727 343 740 L365 740 Z M256 659 Q225 687 173 687 Q120 687 90 659 Q56 628 56 563 L56 137 Q56 71 90 41 Q118 13 173 13 Q227 13 256 41 Q290 72 290 137 L290 563 Q290 627 256 659 Z M89 835 L120 835 L183 737 L163 737 L89 835 Z " />
<glyph glyph-name="uni1EDE" unicode="&#x1ede;" horiz-adv-x="345" d="M365 740 Q365 718 349.5 702.5 Q334 687 312 687 L255 687 L271 675 Q312 637 312 563 L312 137 Q312 63 271 24 Q233 -9 173 -9 Q113 -9 75 24 Q34 63 34 137 L34 563 Q34 637 75 675 Q112 709 173 709 L312 709 Q325 709 334 718 Q343 727 343 740 L365 740 Z M256 659 Q225 687 173 687 Q120 687 90 659 Q56 628 56 563 L56 137 Q56 71 90 41 Q118 13 173 13 Q227 13 256 41 Q290 72 290 137 L290 563 Q290 627 256 659 Z M163 737 Q163 765 142.5 785.5 Q122 806 93 806 L74 825 Q83 828 93 828 Q130 828 156.5 801.5 Q183 775 183 737 L163 737 Z " />
<glyph glyph-name="uni1EE0" unicode="&#x1ee0;" horiz-adv-x="345" d="M365 740 Q365 718 349.5 702.5 Q334 687 312 687 L255 687 L271 675 Q312 637 312 563 L312 137 Q312 63 271 24 Q233 -9 173 -9 Q113 -9 75 24 Q34 63 34 137 L34 563 Q34 637 75 675 Q112 709 173 709 L312 709 Q325 709 334 718 Q343 727 343 740 L365 740 Z M256 659 Q225 687 173 687 Q120 687 90 659 Q56 628 56 563 L56 137 Q56 71 90 41 Q118 13 173 13 Q227 13 256 41 Q290 72 290 137 L290 563 Q290 627 256 659 Z M70 738 Q98 772 125 772 Q144 772 170 756 Q200 738 223 738 Q231 738 234 739 Q265 743 294 780 L277 793 Q250 760 223 760 Q205 760 182 774 Q147 794 125 794 L115 793 Q84 789 53 752 L70 738 Z " />
<glyph glyph-name="Ohungarumlaut" unicode="&#x150;" horiz-adv-x="346" d="M173 -9 Q233 -9 271 24 Q312 63 312 137 L312 563 Q312 637 271 675 Q234 709 173 709 Q112 709 75 675 Q34 637 34 563 L34 137 Q34 63 75 24 Q113 -9 173 -9 Z M173 687 Q225 687 256 659 Q290 627 290 563 L290 137 Q290 72 256 41 Q227 13 173 13 Q118 13 90 41 Q56 71 56 137 L56 563 Q56 628 90 659 Q120 687 173 687 Z M302 835 L228 737 L208 737 L271 835 L302 835 Z M211 835 L137 737 L117 737 L180 835 L211 835 Z " />
<glyph glyph-name="Omacron" unicode="&#x14c;" horiz-adv-x="346" d="M173 -9 Q233 -9 271 24 Q312 63 312 137 L312 563 Q312 637 271 675 Q234 709 173 709 Q112 709 75 675 Q34 637 34 563 L34 137 Q34 63 75 24 Q113 -9 173 -9 Z M173 687 Q225 687 256 659 Q290 627 290 563 L290 137 Q290 72 256 41 Q227 13 173 13 Q118 13 90 41 Q56 71 56 137 L56 563 Q56 628 90 659 Q120 687 173 687 Z M340 737 L340 759 L6 759 L6 737 L340 737 Z " />
<glyph glyph-name="uni1E52" unicode="&#x1e52;" horiz-adv-x="346" d="M173 -9 Q233 -9 271 24 Q312 63 312 137 L312 563 Q312 637 271 675 Q234 709 173 709 Q112 709 75 675 Q34 637 34 563 L34 137 Q34 63 75 24 Q113 -9 173 -9 Z M173 687 Q226 687 256 659 Q290 628 290 563 L290 137 Q290 71 256 41 Q228 13 173 13 Q119 13 90 41 Q56 72 56 137 L56 563 Q56 627 90 659 Q121 687 173 687 Z M6 737 L340 737 L340 759 L6 759 L6 737 Z M257 895 L183 797 L163 797 L226 895 L257 895 Z " />
<glyph glyph-name="uni1E50" unicode="&#x1e50;" horiz-adv-x="346" d="M173 -9 Q233 -9 271 24 Q312 63 312 137 L312 563 Q312 637 271 675 Q234 709 173 709 Q112 709 75 675 Q34 637 34 563 L34 137 Q34 63 75 24 Q113 -9 173 -9 Z M173 687 Q225 687 256 659 Q290 627 290 563 L290 137 Q290 72 256 41 Q227 13 173 13 Q118 13 90 41 Q56 71 56 137 L56 563 Q56 628 90 659 Q120 687 173 687 Z M340 737 L340 759 L6 759 L6 737 L340 737 Z M89 895 L120 895 L183 797 L163 797 L89 895 Z " />
<glyph glyph-name="uni0186" unicode="&#x186;" horiz-adv-x="343" d="M171 -9 Q232 -9 268 25 Q309 62 309 137 L309 563 Q309 638 268 675 Q232 709 171 709 Q109 709 73 675 Q32 637 32 563 L32 493 L54 493 L54 563 Q54 628 88 659 Q118 687 171 687 Q223 687 253 659 Q287 628 287 563 L287 137 Q287 72 253 41 Q223 13 171 13 Q118 13 88 41 Q54 72 54 137 L54 240 L32 240 L32 137 Q32 63 73 25 Q109 -9 171 -9 Z " />
<glyph glyph-name="Oslash" unicode="&#xd8;" horiz-adv-x="346" d="M297 639 Q311 610 311 565 L311 137 Q311 62 270 25 Q234 -9 173 -9 Q111 -9 75 25 Q70 29 62 39 L44 -7 L24 1 L48 63 Q34 94 34 137 L34 565 Q34 638 75 677 Q110 710 173 710 Q235 710 270 677 L283 663 L301 710 L322 702 L297 639 Z M56 137 Q56 111 60 94 L273 638 Q266 651 255 660 Q227 688 173 688 Q118 688 90 660 Q56 630 56 565 L56 137 Z M289 565 Q289 591 285 607 L72 64 Q80 50 90 41 Q120 13 173 13 Q225 13 255 41 Q289 72 289 137 L289 565 Z " />
<glyph glyph-name="Oslashacute" unicode="&#x1fe;" horiz-adv-x="346" d="M297 639 Q311 610 311 565 L311 137 Q311 62 270 25 Q234 -9 173 -9 Q111 -9 75 25 Q70 29 62 39 L44 -7 L24 1 L48 63 Q34 94 34 137 L34 565 Q34 638 75 677 Q110 710 173 710 Q235 710 270 677 L283 663 L301 710 L322 702 L297 639 Z M56 137 Q56 111 60 94 L273 638 Q266 651 255 660 Q227 688 173 688 Q118 688 90 660 Q56 630 56 565 L56 137 Z M289 565 Q289 591 285 607 L72 64 Q80 50 90 41 Q120 13 173 13 Q225 13 255 41 Q289 72 289 137 L289 565 Z " />
<glyph glyph-name="Otilde" unicode="&#xd5;" horiz-adv-x="346" d="M173 -9 Q233 -9 271 24 Q312 63 312 137 L312 563 Q312 637 271 675 Q234 709 173 709 Q112 709 75 675 Q34 637 34 563 L34 137 Q34 63 75 24 Q113 -9 173 -9 Z M173 687 Q225 687 256 659 Q290 627 290 563 L290 137 Q290 72 256 41 Q227 13 173 13 Q118 13 90 41 Q56 71 56 137 L56 563 Q56 628 90 659 Q120 687 173 687 Z M70 738 Q98 772 125 772 Q144 772 170 756 Q200 738 223 738 Q231 738 234 739 Q265 743 294 780 L277 793 Q250 760 223 760 Q205 760 182 774 Q147 794 125 794 L115 793 Q84 789 53 752 L70 738 Z " />
<glyph glyph-name="uni1E4C" unicode="&#x1e4c;" horiz-adv-x="346" d="M257 930 L183 832 L163 832 L226 930 L257 930 Z M173 -9 Q233 -9 271 24 Q312 63 312 137 L312 563 Q312 637 271 675 Q234 709 173 709 Q112 709 75 675 Q34 637 34 563 L34 137 Q34 63 75 24 Q113 -9 173 -9 Z M173 687 Q225 687 256 659 Q290 627 290 563 L290 137 Q290 72 256 41 Q227 13 173 13 Q118 13 90 41 Q56 71 56 137 L56 563 Q56 628 90 659 Q120 687 173 687 Z M70 738 Q98 772 125 772 Q144 772 170 756 Q200 738 223 738 Q231 738 234 739 Q265 743 294 780 L277 793 Q250 760 223 760 Q205 760 182 774 Q147 794 125 794 L115 793 Q84 789 53 752 L70 738 Z " />
<glyph glyph-name="OE" unicode="&#x152;" horiz-adv-x="490" d="M253 678 L253 370 L402 370 L402 348 L253 348 L253 22 L466 22 L466 0 L231 0 L173 0 Q112 0 75 34 Q34 72 34 146 L34 554 Q34 628 75 666 Q112 700 173 700 L231 700 L466 700 L466 678 L253 678 Z M231 22 L231 678 L173 678 Q120 678 90 650 Q56 619 56 554 L56 146 Q56 81 90 50 Q120 22 173 22 L231 22 Z " />
<glyph glyph-name="P" unicode="P" horiz-adv-x="340" d="M62 319 L178 319 Q242 319 276 352 Q317 390 317 464 L317 553 Q317 627 276 666 Q239 700 178 700 L40 700 L40 0 L62 0 L62 319 Z M62 678 L178 678 Q231 678 261 650 Q295 617 295 553 L295 464 Q295 399 261 368 Q233 341 178 341 L62 341 L62 678 Z " />
<glyph glyph-name="uni01A4" unicode="&#x1a4;" horiz-adv-x="375" d="M311 666 Q352 627 352 553 L352 464 Q352 390 311 352 Q277 319 213 319 L97 319 L97 0 L75 0 L75 678 L33 678 Q20 678 11 669 Q2 660 2 647 L-20 647 Q-20 669 -4.5 684.5 Q11 700 33 700 L213 700 Q274 700 311 666 Z M330 553 Q330 617 296 650 Q266 678 213 678 L97 678 L97 341 L213 341 Q268 341 296 368 Q330 399 330 464 L330 553 Z " />
<glyph glyph-name="Thorn" unicode="&#xde;" horiz-adv-x="340" d="M62 620 L178 620 Q231 620 261 592 Q295 559 295 495 L295 406 Q295 341 261 310 Q233 283 178 283 L62 283 L62 620 Z M62 261 L178 261 Q242 261 276 294 Q317 332 317 406 L317 495 Q317 569 276 608 Q239 642 178 642 L62 642 L62 700 L40 700 L40 0 L62 0 L62 261 Z " />
<glyph glyph-name="Q" unicode="Q" horiz-adv-x="346" d="M351 -112 L351 -134 L337 -134 Q283 -134 251 -105 Q215 -71 215 -6 L215 -5 Q198 -9 173 -9 Q111 -9 75 24 Q34 62 34 136 L34 563 Q34 637 75 675 Q112 709 173 709 Q234 709 271 675 Q311 638 311 563 L311 136 Q311 61 271 24 Q256 10 237 3 L237 -6 Q237 -62 266 -88 Q292 -112 337 -112 L351 -112 Z M90 40 Q119 13 173 13 Q226 13 256 40 Q289 72 289 136 L289 563 Q289 628 256 659 Q225 687 173 687 Q120 687 90 659 Q56 628 56 563 L56 136 Q56 71 90 40 Z " />
<glyph glyph-name="R" unicode="R" horiz-adv-x="343" d="M318 0 L295 0 L208 321 Q199 319 179 319 L62 319 L62 0 L40 0 L40 700 L179 700 Q240 700 277 666 Q318 627 318 553 L318 464 Q318 390 277 352 Q257 333 229 326 L318 0 Z M179 341 Q232 341 262 368 Q296 400 296 464 L296 553 Q296 616 262 650 Q231 678 179 678 L62 678 L62 341 L179 341 Z " />
<glyph glyph-name="Racute" unicode="&#x154;" horiz-adv-x="343" d="M318 0 L295 0 L208 321 Q199 319 179 319 L62 319 L62 0 L40 0 L40 700 L179 700 Q240 700 277 666 Q318 627 318 553 L318 464 Q318 390 277 352 Q257 333 229 326 L318 0 Z M179 341 Q232 341 262 368 Q296 400 296 464 L296 553 Q296 616 262 650 Q231 678 179 678 L62 678 L62 341 L179 341 Z M263 835 L189 737 L169 737 L232 835 L263 835 Z " />
<glyph glyph-name="Rcaron" unicode="&#x158;" horiz-adv-x="343" d="M318 0 L295 0 L208 321 Q199 319 179 319 L62 319 L62 0 L40 0 L40 700 L179 700 Q240 700 277 666 Q318 627 318 553 L318 464 Q318 390 277 352 Q257 333 229 326 L318 0 Z M179 341 Q232 341 262 368 Q296 400 296 464 L296 553 Q296 616 262 650 Q231 678 179 678 L62 678 L62 341 L179 341 Z M166 737 L98 835 L118 835 L179 758 L240 835 L260 835 L193 737 L166 737 Z " />
<glyph glyph-name="Rcommaaccent" unicode="&#x156;" horiz-adv-x="343" d="M318 0 L295 0 L208 321 Q199 319 179 319 L62 319 L62 0 L40 0 L40 700 L179 700 Q240 700 277 666 Q318 627 318 553 L318 464 Q318 390 277 352 Q257 333 229 326 L318 0 Z M179 341 Q232 341 262 368 Q296 400 296 464 L296 553 Q296 616 262 650 Q231 678 179 678 L62 678 L62 341 L179 341 Z M205 -66 Q205 -76 198 -90 Q196 -94 181 -118 L161 -118 L167 -104 Q169 -100 169 -97 Q169 -92 165 -88 Q153 -79 153 -66 Q153 -56 161 -48 Q169 -40 179 -40 Q190 -40 197.5 -48 Q205 -56 205 -66 Z " />
<glyph glyph-name="uni024C" unicode="&#x24c;" horiz-adv-x="348" d="M323 464 Q323 390 282 352 Q262 333 234 326 L323 0 L300 0 L213 321 Q204 319 184 319 L67 319 L67 0 L45 0 L45 319 L5 319 L5 341 L45 341 L45 700 L184 700 Q245 700 282 666 Q323 627 323 553 L323 464 Z M267 368 Q301 400 301 464 L301 553 Q301 616 267 650 Q236 678 184 678 L67 678 L67 341 L184 341 Q237 341 267 368 Z " />
<glyph glyph-name="uni2C64" unicode="&#x2c64;" horiz-adv-x="343" d="M318 464 Q318 390 277 352 Q257 333 229 326 L318 0 L295 0 L208 321 Q199 319 179 319 L62 319 L62 -42 Q62 -55 71 -64 Q80 -73 93 -73 L93 -95 Q71 -95 55.5 -79.5 Q40 -64 40 -42 L40 700 L179 700 Q240 700 277 666 Q318 627 318 553 L318 464 Z M262 368 Q296 400 296 464 L296 553 Q296 616 262 650 Q231 678 179 678 L62 678 L62 341 L179 341 Q232 341 262 368 Z " />
<glyph glyph-name="S" unicode="S" horiz-adv-x="333" d="M167 -9 Q228 -9 265 25 Q306 63 306 137 L306 187 Q306 268 256 321 Q238 340 219 352 Q200 364 173 377 Q144 392 127 402 Q110 412 94 428 Q50 474 50 544 L50 564 Q50 628 84 659 Q113 687 167 687 Q221 687 250 659 Q284 629 284 564 L284 495 L306 495 L306 564 Q306 637 265 676 Q229 709 167 709 Q105 709 69 676 Q28 637 28 564 L28 544 Q28 465 78 413 Q96 394 115 382.5 Q134 371 162 358 Q189 345 206.5 334 Q224 323 240 306 Q284 259 284 187 L284 137 Q284 72 250 41 Q219 13 167 13 Q115 13 84 41 Q50 73 50 137 L50 242 L28 242 L28 137 Q28 63 69 25 Q106 -9 167 -9 Z " />
<glyph glyph-name="Sacute" unicode="&#x15a;" horiz-adv-x="333" d="M167 -9 Q228 -9 265 25 Q306 63 306 137 L306 187 Q306 268 256 321 Q238 340 219 352 Q200 364 173 377 Q144 392 127 402 Q110 412 94 428 Q50 474 50 544 L50 564 Q50 628 84 659 Q113 687 167 687 Q221 687 250 659 Q284 629 284 564 L284 495 L306 495 L306 564 Q306 637 265 676 Q229 709 167 709 Q105 709 69 676 Q28 637 28 564 L28 544 Q28 465 78 413 Q96 394 115 382.5 Q134 371 162 358 Q189 345 206.5 334 Q224 323 240 306 Q284 259 284 187 L284 137 Q284 72 250 41 Q219 13 167 13 Q115 13 84 41 Q50 73 50 137 L50 242 L28 242 L28 137 Q28 63 69 25 Q106 -9 167 -9 Z M251 835 L177 737 L157 737 L220 835 L251 835 Z " />
<glyph glyph-name="Scaron" unicode="&#x160;" horiz-adv-x="333" d="M167 -9 Q228 -9 265 25 Q306 63 306 137 L306 187 Q306 268 256 321 Q238 340 219 352 Q200 364 173 377 Q144 392 127 402 Q110 412 94 428 Q50 474 50 544 L50 564 Q50 628 84 659 Q113 687 167 687 Q221 687 250 659 Q284 629 284 564 L284 495 L306 495 L306 564 Q306 637 265 676 Q229 709 167 709 Q105 709 69 676 Q28 637 28 564 L28 544 Q28 465 78 413 Q96 394 115 382.5 Q134 371 162 358 Q189 345 206.5 334 Q224 323 240 306 Q284 259 284 187 L284 137 Q284 72 250 41 Q219 13 167 13 Q115 13 84 41 Q50 73 50 137 L50 242 L28 242 L28 137 Q28 63 69 25 Q106 -9 167 -9 Z M154 737 L86 835 L106 835 L167 758 L228 835 L248 835 L181 737 L154 737 Z " />
<glyph glyph-name="Scedilla" unicode="&#x15e;" horiz-adv-x="333" d="M284 495 L284 564 Q284 629 250 659 Q221 687 167 687 Q113 687 84 659 Q50 628 50 564 L50 544 Q50 474 94 428 Q110 412 127 402 Q144 392 173 377 Q200 363 219 351.5 Q238 340 256 321 Q306 268 306 187 L306 137 Q306 63 265 25 Q231 -6 178 -9 Q180 -19 189 -26 Q189 -26 191 -28 Q204 -37 212 -47.5 Q220 -58 220 -76 Q220 -98 204.5 -113.5 Q189 -129 167 -129 Q145 -129 129.5 -113.5 Q114 -98 114 -76 L136 -76 Q136 -89 145 -98 Q154 -107 167 -107 Q180 -107 189 -98 Q198 -89 198 -76 Q198 -65 193.5 -59 Q189 -53 178 -45 L176 -44 Q158 -30 156 -9 Q103 -6 69 25 Q28 63 28 137 L28 242 L50 242 L50 137 Q50 73 84 41 Q115 13 167 13 Q219 13 250 41 Q284 72 284 137 L284 187 Q284 259 240 306 Q224 323 206.5 334 Q189 345 162 358 Q134 371 115 382.5 Q96 394 78 413 Q28 465 28 544 L28 564 Q28 637 69 676 Q105 709 167 709 Q229 709 265 676 Q306 637 306 564 L306 495 L284 495 Z " />
<glyph glyph-name="Scommaaccent" unicode="&#x218;" horiz-adv-x="333" d="M167 -9 Q228 -9 265 25 Q306 63 306 137 L306 187 Q306 268 256 321 Q238 340 219 352 Q200 364 173 377 Q144 392 127 402 Q110 412 94 428 Q50 474 50 544 L50 564 Q50 628 84 659 Q113 687 167 687 Q221 687 250 659 Q284 629 284 564 L284 495 L306 495 L306 564 Q306 637 265 676 Q229 709 167 709 Q105 709 69 676 Q28 637 28 564 L28 544 Q28 465 78 413 Q96 394 115 382.5 Q134 371 162 358 Q189 345 206.5 334 Q224 323 240 306 Q284 259 284 187 L284 137 Q284 72 250 41 Q219 13 167 13 Q115 13 84 41 Q50 73 50 137 L50 242 L28 242 L28 137 Q28 63 69 25 Q106 -9 167 -9 Z M193 -66 Q193 -76 186 -90 Q184 -94 169 -118 L149 -118 L155 -104 Q157 -100 157 -97 Q157 -92 153 -88 Q141 -79 141 -66 Q141 -56 149 -48 Q157 -40 167 -40 Q178 -40 185.5 -48 Q193 -56 193 -66 Z " />
<glyph glyph-name="uni1E62" unicode="&#x1e62;" horiz-adv-x="333" d="M167 -9 Q228 -9 265 25 Q306 63 306 137 L306 187 Q306 268 256 321 Q238 340 219 352 Q200 364 173 377 Q144 392 127 402 Q110 412 94 428 Q50 474 50 544 L50 564 Q50 628 84 659 Q113 687 167 687 Q221 687 250 659 Q284 629 284 564 L284 495 L306 495 L306 564 Q306 637 265 676 Q229 709 167 709 Q105 709 69 676 Q28 637 28 564 L28 544 Q28 465 78 413 Q96 394 115 382.5 Q134 371 162 358 Q189 345 206.5 334 Q224 323 240 306 Q284 259 284 187 L284 137 Q284 72 250 41 Q219 13 167 13 Q115 13 84 41 Q50 73 50 137 L50 242 L28 242 L28 137 Q28 63 69 25 Q106 -9 167 -9 Z M193 -66 Q193 -55 185.5 -47.5 Q178 -40 167 -40 Q156 -40 148.5 -47.5 Q141 -55 141 -66 Q141 -77 149 -84.5 Q157 -92 167 -92 Q178 -92 185.5 -84.5 Q193 -77 193 -66 Z " />
<glyph glyph-name="T" unicode="T" horiz-adv-x="303" d="M291 700 L291 678 L164 678 L164 0 L142 0 L142 678 L13 678 L13 700 L291 700 Z " />
<glyph glyph-name="Tbar" unicode="&#x166;" horiz-adv-x="303" d="M291 678 L164 678 L164 460 L224 460 L224 438 L164 438 L164 0 L142 0 L142 438 L82 438 L82 460 L142 460 L142 678 L13 678 L13 700 L291 700 L291 678 Z " />
<glyph glyph-name="Tcaron" unicode="&#x164;" horiz-adv-x="303" d="M291 700 L291 678 L164 678 L164 0 L142 0 L142 678 L13 678 L13 700 L291 700 Z M139 737 L71 835 L91 835 L152 758 L213 835 L233 835 L166 737 L139 737 Z " />
<glyph glyph-name="uni0162" unicode="&#x162;" horiz-adv-x="303" d="M164 1 Q164 -11 166.5 -16.5 Q169 -22 177 -28 Q190 -39 198 -49 Q206 -59 206 -76 Q206 -98 190.5 -113.5 Q175 -129 153 -129 Q131 -129 115.5 -113.5 Q100 -98 100 -76 L122 -76 Q122 -89 131 -98 Q140 -107 153 -107 Q166 -107 175 -98 Q184 -89 184 -76 Q184 -65 179 -58.5 Q174 -52 164 -45 Q153 -37 147.5 -29.5 Q142 -22 142 -9 L142 678 L13 678 L13 700 L291 700 L291 678 L164 678 L164 1 Z " />
<glyph glyph-name="uni1E70" unicode="&#x1e70;" horiz-adv-x="303" d="M291 700 L291 678 L164 678 L164 0 L142 0 L142 678 L13 678 L13 700 L291 700 Z M139 -40 L166 -40 L233 -138 L213 -138 L152 -61 L91 -138 L71 -138 L139 -40 Z " />
<glyph glyph-name="uni021A" unicode="&#x21a;" horiz-adv-x="303" d="M291 700 L291 678 L164 678 L164 0 L142 0 L142 678 L13 678 L13 700 L291 700 Z M179 -66 Q179 -76 172 -90 Q170 -94 155 -118 L135 -118 L141 -104 Q143 -100 143 -97 Q143 -92 139 -88 Q127 -79 127 -66 Q127 -56 135 -48 Q143 -40 153 -40 Q164 -40 171.5 -48 Q179 -56 179 -66 Z " />
<glyph glyph-name="uni1E6C" unicode="&#x1e6c;" horiz-adv-x="303" d="M291 700 L291 678 L164 678 L164 0 L142 0 L142 678 L13 678 L13 700 L291 700 Z M179 -66 Q179 -55 171.5 -47.5 Q164 -40 153 -40 Q142 -40 134.5 -47.5 Q127 -55 127 -66 Q127 -77 135 -84.5 Q143 -92 153 -92 Q164 -92 171.5 -84.5 Q179 -77 179 -66 Z " />
<glyph glyph-name="uni01AC" unicode="&#x1ac;" horiz-adv-x="348" d="M336 700 L336 678 L209 678 L209 0 L187 0 L187 678 L58 678 Q45 678 36 669 Q27 660 27 647 L5 647 Q5 669 20.5 684.5 Q36 700 58 700 L336 700 Z " />
<glyph glyph-name="uni1E6E" unicode="&#x1e6e;" horiz-adv-x="304" d="M291 700 L291 678 L164 678 L164 0 L142 0 L142 678 L13 678 L13 700 L291 700 Z M319 -62 L319 -40 L-15 -40 L-15 -62 L319 -62 Z " />
<glyph glyph-name="uni01AE" unicode="&#x1ae;" horiz-adv-x="303" d="M164 678 L164 -42 Q164 -55 173 -63.5 Q182 -72 195 -72 L195 -94 Q173 -94 157.5 -79 Q142 -64 142 -42 L142 678 L13 678 L13 700 L291 700 L291 678 L164 678 Z " />
<glyph glyph-name="U" unicode="U" horiz-adv-x="344" d="M172 -9 Q233 -9 270 25 Q311 63 311 137 L311 700 L289 700 L289 137 Q289 72 255 41 Q225 13 172 13 Q120 13 89 41 Q55 73 55 137 L55 700 L33 700 L33 137 Q33 63 74 25 Q111 -9 172 -9 Z " />
<glyph glyph-name="Uacute" unicode="&#xda;" horiz-adv-x="344" d="M172 -9 Q233 -9 270 25 Q311 63 311 137 L311 700 L289 700 L289 137 Q289 72 255 41 Q225 13 172 13 Q120 13 89 41 Q55 73 55 137 L55 700 L33 700 L33 137 Q33 63 74 25 Q111 -9 172 -9 Z M256 835 L182 737 L162 737 L225 835 L256 835 Z " />
<glyph glyph-name="uni0244" unicode="&#x244;" horiz-adv-x="368" d="M363 349 L323 349 L323 137 Q323 63 282 25 Q245 -9 184 -9 Q123 -9 86 25 Q45 63 45 137 L45 349 L5 349 L5 371 L45 371 L45 700 L67 700 L67 371 L301 371 L301 700 L323 700 L323 371 L363 371 L363 349 Z M301 349 L67 349 L67 137 Q67 73 101 41 Q132 13 184 13 Q237 13 267 41 Q301 72 301 137 L301 349 Z " />
<glyph glyph-name="uni01D3" unicode="&#x1d3;" horiz-adv-x="344" d="M172 -9 Q233 -9 270 25 Q311 63 311 137 L311 700 L289 700 L289 137 Q289 72 255 41 Q225 13 172 13 Q120 13 89 41 Q55 73 55 137 L55 700 L33 700 L33 137 Q33 63 74 25 Q111 -9 172 -9 Z M160 737 L92 835 L112 835 L173 758 L234 835 L254 835 L187 737 L160 737 Z " />
<glyph glyph-name="Ucircumflex" unicode="&#xdb;" horiz-adv-x="344" d="M172 -9 Q233 -9 270 25 Q311 63 311 137 L311 700 L289 700 L289 137 Q289 72 255 41 Q225 13 172 13 Q120 13 89 41 Q55 73 55 137 L55 700 L33 700 L33 137 Q33 63 74 25 Q111 -9 172 -9 Z M159 835 L186 835 L253 737 L233 737 L172 814 L111 737 L91 737 L159 835 Z " />
<glyph glyph-name="Udieresis" unicode="&#xdc;" horiz-adv-x="344" d="M172 -9 Q233 -9 270 25 Q311 63 311 137 L311 700 L289 700 L289 137 Q289 72 255 41 Q225 13 172 13 Q120 13 89 41 Q55 73 55 137 L55 700 L33 700 L33 137 Q33 63 74 25 Q111 -9 172 -9 Z M131 763 Q131 774 123.5 781.5 Q116 789 105 789 Q94 789 86.5 781.5 Q79 774 79 763 Q79 753 87 745 Q95 737 105 737 Q116 737 123.5 744.5 Q131 752 131 763 Z M265 763 Q265 774 257.5 781.5 Q250 789 239 789 Q228 789 220.5 781.5 Q213 774 213 763 Q213 753 221 745 Q229 737 239 737 Q250 737 257.5 744.5 Q265 752 265 763 Z " />
<glyph glyph-name="uni01D7" unicode="&#x1d7;" horiz-adv-x="344" d="M172 -9 Q233 -9 270 25 Q311 63 311 137 L311 700 L289 700 L289 137 Q289 72 255 41 Q225 13 172 13 Q120 13 89 41 Q55 73 55 137 L55 700 L33 700 L33 137 Q33 63 74 25 Q111 -9 172 -9 Z M131 763 Q131 774 123.5 781.5 Q116 789 105 789 Q94 789 86.5 781.5 Q79 774 79 763 Q79 753 87 745 Q95 737 105 737 Q116 737 123.5 744.5 Q131 752 131 763 Z M265 763 Q265 774 257.5 781.5 Q250 789 239 789 Q228 789 220.5 781.5 Q213 774 213 763 Q213 753 221 745 Q229 737 239 737 Q250 737 257.5 744.5 Q265 752 265 763 Z M256 925 L182 827 L162 827 L225 925 L256 925 Z " />
<glyph glyph-name="uni01D9" unicode="&#x1d9;" horiz-adv-x="344" d="M172 -9 Q233 -9 270 25 Q311 63 311 137 L311 700 L289 700 L289 137 Q289 72 255 41 Q225 13 172 13 Q120 13 89 41 Q55 73 55 137 L55 700 L33 700 L33 137 Q33 63 74 25 Q111 -9 172 -9 Z M131 763 Q131 774 123.5 781.5 Q116 789 105 789 Q94 789 86.5 781.5 Q79 774 79 763 Q79 753 87 745 Q95 737 105 737 Q116 737 123.5 744.5 Q131 752 131 763 Z M265 763 Q265 774 257.5 781.5 Q250 789 239 789 Q228 789 220.5 781.5 Q213 774 213 763 Q213 753 221 745 Q229 737 239 737 Q250 737 257.5 744.5 Q265 752 265 763 Z M159 827 L91 925 L111 925 L172 848 L233 925 L253 925 L186 827 L159 827 Z " />
<glyph glyph-name="uni01DB" unicode="&#x1db;" horiz-adv-x="344" d="M172 -9 Q233 -9 270 25 Q311 63 311 137 L311 700 L289 700 L289 137 Q289 73 255 41 Q224 13 172 13 Q119 13 89 41 Q55 72 55 137 L55 700 L33 700 L33 137 Q33 63 74 25 Q111 -9 172 -9 Z M213 763 Q213 752 220.5 744.5 Q228 737 239 737 Q250 737 257.5 745 Q265 753 265 763 Q265 774 257.5 781.5 Q250 789 239 789 Q228 789 220.5 781.5 Q213 774 213 763 Z M79 763 Q79 752 86.5 744.5 Q94 737 105 737 Q116 737 123.5 745 Q131 753 131 763 Q131 774 123.5 781.5 Q116 789 105 789 Q94 789 86.5 781.5 Q79 774 79 763 Z M88 925 L119 925 L182 827 L162 827 L88 925 Z " />
<glyph glyph-name="uni01D5" unicode="&#x1d5;" horiz-adv-x="344" d="M172 -9 Q233 -9 270 25 Q311 63 311 137 L311 700 L289 700 L289 137 Q289 73 255 41 Q224 13 172 13 Q119 13 89 41 Q55 72 55 137 L55 700 L33 700 L33 137 Q33 63 74 25 Q111 -9 172 -9 Z M131 763 Q131 774 123.5 781.5 Q116 789 105 789 Q94 789 86.5 781.5 Q79 774 79 763 Q79 753 87 745 Q95 737 105 737 Q116 737 123.5 744.5 Q131 752 131 763 Z M265 763 Q265 774 257.5 781.5 Q250 789 239 789 Q228 789 220.5 781.5 Q213 774 213 763 Q213 753 221 745 Q229 737 239 737 Q250 737 257.5 744.5 Q265 752 265 763 Z M339 827 L339 849 L5 849 L5 827 L339 827 Z " />
<glyph glyph-name="uni1EE4" unicode="&#x1ee4;" horiz-adv-x="344" d="M198 -66 Q198 -55 190.5 -47.5 Q183 -40 172 -40 Q161 -40 153.5 -47.5 Q146 -55 146 -66 Q146 -77 154 -84.5 Q162 -92 172 -92 Q183 -92 190.5 -84.5 Q198 -77 198 -66 Z M172 -9 Q233 -9 270 25 Q311 63 311 137 L311 700 L289 700 L289 137 Q289 72 255 41 Q225 13 172 13 Q120 13 89 41 Q55 73 55 137 L55 700 L33 700 L33 137 Q33 63 74 25 Q111 -9 172 -9 Z " />
<glyph glyph-name="Ugrave" unicode="&#xd9;" horiz-adv-x="344" d="M172 -9 Q233 -9 270 25 Q311 63 311 137 L311 700 L289 700 L289 137 Q289 72 255 41 Q225 13 172 13 Q120 13 89 41 Q55 73 55 137 L55 700 L33 700 L33 137 Q33 63 74 25 Q111 -9 172 -9 Z M88 835 L119 835 L182 737 L162 737 L88 835 Z " />
<glyph glyph-name="uni1EE6" unicode="&#x1ee6;" horiz-adv-x="344" d="M172 -9 Q233 -9 270 25 Q311 63 311 137 L311 700 L289 700 L289 137 Q289 72 255 41 Q225 13 172 13 Q120 13 89 41 Q55 73 55 137 L55 700 L33 700 L33 137 Q33 63 74 25 Q111 -9 172 -9 Z M162 737 Q162 765 141.5 785.5 Q121 806 92 806 L73 825 Q82 828 92 828 Q129 828 155.5 801.5 Q182 775 182 737 L162 737 Z " />
<glyph glyph-name="Uhorn" unicode="&#x1af;" horiz-adv-x="386" d="M406 731 Q406 709 390.5 693.5 Q375 678 353 678 L311 678 L311 137 Q311 63 270 25 Q233 -9 172 -9 Q111 -9 74 25 Q33 63 33 137 L33 700 L55 700 L55 137 Q55 73 89 41 Q120 13 172 13 Q225 13 255 41 Q289 72 289 137 L289 700 L353 700 Q366 700 375 709 Q384 718 384 731 L406 731 Z " />
<glyph glyph-name="uni1EE8" unicode="&#x1ee8;" horiz-adv-x="386" d="M406 731 Q406 709 390.5 693.5 Q375 678 353 678 L311 678 L311 137 Q311 63 270 25 Q233 -9 172 -9 Q111 -9 74 25 Q33 63 33 137 L33 700 L55 700 L55 137 Q55 73 89 41 Q120 13 172 13 Q225 13 255 41 Q289 72 289 137 L289 700 L353 700 Q366 700 375 709 Q384 718 384 731 L406 731 Z M256 835 L182 737 L162 737 L225 835 L256 835 Z " />
<glyph glyph-name="uni1EF0" unicode="&#x1ef0;" horiz-adv-x="386" d="M406 731 Q406 709 390.5 693.5 Q375 678 353 678 L311 678 L311 137 Q311 63 270 25 Q233 -9 172 -9 Q111 -9 74 25 Q33 63 33 137 L33 700 L55 700 L55 137 Q55 73 89 41 Q120 13 172 13 Q225 13 255 41 Q289 72 289 137 L289 700 L353 700 Q366 700 375 709 Q384 718 384 731 L406 731 Z M198 -66 Q198 -55 190.5 -47.5 Q183 -40 172 -40 Q161 -40 153.5 -47.5 Q146 -55 146 -66 Q146 -77 154 -84.5 Q162 -92 172 -92 Q183 -92 190.5 -84.5 Q198 -77 198 -66 Z " />
<glyph glyph-name="uni1EEA" unicode="&#x1eea;" horiz-adv-x="386" d="M406 731 Q406 709 390.5 693.5 Q375 678 353 678 L311 678 L311 137 Q311 63 270 25 Q233 -9 172 -9 Q111 -9 74 25 Q33 63 33 137 L33 700 L55 700 L55 137 Q55 73 89 41 Q120 13 172 13 Q225 13 255 41 Q289 72 289 137 L289 700 L353 700 Q366 700 375 709 Q384 718 384 731 L406 731 Z M88 835 L119 835 L182 737 L162 737 L88 835 Z " />
<glyph glyph-name="uni1EEC" unicode="&#x1eec;" horiz-adv-x="386" d="M406 731 Q406 709 390.5 693.5 Q375 678 353 678 L311 678 L311 137 Q311 63 270 25 Q233 -9 172 -9 Q111 -9 74 25 Q33 63 33 137 L33 700 L55 700 L55 137 Q55 73 89 41 Q120 13 172 13 Q225 13 255 41 Q289 72 289 137 L289 700 L353 700 Q366 700 375 709 Q384 718 384 731 L406 731 Z M162 737 Q162 765 141.5 785.5 Q121 806 92 806 L73 825 Q82 828 92 828 Q129 828 155.5 801.5 Q182 775 182 737 L162 737 Z " />
<glyph glyph-name="uni1EEE" unicode="&#x1eee;" horiz-adv-x="386" d="M406 731 Q406 709 390.5 693.5 Q375 678 353 678 L311 678 L311 137 Q311 63 270 25 Q233 -9 172 -9 Q111 -9 74 25 Q33 63 33 137 L33 700 L55 700 L55 137 Q55 73 89 41 Q120 13 172 13 Q225 13 255 41 Q289 72 289 137 L289 700 L353 700 Q366 700 375 709 Q384 718 384 731 L406 731 Z M69 738 Q97 772 124 772 Q143 772 169 756 Q199 738 222 738 Q230 738 233 739 Q264 743 293 780 L276 793 Q249 760 222 760 Q204 760 181 774 Q146 794 124 794 L114 793 Q83 789 52 752 L69 738 Z " />
<glyph glyph-name="Uhungarumlaut" unicode="&#x170;" horiz-adv-x="344" d="M172 -9 Q233 -9 270 25 Q311 63 311 137 L311 700 L289 700 L289 137 Q289 72 255 41 Q225 13 172 13 Q120 13 89 41 Q55 73 55 137 L55 700 L33 700 L33 137 Q33 63 74 25 Q111 -9 172 -9 Z M301 835 L227 737 L207 737 L270 835 L301 835 Z M210 835 L136 737 L116 737 L179 835 L210 835 Z " />
<glyph glyph-name="Umacron" unicode="&#x16a;" horiz-adv-x="344" d="M172 -9 Q233 -9 270 25 Q311 63 311 137 L311 700 L289 700 L289 137 Q289 72 255 41 Q225 13 172 13 Q120 13 89 41 Q55 73 55 137 L55 700 L33 700 L33 137 Q33 63 74 25 Q111 -9 172 -9 Z M339 737 L339 759 L5 759 L5 737 L339 737 Z " />
<glyph glyph-name="Uogonek" unicode="&#x172;" horiz-adv-x="344" d="M311 700 L311 137 Q311 63 270 25 L255 11 Q225 -16 212.5 -31 Q200 -46 200 -60 Q200 -81 243 -81 L252 -81 L252 -104 L233 -104 Q204 -104 185 -97 Q166 -90 166 -69 Q166 -41 214 -4 Q192 -9 172 -9 Q111 -9 74 25 Q33 63 33 137 L33 700 L55 700 L55 137 Q55 73 89 41 Q120 13 172 13 Q225 13 255 41 Q289 72 289 137 L289 700 L311 700 Z " />
<glyph glyph-name="Uring" unicode="&#x16e;" horiz-adv-x="344" d="M172 -9 Q233 -9 270 25 Q311 63 311 137 L311 700 L289 700 L289 137 Q289 72 255 41 Q225 13 172 13 Q120 13 89 41 Q55 73 55 137 L55 700 L33 700 L33 137 Q33 63 74 25 Q111 -9 172 -9 Z M172 737 Q194 737 209.5 752.5 Q225 768 225 790 Q225 812 209.5 827.5 Q194 843 172 843 Q150 843 134.5 827.5 Q119 812 119 790 Q119 768 134.5 752.5 Q150 737 172 737 Z M172 821 Q185 821 194 812 Q203 803 203 790 Q203 777 194 768 Q185 759 172 759 Q159 759 150 768 Q141 777 141 790 Q141 803 150 812 Q159 821 172 821 Z " />
<glyph glyph-name="Utilde" unicode="&#x168;" horiz-adv-x="344" d="M172 -9 Q233 -9 270 25 Q311 63 311 137 L311 700 L289 700 L289 137 Q289 72 255 41 Q225 13 172 13 Q120 13 89 41 Q55 73 55 137 L55 700 L33 700 L33 137 Q33 63 74 25 Q111 -9 172 -9 Z M68 738 Q96 772 123 772 Q142 772 168 756 Q198 738 221 738 Q229 738 232 739 Q263 743 292 780 L275 793 Q248 760 221 760 Q203 760 180 774 Q145 794 123 794 L113 793 Q82 789 51 752 L68 738 Z " />
<glyph glyph-name="V" unicode="V" horiz-adv-x="351" d="M187 0 L164 0 L14 700 L36 700 L176 49 L315 700 L337 700 L187 0 Z " />
<glyph glyph-name="uni0245" unicode="&#x245;" horiz-adv-x="351" d="M187 700 L337 0 L315 0 L176 651 L36 0 L14 0 L164 700 L187 700 Z " />
<glyph glyph-name="W" unicode="W" horiz-adv-x="497" d="M455 700 L478 700 L392 0 L380 0 L249 527 L117 0 L105 0 L20 700 L42 700 L116 84 L243 589 L255 589 L381 84 L455 700 Z " />
<glyph glyph-name="Wacute" unicode="&#x1e82;" horiz-adv-x="497" d="M455 700 L478 700 L392 0 L380 0 L249 527 L117 0 L105 0 L20 700 L42 700 L116 84 L243 589 L255 589 L381 84 L455 700 Z M333 835 L259 737 L239 737 L302 835 L333 835 Z " />
<glyph glyph-name="Wcircumflex" unicode="&#x174;" horiz-adv-x="497" d="M455 700 L478 700 L392 0 L380 0 L249 527 L117 0 L105 0 L20 700 L42 700 L116 84 L243 589 L255 589 L381 84 L455 700 Z M236 835 L263 835 L330 737 L310 737 L249 814 L188 737 L168 737 L236 835 Z " />
<glyph glyph-name="Wdieresis" unicode="&#x1e84;" horiz-adv-x="497" d="M455 700 L478 700 L392 0 L380 0 L249 527 L117 0 L105 0 L20 700 L42 700 L116 84 L243 589 L255 589 L381 84 L455 700 Z M208 763 Q208 774 200.5 781.5 Q193 789 182 789 Q171 789 163.5 781.5 Q156 774 156 763 Q156 753 164 745 Q172 737 182 737 Q193 737 200.5 744.5 Q208 752 208 763 Z M342 763 Q342 774 334.5 781.5 Q327 789 316 789 Q305 789 297.5 781.5 Q290 774 290 763 Q290 753 298 745 Q306 737 316 737 Q327 737 334.5 744.5 Q342 752 342 763 Z " />
<glyph glyph-name="Wgrave" unicode="&#x1e80;" horiz-adv-x="497" d="M455 700 L478 700 L392 0 L380 0 L249 527 L117 0 L105 0 L20 700 L42 700 L116 84 L243 589 L255 589 L381 84 L455 700 Z M165 835 L196 835 L259 737 L239 737 L165 835 Z " />
<glyph glyph-name="uni2C72" unicode="&#x2c72;" horiz-adv-x="550" d="M517 700 Q539 700 554.5 684.5 Q570 669 570 647 L548 647 Q548 660 539 669 Q530 678 517 678 L475 678 L392 0 L380 0 L249 527 L117 0 L105 0 L20 700 L42 700 L116 84 L243 589 L255 589 L381 84 L455 700 L517 700 Z " />
<glyph glyph-name="X" unicode="X" horiz-adv-x="360" d="M180 332 L44 0 L21 0 L164 349 L15 700 L39 700 L180 366 L322 700 L346 700 L197 349 L340 0 L317 0 L180 332 Z " />
<glyph glyph-name="Y" unicode="Y" horiz-adv-x="346" d="M173 274 L314 700 L337 700 L184 237 L184 0 L162 0 L162 237 L9 700 L32 700 L173 274 Z " />
<glyph glyph-name="Yacute" unicode="&#xdd;" horiz-adv-x="346" d="M173 274 L314 700 L337 700 L184 237 L184 0 L162 0 L162 237 L9 700 L32 700 L173 274 Z M257 835 L183 737 L163 737 L226 835 L257 835 Z " />
<glyph glyph-name="Ycircumflex" unicode="&#x176;" horiz-adv-x="346" d="M173 274 L314 700 L337 700 L184 237 L184 0 L162 0 L162 237 L9 700 L32 700 L173 274 Z M160 835 L187 835 L254 737 L234 737 L173 814 L112 737 L92 737 L160 835 Z " />
<glyph glyph-name="Ydieresis" unicode="&#x178;" horiz-adv-x="346" d="M173 274 L314 700 L337 700 L184 237 L184 0 L162 0 L162 237 L9 700 L32 700 L173 274 Z M136 763 Q136 774 128.5 781.5 Q121 789 110 789 Q99 789 91.5 781.5 Q84 774 84 763 Q84 753 92 745 Q100 737 110 737 Q121 737 128.5 744.5 Q136 752 136 763 Z M270 763 Q270 774 262.5 781.5 Q255 789 244 789 Q233 789 225.5 781.5 Q218 774 218 763 Q218 753 226 745 Q234 737 244 737 Q255 737 262.5 744.5 Q270 752 270 763 Z " />
<glyph glyph-name="uni1EF4" unicode="&#x1ef4;" horiz-adv-x="346" d="M173 274 L314 700 L337 700 L184 237 L184 0 L162 0 L162 237 L9 700 L32 700 L173 274 Z M199 -66 Q199 -55 191.5 -47.5 Q184 -40 173 -40 Q162 -40 154.5 -47.5 Q147 -55 147 -66 Q147 -77 155 -84.5 Q163 -92 173 -92 Q184 -92 191.5 -84.5 Q199 -77 199 -66 Z " />
<glyph glyph-name="Ygrave" unicode="&#x1ef2;" horiz-adv-x="346" d="M173 274 L314 700 L337 700 L184 237 L184 0 L162 0 L162 237 L9 700 L32 700 L173 274 Z M89 835 L120 835 L183 737 L163 737 L89 835 Z " />
<glyph glyph-name="uni01B3" unicode="&#x1b3;" horiz-adv-x="405" d="M372 700 Q394 700 409.5 684.5 Q425 669 425 647 L403 647 Q403 660 394 669 Q385 678 372 678 L330 678 L184 237 L184 0 L162 0 L162 237 L9 700 L32 700 L173 274 L314 700 L372 700 Z " />
<glyph glyph-name="uni1EF6" unicode="&#x1ef6;" horiz-adv-x="346" d="M173 274 L314 700 L337 700 L184 237 L184 0 L162 0 L162 237 L9 700 L32 700 L173 274 Z M163 737 Q163 765 142.5 785.5 Q122 806 93 806 L74 825 Q83 828 93 828 Q130 828 156.5 801.5 Q183 775 183 737 L163 737 Z " />
<glyph glyph-name="uni1EF8" unicode="&#x1ef8;" horiz-adv-x="346" d="M173 274 L314 700 L337 700 L184 237 L184 0 L162 0 L162 237 L9 700 L32 700 L173 274 Z M70 738 Q98 772 125 772 Q144 772 170 756 Q200 738 223 738 Q231 738 234 739 Q265 743 294 780 L277 793 Q250 760 223 760 Q205 760 182 774 Q147 794 125 794 L115 793 Q84 789 53 752 L70 738 Z " />
<glyph glyph-name="Z" unicode="Z" horiz-adv-x="318" d="M298 0 L298 22 L51 22 L297 700 L20 700 L20 678 L266 678 L20 0 L298 0 Z " />
<glyph glyph-name="Zacute" unicode="&#x179;" horiz-adv-x="318" d="M298 0 L298 22 L51 22 L297 700 L20 700 L20 678 L266 678 L20 0 L298 0 Z M243 835 L169 737 L149 737 L212 835 L243 835 Z " />
<glyph glyph-name="Zcaron" unicode="&#x17d;" horiz-adv-x="318" d="M298 0 L298 22 L51 22 L297 700 L20 700 L20 678 L266 678 L20 0 L298 0 Z M145 737 L77 835 L97 835 L158 758 L219 835 L239 835 L172 737 L145 737 Z " />
<glyph glyph-name="Zdotaccent" unicode="&#x17b;" horiz-adv-x="318" d="M298 0 L298 22 L51 22 L297 700 L20 700 L20 678 L266 678 L20 0 L298 0 Z M184 763 Q184 774 176.5 781.5 Q169 789 158 789 Q147 789 139.5 781.5 Q132 774 132 763 Q132 753 140 745 Q148 737 158 737 Q169 737 176.5 744.5 Q184 752 184 763 Z " />
<glyph glyph-name="uni1E92" unicode="&#x1e92;" horiz-adv-x="318" d="M298 0 L298 22 L51 22 L297 700 L20 700 L20 678 L266 678 L20 0 L298 0 Z M184 -66 Q184 -55 176.5 -47.5 Q169 -40 158 -40 Q147 -40 139.5 -47.5 Q132 -55 132 -66 Q132 -77 140 -84.5 Q148 -92 158 -92 Q169 -92 176.5 -84.5 Q184 -77 184 -66 Z " />
<glyph glyph-name="uni0299" unicode="&#x299;" horiz-adv-x="351" d="M179 0 Q242 0 276 31 Q317 66 317 141 L317 164 Q317 238 277 277 Q256 295 231 303 Q248 311 259 322 Q300 359 300 434 L300 458 Q300 532 259 568 Q224 600 162 600 L40 600 L40 0 L179 0 Z M62 288 L179 288 Q233 288 262 260 Q295 230 295 164 L295 141 Q295 22 179 22 L62 22 L62 288 Z M62 578 L162 578 Q278 578 278 458 L278 434 Q278 369 244 338 Q216 310 162 310 L62 310 L62 578 Z " />
<glyph glyph-name="uni0262" unicode="&#x262;" horiz-adv-x="346" d="M173 -9 Q235 -9 271 24 Q312 62 312 136 L312 311 L173 311 L173 289 L290 289 L290 136 Q290 72 256 40 Q226 13 173 13 Q119 13 90 40 Q56 71 56 136 L56 463 Q56 528 90 559 Q120 587 173 587 Q225 587 256 559 Q290 527 290 463 L290 443 L312 443 L312 463 Q312 537 271 575 Q234 609 173 609 Q112 609 75 575 Q34 537 34 463 L34 136 Q34 62 75 24 Q111 -9 173 -9 Z " />
<glyph glyph-name="uni029B" unicode="&#x29b;" horiz-adv-x="346" d="M290 609 Q290 631 305.5 646.5 Q321 662 343 662 L343 640 Q330 640 321 631 Q312 622 312 609 L312 443 L290 443 L290 463 Q290 527 256 559 Q225 587 173 587 Q120 587 90 559 Q56 528 56 463 L56 136 Q56 71 90 40 Q119 13 173 13 Q226 13 256 40 Q290 72 290 136 L290 289 L173 289 L173 311 L312 311 L312 136 Q312 62 271 24 Q235 -9 173 -9 Q111 -9 75 24 Q34 62 34 136 L34 463 Q34 537 75 575 Q112 609 173 609 Q234 609 271 575 Q285 561 290 552 L290 609 Z " />
<glyph glyph-name="uni029C" unicode="&#x29c;" horiz-adv-x="367" d="M300 600 L322 600 L322 0 L300 0 L300 298 L67 298 L67 0 L45 0 L45 600 L67 600 L67 320 L300 320 L300 600 Z " />
<glyph glyph-name="uni026A" unicode="&#x26a;" horiz-adv-x="122" d="M72 0 L72 600 L50 600 L50 0 L72 0 Z " />
<glyph glyph-name="uni029F" unicode="&#x29f;" horiz-adv-x="293" d="M275 0 L275 22 L62 22 L62 600 L40 600 L40 0 L275 0 Z " />
<glyph glyph-name="uni0274" unicode="&#x274;" horiz-adv-x="377" d="M332 600 L332 0 L320 0 L67 521 L67 0 L45 0 L45 600 L57 600 L310 79 L310 600 L332 600 Z " />
<glyph glyph-name="uni0276" unicode="&#x276;" horiz-adv-x="490" d="M253 578 L253 320 L402 320 L402 298 L253 298 L253 22 L466 22 L466 0 L231 0 L173 0 Q112 0 75 34 Q34 72 34 146 L34 454 Q34 528 75 566 Q112 600 173 600 L231 600 L466 600 L466 578 L253 578 Z M231 22 L231 578 L173 578 Q120 578 90 550 Q56 519 56 454 L56 146 Q56 81 90 50 Q120 22 173 22 L231 22 Z " />
<glyph glyph-name="uni0280" unicode="&#x280;" horiz-adv-x="343" d="M317 0 L294 0 L190 269 L179 269 L62 269 L62 0 L40 0 L40 600 L179 600 Q240 600 277 566 Q318 527 318 453 L318 414 Q318 340 277 302 Q250 278 212 272 L317 0 Z M179 291 Q232 291 262 318 Q296 350 296 414 L296 453 Q296 516 262 550 Q231 578 179 578 L62 578 L62 291 L179 291 Z " />
<glyph glyph-name="uni0281" unicode="&#x281;" horiz-adv-x="343" d="M212 328 Q250 322 277 298 Q318 260 318 186 L318 147 Q318 73 277 34 Q240 0 179 0 L40 0 L40 600 L62 600 L62 331 L179 331 L190 331 L294 600 L317 600 L212 328 Z M62 309 L62 22 L179 22 Q231 22 262 50 Q296 84 296 147 L296 186 Q296 250 262 282 Q232 309 179 309 L62 309 Z " />
<glyph glyph-name="uni028F" unicode="&#x28f;" horiz-adv-x="346" d="M173 224 L314 600 L337 600 L184 187 L184 0 L162 0 L162 187 L9 600 L32 600 L173 224 Z " />
<glyph glyph-name="a" unicode="a" horiz-adv-x="364" d="M321 0 L279 199 L86 199 L43 0 L20 0 L171 700 L193 700 L344 0 L321 0 Z M90 221 L274 221 L182 650 L90 221 Z " />
<glyph glyph-name="aacute" unicode="&#xe1;" horiz-adv-x="364" d="M321 0 L279 199 L86 199 L43 0 L20 0 L171 700 L193 700 L344 0 L321 0 Z M90 221 L274 221 L182 650 L90 221 Z M266 835 L192 737 L172 737 L235 835 L266 835 Z " />
<glyph glyph-name="abreve" unicode="&#x103;" horiz-adv-x="364" d="M321 0 L279 199 L86 199 L43 0 L20 0 L171 700 L193 700 L344 0 L321 0 Z M90 221 L274 221 L182 650 L90 221 Z M273 828 Q273 791 246.5 764 Q220 737 182 737 Q145 737 118 764 Q91 791 91 828 L113 828 Q113 800 133.5 779.5 Q154 759 182 759 Q211 759 231 779.5 Q251 800 251 828 L273 828 Z " />
<glyph glyph-name="uni1EAF" unicode="&#x1eaf;" horiz-adv-x="364" d="M321 0 L279 199 L86 199 L43 0 L20 0 L171 700 L193 700 L344 0 L321 0 Z M90 221 L274 221 L182 650 L90 221 Z M273 828 Q273 791 246.5 764 Q220 737 182 737 Q145 737 118 764 Q91 791 91 828 L113 828 Q113 800 133.5 779.5 Q154 759 182 759 Q211 759 231 779.5 Q251 800 251 828 L273 828 Z M266 954 L192 856 L172 856 L235 954 L266 954 Z " />
<glyph glyph-name="uni1EB7" unicode="&#x1eb7;" horiz-adv-x="364" d="M321 0 L279 199 L86 199 L43 0 L20 0 L171 700 L193 700 L344 0 L321 0 Z M90 221 L274 221 L182 650 L90 221 Z M273 828 Q273 791 246.5 764 Q220 737 182 737 Q145 737 118 764 Q91 791 91 828 L113 828 Q113 800 133.5 779.5 Q154 759 182 759 Q211 759 231 779.5 Q251 800 251 828 L273 828 Z M321 0 L279 199 L86 199 L43 0 L20 0 L171 700 L193 700 L344 0 L321 0 Z M90 221 L274 221 L182 650 L90 221 Z M273 828 Q273 791 246.5 764 Q220 737 182 737 Q145 737 118 764 Q91 791 91 828 L113 828 Q113 800 133.5 779.5 Q154 759 182 759 Q211 759 231 779.5 Q251 800 251 828 L273 828 Z M208 -66 Q208 -55 200.5 -47.5 Q193 -40 182 -40 Q171 -40 163.5 -47.5 Q156 -55 156 -66 Q156 -77 164 -84.5 Q172 -92 182 -92 Q193 -92 200.5 -84.5 Q208 -77 208 -66 Z " />
<glyph glyph-name="uni1EB1" unicode="&#x1eb1;" horiz-adv-x="364" d="M321 0 L279 199 L86 199 L43 0 L20 0 L171 700 L193 700 L344 0 L321 0 Z M90 221 L274 221 L182 650 L90 221 Z M113 828 Q113 800 133.5 779.5 Q154 759 182 759 Q211 759 231 779.5 Q251 800 251 828 L273 828 Q273 791 246.5 764 Q220 737 182 737 Q145 737 118 764 Q91 791 91 828 L113 828 Z M98 954 L129 954 L192 856 L172 856 L98 954 Z " />
<glyph glyph-name="uni1EB3" unicode="&#x1eb3;" horiz-adv-x="364" d="M321 0 L279 199 L86 199 L43 0 L20 0 L171 700 L193 700 L344 0 L321 0 Z M90 221 L274 221 L182 650 L90 221 Z M273 828 Q273 791 246.5 764 Q220 737 182 737 Q145 737 118 764 Q91 791 91 828 L113 828 Q113 800 133.5 779.5 Q154 759 182 759 Q211 759 231 779.5 Q251 800 251 828 L273 828 Z M172 856 Q172 884 151.5 904.5 Q131 925 102 925 L83 944 Q92 947 102 947 Q139 947 165.5 920.5 Q192 894 192 856 L172 856 Z " />
<glyph glyph-name="uni1EB5" unicode="&#x1eb5;" horiz-adv-x="364" d="M321 0 L279 199 L86 199 L43 0 L20 0 L171 700 L193 700 L344 0 L321 0 Z M90 221 L274 221 L182 650 L90 221 Z M273 828 Q273 791 246.5 764 Q220 737 182 737 Q145 737 118 764 Q91 791 91 828 L113 828 Q113 800 133.5 779.5 Q154 759 182 759 Q211 759 231 779.5 Q251 800 251 828 L273 828 Z M66 856 Q94 890 121 890 Q140 890 166 874 Q196 856 219 856 Q227 856 230 857 Q261 861 290 898 L273 911 Q246 878 219 878 Q201 878 178 892 Q143 912 121 912 L111 911 Q80 907 49 870 L66 856 Z " />
<glyph glyph-name="uni01CE" unicode="&#x1ce;" horiz-adv-x="364" d="M321 0 L279 199 L86 199 L43 0 L20 0 L171 700 L193 700 L344 0 L321 0 Z M90 221 L274 221 L182 650 L90 221 Z M169 737 L101 835 L121 835 L182 758 L243 835 L263 835 L196 737 L169 737 Z " />
<glyph glyph-name="acircumflex" unicode="&#xe2;" horiz-adv-x="364" d="M321 0 L279 199 L86 199 L43 0 L20 0 L171 700 L193 700 L344 0 L321 0 Z M90 221 L274 221 L182 650 L90 221 Z M169 835 L196 835 L263 737 L243 737 L182 814 L121 737 L101 737 L169 835 Z " />
<glyph glyph-name="uni1EA5" unicode="&#x1ea5;" horiz-adv-x="364" d="M321 0 L279 199 L86 199 L43 0 L20 0 L171 700 L193 700 L344 0 L321 0 Z M90 221 L274 221 L182 650 L90 221 Z M169 835 L196 835 L263 737 L243 737 L182 814 L121 737 L101 737 L169 835 Z M336 935 L262 837 L242 837 L305 935 L336 935 Z " />
<glyph glyph-name="uni1EAD" unicode="&#x1ead;" horiz-adv-x="364" d="M321 0 L279 199 L86 199 L43 0 L20 0 L171 700 L193 700 L344 0 L321 0 Z M90 221 L274 221 L182 650 L90 221 Z M169 835 L196 835 L263 737 L243 737 L182 814 L121 737 L101 737 L169 835 Z M208 -66 Q208 -55 200.5 -47.5 Q193 -40 182 -40 Q171 -40 163.5 -47.5 Q156 -55 156 -66 Q156 -77 164 -84.5 Q172 -92 182 -92 Q193 -92 200.5 -84.5 Q208 -77 208 -66 Z " />
<glyph glyph-name="uni1EA7" unicode="&#x1ea7;" horiz-adv-x="364" d="M321 0 L279 199 L86 199 L43 0 L20 0 L171 700 L193 700 L344 0 L321 0 Z M90 221 L274 221 L182 650 L90 221 Z M169 835 L196 835 L263 737 L243 737 L182 814 L121 737 L101 737 L169 835 Z M168 935 L199 935 L262 837 L242 837 L168 935 Z " />
<glyph glyph-name="uni1EA9" unicode="&#x1ea9;" horiz-adv-x="364" d="M321 0 L279 199 L86 199 L43 0 L20 0 L171 700 L193 700 L344 0 L321 0 Z M90 221 L274 221 L182 650 L90 221 Z M169 835 L196 835 L263 737 L243 737 L182 814 L121 737 L101 737 L169 835 Z M172 856 Q172 884 151.5 904.5 Q131 925 102 925 L83 944 Q92 947 102 947 Q139 947 165.5 920.5 Q192 894 192 856 L172 856 Z " />
<glyph glyph-name="uni1EAB" unicode="&#x1eab;" horiz-adv-x="364" d="M321 0 L279 199 L86 199 L43 0 L20 0 L171 700 L193 700 L344 0 L321 0 Z M90 221 L274 221 L182 650 L90 221 Z M169 835 L196 835 L263 737 L243 737 L182 814 L121 737 L101 737 L169 835 Z M78 856 Q106 890 133 890 Q152 890 178 874 Q208 856 231 856 Q239 856 242 857 Q273 861 302 898 L285 911 Q258 878 231 878 Q213 878 190 892 Q155 912 133 912 L123 911 Q92 907 61 870 L78 856 Z " />
<glyph glyph-name="adieresis" unicode="&#xe4;" horiz-adv-x="364" d="M321 0 L279 199 L86 199 L43 0 L20 0 L171 700 L193 700 L344 0 L321 0 Z M90 221 L274 221 L182 650 L90 221 Z M141 763 Q141 774 133.5 781.5 Q126 789 115 789 Q104 789 96.5 781.5 Q89 774 89 763 Q89 753 97 745 Q105 737 115 737 Q126 737 133.5 744.5 Q141 752 141 763 Z M275 763 Q275 774 267.5 781.5 Q260 789 249 789 Q238 789 230.5 781.5 Q223 774 223 763 Q223 753 231 745 Q239 737 249 737 Q260 737 267.5 744.5 Q275 752 275 763 Z " />
<glyph glyph-name="uni01DF" unicode="&#x1df;" horiz-adv-x="379" d="M321 0 L279 199 L86 199 L43 0 L20 0 L171 700 L193 700 L344 0 L321 0 Z M90 221 L274 221 L182 650 L90 221 Z M141 763 Q141 774 133.5 781.5 Q126 789 115 789 Q104 789 96.5 781.5 Q89 774 89 763 Q89 753 97 745 Q105 737 115 737 Q126 737 133.5 744.5 Q141 752 141 763 Z M275 763 Q275 774 267.5 781.5 Q260 789 249 789 Q238 789 230.5 781.5 Q223 774 223 763 Q223 753 231 745 Q239 737 249 737 Q260 737 267.5 744.5 Q275 752 275 763 Z M359 827 L359 849 L25 849 L25 827 L359 827 Z " />
<glyph glyph-name="uni1EA1" unicode="&#x1ea1;" horiz-adv-x="364" d="M321 0 L279 199 L86 199 L43 0 L20 0 L171 700 L193 700 L344 0 L321 0 Z M90 221 L274 221 L182 650 L90 221 Z M208 -66 Q208 -55 200.5 -47.5 Q193 -40 182 -40 Q171 -40 163.5 -47.5 Q156 -55 156 -66 Q156 -77 164 -84.5 Q172 -92 182 -92 Q193 -92 200.5 -84.5 Q208 -77 208 -66 Z " />
<glyph glyph-name="agrave" unicode="&#xe0;" horiz-adv-x="364" d="M321 0 L279 199 L86 199 L43 0 L20 0 L171 700 L193 700 L344 0 L321 0 Z M90 221 L274 221 L182 650 L90 221 Z M98 835 L129 835 L192 737 L172 737 L98 835 Z " />
<glyph glyph-name="uni1EA3" unicode="&#x1ea3;" horiz-adv-x="364" d="M321 0 L279 199 L86 199 L43 0 L20 0 L171 700 L193 700 L344 0 L321 0 Z M90 221 L274 221 L182 650 L90 221 Z M172 737 Q172 765 151.5 785.5 Q131 806 102 806 L83 825 Q92 828 102 828 Q139 828 165.5 801.5 Q192 775 192 737 L172 737 Z " />
<glyph glyph-name="amacron" unicode="&#x101;" horiz-adv-x="374" d="M326 0 L284 199 L91 199 L48 0 L25 0 L176 700 L198 700 L349 0 L326 0 Z M95 221 L279 221 L187 650 L95 221 Z M354 737 L354 759 L20 759 L20 737 L354 737 Z " />
<glyph glyph-name="aogonek" unicode="&#x105;" horiz-adv-x="364" d="M285 -60 Q285 -81 328 -81 L337 -81 L337 -104 L318 -104 Q289 -104 270 -97 Q251 -90 251 -69 Q251 -33 320 0 L321 0 L279 199 L86 199 L43 0 L20 0 L171 700 L193 700 L344 0 Q312 -18 298.5 -32 Q285 -46 285 -60 Z M90 221 L274 221 L182 650 L90 221 Z " />
<glyph glyph-name="aring" unicode="&#xe5;" horiz-adv-x="364" d="M321 0 L279 199 L86 199 L43 0 L20 0 L171 700 L193 700 L344 0 L321 0 Z M90 221 L274 221 L182 650 L90 221 Z M182 737 Q204 737 219.5 752.5 Q235 768 235 790 Q235 812 219.5 827.5 Q204 843 182 843 Q160 843 144.5 827.5 Q129 812 129 790 Q129 768 144.5 752.5 Q160 737 182 737 Z M182 821 Q195 821 204 812 Q213 803 213 790 Q213 777 204 768 Q195 759 182 759 Q169 759 160 768 Q151 777 151 790 Q151 803 160 812 Q169 821 182 821 Z " />
<glyph glyph-name="atilde" unicode="&#xe3;" horiz-adv-x="364" d="M321 0 L279 199 L86 199 L43 0 L20 0 L171 700 L193 700 L344 0 L321 0 Z M90 221 L274 221 L182 650 L90 221 Z M76 738 Q104 772 131 772 Q150 772 176 756 Q206 738 229 738 Q237 738 240 739 Q271 743 300 780 L283 793 Q256 760 229 760 Q211 760 188 774 Q153 794 131 794 L121 793 Q90 789 59 752 L76 738 Z " />
<glyph glyph-name="uni0250" unicode="&#x250;" horiz-adv-x="364" d="M321 700 L344 700 L193 0 L171 0 L20 700 L43 700 L86 501 L279 501 L321 700 Z M90 479 L182 50 L274 479 L90 479 Z " />
<glyph glyph-name="ae" unicode="&#xe6;" horiz-adv-x="518" d="M241 700 L278 700 L494 700 L494 678 L281 678 L281 370 L430 370 L430 348 L281 348 L281 22 L494 22 L494 0 L259 0 L259 161 L94 161 L43 0 L20 0 L241 700 Z M259 183 L259 676 L101 183 L259 183 Z " />
<glyph glyph-name="b" unicode="b" horiz-adv-x="351" d="M179 0 Q242 0 276 31 Q317 66 317 141 L317 214 Q317 288 277 327 Q256 345 231 353 Q248 361 259 372 Q300 409 300 484 L300 558 Q300 632 259 668 Q224 700 162 700 L40 700 L40 0 L179 0 Z M62 338 L179 338 Q233 338 262 310 Q295 280 295 214 L295 141 Q295 22 179 22 L62 22 L62 338 Z M62 678 L162 678 Q278 678 278 558 L278 484 Q278 419 244 388 Q216 360 162 360 L62 360 L62 678 Z " />
<glyph glyph-name="uni1E05" unicode="&#x1e05;" horiz-adv-x="351" d="M179 0 Q242 0 276 31 Q317 66 317 141 L317 214 Q317 288 277 327 Q256 345 231 353 Q248 361 259 372 Q300 409 300 484 L300 558 Q300 632 259 668 Q224 700 162 700 L40 700 L40 0 L179 0 Z M62 338 L179 338 Q233 338 262 310 Q295 280 295 214 L295 141 Q295 22 179 22 L62 22 L62 338 Z M62 678 L162 678 Q278 678 278 558 L278 484 Q278 419 244 388 Q216 360 162 360 L62 360 L62 678 Z M206 -66 Q206 -55 198.5 -47.5 Q191 -40 180 -40 Q169 -40 161.5 -47.5 Q154 -55 154 -66 Q154 -77 162 -84.5 Q170 -92 180 -92 Q191 -92 198.5 -84.5 Q206 -77 206 -66 Z " />
<glyph glyph-name="uni0253" unicode="&#x253;" horiz-adv-x="386" d="M312 327 Q352 288 352 214 L352 141 Q352 66 311 31 Q277 0 214 0 L75 0 L75 678 L33 678 Q20 678 11 669 Q2 660 2 647 L-20 647 Q-20 669 -4.5 684.5 Q11 700 33 700 L197 700 Q259 700 294 668 Q335 632 335 558 L335 484 Q335 409 294 372 Q283 361 266 353 Q291 345 312 327 Z M97 360 L197 360 Q251 360 279 388 Q313 419 313 484 L313 558 Q313 678 197 678 L97 678 L97 360 Z M330 214 Q330 280 297 310 Q268 338 214 338 L97 338 L97 22 L214 22 Q330 22 330 141 L330 214 Z " />
<glyph glyph-name="uni0180" unicode="&#x180;" horiz-adv-x="381" d="M306 327 Q347 289 347 215 L347 141 Q347 66 306 31 Q270 0 209 0 L70 0 L70 169 L0 169 L0 191 L70 191 L70 700 L191 700 Q252 700 289 668 Q330 632 330 558 L330 484 Q330 410 289 372 Q278 361 261 353 Q287 344 306 327 Z M92 360 L191 360 Q244 360 274 388 Q308 419 308 484 L308 558 Q308 678 191 678 L92 678 L92 360 Z M325 215 Q325 280 291 311 Q263 338 209 338 L92 338 L92 191 L163 191 L163 169 L92 169 L92 22 L209 22 Q325 22 325 141 L325 215 Z " />
<glyph glyph-name="c" unicode="c" horiz-adv-x="343" d="M172 -9 Q234 -9 270 25 Q311 63 311 137 L311 240 L289 240 L289 137 Q289 72 255 41 Q225 13 172 13 Q120 13 90 41 Q56 72 56 137 L56 563 Q56 628 90 659 Q120 687 172 687 Q225 687 255 659 Q289 628 289 563 L289 493 L311 493 L311 563 Q311 637 270 675 Q234 709 172 709 Q111 709 75 675 Q34 638 34 563 L34 137 Q34 62 75 25 Q111 -9 172 -9 Z " />
<glyph glyph-name="cacute" unicode="&#x107;" horiz-adv-x="343" d="M172 -9 Q234 -9 270 25 Q311 63 311 137 L311 240 L289 240 L289 137 Q289 72 255 41 Q225 13 172 13 Q120 13 90 41 Q56 72 56 137 L56 563 Q56 628 90 659 Q120 687 172 687 Q225 687 255 659 Q289 628 289 563 L289 493 L311 493 L311 563 Q311 637 270 675 Q234 709 172 709 Q111 709 75 675 Q34 638 34 563 L34 137 Q34 62 75 25 Q111 -9 172 -9 Z M257 835 L183 737 L163 737 L226 835 L257 835 Z " />
<glyph glyph-name="ccaron" unicode="&#x10d;" horiz-adv-x="343" d="M172 -9 Q234 -9 270 25 Q311 63 311 137 L311 240 L289 240 L289 137 Q289 72 255 41 Q225 13 172 13 Q120 13 90 41 Q56 72 56 137 L56 563 Q56 628 90 659 Q120 687 172 687 Q225 687 255 659 Q289 628 289 563 L289 493 L311 493 L311 563 Q311 637 270 675 Q234 709 172 709 Q111 709 75 675 Q34 638 34 563 L34 137 Q34 62 75 25 Q111 -9 172 -9 Z M160 737 L92 835 L112 835 L173 758 L234 835 L254 835 L187 737 L160 737 Z " />
<glyph glyph-name="ccedilla" unicode="&#xe7;" horiz-adv-x="343" d="M289 492 L289 563 Q289 628 255 659 Q225 687 172 687 Q120 687 90 659 Q56 628 56 563 L56 136 Q56 71 90 40 Q120 12 172 12 Q225 12 255 40 Q289 71 289 136 L289 239 L311 239 L311 136 Q311 62 270 24 Q239 -6 183 -9 Q185 -19 194 -26 Q194 -26 196 -28 Q209 -37 217 -47.5 Q225 -58 225 -76 Q225 -98 209.5 -113.5 Q194 -129 172 -129 Q150 -129 134.5 -113.5 Q119 -98 119 -76 L141 -76 Q141 -89 150 -98 Q159 -107 172 -107 Q185 -107 194 -98 Q203 -89 203 -76 Q203 -65 198.5 -59 Q194 -53 183 -45 L181 -44 Q163 -30 161 -9 Q106 -6 75 24 Q34 62 34 136 L34 563 Q34 637 75 675 Q111 709 172 709 Q234 709 270 675 Q311 637 311 563 L311 492 L289 492 Z " />
<glyph glyph-name="cdotaccent" unicode="&#x10b;" horiz-adv-x="343" d="M172 -9 Q234 -9 270 25 Q311 63 311 137 L311 240 L289 240 L289 137 Q289 72 255 41 Q225 13 172 13 Q120 13 90 41 Q56 72 56 137 L56 563 Q56 628 90 659 Q120 687 172 687 Q225 687 255 659 Q289 628 289 563 L289 493 L311 493 L311 563 Q311 637 270 675 Q234 709 172 709 Q111 709 75 675 Q34 638 34 563 L34 137 Q34 62 75 25 Q111 -9 172 -9 Z M198 763 Q198 774 190.5 781.5 Q183 789 172 789 Q161 789 153.5 781.5 Q146 774 146 763 Q146 753 154 745 Q162 737 172 737 Q183 737 190.5 744.5 Q198 752 198 763 Z " />
<glyph glyph-name="uni0188" unicode="&#x188;" horiz-adv-x="343" d="M289 709 Q289 731 304.5 746.5 Q320 762 342 762 L342 740 Q329 740 320 731 Q311 722 311 709 L311 493 L289 493 L289 563 Q289 628 255 659 Q225 687 172 687 Q120 687 90 659 Q56 628 56 563 L56 137 Q56 72 90 41 Q120 13 172 13 Q225 13 255 41 Q289 72 289 137 L289 240 L311 240 L311 137 Q311 63 270 25 Q234 -9 172 -9 Q111 -9 75 25 Q34 62 34 137 L34 563 Q34 638 75 675 Q111 709 172 709 Q234 709 270 675 Q284 661 289 652 L289 709 Z " />
<glyph glyph-name="d" unicode="d" horiz-adv-x="353" d="M178 0 Q241 0 276 31 Q317 67 317 141 L317 555 Q317 629 276 667 Q240 700 178 700 L40 700 L40 0 L178 0 Z M62 678 L178 678 Q233 678 261 651 Q295 620 295 555 L295 141 Q295 22 178 22 L62 22 L62 678 Z " />
<glyph glyph-name="eth" unicode="&#xf0;" horiz-adv-x="358" d="M281 666 Q322 628 322 554 L322 141 Q322 67 281 31 Q245 0 183 0 L45 0 L45 338 L5 338 L5 360 L45 360 L45 700 L183 700 Q245 700 281 666 Z M300 554 Q300 619 266 650 Q236 678 183 678 L67 678 L67 360 L147 360 L147 338 L67 338 L67 22 L183 22 Q300 22 300 141 L300 554 Z " />
<glyph glyph-name="dcaron" unicode="&#x10f;" horiz-adv-x="353" d="M178 0 Q241 0 276 31 Q317 67 317 141 L317 555 Q317 629 276 667 Q240 700 178 700 L40 700 L40 0 L178 0 Z M62 678 L178 678 Q233 678 261 651 Q295 620 295 555 L295 141 Q295 22 178 22 L62 22 L62 678 Z M165 737 L97 835 L117 835 L178 758 L239 835 L259 835 L192 737 L165 737 Z " />
<glyph glyph-name="uni1E13" unicode="&#x1e13;" horiz-adv-x="353" d="M178 0 Q241 0 276 31 Q317 67 317 141 L317 555 Q317 629 276 667 Q240 700 178 700 L40 700 L40 0 L178 0 Z M62 678 L178 678 Q233 678 261 651 Q295 620 295 555 L295 141 Q295 22 178 22 L62 22 L62 678 Z M165 -40 L192 -40 L259 -138 L239 -138 L178 -61 L117 -138 L97 -138 L165 -40 Z " />
<glyph glyph-name="dslash" unicode="&#x111;" horiz-adv-x="358" d="M281 666 Q322 628 322 554 L322 141 Q322 67 281 31 Q245 0 183 0 L45 0 L45 338 L5 338 L5 360 L45 360 L45 700 L183 700 Q245 700 281 666 Z M300 554 Q300 619 266 650 Q236 678 183 678 L67 678 L67 360 L147 360 L147 338 L67 338 L67 22 L183 22 Q300 22 300 141 L300 554 Z " />
<glyph glyph-name="uni1E0D" unicode="&#x1e0d;" horiz-adv-x="353" d="M178 0 Q241 0 276 31 Q317 67 317 141 L317 555 Q317 629 276 667 Q240 700 178 700 L40 700 L40 0 L178 0 Z M62 678 L178 678 Q233 678 261 651 Q295 620 295 555 L295 141 Q295 22 178 22 L62 22 L62 678 Z M204 -66 Q204 -55 196.5 -47.5 Q189 -40 178 -40 Q167 -40 159.5 -47.5 Q152 -55 152 -66 Q152 -77 160 -84.5 Q168 -92 178 -92 Q189 -92 196.5 -84.5 Q204 -77 204 -66 Z " />
<glyph glyph-name="uni0257" unicode="&#x257;" horiz-adv-x="388" d="M311 667 Q352 629 352 555 L352 141 Q352 67 311 31 Q276 0 213 0 L75 0 L75 678 L33 678 Q20 678 11 669 Q2 660 2 647 L-20 647 Q-20 669 -4.5 684.5 Q11 700 33 700 L213 700 Q275 700 311 667 Z M330 555 Q330 620 296 651 Q268 678 213 678 L97 678 L97 22 L213 22 Q330 22 330 141 L330 555 Z " />
<glyph glyph-name="uni1E0F" unicode="&#x1e0f;" horiz-adv-x="353" d="M178 0 Q241 0 276 31 Q317 67 317 141 L317 555 Q317 629 276 667 Q240 700 178 700 L40 700 L40 0 L178 0 Z M62 678 L178 678 Q233 678 261 651 Q295 620 295 555 L295 141 Q295 22 178 22 L62 22 L62 678 Z M346 -62 L346 -40 L12 -40 L12 -62 L346 -62 Z " />
<glyph glyph-name="e" unicode="e" horiz-adv-x="299" d="M275 678 L62 678 L62 370 L211 370 L211 348 L62 348 L62 22 L275 22 L275 0 L40 0 L40 700 L275 700 L275 678 Z " />
<glyph glyph-name="eacute" unicode="&#xe9;" horiz-adv-x="299" d="M275 678 L62 678 L62 370 L211 370 L211 348 L62 348 L62 22 L275 22 L275 0 L40 0 L40 700 L275 700 L275 678 Z M242 835 L168 737 L148 737 L211 835 L242 835 Z " />
<glyph glyph-name="ecaron" unicode="&#x11b;" horiz-adv-x="299" d="M145 737 L77 835 L97 835 L158 758 L219 835 L239 835 L172 737 L145 737 Z M275 678 L62 678 L62 370 L211 370 L211 348 L62 348 L62 22 L275 22 L275 0 L40 0 L40 700 L275 700 L275 678 Z " />
<glyph glyph-name="uni0229" unicode="&#x229;" horiz-adv-x="299" d="M62 678 L62 370 L211 370 L211 348 L62 348 L62 22 L275 22 L275 0 L168 0 Q170 -10 179 -17 Q179 -17 181 -19 Q194 -28 202 -38.5 Q210 -49 210 -67 Q210 -89 194.5 -104.5 Q179 -120 157 -120 Q135 -120 119.5 -104.5 Q104 -89 104 -67 L126 -67 Q126 -80 135 -89 Q144 -98 157 -98 Q170 -98 179 -89 Q188 -80 188 -67 Q188 -56 183.5 -50 Q179 -44 168 -36 L166 -35 Q148 -21 146 0 L40 0 L40 700 L275 700 L275 678 L62 678 Z " />
<glyph glyph-name="ecircumflex" unicode="&#xea;" horiz-adv-x="299" d="M275 678 L62 678 L62 370 L211 370 L211 348 L62 348 L62 22 L275 22 L275 0 L40 0 L40 700 L275 700 L275 678 Z M145 835 L172 835 L239 737 L219 737 L158 814 L97 737 L77 737 L145 835 Z " />
<glyph glyph-name="uni1EBF" unicode="&#x1ebf;" horiz-adv-x="299" d="M275 678 L62 678 L62 370 L211 370 L211 348 L62 348 L62 22 L275 22 L275 0 L40 0 L40 700 L275 700 L275 678 Z M145 835 L172 835 L239 737 L219 737 L158 814 L97 737 L77 737 L145 835 Z M312 935 L238 837 L218 837 L281 935 L312 935 Z " />
<glyph glyph-name="uni1EC7" unicode="&#x1ec7;" horiz-adv-x="299" d="M275 678 L62 678 L62 370 L211 370 L211 348 L62 348 L62 22 L275 22 L275 0 L40 0 L40 700 L275 700 L275 678 Z M145 835 L172 835 L239 737 L219 737 L158 814 L97 737 L77 737 L145 835 Z M184 -66 Q184 -55 176.5 -47.5 Q169 -40 158 -40 Q147 -40 139.5 -47.5 Q132 -55 132 -66 Q132 -77 140 -84.5 Q148 -92 158 -92 Q169 -92 176.5 -84.5 Q184 -77 184 -66 Z " />
<glyph glyph-name="uni1EC1" unicode="&#x1ec1;" horiz-adv-x="299" d="M275 678 L62 678 L62 370 L211 370 L211 348 L62 348 L62 22 L275 22 L275 0 L40 0 L40 700 L275 700 L275 678 Z M145 835 L172 835 L239 737 L219 737 L158 814 L97 737 L77 737 L145 835 Z M144 935 L175 935 L238 837 L218 837 L144 935 Z " />
<glyph glyph-name="uni1EC3" unicode="&#x1ec3;" horiz-adv-x="299" d="M275 678 L62 678 L62 370 L211 370 L211 348 L62 348 L62 22 L275 22 L275 0 L40 0 L40 700 L275 700 L275 678 Z M145 835 L172 835 L239 737 L219 737 L158 814 L97 737 L77 737 L145 835 Z M148 856 Q148 884 127.5 904.5 Q107 925 78 925 L59 944 Q68 947 78 947 Q115 947 141.5 920.5 Q168 894 168 856 L148 856 Z " />
<glyph glyph-name="uni1EC5" unicode="&#x1ec5;" horiz-adv-x="299" d="M275 678 L62 678 L62 370 L211 370 L211 348 L62 348 L62 22 L275 22 L275 0 L40 0 L40 700 L275 700 L275 678 Z M145 835 L172 835 L239 737 L219 737 L158 814 L97 737 L77 737 L145 835 Z M54 856 Q82 890 109 890 Q128 890 154 874 Q184 856 207 856 Q215 856 218 857 Q249 861 278 898 L261 911 Q234 878 207 878 Q189 878 166 892 Q131 912 109 912 L99 911 Q68 907 37 870 L54 856 Z " />
<glyph glyph-name="edieresis" unicode="&#xeb;" horiz-adv-x="299" d="M275 678 L62 678 L62 370 L211 370 L211 348 L62 348 L62 22 L275 22 L275 0 L40 0 L40 700 L275 700 L275 678 Z M117 763 Q117 774 109.5 781.5 Q102 789 91 789 Q80 789 72.5 781.5 Q65 774 65 763 Q65 753 73 745 Q81 737 91 737 Q102 737 109.5 744.5 Q117 752 117 763 Z M251 763 Q251 774 243.5 781.5 Q236 789 225 789 Q214 789 206.5 781.5 Q199 774 199 763 Q199 753 207 745 Q215 737 225 737 Q236 737 243.5 744.5 Q251 752 251 763 Z " />
<glyph glyph-name="edotaccent" unicode="&#x117;" horiz-adv-x="299" d="M275 678 L62 678 L62 370 L211 370 L211 348 L62 348 L62 22 L275 22 L275 0 L40 0 L40 700 L275 700 L275 678 Z M184 763 Q184 774 176.5 781.5 Q169 789 158 789 Q147 789 139.5 781.5 Q132 774 132 763 Q132 753 140 745 Q148 737 158 737 Q169 737 176.5 744.5 Q184 752 184 763 Z " />
<glyph glyph-name="uni1EB9" unicode="&#x1eb9;" horiz-adv-x="299" d="M275 678 L62 678 L62 370 L211 370 L211 348 L62 348 L62 22 L275 22 L275 0 L40 0 L40 700 L275 700 L275 678 Z M184 -66 Q184 -55 176.5 -47.5 Q169 -40 158 -40 Q147 -40 139.5 -47.5 Q132 -55 132 -66 Q132 -77 140 -84.5 Q148 -92 158 -92 Q169 -92 176.5 -84.5 Q184 -77 184 -66 Z " />
<glyph glyph-name="egrave" unicode="&#xe8;" horiz-adv-x="299" d="M275 678 L62 678 L62 370 L211 370 L211 348 L62 348 L62 22 L275 22 L275 0 L40 0 L40 700 L275 700 L275 678 Z M74 835 L105 835 L168 737 L148 737 L74 835 Z " />
<glyph glyph-name="uni1EBB" unicode="&#x1ebb;" horiz-adv-x="299" d="M275 678 L62 678 L62 370 L211 370 L211 348 L62 348 L62 22 L275 22 L275 0 L40 0 L40 700 L275 700 L275 678 Z M148 737 Q148 765 127.5 785.5 Q107 806 78 806 L59 825 Q68 828 78 828 Q115 828 141.5 801.5 Q168 775 168 737 L148 737 Z " />
<glyph glyph-name="emacron" unicode="&#x113;" horiz-adv-x="299" d="M275 678 L62 678 L62 370 L211 370 L211 348 L62 348 L62 22 L275 22 L275 0 L40 0 L40 700 L275 700 L275 678 Z M325 737 L325 759 L-9 759 L-9 737 L325 737 Z " />
<glyph glyph-name="eogonek" unicode="&#x119;" horiz-adv-x="299" d="M62 678 L62 370 L211 370 L211 348 L62 348 L62 22 L275 22 L275 0 Q243 -18 229.5 -32 Q216 -46 216 -60 Q216 -81 259 -81 L268 -81 L268 -104 L249 -104 Q220 -104 201 -97 Q182 -90 182 -69 Q182 -33 251 0 L40 0 L40 700 L275 700 L275 678 L62 678 Z " />
<glyph glyph-name="uni0258" unicode="&#x258;" horiz-adv-x="299" d="M24 678 L24 700 L259 700 L259 0 L24 0 L24 22 L237 22 L237 348 L88 348 L88 370 L237 370 L237 678 L24 678 Z " />
<glyph glyph-name="uni1EBD" unicode="&#x1ebd;" horiz-adv-x="299" d="M275 678 L62 678 L62 370 L211 370 L211 348 L62 348 L62 22 L275 22 L275 0 L40 0 L40 700 L275 700 L275 678 Z M54 737 Q82 771 109 771 Q128 771 154 755 Q184 737 207 737 Q215 737 218 738 Q249 742 278 779 L261 792 Q234 759 207 759 Q189 759 166 773 Q131 793 109 793 L99 792 Q68 788 37 751 L54 737 Z " />
<glyph glyph-name="uni01DD" unicode="&#x1dd;" horiz-adv-x="299" d="M24 678 L24 700 L259 700 L259 0 L24 0 L24 22 L237 22 L237 348 L88 348 L88 370 L237 370 L237 678 L24 678 Z " />
<glyph glyph-name="f" unicode="f" horiz-adv-x="292" d="M275 678 L62 678 L62 369 L211 369 L211 347 L62 347 L62 0 L40 0 L40 700 L275 700 L275 678 Z " />
<glyph glyph-name="g" unicode="g" horiz-adv-x="346" d="M173 -9 Q235 -9 271 24 Q312 62 312 136 L312 361 L173 361 L173 339 L290 339 L290 136 Q290 72 256 40 Q226 13 173 13 Q119 13 90 40 Q56 71 56 136 L56 563 Q56 628 90 659 Q120 687 173 687 Q225 687 256 659 Q290 627 290 563 L290 493 L312 493 L312 563 Q312 637 271 675 Q234 709 173 709 Q112 709 75 675 Q34 637 34 563 L34 136 Q34 62 75 24 Q111 -9 173 -9 Z " />
<glyph glyph-name="gbreve" unicode="&#x11f;" horiz-adv-x="346" d="M173 -9 Q235 -9 271 24 Q312 62 312 136 L312 361 L173 361 L173 339 L290 339 L290 136 Q290 72 256 40 Q226 13 173 13 Q119 13 90 40 Q56 71 56 136 L56 563 Q56 628 90 659 Q120 687 173 687 Q225 687 256 659 Q290 627 290 563 L290 493 L312 493 L312 563 Q312 637 271 675 Q234 709 173 709 Q112 709 75 675 Q34 637 34 563 L34 136 Q34 62 75 24 Q111 -9 173 -9 Z M264 828 Q264 791 237.5 764 Q211 737 173 737 Q136 737 109 764 Q82 791 82 828 L104 828 Q104 800 124.5 779.5 Q145 759 173 759 Q202 759 222 779.5 Q242 800 242 828 L264 828 Z " />
<glyph glyph-name="gcaron" unicode="&#x1e7;" horiz-adv-x="346" d="M173 -9 Q235 -9 271 24 Q312 62 312 136 L312 361 L173 361 L173 339 L290 339 L290 136 Q290 72 256 40 Q226 13 173 13 Q119 13 90 40 Q56 71 56 136 L56 563 Q56 628 90 659 Q120 687 173 687 Q225 687 256 659 Q290 627 290 563 L290 493 L312 493 L312 563 Q312 637 271 675 Q234 709 173 709 Q112 709 75 675 Q34 637 34 563 L34 136 Q34 62 75 24 Q111 -9 173 -9 Z M159 737 L91 835 L111 835 L172 758 L233 835 L253 835 L186 737 L159 737 Z " />
<glyph glyph-name="gcommaaccent" unicode="&#x123;" horiz-adv-x="346" d="M173 -9 Q235 -9 271 24 Q312 62 312 136 L312 361 L173 361 L173 339 L290 339 L290 136 Q290 72 256 40 Q226 13 173 13 Q119 13 90 40 Q56 71 56 136 L56 563 Q56 628 90 659 Q120 687 173 687 Q225 687 256 659 Q290 627 290 563 L290 493 L312 493 L312 563 Q312 637 271 675 Q234 709 173 709 Q112 709 75 675 Q34 637 34 563 L34 136 Q34 62 75 24 Q111 -9 173 -9 Z M199 -66 Q199 -76 192 -90 Q190 -94 175 -118 L155 -118 L161 -104 Q163 -100 163 -97 Q163 -92 159 -88 Q147 -79 147 -66 Q147 -56 155 -48 Q163 -40 173 -40 Q184 -40 191.5 -48 Q199 -56 199 -66 Z " />
<glyph glyph-name="gdotaccent" unicode="&#x121;" horiz-adv-x="346" d="M173 -9 Q235 -9 271 24 Q312 62 312 136 L312 361 L173 361 L173 339 L290 339 L290 136 Q290 72 256 40 Q226 13 173 13 Q119 13 90 40 Q56 71 56 136 L56 563 Q56 628 90 659 Q120 687 173 687 Q225 687 256 659 Q290 627 290 563 L290 493 L312 493 L312 563 Q312 637 271 675 Q234 709 173 709 Q112 709 75 675 Q34 637 34 563 L34 136 Q34 62 75 24 Q111 -9 173 -9 Z M198 763 Q198 774 190.5 781.5 Q183 789 172 789 Q161 789 153.5 781.5 Q146 774 146 763 Q146 753 154 745 Q162 737 172 737 Q183 737 190.5 744.5 Q198 752 198 763 Z " />
<glyph glyph-name="uni0260" unicode="&#x260;" horiz-adv-x="346" d="M290 709 Q290 731 305.5 746.5 Q321 762 343 762 L343 740 Q330 740 321 731 Q312 722 312 709 L312 493 L290 493 L290 563 Q290 627 256 659 Q225 687 173 687 Q120 687 90 659 Q56 628 56 563 L56 136 Q56 71 90 40 Q119 13 173 13 Q226 13 256 40 Q290 72 290 136 L290 339 L173 339 L173 361 L312 361 L312 136 Q312 62 271 24 Q235 -9 173 -9 Q111 -9 75 24 Q34 62 34 136 L34 563 Q34 637 75 675 Q112 709 173 709 Q234 709 271 675 Q285 661 290 652 L290 709 Z " />
<glyph glyph-name="h" unicode="h" horiz-adv-x="367" d="M300 700 L322 700 L322 0 L300 0 L300 348 L67 348 L67 0 L45 0 L45 700 L67 700 L67 370 L300 370 L300 700 Z " />
<glyph glyph-name="hbar" unicode="&#x127;" horiz-adv-x="377" d="M367 547 L367 525 L327 525 L327 0 L305 0 L305 348 L72 348 L72 0 L50 0 L50 525 L10 525 L10 547 L50 547 L50 700 L72 700 L72 547 L305 547 L305 700 L327 700 L327 547 L367 547 Z M305 370 L305 525 L72 525 L72 370 L305 370 Z " />
<glyph glyph-name="uni1E25" unicode="&#x1e25;" horiz-adv-x="367" d="M300 700 L322 700 L322 0 L300 0 L300 348 L67 348 L67 0 L45 0 L45 700 L67 700 L67 370 L300 370 L300 700 Z M210 -66 Q210 -76 203 -90 Q201 -94 186 -118 L166 -118 L172 -104 Q174 -100 174 -97 Q174 -92 170 -88 Q158 -79 158 -66 Q158 -56 166 -48 Q174 -40 184 -40 Q195 -40 202.5 -48 Q210 -56 210 -66 Z " />
<glyph glyph-name="uni0266" unicode="&#x266;" horiz-adv-x="397" d="M352 700 L352 0 L330 0 L330 348 L97 348 L97 0 L75 0 L75 678 L33 678 Q20 678 11 669 Q2 660 2 647 L-20 647 Q-20 669 -4.5 684.5 Q11 700 33 700 L97 700 L97 370 L330 370 L330 700 L352 700 Z " />
<glyph glyph-name="uni0265" unicode="&#x265;" horiz-adv-x="367" d="M300 700 L322 700 L322 0 L300 0 L300 348 L67 348 L67 0 L45 0 L45 700 L67 700 L67 370 L300 370 L300 700 Z " />
<glyph glyph-name="i" unicode="i" horiz-adv-x="122" d="M72 0 L72 700 L50 700 L50 0 L72 0 Z " />
<glyph glyph-name="dotlessi" unicode="&#x131;" horiz-adv-x="112" d="M67 0 L67 700 L45 700 L45 0 L67 0 Z " />
<glyph glyph-name="iacute" unicode="&#xed;" horiz-adv-x="122" d="M72 0 L72 700 L50 700 L50 0 L72 0 Z M145 835 L71 737 L51 737 L114 835 L145 835 Z " />
<glyph glyph-name="uni01D0" unicode="&#x1d0;" horiz-adv-x="122" d="M72 0 L72 700 L50 700 L50 0 L72 0 Z M48 737 L-20 835 L0 835 L61 758 L122 835 L142 835 L75 737 L48 737 Z " />
<glyph glyph-name="icircumflex" unicode="&#xee;" horiz-adv-x="122" d="M72 0 L72 700 L50 700 L50 0 L72 0 Z M48 835 L75 835 L142 737 L122 737 L61 814 L0 737 L-20 737 L48 835 Z " />
<glyph glyph-name="idieresis" unicode="&#xef;" horiz-adv-x="122" d="M72 0 L72 700 L50 700 L50 0 L72 0 Z M20 763 Q20 774 12.5 781.5 Q5 789 -6 789 Q-17 789 -24.5 781.5 Q-32 774 -32 763 Q-32 753 -24.5 745 Q-17 737 -6 737 Q5 737 12.5 744.5 Q20 752 20 763 Z M154 763 Q154 774 146.5 781.5 Q139 789 128 789 Q117 789 109.5 781.5 Q102 774 102 763 Q102 753 110 745 Q118 737 128 737 Q139 737 146.5 744.5 Q154 752 154 763 Z " />
<glyph glyph-name="uni1E2F" unicode="&#x1e2f;" horiz-adv-x="122" d="M72 0 L72 700 L50 700 L50 0 L72 0 Z M20 763 Q20 774 12.5 781.5 Q5 789 -6 789 Q-17 789 -24.5 781.5 Q-32 774 -32 763 Q-32 753 -24.5 745 Q-17 737 -6 737 Q5 737 12.5 744.5 Q20 752 20 763 Z M154 763 Q154 774 146.5 781.5 Q139 789 128 789 Q117 789 109.5 781.5 Q102 774 102 763 Q102 753 110 745 Q118 737 128 737 Q139 737 146.5 744.5 Q154 752 154 763 Z M145 925 L71 827 L51 827 L114 925 L145 925 Z " />
<glyph glyph-name="uni1ECB" unicode="&#x1ecb;" horiz-adv-x="122" d="M72 0 L72 700 L50 700 L50 0 L72 0 Z M87 -66 Q87 -55 79.5 -47.5 Q72 -40 61 -40 Q50 -40 42.5 -47.5 Q35 -55 35 -66 Q35 -77 43 -84.5 Q51 -92 61 -92 Q72 -92 79.5 -84.5 Q87 -77 87 -66 Z " />
<glyph glyph-name="igrave" unicode="&#xec;" horiz-adv-x="122" d="M72 0 L72 700 L50 700 L50 0 L72 0 Z M-23 835 L8 835 L71 737 L51 737 L-23 835 Z " />
<glyph glyph-name="uni1EC9" unicode="&#x1ec9;" horiz-adv-x="122" d="M72 0 L72 700 L50 700 L50 0 L72 0 Z M51 737 Q51 765 30.5 785.5 Q10 806 -19 806 L-38 825 Q-29 828 -19 828 Q18 828 44.5 801.5 Q71 775 71 737 L51 737 Z " />
<glyph glyph-name="imacron" unicode="&#x12b;" horiz-adv-x="122" d="M72 0 L72 700 L50 700 L50 0 L72 0 Z M228 737 L228 759 L-106 759 L-106 737 L228 737 Z " />
<glyph glyph-name="iogonek" unicode="&#x12f;" horiz-adv-x="122" d="M72 700 L72 0 Q40 -18 26.5 -32 Q13 -46 13 -60 Q13 -81 56 -81 L65 -81 L65 -104 L46 -104 Q17 -104 -2 -97 Q-21 -90 -21 -69 Q-21 -34 50 0 L50 700 L72 700 Z " />
<glyph glyph-name="uni0268" unicode="&#x268;" horiz-adv-x="132" d="M117 371 L117 349 L77 349 L77 0 L55 0 L55 349 L15 349 L15 371 L55 371 L55 700 L77 700 L77 371 L117 371 Z " />
<glyph glyph-name="itilde" unicode="&#x129;" horiz-adv-x="117" d="M72 0 L72 700 L50 700 L50 0 L72 0 Z M-45 738 Q-17 772 10 772 Q29 772 55 756 Q85 738 108 738 Q116 738 119 739 Q150 743 179 780 L162 793 Q135 760 108 760 Q90 760 67 774 Q32 794 10 794 L0 793 Q-31 789 -62 752 L-45 738 Z " />
<glyph glyph-name="j" unicode="j" horiz-adv-x="342" d="M167 -9 Q229 -9 265 24 Q306 63 306 136 L306 700 L284 700 L284 136 Q284 72 250 40 Q220 13 167 13 Q114 13 84 40 Q50 72 50 136 L50 236 L28 236 L28 136 Q28 63 69 24 Q105 -9 167 -9 Z " />
<glyph glyph-name="k" unicode="k" horiz-adv-x="352" d="M334 700 L204 366 L334 0 L311 0 L192 335 L62 0 L40 0 L40 700 L62 700 L62 59 L310 700 L334 700 Z " />
<glyph glyph-name="kcommaaccent" unicode="&#x137;" horiz-adv-x="352" d="M333 700 L184 368 L334 0 L310 0 L171 341 L62 99 L62 0 L40 0 L40 700 L62 700 L62 152 L309 700 L333 700 Z M202 -66 Q202 -76 195 -90 Q193 -94 178 -118 L158 -118 L164 -104 Q166 -100 166 -97 Q166 -92 162 -88 Q150 -79 150 -66 Q150 -56 158 -48 Q166 -40 176 -40 Q187 -40 194.5 -48 Q202 -56 202 -66 Z " />
<glyph glyph-name="uni0199" unicode="&#x199;" horiz-adv-x="398" d="M365 700 Q387 700 402.5 684.5 Q418 669 418 647 L396 647 Q396 660 387 669 Q378 678 365 678 L323 678 L184 368 L334 0 L310 0 L171 341 L62 99 L62 0 L40 0 L40 700 L62 700 L62 152 L309 700 L365 700 Z " />
<glyph glyph-name="l" unicode="l" horiz-adv-x="293" d="M275 0 L275 22 L62 22 L62 700 L40 700 L40 0 L275 0 Z " />
<glyph glyph-name="lacute" unicode="&#x13a;" horiz-adv-x="293" d="M135 835 L61 737 L41 737 L104 835 L135 835 Z M275 0 L275 22 L62 22 L62 700 L40 700 L40 0 L275 0 Z " />
<glyph glyph-name="lcaron" unicode="&#x13e;" horiz-adv-x="293" d="M275 0 L275 22 L62 22 L62 700 L40 700 L40 0 L275 0 Z M239 674 Q239 664 232 650 Q230 646 215 622 L195 622 L201 636 Q203 640 203 643 Q203 648 199 652 Q187 661 187 674 Q187 685 195 692.5 Q203 700 213 700 Q224 700 231.5 692.5 Q239 685 239 674 Z " />
<glyph glyph-name="uni1E3D" unicode="&#x1e3d;" horiz-adv-x="293" d="M275 0 L275 22 L62 22 L62 700 L40 700 L40 0 L275 0 Z M145 -40 L172 -40 L239 -138 L219 -138 L158 -61 L97 -138 L77 -138 L145 -40 Z " />
<glyph glyph-name="lcommaaccent" unicode="&#x13c;" horiz-adv-x="293" d="M275 0 L275 22 L62 22 L62 700 L40 700 L40 0 L275 0 Z M184 -66 Q184 -76 177 -90 Q175 -94 160 -118 L140 -118 L146 -104 Q148 -100 148 -97 Q148 -92 144 -88 Q132 -79 132 -66 Q132 -56 140 -48 Q148 -40 158 -40 Q169 -40 176.5 -48 Q184 -56 184 -66 Z " />
<glyph glyph-name="uni1E37" unicode="&#x1e37;" horiz-adv-x="293" d="M275 0 L275 22 L62 22 L62 700 L40 700 L40 0 L275 0 Z M184 -66 Q184 -55 176.5 -47.5 Q169 -40 158 -40 Q147 -40 139.5 -47.5 Q132 -55 132 -66 Q132 -77 140 -84.5 Q148 -92 158 -92 Q169 -92 176.5 -84.5 Q184 -77 184 -66 Z " />
<glyph glyph-name="lslash" unicode="&#x142;" horiz-adv-x="293" d="M62 22 L275 22 L275 0 L40 0 L40 239 L-23 171 L-23 204 L40 271 L40 700 L62 700 L62 295 L196 438 L196 406 L62 262 L62 22 Z " />
<glyph glyph-name="m" unicode="m" horiz-adv-x="487" d="M244 155 L435 700 L447 700 L447 0 L425 0 L425 610 L250 110 L238 110 L62 610 L62 0 L40 0 L40 700 L52 700 L244 155 Z " />
<glyph glyph-name="uni1E3F" unicode="&#x1e3f;" horiz-adv-x="487" d="M244 155 L435 700 L447 700 L447 0 L425 0 L425 610 L250 110 L238 110 L62 610 L62 0 L40 0 L40 700 L52 700 L244 155 Z M328 835 L254 737 L234 737 L297 835 L328 835 Z " />
<glyph glyph-name="uni026F" unicode="&#x26f;" horiz-adv-x="487" d="M244 545 L52 0 L40 0 L40 700 L62 700 L62 90 L238 590 L250 590 L425 90 L425 700 L447 700 L447 0 L435 0 L244 545 Z " />
<glyph glyph-name="n" unicode="n" horiz-adv-x="377" d="M332 700 L332 0 L320 0 L67 621 L67 0 L45 0 L45 700 L57 700 L310 79 L310 700 L332 700 Z " />
<glyph glyph-name="nacute" unicode="&#x144;" horiz-adv-x="377" d="M332 700 L332 0 L320 0 L67 621 L67 0 L45 0 L45 700 L57 700 L310 79 L310 700 L332 700 Z M272 835 L198 737 L178 737 L241 835 L272 835 Z " />
<glyph glyph-name="ncaron" unicode="&#x148;" horiz-adv-x="377" d="M332 700 L332 0 L320 0 L67 621 L67 0 L45 0 L45 700 L57 700 L310 79 L310 700 L332 700 Z M175 737 L107 835 L127 835 L188 758 L249 835 L269 835 L202 737 L175 737 Z " />
<glyph glyph-name="uni1E4B" unicode="&#x1e4b;" horiz-adv-x="377" d="M332 700 L332 0 L320 0 L67 621 L67 0 L45 0 L45 700 L57 700 L310 79 L310 700 L332 700 Z M175 -40 L202 -40 L269 -138 L249 -138 L188 -61 L127 -138 L107 -138 L175 -40 Z " />
<glyph glyph-name="ncommaaccent" unicode="&#x146;" horiz-adv-x="377" d="M332 700 L332 0 L320 0 L67 621 L67 0 L45 0 L45 700 L57 700 L310 79 L310 700 L332 700 Z M214 -66 Q214 -76 207 -90 Q205 -94 190 -118 L170 -118 L176 -104 Q178 -100 178 -97 Q178 -92 174 -88 Q162 -79 162 -66 Q162 -56 170 -48 Q178 -40 188 -40 Q199 -40 206.5 -48 Q214 -56 214 -66 Z " />
<glyph glyph-name="uni1E45" unicode="&#x1e45;" horiz-adv-x="377" d="M332 700 L332 0 L320 0 L67 621 L67 0 L45 0 L45 700 L57 700 L310 79 L310 700 L332 700 Z M214 763 Q214 774 206.5 781.5 Q199 789 188 789 Q177 789 169.5 781.5 Q162 774 162 763 Q162 753 170 745 Q178 737 188 737 Q199 737 206.5 744.5 Q214 752 214 763 Z " />
<glyph glyph-name="uni1E47" unicode="&#x1e47;" horiz-adv-x="377" d="M332 700 L332 0 L320 0 L67 621 L67 0 L45 0 L45 700 L57 700 L310 79 L310 700 L332 700 Z M214 -66 Q214 -55 206.5 -47.5 Q199 -40 188 -40 Q177 -40 169.5 -47.5 Q162 -55 162 -66 Q162 -77 170 -84.5 Q178 -92 188 -92 Q199 -92 206.5 -84.5 Q214 -77 214 -66 Z " />
<glyph glyph-name="eng" unicode="&#x14b;" horiz-adv-x="377" d="M332 700 L332 -42 Q332 -64 316.5 -79.5 Q301 -95 279 -95 L279 -73 Q292 -73 301 -64 Q310 -55 310 -42 L310 0 L67 621 L67 0 L45 0 L45 700 L57 700 L310 63 L310 700 L332 700 Z " />
<glyph glyph-name="uni0272" unicode="&#x272;" horiz-adv-x="377" d="M332 700 L332 0 L320 0 L67 621 L67 -42 Q67 -64 51.5 -79.5 Q36 -95 14 -95 L14 -73 Q27 -73 36 -64 Q45 -55 45 -42 L45 700 L57 700 L310 79 L310 700 L332 700 Z " />
<glyph glyph-name="ntilde" unicode="&#xf1;" horiz-adv-x="377" d="M332 700 L332 0 L320 0 L67 621 L67 0 L45 0 L45 700 L57 700 L310 79 L310 700 L332 700 Z M85 738 Q113 772 140 772 Q159 772 185 756 Q215 738 238 738 Q246 738 249 739 Q280 743 309 780 L292 793 Q265 760 238 760 Q220 760 197 774 Q162 794 140 794 L130 793 Q99 789 68 752 L85 738 Z " />
<glyph glyph-name="o" unicode="o" horiz-adv-x="346" d="M173 -9 Q233 -9 271 24 Q312 63 312 137 L312 563 Q312 637 271 675 Q234 709 173 709 Q112 709 75 675 Q34 637 34 563 L34 137 Q34 63 75 24 Q113 -9 173 -9 Z M173 687 Q225 687 256 659 Q290 627 290 563 L290 137 Q290 72 256 41 Q227 13 173 13 Q118 13 90 41 Q56 71 56 137 L56 563 Q56 628 90 659 Q120 687 173 687 Z " />
<glyph glyph-name="oacute" unicode="&#xf3;" horiz-adv-x="346" d="M173 -9 Q233 -9 271 24 Q312 63 312 137 L312 563 Q312 637 271 675 Q234 709 173 709 Q112 709 75 675 Q34 637 34 563 L34 137 Q34 63 75 24 Q113 -9 173 -9 Z M173 687 Q225 687 256 659 Q290 627 290 563 L290 137 Q290 72 256 41 Q227 13 173 13 Q118 13 90 41 Q56 71 56 137 L56 563 Q56 628 90 659 Q120 687 173 687 Z M257 835 L183 737 L163 737 L226 835 L257 835 Z " />
<glyph glyph-name="uni01D2" unicode="&#x1d2;" horiz-adv-x="346" d="M173 -9 Q233 -9 271 24 Q312 63 312 137 L312 563 Q312 637 271 675 Q234 709 173 709 Q112 709 75 675 Q34 637 34 563 L34 137 Q34 63 75 24 Q113 -9 173 -9 Z M173 687 Q225 687 256 659 Q290 627 290 563 L290 137 Q290 72 256 41 Q227 13 173 13 Q118 13 90 41 Q56 71 56 137 L56 563 Q56 628 90 659 Q120 687 173 687 Z M160 737 L92 835 L112 835 L173 758 L234 835 L254 835 L187 737 L160 737 Z " />
<glyph glyph-name="ocircumflex" unicode="&#xf4;" horiz-adv-x="346" d="M173 -9 Q233 -9 271 24 Q312 63 312 137 L312 563 Q312 637 271 675 Q234 709 173 709 Q112 709 75 675 Q34 637 34 563 L34 137 Q34 63 75 24 Q113 -9 173 -9 Z M173 687 Q225 687 256 659 Q290 627 290 563 L290 137 Q290 72 256 41 Q227 13 173 13 Q118 13 90 41 Q56 71 56 137 L56 563 Q56 628 90 659 Q120 687 173 687 Z M160 835 L187 835 L254 737 L234 737 L173 814 L112 737 L92 737 L160 835 Z " />
<glyph glyph-name="uni1ED1" unicode="&#x1ed1;" horiz-adv-x="346" d="M173 -9 Q233 -9 271 24 Q312 63 312 137 L312 563 Q312 637 271 675 Q234 709 173 709 Q112 709 75 675 Q34 637 34 563 L34 137 Q34 63 75 24 Q113 -9 173 -9 Z M173 687 Q225 687 256 659 Q290 627 290 563 L290 137 Q290 72 256 41 Q227 13 173 13 Q118 13 90 41 Q56 71 56 137 L56 563 Q56 628 90 659 Q120 687 173 687 Z M160 835 L187 835 L254 737 L234 737 L173 814 L112 737 L92 737 L160 835 Z M327 935 L253 837 L233 837 L296 935 L327 935 Z " />
<glyph glyph-name="uni1ED9" unicode="&#x1ed9;" horiz-adv-x="346" d="M173 -9 Q233 -9 271 24 Q312 63 312 137 L312 563 Q312 637 271 675 Q234 709 173 709 Q112 709 75 675 Q34 637 34 563 L34 137 Q34 63 75 24 Q113 -9 173 -9 Z M173 687 Q225 687 256 659 Q290 627 290 563 L290 137 Q290 72 256 41 Q227 13 173 13 Q118 13 90 41 Q56 71 56 137 L56 563 Q56 628 90 659 Q120 687 173 687 Z M160 835 L187 835 L254 737 L234 737 L173 814 L112 737 L92 737 L160 835 Z M199 -66 Q199 -55 191.5 -47.5 Q184 -40 173 -40 Q162 -40 154.5 -47.5 Q147 -55 147 -66 Q147 -77 155 -84.5 Q163 -92 173 -92 Q184 -92 191.5 -84.5 Q199 -77 199 -66 Z " />
<glyph glyph-name="uni1ED3" unicode="&#x1ed3;" horiz-adv-x="346" d="M173 -9 Q233 -9 271 24 Q312 63 312 137 L312 563 Q312 637 271 675 Q234 709 173 709 Q112 709 75 675 Q34 637 34 563 L34 137 Q34 63 75 24 Q113 -9 173 -9 Z M173 687 Q225 687 256 659 Q290 627 290 563 L290 137 Q290 72 256 41 Q227 13 173 13 Q118 13 90 41 Q56 71 56 137 L56 563 Q56 628 90 659 Q120 687 173 687 Z M160 835 L187 835 L254 737 L234 737 L173 814 L112 737 L92 737 L160 835 Z M159 935 L190 935 L253 837 L233 837 L159 935 Z " />
<glyph glyph-name="uni1ED5" unicode="&#x1ed5;" horiz-adv-x="346" d="M173 -9 Q233 -9 271 24 Q312 63 312 137 L312 563 Q312 637 271 675 Q234 709 173 709 Q112 709 75 675 Q34 637 34 563 L34 137 Q34 63 75 24 Q113 -9 173 -9 Z M173 687 Q225 687 256 659 Q290 627 290 563 L290 137 Q290 72 256 41 Q227 13 173 13 Q118 13 90 41 Q56 71 56 137 L56 563 Q56 628 90 659 Q120 687 173 687 Z M160 835 L187 835 L254 737 L234 737 L173 814 L112 737 L92 737 L160 835 Z M163 856 Q163 884 142.5 904.5 Q122 925 93 925 L74 944 Q83 947 93 947 Q130 947 156.5 920.5 Q183 894 183 856 L163 856 Z " />
<glyph glyph-name="uni1ED7" unicode="&#x1ed7;" horiz-adv-x="346" d="M173 -9 Q233 -9 271 24 Q312 63 312 137 L312 563 Q312 637 271 675 Q234 709 173 709 Q112 709 75 675 Q34 637 34 563 L34 137 Q34 63 75 24 Q113 -9 173 -9 Z M173 687 Q225 687 256 659 Q290 627 290 563 L290 137 Q290 72 256 41 Q227 13 173 13 Q118 13 90 41 Q56 71 56 137 L56 563 Q56 628 90 659 Q120 687 173 687 Z M160 835 L187 835 L254 737 L234 737 L173 814 L112 737 L92 737 L160 835 Z M69 856 Q97 890 124 890 Q143 890 169 874 Q199 856 222 856 Q230 856 233 857 Q264 861 293 898 L276 911 Q249 878 222 878 Q204 878 181 892 Q146 912 124 912 L114 911 Q83 907 52 870 L69 856 Z " />
<glyph glyph-name="odieresis" unicode="&#xf6;" horiz-adv-x="346" d="M173 -9 Q233 -9 271 24 Q312 63 312 137 L312 563 Q312 637 271 675 Q234 709 173 709 Q112 709 75 675 Q34 637 34 563 L34 137 Q34 63 75 24 Q113 -9 173 -9 Z M173 687 Q225 687 256 659 Q290 627 290 563 L290 137 Q290 72 256 41 Q227 13 173 13 Q118 13 90 41 Q56 71 56 137 L56 563 Q56 628 90 659 Q120 687 173 687 Z M131 763 Q131 774 123.5 781.5 Q116 789 105 789 Q94 789 86.5 781.5 Q79 774 79 763 Q79 753 87 745 Q95 737 105 737 Q116 737 123.5 744.5 Q131 752 131 763 Z M265 763 Q265 774 257.5 781.5 Q250 789 239 789 Q228 789 220.5 781.5 Q213 774 213 763 Q213 753 221 745 Q229 737 239 737 Q250 737 257.5 744.5 Q265 752 265 763 Z " />
<glyph glyph-name="uni022B" unicode="&#x22b;" horiz-adv-x="346" d="M173 -9 Q233 -9 271 24 Q312 63 312 137 L312 563 Q312 637 271 675 Q234 709 173 709 Q112 709 75 675 Q34 637 34 563 L34 137 Q34 63 75 24 Q113 -9 173 -9 Z M173 687 Q225 687 256 659 Q290 627 290 563 L290 137 Q290 72 256 41 Q227 13 173 13 Q118 13 90 41 Q56 71 56 137 L56 563 Q56 628 90 659 Q120 687 173 687 Z M131 763 Q131 774 123.5 781.5 Q116 789 105 789 Q94 789 86.5 781.5 Q79 774 79 763 Q79 753 87 745 Q95 737 105 737 Q116 737 123.5 744.5 Q131 752 131 763 Z M265 763 Q265 774 257.5 781.5 Q250 789 239 789 Q228 789 220.5 781.5 Q213 774 213 763 Q213 753 221 745 Q229 737 239 737 Q250 737 257.5 744.5 Q265 752 265 763 Z M340 827 L340 849 L6 849 L6 827 L340 827 Z " />
<glyph glyph-name="uni1ECD" unicode="&#x1ecd;" horiz-adv-x="346" d="M173 -9 Q233 -9 271 24 Q312 63 312 137 L312 563 Q312 637 271 675 Q234 709 173 709 Q112 709 75 675 Q34 637 34 563 L34 137 Q34 63 75 24 Q113 -9 173 -9 Z M173 687 Q225 687 256 659 Q290 627 290 563 L290 137 Q290 72 256 41 Q227 13 173 13 Q118 13 90 41 Q56 71 56 137 L56 563 Q56 628 90 659 Q120 687 173 687 Z M199 -66 Q199 -55 191.5 -47.5 Q184 -40 173 -40 Q162 -40 154.5 -47.5 Q147 -55 147 -66 Q147 -77 155 -84.5 Q163 -92 173 -92 Q184 -92 191.5 -84.5 Q199 -77 199 -66 Z " />
<glyph glyph-name="ograve" unicode="&#xf2;" horiz-adv-x="346" d="M173 -9 Q233 -9 271 24 Q312 63 312 137 L312 563 Q312 637 271 675 Q234 709 173 709 Q112 709 75 675 Q34 637 34 563 L34 137 Q34 63 75 24 Q113 -9 173 -9 Z M173 687 Q225 687 256 659 Q290 627 290 563 L290 137 Q290 72 256 41 Q227 13 173 13 Q118 13 90 41 Q56 71 56 137 L56 563 Q56 628 90 659 Q120 687 173 687 Z M89 835 L120 835 L183 737 L163 737 L89 835 Z " />
<glyph glyph-name="uni1ECF" unicode="&#x1ecf;" horiz-adv-x="346" d="M173 -9 Q233 -9 271 24 Q312 63 312 137 L312 563 Q312 637 271 675 Q234 709 173 709 Q112 709 75 675 Q34 637 34 563 L34 137 Q34 63 75 24 Q113 -9 173 -9 Z M173 687 Q225 687 256 659 Q290 627 290 563 L290 137 Q290 72 256 41 Q227 13 173 13 Q118 13 90 41 Q56 71 56 137 L56 563 Q56 628 90 659 Q120 687 173 687 Z M163 737 Q163 765 142.5 785.5 Q122 806 93 806 L74 825 Q83 828 93 828 Q130 828 156.5 801.5 Q183 775 183 737 L163 737 Z " />
<glyph glyph-name="ohorn" unicode="&#x1a1;" horiz-adv-x="345" d="M365 740 Q365 718 349.5 702.5 Q334 687 312 687 L255 687 L271 675 Q312 637 312 563 L312 137 Q312 63 271 24 Q233 -9 173 -9 Q113 -9 75 24 Q34 63 34 137 L34 563 Q34 637 75 675 Q112 709 173 709 L312 709 Q325 709 334 718 Q343 727 343 740 L365 740 Z M256 659 Q225 687 173 687 Q120 687 90 659 Q56 628 56 563 L56 137 Q56 71 90 41 Q118 13 173 13 Q227 13 256 41 Q290 72 290 137 L290 563 Q290 627 256 659 Z " />
<glyph glyph-name="uni1EDB" unicode="&#x1edb;" horiz-adv-x="345" d="M365 740 Q365 718 349.5 702.5 Q334 687 312 687 L255 687 L271 675 Q312 637 312 563 L312 137 Q312 63 271 24 Q233 -9 173 -9 Q113 -9 75 24 Q34 63 34 137 L34 563 Q34 637 75 675 Q112 709 173 709 L312 709 Q325 709 334 718 Q343 727 343 740 L365 740 Z M256 659 Q225 687 173 687 Q120 687 90 659 Q56 628 56 563 L56 137 Q56 71 90 41 Q118 13 173 13 Q227 13 256 41 Q290 72 290 137 L290 563 Q290 627 256 659 Z M257 835 L183 737 L163 737 L226 835 L257 835 Z " />
<glyph glyph-name="uni1EE3" unicode="&#x1ee3;" horiz-adv-x="345" d="M365 740 Q365 718 349.5 702.5 Q334 687 312 687 L255 687 L271 675 Q312 637 312 563 L312 137 Q312 63 271 24 Q233 -9 173 -9 Q113 -9 75 24 Q34 63 34 137 L34 563 Q34 637 75 675 Q112 709 173 709 L312 709 Q325 709 334 718 Q343 727 343 740 L365 740 Z M256 659 Q225 687 173 687 Q120 687 90 659 Q56 628 56 563 L56 137 Q56 71 90 41 Q118 13 173 13 Q227 13 256 41 Q290 72 290 137 L290 563 Q290 627 256 659 Z M199 -66 Q199 -55 191.5 -47.5 Q184 -40 173 -40 Q162 -40 154.5 -47.5 Q147 -55 147 -66 Q147 -77 155 -84.5 Q163 -92 173 -92 Q184 -92 191.5 -84.5 Q199 -77 199 -66 Z " />
<glyph glyph-name="uni1EDD" unicode="&#x1edd;" horiz-adv-x="345" d="M365 740 Q365 718 349.5 702.5 Q334 687 312 687 L255 687 L271 675 Q312 637 312 563 L312 137 Q312 63 271 24 Q233 -9 173 -9 Q113 -9 75 24 Q34 63 34 137 L34 563 Q34 637 75 675 Q112 709 173 709 L312 709 Q325 709 334 718 Q343 727 343 740 L365 740 Z M256 659 Q225 687 173 687 Q120 687 90 659 Q56 628 56 563 L56 137 Q56 71 90 41 Q118 13 173 13 Q227 13 256 41 Q290 72 290 137 L290 563 Q290 627 256 659 Z M89 835 L120 835 L183 737 L163 737 L89 835 Z " />
<glyph glyph-name="uni1EDF" unicode="&#x1edf;" horiz-adv-x="345" d="M365 740 Q365 718 349.5 702.5 Q334 687 312 687 L255 687 L271 675 Q312 637 312 563 L312 137 Q312 63 271 24 Q233 -9 173 -9 Q113 -9 75 24 Q34 63 34 137 L34 563 Q34 637 75 675 Q112 709 173 709 L312 709 Q325 709 334 718 Q343 727 343 740 L365 740 Z M256 659 Q225 687 173 687 Q120 687 90 659 Q56 628 56 563 L56 137 Q56 71 90 41 Q118 13 173 13 Q227 13 256 41 Q290 72 290 137 L290 563 Q290 627 256 659 Z M163 737 Q163 765 142.5 785.5 Q122 806 93 806 L74 825 Q83 828 93 828 Q130 828 156.5 801.5 Q183 775 183 737 L163 737 Z " />
<glyph glyph-name="uni1EE1" unicode="&#x1ee1;" horiz-adv-x="345" d="M365 740 Q365 718 349.5 702.5 Q334 687 312 687 L255 687 L271 675 Q312 637 312 563 L312 137 Q312 63 271 24 Q233 -9 173 -9 Q113 -9 75 24 Q34 63 34 137 L34 563 Q34 637 75 675 Q112 709 173 709 L312 709 Q325 709 334 718 Q343 727 343 740 L365 740 Z M256 659 Q225 687 173 687 Q120 687 90 659 Q56 628 56 563 L56 137 Q56 71 90 41 Q118 13 173 13 Q227 13 256 41 Q290 72 290 137 L290 563 Q290 627 256 659 Z M70 738 Q98 772 125 772 Q144 772 170 756 Q200 738 223 738 Q231 738 234 739 Q265 743 294 780 L277 793 Q250 760 223 760 Q205 760 182 774 Q147 794 125 794 L115 793 Q84 789 53 752 L70 738 Z " />
<glyph glyph-name="ohungarumlaut" unicode="&#x151;" horiz-adv-x="346" d="M173 -9 Q233 -9 271 24 Q312 63 312 137 L312 563 Q312 637 271 675 Q234 709 173 709 Q112 709 75 675 Q34 637 34 563 L34 137 Q34 63 75 24 Q113 -9 173 -9 Z M173 687 Q225 687 256 659 Q290 627 290 563 L290 137 Q290 72 256 41 Q227 13 173 13 Q118 13 90 41 Q56 71 56 137 L56 563 Q56 628 90 659 Q120 687 173 687 Z M302 835 L228 737 L208 737 L271 835 L302 835 Z M211 835 L137 737 L117 737 L180 835 L211 835 Z " />
<glyph glyph-name="omacron" unicode="&#x14d;" horiz-adv-x="346" d="M173 -9 Q233 -9 271 24 Q312 63 312 137 L312 563 Q312 637 271 675 Q234 709 173 709 Q112 709 75 675 Q34 637 34 563 L34 137 Q34 63 75 24 Q113 -9 173 -9 Z M173 687 Q225 687 256 659 Q290 627 290 563 L290 137 Q290 72 256 41 Q227 13 173 13 Q118 13 90 41 Q56 71 56 137 L56 563 Q56 628 90 659 Q120 687 173 687 Z M340 737 L340 759 L6 759 L6 737 L340 737 Z " />
<glyph glyph-name="uni1E53" unicode="&#x1e53;" horiz-adv-x="346" d="M173 -9 Q233 -9 271 24 Q312 63 312 137 L312 563 Q312 637 271 675 Q234 709 173 709 Q112 709 75 675 Q34 637 34 563 L34 137 Q34 63 75 24 Q113 -9 173 -9 Z M173 687 Q226 687 256 659 Q290 628 290 563 L290 137 Q290 71 256 41 Q228 13 173 13 Q119 13 90 41 Q56 72 56 137 L56 563 Q56 627 90 659 Q121 687 173 687 Z M6 737 L340 737 L340 759 L6 759 L6 737 Z M257 895 L183 797 L163 797 L226 895 L257 895 Z " />
<glyph glyph-name="uni1E51" unicode="&#x1e51;" horiz-adv-x="346" d="M173 -9 Q233 -9 271 24 Q312 63 312 137 L312 563 Q312 637 271 675 Q234 709 173 709 Q112 709 75 675 Q34 637 34 563 L34 137 Q34 63 75 24 Q113 -9 173 -9 Z M173 687 Q225 687 256 659 Q290 627 290 563 L290 137 Q290 72 256 41 Q227 13 173 13 Q118 13 90 41 Q56 71 56 137 L56 563 Q56 628 90 659 Q120 687 173 687 Z M340 737 L340 759 L6 759 L6 737 L340 737 Z M89 895 L120 895 L183 797 L163 797 L89 895 Z " />
<glyph glyph-name="uni0254" unicode="&#x254;" horiz-adv-x="343" d="M171 -9 Q232 -9 268 25 Q309 62 309 137 L309 563 Q309 638 268 675 Q232 709 171 709 Q109 709 73 675 Q32 637 32 563 L32 493 L54 493 L54 563 Q54 628 88 659 Q118 687 171 687 Q223 687 253 659 Q287 628 287 563 L287 137 Q287 72 253 41 Q223 13 171 13 Q118 13 88 41 Q54 72 54 137 L54 240 L32 240 L32 137 Q32 63 73 25 Q109 -9 171 -9 Z " />
<glyph glyph-name="oslash" unicode="&#xf8;" horiz-adv-x="346" d="M297 639 Q311 610 311 565 L311 137 Q311 62 270 25 Q234 -9 173 -9 Q111 -9 75 25 Q70 29 62 39 L44 -7 L24 1 L48 63 Q34 94 34 137 L34 565 Q34 638 75 677 Q110 710 173 710 Q235 710 270 677 L283 663 L301 710 L322 702 L297 639 Z M56 137 Q56 111 60 94 L273 638 Q266 651 255 660 Q227 688 173 688 Q118 688 90 660 Q56 630 56 565 L56 137 Z M289 565 Q289 591 285 607 L72 64 Q80 50 90 41 Q120 13 173 13 Q225 13 255 41 Q289 72 289 137 L289 565 Z " />
<glyph glyph-name="oslashacute" unicode="&#x1ff;" horiz-adv-x="346" d="M297 639 Q311 610 311 565 L311 137 Q311 62 270 25 Q234 -9 173 -9 Q111 -9 75 25 Q70 29 62 39 L44 -7 L24 1 L48 63 Q34 94 34 137 L34 565 Q34 638 75 677 Q110 710 173 710 Q235 710 270 677 L283 663 L301 710 L322 702 L297 639 Z M56 137 Q56 111 60 94 L273 638 Q266 651 255 660 Q227 688 173 688 Q118 688 90 660 Q56 630 56 565 L56 137 Z M289 565 Q289 591 285 607 L72 64 Q80 50 90 41 Q120 13 173 13 Q225 13 255 41 Q289 72 289 137 L289 565 Z " />
<glyph glyph-name="otilde" unicode="&#xf5;" horiz-adv-x="346" d="M173 -9 Q233 -9 271 24 Q312 63 312 137 L312 563 Q312 637 271 675 Q234 709 173 709 Q112 709 75 675 Q34 637 34 563 L34 137 Q34 63 75 24 Q113 -9 173 -9 Z M173 687 Q225 687 256 659 Q290 627 290 563 L290 137 Q290 72 256 41 Q227 13 173 13 Q118 13 90 41 Q56 71 56 137 L56 563 Q56 628 90 659 Q120 687 173 687 Z M70 738 Q98 772 125 772 Q144 772 170 756 Q200 738 223 738 Q231 738 234 739 Q265 743 294 780 L277 793 Q250 760 223 760 Q205 760 182 774 Q147 794 125 794 L115 793 Q84 789 53 752 L70 738 Z " />
<glyph glyph-name="uni1E4D" unicode="&#x1e4d;" horiz-adv-x="346" d="M257 930 L183 832 L163 832 L226 930 L257 930 Z M173 -9 Q233 -9 271 24 Q312 63 312 137 L312 563 Q312 637 271 675 Q234 709 173 709 Q112 709 75 675 Q34 637 34 563 L34 137 Q34 63 75 24 Q113 -9 173 -9 Z M173 687 Q225 687 256 659 Q290 627 290 563 L290 137 Q290 72 256 41 Q227 13 173 13 Q118 13 90 41 Q56 71 56 137 L56 563 Q56 628 90 659 Q120 687 173 687 Z M70 738 Q98 772 125 772 Q144 772 170 756 Q200 738 223 738 Q231 738 234 739 Q265 743 294 780 L277 793 Q250 760 223 760 Q205 760 182 774 Q147 794 125 794 L115 793 Q84 789 53 752 L70 738 Z " />
<glyph glyph-name="oe" unicode="&#x153;" horiz-adv-x="490" d="M253 678 L253 370 L402 370 L402 348 L253 348 L253 22 L466 22 L466 0 L231 0 L173 0 Q112 0 75 34 Q34 72 34 146 L34 554 Q34 628 75 666 Q112 700 173 700 L231 700 L466 700 L466 678 L253 678 Z M231 22 L231 678 L173 678 Q120 678 90 650 Q56 619 56 554 L56 146 Q56 81 90 50 Q120 22 173 22 L231 22 Z " />
<glyph glyph-name="p" unicode="p" horiz-adv-x="340" d="M62 319 L178 319 Q242 319 276 352 Q317 390 317 464 L317 553 Q317 627 276 666 Q239 700 178 700 L40 700 L40 0 L62 0 L62 319 Z M62 678 L178 678 Q231 678 261 650 Q295 617 295 553 L295 464 Q295 399 261 368 Q233 341 178 341 L62 341 L62 678 Z " />
<glyph glyph-name="uni01A5" unicode="&#x1a5;" horiz-adv-x="375" d="M311 666 Q352 627 352 553 L352 464 Q352 390 311 352 Q277 319 213 319 L97 319 L97 0 L75 0 L75 678 L33 678 Q20 678 11 669 Q2 660 2 647 L-20 647 Q-20 669 -4.5 684.5 Q11 700 33 700 L213 700 Q274 700 311 666 Z M330 553 Q330 617 296 650 Q266 678 213 678 L97 678 L97 341 L213 341 Q268 341 296 368 Q330 399 330 464 L330 553 Z " />
<glyph glyph-name="thorn" unicode="&#xfe;" horiz-adv-x="340" d="M62 620 L178 620 Q231 620 261 592 Q295 559 295 495 L295 406 Q295 341 261 310 Q233 283 178 283 L62 283 L62 620 Z M62 261 L178 261 Q242 261 276 294 Q317 332 317 406 L317 495 Q317 569 276 608 Q239 642 178 642 L62 642 L62 700 L40 700 L40 0 L62 0 L62 261 Z " />
<glyph glyph-name="q" unicode="q" horiz-adv-x="346" d="M351 -112 L351 -134 L337 -134 Q283 -134 251 -105 Q215 -71 215 -6 L215 -5 Q198 -9 173 -9 Q111 -9 75 24 Q34 62 34 136 L34 563 Q34 637 75 675 Q112 709 173 709 Q234 709 271 675 Q311 638 311 563 L311 136 Q311 61 271 24 Q256 10 237 3 L237 -6 Q237 -62 266 -88 Q292 -112 337 -112 L351 -112 Z M90 40 Q119 13 173 13 Q226 13 256 40 Q289 72 289 136 L289 563 Q289 628 256 659 Q225 687 173 687 Q120 687 90 659 Q56 628 56 563 L56 136 Q56 71 90 40 Z " />
<glyph glyph-name="r" unicode="r" horiz-adv-x="343" d="M317 0 L294 0 L190 319 L179 319 L62 319 L62 0 L40 0 L40 700 L179 700 Q240 700 277 666 Q318 627 318 553 L318 464 Q318 390 277 352 Q250 328 212 322 L317 0 Z M179 341 Q232 341 262 368 Q296 400 296 464 L296 553 Q296 616 262 650 Q231 678 179 678 L62 678 L62 341 L179 341 Z " />
<glyph glyph-name="racute" unicode="&#x155;" horiz-adv-x="343" d="M318 0 L295 0 L208 321 Q199 319 179 319 L62 319 L62 0 L40 0 L40 700 L179 700 Q240 700 277 666 Q318 627 318 553 L318 464 Q318 390 277 352 Q257 333 229 326 L318 0 Z M179 341 Q232 341 262 368 Q296 400 296 464 L296 553 Q296 616 262 650 Q231 678 179 678 L62 678 L62 341 L179 341 Z M263 835 L189 737 L169 737 L232 835 L263 835 Z " />
<glyph glyph-name="rcaron" unicode="&#x159;" horiz-adv-x="343" d="M318 0 L295 0 L208 321 Q199 319 179 319 L62 319 L62 0 L40 0 L40 700 L179 700 Q240 700 277 666 Q318 627 318 553 L318 464 Q318 390 277 352 Q257 333 229 326 L318 0 Z M179 341 Q232 341 262 368 Q296 400 296 464 L296 553 Q296 616 262 650 Q231 678 179 678 L62 678 L62 341 L179 341 Z M166 737 L98 835 L118 835 L179 758 L240 835 L260 835 L193 737 L166 737 Z " />
<glyph glyph-name="rcommaaccent" unicode="&#x157;" horiz-adv-x="343" d="M318 0 L295 0 L208 321 Q199 319 179 319 L62 319 L62 0 L40 0 L40 700 L179 700 Q240 700 277 666 Q318 627 318 553 L318 464 Q318 390 277 352 Q257 333 229 326 L318 0 Z M179 341 Q232 341 262 368 Q296 400 296 464 L296 553 Q296 616 262 650 Q231 678 179 678 L62 678 L62 341 L179 341 Z M205 -66 Q205 -76 198 -90 Q196 -94 181 -118 L161 -118 L167 -104 Q169 -100 169 -97 Q169 -92 165 -88 Q153 -79 153 -66 Q153 -56 161 -48 Q169 -40 179 -40 Q190 -40 197.5 -48 Q205 -56 205 -66 Z " />
<glyph glyph-name="uni024D" unicode="&#x24d;" horiz-adv-x="348" d="M323 464 Q323 390 282 352 Q262 333 234 326 L323 0 L300 0 L213 321 Q204 319 184 319 L67 319 L67 0 L45 0 L45 319 L5 319 L5 341 L45 341 L45 700 L184 700 Q245 700 282 666 Q323 627 323 553 L323 464 Z M267 368 Q301 400 301 464 L301 553 Q301 616 267 650 Q236 678 184 678 L67 678 L67 341 L184 341 Q237 341 267 368 Z " />
<glyph glyph-name="s" unicode="s" horiz-adv-x="333" d="M167 -9 Q228 -9 265 25 Q306 63 306 137 L306 187 Q306 268 256 321 Q238 340 219 352 Q200 364 173 377 Q144 392 127 402 Q110 412 94 428 Q50 474 50 544 L50 564 Q50 628 84 659 Q113 687 167 687 Q221 687 250 659 Q284 629 284 564 L284 495 L306 495 L306 564 Q306 637 265 676 Q229 709 167 709 Q105 709 69 676 Q28 637 28 564 L28 544 Q28 465 78 413 Q96 394 115 382.5 Q134 371 162 358 Q189 345 206.5 334 Q224 323 240 306 Q284 259 284 187 L284 137 Q284 72 250 41 Q219 13 167 13 Q115 13 84 41 Q50 73 50 137 L50 242 L28 242 L28 137 Q28 63 69 25 Q106 -9 167 -9 Z " />
<glyph glyph-name="sacute" unicode="&#x15b;" horiz-adv-x="333" d="M167 -9 Q228 -9 265 25 Q306 63 306 137 L306 187 Q306 268 256 321 Q238 340 219 352 Q200 364 173 377 Q144 392 127 402 Q110 412 94 428 Q50 474 50 544 L50 564 Q50 628 84 659 Q113 687 167 687 Q221 687 250 659 Q284 629 284 564 L284 495 L306 495 L306 564 Q306 637 265 676 Q229 709 167 709 Q105 709 69 676 Q28 637 28 564 L28 544 Q28 465 78 413 Q96 394 115 382.5 Q134 371 162 358 Q189 345 206.5 334 Q224 323 240 306 Q284 259 284 187 L284 137 Q284 72 250 41 Q219 13 167 13 Q115 13 84 41 Q50 73 50 137 L50 242 L28 242 L28 137 Q28 63 69 25 Q106 -9 167 -9 Z M251 835 L177 737 L157 737 L220 835 L251 835 Z " />
<glyph glyph-name="scaron" unicode="&#x161;" horiz-adv-x="333" d="M167 -9 Q228 -9 265 25 Q306 63 306 137 L306 187 Q306 268 256 321 Q238 340 219 352 Q200 364 173 377 Q144 392 127 402 Q110 412 94 428 Q50 474 50 544 L50 564 Q50 628 84 659 Q113 687 167 687 Q221 687 250 659 Q284 629 284 564 L284 495 L306 495 L306 564 Q306 637 265 676 Q229 709 167 709 Q105 709 69 676 Q28 637 28 564 L28 544 Q28 465 78 413 Q96 394 115 382.5 Q134 371 162 358 Q189 345 206.5 334 Q224 323 240 306 Q284 259 284 187 L284 137 Q284 72 250 41 Q219 13 167 13 Q115 13 84 41 Q50 73 50 137 L50 242 L28 242 L28 137 Q28 63 69 25 Q106 -9 167 -9 Z M154 737 L86 835 L106 835 L167 758 L228 835 L248 835 L181 737 L154 737 Z " />
<glyph glyph-name="scedilla" unicode="&#x15f;" horiz-adv-x="333" d="M284 495 L284 564 Q284 629 250 659 Q221 687 167 687 Q113 687 84 659 Q50 628 50 564 L50 544 Q50 474 94 428 Q110 412 127 402 Q144 392 173 377 Q200 363 219 351.5 Q238 340 256 321 Q306 268 306 187 L306 137 Q306 63 265 25 Q231 -6 178 -9 Q180 -19 189 -26 Q189 -26 191 -28 Q204 -37 212 -47.5 Q220 -58 220 -76 Q220 -98 204.5 -113.5 Q189 -129 167 -129 Q145 -129 129.5 -113.5 Q114 -98 114 -76 L136 -76 Q136 -89 145 -98 Q154 -107 167 -107 Q180 -107 189 -98 Q198 -89 198 -76 Q198 -65 193.5 -59 Q189 -53 178 -45 L176 -44 Q158 -30 156 -9 Q103 -6 69 25 Q28 63 28 137 L28 242 L50 242 L50 137 Q50 73 84 41 Q115 13 167 13 Q219 13 250 41 Q284 72 284 137 L284 187 Q284 259 240 306 Q224 323 206.5 334 Q189 345 162 358 Q134 371 115 382.5 Q96 394 78 413 Q28 465 28 544 L28 564 Q28 637 69 676 Q105 709 167 709 Q229 709 265 676 Q306 637 306 564 L306 495 L284 495 Z " />
<glyph glyph-name="scommaaccent" unicode="&#x219;" horiz-adv-x="333" d="M167 -9 Q228 -9 265 25 Q306 63 306 137 L306 187 Q306 268 256 321 Q238 340 219 352 Q200 364 173 377 Q144 392 127 402 Q110 412 94 428 Q50 474 50 544 L50 564 Q50 628 84 659 Q113 687 167 687 Q221 687 250 659 Q284 629 284 564 L284 495 L306 495 L306 564 Q306 637 265 676 Q229 709 167 709 Q105 709 69 676 Q28 637 28 564 L28 544 Q28 465 78 413 Q96 394 115 382.5 Q134 371 162 358 Q189 345 206.5 334 Q224 323 240 306 Q284 259 284 187 L284 137 Q284 72 250 41 Q219 13 167 13 Q115 13 84 41 Q50 73 50 137 L50 242 L28 242 L28 137 Q28 63 69 25 Q106 -9 167 -9 Z M193 -66 Q193 -76 186 -90 Q184 -94 169 -118 L149 -118 L155 -104 Q157 -100 157 -97 Q157 -92 153 -88 Q141 -79 141 -66 Q141 -56 149 -48 Q157 -40 167 -40 Q178 -40 185.5 -48 Q193 -56 193 -66 Z " />
<glyph glyph-name="uni1E63" unicode="&#x1e63;" horiz-adv-x="333" d="M167 -9 Q228 -9 265 25 Q306 63 306 137 L306 187 Q306 268 256 321 Q238 340 219 352 Q200 364 173 377 Q144 392 127 402 Q110 412 94 428 Q50 474 50 544 L50 564 Q50 628 84 659 Q113 687 167 687 Q221 687 250 659 Q284 629 284 564 L284 495 L306 495 L306 564 Q306 637 265 676 Q229 709 167 709 Q105 709 69 676 Q28 637 28 564 L28 544 Q28 465 78 413 Q96 394 115 382.5 Q134 371 162 358 Q189 345 206.5 334 Q224 323 240 306 Q284 259 284 187 L284 137 Q284 72 250 41 Q219 13 167 13 Q115 13 84 41 Q50 73 50 137 L50 242 L28 242 L28 137 Q28 63 69 25 Q106 -9 167 -9 Z M193 -66 Q193 -55 185.5 -47.5 Q178 -40 167 -40 Q156 -40 148.5 -47.5 Q141 -55 141 -66 Q141 -77 149 -84.5 Q157 -92 167 -92 Q178 -92 185.5 -84.5 Q193 -77 193 -66 Z " />
<glyph glyph-name="germandbls" unicode="&#xdf;" horiz-adv-x="351" d="M277 327 Q317 288 317 214 L317 141 Q317 66 276 31 Q242 0 179 0 L40 0 L40 558 Q40 632 81 668 Q97 682 120 691 Q143 700 170 700 Q197 700 220 691 Q243 682 259 668 Q300 632 300 558 L300 484 Q300 409 259 372 Q248 361 231 353 Q256 345 277 327 Z M62 360 L162 360 Q216 360 244 388 Q278 419 278 484 L278 558 Q278 615 249.5 646.5 Q221 678 170 678 Q119 678 90.5 646.5 Q62 615 62 558 L62 360 Z M295 214 Q295 280 262 310 Q233 338 179 338 L62 338 L62 22 L179 22 Q295 22 295 141 L295 214 Z " />
<glyph glyph-name="t" unicode="t" horiz-adv-x="303" d="M291 700 L291 678 L164 678 L164 0 L142 0 L142 678 L13 678 L13 700 L291 700 Z " />
<glyph glyph-name="tbar" unicode="&#x167;" horiz-adv-x="303" d="M291 678 L164 678 L164 460 L224 460 L224 438 L164 438 L164 0 L142 0 L142 438 L82 438 L82 460 L142 460 L142 678 L13 678 L13 700 L291 700 L291 678 Z " />
<glyph glyph-name="tcaron" unicode="&#x165;" horiz-adv-x="303" d="M291 700 L291 678 L164 678 L164 0 L142 0 L142 678 L13 678 L13 700 L291 700 Z M139 737 L71 835 L91 835 L152 758 L213 835 L233 835 L166 737 L139 737 Z " />
<glyph glyph-name="uni0163" unicode="&#x163;" horiz-adv-x="303" d="M164 1 Q164 -11 166.5 -16.5 Q169 -22 177 -28 Q190 -39 198 -49 Q206 -59 206 -76 Q206 -98 190.5 -113.5 Q175 -129 153 -129 Q131 -129 115.5 -113.5 Q100 -98 100 -76 L122 -76 Q122 -89 131 -98 Q140 -107 153 -107 Q166 -107 175 -98 Q184 -89 184 -76 Q184 -65 179 -58.5 Q174 -52 164 -45 Q153 -37 147.5 -29.5 Q142 -22 142 -9 L142 678 L13 678 L13 700 L291 700 L291 678 L164 678 L164 1 Z " />
<glyph glyph-name="uni1E71" unicode="&#x1e71;" horiz-adv-x="303" d="M291 700 L291 678 L164 678 L164 0 L142 0 L142 678 L13 678 L13 700 L291 700 Z M139 -40 L166 -40 L233 -138 L213 -138 L152 -61 L91 -138 L71 -138 L139 -40 Z " />
<glyph glyph-name="uni021B" unicode="&#x21b;" horiz-adv-x="303" d="M291 700 L291 678 L164 678 L164 0 L142 0 L142 678 L13 678 L13 700 L291 700 Z M179 -66 Q179 -76 172 -90 Q170 -94 155 -118 L135 -118 L141 -104 Q143 -100 143 -97 Q143 -92 139 -88 Q127 -79 127 -66 Q127 -56 135 -48 Q143 -40 153 -40 Q164 -40 171.5 -48 Q179 -56 179 -66 Z " />
<glyph glyph-name="uni1E6D" unicode="&#x1e6d;" horiz-adv-x="303" d="M291 700 L291 678 L164 678 L164 0 L142 0 L142 678 L13 678 L13 700 L291 700 Z M179 -66 Q179 -55 171.5 -47.5 Q164 -40 153 -40 Q142 -40 134.5 -47.5 Q127 -55 127 -66 Q127 -77 135 -84.5 Q143 -92 153 -92 Q164 -92 171.5 -84.5 Q179 -77 179 -66 Z " />
<glyph glyph-name="uni01AD" unicode="&#x1ad;" horiz-adv-x="348" d="M336 700 L336 678 L209 678 L209 0 L187 0 L187 678 L58 678 Q45 678 36 669 Q27 660 27 647 L5 647 Q5 669 20.5 684.5 Q36 700 58 700 L336 700 Z " />
<glyph glyph-name="uni1E6F" unicode="&#x1e6f;" horiz-adv-x="304" d="M291 700 L291 678 L164 678 L164 0 L142 0 L142 678 L13 678 L13 700 L291 700 Z M319 -62 L319 -40 L-15 -40 L-15 -62 L319 -62 Z " />
<glyph glyph-name="uni0288" unicode="&#x288;" horiz-adv-x="303" d="M164 678 L164 -42 Q164 -55 173 -63.5 Q182 -72 195 -72 L195 -94 Q173 -94 157.5 -79 Q142 -64 142 -42 L142 678 L13 678 L13 700 L291 700 L291 678 L164 678 Z " />
<glyph glyph-name="u" unicode="u" horiz-adv-x="344" d="M172 -9 Q233 -9 270 25 Q311 63 311 137 L311 700 L289 700 L289 137 Q289 72 255 41 Q225 13 172 13 Q120 13 89 41 Q55 73 55 137 L55 700 L33 700 L33 137 Q33 63 74 25 Q111 -9 172 -9 Z " />
<glyph glyph-name="uacute" unicode="&#xfa;" horiz-adv-x="344" d="M172 -9 Q233 -9 270 25 Q311 63 311 137 L311 700 L289 700 L289 137 Q289 72 255 41 Q225 13 172 13 Q120 13 89 41 Q55 73 55 137 L55 700 L33 700 L33 137 Q33 63 74 25 Q111 -9 172 -9 Z M256 835 L182 737 L162 737 L225 835 L256 835 Z " />
<glyph glyph-name="uni0289" unicode="&#x289;" horiz-adv-x="368" d="M363 349 L323 349 L323 137 Q323 63 282 25 Q245 -9 184 -9 Q123 -9 86 25 Q45 63 45 137 L45 349 L5 349 L5 371 L45 371 L45 700 L67 700 L67 371 L301 371 L301 700 L323 700 L323 371 L363 371 L363 349 Z M301 349 L67 349 L67 137 Q67 73 101 41 Q132 13 184 13 Q237 13 267 41 Q301 72 301 137 L301 349 Z " />
<glyph glyph-name="uni01D4" unicode="&#x1d4;" horiz-adv-x="344" d="M172 -9 Q233 -9 270 25 Q311 63 311 137 L311 700 L289 700 L289 137 Q289 72 255 41 Q225 13 172 13 Q120 13 89 41 Q55 73 55 137 L55 700 L33 700 L33 137 Q33 63 74 25 Q111 -9 172 -9 Z M160 737 L92 835 L112 835 L173 758 L234 835 L254 835 L187 737 L160 737 Z " />
<glyph glyph-name="ucircumflex" unicode="&#xfb;" horiz-adv-x="344" d="M172 -9 Q233 -9 270 25 Q311 63 311 137 L311 700 L289 700 L289 137 Q289 72 255 41 Q225 13 172 13 Q120 13 89 41 Q55 73 55 137 L55 700 L33 700 L33 137 Q33 63 74 25 Q111 -9 172 -9 Z M159 835 L186 835 L253 737 L233 737 L172 814 L111 737 L91 737 L159 835 Z " />
<glyph glyph-name="udieresis" unicode="&#xfc;" horiz-adv-x="344" d="M172 -9 Q233 -9 270 25 Q311 63 311 137 L311 700 L289 700 L289 137 Q289 72 255 41 Q225 13 172 13 Q120 13 89 41 Q55 73 55 137 L55 700 L33 700 L33 137 Q33 63 74 25 Q111 -9 172 -9 Z M131 763 Q131 774 123.5 781.5 Q116 789 105 789 Q94 789 86.5 781.5 Q79 774 79 763 Q79 753 87 745 Q95 737 105 737 Q116 737 123.5 744.5 Q131 752 131 763 Z M265 763 Q265 774 257.5 781.5 Q250 789 239 789 Q228 789 220.5 781.5 Q213 774 213 763 Q213 753 221 745 Q229 737 239 737 Q250 737 257.5 744.5 Q265 752 265 763 Z " />
<glyph glyph-name="uni01D8" unicode="&#x1d8;" horiz-adv-x="344" d="M172 -9 Q233 -9 270 25 Q311 63 311 137 L311 700 L289 700 L289 137 Q289 72 255 41 Q225 13 172 13 Q120 13 89 41 Q55 73 55 137 L55 700 L33 700 L33 137 Q33 63 74 25 Q111 -9 172 -9 Z M131 763 Q131 774 123.5 781.5 Q116 789 105 789 Q94 789 86.5 781.5 Q79 774 79 763 Q79 753 87 745 Q95 737 105 737 Q116 737 123.5 744.5 Q131 752 131 763 Z M265 763 Q265 774 257.5 781.5 Q250 789 239 789 Q228 789 220.5 781.5 Q213 774 213 763 Q213 753 221 745 Q229 737 239 737 Q250 737 257.5 744.5 Q265 752 265 763 Z M256 925 L182 827 L162 827 L225 925 L256 925 Z " />
<glyph glyph-name="uni01DA" unicode="&#x1da;" horiz-adv-x="344" d="M172 -9 Q233 -9 270 25 Q311 63 311 137 L311 700 L289 700 L289 137 Q289 72 255 41 Q225 13 172 13 Q120 13 89 41 Q55 73 55 137 L55 700 L33 700 L33 137 Q33 63 74 25 Q111 -9 172 -9 Z M131 763 Q131 774 123.5 781.5 Q116 789 105 789 Q94 789 86.5 781.5 Q79 774 79 763 Q79 753 87 745 Q95 737 105 737 Q116 737 123.5 744.5 Q131 752 131 763 Z M265 763 Q265 774 257.5 781.5 Q250 789 239 789 Q228 789 220.5 781.5 Q213 774 213 763 Q213 753 221 745 Q229 737 239 737 Q250 737 257.5 744.5 Q265 752 265 763 Z M159 827 L91 925 L111 925 L172 848 L233 925 L253 925 L186 827 L159 827 Z " />
<glyph glyph-name="uni01DC" unicode="&#x1dc;" horiz-adv-x="344" d="M172 -9 Q233 -9 270 25 Q311 63 311 137 L311 700 L289 700 L289 137 Q289 73 255 41 Q224 13 172 13 Q119 13 89 41 Q55 72 55 137 L55 700 L33 700 L33 137 Q33 63 74 25 Q111 -9 172 -9 Z M213 763 Q213 752 220.5 744.5 Q228 737 239 737 Q250 737 257.5 745 Q265 753 265 763 Q265 774 257.5 781.5 Q250 789 239 789 Q228 789 220.5 781.5 Q213 774 213 763 Z M79 763 Q79 752 86.5 744.5 Q94 737 105 737 Q116 737 123.5 745 Q131 753 131 763 Q131 774 123.5 781.5 Q116 789 105 789 Q94 789 86.5 781.5 Q79 774 79 763 Z M88 925 L119 925 L182 827 L162 827 L88 925 Z " />
<glyph glyph-name="uni01D6" unicode="&#x1d6;" horiz-adv-x="344" d="M172 -9 Q233 -9 270 25 Q311 63 311 137 L311 700 L289 700 L289 137 Q289 73 255 41 Q224 13 172 13 Q119 13 89 41 Q55 72 55 137 L55 700 L33 700 L33 137 Q33 63 74 25 Q111 -9 172 -9 Z M131 763 Q131 774 123.5 781.5 Q116 789 105 789 Q94 789 86.5 781.5 Q79 774 79 763 Q79 753 87 745 Q95 737 105 737 Q116 737 123.5 744.5 Q131 752 131 763 Z M265 763 Q265 774 257.5 781.5 Q250 789 239 789 Q228 789 220.5 781.5 Q213 774 213 763 Q213 753 221 745 Q229 737 239 737 Q250 737 257.5 744.5 Q265 752 265 763 Z M339 827 L339 849 L5 849 L5 827 L339 827 Z " />
<glyph glyph-name="uni1EE5" unicode="&#x1ee5;" horiz-adv-x="344" d="M198 -66 Q198 -55 190.5 -47.5 Q183 -40 172 -40 Q161 -40 153.5 -47.5 Q146 -55 146 -66 Q146 -77 154 -84.5 Q162 -92 172 -92 Q183 -92 190.5 -84.5 Q198 -77 198 -66 Z M172 -9 Q233 -9 270 25 Q311 63 311 137 L311 700 L289 700 L289 137 Q289 72 255 41 Q225 13 172 13 Q120 13 89 41 Q55 73 55 137 L55 700 L33 700 L33 137 Q33 63 74 25 Q111 -9 172 -9 Z " />
<glyph glyph-name="ugrave" unicode="&#xf9;" horiz-adv-x="344" d="M172 -9 Q233 -9 270 25 Q311 63 311 137 L311 700 L289 700 L289 137 Q289 72 255 41 Q225 13 172 13 Q120 13 89 41 Q55 73 55 137 L55 700 L33 700 L33 137 Q33 63 74 25 Q111 -9 172 -9 Z M88 835 L119 835 L182 737 L162 737 L88 835 Z " />
<glyph glyph-name="uni1EE7" unicode="&#x1ee7;" horiz-adv-x="344" d="M172 -9 Q233 -9 270 25 Q311 63 311 137 L311 700 L289 700 L289 137 Q289 72 255 41 Q225 13 172 13 Q120 13 89 41 Q55 73 55 137 L55 700 L33 700 L33 137 Q33 63 74 25 Q111 -9 172 -9 Z M162 737 Q162 765 141.5 785.5 Q121 806 92 806 L73 825 Q82 828 92 828 Q129 828 155.5 801.5 Q182 775 182 737 L162 737 Z " />
<glyph glyph-name="uhorn" unicode="&#x1b0;" horiz-adv-x="386" d="M406 731 Q406 709 390.5 693.5 Q375 678 353 678 L311 678 L311 137 Q311 63 270 25 Q233 -9 172 -9 Q111 -9 74 25 Q33 63 33 137 L33 700 L55 700 L55 137 Q55 73 89 41 Q120 13 172 13 Q225 13 255 41 Q289 72 289 137 L289 700 L353 700 Q366 700 375 709 Q384 718 384 731 L406 731 Z " />
<glyph glyph-name="uni1EE9" unicode="&#x1ee9;" horiz-adv-x="386" d="M406 731 Q406 709 390.5 693.5 Q375 678 353 678 L311 678 L311 137 Q311 63 270 25 Q233 -9 172 -9 Q111 -9 74 25 Q33 63 33 137 L33 700 L55 700 L55 137 Q55 73 89 41 Q120 13 172 13 Q225 13 255 41 Q289 72 289 137 L289 700 L353 700 Q366 700 375 709 Q384 718 384 731 L406 731 Z M256 835 L182 737 L162 737 L225 835 L256 835 Z " />
<glyph glyph-name="uni1EF1" unicode="&#x1ef1;" horiz-adv-x="386" d="M406 731 Q406 709 390.5 693.5 Q375 678 353 678 L311 678 L311 137 Q311 63 270 25 Q233 -9 172 -9 Q111 -9 74 25 Q33 63 33 137 L33 700 L55 700 L55 137 Q55 73 89 41 Q120 13 172 13 Q225 13 255 41 Q289 72 289 137 L289 700 L353 700 Q366 700 375 709 Q384 718 384 731 L406 731 Z M198 -66 Q198 -55 190.5 -47.5 Q183 -40 172 -40 Q161 -40 153.5 -47.5 Q146 -55 146 -66 Q146 -77 154 -84.5 Q162 -92 172 -92 Q183 -92 190.5 -84.5 Q198 -77 198 -66 Z " />
<glyph glyph-name="uni1EEB" unicode="&#x1eeb;" horiz-adv-x="386" d="M406 731 Q406 709 390.5 693.5 Q375 678 353 678 L311 678 L311 137 Q311 63 270 25 Q233 -9 172 -9 Q111 -9 74 25 Q33 63 33 137 L33 700 L55 700 L55 137 Q55 73 89 41 Q120 13 172 13 Q225 13 255 41 Q289 72 289 137 L289 700 L353 700 Q366 700 375 709 Q384 718 384 731 L406 731 Z M88 835 L119 835 L182 737 L162 737 L88 835 Z " />
<glyph glyph-name="uni1EED" unicode="&#x1eed;" horiz-adv-x="386" d="M406 731 Q406 709 390.5 693.5 Q375 678 353 678 L311 678 L311 137 Q311 63 270 25 Q233 -9 172 -9 Q111 -9 74 25 Q33 63 33 137 L33 700 L55 700 L55 137 Q55 73 89 41 Q120 13 172 13 Q225 13 255 41 Q289 72 289 137 L289 700 L353 700 Q366 700 375 709 Q384 718 384 731 L406 731 Z M162 737 Q162 765 141.5 785.5 Q121 806 92 806 L73 825 Q82 828 92 828 Q129 828 155.5 801.5 Q182 775 182 737 L162 737 Z " />
<glyph glyph-name="uni1EEF" unicode="&#x1eef;" horiz-adv-x="386" d="M406 731 Q406 709 390.5 693.5 Q375 678 353 678 L311 678 L311 137 Q311 63 270 25 Q233 -9 172 -9 Q111 -9 74 25 Q33 63 33 137 L33 700 L55 700 L55 137 Q55 73 89 41 Q120 13 172 13 Q225 13 255 41 Q289 72 289 137 L289 700 L353 700 Q366 700 375 709 Q384 718 384 731 L406 731 Z M69 738 Q97 772 124 772 Q143 772 169 756 Q199 738 222 738 Q230 738 233 739 Q264 743 293 780 L276 793 Q249 760 222 760 Q204 760 181 774 Q146 794 124 794 L114 793 Q83 789 52 752 L69 738 Z " />
<glyph glyph-name="uhungarumlaut" unicode="&#x171;" horiz-adv-x="344" d="M172 -9 Q233 -9 270 25 Q311 63 311 137 L311 700 L289 700 L289 137 Q289 72 255 41 Q225 13 172 13 Q120 13 89 41 Q55 73 55 137 L55 700 L33 700 L33 137 Q33 63 74 25 Q111 -9 172 -9 Z M301 835 L227 737 L207 737 L270 835 L301 835 Z M210 835 L136 737 L116 737 L179 835 L210 835 Z " />
<glyph glyph-name="umacron" unicode="&#x16b;" horiz-adv-x="344" d="M172 -9 Q233 -9 270 25 Q311 63 311 137 L311 700 L289 700 L289 137 Q289 72 255 41 Q225 13 172 13 Q120 13 89 41 Q55 73 55 137 L55 700 L33 700 L33 137 Q33 63 74 25 Q111 -9 172 -9 Z M339 737 L339 759 L5 759 L5 737 L339 737 Z " />
<glyph glyph-name="uogonek" unicode="&#x173;" horiz-adv-x="344" d="M311 700 L311 137 Q311 63 270 25 L255 11 Q225 -16 212.5 -31 Q200 -46 200 -60 Q200 -81 243 -81 L252 -81 L252 -104 L233 -104 Q204 -104 185 -97 Q166 -90 166 -69 Q166 -41 214 -4 Q192 -9 172 -9 Q111 -9 74 25 Q33 63 33 137 L33 700 L55 700 L55 137 Q55 73 89 41 Q120 13 172 13 Q225 13 255 41 Q289 72 289 137 L289 700 L311 700 Z " />
<glyph glyph-name="uring" unicode="&#x16f;" horiz-adv-x="344" d="M172 -9 Q233 -9 270 25 Q311 63 311 137 L311 700 L289 700 L289 137 Q289 72 255 41 Q225 13 172 13 Q120 13 89 41 Q55 73 55 137 L55 700 L33 700 L33 137 Q33 63 74 25 Q111 -9 172 -9 Z M172 737 Q194 737 209.5 752.5 Q225 768 225 790 Q225 812 209.5 827.5 Q194 843 172 843 Q150 843 134.5 827.5 Q119 812 119 790 Q119 768 134.5 752.5 Q150 737 172 737 Z M172 821 Q185 821 194 812 Q203 803 203 790 Q203 777 194 768 Q185 759 172 759 Q159 759 150 768 Q141 777 141 790 Q141 803 150 812 Q159 821 172 821 Z " />
<glyph glyph-name="utilde" unicode="&#x169;" horiz-adv-x="344" d="M172 -9 Q233 -9 270 25 Q311 63 311 137 L311 700 L289 700 L289 137 Q289 72 255 41 Q225 13 172 13 Q120 13 89 41 Q55 73 55 137 L55 700 L33 700 L33 137 Q33 63 74 25 Q111 -9 172 -9 Z M68 738 Q96 772 123 772 Q142 772 168 756 Q198 738 221 738 Q229 738 232 739 Q263 743 292 780 L275 793 Q248 760 221 760 Q203 760 180 774 Q145 794 123 794 L113 793 Q82 789 51 752 L68 738 Z " />
<glyph glyph-name="v" unicode="v" horiz-adv-x="351" d="M187 0 L164 0 L14 700 L36 700 L176 49 L315 700 L337 700 L187 0 Z " />
<glyph glyph-name="uni028C" unicode="&#x28c;" horiz-adv-x="351" d="M187 700 L337 0 L315 0 L176 651 L36 0 L14 0 L164 700 L187 700 Z " />
<glyph glyph-name="w" unicode="w" horiz-adv-x="497" d="M455 700 L478 700 L392 0 L380 0 L249 527 L117 0 L105 0 L20 700 L42 700 L116 84 L243 589 L255 589 L381 84 L455 700 Z " />
<glyph glyph-name="wacute" unicode="&#x1e83;" horiz-adv-x="497" d="M455 700 L478 700 L392 0 L380 0 L249 527 L117 0 L105 0 L20 700 L42 700 L116 84 L243 589 L255 589 L381 84 L455 700 Z M333 835 L259 737 L239 737 L302 835 L333 835 Z " />
<glyph glyph-name="wcircumflex" unicode="&#x175;" horiz-adv-x="497" d="M455 700 L478 700 L392 0 L380 0 L249 527 L117 0 L105 0 L20 700 L42 700 L116 84 L243 589 L255 589 L381 84 L455 700 Z M236 835 L263 835 L330 737 L310 737 L249 814 L188 737 L168 737 L236 835 Z " />
<glyph glyph-name="wdieresis" unicode="&#x1e85;" horiz-adv-x="497" d="M455 700 L478 700 L392 0 L380 0 L249 527 L117 0 L105 0 L20 700 L42 700 L116 84 L243 589 L255 589 L381 84 L455 700 Z M208 763 Q208 774 200.5 781.5 Q193 789 182 789 Q171 789 163.5 781.5 Q156 774 156 763 Q156 753 164 745 Q172 737 182 737 Q193 737 200.5 744.5 Q208 752 208 763 Z M342 763 Q342 774 334.5 781.5 Q327 789 316 789 Q305 789 297.5 781.5 Q290 774 290 763 Q290 753 298 745 Q306 737 316 737 Q327 737 334.5 744.5 Q342 752 342 763 Z " />
<glyph glyph-name="wgrave" unicode="&#x1e81;" horiz-adv-x="497" d="M455 700 L478 700 L392 0 L380 0 L249 527 L117 0 L105 0 L20 700 L42 700 L116 84 L243 589 L255 589 L381 84 L455 700 Z M165 835 L196 835 L259 737 L239 737 L165 835 Z " />
<glyph glyph-name="uni2C73" unicode="&#x2c73;" horiz-adv-x="550" d="M517 700 Q539 700 554.5 684.5 Q570 669 570 647 L548 647 Q548 660 539 669 Q530 678 517 678 L475 678 L392 0 L380 0 L249 527 L117 0 L105 0 L20 700 L42 700 L116 84 L243 589 L255 589 L381 84 L455 700 L517 700 Z " />
<glyph glyph-name="uni028D" unicode="&#x28d;" horiz-adv-x="497" d="M455 0 L381 616 L255 111 L243 111 L116 616 L42 0 L20 0 L105 700 L117 700 L249 173 L380 700 L392 700 L478 0 L455 0 Z " />
<glyph glyph-name="x" unicode="x" horiz-adv-x="360" d="M180 332 L44 0 L21 0 L164 349 L15 700 L39 700 L180 366 L322 700 L346 700 L197 349 L340 0 L317 0 L180 332 Z " />
<glyph glyph-name="y" unicode="y" horiz-adv-x="346" d="M173 274 L314 700 L337 700 L184 237 L184 0 L162 0 L162 237 L9 700 L32 700 L173 274 Z " />
<glyph glyph-name="yacute" unicode="&#xfd;" horiz-adv-x="346" d="M173 274 L314 700 L337 700 L184 237 L184 0 L162 0 L162 237 L9 700 L32 700 L173 274 Z M257 835 L183 737 L163 737 L226 835 L257 835 Z " />
<glyph glyph-name="ycircumflex" unicode="&#x177;" horiz-adv-x="346" d="M173 274 L314 700 L337 700 L184 237 L184 0 L162 0 L162 237 L9 700 L32 700 L173 274 Z M160 835 L187 835 L254 737 L234 737 L173 814 L112 737 L92 737 L160 835 Z " />
<glyph glyph-name="ydieresis" unicode="&#xff;" horiz-adv-x="346" d="M173 274 L314 700 L337 700 L184 237 L184 0 L162 0 L162 237 L9 700 L32 700 L173 274 Z M136 763 Q136 774 128.5 781.5 Q121 789 110 789 Q99 789 91.5 781.5 Q84 774 84 763 Q84 753 92 745 Q100 737 110 737 Q121 737 128.5 744.5 Q136 752 136 763 Z M270 763 Q270 774 262.5 781.5 Q255 789 244 789 Q233 789 225.5 781.5 Q218 774 218 763 Q218 753 226 745 Q234 737 244 737 Q255 737 262.5 744.5 Q270 752 270 763 Z " />
<glyph glyph-name="uni1EF5" unicode="&#x1ef5;" horiz-adv-x="346" d="M173 274 L314 700 L337 700 L184 237 L184 0 L162 0 L162 237 L9 700 L32 700 L173 274 Z M199 -66 Q199 -55 191.5 -47.5 Q184 -40 173 -40 Q162 -40 154.5 -47.5 Q147 -55 147 -66 Q147 -77 155 -84.5 Q163 -92 173 -92 Q184 -92 191.5 -84.5 Q199 -77 199 -66 Z " />
<glyph glyph-name="ygrave" unicode="&#x1ef3;" horiz-adv-x="346" d="M173 274 L314 700 L337 700 L184 237 L184 0 L162 0 L162 237 L9 700 L32 700 L173 274 Z M89 835 L120 835 L183 737 L163 737 L89 835 Z " />
<glyph glyph-name="uni01B4" unicode="&#x1b4;" horiz-adv-x="405" d="M372 700 Q394 700 409.5 684.5 Q425 669 425 647 L403 647 Q403 660 394 669 Q385 678 372 678 L330 678 L184 237 L184 0 L162 0 L162 237 L9 700 L32 700 L173 274 L314 700 L372 700 Z " />
<glyph glyph-name="uni1EF7" unicode="&#x1ef7;" horiz-adv-x="346" d="M173 274 L314 700 L337 700 L184 237 L184 0 L162 0 L162 237 L9 700 L32 700 L173 274 Z M163 737 Q163 765 142.5 785.5 Q122 806 93 806 L74 825 Q83 828 93 828 Q130 828 156.5 801.5 Q183 775 183 737 L163 737 Z " />
<glyph glyph-name="uni1EF9" unicode="&#x1ef9;" horiz-adv-x="346" d="M173 274 L314 700 L337 700 L184 237 L184 0 L162 0 L162 237 L9 700 L32 700 L173 274 Z M70 738 Q98 772 125 772 Q144 772 170 756 Q200 738 223 738 Q231 738 234 739 Q265 743 294 780 L277 793 Q250 760 223 760 Q205 760 182 774 Q147 794 125 794 L115 793 Q84 789 53 752 L70 738 Z " />
<glyph glyph-name="uni028E" unicode="&#x28e;" horiz-adv-x="346" d="M173 426 L32 0 L9 0 L162 463 L162 700 L184 700 L184 463 L337 0 L314 0 L173 426 Z " />
<glyph glyph-name="z" unicode="z" horiz-adv-x="318" d="M298 0 L298 22 L51 22 L297 700 L20 700 L20 678 L266 678 L20 0 L298 0 Z " />
<glyph glyph-name="zacute" unicode="&#x17a;" horiz-adv-x="318" d="M298 0 L298 22 L51 22 L297 700 L20 700 L20 678 L266 678 L20 0 L298 0 Z M243 835 L169 737 L149 737 L212 835 L243 835 Z " />
<glyph glyph-name="zcaron" unicode="&#x17e;" horiz-adv-x="318" d="M298 0 L298 22 L51 22 L297 700 L20 700 L20 678 L266 678 L20 0 L298 0 Z M145 737 L77 835 L97 835 L158 758 L219 835 L239 835 L172 737 L145 737 Z " />
<glyph glyph-name="zdotaccent" unicode="&#x17c;" horiz-adv-x="318" d="M298 0 L298 22 L51 22 L297 700 L20 700 L20 678 L266 678 L20 0 L298 0 Z M184 763 Q184 774 176.5 781.5 Q169 789 158 789 Q147 789 139.5 781.5 Q132 774 132 763 Q132 753 140 745 Q148 737 158 737 Q169 737 176.5 744.5 Q184 752 184 763 Z " />
<glyph glyph-name="uni1E93" unicode="&#x1e93;" horiz-adv-x="318" d="M298 0 L298 22 L51 22 L297 700 L20 700 L20 678 L266 678 L20 0 L298 0 Z M184 -66 Q184 -55 176.5 -47.5 Q169 -40 158 -40 Q147 -40 139.5 -47.5 Q132 -55 132 -66 Q132 -77 140 -84.5 Q148 -92 158 -92 Q169 -92 176.5 -84.5 Q184 -77 184 -66 Z " />
<glyph glyph-name="uniAB53" unicode="&#xab53;" horiz-adv-x="600" d="" />
<glyph glyph-name="zero" unicode="0" horiz-adv-x="358" d="M179 -9 Q239 -9 277 24 Q318 63 318 137 L318 563 Q318 637 277 675 Q240 709 179 709 Q118 709 81 675 Q40 637 40 563 L40 137 Q40 63 81 24 Q119 -9 179 -9 Z M179 687 Q231 687 262 659 Q296 627 296 563 L296 137 Q296 72 262 41 Q233 13 179 13 Q124 13 96 41 Q62 71 62 137 L62 563 Q62 628 96 659 Q126 687 179 687 Z " />
<glyph glyph-name="one" unicode="1" horiz-adv-x="212" d="M30 590 L150 700 L162 700 L162 0 L140 0 L140 661 L30 560 L30 590 Z " />
<glyph glyph-name="two" unicode="2" horiz-adv-x="346" d="M38 0 L38 171 Q38 250 88 305 Q106 324 125 336 Q144 348 171 361 Q200 375 216.5 385.5 Q233 396 249 412 Q293 456 293 528 L293 563 Q293 628 259 659 Q229 687 177 687 Q124 687 94 659 Q60 628 60 563 L60 493 L38 493 L38 563 Q38 637 79 675 Q115 709 177 709 Q238 709 274 675 Q315 638 315 563 L315 528 Q315 449 265 397 Q247 378 228 366 Q209 354 182 342 Q156 329 138 318 Q120 307 104 290 Q60 243 60 171 L60 22 L315 22 L315 0 L38 0 Z " />
<glyph glyph-name="three" unicode="3" horiz-adv-x="343" d="M172 -9 Q233 -9 270 25 Q311 63 311 137 L311 187 Q311 236 294 272 Q277 308 253 331 Q227 354 196 368 Q241 387 276 429 Q311 471 311 544 L311 564 Q311 637 270 676 Q234 709 172 709 Q110 709 74 676 Q34 637 34 564 L34 544 L56 544 L56 564 Q56 629 89 659 Q118 687 172 687 Q227 687 255 659 Q289 629 289 564 L289 544 Q289 466 237 420 Q207 392 169 382 Q155 378 143 378 L143 356 Q152 356 170 354 Q181 352 200.5 342 Q220 332 238 315 Q289 267 289 187 L289 137 Q289 72 255 41 Q225 13 172 13 Q120 13 89 41 Q56 73 56 137 L56 187 L34 187 L34 137 Q34 62 74 25 Q111 -9 172 -9 Z " />
<glyph glyph-name="four" unicode="4" horiz-adv-x="385" d="M280 146 L355 146 L355 124 L280 124 L280 0 L258 0 L258 124 L30 124 L30 136 L258 700 L280 700 L280 146 Z M258 146 L258 643 L57 146 L258 146 Z " />
<glyph glyph-name="five" unicode="5" horiz-adv-x="343" d="M34 700 L34 551 Q34 470 84 417 Q102 398 121 386.5 Q140 375 167 361 Q196 347 212.5 336.5 Q229 326 245 310 Q289 264 289 194 L289 137 Q289 72 255 41 Q225 13 172 13 Q120 13 89 41 Q56 73 56 137 L56 206 L34 206 L34 137 Q34 62 74 25 Q111 -9 172 -9 Q233 -9 270 25 Q311 63 311 137 L311 194 Q311 273 261 326 Q243 345 224 356.5 Q205 368 178 380 Q152 393 134 404 Q116 415 100 432 Q56 479 56 551 L56 678 L311 678 L311 700 L34 700 Z " />
<glyph glyph-name="six" unicode="6" horiz-adv-x="346" d="M292 503 L292 563 Q292 627 258 659 Q227 687 175 687 Q123 687 92 659 Q58 627 58 563 L58 325 Q70 341 77 347 Q114 381 175 381 Q236 381 273 347 Q314 309 314 235 L314 137 Q314 63 273 24 Q237 -9 175 -9 Q113 -9 77 24 Q36 63 36 137 L36 235 L36 563 Q36 637 77 675 Q114 709 175 709 Q236 709 273 675 Q314 637 314 563 L314 503 L292 503 Z M92 331 Q58 299 58 235 L58 137 Q58 72 92 41 Q121 13 175 13 Q229 13 258 41 Q292 72 292 137 L292 235 Q292 299 258 331 Q227 359 175 359 Q123 359 92 331 Z " />
<glyph glyph-name="seven" unicode="7" horiz-adv-x="332" d="M322 700 L94 0 L70 0 L291 678 L15 678 L15 700 L322 700 Z " />
<glyph glyph-name="eight" unicode="8" horiz-adv-x="341" d="M170 -9 Q232 -9 268 25 Q309 63 309 137 L309 187 Q309 268 259 321 Q233 348 195 367 Q233 386 259 413 Q309 465 309 544 L309 564 Q309 637 268 676 Q233 709 170 709 Q108 709 73 676 Q32 637 32 564 L32 544 Q32 465 82 413 Q108 386 146 367 Q108 348 82 321 Q32 268 32 187 L32 137 Q32 63 73 25 Q109 -9 170 -9 Z M174 353 Q218 333 243 306 Q287 259 287 187 L287 137 Q287 72 253 41 Q223 13 170 13 Q118 13 88 41 Q54 72 54 137 L54 187 Q54 259 98 306 Q123 333 167 353 L170 355 L174 353 Z M170 687 Q225 687 253 659 Q287 629 287 564 L287 544 Q287 474 243 428 Q227 412 211.5 402.5 Q196 393 175 382 Q171 380 170 380 L166 382 Q145 393 129.5 402.5 Q114 412 98 428 Q54 474 54 544 L54 564 Q54 629 88 659 Q116 687 170 687 Z " />
<glyph glyph-name="nine" unicode="9" horiz-adv-x="345" d="M309 466 L309 137 Q309 62 268 25 Q232 -9 171 -9 Q109 -9 73 25 Q32 63 32 137 L32 199 L54 199 L54 137 Q54 72 88 41 Q118 13 171 13 Q223 13 253 41 Q287 72 287 137 L287 377 Q279 362 268 354 Q232 320 171 320 Q109 320 73 354 Q32 392 32 466 L32 564 Q32 637 73 676 Q108 709 171 709 Q233 709 268 676 Q309 638 309 564 L309 466 Z M253 370 Q287 401 287 466 L287 564 Q287 629 253 659 Q225 687 171 687 Q116 687 88 659 Q54 629 54 564 L54 466 Q54 401 88 370 Q118 342 171 342 Q223 342 253 370 Z " />
<glyph glyph-name="asterisk" unicode="&#x2a;" horiz-adv-x="376" d="M341 620 L215 539 L341 458 L319 428 L203 522 L165 378 L130 389 L184 529 L35 521 L35 558 L184 549 L130 689 L165 700 L203 556 L319 650 L341 620 Z " />
<glyph glyph-name="backslash" unicode="&#x5c;" horiz-adv-x="248" d="M220 0 L243 0 L28 700 L5 700 L220 0 Z " />
<glyph glyph-name="middot" unicode="&#xb7;" horiz-adv-x="132" d="M92 358 Q92 369 84.5 376.5 Q77 384 66 384 Q56 384 48 376.5 Q40 369 40 358 Q40 348 48 340 Q56 332 66 332 Q77 332 84.5 340 Q92 348 92 358 Z " />
<glyph glyph-name="bullet" unicode="&#x2022;" horiz-adv-x="190" d="M95 406 Q76 406 63 393 Q50 380 50 361 Q50 342 63 329 Q76 316 95 316 Q114 316 127 329 Q140 342 140 361 Q140 380 127 393 Q114 406 95 406 Z " />
<glyph glyph-name="colon" unicode="&#x3a;" horiz-adv-x="124" d="M89 24 Q89 35 81.5 42.5 Q74 50 63 50 Q53 50 45 42.5 Q37 35 37 24 Q37 14 45 6 Q53 -2 63 -2 Q74 -2 81.5 6 Q89 14 89 24 Z M89 416 Q89 427 81.5 434.5 Q74 442 63 442 Q53 442 45 434.5 Q37 427 37 416 Q37 406 45 398 Q53 390 63 390 Q74 390 81.5 398 Q89 406 89 416 Z " />
<glyph glyph-name="comma" unicode="&#x2c;" horiz-adv-x="122" d="M61 50 Q72 50 79.5 42.5 Q87 35 87 24 Q87 14 80 0 Q75 -10 65.5 -24 Q56 -38 53 -42 L38 -42 L49 -14 Q51 -10 51 -7 Q51 -2 47 2 Q35 11 35 24 Q35 35 43 42.5 Q51 50 61 50 Z " />
<glyph glyph-name="ellipsis" unicode="&#x2026;" horiz-adv-x="324" d="M88 24 Q88 35 80.5 42.5 Q73 50 62 50 Q52 50 44 42.5 Q36 35 36 24 Q36 14 44 6 Q52 -2 62 -2 Q73 -2 80.5 6 Q88 14 88 24 Z M188 24 Q188 35 180.5 42.5 Q173 50 162 50 Q152 50 144 42.5 Q136 35 136 24 Q136 14 144 6 Q152 -2 162 -2 Q173 -2 180.5 6 Q188 14 188 24 Z M288 24 Q288 35 280.5 42.5 Q273 50 262 50 Q252 50 244 42.5 Q236 35 236 24 Q236 14 244 6 Q252 -2 262 -2 Q273 -2 280.5 6 Q288 14 288 24 Z " />
<glyph glyph-name="exclam" unicode="&#x21;" horiz-adv-x="135" d="M95 27 Q95 38 86.5 46.5 Q78 55 67 55 Q56 55 48 46.5 Q40 38 40 27 Q40 16 48 8 Q56 0 67 0 Q78 0 86.5 8 Q95 16 95 27 Z M75 132 L78 349 L78 700 L56 700 L56 349 L60 132 L75 132 Z " />
<glyph glyph-name="exclamdown" unicode="&#xa1;" horiz-adv-x="135" d="M95 673 Q95 684 86.5 692 Q78 700 67 700 Q56 700 48 692 Q40 684 40 673 Q40 662 48 653.5 Q56 645 67 645 Q78 645 86.5 653.5 Q95 662 95 673 Z M75 568 L60 568 L56 351 L56 0 L78 0 L78 351 L75 568 Z " />
<glyph glyph-name="numbersign" unicode="&#x23;" horiz-adv-x="675" d="M635 466 L502 466 L430 231 L606 231 L606 209 L423 209 L358 0 L335 0 L400 209 L189 209 L124 0 L101 0 L166 209 L40 209 L40 231 L173 231 L245 466 L70 466 L70 488 L251 488 L317 700 L340 700 L275 488 L486 488 L551 700 L574 700 L509 488 L635 488 L635 466 Z M407 231 L479 466 L268 466 L196 231 L407 231 Z " />
<glyph glyph-name="period" unicode="&#x2e;" horiz-adv-x="120" d="M86 24 Q86 35 78.5 42.5 Q71 50 60 50 Q50 50 42 42.5 Q34 35 34 24 Q34 14 42 6 Q50 -2 60 -2 Q71 -2 78.5 6 Q86 14 86 24 Z " />
<glyph glyph-name="question" unicode="&#x3f;" horiz-adv-x="338" d="M125 17 Q125 25 120.5 29.5 Q116 34 108 34 Q101 34 96 29 Q91 24 91 17 Q91 10 96 5 Q101 0 108 0 Q115 0 120 5 Q125 10 125 17 Z M135 27 Q135 38 127 46.5 Q119 55 108 55 Q96 55 88 46.5 Q80 38 80 27 Q80 16 88 8 Q96 0 108 0 Q119 0 127 8 Q135 16 135 27 Z M98 135 L98 171 Q98 226 111.5 261.5 Q125 297 144 316.5 Q163 336 195 359 Q226 381 243.5 399 Q261 417 273.5 448 Q286 479 286 528 L286 563 Q286 627 252 659 Q221 687 169 687 Q117 687 86 659 Q52 627 52 563 L52 493 L30 493 L30 563 Q30 637 71 675 Q108 709 169 709 Q230 709 267 675 Q308 637 308 563 L308 528 Q308 474 295 439.5 Q282 405 263 386 Q244 367 212 344 Q181 321 163 303 Q145 285 132.5 253 Q120 221 120 171 L120 135 L98 135 Z " />
<glyph glyph-name="questiondown" unicode="&#xbf;" horiz-adv-x="339" d="M214 683 Q214 676 219 671 Q224 666 231 666 Q238 666 243 671 Q248 676 248 683 Q248 690 243 695 Q238 700 231 700 Q224 700 219 695 Q214 690 214 683 Z M204 673 Q204 662 212 653.5 Q220 645 231 645 Q243 645 251 653.5 Q259 662 259 673 Q259 684 251 692 Q243 700 231 700 Q220 700 212 692 Q204 684 204 673 Z M241 565 L241 529 Q241 473 227.5 438 Q214 403 194.5 383 Q175 363 143 341 Q112 319 94.5 301 Q77 283 64.5 252 Q52 221 52 172 L52 137 Q52 73 86 41 Q119 13 170 13 Q222 13 253 41 Q287 73 287 137 L287 207 L309 207 L309 137 Q309 63 268 25 Q231 -9 170 -9 Q110 -9 71 25 Q30 63 30 137 L30 172 Q30 226 43 260.5 Q56 295 75 314 Q94 333 126 356 Q158 379 176 397 Q194 415 206.5 447 Q219 479 219 529 L219 565 L241 565 Z " />
<glyph glyph-name="quotedbl" unicode="&#x22;" horiz-adv-x="145" d="M52 604 L57 700 L35 700 L40 604 L52 604 Z M105 604 L110 700 L88 700 L93 604 L105 604 Z " />
<glyph glyph-name="quotesingle" unicode="&#x27;" horiz-adv-x="92" d="M52 604 L57 700 L35 700 L40 604 L52 604 Z " />
<glyph glyph-name="semicolon" unicode="&#x3b;" horiz-adv-x="115" d="M61 50 Q72 50 79.5 42.5 Q87 35 87 24 Q87 14 80 0 Q75 -10 65.5 -24 Q56 -38 53 -42 L38 -42 L49 -14 Q51 -10 51 -7 Q51 -2 47 2 Q35 11 35 24 Q35 35 43 42.5 Q51 50 61 50 Z M87 416 Q87 427 79.5 434.5 Q72 442 61 442 Q51 442 43 434.5 Q35 427 35 416 Q35 406 43 398 Q51 390 61 390 Q72 390 79.5 398 Q87 406 87 416 Z " />
<glyph glyph-name="slash" unicode="&#x2f;" horiz-adv-x="248" d="M28 0 L243 700 L220 700 L5 0 L28 0 Z " />
<glyph glyph-name="underscore" unicode="&#x5f;" horiz-adv-x="354" d="M344 0 L344 22 L10 22 L10 0 L344 0 Z " />
<glyph glyph-name="braceleft" unicode="&#x7b;" horiz-adv-x="272" d="M242 13 Q188 13 159 40 Q125 71 125 136 L125 197 Q125 247 104 285 Q83 323 51 350 Q125 412 125 503 L125 563 Q125 629 159 659 Q187 687 242 687 L242 709 Q179 709 144 676 Q103 638 103 563 L103 503 Q103 416 26 359 L14 350 L26 341 Q103 284 103 197 L103 136 Q103 61 144 24 Q179 -9 242 -9 L242 13 Z " />
<glyph glyph-name="braceright" unicode="&#x7d;" horiz-adv-x="272" d="M30 -9 Q94 -9 128 24 Q169 61 169 136 L169 197 Q169 284 246 341 L258 350 L246 359 Q169 416 169 503 L169 563 Q169 638 128 676 Q93 709 30 709 L30 687 Q85 687 113 659 Q147 629 147 563 L147 503 Q147 412 221 350 Q189 323 168 285 Q147 247 147 197 L147 136 Q147 71 113 40 Q85 13 30 13 L30 -9 Z " />
<glyph glyph-name="bracketleft" unicode="&#x5b;" horiz-adv-x="209" d="M179 0 L179 22 L62 22 L62 678 L179 678 L179 700 L40 700 L40 0 L179 0 Z " />
<glyph glyph-name="bracketright" unicode="&#x5d;" horiz-adv-x="209" d="M30 0 L169 0 L169 700 L30 700 L30 678 L147 678 L147 22 L30 22 L30 0 Z " />
<glyph glyph-name="parenleft" unicode="&#x28;" horiz-adv-x="210" d="M180 13 Q127 13 97 40 Q63 71 63 136 L63 564 Q63 629 97 660 Q127 687 180 687 L180 709 Q118 709 82 676 Q41 637 41 564 L41 136 Q41 62 82 24 Q118 -9 180 -9 L180 13 Z " />
<glyph glyph-name="parenright" unicode="&#x29;" horiz-adv-x="210" d="M30 -9 Q92 -9 128 24 Q169 62 169 136 L169 564 Q169 637 128 676 Q92 709 30 709 L30 687 Q83 687 113 660 Q147 629 147 564 L147 136 Q147 71 113 40 Q83 13 30 13 L30 -9 Z " />
<glyph glyph-name="emdash" unicode="&#x2014;" horiz-adv-x="354" d="M344 348 L344 370 L10 370 L10 348 L344 348 Z " />
<glyph glyph-name="endash" unicode="&#x2013;" horiz-adv-x="354" d="M344 348 L344 370 L10 370 L10 348 L344 348 Z " />
<glyph glyph-name="figuredash" unicode="&#x2012;" horiz-adv-x="233" d="M223 348 L223 370 L10 370 L10 348 L223 348 Z " />
<glyph glyph-name="hyphen" unicode="&#x2d;" horiz-adv-x="169" d="M159 348 L159 370 L10 370 L10 348 L159 348 Z " />
<glyph glyph-name="guillemotleft" unicode="&#xab;" horiz-adv-x="295" d="M16 359 L164 626 L189 626 L41 359 L189 92 L164 92 L16 359 Z M106 359 L254 626 L279 626 L131 359 L279 92 L254 92 L106 359 Z " />
<glyph glyph-name="guillemotright" unicode="&#xbb;" horiz-adv-x="295" d="M279 359 L131 92 L106 92 L254 359 L106 626 L131 626 L279 359 Z M189 359 L41 92 L16 92 L164 359 L16 626 L41 626 L189 359 Z " />
<glyph glyph-name="guilsinglleft" unicode="&#x2039;" horiz-adv-x="205" d="M16 359 L164 626 L189 626 L41 359 L189 92 L164 92 L16 359 Z " />
<glyph glyph-name="guilsinglright" unicode="&#x203a;" horiz-adv-x="206" d="M190 359 L41 92 L16 92 L165 359 L16 626 L42 626 L190 359 Z " />
<glyph glyph-name="quotedblbase" unicode="&#x201e;" horiz-adv-x="175" d="M65 50 Q76 50 83.5 42.5 Q91 35 91 24 Q91 14 84 0 Q79 -10 69.5 -24 Q60 -38 57 -42 L42 -42 L53 -14 Q55 -10 55 -7 Q55 -2 51 2 Q39 11 39 24 Q39 35 47 42.5 Q55 50 65 50 Z M145 50 Q156 50 163.5 42.5 Q171 35 171 24 Q171 14 164 0 Q159 -10 149.5 -24 Q140 -38 137 -42 L122 -42 L133 -14 Q135 -10 135 -7 Q135 -2 131 2 Q119 11 119 24 Q119 35 127 42.5 Q135 50 145 50 Z " />
<glyph glyph-name="quotedblleft" unicode="&#x201c;" horiz-adv-x="202" d="M141 608 Q131 608 123 616 Q115 624 115 634 Q115 644 122 658 Q127 668 136.5 682 Q146 696 149 700 L164 700 L153 672 Q151 668 151 665 Q151 660 155 656 Q167 647 167 634 Q167 624 159.5 616 Q152 608 141 608 Z M61 608 Q51 608 43 616 Q35 624 35 634 Q35 644 42 658 Q47 668 56.5 682 Q66 696 69 700 L84 700 L73 672 Q71 668 71 665 Q71 660 75 656 Q87 647 87 634 Q87 624 79.5 616 Q72 608 61 608 Z " />
<glyph glyph-name="quotedblright" unicode="&#x201d;" horiz-adv-x="202" d="M61 702 Q72 702 79.5 694.5 Q87 687 87 676 Q87 666 80 652 Q75 642 65.5 628 Q56 614 53 610 L38 610 L49 638 Q51 642 51 645 Q51 650 47 654 Q35 663 35 676 Q35 687 43 694.5 Q51 702 61 702 Z M141 702 Q152 702 159.5 694.5 Q167 687 167 676 Q167 666 160 652 Q155 642 145.5 628 Q136 614 133 610 L118 610 L129 638 Q131 642 131 645 Q131 650 127 654 Q115 663 115 676 Q115 687 123 694.5 Q131 702 141 702 Z " />
<glyph glyph-name="quoteleft" unicode="&#x2018;" horiz-adv-x="122" d="M61 608 Q51 608 43 616 Q35 624 35 634 Q35 644 42 658 Q47 668 56.5 682 Q66 696 69 700 L84 700 L73 672 Q71 668 71 665 Q71 660 75 656 Q87 647 87 634 Q87 624 79.5 616 Q72 608 61 608 Z " />
<glyph glyph-name="quoteright" unicode="&#x2019;" horiz-adv-x="122" d="M61 702 Q72 702 79.5 694.5 Q87 687 87 676 Q87 666 80 652 Q75 642 65.5 628 Q56 614 53 610 L38 610 L49 638 Q51 642 51 645 Q51 650 47 654 Q35 663 35 676 Q35 687 43 694.5 Q51 702 61 702 Z " />
<glyph glyph-name="quotesinglbase" unicode="&#x201a;" horiz-adv-x="122" d="M61 50 Q72 50 79.5 42.5 Q87 35 87 24 Q87 14 80 0 Q75 -10 65.5 -24 Q56 -38 53 -42 L38 -42 L49 -14 Q51 -10 51 -7 Q51 -2 47 2 Q35 11 35 24 Q35 35 43 42.5 Q51 50 61 50 Z " />
<glyph glyph-name="uni00A0" unicode="&#xa0;" horiz-adv-x="600" d="" />
<glyph glyph-name="Euro" unicode="&#x20ac;" horiz-adv-x="426" d="M401 2 Q367 -13 328 -13 Q244 -13 193 49 Q135 121 135 256 L135 263 L28 263 L28 285 L135 285 L135 419 L28 419 L28 441 L135 441 Q135 576 193 648 Q244 711 328 711 Q363 711 391 700 L383 680 Q358 689 328 689 Q255 689 210 635 Q157 568 157 441 L364 441 L364 419 L157 419 L157 285 L364 285 L364 263 L157 263 L157 256 Q157 128 210 63 Q255 9 328 9 Q363 9 392 22 L401 2 Z " />
<glyph glyph-name="cent" unicode="&#xa2;" horiz-adv-x="355" d="M296 492 L296 553 Q296 618 262 649 Q232 677 180 677 Q127 677 97 649 Q63 618 63 553 L63 147 Q63 82 97 51 Q127 23 180 23 Q232 23 262 51 Q296 82 296 147 L296 239 L318 239 L318 147 Q318 73 277 35 Q245 4 191 1 L191 -28 L169 -28 L169 1 Q115 4 82 35 Q41 73 41 147 L41 553 Q41 627 82 665 Q115 696 169 699 L169 728 L191 728 L191 699 Q245 696 277 665 Q318 627 318 553 L318 492 L296 492 Z " />
<glyph glyph-name="currency" unicode="&#xa4;" horiz-adv-x="342" d="M310 301 Q310 227 269 189 L252 176 L282 99 L262 91 L232 166 Q204 155 171 155 Q138 155 110 166 L80 91 L60 99 L90 176 Q78 184 73 189 Q32 227 32 301 L32 399 Q32 473 73 511 Q78 516 90 524 L60 601 L80 609 L110 534 Q138 545 171 545 Q204 545 232 534 L262 609 L282 601 L252 524 L269 511 Q310 473 310 399 L310 301 Z M254 205 Q288 237 288 301 L288 399 Q288 463 254 495 Q223 523 171 523 Q119 523 88 495 Q54 463 54 399 L54 301 Q54 237 88 205 Q119 177 171 177 Q223 177 254 205 Z " />
<glyph glyph-name="dollar" unicode="&#x24;" horiz-adv-x="345" d="M289 493 L289 553 Q289 618 255 649 Q225 677 173 677 Q120 677 90 649 Q56 618 56 553 L56 543 Q56 473 100 427 Q116 410 134 399 Q152 388 178 376 Q205 363 224 350.5 Q243 338 261 319 Q311 266 311 186 L311 147 Q311 72 270 35 Q238 4 184 1 L184 -28 L162 -28 L162 1 Q108 4 75 35 Q34 73 34 147 L34 240 L56 240 L56 147 Q56 82 90 51 Q120 23 173 23 Q225 23 255 51 Q289 82 289 147 L289 186 Q289 259 245 304 Q229 321 210.5 333 Q192 345 167 356 Q138 371 120 382 Q102 393 84 411 Q34 464 34 543 L34 553 Q34 627 75 665 Q108 696 162 699 L162 728 L184 728 L184 699 Q238 696 270 665 Q311 628 311 553 L311 493 L289 493 Z " />
<glyph glyph-name="sterling" unicode="&#xa3;" horiz-adv-x="436" d="M403 22 L125 22 Q161 40 185.5 77.5 Q210 115 210 177 L210 202 L210 235 Q210 295 200 321 L339 321 L339 343 L184 343 Q165 361 156 401 Q147 439 147 502 L147 563 Q147 627 181 659 Q212 687 264 687 Q317 687 347 659 Q381 628 381 563 L381 542 L403 542 L403 563 Q403 637 362 675 Q325 709 264 709 Q203 709 166 675 Q125 637 125 563 L125 502 Q125 437 134 396 Q141 365 155 343 L55 343 L55 321 L175 321 Q183 310 185.5 288.5 Q188 267 188 234 L188 202 L188 177 Q188 79 115 42 Q99 33 82 28.5 Q65 24 54 23 Q43 22 40 22 L31 22 L31 0 L403 0 L403 22 Z " />
<glyph glyph-name="uni20B9" unicode="&#x20b9;" horiz-adv-x="370" d="M304 0 L276 0 L26 342 L165 342 Q219 342 248 370 Q282 401 282 466 L282 480 L26 480 L26 502 L282 502 L282 553 Q282 618 248 650 Q217 678 165 678 L26 678 L26 700 L165 700 L350 700 L350 678 L247 678 L263 666 Q304 627 304 553 L304 502 L350 502 L350 480 L304 480 L304 466 Q304 392 263 353 Q227 320 165 320 L70 320 L304 0 Z " />
<glyph glyph-name="yen" unicode="&#xa5;" horiz-adv-x="348" d="M341 226 L185 226 L185 178 L341 178 L341 156 L185 156 L185 0 L163 0 L163 156 L7 156 L7 178 L163 178 L163 226 L7 226 L7 248 L159 248 L10 700 L33 700 L174 274 L315 700 L338 700 L189 248 L341 248 L341 226 Z " />
<glyph glyph-name="plus" unicode="&#x2b;" horiz-adv-x="438" d="M403 348 L403 370 L35 370 L35 348 L403 348 Z M230 175 L230 543 L208 543 L208 175 L230 175 Z " />
<glyph glyph-name="minus" unicode="&#x2212;" horiz-adv-x="404" d="M369 348 L369 370 L35 370 L35 348 L369 348 Z " />
<glyph glyph-name="multiply" unicode="&#xd7;" horiz-adv-x="346" d="M296 221 L311 236 L51 497 L35 481 L296 221 Z M51 221 L311 481 L296 497 L35 236 L51 221 Z " />
<glyph glyph-name="divide" unicode="&#xf7;" horiz-adv-x="404" d="M369 348 L369 370 L35 370 L35 348 L369 348 Z M369 348 L369 370 L35 370 L35 348 L369 348 Z M229 470 Q229 481 221 489.5 Q213 498 202 498 Q191 498 183 489.5 Q175 481 175 470 Q175 459 183 451 Q191 443 202 443 Q213 443 221 451 Q229 459 229 470 Z M229 247 Q229 258 221 266.5 Q213 275 202 275 Q191 275 183 266.5 Q175 258 175 247 Q175 236 183 228 Q191 220 202 220 Q213 220 221 228 Q229 236 229 247 Z " />
<glyph glyph-name="equal" unicode="&#x3d;" horiz-adv-x="438" d="M403 443 L403 465 L35 465 L35 443 L403 443 Z M403 252 L403 274 L35 274 L35 252 L403 252 Z " />
<glyph glyph-name="greater" unicode="&#x3e;" horiz-adv-x="396" d="M337 359 L40 492 L40 516 L366 370 L366 348 L40 203 L40 227 L337 359 Z " />
<glyph glyph-name="less" unicode="&#x3c;" horiz-adv-x="396" d="M59 359 L356 227 L356 203 L30 348 L30 370 L356 516 L356 492 L59 359 Z " />
<glyph glyph-name="percent" unicode="&#x25;" horiz-adv-x="543" d="M427 10 Q461 10 485 37.5 Q509 65 509 104 L509 114 Q509 153 485 181 Q461 209 427 209 Q393 209 368.5 181 Q344 153 344 114 L344 104 Q344 65 368.5 37.5 Q393 10 427 10 Z M427 187 Q452 187 469.5 165.5 Q487 144 487 114 L487 104 Q487 74 469.5 53 Q452 32 427 32 Q402 32 384 53 Q366 74 366 104 L366 114 Q366 144 384 165.5 Q402 187 427 187 Z M117 493 Q151 493 175 520.5 Q199 548 199 588 L199 597 Q199 636 175 664 Q151 692 117 692 Q83 692 58.5 664 Q34 636 34 597 L34 588 Q34 548 58 520.5 Q82 493 117 493 Z M117 670 Q142 670 159.5 648.5 Q177 627 177 597 L177 588 Q177 557 159.5 536 Q142 515 117 515 Q91 515 73.5 536 Q56 557 56 588 L56 597 Q56 627 74 648.5 Q92 670 117 670 Z M368 700 L391 700 L176 0 L153 0 L368 700 Z " />
<glyph glyph-name="perthousand" unicode="&#x2030;" horiz-adv-x="738" d="M427 10 Q461 10 485 37.5 Q509 65 509 104 L509 114 Q509 153 485 181 Q461 209 427 209 Q393 209 368.5 181 Q344 153 344 114 L344 104 Q344 65 368.5 37.5 Q393 10 427 10 Z M427 187 Q452 187 469.5 165.5 Q487 144 487 114 L487 104 Q487 74 469.5 53 Q452 32 427 32 Q402 32 384 53 Q366 74 366 104 L366 114 Q366 144 384 165.5 Q402 187 427 187 Z M117 493 Q151 493 175 520.5 Q199 548 199 588 L199 597 Q199 636 175 664 Q151 692 117 692 Q83 692 58.5 664 Q34 636 34 597 L34 588 Q34 548 58 520.5 Q82 493 117 493 Z M117 670 Q142 670 159.5 648.5 Q177 627 177 597 L177 588 Q177 557 159.5 536 Q142 515 117 515 Q91 515 73.5 536 Q56 557 56 588 L56 597 Q56 627 74 648.5 Q92 670 117 670 Z M368 700 L391 700 L176 0 L153 0 L368 700 Z M622 10 Q656 10 680 37.5 Q704 65 704 104 L704 114 Q704 153 680 181 Q656 209 622 209 Q588 209 563.5 181 Q539 153 539 114 L539 104 Q539 65 563.5 37.5 Q588 10 622 10 Z M622 187 Q647 187 664.5 165.5 Q682 144 682 114 L682 104 Q682 74 664.5 53 Q647 32 622 32 Q597 32 579 53 Q561 74 561 104 L561 114 Q561 144 579 165.5 Q597 187 622 187 Z " />
<glyph glyph-name="at" unicode="&#x40;" horiz-adv-x="588" d="M463 66 Q487 88 506 120 L533 126 Q513 80 477 50 Q443 19 396.5 3.5 Q350 -12 294 -12 Q181 -12 111 50 Q72 83 52 134 Q30 187 30 258 L30 442 Q30 515 52 566 Q71 616 111 651 Q182 713 294 713 Q349 713 396 697 Q443 681 477 651 Q517 616 536 566 Q558 515 558 442 L558 336 Q558 263 532 225 Q506 190 466 190 Q424 190 400 225 Q391 236 384 256 Q376 240 365 229 Q339 203 294 203 Q249 203 223 229 Q193 259 193 314 L193 385 Q193 441 223 471 Q250 496 294 496 Q338 496 365 471 L373 462 L373 488 L395 488 L395 335 Q395 277 413.5 244.5 Q432 212 466 212 Q499 212 517.5 244.5 Q536 277 536 336 L536 442 Q536 570 463 634 Q398 691 294 691 Q190 691 125 634 Q52 569 52 442 L52 258 Q52 131 125 66 Q189 10 294 10 Q399 10 463 66 Z M373 385 Q373 435 350 454.5 Q327 474 294 474 Q261 474 238 454.5 Q215 435 215 385 L215 314 Q215 265 238 245 Q261 225 294 225 Q327 225 350 245 Q373 265 373 314 L373 385 Z " />
<glyph glyph-name="ampersand" unicode="&#x26;" horiz-adv-x="593" d="M563 2 Q508 22 422 103 Q452 145 486 197.5 Q520 250 531 269 L512 280 Q510 277 476.5 224 Q443 171 406 118 Q348 176 296 241 Q248 299 210 361 Q221 367 233 370 L252 378 Q301 401 335 435 Q386 489 386 566 L386 585 Q386 657 329 688 Q310 699 288 704.5 Q266 710 248 710 Q229 710 207 704.5 Q185 699 166 688 Q138 672 123.5 645.5 Q109 619 109 585 L109 561 Q109 500 159 405 Q175 376 178 371 Q135 348 112 330 Q40 273 40 189 Q40 96 101 41 Q129 17 167 4 Q205 -9 248 -9 Q287 -9 320 7 Q355 24 385 55 L409 85 L424 71 Q501 1 556 -19 L563 2 Z M189 352 Q228 291 278 227 Q334 158 393 100 L369 70 Q315 13 248 13 Q208 13 174 24.5 Q140 36 116 58 Q62 105 62 189 Q62 292 189 352 Z M248 688 Q260 688 279.5 684 Q299 680 318 669 Q364 644 364 585 L364 566 Q364 498 319 450 Q290 421 243 398 L225 391 L198 380 L178 415 Q131 504 131 561 L131 585 Q131 644 177 669 Q197 681 216.5 684.5 Q236 688 248 688 Z " />
<glyph glyph-name="paragraph" unicode="&#xb6;" horiz-adv-x="332" d="M292 700 L292 0 L270 0 L270 678 L248 678 L248 0 L226 0 L226 319 L153 319 Q91 319 55 352 Q14 390 14 464 L14 553 Q14 627 55 666 Q92 700 153 700 L292 700 Z " />
<glyph glyph-name="section" unicode="&#xa7;" horiz-adv-x="348" d="M290 543 L290 584 Q290 633 258 660 Q226 687 174 687 Q123 687 90 660.5 Q57 634 57 584 Q57 539 85.5 507.5 Q114 476 179 455 Q250 432 281 399 Q312 366 312 314 Q312 260 278.5 227 Q245 194 191 189 Q254 166 283 130.5 Q312 95 312 44 Q312 -14 273.5 -48 Q235 -82 174 -82 Q115 -82 75 -48.5 Q35 -15 35 44 L35 79 L57 79 L57 44 Q57 -4 90 -32 Q123 -60 174 -60 Q224 -60 257 -33 Q290 -6 290 44 Q290 90 262 121 Q234 152 168 174 Q96 198 65.5 230 Q35 262 35 314 Q35 369 70 402 Q105 435 161 439 Q94 462 64.5 497 Q35 532 35 584 Q35 642 74 675.5 Q113 709 174 709 Q234 709 273 676 Q312 643 312 584 L312 543 L290 543 Z M174 210 Q224 210 257 237 Q290 264 290 314 Q290 363 258 390 Q226 417 174 417 Q123 417 90 390.5 Q57 364 57 314 Q57 266 90 238 Q123 210 174 210 Z " />
<glyph glyph-name="copyright" unicode="&#xa9;" horiz-adv-x="728" d="M462 548 Q503 510 503 436 L503 416 L481 416 L481 436 Q481 501 447 532 Q417 560 364 560 Q312 560 282 532 Q248 501 248 436 L248 262 Q248 197 282 166 Q312 138 364 138 Q417 138 447 166 Q481 197 481 262 L481 282 L503 282 L503 262 Q503 188 462 150 Q426 116 364 116 Q303 116 267 150 Q226 187 226 262 L226 436 Q226 511 267 548 Q303 582 364 582 Q426 582 462 548 Z M364 708 Q461 708 539.5 661.5 Q618 615 663 533 Q708 451 708 349 Q708 247 663 165 Q618 83 539.5 37 Q461 -9 364 -9 Q267 -9 188.5 37 Q110 83 65 165 Q20 247 20 349 Q20 451 65 533 Q110 615 188.5 661.5 Q267 708 364 708 Z M364 15 Q454 15 527.5 58 Q601 101 642.5 177.5 Q684 254 684 349 Q684 445 642.5 521 Q601 597 527.5 640.5 Q454 684 364 684 Q274 684 200.5 640.5 Q127 597 85.5 521 Q44 445 44 349 Q44 254 85.5 177.5 Q127 101 200.5 58 Q274 15 364 15 Z " />
<glyph glyph-name="registered" unicode="&#xae;" horiz-adv-x="728" d="M364 708 Q461 708 539.5 661.5 Q618 615 663 533 Q708 451 708 349 Q708 247 663 165 Q618 83 539.5 37 Q461 -9 364 -9 Q267 -9 188.5 37 Q110 83 65 165 Q20 247 20 349 Q20 451 65 533 Q110 615 188.5 661.5 Q267 708 364 708 Z M364 15 Q454 15 527.5 58 Q601 101 642.5 177.5 Q684 254 684 349 Q684 445 642.5 521 Q601 597 527.5 640.5 Q454 684 364 684 Q274 684 200.5 640.5 Q127 597 85.5 521 Q44 445 44 349 Q44 254 85.5 177.5 Q127 101 200.5 58 Q274 15 364 15 Z M524 149 L499 149 L389 319 L382 319 L265 319 L265 149 L243 149 L243 553 L382 553 Q427 553 459 536 Q491 519 508 491.5 Q525 464 525 433 Q525 393 496.5 361.5 Q468 330 415 322 L524 149 Z M382 341 Q439 341 469.5 367.5 Q500 394 500 432 Q500 472 468.5 501.5 Q437 531 382 531 L265 531 L265 341 L382 341 Z " />
<glyph glyph-name="uni2117" unicode="&#x2117;" horiz-adv-x="728" d="M364 708 Q461 708 539.5 661.5 Q618 615 663 533 Q708 451 708 349 Q708 247 663 165 Q618 83 539.5 37 Q461 -9 364 -9 Q267 -9 188.5 37 Q110 83 65 165 Q20 247 20 349 Q20 451 65 533 Q110 615 188.5 661.5 Q267 708 364 708 Z M364 15 Q454 15 527.5 58 Q601 101 642.5 177.5 Q684 254 684 349 Q684 445 642.5 521 Q601 597 527.5 640.5 Q454 684 364 684 Q274 684 200.5 640.5 Q127 597 85.5 521 Q44 445 44 349 Q44 254 85.5 177.5 Q127 101 200.5 58 Q274 15 364 15 Z M265 301 L381 301 Q431 301 466.5 319 Q502 337 520 365.5 Q538 394 538 427 Q538 460 520 488.5 Q502 517 466.5 535 Q431 553 381 553 L243 553 L243 149 L265 149 L265 301 Z M265 531 L381 531 Q445 531 480.5 500 Q516 469 516 427 Q516 385 480.5 354 Q445 323 381 323 L265 323 L265 531 Z " />
<glyph glyph-name="trademark" unicode="&#x2122;" horiz-adv-x="437" d="M30 681 L30 700 L157 700 L157 681 L103 681 L103 377 L84 377 L84 681 L30 681 Z M304 462 L388 700 L401 700 L401 377 L382 377 L382 627 L311 424 L298 424 L226 627 L226 377 L207 377 L207 700 L220 700 L304 462 Z " />
<glyph glyph-name="degree" unicode="&#xb0;" horiz-adv-x="186" d="M93 594 Q115 594 130.5 609.5 Q146 625 146 647 Q146 669 130.5 684.5 Q115 700 93 700 Q71 700 55.5 684.5 Q40 669 40 647 Q40 625 55.5 609.5 Q71 594 93 594 Z M93 678 Q106 678 115 669 Q124 660 124 647 Q124 634 115 625 Q106 616 93 616 Q80 616 71 625 Q62 634 62 647 Q62 660 71 669 Q80 678 93 678 Z " />
<glyph glyph-name="bar" unicode="&#x7c;" horiz-adv-x="422" d="M222 -60 L222 760 L200 760 L200 -60 L222 -60 Z " />
<glyph glyph-name="brokenbar" unicode="&#xa6;" horiz-adv-x="422" d="M200 -60 L200 274 L222 274 L222 -60 L200 -60 Z M222 760 L222 444 L200 444 L200 760 L222 760 Z " />
<glyph glyph-name="dagger" unicode="&#x2020;" horiz-adv-x="600" d="M403 505 L403 527 L35 527 L35 505 L403 505 Z M230 252 L230 700 L208 700 L208 252 L230 252 Z " />
<glyph glyph-name="asciicircum" unicode="&#x5e;" horiz-adv-x="353" d="M176 671 L44 374 L20 374 L165 700 L187 700 L333 374 L309 374 L176 671 Z " />
<glyph glyph-name="uni0308" unicode="&#x308;" d="M-144 763 Q-144 774 -151.5 781.5 Q-159 789 -170 789 Q-181 789 -188.5 781.5 Q-196 774 -196 763 Q-196 753 -188.5 745 Q-181 737 -170 737 Q-159 737 -151.5 744.5 Q-144 752 -144 763 Z M-10 763 Q-10 774 -17.5 781.5 Q-25 789 -36 789 Q-47 789 -54.5 781.5 Q-62 774 -62 763 Q-62 753 -54.5 745 Q-47 737 -36 737 Q-25 737 -17.5 744.5 Q-10 752 -10 763 Z " />
<glyph glyph-name="uni0307" unicode="&#x307;" d="M-10 763 Q-10 774 -17.5 781.5 Q-25 789 -36 789 Q-47 789 -54.5 781.5 Q-62 774 -62 763 Q-62 753 -54.5 745 Q-47 737 -36 737 Q-25 737 -17.5 744.5 Q-10 752 -10 763 Z " />
<glyph glyph-name="gravecomb" unicode="&#x300;" d="M-104 835 L-73 835 L-10 737 L-30 737 L-104 835 Z " />
<glyph glyph-name="acutecomb" unicode="&#x301;" d="M-10 835 L-84 737 L-104 737 L-41 835 L-10 835 Z " />
<glyph glyph-name="uni030B" unicode="&#x30b;" d="M-10 835 L-84 737 L-104 737 L-41 835 L-10 835 Z M-101 835 L-175 737 L-195 737 L-132 835 L-101 835 Z " />
<glyph glyph-name="uni0302" unicode="&#x302;" d="M-104 835 L-77 835 L-10 737 L-30 737 L-91 814 L-152 737 L-172 737 L-104 835 Z " />
<glyph glyph-name="uni030C" unicode="&#x30c;" d="M-104 737 L-172 835 L-152 835 L-91 758 L-30 835 L-10 835 L-77 737 L-104 737 Z " />
<glyph glyph-name="uni0306" unicode="&#x306;" d="M-10 828 Q-10 791 -37 764 Q-64 737 -101 737 Q-139 737 -165.5 764 Q-192 791 -192 828 L-170 828 Q-170 800 -150 779.5 Q-130 759 -101 759 Q-73 759 -52.5 779.5 Q-32 800 -32 828 L-10 828 Z " />
<glyph glyph-name="uni030A" unicode="&#x30a;" d="M-63 737 Q-41 737 -25.5 752.5 Q-10 768 -10 790 Q-10 812 -25.5 827.5 Q-41 843 -63 843 Q-85 843 -100.5 827.5 Q-116 812 -116 790 Q-116 768 -100.5 752.5 Q-85 737 -63 737 Z M-63 821 Q-50 821 -41 812 Q-32 803 -32 790 Q-32 777 -41 768 Q-50 759 -63 759 Q-76 759 -85 768 Q-94 777 -94 790 Q-94 803 -85 812 Q-76 821 -63 821 Z " />
<glyph glyph-name="tildecomb" unicode="&#x303;" d="M-234 738 Q-206 772 -179 772 Q-160 772 -134 756 Q-104 738 -81 738 Q-73 738 -70 739 Q-39 743 -10 780 L-27 793 Q-54 760 -81 760 Q-99 760 -122 774 Q-157 794 -179 794 L-189 793 Q-220 789 -251 752 L-234 738 Z " />
<glyph glyph-name="uni0304" unicode="&#x304;" d="M-10 737 L-10 759 L-344 759 L-344 737 L-10 737 Z " />
<glyph glyph-name="hookabovecomb" unicode="&#x309;" d="M-30 737 Q-30 765 -50.5 785.5 Q-71 806 -100 806 L-119 825 Q-110 828 -100 828 Q-63 828 -36.5 801.5 Q-10 775 -10 737 L-30 737 Z " />
<glyph glyph-name="uni0312" unicode="&#x312;" d="M-62 763 Q-62 773 -55 787 Q-53 791 -38 815 L-18 815 L-24 801 Q-26 797 -26 794 Q-26 789 -22 785 Q-10 776 -10 763 Q-10 753 -18 745 Q-26 737 -36 737 Q-47 737 -54.5 745 Q-62 753 -62 763 Z " />
<glyph glyph-name="uni031B" unicode="&#x31b;" d="M-32 700 L-32 658 Q-32 645 -41 636 Q-50 627 -63 627 L-63 605 Q-41 605 -25.5 620.5 Q-10 636 -10 658 L-10 700 L-32 700 Z " />
<glyph glyph-name="dotbelowcomb" unicode="&#x323;" d="M-10 -66 Q-10 -55 -17.5 -47.5 Q-25 -40 -36 -40 Q-47 -40 -54.5 -47.5 Q-62 -55 -62 -66 Q-62 -77 -54.5 -84.5 Q-47 -92 -36 -92 Q-25 -92 -17.5 -84.5 Q-10 -77 -10 -66 Z " />
<glyph glyph-name="uni0326" unicode="&#x326;" d="M-10 -66 Q-10 -76 -17 -90 Q-19 -94 -34 -118 L-54 -118 L-48 -104 Q-46 -100 -46 -97 Q-46 -92 -50 -88 Q-62 -79 -62 -66 Q-62 -56 -54.5 -48 Q-47 -40 -36 -40 Q-26 -40 -18 -48 Q-10 -56 -10 -66 Z " />
<glyph glyph-name="uni0327" unicode="&#x327;" d="M-52 -2 Q-52 -11 -49.5 -16.5 Q-47 -22 -39 -28 Q-26 -39 -18 -49 Q-10 -59 -10 -76 Q-10 -98 -25.5 -113.5 Q-41 -129 -63 -129 Q-85 -129 -100.5 -113.5 Q-116 -98 -116 -76 L-94 -76 Q-94 -89 -85 -98 Q-76 -107 -63 -107 Q-50 -107 -41 -98 Q-32 -89 -32 -76 Q-32 -65 -37 -58.5 Q-42 -52 -52 -45 Q-63 -37 -68.5 -29.5 Q-74 -22 -74 -9 L-74 0 L-52 0 L-52 -2 Z " />
<glyph glyph-name="uni0328" unicode="&#x328;" d="M-17 -104 L-36 -104 Q-64 -104 -83 -97 Q-102 -90 -102 -69 Q-102 -33 -34 0 L-10 0 Q-42 -18 -55.5 -32 Q-69 -46 -69 -60 Q-69 -81 -26 -81 L-17 -81 L-17 -104 Z " />
<glyph glyph-name="uni0331" unicode="&#x331;" d="M-10 -62 L-10 -40 L-344 -40 L-344 -62 L-10 -62 Z " />
<glyph glyph-name="uni0335" unicode="&#x335;" d="M-10 348 L-10 370 L-344 370 L-344 348 L-10 348 Z " />
<glyph glyph-name="uni0336" unicode="&#x336;" d="M-10 348 L-10 370 L-344 370 L-344 348 L-10 348 Z " />
<glyph glyph-name="acute" unicode="&#xb4;" horiz-adv-x="114" d="M104 835 L30 737 L10 737 L73 835 L104 835 Z " />
<glyph glyph-name="breve" unicode="&#x2d8;" horiz-adv-x="202" d="M192 828 Q192 791 165.5 764 Q139 737 101 737 Q64 737 37 764 Q10 791 10 828 L32 828 Q32 800 52.5 779.5 Q73 759 101 759 Q130 759 150 779.5 Q170 800 170 828 L192 828 Z " />
<glyph glyph-name="caron" unicode="&#x2c7;" horiz-adv-x="182" d="M78 737 L10 835 L30 835 L91 758 L152 835 L172 835 L105 737 L78 737 Z " />
<glyph glyph-name="cedilla" unicode="&#xb8;" horiz-adv-x="126" d="M63 -128 Q85 -128 100.5 -112.5 Q116 -97 116 -75 Q116 -57 108 -46 Q100 -35 87 -27 Q87 -27 85 -25 Q74 -17 74 -4 L74 0 L52 0 L52 -4 Q52 -28 72 -43 L74 -44 Q84 -51 89 -57.5 Q94 -64 94 -75 Q94 -88 85 -97 Q76 -106 63 -106 Q50 -106 41 -97 Q32 -88 32 -75 L10 -75 Q10 -97 25.5 -112.5 Q41 -128 63 -128 Z " />
<glyph glyph-name="circumflex" unicode="&#x2c6;" horiz-adv-x="182" d="M78 835 L105 835 L172 737 L152 737 L91 814 L30 737 L10 737 L78 835 Z " />
<glyph glyph-name="dieresis" unicode="&#xa8;" horiz-adv-x="206" d="M62 763 Q62 774 54.5 781.5 Q47 789 36 789 Q25 789 17.5 781.5 Q10 774 10 763 Q10 753 18 745 Q26 737 36 737 Q47 737 54.5 744.5 Q62 752 62 763 Z M196 763 Q196 774 188.5 781.5 Q181 789 170 789 Q159 789 151.5 781.5 Q144 774 144 763 Q144 753 152 745 Q160 737 170 737 Q181 737 188.5 744.5 Q196 752 196 763 Z " />
<glyph glyph-name="dotaccent" unicode="&#x2d9;" horiz-adv-x="72" d="M62 763 Q62 774 54.5 781.5 Q47 789 36 789 Q25 789 17.5 781.5 Q10 774 10 763 Q10 753 18 745 Q26 737 36 737 Q47 737 54.5 744.5 Q62 752 62 763 Z " />
<glyph glyph-name="grave" unicode="&#x60;" horiz-adv-x="114" d="M10 835 L41 835 L104 737 L84 737 L10 835 Z " />
<glyph glyph-name="hungarumlaut" unicode="&#x2dd;" horiz-adv-x="205" d="M195 835 L121 737 L101 737 L164 835 L195 835 Z M104 835 L30 737 L10 737 L73 835 L104 835 Z " />
<glyph glyph-name="overscore" unicode="&#xaf;" horiz-adv-x="354" d="M344 737 L344 759 L10 759 L10 737 L344 737 Z " />
<glyph glyph-name="ring" unicode="&#x2da;" horiz-adv-x="126" d="M63 737 Q85 737 100.5 752.5 Q116 768 116 790 Q116 812 100.5 827.5 Q85 843 63 843 Q41 843 25.5 827.5 Q10 812 10 790 Q10 768 25.5 752.5 Q41 737 63 737 Z M63 821 Q76 821 85 812 Q94 803 94 790 Q94 777 85 768 Q76 759 63 759 Q50 759 41 768 Q32 777 32 790 Q32 803 41 812 Q50 821 63 821 Z " />
<glyph glyph-name="tilde" unicode="&#x2dc;" horiz-adv-x="261" d="M27 738 Q55 772 82 772 Q101 772 127 756 Q157 738 180 738 Q188 738 191 739 Q222 743 251 780 L234 793 Q207 760 180 760 Q162 760 139 774 Q104 794 82 794 L72 793 Q41 789 10 752 L27 738 Z " />
</font>
</svg>
