<?xml version="1.0" encoding="UTF-8"?>
<svg xmlns="http://www.w3.org/2000/svg" xmlns:xlink="http://www.w3.org/1999/xlink" version="1.2" >
<font id="Futura SC Light">
<font-face  font-family="Futura SC" units-per-em="1000" ascent="665" descent="-335" font-style="normal" font-weight="300" font-stretch="normal" cap-height="665" x-height="437" underline-position="-76" underline-thickness="41" />
<missing-glyph  horiz-adv-x="250" d="" />
<glyph glyph-name="NULL" d="" />
<glyph glyph-name="CR" unicode="&#xd;" horiz-adv-x="250" d="" />
<glyph glyph-name="space" unicode="&#x20;" horiz-adv-x="250" d="" />
<glyph glyph-name="exclam" unicode="&#x21;" horiz-adv-x="259" d="M130 66 C110 66 93 50 93 30 C93 9 109 -7 130 -7 C150 -7 166 9 166 30 C166 50 150 66 130 66 L130 66 Z M108 120 L151 120 L151 443 L108 443 L108 120 Z " />
<glyph glyph-name="quotedbl" unicode="&#x22;" horiz-adv-x="360" d="M112 438 L143 438 L151 667 L105 667 L112 438 Z M216 438 L247 438 L254 667 L209 667 L216 438 Z " />
<glyph glyph-name="numbersign" unicode="&#x23;" horiz-adv-x="600" d="M555 460 L440 460 L465 664 L422 670 L396 460 L236 460 L261 664 L218 670 L193 460 L70 460 L70 420 L188 420 L168 260 L45 260 L45 220 L163 220 L136 3 L178 -3 L206 220 L368 220 L341 3 L383 -3 L411 220 L530 220 L530 260 L416 260 L436 420 L555 420 L555 460 Z M391 420 L372 260 L211 260 L231 420 L391 420 Z " />
<glyph glyph-name="dollar" unicode="&#x24;" horiz-adv-x="547" d="M307 765 L268 765 L268 672 C175 665 112 599 112 509 C112 457 130 422 176 388 C195 375 207 368 252 346 C257 343 262 341 268 338 L268 32 C196 32 143 72 110 151 L73 134 C108 43 175 -6 268 -8 L268 -107 L307 -107 L307 -5 C404 13 475 93 475 186 C475 237 455 277 412 308 C391 324 370 336 307 366 L307 630 C348 624 382 598 410 552 L442 578 C416 628 364 663 307 671 L307 765 Z M307 319 C401 275 431 242 431 185 C431 115 379 53 307 36 L307 319 Z M268 384 C179 429 156 454 156 507 C156 574 204 627 268 632 L268 384 Z " />
<glyph glyph-name="percent" unicode="&#x25;" horiz-adv-x="605" d="M167 673 C92 673 33 616 33 544 C33 468 90 411 166 411 C244 411 302 467 302 542 C302 616 244 673 167 673 L167 673 Z M167 637 C220 637 262 595 262 543 C262 490 220 448 168 448 C115 448 73 490 73 544 C73 595 116 637 167 637 L167 637 Z M484 682 L89 1 L117 -15 L513 667 L484 682 Z M436 256 C362 256 302 199 302 127 C302 51 359 -6 435 -6 C513 -6 571 50 571 125 C571 199 513 256 436 256 L436 256 Z M436 219 C489 219 531 177 531 125 C531 72 489 30 436 30 C383 30 341 72 341 126 C341 177 384 219 436 219 L436 219 Z " />
<glyph glyph-name="ampersand" unicode="&#x26;" horiz-adv-x="453" d="M246 255 C304 296 323 322 323 362 C323 410 287 447 239 447 C189 447 149 408 149 360 C149 339 157 316 171 294 C187 270 187 270 189 266 C82 202 50 164 50 102 C50 40 106 -10 174 -10 C222 -10 269 11 336 64 L384 0 L435 0 L367 91 C387 111 397 123 428 163 L392 180 C373 155 366 147 344 124 L246 255 Z M211 236 L313 96 C258 50 211 27 174 27 C126 27 90 61 90 106 C90 143 116 178 171 211 C182 218 194 225 206 232 L211 236 Z M223 286 C216 297 211 306 207 311 C193 333 189 344 189 358 C189 388 210 410 239 410 C265 410 283 391 283 364 C283 337 273 324 223 286 L223 286 Z " />
<glyph glyph-name="quotesingle" unicode="&#x27;" horiz-adv-x="245" d="M104 438 L135 438 L143 667 L97 667 L104 438 Z " />
<glyph glyph-name="parenleft" unicode="&#x28;" horiz-adv-x="269" d="M157 743 C116 643 87 451 87 285 C87 118 116 -74 157 -174 L190 -151 C149 -9 128 140 128 285 C128 430 149 578 190 720 L157 743 Z " />
<glyph glyph-name="parenright" unicode="&#x29;" horiz-adv-x="269" d="M113 -174 C154 -73 183 117 183 285 C183 452 154 643 113 743 L80 720 C121 577 142 429 142 285 C142 140 121 -8 80 -151 L113 -174 Z " />
<glyph glyph-name="asterisk" unicode="&#x2a;" horiz-adv-x="547" d="M255 596 L129 640 L116 599 L244 561 L163 455 L198 430 L273 540 L349 430 L384 455 L303 561 L431 599 L417 640 L292 596 L295 729 L252 729 L255 596 Z " />
<glyph glyph-name="plus" unicode="&#x2b;" horiz-adv-x="547" d="M31 320 L253 320 L253 101 L293 101 L293 320 L515 320 L515 360 L293 360 L293 579 L253 579 L253 360 L31 360 L31 320 Z " />
<glyph glyph-name="comma" unicode="&#x2c;" horiz-adv-x="203" d="M98 65 L38 -137 L64 -147 L138 53 L98 65 Z " />
<glyph glyph-name="hyphen" unicode="&#x2d;" horiz-adv-x="168" d="M0 227 L0 187 L168 187 L168 227 L0 227 Z " />
<glyph glyph-name="period" unicode="&#x2e;" horiz-adv-x="203" d="M102 66 C82 66 65 50 65 30 C65 9 81 -7 102 -7 C122 -7 138 9 138 30 C138 50 122 66 102 66 L102 66 Z " />
<glyph glyph-name="slash" unicode="&#x2f;" horiz-adv-x="544" d="M514 743 L7 -158 L39 -174 L545 727 L514 743 Z " />
<glyph glyph-name="zero" unicode="0" horiz-adv-x="580" d="M292 517 C159 517 48 398 48 255 C48 109 156 -10 290 -10 C424 -10 532 109 532 256 C532 401 425 517 292 517 L292 517 Z M290 480 C402 480 492 379 492 253 C492 129 401 27 291 27 C176 27 88 125 88 254 C88 379 178 480 290 480 L290 480 Z " />
<glyph glyph-name="one" unicode="1" horiz-adv-x="380" d="M195 470 L195 0 L235 0 L235 507 L107 507 L87 470 L195 470 Z " />
<glyph glyph-name="two" unicode="2" horiz-adv-x="553" d="M177 37 L364 185 C440 245 465 284 465 344 C465 439 382 516 279 516 C210 516 148 482 117 425 C100 396 94 369 92 324 L132 324 C136 421 190 479 277 479 C359 479 425 420 425 347 C425 295 400 262 307 188 L68 0 L475 0 L475 37 L177 37 Z " />
<glyph glyph-name="three" unicode="3" horiz-adv-x="560" d="M262 167 C299 165 318 160 341 149 C388 126 416 79 416 24 C416 -61 345 -133 261 -133 C215 -133 163 -106 140 -70 C127 -50 122 -32 118 4 L76 4 C77 -33 83 -56 98 -83 C129 -136 192 -170 260 -170 C370 -170 456 -85 456 25 C456 101 417 160 346 189 C412 222 446 275 446 343 C446 441 369 517 270 517 C207 517 152 487 126 439 C112 413 106 391 101 349 L142 349 C147 388 152 406 165 426 C186 459 227 480 274 480 C349 480 406 421 406 344 C406 298 384 257 346 232 C321 215 301 209 262 206 L262 167 Z " />
<glyph glyph-name="four" unicode="4" horiz-adv-x="540" d="M395 37 L395 529 L27 0 L355 0 L355 -160 L395 -160 L395 0 L489 0 L489 37 L395 37 Z M355 37 L97 37 L355 406 L355 37 Z " />
<glyph glyph-name="five" unicode="5" horiz-adv-x="567" d="M479 470 L479 507 L226 507 L139 227 C178 249 203 256 240 256 C352 256 438 173 438 63 C438 -47 351 -133 240 -133 C175 -133 117 -101 79 -43 L40 -59 C85 -131 156 -170 239 -170 C374 -170 478 -69 478 64 C478 195 379 293 249 293 C230 293 220 292 198 287 L254 470 L479 470 Z " />
<glyph glyph-name="six" unicode="6" horiz-adv-x="580" d="M317 675 L96 361 C69 323 53 273 53 225 C53 93 157 -10 290 -10 C420 -10 526 95 526 224 C526 353 421 457 292 457 C260 457 239 453 200 439 L350 650 L317 675 Z M290 420 C399 420 486 332 486 221 C486 175 463 121 428 85 C392 47 345 27 291 27 C181 27 93 114 93 223 C93 333 181 420 290 420 L290 420 Z " />
<glyph glyph-name="seven" unicode="7" horiz-adv-x="525" d="M456 470 L52 -142 L82 -165 L525 507 L78 507 L78 470 L456 470 Z " />
<glyph glyph-name="eight" unicode="8" horiz-adv-x="580" d="M206 347 C131 309 97 255 97 177 C97 72 181 -10 289 -10 C398 -10 483 74 483 181 C483 257 447 312 374 347 C434 380 470 438 470 502 C470 601 393 677 292 677 C191 677 114 601 114 501 C114 435 145 382 206 347 L206 347 Z M290 640 C367 640 429 578 429 501 C429 425 368 364 291 364 C215 364 154 425 154 503 C154 577 216 640 290 640 L290 640 Z M289 330 C375 330 443 263 443 179 C443 95 374 27 289 27 C205 27 137 96 137 181 C137 262 206 330 289 330 L289 330 Z " />
<glyph glyph-name="nine" unicode="9" horiz-adv-x="580" d="M264 -168 L485 145 C512 184 528 234 528 282 C528 413 424 517 292 517 C161 517 55 412 55 283 C55 154 160 50 288 50 C321 50 342 54 380 67 L231 -143 L264 -168 Z M290 480 C400 480 488 393 488 284 C488 174 400 87 291 87 C182 87 95 175 95 286 C95 332 118 387 153 422 C189 460 236 480 290 480 L290 480 Z " />
<glyph glyph-name="colon" unicode="&#x3a;" horiz-adv-x="203" d="M102 66 C82 66 65 50 65 30 C65 9 81 -7 102 -7 C122 -7 138 9 138 30 C138 50 122 66 102 66 L102 66 Z M102 417 C82 417 65 401 65 381 C65 360 81 344 102 344 C122 344 138 360 138 381 C138 401 122 417 102 417 L102 417 Z " />
<glyph glyph-name="semicolon" unicode="&#x3b;" horiz-adv-x="203" d="M98 65 L38 -137 L64 -147 L138 53 L98 65 Z M106 417 C86 417 69 401 69 381 C69 360 85 344 106 344 C126 344 142 360 142 381 C142 401 126 417 106 417 L106 417 Z " />
<glyph glyph-name="less" unicode="&#x3c;" horiz-adv-x="500" d="M466 548 L33 355 L33 315 L466 121 L466 165 L80 335 L466 504 L466 548 Z " />
<glyph glyph-name="equal" unicode="&#x3d;" horiz-adv-x="547" d="M31 373 L515 373 L515 413 L31 413 L31 373 Z M31 267 L515 267 L515 307 L31 307 L31 267 Z " />
<glyph glyph-name="greater" unicode="&#x3e;" horiz-adv-x="500" d="M34 121 L467 315 L467 355 L34 548 L34 504 L420 335 L34 165 L34 121 Z " />
<glyph glyph-name="question" unicode="&#x3f;" horiz-adv-x="355" d="M229 192 C225 152 210 134 177 134 C146 134 127 153 127 183 C127 211 139 224 175 233 C222 246 226 247 241 256 C267 271 282 303 282 340 C282 403 239 447 177 447 C118 447 73 405 73 349 C73 339 74 330 77 315 L117 315 C115 327 114 333 114 343 C114 384 137 408 176 408 C215 408 241 382 241 344 C241 309 225 287 192 278 C144 264 144 264 130 258 C102 245 85 218 85 186 C85 135 124 96 177 96 C234 96 266 129 269 192 L229 192 Z M179 66 C159 66 142 50 142 30 C142 9 158 -7 179 -7 C199 -7 215 9 215 30 C215 50 199 66 179 66 L179 66 Z " />
<glyph glyph-name="at" unicode="&#x40;" horiz-adv-x="768" d="M565 504 L525 504 L516 434 C477 491 441 512 381 512 C280 512 204 430 204 320 C204 225 270 156 361 156 C414 156 447 173 492 227 L492 217 C492 185 522 158 558 158 C645 158 717 260 717 382 C717 549 580 676 400 676 C204 676 52 527 52 334 C52 209 115 97 219 38 C273 7 339 -9 413 -9 C499 -9 566 7 647 47 L633 81 C552 41 493 26 412 26 C346 26 288 40 241 66 C147 119 90 221 90 333 C90 506 226 640 399 640 C563 640 681 530 681 377 C681 279 628 193 567 193 C546 193 530 208 530 228 L538 280 L565 504 Z M386 475 C457 475 508 424 508 352 C508 267 442 193 365 193 C295 193 245 248 245 323 C245 410 306 475 386 475 L386 475 Z " />
<glyph glyph-name="A" unicode="A" horiz-adv-x="584" d="M434 219 L522 0 L571 0 L293 687 L13 0 L61 0 L150 219 L434 219 Z M418 259 L166 259 L293 575 L418 259 Z " />
<glyph glyph-name="B" unicode="B" horiz-adv-x="533" d="M90 0 L271 0 C331 0 375 14 412 44 C455 79 479 130 479 185 C479 237 457 287 418 318 C397 335 379 344 340 354 C397 390 418 428 418 492 C418 542 402 584 373 616 C340 652 298 667 234 667 L90 667 L90 0 Z M133 365 L133 627 L218 627 C272 627 302 619 329 599 C357 577 373 539 373 493 C373 447 360 417 329 393 C301 370 279 365 218 365 L133 365 Z M133 40 L133 325 L237 325 C295 325 332 319 362 306 C406 287 435 239 435 185 C435 144 419 107 389 80 C354 48 324 40 245 40 L133 40 Z " />
<glyph glyph-name="C" unicode="C" horiz-adv-x="677" d="M623 590 C553 649 484 676 399 676 C211 676 53 519 53 332 C53 146 212 -11 401 -11 C482 -11 550 14 623 72 L623 130 C598 104 586 93 565 81 C515 49 451 30 398 30 C331 30 260 58 202 107 C135 164 98 242 98 330 C98 494 236 635 398 635 C446 635 499 621 545 595 C576 578 592 565 623 530 L623 590 Z " />
<glyph glyph-name="D" unicode="D" horiz-adv-x="617" d="M90 0 L222 0 C325 0 402 29 466 93 C529 155 564 241 564 334 C564 427 529 512 466 575 C402 638 326 667 222 667 L90 667 L90 0 Z M133 40 L133 627 L221 627 C395 627 519 506 519 334 C519 249 487 171 429 117 C374 65 306 40 221 40 L133 40 Z " />
<glyph glyph-name="E" unicode="E" horiz-adv-x="463" d="M409 627 L409 667 L90 667 L90 0 L409 0 L409 40 L133 40 L133 345 L403 345 L403 385 L133 385 L133 627 L409 627 Z " />
<glyph glyph-name="F" unicode="F" horiz-adv-x="406" d="M359 627 L359 667 L90 667 L90 0 L133 0 L133 345 L353 345 L353 385 L133 385 L133 627 L359 627 Z " />
<glyph glyph-name="G" unicode="G" horiz-adv-x="771" d="M437 320 L437 280 L671 280 C669 223 661 190 641 158 C596 84 494 30 397 30 C234 30 97 166 97 330 C97 495 235 635 399 635 C468 635 540 609 591 564 C612 547 627 530 655 493 L690 520 C656 562 637 583 610 604 C551 651 477 676 401 676 C210 676 53 521 53 331 C53 144 209 -11 398 -11 C514 -11 628 51 681 143 C709 191 718 234 718 320 L437 320 Z " />
<glyph glyph-name="H" unicode="H" horiz-adv-x="671" d="M133 384 L133 667 L90 667 L90 0 L133 0 L133 344 L538 344 L538 0 L581 0 L581 667 L538 667 L538 384 L133 384 Z " />
<glyph glyph-name="I" unicode="I" horiz-adv-x="223" d="M133 667 L90 667 L90 0 L133 0 L133 667 Z " />
<glyph glyph-name="J" unicode="J" horiz-adv-x="265" d="M175 667 L132 667 L132 2 C132 -65 109 -98 62 -98 C27 -98 -2 -79 -21 -43 L-53 -67 C-29 -114 10 -139 60 -139 C99 -139 134 -122 153 -94 C169 -70 175 -46 175 2 L175 667 Z " />
<glyph glyph-name="K" unicode="K" horiz-adv-x="539" d="M133 357 L133 667 L90 667 L90 0 L133 0 L133 301 L149 317 L462 0 L526 0 L179 345 L505 667 L446 667 L133 357 Z " />
<glyph glyph-name="L" unicode="L" horiz-adv-x="315" d="M133 667 L90 667 L90 0 L302 0 L302 40 L133 40 L133 667 Z " />
<glyph glyph-name="M" unicode="M" horiz-adv-x="897" d="M83 0 L127 0 L185 536 L446 -24 L709 536 L769 0 L813 0 L737 690 L446 73 L158 690 L83 0 Z " />
<glyph glyph-name="N" unicode="N" horiz-adv-x="783" d="M90 0 L133 0 L133 569 L693 -17 L693 667 L650 667 L650 88 L90 674 L90 0 Z " />
<glyph glyph-name="O" unicode="O" horiz-adv-x="798" d="M398 676 C213 676 53 519 53 338 C53 147 208 -11 396 -11 C587 -11 744 144 744 333 C744 520 587 676 398 676 L398 676 Z M398 635 C563 635 699 498 699 333 C699 166 563 30 396 30 C325 30 251 60 195 111 C131 170 98 247 98 337 C98 498 236 635 398 635 L398 635 Z " />
<glyph glyph-name="P" unicode="P" horiz-adv-x="445" d="M133 317 L219 317 C339 317 412 383 412 492 C412 540 395 584 364 616 C330 652 286 667 218 667 L90 667 L90 0 L133 0 L133 317 Z M133 357 L133 627 L214 627 C269 627 305 616 331 590 C354 567 367 531 367 492 C367 410 309 357 220 357 L133 357 Z " />
<glyph glyph-name="Q" unicode="Q" horiz-adv-x="798" d="M734 0 L647 93 C717 177 744 245 744 333 C744 522 588 676 399 676 C209 676 53 521 53 332 C53 144 208 -11 396 -11 C477 -11 545 13 617 68 L677 0 L734 0 Z M481 273 L421 273 L587 99 C523 51 466 30 399 30 C234 30 98 166 98 331 C98 498 234 635 400 635 C565 635 699 498 699 329 C699 251 677 197 616 125 L481 273 Z " />
<glyph glyph-name="R" unicode="R" horiz-adv-x="467" d="M202 315 C255 318 282 323 308 337 C361 366 392 421 392 490 C392 552 368 603 325 633 C290 658 252 667 184 667 L90 667 L90 0 L133 0 L133 315 L153 315 L367 0 L420 0 L202 315 Z M133 355 L133 627 L188 627 C231 627 264 621 289 607 C325 587 348 543 348 491 C348 405 293 355 197 355 L133 355 Z " />
<glyph glyph-name="S" unicode="S" horiz-adv-x="512" d="M425 581 C390 642 332 676 263 676 C164 676 92 606 92 510 C92 438 122 401 224 351 C323 302 326 300 348 288 C390 263 413 228 413 185 C413 100 339 30 250 30 C202 30 155 51 127 86 C114 103 106 117 90 150 L53 132 C91 37 158 -11 250 -11 C365 -11 458 77 458 185 C458 239 434 282 388 313 C358 332 341 341 255 382 C164 426 137 455 137 509 C137 580 191 635 262 635 C319 635 355 613 393 555 L425 581 Z " />
<glyph glyph-name="T" unicode="T" horiz-adv-x="415" d="M227 627 L401 627 L401 667 L13 667 L13 627 L184 627 L184 0 L227 0 L227 627 Z " />
<glyph glyph-name="U" unicode="U" horiz-adv-x="633" d="M133 667 L90 667 L90 238 C90 150 97 118 125 80 C165 24 238 -11 317 -11 C395 -11 468 24 508 80 C536 118 543 150 543 238 L543 667 L500 667 L500 250 C500 168 495 136 476 107 C447 62 381 30 317 30 C252 30 186 62 157 107 C138 136 133 168 133 250 L133 667 Z " />
<glyph glyph-name="V" unicode="V" horiz-adv-x="508" d="M61 667 L13 667 L256 -27 L494 667 L448 667 L256 104 L61 667 Z " />
<glyph glyph-name="W" unicode="W" horiz-adv-x="982" d="M62 667 L13 667 L237 -25 L485 580 L711 -25 L968 667 L919 667 L711 103 L485 703 L243 103 L62 667 Z " />
<glyph glyph-name="X" unicode="X" horiz-adv-x="462" d="M205 341 L23 0 L72 0 L230 296 L390 0 L439 0 L255 341 L430 667 L380 667 L230 386 L79 667 L30 667 L205 341 Z " />
<glyph glyph-name="Y" unicode="Y" horiz-adv-x="514" d="M231 285 L231 0 L274 0 L274 285 L499 667 L448 667 L253 332 L63 667 L13 667 L231 285 Z " />
<glyph glyph-name="Z" unicode="Z" horiz-adv-x="555" d="M111 40 L519 667 L76 667 L76 627 L444 627 L37 0 L507 0 L507 40 L111 40 Z " />
<glyph glyph-name="bracketleft" unicode="&#x5b;" horiz-adv-x="277" d="M130 689 L237 689 L237 729 L87 729 L87 -160 L237 -160 L237 -121 L130 -121 L130 689 Z " />
<glyph glyph-name="backslash" unicode="&#x5c;" horiz-adv-x="544" d="M30 743 L-1 727 L505 -174 L537 -158 L30 743 Z " />
<glyph glyph-name="bracketright" unicode="&#x5d;" horiz-adv-x="277" d="M147 -120 L40 -120 L40 -160 L190 -160 L190 729 L40 729 L40 690 L147 690 L147 -120 Z " />
<glyph glyph-name="asciicircum" unicode="&#x5e;" horiz-adv-x="500" d="M85 381 L249 634 L414 381 L464 381 L279 668 L221 668 L36 381 L85 381 Z " />
<glyph glyph-name="underscore" unicode="&#x5f;" horiz-adv-x="500" d="M0 -76 L0 -117 L500 -117 L500 -76 L0 -76 Z " />
<glyph glyph-name="grave" unicode="&#x60;" horiz-adv-x="500" d="M143 617 L248 489 L278 505 L187 642 L143 617 Z " />
<glyph glyph-name="a" unicode="a" horiz-adv-x="419" d="M302 142 L361 0 L405 0 L210 466 L13 0 L57 0 L116 142 L302 142 Z M285 180 L133 180 L210 365 L285 180 Z " />
<glyph glyph-name="b" unicode="b" horiz-adv-x="421" d="M90 0 L220 0 C306 0 367 52 367 125 C367 179 327 226 270 237 C307 251 328 285 328 327 C328 358 316 387 296 408 C272 432 242 443 196 443 L90 443 L90 0 Z M130 248 L130 405 L185 405 C255 405 287 380 287 324 C287 297 279 279 259 265 C240 251 227 248 185 248 L130 248 Z M130 38 L130 210 L198 210 C236 210 261 207 281 198 C309 187 327 158 327 126 C327 101 317 78 298 62 C275 43 255 38 203 38 L130 38 Z " />
<glyph glyph-name="c" unicode="c" horiz-adv-x="494" d="M441 387 C392 427 341 447 284 447 C155 447 47 343 47 218 C47 94 156 -10 286 -10 C341 -10 389 8 441 47 L441 103 C395 53 341 27 284 27 C179 27 88 115 88 217 C88 321 178 410 284 410 C342 410 394 384 441 330 L441 387 Z " />
<glyph glyph-name="d" unicode="d" horiz-adv-x="469" d="M90 0 L188 0 C258 0 311 19 355 62 C398 104 422 160 422 222 C422 283 398 340 355 381 C311 424 259 443 188 443 L90 443 L90 0 Z M130 38 L130 405 L187 405 C301 405 381 329 381 221 C381 114 301 38 187 38 L130 38 Z " />
<glyph glyph-name="e" unicode="e" horiz-adv-x="375" d="M322 405 L322 443 L90 443 L90 0 L322 0 L322 38 L130 38 L130 223 L318 223 L318 261 L130 261 L130 405 L322 405 Z " />
<glyph glyph-name="f" unicode="f" horiz-adv-x="336" d="M290 405 L290 443 L90 443 L90 0 L130 0 L130 223 L285 223 L285 261 L130 261 L130 405 L290 405 Z " />
<glyph glyph-name="g" unicode="g" horiz-adv-x="552" d="M309 217 L309 179 L460 179 C459 148 453 127 441 108 C412 61 346 27 283 27 C177 27 88 114 88 217 C88 322 178 410 284 410 C329 410 377 393 409 365 C424 352 436 339 455 314 L487 339 C425 416 366 447 285 447 C154 447 47 344 47 218 C47 93 154 -10 283 -10 C362 -10 441 32 477 93 C497 126 503 154 503 217 L309 217 Z " />
<glyph glyph-name="h" unicode="h" horiz-adv-x="523" d="M130 260 L130 443 L90 443 L90 0 L130 0 L130 222 L393 222 L393 0 L433 0 L433 443 L393 443 L393 260 L130 260 Z " />
<glyph glyph-name="i" unicode="i" horiz-adv-x="220" d="M130 443 L90 443 L90 0 L130 0 L130 443 Z " />
<glyph glyph-name="j" unicode="j" horiz-adv-x="211" d="M122 443 L82 443 L82 7 C82 -34 67 -53 36 -53 C11 -53 -7 -41 -23 -13 L-53 -36 C-33 -73 -5 -90 35 -90 C92 -90 122 -57 122 7 L122 443 Z " />
<glyph glyph-name="k" unicode="k" horiz-adv-x="419" d="M130 245 L130 443 L90 443 L90 0 L130 0 L130 198 L138 206 L348 0 L406 0 L169 232 L393 443 L337 443 L130 245 Z " />
<glyph glyph-name="l" unicode="l" horiz-adv-x="266" d="M130 443 L90 443 L90 0 L252 0 L252 38 L130 38 L130 443 Z " />
<glyph glyph-name="m" unicode="m" horiz-adv-x="666" d="M83 0 L123 0 L162 334 L331 -23 L501 334 L541 0 L582 0 L526 474 L331 64 L138 474 L83 0 Z " />
<glyph glyph-name="n" unicode="n" horiz-adv-x="595" d="M90 0 L130 0 L130 359 L505 -20 L505 443 L465 443 L465 78 L90 457 L90 0 Z " />
<glyph glyph-name="o" unicode="o" horiz-adv-x="566" d="M283 447 C156 447 47 343 47 222 C47 95 153 -10 282 -10 C413 -10 520 93 520 219 C520 344 413 447 283 447 L283 447 Z M283 410 C390 410 479 323 479 219 C479 113 390 27 282 27 C175 27 88 115 88 222 C88 323 178 410 283 410 L283 410 Z " />
<glyph glyph-name="p" unicode="p" horiz-adv-x="357" d="M130 205 L186 205 C271 205 324 250 324 324 C324 356 312 386 290 408 C265 432 234 443 186 443 L90 443 L90 0 L130 0 L130 205 Z M130 243 L130 405 L183 405 C249 405 283 377 283 324 C283 275 246 243 187 243 L130 243 Z " />
<glyph glyph-name="q" unicode="q" horiz-adv-x="566" d="M459 0 L512 0 L452 64 C501 118 520 162 520 220 C520 344 413 447 284 447 C154 447 47 344 47 218 C47 93 153 -10 281 -10 C333 -10 378 5 424 39 L459 0 Z M339 186 L284 186 L396 68 C359 40 324 27 282 27 C176 27 88 114 88 218 C88 323 177 410 284 410 C392 410 479 324 479 218 C479 169 464 136 424 93 L339 186 Z " />
<glyph glyph-name="r" unicode="r" horiz-adv-x="381" d="M186 205 C232 209 252 216 274 235 C298 257 311 287 311 323 C311 364 294 399 263 420 C238 437 211 443 164 443 L90 443 L90 0 L130 0 L130 204 L140 204 L286 0 L334 0 L186 205 Z M130 242 L130 405 L166 405 C237 405 271 379 271 324 C271 271 236 242 172 242 L130 242 Z " />
<glyph glyph-name="s" unicode="s" horiz-adv-x="396" d="M323 378 C296 423 254 447 203 447 C132 447 80 399 80 333 C80 298 96 269 127 250 C145 239 167 228 213 207 C283 175 301 158 301 123 C301 70 253 27 195 27 C164 27 133 40 115 62 C106 73 101 82 88 108 L53 92 C82 23 127 -10 194 -10 C276 -10 342 50 342 123 C342 160 324 190 291 211 C270 224 254 232 199 257 C138 284 121 301 121 333 C121 377 156 410 202 410 C242 410 264 396 293 353 L323 378 Z " />
<glyph glyph-name="t" unicode="t" horiz-adv-x="303" d="M171 405 L289 405 L289 443 L13 443 L13 405 L131 405 L131 0 L171 0 L171 405 Z " />
<glyph glyph-name="u" unicode="u" horiz-adv-x="499" d="M130 443 L90 443 L90 157 C90 99 95 78 115 51 C143 12 193 -10 250 -10 C306 -10 356 12 384 51 C404 78 409 99 409 157 L409 443 L369 443 L369 165 C369 112 366 93 353 74 C335 46 293 27 250 27 C206 27 164 46 145 74 C133 93 130 112 130 165 L130 443 Z " />
<glyph glyph-name="v" unicode="v" horiz-adv-x="368" d="M57 443 L13 443 L186 -30 L355 443 L312 443 L186 88 L57 443 Z " />
<glyph glyph-name="w" unicode="w" horiz-adv-x="675" d="M57 443 L13 443 L169 -28 L333 368 L483 -28 L661 443 L616 443 L483 86 L333 477 L174 86 L57 443 Z " />
<glyph glyph-name="x" unicode="x" horiz-adv-x="349" d="M197 226 L319 443 L274 443 L174 264 L73 443 L28 443 L151 226 L23 0 L68 0 L174 188 L280 0 L325 0 L197 226 Z " />
<glyph glyph-name="y" unicode="y" horiz-adv-x="376" d="M165 189 L165 0 L205 0 L205 188 L362 443 L315 443 L186 230 L59 443 L13 443 L165 189 Z " />
<glyph glyph-name="z" unicode="z" horiz-adv-x="420" d="M107 38 L384 443 L67 443 L67 405 L313 405 L37 0 L371 0 L371 38 L107 38 Z " />
<glyph glyph-name="braceleft" unicode="&#x7b;" horiz-adv-x="240" d="M211 -127 C182 -127 179 -127 172 -125 C148 -119 137 -92 137 -42 L137 183 C137 234 126 259 93 285 C131 314 137 334 137 435 L137 611 C137 653 146 680 162 690 C169 694 175 695 196 696 C198 696 204 696 211 697 L211 733 L202 733 L188 733 C152 733 121 716 107 689 C98 670 94 646 94 609 L94 436 C94 356 90 336 73 319 C63 310 54 305 36 300 L36 270 C79 257 94 234 94 182 L94 -40 C94 -77 98 -102 107 -120 C122 -147 152 -164 188 -164 L202 -164 L211 -164 L211 -127 Z " />
<glyph glyph-name="bar" unicode="&#x7c;" horiz-adv-x="500" d="M228 667 L228 -167 L271 -167 L271 667 L228 667 Z " />
<glyph glyph-name="braceright" unicode="&#x7d;" horiz-adv-x="240" d="M29 697 C36 696 41 696 44 696 C65 695 71 694 78 690 C94 680 103 653 103 611 L103 386 C103 335 114 310 147 285 C109 255 103 235 103 135 L103 -42 C103 -90 92 -117 72 -124 C64 -127 61 -127 29 -127 L29 -164 L38 -164 L52 -164 C88 -164 118 -147 133 -120 C142 -102 146 -77 146 -40 L146 133 C146 214 150 233 167 250 C177 260 186 264 204 270 L204 300 C161 312 146 335 146 387 L146 609 C146 646 142 670 133 689 C119 716 88 733 52 733 L38 733 L29 733 L29 697 Z " />
<glyph glyph-name="asciitilde" unicode="&#x7e;" horiz-adv-x="667" d="M94 612 C104 601 114 593 120 593 C123 593 125 595 129 605 C133 613 153 638 164 649 C177 662 201 672 219 672 C242 672 276 662 310 644 C386 606 409 598 443 598 C493 598 533 629 572 700 C561 711 551 718 546 718 C542 718 540 716 536 706 C533 699 514 676 502 664 C488 650 465 641 444 641 C417 641 395 649 340 677 C287 703 252 715 224 715 C170 715 133 686 94 612 L94 612 Z " />
<glyph glyph-name="uni00A0" unicode="&#xa0;" horiz-adv-x="250" d="" />
<glyph glyph-name="exclamdown" unicode="&#xa1;" horiz-adv-x="259" d="M129 450 C109 450 93 434 93 413 C93 393 109 377 130 377 C149 377 166 393 166 413 C166 434 150 450 129 450 L129 450 Z M151 323 L108 323 L108 0 L151 0 L151 323 Z " />
<glyph glyph-name="cent" unicode="&#xa2;" horiz-adv-x="547" d="M318 655 L279 655 L279 552 C168 537 94 452 94 337 C94 226 169 141 279 127 L279 13 L318 13 L318 126 C362 128 416 150 452 183 L452 236 C419 195 366 167 318 164 L318 516 C368 511 407 491 447 449 L447 501 C410 533 363 551 318 553 L318 655 Z M279 165 C198 174 135 250 135 338 C135 429 192 499 279 514 L279 165 Z " />
<glyph glyph-name="sterling" unicode="&#xa3;" horiz-adv-x="547" d="M276 251 C265 280 256 295 221 353 C158 455 154 464 154 501 C154 574 212 633 284 633 C333 633 377 609 399 569 C410 548 414 531 416 497 L458 497 C458 600 387 674 288 674 C188 674 110 600 110 504 C110 462 122 428 158 374 C197 314 202 305 230 251 L131 251 L131 211 L241 211 C242 200 243 191 243 186 C243 148 226 116 187 79 C148 81 97 56 68 22 L92 -10 C131 25 155 36 186 36 C204 36 221 31 268 15 C326 -6 353 -13 377 -13 C425 -13 467 17 503 78 L467 100 C439 51 410 30 372 30 C356 30 340 34 300 48 C267 60 266 60 236 70 C269 105 286 142 286 183 C286 192 285 198 283 211 L396 211 L396 251 L276 251 Z " />
<glyph glyph-name="currency" unicode="&#xa4;" horiz-adv-x="667" d="M73 116 L99 89 L189 179 C236 144 282 127 334 127 C387 127 434 144 479 181 L571 90 L596 116 L505 207 C542 254 559 297 559 350 C559 403 542 448 506 494 L596 584 L570 610 L479 521 C433 559 388 576 333 576 C279 576 234 559 186 520 L96 610 L70 584 L160 494 C124 448 108 404 108 351 C108 297 126 250 163 205 L73 116 Z M334 537 C434 537 518 453 518 353 C518 249 436 166 334 166 C232 166 149 249 149 351 C149 454 232 537 334 537 L334 537 Z " />
<glyph glyph-name="yen" unicode="&#xa5;" horiz-adv-x="547" d="M354 391 L499 391 L499 431 L378 431 L517 667 L465 667 L270 332 L81 667 L30 667 L164 431 L48 431 L48 391 L187 391 L246 288 L48 288 L48 248 L248 248 L248 0 L291 0 L291 248 L499 248 L499 288 L293 288 L354 391 Z " />
<glyph glyph-name="brokenbar" unicode="&#xa6;" horiz-adv-x="500" d="M228 667 L228 341 L271 341 L271 667 L228 667 Z M228 153 L228 -167 L271 -167 L271 153 L228 153 Z " />
<glyph glyph-name="section" unicode="&#xa7;" horiz-adv-x="547" d="M115 3 C117 -57 121 -81 133 -103 C155 -146 206 -170 273 -170 C375 -170 436 -115 436 -21 C436 51 406 95 339 125 C413 163 447 214 447 286 C447 336 429 382 397 410 C376 429 345 444 297 459 C234 478 224 482 202 499 C175 520 161 548 161 583 C161 654 208 699 281 699 C359 699 396 657 396 567 L441 567 C437 620 432 646 421 668 C398 713 347 739 282 739 C181 739 116 679 116 586 C116 519 142 480 208 446 C137 413 100 358 100 284 C100 203 143 151 235 118 C311 92 312 92 336 78 C372 57 391 24 391 -19 C391 -87 346 -130 273 -130 C227 -130 191 -114 175 -86 C163 -66 159 -45 159 3 L115 3 Z M273 414 C344 414 402 357 402 286 C402 215 345 157 274 157 C202 157 145 215 145 287 C145 356 203 414 273 414 L273 414 Z " />
<glyph glyph-name="dieresis" unicode="&#xa8;" horiz-adv-x="500" d="M168 584 C148 584 131 568 131 548 C131 527 147 511 168 511 C188 511 204 527 204 548 C204 568 188 584 168 584 L168 584 Z M334 584 C314 584 297 568 297 548 C297 527 313 511 334 511 C354 511 370 527 370 548 C370 568 354 584 334 584 L334 584 Z " />
<glyph glyph-name="copyright" unicode="&#xa9;" horiz-adv-x="740" d="M514 474 C472 510 433 525 384 525 C277 525 187 436 187 329 C187 223 278 134 385 134 C432 134 470 149 514 183 L514 235 C475 190 433 169 384 169 C299 169 225 243 225 327 C225 414 298 489 384 489 C435 489 473 469 514 421 L514 474 Z M376 677 C182 677 27 526 27 336 C27 144 180 -10 371 -10 C560 -10 714 144 714 334 C714 521 560 677 376 677 L376 677 Z M375 629 C533 629 666 494 666 334 C666 170 534 38 371 38 C206 38 75 170 75 336 C75 407 103 478 151 531 C210 596 285 629 375 629 L375 629 Z " />
<glyph glyph-name="ordfeminine" unicode="&#xaa;" horiz-adv-x="337" d="M264 661 L264 615 C237 650 203 667 159 667 C83 667 29 610 29 528 C29 447 85 386 160 386 C204 386 240 405 264 441 L264 393 L290 393 L290 661 L264 661 Z M161 643 C186 643 212 633 233 614 C256 594 266 568 266 530 C266 460 222 410 161 410 C100 410 56 461 56 530 C56 594 101 643 161 643 L161 643 Z " />
<glyph glyph-name="guillemotleft" unicode="&#xab;" horiz-adv-x="347" d="M187 207 L294 332 L268 356 L139 207 L268 57 L294 81 L187 207 Z M81 207 L187 332 L162 356 L33 207 L162 57 L187 81 L81 207 Z " />
<glyph glyph-name="logicalnot" unicode="&#xac;" horiz-adv-x="500" d="M423 0 L466 0 L466 267 L33 267 L33 227 L423 227 L423 0 Z " />
<glyph glyph-name="uni00AD" unicode="&#xad;" horiz-adv-x="168" d="M0 227 L0 187 L168 187 L168 227 L0 227 Z " />
<glyph glyph-name="registered" unicode="&#xae;" horiz-adv-x="740" d="M373 315 C409 318 425 324 442 340 C462 359 473 385 473 416 C473 485 431 520 351 520 L293 520 L293 140 L330 140 L330 314 L448 140 L494 140 L373 315 Z M330 349 L330 485 L353 485 C409 485 435 463 435 417 C435 373 408 349 358 349 L330 349 Z M376 677 C182 677 27 526 27 336 C27 144 180 -10 371 -10 C560 -10 714 144 714 334 C714 521 560 677 376 677 L376 677 Z M375 629 C533 629 666 494 666 334 C666 170 534 38 371 38 C206 38 75 170 75 336 C75 407 103 478 151 531 C210 596 285 629 375 629 L375 629 Z " />
<glyph glyph-name="macron" unicode="&#xaf;" horiz-adv-x="500" d="M133 554 L133 515 L366 515 L366 554 L133 554 Z " />
<glyph glyph-name="degree" unicode="&#xb0;" horiz-adv-x="547" d="M275 667 C200 667 140 608 140 533 C140 460 200 400 274 400 C347 400 407 460 407 534 C407 607 347 667 275 667 L275 667 Z M275 627 C325 627 367 585 367 534 C367 482 325 440 274 440 C222 440 180 482 180 534 C180 586 222 627 275 627 L275 627 Z " />
<glyph glyph-name="plusminus" unicode="&#xb1;" horiz-adv-x="547" d="M31 320 L253 320 L253 101 L293 101 L293 320 L515 320 L515 360 L293 360 L293 579 L253 579 L253 360 L31 360 L31 320 Z M31 0 L515 0 L515 40 L31 40 L31 0 Z " />
<glyph glyph-name="twosuperior" unicode="&#xb2;" horiz-adv-x="387" d="M127 297 L232 406 C308 484 324 509 324 555 C324 620 267 672 196 672 C152 672 106 650 84 618 C71 600 67 585 66 549 L100 549 C101 575 104 588 113 601 C128 626 161 642 194 642 C248 642 290 604 290 557 C290 523 272 494 219 439 L52 267 L322 267 L322 297 L127 297 Z " />
<glyph glyph-name="threesuperior" unicode="&#xb3;" horiz-adv-x="387" d="M186 459 C247 456 281 428 281 379 C281 332 239 292 188 292 C161 292 130 307 115 327 C107 337 104 348 101 370 L68 370 C69 344 73 330 83 314 C103 282 144 261 188 261 C260 261 315 312 315 379 C315 422 290 459 251 475 C288 494 309 527 309 566 C309 626 259 672 195 672 C129 672 92 637 84 566 L117 566 C123 617 148 641 197 641 C242 641 275 609 275 566 C275 521 241 492 186 489 L186 459 Z " />
<glyph glyph-name="acute" unicode="&#xb4;" horiz-adv-x="500" d="M348 617 L304 642 L213 505 L242 489 L348 617 Z " />
<glyph glyph-name="mu" unicode="&#xb5;" horiz-adv-x="436" d="M111 -239 L111 32 C143 2 175 -11 219 -11 C264 -11 308 8 334 39 C357 66 364 93 364 151 L364 408 L324 408 L324 165 C324 118 320 94 311 75 C296 46 258 26 218 26 C177 26 139 46 124 75 C115 94 111 118 111 165 L111 408 L71 408 L71 -239 L111 -239 Z " />
<glyph glyph-name="paragraph" unicode="&#xb6;" horiz-adv-x="547" d="M265 -102 L265 630 L380 630 L380 -102 L420 -102 L420 630 L464 630 L482 667 L239 667 C180 667 131 651 104 623 C74 593 57 547 57 500 C57 442 83 389 125 362 C153 345 181 338 225 338 L225 -102 L265 -102 Z " />
<glyph glyph-name="periodcentered" unicode="&#xb7;" horiz-adv-x="206" d="M104 243 C84 243 67 227 67 207 C67 186 83 170 104 170 C124 170 140 186 140 207 C140 227 124 243 104 243 L104 243 Z " />
<glyph glyph-name="cedilla" unicode="&#xb8;" horiz-adv-x="500" d="M315 -70 L266 -50 L184 -178 L218 -194 L315 -70 Z " />
<glyph glyph-name="onesuperior" unicode="&#xb9;" horiz-adv-x="387" d="M189 637 L189 267 L223 267 L223 667 L137 667 L121 637 L189 637 Z " />
<glyph glyph-name="ordmasculine" unicode="&#xba;" horiz-adv-x="339" d="M169 667 C92 667 29 605 29 529 C29 450 90 387 168 387 C248 387 309 448 309 527 C309 606 248 667 169 667 L169 667 Z M168 643 C232 643 282 592 282 527 C282 461 232 411 167 411 C105 411 56 463 56 529 C56 592 106 643 168 643 L168 643 Z " />
<glyph glyph-name="guillemotright" unicode="&#xbb;" horiz-adv-x="347" d="M160 207 L53 81 L78 57 L207 207 L78 356 L53 332 L160 207 Z M266 207 L159 81 L184 57 L314 207 L184 356 L159 332 L266 207 Z " />
<glyph glyph-name="onequarter" unicode="&#xbc;" horiz-adv-x="904" d="M189 637 L189 267 L223 267 L223 667 L137 667 L121 637 L189 637 Z M636 682 L240 1 L269 -15 L664 667 L636 682 Z M802 105 L802 420 L539 75 L768 75 L768 0 L802 0 L802 75 L861 75 L861 105 L802 105 Z M768 105 L602 105 L768 323 L768 105 Z " />
<glyph glyph-name="onehalf" unicode="&#xbd;" horiz-adv-x="904" d="M189 637 L189 267 L223 267 L223 667 L137 667 L121 637 L189 637 Z M636 682 L240 1 L269 -15 L664 667 L636 682 Z M644 30 L749 139 C825 216 841 243 841 288 C841 353 784 405 713 405 C669 405 623 383 601 351 C588 333 584 318 583 282 L617 282 C618 308 621 320 630 334 C645 358 678 374 711 374 C764 374 807 336 807 289 C807 256 790 228 736 172 L569 0 L839 0 L839 30 L644 30 Z " />
<glyph glyph-name="threequarters" unicode="&#xbe;" horiz-adv-x="904" d="M186 459 C247 456 281 428 281 379 C281 332 239 292 188 292 C161 292 130 307 115 327 C107 337 104 348 101 370 L68 370 C69 344 73 330 83 314 C103 282 144 261 188 261 C260 261 315 312 315 379 C315 422 290 459 251 475 C288 494 309 527 309 566 C309 626 259 672 195 672 C129 672 92 637 84 566 L117 566 C123 617 148 641 197 641 C242 641 275 609 275 566 C275 521 241 492 186 489 L186 459 Z M635 682 L240 1 L269 -15 L664 667 L635 682 Z M801 105 L801 420 L538 75 L767 75 L767 0 L801 0 L801 75 L861 75 L861 105 L801 105 Z M767 105 L601 105 L767 323 L767 105 Z " />
<glyph glyph-name="questiondown" unicode="&#xbf;" horiz-adv-x="355" d="M126 251 C129 291 145 309 178 309 C209 309 228 290 228 260 C228 232 216 219 180 210 C130 197 129 196 114 187 C88 172 73 141 73 104 C73 41 116 -3 178 -3 C237 -3 282 39 282 94 C282 105 281 114 278 128 L238 128 C240 117 241 110 241 101 C241 60 218 36 179 36 C140 36 114 62 114 100 C114 135 130 157 163 166 C211 179 211 179 225 185 C253 199 270 225 270 257 C270 308 231 347 178 347 C121 347 89 314 86 251 L126 251 Z M176 450 C156 450 140 434 140 413 C140 393 156 377 177 377 C196 377 213 393 213 413 C213 434 197 450 176 450 L176 450 Z " />
<glyph glyph-name="Agrave" unicode="&#xc0;" horiz-adv-x="584" d="M434 219 L522 0 L571 0 L293 687 L13 0 L61 0 L150 219 L434 219 Z M418 259 L166 259 L293 575 L418 259 Z M167 816 L300 713 L335 739 L213 847 L167 816 Z " />
<glyph glyph-name="Aacute" unicode="&#xc1;" horiz-adv-x="584" d="M434 219 L522 0 L571 0 L293 687 L13 0 L61 0 L150 219 L434 219 Z M418 259 L166 259 L293 575 L418 259 Z M420 816 L374 847 L253 739 L287 713 L420 816 Z " />
<glyph glyph-name="Acircumflex" unicode="&#xc2;" horiz-adv-x="584" d="M434 219 L522 0 L571 0 L293 687 L13 0 L61 0 L150 219 L434 219 Z M418 259 L166 259 L293 575 L418 259 Z M167 742 L203 714 L292 789 L380 714 L416 742 L292 847 L167 742 Z " />
<glyph glyph-name="Atilde" unicode="&#xc3;" horiz-adv-x="584" d="M434 219 L522 0 L571 0 L293 687 L13 0 L61 0 L150 219 L434 219 Z M418 259 L166 259 L293 575 L418 259 Z M194 734 C205 763 215 772 234 772 C246 772 258 769 295 753 C323 741 338 737 354 737 C388 737 411 756 425 797 L396 819 C384 790 374 781 356 781 C343 781 328 786 298 799 C267 812 254 816 236 816 C204 816 185 800 165 756 L194 734 Z " />
<glyph glyph-name="Adieresis" unicode="&#xc4;" horiz-adv-x="584" d="M434 219 L522 0 L571 0 L293 687 L13 0 L61 0 L150 219 L434 219 Z M418 259 L166 259 L293 575 L418 259 Z M200 815 C178 815 161 798 161 777 C161 755 178 738 200 738 C221 738 238 755 238 777 C238 798 221 815 200 815 L200 815 Z M386 815 C364 815 347 798 347 777 C347 755 364 738 386 738 C407 738 424 755 424 777 C424 798 407 815 386 815 L386 815 Z " />
<glyph glyph-name="Aring" unicode="&#xc5;" horiz-adv-x="584" d="M434 219 L522 0 L571 0 L293 687 L13 0 L61 0 L150 219 L434 219 Z M418 259 L166 259 L293 575 L418 259 Z M292 867 C248 867 212 831 212 788 C212 743 248 707 292 707 C336 707 372 743 372 787 C372 831 336 867 292 867 L292 867 Z M292 828 C315 828 333 810 333 787 C333 764 315 746 292 746 C269 746 251 764 251 788 C251 810 270 828 292 828 L292 828 Z " />
<glyph glyph-name="AE" unicode="&#xc6;" horiz-adv-x="851" d="M433 219 L521 0 L844 0 L828 40 L552 40 L429 345 L696 345 L680 385 L412 385 L313 627 L588 627 L572 667 L282 667 L13 0 L61 0 L147 219 L433 219 Z M416 259 L164 259 L289 573 L416 259 Z " />
<glyph glyph-name="Ccedilla" unicode="&#xc7;" horiz-adv-x="677" d="M623 590 C553 649 484 676 399 676 C211 676 53 519 53 332 C53 146 212 -11 401 -11 C482 -11 550 14 623 72 L623 130 C598 104 586 93 565 81 C515 49 451 30 398 30 C331 30 260 58 202 107 C135 164 98 242 98 330 C98 494 236 635 398 635 C446 635 499 621 545 595 C576 578 592 565 623 530 L623 590 Z M420 -72 L370 -47 L282 -180 L318 -198 L420 -72 Z " />
<glyph glyph-name="Egrave" unicode="&#xc8;" horiz-adv-x="463" d="M409 627 L409 667 L90 667 L90 0 L409 0 L409 40 L133 40 L133 345 L403 345 L403 385 L133 385 L133 627 L409 627 Z M150 816 L282 713 L317 739 L196 847 L150 816 Z " />
<glyph glyph-name="Eacute" unicode="&#xc9;" horiz-adv-x="463" d="M409 627 L409 667 L90 667 L90 0 L409 0 L409 40 L133 40 L133 345 L403 345 L403 385 L133 385 L133 627 L409 627 Z M366 816 L320 847 L199 739 L234 713 L366 816 Z " />
<glyph glyph-name="Ecircumflex" unicode="&#xca;" horiz-adv-x="463" d="M409 627 L409 667 L90 667 L90 0 L409 0 L409 40 L133 40 L133 345 L403 345 L403 385 L133 385 L133 627 L409 627 Z M126 742 L162 714 L251 789 L340 714 L376 742 L251 847 L126 742 Z " />
<glyph glyph-name="Edieresis" unicode="&#xcb;" horiz-adv-x="463" d="M409 627 L409 667 L90 667 L90 0 L409 0 L409 40 L133 40 L133 345 L403 345 L403 385 L133 385 L133 627 L409 627 Z M159 815 C137 815 120 798 120 777 C120 755 137 738 159 738 C180 738 197 755 197 777 C197 798 180 815 159 815 L159 815 Z M345 815 C323 815 306 798 306 777 C306 755 323 738 345 738 C366 738 383 755 383 777 C383 798 366 815 345 815 L345 815 Z " />
<glyph glyph-name="Igrave" unicode="&#xcc;" horiz-adv-x="223" d="M134 667 L91 667 L91 0 L134 0 L134 667 Z M-3 816 L116 713 L151 739 L42 847 L-3 816 Z " />
<glyph glyph-name="Iacute" unicode="&#xcd;" horiz-adv-x="223" d="M133 667 L90 667 L90 0 L133 0 L133 667 Z M226 816 L182 847 L72 739 L107 713 L226 816 Z " />
<glyph glyph-name="Icircumflex" unicode="&#xce;" horiz-adv-x="223" d="M133 667 L90 667 L90 0 L133 0 L133 667 Z M-3 742 L31 714 L112 789 L192 714 L226 742 L112 847 L-3 742 Z " />
<glyph glyph-name="Idieresis" unicode="&#xcf;" horiz-adv-x="223" d="M133 667 L90 667 L90 0 L133 0 L133 667 Z M49 815 C27 815 10 798 10 777 C10 755 27 738 49 738 C70 738 87 755 87 777 C87 798 70 815 49 815 L49 815 Z M175 815 C154 815 136 798 136 777 C136 755 153 738 175 738 C196 738 213 755 213 777 C213 798 196 815 175 815 L175 815 Z " />
<glyph glyph-name="Eth" unicode="&#xd0;" horiz-adv-x="617" d="M90 0 L222 0 C325 0 402 29 466 93 C529 155 564 240 564 333 C564 426 529 512 466 575 C402 638 326 667 222 667 L90 667 L90 383 L23 383 L23 343 L90 343 L90 0 Z M133 40 L133 343 L300 343 L300 383 L133 383 L133 627 L221 627 C396 627 519 505 519 333 C519 161 396 40 221 40 L133 40 Z " />
<glyph glyph-name="Ntilde" unicode="&#xd1;" horiz-adv-x="783" d="M90 0 L133 0 L133 569 L693 -17 L693 667 L650 667 L650 88 L90 674 L90 0 Z M290 734 C302 763 311 772 330 772 C343 772 354 769 391 753 C419 741 434 737 450 737 C484 737 507 756 521 797 L492 819 C480 790 470 781 452 781 C440 781 424 786 394 799 C363 812 350 816 333 816 C301 816 281 800 262 756 L290 734 Z " />
<glyph glyph-name="Ograve" unicode="&#xd2;" horiz-adv-x="798" d="M398 676 C213 676 53 519 53 338 C53 147 208 -11 396 -11 C587 -11 744 144 744 333 C744 520 587 676 398 676 L398 676 Z M398 635 C563 635 699 498 699 333 C699 166 563 30 396 30 C325 30 251 60 195 111 C131 170 98 247 98 337 C98 498 236 635 398 635 L398 635 Z M292 816 L425 713 L460 739 L339 847 L292 816 Z " />
<glyph glyph-name="Oacute" unicode="&#xd3;" horiz-adv-x="798" d="M398 676 C213 676 53 519 53 338 C53 147 208 -11 396 -11 C587 -11 744 144 744 333 C744 520 587 676 398 676 L398 676 Z M398 635 C563 635 699 498 699 333 C699 166 563 30 396 30 C325 30 251 60 195 111 C131 170 98 247 98 337 C98 498 236 635 398 635 L398 635 Z M520 816 L474 847 L353 739 L388 713 L520 816 Z " />
<glyph glyph-name="Ocircumflex" unicode="&#xd4;" horiz-adv-x="798" d="M398 676 C213 676 53 519 53 338 C53 147 208 -11 396 -11 C587 -11 744 144 744 333 C744 520 587 676 398 676 L398 676 Z M398 635 C563 635 699 498 699 333 C699 166 563 30 396 30 C325 30 251 60 195 111 C131 170 98 247 98 337 C98 498 236 635 398 635 L398 635 Z M274 742 L310 714 L399 789 L487 714 L523 742 L399 847 L274 742 Z " />
<glyph glyph-name="Otilde" unicode="&#xd5;" horiz-adv-x="798" d="M398 676 C213 676 53 519 53 338 C53 147 208 -11 396 -11 C587 -11 744 144 744 333 C744 520 587 676 398 676 L398 676 Z M398 635 C563 635 699 498 699 333 C699 166 563 30 396 30 C325 30 251 60 195 111 C131 170 98 247 98 337 C98 498 236 635 398 635 L398 635 Z M304 734 C316 763 325 772 344 772 C357 772 368 769 405 753 C433 741 448 737 464 737 C498 737 521 756 535 797 L506 819 C494 790 484 781 466 781 C454 781 438 786 408 799 C377 812 364 816 347 816 C315 816 295 800 276 756 L304 734 Z " />
<glyph glyph-name="Odieresis" unicode="&#xd6;" horiz-adv-x="798" d="M398 676 C213 676 53 519 53 338 C53 147 208 -11 396 -11 C587 -11 744 144 744 333 C744 520 587 676 398 676 L398 676 Z M398 635 C563 635 699 498 699 333 C699 166 563 30 396 30 C325 30 251 60 195 111 C131 170 98 247 98 337 C98 498 236 635 398 635 L398 635 Z M306 815 C284 815 267 798 267 777 C267 755 284 738 306 738 C327 738 344 755 344 777 C344 798 327 815 306 815 L306 815 Z M492 815 C470 815 453 798 453 777 C453 755 470 738 492 738 C513 738 530 755 530 777 C530 798 513 815 492 815 L492 815 Z " />
<glyph glyph-name="multiply" unicode="&#xd7;" horiz-adv-x="547" d="M77 509 L246 340 L77 171 L104 144 L273 313 L443 144 L470 171 L301 340 L470 509 L443 537 L273 367 L104 537 L77 509 Z " />
<glyph glyph-name="Oslash" unicode="&#xd8;" horiz-adv-x="798" d="M60 23 L85 -4 L166 80 C238 18 313 -11 399 -11 C587 -11 744 146 744 332 C744 420 713 498 651 566 L731 647 L704 673 L623 592 C555 648 481 676 398 676 C211 676 53 519 53 334 C53 250 83 171 139 106 L60 23 Z M171 135 C122 193 98 259 98 333 C98 497 235 635 398 635 C468 635 535 610 592 563 L171 135 Z M619 538 C672 479 699 411 699 332 C699 168 562 30 399 30 C326 30 256 57 197 108 L619 538 Z " />
<glyph glyph-name="Ugrave" unicode="&#xd9;" horiz-adv-x="633" d="M133 667 L90 667 L90 238 C90 150 97 118 125 80 C165 24 238 -11 317 -11 C395 -11 468 24 508 80 C536 118 543 150 543 238 L543 667 L500 667 L500 250 C500 168 495 136 476 107 C447 62 381 30 317 30 C252 30 186 62 157 107 C138 136 133 168 133 250 L133 667 Z M205 816 L338 713 L373 739 L251 847 L205 816 Z " />
<glyph glyph-name="Uacute" unicode="&#xda;" horiz-adv-x="633" d="M133 667 L90 667 L90 238 C90 150 97 118 125 80 C165 24 238 -11 317 -11 C395 -11 468 24 508 80 C536 118 543 150 543 238 L543 667 L500 667 L500 250 C500 168 495 136 476 107 C447 62 381 30 317 30 C252 30 186 62 157 107 C138 136 133 168 133 250 L133 667 Z M435 816 L389 847 L267 739 L302 713 L435 816 Z " />
<glyph glyph-name="Ucircumflex" unicode="&#xdb;" horiz-adv-x="633" d="M133 667 L90 667 L90 238 C90 150 97 118 125 80 C165 24 238 -11 317 -11 C395 -11 468 24 508 80 C536 118 543 150 543 238 L543 667 L500 667 L500 250 C500 168 495 136 476 107 C447 62 381 30 317 30 C252 30 186 62 157 107 C138 136 133 168 133 250 L133 667 Z M192 742 L228 714 L317 789 L405 714 L441 742 L317 847 L192 742 Z " />
<glyph glyph-name="Udieresis" unicode="&#xdc;" horiz-adv-x="633" d="M133 667 L90 667 L90 238 C90 150 97 118 125 80 C165 24 238 -11 317 -11 C395 -11 468 24 508 80 C536 118 543 150 543 238 L543 667 L500 667 L500 250 C500 168 495 136 476 107 C447 62 381 30 317 30 C252 30 186 62 157 107 C138 136 133 168 133 250 L133 667 Z M224 815 C202 815 185 798 185 777 C185 755 202 738 224 738 C245 738 262 755 262 777 C262 798 245 815 224 815 L224 815 Z M410 815 C388 815 371 798 371 777 C371 755 388 738 410 738 C431 738 448 755 448 777 C448 798 431 815 410 815 L410 815 Z " />
<glyph glyph-name="Yacute" unicode="&#xdd;" horiz-adv-x="514" d="M231 285 L231 0 L274 0 L274 285 L499 667 L448 667 L253 332 L63 667 L13 667 L231 285 Z M375 816 L329 847 L207 739 L242 713 L375 816 Z " />
<glyph glyph-name="Thorn" unicode="&#xde;" horiz-adv-x="445" d="M133 217 L219 217 C339 217 412 283 412 392 C412 440 395 484 364 516 C330 552 286 567 218 567 L133 567 L133 667 L90 667 L90 0 L133 0 L133 217 Z M133 257 L133 527 L214 527 C269 527 305 516 331 490 C354 467 367 431 367 392 C367 310 309 257 220 257 L133 257 Z " />
<glyph glyph-name="germandbls" unicode="&#xdf;" horiz-adv-x="792" d="M323 378 C296 423 254 447 203 447 C132 447 80 399 80 333 C80 298 96 269 127 250 C145 239 167 228 213 207 C283 175 301 158 301 123 C301 70 253 27 195 27 C164 27 133 40 115 62 C106 73 101 82 88 108 L53 92 C82 23 127 -10 194 -10 C276 -10 342 50 342 123 C342 160 324 190 291 211 C270 224 254 232 199 257 C138 284 121 301 121 333 C121 377 156 410 202 410 C242 410 264 396 293 353 L323 378 Z M718 378 C692 423 650 447 599 447 C528 447 476 399 476 333 C476 298 492 269 523 250 C541 239 563 228 609 207 C679 175 697 158 697 123 C697 70 649 27 591 27 C560 27 529 40 511 62 C502 73 496 82 484 108 L449 92 C478 23 523 -10 590 -10 C672 -10 738 50 738 123 C738 160 720 190 687 211 C666 224 649 232 595 257 C534 284 517 301 517 333 C517 377 552 410 598 410 C638 410 660 396 688 353 L718 378 Z " />
<glyph glyph-name="agrave" unicode="&#xe0;" horiz-adv-x="419" d="M302 142 L361 0 L405 0 L210 466 L13 0 L57 0 L116 142 L302 142 Z M285 180 L133 180 L210 365 L285 180 Z M102 617 L207 489 L237 505 L145 642 L102 617 Z " />
<glyph glyph-name="aacute" unicode="&#xe1;" horiz-adv-x="419" d="M302 142 L361 0 L405 0 L210 466 L13 0 L57 0 L116 142 L302 142 Z M285 180 L133 180 L210 365 L285 180 Z M307 617 L264 642 L172 505 L202 489 L307 617 Z " />
<glyph glyph-name="acircumflex" unicode="&#xe2;" horiz-adv-x="419" d="M302 142 L361 0 L405 0 L210 466 L13 0 L57 0 L116 142 L302 142 Z M285 180 L133 180 L210 365 L285 180 Z M87 514 L119 489 L209 557 L297 489 L331 514 L209 608 L87 514 Z " />
<glyph glyph-name="atilde" unicode="&#xe3;" horiz-adv-x="419" d="M302 142 L361 0 L405 0 L210 466 L13 0 L57 0 L116 142 L302 142 Z M285 180 L133 180 L210 365 L285 180 Z M108 509 C117 534 128 545 147 545 C159 545 181 539 209 527 C244 512 252 510 264 510 C297 510 325 532 336 567 L311 587 C300 562 287 550 268 550 C257 550 241 555 211 568 C180 582 168 585 152 585 C121 585 99 567 82 528 L108 509 Z " />
<glyph glyph-name="adieresis" unicode="&#xe4;" horiz-adv-x="419" d="M302 142 L361 0 L405 0 L210 466 L13 0 L57 0 L116 142 L302 142 Z M285 180 L133 180 L210 365 L285 180 Z M127 584 C107 584 90 568 90 548 C90 527 106 511 127 511 C147 511 163 527 163 548 C163 568 147 584 127 584 L127 584 Z M293 584 C273 584 256 568 256 548 C256 527 272 511 293 511 C313 511 329 527 329 548 C329 568 313 584 293 584 L293 584 Z " />
<glyph glyph-name="aring" unicode="&#xe5;" horiz-adv-x="419" d="M302 142 L361 0 L405 0 L210 466 L13 0 L57 0 L116 142 L302 142 Z M285 180 L133 180 L210 365 L285 180 Z M209 648 C167 648 132 614 132 572 C132 529 166 495 209 495 C252 495 286 529 286 572 C286 614 252 648 209 648 L209 648 Z M209 612 C232 612 251 594 251 571 C251 548 232 530 209 530 C186 530 167 548 167 572 C167 594 186 612 209 612 L209 612 Z " />
<glyph glyph-name="ae" unicode="&#xe6;" horiz-adv-x="589" d="M296 141 L353 0 L582 0 L566 38 L382 38 L306 223 L486 223 L471 261 L291 261 L232 405 L416 405 L401 443 L192 443 L13 0 L57 0 L113 141 L296 141 Z M280 179 L129 179 L204 369 L280 179 Z " />
<glyph glyph-name="ccedilla" unicode="&#xe7;" horiz-adv-x="494" d="M441 387 C392 427 341 447 284 447 C155 447 47 343 47 218 C47 94 156 -10 286 -10 C341 -10 389 8 441 47 L441 103 C395 53 341 27 284 27 C179 27 88 115 88 217 C88 321 178 410 284 410 C342 410 394 384 441 330 L441 387 Z M333 -70 L284 -50 L202 -178 L235 -194 L333 -70 Z " />
<glyph glyph-name="egrave" unicode="&#xe8;" horiz-adv-x="375" d="M322 405 L322 443 L90 443 L90 0 L322 0 L322 38 L130 38 L130 223 L318 223 L318 261 L130 261 L130 405 L322 405 Z M100 617 L206 489 L235 505 L144 642 L100 617 Z " />
<glyph glyph-name="eacute" unicode="&#xe9;" horiz-adv-x="375" d="M322 405 L322 443 L90 443 L90 0 L322 0 L322 38 L130 38 L130 223 L318 223 L318 261 L130 261 L130 405 L322 405 Z M306 617 L262 642 L171 505 L200 489 L306 617 Z " />
<glyph glyph-name="ecircumflex" unicode="&#xea;" horiz-adv-x="375" d="M322 405 L322 443 L90 443 L90 0 L322 0 L322 38 L130 38 L130 223 L318 223 L318 261 L130 261 L130 405 L322 405 Z M86 514 L118 489 L207 557 L296 489 L329 514 L207 608 L86 514 Z " />
<glyph glyph-name="edieresis" unicode="&#xeb;" horiz-adv-x="375" d="M322 405 L322 443 L90 443 L90 0 L322 0 L322 38 L130 38 L130 223 L317 223 L317 261 L130 261 L130 405 L322 405 Z M125 584 C105 584 88 568 88 548 C88 527 104 511 125 511 C145 511 161 527 161 548 C161 568 145 584 125 584 L125 584 Z M291 584 C271 584 254 568 254 548 C254 527 270 511 291 511 C311 511 327 527 327 548 C327 568 311 584 291 584 L291 584 Z " />
<glyph glyph-name="igrave" unicode="&#xec;" horiz-adv-x="220" d="M130 443 L90 443 L90 0 L130 0 L130 443 Z M3 617 L108 489 L138 505 L47 642 L3 617 Z " />
<glyph glyph-name="iacute" unicode="&#xed;" horiz-adv-x="220" d="M130 443 L90 443 L90 0 L130 0 L130 443 Z M208 617 L164 642 L73 505 L102 489 L208 617 Z " />
<glyph glyph-name="icircumflex" unicode="&#xee;" horiz-adv-x="220" d="M130 443 L90 443 L90 0 L130 0 L130 443 Z M-12 514 L20 489 L109 557 L198 489 L231 514 L109 608 L-12 514 Z " />
<glyph glyph-name="idieresis" unicode="&#xef;" horiz-adv-x="220" d="M130 443 L90 443 L90 0 L130 0 L130 443 Z M51 584 C31 584 14 568 14 548 C14 527 30 511 51 511 C71 511 87 527 87 548 C87 568 71 584 51 584 L51 584 Z M170 584 C150 584 133 568 133 548 C133 527 149 511 170 511 C190 511 206 527 206 548 C206 568 190 584 170 584 L170 584 Z " />
<glyph glyph-name="eth" unicode="&#xf0;" horiz-adv-x="469" d="M90 204 L90 0 L188 0 C258 0 311 19 355 62 C398 104 422 160 422 222 C422 283 398 340 355 381 C311 424 259 443 188 443 L90 443 L90 242 L33 242 L33 204 L90 204 Z M130 204 L242 204 L242 242 L130 242 L130 405 L187 405 C301 405 381 329 381 221 C381 114 301 38 187 38 L130 38 L130 204 Z " />
<glyph glyph-name="ntilde" unicode="&#xf1;" horiz-adv-x="595" d="M90 0 L130 0 L130 359 L505 -20 L505 443 L465 443 L465 78 L90 457 L90 0 Z M197 509 C205 534 217 545 235 545 C247 545 269 539 298 527 C333 512 341 510 353 510 C385 510 413 532 425 567 L399 587 C389 562 375 550 357 550 C345 550 330 555 300 568 C268 582 256 585 241 585 C210 585 188 567 170 528 L197 509 Z " />
<glyph glyph-name="ograve" unicode="&#xf2;" horiz-adv-x="566" d="M283 447 C156 447 47 343 47 222 C47 95 153 -10 282 -10 C413 -10 520 93 520 219 C520 344 413 447 283 447 L283 447 Z M283 410 C390 410 479 323 479 219 C479 113 390 27 282 27 C175 27 88 115 88 222 C88 323 178 410 283 410 L283 410 Z M176 617 L281 489 L311 505 L219 642 L176 617 Z " />
<glyph glyph-name="oacute" unicode="&#xf3;" horiz-adv-x="566" d="M283 447 C156 447 47 343 47 222 C47 95 153 -10 282 -10 C413 -10 520 93 520 219 C520 344 413 447 283 447 L283 447 Z M283 410 C390 410 479 323 479 219 C479 113 390 27 282 27 C175 27 88 115 88 222 C88 323 178 410 283 410 L283 410 Z M381 617 L338 642 L247 505 L276 489 L381 617 Z " />
<glyph glyph-name="ocircumflex" unicode="&#xf4;" horiz-adv-x="566" d="M283 447 C156 447 47 343 47 222 C47 95 153 -10 282 -10 C413 -10 520 93 520 219 C520 344 413 447 283 447 L283 447 Z M283 410 C390 410 479 323 479 219 C479 113 390 27 282 27 C175 27 88 115 88 222 C88 323 178 410 283 410 L283 410 Z M162 514 L193 489 L283 557 L372 489 L405 514 L283 608 L162 514 Z " />
<glyph glyph-name="otilde" unicode="&#xf5;" horiz-adv-x="566" d="M283 447 C156 447 47 343 47 222 C47 95 153 -10 282 -10 C413 -10 520 93 520 219 C520 344 413 447 283 447 L283 447 Z M283 410 C390 410 479 323 479 219 C479 113 390 27 282 27 C175 27 88 115 88 222 C88 323 178 410 283 410 L283 410 Z M182 509 C191 534 203 545 221 545 C233 545 255 539 283 527 C318 512 326 510 339 510 C371 510 399 532 411 567 L385 587 C375 562 361 550 342 550 C331 550 315 555 285 568 C254 582 242 585 226 585 C196 585 173 567 156 528 L182 509 Z " />
<glyph glyph-name="odieresis" unicode="&#xf6;" horiz-adv-x="566" d="M283 447 C156 447 47 343 47 222 C47 95 153 -10 282 -10 C413 -10 520 93 520 219 C520 344 413 447 283 447 L283 447 Z M283 410 C390 410 479 323 479 219 C479 113 390 27 282 27 C175 27 88 115 88 222 C88 323 178 410 283 410 L283 410 Z M201 584 C181 584 164 568 164 548 C164 527 180 511 201 511 C221 511 237 527 237 548 C237 568 221 584 201 584 L201 584 Z M367 584 C347 584 330 568 330 548 C330 527 346 511 367 511 C387 511 403 527 403 548 C403 568 387 584 367 584 L367 584 Z " />
<glyph glyph-name="divide" unicode="&#xf7;" horiz-adv-x="547" d="M31 320 L515 320 L515 360 L31 360 L31 320 Z M273 267 C253 267 236 251 236 231 C236 210 252 194 273 194 C293 194 309 210 309 231 C309 251 293 267 273 267 L273 267 Z M273 480 C253 480 236 464 236 444 C236 423 252 407 273 407 C293 407 309 423 309 444 C309 464 293 480 273 480 L273 480 Z " />
<glyph glyph-name="oslash" unicode="&#xf8;" horiz-adv-x="579" d="M440 393 C395 429 344 447 289 447 C161 447 53 343 53 219 C53 163 74 110 114 66 L58 11 L82 -13 L139 43 C184 8 235 -10 290 -10 C418 -10 526 94 526 218 C526 275 506 325 466 369 L521 424 L496 449 L440 393 Z M141 94 C110 130 94 173 94 219 C94 323 183 410 289 410 C334 410 372 396 412 366 L141 94 Z M438 342 C470 305 485 265 485 218 C485 114 396 27 290 27 C245 27 204 42 166 71 L438 342 Z " />
<glyph glyph-name="ugrave" unicode="&#xf9;" horiz-adv-x="499" d="M130 443 L90 443 L90 157 C90 99 95 78 115 51 C143 12 193 -10 250 -10 C306 -10 356 12 384 51 C404 78 409 99 409 157 L409 443 L369 443 L369 165 C369 112 366 93 353 74 C335 46 293 27 250 27 C206 27 164 46 145 74 C133 93 130 112 130 165 L130 443 Z M142 617 L247 489 L277 505 L186 642 L142 617 Z " />
<glyph glyph-name="uacute" unicode="&#xfa;" horiz-adv-x="499" d="M130 443 L90 443 L90 157 C90 99 95 78 115 51 C143 12 193 -10 250 -10 C306 -10 356 12 384 51 C404 78 409 99 409 157 L409 443 L369 443 L369 165 C369 112 366 93 353 74 C335 46 293 27 250 27 C206 27 164 46 145 74 C133 93 130 112 130 165 L130 443 Z M348 617 L304 642 L213 505 L242 489 L348 617 Z " />
<glyph glyph-name="ucircumflex" unicode="&#xfb;" horiz-adv-x="499" d="M130 443 L90 443 L90 157 C90 99 95 78 115 51 C143 12 193 -10 250 -10 C306 -10 356 12 384 51 C404 78 409 99 409 157 L409 443 L369 443 L369 165 C369 112 366 93 353 74 C335 46 293 27 250 27 C206 27 164 46 145 74 C133 93 130 112 130 165 L130 443 Z M128 514 L159 489 L249 557 L338 489 L371 514 L249 608 L128 514 Z " />
<glyph glyph-name="udieresis" unicode="&#xfc;" horiz-adv-x="499" d="M130 443 L90 443 L90 157 C90 99 95 78 115 51 C143 12 193 -10 250 -10 C306 -10 356 12 384 51 C404 78 409 99 409 157 L409 443 L369 443 L369 165 C369 112 366 93 353 74 C335 46 293 27 250 27 C206 27 164 46 145 74 C133 93 130 112 130 165 L130 443 Z M167 584 C147 584 130 568 130 548 C130 527 146 511 167 511 C187 511 203 527 203 548 C203 568 187 584 167 584 L167 584 Z M333 584 C313 584 296 568 296 548 C296 527 312 511 333 511 C353 511 369 527 369 548 C369 568 353 584 333 584 L333 584 Z " />
<glyph glyph-name="yacute" unicode="&#xfd;" horiz-adv-x="376" d="M165 189 L165 0 L205 0 L205 188 L362 443 L315 443 L186 230 L59 443 L13 443 L165 189 Z M286 617 L242 642 L151 505 L180 489 L286 617 Z " />
<glyph glyph-name="thorn" unicode="&#xfe;" horiz-adv-x="357" d="M130 105 L186 105 C271 105 324 150 324 224 C324 256 312 286 290 308 C265 332 234 343 186 343 L130 343 L130 443 L90 443 L90 0 L130 0 L130 105 Z M130 143 L130 305 L183 305 C249 305 283 277 283 224 C283 175 246 143 187 143 L130 143 Z " />
<glyph glyph-name="ydieresis" unicode="&#xff;" horiz-adv-x="376" d="M165 189 L165 0 L205 0 L205 188 L362 443 L315 443 L186 230 L59 443 L13 443 L165 189 Z M105 584 C85 584 68 568 68 548 C68 527 84 511 105 511 C125 511 141 527 141 548 C141 568 125 584 105 584 L105 584 Z M271 584 C251 584 234 568 234 548 C234 527 250 511 271 511 C291 511 307 527 307 548 C307 568 291 584 271 584 L271 584 Z " />
<glyph glyph-name="Amacron" unicode="&#x100;" horiz-adv-x="584" d="M434 219 L522 0 L571 0 L293 687 L13 0 L61 0 L150 219 L434 219 Z M418 259 L166 259 L293 575 L418 259 Z M155 797 L155 754 L429 754 L429 797 L155 797 Z " />
<glyph glyph-name="amacron" unicode="&#x101;" horiz-adv-x="419" d="M302 142 L361 0 L405 0 L210 466 L13 0 L57 0 L116 142 L302 142 Z M285 180 L133 180 L210 365 L285 180 Z M92 554 L92 515 L326 515 L326 554 L92 554 Z " />
<glyph glyph-name="Abreve" unicode="&#x102;" horiz-adv-x="584" d="M434 219 L522 0 L571 0 L293 687 L13 0 L61 0 L150 219 L434 219 Z M418 259 L166 259 L293 575 L418 259 Z M168 835 C177 762 224 717 292 717 C360 717 407 762 416 835 L374 835 C361 784 335 761 292 761 C248 761 223 784 210 835 L168 835 Z " />
<glyph glyph-name="abreve" unicode="&#x103;" horiz-adv-x="419" d="M302 142 L361 0 L405 0 L210 466 L13 0 L57 0 L116 142 L302 142 Z M285 180 L133 180 L210 365 L285 180 Z M84 595 C93 538 141 501 209 501 C277 501 325 538 334 595 L296 595 C282 557 255 540 209 540 C164 540 136 557 122 595 L84 595 Z " />
<glyph glyph-name="Aogonek" unicode="&#x104;" horiz-adv-x="584" d="M293 687 L13 0 L61 0 L150 219 L434 219 L522 0 C461 -37 443 -62 443 -106 C443 -156 476 -187 530 -187 C551 -187 565 -184 589 -174 L599 -133 C573 -147 560 -151 540 -151 C507 -151 489 -133 489 -101 C489 -64 513 -35 571 0 L293 687 Z M418 259 L166 259 L293 575 L418 259 Z " />
<glyph glyph-name="aogonek" unicode="&#x105;" horiz-adv-x="419" d="M210 466 L13 0 L57 0 L116 142 L302 142 L361 0 L365 0 C317 -34 299 -62 299 -98 C299 -145 340 -181 394 -181 C407 -181 417 -179 440 -173 L449 -137 C420 -144 410 -146 396 -146 C361 -146 337 -126 337 -96 C337 -67 354 -43 405 0 L210 466 Z M285 180 L133 180 L210 365 L285 180 Z " />
<glyph glyph-name="Cacute" unicode="&#x106;" horiz-adv-x="677" d="M623 590 C553 649 484 676 399 676 C211 676 53 519 53 332 C53 146 212 -11 401 -11 C482 -11 550 14 623 72 L623 130 C598 104 586 93 565 81 C515 49 451 30 398 30 C331 30 260 58 202 107 C135 164 98 242 98 330 C98 494 236 635 398 635 C446 635 499 621 545 595 C576 578 592 565 623 530 L623 590 Z M513 816 L467 847 L345 739 L380 713 L513 816 Z " />
<glyph glyph-name="cacute" unicode="&#x107;" horiz-adv-x="494" d="M441 387 C392 427 341 447 284 447 C155 447 47 343 47 218 C47 94 156 -10 286 -10 C341 -10 389 8 441 47 L441 103 C395 53 341 27 284 27 C179 27 88 115 88 217 C88 321 178 410 284 410 C342 410 394 384 441 330 L441 387 Z M386 617 L342 642 L251 505 L280 489 L386 617 Z " />
<glyph glyph-name="Ccircumflex" unicode="&#x108;" horiz-adv-x="677" d="M623 590 C553 649 484 676 399 676 C211 676 53 519 53 332 C53 146 212 -11 401 -11 C482 -11 550 14 623 72 L623 130 C598 104 586 93 565 81 C515 49 451 30 398 30 C331 30 260 58 202 107 C135 164 98 242 98 330 C98 494 236 635 398 635 C446 635 499 621 545 595 C576 578 592 565 623 530 L623 590 Z M273 742 L309 714 L398 789 L487 714 L523 742 L398 847 L273 742 Z " />
<glyph glyph-name="Cdotaccent" unicode="&#x10a;" horiz-adv-x="677" d="M623 590 C553 649 484 676 399 676 C211 676 53 519 53 332 C53 146 212 -11 401 -11 C482 -11 550 14 623 72 L623 130 C598 104 586 93 565 81 C515 49 451 30 398 30 C331 30 260 58 202 107 C135 164 98 242 98 330 C98 494 236 635 398 635 C446 635 499 621 545 595 C576 578 592 565 623 530 L623 590 Z M397 819 C374 819 356 801 356 779 C356 756 374 738 397 738 C419 738 437 756 437 779 C437 801 419 819 397 819 L397 819 Z " />
<glyph glyph-name="cdotaccent" unicode="&#x10b;" horiz-adv-x="494" d="M441 387 C392 427 341 447 284 447 C155 447 47 343 47 218 C47 94 156 -10 286 -10 C341 -10 389 8 441 47 L441 103 C395 53 341 27 284 27 C179 27 88 115 88 217 C88 321 178 410 284 410 C342 410 394 384 441 330 L441 387 Z M287 588 C266 588 249 571 249 550 C249 528 266 511 288 511 C309 511 326 528 326 550 C326 571 309 588 287 588 L287 588 Z " />
<glyph glyph-name="Ccaron" unicode="&#x10c;" horiz-adv-x="677" d="M623 590 C553 649 484 676 399 676 C211 676 53 519 53 332 C53 146 212 -11 401 -11 C482 -11 550 14 623 72 L623 130 C598 104 586 93 565 81 C515 49 451 30 398 30 C331 30 260 58 202 107 C135 164 98 242 98 330 C98 494 236 635 398 635 C446 635 499 621 545 595 C576 578 592 565 623 530 L623 590 Z M523 819 L487 847 L398 773 L309 847 L273 819 L398 714 L523 819 Z " />
<glyph glyph-name="ccaron" unicode="&#x10d;" horiz-adv-x="494" d="M441 387 C392 427 341 447 284 447 C155 447 47 343 47 218 C47 94 156 -10 286 -10 C341 -10 389 8 441 47 L441 103 C395 53 341 27 284 27 C179 27 88 115 88 217 C88 321 178 410 284 410 C342 410 394 384 441 330 L441 387 Z M409 581 L377 607 L288 539 L199 607 L166 581 L288 487 L409 581 Z " />
<glyph glyph-name="Dcaron" unicode="&#x10e;" horiz-adv-x="617" d="M90 0 L222 0 C325 0 402 29 466 93 C529 155 564 241 564 334 C564 427 529 512 466 575 C402 638 326 667 222 667 L90 667 L90 0 Z M133 40 L133 627 L221 627 C395 627 519 506 519 334 C519 249 487 171 429 117 C374 65 306 40 221 40 L133 40 Z M391 819 L355 847 L266 773 L178 847 L142 819 L266 714 L391 819 Z " />
<glyph glyph-name="dcaron" unicode="&#x10f;" horiz-adv-x="469" d="M90 0 L188 0 C258 0 311 19 355 62 C398 104 422 160 422 222 C422 283 398 340 355 381 C311 424 259 443 188 443 L90 443 L90 0 Z M130 38 L130 405 L187 405 C301 405 381 329 381 221 C381 114 301 38 187 38 L130 38 Z M336 581 L304 607 L215 539 L126 607 L93 581 L215 487 L336 581 Z " />
<glyph glyph-name="Dcroat" unicode="&#x110;" horiz-adv-x="617" d="M90 0 L222 0 C325 0 402 29 466 93 C529 155 564 240 564 333 C564 426 529 512 466 575 C402 638 326 667 222 667 L90 667 L90 383 L23 383 L23 343 L90 343 L90 0 Z M133 40 L133 343 L300 343 L300 383 L133 383 L133 627 L221 627 C396 627 519 505 519 333 C519 161 396 40 221 40 L133 40 Z " />
<glyph glyph-name="dcroat" unicode="&#x111;" horiz-adv-x="469" d="M90 204 L90 0 L188 0 C258 0 311 19 355 62 C398 104 422 160 422 222 C422 283 398 340 355 381 C311 424 259 443 188 443 L90 443 L90 242 L33 242 L33 204 L90 204 Z M130 204 L242 204 L242 242 L130 242 L130 405 L187 405 C301 405 381 329 381 221 C381 114 301 38 187 38 L130 38 L130 204 Z " />
<glyph glyph-name="Emacron" unicode="&#x112;" horiz-adv-x="463" d="M409 627 L409 667 L90 667 L90 0 L409 0 L409 40 L133 40 L133 345 L403 345 L403 385 L133 385 L133 627 L409 627 Z M113 797 L113 754 L387 754 L387 797 L113 797 Z " />
<glyph glyph-name="emacron" unicode="&#x113;" horiz-adv-x="375" d="M322 405 L322 443 L90 443 L90 0 L322 0 L322 38 L130 38 L130 223 L318 223 L318 261 L130 261 L130 405 L322 405 Z M89 554 L89 515 L322 515 L322 554 L89 554 Z " />
<glyph glyph-name="Ebreve" unicode="&#x114;" horiz-adv-x="463" d="M409 627 L409 667 L90 667 L90 0 L409 0 L409 40 L133 40 L133 345 L403 345 L403 385 L133 385 L133 627 L409 627 Z M127 835 C136 762 183 717 251 717 C319 717 366 762 375 835 L333 835 C320 784 294 761 251 761 C208 761 182 784 169 835 L127 835 Z " />
<glyph glyph-name="ebreve" unicode="&#x115;" horiz-adv-x="375" d="M322 405 L322 443 L90 443 L90 0 L322 0 L322 38 L130 38 L130 223 L318 223 L318 261 L130 261 L130 405 L322 405 Z M71 595 C80 538 128 501 196 501 C264 501 312 538 321 595 L283 595 C269 557 242 540 196 540 C151 540 123 557 109 595 L71 595 Z " />
<glyph glyph-name="Edotaccent" unicode="&#x116;" horiz-adv-x="463" d="M409 627 L409 667 L90 667 L90 0 L409 0 L409 40 L133 40 L133 345 L403 345 L403 385 L133 385 L133 627 L409 627 Z M251 819 C228 819 210 801 210 779 C210 756 228 738 251 738 C273 738 291 756 291 779 C291 801 273 819 251 819 L251 819 Z " />
<glyph glyph-name="edotaccent" unicode="&#x117;" horiz-adv-x="375" d="M322 405 L322 443 L90 443 L90 0 L322 0 L322 38 L130 38 L130 223 L318 223 L318 261 L130 261 L130 405 L322 405 Z M207 588 C186 588 169 571 169 550 C169 528 186 511 208 511 C229 511 246 528 246 550 C246 571 229 588 207 588 L207 588 Z " />
<glyph glyph-name="Eogonek" unicode="&#x118;" horiz-adv-x="463" d="M409 40 L133 40 L133 345 L403 345 L403 385 L133 385 L133 627 L409 627 L409 667 L90 667 L90 0 L363 0 C304 -31 281 -62 281 -106 C281 -156 314 -187 369 -187 C389 -187 402 -184 427 -174 L437 -133 C411 -147 399 -151 379 -151 C345 -151 327 -133 327 -101 C327 -65 349 -37 409 0 L409 40 Z " />
<glyph glyph-name="eogonek" unicode="&#x119;" horiz-adv-x="375" d="M322 38 L130 38 L130 223 L318 223 L318 261 L130 261 L130 405 L322 405 L322 443 L90 443 L90 0 L282 0 C235 -34 216 -62 216 -98 C216 -145 257 -181 311 -181 C324 -181 334 -179 357 -173 L366 -137 C337 -144 327 -146 314 -146 C278 -146 254 -126 254 -96 C254 -71 273 -41 307 -13 L312 -8 C314 -7 318 -4 322 0 L322 38 Z " />
<glyph glyph-name="Ecaron" unicode="&#x11a;" horiz-adv-x="463" d="M409 627 L409 667 L90 667 L90 0 L409 0 L409 40 L133 40 L133 345 L403 345 L403 385 L133 385 L133 627 L409 627 Z M376 819 L340 847 L251 773 L162 847 L126 819 L251 714 L376 819 Z " />
<glyph glyph-name="ecaron" unicode="&#x11b;" horiz-adv-x="375" d="M322 405 L322 443 L90 443 L90 0 L322 0 L322 38 L130 38 L130 223 L318 223 L318 261 L130 261 L130 405 L322 405 Z M329 581 L298 607 L208 539 L119 607 L86 581 L208 487 L329 581 Z " />
<glyph glyph-name="Gcircumflex" unicode="&#x11c;" horiz-adv-x="771" d="M437 320 L437 280 L671 280 C669 223 661 190 641 158 C596 84 494 30 397 30 C234 30 97 166 97 330 C97 495 235 635 399 635 C468 635 540 609 591 564 C612 547 627 530 655 493 L690 520 C656 562 637 583 610 604 C551 651 477 676 401 676 C210 676 53 521 53 331 C53 144 209 -11 398 -11 C514 -11 628 51 681 143 C709 191 718 234 718 320 L437 320 Z M279 742 L314 714 L403 789 L492 714 L528 742 L403 847 L279 742 Z " />
<glyph glyph-name="gcircumflex" unicode="&#x11d;" horiz-adv-x="552" d="M309 217 L309 179 L460 179 C459 148 453 127 441 108 C412 61 346 27 283 27 C177 27 88 114 88 217 C88 322 178 410 284 410 C329 410 377 393 409 365 C424 352 436 339 455 314 L487 339 C425 416 366 447 285 447 C154 447 47 344 47 218 C47 93 154 -10 283 -10 C362 -10 441 32 477 93 C497 126 503 154 503 217 L309 217 Z M168 514 L200 489 L289 557 L378 489 L411 514 L289 608 L168 514 Z " />
<glyph glyph-name="Gbreve" unicode="&#x11e;" horiz-adv-x="771" d="M437 320 L437 280 L671 280 C669 223 661 190 641 158 C596 84 494 30 397 30 C234 30 97 166 97 330 C97 495 235 635 399 635 C468 635 540 609 591 564 C612 547 627 530 655 493 L690 520 C656 562 637 583 610 604 C551 651 477 676 401 676 C210 676 53 521 53 331 C53 144 209 -11 398 -11 C514 -11 628 51 681 143 C709 191 718 234 718 320 L437 320 Z M278 835 C287 762 334 717 402 717 C470 717 517 762 526 835 L484 835 C471 784 445 761 402 761 C359 761 333 784 320 835 L278 835 Z " />
<glyph glyph-name="gbreve" unicode="&#x11f;" horiz-adv-x="552" d="M309 217 L309 179 L460 179 C459 148 453 127 441 108 C412 61 346 27 283 27 C177 27 88 114 88 217 C88 322 178 410 284 410 C329 410 377 393 409 365 C424 352 436 339 455 314 L487 339 C425 416 366 447 285 447 C154 447 47 344 47 218 C47 93 154 -10 283 -10 C362 -10 441 32 477 93 C497 126 503 154 503 217 L309 217 Z M165 595 C173 538 222 501 290 501 C357 501 406 538 415 595 L377 595 C362 557 335 540 290 540 C244 540 217 557 203 595 L165 595 Z " />
<glyph glyph-name="Gdotaccent" unicode="&#x120;" horiz-adv-x="771" d="M437 320 L437 280 L671 280 C669 223 661 190 641 158 C596 84 494 30 397 30 C234 30 97 166 97 330 C97 495 235 635 399 635 C468 635 540 609 591 564 C612 547 627 530 655 493 L690 520 C656 562 637 583 610 604 C551 651 477 676 401 676 C210 676 53 521 53 331 C53 144 209 -11 398 -11 C514 -11 628 51 681 143 C709 191 718 234 718 320 L437 320 Z M402 819 C379 819 361 801 361 779 C361 756 379 738 402 738 C424 738 442 756 442 779 C442 801 424 819 402 819 L402 819 Z " />
<glyph glyph-name="gdotaccent" unicode="&#x121;" horiz-adv-x="552" d="M309 217 L309 179 L460 179 C459 148 453 127 441 108 C412 61 346 27 283 27 C177 27 88 114 88 217 C88 322 178 410 284 410 C329 410 377 393 409 365 C424 352 436 339 455 314 L487 339 C425 416 366 447 285 447 C154 447 47 344 47 218 C47 93 154 -10 283 -10 C362 -10 441 32 477 93 C497 126 503 154 503 217 L309 217 Z M289 588 C268 588 251 571 251 550 C251 528 268 511 290 511 C311 511 328 528 328 550 C328 571 311 588 289 588 L289 588 Z " />
<glyph glyph-name="Gcommaaccent" unicode="&#x122;" horiz-adv-x="771" d="M437 320 L437 280 L671 280 C669 223 661 190 641 158 C596 84 494 30 397 30 C234 30 97 166 97 330 C97 495 235 635 399 635 C468 635 540 609 591 564 C612 547 627 530 655 493 L690 520 C656 562 637 583 610 604 C551 651 477 676 401 676 C210 676 53 521 53 331 C53 144 209 -11 398 -11 C514 -11 628 51 681 143 C709 191 718 234 718 320 L437 320 Z M369 -47 L326 -195 L357 -205 L418 -60 L369 -47 Z " />
<glyph glyph-name="gcommaaccent" unicode="&#x123;" horiz-adv-x="552" d="M309 217 L309 179 L460 179 C459 148 453 127 441 108 C412 61 346 27 283 27 C177 27 88 114 88 217 C88 322 178 410 284 410 C329 410 377 393 409 365 C424 352 436 339 455 314 L487 339 C425 416 366 447 285 447 C154 447 47 344 47 218 C47 93 154 -10 283 -10 C362 -10 441 32 477 93 C497 126 503 154 503 217 L309 217 Z M264 -49 L219 -194 L251 -205 L304 -60 L264 -49 Z " />
<glyph glyph-name="Hcircumflex" unicode="&#x124;" horiz-adv-x="671" d="M133 384 L133 667 L90 667 L90 0 L133 0 L133 344 L538 344 L538 0 L581 0 L581 667 L538 667 L538 384 L133 384 Z M211 742 L246 714 L335 789 L424 714 L460 742 L335 847 L211 742 Z " />
<glyph glyph-name="Hbar" unicode="&#x126;" horiz-adv-x="671" d="M537 667 L537 554 L133 554 L133 667 L90 667 L90 554 L23 554 L23 514 L90 514 L90 0 L133 0 L133 344 L537 344 L537 0 L580 0 L580 514 L647 514 L647 554 L580 554 L580 667 L537 667 Z M537 514 L537 384 L133 384 L133 514 L537 514 Z " />
<glyph glyph-name="hbar" unicode="&#x127;" horiz-adv-x="523" d="M393 380 L130 380 L130 443 L90 443 L90 380 L40 380 L40 342 L90 342 L90 0 L130 0 L130 222 L393 222 L393 0 L433 0 L433 342 L483 342 L483 380 L433 380 L433 443 L393 443 L393 380 Z M393 342 L393 260 L130 260 L130 342 L393 342 Z " />
<glyph glyph-name="Imacron" unicode="&#x12a;" horiz-adv-x="223" d="M133 667 L90 667 L90 0 L133 0 L133 667 Z M12 797 L12 754 L212 754 L212 797 L12 797 Z " />
<glyph glyph-name="imacron" unicode="&#x12b;" horiz-adv-x="220" d="M130 443 L90 443 L90 0 L130 0 L130 443 Z M-7 554 L-7 515 L226 515 L226 554 L-7 554 Z " />
<glyph glyph-name="ibreve" unicode="&#x12d;" horiz-adv-x="220" d="M130 443 L90 443 L90 0 L130 0 L130 443 Z M-15 595 C-6 538 42 501 110 501 C178 501 226 538 235 595 L197 595 C183 557 156 540 110 540 C65 540 37 557 23 595 L-15 595 Z " />
<glyph glyph-name="Iogonek" unicode="&#x12e;" horiz-adv-x="223" d="M133 667 L90 667 L90 0 C53 -28 35 -61 35 -103 C35 -154 67 -187 115 -187 C132 -187 143 -184 158 -176 L168 -135 C148 -147 139 -150 125 -150 C97 -150 81 -131 81 -98 C81 -58 97 -29 133 0 L133 667 Z " />
<glyph glyph-name="iogonek" unicode="&#x12f;" horiz-adv-x="220" d="M130 443 L90 443 L90 0 C43 -34 24 -62 24 -99 C24 -145 65 -181 119 -181 C132 -181 141 -180 165 -173 L174 -137 C145 -144 135 -146 121 -146 C86 -146 62 -126 62 -96 C62 -67 79 -43 130 0 L130 443 Z " />
<glyph glyph-name="Idotaccent" unicode="&#x130;" horiz-adv-x="223" d="M133 667 L90 667 L90 0 L133 0 L133 667 Z M112 819 C89 819 71 801 71 779 C71 756 89 738 112 738 C134 738 152 756 152 779 C152 801 134 819 112 819 L112 819 Z " />
<glyph glyph-name="dotlessi" unicode="&#x131;" horiz-adv-x="220" d="M130 443 L90 443 L90 0 L130 0 L130 443 Z " />
<glyph glyph-name="IJ" unicode="&#x132;" horiz-adv-x="485" d="M133 667 L90 667 L90 0 L133 0 L133 667 Z M395 667 L352 667 L352 2 C352 -65 329 -98 282 -98 C247 -98 218 -79 199 -43 L167 -67 C191 -114 230 -139 280 -139 C319 -139 354 -122 373 -94 C389 -70 395 -46 395 2 L395 667 Z " />
<glyph glyph-name="Kcommaaccent" unicode="&#x136;" horiz-adv-x="539" d="M133 357 L133 667 L90 667 L90 0 L133 0 L133 301 L149 317 L462 0 L526 0 L179 345 L505 667 L446 667 L133 357 Z M265 -47 L222 -195 L253 -205 L314 -60 L265 -47 Z " />
<glyph glyph-name="kcommaaccent" unicode="&#x137;" horiz-adv-x="419" d="M130 245 L130 443 L90 443 L90 0 L130 0 L130 198 L138 206 L348 0 L406 0 L169 232 L393 443 L337 443 L130 245 Z M197 -49 L152 -194 L184 -205 L237 -60 L197 -49 Z " />
<glyph glyph-name="Lacute" unicode="&#x139;" horiz-adv-x="315" d="M133 667 L90 667 L90 0 L302 0 L302 40 L133 40 L133 667 Z M253 816 L207 847 L85 739 L120 713 L253 816 Z " />
<glyph glyph-name="lacute" unicode="&#x13a;" horiz-adv-x="266" d="M130 443 L90 443 L90 0 L252 0 L252 38 L130 38 L130 443 Z M231 617 L188 642 L96 505 L126 489 L231 617 Z " />
<glyph glyph-name="Lcommaaccent" unicode="&#x13b;" horiz-adv-x="315" d="M133 667 L90 667 L90 0 L302 0 L302 40 L133 40 L133 667 Z M180 -47 L137 -195 L168 -205 L229 -60 L180 -47 Z " />
<glyph glyph-name="lcommaaccent" unicode="&#x13c;" horiz-adv-x="266" d="M130 443 L90 443 L90 0 L252 0 L252 38 L130 38 L130 443 Z M147 -49 L102 -194 L134 -205 L187 -60 L147 -49 Z " />
<glyph glyph-name="Lcaron" unicode="&#x13d;" horiz-adv-x="315" d="M133 667 L90 667 L90 0 L302 0 L302 40 L133 40 L133 667 Z M231 674 L188 518 L219 509 L280 660 L231 674 Z " />
<glyph glyph-name="lcaron" unicode="&#x13e;" horiz-adv-x="266" d="M130 443 L90 443 L90 0 L252 0 L252 38 L130 38 L130 443 Z M217 447 L172 301 L204 290 L257 435 L217 447 Z " />
<glyph glyph-name="Ldot" unicode="&#x13f;" horiz-adv-x="315" d="M133 667 L90 667 L90 0 L302 0 L302 40 L133 40 L133 667 Z M270 388 C244 388 222 367 222 341 C222 314 243 293 270 293 C296 293 317 314 317 341 C317 367 296 388 270 388 L270 388 Z " />
<glyph glyph-name="ldot" unicode="&#x140;" horiz-adv-x="266" d="M130 443 L90 443 L90 0 L252 0 L252 38 L130 38 L130 443 Z M219 263 C199 263 182 247 182 227 C182 206 198 190 219 190 C239 190 255 206 255 227 C255 247 239 263 219 263 L219 263 Z " />
<glyph glyph-name="Lslash" unicode="&#x141;" horiz-adv-x="315" d="M133 370 L133 667 L90 667 L90 348 L22 296 L22 248 L90 300 L90 0 L302 0 L302 40 L133 40 L133 322 L246 406 L246 453 L133 370 Z " />
<glyph glyph-name="lslash" unicode="&#x142;" horiz-adv-x="266" d="M130 242 L130 443 L90 443 L90 214 L47 183 L47 135 L90 166 L90 0 L253 0 L253 38 L130 38 L130 194 L220 257 L220 305 L130 242 Z " />
<glyph glyph-name="Nacute" unicode="&#x143;" horiz-adv-x="783" d="M90 0 L133 0 L133 569 L693 -17 L693 667 L650 667 L650 88 L90 674 L90 0 Z M513 816 L467 847 L345 739 L380 713 L513 816 Z " />
<glyph glyph-name="nacute" unicode="&#x144;" horiz-adv-x="595" d="M90 0 L130 0 L130 359 L505 -20 L505 443 L465 443 L465 78 L90 457 L90 0 Z M396 617 L352 642 L261 505 L290 489 L396 617 Z " />
<glyph glyph-name="Ncommaaccent" unicode="&#x145;" horiz-adv-x="783" d="M90 0 L133 0 L133 569 L693 -17 L693 667 L650 667 L650 88 L90 674 L90 0 Z M372 -47 L329 -195 L360 -205 L421 -60 L372 -47 Z " />
<glyph glyph-name="ncommaaccent" unicode="&#x146;" horiz-adv-x="595" d="M90 0 L130 0 L130 359 L505 -20 L505 443 L465 443 L465 78 L90 457 L90 0 Z M285 -49 L241 -194 L272 -205 L325 -60 L285 -49 Z " />
<glyph glyph-name="Ncaron" unicode="&#x147;" horiz-adv-x="783" d="M90 0 L133 0 L133 569 L693 -17 L693 667 L650 667 L650 88 L90 674 L90 0 Z M516 819 L480 847 L391 773 L303 847 L267 819 L391 714 L516 819 Z " />
<glyph glyph-name="ncaron" unicode="&#x148;" horiz-adv-x="595" d="M90 0 L130 0 L130 359 L505 -20 L505 443 L465 443 L465 78 L90 457 L90 0 Z M419 581 L388 607 L298 539 L209 607 L176 581 L298 487 L419 581 Z " />
<glyph glyph-name="napostrophe" unicode="&#x149;" horiz-adv-x="595" d="M90 0 L130 0 L130 359 L505 -20 L505 443 L465 443 L465 78 L90 457 L90 0 Z M35 447 L-10 301 L22 290 L75 435 L35 447 Z " />
<glyph glyph-name="Eng" unicode="&#x14a;" horiz-adv-x="671" d="M90 667 L90 0 L133 0 L133 367 C133 456 143 501 172 546 C210 604 273 636 351 636 C421 636 482 609 510 566 C531 534 538 497 538 420 L538 78 C538 -49 499 -100 400 -100 C383 -100 371 -98 345 -93 L345 -130 C370 -137 382 -139 404 -139 C464 -139 516 -114 548 -70 C570 -38 581 14 581 88 L581 415 C581 495 571 546 548 584 C514 641 439 677 357 677 C261 677 193 641 133 558 L133 667 L90 667 Z " />
<glyph glyph-name="Omacron" unicode="&#x14c;" horiz-adv-x="798" d="M398 676 C213 676 53 519 53 338 C53 147 208 -11 396 -11 C587 -11 744 144 744 333 C744 520 587 676 398 676 L398 676 Z M398 635 C563 635 699 498 699 333 C699 166 563 30 396 30 C325 30 251 60 195 111 C131 170 98 247 98 337 C98 498 236 635 398 635 L398 635 Z M262 797 L262 754 L535 754 L535 797 L262 797 Z " />
<glyph glyph-name="omacron" unicode="&#x14d;" horiz-adv-x="566" d="M283 447 C156 447 47 343 47 222 C47 95 153 -10 282 -10 C413 -10 520 93 520 219 C520 344 413 447 283 447 L283 447 Z M283 410 C390 410 479 323 479 219 C479 113 390 27 282 27 C175 27 88 115 88 222 C88 323 178 410 283 410 L283 410 Z M167 554 L167 515 L400 515 L400 554 L167 554 Z " />
<glyph glyph-name="Ohungarumlaut" unicode="&#x150;" horiz-adv-x="798" d="M398 676 C213 676 53 519 53 338 C53 147 208 -11 396 -11 C587 -11 744 144 744 333 C744 520 587 676 398 676 L398 676 Z M398 635 C563 635 699 498 699 333 C699 166 563 30 396 30 C325 30 251 60 195 111 C131 170 98 247 98 337 C98 498 236 635 398 635 L398 635 Z M598 816 L554 847 L433 739 L465 713 L598 816 Z M458 816 L414 847 L293 739 L325 713 L458 816 Z " />
<glyph glyph-name="ohungarumlaut" unicode="&#x151;" horiz-adv-x="566" d="M283 447 C156 447 47 343 47 222 C47 95 153 -10 282 -10 C413 -10 520 93 520 219 C520 344 413 447 283 447 L283 447 Z M283 410 C390 410 479 323 479 219 C479 113 390 27 282 27 C175 27 88 115 88 222 C88 323 178 410 283 410 L283 410 Z M324 617 L282 642 L198 505 L226 489 L324 617 Z M435 617 L393 642 L309 505 L336 489 L435 617 Z " />
<glyph glyph-name="OE" unicode="&#x152;" horiz-adv-x="1071" d="M1018 627 L1018 667 L699 667 L699 494 C640 607 526 676 400 676 C210 676 53 521 53 333 C53 146 212 -11 401 -11 C526 -11 640 59 699 172 L699 0 L1018 0 L1018 40 L742 40 L742 345 L1011 345 L1011 385 L742 385 L742 627 L1018 627 Z M400 635 C564 635 698 499 698 333 C698 166 562 30 396 30 C327 30 254 59 198 109 C133 168 98 246 98 336 C98 496 238 635 400 635 L400 635 Z " />
<glyph glyph-name="oe" unicode="&#x153;" horiz-adv-x="749" d="M696 405 L696 443 L472 443 L472 345 C445 379 428 395 408 408 C371 433 326 446 281 446 C153 446 47 343 47 218 C47 95 155 -10 281 -10 C317 -10 352 -1 386 15 C416 30 436 48 472 91 L472 0 L696 0 L696 38 L512 38 L512 223 L692 223 L692 261 L512 261 L512 405 L696 405 Z M281 409 C386 409 472 323 472 218 C472 113 385 27 279 27 C175 27 88 115 88 220 C88 321 178 409 281 409 L281 409 Z " />
<glyph glyph-name="Racute" unicode="&#x154;" horiz-adv-x="467" d="M202 315 C255 318 282 323 308 337 C361 366 392 421 392 490 C392 552 368 603 325 633 C290 658 252 667 184 667 L90 667 L90 0 L133 0 L133 315 L153 315 L367 0 L420 0 L202 315 Z M133 355 L133 627 L188 627 C231 627 264 621 289 607 C325 587 348 543 348 491 C348 405 293 355 197 355 L133 355 Z M332 816 L286 847 L164 739 L199 713 L332 816 Z " />
<glyph glyph-name="racute" unicode="&#x155;" horiz-adv-x="381" d="M186 205 C232 209 252 216 274 235 C298 257 311 287 311 323 C311 364 294 399 263 420 C238 437 211 443 164 443 L90 443 L90 0 L130 0 L130 204 L140 204 L286 0 L334 0 L186 205 Z M130 242 L130 405 L166 405 C237 405 271 379 271 324 C271 271 236 242 172 242 L130 242 Z M289 617 L245 642 L154 505 L183 489 L289 617 Z " />
<glyph glyph-name="Rcommaaccent" unicode="&#x156;" horiz-adv-x="467" d="M202 315 C255 318 282 323 308 337 C361 366 392 421 392 490 C392 552 368 603 325 633 C290 658 252 667 184 667 L90 667 L90 0 L133 0 L133 315 L153 315 L367 0 L420 0 L202 315 Z M133 355 L133 627 L188 627 C231 627 264 621 289 607 C325 587 348 543 348 491 C348 405 293 355 197 355 L133 355 Z M219 -47 L176 -195 L207 -205 L268 -60 L219 -47 Z " />
<glyph glyph-name="rcommaaccent" unicode="&#x157;" horiz-adv-x="381" d="M186 205 C232 209 252 216 274 235 C298 257 311 287 311 323 C311 364 294 399 263 420 C238 437 211 443 164 443 L90 443 L90 0 L130 0 L130 204 L140 204 L286 0 L334 0 L186 205 Z M130 242 L130 405 L166 405 C237 405 271 379 271 324 C271 271 236 242 172 242 L130 242 Z M178 -49 L133 -194 L165 -205 L218 -60 L178 -49 Z " />
<glyph glyph-name="Rcaron" unicode="&#x158;" horiz-adv-x="467" d="M202 315 C255 318 282 323 308 337 C361 366 392 421 392 490 C392 552 368 603 325 633 C290 658 252 667 184 667 L90 667 L90 0 L133 0 L133 315 L153 315 L367 0 L420 0 L202 315 Z M133 355 L133 627 L188 627 C231 627 264 621 289 607 C325 587 348 543 348 491 C348 405 293 355 197 355 L133 355 Z M344 819 L309 847 L220 773 L131 847 L95 819 L220 714 L344 819 Z " />
<glyph glyph-name="rcaron" unicode="&#x159;" horiz-adv-x="381" d="M186 205 C232 209 252 216 274 235 C298 257 311 287 311 323 C311 364 294 399 263 420 C238 437 211 443 164 443 L90 443 L90 0 L130 0 L130 204 L140 204 L286 0 L334 0 L186 205 Z M130 242 L130 405 L166 405 C237 405 271 379 271 324 C271 271 236 242 172 242 L130 242 Z M312 581 L281 607 L191 539 L102 607 L69 581 L191 487 L312 581 Z " />
<glyph glyph-name="Sacute" unicode="&#x15a;" horiz-adv-x="512" d="M425 581 C390 642 332 676 263 676 C164 676 92 606 92 510 C92 438 122 401 224 351 C323 302 326 300 348 288 C390 263 413 228 413 185 C413 100 339 30 250 30 C202 30 155 51 127 86 C114 103 106 117 90 150 L53 132 C91 37 158 -11 250 -11 C365 -11 458 77 458 185 C458 239 434 282 388 313 C358 332 341 341 255 382 C164 426 137 455 137 509 C137 580 191 635 262 635 C319 635 355 613 393 555 L425 581 Z M377 816 L331 847 L210 739 L245 713 L377 816 Z " />
<glyph glyph-name="sacute" unicode="&#x15b;" horiz-adv-x="396" d="M323 378 C296 423 254 447 203 447 C132 447 80 399 80 333 C80 298 96 269 127 250 C145 239 167 228 213 207 C283 175 301 158 301 123 C301 70 253 27 195 27 C164 27 133 40 115 62 C106 73 101 82 88 108 L53 92 C82 23 127 -10 194 -10 C276 -10 342 50 342 123 C342 160 324 190 291 211 C270 224 254 232 199 257 C138 284 121 301 121 333 C121 377 156 410 202 410 C242 410 264 396 293 353 L323 378 Z M309 617 L266 642 L174 505 L204 489 L309 617 Z " />
<glyph glyph-name="Scircumflex" unicode="&#x15c;" horiz-adv-x="512" d="M425 581 C390 642 332 676 263 676 C164 676 92 606 92 510 C92 438 122 401 224 351 C323 302 326 300 348 288 C390 263 413 228 413 185 C413 100 339 30 250 30 C202 30 155 51 127 86 C114 103 106 117 90 150 L53 132 C91 37 158 -11 250 -11 C365 -11 458 77 458 185 C458 239 434 282 388 313 C358 332 341 341 255 382 C164 426 137 455 137 509 C137 580 191 635 262 635 C319 635 355 613 393 555 L425 581 Z M141 742 L177 714 L266 789 L354 714 L390 742 L266 847 L141 742 Z " />
<glyph glyph-name="scircumflex" unicode="&#x15d;" horiz-adv-x="396" d="M323 378 C296 423 254 447 203 447 C132 447 80 399 80 333 C80 298 96 269 127 250 C145 239 167 228 213 207 C283 175 301 158 301 123 C301 70 253 27 195 27 C164 27 133 40 115 62 C106 73 101 82 88 108 L53 92 C82 23 127 -10 194 -10 C276 -10 342 50 342 123 C342 160 324 190 291 211 C270 224 254 232 199 257 C138 284 121 301 121 333 C121 377 156 410 202 410 C242 410 264 396 293 353 L323 378 Z M89 514 L121 489 L211 557 L299 489 L333 514 L211 608 L89 514 Z " />
<glyph glyph-name="Scedilla" unicode="&#x15e;" horiz-adv-x="512" d="M425 581 C390 642 332 676 263 676 C164 676 92 606 92 510 C92 438 122 401 224 351 C323 302 326 300 348 288 C390 263 413 228 413 185 C413 100 339 30 250 30 C202 30 155 51 127 86 C114 103 106 117 90 150 L53 132 C91 37 158 -11 250 -11 C365 -11 458 77 458 185 C458 239 434 282 388 313 C358 332 341 341 255 382 C164 426 137 455 137 509 C137 580 191 635 262 635 C319 635 355 613 393 555 L425 581 Z M291 -72 L241 -47 L153 -180 L189 -198 L291 -72 Z " />
<glyph glyph-name="scedilla" unicode="&#x15f;" horiz-adv-x="396" d="M323 378 C296 423 254 447 203 447 C132 447 80 399 80 333 C80 298 96 269 127 250 C145 239 167 228 213 207 C283 175 301 158 301 123 C301 70 253 27 195 27 C164 27 133 40 115 62 C106 73 101 82 88 108 L53 92 C82 23 127 -10 194 -10 C276 -10 342 50 342 123 C342 160 324 190 291 211 C270 224 254 232 199 257 C138 284 121 301 121 333 C121 377 156 410 202 410 C242 410 264 396 293 353 L323 378 Z M263 -70 L214 -50 L132 -178 L166 -194 L263 -70 Z " />
<glyph glyph-name="Scaron" unicode="&#x160;" horiz-adv-x="512" d="M425 581 C390 642 332 676 263 676 C164 676 92 606 92 510 C92 438 122 401 224 351 C323 302 326 300 348 288 C390 263 413 228 413 185 C413 100 339 30 250 30 C202 30 155 51 127 86 C114 103 106 117 90 150 L53 132 C91 37 158 -11 250 -11 C365 -11 458 77 458 185 C458 239 434 282 388 313 C358 332 341 341 255 382 C164 426 137 455 137 509 C137 580 191 635 262 635 C319 635 355 613 393 555 L425 581 Z M389 819 L353 847 L264 773 L176 847 L140 819 L264 714 L389 819 Z " />
<glyph glyph-name="scaron" unicode="&#x161;" horiz-adv-x="396" d="M323 378 C296 423 254 447 203 447 C132 447 80 399 80 333 C80 298 96 269 127 250 C145 239 167 228 213 207 C283 175 301 158 301 123 C301 70 253 27 195 27 C164 27 133 40 115 62 C106 73 101 82 88 108 L53 92 C82 23 127 -10 194 -10 C276 -10 342 50 342 123 C342 160 324 190 291 211 C270 224 254 232 199 257 C138 284 121 301 121 333 C121 377 156 410 202 410 C242 410 264 396 293 353 L323 378 Z M333 581 L301 607 L211 539 L123 607 L89 581 L211 487 L333 581 Z " />
<glyph glyph-name="Tcommaaccent" unicode="&#x162;" horiz-adv-x="415" d="M227 627 L401 627 L401 667 L13 667 L13 627 L184 627 L184 0 L227 0 L227 627 Z M182 -47 L139 -195 L170 -205 L231 -60 L182 -47 Z " />
<glyph glyph-name="tcommaaccent" unicode="&#x163;" horiz-adv-x="303" d="M171 405 L289 405 L289 443 L13 443 L13 405 L131 405 L131 0 L171 0 L171 405 Z M139 -49 L94 -194 L126 -205 L179 -60 L139 -49 Z " />
<glyph glyph-name="Tcaron" unicode="&#x164;" horiz-adv-x="415" d="M227 627 L401 627 L401 667 L13 667 L13 627 L184 627 L184 0 L227 0 L227 627 Z M332 819 L296 847 L207 773 L118 847 L82 819 L207 714 L332 819 Z " />
<glyph glyph-name="tcaron" unicode="&#x165;" horiz-adv-x="303" d="M171 405 L289 405 L289 443 L13 443 L13 405 L131 405 L131 0 L171 0 L171 405 Z M273 581 L241 607 L152 539 L63 607 L30 581 L152 487 L273 581 Z " />
<glyph glyph-name="Tbar" unicode="&#x166;" horiz-adv-x="415" d="M367 471 L227 471 L227 627 L401 627 L401 667 L13 667 L13 627 L184 627 L184 471 L47 471 L47 434 L184 434 L184 0 L227 0 L227 434 L367 434 L367 471 Z " />
<glyph glyph-name="tbar" unicode="&#x167;" horiz-adv-x="303" d="M171 253 L171 405 L289 405 L289 443 L13 443 L13 405 L131 405 L131 253 L35 253 L35 215 L131 215 L131 0 L171 0 L171 215 L268 215 L268 253 L171 253 Z " />
<glyph glyph-name="utilde" unicode="&#x169;" horiz-adv-x="499" d="M130 443 L90 443 L90 157 C90 99 95 78 115 51 C143 12 193 -10 250 -10 C306 -10 356 12 384 51 C404 78 409 99 409 157 L409 443 L369 443 L369 165 C369 112 366 93 353 74 C335 46 293 27 250 27 C206 27 164 46 145 74 C133 93 130 112 130 165 L130 443 Z M148 509 C157 534 169 545 187 545 C199 545 221 539 250 527 C284 512 292 510 305 510 C337 510 365 532 377 567 L351 587 C341 562 327 550 309 550 C297 550 281 555 251 568 C220 582 208 585 192 585 C162 585 139 567 122 528 L148 509 Z " />
<glyph glyph-name="Umacron" unicode="&#x16a;" horiz-adv-x="633" d="M133 667 L90 667 L90 238 C90 150 97 118 125 80 C165 24 238 -11 317 -11 C395 -11 468 24 508 80 C536 118 543 150 543 238 L543 667 L500 667 L500 250 C500 168 495 136 476 107 C447 62 381 30 317 30 C252 30 186 62 157 107 C138 136 133 168 133 250 L133 667 Z M180 797 L180 754 L453 754 L453 797 L180 797 Z " />
<glyph glyph-name="umacron" unicode="&#x16b;" horiz-adv-x="499" d="M130 443 L90 443 L90 157 C90 99 95 78 115 51 C143 12 193 -10 250 -10 C306 -10 356 12 384 51 C404 78 409 99 409 157 L409 443 L369 443 L369 165 C369 112 366 93 353 74 C335 46 293 27 250 27 C206 27 164 46 145 74 C133 93 130 112 130 165 L130 443 Z M133 554 L133 515 L366 515 L366 554 L133 554 Z " />
<glyph glyph-name="ubreve" unicode="&#x16d;" horiz-adv-x="499" d="M130 443 L90 443 L90 157 C90 99 95 78 115 51 C143 12 193 -10 250 -10 C306 -10 356 12 384 51 C404 78 409 99 409 157 L409 443 L369 443 L369 165 C369 112 366 93 353 74 C335 46 293 27 250 27 C206 27 164 46 145 74 C133 93 130 112 130 165 L130 443 Z M124 595 C133 538 182 501 249 501 C317 501 366 538 374 595 L336 595 C322 557 295 540 249 540 C204 540 177 557 163 595 L124 595 Z " />
<glyph glyph-name="Uring" unicode="&#x16e;" horiz-adv-x="633" d="M133 667 L90 667 L90 238 C90 150 97 118 125 80 C165 24 238 -11 317 -11 C395 -11 468 24 508 80 C536 118 543 150 543 238 L543 667 L500 667 L500 250 C500 168 495 136 476 107 C447 62 381 30 317 30 C252 30 186 62 157 107 C138 136 133 168 133 250 L133 667 Z M317 867 C273 867 237 831 237 788 C237 743 273 707 317 707 C361 707 397 743 397 787 C397 831 361 867 317 867 L317 867 Z M317 828 C340 828 358 810 358 787 C358 764 340 746 317 746 C294 746 276 764 276 788 C276 810 295 828 317 828 L317 828 Z " />
<glyph glyph-name="uring" unicode="&#x16f;" horiz-adv-x="499" d="M130 443 L90 443 L90 157 C90 99 95 78 115 51 C143 12 193 -10 250 -10 C306 -10 356 12 384 51 C404 78 409 99 409 157 L409 443 L369 443 L369 165 C369 112 366 93 353 74 C335 46 293 27 250 27 C206 27 164 46 145 74 C133 93 130 112 130 165 L130 443 Z M249 648 C208 648 173 614 173 572 C173 529 207 495 250 495 C292 495 326 529 326 572 C326 614 292 648 249 648 L249 648 Z M249 612 C273 612 291 594 291 571 C291 548 273 530 250 530 C226 530 208 548 208 572 C208 594 227 612 249 612 L249 612 Z " />
<glyph glyph-name="Uhungarumlaut" unicode="&#x170;" horiz-adv-x="633" d="M133 667 L90 667 L90 238 C90 150 97 118 125 80 C165 24 238 -11 317 -11 C395 -11 468 24 508 80 C536 118 543 150 543 238 L543 667 L500 667 L500 250 C500 168 495 136 476 107 C447 62 381 30 317 30 C252 30 186 62 157 107 C138 136 133 168 133 250 L133 667 Z M513 816 L469 847 L348 739 L380 713 L513 816 Z M373 816 L329 847 L208 739 L240 713 L373 816 Z " />
<glyph glyph-name="uhungarumlaut" unicode="&#x171;" horiz-adv-x="499" d="M130 443 L90 443 L90 157 C90 99 95 78 115 51 C143 12 193 -10 250 -10 C306 -10 356 12 384 51 C404 78 409 99 409 157 L409 443 L369 443 L369 165 C369 112 366 93 353 74 C335 46 293 27 250 27 C206 27 164 46 145 74 C133 93 130 112 130 165 L130 443 Z M291 617 L248 642 L164 505 L192 489 L291 617 Z M401 617 L359 642 L275 505 L302 489 L401 617 Z " />
<glyph glyph-name="Uogonek" unicode="&#x172;" horiz-adv-x="633" d="M483 -119 C457 -134 444 -138 424 -138 C391 -138 372 -120 372 -89 C372 -53 397 -18 453 26 C528 84 543 119 543 238 L543 667 L500 667 L500 250 C500 168 495 136 476 107 C447 62 381 30 317 30 C252 30 186 62 157 107 C138 136 133 168 133 250 L133 667 L90 667 L90 238 C90 150 97 118 125 80 C165 24 239 -11 317 -11 C340 -11 355 -9 382 -3 C342 -29 326 -55 326 -93 C326 -143 359 -174 414 -174 C434 -174 449 -171 473 -161 L483 -119 Z " />
<glyph glyph-name="uogonek" unicode="&#x173;" horiz-adv-x="499" d="M369 443 L369 165 C369 112 366 93 353 74 C335 46 293 27 250 27 C206 27 164 46 145 74 C133 93 130 112 130 165 L130 443 L90 443 L90 157 C90 99 95 78 115 51 C143 13 193 -10 249 -10 C259 -10 266 -10 279 -8 C258 -31 247 -55 247 -78 C247 -125 288 -161 342 -161 C355 -161 365 -159 388 -153 L397 -117 C368 -124 359 -126 344 -126 C309 -126 285 -106 285 -76 C285 -51 304 -22 338 7 C350 17 356 23 356 23 C363 29 363 29 365 31 C399 61 409 89 409 157 L409 443 L369 443 Z " />
<glyph glyph-name="Wcircumflex" unicode="&#x174;" horiz-adv-x="982" d="M62 667 L13 667 L237 -25 L485 580 L711 -25 L968 667 L919 667 L711 103 L485 703 L243 103 L62 667 Z M359 742 L395 714 L484 789 L572 714 L608 742 L484 847 L359 742 Z " />
<glyph glyph-name="Ycircumflex" unicode="&#x176;" horiz-adv-x="514" d="M231 285 L231 0 L274 0 L274 285 L499 667 L448 667 L253 332 L63 667 L13 667 L231 285 Z M132 742 L167 714 L256 789 L345 714 L381 742 L256 847 L132 742 Z " />
<glyph glyph-name="ycircumflex" unicode="&#x177;" horiz-adv-x="376" d="M165 189 L165 0 L205 0 L205 188 L362 443 L315 443 L186 230 L59 443 L13 443 L165 189 Z M66 514 L98 489 L187 557 L276 489 L309 514 L187 608 L66 514 Z " />
<glyph glyph-name="Ydieresis" unicode="&#x178;" horiz-adv-x="514" d="M231 285 L231 0 L274 0 L274 285 L499 667 L448 667 L253 332 L63 667 L13 667 L231 285 Z M164 815 C142 815 125 798 125 777 C125 755 142 738 164 738 C185 738 202 755 202 777 C202 798 185 815 164 815 L164 815 Z M350 815 C328 815 311 798 311 777 C311 755 328 738 350 738 C371 738 388 755 388 777 C388 798 371 815 350 815 L350 815 Z " />
<glyph glyph-name="Zacute" unicode="&#x179;" horiz-adv-x="555" d="M111 40 L519 667 L76 667 L76 627 L444 627 L37 0 L507 0 L507 40 L111 40 Z M413 816 L367 847 L245 739 L280 713 L413 816 Z " />
<glyph glyph-name="zacute" unicode="&#x17a;" horiz-adv-x="420" d="M107 38 L384 443 L67 443 L67 405 L313 405 L37 0 L371 0 L371 38 L107 38 Z M309 617 L265 642 L174 505 L203 489 L309 617 Z " />
<glyph glyph-name="Zdotaccent" unicode="&#x17b;" horiz-adv-x="555" d="M111 40 L519 667 L76 667 L76 627 L444 627 L37 0 L507 0 L507 40 L111 40 Z M298 819 C275 819 257 801 257 779 C257 756 275 738 298 738 C320 738 338 756 338 779 C338 801 320 819 298 819 L298 819 Z " />
<glyph glyph-name="zdotaccent" unicode="&#x17c;" horiz-adv-x="420" d="M107 38 L384 443 L67 443 L67 405 L313 405 L37 0 L371 0 L371 38 L107 38 Z M210 588 C189 588 172 571 172 550 C172 528 189 511 211 511 C232 511 249 528 249 550 C249 571 232 588 210 588 L210 588 Z " />
<glyph glyph-name="Zcaron" unicode="&#x17d;" horiz-adv-x="555" d="M111 40 L519 667 L76 667 L76 627 L444 627 L37 0 L507 0 L507 40 L111 40 Z M422 819 L387 847 L298 773 L209 847 L173 819 L298 714 L422 819 Z " />
<glyph glyph-name="zcaron" unicode="&#x17e;" horiz-adv-x="420" d="M107 38 L384 443 L67 443 L67 405 L313 405 L37 0 L371 0 L371 38 L107 38 Z M332 581 L300 607 L211 539 L122 607 L89 581 L211 487 L332 581 Z " />
<glyph glyph-name="florin" unicode="&#x192;" horiz-adv-x="547" d="M294 429 L326 600 C334 642 338 657 344 671 C354 690 374 701 400 701 C416 701 427 699 448 690 L455 727 C432 737 420 740 400 740 C365 740 333 725 317 702 C306 686 298 665 291 629 L254 429 L194 429 L185 391 L247 391 L175 16 C160 -63 143 -86 98 -86 C79 -86 72 -84 38 -72 L30 -109 C61 -120 78 -124 100 -124 C142 -124 171 -107 190 -72 C202 -50 210 -24 222 43 L287 391 L389 391 L397 429 L294 429 Z " />
<glyph glyph-name="uni01C4" unicode="&#x1c4;" horiz-adv-x="465" d="M135 410 C138 438 140 450 147 464 C161 496 195 517 231 517 C285 517 327 475 327 420 C327 371 300 340 246 326 C165 304 163 303 139 288 C99 264 73 211 73 154 C73 61 139 -6 232 -6 C322 -6 391 58 391 142 C391 158 389 170 384 197 L343 197 C348 175 349 165 349 150 C349 84 299 33 234 33 C167 33 116 86 116 157 C116 194 129 227 152 246 C170 262 179 265 245 283 C330 306 370 349 370 419 C370 498 311 556 232 556 C166 556 115 518 99 458 C95 442 95 441 95 410 L135 410 Z M233 673 C212 673 196 657 196 637 C196 616 213 600 233 600 C252 600 269 616 269 636 C269 657 253 673 233 673 L233 673 Z " />
<glyph glyph-name="uni01C5" unicode="&#x1c5;" horiz-adv-x="544" d="M514 743 L62 -60 L94 -76 L545 727 L514 743 Z " />
<glyph glyph-name="uni01C6" unicode="&#x1c6;" horiz-adv-x="263" d="M151 743 C114 654 87 481 87 332 C87 183 114 12 151 -76 L183 -53 C147 73 128 205 128 333 C128 462 147 593 183 720 L151 743 Z " />
<glyph glyph-name="uni01C7" unicode="&#x1c7;" horiz-adv-x="263" d="M113 -76 C149 12 176 185 176 335 C176 484 149 655 113 743 L80 720 C117 591 135 462 135 333 C135 204 117 76 80 -53 L113 -76 Z " />
<glyph glyph-name="uni01C8" unicode="&#x1c8;" horiz-adv-x="277" d="M130 689 L237 689 L237 729 L87 729 L87 -63 L237 -63 L237 -24 L130 -24 L130 689 Z " />
<glyph glyph-name="uni01C9" unicode="&#x1c9;" horiz-adv-x="277" d="M147 -23 L40 -23 L40 -63 L190 -63 L190 729 L40 729 L40 690 L147 690 L147 -23 Z " />
<glyph glyph-name="uni01CA" unicode="&#x1ca;" horiz-adv-x="547" d="M126 82 C128 28 131 7 143 -13 C164 -50 211 -72 273 -72 C368 -72 425 -23 425 61 C425 125 398 164 334 191 C403 224 435 270 435 334 C435 379 418 420 389 445 C369 462 342 474 296 488 C239 505 228 509 208 524 C183 542 170 568 170 598 C170 659 213 698 280 698 C351 698 385 662 385 585 L429 585 C426 632 421 655 411 675 C389 715 342 738 281 738 C187 738 127 685 127 602 C127 542 151 508 212 477 C146 448 112 399 112 333 C112 261 152 214 237 185 C307 162 308 161 330 149 C364 131 381 102 381 64 C381 4 340 -32 273 -32 C232 -32 200 -18 184 6 C173 23 170 40 170 82 L126 82 Z M273 443 C338 443 390 394 390 334 C390 273 338 224 274 224 C209 224 157 273 157 335 C157 394 210 443 273 443 L273 443 Z " />
<glyph glyph-name="uni01CB" unicode="&#x1cb;" horiz-adv-x="547" d="M252 729 L252 553 L93 553 L93 513 L252 513 L252 -63 L295 -63 L295 513 L454 513 L454 553 L295 553 L295 729 L252 729 Z " />
<glyph glyph-name="uni01CC" unicode="&#x1cc;" horiz-adv-x="547" d="M252 729 L252 553 L93 553 L93 513 L252 513 L252 193 L93 193 L93 153 L252 153 L252 -63 L295 -63 L295 153 L454 153 L454 193 L295 193 L295 513 L454 513 L454 553 L295 553 L295 729 L252 729 Z " />
<glyph glyph-name="uni01CD" unicode="&#x1cd;" horiz-adv-x="584" d="M434 219 L522 0 L571 0 L293 687 L13 0 L61 0 L150 219 L434 219 Z M418 259 L166 259 L293 575 L418 259 Z M416 819 L381 847 L292 773 L203 847 L167 819 L292 714 L416 819 Z " />
<glyph glyph-name="uni01CE" unicode="&#x1ce;" horiz-adv-x="419" d="M302 142 L361 0 L405 0 L210 466 L13 0 L57 0 L116 142 L302 142 Z M285 180 L133 180 L210 365 L285 180 Z M331 581 L299 607 L209 539 L121 607 L87 581 L209 487 L331 581 Z " />
<glyph glyph-name="uni01D1" unicode="&#x1d1;" horiz-adv-x="259" d="M130 674 C109 674 93 658 93 638 C93 617 109 601 130 601 C149 601 166 617 166 637 C166 658 150 674 130 674 L130 674 Z M151 547 L108 547 L108 0 L151 0 L151 547 Z " />
<glyph glyph-name="uni01D3" unicode="&#x1d3;" horiz-adv-x="633" d="M133 667 L90 667 L90 238 C90 150 97 118 125 80 C165 24 238 -11 317 -11 C395 -11 468 24 508 80 C536 118 543 150 543 238 L543 667 L500 667 L500 250 C500 168 495 136 476 107 C447 62 381 30 317 30 C252 30 186 62 157 107 C138 136 133 168 133 250 L133 667 Z M441 819 L406 847 L317 773 L228 847 L192 819 L317 714 L441 819 Z " />
<glyph glyph-name="uni01D4" unicode="&#x1d4;" horiz-adv-x="499" d="M130 443 L90 443 L90 157 C90 99 95 78 115 51 C143 12 193 -10 250 -10 C306 -10 356 12 384 51 C404 78 409 99 409 157 L409 443 L369 443 L369 165 C369 112 366 93 353 74 C335 46 293 27 250 27 C206 27 164 46 145 74 C133 93 130 112 130 165 L130 443 Z M371 581 L339 607 L250 539 L161 607 L128 581 L250 487 L371 581 Z " />
<glyph glyph-name="Gcaron" unicode="&#x1e6;" horiz-adv-x="771" d="M437 320 L437 280 L671 280 C669 223 661 190 641 158 C596 84 494 30 397 30 C234 30 97 166 97 330 C97 495 235 635 399 635 C468 635 540 609 591 564 C612 547 627 530 655 493 L690 520 C656 562 637 583 610 604 C551 651 477 676 401 676 C210 676 53 521 53 331 C53 144 209 -11 398 -11 C514 -11 628 51 681 143 C709 191 718 234 718 320 L437 320 Z M527 819 L491 847 L402 773 L313 847 L277 819 L402 714 L527 819 Z " />
<glyph glyph-name="gcaron" unicode="&#x1e7;" horiz-adv-x="552" d="M309 217 L309 179 L460 179 C459 148 453 127 441 108 C412 61 346 27 283 27 C177 27 88 114 88 217 C88 322 178 410 284 410 C329 410 377 393 409 365 C424 352 436 339 455 314 L487 339 C425 416 366 447 285 447 C154 447 47 344 47 218 C47 93 154 -10 283 -10 C362 -10 441 32 477 93 C497 126 503 154 503 217 L309 217 Z M411 581 L380 607 L290 539 L201 607 L168 581 L290 487 L411 581 Z " />
<glyph glyph-name="uni01F4" unicode="&#x1f4;" horiz-adv-x="771" d="M437 320 L437 280 L671 280 C669 223 661 190 641 158 C596 84 494 30 397 30 C234 30 97 166 97 330 C97 495 235 635 399 635 C468 635 540 609 591 564 C612 547 627 530 655 493 L690 520 C656 562 637 583 610 604 C551 651 477 676 401 676 C210 676 53 521 53 331 C53 144 209 -11 398 -11 C514 -11 628 51 681 143 C709 191 718 234 718 320 L437 320 Z M514 816 L468 847 L346 739 L381 713 L514 816 Z " />
<glyph glyph-name="uni0200" unicode="&#x200;" horiz-adv-x="448" d="M205 547 L203 430 L246 430 L243 544 L343 486 L365 523 L262 579 L365 636 L343 673 L244 612 L246 729 L203 729 L206 613 L106 673 L84 636 L183 578 L84 523 L106 486 L205 547 Z " />
<glyph glyph-name="uni0201" unicode="&#x201;" horiz-adv-x="240" d="M211 -30 L196 -30 C179 -30 169 -28 162 -24 C146 -14 137 13 137 55 L137 232 C137 283 126 308 93 333 C126 359 137 384 137 435 L137 611 C137 653 146 680 162 690 C169 694 175 695 196 696 C198 696 204 696 211 697 L211 733 L202 733 L188 733 C152 733 121 716 107 689 C98 670 94 646 94 609 L94 436 C94 384 79 361 36 348 L36 318 C79 306 94 283 94 231 L94 57 C94 20 98 -4 107 -23 C122 -50 155 -68 188 -67 L202 -66 L211 -66 L211 -30 Z " />
<glyph glyph-name="Scommaaccent" unicode="&#x218;" horiz-adv-x="512" d="M425 581 C390 642 332 676 263 676 C164 676 92 606 92 510 C92 438 122 401 224 351 C323 302 326 300 348 288 C390 263 413 228 413 185 C413 100 339 30 250 30 C202 30 155 51 127 86 C114 103 106 117 90 150 L53 132 C91 37 158 -11 250 -11 C365 -11 458 77 458 185 C458 239 434 282 388 313 C358 332 341 341 255 382 C164 426 137 455 137 509 C137 580 191 635 262 635 C319 635 355 613 393 555 L425 581 Z M236 -47 L193 -195 L224 -205 L285 -60 L236 -47 Z " />
<glyph glyph-name="scommaaccent" unicode="&#x219;" horiz-adv-x="396" d="M323 378 C296 423 254 447 203 447 C132 447 80 399 80 333 C80 298 96 269 127 250 C145 239 167 228 213 207 C283 175 301 158 301 123 C301 70 253 27 195 27 C164 27 133 40 115 62 C106 73 101 82 88 108 L53 92 C82 23 127 -10 194 -10 C276 -10 342 50 342 123 C342 160 324 190 291 211 C270 224 254 232 199 257 C138 284 121 301 121 333 C121 377 156 410 202 410 C242 410 264 396 293 353 L323 378 Z M185 -49 L141 -194 L172 -205 L225 -60 L185 -49 Z " />
<glyph glyph-name="uni021A" unicode="&#x21a;" horiz-adv-x="415" d="M227 627 L401 627 L401 667 L13 667 L13 627 L184 627 L184 0 L227 0 L227 627 Z M182 -47 L139 -195 L170 -205 L231 -60 L182 -47 Z " />
<glyph glyph-name="uni021B" unicode="&#x21b;" horiz-adv-x="303" d="M171 405 L289 405 L289 443 L13 443 L13 405 L131 405 L131 0 L171 0 L171 405 Z M139 -49 L94 -194 L126 -205 L179 -60 L139 -49 Z " />
<glyph glyph-name="uni0226" unicode="&#x226;" horiz-adv-x="584" d="M434 219 L522 0 L571 0 L293 687 L13 0 L61 0 L150 219 L434 219 Z M418 259 L166 259 L293 575 L418 259 Z M292 819 C269 819 251 801 251 779 C251 756 269 738 292 738 C314 738 332 756 332 779 C332 801 314 819 292 819 L292 819 Z " />
<glyph glyph-name="uni0227" unicode="&#x227;" horiz-adv-x="419" d="M302 142 L361 0 L405 0 L210 466 L13 0 L57 0 L116 142 L302 142 Z M285 180 L133 180 L210 365 L285 180 Z M209 588 C188 588 171 571 171 550 C171 528 188 511 210 511 C231 511 248 528 248 550 C248 571 231 588 209 588 L209 588 Z " />
<glyph glyph-name="circumflex" unicode="&#x2c6;" horiz-adv-x="500" d="M128 514 L160 489 L249 557 L338 489 L371 514 L249 608 L128 514 Z " />
<glyph glyph-name="caron" unicode="&#x2c7;" horiz-adv-x="500" d="M371 581 L340 607 L250 539 L161 607 L128 581 L250 487 L371 581 Z " />
<glyph glyph-name="uni02C9" unicode="&#x2c9;" horiz-adv-x="500" d="M133 554 L133 515 L366 515 L366 554 L133 554 Z " />
<glyph glyph-name="breve" unicode="&#x2d8;" horiz-adv-x="500" d="M125 595 C134 538 182 501 250 501 C318 501 366 538 375 595 L337 595 C323 557 296 540 250 540 C205 540 177 557 163 595 L125 595 Z " />
<glyph glyph-name="dotaccent" unicode="&#x2d9;" horiz-adv-x="500" d="M250 588 C229 588 212 571 212 550 C212 528 229 511 251 511 C272 511 289 528 289 550 C289 571 272 588 250 588 L250 588 Z " />
<glyph glyph-name="ring" unicode="&#x2da;" horiz-adv-x="500" d="M249 648 C208 648 173 614 173 572 C173 529 207 495 250 495 C292 495 326 529 326 572 C326 614 292 648 249 648 L249 648 Z M249 612 C273 612 291 594 291 571 C291 548 273 530 250 530 C226 530 208 548 208 572 C208 594 227 612 249 612 L249 612 Z " />
<glyph glyph-name="ogonek" unicode="&#x2db;" horiz-adv-x="500" d="M345 0 C299 -32 279 -62 279 -98 C279 -145 320 -181 374 -181 C387 -181 396 -179 419 -173 L429 -137 C400 -144 390 -146 376 -146 C341 -146 317 -126 317 -96 C317 -68 337 -40 385 0 L345 0 Z " />
<glyph glyph-name="tilde" unicode="&#x2dc;" horiz-adv-x="500" d="M149 509 C158 534 169 545 188 545 C200 545 222 539 250 527 C285 512 293 510 306 510 C338 510 366 532 378 567 L352 587 C341 562 328 550 309 550 C298 550 282 555 252 568 C221 582 209 585 193 585 C163 585 140 567 123 528 L149 509 Z " />
<glyph glyph-name="hungarumlaut" unicode="&#x2dd;" horiz-adv-x="500" d="M291 617 L249 642 L165 505 L193 489 L291 617 Z M402 617 L360 642 L276 505 L303 489 L402 617 Z " />
<glyph glyph-name="uni1E1E" unicode="&#x1e1e;" horiz-adv-x="406" d="M359 627 L359 667 L90 667 L90 0 L133 0 L133 345 L353 345 L353 385 L133 385 L133 627 L359 627 Z M227 819 C204 819 186 801 186 779 C186 756 204 738 227 738 C249 738 267 756 267 779 C267 801 249 819 227 819 L227 819 Z " />
<glyph glyph-name="Wacute" unicode="&#x1e82;" horiz-adv-x="261" d="M47 227 L47 187 L215 187 L215 227 L47 227 Z " />
<glyph glyph-name="Wdieresis" unicode="&#x1e84;" horiz-adv-x="982" d="M62 667 L13 667 L237 -25 L485 580 L711 -25 L968 667 L919 667 L711 103 L485 703 L243 103 L62 667 Z M392 815 C370 815 353 798 353 777 C353 755 370 738 392 738 C413 738 430 755 430 777 C430 798 413 815 392 815 L392 815 Z M578 815 C556 815 539 798 539 777 C539 755 556 738 578 738 C599 738 616 755 616 777 C616 798 599 815 578 815 L578 815 Z " />
<glyph glyph-name="uni2011" unicode="&#x2011;" horiz-adv-x="168" d="M0 227 L0 187 L168 187 L168 227 L0 227 Z " />
<glyph glyph-name="figuredash" unicode="&#x2012;" horiz-adv-x="547" d="M125 227 L125 187 L422 187 L422 227 L125 227 Z " />
<glyph glyph-name="endash" unicode="&#x2013;" horiz-adv-x="547" d="M125 227 L125 187 L422 187 L422 227 L125 227 Z " />
<glyph glyph-name="emdash" unicode="&#x2014;" horiz-adv-x="505" d="M0 227 L0 187 L505 187 L505 227 L0 227 Z " />
<glyph glyph-name="afii00208" unicode="&#x2015;" horiz-adv-x="505" d="M0 227 L0 187 L505 187 L505 227 L0 227 Z " />
<glyph glyph-name="underscoredbl" unicode="&#x2017;" horiz-adv-x="500" d="M0 -63 L0 -93 L500 -93 L500 -63 L0 -63 Z M0 -178 L0 -209 L500 -209 L500 -178 L0 -178 Z " />
<glyph glyph-name="quoteleft" unicode="&#x2018;" horiz-adv-x="227" d="M103 493 L163 695 L137 705 L63 505 L103 493 Z " />
<glyph glyph-name="quoteright" unicode="&#x2019;" horiz-adv-x="227" d="M123 705 L63 502 L89 493 L163 693 L123 705 Z " />
<glyph glyph-name="quotesinglbase" unicode="&#x201a;" horiz-adv-x="227" d="M123 65 L63 -137 L89 -147 L163 53 L123 65 Z " />
<glyph glyph-name="quotedblleft" unicode="&#x201c;" horiz-adv-x="343" d="M219 493 L279 695 L253 705 L179 505 L219 493 Z M103 493 L163 695 L137 705 L63 505 L103 493 Z " />
<glyph glyph-name="quotedblright" unicode="&#x201d;" horiz-adv-x="343" d="M123 705 L63 502 L89 493 L163 693 L123 705 Z M239 705 L179 502 L205 493 L279 693 L239 705 Z " />
<glyph glyph-name="quotedblbase" unicode="&#x201e;" horiz-adv-x="343" d="M123 65 L63 -137 L89 -147 L163 53 L123 65 Z M239 65 L179 -137 L205 -147 L279 53 L239 65 Z " />
<glyph glyph-name="dagger" unicode="&#x2020;" horiz-adv-x="547" d="M252 729 L252 553 L93 553 L93 513 L252 513 L252 -160 L295 -160 L295 513 L454 513 L454 553 L295 553 L295 729 L252 729 Z " />
<glyph glyph-name="daggerdbl" unicode="&#x2021;" horiz-adv-x="547" d="M252 729 L252 553 L93 553 L93 513 L252 513 L252 135 L93 135 L93 95 L252 95 L252 -160 L295 -160 L295 95 L454 95 L454 135 L295 135 L295 513 L454 513 L454 553 L295 553 L295 729 L252 729 Z " />
<glyph glyph-name="bullet" unicode="&#x2022;" horiz-adv-x="667" d="M337 477 C258 477 196 416 196 338 C196 262 259 200 335 200 C411 200 473 262 473 339 C473 414 411 477 337 477 L337 477 Z " />
<glyph glyph-name="ellipsis" unicode="&#x2026;" horiz-adv-x="641" d="M107 66 C87 66 70 50 70 30 C70 9 86 -7 107 -7 C127 -7 143 9 143 30 C143 50 127 66 107 66 L107 66 Z M320 66 C300 66 283 50 283 30 C283 9 299 -7 320 -7 C340 -7 356 9 356 30 C356 50 340 66 320 66 L320 66 Z M534 66 C514 66 497 50 497 30 C497 9 513 -7 534 -7 C554 -7 570 9 570 30 C570 50 554 66 534 66 L534 66 Z " />
<glyph glyph-name="perthousand" unicode="&#x2030;" horiz-adv-x="931" d="M167 673 C92 673 33 616 33 544 C33 468 90 411 166 411 C244 411 302 467 302 542 C302 616 244 673 167 673 L167 673 Z M167 637 C220 637 262 595 262 543 C262 490 220 448 168 448 C115 448 73 490 73 544 C73 595 116 637 167 637 L167 637 Z M484 682 L89 1 L117 -15 L513 667 L484 682 Z M436 256 C362 256 302 199 302 127 C302 51 359 -6 435 -6 C513 -6 571 50 571 125 C571 199 513 256 436 256 L436 256 Z M436 219 C489 219 531 177 531 125 C531 72 489 30 436 30 C383 30 341 72 341 126 C341 177 384 219 436 219 L436 219 Z M763 256 C689 256 629 199 629 127 C629 51 686 -6 762 -6 C840 -6 898 50 898 125 C898 199 840 256 763 256 L763 256 Z M764 219 C817 219 859 177 859 125 C859 72 817 30 764 30 C711 30 669 72 669 126 C669 177 712 219 764 219 L764 219 Z " />
<glyph glyph-name="guilsinglleft" unicode="&#x2039;" horiz-adv-x="241" d="M81 207 L187 332 L162 356 L33 207 L162 57 L187 81 L81 207 Z " />
<glyph glyph-name="guilsinglright" unicode="&#x203a;" horiz-adv-x="241" d="M160 207 L53 81 L78 57 L207 207 L78 356 L53 332 L160 207 Z " />
<glyph glyph-name="uni203E" unicode="&#x203e;" horiz-adv-x="500" d="M0 847 L0 808 L500 808 L500 847 L0 847 Z " />
<glyph glyph-name="fraction" unicode="&#x2044;" horiz-adv-x="130" d="M248 682 L-147 1 L-118 -15 L277 667 L248 682 Z " />
<glyph glyph-name="franc" unicode="&#x20a3;" horiz-adv-x="547" d="M402 627 L402 667 L133 667 L133 0 L176 0 L176 345 L396 345 L396 385 L176 385 L176 627 L402 627 Z M330 286 L330 0 L367 0 L367 154 C367 207 370 224 382 239 C393 253 409 262 425 262 C432 262 436 261 446 256 L464 290 C449 295 442 296 431 296 C402 296 382 284 367 255 L367 286 L330 286 Z " />
<glyph glyph-name="lira" unicode="&#x20a4;" horiz-adv-x="547" d="M242 171 C237 137 221 110 187 79 C148 81 97 56 68 22 L92 -10 C131 25 155 36 186 36 C204 36 221 31 268 15 C326 -6 353 -13 377 -13 C425 -13 467 17 503 78 L467 100 C439 51 410 30 372 30 C356 30 340 34 300 48 C281 54 262 61 256 63 C249 65 242 68 236 70 C265 99 282 133 286 171 L396 171 L396 211 L285 211 C281 237 274 260 259 288 L396 288 L396 328 L236 328 C221 353 207 377 193 399 C164 446 154 472 154 501 C154 574 212 633 284 633 C333 633 377 609 399 569 C410 548 414 531 416 497 L458 497 C458 600 387 674 288 674 C188 674 110 600 110 504 C110 461 121 431 158 374 L188 328 L131 328 L131 288 L211 288 C230 253 238 232 241 211 L131 211 L131 171 L242 171 Z " />
<glyph glyph-name="peseta" unicode="&#x20a7;" horiz-adv-x="738" d="M133 317 L219 317 C339 317 412 383 412 492 C412 540 395 584 364 616 C330 652 286 667 218 667 L90 667 L90 0 L133 0 L133 317 Z M133 357 L133 627 L214 627 C269 627 305 616 331 590 C354 567 367 531 367 492 C367 410 309 357 220 357 L133 357 Z M459 253 L512 253 L512 286 L459 286 L459 388 L422 388 L422 286 L387 286 L387 253 L422 253 L422 0 L459 0 L459 253 Z M705 245 C688 278 661 295 626 295 C581 295 544 261 544 218 C544 182 567 160 628 139 C670 124 683 110 683 82 C683 48 658 23 624 23 C591 23 567 42 553 78 L522 68 C537 19 574 -9 624 -9 C681 -9 721 30 721 84 C721 129 702 149 638 173 C594 189 582 199 582 221 C582 243 602 262 627 262 C647 262 662 252 674 232 L705 245 Z " />
<glyph glyph-name="Euro" unicode="&#x20ac;" horiz-adv-x="547" d="M135 408 C162 542 255 635 364 635 C409 635 440 626 502 595 L521 633 C450 666 415 676 366 676 C231 676 118 566 89 408 L33 408 L14 370 L84 370 C82 354 82 343 82 331 C82 313 83 298 86 277 L33 277 L14 239 L92 239 C125 93 239 -11 366 -11 C412 -11 445 -3 502 22 L502 69 C440 39 407 30 364 30 C262 30 168 117 137 239 L326 239 L344 277 L130 277 C128 296 127 310 127 328 C127 342 128 353 129 370 L386 370 L405 408 L135 408 Z " />
<glyph glyph-name="uni2101" unicode="&#x2101;" horiz-adv-x="885" d="M285 396 L341 267 L379 267 L199 684 L17 267 L55 267 L110 396 L285 396 Z M272 427 L124 427 L198 601 L272 427 Z M670 682 L275 1 L303 -15 L698 667 L670 682 Z M826 345 C803 384 765 405 719 405 C655 405 608 362 608 304 C608 272 622 247 650 230 C666 220 687 209 729 191 C794 161 811 145 811 112 C811 64 766 24 711 24 C665 24 639 43 612 96 L583 83 C609 22 651 -7 711 -7 C786 -7 846 46 846 112 C846 145 830 172 800 190 C781 202 768 208 716 232 C659 257 643 273 643 303 C643 343 676 374 719 374 C755 374 775 362 801 325 L826 345 Z " />
<glyph glyph-name="afii61248" unicode="&#x2105;" horiz-adv-x="547" d="M273 380 C251 380 233 362 233 341 C233 318 251 300 273 300 C295 300 313 318 313 340 C313 362 295 380 273 380 L273 380 Z " />
<glyph glyph-name="afii61289" unicode="&#x2113;" horiz-adv-x="500" d="M242 270 C298 328 336 377 361 421 C397 485 418 554 418 606 C418 651 397 680 364 680 C291 680 231 547 175 257 C162 242 134 215 123 205 C104 190 99 184 99 178 C99 174 105 168 109 168 C116 168 138 185 168 213 C154 111 152 92 152 62 C152 15 176 -14 213 -14 C244 -14 267 3 292 43 C304 62 311 80 311 89 C311 96 307 100 301 100 C294 100 289 96 284 84 C265 42 248 25 229 25 C215 25 208 33 208 50 C208 79 221 165 242 270 L242 270 Z M252 320 C296 572 322 652 362 652 C378 652 389 634 389 605 C389 518 340 417 252 320 L252 320 Z " />
<glyph glyph-name="uni2117" unicode="&#x2117;" horiz-adv-x="133" d="M86 517 L48 517 L48 267 L86 267 L86 517 Z M66 618 C51 618 38 605 38 590 C38 574 51 561 67 561 C82 561 95 574 95 590 C95 605 82 618 66 618 L66 618 Z " />
<glyph glyph-name="trademark" unicode="&#x2122;" horiz-adv-x="721" d="M132 632 L228 632 L228 667 L1 667 L1 632 L95 632 L95 287 L132 287 L132 632 Z M267 287 L304 287 L334 564 L474 265 L615 564 L646 287 L683 287 L638 697 L474 350 L312 698 L267 287 Z " />
<glyph glyph-name="uni2126" unicode="&#x2126;" horiz-adv-x="667" d="M28 0 L285 0 L285 36 C141 118 72 222 72 358 C72 520 186 645 334 645 C479 645 594 518 594 358 C594 222 525 118 382 36 L382 0 L638 0 L638 39 L437 39 C569 114 638 225 638 361 C638 543 505 684 333 684 C161 684 28 543 28 361 C28 224 97 114 229 39 L28 39 L28 0 Z " />
<glyph glyph-name="partialdiff" unicode="&#x2202;" horiz-adv-x="500" d="M97 633 C253 611 362 511 408 348 C367 410 319 436 249 436 C131 436 38 337 38 213 C38 90 135 -12 252 -12 C321 -12 386 25 425 84 C452 125 463 170 463 233 C463 363 414 489 333 568 C272 628 206 658 103 673 L97 633 Z M258 401 C351 401 419 324 419 217 C419 106 347 23 252 23 C159 23 82 108 82 210 C82 318 159 401 258 401 L258 401 Z " />
<glyph glyph-name="emptyset" unicode="&#x2205;" horiz-adv-x="618" d="M439 667 L392 578 C362 588 340 592 311 592 C175 592 67 485 67 349 C67 267 103 200 175 147 L114 25 L162 0 L225 123 C248 112 271 107 304 107 C443 107 552 214 552 350 C552 432 514 501 439 554 L487 642 L439 667 Z M416 502 C465 472 496 412 496 349 C496 247 412 164 309 164 C290 164 275 166 251 172 L416 502 Z M200 198 C149 239 123 290 123 350 C123 452 208 535 312 535 C332 535 345 533 366 527 L200 198 Z " />
<glyph glyph-name="Delta" unicode="&#x2206;" horiz-adv-x="667" d="M33 0 L633 0 L356 667 L310 667 L33 0 Z M95 40 L333 614 L570 40 L95 40 Z " />
<glyph glyph-name="product" unicode="&#x220f;" horiz-adv-x="681" d="M35 750 L35 710 L112 710 L112 -210 L35 -210 L35 -250 L238 -250 L238 -210 L155 -210 L155 710 L526 710 L526 -210 L442 -210 L442 -250 L646 -250 L646 -210 L569 -210 L569 710 L646 710 L646 750 L35 750 Z " />
<glyph glyph-name="summation" unicode="&#x2211;" horiz-adv-x="667" d="M587 750 L32 750 L32 706 L283 272 L32 -204 L32 -250 L596 -250 L596 -35 L555 -35 L553 -210 L80 -210 L334 272 L80 709 L544 709 L547 533 L587 533 L587 750 Z " />
<glyph glyph-name="minus" unicode="&#x2212;" horiz-adv-x="547" d="M31 320 L515 320 L515 360 L31 360 L31 320 Z " />
<glyph glyph-name="uni2218" unicode="&#x2218;" horiz-adv-x="500" d="M253 480 C175 480 113 418 113 340 C113 263 175 200 251 200 C327 200 388 263 388 340 C388 417 327 480 253 480 L253 480 Z M252 433 C301 433 341 391 341 340 C341 289 301 247 251 247 C201 247 160 289 160 340 C160 392 200 433 252 433 L252 433 Z " />
<glyph glyph-name="uni2219" unicode="&#x2219;" horiz-adv-x="206" d="M104 243 C84 243 67 227 67 207 C67 186 83 170 104 170 C124 170 140 186 140 207 C140 227 124 243 104 243 L104 243 Z " />
<glyph glyph-name="radical" unicode="&#x221a;" horiz-adv-x="667" d="M667 828 L425 828 L307 439 C270 322 248 250 241 223 C229 183 217 139 204 93 L198 70 L195 70 C184 113 172 157 159 204 L112 354 L0 354 L0 314 L77 314 L173 0 L220 0 L461 788 L667 788 L667 828 Z " />
<glyph glyph-name="infinity" unicode="&#x221e;" horiz-adv-x="667" d="M334 310 C388 226 437 192 503 192 C588 192 647 253 647 340 C647 428 588 489 503 489 C436 489 388 456 332 371 C279 453 228 489 165 489 C80 489 19 428 19 342 C19 253 78 192 165 192 C228 192 279 227 334 310 L334 310 Z M355 341 C408 422 446 451 499 451 C560 451 604 405 604 340 C604 276 561 230 500 230 C446 230 406 261 355 341 L355 341 Z M311 340 C257 258 220 230 167 230 C106 230 62 276 62 341 C62 405 105 451 166 451 C220 451 260 420 311 340 L311 340 Z " />
<glyph glyph-name="integral" unicode="&#x222b;" horiz-adv-x="500" d="M120 -239 C139 -248 148 -250 167 -250 C209 -250 243 -233 258 -205 C269 -187 271 -165 271 -90 L271 582 C271 630 272 661 275 672 C281 697 299 711 327 711 C341 711 350 708 367 700 L379 739 C355 747 343 750 325 750 C281 750 247 729 236 694 C230 676 228 653 228 589 L228 -97 C228 -139 227 -159 224 -172 C218 -197 200 -211 172 -211 C158 -211 149 -209 132 -201 L120 -239 Z " />
<glyph glyph-name="similar" unicode="&#x223c;" horiz-adv-x="500" d="M39 274 C71 331 100 354 138 354 C159 354 182 347 217 329 C307 284 325 277 355 277 C410 277 452 309 489 379 L460 396 C426 338 400 318 359 318 C333 318 315 325 257 355 C200 385 169 395 141 395 C88 395 47 363 11 292 L39 274 Z " />
<glyph glyph-name="approxequal" unicode="&#x2248;" horiz-adv-x="500" d="M39 348 C71 405 100 428 138 428 C159 428 182 421 217 403 C307 358 325 351 355 351 C410 351 452 383 489 453 L460 471 C426 412 400 392 359 392 C333 392 315 398 257 429 C200 459 169 469 141 469 C88 469 48 437 11 366 L39 348 Z M39 199 C72 256 100 279 138 279 C159 279 182 272 217 254 C304 211 325 203 355 203 C410 203 452 235 489 305 L460 322 C426 264 400 244 359 244 C333 244 314 251 257 280 C201 309 169 320 141 320 C88 320 48 289 11 218 L39 199 Z " />
<glyph glyph-name="notequal" unicode="&#x2260;" horiz-adv-x="547" d="M291 413 L31 413 L31 373 L273 373 L241 307 L31 307 L31 267 L223 267 L161 136 L195 127 L261 267 L515 267 L515 307 L280 307 L311 373 L515 373 L515 413 L330 413 L389 538 L355 548 L291 413 Z " />
<glyph glyph-name="lessequal" unicode="&#x2264;" horiz-adv-x="500" d="M466 579 L33 388 L33 349 L466 159 L466 201 L80 369 L466 536 L466 579 Z M466 128 L33 128 L33 88 L466 88 L466 128 Z " />
<glyph glyph-name="greaterequal" unicode="&#x2265;" horiz-adv-x="500" d="M33 159 L466 348 L466 388 L33 579 L33 536 L419 369 L33 201 L33 159 Z M33 88 L466 88 L466 128 L33 128 L33 88 Z " />
<glyph glyph-name="fi" unicode="&#xfb01;" horiz-adv-x="556" d="M290 405 L290 443 L90 443 L90 0 L130 0 L130 223 L285 223 L285 261 L130 261 L130 405 L290 405 Z M466 443 L426 443 L426 0 L466 0 L466 443 Z " />
<glyph glyph-name="fl" unicode="&#xfb02;" horiz-adv-x="602" d="M290 405 L290 443 L90 443 L90 0 L130 0 L130 223 L285 223 L285 261 L130 261 L130 405 L290 405 Z M466 443 L426 443 L426 0 L589 0 L589 38 L466 38 L466 443 Z " />
</font>
</svg>
