<?xml version="1.0" encoding="UTF-8"?>
<svg xmlns="http://www.w3.org/2000/svg" xmlns:xlink="http://www.w3.org/1999/xlink" version="1.2" >
<font id="Bodoni URW Wide Light Oblique">
<font-face  font-family="Bodoni URW Wide" units-per-em="1000" ascent="667" descent="-333" font-style="italic" font-weight="300" font-stretch="normal" cap-height="667" x-height="387" underline-position="-88" underline-thickness="46" />
<missing-glyph  horiz-adv-x="250" d="" />
<glyph glyph-name="NULL" d="" />
<glyph glyph-name="CR" unicode="&#xd;" horiz-adv-x="250" d="" />
<glyph glyph-name="space" unicode="&#x20;" horiz-adv-x="250" d="" />
<glyph glyph-name="exclam" unicode="&#x21;" horiz-adv-x="287" d="M123 197 C153 322 180 414 207 480 L246 577 C253 595 257 612 257 627 C257 657 241 677 217 677 C178 677 147 633 145 577 L143 480 C140 393 135 351 106 197 L123 197 Z M97 107 C59 107 23 74 23 39 C23 12 44 -7 71 -7 C110 -7 145 26 145 62 C145 87 124 107 97 107 L97 107 Z " />
<glyph glyph-name="quotedbl" unicode="&#x22;" horiz-adv-x="299" d="M106 413 L164 576 C175 608 179 624 179 639 C179 662 168 677 152 677 C122 677 101 640 97 576 L85 413 L106 413 Z M247 413 L305 576 C316 609 320 624 320 639 C320 662 309 677 292 677 C262 677 242 640 238 576 L226 413 L247 413 Z " />
<glyph glyph-name="numbersign" unicode="&#x23;" horiz-adv-x="525" d="M241 442 L315 647 L251 647 L178 442 L82 442 L77 417 L169 417 L104 238 L8 238 L3 213 L95 213 L18 0 L82 0 L158 213 L282 213 L205 0 L269 0 L345 213 L441 213 L445 238 L354 238 L419 417 L514 417 L519 442 L428 442 L502 647 L438 647 L364 442 L241 442 Z M232 417 L355 417 L291 238 L167 238 L232 417 Z " />
<glyph glyph-name="dollar" unicode="&#x24;" horiz-adv-x="525" d="M285 395 L338 648 C390 646 417 631 417 604 C417 599 416 590 415 581 C413 561 411 543 411 535 C411 511 428 493 452 493 C482 493 507 525 507 562 C507 621 437 666 343 668 L360 749 L331 749 L313 667 C254 660 206 641 165 607 C117 566 86 508 86 457 C86 404 116 362 179 326 L234 296 L176 21 C115 25 82 49 82 90 C82 101 84 107 94 133 C100 148 103 160 103 172 C103 200 89 218 65 218 C30 218 -2 177 -2 134 C-2 64 70 9 172 1 L153 -88 L182 -88 L201 1 C253 4 302 23 344 58 C401 103 440 177 440 236 C440 287 411 327 348 361 L285 395 Z M255 411 L227 427 C185 451 163 483 163 520 C163 585 224 640 305 647 L255 411 Z M260 280 L306 255 C350 230 371 201 371 166 C371 96 294 28 205 21 L260 280 Z " />
<glyph glyph-name="percent" unicode="&#x25;" horiz-adv-x="721" d="M239 653 C149 653 58 550 58 448 C58 374 104 319 165 319 C256 319 346 421 346 523 C346 599 302 653 239 653 L239 653 Z M267 451 C249 366 224 337 171 337 C132 337 115 353 115 392 C115 406 118 425 123 451 L138 521 C156 606 181 635 234 635 C273 635 290 619 290 580 C290 567 287 549 281 521 L267 451 Z M601 647 L570 647 L117 0 L148 0 L601 647 Z M552 327 C462 327 371 224 371 123 C371 49 417 -6 478 -6 C568 -6 659 96 659 197 C659 273 615 327 552 327 L552 327 Z M579 126 C561 41 537 12 484 12 C445 12 428 29 428 67 C428 80 431 101 436 126 L451 196 C469 280 493 309 546 309 C585 309 602 293 602 254 C602 240 599 219 594 196 L579 126 Z " />
<glyph glyph-name="ampersand" unicode="&#x26;" horiz-adv-x="624" d="M363 0 L525 0 L529 18 L448 18 L402 112 C468 183 492 227 516 322 L593 322 L597 340 L411 340 L407 322 L494 322 C479 247 441 175 391 131 L292 340 C361 365 393 382 417 409 C436 429 447 455 447 479 C447 522 401 551 333 551 C238 551 166 501 166 434 C166 421 172 401 181 380 L208 322 C118 283 76 257 44 221 C14 187 -2 149 -2 110 C-2 34 51 -10 142 -10 C214 -10 275 10 334 54 L363 0 Z M260 408 C239 451 237 456 237 471 C237 509 270 531 325 531 C371 531 390 517 390 484 C390 456 380 425 362 401 C345 377 328 367 285 353 L260 408 Z M327 71 C276 34 243 21 204 21 C162 21 131 43 109 86 C93 117 82 157 82 183 C82 236 115 266 215 306 L327 71 Z " />
<glyph glyph-name="quotesingle" unicode="&#x27;" horiz-adv-x="158" d="M106 413 L164 576 C175 608 179 624 179 639 C179 662 168 677 152 677 C122 677 101 640 97 576 L85 413 L106 413 Z " />
<glyph glyph-name="parenleft" unicode="&#x28;" horiz-adv-x="278" d="M302 674 C110 491 11 313 11 150 C11 44 48 -71 120 -186 L135 -177 C97 -86 81 -7 81 81 C81 201 115 340 174 457 C209 528 250 588 314 665 L302 674 Z " />
<glyph glyph-name="parenright" unicode="&#x29;" horiz-adv-x="278" d="M105 665 C143 574 159 496 159 407 C159 285 125 148 67 31 C31 -39 -9 -100 -74 -177 L-63 -186 C38 -90 104 -8 162 93 C206 171 229 256 229 339 C229 443 190 563 120 674 L105 665 Z " />
<glyph glyph-name="asterisk" unicode="&#x2a;" horiz-adv-x="525" d="M296 510 C288 508 285 506 280 500 L195 554 C171 569 170 570 157 570 C137 570 116 549 116 528 C116 510 127 504 166 501 L275 492 C274 489 274 487 274 485 C274 482 275 480 278 477 L180 406 C146 383 139 375 139 359 C139 344 153 331 169 331 C188 331 198 340 220 373 L284 472 C288 470 289 470 292 470 C294 470 296 470 301 472 L325 375 C333 341 339 332 357 332 C379 332 402 352 402 371 C402 383 399 388 379 407 L309 477 C314 482 316 485 317 492 L431 503 C478 506 495 517 495 544 C495 560 484 572 470 572 C457 572 454 571 424 555 L316 500 C313 506 312 508 305 510 L351 613 C363 640 364 643 364 653 C364 667 352 677 335 677 C310 677 292 658 292 631 L292 613 L296 510 Z " />
<glyph glyph-name="plus" unicode="&#x2b;" horiz-adv-x="525" d="M242 308 L204 131 L235 131 L272 308 L466 308 L473 338 L279 338 L316 515 L286 515 L248 338 L55 338 L49 308 L242 308 Z " />
<glyph glyph-name="comma" unicode="&#x2c;" horiz-adv-x="259" d="M5 -152 C92 -90 139 -24 139 38 C139 82 111 112 71 112 C27 112 -9 76 -9 33 C-9 8 5 -7 29 -7 C60 -7 81 16 86 56 C105 46 112 34 112 11 C112 -30 75 -78 -5 -140 L5 -152 Z " />
<glyph glyph-name="hyphen" unicode="&#x2d;" horiz-adv-x="198" d="M176 230 L-22 230 L-35 170 L163 170 L176 230 Z " />
<glyph glyph-name="period" unicode="&#x2e;" horiz-adv-x="259" d="M83 107 C45 107 9 74 9 39 C9 12 30 -7 57 -7 C96 -7 131 26 131 62 C131 87 110 107 83 107 L83 107 Z " />
<glyph glyph-name="slash" unicode="&#x2f;" horiz-adv-x="428" d="M461 667 L405 667 L-150 -180 L-94 -180 L461 667 Z " />
<glyph glyph-name="zero" unicode="0" horiz-adv-x="525" d="M333 657 C269 657 209 621 146 543 C74 454 32 339 32 228 C32 165 47 104 72 61 C101 13 139 -10 188 -10 C253 -10 315 28 375 104 C450 197 489 307 489 419 C489 484 475 541 446 590 C422 633 381 657 333 657 L333 657 Z M371 251 C333 74 287 10 195 10 C129 10 101 42 101 116 C101 149 106 187 120 251 L151 396 C188 574 235 637 327 637 C392 637 420 605 420 531 C420 497 414 457 401 396 L371 251 Z " />
<glyph glyph-name="one" unicode="1" horiz-adv-x="525" d="M389 647 L183 637 L180 621 L279 621 C296 621 300 619 300 611 C300 606 299 600 298 595 L176 18 L52 18 L48 0 L363 0 L367 18 L256 18 L389 647 Z " />
<glyph glyph-name="two" unicode="2" horiz-adv-x="525" d="M382 0 L420 177 L406 177 C371 81 369 79 295 77 L56 77 L261 243 L334 301 C384 341 426 385 458 432 C477 458 488 493 488 524 C488 605 424 657 323 657 C205 657 105 578 105 484 C105 444 126 419 162 419 C193 419 219 444 219 473 C219 493 203 508 182 508 C175 508 168 507 162 505 C144 500 144 500 141 500 C135 500 131 506 131 514 C131 571 214 634 288 634 C354 634 394 589 394 516 C394 467 379 415 355 377 C323 329 290 296 187 211 L-13 46 L-23 0 L382 0 Z " />
<glyph glyph-name="three" unicode="3" horiz-adv-x="525" d="M148 358 L144 340 L183 340 C289 340 340 305 340 232 C340 100 266 10 158 10 C106 10 54 36 54 62 C54 67 58 71 72 79 C94 91 106 110 106 135 C106 154 93 166 75 166 C41 166 13 132 13 90 C13 29 70 -10 159 -10 C253 -10 331 26 384 93 C415 131 433 177 433 216 C433 253 417 289 392 308 C360 332 330 341 255 349 C324 362 365 382 409 424 C445 459 464 499 464 541 C464 610 406 657 319 657 C224 657 143 602 143 536 C143 514 156 498 175 498 C200 498 223 524 223 553 C223 566 218 577 207 583 C200 588 199 590 199 594 C199 614 249 634 298 634 C350 634 382 610 382 571 C382 542 371 489 358 456 C333 393 272 358 188 358 L148 358 Z " />
<glyph glyph-name="four" unicode="4" horiz-adv-x="525" d="M321 174 L428 174 L412 99 L433 99 L470 273 L449 273 L433 199 L326 199 L423 654 L384 654 L3 216 L-6 174 L241 174 L208 18 L110 18 L106 0 L380 0 L384 18 L288 18 L321 174 Z M246 199 L19 199 L320 546 L246 199 Z " />
<glyph glyph-name="five" unicode="5" horiz-adv-x="525" d="M193 570 L387 570 C448 569 465 586 489 672 L475 672 C459 650 455 648 427 647 L236 647 C193 646 184 639 175 597 L106 339 C161 362 182 368 217 368 C297 368 345 327 345 260 C345 194 321 120 285 71 C257 34 207 10 157 10 C110 10 48 38 48 58 C48 63 51 68 56 70 C81 83 82 83 89 93 C100 106 106 122 106 135 C106 154 93 168 73 168 C40 168 10 131 10 90 C10 32 72 -10 159 -10 C306 -10 435 102 435 230 C435 326 358 388 238 388 C202 388 177 384 139 372 L193 570 Z " />
<glyph glyph-name="six" unicode="6" horiz-adv-x="525" d="M500 687 C385 665 299 628 220 564 C99 467 23 316 23 174 C23 63 91 -10 196 -10 C336 -10 462 121 462 268 C462 365 399 429 304 429 C256 429 217 415 170 380 C214 537 320 630 495 667 L500 687 Z M286 407 C317 407 349 394 363 374 C372 363 376 348 376 324 C376 277 363 199 344 141 C313 41 278 10 199 10 C135 10 103 45 103 115 C103 172 126 272 151 326 C173 373 229 407 286 407 L286 407 Z " />
<glyph glyph-name="seven" unicode="7" horiz-adv-x="525" d="M481 570 L280 280 C264 256 198 152 187 132 C162 88 151 57 151 31 C151 6 167 -10 191 -10 C233 -10 262 28 260 79 L260 88 L258 127 L258 132 C254 178 284 241 378 379 L549 629 L551 631 C554 635 557 640 557 642 C557 646 555 647 544 647 L162 647 L77 468 L95 468 L123 516 C150 561 161 568 215 570 L481 570 Z " />
<glyph glyph-name="eight" unicode="8" horiz-adv-x="525" d="M302 343 C366 358 403 375 436 407 C469 439 488 481 488 522 C488 601 423 657 332 657 C214 657 104 565 104 465 C104 403 143 364 227 343 C154 331 113 313 71 274 C29 236 5 185 5 136 C5 50 80 -10 189 -10 C330 -10 450 88 450 201 C450 239 436 272 411 296 C383 322 357 333 302 343 L302 343 Z M329 637 C380 637 409 610 409 565 C409 535 397 475 384 438 C365 387 324 358 268 358 C214 358 185 383 185 432 C185 461 197 520 210 557 C230 610 270 637 329 637 L329 637 Z M262 331 C323 331 360 294 360 233 C360 172 340 107 307 64 C282 31 238 10 192 10 C132 10 96 47 96 109 C96 169 117 235 149 277 C174 310 218 331 262 331 L262 331 Z " />
<glyph glyph-name="nine" unicode="9" horiz-adv-x="525" d="M15 -41 C151 -19 262 41 357 142 C446 238 498 360 498 472 C498 582 432 657 334 657 C192 657 57 519 57 374 C57 282 128 212 221 212 C274 212 307 228 353 274 C296 100 181 -2 19 -21 L15 -41 Z M324 637 C385 637 418 606 418 550 C418 506 406 429 391 377 C365 285 307 234 228 234 C171 234 142 265 142 325 C142 385 168 496 198 559 C220 607 268 637 324 637 L324 637 Z " />
<glyph glyph-name="colon" unicode="&#x3a;" horiz-adv-x="259" d="M145 400 C106 400 71 367 71 332 C71 306 92 287 119 287 C158 287 193 319 193 355 C193 381 172 400 145 400 L145 400 Z M83 107 C45 107 9 74 9 39 C9 12 30 -7 57 -7 C96 -7 131 26 131 62 C131 87 110 107 83 107 L83 107 Z " />
<glyph glyph-name="semicolon" unicode="&#x3b;" horiz-adv-x="259" d="M131 400 C93 400 58 367 58 332 C58 306 78 287 106 287 C145 287 180 319 180 355 C180 381 159 400 131 400 L131 400 Z M5 -152 C92 -90 139 -24 139 38 C139 82 111 112 71 112 C27 112 -9 76 -9 33 C-9 8 5 -7 29 -7 C60 -7 81 16 86 56 C105 46 112 34 112 11 C112 -30 75 -78 -5 -140 L5 -152 Z " />
<glyph glyph-name="less" unicode="&#x3c;" horiz-adv-x="525" d="M533 595 L46 327 L45 322 L418 52 L431 114 L117 343 L528 571 L533 595 Z " />
<glyph glyph-name="equal" unicode="&#x3d;" horiz-adv-x="525" d="M485 399 L68 399 L62 369 L479 369 L485 399 Z M460 279 L42 279 L36 249 L453 249 L460 279 Z " />
<glyph glyph-name="greater" unicode="&#x3e;" horiz-adv-x="525" d="M-12 52 L475 319 L476 324 L103 595 L90 532 L405 303 L-7 75 L-12 52 Z " />
<glyph glyph-name="question" unicode="&#x3f;" horiz-adv-x="396" d="M126 196 C139 262 151 278 219 324 L281 365 C356 415 396 479 396 551 C396 629 346 677 265 677 C171 677 84 606 84 529 C84 502 96 488 117 488 C143 488 165 513 165 544 C165 557 159 567 145 575 C134 581 131 585 131 591 C131 621 203 657 264 657 C323 657 364 626 364 582 C364 549 338 512 288 476 L249 446 C159 385 123 318 111 193 L126 196 Z M107 107 C69 107 33 74 33 39 C33 12 54 -7 81 -7 C120 -7 155 26 155 62 C155 87 134 107 107 107 L107 107 Z " />
<glyph glyph-name="at" unicode="&#x40;" horiz-adv-x="782" d="M566 83 C491 35 419 12 343 12 C190 12 79 116 79 260 C79 458 269 638 477 638 C611 638 710 551 710 433 C710 374 693 324 657 279 C612 221 536 174 488 174 C476 174 470 179 470 189 C470 198 478 222 490 248 L601 487 L534 487 L509 432 C506 455 503 465 496 473 C485 487 464 496 443 496 C330 496 197 361 197 247 C197 189 235 149 290 149 C340 149 380 172 418 223 C416 207 415 198 415 192 C415 162 432 147 465 147 C523 147 588 177 644 229 C707 288 738 356 738 438 C738 486 726 527 701 562 C657 625 575 664 489 664 C259 664 50 470 50 256 C50 101 171 -13 334 -13 C435 -13 531 21 608 83 L566 83 Z M446 479 C474 479 493 459 493 429 C493 393 471 336 433 271 C387 196 347 163 298 163 C269 163 252 181 252 210 C252 243 282 316 323 382 C365 449 403 479 446 479 L446 479 Z " />
<glyph glyph-name="A" unicode="A" horiz-adv-x="636" d="M359 214 L387 18 L288 18 L284 0 L570 0 L573 18 L493 18 L402 667 L374 667 L-3 18 L-70 18 L-74 0 L112 0 L116 18 L23 18 L136 214 L359 214 Z M356 232 L147 232 L314 527 L356 232 Z " />
<glyph glyph-name="B" unicode="B" horiz-adv-x="646" d="M60 18 L-32 18 L-36 0 L243 0 C358 0 426 16 482 57 C535 95 566 155 566 218 C566 250 553 278 529 298 C493 328 463 339 391 350 C470 365 516 385 555 422 C588 453 606 492 606 532 C606 572 586 607 550 630 C512 655 450 667 359 667 L106 667 L102 649 L194 649 L60 18 Z M225 358 L287 649 L345 649 C463 649 509 621 509 548 C509 489 486 430 451 399 C418 370 374 358 298 358 L225 358 Z M153 18 L221 340 L291 340 C406 340 457 309 457 239 C457 181 439 120 411 84 C376 39 323 18 246 18 L153 18 Z " />
<glyph glyph-name="C" unicode="C" horiz-adv-x="621" d="M641 667 L627 667 L581 617 C533 658 487 677 434 677 C357 677 285 651 218 601 C108 517 38 378 38 246 C38 100 139 -10 272 -10 C332 -10 384 7 461 50 L485 0 L499 0 L538 185 L524 185 C488 126 466 98 429 68 C387 31 329 10 273 10 C190 10 130 60 130 130 C130 168 144 257 165 350 C191 464 208 517 229 555 C265 619 336 657 418 657 C478 657 527 635 557 595 C579 566 586 543 590 494 L604 494 L641 667 Z " />
<glyph glyph-name="D" unicode="D" horiz-adv-x="707" d="M60 18 L-32 18 L-36 0 L222 0 C353 0 417 18 495 77 C601 158 667 287 667 416 C667 507 631 580 565 623 C516 655 462 667 363 667 L106 667 L102 649 L194 649 L60 18 Z M153 18 L287 649 L359 649 C510 649 571 610 571 514 C571 446 541 296 508 194 C480 112 455 78 400 49 C355 26 308 18 227 18 L153 18 Z " />
<glyph glyph-name="E" unicode="E" horiz-adv-x="615" d="M602 667 L106 667 L102 649 L193 649 L59 18 L-32 18 L-36 0 L483 0 L548 208 L534 208 C492 124 470 90 434 55 C396 23 381 19 296 18 L152 18 L218 329 L266 329 C338 329 365 308 365 255 C365 244 364 232 361 221 L356 198 L370 198 L429 472 L415 472 L411 453 C392 374 360 349 273 347 L222 347 L286 649 L378 649 C522 650 559 618 563 486 L577 486 L602 667 Z " />
<glyph glyph-name="F" unicode="F" horiz-adv-x="561" d="M604 667 L106 667 L102 649 L193 649 L59 18 L-32 18 L-36 0 L251 0 L255 18 L152 18 L218 329 L284 329 C359 329 385 310 385 255 C385 247 384 237 382 227 L377 205 L391 205 L448 475 L434 475 L431 457 C405 363 383 346 289 347 L222 347 L286 649 L409 649 C466 649 505 640 524 621 C549 596 564 554 564 508 C564 506 564 506 563 475 L577 475 L604 667 Z " />
<glyph glyph-name="G" unicode="G" horiz-adv-x="666" d="M628 667 L614 667 L570 625 C523 661 478 677 422 677 C310 677 192 606 115 492 C67 420 38 324 38 237 C38 202 44 171 55 140 C92 41 165 -10 268 -10 C339 -10 406 14 464 61 C505 94 531 135 560 212 L630 212 L634 230 L341 230 L337 212 L446 212 C433 153 425 128 413 105 C381 44 325 10 257 10 C175 10 131 53 131 132 C131 225 192 482 231 555 C266 620 330 657 408 657 C510 657 566 594 572 471 L586 471 L628 667 Z " />
<glyph glyph-name="H" unicode="H" horiz-adv-x="745" d="M525 330 L459 18 L356 18 L352 0 L639 0 L643 18 L552 18 L686 649 L777 649 L781 667 L494 667 L490 649 L593 649 L529 348 L222 348 L286 649 L389 649 L393 667 L106 667 L102 649 L193 649 L59 18 L-32 18 L-36 0 L251 0 L255 18 L152 18 L218 330 L525 330 Z " />
<glyph glyph-name="I" unicode="I" horiz-adv-x="350" d="M59 18 L-32 18 L-36 0 L244 0 L248 18 L152 18 L286 649 L382 649 L386 667 L106 667 L102 649 L193 649 L59 18 Z " />
<glyph glyph-name="J" unicode="J" horiz-adv-x="402" d="M352 649 L448 649 L452 667 L172 667 L168 649 L259 649 L134 63 C125 20 116 -3 103 -19 C86 -41 59 -55 33 -55 C17 -55 3 -46 3 -36 C3 -33 5 -30 9 -27 C30 -8 36 3 36 23 C36 44 23 58 3 58 C-30 58 -58 27 -58 -10 C-58 -48 -25 -75 21 -75 C63 -75 109 -59 146 -32 C199 8 226 57 246 149 L352 649 Z " />
<glyph glyph-name="K" unicode="K" horiz-adv-x="689" d="M59 18 L-32 18 L-36 0 L244 0 L248 18 L152 18 L286 649 L382 649 L386 667 L106 667 L102 649 L193 649 L59 18 Z M344 407 L623 649 L711 649 L715 667 L493 667 L489 649 L591 649 L248 353 L441 18 L347 18 L344 0 L618 0 L622 18 L568 18 L344 407 Z " />
<glyph glyph-name="L" unicode="L" horiz-adv-x="595" d="M482 0 L540 205 L526 205 C460 55 416 17 307 18 L152 18 L286 649 L382 649 L386 667 L106 667 L102 649 L193 649 L59 18 L-32 18 L-36 0 L482 0 Z " />
<glyph glyph-name="M" unicode="M" horiz-adv-x="802" d="M281 0 L301 0 L652 644 L519 18 L424 18 L420 0 L700 0 L704 18 L613 18 L747 649 L838 649 L841 667 L641 667 L368 166 L313 667 L103 667 L99 649 L183 649 L49 18 L-35 18 L-39 0 L160 0 L164 18 L72 18 L206 649 L281 0 Z " />
<glyph glyph-name="N" unicode="N" horiz-adv-x="712" d="M514 0 L530 0 L668 649 L745 649 L749 667 L556 667 L552 649 L644 649 L546 185 L318 667 L96 667 L92 649 L183 649 L49 18 L-42 18 L-46 0 L168 0 L171 18 L72 18 L205 644 L514 0 Z " />
<glyph glyph-name="O" unicode="O" horiz-adv-x="693" d="M423 677 C221 677 40 473 40 244 C40 95 136 -10 273 -10 C472 -10 655 197 655 422 C655 570 558 677 423 677 L423 677 Z M415 657 C506 657 563 608 563 529 C563 495 551 424 528 317 C498 182 490 154 468 115 C430 49 359 10 275 10 C186 10 131 60 131 140 C131 171 136 207 148 267 C189 463 202 513 226 553 C265 619 334 657 415 657 L415 657 Z " />
<glyph glyph-name="P" unicode="P" horiz-adv-x="601" d="M217 323 L327 323 C420 323 482 340 533 378 C585 416 615 470 615 524 C615 570 593 613 557 635 C522 657 471 667 400 667 L106 667 L102 649 L193 649 L59 18 L-32 18 L-36 0 L251 0 L255 18 L152 18 L217 323 Z M221 341 L286 649 L389 649 C473 649 508 628 508 576 C508 499 477 402 444 374 C416 350 384 341 324 341 L221 341 Z " />
<glyph glyph-name="Q" unicode="Q" horiz-adv-x="693" d="M324 -6 C506 26 654 218 654 422 C654 572 558 677 423 677 C221 677 40 472 40 244 C40 114 113 17 226 -6 L223 -19 C220 -37 218 -54 218 -73 C218 -173 298 -215 489 -217 L492 -204 C359 -199 313 -169 313 -89 C313 -67 316 -39 322 -13 L324 -6 Z M416 657 C506 657 563 608 563 529 C563 496 551 424 528 317 C499 182 490 154 468 115 C430 49 359 10 276 10 C187 10 132 60 132 140 C132 171 137 207 149 267 C190 463 203 513 227 553 C265 619 334 657 416 657 L416 657 Z " />
<glyph glyph-name="R" unicode="R" horiz-adv-x="676" d="M222 345 L288 345 C337 345 379 332 396 312 C407 299 413 278 413 253 C413 240 412 227 409 214 L398 165 C394 143 391 120 391 104 C391 36 434 -5 505 -5 C531 -5 551 -1 579 12 L578 29 C554 19 544 16 530 16 C508 16 490 34 490 56 L490 60 L491 73 C491 79 494 91 497 108 L509 163 C512 176 513 189 513 203 C513 244 500 278 474 302 C448 328 420 339 355 350 C456 361 505 379 554 425 C591 459 610 499 610 545 C610 585 591 619 559 638 C520 661 485 667 391 667 L106 667 L102 649 L193 649 L59 18 L-32 18 L-36 0 L251 0 L255 18 L152 18 L222 345 Z M225 363 L286 649 L365 649 C425 649 469 636 488 614 C500 599 506 577 506 548 C506 491 485 440 450 409 C416 378 365 363 297 363 L225 363 Z " />
<glyph glyph-name="S" unicode="S" horiz-adv-x="527" d="M510 676 L496 676 L454 633 C415 663 376 677 328 677 C204 677 91 562 91 437 C91 371 127 333 210 310 L287 290 C364 269 394 241 394 190 C394 91 309 10 205 10 C109 10 44 77 44 176 C44 183 44 191 45 207 L24 207 L-13 0 L1 0 L50 56 C94 8 134 -10 196 -10 C274 -10 340 23 390 86 C432 139 457 207 457 269 C457 343 418 386 326 409 L273 423 C184 446 152 470 152 514 C152 589 231 657 318 657 C401 657 454 606 454 526 L454 503 L475 503 L510 676 Z " />
<glyph glyph-name="T" unicode="T" horiz-adv-x="612" d="M417 649 L472 649 C568 647 599 605 611 457 L625 459 L655 667 L93 667 L41 459 L54 457 C86 531 109 566 151 607 C185 640 208 648 273 649 L324 649 L190 18 L85 18 L81 0 L389 0 L393 18 L283 18 L417 649 Z " />
<glyph glyph-name="U" unicode="U" horiz-adv-x="674" d="M277 649 L368 649 L372 667 L92 667 L88 649 L184 649 L99 249 C89 204 84 166 84 141 C84 43 152 -10 278 -10 C343 -10 392 2 431 27 C492 67 523 120 545 222 L635 649 L714 649 L717 667 L532 667 L528 649 L612 649 L521 222 C504 138 492 111 460 76 C420 33 368 10 309 10 C224 10 171 54 171 126 C171 144 174 164 183 205 L277 649 Z " />
<glyph glyph-name="V" unicode="V" horiz-adv-x="582" d="M302 144 L223 649 L325 649 L329 667 L53 667 L49 649 L117 649 L220 -10 L241 -10 L600 649 L670 649 L674 667 L476 667 L472 649 L576 649 L302 144 Z " />
<glyph glyph-name="W" unicode="W" horiz-adv-x="823" d="M550 143 L499 431 L627 649 L685 649 L689 667 L60 667 L56 649 L118 649 L222 -10 L241 -10 L421 292 L469 -10 L488 -10 L847 649 L904 649 L908 667 L731 667 L727 649 L823 649 L550 143 Z M224 649 L360 649 L414 325 L302 135 L224 649 Z M466 649 L599 649 L494 467 L466 649 Z " />
<glyph glyph-name="X" unicode="X" horiz-adv-x="612" d="M342 385 L573 649 L648 649 L652 667 L455 667 L451 649 L544 649 L334 408 L235 649 L338 649 L342 667 L60 667 L56 649 L115 649 L253 310 L5 18 L-68 18 L-72 0 L127 0 L131 18 L35 18 L261 288 L370 18 L277 18 L273 0 L551 0 L555 18 L491 18 L342 385 Z " />
<glyph glyph-name="Y" unicode="Y" horiz-adv-x="579" d="M339 312 L595 649 L667 649 L671 667 L471 667 L467 649 L569 649 L341 353 L224 649 L317 649 L321 667 L50 667 L46 649 L106 649 L246 312 L183 18 L78 18 L74 0 L382 0 L386 18 L277 18 L339 312 Z " />
<glyph glyph-name="Z" unicode="Z" horiz-adv-x="586" d="M468 0 L532 208 L518 208 C445 54 396 13 283 18 L80 18 L629 667 L157 667 L93 464 L107 464 C172 604 221 648 310 649 L502 649 L-34 24 L-39 0 L468 0 Z " />
<glyph glyph-name="bracketleft" unicode="&#x5b;" horiz-adv-x="278" d="M212 649 L338 649 L342 667 L141 667 L-39 -180 L162 -180 L166 -162 L40 -162 L212 649 Z " />
<glyph glyph-name="backslash" unicode="&#x5c;" horiz-adv-x="429" d="M114 667 L310 -180 L366 -180 L170 667 L114 667 Z " />
<glyph glyph-name="bracketright" unicode="&#x5d;" horiz-adv-x="278" d="M28 -162 L-98 -162 L-102 -180 L99 -180 L279 667 L78 667 L74 649 L200 649 L28 -162 Z " />
<glyph glyph-name="asciicircum" unicode="&#x5e;" horiz-adv-x="525" d="M541 285 L350 700 L343 700 L-37 285 L75 285 L355 591 L499 285 L541 285 Z " />
<glyph glyph-name="underscore" unicode="&#x5f;" horiz-adv-x="502" d="M-67 -88 L-77 -134 L380 -134 L390 -88 L-67 -88 Z " />
<glyph glyph-name="grave" unicode="&#x60;" horiz-adv-x="516" d="M252 613 L187 613 C178 613 173 610 173 605 C173 602 175 598 178 595 L310 466 C312 463 313 463 314 463 C317 463 318 465 318 468 C318 468 318 469 317 470 L252 613 Z " />
<glyph glyph-name="a" unicode="a" horiz-adv-x="443" d="M261 215 C221 214 196 212 177 209 C123 202 69 182 39 159 C6 132 -14 97 -14 63 C-14 17 21 -10 79 -10 C141 -10 185 14 231 71 C230 63 230 54 230 49 C230 10 251 -10 292 -10 C315 -10 328 -5 366 18 L359 30 C344 19 335 15 324 15 C310 15 302 22 302 33 L302 35 L305 57 L352 282 C355 295 357 310 357 320 C357 368 311 397 237 397 C147 397 61 344 61 289 C61 270 73 257 91 257 C116 257 139 280 139 305 C139 312 136 320 129 329 C125 334 123 339 123 341 C123 358 180 380 222 380 C262 380 287 363 286 338 C286 331 285 323 283 315 L261 215 Z M251 167 C242 123 233 99 217 79 C193 49 157 30 123 30 C89 30 66 50 66 80 C66 107 77 132 98 151 C133 184 177 198 258 200 L251 167 Z " />
<glyph glyph-name="b" unicode="b" horiz-adv-x="518" d="M236 667 L90 667 L86 649 L156 649 L22 18 L-48 18 L-52 0 L95 0 L109 69 C133 12 164 -10 219 -10 C340 -10 452 113 452 247 C452 338 396 397 310 397 C251 397 209 373 161 313 L236 667 Z M346 163 C331 94 322 66 305 45 C288 23 259 10 227 10 C166 10 127 54 127 124 C127 264 205 377 303 377 C348 377 373 354 373 312 C373 295 371 282 363 244 L346 163 Z " />
<glyph glyph-name="c" unicode="c" horiz-adv-x="423" d="M347 126 C309 51 247 10 171 10 C122 10 89 38 89 80 C89 102 93 135 99 165 L113 228 C136 336 177 377 264 377 C304 377 343 364 343 352 C343 348 340 345 333 340 C314 327 301 305 301 284 C301 262 313 249 335 249 C365 249 389 277 389 313 C389 362 339 397 268 397 C131 397 7 280 7 149 C7 56 74 -10 169 -10 C222 -10 273 10 312 45 C335 66 348 85 368 126 L347 126 Z " />
<glyph glyph-name="d" unicode="d" horiz-adv-x="516" d="M279 0 L426 0 L430 18 L360 18 L498 667 L333 667 L329 649 L417 649 L345 307 C323 372 292 397 231 397 C112 397 7 277 7 141 C7 50 63 -10 148 -10 C208 -10 248 15 297 84 L279 0 Z M114 233 C126 290 137 322 153 342 C170 364 197 377 227 377 C285 377 325 330 325 262 C325 127 245 10 152 10 C109 10 87 34 87 79 C87 101 89 116 99 165 L114 233 Z " />
<glyph glyph-name="e" unicode="e" horiz-adv-x="453" d="M111 228 L394 228 C396 243 397 250 397 260 C397 340 336 397 252 397 C181 397 112 360 61 294 C27 249 7 197 7 152 C7 60 80 -10 174 -10 C259 -10 335 45 369 130 L348 130 C317 56 250 10 173 10 C118 10 85 38 85 86 C85 100 88 121 94 151 L111 228 Z M303 246 L115 246 L122 280 C136 346 174 377 240 377 C292 377 315 360 315 322 C315 311 314 300 312 289 L303 246 Z " />
<glyph glyph-name="f" unicode="f" horiz-adv-x="313" d="M193 369 L296 369 L300 387 L197 387 L233 557 C242 602 247 616 259 632 C274 651 296 661 321 661 C338 661 347 658 355 649 C334 634 324 618 324 597 C324 578 335 566 352 566 C377 566 399 593 399 623 C399 655 370 677 329 677 C279 677 228 649 190 601 C163 566 152 540 138 474 L120 387 L28 387 L24 369 L116 369 L42 18 L-50 18 L-54 0 L211 0 L215 18 L118 18 L193 369 Z " />
<glyph glyph-name="g" unicode="g" horiz-adv-x="459" d="M399 340 C398 326 408 315 422 315 C445 315 463 335 463 361 C463 380 449 391 425 391 C401 391 383 382 345 353 C313 385 285 397 237 397 C129 397 42 322 42 227 C42 192 52 171 80 144 C40 118 19 104 16 102 C-21 71 -41 35 -41 -1 C-41 -36 -23 -57 19 -69 C-49 -96 -78 -127 -78 -175 C-78 -233 -11 -274 84 -274 C174 -274 251 -240 299 -178 C329 -141 346 -94 346 -51 C346 2 320 18 238 18 L67 18 C24 18 3 28 3 48 C3 73 32 100 94 133 C123 121 141 117 170 117 C280 117 368 193 368 288 C368 308 365 321 354 343 C370 356 380 361 389 361 C396 361 401 356 400 350 L399 340 Z M276 228 C261 156 240 137 178 137 C134 137 114 151 114 182 C114 191 117 208 121 228 L133 288 C148 356 173 377 239 377 C275 377 296 362 296 336 C296 328 294 312 290 293 L276 228 Z M63 -70 L99 -70 L218 -70 C292 -70 302 -74 302 -101 C302 -121 290 -150 271 -173 C230 -225 168 -254 99 -254 C29 -254 -12 -223 -12 -168 C-12 -131 5 -101 43 -70 L63 -70 Z " />
<glyph glyph-name="h" unicode="h" horiz-adv-x="548" d="M236 667 L90 667 L86 649 L156 649 L22 18 L-48 18 L-52 0 L169 0 L172 18 L99 18 L132 177 C146 241 160 280 181 308 C213 349 260 374 309 374 C352 374 373 357 373 324 C373 314 371 299 369 286 L312 18 L242 18 L238 0 L458 0 L462 18 L388 18 L445 286 C448 298 449 310 449 323 C449 371 411 397 337 397 C270 397 226 379 164 327 L236 667 Z " />
<glyph glyph-name="i" unicode="i" horiz-adv-x="278" d="M201 387 L50 387 L46 369 L120 369 L46 18 L-28 18 L-32 0 L189 0 L192 18 L122 18 L201 387 Z M211 654 C177 654 145 623 145 590 C145 565 163 547 188 547 C222 547 254 578 254 612 C254 636 236 654 211 654 L211 654 Z " />
<glyph glyph-name="j" unicode="j" horiz-adv-x="235" d="M177 387 L31 387 L27 369 L97 369 L-20 -182 C-31 -233 -49 -254 -82 -254 C-97 -254 -106 -248 -106 -236 C-106 -232 -104 -225 -101 -219 C-91 -200 -90 -198 -90 -186 C-90 -167 -100 -157 -118 -157 C-145 -157 -166 -184 -166 -218 C-166 -250 -135 -274 -93 -274 C-49 -274 -1 -249 27 -211 C53 -177 63 -150 79 -77 L177 387 Z M190 654 C155 654 123 623 123 589 C123 565 141 547 166 547 C200 547 232 578 232 612 C232 636 214 654 190 654 L190 654 Z " />
<glyph glyph-name="k" unicode="k" horiz-adv-x="514" d="M240 667 L90 667 L86 649 L160 649 L26 18 L-48 18 L-52 0 L169 0 L172 18 L102 18 L240 667 Z M252 250 L412 369 L482 369 L486 387 L281 387 L277 369 L377 369 L166 214 L281 18 L224 18 L220 0 L443 0 L447 18 L396 18 L252 250 Z " />
<glyph glyph-name="l" unicode="l" horiz-adv-x="258" d="M241 667 L80 667 L76 649 L160 649 L26 18 L-58 18 L-62 0 L180 0 L183 18 L103 18 L241 667 Z " />
<glyph glyph-name="m" unicode="m" horiz-adv-x="794" d="M50 387 L46 369 L116 369 L42 18 L-28 18 L-32 0 L189 0 L192 18 L119 18 L155 189 C171 263 184 300 202 323 C227 354 268 374 306 374 C342 374 363 356 363 325 C363 315 362 307 360 299 L301 18 L231 18 L227 0 L448 0 L451 18 L378 18 L417 206 C432 276 439 296 460 323 C485 354 525 374 565 374 C602 374 621 358 621 328 C621 318 620 309 618 299 L558 18 L488 18 L485 0 L705 0 L709 18 L635 18 L692 287 C695 302 697 317 697 329 C697 374 663 397 599 397 C542 397 496 381 446 343 C432 382 404 397 344 397 C286 397 241 381 187 343 L197 387 L50 387 Z " />
<glyph glyph-name="n" unicode="n" horiz-adv-x="549" d="M197 387 L50 387 L46 369 L116 369 L42 18 L-28 18 L-32 0 L189 0 L192 18 L119 18 L152 178 C168 250 181 287 201 314 C225 349 276 374 320 374 C354 374 375 356 375 326 C375 316 374 303 371 292 L313 18 L243 18 L239 0 L460 0 L463 18 L390 18 L442 265 C446 282 448 301 448 313 C448 363 403 397 336 397 C281 397 237 378 185 330 L197 387 Z " />
<glyph glyph-name="o" unicode="o" horiz-adv-x="494" d="M264 397 C130 397 8 279 8 151 C8 58 77 -10 172 -10 C306 -10 427 107 427 236 C427 329 359 397 264 397 L264 397 Z M324 169 C311 108 300 74 286 56 C263 27 223 10 177 10 C124 10 87 36 87 73 C87 90 93 132 101 169 L111 218 C120 262 134 309 142 322 C162 356 206 377 256 377 C310 377 348 351 348 314 C348 293 343 260 334 218 L324 169 Z " />
<glyph glyph-name="p" unicode="p" horiz-adv-x="514" d="M177 387 L30 387 L26 369 L96 369 L-35 -249 L-105 -249 L-109 -267 L126 -267 L129 -249 L42 -249 L112 82 C134 15 163 -10 222 -10 C337 -10 449 118 449 249 C449 339 394 397 310 397 C251 397 205 370 159 306 L177 387 Z M345 176 C330 105 307 50 286 33 C267 18 247 10 225 10 C168 10 130 59 130 131 C130 165 138 206 153 243 C186 329 242 377 308 377 C348 377 370 356 370 318 C370 300 368 284 360 249 L345 176 Z " />
<glyph glyph-name="q" unicode="q" horiz-adv-x="502" d="M348 387 L333 316 C309 374 278 397 224 397 C111 397 8 277 8 145 C8 52 62 -10 143 -10 C198 -10 233 12 282 77 L213 -249 L125 -249 L121 -267 L356 -267 L360 -249 L290 -249 L421 369 L491 369 L495 387 L348 387 Z M116 239 C127 293 137 319 153 342 C169 363 197 377 225 377 C275 377 314 333 314 277 C314 227 298 152 277 109 C249 48 198 10 147 10 C110 10 89 35 89 78 C89 102 92 129 99 159 L116 239 Z " />
<glyph glyph-name="r" unicode="r" horiz-adv-x="371" d="M197 387 L50 387 L46 369 L116 369 L42 18 L-28 18 L-32 0 L189 0 L192 18 L119 18 L143 134 C161 219 176 258 207 305 C231 341 254 360 272 360 C279 360 284 356 284 351 C284 349 284 346 283 344 C282 337 281 328 281 323 C281 305 292 294 310 294 C340 294 364 322 364 355 C364 382 346 397 315 397 C262 397 226 369 176 287 L197 387 Z " />
<glyph glyph-name="s" unicode="s" horiz-adv-x="374" d="M329 395 L315 395 L293 359 C261 386 235 397 198 397 C115 397 45 331 45 252 C45 203 70 174 121 164 L199 148 C237 141 255 125 255 99 C255 54 199 10 141 10 C88 10 47 44 37 96 C34 112 33 122 33 148 L15 148 L-16 0 L-5 0 L27 38 C63 2 89 -10 132 -10 C221 -10 296 64 296 153 C296 207 268 234 201 248 L156 257 C103 267 82 279 82 298 C82 339 134 377 188 377 C232 377 269 354 281 320 C286 308 287 300 287 280 L304 280 L329 395 Z " />
<glyph glyph-name="t" unicode="t" horiz-adv-x="303" d="M177 369 L289 369 L293 387 L181 387 L215 546 L205 546 C169 478 89 403 32 384 L29 369 L101 369 L45 107 C40 85 38 69 38 59 C38 15 71 -10 129 -10 C185 -10 225 18 249 74 L228 74 C211 36 189 20 157 20 C129 20 114 33 114 55 C114 65 115 75 117 85 L177 369 Z " />
<glyph glyph-name="u" unicode="u" horiz-adv-x="537" d="M459 387 L308 387 L304 369 L378 369 L342 200 C326 125 303 72 278 51 C248 26 212 13 174 13 C134 13 115 29 115 64 C115 76 116 85 123 117 L180 387 L30 387 L26 369 L100 369 L49 131 C43 103 41 86 41 74 C41 21 82 -10 152 -10 C221 -10 264 9 313 60 L300 0 L447 0 L450 18 L380 18 L459 387 Z " />
<glyph glyph-name="v" unicode="v" horiz-adv-x="454" d="M143 -10 L176 -10 L415 369 L461 369 L465 387 L311 387 L307 369 L390 369 L210 85 L153 369 L236 369 L240 387 L11 387 L7 369 L61 369 L143 -10 Z " />
<glyph glyph-name="w" unicode="w" horiz-adv-x="642" d="M366 -10 L397 -10 L604 369 L649 369 L653 387 L516 387 L512 369 L579 369 L431 94 L378 387 L354 387 L197 94 L150 369 L226 369 L230 387 L11 387 L7 369 L61 369 L133 -9 L164 -9 L311 261 L366 -10 Z " />
<glyph glyph-name="x" unicode="x" horiz-adv-x="444" d="M229 230 L372 369 L428 369 L432 387 L278 387 L274 369 L343 369 L218 249 L155 369 L223 369 L227 387 L8 387 L4 369 L57 369 L153 182 L-17 18 L-70 18 L-74 0 L92 0 L96 18 L16 18 L164 163 L237 18 L185 18 L181 0 L377 0 L381 18 L337 18 L229 230 Z " />
<glyph glyph-name="y" unicode="y" horiz-adv-x="434" d="M212 94 L150 369 L221 369 L225 387 L12 387 L8 369 L57 369 L155 -6 L65 -161 C42 -201 35 -208 21 -208 C14 -208 10 -206 7 -200 C-6 -180 -14 -174 -33 -174 C-63 -174 -89 -201 -89 -232 C-89 -257 -70 -274 -41 -274 C4 -274 40 -244 83 -170 L396 369 L442 369 L446 387 L300 387 L296 369 L369 369 L212 94 Z " />
<glyph glyph-name="z" unicode="z" horiz-adv-x="421" d="M313 0 L351 164 L337 164 C283 41 257 19 165 18 L71 18 L405 387 L76 387 L41 238 L55 238 C112 350 135 367 228 369 L290 369 L-39 0 L313 0 Z " />
<glyph glyph-name="braceleft" unicode="&#x7b;" horiz-adv-x="278" d="M-17 250 C9 248 19 246 26 238 C35 227 39 217 39 204 C39 188 33 150 24 108 L6 22 C-7 -38 -13 -77 -13 -97 C-13 -131 5 -159 35 -169 C57 -177 87 -180 143 -180 L146 -162 C84 -157 63 -139 63 -89 C63 -68 65 -54 77 0 L99 103 C106 140 112 175 112 187 C112 223 89 250 53 256 L53 260 C122 276 143 304 162 403 L183 501 C205 611 236 644 319 649 L323 667 C169 669 133 637 101 469 L85 395 C61 287 49 271 -14 266 L-17 250 Z " />
<glyph glyph-name="bar" unicode="&#x7c;" horiz-adv-x="525" d="M303 667 L126 -167 L187 -167 L364 667 L303 667 Z " />
<glyph glyph-name="braceright" unicode="&#x7d;" horiz-adv-x="278" d="M263 266 C223 268 206 282 206 311 C206 326 206 328 218 395 L234 469 C248 534 251 553 251 577 C251 610 239 637 220 650 C199 663 181 665 97 667 L93 649 C125 647 140 642 154 632 C167 622 176 601 176 583 C176 564 172 528 166 501 L145 403 C134 350 133 347 133 326 C133 291 154 267 193 260 L192 256 C125 241 101 208 81 103 L59 0 C36 -123 7 -157 -79 -162 L-83 -180 C1 -180 38 -173 68 -150 C107 -115 114 -97 139 22 L158 108 C182 226 197 247 259 250 L263 266 Z " />
<glyph glyph-name="asciitilde" unicode="&#x7e;" horiz-adv-x="508" d="M419 374 C396 350 376 342 346 342 C333 342 316 345 301 351 L260 365 C239 372 226 375 208 375 C156 375 124 356 81 299 L90 294 C113 316 134 325 164 325 C181 325 199 322 217 316 L256 302 C275 296 295 292 308 292 C346 292 383 315 428 369 L419 374 Z " />
<glyph glyph-name="uni00A0" unicode="&#xa0;" horiz-adv-x="250" d="" />
<glyph glyph-name="exclamdown" unicode="&#xa1;" horiz-adv-x="287" d="M108 207 C69 45 59 11 25 -76 L-15 -174 C-22 -193 -26 -209 -26 -224 C-26 -254 -10 -274 14 -274 C53 -274 85 -230 86 -174 L88 -76 C91 8 98 68 125 207 L108 207 Z M160 410 C122 410 87 378 87 342 C87 316 107 297 135 297 C173 297 208 330 208 365 C208 391 187 410 160 410 L160 410 Z " />
<glyph glyph-name="cent" unicode="&#xa2;" horiz-adv-x="525" d="M365 665 L336 665 L311 545 C185 532 78 418 78 299 C78 211 137 147 225 140 L204 42 L233 42 L254 140 C339 147 402 193 439 276 L418 276 C386 208 331 168 258 160 L336 527 C377 527 414 515 414 502 C414 498 412 495 404 490 C386 478 373 455 373 434 C373 412 385 399 406 399 C436 399 460 427 460 462 C460 512 412 545 340 547 L365 665 Z M229 161 C183 168 159 193 159 236 C159 257 161 274 170 314 L184 378 C208 479 238 515 306 525 L229 161 Z " />
<glyph glyph-name="sterling" unicode="&#xa3;" horiz-adv-x="525" d="M199 268 C220 236 229 213 229 192 C229 162 222 139 206 114 C160 135 124 144 78 144 C2 144 -53 109 -53 60 C-53 23 -16 0 44 0 C96 0 134 12 183 42 L219 17 C246 -1 275 -10 311 -10 C404 -10 466 52 493 171 L468 171 C462 138 454 118 439 98 C419 72 384 53 357 53 C330 53 296 64 261 85 L230 103 C258 157 270 195 270 237 C270 248 269 257 267 268 L406 268 L413 298 L257 298 L249 317 L217 381 C197 420 186 455 186 480 C186 516 202 558 227 590 C262 634 311 657 370 657 C428 657 468 630 468 592 C468 581 465 575 453 567 C418 543 409 531 409 509 C409 486 424 471 446 471 C486 471 521 513 521 561 C521 626 455 677 371 677 C235 677 102 569 102 458 C102 433 114 400 136 366 L180 298 L52 298 L46 268 L199 268 Z M165 58 C125 30 94 20 49 20 C3 20 -27 37 -27 62 C-27 87 2 109 36 109 C66 109 94 101 122 84 L165 58 Z " />
<glyph glyph-name="currency" unicode="&#xa4;" horiz-adv-x="525" d="M430 478 C397 511 354 527 303 527 C253 527 204 511 156 478 L100 545 L74 523 L129 457 C76 408 47 348 47 288 C47 254 56 224 74 196 L-10 130 L8 109 L91 175 C125 143 169 127 218 127 C268 127 319 144 366 175 L421 109 L448 130 L392 196 C446 246 475 305 475 366 C475 401 467 429 448 457 L531 523 L514 545 L430 478 Z M292 464 C360 464 411 417 411 353 C411 268 324 190 230 190 C162 190 111 237 111 300 C111 386 197 464 292 464 L292 464 Z " />
<glyph glyph-name="yen" unicode="&#xa5;" horiz-adv-x="525" d="M164 451 L52 451 L48 433 L170 433 L209 322 L56 322 L52 304 L215 304 L155 18 L65 18 L61 0 L325 0 L329 18 L235 18 L295 304 L460 304 L464 322 L309 322 L389 433 L519 433 L523 451 L401 451 L523 629 L584 629 L588 647 L416 647 L413 629 L498 629 L295 339 L205 629 L284 629 L288 647 L56 647 L52 629 L103 629 L164 451 Z " />
<glyph glyph-name="brokenbar" unicode="&#xa6;" horiz-adv-x="525" d="M303 667 L232 330 L292 330 L364 667 L303 667 Z M194 153 L126 -167 L187 -167 L255 153 L194 153 Z " />
<glyph glyph-name="section" unicode="&#xa7;" horiz-adv-x="525" d="M239 475 C190 503 176 518 176 547 C176 610 244 657 336 657 C392 657 429 640 447 607 C396 596 371 574 371 539 C371 518 387 503 409 503 C448 503 482 539 482 580 C482 639 425 677 336 677 C283 677 240 664 204 637 C156 601 125 543 125 488 C125 457 139 430 171 402 C128 384 106 370 85 345 C56 313 39 267 39 226 C39 180 57 158 125 118 L260 40 C316 8 331 -9 331 -40 C331 -117 254 -170 143 -170 C73 -170 34 -152 9 -109 C59 -105 93 -72 93 -27 C93 -3 77 13 53 13 C11 13 -27 -30 -27 -77 C-27 -144 40 -190 135 -190 C277 -190 389 -103 389 7 C389 51 368 82 313 118 C401 146 454 211 454 289 C454 340 431 368 358 409 L239 475 Z M339 316 C394 284 411 265 411 236 C411 190 350 136 299 136 C284 136 268 141 250 151 L135 215 C98 237 83 256 83 286 C83 335 136 383 191 383 C213 383 234 377 253 366 L339 316 Z " />
<glyph glyph-name="dieresis" unicode="&#xa8;" horiz-adv-x="520" d="M223 583 C192 583 163 555 163 525 C163 503 179 487 202 487 C233 487 262 515 262 545 C262 567 246 583 223 583 L223 583 Z M405 583 C374 583 345 555 345 525 C345 503 361 487 384 487 C415 487 444 515 444 545 C444 567 428 583 405 583 L405 583 Z " />
<glyph glyph-name="copyright" unicode="&#xa9;" horiz-adv-x="826" d="M491 677 C257 677 42 480 42 266 C42 107 167 -10 337 -10 C570 -10 785 187 785 401 C785 560 660 677 491 677 L491 677 Z M485 649 C561 649 642 615 688 564 C728 519 750 461 750 397 C750 200 555 18 344 18 C191 18 78 125 78 270 C78 344 107 421 159 486 C240 589 360 649 485 649 L485 649 Z M599 530 L585 530 L560 503 C533 525 504 536 474 536 C350 536 237 418 237 288 C237 203 298 138 378 138 C414 138 446 147 489 171 L503 143 L516 143 L540 255 L526 255 C482 185 440 156 382 156 C333 156 299 183 299 222 C299 276 333 424 355 461 C375 497 415 518 462 518 C522 518 557 485 562 425 L576 425 L599 530 Z " />
<glyph glyph-name="ordfeminine" unicode="&#xaa;" horiz-adv-x="350" d="M323 330 L26 330 L19 297 L316 297 L323 330 Z M253 551 C183 549 141 538 110 513 C87 494 73 469 73 445 C73 413 96 394 136 394 C173 394 204 409 231 442 L231 435 C231 409 247 394 275 394 C292 394 301 397 330 415 L323 429 C312 420 306 417 299 417 C293 417 288 421 288 426 C288 428 289 441 290 442 L322 593 C324 602 325 614 325 620 C325 653 293 674 243 674 C181 674 122 636 122 597 C122 583 131 573 144 573 C163 573 180 591 180 610 C180 615 178 621 174 627 C173 630 172 632 172 633 C172 643 207 656 232 656 C255 656 270 646 269 631 C269 626 268 621 267 615 L253 551 Z M244 516 C238 486 232 470 221 457 C207 439 186 428 167 428 C148 428 134 440 134 458 C134 504 176 532 248 534 L244 516 Z " />
<glyph glyph-name="guillemotleft" unicode="&#xab;" horiz-adv-x="395" d="M142 200 L236 96 L289 96 L195 200 L333 304 L281 304 L142 200 Z M21 200 L116 96 L168 96 L74 200 L213 304 L160 304 L21 200 Z " />
<glyph glyph-name="logicalnot" unicode="&#xac;" horiz-adv-x="525" d="M318 0 L418 0 L475 267 L23 267 L14 224 L365 224 L318 0 Z " />
<glyph glyph-name="uni00AD" unicode="&#xad;" horiz-adv-x="198" d="M176 230 L-22 230 L-35 170 L163 170 L176 230 Z " />
<glyph glyph-name="registered" unicode="&#xae;" horiz-adv-x="826" d="M491 677 C257 677 42 480 42 266 C42 107 167 -10 337 -10 C570 -10 785 187 785 401 C785 560 660 677 491 677 L491 677 Z M485 649 C561 649 642 615 688 564 C728 519 750 461 750 397 C750 200 555 18 344 18 C191 18 78 125 78 270 C78 344 107 421 159 486 C240 589 360 649 485 649 L485 649 Z M360 340 L395 340 C446 340 467 325 467 289 C467 283 466 276 465 268 L459 240 C456 229 455 217 455 207 C455 163 479 140 524 140 C542 140 554 143 574 151 L572 167 C556 160 550 158 542 158 C529 158 521 166 521 179 C521 188 522 198 524 208 L531 239 C532 246 533 254 533 263 C533 307 507 335 457 346 C537 357 589 401 589 457 C589 481 578 501 558 512 C534 526 513 530 456 530 L285 530 L281 513 L335 513 L260 160 L206 160 L202 143 L379 143 L382 160 L321 160 L360 340 Z M363 357 L396 513 L439 513 C499 513 521 498 521 457 C521 392 479 357 402 357 L363 357 Z " />
<glyph glyph-name="macron" unicode="&#xaf;" horiz-adv-x="511" d="M427 499 L432 523 L159 523 L154 499 L427 499 Z " />
<glyph glyph-name="degree" unicode="&#xb0;" horiz-adv-x="400" d="M204 686 C118 686 50 619 50 534 C50 449 116 381 200 381 C284 381 350 448 350 534 C350 619 286 686 204 686 L204 686 Z M202 629 C252 629 293 586 293 534 C293 480 252 438 200 438 C148 438 106 481 106 533 C106 587 148 629 202 629 L202 629 Z " />
<glyph glyph-name="plusminus" unicode="&#xb1;" horiz-adv-x="525" d="M241 308 L204 131 L234 131 L272 308 L466 308 L472 338 L278 338 L316 515 L285 515 L248 338 L55 338 L48 308 L241 308 Z M-15 10 L402 10 L409 40 L-9 40 L-15 10 Z " />
<glyph glyph-name="twosuperior" unicode="&#xb2;" horiz-adv-x="343" d="M277 258 L301 369 L286 369 C283 362 281 356 280 353 C274 338 268 325 263 319 C258 313 247 310 221 310 L81 310 L200 402 C288 468 297 477 325 516 C336 532 343 552 343 570 C343 621 301 653 234 653 C159 653 96 604 96 547 C96 521 111 505 134 505 C155 505 174 522 174 541 C174 555 163 565 149 565 C142 565 134 563 126 560 C125 559 124 559 123 559 C121 559 119 561 119 564 C119 597 168 632 212 632 C250 632 273 606 273 565 C273 503 246 464 150 388 L26 290 L19 258 L277 258 Z " />
<glyph glyph-name="threesuperior" unicode="&#xb3;" horiz-adv-x="343" d="M123 477 L119 460 L147 460 C184 460 216 450 228 434 C236 425 239 413 239 396 C239 321 197 271 134 271 C105 271 73 286 73 299 C73 301 75 303 81 306 C95 312 104 326 104 342 C104 355 95 364 81 364 L80 364 C59 364 40 341 40 316 C40 277 77 253 136 253 C228 253 309 317 309 389 C309 434 277 461 213 469 C279 486 326 533 326 581 C326 624 287 653 230 653 C169 653 118 619 118 579 C118 564 127 553 141 553 C159 553 175 570 175 589 C175 595 173 601 169 604 C160 612 160 612 160 615 L160 616 C160 622 196 633 217 633 C247 633 263 621 263 597 L263 595 C256 511 225 479 151 477 L123 477 Z " />
<glyph glyph-name="acute" unicode="&#xb4;" horiz-adv-x="516" d="M383 613 L257 470 C256 468 255 467 255 466 C255 465 257 463 258 463 C259 463 260 464 263 466 L449 595 C455 598 459 604 459 607 C459 611 456 613 449 613 L383 613 Z " />
<glyph glyph-name="mu" unicode="&#xb5;" horiz-adv-x="576" d="M442 500 L353 500 L354 131 C318 80 284 58 242 58 C184 58 150 99 150 169 L150 500 L62 500 L62 20 C62 -1 58 -26 51 -56 C34 -118 33 -123 33 -147 C33 -190 54 -219 83 -219 C112 -219 132 -189 132 -146 C132 -124 129 -111 113 -53 C103 -17 101 -8 101 21 L101 33 C143 -2 166 -13 200 -13 C250 -13 301 18 354 80 C362 48 367 36 377 21 C392 0 419 -13 449 -13 C510 -13 553 31 567 108 L540 109 C536 71 515 41 492 41 C462 41 442 77 442 131 L442 500 Z " />
<glyph glyph-name="paragraph" unicode="&#xb6;" horiz-adv-x="525" d="M137 -162 L54 -162 L50 -180 L374 -180 L378 -162 L312 -162 L485 649 L550 649 L554 667 L307 667 C215 667 152 640 106 581 C74 542 57 495 57 450 C57 364 116 312 214 312 L237 312 L137 -162 Z M180 -162 L352 649 L442 649 L270 -162 L180 -162 Z " />
<glyph glyph-name="periodcentered" unicode="&#xb7;" horiz-adv-x="259" d="M115 257 C77 257 41 224 41 189 C41 163 62 143 89 143 C128 143 163 176 163 212 C163 238 142 257 115 257 L115 257 Z " />
<glyph glyph-name="cedilla" unicode="&#xb8;" horiz-adv-x="525" d="M204 0 L184 0 L152 -65 C185 -73 199 -85 199 -106 C199 -135 168 -160 131 -160 C109 -160 90 -152 90 -143 C90 -140 91 -137 92 -135 C96 -124 97 -122 97 -114 C97 -103 94 -98 87 -98 C77 -98 70 -109 70 -125 C70 -155 99 -176 139 -176 C201 -176 258 -138 258 -98 C258 -71 234 -56 190 -56 L175 -56 L204 0 Z " />
<glyph glyph-name="onesuperior" unicode="&#xb9;" horiz-adv-x="343" d="M282 647 L141 641 L138 625 L204 625 C213 625 214 625 214 621 L213 613 L141 276 L64 276 L60 258 L268 258 L272 276 L203 276 L282 647 Z " />
<glyph glyph-name="ordmasculine" unicode="&#xba;" horiz-adv-x="350" d="M323 330 L26 330 L19 297 L316 297 L323 330 Z M250 674 C159 674 77 593 77 504 C77 440 123 394 187 394 C277 394 359 475 359 564 C359 628 313 674 250 674 L250 674 Z M281 517 C271 471 260 443 248 433 C233 421 213 414 192 414 C158 414 138 429 138 454 C138 469 141 494 146 517 L153 550 C163 597 174 625 186 635 C201 647 221 654 242 654 C276 654 296 639 296 613 C296 597 293 573 288 550 L281 517 Z " />
<glyph glyph-name="guillemotright" unicode="&#xbb;" horiz-adv-x="395" d="M198 200 L103 304 L50 304 L144 200 L6 96 L59 96 L198 200 Z M318 200 L223 304 L171 304 L265 200 L127 96 L179 96 L318 200 Z " />
<glyph glyph-name="onequarter" unicode="&#xbc;" horiz-adv-x="805" d="M282 647 L141 641 L138 625 L204 625 C213 625 214 625 214 621 L213 613 L141 276 L64 276 L60 258 L268 258 L272 276 L203 276 L282 647 Z M658 647 L623 647 L170 0 L206 0 L658 647 Z M651 103 L705 103 L696 59 L715 59 L738 168 L719 168 L710 124 L655 124 L712 393 L678 393 L442 132 L436 103 L589 103 L571 18 L510 18 L506 0 L683 0 L687 18 L632 18 L651 103 Z M593 124 L462 124 L634 315 L593 124 Z " />
<glyph glyph-name="onehalf" unicode="&#xbd;" horiz-adv-x="805" d="M282 647 L141 641 L138 625 L204 625 C213 625 214 625 214 621 L213 613 L141 276 L64 276 L60 258 L268 258 L272 276 L203 276 L282 647 Z M644 647 L609 647 L156 0 L192 0 L644 647 Z M684 0 L708 111 L693 111 C690 104 688 98 687 95 C682 80 675 67 670 61 C665 55 654 52 628 52 L488 52 L607 144 C694 210 704 219 732 258 C743 274 750 294 750 312 C750 362 708 395 642 395 C566 395 503 347 503 289 C503 263 518 247 541 247 C562 247 581 264 581 283 C581 297 570 307 556 307 C549 307 541 305 533 302 C532 301 531 301 530 301 C528 301 526 303 526 306 C526 339 575 374 619 374 C657 374 680 348 680 306 C680 245 653 206 557 130 L433 32 L426 0 L684 0 Z " />
<glyph glyph-name="threequarters" unicode="&#xbe;" horiz-adv-x="805" d="M123 477 L119 460 L147 460 C184 460 216 450 228 434 C236 425 239 413 239 396 C239 321 197 271 134 271 C105 271 73 286 73 299 C73 301 75 303 81 306 C95 312 104 326 104 342 C104 355 95 364 81 364 L80 364 C59 364 40 341 40 316 C40 277 77 253 136 253 C228 253 309 317 309 389 C309 434 277 461 213 469 C279 486 326 533 326 581 C326 624 287 653 230 653 C169 653 118 619 118 579 C118 564 127 553 141 553 C159 553 175 570 175 589 C175 595 173 601 169 604 C160 612 160 612 160 615 L160 616 C160 622 196 633 217 633 C247 633 263 621 263 597 L263 595 C256 511 225 479 151 477 L123 477 Z M658 647 L623 647 L171 0 L206 0 L658 647 Z M651 103 L705 103 L696 59 L715 59 L739 168 L719 168 L710 124 L655 124 L712 393 L678 393 L442 132 L436 103 L589 103 L571 18 L510 18 L506 0 L683 0 L687 18 L633 18 L651 103 Z M594 124 L462 124 L634 315 L594 124 Z " />
<glyph glyph-name="questiondown" unicode="&#xbf;" horiz-adv-x="396" d="M215 207 C201 142 189 126 121 79 L59 38 C-16 -12 -56 -76 -56 -147 C-56 -226 -6 -274 75 -274 C170 -274 257 -203 257 -125 C257 -98 245 -84 224 -84 C198 -84 176 -109 176 -139 C176 -154 182 -163 196 -172 C207 -178 210 -181 210 -188 C210 -218 137 -254 77 -254 C18 -254 -24 -223 -24 -178 C-24 -145 2 -109 52 -72 L92 -43 C181 18 218 86 229 211 L215 207 Z M259 410 C221 410 186 378 186 342 C186 316 207 297 234 297 C272 297 307 330 307 365 C307 391 286 410 259 410 L259 410 Z " />
<glyph glyph-name="Agrave" unicode="&#xc0;" horiz-adv-x="637" d="M350 833 L253 833 C244 833 238 830 238 824 C238 820 241 817 248 814 L450 721 C451 720 453 720 455 720 C459 720 461 722 461 725 C461 727 460 727 457 731 L350 833 Z M359 214 L387 18 L288 18 L284 0 L570 0 L573 18 L493 18 L402 667 L374 667 L-3 18 L-70 18 L-74 0 L112 0 L116 18 L23 18 L136 214 L359 214 Z M356 232 L147 232 L314 527 L356 232 Z " />
<glyph glyph-name="Aacute" unicode="&#xc1;" horiz-adv-x="637" d="M513 833 L363 731 C358 728 356 725 356 723 C356 721 358 719 360 719 C361 719 363 720 366 721 L607 814 C617 818 622 822 622 827 C622 831 619 833 610 833 L513 833 Z M359 214 L387 18 L288 18 L284 0 L570 0 L573 18 L493 18 L402 667 L374 667 L-3 18 L-70 18 L-74 0 L112 0 L116 18 L23 18 L136 214 L359 214 Z M356 232 L147 232 L314 527 L356 232 Z " />
<glyph glyph-name="Acircumflex" unicode="&#xc2;" horiz-adv-x="637" d="M410 769 L547 721 C548 720 549 720 551 720 C555 720 557 722 557 724 C557 725 556 727 552 730 L424 838 L250 730 C245 726 243 725 243 723 C243 721 244 720 247 720 C249 720 250 720 252 721 L410 769 Z M359 214 L387 18 L288 18 L284 0 L570 0 L573 18 L493 18 L402 667 L374 667 L-3 18 L-70 18 L-74 0 L112 0 L116 18 L23 18 L136 214 L359 214 Z M356 232 L147 232 L314 527 L356 232 Z " />
<glyph glyph-name="Atilde" unicode="&#xc3;" horiz-adv-x="637" d="M580 815 C557 792 538 783 508 783 C496 783 478 786 463 792 L422 806 C397 815 387 817 370 817 C318 817 285 798 243 741 L251 735 C274 758 296 767 325 767 C341 767 360 764 378 757 L418 744 C437 737 458 733 470 733 C508 733 544 756 590 810 L580 815 Z M359 214 L387 18 L288 18 L284 0 L570 0 L573 18 L493 18 L402 667 L374 667 L-3 18 L-70 18 L-74 0 L112 0 L116 18 L23 18 L136 214 L359 214 Z M356 232 L147 232 L314 527 L356 232 Z " />
<glyph glyph-name="Adieresis" unicode="&#xc4;" horiz-adv-x="637" d="M310 823 C279 823 250 795 250 765 C250 743 266 727 289 727 C320 727 349 755 349 785 C349 807 333 823 310 823 L310 823 Z M532 823 C501 823 472 795 472 765 C472 743 488 727 511 727 C542 727 571 755 571 785 C571 807 555 823 532 823 L532 823 Z M359 214 L387 18 L288 18 L284 0 L570 0 L573 18 L493 18 L402 667 L374 667 L-3 18 L-70 18 L-74 0 L112 0 L116 18 L23 18 L136 214 L359 214 Z M356 232 L147 232 L314 527 L356 232 Z " />
<glyph glyph-name="Aring" unicode="&#xc5;" horiz-adv-x="637" d="M428 859 C378 859 333 815 333 766 C333 731 358 707 394 707 C444 707 488 750 488 800 C488 834 462 859 428 859 L428 859 Z M421 832 C442 832 459 815 459 793 C459 763 429 734 399 734 C378 734 362 751 362 773 C362 803 392 832 421 832 L421 832 Z M359 214 L387 18 L288 18 L284 0 L570 0 L573 18 L493 18 L402 667 L374 667 L-3 18 L-70 18 L-74 0 L112 0 L116 18 L23 18 L136 214 L359 214 Z M356 232 L147 232 L314 527 L356 232 Z " />
<glyph glyph-name="AE" unicode="&#xc6;" horiz-adv-x="886" d="M872 667 L335 667 L331 649 L435 649 L-18 18 L-95 18 L-99 0 L111 0 L114 18 L9 18 L148 211 L371 211 L330 18 L239 18 L235 0 L754 0 L819 207 L805 207 C763 124 740 90 704 55 C667 23 651 19 567 18 L423 18 L489 329 L536 329 C609 329 636 308 636 254 C636 245 635 232 632 221 L627 197 L641 197 L699 472 L685 472 L681 453 C663 374 630 349 543 347 L493 347 L557 649 L649 649 C793 650 830 618 834 486 L848 486 L872 667 Z M375 229 L160 229 L464 649 L375 229 Z " />
<glyph glyph-name="Ccedilla" unicode="&#xc7;" horiz-adv-x="621" d="M272 -10 C333 -9 391 9 461 50 L485 0 L499 0 L538 185 L524 185 C488 126 466 98 430 68 C387 31 329 10 273 10 C190 10 130 60 130 129 C130 166 145 259 165 350 C191 462 208 517 229 555 C266 619 336 657 418 657 C478 657 527 635 557 595 C579 566 586 543 590 494 L604 494 L641 667 L627 667 L582 617 C533 658 487 677 434 677 C357 677 285 651 219 601 C109 517 38 378 38 246 C38 198 50 150 73 109 C112 38 170 0 251 -9 L223 -67 C258 -75 272 -87 272 -109 C272 -140 240 -165 200 -165 C178 -165 158 -157 158 -147 C158 -145 159 -141 160 -139 C165 -128 165 -126 165 -117 C165 -107 161 -101 155 -101 C144 -101 137 -112 137 -129 C137 -159 167 -181 210 -181 C274 -181 334 -143 334 -101 C334 -73 309 -58 263 -58 L247 -58 L272 -10 Z " />
<glyph glyph-name="Egrave" unicode="&#xc8;" horiz-adv-x="615" d="M383 833 L287 833 C277 833 272 830 272 824 C272 820 275 817 282 814 L483 721 C485 720 487 720 489 720 C492 720 494 722 494 725 C494 727 493 729 491 731 L383 833 Z M602 667 L106 667 L102 649 L193 649 L59 18 L-32 18 L-36 0 L483 0 L548 208 L534 208 C492 124 470 90 434 55 C396 23 381 19 296 18 L152 18 L218 329 L266 329 C338 329 365 308 365 255 C365 244 364 232 361 221 L356 198 L370 198 L429 472 L415 472 L411 453 C392 374 360 349 273 347 L222 347 L286 649 L378 649 C522 650 559 618 563 486 L577 486 L602 667 Z " />
<glyph glyph-name="Eacute" unicode="&#xc9;" horiz-adv-x="615" d="M498 833 L347 731 C342 728 340 725 340 723 C340 721 342 719 344 719 C345 719 347 720 350 721 L591 814 C601 818 606 822 606 827 C606 831 603 833 594 833 L498 833 Z M602 667 L106 667 L102 649 L193 649 L59 18 L-32 18 L-36 0 L483 0 L548 208 L534 208 C492 124 470 90 434 55 C396 23 381 19 296 18 L152 18 L218 329 L266 329 C338 329 365 308 365 255 C365 244 364 232 361 221 L356 198 L370 198 L429 472 L415 472 L411 453 C392 374 360 349 273 347 L222 347 L286 649 L378 649 C522 650 559 618 563 486 L577 486 L602 667 Z " />
<glyph glyph-name="Ecircumflex" unicode="&#xca;" horiz-adv-x="615" d="M419 769 L556 721 C557 720 558 720 560 720 C564 720 566 722 566 724 C566 725 565 727 561 730 L433 838 L259 730 C254 726 252 725 252 723 C252 721 253 720 256 720 C258 720 259 720 261 721 L419 769 Z M602 667 L106 667 L102 649 L193 649 L59 18 L-32 18 L-36 0 L483 0 L548 208 L534 208 C492 124 470 90 434 55 C396 23 381 19 296 18 L152 18 L218 329 L266 329 C338 329 365 308 365 255 C365 244 364 232 361 221 L356 198 L370 198 L429 472 L415 472 L411 453 C392 374 360 349 273 347 L222 347 L286 649 L378 649 C522 650 559 618 563 486 L577 486 L602 667 Z " />
<glyph glyph-name="Edieresis" unicode="&#xcb;" horiz-adv-x="615" d="M319 823 C288 823 259 795 259 765 C259 743 275 727 298 727 C329 727 358 755 358 785 C358 807 342 823 319 823 L319 823 Z M541 823 C510 823 481 795 481 765 C481 743 497 727 520 727 C551 727 580 755 580 785 C580 807 564 823 541 823 L541 823 Z M602 667 L106 667 L102 649 L193 649 L59 18 L-32 18 L-36 0 L483 0 L548 208 L534 208 C492 124 470 90 434 55 C396 23 381 19 296 18 L152 18 L218 329 L266 329 C338 329 365 308 365 255 C365 244 364 232 361 221 L356 198 L370 198 L429 472 L415 472 L411 453 C392 374 360 349 273 347 L222 347 L286 649 L378 649 C522 650 559 618 563 486 L577 486 L602 667 Z " />
<glyph glyph-name="Igrave" unicode="&#xcc;" horiz-adv-x="350" d="M59 18 L-32 18 L-36 0 L244 0 L248 18 L152 18 L286 649 L382 649 L386 667 L106 667 L102 649 L193 649 L59 18 Z M209 833 L113 833 C104 833 98 830 98 824 C98 820 101 817 108 814 L309 721 C311 720 313 720 315 720 C318 720 320 722 320 725 C320 727 319 729 317 731 L209 833 Z " />
<glyph glyph-name="Iacute" unicode="&#xcd;" horiz-adv-x="350" d="M59 18 L-32 18 L-36 0 L244 0 L248 18 L152 18 L286 649 L382 649 L386 667 L106 667 L102 649 L193 649 L59 18 Z M368 833 L217 731 C212 728 210 725 210 723 C210 721 212 719 214 719 C215 719 217 720 220 721 L461 814 C471 818 476 822 476 827 C476 831 472 833 464 833 L368 833 Z " />
<glyph glyph-name="Icircumflex" unicode="&#xce;" horiz-adv-x="350" d="M59 18 L-32 18 L-36 0 L244 0 L248 18 L152 18 L286 649 L382 649 L386 667 L106 667 L102 649 L193 649 L59 18 Z M267 769 L404 721 C405 720 407 720 408 720 C412 720 414 722 414 724 C414 726 413 727 410 730 L282 838 L107 730 C101 726 100 725 100 723 C100 721 101 720 104 720 C106 720 107 720 109 721 L267 769 Z " />
<glyph glyph-name="Idieresis" unicode="&#xcf;" horiz-adv-x="350" d="M59 18 L-32 18 L-36 0 L244 0 L248 18 L152 18 L286 649 L382 649 L386 667 L106 667 L102 649 L193 649 L59 18 Z M191 823 C160 823 131 795 131 765 C131 743 147 727 170 727 C201 727 230 755 230 785 C230 807 214 823 191 823 L191 823 Z M368 823 C337 823 308 795 308 765 C308 743 324 727 346 727 C378 727 406 755 406 785 C406 807 390 823 368 823 L368 823 Z " />
<glyph glyph-name="Eth" unicode="&#xd0;" horiz-adv-x="707" d="M125 330 L59 18 L-32 18 L-36 0 L223 0 C353 0 417 18 495 77 C602 157 667 286 667 415 C667 507 631 580 565 623 C516 655 463 667 364 667 L106 667 L102 649 L193 649 L129 348 L38 348 L34 330 L125 330 Z M218 330 L386 330 L390 348 L222 348 L286 649 L359 649 C511 649 571 610 571 514 C571 445 541 296 508 194 C480 112 455 77 400 49 C355 26 309 18 227 18 L152 18 L218 330 Z " />
<glyph glyph-name="Ntilde" unicode="&#xd1;" horiz-adv-x="712" d="M624 815 C601 792 582 783 552 783 C540 783 522 786 506 792 L466 806 C440 815 431 817 414 817 C362 817 329 798 287 741 L295 735 C318 758 340 767 369 767 C385 767 404 764 422 757 L462 744 C481 737 501 733 514 733 C552 733 588 756 634 810 L624 815 Z M514 0 L530 0 L668 649 L745 649 L749 667 L556 667 L552 649 L644 649 L546 185 L318 667 L96 667 L92 649 L183 649 L49 18 L-42 18 L-46 0 L168 0 L171 18 L72 18 L205 644 L514 0 Z " />
<glyph glyph-name="Ograve" unicode="&#xd2;" horiz-adv-x="693" d="M405 833 L308 833 C299 833 293 830 293 824 C293 820 296 817 304 814 L505 721 C507 720 509 720 511 720 C514 720 516 722 516 725 C516 727 515 728 513 731 L405 833 Z M423 677 C221 677 40 473 40 244 C40 95 136 -10 273 -10 C472 -10 655 197 655 422 C655 570 558 677 423 677 L423 677 Z M415 657 C506 657 563 608 563 529 C563 495 551 424 528 317 C498 182 490 154 468 115 C430 49 359 10 275 10 C186 10 131 60 131 140 C131 171 136 207 148 267 C189 463 202 513 226 553 C265 619 334 657 415 657 L415 657 Z " />
<glyph glyph-name="Oacute" unicode="&#xd3;" horiz-adv-x="693" d="M538 833 L387 731 C383 728 381 725 381 723 C381 721 383 719 385 719 C386 719 388 720 391 721 L632 814 C642 818 647 822 647 827 C647 831 643 833 635 833 L538 833 Z M423 677 C221 677 40 473 40 244 C40 95 136 -10 273 -10 C472 -10 655 197 655 422 C655 570 558 677 423 677 L423 677 Z M415 657 C506 657 563 608 563 529 C563 495 551 424 528 317 C498 182 490 154 468 115 C430 49 359 10 275 10 C186 10 131 60 131 140 C131 171 136 207 148 267 C189 463 202 513 226 553 C265 619 334 657 415 657 L415 657 Z " />
<glyph glyph-name="Ocircumflex" unicode="&#xd4;" horiz-adv-x="693" d="M440 769 L577 721 C578 720 579 720 581 720 C585 720 587 722 587 724 C587 725 586 727 582 730 L454 838 L280 730 C275 727 273 725 273 723 C273 721 274 720 277 720 C279 720 280 720 282 721 L440 769 Z M423 677 C221 677 40 473 40 244 C40 95 136 -10 273 -10 C472 -10 655 197 655 422 C655 570 558 677 423 677 L423 677 Z M415 657 C506 657 563 608 563 529 C563 495 551 424 528 317 C498 182 490 154 468 115 C430 49 359 10 275 10 C186 10 131 60 131 140 C131 171 136 207 148 267 C189 463 202 513 226 553 C265 619 334 657 415 657 L415 657 Z " />
<glyph glyph-name="Otilde" unicode="&#xd5;" horiz-adv-x="693" d="M612 815 C589 792 570 783 540 783 C527 783 510 786 494 792 L454 806 C428 815 419 817 402 817 C350 817 317 798 274 741 L283 735 C306 758 327 767 357 767 C373 767 391 764 410 757 L450 744 C469 737 489 733 502 733 C540 733 576 756 621 810 L612 815 Z M423 677 C221 677 40 473 40 244 C40 95 136 -10 273 -10 C472 -10 655 197 655 422 C655 570 558 677 423 677 L423 677 Z M415 657 C506 657 563 608 563 529 C563 495 551 424 528 317 C498 182 490 154 468 115 C430 49 359 10 275 10 C186 10 131 60 131 140 C131 171 136 207 148 267 C189 463 202 513 226 553 C265 619 334 657 415 657 L415 657 Z " />
<glyph glyph-name="Odieresis" unicode="&#xd6;" horiz-adv-x="693" d="M340 823 C309 823 280 795 280 765 C280 743 296 727 319 727 C350 727 379 755 379 785 C379 807 363 823 340 823 L340 823 Z M562 823 C531 823 502 795 502 765 C502 743 518 727 541 727 C572 727 601 755 601 785 C601 807 585 823 562 823 L562 823 Z M423 677 C221 677 40 473 40 244 C40 95 136 -10 273 -10 C472 -10 655 197 655 422 C655 570 558 677 423 677 L423 677 Z M415 657 C506 657 563 608 563 529 C563 495 551 424 528 317 C498 182 490 154 468 115 C430 49 359 10 275 10 C186 10 131 60 131 140 C131 171 136 207 148 267 C189 463 202 513 226 553 C265 619 334 657 415 657 L415 657 Z " />
<glyph glyph-name="multiply" unicode="&#xd7;" horiz-adv-x="525" d="M256 302 L372 163 L399 184 L283 323 L458 463 L441 484 L265 345 L148 484 L121 463 L238 323 L62 184 L80 163 L256 302 Z " />
<glyph glyph-name="Oslash" unicode="&#xd8;" horiz-adv-x="693" d="M678 667 L662 679 L589 605 C543 654 489 677 423 677 C221 677 39 472 39 243 C39 180 55 130 90 80 L16 2 L30 -11 L102 65 C153 13 205 -10 265 -10 C473 -10 655 193 655 424 C655 487 639 538 602 589 L678 667 Z M556 543 C559 532 560 525 560 514 C560 455 520 259 488 158 C459 68 378 10 282 10 C208 10 156 43 142 99 L556 543 Z M138 124 C135 135 134 142 134 154 C134 190 137 213 152 284 C178 413 188 452 206 509 C235 600 315 657 412 657 C486 657 537 624 552 568 L138 124 Z " />
<glyph glyph-name="Ugrave" unicode="&#xd9;" horiz-adv-x="674" d="M419 833 L322 833 C313 833 307 830 307 824 C307 820 310 817 317 814 L519 721 C520 720 522 720 524 720 C528 720 530 722 530 725 C530 727 529 728 526 731 L419 833 Z M277 649 L368 649 L372 667 L92 667 L88 649 L184 649 L99 249 C89 204 84 166 84 141 C84 43 152 -10 278 -10 C343 -10 392 2 431 27 C492 67 523 120 545 222 L635 649 L714 649 L717 667 L532 667 L528 649 L612 649 L521 222 C504 138 492 111 460 76 C420 33 368 10 309 10 C224 10 171 54 171 126 C171 144 174 164 183 205 L277 649 Z " />
<glyph glyph-name="Uacute" unicode="&#xda;" horiz-adv-x="674" d="M555 833 L404 731 C400 728 398 725 398 723 C398 721 400 719 402 719 C403 719 405 720 408 721 L649 814 C660 818 664 822 664 827 C664 831 660 833 652 833 L555 833 Z M277 649 L368 649 L372 667 L92 667 L88 649 L184 649 L99 249 C89 204 84 166 84 141 C84 43 152 -10 278 -10 C343 -10 392 2 431 27 C492 67 523 120 545 222 L635 649 L714 649 L717 667 L532 667 L528 649 L612 649 L521 222 C504 138 492 111 460 76 C420 33 368 10 309 10 C224 10 171 54 171 126 C171 144 174 164 183 205 L277 649 Z " />
<glyph glyph-name="Ucircumflex" unicode="&#xdb;" horiz-adv-x="674" d="M458 769 L595 721 C597 720 598 720 599 720 C603 720 605 722 605 724 C605 726 604 728 601 730 L473 838 L298 730 C292 726 291 725 291 723 C291 721 292 720 295 720 C297 720 299 720 300 721 L458 769 Z M277 649 L368 649 L372 667 L92 667 L88 649 L184 649 L99 249 C89 204 84 166 84 141 C84 43 152 -10 278 -10 C343 -10 392 2 431 27 C492 67 523 120 545 222 L635 649 L714 649 L717 667 L532 667 L528 649 L612 649 L521 222 C504 138 492 111 460 76 C420 33 368 10 309 10 C224 10 171 54 171 126 C171 144 174 164 183 205 L277 649 Z " />
<glyph glyph-name="Udieresis" unicode="&#xdc;" horiz-adv-x="674" d="M355 823 C324 823 295 795 295 765 C295 743 311 727 333 727 C364 727 393 755 393 785 C393 807 377 823 355 823 L355 823 Z M577 823 C546 823 517 795 517 765 C517 743 533 727 556 727 C587 727 616 755 616 785 C616 807 600 823 577 823 L577 823 Z M277 649 L368 649 L372 667 L92 667 L88 649 L184 649 L99 249 C89 204 84 166 84 141 C84 43 152 -10 278 -10 C343 -10 392 2 431 27 C492 67 523 120 545 222 L635 649 L714 649 L717 667 L532 667 L528 649 L612 649 L521 222 C504 138 492 111 460 76 C420 33 368 10 309 10 C224 10 171 54 171 126 C171 144 174 164 183 205 L277 649 Z " />
<glyph glyph-name="Yacute" unicode="&#xdd;" horiz-adv-x="579" d="M506 833 L355 731 C351 728 349 725 349 723 C349 721 351 719 353 719 C354 719 356 720 358 721 L600 814 C611 818 615 822 615 827 C615 831 611 833 603 833 L506 833 Z M339 312 L595 649 L667 649 L671 667 L471 667 L467 649 L569 649 L341 353 L224 649 L317 649 L321 667 L50 667 L46 649 L106 649 L246 312 L183 18 L78 18 L74 0 L382 0 L386 18 L277 18 L339 312 Z " />
<glyph glyph-name="Thorn" unicode="&#xde;" horiz-adv-x="608" d="M191 203 L302 203 C394 203 456 220 508 258 C559 296 589 350 589 404 C589 450 567 493 531 515 C496 537 446 547 375 547 L265 547 L286 649 L389 649 L393 667 L106 667 L102 649 L193 649 L59 18 L-32 18 L-36 0 L251 0 L255 18 L152 18 L191 203 Z M195 221 L261 529 L364 529 C448 529 482 508 482 456 C482 379 451 282 418 254 C390 230 358 221 299 221 L195 221 Z " />
<glyph glyph-name="germandbls" unicode="&#xdf;" horiz-adv-x="510" d="M99 18 L138 203 C152 271 168 306 198 332 C225 356 272 373 314 373 C349 373 372 355 372 329 C372 303 351 273 325 260 C301 248 284 244 244 244 L240 226 C324 226 350 206 350 143 C350 68 314 10 269 10 C251 10 233 19 233 28 C233 30 235 33 240 38 C255 51 264 69 264 87 C264 103 253 113 237 113 C212 113 191 87 191 56 C191 19 226 -10 271 -10 C349 -10 427 61 427 133 C427 188 389 218 300 235 C359 239 391 248 416 268 C438 285 450 310 450 334 C450 374 411 397 343 397 C265 397 217 378 164 325 L190 450 C220 592 266 657 335 657 C350 657 362 651 362 643 C362 639 360 636 354 628 C343 615 338 603 338 592 C338 576 350 565 367 565 C397 565 420 590 420 622 C420 656 392 677 346 677 C284 677 225 644 177 582 C139 533 122 492 103 401 L22 18 L-48 18 L-52 0 L149 0 L153 18 L99 18 Z " />
<glyph glyph-name="agrave" unicode="&#xe0;" horiz-adv-x="443" d="M258 613 L193 613 C184 613 179 610 179 605 C179 602 181 598 184 595 L316 466 C318 463 319 463 320 463 C322 463 324 465 324 468 C324 469 324 469 323 470 L258 613 Z M261 215 C221 214 196 212 177 209 C123 202 69 182 39 159 C6 132 -14 97 -14 63 C-14 17 21 -10 79 -10 C141 -10 185 14 231 71 C230 63 230 54 230 49 C230 10 251 -10 292 -10 C315 -10 328 -5 366 18 L359 30 C344 19 335 15 324 15 C310 15 302 22 302 33 L302 35 L305 57 L352 282 C355 295 357 310 357 320 C357 368 311 397 237 397 C147 397 61 344 61 289 C61 270 73 257 91 257 C116 257 139 280 139 305 C139 312 136 320 129 329 C125 334 123 339 123 341 C123 358 180 380 222 380 C262 380 287 363 286 338 C286 331 285 323 283 315 L261 215 Z M251 167 C242 123 233 99 217 79 C193 49 157 30 123 30 C89 30 66 50 66 80 C66 107 77 132 98 151 C133 184 177 198 258 200 L251 167 Z " />
<glyph glyph-name="aacute" unicode="&#xe1;" horiz-adv-x="443" d="M355 613 L229 470 C228 469 227 468 227 466 C227 465 229 463 230 463 C230 463 231 464 235 466 L421 595 C427 599 431 604 431 607 C431 611 428 613 420 613 L355 613 Z M261 215 C221 214 196 212 177 209 C123 202 69 182 39 159 C6 132 -14 97 -14 63 C-14 17 21 -10 79 -10 C141 -10 185 14 231 71 C230 63 230 54 230 49 C230 10 251 -10 292 -10 C315 -10 328 -5 366 18 L359 30 C344 19 335 15 324 15 C310 15 302 22 302 33 L302 35 L305 57 L352 282 C355 295 357 310 357 320 C357 368 311 397 237 397 C147 397 61 344 61 289 C61 270 73 257 91 257 C116 257 139 280 139 305 C139 312 136 320 129 329 C125 334 123 339 123 341 C123 358 180 380 222 380 C262 380 287 363 286 338 C286 331 285 323 283 315 L261 215 Z M251 167 C242 123 233 99 217 79 C193 49 157 30 123 30 C89 30 66 50 66 80 C66 107 77 132 98 151 C133 184 177 198 258 200 L251 167 Z " />
<glyph glyph-name="acircumflex" unicode="&#xe2;" horiz-adv-x="443" d="M277 541 L394 465 C396 464 398 463 399 463 C402 463 404 465 404 467 C404 468 402 471 400 474 L293 617 L125 474 C119 469 118 468 118 466 C118 465 120 463 121 463 C123 463 125 464 127 465 L277 541 Z M261 215 C221 214 196 212 177 209 C123 202 69 182 39 159 C6 132 -14 97 -14 63 C-14 17 21 -10 79 -10 C141 -10 185 14 231 71 C230 63 230 54 230 49 C230 10 251 -10 292 -10 C315 -10 328 -5 366 18 L359 30 C344 19 335 15 324 15 C310 15 302 22 302 33 L302 35 L305 57 L352 282 C355 295 357 310 357 320 C357 368 311 397 237 397 C147 397 61 344 61 289 C61 270 73 257 91 257 C116 257 139 280 139 305 C139 312 136 320 129 329 C125 334 123 339 123 341 C123 358 180 380 222 380 C262 380 287 363 286 338 C286 331 285 323 283 315 L261 215 Z M251 167 C242 123 233 99 217 79 C193 49 157 30 123 30 C89 30 66 50 66 80 C66 107 77 132 98 151 C133 184 177 198 258 200 L251 167 Z " />
<glyph glyph-name="atilde" unicode="&#xe3;" horiz-adv-x="443" d="M428 572 C407 549 389 541 362 541 C349 541 335 544 322 549 L285 563 C266 571 255 573 239 573 C192 573 163 555 123 499 L131 493 C151 515 171 524 198 524 C214 524 229 521 245 515 L281 502 C297 496 315 492 327 492 C362 492 395 515 436 567 L428 572 Z M261 215 C221 214 196 212 177 209 C123 202 69 182 39 159 C6 132 -14 97 -14 63 C-14 17 21 -10 79 -10 C141 -10 185 14 231 71 C230 63 230 54 230 49 C230 10 251 -10 292 -10 C315 -10 328 -5 366 18 L359 30 C344 19 335 15 324 15 C310 15 302 22 302 33 L302 35 L305 57 L352 282 C355 295 357 310 357 320 C357 368 311 397 237 397 C147 397 61 344 61 289 C61 270 73 257 91 257 C116 257 139 280 139 305 C139 312 136 320 129 329 C125 334 123 339 123 341 C123 358 180 380 222 380 C262 380 287 363 286 338 C286 331 285 323 283 315 L261 215 Z M251 167 C242 123 233 99 217 79 C193 49 157 30 123 30 C89 30 66 50 66 80 C66 107 77 132 98 151 C133 184 177 198 258 200 L251 167 Z " />
<glyph glyph-name="adieresis" unicode="&#xe4;" horiz-adv-x="443" d="M191 583 C160 583 131 555 131 525 C131 503 147 487 169 487 C200 487 229 515 229 545 C229 567 213 583 191 583 L191 583 Z M373 583 C342 583 313 555 313 525 C313 503 329 487 351 487 C382 487 411 515 411 545 C411 567 395 583 373 583 L373 583 Z M261 215 C221 214 196 212 177 209 C123 202 69 182 39 159 C6 132 -14 97 -14 63 C-14 17 21 -10 79 -10 C141 -10 185 14 231 71 C230 63 230 54 230 49 C230 10 251 -10 292 -10 C315 -10 328 -5 366 18 L359 30 C344 19 335 15 324 15 C310 15 302 22 302 33 L302 35 L305 57 L352 282 C355 295 357 310 357 320 C357 368 311 397 237 397 C147 397 61 344 61 289 C61 270 73 257 91 257 C116 257 139 280 139 305 C139 312 136 320 129 329 C125 334 123 339 123 341 C123 358 180 380 222 380 C262 380 287 363 286 338 C286 331 285 323 283 315 L261 215 Z M251 167 C242 123 233 99 217 79 C193 49 157 30 123 30 C89 30 66 50 66 80 C66 107 77 132 98 151 C133 184 177 198 258 200 L251 167 Z " />
<glyph glyph-name="aring" unicode="&#xe5;" horiz-adv-x="443" d="M291 615 C242 615 197 571 197 522 C197 487 222 463 257 463 C308 463 351 506 351 556 C351 590 325 615 291 615 L291 615 Z M285 588 C306 588 322 571 322 549 C322 519 292 490 263 490 C242 490 226 507 226 529 C226 558 255 588 285 588 L285 588 Z M261 215 C221 214 196 212 177 209 C123 202 69 182 39 159 C6 132 -14 97 -14 63 C-14 17 21 -10 79 -10 C141 -10 185 14 231 71 C230 63 230 54 230 49 C230 10 251 -10 292 -10 C315 -10 328 -5 366 18 L359 30 C344 19 335 15 324 15 C310 15 302 22 302 33 L302 35 L305 57 L352 282 C355 295 357 310 357 320 C357 368 311 397 237 397 C147 397 61 344 61 289 C61 270 73 257 91 257 C116 257 139 280 139 305 C139 312 136 320 129 329 C125 334 123 339 123 341 C123 358 180 380 222 380 C262 380 287 363 286 338 C286 331 285 323 283 315 L261 215 Z M251 167 C242 123 233 99 217 79 C193 49 157 30 123 30 C89 30 66 50 66 80 C66 107 77 132 98 151 C133 184 177 198 258 200 L251 167 Z " />
<glyph glyph-name="ae" unicode="&#xe6;" horiz-adv-x="680" d="M258 214 C219 213 194 212 175 209 C121 202 69 182 39 158 C5 132 -14 97 -14 63 C-14 17 20 -10 79 -10 C147 -10 209 31 244 98 C255 73 261 61 269 50 C293 15 347 -10 400 -10 C485 -10 562 45 596 130 L575 130 C543 56 477 10 400 10 C345 10 312 38 312 86 C312 100 315 120 322 151 L338 228 L620 228 C623 243 624 250 624 260 C624 340 562 397 477 397 C432 397 390 383 346 354 C328 381 287 397 235 397 C146 397 60 344 60 288 C60 269 72 256 90 256 C115 256 138 279 138 305 C138 312 135 320 129 329 C125 334 123 338 123 341 C123 358 178 380 219 380 C259 380 282 364 282 338 C282 329 281 322 280 314 L258 214 Z M248 167 C239 122 229 98 214 78 C191 48 155 30 121 30 C88 30 66 50 66 80 C66 107 77 132 98 152 C133 184 176 197 255 199 L248 167 Z M529 246 L342 246 L349 280 C363 345 401 377 467 377 C519 377 542 360 542 321 C542 313 540 300 538 289 L529 246 Z " />
<glyph glyph-name="ccedilla" unicode="&#xe7;" horiz-adv-x="423" d="M158 -10 L166 -10 L168 -10 C259 -8 330 40 369 126 L347 126 C309 51 247 10 171 10 C122 10 89 38 89 80 C89 102 93 134 99 165 L113 228 C136 337 177 377 267 377 C305 377 343 364 343 351 C343 348 341 345 333 340 C314 327 301 305 301 284 C301 262 314 249 335 249 C365 249 389 277 389 312 C389 362 339 397 268 397 C130 397 7 279 7 148 C7 66 59 3 139 -8 L111 -65 C145 -73 159 -85 159 -106 C159 -136 128 -160 89 -160 C67 -160 48 -152 48 -142 C48 -140 49 -136 50 -135 C54 -125 55 -123 55 -113 C55 -103 52 -98 45 -98 C35 -98 28 -109 28 -126 C28 -155 57 -176 98 -176 C161 -176 218 -139 218 -98 C218 -71 194 -56 149 -56 L134 -56 L158 -10 Z " />
<glyph glyph-name="egrave" unicode="&#xe8;" horiz-adv-x="453" d="M270 613 L205 613 C196 613 191 610 191 605 C191 602 193 598 196 595 L328 466 C330 463 331 463 332 463 C334 463 336 465 336 467 C336 468 336 469 335 470 L270 613 Z M111 228 L394 228 C396 243 397 250 397 260 C397 340 336 397 252 397 C181 397 112 360 61 294 C27 249 7 197 7 152 C7 60 80 -10 174 -10 C259 -10 335 45 369 130 L348 130 C317 56 250 10 173 10 C118 10 85 38 85 86 C85 100 88 121 94 151 L111 228 Z M303 246 L115 246 L122 280 C136 346 174 377 240 377 C292 377 315 360 315 322 C315 311 314 300 312 289 L303 246 Z " />
<glyph glyph-name="eacute" unicode="&#xe9;" horiz-adv-x="453" d="M372 613 L246 470 C245 469 244 467 244 466 C244 465 246 463 247 463 C248 463 248 463 252 466 L438 595 C444 599 448 604 448 607 C448 611 445 613 437 613 L372 613 Z M111 228 L394 228 C396 243 397 250 397 260 C397 340 336 397 252 397 C181 397 112 360 61 294 C27 249 7 197 7 152 C7 60 80 -10 174 -10 C259 -10 335 45 369 130 L348 130 C317 56 250 10 173 10 C118 10 85 38 85 86 C85 100 88 121 94 151 L111 228 Z M303 246 L115 246 L122 280 C136 346 174 377 240 377 C292 377 315 360 315 322 C315 311 314 300 312 289 L303 246 Z " />
<glyph glyph-name="ecircumflex" unicode="&#xea;" horiz-adv-x="453" d="M292 541 L409 465 C411 464 413 463 414 463 C417 463 419 465 419 467 C419 468 418 471 415 474 L308 617 L140 474 C136 471 134 468 134 466 C134 465 136 463 137 463 C138 463 140 464 142 465 L292 541 Z M111 228 L394 228 C396 243 397 250 397 260 C397 340 336 397 252 397 C181 397 112 360 61 294 C27 249 7 197 7 152 C7 60 80 -10 174 -10 C259 -10 335 45 369 130 L348 130 C317 56 250 10 173 10 C118 10 85 38 85 86 C85 100 88 121 94 151 L111 228 Z M303 246 L115 246 L122 280 C136 346 174 377 240 377 C292 377 315 360 315 322 C315 311 314 300 312 289 L303 246 Z " />
<glyph glyph-name="edieresis" unicode="&#xeb;" horiz-adv-x="453" d="M206 583 C175 583 146 555 146 525 C146 503 162 487 185 487 C216 487 245 515 245 545 C245 567 229 583 206 583 L206 583 Z M388 583 C357 583 328 555 328 525 C328 503 344 487 367 487 C398 487 427 515 427 545 C427 567 411 583 388 583 L388 583 Z M111 228 L394 228 C396 243 397 250 397 260 C397 340 336 397 252 397 C181 397 112 360 61 294 C27 249 7 197 7 152 C7 60 80 -10 174 -10 C259 -10 335 45 369 130 L348 130 C317 56 250 10 173 10 C118 10 85 38 85 86 C85 100 88 121 94 151 L111 228 Z M303 246 L115 246 L122 280 C136 346 174 377 240 377 C292 377 315 360 315 322 C315 311 314 300 312 289 L303 246 Z " />
<glyph glyph-name="igrave" unicode="&#xec;" horiz-adv-x="278" d="M201 387 L50 387 L46 369 L120 369 L46 18 L-28 18 L-32 0 L189 0 L192 18 L122 18 L201 387 Z M158 613 L93 613 C84 613 79 610 79 605 C79 602 81 598 84 595 L216 466 C218 463 219 463 220 463 C222 463 224 465 224 467 C224 468 224 469 223 470 L158 613 Z " />
<glyph glyph-name="iacute" unicode="&#xed;" horiz-adv-x="278" d="M201 387 L50 387 L46 369 L120 369 L46 18 L-28 18 L-32 0 L189 0 L192 18 L122 18 L201 387 Z M286 613 L160 470 C159 469 158 467 158 466 C158 465 159 463 161 463 L165 466 L352 595 C358 599 362 604 362 607 C362 611 358 613 351 613 L286 613 Z " />
<glyph glyph-name="icircumflex" unicode="&#xee;" horiz-adv-x="278" d="M201 387 L50 387 L46 369 L120 369 L46 18 L-28 18 L-32 0 L189 0 L192 18 L122 18 L201 387 Z M183 541 L300 465 C302 464 304 463 305 463 C308 463 310 465 310 467 C310 468 308 471 306 474 L199 617 L32 474 C27 471 25 468 25 466 C25 465 27 463 28 463 C29 463 31 464 33 465 L183 541 Z " />
<glyph glyph-name="idieresis" unicode="&#xef;" horiz-adv-x="278" d="M201 387 L50 387 L46 369 L120 369 L46 18 L-28 18 L-32 0 L189 0 L192 18 L122 18 L201 387 Z M116 579 C86 579 58 552 58 523 C58 503 74 487 95 487 C125 487 153 514 153 543 C153 564 137 579 116 579 L116 579 Z M268 579 C238 579 210 552 210 523 C210 503 226 487 247 487 C277 487 305 514 305 543 C305 564 289 579 268 579 L268 579 Z " />
<glyph glyph-name="eth" unicode="&#xf0;" horiz-adv-x="494" d="M187 544 L195 527 L291 580 C328 516 345 455 347 378 C313 393 295 397 265 397 C132 397 7 278 7 151 C7 59 78 -10 172 -10 C246 -10 321 26 369 86 C411 138 433 208 433 288 C433 396 396 500 323 597 L414 649 L406 664 L308 610 C295 629 249 669 228 680 L213 667 C248 637 267 618 282 596 L187 544 Z M323 169 C311 108 299 74 285 56 C263 27 222 10 176 10 C123 10 86 36 86 73 C86 93 86 94 100 169 L111 218 C120 262 134 308 141 322 C161 356 205 377 255 377 C308 377 346 351 346 314 C346 288 342 257 334 218 L323 169 Z " />
<glyph glyph-name="ntilde" unicode="&#xf1;" horiz-adv-x="549" d="M476 572 C454 549 437 541 410 541 C397 541 383 544 369 549 L333 563 C313 571 302 573 286 573 C239 573 210 554 170 499 L178 493 C199 515 219 524 245 524 C261 524 277 521 293 515 L328 502 C344 496 363 492 375 492 C409 492 442 515 484 567 L476 572 Z M197 387 L50 387 L46 369 L116 369 L42 18 L-28 18 L-32 0 L189 0 L192 18 L119 18 L152 178 C168 250 181 287 201 314 C225 349 276 374 320 374 C354 374 375 356 375 326 C375 316 374 303 371 292 L313 18 L243 18 L239 0 L460 0 L463 18 L390 18 L442 265 C446 282 448 301 448 313 C448 363 403 397 336 397 C281 397 237 378 185 330 L197 387 Z " />
<glyph glyph-name="ograve" unicode="&#xf2;" horiz-adv-x="494" d="M283 613 L218 613 C209 613 204 610 204 605 C204 602 206 597 209 595 L341 466 C343 464 344 463 345 463 C347 463 349 465 349 468 C349 468 349 469 348 470 L283 613 Z M264 397 C130 397 8 279 8 151 C8 58 77 -10 172 -10 C306 -10 427 107 427 236 C427 329 359 397 264 397 L264 397 Z M324 169 C311 108 300 74 286 56 C263 27 223 10 177 10 C124 10 87 36 87 73 C87 90 93 132 101 169 L111 218 C120 262 134 309 142 322 C162 356 206 377 256 377 C310 377 348 351 348 314 C348 293 343 260 334 218 L324 169 Z " />
<glyph glyph-name="oacute" unicode="&#xf3;" horiz-adv-x="494" d="M385 613 L259 470 C258 469 257 467 257 466 C257 465 259 463 260 463 C260 463 262 464 265 466 L451 595 C457 599 461 604 461 607 C461 611 458 613 450 613 L385 613 Z M264 397 C130 397 8 279 8 151 C8 58 77 -10 172 -10 C306 -10 427 107 427 236 C427 329 359 397 264 397 L264 397 Z M324 169 C311 108 300 74 286 56 C263 27 223 10 177 10 C124 10 87 36 87 73 C87 90 93 132 101 169 L111 218 C120 262 134 309 142 322 C162 356 206 377 256 377 C310 377 348 351 348 314 C348 293 343 260 334 218 L324 169 Z " />
<glyph glyph-name="ocircumflex" unicode="&#xf4;" horiz-adv-x="494" d="M298 541 L415 465 C417 464 419 463 420 463 C423 463 425 465 425 467 L425 468 L421 474 L314 617 L146 474 C142 471 140 468 140 466 C140 465 142 463 143 463 C144 463 146 464 148 465 L298 541 Z M264 397 C130 397 8 279 8 151 C8 58 77 -10 172 -10 C306 -10 427 107 427 236 C427 329 359 397 264 397 L264 397 Z M324 169 C311 108 300 74 286 56 C263 27 223 10 177 10 C124 10 87 36 87 73 C87 90 93 132 101 169 L111 218 C120 262 134 309 142 322 C162 356 206 377 256 377 C310 377 348 351 348 314 C348 293 343 260 334 218 L324 169 Z " />
<glyph glyph-name="otilde" unicode="&#xf5;" horiz-adv-x="494" d="M452 572 C430 549 413 541 386 541 C373 541 359 544 345 549 L309 563 C289 571 278 573 262 573 C215 573 186 555 146 499 L154 493 C175 515 195 524 221 524 C237 524 253 521 269 515 L304 502 C320 496 339 492 351 492 C385 492 418 514 460 567 L452 572 Z M264 397 C130 397 8 279 8 151 C8 58 77 -10 172 -10 C306 -10 427 107 427 236 C427 329 359 397 264 397 L264 397 Z M324 169 C311 108 300 74 286 56 C263 27 223 10 177 10 C124 10 87 36 87 73 C87 90 93 132 101 169 L111 218 C120 262 134 309 142 322 C162 356 206 377 256 377 C310 377 348 351 348 314 C348 293 343 260 334 218 L324 169 Z " />
<glyph glyph-name="odieresis" unicode="&#xf6;" horiz-adv-x="494" d="M210 583 C179 583 150 555 150 525 C150 503 167 487 189 487 C220 487 249 515 249 545 C249 567 233 583 210 583 L210 583 Z M392 583 C361 583 332 555 332 525 C332 503 349 487 371 487 C402 487 431 515 431 545 C431 567 415 583 392 583 L392 583 Z M264 397 C130 397 8 279 8 151 C8 58 77 -10 172 -10 C306 -10 427 107 427 236 C427 329 359 397 264 397 L264 397 Z M324 169 C311 108 300 74 286 56 C263 27 223 10 177 10 C124 10 87 36 87 73 C87 90 93 132 101 169 L111 218 C120 262 134 309 142 322 C162 356 206 377 256 377 C310 377 348 351 348 314 C348 293 343 260 334 218 L324 169 Z " />
<glyph glyph-name="divide" unicode="&#xf7;" horiz-adv-x="525" d="M49 308 L466 308 L473 338 L55 338 L49 308 Z M305 530 C267 530 232 497 232 462 C232 436 253 417 280 417 C319 417 354 449 354 485 C354 511 333 530 305 530 L305 530 Z M242 229 C204 229 168 196 168 161 C168 134 189 115 216 115 C255 115 290 148 290 183 C290 209 269 229 242 229 L242 229 Z " />
<glyph glyph-name="oslash" unicode="&#xf8;" horiz-adv-x="494" d="M441 406 L428 416 L374 360 C342 385 306 397 261 397 C130 397 7 278 7 150 C7 110 18 76 42 45 L-12 -11 L-1 -23 L53 32 C87 4 125 -10 169 -10 C304 -10 426 107 426 237 C426 283 412 322 386 348 L441 406 Z M347 313 C347 294 342 262 334 218 L323 169 C310 108 299 74 285 56 C263 27 222 10 177 10 C128 10 97 28 88 61 L347 313 Z M86 84 C90 116 94 140 100 169 L110 218 C120 261 134 309 141 322 C161 356 205 377 255 377 C299 377 325 364 342 335 L86 84 Z " />
<glyph glyph-name="ugrave" unicode="&#xf9;" horiz-adv-x="537" d="M296 613 L231 613 C222 613 217 610 217 605 C217 602 219 598 223 595 L354 466 C357 463 357 463 358 463 C361 463 362 465 362 468 L362 470 L296 613 Z M459 387 L308 387 L304 369 L378 369 L342 200 C326 125 303 72 278 51 C248 26 212 13 174 13 C134 13 115 29 115 64 C115 76 116 85 123 117 L180 387 L30 387 L26 369 L100 369 L49 131 C43 103 41 86 41 74 C41 21 82 -10 152 -10 C221 -10 264 9 313 60 L300 0 L447 0 L450 18 L380 18 L459 387 Z " />
<glyph glyph-name="uacute" unicode="&#xfa;" horiz-adv-x="537" d="M393 613 L267 470 C266 469 265 467 265 466 C265 465 267 463 268 463 C268 463 269 464 273 466 L459 595 C465 599 469 604 469 607 C469 611 466 613 458 613 L393 613 Z M459 387 L308 387 L304 369 L378 369 L342 200 C326 125 303 72 278 51 C248 26 212 13 174 13 C134 13 115 29 115 64 C115 76 116 85 123 117 L180 387 L30 387 L26 369 L100 369 L49 131 C43 103 41 86 41 74 C41 21 82 -10 152 -10 C221 -10 264 9 313 60 L300 0 L447 0 L450 18 L380 18 L459 387 Z " />
<glyph glyph-name="ucircumflex" unicode="&#xfb;" horiz-adv-x="537" d="M315 541 L432 465 C434 464 436 463 437 463 C440 463 442 465 442 467 C442 468 440 471 438 474 L331 617 L163 474 C159 471 157 468 157 466 C157 465 159 463 160 463 C161 463 163 464 165 465 L315 541 Z M459 387 L308 387 L304 369 L378 369 L342 200 C326 125 303 72 278 51 C248 26 212 13 174 13 C134 13 115 29 115 64 C115 76 116 85 123 117 L180 387 L30 387 L26 369 L100 369 L49 131 C43 103 41 86 41 74 C41 21 82 -10 152 -10 C221 -10 264 9 313 60 L300 0 L447 0 L450 18 L380 18 L459 387 Z " />
<glyph glyph-name="udieresis" unicode="&#xfc;" horiz-adv-x="537" d="M242 583 C211 583 182 555 182 525 C182 503 198 487 220 487 C252 487 280 515 280 545 C280 567 264 583 242 583 L242 583 Z M424 583 C393 583 364 555 364 525 C364 503 380 487 402 487 C434 487 462 515 462 545 C462 567 446 583 424 583 L424 583 Z M459 387 L308 387 L304 369 L378 369 L342 200 C326 125 303 72 278 51 C248 26 212 13 174 13 C134 13 115 29 115 64 C115 76 116 85 123 117 L180 387 L30 387 L26 369 L100 369 L49 131 C43 103 41 86 41 74 C41 21 82 -10 152 -10 C221 -10 264 9 313 60 L300 0 L447 0 L450 18 L380 18 L459 387 Z " />
<glyph glyph-name="yacute" unicode="&#xfd;" horiz-adv-x="434" d="M369 613 L242 470 C240 468 240 467 240 466 C240 465 242 463 243 463 C244 463 246 464 248 466 L434 595 C441 599 445 604 445 607 C445 611 441 613 434 613 L369 613 Z M212 94 L150 369 L221 369 L225 387 L12 387 L8 369 L57 369 L155 -6 L65 -161 C42 -201 35 -208 21 -208 C14 -208 10 -206 7 -200 C-6 -180 -14 -174 -33 -174 C-63 -174 -89 -201 -89 -232 C-89 -257 -70 -274 -41 -274 C4 -274 40 -244 83 -170 L396 369 L442 369 L446 387 L300 387 L296 369 L369 369 L212 94 Z " />
<glyph glyph-name="thorn" unicode="&#xfe;" horiz-adv-x="514" d="M236 667 L89 667 L85 649 L155 649 L-35 -249 L-105 -249 L-109 -267 L126 -267 L129 -249 L42 -249 L112 82 C134 15 163 -10 222 -10 C337 -10 449 118 449 249 C449 338 394 397 310 397 C251 397 206 369 159 306 L236 667 Z M345 176 C330 105 307 50 286 33 C267 18 247 10 225 10 C168 10 130 59 130 131 C130 165 138 206 153 243 C186 328 242 377 308 377 C348 377 370 356 370 318 C370 300 368 283 360 249 L345 176 Z " />
<glyph glyph-name="ydieresis" unicode="&#xff;" horiz-adv-x="434" d="M200 583 C169 583 140 555 140 525 C140 503 156 487 179 487 C210 487 239 515 239 545 C239 567 223 583 200 583 L200 583 Z M382 583 C351 583 322 555 322 525 C322 503 338 487 361 487 C392 487 421 515 421 545 C421 567 405 583 382 583 L382 583 Z M212 94 L150 369 L221 369 L225 387 L12 387 L8 369 L57 369 L155 -6 L65 -161 C42 -201 35 -208 21 -208 C14 -208 10 -206 7 -200 C-6 -180 -14 -174 -33 -174 C-63 -174 -89 -201 -89 -232 C-89 -257 -70 -274 -41 -274 C4 -274 40 -244 83 -170 L396 369 L442 369 L446 387 L300 387 L296 369 L369 369 L212 94 Z " />
<glyph glyph-name="Amacron" unicode="&#x100;" horiz-adv-x="636" d="M359 214 L387 18 L288 18 L284 0 L570 0 L573 18 L493 18 L402 667 L374 667 L-3 18 L-70 18 L-74 0 L112 0 L116 18 L23 18 L136 214 L359 214 Z M356 232 L147 232 L314 527 L356 232 Z M567 749 L573 779 L253 779 L247 749 L567 749 Z " />
<glyph glyph-name="amacron" unicode="&#x101;" horiz-adv-x="443" d="M261 215 C221 214 196 212 177 209 C123 202 69 182 39 159 C6 132 -14 97 -14 63 C-14 17 21 -10 79 -10 C141 -10 185 14 231 71 C230 63 230 54 230 49 C230 10 251 -10 292 -10 C315 -10 328 -5 366 18 L359 30 C344 19 335 15 324 15 C310 15 302 22 302 33 L302 35 L305 57 L352 282 C355 295 357 310 357 320 C357 368 311 397 237 397 C147 397 61 344 61 289 C61 270 73 257 91 257 C116 257 139 280 139 305 C139 312 136 320 129 329 C125 334 123 339 123 341 C123 358 180 380 222 380 C262 380 287 363 286 338 C286 331 285 323 283 315 L261 215 Z M251 167 C242 123 233 99 217 79 C193 49 157 30 123 30 C89 30 66 50 66 80 C66 107 77 132 98 151 C133 184 177 198 258 200 L251 167 Z M401 499 L406 523 L133 523 L127 499 L401 499 Z " />
<glyph glyph-name="Abreve" unicode="&#x102;" horiz-adv-x="636" d="M359 214 L387 18 L288 18 L284 0 L570 0 L573 18 L493 18 L402 667 L374 667 L-3 18 L-70 18 L-74 0 L112 0 L116 18 L23 18 L136 214 L359 214 Z M356 232 L147 232 L314 527 L356 232 Z M561 838 C549 819 542 811 531 803 C505 784 462 774 413 774 C363 774 324 784 306 803 C298 811 294 820 291 838 L277 838 C277 822 278 811 280 805 C293 754 339 722 402 722 C479 722 548 768 575 838 L561 838 Z " />
<glyph glyph-name="abreve" unicode="&#x103;" horiz-adv-x="443" d="M261 215 C221 214 196 212 177 209 C123 202 69 182 39 159 C6 132 -14 97 -14 63 C-14 17 21 -10 79 -10 C141 -10 185 14 231 71 C230 63 230 54 230 49 C230 10 251 -10 292 -10 C315 -10 328 -5 366 18 L359 30 C344 19 335 15 324 15 C310 15 302 22 302 33 L302 35 L305 57 L352 282 C355 295 357 310 357 320 C357 368 311 397 237 397 C147 397 61 344 61 289 C61 270 73 257 91 257 C116 257 139 280 139 305 C139 312 136 320 129 329 C125 334 123 339 123 341 C123 358 180 380 222 380 C262 380 287 363 286 338 C286 331 285 323 283 315 L261 215 Z M251 167 C242 123 233 99 217 79 C193 49 157 30 123 30 C89 30 66 50 66 80 C66 107 77 132 98 151 C133 184 177 198 258 200 L251 167 Z M412 610 C398 580 389 568 374 554 C351 534 312 521 273 521 C234 521 200 534 186 554 C176 568 173 581 172 610 L160 610 C159 599 159 595 159 588 C159 516 200 467 261 467 C330 467 393 523 424 610 L412 610 Z " />
<glyph glyph-name="Aogonek" unicode="&#x104;" horiz-adv-x="636" d="M570 0 L573 18 L493 18 L402 667 L374 667 L-3 18 L-70 18 L-74 0 L112 0 L116 18 L23 18 L136 214 L359 214 L387 18 L288 18 L284 0 L483 0 C396 -27 355 -62 355 -110 C355 -142 382 -162 427 -162 C460 -162 486 -156 519 -141 L522 -127 C498 -135 483 -137 462 -137 C428 -137 411 -125 411 -100 C411 -62 442 -30 508 0 L570 0 Z M356 232 L147 232 L314 527 L356 232 Z " />
<glyph glyph-name="aogonek" unicode="&#x105;" horiz-adv-x="443" d="M350 -124 C327 -132 312 -134 292 -134 C260 -134 243 -122 243 -98 C243 -62 269 -34 335 1 C348 8 352 9 366 18 L359 30 C344 19 335 15 324 15 C310 15 302 22 302 33 L302 35 L305 57 L352 282 C355 295 357 310 357 320 C357 368 311 397 237 397 C147 397 61 344 61 289 C61 270 73 257 91 257 C116 257 139 280 139 305 C139 312 136 320 129 329 C125 334 123 339 123 341 C123 358 180 380 222 380 C262 380 287 363 286 338 C286 331 285 323 283 315 L261 215 C221 214 196 212 177 209 C123 202 69 182 39 159 C6 132 -14 97 -14 63 C-14 17 21 -10 79 -10 C141 -10 185 14 231 71 C230 63 230 54 230 49 C230 13 248 -7 283 -10 C219 -38 189 -69 189 -107 C189 -140 215 -159 260 -159 C291 -159 314 -153 347 -138 L350 -124 Z M251 167 C242 123 233 99 217 79 C193 49 157 30 123 30 C89 30 66 50 66 80 C66 107 77 132 98 151 C133 184 177 198 258 200 L251 167 Z " />
<glyph glyph-name="Cacute" unicode="&#x106;" horiz-adv-x="621" d="M641 667 L627 667 L581 617 C533 658 487 677 434 677 C357 677 285 651 218 601 C108 517 38 378 38 246 C38 100 139 -10 272 -10 C332 -10 384 7 461 50 L485 0 L499 0 L538 185 L524 185 C488 126 466 98 429 68 C387 31 329 10 273 10 C190 10 130 60 130 130 C130 168 144 257 165 350 C191 464 208 517 229 555 C265 619 336 657 418 657 C478 657 527 635 557 595 C579 566 586 543 590 494 L604 494 L641 667 Z M529 833 L378 731 C374 728 372 725 372 723 C372 721 374 719 376 719 C377 719 379 720 382 721 L623 814 C634 818 638 822 638 827 C638 831 634 833 626 833 L529 833 Z " />
<glyph glyph-name="cacute" unicode="&#x107;" horiz-adv-x="423" d="M347 126 C309 51 247 10 171 10 C122 10 89 38 89 80 C89 102 93 135 99 165 L113 228 C136 336 177 377 264 377 C304 377 343 364 343 352 C343 348 340 345 333 340 C314 327 301 305 301 284 C301 262 313 249 335 249 C365 249 389 277 389 313 C389 362 339 397 268 397 C131 397 7 280 7 149 C7 56 74 -10 169 -10 C222 -10 273 10 312 45 C335 66 348 85 368 126 L347 126 Z M367 613 L241 470 C239 468 239 467 239 466 C239 465 241 463 242 463 C242 463 244 464 247 466 L433 595 C439 599 443 604 443 607 C443 611 440 613 432 613 L367 613 Z " />
<glyph glyph-name="Ccircumflex" unicode="&#x108;" horiz-adv-x="621" d="M641 667 L627 667 L581 617 C533 658 487 677 434 677 C357 677 285 651 218 601 C108 517 38 378 38 246 C38 100 139 -10 272 -10 C332 -10 384 7 461 50 L485 0 L499 0 L538 185 L524 185 C488 126 466 98 429 68 C387 31 329 10 273 10 C190 10 130 60 130 130 C130 168 144 257 165 350 C191 464 208 517 229 555 C265 619 336 657 418 657 C478 657 527 635 557 595 C579 566 586 543 590 494 L604 494 L641 667 Z M445 769 L583 721 C584 720 585 720 587 720 C591 720 593 722 593 724 C593 725 592 727 588 730 L460 838 L286 730 C281 727 279 725 279 723 C279 721 280 720 283 720 C285 720 286 720 288 721 L445 769 Z " />
<glyph glyph-name="Cdotaccent" unicode="&#x10a;" horiz-adv-x="621" d="M641 667 L627 667 L581 617 C533 658 487 677 434 677 C357 677 285 651 218 601 C108 517 38 378 38 246 C38 100 139 -10 272 -10 C332 -10 384 7 461 50 L485 0 L499 0 L538 185 L524 185 C488 126 466 98 429 68 C387 31 329 10 273 10 C190 10 130 60 130 130 C130 168 144 257 165 350 C191 464 208 517 229 555 C265 619 336 657 418 657 C478 657 527 635 557 595 C579 566 586 543 590 494 L604 494 L641 667 Z M459 827 C426 827 396 797 396 765 C396 742 413 725 436 725 C469 725 499 755 499 787 C499 810 482 827 459 827 L459 827 Z " />
<glyph glyph-name="cdotaccent" unicode="&#x10b;" horiz-adv-x="423" d="M347 126 C309 51 247 10 171 10 C122 10 89 38 89 80 C89 102 93 135 99 165 L113 228 C136 336 177 377 264 377 C304 377 343 364 343 352 C343 348 340 345 333 340 C314 327 301 305 301 284 C301 262 313 249 335 249 C365 249 389 277 389 313 C389 362 339 397 268 397 C131 397 7 280 7 149 C7 56 74 -10 169 -10 C222 -10 273 10 312 45 C335 66 348 85 368 126 L347 126 Z M305 587 C272 587 242 557 242 526 C242 502 259 485 282 485 C315 485 345 515 345 547 C345 570 328 587 305 587 L305 587 Z " />
<glyph glyph-name="Ccaron" unicode="&#x10c;" horiz-adv-x="621" d="M641 667 L627 667 L581 617 C533 658 487 677 434 677 C357 677 285 651 218 601 C108 517 38 378 38 246 C38 100 139 -10 272 -10 C332 -10 384 7 461 50 L485 0 L499 0 L538 185 L524 185 C488 126 466 98 429 68 C387 31 329 10 273 10 C190 10 130 60 130 130 C130 168 144 257 165 350 C191 464 208 517 229 555 C265 619 336 657 418 657 C478 657 527 635 557 595 C579 566 586 543 590 494 L604 494 L641 667 Z M447 789 L310 838 L306 838 C302 838 300 837 300 834 C300 833 301 832 305 829 L433 720 L607 829 C611 831 614 833 614 835 C613 838 613 838 610 838 L605 838 L447 789 Z " />
<glyph glyph-name="ccaron" unicode="&#x10d;" horiz-adv-x="423" d="M347 126 C309 51 247 10 171 10 C122 10 89 38 89 80 C89 102 93 135 99 165 L113 228 C136 336 177 377 264 377 C304 377 343 364 343 352 C343 348 340 345 333 340 C314 327 301 305 301 284 C301 262 313 249 335 249 C365 249 389 277 389 313 C389 362 339 397 268 397 C131 397 7 280 7 149 C7 56 74 -10 169 -10 C222 -10 273 10 312 45 C335 66 348 85 368 126 L347 126 Z M291 539 L174 615 C172 616 171 617 169 617 C167 617 164 615 164 613 C164 612 165 610 168 606 L275 463 L443 606 C448 610 450 612 450 614 C450 615 448 617 447 617 C445 617 444 616 441 615 L291 539 Z " />
<glyph glyph-name="Dcaron" unicode="&#x10e;" horiz-adv-x="707" d="M60 18 L-32 18 L-36 0 L222 0 C353 0 417 18 495 77 C601 158 667 287 667 416 C667 507 631 580 565 623 C516 655 462 667 363 667 L106 667 L102 649 L194 649 L60 18 Z M153 18 L287 649 L359 649 C510 649 571 610 571 514 C571 446 541 296 508 194 C480 112 455 78 400 49 C355 26 308 18 227 18 L153 18 Z M420 789 L282 838 L278 838 C274 838 272 837 272 834 C272 833 273 832 277 829 L405 720 L579 829 C584 831 586 833 586 835 C585 838 585 838 582 838 L578 838 L420 789 Z " />
<glyph glyph-name="dcaron" unicode="&#x10f;" horiz-adv-x="604" d="M279 0 L426 0 L430 18 L360 18 L498 667 L333 667 L329 649 L417 649 L345 307 C323 372 292 397 231 397 C112 397 7 277 7 141 C7 50 63 -10 148 -10 C208 -10 248 15 297 84 L279 0 Z M114 233 C126 290 137 322 153 342 C170 364 197 377 227 377 C285 377 325 330 325 262 C325 127 245 10 152 10 C109 10 87 34 87 79 C87 101 89 116 99 165 L114 233 Z M543 457 C618 504 655 552 655 602 C655 641 630 667 594 667 C555 667 522 635 522 599 C522 578 536 565 559 565 C587 565 605 582 609 615 C624 608 630 599 630 582 C630 549 602 516 534 467 L543 457 Z " />
<glyph glyph-name="Dcroat" unicode="&#x110;" horiz-adv-x="707" d="M125 330 L59 18 L-32 18 L-36 0 L223 0 C353 0 417 18 495 77 C602 157 667 286 667 415 C667 507 631 580 565 623 C516 655 463 667 364 667 L106 667 L102 649 L193 649 L129 348 L38 348 L34 330 L125 330 Z M218 330 L386 330 L390 348 L222 348 L286 649 L359 649 C511 649 571 610 571 514 C571 445 541 296 508 194 C480 112 455 77 400 49 C355 26 309 18 227 18 L152 18 L218 330 Z " />
<glyph glyph-name="dcroat" unicode="&#x111;" horiz-adv-x="516" d="M392 532 L345 307 C323 372 292 397 231 397 C112 397 7 277 7 141 C7 50 63 -10 148 -10 C208 -10 248 15 297 84 L279 0 L426 0 L430 18 L360 18 L469 532 L539 532 L544 556 L474 556 L498 667 L333 667 L329 649 L417 649 L398 556 L248 556 L243 532 L392 532 Z M114 233 C126 290 137 322 153 342 C170 364 197 377 227 377 C285 377 325 330 325 262 C325 127 245 10 152 10 C109 10 87 34 87 79 C87 101 89 116 99 165 L114 233 Z " />
<glyph glyph-name="Emacron" unicode="&#x112;" horiz-adv-x="615" d="M602 667 L106 667 L102 649 L193 649 L59 18 L-32 18 L-36 0 L483 0 L548 208 L534 208 C492 124 470 90 434 55 C396 23 381 19 296 18 L152 18 L218 329 L266 329 C338 329 365 308 365 255 C365 244 364 232 361 221 L356 198 L370 198 L429 472 L415 472 L411 453 C392 374 360 349 273 347 L222 347 L286 649 L378 649 C522 650 559 618 563 486 L577 486 L602 667 Z M564 749 L570 779 L250 779 L244 749 L564 749 Z " />
<glyph glyph-name="emacron" unicode="&#x113;" horiz-adv-x="453" d="M111 228 L394 228 C396 243 397 250 397 260 C397 340 336 397 252 397 C181 397 112 360 61 294 C27 249 7 197 7 152 C7 60 80 -10 174 -10 C259 -10 335 45 369 130 L348 130 C317 56 250 10 173 10 C118 10 85 38 85 86 C85 100 88 121 94 151 L111 228 Z M303 246 L115 246 L122 280 C136 346 174 377 240 377 C292 377 315 360 315 322 C315 311 314 300 312 289 L303 246 Z M411 499 L416 523 L143 523 L138 499 L411 499 Z " />
<glyph glyph-name="Ebreve" unicode="&#x114;" horiz-adv-x="615" d="M602 667 L106 667 L102 649 L193 649 L59 18 L-32 18 L-36 0 L483 0 L548 208 L534 208 C492 124 470 90 434 55 C396 23 381 19 296 18 L152 18 L218 329 L266 329 C338 329 365 308 365 255 C365 244 364 232 361 221 L356 198 L370 198 L429 472 L415 472 L411 453 C392 374 360 349 273 347 L222 347 L286 649 L378 649 C522 650 559 618 563 486 L577 486 L602 667 Z M571 838 C559 819 552 811 540 803 C514 784 472 774 422 774 C372 774 333 784 316 803 C308 811 304 820 300 838 L286 838 L286 830 C286 767 338 722 411 722 C488 722 557 768 585 838 L571 838 Z " />
<glyph glyph-name="ebreve" unicode="&#x115;" horiz-adv-x="453" d="M111 228 L394 228 C396 243 397 250 397 260 C397 340 336 397 252 397 C181 397 112 360 61 294 C27 249 7 197 7 152 C7 60 80 -10 174 -10 C259 -10 335 45 369 130 L348 130 C317 56 250 10 173 10 C118 10 85 38 85 86 C85 100 88 121 94 151 L111 228 Z M303 246 L115 246 L122 280 C136 346 174 377 240 377 C292 377 315 360 315 322 C315 311 314 300 312 289 L303 246 Z M420 610 C406 580 398 568 382 554 C359 534 321 521 281 521 C242 521 208 534 194 554 C185 567 182 580 180 610 L169 610 C167 599 167 593 167 587 C167 516 209 467 269 467 C338 467 402 523 432 610 L420 610 Z " />
<glyph glyph-name="Edotaccent" unicode="&#x116;" horiz-adv-x="615" d="M602 667 L106 667 L102 649 L193 649 L59 18 L-32 18 L-36 0 L483 0 L548 208 L534 208 C492 124 470 90 434 55 C396 23 381 19 296 18 L152 18 L218 329 L266 329 C338 329 365 308 365 255 C365 244 364 232 361 221 L356 198 L370 198 L429 472 L415 472 L411 453 C392 374 360 349 273 347 L222 347 L286 649 L378 649 C522 650 559 618 563 486 L577 486 L602 667 Z M429 827 C397 827 366 797 366 766 C366 742 383 725 407 725 C440 725 470 755 470 787 C470 810 453 827 429 827 L429 827 Z " />
<glyph glyph-name="edotaccent" unicode="&#x117;" horiz-adv-x="453" d="M111 228 L394 228 C396 243 397 250 397 260 C397 340 336 397 252 397 C181 397 112 360 61 294 C27 249 7 197 7 152 C7 60 80 -10 174 -10 C259 -10 335 45 369 130 L348 130 C317 56 250 10 173 10 C118 10 85 38 85 86 C85 100 88 121 94 151 L111 228 Z M303 246 L115 246 L122 280 C136 346 174 377 240 377 C292 377 315 360 315 322 C315 311 314 300 312 289 L303 246 Z M296 587 C264 587 233 557 233 526 C233 502 250 485 274 485 C307 485 337 515 337 547 C337 570 320 587 296 587 L296 587 Z " />
<glyph glyph-name="Eogonek" unicode="&#x118;" horiz-adv-x="615" d="M483 0 L548 208 L534 208 C492 124 470 90 434 55 C396 23 381 19 296 18 L152 18 L218 329 L266 329 C338 329 365 308 365 255 C365 244 364 232 361 221 L356 198 L370 198 L429 472 L415 472 L411 453 C392 374 360 349 273 347 L222 347 L286 649 L378 649 C522 650 559 618 563 486 L577 486 L602 667 L106 667 L102 649 L193 649 L59 18 L-32 18 L-36 0 L416 0 C329 -27 288 -62 288 -110 C288 -142 315 -162 360 -162 C394 -162 419 -156 452 -141 L455 -127 C431 -135 416 -137 396 -137 C361 -137 344 -125 344 -100 C344 -62 375 -31 441 0 L483 0 Z " />
<glyph glyph-name="eogonek" unicode="&#x119;" horiz-adv-x="454" d="M272 -124 C250 -132 235 -134 215 -134 C182 -134 166 -122 166 -98 C166 -64 185 -41 248 -1 C321 46 349 75 369 130 L348 130 C317 56 250 10 173 10 C118 10 85 38 85 86 C85 100 88 121 94 151 L111 228 L394 228 C396 243 397 250 397 260 C397 340 336 397 252 397 C181 397 112 360 61 294 C27 249 7 197 7 152 C7 61 79 -10 172 -10 C181 -10 191 -9 205 -8 C144 -34 112 -69 112 -107 C112 -140 138 -159 183 -159 C213 -159 237 -153 269 -138 L272 -124 Z M303 246 L115 246 L122 280 C136 346 174 377 240 377 C292 377 315 360 315 322 C315 311 314 300 312 289 L303 246 Z " />
<glyph glyph-name="Ecaron" unicode="&#x11a;" horiz-adv-x="615" d="M602 667 L106 667 L102 649 L193 649 L59 18 L-32 18 L-36 0 L483 0 L548 208 L534 208 C492 124 470 90 434 55 C396 23 381 19 296 18 L152 18 L218 329 L266 329 C338 329 365 308 365 255 C365 244 364 232 361 221 L356 198 L370 198 L429 472 L415 472 L411 453 C392 374 360 349 273 347 L222 347 L286 649 L378 649 C522 650 559 618 563 486 L577 486 L602 667 Z M418 789 L281 838 L277 838 C273 838 271 837 271 834 C271 833 272 831 275 829 L403 720 L577 829 C584 832 585 834 585 835 C584 838 584 838 580 838 L576 838 L418 789 Z " />
<glyph glyph-name="ecaron" unicode="&#x11b;" horiz-adv-x="453" d="M111 228 L394 228 C396 243 397 250 397 260 C397 340 336 397 252 397 C181 397 112 360 61 294 C27 249 7 197 7 152 C7 60 80 -10 174 -10 C259 -10 335 45 369 130 L348 130 C317 56 250 10 173 10 C118 10 85 38 85 86 C85 100 88 121 94 151 L111 228 Z M303 246 L115 246 L122 280 C136 346 174 377 240 377 C292 377 315 360 315 322 C315 311 314 300 312 289 L303 246 Z M285 539 L167 615 C166 616 164 617 163 617 C160 617 158 615 158 613 C158 612 160 609 162 606 L269 463 L436 606 C441 610 443 612 443 614 C443 615 441 617 440 617 C439 617 437 616 435 615 L285 539 Z " />
<glyph glyph-name="Gcircumflex" unicode="&#x11c;" horiz-adv-x="666" d="M628 667 L614 667 L570 625 C523 661 478 677 422 677 C310 677 192 606 115 492 C67 420 38 324 38 237 C38 202 44 171 55 140 C92 41 165 -10 268 -10 C339 -10 406 14 464 61 C505 94 531 135 560 212 L630 212 L634 230 L341 230 L337 212 L446 212 C433 153 425 128 413 105 C381 44 325 10 257 10 C175 10 131 53 131 132 C131 225 192 482 231 555 C266 620 330 657 408 657 C510 657 566 594 572 471 L586 471 L628 667 Z M441 769 L578 721 C579 720 580 720 582 720 C586 720 588 722 588 724 C588 725 587 727 583 730 L455 838 L281 730 C276 727 274 725 274 723 C274 721 275 720 278 720 C280 720 281 720 283 721 L441 769 Z " />
<glyph glyph-name="gcircumflex" unicode="&#x11d;" horiz-adv-x="459" d="M399 340 C398 326 408 315 422 315 C445 315 463 335 463 361 C463 380 449 391 425 391 C401 391 383 382 345 353 C313 385 285 397 237 397 C129 397 42 322 42 227 C42 192 52 171 80 144 C40 118 19 104 16 102 C-21 71 -41 35 -41 -1 C-41 -36 -23 -57 19 -69 C-49 -96 -78 -127 -78 -175 C-78 -233 -11 -274 84 -274 C174 -274 251 -240 299 -178 C329 -141 346 -94 346 -51 C346 2 320 18 238 18 L67 18 C24 18 3 28 3 48 C3 73 32 100 94 133 C123 121 141 117 170 117 C280 117 368 193 368 288 C368 308 365 321 354 343 C370 356 380 361 389 361 C396 361 401 356 400 350 L399 340 Z M276 228 C261 156 240 137 178 137 C134 137 114 151 114 182 C114 191 117 208 121 228 L133 288 C148 356 173 377 239 377 C275 377 296 362 296 336 C296 328 294 312 290 293 L276 228 Z M63 -70 L99 -70 L218 -70 C292 -70 302 -74 302 -101 C302 -121 290 -150 271 -173 C230 -225 168 -254 99 -254 C29 -254 -12 -223 -12 -168 C-12 -131 5 -101 43 -70 L63 -70 Z M274 541 L391 465 C393 464 395 463 396 463 C399 463 401 465 401 467 C401 468 399 471 397 474 L290 617 L123 474 C118 471 116 468 116 466 C116 465 118 463 119 463 C120 463 122 464 124 465 L274 541 Z " />
<glyph glyph-name="Gbreve" unicode="&#x11e;" horiz-adv-x="666" d="M628 667 L614 667 L570 625 C523 661 478 677 422 677 C310 677 192 606 115 492 C67 420 38 324 38 237 C38 202 44 171 55 140 C92 41 165 -10 268 -10 C339 -10 406 14 464 61 C505 94 531 135 560 212 L630 212 L634 230 L341 230 L337 212 L446 212 C433 153 425 128 413 105 C381 44 325 10 257 10 C175 10 131 53 131 132 C131 225 192 482 231 555 C266 620 330 657 408 657 C510 657 566 594 572 471 L586 471 L628 667 Z M589 838 C577 819 570 811 558 803 C533 784 490 774 440 774 C391 774 352 785 334 803 C326 811 322 820 318 838 L304 838 L304 830 C304 767 356 722 429 722 C506 722 576 768 603 838 L589 838 Z " />
<glyph glyph-name="gbreve" unicode="&#x11f;" horiz-adv-x="459" d="M399 340 C398 326 408 315 422 315 C445 315 463 335 463 361 C463 380 449 391 425 391 C401 391 383 382 345 353 C313 385 285 397 237 397 C129 397 42 322 42 227 C42 192 52 171 80 144 C40 118 19 104 16 102 C-21 71 -41 35 -41 -1 C-41 -36 -23 -57 19 -69 C-49 -96 -78 -127 -78 -175 C-78 -233 -11 -274 84 -274 C174 -274 251 -240 299 -178 C329 -141 346 -94 346 -51 C346 2 320 18 238 18 L67 18 C24 18 3 28 3 48 C3 73 32 100 94 133 C123 121 141 117 170 117 C280 117 368 193 368 288 C368 308 365 321 354 343 C370 356 380 361 389 361 C396 361 401 356 400 350 L399 340 Z M276 228 C261 156 240 137 178 137 C134 137 114 151 114 182 C114 191 117 208 121 228 L133 288 C148 356 173 377 239 377 C275 377 296 362 296 336 C296 328 294 312 290 293 L276 228 Z M63 -70 L99 -70 L218 -70 C292 -70 302 -74 302 -101 C302 -121 290 -150 271 -173 C230 -225 168 -254 99 -254 C29 -254 -12 -223 -12 -168 C-12 -131 5 -101 43 -70 L63 -70 Z M407 610 C393 580 384 568 369 554 C346 534 307 521 268 521 C229 521 195 534 181 554 C172 567 168 580 167 610 L155 610 C154 598 154 593 154 587 C154 516 196 467 256 467 C325 467 388 523 419 610 L407 610 Z " />
<glyph glyph-name="Gdotaccent" unicode="&#x120;" horiz-adv-x="666" d="M628 667 L614 667 L570 625 C523 661 478 677 422 677 C310 677 192 606 115 492 C67 420 38 324 38 237 C38 202 44 171 55 140 C92 41 165 -10 268 -10 C339 -10 406 14 464 61 C505 94 531 135 560 212 L630 212 L634 230 L341 230 L337 212 L446 212 C433 153 425 128 413 105 C381 44 325 10 257 10 C175 10 131 53 131 132 C131 225 192 482 231 555 C266 620 330 657 408 657 C510 657 566 594 572 471 L586 471 L628 667 Z M456 827 C424 827 393 797 393 765 C393 742 411 725 434 725 C467 725 497 755 497 787 C497 810 480 827 456 827 L456 827 Z " />
<glyph glyph-name="gdotaccent" unicode="&#x121;" horiz-adv-x="459" d="M399 340 C398 326 408 315 422 315 C445 315 463 335 463 361 C463 380 449 391 425 391 C401 391 383 382 345 353 C313 385 285 397 237 397 C129 397 42 322 42 227 C42 192 52 171 80 144 C40 118 19 104 16 102 C-21 71 -41 35 -41 -1 C-41 -36 -23 -57 19 -69 C-49 -96 -78 -127 -78 -175 C-78 -233 -11 -274 84 -274 C174 -274 251 -240 299 -178 C329 -141 346 -94 346 -51 C346 2 320 18 238 18 L67 18 C24 18 3 28 3 48 C3 73 32 100 94 133 C123 121 141 117 170 117 C280 117 368 193 368 288 C368 308 365 321 354 343 C370 356 380 361 389 361 C396 361 401 356 400 350 L399 340 Z M276 228 C261 156 240 137 178 137 C134 137 114 151 114 182 C114 191 117 208 121 228 L133 288 C148 356 173 377 239 377 C275 377 296 362 296 336 C296 328 294 312 290 293 L276 228 Z M63 -70 L99 -70 L218 -70 C292 -70 302 -74 302 -101 C302 -121 290 -150 271 -173 C230 -225 168 -254 99 -254 C29 -254 -12 -223 -12 -168 C-12 -131 5 -101 43 -70 L63 -70 Z M282 587 C250 587 219 557 219 526 C219 502 236 485 260 485 C293 485 323 515 323 547 C323 570 306 587 282 587 L282 587 Z " />
<glyph glyph-name="Gcommaaccent" unicode="&#x122;" horiz-adv-x="666" d="M628 667 L614 667 L570 625 C523 661 478 677 422 677 C310 677 192 606 115 492 C67 420 38 324 38 237 C38 202 44 171 55 140 C92 41 165 -10 268 -10 C339 -10 406 14 464 61 C505 94 531 135 560 212 L630 212 L634 230 L341 230 L337 212 L446 212 C433 153 425 128 413 105 C381 44 325 10 257 10 C175 10 131 53 131 132 C131 225 192 482 231 555 C266 620 330 657 408 657 C510 657 566 594 572 471 L586 471 L628 667 Z M177 -278 C256 -228 296 -176 296 -124 C296 -82 270 -54 231 -54 C190 -54 155 -88 155 -127 C155 -149 170 -163 194 -163 C224 -163 243 -144 247 -109 C263 -117 270 -127 270 -145 C270 -180 239 -216 167 -266 L177 -278 Z " />
<glyph glyph-name="gcommaaccent" unicode="&#x123;" horiz-adv-x="459" d="M399 340 C398 326 408 315 422 315 C445 315 463 335 463 361 C463 380 449 391 425 391 C401 391 383 382 345 353 C313 385 285 397 237 397 C129 397 42 322 42 227 C42 192 52 171 80 144 C40 118 19 104 16 102 C-21 71 -41 35 -41 -1 C-41 -36 -23 -57 19 -69 C-49 -96 -78 -127 -78 -175 C-78 -233 -11 -274 84 -274 C174 -274 251 -240 299 -178 C329 -141 346 -94 346 -51 C346 2 320 18 238 18 L67 18 C24 18 3 28 3 48 C3 73 32 100 94 133 C123 121 141 117 170 117 C280 117 368 193 368 288 C368 308 365 321 354 343 C370 356 380 361 389 361 C396 361 401 356 400 350 L399 340 Z M276 228 C261 156 240 137 178 137 C134 137 114 151 114 182 C114 191 117 208 121 228 L133 288 C148 356 173 377 239 377 C275 377 296 362 296 336 C296 328 294 312 290 293 L276 228 Z M63 -70 L99 -70 L218 -70 C292 -70 302 -74 302 -101 C302 -121 290 -150 271 -173 C230 -225 168 -254 99 -254 C29 -254 -12 -223 -12 -168 C-12 -131 5 -101 43 -70 L63 -70 Z M309 659 C235 612 197 563 197 514 C197 475 222 448 258 448 C296 448 330 480 330 516 C330 537 316 550 293 550 C265 550 247 533 243 500 C228 507 222 517 222 534 C222 566 250 600 318 648 L309 659 Z " />
<glyph glyph-name="Hcircumflex" unicode="&#x124;" horiz-adv-x="745" d="M525 330 L459 18 L356 18 L352 0 L639 0 L643 18 L552 18 L686 649 L777 649 L781 667 L494 667 L490 649 L593 649 L529 348 L222 348 L286 649 L389 649 L393 667 L106 667 L102 649 L193 649 L59 18 L-32 18 L-36 0 L251 0 L255 18 L152 18 L218 330 L525 330 Z M465 769 L602 721 C603 720 604 720 606 720 C610 720 612 722 612 724 C612 725 611 727 607 730 L479 838 L305 730 C300 727 298 725 298 723 C298 721 299 720 302 720 C304 720 305 720 307 721 L465 769 Z " />
<glyph glyph-name="Hbar" unicode="&#x126;" horiz-adv-x="745" d="M156 475 L59 18 L-32 18 L-36 0 L251 0 L255 18 L152 18 L218 330 L525 330 L459 18 L356 18 L352 0 L639 0 L643 18 L552 18 L649 475 L720 475 L724 493 L653 493 L686 649 L777 649 L781 667 L494 667 L490 649 L593 649 L560 493 L253 493 L286 649 L389 649 L393 667 L106 667 L102 649 L193 649 L160 493 L89 493 L85 475 L156 475 Z M249 475 L556 475 L529 348 L222 348 L249 475 Z " />
<glyph glyph-name="hbar" unicode="&#x127;" horiz-adv-x="548" d="M213 556 L236 667 L90 667 L86 649 L156 649 L136 556 L66 556 L61 532 L131 532 L22 18 L-48 18 L-52 0 L169 0 L172 18 L99 18 L132 177 C146 241 160 280 181 308 C213 349 260 374 309 374 C352 374 373 357 373 324 C373 314 371 299 369 286 L312 18 L242 18 L238 0 L458 0 L462 18 L388 18 L445 286 C448 298 449 310 449 323 C449 371 411 397 337 397 C270 397 226 379 164 327 L208 532 L347 532 L352 556 L213 556 Z " />
<glyph glyph-name="Imacron" unicode="&#x12a;" horiz-adv-x="350" d="M59 18 L-32 18 L-36 0 L244 0 L248 18 L152 18 L286 649 L382 649 L386 667 L106 667 L102 649 L193 649 L59 18 Z M403 749 L410 779 L130 779 L123 749 L403 749 Z " />
<glyph glyph-name="imacron" unicode="&#x12b;" horiz-adv-x="278" d="M201 387 L50 387 L46 369 L120 369 L46 18 L-28 18 L-32 0 L189 0 L192 18 L122 18 L201 387 Z M284 499 L290 523 L55 523 L49 499 L284 499 Z " />
<glyph glyph-name="ibreve" unicode="&#x12d;" horiz-adv-x="278" d="M201 387 L50 387 L46 369 L120 369 L46 18 L-28 18 L-32 0 L189 0 L192 18 L122 18 L201 387 Z M328 610 C314 580 305 568 290 554 C267 534 229 521 189 521 C150 521 116 534 102 554 C93 567 89 580 88 610 L76 610 C75 598 75 593 75 587 C75 516 117 467 177 467 C246 467 309 523 340 610 L328 610 Z " />
<glyph glyph-name="Iogonek" unicode="&#x12e;" horiz-adv-x="350" d="M244 0 L248 18 L152 18 L286 649 L382 649 L386 667 L106 667 L102 649 L193 649 L59 18 L-32 18 L-36 0 L146 0 C59 -27 18 -62 18 -110 C18 -142 45 -162 90 -162 C123 -162 149 -156 182 -141 L185 -127 C161 -135 146 -137 125 -137 C91 -137 74 -125 74 -100 C74 -62 105 -30 171 0 L244 0 Z " />
<glyph glyph-name="iogonek" unicode="&#x12f;" horiz-adv-x="278" d="M189 0 L192 18 L122 18 L201 387 L50 387 L46 369 L120 369 L46 18 L-28 18 L-32 0 L110 0 C30 -28 -10 -64 -10 -107 C-10 -140 16 -159 61 -159 C92 -159 115 -153 148 -138 L151 -124 C128 -132 114 -134 93 -134 C60 -134 44 -122 44 -98 C44 -61 74 -30 138 0 L189 0 Z M211 654 C177 654 145 623 145 590 C145 565 163 547 188 547 C222 547 254 578 254 612 C254 636 236 654 211 654 L211 654 Z " />
<glyph glyph-name="Idotaccent" unicode="&#x130;" horiz-adv-x="350" d="M59 18 L-32 18 L-36 0 L244 0 L248 18 L152 18 L286 649 L382 649 L386 667 L106 667 L102 649 L193 649 L59 18 Z M280 827 C248 827 217 797 217 766 C217 742 234 725 258 725 C291 725 321 755 321 787 C321 810 304 827 280 827 L280 827 Z " />
<glyph glyph-name="dotlessi" unicode="&#x131;" horiz-adv-x="278" d="M201 387 L50 387 L46 369 L120 369 L46 18 L-28 18 L-32 0 L189 0 L192 18 L122 18 L201 387 Z " />
<glyph glyph-name="Kcommaaccent" unicode="&#x136;" horiz-adv-x="689" d="M59 18 L-32 18 L-36 0 L244 0 L248 18 L152 18 L286 649 L382 649 L386 667 L106 667 L102 649 L193 649 L59 18 Z M344 407 L623 649 L711 649 L715 667 L493 667 L489 649 L591 649 L248 353 L441 18 L347 18 L344 0 L618 0 L622 18 L568 18 L344 407 Z M182 -278 C261 -228 301 -176 301 -124 C301 -82 275 -54 236 -54 C195 -54 160 -88 160 -127 C160 -149 175 -163 199 -163 C229 -163 248 -144 252 -109 C268 -117 275 -127 275 -145 C275 -180 245 -215 172 -266 L182 -278 Z " />
<glyph glyph-name="kcommaaccent" unicode="&#x137;" horiz-adv-x="514" d="M240 667 L90 667 L86 649 L160 649 L26 18 L-48 18 L-52 0 L169 0 L172 18 L102 18 L240 667 Z M252 250 L412 369 L482 369 L486 387 L281 387 L277 369 L377 369 L166 214 L281 18 L224 18 L220 0 L443 0 L447 18 L396 18 L252 250 Z M110 -265 C184 -218 222 -169 222 -120 C222 -80 198 -54 161 -54 C122 -54 89 -86 89 -122 C89 -143 103 -156 125 -156 C154 -156 171 -139 175 -106 C191 -113 197 -123 197 -140 C197 -172 169 -206 100 -254 L110 -265 Z " />
<glyph glyph-name="Lacute" unicode="&#x139;" horiz-adv-x="595" d="M482 0 L540 205 L526 205 C460 55 416 17 307 18 L152 18 L286 649 L382 649 L386 667 L106 667 L102 649 L193 649 L59 18 L-32 18 L-36 0 L482 0 Z M410 833 L259 731 C254 728 252 725 252 723 C252 721 254 719 256 719 C257 719 259 720 262 721 L503 814 C513 818 518 822 518 827 C518 831 514 833 506 833 L410 833 Z " />
<glyph glyph-name="lacute" unicode="&#x13a;" horiz-adv-x="258" d="M241 667 L80 667 L76 649 L160 649 L26 18 L-58 18 L-62 0 L180 0 L183 18 L103 18 L241 667 Z M318 833 L167 731 C163 728 161 725 161 723 C161 721 163 719 165 719 C166 719 168 720 171 721 L412 814 C423 818 427 822 427 827 C427 831 423 833 415 833 L318 833 Z " />
<glyph glyph-name="Lcommaaccent" unicode="&#x13b;" horiz-adv-x="595" d="M482 0 L540 205 L526 205 C460 55 416 17 307 18 L152 18 L286 649 L382 649 L386 667 L106 667 L102 649 L193 649 L59 18 L-32 18 L-36 0 L482 0 Z M166 -278 C245 -228 285 -176 285 -124 C285 -82 259 -54 220 -54 C179 -54 143 -88 143 -127 C143 -149 158 -163 182 -163 C212 -163 231 -144 235 -109 C252 -117 259 -127 259 -145 C259 -180 228 -215 155 -266 L166 -278 Z " />
<glyph glyph-name="lcommaaccent" unicode="&#x13c;" horiz-adv-x="258" d="M241 667 L80 667 L76 649 L160 649 L26 18 L-58 18 L-62 0 L180 0 L183 18 L103 18 L241 667 Z M-6 -265 C68 -218 106 -169 106 -120 C106 -80 82 -54 45 -54 C6 -54 -27 -86 -27 -122 C-27 -143 -13 -156 9 -156 C38 -156 55 -139 59 -106 C75 -113 81 -123 81 -140 C81 -172 53 -206 -16 -254 L-6 -265 Z " />
<glyph glyph-name="Lcaron" unicode="&#x13d;" horiz-adv-x="595" d="M482 0 L540 205 L526 205 C460 55 416 17 307 18 L152 18 L286 649 L382 649 L386 667 L106 667 L102 649 L193 649 L59 18 L-32 18 L-36 0 L482 0 Z M411 444 C490 494 530 545 530 597 C530 639 504 667 465 667 C424 667 389 633 389 595 C389 573 404 559 428 559 C458 559 476 577 481 612 C497 605 504 594 504 577 C504 542 474 506 401 455 L411 444 Z " />
<glyph glyph-name="lcaron" unicode="&#x13e;" horiz-adv-x="342" d="M241 667 L80 667 L76 649 L160 649 L26 18 L-58 18 L-62 0 L180 0 L183 18 L103 18 L241 667 Z M369 581 L369 579 C369 549 338 514 272 467 L281 457 C356 504 394 552 394 601 C394 641 369 667 333 667 C294 667 260 635 260 599 C260 578 274 565 297 565 C325 565 343 583 347 615 C362 609 368 600 369 582 L369 581 Z " />
<glyph glyph-name="Ldot" unicode="&#x13f;" horiz-adv-x="595" d="M482 0 L540 205 L526 205 C460 55 416 17 307 18 L152 18 L286 649 L382 649 L386 667 L106 667 L102 649 L193 649 L59 18 L-32 18 L-36 0 L482 0 Z M357 369 C325 369 294 339 294 308 C294 284 311 267 335 267 C368 267 398 297 398 329 C398 352 381 369 357 369 L357 369 Z " />
<glyph glyph-name="ldot" unicode="&#x140;" horiz-adv-x="304" d="M241 667 L80 667 L76 649 L160 649 L26 18 L-58 18 L-62 0 L180 0 L183 18 L103 18 L241 667 Z M268 369 C235 369 205 339 205 308 C205 284 222 267 245 267 C278 267 308 297 308 329 C308 352 291 369 268 369 L268 369 Z " />
<glyph glyph-name="Lslash" unicode="&#x141;" horiz-adv-x="595" d="M112 269 L59 18 L-32 18 L-36 0 L482 0 L540 205 L526 205 C460 55 416 17 307 18 L152 18 L217 324 L432 455 L437 480 L223 349 L286 649 L382 649 L386 667 L106 667 L102 649 L193 649 L117 294 L13 228 L7 203 L112 269 Z " />
<glyph glyph-name="lslash" unicode="&#x142;" horiz-adv-x="258" d="M97 351 L5 293 L-1 268 L92 326 L27 18 L-58 18 L-62 0 L180 0 L183 18 L103 18 L177 367 L274 425 L279 450 L183 392 L241 667 L80 667 L76 649 L161 649 L97 351 Z " />
<glyph glyph-name="Nacute" unicode="&#x143;" horiz-adv-x="712" d="M514 0 L530 0 L668 649 L745 649 L749 667 L556 667 L552 649 L644 649 L546 185 L318 667 L96 667 L92 649 L183 649 L49 18 L-42 18 L-46 0 L168 0 L171 18 L72 18 L205 644 L514 0 Z M557 833 L406 731 C401 727 399 725 399 723 C399 721 401 719 403 719 C404 719 406 720 409 721 L650 814 C660 818 665 822 665 827 C665 831 661 833 654 833 L557 833 Z " />
<glyph glyph-name="nacute" unicode="&#x144;" horiz-adv-x="549" d="M197 387 L50 387 L46 369 L116 369 L42 18 L-28 18 L-32 0 L189 0 L192 18 L119 18 L152 178 C168 250 181 287 201 314 C225 349 276 374 320 374 C354 374 375 356 375 326 C375 316 374 303 371 292 L313 18 L243 18 L239 0 L460 0 L463 18 L390 18 L442 265 C446 282 448 301 448 313 C448 363 403 397 336 397 C281 397 237 378 185 330 L197 387 Z M412 613 L286 470 C285 469 284 467 284 466 C284 465 286 463 287 463 C288 463 288 463 292 466 L478 595 C484 599 488 604 488 607 C488 611 485 613 477 613 L412 613 Z " />
<glyph glyph-name="Ncommaaccent" unicode="&#x145;" horiz-adv-x="712" d="M514 0 L530 0 L668 649 L745 649 L749 667 L556 667 L552 649 L644 649 L546 185 L318 667 L96 667 L92 649 L183 649 L49 18 L-42 18 L-46 0 L168 0 L171 18 L72 18 L205 644 L514 0 Z M216 -278 C295 -228 335 -176 335 -124 C335 -82 309 -54 270 -54 C229 -54 194 -88 194 -127 C194 -149 209 -163 233 -163 C263 -163 281 -144 285 -109 C302 -117 309 -127 309 -145 C309 -180 279 -215 206 -266 L216 -278 Z " />
<glyph glyph-name="ncommaaccent" unicode="&#x146;" horiz-adv-x="549" d="M197 387 L50 387 L46 369 L116 369 L42 18 L-28 18 L-32 0 L189 0 L192 18 L119 18 L152 178 C168 250 181 287 201 314 C225 349 276 374 320 374 C354 374 375 356 375 326 C375 316 374 303 371 292 L313 18 L243 18 L239 0 L460 0 L463 18 L390 18 L442 265 C446 282 448 301 448 313 C448 363 403 397 336 397 C281 397 237 378 185 330 L197 387 Z M142 -265 C217 -218 255 -169 255 -120 C255 -80 230 -54 194 -54 C155 -54 121 -86 121 -122 C121 -143 135 -156 158 -156 C186 -156 204 -139 208 -106 C224 -113 230 -123 230 -140 C230 -172 202 -206 133 -254 L142 -265 Z " />
<glyph glyph-name="Ncaron" unicode="&#x147;" horiz-adv-x="712" d="M514 0 L530 0 L668 649 L745 649 L749 667 L556 667 L552 649 L644 649 L546 185 L318 667 L96 667 L92 649 L183 649 L49 18 L-42 18 L-46 0 L168 0 L171 18 L72 18 L205 644 L514 0 Z M464 789 L327 838 L323 838 C319 838 317 837 317 834 C317 833 318 832 322 829 L450 720 L624 829 C629 831 631 833 631 835 C630 838 630 838 627 838 L622 838 L464 789 Z " />
<glyph glyph-name="ncaron" unicode="&#x148;" horiz-adv-x="549" d="M197 387 L50 387 L46 369 L116 369 L42 18 L-28 18 L-32 0 L189 0 L192 18 L119 18 L152 178 C168 250 181 287 201 314 C225 349 276 374 320 374 C354 374 375 356 375 326 C375 316 374 303 371 292 L313 18 L243 18 L239 0 L460 0 L463 18 L390 18 L442 265 C446 282 448 301 448 313 C448 363 403 397 336 397 C281 397 237 378 185 330 L197 387 Z M334 539 L217 615 C215 616 213 617 212 617 C209 617 207 615 207 613 C207 612 208 609 211 606 L318 463 L486 606 C491 610 493 612 493 614 C493 615 491 617 490 617 C488 617 486 616 484 615 L334 539 Z " />
<glyph glyph-name="Omacron" unicode="&#x14c;" horiz-adv-x="693" d="M423 677 C221 677 40 473 40 244 C40 95 136 -10 273 -10 C472 -10 655 197 655 422 C655 570 558 677 423 677 L423 677 Z M415 657 C506 657 563 608 563 529 C563 495 551 424 528 317 C498 182 490 154 468 115 C430 49 359 10 275 10 C186 10 131 60 131 140 C131 171 136 207 148 267 C189 463 202 513 226 553 C265 619 334 657 415 657 L415 657 Z M595 749 L602 779 L282 779 L275 749 L595 749 Z " />
<glyph glyph-name="omacron" unicode="&#x14d;" horiz-adv-x="494" d="M264 397 C130 397 8 279 8 151 C8 58 77 -10 172 -10 C306 -10 427 107 427 236 C427 329 359 397 264 397 L264 397 Z M324 169 C311 108 300 74 286 56 C263 27 223 10 177 10 C124 10 87 36 87 73 C87 90 93 132 101 169 L111 218 C120 262 134 309 142 322 C162 356 206 377 256 377 C310 377 348 351 348 314 C348 293 343 260 334 218 L324 169 Z M419 499 L424 523 L151 523 L146 499 L419 499 Z " />
<glyph glyph-name="Ohungarumlaut" unicode="&#x150;" horiz-adv-x="694" d="M423 677 C221 677 40 473 40 244 C40 95 136 -10 273 -10 C472 -10 655 197 655 422 C655 570 558 677 423 677 L423 677 Z M415 657 C506 657 563 608 563 529 C563 495 551 424 528 317 C498 182 490 154 468 115 C430 49 359 10 275 10 C186 10 131 60 131 140 C131 171 136 207 148 267 C189 463 202 513 226 553 C265 619 334 657 415 657 L415 657 Z M640 833 L506 731 C500 727 499 726 499 723 C499 721 500 720 502 720 C504 720 507 720 509 721 L716 813 C728 819 732 822 732 827 C732 831 728 833 720 833 L640 833 Z M467 833 L333 731 C327 727 326 725 326 723 C326 721 327 720 329 720 C331 720 334 720 336 721 L544 813 C555 818 559 822 559 827 C559 831 555 833 547 833 L467 833 Z " />
<glyph glyph-name="ohungarumlaut" unicode="&#x151;" horiz-adv-x="494" d="M264 397 C130 397 8 279 8 151 C8 58 77 -10 172 -10 C306 -10 427 107 427 236 C427 329 359 397 264 397 L264 397 Z M324 169 C311 108 300 74 286 56 C263 27 223 10 177 10 C124 10 87 36 87 73 C87 90 93 132 101 169 L111 218 C120 262 134 309 142 322 C162 356 206 377 256 377 C310 377 348 351 348 314 C348 293 343 260 334 218 L324 169 Z M476 613 L350 470 C348 468 347 467 347 465 C347 464 348 463 349 463 C351 463 354 464 356 466 L535 595 C541 599 545 604 545 607 C545 611 542 613 534 613 L476 613 Z M332 613 L206 470 C204 468 204 467 204 465 C204 464 205 463 205 463 C207 463 210 464 212 466 L391 595 C397 599 401 604 401 607 C401 611 398 613 391 613 L332 613 Z " />
<glyph glyph-name="OE" unicode="&#x152;" horiz-adv-x="968" d="M955 667 L532 667 C495 675 476 677 449 677 C232 677 40 477 40 251 C40 166 69 98 127 48 C172 8 228 -10 301 -10 C331 -10 351 -8 390 0 L836 0 L902 208 L888 208 C846 124 823 90 787 55 C749 23 734 19 650 18 L506 18 L572 329 L619 329 C691 329 718 308 718 255 C718 242 717 232 715 221 L710 198 L724 198 L782 472 L768 472 L764 453 C745 374 713 349 626 347 L576 347 L640 649 L731 649 C876 650 912 618 916 486 L930 486 L955 667 Z M415 30 C366 14 343 10 301 10 C190 10 135 55 135 145 C135 207 143 262 168 360 C201 491 216 536 236 565 C274 622 352 657 437 657 C473 657 495 653 544 639 L415 30 Z " />
<glyph glyph-name="oe" unicode="&#x153;" horiz-adv-x="760" d="M656 130 C624 55 559 10 483 10 C429 10 397 38 397 86 C397 99 400 120 407 151 L423 228 L701 228 C704 243 705 251 705 261 C705 339 644 397 563 397 C503 397 446 372 402 327 C377 370 323 397 263 397 C131 397 8 278 8 151 C8 58 78 -10 173 -10 C237 -10 300 16 346 60 C372 16 423 -10 482 -10 C567 -10 643 44 677 130 L656 130 Z M324 169 C311 108 299 74 286 56 C263 27 223 10 177 10 C124 10 86 36 86 73 C86 94 91 128 99 169 L110 218 C123 278 134 313 148 330 C170 360 210 377 256 377 C309 377 347 350 347 313 C347 290 343 258 334 218 L324 169 Z M610 246 L427 246 L434 280 C448 346 485 377 550 377 C601 377 623 360 623 322 C623 313 622 300 619 289 L610 246 Z " />
<glyph glyph-name="Racute" unicode="&#x154;" horiz-adv-x="676" d="M222 345 L288 345 C337 345 379 332 396 312 C407 299 413 278 413 253 C413 240 412 227 409 214 L398 165 C394 143 391 120 391 104 C391 36 434 -5 505 -5 C531 -5 551 -1 579 12 L578 29 C554 19 544 16 530 16 C508 16 490 34 490 56 L490 60 L491 73 C491 79 494 91 497 108 L509 163 C512 176 513 189 513 203 C513 244 500 278 474 302 C448 328 420 339 355 350 C456 361 505 379 554 425 C591 459 610 499 610 545 C610 585 591 619 559 638 C520 661 485 667 391 667 L106 667 L102 649 L193 649 L59 18 L-32 18 L-36 0 L251 0 L255 18 L152 18 L222 345 Z M225 363 L286 649 L365 649 C425 649 469 636 488 614 C500 599 506 577 506 548 C506 491 485 440 450 409 C416 378 365 363 297 363 L225 363 Z M503 833 L352 731 C347 728 345 725 345 723 C345 721 347 719 349 719 C350 719 352 720 355 721 L596 814 C606 818 611 822 611 827 C611 831 607 833 599 833 L503 833 Z " />
<glyph glyph-name="racute" unicode="&#x155;" horiz-adv-x="371" d="M197 387 L50 387 L46 369 L116 369 L42 18 L-28 18 L-32 0 L189 0 L192 18 L119 18 L143 134 C161 219 176 258 207 305 C231 341 254 360 272 360 C279 360 284 356 284 351 C284 349 284 346 283 344 C282 337 281 328 281 323 C281 305 292 294 310 294 C340 294 364 322 364 355 C364 382 346 397 315 397 C262 397 226 369 176 287 L197 387 Z M346 613 L220 470 C219 468 218 467 218 466 C218 465 220 463 221 463 C222 463 222 463 226 466 L412 595 C418 599 422 604 422 607 C422 611 419 613 412 613 L346 613 Z " />
<glyph glyph-name="Rcommaaccent" unicode="&#x156;" horiz-adv-x="676" d="M222 345 L288 345 C337 345 379 332 396 312 C407 299 413 278 413 253 C413 240 412 227 409 214 L398 165 C394 143 391 120 391 104 C391 36 434 -5 505 -5 C531 -5 551 -1 579 12 L578 29 C554 19 544 16 530 16 C508 16 490 34 490 56 L490 60 L491 73 C491 79 494 91 497 108 L509 163 C512 176 513 189 513 203 C513 244 500 278 474 302 C448 328 420 339 355 350 C456 361 505 379 554 425 C591 459 610 499 610 545 C610 585 591 619 559 638 C520 661 485 667 391 667 L106 667 L102 649 L193 649 L59 18 L-32 18 L-36 0 L251 0 L255 18 L152 18 L222 345 Z M225 363 L286 649 L365 649 C425 649 469 636 488 614 C500 599 506 577 506 548 C506 491 485 440 450 409 C416 378 365 363 297 363 L225 363 Z M179 -278 C258 -228 298 -176 298 -124 C298 -82 272 -54 233 -54 C192 -54 156 -88 156 -127 C156 -149 171 -163 195 -163 C225 -163 244 -144 248 -109 C265 -117 272 -127 272 -145 C272 -180 241 -215 168 -266 L179 -278 Z " />
<glyph glyph-name="rcommaaccent" unicode="&#x157;" horiz-adv-x="371" d="M197 387 L50 387 L46 369 L116 369 L42 18 L-28 18 L-32 0 L189 0 L192 18 L119 18 L143 134 C161 219 176 258 207 305 C231 341 254 360 272 360 C279 360 284 356 284 351 C284 349 284 346 283 344 C282 337 281 328 281 323 C281 305 292 294 310 294 C340 294 364 322 364 355 C364 382 346 397 315 397 C262 397 226 369 176 287 L197 387 Z M5 -265 C79 -218 117 -169 117 -120 C117 -80 93 -54 56 -54 C17 -54 -16 -86 -16 -122 C-16 -143 -2 -156 20 -156 C49 -156 66 -139 71 -106 C86 -113 92 -123 92 -140 C92 -172 64 -205 -5 -254 L5 -265 Z " />
<glyph glyph-name="Rcaron" unicode="&#x158;" horiz-adv-x="676" d="M222 345 L288 345 C337 345 379 332 396 312 C407 299 413 278 413 253 C413 240 412 227 409 214 L398 165 C394 143 391 120 391 104 C391 36 434 -5 505 -5 C531 -5 551 -1 579 12 L578 29 C554 19 544 16 530 16 C508 16 490 34 490 56 L490 60 L491 73 C491 79 494 91 497 108 L509 163 C512 176 513 189 513 203 C513 244 500 278 474 302 C448 328 420 339 355 350 C456 361 505 379 554 425 C591 459 610 499 610 545 C610 585 591 619 559 638 C520 661 485 667 391 667 L106 667 L102 649 L193 649 L59 18 L-32 18 L-36 0 L251 0 L255 18 L152 18 L222 345 Z M225 363 L286 649 L365 649 C425 649 469 636 488 614 C500 599 506 577 506 548 C506 491 485 440 450 409 C416 378 365 363 297 363 L225 363 Z M423 789 L286 838 L282 838 C278 838 276 837 276 834 C276 833 277 831 280 829 L408 720 L583 829 C588 832 590 834 590 835 C589 838 589 838 585 838 L581 838 L423 789 Z " />
<glyph glyph-name="rcaron" unicode="&#x159;" horiz-adv-x="371" d="M197 387 L50 387 L46 369 L116 369 L42 18 L-28 18 L-32 0 L189 0 L192 18 L119 18 L143 134 C161 219 176 258 207 305 C231 341 254 360 272 360 C279 360 284 356 284 351 C284 349 284 346 283 344 C282 337 281 328 281 323 C281 305 292 294 310 294 C340 294 364 322 364 355 C364 382 346 397 315 397 C262 397 226 369 176 287 L197 387 Z M256 539 L138 615 C137 616 135 617 134 617 C131 617 129 615 129 613 C129 612 131 609 133 606 L240 463 L407 606 C412 610 414 612 414 614 C414 615 412 617 411 617 C410 617 408 616 406 615 L256 539 Z " />
<glyph glyph-name="Sacute" unicode="&#x15a;" horiz-adv-x="527" d="M510 676 L496 676 L454 633 C415 663 376 677 328 677 C204 677 91 562 91 437 C91 371 127 333 210 310 L287 290 C364 269 394 241 394 190 C394 91 309 10 205 10 C109 10 44 77 44 176 C44 183 44 191 45 207 L24 207 L-13 0 L1 0 L50 56 C94 8 134 -10 196 -10 C274 -10 340 23 390 86 C432 139 457 207 457 269 C457 343 418 386 326 409 L273 423 C184 446 152 470 152 514 C152 589 231 657 318 657 C401 657 454 606 454 526 L454 503 L475 503 L510 676 Z M463 833 L312 731 C307 728 305 725 305 723 C305 721 307 719 309 719 C310 719 312 720 315 721 L556 814 C566 818 571 822 571 827 C571 831 567 833 559 833 L463 833 Z " />
<glyph glyph-name="sacute" unicode="&#x15b;" horiz-adv-x="374" d="M329 395 L315 395 L293 359 C261 386 235 397 198 397 C115 397 45 331 45 252 C45 203 70 174 121 164 L199 148 C237 141 255 125 255 99 C255 54 199 10 141 10 C88 10 47 44 37 96 C34 112 33 122 33 148 L15 148 L-16 0 L-5 0 L27 38 C63 2 89 -10 132 -10 C221 -10 296 64 296 153 C296 207 268 234 201 248 L156 257 C103 267 82 279 82 298 C82 339 134 377 188 377 C232 377 269 354 281 320 C286 308 287 300 287 280 L304 280 L329 395 Z M322 613 L196 470 C193 468 193 467 193 466 C193 465 195 463 196 463 C197 463 198 464 201 466 L387 595 C394 599 398 604 398 607 C398 611 394 613 387 613 L322 613 Z " />
<glyph glyph-name="Scircumflex" unicode="&#x15c;" horiz-adv-x="527" d="M510 676 L496 676 L454 633 C415 663 376 677 328 677 C204 677 91 562 91 437 C91 371 127 333 210 310 L287 290 C364 269 394 241 394 190 C394 91 309 10 205 10 C109 10 44 77 44 176 C44 183 44 191 45 207 L24 207 L-13 0 L1 0 L50 56 C94 8 134 -10 196 -10 C274 -10 340 23 390 86 C432 139 457 207 457 269 C457 343 418 386 326 409 L273 423 C184 446 152 470 152 514 C152 589 231 657 318 657 C401 657 454 606 454 526 L454 503 L475 503 L510 676 Z M366 769 L503 721 C505 720 506 720 507 720 C511 720 513 722 513 724 C513 726 511 728 509 730 L381 838 L207 730 C202 727 200 725 200 723 C200 721 201 720 204 720 C205 720 207 720 208 721 L366 769 Z " />
<glyph glyph-name="scircumflex" unicode="&#x15d;" horiz-adv-x="374" d="M329 395 L315 395 L293 359 C261 386 235 397 198 397 C115 397 45 331 45 252 C45 203 70 174 121 164 L199 148 C237 141 255 125 255 99 C255 54 199 10 141 10 C88 10 47 44 37 96 C34 112 33 122 33 148 L15 148 L-16 0 L-5 0 L27 38 C63 2 89 -10 132 -10 C221 -10 296 64 296 153 C296 207 268 234 201 248 L156 257 C103 267 82 279 82 298 C82 339 134 377 188 377 C232 377 269 354 281 320 C286 308 287 300 287 280 L304 280 L329 395 Z M249 541 L366 465 C368 464 369 463 371 463 C373 463 376 465 376 467 C376 468 375 470 372 474 L265 617 L97 474 C92 470 90 468 90 466 C90 465 92 463 93 463 C94 463 96 464 99 465 L249 541 Z " />
<glyph glyph-name="Scedilla" unicode="&#x15e;" horiz-adv-x="527" d="M198 -10 C254 -9 303 8 344 40 C412 93 457 185 457 269 C457 343 417 386 326 409 L273 423 C184 446 152 470 152 514 C152 589 231 657 318 657 C401 657 454 606 454 526 L454 503 L475 503 L510 676 L496 676 L454 633 C415 663 376 677 328 677 C204 677 91 562 91 437 C91 371 127 333 210 310 L287 290 C364 269 394 241 394 190 C394 91 309 10 205 10 C109 10 44 77 44 176 C44 183 44 191 45 207 L24 207 L-13 0 L1 0 L50 56 C86 15 125 -5 178 -9 L149 -67 C183 -75 198 -87 198 -109 C198 -140 166 -165 126 -165 C104 -165 84 -157 84 -147 C84 -145 85 -141 86 -139 C91 -128 91 -126 91 -118 C91 -107 87 -101 81 -101 C70 -101 63 -112 63 -129 C63 -160 93 -181 136 -181 C200 -181 260 -143 260 -101 C260 -74 234 -58 189 -58 L173 -58 L198 -10 Z " />
<glyph glyph-name="scedilla" unicode="&#x15f;" horiz-adv-x="374" d="M138 -10 C227 -5 296 66 296 153 C296 207 268 234 201 248 L156 257 C103 267 82 279 82 298 C82 339 134 377 188 377 C232 377 269 354 281 320 C286 308 287 300 287 280 L304 280 L329 395 L315 395 L293 359 C261 386 235 397 198 397 C115 397 45 331 45 252 C45 203 70 174 121 164 L199 148 C237 141 255 125 255 99 C255 54 199 10 141 10 C88 10 47 44 37 96 C34 112 33 122 33 148 L15 148 L-16 0 L-5 0 L27 38 C58 6 81 -6 119 -10 L92 -65 C125 -73 138 -84 138 -105 C138 -135 108 -160 71 -160 C49 -160 30 -152 30 -143 L31 -135 C36 -125 36 -123 36 -113 C36 -103 33 -98 26 -98 C17 -98 10 -109 10 -125 C10 -155 38 -176 79 -176 C140 -176 197 -139 197 -98 C197 -71 173 -56 130 -56 L115 -56 L138 -10 Z " />
<glyph glyph-name="Scaron" unicode="&#x160;" horiz-adv-x="527" d="M362 789 L225 838 L221 838 C217 838 215 837 215 834 C215 833 216 832 220 829 L348 720 L522 829 C527 831 529 833 529 835 C528 838 528 838 525 838 L520 838 L362 789 Z M510 676 L496 676 L454 633 C415 663 376 677 328 677 C204 677 91 562 91 437 C91 371 127 333 210 310 L287 290 C364 269 394 241 394 190 C394 91 309 10 205 10 C109 10 44 77 44 176 C44 183 44 191 45 207 L24 207 L-13 0 L1 0 L50 56 C94 8 134 -10 196 -10 C274 -10 340 23 390 86 C432 139 457 207 457 269 C457 343 418 386 326 409 L273 423 C184 446 152 470 152 514 C152 589 231 657 318 657 C401 657 454 606 454 526 L454 503 L475 503 L510 676 Z " />
<glyph glyph-name="scaron" unicode="&#x161;" horiz-adv-x="374" d="M329 395 L315 395 L293 359 C261 386 235 397 198 397 C115 397 45 331 45 252 C45 203 70 174 121 164 L199 148 C237 141 255 125 255 99 C255 54 199 10 141 10 C88 10 47 44 37 96 C34 112 33 122 33 148 L15 148 L-16 0 L-5 0 L27 38 C63 2 89 -10 132 -10 C221 -10 296 64 296 153 C296 207 268 234 201 248 L156 257 C103 267 82 279 82 298 C82 339 134 377 188 377 C232 377 269 354 281 320 C286 308 287 300 287 280 L304 280 L329 395 Z M241 539 L124 615 C122 616 121 617 119 617 C117 617 114 615 114 613 C114 612 115 610 118 606 L225 463 L393 606 C398 610 400 612 400 614 C400 615 398 617 397 617 C396 617 394 616 391 615 L241 539 Z " />
<glyph glyph-name="Tcommaaccent" unicode="&#x162;" horiz-adv-x="612" d="M417 649 L472 649 C568 647 599 605 611 457 L625 459 L655 667 L93 667 L41 459 L54 457 C86 531 109 566 151 607 C185 640 208 648 273 649 L324 649 L190 18 L85 18 L81 0 L389 0 L393 18 L283 18 L417 649 Z M167 -278 C246 -228 286 -176 286 -124 C286 -82 260 -54 221 -54 C180 -54 144 -88 144 -127 C144 -149 159 -163 183 -163 C213 -163 232 -144 236 -109 C253 -117 260 -127 260 -145 C260 -180 229 -216 156 -266 L167 -278 Z " />
<glyph glyph-name="tcommaaccent" unicode="&#x163;" horiz-adv-x="303" d="M177 369 L289 369 L292 387 L180 387 L214 546 L205 546 C169 478 88 402 31 384 L28 369 L100 369 L44 107 C39 83 37 69 37 59 C37 16 70 -10 125 -10 C184 -10 224 17 248 74 L227 74 C210 37 189 20 156 20 C128 20 113 33 113 55 C113 64 114 75 116 85 L177 369 Z M28 -265 C102 -218 140 -169 140 -120 C140 -80 115 -54 79 -54 C40 -54 7 -86 7 -122 C7 -143 21 -156 44 -156 C72 -156 89 -139 94 -106 C109 -113 115 -123 115 -140 C115 -172 87 -206 18 -254 L28 -265 Z " />
<glyph glyph-name="Tcaron" unicode="&#x164;" horiz-adv-x="612" d="M417 649 L472 649 C568 647 599 605 611 457 L625 459 L655 667 L93 667 L41 459 L54 457 C86 531 109 566 151 607 C185 640 208 648 273 649 L324 649 L190 18 L85 18 L81 0 L389 0 L393 18 L283 18 L417 649 Z M402 789 L265 838 L261 838 C257 838 255 837 255 834 C255 833 256 832 260 829 L388 720 L562 829 C567 831 569 833 569 835 C568 838 568 838 565 838 L560 838 L402 789 Z " />
<glyph glyph-name="tcaron" unicode="&#x165;" horiz-adv-x="342" d="M177 369 L289 369 L293 387 L181 387 L215 546 L205 546 C169 478 89 403 32 384 L29 369 L101 369 L45 107 C40 85 38 69 38 59 C38 15 71 -10 129 -10 C185 -10 225 18 249 74 L228 74 C211 36 189 20 157 20 C129 20 114 33 114 55 C114 65 115 75 117 85 L177 369 Z M279 457 C353 504 391 552 391 602 C391 641 367 667 330 667 C291 667 258 635 258 599 C258 578 272 565 294 565 C323 565 340 582 344 615 C360 608 366 598 366 582 C366 549 338 516 269 467 L279 457 Z " />
<glyph glyph-name="utilde" unicode="&#x169;" horiz-adv-x="537" d="M459 387 L308 387 L304 369 L378 369 L342 200 C326 125 303 72 278 51 C248 26 212 13 174 13 C134 13 115 29 115 64 C115 76 116 85 123 117 L180 387 L30 387 L26 369 L100 369 L49 131 C43 103 41 86 41 74 C41 21 82 -10 152 -10 C221 -10 264 9 313 60 L300 0 L447 0 L450 18 L380 18 L459 387 Z M469 572 C448 549 431 541 404 541 C391 541 377 544 363 549 L327 563 C307 571 296 573 280 573 C233 573 204 555 164 499 L172 493 C193 515 212 524 239 524 C255 524 271 521 287 515 L322 502 C338 496 356 492 369 492 C403 492 436 514 478 567 L469 572 Z " />
<glyph glyph-name="Umacron" unicode="&#x16a;" horiz-adv-x="674" d="M277 649 L368 649 L372 667 L92 667 L88 649 L184 649 L99 249 C89 204 84 166 84 141 C84 43 152 -10 278 -10 C343 -10 392 2 431 27 C492 67 523 120 545 222 L635 649 L714 649 L717 667 L532 667 L528 649 L612 649 L521 222 C504 138 492 111 460 76 C420 33 368 10 309 10 C224 10 171 54 171 126 C171 144 174 164 183 205 L277 649 Z M601 749 L608 779 L288 779 L281 749 L601 749 Z " />
<glyph glyph-name="umacron" unicode="&#x16b;" horiz-adv-x="537" d="M459 387 L308 387 L304 369 L378 369 L342 200 C326 125 303 72 278 51 C248 26 212 13 174 13 C134 13 115 29 115 64 C115 76 116 85 123 117 L180 387 L30 387 L26 369 L100 369 L49 131 C43 103 41 86 41 74 C41 21 82 -10 152 -10 C221 -10 264 9 313 60 L300 0 L447 0 L450 18 L380 18 L459 387 Z M440 499 L445 523 L172 523 L166 499 L440 499 Z " />
<glyph glyph-name="ubreve" unicode="&#x16d;" horiz-adv-x="537" d="M459 387 L308 387 L304 369 L378 369 L342 200 C326 125 303 72 278 51 C248 26 212 13 174 13 C134 13 115 29 115 64 C115 76 116 85 123 117 L180 387 L30 387 L26 369 L100 369 L49 131 C43 103 41 86 41 74 C41 21 82 -10 152 -10 C221 -10 264 9 313 60 L300 0 L447 0 L450 18 L380 18 L459 387 Z M447 610 C433 580 424 568 409 554 C386 534 347 521 307 521 C268 521 235 534 221 554 C211 567 208 581 207 610 L195 610 C194 598 194 592 194 587 C194 516 236 467 296 467 C365 467 428 523 458 610 L447 610 Z " />
<glyph glyph-name="Uring" unicode="&#x16e;" horiz-adv-x="674" d="M277 649 L368 649 L372 667 L92 667 L88 649 L184 649 L99 249 C89 204 84 166 84 141 C84 43 152 -10 278 -10 C343 -10 392 2 431 27 C492 67 523 120 545 222 L635 649 L714 649 L717 667 L532 667 L528 649 L612 649 L521 222 C504 138 492 111 460 76 C420 33 368 10 309 10 C224 10 171 54 171 126 C171 144 174 164 183 205 L277 649 Z M476 859 C426 859 381 815 381 766 C381 731 406 707 442 707 C492 707 536 750 536 800 C536 834 510 859 476 859 L476 859 Z M469 832 C491 832 507 815 507 793 C507 763 477 734 447 734 C426 734 410 751 410 773 C410 802 440 832 469 832 L469 832 Z " />
<glyph glyph-name="uring" unicode="&#x16f;" horiz-adv-x="537" d="M459 387 L308 387 L304 369 L378 369 L342 200 C326 125 303 72 278 51 C248 26 212 13 174 13 C134 13 115 29 115 64 C115 76 116 85 123 117 L180 387 L30 387 L26 369 L100 369 L49 131 C43 103 41 86 41 74 C41 21 82 -10 152 -10 C221 -10 264 9 313 60 L300 0 L447 0 L450 18 L380 18 L459 387 Z M337 615 C288 615 243 571 243 522 C243 487 268 463 303 463 C354 463 397 506 397 556 C397 590 372 615 337 615 L337 615 Z M331 588 C352 588 368 571 368 549 C368 519 339 490 309 490 C288 490 272 507 272 529 C272 558 301 588 331 588 L331 588 Z " />
<glyph glyph-name="Uhungarumlaut" unicode="&#x170;" horiz-adv-x="674" d="M277 649 L368 649 L372 667 L92 667 L88 649 L184 649 L99 249 C89 204 84 166 84 141 C84 43 152 -10 278 -10 C343 -10 392 2 431 27 C492 67 523 120 545 222 L635 649 L714 649 L717 667 L532 667 L528 649 L612 649 L521 222 C504 138 492 111 460 76 C420 33 368 10 309 10 C224 10 171 54 171 126 C171 144 174 164 183 205 L277 649 Z M629 833 L495 731 C489 726 488 726 488 723 C488 721 489 720 491 720 C493 720 496 720 498 721 L706 813 C717 818 721 822 721 827 C721 831 717 833 709 833 L629 833 Z M456 833 L322 731 C316 726 315 725 315 723 C315 721 316 720 318 720 C320 720 323 720 325 721 L533 813 C544 818 548 822 548 827 C548 831 544 833 536 833 L456 833 Z " />
<glyph glyph-name="uhungarumlaut" unicode="&#x171;" horiz-adv-x="537" d="M459 387 L308 387 L304 369 L378 369 L342 200 C326 125 303 72 278 51 C248 26 212 13 174 13 C134 13 115 29 115 64 C115 76 116 85 123 117 L180 387 L30 387 L26 369 L100 369 L49 131 C43 103 41 86 41 74 C41 21 82 -10 152 -10 C221 -10 264 9 313 60 L300 0 L447 0 L450 18 L380 18 L459 387 Z M478 613 L352 470 C350 468 349 467 349 466 C349 464 350 463 351 463 C353 463 356 464 358 466 L537 595 C543 599 547 604 547 607 C547 611 544 613 536 613 L478 613 Z M334 613 L208 470 C206 468 205 467 205 466 C205 464 206 463 207 463 C209 463 212 464 214 466 L393 595 C399 599 403 604 403 607 C403 611 400 613 392 613 L334 613 Z " />
<glyph glyph-name="Uogonek" unicode="&#x172;" horiz-adv-x="674" d="M421 -127 C397 -134 382 -137 362 -137 C328 -137 311 -125 311 -100 C311 -63 338 -33 412 15 C490 62 522 112 545 222 L635 649 L714 649 L717 667 L532 667 L528 649 L612 649 L521 222 C504 138 492 111 460 76 C420 33 368 10 309 10 C224 10 171 54 171 126 C171 144 174 164 183 205 L277 649 L368 649 L372 667 L92 667 L88 649 L184 649 L99 249 C89 204 84 166 84 141 C84 43 152 -10 280 -10 C306 -10 332 -8 353 -4 C283 -38 254 -69 254 -110 C254 -142 281 -162 326 -162 C360 -162 385 -156 418 -141 L421 -127 Z " />
<glyph glyph-name="uogonek" unicode="&#x173;" horiz-adv-x="537" d="M447 0 L450 18 L380 18 L459 387 L308 387 L304 369 L378 369 L342 200 C326 125 303 72 278 51 C248 26 212 13 174 13 C134 13 115 29 115 64 C115 76 116 85 123 117 L180 387 L30 387 L26 369 L100 369 L49 131 C43 103 41 86 41 74 C41 21 82 -10 152 -10 C221 -10 264 9 313 60 L300 0 L368 0 C288 -28 248 -64 248 -107 C248 -140 274 -159 319 -159 C349 -159 373 -153 405 -138 L408 -124 C385 -132 371 -134 351 -134 C318 -134 302 -122 302 -98 C302 -61 332 -30 395 0 L447 0 Z " />
<glyph glyph-name="Wcircumflex" unicode="&#x174;" horiz-adv-x="823" d="M550 143 L499 431 L627 649 L685 649 L689 667 L60 667 L56 649 L118 649 L222 -10 L241 -10 L421 292 L469 -10 L488 -10 L847 649 L904 649 L908 667 L731 667 L727 649 L823 649 L550 143 Z M224 649 L360 649 L414 325 L302 135 L224 649 Z M466 649 L599 649 L494 467 L466 649 Z M526 769 L663 721 C665 720 666 720 667 720 C671 720 673 722 673 724 C673 726 672 727 669 730 L541 838 L366 730 C360 726 359 725 359 723 C359 721 360 720 363 720 C365 720 367 720 368 721 L526 769 Z " />
<glyph glyph-name="Ycircumflex" unicode="&#x176;" horiz-adv-x="579" d="M339 312 L595 649 L667 649 L671 667 L471 667 L467 649 L569 649 L341 353 L224 649 L317 649 L321 667 L50 667 L46 649 L106 649 L246 312 L183 18 L78 18 L74 0 L382 0 L386 18 L277 18 L339 312 Z M401 769 L538 721 C539 720 541 720 542 720 C546 720 548 722 548 724 C548 726 547 727 543 730 L415 838 L241 730 C236 727 234 725 234 723 C234 721 235 720 238 720 C240 720 241 720 243 721 L401 769 Z " />
<glyph glyph-name="ycircumflex" unicode="&#x177;" horiz-adv-x="434" d="M212 94 L150 369 L221 369 L225 387 L12 387 L8 369 L57 369 L155 -6 L65 -161 C42 -201 35 -208 21 -208 C14 -208 10 -206 7 -200 C-6 -180 -14 -174 -33 -174 C-63 -174 -89 -201 -89 -232 C-89 -257 -70 -274 -41 -274 C4 -274 40 -244 83 -170 L396 369 L442 369 L446 387 L300 387 L296 369 L369 369 L212 94 Z M278 541 L396 465 C397 464 399 463 400 463 C403 463 405 465 405 467 C405 468 403 472 401 474 L294 617 L127 474 C122 470 120 468 120 466 C120 465 122 463 123 463 C124 463 126 464 128 465 L278 541 Z " />
<glyph glyph-name="Ydieresis" unicode="&#x178;" horiz-adv-x="579" d="M297 823 C266 823 237 795 237 765 C237 743 253 727 276 727 C307 727 336 755 336 785 C336 807 320 823 297 823 L297 823 Z M519 823 C488 823 459 795 459 765 C459 743 475 727 498 727 C529 727 558 755 558 785 C558 807 542 823 519 823 L519 823 Z M339 312 L595 649 L667 649 L671 667 L471 667 L467 649 L569 649 L341 353 L224 649 L317 649 L321 667 L50 667 L46 649 L106 649 L246 312 L183 18 L78 18 L74 0 L382 0 L386 18 L277 18 L339 312 Z " />
<glyph glyph-name="Zacute" unicode="&#x179;" horiz-adv-x="586" d="M468 0 L532 208 L518 208 C445 54 396 13 283 18 L80 18 L629 667 L157 667 L93 464 L107 464 C172 604 221 648 310 649 L502 649 L-34 24 L-39 0 L468 0 Z M503 833 L352 731 C347 728 345 725 345 723 C345 721 347 719 349 719 C350 719 352 720 355 721 L596 814 C606 818 611 822 611 827 C611 831 607 833 599 833 L503 833 Z " />
<glyph glyph-name="zacute" unicode="&#x17a;" horiz-adv-x="421" d="M313 0 L351 164 L337 164 C283 41 257 19 165 18 L71 18 L405 387 L76 387 L41 238 L55 238 C112 350 135 367 228 369 L290 369 L-39 0 L313 0 Z M353 613 L227 470 C224 467 224 467 224 466 C224 465 226 463 227 463 C228 463 229 464 232 466 L418 595 C425 599 429 604 429 607 C429 611 425 613 418 613 L353 613 Z " />
<glyph glyph-name="Zdotaccent" unicode="&#x17b;" horiz-adv-x="586" d="M468 0 L532 208 L518 208 C445 54 396 13 283 18 L80 18 L629 667 L157 667 L93 464 L107 464 C172 604 221 648 310 649 L502 649 L-34 24 L-39 0 L468 0 Z M430 827 C398 827 367 797 367 766 C367 742 384 725 408 725 C441 725 471 755 471 787 C471 810 454 827 430 827 L430 827 Z " />
<glyph glyph-name="zdotaccent" unicode="&#x17c;" horiz-adv-x="421" d="M313 0 L351 164 L337 164 C283 41 257 19 165 18 L71 18 L405 387 L76 387 L41 238 L55 238 C112 350 135 367 228 369 L290 369 L-39 0 L313 0 Z M286 587 C254 587 223 557 223 526 C223 502 240 485 264 485 C297 485 327 515 327 547 C327 570 310 587 286 587 L286 587 Z " />
<glyph glyph-name="Zcaron" unicode="&#x17d;" horiz-adv-x="586" d="M423 789 L286 838 L282 838 C278 838 276 837 276 834 C276 833 277 831 280 829 L408 720 L583 829 C588 832 590 834 590 835 C589 838 589 838 585 838 L581 838 L423 789 Z M468 0 L532 208 L518 208 C445 54 396 13 283 18 L80 18 L629 667 L157 667 L93 464 L107 464 C172 604 221 648 310 649 L502 649 L-34 24 L-39 0 L468 0 Z " />
<glyph glyph-name="zcaron" unicode="&#x17e;" horiz-adv-x="421" d="M280 539 L163 615 C161 616 159 617 158 617 C155 617 153 615 153 613 C153 612 155 609 157 606 L264 463 L432 606 C436 609 438 612 438 614 C438 615 436 617 435 617 C434 617 432 616 430 615 L280 539 Z M313 0 L351 164 L337 164 C283 41 257 19 165 18 L71 18 L405 387 L76 387 L41 238 L55 238 C112 350 135 367 228 369 L290 369 L-39 0 L313 0 Z " />
<glyph glyph-name="florin" unicode="&#x192;" horiz-adv-x="525" d="M280 302 L371 302 L378 320 L287 320 L345 459 C403 597 455 660 512 660 C522 660 528 657 528 650 C528 646 526 643 519 640 C498 627 491 619 491 605 C491 589 503 579 522 579 C554 579 580 604 580 634 C580 660 556 677 519 677 C420 677 315 575 247 413 L208 320 L117 320 L110 302 L201 302 L64 -27 C3 -172 -9 -196 -42 -230 C-63 -251 -88 -263 -113 -263 C-126 -263 -136 -258 -136 -252 C-136 -248 -133 -244 -126 -237 C-115 -226 -109 -215 -109 -207 C-109 -194 -121 -183 -136 -183 C-163 -183 -187 -208 -187 -236 C-187 -264 -162 -280 -120 -280 C-65 -280 -13 -252 38 -193 C87 -137 125 -69 178 59 L280 302 Z " />
<glyph glyph-name="uni01CD" unicode="&#x1cd;" horiz-adv-x="636" d="M359 214 L387 18 L288 18 L284 0 L570 0 L573 18 L493 18 L402 667 L374 667 L-3 18 L-70 18 L-74 0 L112 0 L116 18 L23 18 L136 214 L359 214 Z M356 232 L147 232 L314 527 L356 232 Z M415 789 L278 838 L274 838 C270 838 268 837 268 834 C268 833 269 831 272 829 L400 720 L574 829 C581 832 582 834 582 835 C581 838 581 838 577 838 L573 838 L415 789 Z " />
<glyph glyph-name="uni01CE" unicode="&#x1ce;" horiz-adv-x="443" d="M261 215 C221 214 196 212 177 209 C123 202 69 182 39 159 C6 132 -14 97 -14 63 C-14 17 21 -10 79 -10 C141 -10 185 14 231 71 C230 63 230 54 230 49 C230 10 251 -10 292 -10 C315 -10 328 -5 366 18 L359 30 C344 19 335 15 324 15 C310 15 302 22 302 33 L302 35 L305 57 L352 282 C355 295 357 310 357 320 C357 368 311 397 237 397 C147 397 61 344 61 289 C61 270 73 257 91 257 C116 257 139 280 139 305 C139 312 136 320 129 329 C125 334 123 339 123 341 C123 358 180 380 222 380 C262 380 287 363 286 338 C286 331 285 323 283 315 L261 215 Z M251 167 C242 123 233 99 217 79 C193 49 157 30 123 30 C89 30 66 50 66 80 C66 107 77 132 98 151 C133 184 177 198 258 200 L251 167 Z M278 539 L161 615 C159 616 158 617 156 617 C154 617 151 615 151 613 C151 612 152 610 155 606 L262 463 L430 606 C435 610 437 612 437 614 C437 615 435 617 434 617 C432 617 431 616 428 615 L278 539 Z " />
<glyph glyph-name="uni01D3" unicode="&#x1d3;" horiz-adv-x="674" d="M277 649 L368 649 L372 667 L92 667 L88 649 L184 649 L99 249 C89 204 84 166 84 141 C84 43 152 -10 278 -10 C343 -10 392 2 431 27 C492 67 523 120 545 222 L635 649 L714 649 L717 667 L532 667 L528 649 L612 649 L521 222 C504 138 492 111 460 76 C420 33 368 10 309 10 C224 10 171 54 171 126 C171 144 174 164 183 205 L277 649 Z M462 789 L324 838 L320 838 C316 838 314 837 314 834 C314 833 315 832 319 829 L447 720 L621 829 C625 831 628 833 628 835 C627 838 627 838 624 838 L619 838 L462 789 Z " />
<glyph glyph-name="uni01D4" unicode="&#x1d4;" horiz-adv-x="537" d="M459 387 L308 387 L304 369 L378 369 L342 200 C326 125 303 72 278 51 C248 26 212 13 174 13 C134 13 115 29 115 64 C115 76 116 85 123 117 L180 387 L30 387 L26 369 L100 369 L49 131 C43 103 41 86 41 74 C41 21 82 -10 152 -10 C221 -10 264 9 313 60 L300 0 L447 0 L450 18 L380 18 L459 387 Z M322 539 L205 615 C203 616 201 617 200 617 C197 617 195 615 195 613 C195 612 197 609 199 606 L306 463 L473 606 C478 609 480 612 480 614 C480 615 478 617 477 617 C476 617 474 616 472 615 L322 539 Z " />
<glyph glyph-name="Gcaron" unicode="&#x1e6;" horiz-adv-x="666" d="M628 667 L614 667 L570 625 C523 661 478 677 422 677 C310 677 192 606 115 492 C67 420 38 324 38 237 C38 202 44 171 55 140 C92 41 165 -10 268 -10 C339 -10 406 14 464 61 C505 94 531 135 560 212 L630 212 L634 230 L341 230 L337 212 L446 212 C433 153 425 128 413 105 C381 44 325 10 257 10 C175 10 131 53 131 132 C131 225 192 482 231 555 C266 620 330 657 408 657 C510 657 566 594 572 471 L586 471 L628 667 Z M443 789 L305 838 L301 838 C297 838 295 836 295 834 C295 833 296 832 300 829 L428 720 L602 829 C607 832 609 833 609 835 C609 837 608 838 605 838 L600 838 L443 789 Z " />
<glyph glyph-name="gcaron" unicode="&#x1e7;" horiz-adv-x="459" d="M399 340 C398 326 408 315 422 315 C445 315 463 335 463 361 C463 380 449 391 425 391 C401 391 383 382 345 353 C313 385 285 397 237 397 C129 397 42 322 42 227 C42 192 52 171 80 144 C40 118 19 104 16 102 C-21 71 -41 35 -41 -1 C-41 -36 -23 -57 19 -69 C-49 -96 -78 -127 -78 -175 C-78 -233 -11 -274 84 -274 C174 -274 251 -240 299 -178 C329 -141 346 -94 346 -51 C346 2 320 18 238 18 L67 18 C24 18 3 28 3 48 C3 73 32 100 94 133 C123 121 141 117 170 117 C280 117 368 193 368 288 C368 308 365 321 354 343 C370 356 380 361 389 361 C396 361 401 356 400 350 L399 340 Z M276 228 C261 156 240 137 178 137 C134 137 114 151 114 182 C114 191 117 208 121 228 L133 288 C148 356 173 377 239 377 C275 377 296 362 296 336 C296 328 294 312 290 293 L276 228 Z M63 -70 L99 -70 L218 -70 C292 -70 302 -74 302 -101 C302 -121 290 -150 271 -173 C230 -225 168 -254 99 -254 C29 -254 -12 -223 -12 -168 C-12 -131 5 -101 43 -70 L63 -70 Z M271 539 L154 615 C152 616 151 617 149 617 C147 617 144 615 144 613 C144 612 145 610 148 606 L255 463 L423 606 C428 610 430 612 430 614 C430 615 428 617 427 617 C425 617 423 616 421 615 L271 539 Z " />
<glyph glyph-name="Scommaaccent" unicode="&#x218;" horiz-adv-x="527" d="M510 676 L496 676 L454 633 C415 663 376 677 328 677 C204 677 91 562 91 437 C91 371 127 333 210 310 L287 290 C364 269 394 241 394 190 C394 91 309 10 205 10 C109 10 44 77 44 176 C44 183 44 191 45 207 L24 207 L-13 0 L1 0 L50 56 C94 8 134 -10 196 -10 C274 -10 340 23 390 86 C432 139 457 207 457 269 C457 343 418 386 326 409 L273 423 C184 446 152 470 152 514 C152 589 231 657 318 657 C401 657 454 606 454 526 L454 503 L475 503 L510 676 Z M120 -278 C199 -228 239 -176 239 -124 C239 -82 213 -54 174 -54 C133 -54 97 -88 97 -127 C97 -149 112 -163 136 -163 C166 -163 185 -144 189 -109 C206 -117 213 -127 213 -145 C213 -180 182 -216 110 -266 L120 -278 Z " />
<glyph glyph-name="scommaaccent" unicode="&#x219;" horiz-adv-x="374" d="M329 395 L315 395 L293 359 C261 386 235 397 198 397 C115 397 45 331 45 252 C45 203 70 174 121 164 L199 148 C237 141 255 125 255 99 C255 54 199 10 141 10 C88 10 47 44 37 96 C34 112 33 122 33 148 L15 148 L-16 0 L-5 0 L27 38 C63 2 89 -10 132 -10 C221 -10 296 64 296 153 C296 207 268 234 201 248 L156 257 C103 267 82 279 82 298 C82 339 134 377 188 377 C232 377 269 354 281 320 C286 308 287 300 287 280 L304 280 L329 395 Z M52 -265 C126 -218 164 -169 164 -120 C164 -80 140 -54 103 -54 C64 -54 31 -86 31 -122 C31 -143 45 -156 67 -156 C96 -156 113 -139 117 -106 C133 -113 139 -123 139 -140 C139 -172 111 -206 42 -254 L52 -265 Z " />
<glyph glyph-name="uni021A" unicode="&#x21a;" horiz-adv-x="612" d="M417 649 L472 649 C568 647 599 605 611 457 L625 459 L655 667 L93 667 L41 459 L54 457 C86 531 109 566 151 607 C185 640 208 648 273 649 L324 649 L190 18 L85 18 L81 0 L389 0 L393 18 L283 18 L417 649 Z M167 -278 C246 -228 286 -176 286 -124 C286 -82 260 -54 221 -54 C180 -54 144 -88 144 -127 C144 -149 159 -163 183 -163 C213 -163 232 -144 236 -109 C253 -117 260 -127 260 -145 C260 -180 229 -216 156 -266 L167 -278 Z " />
<glyph glyph-name="uni021B" unicode="&#x21b;" horiz-adv-x="303" d="M177 369 L289 369 L292 387 L180 387 L214 546 L205 546 C169 478 88 402 31 384 L28 369 L100 369 L44 107 C39 83 37 69 37 59 C37 16 70 -10 125 -10 C184 -10 224 17 248 74 L227 74 C210 37 189 20 156 20 C128 20 113 33 113 55 C113 64 114 75 116 85 L177 369 Z M28 -265 C102 -218 140 -169 140 -120 C140 -80 115 -54 79 -54 C40 -54 7 -86 7 -122 C7 -143 21 -156 44 -156 C72 -156 89 -139 94 -106 C109 -113 115 -123 115 -140 C115 -172 87 -206 18 -254 L28 -265 Z " />
<glyph glyph-name="circumflex" unicode="&#x2c6;" horiz-adv-x="511" d="M300 541 L417 465 C419 464 420 463 422 463 C424 463 426 465 426 467 C426 469 424 472 423 474 L316 617 L148 474 C143 470 141 468 141 466 C141 465 143 463 144 463 C145 463 147 464 150 465 L300 541 Z " />
<glyph glyph-name="caron" unicode="&#x2c7;" horiz-adv-x="511" d="M299 539 L182 615 C180 616 178 617 177 617 C174 617 172 615 172 613 C172 612 173 609 176 606 L283 463 L451 606 C455 609 457 612 457 614 C457 615 455 617 454 617 C453 617 451 616 449 615 L299 539 Z " />
<glyph glyph-name="uni02C9" unicode="&#x2c9;" horiz-adv-x="511" d="M427 499 L432 523 L159 523 L154 499 L427 499 Z " />
<glyph glyph-name="breve" unicode="&#x2d8;" horiz-adv-x="512" d="M435 610 C421 580 412 568 397 554 C374 534 335 521 296 521 C257 521 223 534 209 554 C200 567 196 580 195 610 L183 610 C182 598 182 593 182 587 C182 516 224 467 284 467 C353 467 416 523 447 610 L435 610 Z " />
<glyph glyph-name="dotaccent" unicode="&#x2d9;" horiz-adv-x="520" d="M314 587 C282 587 251 557 251 525 C251 502 268 485 292 485 C325 485 355 515 355 547 C355 570 338 587 314 587 L314 587 Z " />
<glyph glyph-name="ring" unicode="&#x2da;" horiz-adv-x="517" d="M320 615 C270 615 225 571 225 522 C225 487 250 463 286 463 C336 463 380 506 380 556 C380 590 354 615 320 615 L320 615 Z M313 588 C335 588 351 571 351 549 C351 519 321 490 291 490 C270 490 254 507 254 529 C254 558 284 588 313 588 L313 588 Z " />
<glyph glyph-name="ogonek" unicode="&#x2db;" horiz-adv-x="525" d="M329 0 C248 -29 209 -64 209 -107 C209 -140 235 -159 280 -159 C310 -159 334 -153 366 -138 L369 -124 C347 -132 332 -134 312 -134 C279 -134 263 -122 263 -98 C263 -61 293 -30 356 0 L329 0 Z " />
<glyph glyph-name="tilde" unicode="&#x2dc;" horiz-adv-x="510" d="M446 572 C425 549 407 541 380 541 C367 541 354 544 340 549 L303 563 C284 571 273 573 257 573 C210 573 181 554 141 499 L149 493 C169 515 189 524 216 524 C232 524 247 521 263 515 L299 502 C315 496 333 492 345 492 C380 492 413 514 455 567 L446 572 Z " />
<glyph glyph-name="hungarumlaut" unicode="&#x2dd;" horiz-adv-x="517" d="M457 613 L331 470 C330 469 329 467 329 466 C329 464 330 463 331 463 C333 463 336 464 338 466 L516 595 C523 599 527 604 527 607 C527 611 524 613 516 613 L457 613 Z M314 613 L187 470 C186 468 185 467 185 465 C185 464 186 463 187 463 C189 463 192 464 194 466 L373 595 C379 599 383 604 383 607 C383 611 379 613 372 613 L314 613 Z " />
<glyph glyph-name="Wdieresis" unicode="&#x1e84;" horiz-adv-x="823" d="M550 143 L499 431 L627 649 L685 649 L689 667 L60 667 L56 649 L118 649 L222 -10 L241 -10 L421 292 L469 -10 L488 -10 L847 649 L904 649 L908 667 L731 667 L727 649 L823 649 L550 143 Z M224 649 L360 649 L414 325 L302 135 L224 649 Z M466 649 L599 649 L494 467 L466 649 Z M430 823 C399 823 370 795 370 765 C370 743 386 727 408 727 C440 727 468 755 468 785 C468 807 452 823 430 823 L430 823 Z M652 823 C621 823 592 795 592 765 C592 743 608 727 631 727 C662 727 691 755 691 785 C691 807 675 823 652 823 L652 823 Z " />
<glyph glyph-name="uni2011" unicode="&#x2011;" horiz-adv-x="198" d="M176 230 L-22 230 L-35 170 L163 170 L176 230 Z " />
<glyph glyph-name="figuredash" unicode="&#x2012;" horiz-adv-x="525" d="M459 230 L22 230 L9 170 L447 170 L459 230 Z " />
<glyph glyph-name="endash" unicode="&#x2013;" horiz-adv-x="525" d="M459 230 L22 230 L9 170 L447 170 L459 230 Z " />
<glyph glyph-name="emdash" unicode="&#x2014;" horiz-adv-x="595" d="M573 230 L-22 230 L-35 170 L560 170 L573 230 Z " />
<glyph glyph-name="afii00208" unicode="&#x2015;" horiz-adv-x="595" d="M573 230 L-22 230 L-35 170 L560 170 L573 230 Z " />
<glyph glyph-name="quoteleft" unicode="&#x2018;" horiz-adv-x="256" d="M223 687 C139 625 93 558 93 496 C93 453 119 423 157 423 C199 423 234 459 234 503 C234 527 221 542 198 542 C169 542 149 519 144 479 C127 489 121 500 121 521 C121 565 155 611 232 675 L223 687 Z " />
<glyph glyph-name="quoteright" unicode="&#x2019;" horiz-adv-x="256" d="M126 413 C210 475 255 542 255 605 C255 647 229 677 191 677 C149 677 114 641 114 597 C114 573 128 558 150 558 C179 558 199 581 205 621 C221 611 227 600 227 579 C227 535 194 489 116 425 L126 413 Z " />
<glyph glyph-name="quotesinglbase" unicode="&#x201a;" horiz-adv-x="263" d="M8 -152 C95 -90 142 -24 142 38 C142 82 114 112 74 112 C30 112 -6 76 -6 33 C-6 8 8 -7 32 -7 C63 -7 84 16 89 56 C108 46 115 34 115 11 C115 -30 78 -78 -2 -140 L8 -152 Z " />
<glyph glyph-name="quotedblleft" unicode="&#x201c;" horiz-adv-x="480" d="M446 687 C362 625 317 558 317 496 C317 453 343 423 381 423 C423 423 458 459 458 503 C458 527 444 542 422 542 C393 542 372 519 367 479 C351 489 345 500 345 521 C345 565 379 611 456 675 L446 687 Z M223 687 C139 625 93 558 93 496 C93 453 119 423 157 423 C199 423 234 459 234 503 C234 527 221 542 198 542 C169 542 149 519 144 479 C127 489 121 500 121 521 C121 565 155 611 232 675 L223 687 Z " />
<glyph glyph-name="quotedblright" unicode="&#x201d;" horiz-adv-x="480" d="M126 413 C210 475 255 542 255 605 C255 647 229 677 191 677 C149 677 114 641 114 597 C114 573 128 558 150 558 C179 558 199 581 205 621 C221 611 227 600 227 579 C227 535 194 489 116 425 L126 413 Z M349 413 C434 475 479 542 479 605 C479 647 453 677 415 677 C373 677 338 641 338 597 C338 573 352 558 373 558 C403 558 423 581 428 621 C445 611 451 600 451 579 C451 535 418 489 339 425 L349 413 Z " />
<glyph glyph-name="quotedblbase" unicode="&#x201e;" horiz-adv-x="487" d="M8 -152 C95 -90 142 -24 142 38 C142 82 114 112 74 112 C30 112 -6 76 -6 33 C-6 8 8 -7 32 -7 C63 -7 84 16 89 56 C108 46 115 34 115 11 C115 -30 78 -78 -2 -140 L8 -152 Z M232 -152 C319 -91 366 -24 366 38 C366 82 338 112 298 112 C254 112 218 76 218 33 C218 8 232 -7 256 -7 C287 -7 307 16 312 56 C332 46 339 34 339 13 C339 -31 304 -76 221 -140 L232 -152 Z " />
<glyph glyph-name="dagger" unicode="&#x2020;" horiz-adv-x="525" d="M280 376 L449 339 C455 337 458 337 468 337 C506 337 536 362 536 392 C536 414 517 429 488 429 C479 429 474 429 468 427 L283 388 L346 531 C364 570 374 610 374 638 C374 664 361 677 335 677 C317 677 299 668 291 656 C274 632 261 580 263 542 L264 531 L266 388 L98 427 C92 428 87 429 79 429 C41 429 11 404 11 374 C11 352 30 337 59 337 C70 337 72 337 79 339 L264 376 L152 17 C123 -70 114 -107 114 -140 C114 -169 130 -190 151 -190 C175 -190 202 -166 213 -135 C226 -98 232 -65 239 17 L280 376 Z " />
<glyph glyph-name="daggerdbl" unicode="&#x2021;" horiz-adv-x="525" d="M270 407 L101 446 C95 448 87 449 82 449 C44 449 14 424 14 393 C14 371 33 356 62 356 C70 356 76 356 83 358 L267 395 C257 356 238 309 208 255 C209 234 209 224 209 204 C209 188 209 188 206 113 L206 109 L38 148 C32 149 26 150 19 150 C-19 150 -49 125 -49 94 C-49 72 -30 57 -1 57 C3 57 12 58 19 59 L204 96 L145 -43 C115 -112 112 -123 112 -150 C112 -176 126 -190 151 -190 C176 -190 195 -177 207 -151 C218 -126 220 -113 220 -43 L220 96 L389 59 C396 58 403 57 408 57 C446 57 476 82 476 112 C476 135 457 150 428 150 C420 150 414 149 408 148 L224 109 C256 194 263 211 283 255 C280 283 279 298 279 323 C279 345 280 365 283 395 L452 358 C458 357 464 356 471 356 C509 356 539 381 539 411 C539 435 521 449 491 449 C487 449 478 448 471 446 L287 407 L342 531 C365 582 375 614 375 637 C375 663 361 677 336 677 C288 677 266 637 266 548 L266 541 L267 531 L270 407 Z " />
<glyph glyph-name="bullet" unicode="&#x2022;" horiz-adv-x="700" d="M383 480 C290 480 204 399 204 312 C204 247 253 200 320 200 C413 200 499 281 499 368 C499 433 450 480 383 480 L383 480 Z " />
<glyph glyph-name="ellipsis" unicode="&#x2026;" horiz-adv-x="777" d="M83 107 C45 107 9 74 9 39 C9 12 30 -7 57 -7 C96 -7 131 26 131 62 C131 87 110 107 83 107 L83 107 Z M342 107 C304 107 268 74 268 39 C268 12 289 -7 316 -7 C355 -7 390 26 390 62 C390 87 369 107 342 107 L342 107 Z M601 107 C563 107 527 74 527 39 C527 12 548 -7 575 -7 C614 -7 649 26 649 62 C649 87 628 107 601 107 L601 107 Z " />
<glyph glyph-name="perthousand" unicode="&#x2030;" horiz-adv-x="1057" d="M239 653 C149 653 58 550 58 448 C58 374 104 319 165 319 C256 319 346 421 346 523 C346 599 302 653 239 653 L239 653 Z M267 451 C249 366 224 337 171 337 C132 337 115 353 115 392 C115 406 118 425 123 451 L138 521 C156 606 181 635 234 635 C273 635 290 619 290 580 C290 567 287 549 281 521 L267 451 Z M601 647 L570 647 L117 0 L148 0 L601 647 Z M550 327 C459 327 367 225 367 123 C367 49 414 -6 476 -6 C567 -6 659 96 659 197 C659 273 614 327 550 327 L550 327 Z M579 126 C561 42 536 12 482 12 C442 12 424 29 424 67 C424 80 426 96 433 126 L448 196 C465 280 490 309 544 309 C585 309 602 292 602 253 C602 240 599 219 594 196 L579 126 Z M888 327 C798 327 707 224 707 123 C707 49 753 -6 814 -6 C904 -6 995 96 995 197 C995 273 951 327 888 327 L888 327 Z M915 126 C897 41 873 12 820 12 C781 12 764 29 764 67 C764 80 767 101 772 126 L787 196 C805 280 829 309 882 309 C921 309 938 293 938 254 C938 240 935 219 930 196 L915 126 Z " />
<glyph glyph-name="guilsinglleft" unicode="&#x2039;" horiz-adv-x="275" d="M21 200 L116 96 L168 96 L74 200 L213 304 L160 304 L21 200 Z " />
<glyph glyph-name="guilsinglright" unicode="&#x203a;" horiz-adv-x="274" d="M198 200 L103 304 L50 304 L144 200 L6 96 L59 96 L198 200 Z " />
<glyph glyph-name="uni203E" unicode="&#x203e;" horiz-adv-x="500" d="M110 847 L101 807 L601 807 L610 847 L110 847 Z " />
<glyph glyph-name="fraction" unicode="&#x2044;" horiz-adv-x="119" d="M302 647 L267 647 L-186 0 L-151 0 L302 647 Z " />
<glyph glyph-name="franc" unicode="&#x20a3;" horiz-adv-x="764" d="M604 667 L106 667 L102 649 L193 649 L59 18 L-32 18 L-36 0 L251 0 L255 18 L152 18 L218 329 L284 329 C359 329 385 310 385 255 C385 247 384 237 382 227 L377 205 L391 205 L448 475 L434 475 L431 457 C405 363 383 346 289 347 L222 347 L286 649 L409 649 C466 649 505 640 524 621 C549 596 564 554 564 508 C564 506 564 506 563 475 L577 475 L604 667 Z M608 361 L462 361 L458 343 L528 343 L459 18 L389 18 L385 0 L605 0 L609 18 L535 18 L555 109 C572 193 587 232 618 279 C642 314 665 334 683 334 C689 334 695 330 695 325 L695 318 C694 310 693 303 693 297 C693 280 704 268 722 268 C751 268 775 296 775 329 C775 355 757 371 726 371 C674 371 637 342 587 261 L608 361 Z " />
<glyph glyph-name="Euro" unicode="&#x20ac;" horiz-adv-x="743" d="M118 350 C116 340 114 332 113 330 C113 328 112 326 111 317 L62 317 L42 287 L106 287 C104 272 103 260 103 245 C103 100 204 -10 338 -10 C397 -10 450 7 526 50 L550 0 L564 0 L604 185 L590 185 C553 125 531 98 495 67 C452 31 394 10 339 10 C253 10 195 59 195 131 C195 160 203 220 217 287 L456 287 L475 317 L224 317 L224 320 L227 330 L229 340 L231 350 L498 350 L518 380 L238 380 C257 461 260 472 276 512 C311 606 384 657 483 657 C543 657 592 635 623 594 C644 566 652 542 655 494 L669 494 L706 667 L692 667 L647 617 C597 659 553 677 495 677 C338 677 187 555 127 380 L75 380 L55 350 L118 350 Z " />
<glyph glyph-name="trademark" unicode="&#x2122;" horiz-adv-x="858" d="M287 649 L315 649 C369 648 386 626 393 542 L409 544 L427 667 L93 667 L62 544 L77 542 C113 623 146 652 200 649 L225 649 L152 305 L91 305 L87 287 L274 287 L278 305 L214 305 L287 649 Z M556 287 L574 287 L763 625 L695 305 L639 305 L636 287 L806 287 L810 305 L757 305 L831 649 L883 649 L887 667 L764 667 L613 397 L579 667 L450 667 L446 649 L495 649 L422 305 L373 305 L370 287 L494 287 L498 305 L444 305 L512 628 L556 287 Z " />
<glyph glyph-name="uni2126" unicode="&#x2126;" horiz-adv-x="768" d="M326 0 L308 155 C230 199 180 288 180 383 C180 434 196 493 221 540 C257 605 316 642 385 642 C454 642 513 605 549 540 C575 493 590 435 590 381 C590 288 540 199 462 155 L444 0 L736 0 L736 153 L712 153 C704 108 684 90 643 90 L497 90 L500 128 C535 141 557 151 580 166 C657 215 702 296 702 382 C702 449 673 522 625 578 C564 648 480 686 385 686 C290 686 206 648 145 578 C97 522 68 448 68 382 C68 296 114 215 190 166 C213 151 234 141 270 128 L273 90 L127 90 C86 90 66 108 58 153 L34 153 L34 0 L326 0 Z " />
<glyph glyph-name="partialdiff" unicode="&#x2202;" horiz-adv-x="494" d="M107 674 C151 697 184 706 219 706 C321 706 379 611 379 448 C379 418 377 395 372 346 C308 396 272 412 221 412 C172 412 131 394 95 355 C51 309 26 246 26 184 C26 76 109 -10 213 -10 C282 -10 341 23 383 84 C429 152 462 286 462 403 C462 519 428 611 360 681 C312 730 259 753 194 753 C155 753 122 746 66 725 L107 674 Z M366 312 C350 201 340 158 314 107 C288 54 245 21 201 21 C147 21 113 74 113 159 C113 273 180 367 261 367 C299 367 324 354 366 312 L366 312 Z " />
<glyph glyph-name="Delta" unicode="&#x2206;" horiz-adv-x="612" d="M6 0 L608 0 L327 688 L6 0 Z M77 51 L290 509 L479 51 L77 51 Z " />
<glyph glyph-name="product" unicode="&#x220f;" horiz-adv-x="823" d="M25 -124 L315 -124 L315 -98 L312 -98 C242 -94 221 -67 224 18 L224 594 C224 656 228 677 242 690 C260 707 271 708 413 708 C557 708 567 707 586 690 C600 677 604 656 604 594 L604 18 C607 -67 586 -94 516 -98 L513 -98 L513 -124 L803 -124 L803 -98 L800 -98 C730 -94 709 -67 712 18 L712 609 C709 694 730 721 800 725 L803 725 L803 751 L25 751 L25 725 L28 725 C98 721 119 694 116 609 L116 18 C119 -67 98 -94 28 -98 L25 -98 L25 -124 Z " />
<glyph glyph-name="summation" unicode="&#x2211;" horiz-adv-x="713" d="M176 711 L444 711 C560 710 590 688 606 587 L632 587 L622 752 L23 752 L256 285 L14 -123 L641 -123 L695 87 L669 87 C639 7 605 -12 491 -11 L163 -11 L364 341 L176 711 Z " />
<glyph glyph-name="minus" unicode="&#x2212;" horiz-adv-x="525" d="M473 339 L55 339 L49 309 L466 309 L473 339 Z " />
<glyph glyph-name="uni2215" unicode="&#x2215;" horiz-adv-x="119" d="M302 647 L267 647 L-186 0 L-151 0 L302 647 Z " />
<glyph glyph-name="uni2219" unicode="&#x2219;" horiz-adv-x="259" d="M115 257 C77 257 41 224 41 189 C41 163 62 143 89 143 C128 143 163 176 163 212 C163 238 142 257 115 257 L115 257 Z " />
<glyph glyph-name="radical" unicode="&#x221a;" horiz-adv-x="549" d="M363 -35 L515 908 L480 913 L353 123 L156 520 L10 449 L26 414 L121 461 L363 -35 Z " />
<glyph glyph-name="infinity" unicode="&#x221e;" horiz-adv-x="713" d="M357 227 C415 156 485 115 549 115 C631 115 688 176 688 266 C688 354 629 414 543 414 C476 414 412 376 357 303 C300 375 234 414 171 414 C87 414 26 351 26 263 C26 176 84 115 167 115 C224 115 281 142 327 192 L357 227 Z M391 264 C434 325 493 362 546 362 C600 362 638 321 638 264 C638 205 603 167 549 167 C495 167 461 188 391 264 L391 264 Z M324 266 C276 204 215 167 163 167 C111 167 76 208 76 266 C76 323 113 362 167 362 C218 362 258 338 324 266 L324 266 Z " />
<glyph glyph-name="integral" unicode="&#x222b;" horiz-adv-x="274" d="M180 576 C180 653 179 691 176 746 C174 774 173 800 173 815 C173 855 184 878 202 878 C208 878 213 876 215 872 C232 845 239 839 256 839 C276 839 291 853 291 871 C291 898 267 916 231 916 C186 916 152 887 138 838 C123 784 113 682 113 577 L113 232 C113 160 114 124 117 63 C119 34 120 4 120 -12 C120 -47 108 -70 89 -70 C81 -70 75 -65 68 -52 C59 -35 51 -30 37 -30 C17 -30 2 -44 2 -63 C2 -89 26 -107 62 -107 C107 -107 141 -79 155 -29 C170 25 180 126 180 232 L180 576 Z " />
<glyph glyph-name="approxequal" unicode="&#x2248;" horiz-adv-x="549" d="M489 251 C444 199 423 187 384 187 C365 187 354 190 285 211 C212 234 188 239 160 239 C101 239 54 212 14 155 L57 121 C103 174 120 184 159 184 C180 184 180 184 271 157 C350 133 354 132 385 132 C449 132 496 160 527 217 L489 251 Z M489 408 C444 356 423 344 384 344 C365 344 354 347 285 369 C211 392 188 397 160 397 C101 397 54 369 14 312 L57 279 C104 332 119 342 159 342 C181 342 181 342 271 315 C351 290 354 289 385 289 C449 289 496 318 527 375 L489 408 Z " />
<glyph glyph-name="notequal" unicode="&#x2260;" horiz-adv-x="549" d="M187 142 L115 -1 L161 -25 L246 142 L540 142 L540 197 L273 197 L344 336 L540 336 L540 391 L371 391 L439 525 L392 549 L312 391 L15 391 L15 336 L285 336 L215 197 L15 197 L15 142 L187 142 Z " />
<glyph glyph-name="lessequal" unicode="&#x2264;" horiz-adv-x="549" d="M467 55 L-30 55 L-42 0 L455 0 L467 55 Z M591 639 L44 405 L32 350 L480 117 L493 179 L117 378 L578 577 L591 639 Z " />
<glyph glyph-name="greaterequal" unicode="&#x2265;" horiz-adv-x="549" d="M467 55 L-30 55 L-42 0 L455 0 L467 55 Z M94 639 L81 577 L457 378 L-4 179 L-17 117 L529 350 L541 405 L94 639 Z " />
<glyph glyph-name="lozenge" unicode="&#x25ca;" horiz-adv-x="494" d="M209 0 L269 -1 L466 374 L277 740 L214 740 L18 377 L209 0 Z M240 58 L81 376 L245 683 L402 373 L240 58 Z " />
<glyph glyph-name="fi" unicode="&#xfb01;" horiz-adv-x="547" d="M197 387 L229 540 C247 624 295 663 382 663 C413 663 437 657 458 644 C435 627 423 607 423 583 C423 560 440 544 464 544 C497 544 525 573 525 606 C525 649 469 682 397 682 C351 682 301 671 260 651 C199 623 158 568 143 495 L120 387 L28 387 L24 369 L116 369 L42 18 L-50 18 L-54 0 L188 0 L192 18 L118 18 L193 369 L389 369 L315 18 L241 18 L237 0 L458 0 L462 18 L392 18 L470 387 L197 387 Z " />
<glyph glyph-name="fl" unicode="&#xfb02;" horiz-adv-x="547" d="M392 18 L532 680 L453 671 C427 679 407 682 380 682 C257 682 168 611 143 495 L120 387 L28 387 L24 369 L116 369 L42 18 L-50 18 L-54 0 L188 0 L192 18 L118 18 L193 369 L296 369 L300 387 L197 387 L229 540 C247 622 291 663 363 663 C412 663 436 644 436 605 C436 592 434 581 428 549 L315 18 L241 18 L237 0 L468 0 L472 18 L392 18 Z " />
</font>
</svg>
