<?xml version="1.0" encoding="UTF-8"?>
<svg xmlns="http://www.w3.org/2000/svg" xmlns:xlink="http://www.w3.org/1999/xlink" version="1.2" >
<font id="Bison Bold Itallic">
<font-face  font-family="Bison" units-per-em="1000" ascent="800" descent="-200" font-style="italic" font-weight="700" font-stretch="normal" slope="-10" cap-height="700" x-height="500" underline-position="-75" underline-thickness="50" />
<missing-glyph  horiz-adv-x="548" d="M173 700 L621 700 L498 0 L50 0 L173 700 Z M447 615 L349 420 L320 615 L234 615 L276 357 L135 85 L212 85 L318 295 L349 85 L437 85 L392 357 L524 615 L447 615 Z " />
<glyph glyph-name="space" unicode="&#x20;" horiz-adv-x="155" d="" />
<glyph glyph-name="A" unicode="A" horiz-adv-x="417" d="M291 0 L291 111 L165 111 L125 0 L13 0 L276 700 L386 700 L403 0 L291 0 Z M203 221 L291 221 L291 472 L203 221 Z " />
<glyph glyph-name="Aacute" unicode="&#xc1;" horiz-adv-x="417" d="M291 0 L291 111 L165 111 L125 0 L13 0 L276 700 L386 700 L403 0 L291 0 Z M203 221 L291 221 L291 472 L203 221 Z M370 737 L499 847 L389 847 L315 737 L370 737 Z " />
<glyph glyph-name="Abreve" unicode="&#x102;" horiz-adv-x="417" d="M291 0 L291 111 L165 111 L125 0 L13 0 L276 700 L386 700 L403 0 L291 0 Z M203 221 L291 221 L291 472 L203 221 Z M464 843 Q456 799 419 767.5 Q382 736 338 736 Q299 736 273.5 761 Q248 786 248 824 Q248 829 250 843 L305 843 Q304 840 304 834 Q304 815 316 803 Q328 791 347 791 Q369 791 387 806 Q405 821 409 843 L464 843 Z " />
<glyph glyph-name="uni1EAE" unicode="&#x1eae;" horiz-adv-x="417" d="M291 0 L291 111 L165 111 L125 0 L13 0 L276 700 L386 700 L403 0 L291 0 Z M203 221 L291 221 L291 472 L203 221 Z M389 868 L518 978 L408 978 L334 868 L389 868 Z M463 840 Q456 796 418.5 764.5 Q381 733 337 733 Q298 733 272.5 758.5 Q247 784 247 822 Q247 828 249 840 L304 840 Q303 837 303 831 Q303 812 315.5 800 Q328 788 347 788 Q369 788 386.5 803 Q404 818 408 840 L463 840 Z " />
<glyph glyph-name="uni1EB6" unicode="&#x1eb6;" horiz-adv-x="417" d="M291 0 L291 111 L165 111 L125 0 L13 0 L276 700 L386 700 L403 0 L291 0 Z M203 221 L291 221 L291 472 L203 221 Z M463 840 Q456 796 418.5 764.5 Q381 733 337 733 Q298 733 272.5 758.5 Q247 784 247 822 Q247 828 249 840 L304 840 Q303 837 303 831 Q303 812 315.5 800 Q328 788 347 788 Q369 788 386.5 803 Q404 818 408 840 L463 840 Z M143 -90 Q142 -93 142 -99 Q142 -116 153.5 -127.5 Q165 -139 183 -139 Q203 -139 220 -124.5 Q237 -110 241 -90 Q242 -87 242 -81 Q242 -63 230.5 -51.5 Q219 -40 201 -40 Q181 -40 164 -54.5 Q147 -69 143 -90 Z " />
<glyph glyph-name="uni1EB0" unicode="&#x1eb0;" horiz-adv-x="417" d="M125 0 L13 0 L276 700 L386 700 L403 0 L291 0 L291 111 L165 111 L125 0 Z M291 221 L291 472 L203 221 L291 221 Z M333 868 L388 868 L352 978 L242 978 L333 868 Z M463 840 Q456 796 418.5 764.5 Q381 733 337 733 Q298 733 272.5 758.5 Q247 784 247 822 Q247 828 249 840 L304 840 Q303 837 303 831 Q303 812 315.5 800 Q328 788 347 788 Q369 788 386.5 803 Q404 818 408 840 L463 840 Z " />
<glyph glyph-name="uni1EB2" unicode="&#x1eb2;" horiz-adv-x="417" d="M125 0 L13 0 L276 700 L386 700 L403 0 L291 0 L291 111 L165 111 L125 0 Z M291 221 L291 472 L203 221 L291 221 Z M300 975 Q340 975 365 950 Q390 925 390 886 Q390 880 388 868 L333 868 Q334 871 334 877 Q334 896 321.5 908 Q309 920 290 920 L253 965 Q274 975 300 975 Z M463 840 Q456 796 418.5 764.5 Q381 733 337 733 Q298 733 272.5 758.5 Q247 784 247 822 Q247 828 249 840 L304 840 Q303 837 303 831 Q303 812 315.5 800 Q328 788 347 788 Q369 788 386.5 803 Q404 818 408 840 L463 840 Z " />
<glyph glyph-name="uni1EB4" unicode="&#x1eb4;" horiz-adv-x="417" d="M291 0 L291 111 L165 111 L125 0 L13 0 L276 700 L386 700 L403 0 L291 0 Z M203 221 L291 221 L291 472 L203 221 Z M270 868 Q296 897 314 900 Q329 904 351 889 Q378 868 407 868 Q433 868 456 883.5 Q479 899 502 924 L463 956 Q437 929 422 924 Q408 921 389 935 Q359 956 330 956 Q323 956 311 954 Q273 945 232 901 L270 868 Z M463 840 Q456 796 418.5 764.5 Q381 733 337 733 Q298 733 272.5 758.5 Q247 784 247 822 Q247 828 249 840 L304 840 Q303 837 303 831 Q303 812 315.5 800 Q328 788 347 788 Q369 788 386.5 803 Q404 818 408 840 L463 840 Z " />
<glyph glyph-name="uni01CD" unicode="&#x1cd;" horiz-adv-x="417" d="M291 0 L291 111 L165 111 L125 0 L13 0 L276 700 L386 700 L403 0 L291 0 Z M203 221 L291 221 L291 472 L203 221 Z M467 847 L393 737 L283 737 L246 847 L302 847 L348 792 L412 847 L467 847 Z " />
<glyph glyph-name="Acircumflex" unicode="&#xc2;" horiz-adv-x="417" d="M291 0 L291 111 L165 111 L125 0 L13 0 L276 700 L386 700 L403 0 L291 0 Z M203 221 L291 221 L291 472 L203 221 Z M448 737 L393 737 L348 792 L283 737 L227 737 L302 847 L412 847 L448 737 Z " />
<glyph glyph-name="uni1EA4" unicode="&#x1ea4;" horiz-adv-x="477" d="M291 0 L291 111 L165 111 L125 0 L13 0 L276 700 L386 700 L403 0 L291 0 Z M203 221 L291 221 L291 472 L203 221 Z M501 837 L630 947 L520 947 L446 837 L501 837 Z M228 737 L302 847 L412 847 L449 737 L393 737 L348 792 L283 737 L228 737 Z " />
<glyph glyph-name="uni1EAC" unicode="&#x1eac;" horiz-adv-x="417" d="M291 0 L291 111 L165 111 L125 0 L13 0 L276 700 L386 700 L403 0 L291 0 Z M203 221 L291 221 L291 472 L203 221 Z M448 737 L393 737 L348 792 L283 737 L227 737 L302 847 L412 847 L448 737 Z M143 -90 Q142 -93 142 -99 Q142 -116 153.5 -127.5 Q165 -139 183 -139 Q203 -139 220 -124.5 Q237 -110 241 -90 Q242 -87 242 -81 Q242 -63 230.5 -51.5 Q219 -40 201 -40 Q181 -40 164 -54.5 Q147 -69 143 -90 Z " />
<glyph glyph-name="uni1EA6" unicode="&#x1ea6;" horiz-adv-x="417" d="M125 0 L13 0 L276 700 L386 700 L403 0 L291 0 L291 111 L165 111 L125 0 Z M291 221 L291 472 L203 221 L291 221 Z M446 837 L501 837 L465 947 L355 947 L446 837 Z M228 737 L302 847 L412 847 L449 737 L393 737 L348 792 L283 737 L228 737 Z " />
<glyph glyph-name="uni1EA8" unicode="&#x1ea8;" horiz-adv-x="417" d="M125 0 L13 0 L276 700 L386 700 L403 0 L291 0 L291 111 L165 111 L125 0 Z M291 221 L291 472 L203 221 L291 221 Z M412 944 Q451 944 477 918.5 Q503 893 503 855 Q503 849 501 837 L446 837 Q447 840 447 846 Q447 865 434.5 877 Q422 889 403 889 L366 934 Q387 944 412 944 Z M228 737 L302 847 L412 847 L449 737 L393 737 L348 792 L283 737 L228 737 Z " />
<glyph glyph-name="uni1EAA" unicode="&#x1eaa;" horiz-adv-x="417" d="M291 0 L291 111 L165 111 L125 0 L13 0 L276 700 L386 700 L403 0 L291 0 Z M203 221 L291 221 L291 472 L203 221 Z M448 737 L393 737 L348 792 L283 737 L227 737 L302 847 L412 847 L448 737 Z M270 868 Q296 897 314 900 Q329 904 351 889 Q378 868 407 868 Q433 868 456 883.5 Q479 899 502 924 L463 956 Q437 929 422 924 Q408 921 389 935 Q359 956 330 956 Q323 956 311 954 Q273 945 232 901 L270 868 Z " />
<glyph glyph-name="Adieresis" unicode="&#xc4;" horiz-adv-x="417" d="M291 0 L291 111 L165 111 L125 0 L13 0 L276 700 L386 700 L403 0 L291 0 Z M203 221 L291 221 L291 472 L203 221 Z M221 785 Q218 765 230 750.5 Q242 736 262 736 Q282 736 299 750.5 Q316 765 319 785 Q320 788 320 794 Q320 812 308.5 823.5 Q297 835 279 835 Q259 835 242 820.5 Q225 806 221 785 Z M373 785 Q370 765 382 750.5 Q394 736 414 736 Q434 736 451 750.5 Q468 765 471 785 Q472 788 472 794 Q472 812 460.5 823.5 Q449 835 431 835 Q411 835 394 820.5 Q377 806 373 785 Z " />
<glyph glyph-name="uni01DE" unicode="&#x1de;" horiz-adv-x="417" d="M291 0 L291 111 L165 111 L125 0 L13 0 L276 700 L386 700 L403 0 L291 0 Z M203 221 L291 221 L291 472 L203 221 Z M221 785 Q218 765 230 750.5 Q242 736 262 736 Q282 736 299 750.5 Q316 765 319 785 Q320 788 320 794 Q320 812 308.5 823.5 Q297 835 279 835 Q259 835 242 820.5 Q225 806 221 785 Z M373 785 Q370 765 382 750.5 Q394 736 414 736 Q434 736 451 750.5 Q468 765 471 785 Q472 788 472 794 Q472 812 460.5 823.5 Q449 835 431 835 Q411 835 394 820.5 Q377 806 373 785 Z M472 868 L482 923 L260 923 L250 868 L472 868 Z " />
<glyph glyph-name="uni1EA0" unicode="&#x1ea0;" horiz-adv-x="417" d="M291 0 L291 111 L165 111 L125 0 L13 0 L276 700 L386 700 L403 0 L291 0 Z M203 221 L291 221 L291 472 L203 221 Z M143 -90 Q142 -93 142 -99 Q142 -116 153.5 -127.5 Q165 -139 183 -139 Q203 -139 220 -124.5 Q237 -110 241 -90 Q242 -87 242 -81 Q242 -63 230.5 -51.5 Q219 -40 201 -40 Q181 -40 164 -54.5 Q147 -69 143 -90 Z " />
<glyph glyph-name="Agrave" unicode="&#xc0;" horiz-adv-x="417" d="M291 0 L291 111 L165 111 L125 0 L13 0 L276 700 L386 700 L403 0 L291 0 Z M203 221 L291 221 L291 472 L203 221 Z M316 737 L371 737 L335 847 L225 847 L316 737 Z " />
<glyph glyph-name="uni1EA2" unicode="&#x1ea2;" horiz-adv-x="417" d="M277 844 Q317 844 342 819 Q367 794 367 755 Q367 749 365 737 L310 737 Q311 740 311 746 Q311 765 298.5 777 Q286 789 267 789 L230 834 Q251 844 277 844 Z M291 0 L291 111 L165 111 L125 0 L13 0 L276 700 L386 700 L403 0 L291 0 Z M203 221 L291 221 L291 472 L203 221 Z " />
<glyph glyph-name="Amacron" unicode="&#x100;" horiz-adv-x="417" d="M291 0 L291 111 L165 111 L125 0 L13 0 L276 700 L386 700 L403 0 L291 0 Z M203 221 L291 221 L291 472 L203 221 Z M448 737 L458 792 L237 792 L227 737 L448 737 Z " />
<glyph glyph-name="Aogonek" unicode="&#x104;" horiz-adv-x="417" d="M291 0 L291 111 L165 111 L125 0 L13 0 L276 700 L386 700 L403 0 L291 0 Z M203 221 L291 221 L291 472 L203 221 Z M372 -136 L353 -136 Q320 -136 298 -123.5 Q276 -111 276 -86 Q276 -80 277 -77 Q282 -53 302.5 -32 Q323 -11 347 0 L403 0 Q382 -4 363.5 -20.5 Q345 -37 341 -56 Q338 -70 349 -75.5 Q360 -81 373 -81 L382 -81 L372 -136 Z " />
<glyph glyph-name="Aring" unicode="&#xc5;" horiz-adv-x="417" d="M291 0 L291 111 L165 111 L125 0 L13 0 L276 700 L386 700 L403 0 L291 0 Z M203 221 L291 221 L291 472 L203 221 Z M338 740 Q367 740 391 760.5 Q415 781 420 809 Q421 813 421 822 Q421 846 404.5 862.5 Q388 879 363 879 Q334 879 310 858.5 Q286 838 281 809 Q280 805 280 796 Q280 772 296 756 Q312 740 338 740 Z M353 824 Q359 824 362.5 819.5 Q366 815 365 809 Q363 803 358.5 799 Q354 795 348 795 Q342 795 338.5 799 Q335 803 336 809 Q337 815 342 819.5 Q347 824 353 824 Z " />
<glyph glyph-name="Atilde" unicode="&#xc3;" horiz-adv-x="417" d="M291 0 L291 111 L165 111 L125 0 L13 0 L276 700 L386 700 L403 0 L291 0 Z M203 221 L291 221 L291 472 L203 221 Z M249 735 Q275 764 292 767 Q308 771 329 756 Q357 735 386 735 Q430 735 480 791 L441 823 Q417 796 400 791 Q386 788 367 802 Q339 823 309 823 Q302 823 290 821 Q253 812 210 768 L249 735 Z " />
<glyph glyph-name="AE" unicode="&#xc6;" horiz-adv-x="575" d="M8 0 L291 700 L670 700 L651 590 L471 590 L440 414 L564 414 L545 304 L421 304 L386 110 L566 110 L547 0 L257 0 L276 110 L165 110 L121 0 L8 0 Z M296 220 L361 591 L211 220 L296 220 Z " />
<glyph glyph-name="B" unicode="B" horiz-adv-x="398" d="M206 0 Q277 0 328 39 Q358 61 376 95 Q394 127 402 168 L413 232 Q416 253 416 270 Q416 329 380 358 Q426 395 439 466 L451 531 Q454 552 454 572 Q454 590 451 605 Q445 637 423 661 Q386 700 314 700 L163 700 L40 0 L206 0 Z M202 294 L258 294 Q285 294 297 282 Q305 273 305 254 Q305 246 303 232 L292 168 Q286 134 269 121 Q256 110 225 110 L169 110 L202 294 Z M254 590 L295 590 Q325 590 335 579 Q342 571 342 550 Q342 537 341 531 L329 466 Q322 431 305 416 Q291 404 262 404 L221 404 L254 590 Z " />
<glyph glyph-name="uni1E04" unicode="&#x1e04;" horiz-adv-x="398" d="M206 0 Q277 0 328 39 Q358 61 376 95 Q394 127 402 168 L413 232 Q416 253 416 270 Q416 329 380 358 Q426 395 439 466 L451 531 Q454 552 454 572 Q454 590 451 605 Q445 637 423 661 Q386 700 314 700 L163 700 L40 0 L206 0 Z M202 294 L258 294 Q285 294 297 282 Q305 273 305 254 Q305 246 303 232 L292 168 Q286 134 269 121 Q256 110 225 110 L169 110 L202 294 Z M254 590 L295 590 Q325 590 335 579 Q342 571 342 550 Q342 537 341 531 L329 466 Q322 431 305 416 Q291 404 262 404 L221 404 L254 590 Z M141 -90 Q140 -93 140 -99 Q140 -116 151.5 -127.5 Q163 -139 181 -139 Q201 -139 218 -124.5 Q235 -110 239 -90 Q240 -87 240 -81 Q240 -63 228.5 -51.5 Q217 -40 199 -40 Q179 -40 162 -54.5 Q145 -69 141 -90 Z " />
<glyph glyph-name="uni0181" unicode="&#x181;" horiz-adv-x="449" d="M431 358 Q467 329 467 270 Q467 253 464 232 L453 168 Q445 127 427 95 Q409 61 379 39 Q328 0 257 0 L91 0 L205 645 L163 645 Q157 645 152.5 641 Q148 637 146 631 L91 631 Q96 660 120 680 Q144 700 172 700 L365 700 Q437 700 474 661 Q496 637 502 605 Q505 590 505 572 Q505 552 502 531 L490 466 Q477 395 431 358 Z M272 404 L313 404 Q342 404 356 416 Q373 431 380 466 L392 531 Q393 537 393 550 Q393 571 386 579 Q376 590 346 590 L305 590 L272 404 Z M354 232 Q356 246 356 254 Q356 273 348 282 Q336 294 309 294 L253 294 L220 110 L276 110 Q307 110 320 121 Q337 134 343 168 L354 232 Z " />
<glyph glyph-name="uni0243" unicode="&#x243;" horiz-adv-x="405" d="M387 358 Q423 329 423 270 Q423 253 420 232 L408 168 Q402 129 383 95 Q363 60 334 39 Q285 0 213 0 L47 0 L72 147 L26 147 L45 257 L92 257 L170 700 L321 700 Q393 700 430 661 Q452 637 458 605 Q461 590 461 572 Q461 552 458 531 L446 466 Q433 395 387 358 Z M228 404 L269 404 Q298 404 312 416 Q329 430 336 466 L348 531 Q349 537 349 550 Q349 571 342 579 Q331 590 302 590 L261 590 L228 404 Z M310 232 Q312 246 312 254 Q312 273 304 282 Q293 294 265 294 L208 294 L202 257 L248 257 L229 147 L182 147 L176 110 L232 110 Q261 110 276 121 Q285 128 290.5 141 Q296 154 298 168 L310 232 Z " />
<glyph glyph-name="C" unicode="C" horiz-adv-x="390" d="M196 -8 Q267 -8 319 33 Q378 81 392 164 L408 254 L298 254 L282 164 Q275 127 259 114 Q243 102 215 102 Q187 102 176 114 Q168 123 168 143 Q168 152 170 164 L236 536 Q238 550 243.5 564 Q249 578 259 586 Q275 598 302 598 Q331 598 342 586 Q350 577 350 558 Q350 550 348 536 L337 474 L447 474 L458 536 Q462 556 462 576 Q462 632 431 667 Q393 708 322 708 Q251 708 199 667 Q140 617 126 536 L60 164 Q56 136 56 125 Q56 71 87 33 Q125 -8 196 -8 Z " />
<glyph glyph-name="Cacute" unicode="&#x106;" horiz-adv-x="390" d="M196 -8 Q267 -8 319 33 Q378 81 392 164 L408 254 L298 254 L282 164 Q275 127 259 114 Q243 102 215 102 Q187 102 176 114 Q168 123 168 143 Q168 152 170 164 L236 536 Q238 550 243.5 564 Q249 578 259 586 Q275 598 302 598 Q331 598 342 586 Q350 577 350 558 Q350 550 348 536 L337 474 L447 474 L458 536 Q462 556 462 576 Q462 632 431 667 Q393 708 322 708 Q251 708 199 667 Q140 617 126 536 L60 164 Q56 136 56 125 Q56 71 87 33 Q125 -8 196 -8 Z M349 737 L478 847 L368 847 L294 737 L349 737 Z " />
<glyph glyph-name="Ccaron" unicode="&#x10c;" horiz-adv-x="390" d="M196 -8 Q267 -8 319 33 Q378 81 392 164 L408 254 L298 254 L282 164 Q275 127 259 114 Q243 102 215 102 Q187 102 176 114 Q168 123 168 143 Q168 152 170 164 L236 536 Q238 550 243.5 564 Q249 578 259 586 Q275 598 302 598 Q331 598 342 586 Q350 577 350 558 Q350 550 348 536 L337 474 L447 474 L458 536 Q462 556 462 576 Q462 632 431 667 Q393 708 322 708 Q251 708 199 667 Q140 617 126 536 L60 164 Q56 136 56 125 Q56 71 87 33 Q125 -8 196 -8 Z M456 847 L382 737 L272 737 L235 847 L291 847 L337 792 L401 847 L456 847 Z " />
<glyph glyph-name="Ccedilla" unicode="&#xc7;" horiz-adv-x="390" d="M337 475 L348 537 Q350 551 350 561 Q350 580 343 587 Q331 599 303 599 Q274 599 260 587 Q243 574 236 537 L170 165 Q168 153 168 144 Q168 124 176 115 Q188 103 215 103 Q245 103 259 115 Q275 128 282 165 L298 255 L408 255 L392 165 Q378 82 319 34 Q279 1 222 -5 L222 -6 Q222 -11 226 -14 Q239 -25 245.5 -34.5 Q252 -44 252 -62 Q252 -67 250 -77 Q246 -105 222 -125.5 Q198 -146 169 -146 Q144 -146 127.5 -129.5 Q111 -113 111 -88 Q111 -81 112 -77 L167 -77 L167 -79 Q167 -84 170.5 -87.5 Q174 -91 179 -91 Q185 -91 189.5 -87 Q194 -83 195 -77 L196 -73 Q196 -69 191.5 -64.5 Q187 -60 186 -59 Q166 -43 166 -17 Q166 -10 167 -6 L167 -5 Q117 3 87 34 Q56 72 56 126 Q56 137 60 165 L126 537 Q140 618 199 668 Q252 709 322 709 Q395 709 431 668 Q462 633 462 577 Q462 557 458 537 L447 475 L337 475 Z " />
<glyph glyph-name="Cdotaccent" unicode="&#x10a;" horiz-adv-x="390" d="M196 -8 Q267 -8 319 33 Q378 81 392 164 L408 254 L298 254 L282 164 Q275 127 259 114 Q243 102 215 102 Q187 102 176 114 Q168 123 168 143 Q168 152 170 164 L236 536 Q238 550 243.5 564 Q249 578 259 586 Q275 598 302 598 Q331 598 342 586 Q350 577 350 558 Q350 550 348 536 L337 474 L447 474 L458 536 Q462 556 462 576 Q462 632 431 667 Q393 708 322 708 Q251 708 199 667 Q140 617 126 536 L60 164 Q56 136 56 125 Q56 71 87 33 Q125 -8 196 -8 Z M286 785 Q283 765 295 750.5 Q307 736 327 736 Q347 736 364 750.5 Q381 765 384 785 Q385 788 385 794 Q385 812 373.5 823.5 Q362 835 344 835 Q324 835 307 820.5 Q290 806 286 785 Z " />
<glyph glyph-name="uni0187" unicode="&#x187;" horiz-adv-x="390" d="M433 709 Q438 738 462 758 Q486 778 515 778 L505 723 Q499 723 494 719 Q489 715 488 709 L447 474 L337 474 L348 536 Q350 550 350 558 Q350 577 342 586 Q331 598 302 598 Q275 598 259 586 Q249 578 243.5 564 Q238 550 236 536 L170 164 Q168 152 168 143 Q168 123 176 114 Q187 102 215 102 Q243 102 259 114 Q275 127 282 164 L298 254 L408 254 L392 164 Q378 81 319 33 Q267 -8 196 -8 Q125 -8 87 33 Q56 71 56 125 Q56 136 60 164 L126 536 Q140 617 199 667 Q251 708 322 708 Q355 708 382 698.5 Q409 689 426 671 L433 709 Z " />
<glyph glyph-name="D" unicode="D" horiz-adv-x="403" d="M206 0 Q277 0 328 39 Q357 60 377 95 Q395 129 402 168 L465 528 Q469 548 469 568 Q469 623 438 658 Q401 700 329 700 L163 700 L40 0 L206 0 Z M254 590 L310 590 Q338 590 349 578 Q357 569 357 549 Q357 540 355 528 L292 168 Q285 133 269 121 Q256 110 225 110 L169 110 L254 590 Z " />
<glyph glyph-name="uni0189" unicode="&#x189;" horiz-adv-x="408" d="M443 658 Q474 623 474 568 Q474 548 470 528 L407 168 Q400 129 382 95 Q362 60 333 39 Q282 0 211 0 L45 0 L97 294 L57 294 L76 404 L116 404 L168 700 L334 700 Q406 700 443 658 Z M360 528 Q362 540 362 549 Q362 569 354 578 Q343 590 315 590 L259 590 L226 404 L276 404 L257 294 L207 294 L174 110 L230 110 Q261 110 274 121 Q290 133 297 168 L360 528 Z " />
<glyph glyph-name="Eth" unicode="&#xd0;" horiz-adv-x="408" d="M443 658 Q474 623 474 568 Q474 548 470 528 L407 168 Q400 129 382 95 Q362 60 333 39 Q282 0 211 0 L45 0 L97 294 L57 294 L76 404 L116 404 L168 700 L334 700 Q406 700 443 658 Z M360 528 Q362 540 362 549 Q362 569 354 578 Q343 590 315 590 L259 590 L226 404 L276 404 L257 294 L207 294 L174 110 L230 110 Q261 110 274 121 Q290 133 297 168 L360 528 Z " />
<glyph glyph-name="Dcaron" unicode="&#x10e;" horiz-adv-x="403" d="M206 0 Q277 0 328 39 Q357 60 377 95 Q395 129 402 168 L465 528 Q469 548 469 568 Q469 623 438 658 Q401 700 329 700 L163 700 L40 0 L206 0 Z M254 590 L310 590 Q338 590 349 578 Q357 569 357 549 Q357 540 355 528 L292 168 Q285 133 269 121 Q256 110 225 110 L169 110 L254 590 Z M465 847 L391 737 L281 737 L244 847 L300 847 L346 792 L410 847 L465 847 Z " />
<glyph glyph-name="uni1E12" unicode="&#x1e12;" horiz-adv-x="403" d="M206 0 Q277 0 328 39 Q357 60 377 95 Q395 129 402 168 L465 528 Q469 548 469 568 Q469 623 438 658 Q401 700 329 700 L163 700 L40 0 L206 0 Z M254 590 L310 590 Q338 590 349 578 Q357 569 357 549 Q357 540 355 528 L292 168 Q285 133 269 121 Q256 110 225 110 L169 110 L254 590 Z M290 -150 L235 -150 L189 -95 L125 -150 L69 -150 L144 -40 L254 -40 L290 -150 Z " />
<glyph glyph-name="Dcroat" unicode="&#x110;" horiz-adv-x="408" d="M443 658 Q474 623 474 568 Q474 548 470 528 L407 168 Q400 129 382 95 Q362 60 333 39 Q282 0 211 0 L45 0 L97 294 L57 294 L76 404 L116 404 L168 700 L334 700 Q406 700 443 658 Z M360 528 Q362 540 362 549 Q362 569 354 578 Q343 590 315 590 L259 590 L226 404 L276 404 L257 294 L207 294 L174 110 L230 110 Q261 110 274 121 Q290 133 297 168 L360 528 Z " />
<glyph glyph-name="uni1E0C" unicode="&#x1e0c;" horiz-adv-x="403" d="M206 0 Q277 0 328 39 Q357 60 377 95 Q395 129 402 168 L465 528 Q469 548 469 568 Q469 623 438 658 Q401 700 329 700 L163 700 L40 0 L206 0 Z M254 590 L310 590 Q338 590 349 578 Q357 569 357 549 Q357 540 355 528 L292 168 Q285 133 269 121 Q256 110 225 110 L169 110 L254 590 Z M141 -90 Q140 -93 140 -99 Q140 -116 151.5 -127.5 Q163 -139 181 -139 Q201 -139 218 -124.5 Q235 -110 239 -90 Q240 -87 240 -81 Q240 -63 228.5 -51.5 Q217 -40 199 -40 Q179 -40 162 -54.5 Q145 -69 141 -90 Z " />
<glyph glyph-name="uni018A" unicode="&#x18a;" horiz-adv-x="454" d="M489 658 Q520 623 520 568 Q520 548 516 528 L453 168 Q446 129 428 95 Q408 60 379 39 Q328 0 257 0 L91 0 L205 645 L163 645 Q157 645 152.5 641 Q148 637 146 631 L91 631 Q96 660 120 680 Q144 700 172 700 L380 700 Q452 700 489 658 Z M406 528 Q408 540 408 549 Q408 569 400 578 Q389 590 361 590 L305 590 L220 110 L276 110 Q307 110 320 121 Q336 133 343 168 L406 528 Z " />
<glyph glyph-name="uni1E0E" unicode="&#x1e0e;" horiz-adv-x="403" d="M206 0 Q277 0 328 39 Q357 60 377 95 Q395 129 402 168 L465 528 Q469 548 469 568 Q469 623 438 658 Q401 700 329 700 L163 700 L40 0 L206 0 Z M254 590 L310 590 Q338 590 349 578 Q357 569 357 549 Q357 540 355 528 L292 168 Q285 133 269 121 Q256 110 225 110 L169 110 L254 590 Z M299 -95 L309 -40 L88 -40 L78 -95 L299 -95 Z " />
<glyph glyph-name="E" unicode="E" horiz-adv-x="358" d="M434 590 L254 590 L223 414 L347 414 L328 304 L204 304 L169 110 L349 110 L330 0 L40 0 L163 700 L453 700 L434 590 Z " />
<glyph glyph-name="Eacute" unicode="&#xc9;" horiz-adv-x="358" d="M434 590 L254 590 L223 414 L347 414 L328 304 L204 304 L169 110 L349 110 L330 0 L40 0 L163 700 L453 700 L434 590 Z M342 737 L471 847 L361 847 L287 737 L342 737 Z " />
<glyph glyph-name="Ecaron" unicode="&#x11a;" horiz-adv-x="358" d="M434 590 L254 590 L223 414 L347 414 L328 304 L204 304 L169 110 L349 110 L330 0 L40 0 L163 700 L453 700 L434 590 Z M450 847 L376 737 L266 737 L229 847 L285 847 L331 792 L395 847 L450 847 Z " />
<glyph glyph-name="uni0228" unicode="&#x228;" horiz-adv-x="358" d="M254 590 L223 414 L347 414 L328 304 L204 304 L169 110 L349 110 L330 0 L211 0 L211 -1 Q209 -4 214 -9 Q227 -19 234 -29 Q241 -39 241 -57 Q241 -62 239 -72 Q235 -100 211 -120.5 Q187 -141 158 -141 Q133 -141 116.5 -124.5 Q100 -108 100 -83 Q100 -76 101 -72 L156 -72 L156 -74 Q156 -79 159.5 -82.5 Q163 -86 168 -86 Q174 -86 178.5 -82 Q183 -78 184 -72 L185 -68 Q185 -65 182 -61.5 Q179 -58 174 -54 Q155 -38 155 -13 Q155 -5 156 -1 L156 0 L40 0 L163 700 L453 700 L434 590 L254 590 Z " />
<glyph glyph-name="Ecircumflex" unicode="&#xca;" horiz-adv-x="358" d="M434 590 L254 590 L223 414 L347 414 L328 304 L204 304 L169 110 L349 110 L330 0 L40 0 L163 700 L453 700 L434 590 Z M431 737 L376 737 L331 792 L266 737 L210 737 L285 847 L395 847 L431 737 Z " />
<glyph glyph-name="uni1EBE" unicode="&#x1ebe;" horiz-adv-x="358" d="M483 837 L612 947 L502 947 L428 837 L483 837 Z M434 590 L254 590 L223 414 L347 414 L328 304 L204 304 L169 110 L349 110 L330 0 L40 0 L163 700 L453 700 L434 590 Z M431 737 L376 737 L331 792 L266 737 L210 737 L285 847 L395 847 L431 737 Z " />
<glyph glyph-name="uni1EC6" unicode="&#x1ec6;" horiz-adv-x="358" d="M126 -90 Q125 -93 125 -99 Q125 -116 136.5 -127.5 Q148 -139 166 -139 Q186 -139 203 -124.5 Q220 -110 224 -90 Q225 -87 225 -81 Q225 -63 213.5 -51.5 Q202 -40 184 -40 Q164 -40 147 -54.5 Q130 -69 126 -90 Z M434 590 L254 590 L223 414 L347 414 L328 304 L204 304 L169 110 L349 110 L330 0 L40 0 L163 700 L453 700 L434 590 Z M431 737 L376 737 L331 792 L266 737 L210 737 L285 847 L395 847 L431 737 Z " />
<glyph glyph-name="uni1EC0" unicode="&#x1ec0;" horiz-adv-x="358" d="M429 837 L484 837 L448 947 L338 947 L429 837 Z M434 590 L254 590 L223 414 L347 414 L328 304 L204 304 L169 110 L349 110 L330 0 L40 0 L163 700 L453 700 L434 590 Z M431 737 L376 737 L331 792 L266 737 L210 737 L285 847 L395 847 L431 737 Z " />
<glyph glyph-name="uni1EC2" unicode="&#x1ec2;" horiz-adv-x="358" d="M395 944 Q434 944 460 918.5 Q486 893 486 855 Q486 849 484 837 L429 837 Q430 840 430 846 Q430 865 417.5 877 Q405 889 386 889 L349 934 Q370 944 395 944 Z M434 590 L254 590 L223 414 L347 414 L328 304 L204 304 L169 110 L349 110 L330 0 L40 0 L163 700 L453 700 L434 590 Z M431 737 L376 737 L331 792 L266 737 L210 737 L285 847 L395 847 L431 737 Z " />
<glyph glyph-name="uni1EC4" unicode="&#x1ec4;" horiz-adv-x="358" d="M253 868 Q279 897 297 900 Q312 904 334 889 Q361 868 390 868 Q416 868 439 883.5 Q462 899 485 924 L446 956 Q420 929 405 924 Q391 921 372 935 Q342 956 313 956 Q306 956 294 954 Q256 945 215 901 L253 868 Z M434 590 L254 590 L223 414 L347 414 L328 304 L204 304 L169 110 L349 110 L330 0 L40 0 L163 700 L453 700 L434 590 Z M431 737 L376 737 L331 792 L266 737 L210 737 L285 847 L395 847 L431 737 Z " />
<glyph glyph-name="Edieresis" unicode="&#xcb;" horiz-adv-x="358" d="M434 590 L254 590 L223 414 L347 414 L328 304 L204 304 L169 110 L349 110 L330 0 L40 0 L163 700 L453 700 L434 590 Z M198 785 Q195 765 207 750.5 Q219 736 239 736 Q259 736 276 750.5 Q293 765 296 785 Q297 788 297 794 Q297 812 285.5 823.5 Q274 835 256 835 Q236 835 219 820.5 Q202 806 198 785 Z M350 785 Q347 765 359 750.5 Q371 736 391 736 Q411 736 428 750.5 Q445 765 448 785 Q449 788 449 794 Q449 812 437.5 823.5 Q426 835 408 835 Q388 835 371 820.5 Q354 806 350 785 Z " />
<glyph glyph-name="Edotaccent" unicode="&#x116;" horiz-adv-x="358" d="M280 785 Q277 765 289 750.5 Q301 736 321 736 Q341 736 358 750.5 Q375 765 378 785 Q379 788 379 794 Q379 812 367.5 823.5 Q356 835 338 835 Q318 835 301 820.5 Q284 806 280 785 Z M434 590 L254 590 L223 414 L347 414 L328 304 L204 304 L169 110 L349 110 L330 0 L40 0 L163 700 L453 700 L434 590 Z " />
<glyph glyph-name="uni1EB8" unicode="&#x1eb8;" horiz-adv-x="358" d="M126 -90 Q125 -93 125 -99 Q125 -116 136.5 -127.5 Q148 -139 166 -139 Q186 -139 203 -124.5 Q220 -110 224 -90 Q225 -87 225 -81 Q225 -63 213.5 -51.5 Q202 -40 184 -40 Q164 -40 147 -54.5 Q130 -69 126 -90 Z M434 590 L254 590 L223 414 L347 414 L328 304 L204 304 L169 110 L349 110 L330 0 L40 0 L163 700 L453 700 L434 590 Z " />
<glyph glyph-name="Egrave" unicode="&#xc8;" horiz-adv-x="358" d="M434 590 L254 590 L223 414 L347 414 L328 304 L204 304 L169 110 L349 110 L330 0 L40 0 L163 700 L453 700 L434 590 Z M288 737 L343 737 L307 847 L197 847 L288 737 Z " />
<glyph glyph-name="uni1EBA" unicode="&#x1eba;" horiz-adv-x="358" d="M255 844 Q295 844 320 819 Q345 794 345 755 Q345 749 343 737 L288 737 Q289 740 289 746 Q289 765 276.5 777 Q264 789 245 789 L208 834 Q229 844 255 844 Z M434 590 L254 590 L223 414 L347 414 L328 304 L204 304 L169 110 L349 110 L330 0 L40 0 L163 700 L453 700 L434 590 Z " />
<glyph glyph-name="Emacron" unicode="&#x112;" horiz-adv-x="358" d="M434 590 L254 590 L223 414 L347 414 L328 304 L204 304 L169 110 L349 110 L330 0 L40 0 L163 700 L453 700 L434 590 Z M426 737 L436 792 L214 792 L204 737 L426 737 Z " />
<glyph glyph-name="Eogonek" unicode="&#x118;" horiz-adv-x="358" d="M254 590 L223 414 L347 414 L328 304 L204 304 L169 110 L349 110 L330 0 Q309 -4 290.5 -20.5 Q272 -37 268 -56 Q265 -70 276 -75.5 Q287 -81 300 -81 L309 -81 L299 -136 L280 -136 Q247 -136 225 -123.5 Q203 -111 203 -86 Q203 -80 204 -77 Q209 -53 229.5 -32 Q250 -11 274 0 L40 0 L163 700 L453 700 L434 590 L254 590 Z " />
<glyph glyph-name="uni018E" unicode="&#x18e;" horiz-adv-x="358" d="M132 590 L151 700 L441 700 L318 0 L28 0 L47 110 L227 110 L262 304 L138 304 L157 414 L281 414 L312 590 L132 590 Z " />
<glyph glyph-name="uni1EBC" unicode="&#x1ebc;" horiz-adv-x="358" d="M226 735 Q252 764 269 767 Q285 771 306 756 Q334 735 363 735 Q407 735 457 791 L418 823 Q394 796 377 791 Q363 788 344 802 Q315 823 286 823 Q279 823 267 821 Q230 812 187 768 L226 735 Z M434 590 L254 590 L223 414 L347 414 L328 304 L204 304 L169 110 L349 110 L330 0 L40 0 L163 700 L453 700 L434 590 Z " />
<glyph glyph-name="F" unicode="F" horiz-adv-x="344" d="M434 590 L254 590 L223 414 L348 414 L329 304 L204 304 L150 0 L40 0 L163 700 L453 700 L434 590 Z " />
<glyph glyph-name="uni0191" unicode="&#x191;" horiz-adv-x="344" d="M254 590 L223 414 L348 414 L329 304 L204 304 L150 0 Q139 -66 106 -88.5 Q73 -111 6 -111 L16 -56 Q22 -56 26.5 -52 Q31 -48 33 -42 L163 700 L453 700 L434 590 L254 590 Z " />
<glyph glyph-name="G" unicode="G" horiz-adv-x="395" d="M196 -8 Q267 -8 319 33 Q378 81 392 164 L434 405 L269 405 L250 295 L305 295 L282 164 Q275 127 259 114 Q243 102 215 102 Q187 102 176 114 Q168 123 168 143 Q168 152 170 164 L236 536 Q238 550 243.5 564 Q249 578 259 586 Q275 598 302 598 Q331 598 342 586 Q350 577 350 558 Q350 550 348 536 L337 474 L447 474 L458 536 Q462 556 462 576 Q462 632 431 667 Q393 708 322 708 Q251 708 199 667 Q140 617 126 536 L60 164 Q56 136 56 125 Q56 71 87 33 Q125 -8 196 -8 Z " />
<glyph glyph-name="Gbreve" unicode="&#x11e;" horiz-adv-x="395" d="M196 -8 Q267 -8 319 33 Q378 81 392 164 L434 405 L269 405 L250 295 L305 295 L282 164 Q275 127 259 114 Q243 102 215 102 Q187 102 176 114 Q168 123 168 143 Q168 152 170 164 L236 536 Q238 550 243.5 564 Q249 578 259 586 Q275 598 302 598 Q331 598 342 586 Q350 577 350 558 Q350 550 348 536 L337 474 L447 474 L458 536 Q462 556 462 576 Q462 632 431 667 Q393 708 322 708 Q251 708 199 667 Q140 617 126 536 L60 164 Q56 136 56 125 Q56 71 87 33 Q125 -8 196 -8 Z M453 843 Q445 799 408 767.5 Q371 736 327 736 Q288 736 262.5 761 Q237 786 237 824 Q237 829 239 843 L294 843 Q293 840 293 834 Q293 815 305 803 Q317 791 336 791 Q358 791 376 806 Q394 821 398 843 L453 843 Z " />
<glyph glyph-name="Gcaron" unicode="&#x1e6;" horiz-adv-x="395" d="M456 847 L382 737 L272 737 L235 847 L291 847 L337 792 L401 847 L456 847 Z M196 -8 Q267 -8 319 33 Q378 81 392 164 L434 405 L269 405 L250 295 L305 295 L282 164 Q275 127 259 114 Q243 102 215 102 Q187 102 176 114 Q168 123 168 143 Q168 152 170 164 L236 536 Q238 550 243.5 564 Q249 578 259 586 Q275 598 302 598 Q331 598 342 586 Q350 577 350 558 Q350 550 348 536 L337 474 L447 474 L458 536 Q462 556 462 576 Q462 632 431 667 Q393 708 322 708 Q251 708 199 667 Q140 617 126 536 L60 164 Q56 136 56 125 Q56 71 87 33 Q125 -8 196 -8 Z " />
<glyph glyph-name="Gcommaaccent" unicode="&#x122;" horiz-adv-x="395" d="M196 -8 Q267 -8 319 33 Q378 81 392 164 L434 405 L269 405 L250 295 L305 295 L282 164 Q275 127 259 114 Q243 102 215 102 Q187 102 176 114 Q168 123 168 143 Q168 152 170 164 L236 536 Q238 550 243.5 564 Q249 578 259 586 Q275 598 302 598 Q331 598 342 586 Q350 577 350 558 Q350 550 348 536 L337 474 L447 474 L458 536 Q462 556 462 576 Q462 632 431 667 Q393 708 322 708 Q251 708 199 667 Q140 617 126 536 L60 164 Q56 136 56 125 Q56 71 87 33 Q125 -8 196 -8 Z M233 -79 Q230 -100 211 -125 Q195 -148 168 -179 L132 -179 L147 -151 Q153 -139 153 -133 Q153 -126 148 -122 Q141 -114 137 -106.5 Q133 -99 133 -88 Q133 -82 134 -79 Q138 -59 155 -44.5 Q172 -30 192 -30 Q211 -30 222.5 -41.5 Q234 -53 234 -70 Q234 -76 233 -79 Z " />
<glyph glyph-name="Gdotaccent" unicode="&#x120;" horiz-adv-x="395" d="M286 785 Q283 765 295 750.5 Q307 736 327 736 Q347 736 364 750.5 Q381 765 384 785 Q385 788 385 794 Q385 812 373.5 823.5 Q362 835 344 835 Q324 835 307 820.5 Q290 806 286 785 Z M196 -8 Q267 -8 319 33 Q378 81 392 164 L434 405 L269 405 L250 295 L305 295 L282 164 Q275 127 259 114 Q243 102 215 102 Q187 102 176 114 Q168 123 168 143 Q168 152 170 164 L236 536 Q238 550 243.5 564 Q249 578 259 586 Q275 598 302 598 Q331 598 342 586 Q350 577 350 558 Q350 550 348 536 L337 474 L447 474 L458 536 Q462 556 462 576 Q462 632 431 667 Q393 708 322 708 Q251 708 199 667 Q140 617 126 536 L60 164 Q56 136 56 125 Q56 71 87 33 Q125 -8 196 -8 Z " />
<glyph glyph-name="uni0193" unicode="&#x193;" horiz-adv-x="395" d="M433 709 Q438 738 462 758 Q486 778 514 778 L504 723 Q498 723 493.5 719 Q489 715 488 709 L447 474 L337 474 L348 536 Q350 550 350 558 Q350 577 342 586 Q331 598 302 598 Q275 598 259 586 Q249 578 243.5 564 Q238 550 236 536 L170 164 Q168 152 168 143 Q168 123 176 114 Q187 102 215 102 Q243 102 259 114 Q275 127 282 164 L305 295 L250 295 L269 405 L434 405 L392 164 Q378 81 319 33 Q267 -8 196 -8 Q125 -8 87 33 Q56 71 56 125 Q56 136 60 164 L126 536 Q140 617 199 667 Q251 708 322 708 Q389 708 426 671 L433 709 Z " />
<glyph glyph-name="H" unicode="H" horiz-adv-x="412" d="M385 700 L495 700 L372 0 L262 0 L316 304 L204 304 L150 0 L40 0 L163 700 L273 700 L223 414 L335 414 L385 700 Z " />
<glyph glyph-name="Hbar" unicode="&#x126;" horiz-adv-x="422" d="M516 564 L507 509 L467 509 L377 0 L267 0 L321 304 L209 304 L155 0 L45 0 L135 509 L95 509 L104 564 L144 564 L168 700 L278 700 L254 564 L366 564 L390 700 L500 700 L476 564 L516 564 Z M340 414 L357 509 L245 509 L228 414 L340 414 Z " />
<glyph glyph-name="uni1E24" unicode="&#x1e24;" horiz-adv-x="412" d="M385 700 L495 700 L372 0 L262 0 L316 304 L204 304 L150 0 L40 0 L163 700 L273 700 L223 414 L335 414 L385 700 Z M141 -90 Q140 -93 140 -99 Q140 -116 151.5 -127.5 Q163 -139 181 -139 Q201 -139 218 -124.5 Q235 -110 239 -90 Q240 -87 240 -81 Q240 -63 228.5 -51.5 Q217 -40 199 -40 Q179 -40 162 -54.5 Q145 -69 141 -90 Z " />
<glyph glyph-name="uniA7AA" unicode="&#xa7aa;" horiz-adv-x="463" d="M546 700 L423 0 L313 0 L367 304 L255 304 L201 0 L91 0 L205 645 L163 645 Q157 645 152.5 641 Q148 637 146 631 L91 631 Q96 660 120 680 Q144 700 172 700 L324 700 L274 414 L386 414 L436 700 L546 700 Z " />
<glyph glyph-name="I" unicode="I" horiz-adv-x="190" d="M150 0 L273 700 L163 700 L40 0 L150 0 Z " />
<glyph glyph-name="Iacute" unicode="&#xcd;" horiz-adv-x="190" d="M150 0 L273 700 L163 700 L40 0 L150 0 Z M252 737 L381 847 L271 847 L197 737 L252 737 Z " />
<glyph glyph-name="uni01CF" unicode="&#x1cf;" horiz-adv-x="189" d="M150 0 L273 700 L163 700 L40 0 L150 0 Z M354 847 L280 737 L170 737 L133 847 L189 847 L235 792 L299 847 L354 847 Z " />
<glyph glyph-name="Icircumflex" unicode="&#xce;" horiz-adv-x="189" d="M150 0 L273 700 L163 700 L40 0 L150 0 Z M335 737 L280 737 L235 792 L170 737 L114 737 L189 847 L299 847 L335 737 Z " />
<glyph glyph-name="Idieresis" unicode="&#xcf;" horiz-adv-x="190" d="M150 0 L273 700 L163 700 L40 0 L150 0 Z M108 785 Q105 765 117 750.5 Q129 736 149 736 Q169 736 186 750.5 Q203 765 206 785 Q207 788 207 794 Q207 812 195.5 823.5 Q184 835 166 835 Q146 835 129 820.5 Q112 806 108 785 Z M260 785 Q257 765 269 750.5 Q281 736 301 736 Q321 736 338 750.5 Q355 765 358 785 Q359 788 359 794 Q359 812 347.5 823.5 Q336 835 318 835 Q298 835 281 820.5 Q264 806 260 785 Z " />
<glyph glyph-name="uni1E2E" unicode="&#x1e2e;" horiz-adv-x="190" d="M108 785 Q105 765 117 750.5 Q129 736 149 736 Q169 736 186 750.5 Q203 765 206 785 Q207 788 207 794 Q207 812 195.5 823.5 Q184 835 166 835 Q146 835 129 820.5 Q112 806 108 785 Z M260 785 Q257 765 269 750.5 Q281 736 301 736 Q321 736 338 750.5 Q355 765 358 785 Q359 788 359 794 Q359 812 347.5 823.5 Q336 835 318 835 Q298 835 281 820.5 Q264 806 260 785 Z M150 0 L273 700 L163 700 L40 0 L150 0 Z M275 868 L404 978 L294 978 L220 868 L275 868 Z " />
<glyph glyph-name="Idot" unicode="&#x130;" horiz-adv-x="190" d="M150 0 L273 700 L163 700 L40 0 L150 0 Z M184 785 Q181 765 193 750.5 Q205 736 225 736 Q245 736 262 750.5 Q279 765 282 785 Q283 788 283 794 Q283 812 271.5 823.5 Q260 835 242 835 Q222 835 205 820.5 Q188 806 184 785 Z " />
<glyph glyph-name="uni1ECA" unicode="&#x1eca;" horiz-adv-x="190" d="M150 0 L273 700 L163 700 L40 0 L150 0 Z M30 -90 Q29 -93 29 -99 Q29 -116 40.5 -127.5 Q52 -139 70 -139 Q90 -139 107 -124.5 Q124 -110 128 -90 Q129 -87 129 -81 Q129 -63 117.5 -51.5 Q106 -40 88 -40 Q68 -40 51 -54.5 Q34 -69 30 -90 Z " />
<glyph glyph-name="Igrave" unicode="&#xcc;" horiz-adv-x="190" d="M150 0 L273 700 L163 700 L40 0 L150 0 Z M198 737 L253 737 L217 847 L107 847 L198 737 Z " />
<glyph glyph-name="uni1EC8" unicode="&#x1ec8;" horiz-adv-x="190" d="M150 0 L273 700 L163 700 L40 0 L150 0 Z M165 844 Q205 844 230 819 Q255 794 255 755 Q255 749 253 737 L198 737 Q199 740 199 746 Q199 765 186.5 777 Q174 789 155 789 L118 834 Q139 844 165 844 Z " />
<glyph glyph-name="Imacron" unicode="&#x12a;" horiz-adv-x="190" d="M150 0 L273 700 L163 700 L40 0 L150 0 Z M336 737 L346 792 L124 792 L114 737 L336 737 Z " />
<glyph glyph-name="Iogonek" unicode="&#x12e;" horiz-adv-x="192" d="M275 700 L152 0 Q131 -4 112.5 -20.5 Q94 -37 90 -56 Q87 -70 98 -75.5 Q109 -81 122 -81 L131 -81 L121 -136 L102 -136 Q69 -136 47 -123.5 Q25 -111 25 -86 Q25 -80 26 -77 Q31 -53 51.5 -32 Q72 -11 96 0 L42 0 L165 700 L275 700 Z " />
<glyph glyph-name="uni0197" unicode="&#x197;" horiz-adv-x="200" d="M263 387 L254 332 L214 332 L155 0 L45 0 L104 332 L64 332 L73 387 L113 387 L168 700 L278 700 L223 387 L263 387 Z " />
<glyph glyph-name="Itilde" unicode="&#x128;" horiz-adv-x="190" d="M150 0 L273 700 L163 700 L40 0 L150 0 Z M136 735 Q162 764 179 767 Q195 771 216 756 Q244 735 273 735 Q317 735 367 791 L328 823 Q304 796 287 791 Q273 788 254 802 Q225 823 196 823 Q189 823 177 821 Q140 812 97 768 L136 735 Z " />
<glyph glyph-name="J" unicode="J" horiz-adv-x="382" d="M180 -8 Q250 -8 303 33 Q362 83 376 164 L470 700 L360 700 L266 164 Q259 127 242 114 Q226 102 199 102 Q170 102 159 114 Q152 121 152 140 Q152 150 154 164 L169 251 L59 251 L44 164 Q40 144 40 124 Q40 68 71 33 Q107 -8 180 -8 Z " />
<glyph glyph-name="K" unicode="K" horiz-adv-x="404" d="M315 368 L391 0 L273 0 L227 224 L174 137 L150 0 L40 0 L163 700 L273 700 L223 416 L395 700 L514 700 L315 368 Z " />
<glyph glyph-name="Kcommaaccent" unicode="&#x136;" horiz-adv-x="404" d="M315 368 L391 0 L273 0 L227 224 L174 137 L150 0 L40 0 L163 700 L273 700 L223 416 L395 700 L514 700 L315 368 Z M247 -79 Q244 -100 225 -125 Q209 -148 182 -179 L146 -179 L161 -151 Q167 -139 167 -133 Q167 -126 162 -122 Q155 -114 151 -106.5 Q147 -99 147 -88 Q147 -82 148 -79 Q152 -59 169 -44.5 Q186 -30 206 -30 Q225 -30 236.5 -41.5 Q248 -53 248 -70 Q248 -76 247 -79 Z " />
<glyph glyph-name="uni0198" unicode="&#x198;" horiz-adv-x="459" d="M532 700 Q558 700 574.5 683.5 Q591 667 591 643 Q591 635 590 631 L535 631 L535 634 Q535 639 531.5 642 Q528 645 523 645 L482 645 L315 368 L391 0 L273 0 L227 224 L174 137 L150 0 L40 0 L163 700 L273 700 L223 416 L395 700 L532 700 Z " />
<glyph glyph-name="L" unicode="L" horiz-adv-x="343" d="M330 0 L349 110 L169 110 L273 700 L163 700 L40 0 L330 0 Z " />
<glyph glyph-name="Lacute" unicode="&#x139;" horiz-adv-x="343" d="M330 0 L349 110 L169 110 L273 700 L163 700 L40 0 L330 0 Z M252 737 L381 847 L271 847 L197 737 L252 737 Z " />
<glyph glyph-name="Lcaron" unicode="&#x13d;" horiz-adv-x="343" d="M330 0 L349 110 L169 110 L273 700 L163 700 L40 0 L330 0 Z M424 651 Q420 631 402 605 Q386 582 359 551 L323 551 L338 579 Q344 591 344 597 Q344 604 339 608 Q332 616 328 623.5 Q324 631 324 642 Q324 648 325 651 Q329 671 345.5 685.5 Q362 700 382 700 Q401 700 413 688.5 Q425 677 425 660 Q425 654 424 651 Z " />
<glyph glyph-name="uni1E3C" unicode="&#x1e3c;" horiz-adv-x="343" d="M330 0 L349 110 L169 110 L273 700 L163 700 L40 0 L330 0 Z M270 -150 L215 -150 L169 -95 L105 -150 L49 -150 L124 -40 L234 -40 L270 -150 Z " />
<glyph glyph-name="Lcommaaccent" unicode="&#x13b;" horiz-adv-x="343" d="M330 0 L349 110 L169 110 L273 700 L163 700 L40 0 L330 0 Z M228 -89 Q225 -110 206 -135 Q196 -150 164 -189 L128 -189 Q134 -175 143 -161 Q149 -149 149 -143 Q149 -137 144 -132 Q128 -116 128 -98 Q128 -92 129 -89 Q133 -69 150 -54.5 Q167 -40 187 -40 Q206 -40 217.5 -51.5 Q229 -63 229 -80 Q229 -86 228 -89 Z " />
<glyph glyph-name="uni1E36" unicode="&#x1e36;" horiz-adv-x="343" d="M330 0 L349 110 L169 110 L273 700 L163 700 L40 0 L330 0 Z M130 -90 Q129 -93 129 -99 Q129 -116 140.5 -127.5 Q152 -139 170 -139 Q190 -139 207 -124.5 Q224 -110 228 -90 Q229 -87 229 -81 Q229 -63 217.5 -51.5 Q206 -40 188 -40 Q168 -40 151 -54.5 Q134 -69 130 -90 Z " />
<glyph glyph-name="Lslash" unicode="&#x141;" horiz-adv-x="352" d="M223 365 L368 495 L353 415 L209 285 L178 110 L358 110 L339 0 L49 0 L78 167 L20 114 L34 195 L93 247 L172 700 L282 700 L223 365 Z " />
<glyph glyph-name="M" unicode="M" horiz-adv-x="542" d="M562 700 L625 700 L502 0 L392 0 L454 349 L322 110 L258 110 L212 349 L150 0 L40 0 L163 700 L226 700 L326 312 L562 700 Z " />
<glyph glyph-name="uni1E3E" unicode="&#x1e3e;" horiz-adv-x="542" d="M562 700 L625 700 L502 0 L392 0 L454 349 L322 110 L258 110 L212 349 L150 0 L40 0 L163 700 L226 700 L326 312 L562 700 Z M428 737 L557 847 L447 847 L373 737 L428 737 Z " />
<glyph glyph-name="N" unicode="N" horiz-adv-x="414" d="M501 700 L378 0 L314 0 L209 355 L146 0 L36 0 L159 700 L223 700 L329 346 L391 700 L501 700 Z " />
<glyph glyph-name="Nacute" unicode="&#x143;" horiz-adv-x="414" d="M501 700 L378 0 L314 0 L209 355 L146 0 L36 0 L159 700 L223 700 L329 346 L391 700 L501 700 Z M364 737 L493 847 L383 847 L309 737 L364 737 Z " />
<glyph glyph-name="Ncaron" unicode="&#x147;" horiz-adv-x="414" d="M501 700 L378 0 L314 0 L209 355 L146 0 L36 0 L159 700 L223 700 L329 346 L391 700 L501 700 Z M466 847 L392 737 L282 737 L245 847 L301 847 L347 792 L411 847 L466 847 Z " />
<glyph glyph-name="uni1E4A" unicode="&#x1e4a;" horiz-adv-x="414" d="M501 700 L378 0 L314 0 L209 355 L146 0 L36 0 L159 700 L223 700 L329 346 L391 700 L501 700 Z M291 -150 L236 -150 L190 -95 L126 -150 L70 -150 L145 -40 L255 -40 L291 -150 Z " />
<glyph glyph-name="Ncommaaccent" unicode="&#x145;" horiz-adv-x="414" d="M501 700 L378 0 L314 0 L209 355 L146 0 L36 0 L159 700 L223 700 L329 346 L391 700 L501 700 Z M241 -89 Q238 -110 219 -135 Q209 -150 177 -189 L141 -189 Q147 -175 156 -161 Q162 -149 162 -143 Q162 -137 157 -132 Q141 -116 141 -98 Q141 -92 142 -89 Q146 -69 163 -54.5 Q180 -40 200 -40 Q219 -40 230.5 -51.5 Q242 -63 242 -80 Q242 -86 241 -89 Z " />
<glyph glyph-name="uni1E44" unicode="&#x1e44;" horiz-adv-x="414" d="M501 700 L378 0 L314 0 L209 355 L146 0 L36 0 L159 700 L223 700 L329 346 L391 700 L501 700 Z M296 785 Q293 765 305 750.5 Q317 736 337 736 Q357 736 374 750.5 Q391 765 394 785 Q395 788 395 794 Q395 812 383.5 823.5 Q372 835 354 835 Q334 835 317 820.5 Q300 806 296 785 Z " />
<glyph glyph-name="uni1E46" unicode="&#x1e46;" horiz-adv-x="414" d="M501 700 L378 0 L314 0 L209 355 L146 0 L36 0 L159 700 L223 700 L329 346 L391 700 L501 700 Z M142 -90 Q141 -93 141 -99 Q141 -116 152.5 -127.5 Q164 -139 182 -139 Q202 -139 219 -124.5 Q236 -110 240 -90 Q241 -87 241 -81 Q241 -63 229.5 -51.5 Q218 -40 200 -40 Q180 -40 163 -54.5 Q146 -69 142 -90 Z " />
<glyph glyph-name="Eng" unicode="&#x14a;" horiz-adv-x="414" d="M501 700 L371 -42 Q366 -70 342 -90.5 Q318 -111 289 -111 L299 -56 Q305 -56 309.5 -52 Q314 -48 316 -42 L323 0 L209 355 L146 0 L36 0 L159 700 L223 700 L329 346 L391 700 L501 700 Z " />
<glyph glyph-name="uni019D" unicode="&#x19d;" horiz-adv-x="414" d="M501 700 L378 0 L314 0 L209 355 L146 0 Q135 -66 102 -88.5 Q69 -111 2 -111 L12 -56 Q18 -56 22.5 -52 Q27 -48 29 -42 L159 700 L223 700 L329 346 L391 700 L501 700 Z " />
<glyph glyph-name="Ntilde" unicode="&#xd1;" horiz-adv-x="414" d="M501 700 L378 0 L314 0 L209 355 L146 0 L36 0 L159 700 L223 700 L329 346 L391 700 L501 700 Z M248 735 Q274 764 291 767 Q307 771 328 756 Q356 735 385 735 Q429 735 479 791 L440 823 Q416 796 399 791 Q385 788 366 802 Q338 823 308 823 Q301 823 289 821 Q252 812 209 768 L248 735 Z " />
<glyph glyph-name="O" unicode="O" horiz-adv-x="394" d="M196 -8 Q267 -8 319 33 Q378 81 392 164 L458 536 Q462 556 462 576 Q462 632 431 667 Q393 708 322 708 Q249 708 199 667 Q140 619 126 536 L60 164 Q56 144 56 124 Q56 68 87 33 Q123 -8 196 -8 Z M302 598 Q331 598 341 586 Q350 577 350 557 Q350 548 348 536 L282 164 Q275 126 258 114 Q244 102 215 102 Q187 102 176 114 Q168 123 168 143 Q168 152 170 164 L236 536 Q238 550 243.5 564 Q249 578 259 586 Q275 598 302 598 Z " />
<glyph glyph-name="Oacute" unicode="&#xd3;" horiz-adv-x="394" d="M196 -8 Q267 -8 319 33 Q378 81 392 164 L458 536 Q462 556 462 576 Q462 632 431 667 Q393 708 322 708 Q249 708 199 667 Q140 619 126 536 L60 164 Q56 144 56 124 Q56 68 87 33 Q123 -8 196 -8 Z M302 598 Q331 598 341 586 Q350 577 350 557 Q350 548 348 536 L282 164 Q275 126 258 114 Q244 102 215 102 Q187 102 176 114 Q168 123 168 143 Q168 152 170 164 L236 536 Q238 550 243.5 564 Q249 578 259 586 Q275 598 302 598 Z M354 737 L483 847 L373 847 L299 737 L354 737 Z " />
<glyph glyph-name="uni01D1" unicode="&#x1d1;" horiz-adv-x="394" d="M196 -8 Q267 -8 319 33 Q378 81 392 164 L458 536 Q462 556 462 576 Q462 632 431 667 Q393 708 322 708 Q249 708 199 667 Q140 619 126 536 L60 164 Q56 144 56 124 Q56 68 87 33 Q123 -8 196 -8 Z M302 598 Q331 598 341 586 Q350 577 350 557 Q350 548 348 536 L282 164 Q275 126 258 114 Q244 102 215 102 Q187 102 176 114 Q168 123 168 143 Q168 152 170 164 L236 536 Q238 550 243.5 564 Q249 578 259 586 Q275 598 302 598 Z M236 847 L291 847 L337 792 L401 847 L457 847 L382 737 L272 737 L236 847 Z " />
<glyph glyph-name="Ocircumflex" unicode="&#xd4;" horiz-adv-x="394" d="M196 -8 Q267 -8 319 33 Q378 81 392 164 L458 536 Q462 556 462 576 Q462 632 431 667 Q393 708 322 708 Q249 708 199 667 Q140 619 126 536 L60 164 Q56 144 56 124 Q56 68 87 33 Q123 -8 196 -8 Z M302 598 Q331 598 341 586 Q350 577 350 557 Q350 548 348 536 L282 164 Q275 126 258 114 Q244 102 215 102 Q187 102 176 114 Q168 123 168 143 Q168 152 170 164 L236 536 Q238 550 243.5 564 Q249 578 259 586 Q275 598 302 598 Z M217 737 L291 847 L401 847 L438 737 L382 737 L337 792 L272 737 L217 737 Z " />
<glyph glyph-name="uni1ED0" unicode="&#x1ed0;" horiz-adv-x="394" d="M196 -8 Q267 -8 319 33 Q378 81 392 164 L458 536 Q462 556 462 576 Q462 632 431 667 Q393 708 322 708 Q249 708 199 667 Q140 619 126 536 L60 164 Q56 144 56 124 Q56 68 87 33 Q123 -8 196 -8 Z M302 598 Q331 598 341 586 Q350 577 350 557 Q350 548 348 536 L282 164 Q275 126 258 114 Q244 102 215 102 Q187 102 176 114 Q168 123 168 143 Q168 152 170 164 L236 536 Q238 550 243.5 564 Q249 578 259 586 Q275 598 302 598 Z M490 837 L619 947 L509 947 L435 837 L490 837 Z M217 737 L291 847 L401 847 L438 737 L382 737 L337 792 L272 737 L217 737 Z " />
<glyph glyph-name="uni1ED8" unicode="&#x1ed8;" horiz-adv-x="394" d="M196 -8 Q267 -8 319 33 Q378 81 392 164 L458 536 Q462 556 462 576 Q462 632 431 667 Q393 708 322 708 Q249 708 199 667 Q140 619 126 536 L60 164 Q56 144 56 124 Q56 68 87 33 Q123 -8 196 -8 Z M302 598 Q331 598 341 586 Q350 577 350 557 Q350 548 348 536 L282 164 Q275 126 258 114 Q244 102 215 102 Q187 102 176 114 Q168 123 168 143 Q168 152 170 164 L236 536 Q238 550 243.5 564 Q249 578 259 586 Q275 598 302 598 Z M217 737 L291 847 L401 847 L438 737 L382 737 L337 792 L272 737 L217 737 Z M132 -90 Q131 -93 131 -99 Q131 -116 142.5 -127.5 Q154 -139 172 -139 Q192 -139 209 -124.5 Q226 -110 230 -90 Q231 -87 231 -81 Q231 -63 219.5 -51.5 Q208 -40 190 -40 Q170 -40 153 -54.5 Q136 -69 132 -90 Z " />
<glyph glyph-name="uni1ED2" unicode="&#x1ed2;" horiz-adv-x="394" d="M196 -8 Q267 -8 319 33 Q378 81 392 164 L458 536 Q462 556 462 576 Q462 632 431 667 Q393 708 322 708 Q249 708 199 667 Q140 619 126 536 L60 164 Q56 144 56 124 Q56 68 87 33 Q123 -8 196 -8 Z M302 598 Q331 598 341 586 Q350 577 350 557 Q350 548 348 536 L282 164 Q275 126 258 114 Q244 102 215 102 Q187 102 176 114 Q168 123 168 143 Q168 152 170 164 L236 536 Q238 550 243.5 564 Q249 578 259 586 Q275 598 302 598 Z M435 837 L490 837 L454 947 L344 947 L435 837 Z M217 737 L291 847 L401 847 L438 737 L382 737 L337 792 L272 737 L217 737 Z " />
<glyph glyph-name="uni1ED4" unicode="&#x1ed4;" horiz-adv-x="394" d="M196 -8 Q267 -8 319 33 Q378 81 392 164 L458 536 Q462 556 462 576 Q462 632 431 667 Q393 708 322 708 Q249 708 199 667 Q140 619 126 536 L60 164 Q56 144 56 124 Q56 68 87 33 Q123 -8 196 -8 Z M302 598 Q331 598 341 586 Q350 577 350 557 Q350 548 348 536 L282 164 Q275 126 258 114 Q244 102 215 102 Q187 102 176 114 Q168 123 168 143 Q168 152 170 164 L236 536 Q238 550 243.5 564 Q249 578 259 586 Q275 598 302 598 Z M401 944 Q440 944 466 918.5 Q492 893 492 855 Q492 849 490 837 L435 837 Q436 840 436 846 Q436 865 423.5 877 Q411 889 392 889 L355 934 Q376 944 401 944 Z M217 737 L291 847 L401 847 L438 737 L382 737 L337 792 L272 737 L217 737 Z " />
<glyph glyph-name="uni1ED6" unicode="&#x1ed6;" horiz-adv-x="394" d="M196 -8 Q267 -8 319 33 Q378 81 392 164 L458 536 Q462 556 462 576 Q462 632 431 667 Q393 708 322 708 Q249 708 199 667 Q140 619 126 536 L60 164 Q56 144 56 124 Q56 68 87 33 Q123 -8 196 -8 Z M302 598 Q331 598 341 586 Q350 577 350 557 Q350 548 348 536 L282 164 Q275 126 258 114 Q244 102 215 102 Q187 102 176 114 Q168 123 168 143 Q168 152 170 164 L236 536 Q238 550 243.5 564 Q249 578 259 586 Q275 598 302 598 Z M437 737 L382 737 L337 792 L272 737 L216 737 L291 847 L401 847 L437 737 Z M259 868 Q285 897 303 900 Q318 904 340 889 Q367 868 396 868 Q422 868 445 883.5 Q468 899 491 924 L452 956 Q426 929 411 924 Q397 921 378 935 Q348 956 319 956 Q312 956 300 954 Q262 945 221 901 L259 868 Z " />
<glyph glyph-name="Odieresis" unicode="&#xd6;" horiz-adv-x="394" d="M196 -8 Q267 -8 319 33 Q378 81 392 164 L458 536 Q462 556 462 576 Q462 632 431 667 Q393 708 322 708 Q249 708 199 667 Q140 619 126 536 L60 164 Q56 144 56 124 Q56 68 87 33 Q123 -8 196 -8 Z M302 598 Q331 598 341 586 Q350 577 350 557 Q350 548 348 536 L282 164 Q275 126 258 114 Q244 102 215 102 Q187 102 176 114 Q168 123 168 143 Q168 152 170 164 L236 536 Q238 550 243.5 564 Q249 578 259 586 Q275 598 302 598 Z M210 785 Q207 765 219 750.5 Q231 736 251 736 Q271 736 288 750.5 Q305 765 308 785 Q309 788 309 794 Q309 812 297.5 823.5 Q286 835 268 835 Q248 835 231 820.5 Q214 806 210 785 Z M362 785 Q359 765 371 750.5 Q383 736 403 736 Q423 736 440 750.5 Q457 765 460 785 Q461 788 461 794 Q461 812 449.5 823.5 Q438 835 420 835 Q400 835 383 820.5 Q366 806 362 785 Z " />
<glyph glyph-name="uni022A" unicode="&#x22a;" horiz-adv-x="394" d="M196 -8 Q267 -8 319 33 Q378 81 392 164 L458 536 Q462 556 462 576 Q462 632 431 667 Q393 708 322 708 Q249 708 199 667 Q140 619 126 536 L60 164 Q56 144 56 124 Q56 68 87 33 Q123 -8 196 -8 Z M302 598 Q331 598 341 586 Q350 577 350 557 Q350 548 348 536 L282 164 Q275 126 258 114 Q244 102 215 102 Q187 102 176 114 Q168 123 168 143 Q168 152 170 164 L236 536 Q238 550 243.5 564 Q249 578 259 586 Q275 598 302 598 Z M210 785 Q207 765 219 750.5 Q231 736 251 736 Q271 736 288 750.5 Q305 765 308 785 Q309 788 309 794 Q309 812 297.5 823.5 Q286 835 268 835 Q248 835 231 820.5 Q214 806 210 785 Z M362 785 Q359 765 371 750.5 Q383 736 403 736 Q423 736 440 750.5 Q457 765 460 785 Q461 788 461 794 Q461 812 449.5 823.5 Q438 835 420 835 Q400 835 383 820.5 Q366 806 362 785 Z M461 868 L471 923 L249 923 L239 868 L461 868 Z " />
<glyph glyph-name="uni1ECC" unicode="&#x1ecc;" horiz-adv-x="394" d="M196 -8 Q267 -8 319 33 Q378 81 392 164 L458 536 Q462 556 462 576 Q462 632 431 667 Q393 708 322 708 Q249 708 199 667 Q140 619 126 536 L60 164 Q56 144 56 124 Q56 68 87 33 Q123 -8 196 -8 Z M302 598 Q331 598 341 586 Q350 577 350 557 Q350 548 348 536 L282 164 Q275 126 258 114 Q244 102 215 102 Q187 102 176 114 Q168 123 168 143 Q168 152 170 164 L236 536 Q238 550 243.5 564 Q249 578 259 586 Q275 598 302 598 Z M132 -90 Q131 -93 131 -99 Q131 -116 142.5 -127.5 Q154 -139 172 -139 Q192 -139 209 -124.5 Q226 -110 230 -90 Q231 -87 231 -81 Q231 -63 219.5 -51.5 Q208 -40 190 -40 Q170 -40 153 -54.5 Q136 -69 132 -90 Z " />
<glyph glyph-name="Ograve" unicode="&#xd2;" horiz-adv-x="394" d="M196 -8 Q267 -8 319 33 Q378 81 392 164 L458 536 Q462 556 462 576 Q462 632 431 667 Q393 708 322 708 Q249 708 199 667 Q140 619 126 536 L60 164 Q56 144 56 124 Q56 68 87 33 Q123 -8 196 -8 Z M302 598 Q331 598 341 586 Q350 577 350 557 Q350 548 348 536 L282 164 Q275 126 258 114 Q244 102 215 102 Q187 102 176 114 Q168 123 168 143 Q168 152 170 164 L236 536 Q238 550 243.5 564 Q249 578 259 586 Q275 598 302 598 Z M300 737 L355 737 L319 847 L209 847 L300 737 Z " />
<glyph glyph-name="uni1ECE" unicode="&#x1ece;" horiz-adv-x="394" d="M196 -8 Q267 -8 319 33 Q378 81 392 164 L458 536 Q462 556 462 576 Q462 632 431 667 Q393 708 322 708 Q249 708 199 667 Q140 619 126 536 L60 164 Q56 144 56 124 Q56 68 87 33 Q123 -8 196 -8 Z M302 598 Q331 598 341 586 Q350 577 350 557 Q350 548 348 536 L282 164 Q275 126 258 114 Q244 102 215 102 Q187 102 176 114 Q168 123 168 143 Q168 152 170 164 L236 536 Q238 550 243.5 564 Q249 578 259 586 Q275 598 302 598 Z M267 844 Q307 844 332 819 Q357 794 357 755 Q357 749 355 737 L300 737 Q301 740 301 746 Q301 765 288.5 777 Q276 789 257 789 L220 834 Q241 844 267 844 Z " />
<glyph glyph-name="Ohorn" unicode="&#x1a0;" horiz-adv-x="414" d="M561 722 Q557 694 532.5 673.5 Q508 653 479 653 L441 653 Q462 621 462 576 Q462 556 458 536 L392 164 Q378 81 319 33 Q267 -8 196 -8 Q123 -8 87 33 Q56 68 56 124 Q56 144 60 164 L126 536 Q140 619 199 667 Q249 708 322 708 L489 708 Q495 708 500 712 Q505 716 506 722 L561 722 Z M348 536 Q350 548 350 557 Q350 577 341 586 Q331 598 302 598 Q275 598 259 586 Q249 578 243.5 564 Q238 550 236 536 L170 164 Q168 152 168 143 Q168 123 176 114 Q187 102 215 102 Q244 102 258 114 Q275 126 282 164 L348 536 Z " />
<glyph glyph-name="uni1EDA" unicode="&#x1eda;" horiz-adv-x="414" d="M561 722 Q557 694 532.5 673.5 Q508 653 479 653 L441 653 Q462 621 462 576 Q462 556 458 536 L392 164 Q378 81 319 33 Q267 -8 196 -8 Q123 -8 87 33 Q56 68 56 124 Q56 144 60 164 L126 536 Q140 619 199 667 Q249 708 322 708 L489 708 Q495 708 500 712 Q505 716 506 722 L561 722 Z M348 536 Q350 548 350 557 Q350 577 341 586 Q331 598 302 598 Q275 598 259 586 Q249 578 243.5 564 Q238 550 236 536 L170 164 Q168 152 168 143 Q168 123 176 114 Q187 102 215 102 Q244 102 258 114 Q275 126 282 164 L348 536 Z M354 737 L483 847 L373 847 L299 737 L354 737 Z " />
<glyph glyph-name="uni1EE2" unicode="&#x1ee2;" horiz-adv-x="414" d="M561 722 Q557 694 532.5 673.5 Q508 653 479 653 L441 653 Q462 621 462 576 Q462 556 458 536 L392 164 Q378 81 319 33 Q267 -8 196 -8 Q123 -8 87 33 Q56 68 56 124 Q56 144 60 164 L126 536 Q140 619 199 667 Q249 708 322 708 L489 708 Q495 708 500 712 Q505 716 506 722 L561 722 Z M348 536 Q350 548 350 557 Q350 577 341 586 Q331 598 302 598 Q275 598 259 586 Q249 578 243.5 564 Q238 550 236 536 L170 164 Q168 152 168 143 Q168 123 176 114 Q187 102 215 102 Q244 102 258 114 Q275 126 282 164 L348 536 Z M132 -90 Q131 -93 131 -99 Q131 -116 142.5 -127.5 Q154 -139 172 -139 Q192 -139 209 -124.5 Q226 -110 230 -90 Q231 -87 231 -81 Q231 -63 219.5 -51.5 Q208 -40 190 -40 Q170 -40 153 -54.5 Q136 -69 132 -90 Z " />
<glyph glyph-name="uni1EDC" unicode="&#x1edc;" horiz-adv-x="414" d="M561 722 Q557 694 532.5 673.5 Q508 653 479 653 L441 653 Q462 621 462 576 Q462 556 458 536 L392 164 Q378 81 319 33 Q267 -8 196 -8 Q123 -8 87 33 Q56 68 56 124 Q56 144 60 164 L126 536 Q140 619 199 667 Q249 708 322 708 L489 708 Q495 708 500 712 Q505 716 506 722 L561 722 Z M348 536 Q350 548 350 557 Q350 577 341 586 Q331 598 302 598 Q275 598 259 586 Q249 578 243.5 564 Q238 550 236 536 L170 164 Q168 152 168 143 Q168 123 176 114 Q187 102 215 102 Q244 102 258 114 Q275 126 282 164 L348 536 Z M300 737 L355 737 L319 847 L209 847 L300 737 Z " />
<glyph glyph-name="uni1EDE" unicode="&#x1ede;" horiz-adv-x="414" d="M561 722 Q557 694 532.5 673.5 Q508 653 479 653 L441 653 Q462 621 462 576 Q462 556 458 536 L392 164 Q378 81 319 33 Q267 -8 196 -8 Q123 -8 87 33 Q56 68 56 124 Q56 144 60 164 L126 536 Q140 619 199 667 Q249 708 322 708 L489 708 Q495 708 500 712 Q505 716 506 722 L561 722 Z M348 536 Q350 548 350 557 Q350 577 341 586 Q331 598 302 598 Q275 598 259 586 Q249 578 243.5 564 Q238 550 236 536 L170 164 Q168 152 168 143 Q168 123 176 114 Q187 102 215 102 Q244 102 258 114 Q275 126 282 164 L348 536 Z M267 844 Q307 844 332 819 Q357 794 357 755 Q357 749 355 737 L300 737 Q301 740 301 746 Q301 765 288.5 777 Q276 789 257 789 L220 834 Q241 844 267 844 Z " />
<glyph glyph-name="uni1EE0" unicode="&#x1ee0;" horiz-adv-x="414" d="M561 722 Q557 694 532.5 673.5 Q508 653 479 653 L441 653 Q462 621 462 576 Q462 556 458 536 L392 164 Q378 81 319 33 Q267 -8 196 -8 Q123 -8 87 33 Q56 68 56 124 Q56 144 60 164 L126 536 Q140 619 199 667 Q249 708 322 708 L489 708 Q495 708 500 712 Q505 716 506 722 L561 722 Z M348 536 Q350 548 350 557 Q350 577 341 586 Q331 598 302 598 Q275 598 259 586 Q249 578 243.5 564 Q238 550 236 536 L170 164 Q168 152 168 143 Q168 123 176 114 Q187 102 215 102 Q244 102 258 114 Q275 126 282 164 L348 536 Z M239 735 Q265 764 282 767 Q298 771 319 756 Q347 735 376 735 Q420 735 470 791 L431 823 Q407 796 390 791 Q376 788 357 802 Q328 823 299 823 Q292 823 280 821 Q243 812 200 768 L239 735 Z " />
<glyph glyph-name="Ohungarumlaut" unicode="&#x150;" horiz-adv-x="394" d="M196 -8 Q267 -8 319 33 Q378 81 392 164 L458 536 Q462 556 462 576 Q462 632 431 667 Q393 708 322 708 Q249 708 199 667 Q140 619 126 536 L60 164 Q56 144 56 124 Q56 68 87 33 Q123 -8 196 -8 Z M302 598 Q331 598 341 586 Q350 577 350 557 Q350 548 348 536 L282 164 Q275 126 258 114 Q244 102 215 102 Q187 102 176 114 Q168 123 168 143 Q168 152 170 164 L236 536 Q238 550 243.5 564 Q249 578 259 586 Q275 598 302 598 Z M280 737 L409 847 L299 847 L225 737 L280 737 Z M429 737 L558 847 L448 847 L374 737 L429 737 Z " />
<glyph glyph-name="Omacron" unicode="&#x14c;" horiz-adv-x="394" d="M196 -8 Q267 -8 319 33 Q378 81 392 164 L458 536 Q462 556 462 576 Q462 632 431 667 Q393 708 322 708 Q249 708 199 667 Q140 619 126 536 L60 164 Q56 144 56 124 Q56 68 87 33 Q123 -8 196 -8 Z M302 598 Q331 598 341 586 Q350 577 350 557 Q350 548 348 536 L282 164 Q275 126 258 114 Q244 102 215 102 Q187 102 176 114 Q168 123 168 143 Q168 152 170 164 L236 536 Q238 550 243.5 564 Q249 578 259 586 Q275 598 302 598 Z M438 737 L448 792 L226 792 L216 737 L438 737 Z " />
<glyph glyph-name="uni1E52" unicode="&#x1e52;" horiz-adv-x="394" d="M196 -8 Q267 -8 319 33 Q378 81 392 164 L458 536 Q462 556 462 576 Q462 632 431 667 Q393 708 322 708 Q249 708 199 667 Q140 619 126 536 L60 164 Q56 144 56 124 Q56 68 87 33 Q123 -8 196 -8 Z M302 598 Q330 598 341 586 Q349 577 349 555 Q349 542 348 536 L282 164 Q275 127 258 114 Q242 102 215 102 Q186 102 176 114 Q168 122 168 141 Q168 150 170 164 L236 536 Q241 572 259 586 Q273 598 302 598 Z M369 825 L499 935 L389 935 L314 825 L369 825 Z M216 737 L438 737 L448 792 L226 792 L216 737 Z " />
<glyph glyph-name="uni1E50" unicode="&#x1e50;" horiz-adv-x="394" d="M196 -8 Q267 -8 319 33 Q378 81 392 164 L458 536 Q462 556 462 576 Q462 632 431 667 Q393 708 322 708 Q249 708 199 667 Q140 619 126 536 L60 164 Q56 144 56 124 Q56 68 87 33 Q123 -8 196 -8 Z M302 598 Q331 598 341 586 Q350 577 350 557 Q350 548 348 536 L282 164 Q275 126 258 114 Q244 102 215 102 Q187 102 176 114 Q168 123 168 143 Q168 152 170 164 L236 536 Q238 550 243.5 564 Q249 578 259 586 Q275 598 302 598 Z M315 825 L370 825 L335 935 L225 935 L315 825 Z M438 737 L448 792 L226 792 L216 737 L438 737 Z " />
<glyph glyph-name="uni0186" unicode="&#x186;" horiz-adv-x="390" d="M192 -8 Q262 -8 315 33 Q374 83 388 164 L454 536 Q458 564 458 575 Q458 629 427 667 Q388 708 318 708 Q245 708 195 667 Q136 619 122 536 L111 474 L221 474 L232 536 Q237 572 254 586 Q270 598 298 598 Q326 598 337 586 Q345 577 345 555 Q345 542 344 536 L278 164 Q271 127 254 114 Q238 102 211 102 Q182 102 171 114 Q164 121 164 140 Q164 150 166 164 L182 254 L72 254 L56 164 Q52 144 52 124 Q52 68 83 33 Q119 -8 192 -8 Z " />
<glyph glyph-name="Oslash" unicode="&#xd8;" horiz-adv-x="394" d="M457 614 Q461 599 461 577 Q461 556 457 535 L392 163 Q376 79 319 32 Q267 -9 195 -9 Q123 -9 87 32 L52 -23 L6 0 L60 85 Q56 109 56 124 Q56 144 60 163 L125 535 Q140 617 198 666 Q250 707 322 707 Q394 707 430 667 L465 722 L511 700 L457 614 Z M193 294 L348 537 Q350 549 350 555 Q350 576 341 585 Q331 597 302 597 Q275 597 259 585 Q242 572 235 535 L193 294 Z M324 405 L170 162 Q168 150 168 141 Q168 122 176 113 Q187 101 215 101 Q244 101 258 113 Q275 125 282 163 L324 405 Z " />
<glyph glyph-name="Oslashacute" unicode="&#x1fe;" horiz-adv-x="394" d="M457 614 Q461 599 461 577 Q461 556 457 535 L392 163 Q376 79 319 32 Q267 -9 195 -9 Q123 -9 87 32 L52 -23 L6 0 L60 85 Q56 109 56 124 Q56 144 60 163 L125 535 Q140 617 198 666 Q250 707 322 707 Q394 707 430 667 L465 722 L511 700 L457 614 Z M193 294 L348 537 Q350 549 350 555 Q350 576 341 585 Q331 597 302 597 Q275 597 259 585 Q242 572 235 535 L193 294 Z M324 405 L170 162 Q168 150 168 141 Q168 122 176 113 Q187 101 215 101 Q244 101 258 113 Q275 125 282 163 L324 405 Z " />
<glyph glyph-name="Otilde" unicode="&#xd5;" horiz-adv-x="396" d="M169 161 Q167 145 167 140 Q167 92 214 92 Q272 92 283 161 L350 539 Q352 547 352 561 Q352 608 305 608 Q248 608 236 539 L169 161 Z M125 532 Q140 616 191 662 Q242 708 323 708 Q392 708 427.5 675 Q463 642 463 579 Q463 555 459 532 L395 168 Q380 84 329 38 Q278 -8 197 -8 Q128 -8 92.5 25 Q57 58 57 121 Q57 145 61 168 L125 532 Z M239 735 Q265 764 282 767 Q298 771 319 756 Q347 735 376 735 Q420 735 470 791 L431 823 Q407 796 390 791 Q376 788 357 802 Q328 823 299 823 Q292 823 280 821 Q243 812 200 768 L239 735 Z " />
<glyph glyph-name="uni1E4C" unicode="&#x1e4c;" horiz-adv-x="396" d="M169 161 Q167 145 167 140 Q167 92 214 92 Q272 92 283 161 L350 539 Q352 547 352 561 Q352 608 305 608 Q248 608 236 539 L169 161 Z M125 532 Q140 616 191 662 Q242 708 323 708 Q392 708 427.5 675 Q463 642 463 579 Q463 555 459 532 L395 168 Q380 84 329 38 Q278 -8 197 -8 Q128 -8 92.5 25 Q57 58 57 121 Q57 145 61 168 L125 532 Z M239 735 Q265 764 282 767 Q298 771 319 756 Q347 735 376 735 Q420 735 470 791 L431 823 Q407 796 390 791 Q376 788 357 802 Q328 823 299 823 Q292 823 280 821 Q243 812 200 768 L239 735 Z M376 855 L505 965 L395 965 L321 855 L376 855 Z " />
<glyph glyph-name="OE" unicode="&#x152;" horiz-adv-x="572" d="M468 590 L437 414 L561 414 L542 304 L418 304 L383 110 L563 110 L544 0 L197 0 Q126 0 88 41 Q57 76 57 132 Q57 152 61 172 L124 528 Q139 613 197 658 Q251 700 320 700 L667 700 L648 590 L468 590 Z M357 590 L301 590 Q274 590 258 578 Q241 563 234 528 L171 172 Q169 160 169 151 Q169 131 178 122 Q189 110 216 110 L272 110 L357 590 Z " />
<glyph glyph-name="P" unicode="P" horiz-adv-x="392" d="M199 280 L255 280 Q327 280 379 321 Q436 367 452 452 L465 528 Q469 548 469 568 Q469 623 438 658 Q401 700 329 700 L163 700 L40 0 L150 0 L199 280 Z M254 590 L310 590 Q338 590 349 578 Q357 569 357 549 Q357 540 355 528 L342 452 Q336 416 318 402 Q302 390 275 390 L219 390 L254 590 Z " />
<glyph glyph-name="uni01A4" unicode="&#x1a4;" horiz-adv-x="443" d="M489 658 Q520 623 520 568 Q520 548 516 528 L503 452 Q487 367 430 321 Q378 280 306 280 L250 280 L201 0 L91 0 L205 645 L163 645 Q157 645 152.5 641 Q148 637 146 631 L91 631 Q96 660 120 680 Q144 700 172 700 L380 700 Q452 700 489 658 Z M406 528 Q408 540 408 549 Q408 569 400 578 Q389 590 361 590 L305 590 L270 390 L326 390 Q353 390 369 402 Q387 416 393 452 L406 528 Z " />
<glyph glyph-name="Thorn" unicode="&#xde;" horiz-adv-x="392" d="M244 532 L300 532 Q327 532 339 520 Q347 511 347 491 Q347 482 345 470 L331 394 Q324 357 308 344 Q292 332 265 332 L209 332 L244 532 Z M189 222 L245 222 Q318 222 368 263 Q426 308 441 394 L455 470 Q459 490 459 510 Q459 565 428 600 Q391 642 319 642 L263 642 L273 700 L163 700 L40 0 L150 0 L189 222 Z " />
<glyph glyph-name="Q" unicode="Q" horiz-adv-x="401" d="M374 -22 L355 -132 L341 -132 Q270 -132 232 -91 Q203 -58 202 -8 L196 -8 Q161 -8 133 3 Q105 14 87 34 Q56 69 56 124 Q56 144 60 164 L126 536 Q141 622 199 667 Q223 687 255 697.5 Q287 708 322 708 Q393 708 431 667 Q462 632 462 576 Q462 556 458 536 L392 164 Q377 79 319 34 Q318 32 316.5 31.5 Q315 31 314 30 L314 18 Q314 -2 321 -10 Q332 -22 360 -22 L374 -22 Z M176 114 Q187 102 215 102 Q244 102 258 114 Q275 128 282 164 L348 536 Q350 550 350 557 Q350 577 341 586 Q331 598 302 598 Q275 598 259 586 Q243 573 236 536 L170 164 Q168 152 168 143 Q168 123 176 114 Z " />
<glyph glyph-name="R" unicode="R" horiz-adv-x="397" d="M369 0 L257 0 L250 281 L200 281 L150 0 L40 0 L163 700 L329 700 Q401 700 438 658 Q469 623 469 568 Q469 548 465 528 L452 453 Q438 369 379 322 Q371 315 360 309 L369 0 Z M355 528 Q357 540 357 549 Q357 569 349 578 Q338 590 310 590 L254 590 L219 391 L275 391 Q302 391 318 403 Q336 417 342 453 L355 528 Z " />
<glyph glyph-name="Racute" unicode="&#x154;" horiz-adv-x="397" d="M369 0 L257 0 L250 281 L200 281 L150 0 L40 0 L163 700 L329 700 Q401 700 438 658 Q469 623 469 568 Q469 548 465 528 L452 453 Q438 369 379 322 Q371 315 360 309 L369 0 Z M355 528 Q357 540 357 549 Q357 569 349 578 Q338 590 310 590 L254 590 L219 391 L275 391 Q302 391 318 403 Q336 417 342 453 L355 528 Z M364 737 L493 847 L383 847 L309 737 L364 737 Z " />
<glyph glyph-name="Rcaron" unicode="&#x158;" horiz-adv-x="397" d="M369 0 L257 0 L250 281 L200 281 L150 0 L40 0 L163 700 L329 700 Q401 700 438 658 Q469 623 469 568 Q469 548 465 528 L452 453 Q438 369 379 322 Q371 315 360 309 L369 0 Z M355 528 Q357 540 357 549 Q357 569 349 578 Q338 590 310 590 L254 590 L219 391 L275 391 Q302 391 318 403 Q336 417 342 453 L355 528 Z M465 847 L391 737 L281 737 L244 847 L300 847 L346 792 L410 847 L465 847 Z " />
<glyph glyph-name="Rcommaaccent" unicode="&#x156;" horiz-adv-x="397" d="M369 0 L257 0 L250 281 L200 281 L150 0 L40 0 L163 700 L329 700 Q401 700 438 658 Q469 623 469 568 Q469 548 465 528 L452 453 Q438 369 379 322 Q371 315 360 309 L369 0 Z M355 528 Q357 540 357 549 Q357 569 349 578 Q338 590 310 590 L254 590 L219 391 L275 391 Q302 391 318 403 Q336 417 342 453 L355 528 Z M239 -79 Q236 -100 217 -125 Q201 -148 174 -179 L138 -179 L153 -151 Q159 -139 159 -133 Q159 -126 154 -122 Q147 -114 143 -106.5 Q139 -99 139 -88 Q139 -82 140 -79 Q144 -59 161 -44.5 Q178 -30 198 -30 Q217 -30 228.5 -41.5 Q240 -53 240 -70 Q240 -76 239 -79 Z " />
<glyph glyph-name="uni024C" unicode="&#x24c;" horiz-adv-x="402" d="M457 453 Q443 369 384 322 Q376 315 365 309 L374 0 L262 0 L255 281 L205 281 L155 0 L45 0 L95 281 L55 281 L74 391 L114 391 L168 700 L334 700 Q406 700 443 658 Q474 623 474 568 Q474 548 470 528 L457 453 Z M360 528 Q362 540 362 549 Q362 569 354 578 Q343 590 315 590 L259 590 L224 391 L280 391 Q307 391 323 403 Q341 417 347 453 L360 528 Z " />
<glyph glyph-name="uni2C64" unicode="&#x2c64;" horiz-adv-x="397" d="M452 453 Q438 369 379 322 Q371 315 360 309 L369 0 L257 0 L250 281 L200 281 L143 -42 L143 -45 Q143 -56 154 -56 L144 -111 Q88 -111 62 -95.5 Q36 -80 36 -37 Q36 -28 40 0 L163 700 L329 700 Q401 700 438 658 Q469 623 469 568 Q469 548 465 528 L452 453 Z M355 528 Q357 540 357 549 Q357 569 349 578 Q338 590 310 590 L254 590 L219 391 L275 391 Q302 391 318 403 Q336 417 342 453 L355 528 Z " />
<glyph glyph-name="S" unicode="S" horiz-adv-x="380" d="M189 -8 Q260 -8 312 33 Q371 81 385 164 L393 208 Q396 228 396 245 Q396 318 347 370 Q330 389 283 416 Q275 421 264 428.5 Q253 436 249 440 Q224 465 224 499 Q224 505 226 519 L229 536 Q231 550 236.5 564 Q242 578 252 586 Q268 598 295 598 Q324 598 334 586 Q343 577 343 557 Q343 548 341 536 L330 475 L440 475 L451 536 Q455 556 455 576 Q455 632 424 667 Q386 708 315 708 Q242 708 192 667 Q133 619 119 536 L116 519 Q112 502 112 480 Q112 409 161 358 Q177 342 222 314 Q251 297 260 288 Q285 262 285 226 Q285 220 283 208 L275 164 Q268 126 251 114 Q237 102 208 102 Q180 102 169 114 Q161 123 161 143 Q161 152 163 164 L179 255 L69 255 L53 164 Q49 144 49 124 Q49 68 80 33 Q116 -8 189 -8 Z " />
<glyph glyph-name="Sacute" unicode="&#x15a;" horiz-adv-x="380" d="M189 -8 Q260 -8 312 33 Q371 81 385 164 L393 208 Q396 228 396 245 Q396 318 347 370 Q330 389 283 416 Q275 421 264 428.5 Q253 436 249 440 Q224 465 224 499 Q224 505 226 519 L229 536 Q231 550 236.5 564 Q242 578 252 586 Q268 598 295 598 Q324 598 334 586 Q343 577 343 557 Q343 548 341 536 L330 475 L440 475 L451 536 Q455 556 455 576 Q455 632 424 667 Q386 708 315 708 Q242 708 192 667 Q133 619 119 536 L116 519 Q112 502 112 480 Q112 409 161 358 Q177 342 222 314 Q251 297 260 288 Q285 262 285 226 Q285 220 283 208 L275 164 Q268 126 251 114 Q237 102 208 102 Q180 102 169 114 Q161 123 161 143 Q161 152 163 164 L179 255 L69 255 L53 164 Q49 144 49 124 Q49 68 80 33 Q116 -8 189 -8 Z M347 737 L476 847 L366 847 L292 737 L347 737 Z " />
<glyph glyph-name="Scaron" unicode="&#x160;" horiz-adv-x="380" d="M189 -8 Q260 -8 312 33 Q371 81 385 164 L393 208 Q396 228 396 245 Q396 318 347 370 Q330 389 283 416 Q275 421 264 428.5 Q253 436 249 440 Q224 465 224 499 Q224 505 226 519 L229 536 Q231 550 236.5 564 Q242 578 252 586 Q268 598 295 598 Q324 598 334 586 Q343 577 343 557 Q343 548 341 536 L330 475 L440 475 L451 536 Q455 556 455 576 Q455 632 424 667 Q386 708 315 708 Q242 708 192 667 Q133 619 119 536 L116 519 Q112 502 112 480 Q112 409 161 358 Q177 342 222 314 Q251 297 260 288 Q285 262 285 226 Q285 220 283 208 L275 164 Q268 126 251 114 Q237 102 208 102 Q180 102 169 114 Q161 123 161 143 Q161 152 163 164 L179 255 L69 255 L53 164 Q49 144 49 124 Q49 68 80 33 Q116 -8 189 -8 Z M229 847 L284 847 L330 792 L394 847 L450 847 L375 737 L265 737 L229 847 Z " />
<glyph glyph-name="Scedilla" unicode="&#x15e;" horiz-adv-x="380" d="M330 476 L341 537 Q343 551 343 560 Q343 579 335 587 Q324 599 296 599 Q267 599 253 587 Q236 574 229 537 L226 520 Q224 506 224 501 Q224 468 249 441 Q253 437 264 429.5 Q275 422 283 417 Q330 390 347 371 Q396 319 396 247 Q396 229 393 209 L385 165 Q371 82 312 34 Q272 1 215 -5 L215 -6 Q215 -11 219 -14 Q232 -25 238.5 -34.5 Q245 -44 245 -62 Q245 -67 243 -77 Q239 -105 215 -125.5 Q191 -146 162 -146 Q137 -146 120.5 -129.5 Q104 -113 104 -88 Q104 -81 105 -77 L160 -77 L160 -79 Q160 -84 163.5 -87.5 Q167 -91 172 -91 Q178 -91 182.5 -87 Q187 -83 188 -77 L189 -73 Q189 -69 184.5 -64.5 Q180 -60 179 -59 Q159 -43 159 -17 Q159 -10 160 -6 L160 -5 Q108 3 80 34 Q49 69 49 125 Q49 145 53 165 L69 256 L179 256 L163 165 Q161 153 161 144 Q161 124 169 115 Q181 103 208 103 Q238 103 251 115 Q268 127 275 165 L283 209 Q285 221 285 227 Q285 263 260 289 Q251 298 222 315 Q177 343 161 359 Q113 409 113 482 Q113 501 116 520 L119 537 Q133 620 192 668 Q244 709 315 709 Q388 709 424 668 Q455 633 455 577 Q455 557 451 537 L440 476 L330 476 Z " />
<glyph glyph-name="Scommaaccent" unicode="&#x218;" horiz-adv-x="380" d="M189 -8 Q260 -8 312 33 Q371 81 385 164 L393 208 Q396 228 396 245 Q396 318 347 370 Q330 389 283 416 Q275 421 264 428.5 Q253 436 249 440 Q224 465 224 499 Q224 505 226 519 L229 536 Q231 550 236.5 564 Q242 578 252 586 Q268 598 295 598 Q324 598 334 586 Q343 577 343 557 Q343 548 341 536 L330 475 L440 475 L451 536 Q455 556 455 576 Q455 632 424 667 Q386 708 315 708 Q242 708 192 667 Q133 619 119 536 L116 519 Q112 502 112 480 Q112 409 161 358 Q177 342 222 314 Q251 297 260 288 Q285 262 285 226 Q285 220 283 208 L275 164 Q268 126 251 114 Q237 102 208 102 Q180 102 169 114 Q161 123 161 143 Q161 152 163 164 L179 255 L69 255 L53 164 Q49 144 49 124 Q49 68 80 33 Q116 -8 189 -8 Z M226 -79 Q223 -100 204 -125 Q188 -148 161 -179 L125 -179 L140 -151 Q146 -139 146 -133 Q146 -126 141 -122 Q134 -114 130 -106.5 Q126 -99 126 -88 Q126 -82 127 -79 Q131 -59 148 -44.5 Q165 -30 185 -30 Q204 -30 215.5 -41.5 Q227 -53 227 -70 Q227 -76 226 -79 Z " />
<glyph glyph-name="uni1E62" unicode="&#x1e62;" horiz-adv-x="380" d="M189 -8 Q260 -8 312 33 Q371 81 385 164 L393 208 Q396 228 396 245 Q396 318 347 370 Q330 389 283 416 Q275 421 264 428.5 Q253 436 249 440 Q224 465 224 499 Q224 505 226 519 L229 536 Q231 550 236.5 564 Q242 578 252 586 Q268 598 295 598 Q324 598 334 586 Q343 577 343 557 Q343 548 341 536 L330 475 L440 475 L451 536 Q455 556 455 576 Q455 632 424 667 Q386 708 315 708 Q242 708 192 667 Q133 619 119 536 L116 519 Q112 502 112 480 Q112 409 161 358 Q177 342 222 314 Q251 297 260 288 Q285 262 285 226 Q285 220 283 208 L275 164 Q268 126 251 114 Q237 102 208 102 Q180 102 169 114 Q161 123 161 143 Q161 152 163 164 L179 255 L69 255 L53 164 Q49 144 49 124 Q49 68 80 33 Q116 -8 189 -8 Z M125 -90 Q124 -93 124 -99 Q124 -116 135.5 -127.5 Q147 -139 165 -139 Q185 -139 202 -124.5 Q219 -110 223 -90 Q224 -87 224 -81 Q224 -63 212.5 -51.5 Q201 -40 183 -40 Q163 -40 146 -54.5 Q129 -69 125 -90 Z " />
<glyph glyph-name="T" unicode="T" horiz-adv-x="353" d="M467 700 L448 590 L336 590 L232 0 L122 0 L226 590 L114 590 L133 700 L467 700 Z " />
<glyph glyph-name="Tbar" unicode="&#x166;" horiz-adv-x="353" d="M448 590 L336 590 L316 477 L371 477 L361 422 L306 422 L232 0 L122 0 L196 422 L138 422 L148 477 L206 477 L226 590 L114 590 L133 700 L467 700 L448 590 Z " />
<glyph glyph-name="Tcaron" unicode="&#x164;" horiz-adv-x="353" d="M467 700 L448 590 L336 590 L232 0 L122 0 L226 590 L114 590 L133 700 L467 700 Z M436 847 L362 737 L252 737 L215 847 L271 847 L317 792 L381 847 L436 847 Z " />
<glyph glyph-name="uni0162" unicode="&#x162;" horiz-adv-x="353" d="M203 0 L202 -6 Q202 -11 206 -14 Q219 -25 225.5 -34.5 Q232 -44 232 -62 Q232 -67 230 -77 Q226 -105 202 -125.5 Q178 -146 149 -146 Q124 -146 107.5 -129.5 Q91 -113 91 -88 Q91 -81 92 -77 L147 -77 L147 -79 Q147 -84 150.5 -87.5 Q154 -91 159 -91 Q165 -91 169.5 -87 Q174 -83 175 -77 L176 -73 Q176 -69 171.5 -64.5 Q167 -60 166 -59 Q146 -43 146 -17 Q146 -10 147 -6 L148 0 L122 0 L226 590 L114 590 L133 700 L467 700 L448 590 L336 590 L232 0 L203 0 Z " />
<glyph glyph-name="uni1E70" unicode="&#x1e70;" horiz-adv-x="353" d="M467 700 L448 590 L336 590 L232 0 L122 0 L226 590 L114 590 L133 700 L467 700 Z M261 -150 L206 -150 L160 -95 L96 -150 L40 -150 L115 -40 L225 -40 L261 -150 Z " />
<glyph glyph-name="uni021A" unicode="&#x21a;" horiz-adv-x="353" d="M467 700 L448 590 L336 590 L232 0 L122 0 L226 590 L114 590 L133 700 L467 700 Z M211 -89 Q208 -110 189 -135 Q179 -150 147 -189 L111 -189 Q117 -175 126 -161 Q132 -149 132 -143 Q132 -137 127 -132 Q111 -116 111 -98 Q111 -92 112 -89 Q116 -69 133 -54.5 Q150 -40 170 -40 Q189 -40 200.5 -51.5 Q212 -63 212 -80 Q212 -86 211 -89 Z " />
<glyph glyph-name="uni1E6C" unicode="&#x1e6c;" horiz-adv-x="353" d="M467 700 L448 590 L336 590 L232 0 L122 0 L226 590 L114 590 L133 700 L467 700 Z M112 -90 Q111 -93 111 -99 Q111 -116 122.5 -127.5 Q134 -139 152 -139 Q172 -139 189 -124.5 Q206 -110 210 -90 Q211 -87 211 -81 Q211 -63 199.5 -51.5 Q188 -40 170 -40 Q150 -40 133 -54.5 Q116 -69 112 -90 Z " />
<glyph glyph-name="uni01AC" unicode="&#x1ac;" horiz-adv-x="417" d="M531 700 L512 590 L400 590 L296 0 L186 0 L290 590 L178 590 Q172 590 167.5 586 Q163 582 162 576 L107 576 Q118 642 145.5 671 Q173 700 239 700 L531 700 Z " />
<glyph glyph-name="uni1E6E" unicode="&#x1e6e;" horiz-adv-x="354" d="M467 700 L448 590 L336 590 L232 0 L122 0 L226 590 L114 590 L133 700 L467 700 Z M271 -95 L281 -40 L60 -40 L50 -95 L271 -95 Z " />
<glyph glyph-name="uni01AE" unicode="&#x1ae;" horiz-adv-x="353" d="M232 0 L232 -2 Q232 -7 235.5 -10.5 Q239 -14 244 -14 L234 -69 Q177 -69 151 -53.5 Q125 -38 125 5 Q125 14 129 42 L226 590 L114 590 L133 700 L467 700 L448 590 L336 590 L232 0 Z " />
<glyph glyph-name="U" unicode="U" horiz-adv-x="402" d="M200 -8 Q270 -8 323 33 Q382 83 396 164 L490 700 L380 700 L286 164 Q279 127 262 114 Q246 102 219 102 Q190 102 179 114 Q172 121 172 140 Q172 150 174 164 L268 700 L158 700 L64 164 Q60 144 60 124 Q60 68 91 33 Q127 -8 200 -8 Z " />
<glyph glyph-name="Uacute" unicode="&#xda;" horiz-adv-x="402" d="M200 -8 Q270 -8 323 33 Q382 83 396 164 L490 700 L380 700 L286 164 Q279 127 262 114 Q246 102 219 102 Q190 102 179 114 Q172 121 172 140 Q172 150 174 164 L268 700 L158 700 L64 164 Q60 144 60 124 Q60 68 91 33 Q127 -8 200 -8 Z M358 737 L487 847 L377 847 L303 737 L358 737 Z " />
<glyph glyph-name="uni0244" unicode="&#x244;" horiz-adv-x="412" d="M471 332 L431 332 L401 164 Q387 83 328 33 Q275 -8 205 -8 Q132 -8 96 33 Q65 68 65 124 Q65 144 69 164 L99 332 L59 332 L68 387 L108 387 L163 700 L273 700 L218 387 L330 387 L385 700 L495 700 L440 387 L480 387 L471 332 Z M321 332 L209 332 L179 164 Q177 150 177 140 Q177 121 184 114 Q195 102 224 102 Q251 102 267 114 Q284 127 291 164 L321 332 Z " />
<glyph glyph-name="uni01D3" unicode="&#x1d3;" horiz-adv-x="402" d="M200 -8 Q270 -8 323 33 Q382 83 396 164 L490 700 L380 700 L286 164 Q279 127 262 114 Q246 102 219 102 Q190 102 179 114 Q172 121 172 140 Q172 150 174 164 L268 700 L158 700 L64 164 Q60 144 60 124 Q60 68 91 33 Q127 -8 200 -8 Z M460 847 L386 737 L276 737 L239 847 L295 847 L341 792 L405 847 L460 847 Z " />
<glyph glyph-name="Ucircumflex" unicode="&#xdb;" horiz-adv-x="402" d="M200 -8 Q270 -8 323 33 Q382 83 396 164 L490 700 L380 700 L286 164 Q279 127 262 114 Q246 102 219 102 Q190 102 179 114 Q172 121 172 140 Q172 150 174 164 L268 700 L158 700 L64 164 Q60 144 60 124 Q60 68 91 33 Q127 -8 200 -8 Z M441 737 L386 737 L341 792 L276 737 L220 737 L295 847 L405 847 L441 737 Z " />
<glyph glyph-name="Udieresis" unicode="&#xdc;" horiz-adv-x="402" d="M200 -8 Q270 -8 323 33 Q382 83 396 164 L490 700 L380 700 L286 164 Q279 127 262 114 Q246 102 219 102 Q190 102 179 114 Q172 121 172 140 Q172 150 174 164 L268 700 L158 700 L64 164 Q60 144 60 124 Q60 68 91 33 Q127 -8 200 -8 Z M214 785 Q211 765 223 750.5 Q235 736 255 736 Q275 736 292 750.5 Q309 765 312 785 Q313 788 313 794 Q313 812 301.5 823.5 Q290 835 272 835 Q252 835 235 820.5 Q218 806 214 785 Z M366 785 Q363 765 375 750.5 Q387 736 407 736 Q427 736 444 750.5 Q461 765 464 785 Q465 788 465 794 Q465 812 453.5 823.5 Q442 835 424 835 Q404 835 387 820.5 Q370 806 366 785 Z " />
<glyph glyph-name="uni01D7" unicode="&#x1d7;" horiz-adv-x="402" d="M371 868 L500 978 L390 978 L316 868 L371 868 Z M200 -8 Q270 -8 323 33 Q382 83 396 164 L490 700 L380 700 L286 164 Q279 127 262 114 Q246 102 219 102 Q190 102 179 114 Q172 121 172 140 Q172 150 174 164 L268 700 L158 700 L64 164 Q60 144 60 124 Q60 68 91 33 Q127 -8 200 -8 Z M204 785 Q201 765 213 750.5 Q225 736 245 736 Q265 736 282 750.5 Q299 765 302 785 Q303 788 303 794 Q303 812 291.5 823.5 Q280 835 262 835 Q242 835 225 820.5 Q208 806 204 785 Z M356 785 Q353 765 365 750.5 Q377 736 397 736 Q417 736 434 750.5 Q451 765 454 785 Q455 788 455 794 Q455 812 443.5 823.5 Q432 835 414 835 Q394 835 377 820.5 Q360 806 356 785 Z " />
<glyph glyph-name="uni01D9" unicode="&#x1d9;" horiz-adv-x="402" d="M200 -8 Q270 -8 323 33 Q382 83 396 164 L490 700 L380 700 L286 164 Q279 127 262 114 Q246 102 219 102 Q190 102 179 114 Q172 121 172 140 Q172 150 174 164 L268 700 L158 700 L64 164 Q60 144 60 124 Q60 68 91 33 Q127 -8 200 -8 Z M204 785 Q201 765 213 750.5 Q225 736 245 736 Q265 736 282 750.5 Q299 765 302 785 Q303 788 303 794 Q303 812 291.5 823.5 Q280 835 262 835 Q242 835 225 820.5 Q208 806 204 785 Z M356 785 Q353 765 365 750.5 Q377 736 397 736 Q417 736 434 750.5 Q451 765 454 785 Q455 788 455 794 Q455 812 443.5 823.5 Q432 835 414 835 Q394 835 377 820.5 Q360 806 356 785 Z M483 978 L409 868 L299 868 L262 978 L318 978 L364 923 L428 978 L483 978 Z " />
<glyph glyph-name="uni01DB" unicode="&#x1db;" horiz-adv-x="402" d="M337 868 L392 868 L356 978 L246 978 L337 868 Z M200 -8 Q271 -8 323 33 Q382 81 396 164 L490 700 L380 700 L286 164 Q279 127 263 114 Q247 102 219 102 Q191 102 180 114 Q172 123 172 143 Q172 152 174 164 L268 700 L158 700 L64 164 Q60 136 60 125 Q60 71 91 33 Q129 -8 200 -8 Z M474 785 Q475 788 475 794 Q475 812 463.5 823.5 Q452 835 434 835 Q414 835 397 820.5 Q380 806 376 785 Q373 765 385 750.5 Q397 736 417 736 Q437 736 454 750.5 Q471 765 474 785 Z M322 785 Q323 788 323 794 Q323 812 311.5 823.5 Q300 835 282 835 Q262 835 245 820.5 Q228 806 224 785 Q221 765 233 750.5 Q245 736 265 736 Q285 736 302 750.5 Q319 765 322 785 Z " />
<glyph glyph-name="uni01D5" unicode="&#x1d5;" horiz-adv-x="402" d="M200 -8 Q270 -8 323 33 Q382 83 396 164 L490 700 L380 700 L286 164 Q279 127 262 114 Q246 102 219 102 Q190 102 179 114 Q172 121 172 140 Q172 150 174 164 L268 700 L158 700 L64 164 Q60 144 60 124 Q60 68 91 33 Q127 -8 200 -8 Z M214 785 Q211 765 223 750.5 Q235 736 255 736 Q275 736 292 750.5 Q309 765 312 785 Q313 788 313 794 Q313 812 301.5 823.5 Q290 835 272 835 Q252 835 235 820.5 Q218 806 214 785 Z M366 785 Q363 765 375 750.5 Q387 736 407 736 Q427 736 444 750.5 Q461 765 464 785 Q465 788 465 794 Q465 812 453.5 823.5 Q442 835 424 835 Q404 835 387 820.5 Q370 806 366 785 Z M465 868 L475 923 L253 923 L243 868 L465 868 Z " />
<glyph glyph-name="uni1EE4" unicode="&#x1ee4;" horiz-adv-x="402" d="M200 -8 Q270 -8 323 33 Q382 83 396 164 L490 700 L380 700 L286 164 Q279 127 262 114 Q246 102 219 102 Q190 102 179 114 Q172 121 172 140 Q172 150 174 164 L268 700 L158 700 L64 164 Q60 144 60 124 Q60 68 91 33 Q127 -8 200 -8 Z M136 -90 Q135 -93 135 -99 Q135 -116 146.5 -127.5 Q158 -139 176 -139 Q196 -139 213 -124.5 Q230 -110 234 -90 Q235 -87 235 -81 Q235 -63 223.5 -51.5 Q212 -40 194 -40 Q174 -40 157 -54.5 Q140 -69 136 -90 Z " />
<glyph glyph-name="Ugrave" unicode="&#xd9;" horiz-adv-x="402" d="M200 -8 Q270 -8 323 33 Q382 83 396 164 L490 700 L380 700 L286 164 Q279 127 262 114 Q246 102 219 102 Q190 102 179 114 Q172 121 172 140 Q172 150 174 164 L268 700 L158 700 L64 164 Q60 144 60 124 Q60 68 91 33 Q127 -8 200 -8 Z M304 737 L359 737 L323 847 L213 847 L304 737 Z " />
<glyph glyph-name="uni1EE6" unicode="&#x1ee6;" horiz-adv-x="402" d="M200 -8 Q270 -8 323 33 Q382 83 396 164 L490 700 L380 700 L286 164 Q279 127 262 114 Q246 102 219 102 Q190 102 179 114 Q172 121 172 140 Q172 150 174 164 L268 700 L158 700 L64 164 Q60 144 60 124 Q60 68 91 33 Q127 -8 200 -8 Z M271 844 Q311 844 336 819 Q361 794 361 755 Q361 749 359 737 L304 737 Q305 740 305 746 Q305 765 292.5 777 Q280 789 261 789 L224 834 Q245 844 271 844 Z " />
<glyph glyph-name="Uhorn" unicode="&#x1af;" horiz-adv-x="458" d="M604 714 Q599 685 575 665 Q551 645 523 645 L481 645 L396 164 Q382 83 323 33 Q270 -8 200 -8 Q127 -8 91 33 Q60 68 60 124 Q60 144 64 164 L158 700 L268 700 L174 164 Q172 150 172 140 Q172 121 179 114 Q190 102 219 102 Q246 102 262 114 Q279 127 286 164 L380 700 L532 700 Q538 700 542.5 704 Q547 708 549 714 L604 714 Z " />
<glyph glyph-name="uni1EE8" unicode="&#x1ee8;" horiz-adv-x="458" d="M604 714 Q599 685 575 665 Q551 645 523 645 L481 645 L396 164 Q382 83 323 33 Q270 -8 200 -8 Q127 -8 91 33 Q60 68 60 124 Q60 144 64 164 L158 700 L268 700 L174 164 Q172 150 172 140 Q172 121 179 114 Q190 102 219 102 Q246 102 262 114 Q279 127 286 164 L380 700 L532 700 Q538 700 542.5 704 Q547 708 549 714 L604 714 Z M358 737 L487 847 L377 847 L303 737 L358 737 Z " />
<glyph glyph-name="uni1EF0" unicode="&#x1ef0;" horiz-adv-x="458" d="M604 714 Q599 685 575 665 Q551 645 523 645 L481 645 L396 164 Q382 83 323 33 Q270 -8 200 -8 Q127 -8 91 33 Q60 68 60 124 Q60 144 64 164 L158 700 L268 700 L174 164 Q172 150 172 140 Q172 121 179 114 Q190 102 219 102 Q246 102 262 114 Q279 127 286 164 L380 700 L532 700 Q538 700 542.5 704 Q547 708 549 714 L604 714 Z M134 -80 Q133 -83 133 -89 Q133 -106 144.5 -117.5 Q156 -129 174 -129 Q194 -129 211 -114.5 Q228 -100 232 -80 Q233 -77 233 -71 Q233 -53 221.5 -41.5 Q210 -30 192 -30 Q172 -30 155 -44.5 Q138 -59 134 -80 Z " />
<glyph glyph-name="uni1EEA" unicode="&#x1eea;" horiz-adv-x="458" d="M604 714 Q599 685 575 665 Q551 645 523 645 L481 645 L396 164 Q382 83 323 33 Q270 -8 200 -8 Q127 -8 91 33 Q60 68 60 124 Q60 144 64 164 L158 700 L268 700 L174 164 Q172 150 172 140 Q172 121 179 114 Q190 102 219 102 Q246 102 262 114 Q279 127 286 164 L380 700 L532 700 Q538 700 542.5 704 Q547 708 549 714 L604 714 Z M304 737 L359 737 L323 847 L213 847 L304 737 Z " />
<glyph glyph-name="uni1EEC" unicode="&#x1eec;" horiz-adv-x="458" d="M604 714 Q599 685 575 665 Q551 645 523 645 L481 645 L396 164 Q382 83 323 33 Q270 -8 200 -8 Q127 -8 91 33 Q60 68 60 124 Q60 144 64 164 L158 700 L268 700 L174 164 Q172 150 172 140 Q172 121 179 114 Q190 102 219 102 Q246 102 262 114 Q279 127 286 164 L380 700 L532 700 Q538 700 542.5 704 Q547 708 549 714 L604 714 Z M271 844 Q311 844 336 819 Q361 794 361 755 Q361 749 359 737 L304 737 Q305 740 305 746 Q305 765 292.5 777 Q280 789 261 789 L224 834 Q245 844 271 844 Z " />
<glyph glyph-name="uni1EEE" unicode="&#x1eee;" horiz-adv-x="458" d="M604 714 Q599 685 575 665 Q551 645 523 645 L481 645 L396 164 Q382 83 323 33 Q270 -8 200 -8 Q127 -8 91 33 Q60 68 60 124 Q60 144 64 164 L158 700 L268 700 L174 164 Q172 150 172 140 Q172 121 179 114 Q190 102 219 102 Q246 102 262 114 Q279 127 286 164 L380 700 L532 700 Q538 700 542.5 704 Q547 708 549 714 L604 714 Z M243 735 Q269 764 286 767 Q302 771 323 756 Q351 735 380 735 Q424 735 474 791 L435 823 Q411 796 394 791 Q380 788 361 802 Q333 823 303 823 Q296 823 284 821 Q247 812 204 768 L243 735 Z " />
<glyph glyph-name="Uhungarumlaut" unicode="&#x170;" horiz-adv-x="402" d="M200 -8 Q270 -8 323 33 Q382 83 396 164 L490 700 L380 700 L286 164 Q279 127 262 114 Q246 102 219 102 Q190 102 179 114 Q172 121 172 140 Q172 150 174 164 L268 700 L158 700 L64 164 Q60 144 60 124 Q60 68 91 33 Q127 -8 200 -8 Z M284 737 L413 847 L303 847 L229 737 L284 737 Z M433 737 L562 847 L452 847 L378 737 L433 737 Z " />
<glyph glyph-name="Umacron" unicode="&#x16a;" horiz-adv-x="402" d="M200 -8 Q270 -8 323 33 Q382 83 396 164 L490 700 L380 700 L286 164 Q279 127 262 114 Q246 102 219 102 Q190 102 179 114 Q172 121 172 140 Q172 150 174 164 L268 700 L158 700 L64 164 Q60 144 60 124 Q60 68 91 33 Q127 -8 200 -8 Z M442 737 L452 792 L230 792 L220 737 L442 737 Z " />
<glyph glyph-name="Uogonek" unicode="&#x172;" horiz-adv-x="402" d="M490 700 L396 164 Q388 118 368.5 87.5 Q349 57 323 33 Q287 1 271 -19 Q255 -39 252 -56 Q249 -70 261.5 -75.5 Q274 -81 288 -81 L297 -81 L287 -136 L268 -136 Q235 -136 213 -123.5 Q191 -111 191 -86 Q191 -80 192 -77 Q196 -57 214 -36 Q232 -15 254 -1 Q229 -8 200 -8 Q127 -8 91 33 Q60 68 60 124 Q60 144 64 164 L158 700 L268 700 L174 164 Q172 150 172 140 Q172 121 179 114 Q190 102 219 102 Q246 102 262 114 Q279 127 286 164 L380 700 L490 700 Z " />
<glyph glyph-name="Uring" unicode="&#x16e;" horiz-adv-x="402" d="M331 737 Q359 737 383 757 Q407 777 412 806 Q413 810 413 819 Q413 843 396.5 859.5 Q380 876 355 876 Q326 876 302 855.5 Q278 835 273 806 Q272 802 272 794 Q272 770 288.5 753.5 Q305 737 331 737 Z M346 821 Q352 821 355.5 816.5 Q359 812 357 806 Q356 800 351.5 796 Q347 792 341 792 Q335 792 331 796 Q327 800 328 806 Q330 812 335 816.5 Q340 821 346 821 Z M200 -8 Q270 -8 323 33 Q382 83 396 164 L490 700 L380 700 L286 164 Q279 127 262 114 Q246 102 219 102 Q190 102 179 114 Q172 121 172 140 Q172 150 174 164 L268 700 L158 700 L64 164 Q60 144 60 124 Q60 68 91 33 Q127 -8 200 -8 Z " />
<glyph glyph-name="Utilde" unicode="&#x168;" horiz-adv-x="402" d="M200 -8 Q270 -8 323 33 Q382 83 396 164 L490 700 L380 700 L286 164 Q279 127 262 114 Q246 102 219 102 Q190 102 179 114 Q172 121 172 140 Q172 150 174 164 L268 700 L158 700 L64 164 Q60 144 60 124 Q60 68 91 33 Q127 -8 200 -8 Z M241 737 Q267 766 285 769 Q300 773 322 758 Q349 737 378 737 Q404 737 427 752.5 Q450 768 473 793 L433 825 Q409 798 393 793 Q378 790 360 804 Q330 825 301 825 Q294 825 282 823 Q244 814 203 770 L241 737 Z " />
<glyph glyph-name="V" unicode="V" horiz-adv-x="412" d="M246 227 L412 700 L524 700 L261 0 L151 0 L134 700 L246 700 L246 227 Z " />
<glyph glyph-name="uni0245" unicode="&#x245;" horiz-adv-x="412" d="M289 473 L123 0 L11 0 L274 700 L384 700 L401 0 L289 0 L289 473 Z " />
<glyph glyph-name="W" unicode="W" horiz-adv-x="519" d="M516 700 L627 700 L418 0 L357 0 L320 348 L162 0 L101 0 L138 700 L249 700 L226 351 L332 589 L395 589 L417 351 L516 700 Z " />
<glyph glyph-name="Wacute" unicode="&#x1e82;" horiz-adv-x="519" d="M516 700 L627 700 L418 0 L357 0 L320 348 L162 0 L101 0 L138 700 L249 700 L226 351 L332 589 L395 589 L417 351 L516 700 Z M417 737 L546 847 L436 847 L362 737 L417 737 Z " />
<glyph glyph-name="Wcircumflex" unicode="&#x174;" horiz-adv-x="519" d="M516 700 L627 700 L418 0 L357 0 L320 348 L162 0 L101 0 L138 700 L249 700 L226 351 L332 589 L395 589 L417 351 L516 700 Z M499 737 L444 737 L399 792 L334 737 L278 737 L353 847 L463 847 L499 737 Z " />
<glyph glyph-name="Wdieresis" unicode="&#x1e84;" horiz-adv-x="519" d="M516 700 L627 700 L418 0 L357 0 L320 348 L162 0 L101 0 L138 700 L249 700 L226 351 L332 589 L395 589 L417 351 L516 700 Z M272 785 Q269 765 281 750.5 Q293 736 313 736 Q333 736 350 750.5 Q367 765 370 785 Q371 788 371 794 Q371 812 359.5 823.5 Q348 835 330 835 Q310 835 293 820.5 Q276 806 272 785 Z M424 785 Q421 765 433 750.5 Q445 736 465 736 Q485 736 502 750.5 Q519 765 522 785 Q523 788 523 794 Q523 812 511.5 823.5 Q500 835 482 835 Q462 835 445 820.5 Q428 806 424 785 Z " />
<glyph glyph-name="Wgrave" unicode="&#x1e80;" horiz-adv-x="519" d="M516 700 L627 700 L418 0 L357 0 L320 348 L162 0 L101 0 L138 700 L249 700 L226 351 L332 589 L395 589 L417 351 L516 700 Z M362 737 L417 737 L381 847 L271 847 L362 737 Z " />
<glyph glyph-name="uni2C72" unicode="&#x2c72;" horiz-adv-x="589" d="M662 700 Q688 700 704.5 683.5 Q721 667 721 643 Q721 635 720 631 L665 631 L665 634 Q665 639 661.5 642 Q658 645 653 645 L611 645 L418 0 L357 0 L320 348 L162 0 L101 0 L138 700 L249 700 L226 351 L332 589 L395 589 L417 351 L516 700 L662 700 Z " />
<glyph glyph-name="X" unicode="X" horiz-adv-x="419" d="M404 0 L287 0 L245 207 L132 0 L15 0 L207 349 L138 700 L255 700 L296 493 L409 700 L527 700 L335 349 L404 0 Z " />
<glyph glyph-name="Y" unicode="Y" horiz-adv-x="392" d="M510 700 L294 246 L251 0 L140 0 L183 246 L128 700 L244 700 L274 449 L394 700 L510 700 Z " />
<glyph glyph-name="Yacute" unicode="&#xdd;" horiz-adv-x="392" d="M510 700 L294 246 L251 0 L140 0 L183 246 L128 700 L244 700 L274 449 L394 700 L510 700 Z M353 737 L482 847 L372 847 L298 737 L353 737 Z " />
<glyph glyph-name="Ycircumflex" unicode="&#x176;" horiz-adv-x="392" d="M510 700 L294 246 L251 0 L140 0 L183 246 L128 700 L244 700 L274 449 L394 700 L510 700 Z M435 737 L380 737 L335 792 L270 737 L214 737 L289 847 L399 847 L435 737 Z " />
<glyph glyph-name="Ydieresis" unicode="&#x178;" horiz-adv-x="392" d="M510 700 L294 246 L251 0 L140 0 L183 246 L128 700 L244 700 L274 449 L394 700 L510 700 Z M209 785 Q206 765 218 750.5 Q230 736 250 736 Q270 736 287 750.5 Q304 765 307 785 Q308 788 308 794 Q308 812 296.5 823.5 Q285 835 267 835 Q247 835 230 820.5 Q213 806 209 785 Z M361 785 Q358 765 370 750.5 Q382 736 402 736 Q422 736 439 750.5 Q456 765 459 785 Q460 788 460 794 Q460 812 448.5 823.5 Q437 835 419 835 Q399 835 382 820.5 Q365 806 361 785 Z " />
<glyph glyph-name="uni1EF4" unicode="&#x1ef4;" horiz-adv-x="392" d="M510 700 L294 246 L251 0 L140 0 L183 246 L128 700 L244 700 L274 449 L394 700 L510 700 Z M130 -90 Q129 -93 129 -99 Q129 -116 140.5 -127.5 Q152 -139 170 -139 Q190 -139 207 -124.5 Q224 -110 228 -90 Q229 -87 229 -81 Q229 -63 217.5 -51.5 Q206 -40 188 -40 Q168 -40 151 -54.5 Q134 -69 130 -90 Z " />
<glyph glyph-name="Ygrave" unicode="&#x1ef2;" horiz-adv-x="392" d="M128 700 L244 700 L276 449 L394 700 L510 700 L295 246 L252 0 L141 0 L184 246 L128 700 Z M299 737 L354 737 L318 847 L208 847 L299 737 Z " />
<glyph glyph-name="uni01B3" unicode="&#x1b3;" horiz-adv-x="462" d="M536 700 Q561 700 577.5 683.5 Q594 667 594 643 Q594 635 593 631 L538 631 L538 634 Q538 645 527 645 L485 645 L294 246 L251 0 L140 0 L183 246 L128 700 L244 700 L274 449 L394 700 L536 700 Z " />
<glyph glyph-name="uni1EF6" unicode="&#x1ef6;" horiz-adv-x="392" d="M510 700 L294 246 L251 0 L140 0 L183 246 L128 700 L244 700 L274 449 L394 700 L510 700 Z M265 844 Q305 844 330 819 Q355 794 355 755 Q355 749 353 737 L298 737 Q299 740 299 746 Q299 765 286.5 777 Q274 789 255 789 L218 834 Q239 844 265 844 Z " />
<glyph glyph-name="uni1EF8" unicode="&#x1ef8;" horiz-adv-x="392" d="M510 700 L294 246 L251 0 L140 0 L183 246 L128 700 L244 700 L274 449 L394 700 L510 700 Z M238 737 Q264 766 282 769 Q297 773 319 758 Q346 737 375 737 Q401 737 424 752.5 Q447 768 470 793 L430 825 Q406 798 390 793 Q375 790 357 804 Q327 825 298 825 Q291 825 279 823 Q241 814 200 770 L238 737 Z " />
<glyph glyph-name="Z" unicode="Z" horiz-adv-x="383" d="M358 0 L378 111 L196 111 L481 700 L148 700 L129 589 L311 589 L25 0 L358 0 Z " />
<glyph glyph-name="Zacute" unicode="&#x179;" horiz-adv-x="383" d="M358 0 L378 111 L196 111 L481 700 L148 700 L129 589 L311 589 L25 0 L358 0 Z M349 737 L478 847 L368 847 L294 737 L349 737 Z " />
<glyph glyph-name="Zcaron" unicode="&#x17d;" horiz-adv-x="383" d="M358 0 L378 111 L196 111 L481 700 L148 700 L129 589 L311 589 L25 0 L358 0 Z M451 847 L377 737 L267 737 L230 847 L286 847 L332 792 L396 847 L451 847 Z " />
<glyph glyph-name="Zdotaccent" unicode="&#x17b;" horiz-adv-x="383" d="M358 0 L378 111 L196 111 L481 700 L148 700 L129 589 L311 589 L25 0 L358 0 Z M281 786 Q280 783 280 777 Q280 760 291.5 748.5 Q303 737 321 737 Q341 737 358 751.5 Q375 766 379 786 Q380 789 380 795 Q380 812 368 824 Q356 836 338 836 Q318 836 301.5 821.5 Q285 807 281 786 Z " />
<glyph glyph-name="uni1E92" unicode="&#x1e92;" horiz-adv-x="383" d="M358 0 L378 111 L196 111 L481 700 L148 700 L129 589 L311 589 L25 0 L358 0 Z M126 -90 Q125 -93 125 -99 Q125 -116 136.5 -127.5 Q148 -139 166 -139 Q186 -139 203 -124.5 Q220 -110 224 -90 Q225 -87 225 -81 Q225 -63 213.5 -51.5 Q202 -40 184 -40 Q164 -40 147 -54.5 Q130 -69 126 -90 Z " />
<glyph glyph-name="uni0299" unicode="&#x299;" horiz-adv-x="398" d="M206 0 Q277 0 328 39 Q358 61 376 95 Q394 127 402 168 L404 182 Q408 201 408 221 Q408 278 371 308 Q419 345 430 416 L433 431 Q437 450 437 470 Q437 490 433 505 Q427 537 405 561 Q369 600 297 600 L146 600 L40 0 L206 0 Z M193 244 L249 244 Q277 244 288 232 Q296 223 296 204 Q296 196 294 182 L292 168 Q286 134 269 121 Q256 110 225 110 L169 110 L193 244 Z M236 490 L277 490 Q307 490 317 479 Q325 470 325 451 Q325 443 323 431 L320 416 Q318 402 312.5 388 Q307 374 297 366 Q281 354 253 354 L212 354 L236 490 Z " />
<glyph glyph-name="uni0262" unicode="&#x262;" horiz-adv-x="395" d="M196 -8 Q267 -8 319 33 Q378 81 392 164 L426 355 L261 355 L241 245 L296 245 L282 164 Q275 127 259 114 Q243 102 215 102 Q187 102 176 114 Q168 123 168 143 Q168 152 170 164 L218 436 Q225 473 242 486 Q256 498 285 498 Q313 498 325 486 Q332 479 332 460 Q332 450 330 436 L328 424 L438 424 L440 436 Q444 456 444 476 Q444 532 413 567 Q377 608 304 608 Q234 608 181 567 Q122 517 108 436 L60 164 Q56 136 56 125 Q56 71 87 33 Q125 -8 196 -8 Z " />
<glyph glyph-name="uni029B" unicode="&#x29b;" horiz-adv-x="395" d="M415 609 Q420 637 444 657.5 Q468 678 497 678 L487 623 Q481 623 476.5 619 Q472 615 470 609 L438 424 L328 424 L330 436 Q332 450 332 460 Q332 479 325 486 Q313 498 285 498 Q256 498 242 486 Q225 473 218 436 L170 164 Q168 152 168 143 Q168 123 176 114 Q187 102 215 102 Q243 102 259 114 Q275 127 282 164 L296 245 L241 245 L261 355 L426 355 L392 164 Q378 81 319 33 Q267 -8 196 -8 Q125 -8 87 33 Q56 71 56 125 Q56 136 60 164 L108 436 Q122 517 181 567 Q234 608 304 608 Q370 608 409 571 L415 609 Z " />
<glyph glyph-name="uni029C" unicode="&#x29c;" horiz-adv-x="412" d="M368 600 L478 600 L372 0 L262 0 L307 254 L195 254 L150 0 L40 0 L146 600 L256 600 L214 364 L326 364 L368 600 Z " />
<glyph glyph-name="uni026A" unicode="&#x26a;" horiz-adv-x="190" d="M150 0 L256 600 L146 600 L40 0 L150 0 Z " />
<glyph glyph-name="uni029F" unicode="&#x29f;" horiz-adv-x="343" d="M330 0 L349 110 L169 110 L256 600 L146 600 L40 0 L330 0 Z " />
<glyph glyph-name="uni0274" unicode="&#x274;" horiz-adv-x="414" d="M484 600 L378 0 L314 0 L200 305 L146 0 L36 0 L142 600 L206 600 L320 296 L374 600 L484 600 Z " />
<glyph glyph-name="uni0276" unicode="&#x276;" horiz-adv-x="572" d="M450 490 L428 364 L552 364 L533 254 L409 254 L383 110 L563 110 L544 0 L197 0 Q126 0 88 41 Q57 76 57 132 Q57 152 61 172 L106 428 Q122 512 179 558 Q233 600 303 600 L650 600 L630 490 L450 490 Z M339 490 L283 490 Q256 490 240 478 Q223 463 216 428 L171 172 Q169 160 169 151 Q169 131 178 122 Q189 110 216 110 L272 110 L339 490 Z " />
<glyph glyph-name="uni0280" unicode="&#x280;" horiz-adv-x="397" d="M369 0 L257 0 L241 231 L191 231 L150 0 L40 0 L146 600 L312 600 Q383 600 420 558 Q451 527 451 470 Q451 448 447 428 L443 403 Q428 317 370 272 Q364 267 352 259 L369 0 Z M337 428 Q339 440 339 449 Q339 469 331 478 Q320 490 292 490 L236 490 L210 341 L266 341 Q293 341 309 353 Q327 367 333 403 L337 428 Z " />
<glyph glyph-name="uni0281" unicode="&#x281;" horiz-adv-x="397" d="M366 341 Q376 333 380 328 Q411 293 411 237 Q411 217 407 197 L402 172 Q387 87 329 42 Q278 0 206 0 L40 0 L146 600 L256 600 L215 369 L265 369 L363 600 L475 600 L366 341 Z M297 197 Q299 211 299 219 Q299 238 291 247 Q279 259 252 259 L196 259 L169 110 L225 110 Q253 110 269 122 Q279 130 284.5 144 Q290 158 292 172 L297 197 Z " />
<glyph glyph-name="uni028F" unicode="&#x28f;" horiz-adv-x="392" d="M493 600 L286 196 L251 0 L140 0 L175 196 L111 600 L227 600 L257 349 L377 600 L493 600 Z " />
<glyph glyph-name="a" unicode="a" horiz-adv-x="417" d="M291 0 L291 111 L165 111 L125 0 L13 0 L276 700 L386 700 L403 0 L291 0 Z M203 221 L291 221 L291 472 L203 221 Z " />
<glyph glyph-name="aacute" unicode="&#xe1;" horiz-adv-x="417" d="M291 0 L291 111 L165 111 L125 0 L13 0 L276 700 L386 700 L403 0 L291 0 Z M203 221 L291 221 L291 472 L203 221 Z M370 737 L499 847 L389 847 L315 737 L370 737 Z " />
<glyph glyph-name="abreve" unicode="&#x103;" horiz-adv-x="417" d="M291 0 L291 111 L165 111 L125 0 L13 0 L276 700 L386 700 L403 0 L291 0 Z M203 221 L291 221 L291 472 L203 221 Z M464 843 Q456 799 419 767.5 Q382 736 338 736 Q299 736 273.5 761 Q248 786 248 824 Q248 829 250 843 L305 843 Q304 840 304 834 Q304 815 316 803 Q328 791 347 791 Q369 791 387 806 Q405 821 409 843 L464 843 Z " />
<glyph glyph-name="uni1EAF" unicode="&#x1eaf;" horiz-adv-x="417" d="M291 0 L291 111 L165 111 L125 0 L13 0 L276 700 L386 700 L403 0 L291 0 Z M203 221 L291 221 L291 472 L203 221 Z M389 868 L518 978 L408 978 L334 868 L389 868 Z M463 840 Q456 796 418.5 764.5 Q381 733 337 733 Q298 733 272.5 758.5 Q247 784 247 822 Q247 828 249 840 L304 840 Q303 837 303 831 Q303 812 315.5 800 Q328 788 347 788 Q369 788 386.5 803 Q404 818 408 840 L463 840 Z " />
<glyph glyph-name="uni1EB7" unicode="&#x1eb7;" horiz-adv-x="417" d="M291 0 L291 111 L165 111 L125 0 L13 0 L276 700 L386 700 L403 0 L291 0 Z M203 221 L291 221 L291 472 L203 221 Z M463 840 Q456 796 418.5 764.5 Q381 733 337 733 Q298 733 272.5 758.5 Q247 784 247 822 Q247 828 249 840 L304 840 Q303 837 303 831 Q303 812 315.5 800 Q328 788 347 788 Q369 788 386.5 803 Q404 818 408 840 L463 840 Z M143 -90 Q142 -93 142 -99 Q142 -116 153.5 -127.5 Q165 -139 183 -139 Q203 -139 220 -124.5 Q237 -110 241 -90 Q242 -87 242 -81 Q242 -63 230.5 -51.5 Q219 -40 201 -40 Q181 -40 164 -54.5 Q147 -69 143 -90 Z " />
<glyph glyph-name="uni1EB1" unicode="&#x1eb1;" horiz-adv-x="417" d="M125 0 L13 0 L276 700 L386 700 L403 0 L291 0 L291 111 L165 111 L125 0 Z M291 221 L291 472 L203 221 L291 221 Z M333 868 L388 868 L352 978 L242 978 L333 868 Z M463 840 Q456 796 418.5 764.5 Q381 733 337 733 Q298 733 272.5 758.5 Q247 784 247 822 Q247 828 249 840 L304 840 Q303 837 303 831 Q303 812 315.5 800 Q328 788 347 788 Q369 788 386.5 803 Q404 818 408 840 L463 840 Z " />
<glyph glyph-name="uni1EB3" unicode="&#x1eb3;" horiz-adv-x="417" d="M125 0 L13 0 L276 700 L386 700 L403 0 L291 0 L291 111 L165 111 L125 0 Z M291 221 L291 472 L203 221 L291 221 Z M300 975 Q340 975 365 950 Q390 925 390 886 Q390 880 388 868 L333 868 Q334 871 334 877 Q334 896 321.5 908 Q309 920 290 920 L253 965 Q274 975 300 975 Z M463 840 Q456 796 418.5 764.5 Q381 733 337 733 Q298 733 272.5 758.5 Q247 784 247 822 Q247 828 249 840 L304 840 Q303 837 303 831 Q303 812 315.5 800 Q328 788 347 788 Q369 788 386.5 803 Q404 818 408 840 L463 840 Z " />
<glyph glyph-name="uni1EB5" unicode="&#x1eb5;" horiz-adv-x="417" d="M291 0 L291 111 L165 111 L125 0 L13 0 L276 700 L386 700 L403 0 L291 0 Z M203 221 L291 221 L291 472 L203 221 Z M270 868 Q296 897 314 900 Q329 904 351 889 Q378 868 407 868 Q433 868 456 883.5 Q479 899 502 924 L463 956 Q437 929 422 924 Q408 921 389 935 Q359 956 330 956 Q323 956 311 954 Q273 945 232 901 L270 868 Z M463 840 Q456 796 418.5 764.5 Q381 733 337 733 Q298 733 272.5 758.5 Q247 784 247 822 Q247 828 249 840 L304 840 Q303 837 303 831 Q303 812 315.5 800 Q328 788 347 788 Q369 788 386.5 803 Q404 818 408 840 L463 840 Z " />
<glyph glyph-name="uni01CE" unicode="&#x1ce;" horiz-adv-x="417" d="M291 0 L291 111 L165 111 L125 0 L13 0 L276 700 L386 700 L403 0 L291 0 Z M203 221 L291 221 L291 472 L203 221 Z M467 847 L393 737 L283 737 L246 847 L302 847 L348 792 L412 847 L467 847 Z " />
<glyph glyph-name="acircumflex" unicode="&#xe2;" horiz-adv-x="417" d="M291 0 L291 111 L165 111 L125 0 L13 0 L276 700 L386 700 L403 0 L291 0 Z M203 221 L291 221 L291 472 L203 221 Z M448 737 L393 737 L348 792 L283 737 L227 737 L302 847 L412 847 L448 737 Z " />
<glyph glyph-name="uni1EA5" unicode="&#x1ea5;" horiz-adv-x="477" d="M291 0 L291 111 L165 111 L125 0 L13 0 L276 700 L386 700 L403 0 L291 0 Z M203 221 L291 221 L291 472 L203 221 Z M501 837 L630 947 L520 947 L446 837 L501 837 Z M228 737 L302 847 L412 847 L449 737 L393 737 L348 792 L283 737 L228 737 Z " />
<glyph glyph-name="uni1EAD" unicode="&#x1ead;" horiz-adv-x="417" d="M291 0 L291 111 L165 111 L125 0 L13 0 L276 700 L386 700 L403 0 L291 0 Z M203 221 L291 221 L291 472 L203 221 Z M448 737 L393 737 L348 792 L283 737 L227 737 L302 847 L412 847 L448 737 Z M143 -90 Q142 -93 142 -99 Q142 -116 153.5 -127.5 Q165 -139 183 -139 Q203 -139 220 -124.5 Q237 -110 241 -90 Q242 -87 242 -81 Q242 -63 230.5 -51.5 Q219 -40 201 -40 Q181 -40 164 -54.5 Q147 -69 143 -90 Z " />
<glyph glyph-name="uni1EA7" unicode="&#x1ea7;" horiz-adv-x="417" d="M125 0 L13 0 L276 700 L386 700 L403 0 L291 0 L291 111 L165 111 L125 0 Z M291 221 L291 472 L203 221 L291 221 Z M446 837 L501 837 L465 947 L355 947 L446 837 Z M228 737 L302 847 L412 847 L449 737 L393 737 L348 792 L283 737 L228 737 Z " />
<glyph glyph-name="uni1EA9" unicode="&#x1ea9;" horiz-adv-x="417" d="M125 0 L13 0 L276 700 L386 700 L403 0 L291 0 L291 111 L165 111 L125 0 Z M291 221 L291 472 L203 221 L291 221 Z M412 944 Q451 944 477 918.5 Q503 893 503 855 Q503 849 501 837 L446 837 Q447 840 447 846 Q447 865 434.5 877 Q422 889 403 889 L366 934 Q387 944 412 944 Z M228 737 L302 847 L412 847 L449 737 L393 737 L348 792 L283 737 L228 737 Z " />
<glyph glyph-name="uni1EAB" unicode="&#x1eab;" horiz-adv-x="417" d="M291 0 L291 111 L165 111 L125 0 L13 0 L276 700 L386 700 L403 0 L291 0 Z M203 221 L291 221 L291 472 L203 221 Z M448 737 L393 737 L348 792 L283 737 L227 737 L302 847 L412 847 L448 737 Z M270 868 Q296 897 314 900 Q329 904 351 889 Q378 868 407 868 Q433 868 456 883.5 Q479 899 502 924 L463 956 Q437 929 422 924 Q408 921 389 935 Q359 956 330 956 Q323 956 311 954 Q273 945 232 901 L270 868 Z " />
<glyph glyph-name="adieresis" unicode="&#xe4;" horiz-adv-x="417" d="M291 0 L291 111 L165 111 L125 0 L13 0 L276 700 L386 700 L403 0 L291 0 Z M203 221 L291 221 L291 472 L203 221 Z M221 785 Q218 765 230 750.5 Q242 736 262 736 Q282 736 299 750.5 Q316 765 319 785 Q320 788 320 794 Q320 812 308.5 823.5 Q297 835 279 835 Q259 835 242 820.5 Q225 806 221 785 Z M373 785 Q370 765 382 750.5 Q394 736 414 736 Q434 736 451 750.5 Q468 765 471 785 Q472 788 472 794 Q472 812 460.5 823.5 Q449 835 431 835 Q411 835 394 820.5 Q377 806 373 785 Z " />
<glyph glyph-name="uni01DF" unicode="&#x1df;" horiz-adv-x="417" d="M291 0 L291 111 L165 111 L125 0 L13 0 L276 700 L386 700 L403 0 L291 0 Z M203 221 L291 221 L291 472 L203 221 Z M221 785 Q218 765 230 750.5 Q242 736 262 736 Q282 736 299 750.5 Q316 765 319 785 Q320 788 320 794 Q320 812 308.5 823.5 Q297 835 279 835 Q259 835 242 820.5 Q225 806 221 785 Z M373 785 Q370 765 382 750.5 Q394 736 414 736 Q434 736 451 750.5 Q468 765 471 785 Q472 788 472 794 Q472 812 460.5 823.5 Q449 835 431 835 Q411 835 394 820.5 Q377 806 373 785 Z M472 868 L482 923 L260 923 L250 868 L472 868 Z " />
<glyph glyph-name="uni1EA1" unicode="&#x1ea1;" horiz-adv-x="417" d="M291 0 L291 111 L165 111 L125 0 L13 0 L276 700 L386 700 L403 0 L291 0 Z M203 221 L291 221 L291 472 L203 221 Z M143 -90 Q142 -93 142 -99 Q142 -116 153.5 -127.5 Q165 -139 183 -139 Q203 -139 220 -124.5 Q237 -110 241 -90 Q242 -87 242 -81 Q242 -63 230.5 -51.5 Q219 -40 201 -40 Q181 -40 164 -54.5 Q147 -69 143 -90 Z " />
<glyph glyph-name="agrave" unicode="&#xe0;" horiz-adv-x="417" d="M291 0 L291 111 L165 111 L125 0 L13 0 L276 700 L386 700 L403 0 L291 0 Z M203 221 L291 221 L291 472 L203 221 Z M316 737 L371 737 L335 847 L225 847 L316 737 Z " />
<glyph glyph-name="uni1EA3" unicode="&#x1ea3;" horiz-adv-x="417" d="M277 844 Q317 844 342 819 Q367 794 367 755 Q367 749 365 737 L310 737 Q311 740 311 746 Q311 765 298.5 777 Q286 789 267 789 L230 834 Q251 844 277 844 Z M291 0 L291 111 L165 111 L125 0 L13 0 L276 700 L386 700 L403 0 L291 0 Z M203 221 L291 221 L291 472 L203 221 Z " />
<glyph glyph-name="amacron" unicode="&#x101;" horiz-adv-x="417" d="M291 0 L291 111 L165 111 L125 0 L13 0 L276 700 L386 700 L403 0 L291 0 Z M203 221 L291 221 L291 472 L203 221 Z M448 737 L458 792 L237 792 L227 737 L448 737 Z " />
<glyph glyph-name="aogonek" unicode="&#x105;" horiz-adv-x="417" d="M291 0 L291 111 L165 111 L125 0 L13 0 L276 700 L386 700 L403 0 L291 0 Z M203 221 L291 221 L291 472 L203 221 Z M372 -136 L353 -136 Q320 -136 298 -123.5 Q276 -111 276 -86 Q276 -80 277 -77 Q282 -53 302.5 -32 Q323 -11 347 0 L403 0 Q382 -4 363.5 -20.5 Q345 -37 341 -56 Q338 -70 349 -75.5 Q360 -81 373 -81 L382 -81 L372 -136 Z " />
<glyph glyph-name="aring" unicode="&#xe5;" horiz-adv-x="417" d="M291 0 L291 111 L165 111 L125 0 L13 0 L276 700 L386 700 L403 0 L291 0 Z M203 221 L291 221 L291 472 L203 221 Z M338 740 Q367 740 391 760.5 Q415 781 420 809 Q421 813 421 822 Q421 846 404.5 862.5 Q388 879 363 879 Q334 879 310 858.5 Q286 838 281 809 Q280 805 280 796 Q280 772 296 756 Q312 740 338 740 Z M353 824 Q359 824 362.5 819.5 Q366 815 365 809 Q363 803 358.5 799 Q354 795 348 795 Q342 795 338.5 799 Q335 803 336 809 Q337 815 342 819.5 Q347 824 353 824 Z " />
<glyph glyph-name="atilde" unicode="&#xe3;" horiz-adv-x="417" d="M291 0 L291 111 L165 111 L125 0 L13 0 L276 700 L386 700 L403 0 L291 0 Z M203 221 L291 221 L291 472 L203 221 Z M249 735 Q275 764 292 767 Q308 771 329 756 Q357 735 386 735 Q430 735 480 791 L441 823 Q417 796 400 791 Q386 788 367 802 Q339 823 309 823 Q302 823 290 821 Q253 812 210 768 L249 735 Z " />
<glyph glyph-name="uni0250" unicode="&#x250;" horiz-adv-x="417" d="M416 700 L528 700 L264 0 L154 0 L138 700 L250 700 L250 589 L376 589 L416 700 Z M250 479 L250 228 L338 479 L250 479 Z " />
<glyph glyph-name="ae" unicode="&#xe6;" horiz-adv-x="575" d="M8 0 L291 700 L670 700 L651 590 L471 590 L440 414 L564 414 L545 304 L421 304 L386 110 L566 110 L547 0 L257 0 L276 110 L165 110 L121 0 L8 0 Z M296 220 L361 591 L211 220 L296 220 Z " />
<glyph glyph-name="b" unicode="b" horiz-adv-x="398" d="M206 0 Q277 0 328 39 Q358 61 376 95 Q394 127 402 168 L413 232 Q416 253 416 270 Q416 329 380 358 Q426 395 439 466 L451 531 Q454 552 454 572 Q454 590 451 605 Q445 637 423 661 Q386 700 314 700 L163 700 L40 0 L206 0 Z M202 294 L258 294 Q285 294 297 282 Q305 273 305 254 Q305 246 303 232 L292 168 Q286 134 269 121 Q256 110 225 110 L169 110 L202 294 Z M254 590 L295 590 Q325 590 335 579 Q342 571 342 550 Q342 537 341 531 L329 466 Q322 431 305 416 Q291 404 262 404 L221 404 L254 590 Z " />
<glyph glyph-name="uni1E05" unicode="&#x1e05;" horiz-adv-x="398" d="M206 0 Q277 0 328 39 Q358 61 376 95 Q394 127 402 168 L413 232 Q416 253 416 270 Q416 329 380 358 Q426 395 439 466 L451 531 Q454 552 454 572 Q454 590 451 605 Q445 637 423 661 Q386 700 314 700 L163 700 L40 0 L206 0 Z M202 294 L258 294 Q285 294 297 282 Q305 273 305 254 Q305 246 303 232 L292 168 Q286 134 269 121 Q256 110 225 110 L169 110 L202 294 Z M254 590 L295 590 Q325 590 335 579 Q342 571 342 550 Q342 537 341 531 L329 466 Q322 431 305 416 Q291 404 262 404 L221 404 L254 590 Z M141 -90 Q140 -93 140 -99 Q140 -116 151.5 -127.5 Q163 -139 181 -139 Q201 -139 218 -124.5 Q235 -110 239 -90 Q240 -87 240 -81 Q240 -63 228.5 -51.5 Q217 -40 199 -40 Q179 -40 162 -54.5 Q145 -69 141 -90 Z " />
<glyph glyph-name="uni0253" unicode="&#x253;" horiz-adv-x="449" d="M431 358 Q467 329 467 270 Q467 253 464 232 L453 168 Q445 127 427 95 Q409 61 379 39 Q328 0 257 0 L91 0 L205 645 L163 645 Q157 645 152.5 641 Q148 637 146 631 L91 631 Q96 660 120 680 Q144 700 172 700 L365 700 Q437 700 474 661 Q496 637 502 605 Q505 590 505 572 Q505 552 502 531 L490 466 Q477 395 431 358 Z M272 404 L313 404 Q342 404 356 416 Q373 431 380 466 L392 531 Q393 537 393 550 Q393 571 386 579 Q376 590 346 590 L305 590 L272 404 Z M354 232 Q356 246 356 254 Q356 273 348 282 Q336 294 309 294 L253 294 L220 110 L276 110 Q307 110 320 121 Q337 134 343 168 L354 232 Z " />
<glyph glyph-name="uni0180" unicode="&#x180;" horiz-adv-x="405" d="M387 358 Q423 329 423 270 Q423 253 420 232 L408 168 Q402 129 383 95 Q363 60 334 39 Q285 0 213 0 L47 0 L72 147 L26 147 L45 257 L92 257 L170 700 L321 700 Q393 700 430 661 Q452 637 458 605 Q461 590 461 572 Q461 552 458 531 L446 466 Q433 395 387 358 Z M228 404 L269 404 Q298 404 312 416 Q329 430 336 466 L348 531 Q349 537 349 550 Q349 571 342 579 Q331 590 302 590 L261 590 L228 404 Z M310 232 Q312 246 312 254 Q312 273 304 282 Q293 294 265 294 L208 294 L202 257 L248 257 L229 147 L182 147 L176 110 L232 110 Q261 110 276 121 Q285 128 290.5 141 Q296 154 298 168 L310 232 Z " />
<glyph glyph-name="c" unicode="c" horiz-adv-x="390" d="M196 -8 Q267 -8 319 33 Q378 81 392 164 L408 254 L298 254 L282 164 Q275 127 259 114 Q243 102 215 102 Q187 102 176 114 Q168 123 168 143 Q168 152 170 164 L236 536 Q238 550 243.5 564 Q249 578 259 586 Q275 598 302 598 Q331 598 342 586 Q350 577 350 558 Q350 550 348 536 L337 474 L447 474 L458 536 Q462 556 462 576 Q462 632 431 667 Q393 708 322 708 Q251 708 199 667 Q140 617 126 536 L60 164 Q56 136 56 125 Q56 71 87 33 Q125 -8 196 -8 Z " />
<glyph glyph-name="cacute" unicode="&#x107;" horiz-adv-x="390" d="M196 -8 Q267 -8 319 33 Q378 81 392 164 L408 254 L298 254 L282 164 Q275 127 259 114 Q243 102 215 102 Q187 102 176 114 Q168 123 168 143 Q168 152 170 164 L236 536 Q238 550 243.5 564 Q249 578 259 586 Q275 598 302 598 Q331 598 342 586 Q350 577 350 558 Q350 550 348 536 L337 474 L447 474 L458 536 Q462 556 462 576 Q462 632 431 667 Q393 708 322 708 Q251 708 199 667 Q140 617 126 536 L60 164 Q56 136 56 125 Q56 71 87 33 Q125 -8 196 -8 Z M349 737 L478 847 L368 847 L294 737 L349 737 Z " />
<glyph glyph-name="ccaron" unicode="&#x10d;" horiz-adv-x="390" d="M196 -8 Q267 -8 319 33 Q378 81 392 164 L408 254 L298 254 L282 164 Q275 127 259 114 Q243 102 215 102 Q187 102 176 114 Q168 123 168 143 Q168 152 170 164 L236 536 Q238 550 243.5 564 Q249 578 259 586 Q275 598 302 598 Q331 598 342 586 Q350 577 350 558 Q350 550 348 536 L337 474 L447 474 L458 536 Q462 556 462 576 Q462 632 431 667 Q393 708 322 708 Q251 708 199 667 Q140 617 126 536 L60 164 Q56 136 56 125 Q56 71 87 33 Q125 -8 196 -8 Z M456 847 L382 737 L272 737 L235 847 L291 847 L337 792 L401 847 L456 847 Z " />
<glyph glyph-name="ccedilla" unicode="&#xe7;" horiz-adv-x="390" d="M337 475 L348 537 Q350 551 350 561 Q350 580 343 587 Q331 599 303 599 Q274 599 260 587 Q243 574 236 537 L170 165 Q168 153 168 144 Q168 124 176 115 Q188 103 215 103 Q245 103 259 115 Q275 128 282 165 L298 255 L408 255 L392 165 Q378 82 319 34 Q279 1 222 -5 L222 -6 Q222 -11 226 -14 Q239 -25 245.5 -34.5 Q252 -44 252 -62 Q252 -67 250 -77 Q246 -105 222 -125.5 Q198 -146 169 -146 Q144 -146 127.5 -129.5 Q111 -113 111 -88 Q111 -81 112 -77 L167 -77 L167 -79 Q167 -84 170.5 -87.5 Q174 -91 179 -91 Q185 -91 189.5 -87 Q194 -83 195 -77 L196 -73 Q196 -69 191.5 -64.5 Q187 -60 186 -59 Q166 -43 166 -17 Q166 -10 167 -6 L167 -5 Q117 3 87 34 Q56 72 56 126 Q56 137 60 165 L126 537 Q140 618 199 668 Q252 709 322 709 Q395 709 431 668 Q462 633 462 577 Q462 557 458 537 L447 475 L337 475 Z " />
<glyph glyph-name="cdotaccent" unicode="&#x10b;" horiz-adv-x="390" d="M196 -8 Q267 -8 319 33 Q378 81 392 164 L408 254 L298 254 L282 164 Q275 127 259 114 Q243 102 215 102 Q187 102 176 114 Q168 123 168 143 Q168 152 170 164 L236 536 Q238 550 243.5 564 Q249 578 259 586 Q275 598 302 598 Q331 598 342 586 Q350 577 350 558 Q350 550 348 536 L337 474 L447 474 L458 536 Q462 556 462 576 Q462 632 431 667 Q393 708 322 708 Q251 708 199 667 Q140 617 126 536 L60 164 Q56 136 56 125 Q56 71 87 33 Q125 -8 196 -8 Z M286 785 Q283 765 295 750.5 Q307 736 327 736 Q347 736 364 750.5 Q381 765 384 785 Q385 788 385 794 Q385 812 373.5 823.5 Q362 835 344 835 Q324 835 307 820.5 Q290 806 286 785 Z " />
<glyph glyph-name="uni0188" unicode="&#x188;" horiz-adv-x="390" d="M433 709 Q438 738 462 758 Q486 778 515 778 L505 723 Q499 723 494 719 Q489 715 488 709 L447 474 L337 474 L348 536 Q350 550 350 558 Q350 577 342 586 Q331 598 302 598 Q275 598 259 586 Q249 578 243.5 564 Q238 550 236 536 L170 164 Q168 152 168 143 Q168 123 176 114 Q187 102 215 102 Q243 102 259 114 Q275 127 282 164 L298 254 L408 254 L392 164 Q378 81 319 33 Q267 -8 196 -8 Q125 -8 87 33 Q56 71 56 125 Q56 136 60 164 L126 536 Q140 617 199 667 Q251 708 322 708 Q355 708 382 698.5 Q409 689 426 671 L433 709 Z " />
<glyph glyph-name="d" unicode="d" horiz-adv-x="403" d="M206 0 Q277 0 328 39 Q357 60 377 95 Q395 129 402 168 L465 528 Q469 548 469 568 Q469 623 438 658 Q401 700 329 700 L163 700 L40 0 L206 0 Z M254 590 L310 590 Q338 590 349 578 Q357 569 357 549 Q357 540 355 528 L292 168 Q285 133 269 121 Q256 110 225 110 L169 110 L254 590 Z " />
<glyph glyph-name="eth" unicode="&#xf0;" horiz-adv-x="408" d="M443 658 Q474 623 474 568 Q474 548 470 528 L407 168 Q400 129 382 95 Q362 60 333 39 Q282 0 211 0 L45 0 L97 294 L57 294 L76 404 L116 404 L168 700 L334 700 Q406 700 443 658 Z M360 528 Q362 540 362 549 Q362 569 354 578 Q343 590 315 590 L259 590 L226 404 L276 404 L257 294 L207 294 L174 110 L230 110 Q261 110 274 121 Q290 133 297 168 L360 528 Z " />
<glyph glyph-name="dcaron" unicode="&#x10f;" horiz-adv-x="403" d="M206 0 Q277 0 328 39 Q357 60 377 95 Q395 129 402 168 L465 528 Q469 548 469 568 Q469 623 438 658 Q401 700 329 700 L163 700 L40 0 L206 0 Z M254 590 L310 590 Q338 590 349 578 Q357 569 357 549 Q357 540 355 528 L292 168 Q285 133 269 121 Q256 110 225 110 L169 110 L254 590 Z M465 847 L391 737 L281 737 L244 847 L300 847 L346 792 L410 847 L465 847 Z " />
<glyph glyph-name="uni1E13" unicode="&#x1e13;" horiz-adv-x="403" d="M206 0 Q277 0 328 39 Q357 60 377 95 Q395 129 402 168 L465 528 Q469 548 469 568 Q469 623 438 658 Q401 700 329 700 L163 700 L40 0 L206 0 Z M254 590 L310 590 Q338 590 349 578 Q357 569 357 549 Q357 540 355 528 L292 168 Q285 133 269 121 Q256 110 225 110 L169 110 L254 590 Z M290 -150 L235 -150 L189 -95 L125 -150 L69 -150 L144 -40 L254 -40 L290 -150 Z " />
<glyph glyph-name="dslash" unicode="&#x111;" horiz-adv-x="408" d="M443 658 Q474 623 474 568 Q474 548 470 528 L407 168 Q400 129 382 95 Q362 60 333 39 Q282 0 211 0 L45 0 L97 294 L57 294 L76 404 L116 404 L168 700 L334 700 Q406 700 443 658 Z M360 528 Q362 540 362 549 Q362 569 354 578 Q343 590 315 590 L259 590 L226 404 L276 404 L257 294 L207 294 L174 110 L230 110 Q261 110 274 121 Q290 133 297 168 L360 528 Z " />
<glyph glyph-name="uni1E0D" unicode="&#x1e0d;" horiz-adv-x="403" d="M206 0 Q277 0 328 39 Q357 60 377 95 Q395 129 402 168 L465 528 Q469 548 469 568 Q469 623 438 658 Q401 700 329 700 L163 700 L40 0 L206 0 Z M254 590 L310 590 Q338 590 349 578 Q357 569 357 549 Q357 540 355 528 L292 168 Q285 133 269 121 Q256 110 225 110 L169 110 L254 590 Z M141 -90 Q140 -93 140 -99 Q140 -116 151.5 -127.5 Q163 -139 181 -139 Q201 -139 218 -124.5 Q235 -110 239 -90 Q240 -87 240 -81 Q240 -63 228.5 -51.5 Q217 -40 199 -40 Q179 -40 162 -54.5 Q145 -69 141 -90 Z " />
<glyph glyph-name="uni0257" unicode="&#x257;" horiz-adv-x="454" d="M489 658 Q520 623 520 568 Q520 548 516 528 L453 168 Q446 129 428 95 Q408 60 379 39 Q328 0 257 0 L91 0 L205 645 L163 645 Q157 645 152.5 641 Q148 637 146 631 L91 631 Q96 660 120 680 Q144 700 172 700 L380 700 Q452 700 489 658 Z M406 528 Q408 540 408 549 Q408 569 400 578 Q389 590 361 590 L305 590 L220 110 L276 110 Q307 110 320 121 Q336 133 343 168 L406 528 Z " />
<glyph glyph-name="uni1E0F" unicode="&#x1e0f;" horiz-adv-x="403" d="M206 0 Q277 0 328 39 Q357 60 377 95 Q395 129 402 168 L465 528 Q469 548 469 568 Q469 623 438 658 Q401 700 329 700 L163 700 L40 0 L206 0 Z M254 590 L310 590 Q338 590 349 578 Q357 569 357 549 Q357 540 355 528 L292 168 Q285 133 269 121 Q256 110 225 110 L169 110 L254 590 Z M299 -95 L309 -40 L88 -40 L78 -95 L299 -95 Z " />
<glyph glyph-name="e" unicode="e" horiz-adv-x="358" d="M434 590 L254 590 L223 414 L347 414 L328 304 L204 304 L169 110 L349 110 L330 0 L40 0 L163 700 L453 700 L434 590 Z " />
<glyph glyph-name="eacute" unicode="&#xe9;" horiz-adv-x="358" d="M434 590 L254 590 L223 414 L347 414 L328 304 L204 304 L169 110 L349 110 L330 0 L40 0 L163 700 L453 700 L434 590 Z M342 737 L471 847 L361 847 L287 737 L342 737 Z " />
<glyph glyph-name="ecaron" unicode="&#x11b;" horiz-adv-x="358" d="M434 590 L254 590 L223 414 L347 414 L328 304 L204 304 L169 110 L349 110 L330 0 L40 0 L163 700 L453 700 L434 590 Z M450 847 L376 737 L266 737 L229 847 L285 847 L331 792 L395 847 L450 847 Z " />
<glyph glyph-name="uni0229" unicode="&#x229;" horiz-adv-x="358" d="M254 590 L223 414 L347 414 L328 304 L204 304 L169 110 L349 110 L330 0 L211 0 L211 -1 Q209 -4 214 -9 Q227 -19 234 -29 Q241 -39 241 -57 Q241 -62 239 -72 Q235 -100 211 -120.5 Q187 -141 158 -141 Q133 -141 116.5 -124.5 Q100 -108 100 -83 Q100 -76 101 -72 L156 -72 L156 -74 Q156 -79 159.5 -82.5 Q163 -86 168 -86 Q174 -86 178.5 -82 Q183 -78 184 -72 L185 -68 Q185 -65 182 -61.5 Q179 -58 174 -54 Q155 -38 155 -13 Q155 -5 156 -1 L156 0 L40 0 L163 700 L453 700 L434 590 L254 590 Z " />
<glyph glyph-name="ecircumflex" unicode="&#xea;" horiz-adv-x="358" d="M434 590 L254 590 L223 414 L347 414 L328 304 L204 304 L169 110 L349 110 L330 0 L40 0 L163 700 L453 700 L434 590 Z M431 737 L376 737 L331 792 L266 737 L210 737 L285 847 L395 847 L431 737 Z " />
<glyph glyph-name="uni1EBF" unicode="&#x1ebf;" horiz-adv-x="358" d="M483 837 L612 947 L502 947 L428 837 L483 837 Z M434 590 L254 590 L223 414 L347 414 L328 304 L204 304 L169 110 L349 110 L330 0 L40 0 L163 700 L453 700 L434 590 Z M431 737 L376 737 L331 792 L266 737 L210 737 L285 847 L395 847 L431 737 Z " />
<glyph glyph-name="uni1EC7" unicode="&#x1ec7;" horiz-adv-x="358" d="M126 -90 Q125 -93 125 -99 Q125 -116 136.5 -127.5 Q148 -139 166 -139 Q186 -139 203 -124.5 Q220 -110 224 -90 Q225 -87 225 -81 Q225 -63 213.5 -51.5 Q202 -40 184 -40 Q164 -40 147 -54.5 Q130 -69 126 -90 Z M434 590 L254 590 L223 414 L347 414 L328 304 L204 304 L169 110 L349 110 L330 0 L40 0 L163 700 L453 700 L434 590 Z M431 737 L376 737 L331 792 L266 737 L210 737 L285 847 L395 847 L431 737 Z " />
<glyph glyph-name="uni1EC1" unicode="&#x1ec1;" horiz-adv-x="358" d="M429 837 L484 837 L448 947 L338 947 L429 837 Z M434 590 L254 590 L223 414 L347 414 L328 304 L204 304 L169 110 L349 110 L330 0 L40 0 L163 700 L453 700 L434 590 Z M431 737 L376 737 L331 792 L266 737 L210 737 L285 847 L395 847 L431 737 Z " />
<glyph glyph-name="uni1EC3" unicode="&#x1ec3;" horiz-adv-x="358" d="M395 944 Q434 944 460 918.5 Q486 893 486 855 Q486 849 484 837 L429 837 Q430 840 430 846 Q430 865 417.5 877 Q405 889 386 889 L349 934 Q370 944 395 944 Z M434 590 L254 590 L223 414 L347 414 L328 304 L204 304 L169 110 L349 110 L330 0 L40 0 L163 700 L453 700 L434 590 Z M431 737 L376 737 L331 792 L266 737 L210 737 L285 847 L395 847 L431 737 Z " />
<glyph glyph-name="uni1EC5" unicode="&#x1ec5;" horiz-adv-x="358" d="M253 868 Q279 897 297 900 Q312 904 334 889 Q361 868 390 868 Q416 868 439 883.5 Q462 899 485 924 L446 956 Q420 929 405 924 Q391 921 372 935 Q342 956 313 956 Q306 956 294 954 Q256 945 215 901 L253 868 Z M434 590 L254 590 L223 414 L347 414 L328 304 L204 304 L169 110 L349 110 L330 0 L40 0 L163 700 L453 700 L434 590 Z M431 737 L376 737 L331 792 L266 737 L210 737 L285 847 L395 847 L431 737 Z " />
<glyph glyph-name="edieresis" unicode="&#xeb;" horiz-adv-x="358" d="M434 590 L254 590 L223 414 L347 414 L328 304 L204 304 L169 110 L349 110 L330 0 L40 0 L163 700 L453 700 L434 590 Z M198 785 Q195 765 207 750.5 Q219 736 239 736 Q259 736 276 750.5 Q293 765 296 785 Q297 788 297 794 Q297 812 285.5 823.5 Q274 835 256 835 Q236 835 219 820.5 Q202 806 198 785 Z M350 785 Q347 765 359 750.5 Q371 736 391 736 Q411 736 428 750.5 Q445 765 448 785 Q449 788 449 794 Q449 812 437.5 823.5 Q426 835 408 835 Q388 835 371 820.5 Q354 806 350 785 Z " />
<glyph glyph-name="edotaccent" unicode="&#x117;" horiz-adv-x="358" d="M280 785 Q277 765 289 750.5 Q301 736 321 736 Q341 736 358 750.5 Q375 765 378 785 Q379 788 379 794 Q379 812 367.5 823.5 Q356 835 338 835 Q318 835 301 820.5 Q284 806 280 785 Z M434 590 L254 590 L223 414 L347 414 L328 304 L204 304 L169 110 L349 110 L330 0 L40 0 L163 700 L453 700 L434 590 Z " />
<glyph glyph-name="uni1EB9" unicode="&#x1eb9;" horiz-adv-x="358" d="M126 -90 Q125 -93 125 -99 Q125 -116 136.5 -127.5 Q148 -139 166 -139 Q186 -139 203 -124.5 Q220 -110 224 -90 Q225 -87 225 -81 Q225 -63 213.5 -51.5 Q202 -40 184 -40 Q164 -40 147 -54.5 Q130 -69 126 -90 Z M434 590 L254 590 L223 414 L347 414 L328 304 L204 304 L169 110 L349 110 L330 0 L40 0 L163 700 L453 700 L434 590 Z " />
<glyph glyph-name="egrave" unicode="&#xe8;" horiz-adv-x="358" d="M434 590 L254 590 L223 414 L347 414 L328 304 L204 304 L169 110 L349 110 L330 0 L40 0 L163 700 L453 700 L434 590 Z M288 737 L343 737 L307 847 L197 847 L288 737 Z " />
<glyph glyph-name="uni1EBB" unicode="&#x1ebb;" horiz-adv-x="358" d="M255 844 Q295 844 320 819 Q345 794 345 755 Q345 749 343 737 L288 737 Q289 740 289 746 Q289 765 276.5 777 Q264 789 245 789 L208 834 Q229 844 255 844 Z M434 590 L254 590 L223 414 L347 414 L328 304 L204 304 L169 110 L349 110 L330 0 L40 0 L163 700 L453 700 L434 590 Z " />
<glyph glyph-name="emacron" unicode="&#x113;" horiz-adv-x="358" d="M434 590 L254 590 L223 414 L347 414 L328 304 L204 304 L169 110 L349 110 L330 0 L40 0 L163 700 L453 700 L434 590 Z M426 737 L436 792 L214 792 L204 737 L426 737 Z " />
<glyph glyph-name="eogonek" unicode="&#x119;" horiz-adv-x="358" d="M254 590 L223 414 L347 414 L328 304 L204 304 L169 110 L349 110 L330 0 Q309 -4 290.5 -20.5 Q272 -37 268 -56 Q265 -70 276 -75.5 Q287 -81 300 -81 L309 -81 L299 -136 L280 -136 Q247 -136 225 -123.5 Q203 -111 203 -86 Q203 -80 204 -77 Q209 -53 229.5 -32 Q250 -11 274 0 L40 0 L163 700 L453 700 L434 590 L254 590 Z " />
<glyph glyph-name="uni0258" unicode="&#x258;" horiz-adv-x="358" d="M132 590 L151 700 L441 700 L318 0 L28 0 L47 110 L227 110 L262 304 L138 304 L157 414 L281 414 L312 590 L132 590 Z " />
<glyph glyph-name="uni1EBD" unicode="&#x1ebd;" horiz-adv-x="358" d="M226 735 Q252 764 269 767 Q285 771 306 756 Q334 735 363 735 Q407 735 457 791 L418 823 Q394 796 377 791 Q363 788 344 802 Q315 823 286 823 Q279 823 267 821 Q230 812 187 768 L226 735 Z M434 590 L254 590 L223 414 L347 414 L328 304 L204 304 L169 110 L349 110 L330 0 L40 0 L163 700 L453 700 L434 590 Z " />
<glyph glyph-name="uni01DD" unicode="&#x1dd;" horiz-adv-x="358" d="M132 590 L151 700 L441 700 L318 0 L28 0 L47 110 L227 110 L262 304 L138 304 L157 414 L281 414 L312 590 L132 590 Z " />
<glyph glyph-name="f" unicode="f" horiz-adv-x="344" d="M434 590 L254 590 L223 414 L348 414 L329 304 L204 304 L150 0 L40 0 L163 700 L453 700 L434 590 Z " />
<glyph glyph-name="g" unicode="g" horiz-adv-x="395" d="M196 -8 Q267 -8 319 33 Q378 81 392 164 L434 405 L269 405 L250 295 L305 295 L282 164 Q275 127 259 114 Q243 102 215 102 Q187 102 176 114 Q168 123 168 143 Q168 152 170 164 L236 536 Q238 550 243.5 564 Q249 578 259 586 Q275 598 302 598 Q331 598 342 586 Q350 577 350 558 Q350 550 348 536 L337 474 L447 474 L458 536 Q462 556 462 576 Q462 632 431 667 Q393 708 322 708 Q251 708 199 667 Q140 617 126 536 L60 164 Q56 136 56 125 Q56 71 87 33 Q125 -8 196 -8 Z " />
<glyph glyph-name="gbreve" unicode="&#x11f;" horiz-adv-x="395" d="M196 -8 Q267 -8 319 33 Q378 81 392 164 L434 405 L269 405 L250 295 L305 295 L282 164 Q275 127 259 114 Q243 102 215 102 Q187 102 176 114 Q168 123 168 143 Q168 152 170 164 L236 536 Q238 550 243.5 564 Q249 578 259 586 Q275 598 302 598 Q331 598 342 586 Q350 577 350 558 Q350 550 348 536 L337 474 L447 474 L458 536 Q462 556 462 576 Q462 632 431 667 Q393 708 322 708 Q251 708 199 667 Q140 617 126 536 L60 164 Q56 136 56 125 Q56 71 87 33 Q125 -8 196 -8 Z M453 843 Q445 799 408 767.5 Q371 736 327 736 Q288 736 262.5 761 Q237 786 237 824 Q237 829 239 843 L294 843 Q293 840 293 834 Q293 815 305 803 Q317 791 336 791 Q358 791 376 806 Q394 821 398 843 L453 843 Z " />
<glyph glyph-name="gcaron" unicode="&#x1e7;" horiz-adv-x="395" d="M456 847 L382 737 L272 737 L235 847 L291 847 L337 792 L401 847 L456 847 Z M196 -8 Q267 -8 319 33 Q378 81 392 164 L434 405 L269 405 L250 295 L305 295 L282 164 Q275 127 259 114 Q243 102 215 102 Q187 102 176 114 Q168 123 168 143 Q168 152 170 164 L236 536 Q238 550 243.5 564 Q249 578 259 586 Q275 598 302 598 Q331 598 342 586 Q350 577 350 558 Q350 550 348 536 L337 474 L447 474 L458 536 Q462 556 462 576 Q462 632 431 667 Q393 708 322 708 Q251 708 199 667 Q140 617 126 536 L60 164 Q56 136 56 125 Q56 71 87 33 Q125 -8 196 -8 Z " />
<glyph glyph-name="gcommaaccent" unicode="&#x123;" horiz-adv-x="395" d="M196 -8 Q267 -8 319 33 Q378 81 392 164 L434 405 L269 405 L250 295 L305 295 L282 164 Q275 127 259 114 Q243 102 215 102 Q187 102 176 114 Q168 123 168 143 Q168 152 170 164 L236 536 Q238 550 243.5 564 Q249 578 259 586 Q275 598 302 598 Q331 598 342 586 Q350 577 350 558 Q350 550 348 536 L337 474 L447 474 L458 536 Q462 556 462 576 Q462 632 431 667 Q393 708 322 708 Q251 708 199 667 Q140 617 126 536 L60 164 Q56 136 56 125 Q56 71 87 33 Q125 -8 196 -8 Z M233 -79 Q230 -100 211 -125 Q195 -148 168 -179 L132 -179 L147 -151 Q153 -139 153 -133 Q153 -126 148 -122 Q141 -114 137 -106.5 Q133 -99 133 -88 Q133 -82 134 -79 Q138 -59 155 -44.5 Q172 -30 192 -30 Q211 -30 222.5 -41.5 Q234 -53 234 -70 Q234 -76 233 -79 Z " />
<glyph glyph-name="gdotaccent" unicode="&#x121;" horiz-adv-x="395" d="M286 785 Q283 765 295 750.5 Q307 736 327 736 Q347 736 364 750.5 Q381 765 384 785 Q385 788 385 794 Q385 812 373.5 823.5 Q362 835 344 835 Q324 835 307 820.5 Q290 806 286 785 Z M196 -8 Q267 -8 319 33 Q378 81 392 164 L434 405 L269 405 L250 295 L305 295 L282 164 Q275 127 259 114 Q243 102 215 102 Q187 102 176 114 Q168 123 168 143 Q168 152 170 164 L236 536 Q238 550 243.5 564 Q249 578 259 586 Q275 598 302 598 Q331 598 342 586 Q350 577 350 558 Q350 550 348 536 L337 474 L447 474 L458 536 Q462 556 462 576 Q462 632 431 667 Q393 708 322 708 Q251 708 199 667 Q140 617 126 536 L60 164 Q56 136 56 125 Q56 71 87 33 Q125 -8 196 -8 Z " />
<glyph glyph-name="uni0260" unicode="&#x260;" horiz-adv-x="395" d="M433 709 Q438 738 462 758 Q486 778 514 778 L504 723 Q498 723 493.5 719 Q489 715 488 709 L447 474 L337 474 L348 536 Q350 550 350 558 Q350 577 342 586 Q331 598 302 598 Q275 598 259 586 Q249 578 243.5 564 Q238 550 236 536 L170 164 Q168 152 168 143 Q168 123 176 114 Q187 102 215 102 Q243 102 259 114 Q275 127 282 164 L305 295 L250 295 L269 405 L434 405 L392 164 Q378 81 319 33 Q267 -8 196 -8 Q125 -8 87 33 Q56 71 56 125 Q56 136 60 164 L126 536 Q140 617 199 667 Q251 708 322 708 Q389 708 426 671 L433 709 Z " />
<glyph glyph-name="h" unicode="h" horiz-adv-x="412" d="M385 700 L495 700 L372 0 L262 0 L316 304 L204 304 L150 0 L40 0 L163 700 L273 700 L223 414 L335 414 L385 700 Z " />
<glyph glyph-name="hbar" unicode="&#x127;" horiz-adv-x="422" d="M516 564 L507 509 L467 509 L377 0 L267 0 L321 304 L209 304 L155 0 L45 0 L135 509 L95 509 L104 564 L144 564 L168 700 L278 700 L254 564 L366 564 L390 700 L500 700 L476 564 L516 564 Z M340 414 L357 509 L245 509 L228 414 L340 414 Z " />
<glyph glyph-name="uni1E25" unicode="&#x1e25;" horiz-adv-x="412" d="M385 700 L495 700 L372 0 L262 0 L316 304 L204 304 L150 0 L40 0 L163 700 L273 700 L223 414 L335 414 L385 700 Z M141 -90 Q140 -93 140 -99 Q140 -116 151.5 -127.5 Q163 -139 181 -139 Q201 -139 218 -124.5 Q235 -110 239 -90 Q240 -87 240 -81 Q240 -63 228.5 -51.5 Q217 -40 199 -40 Q179 -40 162 -54.5 Q145 -69 141 -90 Z " />
<glyph glyph-name="uni0266" unicode="&#x266;" horiz-adv-x="463" d="M546 700 L423 0 L313 0 L367 304 L255 304 L201 0 L91 0 L205 645 L163 645 Q157 645 152.5 641 Q148 637 146 631 L91 631 Q96 660 120 680 Q144 700 172 700 L324 700 L274 414 L386 414 L436 700 L546 700 Z " />
<glyph glyph-name="uni0265" unicode="&#x265;" horiz-adv-x="412" d="M385 700 L495 700 L372 0 L262 0 L316 304 L204 304 L150 0 L40 0 L163 700 L273 700 L223 414 L335 414 L385 700 Z " />
<glyph glyph-name="i" unicode="i" horiz-adv-x="190" d="M150 0 L273 700 L163 700 L40 0 L150 0 Z " />
<glyph glyph-name="dotlessi" unicode="&#x131;" horiz-adv-x="190" d="M150 0 L273 700 L163 700 L40 0 L150 0 Z " />
<glyph glyph-name="iacute" unicode="&#xed;" horiz-adv-x="190" d="M150 0 L273 700 L163 700 L40 0 L150 0 Z M252 737 L381 847 L271 847 L197 737 L252 737 Z " />
<glyph glyph-name="uni01D0" unicode="&#x1d0;" horiz-adv-x="189" d="M150 0 L273 700 L163 700 L40 0 L150 0 Z M354 847 L280 737 L170 737 L133 847 L189 847 L235 792 L299 847 L354 847 Z " />
<glyph glyph-name="icircumflex" unicode="&#xee;" horiz-adv-x="189" d="M150 0 L273 700 L163 700 L40 0 L150 0 Z M335 737 L280 737 L235 792 L170 737 L114 737 L189 847 L299 847 L335 737 Z " />
<glyph glyph-name="idieresis" unicode="&#xef;" horiz-adv-x="190" d="M150 0 L273 700 L163 700 L40 0 L150 0 Z M108 785 Q105 765 117 750.5 Q129 736 149 736 Q169 736 186 750.5 Q203 765 206 785 Q207 788 207 794 Q207 812 195.5 823.5 Q184 835 166 835 Q146 835 129 820.5 Q112 806 108 785 Z M260 785 Q257 765 269 750.5 Q281 736 301 736 Q321 736 338 750.5 Q355 765 358 785 Q359 788 359 794 Q359 812 347.5 823.5 Q336 835 318 835 Q298 835 281 820.5 Q264 806 260 785 Z " />
<glyph glyph-name="uni1E2F" unicode="&#x1e2f;" horiz-adv-x="190" d="M108 785 Q105 765 117 750.5 Q129 736 149 736 Q169 736 186 750.5 Q203 765 206 785 Q207 788 207 794 Q207 812 195.5 823.5 Q184 835 166 835 Q146 835 129 820.5 Q112 806 108 785 Z M260 785 Q257 765 269 750.5 Q281 736 301 736 Q321 736 338 750.5 Q355 765 358 785 Q359 788 359 794 Q359 812 347.5 823.5 Q336 835 318 835 Q298 835 281 820.5 Q264 806 260 785 Z M150 0 L273 700 L163 700 L40 0 L150 0 Z M275 868 L404 978 L294 978 L220 868 L275 868 Z " />
<glyph glyph-name="uni1ECB" unicode="&#x1ecb;" horiz-adv-x="190" d="M150 0 L273 700 L163 700 L40 0 L150 0 Z M30 -90 Q29 -93 29 -99 Q29 -116 40.5 -127.5 Q52 -139 70 -139 Q90 -139 107 -124.5 Q124 -110 128 -90 Q129 -87 129 -81 Q129 -63 117.5 -51.5 Q106 -40 88 -40 Q68 -40 51 -54.5 Q34 -69 30 -90 Z " />
<glyph glyph-name="igrave" unicode="&#xec;" horiz-adv-x="190" d="M150 0 L273 700 L163 700 L40 0 L150 0 Z M198 737 L253 737 L217 847 L107 847 L198 737 Z " />
<glyph glyph-name="uni1EC9" unicode="&#x1ec9;" horiz-adv-x="190" d="M150 0 L273 700 L163 700 L40 0 L150 0 Z M165 844 Q205 844 230 819 Q255 794 255 755 Q255 749 253 737 L198 737 Q199 740 199 746 Q199 765 186.5 777 Q174 789 155 789 L118 834 Q139 844 165 844 Z " />
<glyph glyph-name="imacron" unicode="&#x12b;" horiz-adv-x="190" d="M150 0 L273 700 L163 700 L40 0 L150 0 Z M336 737 L346 792 L124 792 L114 737 L336 737 Z " />
<glyph glyph-name="iogonek" unicode="&#x12f;" horiz-adv-x="192" d="M275 700 L152 0 Q131 -4 112.5 -20.5 Q94 -37 90 -56 Q87 -70 98 -75.5 Q109 -81 122 -81 L131 -81 L121 -136 L102 -136 Q69 -136 47 -123.5 Q25 -111 25 -86 Q25 -80 26 -77 Q31 -53 51.5 -32 Q72 -11 96 0 L42 0 L165 700 L275 700 Z " />
<glyph glyph-name="uni0268" unicode="&#x268;" horiz-adv-x="200" d="M263 387 L254 332 L214 332 L155 0 L45 0 L104 332 L64 332 L73 387 L113 387 L168 700 L278 700 L223 387 L263 387 Z " />
<glyph glyph-name="itilde" unicode="&#x129;" horiz-adv-x="190" d="M150 0 L273 700 L163 700 L40 0 L150 0 Z M136 735 Q162 764 179 767 Q195 771 216 756 Q244 735 273 735 Q317 735 367 791 L328 823 Q304 796 287 791 Q273 788 254 802 Q225 823 196 823 Q189 823 177 821 Q140 812 97 768 L136 735 Z " />
<glyph glyph-name="j" unicode="j" horiz-adv-x="382" d="M180 -8 Q250 -8 303 33 Q362 83 376 164 L470 700 L360 700 L266 164 Q259 127 242 114 Q226 102 199 102 Q170 102 159 114 Q152 121 152 140 Q152 150 154 164 L169 251 L59 251 L44 164 Q40 144 40 124 Q40 68 71 33 Q107 -8 180 -8 Z " />
<glyph glyph-name="k" unicode="k" horiz-adv-x="404" d="M315 368 L391 0 L273 0 L227 224 L174 137 L150 0 L40 0 L163 700 L273 700 L223 416 L395 700 L514 700 L315 368 Z " />
<glyph glyph-name="kcommaaccent" unicode="&#x137;" horiz-adv-x="404" d="M315 368 L391 0 L273 0 L227 224 L174 137 L150 0 L40 0 L163 700 L273 700 L223 416 L395 700 L514 700 L315 368 Z M247 -79 Q244 -100 225 -125 Q209 -148 182 -179 L146 -179 L161 -151 Q167 -139 167 -133 Q167 -126 162 -122 Q155 -114 151 -106.5 Q147 -99 147 -88 Q147 -82 148 -79 Q152 -59 169 -44.5 Q186 -30 206 -30 Q225 -30 236.5 -41.5 Q248 -53 248 -70 Q248 -76 247 -79 Z " />
<glyph glyph-name="uni0199" unicode="&#x199;" horiz-adv-x="459" d="M532 700 Q558 700 574.5 683.5 Q591 667 591 643 Q591 635 590 631 L535 631 L535 634 Q535 639 531.5 642 Q528 645 523 645 L482 645 L315 368 L391 0 L273 0 L227 224 L174 137 L150 0 L40 0 L163 700 L273 700 L223 416 L395 700 L532 700 Z " />
<glyph glyph-name="l" unicode="l" horiz-adv-x="343" d="M330 0 L349 110 L169 110 L273 700 L163 700 L40 0 L330 0 Z " />
<glyph glyph-name="lacute" unicode="&#x13a;" horiz-adv-x="343" d="M330 0 L349 110 L169 110 L273 700 L163 700 L40 0 L330 0 Z M252 737 L381 847 L271 847 L197 737 L252 737 Z " />
<glyph glyph-name="lcaron" unicode="&#x13e;" horiz-adv-x="343" d="M330 0 L349 110 L169 110 L273 700 L163 700 L40 0 L330 0 Z M424 651 Q420 631 402 605 Q386 582 359 551 L323 551 L338 579 Q344 591 344 597 Q344 604 339 608 Q332 616 328 623.5 Q324 631 324 642 Q324 648 325 651 Q329 671 345.5 685.5 Q362 700 382 700 Q401 700 413 688.5 Q425 677 425 660 Q425 654 424 651 Z " />
<glyph glyph-name="uni1E3D" unicode="&#x1e3d;" horiz-adv-x="343" d="M330 0 L349 110 L169 110 L273 700 L163 700 L40 0 L330 0 Z M270 -150 L215 -150 L169 -95 L105 -150 L49 -150 L124 -40 L234 -40 L270 -150 Z " />
<glyph glyph-name="lcommaaccent" unicode="&#x13c;" horiz-adv-x="343" d="M330 0 L349 110 L169 110 L273 700 L163 700 L40 0 L330 0 Z M228 -89 Q225 -110 206 -135 Q196 -150 164 -189 L128 -189 Q134 -175 143 -161 Q149 -149 149 -143 Q149 -137 144 -132 Q128 -116 128 -98 Q128 -92 129 -89 Q133 -69 150 -54.5 Q167 -40 187 -40 Q206 -40 217.5 -51.5 Q229 -63 229 -80 Q229 -86 228 -89 Z " />
<glyph glyph-name="uni1E37" unicode="&#x1e37;" horiz-adv-x="343" d="M330 0 L349 110 L169 110 L273 700 L163 700 L40 0 L330 0 Z M130 -90 Q129 -93 129 -99 Q129 -116 140.5 -127.5 Q152 -139 170 -139 Q190 -139 207 -124.5 Q224 -110 228 -90 Q229 -87 229 -81 Q229 -63 217.5 -51.5 Q206 -40 188 -40 Q168 -40 151 -54.5 Q134 -69 130 -90 Z " />
<glyph glyph-name="lslash" unicode="&#x142;" horiz-adv-x="352" d="M223 365 L368 495 L353 415 L209 285 L178 110 L358 110 L339 0 L49 0 L78 167 L20 114 L34 195 L93 247 L172 700 L282 700 L223 365 Z " />
<glyph glyph-name="m" unicode="m" horiz-adv-x="542" d="M562 700 L625 700 L502 0 L392 0 L454 349 L322 110 L258 110 L212 349 L150 0 L40 0 L163 700 L226 700 L326 312 L562 700 Z " />
<glyph glyph-name="uni1E3F" unicode="&#x1e3f;" horiz-adv-x="542" d="M562 700 L625 700 L502 0 L392 0 L454 349 L322 110 L258 110 L212 349 L150 0 L40 0 L163 700 L226 700 L326 312 L562 700 Z M428 737 L557 847 L447 847 L373 737 L428 737 Z " />
<glyph glyph-name="uni026F" unicode="&#x26f;" horiz-adv-x="542" d="M439 0 L340 388 L103 0 L40 0 L164 700 L274 700 L212 351 L343 590 L407 590 L454 351 L516 700 L626 700 L502 0 L439 0 Z " />
<glyph glyph-name="n" unicode="n" horiz-adv-x="414" d="M501 700 L378 0 L314 0 L209 355 L146 0 L36 0 L159 700 L223 700 L329 346 L391 700 L501 700 Z " />
<glyph glyph-name="nacute" unicode="&#x144;" horiz-adv-x="414" d="M501 700 L378 0 L314 0 L209 355 L146 0 L36 0 L159 700 L223 700 L329 346 L391 700 L501 700 Z M364 737 L493 847 L383 847 L309 737 L364 737 Z " />
<glyph glyph-name="ncaron" unicode="&#x148;" horiz-adv-x="414" d="M501 700 L378 0 L314 0 L209 355 L146 0 L36 0 L159 700 L223 700 L329 346 L391 700 L501 700 Z M466 847 L392 737 L282 737 L245 847 L301 847 L347 792 L411 847 L466 847 Z " />
<glyph glyph-name="uni1E4B" unicode="&#x1e4b;" horiz-adv-x="414" d="M501 700 L378 0 L314 0 L209 355 L146 0 L36 0 L159 700 L223 700 L329 346 L391 700 L501 700 Z M291 -150 L236 -150 L190 -95 L126 -150 L70 -150 L145 -40 L255 -40 L291 -150 Z " />
<glyph glyph-name="ncommaaccent" unicode="&#x146;" horiz-adv-x="414" d="M501 700 L378 0 L314 0 L209 355 L146 0 L36 0 L159 700 L223 700 L329 346 L391 700 L501 700 Z M241 -89 Q238 -110 219 -135 Q209 -150 177 -189 L141 -189 Q147 -175 156 -161 Q162 -149 162 -143 Q162 -137 157 -132 Q141 -116 141 -98 Q141 -92 142 -89 Q146 -69 163 -54.5 Q180 -40 200 -40 Q219 -40 230.5 -51.5 Q242 -63 242 -80 Q242 -86 241 -89 Z " />
<glyph glyph-name="uni1E45" unicode="&#x1e45;" horiz-adv-x="414" d="M501 700 L378 0 L314 0 L209 355 L146 0 L36 0 L159 700 L223 700 L329 346 L391 700 L501 700 Z M296 785 Q293 765 305 750.5 Q317 736 337 736 Q357 736 374 750.5 Q391 765 394 785 Q395 788 395 794 Q395 812 383.5 823.5 Q372 835 354 835 Q334 835 317 820.5 Q300 806 296 785 Z " />
<glyph glyph-name="uni1E47" unicode="&#x1e47;" horiz-adv-x="414" d="M501 700 L378 0 L314 0 L209 355 L146 0 L36 0 L159 700 L223 700 L329 346 L391 700 L501 700 Z M142 -90 Q141 -93 141 -99 Q141 -116 152.5 -127.5 Q164 -139 182 -139 Q202 -139 219 -124.5 Q236 -110 240 -90 Q241 -87 241 -81 Q241 -63 229.5 -51.5 Q218 -40 200 -40 Q180 -40 163 -54.5 Q146 -69 142 -90 Z " />
<glyph glyph-name="eng" unicode="&#x14b;" horiz-adv-x="414" d="M501 700 L371 -42 Q366 -70 342 -90.5 Q318 -111 289 -111 L299 -56 Q305 -56 309.5 -52 Q314 -48 316 -42 L323 0 L209 355 L146 0 L36 0 L159 700 L223 700 L329 346 L391 700 L501 700 Z " />
<glyph glyph-name="uni0272" unicode="&#x272;" horiz-adv-x="414" d="M501 700 L378 0 L314 0 L209 355 L146 0 Q135 -66 102 -88.5 Q69 -111 2 -111 L12 -56 Q18 -56 22.5 -52 Q27 -48 29 -42 L159 700 L223 700 L329 346 L391 700 L501 700 Z " />
<glyph glyph-name="ntilde" unicode="&#xf1;" horiz-adv-x="414" d="M501 700 L378 0 L314 0 L209 355 L146 0 L36 0 L159 700 L223 700 L329 346 L391 700 L501 700 Z M248 735 Q274 764 291 767 Q307 771 328 756 Q356 735 385 735 Q429 735 479 791 L440 823 Q416 796 399 791 Q385 788 366 802 Q338 823 308 823 Q301 823 289 821 Q252 812 209 768 L248 735 Z " />
<glyph glyph-name="o" unicode="o" horiz-adv-x="394" d="M196 -8 Q267 -8 319 33 Q378 81 392 164 L458 536 Q462 556 462 576 Q462 632 431 667 Q393 708 322 708 Q249 708 199 667 Q140 619 126 536 L60 164 Q56 144 56 124 Q56 68 87 33 Q123 -8 196 -8 Z M302 598 Q331 598 341 586 Q350 577 350 557 Q350 548 348 536 L282 164 Q275 126 258 114 Q244 102 215 102 Q187 102 176 114 Q168 123 168 143 Q168 152 170 164 L236 536 Q238 550 243.5 564 Q249 578 259 586 Q275 598 302 598 Z " />
<glyph glyph-name="oacute" unicode="&#xf3;" horiz-adv-x="394" d="M196 -8 Q267 -8 319 33 Q378 81 392 164 L458 536 Q462 556 462 576 Q462 632 431 667 Q393 708 322 708 Q249 708 199 667 Q140 619 126 536 L60 164 Q56 144 56 124 Q56 68 87 33 Q123 -8 196 -8 Z M302 598 Q331 598 341 586 Q350 577 350 557 Q350 548 348 536 L282 164 Q275 126 258 114 Q244 102 215 102 Q187 102 176 114 Q168 123 168 143 Q168 152 170 164 L236 536 Q238 550 243.5 564 Q249 578 259 586 Q275 598 302 598 Z M354 737 L483 847 L373 847 L299 737 L354 737 Z " />
<glyph glyph-name="uni01D2" unicode="&#x1d2;" horiz-adv-x="394" d="M196 -8 Q267 -8 319 33 Q378 81 392 164 L458 536 Q462 556 462 576 Q462 632 431 667 Q393 708 322 708 Q249 708 199 667 Q140 619 126 536 L60 164 Q56 144 56 124 Q56 68 87 33 Q123 -8 196 -8 Z M302 598 Q331 598 341 586 Q350 577 350 557 Q350 548 348 536 L282 164 Q275 126 258 114 Q244 102 215 102 Q187 102 176 114 Q168 123 168 143 Q168 152 170 164 L236 536 Q238 550 243.5 564 Q249 578 259 586 Q275 598 302 598 Z M236 847 L291 847 L337 792 L401 847 L457 847 L382 737 L272 737 L236 847 Z " />
<glyph glyph-name="ocircumflex" unicode="&#xf4;" horiz-adv-x="394" d="M196 -8 Q267 -8 319 33 Q378 81 392 164 L458 536 Q462 556 462 576 Q462 632 431 667 Q393 708 322 708 Q249 708 199 667 Q140 619 126 536 L60 164 Q56 144 56 124 Q56 68 87 33 Q123 -8 196 -8 Z M302 598 Q331 598 341 586 Q350 577 350 557 Q350 548 348 536 L282 164 Q275 126 258 114 Q244 102 215 102 Q187 102 176 114 Q168 123 168 143 Q168 152 170 164 L236 536 Q238 550 243.5 564 Q249 578 259 586 Q275 598 302 598 Z M217 737 L291 847 L401 847 L438 737 L382 737 L337 792 L272 737 L217 737 Z " />
<glyph glyph-name="uni1ED1" unicode="&#x1ed1;" horiz-adv-x="394" d="M196 -8 Q267 -8 319 33 Q378 81 392 164 L458 536 Q462 556 462 576 Q462 632 431 667 Q393 708 322 708 Q249 708 199 667 Q140 619 126 536 L60 164 Q56 144 56 124 Q56 68 87 33 Q123 -8 196 -8 Z M302 598 Q331 598 341 586 Q350 577 350 557 Q350 548 348 536 L282 164 Q275 126 258 114 Q244 102 215 102 Q187 102 176 114 Q168 123 168 143 Q168 152 170 164 L236 536 Q238 550 243.5 564 Q249 578 259 586 Q275 598 302 598 Z M490 837 L619 947 L509 947 L435 837 L490 837 Z M217 737 L291 847 L401 847 L438 737 L382 737 L337 792 L272 737 L217 737 Z " />
<glyph glyph-name="uni1ED9" unicode="&#x1ed9;" horiz-adv-x="394" d="M196 -8 Q267 -8 319 33 Q378 81 392 164 L458 536 Q462 556 462 576 Q462 632 431 667 Q393 708 322 708 Q249 708 199 667 Q140 619 126 536 L60 164 Q56 144 56 124 Q56 68 87 33 Q123 -8 196 -8 Z M302 598 Q331 598 341 586 Q350 577 350 557 Q350 548 348 536 L282 164 Q275 126 258 114 Q244 102 215 102 Q187 102 176 114 Q168 123 168 143 Q168 152 170 164 L236 536 Q238 550 243.5 564 Q249 578 259 586 Q275 598 302 598 Z M217 737 L291 847 L401 847 L438 737 L382 737 L337 792 L272 737 L217 737 Z M132 -90 Q131 -93 131 -99 Q131 -116 142.5 -127.5 Q154 -139 172 -139 Q192 -139 209 -124.5 Q226 -110 230 -90 Q231 -87 231 -81 Q231 -63 219.5 -51.5 Q208 -40 190 -40 Q170 -40 153 -54.5 Q136 -69 132 -90 Z " />
<glyph glyph-name="uni1ED3" unicode="&#x1ed3;" horiz-adv-x="394" d="M196 -8 Q267 -8 319 33 Q378 81 392 164 L458 536 Q462 556 462 576 Q462 632 431 667 Q393 708 322 708 Q249 708 199 667 Q140 619 126 536 L60 164 Q56 144 56 124 Q56 68 87 33 Q123 -8 196 -8 Z M302 598 Q331 598 341 586 Q350 577 350 557 Q350 548 348 536 L282 164 Q275 126 258 114 Q244 102 215 102 Q187 102 176 114 Q168 123 168 143 Q168 152 170 164 L236 536 Q238 550 243.5 564 Q249 578 259 586 Q275 598 302 598 Z M435 837 L490 837 L454 947 L344 947 L435 837 Z M217 737 L291 847 L401 847 L438 737 L382 737 L337 792 L272 737 L217 737 Z " />
<glyph glyph-name="uni1ED5" unicode="&#x1ed5;" horiz-adv-x="394" d="M196 -8 Q267 -8 319 33 Q378 81 392 164 L458 536 Q462 556 462 576 Q462 632 431 667 Q393 708 322 708 Q249 708 199 667 Q140 619 126 536 L60 164 Q56 144 56 124 Q56 68 87 33 Q123 -8 196 -8 Z M302 598 Q331 598 341 586 Q350 577 350 557 Q350 548 348 536 L282 164 Q275 126 258 114 Q244 102 215 102 Q187 102 176 114 Q168 123 168 143 Q168 152 170 164 L236 536 Q238 550 243.5 564 Q249 578 259 586 Q275 598 302 598 Z M401 944 Q440 944 466 918.5 Q492 893 492 855 Q492 849 490 837 L435 837 Q436 840 436 846 Q436 865 423.5 877 Q411 889 392 889 L355 934 Q376 944 401 944 Z M217 737 L291 847 L401 847 L438 737 L382 737 L337 792 L272 737 L217 737 Z " />
<glyph glyph-name="uni1ED7" unicode="&#x1ed7;" horiz-adv-x="394" d="M196 -8 Q267 -8 319 33 Q378 81 392 164 L458 536 Q462 556 462 576 Q462 632 431 667 Q393 708 322 708 Q249 708 199 667 Q140 619 126 536 L60 164 Q56 144 56 124 Q56 68 87 33 Q123 -8 196 -8 Z M302 598 Q331 598 341 586 Q350 577 350 557 Q350 548 348 536 L282 164 Q275 126 258 114 Q244 102 215 102 Q187 102 176 114 Q168 123 168 143 Q168 152 170 164 L236 536 Q238 550 243.5 564 Q249 578 259 586 Q275 598 302 598 Z M437 737 L382 737 L337 792 L272 737 L216 737 L291 847 L401 847 L437 737 Z M259 868 Q285 897 303 900 Q318 904 340 889 Q367 868 396 868 Q422 868 445 883.5 Q468 899 491 924 L452 956 Q426 929 411 924 Q397 921 378 935 Q348 956 319 956 Q312 956 300 954 Q262 945 221 901 L259 868 Z " />
<glyph glyph-name="odieresis" unicode="&#xf6;" horiz-adv-x="394" d="M196 -8 Q267 -8 319 33 Q378 81 392 164 L458 536 Q462 556 462 576 Q462 632 431 667 Q393 708 322 708 Q249 708 199 667 Q140 619 126 536 L60 164 Q56 144 56 124 Q56 68 87 33 Q123 -8 196 -8 Z M302 598 Q331 598 341 586 Q350 577 350 557 Q350 548 348 536 L282 164 Q275 126 258 114 Q244 102 215 102 Q187 102 176 114 Q168 123 168 143 Q168 152 170 164 L236 536 Q238 550 243.5 564 Q249 578 259 586 Q275 598 302 598 Z M210 785 Q207 765 219 750.5 Q231 736 251 736 Q271 736 288 750.5 Q305 765 308 785 Q309 788 309 794 Q309 812 297.5 823.5 Q286 835 268 835 Q248 835 231 820.5 Q214 806 210 785 Z M362 785 Q359 765 371 750.5 Q383 736 403 736 Q423 736 440 750.5 Q457 765 460 785 Q461 788 461 794 Q461 812 449.5 823.5 Q438 835 420 835 Q400 835 383 820.5 Q366 806 362 785 Z " />
<glyph glyph-name="uni022B" unicode="&#x22b;" horiz-adv-x="394" d="M196 -8 Q267 -8 319 33 Q378 81 392 164 L458 536 Q462 556 462 576 Q462 632 431 667 Q393 708 322 708 Q249 708 199 667 Q140 619 126 536 L60 164 Q56 144 56 124 Q56 68 87 33 Q123 -8 196 -8 Z M302 598 Q331 598 341 586 Q350 577 350 557 Q350 548 348 536 L282 164 Q275 126 258 114 Q244 102 215 102 Q187 102 176 114 Q168 123 168 143 Q168 152 170 164 L236 536 Q238 550 243.5 564 Q249 578 259 586 Q275 598 302 598 Z M210 785 Q207 765 219 750.5 Q231 736 251 736 Q271 736 288 750.5 Q305 765 308 785 Q309 788 309 794 Q309 812 297.5 823.5 Q286 835 268 835 Q248 835 231 820.5 Q214 806 210 785 Z M362 785 Q359 765 371 750.5 Q383 736 403 736 Q423 736 440 750.5 Q457 765 460 785 Q461 788 461 794 Q461 812 449.5 823.5 Q438 835 420 835 Q400 835 383 820.5 Q366 806 362 785 Z M461 868 L471 923 L249 923 L239 868 L461 868 Z " />
<glyph glyph-name="uni1ECD" unicode="&#x1ecd;" horiz-adv-x="394" d="M196 -8 Q267 -8 319 33 Q378 81 392 164 L458 536 Q462 556 462 576 Q462 632 431 667 Q393 708 322 708 Q249 708 199 667 Q140 619 126 536 L60 164 Q56 144 56 124 Q56 68 87 33 Q123 -8 196 -8 Z M302 598 Q331 598 341 586 Q350 577 350 557 Q350 548 348 536 L282 164 Q275 126 258 114 Q244 102 215 102 Q187 102 176 114 Q168 123 168 143 Q168 152 170 164 L236 536 Q238 550 243.5 564 Q249 578 259 586 Q275 598 302 598 Z M132 -90 Q131 -93 131 -99 Q131 -116 142.5 -127.5 Q154 -139 172 -139 Q192 -139 209 -124.5 Q226 -110 230 -90 Q231 -87 231 -81 Q231 -63 219.5 -51.5 Q208 -40 190 -40 Q170 -40 153 -54.5 Q136 -69 132 -90 Z " />
<glyph glyph-name="ograve" unicode="&#xf2;" horiz-adv-x="394" d="M196 -8 Q267 -8 319 33 Q378 81 392 164 L458 536 Q462 556 462 576 Q462 632 431 667 Q393 708 322 708 Q249 708 199 667 Q140 619 126 536 L60 164 Q56 144 56 124 Q56 68 87 33 Q123 -8 196 -8 Z M302 598 Q331 598 341 586 Q350 577 350 557 Q350 548 348 536 L282 164 Q275 126 258 114 Q244 102 215 102 Q187 102 176 114 Q168 123 168 143 Q168 152 170 164 L236 536 Q238 550 243.5 564 Q249 578 259 586 Q275 598 302 598 Z M300 737 L355 737 L319 847 L209 847 L300 737 Z " />
<glyph glyph-name="uni1ECF" unicode="&#x1ecf;" horiz-adv-x="394" d="M196 -8 Q267 -8 319 33 Q378 81 392 164 L458 536 Q462 556 462 576 Q462 632 431 667 Q393 708 322 708 Q249 708 199 667 Q140 619 126 536 L60 164 Q56 144 56 124 Q56 68 87 33 Q123 -8 196 -8 Z M302 598 Q331 598 341 586 Q350 577 350 557 Q350 548 348 536 L282 164 Q275 126 258 114 Q244 102 215 102 Q187 102 176 114 Q168 123 168 143 Q168 152 170 164 L236 536 Q238 550 243.5 564 Q249 578 259 586 Q275 598 302 598 Z M267 844 Q307 844 332 819 Q357 794 357 755 Q357 749 355 737 L300 737 Q301 740 301 746 Q301 765 288.5 777 Q276 789 257 789 L220 834 Q241 844 267 844 Z " />
<glyph glyph-name="ohorn" unicode="&#x1a1;" horiz-adv-x="414" d="M561 722 Q557 694 532.5 673.5 Q508 653 479 653 L441 653 Q462 621 462 576 Q462 556 458 536 L392 164 Q378 81 319 33 Q267 -8 196 -8 Q123 -8 87 33 Q56 68 56 124 Q56 144 60 164 L126 536 Q140 619 199 667 Q249 708 322 708 L489 708 Q495 708 500 712 Q505 716 506 722 L561 722 Z M348 536 Q350 548 350 557 Q350 577 341 586 Q331 598 302 598 Q275 598 259 586 Q249 578 243.5 564 Q238 550 236 536 L170 164 Q168 152 168 143 Q168 123 176 114 Q187 102 215 102 Q244 102 258 114 Q275 126 282 164 L348 536 Z " />
<glyph glyph-name="uni1EDB" unicode="&#x1edb;" horiz-adv-x="414" d="M561 722 Q557 694 532.5 673.5 Q508 653 479 653 L441 653 Q462 621 462 576 Q462 556 458 536 L392 164 Q378 81 319 33 Q267 -8 196 -8 Q123 -8 87 33 Q56 68 56 124 Q56 144 60 164 L126 536 Q140 619 199 667 Q249 708 322 708 L489 708 Q495 708 500 712 Q505 716 506 722 L561 722 Z M348 536 Q350 548 350 557 Q350 577 341 586 Q331 598 302 598 Q275 598 259 586 Q249 578 243.5 564 Q238 550 236 536 L170 164 Q168 152 168 143 Q168 123 176 114 Q187 102 215 102 Q244 102 258 114 Q275 126 282 164 L348 536 Z M354 737 L483 847 L373 847 L299 737 L354 737 Z " />
<glyph glyph-name="uni1EE3" unicode="&#x1ee3;" horiz-adv-x="414" d="M561 722 Q557 694 532.5 673.5 Q508 653 479 653 L441 653 Q462 621 462 576 Q462 556 458 536 L392 164 Q378 81 319 33 Q267 -8 196 -8 Q123 -8 87 33 Q56 68 56 124 Q56 144 60 164 L126 536 Q140 619 199 667 Q249 708 322 708 L489 708 Q495 708 500 712 Q505 716 506 722 L561 722 Z M348 536 Q350 548 350 557 Q350 577 341 586 Q331 598 302 598 Q275 598 259 586 Q249 578 243.5 564 Q238 550 236 536 L170 164 Q168 152 168 143 Q168 123 176 114 Q187 102 215 102 Q244 102 258 114 Q275 126 282 164 L348 536 Z M132 -90 Q131 -93 131 -99 Q131 -116 142.5 -127.5 Q154 -139 172 -139 Q192 -139 209 -124.5 Q226 -110 230 -90 Q231 -87 231 -81 Q231 -63 219.5 -51.5 Q208 -40 190 -40 Q170 -40 153 -54.5 Q136 -69 132 -90 Z " />
<glyph glyph-name="uni1EDD" unicode="&#x1edd;" horiz-adv-x="414" d="M561 722 Q557 694 532.5 673.5 Q508 653 479 653 L441 653 Q462 621 462 576 Q462 556 458 536 L392 164 Q378 81 319 33 Q267 -8 196 -8 Q123 -8 87 33 Q56 68 56 124 Q56 144 60 164 L126 536 Q140 619 199 667 Q249 708 322 708 L489 708 Q495 708 500 712 Q505 716 506 722 L561 722 Z M348 536 Q350 548 350 557 Q350 577 341 586 Q331 598 302 598 Q275 598 259 586 Q249 578 243.5 564 Q238 550 236 536 L170 164 Q168 152 168 143 Q168 123 176 114 Q187 102 215 102 Q244 102 258 114 Q275 126 282 164 L348 536 Z M300 737 L355 737 L319 847 L209 847 L300 737 Z " />
<glyph glyph-name="uni1EDF" unicode="&#x1edf;" horiz-adv-x="414" d="M561 722 Q557 694 532.5 673.5 Q508 653 479 653 L441 653 Q462 621 462 576 Q462 556 458 536 L392 164 Q378 81 319 33 Q267 -8 196 -8 Q123 -8 87 33 Q56 68 56 124 Q56 144 60 164 L126 536 Q140 619 199 667 Q249 708 322 708 L489 708 Q495 708 500 712 Q505 716 506 722 L561 722 Z M348 536 Q350 548 350 557 Q350 577 341 586 Q331 598 302 598 Q275 598 259 586 Q249 578 243.5 564 Q238 550 236 536 L170 164 Q168 152 168 143 Q168 123 176 114 Q187 102 215 102 Q244 102 258 114 Q275 126 282 164 L348 536 Z M267 844 Q307 844 332 819 Q357 794 357 755 Q357 749 355 737 L300 737 Q301 740 301 746 Q301 765 288.5 777 Q276 789 257 789 L220 834 Q241 844 267 844 Z " />
<glyph glyph-name="uni1EE1" unicode="&#x1ee1;" horiz-adv-x="414" d="M561 722 Q557 694 532.5 673.5 Q508 653 479 653 L441 653 Q462 621 462 576 Q462 556 458 536 L392 164 Q378 81 319 33 Q267 -8 196 -8 Q123 -8 87 33 Q56 68 56 124 Q56 144 60 164 L126 536 Q140 619 199 667 Q249 708 322 708 L489 708 Q495 708 500 712 Q505 716 506 722 L561 722 Z M348 536 Q350 548 350 557 Q350 577 341 586 Q331 598 302 598 Q275 598 259 586 Q249 578 243.5 564 Q238 550 236 536 L170 164 Q168 152 168 143 Q168 123 176 114 Q187 102 215 102 Q244 102 258 114 Q275 126 282 164 L348 536 Z M239 735 Q265 764 282 767 Q298 771 319 756 Q347 735 376 735 Q420 735 470 791 L431 823 Q407 796 390 791 Q376 788 357 802 Q328 823 299 823 Q292 823 280 821 Q243 812 200 768 L239 735 Z " />
<glyph glyph-name="ohungarumlaut" unicode="&#x151;" horiz-adv-x="394" d="M196 -8 Q267 -8 319 33 Q378 81 392 164 L458 536 Q462 556 462 576 Q462 632 431 667 Q393 708 322 708 Q249 708 199 667 Q140 619 126 536 L60 164 Q56 144 56 124 Q56 68 87 33 Q123 -8 196 -8 Z M302 598 Q331 598 341 586 Q350 577 350 557 Q350 548 348 536 L282 164 Q275 126 258 114 Q244 102 215 102 Q187 102 176 114 Q168 123 168 143 Q168 152 170 164 L236 536 Q238 550 243.5 564 Q249 578 259 586 Q275 598 302 598 Z M280 737 L409 847 L299 847 L225 737 L280 737 Z M429 737 L558 847 L448 847 L374 737 L429 737 Z " />
<glyph glyph-name="omacron" unicode="&#x14d;" horiz-adv-x="394" d="M196 -8 Q267 -8 319 33 Q378 81 392 164 L458 536 Q462 556 462 576 Q462 632 431 667 Q393 708 322 708 Q249 708 199 667 Q140 619 126 536 L60 164 Q56 144 56 124 Q56 68 87 33 Q123 -8 196 -8 Z M302 598 Q331 598 341 586 Q350 577 350 557 Q350 548 348 536 L282 164 Q275 126 258 114 Q244 102 215 102 Q187 102 176 114 Q168 123 168 143 Q168 152 170 164 L236 536 Q238 550 243.5 564 Q249 578 259 586 Q275 598 302 598 Z M438 737 L448 792 L226 792 L216 737 L438 737 Z " />
<glyph glyph-name="uni1E53" unicode="&#x1e53;" horiz-adv-x="394" d="M196 -8 Q267 -8 319 33 Q378 81 392 164 L458 536 Q462 556 462 576 Q462 632 431 667 Q393 708 322 708 Q249 708 199 667 Q140 619 126 536 L60 164 Q56 144 56 124 Q56 68 87 33 Q123 -8 196 -8 Z M302 598 Q330 598 341 586 Q349 577 349 555 Q349 542 348 536 L282 164 Q275 127 258 114 Q242 102 215 102 Q186 102 176 114 Q168 122 168 141 Q168 150 170 164 L236 536 Q241 572 259 586 Q273 598 302 598 Z M369 825 L499 935 L389 935 L314 825 L369 825 Z M216 737 L438 737 L448 792 L226 792 L216 737 Z " />
<glyph glyph-name="uni1E51" unicode="&#x1e51;" horiz-adv-x="394" d="M196 -8 Q267 -8 319 33 Q378 81 392 164 L458 536 Q462 556 462 576 Q462 632 431 667 Q393 708 322 708 Q249 708 199 667 Q140 619 126 536 L60 164 Q56 144 56 124 Q56 68 87 33 Q123 -8 196 -8 Z M302 598 Q331 598 341 586 Q350 577 350 557 Q350 548 348 536 L282 164 Q275 126 258 114 Q244 102 215 102 Q187 102 176 114 Q168 123 168 143 Q168 152 170 164 L236 536 Q238 550 243.5 564 Q249 578 259 586 Q275 598 302 598 Z M315 825 L370 825 L335 935 L225 935 L315 825 Z M438 737 L448 792 L226 792 L216 737 L438 737 Z " />
<glyph glyph-name="uni0254" unicode="&#x254;" horiz-adv-x="390" d="M192 -8 Q262 -8 315 33 Q374 83 388 164 L454 536 Q458 564 458 575 Q458 629 427 667 Q388 708 318 708 Q245 708 195 667 Q136 619 122 536 L111 474 L221 474 L232 536 Q237 572 254 586 Q270 598 298 598 Q326 598 337 586 Q345 577 345 555 Q345 542 344 536 L278 164 Q271 127 254 114 Q238 102 211 102 Q182 102 171 114 Q164 121 164 140 Q164 150 166 164 L182 254 L72 254 L56 164 Q52 144 52 124 Q52 68 83 33 Q119 -8 192 -8 Z " />
<glyph glyph-name="oslash" unicode="&#xf8;" horiz-adv-x="394" d="M457 614 Q461 599 461 577 Q461 556 457 535 L392 163 Q376 79 319 32 Q267 -9 195 -9 Q123 -9 87 32 L52 -23 L6 0 L60 85 Q56 109 56 124 Q56 144 60 163 L125 535 Q140 617 198 666 Q250 707 322 707 Q394 707 430 667 L465 722 L511 700 L457 614 Z M193 294 L348 537 Q350 549 350 555 Q350 576 341 585 Q331 597 302 597 Q275 597 259 585 Q242 572 235 535 L193 294 Z M324 405 L170 162 Q168 150 168 141 Q168 122 176 113 Q187 101 215 101 Q244 101 258 113 Q275 125 282 163 L324 405 Z " />
<glyph glyph-name="oslashacute" unicode="&#x1ff;" horiz-adv-x="394" d="M457 614 Q461 599 461 577 Q461 556 457 535 L392 163 Q376 79 319 32 Q267 -9 195 -9 Q123 -9 87 32 L52 -23 L6 0 L60 85 Q56 109 56 124 Q56 144 60 163 L125 535 Q140 617 198 666 Q250 707 322 707 Q394 707 430 667 L465 722 L511 700 L457 614 Z M193 294 L348 537 Q350 549 350 555 Q350 576 341 585 Q331 597 302 597 Q275 597 259 585 Q242 572 235 535 L193 294 Z M324 405 L170 162 Q168 150 168 141 Q168 122 176 113 Q187 101 215 101 Q244 101 258 113 Q275 125 282 163 L324 405 Z " />
<glyph glyph-name="otilde" unicode="&#xf5;" horiz-adv-x="396" d="M169 161 Q167 145 167 140 Q167 92 214 92 Q272 92 283 161 L350 539 Q352 547 352 561 Q352 608 305 608 Q248 608 236 539 L169 161 Z M125 532 Q140 616 191 662 Q242 708 323 708 Q392 708 427.5 675 Q463 642 463 579 Q463 555 459 532 L395 168 Q380 84 329 38 Q278 -8 197 -8 Q128 -8 92.5 25 Q57 58 57 121 Q57 145 61 168 L125 532 Z M239 735 Q265 764 282 767 Q298 771 319 756 Q347 735 376 735 Q420 735 470 791 L431 823 Q407 796 390 791 Q376 788 357 802 Q328 823 299 823 Q292 823 280 821 Q243 812 200 768 L239 735 Z " />
<glyph glyph-name="uni1E4D" unicode="&#x1e4d;" horiz-adv-x="396" d="M169 161 Q167 145 167 140 Q167 92 214 92 Q272 92 283 161 L350 539 Q352 547 352 561 Q352 608 305 608 Q248 608 236 539 L169 161 Z M125 532 Q140 616 191 662 Q242 708 323 708 Q392 708 427.5 675 Q463 642 463 579 Q463 555 459 532 L395 168 Q380 84 329 38 Q278 -8 197 -8 Q128 -8 92.5 25 Q57 58 57 121 Q57 145 61 168 L125 532 Z M239 735 Q265 764 282 767 Q298 771 319 756 Q347 735 376 735 Q420 735 470 791 L431 823 Q407 796 390 791 Q376 788 357 802 Q328 823 299 823 Q292 823 280 821 Q243 812 200 768 L239 735 Z M376 855 L505 965 L395 965 L321 855 L376 855 Z " />
<glyph glyph-name="oe" unicode="&#x153;" horiz-adv-x="572" d="M468 590 L437 414 L561 414 L542 304 L418 304 L383 110 L563 110 L544 0 L197 0 Q126 0 88 41 Q57 76 57 132 Q57 152 61 172 L124 528 Q139 613 197 658 Q251 700 320 700 L667 700 L648 590 L468 590 Z M357 590 L301 590 Q274 590 258 578 Q241 563 234 528 L171 172 Q169 160 169 151 Q169 131 178 122 Q189 110 216 110 L272 110 L357 590 Z " />
<glyph glyph-name="p" unicode="p" horiz-adv-x="392" d="M199 280 L255 280 Q327 280 379 321 Q436 367 452 452 L465 528 Q469 548 469 568 Q469 623 438 658 Q401 700 329 700 L163 700 L40 0 L150 0 L199 280 Z M254 590 L310 590 Q338 590 349 578 Q357 569 357 549 Q357 540 355 528 L342 452 Q336 416 318 402 Q302 390 275 390 L219 390 L254 590 Z " />
<glyph glyph-name="uni01A5" unicode="&#x1a5;" horiz-adv-x="443" d="M489 658 Q520 623 520 568 Q520 548 516 528 L503 452 Q487 367 430 321 Q378 280 306 280 L250 280 L201 0 L91 0 L205 645 L163 645 Q157 645 152.5 641 Q148 637 146 631 L91 631 Q96 660 120 680 Q144 700 172 700 L380 700 Q452 700 489 658 Z M406 528 Q408 540 408 549 Q408 569 400 578 Q389 590 361 590 L305 590 L270 390 L326 390 Q353 390 369 402 Q387 416 393 452 L406 528 Z " />
<glyph glyph-name="thorn" unicode="&#xfe;" horiz-adv-x="392" d="M244 532 L300 532 Q327 532 339 520 Q347 511 347 491 Q347 482 345 470 L331 394 Q324 357 308 344 Q292 332 265 332 L209 332 L244 532 Z M189 222 L245 222 Q318 222 368 263 Q426 308 441 394 L455 470 Q459 490 459 510 Q459 565 428 600 Q391 642 319 642 L263 642 L273 700 L163 700 L40 0 L150 0 L189 222 Z " />
<glyph glyph-name="q" unicode="q" horiz-adv-x="401" d="M374 -22 L355 -132 L341 -132 Q270 -132 232 -91 Q203 -58 202 -8 L196 -8 Q161 -8 133 3 Q105 14 87 34 Q56 69 56 124 Q56 144 60 164 L126 536 Q141 622 199 667 Q223 687 255 697.5 Q287 708 322 708 Q393 708 431 667 Q462 632 462 576 Q462 556 458 536 L392 164 Q377 79 319 34 Q318 32 316.5 31.5 Q315 31 314 30 L314 18 Q314 -2 321 -10 Q332 -22 360 -22 L374 -22 Z M176 114 Q187 102 215 102 Q244 102 258 114 Q275 128 282 164 L348 536 Q350 550 350 557 Q350 577 341 586 Q331 598 302 598 Q275 598 259 586 Q243 573 236 536 L170 164 Q168 152 168 143 Q168 123 176 114 Z " />
<glyph glyph-name="r" unicode="r" horiz-adv-x="397" d="M369 0 L257 0 L250 281 L200 281 L150 0 L40 0 L163 700 L329 700 Q401 700 438 658 Q469 623 469 568 Q469 548 465 528 L452 453 Q438 369 379 322 Q371 315 360 309 L369 0 Z M355 528 Q357 540 357 549 Q357 569 349 578 Q338 590 310 590 L254 590 L219 391 L275 391 Q302 391 318 403 Q336 417 342 453 L355 528 Z " />
<glyph glyph-name="racute" unicode="&#x155;" horiz-adv-x="397" d="M369 0 L257 0 L250 281 L200 281 L150 0 L40 0 L163 700 L329 700 Q401 700 438 658 Q469 623 469 568 Q469 548 465 528 L452 453 Q438 369 379 322 Q371 315 360 309 L369 0 Z M355 528 Q357 540 357 549 Q357 569 349 578 Q338 590 310 590 L254 590 L219 391 L275 391 Q302 391 318 403 Q336 417 342 453 L355 528 Z M364 737 L493 847 L383 847 L309 737 L364 737 Z " />
<glyph glyph-name="rcaron" unicode="&#x159;" horiz-adv-x="397" d="M369 0 L257 0 L250 281 L200 281 L150 0 L40 0 L163 700 L329 700 Q401 700 438 658 Q469 623 469 568 Q469 548 465 528 L452 453 Q438 369 379 322 Q371 315 360 309 L369 0 Z M355 528 Q357 540 357 549 Q357 569 349 578 Q338 590 310 590 L254 590 L219 391 L275 391 Q302 391 318 403 Q336 417 342 453 L355 528 Z M465 847 L391 737 L281 737 L244 847 L300 847 L346 792 L410 847 L465 847 Z " />
<glyph glyph-name="rcommaaccent" unicode="&#x157;" horiz-adv-x="397" d="M369 0 L257 0 L250 281 L200 281 L150 0 L40 0 L163 700 L329 700 Q401 700 438 658 Q469 623 469 568 Q469 548 465 528 L452 453 Q438 369 379 322 Q371 315 360 309 L369 0 Z M355 528 Q357 540 357 549 Q357 569 349 578 Q338 590 310 590 L254 590 L219 391 L275 391 Q302 391 318 403 Q336 417 342 453 L355 528 Z M239 -79 Q236 -100 217 -125 Q201 -148 174 -179 L138 -179 L153 -151 Q159 -139 159 -133 Q159 -126 154 -122 Q147 -114 143 -106.5 Q139 -99 139 -88 Q139 -82 140 -79 Q144 -59 161 -44.5 Q178 -30 198 -30 Q217 -30 228.5 -41.5 Q240 -53 240 -70 Q240 -76 239 -79 Z " />
<glyph glyph-name="uni024D" unicode="&#x24d;" horiz-adv-x="402" d="M457 453 Q443 369 384 322 Q376 315 365 309 L374 0 L262 0 L255 281 L205 281 L155 0 L45 0 L95 281 L55 281 L74 391 L114 391 L168 700 L334 700 Q406 700 443 658 Q474 623 474 568 Q474 548 470 528 L457 453 Z M360 528 Q362 540 362 549 Q362 569 354 578 Q343 590 315 590 L259 590 L224 391 L280 391 Q307 391 323 403 Q341 417 347 453 L360 528 Z " />
<glyph glyph-name="s" unicode="s" horiz-adv-x="380" d="M189 -8 Q260 -8 312 33 Q371 81 385 164 L393 208 Q396 228 396 245 Q396 318 347 370 Q330 389 283 416 Q275 421 264 428.5 Q253 436 249 440 Q224 465 224 499 Q224 505 226 519 L229 536 Q231 550 236.5 564 Q242 578 252 586 Q268 598 295 598 Q324 598 334 586 Q343 577 343 557 Q343 548 341 536 L330 475 L440 475 L451 536 Q455 556 455 576 Q455 632 424 667 Q386 708 315 708 Q242 708 192 667 Q133 619 119 536 L116 519 Q112 502 112 480 Q112 409 161 358 Q177 342 222 314 Q251 297 260 288 Q285 262 285 226 Q285 220 283 208 L275 164 Q268 126 251 114 Q237 102 208 102 Q180 102 169 114 Q161 123 161 143 Q161 152 163 164 L179 255 L69 255 L53 164 Q49 144 49 124 Q49 68 80 33 Q116 -8 189 -8 Z " />
<glyph glyph-name="sacute" unicode="&#x15b;" horiz-adv-x="380" d="M189 -8 Q260 -8 312 33 Q371 81 385 164 L393 208 Q396 228 396 245 Q396 318 347 370 Q330 389 283 416 Q275 421 264 428.5 Q253 436 249 440 Q224 465 224 499 Q224 505 226 519 L229 536 Q231 550 236.5 564 Q242 578 252 586 Q268 598 295 598 Q324 598 334 586 Q343 577 343 557 Q343 548 341 536 L330 475 L440 475 L451 536 Q455 556 455 576 Q455 632 424 667 Q386 708 315 708 Q242 708 192 667 Q133 619 119 536 L116 519 Q112 502 112 480 Q112 409 161 358 Q177 342 222 314 Q251 297 260 288 Q285 262 285 226 Q285 220 283 208 L275 164 Q268 126 251 114 Q237 102 208 102 Q180 102 169 114 Q161 123 161 143 Q161 152 163 164 L179 255 L69 255 L53 164 Q49 144 49 124 Q49 68 80 33 Q116 -8 189 -8 Z M347 737 L476 847 L366 847 L292 737 L347 737 Z " />
<glyph glyph-name="scaron" unicode="&#x161;" horiz-adv-x="380" d="M189 -8 Q260 -8 312 33 Q371 81 385 164 L393 208 Q396 228 396 245 Q396 318 347 370 Q330 389 283 416 Q275 421 264 428.5 Q253 436 249 440 Q224 465 224 499 Q224 505 226 519 L229 536 Q231 550 236.5 564 Q242 578 252 586 Q268 598 295 598 Q324 598 334 586 Q343 577 343 557 Q343 548 341 536 L330 475 L440 475 L451 536 Q455 556 455 576 Q455 632 424 667 Q386 708 315 708 Q242 708 192 667 Q133 619 119 536 L116 519 Q112 502 112 480 Q112 409 161 358 Q177 342 222 314 Q251 297 260 288 Q285 262 285 226 Q285 220 283 208 L275 164 Q268 126 251 114 Q237 102 208 102 Q180 102 169 114 Q161 123 161 143 Q161 152 163 164 L179 255 L69 255 L53 164 Q49 144 49 124 Q49 68 80 33 Q116 -8 189 -8 Z M229 847 L284 847 L330 792 L394 847 L450 847 L375 737 L265 737 L229 847 Z " />
<glyph glyph-name="scedilla" unicode="&#x15f;" horiz-adv-x="380" d="M330 476 L341 537 Q343 551 343 560 Q343 579 335 587 Q324 599 296 599 Q267 599 253 587 Q236 574 229 537 L226 520 Q224 506 224 501 Q224 468 249 441 Q253 437 264 429.5 Q275 422 283 417 Q330 390 347 371 Q396 319 396 247 Q396 229 393 209 L385 165 Q371 82 312 34 Q272 1 215 -5 L215 -6 Q215 -11 219 -14 Q232 -25 238.5 -34.5 Q245 -44 245 -62 Q245 -67 243 -77 Q239 -105 215 -125.5 Q191 -146 162 -146 Q137 -146 120.5 -129.5 Q104 -113 104 -88 Q104 -81 105 -77 L160 -77 L160 -79 Q160 -84 163.5 -87.5 Q167 -91 172 -91 Q178 -91 182.5 -87 Q187 -83 188 -77 L189 -73 Q189 -69 184.5 -64.5 Q180 -60 179 -59 Q159 -43 159 -17 Q159 -10 160 -6 L160 -5 Q108 3 80 34 Q49 69 49 125 Q49 145 53 165 L69 256 L179 256 L163 165 Q161 153 161 144 Q161 124 169 115 Q181 103 208 103 Q238 103 251 115 Q268 127 275 165 L283 209 Q285 221 285 227 Q285 263 260 289 Q251 298 222 315 Q177 343 161 359 Q113 409 113 482 Q113 501 116 520 L119 537 Q133 620 192 668 Q244 709 315 709 Q388 709 424 668 Q455 633 455 577 Q455 557 451 537 L440 476 L330 476 Z " />
<glyph glyph-name="scommaaccent" unicode="&#x219;" horiz-adv-x="380" d="M189 -8 Q260 -8 312 33 Q371 81 385 164 L393 208 Q396 228 396 245 Q396 318 347 370 Q330 389 283 416 Q275 421 264 428.5 Q253 436 249 440 Q224 465 224 499 Q224 505 226 519 L229 536 Q231 550 236.5 564 Q242 578 252 586 Q268 598 295 598 Q324 598 334 586 Q343 577 343 557 Q343 548 341 536 L330 475 L440 475 L451 536 Q455 556 455 576 Q455 632 424 667 Q386 708 315 708 Q242 708 192 667 Q133 619 119 536 L116 519 Q112 502 112 480 Q112 409 161 358 Q177 342 222 314 Q251 297 260 288 Q285 262 285 226 Q285 220 283 208 L275 164 Q268 126 251 114 Q237 102 208 102 Q180 102 169 114 Q161 123 161 143 Q161 152 163 164 L179 255 L69 255 L53 164 Q49 144 49 124 Q49 68 80 33 Q116 -8 189 -8 Z M226 -79 Q223 -100 204 -125 Q188 -148 161 -179 L125 -179 L140 -151 Q146 -139 146 -133 Q146 -126 141 -122 Q134 -114 130 -106.5 Q126 -99 126 -88 Q126 -82 127 -79 Q131 -59 148 -44.5 Q165 -30 185 -30 Q204 -30 215.5 -41.5 Q227 -53 227 -70 Q227 -76 226 -79 Z " />
<glyph glyph-name="uni1E63" unicode="&#x1e63;" horiz-adv-x="380" d="M189 -8 Q260 -8 312 33 Q371 81 385 164 L393 208 Q396 228 396 245 Q396 318 347 370 Q330 389 283 416 Q275 421 264 428.5 Q253 436 249 440 Q224 465 224 499 Q224 505 226 519 L229 536 Q231 550 236.5 564 Q242 578 252 586 Q268 598 295 598 Q324 598 334 586 Q343 577 343 557 Q343 548 341 536 L330 475 L440 475 L451 536 Q455 556 455 576 Q455 632 424 667 Q386 708 315 708 Q242 708 192 667 Q133 619 119 536 L116 519 Q112 502 112 480 Q112 409 161 358 Q177 342 222 314 Q251 297 260 288 Q285 262 285 226 Q285 220 283 208 L275 164 Q268 126 251 114 Q237 102 208 102 Q180 102 169 114 Q161 123 161 143 Q161 152 163 164 L179 255 L69 255 L53 164 Q49 144 49 124 Q49 68 80 33 Q116 -8 189 -8 Z M125 -90 Q124 -93 124 -99 Q124 -116 135.5 -127.5 Q147 -139 165 -139 Q185 -139 202 -124.5 Q219 -110 223 -90 Q224 -87 224 -81 Q224 -63 212.5 -51.5 Q201 -40 183 -40 Q163 -40 146 -54.5 Q129 -69 125 -90 Z " />
<glyph glyph-name="germandbls" unicode="&#xdf;" horiz-adv-x="398" d="M381 358 Q417 329 417 272 Q417 252 413 232 L402 168 Q394 124 376 95 Q358 61 328 39 Q279 0 206 0 L190 0 L210 110 L226 110 Q255 110 270 121 Q285 133 292 168 L303 232 Q305 246 305 254 Q305 273 297 282 Q286 294 258 294 L242 294 L262 404 Q290 404 306 416 Q323 431 330 466 L341 531 Q343 545 343 552 Q343 571 336 579 Q326 590 303 590 Q281 590 267 579 Q250 565 244 531 L150 0 L40 0 L134 531 Q142 575 160 605 Q178 639 208 661 Q259 700 322 700 Q386 700 423 661 Q445 637 451 605 Q455 590 455 570 Q455 550 451 531 L440 466 Q427 395 381 358 Z " />
<glyph glyph-name="t" unicode="t" horiz-adv-x="353" d="M467 700 L448 590 L336 590 L232 0 L122 0 L226 590 L114 590 L133 700 L467 700 Z " />
<glyph glyph-name="tbar" unicode="&#x167;" horiz-adv-x="353" d="M448 590 L336 590 L316 477 L371 477 L361 422 L306 422 L232 0 L122 0 L196 422 L138 422 L148 477 L206 477 L226 590 L114 590 L133 700 L467 700 L448 590 Z " />
<glyph glyph-name="tcaron" unicode="&#x165;" horiz-adv-x="353" d="M467 700 L448 590 L336 590 L232 0 L122 0 L226 590 L114 590 L133 700 L467 700 Z M436 847 L362 737 L252 737 L215 847 L271 847 L317 792 L381 847 L436 847 Z " />
<glyph glyph-name="uni0163" unicode="&#x163;" horiz-adv-x="353" d="M203 0 L202 -6 Q202 -11 206 -14 Q219 -25 225.5 -34.5 Q232 -44 232 -62 Q232 -67 230 -77 Q226 -105 202 -125.5 Q178 -146 149 -146 Q124 -146 107.5 -129.5 Q91 -113 91 -88 Q91 -81 92 -77 L147 -77 L147 -79 Q147 -84 150.5 -87.5 Q154 -91 159 -91 Q165 -91 169.5 -87 Q174 -83 175 -77 L176 -73 Q176 -69 171.5 -64.5 Q167 -60 166 -59 Q146 -43 146 -17 Q146 -10 147 -6 L148 0 L122 0 L226 590 L114 590 L133 700 L467 700 L448 590 L336 590 L232 0 L203 0 Z " />
<glyph glyph-name="uni1E71" unicode="&#x1e71;" horiz-adv-x="353" d="M467 700 L448 590 L336 590 L232 0 L122 0 L226 590 L114 590 L133 700 L467 700 Z M261 -150 L206 -150 L160 -95 L96 -150 L40 -150 L115 -40 L225 -40 L261 -150 Z " />
<glyph glyph-name="uni021B" unicode="&#x21b;" horiz-adv-x="353" d="M467 700 L448 590 L336 590 L232 0 L122 0 L226 590 L114 590 L133 700 L467 700 Z M211 -89 Q208 -110 189 -135 Q179 -150 147 -189 L111 -189 Q117 -175 126 -161 Q132 -149 132 -143 Q132 -137 127 -132 Q111 -116 111 -98 Q111 -92 112 -89 Q116 -69 133 -54.5 Q150 -40 170 -40 Q189 -40 200.5 -51.5 Q212 -63 212 -80 Q212 -86 211 -89 Z " />
<glyph glyph-name="uni1E6D" unicode="&#x1e6d;" horiz-adv-x="353" d="M467 700 L448 590 L336 590 L232 0 L122 0 L226 590 L114 590 L133 700 L467 700 Z M112 -90 Q111 -93 111 -99 Q111 -116 122.5 -127.5 Q134 -139 152 -139 Q172 -139 189 -124.5 Q206 -110 210 -90 Q211 -87 211 -81 Q211 -63 199.5 -51.5 Q188 -40 170 -40 Q150 -40 133 -54.5 Q116 -69 112 -90 Z " />
<glyph glyph-name="uni01AD" unicode="&#x1ad;" horiz-adv-x="417" d="M531 700 L512 590 L400 590 L296 0 L186 0 L290 590 L178 590 Q172 590 167.5 586 Q163 582 162 576 L107 576 Q118 642 145.5 671 Q173 700 239 700 L531 700 Z " />
<glyph glyph-name="uni1E6F" unicode="&#x1e6f;" horiz-adv-x="354" d="M467 700 L448 590 L336 590 L232 0 L122 0 L226 590 L114 590 L133 700 L467 700 Z M271 -95 L281 -40 L60 -40 L50 -95 L271 -95 Z " />
<glyph glyph-name="uni0288" unicode="&#x288;" horiz-adv-x="353" d="M232 0 L232 -2 Q232 -7 235.5 -10.5 Q239 -14 244 -14 L234 -69 Q177 -69 151 -53.5 Q125 -38 125 5 Q125 14 129 42 L226 590 L114 590 L133 700 L467 700 L448 590 L336 590 L232 0 Z " />
<glyph glyph-name="u" unicode="u" horiz-adv-x="402" d="M200 -8 Q270 -8 323 33 Q382 83 396 164 L490 700 L380 700 L286 164 Q279 127 262 114 Q246 102 219 102 Q190 102 179 114 Q172 121 172 140 Q172 150 174 164 L268 700 L158 700 L64 164 Q60 144 60 124 Q60 68 91 33 Q127 -8 200 -8 Z " />
<glyph glyph-name="uacute" unicode="&#xfa;" horiz-adv-x="402" d="M200 -8 Q270 -8 323 33 Q382 83 396 164 L490 700 L380 700 L286 164 Q279 127 262 114 Q246 102 219 102 Q190 102 179 114 Q172 121 172 140 Q172 150 174 164 L268 700 L158 700 L64 164 Q60 144 60 124 Q60 68 91 33 Q127 -8 200 -8 Z M358 737 L487 847 L377 847 L303 737 L358 737 Z " />
<glyph glyph-name="uni0289" unicode="&#x289;" horiz-adv-x="412" d="M471 332 L431 332 L401 164 Q387 83 328 33 Q275 -8 205 -8 Q132 -8 96 33 Q65 68 65 124 Q65 144 69 164 L99 332 L59 332 L68 387 L108 387 L163 700 L273 700 L218 387 L330 387 L385 700 L495 700 L440 387 L480 387 L471 332 Z M321 332 L209 332 L179 164 Q177 150 177 140 Q177 121 184 114 Q195 102 224 102 Q251 102 267 114 Q284 127 291 164 L321 332 Z " />
<glyph glyph-name="uni01D4" unicode="&#x1d4;" horiz-adv-x="402" d="M200 -8 Q270 -8 323 33 Q382 83 396 164 L490 700 L380 700 L286 164 Q279 127 262 114 Q246 102 219 102 Q190 102 179 114 Q172 121 172 140 Q172 150 174 164 L268 700 L158 700 L64 164 Q60 144 60 124 Q60 68 91 33 Q127 -8 200 -8 Z M460 847 L386 737 L276 737 L239 847 L295 847 L341 792 L405 847 L460 847 Z " />
<glyph glyph-name="ucircumflex" unicode="&#xfb;" horiz-adv-x="402" d="M200 -8 Q270 -8 323 33 Q382 83 396 164 L490 700 L380 700 L286 164 Q279 127 262 114 Q246 102 219 102 Q190 102 179 114 Q172 121 172 140 Q172 150 174 164 L268 700 L158 700 L64 164 Q60 144 60 124 Q60 68 91 33 Q127 -8 200 -8 Z M441 737 L386 737 L341 792 L276 737 L220 737 L295 847 L405 847 L441 737 Z " />
<glyph glyph-name="udieresis" unicode="&#xfc;" horiz-adv-x="402" d="M200 -8 Q270 -8 323 33 Q382 83 396 164 L490 700 L380 700 L286 164 Q279 127 262 114 Q246 102 219 102 Q190 102 179 114 Q172 121 172 140 Q172 150 174 164 L268 700 L158 700 L64 164 Q60 144 60 124 Q60 68 91 33 Q127 -8 200 -8 Z M214 785 Q211 765 223 750.5 Q235 736 255 736 Q275 736 292 750.5 Q309 765 312 785 Q313 788 313 794 Q313 812 301.5 823.5 Q290 835 272 835 Q252 835 235 820.5 Q218 806 214 785 Z M366 785 Q363 765 375 750.5 Q387 736 407 736 Q427 736 444 750.5 Q461 765 464 785 Q465 788 465 794 Q465 812 453.5 823.5 Q442 835 424 835 Q404 835 387 820.5 Q370 806 366 785 Z " />
<glyph glyph-name="uni01D8" unicode="&#x1d8;" horiz-adv-x="402" d="M371 868 L500 978 L390 978 L316 868 L371 868 Z M200 -8 Q270 -8 323 33 Q382 83 396 164 L490 700 L380 700 L286 164 Q279 127 262 114 Q246 102 219 102 Q190 102 179 114 Q172 121 172 140 Q172 150 174 164 L268 700 L158 700 L64 164 Q60 144 60 124 Q60 68 91 33 Q127 -8 200 -8 Z M204 785 Q201 765 213 750.5 Q225 736 245 736 Q265 736 282 750.5 Q299 765 302 785 Q303 788 303 794 Q303 812 291.5 823.5 Q280 835 262 835 Q242 835 225 820.5 Q208 806 204 785 Z M356 785 Q353 765 365 750.5 Q377 736 397 736 Q417 736 434 750.5 Q451 765 454 785 Q455 788 455 794 Q455 812 443.5 823.5 Q432 835 414 835 Q394 835 377 820.5 Q360 806 356 785 Z " />
<glyph glyph-name="uni01DA" unicode="&#x1da;" horiz-adv-x="402" d="M200 -8 Q270 -8 323 33 Q382 83 396 164 L490 700 L380 700 L286 164 Q279 127 262 114 Q246 102 219 102 Q190 102 179 114 Q172 121 172 140 Q172 150 174 164 L268 700 L158 700 L64 164 Q60 144 60 124 Q60 68 91 33 Q127 -8 200 -8 Z M204 785 Q201 765 213 750.5 Q225 736 245 736 Q265 736 282 750.5 Q299 765 302 785 Q303 788 303 794 Q303 812 291.5 823.5 Q280 835 262 835 Q242 835 225 820.5 Q208 806 204 785 Z M356 785 Q353 765 365 750.5 Q377 736 397 736 Q417 736 434 750.5 Q451 765 454 785 Q455 788 455 794 Q455 812 443.5 823.5 Q432 835 414 835 Q394 835 377 820.5 Q360 806 356 785 Z M483 978 L409 868 L299 868 L262 978 L318 978 L364 923 L428 978 L483 978 Z " />
<glyph glyph-name="uni01DC" unicode="&#x1dc;" horiz-adv-x="402" d="M337 868 L392 868 L356 978 L246 978 L337 868 Z M200 -8 Q271 -8 323 33 Q382 81 396 164 L490 700 L380 700 L286 164 Q279 127 263 114 Q247 102 219 102 Q191 102 180 114 Q172 123 172 143 Q172 152 174 164 L268 700 L158 700 L64 164 Q60 136 60 125 Q60 71 91 33 Q129 -8 200 -8 Z M474 785 Q475 788 475 794 Q475 812 463.5 823.5 Q452 835 434 835 Q414 835 397 820.5 Q380 806 376 785 Q373 765 385 750.5 Q397 736 417 736 Q437 736 454 750.5 Q471 765 474 785 Z M322 785 Q323 788 323 794 Q323 812 311.5 823.5 Q300 835 282 835 Q262 835 245 820.5 Q228 806 224 785 Q221 765 233 750.5 Q245 736 265 736 Q285 736 302 750.5 Q319 765 322 785 Z " />
<glyph glyph-name="uni01D6" unicode="&#x1d6;" horiz-adv-x="402" d="M200 -8 Q270 -8 323 33 Q382 83 396 164 L490 700 L380 700 L286 164 Q279 127 262 114 Q246 102 219 102 Q190 102 179 114 Q172 121 172 140 Q172 150 174 164 L268 700 L158 700 L64 164 Q60 144 60 124 Q60 68 91 33 Q127 -8 200 -8 Z M214 785 Q211 765 223 750.5 Q235 736 255 736 Q275 736 292 750.5 Q309 765 312 785 Q313 788 313 794 Q313 812 301.5 823.5 Q290 835 272 835 Q252 835 235 820.5 Q218 806 214 785 Z M366 785 Q363 765 375 750.5 Q387 736 407 736 Q427 736 444 750.5 Q461 765 464 785 Q465 788 465 794 Q465 812 453.5 823.5 Q442 835 424 835 Q404 835 387 820.5 Q370 806 366 785 Z M465 868 L475 923 L253 923 L243 868 L465 868 Z " />
<glyph glyph-name="uni1EE5" unicode="&#x1ee5;" horiz-adv-x="402" d="M200 -8 Q270 -8 323 33 Q382 83 396 164 L490 700 L380 700 L286 164 Q279 127 262 114 Q246 102 219 102 Q190 102 179 114 Q172 121 172 140 Q172 150 174 164 L268 700 L158 700 L64 164 Q60 144 60 124 Q60 68 91 33 Q127 -8 200 -8 Z M136 -90 Q135 -93 135 -99 Q135 -116 146.5 -127.5 Q158 -139 176 -139 Q196 -139 213 -124.5 Q230 -110 234 -90 Q235 -87 235 -81 Q235 -63 223.5 -51.5 Q212 -40 194 -40 Q174 -40 157 -54.5 Q140 -69 136 -90 Z " />
<glyph glyph-name="ugrave" unicode="&#xf9;" horiz-adv-x="402" d="M200 -8 Q270 -8 323 33 Q382 83 396 164 L490 700 L380 700 L286 164 Q279 127 262 114 Q246 102 219 102 Q190 102 179 114 Q172 121 172 140 Q172 150 174 164 L268 700 L158 700 L64 164 Q60 144 60 124 Q60 68 91 33 Q127 -8 200 -8 Z M304 737 L359 737 L323 847 L213 847 L304 737 Z " />
<glyph glyph-name="uni1EE7" unicode="&#x1ee7;" horiz-adv-x="402" d="M200 -8 Q270 -8 323 33 Q382 83 396 164 L490 700 L380 700 L286 164 Q279 127 262 114 Q246 102 219 102 Q190 102 179 114 Q172 121 172 140 Q172 150 174 164 L268 700 L158 700 L64 164 Q60 144 60 124 Q60 68 91 33 Q127 -8 200 -8 Z M271 844 Q311 844 336 819 Q361 794 361 755 Q361 749 359 737 L304 737 Q305 740 305 746 Q305 765 292.5 777 Q280 789 261 789 L224 834 Q245 844 271 844 Z " />
<glyph glyph-name="uhorn" unicode="&#x1b0;" horiz-adv-x="458" d="M604 714 Q599 685 575 665 Q551 645 523 645 L481 645 L396 164 Q382 83 323 33 Q270 -8 200 -8 Q127 -8 91 33 Q60 68 60 124 Q60 144 64 164 L158 700 L268 700 L174 164 Q172 150 172 140 Q172 121 179 114 Q190 102 219 102 Q246 102 262 114 Q279 127 286 164 L380 700 L532 700 Q538 700 542.5 704 Q547 708 549 714 L604 714 Z " />
<glyph glyph-name="uni1EE9" unicode="&#x1ee9;" horiz-adv-x="458" d="M604 714 Q599 685 575 665 Q551 645 523 645 L481 645 L396 164 Q382 83 323 33 Q270 -8 200 -8 Q127 -8 91 33 Q60 68 60 124 Q60 144 64 164 L158 700 L268 700 L174 164 Q172 150 172 140 Q172 121 179 114 Q190 102 219 102 Q246 102 262 114 Q279 127 286 164 L380 700 L532 700 Q538 700 542.5 704 Q547 708 549 714 L604 714 Z M358 737 L487 847 L377 847 L303 737 L358 737 Z " />
<glyph glyph-name="uni1EF1" unicode="&#x1ef1;" horiz-adv-x="458" d="M604 714 Q599 685 575 665 Q551 645 523 645 L481 645 L396 164 Q382 83 323 33 Q270 -8 200 -8 Q127 -8 91 33 Q60 68 60 124 Q60 144 64 164 L158 700 L268 700 L174 164 Q172 150 172 140 Q172 121 179 114 Q190 102 219 102 Q246 102 262 114 Q279 127 286 164 L380 700 L532 700 Q538 700 542.5 704 Q547 708 549 714 L604 714 Z M134 -80 Q133 -83 133 -89 Q133 -106 144.5 -117.5 Q156 -129 174 -129 Q194 -129 211 -114.5 Q228 -100 232 -80 Q233 -77 233 -71 Q233 -53 221.5 -41.5 Q210 -30 192 -30 Q172 -30 155 -44.5 Q138 -59 134 -80 Z " />
<glyph glyph-name="uni1EEB" unicode="&#x1eeb;" horiz-adv-x="458" d="M604 714 Q599 685 575 665 Q551 645 523 645 L481 645 L396 164 Q382 83 323 33 Q270 -8 200 -8 Q127 -8 91 33 Q60 68 60 124 Q60 144 64 164 L158 700 L268 700 L174 164 Q172 150 172 140 Q172 121 179 114 Q190 102 219 102 Q246 102 262 114 Q279 127 286 164 L380 700 L532 700 Q538 700 542.5 704 Q547 708 549 714 L604 714 Z M304 737 L359 737 L323 847 L213 847 L304 737 Z " />
<glyph glyph-name="uni1EED" unicode="&#x1eed;" horiz-adv-x="458" d="M604 714 Q599 685 575 665 Q551 645 523 645 L481 645 L396 164 Q382 83 323 33 Q270 -8 200 -8 Q127 -8 91 33 Q60 68 60 124 Q60 144 64 164 L158 700 L268 700 L174 164 Q172 150 172 140 Q172 121 179 114 Q190 102 219 102 Q246 102 262 114 Q279 127 286 164 L380 700 L532 700 Q538 700 542.5 704 Q547 708 549 714 L604 714 Z M271 844 Q311 844 336 819 Q361 794 361 755 Q361 749 359 737 L304 737 Q305 740 305 746 Q305 765 292.5 777 Q280 789 261 789 L224 834 Q245 844 271 844 Z " />
<glyph glyph-name="uni1EEF" unicode="&#x1eef;" horiz-adv-x="458" d="M604 714 Q599 685 575 665 Q551 645 523 645 L481 645 L396 164 Q382 83 323 33 Q270 -8 200 -8 Q127 -8 91 33 Q60 68 60 124 Q60 144 64 164 L158 700 L268 700 L174 164 Q172 150 172 140 Q172 121 179 114 Q190 102 219 102 Q246 102 262 114 Q279 127 286 164 L380 700 L532 700 Q538 700 542.5 704 Q547 708 549 714 L604 714 Z M243 735 Q269 764 286 767 Q302 771 323 756 Q351 735 380 735 Q424 735 474 791 L435 823 Q411 796 394 791 Q380 788 361 802 Q333 823 303 823 Q296 823 284 821 Q247 812 204 768 L243 735 Z " />
<glyph glyph-name="uhungarumlaut" unicode="&#x171;" horiz-adv-x="402" d="M200 -8 Q270 -8 323 33 Q382 83 396 164 L490 700 L380 700 L286 164 Q279 127 262 114 Q246 102 219 102 Q190 102 179 114 Q172 121 172 140 Q172 150 174 164 L268 700 L158 700 L64 164 Q60 144 60 124 Q60 68 91 33 Q127 -8 200 -8 Z M284 737 L413 847 L303 847 L229 737 L284 737 Z M433 737 L562 847 L452 847 L378 737 L433 737 Z " />
<glyph glyph-name="umacron" unicode="&#x16b;" horiz-adv-x="402" d="M200 -8 Q270 -8 323 33 Q382 83 396 164 L490 700 L380 700 L286 164 Q279 127 262 114 Q246 102 219 102 Q190 102 179 114 Q172 121 172 140 Q172 150 174 164 L268 700 L158 700 L64 164 Q60 144 60 124 Q60 68 91 33 Q127 -8 200 -8 Z M442 737 L452 792 L230 792 L220 737 L442 737 Z " />
<glyph glyph-name="uogonek" unicode="&#x173;" horiz-adv-x="402" d="M490 700 L396 164 Q388 118 368.5 87.5 Q349 57 323 33 Q287 1 271 -19 Q255 -39 252 -56 Q249 -70 261.5 -75.5 Q274 -81 288 -81 L297 -81 L287 -136 L268 -136 Q235 -136 213 -123.5 Q191 -111 191 -86 Q191 -80 192 -77 Q196 -57 214 -36 Q232 -15 254 -1 Q229 -8 200 -8 Q127 -8 91 33 Q60 68 60 124 Q60 144 64 164 L158 700 L268 700 L174 164 Q172 150 172 140 Q172 121 179 114 Q190 102 219 102 Q246 102 262 114 Q279 127 286 164 L380 700 L490 700 Z " />
<glyph glyph-name="uring" unicode="&#x16f;" horiz-adv-x="402" d="M331 737 Q359 737 383 757 Q407 777 412 806 Q413 810 413 819 Q413 843 396.5 859.5 Q380 876 355 876 Q326 876 302 855.5 Q278 835 273 806 Q272 802 272 794 Q272 770 288.5 753.5 Q305 737 331 737 Z M346 821 Q352 821 355.5 816.5 Q359 812 357 806 Q356 800 351.5 796 Q347 792 341 792 Q335 792 331 796 Q327 800 328 806 Q330 812 335 816.5 Q340 821 346 821 Z M200 -8 Q270 -8 323 33 Q382 83 396 164 L490 700 L380 700 L286 164 Q279 127 262 114 Q246 102 219 102 Q190 102 179 114 Q172 121 172 140 Q172 150 174 164 L268 700 L158 700 L64 164 Q60 144 60 124 Q60 68 91 33 Q127 -8 200 -8 Z " />
<glyph glyph-name="utilde" unicode="&#x169;" horiz-adv-x="402" d="M200 -8 Q270 -8 323 33 Q382 83 396 164 L490 700 L380 700 L286 164 Q279 127 262 114 Q246 102 219 102 Q190 102 179 114 Q172 121 172 140 Q172 150 174 164 L268 700 L158 700 L64 164 Q60 144 60 124 Q60 68 91 33 Q127 -8 200 -8 Z M241 737 Q267 766 285 769 Q300 773 322 758 Q349 737 378 737 Q404 737 427 752.5 Q450 768 473 793 L433 825 Q409 798 393 793 Q378 790 360 804 Q330 825 301 825 Q294 825 282 823 Q244 814 203 770 L241 737 Z " />
<glyph glyph-name="v" unicode="v" horiz-adv-x="412" d="M246 227 L412 700 L524 700 L261 0 L151 0 L134 700 L246 700 L246 227 Z " />
<glyph glyph-name="uni028C" unicode="&#x28c;" horiz-adv-x="412" d="M289 473 L123 0 L11 0 L274 700 L384 700 L401 0 L289 0 L289 473 Z " />
<glyph glyph-name="w" unicode="w" horiz-adv-x="519" d="M516 700 L627 700 L418 0 L357 0 L320 348 L162 0 L101 0 L138 700 L249 700 L226 351 L332 589 L395 589 L417 351 L516 700 Z " />
<glyph glyph-name="wacute" unicode="&#x1e83;" horiz-adv-x="519" d="M516 700 L627 700 L418 0 L357 0 L320 348 L162 0 L101 0 L138 700 L249 700 L226 351 L332 589 L395 589 L417 351 L516 700 Z M417 737 L546 847 L436 847 L362 737 L417 737 Z " />
<glyph glyph-name="wcircumflex" unicode="&#x175;" horiz-adv-x="519" d="M516 700 L627 700 L418 0 L357 0 L320 348 L162 0 L101 0 L138 700 L249 700 L226 351 L332 589 L395 589 L417 351 L516 700 Z M499 737 L444 737 L399 792 L334 737 L278 737 L353 847 L463 847 L499 737 Z " />
<glyph glyph-name="wdieresis" unicode="&#x1e85;" horiz-adv-x="519" d="M516 700 L627 700 L418 0 L357 0 L320 348 L162 0 L101 0 L138 700 L249 700 L226 351 L332 589 L395 589 L417 351 L516 700 Z M272 785 Q269 765 281 750.5 Q293 736 313 736 Q333 736 350 750.5 Q367 765 370 785 Q371 788 371 794 Q371 812 359.5 823.5 Q348 835 330 835 Q310 835 293 820.5 Q276 806 272 785 Z M424 785 Q421 765 433 750.5 Q445 736 465 736 Q485 736 502 750.5 Q519 765 522 785 Q523 788 523 794 Q523 812 511.5 823.5 Q500 835 482 835 Q462 835 445 820.5 Q428 806 424 785 Z " />
<glyph glyph-name="wgrave" unicode="&#x1e81;" horiz-adv-x="519" d="M516 700 L627 700 L418 0 L357 0 L320 348 L162 0 L101 0 L138 700 L249 700 L226 351 L332 589 L395 589 L417 351 L516 700 Z M362 737 L417 737 L381 847 L271 847 L362 737 Z " />
<glyph glyph-name="uni2C73" unicode="&#x2c73;" horiz-adv-x="589" d="M662 700 Q688 700 704.5 683.5 Q721 667 721 643 Q721 635 720 631 L665 631 L665 634 Q665 639 661.5 642 Q658 645 653 645 L611 645 L418 0 L357 0 L320 348 L162 0 L101 0 L138 700 L249 700 L226 351 L332 589 L395 589 L417 351 L516 700 L662 700 Z " />
<glyph glyph-name="uni028D" unicode="&#x28d;" horiz-adv-x="519" d="M393 0 L417 349 L311 111 L248 111 L226 349 L126 0 L15 0 L224 700 L285 700 L321 352 L480 700 L541 700 L504 0 L393 0 Z " />
<glyph glyph-name="x" unicode="x" horiz-adv-x="419" d="M404 0 L287 0 L245 207 L132 0 L15 0 L207 349 L138 700 L255 700 L296 493 L409 700 L527 700 L335 349 L404 0 Z " />
<glyph glyph-name="y" unicode="y" horiz-adv-x="392" d="M510 700 L294 246 L251 0 L140 0 L183 246 L128 700 L244 700 L274 449 L394 700 L510 700 Z " />
<glyph glyph-name="yacute" unicode="&#xfd;" horiz-adv-x="392" d="M510 700 L294 246 L251 0 L140 0 L183 246 L128 700 L244 700 L274 449 L394 700 L510 700 Z M353 737 L482 847 L372 847 L298 737 L353 737 Z " />
<glyph glyph-name="ycircumflex" unicode="&#x177;" horiz-adv-x="392" d="M510 700 L294 246 L251 0 L140 0 L183 246 L128 700 L244 700 L274 449 L394 700 L510 700 Z M435 737 L380 737 L335 792 L270 737 L214 737 L289 847 L399 847 L435 737 Z " />
<glyph glyph-name="ydieresis" unicode="&#xff;" horiz-adv-x="392" d="M510 700 L294 246 L251 0 L140 0 L183 246 L128 700 L244 700 L274 449 L394 700 L510 700 Z M209 785 Q206 765 218 750.5 Q230 736 250 736 Q270 736 287 750.5 Q304 765 307 785 Q308 788 308 794 Q308 812 296.5 823.5 Q285 835 267 835 Q247 835 230 820.5 Q213 806 209 785 Z M361 785 Q358 765 370 750.5 Q382 736 402 736 Q422 736 439 750.5 Q456 765 459 785 Q460 788 460 794 Q460 812 448.5 823.5 Q437 835 419 835 Q399 835 382 820.5 Q365 806 361 785 Z " />
<glyph glyph-name="uni1EF5" unicode="&#x1ef5;" horiz-adv-x="392" d="M510 700 L294 246 L251 0 L140 0 L183 246 L128 700 L244 700 L274 449 L394 700 L510 700 Z M130 -90 Q129 -93 129 -99 Q129 -116 140.5 -127.5 Q152 -139 170 -139 Q190 -139 207 -124.5 Q224 -110 228 -90 Q229 -87 229 -81 Q229 -63 217.5 -51.5 Q206 -40 188 -40 Q168 -40 151 -54.5 Q134 -69 130 -90 Z " />
<glyph glyph-name="ygrave" unicode="&#x1ef3;" horiz-adv-x="392" d="M128 700 L244 700 L276 449 L394 700 L510 700 L295 246 L252 0 L141 0 L184 246 L128 700 Z M299 737 L354 737 L318 847 L208 847 L299 737 Z " />
<glyph glyph-name="uni01B4" unicode="&#x1b4;" horiz-adv-x="462" d="M536 700 Q561 700 577.5 683.5 Q594 667 594 643 Q594 635 593 631 L538 631 L538 634 Q538 645 527 645 L485 645 L294 246 L251 0 L140 0 L183 246 L128 700 L244 700 L274 449 L394 700 L536 700 Z " />
<glyph glyph-name="uni1EF7" unicode="&#x1ef7;" horiz-adv-x="392" d="M510 700 L294 246 L251 0 L140 0 L183 246 L128 700 L244 700 L274 449 L394 700 L510 700 Z M265 844 Q305 844 330 819 Q355 794 355 755 Q355 749 353 737 L298 737 Q299 740 299 746 Q299 765 286.5 777 Q274 789 255 789 L218 834 Q239 844 265 844 Z " />
<glyph glyph-name="uni1EF9" unicode="&#x1ef9;" horiz-adv-x="392" d="M510 700 L294 246 L251 0 L140 0 L183 246 L128 700 L244 700 L274 449 L394 700 L510 700 Z M238 737 Q264 766 282 769 Q297 773 319 758 Q346 737 375 737 Q401 737 424 752.5 Q447 768 470 793 L430 825 Q406 798 390 793 Q375 790 357 804 Q327 825 298 825 Q291 825 279 823 Q241 814 200 770 L238 737 Z " />
<glyph glyph-name="uni028E" unicode="&#x28e;" horiz-adv-x="392" d="M387 0 L271 0 L240 251 L121 0 L5 0 L220 454 L264 700 L375 700 L331 454 L387 0 Z " />
<glyph glyph-name="z" unicode="z" horiz-adv-x="383" d="M358 0 L378 111 L196 111 L481 700 L148 700 L129 589 L311 589 L25 0 L358 0 Z " />
<glyph glyph-name="zacute" unicode="&#x17a;" horiz-adv-x="383" d="M358 0 L378 111 L196 111 L481 700 L148 700 L129 589 L311 589 L25 0 L358 0 Z M349 737 L478 847 L368 847 L294 737 L349 737 Z " />
<glyph glyph-name="zcaron" unicode="&#x17e;" horiz-adv-x="383" d="M358 0 L378 111 L196 111 L481 700 L148 700 L129 589 L311 589 L25 0 L358 0 Z M451 847 L377 737 L267 737 L230 847 L286 847 L332 792 L396 847 L451 847 Z " />
<glyph glyph-name="zdotaccent" unicode="&#x17c;" horiz-adv-x="383" d="M358 0 L378 111 L196 111 L481 700 L148 700 L129 589 L311 589 L25 0 L358 0 Z M281 786 Q280 783 280 777 Q280 760 291.5 748.5 Q303 737 321 737 Q341 737 358 751.5 Q375 766 379 786 Q380 789 380 795 Q380 812 368 824 Q356 836 338 836 Q318 836 301.5 821.5 Q285 807 281 786 Z " />
<glyph glyph-name="uni1E93" unicode="&#x1e93;" horiz-adv-x="383" d="M358 0 L378 111 L196 111 L481 700 L148 700 L129 589 L311 589 L25 0 L358 0 Z M126 -90 Q125 -93 125 -99 Q125 -116 136.5 -127.5 Q148 -139 166 -139 Q186 -139 203 -124.5 Q220 -110 224 -90 Q225 -87 225 -81 Q225 -63 213.5 -51.5 Q202 -40 184 -40 Q164 -40 147 -54.5 Q130 -69 126 -90 Z " />
<glyph glyph-name="uniAB53" unicode="&#xab53;" horiz-adv-x="600" d="" />
<glyph glyph-name="zero" unicode="0" horiz-adv-x="394" d="M196 -8 Q267 -8 319 33 Q378 81 392 164 L458 536 Q462 556 462 576 Q462 632 431 667 Q393 708 322 708 Q287 708 255 697.5 Q223 687 199 667 Q140 619 126 536 L60 164 Q56 144 56 124 Q56 68 87 33 Q105 13 133 2.5 Q161 -8 196 -8 Z M302 598 Q331 598 341 586 Q350 577 350 557 Q350 548 348 536 L282 164 Q275 126 258 114 Q244 102 215 102 Q187 102 176 114 Q168 123 168 143 Q168 152 170 164 L236 536 Q238 550 243.5 564 Q249 578 259 586 Q275 598 302 598 Z " />
<glyph glyph-name="one" unicode="1" horiz-adv-x="292" d="M128 555 L312 700 L375 700 L252 0 L142 0 L232 508 L102 406 L128 555 Z " />
<glyph glyph-name="two" unicode="2" horiz-adv-x="397" d="M366 0 L385 110 L162 110 L178 196 Q186 242 226 274 Q243 287 259.5 295 Q276 303 279 304 Q320 322 352 346 Q393 378 419.5 419 Q446 460 454 506 L460 536 Q464 556 464 576 Q464 632 433 667 Q395 708 324 708 Q251 708 201 667 Q143 622 128 536 L117 475 L227 475 L238 536 Q245 573 261 586 Q277 598 304 598 Q333 598 343 586 Q352 577 352 557 Q352 550 350 536 L344 506 Q336 462 297 430 Q288 423 250 404 Q196 378 170 358 Q83 291 68 196 L33 0 L366 0 Z " />
<glyph glyph-name="three" unicode="3" horiz-adv-x="385" d="M451 521 Q434 428 355 364 Q399 316 399 246 Q399 228 396 208 L388 163 Q372 79 315 32 Q263 -9 191 -9 Q119 -9 83 32 Q52 67 52 122 Q52 143 56 163 L64 210 L174 210 L166 163 Q164 151 164 142 Q164 122 172 113 Q183 101 211 101 Q240 101 254 113 Q271 125 278 163 L286 208 Q288 220 288 226 Q288 262 263 288 Q253 299 242 305.5 Q231 312 228 313 L195 327 L208 402 L246 415 Q246 415 259 421 Q272 427 292 443 Q332 474 341 521 L343 535 Q345 549 345 558 Q345 577 337 585 Q327 597 298 597 Q271 597 255 585 Q238 572 231 535 L228 517 L118 517 L121 535 Q136 617 194 666 Q246 707 318 707 Q390 707 426 666 Q457 633 457 577 Q457 556 453 535 L451 521 Z " />
<glyph glyph-name="four" unicode="4" horiz-adv-x="432" d="M387 700 L496 700 L411 218 L440 218 L421 108 L392 108 L373 0 L263 0 L282 108 L39 108 L50 170 L387 700 Z M301 218 L346 469 L201 218 L301 218 Z " />
<glyph glyph-name="five" unicode="5" horiz-adv-x="388" d="M194 -9 Q266 -9 318 32 Q375 79 391 163 L401 222 Q404 242 404 260 Q404 332 356 383 Q338 402 319 413 Q300 424 291 427 Q290 428 280 433.5 Q270 439 257 453 Q232 480 232 513 Q232 519 234 533 L244 590 L467 590 L486 700 L153 700 L124 533 Q121 514 121 495 Q121 422 169 371 Q188 351 207 339 Q226 327 233 325 L234 325 Q237 324 247.5 317.5 Q258 311 268 300 Q293 275 293 241 Q293 236 291 222 L281 163 Q274 125 257 113 Q243 101 214 101 Q186 101 175 113 Q167 122 167 142 Q167 151 169 163 L180 225 L70 225 L59 163 Q55 143 55 122 Q55 67 86 32 Q122 -9 194 -9 Z " />
<glyph glyph-name="six" unicode="6" horiz-adv-x="389" d="M338 482 L348 536 Q350 548 350 557 Q350 577 341 586 Q331 598 302 598 Q275 598 259 586 Q249 578 243.5 564 Q238 550 236 536 L214 412 Q239 419 271 419 Q342 419 380 378 Q411 343 411 287 Q411 267 407 247 L392 164 Q378 81 319 33 Q267 -8 196 -8 Q123 -8 87 33 Q56 68 56 124 Q56 144 60 164 L75 247 L126 536 Q140 619 199 667 Q249 708 322 708 Q393 708 431 667 Q462 632 462 576 Q462 556 458 536 L448 482 L338 482 Z M208 297 Q192 284 185 247 L170 164 Q168 152 168 143 Q168 123 176 114 Q187 102 215 102 Q244 102 258 114 Q275 126 282 164 L297 247 Q299 261 299 268 Q299 288 290 297 Q280 309 251 309 Q224 309 208 297 Z " />
<glyph glyph-name="seven" unicode="7" horiz-adv-x="357" d="M470 700 L183 0 L70 0 L312 590 L119 590 L138 700 L470 700 Z " />
<glyph glyph-name="eight" unicode="8" horiz-adv-x="384" d="M191 -8 Q262 -8 314 33 Q373 81 387 164 L394 207 Q398 233 398 246 Q398 314 353 364 Q433 429 450 522 L453 536 Q457 556 457 576 Q457 632 426 667 Q388 708 317 708 Q244 708 194 667 Q135 619 121 536 L117 518 Q114 500 114 481 Q114 414 156 364 Q80 302 63 211 L55 164 Q51 144 51 124 Q51 68 82 33 Q118 -8 191 -8 Z M243 302 Q250 298 263 285 Q286 259 286 227 Q286 221 284 207 L277 164 Q270 127 253 114 Q237 102 210 102 Q182 102 171 114 Q163 123 163 143 Q163 152 165 164 L173 211 Q180 255 221 287 L243 302 Z M297 598 Q325 598 336 586 Q344 577 344 555 Q344 542 343 536 L340 522 Q333 477 291 444 Q280 435 265 426 Q255 434 248 441 Q225 467 225 500 Q225 506 227 518 L231 536 Q233 550 238.5 564 Q244 578 254 586 Q270 598 297 598 Z " />
<glyph glyph-name="nine" unicode="9" horiz-adv-x="389" d="M174 218 L165 163 Q163 151 163 142 Q163 122 171 113 Q182 101 210 101 Q239 101 253 113 Q270 125 277 163 L299 287 Q274 280 241 280 Q169 280 133 321 Q102 352 102 410 Q102 431 106 452 L120 535 Q135 617 193 666 Q245 707 317 707 Q389 707 425 666 Q456 633 456 577 Q456 556 452 535 L438 452 L387 163 Q371 79 314 32 Q262 -9 190 -9 Q118 -9 82 32 Q51 67 51 122 Q51 143 55 163 L64 218 L174 218 Z M304 402 Q321 415 328 452 L342 535 Q344 549 344 558 Q344 577 336 585 Q326 597 297 597 Q270 597 254 585 Q237 572 230 535 L216 452 Q214 438 214 430 Q214 411 222 402 Q233 390 261 390 Q290 390 304 402 Z " />
<glyph glyph-name="asterisk" unicode="&#x2a;" horiz-adv-x="366" d="M434 586 L340 545 L420 504 L339 415 L286 485 L257 389 L159 423 L220 508 L121 490 L141 600 L233 582 L201 666 L311 700 L307 605 L385 675 L434 586 Z " />
<glyph glyph-name="backslash" unicode="&#x5c;" horiz-adv-x="381" d="M376 0 L281 0 L128 700 L223 700 L376 0 Z " />
<glyph glyph-name="middot" unicode="&#xb7;" horiz-adv-x="192" d="M215 359 Q216 363 216 369 Q216 389 202.5 402 Q189 415 169 415 Q146 415 127 398.5 Q108 382 103 359 Q102 356 102 350 Q102 330 115 316.5 Q128 303 149 303 Q172 303 191.5 319.5 Q211 336 215 359 Z " />
<glyph glyph-name="bullet" unicode="&#x2022;" horiz-adv-x="378" d="M110 325 Q110 368 133.5 406 Q157 444 195 466.5 Q233 489 275 489 Q326 489 359 456 Q392 423 392 374 Q392 331 368.5 293.5 Q345 256 306.5 233.5 Q268 211 226 211 Q175 211 142.5 243.5 Q110 276 110 325 Z " />
<glyph glyph-name="colon" unicode="&#x3a;" horiz-adv-x="182" d="M156 53 Q157 57 157 63 Q157 83 143.5 96 Q130 109 110 109 Q87 109 68 92.5 Q49 76 44 53 Q43 50 43 44 Q43 24 56 10.5 Q69 -3 90 -3 Q113 -3 132.5 13.5 Q152 30 156 53 Z M225 443 Q225 463 211.5 476.5 Q198 490 177 490 Q154 490 135 473.5 Q116 457 112 434 Q111 430 111 424 Q111 404 124.5 391 Q138 378 158 378 Q181 378 200 394.5 Q219 411 224 434 L225 443 Z " />
<glyph glyph-name="comma" unicode="&#x2c;" horiz-adv-x="182" d="M111 112 Q132 112 145 98.5 Q158 85 158 65 Q158 59 157 56 Q153 35 132 4 Q118 -17 92.5 -46.5 Q67 -76 59 -85 L27 -85 L61 -25 Q67 -13 67 -6 Q67 2 61 8 Q44 25 44 45 Q44 52 45 56 Q49 79 68.5 95.5 Q88 112 111 112 Z " />
<glyph glyph-name="ellipsis" unicode="&#x2026;" horiz-adv-x="494" d="M156 53 Q157 57 157 63 Q157 83 143.5 96 Q130 109 110 109 Q87 109 68 92.5 Q49 76 44 53 Q43 50 43 44 Q43 24 56 10.5 Q69 -3 90 -3 Q113 -3 132.5 13.5 Q152 30 156 53 Z M312 53 Q313 57 313 63 Q313 83 299.5 96 Q286 109 266 109 Q243 109 224 92.5 Q205 76 200 53 Q199 50 199 44 Q199 24 212 10.5 Q225 -3 246 -3 Q269 -3 288.5 13.5 Q308 30 312 53 Z M468 53 Q469 57 469 63 Q469 83 455.5 96 Q442 109 422 109 Q399 109 380 92.5 Q361 76 356 53 Q355 50 355 44 Q355 24 368 10.5 Q381 -3 402 -3 Q425 -3 444.5 13.5 Q464 30 468 53 Z " />
<glyph glyph-name="exclam" unicode="&#x21;" horiz-adv-x="192" d="M162 56 Q163 59 163 65 Q163 85 150 98.5 Q137 112 116 112 Q93 112 73.5 95.5 Q54 79 50 56 Q49 52 49 46 Q49 26 62.5 13 Q76 0 96 0 Q119 0 138 16.5 Q157 33 162 56 Z M164 161 L213 349 L274 700 L164 700 L103 349 L83 161 L164 161 Z " />
<glyph glyph-name="exclamdown" unicode="&#xa1;" horiz-adv-x="192" d="M267 653 Q267 673 253.5 686.5 Q240 700 219 700 Q196 700 177 683.5 Q158 667 154 644 Q153 640 153 634 Q153 614 166.5 601 Q180 588 200 588 Q223 588 242 604.5 Q261 621 266 644 L267 653 Z M231 539 L150 539 L103 351 L41 0 L151 0 L213 351 L231 539 Z " />
<glyph glyph-name="numbersign" unicode="&#x23;" horiz-adv-x="460" d="M279 200 L214 200 L158 0 L68 0 L124 200 L75 200 L97 278 L146 278 L197 461 L147 461 L169 539 L219 539 L264 700 L354 700 L309 539 L374 539 L419 700 L509 700 L464 539 L515 539 L493 461 L442 461 L391 278 L442 278 L420 200 L369 200 L313 0 L223 0 L279 200 Z M236 278 L301 278 L352 461 L287 461 L236 278 Z " />
<glyph glyph-name="period" unicode="&#x2e;" horiz-adv-x="182" d="M156 53 Q157 57 157 63 Q157 83 143.5 96 Q130 109 110 109 Q87 109 68 92.5 Q49 76 44 53 Q43 50 43 44 Q43 24 56 10.5 Q69 -3 90 -3 Q113 -3 132.5 13.5 Q152 30 156 53 Z " />
<glyph glyph-name="question" unicode="&#x3f;" horiz-adv-x="392" d="M210 56 Q211 59 211 65 Q211 85 198 98.5 Q185 112 164 112 Q141 112 121.5 95.5 Q102 79 98 56 Q97 52 97 46 Q97 26 110.5 13 Q124 0 144 0 Q167 0 186 16.5 Q205 33 210 56 Z M118 165 L124 199 Q133 249 155 289.5 Q177 330 217 361 Q267 400 288 418 Q309 436 323 458 Q337 480 342 510 L347 537 Q349 549 349 558 Q349 578 341 587 Q329 599 302 599 Q272 599 259 587 Q242 575 235 537 L224 476 L114 476 L125 537 Q139 620 198 668 Q250 709 321 709 Q394 709 430 668 Q461 633 461 577 Q461 557 457 537 L452 510 Q434 405 360 349 Q310 311 288.5 292.5 Q267 274 253 252 Q239 230 234 199 L228 165 L118 165 Z " />
<glyph glyph-name="questiondown" unicode="&#xbf;" horiz-adv-x="393" d="M306 644 Q305 640 305 634 Q305 614 318.5 600.5 Q332 587 352 587 Q376 587 395 603.5 Q414 620 419 644 L420 653 Q420 673 406.5 686.5 Q393 700 371 700 Q348 700 329 683.5 Q310 667 306 644 Z M397 535 L391 501 Q382 450 360.5 410 Q339 370 299 339 Q250 302 228.5 283 Q207 264 193 242.5 Q179 221 174 190 L170 163 Q168 151 168 142 Q168 122 176 113 Q187 101 215 101 Q244 101 258 113 Q275 125 282 163 L291 224 L401 224 L392 163 Q376 79 319 32 Q267 -9 195 -9 Q123 -9 87 32 Q56 67 56 122 Q56 143 60 163 L64 190 Q73 241 94.5 281 Q116 321 156 351 Q205 388 226.5 407 Q248 426 262 448 Q276 470 281 501 L287 535 L397 535 Z " />
<glyph glyph-name="quotedbl" unicode="&#x22;" horiz-adv-x="329" d="M215 503 L273 700 L163 700 L153 503 L215 503 Z M354 503 L412 700 L302 700 L292 503 L354 503 Z " />
<glyph glyph-name="quotesingle" unicode="&#x27;" horiz-adv-x="190" d="M215 503 L273 700 L163 700 L153 503 L215 503 Z " />
<glyph glyph-name="semicolon" unicode="&#x3b;" horiz-adv-x="182" d="M110 109 Q130 109 143.5 96 Q157 83 157 63 Q157 57 156 53 Q153 31 131 1 Q117 -20 91.5 -49.5 Q66 -79 58 -88 L26 -88 L60 -28 Q66 -16 66 -9 Q66 0 61 5 Q43 21 43 43 Q43 49 44 53 Q49 76 68 92.5 Q87 109 110 109 Z M225 443 Q225 463 211.5 476.5 Q198 490 177 490 Q154 490 135 473.5 Q116 457 112 434 Q111 430 111 424 Q111 404 124.5 391 Q138 378 158 378 Q181 378 200 394.5 Q219 411 224 434 L225 443 Z " />
<glyph glyph-name="slash" unicode="&#x2f;" horiz-adv-x="381" d="M404 700 L499 700 L100 0 L5 0 L404 700 Z " />
<glyph glyph-name="underscore" unicode="&#x5f;" horiz-adv-x="520" d="M29 110 L529 110 L510 0 L10 0 L29 110 Z " />
<glyph glyph-name="braceleft" unicode="&#x7b;" horiz-adv-x="314" d="M302 103 Q275 103 263 115 Q255 124 255 144 Q255 153 257 165 L266 218 Q270 237 270 258 Q270 296 255 330 L244 351 L263 372 Q302 422 313 484 L323 537 Q330 574 347 587 Q361 599 390 599 L409 709 Q338 709 286 668 Q227 620 213 537 L203 484 Q194 431 140 395 L73 351 L124 307 Q158 279 158 238 Q158 232 156 218 L147 165 Q143 145 143 125 Q143 69 174 34 Q192 14 220 3.5 Q248 -7 283 -7 L302 103 Z " />
<glyph glyph-name="braceright" unicode="&#x7d;" horiz-adv-x="314" d="M29 -7 Q100 -7 152 34 Q211 82 225 165 L234 218 Q245 271 298 307 L365 351 L314 395 Q279 425 279 466 Q279 472 281 484 L291 537 Q295 557 295 577 Q295 633 264 668 Q246 688 218 698.5 Q190 709 155 709 L136 599 Q163 599 175 587 Q183 578 183 558 Q183 549 181 537 L171 484 Q168 465 168 446 Q168 407 183 372 Q186 365 194 351 L175 330 Q136 281 124 218 L115 165 Q108 128 91 115 Q77 103 48 103 L29 -7 Z " />
<glyph glyph-name="bracketleft" unicode="&#x5b;" horiz-adv-x="236" d="M206 0 L225 110 L169 110 L254 590 L310 590 L329 700 L163 700 L40 0 L206 0 Z " />
<glyph glyph-name="bracketright" unicode="&#x5d;" horiz-adv-x="236" d="M30 0 L196 0 L319 700 L153 700 L134 590 L190 590 L105 110 L49 110 L30 0 Z " />
<glyph glyph-name="parenleft" unicode="&#x28;" horiz-adv-x="237" d="M225 102 Q197 102 186 114 Q178 123 178 143 Q178 152 180 164 L246 537 Q253 574 270 587 Q284 599 313 599 L332 709 Q261 709 209 668 Q150 620 136 537 L70 164 Q66 144 66 124 Q66 68 97 33 Q115 13 143 2.5 Q171 -8 206 -8 L225 102 Z " />
<glyph glyph-name="parenright" unicode="&#x29;" horiz-adv-x="237" d="M29 -8 Q100 -8 152 33 Q211 81 225 164 L291 537 Q295 557 295 577 Q295 633 264 668 Q246 688 218 698.5 Q190 709 155 709 L136 599 Q163 599 175 587 Q183 578 183 558 Q183 549 181 537 L115 164 Q108 127 91 114 Q75 102 48 102 L29 -8 Z " />
<glyph glyph-name="emdash" unicode="&#x2014;" horiz-adv-x="600" d="M83 414 L663 414 L644 304 L64 304 L83 414 Z " />
<glyph glyph-name="endash" unicode="&#x2013;" horiz-adv-x="600" d="M83 414 L663 414 L644 304 L64 304 L83 414 Z " />
<glyph glyph-name="figuredash" unicode="&#x2012;" horiz-adv-x="311" d="M354 303 L374 414 L83 414 L63 303 L354 303 Z " />
<glyph glyph-name="hyphen" unicode="&#x2d;" horiz-adv-x="200" d="M83 414 L263 414 L244 304 L64 304 L83 414 Z " />
<glyph glyph-name="guillemotleft" unicode="&#xab;" horiz-adv-x="378" d="M472 626 L365 359 L378 92 L265 92 L253 359 L359 626 L472 626 Z M298 626 L191 359 L204 92 L91 92 L79 359 L185 626 L298 626 Z " />
<glyph glyph-name="guillemotright" unicode="&#xbb;" horiz-adv-x="378" d="M126 626 L239 626 L251 359 L145 92 L32 92 L139 359 L126 626 Z M300 626 L413 626 L425 359 L319 92 L206 92 L313 359 L300 626 Z " />
<glyph glyph-name="guilsinglleft" unicode="&#x2039;" horiz-adv-x="204" d="M298 626 L191 359 L204 92 L91 92 L79 359 L185 626 L298 626 Z " />
<glyph glyph-name="guilsinglright" unicode="&#x203a;" horiz-adv-x="204" d="M126 626 L239 626 L251 359 L145 92 L32 92 L139 359 L126 626 Z " />
<glyph glyph-name="quotedblbase" unicode="&#x201e;" horiz-adv-x="328" d="M110 109 Q130 109 143.5 96 Q157 83 157 63 Q157 57 156 53 Q153 31 131 1 Q117 -20 91.5 -49.5 Q66 -79 58 -88 L26 -88 L60 -28 Q66 -16 66 -9 Q66 0 61 5 Q43 21 43 43 Q43 49 44 53 Q49 76 68 92.5 Q87 109 110 109 Z M256 109 Q276 109 289.5 96 Q303 83 303 63 Q303 57 302 53 Q299 31 277 1 Q263 -20 237.5 -49.5 Q212 -79 204 -88 L172 -88 L206 -28 Q212 -16 212 -9 Q212 0 207 5 Q189 21 189 43 Q189 49 190 53 Q195 76 214 92.5 Q233 109 256 109 Z " />
<glyph glyph-name="quotedblleft" unicode="&#x201c;" horiz-adv-x="333" d="M180 503 Q160 503 146.5 516 Q133 529 133 549 Q133 555 134 559 Q137 581 159 611 Q173 632 198 661.5 Q223 691 231 700 L263 700 Q260 694 250.5 676.5 Q241 659 230 640 Q224 628 224 621 Q224 612 229 607 Q247 591 247 569 Q247 563 246 559 Q241 536 222 519.5 Q203 503 180 503 Z M326 503 Q306 503 292.5 516 Q279 529 279 549 Q279 555 280 559 Q283 581 305 611 Q319 632 344 661.5 Q369 691 377 700 L409 700 Q406 694 396.5 676.5 Q387 659 376 640 Q370 628 370 621 Q370 612 375 607 Q393 591 393 569 Q393 563 392 559 Q387 536 368 519.5 Q349 503 326 503 Z " />
<glyph glyph-name="quotedblright" unicode="&#x201d;" horiz-adv-x="333" d="M220 703 Q240 703 253.5 690 Q267 677 267 657 Q267 651 266 647 Q262 626 241 595 Q227 574 201.5 544.5 Q176 515 168 506 L136 506 L170 566 Q176 578 176 585 Q176 594 171 599 Q153 615 153 636 Q153 643 154 647 Q159 670 178 686.5 Q197 703 220 703 Z M366 703 Q386 703 399.5 690 Q413 677 413 657 Q413 651 412 647 Q408 626 387 595 Q373 574 347.5 544.5 Q322 515 314 506 L282 506 L316 566 Q322 578 322 585 Q322 594 317 599 Q299 615 299 636 Q299 643 300 647 Q305 670 324 686.5 Q343 703 366 703 Z " />
<glyph glyph-name="quoteleft" unicode="&#x2018;" horiz-adv-x="192" d="M185 503 Q165 503 151.5 516 Q138 529 138 549 Q138 555 139 559 Q142 581 164 611 Q178 632 203 661.5 Q228 691 236 700 L268 700 Q265 694 255.5 676.5 Q246 659 235 640 Q229 628 229 621 Q229 612 234 607 Q252 591 252 569 Q252 563 251 559 Q246 536 227 519.5 Q208 503 185 503 Z " />
</font>
</svg>
