<?xml version="1.0" encoding="UTF-8"?>
<svg xmlns="http://www.w3.org/2000/svg" xmlns:xlink="http://www.w3.org/1999/xlink" version="1.2" >
<font id="Bodoni URW Extra Wide Regular Oblique">
<font-face  font-family="Bodoni URW Extra Wide" units-per-em="1000" ascent="667" descent="-333" font-style="italic" font-weight="400" font-stretch="normal" cap-height="667" x-height="393" underline-position="-89" underline-thickness="53" />
<missing-glyph  horiz-adv-x="250" d="" />
<glyph glyph-name="NULL" d="" />
<glyph glyph-name="CR" unicode="&#xd;" horiz-adv-x="250" d="" />
<glyph glyph-name="space" unicode="&#x20;" horiz-adv-x="250" d="" />
<glyph glyph-name="exclam" unicode="&#x21;" horiz-adv-x="291" d="M129 197 C157 315 180 387 228 501 C264 581 271 603 271 629 C271 658 251 677 221 677 C190 677 163 659 148 627 C138 605 138 598 137 504 L137 495 L138 444 C138 380 128 301 108 197 L129 197 Z M99 110 C58 110 19 76 19 40 C19 14 41 -7 69 -7 C112 -7 151 26 151 62 C151 89 129 110 99 110 L99 110 Z " />
<glyph glyph-name="quotedbl" unicode="&#x22;" horiz-adv-x="306" d="M111 412 L171 576 C182 606 186 621 186 638 C186 661 174 677 155 677 C121 677 100 641 96 576 L87 412 L111 412 Z M254 412 L314 576 C326 608 329 621 329 638 C329 661 317 677 298 677 C264 677 242 641 239 576 L230 412 L254 412 Z " />
<glyph glyph-name="numbersign" unicode="&#x23;" horiz-adv-x="550" d="M255 442 L330 647 L251 647 L176 442 L78 442 L72 415 L166 415 L101 240 L3 240 L-3 213 L91 213 L13 0 L93 0 L171 213 L292 213 L214 0 L294 0 L372 213 L470 213 L476 240 L382 240 L447 415 L545 415 L550 442 L456 442 L531 647 L452 647 L377 442 L255 442 Z M246 415 L367 415 L302 240 L181 240 L246 415 Z " />
<glyph glyph-name="dollar" unicode="&#x24;" horiz-adv-x="550" d="M356 638 C409 634 434 621 434 596 C434 591 433 587 429 570 C426 556 425 546 425 536 C425 504 445 484 475 484 C511 484 539 514 539 553 C539 615 468 658 361 661 L379 744 L345 744 L327 661 C252 650 209 632 164 594 C116 553 88 499 88 450 C88 419 98 389 117 368 C137 343 151 334 225 296 C228 295 239 288 247 284 L189 12 C138 13 104 38 104 75 C104 86 106 98 110 112 C119 147 119 147 119 159 C119 187 101 207 74 207 C34 207 -3 166 -3 121 C-3 52 73 -2 184 -11 L165 -101 L199 -101 L218 -11 C286 -4 328 12 373 48 C433 95 472 163 472 223 C472 261 457 292 425 317 C402 335 369 353 302 386 L356 638 Z M265 403 C199 444 183 465 183 509 C183 572 240 628 315 636 L265 403 Z M277 267 C366 224 390 200 390 156 C390 122 369 84 335 57 C305 31 273 19 223 13 L277 267 Z " />
<glyph glyph-name="percent" unicode="&#x25;" horiz-adv-x="761" d="M251 653 C151 653 57 553 57 447 C57 374 109 319 178 319 C280 319 373 418 373 525 C373 599 322 653 251 653 L251 653 Z M247 634 C286 634 304 617 304 579 C304 543 282 436 266 397 C250 356 224 337 183 337 C146 337 127 355 127 392 C127 428 149 535 165 574 C181 616 206 634 247 634 L247 634 Z M603 647 L122 0 L154 0 L635 647 L603 647 Z M578 328 C477 328 384 228 384 121 C384 49 436 -6 505 -6 C607 -6 700 93 700 200 C700 274 649 328 578 328 L578 328 Z M573 309 C612 309 630 291 630 254 C630 218 608 111 592 72 C576 30 550 12 509 12 C472 12 453 30 453 67 C453 103 475 210 491 249 C507 291 533 309 573 309 L573 309 Z " />
<glyph glyph-name="ampersand" unicode="&#x26;" horiz-adv-x="658" d="M315 343 C413 370 478 423 478 477 C478 522 427 553 351 553 C247 553 170 504 170 437 C170 416 183 384 216 323 C167 304 124 282 93 263 C34 226 -6 165 -6 112 C-6 36 54 -13 149 -13 C216 -13 266 5 348 56 L376 0 L554 0 L559 20 L477 20 L425 123 C478 170 519 241 542 323 L630 323 L634 343 L430 343 L425 323 L518 323 C502 252 460 178 417 140 L315 343 Z M307 357 C301 368 300 369 295 378 C276 410 276 410 272 417 C260 442 253 462 253 476 C253 513 286 533 350 533 C391 533 410 519 410 490 C410 463 399 431 382 408 C365 385 347 372 307 357 L307 357 Z M341 73 C297 42 253 24 220 24 C180 24 149 40 128 73 C106 107 92 153 92 188 C92 237 127 268 224 305 L341 73 Z " />
<glyph glyph-name="quotesingle" unicode="&#x27;" horiz-adv-x="164" d="M111 412 L171 576 C182 606 186 621 186 638 C186 661 174 677 155 677 C121 677 100 641 96 576 L87 412 L111 412 Z " />
<glyph glyph-name="parenleft" unicode="&#x28;" horiz-adv-x="295" d="M153 -173 C105 -64 93 -12 93 93 C93 186 115 294 153 384 C198 490 243 558 332 658 L308 674 C230 599 165 526 124 468 C50 364 9 251 9 150 C9 43 47 -70 123 -186 L153 -173 Z " />
<glyph glyph-name="parenright" unicode="&#x29;" horiz-adv-x="295" d="M-49 -186 C154 2 247 167 247 338 C247 444 215 539 133 674 L102 658 C148 561 165 489 165 385 C165 287 138 173 92 71 C47 -26 19 -68 -73 -173 L-49 -186 Z " />
<glyph glyph-name="asterisk" unicode="&#x2a;" horiz-adv-x="550" d="M325 475 L331 485 L388 489 C433 492 474 497 487 502 C507 509 520 524 520 541 C520 560 507 572 488 572 C469 572 461 568 387 530 L329 500 L321 506 L345 556 C367 603 379 636 379 649 C379 666 366 677 346 677 C315 677 296 655 296 618 C296 605 296 605 300 560 L303 506 L292 500 L250 527 C203 557 177 569 161 569 C137 569 114 547 114 525 C114 501 133 493 190 490 C207 489 220 489 223 489 L283 485 L285 475 L235 441 C162 392 141 373 141 353 C141 337 156 323 174 323 C199 323 215 337 245 385 C250 392 258 405 263 413 L297 465 L309 465 L320 418 C338 344 349 325 374 325 C399 325 423 346 423 368 C423 386 419 391 365 439 L325 475 Z " />
<glyph glyph-name="plus" unicode="&#x2b;" horiz-adv-x="550" d="M250 306 L213 130 L248 130 L286 306 L493 306 L501 341 L293 341 L330 517 L295 517 L258 341 L54 341 L46 306 L250 306 Z " />
<glyph glyph-name="comma" unicode="&#x2c;" horiz-adv-x="262" d="M4 -151 C98 -92 151 -23 151 41 C151 85 123 113 77 113 C28 113 -14 79 -14 40 C-14 14 4 -2 33 -2 C68 -2 95 22 97 57 C113 47 119 36 119 19 C119 -5 103 -36 74 -67 C52 -91 37 -103 -9 -131 L4 -151 Z " />
<glyph glyph-name="hyphen" unicode="&#x2d;" horiz-adv-x="213" d="M-21 234 L-35 168 L178 168 L192 234 L-21 234 Z " />
<glyph glyph-name="period" unicode="&#x2e;" horiz-adv-x="262" d="M85 110 C44 110 5 76 5 40 C5 14 27 -7 55 -7 C98 -7 137 26 137 62 C137 90 115 110 85 110 L85 110 Z " />
<glyph glyph-name="slash" unicode="&#x2f;" horiz-adv-x="445" d="M-156 -180 L-93 -180 L479 667 L416 667 L-156 -180 Z " />
<glyph glyph-name="zero" unicode="0" horiz-adv-x="550" d="M345 657 C186 657 29 441 29 222 C29 88 101 -10 200 -10 C361 -10 518 205 518 424 C518 560 446 657 345 657 L345 657 Z M340 637 C401 637 432 602 432 534 C432 487 420 410 394 294 C362 153 342 94 311 58 C286 29 245 10 206 10 C177 10 147 23 133 42 C121 58 115 80 115 113 C115 161 127 239 153 353 C185 494 206 554 236 589 C261 619 301 637 340 637 L340 637 Z " />
<glyph glyph-name="one" unicode="1" horiz-adv-x="550" d="M186 20 L66 20 L62 0 L385 0 L389 20 L279 20 L414 654 L199 643 L194 622 L283 625 L300 625 C307 625 311 622 311 616 C311 612 310 606 309 600 L186 20 Z " />
<glyph glyph-name="two" unicode="2" horiz-adv-x="550" d="M442 177 L422 177 C387 83 383 79 303 80 L61 80 C98 108 159 154 246 219 C357 302 382 323 428 368 C485 422 513 475 513 524 C513 603 443 657 339 657 C211 657 105 578 105 483 C105 441 129 415 166 415 C201 415 233 441 233 469 C233 491 214 506 186 506 C179 506 171 505 157 501 C151 500 148 499 144 499 C136 499 132 505 132 515 C132 528 140 545 154 563 C186 603 242 629 296 629 C366 629 409 584 409 510 C409 442 381 377 331 327 C283 279 236 241 -18 48 L-28 0 L398 0 L442 177 Z " />
<glyph glyph-name="three" unicode="3" horiz-adv-x="550" d="M139 338 C229 337 248 335 283 323 C329 306 349 278 349 229 C349 150 317 78 267 42 C237 21 198 10 156 10 C108 10 57 36 57 61 C57 66 60 69 69 74 C97 86 116 110 116 131 C116 151 98 166 75 166 C39 166 4 132 4 96 C4 36 74 -11 164 -11 C319 -11 455 94 455 212 C455 294 390 341 262 351 C394 373 487 451 487 540 C487 609 422 657 330 657 C229 657 139 601 139 538 C139 514 156 497 180 497 C209 497 236 522 236 548 C236 563 228 576 213 585 C207 588 206 590 206 593 C206 614 260 637 311 637 C362 637 392 611 392 569 C392 547 386 513 378 487 C359 427 328 392 278 375 C250 365 225 362 144 360 L139 338 Z " />
<glyph glyph-name="four" unicode="4" horiz-adv-x="550" d="M251 173 L218 20 L108 20 L104 0 L412 0 L416 20 L312 20 L344 173 L455 173 L439 98 L462 98 L500 274 L476 274 L461 200 L350 200 L446 653 L395 653 L0 212 L-8 173 L251 173 Z M257 200 L21 200 L330 543 L257 200 Z " />
<glyph glyph-name="five" unicode="5" horiz-adv-x="550" d="M202 567 L376 567 C446 567 458 570 473 585 C492 606 507 635 517 674 L499 674 C482 648 478 646 453 647 L276 647 C201 648 194 644 180 594 L108 330 C146 353 192 366 238 366 C312 366 362 321 362 253 C362 195 340 125 307 80 C274 36 224 10 171 10 C118 10 54 37 54 59 C54 64 57 66 67 70 C95 82 120 111 120 133 C120 153 103 169 82 169 C42 169 9 133 9 91 C9 35 79 -10 166 -10 C325 -10 465 101 465 228 C465 319 376 387 258 387 C223 387 192 382 147 368 L202 567 Z " />
<glyph glyph-name="six" unicode="6" horiz-adv-x="550" d="M530 686 C391 661 283 613 199 540 C87 443 19 306 19 177 C19 64 94 -10 208 -10 C355 -10 492 123 492 266 C492 362 421 429 320 429 C269 429 228 415 186 384 C242 545 347 632 525 663 L530 686 Z M307 409 C361 409 393 377 393 321 C393 247 364 123 335 75 C308 31 269 10 212 10 C148 10 115 47 115 119 C115 192 145 304 175 345 C205 386 252 409 307 409 L307 409 Z " />
<glyph glyph-name="seven" unicode="7" horiz-adv-x="550" d="M72 469 L94 464 C150 562 158 568 229 567 L498 567 C490 556 453 505 389 416 C222 194 209 176 179 121 C157 82 147 54 147 33 C147 3 166 -14 199 -14 C242 -14 276 23 276 70 L275 95 C273 112 273 119 273 128 C273 189 297 235 422 409 C455 457 486 500 506 529 C533 568 562 607 567 612 C581 629 586 637 586 641 C586 646 583 647 570 647 L164 647 L72 469 Z " />
<glyph glyph-name="eight" unicode="8" horiz-adv-x="550" d="M324 339 C446 364 523 433 523 520 C523 601 451 657 345 657 C268 657 203 633 152 585 C115 549 94 506 94 465 C94 403 142 358 228 339 C164 327 125 311 84 282 C33 245 1 189 1 136 C1 51 85 -10 202 -10 C350 -10 478 86 478 197 C478 270 426 318 324 339 L324 339 Z M342 637 C397 637 426 605 426 547 C426 498 409 441 383 406 C358 373 322 355 281 355 C228 355 198 387 198 445 C198 494 215 551 241 586 C265 619 302 637 342 637 L342 637 Z M274 327 C338 327 373 292 373 228 C373 176 356 114 330 77 C299 31 259 10 203 10 C142 10 106 46 106 109 C106 161 123 223 149 260 C180 306 220 327 274 327 L274 327 Z " />
<glyph glyph-name="nine" unicode="9" horiz-adv-x="550" d="M5 -43 C156 -19 249 24 349 114 C459 212 527 347 527 466 C527 581 456 657 348 657 C199 657 53 520 53 380 C53 286 129 212 228 212 C277 212 314 227 359 264 C286 85 186 2 15 -21 L5 -43 Z M337 637 C402 637 434 605 434 538 C434 484 417 401 393 344 C365 274 306 232 237 232 C182 232 149 263 149 316 C149 358 169 462 186 510 C216 596 265 637 337 637 L337 637 Z " />
<glyph glyph-name="colon" unicode="&#x3a;" horiz-adv-x="263" d="M146 396 C105 396 66 362 66 326 C66 300 88 279 116 279 C159 279 198 312 198 348 C198 376 176 396 146 396 L146 396 Z M86 110 C45 110 6 76 6 40 C6 14 28 -7 56 -7 C99 -7 138 26 138 62 C138 90 116 110 86 110 L86 110 Z " />
<glyph glyph-name="semicolon" unicode="&#x3b;" horiz-adv-x="262" d="M140 400 C99 400 60 366 60 330 C60 304 82 283 110 283 C154 283 192 315 192 352 C192 380 170 400 140 400 L140 400 Z M4 -151 C98 -92 151 -23 151 41 C151 85 123 113 77 113 C29 113 -14 79 -14 40 C-14 14 4 -2 33 -2 C68 -2 95 22 97 57 C113 47 119 36 119 19 C119 -5 103 -36 74 -67 C52 -92 37 -103 -9 -131 L4 -151 Z " />
<glyph glyph-name="less" unicode="&#x3c;" horiz-adv-x="550" d="M559 605 L50 338 L49 332 L443 60 L459 134 L137 357 L553 577 L559 605 Z " />
<glyph glyph-name="equal" unicode="&#x3d;" horiz-adv-x="550" d="M64 393 L57 358 L504 358 L512 393 L64 393 Z M42 288 L34 253 L481 253 L489 288 L42 288 Z " />
<glyph glyph-name="greater" unicode="&#x3e;" horiz-adv-x="550" d="M-9 60 L500 327 L501 332 L107 605 L91 531 L413 308 L-3 88 L-9 60 Z " />
<glyph glyph-name="question" unicode="&#x3f;" horiz-adv-x="410" d="M131 200 C132 255 164 293 250 341 C314 378 330 389 357 418 C393 456 414 504 414 551 C414 627 357 677 270 677 C173 677 78 606 78 532 C78 507 95 489 120 489 C148 489 174 513 174 540 C174 554 166 569 156 574 C136 584 132 588 132 595 C132 601 139 610 150 619 C179 643 224 657 271 657 C332 657 376 627 376 584 C376 547 349 514 281 468 C164 391 122 323 111 192 L131 200 Z M111 110 C70 110 31 76 31 40 C31 14 53 -7 81 -7 C124 -7 163 26 163 62 C163 90 141 110 111 110 L111 110 Z " />
<glyph glyph-name="at" unicode="&#x40;" horiz-adv-x="752" d="M568 96 C489 43 407 16 324 16 C163 16 45 120 45 263 C45 458 241 635 456 635 C601 635 715 546 715 431 C715 370 687 306 639 256 C594 209 523 169 485 169 C472 169 463 176 463 186 C463 200 475 234 497 280 L598 492 L517 492 L496 447 C489 481 463 501 425 501 C309 501 171 363 171 247 C171 190 212 149 269 149 C313 149 350 168 395 214 C394 207 393 200 393 196 C393 164 419 143 458 143 C513 143 581 172 638 220 C709 280 747 356 747 438 C747 568 626 664 461 664 C229 664 13 469 13 259 C13 99 141 -13 323 -13 C426 -13 523 23 614 96 L568 96 Z M432 483 C460 483 478 464 478 434 C478 399 437 310 387 236 C357 191 318 166 278 166 C251 166 233 184 233 213 C233 252 274 342 320 405 C358 457 396 483 432 483 L432 483 Z " />
<glyph glyph-name="A" unicode="A" horiz-adv-x="645" d="M353 215 L384 20 L288 20 L284 0 L582 0 L586 20 L508 20 L409 667 L376 667 L-10 20 L-63 20 L-67 0 L111 0 L115 20 L20 20 L132 215 L353 215 Z M350 235 L144 235 L307 512 L350 235 Z " />
<glyph glyph-name="B" unicode="B" horiz-adv-x="672" d="M62 20 L-32 20 L-36 0 L220 0 C389 0 454 16 523 73 C568 112 591 156 591 208 C591 291 525 340 398 349 C467 361 509 376 550 403 C600 435 629 483 629 532 C629 592 587 634 504 655 C467 664 431 667 341 667 L106 667 L101 647 L195 647 L62 20 Z M302 647 L333 647 C429 647 464 641 491 619 C511 603 520 580 520 546 C520 496 503 444 475 413 C441 373 391 357 305 357 C289 357 280 357 241 358 L302 647 Z M169 20 L236 337 C275 339 286 339 306 339 C426 339 475 310 475 237 C475 166 449 97 408 62 C370 30 330 20 236 20 L169 20 Z " />
<glyph glyph-name="C" unicode="C" horiz-adv-x="643" d="M564 189 L548 189 C476 71 391 13 290 13 C195 13 141 57 141 133 C141 179 156 267 181 368 C214 502 235 554 271 591 C312 632 370 654 435 654 C541 654 605 595 612 491 L628 491 L666 667 L649 667 L602 620 C557 657 501 677 442 677 C360 677 264 638 191 574 C94 491 37 372 37 254 C37 101 143 -10 287 -10 C349 -10 407 8 480 48 L508 0 L524 0 L564 189 Z " />
<glyph glyph-name="D" unicode="D" horiz-adv-x="743" d="M62 20 L-32 20 L-36 0 L217 0 C296 0 344 3 377 10 C434 22 489 49 541 91 C646 174 706 291 706 413 C706 488 678 552 623 602 C565 654 512 667 348 667 L106 667 L101 647 L195 647 L62 20 Z M168 20 L302 647 L346 647 C442 647 463 645 503 634 C565 616 596 575 596 509 C596 458 580 366 554 265 C519 131 492 87 422 51 C372 25 338 20 220 20 L168 20 Z " />
<glyph glyph-name="E" unicode="E" horiz-adv-x="642" d="M60 20 L-32 20 L-36 0 L510 0 L575 208 L561 208 C480 50 431 13 315 20 L167 20 L232 328 L272 328 C353 328 381 310 381 258 C381 245 380 235 374 196 L390 196 L448 471 L433 471 C408 362 382 346 236 347 L300 647 L390 647 C541 652 583 618 588 484 L603 484 L634 667 L106 667 L101 647 L193 647 L60 20 Z " />
<glyph glyph-name="F" unicode="F" horiz-adv-x="588" d="M60 20 L-32 20 L-36 0 L265 0 L269 20 L167 20 L232 328 L272 328 C353 328 382 310 382 259 L382 258 L382 248 C382 248 380 229 377 212 C377 209 376 203 375 196 L390 196 L448 471 L434 471 C409 362 382 346 236 347 L300 647 L377 647 C513 648 524 646 560 604 C582 573 590 543 590 481 L605 481 L630 667 L106 667 L101 647 L193 647 L60 20 Z " />
<glyph glyph-name="G" unicode="G" horiz-adv-x="701" d="M652 667 L637 667 L591 627 C541 661 492 677 440 677 C235 677 38 470 38 256 C38 102 140 -10 281 -10 C373 -10 479 35 536 99 C564 129 579 159 594 213 L664 213 L668 233 L358 233 L354 213 L463 213 C449 151 438 121 422 95 C392 45 333 13 273 13 C193 13 143 58 143 129 C143 159 147 196 157 255 C184 409 220 527 254 576 C287 623 352 654 418 654 C465 654 499 645 529 623 C574 591 594 545 598 468 L615 468 L652 667 Z " />
<glyph glyph-name="H" unicode="H" horiz-adv-x="783" d="M549 331 L483 20 L380 20 L376 0 L677 0 L681 20 L589 20 L723 647 L814 647 L819 667 L518 667 L514 647 L616 647 L553 351 L237 351 L300 647 L402 647 L406 667 L106 667 L101 647 L193 647 L60 20 L-32 20 L-36 0 L265 0 L269 20 L167 20 L233 331 L549 331 Z " />
<glyph glyph-name="I" unicode="I" horiz-adv-x="360" d="M60 20 L-32 20 L-36 0 L254 0 L258 20 L167 20 L300 647 L391 647 L396 667 L106 667 L101 647 L193 647 L60 20 Z " />
<glyph glyph-name="J" unicode="J" horiz-adv-x="426" d="M264 647 L148 105 C127 5 122 -9 96 -33 C79 -48 54 -59 36 -59 C22 -59 9 -51 9 -42 C9 -39 11 -37 15 -33 C40 -12 48 1 48 18 C48 42 32 58 8 58 C-31 58 -64 26 -64 -11 C-64 -51 -25 -80 30 -80 C87 -80 158 -45 202 6 C233 42 250 79 264 148 L370 647 L473 647 L477 667 L176 667 L172 647 L264 647 Z " />
<glyph glyph-name="K" unicode="K" horiz-adv-x="718" d="M60 20 L-32 20 L-36 0 L265 0 L269 20 L167 20 L300 647 L402 647 L406 667 L106 667 L101 647 L193 647 L60 20 Z M365 407 L650 647 L743 647 L747 667 L513 667 L508 647 L616 647 L258 348 L457 20 L362 20 L358 0 L647 0 L652 20 L599 20 L365 407 Z " />
<glyph glyph-name="L" unicode="L" horiz-adv-x="627" d="M60 20 L-32 20 L-36 0 L512 0 L574 206 L560 206 C487 50 439 15 307 20 L167 20 L300 647 L402 647 L406 667 L106 667 L101 647 L193 647 L60 20 Z " />
<glyph glyph-name="M" unicode="M" horiz-adv-x="842" d="M54 20 L-38 20 L-42 0 L167 0 L171 20 L77 20 L208 637 L292 0 L319 0 L672 630 L543 20 L440 20 L436 0 L737 0 L741 20 L649 20 L783 647 L874 647 L879 667 L666 667 L388 175 L329 667 L100 667 L95 647 L187 647 L54 20 Z " />
<glyph glyph-name="N" unicode="N" horiz-adv-x="735" d="M53 20 L-39 20 L-43 0 L166 0 L170 20 L76 20 L205 628 L525 0 L549 0 L686 647 L778 647 L782 667 L573 667 L569 647 L663 647 L567 196 C542 252 534 269 480 374 L329 667 L99 667 L94 647 L186 647 L53 20 Z " />
<glyph glyph-name="O" unicode="O" horiz-adv-x="730" d="M440 677 C239 677 39 471 39 264 C39 105 145 -10 289 -10 C393 -10 494 39 574 127 C650 210 692 310 692 403 C692 563 587 677 440 677 L440 677 Z M434 654 C532 654 586 607 586 520 C586 477 574 400 552 305 C520 164 498 110 457 72 C417 34 359 13 296 13 C249 13 205 28 179 53 C156 75 146 105 146 147 C146 189 158 268 180 362 C212 502 234 557 275 595 C315 633 373 654 434 654 L434 654 Z " />
<glyph glyph-name="P" unicode="P" horiz-adv-x="635" d="M60 20 L-32 20 L-36 0 L265 0 L269 20 L167 20 L231 322 L315 322 C451 322 517 339 581 392 C626 428 651 476 651 526 C651 586 610 632 538 654 C505 664 473 667 385 667 L106 667 L101 647 L193 647 L60 20 Z M235 342 L300 647 L382 647 C501 647 536 628 536 563 C536 517 519 447 500 414 C468 358 429 342 319 342 L235 342 Z " />
<glyph glyph-name="Q" unicode="Q" horiz-adv-x="731" d="M528 -204 C386 -199 342 -172 342 -89 C342 -62 345 -39 355 0 C417 12 469 37 527 82 C632 165 692 282 692 408 C692 561 585 677 443 677 C352 677 250 632 170 555 C87 475 39 369 39 262 C39 182 67 113 121 62 C151 33 181 17 236 0 C230 -29 228 -44 228 -66 C228 -172 314 -216 525 -218 L528 -204 Z M434 654 C532 654 586 609 586 527 C586 455 549 268 516 172 C478 62 409 13 294 13 C200 13 145 59 145 140 C145 185 158 270 178 359 C209 493 231 550 265 587 C308 632 362 654 434 654 L434 654 Z " />
<glyph glyph-name="R" unicode="R" horiz-adv-x="701" d="M60 20 L-32 20 L-36 0 L265 0 L269 20 L167 20 L236 345 L276 345 C382 345 420 322 420 258 C420 242 418 224 412 195 C404 150 401 131 401 112 C401 41 450 -4 528 -4 C552 -4 580 1 611 12 L607 30 C582 21 572 19 561 19 C538 19 523 36 523 61 C523 75 525 86 534 124 C543 160 546 180 546 202 C546 283 485 340 382 353 C536 362 643 440 643 543 C643 580 625 610 588 633 C543 661 503 667 355 667 L106 667 L101 647 L193 647 L60 20 Z M240 367 L300 647 L349 647 C442 647 477 639 503 614 C520 597 528 574 528 544 C528 497 509 448 478 416 C441 379 394 367 284 367 L240 367 Z " />
<glyph glyph-name="S" unicode="S" horiz-adv-x="548" d="M533 677 L517 677 L470 636 C429 664 388 677 341 677 C213 677 92 560 92 437 C92 404 102 376 123 354 C146 330 175 318 262 296 C344 276 361 270 380 255 C402 238 413 215 413 185 C413 89 326 13 218 13 C109 13 43 79 43 185 L43 206 L27 206 L-17 0 L6 0 L57 48 C102 8 148 -10 210 -10 C354 -10 481 119 481 266 C481 306 468 339 442 365 C417 389 396 398 312 419 C181 452 159 465 159 513 C159 590 239 654 333 654 C419 654 480 600 480 524 C480 520 480 513 479 501 L495 501 L533 677 Z " />
<glyph glyph-name="T" unicode="T" horiz-adv-x="628" d="M193 20 L90 20 L86 0 L400 0 L404 20 L302 20 L435 647 L465 647 C541 648 561 641 588 605 C616 564 627 519 626 456 L642 456 L679 667 L90 667 L37 456 L54 456 C79 520 108 563 152 605 C193 641 216 648 288 647 L326 647 L193 20 Z " />
<glyph glyph-name="U" unicode="U" horiz-adv-x="706" d="M636 647 L554 265 C531 155 523 132 495 94 C456 41 397 13 323 13 C234 13 179 55 179 124 C179 144 185 178 203 265 L285 647 L387 647 L391 667 L91 667 L86 647 L178 647 L97 265 C85 208 77 158 77 136 C77 46 162 -10 298 -10 C382 -10 450 15 495 61 C538 105 551 137 578 265 L659 647 L753 647 L757 667 L548 667 L544 647 L636 647 Z " />
<glyph glyph-name="V" unicode="V" horiz-adv-x="640" d="M638 647 L711 647 L715 667 L508 667 L504 647 L612 647 L331 158 L253 647 L354 647 L358 667 L66 667 L62 647 L127 647 L240 -10 L263 -10 L638 647 Z " />
<glyph glyph-name="W" unicode="W" horiz-adv-x="879" d="M888 647 L946 647 L951 667 L764 667 L760 647 L858 647 L582 151 L534 442 L656 647 L722 647 L726 667 L68 667 L64 647 L124 647 L236 -10 L261 -10 L439 287 L492 -10 L517 -10 L888 647 Z M620 647 L527 482 L504 647 L620 647 Z M376 647 L434 326 L329 151 L248 647 L376 647 Z " />
<glyph glyph-name="X" unicode="X" horiz-adv-x="655" d="M278 282 L388 20 L295 20 L290 0 L584 0 L588 20 L527 20 L373 388 L607 647 L684 647 L689 667 L479 667 L475 647 L576 647 L361 410 L259 647 L361 647 L365 667 L75 667 L70 647 L121 647 L268 305 L13 20 L-63 20 L-67 0 L142 0 L146 20 L43 20 L278 282 Z " />
<glyph glyph-name="Y" unicode="Y" horiz-adv-x="636" d="M193 20 L90 20 L86 0 L398 0 L402 20 L299 20 L362 316 C371 325 372 326 377 334 C380 337 383 340 385 344 C392 352 397 358 401 363 L421 384 L633 647 L710 647 L714 667 L499 667 L495 647 L604 647 L360 356 C360 363 357 372 353 384 L247 647 L341 647 L345 667 L60 667 L56 647 L112 647 L255 316 L193 20 Z " />
<glyph glyph-name="Z" unicode="Z" horiz-adv-x="601" d="M-43 0 L480 0 L545 210 L531 210 C489 121 461 82 417 49 C380 23 365 20 268 20 L80 20 L654 667 L145 667 L80 463 L95 463 C170 614 222 654 332 647 L502 647 L-34 44 L-43 0 Z " />
<glyph glyph-name="bracketleft" unicode="&#x5b;" horiz-adv-x="295" d="M-43 -180 L180 -180 L185 -160 L48 -160 L219 647 L356 647 L360 667 L137 667 L-43 -180 Z " />
<glyph glyph-name="backslash" unicode="&#x5c;" horiz-adv-x="445" d="M384 -180 L172 667 L109 667 L321 -180 L384 -180 Z " />
<glyph glyph-name="bracketright" unicode="&#x5d;" horiz-adv-x="295" d="M300 667 L77 667 L73 647 L201 647 L29 -160 L-99 -160 L-103 -180 L120 -180 L300 667 Z " />
<glyph glyph-name="asciicircum" unicode="&#x5e;" horiz-adv-x="550" d="M568 284 L365 700 L357 700 L-40 284 L94 284 L372 577 L518 284 L568 284 Z " />
<glyph glyph-name="underscore" unicode="&#x5f;" horiz-adv-x="504" d="M-70 -89 L-81 -142 L383 -142 L394 -89 L-70 -89 Z " />
<glyph glyph-name="grave" unicode="&#x60;" horiz-adv-x="532" d="M272 616 L197 616 C190 616 186 612 186 606 C186 604 187 602 189 599 L327 463 L338 473 L272 616 Z " />
<glyph glyph-name="a" unicode="a" horiz-adv-x="487" d="M391 35 C368 20 365 19 352 19 C341 19 336 25 336 36 C336 47 336 47 355 135 L378 245 C389 295 392 313 392 322 C392 370 339 402 258 402 C192 402 133 382 95 348 C74 329 64 311 64 294 C64 273 80 259 105 259 C134 259 161 283 161 307 C161 316 156 323 145 333 C141 337 139 339 139 342 C139 361 194 386 238 386 C282 386 306 370 306 342 C306 331 304 321 297 286 L282 217 C178 215 118 203 61 172 C14 147 -15 106 -15 65 C-15 19 25 -10 87 -10 C148 -10 207 18 251 68 C250 62 250 58 250 52 C250 15 278 -10 322 -10 C350 -10 372 -1 401 20 L391 35 Z M274 180 C263 127 252 99 233 79 C207 49 175 34 138 34 C100 34 78 52 78 83 C78 116 96 145 128 165 C166 189 201 197 279 200 L274 180 Z " />
<glyph glyph-name="b" unicode="b" horiz-adv-x="547" d="M27 20 L-48 20 L-52 0 L113 0 L128 68 C148 14 182 -10 241 -10 C363 -10 485 117 485 245 C485 337 422 403 333 403 C273 403 219 374 182 322 L255 667 L90 667 L85 647 L161 647 L27 20 Z M323 380 C366 380 393 354 393 314 C393 277 355 100 341 71 C323 36 286 13 246 13 C187 13 146 62 146 133 C146 265 229 380 323 380 L323 380 Z " />
<glyph glyph-name="c" unicode="c" horiz-adv-x="448" d="M359 127 C314 52 253 13 182 13 C131 13 98 39 98 80 C98 118 114 193 137 270 C161 347 202 380 274 380 C311 380 350 365 350 351 C350 347 348 345 343 342 C318 326 303 304 303 286 C303 263 319 248 343 248 C380 248 409 277 409 313 C409 364 350 403 275 403 C138 403 5 280 5 154 C5 62 80 -10 177 -10 C262 -10 328 33 386 127 L359 127 Z " />
<glyph glyph-name="d" unicode="d" horiz-adv-x="542" d="M522 667 L350 667 L345 647 L428 647 L359 322 C334 378 298 403 242 403 C120 403 5 280 5 150 C5 58 69 -10 156 -10 C216 -10 270 21 306 76 L290 0 L454 0 L458 20 L384 20 L522 667 Z M241 380 C296 380 337 329 337 260 C337 131 253 13 162 13 C124 13 96 40 96 75 C96 109 128 261 145 307 C162 354 197 380 241 380 L241 380 Z " />
<glyph glyph-name="e" unicode="e" horiz-adv-x="468" d="M416 229 C418 246 419 255 419 265 C419 346 354 403 259 403 C133 403 5 279 5 158 C5 64 81 -10 178 -10 C266 -10 352 48 387 132 L361 132 C323 58 257 13 183 13 C135 13 104 39 104 80 C104 102 105 108 131 229 L416 229 Z M135 249 C151 324 151 324 167 344 C186 367 217 380 254 380 C296 380 318 361 318 325 C318 311 317 302 306 249 L135 249 Z " />
<glyph glyph-name="f" unicode="f" horiz-adv-x="335" d="M206 373 L315 373 L319 393 L210 393 L239 528 C258 617 261 625 287 643 C300 652 315 657 332 657 C346 657 355 655 364 650 C342 634 331 617 331 599 C331 579 347 565 369 565 C398 565 426 592 426 620 C426 652 390 677 343 677 C298 677 250 656 211 620 C172 583 152 546 137 474 L120 393 L47 393 L42 373 L116 373 L41 20 L-33 20 L-37 0 L226 0 L231 20 L131 20 L206 373 Z " />
<glyph glyph-name="g" unicode="g" horiz-adv-x="483" d="M251 22 L228 22 L168 21 C91 20 91 20 78 20 C28 20 12 27 12 50 C12 77 47 109 109 139 C136 127 155 123 186 123 C304 123 397 195 397 286 C397 309 391 329 378 350 C395 363 400 366 408 366 C414 366 417 361 417 350 C417 330 427 320 447 320 C473 320 496 342 496 368 C496 390 480 403 454 403 C427 403 403 391 366 362 C340 389 301 403 248 403 C139 403 43 325 43 237 C43 204 57 177 89 149 C8 106 -36 56 -36 7 C-36 -29 -14 -53 31 -64 C-35 -81 -77 -121 -77 -166 C-77 -227 -4 -272 97 -272 C171 -272 247 -247 294 -206 C342 -165 372 -106 372 -53 C372 1 341 22 265 22 L251 22 Z M246 383 C293 383 313 371 313 343 C313 319 294 229 283 200 C268 161 241 144 192 144 C149 144 129 159 129 191 C129 219 150 313 163 340 C177 371 201 383 246 383 L246 383 Z M122 -67 C136 -67 141 -67 219 -65 C264 -64 264 -64 269 -64 C303 -64 316 -72 316 -94 C316 -115 302 -146 281 -172 C242 -219 177 -247 107 -247 C45 -247 6 -215 6 -164 C6 -127 23 -94 59 -64 C80 -66 88 -67 114 -67 L122 -67 Z " />
<glyph glyph-name="h" unicode="h" horiz-adv-x="581" d="M26 20 L-48 20 L-52 0 L186 0 L191 20 L116 20 L147 165 C162 240 174 273 195 303 C226 347 276 374 328 374 C367 374 387 359 387 331 C387 317 386 310 375 258 L324 20 L258 20 L254 0 L492 0 L496 20 L414 20 L465 258 C473 297 476 315 476 327 C476 376 434 403 360 403 C286 403 231 378 180 322 L253 667 L90 667 L85 647 L159 647 L26 20 Z " />
<glyph glyph-name="i" unicode="i" horiz-adv-x="297" d="M49 20 L-34 20 L-38 0 L208 0 L212 20 L139 20 L218 393 L46 393 L41 373 L124 373 L49 20 Z M218 654 C183 654 151 621 151 584 C151 558 169 540 195 540 C231 540 265 573 265 609 C265 636 246 654 218 654 L218 654 Z " />
<glyph glyph-name="j" unicode="j" horiz-adv-x="253" d="M101 373 L-9 -144 C-21 -201 -23 -206 -29 -218 C-40 -239 -58 -250 -77 -250 C-90 -250 -97 -245 -97 -236 C-97 -231 -95 -224 -92 -221 C-79 -202 -77 -199 -77 -186 C-77 -168 -91 -155 -113 -155 C-144 -155 -169 -181 -169 -213 C-169 -246 -134 -271 -88 -271 C-47 -271 -5 -253 27 -224 C64 -190 78 -158 98 -61 L195 393 L32 393 L27 373 L101 373 Z M201 654 C166 654 134 621 134 584 C134 558 152 540 178 540 C214 540 248 573 248 609 C248 636 229 654 201 654 L201 654 Z " />
<glyph glyph-name="k" unicode="k" horiz-adv-x="538" d="M262 667 L90 667 L85 647 L168 647 L35 20 L-48 20 L-52 0 L194 0 L198 20 L125 20 L262 667 Z M268 252 L432 373 L508 373 L513 393 L290 393 L286 373 L394 373 L176 210 L293 20 L238 20 L234 0 L469 0 L474 20 L424 20 L268 252 Z " />
<glyph glyph-name="l" unicode="l" horiz-adv-x="282" d="M35 20 L-48 20 L-52 0 L194 0 L198 20 L125 20 L262 667 L90 667 L85 647 L168 647 L35 20 Z " />
<glyph glyph-name="m" unicode="m" horiz-adv-x="839" d="M40 20 L-34 20 L-38 0 L200 0 L205 20 L130 20 L152 128 C177 243 193 295 213 321 C236 350 279 370 319 370 C352 370 371 355 371 328 C371 316 368 293 362 266 L309 20 L243 20 L239 0 L470 0 L474 20 L399 20 L422 128 C457 290 460 300 495 334 C519 357 557 373 591 373 C623 373 644 358 644 334 C644 326 639 299 632 266 L580 20 L514 20 L510 0 L748 0 L752 20 L670 20 L722 266 C728 291 731 315 731 328 C731 375 692 403 626 403 C559 403 506 382 461 337 C457 360 452 369 438 379 C418 395 389 403 357 403 C296 403 247 384 198 343 L209 393 L46 393 L41 373 L115 373 L40 20 Z " />
<glyph glyph-name="n" unicode="n" horiz-adv-x="579" d="M40 20 L-34 20 L-38 0 L200 0 L205 20 L130 20 L155 139 C181 261 197 305 227 333 C251 357 292 373 325 373 C364 373 387 352 387 316 C387 294 381 259 363 174 L330 20 L255 20 L251 0 L489 0 L494 20 L420 20 L468 242 C475 279 479 302 479 315 C479 368 430 403 354 403 C294 403 245 384 198 341 L209 393 L46 393 L41 373 L115 373 L40 20 Z " />
<glyph glyph-name="o" unicode="o" horiz-adv-x="522" d="M276 403 C136 403 5 284 5 157 C5 61 82 -10 185 -10 C328 -10 459 108 459 236 C459 333 383 403 276 403 L276 403 Z M271 380 C333 380 368 357 368 315 C368 291 367 285 331 121 C314 44 274 13 191 13 C131 13 96 37 96 78 C96 103 97 109 133 272 C149 348 190 380 271 380 L271 380 Z " />
<glyph glyph-name="p" unicode="p" horiz-adv-x="544" d="M-31 -247 L-105 -247 L-109 -267 L137 -267 L141 -247 L59 -247 L128 78 C146 18 182 -10 241 -10 C361 -10 483 120 483 249 C483 339 421 403 334 403 C274 403 221 375 179 320 L195 393 L31 393 L27 373 L100 373 L-31 -247 Z M326 380 C367 380 390 359 390 323 C390 285 363 151 344 98 C323 40 293 13 247 13 C188 13 149 60 149 130 C149 218 185 306 238 346 C267 369 297 380 326 380 L326 380 Z " />
<glyph glyph-name="q" unicode="q" horiz-adv-x="545" d="M462 373 L535 373 L539 393 L376 393 L361 321 C345 370 299 403 246 403 C121 403 6 284 6 154 C6 60 72 -10 161 -10 C217 -10 271 20 308 73 L240 -247 L147 -247 L143 -267 L399 -267 L403 -247 L330 -247 L462 373 Z M243 380 C298 380 339 336 339 277 C339 209 315 119 287 82 C254 39 208 13 165 13 C124 13 97 39 97 78 C97 111 116 207 139 290 C155 348 192 380 243 380 L243 380 Z " />
<glyph glyph-name="r" unicode="r" horiz-adv-x="408" d="M40 20 L-34 20 L-38 0 L208 0 L212 20 L130 20 L149 113 C174 230 198 286 243 337 C257 352 271 362 281 362 C285 362 289 358 289 354 C289 351 289 348 287 341 C286 336 286 333 286 330 C286 310 304 294 328 294 C366 294 397 322 397 356 C397 385 374 403 336 403 C283 403 236 369 189 298 L209 393 L46 393 L41 373 L115 373 L40 20 Z " />
<glyph glyph-name="s" unicode="s" horiz-adv-x="375" d="M334 398 L317 398 L293 366 C261 393 235 403 195 403 C108 403 35 334 35 253 C35 230 42 210 53 195 C71 174 96 164 163 154 C236 143 256 131 256 99 C256 54 200 13 138 13 C96 13 59 32 43 61 C31 84 25 110 22 150 L6 150 L-22 0 L-10 0 L23 32 C58 1 87 -10 130 -10 C222 -10 302 66 302 153 C302 213 271 238 176 254 C99 266 78 277 78 303 C78 342 132 380 189 380 C255 380 296 342 296 280 L313 280 L334 398 Z " />
<glyph glyph-name="t" unicode="t" horiz-adv-x="320" d="M235 546 L220 546 C178 475 117 423 36 387 L33 373 L109 373 L55 119 C49 91 45 68 45 59 C45 19 84 -10 136 -10 C202 -10 246 18 269 75 L246 75 C230 38 208 21 175 21 C149 21 133 34 133 55 C133 61 135 73 138 89 L199 373 L309 373 L314 393 L203 393 L235 546 Z " />
<glyph glyph-name="u" unicode="u" horiz-adv-x="583" d="M496 393 L324 393 L320 373 L402 373 L372 233 C349 122 337 91 307 59 C279 30 238 13 197 13 C156 13 136 26 136 55 C136 67 143 109 154 160 L204 393 L31 393 L27 373 L109 373 L64 160 C56 121 51 91 51 77 C51 23 98 -10 176 -10 C243 -10 295 11 334 55 L323 0 L486 0 L490 20 L417 20 L496 393 Z " />
<glyph glyph-name="v" unicode="v" horiz-adv-x="452" d="M419 373 L462 373 L466 393 L310 393 L305 373 L389 373 L218 104 L160 373 L239 373 L244 393 L10 393 L6 373 L52 373 L139 -10 L178 -10 L419 373 Z " />
<glyph glyph-name="w" unicode="w" horiz-adv-x="669" d="M627 373 L679 373 L683 393 L518 393 L514 373 L599 373 L459 114 L405 393 L366 393 L213 114 L165 373 L237 373 L242 393 L10 393 L6 373 L56 373 L137 -10 L171 -10 L323 266 L381 -10 L415 -10 L627 373 Z " />
<glyph glyph-name="x" unicode="x" horiz-adv-x="482" d="M251 233 L398 373 L473 373 L477 393 L298 393 L294 373 L366 373 L242 254 L178 373 L243 373 L247 393 L17 393 L12 373 L62 373 L165 181 L-2 20 L-63 20 L-67 0 L109 0 L114 20 L29 20 L175 161 L252 20 L205 20 L201 0 L408 0 L412 20 L368 20 L251 233 Z " />
<glyph glyph-name="y" unicode="y" horiz-adv-x="451" d="M418 373 L461 373 L465 393 L306 393 L301 373 L388 373 L231 117 L163 373 L240 373 L244 393 L10 393 L6 373 L53 373 L161 0 L68 -148 C37 -196 33 -201 21 -201 C15 -201 13 -199 8 -190 C0 -176 -14 -169 -34 -169 C-69 -169 -98 -195 -98 -226 C-98 -248 -75 -265 -46 -265 C4 -265 42 -235 89 -159 L418 373 Z " />
<glyph glyph-name="z" unicode="z" horiz-adv-x="439" d="M430 393 L76 393 L43 240 L58 240 C118 357 143 375 238 373 L295 373 L-49 0 L330 0 L367 167 L353 167 C291 37 269 20 168 20 L81 20 L430 393 Z " />
<glyph glyph-name="braceleft" unicode="&#x7b;" horiz-adv-x="296" d="M-15 249 C19 248 34 236 34 209 C34 195 29 164 21 127 L-5 2 C-14 -40 -21 -84 -21 -98 C-21 -136 1 -161 42 -172 C63 -177 71 -178 159 -180 L163 -160 C97 -158 67 -137 67 -91 C67 -76 71 -43 75 -25 L108 130 C112 151 115 173 115 186 C115 224 93 250 56 256 L57 260 C120 273 148 307 163 390 L189 513 C209 609 246 644 335 647 L339 667 C312 666 280 665 271 665 C229 664 208 660 185 647 C140 621 118 583 101 503 L74 375 C55 288 38 267 -11 266 L-15 249 Z " />
<glyph glyph-name="bar" unicode="&#x7c;" horiz-adv-x="550" d="M309 667 L132 -167 L207 -167 L384 667 L309 667 Z " />
<glyph glyph-name="braceright" unicode="&#x7d;" horiz-adv-x="296" d="M254 266 C220 267 206 279 206 309 C206 325 209 347 215 375 L242 503 C248 530 251 556 251 576 C251 604 242 627 226 642 C206 661 190 664 107 666 C103 666 89 666 74 667 L70 647 C139 643 166 622 166 573 C166 554 164 537 159 513 L133 390 C125 353 123 341 123 326 C123 292 145 267 183 260 L182 256 C124 246 92 207 77 130 L44 -25 C21 -127 -12 -158 -102 -160 L-106 -180 C3 -178 18 -176 58 -156 C103 -125 112 -108 136 2 L162 127 C183 228 196 246 250 249 L254 266 Z " />
<glyph glyph-name="asciitilde" unicode="&#x7e;" horiz-adv-x="517" d="M417 375 C390 348 380 342 357 342 C340 342 320 345 306 351 L265 366 C241 375 230 377 214 377 C162 377 125 354 88 300 L101 291 C124 317 140 324 170 324 C186 324 203 321 221 314 L261 300 C283 292 296 289 310 289 C351 289 389 314 430 366 L417 375 Z " />
<glyph glyph-name="uni00A0" unicode="&#xa0;" horiz-adv-x="250" d="" />
<glyph glyph-name="exclamdown" unicode="&#xa1;" horiz-adv-x="292" d="M107 210 C78 89 56 20 8 -94 C-28 -174 -35 -196 -35 -222 C-35 -251 -15 -270 15 -270 C47 -270 73 -252 88 -220 C98 -199 99 -189 99 -91 L98 -37 C98 27 108 106 128 210 L107 210 Z M167 414 C124 414 85 381 85 344 C85 317 107 296 137 296 C178 296 217 330 217 367 C217 393 195 414 167 414 L167 414 Z " />
<glyph glyph-name="cent" unicode="&#xa2;" horiz-adv-x="550" d="M355 524 C390 522 424 507 424 494 C424 489 422 487 414 482 C393 470 377 445 377 427 C377 404 394 389 419 389 C454 389 483 419 483 454 C483 479 467 503 440 520 C418 534 397 539 359 542 L378 630 L350 630 L332 542 C200 533 80 415 80 295 C80 206 146 140 244 131 L224 36 L252 36 L272 132 C348 138 425 194 461 268 L433 268 C396 201 343 161 277 153 L355 524 Z M249 152 C193 161 170 183 170 226 C170 264 190 353 212 419 C235 486 265 513 327 522 L249 152 Z " />
<glyph glyph-name="sterling" unicode="&#xa3;" horiz-adv-x="550" d="M285 296 L257 342 C217 405 205 437 205 478 C205 577 288 656 393 656 L398 656 C454 656 494 630 494 593 C494 580 490 574 476 566 C444 549 431 533 431 511 C431 488 449 471 473 471 C522 471 561 511 561 560 C561 624 485 677 393 677 C248 677 108 568 108 455 C108 413 116 397 190 296 L56 296 L49 263 L211 263 C236 229 246 206 246 181 C246 163 241 147 224 116 C160 138 134 143 92 143 C12 143 -49 106 -49 57 C-49 19 -9 -6 52 -6 C105 -6 140 4 206 38 C254 2 294 -13 338 -13 C433 -13 503 55 528 171 L497 171 C485 100 440 54 382 54 C353 54 323 66 256 103 C282 149 296 192 296 229 C296 241 295 248 292 263 L441 263 L448 296 L285 296 Z M178 56 C141 33 102 21 61 21 C18 21 -15 38 -15 61 C-15 86 13 106 49 106 C81 106 127 88 178 56 L178 56 Z " />
<glyph glyph-name="currency" unicode="&#xa4;" horiz-adv-x="550" d="M449 481 C414 512 369 528 317 528 C263 528 214 513 163 481 L104 547 L73 523 L132 457 C78 409 47 348 47 289 C47 255 56 227 76 196 L-11 130 L10 106 L97 173 C133 141 177 125 227 125 C282 125 338 142 384 173 L443 106 L474 130 L415 196 C468 243 500 306 500 365 C500 399 491 427 470 457 L557 523 L537 547 L449 481 Z M303 462 C377 462 432 414 432 351 C432 267 342 191 242 191 C170 191 115 239 115 302 C115 385 205 462 303 462 L303 462 Z " />
<glyph glyph-name="yen" unicode="&#xa5;" horiz-adv-x="550" d="M217 304 L157 20 L67 20 L63 0 L345 0 L349 20 L250 20 L310 304 L472 304 L476 324 L321 324 L399 433 L544 433 L548 453 L415 453 L538 627 L605 627 L610 647 L422 647 L417 627 L510 627 L309 345 L234 627 L318 627 L322 647 L73 647 L69 627 L129 627 L176 453 L52 453 L48 433 L182 433 L212 324 L70 324 L65 304 L217 304 Z " />
<glyph glyph-name="brokenbar" unicode="&#xa6;" horiz-adv-x="550" d="M309 667 L237 326 L312 326 L384 667 L309 667 Z M200 153 L132 -167 L207 -167 L275 153 L200 153 Z " />
<glyph glyph-name="section" unicode="&#xa7;" horiz-adv-x="550" d="M338 117 C427 146 481 213 481 293 C481 317 471 340 453 356 C432 377 410 390 322 435 C240 478 233 482 216 494 C197 508 187 526 187 547 C187 611 253 657 346 657 C405 657 439 642 462 607 C413 599 380 571 380 538 C380 516 401 499 427 499 C472 499 511 535 511 577 C511 635 446 677 356 677 C227 677 124 593 124 487 C124 453 143 421 181 393 C96 371 38 302 38 223 C38 195 49 170 71 152 C92 135 107 126 197 80 C332 10 349 -3 349 -43 C349 -116 266 -170 152 -170 C81 -170 29 -148 7 -110 C13 -111 18 -111 21 -111 C66 -111 109 -72 109 -31 C109 -4 90 13 60 13 C12 13 -29 -28 -29 -76 C-29 -144 39 -190 139 -190 C221 -190 300 -165 348 -125 C390 -90 416 -42 416 1 C416 46 399 72 338 117 L338 117 Z M198 379 C216 379 229 375 266 357 C317 333 356 312 386 294 C414 277 428 256 428 228 C428 181 377 134 326 134 C306 134 288 140 250 159 C176 196 134 218 121 229 C101 244 90 263 90 282 C90 295 96 308 113 331 C136 362 166 379 198 379 L198 379 Z " />
<glyph glyph-name="dieresis" unicode="&#xa8;" horiz-adv-x="540" d="M224 591 C191 591 160 562 160 530 C160 506 177 490 201 490 C235 490 265 518 265 551 C265 574 247 591 224 591 L224 591 Z M425 591 C392 591 362 562 362 531 C362 506 379 490 404 490 C439 490 467 518 467 551 C467 574 449 591 425 591 L425 591 Z " />
<glyph glyph-name="copyright" unicode="&#xa9;" horiz-adv-x="854" d="M561 256 L545 256 C504 190 454 158 394 158 C338 158 306 182 306 224 C306 266 331 381 351 430 C372 483 413 509 474 509 C537 509 575 476 579 418 L596 418 L618 523 L603 523 L576 498 C549 518 515 529 480 529 C355 529 236 413 236 291 C236 203 302 138 391 138 C429 138 463 147 506 169 L522 143 L537 143 L561 256 Z M503 677 C261 677 39 481 39 269 C39 110 172 -10 349 -10 C594 -10 816 185 816 399 C816 559 683 677 503 677 L503 677 Z M495 644 C655 644 775 537 775 393 C775 199 576 23 357 23 C199 23 80 131 80 274 C80 467 279 644 495 644 L495 644 Z " />
<glyph glyph-name="ordfeminine" unicode="&#xaa;" horiz-adv-x="367" d="M338 330 L27 330 L20 297 L331 297 L338 330 Z M334 429 C317 417 317 417 311 417 C305 417 303 420 303 426 C303 433 303 433 316 492 L331 566 C341 610 341 612 341 618 C341 651 307 673 256 673 C192 673 131 636 131 597 C131 582 141 572 157 572 C177 572 195 590 195 609 C195 615 193 620 190 625 C187 628 187 629 187 630 C187 642 218 657 241 657 C263 657 277 647 277 632 L277 631 L276 620 C276 617 274 607 271 593 L261 550 C201 548 163 540 129 519 C99 502 80 472 80 444 C80 413 105 393 141 393 C177 393 215 411 239 440 C239 410 256 393 288 393 C307 393 322 399 343 415 L334 429 Z M253 523 C247 490 239 469 229 456 C214 438 196 428 177 428 C157 428 146 438 146 457 C146 503 185 530 256 533 L253 523 Z " />
<glyph glyph-name="guillemotleft" unicode="&#xab;" horiz-adv-x="421" d="M19 198 L119 94 L189 94 L87 198 L233 304 L168 304 L19 198 Z M145 198 L245 94 L315 94 L213 198 L360 304 L294 304 L145 198 Z " />
<glyph glyph-name="logicalnot" unicode="&#xac;" horiz-adv-x="550" d="M327 0 L442 0 L498 267 L23 267 L12 217 L373 217 L327 0 Z " />
<glyph glyph-name="uni00AD" unicode="&#xad;" horiz-adv-x="213" d="M-21 234 L-35 168 L178 168 L192 234 L-21 234 Z " />
<glyph glyph-name="registered" unicode="&#xae;" horiz-adv-x="854" d="M256 161 L201 161 L197 143 L385 143 L388 161 L326 161 L364 336 C371 337 380 337 381 337 C447 337 468 325 468 289 C468 281 467 271 464 256 C459 230 458 220 458 210 C458 168 489 141 538 141 C555 141 572 144 594 151 L590 167 C572 162 566 161 560 161 C548 161 540 170 540 182 C540 189 541 195 546 217 C551 237 552 247 552 259 C552 301 529 325 475 343 C559 357 608 396 608 450 C608 472 596 490 572 504 C544 520 520 523 430 523 L278 523 L274 505 L329 505 L256 161 Z M368 355 L400 505 L425 505 C506 505 532 492 532 449 C532 424 521 398 504 381 C483 362 456 355 390 355 L368 355 Z M503 677 C261 677 39 481 39 269 C39 110 172 -10 349 -10 C594 -10 816 185 816 399 C816 559 683 677 503 677 L503 677 Z M495 644 C655 644 775 537 775 393 C775 199 576 23 357 23 C199 23 80 131 80 274 C80 467 279 644 495 644 L495 644 Z " />
<glyph glyph-name="macron" unicode="&#xaf;" horiz-adv-x="522" d="M167 544 L160 510 L437 510 L444 544 L167 544 Z " />
<glyph glyph-name="degree" unicode="&#xb0;" horiz-adv-x="400" d="M204 686 C117 686 50 619 50 534 C50 448 116 380 200 380 C284 380 350 447 350 533 C350 619 286 686 204 686 L204 686 Z M202 629 C252 629 293 586 293 533 C293 479 252 437 200 437 C148 437 106 480 106 532 C106 587 148 629 202 629 L202 629 Z " />
<glyph glyph-name="plusminus" unicode="&#xb1;" horiz-adv-x="550" d="M250 306 L212 130 L248 130 L285 306 L493 306 L500 341 L292 341 L330 517 L294 517 L257 341 L53 341 L45 306 L250 306 Z M-13 31 L434 31 L442 66 L-5 66 L-13 31 Z " />
<glyph glyph-name="twosuperior" unicode="&#xb2;" horiz-adv-x="365" d="M320 369 L300 369 C278 312 278 311 229 312 L86 312 C107 327 143 353 194 388 C265 438 280 450 309 477 C345 509 363 541 363 570 C363 619 315 653 247 653 C164 653 96 605 96 546 C96 520 113 503 138 503 C162 503 184 520 184 539 C184 554 170 564 151 564 C146 564 140 563 128 560 C127 559 126 559 124 559 C122 559 120 562 120 566 C120 596 172 630 218 630 C261 630 286 604 286 561 C286 522 270 485 240 456 C210 428 184 408 23 291 L16 258 L292 258 L320 369 Z " />
<glyph glyph-name="threesuperior" unicode="&#xb3;" horiz-adv-x="365" d="M119 458 C182 458 189 457 211 449 C240 439 251 424 251 394 C251 320 206 272 138 272 C110 272 77 286 77 299 C77 300 78 301 81 302 C104 313 114 325 114 340 C114 353 102 363 85 363 C60 363 37 342 37 318 C37 281 82 253 142 253 C243 253 330 315 330 387 C330 432 299 456 225 470 C305 494 348 532 348 580 C348 623 304 652 242 652 C175 652 118 619 118 579 C118 564 130 552 147 552 C167 552 186 568 186 585 C186 594 181 602 174 607 C167 611 167 612 167 613 C167 622 201 634 229 634 C260 634 276 620 276 594 C276 559 259 519 237 501 C215 483 196 479 123 478 L119 458 Z " />
<glyph glyph-name="acute" unicode="&#xb4;" horiz-adv-x="532" d="M380 616 L253 473 L260 463 L456 599 C461 603 463 606 463 610 C463 614 461 616 455 616 L380 616 Z " />
<glyph glyph-name="mu" unicode="&#xb5;" horiz-adv-x="576" d="M442 500 L353 500 L354 131 C318 80 284 58 242 58 C184 58 150 99 150 169 L150 500 L62 500 L62 20 C62 -1 58 -26 51 -56 C34 -118 33 -123 33 -147 C33 -190 54 -219 83 -219 C112 -219 132 -189 132 -146 C132 -124 129 -111 113 -53 C103 -17 101 -8 101 21 L101 33 C143 -2 166 -13 200 -13 C250 -13 301 18 354 80 C362 48 367 36 377 21 C392 0 419 -13 449 -13 C510 -13 553 31 567 108 L540 109 C536 71 515 41 492 41 C462 41 442 77 442 131 L442 500 Z " />
<glyph glyph-name="paragraph" unicode="&#xb6;" horiz-adv-x="550" d="M153 -160 L63 -160 L59 -180 L403 -180 L407 -160 L343 -160 L515 647 L578 647 L582 667 L324 667 C252 667 196 652 153 620 C96 579 60 513 60 449 C60 361 124 308 229 308 L252 308 L153 -160 Z M203 -160 L375 647 L465 647 L293 -160 L203 -160 Z " />
<glyph glyph-name="periodcentered" unicode="&#xb7;" horiz-adv-x="262" d="M116 259 C75 259 36 225 36 189 C36 163 58 142 86 142 C129 142 168 175 168 211 C168 239 146 259 116 259 L116 259 Z " />
<glyph glyph-name="cedilla" unicode="&#xb8;" horiz-adv-x="550" d="M241 0 L206 -60 C248 -74 258 -83 258 -106 C258 -139 230 -161 188 -161 C167 -161 144 -152 144 -144 L144 -143 C144 -142 145 -140 148 -136 C151 -130 153 -125 153 -119 C153 -106 147 -98 137 -98 C124 -98 113 -111 113 -126 C113 -138 124 -156 135 -163 C150 -172 177 -178 204 -178 C269 -178 329 -139 329 -96 C329 -84 319 -70 307 -64 C293 -57 267 -51 251 -51 C247 -51 241 -51 233 -52 L263 0 L241 0 Z " />
<glyph glyph-name="onesuperior" unicode="&#xb9;" horiz-adv-x="365" d="M151 278 L74 278 L70 259 L286 259 L291 278 L221 278 L301 651 L152 644 L148 626 L209 627 L218 627 L220 627 C223 627 224 626 224 624 C224 623 224 623 222 616 L151 278 Z " />
<glyph glyph-name="ordmasculine" unicode="&#xba;" horiz-adv-x="367" d="M338 330 L27 330 L20 297 L331 297 L338 330 Z M256 674 C167 674 83 592 83 504 C83 440 130 393 195 393 C285 393 369 475 369 562 C369 628 322 674 256 674 L256 674 Z M251 653 C284 653 302 639 302 614 C302 599 283 503 274 470 C263 431 240 414 199 414 C168 414 150 429 150 453 C150 468 169 565 178 597 C189 636 211 653 251 653 L251 653 Z " />
<glyph glyph-name="guillemotright" unicode="&#xbb;" horiz-adv-x="421" d="M345 200 L245 304 L175 304 L277 200 L130 94 L196 94 L345 200 Z M218 200 L118 304 L49 304 L150 200 L4 94 L69 94 L218 200 Z " />
<glyph glyph-name="onequarter" unicode="&#xbc;" horiz-adv-x="834" d="M151 278 L74 278 L70 259 L286 259 L291 278 L221 278 L301 651 L152 644 L148 626 L209 627 L218 627 L220 627 C223 627 224 626 224 624 C224 623 224 623 222 616 L151 278 Z M654 647 L173 0 L205 0 L686 647 L654 647 Z M604 102 L587 19 L518 19 L514 0 L721 0 L725 19 L658 19 L675 102 L734 102 L724 58 L746 58 L769 168 L748 168 L738 124 L680 124 L737 392 L694 392 L447 129 L441 102 L604 102 Z M609 124 L471 124 L649 313 L609 124 Z " />
<glyph glyph-name="onehalf" unicode="&#xbd;" horiz-adv-x="834" d="M151 278 L74 278 L70 259 L286 259 L291 278 L221 278 L301 651 L152 644 L148 626 L209 627 L218 627 L220 627 C223 627 224 626 224 624 C224 623 224 623 222 616 L151 278 Z M639 647 L158 0 L190 0 L671 647 L639 647 Z M734 111 L714 111 C692 54 692 53 643 54 L500 54 C518 66 554 92 609 130 C678 179 695 192 724 218 C760 251 778 282 778 311 C778 360 730 394 662 394 C579 394 511 346 511 288 C511 262 528 245 553 245 C577 245 599 262 599 280 C599 295 585 305 565 305 C560 305 559 305 548 303 C540 301 540 301 538 301 C536 301 534 304 534 308 C534 337 587 371 633 371 C675 371 701 345 701 302 C701 264 684 226 654 198 C625 170 594 146 437 33 L430 0 L706 0 L734 111 Z " />
<glyph glyph-name="threequarters" unicode="&#xbe;" horiz-adv-x="834" d="M119 458 C182 458 189 457 211 449 C240 439 251 424 251 394 C251 320 206 272 138 272 C110 272 77 286 77 299 C77 300 78 301 81 302 C104 313 114 325 114 340 C114 353 102 363 85 363 C60 363 37 342 37 318 C37 281 82 253 142 253 C243 253 330 315 330 387 C330 432 299 456 225 470 C305 494 348 532 348 580 C348 623 304 652 242 652 C175 652 118 619 118 579 C118 564 130 552 147 552 C167 552 186 568 186 585 C186 594 181 602 174 607 C167 611 167 612 167 613 C167 622 201 634 229 634 C260 634 276 620 276 594 C276 559 259 519 237 501 C215 483 196 479 123 478 L119 458 Z M662 647 L181 0 L213 0 L694 647 L662 647 Z M605 102 L588 19 L519 19 L514 0 L722 0 L726 19 L659 19 L676 102 L735 102 L725 58 L747 58 L770 168 L749 168 L739 124 L681 124 L738 392 L695 392 L448 129 L442 102 L605 102 Z M610 124 L472 124 L650 313 L610 124 Z " />
<glyph glyph-name="questiondown" unicode="&#xbf;" horiz-adv-x="410" d="M224 207 C222 151 191 114 105 66 C40 29 25 17 -2 -11 C-39 -49 -59 -97 -59 -144 C-59 -220 -2 -270 84 -270 C181 -270 276 -199 276 -126 C276 -100 259 -82 234 -82 C206 -82 181 -106 181 -133 C181 -148 189 -162 199 -167 C219 -177 223 -181 223 -188 C223 -194 216 -203 205 -212 C176 -236 131 -250 83 -250 C23 -250 -21 -220 -21 -177 C-21 -140 6 -107 74 -61 C190 15 232 84 244 215 L224 207 Z M274 414 C230 414 191 381 191 345 C191 317 214 297 244 297 C285 297 324 331 324 367 C324 393 302 414 274 414 L274 414 Z " />
<glyph glyph-name="Agrave" unicode="&#xc0;" horiz-adv-x="645" d="M359 837 L259 837 C246 837 240 833 240 824 C240 819 243 816 252 812 L465 720 L475 732 L359 837 Z M353 215 L384 20 L288 20 L284 0 L582 0 L586 20 L508 20 L409 667 L376 667 L-10 20 L-63 20 L-67 0 L111 0 L115 20 L20 20 L132 215 L353 215 Z M350 235 L144 235 L307 512 L350 235 Z " />
<glyph glyph-name="Aacute" unicode="&#xc1;" horiz-adv-x="645" d="M509 837 L349 732 L353 720 L605 812 C618 817 623 822 623 829 C623 835 620 837 609 837 L509 837 Z M353 215 L384 20 L288 20 L284 0 L582 0 L586 20 L508 20 L409 667 L376 667 L-10 20 L-63 20 L-67 0 L111 0 L115 20 L20 20 L132 215 L353 215 Z M350 235 L144 235 L307 512 L350 235 Z " />
<glyph glyph-name="Acircumflex" unicode="&#xc2;" horiz-adv-x="645" d="M429 843 L239 732 L242 720 L413 769 L564 720 L572 732 L429 843 Z M353 215 L384 20 L288 20 L284 0 L582 0 L586 20 L508 20 L409 667 L376 667 L-10 20 L-63 20 L-67 0 L111 0 L115 20 L20 20 L132 215 L353 215 Z M350 235 L144 235 L307 512 L350 235 Z " />
<glyph glyph-name="Atilde" unicode="&#xc3;" horiz-adv-x="645" d="M583 819 C555 791 545 785 522 785 C506 785 486 789 471 794 L431 809 C408 817 396 820 379 820 C328 820 290 797 253 744 L266 734 C289 760 305 768 335 768 C352 768 365 765 387 758 L426 743 C451 735 462 732 475 732 C516 732 555 757 596 810 L583 819 Z M353 215 L384 20 L288 20 L284 0 L582 0 L586 20 L508 20 L409 667 L376 667 L-10 20 L-63 20 L-67 0 L111 0 L115 20 L20 20 L132 215 L353 215 Z M350 235 L144 235 L307 512 L350 235 Z " />
<glyph glyph-name="Adieresis" unicode="&#xc4;" horiz-adv-x="645" d="M311 830 C279 830 247 799 247 768 C247 744 264 727 289 727 C322 727 353 757 353 790 C353 813 335 830 311 830 L311 830 Z M542 830 C510 830 478 799 478 768 C478 744 495 727 520 727 C553 727 584 757 584 790 C584 813 566 830 542 830 L542 830 Z M353 215 L384 20 L288 20 L284 0 L582 0 L586 20 L508 20 L409 667 L376 667 L-10 20 L-63 20 L-67 0 L111 0 L115 20 L20 20 L132 215 L353 215 Z M350 235 L144 235 L307 512 L350 235 Z " />
<glyph glyph-name="Aring" unicode="&#xc5;" horiz-adv-x="645" d="M434 859 C384 859 339 815 339 766 C339 731 364 707 400 707 C450 707 494 750 494 800 C494 834 468 859 434 859 L434 859 Z M427 831 C448 831 464 814 464 793 C464 764 435 735 405 735 C385 735 369 752 369 773 C369 802 398 831 427 831 L427 831 Z M353 215 L384 20 L288 20 L284 0 L582 0 L586 20 L508 20 L409 667 L376 667 L-10 20 L-63 20 L-67 0 L111 0 L115 20 L20 20 L132 215 L353 215 Z M350 235 L144 235 L307 512 L350 235 Z " />
<glyph glyph-name="AE" unicode="&#xc6;" horiz-adv-x="939" d="M397 209 L356 20 L265 20 L260 0 L807 0 L872 208 L857 208 C776 50 727 13 612 20 L463 20 L528 327 C548 328 555 328 568 328 C649 328 677 310 677 258 C677 245 676 234 671 196 L686 196 L745 471 L729 471 C704 362 678 345 533 347 L596 647 L686 647 C838 652 879 618 885 484 L899 484 L931 667 L358 667 L354 647 L463 647 L-5 20 L-90 20 L-94 0 L131 0 L135 20 L26 20 L167 209 L397 209 Z M401 229 L179 229 L488 640 L401 229 Z " />
<glyph glyph-name="Ccedilla" unicode="&#xc7;" horiz-adv-x="643" d="M291 -10 C354 -8 418 12 480 48 L508 0 L524 0 L564 189 L548 189 C476 71 391 13 290 13 C195 13 141 57 141 133 C141 179 156 267 181 368 C214 502 235 554 271 591 C312 632 370 654 435 654 C541 654 605 595 612 491 L628 491 L666 667 L649 667 L602 620 C557 657 501 677 442 677 C360 677 264 638 191 574 C94 491 37 372 37 254 C37 161 75 83 142 35 C179 9 213 -3 269 -10 L240 -61 C282 -75 293 -85 293 -109 C293 -142 264 -165 221 -165 C199 -165 176 -156 176 -146 C176 -145 177 -143 180 -139 C184 -133 185 -128 185 -121 C185 -108 179 -100 169 -100 C155 -100 144 -113 144 -129 C144 -140 155 -158 167 -166 C182 -175 208 -181 237 -181 C303 -181 365 -141 365 -98 C365 -72 330 -52 285 -52 C281 -52 275 -52 267 -53 L291 -10 Z " />
<glyph glyph-name="Egrave" unicode="&#xc8;" horiz-adv-x="642" d="M413 837 L312 837 C300 837 294 833 294 824 C294 819 297 816 306 812 L518 720 L528 732 L413 837 Z M60 20 L-32 20 L-36 0 L510 0 L575 208 L561 208 C480 50 431 13 315 20 L167 20 L232 328 L272 328 C353 328 381 310 381 258 C381 245 380 235 374 196 L390 196 L448 471 L433 471 C408 362 382 346 236 347 L300 647 L390 647 C541 652 583 618 588 484 L603 484 L634 667 L106 667 L101 647 L193 647 L60 20 Z " />
<glyph glyph-name="Eacute" unicode="&#xc9;" horiz-adv-x="642" d="M516 837 L356 732 L361 720 L612 812 C625 817 630 822 630 829 C630 835 627 837 617 837 L516 837 Z M60 20 L-32 20 L-36 0 L510 0 L575 208 L561 208 C480 50 431 13 315 20 L167 20 L232 328 L272 328 C353 328 381 310 381 258 C381 245 380 235 374 196 L390 196 L448 471 L433 471 C408 362 382 346 236 347 L300 647 L390 647 C541 652 583 618 588 484 L603 484 L634 667 L106 667 L101 647 L193 647 L60 20 Z " />
<glyph glyph-name="Ecircumflex" unicode="&#xca;" horiz-adv-x="642" d="M449 843 L259 732 L262 720 L434 769 L584 720 L592 732 L449 843 Z M60 20 L-32 20 L-36 0 L510 0 L575 208 L561 208 C480 50 431 13 315 20 L167 20 L232 328 L272 328 C353 328 381 310 381 258 C381 245 380 235 374 196 L390 196 L448 471 L433 471 C408 362 382 346 236 347 L300 647 L390 647 C541 652 583 618 588 484 L603 484 L634 667 L106 667 L101 647 L193 647 L60 20 Z " />
<glyph glyph-name="Edieresis" unicode="&#xcb;" horiz-adv-x="642" d="M329 830 C297 830 265 799 265 768 C265 744 283 727 308 727 C341 727 372 757 372 790 C372 813 354 830 329 830 L329 830 Z M560 830 C528 830 496 799 496 768 C496 744 514 727 539 727 C572 727 603 757 603 790 C603 813 585 830 560 830 L560 830 Z M60 20 L-32 20 L-36 0 L510 0 L575 208 L561 208 C480 50 431 13 315 20 L167 20 L232 328 L272 328 C353 328 381 310 381 258 C381 245 380 235 374 196 L390 196 L448 471 L433 471 C408 362 382 346 236 347 L300 647 L390 647 C541 652 583 618 588 484 L603 484 L634 667 L106 667 L101 647 L193 647 L60 20 Z " />
<glyph glyph-name="Igrave" unicode="&#xcc;" horiz-adv-x="360" d="M60 20 L-32 20 L-36 0 L254 0 L258 20 L167 20 L300 647 L391 647 L396 667 L106 667 L101 647 L193 647 L60 20 Z M218 837 L118 837 C106 837 100 833 100 824 C100 819 103 816 112 812 L324 720 L334 732 L218 837 Z " />
<glyph glyph-name="Iacute" unicode="&#xcd;" horiz-adv-x="360" d="M60 20 L-32 20 L-36 0 L254 0 L258 20 L167 20 L300 647 L391 647 L396 667 L106 667 L101 647 L193 647 L60 20 Z M379 837 L218 732 L223 720 L475 812 C488 817 493 822 493 829 C493 835 490 837 479 837 L379 837 Z " />
<glyph glyph-name="Icircumflex" unicode="&#xce;" horiz-adv-x="360" d="M60 20 L-32 20 L-36 0 L254 0 L258 20 L167 20 L300 647 L391 647 L396 667 L106 667 L101 647 L193 647 L60 20 Z M288 843 L98 732 L101 720 L272 769 L423 720 L431 732 L288 843 Z " />
<glyph glyph-name="Idieresis" unicode="&#xcf;" horiz-adv-x="360" d="M60 20 L-32 20 L-36 0 L254 0 L258 20 L167 20 L300 647 L391 647 L396 667 L106 667 L101 647 L193 647 L60 20 Z M193 830 C161 830 129 799 129 768 C129 744 146 727 171 727 C205 727 235 757 235 790 C235 813 217 830 193 830 L193 830 Z M378 830 C346 830 314 799 314 768 C314 744 331 727 356 727 C389 727 420 757 420 790 C420 813 402 830 378 830 L378 830 Z " />
<glyph glyph-name="Eth" unicode="&#xd0;" horiz-adv-x="743" d="M128 331 L62 20 L-32 20 L-36 0 L217 0 C296 0 344 3 377 10 C434 22 489 49 541 91 C646 174 706 292 706 413 C706 487 677 552 623 602 C565 654 512 667 348 667 L106 667 L101 647 L195 647 L132 351 L39 351 L34 331 L128 331 Z M234 331 L394 331 L398 351 L239 351 L302 647 L346 647 C442 647 463 645 503 634 C565 616 596 575 596 509 C596 458 580 367 554 265 C520 131 492 87 422 51 C372 25 338 20 220 20 L168 20 L234 331 Z " />
<glyph glyph-name="Ntilde" unicode="&#xd1;" horiz-adv-x="735" d="M633 819 C606 791 596 785 573 785 C557 785 537 789 522 794 L481 809 C459 817 446 820 430 820 C378 820 341 797 304 744 L317 734 C340 760 356 768 386 768 C402 768 416 765 437 758 L477 743 C502 735 513 732 526 732 C567 732 606 757 647 810 L633 819 Z M53 20 L-39 20 L-43 0 L166 0 L170 20 L76 20 L205 628 L525 0 L549 0 L686 647 L778 647 L782 667 L573 667 L569 647 L663 647 L567 196 C542 252 534 269 480 374 L329 667 L99 667 L94 647 L186 647 L53 20 Z " />
<glyph glyph-name="Ograve" unicode="&#xd2;" horiz-adv-x="730" d="M422 837 L321 837 C308 837 303 833 303 824 C303 819 306 816 315 812 L527 720 L537 732 L422 837 Z M440 677 C239 677 39 471 39 264 C39 105 145 -10 289 -10 C393 -10 494 39 574 127 C650 210 692 310 692 403 C692 563 587 677 440 677 L440 677 Z M434 654 C532 654 586 607 586 520 C586 477 574 400 552 305 C520 164 498 110 457 72 C417 34 359 13 296 13 C249 13 205 28 179 53 C156 75 146 105 146 147 C146 189 158 268 180 362 C212 502 234 557 275 595 C315 633 373 654 434 654 L434 654 Z " />
<glyph glyph-name="Oacute" unicode="&#xd3;" horiz-adv-x="730" d="M563 837 L403 732 L407 720 L659 812 C672 817 677 822 677 829 C677 835 674 837 663 837 L563 837 Z M440 677 C239 677 39 471 39 264 C39 105 145 -10 289 -10 C393 -10 494 39 574 127 C650 210 692 310 692 403 C692 563 587 677 440 677 L440 677 Z M434 654 C532 654 586 607 586 520 C586 477 574 400 552 305 C520 164 498 110 457 72 C417 34 359 13 296 13 C249 13 205 28 179 53 C156 75 146 105 146 147 C146 189 158 268 180 362 C212 502 234 557 275 595 C315 633 373 654 434 654 L434 654 Z " />
<glyph glyph-name="Ocircumflex" unicode="&#xd4;" horiz-adv-x="730" d="M474 843 L284 732 L287 720 L458 769 L609 720 L617 732 L474 843 Z M440 677 C239 677 39 471 39 264 C39 105 145 -10 289 -10 C393 -10 494 39 574 127 C650 210 692 310 692 403 C692 563 587 677 440 677 L440 677 Z M434 654 C532 654 586 607 586 520 C586 477 574 400 552 305 C520 164 498 110 457 72 C417 34 359 13 296 13 C249 13 205 28 179 53 C156 75 146 105 146 147 C146 189 158 268 180 362 C212 502 234 557 275 595 C315 633 373 654 434 654 L434 654 Z " />
<glyph glyph-name="Otilde" unicode="&#xd5;" horiz-adv-x="730" d="M625 819 C598 791 588 785 565 785 C549 785 528 789 514 794 L473 809 C451 817 438 820 422 820 C370 820 333 797 296 744 L309 734 C332 760 348 768 378 768 C394 768 408 765 429 758 L469 743 C494 735 504 732 518 732 C559 732 598 757 638 810 L625 819 Z M440 677 C239 677 39 471 39 264 C39 105 145 -10 289 -10 C393 -10 494 39 574 127 C650 210 692 310 692 403 C692 563 587 677 440 677 L440 677 Z M434 654 C532 654 586 607 586 520 C586 477 574 400 552 305 C520 164 498 110 457 72 C417 34 359 13 296 13 C249 13 205 28 179 53 C156 75 146 105 146 147 C146 189 158 268 180 362 C212 502 234 557 275 595 C315 633 373 654 434 654 L434 654 Z " />
<glyph glyph-name="Odieresis" unicode="&#xd6;" horiz-adv-x="730" d="M355 830 C323 830 291 799 291 768 C291 744 309 727 334 727 C367 727 398 757 398 790 C398 813 380 830 355 830 L355 830 Z M586 830 C554 830 522 799 522 768 C522 744 540 727 565 727 C598 727 629 757 629 790 C629 813 611 830 586 830 L586 830 Z M440 677 C239 677 39 471 39 264 C39 105 145 -10 289 -10 C393 -10 494 39 574 127 C650 210 692 310 692 403 C692 563 587 677 440 677 L440 677 Z M434 654 C532 654 586 607 586 520 C586 477 574 400 552 305 C520 164 498 110 457 72 C417 34 359 13 296 13 C249 13 205 28 179 53 C156 75 146 105 146 147 C146 189 158 268 180 362 C212 502 234 557 275 595 C315 633 373 654 434 654 L434 654 Z " />
<glyph glyph-name="multiply" unicode="&#xd7;" horiz-adv-x="550" d="M268 298 L397 153 L430 178 L301 323 L492 469 L470 494 L279 348 L150 494 L117 469 L246 323 L55 178 L77 153 L268 298 Z " />
<glyph glyph-name="Oslash" unicode="&#xd8;" horiz-adv-x="730" d="M33 -2 L49 -14 L118 59 C164 13 223 -10 290 -10 C392 -10 494 39 574 127 C650 210 692 309 692 404 C692 475 669 543 628 592 L696 663 L680 675 L615 607 C572 652 509 677 441 677 C339 677 237 628 157 540 C82 457 39 357 39 264 C39 194 65 117 105 73 L33 -2 Z M148 118 C146 129 146 136 146 148 C146 190 158 268 180 362 C211 502 234 557 275 595 C315 633 373 654 434 654 C508 654 563 622 579 570 L148 118 Z M584 546 C586 536 586 530 586 520 C586 478 574 399 552 305 C521 165 498 110 457 72 C417 35 359 13 297 13 C225 13 169 44 153 95 L584 546 Z " />
<glyph glyph-name="Ugrave" unicode="&#xd9;" horiz-adv-x="706" d="M441 837 L341 837 C327 837 322 833 322 824 C322 819 325 816 334 812 L547 720 L557 732 L441 837 Z M636 647 L554 265 C531 155 523 132 495 94 C456 41 397 13 323 13 C234 13 179 55 179 124 C179 144 185 178 203 265 L285 647 L387 647 L391 667 L91 667 L86 647 L178 647 L97 265 C85 208 77 158 77 136 C77 46 162 -10 298 -10 C382 -10 450 15 495 61 C538 105 551 137 578 265 L659 647 L753 647 L757 667 L548 667 L544 647 L636 647 Z " />
<glyph glyph-name="Uacute" unicode="&#xda;" horiz-adv-x="706" d="M576 837 L416 732 L421 720 L673 812 C686 817 691 822 691 829 C691 835 688 837 677 837 L576 837 Z M636 647 L554 265 C531 155 523 132 495 94 C456 41 397 13 323 13 C234 13 179 55 179 124 C179 144 185 178 203 265 L285 647 L387 647 L391 667 L91 667 L86 647 L178 647 L97 265 C85 208 77 158 77 136 C77 46 162 -10 298 -10 C382 -10 450 15 495 61 C538 105 551 137 578 265 L659 647 L753 647 L757 667 L548 667 L544 647 L636 647 Z " />
<glyph glyph-name="Ucircumflex" unicode="&#xdb;" horiz-adv-x="706" d="M500 843 L309 732 L313 720 L484 769 L634 720 L643 732 L500 843 Z M636 647 L554 265 C531 155 523 132 495 94 C456 41 397 13 323 13 C234 13 179 55 179 124 C179 144 185 178 203 265 L285 647 L387 647 L391 667 L91 667 L86 647 L178 647 L97 265 C85 208 77 158 77 136 C77 46 162 -10 298 -10 C382 -10 450 15 495 61 C538 105 551 137 578 265 L659 647 L753 647 L757 667 L548 667 L544 647 L636 647 Z " />
<glyph glyph-name="Udieresis" unicode="&#xdc;" horiz-adv-x="706" d="M373 830 C341 830 309 799 309 768 C309 744 326 727 351 727 C385 727 415 757 415 790 C415 813 397 830 373 830 L373 830 Z M604 830 C572 830 540 799 540 768 C540 744 557 727 582 727 C616 727 646 757 646 790 C646 813 628 830 604 830 L604 830 Z M636 647 L554 265 C531 155 523 132 495 94 C456 41 397 13 323 13 C234 13 179 55 179 124 C179 144 185 178 203 265 L285 647 L387 647 L391 667 L91 667 L86 647 L178 647 L97 265 C85 208 77 158 77 136 C77 46 162 -10 298 -10 C382 -10 450 15 495 61 C538 105 551 137 578 265 L659 647 L753 647 L757 667 L548 667 L544 647 L636 647 Z " />
<glyph glyph-name="Yacute" unicode="&#xdd;" horiz-adv-x="636" d="M534 837 L374 732 L379 720 L631 812 C644 817 649 822 649 829 C649 835 646 837 635 837 L534 837 Z M193 20 L90 20 L86 0 L398 0 L402 20 L299 20 L362 316 C371 325 372 326 377 334 C380 337 383 340 385 344 C392 352 397 358 401 363 L421 384 L633 647 L710 647 L714 667 L499 667 L495 647 L604 647 L360 356 C360 363 357 372 353 384 L247 647 L341 647 L345 667 L60 667 L56 647 L112 647 L255 316 L193 20 Z " />
<glyph glyph-name="Thorn" unicode="&#xde;" horiz-adv-x="643" d="M60 20 L-32 20 L-36 0 L265 0 L269 20 L167 20 L206 203 L289 203 C426 203 492 220 556 273 C601 309 626 357 626 407 C626 466 585 513 513 535 C480 545 447 548 360 548 L279 548 L300 647 L402 647 L406 667 L106 667 L101 647 L193 647 L60 20 Z M210 223 L275 528 L357 528 C476 528 511 509 511 444 C511 398 494 328 475 295 C443 239 404 223 294 223 L210 223 Z " />
<glyph glyph-name="germandbls" unicode="&#xdf;" horiz-adv-x="543" d="M26 20 L-48 20 L-52 0 L172 0 L176 20 L116 20 L155 208 C170 277 187 310 222 337 C250 358 297 374 335 374 C371 374 393 357 393 330 C393 280 343 244 272 244 C270 244 263 244 255 245 L251 225 C304 224 316 223 332 216 C357 206 372 179 372 141 C372 107 356 61 335 36 C324 22 304 13 286 13 C270 13 256 20 256 29 C256 34 258 36 265 41 C281 51 292 68 292 83 C292 102 278 115 257 115 C226 115 201 90 201 58 C201 18 238 -10 291 -10 C378 -10 462 60 462 132 C462 190 411 228 325 233 C423 238 486 278 486 334 C486 378 445 403 373 403 C292 403 219 375 182 330 L201 423 C223 527 242 575 275 615 C296 640 330 657 359 657 C373 657 382 651 382 641 C382 637 380 633 374 627 C358 610 353 602 353 590 C353 574 369 562 391 562 C424 562 452 588 452 619 C452 653 417 677 367 677 C303 677 226 634 176 570 C139 522 125 488 103 384 L26 20 Z " />
<glyph glyph-name="agrave" unicode="&#xe0;" horiz-adv-x="487" d="M284 616 L209 616 C202 616 198 612 198 606 C198 604 199 601 201 599 L339 463 L350 473 L284 616 Z M391 35 C368 20 365 19 352 19 C341 19 336 25 336 36 C336 47 336 47 355 135 L378 245 C389 295 392 313 392 322 C392 370 339 402 258 402 C192 402 133 382 95 348 C74 329 64 311 64 294 C64 273 80 259 105 259 C134 259 161 283 161 307 C161 316 156 323 145 333 C141 337 139 339 139 342 C139 361 194 386 238 386 C282 386 306 370 306 342 C306 331 304 321 297 286 L282 217 C178 215 118 203 61 172 C14 147 -15 106 -15 65 C-15 19 25 -10 87 -10 C148 -10 207 18 251 68 C250 62 250 58 250 52 C250 15 278 -10 322 -10 C350 -10 372 -1 401 20 L391 35 Z M274 180 C263 127 252 99 233 79 C207 49 175 34 138 34 C100 34 78 52 78 83 C78 116 96 145 128 165 C166 189 201 197 279 200 L274 180 Z " />
<glyph glyph-name="aacute" unicode="&#xe1;" horiz-adv-x="487" d="M372 616 L245 473 L252 463 L447 599 C452 602 454 606 454 610 C454 614 452 616 447 616 L372 616 Z M391 35 C368 20 365 19 352 19 C341 19 336 25 336 36 C336 47 336 47 355 135 L378 245 C389 295 392 313 392 322 C392 370 339 402 258 402 C192 402 133 382 95 348 C74 329 64 311 64 294 C64 273 80 259 105 259 C134 259 161 283 161 307 C161 316 156 323 145 333 C141 337 139 339 139 342 C139 361 194 386 238 386 C282 386 306 370 306 342 C306 331 304 321 297 286 L282 217 C178 215 118 203 61 172 C14 147 -15 106 -15 65 C-15 19 25 -10 87 -10 C148 -10 207 18 251 68 C250 62 250 58 250 52 C250 15 278 -10 322 -10 C350 -10 372 -1 401 20 L391 35 Z M274 180 C263 127 252 99 233 79 C207 49 175 34 138 34 C100 34 78 52 78 83 C78 116 96 145 128 165 C166 189 201 197 279 200 L274 180 Z " />
<glyph glyph-name="acircumflex" unicode="&#xe2;" horiz-adv-x="487" d="M296 536 L416 463 L426 473 L313 620 L139 474 L145 464 L296 536 Z M391 35 C368 20 365 19 352 19 C341 19 336 25 336 36 C336 47 336 47 355 135 L378 245 C389 295 392 313 392 322 C392 370 339 402 258 402 C192 402 133 382 95 348 C74 329 64 311 64 294 C64 273 80 259 105 259 C134 259 161 283 161 307 C161 316 156 323 145 333 C141 337 139 339 139 342 C139 361 194 386 238 386 C282 386 306 370 306 342 C306 331 304 321 297 286 L282 217 C178 215 118 203 61 172 C14 147 -15 106 -15 65 C-15 19 25 -10 87 -10 C148 -10 207 18 251 68 C250 62 250 58 250 52 C250 15 278 -10 322 -10 C350 -10 372 -1 401 20 L391 35 Z M274 180 C263 127 252 99 233 79 C207 49 175 34 138 34 C100 34 78 52 78 83 C78 116 96 145 128 165 C166 189 201 197 279 200 L274 180 Z " />
<glyph glyph-name="atilde" unicode="&#xe3;" horiz-adv-x="487" d="M445 580 C420 552 412 548 390 548 C375 548 359 551 345 556 L304 571 C279 580 270 582 251 582 C207 582 181 564 143 506 L154 498 C175 524 186 530 210 530 C225 530 242 527 260 520 L300 507 C319 500 338 496 353 496 C387 496 417 518 456 572 L445 580 Z M391 35 C368 20 365 19 352 19 C341 19 336 25 336 36 C336 47 336 47 355 135 L378 245 C389 295 392 313 392 322 C392 370 339 402 258 402 C192 402 133 382 95 348 C74 329 64 311 64 294 C64 273 80 259 105 259 C134 259 161 283 161 307 C161 316 156 323 145 333 C141 337 139 339 139 342 C139 361 194 386 238 386 C282 386 306 370 306 342 C306 331 304 321 297 286 L282 217 C178 215 118 203 61 172 C14 147 -15 106 -15 65 C-15 19 25 -10 87 -10 C148 -10 207 18 251 68 C250 62 250 58 250 52 C250 15 278 -10 322 -10 C350 -10 372 -1 401 20 L391 35 Z M274 180 C263 127 252 99 233 79 C207 49 175 34 138 34 C100 34 78 52 78 83 C78 116 96 145 128 165 C166 189 201 197 279 200 L274 180 Z " />
<glyph glyph-name="adieresis" unicode="&#xe4;" horiz-adv-x="487" d="M209 591 C176 591 145 562 145 530 C145 506 162 490 186 490 C220 490 250 518 250 551 C250 574 232 591 209 591 L209 591 Z M410 591 C377 591 347 562 347 531 C347 506 364 490 389 490 C424 490 452 518 452 551 C452 574 434 591 410 591 L410 591 Z M391 35 C368 20 365 19 352 19 C341 19 336 25 336 36 C336 47 336 47 355 135 L378 245 C389 295 392 313 392 322 C392 370 339 402 258 402 C192 402 133 382 95 348 C74 329 64 311 64 294 C64 273 80 259 105 259 C134 259 161 283 161 307 C161 316 156 323 145 333 C141 337 139 339 139 342 C139 361 194 386 238 386 C282 386 306 370 306 342 C306 331 304 321 297 286 L282 217 C178 215 118 203 61 172 C14 147 -15 106 -15 65 C-15 19 25 -10 87 -10 C148 -10 207 18 251 68 C250 62 250 58 250 52 C250 15 278 -10 322 -10 C350 -10 372 -1 401 20 L391 35 Z M274 180 C263 127 252 99 233 79 C207 49 175 34 138 34 C100 34 78 52 78 83 C78 116 96 145 128 165 C166 189 201 197 279 200 L274 180 Z " />
<glyph glyph-name="aring" unicode="&#xe5;" horiz-adv-x="487" d="M320 615 C270 615 225 571 225 522 C225 487 250 463 286 463 C336 463 380 506 380 556 C380 590 354 615 320 615 L320 615 Z M313 587 C334 587 350 570 350 549 C350 520 321 491 291 491 C271 491 255 508 255 529 C255 558 284 587 313 587 L313 587 Z M391 35 C368 20 365 19 352 19 C341 19 336 25 336 36 C336 47 336 47 355 135 L378 245 C389 295 392 313 392 322 C392 370 339 402 258 402 C192 402 133 382 95 348 C74 329 64 311 64 294 C64 273 80 259 105 259 C134 259 161 283 161 307 C161 316 156 323 145 333 C141 337 139 339 139 342 C139 361 194 386 238 386 C282 386 306 370 306 342 C306 331 304 321 297 286 L282 217 C178 215 118 203 61 172 C14 147 -15 106 -15 65 C-15 19 25 -10 87 -10 C148 -10 207 18 251 68 C250 62 250 58 250 52 C250 15 278 -10 322 -10 C350 -10 372 -1 401 20 L391 35 Z M274 180 C263 127 252 99 233 79 C207 49 175 34 138 34 C100 34 78 52 78 83 C78 116 96 145 128 165 C166 189 201 197 279 200 L274 180 Z " />
<glyph glyph-name="ae" unicode="&#xe6;" horiz-adv-x="689" d="M638 228 C639 242 639 249 639 257 C639 348 580 403 482 403 C433 403 403 392 361 359 C333 390 300 403 249 403 C156 403 61 346 61 290 C61 271 77 257 97 257 C126 257 153 281 153 307 C153 314 150 321 140 334 C137 338 136 340 136 343 C136 359 187 379 229 379 C260 379 280 364 280 342 C280 327 270 274 257 218 C101 217 -15 151 -15 63 C-15 19 21 -10 78 -10 C116 -10 156 1 187 20 C211 35 224 49 250 87 C278 26 337 -10 407 -10 C491 -10 568 45 609 133 L584 133 C563 97 551 80 531 63 C497 32 454 13 417 13 C365 13 334 42 334 89 C334 106 337 127 342 153 C345 169 349 186 352 203 C353 206 355 215 357 228 L638 228 Z M361 248 C364 261 366 269 368 280 C378 327 385 343 405 357 C424 371 450 379 475 379 C515 379 538 360 538 326 C538 313 534 287 526 248 L361 248 Z M253 200 C243 144 231 103 219 83 C202 54 171 35 141 35 C115 35 95 54 95 80 C95 148 152 191 253 200 L253 200 Z " />
<glyph glyph-name="ccedilla" unicode="&#xe7;" horiz-adv-x="448" d="M176 -10 C262 -10 333 37 386 127 L359 127 C314 52 253 13 182 13 C131 13 98 39 98 80 C98 118 114 193 137 270 C161 347 202 380 274 380 C311 380 350 365 350 351 C350 347 348 345 343 342 C318 326 303 304 303 286 C303 263 319 248 343 248 C380 248 409 277 409 313 C409 364 350 403 275 403 C138 403 5 280 5 154 C5 70 67 3 155 -9 L125 -60 C167 -74 177 -83 177 -107 C177 -138 149 -161 109 -161 C86 -161 63 -152 63 -144 L63 -143 C63 -141 64 -140 67 -136 C70 -131 72 -125 72 -119 C72 -106 66 -98 56 -98 C43 -98 33 -110 33 -126 C33 -158 67 -178 123 -178 C188 -178 247 -140 247 -97 C247 -70 215 -52 169 -52 L152 -52 L176 -10 Z " />
<glyph glyph-name="egrave" unicode="&#xe8;" horiz-adv-x="468" d="M279 616 L204 616 C197 616 193 612 193 606 C193 604 194 602 196 599 L334 463 L345 473 L279 616 Z M416 229 C418 246 419 255 419 265 C419 346 354 403 259 403 C133 403 5 279 5 158 C5 64 81 -10 178 -10 C266 -10 352 48 387 132 L361 132 C323 58 257 13 183 13 C135 13 104 39 104 80 C104 102 105 108 131 229 L416 229 Z M135 249 C151 324 151 324 167 344 C186 367 217 380 254 380 C296 380 318 361 318 325 C318 311 317 302 306 249 L135 249 Z " />
<glyph glyph-name="eacute" unicode="&#xe9;" horiz-adv-x="467" d="M379 616 L252 473 L259 463 L455 599 C460 603 462 606 462 610 C462 614 460 616 454 616 L379 616 Z M416 229 C418 246 419 255 419 265 C419 346 354 403 259 403 C133 403 5 279 5 158 C5 64 81 -10 178 -10 C266 -10 352 48 387 132 L361 132 C323 58 257 13 183 13 C135 13 104 39 104 80 C104 102 105 108 131 229 L416 229 Z M135 249 C151 324 151 324 167 344 C186 367 217 380 254 380 C296 380 318 361 318 325 C318 311 317 302 306 249 L135 249 Z " />
<glyph glyph-name="ecircumflex" unicode="&#xea;" horiz-adv-x="468" d="M297 536 L417 463 L427 473 L315 620 L140 474 L146 464 L297 536 Z M416 229 C418 246 419 255 419 265 C419 346 354 403 259 403 C133 403 5 279 5 158 C5 64 81 -10 178 -10 C266 -10 352 48 387 132 L361 132 C323 58 257 13 183 13 C135 13 104 39 104 80 C104 102 105 108 131 229 L416 229 Z M135 249 C151 324 151 324 167 344 C186 367 217 380 254 380 C296 380 318 361 318 325 C318 311 317 302 306 249 L135 249 Z " />
<glyph glyph-name="edieresis" unicode="&#xeb;" horiz-adv-x="467" d="M202 591 C169 591 138 562 138 530 C138 506 155 490 179 490 C213 490 243 518 243 551 C243 574 226 591 202 591 L202 591 Z M403 591 C370 591 340 562 340 531 C340 506 357 490 382 490 C417 490 445 518 445 551 C445 574 427 591 403 591 L403 591 Z M416 229 C418 246 419 255 419 265 C419 346 354 403 259 403 C133 403 5 279 5 158 C5 64 81 -10 178 -10 C266 -10 352 48 387 132 L361 132 C323 58 257 13 183 13 C135 13 104 39 104 80 C104 102 105 108 131 229 L416 229 Z M135 249 C151 324 151 324 167 344 C186 367 217 380 254 380 C296 380 318 361 318 325 C318 311 317 302 306 249 L135 249 Z " />
<glyph glyph-name="igrave" unicode="&#xec;" horiz-adv-x="297" d="M49 20 L-34 20 L-38 0 L208 0 L212 20 L139 20 L218 393 L46 393 L41 373 L124 373 L49 20 Z M177 616 L102 616 C95 616 91 612 91 606 C91 604 92 602 95 599 L232 463 L243 473 L177 616 Z " />
<glyph glyph-name="iacute" unicode="&#xed;" horiz-adv-x="297" d="M49 20 L-34 20 L-38 0 L208 0 L212 20 L139 20 L218 393 L46 393 L41 373 L124 373 L49 20 Z M284 616 L157 473 L164 463 L359 599 C364 602 366 606 366 610 C366 614 364 616 359 616 L284 616 Z " />
<glyph glyph-name="icircumflex" unicode="&#xee;" horiz-adv-x="297" d="M49 20 L-34 20 L-38 0 L208 0 L212 20 L139 20 L218 393 L46 393 L41 373 L124 373 L49 20 Z M202 536 L322 463 L332 473 L220 620 L45 474 L51 464 L202 536 Z " />
<glyph glyph-name="idieresis" unicode="&#xef;" horiz-adv-x="297" d="M49 20 L-34 20 L-38 0 L208 0 L212 20 L139 20 L218 393 L46 393 L41 373 L124 373 L49 20 Z M133 591 C101 591 70 561 70 530 C70 506 87 490 111 490 C144 490 174 518 174 550 C174 573 156 591 133 591 L133 591 Z M298 591 C265 591 235 562 235 531 C235 506 252 490 277 490 C312 490 340 518 340 551 C340 574 322 591 298 591 L298 591 Z " />
<glyph glyph-name="eth" unicode="&#xf0;" horiz-adv-x="522" d="M209 541 L217 524 L313 578 C346 514 358 465 360 388 C325 399 305 403 275 403 C136 403 5 284 5 159 C5 60 81 -10 188 -10 C344 -10 464 116 464 280 C464 387 429 478 343 594 L440 649 L431 665 L332 610 C308 639 278 669 247 695 L233 682 C262 650 273 637 303 595 L209 541 Z M271 380 C333 380 368 357 368 315 C368 290 367 285 331 121 C315 44 274 13 191 13 C131 13 96 37 96 78 C96 102 97 109 133 272 C149 348 190 380 271 380 L271 380 Z " />
<glyph glyph-name="ntilde" unicode="&#xf1;" horiz-adv-x="579" d="M492 580 C466 552 459 548 436 548 C422 548 406 551 391 556 L351 571 C327 580 316 582 300 582 C254 582 228 564 190 506 L201 498 C222 524 233 530 256 530 C272 530 288 527 307 520 L346 507 C365 500 385 496 399 496 C434 496 464 518 503 572 L492 580 Z M40 20 L-34 20 L-38 0 L200 0 L205 20 L130 20 L155 139 C181 261 197 305 227 333 C251 357 292 373 325 373 C364 373 387 352 387 316 C387 294 381 259 363 174 L330 20 L255 20 L251 0 L489 0 L494 20 L420 20 L468 242 C475 279 479 302 479 315 C479 368 430 403 354 403 C294 403 245 384 198 341 L209 393 L46 393 L41 373 L115 373 L40 20 Z " />
<glyph glyph-name="ograve" unicode="&#xf2;" horiz-adv-x="522" d="M291 616 L215 616 C209 616 205 612 205 606 C205 604 206 601 208 599 L346 463 L357 473 L291 616 Z M276 403 C136 403 5 284 5 157 C5 61 82 -10 185 -10 C328 -10 459 108 459 236 C459 333 383 403 276 403 L276 403 Z M271 380 C333 380 368 357 368 315 C368 291 367 285 331 121 C314 44 274 13 191 13 C131 13 96 37 96 78 C96 103 97 109 133 272 C149 348 190 380 271 380 L271 380 Z " />
<glyph glyph-name="oacute" unicode="&#xf3;" horiz-adv-x="522" d="M402 616 L275 473 L282 463 L478 599 C483 603 485 606 485 610 C485 614 483 616 478 616 L402 616 Z M276 403 C136 403 5 284 5 157 C5 61 82 -10 185 -10 C328 -10 459 108 459 236 C459 333 383 403 276 403 L276 403 Z M271 380 C333 380 368 357 368 315 C368 291 367 285 331 121 C314 44 274 13 191 13 C131 13 96 37 96 78 C96 103 97 109 133 272 C149 348 190 380 271 380 L271 380 Z " />
<glyph glyph-name="ocircumflex" unicode="&#xf4;" horiz-adv-x="522" d="M310 536 L430 463 L440 473 L328 620 L154 474 L160 464 L310 536 Z M276 403 C136 403 5 284 5 157 C5 61 82 -10 185 -10 C328 -10 459 108 459 236 C459 333 383 403 276 403 L276 403 Z M271 380 C333 380 368 357 368 315 C368 291 367 285 331 121 C314 44 274 13 191 13 C131 13 96 37 96 78 C96 103 97 109 133 272 C149 348 190 380 271 380 L271 380 Z " />
<glyph glyph-name="otilde" unicode="&#xf5;" horiz-adv-x="522" d="M457 580 C432 552 424 548 402 548 C387 548 371 551 357 556 L316 571 C293 580 281 582 266 582 C219 582 193 564 156 506 L167 498 C187 524 198 530 222 530 C237 530 254 527 272 520 L312 507 C331 500 350 496 365 496 C399 496 429 518 469 572 L457 580 Z M276 403 C136 403 5 284 5 157 C5 61 82 -10 185 -10 C328 -10 459 108 459 236 C459 333 383 403 276 403 L276 403 Z M271 380 C333 380 368 357 368 315 C368 291 367 285 331 121 C314 44 274 13 191 13 C131 13 96 37 96 78 C96 103 97 109 133 272 C149 348 190 380 271 380 L271 380 Z " />
<glyph glyph-name="odieresis" unicode="&#xf6;" horiz-adv-x="522" d="M215 591 C182 591 151 561 151 530 C151 506 168 490 192 490 C226 490 256 518 256 551 C256 574 238 591 215 591 L215 591 Z M416 591 C384 591 354 562 354 531 C354 506 371 490 396 490 C430 490 458 518 458 551 C458 574 440 591 416 591 L416 591 Z M276 403 C136 403 5 284 5 157 C5 61 82 -10 185 -10 C328 -10 459 108 459 236 C459 333 383 403 276 403 L276 403 Z M271 380 C333 380 368 357 368 315 C368 291 367 285 331 121 C314 44 274 13 191 13 C131 13 96 37 96 78 C96 103 97 109 133 272 C149 348 190 380 271 380 L271 380 Z " />
<glyph glyph-name="divide" unicode="&#xf7;" horiz-adv-x="550" d="M46 306 L493 306 L501 341 L54 341 L46 306 Z M320 537 C279 537 240 503 240 467 C240 441 262 420 290 420 C333 420 372 453 372 489 C372 517 350 537 320 537 L320 537 Z M255 228 C214 228 175 194 175 158 C175 132 197 111 225 111 C268 111 307 144 307 180 C307 208 285 228 255 228 L255 228 Z " />
<glyph glyph-name="oslash" unicode="&#xf8;" horiz-adv-x="522" d="M462 395 L448 406 L401 362 C367 390 327 403 276 403 C137 403 6 284 6 157 C6 114 20 78 49 45 L2 1 L15 -12 L62 33 C96 4 137 -10 189 -10 C328 -10 459 109 459 236 C459 280 444 317 414 350 L462 395 Z M358 304 C361 297 362 293 362 289 C362 265 339 144 326 101 C308 40 269 13 199 13 C144 13 116 29 107 67 L358 304 Z M107 92 C104 99 103 102 103 110 C103 130 127 252 139 292 C157 353 196 380 266 380 C320 380 347 365 358 329 L107 92 Z " />
<glyph glyph-name="ugrave" unicode="&#xf9;" horiz-adv-x="583" d="M325 616 L250 616 C243 616 239 612 239 606 C239 604 240 601 242 599 L380 463 L391 473 L325 616 Z M496 393 L324 393 L320 373 L402 373 L372 233 C349 122 337 91 307 59 C279 30 238 13 197 13 C156 13 136 26 136 55 C136 67 143 109 154 160 L204 393 L31 393 L27 373 L109 373 L64 160 C56 121 51 91 51 77 C51 23 98 -10 176 -10 C243 -10 295 11 334 55 L323 0 L486 0 L490 20 L417 20 L496 393 Z " />
<glyph glyph-name="uacute" unicode="&#xfa;" horiz-adv-x="583" d="M429 616 L302 473 L309 463 L504 599 C509 602 511 606 511 610 C511 614 509 616 504 616 L429 616 Z M496 393 L324 393 L320 373 L402 373 L372 233 C349 122 337 91 307 59 C279 30 238 13 197 13 C156 13 136 26 136 55 C136 67 143 109 154 160 L204 393 L31 393 L27 373 L109 373 L64 160 C56 121 51 91 51 77 C51 23 98 -10 176 -10 C243 -10 295 11 334 55 L323 0 L486 0 L490 20 L417 20 L496 393 Z " />
<glyph glyph-name="ucircumflex" unicode="&#xfb;" horiz-adv-x="583" d="M340 536 L460 463 L470 473 L358 620 L184 474 L190 464 L340 536 Z M496 393 L324 393 L320 373 L402 373 L372 233 C349 122 337 91 307 59 C279 30 238 13 197 13 C156 13 136 26 136 55 C136 67 143 109 154 160 L204 393 L31 393 L27 373 L109 373 L64 160 C56 121 51 91 51 77 C51 23 98 -10 176 -10 C243 -10 295 11 334 55 L323 0 L486 0 L490 20 L417 20 L496 393 Z " />
<glyph glyph-name="udieresis" unicode="&#xfc;" horiz-adv-x="583" d="M253 591 C220 591 189 562 189 530 C189 506 206 490 230 490 C264 490 294 518 294 551 C294 574 276 591 253 591 L253 591 Z M454 591 C421 591 391 562 391 531 C391 506 408 490 433 490 C468 490 496 518 496 551 C496 574 478 591 454 591 L454 591 Z M496 393 L324 393 L320 373 L402 373 L372 233 C349 122 337 91 307 59 C279 30 238 13 197 13 C156 13 136 26 136 55 C136 67 143 109 154 160 L204 393 L31 393 L27 373 L109 373 L64 160 C56 121 51 91 51 77 C51 23 98 -10 176 -10 C243 -10 295 11 334 55 L323 0 L486 0 L490 20 L417 20 L496 393 Z " />
<glyph glyph-name="yacute" unicode="&#xfd;" horiz-adv-x="451" d="M377 616 L250 473 L257 463 L453 599 C458 603 460 606 460 610 C460 614 458 616 452 616 L377 616 Z M418 373 L461 373 L465 393 L306 393 L301 373 L388 373 L231 117 L163 373 L240 373 L244 393 L10 393 L6 373 L53 373 L161 0 L68 -148 C37 -196 33 -201 21 -201 C15 -201 13 -199 8 -190 C0 -176 -14 -169 -34 -169 C-69 -169 -98 -195 -98 -226 C-98 -248 -75 -265 -46 -265 C4 -265 42 -235 89 -159 L418 373 Z " />
<glyph glyph-name="thorn" unicode="&#xfe;" horiz-adv-x="544" d="M-31 -247 L-105 -247 L-109 -267 L137 -267 L141 -247 L59 -247 L128 78 C146 18 182 -10 241 -10 C361 -10 483 120 483 249 C483 339 421 403 334 403 C274 403 221 375 179 320 L253 667 L89 667 L85 647 L158 647 L-31 -247 Z M326 380 C367 380 390 359 390 323 C390 285 363 151 344 98 C323 40 293 13 247 13 C188 13 149 60 149 130 C149 218 185 306 238 346 C267 369 297 380 326 380 L326 380 Z " />
<glyph glyph-name="ydieresis" unicode="&#xff;" horiz-adv-x="451" d="M198 591 C165 591 134 562 134 530 C134 506 151 490 175 490 C209 490 239 518 239 551 C239 574 221 591 198 591 L198 591 Z M400 591 C367 591 337 562 337 531 C337 506 354 490 379 490 C414 490 442 518 442 551 C442 574 424 591 400 591 L400 591 Z M418 373 L461 373 L465 393 L306 393 L301 373 L388 373 L231 117 L163 373 L240 373 L244 393 L10 393 L6 373 L53 373 L161 0 L68 -148 C37 -196 33 -201 21 -201 C15 -201 13 -199 8 -190 C0 -176 -14 -169 -34 -169 C-69 -169 -98 -195 -98 -226 C-98 -248 -75 -265 -46 -265 C4 -265 42 -235 89 -159 L418 373 Z " />
<glyph glyph-name="Amacron" unicode="&#x100;" horiz-adv-x="645" d="M353 215 L384 20 L288 20 L284 0 L582 0 L586 20 L508 20 L409 667 L376 667 L-10 20 L-63 20 L-67 0 L111 0 L115 20 L20 20 L132 215 L353 215 Z M350 235 L144 235 L307 512 L350 235 Z M263 785 L256 750 L569 750 L577 785 L263 785 Z " />
<glyph glyph-name="amacron" unicode="&#x101;" horiz-adv-x="487" d="M391 35 C368 20 365 19 352 19 C341 19 336 25 336 36 C336 47 336 47 355 135 L378 245 C389 295 392 313 392 322 C392 370 339 402 258 402 C192 402 133 382 95 348 C74 329 64 311 64 294 C64 273 80 259 105 259 C134 259 161 283 161 307 C161 316 156 323 145 333 C141 337 139 339 139 342 C139 361 194 386 238 386 C282 386 306 370 306 342 C306 331 304 321 297 286 L282 217 C178 215 118 203 61 172 C14 147 -15 106 -15 65 C-15 19 25 -10 87 -10 C148 -10 207 18 251 68 C250 62 250 58 250 52 C250 15 278 -10 322 -10 C350 -10 372 -1 401 20 L391 35 Z M274 180 C263 127 252 99 233 79 C207 49 175 34 138 34 C100 34 78 52 78 83 C78 116 96 145 128 165 C166 189 201 197 279 200 L274 180 Z M150 544 L143 510 L419 510 L427 544 L150 544 Z " />
<glyph glyph-name="Abreve" unicode="&#x102;" horiz-adv-x="645" d="M353 215 L384 20 L288 20 L284 0 L582 0 L586 20 L508 20 L409 667 L376 667 L-10 20 L-63 20 L-67 0 L111 0 L115 20 L20 20 L132 215 L353 215 Z M350 235 L144 235 L307 512 L350 235 Z M290 843 C289 835 289 831 289 827 C289 761 333 723 411 723 C496 723 554 763 583 843 L569 843 C552 819 540 808 519 798 C498 787 455 779 423 779 C395 779 357 786 340 795 C320 805 311 817 304 843 L290 843 Z " />
<glyph glyph-name="abreve" unicode="&#x103;" horiz-adv-x="487" d="M391 35 C368 20 365 19 352 19 C341 19 336 25 336 36 C336 47 336 47 355 135 L378 245 C389 295 392 313 392 322 C392 370 339 402 258 402 C192 402 133 382 95 348 C74 329 64 311 64 294 C64 273 80 259 105 259 C134 259 161 283 161 307 C161 316 156 323 145 333 C141 337 139 339 139 342 C139 361 194 386 238 386 C282 386 306 370 306 342 C306 331 304 321 297 286 L282 217 C178 215 118 203 61 172 C14 147 -15 106 -15 65 C-15 19 25 -10 87 -10 C148 -10 207 18 251 68 C250 62 250 58 250 52 C250 15 278 -10 322 -10 C350 -10 372 -1 401 20 L391 35 Z M274 180 C263 127 252 99 233 79 C207 49 175 34 138 34 C100 34 78 52 78 83 C78 116 96 145 128 165 C166 189 201 197 279 200 L274 180 Z M437 613 C406 559 356 528 298 528 C239 528 203 559 199 613 L186 613 C184 598 183 591 183 579 C183 511 223 467 286 467 C363 467 427 524 449 613 L437 613 Z " />
<glyph glyph-name="Aogonek" unicode="&#x104;" horiz-adv-x="645" d="M582 0 L586 20 L508 20 L409 667 L376 667 L-10 20 L-63 20 L-67 0 L111 0 L115 20 L20 20 L132 215 L353 215 L384 20 L288 20 L284 0 L481 0 L477 -1 C393 -31 354 -67 354 -114 C354 -145 384 -165 431 -165 C463 -165 494 -158 528 -144 L532 -127 C507 -134 494 -136 476 -136 C439 -136 419 -122 419 -97 C419 -62 448 -33 516 0 L582 0 Z M350 235 L144 235 L307 512 L350 235 Z " />
<glyph glyph-name="aogonek" unicode="&#x105;" horiz-adv-x="487" d="M385 -124 C362 -131 348 -133 330 -133 C294 -133 274 -120 274 -95 C274 -65 303 -32 350 -9 C384 7 384 7 401 20 L391 35 C368 20 365 19 352 19 C341 19 336 25 336 36 C336 47 336 47 355 135 L378 245 C389 295 392 313 392 322 C392 370 339 402 258 402 C192 402 133 382 95 348 C74 329 64 311 64 294 C64 273 80 259 105 259 C134 259 161 283 161 307 C161 316 156 323 145 333 C141 337 139 339 139 342 C139 361 194 386 238 386 C282 386 306 370 306 342 C306 331 304 321 297 286 L282 217 C178 215 118 203 61 172 C14 147 -15 106 -15 65 C-15 19 25 -10 87 -10 C148 -10 207 18 251 68 C250 62 250 58 250 52 C250 19 272 -5 309 -9 C245 -35 211 -71 211 -112 C211 -142 240 -162 286 -162 C318 -162 348 -155 382 -141 L385 -124 Z M274 180 C263 127 252 99 233 79 C207 49 175 34 138 34 C100 34 78 52 78 83 C78 116 96 145 128 165 C166 189 201 197 279 200 L274 180 Z " />
<glyph glyph-name="Cacute" unicode="&#x106;" horiz-adv-x="643" d="M564 189 L548 189 C476 71 391 13 290 13 C195 13 141 57 141 133 C141 179 156 267 181 368 C214 502 235 554 271 591 C312 632 370 654 435 654 C541 654 605 595 612 491 L628 491 L666 667 L649 667 L602 620 C557 657 501 677 442 677 C360 677 264 638 191 574 C94 491 37 372 37 254 C37 101 143 -10 287 -10 C349 -10 407 8 480 48 L508 0 L524 0 L564 189 Z M559 837 L399 732 L403 720 L655 812 C668 817 673 822 673 829 C673 835 670 837 659 837 L559 837 Z " />
<glyph glyph-name="cacute" unicode="&#x107;" horiz-adv-x="448" d="M359 127 C314 52 253 13 182 13 C131 13 98 39 98 80 C98 118 114 193 137 270 C161 347 202 380 274 380 C311 380 350 365 350 351 C350 347 348 345 343 342 C318 326 303 304 303 286 C303 263 319 248 343 248 C380 248 409 277 409 313 C409 364 350 403 275 403 C138 403 5 280 5 154 C5 62 80 -10 177 -10 C262 -10 328 33 386 127 L359 127 Z M385 616 L258 473 L265 463 L460 599 C465 602 467 606 467 610 C467 614 465 616 460 616 L385 616 Z " />
<glyph glyph-name="Ccircumflex" unicode="&#x108;" horiz-adv-x="643" d="M564 189 L548 189 C476 71 391 13 290 13 C195 13 141 57 141 133 C141 179 156 267 181 368 C214 502 235 554 271 591 C312 632 370 654 435 654 C541 654 605 595 612 491 L628 491 L666 667 L649 667 L602 620 C557 657 501 677 442 677 C360 677 264 638 191 574 C94 491 37 372 37 254 C37 101 143 -10 287 -10 C349 -10 407 8 480 48 L508 0 L524 0 L564 189 Z M471 843 L280 732 L284 720 L455 769 L605 720 L614 732 L471 843 Z " />
<glyph glyph-name="Cdotaccent" unicode="&#x10a;" horiz-adv-x="643" d="M564 189 L548 189 C476 71 391 13 290 13 C195 13 141 57 141 133 C141 179 156 267 181 368 C214 502 235 554 271 591 C312 632 370 654 435 654 C541 654 605 595 612 491 L628 491 L666 667 L649 667 L602 620 C557 657 501 677 442 677 C360 677 264 638 191 574 C94 491 37 372 37 254 C37 101 143 -10 287 -10 C349 -10 407 8 480 48 L508 0 L524 0 L564 189 Z M475 832 C441 832 409 800 409 768 C409 744 427 727 453 727 C487 727 518 758 518 791 C518 814 499 832 475 832 L475 832 Z " />
<glyph glyph-name="cdotaccent" unicode="&#x10b;" horiz-adv-x="448" d="M359 127 C314 52 253 13 182 13 C131 13 98 39 98 80 C98 118 114 193 137 270 C161 347 202 380 274 380 C311 380 350 365 350 351 C350 347 348 345 343 342 C318 326 303 304 303 286 C303 263 319 248 343 248 C380 248 409 277 409 313 C409 364 350 403 275 403 C138 403 5 280 5 154 C5 62 80 -10 177 -10 C262 -10 328 33 386 127 L359 127 Z M314 592 C281 592 251 563 251 531 C251 506 268 490 294 490 C328 490 357 518 357 552 C357 575 339 592 314 592 L314 592 Z " />
<glyph glyph-name="Ccaron" unicode="&#x10c;" horiz-adv-x="643" d="M564 189 L548 189 C476 71 391 13 290 13 C195 13 141 57 141 133 C141 179 156 267 181 368 C214 502 235 554 271 591 C312 632 370 654 435 654 C541 654 605 595 612 491 L628 491 L666 667 L649 667 L602 620 C557 657 501 677 442 677 C360 677 264 638 191 574 C94 491 37 372 37 254 C37 101 143 -10 287 -10 C349 -10 407 8 480 48 L508 0 L524 0 L564 189 Z M449 720 L639 832 L636 843 L465 795 L314 843 L306 832 L449 720 Z " />
<glyph glyph-name="ccaron" unicode="&#x10d;" horiz-adv-x="448" d="M359 127 C314 52 253 13 182 13 C131 13 98 39 98 80 C98 118 114 193 137 270 C161 347 202 380 274 380 C311 380 350 365 350 351 C350 347 348 345 343 342 C318 326 303 304 303 286 C303 263 319 248 343 248 C380 248 409 277 409 313 C409 364 350 403 275 403 C138 403 5 280 5 154 C5 62 80 -10 177 -10 C262 -10 328 33 386 127 L359 127 Z M305 547 L185 620 L175 610 L287 463 L462 610 L456 620 L305 547 Z " />
<glyph glyph-name="Dcaron" unicode="&#x10e;" horiz-adv-x="743" d="M62 20 L-32 20 L-36 0 L217 0 C296 0 344 3 377 10 C434 22 489 49 541 91 C646 174 706 291 706 413 C706 488 678 552 623 602 C565 654 512 667 348 667 L106 667 L101 647 L195 647 L62 20 Z M168 20 L302 647 L346 647 C442 647 463 645 503 634 C565 616 596 575 596 509 C596 458 580 366 554 265 C519 131 492 87 422 51 C372 25 338 20 220 20 L168 20 Z M425 720 L615 832 L612 843 L441 795 L290 843 L282 832 L425 720 Z " />
<glyph glyph-name="dcaron" unicode="&#x10f;" horiz-adv-x="634" d="M522 667 L350 667 L345 647 L428 647 L359 322 C334 378 298 403 242 403 C120 403 5 280 5 150 C5 58 69 -10 156 -10 C216 -10 270 21 306 76 L290 0 L454 0 L458 20 L384 20 L522 667 Z M241 380 C296 380 337 329 337 260 C337 131 253 13 162 13 C124 13 96 40 96 75 C96 109 128 261 145 307 C162 354 197 380 241 380 L241 380 Z M576 458 C646 501 686 553 686 602 C686 642 661 667 619 667 C576 667 538 636 538 600 C538 577 554 563 580 563 C611 563 635 586 638 616 C651 607 653 605 656 584 L656 582 C653 548 617 505 565 477 L576 458 Z " />
<glyph glyph-name="Dcroat" unicode="&#x110;" horiz-adv-x="743" d="M128 331 L62 20 L-32 20 L-36 0 L217 0 C296 0 344 3 377 10 C434 22 489 49 541 91 C646 174 706 292 706 413 C706 487 677 552 623 602 C565 654 512 667 348 667 L106 667 L101 647 L195 647 L132 351 L39 351 L34 331 L128 331 Z M234 331 L394 331 L398 351 L239 351 L302 647 L346 647 C442 647 463 645 503 634 C565 616 596 575 596 509 C596 458 580 367 554 265 C520 131 492 87 422 51 C372 25 338 20 220 20 L168 20 L234 331 Z " />
<glyph glyph-name="dcroat" unicode="&#x111;" horiz-adv-x="542" d="M499 558 L522 667 L350 667 L345 647 L428 647 L409 558 L241 558 L236 538 L404 538 L359 322 C334 378 298 403 242 403 C120 403 5 280 5 150 C5 58 69 -10 156 -10 C216 -10 270 21 306 76 L290 0 L454 0 L458 20 L384 20 L494 538 L568 538 L572 558 L499 558 Z M241 380 C296 380 337 329 337 260 C337 131 253 13 162 13 C124 13 96 40 96 75 C96 109 128 261 145 307 C162 354 197 380 241 380 L241 380 Z " />
<glyph glyph-name="Emacron" unicode="&#x112;" horiz-adv-x="642" d="M60 20 L-32 20 L-36 0 L510 0 L575 208 L561 208 C480 50 431 13 315 20 L167 20 L232 328 L272 328 C353 328 381 310 381 258 C381 245 380 235 374 196 L390 196 L448 471 L433 471 C408 362 382 346 236 347 L300 647 L390 647 C541 652 583 618 588 484 L603 484 L634 667 L106 667 L101 647 L193 647 L60 20 Z M281 785 L273 750 L587 750 L594 785 L281 785 Z " />
<glyph glyph-name="emacron" unicode="&#x113;" horiz-adv-x="467" d="M416 229 C418 246 419 255 419 265 C419 346 354 403 259 403 C133 403 5 279 5 158 C5 64 81 -10 178 -10 C266 -10 352 48 387 132 L361 132 C323 58 257 13 183 13 C135 13 104 39 104 80 C104 102 105 108 131 229 L416 229 Z M135 249 C151 324 151 324 167 344 C186 367 217 380 254 380 C296 380 318 361 318 325 C318 311 317 302 306 249 L135 249 Z M151 544 L144 510 L420 510 L428 544 L151 544 Z " />
<glyph glyph-name="Ebreve" unicode="&#x114;" horiz-adv-x="642" d="M60 20 L-32 20 L-36 0 L510 0 L575 208 L561 208 C480 50 431 13 315 20 L167 20 L232 328 L272 328 C353 328 381 310 381 258 C381 245 380 235 374 196 L390 196 L448 471 L433 471 C408 362 382 346 236 347 L300 647 L390 647 C541 652 583 618 588 484 L603 484 L634 667 L106 667 L101 647 L193 647 L60 20 Z M303 843 L303 827 C303 761 347 723 425 723 C510 723 567 763 597 843 L583 843 C565 819 553 808 532 798 C511 787 468 779 437 779 C408 779 371 786 354 795 C334 805 324 817 317 843 L303 843 Z " />
<glyph glyph-name="ebreve" unicode="&#x115;" horiz-adv-x="467" d="M416 229 C418 246 419 255 419 265 C419 346 354 403 259 403 C133 403 5 279 5 158 C5 64 81 -10 178 -10 C266 -10 352 48 387 132 L361 132 C323 58 257 13 183 13 C135 13 104 39 104 80 C104 102 105 108 131 229 L416 229 Z M135 249 C151 324 151 324 167 344 C186 367 217 380 254 380 C296 380 318 361 318 325 C318 311 317 302 306 249 L135 249 Z M429 613 C399 559 349 528 291 528 C232 528 196 559 191 613 L179 613 C176 597 175 589 175 580 C175 511 216 467 278 467 C355 467 419 525 442 613 L429 613 Z " />
<glyph glyph-name="Edotaccent" unicode="&#x116;" horiz-adv-x="642" d="M60 20 L-32 20 L-36 0 L510 0 L575 208 L561 208 C480 50 431 13 315 20 L167 20 L232 328 L272 328 C353 328 381 310 381 258 C381 245 380 235 374 196 L390 196 L448 471 L433 471 C408 362 382 346 236 347 L300 647 L390 647 C541 652 583 618 588 484 L603 484 L634 667 L106 667 L101 647 L193 647 L60 20 Z M452 832 C419 832 386 800 386 768 C386 744 404 727 430 727 C464 727 495 757 495 791 C495 814 476 832 452 832 L452 832 Z " />
<glyph glyph-name="edotaccent" unicode="&#x117;" horiz-adv-x="468" d="M416 229 C418 246 419 255 419 265 C419 346 354 403 259 403 C133 403 5 279 5 158 C5 64 81 -10 178 -10 C266 -10 352 48 387 132 L361 132 C323 58 257 13 183 13 C135 13 104 39 104 80 C104 102 105 108 131 229 L416 229 Z M135 249 C151 324 151 324 167 344 C186 367 217 380 254 380 C296 380 318 361 318 325 C318 311 317 302 306 249 L135 249 Z M305 592 C272 592 242 563 242 531 C242 506 259 490 285 490 C319 490 348 518 348 551 C348 575 330 592 305 592 L305 592 Z " />
<glyph glyph-name="Eogonek" unicode="&#x118;" horiz-adv-x="642" d="M510 0 L575 208 L561 208 C480 50 431 13 315 20 L167 20 L232 328 L272 328 C353 328 381 310 381 258 C381 245 380 235 374 196 L390 196 L448 471 L433 471 C408 362 382 346 236 347 L300 647 L390 647 C541 652 583 618 588 484 L603 484 L634 667 L106 667 L101 647 L193 647 L60 20 L-32 20 L-36 0 L425 0 L421 -1 C337 -31 298 -67 298 -114 C298 -145 328 -165 375 -165 C407 -165 438 -158 472 -144 L476 -127 C451 -134 438 -136 420 -136 C383 -136 363 -122 363 -97 C363 -62 392 -33 460 0 L510 0 Z " />
<glyph glyph-name="eogonek" unicode="&#x119;" horiz-adv-x="468" d="M289 -124 C267 -131 252 -133 235 -133 C198 -133 179 -120 179 -95 C179 -64 202 -35 255 -1 C339 53 362 76 387 132 L361 132 C323 58 257 13 183 13 C135 13 104 39 104 80 C104 102 105 108 131 229 L416 229 C418 246 419 255 419 265 C419 346 354 403 259 403 C133 403 5 279 5 158 C5 63 82 -10 181 -10 C190 -10 197 -9 209 -7 C149 -35 115 -73 115 -112 C115 -142 144 -162 190 -162 C222 -162 252 -155 286 -141 L289 -124 Z M135 249 C151 324 151 324 167 344 C186 367 217 380 254 380 C296 380 318 361 318 325 C318 311 317 302 306 249 L135 249 Z " />
<glyph glyph-name="Ecaron" unicode="&#x11a;" horiz-adv-x="642" d="M60 20 L-32 20 L-36 0 L510 0 L575 208 L561 208 C480 50 431 13 315 20 L167 20 L232 328 L272 328 C353 328 381 310 381 258 C381 245 380 235 374 196 L390 196 L448 471 L433 471 C408 362 382 346 236 347 L300 647 L390 647 C541 652 583 618 588 484 L603 484 L634 667 L106 667 L101 647 L193 647 L60 20 Z M428 720 L618 832 L615 843 L444 795 L293 843 L285 832 L428 720 Z " />
<glyph glyph-name="ecaron" unicode="&#x11b;" horiz-adv-x="468" d="M416 229 C418 246 419 255 419 265 C419 346 354 403 259 403 C133 403 5 279 5 158 C5 64 81 -10 178 -10 C266 -10 352 48 387 132 L361 132 C323 58 257 13 183 13 C135 13 104 39 104 80 C104 102 105 108 131 229 L416 229 Z M135 249 C151 324 151 324 167 344 C186 367 217 380 254 380 C296 380 318 361 318 325 C318 311 317 302 306 249 L135 249 Z M300 547 L180 620 L170 610 L283 463 L457 610 L451 620 L300 547 Z " />
<glyph glyph-name="Gcircumflex" unicode="&#x11c;" horiz-adv-x="701" d="M652 667 L637 667 L591 627 C541 661 492 677 440 677 C235 677 38 470 38 256 C38 102 140 -10 281 -10 C373 -10 479 35 536 99 C564 129 579 159 594 213 L664 213 L668 233 L358 233 L354 213 L463 213 C449 151 438 121 422 95 C392 45 333 13 273 13 C193 13 143 58 143 129 C143 159 147 196 157 255 C184 409 220 527 254 576 C287 623 352 654 418 654 C465 654 499 645 529 623 C574 591 594 545 598 468 L615 468 L652 667 Z M472 843 L281 732 L285 720 L456 769 L606 720 L615 732 L472 843 Z " />
<glyph glyph-name="gcircumflex" unicode="&#x11d;" horiz-adv-x="483" d="M251 22 L228 22 L168 21 C91 20 91 20 78 20 C28 20 12 27 12 50 C12 77 47 109 109 139 C136 127 155 123 186 123 C304 123 397 195 397 286 C397 309 391 329 378 350 C395 363 400 366 408 366 C414 366 417 361 417 350 C417 330 427 320 447 320 C473 320 496 342 496 368 C496 390 480 403 454 403 C427 403 403 391 366 362 C340 389 301 403 248 403 C139 403 43 325 43 237 C43 204 57 177 89 149 C8 106 -36 56 -36 7 C-36 -29 -14 -53 31 -64 C-35 -81 -77 -121 -77 -166 C-77 -227 -4 -272 97 -272 C171 -272 247 -247 294 -206 C342 -165 372 -106 372 -53 C372 1 341 22 265 22 L251 22 Z M246 383 C293 383 313 371 313 343 C313 319 294 229 283 200 C268 161 241 144 192 144 C149 144 129 159 129 191 C129 219 150 313 163 340 C177 371 201 383 246 383 L246 383 Z M122 -67 C136 -67 141 -67 219 -65 C264 -64 264 -64 269 -64 C303 -64 316 -72 316 -94 C316 -115 302 -146 281 -172 C242 -219 177 -247 107 -247 C45 -247 6 -215 6 -164 C6 -127 23 -94 59 -64 C80 -66 88 -67 114 -67 L122 -67 Z M291 536 L411 463 L421 473 L309 620 L135 474 L140 464 L291 536 Z " />
<glyph glyph-name="Gbreve" unicode="&#x11e;" horiz-adv-x="701" d="M652 667 L637 667 L591 627 C541 661 492 677 440 677 C235 677 38 470 38 256 C38 102 140 -10 281 -10 C373 -10 479 35 536 99 C564 129 579 159 594 213 L664 213 L668 233 L358 233 L354 213 L463 213 C449 151 438 121 422 95 C392 45 333 13 273 13 C193 13 143 58 143 129 C143 159 147 196 157 255 C184 409 220 527 254 576 C287 623 352 654 418 654 C465 654 499 645 529 623 C574 591 594 545 598 468 L615 468 L652 667 Z M323 843 L323 828 C323 760 366 723 444 723 C529 723 587 764 616 843 L602 843 C571 799 527 779 456 779 C428 779 391 786 374 795 C353 805 344 817 337 843 L323 843 Z " />
<glyph glyph-name="gbreve" unicode="&#x11f;" horiz-adv-x="483" d="M251 22 L228 22 L168 21 C91 20 91 20 78 20 C28 20 12 27 12 50 C12 77 47 109 109 139 C136 127 155 123 186 123 C304 123 397 195 397 286 C397 309 391 329 378 350 C395 363 400 366 408 366 C414 366 417 361 417 350 C417 330 427 320 447 320 C473 320 496 342 496 368 C496 390 480 403 454 403 C427 403 403 391 366 362 C340 389 301 403 248 403 C139 403 43 325 43 237 C43 204 57 177 89 149 C8 106 -36 56 -36 7 C-36 -29 -14 -53 31 -64 C-35 -81 -77 -121 -77 -166 C-77 -227 -4 -272 97 -272 C171 -272 247 -247 294 -206 C342 -165 372 -106 372 -53 C372 1 341 22 265 22 L251 22 Z M246 383 C293 383 313 371 313 343 C313 319 294 229 283 200 C268 161 241 144 192 144 C149 144 129 159 129 191 C129 219 150 313 163 340 C177 371 201 383 246 383 L246 383 Z M122 -67 C136 -67 141 -67 219 -65 C264 -64 264 -64 269 -64 C303 -64 316 -72 316 -94 C316 -115 302 -146 281 -172 C242 -219 177 -247 107 -247 C45 -247 6 -215 6 -164 C6 -127 23 -94 59 -64 C80 -66 88 -67 114 -67 L122 -67 Z M422 613 C392 559 342 528 284 528 C225 528 189 559 185 613 L172 613 C169 598 168 590 168 580 C168 511 208 467 271 467 C348 467 413 525 435 613 L422 613 Z " />
<glyph glyph-name="Gdotaccent" unicode="&#x120;" horiz-adv-x="701" d="M652 667 L637 667 L591 627 C541 661 492 677 440 677 C235 677 38 470 38 256 C38 102 140 -10 281 -10 C373 -10 479 35 536 99 C564 129 579 159 594 213 L664 213 L668 233 L358 233 L354 213 L463 213 C449 151 438 121 422 95 C392 45 333 13 273 13 C193 13 143 58 143 129 C143 159 147 196 157 255 C184 409 220 527 254 576 C287 623 352 654 418 654 C465 654 499 645 529 623 C574 591 594 545 598 468 L615 468 L652 667 Z M468 832 C434 832 402 800 402 768 C402 744 420 727 446 727 C480 727 511 758 511 791 C511 814 492 832 468 832 L468 832 Z " />
<glyph glyph-name="gdotaccent" unicode="&#x121;" horiz-adv-x="483" d="M251 22 L228 22 L168 21 C91 20 91 20 78 20 C28 20 12 27 12 50 C12 77 47 109 109 139 C136 127 155 123 186 123 C304 123 397 195 397 286 C397 309 391 329 378 350 C395 363 400 366 408 366 C414 366 417 361 417 350 C417 330 427 320 447 320 C473 320 496 342 496 368 C496 390 480 403 454 403 C427 403 403 391 366 362 C340 389 301 403 248 403 C139 403 43 325 43 237 C43 204 57 177 89 149 C8 106 -36 56 -36 7 C-36 -29 -14 -53 31 -64 C-35 -81 -77 -121 -77 -166 C-77 -227 -4 -272 97 -272 C171 -272 247 -247 294 -206 C342 -165 372 -106 372 -53 C372 1 341 22 265 22 L251 22 Z M246 383 C293 383 313 371 313 343 C313 319 294 229 283 200 C268 161 241 144 192 144 C149 144 129 159 129 191 C129 219 150 313 163 340 C177 371 201 383 246 383 L246 383 Z M122 -67 C136 -67 141 -67 219 -65 C264 -64 264 -64 269 -64 C303 -64 316 -72 316 -94 C316 -115 302 -146 281 -172 C242 -219 177 -247 107 -247 C45 -247 6 -215 6 -164 C6 -127 23 -94 59 -64 C80 -66 88 -67 114 -67 L122 -67 Z M298 592 C265 592 235 563 235 531 C235 506 252 490 278 490 C312 490 341 518 341 552 C341 575 323 592 298 592 L298 592 Z " />
<glyph glyph-name="Gcommaaccent" unicode="&#x122;" horiz-adv-x="701" d="M652 667 L637 667 L591 627 C541 661 492 677 440 677 C235 677 38 470 38 256 C38 102 140 -10 281 -10 C373 -10 479 35 536 99 C564 129 579 159 594 213 L664 213 L668 233 L358 233 L354 213 L463 213 C449 151 438 121 422 95 C392 45 333 13 273 13 C193 13 143 58 143 129 C143 159 147 196 157 255 C184 409 220 527 254 576 C287 623 352 654 418 654 C465 654 499 645 529 623 C574 591 594 545 598 468 L615 468 L652 667 Z M212 -259 C285 -214 327 -159 327 -107 C327 -66 301 -40 259 -40 C214 -40 175 -72 175 -108 C175 -132 191 -147 219 -147 C250 -147 275 -124 277 -92 C291 -101 296 -110 296 -125 C296 -162 262 -203 199 -240 L212 -259 Z " />
<glyph glyph-name="gcommaaccent" unicode="&#x123;" horiz-adv-x="483" d="M251 22 L228 22 L168 21 C91 20 91 20 78 20 C28 20 12 27 12 50 C12 77 47 109 109 139 C136 127 155 123 186 123 C304 123 397 195 397 286 C397 309 391 329 378 350 C395 363 400 366 408 366 C414 366 417 361 417 350 C417 330 427 320 447 320 C473 320 496 342 496 368 C496 390 480 403 454 403 C427 403 403 391 366 362 C340 389 301 403 248 403 C139 403 43 325 43 237 C43 204 57 177 89 149 C8 106 -36 56 -36 7 C-36 -29 -14 -53 31 -64 C-35 -81 -77 -121 -77 -166 C-77 -227 -4 -272 97 -272 C171 -272 247 -247 294 -206 C342 -165 372 -106 372 -53 C372 1 341 22 265 22 L251 22 Z M246 383 C293 383 313 371 313 343 C313 319 294 229 283 200 C268 161 241 144 192 144 C149 144 129 159 129 191 C129 219 150 313 163 340 C177 371 201 383 246 383 L246 383 Z M122 -67 C136 -67 141 -67 219 -65 C264 -64 264 -64 269 -64 C303 -64 316 -72 316 -94 C316 -115 302 -146 281 -172 C242 -219 177 -247 107 -247 C45 -247 6 -215 6 -164 C6 -127 23 -94 59 -64 C80 -66 88 -67 114 -67 L122 -67 Z M324 665 C254 622 215 570 215 521 C215 481 240 456 282 456 C325 456 363 487 363 522 C363 545 347 559 321 559 C290 559 266 537 263 507 C250 515 245 524 245 538 C245 573 278 612 336 646 L324 665 Z " />
<glyph glyph-name="Hcircumflex" unicode="&#x124;" horiz-adv-x="783" d="M549 331 L483 20 L380 20 L376 0 L677 0 L681 20 L589 20 L723 647 L814 647 L819 667 L518 667 L514 647 L616 647 L553 351 L237 351 L300 647 L402 647 L406 667 L106 667 L101 647 L193 647 L60 20 L-32 20 L-36 0 L265 0 L269 20 L167 20 L233 331 L549 331 Z M500 843 L309 732 L313 720 L484 769 L634 720 L643 732 L500 843 Z " />
<glyph glyph-name="Hbar" unicode="&#x126;" horiz-adv-x="783" d="M157 478 L60 20 L-32 20 L-36 0 L265 0 L269 20 L167 20 L233 331 L549 331 L483 20 L380 20 L376 0 L677 0 L681 20 L589 20 L687 478 L764 478 L768 498 L691 498 L723 647 L814 647 L819 667 L518 667 L514 647 L616 647 L584 498 L268 498 L300 647 L402 647 L406 667 L106 667 L101 647 L193 647 L161 498 L85 498 L80 478 L157 478 Z M264 478 L580 478 L553 351 L237 351 L264 478 Z " />
<glyph glyph-name="hbar" unicode="&#x127;" horiz-adv-x="581" d="M136 538 L26 20 L-48 20 L-52 0 L186 0 L191 20 L116 20 L147 165 C162 240 174 273 195 303 C226 347 276 374 328 374 C367 374 387 359 387 331 C387 317 386 310 375 258 L324 20 L258 20 L254 0 L492 0 L496 20 L414 20 L465 258 C473 297 476 315 476 327 C476 376 434 403 360 403 C286 403 231 378 180 322 L226 538 L389 538 L393 558 L230 558 L253 667 L90 667 L85 647 L159 647 L140 558 L66 558 L61 538 L136 538 Z " />
<glyph glyph-name="Imacron" unicode="&#x12a;" horiz-adv-x="360" d="M60 20 L-32 20 L-36 0 L254 0 L258 20 L167 20 L300 647 L391 647 L396 667 L106 667 L101 647 L193 647 L60 20 Z M126 785 L118 750 L417 750 L424 785 L126 785 Z " />
<glyph glyph-name="imacron" unicode="&#x12b;" horiz-adv-x="297" d="M49 20 L-34 20 L-38 0 L208 0 L212 20 L139 20 L218 393 L46 393 L41 373 L124 373 L49 20 Z M62 544 L55 510 L304 510 L312 544 L62 544 Z " />
<glyph glyph-name="ibreve" unicode="&#x12d;" horiz-adv-x="297" d="M49 20 L-34 20 L-38 0 L208 0 L212 20 L139 20 L218 393 L46 393 L41 373 L124 373 L49 20 Z M334 613 C304 559 254 528 195 528 C137 528 101 559 96 613 L84 613 C81 597 80 590 80 580 C80 511 121 467 183 467 C260 467 324 525 347 613 L334 613 Z " />
<glyph glyph-name="Iogonek" unicode="&#x12e;" horiz-adv-x="360" d="M254 0 L258 20 L167 20 L300 647 L391 647 L396 667 L106 667 L101 647 L193 647 L60 20 L-32 20 L-36 0 L141 0 L138 -1 C53 -31 14 -67 14 -114 C14 -145 44 -165 91 -165 C123 -165 155 -158 189 -144 L192 -127 C168 -134 154 -136 136 -136 C99 -136 79 -122 79 -97 C79 -62 108 -34 176 0 L254 0 Z " />
<glyph glyph-name="iogonek" unicode="&#x12f;" horiz-adv-x="297" d="M208 0 L212 20 L139 20 L218 393 L46 393 L41 373 L124 373 L49 20 L-34 20 L-38 0 L111 0 C28 -28 -14 -65 -14 -112 C-14 -142 15 -162 61 -162 C93 -162 123 -155 157 -141 L161 -124 C138 -131 123 -133 105 -133 C69 -133 49 -120 49 -95 C49 -61 76 -34 145 0 L208 0 Z M218 654 C183 654 151 621 151 584 C151 558 169 540 195 540 C231 540 265 573 265 609 C265 636 246 654 218 654 L218 654 Z " />
<glyph glyph-name="Idotaccent" unicode="&#x130;" horiz-adv-x="360" d="M60 20 L-32 20 L-36 0 L254 0 L258 20 L167 20 L300 647 L391 647 L396 667 L106 667 L101 647 L193 647 L60 20 Z M286 832 C253 832 220 800 220 768 C220 744 238 727 264 727 C298 727 329 757 329 791 C329 814 310 832 286 832 L286 832 Z " />
<glyph glyph-name="dotlessi" unicode="&#x131;" horiz-adv-x="297" d="M49 20 L-34 20 L-38 0 L208 0 L212 20 L139 20 L218 393 L46 393 L41 373 L124 373 L49 20 Z " />
<glyph glyph-name="Kcommaaccent" unicode="&#x136;" horiz-adv-x="718" d="M60 20 L-32 20 L-36 0 L265 0 L269 20 L167 20 L300 647 L402 647 L406 667 L106 667 L101 647 L193 647 L60 20 Z M365 407 L650 647 L743 647 L747 667 L513 667 L508 647 L616 647 L258 348 L457 20 L362 20 L358 0 L647 0 L652 20 L599 20 L365 407 Z M212 -259 C286 -213 327 -159 327 -107 C327 -66 301 -40 259 -40 C214 -40 176 -72 176 -108 C176 -132 192 -147 219 -147 C251 -147 276 -124 278 -92 C291 -101 296 -110 296 -125 C296 -162 262 -203 200 -240 L212 -259 Z " />
<glyph glyph-name="kcommaaccent" unicode="&#x137;" horiz-adv-x="538" d="M262 667 L90 667 L85 647 L168 647 L35 20 L-48 20 L-52 0 L194 0 L198 20 L125 20 L262 667 Z M268 252 L432 373 L508 373 L513 393 L290 393 L286 373 L394 373 L176 210 L293 20 L238 20 L234 0 L469 0 L474 20 L424 20 L268 252 Z M140 -249 C210 -207 250 -155 250 -105 C250 -65 225 -40 183 -40 C140 -40 102 -71 102 -107 C102 -130 118 -144 144 -144 C175 -144 199 -122 202 -91 C215 -99 220 -108 220 -123 C220 -158 187 -196 129 -231 L140 -249 Z " />
<glyph glyph-name="Lacute" unicode="&#x139;" horiz-adv-x="627" d="M60 20 L-32 20 L-36 0 L512 0 L574 206 L560 206 C487 50 439 15 307 20 L167 20 L300 647 L402 647 L406 667 L106 667 L101 647 L193 647 L60 20 Z M410 837 L249 732 L254 720 L506 812 C519 817 524 822 524 829 C524 835 521 837 510 837 L410 837 Z " />
<glyph glyph-name="lacute" unicode="&#x13a;" horiz-adv-x="282" d="M35 20 L-48 20 L-52 0 L194 0 L198 20 L125 20 L262 667 L90 667 L85 647 L168 647 L35 20 Z M334 837 L174 732 L179 720 L430 812 C443 817 448 822 448 829 C448 835 445 837 435 837 L334 837 Z " />
<glyph glyph-name="Lcommaaccent" unicode="&#x13b;" horiz-adv-x="627" d="M60 20 L-32 20 L-36 0 L512 0 L574 206 L560 206 C487 50 439 15 307 20 L167 20 L300 647 L402 647 L406 667 L106 667 L101 647 L193 647 L60 20 Z M191 -259 C265 -214 307 -159 307 -107 C307 -66 281 -40 239 -40 C194 -40 155 -72 155 -108 C155 -132 171 -147 198 -147 C230 -147 255 -124 257 -92 C271 -101 276 -110 276 -125 C276 -162 242 -203 179 -240 L191 -259 Z " />
<glyph glyph-name="lcommaaccent" unicode="&#x13c;" horiz-adv-x="282" d="M35 20 L-48 20 L-52 0 L194 0 L198 20 L125 20 L262 667 L90 667 L85 647 L168 647 L35 20 Z M22 -249 C92 -206 131 -155 131 -105 C131 -65 106 -40 64 -40 C21 -40 -17 -71 -17 -107 C-17 -130 -1 -144 25 -144 C56 -144 80 -122 83 -91 C96 -99 101 -108 101 -123 C101 -158 68 -196 10 -231 L22 -249 Z " />
<glyph glyph-name="Lcaron" unicode="&#x13d;" horiz-adv-x="627" d="M60 20 L-32 20 L-36 0 L512 0 L574 206 L560 206 C487 50 439 15 307 20 L167 20 L300 647 L402 647 L406 667 L106 667 L101 647 L193 647 L60 20 Z M453 448 C527 494 568 548 568 600 C568 642 542 667 500 667 C455 667 416 635 416 599 C416 576 433 561 460 561 C492 561 516 584 519 615 C531 607 537 598 537 582 C535 544 497 499 441 467 L453 448 Z " />
<glyph glyph-name="lcaron" unicode="&#x13e;" horiz-adv-x="374" d="M35 20 L-48 20 L-52 0 L194 0 L198 20 L125 20 L262 667 L90 667 L85 647 L168 647 L35 20 Z M317 458 C387 501 426 553 426 602 C426 642 401 667 359 667 C316 667 278 636 278 600 C278 577 294 563 320 563 C351 563 375 585 378 616 C391 608 396 599 396 584 C396 550 364 511 305 477 L317 458 Z " />
<glyph glyph-name="Ldot" unicode="&#x13f;" horiz-adv-x="627" d="M60 20 L-32 20 L-36 0 L512 0 L574 206 L560 206 C487 50 439 15 307 20 L167 20 L300 647 L402 647 L406 667 L106 667 L101 647 L193 647 L60 20 Z M372 373 C339 373 309 344 309 312 C309 287 326 271 352 271 C386 271 415 299 415 333 C415 356 397 373 372 373 L372 373 Z " />
<glyph glyph-name="ldot" unicode="&#x140;" horiz-adv-x="316" d="M35 20 L-48 20 L-52 0 L194 0 L198 20 L125 20 L262 667 L90 667 L85 647 L168 647 L35 20 Z M292 373 C259 373 229 344 229 312 C229 287 246 271 272 271 C306 271 335 299 335 332 C335 356 317 373 292 373 L292 373 Z " />
<glyph glyph-name="Lslash" unicode="&#x141;" horiz-adv-x="627" d="M115 280 L11 220 L5 195 L110 255 L60 20 L-32 20 L-36 0 L512 0 L574 206 L560 206 C486 50 439 15 307 20 L167 20 L231 324 L440 444 L445 469 L236 349 L300 647 L402 647 L406 667 L106 667 L101 647 L193 647 L115 280 Z " />
<glyph glyph-name="lslash" unicode="&#x142;" horiz-adv-x="282" d="M100 330 L17 285 L12 260 L95 305 L34 20 L-48 20 L-52 0 L194 0 L198 20 L124 20 L196 360 L290 412 L295 437 L202 386 L261 667 L90 667 L85 647 L167 647 L100 330 Z " />
<glyph glyph-name="Nacute" unicode="&#x143;" horiz-adv-x="735" d="M53 20 L-39 20 L-43 0 L166 0 L170 20 L76 20 L205 628 L525 0 L549 0 L686 647 L778 647 L782 667 L573 667 L569 647 L663 647 L567 196 C542 252 534 269 480 374 L329 667 L99 667 L94 647 L186 647 L53 20 Z M573 837 L412 732 L417 720 L669 812 C682 817 687 822 687 829 C687 835 684 837 673 837 L573 837 Z " />
<glyph glyph-name="nacute" unicode="&#x144;" horiz-adv-x="579" d="M40 20 L-34 20 L-38 0 L200 0 L205 20 L130 20 L155 139 C181 261 197 305 227 333 C251 357 292 373 325 373 C364 373 387 352 387 316 C387 294 381 259 363 174 L330 20 L255 20 L251 0 L489 0 L494 20 L420 20 L468 242 C475 279 479 302 479 315 C479 368 430 403 354 403 C294 403 245 384 198 341 L209 393 L46 393 L41 373 L115 373 L40 20 Z M415 616 L288 473 L295 463 L491 599 C496 603 498 606 498 610 C498 614 496 616 490 616 L415 616 Z " />
<glyph glyph-name="Ncommaaccent" unicode="&#x145;" horiz-adv-x="735" d="M53 20 L-39 20 L-43 0 L166 0 L170 20 L76 20 L205 628 L525 0 L549 0 L686 647 L778 647 L782 667 L573 667 L569 647 L663 647 L567 196 C542 252 534 269 480 374 L329 667 L99 667 L94 647 L186 647 L53 20 Z M243 -259 C316 -214 358 -159 358 -107 C358 -66 332 -40 290 -40 C245 -40 206 -72 206 -108 C206 -132 223 -147 250 -147 C282 -147 306 -124 309 -92 C322 -101 327 -110 327 -125 C327 -162 293 -203 231 -240 L243 -259 Z " />
<glyph glyph-name="ncommaaccent" unicode="&#x146;" horiz-adv-x="579" d="M40 20 L-34 20 L-38 0 L200 0 L205 20 L130 20 L155 139 C181 261 197 305 227 333 C251 357 292 373 325 373 C364 373 387 352 387 316 C387 294 381 259 363 174 L330 20 L255 20 L251 0 L489 0 L494 20 L420 20 L468 242 C475 279 479 302 479 315 C479 368 430 403 354 403 C294 403 245 384 198 341 L209 393 L46 393 L41 373 L115 373 L40 20 Z M170 -249 C240 -207 279 -155 279 -105 C279 -65 254 -40 212 -40 C169 -40 131 -71 131 -107 C131 -130 147 -144 174 -144 C205 -144 229 -122 231 -91 C244 -99 249 -108 249 -123 C249 -158 216 -196 158 -231 L170 -249 Z " />
<glyph glyph-name="Ncaron" unicode="&#x147;" horiz-adv-x="735" d="M53 20 L-39 20 L-43 0 L166 0 L170 20 L76 20 L205 628 L525 0 L549 0 L686 647 L778 647 L782 667 L573 667 L569 647 L663 647 L567 196 C542 252 534 269 480 374 L329 667 L99 667 L94 647 L186 647 L53 20 Z M462 720 L653 832 L649 843 L478 795 L328 843 L319 832 L462 720 Z " />
<glyph glyph-name="ncaron" unicode="&#x148;" horiz-adv-x="579" d="M40 20 L-34 20 L-38 0 L200 0 L205 20 L130 20 L155 139 C181 261 197 305 227 333 C251 357 292 373 325 373 C364 373 387 352 387 316 C387 294 381 259 363 174 L330 20 L255 20 L251 0 L489 0 L494 20 L420 20 L468 242 C475 279 479 302 479 315 C479 368 430 403 354 403 C294 403 245 384 198 341 L209 393 L46 393 L41 373 L115 373 L40 20 Z M348 547 L228 620 L218 610 L330 463 L505 610 L499 620 L348 547 Z " />
<glyph glyph-name="Omacron" unicode="&#x14c;" horiz-adv-x="730" d="M440 677 C239 677 39 471 39 264 C39 105 145 -10 289 -10 C393 -10 494 39 574 127 C650 210 692 310 692 403 C692 563 587 677 440 677 L440 677 Z M434 654 C532 654 586 607 586 520 C586 477 574 400 552 305 C520 164 498 110 457 72 C417 34 359 13 296 13 C249 13 205 28 179 53 C156 75 146 105 146 147 C146 189 158 268 180 362 C212 502 234 557 275 595 C315 633 373 654 434 654 L434 654 Z M305 785 L298 750 L611 750 L618 785 L305 785 Z " />
<glyph glyph-name="omacron" unicode="&#x14d;" horiz-adv-x="522" d="M276 403 C136 403 5 284 5 157 C5 61 82 -10 185 -10 C328 -10 459 108 459 236 C459 333 383 403 276 403 L276 403 Z M271 380 C333 380 368 357 368 315 C368 291 367 285 331 121 C314 44 274 13 191 13 C131 13 96 37 96 78 C96 103 97 109 133 272 C149 348 190 380 271 380 L271 380 Z M168 544 L160 510 L437 510 L444 544 L168 544 Z " />
<glyph glyph-name="Ohungarumlaut" unicode="&#x150;" horiz-adv-x="731" d="M440 677 C239 677 39 471 39 264 C39 105 145 -10 289 -10 C393 -10 494 39 574 127 C650 210 692 310 692 403 C692 563 587 677 440 677 L440 677 Z M434 654 C532 654 586 607 586 520 C586 477 574 400 552 305 C520 164 498 110 457 72 C417 34 359 13 296 13 C249 13 205 28 179 53 C156 75 146 105 146 147 C146 189 158 268 180 362 C212 502 234 557 275 595 C315 633 373 654 434 654 L434 654 Z M680 837 L545 732 L550 720 L755 812 C770 819 773 821 773 829 C773 835 770 837 759 837 L680 837 Z M494 837 L359 732 L364 720 L569 812 C584 819 587 821 587 829 C587 835 584 837 573 837 L494 837 Z " />
<glyph glyph-name="ohungarumlaut" unicode="&#x151;" horiz-adv-x="522" d="M276 403 C136 403 5 284 5 157 C5 61 82 -10 185 -10 C328 -10 459 108 459 236 C459 333 383 403 276 403 L276 403 Z M271 380 C333 380 368 357 368 315 C368 291 367 285 331 121 C314 44 274 13 191 13 C131 13 96 37 96 78 C96 103 97 109 133 272 C149 348 190 380 271 380 L271 380 Z M489 616 L361 473 L369 463 L558 599 C563 603 565 606 565 610 C565 614 563 616 557 616 L489 616 Z M335 616 L208 473 L215 463 L404 599 C409 603 411 606 411 610 C411 614 409 616 404 616 L335 616 Z " />
<glyph glyph-name="OE" unicode="&#x152;" horiz-adv-x="1012" d="M1004 667 L558 667 C525 675 504 677 471 677 C241 677 38 481 38 258 C38 182 64 114 113 66 C163 15 230 -10 319 -10 C352 -10 376 -8 416 0 L880 0 L945 208 L930 208 C849 50 801 13 685 20 L536 20 L602 328 L642 328 C724 328 751 310 751 257 C751 244 750 236 744 196 L760 196 L818 471 L803 471 C778 362 751 346 606 347 L670 647 L760 647 C911 652 952 618 958 484 L973 484 L1004 667 Z M432 29 C385 17 358 13 317 13 C201 13 147 58 147 153 C147 198 158 272 179 362 C213 510 236 561 282 598 C328 634 392 654 462 654 C497 654 521 650 561 639 L432 29 Z " />
<glyph glyph-name="oe" unicode="&#x153;" horiz-adv-x="769" d="M716 227 C719 246 720 255 720 265 C720 344 654 403 563 403 L559 403 C506 402 456 380 410 337 C380 378 329 403 275 403 C218 403 167 385 118 349 C48 297 4 222 4 153 C4 61 80 -10 177 -10 C238 -10 292 12 345 58 C377 13 424 -10 486 -10 C578 -10 656 44 696 135 L667 135 C629 57 568 13 494 13 C440 13 412 37 412 82 C412 111 417 145 436 227 L716 227 Z M440 247 C450 304 457 324 472 344 C488 365 521 379 556 379 C596 379 621 359 621 327 C621 316 620 308 612 271 C611 268 610 258 607 247 L440 247 Z M256 379 C310 379 340 354 340 311 C340 286 316 161 299 103 C282 42 244 13 179 13 C127 13 98 38 98 83 C98 116 127 267 141 303 C159 353 199 379 256 379 L256 379 Z " />
<glyph glyph-name="Racute" unicode="&#x154;" horiz-adv-x="701" d="M60 20 L-32 20 L-36 0 L265 0 L269 20 L167 20 L236 345 L276 345 C382 345 420 322 420 258 C420 242 418 224 412 195 C404 150 401 131 401 112 C401 41 450 -4 528 -4 C552 -4 580 1 611 12 L607 30 C582 21 572 19 561 19 C538 19 523 36 523 61 C523 75 525 86 534 124 C543 160 546 180 546 202 C546 283 485 340 382 353 C536 362 643 440 643 543 C643 580 625 610 588 633 C543 661 503 667 355 667 L106 667 L101 647 L193 647 L60 20 Z M240 367 L300 647 L349 647 C442 647 477 639 503 614 C520 597 528 574 528 544 C528 497 509 448 478 416 C441 379 394 367 284 367 L240 367 Z M505 837 L345 732 L350 720 L602 812 C615 817 620 822 620 829 C620 835 617 837 606 837 L505 837 Z " />
<glyph glyph-name="racute" unicode="&#x155;" horiz-adv-x="408" d="M40 20 L-34 20 L-38 0 L208 0 L212 20 L130 20 L149 113 C174 230 198 286 243 337 C257 352 271 362 281 362 C285 362 289 358 289 354 C289 351 289 348 287 341 C286 336 286 333 286 330 C286 310 304 294 328 294 C366 294 397 322 397 356 C397 385 374 403 336 403 C283 403 236 369 189 298 L209 393 L46 393 L41 373 L115 373 L40 20 Z M355 616 L228 473 L235 463 L431 599 C436 603 438 606 438 610 C438 614 436 616 430 616 L355 616 Z " />
<glyph glyph-name="Rcommaaccent" unicode="&#x156;" horiz-adv-x="701" d="M60 20 L-32 20 L-36 0 L265 0 L269 20 L167 20 L236 345 L276 345 C382 345 420 322 420 258 C420 242 418 224 412 195 C404 150 401 131 401 112 C401 41 450 -4 528 -4 C552 -4 580 1 611 12 L607 30 C582 21 572 19 561 19 C538 19 523 36 523 61 C523 75 525 86 534 124 C543 160 546 180 546 202 C546 283 485 340 382 353 C536 362 643 440 643 543 C643 580 625 610 588 633 C543 661 503 667 355 667 L106 667 L101 647 L193 647 L60 20 Z M240 367 L300 647 L349 647 C442 647 477 639 503 614 C520 597 528 574 528 544 C528 497 509 448 478 416 C441 379 394 367 284 367 L240 367 Z M205 -259 C279 -214 320 -159 320 -107 C320 -66 294 -40 252 -40 C207 -40 169 -72 169 -108 C169 -132 185 -147 212 -147 C244 -147 269 -124 271 -92 C284 -101 289 -110 289 -125 C289 -162 255 -203 193 -240 L205 -259 Z " />
<glyph glyph-name="rcommaaccent" unicode="&#x157;" horiz-adv-x="408" d="M40 20 L-34 20 L-38 0 L208 0 L212 20 L130 20 L149 113 C174 230 198 286 243 337 C257 352 271 362 281 362 C285 362 289 358 289 354 C289 351 289 348 287 341 C286 336 286 333 286 330 C286 310 304 294 328 294 C366 294 397 322 397 356 C397 385 374 403 336 403 C283 403 236 369 189 298 L209 393 L46 393 L41 373 L115 373 L40 20 Z M28 -249 C98 -207 137 -155 137 -105 C137 -65 112 -40 70 -40 C27 -40 -11 -71 -11 -107 C-11 -130 5 -144 32 -144 C63 -144 87 -122 89 -91 C102 -99 107 -108 107 -123 C107 -158 74 -196 16 -231 L28 -249 Z " />
<glyph glyph-name="Rcaron" unicode="&#x158;" horiz-adv-x="701" d="M60 20 L-32 20 L-36 0 L265 0 L269 20 L167 20 L236 345 L276 345 C382 345 420 322 420 258 C420 242 418 224 412 195 C404 150 401 131 401 112 C401 41 450 -4 528 -4 C552 -4 580 1 611 12 L607 30 C582 21 572 19 561 19 C538 19 523 36 523 61 C523 75 525 86 534 124 C543 160 546 180 546 202 C546 283 485 340 382 353 C536 362 643 440 643 543 C643 580 625 610 588 633 C543 661 503 667 355 667 L106 667 L101 647 L193 647 L60 20 Z M240 367 L300 647 L349 647 C442 647 477 639 503 614 C520 597 528 574 528 544 C528 497 509 448 478 416 C441 379 394 367 284 367 L240 367 Z M420 720 L611 832 L607 843 L436 795 L286 843 L277 832 L420 720 Z " />
<glyph glyph-name="rcaron" unicode="&#x159;" horiz-adv-x="408" d="M40 20 L-34 20 L-38 0 L208 0 L212 20 L130 20 L149 113 C174 230 198 286 243 337 C257 352 271 362 281 362 C285 362 289 358 289 354 C289 351 289 348 287 341 C286 336 286 333 286 330 C286 310 304 294 328 294 C366 294 397 322 397 356 C397 385 374 403 336 403 C283 403 236 369 189 298 L209 393 L46 393 L41 373 L115 373 L40 20 Z M273 547 L154 620 L144 610 L256 463 L430 610 L424 620 L273 547 Z " />
<glyph glyph-name="Sacute" unicode="&#x15a;" horiz-adv-x="548" d="M533 677 L517 677 L470 636 C429 664 388 677 341 677 C213 677 92 560 92 437 C92 404 102 376 123 354 C146 330 175 318 262 296 C344 276 361 270 380 255 C402 238 413 215 413 185 C413 89 326 13 218 13 C109 13 43 79 43 185 L43 206 L27 206 L-17 0 L6 0 L57 48 C102 8 148 -10 210 -10 C354 -10 481 119 481 266 C481 306 468 339 442 365 C417 389 396 398 312 419 C181 452 159 465 159 513 C159 590 239 654 333 654 C419 654 480 600 480 524 C480 520 480 513 479 501 L495 501 L533 677 Z M480 837 L320 732 L325 720 L577 812 C590 817 595 822 595 829 C595 835 592 837 581 837 L480 837 Z " />
<glyph glyph-name="sacute" unicode="&#x15b;" horiz-adv-x="375" d="M334 398 L317 398 L293 366 C261 393 235 403 195 403 C108 403 35 334 35 253 C35 230 42 210 53 195 C71 174 96 164 163 154 C236 143 256 131 256 99 C256 54 200 13 138 13 C96 13 59 32 43 61 C31 84 25 110 22 150 L6 150 L-22 0 L-10 0 L23 32 C58 1 87 -10 130 -10 C222 -10 302 66 302 153 C302 213 271 238 176 254 C99 266 78 277 78 303 C78 342 132 380 189 380 C255 380 296 342 296 280 L313 280 L334 398 Z M321 616 L194 473 L201 463 L397 599 C402 603 404 606 404 610 C404 614 402 616 397 616 L321 616 Z " />
<glyph glyph-name="Scircumflex" unicode="&#x15c;" horiz-adv-x="548" d="M533 677 L517 677 L470 636 C429 664 388 677 341 677 C213 677 92 560 92 437 C92 404 102 376 123 354 C146 330 175 318 262 296 C344 276 361 270 380 255 C402 238 413 215 413 185 C413 89 326 13 218 13 C109 13 43 79 43 185 L43 206 L27 206 L-17 0 L6 0 L57 48 C102 8 148 -10 210 -10 C354 -10 481 119 481 266 C481 306 468 339 442 365 C417 389 396 398 312 419 C181 452 159 465 159 513 C159 590 239 654 333 654 C419 654 480 600 480 524 C480 520 480 513 479 501 L495 501 L533 677 Z M386 843 L195 732 L199 720 L370 769 L520 720 L529 732 L386 843 Z " />
<glyph glyph-name="scircumflex" unicode="&#x15d;" horiz-adv-x="375" d="M334 398 L317 398 L293 366 C261 393 235 403 195 403 C108 403 35 334 35 253 C35 230 42 210 53 195 C71 174 96 164 163 154 C236 143 256 131 256 99 C256 54 200 13 138 13 C96 13 59 32 43 61 C31 84 25 110 22 150 L6 150 L-22 0 L-10 0 L23 32 C58 1 87 -10 130 -10 C222 -10 302 66 302 153 C302 213 271 238 176 254 C99 266 78 277 78 303 C78 342 132 380 189 380 C255 380 296 342 296 280 L313 280 L334 398 Z M242 536 L362 463 L372 473 L260 620 L85 474 L91 464 L242 536 Z " />
<glyph glyph-name="Scedilla" unicode="&#x15e;" horiz-adv-x="548" d="M214 -10 C277 -8 328 12 375 51 C440 105 481 187 481 266 C481 306 468 339 442 365 C418 389 395 398 312 419 C182 451 159 465 159 513 C159 590 239 654 333 654 C419 654 480 600 480 524 C480 520 480 513 479 501 L495 501 L533 677 L517 677 L470 636 C429 664 388 677 341 677 C213 677 92 560 92 437 C92 404 102 376 123 354 C146 330 175 318 262 296 C344 276 361 270 380 255 C402 238 413 215 413 185 C413 89 326 13 218 13 C109 13 43 79 43 185 L43 206 L27 206 L-17 0 L6 0 L57 48 C94 13 136 -5 192 -9 L162 -61 C204 -75 215 -85 215 -109 C215 -142 186 -165 144 -165 C122 -165 99 -156 99 -147 C99 -145 100 -143 103 -139 C106 -133 108 -128 108 -122 C108 -108 102 -100 91 -100 C78 -100 67 -113 67 -129 C67 -140 78 -158 90 -166 C105 -175 131 -181 159 -181 C226 -181 287 -141 287 -98 C287 -72 253 -52 208 -52 C204 -52 198 -52 190 -53 L214 -10 Z " />
<glyph glyph-name="scedilla" unicode="&#x15f;" horiz-adv-x="375" d="M135 -10 C226 -7 302 68 302 153 C302 213 271 238 176 254 C99 266 78 277 78 303 C78 342 132 380 189 380 C255 380 296 342 296 280 L313 280 L334 398 L317 398 L293 366 C261 393 235 403 195 403 C108 403 35 334 35 253 C35 230 42 210 53 195 C71 174 96 164 163 154 C236 143 256 131 256 99 C256 54 200 13 138 13 C96 13 59 32 43 61 C31 84 25 110 22 150 L6 150 L-22 0 L-10 0 L23 32 C52 6 78 -6 114 -9 L84 -60 C126 -74 136 -83 136 -107 C136 -139 108 -161 68 -161 C44 -161 22 -152 22 -143 C22 -141 23 -140 26 -135 C29 -130 31 -125 31 -119 C31 -106 25 -98 15 -98 C1 -98 -9 -110 -9 -126 C-9 -158 26 -178 81 -178 C147 -178 206 -140 206 -97 C206 -70 174 -52 128 -52 L111 -52 L135 -10 Z " />
<glyph glyph-name="Scaron" unicode="&#x160;" horiz-adv-x="548" d="M368 720 L558 832 L555 843 L384 795 L233 843 L225 832 L368 720 Z M533 677 L517 677 L470 636 C429 664 388 677 341 677 C213 677 92 560 92 437 C92 404 102 376 123 354 C146 330 175 318 262 296 C344 276 361 270 380 255 C402 238 413 215 413 185 C413 89 326 13 218 13 C109 13 43 79 43 185 L43 206 L27 206 L-17 0 L6 0 L57 48 C102 8 148 -10 210 -10 C354 -10 481 119 481 266 C481 306 468 339 442 365 C417 389 396 398 312 419 C181 452 159 465 159 513 C159 590 239 654 333 654 C419 654 480 600 480 524 C480 520 480 513 479 501 L495 501 L533 677 Z " />
<glyph glyph-name="scaron" unicode="&#x161;" horiz-adv-x="375" d="M334 398 L317 398 L293 366 C261 393 235 403 195 403 C108 403 35 334 35 253 C35 230 42 210 53 195 C71 174 96 164 163 154 C236 143 256 131 256 99 C256 54 200 13 138 13 C96 13 59 32 43 61 C31 84 25 110 22 150 L6 150 L-22 0 L-10 0 L23 32 C58 1 87 -10 130 -10 C222 -10 302 66 302 153 C302 213 271 238 176 254 C99 266 78 277 78 303 C78 342 132 380 189 380 C255 380 296 342 296 280 L313 280 L334 398 Z M240 547 L120 620 L110 610 L222 463 L397 610 L391 620 L240 547 Z " />
<glyph glyph-name="Tcommaaccent" unicode="&#x162;" horiz-adv-x="628" d="M193 20 L90 20 L86 0 L400 0 L404 20 L302 20 L435 647 L465 647 C541 648 561 641 588 605 C616 564 627 519 626 456 L642 456 L679 667 L90 667 L37 456 L54 456 C79 520 108 563 152 605 C193 641 216 648 288 647 L326 647 L193 20 Z M187 -259 C261 -214 302 -159 302 -107 C302 -66 276 -40 234 -40 C189 -40 150 -72 150 -108 C150 -132 167 -147 194 -147 C226 -147 250 -124 253 -92 C266 -101 271 -110 271 -125 C271 -162 237 -203 175 -240 L187 -259 Z " />
<glyph glyph-name="tcommaaccent" unicode="&#x163;" horiz-adv-x="320" d="M236 546 L220 546 C178 476 117 423 36 387 L33 373 L109 373 L55 119 C49 90 45 68 45 59 C45 19 84 -10 136 -10 C202 -10 246 18 269 75 L246 75 C230 38 208 21 175 21 C149 21 133 34 133 55 C133 61 135 71 138 89 L199 373 L310 373 L314 393 L203 393 L236 546 Z M65 -249 C135 -206 174 -155 174 -105 C174 -65 149 -40 107 -40 C64 -40 26 -71 26 -107 C26 -130 42 -144 68 -144 C99 -144 124 -122 126 -91 C138 -98 144 -109 144 -121 L144 -123 C144 -157 106 -202 53 -231 L65 -249 Z " />
<glyph glyph-name="Tcaron" unicode="&#x164;" horiz-adv-x="628" d="M193 20 L90 20 L86 0 L400 0 L404 20 L302 20 L435 647 L465 647 C541 648 561 641 588 605 C616 564 627 519 626 456 L642 456 L679 667 L90 667 L37 456 L54 456 C79 520 108 563 152 605 C193 641 216 648 288 647 L326 647 L193 20 Z M396 720 L586 832 L583 843 L412 795 L261 843 L253 832 L396 720 Z " />
<glyph glyph-name="tcaron" unicode="&#x165;" horiz-adv-x="364" d="M235 546 L220 546 C178 475 117 423 36 387 L33 373 L109 373 L55 119 C49 91 45 68 45 59 C45 19 84 -10 136 -10 C202 -10 246 18 269 75 L246 75 C230 38 208 21 175 21 C149 21 133 34 133 55 C133 61 135 73 138 89 L199 373 L309 373 L314 393 L203 393 L235 546 Z M303 458 C373 501 412 553 412 602 C412 642 387 667 345 667 C302 667 264 636 264 600 C264 577 280 563 307 563 C337 563 362 586 364 616 C376 609 382 599 382 587 L382 584 C382 550 344 506 291 477 L303 458 Z " />
<glyph glyph-name="utilde" unicode="&#x169;" horiz-adv-x="583" d="M496 393 L324 393 L320 373 L402 373 L372 233 C349 122 337 91 307 59 C279 30 238 13 197 13 C156 13 136 26 136 55 C136 67 143 109 154 160 L204 393 L31 393 L27 373 L109 373 L64 160 C56 121 51 91 51 77 C51 23 98 -10 176 -10 C243 -10 295 11 334 55 L323 0 L486 0 L490 20 L417 20 L496 393 Z M485 580 C459 552 452 548 430 548 C415 548 399 551 385 556 L344 571 C319 580 309 582 291 582 C247 582 221 564 183 506 L194 498 C215 524 226 530 250 530 C265 530 282 527 300 520 L339 507 C359 500 378 496 392 496 C427 496 457 518 496 572 L485 580 Z " />
<glyph glyph-name="Umacron" unicode="&#x16a;" horiz-adv-x="706" d="M636 647 L554 265 C531 155 523 132 495 94 C456 41 397 13 323 13 C234 13 179 55 179 124 C179 144 185 178 203 265 L285 647 L387 647 L391 667 L91 667 L86 647 L178 647 L97 265 C85 208 77 158 77 136 C77 46 162 -10 298 -10 C382 -10 450 15 495 61 C538 105 551 137 578 265 L659 647 L753 647 L757 667 L548 667 L544 647 L636 647 Z M303 785 L295 750 L609 750 L616 785 L303 785 Z " />
<glyph glyph-name="umacron" unicode="&#x16b;" horiz-adv-x="583" d="M496 393 L324 393 L320 373 L402 373 L372 233 C349 122 337 91 307 59 C279 30 238 13 197 13 C156 13 136 26 136 55 C136 67 143 109 154 160 L204 393 L31 393 L27 373 L109 373 L64 160 C56 121 51 91 51 77 C51 23 98 -10 176 -10 C243 -10 295 11 334 55 L323 0 L486 0 L490 20 L417 20 L496 393 Z M198 544 L191 510 L468 510 L475 544 L198 544 Z " />
<glyph glyph-name="ubreve" unicode="&#x16d;" horiz-adv-x="583" d="M496 393 L324 393 L320 373 L402 373 L372 233 C349 122 337 91 307 59 C279 30 238 13 197 13 C156 13 136 26 136 55 C136 67 143 109 154 160 L204 393 L31 393 L27 373 L109 373 L64 160 C56 121 51 91 51 77 C51 23 98 -10 176 -10 C243 -10 295 11 334 55 L323 0 L486 0 L490 20 L417 20 L496 393 Z M475 613 C444 559 394 528 336 528 C277 528 241 559 237 613 L224 613 C222 597 221 590 221 580 C221 511 262 467 324 467 C400 467 465 525 487 613 L475 613 Z " />
<glyph glyph-name="Uring" unicode="&#x16e;" horiz-adv-x="706" d="M636 647 L554 265 C531 155 523 132 495 94 C456 41 397 13 323 13 C234 13 179 55 179 124 C179 144 185 178 203 265 L285 647 L387 647 L391 667 L91 667 L86 647 L178 647 L97 265 C85 208 77 158 77 136 C77 46 162 -10 298 -10 C382 -10 450 15 495 61 C538 105 551 137 578 265 L659 647 L753 647 L757 667 L548 667 L544 647 L636 647 Z M492 859 C442 859 397 815 397 766 C397 731 422 707 458 707 C508 707 552 750 552 800 C552 834 526 859 492 859 L492 859 Z M485 831 C506 831 522 814 522 793 C522 764 493 735 463 735 C443 735 427 752 427 773 C427 802 456 831 485 831 L485 831 Z " />
<glyph glyph-name="uring" unicode="&#x16f;" horiz-adv-x="583" d="M496 393 L324 393 L320 373 L402 373 L372 233 C349 122 337 91 307 59 C279 30 238 13 197 13 C156 13 136 26 136 55 C136 67 143 109 154 160 L204 393 L31 393 L27 373 L109 373 L64 160 C56 121 51 91 51 77 C51 23 98 -10 176 -10 C243 -10 295 11 334 55 L323 0 L486 0 L490 20 L417 20 L496 393 Z M363 615 C314 615 269 571 269 522 C269 487 294 463 330 463 C380 463 423 506 423 556 C423 590 398 615 363 615 L363 615 Z M356 587 C377 587 393 570 393 549 C393 520 364 491 335 491 C315 491 299 508 299 529 C299 558 328 587 356 587 L356 587 Z " />
<glyph glyph-name="Uhungarumlaut" unicode="&#x170;" horiz-adv-x="706" d="M636 647 L554 265 C531 155 523 132 495 94 C456 41 397 13 323 13 C234 13 179 55 179 124 C179 144 185 178 203 265 L285 647 L387 647 L391 667 L91 667 L86 647 L178 647 L97 265 C85 208 77 158 77 136 C77 46 162 -10 298 -10 C382 -10 450 15 495 61 C538 105 551 137 578 265 L659 647 L753 647 L757 667 L548 667 L544 647 L636 647 Z M676 837 L541 732 L546 720 L751 812 C766 819 769 821 769 829 C769 835 766 837 755 837 L676 837 Z M490 837 L355 732 L359 720 L564 812 C580 819 583 821 583 829 C583 835 580 837 569 837 L490 837 Z " />
<glyph glyph-name="uhungarumlaut" unicode="&#x171;" horiz-adv-x="583" d="M496 393 L324 393 L320 373 L402 373 L372 233 C349 122 337 91 307 59 C279 30 238 13 197 13 C156 13 136 26 136 55 C136 67 143 109 154 160 L204 393 L31 393 L27 373 L109 373 L64 160 C56 121 51 91 51 77 C51 23 98 -10 176 -10 C243 -10 295 11 334 55 L323 0 L486 0 L490 20 L417 20 L496 393 Z M507 616 L380 473 L387 463 L576 599 C581 603 583 606 583 610 C583 614 581 616 575 616 L507 616 Z M354 616 L226 473 L234 463 L423 599 C428 603 430 606 430 610 C430 614 428 616 422 616 L354 616 Z " />
<glyph glyph-name="Uogonek" unicode="&#x172;" horiz-adv-x="706" d="M445 -127 C421 -134 407 -136 389 -136 C352 -136 332 -123 332 -97 C332 -65 358 -34 417 4 C523 68 545 105 578 265 L659 647 L753 647 L757 667 L548 667 L544 647 L636 647 L554 265 C531 155 523 132 495 94 C456 41 397 13 323 13 C234 13 179 55 179 124 C179 144 185 178 203 265 L285 647 L387 647 L391 667 L91 667 L86 647 L178 647 L97 265 C85 208 77 158 77 136 C77 47 162 -10 296 -10 C322 -10 345 -8 370 -3 C306 -29 267 -72 267 -114 C267 -145 297 -165 344 -165 C376 -165 408 -158 442 -144 L445 -127 Z " />
<glyph glyph-name="uogonek" unicode="&#x173;" horiz-adv-x="583" d="M486 0 L490 20 L417 20 L496 393 L324 393 L320 373 L402 373 L372 233 C349 122 337 91 307 59 C279 30 238 13 197 13 C156 13 136 26 136 55 C136 67 143 109 154 160 L204 393 L31 393 L27 373 L109 373 L64 160 C56 121 51 91 51 77 C51 23 98 -10 176 -10 C243 -10 295 11 334 55 L323 0 L392 0 C310 -27 268 -65 268 -112 C268 -142 297 -162 343 -162 C375 -162 404 -155 438 -141 L442 -124 C419 -131 404 -133 387 -133 C350 -133 331 -120 331 -95 C331 -61 359 -33 426 0 L486 0 Z " />
<glyph glyph-name="Wcircumflex" unicode="&#x174;" horiz-adv-x="879" d="M888 647 L946 647 L951 667 L764 667 L760 647 L858 647 L582 151 L534 442 L656 647 L722 647 L726 667 L68 667 L64 647 L124 647 L236 -10 L261 -10 L439 287 L492 -10 L517 -10 L888 647 Z M620 647 L527 482 L504 647 L620 647 Z M376 647 L434 326 L329 151 L248 647 L376 647 Z M576 843 L386 732 L389 720 L561 769 L711 720 L719 732 L576 843 Z " />
<glyph glyph-name="Ycircumflex" unicode="&#x176;" horiz-adv-x="636" d="M193 20 L90 20 L86 0 L398 0 L402 20 L299 20 L362 316 C371 325 372 326 377 334 C380 337 383 340 385 344 C392 352 397 358 401 363 L421 384 L633 647 L710 647 L714 667 L499 667 L495 647 L604 647 L360 356 C360 363 357 372 353 384 L247 647 L341 647 L345 667 L60 667 L56 647 L112 647 L255 316 L193 20 Z M433 843 L243 732 L246 720 L417 769 L568 720 L576 732 L433 843 Z " />
<glyph glyph-name="ycircumflex" unicode="&#x177;" horiz-adv-x="451" d="M418 373 L461 373 L465 393 L306 393 L301 373 L388 373 L231 117 L163 373 L240 373 L244 393 L10 393 L6 373 L53 373 L161 0 L68 -148 C37 -196 33 -201 21 -201 C15 -201 13 -199 8 -190 C0 -176 -14 -169 -34 -169 C-69 -169 -98 -195 -98 -226 C-98 -248 -75 -265 -46 -265 C4 -265 42 -235 89 -159 L418 373 Z M283 536 L403 463 L413 473 L301 620 L126 474 L132 464 L283 536 Z " />
<glyph glyph-name="Ydieresis" unicode="&#x178;" horiz-adv-x="636" d="M321 830 C289 830 257 799 257 768 C257 744 274 727 299 727 C333 727 363 757 363 790 C363 813 345 830 321 830 L321 830 Z M552 830 C520 830 488 799 488 768 C488 744 505 727 530 727 C564 727 594 757 594 790 C594 813 576 830 552 830 L552 830 Z M193 20 L90 20 L86 0 L398 0 L402 20 L299 20 L362 316 C371 325 372 326 377 334 C380 337 383 340 385 344 C392 352 397 358 401 363 L421 384 L633 647 L710 647 L714 667 L499 667 L495 647 L604 647 L360 356 C360 363 357 372 353 384 L247 647 L341 647 L345 667 L60 667 L56 647 L112 647 L255 316 L193 20 Z " />
<glyph glyph-name="Zacute" unicode="&#x179;" horiz-adv-x="601" d="M-43 0 L480 0 L545 210 L531 210 C489 121 461 82 417 49 C380 23 365 20 268 20 L80 20 L654 667 L145 667 L80 463 L95 463 C170 614 222 654 332 647 L502 647 L-34 44 L-43 0 Z M519 837 L358 732 L363 720 L615 812 C628 817 633 822 633 829 C633 835 630 837 619 837 L519 837 Z " />
<glyph glyph-name="zacute" unicode="&#x17a;" horiz-adv-x="439" d="M430 393 L76 393 L43 240 L58 240 C118 357 143 375 238 373 L295 373 L-49 0 L330 0 L367 167 L353 167 C291 37 269 20 168 20 L81 20 L430 393 Z M372 616 L245 473 L252 463 L447 599 C452 602 454 606 454 610 C454 614 452 616 447 616 L372 616 Z " />
<glyph glyph-name="Zdotaccent" unicode="&#x17b;" horiz-adv-x="601" d="M-43 0 L480 0 L545 210 L531 210 C489 121 461 82 417 49 C380 23 365 20 268 20 L80 20 L654 667 L145 667 L80 463 L95 463 C170 614 222 654 332 647 L502 647 L-34 44 L-43 0 Z M439 832 C406 832 373 800 373 768 C373 744 391 727 417 727 C451 727 482 757 482 791 C482 814 463 832 439 832 L439 832 Z " />
<glyph glyph-name="zdotaccent" unicode="&#x17c;" horiz-adv-x="439" d="M430 393 L76 393 L43 240 L58 240 C118 357 143 375 238 373 L295 373 L-49 0 L330 0 L367 167 L353 167 C291 37 269 20 168 20 L81 20 L430 393 Z M305 592 C272 592 242 563 242 531 C242 506 259 490 285 490 C319 490 348 518 348 551 C348 575 330 592 305 592 L305 592 Z " />
<glyph glyph-name="Zcaron" unicode="&#x17d;" horiz-adv-x="601" d="M418 720 L608 832 L605 843 L434 795 L283 843 L275 832 L418 720 Z M-43 0 L480 0 L545 210 L531 210 C489 121 461 82 417 49 C380 23 365 20 268 20 L80 20 L654 667 L145 667 L80 463 L95 463 C170 614 222 654 332 647 L502 647 L-34 44 L-43 0 Z " />
<glyph glyph-name="zcaron" unicode="&#x17e;" horiz-adv-x="439" d="M298 547 L178 620 L168 610 L280 463 L454 610 L448 620 L298 547 Z M430 393 L76 393 L43 240 L58 240 C118 357 143 375 238 373 L295 373 L-49 0 L330 0 L367 167 L353 167 C291 37 269 20 168 20 L81 20 L430 393 Z " />
<glyph glyph-name="florin" unicode="&#x192;" horiz-adv-x="550" d="M216 317 L60 -48 C10 -166 -10 -202 -40 -227 C-59 -242 -79 -250 -98 -250 C-114 -250 -125 -245 -125 -239 C-125 -236 -123 -234 -116 -229 C-104 -219 -99 -212 -99 -201 C-99 -186 -111 -176 -130 -176 C-155 -176 -177 -197 -177 -222 C-177 -248 -147 -267 -105 -267 C-46 -267 16 -234 69 -174 C120 -115 148 -65 203 62 L311 317 L412 317 L420 337 L320 337 L368 449 C429 594 485 660 548 660 C556 660 561 657 561 652 C561 647 558 643 549 640 C530 632 521 623 521 609 C521 592 535 580 555 580 C586 580 614 604 614 631 C614 660 588 677 546 677 C487 677 421 643 365 584 C310 525 283 477 224 337 L128 337 L119 317 L216 317 Z " />
<glyph glyph-name="uni01CD" unicode="&#x1cd;" horiz-adv-x="645" d="M353 215 L384 20 L288 20 L284 0 L582 0 L586 20 L508 20 L409 667 L376 667 L-10 20 L-63 20 L-67 0 L111 0 L115 20 L20 20 L132 215 L353 215 Z M350 235 L144 235 L307 512 L350 235 Z M404 720 L594 832 L591 843 L420 795 L269 843 L261 832 L404 720 Z " />
<glyph glyph-name="uni01CE" unicode="&#x1ce;" horiz-adv-x="487" d="M391 35 C368 20 365 19 352 19 C341 19 336 25 336 36 C336 47 336 47 355 135 L378 245 C389 295 392 313 392 322 C392 370 339 402 258 402 C192 402 133 382 95 348 C74 329 64 311 64 294 C64 273 80 259 105 259 C134 259 161 283 161 307 C161 316 156 323 145 333 C141 337 139 339 139 342 C139 361 194 386 238 386 C282 386 306 370 306 342 C306 331 304 321 297 286 L282 217 C178 215 118 203 61 172 C14 147 -15 106 -15 65 C-15 19 25 -10 87 -10 C148 -10 207 18 251 68 C250 62 250 58 250 52 C250 15 278 -10 322 -10 C350 -10 372 -1 401 20 L391 35 Z M274 180 C263 127 252 99 233 79 C207 49 175 34 138 34 C100 34 78 52 78 83 C78 116 96 145 128 165 C166 189 201 197 279 200 L274 180 Z M304 547 L184 620 L174 610 L286 463 L460 610 L454 620 L304 547 Z " />
<glyph glyph-name="uni01D3" unicode="&#x1d3;" horiz-adv-x="706" d="M636 647 L554 265 C531 155 523 132 495 94 C456 41 397 13 323 13 C234 13 179 55 179 124 C179 144 185 178 203 265 L285 647 L387 647 L391 667 L91 667 L86 647 L178 647 L97 265 C85 208 77 158 77 136 C77 46 162 -10 298 -10 C382 -10 450 15 495 61 C538 105 551 137 578 265 L659 647 L753 647 L757 667 L548 667 L544 647 L636 647 Z M463 720 L653 832 L650 843 L478 795 L328 843 L320 832 L463 720 Z " />
<glyph glyph-name="uni01D4" unicode="&#x1d4;" horiz-adv-x="583" d="M496 393 L324 393 L320 373 L402 373 L372 233 C349 122 337 91 307 59 C279 30 238 13 197 13 C156 13 136 26 136 55 C136 67 143 109 154 160 L204 393 L31 393 L27 373 L109 373 L64 160 C56 121 51 91 51 77 C51 23 98 -10 176 -10 C243 -10 295 11 334 55 L323 0 L486 0 L490 20 L417 20 L496 393 Z M346 547 L226 620 L216 610 L328 463 L502 610 L496 620 L346 547 Z " />
<glyph glyph-name="Gcaron" unicode="&#x1e6;" horiz-adv-x="701" d="M652 667 L637 667 L591 627 C541 661 492 677 440 677 C235 677 38 470 38 256 C38 102 140 -10 281 -10 C373 -10 479 35 536 99 C564 129 579 159 594 213 L664 213 L668 233 L358 233 L354 213 L463 213 C449 151 438 121 422 95 C392 45 333 13 273 13 C193 13 143 58 143 129 C143 159 147 196 157 255 C184 409 220 527 254 576 C287 623 352 654 418 654 C465 654 499 645 529 623 C574 591 594 545 598 468 L615 468 L652 667 Z M441 720 L632 832 L628 843 L457 795 L307 843 L299 832 L441 720 Z " />
<glyph glyph-name="gcaron" unicode="&#x1e7;" horiz-adv-x="483" d="M251 22 L228 22 L168 21 C91 20 91 20 78 20 C28 20 12 27 12 50 C12 77 47 109 109 139 C136 127 155 123 186 123 C304 123 397 195 397 286 C397 309 391 329 378 350 C395 363 400 366 408 366 C414 366 417 361 417 350 C417 330 427 320 447 320 C473 320 496 342 496 368 C496 390 480 403 454 403 C427 403 403 391 366 362 C340 389 301 403 248 403 C139 403 43 325 43 237 C43 204 57 177 89 149 C8 106 -36 56 -36 7 C-36 -29 -14 -53 31 -64 C-35 -81 -77 -121 -77 -166 C-77 -227 -4 -272 97 -272 C171 -272 247 -247 294 -206 C342 -165 372 -106 372 -53 C372 1 341 22 265 22 L251 22 Z M246 383 C293 383 313 371 313 343 C313 319 294 229 283 200 C268 161 241 144 192 144 C149 144 129 159 129 191 C129 219 150 313 163 340 C177 371 201 383 246 383 L246 383 Z M122 -67 C136 -67 141 -67 219 -65 C264 -64 264 -64 269 -64 C303 -64 316 -72 316 -94 C316 -115 302 -146 281 -172 C242 -219 177 -247 107 -247 C45 -247 6 -215 6 -164 C6 -127 23 -94 59 -64 C80 -66 88 -67 114 -67 L122 -67 Z M289 547 L169 620 L159 610 L272 463 L446 610 L440 620 L289 547 Z " />
<glyph glyph-name="Scommaaccent" unicode="&#x218;" horiz-adv-x="548" d="M533 677 L517 677 L470 636 C429 664 388 677 341 677 C213 677 92 560 92 437 C92 404 102 376 123 354 C146 330 175 318 262 296 C344 276 361 270 380 255 C402 238 413 215 413 185 C413 89 326 13 218 13 C109 13 43 79 43 185 L43 206 L27 206 L-17 0 L6 0 L57 48 C102 8 148 -10 210 -10 C354 -10 481 119 481 266 C481 306 468 339 442 365 C417 389 396 398 312 419 C181 452 159 465 159 513 C159 590 239 654 333 654 C419 654 480 600 480 524 C480 520 480 513 479 501 L495 501 L533 677 Z M147 -259 C221 -214 262 -159 262 -107 C262 -66 236 -40 194 -40 C149 -40 110 -72 110 -108 C110 -132 126 -147 154 -147 C185 -147 210 -124 212 -92 C226 -101 231 -110 231 -125 C231 -162 197 -203 134 -240 L147 -259 Z " />
<glyph glyph-name="scommaaccent" unicode="&#x219;" horiz-adv-x="375" d="M334 398 L317 398 L293 366 C261 393 235 403 195 403 C108 403 35 334 35 253 C35 230 42 210 53 195 C71 174 96 164 163 154 C236 143 256 131 256 99 C256 54 200 13 138 13 C96 13 59 32 43 61 C31 84 25 110 22 150 L6 150 L-22 0 L-10 0 L23 32 C58 1 87 -10 130 -10 C222 -10 302 66 302 153 C302 213 271 238 176 254 C99 266 78 277 78 303 C78 342 132 380 189 380 C255 380 296 342 296 280 L313 280 L334 398 Z M62 -249 C132 -206 171 -155 171 -105 C171 -65 146 -40 104 -40 C61 -40 23 -71 23 -107 C23 -130 39 -144 65 -144 C96 -144 120 -122 123 -91 C136 -99 141 -108 141 -123 C141 -158 109 -196 50 -231 L62 -249 Z " />
<glyph glyph-name="uni021A" unicode="&#x21a;" horiz-adv-x="628" d="M193 20 L90 20 L86 0 L400 0 L404 20 L302 20 L435 647 L465 647 C541 648 561 641 588 605 C616 564 627 519 626 456 L642 456 L679 667 L90 667 L37 456 L54 456 C79 520 108 563 152 605 C193 641 216 648 288 647 L326 647 L193 20 Z M187 -259 C261 -214 302 -159 302 -107 C302 -66 276 -40 234 -40 C189 -40 150 -72 150 -108 C150 -132 167 -147 194 -147 C226 -147 250 -124 253 -92 C266 -101 271 -110 271 -125 C271 -162 237 -203 175 -240 L187 -259 Z " />
<glyph glyph-name="uni021B" unicode="&#x21b;" horiz-adv-x="320" d="M236 546 L220 546 C178 476 117 423 36 387 L33 373 L109 373 L55 119 C49 90 45 68 45 59 C45 19 84 -10 136 -10 C202 -10 246 18 269 75 L246 75 C230 38 208 21 175 21 C149 21 133 34 133 55 C133 61 135 71 138 89 L199 373 L310 373 L314 393 L203 393 L236 546 Z M65 -249 C135 -206 174 -155 174 -105 C174 -65 149 -40 107 -40 C64 -40 26 -71 26 -107 C26 -130 42 -144 68 -144 C99 -144 124 -122 126 -91 C138 -98 144 -109 144 -121 L144 -123 C144 -157 106 -202 53 -231 L65 -249 Z " />
<glyph glyph-name="circumflex" unicode="&#x2c6;" horiz-adv-x="521" d="M304 536 L424 463 L434 473 L321 620 L147 474 L153 464 L304 536 Z " />
<glyph glyph-name="caron" unicode="&#x2c7;" horiz-adv-x="521" d="M306 547 L186 620 L176 610 L288 463 L463 610 L457 620 L306 547 Z " />
<glyph glyph-name="uni02C9" unicode="&#x2c9;" horiz-adv-x="522" d="M167 544 L160 510 L437 510 L444 544 L167 544 Z " />
<glyph glyph-name="breve" unicode="&#x2d8;" horiz-adv-x="524" d="M440 613 C409 559 359 528 301 528 C243 528 206 559 202 613 L189 613 C187 597 186 590 186 580 C186 511 227 467 289 467 C366 467 430 524 453 613 L440 613 Z " />
<glyph glyph-name="dotaccent" unicode="&#x2d9;" horiz-adv-x="540" d="M324 592 C291 592 261 563 261 531 C261 506 278 490 304 490 C338 490 367 518 367 551 C367 575 349 592 324 592 L324 592 Z " />
<glyph glyph-name="ring" unicode="&#x2da;" horiz-adv-x="535" d="M314 615 C264 615 219 571 219 522 C219 487 244 463 280 463 C330 463 374 506 374 556 C374 590 348 615 314 615 L314 615 Z M307 587 C328 587 344 570 344 549 C344 520 315 491 285 491 C265 491 249 508 249 529 C249 558 278 587 307 587 L307 587 Z " />
<glyph glyph-name="ogonek" unicode="&#x2db;" horiz-adv-x="550" d="M356 0 C273 -29 232 -65 232 -112 C232 -142 261 -162 307 -162 C339 -162 369 -155 403 -141 L406 -124 C383 -131 369 -133 351 -133 C314 -133 295 -120 295 -95 C295 -61 324 -32 390 0 L356 0 Z " />
<glyph glyph-name="tilde" unicode="&#x2dc;" horiz-adv-x="520" d="M449 580 C423 552 416 548 393 548 C379 548 363 551 348 556 L308 571 C283 580 273 582 255 582 C210 582 185 564 147 506 L158 498 C178 524 189 530 213 530 C229 530 245 527 264 520 L303 507 C322 500 342 496 356 496 C391 496 421 518 460 572 L449 580 Z " />
<glyph glyph-name="hungarumlaut" unicode="&#x2dd;" horiz-adv-x="533" d="M479 616 L352 473 L359 463 L548 599 C553 603 555 606 555 610 C555 614 553 616 548 616 L479 616 Z M326 616 L199 473 L206 463 L395 599 C400 603 402 606 402 610 C402 614 400 616 395 616 L326 616 Z " />
<glyph glyph-name="Wdieresis" unicode="&#x1e84;" horiz-adv-x="879" d="M888 647 L946 647 L951 667 L764 667 L760 647 L858 647 L582 151 L534 442 L656 647 L722 647 L726 667 L68 667 L64 647 L124 647 L236 -10 L261 -10 L439 287 L492 -10 L517 -10 L888 647 Z M620 647 L527 482 L504 647 L620 647 Z M376 647 L434 326 L329 151 L248 647 L376 647 Z M449 830 C417 830 385 799 385 768 C385 744 403 727 428 727 C461 727 492 757 492 790 C492 813 474 830 449 830 L449 830 Z M680 830 C648 830 616 799 616 768 C616 744 634 727 659 727 C692 727 723 757 723 790 C723 813 705 830 680 830 L680 830 Z " />
<glyph glyph-name="uni2011" unicode="&#x2011;" horiz-adv-x="213" d="M-21 234 L-35 168 L178 168 L192 234 L-21 234 Z " />
<glyph glyph-name="figuredash" unicode="&#x2012;" horiz-adv-x="550" d="M20 234 L6 168 L473 168 L487 234 L20 234 Z " />
<glyph glyph-name="endash" unicode="&#x2013;" horiz-adv-x="550" d="M20 234 L6 168 L473 168 L487 234 L20 234 Z " />
<glyph glyph-name="emdash" unicode="&#x2014;" horiz-adv-x="640" d="M-21 234 L-35 168 L605 168 L619 234 L-21 234 Z " />
<glyph glyph-name="afii00208" unicode="&#x2015;" horiz-adv-x="640" d="M-21 234 L-35 168 L605 168 L619 234 L-21 234 Z " />
<glyph glyph-name="quoteleft" unicode="&#x2018;" horiz-adv-x="256" d="M223 677 C136 618 86 547 86 482 C86 439 111 412 152 412 C197 412 236 447 236 487 C236 513 220 528 194 528 C162 528 137 503 135 469 C123 478 118 488 118 504 C118 529 133 560 160 593 C180 617 194 628 235 656 L223 677 Z " />
<glyph glyph-name="quoteright" unicode="&#x2019;" horiz-adv-x="256" d="M123 412 C211 472 260 542 260 607 C260 650 235 677 194 677 C150 677 110 642 110 602 C110 576 126 561 152 561 C184 561 208 585 212 620 C223 612 228 601 228 587 C228 571 223 552 213 535 C190 493 167 470 111 432 L123 412 Z " />
<glyph glyph-name="quotesinglbase" unicode="&#x201a;" horiz-adv-x="271" d="M8 -151 C102 -92 155 -23 155 41 C155 86 127 114 81 114 C32 114 -10 79 -10 40 C-10 14 8 -2 37 -2 C72 -2 99 22 101 57 C117 47 123 36 123 19 C123 -5 107 -36 78 -67 C56 -91 41 -103 -5 -131 L8 -151 Z " />
<glyph glyph-name="quotedblleft" unicode="&#x201c;" horiz-adv-x="488" d="M455 677 C368 618 318 547 318 482 C318 439 343 412 384 412 C429 412 468 447 468 487 C468 513 452 528 426 528 C394 528 369 503 366 469 C355 478 350 488 350 504 C350 529 365 560 392 593 C412 617 425 628 467 656 L455 677 Z M223 677 C136 618 86 547 86 482 C86 439 111 412 152 412 C197 412 236 447 236 487 C236 513 220 528 194 528 C162 528 137 503 135 468 C123 478 118 488 118 504 C118 529 133 560 160 592 C180 617 194 628 235 656 L223 677 Z " />
<glyph glyph-name="quotedblright" unicode="&#x201d;" horiz-adv-x="488" d="M123 412 C210 471 260 542 260 607 C260 650 235 677 194 677 C150 677 110 642 110 602 C110 576 126 561 152 561 C184 561 209 586 212 620 C223 611 228 601 228 585 C228 560 213 528 186 496 C166 472 153 461 111 432 L123 412 Z M355 412 C443 472 492 542 492 607 C492 650 467 677 426 677 C382 677 342 642 342 602 C342 576 358 561 384 561 C416 561 440 585 444 620 C456 611 460 601 460 582 C460 560 444 526 418 496 C397 471 385 461 343 432 L355 412 Z " />
<glyph glyph-name="quotedblbase" unicode="&#x201e;" horiz-adv-x="503" d="M8 -151 C102 -93 155 -23 155 42 C155 86 127 114 81 114 C32 114 -10 79 -10 40 C-10 14 8 -2 37 -2 C72 -2 99 23 101 57 C117 47 123 36 123 19 C123 -5 107 -36 78 -67 C56 -91 41 -103 -5 -131 L8 -151 Z M240 -151 C334 -92 387 -23 387 41 C387 86 359 114 313 114 C264 114 222 80 222 40 C222 14 240 -2 269 -2 C304 -2 330 22 333 57 C349 47 355 36 355 17 C355 -5 337 -38 310 -67 C287 -92 273 -102 227 -131 L240 -151 Z " />
<glyph glyph-name="dagger" unicode="&#x2020;" horiz-adv-x="550" d="M274 369 C253 303 246 285 232 245 C143 0 118 -84 118 -140 C118 -170 136 -190 163 -190 C197 -190 224 -165 238 -119 C253 -73 267 28 273 126 L281 245 L284 281 C286 312 288 330 292 369 C336 356 342 354 398 336 C450 319 459 317 482 317 C524 317 558 345 558 381 C558 403 537 420 509 420 C498 420 482 418 465 415 C369 395 365 394 295 381 C309 413 312 421 329 458 C395 602 397 608 397 634 C397 661 378 677 348 677 C296 677 271 642 271 568 C271 558 271 537 272 513 C274 472 274 448 275 439 C275 419 275 409 276 381 C220 393 207 395 166 404 C96 420 96 420 78 420 C40 420 8 392 8 359 C8 333 28 317 61 317 C85 317 95 319 154 336 L202 350 L238 359 L274 369 Z " />
<glyph glyph-name="daggerdbl" unicode="&#x2021;" horiz-adv-x="550" d="M282 407 C267 351 248 310 208 248 C216 214 220 179 220 152 C220 135 219 120 215 89 C181 96 158 100 104 112 C34 128 34 128 16 128 C-22 128 -54 100 -54 67 C-54 41 -34 25 -1 25 C22 25 35 28 92 44 C109 49 117 51 176 67 L211 77 L199 51 C192 38 186 24 180 11 C129 -87 120 -111 120 -142 C120 -172 138 -190 169 -190 C214 -190 244 -148 244 -82 C244 -68 243 -50 241 -31 C238 -8 236 8 236 13 C235 20 235 33 234 53 L233 76 L261 67 C315 51 321 49 336 44 C386 28 397 25 420 25 C462 25 496 53 496 89 C496 111 475 128 447 128 C436 128 420 126 403 123 C314 104 287 99 236 90 C247 136 273 194 309 248 C302 281 298 310 298 347 L298 353 C298 371 299 382 304 406 L331 397 C385 381 392 379 406 374 C456 358 467 355 490 355 C532 355 566 383 566 419 C566 441 545 458 517 458 C506 458 490 456 473 453 C385 435 368 431 306 420 C311 431 315 440 317 444 C318 446 324 457 334 473 C379 554 398 601 398 633 C398 659 379 677 354 677 C303 677 273 636 273 565 C273 538 275 504 279 476 L283 445 L284 420 C251 426 244 427 174 442 C104 458 104 458 86 458 C48 458 16 430 16 397 C16 371 37 355 69 355 C92 355 105 358 162 374 C180 380 187 381 246 397 L282 407 Z " />
<glyph glyph-name="bullet" unicode="&#x2022;" horiz-adv-x="733" d="M399 480 C302 480 214 400 214 313 C214 247 266 200 338 200 C434 200 522 281 522 367 C522 432 470 480 399 480 L399 480 Z " />
<glyph glyph-name="ellipsis" unicode="&#x2026;" horiz-adv-x="785" d="M85 110 C44 110 5 76 5 40 C5 14 27 -7 55 -7 C98 -7 137 26 137 62 C137 90 115 110 85 110 L85 110 Z M347 110 C306 110 267 76 267 40 C267 14 289 -7 317 -7 C360 -7 399 26 399 62 C399 90 377 110 347 110 L347 110 Z M609 110 C568 110 529 76 529 40 C529 14 551 -7 579 -7 C622 -7 661 26 661 62 C661 90 639 110 609 110 L609 110 Z " />
<glyph glyph-name="perthousand" unicode="&#x2030;" horiz-adv-x="1126" d="M251 653 C151 653 57 553 57 447 C57 374 109 319 178 319 C280 319 373 418 373 525 C373 599 322 653 251 653 L251 653 Z M247 634 C286 634 304 617 304 579 C304 543 282 436 266 397 C250 356 224 337 183 337 C146 337 127 355 127 392 C127 428 149 535 165 574 C181 616 206 634 247 634 L247 634 Z M603 647 L122 0 L154 0 L635 647 L603 647 Z M578 328 C477 328 384 228 384 121 C384 49 436 -6 505 -6 C607 -6 700 93 700 200 C700 274 649 328 578 328 L578 328 Z M573 309 C612 309 630 291 630 254 C630 218 608 111 592 72 C576 30 550 12 509 12 C472 12 453 30 453 67 C453 103 475 210 491 249 C507 291 533 309 573 309 L573 309 Z M943 328 C842 328 749 228 749 121 C749 49 801 -6 870 -6 C972 -6 1065 93 1065 200 C1065 274 1014 328 943 328 L943 328 Z M938 309 C977 309 995 292 995 255 C995 218 973 111 957 72 C941 30 915 12 875 12 C837 12 818 30 818 67 C818 103 840 211 856 249 C872 291 897 309 938 309 L938 309 Z " />
<glyph glyph-name="guilsinglleft" unicode="&#x2039;" horiz-adv-x="294" d="M19 198 L119 94 L189 94 L87 198 L233 304 L168 304 L19 198 Z " />
<glyph glyph-name="guilsinglright" unicode="&#x203a;" horiz-adv-x="294" d="M218 200 L118 304 L49 304 L150 200 L4 94 L69 94 L218 200 Z " />
<glyph glyph-name="uni203E" unicode="&#x203e;" horiz-adv-x="500" d="M110 847 L101 807 L601 807 L610 847 L110 847 Z " />
<glyph glyph-name="fraction" unicode="&#x2044;" horiz-adv-x="104" d="M275 647 L-206 0 L-174 0 L307 647 L275 647 Z " />
<glyph glyph-name="franc" unicode="&#x20a3;" horiz-adv-x="787" d="M60 20 L-32 20 L-36 0 L265 0 L269 20 L167 20 L232 328 L272 328 C353 328 382 310 382 259 L382 258 L382 248 C382 248 380 229 377 212 C377 209 376 203 375 196 L390 196 L448 471 L434 471 C409 362 382 346 236 347 L300 647 L377 647 C513 648 524 646 560 604 C582 573 590 543 590 481 L605 481 L630 667 L106 667 L101 647 L193 647 L60 20 Z M453 20 L380 20 L375 0 L621 0 L625 20 L543 20 L557 88 C582 205 606 261 651 312 C665 327 679 337 689 337 C693 337 697 333 697 329 C697 327 697 327 695 316 C694 308 694 308 694 306 C694 285 712 269 736 269 C774 269 805 297 805 331 C805 360 782 378 744 378 C691 378 644 345 597 273 L617 368 L454 368 L449 348 L523 348 L453 20 Z " />
<glyph glyph-name="Euro" unicode="&#x20ac;" horiz-adv-x="694" d="M241 381 C266 477 279 515 298 550 C334 615 407 654 493 654 C599 654 662 596 669 491 L686 491 L723 667 L707 667 L659 620 C614 657 559 677 500 677 C418 677 322 638 248 574 C188 523 145 459 116 381 L66 381 L45 349 L107 349 C104 340 102 328 100 317 L53 317 L31 285 L96 285 C94 274 94 265 94 253 C94 102 200 -10 345 -10 C407 -10 466 8 538 48 L565 0 L581 0 L622 189 L605 189 C534 71 448 13 347 13 C252 13 198 57 198 133 C198 166 204 207 219 285 L462 285 L484 317 L226 317 L227 320 L231 339 L232 346 L233 349 L506 349 L527 381 L241 381 Z " />
<glyph glyph-name="trademark" unicode="&#x2122;" horiz-adv-x="927" d="M163 306 L102 306 L98 287 L299 287 L303 306 L235 306 L308 648 L327 648 C391 653 419 622 421 541 L439 541 L461 667 L98 667 L66 541 L84 541 C119 621 159 653 218 648 L235 648 L163 306 Z M467 306 L413 306 L409 287 L541 287 L545 306 L488 306 L555 621 L607 287 L629 287 L822 617 L756 306 L695 306 L691 287 L877 287 L881 306 L827 306 L899 648 L953 648 L958 667 L825 667 L669 402 L632 667 L489 667 L485 648 L539 648 L467 306 Z " />
<glyph glyph-name="uni2126" unicode="&#x2126;" horiz-adv-x="768" d="M326 0 L308 155 C230 199 180 288 180 383 C180 434 196 493 221 540 C257 605 316 642 385 642 C454 642 513 605 549 540 C575 493 590 435 590 381 C590 288 540 199 462 155 L444 0 L736 0 L736 153 L712 153 C704 108 684 90 643 90 L497 90 L500 128 C535 141 557 151 580 166 C657 215 702 296 702 382 C702 449 673 522 625 578 C564 648 480 686 385 686 C290 686 206 648 145 578 C97 522 68 448 68 382 C68 296 114 215 190 166 C213 151 234 141 270 128 L273 90 L127 90 C86 90 66 108 58 153 L34 153 L34 0 L326 0 Z " />
<glyph glyph-name="partialdiff" unicode="&#x2202;" horiz-adv-x="494" d="M107 673 C152 696 185 705 219 705 C321 705 379 610 379 447 C379 417 377 394 372 346 C308 396 272 412 221 412 C172 412 131 394 95 355 C51 309 26 246 26 184 C26 76 109 -10 213 -10 C282 -10 341 23 383 84 C429 151 462 286 462 402 C462 518 428 610 360 680 C312 729 259 752 194 752 C155 752 122 745 66 724 L107 673 Z M366 312 C350 201 340 158 314 106 C288 54 245 21 201 21 C147 21 113 74 113 159 C113 273 180 367 261 367 C299 367 324 354 366 312 L366 312 Z " />
<glyph glyph-name="Delta" unicode="&#x2206;" horiz-adv-x="612" d="M6 0 L608 0 L327 688 L6 0 Z M77 51 L290 509 L479 51 L77 51 Z " />
<glyph glyph-name="product" unicode="&#x220f;" horiz-adv-x="823" d="M25 -124 L315 -124 L315 -98 L312 -98 C242 -94 221 -67 224 18 L224 594 C224 656 228 677 242 690 C260 707 271 708 413 708 C557 708 567 707 586 690 C600 677 604 656 604 594 L604 18 C607 -67 586 -94 516 -98 L513 -98 L513 -124 L803 -124 L803 -98 L800 -98 C730 -94 709 -67 712 18 L712 609 C709 694 730 721 800 725 L803 725 L803 751 L25 751 L25 725 L28 725 C98 721 119 694 116 609 L116 18 C119 -67 98 -94 28 -98 L25 -98 L25 -124 Z " />
<glyph glyph-name="summation" unicode="&#x2211;" horiz-adv-x="713" d="M176 711 L444 711 C560 710 590 688 606 587 L632 587 L622 752 L23 752 L256 285 L14 -123 L641 -123 L695 87 L669 87 C639 7 605 -12 491 -11 L163 -11 L364 341 L176 711 Z " />
<glyph glyph-name="minus" unicode="&#x2212;" horiz-adv-x="550" d="M54 341 L46 306 L493 306 L501 341 L54 341 Z " />
<glyph glyph-name="uni2215" unicode="&#x2215;" horiz-adv-x="104" d="M275 647 L-206 0 L-174 0 L307 647 L275 647 Z " />
<glyph glyph-name="uni2219" unicode="&#x2219;" horiz-adv-x="262" d="M116 259 C75 259 36 225 36 189 C36 163 58 142 86 142 C129 142 168 175 168 211 C168 239 146 259 116 259 L116 259 Z " />
<glyph glyph-name="radical" unicode="&#x221a;" horiz-adv-x="549" d="M363 -35 L515 908 L480 913 L353 123 L156 520 L10 449 L26 414 L121 461 L363 -35 Z " />
<glyph glyph-name="infinity" unicode="&#x221e;" horiz-adv-x="713" d="M357 227 C415 156 485 115 549 115 C631 115 688 176 688 266 C688 354 629 414 543 414 C476 414 412 376 357 303 C300 375 234 414 171 414 C87 414 26 351 26 263 C26 176 84 115 167 115 C224 115 281 142 327 192 L357 227 Z M391 264 C434 325 493 362 546 362 C600 362 638 321 638 264 C638 205 603 167 549 167 C495 167 461 188 391 264 L391 264 Z M324 266 C276 204 215 167 163 167 C111 167 76 208 76 266 C76 323 113 362 167 362 C218 362 258 338 324 266 L324 266 Z " />
<glyph glyph-name="integral" unicode="&#x222b;" horiz-adv-x="274" d="M180 576 C180 653 179 691 176 746 C174 774 173 800 173 815 C173 855 184 878 202 878 C208 878 213 876 215 872 C232 845 239 839 256 839 C276 839 291 853 291 871 C291 898 267 916 231 916 C186 916 152 887 138 838 C123 784 113 682 113 577 L113 232 C113 160 114 124 117 63 C119 34 120 4 120 -12 C120 -47 108 -70 89 -70 C81 -70 75 -65 68 -52 C59 -35 51 -30 37 -30 C17 -30 2 -44 2 -63 C2 -89 26 -107 62 -107 C107 -107 141 -79 155 -29 C170 25 180 126 180 232 L180 576 Z " />
<glyph glyph-name="approxequal" unicode="&#x2248;" horiz-adv-x="549" d="M489 251 C444 199 423 187 384 187 C365 187 354 190 285 211 C212 234 188 239 160 239 C101 239 54 212 14 155 L57 121 C103 174 120 184 159 184 C180 184 180 184 271 157 C350 133 354 132 385 132 C449 132 496 160 527 217 L489 251 Z M489 408 C443 356 423 344 384 344 C365 344 354 347 285 368 C212 391 188 396 160 396 C101 396 54 368 14 312 L57 278 C103 331 119 341 159 341 C180 341 180 341 271 314 C350 290 354 289 385 289 C449 289 496 317 527 374 L489 408 Z " />
<glyph glyph-name="notequal" unicode="&#x2260;" horiz-adv-x="549" d="M187 142 L115 -1 L161 -25 L246 142 L540 142 L540 197 L273 197 L344 336 L540 336 L540 391 L371 391 L439 525 L392 549 L312 391 L15 391 L15 336 L285 336 L215 197 L15 197 L15 142 L187 142 Z " />
<glyph glyph-name="lessequal" unicode="&#x2264;" horiz-adv-x="549" d="M467 55 L-30 55 L-42 0 L455 0 L467 55 Z M591 639 L44 405 L32 350 L480 117 L493 179 L117 378 L578 577 L591 639 Z " />
<glyph glyph-name="greaterequal" unicode="&#x2265;" horiz-adv-x="549" d="M467 55 L-30 55 L-42 0 L455 0 L467 55 Z M94 639 L81 577 L457 378 L-4 179 L-17 117 L529 350 L541 405 L94 639 Z " />
<glyph glyph-name="lozenge" unicode="&#x25ca;" horiz-adv-x="494" d="M209 0 L269 -1 L466 374 L277 740 L214 740 L18 377 L209 0 Z M240 58 L81 376 L245 683 L402 373 L240 58 Z " />
<glyph glyph-name="fi" unicode="&#xfb01;" horiz-adv-x="568" d="M490 393 L210 393 L239 528 C255 604 258 612 277 629 C298 648 336 659 377 659 C416 659 441 654 469 640 C444 621 433 602 433 577 C433 553 451 536 478 536 C512 536 543 568 543 603 C543 650 482 680 389 680 C320 680 263 661 218 623 C174 586 153 547 137 474 L120 393 L47 393 L42 373 L116 373 L41 20 L-33 20 L-37 0 L201 0 L206 20 L131 20 L206 373 L395 373 L320 20 L245 20 L241 0 L479 0 L484 20 L410 20 L490 393 Z " />
<glyph glyph-name="fl" unicode="&#xfb02;" horiz-adv-x="568" d="M131 20 L206 373 L315 373 L319 393 L210 393 L239 528 C255 605 258 613 277 629 C299 648 333 659 370 659 C417 659 442 641 442 609 C442 599 438 576 432 547 L320 20 L245 20 L241 0 L479 0 L484 20 L410 20 L550 680 L468 673 C424 679 416 680 394 680 C323 680 265 661 219 623 C174 586 153 547 137 474 L120 393 L47 393 L42 373 L116 373 L41 20 L-33 20 L-37 0 L201 0 L206 20 L131 20 Z " />
</font>
</svg>
