<?xml version="1.0" encoding="UTF-8"?>
<svg xmlns="http://www.w3.org/2000/svg" xmlns:xlink="http://www.w3.org/1999/xlink" version="1.2" >
<font id="Bodoni URW Narrow">
<font-face  font-family="Bodoni URW Narrow" units-per-em="1000" ascent="667" descent="-333" font-style="normal" font-weight="400" font-stretch="semi-condensed" cap-height="667" x-height="393" underline-position="-89" underline-thickness="53" />
<missing-glyph  horiz-adv-x="250" d="" />
<glyph glyph-name="NULL" d="" />
<glyph glyph-name="CR" unicode="&#xd;" horiz-adv-x="250" d="" />
<glyph glyph-name="space" unicode="&#x20;" horiz-adv-x="250" d="" />
<glyph glyph-name="exclam" unicode="&#x21;" horiz-adv-x="252" d="M137 197 C140 320 150 421 167 501 C176 546 182 587 182 612 C182 650 160 677 128 677 C97 677 73 648 73 610 C73 587 80 543 90 493 C108 409 118 311 119 197 L137 197 Z M126 110 C95 110 70 83 70 50 C70 19 95 -7 125 -7 C157 -7 182 19 182 51 C182 83 157 110 128 110 L126 110 Z " />
<glyph glyph-name="quotedbl" unicode="&#x22;" horiz-adv-x="276" d="M88 412 L114 576 C117 592 118 608 118 620 C118 653 100 677 76 677 C52 677 35 652 35 619 C35 607 36 591 39 576 L64 412 L88 412 Z M212 412 L237 576 C240 592 241 607 241 620 C241 653 223 677 199 677 C175 677 158 652 158 619 C158 608 160 592 162 576 L188 412 L212 412 Z " />
<glyph glyph-name="numbersign" unicode="&#x23;" horiz-adv-x="475" d="M201 442 L228 647 L159 647 L132 442 L48 442 L48 415 L129 415 L105 240 L20 240 L20 213 L102 213 L73 0 L142 0 L170 213 L275 213 L247 0 L316 0 L344 213 L429 213 L429 240 L348 240 L371 415 L456 415 L455 442 L375 442 L402 647 L333 647 L306 442 L201 442 Z M197 415 L302 415 L279 240 L174 240 L197 415 Z " />
<glyph glyph-name="dollar" unicode="&#x24;" horiz-adv-x="475" d="M253 638 C311 634 331 616 328 570 C328 515 347 484 382 484 C408 484 426 505 426 537 C426 606 354 658 253 661 L253 744 L219 744 L219 661 C176 653 149 643 123 624 C79 591 51 535 51 479 C51 439 66 398 91 369 C113 344 128 334 198 296 L207 291 C211 289 215 287 219 284 L219 12 C195 12 180 17 163 30 C140 47 132 65 132 100 L132 112 C133 131 134 144 134 145 C134 179 112 207 85 207 C56 207 33 177 33 141 C33 64 112 -1 219 -11 L219 -101 L253 -101 L253 -11 C294 -6 319 3 347 23 C397 59 430 125 430 191 C430 219 424 245 411 270 C394 303 351 336 274 375 C267 378 260 382 253 386 L253 638 Z M223 403 C143 446 116 477 116 529 C116 586 159 629 223 636 L223 403 Z M253 267 C338 219 361 191 361 137 C361 71 320 24 253 13 L253 267 Z " />
<glyph glyph-name="percent" unicode="&#x25;" horiz-adv-x="657" d="M159 653 C84 653 25 579 25 487 C25 394 84 320 158 320 C231 320 291 394 291 484 C291 579 233 653 159 653 L159 653 Z M158 635 C201 635 212 604 212 485 C212 369 201 338 158 338 C117 338 104 371 104 469 C104 553 108 593 118 613 C125 626 141 635 158 635 L158 635 Z M463 647 L167 0 L194 0 L491 647 L463 647 Z M501 327 C426 327 367 253 367 161 C367 68 426 -6 500 -6 C573 -6 633 68 633 158 C633 253 575 327 501 327 L501 327 Z M500 309 C543 309 554 278 554 159 C554 43 543 12 500 12 C459 12 446 45 446 143 C446 227 450 267 460 287 C467 300 483 309 500 309 L500 309 Z " />
<glyph glyph-name="ampersand" unicode="&#x26;" horiz-adv-x="568" d="M270 343 C344 368 388 413 388 463 C388 516 336 553 263 553 C182 553 126 512 126 454 C126 427 139 399 177 340 C179 337 183 331 188 323 C78 266 33 213 33 138 C33 51 101 -13 192 -13 C249 -13 292 6 351 56 L386 0 L540 0 L540 20 L470 20 L405 123 C442 168 465 240 470 323 L546 323 L546 343 L369 343 L369 323 L449 323 C447 251 426 178 395 140 L270 343 Z M234 403 C211 440 201 467 201 488 C201 518 222 533 263 533 C302 533 318 514 318 469 C318 412 303 381 261 357 L234 403 Z M342 73 C312 42 279 24 251 24 C231 24 205 33 192 45 C151 83 115 159 115 211 C115 245 140 273 198 305 L342 73 Z " />
<glyph glyph-name="quotesingle" unicode="&#x27;" horiz-adv-x="153" d="M88 412 L114 576 C117 592 118 608 118 620 C118 653 100 677 76 677 C52 677 35 652 35 619 C35 607 36 591 39 576 L64 412 L88 412 Z " />
<glyph glyph-name="parenleft" unicode="&#x28;" horiz-adv-x="255" d="M225 -173 C199 -123 194 -111 185 -90 C146 1 123 125 123 243 C123 397 153 520 226 658 L203 674 C83 505 33 377 33 239 C33 106 88 -33 202 -186 L225 -173 Z " />
<glyph glyph-name="parenright" unicode="&#x29;" horiz-adv-x="255" d="M54 -186 C167 -33 222 107 222 239 C222 377 172 505 52 674 L29 658 C102 520 132 398 132 242 C132 125 109 2 70 -90 C62 -111 56 -124 30 -173 L54 -186 Z " />
<glyph glyph-name="asterisk" unicode="&#x2a;" horiz-adv-x="475" d="M255 475 L258 485 L307 489 C390 496 412 505 412 535 C412 556 397 572 378 572 C363 572 344 562 310 538 L298 530 L254 500 L246 506 L257 556 C266 595 271 627 271 641 C271 662 256 677 236 677 C216 677 201 661 201 640 C201 628 204 610 210 590 L217 560 L230 506 L222 500 L180 527 C133 557 110 569 96 569 C78 569 63 552 63 532 C63 505 85 492 135 490 L164 489 L217 485 L220 475 L183 441 C133 397 118 377 118 359 C118 340 135 323 153 323 C173 323 187 340 202 385 C205 392 209 402 213 413 L233 465 L243 465 L262 418 C291 343 303 325 325 325 C344 325 360 342 360 361 C360 378 348 395 318 420 C312 425 304 431 296 439 L255 475 Z " />
<glyph glyph-name="plus" unicode="&#x2b;" horiz-adv-x="475" d="M220 306 L220 130 L255 130 L255 306 L430 306 L430 341 L255 341 L255 517 L220 517 L220 341 L44 341 L44 306 L220 306 Z " />
<glyph glyph-name="comma" unicode="&#x2c;" horiz-adv-x="226" d="M92 -151 C154 -99 185 -43 185 18 C185 73 152 113 106 113 C68 113 40 86 40 50 C40 20 60 -2 89 -2 C115 -2 135 18 135 45 C135 48 135 52 134 57 C149 46 157 29 157 9 C157 -25 139 -67 112 -98 C104 -107 96 -115 76 -131 L92 -151 Z " />
<glyph glyph-name="hyphen" unicode="&#x2d;" horiz-adv-x="184" d="M0 234 L0 168 L184 168 L184 234 L0 234 Z " />
<glyph glyph-name="period" unicode="&#x2e;" horiz-adv-x="226" d="M113 110 C83 110 57 83 57 51 C57 19 82 -7 112 -7 C144 -7 169 19 169 51 C169 83 144 110 115 110 L113 110 Z " />
<glyph glyph-name="slash" unicode="&#x2f;" horiz-adv-x="384" d="M-40 -180 L14 -180 L353 667 L298 667 L-40 -180 Z " />
<glyph glyph-name="zero" unicode="0" horiz-adv-x="475" d="M239 657 C182 657 131 620 89 549 C55 490 36 410 36 323 C36 139 126 -10 238 -10 C348 -10 439 139 439 318 C439 437 410 529 351 599 C318 637 280 657 239 657 L239 657 Z M237 637 C285 637 313 599 324 524 C328 500 332 390 332 320 C332 155 326 96 304 51 C292 28 263 10 238 10 C212 10 183 28 172 51 C150 94 143 160 143 324 C143 487 150 553 172 597 C183 620 211 637 237 637 L237 637 Z " />
<glyph glyph-name="one" unicode="1" horiz-adv-x="475" d="M205 20 L115 20 L115 0 L393 0 L393 20 L298 20 L298 654 L115 643 L115 622 L181 625 L194 625 C203 625 205 619 205 600 L205 20 Z " />
<glyph glyph-name="two" unicode="2" horiz-adv-x="475" d="M411 177 L393 177 C380 82 379 80 308 80 L99 80 C249 238 325 317 325 318 C387 391 411 441 411 495 C411 588 335 657 233 657 C135 657 61 594 61 509 C61 455 89 415 128 415 C155 415 177 436 177 461 C177 486 157 506 132 506 C125 506 117 504 107 501 C103 500 99 499 96 499 C89 499 83 509 83 522 C83 578 137 629 195 629 C265 629 312 562 312 460 C312 368 281 315 145 167 C129 150 86 102 37 48 L37 0 L405 0 L411 177 Z " />
<glyph glyph-name="three" unicode="3" horiz-adv-x="475" d="M119 338 C179 338 197 336 219 330 C285 310 311 264 311 166 C311 67 269 10 195 10 C153 10 107 38 107 64 C107 67 109 69 114 74 C129 87 137 103 137 121 C137 147 119 166 95 166 C68 166 46 141 46 111 C46 43 117 -10 207 -10 C326 -10 418 73 418 181 C418 280 350 339 223 351 C322 371 384 434 384 514 C384 596 316 657 225 657 C144 657 81 610 81 550 C81 521 101 497 125 497 C147 497 164 517 164 542 C164 558 157 573 143 585 C139 589 138 591 138 595 C138 617 173 637 209 637 C260 637 285 599 285 520 C285 445 269 402 233 380 C209 366 191 363 119 360 L119 338 Z " />
<glyph glyph-name="four" unicode="4" horiz-adv-x="475" d="M246 173 L246 20 L151 20 L151 0 L417 0 L417 20 L339 20 L339 173 L419 173 L419 98 L442 98 L442 274 L419 274 L419 200 L339 200 L339 653 L288 653 L22 212 L22 173 L246 173 Z M246 200 L42 200 L246 543 L246 200 Z " />
<glyph glyph-name="five" unicode="5" horiz-adv-x="475" d="M132 567 L282 567 C343 568 354 570 363 586 C376 608 382 632 385 674 L369 674 C358 647 357 647 334 647 L181 647 C116 648 111 644 108 594 L94 330 C121 353 155 366 192 366 C234 366 274 343 295 306 C310 280 318 241 318 193 C318 80 275 10 205 10 C162 10 104 39 104 61 C104 64 106 66 112 70 C129 82 141 105 141 126 C141 149 122 169 100 169 C72 169 51 143 51 109 C51 43 122 -10 211 -10 C329 -10 424 80 424 192 C424 301 332 386 213 386 C181 386 156 381 121 368 L132 567 Z " />
<glyph glyph-name="six" unicode="6" horiz-adv-x="475" d="M393 686 C310 668 247 640 193 597 C95 521 38 395 38 257 C38 97 120 -10 242 -10 C352 -10 442 93 442 218 C442 337 362 429 259 429 C215 429 182 415 152 384 C170 544 246 633 393 663 L393 686 Z M247 409 C314 409 337 353 337 190 C337 121 323 56 304 35 C290 19 269 10 245 10 C175 10 146 72 146 221 C146 290 153 334 170 363 C186 392 215 409 247 409 L247 409 Z " />
<glyph glyph-name="seven" unicode="7" horiz-adv-x="475" d="M37 469 L57 464 C87 561 94 568 155 567 L387 567 C335 449 294 359 265 296 C207 174 181 95 181 48 C181 11 203 -14 235 -14 C265 -14 288 12 288 46 C288 57 285 76 281 95 C273 127 270 147 270 160 C270 211 300 303 350 409 C370 452 387 492 401 529 C415 568 433 607 438 612 C445 623 449 633 449 640 C449 645 445 647 434 647 L84 647 L37 469 Z " />
<glyph glyph-name="eight" unicode="8" horiz-adv-x="475" d="M278 339 C369 361 420 416 420 492 C420 586 342 657 237 657 C132 657 54 586 54 491 C54 416 105 361 196 339 C92 315 34 253 34 167 C34 67 122 -10 237 -10 C352 -10 440 67 440 167 C440 253 382 315 278 339 L278 339 Z M239 637 C292 637 320 586 320 491 C320 407 289 356 240 356 C189 356 159 407 159 494 C159 586 188 637 239 637 L239 637 Z M237 328 C299 328 331 273 331 166 C331 66 297 10 237 10 C175 10 142 66 142 169 C142 273 175 328 237 328 L237 328 Z " />
<glyph glyph-name="nine" unicode="9" horiz-adv-x="475" d="M74 -43 C160 -26 209 -6 265 36 C372 117 437 254 437 395 C437 547 355 657 241 657 C129 657 34 551 34 424 C34 308 119 212 221 212 C262 212 292 227 323 264 C291 83 223 4 78 -21 L74 -43 Z M237 637 C301 637 330 578 330 449 C330 363 322 313 302 278 C286 249 257 232 226 232 C199 232 176 245 162 268 C146 298 140 338 140 433 C140 581 167 637 237 637 L237 637 Z " />
<glyph glyph-name="colon" unicode="&#x3a;" horiz-adv-x="227" d="M113 396 C83 396 57 369 57 337 C57 305 82 279 112 279 C144 279 169 305 169 337 C169 369 144 396 115 396 L113 396 Z M114 110 C84 110 58 83 58 51 C58 19 83 -7 113 -7 C145 -7 170 19 170 51 C170 83 145 110 116 110 L114 110 Z " />
<glyph glyph-name="semicolon" unicode="&#x3b;" horiz-adv-x="226" d="M107 400 C76 400 50 373 50 341 C50 309 75 283 106 283 C137 283 163 309 163 341 C163 373 138 400 108 400 L107 400 Z M92 -151 C154 -99 185 -43 185 18 C185 73 152 113 106 113 C68 113 40 86 40 50 C40 20 60 -2 89 -2 C115 -2 135 18 135 45 C135 48 135 52 134 57 C149 45 157 29 157 8 C157 -41 132 -85 76 -131 L92 -151 Z " />
<glyph glyph-name="less" unicode="&#x3c;" horiz-adv-x="475" d="M432 605 L42 338 L42 332 L432 60 L432 134 L113 357 L432 577 L432 605 Z " />
<glyph glyph-name="equal" unicode="&#x3d;" horiz-adv-x="475" d="M44 393 L44 358 L430 358 L430 393 L44 393 Z M44 288 L44 253 L430 253 L430 288 L44 288 Z " />
<glyph glyph-name="greater" unicode="&#x3e;" horiz-adv-x="475" d="M42 60 L432 327 L432 332 L42 605 L42 531 L361 308 L42 88 L42 60 Z " />
<glyph glyph-name="question" unicode="&#x3f;" horiz-adv-x="354" d="M138 200 C139 269 150 290 216 341 C294 399 321 444 321 516 C321 609 258 677 172 677 C93 677 30 619 30 548 C30 514 50 489 75 489 C97 489 113 507 113 532 C113 553 105 567 86 579 C77 584 72 591 72 597 C72 626 124 657 173 657 C231 657 274 620 274 570 C274 537 258 510 214 468 C141 398 118 347 118 252 C118 231 119 217 122 192 L138 200 Z M136 110 C106 110 80 83 80 51 C80 19 105 -7 135 -7 C167 -7 192 19 192 52 C192 83 167 110 138 110 L136 110 Z " />
<glyph glyph-name="at" unicode="&#x40;" horiz-adv-x="650" d="M534 96 C477 43 410 16 339 16 C178 16 51 153 51 327 C51 498 179 635 338 635 C482 635 600 523 600 385 C600 326 579 269 541 227 C511 193 473 169 448 169 C435 169 426 179 426 193 C426 211 431 245 439 280 L488 492 L418 492 L407 447 C395 481 370 501 337 501 C248 501 161 391 161 278 C161 205 207 149 267 149 C304 149 333 169 363 214 C365 168 389 143 430 143 C478 143 532 172 572 220 C612 266 631 321 631 384 C631 541 503 664 339 664 C162 664 19 513 19 325 C19 136 161 -13 339 -13 C431 -13 508 23 574 96 L534 96 Z M349 483 C377 483 399 449 396 409 C392 351 368 264 343 211 C330 185 304 166 279 166 C251 166 232 192 232 229 C232 291 256 381 287 437 C303 466 326 483 349 483 L349 483 Z " />
<glyph glyph-name="A" unicode="A" horiz-adv-x="557" d="M326 215 L389 20 L306 20 L306 0 L563 0 L563 20 L496 20 L291 667 L263 667 L49 20 L3 20 L3 0 L157 0 L157 20 L74 20 L136 215 L326 215 Z M320 235 L143 235 L232 512 L320 235 Z " />
<glyph glyph-name="B" unicode="B" horiz-adv-x="580" d="M108 20 L30 20 L30 0 L261 0 C366 0 406 7 452 32 C504 60 536 116 536 178 C536 276 468 338 348 349 C455 372 511 426 511 506 C511 560 483 607 435 633 C386 661 350 667 244 667 L30 667 L30 647 L108 647 L108 20 Z M215 647 L241 647 C303 647 326 643 350 630 C384 610 402 566 402 501 C402 398 363 357 265 357 C253 357 244 357 215 358 L215 647 Z M215 20 L215 337 C240 339 253 339 269 339 C377 339 416 296 416 177 C416 119 406 81 384 54 C362 28 335 20 271 20 L215 20 Z " />
<glyph glyph-name="C" unicode="C" horiz-adv-x="555" d="M514 189 L500 189 C461 71 402 13 318 13 C264 13 212 40 193 79 C173 120 166 175 166 307 C166 422 172 504 184 550 C201 614 256 654 326 654 C414 654 476 596 500 491 L514 491 L514 667 L500 667 L467 620 C421 658 370 677 318 677 C261 677 201 651 150 605 C81 542 40 441 40 332 C40 144 162 -10 312 -10 C364 -10 415 9 467 48 L500 0 L514 0 L514 189 Z " />
<glyph glyph-name="D" unicode="D" horiz-adv-x="642" d="M108 20 L30 20 L30 0 L259 0 C380 0 422 11 476 53 C556 118 602 221 602 340 C602 486 523 614 409 651 C372 663 335 667 251 667 L30 667 L30 647 L108 647 L108 20 Z M215 20 L215 647 L252 647 C295 647 317 646 330 645 C367 640 399 627 420 608 C462 569 476 506 476 359 C476 141 460 78 395 43 C360 23 342 20 258 20 L215 20 Z " />
<glyph glyph-name="E" unicode="E" horiz-adv-x="555" d="M109 20 L30 20 L30 0 L502 0 L520 208 L507 208 C483 117 473 92 445 56 C414 23 403 19 333 20 L216 20 L216 328 L248 328 C303 328 327 315 339 278 C345 261 346 250 350 196 L363 196 L363 471 L350 471 C347 365 328 347 224 348 L216 347 L216 647 L287 647 C412 652 450 620 480 484 L493 484 L486 667 L30 667 L30 647 L109 647 L109 20 Z " />
<glyph glyph-name="F" unicode="F" horiz-adv-x="508" d="M109 20 L30 20 L30 0 L290 0 L290 20 L216 20 L216 328 L247 328 C303 328 327 315 339 278 C345 260 347 245 350 196 L363 196 L363 471 L350 471 C348 366 328 346 224 348 L216 347 L216 647 L272 647 C389 648 400 645 438 601 C458 576 473 536 483 481 L495 481 L483 667 L30 667 L30 647 L109 647 L109 20 Z " />
<glyph glyph-name="G" unicode="G" horiz-adv-x="605" d="M502 667 L489 667 L457 627 C406 662 363 677 316 677 C166 677 40 520 40 333 C40 146 161 -10 307 -10 C384 -10 465 33 503 93 C524 126 532 159 535 213 L595 213 L595 233 L328 233 L328 213 L422 213 C422 153 418 122 410 95 C393 44 352 13 301 13 C247 13 204 46 186 100 C174 136 167 219 167 326 C167 465 177 547 200 593 C218 629 266 654 316 654 C364 654 405 634 436 597 C465 561 479 531 492 468 L506 468 L502 667 Z " />
<glyph glyph-name="H" unicode="H" horiz-adv-x="676" d="M459 331 L459 20 L385 20 L385 0 L645 0 L645 20 L566 20 L566 647 L645 647 L645 667 L385 667 L385 647 L459 647 L459 351 L216 351 L216 647 L290 647 L290 667 L30 667 L30 647 L109 647 L109 20 L30 20 L30 0 L290 0 L290 20 L216 20 L216 331 L459 331 Z " />
<glyph glyph-name="I" unicode="I" horiz-adv-x="325" d="M109 20 L30 20 L30 0 L295 0 L295 20 L216 20 L216 647 L295 647 L295 667 L30 667 L30 647 L109 647 L109 20 Z " />
<glyph glyph-name="J" unicode="J" horiz-adv-x="368" d="M169 647 L169 105 C169 19 168 9 161 -12 C152 -39 131 -59 110 -59 C99 -59 87 -50 87 -41 C87 -39 88 -36 89 -33 C95 -17 99 -1 99 9 C99 36 79 58 56 58 C28 58 6 34 6 2 C6 -43 50 -80 103 -80 C159 -80 217 -45 248 8 C268 42 276 83 276 148 L276 647 L350 647 L350 667 L90 667 L90 647 L169 647 Z " />
<glyph glyph-name="K" unicode="K" horiz-adv-x="620" d="M109 20 L30 20 L30 0 L290 0 L290 20 L216 20 L216 647 L290 647 L290 667 L30 667 L30 647 L109 647 L109 20 Z M302 407 L504 647 L584 647 L584 667 L381 667 L381 647 L474 647 L220 348 L452 20 L370 20 L370 0 L620 0 L620 20 L574 20 L302 407 Z " />
<glyph glyph-name="L" unicode="L" horiz-adv-x="541" d="M109 20 L30 20 L30 0 L503 0 L519 206 L507 206 C472 49 438 15 323 20 L216 20 L216 647 L290 647 L290 667 L30 667 L30 647 L109 647 L109 20 Z " />
<glyph glyph-name="M" unicode="M" horiz-adv-x="727" d="M104 20 L25 20 L25 0 L205 0 L205 20 L127 20 L127 637 L312 0 L336 0 L511 630 L511 20 L437 20 L437 0 L697 0 L697 20 L618 20 L618 647 L697 647 L697 667 L500 667 L364 175 L223 667 L25 667 L25 647 L104 647 L104 20 Z " />
<glyph glyph-name="N" unicode="N" horiz-adv-x="635" d="M103 20 L24 20 L24 0 L204 0 L204 20 L126 20 L126 628 L512 0 L535 0 L535 647 L614 647 L614 667 L434 667 L434 647 L512 647 L512 196 C482 252 454 298 407 374 L222 667 L24 667 L24 647 L103 647 L103 20 Z " />
<glyph glyph-name="O" unicode="O" horiz-adv-x="631" d="M316 677 C255 677 199 653 152 607 C80 537 40 439 40 334 C40 243 74 149 130 83 C183 21 245 -10 317 -10 C378 -10 431 13 480 60 C548 126 592 230 592 327 C592 520 468 677 316 677 L316 677 Z M316 654 C365 654 411 629 432 593 C458 544 466 481 466 303 C466 190 456 117 435 79 C411 38 367 13 316 13 C261 13 215 42 193 90 C175 128 167 199 167 328 C167 479 174 541 198 588 C218 627 265 654 316 654 L316 654 Z " />
<glyph glyph-name="P" unicode="P" horiz-adv-x="549" d="M109 20 L30 20 L30 0 L290 0 L290 20 L216 20 L216 322 L276 322 C363 322 401 329 446 353 C498 381 530 436 530 495 C530 555 500 607 447 636 C403 662 373 667 274 667 L30 667 L30 647 L109 647 L109 20 Z M216 342 L216 647 L276 647 C325 647 345 644 365 632 C397 614 410 573 410 494 C410 431 401 393 381 370 C363 349 335 342 277 342 L216 342 Z " />
<glyph glyph-name="Q" unicode="Q" horiz-adv-x="631" d="M555 -204 C487 -201 458 -195 425 -176 C388 -155 368 -103 368 -26 L368 0 C411 10 440 26 477 58 C553 126 592 218 592 327 C592 518 467 677 318 677 C168 677 40 520 40 336 C40 174 125 47 265 0 C264 -158 340 -215 555 -218 L555 -204 Z M316 654 C380 654 423 624 446 562 C457 533 465 436 465 327 C465 242 460 174 451 124 C449 111 443 96 434 78 C411 36 370 13 316 13 C251 13 210 42 186 105 C175 134 167 226 167 334 C167 421 172 492 181 544 C183 556 189 571 198 589 C221 632 261 654 316 654 L316 654 Z " />
<glyph glyph-name="R" unicode="R" horiz-adv-x="606" d="M109 20 L30 20 L30 0 L290 0 L290 20 L216 20 L216 346 L249 346 C358 346 387 315 389 195 C391 116 396 89 415 55 C435 20 478 -4 521 -4 C543 -4 560 0 587 12 L580 30 C560 21 551 19 543 19 C514 19 499 46 499 95 C499 97 499 112 500 125 L500 146 C500 220 479 272 434 308 C405 332 369 347 326 353 C446 362 520 423 520 514 C520 568 493 615 447 638 C398 663 372 667 253 667 L30 667 L30 647 L109 647 L109 20 Z M216 368 L216 647 L252 647 C306 647 329 643 351 631 C386 612 406 567 406 506 C406 447 387 404 354 385 C331 372 303 368 248 368 L216 368 Z " />
<glyph glyph-name="S" unicode="S" horiz-adv-x="473" d="M398 677 L384 677 L351 636 C310 664 273 677 233 677 C134 677 58 589 58 475 C58 437 68 401 86 373 C109 340 155 315 230 296 C286 283 322 268 341 253 C367 231 381 197 381 156 C381 71 325 13 243 13 C180 13 124 47 91 105 C77 132 69 158 61 206 L47 206 L47 0 L67 0 L102 48 C149 8 192 -10 244 -10 C354 -10 434 85 434 215 C434 269 420 314 394 348 C367 382 327 403 259 419 C148 444 111 473 111 533 C111 604 162 654 234 654 C315 654 371 596 384 501 L398 501 L398 677 Z " />
<glyph glyph-name="T" unicode="T" horiz-adv-x="557" d="M135 20 L135 0 L422 0 L422 20 L333 20 L333 647 L369 647 C420 647 431 645 453 629 C494 595 519 540 533 456 L547 456 L541 667 L16 667 L10 456 L24 456 C38 536 59 584 98 623 C123 644 136 647 192 647 L224 647 L224 20 L135 20 Z " />
<glyph glyph-name="U" unicode="U" horiz-adv-x="610" d="M492 647 L492 265 C492 142 489 120 464 76 C441 35 400 13 345 13 C292 13 248 36 226 75 C205 112 203 128 203 265 L203 647 L277 647 L277 667 L17 667 L17 647 L96 647 L96 265 C96 156 101 119 122 83 C155 26 230 -10 319 -10 C400 -10 457 17 486 70 C511 114 515 143 515 265 L515 647 L593 647 L593 667 L413 667 L413 647 L492 647 Z " />
<glyph glyph-name="V" unicode="V" horiz-adv-x="553" d="M494 647 L557 647 L557 667 L378 667 L378 647 L471 647 L318 158 L161 647 L248 647 L248 667 L-4 667 L-4 647 L53 647 L270 -10 L290 -10 L494 647 Z " />
<glyph glyph-name="W" unicode="W" horiz-adv-x="759" d="M709 647 L759 647 L759 667 L598 667 L598 647 L683 647 L536 151 L440 442 L508 647 L565 647 L565 667 L-3 667 L-3 647 L49 647 L266 -10 L287 -10 L387 287 L487 -10 L508 -10 L709 647 Z M485 647 L427 482 L369 647 L485 647 Z M266 647 L376 326 L317 151 L156 647 L266 647 Z " />
<glyph glyph-name="X" unicode="X" horiz-adv-x="566" d="M249 282 L393 20 L312 20 L312 0 L565 0 L565 20 L512 20 L312 388 L467 647 L533 647 L533 667 L352 667 L352 647 L440 647 L298 410 L165 647 L254 647 L254 667 L3 667 L3 647 L47 647 L237 305 L69 20 L3 20 L3 0 L183 0 L183 20 L95 20 L249 282 Z " />
<glyph glyph-name="Y" unicode="Y" horiz-adv-x="549" d="M224 20 L135 20 L135 0 L414 0 L414 20 L331 20 L331 316 C333 321 335 325 336 327 C336 328 339 334 342 344 C347 359 353 372 359 384 L490 647 L556 647 L556 667 L370 667 L370 647 L465 647 L321 356 C318 363 316 367 306 384 L156 647 L237 647 L237 667 L-9 667 L-9 647 L40 647 L224 316 L224 20 Z " />
<glyph glyph-name="Z" unicode="Z" horiz-adv-x="519" d="M24 0 L476 0 L494 210 L481 210 C462 128 448 92 422 60 C391 24 378 20 289 20 L126 20 L503 667 L64 667 L46 463 L58 463 C96 615 133 654 229 647 L376 647 L24 44 L24 0 Z " />
<glyph glyph-name="bracketleft" unicode="&#x5b;" horiz-adv-x="255" d="M57 -180 L250 -180 L250 -160 L144 -160 L144 647 L250 647 L250 667 L57 667 L57 -180 Z " />
<glyph glyph-name="backslash" unicode="&#x5c;" horiz-adv-x="384" d="M426 -180 L87 667 L33 667 L371 -180 L426 -180 Z " />
<glyph glyph-name="bracketright" unicode="&#x5d;" horiz-adv-x="255" d="M198 667 L5 667 L5 647 L116 647 L116 -160 L5 -160 L5 -180 L198 -180 L198 667 Z " />
<glyph glyph-name="asciicircum" unicode="&#x5e;" horiz-adv-x="475" d="M500 284 L248 700 L241 700 L-25 284 L90 284 L277 577 L457 284 L500 284 Z " />
<glyph glyph-name="underscore" unicode="&#x5f;" horiz-adv-x="498" d="M17 -89 L17 -142 L481 -142 L481 -89 L17 -89 Z " />
<glyph glyph-name="grave" unicode="&#x60;" horiz-adv-x="484" d="M194 616 L119 616 C113 616 110 613 110 608 C110 605 112 602 115 599 L282 463 L291 473 L194 616 Z " />
<glyph glyph-name="a" unicode="a" horiz-adv-x="421" d="M393 35 C377 20 375 19 365 19 C347 19 346 21 346 135 L346 245 C346 323 346 327 335 346 C316 381 268 403 212 403 C131 403 62 356 62 301 C62 277 79 259 102 259 C124 259 140 277 140 302 C140 313 138 320 131 333 C128 338 127 340 127 343 C127 364 163 386 197 386 C219 386 240 376 248 361 C255 347 256 340 256 286 L256 217 C113 213 35 166 35 83 C35 28 75 -10 133 -10 C185 -10 229 18 256 68 C262 18 290 -10 337 -10 C363 -10 382 -2 405 20 L393 35 Z M256 180 C256 125 252 96 240 74 C225 48 204 34 178 34 C144 34 124 59 124 100 C124 164 167 196 256 200 L256 180 Z " />
<glyph glyph-name="b" unicode="b" horiz-adv-x="472" d="M79 20 L16 20 L16 0 L169 0 L169 68 C195 14 228 -10 277 -10 C365 -10 440 87 440 202 C440 312 368 403 281 403 C230 403 190 374 169 322 L169 667 L16 667 L16 647 L79 647 L79 20 Z M265 380 C299 380 325 351 329 308 C331 287 333 241 333 185 C333 111 331 85 327 68 C319 34 296 13 268 13 C208 13 167 89 167 198 C167 304 208 380 265 380 L265 380 Z " />
<glyph glyph-name="c" unicode="c" horiz-adv-x="387" d="M347 127 C324 53 281 13 224 13 C164 13 139 53 139 149 C139 242 145 307 155 333 C167 363 192 380 225 380 C256 380 289 364 289 348 C289 346 288 345 286 342 C275 327 269 310 269 295 C269 268 287 248 313 248 C339 248 357 269 357 299 C357 355 296 403 224 403 C121 403 33 308 33 194 C33 84 117 -10 216 -10 C289 -10 338 34 371 127 L347 127 Z " />
<glyph glyph-name="d" unicode="d" horiz-adv-x="468" d="M389 667 L240 667 L240 647 L299 647 L299 322 C269 377 234 403 189 403 C103 403 33 311 33 199 C33 83 104 -10 192 -10 C239 -10 278 21 299 76 L299 0 L452 0 L452 20 L389 20 L389 667 Z M140 191 C141 296 143 324 155 349 C163 367 183 380 203 380 C225 380 251 361 268 332 C287 298 297 254 297 197 C297 141 288 96 268 62 C251 32 226 13 203 13 C184 13 165 25 155 44 C143 66 139 96 140 170 L140 191 Z " />
<glyph glyph-name="e" unicode="e" horiz-adv-x="404" d="M378 229 C372 334 306 403 214 403 C116 403 33 308 33 197 C33 87 119 -10 217 -10 C293 -10 356 48 371 132 L348 132 C331 58 285 13 225 13 C172 13 143 45 139 107 C137 128 137 175 137 229 L378 229 Z M137 249 C137 311 137 311 141 324 C149 360 175 380 212 380 C245 380 264 366 273 336 C278 319 279 313 280 249 L137 249 Z " />
<glyph glyph-name="f" unicode="f" horiz-adv-x="289" d="M182 373 L264 373 L264 393 L182 393 L182 528 C182 610 182 610 193 634 C199 648 215 657 232 657 C242 657 248 655 256 650 C245 637 239 623 239 608 C239 584 256 565 277 565 C297 565 315 586 315 611 C315 647 277 677 232 677 C187 677 143 649 118 604 C98 567 92 537 92 474 L92 393 L29 393 L29 373 L92 373 L92 20 L29 20 L29 0 L256 0 L256 20 L182 20 L182 373 Z " />
<glyph glyph-name="g" unicode="g" horiz-adv-x="417" d="M271 22 L247 22 C211 21 205 21 188 21 L148 20 L128 20 C85 20 68 31 68 57 C68 83 88 110 130 139 C154 127 174 123 202 123 C291 123 354 180 354 260 C354 293 344 322 324 350 C336 363 340 366 346 366 C351 366 355 361 357 350 C361 330 372 320 388 320 C408 320 423 336 423 358 C423 384 405 403 380 403 C357 403 337 391 311 362 C283 389 247 403 203 403 C117 403 52 343 52 262 C52 218 70 183 111 149 C55 110 28 69 28 24 C28 -20 52 -51 94 -64 C49 -81 24 -112 24 -152 C24 -218 101 -272 196 -272 C314 -272 395 -195 395 -84 C395 -39 380 -5 352 10 C336 19 321 22 287 22 L271 22 Z M203 383 C252 383 259 369 259 260 C259 168 247 144 201 144 C158 144 147 165 147 249 C147 363 155 383 203 383 L203 383 Z M317 -64 C357 -64 373 -76 373 -106 C373 -185 297 -247 200 -247 C123 -247 74 -206 74 -142 C74 -112 84 -89 108 -64 C130 -67 140 -67 164 -67 C180 -67 190 -67 269 -65 L317 -64 Z " />
<glyph glyph-name="h" unicode="h" horiz-adv-x="502" d="M79 20 L16 20 L16 0 L222 0 L222 20 L169 20 L169 165 C169 252 175 289 193 322 C212 354 244 374 279 374 C301 374 321 365 328 351 C336 334 337 324 337 258 L337 20 L280 20 L280 0 L486 0 L486 20 L427 20 L427 258 C427 322 425 336 413 357 C397 385 358 403 311 403 C246 403 203 379 169 322 L169 667 L16 667 L16 647 L79 647 L79 20 Z " />
<glyph glyph-name="i" unicode="i" horiz-adv-x="257" d="M88 20 L29 20 L29 0 L241 0 L241 20 L178 20 L178 393 L29 393 L29 373 L88 373 L88 20 Z M131 654 C99 654 76 630 76 598 C76 565 100 540 131 540 C162 540 187 565 187 597 C187 628 162 654 131 654 L131 654 Z " />
<glyph glyph-name="j" unicode="j" horiz-adv-x="232" d="M79 373 L79 -144 C79 -209 78 -220 70 -235 C65 -244 56 -250 47 -250 C33 -250 30 -245 30 -221 L30 -210 C29 -184 29 -182 24 -173 C18 -162 5 -155 -8 -155 C-31 -155 -47 -173 -47 -200 C-47 -240 -9 -271 40 -271 C84 -271 128 -245 147 -207 C165 -172 169 -144 169 -61 L169 393 L16 393 L16 373 L79 373 Z M122 654 C90 654 67 630 67 597 C67 565 91 540 122 540 C153 540 178 565 178 597 C178 628 153 654 122 654 L122 654 Z " />
<glyph glyph-name="k" unicode="k" horiz-adv-x="465" d="M165 667 L16 667 L16 647 L75 647 L75 20 L16 20 L16 0 L228 0 L228 20 L165 20 L165 667 Z M246 252 L365 373 L431 373 L431 393 L239 393 L239 373 L332 373 L174 210 L310 20 L263 20 L263 0 L466 0 L466 20 L423 20 L246 252 Z " />
<glyph glyph-name="l" unicode="l" horiz-adv-x="244" d="M75 20 L16 20 L16 0 L228 0 L228 20 L165 20 L165 667 L16 667 L16 647 L75 647 L75 20 Z " />
<glyph glyph-name="m" unicode="m" horiz-adv-x="725" d="M92 20 L29 20 L29 0 L235 0 L235 20 L182 20 L182 128 C182 249 187 299 201 328 C213 351 245 370 273 370 C291 370 307 362 314 349 C322 335 325 315 325 266 L325 20 L268 20 L268 0 L468 0 L468 20 L415 20 L415 128 C415 292 415 293 435 329 C449 355 479 373 508 373 C527 373 543 364 550 350 C558 337 559 324 559 266 L559 20 L502 20 L502 0 L708 0 L708 20 L649 20 L649 266 C649 315 645 339 634 358 C619 386 582 403 538 403 C481 403 439 382 409 337 C394 382 360 403 306 403 C254 403 216 384 182 343 L182 393 L29 393 L29 373 L92 373 L92 20 Z " />
<glyph glyph-name="n" unicode="n" horiz-adv-x="500" d="M92 20 L29 20 L29 0 L235 0 L235 20 L182 20 L182 139 C182 257 187 298 203 331 C215 355 245 373 271 373 C290 373 309 361 317 345 C328 320 331 287 331 174 L331 20 L278 20 L278 0 L484 0 L484 20 L421 20 L421 242 C421 306 418 327 405 350 C387 382 345 403 299 403 C250 403 213 384 182 341 L182 393 L29 393 L29 373 L92 373 L92 20 Z " />
<glyph glyph-name="o" unicode="o" horiz-adv-x="451" d="M225 403 C119 403 33 311 33 197 C33 82 119 -10 225 -10 C330 -10 417 82 417 194 C417 311 333 403 225 403 L225 403 Z M310 197 L311 146 C312 48 290 13 225 13 C186 13 162 27 148 58 C141 77 139 103 139 208 C139 302 141 321 152 343 C166 368 189 380 225 380 C285 380 310 349 310 272 L310 197 Z " />
<glyph glyph-name="p" unicode="p" horiz-adv-x="470" d="M79 -247 L16 -247 L16 -267 L232 -267 L232 -247 L169 -247 L169 78 C195 18 229 -10 278 -10 C363 -10 436 89 436 204 C436 314 367 403 282 403 C233 403 194 374 169 320 L169 393 L16 393 L16 373 L79 373 L79 -247 Z M269 380 C288 380 306 370 315 352 C326 333 330 300 330 231 C330 57 317 13 267 13 C209 13 171 87 171 201 C171 309 210 380 269 380 L269 380 Z " />
<glyph glyph-name="q" unicode="q" horiz-adv-x="470" d="M391 373 L454 373 L454 393 L301 393 L301 321 C279 370 236 403 192 403 C103 403 33 314 33 201 C33 85 106 -10 196 -10 C240 -10 280 22 301 73 L301 -247 L233 -247 L233 -267 L454 -267 L454 -247 L391 -247 L391 373 Z M205 380 C224 380 244 369 261 349 C287 318 298 272 298 190 C298 126 292 92 274 62 C257 31 231 13 206 13 C180 13 159 30 149 59 C142 81 140 108 140 180 C140 288 143 323 155 348 C163 367 184 380 205 380 L205 380 Z " />
<glyph glyph-name="r" unicode="r" horiz-adv-x="353" d="M92 20 L29 20 L29 0 L245 0 L245 20 L182 20 L182 113 C182 199 186 241 199 285 C212 330 231 362 245 362 C251 362 253 357 254 341 C255 313 271 294 296 294 C321 294 340 316 340 345 C340 379 316 403 283 403 C240 403 208 369 182 298 L182 393 L29 393 L29 373 L92 373 L92 20 Z " />
<glyph glyph-name="s" unicode="s" horiz-adv-x="324" d="M277 398 L262 398 L247 366 C215 393 189 403 156 403 C90 403 43 351 43 279 C43 250 51 222 67 201 C84 177 118 162 171 154 C234 145 260 126 260 88 C260 46 223 13 175 13 C145 13 113 27 96 49 C76 73 66 98 53 150 L39 150 L42 0 L53 0 L75 32 C111 1 138 -10 175 -10 C246 -10 297 47 297 126 C297 200 257 240 169 254 C103 264 77 280 77 310 C77 349 113 380 157 380 C213 380 256 340 265 280 L280 280 L277 398 Z " />
<glyph glyph-name="t" unicode="t" horiz-adv-x="277" d="M165 546 L149 546 C126 476 83 422 22 387 L22 373 L75 373 L75 119 C75 64 76 55 86 37 C103 7 136 -10 178 -10 C236 -10 271 19 280 75 L261 75 C253 38 238 21 209 21 C193 21 179 28 172 40 C166 51 165 60 165 89 L165 373 L261 373 L261 393 L165 393 L165 546 Z " />
<glyph glyph-name="u" unicode="u" horiz-adv-x="504" d="M418 393 L269 393 L269 373 L328 373 L328 233 C328 123 324 96 305 60 C290 31 258 13 223 13 C201 13 182 21 175 35 C166 50 165 71 165 160 L165 393 L16 393 L16 373 L75 373 L75 160 C75 90 78 68 91 44 C110 10 152 -10 203 -10 C261 -10 302 11 328 55 L328 0 L481 0 L481 20 L418 20 L418 393 Z " />
<glyph glyph-name="v" unicode="v" horiz-adv-x="390" d="M354 373 L392 373 L392 393 L257 393 L257 373 L329 373 L231 104 L131 373 L199 373 L199 393 L-2 393 L-2 373 L38 373 L183 -10 L217 -10 L354 373 Z " />
<glyph glyph-name="w" unicode="w" horiz-adv-x="578" d="M534 373 L579 373 L579 393 L437 393 L437 373 L510 373 L437 114 L339 393 L305 393 L224 114 L135 373 L198 373 L198 393 L-2 393 L-2 373 L42 373 L181 -10 L211 -10 L292 266 L392 -10 L422 -10 L534 373 Z " />
<glyph glyph-name="x" unicode="x" horiz-adv-x="417" d="M235 233 L336 373 L401 373 L401 393 L246 393 L246 373 L308 373 L223 254 L146 373 L202 373 L202 393 L3 393 L3 373 L46 373 L170 181 L55 20 L3 20 L3 0 L155 0 L155 20 L82 20 L183 161 L275 20 L235 20 L235 0 L413 0 L413 20 L375 20 L235 233 Z " />
<glyph glyph-name="y" unicode="y" horiz-adv-x="389" d="M353 373 L391 373 L391 393 L253 393 L253 373 L328 373 L239 117 L133 373 L200 373 L200 393 L-2 393 L-2 373 L38 373 L200 0 L147 -148 C129 -196 127 -201 117 -201 C112 -201 109 -199 103 -190 C92 -176 80 -169 63 -169 C36 -169 17 -188 17 -216 C17 -244 40 -265 72 -265 C113 -265 142 -234 168 -159 L353 373 Z " />
<glyph glyph-name="z" unicode="z" horiz-adv-x="380" d="M360 393 L54 393 L54 240 L67 240 C98 358 114 373 198 373 L247 373 L19 0 L346 0 L348 167 L335 167 C305 37 289 19 203 20 L128 20 L360 393 Z " />
<glyph glyph-name="braceleft" unicode="&#x7b;" horiz-adv-x="255" d="M3 249 C50 245 57 229 57 127 L57 2 C57 -91 59 -104 73 -131 C97 -169 125 -178 214 -179 L232 -180 L232 -160 C166 -159 143 -125 142 -25 L142 130 C144 207 120 246 64 256 L64 260 C123 273 144 307 143 390 L143 513 C143 610 165 643 232 647 L232 667 L215 666 L184 665 C141 664 127 662 107 651 C70 626 57 588 57 503 L57 375 C56 290 45 267 3 266 L3 249 Z " />
<glyph glyph-name="bar" unicode="&#x7c;" horiz-adv-x="475" d="M205 667 L205 -167 L270 -167 L270 667 L205 667 Z " />
<glyph glyph-name="braceright" unicode="&#x7d;" horiz-adv-x="255" d="M232 266 C191 267 179 290 179 375 L179 503 C178 633 146 669 32 666 C28 666 16 666 3 667 L3 647 C71 643 93 610 93 513 L93 390 C90 307 111 273 171 260 L171 256 C115 245 91 207 93 130 L93 -25 C92 -126 70 -159 3 -160 L3 -180 C101 -178 115 -175 146 -151 C175 -119 178 -105 179 2 L179 127 C178 229 186 246 232 249 L232 266 Z " />
<glyph glyph-name="asciitilde" unicode="&#x7e;" horiz-adv-x="491" d="M395 375 C374 347 365 342 340 342 C323 342 305 345 289 351 L245 366 C219 375 208 377 191 377 C139 377 108 355 82 300 L97 291 C114 317 128 325 155 325 C170 325 193 321 212 314 L255 300 C276 293 295 289 309 289 C347 289 381 315 410 366 L395 375 Z " />
<glyph glyph-name="uni00A0" unicode="&#xa0;" horiz-adv-x="250" d="" />
<glyph glyph-name="exclamdown" unicode="&#xa1;" horiz-adv-x="252" d="M115 210 C112 88 102 -13 85 -94 C76 -139 70 -181 70 -205 C70 -243 92 -270 124 -270 C156 -270 180 -241 180 -203 C180 -180 173 -136 162 -86 C144 -2 135 98 133 210 L115 210 Z M126 296 C156 296 182 323 182 355 C182 387 157 413 127 413 C95 413 70 387 70 355 C70 323 95 296 125 296 L126 296 Z " />
<glyph glyph-name="cent" unicode="&#xa2;" horiz-adv-x="475" d="M273 524 C302 522 327 506 327 491 C327 489 326 487 323 482 C314 470 308 451 308 436 C308 410 327 389 352 389 C377 389 396 411 396 441 C396 494 345 536 273 542 L273 630 L245 630 L245 542 C149 534 71 442 71 336 C71 229 145 142 245 131 L245 36 L273 36 L273 132 C337 139 393 194 410 268 L386 268 C365 199 327 160 273 153 L273 524 Z M245 152 C190 164 174 196 174 296 C174 466 188 509 245 522 L245 152 Z " />
<glyph glyph-name="sterling" unicode="&#xa3;" horiz-adv-x="475" d="M252 296 C243 311 238 320 224 342 C174 420 160 458 160 512 C160 598 209 656 281 656 C331 656 370 625 370 584 C370 577 368 572 361 566 C343 549 338 539 338 520 C338 492 358 471 385 471 C418 471 445 501 445 539 C445 613 367 677 275 677 C164 677 68 588 68 484 C68 445 81 410 111 371 C125 352 132 344 171 296 L55 296 L55 263 L195 263 C226 220 236 195 236 161 C236 149 236 141 233 116 C174 138 150 143 114 143 C51 143 7 112 7 69 C7 25 49 -6 108 -6 C151 -6 183 5 232 38 C281 2 317 -13 356 -13 C436 -13 485 56 485 171 L459 171 L459 156 C459 98 426 54 382 54 C355 54 334 63 263 103 C274 138 278 161 278 192 C278 220 275 238 265 263 L393 263 L393 296 L252 296 Z M204 56 C177 32 147 21 113 21 C72 21 41 42 41 68 C41 90 60 106 85 106 C115 106 153 90 204 56 L204 56 Z " />
<glyph glyph-name="currency" unicode="&#xa4;" horiz-adv-x="475" d="M361 481 C325 512 283 528 237 528 C192 528 151 512 114 481 L50 547 L28 523 L91 457 C62 420 46 375 46 327 C46 279 61 235 91 196 L28 130 L50 106 L113 173 C150 141 193 125 237 125 C282 125 326 142 361 173 L424 106 L447 130 L384 196 C413 234 429 279 429 327 C429 375 414 418 384 457 L447 523 L424 547 L361 481 Z M237 462 C306 462 363 401 363 327 C363 251 307 191 236 191 C168 191 112 253 112 326 C112 402 168 462 237 462 L237 462 Z " />
<glyph glyph-name="yen" unicode="&#xa5;" horiz-adv-x="475" d="M193 304 L193 20 L115 20 L115 0 L359 0 L359 20 L286 20 L286 304 L412 304 L412 324 L292 324 L333 433 L451 433 L451 453 L341 453 L411 627 L469 627 L469 647 L306 647 L306 627 L387 627 L274 339 L150 627 L221 627 L221 647 L6 647 L6 627 L48 627 L127 453 L23 453 L23 433 L136 433 L185 324 L62 324 L62 304 L193 304 Z " />
<glyph glyph-name="brokenbar" unicode="&#xa6;" horiz-adv-x="475" d="M205 667 L205 326 L270 326 L270 667 L205 667 Z M205 153 L205 -167 L270 -167 L270 153 L205 153 Z " />
<glyph glyph-name="section" unicode="&#xa7;" horiz-adv-x="475" d="M333 117 C395 142 427 192 427 262 C427 298 416 329 396 349 C372 374 320 408 264 435 C157 488 128 516 128 564 C128 621 173 657 244 657 C293 657 324 642 350 607 C311 599 291 578 291 546 C291 520 313 499 340 499 C372 499 398 527 398 561 C398 626 331 677 245 677 C145 677 77 613 77 519 C77 465 96 430 146 393 C86 374 51 322 51 253 C51 217 63 184 82 164 C104 142 156 109 214 80 C286 44 341 7 353 -13 C362 -28 366 -43 366 -61 C366 -127 309 -170 223 -170 C162 -170 113 -148 88 -110 C93 -111 98 -111 101 -111 C135 -111 163 -81 163 -44 C163 -11 141 13 111 13 C77 13 49 -18 49 -56 C49 -133 121 -190 218 -190 C339 -190 424 -121 424 -24 C424 31 400 68 333 117 L333 117 Z M162 379 C178 379 186 377 211 365 C242 349 285 327 309 313 C368 277 385 254 385 213 C385 173 353 134 318 134 C297 134 283 140 225 172 C164 206 144 218 125 232 C105 248 92 275 92 303 C92 341 126 379 162 379 L162 379 Z " />
<glyph glyph-name="dieresis" unicode="&#xa8;" horiz-adv-x="480" d="M154 591 C125 591 101 568 101 541 C101 512 123 490 152 490 C181 490 204 512 204 540 C204 568 181 591 154 591 L154 591 Z M327 591 C298 591 276 569 276 541 C276 512 298 490 328 490 C358 490 379 510 379 539 C379 568 356 591 327 591 L327 591 Z " />
<glyph glyph-name="copyright" unicode="&#xa9;" horiz-adv-x="738" d="M369 677 C187 677 40 523 40 333 C40 146 188 -10 365 -10 C553 -10 699 141 699 335 C699 524 551 677 369 677 L369 677 Z M370 644 C529 644 659 505 659 335 C659 160 530 23 366 23 C210 23 80 164 80 333 C80 505 209 644 370 644 L370 644 Z M499 256 L485 256 C462 190 428 158 378 158 C356 158 334 165 319 179 C298 196 290 230 290 296 C290 393 295 444 308 470 C320 494 350 509 383 509 C435 509 471 477 485 418 L499 418 L499 523 L486 523 L467 498 C439 519 409 529 378 529 C285 529 208 440 208 333 C208 226 283 138 374 138 C405 138 435 148 467 169 L486 143 L499 143 L499 256 Z " />
<glyph glyph-name="ordfeminine" unicode="&#xaa;" horiz-adv-x="324" d="M293 330 L24 330 L24 297 L293 297 L293 330 Z M288 429 C274 417 274 417 268 417 C256 417 256 417 256 492 L256 566 C256 618 256 621 248 634 C234 659 199 674 158 674 C99 674 49 641 49 603 C49 586 63 572 80 572 C98 572 111 586 111 603 C111 612 108 618 102 625 C100 629 99 630 99 632 C99 644 126 658 149 658 C164 658 180 651 185 641 C189 633 190 627 190 593 L190 550 C87 547 30 514 30 457 C30 420 60 393 104 393 C139 393 172 411 191 440 C197 410 218 393 249 393 C268 393 282 399 299 415 L288 429 Z M191 523 C192 458 174 428 135 428 C111 428 97 443 97 470 C97 509 128 530 191 533 L191 523 Z " />
<glyph glyph-name="guillemotleft" unicode="&#xab;" horiz-adv-x="363" d="M41 198 L146 94 L207 94 L100 198 L206 304 L150 304 L41 198 Z M150 198 L255 94 L316 94 L209 198 L316 304 L259 304 L150 198 Z " />
<glyph glyph-name="logicalnot" unicode="&#xac;" horiz-adv-x="475" d="M328 0 L443 0 L443 267 L32 267 L32 217 L328 217 L328 0 Z " />
<glyph glyph-name="uni00AD" unicode="&#xad;" horiz-adv-x="184" d="M0 234 L0 168 L184 168 L184 234 L0 234 Z " />
<glyph glyph-name="registered" unicode="&#xae;" horiz-adv-x="738" d="M369 677 C187 677 40 523 40 333 C40 146 188 -10 365 -10 C553 -10 699 141 699 335 C699 524 551 677 369 677 L369 677 Z M370 644 C529 644 659 505 659 335 C659 160 530 23 366 23 C210 23 80 164 80 333 C80 505 209 644 370 644 L370 644 Z M253 161 L206 161 L206 143 L368 143 L368 161 L324 161 L324 336 L334 337 L339 337 C403 337 420 321 422 256 C422 215 426 196 436 177 C449 156 476 141 504 141 C519 141 529 143 547 151 L541 167 C527 162 522 161 517 161 C499 161 494 174 494 217 C496 287 472 323 409 343 C473 356 506 387 506 434 C506 465 490 491 463 505 C432 521 416 523 343 523 L206 523 L206 505 L253 505 L253 161 Z M324 355 L324 505 L342 505 C375 505 388 503 401 496 C420 485 431 462 431 430 C431 399 421 375 403 365 C389 358 373 355 340 355 L324 355 Z " />
<glyph glyph-name="macron" unicode="&#xaf;" horiz-adv-x="489" d="M106 544 L106 510 L383 510 L383 544 L106 544 Z " />
<glyph glyph-name="degree" unicode="&#xb0;" horiz-adv-x="400" d="M203 686 C117 686 50 619 50 534 C50 448 116 380 200 380 C284 380 350 447 350 533 C350 619 286 686 203 686 L203 686 Z M202 629 C252 629 293 586 293 533 C293 479 252 437 200 437 C148 437 106 480 106 532 C106 587 148 629 202 629 L202 629 Z " />
<glyph glyph-name="plusminus" unicode="&#xb1;" horiz-adv-x="475" d="M220 306 L220 130 L255 130 L255 306 L430 306 L430 341 L255 341 L255 517 L220 517 L220 341 L44 341 L44 306 L220 306 Z M44 31 L430 31 L430 66 L44 66 L44 31 Z " />
<glyph glyph-name="twosuperior" unicode="&#xb2;" horiz-adv-x="315" d="M270 369 L253 369 C252 362 251 356 251 354 C249 339 245 325 241 320 C237 314 230 312 202 312 L78 312 C169 401 216 446 216 447 C256 490 272 521 272 554 C272 611 222 653 155 653 C91 653 43 614 43 562 C43 528 62 503 89 503 C108 503 123 517 123 534 C123 550 109 564 92 564 C87 564 80 562 72 560 C71 559 70 559 70 559 C66 559 64 563 64 569 C64 601 96 630 130 630 C170 630 198 592 198 538 C198 514 195 493 189 481 C174 450 142 409 95 363 C85 352 58 323 28 291 L28 258 L266 258 L270 369 Z " />
<glyph glyph-name="threesuperior" unicode="&#xb3;" horiz-adv-x="315" d="M80 458 C121 458 131 457 144 453 C182 442 198 416 198 365 C198 303 175 271 131 271 C108 271 79 286 79 298 C79 300 80 301 84 304 C93 312 98 322 98 333 C98 350 85 363 68 363 C49 363 34 347 34 328 C34 286 80 253 139 253 C217 253 277 304 277 369 C277 423 243 455 169 470 C228 492 256 523 256 565 C256 615 210 653 150 653 C97 653 56 624 56 586 C56 567 70 552 87 552 C103 552 115 565 115 582 C115 591 110 602 104 608 C98 612 98 612 98 614 C98 624 120 635 139 635 C168 635 182 615 182 571 C182 528 171 500 152 490 C135 481 124 479 80 478 L80 458 Z " />
<glyph glyph-name="acute" unicode="&#xb4;" horiz-adv-x="484" d="M290 616 L193 473 L202 463 L369 599 C372 602 374 605 374 608 C374 613 371 616 365 616 L290 616 Z " />
<glyph glyph-name="mu" unicode="&#xb5;" horiz-adv-x="576" d="M442 500 L353 500 L354 131 C318 80 284 58 242 58 C184 58 150 99 150 169 L150 500 L62 500 L62 20 C62 -1 58 -26 51 -56 C34 -118 33 -123 33 -147 C33 -190 54 -219 83 -219 C112 -219 132 -189 132 -145 C132 -124 129 -110 113 -53 C102 -17 101 -8 101 21 L101 33 C143 -3 165 -13 200 -13 C250 -13 301 18 354 80 C362 48 367 36 377 21 C392 0 419 -13 449 -13 C510 -13 553 31 567 108 L540 109 C536 71 515 41 492 41 C462 41 442 77 442 131 L442 500 Z " />
<glyph glyph-name="paragraph" unicode="&#xb6;" horiz-adv-x="475" d="M216 -160 L146 -160 L146 -180 L442 -180 L442 -160 L394 -160 L394 647 L442 647 L442 667 L213 667 C157 667 110 652 82 625 C48 592 27 540 27 486 C27 380 96 308 199 308 L216 308 L216 -160 Z M267 -160 L267 647 L344 647 L344 -160 L267 -160 Z " />
<glyph glyph-name="periodcentered" unicode="&#xb7;" horiz-adv-x="226" d="M113 259 C83 259 57 232 57 200 C57 168 82 142 112 142 C144 142 169 168 169 200 C169 231 144 259 115 259 L113 259 Z " />
<glyph glyph-name="cedilla" unicode="&#xb8;" horiz-adv-x="475" d="M270 0 L251 -60 C285 -75 296 -88 296 -117 C296 -145 280 -162 254 -162 C230 -162 217 -153 217 -136 C216 -110 210 -98 197 -98 C188 -98 182 -106 182 -118 C182 -153 218 -178 269 -178 C323 -178 364 -147 364 -106 C364 -74 333 -52 290 -52 L273 -52 L288 0 L270 0 Z " />
<glyph glyph-name="onesuperior" unicode="&#xb9;" horiz-adv-x="315" d="M131 278 L75 278 L75 259 L262 259 L262 278 L202 278 L202 651 L75 644 L75 626 L119 627 L126 627 C129 627 130 627 130 626 C131 626 131 620 131 616 L131 278 Z " />
<glyph glyph-name="ordmasculine" unicode="&#xba;" horiz-adv-x="329" d="M298 330 L30 330 L30 297 L298 297 L298 330 Z M165 674 C86 674 24 612 24 534 C24 456 86 393 164 393 C241 393 304 456 304 531 C304 611 243 674 165 674 L165 674 Z M164 653 C208 653 226 633 226 584 C226 541 226 536 227 500 C228 436 212 414 165 414 C137 414 117 423 110 440 C103 456 102 467 102 534 C102 600 103 611 110 627 C117 644 137 653 164 653 L164 653 Z " />
<glyph glyph-name="guillemotright" unicode="&#xbb;" horiz-adv-x="363" d="M323 200 L217 304 L157 304 L264 200 L157 94 L214 94 L323 200 Z M214 200 L108 304 L48 304 L155 200 L48 94 L104 94 L214 200 Z " />
<glyph glyph-name="onequarter" unicode="&#xbc;" horiz-adv-x="720" d="M131 278 L75 278 L75 259 L262 259 L262 278 L202 278 L202 651 L75 644 L75 626 L119 627 L126 627 C129 627 130 627 130 626 C131 626 131 620 131 616 L131 278 Z M508 647 L211 0 L239 0 L536 647 L508 647 Z M565 102 L565 19 L505 19 L505 0 L684 0 L684 19 L636 19 L636 102 L674 102 L674 58 L695 58 L695 168 L674 168 L674 124 L636 124 L636 392 L593 392 L424 129 L424 102 L565 102 Z M565 124 L446 124 L565 313 L565 124 Z " />
<glyph glyph-name="onehalf" unicode="&#xbd;" horiz-adv-x="720" d="M131 278 L75 278 L75 259 L262 259 L262 278 L202 278 L202 651 L75 644 L75 626 L119 627 L126 627 C129 627 130 627 130 626 C131 626 131 620 131 616 L131 278 Z M495 647 L198 0 L226 0 L523 647 L495 647 Z M676 111 L658 111 C657 104 656 98 656 96 C654 80 651 67 646 62 C643 56 636 54 608 54 L484 54 C576 143 622 188 622 188 C662 232 678 263 678 295 C678 352 628 394 561 394 C497 394 449 355 449 304 C449 270 468 245 494 245 C513 245 528 259 528 275 C528 291 514 305 498 305 C492 305 486 304 478 302 C477 301 476 301 476 301 C472 301 470 305 470 311 C470 342 502 371 536 371 C576 371 604 333 604 280 C604 256 601 235 595 222 C580 191 548 151 501 104 C490 94 463 65 434 33 L434 0 L672 0 L676 111 Z " />
<glyph glyph-name="threequarters" unicode="&#xbe;" horiz-adv-x="720" d="M80 458 C121 458 131 457 144 453 C182 442 198 416 198 365 C198 303 175 271 131 271 C108 271 79 286 79 298 C79 300 80 301 84 304 C93 312 98 322 98 333 C98 350 85 363 68 363 C49 363 34 347 34 328 C34 286 80 253 139 253 C217 253 277 304 277 369 C277 423 243 455 169 470 C228 492 256 523 256 565 C256 615 210 653 150 653 C97 653 56 624 56 586 C56 567 70 552 87 552 C103 552 115 565 115 582 C115 591 110 602 104 608 C98 612 98 612 98 614 C98 624 120 635 139 635 C168 635 182 615 182 571 C182 528 171 500 152 490 C135 481 124 479 80 478 L80 458 Z M514 647 L217 0 L245 0 L542 647 L514 647 Z M565 102 L565 19 L505 19 L505 0 L684 0 L684 19 L636 19 L636 102 L674 102 L674 58 L695 58 L695 168 L674 168 L674 124 L636 124 L636 392 L593 392 L424 129 L424 102 L565 102 Z M565 124 L446 124 L565 313 L565 124 Z " />
<glyph glyph-name="questiondown" unicode="&#xbf;" horiz-adv-x="354" d="M216 207 C214 137 204 117 138 66 C60 7 33 -37 33 -109 C33 -202 96 -270 182 -270 C261 -270 324 -212 324 -141 C324 -107 304 -82 279 -82 C257 -82 241 -100 241 -125 C241 -146 249 -160 268 -172 C277 -177 282 -184 282 -190 C282 -219 230 -250 181 -250 C123 -250 80 -213 80 -163 C80 -131 96 -104 140 -61 C214 9 236 59 236 157 C236 177 235 191 232 215 L216 207 Z M218 297 C248 297 274 324 274 355 C274 387 249 413 219 413 C188 413 162 387 162 355 C162 324 187 297 216 297 L218 297 Z " />
<glyph glyph-name="Agrave" unicode="&#xc0;" horiz-adv-x="557" d="M214 837 L114 837 C102 837 98 834 98 826 C98 820 102 816 112 812 L345 720 L352 732 L214 837 Z M326 215 L389 20 L306 20 L306 0 L563 0 L563 20 L496 20 L291 667 L263 667 L49 20 L3 20 L3 0 L157 0 L157 20 L74 20 L136 215 L326 215 Z M320 235 L143 235 L232 512 L320 235 Z " />
<glyph glyph-name="Aacute" unicode="&#xc1;" horiz-adv-x="557" d="M368 837 L230 732 L237 720 L469 812 C480 817 484 820 484 826 C484 834 480 837 468 837 L368 837 Z M326 215 L389 20 L306 20 L306 0 L563 0 L563 20 L496 20 L291 667 L263 667 L49 20 L3 20 L3 0 L157 0 L157 20 L74 20 L136 215 L326 215 Z M320 235 L143 235 L232 512 L320 235 Z " />
<glyph glyph-name="Acircumflex" unicode="&#xc2;" horiz-adv-x="557" d="M277 843 L110 732 L116 720 L277 769 L438 720 L443 732 L277 843 Z M326 215 L389 20 L306 20 L306 0 L563 0 L563 20 L496 20 L291 667 L263 667 L49 20 L3 20 L3 0 L157 0 L157 20 L74 20 L136 215 L326 215 Z M320 235 L143 235 L232 512 L320 235 Z " />
<glyph glyph-name="Atilde" unicode="&#xc3;" horiz-adv-x="557" d="M434 819 C413 790 404 785 379 785 C363 785 344 788 328 794 L284 809 C259 818 247 820 230 820 C178 820 147 798 121 744 L135 734 C153 760 167 768 194 768 C210 768 232 764 251 758 L294 743 C315 736 335 732 347 732 C386 732 420 758 449 810 L434 819 Z M326 215 L389 20 L306 20 L306 0 L563 0 L563 20 L496 20 L291 667 L263 667 L49 20 L3 20 L3 0 L157 0 L157 20 L74 20 L136 215 L326 215 Z M320 235 L143 235 L232 512 L320 235 Z " />
<glyph glyph-name="Adieresis" unicode="&#xc4;" horiz-adv-x="557" d="M177 830 C149 830 125 806 125 777 C125 749 148 727 177 727 C206 727 229 749 229 779 C229 807 206 830 177 830 L177 830 Z M377 830 C349 830 325 806 325 778 C325 749 348 727 377 727 C407 727 429 749 429 779 C429 807 406 830 377 830 L377 830 Z M326 215 L389 20 L306 20 L306 0 L563 0 L563 20 L496 20 L291 667 L263 667 L49 20 L3 20 L3 0 L157 0 L157 20 L74 20 L136 215 L326 215 Z M320 235 L143 235 L232 512 L320 235 Z " />
<glyph glyph-name="Aring" unicode="&#xc5;" horiz-adv-x="557" d="M274 859 C233 859 199 825 199 782 C199 740 232 707 275 707 C317 707 350 740 350 781 C350 825 317 859 274 859 L274 859 Z M275 831 C299 831 320 808 320 783 C320 757 299 735 274 735 C250 735 229 757 229 783 C229 809 250 831 275 831 L275 831 Z M326 215 L389 20 L306 20 L306 0 L563 0 L563 20 L496 20 L291 667 L263 667 L49 20 L3 20 L3 0 L157 0 L157 20 L74 20 L136 215 L326 215 Z M320 235 L143 235 L232 512 L320 235 Z " />
<glyph glyph-name="AE" unicode="&#xc6;" horiz-adv-x="811" d="M365 209 L365 20 L286 20 L286 0 L758 0 L776 208 L763 208 C738 115 729 93 701 56 C670 23 659 19 589 20 L472 20 L472 327 C487 328 493 328 504 328 C559 328 583 315 595 278 C601 260 603 248 606 196 L618 196 L618 471 L606 471 C604 365 584 346 480 347 L472 347 L472 647 L543 647 C668 652 707 620 736 484 L749 484 L743 667 L248 667 L248 647 L342 647 L53 20 L-20 20 L-20 0 L174 0 L174 20 L80 20 L167 209 L365 209 Z M365 229 L174 229 L365 640 L365 229 Z " />
<glyph glyph-name="Ccedilla" unicode="&#xc7;" horiz-adv-x="555" d="M315 -10 C367 -9 418 11 467 48 L500 0 L514 0 L514 189 L500 189 C461 71 402 13 318 13 C264 13 212 40 193 79 C173 120 166 175 166 307 C166 422 172 504 184 550 C201 614 256 654 326 654 C414 654 476 596 500 491 L514 491 L514 667 L500 667 L467 620 C421 658 370 677 318 677 C261 677 201 651 150 605 C81 542 40 441 40 332 C40 150 144 11 296 -10 L280 -61 C314 -75 326 -90 326 -118 C326 -147 310 -164 283 -164 C258 -164 245 -155 244 -138 C244 -111 238 -100 225 -100 C215 -100 209 -108 209 -120 C209 -156 246 -181 297 -181 C353 -181 395 -150 395 -108 C395 -76 364 -53 319 -53 L302 -53 L315 -10 Z " />
<glyph glyph-name="Egrave" unicode="&#xc8;" horiz-adv-x="555" d="M251 837 L151 837 C139 837 135 834 135 826 C135 820 139 817 150 812 L382 720 L389 732 L251 837 Z M109 20 L30 20 L30 0 L502 0 L520 208 L507 208 C483 117 473 92 445 56 C414 23 403 19 333 20 L216 20 L216 328 L248 328 C303 328 327 315 339 278 C345 261 346 250 350 196 L363 196 L363 471 L350 471 C347 365 328 347 224 348 L216 347 L216 647 L287 647 C412 652 450 620 480 484 L493 484 L486 667 L30 667 L30 647 L109 647 L109 20 Z " />
<glyph glyph-name="Eacute" unicode="&#xc9;" horiz-adv-x="555" d="M355 837 L218 732 L225 720 L457 812 C468 817 472 820 472 826 C472 834 468 837 456 837 L355 837 Z M109 20 L30 20 L30 0 L502 0 L520 208 L507 208 C483 117 473 92 445 56 C414 23 403 19 333 20 L216 20 L216 328 L248 328 C303 328 327 315 339 278 C345 261 346 250 350 196 L363 196 L363 471 L350 471 C347 365 328 347 224 348 L216 347 L216 647 L287 647 C412 652 450 620 480 484 L493 484 L486 667 L30 667 L30 647 L109 647 L109 20 Z " />
<glyph glyph-name="Ecircumflex" unicode="&#xca;" horiz-adv-x="555" d="M291 843 L124 732 L130 720 L291 769 L452 720 L457 732 L291 843 Z M109 20 L30 20 L30 0 L502 0 L520 208 L507 208 C483 117 473 92 445 56 C414 23 403 19 333 20 L216 20 L216 328 L248 328 C303 328 327 315 339 278 C345 261 346 250 350 196 L363 196 L363 471 L350 471 C347 365 328 347 224 348 L216 347 L216 647 L287 647 C412 652 450 620 480 484 L493 484 L486 667 L30 667 L30 647 L109 647 L109 20 Z " />
<glyph glyph-name="Edieresis" unicode="&#xcb;" horiz-adv-x="555" d="M188 830 C160 830 136 806 136 778 C136 749 159 727 188 727 C218 727 240 749 240 779 C240 807 217 830 188 830 L188 830 Z M387 830 C359 830 335 806 335 777 C335 749 358 727 387 727 C416 727 439 749 439 779 C439 807 416 830 387 830 L387 830 Z M109 20 L30 20 L30 0 L502 0 L520 208 L507 208 C483 117 473 92 445 56 C414 23 403 19 333 20 L216 20 L216 328 L248 328 C303 328 327 315 339 278 C345 261 346 250 350 196 L363 196 L363 471 L350 471 C347 365 328 347 224 348 L216 347 L216 647 L287 647 C412 652 450 620 480 484 L493 484 L486 667 L30 667 L30 647 L109 647 L109 20 Z " />
<glyph glyph-name="Igrave" unicode="&#xcc;" horiz-adv-x="325" d="M109 20 L30 20 L30 0 L295 0 L295 20 L216 20 L216 647 L295 647 L295 667 L30 667 L30 647 L109 647 L109 20 Z M125 837 L25 837 C13 837 9 834 9 826 C9 820 13 817 24 812 L256 720 L263 732 L125 837 Z " />
<glyph glyph-name="Iacute" unicode="&#xcd;" horiz-adv-x="325" d="M109 20 L30 20 L30 0 L295 0 L295 20 L216 20 L216 647 L295 647 L295 667 L30 667 L30 647 L109 647 L109 20 Z M246 837 L108 732 L115 720 L347 812 C358 816 362 820 362 826 C362 834 358 837 346 837 L246 837 Z " />
<glyph glyph-name="Icircumflex" unicode="&#xce;" horiz-adv-x="325" d="M109 20 L30 20 L30 0 L295 0 L295 20 L216 20 L216 647 L295 647 L295 667 L30 667 L30 647 L109 647 L109 20 Z M163 843 L-4 732 L2 720 L163 769 L323 720 L329 732 L163 843 Z " />
<glyph glyph-name="Idieresis" unicode="&#xcf;" horiz-adv-x="325" d="M110 20 L31 20 L31 0 L296 0 L296 20 L217 20 L217 647 L296 647 L296 667 L31 667 L31 647 L110 647 L110 20 Z M81 830 C53 830 29 806 29 778 C29 749 52 727 81 727 C110 727 133 750 133 779 C133 807 109 830 81 830 L81 830 Z M245 830 C217 830 193 806 193 778 C193 749 216 727 245 727 C275 727 297 749 297 779 C297 807 274 830 245 830 L245 830 Z " />
<glyph glyph-name="Eth" unicode="&#xd0;" horiz-adv-x="642" d="M109 20 L30 20 L30 0 L275 0 C376 0 418 9 464 44 C552 108 602 215 602 339 C602 431 575 508 521 573 C462 644 402 667 274 667 L30 667 L30 647 L109 647 L109 351 L30 351 L30 331 L109 331 L109 20 Z M216 20 L216 331 L340 331 L340 351 L216 351 L216 647 L272 647 C342 647 364 643 394 625 C457 589 475 528 475 352 C475 180 463 108 427 68 C395 33 354 20 276 20 L216 20 Z " />
<glyph glyph-name="Ntilde" unicode="&#xd1;" horiz-adv-x="635" d="M479 819 C457 790 449 785 423 785 C408 785 389 788 373 794 L329 809 C304 818 292 820 275 820 C223 820 191 798 166 744 L180 734 C198 760 212 768 239 768 C254 768 276 764 296 758 L338 743 C360 736 380 732 392 732 C431 732 465 758 494 810 L479 819 Z M103 20 L24 20 L24 0 L204 0 L204 20 L126 20 L126 628 L512 0 L535 0 L535 647 L614 647 L614 667 L434 667 L434 647 L512 647 L512 196 C482 252 454 298 407 374 L222 667 L24 667 L24 647 L103 647 L103 20 Z " />
<glyph glyph-name="Ograve" unicode="&#xd2;" horiz-adv-x="631" d="M268 837 L168 837 C156 837 152 834 152 826 C152 820 156 816 167 812 L399 720 L406 732 L268 837 Z M316 677 C255 677 199 653 152 607 C80 537 40 439 40 334 C40 243 74 149 130 83 C183 21 245 -10 317 -10 C378 -10 431 13 480 60 C548 126 592 230 592 327 C592 520 468 677 316 677 L316 677 Z M316 654 C365 654 411 629 432 593 C458 544 466 481 466 303 C466 190 456 117 435 79 C411 38 367 13 316 13 C261 13 215 42 193 90 C175 128 167 199 167 328 C167 479 174 541 198 588 C218 627 265 654 316 654 L316 654 Z " />
<glyph glyph-name="Oacute" unicode="&#xd3;" horiz-adv-x="631" d="M404 837 L266 732 L273 720 L505 812 C516 817 520 820 520 826 C520 834 516 837 504 837 L404 837 Z M316 677 C255 677 199 653 152 607 C80 537 40 439 40 334 C40 243 74 149 130 83 C183 21 245 -10 317 -10 C378 -10 431 13 480 60 C548 126 592 230 592 327 C592 520 468 677 316 677 L316 677 Z M316 654 C365 654 411 629 432 593 C458 544 466 481 466 303 C466 190 456 117 435 79 C411 38 367 13 316 13 C261 13 215 42 193 90 C175 128 167 199 167 328 C167 479 174 541 198 588 C218 627 265 654 316 654 L316 654 Z " />
<glyph glyph-name="Ocircumflex" unicode="&#xd4;" horiz-adv-x="631" d="M316 843 L149 732 L155 720 L316 769 L477 720 L483 732 L316 843 Z M316 677 C255 677 199 653 152 607 C80 537 40 439 40 334 C40 243 74 149 130 83 C183 21 245 -10 317 -10 C378 -10 431 13 480 60 C548 126 592 230 592 327 C592 520 468 677 316 677 L316 677 Z M316 654 C365 654 411 629 432 593 C458 544 466 481 466 303 C466 190 456 117 435 79 C411 38 367 13 316 13 C261 13 215 42 193 90 C175 128 167 199 167 328 C167 479 174 541 198 588 C218 627 265 654 316 654 L316 654 Z " />
<glyph glyph-name="Otilde" unicode="&#xd5;" horiz-adv-x="631" d="M471 819 C450 790 441 785 416 785 C400 785 382 788 365 794 L321 809 C297 818 284 820 267 820 C215 820 184 798 158 744 L173 734 C190 760 204 768 231 768 C247 768 269 764 288 758 L331 743 C352 736 372 732 385 732 C423 732 457 758 486 810 L471 819 Z M316 677 C255 677 199 653 152 607 C80 537 40 439 40 334 C40 243 74 149 130 83 C183 21 245 -10 317 -10 C378 -10 431 13 480 60 C548 126 592 230 592 327 C592 520 468 677 316 677 L316 677 Z M316 654 C365 654 411 629 432 593 C458 544 466 481 466 303 C466 190 456 117 435 79 C411 38 367 13 316 13 C261 13 215 42 193 90 C175 128 167 199 167 328 C167 479 174 541 198 588 C218 627 265 654 316 654 L316 654 Z " />
<glyph glyph-name="Odieresis" unicode="&#xd6;" horiz-adv-x="631" d="M216 830 C188 830 164 806 164 777 C164 749 187 727 216 727 C245 727 268 749 268 779 C268 807 245 830 216 830 L216 830 Z M416 830 C388 830 364 806 364 778 C364 749 387 727 416 727 C446 727 468 749 468 779 C468 807 445 830 416 830 L416 830 Z M316 677 C255 677 199 653 152 607 C80 537 40 439 40 334 C40 243 74 149 130 83 C183 21 245 -10 317 -10 C378 -10 431 13 480 60 C548 126 592 230 592 327 C592 520 468 677 316 677 L316 677 Z M316 654 C365 654 411 629 432 593 C458 544 466 481 466 303 C466 190 456 117 435 79 C411 38 367 13 316 13 C261 13 215 42 193 90 C175 128 167 199 167 328 C167 479 174 541 198 588 C218 627 265 654 316 654 L316 654 Z " />
<glyph glyph-name="multiply" unicode="&#xd7;" horiz-adv-x="475" d="M238 298 L376 153 L400 178 L262 323 L400 469 L376 494 L238 348 L100 494 L76 469 L214 323 L76 178 L100 153 L238 298 Z " />
<glyph glyph-name="Oslash" unicode="&#xd8;" horiz-adv-x="631" d="M90 -2 L106 -14 L153 59 C202 12 255 -10 315 -10 C378 -10 431 13 480 60 C550 127 592 230 592 333 C592 428 556 524 495 592 L541 663 L524 675 L481 607 C435 652 376 677 316 677 C254 677 200 654 152 607 C82 540 40 437 40 334 C40 237 76 141 139 74 L90 -2 Z M179 136 C171 174 167 236 167 326 C167 479 174 541 198 588 C218 627 265 654 316 654 C381 654 425 621 447 555 L179 136 Z M454 528 C461 491 465 416 465 326 C465 189 456 118 434 79 C411 38 366 13 316 13 C253 13 202 51 185 109 L454 528 Z " />
<glyph glyph-name="Ugrave" unicode="&#xd9;" horiz-adv-x="610" d="M277 837 L177 837 C165 837 161 834 161 826 C161 820 165 816 176 812 L408 720 L415 732 L277 837 Z M492 647 L492 265 C492 142 489 120 464 76 C441 35 400 13 345 13 C292 13 248 36 226 75 C205 112 203 128 203 265 L203 647 L277 647 L277 667 L17 667 L17 647 L96 647 L96 265 C96 156 101 119 122 83 C155 26 230 -10 319 -10 C400 -10 457 17 486 70 C511 114 515 143 515 265 L515 647 L593 647 L593 667 L413 667 L413 647 L492 647 Z " />
<glyph glyph-name="Uacute" unicode="&#xda;" horiz-adv-x="610" d="M418 837 L280 732 L287 720 L519 812 C530 816 534 820 534 826 C534 834 530 837 518 837 L418 837 Z M492 647 L492 265 C492 142 489 120 464 76 C441 35 400 13 345 13 C292 13 248 36 226 75 C205 112 203 128 203 265 L203 647 L277 647 L277 667 L17 667 L17 647 L96 647 L96 265 C96 156 101 119 122 83 C155 26 230 -10 319 -10 C400 -10 457 17 486 70 C511 114 515 143 515 265 L515 647 L593 647 L593 667 L413 667 L413 647 L492 647 Z " />
<glyph glyph-name="Ucircumflex" unicode="&#xdb;" horiz-adv-x="610" d="M323 843 L156 732 L162 720 L323 769 L484 720 L490 732 L323 843 Z M492 647 L492 265 C492 142 489 120 464 76 C441 35 400 13 345 13 C292 13 248 36 226 75 C205 112 203 128 203 265 L203 647 L277 647 L277 667 L17 667 L17 647 L96 647 L96 265 C96 156 101 119 122 83 C155 26 230 -10 319 -10 C400 -10 457 17 486 70 C511 114 515 143 515 265 L515 647 L593 647 L593 667 L413 667 L413 647 L492 647 Z " />
<glyph glyph-name="Udieresis" unicode="&#xdc;" horiz-adv-x="610" d="M227 830 C199 830 175 806 175 777 C175 749 198 727 227 727 C256 727 279 749 279 779 C279 807 256 830 227 830 L227 830 Z M427 830 C399 830 375 806 375 778 C375 749 398 727 427 727 C457 727 479 749 479 779 C479 807 456 830 427 830 L427 830 Z M492 647 L492 265 C492 142 489 120 464 76 C441 35 400 13 345 13 C292 13 248 36 226 75 C205 112 203 128 203 265 L203 647 L277 647 L277 667 L17 667 L17 647 L96 647 L96 265 C96 156 101 119 122 83 C155 26 230 -10 319 -10 C400 -10 457 17 486 70 C511 114 515 143 515 265 L515 647 L593 647 L593 667 L413 667 L413 647 L492 647 Z " />
<glyph glyph-name="Yacute" unicode="&#xdd;" horiz-adv-x="549" d="M374 837 L236 732 L243 720 L475 812 C486 817 490 820 490 826 C490 834 486 837 474 837 L374 837 Z M224 20 L135 20 L135 0 L414 0 L414 20 L331 20 L331 316 C333 321 335 325 336 327 C336 328 339 334 342 344 C347 359 353 372 359 384 L490 647 L556 647 L556 667 L370 667 L370 647 L465 647 L321 356 C318 363 316 367 306 384 L156 647 L237 647 L237 667 L-9 667 L-9 647 L40 647 L224 316 L224 20 Z " />
<glyph glyph-name="Thorn" unicode="&#xde;" horiz-adv-x="555" d="M109 20 L30 20 L30 0 L295 0 L295 20 L216 20 L216 203 L276 203 C363 203 401 210 446 234 C498 262 530 317 530 376 C530 436 500 488 447 517 C403 543 373 548 274 548 L216 548 L216 647 L295 647 L295 667 L30 667 L30 647 L109 647 L109 20 Z M216 223 L216 528 L276 528 C325 528 345 525 365 513 C397 495 410 454 410 375 C410 312 401 274 381 251 C363 230 335 223 277 223 L216 223 Z " />
<glyph glyph-name="germandbls" unicode="&#xdf;" horiz-adv-x="469" d="M79 20 L16 20 L16 0 L209 0 L209 20 L169 20 L169 208 C169 270 174 296 190 324 C206 353 242 374 276 374 C308 374 328 352 328 317 C328 272 298 244 248 244 C246 244 240 244 236 245 L236 225 C277 224 290 222 305 214 C329 201 346 158 346 113 C346 50 331 13 307 13 C295 13 285 21 285 31 C285 34 286 36 288 41 C294 50 298 63 298 74 C298 97 282 115 262 115 L261 115 C238 115 222 97 222 70 C222 25 262 -10 314 -10 C381 -10 437 46 437 112 C437 179 383 227 298 233 C376 238 420 270 420 320 C420 372 379 403 311 403 C248 403 191 374 169 330 L169 423 C169 508 173 551 183 589 C196 633 217 657 245 657 C255 657 263 649 263 639 C263 636 262 632 261 627 C257 611 256 606 256 597 C256 577 273 562 295 562 C320 562 339 582 339 608 C339 647 302 677 257 677 C192 677 130 628 101 553 C83 508 79 479 79 384 L79 20 Z " />
<glyph glyph-name="agrave" unicode="&#xe0;" horiz-adv-x="421" d="M198 616 L123 616 C117 616 114 613 114 608 C114 605 116 602 119 599 L286 463 L295 473 L198 616 Z M393 35 C377 20 375 19 365 19 C347 19 346 21 346 135 L346 245 C346 323 346 327 335 346 C316 381 268 403 212 403 C131 403 62 356 62 301 C62 277 79 259 102 259 C124 259 140 277 140 302 C140 313 138 320 131 333 C128 338 127 340 127 343 C127 364 163 386 197 386 C219 386 240 376 248 361 C255 347 256 340 256 286 L256 217 C113 213 35 166 35 83 C35 28 75 -10 133 -10 C185 -10 229 18 256 68 C262 18 290 -10 337 -10 C363 -10 382 -2 405 20 L393 35 Z M256 180 C256 125 252 96 240 74 C225 48 204 34 178 34 C144 34 124 59 124 100 C124 164 167 196 256 200 L256 180 Z " />
<glyph glyph-name="aacute" unicode="&#xe1;" horiz-adv-x="421" d="M283 616 L186 473 L195 463 L362 599 C365 602 367 605 367 608 C367 613 364 616 358 616 L283 616 Z M393 35 C377 20 375 19 365 19 C347 19 346 21 346 135 L346 245 C346 323 346 327 335 346 C316 381 268 403 212 403 C131 403 62 356 62 301 C62 277 79 259 102 259 C124 259 140 277 140 302 C140 313 138 320 131 333 C128 338 127 340 127 343 C127 364 163 386 197 386 C219 386 240 376 248 361 C255 347 256 340 256 286 L256 217 C113 213 35 166 35 83 C35 28 75 -10 133 -10 C185 -10 229 18 256 68 C262 18 290 -10 337 -10 C363 -10 382 -2 405 20 L393 35 Z M256 180 C256 125 252 96 240 74 C225 48 204 34 178 34 C144 34 124 59 124 100 C124 164 167 196 256 200 L256 180 Z " />
<glyph glyph-name="acircumflex" unicode="&#xe2;" horiz-adv-x="421" d="M225 536 L360 463 L368 473 L225 620 L81 474 L89 464 L225 536 Z M393 35 C377 20 375 19 365 19 C347 19 346 21 346 135 L346 245 C346 323 346 327 335 346 C316 381 268 403 212 403 C131 403 62 356 62 301 C62 277 79 259 102 259 C124 259 140 277 140 302 C140 313 138 320 131 333 C128 338 127 340 127 343 C127 364 163 386 197 386 C219 386 240 376 248 361 C255 347 256 340 256 286 L256 217 C113 213 35 166 35 83 C35 28 75 -10 133 -10 C185 -10 229 18 256 68 C262 18 290 -10 337 -10 C363 -10 382 -2 405 20 L393 35 Z M256 180 C256 125 252 96 240 74 C225 48 204 34 178 34 C144 34 124 59 124 100 C124 164 167 196 256 200 L256 180 Z " />
<glyph glyph-name="atilde" unicode="&#xe3;" horiz-adv-x="421" d="M358 580 C339 553 331 548 311 548 C295 548 279 551 263 556 L219 571 C193 580 182 582 165 582 C119 582 98 564 72 506 L85 498 C99 523 109 530 131 530 C147 530 167 527 186 520 L228 507 C249 500 269 496 284 496 C318 496 344 519 371 572 L358 580 Z M393 35 C377 20 375 19 365 19 C347 19 346 21 346 135 L346 245 C346 323 346 327 335 346 C316 381 268 403 212 403 C131 403 62 356 62 301 C62 277 79 259 102 259 C124 259 140 277 140 302 C140 313 138 320 131 333 C128 338 127 340 127 343 C127 364 163 386 197 386 C219 386 240 376 248 361 C255 347 256 340 256 286 L256 217 C113 213 35 166 35 83 C35 28 75 -10 133 -10 C185 -10 229 18 256 68 C262 18 290 -10 337 -10 C363 -10 382 -2 405 20 L393 35 Z M256 180 C256 125 252 96 240 74 C225 48 204 34 178 34 C144 34 124 59 124 100 C124 164 167 196 256 200 L256 180 Z " />
<glyph glyph-name="adieresis" unicode="&#xe4;" horiz-adv-x="421" d="M133 591 C104 591 80 568 80 541 C80 512 102 490 131 490 C160 490 183 512 183 540 C183 568 160 591 133 591 L133 591 Z M305 591 C276 591 254 569 254 541 C254 512 276 490 306 490 C336 490 357 510 357 539 C357 568 334 591 305 591 L305 591 Z M393 35 C377 20 375 19 365 19 C347 19 346 21 346 135 L346 245 C346 323 346 327 335 346 C316 381 268 403 212 403 C131 403 62 356 62 301 C62 277 79 259 102 259 C124 259 140 277 140 302 C140 313 138 320 131 333 C128 338 127 340 127 343 C127 364 163 386 197 386 C219 386 240 376 248 361 C255 347 256 340 256 286 L256 217 C113 213 35 166 35 83 C35 28 75 -10 133 -10 C185 -10 229 18 256 68 C262 18 290 -10 337 -10 C363 -10 382 -2 405 20 L393 35 Z M256 180 C256 125 252 96 240 74 C225 48 204 34 178 34 C144 34 124 59 124 100 C124 164 167 196 256 200 L256 180 Z " />
<glyph glyph-name="aring" unicode="&#xe5;" horiz-adv-x="421" d="M220 615 C179 615 145 581 145 538 C145 496 178 463 221 463 C263 463 296 496 296 537 C296 581 263 615 220 615 L220 615 Z M221 587 C245 587 266 564 266 539 C266 513 245 491 220 491 C196 491 175 513 175 539 C175 565 196 587 221 587 L221 587 Z M393 35 C377 20 375 19 365 19 C347 19 346 21 346 135 L346 245 C346 323 346 327 335 346 C316 381 268 403 212 403 C131 403 62 356 62 301 C62 277 79 259 102 259 C124 259 140 277 140 302 C140 313 138 320 131 333 C128 338 127 340 127 343 C127 364 163 386 197 386 C219 386 240 376 248 361 C255 347 256 340 256 286 L256 217 C113 213 35 166 35 83 C35 28 75 -10 133 -10 C185 -10 229 18 256 68 C262 18 290 -10 337 -10 C363 -10 382 -2 405 20 L393 35 Z M256 180 C256 125 252 96 240 74 C225 48 204 34 178 34 C144 34 124 59 124 100 C124 164 167 196 256 200 L256 180 Z " />
<glyph glyph-name="ae" unicode="&#xe6;" horiz-adv-x="595" d="M570 228 C563 280 554 309 533 340 C506 379 456 403 403 403 C361 403 337 392 307 359 C278 390 246 403 202 403 C126 403 60 354 60 299 C60 275 77 257 99 257 C121 257 138 275 138 300 C138 311 136 318 128 334 C125 338 124 342 124 345 C124 361 161 379 193 379 C217 379 235 365 240 344 C242 332 244 288 244 241 L244 218 C119 217 35 162 35 82 C35 27 74 -10 131 -10 C167 -10 205 5 226 27 C240 41 248 55 261 87 C297 25 353 -10 416 -10 C487 -10 543 45 563 133 L541 133 C531 100 523 83 513 68 C489 34 453 13 420 13 C400 13 381 20 364 34 C342 53 332 93 333 160 C333 178 333 186 332 228 L570 228 Z M470 248 L332 248 L332 258 L332 266 L332 271 L332 280 C332 319 334 332 342 348 C351 366 377 379 401 379 C425 379 447 368 457 351 C466 336 469 315 470 260 L470 248 Z M244 167 C244 109 240 82 227 61 C219 46 201 35 187 35 C160 35 142 61 142 100 C142 158 176 191 243 200 L244 167 Z " />
<glyph glyph-name="ccedilla" unicode="&#xe7;" horiz-adv-x="387" d="M214 -10 C289 -10 342 37 371 127 L347 127 C324 53 281 13 224 13 C164 13 139 53 139 149 C139 242 145 307 155 333 C167 363 192 380 225 380 C256 380 289 364 289 348 C289 346 288 345 286 342 C275 327 269 310 269 295 C269 268 287 248 312 248 C339 248 357 269 357 299 C357 355 296 403 224 403 C120 403 33 308 33 194 C33 93 104 4 196 -9 L180 -60 C214 -75 225 -88 225 -117 C225 -145 209 -162 183 -162 C159 -162 146 -153 146 -136 C145 -111 139 -98 126 -98 C117 -98 111 -106 111 -118 C111 -153 147 -178 197 -178 C252 -178 293 -147 293 -106 C293 -74 262 -52 219 -52 L202 -52 L214 -10 Z " />
<glyph glyph-name="egrave" unicode="&#xe8;" horiz-adv-x="404" d="M186 616 L111 616 C105 616 102 613 102 608 C102 605 104 602 107 599 L274 463 L283 473 L186 616 Z M378 229 C372 334 306 403 214 403 C116 403 33 308 33 197 C33 87 119 -10 217 -10 C293 -10 356 48 371 132 L348 132 C331 58 285 13 225 13 C172 13 143 45 139 107 C137 128 137 175 137 229 L378 229 Z M137 249 C137 311 137 311 141 324 C149 360 175 380 212 380 C245 380 264 366 273 336 C278 319 279 313 280 249 L137 249 Z " />
<glyph glyph-name="eacute" unicode="&#xe9;" horiz-adv-x="404" d="M284 616 L187 473 L196 463 L363 599 C366 602 368 605 368 608 C368 613 365 616 359 616 L284 616 Z M378 229 C372 334 306 403 214 403 C116 403 33 308 33 197 C33 87 119 -10 217 -10 C293 -10 356 48 371 132 L348 132 C331 58 285 13 225 13 C172 13 143 45 139 107 C137 128 137 175 137 229 L378 229 Z M137 249 C137 311 137 311 141 324 C149 360 175 380 212 380 C245 380 264 366 273 336 C278 319 279 313 280 249 L137 249 Z " />
<glyph glyph-name="ecircumflex" unicode="&#xea;" horiz-adv-x="404" d="M214 536 L349 463 L357 473 L214 620 L71 474 L79 464 L214 536 Z M378 229 C372 334 306 403 214 403 C116 403 33 308 33 197 C33 87 119 -10 217 -10 C293 -10 356 48 371 132 L348 132 C331 58 285 13 225 13 C172 13 143 45 139 107 C137 128 137 175 137 229 L378 229 Z M137 249 C137 311 137 311 141 324 C149 360 175 380 212 380 C245 380 264 366 273 336 C278 319 279 313 280 249 L137 249 Z " />
<glyph glyph-name="edieresis" unicode="&#xeb;" horiz-adv-x="404" d="M126 591 C97 591 73 568 73 541 C73 512 95 490 124 490 C153 490 176 512 176 540 C176 568 153 591 126 591 L126 591 Z M299 591 C270 591 248 569 248 541 C248 512 270 490 300 490 C330 490 351 510 351 539 C351 568 328 591 299 591 L299 591 Z M378 229 C372 334 306 403 214 403 C116 403 33 308 33 197 C33 87 119 -10 217 -10 C293 -10 356 48 371 132 L348 132 C331 58 285 13 225 13 C172 13 143 45 139 107 C137 128 137 175 137 229 L378 229 Z M137 249 C137 311 137 311 141 324 C149 360 175 380 212 380 C245 380 264 366 273 336 C278 319 279 313 280 249 L137 249 Z " />
<glyph glyph-name="igrave" unicode="&#xec;" horiz-adv-x="257" d="M87 20 L28 20 L28 0 L240 0 L240 20 L177 20 L177 393 L28 393 L28 373 L87 373 L87 20 Z M99 616 L24 616 C18 616 15 613 15 608 C15 605 17 602 20 599 L187 463 L196 473 L99 616 Z " />
<glyph glyph-name="iacute" unicode="&#xed;" horiz-adv-x="257" d="M88 20 L29 20 L29 0 L241 0 L241 20 L178 20 L178 393 L29 393 L29 373 L88 373 L88 20 Z M204 616 L107 473 L116 463 L283 599 C286 602 288 605 288 608 C288 613 285 616 279 616 L204 616 Z " />
<glyph glyph-name="icircumflex" unicode="&#xee;" horiz-adv-x="257" d="M87 20 L28 20 L28 0 L240 0 L240 20 L177 20 L177 393 L28 393 L28 373 L87 373 L87 20 Z M128 536 L264 463 L272 473 L128 620 L-15 474 L-7 464 L128 536 Z " />
<glyph glyph-name="idieresis" unicode="&#xef;" horiz-adv-x="257" d="M87 20 L28 20 L28 0 L240 0 L240 20 L177 20 L177 393 L28 393 L28 373 L87 373 L87 20 Z M58 591 C29 591 5 568 5 541 C5 512 27 490 56 490 C85 490 108 512 108 540 C108 568 85 591 58 591 L58 591 Z M199 591 C170 591 148 569 148 541 C148 512 170 490 200 490 C230 490 251 510 251 539 C251 568 228 591 199 591 L199 591 Z " />
<glyph glyph-name="eth" unicode="&#xf0;" horiz-adv-x="451" d="M142 541 L153 524 L225 578 C263 518 286 461 301 388 C269 399 251 403 225 403 C119 403 33 311 33 197 C33 83 120 -10 226 -10 C336 -10 418 82 418 204 C418 331 364 454 249 594 L322 649 L311 665 L235 610 C206 643 181 667 147 695 L137 682 C162 658 183 633 214 595 L142 541 Z M311 197 L312 146 C314 48 291 13 225 13 C186 13 162 27 148 58 C141 77 139 103 139 208 C139 303 141 321 152 343 C166 368 189 380 226 380 C286 380 311 349 311 272 L311 197 Z " />
<glyph glyph-name="ntilde" unicode="&#xf1;" horiz-adv-x="500" d="M395 580 C376 553 369 548 348 548 C332 548 316 551 300 556 L256 571 C230 580 219 582 202 582 C156 582 135 564 109 506 L122 498 C136 523 147 530 168 530 C184 530 204 527 223 520 L265 507 C286 500 306 496 321 496 C355 496 381 519 408 572 L395 580 Z M92 20 L29 20 L29 0 L235 0 L235 20 L182 20 L182 139 C182 257 187 298 203 331 C215 355 245 373 271 373 C290 373 309 361 317 345 C328 320 331 287 331 174 L331 20 L278 20 L278 0 L484 0 L484 20 L421 20 L421 242 C421 306 418 327 405 350 C387 382 345 403 299 403 C250 403 213 384 182 341 L182 393 L29 393 L29 373 L92 373 L92 20 Z " />
<glyph glyph-name="ograve" unicode="&#xf2;" horiz-adv-x="451" d="M202 616 L127 616 C121 616 118 613 118 608 C118 605 120 602 123 599 L289 463 L299 473 L202 616 Z M225 403 C119 403 33 311 33 197 C33 82 119 -10 225 -10 C330 -10 417 82 417 194 C417 311 333 403 225 403 L225 403 Z M310 197 L311 146 C312 48 290 13 225 13 C186 13 162 27 148 58 C141 77 139 103 139 208 C139 302 141 321 152 343 C166 368 189 380 225 380 C285 380 310 349 310 272 L310 197 Z " />
<glyph glyph-name="oacute" unicode="&#xf3;" horiz-adv-x="451" d="M298 616 L201 473 L211 463 L377 599 C380 602 382 605 382 608 C382 613 379 616 373 616 L298 616 Z M225 403 C119 403 33 311 33 197 C33 82 119 -10 225 -10 C330 -10 417 82 417 194 C417 311 333 403 225 403 L225 403 Z M310 197 L311 146 C312 48 290 13 225 13 C186 13 162 27 148 58 C141 77 139 103 139 208 C139 302 141 321 152 343 C166 368 189 380 225 380 C285 380 310 349 310 272 L310 197 Z " />
<glyph glyph-name="ocircumflex" unicode="&#xf4;" horiz-adv-x="451" d="M229 536 L365 463 L373 473 L229 620 L86 474 L94 464 L229 536 Z M225 403 C119 403 33 311 33 197 C33 82 119 -10 225 -10 C330 -10 417 82 417 194 C417 311 333 403 225 403 L225 403 Z M310 197 L311 146 C312 48 290 13 225 13 C186 13 162 27 148 58 C141 77 139 103 139 208 C139 302 141 321 152 343 C166 368 189 380 225 380 C285 380 310 349 310 272 L310 197 Z " />
<glyph glyph-name="otilde" unicode="&#xf5;" horiz-adv-x="451" d="M372 580 C354 553 346 548 325 548 C309 548 293 551 277 556 L233 571 C207 580 196 582 179 582 C134 582 112 564 86 506 L99 498 C113 523 124 530 145 530 C162 530 181 527 200 520 L242 507 C264 500 283 496 298 496 C332 496 358 519 385 572 L372 580 Z M225 403 C119 403 33 311 33 197 C33 82 119 -10 225 -10 C330 -10 417 82 417 194 C417 311 333 403 225 403 L225 403 Z M310 197 L311 146 C312 48 290 13 225 13 C186 13 162 27 148 58 C141 77 139 103 139 208 C139 302 141 321 152 343 C166 368 189 380 225 380 C285 380 310 349 310 272 L310 197 Z " />
<glyph glyph-name="odieresis" unicode="&#xf6;" horiz-adv-x="451" d="M140 591 C111 591 87 568 87 541 C87 512 109 490 138 490 C167 490 190 512 190 540 C190 568 167 591 140 591 L140 591 Z M312 591 C283 591 261 569 261 541 C261 512 283 490 313 490 C343 490 364 510 364 539 C364 568 341 591 312 591 L312 591 Z M225 403 C119 403 33 311 33 197 C33 82 119 -10 225 -10 C330 -10 417 82 417 194 C417 311 333 403 225 403 L225 403 Z M310 197 L311 146 C312 48 290 13 225 13 C186 13 162 27 148 58 C141 77 139 103 139 208 C139 302 141 321 152 343 C166 368 189 380 225 380 C285 380 310 349 310 272 L310 197 Z " />
<glyph glyph-name="divide" unicode="&#xf7;" horiz-adv-x="475" d="M44 306 L430 306 L430 341 L44 341 L44 306 Z M237 537 C206 537 181 510 181 478 C181 446 206 420 236 420 C268 420 293 446 293 478 C293 510 268 537 238 537 L237 537 Z M238 230 C208 230 182 203 182 171 C182 139 207 113 237 113 C269 113 294 139 294 171 C294 203 269 230 239 230 L238 230 Z " />
<glyph glyph-name="oslash" unicode="&#xf8;" horiz-adv-x="451" d="M62 1 L76 -12 L109 32 C144 3 182 -10 225 -10 C332 -10 417 82 417 197 C417 255 394 311 353 351 L387 395 L373 406 L340 363 C308 389 268 403 226 403 C119 403 33 311 33 197 C33 139 55 85 95 44 L62 1 Z M141 103 C140 107 140 142 140 158 C140 316 140 319 153 343 C166 368 190 380 226 380 C270 380 298 359 306 319 L141 103 Z M310 293 L310 185 C310 93 308 71 297 50 C284 26 260 13 227 13 C179 13 151 35 144 77 L310 293 Z " />
<glyph glyph-name="ugrave" unicode="&#xf9;" horiz-adv-x="504" d="M217 616 L141 616 C136 616 133 613 133 608 C133 605 134 602 137 599 L304 463 L313 473 L217 616 Z M418 393 L269 393 L269 373 L328 373 L328 233 C328 123 324 96 305 60 C290 31 258 13 223 13 C201 13 182 21 175 35 C166 50 165 71 165 160 L165 393 L16 393 L16 373 L75 373 L75 160 C75 90 78 68 91 44 C110 10 152 -10 203 -10 C261 -10 302 11 328 55 L328 0 L481 0 L481 20 L418 20 L418 393 Z " />
<glyph glyph-name="uacute" unicode="&#xfa;" horiz-adv-x="504" d="M318 616 L221 473 L230 463 L397 599 C400 602 402 605 402 608 C402 613 399 616 393 616 L318 616 Z M418 393 L269 393 L269 373 L328 373 L328 233 C328 123 324 96 305 60 C290 31 258 13 223 13 C201 13 182 21 175 35 C166 50 165 71 165 160 L165 393 L16 393 L16 373 L75 373 L75 160 C75 90 78 68 91 44 C110 10 152 -10 203 -10 C261 -10 302 11 328 55 L328 0 L481 0 L481 20 L418 20 L418 393 Z " />
<glyph glyph-name="ucircumflex" unicode="&#xfb;" horiz-adv-x="504" d="M250 536 L386 463 L394 473 L250 620 L107 474 L115 464 L250 536 Z M418 393 L269 393 L269 373 L328 373 L328 233 C328 123 324 96 305 60 C290 31 258 13 223 13 C201 13 182 21 175 35 C166 50 165 71 165 160 L165 393 L16 393 L16 373 L75 373 L75 160 C75 90 78 68 91 44 C110 10 152 -10 203 -10 C261 -10 302 11 328 55 L328 0 L481 0 L481 20 L418 20 L418 393 Z " />
<glyph glyph-name="udieresis" unicode="&#xfc;" horiz-adv-x="504" d="M163 591 C135 591 111 568 111 541 C111 512 133 490 162 490 C191 490 214 512 214 540 C214 568 191 591 163 591 L163 591 Z M336 591 C307 591 285 569 285 541 C285 512 307 490 336 490 C367 490 388 510 388 539 C388 568 365 591 336 591 L336 591 Z M418 393 L269 393 L269 373 L328 373 L328 233 C328 123 324 96 305 60 C290 31 258 13 223 13 C201 13 182 21 175 35 C166 50 165 71 165 160 L165 393 L16 393 L16 373 L75 373 L75 160 C75 90 78 68 91 44 C110 10 152 -10 203 -10 C261 -10 302 11 328 55 L328 0 L481 0 L481 20 L418 20 L418 393 Z " />
<glyph glyph-name="yacute" unicode="&#xfd;" horiz-adv-x="389" d="M282 616 L185 473 L195 463 L361 599 C364 602 366 605 366 608 C366 613 363 616 357 616 L282 616 Z M353 373 L391 373 L391 393 L253 393 L253 373 L328 373 L239 117 L133 373 L200 373 L200 393 L-2 393 L-2 373 L38 373 L200 0 L147 -148 C129 -196 127 -201 117 -201 C112 -201 109 -199 103 -190 C92 -176 80 -169 63 -169 C36 -169 17 -188 17 -216 C17 -244 40 -265 72 -265 C113 -265 142 -234 168 -159 L353 373 Z " />
<glyph glyph-name="thorn" unicode="&#xfe;" horiz-adv-x="470" d="M79 -247 L16 -247 L16 -267 L232 -267 L232 -247 L169 -247 L169 78 C195 18 229 -10 278 -10 C363 -10 436 89 436 204 C436 314 367 403 282 403 C233 403 194 374 169 320 L169 667 L16 667 L16 647 L79 647 L79 -247 Z M269 380 C288 380 306 370 315 352 C326 333 330 300 330 231 C330 57 317 13 267 13 C209 13 171 87 171 201 C171 309 210 380 269 380 L269 380 Z " />
<glyph glyph-name="ydieresis" unicode="&#xff;" horiz-adv-x="389" d="M128 591 C99 591 75 568 75 541 C75 512 97 490 126 490 C155 490 178 512 178 540 C178 568 155 591 128 591 L128 591 Z M301 591 C272 591 250 569 250 541 C250 512 272 490 302 490 C332 490 353 510 353 539 C353 568 330 591 301 591 L301 591 Z M353 373 L391 373 L391 393 L253 393 L253 373 L328 373 L239 117 L133 373 L200 373 L200 393 L-2 393 L-2 373 L38 373 L200 0 L147 -148 C129 -196 127 -201 117 -201 C112 -201 109 -199 103 -190 C92 -176 80 -169 63 -169 C36 -169 17 -188 17 -216 C17 -244 40 -265 72 -265 C113 -265 142 -234 168 -159 L353 373 Z " />
<glyph glyph-name="Amacron" unicode="&#x100;" horiz-adv-x="557" d="M326 215 L389 20 L306 20 L306 0 L563 0 L563 20 L496 20 L291 667 L263 667 L49 20 L3 20 L3 0 L157 0 L157 20 L74 20 L136 215 L326 215 Z M320 235 L143 235 L232 512 L320 235 Z M118 785 L118 750 L431 750 L431 785 L118 785 Z " />
<glyph glyph-name="amacron" unicode="&#x101;" horiz-adv-x="421" d="M393 35 C377 20 375 19 365 19 C347 19 346 21 346 135 L346 245 C346 323 346 327 335 346 C316 381 268 403 212 403 C131 403 62 356 62 301 C62 277 79 259 102 259 C124 259 140 277 140 302 C140 313 138 320 131 333 C128 338 127 340 127 343 C127 364 163 386 197 386 C219 386 240 376 248 361 C255 347 256 340 256 286 L256 217 C113 213 35 166 35 83 C35 28 75 -10 133 -10 C185 -10 229 18 256 68 C262 18 290 -10 337 -10 C363 -10 382 -2 405 20 L393 35 Z M256 180 C256 125 252 96 240 74 C225 48 204 34 178 34 C144 34 124 59 124 100 C124 164 167 196 256 200 L256 180 Z M81 544 L81 510 L358 510 L358 544 L81 544 Z " />
<glyph glyph-name="Abreve" unicode="&#x102;" horiz-adv-x="557" d="M326 215 L389 20 L306 20 L306 0 L563 0 L563 20 L496 20 L291 667 L263 667 L49 20 L3 20 L3 0 L157 0 L157 20 L74 20 L136 215 L326 215 Z M320 235 L143 235 L232 512 L320 235 Z M132 843 C143 765 194 723 279 723 C364 723 413 764 426 843 L412 843 C403 825 397 816 387 808 C364 790 325 779 279 779 C232 779 193 790 171 808 C161 817 155 825 146 843 L132 843 Z " />
<glyph glyph-name="abreve" unicode="&#x103;" horiz-adv-x="421" d="M393 35 C377 20 375 19 365 19 C347 19 346 21 346 135 L346 245 C346 323 346 327 335 346 C316 381 268 403 212 403 C131 403 62 356 62 301 C62 277 79 259 102 259 C124 259 140 277 140 302 C140 313 138 320 131 333 C128 338 127 340 127 343 C127 364 163 386 197 386 C219 386 240 376 248 361 C255 347 256 340 256 286 L256 217 C113 213 35 166 35 83 C35 28 75 -10 133 -10 C185 -10 229 18 256 68 C262 18 290 -10 337 -10 C363 -10 382 -2 405 20 L393 35 Z M256 180 C256 125 252 96 240 74 C225 48 204 34 178 34 C144 34 124 59 124 100 C124 164 167 196 256 200 L256 180 Z M343 613 C324 559 280 528 222 528 C164 528 121 559 105 613 L92 613 C96 526 149 467 224 467 C300 467 352 525 356 613 L343 613 Z " />
<glyph glyph-name="Aogonek" unicode="&#x104;" horiz-adv-x="557" d="M563 0 L563 20 L496 20 L291 667 L263 667 L49 20 L3 20 L3 0 L157 0 L157 20 L74 20 L136 215 L326 215 L389 20 L306 20 L306 0 L476 0 C413 -27 386 -57 386 -100 C386 -140 416 -165 464 -165 C493 -165 515 -159 543 -144 L543 -127 C525 -134 515 -136 500 -136 C467 -136 448 -118 448 -87 C448 -55 466 -28 506 0 L563 0 Z M320 235 L143 235 L232 512 L320 235 Z " />
<glyph glyph-name="aogonek" unicode="&#x105;" horiz-adv-x="421" d="M393 35 C377 20 375 19 365 19 C347 19 346 21 346 135 L346 245 C346 323 346 327 335 346 C316 381 268 403 212 403 C131 403 62 356 62 301 C62 277 79 259 102 259 C124 259 140 277 140 302 C140 313 138 320 131 333 C128 338 127 340 127 343 C127 364 163 386 197 386 C219 386 240 376 248 361 C255 347 256 340 256 286 L256 217 C113 213 35 166 35 83 C35 28 75 -10 133 -10 C185 -10 229 18 256 68 C259 26 282 -1 320 -8 C276 -30 251 -62 251 -98 C251 -137 280 -162 328 -162 C355 -162 377 -156 405 -141 L405 -124 C387 -131 377 -133 362 -133 C330 -133 311 -115 311 -85 C311 -57 327 -31 358 -8 C376 -3 389 4 405 20 L393 35 Z M256 180 C256 125 252 96 240 74 C225 48 204 34 178 34 C144 34 124 59 124 100 C124 164 167 196 256 200 L256 180 Z " />
<glyph glyph-name="Cacute" unicode="&#x106;" horiz-adv-x="555" d="M514 189 L500 189 C461 71 402 13 318 13 C264 13 212 40 193 79 C173 120 166 175 166 307 C166 422 172 504 184 550 C201 614 256 654 326 654 C414 654 476 596 500 491 L514 491 L514 667 L500 667 L467 620 C421 658 370 677 318 677 C261 677 201 651 150 605 C81 542 40 441 40 332 C40 144 162 -10 312 -10 C364 -10 415 9 467 48 L500 0 L514 0 L514 189 Z M388 837 L250 732 L257 720 L490 812 C500 816 504 820 504 826 C504 834 500 837 488 837 L388 837 Z " />
<glyph glyph-name="cacute" unicode="&#x107;" horiz-adv-x="387" d="M347 127 C324 53 281 13 224 13 C164 13 139 53 139 149 C139 242 145 307 155 333 C167 363 192 380 225 380 C256 380 289 364 289 348 C289 346 288 345 286 342 C275 327 269 310 269 295 C269 268 287 248 313 248 C339 248 357 269 357 299 C357 355 296 403 224 403 C121 403 33 308 33 194 C33 84 117 -10 216 -10 C289 -10 338 34 371 127 L347 127 Z M283 616 L187 473 L196 463 L363 599 C365 602 367 605 367 608 C367 613 364 616 359 616 L283 616 Z " />
<glyph glyph-name="Ccircumflex" unicode="&#x108;" horiz-adv-x="555" d="M514 189 L500 189 C461 71 402 13 318 13 C264 13 212 40 193 79 C173 120 166 175 166 307 C166 422 172 504 184 550 C201 614 256 654 326 654 C414 654 476 596 500 491 L514 491 L514 667 L500 667 L467 620 C421 658 370 677 318 677 C261 677 201 651 150 605 C81 542 40 441 40 332 C40 144 162 -10 312 -10 C364 -10 415 9 467 48 L500 0 L514 0 L514 189 Z M324 843 L157 732 L163 720 L324 769 L484 720 L490 732 L324 843 Z " />
<glyph glyph-name="Cdotaccent" unicode="&#x10a;" horiz-adv-x="555" d="M514 189 L500 189 C461 71 402 13 318 13 C264 13 212 40 193 79 C173 120 166 175 166 307 C166 422 172 504 184 550 C201 614 256 654 326 654 C414 654 476 596 500 491 L514 491 L514 667 L500 667 L467 620 C421 658 370 677 318 677 C261 677 201 651 150 605 C81 542 40 441 40 332 C40 144 162 -10 312 -10 C364 -10 415 9 467 48 L500 0 L514 0 L514 189 Z M319 832 C290 832 266 808 266 779 C266 750 290 727 319 727 C349 727 372 750 372 780 C372 808 348 832 319 832 L319 832 Z " />
<glyph glyph-name="cdotaccent" unicode="&#x10b;" horiz-adv-x="387" d="M347 127 C324 53 281 13 224 13 C164 13 139 53 139 149 C139 242 145 307 155 333 C167 363 192 380 225 380 C256 380 289 364 289 348 C289 346 288 345 286 342 C275 327 269 310 269 295 C269 268 287 248 313 248 C339 248 357 269 357 299 C357 355 296 403 224 403 C121 403 33 308 33 194 C33 84 117 -10 216 -10 C289 -10 338 34 371 127 L347 127 Z M218 592 C189 592 167 570 167 541 C167 512 189 490 219 490 C250 490 271 510 271 540 C271 569 248 592 218 592 L218 592 Z " />
<glyph glyph-name="Ccaron" unicode="&#x10c;" horiz-adv-x="555" d="M514 189 L500 189 C461 71 402 13 318 13 C264 13 212 40 193 79 C173 120 166 175 166 307 C166 422 172 504 184 550 C201 614 256 654 326 654 C414 654 476 596 500 491 L514 491 L514 667 L500 667 L467 620 C421 658 370 677 318 677 C261 677 201 651 150 605 C81 542 40 441 40 332 C40 144 162 -10 312 -10 C364 -10 415 9 467 48 L500 0 L514 0 L514 189 Z M317 720 L484 832 L478 843 L317 795 L156 843 L151 832 L317 720 Z " />
<glyph glyph-name="ccaron" unicode="&#x10d;" horiz-adv-x="387" d="M347 127 C324 53 281 13 224 13 C164 13 139 53 139 149 C139 242 145 307 155 333 C167 363 192 380 225 380 C256 380 289 364 289 348 C289 346 288 345 286 342 C275 327 269 310 269 295 C269 268 287 248 313 248 C339 248 357 269 357 299 C357 355 296 403 224 403 C121 403 33 308 33 194 C33 84 117 -10 216 -10 C289 -10 338 34 371 127 L347 127 Z M227 547 L92 620 L84 610 L227 463 L371 610 L363 620 L227 547 Z " />
<glyph glyph-name="Dcaron" unicode="&#x10e;" horiz-adv-x="642" d="M108 20 L30 20 L30 0 L259 0 C380 0 422 11 476 53 C556 118 602 221 602 340 C602 486 523 614 409 651 C372 663 335 667 251 667 L30 667 L30 647 L108 647 L108 20 Z M215 20 L215 647 L252 647 C295 647 317 646 330 645 C367 640 399 627 420 608 C462 569 476 506 476 359 C476 141 460 78 395 43 C360 23 342 20 258 20 L215 20 Z M278 720 L445 832 L439 843 L278 795 L117 843 L112 832 L278 720 Z " />
<glyph glyph-name="dcaron" unicode="&#x10f;" horiz-adv-x="550" d="M389 667 L240 667 L240 647 L299 647 L299 322 C269 377 234 403 189 403 C103 403 33 311 33 199 C33 83 104 -10 192 -10 C239 -10 278 21 299 76 L299 0 L452 0 L452 20 L389 20 L389 667 Z M140 191 C141 296 143 324 155 349 C163 367 183 380 203 380 C225 380 251 361 268 332 C287 298 297 254 297 197 C297 141 288 96 268 62 C251 32 226 13 203 13 C184 13 165 25 155 44 C143 66 139 96 140 170 L140 191 Z M461 457 C519 496 547 539 547 585 C547 633 518 667 478 667 C445 667 420 643 420 612 C420 585 438 566 462 566 C486 566 503 584 503 608 C503 609 503 614 502 618 C516 608 523 594 523 577 C523 540 501 510 448 475 L461 457 Z " />
<glyph glyph-name="Dcroat" unicode="&#x110;" horiz-adv-x="642" d="M109 20 L30 20 L30 0 L275 0 C376 0 418 9 464 44 C552 108 602 215 602 339 C602 431 575 508 521 573 C462 644 402 667 274 667 L30 667 L30 647 L109 647 L109 351 L30 351 L30 331 L109 331 L109 20 Z M216 20 L216 331 L340 331 L340 351 L216 351 L216 647 L272 647 C342 647 364 643 394 625 C457 589 475 528 475 352 C475 180 463 108 427 68 C395 33 354 20 276 20 L216 20 Z " />
<glyph glyph-name="dcroat" unicode="&#x111;" horiz-adv-x="468" d="M389 557 L389 667 L240 667 L240 647 L299 647 L299 557 L139 557 L139 537 L299 537 L299 322 C269 377 234 403 189 403 C103 403 33 311 33 199 C33 83 104 -10 192 -10 C239 -10 278 21 299 76 L299 0 L452 0 L452 20 L389 20 L389 537 L452 537 L452 557 L389 557 Z M140 191 C141 296 143 324 155 349 C163 367 183 380 203 380 C225 380 251 361 268 332 C287 298 297 254 297 197 C297 141 288 96 268 62 C251 32 226 13 203 13 C184 13 165 25 155 44 C143 66 139 96 140 170 L140 191 Z " />
<glyph glyph-name="Emacron" unicode="&#x112;" horiz-adv-x="555" d="M109 20 L30 20 L30 0 L502 0 L520 208 L507 208 C483 117 473 92 445 56 C414 23 403 19 333 20 L216 20 L216 328 L248 328 C303 328 327 315 339 278 C345 261 346 250 350 196 L363 196 L363 471 L350 471 C347 365 328 347 224 348 L216 347 L216 647 L287 647 C412 652 450 620 480 484 L493 484 L486 667 L30 667 L30 647 L109 647 L109 20 Z M125 785 L125 750 L438 750 L438 785 L125 785 Z " />
<glyph glyph-name="emacron" unicode="&#x113;" horiz-adv-x="404" d="M378 229 C372 334 306 403 214 403 C116 403 33 308 33 197 C33 87 119 -10 217 -10 C293 -10 356 48 371 132 L348 132 C331 58 285 13 225 13 C172 13 143 45 139 107 C137 128 137 175 137 229 L378 229 Z M137 249 C137 311 137 311 141 324 C149 360 175 380 212 380 C245 380 264 366 273 336 C278 319 279 313 280 249 L137 249 Z M74 544 L74 510 L350 510 L350 544 L74 544 Z " />
<glyph glyph-name="Ebreve" unicode="&#x114;" horiz-adv-x="555" d="M109 20 L30 20 L30 0 L502 0 L520 208 L507 208 C483 117 473 92 445 56 C414 23 403 19 333 20 L216 20 L216 328 L248 328 C303 328 327 315 339 278 C345 261 346 250 350 196 L363 196 L363 471 L350 471 C347 365 328 347 224 348 L216 347 L216 647 L287 647 C412 652 450 620 480 484 L493 484 L486 667 L30 667 L30 647 L109 647 L109 20 Z M152 843 C163 765 213 723 298 723 C383 723 433 764 445 843 L431 843 C422 825 416 816 406 808 C384 790 345 779 298 779 C251 779 212 790 190 808 C180 817 174 825 165 843 L152 843 Z " />
<glyph glyph-name="ebreve" unicode="&#x115;" horiz-adv-x="404" d="M378 229 C372 334 306 403 214 403 C116 403 33 308 33 197 C33 87 119 -10 217 -10 C293 -10 356 48 371 132 L348 132 C331 58 285 13 225 13 C172 13 143 45 139 107 C137 128 137 175 137 229 L378 229 Z M137 249 C137 311 137 311 141 324 C149 360 175 380 212 380 C245 380 264 366 273 336 C278 319 279 313 280 249 L137 249 Z M341 613 C322 559 279 528 221 528 C162 528 120 559 104 613 L91 613 C95 526 148 467 222 467 C298 467 351 525 354 613 L341 613 Z " />
<glyph glyph-name="Edotaccent" unicode="&#x116;" horiz-adv-x="555" d="M109 20 L30 20 L30 0 L502 0 L520 208 L507 208 C483 117 473 92 445 56 C414 23 403 19 333 20 L216 20 L216 328 L248 328 C303 328 327 315 339 278 C345 261 346 250 350 196 L363 196 L363 471 L350 471 C347 365 328 347 224 348 L216 347 L216 647 L287 647 C412 652 450 620 480 484 L493 484 L486 667 L30 667 L30 647 L109 647 L109 20 Z M292 832 C263 832 239 808 239 779 C239 750 263 727 292 727 C322 727 345 750 345 780 C345 808 321 832 292 832 L292 832 Z " />
<glyph glyph-name="edotaccent" unicode="&#x117;" horiz-adv-x="404" d="M378 229 C372 334 306 403 214 403 C116 403 33 308 33 197 C33 87 119 -10 217 -10 C293 -10 356 48 371 132 L348 132 C331 58 285 13 225 13 C172 13 143 45 139 107 C137 128 137 175 137 229 L378 229 Z M137 249 C137 311 137 311 141 324 C149 360 175 380 212 380 C245 380 264 366 273 336 C278 319 279 313 280 249 L137 249 Z M217 592 C188 592 166 570 166 541 C166 512 188 490 218 490 C249 490 270 510 270 540 C270 569 247 592 217 592 L217 592 Z " />
<glyph glyph-name="Eogonek" unicode="&#x118;" horiz-adv-x="555" d="M502 0 L520 208 L507 208 C483 117 473 92 445 56 C414 23 403 19 333 20 L216 20 L216 328 L248 328 C303 328 327 315 339 278 C345 261 346 250 350 196 L363 196 L363 471 L350 471 C347 365 328 347 224 348 L216 347 L216 647 L287 647 C412 652 450 620 480 484 L493 484 L486 667 L30 667 L30 647 L109 647 L109 20 L30 20 L30 0 L434 0 C371 -27 344 -57 344 -100 C344 -140 374 -165 423 -165 C451 -165 473 -159 502 -144 L502 -127 C483 -134 473 -136 458 -136 C425 -136 406 -118 406 -87 C406 -55 424 -29 464 0 L502 0 Z " />
<glyph glyph-name="eogonek" unicode="&#x119;" horiz-adv-x="404" d="M325 -124 C307 -131 297 -133 283 -133 C250 -133 231 -115 231 -85 C231 -59 242 -40 275 -9 C348 58 361 76 371 132 L348 132 C331 58 285 13 225 13 C172 13 143 45 139 107 C137 128 137 175 137 229 L378 229 C372 334 306 403 214 403 C116 403 33 308 33 197 C33 87 119 -10 217 -10 C225 -10 232 -9 241 -8 C196 -30 171 -62 171 -98 C171 -137 200 -162 248 -162 C275 -162 297 -156 325 -141 L325 -124 Z M137 249 C137 311 137 311 141 324 C149 360 175 380 212 380 C245 380 264 366 273 336 C278 319 279 313 280 249 L137 249 Z " />
<glyph glyph-name="Ecaron" unicode="&#x11a;" horiz-adv-x="555" d="M109 20 L30 20 L30 0 L502 0 L520 208 L507 208 C483 117 473 92 445 56 C414 23 403 19 333 20 L216 20 L216 328 L248 328 C303 328 327 315 339 278 C345 261 346 250 350 196 L363 196 L363 471 L350 471 C347 365 328 347 224 348 L216 347 L216 647 L287 647 C412 652 450 620 480 484 L493 484 L486 667 L30 667 L30 647 L109 647 L109 20 Z M292 720 L458 832 L453 843 L292 795 L131 843 L125 832 L292 720 Z " />
<glyph glyph-name="ecaron" unicode="&#x11b;" horiz-adv-x="404" d="M378 229 C372 334 306 403 214 403 C116 403 33 308 33 197 C33 87 119 -10 217 -10 C293 -10 356 48 371 132 L348 132 C331 58 285 13 225 13 C172 13 143 45 139 107 C137 128 137 175 137 229 L378 229 Z M137 249 C137 311 137 311 141 324 C149 360 175 380 212 380 C245 380 264 366 273 336 C278 319 279 313 280 249 L137 249 Z M216 547 L81 620 L73 610 L216 463 L359 610 L352 620 L216 547 Z " />
<glyph glyph-name="Gcircumflex" unicode="&#x11c;" horiz-adv-x="605" d="M502 667 L489 667 L457 627 C406 662 363 677 316 677 C166 677 40 520 40 333 C40 146 161 -10 307 -10 C384 -10 465 33 503 93 C524 126 532 159 535 213 L595 213 L595 233 L328 233 L328 213 L422 213 C422 153 418 122 410 95 C393 44 352 13 301 13 C247 13 204 46 186 100 C174 136 167 219 167 326 C167 465 177 547 200 593 C218 629 266 654 316 654 C364 654 405 634 436 597 C465 561 479 531 492 468 L506 468 L502 667 Z M318 843 L151 732 L157 720 L318 769 L479 720 L484 732 L318 843 Z " />
<glyph glyph-name="gcircumflex" unicode="&#x11d;" horiz-adv-x="417" d="M271 22 L247 22 C211 21 205 21 188 21 L148 20 L128 20 C85 20 68 31 68 57 C68 83 88 110 130 139 C154 127 174 123 202 123 C291 123 354 180 354 260 C354 293 344 322 324 350 C336 363 340 366 346 366 C351 366 355 361 357 350 C361 330 372 320 388 320 C408 320 423 336 423 358 C423 384 405 403 380 403 C357 403 337 391 311 362 C283 389 247 403 203 403 C117 403 52 343 52 262 C52 218 70 183 111 149 C55 110 28 69 28 24 C28 -20 52 -51 94 -64 C49 -81 24 -112 24 -152 C24 -218 101 -272 196 -272 C314 -272 395 -195 395 -84 C395 -39 380 -5 352 10 C336 19 321 22 287 22 L271 22 Z M203 383 C252 383 259 369 259 260 C259 168 247 144 201 144 C158 144 147 165 147 249 C147 363 155 383 203 383 L203 383 Z M317 -64 C357 -64 373 -76 373 -106 C373 -185 297 -247 200 -247 C123 -247 74 -206 74 -142 C74 -112 84 -89 108 -64 C130 -67 140 -67 164 -67 C180 -67 190 -67 269 -65 L317 -64 Z M213 536 L348 463 L356 473 L213 620 L70 474 L78 464 L213 536 Z " />
<glyph glyph-name="Gbreve" unicode="&#x11e;" horiz-adv-x="605" d="M502 667 L489 667 L457 627 C406 662 363 677 316 677 C166 677 40 520 40 333 C40 146 161 -10 307 -10 C384 -10 465 33 503 93 C524 126 532 159 535 213 L595 213 L595 233 L328 233 L328 213 L422 213 C422 153 418 122 410 95 C393 44 352 13 301 13 C247 13 204 46 186 100 C174 136 167 219 167 326 C167 465 177 547 200 593 C218 629 266 654 316 654 C364 654 405 634 436 597 C465 561 479 531 492 468 L506 468 L502 667 Z M167 843 C178 765 229 723 313 723 C398 723 448 764 460 843 L446 843 C437 825 431 816 421 808 C399 790 360 779 314 779 C267 779 228 790 205 808 C196 817 190 825 181 843 L167 843 Z " />
<glyph glyph-name="gbreve" unicode="&#x11f;" horiz-adv-x="417" d="M271 22 L247 22 C211 21 205 21 188 21 L148 20 L128 20 C85 20 68 31 68 57 C68 83 88 110 130 139 C154 127 174 123 202 123 C291 123 354 180 354 260 C354 293 344 322 324 350 C336 363 340 366 346 366 C351 366 355 361 357 350 C361 330 372 320 388 320 C408 320 423 336 423 358 C423 384 405 403 380 403 C357 403 337 391 311 362 C283 389 247 403 203 403 C117 403 52 343 52 262 C52 218 70 183 111 149 C55 110 28 69 28 24 C28 -20 52 -51 94 -64 C49 -81 24 -112 24 -152 C24 -218 101 -272 196 -272 C314 -272 395 -195 395 -84 C395 -39 380 -5 352 10 C336 19 321 22 287 22 L271 22 Z M203 383 C252 383 259 369 259 260 C259 168 247 144 201 144 C158 144 147 165 147 249 C147 363 155 383 203 383 L203 383 Z M317 -64 C357 -64 373 -76 373 -106 C373 -185 297 -247 200 -247 C123 -247 74 -206 74 -142 C74 -112 84 -89 108 -64 C130 -67 140 -67 164 -67 C180 -67 190 -67 269 -65 L317 -64 Z M332 613 C313 559 270 528 211 528 C153 528 110 559 94 613 L81 613 C86 526 138 467 213 467 C289 467 341 525 345 613 L332 613 Z " />
<glyph glyph-name="Gdotaccent" unicode="&#x120;" horiz-adv-x="605" d="M502 667 L489 667 L457 627 C406 662 363 677 316 677 C166 677 40 520 40 333 C40 146 161 -10 307 -10 C384 -10 465 33 503 93 C524 126 532 159 535 213 L595 213 L595 233 L328 233 L328 213 L422 213 C422 153 418 122 410 95 C393 44 352 13 301 13 C247 13 204 46 186 100 C174 136 167 219 167 326 C167 465 177 547 200 593 C218 629 266 654 316 654 C364 654 405 634 436 597 C465 561 479 531 492 468 L506 468 L502 667 Z M313 832 C284 832 260 808 260 779 C260 750 284 727 313 727 C343 727 366 750 366 780 C366 808 342 832 313 832 L313 832 Z " />
<glyph glyph-name="gdotaccent" unicode="&#x121;" horiz-adv-x="417" d="M271 22 L247 22 C211 21 205 21 188 21 L148 20 L128 20 C85 20 68 31 68 57 C68 83 88 110 130 139 C154 127 174 123 202 123 C291 123 354 180 354 260 C354 293 344 322 324 350 C336 363 340 366 346 366 C351 366 355 361 357 350 C361 330 372 320 388 320 C408 320 423 336 423 358 C423 384 405 403 380 403 C357 403 337 391 311 362 C283 389 247 403 203 403 C117 403 52 343 52 262 C52 218 70 183 111 149 C55 110 28 69 28 24 C28 -20 52 -51 94 -64 C49 -81 24 -112 24 -152 C24 -218 101 -272 196 -272 C314 -272 395 -195 395 -84 C395 -39 380 -5 352 10 C336 19 321 22 287 22 L271 22 Z M203 383 C252 383 259 369 259 260 C259 168 247 144 201 144 C158 144 147 165 147 249 C147 363 155 383 203 383 L203 383 Z M317 -64 C357 -64 373 -76 373 -106 C373 -185 297 -247 200 -247 C123 -247 74 -206 74 -142 C74 -112 84 -89 108 -64 C130 -67 140 -67 164 -67 C180 -67 190 -67 269 -65 L317 -64 Z M208 592 C179 592 157 570 157 541 C157 512 179 490 209 490 C240 490 261 510 261 540 C261 569 238 592 208 592 L208 592 Z " />
<glyph glyph-name="Gcommaaccent" unicode="&#x122;" horiz-adv-x="605" d="M502 667 L489 667 L457 627 C406 662 363 677 316 677 C166 677 40 520 40 333 C40 146 161 -10 307 -10 C384 -10 465 33 503 93 C524 126 532 159 535 213 L595 213 L595 233 L328 233 L328 213 L422 213 C422 153 418 122 410 95 C393 44 352 13 301 13 C247 13 204 46 186 100 C174 136 167 219 167 326 C167 465 177 547 200 593 C218 629 266 654 316 654 C364 654 405 634 436 597 C465 561 479 531 492 468 L506 468 L502 667 Z M275 -257 C334 -216 363 -173 363 -125 C363 -76 333 -40 292 -40 C258 -40 232 -64 232 -97 C232 -124 250 -144 276 -144 C300 -144 318 -126 318 -101 C318 -100 318 -95 317 -91 C331 -101 338 -116 338 -134 C338 -172 315 -203 261 -239 L275 -257 Z " />
<glyph glyph-name="gcommaaccent" unicode="&#x123;" horiz-adv-x="417" d="M271 22 L247 22 C211 21 205 21 188 21 L148 20 L128 20 C85 20 68 31 68 57 C68 83 88 110 130 139 C154 127 174 123 202 123 C291 123 354 180 354 260 C354 293 344 322 324 350 C336 363 340 366 346 366 C351 366 355 361 357 350 C361 330 372 320 388 320 C408 320 423 336 423 358 C423 384 405 403 380 403 C357 403 337 391 311 362 C283 389 247 403 203 403 C117 403 52 343 52 262 C52 218 70 183 111 149 C55 110 28 69 28 24 C28 -20 52 -51 94 -64 C49 -81 24 -112 24 -152 C24 -218 101 -272 196 -272 C314 -272 395 -195 395 -84 C395 -39 380 -5 352 10 C336 19 321 22 287 22 L271 22 Z M203 383 C252 383 259 369 259 260 C259 168 247 144 201 144 C158 144 147 165 147 249 C147 363 155 383 203 383 L203 383 Z M317 -64 C357 -64 373 -76 373 -106 C373 -185 297 -247 200 -247 C123 -247 74 -206 74 -142 C74 -112 84 -89 108 -64 C130 -67 140 -67 164 -67 C180 -67 190 -67 269 -65 L317 -64 Z M236 661 C179 622 151 579 151 533 C151 485 180 451 220 451 C252 451 277 474 277 506 C277 532 259 551 235 551 C212 551 195 533 195 510 L195 500 C182 510 175 524 175 541 C175 578 197 607 250 643 L236 661 Z " />
<glyph glyph-name="Hcircumflex" unicode="&#x124;" horiz-adv-x="676" d="M459 331 L459 20 L385 20 L385 0 L645 0 L645 20 L566 20 L566 647 L645 647 L645 667 L385 667 L385 647 L459 647 L459 351 L216 351 L216 647 L290 647 L290 667 L30 667 L30 647 L109 647 L109 20 L30 20 L30 0 L290 0 L290 20 L216 20 L216 331 L459 331 Z M338 843 L171 732 L177 720 L338 769 L499 720 L505 732 L338 843 Z " />
<glyph glyph-name="Hbar" unicode="&#x126;" horiz-adv-x="676" d="M109 478 L109 20 L30 20 L30 0 L290 0 L290 20 L216 20 L216 331 L459 331 L459 20 L385 20 L385 0 L645 0 L645 20 L566 20 L566 478 L622 478 L622 498 L566 498 L566 647 L645 647 L645 667 L385 667 L385 647 L459 647 L459 498 L216 498 L216 647 L290 647 L290 667 L30 667 L30 647 L109 647 L109 498 L49 498 L49 478 L109 478 Z M216 478 L459 478 L459 351 L216 351 L216 478 Z " />
<glyph glyph-name="hbar" unicode="&#x127;" horiz-adv-x="502" d="M79 537 L79 20 L16 20 L16 0 L222 0 L222 20 L169 20 L169 165 C169 252 175 289 193 322 C212 354 244 374 279 374 C301 374 321 365 328 351 C336 334 337 324 337 258 L337 20 L280 20 L280 0 L486 0 L486 20 L427 20 L427 258 C427 322 425 336 413 357 C397 385 358 403 311 403 C277 403 242 393 216 376 C197 363 186 351 169 322 L169 537 L328 537 L328 557 L169 557 L169 667 L16 667 L16 647 L79 647 L79 557 L16 557 L16 537 L79 537 Z " />
<glyph glyph-name="Imacron" unicode="&#x12a;" horiz-adv-x="325" d="M109 20 L30 20 L30 0 L295 0 L295 20 L216 20 L216 647 L295 647 L295 667 L30 667 L30 647 L109 647 L109 20 Z M30 785 L30 750 L295 750 L295 785 L30 785 Z " />
<glyph glyph-name="imacron" unicode="&#x12b;" horiz-adv-x="256" d="M87 20 L28 20 L28 0 L240 0 L240 20 L177 20 L177 393 L28 393 L28 373 L87 373 L87 20 Z M2 544 L2 510 L240 510 L240 544 L2 544 Z " />
<glyph glyph-name="ibreve" unicode="&#x12d;" horiz-adv-x="257" d="M87 20 L28 20 L28 0 L240 0 L240 20 L177 20 L177 393 L28 393 L28 373 L87 373 L87 20 Z M254 613 C235 559 191 528 133 528 C75 528 32 559 16 613 L3 613 C7 526 60 467 135 467 C211 467 263 525 266 613 L254 613 Z " />
<glyph glyph-name="Iogonek" unicode="&#x12e;" horiz-adv-x="325" d="M295 0 L295 20 L216 20 L216 647 L295 647 L295 667 L30 667 L30 647 L109 647 L109 20 L30 20 L30 0 L202 0 C139 -27 112 -57 112 -100 C112 -140 142 -165 191 -165 C219 -165 241 -159 270 -144 L270 -127 C251 -134 241 -136 226 -136 C193 -136 174 -118 174 -87 C174 -55 192 -28 232 0 L295 0 Z " />
<glyph glyph-name="iogonek" unicode="&#x12f;" horiz-adv-x="257" d="M241 0 L241 20 L178 20 L178 393 L29 393 L29 373 L88 373 L88 20 L29 20 L29 0 L163 0 C102 -27 75 -56 75 -98 C75 -137 104 -162 152 -162 C180 -162 202 -156 229 -141 L229 -124 C212 -131 202 -133 187 -133 C154 -133 135 -115 135 -85 C135 -54 153 -27 193 0 L241 0 Z M131 654 C99 654 76 630 76 598 C76 565 100 540 131 540 C162 540 187 565 187 597 C187 628 162 654 131 654 L131 654 Z " />
<glyph glyph-name="Idotaccent" unicode="&#x130;" horiz-adv-x="325" d="M109 20 L30 20 L30 0 L295 0 L295 20 L216 20 L216 647 L295 647 L295 667 L30 667 L30 647 L109 647 L109 20 Z M162 832 C133 832 109 808 109 779 C109 750 133 727 162 727 C192 727 215 750 215 780 C215 808 191 832 162 832 L162 832 Z " />
<glyph glyph-name="dotlessi" unicode="&#x131;" horiz-adv-x="257" d="M88 20 L29 20 L29 0 L241 0 L241 20 L178 20 L178 393 L29 393 L29 373 L88 373 L88 20 Z " />
<glyph glyph-name="Kcommaaccent" unicode="&#x136;" horiz-adv-x="620" d="M109 20 L30 20 L30 0 L290 0 L290 20 L216 20 L216 647 L290 647 L290 667 L30 667 L30 647 L109 647 L109 20 Z M302 407 L504 647 L584 647 L584 667 L381 667 L381 647 L474 647 L220 348 L452 20 L370 20 L370 0 L620 0 L620 20 L574 20 L302 407 Z M293 -257 C352 -216 381 -173 381 -125 C381 -76 351 -40 310 -40 C276 -40 250 -64 250 -97 C250 -124 268 -144 294 -144 C318 -144 336 -126 336 -101 C336 -100 336 -95 335 -91 C349 -101 356 -116 356 -134 C356 -172 333 -203 279 -239 L293 -257 Z " />
<glyph glyph-name="kcommaaccent" unicode="&#x137;" horiz-adv-x="465" d="M165 667 L16 667 L16 647 L75 647 L75 20 L16 20 L16 0 L228 0 L228 20 L165 20 L165 667 Z M246 252 L365 373 L431 373 L431 393 L239 393 L239 373 L332 373 L174 210 L310 20 L263 20 L263 0 L466 0 L466 20 L423 20 L246 252 Z M222 -250 C279 -211 308 -169 308 -122 C308 -74 279 -40 239 -40 C206 -40 181 -64 181 -95 C181 -122 199 -141 223 -141 C247 -141 264 -123 264 -100 L263 -90 C277 -100 284 -113 284 -131 C284 -167 262 -197 209 -232 L222 -250 Z " />
<glyph glyph-name="Lacute" unicode="&#x139;" horiz-adv-x="541" d="M109 20 L30 20 L30 0 L503 0 L519 206 L507 206 C472 49 438 15 323 20 L216 20 L216 647 L290 647 L290 667 L30 667 L30 647 L109 647 L109 20 Z M293 837 L155 732 L162 720 L394 812 C405 816 409 820 409 826 C409 834 405 837 393 837 L293 837 Z " />
<glyph glyph-name="lacute" unicode="&#x13a;" horiz-adv-x="244" d="M75 20 L16 20 L16 0 L228 0 L228 20 L165 20 L165 667 L16 667 L16 647 L75 647 L75 20 Z M210 837 L72 732 L79 720 L311 812 C322 816 326 820 326 826 C326 834 322 837 310 837 L210 837 Z " />
<glyph glyph-name="Lcommaaccent" unicode="&#x13b;" horiz-adv-x="541" d="M109 20 L30 20 L30 0 L503 0 L519 206 L507 206 C472 49 438 15 323 20 L216 20 L216 647 L290 647 L290 667 L30 667 L30 647 L109 647 L109 20 Z M259 -257 C318 -216 347 -173 347 -125 C347 -76 317 -40 276 -40 C242 -40 217 -64 217 -97 C217 -124 235 -144 260 -144 C284 -144 302 -126 302 -101 C302 -99 302 -95 301 -91 C315 -101 322 -116 322 -134 C322 -172 299 -203 245 -239 L259 -257 Z " />
<glyph glyph-name="lcommaaccent" unicode="&#x13c;" horiz-adv-x="244" d="M75 20 L16 20 L16 0 L228 0 L228 20 L165 20 L165 667 L16 667 L16 647 L75 647 L75 20 Z M101 -250 C158 -211 186 -169 186 -122 C186 -75 157 -40 117 -40 C84 -40 60 -64 60 -95 C60 -122 77 -141 102 -141 C125 -141 142 -123 142 -100 L142 -90 C155 -100 162 -113 162 -131 C162 -167 140 -197 87 -232 L101 -250 Z " />
<glyph glyph-name="Lcaron" unicode="&#x13d;" horiz-adv-x="541" d="M109 20 L30 20 L30 0 L503 0 L519 206 L507 206 C472 49 438 15 323 20 L216 20 L216 647 L290 647 L290 667 L30 667 L30 647 L109 647 L109 20 Z M349 450 C409 491 438 534 438 582 C438 631 408 667 367 667 C333 667 307 643 307 610 C307 583 325 563 350 563 C374 563 392 581 392 606 L392 616 C406 606 413 591 413 574 C413 536 390 504 336 469 L349 450 Z " />
<glyph glyph-name="lcaron" unicode="&#x13e;" horiz-adv-x="330" d="M75 20 L16 20 L16 0 L228 0 L228 20 L165 20 L165 667 L16 667 L16 647 L75 647 L75 20 Z M242 457 C299 496 327 539 327 585 C327 633 298 667 258 667 C225 667 201 643 201 612 C201 585 218 566 243 566 C266 566 283 584 283 608 C283 610 283 614 282 618 C296 608 303 594 303 577 C303 540 281 510 228 475 L242 457 Z " />
<glyph glyph-name="Ldot" unicode="&#x13f;" horiz-adv-x="541" d="M109 20 L30 20 L30 0 L503 0 L519 206 L507 206 C472 49 438 15 323 20 L216 20 L216 647 L290 647 L290 667 L30 667 L30 647 L109 647 L109 20 Z M337 369 C308 369 286 347 286 318 C286 289 308 267 338 267 C369 267 390 287 390 317 C390 346 367 369 337 369 L337 369 Z " />
<glyph glyph-name="ldot" unicode="&#x140;" horiz-adv-x="291" d="M75 20 L16 20 L16 0 L228 0 L228 20 L165 20 L165 667 L16 667 L16 647 L75 647 L75 20 Z M252 373 C223 373 201 351 201 322 C201 293 223 271 253 271 C284 271 305 291 305 321 C305 350 282 373 252 373 L252 373 Z " />
<glyph glyph-name="Lslash" unicode="&#x141;" horiz-adv-x="541" d="M109 286 L30 220 L30 195 L109 261 L109 20 L30 20 L30 0 L503 0 L519 206 L507 206 C472 49 438 15 323 20 L216 20 L216 323 L359 444 L359 469 L216 348 L216 647 L290 647 L290 667 L30 667 L30 647 L109 647 L109 286 Z " />
<glyph glyph-name="lslash" unicode="&#x142;" horiz-adv-x="244" d="M79 337 L16 285 L16 260 L79 311 L79 20 L16 20 L16 0 L228 0 L228 20 L169 20 L169 360 L228 412 L228 437 L169 386 L169 667 L16 667 L16 647 L79 647 L79 337 Z " />
<glyph glyph-name="Nacute" unicode="&#x143;" horiz-adv-x="635" d="M103 20 L24 20 L24 0 L204 0 L204 20 L126 20 L126 628 L512 0 L535 0 L535 647 L614 647 L614 667 L434 667 L434 647 L512 647 L512 196 C482 252 454 298 407 374 L222 667 L24 667 L24 647 L103 647 L103 20 Z M415 837 L277 732 L285 720 L517 812 C527 816 531 820 531 826 C531 834 527 837 516 837 L415 837 Z " />
<glyph glyph-name="nacute" unicode="&#x144;" horiz-adv-x="500" d="M92 20 L29 20 L29 0 L235 0 L235 20 L182 20 L182 139 C182 257 187 298 203 331 C215 355 245 373 271 373 C290 373 309 361 317 345 C328 320 331 287 331 174 L331 20 L278 20 L278 0 L484 0 L484 20 L421 20 L421 242 C421 306 418 327 405 350 C387 382 345 403 299 403 C250 403 213 384 182 341 L182 393 L29 393 L29 373 L92 373 L92 20 Z M315 616 L218 473 L228 463 L394 599 C397 602 399 605 399 608 C399 613 396 616 390 616 L315 616 Z " />
<glyph glyph-name="Ncommaaccent" unicode="&#x145;" horiz-adv-x="635" d="M103 20 L24 20 L24 0 L204 0 L204 20 L126 20 L126 628 L512 0 L535 0 L535 647 L614 647 L614 667 L434 667 L434 647 L512 647 L512 196 C482 252 454 298 407 374 L222 667 L24 667 L24 647 L103 647 L103 20 Z M304 -257 C363 -216 392 -173 392 -125 C392 -76 362 -40 321 -40 C287 -40 261 -64 261 -97 C261 -124 279 -144 305 -144 C329 -144 347 -126 347 -101 L346 -91 C360 -101 367 -116 367 -134 C367 -172 344 -203 290 -239 L304 -257 Z " />
<glyph glyph-name="ncommaaccent" unicode="&#x146;" horiz-adv-x="500" d="M92 20 L29 20 L29 0 L235 0 L235 20 L182 20 L182 139 C182 257 187 298 203 331 C215 355 245 373 271 373 C290 373 309 361 317 345 C328 320 331 287 331 174 L331 20 L278 20 L278 0 L484 0 L484 20 L421 20 L421 242 C421 306 418 327 405 350 C387 382 345 403 299 403 C250 403 213 384 182 341 L182 393 L29 393 L29 373 L92 373 L92 20 Z M240 -250 C297 -211 325 -169 325 -122 C325 -75 296 -40 256 -40 C224 -40 199 -64 199 -95 C199 -122 217 -141 241 -141 C264 -141 281 -123 281 -100 L281 -90 C294 -99 301 -114 301 -131 C301 -168 279 -197 226 -232 L240 -250 Z " />
<glyph glyph-name="Ncaron" unicode="&#x147;" horiz-adv-x="635" d="M103 20 L24 20 L24 0 L204 0 L204 20 L126 20 L126 628 L512 0 L535 0 L535 647 L614 647 L614 667 L434 667 L434 647 L512 647 L512 196 C482 252 454 298 407 374 L222 667 L24 667 L24 647 L103 647 L103 20 Z M330 720 L496 832 L491 843 L330 795 L169 843 L163 832 L330 720 Z " />
<glyph glyph-name="ncaron" unicode="&#x148;" horiz-adv-x="500" d="M92 20 L29 20 L29 0 L235 0 L235 20 L182 20 L182 139 C182 257 187 298 203 331 C215 355 245 373 271 373 C290 373 309 361 317 345 C328 320 331 287 331 174 L331 20 L278 20 L278 0 L484 0 L484 20 L421 20 L421 242 C421 306 418 327 405 350 C387 382 345 403 299 403 C250 403 213 384 182 341 L182 393 L29 393 L29 373 L92 373 L92 20 Z M261 547 L126 620 L118 610 L261 463 L404 610 L396 620 L261 547 Z " />
<glyph glyph-name="Omacron" unicode="&#x14c;" horiz-adv-x="631" d="M316 677 C255 677 199 653 152 607 C80 537 40 439 40 334 C40 243 74 149 130 83 C183 21 245 -10 317 -10 C378 -10 431 13 480 60 C548 126 592 230 592 327 C592 520 468 677 316 677 L316 677 Z M316 654 C365 654 411 629 432 593 C458 544 466 481 466 303 C466 190 456 117 435 79 C411 38 367 13 316 13 C261 13 215 42 193 90 C175 128 167 199 167 328 C167 479 174 541 198 588 C218 627 265 654 316 654 L316 654 Z M159 785 L159 750 L473 750 L473 785 L159 785 Z " />
<glyph glyph-name="omacron" unicode="&#x14d;" horiz-adv-x="451" d="M225 403 C119 403 33 311 33 197 C33 82 119 -10 225 -10 C330 -10 417 82 417 194 C417 311 333 403 225 403 L225 403 Z M310 197 L311 146 C312 48 290 13 225 13 C186 13 162 27 148 58 C141 77 139 103 139 208 C139 302 141 321 152 343 C166 368 189 380 225 380 C285 380 310 349 310 272 L310 197 Z M87 544 L87 510 L364 510 L364 544 L87 544 Z " />
<glyph glyph-name="Ohungarumlaut" unicode="&#x150;" horiz-adv-x="631" d="M316 677 C255 677 199 653 152 607 C80 537 40 439 40 334 C40 243 74 149 130 83 C183 21 245 -10 317 -10 C378 -10 431 13 480 60 C548 126 592 230 592 327 C592 520 468 677 316 677 L316 677 Z M316 654 C365 654 411 629 432 593 C458 544 466 481 466 303 C466 190 456 117 435 79 C411 38 367 13 316 13 C261 13 215 42 193 90 C175 128 167 199 167 328 C167 479 174 541 198 588 C218 627 265 654 316 654 L316 654 Z M508 837 L396 732 L403 720 L588 812 C601 818 603 820 603 826 C603 834 599 837 587 837 L508 837 Z M347 837 L235 732 L242 720 L428 812 C440 818 442 820 442 826 C442 834 438 837 427 837 L347 837 Z " />
<glyph glyph-name="ohungarumlaut" unicode="&#x151;" horiz-adv-x="451" d="M225 403 C119 403 33 311 33 197 C33 82 119 -10 225 -10 C330 -10 417 82 417 194 C417 311 333 403 225 403 L225 403 Z M310 197 L311 146 C312 48 290 13 225 13 C186 13 162 27 148 58 C141 77 139 103 139 208 C139 302 141 321 152 343 C166 368 189 380 225 380 C285 380 310 349 310 272 L310 197 Z M373 616 L277 473 L286 463 L446 599 C449 603 451 605 451 608 C451 613 448 616 442 616 L373 616 Z M241 616 L144 473 L153 463 L313 599 C316 602 318 605 318 608 C318 613 315 616 309 616 L241 616 Z " />
<glyph glyph-name="OE" unicode="&#x152;" horiz-adv-x="874" d="M807 667 L421 667 C391 675 373 677 346 677 C171 677 40 530 40 333 C40 241 72 150 127 86 C181 23 254 -10 341 -10 C368 -10 387 -8 421 0 L822 0 L840 208 L827 208 C803 116 793 93 765 56 C734 23 723 19 653 20 L536 20 L536 328 L568 328 C623 328 647 315 659 278 C665 260 667 248 670 196 L682 196 L682 471 L670 471 C668 365 648 346 544 348 L536 347 L536 647 L607 647 C732 652 771 620 800 484 L813 484 L807 667 Z M429 29 C393 17 372 13 341 13 C283 13 242 29 213 64 C178 105 167 176 167 350 C167 467 177 544 197 579 C224 626 280 654 346 654 C374 654 395 650 429 639 L429 29 Z " />
<glyph glyph-name="oe" unicode="&#x153;" horiz-adv-x="664" d="M638 227 C635 275 627 302 605 333 C575 376 525 403 474 403 C426 403 390 383 353 337 C317 381 272 403 221 403 C120 403 33 305 33 192 C33 83 118 -10 217 -10 C268 -10 312 13 349 58 C385 12 429 -10 484 -10 C562 -10 620 45 638 135 L612 135 C594 58 548 13 486 13 C452 13 426 26 413 49 C400 72 395 107 395 183 L396 227 L638 227 Z M540 247 L395 247 L395 277 C395 348 418 379 470 379 C497 379 521 367 530 348 C539 331 540 323 540 271 L540 247 Z M139 249 C139 298 143 326 153 343 C166 366 190 379 219 379 C258 379 284 359 294 323 C300 304 302 248 302 150 C302 91 299 68 288 48 C276 26 250 13 221 13 C188 13 164 28 151 58 C141 81 140 107 139 235 L139 249 Z " />
<glyph glyph-name="Racute" unicode="&#x154;" horiz-adv-x="606" d="M109 20 L30 20 L30 0 L290 0 L290 20 L216 20 L216 346 L249 346 C358 346 387 315 389 195 C391 116 396 89 415 55 C435 20 478 -4 521 -4 C543 -4 560 0 587 12 L580 30 C560 21 551 19 543 19 C514 19 499 46 499 95 C499 97 499 112 500 125 L500 146 C500 220 479 272 434 308 C405 332 369 347 326 353 C446 362 520 423 520 514 C520 568 493 615 447 638 C398 663 372 667 253 667 L30 667 L30 647 L109 647 L109 20 Z M216 368 L216 647 L252 647 C306 647 329 643 351 631 C386 612 406 567 406 506 C406 447 387 404 354 385 C331 372 303 368 248 368 L216 368 Z M350 837 L212 732 L219 720 L451 812 C462 817 466 820 466 826 C466 834 462 837 450 837 L350 837 Z " />
<glyph glyph-name="racute" unicode="&#x155;" horiz-adv-x="353" d="M92 20 L29 20 L29 0 L245 0 L245 20 L182 20 L182 113 C182 199 186 241 199 285 C212 330 231 362 245 362 C251 362 253 357 254 341 C255 313 271 294 296 294 C321 294 340 316 340 345 C340 379 316 403 283 403 C240 403 208 369 182 298 L182 393 L29 393 L29 373 L92 373 L92 20 Z M258 616 L161 473 L170 463 L337 599 C340 602 342 605 342 608 C342 613 339 616 333 616 L258 616 Z " />
<glyph glyph-name="Rcommaaccent" unicode="&#x156;" horiz-adv-x="606" d="M109 20 L30 20 L30 0 L290 0 L290 20 L216 20 L216 346 L249 346 C358 346 387 315 389 195 C391 116 396 89 415 55 C435 20 478 -4 521 -4 C543 -4 560 0 587 12 L580 30 C560 21 551 19 543 19 C514 19 499 46 499 95 C499 97 499 112 500 125 L500 146 C500 220 479 272 434 308 C405 332 369 347 326 353 C446 362 520 423 520 514 C520 568 493 615 447 638 C398 663 372 667 253 667 L30 667 L30 647 L109 647 L109 20 Z M216 368 L216 647 L252 647 C306 647 329 643 351 631 C386 612 406 567 406 506 C406 447 387 404 354 385 C331 372 303 368 248 368 L216 368 Z M282 -257 C341 -216 370 -173 370 -125 C370 -76 340 -40 299 -40 C265 -40 240 -64 240 -97 C240 -124 258 -144 283 -144 C307 -144 325 -126 325 -101 C325 -99 325 -95 324 -91 C338 -101 345 -116 345 -134 C345 -172 322 -203 268 -239 L282 -257 Z " />
<glyph glyph-name="rcommaaccent" unicode="&#x157;" horiz-adv-x="353" d="M92 20 L29 20 L29 0 L245 0 L245 20 L182 20 L182 113 C182 199 186 241 199 285 C212 330 231 362 245 362 C251 362 253 357 254 341 C255 313 271 294 296 294 C321 294 340 316 340 345 C340 379 316 403 283 403 C240 403 208 369 182 298 L182 393 L29 393 L29 373 L92 373 L92 20 Z M124 -250 C181 -211 209 -169 209 -122 C209 -75 180 -40 140 -40 C108 -40 83 -64 83 -95 C83 -122 101 -141 125 -141 C148 -141 165 -123 165 -100 L165 -90 C178 -99 185 -114 185 -131 C185 -168 163 -197 110 -232 L124 -250 Z " />
<glyph glyph-name="Rcaron" unicode="&#x158;" horiz-adv-x="606" d="M109 20 L30 20 L30 0 L290 0 L290 20 L216 20 L216 346 L249 346 C358 346 387 315 389 195 C391 116 396 89 415 55 C435 20 478 -4 521 -4 C543 -4 560 0 587 12 L580 30 C560 21 551 19 543 19 C514 19 499 46 499 95 C499 97 499 112 500 125 L500 146 C500 220 479 272 434 308 C405 332 369 347 326 353 C446 362 520 423 520 514 C520 568 493 615 447 638 C398 663 372 667 253 667 L30 667 L30 647 L109 647 L109 20 Z M216 368 L216 647 L252 647 C306 647 329 643 351 631 C386 612 406 567 406 506 C406 447 387 404 354 385 C331 372 303 368 248 368 L216 368 Z M294 720 L460 832 L454 843 L294 795 L133 843 L127 832 L294 720 Z " />
<glyph glyph-name="rcaron" unicode="&#x159;" horiz-adv-x="353" d="M92 20 L29 20 L29 0 L245 0 L245 20 L182 20 L182 113 C182 199 186 241 199 285 C212 330 231 362 245 362 C251 362 253 357 254 341 C255 313 271 294 296 294 C321 294 340 316 340 345 C340 379 316 403 283 403 C240 403 208 369 182 298 L182 393 L29 393 L29 373 L92 373 L92 20 Z M185 547 L49 620 L41 610 L185 463 L328 610 L320 620 L185 547 Z " />
<glyph glyph-name="Sacute" unicode="&#x15a;" horiz-adv-x="473" d="M398 677 L384 677 L351 636 C310 664 273 677 233 677 C134 677 58 589 58 475 C58 437 68 401 86 373 C109 340 155 315 230 296 C286 283 322 268 341 253 C367 231 381 197 381 156 C381 71 325 13 243 13 C180 13 124 47 91 105 C77 132 69 158 61 206 L47 206 L47 0 L67 0 L102 48 C149 8 192 -10 244 -10 C354 -10 434 85 434 215 C434 269 420 314 394 348 C367 382 327 403 259 419 C148 444 111 473 111 533 C111 604 162 654 234 654 C315 654 371 596 384 501 L398 501 L398 677 Z M324 837 L186 732 L193 720 L425 812 C436 817 440 820 440 826 C440 834 436 837 424 837 L324 837 Z " />
<glyph glyph-name="sacute" unicode="&#x15b;" horiz-adv-x="324" d="M277 398 L262 398 L247 366 C215 393 189 403 156 403 C90 403 43 351 43 279 C43 250 51 222 67 201 C84 177 118 162 171 154 C234 145 260 126 260 88 C260 46 223 13 175 13 C145 13 113 27 96 49 C76 73 66 98 53 150 L39 150 L42 0 L53 0 L75 32 C111 1 138 -10 175 -10 C246 -10 297 47 297 126 C297 200 257 240 169 254 C103 264 77 280 77 310 C77 349 113 380 157 380 C213 380 256 340 265 280 L280 280 L277 398 Z M228 616 L132 473 L141 463 L307 599 C310 602 312 605 312 608 C312 613 309 616 303 616 L228 616 Z " />
<glyph glyph-name="Scircumflex" unicode="&#x15c;" horiz-adv-x="473" d="M398 677 L384 677 L351 636 C310 664 273 677 233 677 C134 677 58 589 58 475 C58 437 68 401 86 373 C109 340 155 315 230 296 C286 283 322 268 341 253 C367 231 381 197 381 156 C381 71 325 13 243 13 C180 13 124 47 91 105 C77 132 69 158 61 206 L47 206 L47 0 L67 0 L102 48 C149 8 192 -10 244 -10 C354 -10 434 85 434 215 C434 269 420 314 394 348 C367 382 327 403 259 419 C148 444 111 473 111 533 C111 604 162 654 234 654 C315 654 371 596 384 501 L398 501 L398 677 Z M240 843 L74 732 L79 720 L240 769 L401 720 L407 732 L240 843 Z " />
<glyph glyph-name="scircumflex" unicode="&#x15d;" horiz-adv-x="324" d="M276 398 L262 398 L247 366 C215 393 189 403 156 403 C90 403 43 351 43 279 C43 250 51 222 67 201 C84 177 118 162 171 154 C234 145 260 126 260 88 C260 46 223 13 175 13 C145 13 113 27 96 49 C76 73 65 98 53 150 L39 150 L42 0 L53 0 L75 32 C111 1 138 -10 175 -10 C246 -10 297 47 297 126 C297 200 257 240 169 254 C103 264 77 280 77 310 C77 349 113 380 157 380 C213 380 256 340 265 280 L280 280 L276 398 Z M180 536 L316 463 L324 473 L180 620 L37 474 L45 464 L180 536 Z " />
<glyph glyph-name="Scedilla" unicode="&#x15e;" horiz-adv-x="473" d="M248 -10 C356 -8 434 87 434 215 C434 269 420 314 394 348 C367 382 327 403 259 419 C148 444 111 473 111 533 C111 604 162 654 234 654 C315 654 371 596 384 501 L398 501 L398 677 L384 677 L351 636 C310 664 273 677 233 677 C134 677 58 589 58 475 C58 437 68 401 86 373 C109 340 155 315 230 296 C286 283 322 268 341 253 C367 231 381 197 381 156 C381 71 325 13 243 13 C180 13 124 47 91 105 C77 132 69 158 61 206 L47 206 L47 0 L67 0 L102 48 C141 13 180 -5 229 -9 L213 -61 C247 -76 258 -90 258 -118 C258 -147 242 -164 216 -164 C192 -164 178 -155 178 -138 C177 -111 171 -100 158 -100 C149 -100 143 -108 143 -120 C143 -156 180 -181 231 -181 C286 -181 328 -149 328 -108 C328 -76 297 -53 253 -53 L235 -53 L248 -10 Z " />
<glyph glyph-name="scedilla" unicode="&#x15f;" horiz-adv-x="324" d="M182 -10 C251 -5 297 50 297 126 C297 200 257 240 169 254 C103 264 77 280 77 310 C77 349 113 380 157 380 C213 380 256 340 265 280 L280 280 L277 398 L262 398 L247 366 C215 393 189 403 156 403 C90 403 43 351 43 279 C43 250 51 222 67 201 C84 177 118 162 171 154 C234 145 260 126 260 88 C260 46 223 13 175 13 C145 13 113 27 96 49 C76 73 66 98 53 150 L39 150 L42 0 L53 0 L75 32 C106 5 130 -6 164 -10 L148 -60 C181 -75 192 -88 192 -117 C192 -145 176 -162 150 -162 C127 -162 113 -153 113 -136 C113 -110 107 -98 94 -98 C85 -98 79 -106 79 -118 C79 -153 115 -178 165 -178 C219 -178 260 -147 260 -106 C260 -74 230 -52 187 -52 L169 -52 L182 -10 Z " />
<glyph glyph-name="Scaron" unicode="&#x160;" horiz-adv-x="473" d="M238 720 L405 832 L399 843 L238 795 L77 843 L71 832 L238 720 Z M398 677 L384 677 L351 636 C310 664 273 677 233 677 C134 677 58 589 58 475 C58 437 68 401 86 373 C109 340 155 315 230 296 C286 283 322 268 341 253 C367 231 381 197 381 156 C381 71 325 13 243 13 C180 13 124 47 91 105 C77 132 69 158 61 206 L47 206 L47 0 L67 0 L102 48 C149 8 192 -10 244 -10 C354 -10 434 85 434 215 C434 269 420 314 394 348 C367 382 327 403 259 419 C148 444 111 473 111 533 C111 604 162 654 234 654 C315 654 371 596 384 501 L398 501 L398 677 Z " />
<glyph glyph-name="scaron" unicode="&#x161;" horiz-adv-x="324" d="M276 398 L262 398 L246 366 C214 393 189 403 155 403 C89 403 42 352 42 279 C42 250 50 222 66 201 C83 177 117 162 170 154 C233 145 259 126 259 88 C259 46 222 13 174 13 C144 13 112 27 95 49 C75 73 65 98 52 150 L38 150 L42 0 L52 0 L74 32 C111 1 138 -10 174 -10 C245 -10 296 47 296 126 C296 200 256 240 168 254 C102 264 76 280 76 310 C76 349 112 380 157 380 C212 380 255 340 265 280 L279 280 L276 398 Z M169 547 L34 620 L26 610 L169 463 L313 610 L305 620 L169 547 Z " />
<glyph glyph-name="Tcommaaccent" unicode="&#x162;" horiz-adv-x="557" d="M135 20 L135 0 L422 0 L422 20 L333 20 L333 647 L369 647 C420 647 431 645 453 629 C494 595 519 540 533 456 L547 456 L541 667 L16 667 L10 456 L24 456 C38 536 59 584 98 623 C123 644 136 647 192 647 L224 647 L224 20 L135 20 Z M263 -257 C323 -216 352 -173 352 -125 C352 -76 322 -40 281 -40 C247 -40 221 -64 221 -97 C221 -124 239 -144 264 -144 C288 -144 306 -126 306 -101 C306 -99 306 -95 305 -91 C320 -101 327 -116 327 -134 C327 -172 304 -203 249 -239 L263 -257 Z " />
<glyph glyph-name="tcommaaccent" unicode="&#x163;" horiz-adv-x="277" d="M165 546 L149 546 C126 476 83 422 22 387 L22 373 L75 373 L75 119 C75 64 76 55 86 37 C103 7 136 -10 178 -10 C236 -10 271 19 280 75 L261 75 C253 38 238 21 209 21 C193 21 179 28 172 40 C166 51 165 60 165 89 L165 373 L261 373 L261 393 L165 393 L165 546 Z M138 -250 C196 -211 224 -169 224 -122 C224 -74 195 -40 155 -40 C122 -40 97 -64 97 -95 C97 -122 115 -141 139 -141 C163 -141 180 -123 180 -100 C180 -98 180 -93 179 -90 C193 -100 200 -113 200 -131 C200 -168 178 -197 125 -232 L138 -250 Z " />
<glyph glyph-name="Tcaron" unicode="&#x164;" horiz-adv-x="557" d="M135 20 L135 0 L422 0 L422 20 L333 20 L333 647 L369 647 C420 647 431 645 453 629 C494 595 519 540 533 456 L547 456 L541 667 L16 667 L10 456 L24 456 C38 536 59 584 98 623 C123 644 136 647 192 647 L224 647 L224 20 L135 20 Z M279 720 L446 832 L440 843 L279 795 L118 843 L112 832 L279 720 Z " />
<glyph glyph-name="tcaron" unicode="&#x165;" horiz-adv-x="320" d="M165 546 L149 546 C126 476 83 422 22 387 L22 373 L75 373 L75 119 C75 64 76 55 86 37 C103 7 136 -10 178 -10 C236 -10 271 19 280 75 L261 75 C253 38 238 21 209 21 C193 21 179 28 172 40 C166 51 165 60 165 89 L165 373 L261 373 L261 393 L165 393 L165 546 Z M229 465 C286 505 314 547 314 593 C314 641 285 675 245 675 C213 675 188 652 188 620 C188 594 206 575 230 575 C253 575 270 593 270 616 L270 626 C283 616 290 602 290 585 C290 548 268 519 215 483 L229 465 Z " />
<glyph glyph-name="utilde" unicode="&#x169;" horiz-adv-x="504" d="M418 393 L269 393 L269 373 L328 373 L328 233 C328 123 324 96 305 60 C290 31 258 13 223 13 C201 13 182 21 175 35 C166 50 165 71 165 160 L165 393 L16 393 L16 373 L75 373 L75 160 C75 90 78 68 91 44 C110 10 152 -10 203 -10 C261 -10 302 11 328 55 L328 0 L481 0 L481 20 L418 20 L418 393 Z M393 580 C374 553 367 548 346 548 C330 548 314 551 298 556 L254 571 C228 580 217 582 200 582 C155 582 133 564 107 506 L120 498 C134 523 145 530 166 530 C182 530 202 527 221 520 L263 507 C285 500 304 496 319 496 C353 496 379 519 406 572 L393 580 Z " />
<glyph glyph-name="Umacron" unicode="&#x16a;" horiz-adv-x="610" d="M492 647 L492 265 C492 142 489 120 464 76 C441 35 400 13 345 13 C292 13 248 36 226 75 C205 112 203 128 203 265 L203 647 L277 647 L277 667 L17 667 L17 647 L96 647 L96 265 C96 156 101 119 122 83 C155 26 230 -10 319 -10 C400 -10 457 17 486 70 C511 114 515 143 515 265 L515 647 L593 647 L593 667 L413 667 L413 647 L492 647 Z M159 785 L159 750 L472 750 L472 785 L159 785 Z " />
<glyph glyph-name="umacron" unicode="&#x16b;" horiz-adv-x="504" d="M418 393 L269 393 L269 373 L328 373 L328 233 C328 123 324 96 305 60 C290 31 258 13 223 13 C201 13 182 21 175 35 C166 50 165 71 165 160 L165 393 L16 393 L16 373 L75 373 L75 160 C75 90 78 68 91 44 C110 10 152 -10 203 -10 C261 -10 302 11 328 55 L328 0 L481 0 L481 20 L418 20 L418 393 Z M110 544 L110 510 L387 510 L387 544 L110 544 Z " />
<glyph glyph-name="ubreve" unicode="&#x16d;" horiz-adv-x="504" d="M418 393 L269 393 L269 373 L328 373 L328 233 C328 123 324 96 305 60 C290 31 258 13 223 13 C201 13 182 21 175 35 C166 50 165 71 165 160 L165 393 L16 393 L16 373 L75 373 L75 160 C75 90 78 68 91 44 C110 10 152 -10 203 -10 C261 -10 302 11 328 55 L328 0 L481 0 L481 20 L418 20 L418 393 Z M359 613 C340 559 296 528 238 528 C180 528 137 559 121 613 L108 613 C112 526 165 467 240 467 C316 467 368 525 372 613 L359 613 Z " />
<glyph glyph-name="Uring" unicode="&#x16e;" horiz-adv-x="610" d="M492 647 L492 265 C492 142 489 120 464 76 C441 35 400 13 345 13 C292 13 248 36 226 75 C205 112 203 128 203 265 L203 647 L277 647 L277 667 L17 667 L17 647 L96 647 L96 265 C96 156 101 119 122 83 C155 26 230 -10 319 -10 C400 -10 457 17 486 70 C511 114 515 143 515 265 L515 647 L593 647 L593 667 L413 667 L413 647 L492 647 Z M321 859 C279 859 246 825 246 782 C246 740 279 707 322 707 C364 707 397 740 397 781 C397 825 364 859 321 859 L321 859 Z M322 831 C346 831 367 808 367 783 C367 757 346 735 321 735 C297 735 276 757 276 783 C276 809 297 831 322 831 L322 831 Z " />
<glyph glyph-name="uring" unicode="&#x16f;" horiz-adv-x="504" d="M418 393 L269 393 L269 373 L328 373 L328 233 C328 123 324 96 305 60 C290 31 258 13 223 13 C201 13 182 21 175 35 C166 50 165 71 165 160 L165 393 L16 393 L16 373 L75 373 L75 160 C75 90 78 68 91 44 C110 10 152 -10 203 -10 C261 -10 302 11 328 55 L328 0 L481 0 L481 20 L418 20 L418 393 Z M252 615 C210 615 177 581 177 538 C177 496 210 463 253 463 C295 463 328 496 328 537 C328 581 295 615 252 615 L252 615 Z M253 587 C277 587 298 564 298 539 C298 513 276 491 252 491 C228 491 207 513 207 539 C207 565 228 587 253 587 L253 587 Z " />
<glyph glyph-name="Uhungarumlaut" unicode="&#x170;" horiz-adv-x="610" d="M492 647 L492 265 C492 142 489 120 464 76 C441 35 400 13 345 13 C292 13 248 36 226 75 C205 112 203 128 203 265 L203 647 L277 647 L277 667 L17 667 L17 647 L96 647 L96 265 C96 156 101 119 122 83 C155 26 230 -10 319 -10 C400 -10 457 17 486 70 C511 114 515 143 515 265 L515 647 L593 647 L593 667 L413 667 L413 647 L492 647 Z M502 837 L389 732 L396 720 L582 812 C594 818 596 820 596 826 C596 834 592 837 581 837 L502 837 Z M341 837 L228 732 L235 720 L421 812 C434 818 436 820 436 826 C436 834 432 837 420 837 L341 837 Z " />
<glyph glyph-name="uhungarumlaut" unicode="&#x171;" horiz-adv-x="504" d="M418 393 L269 393 L269 373 L328 373 L328 233 C328 123 324 96 305 60 C290 31 258 13 223 13 C201 13 182 21 175 35 C166 50 165 71 165 160 L165 393 L16 393 L16 373 L75 373 L75 160 C75 90 78 68 91 44 C110 10 152 -10 203 -10 C261 -10 302 11 328 55 L328 0 L481 0 L481 20 L418 20 L418 393 Z M388 616 L291 473 L300 463 L460 599 C463 602 465 605 465 608 C465 613 462 616 456 616 L388 616 Z M256 616 L159 473 L168 463 L328 599 C331 602 333 605 333 608 C333 613 330 616 324 616 L256 616 Z " />
<glyph glyph-name="Uogonek" unicode="&#x172;" horiz-adv-x="610" d="M515 647 L593 647 L593 667 L413 667 L413 647 L492 647 L492 265 C492 142 489 120 464 76 C441 35 400 13 345 13 C292 13 248 36 226 75 C205 112 203 128 203 265 L203 647 L277 647 L277 667 L17 667 L17 647 L96 647 L96 265 C96 156 101 119 122 83 C155 26 230 -10 316 -10 C336 -10 354 -8 374 -5 C324 -26 295 -61 295 -100 C295 -140 325 -165 373 -165 C402 -165 424 -159 452 -144 L452 -127 C434 -134 424 -136 409 -136 C376 -136 357 -118 357 -87 C357 -52 368 -38 432 15 C500 58 517 111 515 265 L515 647 Z " />
<glyph glyph-name="uogonek" unicode="&#x173;" horiz-adv-x="504" d="M481 0 L481 20 L418 20 L418 393 L269 393 L269 373 L328 373 L328 233 C328 123 324 96 305 60 C290 31 258 13 223 13 C201 13 182 21 175 35 C166 50 165 71 165 160 L165 393 L16 393 L16 373 L75 373 L75 160 C75 90 78 68 91 44 C110 10 152 -10 203 -10 C261 -10 302 11 328 55 L328 0 L401 0 C340 -27 313 -57 313 -98 C313 -137 342 -162 390 -162 C417 -162 439 -156 467 -141 L467 -124 C449 -131 439 -133 425 -133 C392 -133 373 -115 373 -85 C373 -54 390 -29 431 0 L481 0 Z " />
<glyph glyph-name="Wcircumflex" unicode="&#x174;" horiz-adv-x="759" d="M709 647 L759 647 L759 667 L598 667 L598 647 L683 647 L536 151 L440 442 L508 647 L565 647 L565 667 L-3 667 L-3 647 L49 647 L266 -10 L287 -10 L387 287 L487 -10 L508 -10 L709 647 Z M485 647 L427 482 L369 647 L485 647 Z M266 647 L376 326 L317 151 L156 647 L266 647 Z M403 843 L237 732 L243 720 L403 769 L564 720 L570 732 L403 843 Z " />
<glyph glyph-name="Ycircumflex" unicode="&#x176;" horiz-adv-x="549" d="M224 20 L135 20 L135 0 L414 0 L414 20 L331 20 L331 316 C333 321 335 325 336 327 C336 328 339 334 342 344 C347 359 353 372 359 384 L490 647 L556 647 L556 667 L370 667 L370 647 L465 647 L321 356 C318 363 316 367 306 384 L156 647 L237 647 L237 667 L-9 667 L-9 647 L40 647 L224 316 L224 20 Z M288 843 L121 732 L127 720 L288 769 L449 720 L455 732 L288 843 Z " />
<glyph glyph-name="ycircumflex" unicode="&#x177;" horiz-adv-x="389" d="M353 373 L391 373 L391 393 L253 393 L253 373 L328 373 L239 117 L133 373 L200 373 L200 393 L-2 393 L-2 373 L38 373 L200 0 L147 -148 C129 -196 127 -201 117 -201 C112 -201 109 -199 103 -190 C92 -176 80 -169 63 -169 C36 -169 17 -188 17 -216 C17 -244 40 -265 72 -265 C113 -265 142 -234 168 -159 L353 373 Z M205 536 L341 463 L348 473 L205 620 L62 474 L70 464 L205 536 Z " />
<glyph glyph-name="Ydieresis" unicode="&#x178;" horiz-adv-x="549" d="M186 830 C158 830 134 806 134 777 C134 749 157 727 186 727 C215 727 238 749 238 779 C238 807 215 830 186 830 L186 830 Z M386 830 C358 830 334 806 334 778 C334 749 357 727 386 727 C416 727 438 749 438 779 C438 807 415 830 386 830 L386 830 Z M224 20 L135 20 L135 0 L414 0 L414 20 L331 20 L331 316 C333 321 335 325 336 327 C336 328 339 334 342 344 C347 359 353 372 359 384 L490 647 L556 647 L556 667 L370 667 L370 647 L465 647 L321 356 C318 363 316 367 306 384 L156 647 L237 647 L237 667 L-9 667 L-9 647 L40 647 L224 316 L224 20 Z " />
<glyph glyph-name="Zacute" unicode="&#x179;" horiz-adv-x="519" d="M24 0 L476 0 L494 210 L481 210 C462 128 448 92 422 60 C391 24 378 20 289 20 L126 20 L503 667 L64 667 L46 463 L58 463 C96 615 133 654 229 647 L376 647 L24 44 L24 0 Z M358 837 L220 732 L227 720 L459 812 C470 817 474 820 474 826 C474 834 470 837 458 837 L358 837 Z " />
<glyph glyph-name="zacute" unicode="&#x17a;" horiz-adv-x="380" d="M360 393 L54 393 L54 240 L67 240 C98 358 114 373 198 373 L247 373 L19 0 L346 0 L348 167 L335 167 C305 37 289 19 203 20 L128 20 L360 393 Z M271 616 L175 473 L184 463 L350 599 C353 602 355 605 355 608 C355 613 352 616 346 616 L271 616 Z " />
<glyph glyph-name="Zdotaccent" unicode="&#x17b;" horiz-adv-x="519" d="M24 0 L476 0 L494 210 L481 210 C462 128 448 92 422 60 C391 24 378 20 289 20 L126 20 L503 667 L64 667 L46 463 L58 463 C96 615 133 654 229 647 L376 647 L24 44 L24 0 Z M287 832 C258 832 234 808 234 779 C234 750 258 727 287 727 C317 727 340 750 340 780 C340 808 316 832 287 832 L287 832 Z " />
<glyph glyph-name="zdotaccent" unicode="&#x17c;" horiz-adv-x="380" d="M360 393 L54 393 L54 240 L67 240 C98 358 114 373 198 373 L247 373 L19 0 L346 0 L348 167 L335 167 C305 37 289 19 203 20 L128 20 L360 393 Z M214 592 C185 592 163 570 163 541 C163 512 185 490 215 490 C246 490 267 510 267 540 C267 569 244 592 214 592 L214 592 Z " />
<glyph glyph-name="Zcaron" unicode="&#x17d;" horiz-adv-x="519" d="M287 720 L454 832 L448 843 L287 795 L126 843 L120 832 L287 720 Z M24 0 L476 0 L494 210 L481 210 C462 128 448 92 422 60 C391 24 378 20 289 20 L126 20 L503 667 L64 667 L46 463 L58 463 C96 615 133 654 229 647 L376 647 L24 44 L24 0 Z " />
<glyph glyph-name="zcaron" unicode="&#x17e;" horiz-adv-x="380" d="M215 547 L80 620 L72 610 L215 463 L359 610 L351 620 L215 547 Z M360 393 L54 393 L54 240 L67 240 C98 358 114 373 198 373 L247 373 L19 0 L346 0 L348 167 L335 167 C305 37 289 19 203 20 L128 20 L360 393 Z " />
<glyph glyph-name="florin" unicode="&#x192;" horiz-adv-x="475" d="M189 317 L122 -48 C98 -178 94 -191 73 -224 C62 -240 45 -250 27 -250 C14 -250 4 -245 4 -238 C4 -236 5 -233 7 -229 C11 -222 13 -215 13 -209 L13 -208 C13 -189 0 -176 -19 -176 C-38 -176 -52 -192 -52 -213 C-52 -244 -21 -267 19 -267 C76 -267 123 -230 161 -156 C190 -101 202 -57 224 62 L272 317 L358 317 L362 337 L275 337 L296 449 C312 536 323 574 339 605 C358 641 381 660 404 660 C413 660 418 657 418 650 C418 646 417 644 412 640 C402 631 399 625 399 615 C399 595 414 580 434 580 C458 580 476 599 476 623 C476 655 448 677 409 677 C350 677 296 636 256 560 C228 508 215 464 193 337 L109 337 L106 317 L189 317 Z " />
<glyph glyph-name="uni01CD" unicode="&#x1cd;" horiz-adv-x="557" d="M326 215 L389 20 L306 20 L306 0 L563 0 L563 20 L496 20 L291 667 L263 667 L49 20 L3 20 L3 0 L157 0 L157 20 L74 20 L136 215 L326 215 Z M320 235 L143 235 L232 512 L320 235 Z M275 720 L441 832 L436 843 L275 795 L114 843 L108 832 L275 720 Z " />
<glyph glyph-name="uni01CE" unicode="&#x1ce;" horiz-adv-x="421" d="M393 35 C377 20 375 19 365 19 C347 19 346 21 346 135 L346 245 C346 323 346 327 335 346 C316 381 268 403 212 403 C131 403 62 356 62 301 C62 277 79 259 102 259 C124 259 140 277 140 302 C140 313 138 320 131 333 C128 338 127 340 127 343 C127 364 163 386 197 386 C219 386 240 376 248 361 C255 347 256 340 256 286 L256 217 C113 213 35 166 35 83 C35 28 75 -10 133 -10 C185 -10 229 18 256 68 C262 18 290 -10 337 -10 C363 -10 382 -2 405 20 L393 35 Z M256 180 C256 125 252 96 240 74 C225 48 204 34 178 34 C144 34 124 59 124 100 C124 164 167 196 256 200 L256 180 Z M224 547 L88 620 L80 610 L224 463 L367 610 L359 620 L224 547 Z " />
<glyph glyph-name="uni01D3" unicode="&#x1d3;" horiz-adv-x="610" d="M492 647 L492 265 C492 142 489 120 464 76 C441 35 400 13 345 13 C292 13 248 36 226 75 C205 112 203 128 203 265 L203 647 L277 647 L277 667 L17 667 L17 647 L96 647 L96 265 C96 156 101 119 122 83 C155 26 230 -10 319 -10 C400 -10 457 17 486 70 C511 114 515 143 515 265 L515 647 L593 647 L593 667 L413 667 L413 647 L492 647 Z M328 720 L495 832 L489 843 L328 795 L167 843 L161 832 L328 720 Z " />
<glyph glyph-name="uni01D4" unicode="&#x1d4;" horiz-adv-x="504" d="M418 393 L269 393 L269 373 L328 373 L328 233 C328 123 324 96 305 60 C290 31 258 13 223 13 C201 13 182 21 175 35 C166 50 165 71 165 160 L165 393 L16 393 L16 373 L75 373 L75 160 C75 90 78 68 91 44 C110 10 152 -10 203 -10 C261 -10 302 11 328 55 L328 0 L481 0 L481 20 L418 20 L418 393 Z M255 547 L119 620 L111 610 L255 463 L398 610 L390 620 L255 547 Z " />
<glyph glyph-name="Gcaron" unicode="&#x1e6;" horiz-adv-x="605" d="M502 667 L489 667 L457 627 C406 662 363 677 316 677 C166 677 40 520 40 333 C40 146 161 -10 307 -10 C384 -10 465 33 503 93 C524 126 532 159 535 213 L595 213 L595 233 L328 233 L328 213 L422 213 C422 153 418 122 410 95 C393 44 352 13 301 13 C247 13 204 46 186 100 C174 136 167 219 167 326 C167 465 177 547 200 593 C218 629 266 654 316 654 C364 654 405 634 436 597 C465 561 479 531 492 468 L506 468 L502 667 Z M311 720 L478 832 L472 843 L311 795 L151 843 L145 832 L311 720 Z " />
<glyph glyph-name="gcaron" unicode="&#x1e7;" horiz-adv-x="417" d="M271 22 L247 22 C211 21 205 21 188 21 L148 20 L128 20 C85 20 68 31 68 57 C68 83 88 110 130 139 C154 127 174 123 202 123 C291 123 354 180 354 260 C354 293 344 322 324 350 C336 363 340 366 346 366 C351 366 355 361 357 350 C361 330 372 320 388 320 C408 320 423 336 423 358 C423 384 405 403 380 403 C357 403 337 391 311 362 C283 389 247 403 203 403 C117 403 52 343 52 262 C52 218 70 183 111 149 C55 110 28 69 28 24 C28 -20 52 -51 94 -64 C49 -81 24 -112 24 -152 C24 -218 101 -272 196 -272 C314 -272 395 -195 395 -84 C395 -39 380 -5 352 10 C336 19 321 22 287 22 L271 22 Z M203 383 C252 383 259 369 259 260 C259 168 247 144 201 144 C158 144 147 165 147 249 C147 363 155 383 203 383 L203 383 Z M317 -64 C357 -64 373 -76 373 -106 C373 -185 297 -247 200 -247 C123 -247 74 -206 74 -142 C74 -112 84 -89 108 -64 C130 -67 140 -67 164 -67 C180 -67 190 -67 269 -65 L317 -64 Z M215 547 L80 620 L72 610 L215 463 L358 610 L351 620 L215 547 Z " />
<glyph glyph-name="Scommaaccent" unicode="&#x218;" horiz-adv-x="473" d="M398 677 L384 677 L351 636 C310 664 273 677 233 677 C134 677 58 589 58 475 C58 437 68 401 86 373 C109 340 155 315 230 296 C286 283 322 268 341 253 C367 231 381 197 381 156 C381 71 325 13 243 13 C180 13 124 47 91 105 C77 132 69 158 61 206 L47 206 L47 0 L67 0 L102 48 C149 8 192 -10 244 -10 C354 -10 434 85 434 215 C434 269 420 314 394 348 C367 382 327 403 259 419 C148 444 111 473 111 533 C111 604 162 654 234 654 C315 654 371 596 384 501 L398 501 L398 677 Z M214 -257 C273 -216 302 -173 302 -125 C302 -76 272 -40 231 -40 C197 -40 172 -64 172 -97 C172 -124 190 -144 215 -144 C239 -144 257 -126 257 -101 C257 -99 257 -95 256 -91 C270 -101 277 -116 277 -134 C277 -172 254 -203 200 -239 L214 -257 Z " />
<glyph glyph-name="scommaaccent" unicode="&#x219;" horiz-adv-x="324" d="M277 398 L262 398 L247 366 C215 393 189 403 156 403 C90 403 43 351 43 279 C43 250 51 222 67 201 C84 177 118 162 171 154 C234 145 260 126 260 88 C260 46 223 13 175 13 C145 13 113 27 96 49 C76 73 66 98 53 150 L39 150 L42 0 L53 0 L75 32 C111 1 138 -10 175 -10 C246 -10 297 47 297 126 C297 200 257 240 169 254 C103 264 77 280 77 310 C77 349 113 380 157 380 C213 380 256 340 265 280 L280 280 L277 398 Z M155 -250 C212 -211 241 -169 241 -122 C241 -74 212 -40 172 -40 C139 -40 114 -64 114 -95 C114 -122 132 -141 156 -141 C180 -141 197 -123 197 -100 C197 -98 197 -94 196 -90 C210 -99 217 -113 217 -131 C217 -167 195 -197 142 -232 L155 -250 Z " />
<glyph glyph-name="uni021A" unicode="&#x21a;" horiz-adv-x="557" d="M135 20 L135 0 L422 0 L422 20 L333 20 L333 647 L369 647 C420 647 431 645 453 629 C494 595 519 540 533 456 L547 456 L541 667 L16 667 L10 456 L24 456 C38 536 59 584 98 623 C123 644 136 647 192 647 L224 647 L224 20 L135 20 Z M263 -257 C323 -216 352 -173 352 -125 C352 -76 322 -40 281 -40 C247 -40 221 -64 221 -97 C221 -124 239 -144 264 -144 C288 -144 306 -126 306 -101 C306 -99 306 -95 305 -91 C320 -101 327 -116 327 -134 C327 -172 304 -203 249 -239 L263 -257 Z " />
<glyph glyph-name="uni021B" unicode="&#x21b;" horiz-adv-x="277" d="M165 546 L149 546 C126 476 83 422 22 387 L22 373 L75 373 L75 119 C75 64 76 55 86 37 C103 7 136 -10 178 -10 C236 -10 271 19 280 75 L261 75 C253 38 238 21 209 21 C193 21 179 28 172 40 C166 51 165 60 165 89 L165 373 L261 373 L261 393 L165 393 L165 546 Z M138 -250 C196 -211 224 -169 224 -122 C224 -74 195 -40 155 -40 C122 -40 97 -64 97 -95 C97 -122 115 -141 139 -141 C163 -141 180 -123 180 -100 C180 -98 180 -93 179 -90 C193 -100 200 -113 200 -131 C200 -168 178 -197 125 -232 L138 -250 Z " />
<glyph glyph-name="circumflex" unicode="&#x2c6;" horiz-adv-x="489" d="M244 536 L380 463 L388 473 L244 620 L101 474 L109 464 L244 536 Z " />
<glyph glyph-name="caron" unicode="&#x2c7;" horiz-adv-x="489" d="M244 547 L109 620 L101 610 L244 463 L388 610 L380 620 L244 547 Z " />
<glyph glyph-name="uni02C9" unicode="&#x2c9;" horiz-adv-x="489" d="M106 544 L106 510 L383 510 L383 544 L106 544 Z " />
<glyph glyph-name="breve" unicode="&#x2d8;" horiz-adv-x="488" d="M363 613 C344 559 300 528 242 528 C184 528 141 559 125 613 L112 613 C116 526 169 467 244 467 C320 467 372 525 375 613 L363 613 Z " />
<glyph glyph-name="dotaccent" unicode="&#x2d9;" horiz-adv-x="480" d="M239 592 C210 592 188 570 188 541 C188 512 210 490 240 490 C271 490 292 510 292 540 C292 569 269 592 239 592 L239 592 Z " />
<glyph glyph-name="ring" unicode="&#x2da;" horiz-adv-x="483" d="M228 615 C186 615 153 581 153 538 C153 496 186 463 229 463 C271 463 304 496 304 537 C304 581 271 615 228 615 L228 615 Z M229 587 C253 587 274 564 274 539 C274 513 253 491 228 491 C204 491 183 513 183 539 C183 565 204 587 229 587 L229 587 Z " />
<glyph glyph-name="ogonek" unicode="&#x2db;" horiz-adv-x="475" d="M369 0 C309 -26 281 -57 281 -98 C281 -137 310 -162 358 -162 C385 -162 407 -156 435 -141 L435 -124 C417 -131 407 -133 393 -133 C360 -133 341 -115 341 -85 C341 -54 358 -29 399 0 L369 0 Z " />
<glyph glyph-name="tilde" unicode="&#x2dc;" horiz-adv-x="490" d="M382 580 C363 553 355 548 335 548 C319 548 303 551 287 556 L243 571 C217 580 206 582 189 582 C143 582 121 564 96 506 L109 498 C123 523 133 530 154 530 C171 530 191 527 210 520 L252 507 C273 500 293 496 308 496 C341 496 368 519 395 572 L382 580 Z " />
<glyph glyph-name="hungarumlaut" unicode="&#x2dd;" horiz-adv-x="484" d="M375 616 L278 473 L288 463 L448 599 C450 602 452 605 452 608 C452 613 449 616 444 616 L375 616 Z M243 616 L146 473 L155 463 L315 599 C318 602 320 605 320 608 C320 613 317 616 311 616 L243 616 Z " />
<glyph glyph-name="Wdieresis" unicode="&#x1e84;" horiz-adv-x="759" d="M709 647 L759 647 L759 667 L598 667 L598 647 L683 647 L536 151 L440 442 L508 647 L565 647 L565 667 L-3 667 L-3 647 L49 647 L266 -10 L287 -10 L387 287 L487 -10 L508 -10 L709 647 Z M485 647 L427 482 L369 647 L485 647 Z M266 647 L376 326 L317 151 L156 647 L266 647 Z M297 830 C269 830 245 806 245 778 C245 749 268 727 297 727 C326 727 349 750 349 779 C349 807 325 830 297 830 L297 830 Z M497 830 C469 830 445 806 445 778 C445 749 468 727 497 727 C527 727 549 749 549 779 C549 807 526 830 497 830 L497 830 Z " />
<glyph glyph-name="uni2011" unicode="&#x2011;" horiz-adv-x="184" d="M0 234 L0 168 L184 168 L184 234 L0 234 Z " />
<glyph glyph-name="figuredash" unicode="&#x2012;" horiz-adv-x="475" d="M36 234 L36 168 L440 168 L440 234 L36 234 Z " />
<glyph glyph-name="endash" unicode="&#x2013;" horiz-adv-x="475" d="M36 234 L36 168 L440 168 L440 234 L36 234 Z " />
<glyph glyph-name="emdash" unicode="&#x2014;" horiz-adv-x="552" d="M0 234 L0 168 L552 168 L552 234 L0 234 Z " />
<glyph glyph-name="afii00208" unicode="&#x2015;" horiz-adv-x="552" d="M0 234 L0 168 L552 168 L552 234 L0 234 Z " />
<glyph glyph-name="quoteleft" unicode="&#x2018;" horiz-adv-x="242" d="M143 677 C77 625 44 568 44 508 C44 452 78 412 127 412 C167 412 197 439 197 475 C197 506 176 528 146 528 C118 528 97 508 97 480 C97 478 97 473 98 469 C81 480 72 496 72 517 C72 551 91 592 120 623 C129 633 138 640 159 656 L143 677 Z " />
<glyph glyph-name="quoteright" unicode="&#x2019;" horiz-adv-x="242" d="M98 412 C164 464 197 521 197 581 C197 637 162 677 114 677 C74 677 44 650 44 614 C44 583 65 561 95 561 C123 561 144 581 144 609 C144 611 144 616 143 620 C160 609 169 593 169 572 C169 538 150 496 121 466 C112 456 103 449 82 432 L98 412 Z " />
<glyph glyph-name="quotesinglbase" unicode="&#x201a;" horiz-adv-x="234" d="M96 -151 C158 -99 189 -42 189 18 C189 74 156 114 110 114 C72 114 44 87 44 51 C44 20 64 -2 93 -2 C119 -2 139 18 139 46 C139 48 139 53 138 57 C153 46 161 29 161 9 C161 -25 143 -67 116 -97 C108 -107 100 -114 80 -131 L96 -151 Z " />
<glyph glyph-name="quotedblleft" unicode="&#x201c;" horiz-adv-x="442" d="M343 677 C277 625 244 568 244 507 C244 452 279 412 327 412 C367 412 397 439 397 475 C397 506 376 528 346 528 C318 528 297 508 297 480 L298 469 C281 480 272 496 272 517 C272 551 291 593 320 623 C329 632 338 640 359 656 L343 677 Z M143 677 C77 625 44 568 44 508 C44 452 78 412 127 412 C167 412 197 439 197 475 C197 506 176 528 146 528 C118 528 97 508 97 480 C97 478 97 473 98 468 C81 480 72 496 72 517 C72 551 91 592 120 623 C129 632 138 640 159 656 L143 677 Z " />
<glyph glyph-name="quotedblright" unicode="&#x201d;" horiz-adv-x="442" d="M98 412 C164 464 197 521 197 582 C197 637 162 677 114 677 C74 677 44 650 44 614 C44 583 65 561 95 561 C123 561 144 581 144 608 C144 611 144 616 143 620 C161 609 169 593 169 572 C169 538 150 496 121 466 C112 456 103 449 82 432 L98 412 Z M299 412 C364 464 397 521 397 581 C397 637 362 677 314 677 C274 677 244 650 244 614 C244 583 265 561 295 561 C323 561 344 581 344 609 C344 611 344 616 343 620 C360 609 369 593 369 572 C369 538 350 496 321 466 C312 456 304 449 283 432 L299 412 Z " />
<glyph glyph-name="quotedblbase" unicode="&#x201e;" horiz-adv-x="434" d="M96 -151 C158 -99 189 -42 189 19 C189 74 156 114 110 114 C72 114 44 87 44 51 C44 20 64 -2 93 -2 C119 -2 139 18 139 45 C139 47 139 52 138 57 C153 45 161 29 161 9 C161 -26 144 -67 116 -97 C108 -107 100 -114 80 -131 L96 -151 Z M296 -151 C358 -99 390 -42 390 18 C390 74 357 114 311 114 C272 114 244 87 244 51 C244 20 264 -2 293 -2 C319 -2 339 18 339 46 C339 48 339 53 338 57 C354 46 362 29 362 9 C362 -25 344 -67 317 -97 C308 -107 300 -115 281 -131 L296 -151 Z " />
<glyph glyph-name="dagger" unicode="&#x2020;" horiz-adv-x="475" d="M230 369 C223 300 220 276 216 245 C190 44 185 -13 185 -83 C185 -125 189 -148 198 -165 C206 -180 222 -190 237 -190 C253 -190 268 -180 277 -165 C286 -148 290 -125 290 -81 C290 -35 283 58 274 126 C263 213 256 265 254 281 C251 315 250 317 245 369 C289 355 292 354 343 336 C391 319 399 317 420 317 C452 317 474 339 474 370 C474 398 452 420 424 420 C414 420 401 418 387 415 C310 396 305 395 246 381 C255 424 264 468 273 513 C283 556 290 598 290 620 C290 654 269 677 238 677 C207 677 186 654 186 620 C186 597 192 555 202 513 C208 489 215 454 229 381 C178 393 171 394 130 404 C66 420 66 420 51 420 C23 420 1 398 1 370 C1 339 23 317 56 317 C76 317 84 319 132 336 C138 338 152 343 171 350 L201 359 L230 369 Z " />
<glyph glyph-name="daggerdbl" unicode="&#x2021;" horiz-adv-x="475" d="M230 407 C227 353 217 307 195 248 C217 190 227 144 230 89 C193 97 180 100 130 112 C66 128 66 128 51 128 C23 128 1 106 1 78 C1 47 23 25 56 25 C76 25 85 27 132 44 C146 49 153 52 201 67 L229 77 C226 64 224 55 223 51 L214 11 C214 8 209 -9 202 -35 C194 -68 189 -100 189 -126 C189 -164 210 -190 241 -190 C271 -190 291 -165 291 -127 C291 -99 285 -64 275 -31 C271 -19 269 -11 268 -9 L264 11 L256 38 C256 41 254 49 251 62 L248 76 L274 67 C323 51 329 49 343 44 C390 27 399 25 420 25 C452 25 474 47 474 78 C474 106 452 128 424 128 C414 128 401 126 387 123 C310 104 296 101 249 90 C250 144 259 186 283 248 C259 310 250 353 249 406 L274 397 C323 381 329 379 343 374 C390 357 399 355 420 355 C452 355 474 377 474 408 C474 436 452 458 424 458 C414 458 401 456 387 453 C308 433 303 432 248 420 C253 443 254 446 262 473 C282 535 291 577 291 610 C291 652 272 677 241 677 C209 677 188 651 188 613 C188 580 198 527 214 476 C222 450 223 445 229 420 C194 427 186 429 130 442 C70 457 66 458 51 458 C23 458 1 436 1 408 C1 377 23 355 56 355 C76 355 85 357 132 374 C146 379 152 381 201 397 L230 407 Z " />
<glyph glyph-name="bullet" unicode="&#x2022;" horiz-adv-x="633" d="M318 480 C244 480 186 418 186 340 C186 262 244 200 317 200 C389 200 447 262 447 340 C447 417 389 480 318 480 L318 480 Z " />
<glyph glyph-name="ellipsis" unicode="&#x2026;" horiz-adv-x="678" d="M113 110 C83 110 57 83 57 51 C57 19 82 -7 112 -7 C144 -7 169 19 169 51 C169 83 144 110 115 110 L113 110 Z M339 110 C309 110 283 83 283 51 C283 19 308 -7 338 -7 C370 -7 395 19 395 51 C395 83 370 110 341 110 L339 110 Z M565 110 C535 110 509 83 509 51 C509 19 534 -7 564 -7 C596 -7 621 19 621 51 C621 83 596 110 567 110 L565 110 Z " />
<glyph glyph-name="perthousand" unicode="&#x2030;" horiz-adv-x="972" d="M159 653 C84 653 25 579 25 487 C25 394 84 320 158 320 C231 320 291 394 291 484 C291 579 233 653 159 653 L159 653 Z M158 635 C201 635 212 604 212 485 C212 369 201 338 158 338 C117 338 104 371 104 469 C104 553 108 593 118 613 C125 626 141 635 158 635 L158 635 Z M463 647 L167 0 L194 0 L491 647 L463 647 Z M501 327 C426 327 367 253 367 161 C367 68 426 -6 500 -6 C573 -6 633 68 633 158 C633 253 575 327 501 327 L501 327 Z M500 309 C543 309 554 278 554 159 C554 43 543 12 500 12 C459 12 446 45 446 143 C446 227 450 267 460 287 C467 300 483 309 500 309 L500 309 Z M816 327 C741 327 682 253 682 160 C682 68 741 -6 815 -6 C888 -6 948 68 948 158 C948 253 890 327 816 327 L816 327 Z M815 309 C858 309 869 278 869 159 C869 43 858 12 815 12 C774 12 761 44 761 143 C761 229 765 267 775 287 C782 300 798 309 815 309 L815 309 Z " />
<glyph glyph-name="guilsinglleft" unicode="&#x2039;" horiz-adv-x="254" d="M41 198 L146 94 L207 94 L100 198 L207 304 L150 304 L41 198 Z " />
<glyph glyph-name="guilsinglright" unicode="&#x203a;" horiz-adv-x="254" d="M214 200 L108 304 L48 304 L155 200 L48 94 L104 94 L214 200 Z " />
<glyph glyph-name="uni203E" unicode="&#x203e;" horiz-adv-x="500" d="M0 847 L0 807 L500 807 L500 847 L0 847 Z " />
<glyph glyph-name="fraction" unicode="&#x2044;" horiz-adv-x="90" d="M180 647 L-117 0 L-89 0 L208 647 L180 647 Z " />
<glyph glyph-name="franc" unicode="&#x20a3;" horiz-adv-x="682" d="M109 20 L30 20 L30 0 L290 0 L290 20 L216 20 L216 328 L247 328 C303 328 327 315 339 278 C345 260 347 245 350 196 L363 196 L363 471 L350 471 C348 366 328 346 224 348 L216 347 L216 647 L272 647 C389 648 400 645 438 601 C458 576 473 536 483 481 L495 481 L483 667 L30 667 L30 647 L109 647 L109 20 Z M454 20 L391 20 L391 0 L607 0 L607 20 L544 20 L544 84 C544 170 548 212 561 256 C574 301 593 333 607 333 C613 333 615 328 616 312 C617 284 633 265 658 265 C683 265 702 287 702 316 C702 350 678 374 645 374 C602 374 570 341 544 269 L544 364 L391 364 L391 344 L454 344 L454 20 Z " />
<glyph glyph-name="Euro" unicode="&#x20ac;" horiz-adv-x="599" d="M216 381 C220 476 224 514 234 550 C251 614 305 654 375 654 C463 654 525 596 549 491 L563 491 L563 667 L549 667 L516 620 C470 658 419 677 367 677 C281 677 189 618 139 531 C114 486 98 437 91 381 L49 381 L36 349 L89 349 L89 346 L89 331 L89 317 L49 317 L36 285 L91 285 C112 114 225 -10 361 -10 C413 -10 464 9 516 48 L549 0 L563 0 L563 189 L549 189 C510 71 451 13 367 13 C334 13 302 23 277 41 C250 60 236 83 227 122 C219 161 215 209 215 285 L408 285 L421 317 L215 317 L215 322 L215 342 L215 349 L434 349 L447 381 L216 381 Z " />
<glyph glyph-name="trademark" unicode="&#x2122;" horiz-adv-x="801" d="M146 306 L93 306 L93 287 L266 287 L266 306 L218 306 L218 648 L232 648 C284 652 310 623 325 541 L341 541 L336 667 L23 667 L19 541 L35 541 C50 623 76 652 130 648 L146 648 L146 306 Z M408 306 L361 306 L361 287 L475 287 L475 306 L430 306 L430 621 L532 287 L551 287 L648 617 L648 306 L605 306 L605 287 L765 287 L765 306 L719 306 L719 648 L765 648 L765 667 L642 667 L565 402 L485 667 L361 667 L361 648 L408 648 L408 306 Z " />
<glyph glyph-name="uni2126" unicode="&#x2126;" horiz-adv-x="768" d="M326 0 L308 155 C230 199 180 288 180 382 C180 434 195 493 221 540 C257 605 317 642 385 642 C453 642 513 605 549 540 C575 493 590 434 590 382 C590 288 540 199 462 155 L444 0 L736 0 L736 153 L712 153 C704 108 684 90 643 90 L497 90 L500 128 C535 141 557 151 580 166 C657 215 702 296 702 382 C702 449 673 522 625 578 C564 648 480 686 385 686 C290 686 206 648 145 578 C97 522 68 449 68 382 C68 296 113 215 190 166 C213 151 235 141 270 128 L273 90 L127 90 C86 90 66 108 58 153 L34 153 L34 0 L326 0 Z " />
<glyph glyph-name="partialdiff" unicode="&#x2202;" horiz-adv-x="494" d="M107 673 C152 697 184 706 219 706 C321 706 379 611 379 447 C379 418 377 394 372 346 C308 396 272 412 221 412 C172 412 131 394 95 355 C51 309 26 246 26 184 C26 76 109 -10 213 -10 C282 -10 341 22 383 84 C429 152 462 286 462 402 C462 519 429 610 360 681 C312 730 259 753 195 753 C156 753 121 745 66 724 L107 673 Z M366 312 C350 201 340 158 314 106 C288 54 245 21 201 21 C146 21 113 73 113 159 C113 273 180 367 261 367 C299 367 324 354 366 312 L366 312 Z " />
<glyph glyph-name="Delta" unicode="&#x2206;" horiz-adv-x="612" d="M6 0 L608 0 L327 688 L6 0 Z M77 51 L290 509 L479 51 L77 51 Z " />
<glyph glyph-name="product" unicode="&#x220f;" horiz-adv-x="823" d="M25 -124 L315 -124 L315 -98 L312 -98 C242 -94 221 -67 224 18 L224 594 C224 656 228 677 242 690 C260 707 272 708 413 708 C556 708 568 707 586 690 C600 677 604 656 604 594 L604 18 C607 -67 586 -94 516 -98 L513 -98 L513 -124 L803 -124 L803 -98 L800 -98 C730 -94 709 -67 712 18 L712 609 C709 694 730 721 800 725 L803 725 L803 751 L25 751 L25 725 L28 725 C98 721 119 694 116 609 L116 18 C119 -67 98 -94 28 -98 L25 -98 L25 -124 Z " />
<glyph glyph-name="summation" unicode="&#x2211;" horiz-adv-x="713" d="M176 711 L444 711 C560 710 590 688 606 587 L632 587 L622 752 L23 752 L256 285 L14 -123 L641 -123 L695 87 L669 87 C639 7 605 -12 491 -11 L163 -11 L364 341 L176 711 Z " />
<glyph glyph-name="minus" unicode="&#x2212;" horiz-adv-x="475" d="M44 341 L44 306 L430 306 L430 341 L44 341 Z " />
<glyph glyph-name="uni2215" unicode="&#x2215;" horiz-adv-x="90" d="M180 647 L-117 0 L-89 0 L208 647 L180 647 Z " />
<glyph glyph-name="uni2219" unicode="&#x2219;" horiz-adv-x="226" d="M113 259 C83 259 57 232 57 200 C57 168 82 142 112 142 C144 142 169 168 169 200 C169 231 144 259 115 259 L113 259 Z " />
<glyph glyph-name="radical" unicode="&#x221a;" horiz-adv-x="549" d="M363 -35 L515 908 L480 913 L353 123 L156 520 L10 449 L26 414 L121 461 L363 -35 Z " />
<glyph glyph-name="infinity" unicode="&#x221e;" horiz-adv-x="713" d="M357 227 C415 156 485 115 548 115 C631 115 688 176 688 266 C688 354 629 414 543 414 C476 414 412 376 357 303 C300 375 234 414 171 414 C86 414 26 351 26 263 C26 176 84 115 167 115 C224 115 281 142 327 192 L357 227 Z M391 264 C434 325 493 362 546 362 C600 362 638 321 638 264 C638 205 603 167 549 167 C495 167 461 188 391 264 L391 264 Z M324 266 C275 203 216 167 163 167 C111 167 76 207 76 266 C76 323 113 362 167 362 C218 362 258 337 324 266 L324 266 Z " />
<glyph glyph-name="integral" unicode="&#x222b;" horiz-adv-x="274" d="M180 576 C180 653 179 691 176 746 C174 774 173 800 173 815 C173 855 184 878 202 878 C208 878 213 876 215 872 C232 845 239 839 256 839 C276 839 291 853 291 871 C291 898 267 916 231 916 C186 916 152 887 138 838 C123 784 113 682 113 577 L113 232 C113 160 114 124 117 63 C119 34 120 4 120 -12 C120 -47 108 -70 89 -70 C81 -70 74 -65 68 -52 C59 -35 51 -30 37 -30 C17 -30 2 -44 2 -63 C2 -89 26 -107 62 -107 C107 -107 141 -78 155 -29 C170 25 180 126 180 232 L180 576 Z " />
<glyph glyph-name="approxequal" unicode="&#x2248;" horiz-adv-x="549" d="M489 251 C444 199 423 187 384 187 C365 187 354 190 285 211 C212 234 188 239 160 239 C101 239 54 211 14 155 L57 121 C103 174 120 184 159 184 C180 184 180 184 271 157 C350 133 354 132 385 132 C449 132 496 160 527 217 L489 251 Z M489 408 C443 356 423 344 384 344 C365 344 354 347 285 368 C212 391 188 396 160 396 C101 396 54 369 14 312 L57 278 C103 331 119 341 159 341 C180 341 180 341 271 314 C350 290 354 289 385 289 C449 289 496 317 527 374 L489 408 Z " />
<glyph glyph-name="notequal" unicode="&#x2260;" horiz-adv-x="549" d="M187 142 L115 -1 L161 -25 L246 142 L540 142 L540 197 L273 197 L344 336 L540 336 L540 391 L371 391 L439 525 L392 549 L312 391 L15 391 L15 336 L285 336 L215 197 L15 197 L15 142 L187 142 Z " />
<glyph glyph-name="lessequal" unicode="&#x2264;" horiz-adv-x="549" d="M526 55 L29 55 L29 0 L526 0 L526 55 Z M526 639 L29 405 L29 350 L526 117 L526 179 L108 378 L526 577 L526 639 Z " />
<glyph glyph-name="greaterequal" unicode="&#x2265;" horiz-adv-x="549" d="M526 55 L29 55 L29 0 L526 0 L526 55 Z M29 639 L29 577 L447 378 L29 179 L29 117 L526 350 L526 405 L29 639 Z " />
<glyph glyph-name="lozenge" unicode="&#x25ca;" horiz-adv-x="494" d="M209 0 L269 -1 L466 374 L277 740 L214 740 L18 377 L209 0 Z M240 58 L81 376 L245 683 L402 373 L240 58 Z " />
<glyph glyph-name="fi" unicode="&#xfb01;" horiz-adv-x="491" d="M412 393 L182 393 L182 528 C182 602 182 606 192 625 C203 646 232 659 269 659 C296 659 317 653 339 640 C323 624 317 611 317 591 C317 560 339 537 370 537 C399 537 421 561 421 592 C421 643 361 680 278 680 C201 680 149 654 118 599 C98 565 92 534 92 474 L92 393 L29 393 L29 373 L92 373 L92 20 L29 20 L29 0 L235 0 L235 20 L182 20 L182 373 L322 373 L322 20 L269 20 L269 0 L475 0 L475 20 L412 20 L412 393 Z " />
<glyph glyph-name="fl" unicode="&#xfb02;" horiz-adv-x="491" d="M182 20 L182 373 L264 373 L264 393 L182 393 L182 528 C182 602 182 606 192 625 C202 645 230 659 259 659 C289 659 307 647 316 622 C321 608 322 604 322 547 L322 20 L269 20 L269 0 L475 0 L475 20 L412 20 L412 680 L331 673 C301 678 282 680 262 680 C199 680 147 651 118 601 C98 566 92 535 92 474 L92 393 L29 393 L29 373 L92 373 L92 20 L29 20 L29 0 L235 0 L235 20 L182 20 Z " />
</font>
</svg>
