<?xml version="1.0" standalone="no"?>
<!DOCTYPE svg PUBLIC "-//W3C//DTD SVG 1.1//EN" "http://www.w3.org/Graphics/SVG/1.1/DTD/svg11.dtd" >
<svg xmlns="http://www.w3.org/2000/svg">
<metadata>
Created by FontPrep 20130207 at Wed Nov 23 14:29:03 2016
 By Tina Muller
Copyright (c) 2016 by Enrique Hernandez Vasquez. All rights reserved.
</metadata>
<defs>
<font id="7f44c69a82f8860282dd31b0b8768aee" horiz-adv-x='1024' >
  <font-face 
    font-family="IsidoraAlt-Bold"
    font-weight="700"
    font-stretch="normal"
    units-per-em="2048"
    panose-1="0 0 8 0 0 0 0 0 0 0"
    ascent="1638"
    descent="-410"
    x-height="1024"
    cap-height="1331"
    bbox="-414 -717 2636 1940"
    underline-thickness="102"
    underline-position="-102"
    unicode-range="U+0020-FB02"
  />
<missing-glyph horiz-adv-x="1177" 
d="M784 -289h-391v-78h166l-166 -110v-78h391v78h-239l164 110h75v78zM707 -45v-111h-236v111h236zM784 33h-391v-266h391v266zM784 440h-235v-133h80v55h78v-110h-236v188h-78v-266h391v266zM784 727h-77v-156h-314v-79h391v235zM784 868h-391v-77h156v-89h-156v-75h236
v164h155v77zM549 1096v-84h-78v84h78zM629 1178h-236v-246h391v80h-155v166zM784 1481h-389v-78h154v-88h-156v-78h391v78h-155v88h155v78zM965 1638v-2355h-746v2355h746z" />
    <glyph glyph-name="fi" unicode="fi" horiz-adv-x="1394" 
d="M1164 -25q-112 0 -183 78q-72 78 -72 221v517h-383v-816q0 -143 -70 -221t-184 -78t-184 43l-12 23l39 211l18 10q14 -10 31 -10q47 0 47 76v762h-176v233h176v35q0 195 119 292t293 97q106 0 194 -41l12 -23l-61 -198l-20 -12q-43 24 -94 24q-50 0 -88 -36t-38 -105v-33
h699v-696q0 -76 47 -76q18 0 29 10l20 -10l37 -211l-10 -23q-74 -43 -186 -43zM1070 1096q-75 0 -127 52t-52 127t52 128t127 53t128 -53t53 -128t-53 -127t-128 -52z" />
    <glyph glyph-name="fl" unicode="fl" horiz-adv-x="1347" 
d="M1135 -25q-131 0 -202 78t-71 221v863q-49 45 -153 45q-174 0 -181 -158h240v-233h-240l-2 -816q0 -143 -70 -221t-184 -78t-184 43l-12 23l39 211l18 10q14 -10 31 -10q47 0 47 76v762h-180v233h180v4q0 193 135 299q136 107 364 107t348 -88t120 -254v-764
q0 -76 47 -76q18 0 28 10l21 -10l39 -211l-13 -23q-74 -43 -165 -43z" />
    <glyph glyph-name=".notdef" horiz-adv-x="1177" 
d="M784 -289h-391v-78h166l-166 -110v-78h391v78h-239l164 110h75v78zM707 -45v-111h-236v111h236zM784 33h-391v-266h391v266zM784 440h-235v-133h80v55h78v-110h-236v188h-78v-266h391v266zM784 727h-77v-156h-314v-79h391v235zM784 868h-391v-77h156v-89h-156v-75h236
v164h155v77zM549 1096v-84h-78v84h78zM629 1178h-236v-246h391v80h-155v166zM784 1481h-389v-78h154v-88h-156v-78h391v78h-155v88h155v78zM965 1638v-2355h-746v2355h746z" />
    <glyph glyph-name=".null" horiz-adv-x="0" 
 />
    <glyph glyph-name="nonmarkingreturn" horiz-adv-x="681" 
 />
    <glyph glyph-name="space" unicode=" " horiz-adv-x="450" 
 />
    <glyph glyph-name="exclam" unicode="!" horiz-adv-x="563" 
d="M281 358q82 0 138 -56t56 -138t-56 -139t-138 -57q-81 0 -139 56q-58 58 -58 140t57 138q58 56 140 56zM123 1315l20 16h275l18 -18l-33 -842l-20 -18h-207l-18 18z" />
    <glyph glyph-name="quotedbl" unicode="&#x22;" horiz-adv-x="776" 
d="M477 797l-47 534h258l-47 -534h-164zM135 797l-47 534h258l-47 -534h-164z" />
    <glyph glyph-name="numbersign" unicode="#" horiz-adv-x="1345" 
d="M543 526h254l41 279h-256zM229 0l50 350h-216l25 176h215l39 279h-215l25 176h215l47 350h241l-49 -350h256l47 350h240l-47 -350h178l-25 -176h-180l-37 -279h179l-25 -176h-178l-49 -350h-240l49 350h-256l-49 -350h-240z" />
    <glyph glyph-name="dollar" unicode="$" horiz-adv-x="974" 
d="M614 -20h-233v147q-199 33 -313 174v25l125 141h18q43 -53 118 -89t147 -36t113 27q42 27 42 63t-27 62q-26 26 -54 36t-68 26t-73 25q-89 28 -168 75t-117 135q-22 49 -22 108q0 121 76 200t203 103v150h233v-148q168 -33 258 -147v-25l-122 -135h-23q-96 104 -227 104
q-57 1 -90 -23t-33 -60q-1 -36 27 -62t53 -36t86 -32t93 -34t94 -45t91 -65q80 -88 80 -209t-78 -199t-209 -105v-151z" />
    <glyph glyph-name="percent" unicode="%" horiz-adv-x="1826" 
d="M1425 154q63 0 102 57q38 57 38 151t-38 152q-37 58 -101 57q-64 0 -102 -57q-38 -58 -38 -152t38 -151t101 -57zM1425 -25q-151 0 -245 108q-94 107 -94 279t94 278q96 106 246 108q150 0 244 -106q95 -106 95 -280q0 -172 -95 -280t-245 -107zM264 967q0 -93 38 -151
t100 -58t101 57q38 57 38 151t-38 152q-39 58 -101 58t-100 -58t-38 -151zM276 23l1027 1308h241l12 -22l-1024 -1309h-243zM403 580q-151 0 -245 108t-95 279t95 279t246 108t244 -108q95 -108 95 -280t-95 -278q-95 -108 -245 -108z" />
    <glyph glyph-name="ampersand" unicode="&#x26;" horiz-adv-x="1449" 
d="M664 174q51 0 90 8l-308 457q-108 -96 -92 -231q10 -102 94 -168t216 -66zM1204 -66q-144 0 -254 70q-143 -55 -299 -55q-260 0 -423 137t-162 354q0 116 64 222t171 174q-70 109 -70 221q0 143 117 233t297 88q248 0 385 -188v-23l-151 -118h-23q-70 113 -180 108
q-62 0 -104 -33q-42 -34 -42 -98t84 -186l355 -531q51 70 51 163t-64 177v23l191 119h22q51 -61 85 -155t34 -185q0 -160 -106 -285q10 -2 35 -2q74 0 137 47l18 -10l76 -176l-8 -23q-92 -68 -236 -68z" />
    <glyph glyph-name="quotesingle" unicode="'" horiz-adv-x="434" 
d="M135 797l-47 534h258l-47 -534h-164z" />
    <glyph glyph-name="parenleft" unicode="(" horiz-adv-x="692" 
d="M379 573q0 -238 82 -467t225 -405h-315q-139 183 -219 411t-80 461t80 461t219 412h315q-143 -176 -225 -406t-82 -467z" />
    <glyph glyph-name="parenright" unicode=")" horiz-adv-x="692" 
d="M621 574q0 -234 -80 -461t-219 -412h-316q143 176 225 405t82 467q0 237 -82 467t-225 406h316q139 -184 219 -412q80 -226 80 -460z" />
    <glyph glyph-name="asterisk" unicode="*" horiz-adv-x="888" 
d="M354 1372h181v-213l184 109l90 -158l-184 -106l184 -107l-90 -158l-184 107v-213h-181v213l-186 -107l-90 158l186 107l-186 106l90 158l186 -109v213z" />
    <glyph glyph-name="plus" unicode="+" horiz-adv-x="1153" 
d="M1090 719v-215h-390v-385h-245v385h-392v215h392v383h245v-383h390z" />
    <glyph glyph-name="comma" unicode="," horiz-adv-x="559" 
d="M76 178q0 70 58 126t144 56t142 -59t56 -172q1 -113 -79 -257t-207 -273h-24l-109 98v22q121 141 138 269q-119 56 -119 190z" />
    <glyph glyph-name="hyphen" unicode="-" horiz-adv-x="1009" 
d="M111 737h788v-245h-788v245z" />
    <glyph glyph-name="period" unicode="." horiz-adv-x="542" 
d="M270 -16q-82 0 -138 56t-56 138t56 139t138 57t140 -56q58 -58 57 -140q1 -82 -57 -138t-140 -56z" />
    <glyph glyph-name="slash" unicode="/" horiz-adv-x="1214" 
d="M868 1442h293l8 -19l-823 -1532h-291l-8 19z" />
    <glyph glyph-name="zero" unicode="0" horiz-adv-x="1329" 
d="M395 666q0 -193 74 -310q74 -116 195 -116q122 0 196 116t74 310t-75 310t-195 116t-195 -116q-74 -116 -74 -310zM1249 666q0 -310 -162 -500q-161 -190 -423 -190t-423 190t-161 500t161 499q161 191 423 191t424 -190t161 -500z" />
    <glyph glyph-name="one" unicode="1" horiz-adv-x="790" 
d="M610 1331v-1331h-317v1081h-270l-9 23l72 227h524z" />
    <glyph glyph-name="two" unicode="2" horiz-adv-x="1142" 
d="M1065 258v-258h-987v223q84 80 211 196t184 170q177 167 215 249q25 52 25 114q-1 62 -55 107t-140 45q-162 0 -282 -148h-23l-143 152v22q90 104 218 164t273 62q199 0 328 -108t129 -284t-108 -317t-392 -389h547z" />
    <glyph glyph-name="three" unicode="3" horiz-adv-x="1148" 
d="M1069 375q0 -176 -143 -288t-379 -112q-147 -1 -291 61t-221 165v22l155 156h23q51 -61 137 -107t181 -47q95 0 155 47q59 47 59 129t-70 133q-71 50 -192 50h-123v215h142q94 0 152 45t58 118q0 72 -54 108t-138 36q-154 0 -264 -100h-23l-131 161v23q184 166 461 166
q205 0 335 -95t130 -271t-166 -285q207 -102 207 -330z" />
    <glyph glyph-name="four" unicode="4" horiz-adv-x="1218" 
d="M670 510v418l-324 -418h324zM965 276v-276h-318v276h-614v209l676 846h256v-821h186l2 -234h-188z" />
    <glyph glyph-name="five" unicode="5" horiz-adv-x="1187" 
d="M623 899q217 0 356 -125t139 -333t-150 -337t-390 -129q-158 1 -297 61t-218 165v22l156 156h23q57 -70 141 -112t181 -42q97 -1 167 59t70 156t-69 156t-156 59q-166 0 -246 -94h-25l-196 88l114 682h797v-258h-584l-35 -213q97 39 222 39z" />
    <glyph glyph-name="six" unicode="6" horiz-adv-x="1179" 
d="M608 219q102 -1 164 61t64 156q0 94 -64 156t-164 61q-100 0 -164 -61q-64 -60 -63 -156t63 -156t164 -61zM635 899q227 0 369 -129t143 -333q0 -204 -150 -333q-149 -129 -389 -129q-240 1 -390 137t-150 353q2 217 142 448t419 519h22l185 -158v-23
q-221 -213 -324 -368q70 16 123 16z" />
    <glyph glyph-name="seven" unicode="7" horiz-adv-x="1038" 
d="M1008 1331v-176l-506 -1155h-312l-12 20l467 1051h-606v260h969z" />
    <glyph glyph-name="eight" unicode="8" horiz-adv-x="1245" 
d="M387 420q0 -90 67 -148t170 -59q103 0 169 58q65 59 65 149t-66 149q-67 59 -168 59t-169 -58q-68 -60 -68 -150zM623 1128q-74 0 -122 -41t-48 -106t49 -109t121 -45q73 0 121 43t48 110q0 68 -47 108q-48 40 -122 40zM624 -25q-242 0 -399 116q-156 116 -155 300
q0 233 223 344q-131 96 -131 260t129 262q129 99 332 99t331 -100t129 -261q0 -162 -129 -260q221 -115 222 -344q0 -184 -155 -300t-397 -116z" />
    <glyph glyph-name="nine" unicode="9" horiz-adv-x="1179" 
d="M346 893q0 -93 62 -155t164 -62q101 0 165 62q63 62 63 156t-62 156q-62 60 -164 60t-166 -62q-62 -62 -62 -155zM572 1356q241 0 391 -134q151 -134 149 -352t-143 -452q-141 -233 -418 -518h-23l-182 157v23q231 221 328 373q-70 -20 -146 -21q-211 0 -353 130
t-142 332t149 332t390 130z" />
    <glyph glyph-name="colon" unicode=":" horiz-adv-x="587" 
d="M293 -31q-82 1 -138 57t-57 138q0 82 56 139t139 57q82 0 139 -57t57 -139t-57 -138t-139 -57zM293 678q-82 0 -138 56t-57 138q0 82 56 140t139 57q82 0 139 -57q57 -58 57 -140t-57 -138t-139 -56z" />
    <glyph glyph-name="semicolon" unicode=";" horiz-adv-x="608" 
d="M104 178q0 70 58 126t145 56q85 0 141 -59t57 -172t-79 -257t-207 -273h-24l-109 98v22q121 141 137 269q-119 56 -119 190zM304 659q-83 -1 -140 57q-58 58 -58 141t58 141t139 58q82 0 141 -58q60 -60 60 -142t-58 -140t-142 -57z" />
    <glyph glyph-name="less" unicode="&#x3c;" horiz-adv-x="1042" 
d="M924 1004l-11 -15l-538 -330l538 -321l11 -14v-242l-15 -16l-852 499v183l852 514l15 -17v-241z" />
    <glyph glyph-name="equal" unicode="=" horiz-adv-x="1259" 
d="M119 489h1024v-217h-1024v217zM119 944h1024v-217h-1024v217z" />
    <glyph glyph-name="greater" unicode="&#x3e;" horiz-adv-x="1042" 
d="M133 1262l852 -514v-183l-852 -499l-14 16v242l10 14l539 321l-539 330l-10 15v241z" />
    <glyph glyph-name="question" unicode="?" horiz-adv-x="1089" 
d="M539 358q82 0 138 -56t56 -138t-56 -139t-138 -57q-81 0 -139 56q-58 58 -58 140t57 138q58 56 140 56zM546 1356q196 0 332 -98q138 -98 138 -252q0 -68 -31 -130t-64 -100q-33 -37 -89 -87t-74 -71q-70 -68 -70 -143v-22h-303v24q0 55 22 105q23 50 39 70q16 22 86 86
t92 89q56 66 56 130q0 65 -50 105t-122 40t-124 -41t-77 -105l-24 -6l-226 70l-2 27q108 309 491 309z" />
    <glyph glyph-name="at" unicode="@" horiz-adv-x="1826" 
d="M872 326q80 0 128 53t49 143q-1 90 -49 142t-128 53q-80 0 -127 -54q-47 -55 -47 -141t47 -141t127 -55zM899 -289q-346 1 -586 229q-239 228 -239 573t239 572t601 227t596 -211q234 -212 235 -528q0 -211 -108 -325q-109 -114 -285 -115q-176 0 -238 125
q-113 -119 -280 -119q-166 1 -276 107t-110 272t110 277t261 111t258 -101v88h209v-440q0 -139 88 -140q66 0 112 68t46 197q0 250 -174 402t-444 150q-270 0 -450 -175q-179 -175 -179 -444t179 -443t449 -174q174 0 338 102h21l86 -129v-21q-178 -135 -459 -135z" />
    <glyph glyph-name="A" unicode="A" 
d="M770 913l-188 -458h372zM1354 -25q-106 0 -168 56q-70 55 -137 202h-562q-68 -147 -137 -202q-62 -55 -160 -55t-167 42l-13 23l45 223l21 10q20 -14 47 -14q54 0 102 117l414 954h260l434 -954q35 -74 58 -95q45 -41 92 -8l20 -10l45 -223l-12 -23q-76 -43 -182 -43z
" />
    <glyph glyph-name="B" unicode="B" horiz-adv-x="1337" 
d="M750 250q90 0 144 43t54 115t-55 116t-143 45h-281v-319h281zM700 793q84 1 132 37t47 107q1 71 -47 107t-132 37h-231v-288h231zM1266 369q0 -165 -120 -267t-368 -102h-628v1331h608q236 0 341 -97t105 -257q0 -187 -190 -283q104 -43 178 -126t74 -199z" />
    <glyph glyph-name="C" unicode="C" horiz-adv-x="1396" 
d="M397 666q0 -174 114 -288t284 -114q205 0 335 158h23l197 -164v-22q-96 -121 -241.5 -191t-313.5 -70q-307 0 -516 198t-209 493t208.5 492.5t516.5 197.5q168 0 313 -69.5t242 -190.5v-23l-197 -164h-23q-131 158 -335 158q-170 0 -284 -113.5t-114 -287.5z" />
    <glyph glyph-name="D" unicode="D" horiz-adv-x="1505" 
d="M721 262q174 0 279 109t106 295q0 186 -106 295t-279 108h-252v-807h252zM733 1331q319 0 509 -182t192 -483q0 -302 -190 -484t-511 -182h-583v1331h583z" />
    <glyph glyph-name="E" unicode="E" horiz-adv-x="1202" 
d="M1118 1069h-649v-276h498v-250h-498v-281h649v-262h-968v1331h968v-262z" />
    <glyph glyph-name="F" unicode="F" horiz-adv-x="1120" 
d="M1079 1069h-610v-285h467v-247h-467v-537h-319v1331h929v-262z" />
    <glyph glyph-name="G" unicode="G" horiz-adv-x="1538" 
d="M1491 649q0 -285 -196.5 -479.5t-502.5 -194.5t-514 198t-208 493t207.5 492.5t513.5 197.5q174 0 319 -68.5t242 -187.5v-23l-199 -168h-23q-131 158 -337 158q-168 0 -282 -113.5t-114 -288.5t114 -288t288 -113q135 0 238.5 73t131.5 195h-374v236h667l23 -20
q6 -47 6 -99z" />
    <glyph glyph-name="H" unicode="H" horiz-adv-x="1517" 
d="M1049 1331h319v-1331h-319v535h-580v-535h-319v1331h319v-534h580v534z" />
    <glyph glyph-name="I" unicode="I" horiz-adv-x="929" 
d="M842 1073h-217v-815h217v-258h-756v258h219v815h-219v258h756v-258z" />
    <glyph glyph-name="J" unicode="J" horiz-adv-x="1083" 
d="M227 1331h723v-792q0 -563 -495 -564q-129 1 -251 57t-190 150v25l179 176h24q88 -121 215 -121q90 0 143 58t54 165v584h-402v262z" />
    <glyph glyph-name="K" unicode="K" horiz-adv-x="1431" 
d="M205 958q0 113 -54 113q-29 0 -42 -14l-21 10l-45 223l12 23q72 43 197 43t198.5 -84t73.5 -228v-260l482 547h352l12 -20l-512 -586l287 -356q90 -109 158 -109q23 0 55 14l20 -10l58 -217l-11 -22q-63 -49 -170 -50q-205 0 -362 205l-270 348l-99 -110v-418h-319v958z
" />
    <glyph glyph-name="L" unicode="L" horiz-adv-x="1046" 
d="M1022 262v-262h-872v1331h319v-1069h553z" />
    <glyph glyph-name="M" unicode="M" horiz-adv-x="1929" 
d="M1696 -25q-104 0 -180 69t-95 198l-63 458l-301 -700h-185l-301 700l-63 -458q-18 -129 -94 -198t-182 -69t-175 43l-12 23l45 223l21 10q14 -14 46 -14t47 34t25 122l105 915h233l398 -915l397 915h231l107 -915q10 -88 25 -122t47 -34t47 14l20 -10l45 -223l-12 -23
q-72 -43 -176 -43z" />
    <glyph glyph-name="N" unicode="N" horiz-adv-x="1486" 
d="M1018 1331h319v-1331h-231l-637 795v-795h-319v1331h229l639 -796v796z" />
    <glyph glyph-name="O" unicode="O" horiz-adv-x="1597" 
d="M799 264q171 0 287 114t116 288t-117 288t-287 113q-170 0 -286 -114q-117 -113 -117 -287t117 -288t287 -114zM799 -25q-311 0 -520 197t-209 494q0 298 209 494t520 196t520 -197t209 -493t-209 -493q-209 -198 -520 -198z" />
    <glyph glyph-name="P" unicode="P" horiz-adv-x="1288" 
d="M733 707q84 0 135 49t52 131q0 82 -52 132t-135 50h-264v-362h264zM729 1331q250 0 383 -117q133 -118 133 -320t-133 -319t-383 -116h-260v-459h-319v1331h579z" />
    <glyph glyph-name="Q" unicode="Q" horiz-adv-x="1597" 
d="M799 248q72 0 131 20q-86 117 -166 173q-80 57 -170 57t-160 -25q48 -105 146 -165t219 -60zM803 1077q-170 1 -287 -107t-125 -280q106 43 217 43q158 0 280 -83t240 -238q78 106 78 270t-116 280q-117 115 -287 115zM70 666q0 298 209 494t520 196t520 -197t209 -497
t-223 -502q94 -129 178 -199t185 -70t185 68l23 -8l98 -166l-8 -21q-133 -108 -304 -108t-305 100t-261 275q-143 -55 -297 -56q-311 0 -520 197t-209 494z" />
    <glyph glyph-name="R" unicode="R" horiz-adv-x="1370" 
d="M469 719h262q84 0 136.5 46t52.5 126t-52.5 129t-136.5 49h-262v-350zM573 500h-104v-500h-319v1331h579q250 0 383 -112.5t133 -311.5q0 -137 -73.5 -232t-202.5 -140q29 -25 78 -115q25 -53 40 -81t43.5 -53.5t55 -25.5t59.5 14l21 -10l57 -217l-10 -22
q-66 -49 -189.5 -49.5t-198.5 68.5t-155 224.5t-123 193.5t-74 38z" />
    <glyph glyph-name="S" unicode="S" horiz-adv-x="1179" 
d="M577.5 246q94.5 0 147.5 35.5t53 95.5q0 33 -14 50t-22 27q-8 9 -28 20q-20 12 -32 18q-23 12 -132.5 50t-154.5 56t-105 54q-184 109 -184 302t141.5 297.5t356.5 104.5q309 0 473 -199v-31l-147 -165h-27q-125 137 -293 137q-78 0 -126 -32t-48 -79t32 -78.5t65.5 -48
t99 -40.5t87 -31t79 -30.5t82 -38.5t69.5 -43t65.5 -55.5t44.5 -64.5q46 -69 46 -178q0 -195 -144.5 -299.5t-369.5 -104.5q-347 1 -533 230v28l148 177h22q63 -70 158.5 -117t190 -47z" />
    <glyph glyph-name="T" unicode="T" horiz-adv-x="1191" 
d="M756 1069v-1069h-320v1069h-413v262h1148v-262h-415z" />
    <glyph glyph-name="U" unicode="U" horiz-adv-x="1521" 
d="M793 -25q-279 0 -441 160t-162 443v380q0 113 -55 113q-27 0 -41 -14l-20 10l-45 223l12 23q73 43 197 43t198 -84t74 -244v-465q0 -143 76 -222t207 -79t207 80t77 221v768h314v-753q1 -283 -159 -443t-439 -160z" />
    <glyph glyph-name="V" unicode="V" horiz-adv-x="1540" 
d="M187 1356q114 0 187 -58t122 -180l280 -682l281 682q47 119 118 178q71 60 181 60t172 -49l8 -23l-55 -217l-21 -10q-43 16 -67 6q-31 -10 -78 -113l-414 -950h-260l-416 950q-45 100 -80 113q-25 10 -65 -6l-21 10l-57 217l10 23q61 49 175 49z" />
    <glyph glyph-name="W" unicode="W" horiz-adv-x="2144" 
d="M1962 1356q113 0 174 -49l8 -23l-57 -217l-19 -10q-43 16 -67 6q-21 -5 -35 -25t-41 -88l-356 -950h-234l-262 817l-264 -817h-231l-359 950q-25 61 -39 84q-33 54 -102 23l-21 10l-57 217l10 23q61 49 172 49q211 0 299 -238l230 -645l262 858h198l263 -858l231 645
q88 238 297 238z" />
    <glyph glyph-name="X" unicode="X" horiz-adv-x="1492" 
d="M250 1356q201 0 340 -203l170 -244l182 244q78 107 148 155t176 48t172 -49l8 -23l-55 -217l-21 -10q-27 14 -57 14q-68 0 -133 -96l-230 -309l230 -310q68 -96 131 -96q31 0 59 14l21 -10l55 -217l-8 -22q-66 -49 -189 -50q-201 0 -340 203l-176 252l-188 -252
q-80 -110 -148 -156t-175 -46t-173 49l-10 22l57 217l21 10q27 -14 57 -14q66 0 133 96l234 310l-224 309q-66 94 -131 94q-35 0 -59 -12l-18 10l-58 217l8 23q64 49 191 49z" />
    <glyph glyph-name="Y" unicode="Y" horiz-adv-x="1466" 
d="M1321 1071q-68 0 -129 -96l-295 -477v-498h-319v492l-306 483q-61 96 -129 96q-25 0 -59 -14l-21 10l-55 217l8 23q62 49 168 49t184 -56t152 -178l219 -350l213 350q70 119 146 176q76 58 186 58t164 -49l10 -23l-57 -217l-21 -10q-37 14 -59 14z" />
    <glyph glyph-name="Z" unicode="Z" horiz-adv-x="1273" 
d="M934 0h-873v229l697 844h-656v258h1055v-231l-690 -842h348q59 0 85 11t26 41t-19 44l13 21l221 43l22 -10q47 -70 47 -172t-76 -170q-76 -66 -200 -66z" />
    <glyph glyph-name="bracketleft" unicode="[" horiz-adv-x="702" 
d="M641 1231h-213v-1311h213v-219h-508v1749h508v-219z" />
    <glyph glyph-name="backslash" unicode="\" horiz-adv-x="1214" 
d="M346 1442l821 -1532l-8 -19h-291l-823 1532l8 19h293z" />
    <glyph glyph-name="bracketright" unicode="]" horiz-adv-x="702" 
d="M61 1231v219h508v-1749h-508v219h213v1311h-213z" />
    <glyph glyph-name="asciicircum" unicode="^" horiz-adv-x="1331" 
d="M760 1331l512 -760l-15 -14h-256l-14 10l-319 475l-324 -475l-16 -10h-256l-13 14l519 760h182z" />
    <glyph glyph-name="underscore" unicode="_" horiz-adv-x="1095" 
d="M41 -39h1014v-244h-1014v244z" />
    <glyph glyph-name="grave" unicode="`" horiz-adv-x="716" 
d="M246 1604l389 -336v-17l-96 -112h-17l-440 268v16l147 181h17z" />
    <glyph glyph-name="a" unicode="a" horiz-adv-x="1345" 
d="M383 512q-1 -114 69 -190t180 -76t180 72t71 194q0 121 -71 194q-70 72 -180 72t-180 -76t-69 -190zM1141 -25q-162 0 -221 138q-144 -137 -356 -137t-357 154q-145 155 -146 382t145 382t356 155t356 -136v111h260v-696q0 -76 45 -76q14 0 30 10l21 -10l37 -211l-11 -23
q-74 -43 -159 -43z" />
    <glyph glyph-name="b" unicode="b" horiz-adv-x="1308" 
d="M676 246q110 0 180 76t69 190t-70 190t-179 76t-180 -72t-70 -194t70 -194t180 -72zM735 1049q223 0 367 -155t145 -382q0 -227 -145 -382q-146 -155 -356 -155t-355 136v-111h-268v1065q0 78 -45 78q-20 0 -31 -13l-20 13l-37 211l10 22q74 43 186 43q112 -1 184 -71
q71 -70 70 -211v-185q133 97 295 97z" />
    <glyph glyph-name="c" unicode="c" horiz-adv-x="1095" 
d="M61 512q0 233 161 385t415 152q119 0 229.5 -49.5t184.5 -131.5v-22l-177 -162h-24q-82 94 -204 94t-192.5 -74.5t-70.5 -191.5t70.5 -191.5t194.5 -74.5t202 94h24l177 -162v-22q-74 -82 -184.5 -131.5t-229.5 -49.5q-254 0 -415 152t-161 385z" />
    <glyph glyph-name="d" unicode="d" horiz-adv-x="1345" 
d="M632.5 246q110.5 0 180.5 71.5t70 194.5t-70 194.5t-180.5 71.5t-180 -75.5t-69.5 -190.5t69.5 -190.5t180 -75.5zM1137 -25q-154 0 -213 131q-141 -131 -356.5 -131t-361 155t-145.5 383t144.5 382t369.5 154q154 0 285 -91v400l293 37l25 -15v-1052q0 -76 47 -76
q18 0 28 10l21 -10l37 -211l-11 -23q-74 -43 -163 -43z" />
    <glyph glyph-name="e" unicode="e" horiz-adv-x="1210" 
d="M610.5 825q-102.5 0 -169 -61.5t-74.5 -165.5h485q-8 106 -73.5 166.5t-168 60.5zM657 209q182 0 285 113h23l143 -138v-22q-80 -94 -206 -140.5t-259 -46.5q-244 0 -413 141.5t-169 386.5t153 395.5t396.5 150.5t394 -148.5t150.5 -382.5q0 -43 -6 -84h-780
q12 -111 93 -168t195 -57z" />
    <glyph glyph-name="f" unicode="f" horiz-adv-x="829" 
d="M682 1188q-64 0 -110 -42t-48 -122h285v-233h-285v-816q0 -143 -70 -221t-202 -78q-94 0 -168 43l-10 23l37 211l20 10q10 -10 29 -10q47 0 47 76v762h-176v233h176q4 203 132 305t304 103q129 0 221 -46l10 -22l-59 -193l-20 -12q-49 29 -113 29z" />
    <glyph glyph-name="g" unicode="g" horiz-adv-x="1325" 
d="M618.5 319q108.5 0 176 70t67.5 179.5t-67.5 179t-176 69.5t-176 -69.5t-67.5 -179.5t67.5 -179.5t176 -69.5zM1204 772q-45 0 -45 -76v-501q0 -250 -161.5 -380t-417.5 -130q-317 0 -492 194v21l131 163h23q57 -66 149 -106.5t201 -40.5t188.5 57.5t79.5 165.5v33
q-133 -84 -299 -84q-217 0 -360.5 136t-143.5 343t143.5 344.5t352.5 137.5t356 -119q63 119 215 119q84 0 158 -43l12 -23l-39 -211l-20 -10q-10 10 -31 10z" />
    <glyph glyph-name="h" unicode="h" horiz-adv-x="1292" 
d="M1070 -25q-114 0 -184 72t-69 213v324q0 88 -50 142t-138 54q-89 0 -141 -54t-52 -142v-584h-313v1065q0 78 -45 78q-20 0 -31 -13l-20 13l-37 211l10 22q74 43 164 43q131 -1 202 -71t70 -211v-158q119 70 262 70q197 0 316 -121t119 -322v-278q0 -76 47 -76q16 0 30 10
l19 -10l39 -211l-11 -23q-73 -43 -187 -43z" />
    <glyph glyph-name="i" unicode="i" horiz-adv-x="600" 
d="M391 -25q-131 0 -203 78t-71 221v750h315v-696q0 -76 47 -76q18 0 29 10l20 -10l39 -211l-12 -23q-74 -43 -164 -43zM274 1139q-82 0 -138 56t-56 138q0 81 56 139t138 58t140 -57t57 -139q1 -82 -57 -139q-58 -56 -140 -56z" />
    <glyph glyph-name="j" unicode="j" horiz-adv-x="624" 
d="M504 1024v-780q0 -244 -62 -356t-249 -195h-23l-119 227v23q86 43 111 104t24 225v519h-139v233h457zM313 1139q-82 0 -138 56t-56 138q0 81 56 139t138 58q81 0 139 -57t58 -139t-58 -139q-58 -56 -139 -56z" />
    <glyph glyph-name="k" unicode="k" horiz-adv-x="1226" 
d="M438 637v-100h197q80 0 129 39.5t49 103t-46 102.5t-132 39t-141.5 -50t-55.5 -134zM1028 -25q-174 0 -287 144l-190 239h-113v-358h-315v1065q0 78 -47 78q-18 0 -29 -13l-20 13l-37 211l10 22q74 43 185.5 43t182 -70.5t70.5 -211.5v-154q119 66 290 66t280.5 -92.5
t109.5 -245.5q0 -102 -59.5 -183.5t-163.5 -124.5l80 -94q55 -57 92 -57t57 16l21 -10l39 -223l-13 -23q-59 -37 -143 -37z" />
    <glyph glyph-name="l" unicode="l" horiz-adv-x="608" 
d="M186.5 1405q112.5 0 183 -70.5t70.5 -212.5v-794q0 -76 47 -76q18 0 29 10l21 -10l36 -211l-10 -23q-74 -43 -185.5 -43t-183 78t-71.5 221v779q0 76 -47 75q-18 0 -29 -10l-20 10l-37 211l10 23q74 43 186.5 43z" />
    <glyph glyph-name="m" unicode="m" horiz-adv-x="2009" 
d="M1784 -25q-114 0 -182 72q-70 72 -70 213v324q0 90 -47 143t-131 53t-135 -53t-52 -143v-584h-317v584q0 90 -47 143t-131 53t-135 -53t-52 -143v-584h-317v696q0 76 -45 76q-20 0 -31 -10l-20 10l-39 211l12 23q74 43 158 43q150 0 215 -115q140 115 336 115t315 -144
q143 143 343 143t320 -120q118 -121 117 -322v-278q0 -76 45 -76q20 0 31 10l21 -10l36 -211l-10 -23q-74 -43 -188 -43z" />
    <glyph glyph-name="n" unicode="n" horiz-adv-x="1341" 
d="M1117.5 -25q-113.5 0 -183.5 72t-70 213v324q0 88 -49 142t-137 54t-140.5 -54t-52.5 -142v-584h-317v696q0 76 -45 76q-20 0 -31 -10l-20 10l-39 211l12 23q74 43 158 43q150 0 215 -115q139 115 333 115t312.5 -121t118.5 -322v-278q0 -76 45 -76q20 0 30 10l21 -10
l39 -211l-12 -23q-74 -43 -187.5 -43z" />
    <glyph glyph-name="o" unicode="o" horiz-adv-x="1271" 
d="M637 246q113 0 183.5 74.5t70.5 191.5t-70.5 191.5t-183.5 74.5t-183.5 -74.5t-70.5 -191.5t70.5 -191.5t183.5 -74.5zM637 -25q-254 0 -415 152t-161 385t161 385t415 152t414.5 -152t160.5 -385t-160.5 -385t-414.5 -152z" />
    <glyph glyph-name="p" unicode="p" horiz-adv-x="1343" 
d="M712 246q110 0 180 76t69 190q0 114 -70 190q-69 76 -179 76t-181 -72t-71 -194q0 -123 71 -195q71 -71 181 -71zM780 1049q210 0 356 -155t146 -383t-144 -382t-370 -154q-154 0 -285 91v-373h-315v1003q0 76 -47 76q-18 0 -29 -10l-20 10l-39 211l12 23q74 43 164 43
q160 0 217 -138q143 138 354 138z" />
    <glyph glyph-name="q" unicode="q" horiz-adv-x="1341" 
d="M633 246q111 0 181 72t69 194q0 123 -70 195q-71 71 -181 71t-180 -76t-69 -190q-1 -114 69 -190t181 -76zM1223 772q-47 0 -47 -76v-1003h-316v373q-131 -90 -285 -91q-225 0 -369 154t-144 382t144 383q146 155 357 155t355 -138q57 137 217 138q89 0 163 -43l13 -23
l-39 -211l-21 -10q-10 10 -28 10z" />
    <glyph glyph-name="r" unicode="r" horiz-adv-x="897" 
d="M483 559v-559h-315v696q0 76 -47 76q-18 0 -29 -10l-20 10l-39 211l12 23q74 43 164 43q143 0 199 -127q121 127 294 127q101 0 189 -43l10 -23l-65 -225l-19 -10q-68 33 -145.5 32.5t-133 -58.5t-55.5 -163z" />
    <glyph glyph-name="s" unicode="s" horiz-adv-x="1019" 
d="M510 1049q137 0 248.5 -45.5t177.5 -124.5v-23l-139 -123h-23q-106 100 -240.5 100.5t-134.5 -79.5q0 -33 33 -54.5t87 -42t100.5 -37t68 -24.5t64.5 -28q42 -18 66 -34q142 -94 142.5 -240t-121.5 -232q-123 -86 -297 -87q-335 0 -497 197v23l143 129h23
q49 -55 128 -94.5t153 -39.5t112.5 27t38.5 61t-11 52t-44.5 35.5t-108.5 44t-103 37t-83 33t-83 44.5t-60 54q-62 62 -62 163q0 139 116 223.5t306 84.5z" />
    <glyph glyph-name="t" unicode="t" horiz-adv-x="872" 
d="M581 -25q-151 0 -262.5 103.5t-111.5 294.5v418h-178v233h178v293l289 39l24 -15v-317h301v-233h-301v-385q0 -78 35 -120t84 -42t96 30l21 -10l86 -194l-8 -23q-102 -72 -253 -72z" />
    <glyph glyph-name="u" unicode="u" horiz-adv-x="1323" 
d="M1114 -25q-141 0 -207 115q-135 -115 -301 -115q-210 0 -328 118t-118 317v286q0 76 -47 76q-18 0 -29 -10l-21 10l-38 211l12 23q74 43 168 43q270 0 270 -283v-334q0 -88 48 -138t130 -50t133 54t52 140v586h317v-696q0 -76 47 -76q18 0 29 10l20 -10l37 -211l-10 -23
q-74 -43 -164 -43z" />
    <glyph glyph-name="v" unicode="v" horiz-adv-x="1234" 
d="M473 770v-330q0 -90 46 -143t134 -53t143 77q54 77 54 207t-40 254q-40 123 -105 197v22l241 142h23q92 -98 146 -259t52 -335q0 -246 -139 -410q-138 -164 -366 -164t-367 130t-139 368v223q0 76 -47 76q-18 0 -29 -10l-21 10l-36 211l10 23q74 43 168 43
q272 0 272 -279z" />
    <glyph glyph-name="w" unicode="w" horiz-adv-x="1890" 
d="M1296 -25q-211 0 -323 131q-131 -131 -345 -131q-214 1 -343 133t-129 365v223q0 76 -45 76q-20 0 -31 -10l-21 10l-36 211l10 23q74 43 170 43q270 0 270 -283v-332q0 -90 45 -140t127 -50t130 52t48 136v592h297v-588q0 -92 45 -142t121 -50q102 0 158 91q55 91 57 226
t-35 245t-94 175v23l230 143h22q100 -100 150 -250t49 -317q-5 -272 -143 -438t-384 -167z" />
    <glyph glyph-name="x" unicode="x" horiz-adv-x="1245" 
d="M201 1049q79 0 147 -37t146 -129l137 -181l137 181q80 94 141 130t139 36t138 -37l12 -23l-41 -223l-20 -10q-17 16 -65 16t-99 -63l-156 -197l156 -197q51 -63 97 -63t65 16l18 -10l43 -223l-12 -23q-66 -37 -143 -37t-145 37t-144 129l-138 181l-137 -181
q-82 -94 -143 -130t-136 -36t-141 37l-10 23l41 223l18 10q18 -16 66 -16t100 63l156 197l-156 197q-51 63 -98 63t-63 -16l-21 10l-41 223l12 23q62 37 140 37z" />
    <glyph glyph-name="y" unicode="y" horiz-adv-x="1261" 
d="M834 1024h309v-829q0 -246 -160 -378t-412 -132q-307 0 -481 194v21l131 163h23q57 -67 145 -107q87 -40 193 -40t183 57t77 166v54q-100 -105 -268 -105t-294 103t-126 305v200q0 76 -45 76q-20 0 -31 -10l-21 10l-37 211l11 23q74 43 168 43q264 0 264 -283v-227
q0 -83 48 -135t133 -52t137 56t53 143v473z" />
    <glyph glyph-name="z" unicode="z" horiz-adv-x="1085" 
d="M92 1024h864v-225l-534 -568h293q78 0 78 54q0 25 -19 43l12 18l209 39l25 -10q47 -70 47 -168q0 -99 -73 -153t-195 -54h-733v223l528 570h-502v231z" />
    <glyph glyph-name="braceleft" unicode="{" horiz-adv-x="774" 
d="M293 621v-91q86 0 138 -70t52 -194v-145q0 -133 37 -167t150 -34h49v-219h-92q-250 0 -345 93t-96 341v148q0 97 -14 135q-14 37 -42 48t-73 11v197q86 0 108 43t21 151v150q0 248 96 340t345 92h92v-219h-49q-113 0 -150 -34t-37 -167v-145q0 -125 -52 -195t-138 -69z
" />
    <glyph glyph-name="bar" unicode="|" horiz-adv-x="499" 
d="M133 -299v1749h234v-1749h-234z" />
    <glyph glyph-name="braceright" unicode="}" horiz-adv-x="774" 
d="M291 885v145q0 133 -37 167t-150 34h-49v219h92q249 0 345 -92t96 -340v-150q0 -97 14 -135q14 -37 42 -48t73 -11v-197q-86 0 -108 -43t-21 -151v-148q0 -248 -95 -341t-346 -93h-92v219h49q113 0 150 34t37 167v145q0 125 52 195t138 69v91q-86 -1 -138 69t-52 195z
" />
    <glyph glyph-name="asciitilde" unicode="~" horiz-adv-x="1218" 
d="M843 522q-81 0 -234 36t-226 36q-121 0 -168 -72h-25l-90 156v22q27 34 51 54t85 40t148 19q87 0 249 -36t203 -36q123 0 170 72h24l90 -156v-22q-28 -33 -50 -52t-84 -40t-143 -21z" />
    <glyph glyph-name="exclamdown" unicode="&#xa1;" horiz-adv-x="548" 
d="M432 -291l-20 -16h-275l-18 18l33 842l20 18h207l18 -18zM274 666q-82 0 -138 56t-56 138t56 139t138 57t140 -56q58 -58 57 -140q1 -82 -57 -138t-140 -56z" />
    <glyph glyph-name="cent" unicode="&#xa2;" horiz-adv-x="1089" 
d="M633.5 924q-116.5 0 -184.5 -71t-68 -182.5t67.5 -183t184.5 -71.5t194 90h23l168 -154v-22q-113 -125 -291 -160v-195h-233v197q-190 37 -304 172t-114 325.5t113.5 327t304.5 172.5v183h233v-181q176 -35 291 -161v-21l-168 -155h-23q-77 90 -193.5 90z" />
    <glyph glyph-name="sterling" unicode="&#xa3;" horiz-adv-x="1206" 
d="M740 1104q-98 0 -149 -49q-52 -49 -52 -135v-125h360v-236h-360v-323h583v-236h-1030v236h129v323h-125v236h125v125q0 208 141 322t338 114q274 0 435 -197v-22l-164 -144h-23q-110 111 -208 111z" />
    <glyph glyph-name="currency" unicode="&#xa4;" horiz-adv-x="1400" 
d="M699 936q-107 0 -181 -76t-74 -188t74 -188t180 -76q108 0 183 75q74 76 73 189q0 112 -74 188t-181 76zM698 170q-139 0 -254 63l-159 -155l-185 184l146 144q-82 119 -82 265t80 267l-144 143l187 187l157 -158q121 64 258 64t254 -66l160 160l187 -187l-148 -145
q80 -121 80 -265t-80 -263l145 -146l-186 -184l-158 155q-119 -63 -258 -63z" />
    <glyph glyph-name="yen" unicode="&#xa5;" horiz-adv-x="1380" 
d="M1098 571v-159h-252v-95h252v-159h-252v-158h-311v158h-252v159h252v95h-252v159h209l-445 740l12 20h351l295 -551l296 551h320l12 -20l-444 -740h209z" />
    <glyph glyph-name="brokenbar" unicode="&#xa6;" horiz-adv-x="495" 
d="M131 494h234v-793h-234v793zM131 1450h234v-752h-234v752z" />
    <glyph glyph-name="section" unicode="&#xa7;" horiz-adv-x="1232" 
d="M412 575q0 -35 21 -63t94 -53t133 -43t100 -33q92 39 92 112t-109 117q-75 31 -221 74q-50 -14 -80 -45t-30 -66zM645 1133q-78 0 -125 -29t-47 -82t55 -86q54 -32 144 -58t178 -54q132 -43 232 -140q74 -71 73 -190q0 -162 -139 -254q98 -102 98 -211q0 -162 -150 -251
t-366 -89q-340 0 -530 200v23l147 154h23q63 -62 158 -102q96 -40 188 -40t147 32t55 75t-36 71q-58 45 -234 91q-176 45 -296 131t-120 225q0 166 156 258q-115 88 -115 211q1 158 141 248t355 90q301 0 489 -172v-29l-157 -133h-27q-119 111 -297 111z" />
    <glyph glyph-name="dieresis" unicode="&#xa8;" horiz-adv-x="978" 
d="M713 1135q-74 0 -126 52t-52 126t52 126t126 52t125 -52t51 -126t-51 -126t-125 -52zM266 1135q-74 0 -126 52t-52 126t52 126t126 52t126 -52t52 -126t-52 -126t-126 -52z" />
    <glyph glyph-name="copyright" unicode="&#xa9;" 
d="M806 266q-194 0 -313 115q-120 115 -120 289t120 288q119 114 315 113q196 0 318 -133v-18l-135 -129h-16q-57 73 -151 73t-147 -56q-52 -56 -52 -141t51 -139t145 -55q94 0 154 76h16l135 -131v-19q-126 -133 -320 -133zM1331 666q0 236 -160 394q-159 158 -395 159
q-236 0 -396 -159q-160 -158 -159 -394q0 -236 161 -394q162 -158 396 -159q234 1 394 159t159 394zM776 -25q-296 0 -498 198t-202 492q0 295 202 493t498 198t499 -199q202 -199 202 -493t-202 -491q-202 -198 -499 -198z" />
    <glyph glyph-name="ordfeminine" unicode="&#xaa;" horiz-adv-x="847" 
d="M274 900q0 -34 27 -54t75 -21q48 0 82 32t34 71v33q-52 18 -106 18t-83 -22q-29 -23 -29 -57zM670 694q-90 0 -133 72q-86 -72 -201 -72t-191 58q-75 58 -75 152t80 146t180 52t164 -23v23q0 49 -36 76t-89 26q-96 0 -158 -61h-14l-86 90v16q104 104 278 105
q123 0 213 -62t90 -180v-184q0 -55 33 -56q12 0 20 9l15 -7l24 -135l-6 -16q-47 -29 -108 -29z" />
    <glyph glyph-name="guillemotleft" unicode="&#xab;" horiz-adv-x="1144" 
d="M1051 907v-18l-244 -277l244 -278v-17l-146 -139h-16l-375 418v33l375 418h16zM594 889l-244 -277l244 -278v-17l-145 -139h-17l-375 418v33l375 418h17l145 -140v-18z" />
    <glyph glyph-name="registered" unicode="&#xae;" 
d="M807 715q49 -1 77 25t28 70t-28 72t-77 27h-150v-194h150zM657 578v-299h-194v792h342q151 -1 229 -67t78 -185q0 -170 -164 -213l170 -327h-225l-156 299h-80zM776 1219q-236 0 -396 -159q-160 -158 -159 -394q0 -236 160 -395q161 -159 397 -159t394 158t159 394
t-159 396t-396 159zM776 1356q297 0 499 -199t202 -493t-202 -491q-202 -198 -499 -198q-296 0 -498 198t-202 492q0 295 202 493t498 198z" />
    <glyph glyph-name="macron" unicode="&#xaf;" horiz-adv-x="894" 
d="M109 1358h677v-193h-677v193z" />
    <glyph glyph-name="degree" unicode="&#xb0;" horiz-adv-x="661" 
d="M231 1092q0 -41 30 -71t72 -30q41 0 69 29t28 71q0 41 -29 71t-69 30t-71 -30q-30 -30 -30 -70zM68 1093q0 111 78 187t187 76q111 0 187 -77t76 -187t-77 -187q-77 -78 -187 -78t-187 78t-77 188z" />
    <glyph glyph-name="plusminus" unicode="&#xb1;" horiz-adv-x="1148" 
d="M98 -16v190h957v-190h-957zM692 842h363v-201h-363v-360h-229v360h-365v201h365v356h229v-356z" />
    <glyph glyph-name="acute" unicode="&#xb4;" horiz-adv-x="716" 
d="M469 1604h18l148 -181v-16l-442 -268h-17l-94 112v17z" />
    <glyph glyph-name="paragraph" unicode="&#xb6;" horiz-adv-x="1468" 
d="M1272 1094v-1364h-219v1364h219zM1382 1257h-493v-1527h-217v800h-94q-227 0 -375 119q-147 119 -148 346t147 341t376 114h804v-193z" />
    <glyph glyph-name="periodcentered" unicode="&#xb7;" horiz-adv-x="581" 
d="M291 360q-83 0 -145 62t-62 145t61 145t145 62t146 -61t62 -145t-62 -146t-145 -62z" />
    <glyph glyph-name="cedilla" unicode="&#xb8;" horiz-adv-x="739" 
d="M473 -96q78 0 127 -54t49 -146q0 -93 -79 -158t-205 -64q-193 0 -299 102v23l77 100h23q74 -66 166 -65q40 0 68 18t28 47q0 61 -86 62q-47 0 -90 -19l-72 45l111 238v37l186 2v-39l-63 -135l2 -4q27 10 57 10z" />
    <glyph glyph-name="ordmasculine" unicode="&#xba;" horiz-adv-x="835" 
d="M418 872q63 0 103 43t40 111t-40 111t-103 43q-64 0 -104 -43t-40 -111t40 -111t104 -43zM418 696q-156 0 -254 94t-98 237q0 145 98 237t254 92t254 -92t98 -236t-98 -238t-254 -94z" />
    <glyph glyph-name="guillemotright" unicode="&#xbb;" horiz-adv-x="1144" 
d="M713 1047l374 -418v-33l-374 -418h-17l-145 139v17l244 278l-244 277v18l145 140h17zM631 629v-33l-375 -418h-16l-146 139v17l244 278l-244 277v18l146 140h16z" />
    <glyph glyph-name="onequarter" unicode="&#xbc;" horiz-adv-x="1632" 
d="M1253 303v225l-174 -225h174zM1546 303v-166h-86v-137h-217v137h-364v146l358 467h223v-447h86zM201 23l1026 1308h241l13 -22l-1024 -1309h-244zM500 1331v-751h-252v555h-187l-4 14l54 182h389z" />
    <glyph glyph-name="onehalf" unicode="&#xbd;" horiz-adv-x="1796" 
d="M1361 580q-42 0 -91 -26t-84 -62h-15l-90 116v15q57 59 145 98t196 39t194 -62t86 -172q0 -80 -54 -150t-200 -188h270l2 -188h-614v150q167 120 259 199q91 79 91 148q0 35 -26 59t-69 24zM1485 1331l12 -22l-1024 -1309h-244l-12 23l1026 1308h242zM248 580v563h-187
l-4 12l49 176h394v-751h-252z" />
    <glyph glyph-name="threequarters" unicode="&#xbe;" horiz-adv-x="1710" 
d="M1329 303v225l-174 -225h174zM1536 303h86v-166h-86v-137h-217v137h-365v146l361 467h221v-447zM1552 1331l13 -22l-1024 -1309h-244l-12 23l1026 1308h241zM678 797q0 -97 -86 -161t-232 -65q-86 0 -169 35t-132 96v15l97 104h16q66 -76 180 -76q43 1 71 21t28 57
t-35 60t-92 22h-70v137h74q48 0 76 20t28 54q0 70 -85 71t-152 -57h-15l-84 115v12q104 99 246 99t217 -60q74 -60 74 -153q0 -94 -88 -158q133 -61 133 -188z" />
    <glyph glyph-name="questiondown" unicode="&#xbf;" horiz-adv-x="1075" 
d="M66 31q0 68 30 130q31 62 65 99t89 87t74 71q70 68 69 143v23h303v-25q0 -55 -22 -104t-38 -71q-18 -22 -70 -70t-74 -70q-88 -88 -90 -159q0 -71 50 -111t122 -40t123 41q52 41 77 105l25 6l225 -70l2 -26q-108 -309 -475 -309q-211 0 -348 97t-137 253zM543 678
q-82 0 -139 56q-56 56 -56 138t56 140t138 57q82 0 140 -57q57 -58 57 -140t-57 -138t-139 -56z" />
    <glyph glyph-name="Agrave" unicode="&#xc0;" 
d="M770 913l-188 -458h372zM1354 -25q-106 0 -168 56q-70 55 -137 202h-562q-68 -147 -137 -202q-62 -55 -160 -55t-167 42l-13 23l45 223l21 10q20 -14 47 -14q54 0 102 117l414 954h260l434 -954q35 -74 58 -95q45 -41 92 -8l20 -10l45 -223l-12 -23q-76 -43 -182 -43z
M899 1450h-22l-488 201v22l119 193h22l439 -275v-22z" />
    <glyph glyph-name="Aacute" unicode="&#xc1;" 
d="M770 913l-188 -458h372zM1354 -25q-106 0 -168 56q-70 55 -137 202h-562q-68 -147 -137 -202q-62 -55 -160 -55t-167 42l-13 23l45 223l21 10q20 -14 47 -14q54 0 102 117l414 954h260l434 -954q35 -74 58 -95q45 -41 92 -8l20 -10l45 -223l-12 -23q-76 -43 -182 -43z
M662 1450h-23l-70 119v22l439 275h22l119 -193v-22z" />
    <glyph glyph-name="Acircumflex" unicode="&#xc2;" 
d="M770 913l-188 -458h372zM1354 -25q-106 0 -168 56q-70 55 -137 202h-562q-68 -147 -137 -202q-62 -55 -160 -55t-167 42l-13 23l45 223l21 10q20 -14 47 -14q54 0 102 117l414 954h260l434 -954q35 -74 58 -95q45 -41 92 -8l20 -10l45 -223l-12 -23q-76 -43 -182 -43z
M475 1444h-22l-78 127v22l379 219h26l379 -219v-22l-76 -127h-22l-293 139z" />
    <glyph glyph-name="Atilde" unicode="&#xc3;" 
d="M770 913l-188 -458h372zM1354 -25q-106 0 -168 56q-70 55 -137 202h-562q-68 -147 -137 -202q-62 -55 -160 -55t-167 42l-13 23l45 223l21 10q20 -14 47 -14q54 0 102 117l414 954h260l434 -954q35 -74 58 -95q45 -41 92 -8l20 -10l45 -223l-12 -23q-76 -43 -182 -43z
M590 1753q68 0 196 -36t160 -36q98 0 131 72h23l92 -156v-22q-72 -115 -246 -115q-57 0 -178 37t-178 37q-98 0 -139 -74h-23l-84 156v22q72 115 246 115z" />
    <glyph glyph-name="Adieresis" unicode="&#xc4;" 
d="M770 913l-188 -458h372zM1354 -25q-106 0 -168 56q-70 55 -137 202h-562q-68 -147 -137 -202q-62 -55 -160 -55t-167 42l-13 23l45 223l21 10q20 -14 47 -14q54 0 102 117l414 954h260l434 -954q35 -74 58 -95q45 -41 92 -8l20 -10l45 -223l-12 -23q-76 -43 -182 -43z
M1006 1450q-76 0 -132 55q-55 55 -55 131t55 131q56 55 132 55t131 -54q55 -56 55 -132t-55 -131t-131 -55zM528 1450q-78 0 -132 55t-54 131t54 131t132 55t134 -54q56 -56 55 -132q1 -76 -55 -131t-134 -55z" />
    <glyph glyph-name="Aring" unicode="&#xc5;" 
d="M770 913l-188 -458h372zM1354 -25q-106 0 -168 56q-70 55 -137 202h-562q-68 -147 -137 -202q-62 -55 -160 -55t-167 42l-13 23l45 223l21 10q20 -14 47 -14q54 0 102 117l414 954h260l434 -954q35 -74 58 -95q45 -41 92 -8l20 -10l45 -223l-12 -23q-76 -43 -182 -43z
M852 1690q0 36 -24 60t-59 24q-33 0 -57 -25t-24 -59t24 -60q24 -24 58 -24t58 24t24 60zM770 1440q-104 0 -179 72t-75 178q0 104 75 177t179 73t179 -74q75 -72 75 -176t-75 -177t-179 -73z" />
    <glyph glyph-name="AE" unicode="&#xc6;" horiz-adv-x="2074" 
d="M1047 455v491l-365 -491h365zM1989 1069h-621v-276h469v-250h-469v-281h621v-262h-942v233h-529l-172 -233h-383l983 1331h1043v-262z" />
    <glyph glyph-name="Ccedilla" unicode="&#xc7;" horiz-adv-x="1396" 
d="M795 1067q-170 0 -284 -113.5t-114 -287.5t114 -288t284 -114q205 0 335 158h23l197 -164v-22q-184 -227 -486 -256l-28 -64l2 -4q27 10 57 10q78 0 127 -53t49 -146t-79 -158t-206 -65q-193 0 -299 103v22l78 101h23q74 -66 166 -66q41 0 68.5 18.5t27.5 47.5
q0 61 -86 61q-47 0 -90 -18l-72 45l80 170q-268 37 -440 226t-172 470t208.5 478.5t516.5 197.5q168 0 313 -69.5t242 -190.5v-23l-197 -164h-23q-130 158 -335 158z" />
    <glyph glyph-name="Egrave" unicode="&#xc8;" horiz-adv-x="1202" 
d="M1118 1069h-649v-276h498v-250h-498v-281h649v-262h-968v1331h968v-262zM485 1866l439 -275v-22l-70 -119h-23l-487 201v22l119 193h22z" />
    <glyph glyph-name="Eacute" unicode="&#xc9;" horiz-adv-x="1202" 
d="M1118 1069h-649v-276h498v-250h-498v-281h649v-262h-968v1331h968v-262zM780 1866h23l119 -193v-22l-488 -201h-22l-70 119v22z" />
    <glyph glyph-name="Ecircumflex" unicode="&#xca;" horiz-adv-x="1202" 
d="M1118 1069h-649v-276h498v-250h-498v-281h649v-262h-968v1331h968v-262zM340 1444h-23l-77 127v22l378 219h27l379 -219v-22l-76 -127h-22l-293 139z" />
    <glyph glyph-name="Edieresis" unicode="&#xcb;" horiz-adv-x="1202" 
d="M1118 1069h-649v-276h498v-250h-498v-281h649v-262h-968v1331h968v-262zM870.5 1450q-75.5 0 -131 55.5t-55.5 131t55.5 131t131 55.5t131 -55.5t55.5 -131t-55.5 -131t-131 -55.5zM393 1450q-78 0 -132 55.5t-54 131t54 131t132 55.5t133.5 -55.5t55.5 -131t-55.5 -131
t-133.5 -55.5z" />
    <glyph glyph-name="Igrave" unicode="&#xcc;" horiz-adv-x="929" 
d="M842 1073h-217v-815h217v-258h-756v258h219v815h-219v258h756v-258zM319 1866l439 -275v-22l-70 -119h-22l-488 201v22l119 193h22z" />
    <glyph glyph-name="Iacute" unicode="&#xcd;" horiz-adv-x="929" 
d="M842 1073h-217v-815h217v-258h-756v258h219v815h-219v258h756v-258zM614 1866h23l119 -193v-22l-488 -201h-22l-70 119v22z" />
    <glyph glyph-name="Icircumflex" unicode="&#xce;" horiz-adv-x="929" 
d="M86 1073v258h756v-258h-217v-815h217v-258h-756v258h219v815h-219zM479 1812l379 -219v-22l-76 -127h-22l-293 139l-293 -139h-22l-78 127v22l379 219h26z" />
    <glyph glyph-name="Idieresis" unicode="&#xcf;" horiz-adv-x="929" 
d="M842 1073h-217v-815h217v-258h-756v258h219v815h-219v258h756v-258zM705 1450q-78 0 -133 55q-54 55 -54 131t54 131t132 55t133 -54q54 -56 54 -132t-54 -131t-132 -55zM228 1450q-77 0 -132 55t-55 131t55 131t132 55t132 -54q56 -56 56 -132t-56 -131t-132 -55z" />
    <glyph glyph-name="Eth" unicode="&#xd0;" horiz-adv-x="1540" 
d="M756 262q172 0 278 109t107 295t-105 295t-280 108h-252v-278h317v-250h-317v-279h252zM768 1331q320 0 510 -182t190 -483q0 -302 -190 -484t-510 -182h-584v541h-139v250h139v540h584z" />
    <glyph glyph-name="Ntilde" unicode="&#xd1;" horiz-adv-x="1486" 
d="M1018 1331h319v-1331h-231l-637 795v-795h-319v1331h229l639 -796v796zM561 1753q72 0 204 -36t165 -36q102 0 137 72h23l94 -156v-22q-72 -115 -254 -115q-59 0 -184 37t-185 37q-102 0 -143 -74h-23l-88 156v22q76 115 254 115z" />
    <glyph glyph-name="Ograve" unicode="&#xd2;" horiz-adv-x="1597" 
d="M799 264q171 0 287 114t116 288t-117 288t-287 113q-170 0 -286 -114q-117 -113 -117 -287t117 -288t287 -114zM799 -25q-311 0 -520 197t-209 494q0 298 209 494t520 196t520 -197t209 -493t-209 -493q-209 -198 -520 -198zM651 1866l439 -275v-22l-70 -119h-23
l-487 201v22l119 193h22z" />
    <glyph glyph-name="Oacute" unicode="&#xd3;" horiz-adv-x="1597" 
d="M799 264q171 0 287 114t116 288t-117 288t-287 113q-170 0 -286 -114q-117 -113 -117 -287t117 -288t287 -114zM799 -25q-311 0 -520 197t-209 494q0 298 209 494t520 196t520 -197t209 -493t-209 -493q-209 -198 -520 -198zM946 1866h23l118 -193v-22l-487 -201h-22
l-70 119v22z" />
    <glyph glyph-name="Ocircumflex" unicode="&#xd4;" horiz-adv-x="1597" 
d="M799 264q171 0 287 114t116 288t-117 288t-287 113q-170 0 -286 -114q-117 -113 -117 -287t117 -288t287 -114zM799 1356q311 0 520 -197t209 -493t-209 -493q-209 -198 -520 -198t-520 197t-209 494q0 298 209 494t520 196zM506 1444h-23l-77 127v22l378 219h27
l379 -219v-22l-76 -127h-22l-293 139z" />
    <glyph glyph-name="Otilde" unicode="&#xd5;" horiz-adv-x="1597" 
d="M799 264q171 0 287 114t116 288t-117 288t-287 113q-170 0 -286 -114q-117 -113 -117 -287t117 -288t287 -114zM799 -25q-311 0 -520 197t-209 494q0 298 209 494t520 196t520 -197t209 -493t-209 -493q-209 -198 -520 -198zM614 1753q72 0 204 -36t165 -36q102 0 137 72
h23l94 -156v-22q-72 -115 -254 -115q-59 0 -184 37t-185 37q-102 0 -143 -74h-22l-89 156v22q76 115 254 115z" />
    <glyph glyph-name="Odieresis" unicode="&#xd6;" horiz-adv-x="1597" 
d="M799 264q171 0 287 114t116 288t-117 288t-287 113q-170 0 -286 -114q-117 -113 -117 -287t117 -288t287 -114zM799 -25q-311 0 -520 197t-209 494q0 298 209 494t520 196t520 -197t209 -493t-209 -493q-209 -198 -520 -198zM1036 1450q-78 0 -132 55t-54 131t54 131
t132 55t132 -54q54 -56 54 -132t-54 -131t-132 -55zM560 1450q-77 0 -132 55t-55 131t55 131t132 55t132 -54q56 -56 56 -132t-56 -131t-132 -55z" />
    <glyph glyph-name="multiply" unicode="&#xd7;" horiz-adv-x="1224" 
d="M1139 319l-170 -172l-348 351l-359 -357l-186 187l358 356l-350 348l170 170l348 -348l359 356l186 -186l-359 -356z" />
    <glyph glyph-name="Oslash" unicode="&#xd8;" horiz-adv-x="1597" 
d="M799 264q171 0 287 114t116 288q0 135 -74 237l-417 -631q39 -8 88 -8zM395 666q0 -129 68 -230l416 623q-35 8 -80 8q-170 1 -287 -113t-117 -288zM1528 670q0 -300 -209 -497q-209 -198 -520 -198q-135 0 -258 41l-78 -116h-342l-4 16l168 252q-215 195 -215 495
q0 301 209 497t520 196q129 0 252 -39l88 133h338l4 -16l-174 -263q221 -201 221 -501z" />
    <glyph glyph-name="Ugrave" unicode="&#xd9;" horiz-adv-x="1521" 
d="M793 -25q-279 0 -441 160t-162 443v380q0 113 -55 113q-27 0 -41 -14l-20 10l-45 223l12 23q73 43 197 43t198 -84t74 -244v-465q0 -143 76 -222t207 -79t207 80t77 221v768h314v-753q1 -283 -159 -443t-439 -160zM608 1866l439 -275v-22l-70 -119h-23l-487 201v22
l119 193h22z" />
    <glyph glyph-name="Uacute" unicode="&#xda;" horiz-adv-x="1521" 
d="M793 -25q-279 0 -441 160t-162 443v380q0 113 -55 113q-27 0 -41 -14l-20 10l-45 223l12 23q73 43 197 43t198 -84t74 -244v-465q0 -143 76 -222t207 -79t207 80t77 221v768h314v-753q1 -283 -159 -443t-439 -160zM903 1866h23l118 -193v-22l-487 -201h-22l-70 119v22z
" />
    <glyph glyph-name="Ucircumflex" unicode="&#xdb;" horiz-adv-x="1521" 
d="M1077 1331h314v-753q0 -283 -160 -443q-161 -160 -439 -160t-440 160t-162 443v380q0 113 -55 113q-27 0 -41 -14l-20 10l-45 223l12 23q73 43 197 43t198 -84t74 -244v-465q0 -143 76 -222t207 -79t207 80t77 221v768zM463 1444h-23l-78 127v22l379 219h27l379 -219v-22
l-76 -127h-22l-293 139z" />
    <glyph glyph-name="Udieresis" unicode="&#xdc;" horiz-adv-x="1521" 
d="M793 -25q-279 0 -441 160t-162 443v380q0 113 -55 113q-27 0 -41 -14l-20 10l-45 223l12 23q73 43 197 43t198 -84t74 -244v-465q0 -143 76 -222t207 -79t207 80t77 221v768h314v-753q1 -283 -159 -443t-439 -160zM993 1450q-76 0 -131 55t-55 131t55 131t131 55t131 -54
q56 -56 56 -132t-56 -131t-131 -55zM516 1450q-78 0 -132 55t-54 131t54 131t132 55t133 -54q55 -56 55 -132t-54 -131q-56 -55 -134 -55z" />
    <glyph glyph-name="Yacute" unicode="&#xdd;" horiz-adv-x="1466" 
d="M1321 1071q-68 0 -129 -96l-295 -477v-498h-319v492l-306 483q-61 96 -129 96q-25 0 -59 -14l-21 10l-55 217l8 23q62 49 168 49t184 -56t152 -178l219 -350l213 350q70 119 146 176q76 58 186 58t164 -49l10 -23l-57 -217l-21 -10q-37 14 -59 14zM541 1450h-23l-69 119
v22l438 275h22l119 -193v-22z" />
    <glyph glyph-name="Thorn" unicode="&#xde;" horiz-adv-x="1296" 
d="M741 485q85 -1 135 49t50 132t-54 131t-131 49h-272v-361h272zM737 1110q248 0 382 -117t134 -321t-134 -320q-134 -117 -382 -114h-268v-238h-319v1331h319v-221h268z" />
    <glyph glyph-name="germandbls" unicode="&#xdf;" horiz-adv-x="1263" 
d="M756 -25q-133 0 -230 54l-10 22l70 199l22 6q34 -25 108 -25q74 -1 128 49t55 132q0 82 -61 133t-166 51h-86v192h45q69 0 115 46t46 116t-48 114t-129 44t-128 -53t-47 -137v-918h-317v934q0 194 137 308q138 114 354 114t344 -98t127 -263q0 -166 -141 -256
q127 -41 195 -136t67 -224q0 -182 -128 -293t-322 -111z" />
    <glyph glyph-name="agrave" unicode="&#xe0;" horiz-adv-x="1345" 
d="M383 512q-1 -114 69 -190t180 -76t180 72t71 194q0 121 -71 194q-70 72 -180 72t-180 -76t-69 -190zM1141 -25q-162 0 -221 138q-144 -137 -356 -137t-357 154q-145 155 -146 382t145 382t356 155t356 -136v111h260v-696q0 -76 45 -76q14 0 30 10l21 -10l37 -211l-11 -23
q-74 -43 -159 -43zM844 1139h-17l-440 268v16l148 181h16l389 -336v-17z" />
    <glyph glyph-name="aacute" unicode="&#xe1;" horiz-adv-x="1345" 
d="M383 512q-1 -114 69 -190t180 -76t180 72t71 194q0 121 -71 194q-70 72 -180 72t-180 -76t-69 -190zM1141 -25q-162 0 -221 138q-144 -137 -356 -137t-357 154q-145 155 -146 382t145 382t356 155t356 -136v111h260v-696q0 -76 45 -76q14 0 30 10l21 -10l37 -211l-11 -23
q-74 -43 -159 -43zM498 1139h-17l-94 112v17l387 336h19l147 -181v-16z" />
    <glyph glyph-name="acircumflex" unicode="&#xe2;" horiz-adv-x="1345" 
d="M383 512q-1 -114 69 -190t180 -76t180 72t71 194q0 121 -71 194q-70 72 -180 72t-180 -76t-69 -190zM1141 -25q-162 0 -221 138q-144 -137 -356 -137t-357 154q-145 155 -146 382t145 382t356 155t356 -136v111h260v-696q0 -76 45 -76q14 0 30 10l21 -10l37 -211l-11 -23
q-74 -43 -159 -43zM412 1139h-17l-108 133v16l360 209h33l362 -209v-16l-110 -133h-17l-251 123z" />
    <glyph glyph-name="atilde" unicode="&#xe3;" horiz-adv-x="1345" 
d="M383 512q-1 -114 69 -190t180 -76t180 72t71 194q0 121 -71 194q-70 72 -180 72t-180 -76t-69 -190zM1141 -25q-162 0 -221 138q-144 -137 -356 -137t-357 154q-145 155 -146 382t145 382t356 155t356 -136v111h260v-696q0 -76 45 -76q14 0 30 10l21 -10l37 -211l-11 -23
q-74 -43 -159 -43zM481 1434q57 0 166 -36t156 -36q94 0 127 72h20l113 -150v-22q-90 -109 -219 -109q-56 0 -160 36t-160 36q-96 0 -129 -72h-20l-111 150v22q90 109 217 109z" />
    <glyph glyph-name="adieresis" unicode="&#xe4;" horiz-adv-x="1345" 
d="M383 512q-1 -114 69 -190t180 -76t180 72t71 194q0 121 -71 194q-70 72 -180 72t-180 -76t-69 -190zM1141 -25q-162 0 -221 138q-144 -137 -356 -137t-357 154q-145 155 -146 382t145 382t356 155t356 -136v111h260v-696q0 -76 45 -76q14 0 30 10l21 -10l37 -211l-11 -23
q-74 -43 -159 -43zM887 1135q-74 0 -126 52t-52 126t52 126t126 52t125 -52t51 -126t-51 -126t-125 -52zM440 1135q-74 0 -126 52t-52 126t52 126t126 52t126 -52t52 -126t-52 -126t-126 -52z" />
    <glyph glyph-name="aring" unicode="&#xe5;" horiz-adv-x="1345" 
d="M383 512q-1 -114 69 -190t180 -76t180 72t71 194q0 121 -71 194q-70 72 -180 72t-180 -76t-69 -190zM1141 -25q-162 0 -221 138q-144 -137 -356 -137t-357 154q-145 155 -146 382t145 382t356 155t356 -136v111h260v-696q0 -76 45 -76q14 0 30 10l21 -10l37 -211l-11 -23
q-74 -43 -159 -43zM665 1290q37 0 59 24t22 58t-23 56q-22 24 -58 24t-59 -24q-22 -24 -22 -58t22 -56q22 -24 59 -24zM664 1120q-109 0 -185 74t-76 178t76 178t186 74q109 0 185 -74t76 -178t-76 -178t-186 -74z" />
    <glyph glyph-name="ae" unicode="&#xe6;" horiz-adv-x="1900" 
d="M561 455q-92 0 -145.5 -38t-53.5 -103t50.5 -101.5t128 -36.5t139 49t63.5 125v70q-90 35 -182 35zM1300.5 825q-102.5 0 -169 -61.5t-74.5 -165.5h485q-8 106 -73.5 166.5t-168 60.5zM1348 209q182 0 284 113h23l143 -138v-22q-80 -94 -206 -140.5t-259 -46.5
q-279 0 -446 175q-74 -80 -183.5 -127.5t-220.5 -47.5q-193 0 -312.5 90.5t-119.5 249t130 241.5t343 83q109 0 219 -37v45q0 80 -62.5 128t-150.5 48q-147 0 -254 -98h-22l-141 135v23q176 166 431 166t392 -123q150 123 379.5 123t379.5 -148.5t150 -382.5q0 -43 -6 -84
h-780q12 -111 93 -168t196 -57z" />
    <glyph glyph-name="ccedilla" unicode="&#xe7;" horiz-adv-x="1095" 
d="M646 778q-122 0 -192.5 -74.5t-70.5 -191.5t70.5 -191.5t194.5 -74.5t202 94h24l177 -162v-22q-137 -154 -353 -176l-28 -64l2 -4q27 10 57 10q78 0 127 -53t49 -146t-78.5 -158t-205.5 -65q-193 0 -299 103v22l77 101h23q74 -66 166 -66q41 0 68.5 18.5t27.5 47.5
q0 61 -86 61q-47 0 -90 -18l-72 45l80 172q-205 35 -330 179t-125 362t161 370t415 152q119 0 229.5 -49.5t184.5 -131.5v-22l-177 -162h-24q-82 94 -204 94z" />
    <glyph glyph-name="egrave" unicode="&#xe8;" horiz-adv-x="1210" 
d="M610.5 825q-102.5 0 -169 -61.5t-74.5 -165.5h485q-8 106 -73.5 166.5t-168 60.5zM657 209q182 0 285 113h23l143 -138v-22q-80 -94 -206 -140.5t-259 -46.5q-244 0 -413 141.5t-169 386.5t153 395.5t396.5 150.5t394 -148.5t150.5 -382.5q0 -43 -6 -84h-780
q12 -111 93 -168t195 -57zM797 1139h-17l-440 268v16l147 181h17l389 -336v-17z" />
    <glyph glyph-name="eacute" unicode="&#xe9;" horiz-adv-x="1210" 
d="M610.5 825q-102.5 0 -169 -61.5t-74.5 -165.5h485q-8 106 -73.5 166.5t-168 60.5zM657 209q182 0 285 113h23l143 -138v-22q-80 -94 -206 -140.5t-259 -46.5q-244 0 -413 141.5t-169 386.5t153 395.5t396.5 150.5t394 -148.5t150.5 -382.5q0 -43 -6 -84h-780
q12 -111 93 -168t195 -57zM451 1139h-17l-94 112v17l387 336h18l148 -181v-16z" />
    <glyph glyph-name="ecircumflex" unicode="&#xea;" horiz-adv-x="1210" 
d="M610.5 825q-102.5 0 -169 -61.5t-74.5 -165.5h485q-8 106 -73.5 166.5t-168 60.5zM657 209q182 0 285 113h23l143 -138v-22q-80 -94 -206 -140.5t-259 -46.5q-244 0 -413 141.5t-169 386.5t153 395.5t396.5 150.5t394 -148.5t150.5 -382.5q0 -43 -6 -84h-780
q12 -111 93 -168t195 -57zM365 1139h-17l-108 133v16l360 209h33l362 -209v-16l-110 -133h-17l-252 123z" />
    <glyph glyph-name="edieresis" unicode="&#xeb;" horiz-adv-x="1210" 
d="M610.5 825q-102.5 0 -169 -61.5t-74.5 -165.5h485q-8 106 -73.5 166.5t-168 60.5zM657 209q182 0 285 113h23l143 -138v-22q-80 -94 -206 -140.5t-259 -46.5q-244 0 -413 141.5t-169 386.5t153 395.5t396.5 150.5t394 -148.5t150.5 -382.5q0 -43 -6 -84h-780
q12 -111 93 -168t195 -57zM839.5 1135q-73.5 0 -125.5 52t-52 125.5t52 126t125.5 52.5t125 -52.5t51.5 -126t-51.5 -125.5t-125 -52zM393 1135q-74 0 -126 52t-52 125.5t52 126t126 52.5t126 -52.5t52 -126t-52 -125.5t-126 -52z" />
    <glyph glyph-name="igrave" unicode="&#xec;" horiz-adv-x="600" 
d="M391 -25q-131 0 -203 78t-71 221v750h315v-696q0 -76 47 -76q18 0 29 10l20 -10l39 -211l-12 -23q-74 -43 -164 -43zM162 1604l389 -336v-17l-96 -112h-17l-440 268v16l147 181h17z" />
    <glyph glyph-name="iacute" unicode="&#xed;" horiz-adv-x="600" 
d="M391 -25q-131 0 -203 78t-71 221v750h315v-696q0 -76 47 -76q18 0 29 10l20 -10l39 -211l-12 -23q-74 -43 -164 -43zM385 1604h18l148 -181v-16l-442 -268h-17l-94 112v17z" />
    <glyph glyph-name="icircumflex" unicode="&#xee;" horiz-adv-x="600" 
d="M391 -25q-131 0 -203 78t-71 221v750h315v-696q0 -76 47 -76q19 0 29 10l20 -10l39 -211l-12 -23q-74 -43 -164 -43zM291 1497l362 -209v-16l-110 -133h-17l-252 123l-251 -123h-17l-108 133v16l360 209h33z" />
    <glyph glyph-name="idieresis" unicode="&#xef;" horiz-adv-x="600" 
d="M391 -25q-131 0 -203 78t-71 221v750h315v-696q0 -76 47 -76q18 0 29 10l20 -10l39 -211l-12 -23q-74 -43 -164 -43zM498 1135q-74 0 -126 52t-53 126q1 74 53 126t126 52t125 -52t51 -126t-51 -126t-125 -52zM51 1135q-74 0 -126 52t-52 126t52 126t126 52t126 -52
t52 -126t-52 -126t-126 -52z" />
    <glyph glyph-name="eth" unicode="&#xf0;" horiz-adv-x="1189" 
d="M591 219q101 0 166 65t64 165q1 99 -65 165t-166 66t-167 -66t-67 -164t67 -165q67 -66 168 -66zM45 450q0 208 144 341t352 133q68 0 133 -15q-43 57 -92 117l-224 -80l-20 17v153l119 43q-66 66 -95 88v23l189 162h22q86 -88 160 -172l250 90l23 -15v-155l-156 -58
q285 -356 283 -647q0 -221 -151 -360q-150 -139 -392 -139t-394 132q-152 134 -151 342z" />
    <glyph glyph-name="ntilde" unicode="&#xf1;" horiz-adv-x="1341" 
d="M1117.5 -25q-113.5 0 -183.5 72t-70 213v324q0 88 -49 142t-137 54t-140.5 -54t-52.5 -142v-584h-317v696q0 76 -45 76q-20 0 -31 -10l-20 10l-39 211l12 23q74 43 158 43q150 0 215 -115q139 115 333 115t312.5 -121t118.5 -322v-278q0 -76 45 -76q20 0 30 10l21 -10
l39 -211l-12 -23q-74 -43 -187.5 -43zM475 1434q57 0 166 -36t156 -36q94 0 127 72h20l113 -150v-22q-90 -109 -219 -109q-57 0 -161 36t-159 36q-96 0 -129 -72h-20l-111 150v22q90 109 217 109z" />
    <glyph glyph-name="ograve" unicode="&#xf2;" horiz-adv-x="1271" 
d="M637 246q113 0 183.5 74.5t70.5 191.5t-70.5 191.5t-183.5 74.5t-183.5 -74.5t-70.5 -191.5t70.5 -191.5t183.5 -74.5zM637 -25q-254 0 -415 152t-161 385t161 385t415 152t414.5 -152t160.5 -385t-160.5 -385t-414.5 -152zM524 1604l389 -336v-17l-96 -112h-16l-441 268
v16l148 181h16z" />
    <glyph glyph-name="oacute" unicode="&#xf3;" horiz-adv-x="1271" 
d="M637 246q113 0 183.5 74.5t70.5 191.5t-70.5 191.5t-183.5 74.5t-183.5 -74.5t-70.5 -191.5t70.5 -191.5t183.5 -74.5zM637 -25q-254 0 -415 152t-161 385t161 385t415 152t414.5 -152t160.5 -385t-160.5 -385t-414.5 -152zM748 1604h18l147 -181v-16l-442 -268h-16
l-95 112v17z" />
    <glyph glyph-name="ocircumflex" unicode="&#xf4;" horiz-adv-x="1271" 
d="M637 246q113 0 183.5 74.5t70.5 191.5t-70.5 191.5t-183.5 74.5t-183.5 -74.5t-70.5 -191.5t70.5 -191.5t183.5 -74.5zM637 1049q254 0 414.5 -152t160.5 -385t-160.5 -385t-414.5 -152t-415 152t-161 385t161 385t415 152zM385 1139h-16l-109 133v16l361 209h32
l363 -209v-16l-111 -133h-16l-252 123z" />
    <glyph glyph-name="otilde" unicode="&#xf5;" horiz-adv-x="1271" 
d="M637 246q113 0 183.5 74.5t70.5 191.5t-70.5 191.5t-183.5 74.5t-183.5 -74.5t-70.5 -191.5t70.5 -191.5t183.5 -74.5zM637 -25q-254 0 -415 152t-161 385t161 385t415 152t414.5 -152t160.5 -385t-160.5 -385t-414.5 -152zM455 1434q57 0 165.5 -36t155.5 -36
q94 0 127 72h21l112 -150v-22q-90 -109 -219 -109q-57 0 -160.5 36t-158.5 36q-96 0 -129 -72h-21l-110 150v22q90 109 217 109z" />
    <glyph glyph-name="odieresis" unicode="&#xf6;" horiz-adv-x="1271" 
d="M637 246q113 0 183.5 74.5t70.5 191.5t-70.5 191.5t-183.5 74.5t-183.5 -74.5t-70.5 -191.5t70.5 -191.5t183.5 -74.5zM637 -25q-254 0 -415 152t-161 385t161 385t415 152t414.5 -152t160.5 -385t-160.5 -385t-414.5 -152zM860 1135q-74 0 -126 52t-52 125.5t52 126
t126 52.5t125 -52.5t51 -126t-51 -125.5t-125 -52zM413.5 1135q-73.5 0 -125.5 52t-52 125.5t52 126t125.5 52.5t126 -52.5t52.5 -126t-52.5 -125.5t-126 -52z" />
    <glyph glyph-name="divide" unicode="&#xf7;" horiz-adv-x="1144" 
d="M589 29q-77 0 -129 52t-52 129t52 130t128 53t130 -53t54 -130t-53 -129t-130 -52zM78 717h991v-217h-991v217zM589 850q-77 0 -129 52t-52 129t52 130t128 53t130 -54t54 -130t-53 -128t-130 -52z" />
    <glyph glyph-name="oslash" unicode="&#xf8;" horiz-adv-x="1271" 
d="M637 246q113 0 183.5 74.5t70.5 191.5q0 59 -19 109l-262 -373q9 -2 27 -2zM383 512q0 -63 20 -111l263 375q-10 2 -29 2q-113 0 -183.5 -74.5t-70.5 -191.5zM637 -25q-100 0 -197 27l-67 -96h-287l-14 20l143 207q-154 150 -154 381t161 383t415 152q102 0 199 -29
l86 125h286l15 -21l-164 -235q154 -147 153.5 -378.5t-161 -383.5t-414.5 -152z" />
    <glyph glyph-name="ugrave" unicode="&#xf9;" horiz-adv-x="1323" 
d="M1114 -25q-141 0 -207 115q-135 -115 -301 -115q-210 0 -328 118t-118 317v286q0 76 -47 76q-18 0 -29 -10l-21 10l-38 211l12 23q74 43 168 43q270 0 270 -283v-334q0 -88 48 -138t130 -50t133 54t52 140v586h317v-696q0 -76 47 -76q18 0 29 10l20 -10l37 -211l-10 -23
q-74 -43 -164 -43zM834 1137h-17l-440 268v16l147 181h17l389 -336v-17z" />
    <glyph glyph-name="uacute" unicode="&#xfa;" horiz-adv-x="1323" 
d="M1114 -25q-141 0 -207 115q-135 -115 -301 -115q-210 0 -328 118t-118 317v286q0 76 -47 76q-18 0 -29 -10l-21 10l-38 211l12 23q74 43 168 43q270 0 270 -283v-334q0 -88 48 -138t130 -50t133 54t52 140v586h317v-696q0 -76 47 -76q18 0 29 10l20 -10l37 -211l-10 -23
q-74 -43 -164 -43zM487 1137h-16l-94 112v17l387 336h18l148 -181v-16z" />
    <glyph glyph-name="ucircumflex" unicode="&#xfb;" horiz-adv-x="1323" 
d="M1114 -25q-141 0 -207 115q-135 -115 -301 -115q-210 0 -328 118t-118 317v286q0 76 -47 76q-18 0 -29 -10l-21 10l-38 211l12 23q74 43 168 43q270 0 270 -283v-334q0 -88 48 -138t130 -50t133 54t52 140v586h317v-696q0 -76 47 -76q18 0 29 10l20 -10l37 -211l-10 -23
q-74 -43 -164 -43zM401 1137h-16l-109 133v16l361 209h33l362 -209v-16l-110 -133h-17l-252 123z" />
    <glyph glyph-name="udieresis" unicode="&#xfc;" horiz-adv-x="1323" 
d="M1114 -25q-141 0 -207 115q-135 -115 -301 -115q-210 0 -328 118t-118 317v286q0 76 -47 76q-18 0 -29 -10l-21 10l-38 211l12 23q74 43 168 43q270 0 270 -283v-334q0 -88 48 -138t130 -50t133 54t52 140v586h317v-696q0 -76 47 -76q18 0 29 10l20 -10l37 -211l-10 -23
q-74 -43 -164 -43zM877 1133q-74 0 -126 52t-53 126q0 74 52 126t127 52t125 -52t50 -126t-50 -126q-51 -52 -125 -52zM430 1133q-74 0 -126 52t-52 126t52 126t126 52t126 -52t52 -126t-52 -126t-126 -52z" />
    <glyph glyph-name="yacute" unicode="&#xfd;" horiz-adv-x="1261" 
d="M834 1024h309v-829q0 -246 -160 -378t-412 -132q-307 0 -481 194v21l131 163h23q57 -67 145 -107q87 -40 193 -40t183 57t77 166v54q-100 -105 -268 -105t-294 103t-126 305v200q0 76 -45 76q-20 0 -31 -10l-21 10l-37 211l11 23q74 43 168 43q264 0 264 -283v-227
q0 -83 48 -135t133 -52t137 56t53 143v473zM434 1139h-16l-94 112v17l387 336h18l148 -181v-16z" />
    <glyph glyph-name="thorn" unicode="&#xfe;" horiz-adv-x="1323" 
d="M440 512q0 -122 70 -194t179 -72t179 76t70 190t-70 190t-180 76t-178 -72q-70 -72 -70 -194zM745 1049q225 0 371 -154t146 -382t-146 -383t-371 -155q-156 0 -282 88v-370h-316v1311q0 76 -47 75q-16 0 -30 -10l-19 10l-39 211l13 23q70 43 170 43q99 0 167 -66
t68 -192v-162q135 113 315 113z" />
    <glyph glyph-name="ydieresis" unicode="&#xff;" horiz-adv-x="1261" 
d="M834 1024h309v-829q0 -246 -160 -378t-412 -132q-307 0 -481 194v21l131 163h23q57 -67 145 -107q87 -40 193 -40t183 57t77 166v54q-100 -105 -268 -105t-294 103t-126 305v200q0 76 -45 76q-20 0 -31 -10l-21 10l-37 211l11 23q74 43 168 43q264 0 264 -283v-227
q0 -83 48 -135t133 -52t137 56t53 143v473zM823 1135q-74 0 -126 52t-52 126t52 126t126 52t125 -52t51 -126t-51 -126t-125 -52zM377 1135q-74 0 -126 52t-52 126t52 126t126 52t126 -52t52 -126t-52 -126t-126 -52z" />
    <glyph glyph-name="Amacron" unicode="&#x100;" 
d="M770 913l-188 -458h372zM1354 -25q-106 0 -168 56q-70 55 -137 202h-562q-68 -147 -137 -202q-62 -55 -160 -55t-167 42l-13 23l45 223l21 10q20 -14 47 -14q54 0 102 117l414 954h260l434 -954q35 -74 58 -95q45 -41 92 -8l20 -10l45 -223l-12 -23q-76 -43 -182 -43z
M1118 1681v-202h-698v202h698z" />
    <glyph glyph-name="amacron" unicode="&#x101;" horiz-adv-x="1345" 
d="M383 512q-1 -114 69 -190t180 -76t180 72t71 194q0 121 -71 194q-70 72 -180 72t-180 -76t-69 -190zM1141 -25q-162 0 -221 138q-144 -137 -356 -137t-357 154q-145 155 -146 382t145 382t356 155t356 -136v111h260v-696q0 -76 45 -76q14 0 30 10l21 -10l37 -211l-11 -23
q-74 -43 -159 -43zM1001 1358v-193h-677v193h677z" />
    <glyph glyph-name="Abreve" unicode="&#x102;" 
d="M770 913l-188 -458h372zM1354 -25q-106 0 -168 56q-70 55 -137 202h-562q-68 -147 -137 -202q-62 -55 -160 -55t-167 42l-13 23l45 223l21 10q20 -14 47 -14q54 0 102 117l414 954h260l434 -954q35 -74 58 -95q45 -41 92 -8l20 -10l45 -223l-12 -23q-76 -43 -182 -43z
M770 1446q-145 0 -248 95q-102 95 -119 245h199q12 -74 57 -118t111 -44t111 44t57 118h199q-16 -150 -119 -245t-248 -95z" />
    <glyph glyph-name="abreve" unicode="&#x103;" horiz-adv-x="1345" 
d="M383 512q-1 -114 69 -190t180 -76t180 72t71 194q0 121 -71 194q-70 72 -180 72t-180 -76t-69 -190zM1141 -25q-162 0 -221 138q-144 -137 -356 -137t-357 154q-145 155 -146 382t145 382t356 155t356 -136v111h260v-696q0 -76 45 -76q14 0 30 10l21 -10l37 -211l-11 -23
q-74 -43 -159 -43zM664 1139q-147 0 -248 95q-100 95 -117 245h197q12 -72 58 -118t110 -46t110 45q47 45 60 119h196q-16 -150 -118 -245t-248 -95z" />
    <glyph glyph-name="Aogonek" unicode="&#x104;" 
d="M770 913l-188 -458h372zM123 260q54 0 102 117l414 954h260l434 -954q35 -74 58 -95q45 -41 92 -8l20 -10l45 -223l-12 -23l-64 -43q-142 -95 -164 -132t-22 -71t25 -59t69 -25t86 38h23l78 -109v-23q-84 -80 -216 -80t-212 68q-80 66 -80 174q0 50 32 100q31 50 65 78
t85 64q-102 37 -192 235h-562q-68 -147 -137 -202q-62 -55 -160 -55t-167 42l-13 23l45 223l21 10q20 -14 47 -14z" />
    <glyph glyph-name="aogonek" unicode="&#x105;" horiz-adv-x="1345" 
d="M383 512q-1 -114 69 -190t180 -76t180 72t71 194q0 121 -71 194q-70 72 -180 72t-180 -76t-69 -190zM823 -244q0 52 35 104t70 81t88 65q-66 35 -96 107q-144 -137 -356 -137t-357 154q-145 155 -146 382t145 382t356 155t356 -136v111h260v-696q0 -76 45 -76q14 0 30 10
l21 -10l37 -211l-11 -23q-145 -97 -197 -141q-52 -45 -52 -92q1 -47 25 -72t68 -25t87 38h22l78 -109v-23q-84 -80 -216 -80t-212 68q-80 66 -80 174z" />
    <glyph glyph-name="Cacute" unicode="&#x106;" horiz-adv-x="1396" 
d="M397 666q0 -174 114 -288t284 -114q205 0 335 158h23l197 -164v-22q-96 -121 -241.5 -191t-313.5 -70q-307 0 -516 198t-209 493t208.5 492.5t516.5 197.5q168 0 313 -69.5t242 -190.5v-23l-197 -164h-23q-131 158 -335 158q-170 0 -284 -113.5t-114 -287.5zM942 1866h23
l118 -193v-22l-487 -201h-23l-69 119v22z" />
    <glyph glyph-name="cacute" unicode="&#x107;" horiz-adv-x="1095" 
d="M61 512q0 233 161 385t415 152q119 0 229.5 -49.5t184.5 -131.5v-22l-177 -162h-24q-82 94 -204 94t-192.5 -74.5t-70.5 -191.5t70.5 -191.5t194.5 -74.5t202 94h24l177 -162v-22q-74 -82 -184.5 -131.5t-229.5 -49.5q-254 0 -415 152t-161 385zM735 1604h19l147 -181
v-16l-442 -268h-17l-94 112v17z" />
    <glyph glyph-name="Cdotaccent" unicode="&#x10a;" horiz-adv-x="1396" 
d="M397 666q0 -174 114 -288t284 -114q205 0 335 158h23l197 -164v-22q-96 -121 -241.5 -191t-313.5 -70q-307 0 -516 198t-209 493t208.5 492.5t516.5 197.5q168 0 313 -69.5t242 -190.5v-23l-197 -164h-23q-131 158 -335 158q-170 0 -284 -113.5t-114 -287.5zM794 1448
q-79 0 -136.5 57.5t-57.5 136t57.5 137t136.5 58.5t137 -58.5t58 -138t-58 -136t-137 -56.5z" />
    <glyph glyph-name="cdotaccent" unicode="&#x10b;" horiz-adv-x="1095" 
d="M61 512q0 233 161 385t415 152q119 0 229.5 -49.5t184.5 -131.5v-22l-177 -162h-24q-82 94 -204 94t-192.5 -74.5t-70.5 -191.5t70.5 -191.5t194.5 -74.5t202 94h24l177 -162v-22q-74 -82 -184.5 -131.5t-229.5 -49.5q-254 0 -415 152t-161 385zM625 1139
q-82 0 -138.5 56t-56.5 138t56.5 139.5t138.5 57.5t139 -57.5t57 -139.5t-57 -138t-139 -56z" />
    <glyph glyph-name="Ccaron" unicode="&#x10c;" horiz-adv-x="1396" 
d="M795 1067q-170 0 -284 -113.5t-114 -287.5t114 -288t284 -114q205 0 335 158h23l197 -164v-22q-96 -121 -241.5 -191t-313.5 -70q-307 0 -516 198t-209 493t208.5 492.5t516.5 197.5q168 0 313 -69.5t242 -190.5v-23l-197 -164h-23q-130 158 -335 158zM809 1450h-27
l-379 219v23l78 127h23l293 -140l293 140h22l76 -127v-23z" />
    <glyph glyph-name="ccaron" unicode="&#x10d;" horiz-adv-x="1095" 
d="M646 778q-122 0 -192.5 -74.5t-70.5 -191.5t70.5 -191.5t194.5 -74.5t202 94h24l177 -162v-22q-74 -82 -184.5 -131.5t-229.5 -49.5q-254 0 -415 152t-161 385t161 385t415 152q119 0 229.5 -49.5t184.5 -131.5v-22l-177 -162h-24q-82 94 -204 94zM641 1139h-33l-360 209
v16l108 133h17l252 -123l252 123h16l111 -133v-16z" />
    <glyph glyph-name="Dcaron" unicode="&#x10e;" horiz-adv-x="1505" 
d="M721 262q174 0 279 109t106 295q0 186 -106 295t-279 108h-252v-807h252zM733 1331q319 0 509 -182t192 -483q0 -302 -190 -484t-511 -182h-583v1331h583zM674 1450h-27l-379 219v23l78 127h23l293 -140l292 140h23l76 -127v-23z" />
    <glyph glyph-name="dcaron" unicode="&#x10f;" horiz-adv-x="1472" 
d="M632.5 246q110.5 0 180.5 71.5t70 194.5t-70 194.5t-180.5 71.5t-180 -75.5t-69.5 -190.5t69.5 -190.5t180 -75.5zM1137 -25q-154 0 -213 131q-141 -131 -356.5 -131t-361 155t-145.5 383t144.5 382t369.5 154q154 0 285 -91v400l293 37l25 -15v-1052q0 -76 47 -76
q18 0 28 10l21 -10l37 -211l-11 -23q-74 -43 -163 -43zM1614 1454l14 -16l-141 -410l-21 -16h-155l-15 16l62 410l18 16h238z" />
    <glyph glyph-name="Dcroat" unicode="&#x110;" horiz-adv-x="1540" 
d="M756 262q172 0 278 109t107 295t-105 295t-280 108h-252v-278h317v-250h-317v-279h252zM768 1331q320 0 510 -182t190 -483q0 -302 -190 -484t-510 -182h-584v541h-139v250h139v540h584z" />
    <glyph glyph-name="dcroat" unicode="&#x111;" horiz-adv-x="1345" 
d="M632.5 246q110.5 0 180.5 71.5t70 194.5t-70 194.5t-180.5 71.5t-180 -75.5t-69.5 -190.5t69.5 -190.5t180 -75.5zM1321 1120h-143v-792q0 -76 47 -76q18 0 28 10l21 -10l37 -211l-11 -23q-74 -43 -163 -43q-154 0 -213 131q-140 -131 -356 -131t-361.5 155t-145.5 383
t144.5 382t369.5 154q154 0 285 -91v162h-287v164h287v115l293 37l25 -15v-137h143v-164z" />
    <glyph glyph-name="Emacron" unicode="&#x112;" horiz-adv-x="1202" 
d="M1118 1069h-649v-276h498v-250h-498v-281h649v-262h-968v1331h968v-262zM285 1681h698v-202h-698v202z" />
    <glyph glyph-name="emacron" unicode="&#x113;" horiz-adv-x="1210" 
d="M610.5 825q-102.5 0 -169 -61.5t-74.5 -165.5h485q-8 106 -73.5 166.5t-168 60.5zM657 209q182 0 285 113h23l143 -138v-22q-80 -94 -206 -140.5t-259 -46.5q-244 0 -413 141.5t-169 386.5t153 395.5t396.5 150.5t394 -148.5t150.5 -382.5q0 -43 -6 -84h-780
q12 -111 93 -168t195 -57zM954 1358v-193h-678v193h678z" />
    <glyph glyph-name="Edotaccent" unicode="&#x116;" horiz-adv-x="1202" 
d="M1118 1069h-649v-276h498v-250h-498v-281h649v-262h-968v1331h968v-262zM632 1448q-79 0 -136.5 57.5t-57.5 136t57.5 137t136.5 58.5t137 -58.5t58 -138t-58 -136t-137 -56.5z" />
    <glyph glyph-name="edotaccent" unicode="&#x117;" horiz-adv-x="1210" 
d="M610.5 825q-102.5 0 -169 -61.5t-74.5 -165.5h485q-8 106 -73.5 166.5t-168 60.5zM657 209q182 0 285 113h23l143 -138v-22q-80 -94 -206 -140.5t-259 -46.5q-244 0 -413 141.5t-169 386.5t153 395.5t396.5 150.5t394 -148.5t150.5 -382.5q0 -43 -6 -84h-780
q12 -111 93 -168t195 -57zM616.5 1139q-81.5 0 -138 56t-56.5 138t56.5 139.5t138 57.5t139 -57.5t57.5 -139.5t-57.5 -138t-139 -56z" />
    <glyph glyph-name="Eogonek" unicode="&#x118;" horiz-adv-x="1202" 
d="M933 -504q-132 0 -212 66.5t-80 165t71 161.5t140 111h-702v1331h968v-262h-649v-276h498v-250h-498v-281h649v-262q-130 -87 -175.5 -124.5t-60 -63t-14.5 -59.5t25 -58.5t68.5 -25.5t87.5 38h22l78 -108v-23q-84 -80 -216 -80z" />
    <glyph glyph-name="eogonek" unicode="&#x119;" horiz-adv-x="1210" 
d="M610.5 825q-102.5 0 -169 -61.5t-74.5 -165.5h485q-8 106 -73.5 166.5t-168 60.5zM657 209q182 0 285 113h23l143 -138v-22q-82 -96 -223 -148q-17 -12 -63 -42q-71 -46 -128 -95t-57 -95t24.5 -70.5t68.5 -25.5t87 38h23l78 -109v-23q-84 -80 -216.5 -79.5t-212 67
t-79.5 176t157 224.5q-219 23 -362.5 161t-143.5 372.5t153 385t396.5 150.5t394 -148.5t150.5 -382.5q0 -43 -6 -84h-780q12 -111 93 -168t195 -57z" />
    <glyph glyph-name="Ecaron" unicode="&#x11a;" horiz-adv-x="1202" 
d="M1118 1069h-649v-276h498v-250h-498v-281h649v-262h-968v1331h968v-262zM647 1450h-26l-379 219v23l77 127h23l293 -140l293 140h22l76 -127v-23z" />
    <glyph glyph-name="ecaron" unicode="&#x11b;" horiz-adv-x="1210" 
d="M610.5 825q-102.5 0 -169 -61.5t-74.5 -165.5h485q-8 106 -73.5 166.5t-168 60.5zM657 209q182 0 285 113h23l143 -138v-22q-80 -94 -206 -140.5t-259 -46.5q-244 0 -413 141.5t-169 386.5t153 395.5t396.5 150.5t394 -148.5t150.5 -382.5q0 -43 -6 -84h-780
q12 -111 93 -168t195 -57zM633 1139h-33l-360 209v16l108 133h17l251 -123l252 123h17l110 -133v-16z" />
    <glyph glyph-name="Gbreve" unicode="&#x11e;" horiz-adv-x="1538" 
d="M1491 649q0 -285 -196.5 -479.5t-502.5 -194.5t-514 198t-208 493t207.5 492.5t513.5 197.5q174 0 319 -68.5t242 -187.5v-23l-199 -168h-23q-131 158 -337 158q-168 0 -282 -113.5t-114 -288.5t114 -288t288 -113q135 0 238.5 73t131.5 195h-374v236h667l23 -20
q6 -47 6 -99zM796.5 1448q-145.5 0 -248 95t-118.5 245h199q12 -74 57 -118t110.5 -44t110.5 44t58 118h198q-16 -150 -118.5 -245t-248 -95z" />
    <glyph glyph-name="gbreve" unicode="&#x11f;" horiz-adv-x="1325" 
d="M618.5 319q108.5 0 176 70t67.5 179.5t-67.5 179t-176 69.5t-176 -69.5t-67.5 -179.5t67.5 -179.5t176 -69.5zM1204 772q-45 0 -45 -76v-501q0 -250 -161.5 -380t-417.5 -130q-317 0 -492 194v21l131 163h23q57 -66 149 -106.5t201 -40.5t188.5 57.5t79.5 165.5v33
q-133 -84 -299 -84q-217 0 -360.5 136t-143.5 343t143.5 344.5t352.5 137.5t356 -119q63 119 215 119q84 0 158 -43l12 -23l-39 -211l-20 -10q-10 10 -31 10zM628.5 1139q-147.5 0 -247.5 95t-117 245h197q12 -72 58 -118t109.5 -46t110.5 45t60 119h196
q-16 -150 -117.5 -245t-249 -95z" />
    <glyph glyph-name="Gdotaccent" unicode="&#x120;" horiz-adv-x="1538" 
d="M1491 649q0 -285 -196.5 -479.5t-502.5 -194.5t-514 198t-208 493t207.5 492.5t513.5 197.5q174 0 319 -68.5t242 -187.5v-23l-199 -168h-23q-131 158 -337 158q-168 0 -282 -113.5t-114 -288.5t114 -288t288 -113q135 0 238.5 73t131.5 195h-374v236h667l23 -20
q6 -47 6 -99zM794 1450q-79 0 -136.5 57.5t-57.5 136t57.5 137t136.5 58.5t137 -58.5t58 -138t-58 -136t-137 -56.5z" />
    <glyph glyph-name="gdotaccent" unicode="&#x121;" horiz-adv-x="1325" 
d="M618.5 319q108.5 0 176 70t67.5 179.5t-67.5 179t-176 69.5t-176 -69.5t-67.5 -179.5t67.5 -179.5t176 -69.5zM1204 772q-45 0 -45 -76v-501q0 -250 -161.5 -380t-417.5 -130q-317 0 -492 194v21l131 163h23q57 -66 149 -106.5t201 -40.5t188.5 57.5t79.5 165.5v33
q-133 -84 -299 -84q-217 0 -360.5 136t-143.5 343t143.5 344.5t352.5 137.5t356 -119q63 119 215 119q84 0 158 -43l12 -23l-39 -211l-20 -10q-10 10 -31 10zM629 1139q-82 0 -138.5 56t-56.5 138t56.5 139.5t138.5 57.5t139 -57.5t57 -139.5t-57 -138t-139 -56z" />
    <glyph glyph-name="Gcommaaccent" unicode="&#x122;" horiz-adv-x="1538" 
d="M676 -102h237l15 -17l-125 -360l-21 -19h-164l-16 19l55 360zM1491 649q0 -285 -196.5 -479.5t-502.5 -194.5t-514 198t-208 493t207.5 492.5t513.5 197.5q174 0 319 -68.5t242 -187.5v-23l-199 -168h-23q-131 158 -337 158q-168 0 -282 -113.5t-114 -288.5t114 -288
t288 -113q135 0 238.5 73t131.5 195h-374v236h667l23 -20q6 -47 6 -99z" />
    <glyph glyph-name="gcommaaccent" unicode="&#x123;" horiz-adv-x="1325" 
d="M618.5 319q108.5 0 176 70t67.5 179.5t-67.5 179t-176 69.5t-176 -69.5t-67.5 -179.5t67.5 -179.5t176 -69.5zM1204 772q-45 0 -45 -76v-501q0 -250 -161.5 -380t-417.5 -130q-317 0 -492 194v21l131 163h23q57 -66 149 -106.5t201 -40.5t188.5 57.5t79.5 165.5v33
q-133 -84 -299 -84q-217 0 -360.5 136t-143.5 343t143.5 344.5t352.5 137.5t356 -119q63 119 215 119q84 0 158 -43l12 -23l-39 -211l-20 -10q-10 10 -31 10zM748 1151h-238l-14 16l125 361l20 18h164l16 -18l-55 -361z" />
    <glyph glyph-name="Hbar" unicode="&#x126;" horiz-adv-x="1531" 
d="M1057 797v147h-580v-147h580zM1473 1163v-219h-97v-944h-319v535h-580v-535h-319v944h-101v219h101v168h319v-168h580v168h319v-168h97z" />
    <glyph glyph-name="hbar" unicode="&#x127;" horiz-adv-x="1292" 
d="M1070 -25q-114 0 -184 72t-69 213v324q0 88 -50 142t-138 54q-89 0 -141 -54t-52 -142v-584h-313v1065q0 78 -45 78q-20 0 -31 -13l-20 13l-37 211l10 22q74 43 164 43q199 0 254 -155h272v-166h-254v-119q119 70 262 70q197 0 316 -121t119 -322v-278q0 -76 47 -76
q16 0 30 10l19 -10l39 -211l-11 -23q-73 -43 -187 -43z" />
    <glyph glyph-name="Itilde" unicode="&#x128;" horiz-adv-x="929" 
d="M842 1073h-217v-815h217v-258h-756v258h219v815h-219v258h756v-258zM307 1753q61 0 176 -36t144 -36q90 0 118 72h21l82 -156v-22q-61 -115 -221 -115q-51 0 -160 37t-160 37q-88 0 -125 -74h-18l-76 156v22q67 115 219 115z" />
    <glyph glyph-name="itilde" unicode="&#x129;" horiz-adv-x="600" 
d="M391 -25q-131 0 -203 78t-71 221v750h315v-696q0 -76 47 -76q18 0 29 10l20 -10l39 -211l-12 -23q-74 -43 -164 -43zM92 1434q57 0 166 -36t156 -36q94 0 127 72h20l113 -150v-22q-90 -109 -219 -109q-57 0 -161 36t-159 36q-96 0 -129 -72h-20l-111 150v22
q90 109 217 109z" />
    <glyph glyph-name="Imacron" unicode="&#x12a;" horiz-adv-x="929" 
d="M842 1073h-217v-815h217v-258h-756v258h219v815h-219v258h756v-258zM154 1681h628v-202h-628v202z" />
    <glyph glyph-name="imacron" unicode="&#x12b;" horiz-adv-x="600" 
d="M391 -25q-131 0 -203 78t-71 221v750h315v-696q0 -76 47 -76q18 0 29 10l20 -10l39 -211l-12 -23q-74 -43 -164 -43zM-66 1358h678v-193h-678v193z" />
    <glyph glyph-name="Iogonek" unicode="&#x12e;" horiz-adv-x="929" 
d="M656 -504q-132 0 -212 67t-80 165t68 159q67 61 143 113h-489v258h219v815h-219v258h756v-258h-217v-815h217v-258l-64 -43q-46 -31 -99 -69q-52 -38 -69 -69q-18 -32 -18 -66q0 -35 24 -59t69 -25q44 -1 87 38h23l77 -108v-23q-84 -80 -216 -80z" />
    <glyph glyph-name="iogonek" unicode="&#x12f;" horiz-adv-x="600" 
d="M78 -244q0 52 34 102t66 76t84 66q-145 66 -145 274v750h315v-696q0 -76 47 -76q18 0 29 10l20 -10l39 -211l-12 -23l-65 -43q-142 -95 -163 -132q-22 -37 -22 -71t25 -59q24 -25 68 -25t87 38h23l78 -109v-23q-84 -80 -216 -80t-212 68q-80 66 -80 174zM274 1139
q-82 0 -138 56t-56 138q0 81 56 139t138 58t140 -57t57 -139q1 -82 -57 -139q-58 -56 -140 -56z" />
    <glyph glyph-name="Idotaccent" unicode="&#x130;" horiz-adv-x="929" 
d="M842 1073h-217v-815h217v-258h-756v258h219v815h-219v258h756v-258zM466 1448q-79 0 -136 57q-58 57 -58 136t58 137t136 59q79 0 137 -58q59 -59 59 -139t-58 -136t-138 -56z" />
    <glyph glyph-name="dotlessi" unicode="&#x131;" horiz-adv-x="600" 
d="M391 -25q-131 0 -203 78t-71 221v750h315v-696q0 -76 47 -76q18 0 29 10l20 -10l39 -211l-12 -23q-74 -43 -164 -43z" />
    <glyph glyph-name="IJ" unicode="&#x132;" horiz-adv-x="2013" 
d="M1157 1331h723v-792q0 -563 -496 -564q-128 1 -250 57t-190 150v25l178 176h25q88 -121 215 -121q90 0 143 58t54 165v584h-402v262zM842 1073h-217v-815h217v-258h-756v258h219v815h-219v258h756v-258z" />
    <glyph glyph-name="ij" unicode="&#x133;" horiz-adv-x="1224" 
d="M1104 1024v-780q0 -244 -62 -356t-249 -195h-23l-119 227v23q86 43 111 104t24 225v519h-139v233h457zM391 -25q-131 0 -203 78t-71 221v750h315v-696q0 -76 47 -76q19 0 29 10l20 -10l39 -211l-12 -23q-74 -43 -164 -43zM913 1139q-82 0 -138 56t-56 138q0 81 56 139
t138 58q81 0 139 -57t58 -139t-58 -139q-58 -56 -139 -56zM274 1139q-82 0 -138 56t-56 138q0 81 56 139t138 58t140 -57t57 -139q1 -82 -57 -139q-58 -56 -140 -56z" />
    <glyph glyph-name="Kcommaaccent" unicode="&#x136;" horiz-adv-x="1431" 
d="M666 -102h237l15 -17l-125 -360l-21 -19h-164l-16 19l55 360zM205 958q0 113 -54 113q-29 0 -42 -14l-21 10l-45 223l12 23q72 43 197 43t198.5 -84t73.5 -228v-260l482 547h352l12 -20l-512 -586l287 -356q90 -109 158 -109q23 0 55 14l20 -10l58 -217l-11 -22
q-63 -49 -170 -50q-205 0 -362 205l-270 348l-99 -110v-418h-319v958z" />
    <glyph glyph-name="kcommaaccent" unicode="&#x137;" horiz-adv-x="1226" 
d="M512 -102h238l14 -17l-125 -360l-21 -19h-163l-17 19l56 360zM438 637v-100h197q80 0 129 39.5t49 103t-46 102.5t-132 39t-141.5 -50t-55.5 -134zM1028 -25q-174 0 -287 144l-190 239h-113v-358h-315v1065q0 78 -47 78q-18 0 -29 -13l-20 13l-37 211l10 22
q74 43 185.5 43t182 -70.5t70.5 -211.5v-154q119 66 290 66t280.5 -92.5t109.5 -245.5q0 -102 -59.5 -183.5t-163.5 -124.5l80 -94q55 -57 92 -57t57 16l21 -10l39 -223l-13 -23q-59 -37 -143 -37z" />
    <glyph glyph-name="kgreenlandic" unicode="&#x138;" horiz-adv-x="1179" 
d="M1020 -25q-168 0 -287 144l-225 276l-68 -63v-332h-315v1024h315v-401l336 401h330l12 -20l-381 -433l232 -262q51 -57 89 -57t60 16l21 -10l37 -223l-11 -23q-61 -37 -145 -37z" />
    <glyph glyph-name="Lacute" unicode="&#x139;" horiz-adv-x="1046" 
d="M1022 262v-262h-872v1331h319v-1069h553zM518 1866h23l118 -193v-22l-487 -201h-22l-70 119v22z" />
    <glyph glyph-name="lacute" unicode="&#x13a;" horiz-adv-x="608" 
d="M186.5 1405q112.5 0 183 -70.5t70.5 -212.5v-794q0 -76 47 -76q18 0 29 10l21 -10l36 -211l-10 -23q-74 -43 -185.5 -43t-183 78t-71.5 221v779q0 76 -47 75q-18 0 -29 -10l-20 10l-37 211l10 23q74 43 186.5 43zM449 1870h22l119 -193v-22l-488 -201h-22l-70 119v22z
" />
    <glyph glyph-name="Lcommaaccent" unicode="&#x13b;" horiz-adv-x="1046" 
d="M449 -119l18 17h238l14 -17l-125 -360l-21 -19h-163l-17 19zM1022 262v-262h-872v1331h319v-1069h553z" />
    <glyph glyph-name="lcommaaccent" unicode="&#x13c;" horiz-adv-x="608" 
d="M229 -129l19 16h237l15 -16l-125 -360l-21 -19h-164l-16 19zM186.5 1405q112.5 0 183 -70.5t70.5 -212.5v-794q0 -76 47 -76q18 0 29 10l21 -10l36 -211l-10 -23q-74 -43 -185.5 -43t-183 78t-71.5 221v779q0 76 -47 75q-18 0 -29 -10l-20 10l-37 211l10 23
q74 43 186.5 43z" />
    <glyph glyph-name="Lcaron" unicode="&#x13d;" horiz-adv-x="1046" 
d="M1022 262v-262h-872v1331h319v-1069h553zM655 1436l19 18h237l15 -18l-142 -408l-20 -18h-156l-14 18z" />
    <glyph glyph-name="lcaron" unicode="&#x13e;" horiz-adv-x="724" 
d="M186.5 1405q112.5 0 183 -70.5t70.5 -212.5v-794q0 -76 47 -76q18 0 29 10l21 -10l36 -211l-10 -23q-74 -43 -185.5 -43t-183 78t-71.5 221v779q0 76 -47 75q-18 0 -29 -10l-20 10l-37 211l10 23q74 43 186.5 43zM610 1438l19 16h237l15 -16l-142 -410l-20 -16h-154
l-16 16z" />
    <glyph glyph-name="Ldot" unicode="&#x13f;" horiz-adv-x="1089" 
d="M769 537q-85 0 -145.5 60t-60.5 145t60.5 145.5t145.5 60.5t145.5 -60.5t60.5 -145.5t-60.5 -145t-145.5 -60zM1022 262v-262h-872v1331h319v-1069h553z" />
    <glyph glyph-name="ldot" unicode="&#x140;" horiz-adv-x="802" 
d="M679 594q-85 0 -145.5 60.5t-60.5 145.5t60.5 146.5t145.5 61.5t145.5 -61.5t60.5 -146.5t-60.5 -145.5t-145.5 -60.5zM186.5 1405q112.5 0 183 -70.5t70.5 -212.5v-794q0 -76 47 -76q18 0 29 10l21 -10l36 -211l-10 -23q-74 -43 -185.5 -43t-183 78t-71.5 221v779
q0 76 -47 75q-18 0 -29 -10l-20 10l-37 211l10 23q74 43 186.5 43z" />
    <glyph glyph-name="Lslash" unicode="&#x141;" horiz-adv-x="1150" 
d="M573 262h553v-262h-872v428l-170 -78l-25 15v253l195 91v622h319v-477l285 131l27 -12v-254l-312 -144v-313z" />
    <glyph glyph-name="lslash" unicode="&#x142;" horiz-adv-x="763" 
d="M543 328q0 -76 47 -76q18 0 28 10l21 -10l37 -211l-10 -23q-74 -43 -185.5 -43t-183.5 78t-72 221v222l-151 -80h-23v225l174 92v320q0 76 -47 75q-18 0 -28 -10l-21 10l-37 211l10 23q74 43 186.5 43t183.5 -70.5t71 -212.5v-223l149 78h25v-225l-174 -90v-334z" />
    <glyph glyph-name="Nacute" unicode="&#x143;" horiz-adv-x="1486" 
d="M1018 1331h319v-1331h-231l-637 795v-795h-319v1331h229l639 -796v796zM547 1450h-23l-69 119v22l438 275h22l119 -193v-22z" />
    <glyph glyph-name="nacute" unicode="&#x144;" horiz-adv-x="1341" 
d="M1117.5 -25q-113.5 0 -183.5 72t-70 213v324q0 88 -49 142t-137 54t-140.5 -54t-52.5 -142v-584h-317v696q0 76 -45 76q-20 0 -31 -10l-20 10l-39 211l12 23q74 43 158 43q150 0 215 -115q139 115 333 115t312.5 -121t118.5 -322v-278q0 -76 45 -76q20 0 30 10l21 -10
l39 -211l-12 -23q-74 -43 -187.5 -43zM492 1139h-17l-94 112v17l387 336h18l148 -181v-16z" />
    <glyph glyph-name="Ncommaaccent" unicode="&#x145;" horiz-adv-x="1486" 
d="M625 -102h237l15 -17l-125 -360l-21 -19h-164l-16 19l55 360zM1018 1331h319v-1331h-231l-637 795v-795h-319v1331h229l639 -796v796z" />
    <glyph glyph-name="ncommaaccent" unicode="&#x146;" horiz-adv-x="1341" 
d="M551 -102h237l15 -17l-125 -360l-21 -19h-163l-17 19l55 360zM1117.5 -25q-113.5 0 -183.5 72t-70 213v324q0 88 -49 142t-137 54t-140.5 -54t-52.5 -142v-584h-317v696q0 76 -45 76q-20 0 -31 -10l-20 10l-39 211l12 23q74 43 158 43q150 0 215 -115q139 115 333 115
t312.5 -121t118.5 -322v-278q0 -76 45 -76q20 0 30 10l21 -10l39 -211l-12 -23q-74 -43 -187.5 -43z" />
    <glyph glyph-name="Ncaron" unicode="&#x147;" horiz-adv-x="1486" 
d="M1018 1331h319v-1331h-231l-637 795v-795h-319v1331h229l639 -796v796zM760 1450h-27l-379 219v23l78 127h23l293 -140l292 140h23l76 -127v-23z" />
    <glyph glyph-name="ncaron" unicode="&#x148;" horiz-adv-x="1341" 
d="M1117.5 -25q-113.5 0 -183.5 72t-70 213v324q0 88 -49 142t-137 54t-140.5 -54t-52.5 -142v-584h-317v696q0 76 -45 76q-20 0 -31 -10l-20 10l-39 211l12 23q74 43 158 43q150 0 215 -115q139 115 333 115t312.5 -121t118.5 -322v-278q0 -76 45 -76q20 0 30 10l21 -10
l39 -211l-12 -23q-74 -43 -187.5 -43zM674 1139h-33l-360 209v16l108 133h17l251 -123l252 123h17l110 -133v-16z" />
    <glyph glyph-name="napostrophe" unicode="&#x149;" horiz-adv-x="1341" 
d="M1117.5 -25q-113.5 0 -183.5 72t-70 213v324q0 88 -49 142t-137 54t-140.5 -54t-52.5 -142v-584h-317v696q0 76 -45 76q-20 0 -31 -10l-20 10l-39 211l12 23q74 43 158 43q150 0 215 -115q139 115 333 115t312.5 -121t118.5 -322v-278q0 -76 45 -76q20 0 30 10l21 -10
l39 -211l-12 -23q-74 -43 -187.5 -43zM184 1546l-133 -399l-20 -17h-160l-14 17l57 399l18 19h236z" />
    <glyph glyph-name="Eng" unicode="&#x14a;" horiz-adv-x="1486" 
d="M1018 1331h319v-1376q0 -197 -134 -322t-329 -125q-104 0 -212 40t-164 124v25l176 170h22q61 -94 176 -94q80 0 128 53t49 137v109l-580 731v-803h-319v1331h229l639 -796v796z" />
    <glyph glyph-name="eng" unicode="&#x14b;" horiz-adv-x="1282" 
d="M752 1049q194 0 312 -121t118 -322v-354q-4 -242 -82 -372t-285 -214h-14l-88 232l2 16q81 39 115 81t34 118v471q0 88 -49 142t-137 54t-140 -54t-53 -142v-584h-317v696q0 76 -45 76q-20 0 -31 -10l-20 10l-39 211l12 23q74 43 162 43q150 0 211 -115q140 115 334 115z
" />
    <glyph glyph-name="Omacron" unicode="&#x14c;" horiz-adv-x="1597" 
d="M799 264q171 0 287 114t116 288t-117 288t-287 113q-170 0 -286 -114q-117 -113 -117 -287t117 -288t287 -114zM799 -25q-311 0 -520 197t-209 494q0 298 209 494t520 196t520 -197t209 -493t-209 -493q-209 -198 -520 -198zM451 1681h698v-202h-698v202z" />
    <glyph glyph-name="omacron" unicode="&#x14d;" horiz-adv-x="1271" 
d="M637 246q113 0 183.5 74.5t70.5 191.5t-70.5 191.5t-183.5 74.5t-183.5 -74.5t-70.5 -191.5t70.5 -191.5t183.5 -74.5zM637 -25q-254 0 -415 152t-161 385t161 385t415 152t414.5 -152t160.5 -385t-160.5 -385t-414.5 -152zM297 1358h678v-193h-678v193z" />
    <glyph glyph-name="Ohungarumlaut" unicode="&#x150;" horiz-adv-x="1597" 
d="M799 264q171 0 287 114t116 288t-117 288t-287 113q-170 0 -286 -114q-117 -113 -117 -287t117 -288t287 -114zM799 -25q-311 0 -520 197t-209 494q0 298 209 494t520 196t520 -197t209 -493t-209 -493q-209 -198 -520 -198zM1012 1825l22 18h219l17 -18l-213 -361
l-23 -18h-143l-17 18zM653 1825l21 18h221l14 -18l-213 -361l-20 -18h-146l-14 18z" />
    <glyph glyph-name="ohungarumlaut" unicode="&#x151;" horiz-adv-x="1271" 
d="M637 246q113 0 183.5 74.5t70.5 191.5t-70.5 191.5t-183.5 74.5t-183.5 -74.5t-70.5 -191.5t70.5 -191.5t183.5 -74.5zM637 -25q-254 0 -415 152t-161 385t161 385t415 152t414.5 -152t160.5 -385t-160.5 -385t-414.5 -152zM850 1518l22 16h220l16 -16l-213 -363l-23 -16
h-143l-16 16zM492 1518l20 16h221l15 -16l-213 -363l-21 -16h-145l-15 16z" />
    <glyph glyph-name="OE" unicode="&#x152;" horiz-adv-x="2256" 
d="M799 264q170 0 286.5 114t116.5 288t-116.5 287.5t-286.5 113.5t-287 -113.5t-117 -287.5t117 -288t287 -114zM2171 1069h-649v-276h497v-250h-497v-281h649v-262h-969v84q-178 -109 -403 -109q-311 0 -520 197t-209 494t208.5 493.5t520.5 196.5q225 0 403 -109v84h969
v-262z" />
    <glyph glyph-name="oe" unicode="&#x153;" horiz-adv-x="2052" 
d="M637 246q113 0 183.5 74.5t70.5 191.5t-70.5 191.5t-183.5 74.5t-183.5 -74.5t-70.5 -191.5t70.5 -191.5t183.5 -74.5zM1450 825q-102 0 -169 -61.5t-75 -165.5h486q-8 106 -74 166.5t-168 60.5zM1497 209q182 0 285 113h22l144 -138v-22q-80 -94 -206 -140.5t-259 -46.5
q-262 0 -428 156q-160 -156 -416 -156t-417 152t-161 385t161 385t414 152t417 -152q156 152 398.5 152t393 -148.5t150.5 -382.5q0 -43 -6 -84h-781q12 -111 93 -168t196 -57z" />
    <glyph glyph-name="Racute" unicode="&#x154;" horiz-adv-x="1370" 
d="M469 719h262q84 0 136.5 46t52.5 126t-52.5 129t-136.5 49h-262v-350zM573 500h-104v-500h-319v1331h579q250 0 383 -112.5t133 -311.5q0 -137 -73.5 -232t-202.5 -140q29 -25 78 -115q25 -53 40 -81t43.5 -53.5t55 -25.5t59.5 14l21 -10l57 -217l-10 -22
q-66 -49 -189.5 -49.5t-198.5 68.5t-155 224.5t-123 193.5t-74 38zM438 1450h-22l-70 119v22l438 275h23l119 -193v-22z" />
    <glyph glyph-name="racute" unicode="&#x155;" horiz-adv-x="897" 
d="M483 559v-559h-315v696q0 76 -47 76q-18 0 -29 -10l-20 10l-39 211l12 23q74 43 164 43q143 0 199 -127q121 127 294 127q101 0 189 -43l10 -23l-65 -225l-19 -10q-68 33 -145.5 32.5t-133 -58.5t-55.5 -163zM262 1139h-16l-94 112v17l387 336h18l148 -181v-16z" />
    <glyph glyph-name="Rcommaaccent" unicode="&#x156;" horiz-adv-x="1370" 
d="M567 -102h238l14 -17l-125 -360l-20 -19h-164l-16 19l55 360zM469 719h262q84 0 136.5 46t52.5 126t-52.5 129t-136.5 49h-262v-350zM573 500h-104v-500h-319v1331h579q250 0 383 -112.5t133 -311.5q0 -137 -73.5 -232t-202.5 -140q29 -25 78 -115q25 -53 40 -81
t43.5 -53.5t55 -25.5t59.5 14l21 -10l57 -217l-10 -22q-66 -49 -189.5 -49.5t-198.5 68.5t-155 224.5t-123 193.5t-74 38z" />
    <glyph glyph-name="rcommaaccent" unicode="&#x157;" horiz-adv-x="897" 
d="M207 -102h237l15 -17l-125 -360l-21 -19h-163l-17 19l55 360zM483 559v-559h-315v696q0 76 -47 76q-18 0 -29 -10l-20 10l-39 211l12 23q74 43 164 43q143 0 199 -127q121 127 294 127q101 0 189 -43l10 -23l-65 -225l-19 -10q-68 33 -145.5 32.5t-133 -58.5t-55.5 -163z
" />
    <glyph glyph-name="Rcaron" unicode="&#x158;" horiz-adv-x="1370" 
d="M469 719h262q84 0 136.5 46t52.5 126t-52.5 129t-136.5 49h-262v-350zM573 500h-104v-500h-319v1331h579q250 0 383 -112.5t133 -311.5q0 -137 -73.5 -232t-202.5 -140q29 -25 78 -115q25 -53 40 -81t43.5 -53.5t55 -25.5t59.5 14l21 -10l57 -217l-10 -22
q-66 -49 -189.5 -49.5t-198.5 68.5t-155 224.5t-123 193.5t-74 38zM651 1450h-26l-379 219v23l78 127h22l293 -140l293 140h22l76 -127v-23z" />
    <glyph glyph-name="rcaron" unicode="&#x159;" horiz-adv-x="897" 
d="M483 559v-559h-315v696q0 76 -47 76q-18 0 -29 -10l-20 10l-39 211l12 23q74 43 164 43q143 0 199 -127q121 127 294 127q101 0 189 -43l10 -23l-65 -225l-19 -10q-68 33 -145.5 32.5t-133 -58.5t-55.5 -163zM444 1139h-32l-361 209v16l109 133h16l252 -123l252 123h16
l111 -133v-16z" />
    <glyph glyph-name="Sacute" unicode="&#x15a;" horiz-adv-x="1179" 
d="M577.5 246q94.5 0 147.5 35.5t53 95.5q0 33 -14 50t-22 27q-8 9 -28 20q-20 12 -32 18q-23 12 -132.5 50t-154.5 56t-105 54q-184 109 -184 302t141.5 297.5t356.5 104.5q309 0 473 -199v-31l-147 -165h-27q-125 137 -293 137q-78 0 -126 -32t-48 -79t32 -78.5t65.5 -48
t99 -40.5t87 -31t79 -30.5t82 -38.5t69.5 -43t65.5 -55.5t44.5 -64.5q46 -69 46 -178q0 -195 -144.5 -299.5t-369.5 -104.5q-347 1 -533 230v28l148 177h22q63 -70 158.5 -117t190 -47zM741 1866h23l119 -193v-22l-488 -201h-22l-70 119v22z" />
    <glyph glyph-name="sacute" unicode="&#x15b;" horiz-adv-x="1019" 
d="M510 1049q137 0 248.5 -45.5t177.5 -124.5v-23l-139 -123h-23q-106 100 -240.5 100.5t-134.5 -79.5q0 -33 33 -54.5t87 -42t100.5 -37t68 -24.5t64.5 -28q42 -18 66 -34q142 -94 142.5 -240t-121.5 -232q-123 -86 -297 -87q-335 0 -497 197v23l143 129h23
q49 -55 128 -94.5t153 -39.5t112.5 27t38.5 61t-11 52t-44.5 35.5t-108.5 44t-103 37t-83 33t-83 44.5t-60 54q-62 62 -62 163q0 139 116 223.5t306 84.5zM625 1604h18l148 -181v-16l-443 -268h-16l-94 112v17z" />
    <glyph glyph-name="Scedilla" unicode="&#x15e;" horiz-adv-x="1179" 
d="M1106 379q0 -176 -120 -278.5t-316 -120.5l-29 -64l2 -4q27 10 57 10q78 0 127.5 -53t49.5 -146t-79 -158t-206 -65q-193 0 -299 103v22l78 101h22q74 -66 166 -66q41 0 68.5 18.5t27.5 47.5q0 61 -86 61q-47 0 -90 -18l-71 45l77 168q-268 33 -426 223v28l148 177h22
q63 -70 158.5 -117t190 -47t147.5 35.5t53 95.5q0 33 -14 50t-22 27q-8 9 -28 20q-20 12 -32 18q-23 12 -132.5 50t-154.5 56t-105 54q-184 109 -184 302t141.5 297.5t356.5 104.5q309 0 473 -199v-31l-147 -165h-27q-125 137 -293 137q-78 0 -126 -32t-48 -88t49.5 -89
t131 -63t103 -37t79 -30.5t82 -38.5t69.5 -43t65.5 -55.5t44.5 -64.5q46 -69 46 -178z" />
    <glyph glyph-name="scedilla" unicode="&#x15f;" horiz-adv-x="1019" 
d="M859.5 77q-101.5 -83 -269.5 -97l-29 -64l2 -4q27 10 58 10q78 0 127 -53t49 -146t-79 -158t-206 -65q-193 0 -299 103v22l78 101h22q74 -66 166 -66q41 0 68.5 18.5t27.5 47.5q0 61 -86 61q-47 0 -90 -18l-71 45l80 170q-233 35 -363 188v23l143 129h23
q49 -55 128 -94.5t153 -39.5t112.5 27t38.5 72t-40 69.5t-119.5 51t-107.5 37t-83 33t-83 44.5t-60 54q-62 62 -62 163q0 139 115.5 223.5t306.5 84.5q137 0 248.5 -45.5t177.5 -124.5v-23l-139 -123h-23q-106 100 -240.5 100.5t-134.5 -79.5q0 -33 33 -54.5t87 -42
t100.5 -37t68 -24.5t64.5 -28q42 -18 66 -34q142 -94 142.5 -234t-101 -223z" />
    <glyph glyph-name="Scaron" unicode="&#x160;" horiz-adv-x="1179" 
d="M1106 379q0 -195 -144.5 -299.5t-369.5 -104.5q-346 0 -533 230v28l148 177h22q63 -70 158.5 -117t190 -47t147.5 35.5t53 95.5q0 33 -14 50t-22 27q-8 9 -28 20q-20 12 -32 18q-23 12 -132.5 50t-154.5 56t-105 54q-184 109 -184 302t141.5 297.5t356.5 104.5
q309 0 473 -199v-31l-147 -165h-27q-125 137 -293 137q-78 0 -126 -32t-48 -88t49.5 -89t131 -63t103 -37t79 -30.5t82 -38.5t69.5 -43t65.5 -55.5t44.5 -64.5q46 -69 46 -178zM608 1450h-26l-379 219v23l78 127h22l293 -140l293 140h22l76 -127v-23z" />
    <glyph glyph-name="scaron" unicode="&#x161;" horiz-adv-x="1019" 
d="M839 62q-123 -86 -297 -87q-335 0 -497 197v23l143 129h23q49 -55 128 -94.5t153 -39.5t112.5 27t38.5 72t-40 69.5t-119.5 51t-107.5 37t-83 33t-83 44.5t-60 54q-62 62 -62 163q0 139 115.5 223.5t306.5 84.5q137 0 248.5 -45.5t177.5 -124.5v-23l-139 -123h-23
q-106 100 -240.5 100.5t-134.5 -79.5q0 -33 33 -54.5t87 -42t100.5 -37t68 -24.5t64.5 -28q42 -18 66 -34q142 -94 142.5 -240t-121.5 -232zM530 1139h-32l-361 209v16l109 133h16l252 -123l252 123h16l111 -133v-16z" />
    <glyph glyph-name="uni0162" unicode="&#x162;" horiz-adv-x="1191" 
d="M756 0h-62l-39 -84l2 -4q27 10 58 10q78 0 127 -53t49 -146t-79 -158t-206 -65q-193 0 -299 103v22l78 101h23q74 -66 165 -66q41 0 69 18.5t28 47.5q0 61 -86 61q-47 0 -90 -18l-72 45l86 186h-72v1069h-413v262h1148v-262h-415v-1069z" />
    <glyph glyph-name="uni0163" unicode="&#x163;" horiz-adv-x="872" 
d="M641 -78q78 0 127 -53t49 -146t-79 -158t-206 -65q-193 0 -299 103v22l78 101h23q74 -66 166 -66q41 0 68.5 18.5t27.5 47.5q0 61 -86 61q-47 0 -90 -18l-72 45l88 190q-104 41 -166.5 135t-62.5 234v418h-178v233h178v293l289 39l24 -15v-317h301v-233h-301v-385
q0 -78 35 -120t84 -42t96 30l21 -10l86 -194l-8 -23q-96 -66 -224 -72l-28 -59l2 -4q27 10 57 10z" />
    <glyph glyph-name="Tcaron" unicode="&#x164;" horiz-adv-x="1191" 
d="M23 1331h1148v-262h-415v-1069h-320v1069h-413v262zM610 1450h-26l-379 219v23l78 127h22l293 -140l293 140h22l76 -127v-23z" />
    <glyph glyph-name="tcaron" unicode="&#x165;" horiz-adv-x="872" 
d="M581 -25q-151 0 -262.5 103.5t-111.5 294.5v418h-178v233h178v293l289 39l24 -15v-317h301v-233h-301v-385q0 -78 35 -120t84 -42.5t96 30.5l21 -10l86 -194l-8 -23q-102 -72 -253 -72zM774 1139h-153l-15 16l60 410l20 16h236l16 -16l-143 -410z" />
    <glyph glyph-name="Tbar" unicode="&#x166;" horiz-adv-x="1191" 
d="M1171 1069h-415v-301h248v-195h-248v-573h-320v573h-231v195h231v301h-413v262h1148v-262z" />
    <glyph glyph-name="tbar" unicode="&#x167;" horiz-adv-x="872" 
d="M581 -25q-151 0 -262.5 103.5t-111.5 294.5v86h-176v162h176v170h-178v233h178v293l289 39l24 -15v-317h301v-233h-301v-170h221v-162h-221v-53q0 -78 35 -120t84 -42t96 30l21 -10l86 -194l-8 -23q-102 -72 -253 -72z" />
    <glyph glyph-name="Utilde" unicode="&#x168;" horiz-adv-x="1521" 
d="M793 -25q-279 0 -441 160t-162 443v380q0 113 -55 113q-27 0 -41 -14l-20 10l-45 223l12 23q73 43 197 43t198 -84t74 -244v-465q0 -143 76 -222t207 -79t207 80t77 221v768h314v-753q1 -283 -159 -443t-439 -160zM571 1753q72 0 204 -36t165 -36q100 0 137 72h23
l94 -156v-22q-72 -115 -254 -115q-59 0 -184 37t-185 37q-102 0 -143 -74h-22l-89 156v22q76 115 254 115z" />
    <glyph glyph-name="utilde" unicode="&#x169;" horiz-adv-x="1323" 
d="M1114 -25q-141 0 -207 115q-135 -115 -301 -115q-210 0 -328 118t-118 317v286q0 76 -47 76q-18 0 -29 -10l-21 10l-38 211l12 23q74 43 168 43q270 0 270 -283v-334q0 -88 48 -138t130 -50t133 54t52 140v586h317v-696q0 -76 47 -76q18 0 29 10l20 -10l37 -211l-10 -23
q-74 -43 -164 -43zM471 1432q57 0 166 -36t156 -36q94 0 127 72h20l113 -150v-22q-90 -109 -219 -109q-56 0 -160 36t-160 36q-96 0 -129 -72h-20l-111 149v23q90 109 217 109z" />
    <glyph glyph-name="Umacron" unicode="&#x16a;" horiz-adv-x="1521" 
d="M793 -25q-279 0 -441 160t-162 443v380q0 113 -55 113q-27 0 -41 -14l-20 10l-45 223l12 23q73 43 197 43t198 -84t74 -244v-465q0 -143 76 -222t207 -79t207 80t77 221v768h314v-753q1 -283 -159 -443t-439 -160zM408 1681h698v-202h-698v202z" />
    <glyph glyph-name="umacron" unicode="&#x16b;" horiz-adv-x="1323" 
d="M1114 -25q-141 0 -207 115q-135 -115 -301 -115q-210 0 -328 118t-118 317v286q0 76 -47 76q-18 0 -29 -10l-21 10l-38 211l12 23q74 43 168 43q270 0 270 -283v-334q0 -88 48 -138t130 -50t133 54t52 140v586h317v-696q0 -76 47 -76q18 0 29 10l20 -10l37 -211l-10 -23
q-74 -43 -164 -43zM991 1356v-193h-678v193h678z" />
    <glyph glyph-name="Uring" unicode="&#x16e;" horiz-adv-x="1521" 
d="M793 -25q-279 0 -441 160t-162 443v380q0 113 -55 113q-27 0 -41 -14l-20 10l-45 223l12 23q73 43 197 43t198 -84t74 -244v-465q0 -143 76 -222t207 -79t207 80t77 221v768h314v-753q1 -283 -159 -443t-439 -160zM757 1606q35 0 59 24t24 60t-25 60t-59 24t-57 -25
t-23 -59t23 -60q24 -24 58 -24zM758 1440q-104 0 -179 72t-75 178q0 104 75 177t179 73t179 -74q75 -72 75 -176t-75 -177t-179 -73z" />
    <glyph glyph-name="uring" unicode="&#x16f;" horiz-adv-x="1323" 
d="M1114 -25q-141 0 -207 115q-135 -115 -301 -115q-210 0 -328 118t-118 317v286q0 76 -47 76q-18 0 -29 -10l-21 10l-38 211l12 23q74 43 168 43q270 0 270 -283v-334q0 -88 48 -138t130 -50t133 54t52 140v586h317v-696q0 -76 47 -76q18 0 29 10l20 -10l37 -211l-10 -23
q-74 -43 -164 -43zM654 1450q-36 0 -58 -24t-23 -58q0 -34 23 -56q22 -24 58 -24t59 24t23 58t-24 56q-22 24 -58 24zM653 1118q-109 0 -185 74t-75 178q0 104 76 178q75 74 185 74t186 -74t76 -178t-78 -178q-76 -74 -185 -74z" />
    <glyph glyph-name="Uhungarumlaut" unicode="&#x170;" horiz-adv-x="1521" 
d="M793 -25q-279 0 -441 160t-162 443v380q0 113 -55 113q-27 0 -41 -14l-20 10l-45 223l12 23q73 43 197 43t198 -84t74 -244v-465q0 -143 76 -222t207 -79t207 80t77 221v768h314v-753q1 -283 -159 -443t-439 -160zM969 1825l22 18h219l17 -18l-213 -361l-23 -18h-143
l-17 18zM610 1825l21 18h221l14 -18l-213 -361l-20 -18h-146l-14 18z" />
    <glyph glyph-name="uhungarumlaut" unicode="&#x171;" horiz-adv-x="1323" 
d="M1114 -25q-141 0 -207 115q-135 -115 -301 -115q-210 0 -328 118t-118 317v286q0 76 -47 76q-18 0 -29 -10l-21 10l-38 211l12 23q74 43 168 43q270 0 270 -283v-334q0 -88 48 -138t130 -50t133 54t52 140v586h317v-696q0 -76 47 -76q18 0 29 10l20 -10l37 -211l-10 -23
q-74 -43 -164 -43zM745 1137l-16 16l137 363l23 16h219l16 -16l-213 -363l-22 -16h-144zM530 1137h-145l-14 16l137 363l20 16h222l14 -16l-213 -363z" />
    <glyph glyph-name="Uogonek" unicode="&#x172;" horiz-adv-x="1521" 
d="M1077 1331h314v-753q0 -371 -263 -521h2q-145 -97 -197 -141q-52 -45 -52 -92q1 -47 25 -72q24 -26 68 -26t87 38h22l78 -108v-23q-84 -79 -216 -79t-212 66t-80 167q0 100 103 188q-264 12 -415 171t-151 432v380q0 113 -55 113q-27 0 -41 -14l-20 10l-45 223l12 23
q73 43 197 43t198 -84t74 -244v-465q0 -143 76 -222t207 -79t207 80t77 221v768z" />
    <glyph glyph-name="uogonek" unicode="&#x173;" horiz-adv-x="1323" 
d="M801 -244q0 52 35 104t69 81q35 29 88 65q-51 27 -86 84q-135 -115 -301 -115q-210 0 -328 118t-118 317v286q0 76 -47 76q-18 0 -29 -10l-21 10l-38 211l12 23q74 43 168 43q270 0 270 -283v-334q0 -88 48 -138t130 -50t133 54t52 140v586h317v-696q0 -76 47 -76
q18 0 29 10l20 -10l37 -211l-10 -23l-64 -43q-142 -95 -164 -132t-22 -71t25 -59t69 -25t86 38h23l78 -109v-23q-84 -80 -216 -80t-212 68q-80 66 -80 174z" />
    <glyph glyph-name="Wcircumflex" unicode="&#x174;" horiz-adv-x="2144" 
d="M182 1356q211 0 299 -238l230 -645l262 858h198l263 -858l231 645q88 238 297 238q113 0 174 -49l8 -23l-57 -217l-19 -10q-43 16 -67 6q-21 -5 -35 -25t-41 -88l-356 -950h-234l-262 817l-264 -817h-231l-359 950q-25 61 -39 84q-33 54 -102 23l-21 10l-57 217l10 23
q61 49 172 49zM780 1444h-22l-78 127v22l379 219h26l379 -219v-22l-75 -127h-23l-293 139z" />
    <glyph glyph-name="wcircumflex" unicode="&#x175;" horiz-adv-x="1890" 
d="M1296 -25q-211 0 -323 131q-131 -131 -345 -131q-214 1 -343 133t-129 365v223q0 76 -45 76q-20 0 -31 -10l-21 10l-36 211l10 23q74 43 170 43q270 0 270 -283v-332q0 -90 45 -140t127 -50t130 52t48 136v592h297v-588q0 -92 45 -142t121 -50q102 0 158 91q55 91 57 226
t-35 245t-94 175v23l230 143h22q100 -100 150 -250t49 -317q-5 -272 -143 -438t-384 -167zM719 1139h-17l-108 133v16l360 209h33l363 -209v-16l-111 -133h-16l-252 123z" />
    <glyph glyph-name="Ycircumflex" unicode="&#x176;" horiz-adv-x="1466" 
d="M1321 1071q-68 0 -129 -96l-295 -477v-498h-319v492l-306 483q-61 96 -129 96q-25 0 -59 -14l-21 10l-55 217l8 23q62 49 168 49t184 -56t152 -178l219 -350l213 350q70 119 146 176q76 58 186 58t164 -49l10 -23l-57 -217l-21 -10q-37 14 -59 14zM446 1444h-22l-78 127
v22l379 219h27l378 -219v-22l-75 -127h-23l-293 139z" />
    <glyph glyph-name="ycircumflex" unicode="&#x177;" horiz-adv-x="1261" 
d="M834 1024h309v-829q0 -246 -160 -378t-412 -132q-307 0 -481 194v21l131 163h23q57 -67 145 -107q87 -40 193 -40t183 57t77 166v54q-100 -105 -268 -105t-294 103t-126 305v200q0 76 -45 76q-20 0 -31 -10l-21 10l-37 211l11 23q74 43 168 43q264 0 264 -283v-227
q0 -83 48 -135t133 -52t137 56t53 143v473zM348 1139h-16l-109 133v16l361 209h32l363 -209v-16l-111 -133h-16l-252 123z" />
    <glyph glyph-name="Ydieresis" unicode="&#x178;" horiz-adv-x="1466" 
d="M1321 1071q-68 0 -129 -96l-295 -477v-498h-319v492l-306 483q-61 96 -129 96q-25 0 -59 -14l-21 10l-55 217l8 23q62 49 168 49t184 -56t152 -178l219 -350l213 350q70 119 146 176q76 58 186 58t164 -49l10 -23l-57 -217l-21 -10q-37 14 -59 14zM977 1450
q-76 0 -131 55t-55 131t55 131t131 55t131 -54q55 -56 55 -132t-55 -131t-131 -55zM500 1450q-78 0 -132 55t-55 131q1 76 55 131t132 55t133 -54q55 -56 55 -132t-55 -131t-133 -55z" />
    <glyph glyph-name="Zacute" unicode="&#x179;" horiz-adv-x="1273" 
d="M934 0h-873v229l697 844h-656v258h1055v-231l-690 -842h348q59 0 85 11t26 41t-19 44l13 21l221 43l22 -10q47 -70 47 -172t-76 -170q-76 -66 -200 -66zM770 1866h23l118 -193v-22l-487 -201h-23l-69 119v22z" />
    <glyph glyph-name="zacute" unicode="&#x17a;" horiz-adv-x="1085" 
d="M92 1024h864v-225l-534 -568h293q78 0 78 54q0 25 -19 43l12 18l209 39l25 -10q47 -70 47 -168q0 -99 -73 -153t-195 -54h-733v223l528 570h-502v231zM647 1604h19l147 -181v-16l-442 -268h-17l-94 112v17z" />
    <glyph glyph-name="Zdotaccent" unicode="&#x17b;" horiz-adv-x="1273" 
d="M934 0h-873v229l697 844h-656v258h1055v-231l-690 -842h348q59 0 85 11t26 41t-19 44l13 21l221 43l22 -10q47 -70 47 -172t-76 -170q-76 -66 -200 -66zM622 1448q-79 0 -137 57q-57 57 -57 136t57 137t137 59q80 0 137 -58q58 -59 58 -139t-58 -136t-137 -56z" />
    <glyph glyph-name="zdotaccent" unicode="&#x17c;" horiz-adv-x="1085" 
d="M92 1024h864v-225l-534 -568h293q78 0 78 54q0 25 -19 43l12 18l209 39l25 -10q47 -70 47 -168q0 -99 -73 -153t-195 -54h-733v223l528 570h-502v231zM537 1139q-82 0 -139 56q-56 56 -56 138q0 81 56 139t138 58t140 -57q57 -57 57 -139t-57 -139q-57 -56 -139 -56z" />
    <glyph glyph-name="Zcaron" unicode="&#x17d;" horiz-adv-x="1273" 
d="M1210 236q0 -102 -76 -170q-76 -66 -200 -66h-873v229l697 844h-656v258h1055v-231l-690 -842h348q59 0 85 11t26 41t-19 44l13 21l221 43l22 -10q47 -70 47 -172zM637 1450h-27l-379 219v23l78 127h23l293 -140l293 140h22l76 -127v-23z" />
    <glyph glyph-name="zcaron" unicode="&#x17e;" horiz-adv-x="1085" 
d="M1067 207q0 -99 -73 -153t-195 -54h-733v223l528 570h-502v231h864v-225l-534 -568h293q78 0 78 54q0 25 -19 43l12 18l209 39l25 -10q47 -70 47 -168zM553 1139h-33l-360 209v16l108 133h17l252 -123l251 123h17l110 -133v-16z" />
    <glyph glyph-name="uni01EA" unicode="&#x1ea;" horiz-adv-x="1597" 
d="M799 264q171 0 287 114t116 288t-117 288t-287 113q-170 0 -286 -114q-117 -113 -117 -287t117 -288t287 -114zM1528 666q0 -217 -118 -386t-314 -249l-64 -43q-78 -52 -132 -97t-54 -93t24 -72t69 -26q44 -1 87 38h23l77 -109v-22q-84 -80 -216 -80q-132 1 -212 67
t-80 172t136 211q-297 16 -491 210q-193 194 -193 485q0 292 209 488t520 196t520 -196t209 -494z" />
    <glyph glyph-name="uni01EB" unicode="&#x1eb;" horiz-adv-x="1271" 
d="M383 512q0 -117 70.5 -191.5t183.5 -74.5t183.5 74.5t70.5 191.5t-70.5 191.5t-183.5 74.5t-183.5 -74.5t-70.5 -191.5zM625 -228.5q0 -33.5 24.5 -58t68.5 -25.5t87 38h22l78 -109v-23q-84 -80 -216 -79.5t-212 67t-80 176t156 222.5q-221 27 -356.5 173t-135.5 369
t161 375t415 152t414.5 -152t160.5 -385q0 -172 -92 -304.5t-250 -191.5q-16 -12 -62 -41.5t-69.5 -47t-54.5 -45t-45 -52.5t-14 -58.5z" />
    <glyph glyph-name="AEacute" unicode="&#x1fc;" horiz-adv-x="2074" 
d="M1047 455v491l-365 -491h365zM1989 1069h-621v-276h469v-250h-469v-281h621v-262h-942v233h-529l-172 -233h-383l983 1331h1043v-262zM1294 1450h-22l-70 119v22l438 275h23l119 -193v-22z" />
    <glyph glyph-name="aeacute" unicode="&#x1fd;" horiz-adv-x="1900" 
d="M561 455q-92 0 -145.5 -38t-53.5 -103t50.5 -101.5t128 -36.5t139 49t63.5 125v70q-90 35 -182 35zM1300.5 825q-102.5 0 -169 -61.5t-74.5 -165.5h485q-8 106 -73.5 166.5t-168 60.5zM1348 209q182 0 284 113h23l143 -138v-22q-80 -94 -206 -140.5t-259 -46.5
q-279 0 -446 175q-74 -80 -183.5 -127.5t-220.5 -47.5q-193 0 -312.5 90.5t-119.5 249t130 241.5t343 83q109 0 219 -37v45q0 80 -62.5 128t-150.5 48q-147 0 -254 -98h-22l-141 135v23q176 166 431 166t392 -123q150 123 379.5 123t379.5 -148.5t150 -382.5q0 -43 -6 -84
h-780q12 -111 93 -168t196 -57zM807 1139h-16l-95 112v17l387 336h19l147 -181v-16z" />
    <glyph glyph-name="Oslashacute" unicode="&#x1fe;" horiz-adv-x="1597" 
d="M799 264q171 0 287 114t116 288q0 135 -74 237l-417 -631q39 -8 88 -8zM395 666q0 -129 68 -230l416 623q-35 8 -80 8q-170 1 -287 -113t-117 -288zM1528 670q0 -300 -209 -497q-209 -198 -520 -198q-135 0 -258 41l-78 -116h-342l-4 16l168 252q-215 195 -215 495
q0 301 209 497t520 196q129 0 252 -39l88 133h338l4 -16l-174 -263q221 -201 221 -501zM600 1450h-22l-70 119v22l438 275h23l118 -193v-22z" />
    <glyph glyph-name="oslashacute" unicode="&#x1ff;" horiz-adv-x="1271" 
d="M637 246q113 0 183.5 74.5t70.5 191.5q0 59 -19 109l-262 -373q9 -2 27 -2zM383 512q0 -63 20 -111l263 375q-10 2 -29 2q-113 0 -183.5 -74.5t-70.5 -191.5zM637 -25q-100 0 -197 27l-67 -96h-287l-14 20l143 207q-154 150 -154 381t161 383t415 152q102 0 199 -29
l86 125h286l15 -21l-164 -235q154 -147 153.5 -378.5t-161 -383.5t-414.5 -152zM471 1139h-16l-95 112v17l388 336h18l147 -181v-16z" />
    <glyph glyph-name="Scommaaccent" unicode="&#x218;" horiz-adv-x="1179" 
d="M455 -119l18 17h238l14 -17l-125 -360l-20 -19h-164l-17 19zM577.5 246q94.5 0 147.5 35.5t53 95.5q0 33 -14 50t-22 27q-8 9 -28 20q-20 12 -32 18q-23 12 -132.5 50t-154.5 56t-105 54q-184 109 -184 302t141.5 297.5t356.5 104.5q309 0 473 -199v-31l-147 -165h-27
q-125 137 -293 137q-78 0 -126 -32t-48 -79t32 -78.5t65.5 -48t99 -40.5t87 -31t79 -30.5t82 -38.5t69.5 -43t65.5 -55.5t44.5 -64.5q46 -69 46 -178q0 -195 -144.5 -299.5t-369.5 -104.5q-347 1 -533 230v28l148 177h22q63 -70 158.5 -117t190 -47z" />
    <glyph glyph-name="scommaaccent" unicode="&#x219;" horiz-adv-x="1019" 
d="M375 -119l18 17h238l14 -17l-125 -360l-20 -19h-164l-17 19zM510 1049q137 0 248.5 -45.5t177.5 -124.5v-23l-139 -123h-23q-106 100 -240.5 100.5t-134.5 -79.5q0 -33 33 -54.5t87 -42t100.5 -37t68 -24.5t64.5 -28q42 -18 66 -34q142 -94 142.5 -240t-121.5 -232
q-123 -86 -297 -87q-335 0 -497 197v23l143 129h23q49 -55 128 -94.5t153 -39.5t112.5 27t38.5 61t-11 52t-44.5 35.5t-108.5 44t-103 37t-83 33t-83 44.5t-60 54q-62 62 -62 163q0 139 116 223.5t306 84.5z" />
    <glyph glyph-name="uni021A" unicode="&#x21a;" horiz-adv-x="1191" 
d="M469 -119l18 17h238l14 -17l-125 -360l-20 -19h-164l-16 19zM756 1069v-1069h-320v1069h-413v262h1148v-262h-415z" />
    <glyph glyph-name="uni021B" unicode="&#x21b;" horiz-adv-x="872" 
d="M414 -102h237l15 -17l-125 -360l-21 -19h-164l-16 19l55 360zM581 -25q-151 0 -262.5 103.5t-111.5 294.5v418h-178v233h178v293l289 39l24 -15v-317h301v-233h-301v-385q0 -78 35 -120t84 -42t96 30l21 -10l86 -194l-8 -23q-102 -72 -253 -72z" />
    <glyph glyph-name="uni0237" unicode="&#x237;" horiz-adv-x="624" 
d="M504 1024v-780q0 -244 -62 -356t-249 -195h-23l-119 227v23q86 43 111 104t24 225v519h-139v233h457z" />
    <glyph glyph-name="uni02BC" unicode="&#x2bc;" horiz-adv-x="446" 
d="M135 1548l19 19h235l17 -19l-134 -399l-20 -16h-160l-14 16z" />
    <glyph glyph-name="circumflex" unicode="&#x2c6;" horiz-adv-x="958" 
d="M498 1497l362 -209v-16l-110 -133h-17l-252 123l-252 -123h-16l-109 133v16l361 209h33z" />
    <glyph glyph-name="caron" unicode="&#x2c7;" horiz-adv-x="956" 
d="M750 1497l110 -133v-16l-362 -209h-33l-361 209v16l109 133h16l252 -123l252 123h17z" />
    <glyph glyph-name="breve" unicode="&#x2d8;" horiz-adv-x="811" 
d="M403 1139q-147 0 -247 95t-117 245h197q12 -72 58 -118t109 -46t111 45q47 45 59 119h197q-16 -150 -118 -245t-249 -95z" />
    <glyph glyph-name="dotaccent" unicode="&#x2d9;" horiz-adv-x="501" 
d="M250 1139q-82 0 -138 56t-57 138q1 81 57 139t138 58t139 -57t57 -139t-57 -139q-57 -56 -139 -56z" />
    <glyph glyph-name="ring" unicode="&#x2da;" horiz-adv-x="686" 
d="M343 1290q37 0 59 24t22 58t-23 56q-23 24 -59 24t-58 -24t-22 -58t22 -56q22 -24 59 -24zM342 1120q-108 0 -184 74t-76 178t76 178t186 74t184 -74q76 -74 76 -178t-76 -178t-186 -74z" />
    <glyph glyph-name="ogonek" unicode="&#x2db;" horiz-adv-x="671" 
d="M353 -496q-132 0 -212 67t-80 165t79 169q57 51 132 103h267l-65 -43q-145 -97 -171 -144q-14 -25 -14 -59q1 -34 25 -59t68 -26t87 38h23l77 -108v-23q-84 -80 -216 -80z" />
    <glyph glyph-name="tilde" unicode="&#x2dc;" horiz-adv-x="962" 
d="M299 1434q57 0 166 -36t156 -36q94 0 127 72h20l113 -150v-22q-90 -109 -219 -109q-56 0 -160 36t-160 36q-96 0 -129 -72h-20l-111 150v22q90 109 217 109z" />
    <glyph glyph-name="hungarumlaut" unicode="&#x2dd;" horiz-adv-x="868" 
d="M569 1518l23 16h219l16 -16l-213 -363l-22 -16h-143l-17 16zM211 1518l20 16h222l14 -16l-213 -363l-21 -16h-145l-14 16z" />
    <glyph glyph-name="uni0326" unicode="&#x326;" horiz-adv-x="0" 
d="M-319 -121l18 17h238l14 -17l-125 -360l-21 -19h-163l-17 19z" />
    <glyph glyph-name="Wgrave" unicode="&#x1e80;" horiz-adv-x="2144" 
d="M1962 1356q113 0 174 -49l8 -23l-57 -217l-19 -10q-43 16 -67 6q-21 -5 -35 -25t-41 -88l-356 -950h-234l-262 817l-264 -817h-231l-359 950q-25 61 -39 84q-33 54 -102 23l-21 10l-57 217l10 23q61 49 172 49q211 0 299 -238l230 -645l262 858h198l263 -858l231 645
q88 238 297 238zM926 1866l438 -275v-22l-70 -119h-22l-488 201v22l119 193h23z" />
    <glyph glyph-name="wgrave" unicode="&#x1e81;" horiz-adv-x="1890" 
d="M1296 -25q-211 0 -323 131q-131 -131 -345 -131q-214 1 -343 133t-129 365v223q0 76 -45 76q-20 0 -31 -10l-21 10l-36 211l10 23q74 43 170 43q270 0 270 -283v-332q0 -90 45 -140t127 -50t130 52t48 136v592h297v-588q0 -92 45 -142t121 -50q102 0 158 91q55 91 57 226
t-35 245t-94 175v23l230 143h22q100 -100 150 -250t49 -317q-5 -272 -143 -438t-384 -167zM1151 1139h-16l-441 268v16l148 181h16l389 -336v-17z" />
    <glyph glyph-name="Wacute" unicode="&#x1e82;" horiz-adv-x="2144" 
d="M1962 1356q113 0 174 -49l8 -23l-57 -217l-19 -10q-43 16 -67 6q-21 -5 -35 -25t-41 -88l-356 -950h-234l-262 817l-264 -817h-231l-359 950q-25 61 -39 84q-33 54 -102 23l-21 10l-57 217l10 23q61 49 172 49q211 0 299 -238l230 -645l262 858h198l263 -858l231 645
q88 238 297 238zM1221 1866h22l119 -193v-22l-488 -201h-22l-70 119v22z" />
    <glyph glyph-name="wacute" unicode="&#x1e83;" horiz-adv-x="1890" 
d="M1296 -25q-211 0 -323 131q-131 -131 -345 -131q-214 1 -343 133t-129 365v223q0 76 -45 76q-20 0 -31 -10l-21 10l-36 211l10 23q74 43 170 43q270 0 270 -283v-332q0 -90 45 -140t127 -50t130 52t48 136v592h297v-588q0 -92 45 -142t121 -50q102 0 158 91q55 91 57 226
t-35 245t-94 175v23l230 143h22q100 -100 150 -250t49 -317q-5 -272 -143 -438t-384 -167zM805 1139h-17l-94 112v17l387 336h19l147 -181v-16z" />
    <glyph glyph-name="Wdieresis" unicode="&#x1e84;" horiz-adv-x="2144" 
d="M1962 1356q113 0 174 -49l8 -23l-57 -217l-19 -10q-43 16 -67 6q-21 -5 -35 -25t-41 -88l-356 -950h-234l-262 817l-264 -817h-231l-359 950q-25 61 -39 84q-33 54 -102 23l-21 10l-57 217l10 23q61 49 172 49q211 0 299 -238l230 -645l262 858h198l263 -858l231 645
q88 238 297 238zM1311 1450q-78 0 -132 55t-55 131q0 76 54 131t133 55q78 0 132 -54q54 -56 54 -132t-54 -131t-132 -55zM835 1450q-77 0 -133 55q-55 55 -55 131t55 131q54 55 132 55t133 -54q55 -56 55 -132t-55 -131t-132 -55z" />
    <glyph glyph-name="wdieresis" unicode="&#x1e85;" horiz-adv-x="1890" 
d="M1296 -25q-211 0 -323 131q-131 -131 -345 -131q-214 1 -343 133t-129 365v223q0 76 -45 76q-20 0 -31 -10l-21 10l-36 211l10 23q74 43 170 43q270 0 270 -283v-332q0 -90 45 -140t127 -50t130 52t48 136v592h297v-588q0 -92 45 -142t121 -50q102 0 158 91q55 91 57 226
t-35 245t-94 175v23l230 143h22q100 -100 150 -250t49 -317q-5 -272 -143 -438t-384 -167zM1194 1135q-74 0 -126 52t-52 126t52 126t126 52t125 -52t51 -126t-51 -126t-125 -52zM748 1135q-74 0 -126 52t-53 126q1 74 53 126t126 52t126 -52t52 -126t-52 -126t-126 -52z
" />
    <glyph glyph-name="uni1E9E" unicode="&#x1e9e;" horiz-adv-x="1398" 
d="M1335 387q0 -170 -130 -291t-330 -121t-326 95l-10 22l75 195l23 8q89 -63 195 -63t161 56t55 139t-64 135q-65 52 -185 52h-107v193l164 217q-59 45 -169 45t-173 -78t-63 -221v-770h-320v756q0 280 162 440t434 160q326 0 492 -258l-232 -295q152 -20 250 -133t98 -283
z" />
    <glyph glyph-name="Ygrave" unicode="&#x1ef2;" horiz-adv-x="1466" 
d="M1321 1071q-68 0 -129 -96l-295 -477v-498h-319v492l-306 483q-61 96 -129 96q-25 0 -59 -14l-21 10l-55 217l8 23q62 49 168 49t184 -56t152 -178l219 -350l213 350q70 119 146 176q76 58 186 58t164 -49l10 -23l-57 -217l-21 -10q-37 14 -59 14zM961 1450h-23l-487 201
v22l118 193h23l438 -275v-22z" />
    <glyph glyph-name="ygrave" unicode="&#x1ef3;" horiz-adv-x="1261" 
d="M834 1024h309v-829q0 -246 -160 -378t-412 -132q-307 0 -481 194v21l131 163h23q57 -67 145 -107q87 -40 193 -40t183 57t77 166v54q-100 -105 -268 -105t-294 103t-126 305v200q0 76 -45 76q-20 0 -31 -10l-21 10l-37 211l11 23q74 43 168 43q264 0 264 -283v-227
q0 -83 48 -135t133 -52t137 56t53 143v473zM780 1139h-16l-440 268v16l147 181h16l390 -336v-17z" />
    <glyph glyph-name="uni1EF8" unicode="&#x1ef8;" horiz-adv-x="1466" 
d="M1321 1071q-68 0 -129 -96l-295 -477v-498h-319v492l-306 483q-61 96 -129 96q-25 0 -59 -14l-21 10l-55 217l8 23q62 49 168 49t184 -56t152 -178l219 -350l213 350q70 119 146 176q76 58 186 58t164 -49l10 -23l-57 -217l-21 -10q-37 14 -59 14zM555 1753q72 0 204 -36
t165 -36q100 0 137 72h22l95 -156v-22q-72 -115 -254 -115q-58 0 -184 37t-185 37q-102 0 -143 -74h-23l-88 156v22q76 115 254 115z" />
    <glyph glyph-name="uni1EF9" unicode="&#x1ef9;" horiz-adv-x="1261" 
d="M834 1024h309v-829q0 -246 -160 -378t-412 -132q-307 0 -481 194v21l131 163h23q57 -67 145 -107q87 -40 193 -40t183 57t77 166v54q-100 -105 -268 -105t-294 103t-126 305v200q0 76 -45 76q-20 0 -31 -10l-21 10l-37 211l11 23q74 43 168 43q264 0 264 -283v-227
q0 -83 48 -135t133 -52t137 56t53 143v473zM418 1434q57 0 166 -36t155 -36q94 0 127 72h21l112 -150v-22q-90 -109 -219 -109q-57 0 -160 36t-159 36q-96 0 -129 -72h-21l-110 150v22q90 109 217 109z" />
    <glyph glyph-name="endash" unicode="&#x2013;" horiz-adv-x="1234" 
d="M111 737h1013v-245h-1013v245z" />
    <glyph glyph-name="emdash" unicode="&#x2014;" horiz-adv-x="1513" 
d="M111 737h1292v-245h-1292v245z" />
    <glyph glyph-name="quoteleft" unicode="&#x2018;" horiz-adv-x="512" 
d="M326 1108q106 -52 106 -174q0 -64 -52 -116t-131 -52t-130 55t-51 148q0 193 227 444h20l105 -88v-20q-88 -121 -94 -197z" />
    <glyph glyph-name="quoteright" unicode="&#x2019;" horiz-adv-x="507" 
d="M267 1415q79 0 130 -55t52 -148q0 -193 -228 -444h-20l-105 88v21q88 121 94 196q-46 23 -76 67t-30 95q0 76 52 128t131 52z" />
    <glyph glyph-name="quotesinglbase" unicode="&#x201a;" horiz-adv-x="530" 
d="M265 315q79 0 130 -55t51 -147q0 -193 -227 -445h-20l-105 88v21q88 121 94 196q-46 23 -76 67t-30 95q0 76 52 128t131 52z" />
    <glyph glyph-name="quotedblleft" unicode="&#x201c;" horiz-adv-x="989" 
d="M726 764q-79 0 -130 55t-51 148q0 193 227 444h21l104 -88v-20q-88 -121 -94 -197q107 -52 107 -174q0 -64 -53 -116q-52 -52 -131 -52zM326 1106q106 -52 106 -174q0 -64 -52 -116t-131 -52t-130 55t-51 148q0 193 227 444h20l105 -88v-20q-88 -121 -94 -197z" />
    <glyph glyph-name="quotedblright" unicode="&#x201d;" horiz-adv-x="985" 
d="M744 1417q79 0 130 -55t52 -148q0 -193 -228 -444h-20l-105 88v21q88 121 95 196q-47 23 -77 67t-30 95q0 76 52 128t131 52zM267 1417q79 0 130 -55t52 -148q0 -193 -228 -444h-20l-105 88v21q88 121 94 196q-46 23 -76 67t-30 95q0 76 52 128t131 52z" />
    <glyph glyph-name="quotedblbase" unicode="&#x201e;" horiz-adv-x="1007" 
d="M742 315q79 0 130 -55t52 -147q0 -193 -228 -445h-20l-105 88v21q88 121 95 196q-47 23 -77 67t-30 95q0 76 52 128t131 52zM265 315q79 0 130 -55t51 -147q0 -193 -227 -445h-20l-105 88v21q88 121 94 196q-46 23 -76 67t-30 95q0 76 52 128t131 52z" />
    <glyph glyph-name="dagger" unicode="&#x2020;" horiz-adv-x="1132" 
d="M1036 983v-233h-315v-1069h-309v1069h-316v233h316v369h309v-369h315z" />
    <glyph glyph-name="daggerdbl" unicode="&#x2021;" horiz-adv-x="1132" 
d="M1036 750h-315v-467h315v-234h-315v-368h-309v368h-316v234h316v467h-316v233h316v369h309v-369h315v-233z" />
    <glyph glyph-name="bullet" unicode="&#x2022;" horiz-adv-x="784" 
d="M392 315q-110 0 -188 77t-77 188q0 112 78 188q77 76 187 76t188 -77t78 -187t-78 -188q-78 -77 -188 -77z" />
    <glyph glyph-name="ellipsis" unicode="&#x2026;" horiz-adv-x="1576" 
d="M1305 -16q-82 0 -139 56q-56 56 -56 138t56 139t138 57t140 -56q57 -58 57 -140t-57 -138t-139 -56zM788 -16q-82 0 -138 56t-56 138t56 139t138 57t140 -56q58 -58 57 -140q1 -82 -57 -138t-140 -56zM270 -16q-82 0 -138 56t-56 138t56 139t138 57t140 -56
q58 -58 57 -140q1 -82 -57 -138t-140 -56z" />
    <glyph glyph-name="perthousand" unicode="&#x2030;" horiz-adv-x="2621" 
d="M1425 154q63 0 102 57q38 57 38 151t-38 152q-37 58 -101 57q-64 0 -102 -57q-38 -58 -38 -152t38 -151t101 -57zM2220 145q66 1 104 59t37 157q0 99 -38 157q-37 58 -103 60q-66 0 -104 -58t-37 -158q-1 -100 37 -158t104 -59zM2220 -25q-150 0 -245 108
q-95 109 -95 279t95 278t245 108t246 -106t96 -280q0 -172 -96 -280t-246 -107zM1425 -25q-151 0 -245 108q-94 107 -94 279t94 278q96 106 246 108q150 0 244 -106q95 -106 95 -280q0 -172 -95 -280t-245 -107zM264 967q0 -93 38 -151t100 -58t101 57q38 57 38 151t-38 152
q-39 58 -101 58t-100 -58t-38 -151zM276 23l1027 1308h241l12 -22l-1024 -1309h-243zM403 580q-151 0 -245 108t-95 279t95 279t246 108t244 -108q95 -108 95 -280t-95 -278q-95 -108 -245 -108z" />
    <glyph glyph-name="guilsinglleft" unicode="&#x2039;" horiz-adv-x="688" 
d="M594 907v-18l-244 -277l244 -278v-17l-145 -139h-17l-375 418v33l375 418h17z" />
    <glyph glyph-name="guilsinglright" unicode="&#x203a;" horiz-adv-x="688" 
d="M256 1047l375 -418v-33l-375 -418h-16l-146 139v17l244 278l-244 277v18l146 140h16z" />
    <glyph glyph-name="fraction" unicode="&#x2044;" horiz-adv-x="1271" 
d="M0 23l1026 1308h242l12 -22l-1024 -1309h-244z" />
    <glyph glyph-name="Euro" unicode="&#x20ac;" horiz-adv-x="1587" 
d="M956 1071q-114 0 -206 -58t-140 -157h469l17 -20l-52 -125h-473q-2 -15 -2 -39t4 -62h476l14 -20l-41 -125h-406q50 -97 140 -151t200 -54q199 0 328 162h23l198 -168v-23q-96 -121 -240 -189t-315 -67q-246 -1 -430 135t-248 355h-202l-15 22l43 123h148q-2 18 -2 52
t2 49h-144l-16 22l43 123h139q62 224 248 362t432 138q344 0 557 -260v-23l-198 -164h-23q-129 162 -328 162z" />
    <glyph glyph-name="trademark" unicode="&#x2122;" horiz-adv-x="1581" 
d="M1475 664h-170l-37 333l-146 -333h-106l-144 333l-36 -333h-170l82 667h131l192 -444l191 444h131zM61 1194v137h578v-137h-201v-530h-174v530h-203z" />
    <glyph glyph-name="minus" unicode="&#x2212;" horiz-adv-x="1255" 
d="M117 776h1024v-217h-1024v217z" />
    <glyph glyph-name="approxequal" unicode="&#x2248;" horiz-adv-x="1239" 
d="M851 305q-81 0 -234 36t-226 36q-121 0 -168 -72h-24l-90 156v22q27 33 50 54q24 19 85 39t148 20t249 -36t203 -36q123 0 170 72h24l90 -156v-22q-28 -33 -50 -52t-84 -40t-143 -21zM851 739q-81 0 -234 36t-226 36q-121 0 -168 -72h-24l-90 156v23q27 33 50 53
q24 19 85 39t148 20t249 -36t203 -36q123 0 170 72h24l90 -156v-22q-28 -33 -50 -52t-84 -40t-143 -21z" />
    <glyph glyph-name="notequal" unicode="&#x2260;" horiz-adv-x="1259" 
d="M1176 764h-371l-117 -197h488v-217h-617l-162 -270h-225l-8 20l149 250h-229v217h358l117 197h-475v217h606l148 248h227l6 -19l-137 -229h242v-217z" />
    <glyph glyph-name="uniF8FF" unicode="&#xf8ff;" horiz-adv-x="2758" 
d="M1305 381q-47 0 -48 -62q0 -17 9 -55q79 12 77 74q0 43 -38 43zM1884 350v8q2 4 2 9q0 39 -37 39q-45 0 -45 -56h80zM2200 518q14 0 14 12t-14 13h-17v-25h17zM2167 557h33q31 0 30 -25q0 -18 -16 -24l16 -27h-18l-14 23h-15v-23h-16v76zM2195 457q25 0 43 18t19 43
q-1 25 -19 43q-18 19 -43 19t-43 -18t-18 -44q0 -25 18 -43t43 -18zM2120 518q0 32 22 54t54 22q30 0 53 -23t23 -53t-24 -54q-22 -22 -53 -22t-53 22t-22 54zM1591 346q0 260 252 260q105 0 167 -61t63 -172q0 -19 -11 -74h-245q6 -50 88 -50q81 1 106 32v-150
q-4 -4 -44 -18t-103 -15q-137 0 -205 67t-68 181zM1040 12q0 295 11 420l12 158h160l6 -60q8 -43 8 -94q29 170 160 170q75 0 117 -60t42 -182t-68 -194t-192 -72q0 -14 2 -22l2 -64h-260zM717 590q-4 -78 -4 -216q0 -54 32 -55q31 0 31 54l-2 60v50q-2 31 -2 107h217l6 -82
q6 -78 6 -220q1 -142 -73 -209t-234 -67q-88 0 -133 14t-57 29v170q45 -37 136 -38t136 36q20 16 23 37q-8 -6 -23 -16q-33 -14 -94 -15q-190 0 -190 152v16h-93l4 -125q25 0 58 13v-152q-33 -33 -137 -35q-150 0 -150 131l4 168h-55v170l248 82l8 -59h338zM2389 817
q48 1 48 59t-48 58t-48 -58t48 -59zM664 817q49 1 49 59t-49 58q-43 0 -43 -58t43 -59zM2142 901q0 254 246 254q140 0 194 -68q54 -67 54 -183t-62 -182t-185 -65q-123 -1 -185 65t-62 179zM1599 670q0 320 23 477h156l6 -51q6 -92 6 -101l4 21q17 50 39 80q45 59 125 59
t114 -48t35 -159l4 -278h-229l4 192q0 51 -33 51t-32 -51l10 -192h-232zM586 657q-182 0 -183 230q-1 133 63 201t208 67q238 0 237 -229v-256h-155l-19 118q-25 -131 -151 -131zM938 965v170l238 73l8 -61h352q8 -105 12 -157t4 -320h-233q0 248 4 295h-117l4 -129
q0 -4 20 -4q20 -1 38 8v-148q-2 -8 -30 -21t-97 -14q-160 0 -160 131l4 177h-47zM127 670q0 303 10 446l13 182h194q2 -46 11 -210t10 -418h-238zM1436 1174q-53 0 -87 36t-34 87q0 52 34 87t87 35t87 -35q33 -35 33 -87t-33 -88q-34 -35 -87 -35z" />
    <glyph glyph-name="H.ss01" horiz-adv-x="1630" 
d="M1423 373q1 -113 51 -113q26 0 48 14l18 -10l45 -223l-12 -23q-69 -43 -193 -43t-200 82t-76 230v248h-580v-535h-319v958q0 113 -55 113q-27 0 -41 -14l-21 10l-45 223l12 23q72 43 197 43t199 -83t73 -229v-245h580v532h319v-958z" />
    <glyph glyph-name="Hbar.ss01" horiz-adv-x="1630" 
d="M524 799h580v139h-580v-139zM1423 373q1 -113 51 -113q26 0 48 14l18 -10l45 -223l-12 -23q-69 -43 -193 -43t-200 82t-76 230v248h-580v-535h-319v958q0 113 -55 113q-27 0 -41 -14l-21 10l-45 223l12 23q72 43 181 43q231 0 278 -215h590v190h319v-958z" />
    <glyph glyph-name="N.ss01" 
d="M1085 1331h320v-1331h-231l-639 797v-510q0 -147 -76 -229.5t-198.5 -82.5t-192.5 43l-13 23l45 223l19 10q20 -14 47 -14q51 0 51 113v958h229l639 -799v799z" />
    <glyph glyph-name="Nacute.ss01" 
d="M1085 1331h320v-1331h-231l-639 797v-510q0 -147 -76 -229.5t-198.5 -82.5t-192.5 43l-13 23l45 223l19 10q20 -14 47 -14q51 0 51 113v958h229l639 -799v799zM614 1450h-22l-70 119v22l439 275h22l119 -193v-22z" />
    <glyph glyph-name="Ncaron.ss01" 
d="M1085 1331h320v-1331h-231l-639 797v-510q0 -147 -76 -229.5t-198.5 -82.5t-192.5 43l-13 23l45 223l19 10q20 -14 47 -14q51 0 51 113v958h229l639 -799v799zM827 1450h-26l-379 219v23l78 127h22l293 -140l293 140h22l76 -127v-23z" />
    <glyph glyph-name="Ncommaaccent.ss01" 
d="M692 -102h238l14 -17l-125 -360l-20 -19h-164l-17 19l56 360zM1085 1331h320v-1331h-231l-639 797v-510q0 -147 -76 -229.5t-198.5 -82.5t-192.5 43l-13 23l45 223l19 10q20 -14 47 -14q51 0 51 113v958h229l639 -799v799z" />
    <glyph glyph-name="Eng.ss01" 
d="M1085 1331h320v-1376q0 -197 -134 -322t-329 -125q-104 0 -212 40t-167 124v25l176 170h25q57 -94 174 -94q80 0 129 53t49 137v109l-581 725v-510q0 -147 -76 -229q-77 -82 -199 -83q-122 0 -192 43l-13 23l45 223l19 10q20 -14 47 -14q51 0 51 113v958h229l639 -799
v799z" />
    <glyph glyph-name="Ntilde.ss01" 
d="M1085 1331h320v-1331h-231l-639 797v-510q0 -147 -76 -229.5t-198.5 -82.5t-192.5 43l-13 23l45 223l19 10q20 -14 47 -14q51 0 51 113v958h229l639 -799v799zM629 1753q72 0 204 -36t164 -36q100 0 138 72h22l94 -156v-22q-72 -115 -254 -115q-59 0 -184 37t-184 37
q-103 0 -144 -74h-22l-88 156v22q76 115 254 115z" />
    <glyph glyph-name="Q.ss01" horiz-adv-x="1597" 
d="M395 666q0 -174 117 -288t287 -114q171 0 287 114t116 288t-117 288t-287 113q-170 1 -286 -113q-117 -114 -117 -288zM1589 -219q-90 -84 -244 -84t-368 182q-112 96 -178 96q-311 0 -520 197t-209 494q0 298 209 494t520 196t520 -197t209 -493q0 -190 -93 -348
t-253 -246q8 -6 34 -28q82 -71 151 -71t106 37l22 -8l102 -199z" />
    <glyph glyph-name="W.ss01" horiz-adv-x="2131" 
d="M178 1356q110 0 178 -58t123 -180l283 -651l115 274l-244 570l12 20h270l150 -411l152 411h270l12 -20l-244 -570l115 -274l283 651q55 123 123 180q68 58 178 58t172 -49l8 -23l-55 -217l-21 -10q-68 27 -98 -22q-14 -22 -43 -85l-412 -950h-233l-207 547l-205 -547
h-233l-412 950q-27 66 -41 86q-33 48 -100 21l-21 10l-55 217l8 23q61 49 172 49z" />
    <glyph glyph-name="Wacute.ss01" horiz-adv-x="2131" 
d="M178 1356q110 0 178 -58t123 -180l283 -651l115 274l-244 570l12 20h270l150 -411l152 411h270l12 -20l-244 -570l115 -274l283 651q55 123 123 180q68 58 178 58t172 -49l8 -23l-55 -217l-21 -10q-68 27 -98 -22q-14 -22 -43 -85l-412 -950h-233l-207 547l-205 -547
h-233l-412 950q-27 66 -41 86q-33 48 -100 21l-21 10l-55 217l8 23q61 49 172 49zM1212 1866h23l119 -193v-22l-488 -201h-22l-70 119v22z" />
    <glyph glyph-name="Wcircumflex.ss01" horiz-adv-x="2131" 
d="M178 1356q110 0 178 -58t123 -180l283 -651l115 274l-244 570l12 20h270l150 -411l152 411h270l12 -20l-244 -570l115 -274l283 651q55 123 123 180q68 58 178 58t172 -49l8 -23l-55 -217l-21 -10q-68 27 -98 -22q-14 -22 -43 -85l-412 -950h-233l-207 547l-205 -547
h-233l-412 950q-27 66 -41 86q-33 48 -100 21l-21 10l-55 217l8 23q61 49 172 49zM772 1444h-22l-78 127v22l379 219h26l379 -219v-22l-76 -127h-22l-293 139z" />
    <glyph glyph-name="Wdieresis.ss01" horiz-adv-x="2131" 
d="M178 1356q110 0 178 -58t123 -180l283 -651l115 274l-244 570l12 20h270l150 -411l152 411h270l12 -20l-244 -570l115 -274l283 651q55 123 123 180q68 58 178 58t172 -49l8 -23l-55 -217l-21 -10q-68 27 -98 -22q-14 -22 -43 -85l-412 -950h-233l-207 547l-205 -547
h-233l-412 950q-27 66 -41 86q-33 48 -100 21l-21 10l-55 217l8 23q61 49 172 49zM1303 1450q-78 0 -133 55q-54 55 -54 131t54 131t132 55t133 -54q54 -56 54 -132t-54 -131t-132 -55zM826 1450q-77 0 -132 55t-55 131t55 131t132 55t132 -54q56 -56 56 -132t-56 -131
t-132 -55z" />
    <glyph glyph-name="Wgrave.ss01" horiz-adv-x="2131" 
d="M178 1356q110 0 178 -58t123 -180l283 -651l115 274l-244 570l12 20h270l150 -411l152 411h270l12 -20l-244 -570l115 -274l283 651q55 123 123 180q68 58 178 58t172 -49l8 -23l-55 -217l-21 -10q-68 27 -98 -22q-14 -22 -43 -85l-412 -950h-233l-207 547l-205 -547
h-233l-412 950q-27 66 -41 86q-33 48 -100 21l-21 10l-55 217l8 23q61 49 172 49zM918 1866l438 -275v-22l-70 -119h-22l-488 201v22l119 193h23z" />
    <glyph glyph-name="N.ss02" horiz-adv-x="1599" 
d="M1442 1071q-48 0 -47 -113v-958h-232l-639 797v-510q0 -147 -75.5 -229.5t-198.5 -82.5t-193 43l-12 23l45 223l19 10q20 -14 47 -14q51 0 51 113v958h229l639 -799v512q0 145 75 228.5t198.5 83.5t195.5 -43l10 -23l-43 -223l-20 -10q-23 14 -49 14z" />
    <glyph glyph-name="Nacute.ss02" horiz-adv-x="1599" 
d="M1442 1071q-48 0 -47 -113v-958h-232l-639 797v-510q0 -147 -75.5 -229.5t-198.5 -82.5t-193 43l-12 23l45 223l19 10q20 -14 47 -14q51 0 51 113v958h229l639 -799v512q0 145 75 228.5t198.5 83.5t195.5 -43l10 -23l-43 -223l-20 -10q-23 14 -49 14zM639 1450h-23
l-69 119v22l438 275h23l118 -193v-22z" />
    <glyph glyph-name="Ncaron.ss02" horiz-adv-x="1599" 
d="M1442 1071q-48 0 -47 -113v-958h-232l-639 797v-510q0 -147 -75.5 -229.5t-198.5 -82.5t-193 43l-12 23l45 223l19 10q20 -14 47 -14q51 0 51 113v958h229l639 -799v512q0 145 75 228.5t198.5 83.5t195.5 -43l10 -23l-43 -223l-20 -10q-23 14 -49 14zM852 1450h-27
l-379 219v23l78 127h23l293 -140l293 140h22l76 -127v-23z" />
    <glyph glyph-name="Ncommaaccent.ss02" horiz-adv-x="1599" 
d="M682 -102h238l14 -17l-125 -360l-21 -19h-163l-17 19l56 360zM1442 1071q-48 0 -47 -113v-958h-232l-639 797v-510q0 -147 -75.5 -229.5t-198.5 -82.5t-193 43l-12 23l45 223l19 10q20 -14 47 -14q51 0 51 113v958h229l639 -799v512q0 145 75 228.5t198.5 83.5t195.5 -43
l10 -23l-43 -223l-20 -10q-23 14 -49 14z" />
    <glyph glyph-name="Eng.ss02" horiz-adv-x="1599" 
d="M1442 1071q-48 0 -47 -113v-1003q0 -197 -134.5 -322t-328.5 -125q-104 0 -212 40t-167 124v25l176 170h25q57 -94 174 -94q80 0 129 53t49 137v109l-582 725v-510q0 -147 -75.5 -229.5t-198.5 -82.5t-193 43l-12 23l45 223l19 10q20 -14 47 -14q51 0 51 113v958h229
l639 -799v512q0 145 75 228.5t198.5 83.5t195.5 -43l10 -23l-43 -223l-20 -10q-23 14 -49 14z" />
    <glyph glyph-name="Ntilde.ss02" horiz-adv-x="1599" 
d="M1442 1071q-48 0 -47 -113v-958h-232l-639 797v-510q0 -147 -75.5 -229.5t-198.5 -82.5t-193 43l-12 23l45 223l19 10q20 -14 47 -14q51 0 51 113v958h229l639 -799v512q0 145 75 228.5t198.5 83.5t195.5 -43l10 -23l-43 -223l-20 -10q-23 14 -49 14zM653 1753
q72 0 204 -36t165 -36q100 0 137 72h23l94 -156v-22q-72 -115 -254 -115q-59 0 -184 37t-185 37q-102 0 -143 -74h-23l-88 156v22q76 115 254 115z" />
    <glyph glyph-name="i.loclTRK" horiz-adv-x="565" 
d="M125 0v1024h315v-1024h-315zM283 1139q-82 0 -139 56q-56 56 -56 138q0 81 56 139t138 58t140 -57q57 -57 57 -139t-57 -139q-57 -56 -139 -56z" />
    <glyph glyph-name="e.ss01" horiz-adv-x="1173" 
d="M631 819q-88 0 -159 -54t-93 -157q123 -61 230.5 -61t158.5 37t51 99t-50 99t-138 37zM61 512q0 236 160 386.5t396.5 150.5t364.5 -91.5t128 -241.5t-132 -243.5t-351 -93.5q-111 0 -250 51q25 -104 103.5 -162.5t189.5 -58.5q149 0 260 104h22l142 -137v-22
q-164 -178 -461 -179q-256 0 -414 150.5t-158 386.5z" />
    <glyph glyph-name="eacute.ss01" horiz-adv-x="1173" 
d="M631 819q-88 0 -159 -54t-93 -157q123 -61 230.5 -61t158.5 37t51 99t-50 99t-138 37zM61 512q0 236 160 386.5t396.5 150.5t364.5 -91.5t128 -241.5t-132 -243.5t-351 -93.5q-111 0 -250 51q25 -104 103.5 -162.5t189.5 -58.5q149 0 260 104h22l142 -137v-22
q-164 -178 -461 -179q-256 0 -414 150.5t-158 386.5zM465 1139h-16l-95 112v17l387 336h19l147 -181v-16z" />
    <glyph glyph-name="ecaron.ss01" horiz-adv-x="1173" 
d="M631 819q-88 0 -159 -54t-93 -157q123 -61 230.5 -61t158.5 37t51 99t-50 99t-138 37zM61 512q0 236 160 386.5t396.5 150.5t364.5 -91.5t128 -241.5t-132 -243.5t-351 -93.5q-111 0 -250 51q25 -104 103.5 -162.5t189.5 -58.5q149 0 260 104h22l142 -137v-22
q-164 -178 -461 -179q-256 0 -414 150.5t-158 386.5zM647 1139h-33l-360 209v16l108 133h17l252 -123l252 123h16l111 -133v-16z" />
    <glyph glyph-name="ecircumflex.ss01" horiz-adv-x="1173" 
d="M631 819q-88 0 -159 -54t-93 -157q123 -61 230.5 -61t158.5 37t51 99t-50 99t-138 37zM61 512q0 236 160 386.5t396.5 150.5t364.5 -91.5t128 -241.5t-132 -243.5t-351 -93.5q-111 0 -250 51q25 -104 103.5 -162.5t189.5 -58.5q149 0 260 104h22l142 -137v-22
q-164 -178 -461 -179q-256 0 -414 150.5t-158 386.5zM379 1139h-17l-108 133v16l360 209h33l363 -209v-16l-111 -133h-16l-252 123z" />
    <glyph glyph-name="edieresis.ss01" horiz-adv-x="1173" 
d="M631 819q-88 0 -159 -54t-93 -157q123 -61 230.5 -61t158.5 37t51 99t-50 99t-138 37zM61 512q0 236 160 386.5t396.5 150.5t364.5 -91.5t128 -241.5t-132 -243.5t-351 -93.5q-111 0 -250 51q25 -104 103.5 -162.5t189.5 -58.5q149 0 260 104h22l142 -137v-22
q-164 -178 -461 -179q-256 0 -414 150.5t-158 386.5zM854 1135q-74 0 -126 52t-52 125.5t52 126t126 52.5t125 -52.5t51 -126t-51 -125.5t-125 -52zM407.5 1135q-73.5 0 -126 52t-52.5 125.5t52.5 126t126 52.5t126 -52.5t52.5 -126t-52.5 -125.5t-126 -52z" />
    <glyph glyph-name="edotaccent.ss01" horiz-adv-x="1173" 
d="M631 819q-88 0 -159 -54t-93 -157q123 -61 230.5 -61t158.5 37t51 99t-50 99t-138 37zM61 512q0 236 160 386.5t396.5 150.5t364.5 -91.5t128 -241.5t-132 -243.5t-351 -93.5q-111 0 -250 51q25 -104 103.5 -162.5t189.5 -58.5q149 0 260 104h22l142 -137v-22
q-164 -178 -461 -179q-256 0 -414 150.5t-158 386.5zM631 1139q-82 0 -138.5 56t-56.5 138t56.5 139.5t138.5 57.5t139 -57.5t57 -139.5t-57 -138t-139 -56z" />
    <glyph glyph-name="egrave.ss01" horiz-adv-x="1173" 
d="M631 819q-88 0 -159 -54t-93 -157q123 -61 230.5 -61t158.5 37t51 99t-50 99t-138 37zM61 512q0 236 160 386.5t396.5 150.5t364.5 -91.5t128 -241.5t-132 -243.5t-351 -93.5q-111 0 -250 51q25 -104 103.5 -162.5t189.5 -58.5q149 0 260 104h22l142 -137v-22
q-164 -178 -461 -179q-256 0 -414 150.5t-158 386.5zM811 1139h-16l-441 268v16l148 181h16l389 -336v-17z" />
    <glyph glyph-name="emacron.ss01" horiz-adv-x="1173" 
d="M631 819q-88 0 -159 -54t-93 -157q123 -61 230.5 -61t158.5 37t51 99t-50 99t-138 37zM61 512q0 236 160 386.5t396.5 150.5t364.5 -91.5t128 -241.5t-132 -243.5t-351 -93.5q-111 0 -250 51q25 -104 103.5 -162.5t189.5 -58.5q149 0 260 104h22l142 -137v-22
q-164 -178 -461 -179q-256 0 -414 150.5t-158 386.5zM969 1358v-193h-678v193h678z" />
    <glyph glyph-name="eogonek.ss01" horiz-adv-x="1173" 
d="M631 819q-88 0 -159 -54t-93 -157q123 -61 230.5 -61t158.5 37t51 99t-50 99t-138 37zM657 -222q0 -34 25 -58.5t69 -25.5t87 38h22l78 -109v-22q-84 -80 -216 -80t-212 66.5t-80 172.5t143 217q-231 18 -371.5 166t-140.5 376.5t160 379t396.5 150.5t364.5 -91.5
t128 -241.5t-132 -243.5t-351 -93.5q-111 0 -250 51q25 -104 103.5 -162.5t189.5 -58.5q149 0 260 104h22l142 -137v-22q-78 -84 -187 -129q-130 -87 -175.5 -124.5t-60 -63t-14.5 -59.5z" />
    <glyph glyph-name="f.ss01" horiz-adv-x="821" 
d="M670 1182q-64 0 -110 -45t-46 -127v-4h287v-234h-287v-1087h-315v1087h-176v234h176v4q0 209 127 315t307 107q129 0 221 -46l12 -22l-61 -201l-21 -10q-50 29 -114 29z" />
    <glyph glyph-name="i.ss01" horiz-adv-x="653" 
d="M422 -25q-114 0 -184 78t-70 221v422q0 76 -47 76q-18 0 -29 -10l-20 10l-39 211l12 23q74 43 166 43q272 0 272 -283v-438q0 -76 47 -76q16 0 31 10l19 -10l38 -211l-12 -23q-70 -43 -184 -43zM293 1139q-82 0 -138 56t-57 138q0 81 56 139t139 58q82 0 139 -57t57 -139
t-57 -139q-57 -56 -139 -56z" />
    <glyph glyph-name="dotlessi.ss01" horiz-adv-x="653" 
d="M422 -25q-114 0 -184 78t-70 221v422q0 76 -47 76q-18 0 -29 -10l-20 10l-39 211l12 23q74 43 166 43q272 0 272 -283v-438q0 -76 47 -76q16 0 31 10l19 -10l38 -211l-12 -23q-70 -43 -184 -43z" />
    <glyph glyph-name="iacute.ss01" horiz-adv-x="653" 
d="M422 -25q-114 0 -184 78t-70 221v422q0 76 -47 76q-18 0 -29 -10l-20 10l-39 211l12 23q74 43 166 43q272 0 272 -283v-438q0 -76 47 -76q16 0 31 10l19 -10l38 -211l-12 -23q-70 -43 -184 -43zM422 1604h18l148 -181v-16l-443 -268h-16l-94 112v17z" />
    <glyph glyph-name="icircumflex.ss01" horiz-adv-x="653" 
d="M422 -25q-114 0 -184 78t-70 221v422q0 76 -47 76q-18 0 -29 -10l-20 10l-39 211l12 23q74 43 166 43q272 0 272 -283v-438q0 -76 47 -76q17 0 31 10l19 -10l38 -211l-12 -23q-70 -43 -184 -43zM309 1497l332 -209v-16l-102 -133h-15l-229 123l-232 -123h-16l-98 133v16
l330 209h30z" />
    <glyph glyph-name="idieresis.ss01" horiz-adv-x="653" 
d="M422 -25q-114 0 -184 78t-70 221v422q0 76 -47 76q-18 0 -29 -10l-20 10l-39 211l12 23q74 43 166 43q272 0 272 -283v-438q0 -76 47 -76q16 0 31 10l19 -10l38 -211l-12 -23q-70 -43 -184 -43zM516 1135q-74 0 -126 52t-52 126t52 126t126 52t125 -52t51 -126t-51 -126
t-125 -52zM70 1135q-74 0 -126 52t-53 126q1 74 53 126t126 52t126 -52t52 -126t-52 -126t-126 -52z" />
    <glyph glyph-name="igrave.ss01" horiz-adv-x="653" 
d="M422 -25q-114 0 -184 78t-70 221v422q0 76 -47 76q-18 0 -29 -10l-20 10l-39 211l12 23q74 43 166 43q272 0 272 -283v-438q0 -76 47 -76q16 0 31 10l19 -10l38 -211l-12 -23q-70 -43 -184 -43zM143 1604l389 -336v-17l-96 -112h-16l-440 268v16l147 181h16z" />
    <glyph glyph-name="ij.ss01" horiz-adv-x="1277" 
d="M1157 1024v-780q0 -244 -61 -356t-250 -195h-23l-118 227v23q87 43 111 104t24 225v519h-140v233h457zM422 -25q-114 0 -184 78t-70 221v422q0 76 -47 76q-18 0 -29 -10l-20 10l-39 211l12 23q74 43 166 43q272 0 272 -283v-438q0 -76 47 -76q17 0 31 10l19 -10l38 -211
l-12 -23q-70 -43 -184 -43zM967 1139q-82 0 -139 56q-56 56 -56 138q0 81 56 139t138 58t140 -57q57 -57 57 -139t-57 -139q-57 -56 -139 -56zM293 1139q-82 0 -138 56t-57 138q0 81 56 139t139 58q82 0 139 -57t57 -139t-57 -139q-57 -56 -139 -56z" />
    <glyph glyph-name="imacron.ss01" horiz-adv-x="653" 
d="M422 -25q-114 0 -184 78t-70 221v422q0 76 -47 76q-18 0 -29 -10l-20 10l-39 211l12 23q74 43 166 43q272 0 272 -283v-438q0 -76 47 -76q16 0 31 10l19 -10l38 -211l-12 -23q-70 -43 -184 -43zM-37 1358h655v-193h-655v193z" />
    <glyph glyph-name="iogonek.ss01" horiz-adv-x="653" 
d="M129 -244q0 52 33 102q34 50 66 78t85 64q-145 66 -145 274v422q0 76 -47 76q-18 0 -29 -10l-20 10l-39 211l12 23q74 43 166 43q272 0 272 -283v-438q0 -76 47 -76q16 0 31 10l19 -10l38 -211l-12 -23q-145 -97 -196 -141t-53 -92q-1 -47 24 -72t69 -25t87 38h22
l78 -109v-23q-84 -80 -216 -80t-212 68q-80 66 -80 174zM293 1139q-82 0 -138 56t-57 138q0 81 56 139t139 58q82 0 139 -57t57 -139t-57 -139q-57 -56 -139 -56z" />
    <glyph glyph-name="itilde.ss01" horiz-adv-x="653" 
d="M422 -25q-114 0 -184 78t-70 221v422q0 76 -47 76q-18 0 -29 -10l-20 10l-39 211l12 23q74 43 166 43q272 0 272 -283v-438q0 -76 47 -76q16 0 31 10l19 -10l38 -211l-12 -23q-70 -43 -184 -43zM117 1434q55 0 161 -36t150 -36q90 0 123 72h20l109 -150v-22
q-90 -109 -213 -109q-53 0 -153 36t-156 36q-94 0 -123 -72h-21l-106 150v22q86 109 209 109z" />
    <glyph glyph-name="k.ss01" horiz-adv-x="1179" 
d="M1020 -25q-168 0 -287 144l-237 289l-56 -64v-344h-317v1065q0 78 -47 78q-18 0 -29 -13l-20 13l-37 211l10 22q74 43 186.5 43t183 -70.5t70.5 -211.5v-514l336 401h330l12 -20l-383 -433l232 -262q55 -57 92 -57t57 16l21 -10l39 -223l-13 -23q-59 -37 -143 -37z" />
    <glyph glyph-name="kcommaaccent.ss01" horiz-adv-x="1179" 
d="M528 -102h238l14 -17l-125 -360l-20 -19h-164l-16 19l55 360zM1020 -25q-168 0 -287 144l-237 289l-56 -64v-344h-317v1065q0 78 -47 78q-18 0 -29 -13l-20 13l-37 211l10 22q74 43 186.5 43t183 -70.5t70.5 -211.5v-514l336 401h330l12 -20l-383 -433l232 -262
q55 -57 92 -57t57 16l21 -10l39 -223l-13 -23q-59 -37 -143 -37z" />
    <glyph glyph-name="v.ss01" horiz-adv-x="1257" 
d="M180 1049q106 0 178 -73t125 -231l146 -399l155 399q60 164 124 234t170 70t165 -37l12 -23l-41 -223l-20 -10q-18 18 -53 16q-57 0 -101 -104l-280 -668h-262l-281 668q-43 104 -100 104q-33 2 -54 -16l-20 10l-41 223l12 23q60 37 166 37z" />
    <glyph glyph-name="y.ss01" horiz-adv-x="1286" 
d="M356 -315q-104 0 -178 43l-12 22l61 193l19 10q41 -23 80 -23q104 0 151 99l29 57l-279 582q-47 104 -98 104q-37 2 -55 -16l-21 10l-41 223l13 23q55 37 163 37t179 -73q72 -73 141 -231l154 -344l149 344q61 142 91 189t55 66q65 47 160 48q96 1 151 -36l12 -23
l-41 -223l-20 -10q-18 18 -54 16q-55 0 -100 -104l-322 -713q-123 -270 -387 -270z" />
    <glyph glyph-name="yacute.ss01" horiz-adv-x="1286" 
d="M356 -315q-104 0 -178 43l-12 22l61 193l19 10q41 -23 80 -23q104 0 151 99l29 57l-279 582q-47 104 -98 104q-37 2 -55 -16l-21 10l-41 223l13 23q55 37 163 37t179 -73q72 -73 141 -231l154 -344l149 344q61 142 91 189t55 66q65 47 160 48q96 1 151 -36l12 -23
l-41 -223l-20 -10q-18 18 -54 16q-55 0 -100 -104l-322 -713q-123 -270 -387 -270zM461 1139h-17l-94 112v17l387 336h19l147 -181v-16z" />
    <glyph glyph-name="ycircumflex.ss01" horiz-adv-x="1286" 
d="M356 -315q-104 0 -178 43l-12 22l61 193l19 10q41 -23 80 -23q104 0 151 99l29 57l-279 582q-47 104 -98 104q-37 2 -55 -16l-21 10l-41 223l13 23q55 37 163 37t179 -73q72 -73 141 -231l154 -344l149 344q61 142 91 189t55 66q65 47 160 48q96 1 151 -36l12 -23
l-41 -223l-20 -10q-18 18 -54 16q-55 0 -100 -104l-322 -713q-123 -270 -387 -270zM375 1139h-17l-108 133v16l360 209h33l363 -209v-16l-111 -133h-16l-252 123z" />
    <glyph glyph-name="ydieresis.ss01" horiz-adv-x="1286" 
d="M356 -315q-104 0 -178 43l-12 22l61 193l19 10q41 -23 80 -23q104 0 151 99l29 57l-279 582q-47 104 -98 104q-37 2 -55 -16l-21 10l-41 223l13 23q55 37 163 37t179 -73q72 -73 141 -231l154 -344l149 344q61 142 91 189t55 66q65 47 160 48q96 1 151 -36l12 -23
l-41 -223l-20 -10q-18 18 -54 16q-55 0 -100 -104l-322 -713q-123 -270 -387 -270zM850 1135q-74 0 -126 52t-52 126t52 126t126 52t125 -52t51 -126t-51 -126t-125 -52zM403 1135q-73 0 -125 52t-53 126q1 74 53 126t126 52t125 -52q53 -52 53 -126t-52 -126t-127 -52z" />
    <glyph glyph-name="ygrave.ss01" horiz-adv-x="1286" 
d="M356 -315q-104 0 -178 43l-12 22l61 193l19 10q41 -23 80 -23q104 0 151 99l29 57l-279 582q-47 104 -98 104q-37 2 -55 -16l-21 10l-41 223l13 23q55 37 163 37t179 -73q72 -73 141 -231l154 -344l149 344q61 142 91 189t55 66q65 47 160 48q96 1 151 -36l12 -23
l-41 -223l-20 -10q-18 18 -54 16q-55 0 -100 -104l-322 -713q-123 -270 -387 -270zM807 1139h-16l-441 268v16l148 181h16l389 -336v-17z" />
    <glyph glyph-name="uni1EF9.ss01" horiz-adv-x="1286" 
d="M356 -315q-104 0 -178 43l-12 22l61 193l19 10q41 -23 80 -23q104 0 151 99l29 57l-279 582q-47 104 -98 104q-37 2 -55 -16l-21 10l-41 223l13 23q55 37 163 37t179 -73q72 -73 141 -231l154 -344l149 344q61 142 91 189t55 66q65 47 160 48q96 1 151 -36l12 -23
l-41 -223l-20 -10q-18 18 -54 16q-55 0 -100 -104l-322 -713q-123 -270 -387 -270zM444 1434q57 0 166 -36t156 -36q94 0 127 72h20l113 -150v-22q-90 -109 -219 -109q-57 0 -161 36t-159 36q-96 0 -129 -72h-20l-111 150v22q90 109 217 109z" />
    <glyph glyph-name="f_b" horiz-adv-x="2048" 
d="M1163 512q1 -122 71 -194t180 -72t180 76t69 190q0 114 -69 190q-70 76 -180 76t-180 -72t-71 -194zM1475 1049q223 0 367 -155t144 -382t-144 -382q-146 -155 -358 -155t-356 138v-113h-266v1135q-51 47 -157 47q-172 0 -179 -158h242v-233h-242l-2 -816
q0 -143 -70 -221t-202 -78q-94 0 -168 43l-10 23l37 211l20 10q10 -10 31 -10q45 0 45 76v762h-176v233h176v4q0 193 136 299q137 107 365 107t348 -88t120 -254v-142q131 99 299 99z" />
    <glyph glyph-name="f_h" horiz-adv-x="2033" 
d="M1812 -25q-114 0 -184 72t-69 213v324q-1 88 -51 142t-138 54t-140 -54t-52 -142v-584h-314v1135q-51 47 -155 47q-174 0 -181 -158h240v-233h-240l-2 -816q0 -143 -70 -221t-184 -78t-184 43l-12 23l39 211l18 10q14 -10 31 -10q47 0 47 76v762h-180v233h180v4
q0 193 135 299q136 107 364 107t348 -88t120 -254v-113q119 70 262 70q198 0 316 -121t118 -322v-278q0 -76 47 -76q16 0 31 10l18 -10l39 -211l-12 -23q-71 -43 -185 -43z" />
    <glyph glyph-name="f_k" horiz-adv-x="1966" 
d="M1178 637v-100h196q80 0 129 40t49 103t-46 102t-132 39t-141 -50t-55 -134zM1767 -25q-174 0 -286 144l-191 239h-112v-358h-314v1135q-51 47 -155 47q-174 0 -181 -158h240v-233h-240l-2 -816q0 -143 -70 -221t-184 -78t-184 43l-12 23l39 211l18 10q14 -10 31 -10
q47 0 47 76v762h-180v233h180v4q0 193 135 299q136 107 364 107t348 -88t120 -254v-109q120 66 290 66q170 -1 280 -93t110 -245q0 -101 -60 -183t-164 -125l82 -94q55 -57 91 -57t57 16l20 -10l39 -223l-12 -23q-59 -37 -144 -37z" />
    <glyph glyph-name="f_t" horiz-adv-x="1585" 
d="M1231 1024h301v-233h-301v-385q0 -78 35 -120t84 -42t96 30l20 -10l88 -194l-10 -23q-100 -72 -252 -72q-152 -1 -263 103q-112 104 -111 295v418h-394v-816q0 -143 -70 -221t-202 -78q-94 0 -168 43l-10 23l37 211l20 10q10 -10 29 -10q47 0 47 76v762h-176v233h178v35
q0 195 119 292t290 97q109 0 197 -41l10 -23l-59 -198l-21 -12q-45 24 -96 24t-87 -36t-36 -105v-33h392v293l290 39l23 -15v-317z" />
    <glyph glyph-name="ordfeminine.ss01" horiz-adv-x="921" 
d="M418 862q64 0 107 43q42 43 42 115t-42 115q-43 43 -107 43t-105 -45t-41 -113t41 -113t105 -45zM739 690q-102 0 -141 82q-90 -84 -221 -84t-221 95t-90 237t90 237t218 95t220 -82v67h166v-419q0 -53 33 -54q12 0 20 8l12 -6l25 -133l-6 -16q-45 -27 -105 -27z" />
    <glyph glyph-name="ampersand.ss01" horiz-adv-x="1366" 
d="M1331 750v-209h-135q25 -68 25 -127q0 -195 -157 -317t-417 -122t-421 123t-160 318q0 242 237 364q-109 92 -109 237t126 241q124 96 319 98q250 0 412 -189v-24l-138 -123h-28q-111 125 -238 125q-78 0 -126 -40q-48 -41 -48 -105t47 -104t123 -40h62v-223h-62
q-113 1 -187 -59t-73 -150q0 -90 74 -150q75 -60 187 -59q112 0 184 60t73 137q0 77 -45 129v209h475z" />
    <glyph glyph-name="uni0326.001" horiz-adv-x="0" 
d="M-352 1456l18 19h238l14 -19l-141 -407l-21 -19h-155l-15 19z" />
    <glyph glyph-name="acute.case" horiz-adv-x="716" 
d="M506 1546h22l119 -192v-23l-487 -201h-23l-69 119v23z" />
    <glyph glyph-name="breve.case" horiz-adv-x="862" 
d="M430 1143q-145 0 -248 95q-102 95 -119 245h199q12 -74 57 -118t111 -44t111 44t57 118h199q-16 -150 -119 -245t-248 -95z" />
    <glyph glyph-name="caron.case" horiz-adv-x="913" 
d="M772 1516l76 -127v-23l-379 -219h-27l-379 219v23l78 127h23l293 -140l293 140h22z" />
    <glyph glyph-name="circumflex.case" horiz-adv-x="913" 
d="M465 1509l379 -219v-22l-76 -127h-23l-292 139l-293 -139h-23l-78 127v22l379 219h27z" />
    <glyph glyph-name="dieresis.case" horiz-adv-x="1048" 
d="M762 1147q-78 0 -132 55t-55 131q1 76 55 131q54 56 132 56t132 -56t54 -131q0 -76 -54 -131t-132 -55zM286 1147q-77 0 -132 55t-56 131q0 76 56 131q56 56 132 56q77 0 132 -56t55 -131q0 -76 -55 -131t-132 -55z" />
    <glyph glyph-name="dotaccent.case" horiz-adv-x="552" 
d="M82 1338q0 80 57 138t136 58t137 -58t59 -138q-1 -80 -59 -137q-58 -56 -137 -56t-136 57t-57 136z" />
    <glyph glyph-name="grave.case" horiz-adv-x="716" 
d="M211 1546l438 -274v-23l-69 -119h-23l-487 201v23l118 192h23z" />
    <glyph glyph-name="hungarumlaut.case" horiz-adv-x="868" 
d="M569 1522l23 18h219l16 -18l-213 -361l-22 -18h-143l-17 18zM211 1522l20 18h222l14 -18l-213 -361l-21 -18h-145l-14 18z" />
    <glyph glyph-name="macron.case" horiz-adv-x="862" 
d="M82 1378h698v-202h-698v202z" />
    <glyph glyph-name="ring.case" horiz-adv-x="641" 
d="M321 1303q35 1 59 25t24 58t-25 60q-25 24 -59 24t-57 -24t-23 -60q0 -35 24 -59t57 -24zM322 1137q-104 0 -180 72q-75 73 -74 177q0 104 74 178q76 72 180 72t179 -72t75 -178q0 -104 -75 -177q-75 -72 -179 -72z" />
    <glyph glyph-name="tilde.case" horiz-adv-x="1013" 
d="M336 1450q72 0 204 -36t165 -36q102 0 137 72h22l94 -156v-22q-72 -115 -253 -115q-59 0 -185 37t-184 37q-102 0 -143 -74h-23l-88 156v22q76 115 254 115z" />
    <glyph glyph-name="IJacute" horiz-adv-x="1992" 
d="M1135 1331h723v-792q0 -563 -496 -564q-129 -1 -250 57t-188 150v25l178 176h24q88 -121 215 -121q89 0 143 58t54 165v584h-403v262zM842 1073h-217v-815h217v-258h-756v258h219v815h-219v258h756v-258zM1640 1868h23l119 -195v-22l-490 -201h-22l-68 119v22zM612 1868
h23l119 -195v-22l-488 -201h-22l-70 119v22z" />
    <glyph glyph-name="ijacute" horiz-adv-x="1277" 
d="M1157 1024v-780q0 -244 -61 -356t-250 -195h-23l-118 227v23q87 43 111 104t24 225v519h-140v233h457zM422 -25q-114 0 -184 78t-70 221v422q0 76 -47 76q-18 0 -29 -10l-20 10l-39 211l12 23q74 43 166 43q272 0 272 -283v-438q0 -76 47 -76q17 0 31 10l19 -10l38 -211
l-12 -23q-70 -43 -184 -43zM1096 1604l147 -181v-16l-442 -268h-17l-94 112v17l387 336h19zM145 1139h-16l-94 112v17l387 336h18l148 -181v-16z" />
    <glyph glyph-name="slashlong.case" horiz-adv-x="1466" 
d="M80 -100l-4 16l1022 1534h338l4 -16l-1018 -1534h-342z" />
    <glyph glyph-name="slashlong" horiz-adv-x="1232" 
d="M55 59l-14 21l850 1218h287l14 -20l-850 -1219h-287z" />
    <glyph glyph-name="slashshort.case" horiz-adv-x="860" 
d="M827 735l-759 -375l-23 15v254l758 375l24 -15v-254z" />
    <glyph glyph-name="slashshort" horiz-adv-x="829" 
d="M82 383v223l643 338h23v-225l-644 -336h-22z" />
    <glyph glyph-name="strokelong" horiz-adv-x="1548" 
d="M76 1120h1368v-202h-1368v202z" />
    <glyph glyph-name="strokeshort" horiz-adv-x="788" 
d="M61 750h666v-172h-666v172z" />
    </font>
</defs>
</svg>
