<?xml version="1.0" encoding="UTF-8"?>
<svg xmlns="http://www.w3.org/2000/svg" xmlns:xlink="http://www.w3.org/1999/xlink" version="1.2" >
<font id="Futura Cond Bold">
<font-face  font-family="Futura Cond" units-per-em="1000" ascent="713" descent="-287" font-style="normal" font-weight="700" font-stretch="normal" cap-height="667" x-height="447" underline-position="-47" underline-thickness="114" />
<missing-glyph  horiz-adv-x="186" d="" />
<glyph glyph-name="NULL" d="" />
<glyph glyph-name="CR" unicode="&#xd;" horiz-adv-x="250" d="" />
<glyph glyph-name="space" unicode="&#x20;" horiz-adv-x="186" d="" />
<glyph glyph-name="exclam" unicode="&#x21;" horiz-adv-x="288" d="M79 667 L79 200 L210 200 L210 667 L79 667 Z M145 157 C98 157 60 120 60 74 C60 27 97 -11 144 -11 C190 -11 228 27 228 73 C228 119 190 157 145 157 L145 157 Z " />
<glyph glyph-name="quotedbl" unicode="&#x22;" horiz-adv-x="405" d="M157 399 L181 667 L42 667 L65 399 L157 399 Z M341 399 L364 667 L226 667 L249 399 L341 399 Z " />
<glyph glyph-name="numbersign" unicode="&#x23;" horiz-adv-x="433" d="M404 299 L334 299 L344 380 L425 380 L424 472 L355 472 L379 667 L283 667 L259 472 L206 472 L230 667 L134 667 L110 472 L27 472 L28 380 L99 380 L89 299 L5 299 L6 207 L78 207 L52 0 L148 0 L173 207 L226 207 L201 0 L297 0 L322 207 L405 207 L404 299 Z M248 380 L238 299 L184 299 L194 380 L248 380 Z " />
<glyph glyph-name="dollar" unicode="&#x24;" horiz-adv-x="433" d="M191 735 L191 672 C83 654 23 587 23 487 C23 389 64 344 217 275 C280 247 301 224 301 183 C301 131 268 98 217 98 C172 98 140 114 86 165 L24 67 C68 23 118 -1 191 -11 L191 -87 L256 -87 L256 -11 C357 8 424 92 424 198 C424 264 400 314 348 352 C315 377 297 386 218 418 C167 439 149 460 149 497 C149 540 177 566 224 566 C262 566 291 552 326 515 L399 595 C362 639 321 661 256 672 L256 735 L191 735 Z " />
<glyph glyph-name="percent" unicode="&#x25;" horiz-adv-x="758" d="M488 658 L184 24 L263 -12 L565 622 L488 658 Z M172 668 C82 668 33 601 33 477 C33 352 82 285 172 285 C262 285 311 352 311 474 C311 602 263 668 172 668 L172 668 Z M174 568 C195 568 206 535 206 476 C206 419 194 386 173 386 C154 386 142 420 142 477 C142 535 154 568 174 568 L174 568 Z M585 375 C495 375 446 308 446 184 C446 60 495 -7 585 -7 C675 -7 724 60 724 182 C724 309 676 375 585 375 L585 375 Z M587 276 C608 276 619 243 619 184 C619 127 607 94 587 94 C567 94 555 127 555 185 C555 243 567 276 587 276 L587 276 Z " />
<glyph glyph-name="ampersand" unicode="&#x26;" horiz-adv-x="538" d="M449 276 C433 255 410 232 378 207 L293 335 C373 405 401 452 401 515 C401 593 337 649 248 649 C158 649 92 588 92 505 C92 462 105 424 139 365 C73 315 43 259 43 188 C43 78 124 -9 226 -9 C269 -9 310 7 349 39 L375 0 L515 0 L445 107 C480 134 491 144 518 176 L449 276 Z M234 439 C211 476 206 489 206 507 C206 530 223 547 246 547 C267 547 281 533 281 510 C281 482 266 460 234 439 L234 439 Z M286 134 C267 121 260 118 245 118 C204 118 171 154 171 197 C171 222 183 246 202 263 L286 134 Z " />
<glyph glyph-name="quotesingle" unicode="&#x27;" horiz-adv-x="222" d="M157 399 L180 667 L42 667 L65 399 L157 399 Z " />
<glyph glyph-name="parenleft" unicode="&#x28;" horiz-adv-x="307" d="M151 726 C86 583 53 429 53 264 C53 105 83 -33 151 -190 L274 -160 C211 -4 185 120 185 264 C185 410 213 550 274 699 L151 726 Z " />
<glyph glyph-name="parenright" unicode="&#x29;" horiz-adv-x="307" d="M156 -190 C221 -46 254 108 254 273 C254 432 224 570 156 726 L33 696 C96 541 122 417 122 273 C122 126 93 -13 33 -162 L156 -190 Z " />
<glyph glyph-name="asterisk" unicode="&#x2a;" horiz-adv-x="433" d="M83 635 L66 581 L178 548 L107 454 L153 422 L219 518 L286 422 L331 454 L260 548 L372 581 L355 635 L245 596 L247 713 L191 713 L194 596 L83 635 Z " />
<glyph glyph-name="plus" unicode="&#x2b;" horiz-adv-x="433" d="M33 397 L33 282 L154 282 L154 153 L279 153 L279 282 L400 282 L400 397 L279 397 L279 525 L154 525 L154 397 L33 397 Z " />
<glyph glyph-name="comma" unicode="&#x2c;" horiz-adv-x="250" d="M95 143 L7 -127 L95 -127 L228 143 L95 143 Z " />
<glyph glyph-name="hyphen" unicode="&#x2d;" horiz-adv-x="168" d="M0 339 L0 221 L168 221 L168 339 L0 339 Z " />
<glyph glyph-name="period" unicode="&#x2e;" horiz-adv-x="250" d="M127 157 C79 157 41 120 41 73 C41 26 79 -12 126 -12 C172 -12 210 26 210 73 C210 119 172 157 127 157 L127 157 Z " />
<glyph glyph-name="slash" unicode="&#x2f;" horiz-adv-x="464" d="M350 713 L-12 -183 L100 -183 L459 713 L350 713 Z " />
<glyph glyph-name="zero" unicode="0" horiz-adv-x="433" d="M220 678 C102 678 30 550 30 339 C30 231 50 125 81 73 C113 19 161 -11 216 -11 C334 -11 404 116 404 329 C404 423 391 504 366 563 C333 642 287 678 220 678 L220 678 Z M217 559 C260 559 276 496 276 330 C276 174 259 110 217 110 C174 110 157 173 157 335 C157 496 174 559 217 559 L217 559 Z " />
<glyph glyph-name="one" unicode="1" horiz-adv-x="433" d="M103 667 L103 552 L166 552 L166 0 L295 0 L295 667 L103 667 Z " />
<glyph glyph-name="two" unicode="2" horiz-adv-x="433" d="M167 435 C166 457 166 465 166 474 C166 549 183 585 220 585 C253 585 273 554 273 502 C273 451 254 402 191 285 L36 0 L386 0 L386 115 L231 115 L328 301 C361 361 361 361 367 376 C388 423 398 465 398 507 C398 618 334 678 219 678 C97 678 45 617 45 472 C45 459 45 452 46 435 L167 435 Z " />
<glyph glyph-name="three" unicode="3" horiz-adv-x="433" d="M172 479 L172 493 C172 541 188 568 216 568 C246 568 262 542 262 493 C262 423 240 404 160 404 L160 292 L177 292 C203 291 211 290 225 283 C250 270 260 245 260 198 C260 126 242 92 203 92 C172 92 153 117 153 156 C153 159 153 168 154 175 L30 175 C30 131 34 106 47 80 C75 21 131 -11 206 -11 C327 -11 403 64 403 184 C403 270 369 323 300 344 C357 371 383 419 383 504 C383 612 319 678 215 678 C164 678 123 662 95 631 C67 599 58 559 57 479 L172 479 Z " />
<glyph glyph-name="four" unicode="4" horiz-adv-x="433" d="M206 667 L29 260 L29 157 L223 157 L223 0 L350 0 L350 157 L404 157 L404 271 L350 271 L350 667 L206 667 Z M223 271 L125 271 L223 515 L223 271 Z " />
<glyph glyph-name="five" unicode="5" horiz-adv-x="433" d="M117 667 L65 339 C89 343 101 344 117 344 C202 344 250 301 250 225 C250 152 209 103 147 103 C118 103 94 112 65 135 L43 20 C91 -3 124 -11 171 -11 C312 -11 391 74 391 224 C391 300 370 356 327 395 C295 425 261 437 191 445 L209 554 L372 554 L372 667 L117 667 Z " />
<glyph glyph-name="six" unicode="6" horiz-adv-x="433" d="M182 667 L122 543 C56 407 32 321 32 224 C32 77 101 -11 218 -11 C331 -11 401 83 401 234 C401 358 346 442 265 442 C235 442 216 433 182 405 L308 667 L182 667 Z M220 325 C252 325 272 284 272 217 C272 147 250 103 215 103 C185 103 162 149 162 210 C162 278 185 325 220 325 L220 325 Z " />
<glyph glyph-name="seven" unicode="7" horiz-adv-x="433" d="M51 667 L51 552 L230 552 L23 0 L160 0 L411 667 L51 667 Z " />
<glyph glyph-name="eight" unicode="8" horiz-adv-x="433" d="M292 360 C354 386 383 432 383 501 C383 604 314 678 217 678 C120 678 51 604 51 501 C51 432 80 386 141 360 C108 345 96 339 83 328 C47 299 26 246 26 184 C26 124 46 75 84 40 C119 8 169 -11 217 -11 C265 -11 315 8 350 40 C389 75 408 124 408 184 C408 234 394 279 369 310 C353 330 334 342 292 360 L292 360 Z M215 574 C239 574 253 548 253 503 C253 456 239 428 215 428 C191 428 177 456 177 503 C177 548 191 574 215 574 L215 574 Z M216 295 C248 295 272 254 272 198 C272 144 248 103 216 103 C183 103 161 141 161 199 C161 257 183 295 216 295 L216 295 Z " />
<glyph glyph-name="nine" unicode="9" horiz-adv-x="433" d="M251 0 L310 124 C378 266 401 346 401 444 C401 590 332 678 215 678 C102 678 32 584 32 433 C32 309 87 225 167 225 C197 225 216 234 251 262 L124 0 L251 0 Z M217 564 C248 564 270 518 270 457 C270 389 247 342 213 342 C181 342 161 383 161 450 C161 520 183 564 217 564 L217 564 Z " />
<glyph glyph-name="colon" unicode="&#x3a;" horiz-adv-x="250" d="M127 157 C79 157 41 120 41 73 C41 26 79 -12 126 -12 C172 -12 210 26 210 73 C210 119 172 157 127 157 L127 157 Z M127 459 C79 459 41 422 41 375 C41 328 78 290 126 290 C172 290 210 328 210 375 C210 421 172 459 127 459 L127 459 Z " />
<glyph glyph-name="semicolon" unicode="&#x3b;" horiz-adv-x="250" d="M95 143 L7 -127 L95 -127 L228 143 L95 143 Z M146 459 C98 459 60 422 60 375 C60 328 97 290 145 290 C191 290 229 328 229 375 C229 421 191 459 146 459 L146 459 Z " />
<glyph glyph-name="less" unicode="&#x3c;" horiz-adv-x="500" d="M466 613 L33 393 L33 287 L466 67 L466 192 L167 340 L466 488 L466 613 Z " />
<glyph glyph-name="equal" unicode="&#x3d;" horiz-adv-x="433" d="M33 481 L33 372 L400 372 L400 481 L33 481 Z M33 309 L33 200 L400 200 L400 309 L33 309 Z " />
<glyph glyph-name="greater" unicode="&#x3e;" horiz-adv-x="500" d="M33 66 L466 286 L466 393 L33 613 L33 488 L332 340 L33 192 L33 66 Z " />
<glyph glyph-name="question" unicode="&#x3f;" horiz-adv-x="415" d="M277 208 L277 294 C301 302 316 311 331 325 C363 355 385 418 385 479 C385 597 310 676 199 676 C137 676 88 652 58 606 C38 577 32 550 30 482 L154 482 L154 497 C154 535 171 560 196 560 C225 560 243 528 243 474 C243 409 215 370 167 370 C161 370 156 370 147 372 L147 208 L277 208 Z M213 158 C165 158 127 121 127 74 C127 27 164 -11 211 -11 C258 -11 296 27 296 74 C296 119 258 158 213 158 L213 158 Z " />
<glyph glyph-name="at" unicode="&#x40;" horiz-adv-x="680" d="M496 508 L420 508 L415 488 C391 509 375 516 349 516 C267 516 205 431 205 319 C205 215 256 140 328 140 C360 140 384 152 412 184 C432 154 450 142 478 142 C568 142 643 251 643 382 C643 549 517 678 354 678 C175 678 36 528 36 334 C36 210 94 96 189 36 C239 5 299 -11 367 -11 C444 -11 495 3 571 44 L579 48 L587 52 L549 126 C494 94 422 74 358 74 C226 74 130 184 130 334 C130 482 227 595 354 595 C471 595 556 503 556 376 C556 299 519 222 483 222 C472 222 468 229 468 249 C468 264 469 277 470 289 L496 508 Z M353 427 C381 427 401 392 401 344 C401 284 370 228 337 228 C311 228 293 264 293 314 C293 377 320 427 353 427 L353 427 Z " />
<glyph glyph-name="A" unicode="A" horiz-adv-x="460" d="M158 667 L3 0 L135 0 L158 112 L292 112 L316 0 L456 0 L297 667 L158 667 Z M272 215 L179 215 L198 307 C209 359 219 438 223 495 C230 430 236 390 250 319 L272 215 Z " />
<glyph glyph-name="B" unicode="B" horiz-adv-x="435" d="M52 667 L52 0 L192 0 C318 0 399 73 399 186 C399 226 387 266 367 297 C353 318 343 327 317 342 C369 381 388 418 388 480 C388 551 352 617 297 647 C269 661 240 667 193 667 L52 667 Z M184 558 C236 558 263 530 263 478 C263 425 237 397 184 393 L184 558 Z M184 291 C240 289 269 258 269 201 C269 146 238 115 184 114 L184 291 Z " />
<glyph glyph-name="C" unicode="C" horiz-adv-x="426" d="M393 662 C365 671 350 674 324 674 C164 674 37 525 37 337 C37 141 163 -7 330 -7 C356 -7 367 -5 393 4 L393 130 C370 122 358 120 341 120 C247 120 176 215 176 338 C176 463 243 548 342 548 C360 548 371 546 393 541 L393 662 Z " />
<glyph glyph-name="D" unicode="D" horiz-adv-x="488" d="M52 667 L52 0 L181 0 C356 0 451 115 451 330 C451 449 420 543 360 600 C310 649 258 667 163 667 L52 667 Z M184 550 C223 548 243 539 266 512 C298 475 318 406 318 331 C318 256 298 188 265 154 C243 130 222 122 184 122 L184 550 Z " />
<glyph glyph-name="E" unicode="E" horiz-adv-x="355" d="M52 667 L52 0 L319 0 L319 123 L184 123 L184 273 L301 273 L301 399 L184 399 L184 544 L317 544 L317 667 L52 667 Z " />
<glyph glyph-name="F" unicode="F" horiz-adv-x="348" d="M52 667 L52 0 L184 0 L184 275 L305 275 L305 402 L184 402 L184 544 L318 544 L318 667 L52 667 Z " />
<glyph glyph-name="G" unicode="G" horiz-adv-x="524" d="M273 371 L273 253 L357 253 C354 154 329 108 276 108 C210 108 178 182 178 333 C178 477 213 561 273 561 C314 561 330 539 342 469 L471 519 C440 621 370 678 274 678 C126 678 37 549 37 331 C37 123 130 -11 275 -11 C340 -11 393 17 430 71 C472 131 488 200 488 319 L488 371 L273 371 Z " />
<glyph glyph-name="H" unicode="H" horiz-adv-x="501" d="M52 667 L52 0 L184 0 L184 281 L317 281 L317 0 L449 0 L449 667 L317 667 L317 406 L184 406 L184 667 L52 667 Z " />
<glyph glyph-name="I" unicode="I" horiz-adv-x="236" d="M52 667 L52 0 L184 0 L184 667 L52 667 Z " />
<glyph glyph-name="J" unicode="J" horiz-adv-x="310" d="M126 667 L126 205 C126 130 112 104 70 104 C43 104 22 116 0 142 L0 10 C27 -4 60 -11 98 -11 C153 -11 196 10 225 52 C249 86 258 128 258 205 L258 667 L126 667 Z " />
<glyph glyph-name="K" unicode="K" horiz-adv-x="452" d="M52 667 L52 0 L184 0 L184 339 L307 0 L445 0 L307 359 L430 667 L295 667 L184 369 L184 667 L52 667 Z " />
<glyph glyph-name="L" unicode="L" horiz-adv-x="329" d="M52 667 L52 0 L322 0 L322 123 L184 123 L184 667 L52 667 Z " />
<glyph glyph-name="M" unicode="M" horiz-adv-x="646" d="M86 667 L27 0 L169 0 L189 480 C196 406 198 398 215 303 L277 0 L378 0 L437 326 C448 389 452 425 457 480 L490 0 L625 0 L555 667 L378 667 L325 273 L259 667 L86 667 Z " />
<glyph glyph-name="N" unicode="N" horiz-adv-x="517" d="M52 667 L52 0 L184 0 L184 316 C182 356 181 377 177 402 L340 0 L465 0 L465 667 L330 667 L330 356 C331 324 334 292 340 264 L177 667 L52 667 Z " />
<glyph glyph-name="O" unicode="O" horiz-adv-x="542" d="M271 678 C206 678 137 641 98 584 C56 525 37 446 37 334 C37 221 56 142 98 83 C137 26 206 -11 272 -11 C337 -11 406 26 445 83 C486 141 506 221 506 328 C506 447 488 525 445 584 C405 642 338 678 271 678 L271 678 Z M272 557 C293 557 315 543 330 520 C354 485 365 424 365 333 C365 195 331 116 272 116 C212 116 178 195 178 337 C178 417 188 476 208 511 C223 540 247 557 272 557 L272 557 Z " />
<glyph glyph-name="P" unicode="P" horiz-adv-x="435" d="M52 667 L52 0 L184 0 L184 275 C197 273 203 273 214 273 C338 273 415 349 415 470 C415 547 380 614 324 645 C294 662 268 667 212 667 L52 667 Z M184 561 L207 561 C260 561 284 532 284 470 C284 408 257 384 184 385 L184 561 Z " />
<glyph glyph-name="Q" unicode="Q" horiz-adv-x="549" d="M513 40 L456 98 C489 153 506 232 506 331 C506 433 488 511 452 572 C413 636 341 678 270 678 C201 678 130 638 92 578 C54 518 37 444 37 336 C37 221 57 140 100 81 C140 25 209 -11 275 -11 C318 -11 354 1 393 30 L444 -25 L513 40 Z M292 271 L225 205 L303 125 C290 118 283 116 272 116 C212 116 178 196 178 340 C178 426 189 485 211 518 C227 543 249 557 271 557 C293 557 315 542 332 515 C353 482 365 414 365 322 C365 277 362 247 353 205 L292 271 Z " />
<glyph glyph-name="R" unicode="R" horiz-adv-x="473" d="M52 667 L52 0 L184 0 L184 308 L301 0 L440 0 L324 304 C389 344 419 396 419 473 C419 542 389 604 340 636 C307 658 264 667 195 667 L52 667 Z M184 563 C229 563 238 562 250 556 C276 544 291 513 291 471 C291 413 259 379 206 379 C201 379 193 380 184 381 L184 563 Z " />
<glyph glyph-name="S" unicode="S" horiz-adv-x="391" d="M328 645 C286 669 254 678 211 678 C108 678 37 598 37 481 C37 396 69 345 160 283 C229 235 238 224 238 187 C238 142 207 113 160 113 C127 113 100 123 62 149 L62 23 C96 0 133 -11 177 -11 C291 -11 367 72 367 195 C367 236 357 272 337 303 C320 328 302 345 237 393 C183 434 166 458 166 494 C166 533 192 559 232 559 C264 559 290 547 328 517 L328 645 Z " />
<glyph glyph-name="T" unicode="T" horiz-adv-x="339" d="M0 667 L0 544 L103 544 L103 0 L235 0 L235 544 L339 544 L339 667 L0 667 Z " />
<glyph glyph-name="U" unicode="U" horiz-adv-x="499" d="M52 667 L52 189 C52 133 53 122 63 94 C87 26 153 -11 249 -11 C332 -11 394 17 425 67 C442 94 447 119 447 170 L447 667 L315 667 L315 225 C315 187 313 160 310 150 C302 122 282 108 250 108 C225 108 208 117 197 136 C187 153 184 173 184 225 L184 667 L52 667 Z " />
<glyph glyph-name="V" unicode="V" horiz-adv-x="486" d="M0 667 L193 0 L301 0 L486 667 L348 667 L275 409 C260 353 257 333 248 248 L246 228 L245 238 L243 253 C240 279 237 297 236 308 C228 349 223 372 213 409 L142 667 L0 667 Z " />
<glyph glyph-name="W" unicode="W" horiz-adv-x="694" d="M3 667 L138 0 L253 0 L315 262 C332 328 346 418 350 474 C356 359 359 335 378 255 L438 0 L553 0 L690 667 L553 667 L505 401 C494 349 487 270 486 207 C482 256 480 272 468 332 L400 667 L296 667 L234 367 C221 309 218 286 209 207 C208 217 208 227 207 230 C205 270 203 296 203 300 C202 308 196 351 192 375 L138 667 L3 667 Z " />
<glyph glyph-name="X" unicode="X" horiz-adv-x="443" d="M0 667 L141 344 L0 0 L148 0 L183 93 C198 130 211 174 217 206 C220 181 225 165 249 103 L290 0 L443 0 L290 344 L432 667 L290 667 L250 572 C231 524 220 492 217 472 C215 494 200 542 183 581 L148 667 L0 667 Z " />
<glyph glyph-name="Y" unicode="Y" horiz-adv-x="447" d="M0 667 L160 319 L160 0 L292 0 L292 319 L447 667 L299 667 L236 492 C232 482 229 470 224 453 C221 464 216 477 211 492 L145 667 L0 667 Z " />
<glyph glyph-name="Z" unicode="Z" horiz-adv-x="456" d="M46 667 L46 544 L240 544 L18 0 L419 0 L419 123 L209 123 L437 667 L46 667 Z " />
<glyph glyph-name="bracketleft" unicode="&#x5b;" horiz-adv-x="367" d="M67 713 L67 -183 L334 -183 L334 -60 L200 -60 L200 590 L332 590 L332 713 L67 713 Z " />
<glyph glyph-name="backslash" unicode="&#x5c;" horiz-adv-x="464" d="M114 713 L5 713 L364 -183 L476 -183 L114 713 Z " />
<glyph glyph-name="bracketright" unicode="&#x5d;" horiz-adv-x="367" d="M300 -183 L300 713 L33 713 L33 590 L167 590 L167 -60 L34 -60 L34 -183 L300 -183 Z " />
<glyph glyph-name="asciicircum" unicode="&#x5e;" horiz-adv-x="500" d="M138 336 L250 570 L362 336 L495 336 L333 671 L167 671 L6 336 L138 336 Z " />
<glyph glyph-name="underscore" unicode="&#x5f;" horiz-adv-x="500" d="M0 -47 L0 -161 L500 -161 L500 -47 L0 -47 Z " />
<glyph glyph-name="grave" unicode="&#x60;" horiz-adv-x="500" d="M213 681 L123 640 L237 518 L298 553 L213 681 Z " />
<glyph glyph-name="a" unicode="a" horiz-adv-x="396" d="M231 447 L231 392 C210 435 183 456 147 456 C71 456 27 371 27 225 C27 82 74 -9 149 -9 C183 -9 209 9 231 51 L231 0 L356 0 L356 447 L231 447 Z M198 344 C224 344 240 298 240 222 C240 149 224 103 198 103 C170 103 154 147 154 224 C154 300 170 344 198 344 L198 344 Z " />
<glyph glyph-name="b" unicode="b" horiz-adv-x="396" d="M165 713 L40 713 L40 0 L165 0 L165 51 C187 9 213 -9 247 -9 C322 -9 369 82 369 225 C369 371 325 456 249 456 C213 456 186 435 165 392 L165 713 Z M198 344 C226 344 242 300 242 224 C242 147 226 103 198 103 C172 103 156 149 156 225 C156 298 172 344 198 344 L198 344 Z " />
<glyph glyph-name="c" unicode="c" horiz-adv-x="281" d="M262 443 C237 453 223 456 199 456 C144 456 105 437 76 396 C44 350 27 289 27 218 C27 82 92 -9 190 -9 C217 -9 232 -6 262 7 L262 121 C247 111 238 108 224 108 C179 108 154 151 154 228 C154 303 181 348 226 348 C241 348 250 345 262 334 L262 443 Z " />
<glyph glyph-name="d" unicode="d" horiz-adv-x="396" d="M231 713 L231 392 C210 435 183 456 147 456 C71 456 27 371 27 225 C27 82 74 -9 149 -9 C183 -9 209 9 231 51 L231 0 L356 0 L356 713 L231 713 Z M198 344 C224 344 240 298 240 222 C240 149 224 103 198 103 C170 103 154 147 154 224 C154 300 170 344 198 344 L198 344 Z " />
<glyph glyph-name="e" unicode="e" horiz-adv-x="373" d="M234 138 C232 101 220 84 194 84 C161 84 148 112 147 190 L344 190 C346 215 347 226 347 242 C347 376 290 456 193 456 C91 456 27 362 27 213 C27 75 91 -9 196 -9 C251 -9 296 16 316 59 C327 81 332 97 339 138 L234 138 Z M239 267 L148 267 L148 280 C148 330 165 361 194 361 C222 361 239 330 239 280 L239 267 Z " />
<glyph glyph-name="f" unicode="f" horiz-adv-x="241" d="M8 447 L8 344 L54 344 L54 0 L179 0 L179 344 L236 344 L236 447 L179 447 L179 537 C179 585 188 601 214 601 C221 601 224 600 236 594 L236 713 C212 721 199 724 182 724 C147 724 110 711 89 691 C62 666 54 642 54 583 L54 447 L8 447 Z " />
<glyph glyph-name="g" unicode="g" horiz-adv-x="401" d="M236 447 L236 393 C210 438 185 456 146 456 C72 456 27 367 27 219 C27 84 78 -9 151 -9 C187 -9 204 5 236 56 L236 -12 C236 -92 224 -120 187 -120 C159 -120 145 -102 141 -59 L31 -59 C40 -171 91 -222 190 -222 C252 -222 302 -200 332 -158 C355 -127 361 -102 361 -39 L361 447 L236 447 Z M198 344 C225 344 241 298 241 223 C241 151 225 105 198 105 C170 105 154 149 154 225 C154 300 170 344 198 344 L198 344 Z " />
<glyph glyph-name="h" unicode="h" horiz-adv-x="394" d="M40 713 L40 0 L165 0 L165 255 C165 292 165 296 169 306 C174 321 185 330 199 330 C224 330 229 316 229 255 L229 0 L354 0 L354 299 C354 366 351 392 341 415 C330 440 302 456 272 456 C226 456 193 432 165 377 L165 713 L40 713 Z " />
<glyph glyph-name="i" unicode="i" horiz-adv-x="206" d="M40 447 L40 0 L165 0 L165 447 L40 447 Z M107 659 C62 659 26 624 26 580 C26 536 61 500 106 500 C149 500 185 536 185 580 C185 623 149 659 107 659 L107 659 Z " />
<glyph glyph-name="j" unicode="j" horiz-adv-x="206" d="M40 447 L40 -220 L165 -220 L165 447 L40 447 Z M107 659 C62 659 26 624 26 580 C26 536 61 500 106 500 C149 500 185 536 185 580 C185 623 149 659 107 659 L107 659 Z " />
<glyph glyph-name="k" unicode="k" horiz-adv-x="389" d="M40 713 L40 0 L165 0 L165 207 L255 0 L392 0 L269 264 L369 447 L235 447 L165 290 L165 713 L40 713 Z " />
<glyph glyph-name="l" unicode="l" horiz-adv-x="205" d="M40 713 L40 0 L165 0 L165 713 L40 713 Z " />
<glyph glyph-name="m" unicode="m" horiz-adv-x="582" d="M40 447 L40 0 L165 0 L165 261 C165 281 166 298 168 304 C173 319 185 329 200 329 C223 329 229 315 229 261 L229 0 L354 0 L354 253 C354 295 355 302 359 311 C364 324 374 331 387 331 C410 331 417 313 417 253 L417 0 L542 0 L542 320 C542 369 539 393 529 415 C517 439 489 456 460 456 C419 456 381 428 354 379 C342 431 317 456 276 456 C231 456 197 431 165 375 L165 447 L40 447 Z " />
<glyph glyph-name="n" unicode="n" horiz-adv-x="394" d="M40 447 L40 0 L165 0 L165 255 C165 292 165 296 169 306 C174 321 185 330 199 330 C224 330 229 316 229 255 L229 0 L354 0 L354 299 C354 366 351 391 341 415 C330 440 302 456 272 456 C226 456 193 432 165 377 L165 447 L40 447 Z " />
<glyph glyph-name="o" unicode="o" horiz-adv-x="392" d="M197 456 C141 456 92 429 65 383 C41 343 27 283 27 224 C27 164 41 105 65 64 C91 18 141 -9 197 -9 C305 -9 366 75 366 220 C366 373 307 456 197 456 L197 456 Z M197 344 C223 344 239 298 239 222 C239 149 223 103 197 103 C170 103 154 147 154 224 C154 300 170 344 197 344 L197 344 Z " />
<glyph glyph-name="p" unicode="p" horiz-adv-x="396" d="M165 447 L40 447 L40 -220 L165 -220 L165 51 C187 9 213 -9 247 -9 C322 -9 369 82 369 225 C369 371 325 456 249 456 C213 456 186 435 165 392 L165 447 Z M198 344 C226 344 242 300 242 224 C242 147 226 103 198 103 C172 103 156 149 156 225 C156 298 172 344 198 344 L198 344 Z " />
<glyph glyph-name="q" unicode="q" horiz-adv-x="396" d="M231 447 L231 392 C210 435 183 456 147 456 C71 456 27 371 27 225 C27 82 74 -9 149 -9 C183 -9 209 9 231 51 L231 -220 L356 -220 L356 447 L231 447 Z M198 344 C224 344 240 298 240 222 C240 149 224 103 198 103 C170 103 154 147 154 224 C154 300 170 344 198 344 L198 344 Z " />
<glyph glyph-name="r" unicode="r" horiz-adv-x="278" d="M40 447 L40 0 L165 0 L165 233 C165 295 170 311 194 328 C208 339 227 344 249 344 C255 344 259 344 268 342 L268 463 C224 458 195 438 165 393 L165 447 L40 447 Z " />
<glyph glyph-name="s" unicode="s" horiz-adv-x="315" d="M300 417 C259 446 227 456 181 456 C92 456 32 402 32 323 C32 290 43 258 62 236 C77 218 96 205 136 184 C169 167 177 158 177 140 C177 118 161 103 138 103 C117 103 102 110 76 131 L21 42 C67 7 108 -9 157 -9 C241 -9 298 54 298 147 C298 209 273 245 206 279 C167 300 159 307 159 325 C159 344 172 357 191 357 C211 357 225 350 250 326 L300 417 Z " />
<glyph glyph-name="t" unicode="t" horiz-adv-x="230" d="M52 570 L52 447 L9 447 L9 344 L52 344 L52 0 L177 0 L177 344 L228 344 L228 447 L177 447 L177 570 L52 570 Z " />
<glyph glyph-name="u" unicode="u" horiz-adv-x="393" d="M40 447 L40 168 C40 102 42 88 58 61 C82 19 136 -9 195 -9 C252 -9 305 17 332 60 C348 84 353 105 353 151 L353 447 L228 447 L228 191 C227 141 227 141 225 133 C222 117 211 107 196 107 C185 107 175 114 170 125 C166 135 165 148 165 191 L165 447 L40 447 Z " />
<glyph glyph-name="v" unicode="v" horiz-adv-x="366" d="M-3 447 L125 0 L241 0 L370 447 L241 447 L194 249 L192 240 L188 225 C185 215 184 210 181 194 C177 218 173 234 170 249 L121 447 L-3 447 Z " />
<glyph glyph-name="w" unicode="w" horiz-adv-x="580" d="M-3 447 L124 0 L228 0 L265 148 C274 181 284 236 289 280 C295 238 298 226 319 141 L357 0 L460 0 L583 447 L465 447 L416 247 C405 202 405 201 403 185 C399 207 387 268 382 288 L345 447 L238 447 L179 185 C176 205 168 249 156 300 L118 447 L-3 447 Z " />
<glyph glyph-name="x" unicode="x" horiz-adv-x="385" d="M14 447 L126 241 L-3 0 L126 0 L192 123 L257 0 L389 0 L257 241 L371 447 L242 447 L192 351 L186 364 C155 425 154 427 143 447 L14 447 Z " />
<glyph glyph-name="y" unicode="y" horiz-adv-x="366" d="M-3 447 L127 9 L56 -220 L178 -220 L370 447 L244 447 L185 192 C184 201 183 207 182 210 C179 223 176 236 173 248 L165 284 L122 447 L-3 447 Z " />
<glyph glyph-name="z" unicode="z" horiz-adv-x="341" d="M28 447 L28 343 L155 343 L13 0 L312 0 L312 103 L189 103 L326 447 L28 447 Z " />
<glyph glyph-name="braceleft" unicode="&#x7b;" horiz-adv-x="367" d="M241 535 C241 597 250 605 322 605 L340 605 L340 715 C320 715 320 715 295 716 C277 717 276 717 268 717 C158 717 116 677 116 573 L116 399 C113 348 101 331 61 322 L61 217 C102 208 116 186 116 130 L116 -43 C116 -146 159 -187 266 -187 L276 -187 L308 -186 L340 -185 L340 -75 C248 -75 240 -70 241 -4 L241 139 C240 207 225 238 181 265 C227 294 239 320 241 390 L241 535 Z " />
<glyph glyph-name="bar" unicode="&#x7c;" horiz-adv-x="500" d="M187 667 L187 -167 L314 -167 L314 667 L187 667 Z " />
<glyph glyph-name="braceright" unicode="&#x7d;" horiz-adv-x="367" d="M126 -5 C126 -67 117 -75 45 -75 L27 -75 L27 -185 C47 -185 47 -185 72 -186 C90 -187 91 -187 99 -187 C209 -187 251 -147 251 -43 L251 131 C254 182 266 199 306 208 L306 313 C265 322 251 344 251 400 L251 573 C251 676 208 717 101 717 L91 717 L59 716 L27 715 L27 605 C119 605 127 600 126 534 L126 391 C127 323 142 292 186 265 C140 236 128 210 126 140 L126 -5 Z " />
<glyph glyph-name="asciitilde" unicode="&#x7e;" horiz-adv-x="667" d="M159 562 C184 610 200 623 233 623 C250 623 260 620 318 600 C374 579 398 573 418 573 C448 573 478 583 504 602 C532 622 548 645 576 705 L505 746 C482 706 465 694 432 694 C411 694 403 696 345 718 C293 737 264 744 240 744 C210 744 182 735 161 718 C135 698 122 679 98 624 C96 621 93 613 90 607 L159 562 Z " />
<glyph glyph-name="uni00A0" unicode="&#xa0;" horiz-adv-x="186" d="" />
<glyph glyph-name="exclamdown" unicode="&#xa1;" horiz-adv-x="288" d="M79 -183 L210 -183 L210 283 L79 283 L79 -183 Z M145 494 C98 494 60 457 60 411 C60 364 97 326 144 326 C190 326 228 364 228 410 C228 456 190 494 145 494 L145 494 Z " />
<glyph glyph-name="cent" unicode="&#xa2;" horiz-adv-x="433" d="M224 622 L224 562 C145 537 101 450 101 319 C101 257 112 211 138 169 C159 135 182 118 224 103 L224 45 L281 45 L281 100 C311 107 318 109 333 116 L333 228 C318 220 309 217 297 217 C255 217 230 259 230 327 C230 403 259 455 300 455 C310 455 318 452 333 442 L333 554 C314 562 305 564 281 567 L281 622 L224 622 Z " />
<glyph glyph-name="sterling" unicode="&#xa3;" horiz-adv-x="433" d="M424 473 C424 607 369 672 255 672 C137 672 64 596 64 474 C64 448 69 411 78 367 C84 339 85 337 86 316 L9 316 L9 248 L92 248 C92 185 76 139 39 100 L39 0 C81 13 98 16 132 16 C162 16 182 14 226 5 C284 -7 309 -10 339 -10 C372 -10 394 -5 420 9 L420 114 C387 97 359 91 322 91 C302 91 286 93 253 100 C220 107 208 109 188 109 C185 109 177 109 169 108 C191 145 207 200 210 248 L325 248 L325 316 L213 316 C212 335 212 337 208 373 C201 420 198 458 198 480 C198 530 224 564 261 564 C293 564 312 536 312 488 C312 486 312 480 311 473 L424 473 Z " />
<glyph glyph-name="currency" unicode="&#xa4;" horiz-adv-x="667" d="M23 137 L90 69 L192 170 C244 138 283 126 333 126 C384 126 427 140 475 171 L577 69 L644 137 L542 239 C573 287 586 327 586 376 C586 425 573 464 540 516 L641 617 L574 685 L471 584 C424 614 384 627 334 627 C282 627 242 614 193 582 L90 686 L22 617 L126 514 C94 468 81 427 81 377 C81 327 95 283 125 239 L23 137 Z M335 516 C410 516 472 453 472 377 C472 299 410 237 333 237 C257 237 194 300 194 376 C194 455 256 516 335 516 L335 516 Z " />
<glyph glyph-name="yen" unicode="&#xa5;" horiz-adv-x="433" d="M337 433 L440 667 L294 667 L230 492 C226 480 224 475 218 452 C217 456 216 459 216 460 L214 466 C209 482 206 489 205 492 L138 667 L-7 667 L100 433 L13 433 L13 371 L129 371 L153 319 L153 295 L13 295 L13 233 L153 233 L153 0 L286 0 L286 233 L420 233 L420 295 L286 295 L286 319 L309 371 L420 371 L420 433 L337 433 Z " />
<glyph glyph-name="brokenbar" unicode="&#xa6;" horiz-adv-x="500" d="M187 667 L187 321 L314 321 L314 667 L187 667 Z M187 153 L187 -167 L314 -167 L314 153 L187 153 Z " />
<glyph glyph-name="section" unicode="&#xa7;" horiz-adv-x="433" d="M375 542 L374 552 L373 562 L373 569 C368 616 361 639 339 665 C311 700 267 720 219 720 C130 720 66 655 66 566 C66 512 81 478 124 436 L120 433 C75 403 47 340 47 267 C47 209 63 157 92 121 C110 100 127 88 181 61 C239 32 257 10 257 -30 C257 -67 241 -91 217 -91 C190 -91 179 -73 176 -25 L176 -20 L175 -11 L175 -2 L59 -2 L60 -12 L61 -22 C66 -70 69 -82 81 -106 C106 -159 157 -190 218 -190 C307 -190 370 -124 370 -32 C370 14 352 59 323 88 L316 94 C363 129 386 185 386 261 C386 316 374 364 353 395 C334 421 326 428 250 474 C195 507 179 527 179 563 C179 597 195 621 218 621 C242 621 253 605 259 559 L260 550 L261 542 L375 542 Z M216 370 C254 370 273 332 273 252 C273 187 255 157 216 157 C180 157 160 195 160 264 C160 330 181 370 216 370 L216 370 Z " />
<glyph glyph-name="dieresis" unicode="&#xa8;" horiz-adv-x="500" d="M162 659 C125 659 95 630 95 594 C95 557 124 527 161 527 C197 527 227 557 227 593 C227 629 197 659 162 659 L162 659 Z M341 659 C304 659 274 630 274 594 C274 557 303 527 340 527 C376 527 406 557 406 593 C406 629 376 659 341 659 L341 659 Z " />
<glyph glyph-name="copyright" unicode="&#xa9;" horiz-adv-x="762" d="M459 530 C439 536 428 538 410 538 C306 538 223 448 223 336 C223 219 306 130 415 130 C432 130 440 131 459 137 L459 220 C442 214 434 213 422 213 C364 213 320 266 320 336 C320 407 361 455 423 455 C434 455 442 454 459 451 L459 530 Z M386 682 C189 682 34 528 34 333 C34 141 190 -15 381 -15 C572 -15 727 141 727 333 C727 524 572 682 386 682 L386 682 Z M385 621 C535 621 660 490 660 333 C660 175 535 46 381 46 C227 46 101 175 101 333 C101 495 226 621 385 621 L385 621 Z " />
<glyph glyph-name="ordfeminine" unicode="&#xaa;" horiz-adv-x="289" d="M158 667 L158 647 C141 667 129 674 109 674 C59 674 29 623 29 536 C29 449 60 395 110 395 C130 395 143 402 158 420 L158 400 L245 400 L245 667 L158 667 Z M141 601 C155 601 164 575 164 535 C164 495 155 469 141 469 C125 469 116 494 116 535 C116 576 125 601 141 601 L141 601 Z M29 350 L29 277 L247 277 L247 350 L29 350 Z " />
<glyph glyph-name="guillemotleft" unicode="&#xab;" horiz-adv-x="396" d="M366 406 L299 440 L183 234 L299 29 L366 67 L276 234 L366 406 Z M213 406 L145 440 L30 234 L145 29 L213 67 L122 234 L213 406 Z " />
<glyph glyph-name="logicalnot" unicode="&#xac;" horiz-adv-x="500" d="M339 0 L466 0 L466 266 L33 266 L33 148 L339 148 L339 0 Z " />
<glyph glyph-name="uni00AD" unicode="&#xad;" horiz-adv-x="168" d="M0 339 L0 221 L168 221 L168 339 L0 339 Z " />
<glyph glyph-name="registered" unicode="&#xae;" horiz-adv-x="762" d="M253 533 L253 133 L343 133 L343 311 L413 133 L508 133 L435 315 C476 339 495 370 495 416 C495 457 475 494 444 514 C422 527 394 533 350 533 L253 533 Z M343 465 C369 465 375 464 382 461 C397 454 406 437 406 414 C406 380 388 360 357 360 C353 360 348 360 343 361 L343 465 Z M386 682 C189 682 34 528 34 333 C34 141 190 -15 381 -15 C572 -15 727 141 727 333 C727 524 572 682 386 682 L386 682 Z M385 621 C535 621 660 490 660 333 C660 175 535 46 381 46 C227 46 101 175 101 333 C101 495 226 621 385 621 L385 621 Z " />
<glyph glyph-name="macron" unicode="&#xaf;" horiz-adv-x="500" d="M113 621 L113 541 L386 541 L386 621 L113 621 Z " />
<glyph glyph-name="degree" unicode="&#xb0;" horiz-adv-x="432" d="M216 661 C133 661 63 594 63 513 C63 427 131 360 217 360 C301 360 370 428 370 511 C370 594 301 661 216 661 L216 661 Z M216 588 C260 588 295 553 295 511 C295 469 260 434 217 434 C173 434 138 468 138 512 C138 554 174 588 216 588 L216 588 Z " />
<glyph glyph-name="plusminus" unicode="&#xb1;" horiz-adv-x="433" d="M33 428 L33 313 L154 313 L154 184 L279 184 L279 313 L400 313 L400 428 L279 428 L279 556 L154 556 L154 428 L33 428 Z M33 113 L33 -2 L400 -2 L400 113 L33 113 Z " />
<glyph glyph-name="twosuperior" unicode="&#xb2;" horiz-adv-x="286" d="M112 523 C111 536 111 542 111 549 C111 592 121 612 142 612 C161 612 172 595 172 566 C172 537 160 507 121 440 L21 267 L250 267 L250 341 L155 341 L213 446 C249 508 257 530 257 569 C257 637 216 674 141 674 C62 674 28 636 28 549 C28 541 28 535 29 523 L112 523 Z " />
<glyph glyph-name="threesuperior" unicode="&#xb3;" horiz-adv-x="287" d="M120 549 C119 554 119 558 119 560 C119 588 127 602 144 602 C160 602 169 588 169 561 C169 521 157 512 105 512 L105 440 L114 440 C156 440 168 429 168 387 C168 347 158 328 136 328 C118 328 107 341 107 363 C107 365 107 372 108 377 L23 377 L23 370 C23 302 66 261 137 261 C216 261 265 306 265 380 C265 428 244 462 206 474 C237 490 252 521 252 567 C252 633 210 673 143 673 C110 673 83 663 66 644 C47 624 40 600 40 549 L120 549 Z " />
<glyph glyph-name="acute" unicode="&#xb4;" horiz-adv-x="500" d="M288 681 L203 553 L264 518 L378 640 L288 681 Z " />
<glyph glyph-name="mu" unicode="&#xb5;" horiz-adv-x="393" d="M165 -220 L148 4 C165 -5 179 -9 199 -9 C253 -9 305 18 332 60 C348 84 353 105 353 151 L353 447 L228 447 L228 191 C227 141 227 141 225 133 C222 117 211 107 196 107 C185 107 175 114 170 125 C166 135 165 148 165 191 L165 447 L40 447 L40 -220 L165 -220 Z " />
<glyph glyph-name="paragraph" unicode="&#xb6;" horiz-adv-x="548" d="M184 -93 L290 -93 L290 571 L363 571 L363 -93 L469 -93 L469 571 L522 571 L522 667 L223 667 C172 667 124 657 97 641 C52 615 27 565 27 502 C27 408 86 344 172 344 L184 344 L184 -93 Z " />
<glyph glyph-name="periodcentered" unicode="&#xb7;" horiz-adv-x="250" d="M127 317 C79 317 41 280 41 233 C41 186 79 148 126 148 C172 148 210 186 210 233 C210 279 172 317 127 317 L127 317 Z " />
<glyph glyph-name="cedilla" unicode="&#xb8;" horiz-adv-x="500" d="M253 -42 L184 -164 L240 -193 L332 -74 L253 -42 Z " />
<glyph glyph-name="onesuperior" unicode="&#xb9;" horiz-adv-x="286" d="M65 667 L65 592 L105 592 L105 267 L192 267 L192 667 L65 667 Z " />
<glyph glyph-name="ordmasculine" unicode="&#xba;" horiz-adv-x="289" d="M142 674 C74 674 31 620 31 535 C31 449 74 396 143 396 C213 396 253 446 253 533 C253 624 214 674 142 674 L142 674 Z M143 600 C157 600 166 574 166 534 C166 495 157 469 143 469 C127 469 118 494 118 535 C118 575 127 600 143 600 L143 600 Z M31 350 L31 277 L253 277 L253 350 L31 350 Z " />
<glyph glyph-name="guillemotright" unicode="&#xbb;" horiz-adv-x="396" d="M30 406 L121 234 L30 67 L97 29 L213 234 L97 440 L30 406 Z M183 406 L274 234 L183 67 L251 29 L366 234 L251 440 L183 406 Z " />
<glyph glyph-name="onequarter" unicode="&#xbc;" horiz-adv-x="720" d="M65 667 L65 592 L105 592 L105 267 L192 267 L192 667 L65 667 Z M473 667 L156 0 L233 0 L550 667 L473 667 Z M565 400 L452 157 L452 92 L574 92 L574 0 L661 0 L661 92 L695 92 L695 166 L661 166 L661 400 L565 400 Z M574 166 L520 166 L574 291 L574 166 Z " />
<glyph glyph-name="onehalf" unicode="&#xbd;" horiz-adv-x="719" d="M65 667 L65 592 L105 592 L105 267 L192 267 L192 667 L65 667 Z M473 667 L156 0 L233 0 L550 667 L473 667 Z M545 257 C544 270 544 276 544 283 C544 326 554 346 575 346 C594 346 605 329 605 300 C605 271 592 239 554 173 L454 0 L683 0 L683 74 L588 74 L646 179 C682 242 690 264 690 303 C690 370 649 407 574 407 C495 407 461 369 461 283 C461 275 461 269 462 257 L545 257 Z " />
<glyph glyph-name="threequarters" unicode="&#xbe;" horiz-adv-x="720" d="M120 549 C119 554 119 558 119 560 C119 588 127 602 144 602 C160 602 169 588 169 561 C169 521 157 512 105 512 L105 440 L114 440 C156 440 168 429 168 387 C168 347 158 328 136 328 C118 328 107 341 107 363 C107 365 107 372 108 377 L23 377 L23 370 C23 302 66 261 137 261 C216 261 265 306 265 380 C265 428 244 462 206 474 C237 490 252 521 252 567 C252 633 210 673 143 673 C110 673 83 663 66 644 C47 624 40 600 40 549 L120 549 Z M474 667 L157 0 L234 0 L551 667 L474 667 Z M566 400 L453 157 L453 92 L575 92 L575 0 L662 0 L662 92 L696 92 L696 166 L662 166 L662 400 L566 400 Z M575 166 L521 166 L575 291 L575 166 Z " />
<glyph glyph-name="questiondown" unicode="&#xbf;" horiz-adv-x="414" d="M137 275 L137 189 C113 181 99 172 83 158 C52 128 30 65 30 4 C30 -114 105 -193 215 -193 C277 -193 326 -169 356 -123 C376 -94 382 -66 384 1 L259 1 C260 -6 260 -9 260 -14 C260 -53 243 -78 217 -78 C188 -78 171 -45 171 8 C171 74 199 113 247 113 C253 113 258 113 267 111 L267 275 L137 275 Z M204 495 C156 495 118 458 118 411 C118 364 155 326 202 326 C249 326 287 364 287 411 C287 456 249 495 204 495 L204 495 Z " />
<glyph glyph-name="Agrave" unicode="&#xc0;" horiz-adv-x="460" d="M158 667 L3 0 L135 0 L158 112 L292 112 L316 0 L456 0 L297 667 L158 667 Z M272 215 L179 215 L198 307 C209 359 219 438 223 495 C230 430 236 390 250 319 L272 215 Z M174 864 L104 800 L246 724 L290 774 L174 864 Z " />
<glyph glyph-name="Aacute" unicode="&#xc1;" horiz-adv-x="460" d="M158 667 L3 0 L135 0 L158 112 L292 112 L316 0 L456 0 L297 667 L158 667 Z M272 215 L179 215 L198 307 C209 359 219 438 223 495 C230 430 236 390 250 319 L272 215 Z M286 864 L170 774 L215 724 L357 800 L286 864 Z " />
<glyph glyph-name="Acircumflex" unicode="&#xc2;" horiz-adv-x="460" d="M158 667 L3 0 L135 0 L158 112 L292 112 L316 0 L456 0 L297 667 L158 667 Z M272 215 L179 215 L198 307 C209 359 219 438 223 495 C230 430 236 390 250 319 L272 215 Z M230 879 L103 789 L147 724 L230 781 L312 724 L358 789 L230 879 Z " />
<glyph glyph-name="Atilde" unicode="&#xc3;" horiz-adv-x="460" d="M158 667 L3 0 L135 0 L158 112 L292 112 L316 0 L456 0 L297 667 L158 667 Z M272 215 L179 215 L198 307 C209 359 219 438 223 495 C230 430 236 390 250 319 L272 215 Z M309 854 C309 829 300 819 278 819 C268 819 260 821 241 829 C210 843 190 849 173 849 C126 849 93 804 93 742 L93 735 L156 735 C159 757 168 768 181 768 C190 768 202 765 224 755 C262 739 269 737 288 737 C340 737 372 781 373 854 L309 854 Z " />
<glyph glyph-name="Adieresis" unicode="&#xc4;" horiz-adv-x="460" d="M158 667 L3 0 L135 0 L158 112 L292 112 L316 0 L456 0 L297 667 L158 667 Z M272 215 L179 215 L198 307 C209 359 219 438 223 495 C230 430 236 390 250 319 L272 215 Z M141 857 C103 857 73 828 73 791 C73 754 103 724 140 724 C176 724 206 754 206 791 C206 827 176 857 141 857 L141 857 Z M321 857 C283 857 253 828 253 791 C253 754 283 724 320 724 C356 724 386 754 386 791 C386 827 356 857 321 857 L321 857 Z " />
<glyph glyph-name="Aring" unicode="&#xc5;" horiz-adv-x="460" d="M158 667 L3 0 L135 0 L158 112 L292 112 L316 0 L456 0 L297 667 L158 667 Z M272 215 L179 215 L198 307 C209 359 219 438 223 495 C230 430 236 390 250 319 L272 215 Z M233 911 C179 911 136 869 136 816 C136 763 178 720 232 720 C284 720 327 763 327 816 C327 868 284 911 233 911 L233 911 Z M232 854 C252 854 269 837 269 816 C269 795 252 778 232 778 C211 778 194 795 194 816 C194 837 211 854 232 854 L232 854 Z " />
<glyph glyph-name="AE" unicode="&#xc6;" horiz-adv-x="592" d="M155 667 L3 0 L134 0 L155 111 L293 111 L318 0 L585 0 L554 123 L426 123 L388 280 L519 280 L488 405 L357 405 L323 544 L454 544 L426 667 L155 667 Z M271 216 L176 216 L199 331 C208 371 215 426 221 495 C226 443 229 421 230 415 C235 382 235 378 248 320 L271 216 Z " />
<glyph glyph-name="Ccedilla" unicode="&#xc7;" horiz-adv-x="426" d="M393 662 C365 671 350 674 324 674 C164 674 37 525 37 337 C37 141 163 -7 330 -7 C356 -7 367 -5 393 4 L393 130 C370 122 358 120 341 120 C247 120 176 215 176 338 C176 463 243 548 342 548 C360 548 371 546 393 541 L393 662 Z M262 -42 L199 -169 L251 -190 L348 -77 L262 -42 Z " />
<glyph glyph-name="Egrave" unicode="&#xc8;" horiz-adv-x="355" d="M52 667 L52 0 L319 0 L319 123 L184 123 L184 273 L301 273 L301 399 L184 399 L184 544 L317 544 L317 667 L52 667 Z M132 864 L62 800 L204 724 L248 774 L132 864 Z " />
<glyph glyph-name="Eacute" unicode="&#xc9;" horiz-adv-x="355" d="M52 667 L52 0 L319 0 L319 123 L184 123 L184 273 L301 273 L301 399 L184 399 L184 544 L317 544 L317 667 L52 667 Z M238 864 L122 774 L166 724 L308 800 L238 864 Z " />
<glyph glyph-name="Ecircumflex" unicode="&#xca;" horiz-adv-x="355" d="M52 667 L52 0 L319 0 L319 123 L184 123 L184 273 L301 273 L301 399 L184 399 L184 544 L317 544 L317 667 L52 667 Z M185 879 L58 789 L103 724 L185 781 L267 724 L313 789 L185 879 Z " />
<glyph glyph-name="Edieresis" unicode="&#xcb;" horiz-adv-x="355" d="M51 667 L51 0 L318 0 L318 123 L183 123 L183 273 L301 273 L301 399 L183 399 L183 544 L317 544 L317 667 L51 667 Z M96 857 C58 857 28 828 28 791 C28 754 58 724 95 724 C131 724 161 754 161 791 C161 827 131 857 96 857 L96 857 Z M276 857 C238 857 208 828 208 791 C208 754 238 724 275 724 C311 724 341 754 341 791 C341 827 311 857 276 857 L276 857 Z " />
<glyph glyph-name="Igrave" unicode="&#xcc;" horiz-adv-x="236" d="M52 667 L52 0 L184 0 L184 667 L52 667 Z M63 864 L-8 800 L134 724 L179 774 L63 864 Z " />
<glyph glyph-name="Iacute" unicode="&#xcd;" horiz-adv-x="236" d="M52 667 L52 0 L184 0 L184 667 L52 667 Z M175 864 L59 774 L103 724 L245 800 L175 864 Z " />
<glyph glyph-name="Icircumflex" unicode="&#xce;" horiz-adv-x="236" d="M52 667 L52 0 L184 0 L184 667 L52 667 Z M118 879 L-9 789 L36 724 L118 781 L200 724 L246 789 L118 879 Z " />
<glyph glyph-name="Idieresis" unicode="&#xcf;" horiz-adv-x="236" d="M51 667 L51 0 L183 0 L183 667 L51 667 Z M37 857 C-1 857 -31 828 -31 791 C-31 754 -1 724 36 724 C72 724 102 754 102 791 C102 827 72 857 37 857 L37 857 Z M204 857 C166 857 136 828 136 791 C136 754 166 724 203 724 C239 724 269 754 269 791 C269 827 239 857 204 857 L204 857 Z " />
<glyph glyph-name="Eth" unicode="&#xd0;" horiz-adv-x="488" d="M52 667 L52 390 L-1 390 L-1 283 L52 283 L52 0 L181 0 C357 0 452 115 452 329 C452 449 421 542 361 600 C311 649 258 667 163 667 L52 667 Z M184 283 L251 283 L251 390 L184 390 L184 550 C224 548 244 538 267 512 C299 475 319 406 319 331 C319 256 299 188 266 154 C243 130 222 122 184 121 L184 283 Z " />
<glyph glyph-name="Ntilde" unicode="&#xd1;" horiz-adv-x="517" d="M52 667 L52 0 L184 0 L184 316 C182 356 181 377 177 402 L340 0 L465 0 L465 667 L330 667 L330 356 C331 324 334 292 340 264 L177 667 L52 667 Z M345 854 C345 829 336 819 313 819 C303 819 296 821 277 829 C246 843 226 849 209 849 C162 849 130 806 129 742 L129 735 L191 735 C195 757 203 768 217 768 C226 768 237 765 259 755 C298 739 305 737 324 737 C376 737 408 781 409 854 L345 854 Z " />
<glyph glyph-name="Ograve" unicode="&#xd2;" horiz-adv-x="542" d="M271 678 C206 678 137 641 98 584 C56 525 37 446 37 334 C37 221 56 142 98 83 C137 26 206 -11 272 -11 C337 -11 406 26 445 83 C486 141 506 221 506 328 C506 447 488 525 445 584 C405 642 338 678 271 678 L271 678 Z M272 557 C293 557 315 543 330 520 C354 485 365 424 365 333 C365 195 331 116 272 116 C212 116 178 195 178 337 C178 417 188 476 208 511 C223 540 247 557 272 557 L272 557 Z M216 864 L145 800 L287 724 L332 774 L216 864 Z " />
<glyph glyph-name="Oacute" unicode="&#xd3;" horiz-adv-x="542" d="M271 678 C206 678 137 641 98 584 C56 525 37 446 37 334 C37 221 56 142 98 83 C137 26 206 -11 272 -11 C337 -11 406 26 445 83 C486 141 506 221 506 328 C506 447 488 525 445 584 C405 642 338 678 271 678 L271 678 Z M272 557 C293 557 315 543 330 520 C354 485 365 424 365 333 C365 195 331 116 272 116 C212 116 178 195 178 337 C178 417 188 476 208 511 C223 540 247 557 272 557 L272 557 Z M328 864 L212 774 L256 724 L399 800 L328 864 Z " />
<glyph glyph-name="Ocircumflex" unicode="&#xd4;" horiz-adv-x="542" d="M271 678 C206 678 137 641 98 584 C56 525 37 446 37 334 C37 221 56 142 98 83 C137 26 206 -11 272 -11 C337 -11 406 26 445 83 C486 141 506 221 506 328 C506 447 488 525 445 584 C405 642 338 678 271 678 L271 678 Z M272 557 C293 557 315 543 330 520 C354 485 365 424 365 333 C365 195 331 116 272 116 C212 116 178 195 178 337 C178 417 188 476 208 511 C223 540 247 557 272 557 L272 557 Z M272 879 L145 789 L189 724 L272 781 L354 724 L399 789 L272 879 Z " />
<glyph glyph-name="Otilde" unicode="&#xd5;" horiz-adv-x="542" d="M271 678 C206 678 137 641 98 584 C56 525 37 446 37 334 C37 221 56 142 98 83 C137 26 206 -11 272 -11 C337 -11 406 26 445 83 C486 141 506 221 506 328 C506 447 488 525 445 584 C405 642 338 678 271 678 L271 678 Z M272 557 C293 557 315 543 330 520 C354 485 365 424 365 333 C365 195 331 116 272 116 C212 116 178 195 178 337 C178 417 188 476 208 511 C223 540 247 557 272 557 L272 557 Z M354 854 C354 829 345 819 323 819 C313 819 305 821 286 829 C255 843 235 849 218 849 C171 849 138 804 138 742 L138 735 L201 735 C204 757 213 768 226 768 C235 768 247 765 269 755 C307 739 314 737 333 737 C385 737 417 781 418 854 L354 854 Z " />
<glyph glyph-name="Odieresis" unicode="&#xd6;" horiz-adv-x="542" d="M271 678 C206 678 137 641 98 584 C56 525 37 446 37 334 C37 221 56 142 98 83 C137 26 206 -11 272 -11 C337 -11 406 26 445 83 C486 141 506 221 506 328 C506 447 488 525 445 584 C405 642 338 678 271 678 L271 678 Z M272 557 C293 557 315 543 330 520 C354 485 365 424 365 333 C365 195 331 116 272 116 C212 116 178 195 178 337 C178 417 188 476 208 511 C223 540 247 557 272 557 L272 557 Z M183 857 C145 857 115 828 115 791 C115 754 145 724 182 724 C218 724 248 754 248 791 C248 827 218 857 183 857 L183 857 Z M363 857 C325 857 295 828 295 791 C295 754 325 724 362 724 C398 724 428 754 428 791 C428 827 398 857 363 857 L363 857 Z " />
<glyph glyph-name="multiply" unicode="&#xd7;" horiz-adv-x="433" d="M48 248 L125 172 L213 259 L306 166 L390 250 L297 343 L384 431 L307 508 L220 420 L127 513 L43 429 L136 336 L48 248 Z " />
<glyph glyph-name="Oslash" unicode="&#xd8;" horiz-adv-x="542" d="M454 682 L413 619 C362 662 323 678 270 678 C201 678 131 639 92 578 C54 517 36 440 36 334 C36 232 51 161 85 101 L33 20 L93 -24 L137 39 C190 1 222 -11 270 -11 C343 -11 415 31 453 95 C488 155 505 230 505 329 C505 422 493 490 465 552 L521 639 L454 682 Z M179 246 C176 297 174 327 174 334 C174 405 191 490 210 520 C226 544 245 556 267 556 C296 556 315 543 333 513 L179 246 Z M360 416 C363 350 365 315 365 311 C365 191 328 117 269 117 C245 117 229 127 212 153 L360 416 Z " />
<glyph glyph-name="Ugrave" unicode="&#xd9;" horiz-adv-x="499" d="M52 667 L52 189 C52 133 53 122 63 94 C87 26 153 -11 249 -11 C332 -11 394 17 425 67 C442 94 447 119 447 170 L447 667 L315 667 L315 225 C315 187 313 160 310 150 C302 122 282 108 250 108 C225 108 208 117 197 136 C187 153 184 173 184 225 L184 667 L52 667 Z M194 864 L123 800 L265 724 L310 774 L194 864 Z " />
<glyph glyph-name="Uacute" unicode="&#xda;" horiz-adv-x="499" d="M52 667 L52 189 C52 133 53 122 63 94 C87 26 153 -11 249 -11 C332 -11 394 17 425 67 C442 94 447 119 447 170 L447 667 L315 667 L315 225 C315 187 313 160 310 150 C302 122 282 108 250 108 C225 108 208 117 197 136 C187 153 184 173 184 225 L184 667 L52 667 Z M306 864 L190 774 L234 724 L377 800 L306 864 Z " />
<glyph glyph-name="Ucircumflex" unicode="&#xdb;" horiz-adv-x="499" d="M52 667 L52 189 C52 133 53 122 63 94 C87 26 153 -11 249 -11 C332 -11 394 17 425 67 C442 94 447 119 447 170 L447 667 L315 667 L315 225 C315 187 313 160 310 150 C302 122 282 108 250 108 C225 108 208 117 197 136 C187 153 184 173 184 225 L184 667 L52 667 Z M250 879 L123 789 L167 724 L250 781 L332 724 L377 789 L250 879 Z " />
<glyph glyph-name="Udieresis" unicode="&#xdc;" horiz-adv-x="499" d="M52 667 L52 189 C52 133 53 122 63 94 C87 26 153 -11 249 -11 C332 -11 394 17 425 67 C442 94 447 119 447 170 L447 667 L315 667 L315 225 C315 187 313 160 310 150 C302 122 282 108 250 108 C225 108 208 117 197 136 C187 153 184 173 184 225 L184 667 L52 667 Z M161 857 C123 857 93 828 93 791 C93 754 123 724 160 724 C196 724 226 754 226 791 C226 827 196 857 161 857 L161 857 Z M341 857 C303 857 273 828 273 791 C273 754 303 724 340 724 C376 724 406 754 406 791 C406 827 376 857 341 857 L341 857 Z " />
<glyph glyph-name="Yacute" unicode="&#xdd;" horiz-adv-x="447" d="M0 667 L160 319 L160 0 L292 0 L292 319 L447 667 L299 667 L236 492 C232 482 229 470 224 453 C221 464 216 477 211 492 L145 667 L0 667 Z M279 864 L163 774 L208 724 L350 800 L279 864 Z " />
<glyph glyph-name="Thorn" unicode="&#xde;" horiz-adv-x="435" d="M52 667 L52 0 L184 0 L184 181 C197 179 204 179 214 179 C338 179 415 255 415 376 C415 453 380 521 324 552 C294 569 268 574 212 574 L184 574 L184 667 L52 667 Z M184 467 L207 467 C259 467 284 438 284 376 C284 314 257 291 184 291 L184 467 Z " />
<glyph glyph-name="germandbls" unicode="&#xdf;" horiz-adv-x="403" d="M165 0 L165 547 C165 585 167 601 171 610 C176 620 186 626 196 626 C220 626 231 598 231 540 C231 479 224 462 193 454 L193 342 C212 338 220 333 226 319 C236 296 241 267 241 225 C241 141 231 116 193 112 L193 0 C211 -4 220 -5 233 -5 C275 -5 313 12 335 41 C361 74 376 140 376 217 C376 313 353 365 294 400 C343 422 362 462 362 543 C362 670 307 738 204 738 C120 738 64 697 46 622 C41 598 40 588 40 519 L40 0 L165 0 Z " />
<glyph glyph-name="agrave" unicode="&#xe0;" horiz-adv-x="396" d="M231 447 L231 392 C210 435 183 456 147 456 C71 456 27 371 27 225 C27 82 74 -9 149 -9 C183 -9 209 9 231 51 L231 0 L356 0 L356 447 L231 447 Z M198 344 C224 344 240 298 240 222 C240 149 224 103 198 103 C170 103 154 147 154 224 C154 300 170 344 198 344 L198 344 Z M195 681 L105 640 L219 518 L280 553 L195 681 Z " />
<glyph glyph-name="aacute" unicode="&#xe1;" horiz-adv-x="396" d="M231 447 L231 392 C210 435 183 456 147 456 C71 456 27 371 27 225 C27 82 74 -9 149 -9 C183 -9 209 9 231 51 L231 0 L356 0 L356 447 L231 447 Z M198 344 C224 344 240 298 240 222 C240 149 224 103 198 103 C170 103 154 147 154 224 C154 300 170 344 198 344 L198 344 Z M243 681 L158 553 L219 518 L333 640 L243 681 Z " />
<glyph glyph-name="acircumflex" unicode="&#xe2;" horiz-adv-x="396" d="M231 447 L231 392 C210 435 183 456 147 456 C71 456 27 371 27 225 C27 82 74 -9 149 -9 C183 -9 209 9 231 51 L231 0 L356 0 L356 447 L231 447 Z M198 344 C224 344 240 298 240 222 C240 149 224 103 198 103 C170 103 154 147 154 224 C154 300 170 344 198 344 L198 344 Z M211 679 L84 579 L133 518 L211 579 L286 518 L340 572 L211 679 Z " />
<glyph glyph-name="atilde" unicode="&#xe3;" horiz-adv-x="396" d="M231 447 L231 392 C210 435 183 456 147 456 C71 456 27 371 27 225 C27 82 74 -9 149 -9 C183 -9 209 9 231 51 L231 0 L356 0 L356 447 L231 447 Z M198 344 C224 344 240 298 240 222 C240 149 224 103 198 103 C170 103 154 147 154 224 C154 300 170 344 198 344 L198 344 Z M285 652 C285 627 276 617 253 617 C243 617 235 619 217 627 C185 641 165 647 148 647 C101 647 68 602 68 540 L68 533 L131 533 C135 555 143 566 156 566 C166 566 177 563 199 553 C237 537 245 535 263 535 C316 535 348 579 348 652 L285 652 Z " />
<glyph glyph-name="adieresis" unicode="&#xe4;" horiz-adv-x="396" d="M231 447 L231 392 C210 435 183 456 147 456 C71 456 27 371 27 225 C27 82 74 -9 149 -9 C183 -9 209 9 231 51 L231 0 L356 0 L356 447 L231 447 Z M198 344 C224 344 240 298 240 222 C240 149 224 103 198 103 C170 103 154 147 154 224 C154 300 170 344 198 344 L198 344 Z M123 659 C86 659 56 630 56 594 C56 557 85 527 122 527 C158 527 188 557 188 593 C188 629 158 659 123 659 L123 659 Z M302 659 C265 659 235 630 235 594 C235 557 264 527 301 527 C337 527 367 557 367 593 C367 629 337 659 302 659 L302 659 Z " />
<glyph glyph-name="aring" unicode="&#xe5;" horiz-adv-x="396" d="M231 447 L231 392 C210 435 183 456 147 456 C71 456 27 371 27 225 C27 82 74 -9 149 -9 C183 -9 209 9 231 51 L231 0 L356 0 L356 447 L231 447 Z M198 344 C224 344 240 298 240 222 C240 149 224 103 198 103 C170 103 154 147 154 224 C154 300 170 344 198 344 L198 344 Z M211 709 C157 709 114 667 114 614 C114 560 157 517 210 517 C262 517 305 560 305 613 C305 665 262 709 211 709 L211 709 Z M210 650 C229 650 246 633 246 613 C246 593 229 576 209 576 C188 576 172 593 172 613 C172 634 189 650 210 650 L210 650 Z " />
<glyph glyph-name="ae" unicode="&#xe6;" horiz-adv-x="570" d="M66 330 C104 346 126 352 153 352 C186 352 211 339 219 318 C225 305 227 290 227 252 C210 263 189 268 160 268 C81 268 27 213 27 131 C27 47 85 -9 173 -9 C218 -9 249 6 287 46 C317 7 350 -9 398 -9 C450 -9 495 15 518 55 C532 78 537 98 538 137 L436 137 L436 130 C436 102 419 82 395 82 C361 82 342 120 340 192 L544 192 C542 287 537 328 522 364 C497 426 458 456 400 456 C349 456 317 437 291 390 C264 438 230 456 168 456 C134 456 106 451 66 437 L66 330 Z M188 178 C213 178 234 157 234 131 C234 105 213 84 187 84 C161 84 140 105 140 131 C140 157 161 178 188 178 L188 178 Z M341 269 C342 332 358 365 387 365 C416 365 433 332 433 269 L341 269 Z " />
<glyph glyph-name="ccedilla" unicode="&#xe7;" horiz-adv-x="281" d="M262 443 C237 453 223 456 199 456 C144 456 105 437 76 396 C44 350 27 289 27 218 C27 82 92 -9 190 -9 C217 -9 232 -6 262 7 L262 121 C247 111 238 108 224 108 C179 108 154 151 154 228 C154 303 181 348 226 348 C241 348 250 345 262 334 L262 443 Z M144 -42 L74 -164 L130 -193 L223 -74 L144 -42 Z " />
<glyph glyph-name="egrave" unicode="&#xe8;" horiz-adv-x="373" d="M234 138 C232 101 220 84 194 84 C161 84 148 112 147 190 L344 190 C346 215 347 226 347 242 C347 376 290 456 193 456 C91 456 27 362 27 213 C27 75 91 -9 196 -9 C251 -9 296 16 316 59 C327 81 332 97 339 138 L234 138 Z M239 267 L148 267 L148 280 C148 330 165 361 194 361 C222 361 239 330 239 280 L239 267 Z M163 681 L73 640 L187 518 L248 553 L163 681 Z " />
<glyph glyph-name="eacute" unicode="&#xe9;" horiz-adv-x="373" d="M234 138 C232 101 220 84 194 84 C161 84 148 112 147 190 L344 190 C346 215 347 226 347 242 C347 376 290 456 193 456 C91 456 27 362 27 213 C27 75 91 -9 196 -9 C251 -9 296 16 316 59 C327 81 332 97 339 138 L234 138 Z M239 267 L148 267 L148 280 C148 330 165 361 194 361 C222 361 239 330 239 280 L239 267 Z M225 681 L140 553 L200 518 L315 640 L225 681 Z " />
<glyph glyph-name="ecircumflex" unicode="&#xea;" horiz-adv-x="373" d="M234 138 C232 101 220 84 194 84 C161 84 148 112 147 190 L344 190 C346 215 347 226 347 242 C347 376 290 456 193 456 C91 456 27 362 27 213 C27 75 91 -9 196 -9 C251 -9 296 16 316 59 C327 81 332 97 339 138 L234 138 Z M239 267 L148 267 L148 280 C148 330 165 361 194 361 C222 361 239 330 239 280 L239 267 Z M196 679 L69 579 L118 518 L196 579 L271 518 L325 572 L196 679 Z " />
<glyph glyph-name="edieresis" unicode="&#xeb;" horiz-adv-x="373" d="M234 138 C232 101 220 84 194 84 C161 84 148 112 147 190 L344 190 C346 215 347 226 347 242 C347 376 290 456 193 456 C91 456 27 362 27 213 C27 75 91 -9 196 -9 C251 -9 296 16 316 59 C327 81 332 97 339 138 L234 138 Z M239 267 L148 267 L148 280 C148 330 165 361 194 361 C222 361 239 330 239 280 L239 267 Z M108 659 C71 659 41 630 41 594 C41 557 70 527 107 527 C143 527 173 557 173 593 C173 629 143 659 108 659 L108 659 Z M287 659 C250 659 220 630 220 594 C220 557 249 527 286 527 C322 527 352 557 352 593 C352 629 322 659 287 659 L287 659 Z " />
<glyph glyph-name="igrave" unicode="&#xec;" horiz-adv-x="205" d="M40 447 L40 0 L165 0 L165 447 L40 447 Z M72 681 L-18 640 L96 518 L157 553 L72 681 Z " />
<glyph glyph-name="iacute" unicode="&#xed;" horiz-adv-x="205" d="M40 447 L40 0 L165 0 L165 447 L40 447 Z M134 681 L49 553 L110 518 L224 640 L134 681 Z " />
<glyph glyph-name="icircumflex" unicode="&#xee;" horiz-adv-x="205" d="M40 447 L40 0 L165 0 L165 447 L40 447 Z M102 679 L-18 579 L31 518 L102 579 L170 518 L224 572 L102 679 Z " />
<glyph glyph-name="idieresis" unicode="&#xef;" horiz-adv-x="205" d="M40 447 L40 0 L165 0 L165 447 L40 447 Z M23 659 C-14 659 -44 630 -44 594 C-44 557 -15 527 22 527 C58 527 88 557 88 593 C88 629 58 659 23 659 L23 659 Z M185 659 C148 659 118 630 118 594 C118 557 147 527 184 527 C220 527 250 557 250 593 C250 629 220 659 185 659 L185 659 Z " />
<glyph glyph-name="eth" unicode="&#xf0;" horiz-adv-x="393" d="M40 660 C65 646 89 630 110 611 L35 555 L81 487 L165 545 C183 516 192 497 205 455 L190 456 C140 456 89 427 64 384 C41 346 27 283 27 224 C27 164 41 102 64 63 C90 19 142 -9 199 -9 C306 -9 366 75 366 226 C366 379 325 510 247 606 L324 660 L276 728 L188 665 C168 685 137 706 95 727 L40 660 Z M197 343 C223 343 239 298 239 222 C239 148 223 103 197 103 C170 103 154 147 154 223 C154 299 170 343 197 343 L197 343 Z " />
<glyph glyph-name="ntilde" unicode="&#xf1;" horiz-adv-x="394" d="M40 447 L40 0 L165 0 L165 255 C165 292 165 296 169 306 C174 321 185 330 199 330 C224 330 229 316 229 255 L229 0 L354 0 L354 299 C354 366 351 391 341 415 C330 440 302 456 272 456 C226 456 193 432 165 377 L165 447 L40 447 Z M277 652 C277 627 268 617 245 617 C235 617 227 619 209 627 C177 641 157 647 140 647 C93 647 60 602 60 540 L60 533 L123 533 C127 555 135 566 148 566 C158 566 169 563 191 553 C229 537 237 535 255 535 C308 535 340 579 340 652 L277 652 Z " />
<glyph glyph-name="ograve" unicode="&#xf2;" horiz-adv-x="392" d="M197 456 C141 456 92 429 65 383 C41 343 27 283 27 224 C27 164 41 105 65 64 C91 18 141 -9 197 -9 C305 -9 366 75 366 220 C366 373 307 456 197 456 L197 456 Z M197 344 C223 344 239 298 239 222 C239 149 223 103 197 103 C170 103 154 147 154 224 C154 300 170 344 197 344 L197 344 Z M166 681 L76 640 L190 518 L251 553 L166 681 Z " />
<glyph glyph-name="oacute" unicode="&#xf3;" horiz-adv-x="392" d="M197 456 C141 456 92 429 65 383 C41 343 27 283 27 224 C27 164 41 105 65 64 C91 18 141 -9 197 -9 C305 -9 366 75 366 220 C366 373 307 456 197 456 L197 456 Z M197 344 C223 344 239 298 239 222 C239 149 223 103 197 103 C170 103 154 147 154 224 C154 300 170 344 197 344 L197 344 Z M228 681 L143 553 L204 518 L318 640 L228 681 Z " />
<glyph glyph-name="ocircumflex" unicode="&#xf4;" horiz-adv-x="392" d="M197 456 C141 456 92 429 65 383 C41 343 27 283 27 224 C27 164 41 105 65 64 C91 18 141 -9 197 -9 C305 -9 366 75 366 220 C366 373 307 456 197 456 L197 456 Z M197 344 C223 344 239 298 239 222 C239 149 223 103 197 103 C170 103 154 147 154 224 C154 300 170 344 197 344 L197 344 Z M196 679 L69 579 L118 518 L196 579 L270 518 L325 572 L196 679 Z " />
<glyph glyph-name="otilde" unicode="&#xf5;" horiz-adv-x="392" d="M197 456 C141 456 92 429 65 383 C41 343 27 283 27 224 C27 164 41 105 65 64 C91 18 141 -9 197 -9 C305 -9 366 75 366 220 C366 373 307 456 197 456 L197 456 Z M197 344 C223 344 239 298 239 222 C239 149 223 103 197 103 C170 103 154 147 154 224 C154 300 170 344 197 344 L197 344 Z M281 639 C279 629 278 623 278 622 C274 612 263 604 250 604 C238 604 227 608 206 618 C176 634 164 638 143 638 C92 638 68 604 60 520 L124 520 C129 539 137 548 152 548 C160 548 169 546 176 543 C228 520 238 517 261 517 C309 517 334 550 347 635 L281 639 Z " />
<glyph glyph-name="odieresis" unicode="&#xf6;" horiz-adv-x="392" d="M197 456 C141 456 92 429 65 383 C41 343 27 283 27 224 C27 164 41 105 65 64 C91 18 141 -9 197 -9 C305 -9 366 75 366 220 C366 373 307 456 197 456 L197 456 Z M197 344 C223 344 239 298 239 222 C239 149 223 103 197 103 C170 103 154 147 154 224 C154 300 170 344 197 344 L197 344 Z M108 659 C71 659 41 630 41 594 C41 557 70 527 107 527 C143 527 173 557 173 593 C173 629 143 659 108 659 L108 659 Z M287 659 C250 659 220 630 220 594 C220 557 249 527 286 527 C322 527 352 557 352 593 C352 629 322 659 287 659 L287 659 Z " />
<glyph glyph-name="divide" unicode="&#xf7;" horiz-adv-x="433" d="M217 583 C176 583 144 551 144 511 C144 471 176 439 216 439 C255 439 288 471 288 511 C288 550 256 583 217 583 L217 583 Z M217 241 C176 241 144 209 144 168 C144 129 177 96 216 96 C255 96 288 129 288 168 C288 208 256 241 217 241 L217 241 Z M33 397 L33 282 L400 282 L400 397 L33 397 Z " />
<glyph glyph-name="oslash" unicode="&#xf8;" horiz-adv-x="393" d="M311 478 L280 432 C260 447 230 455 194 455 C140 455 100 435 71 392 C42 348 27 294 27 229 C27 170 39 115 59 75 L22 13 L80 -26 L110 19 C137 -3 155 -9 193 -9 C305 -9 366 74 366 227 C366 284 359 318 333 378 L370 436 L311 478 Z M196 345 C223 345 239 298 239 221 C239 149 223 103 198 103 C170 103 154 148 154 225 C154 300 170 345 196 345 L196 345 Z " />
<glyph glyph-name="ugrave" unicode="&#xf9;" horiz-adv-x="393" d="M40 447 L40 168 C40 102 42 88 58 61 C82 19 136 -9 195 -9 C252 -9 305 17 332 60 C348 84 353 105 353 151 L353 447 L228 447 L228 191 C227 141 227 141 225 133 C222 117 211 107 196 107 C185 107 175 114 170 125 C166 135 165 148 165 191 L165 447 L40 447 Z M166 681 L76 640 L190 518 L251 553 L166 681 Z " />
<glyph glyph-name="uacute" unicode="&#xfa;" horiz-adv-x="393" d="M40 447 L40 168 C40 102 42 88 58 61 C82 19 136 -9 195 -9 C252 -9 305 17 332 60 C348 84 353 105 353 151 L353 447 L228 447 L228 191 C227 141 227 141 225 133 C222 117 211 107 196 107 C185 107 175 114 170 125 C166 135 165 148 165 191 L165 447 L40 447 Z M228 681 L143 553 L204 518 L318 640 L228 681 Z " />
<glyph glyph-name="ucircumflex" unicode="&#xfb;" horiz-adv-x="393" d="M40 447 L40 168 C40 102 42 88 58 61 C82 19 136 -9 195 -9 C252 -9 305 17 332 60 C348 84 353 105 353 151 L353 447 L228 447 L228 191 C227 141 227 141 225 133 C222 117 211 107 196 107 C185 107 175 114 170 125 C166 135 165 148 165 191 L165 447 L40 447 Z M196 679 L69 579 L118 518 L196 579 L270 518 L325 572 L196 679 Z " />
<glyph glyph-name="udieresis" unicode="&#xfc;" horiz-adv-x="393" d="M40 447 L40 168 C40 102 42 88 58 61 C82 19 136 -9 195 -9 C252 -9 305 17 332 60 C348 84 353 105 353 151 L353 447 L228 447 L228 191 C227 141 227 141 225 133 C222 117 211 107 196 107 C185 107 175 114 170 125 C166 135 165 148 165 191 L165 447 L40 447 Z M108 659 C71 659 41 630 41 594 C41 557 70 527 107 527 C143 527 173 557 173 593 C173 629 143 659 108 659 L108 659 Z M287 659 C250 659 220 630 220 594 C220 557 249 527 286 527 C322 527 352 557 352 593 C352 629 322 659 287 659 L287 659 Z " />
<glyph glyph-name="yacute" unicode="&#xfd;" horiz-adv-x="366" d="M-3 447 L127 9 L56 -220 L178 -220 L370 447 L244 447 L185 192 C184 201 183 207 182 210 C179 223 176 236 173 248 L165 284 L122 447 L-3 447 Z M214 681 L129 553 L190 518 L305 640 L214 681 Z " />
<glyph glyph-name="thorn" unicode="&#xfe;" horiz-adv-x="396" d="M165 713 L40 713 L40 -220 L165 -220 L165 51 C187 9 213 -9 247 -9 C322 -9 369 82 369 225 C369 371 325 456 249 456 C213 456 186 435 165 392 L165 713 Z M198 344 C226 344 242 300 242 224 C242 147 226 103 198 103 C172 103 156 149 156 225 C156 298 172 344 198 344 L198 344 Z " />
<glyph glyph-name="ydieresis" unicode="&#xff;" horiz-adv-x="366" d="M-3 447 L127 9 L56 -220 L178 -220 L370 447 L244 447 L185 192 C184 201 183 207 182 210 C179 223 176 236 173 248 L165 284 L122 447 L-3 447 Z M95 659 C58 659 28 630 28 594 C28 557 57 527 94 527 C130 527 160 557 160 593 C160 629 130 659 95 659 L95 659 Z M274 659 C237 659 207 630 207 594 C207 557 236 527 273 527 C309 527 339 557 339 593 C339 629 309 659 274 659 L274 659 Z " />
<glyph glyph-name="Amacron" unicode="&#x100;" horiz-adv-x="460" d="M158 667 L3 0 L135 0 L158 112 L292 112 L316 0 L456 0 L297 667 L158 667 Z M272 215 L179 215 L198 307 C209 359 219 438 223 495 C230 430 236 390 250 319 L272 215 Z M86 822 L86 739 L373 739 L373 822 L86 822 Z " />
<glyph glyph-name="amacron" unicode="&#x101;" horiz-adv-x="396" d="M231 447 L231 392 C210 435 183 456 147 456 C71 456 27 371 27 225 C27 82 74 -9 149 -9 C183 -9 209 9 231 51 L231 0 L356 0 L356 447 L231 447 Z M198 344 C224 344 240 298 240 222 C240 149 224 103 198 103 C170 103 154 147 154 224 C154 300 170 344 198 344 L198 344 Z M72 621 L72 541 L345 541 L345 621 L72 621 Z " />
<glyph glyph-name="Abreve" unicode="&#x102;" horiz-adv-x="460" d="M158 667 L3 0 L135 0 L158 112 L292 112 L316 0 L456 0 L297 667 L158 667 Z M272 215 L179 215 L198 307 C209 359 219 438 223 495 C230 430 236 390 250 319 L272 215 Z M301 846 C291 821 267 808 230 808 C193 808 169 821 158 846 L94 846 C101 777 153 734 230 734 C306 734 359 777 365 846 L301 846 Z " />
<glyph glyph-name="abreve" unicode="&#x103;" horiz-adv-x="396" d="M231 447 L231 392 C210 435 183 456 147 456 C71 456 27 371 27 225 C27 82 74 -9 149 -9 C183 -9 209 9 231 51 L231 0 L356 0 L356 447 L231 447 Z M198 344 C224 344 240 298 240 222 C240 149 224 103 198 103 C170 103 154 147 154 224 C154 300 170 344 198 344 L198 344 Z M82 668 C91 582 139 528 209 528 C279 528 327 582 336 668 L258 668 C248 624 234 606 209 606 C184 606 170 623 160 668 L82 668 Z " />
<glyph glyph-name="Aogonek" unicode="&#x104;" horiz-adv-x="460" d="M158 667 L3 0 L135 0 L158 112 L292 112 L316 0 L398 0 C347 -33 324 -67 324 -108 C324 -150 363 -185 411 -185 C431 -185 446 -180 461 -168 L475 -97 C462 -110 454 -114 442 -114 C419 -114 401 -96 401 -74 C401 -50 418 -27 456 0 L297 667 L158 667 Z M272 215 L179 215 L198 307 C209 359 219 438 223 495 C230 430 236 390 250 319 L272 215 Z " />
<glyph glyph-name="aogonek" unicode="&#x105;" horiz-adv-x="396" d="M231 447 L231 392 C210 435 183 456 147 456 C71 456 27 371 27 225 C27 82 74 -9 149 -9 C183 -9 209 9 231 51 L231 0 L298 0 C247 -33 224 -67 224 -108 C224 -150 263 -185 310 -185 C330 -185 344 -180 357 -168 L371 -97 C360 -110 352 -114 340 -114 C318 -114 300 -96 300 -74 C300 -50 317 -27 356 0 L356 447 L231 447 Z M198 344 C224 344 240 298 240 222 C240 149 224 103 198 103 C170 103 154 147 154 224 C154 300 170 344 198 344 L198 344 Z " />
<glyph glyph-name="Cacute" unicode="&#x106;" horiz-adv-x="426" d="M393 662 C365 671 350 674 324 674 C164 674 37 525 37 337 C37 141 163 -7 330 -7 C356 -7 367 -5 393 4 L393 130 C370 122 358 120 341 120 C247 120 176 215 176 338 C176 463 243 548 342 548 C360 548 371 546 393 541 L393 662 Z M350 864 L234 774 L278 724 L421 800 L350 864 Z " />
<glyph glyph-name="cacute" unicode="&#x107;" horiz-adv-x="281" d="M262 443 C237 453 223 456 199 456 C144 456 105 437 76 396 C44 350 27 289 27 218 C27 82 92 -9 190 -9 C217 -9 232 -6 262 7 L262 121 C247 111 238 108 224 108 C179 108 154 151 154 228 C154 303 181 348 226 348 C241 348 250 345 262 334 L262 443 Z M216 681 L131 553 L192 518 L306 640 L216 681 Z " />
<glyph glyph-name="Ccircumflex" unicode="&#x108;" horiz-adv-x="426" d="M393 662 C365 671 350 674 324 674 C164 674 37 525 37 337 C37 141 163 -7 330 -7 C356 -7 367 -5 393 4 L393 130 C370 122 358 120 341 120 C247 120 176 215 176 338 C176 463 243 548 342 548 C360 548 371 546 393 541 L393 662 Z M290 879 L163 789 L208 724 L290 781 L372 724 L418 789 L290 879 Z " />
<glyph glyph-name="ccircumflex" unicode="&#x109;" horiz-adv-x="281" d="M262 443 C237 453 223 456 199 456 C144 456 105 437 76 396 C44 350 27 289 27 218 C27 82 92 -9 190 -9 C217 -9 232 -6 262 7 L262 121 C247 111 238 108 224 108 C179 108 154 151 154 228 C154 303 181 348 226 348 C241 348 250 345 262 334 L262 443 Z M174 679 L47 579 L96 518 L174 579 L249 518 L303 572 L174 679 Z " />
<glyph glyph-name="Cdotaccent" unicode="&#x10a;" horiz-adv-x="426" d="M393 662 C365 671 350 674 324 674 C164 674 37 525 37 337 C37 141 163 -7 330 -7 C356 -7 367 -5 393 4 L393 130 C370 122 358 120 341 120 C247 120 176 215 176 338 C176 463 243 548 342 548 C360 548 371 546 393 541 L393 662 Z M296 864 C257 864 225 833 225 795 C225 755 256 724 295 724 C334 724 365 755 365 794 C365 832 334 864 296 864 L296 864 Z " />
<glyph glyph-name="cdotaccent" unicode="&#x10b;" horiz-adv-x="281" d="M262 443 C237 453 223 456 199 456 C144 456 105 437 76 396 C44 350 27 289 27 218 C27 82 92 -9 190 -9 C217 -9 232 -6 262 7 L262 121 C247 111 238 108 224 108 C179 108 154 151 154 228 C154 303 181 348 226 348 C241 348 250 345 262 334 L262 443 Z M183 660 C145 660 115 631 115 594 C115 557 145 527 182 527 C218 527 248 557 248 594 C248 630 218 660 183 660 L183 660 Z " />
<glyph glyph-name="Ccaron" unicode="&#x10c;" horiz-adv-x="426" d="M393 662 C365 671 350 674 324 674 C164 674 37 525 37 337 C37 141 163 -7 330 -7 C356 -7 367 -5 393 4 L393 130 C370 122 358 120 341 120 C247 120 176 215 176 338 C176 463 243 548 342 548 C360 548 371 546 393 541 L393 662 Z M294 724 L421 814 L377 879 L294 822 L212 879 L167 814 L294 724 Z " />
<glyph glyph-name="ccaron" unicode="&#x10d;" horiz-adv-x="281" d="M262 443 C237 453 223 456 199 456 C144 456 105 437 76 396 C44 350 27 289 27 218 C27 82 92 -9 190 -9 C217 -9 232 -6 262 7 L262 121 C247 111 238 108 224 108 C179 108 154 151 154 228 C154 303 181 348 226 348 C241 348 250 345 262 334 L262 443 Z M183 518 L309 618 L261 679 L183 618 L108 679 L54 624 L183 518 Z " />
<glyph glyph-name="Dcaron" unicode="&#x10e;" horiz-adv-x="488" d="M52 667 L52 0 L181 0 C356 0 451 115 451 330 C451 449 420 543 360 600 C310 649 258 667 163 667 L52 667 Z M184 550 C223 548 243 539 266 512 C298 475 318 406 318 331 C318 256 298 188 265 154 C243 130 222 122 184 122 L184 550 Z M205 724 L332 814 L287 879 L205 822 L123 879 L77 814 L205 724 Z " />
<glyph glyph-name="dcaron" unicode="&#x10f;" horiz-adv-x="566" d="M231 713 L231 392 C210 435 183 456 147 456 C71 456 27 371 27 225 C27 82 74 -9 149 -9 C183 -9 209 9 231 51 L231 0 L356 0 L356 713 L231 713 Z M198 344 C224 344 240 298 240 222 C240 149 224 103 198 103 C170 103 154 147 154 224 C154 300 170 344 198 344 L198 344 Z M440 713 L390 554 L455 554 L539 713 L440 713 Z " />
<glyph glyph-name="Dcroat" unicode="&#x110;" horiz-adv-x="488" d="M52 667 L52 390 L-1 390 L-1 283 L52 283 L52 0 L181 0 C357 0 452 115 452 329 C452 449 421 542 361 600 C311 649 258 667 163 667 L52 667 Z M184 283 L251 283 L251 390 L184 390 L184 550 C224 548 244 538 267 512 C299 475 319 406 319 331 C319 256 299 188 266 154 C243 130 222 122 184 121 L184 283 Z " />
<glyph glyph-name="dcroat" unicode="&#x111;" horiz-adv-x="396" d="M396 629 L356 629 L356 713 L231 713 L231 629 L139 629 L139 542 L231 542 L231 392 C211 435 184 456 147 456 C71 456 27 371 27 225 C27 82 74 -9 149 -9 C183 -9 209 9 231 51 L231 0 L356 0 L356 542 L396 542 L396 629 Z M198 344 C224 344 240 298 240 222 C240 149 224 103 198 103 C170 103 154 147 154 224 C154 300 170 344 198 344 L198 344 Z " />
<glyph glyph-name="Emacron" unicode="&#x112;" horiz-adv-x="355" d="M52 667 L52 0 L319 0 L319 123 L184 123 L184 273 L301 273 L301 399 L184 399 L184 544 L317 544 L317 667 L52 667 Z M42 822 L42 739 L329 739 L329 822 L42 822 Z " />
<glyph glyph-name="emacron" unicode="&#x113;" horiz-adv-x="373" d="M234 138 C232 101 220 84 194 84 C161 84 148 112 147 190 L344 190 C346 215 347 226 347 242 C347 376 290 456 193 456 C91 456 27 362 27 213 C27 75 91 -9 196 -9 C251 -9 296 16 316 59 C327 81 332 97 339 138 L234 138 Z M239 267 L148 267 L148 280 C148 330 165 361 194 361 C222 361 239 330 239 280 L239 267 Z M53 621 L53 541 L327 541 L327 621 L53 621 Z " />
<glyph glyph-name="Ebreve" unicode="&#x114;" horiz-adv-x="355" d="M52 667 L52 0 L319 0 L319 123 L184 123 L184 273 L302 273 L302 399 L184 399 L184 544 L318 544 L318 667 L52 667 Z M257 846 C247 821 223 808 186 808 C148 808 125 821 114 846 L50 846 C57 777 109 734 186 734 C262 734 314 777 321 846 L257 846 Z " />
<glyph glyph-name="ebreve" unicode="&#x115;" horiz-adv-x="373" d="M234 138 C232 101 220 84 194 84 C161 84 148 112 147 190 L344 190 C346 215 347 226 347 242 C347 376 290 456 193 456 C91 456 27 362 27 213 C27 75 91 -9 196 -9 C251 -9 296 16 316 59 C327 81 332 97 339 138 L234 138 Z M239 267 L148 267 L148 280 C148 330 165 361 194 361 C222 361 239 330 239 280 L239 267 Z M60 668 C69 582 117 528 187 528 C256 528 305 582 313 668 L236 668 C226 624 212 606 187 606 C161 606 148 623 138 668 L60 668 Z " />
<glyph glyph-name="Edotaccent" unicode="&#x116;" horiz-adv-x="355" d="M52 667 L52 0 L319 0 L319 123 L184 123 L184 273 L301 273 L301 399 L184 399 L184 544 L317 544 L317 667 L52 667 Z M186 864 C147 864 115 833 115 795 C115 755 146 724 185 724 C224 724 255 755 255 794 C255 832 224 864 186 864 L186 864 Z " />
<glyph glyph-name="edotaccent" unicode="&#x117;" horiz-adv-x="373" d="M234 138 C232 101 220 84 194 84 C161 84 148 112 147 190 L344 190 C346 215 347 226 347 242 C347 376 290 456 193 456 C91 456 27 362 27 213 C27 75 91 -9 196 -9 C251 -9 296 16 316 59 C327 81 332 97 339 138 L234 138 Z M239 267 L148 267 L148 280 C148 330 165 361 194 361 C222 361 239 330 239 280 L239 267 Z M196 660 C158 660 128 631 128 594 C128 557 158 527 195 527 C231 527 261 557 261 594 C261 630 231 660 196 660 L196 660 Z " />
<glyph glyph-name="Eogonek" unicode="&#x118;" horiz-adv-x="355" d="M52 667 L52 0 L260 0 C209 -33 186 -67 186 -108 C186 -150 225 -185 273 -185 C292 -185 307 -180 323 -168 L338 -97 C325 -110 317 -114 303 -114 C280 -114 262 -96 262 -74 C262 -49 281 -24 319 0 L319 123 L184 123 L184 273 L301 273 L301 399 L184 399 L184 544 L317 544 L317 667 L52 667 Z " />
<glyph glyph-name="eogonek" unicode="&#x119;" horiz-adv-x="373" d="M234 138 C232 101 220 85 194 85 C161 85 148 112 147 190 L344 190 C346 215 347 226 347 242 C347 376 290 456 193 456 C91 456 27 362 27 213 C27 128 48 69 93 29 C121 5 151 -7 186 -7 C191 -7 203 -7 213 -6 C168 -34 146 -67 146 -108 C146 -150 185 -185 232 -185 C252 -185 266 -180 280 -168 L294 -97 C282 -110 275 -114 263 -114 C241 -114 223 -96 223 -74 C223 -57 236 -36 263 -7 C316 45 327 67 339 138 L234 138 Z M239 267 L148 267 L148 280 C148 330 165 361 194 361 C222 361 239 330 239 280 L239 267 Z " />
<glyph glyph-name="Ecaron" unicode="&#x11a;" horiz-adv-x="355" d="M52 667 L52 0 L319 0 L319 123 L184 123 L184 273 L301 273 L301 399 L184 399 L184 544 L317 544 L317 667 L52 667 Z M186 724 L313 814 L268 879 L186 822 L104 879 L58 814 L186 724 Z " />
<glyph glyph-name="ecaron" unicode="&#x11b;" horiz-adv-x="373" d="M234 138 C232 101 220 84 194 84 C161 84 148 112 147 190 L344 190 C346 215 347 226 347 242 C347 376 290 456 193 456 C91 456 27 362 27 213 C27 75 91 -9 196 -9 C251 -9 296 16 316 59 C327 81 332 97 339 138 L234 138 Z M239 267 L148 267 L148 280 C148 330 165 361 194 361 C222 361 239 330 239 280 L239 267 Z M195 518 L322 618 L273 679 L195 618 L120 679 L66 624 L195 518 Z " />
<glyph glyph-name="Gcircumflex" unicode="&#x11c;" horiz-adv-x="524" d="M273 371 L273 253 L357 253 C354 154 329 108 276 108 C210 108 178 182 178 333 C178 477 213 561 273 561 C314 561 330 539 342 469 L471 519 C440 621 370 678 274 678 C126 678 37 549 37 331 C37 123 130 -11 275 -11 C340 -11 393 17 430 71 C472 131 488 200 488 319 L488 371 L273 371 Z M276 879 L149 789 L194 724 L276 781 L358 724 L404 789 L276 879 Z " />
<glyph glyph-name="gcircumflex" unicode="&#x11d;" horiz-adv-x="401" d="M236 447 L236 393 C210 438 185 456 146 456 C72 456 27 367 27 219 C27 84 78 -9 151 -9 C187 -9 204 5 236 56 L236 -12 C236 -92 224 -120 187 -120 C159 -120 145 -102 141 -59 L31 -59 C40 -171 91 -222 190 -222 C252 -222 302 -200 332 -158 C355 -127 361 -102 361 -39 L361 447 L236 447 Z M198 344 C225 344 241 298 241 223 C241 151 225 105 198 105 C170 105 154 149 154 225 C154 300 170 344 198 344 L198 344 Z M210 679 L84 579 L132 518 L210 579 L285 518 L339 572 L210 679 Z " />
<glyph glyph-name="Gbreve" unicode="&#x11e;" horiz-adv-x="524" d="M273 371 L273 253 L357 253 C354 154 329 108 276 108 C210 108 178 182 178 333 C178 477 213 561 273 561 C314 561 330 539 342 469 L471 519 C440 621 370 678 274 678 C126 678 37 549 37 331 C37 123 130 -11 275 -11 C340 -11 393 17 430 71 C472 131 488 200 488 319 L488 371 L273 371 Z M348 846 C337 821 313 808 276 808 C239 808 215 821 204 846 L140 846 C147 777 199 734 276 734 C353 734 405 777 412 846 L348 846 Z " />
<glyph glyph-name="gbreve" unicode="&#x11f;" horiz-adv-x="401" d="M236 447 L236 393 C210 438 185 456 146 456 C72 456 27 367 27 219 C27 84 78 -9 151 -9 C187 -9 204 5 236 56 L236 -12 C236 -92 224 -120 187 -120 C159 -120 145 -102 141 -59 L31 -59 C40 -171 91 -222 190 -222 C252 -222 302 -200 332 -158 C355 -127 361 -102 361 -39 L361 447 L236 447 Z M198 344 C225 344 241 298 241 223 C241 151 225 105 198 105 C170 105 154 149 154 225 C154 300 170 344 198 344 L198 344 Z M82 668 C90 582 139 528 208 528 C278 528 326 582 335 668 L257 668 C247 624 234 606 208 606 C183 606 169 623 159 668 L82 668 Z " />
<glyph glyph-name="Gdotaccent" unicode="&#x120;" horiz-adv-x="524" d="M273 371 L273 253 L357 253 C354 154 329 108 276 108 C210 108 178 182 178 333 C178 477 213 561 273 561 C314 561 330 539 342 469 L471 519 C440 621 370 678 274 678 C126 678 37 549 37 331 C37 123 130 -11 275 -11 C340 -11 393 17 430 71 C472 131 488 200 488 319 L488 371 L273 371 Z M275 864 C236 864 204 833 204 795 C204 755 235 724 274 724 C313 724 344 755 344 794 C344 832 313 864 275 864 L275 864 Z " />
<glyph glyph-name="gdotaccent" unicode="&#x121;" horiz-adv-x="401" d="M236 447 L236 393 C210 438 185 456 146 456 C72 456 27 367 27 219 C27 84 78 -9 151 -9 C187 -9 204 5 236 56 L236 -12 C236 -92 224 -120 187 -120 C159 -120 145 -102 141 -59 L31 -59 C40 -171 91 -222 190 -222 C252 -222 302 -200 332 -158 C355 -127 361 -102 361 -39 L361 447 L236 447 Z M198 344 C225 344 241 298 241 223 C241 151 225 105 198 105 C170 105 154 149 154 225 C154 300 170 344 198 344 L198 344 Z M207 660 C169 660 139 631 139 594 C139 557 169 527 206 527 C242 527 272 557 272 594 C272 630 242 660 207 660 L207 660 Z " />
<glyph glyph-name="Gcommaaccent" unicode="&#x122;" horiz-adv-x="524" d="M273 371 L273 253 L357 253 C354 154 329 108 276 108 C210 108 178 182 178 333 C178 477 213 561 273 561 C314 561 330 539 342 469 L471 519 C440 621 370 678 274 678 C126 678 37 549 37 331 C37 123 130 -11 275 -11 C340 -11 393 17 430 71 C472 131 488 200 488 319 L488 371 L273 371 Z M227 -53 L175 -220 L240 -220 L327 -53 L227 -53 Z " />
<glyph glyph-name="gcommaaccent" unicode="&#x123;" horiz-adv-x="401" d="M236 447 L236 393 C210 438 185 456 146 456 C72 456 27 367 27 219 C27 84 78 -9 151 -9 C187 -9 204 5 236 56 L236 -12 C236 -92 224 -120 187 -120 C159 -120 145 -102 141 -59 L31 -59 C40 -171 91 -222 190 -222 C252 -222 302 -200 332 -158 C355 -127 361 -102 361 -39 L361 447 L236 447 Z M198 344 C225 344 241 298 241 223 C241 151 225 105 198 105 C170 105 154 149 154 225 C154 300 170 344 198 344 L198 344 Z M252 528 L302 687 L237 687 L152 528 L252 528 Z " />
<glyph glyph-name="Hcircumflex" unicode="&#x124;" horiz-adv-x="501" d="M52 667 L52 0 L184 0 L184 281 L317 281 L317 0 L449 0 L449 667 L317 667 L317 406 L184 406 L184 667 L52 667 Z M251 879 L124 789 L168 724 L251 781 L333 724 L379 789 L251 879 Z " />
<glyph glyph-name="hcircumflex" unicode="&#x125;" horiz-adv-x="394" d="M40 713 L40 0 L165 0 L165 255 C165 292 165 296 169 306 C174 321 185 330 199 330 C224 330 229 316 229 255 L229 0 L354 0 L354 299 C354 366 351 392 341 415 C330 440 302 456 272 456 C226 456 193 432 165 377 L165 713 L40 713 Z M132 906 L5 816 L50 751 L132 808 L214 751 L260 816 L132 906 Z " />
<glyph glyph-name="Hbar" unicode="&#x126;" horiz-adv-x="501" d="M503 572 L450 572 L450 667 L318 667 L318 572 L184 572 L184 667 L52 667 L52 572 L-1 572 L-1 472 L52 472 L52 0 L184 0 L184 281 L318 281 L318 0 L450 0 L450 472 L503 472 L503 572 Z M184 472 L318 472 L318 406 L184 406 L184 472 Z " />
<glyph glyph-name="hbar" unicode="&#x127;" horiz-adv-x="394" d="M257 629 L165 629 L165 713 L40 713 L40 629 L0 629 L0 542 L40 542 L40 0 L165 0 L165 255 C165 292 165 296 169 306 C174 321 185 330 199 330 C224 330 229 316 229 255 L229 0 L354 0 L354 299 C354 366 351 391 341 415 C329 440 302 456 271 456 C225 456 193 432 165 377 L165 542 L257 542 L257 629 Z " />
<glyph glyph-name="Itilde" unicode="&#x128;" horiz-adv-x="236" d="M52 667 L52 0 L184 0 L184 667 L52 667 Z M194 854 C194 829 185 819 163 819 C152 819 145 821 126 829 C95 843 75 849 58 849 C9 849 -22 805 -22 735 L41 735 C44 757 53 768 66 768 C75 768 87 765 108 755 C147 739 154 737 173 737 C225 737 257 781 258 854 L194 854 Z " />
<glyph glyph-name="itilde" unicode="&#x129;" horiz-adv-x="205" d="M40 447 L40 0 L165 0 L165 447 L40 447 Z M179 652 C179 627 170 617 148 617 C137 617 130 619 111 627 C80 641 60 647 43 647 C-6 647 -37 603 -37 533 L26 533 C29 555 38 566 51 566 C60 566 72 563 93 553 C132 537 139 535 158 535 C210 535 242 579 243 652 L179 652 Z " />
<glyph glyph-name="Imacron" unicode="&#x12a;" horiz-adv-x="236" d="M52 667 L52 0 L184 0 L184 667 L52 667 Z M-2 822 L-2 739 L238 739 L238 822 L-2 822 Z " />
<glyph glyph-name="imacron" unicode="&#x12b;" horiz-adv-x="205" d="M40 447 L40 0 L165 0 L165 447 L40 447 Z M-14 621 L-14 541 L219 541 L219 621 L-14 621 Z " />
<glyph glyph-name="Ibreve" unicode="&#x12c;" horiz-adv-x="236" d="M52 667 L52 0 L184 0 L184 667 L52 667 Z M189 846 C179 821 155 808 118 808 C80 808 57 821 46 846 L-18 846 C-11 777 41 734 118 734 C194 734 246 777 253 846 L189 846 Z " />
<glyph glyph-name="ibreve" unicode="&#x12d;" horiz-adv-x="205" d="M40 447 L40 0 L165 0 L165 447 L40 447 Z M-23 668 C-14 582 34 528 104 528 C173 528 222 582 230 668 L153 668 C143 624 129 606 104 606 C78 606 65 623 55 668 L-23 668 Z " />
<glyph glyph-name="Iogonek" unicode="&#x12e;" horiz-adv-x="236" d="M52 0 L117 0 C68 -26 40 -64 40 -108 C40 -150 79 -185 127 -185 C147 -185 163 -180 177 -168 L191 -97 C178 -110 170 -114 158 -114 C135 -114 117 -96 117 -74 C117 -44 143 -15 184 0 L184 667 L52 667 L52 0 Z " />
<glyph glyph-name="iogonek" unicode="&#x12f;" horiz-adv-x="206" d="M40 0 L103 0 C50 -35 29 -66 29 -108 C29 -150 68 -185 115 -185 C135 -185 149 -180 163 -168 L177 -97 C165 -110 158 -114 146 -114 C124 -114 105 -96 105 -75 C105 -48 126 -22 165 0 L165 447 L40 447 L40 0 Z M107 659 C62 659 26 624 26 580 C26 536 61 500 106 500 C149 500 185 536 185 580 C185 623 149 659 107 659 L107 659 Z " />
<glyph glyph-name="Idotaccent" unicode="&#x130;" horiz-adv-x="236" d="M51 667 L51 0 L183 0 L183 667 L51 667 Z M120 864 C81 864 49 833 49 795 C49 755 80 724 119 724 C158 724 189 755 189 794 C189 832 158 864 120 864 L120 864 Z " />
<glyph glyph-name="dotlessi" unicode="&#x131;" horiz-adv-x="205" d="M40 447 L40 0 L165 0 L165 447 L40 447 Z " />
<glyph glyph-name="IJ" unicode="&#x132;" horiz-adv-x="539" d="M52 667 L52 0 L184 0 L184 667 L52 667 Z M355 667 L355 205 C355 130 341 104 299 104 C272 104 251 116 229 142 L229 10 C256 -4 289 -11 327 -11 C382 -11 425 10 454 52 C478 86 487 128 487 205 L487 667 L355 667 Z " />
<glyph glyph-name="ij" unicode="&#x133;" horiz-adv-x="412" d="M40 447 L40 0 L165 0 L165 447 L40 447 Z M107 659 C62 659 26 624 26 580 C26 536 61 500 106 500 C149 500 185 536 185 580 C185 623 149 659 107 659 L107 659 Z M246 447 L246 -220 L371 -220 L371 447 L246 447 Z M313 659 C268 659 232 624 232 580 C232 536 267 500 312 500 C355 500 391 536 391 580 C391 623 355 659 313 659 L313 659 Z " />
<glyph glyph-name="Jcircumflex" unicode="&#x134;" horiz-adv-x="310" d="M126 667 L126 205 C126 130 112 104 70 104 C43 104 22 116 0 142 L0 10 C27 -4 60 -11 98 -11 C153 -11 196 10 225 52 C249 86 258 128 258 205 L258 667 L126 667 Z M189 879 L62 789 L106 724 L189 781 L271 724 L316 789 L189 879 Z " />
<glyph glyph-name="jcircumflex" unicode="&#x135;" horiz-adv-x="206" d="M40 447 L40 -220 L165 -220 L165 447 L40 447 Z M104 679 L-23 579 L26 518 L104 579 L178 518 L233 572 L104 679 Z " />
<glyph glyph-name="Kcommaaccent" unicode="&#x136;" horiz-adv-x="452" d="M52 667 L52 0 L184 0 L184 339 L307 0 L445 0 L307 359 L430 667 L295 667 L184 369 L184 667 L52 667 Z M200 -53 L148 -220 L213 -220 L299 -53 L200 -53 Z " />
<glyph glyph-name="kcommaaccent" unicode="&#x137;" horiz-adv-x="389" d="M40 713 L40 0 L165 0 L165 207 L255 0 L392 0 L269 264 L369 447 L235 447 L165 290 L165 713 L40 713 Z M168 -54 L118 -213 L183 -213 L268 -54 L168 -54 Z " />
<glyph glyph-name="kgreenlandic" unicode="&#x138;" horiz-adv-x="389" d="M40 447 L40 0 L165 0 L165 207 L255 0 L392 0 L269 264 L369 447 L235 447 L165 290 L165 447 L40 447 Z " />
<glyph glyph-name="Lacute" unicode="&#x139;" horiz-adv-x="329" d="M52 667 L52 0 L322 0 L322 123 L184 123 L184 667 L52 667 Z M178 864 L62 774 L106 724 L248 800 L178 864 Z " />
<glyph glyph-name="lacute" unicode="&#x13a;" horiz-adv-x="205" d="M40 693 L40 0 L165 0 L165 693 L40 693 Z M164 868 L48 777 L93 731 L235 804 L164 868 Z " />
<glyph glyph-name="Lcommaaccent" unicode="&#x13b;" horiz-adv-x="329" d="M52 667 L52 0 L322 0 L322 123 L184 123 L184 667 L52 667 Z M147 -53 L95 -220 L160 -220 L246 -53 L147 -53 Z " />
<glyph glyph-name="lcommaaccent" unicode="&#x13c;" horiz-adv-x="205" d="M40 713 L40 0 L165 0 L165 713 L40 713 Z M61 -54 L11 -213 L76 -213 L161 -54 L61 -54 Z " />
<glyph glyph-name="Lcaron" unicode="&#x13d;" horiz-adv-x="382" d="M52 667 L52 0 L322 0 L322 123 L184 123 L184 667 L52 667 Z M272 667 L220 501 L286 501 L372 667 L272 667 Z " />
<glyph glyph-name="lcaron" unicode="&#x13e;" horiz-adv-x="375" d="M40 713 L40 0 L165 0 L165 713 L40 713 Z M249 713 L199 554 L264 554 L348 713 L249 713 Z " />
<glyph glyph-name="Ldot" unicode="&#x13f;" horiz-adv-x="329" d="M52 667 L52 0 L322 0 L322 125 L184 125 L184 667 L52 667 Z M283 411 C239 411 204 374 204 327 C204 280 238 242 282 242 C324 242 359 280 359 327 C359 372 324 411 283 411 L283 411 Z " />
<glyph glyph-name="ldot" unicode="&#x140;" horiz-adv-x="375" d="M40 713 L40 0 L165 0 L165 713 L40 713 Z M292 411 C244 411 206 374 206 327 C206 280 244 242 291 242 C337 242 375 280 375 327 C375 373 337 411 292 411 L292 411 Z " />
<glyph glyph-name="Lslash" unicode="&#x141;" horiz-adv-x="329" d="M302 492 L184 400 L184 667 L52 667 L52 324 L0 281 L0 169 L52 212 L52 0 L322 0 L322 123 L184 123 L184 287 L302 380 L302 492 Z " />
<glyph glyph-name="lslash" unicode="&#x142;" horiz-adv-x="205" d="M213 495 L165 451 L165 713 L40 713 L40 382 L-9 339 L-9 239 L40 283 L40 0 L165 0 L165 352 L213 395 L213 495 Z " />
<glyph glyph-name="Nacute" unicode="&#x143;" horiz-adv-x="517" d="M52 667 L52 0 L184 0 L184 316 C182 356 181 377 177 402 L340 0 L465 0 L465 667 L330 667 L330 356 C331 324 334 292 340 264 L177 667 L52 667 Z M315 864 L199 774 L244 724 L386 800 L315 864 Z " />
<glyph glyph-name="nacute" unicode="&#x144;" horiz-adv-x="394" d="M40 447 L40 0 L165 0 L165 255 C165 292 165 296 169 306 C174 321 185 330 199 330 C224 330 229 316 229 255 L229 0 L354 0 L354 299 C354 366 351 391 341 415 C330 440 302 456 272 456 C226 456 193 432 165 377 L165 447 L40 447 Z M228 681 L143 553 L204 518 L318 640 L228 681 Z " />
<glyph glyph-name="Ncommaaccent" unicode="&#x145;" horiz-adv-x="517" d="M52 667 L52 0 L184 0 L184 316 C182 356 181 377 177 402 L340 0 L465 0 L465 667 L330 667 L330 356 C331 324 334 292 340 264 L177 667 L52 667 Z M223 -53 L171 -220 L236 -220 L323 -53 L223 -53 Z " />
<glyph glyph-name="ncommaaccent" unicode="&#x146;" horiz-adv-x="394" d="M40 447 L40 0 L165 0 L165 255 C165 292 165 296 169 306 C174 321 185 330 199 330 C224 330 229 316 229 255 L229 0 L354 0 L354 299 C354 366 351 391 341 415 C330 440 302 456 272 456 C226 456 193 432 165 377 L165 447 L40 447 Z M152 -54 L102 -213 L167 -213 L252 -54 L152 -54 Z " />
<glyph glyph-name="Ncaron" unicode="&#x147;" horiz-adv-x="517" d="M52 667 L52 0 L184 0 L184 316 C182 356 181 377 177 402 L340 0 L465 0 L465 667 L330 667 L330 356 C331 324 334 292 340 264 L177 667 L52 667 Z M259 724 L387 814 L342 879 L259 822 L177 879 L132 814 L259 724 Z " />
<glyph glyph-name="ncaron" unicode="&#x148;" horiz-adv-x="394" d="M40 447 L40 0 L165 0 L165 255 C165 292 165 296 169 306 C174 321 185 330 199 330 C224 330 229 316 229 255 L229 0 L354 0 L354 299 C354 366 351 391 341 415 C330 440 302 456 272 456 C226 456 193 432 165 377 L165 447 L40 447 Z M198 518 L325 618 L276 679 L198 618 L124 679 L69 624 L198 518 Z " />
<glyph glyph-name="napostrophe" unicode="&#x149;" horiz-adv-x="522" d="M115 713 L27 443 L115 443 L248 713 L115 713 Z M169 447 L169 0 L294 0 L294 255 C294 292 294 296 298 306 C303 321 314 330 328 330 C353 330 358 316 358 255 L358 0 L483 0 L483 299 C483 366 480 391 470 415 C459 440 431 456 401 456 C355 456 322 432 294 377 L294 447 L169 447 Z " />
<glyph glyph-name="Eng" unicode="&#x14a;" horiz-adv-x="501" d="M52 667 L52 0 L184 0 L184 404 C184 478 185 487 192 509 C202 540 224 557 255 557 C282 557 301 544 309 520 C315 505 317 476 317 424 L317 79 C318 6 305 -15 258 -14 L254 -14 L254 -127 C279 -131 293 -133 307 -133 C351 -133 388 -116 413 -83 C441 -46 449 -10 449 77 L449 446 C449 546 445 583 428 617 C411 653 368 678 324 678 C285 678 249 660 223 630 C208 612 199 598 184 563 L184 667 L52 667 Z " />
<glyph glyph-name="eng" unicode="&#x14b;" horiz-adv-x="394" d="M40 447 L40 0 L165 0 L165 255 C165 291 165 296 169 306 C174 322 184 330 199 330 C223 330 229 316 229 255 L229 53 C229 6 220 -10 195 -10 C191 -10 190 -10 185 -9 L185 -129 C203 -132 212 -133 224 -133 C261 -133 297 -121 319 -100 C346 -76 354 -51 354 8 L354 299 C354 366 351 391 341 415 C330 440 302 456 272 456 C225 456 192 431 165 377 L165 447 L40 447 Z " />
<glyph glyph-name="Omacron" unicode="&#x14c;" horiz-adv-x="542" d="M271 678 C206 678 137 641 98 584 C56 525 37 446 37 334 C37 221 56 142 98 83 C137 26 206 -11 272 -11 C337 -11 406 26 445 83 C486 141 506 221 506 328 C506 447 488 525 445 584 C405 642 338 678 271 678 L271 678 Z M272 557 C293 557 315 543 330 520 C354 485 365 424 365 333 C365 195 331 116 272 116 C212 116 178 195 178 337 C178 417 188 476 208 511 C223 540 247 557 272 557 L272 557 Z M128 822 L128 739 L415 739 L415 822 L128 822 Z " />
<glyph glyph-name="omacron" unicode="&#x14d;" horiz-adv-x="392" d="M197 456 C141 456 92 429 65 383 C41 343 27 283 27 224 C27 164 41 105 65 64 C91 18 141 -9 197 -9 C305 -9 366 75 366 220 C366 373 307 456 197 456 L197 456 Z M197 344 C223 344 239 298 239 222 C239 149 223 103 197 103 C170 103 154 147 154 224 C154 300 170 344 197 344 L197 344 Z M60 621 L60 541 L333 541 L333 621 L60 621 Z " />
<glyph glyph-name="Obreve" unicode="&#x14e;" horiz-adv-x="542" d="M271 678 C206 678 137 641 98 584 C56 525 37 446 37 334 C37 221 56 142 98 83 C137 26 206 -11 272 -11 C337 -11 406 26 445 83 C486 141 506 221 506 328 C506 447 488 525 445 584 C405 642 338 678 271 678 L271 678 Z M272 557 C293 557 315 543 330 520 C354 485 365 424 365 333 C365 195 331 116 272 116 C212 116 178 195 178 337 C178 417 188 476 208 511 C223 540 247 557 272 557 L272 557 Z M343 846 C332 821 308 808 271 808 C234 808 210 821 200 846 L136 846 C143 777 195 734 271 734 C348 734 400 777 407 846 L343 846 Z " />
<glyph glyph-name="obreve" unicode="&#x14f;" horiz-adv-x="392" d="M197 456 C141 456 92 429 65 383 C41 343 27 283 27 224 C27 164 41 105 65 64 C91 18 141 -9 197 -9 C305 -9 366 75 366 220 C366 373 307 456 197 456 L197 456 Z M197 344 C223 344 239 298 239 222 C239 149 223 103 197 103 C170 103 154 147 154 224 C154 300 170 344 197 344 L197 344 Z M70 668 C78 582 127 528 196 528 C266 528 314 582 323 668 L245 668 C236 624 222 606 196 606 C171 606 157 623 147 668 L70 668 Z " />
<glyph glyph-name="Ohungarumlaut" unicode="&#x150;" horiz-adv-x="542" d="M271 678 C206 678 137 641 98 584 C56 525 37 446 37 334 C37 221 56 142 98 83 C137 26 206 -11 272 -11 C337 -11 406 26 445 83 C486 141 506 221 506 328 C506 447 488 525 445 584 C405 642 338 678 271 678 L271 678 Z M272 557 C293 557 315 543 330 520 C354 485 365 424 365 333 C365 195 331 116 272 116 C212 116 178 195 178 337 C178 417 188 476 208 511 C223 540 247 557 272 557 L272 557 Z M262 873 L165 770 L207 725 L325 817 L262 873 Z M395 873 L299 770 L340 725 L459 817 L395 873 Z " />
<glyph glyph-name="ohungarumlaut" unicode="&#x151;" horiz-adv-x="392" d="M197 456 C141 456 92 429 65 383 C41 343 27 283 27 224 C27 164 41 105 65 64 C91 18 141 -9 197 -9 C305 -9 366 75 366 220 C366 373 307 456 197 456 L197 456 Z M197 344 C223 344 239 298 239 222 C239 149 223 103 197 103 C170 103 154 147 154 224 C154 300 170 344 197 344 L197 344 Z M160 681 L100 553 L157 518 L242 640 L160 681 Z M298 681 L238 553 L295 518 L380 640 L298 681 Z " />
<glyph glyph-name="OE" unicode="&#x152;" horiz-adv-x="675" d="M364 667 L364 629 C335 663 300 678 253 678 C180 678 113 633 81 561 C52 499 37 418 37 329 C37 234 57 141 90 83 C125 22 180 -11 246 -11 C295 -11 332 9 364 51 L364 0 L638 0 L638 123 L494 123 L494 277 L622 277 L622 405 L494 405 L494 544 L637 544 L637 667 L364 667 Z M272 561 C334 561 364 488 364 333 C364 185 333 111 272 111 C212 111 178 191 178 336 C178 481 211 561 272 561 L272 561 Z " />
<glyph glyph-name="oe" unicode="&#x153;" horiz-adv-x="583" d="M444 139 C444 107 428 86 405 86 C382 86 364 106 358 139 C355 155 355 159 355 189 L556 189 C557 211 557 228 557 241 C557 377 499 456 398 456 C355 456 332 446 295 411 C267 442 236 456 197 456 C94 456 27 360 27 213 C27 78 90 -9 188 -9 C229 -9 261 7 287 40 C318 8 358 -9 402 -9 C490 -9 542 43 550 139 L444 139 Z M198 344 C224 344 240 298 240 223 C240 149 224 103 198 103 C170 103 154 148 154 224 C154 300 170 344 198 344 L198 344 Z M358 266 C359 327 373 357 401 357 C430 357 444 328 445 266 L358 266 Z " />
<glyph glyph-name="Racute" unicode="&#x154;" horiz-adv-x="473" d="M52 667 L52 0 L184 0 L184 308 L301 0 L440 0 L324 304 C389 344 419 396 419 473 C419 542 389 604 340 636 C307 658 264 667 195 667 L52 667 Z M184 563 C229 563 238 562 250 556 C276 544 291 513 291 471 C291 413 259 379 206 379 C201 379 193 380 184 381 L184 563 Z M273 864 L157 774 L202 724 L344 800 L273 864 Z " />
<glyph glyph-name="racute" unicode="&#x155;" horiz-adv-x="278" d="M40 447 L40 0 L165 0 L165 233 C165 295 170 311 194 328 C208 339 227 344 249 344 C255 344 259 344 268 342 L268 463 C224 458 195 438 165 393 L165 447 L40 447 Z M180 681 L95 553 L156 518 L270 640 L180 681 Z " />
<glyph glyph-name="Rcommaaccent" unicode="&#x156;" horiz-adv-x="473" d="M52 667 L52 0 L184 0 L184 308 L301 0 L440 0 L324 304 C389 344 419 396 419 473 C419 542 389 604 340 636 C307 658 264 667 195 667 L52 667 Z M184 563 C229 563 238 562 250 556 C276 544 291 513 291 471 C291 413 259 379 206 379 C201 379 193 380 184 381 L184 563 Z M200 -53 L149 -220 L214 -220 L300 -53 L200 -53 Z " />
<glyph glyph-name="rcommaaccent" unicode="&#x157;" horiz-adv-x="278" d="M40 447 L40 0 L165 0 L165 233 C165 295 170 311 194 328 C208 339 227 344 249 344 C255 344 259 344 268 342 L268 463 C224 458 195 438 165 393 L165 447 L40 447 Z M65 -54 L15 -213 L80 -213 L165 -54 L65 -54 Z " />
<glyph glyph-name="Rcaron" unicode="&#x158;" horiz-adv-x="473" d="M52 667 L52 0 L184 0 L184 308 L301 0 L440 0 L324 304 C389 344 419 396 419 473 C419 542 389 604 340 636 C307 658 264 667 195 667 L52 667 Z M184 563 C229 563 238 562 250 556 C276 544 291 513 291 471 C291 413 259 379 206 379 C201 379 193 380 184 381 L184 563 Z M217 724 L345 814 L300 879 L217 822 L135 879 L90 814 L217 724 Z " />
<glyph glyph-name="rcaron" unicode="&#x159;" horiz-adv-x="278" d="M40 447 L40 0 L165 0 L165 233 C165 295 170 311 194 328 C208 339 227 344 249 344 C255 344 259 344 268 342 L268 463 C224 458 195 438 165 393 L165 447 L40 447 Z M147 518 L274 618 L225 679 L147 618 L72 679 L18 624 L147 518 Z " />
<glyph glyph-name="Sacute" unicode="&#x15a;" horiz-adv-x="391" d="M328 645 C286 669 254 678 211 678 C108 678 37 598 37 481 C37 396 69 345 160 283 C229 235 238 224 238 187 C238 142 207 113 160 113 C127 113 100 123 62 149 L62 23 C96 0 133 -11 177 -11 C291 -11 367 72 367 195 C367 236 357 272 337 303 C320 328 302 345 237 393 C183 434 166 458 166 494 C166 533 192 559 232 559 C264 559 290 547 328 517 L328 645 Z M262 864 L146 774 L191 724 L333 800 L262 864 Z " />
<glyph glyph-name="sacute" unicode="&#x15b;" horiz-adv-x="315" d="M300 417 C259 446 227 456 181 456 C92 456 32 402 32 323 C32 290 43 258 62 236 C77 218 96 205 136 184 C169 167 177 158 177 140 C177 118 161 103 138 103 C117 103 102 110 76 131 L21 42 C67 7 108 -9 157 -9 C241 -9 298 54 298 147 C298 209 273 245 206 279 C167 300 159 307 159 325 C159 344 172 357 191 357 C211 357 225 350 250 326 L300 417 Z M202 681 L117 553 L178 518 L293 640 L202 681 Z " />
<glyph glyph-name="Scircumflex" unicode="&#x15c;" horiz-adv-x="391" d="M328 645 C286 669 254 678 211 678 C108 678 37 598 37 481 C37 396 69 345 160 283 C229 235 238 224 238 187 C238 142 207 113 160 113 C127 113 100 123 62 149 L62 23 C96 0 133 -11 177 -11 C291 -11 367 72 367 195 C367 236 357 272 337 303 C320 328 302 345 237 393 C183 434 166 458 166 494 C166 533 192 559 232 559 C264 559 290 547 328 517 L328 645 Z M203 879 L76 789 L120 724 L203 781 L285 724 L330 789 L203 879 Z " />
<glyph glyph-name="scircumflex" unicode="&#x15d;" horiz-adv-x="315" d="M300 417 C259 446 227 456 181 456 C92 456 32 402 32 323 C32 290 43 258 62 236 C77 218 96 205 136 184 C169 167 177 158 177 140 C177 118 161 103 138 103 C117 103 102 110 76 131 L21 42 C67 7 108 -9 157 -9 C241 -9 298 54 298 147 C298 209 273 245 206 279 C167 300 159 307 159 325 C159 344 172 357 191 357 C211 357 225 350 250 326 L300 417 Z M174 679 L47 579 L96 518 L174 579 L248 518 L303 572 L174 679 Z " />
<glyph glyph-name="Scedilla" unicode="&#x15e;" horiz-adv-x="391" d="M328 645 C286 669 254 678 211 678 C108 678 37 598 37 481 C37 396 69 345 160 283 C229 235 238 224 238 187 C238 142 207 113 160 113 C127 113 100 123 62 149 L62 23 C96 0 133 -11 177 -11 C291 -11 367 72 367 195 C367 236 357 272 337 303 C320 328 302 345 237 393 C183 434 166 458 166 494 C166 533 192 559 232 559 C264 559 290 547 328 517 L328 645 Z M157 -42 L93 -169 L146 -190 L243 -77 L157 -42 Z " />
<glyph glyph-name="scedilla" unicode="&#x15f;" horiz-adv-x="315" d="M300 417 C259 446 227 456 181 456 C92 456 32 402 32 323 C32 290 43 258 62 236 C77 218 96 205 136 184 C169 167 177 158 177 140 C177 118 161 103 138 103 C117 103 102 110 76 131 L21 42 C67 7 108 -9 157 -9 C241 -9 298 54 298 147 C298 209 273 245 206 279 C167 300 159 307 159 325 C159 344 172 357 191 357 C211 357 225 350 250 326 L300 417 Z M134 -42 L65 -164 L120 -193 L213 -74 L134 -42 Z " />
<glyph glyph-name="Scaron" unicode="&#x160;" horiz-adv-x="391" d="M328 645 C286 669 254 678 211 678 C108 678 37 598 37 481 C37 396 69 345 160 283 C229 235 238 224 238 187 C238 142 207 113 160 113 C127 113 100 123 62 149 L62 23 C96 0 133 -11 177 -11 C291 -11 367 72 367 195 C367 236 357 272 337 303 C320 328 302 345 237 393 C183 434 166 458 166 494 C166 533 192 559 232 559 C264 559 290 547 328 517 L328 645 Z M203 724 L330 814 L286 879 L203 822 L121 879 L76 814 L203 724 Z " />
<glyph glyph-name="scaron" unicode="&#x161;" horiz-adv-x="315" d="M300 417 C259 446 227 456 181 456 C92 456 32 402 32 323 C32 290 43 258 62 236 C77 218 96 205 136 184 C169 167 177 158 177 140 C177 118 161 103 138 103 C117 103 102 110 76 131 L21 42 C67 7 108 -9 157 -9 C241 -9 298 54 298 147 C298 209 273 245 206 279 C167 300 159 307 159 325 C159 344 172 357 191 357 C211 357 225 350 250 326 L300 417 Z M173 518 L299 618 L251 679 L173 618 L98 679 L44 624 L173 518 Z " />
<glyph glyph-name="Tcommaaccent" unicode="&#x162;" horiz-adv-x="339" d="M0 667 L0 545 L103 545 L103 0 L235 0 L235 545 L339 545 L339 667 L0 667 Z M127 -53 L76 -220 L141 -220 L227 -53 L127 -53 Z " />
<glyph glyph-name="tcommaaccent" unicode="&#x163;" horiz-adv-x="230" d="M52 570 L52 447 L9 447 L9 344 L52 344 L52 0 L177 0 L177 344 L228 344 L228 447 L177 447 L177 570 L52 570 Z M74 -54 L23 -213 L89 -213 L173 -54 L74 -54 Z " />
<glyph glyph-name="Tcaron" unicode="&#x164;" horiz-adv-x="339" d="M0 667 L0 544 L103 544 L103 0 L235 0 L235 544 L339 544 L339 667 L0 667 Z M170 724 L297 814 L253 879 L170 822 L88 879 L43 814 L170 724 Z " />
<glyph glyph-name="tcaron" unicode="&#x165;" horiz-adv-x="387" d="M52 570 L52 447 L9 447 L9 344 L52 344 L52 0 L177 0 L177 344 L228 344 L228 447 L177 447 L177 570 L52 570 Z M267 653 L217 494 L282 494 L367 653 L267 653 Z " />
<glyph glyph-name="Tbar" unicode="&#x166;" horiz-adv-x="339" d="M330 465 L235 465 L235 545 L339 545 L339 667 L0 667 L0 545 L103 545 L103 465 L9 465 L9 358 L103 358 L103 0 L235 0 L235 358 L330 358 L330 465 Z " />
<glyph glyph-name="tbar" unicode="&#x167;" horiz-adv-x="230" d="M228 285 L177 285 L177 344 L228 344 L228 447 L177 447 L177 570 L52 570 L52 447 L9 447 L9 344 L52 344 L52 285 L9 285 L9 198 L52 198 L52 0 L177 0 L177 198 L228 198 L228 285 Z " />
<glyph glyph-name="Utilde" unicode="&#x168;" horiz-adv-x="499" d="M52 667 L52 189 C52 133 53 122 63 94 C87 26 153 -11 249 -11 C332 -11 394 17 425 67 C442 94 447 119 447 170 L447 667 L315 667 L315 225 C315 187 313 160 310 150 C302 122 282 108 250 108 C225 108 208 117 197 136 C187 153 184 173 184 225 L184 667 L52 667 Z M326 854 C326 829 317 819 294 819 C284 819 276 821 258 829 C226 843 206 849 189 849 C142 849 109 804 109 742 L109 735 L172 735 C176 757 184 768 197 768 C207 768 218 765 240 755 C278 739 286 737 304 737 C357 737 389 781 389 854 L326 854 Z " />
<glyph glyph-name="utilde" unicode="&#x169;" horiz-adv-x="393" d="M40 447 L40 168 C40 102 42 88 58 61 C82 19 136 -9 195 -9 C252 -9 305 17 332 60 C348 84 353 105 353 151 L353 447 L228 447 L228 191 C227 141 227 141 225 133 C222 117 211 107 196 107 C185 107 175 114 170 125 C166 135 165 148 165 191 L165 447 L40 447 Z M276 652 C276 627 267 617 244 617 C234 617 227 619 208 627 C177 641 157 647 140 647 C93 647 61 604 60 540 L60 533 L122 533 C126 555 134 566 148 566 C157 566 168 563 190 553 C229 537 236 535 255 535 C307 535 339 579 340 652 L276 652 Z " />
<glyph glyph-name="Umacron" unicode="&#x16a;" horiz-adv-x="499" d="M52 667 L52 189 C52 133 53 122 63 94 C87 26 153 -11 249 -11 C332 -11 394 17 425 67 C442 94 447 119 447 170 L447 667 L315 667 L315 225 C315 187 313 160 310 150 C302 122 282 108 250 108 C225 108 208 117 197 136 C187 153 184 173 184 225 L184 667 L52 667 Z M106 822 L106 739 L393 739 L393 822 L106 822 Z " />
<glyph glyph-name="umacron" unicode="&#x16b;" horiz-adv-x="393" d="M40 447 L40 168 C40 102 42 88 58 61 C82 19 136 -9 195 -9 C252 -9 305 17 332 60 C348 84 353 105 353 151 L353 447 L228 447 L228 191 C227 141 227 141 225 133 C222 117 211 107 196 107 C185 107 175 114 170 125 C166 135 165 148 165 191 L165 447 L40 447 Z M60 621 L60 541 L333 541 L333 621 L60 621 Z " />
<glyph glyph-name="Ubreve" unicode="&#x16c;" horiz-adv-x="499" d="M52 667 L52 189 C52 133 53 122 63 94 C87 26 153 -11 249 -11 C332 -11 394 17 425 67 C442 94 447 119 447 170 L447 667 L315 667 L315 225 C315 187 313 160 310 150 C302 122 282 108 250 108 C225 108 208 117 197 136 C187 153 184 173 184 225 L184 667 L52 667 Z M321 846 C310 821 286 808 249 808 C212 808 188 821 178 846 L114 846 C121 777 173 734 249 734 C326 734 378 777 385 846 L321 846 Z " />
<glyph glyph-name="ubreve" unicode="&#x16d;" horiz-adv-x="393" d="M40 447 L40 168 C40 102 42 88 58 61 C82 19 136 -9 195 -9 C252 -9 305 17 332 60 C348 84 353 105 353 151 L353 447 L228 447 L228 191 C227 141 227 141 225 133 C222 117 211 107 196 107 C185 107 175 114 170 125 C166 135 165 148 165 191 L165 447 L40 447 Z M70 668 C79 582 127 528 197 528 C267 528 315 582 324 668 L246 668 C236 624 222 606 197 606 C172 606 158 623 148 668 L70 668 Z " />
<glyph glyph-name="Uring" unicode="&#x16e;" horiz-adv-x="499" d="M52 667 L52 189 C52 133 53 122 63 94 C87 26 153 -11 249 -11 C332 -11 394 17 425 67 C442 94 447 119 447 170 L447 667 L315 667 L315 225 C315 187 313 160 310 150 C302 122 282 108 250 108 C225 108 208 117 197 136 C187 153 184 173 184 225 L184 667 L52 667 Z M252 911 C198 911 155 869 155 816 C155 763 197 720 251 720 C303 720 346 763 346 816 C346 868 303 911 252 911 L252 911 Z M251 854 C271 854 288 837 288 816 C288 795 271 778 251 778 C230 778 213 795 213 816 C213 837 230 854 251 854 L251 854 Z " />
<glyph glyph-name="uring" unicode="&#x16f;" horiz-adv-x="393" d="M40 447 L40 168 C40 102 42 88 58 61 C82 19 136 -9 195 -9 C252 -9 305 17 332 60 C348 84 353 105 353 151 L353 447 L228 447 L228 191 C227 141 227 141 225 133 C222 117 211 107 196 107 C185 107 175 114 170 125 C166 135 165 148 165 191 L165 447 L40 447 Z M199 709 C145 709 102 667 102 614 C102 560 145 517 198 517 C250 517 293 560 293 613 C293 665 250 709 199 709 L199 709 Z M198 650 C217 650 234 633 234 613 C234 593 217 576 197 576 C176 576 160 593 160 613 C160 634 177 650 198 650 L198 650 Z " />
<glyph glyph-name="Uhungarumlaut" unicode="&#x170;" horiz-adv-x="499" d="M52 667 L52 189 C52 133 53 122 63 94 C87 26 153 -11 249 -11 C332 -11 394 17 425 67 C442 94 447 119 447 170 L447 667 L315 667 L315 225 C315 187 313 160 310 150 C302 122 282 108 250 108 C225 108 208 117 197 136 C187 153 184 173 184 225 L184 667 L52 667 Z M240 873 L143 770 L185 725 L303 817 L240 873 Z M373 873 L277 770 L318 725 L437 817 L373 873 Z " />
<glyph glyph-name="uhungarumlaut" unicode="&#x171;" horiz-adv-x="393" d="M40 447 L40 168 C40 102 42 88 58 61 C82 19 136 -9 195 -9 C252 -9 305 17 332 60 C348 84 353 105 353 151 L353 447 L228 447 L228 191 C227 141 227 141 225 133 C222 117 211 107 196 107 C185 107 175 114 170 125 C166 135 165 148 165 191 L165 447 L40 447 Z M156 681 L97 553 L154 518 L239 640 L156 681 Z M294 681 L235 553 L291 518 L377 640 L294 681 Z " />
<glyph glyph-name="Uogonek" unicode="&#x172;" horiz-adv-x="499" d="M52 667 L52 189 C52 129 64 80 87 50 C116 12 177 -11 246 -11 C253 -11 274 -10 291 -9 C259 -34 244 -62 244 -96 C244 -137 284 -172 331 -172 C351 -172 367 -167 381 -155 L395 -85 C383 -97 374 -101 362 -101 C339 -101 321 -83 321 -61 C321 -41 334 -21 365 8 L377 19 C435 66 447 91 447 170 L447 667 L315 667 L315 225 C315 187 313 161 310 150 C302 123 282 109 250 109 C225 109 208 118 197 137 C187 154 184 173 184 225 L184 667 L52 667 Z " />
<glyph glyph-name="uogonek" unicode="&#x173;" horiz-adv-x="393" d="M40 447 L40 168 C40 134 40 120 42 110 C46 82 58 55 77 37 C103 9 152 -8 202 -8 C211 -8 216 -8 230 -5 C195 -31 179 -60 179 -95 C179 -136 219 -171 266 -171 C286 -171 300 -166 313 -155 L327 -84 C316 -96 309 -100 297 -100 C274 -100 256 -82 256 -60 C256 -35 273 -6 306 26 C344 64 353 87 353 151 L353 447 L228 447 L228 191 C227 142 227 142 225 134 C222 117 211 108 196 108 C185 108 175 115 170 126 C166 136 165 148 165 191 L165 447 L40 447 Z " />
<glyph glyph-name="Wcircumflex" unicode="&#x174;" horiz-adv-x="694" d="M3 667 L138 0 L253 0 L315 262 C332 328 346 418 350 474 C356 359 359 335 378 255 L438 0 L553 0 L690 667 L553 667 L505 401 C494 349 487 270 486 207 C482 256 480 272 468 332 L400 667 L296 667 L234 367 C221 309 218 286 209 207 C208 217 208 227 207 230 C205 270 203 296 203 300 C202 308 196 351 192 375 L138 667 L3 667 Z M347 879 L220 789 L264 724 L347 781 L429 724 L475 789 L347 879 Z " />
<glyph glyph-name="wcircumflex" unicode="&#x175;" horiz-adv-x="580" d="M-3 447 L124 0 L228 0 L265 148 C274 181 284 236 289 280 C295 238 298 226 319 141 L357 0 L460 0 L583 447 L465 447 L416 247 C405 202 405 201 403 185 C399 207 387 268 382 288 L345 447 L238 447 L179 185 C176 205 168 249 156 300 L118 447 L-3 447 Z M289 679 L162 579 L211 518 L289 579 L364 518 L418 572 L289 679 Z " />
<glyph glyph-name="Ycircumflex" unicode="&#x176;" horiz-adv-x="447" d="M0 667 L160 319 L160 0 L292 0 L292 319 L447 667 L299 667 L236 492 C232 482 229 470 224 453 C221 464 216 477 211 492 L145 667 L0 667 Z M223 879 L96 789 L141 724 L223 781 L305 724 L351 789 L223 879 Z " />
<glyph glyph-name="ycircumflex" unicode="&#x177;" horiz-adv-x="366" d="M-3 447 L127 9 L56 -220 L178 -220 L370 447 L244 447 L185 192 C184 201 183 207 182 210 C179 223 176 236 173 248 L165 284 L122 447 L-3 447 Z M182 679 L56 579 L104 518 L182 579 L257 518 L311 572 L182 679 Z " />
<glyph glyph-name="Ydieresis" unicode="&#x178;" horiz-adv-x="447" d="M0 667 L160 319 L160 0 L292 0 L292 319 L447 667 L299 667 L236 492 C232 482 229 470 224 453 C221 464 216 477 211 492 L145 667 L0 667 Z M134 857 C97 857 67 828 67 791 C67 754 96 724 133 724 C170 724 200 754 200 791 C200 827 170 857 134 857 L134 857 Z M314 857 C277 857 247 828 247 791 C247 754 276 724 313 724 C350 724 380 754 380 791 C380 827 350 857 314 857 L314 857 Z " />
<glyph glyph-name="Zacute" unicode="&#x179;" horiz-adv-x="456" d="M46 667 L46 544 L240 544 L18 0 L419 0 L419 123 L209 123 L437 667 L46 667 Z M298 864 L182 774 L226 724 L368 800 L298 864 Z " />
<glyph glyph-name="zacute" unicode="&#x17a;" horiz-adv-x="341" d="M28 447 L28 343 L155 343 L13 0 L312 0 L312 103 L189 103 L326 447 L28 447 Z M207 681 L122 553 L183 518 L297 640 L207 681 Z " />
<glyph glyph-name="Zdotaccent" unicode="&#x17b;" horiz-adv-x="456" d="M46 667 L46 544 L240 544 L18 0 L419 0 L419 123 L209 123 L437 667 L46 667 Z M244 864 C205 864 173 833 173 795 C173 755 204 724 243 724 C282 724 313 755 313 794 C313 832 282 864 244 864 L244 864 Z " />
<glyph glyph-name="zdotaccent" unicode="&#x17c;" horiz-adv-x="341" d="M28 447 L28 343 L155 343 L13 0 L312 0 L312 103 L189 103 L326 447 L28 447 Z M178 660 C141 660 111 631 111 594 C111 557 140 527 177 527 C214 527 244 557 244 594 C244 630 214 660 178 660 L178 660 Z " />
<glyph glyph-name="Zcaron" unicode="&#x17d;" horiz-adv-x="456" d="M46 667 L46 544 L240 544 L18 0 L419 0 L419 123 L209 123 L437 667 L46 667 Z M245 724 L372 814 L328 879 L245 822 L163 879 L118 814 L245 724 Z " />
<glyph glyph-name="zcaron" unicode="&#x17e;" horiz-adv-x="341" d="M28 447 L28 343 L155 343 L13 0 L312 0 L312 103 L189 103 L326 447 L28 447 Z M178 518 L305 618 L256 679 L178 618 L103 679 L49 624 L178 518 Z " />
<glyph glyph-name="longs" unicode="&#x17f;" horiz-adv-x="241" d="M8 447 L8 344 L54 344 L54 0 L179 0 L179 537 C179 585 188 601 214 601 C221 601 224 600 236 594 L236 713 C212 721 199 724 182 724 C147 724 110 711 89 691 C62 666 54 642 54 583 L54 447 L8 447 Z " />
<glyph glyph-name="uni018F" unicode="&#x18f;" horiz-adv-x="542" d="M37 332 C37 259 46 196 63 150 C98 52 180 -11 272 -11 C338 -11 406 26 445 82 C487 142 506 220 506 333 C506 446 487 525 445 584 C406 641 338 678 271 678 C188 678 111 625 72 540 C57 506 48 473 42 425 L183 425 C192 505 227 556 271 556 C301 556 329 531 344 492 C359 453 365 404 365 332 L37 332 Z M354 213 C339 150 309 115 271 115 C233 115 203 151 189 213 L354 213 Z " />
<glyph glyph-name="florin" unicode="&#x192;" horiz-adv-x="433" d="M126 396 L172 396 L128 143 C106 23 98 3 68 3 C60 3 53 5 41 10 L20 -108 C47 -115 61 -117 81 -117 C147 -117 192 -87 214 -27 C226 3 236 48 251 133 L297 396 L354 396 L366 463 L309 463 L323 546 C334 603 342 616 368 616 C376 616 381 615 392 610 L413 728 C388 737 374 740 353 740 C311 740 273 724 248 696 C226 671 214 640 204 575 C201 562 200 552 199 547 L184 463 L138 463 L126 396 Z " />
<glyph glyph-name="uni01C4" unicode="&#x1c4;" horiz-adv-x="944" d="M52 667 L52 0 L181 0 C356 0 451 115 451 330 C451 449 420 543 360 600 C310 649 258 667 163 667 L52 667 Z M184 550 C223 548 243 539 266 512 C298 475 318 406 318 331 C318 256 298 188 265 154 C243 130 222 122 184 122 L184 550 Z M534 667 L534 544 L728 544 L506 0 L907 0 L907 123 L697 123 L925 667 L534 667 Z M733 724 L860 814 L816 879 L733 822 L651 879 L606 814 L733 724 Z " />
<glyph glyph-name="uni01C5" unicode="&#x1c5;" horiz-adv-x="829" d="M52 667 L52 0 L181 0 C356 0 451 115 451 330 C451 449 420 543 360 600 C310 649 258 667 163 667 L52 667 Z M184 550 C223 548 243 539 266 512 C298 475 318 406 318 331 C318 256 298 188 265 154 C243 130 222 122 184 122 L184 550 Z M516 447 L516 343 L644 343 L501 0 L801 0 L801 103 L678 103 L816 447 L516 447 Z M667 518 L794 618 L745 679 L667 618 L592 679 L538 624 L667 518 Z " />
<glyph glyph-name="uni01C6" unicode="&#x1c6;" horiz-adv-x="737" d="M231 713 L231 392 C210 435 183 456 147 456 C71 456 27 371 27 225 C27 82 74 -9 149 -9 C183 -9 209 9 231 51 L231 0 L356 0 L356 713 L231 713 Z M198 344 C224 344 240 298 240 222 C240 149 224 103 198 103 C170 103 154 147 154 224 C154 300 170 344 198 344 L198 344 Z M424 447 L424 343 L552 343 L409 0 L709 0 L709 103 L586 103 L724 447 L424 447 Z M575 518 L702 618 L653 679 L575 618 L501 679 L446 624 L575 518 Z " />
<glyph glyph-name="uni01C7" unicode="&#x1c7;" horiz-adv-x="639" d="M52 667 L52 0 L322 0 L322 123 L184 123 L184 667 L52 667 Z M490 667 L490 205 C490 130 476 104 434 104 C407 104 386 116 364 142 L364 10 C391 -4 424 -11 462 -11 C517 -11 560 10 589 52 C613 86 622 128 622 205 L622 667 L490 667 Z " />
<glyph glyph-name="uni01C8" unicode="&#x1c8;" horiz-adv-x="535" d="M52 667 L52 0 L322 0 L322 123 L184 123 L184 667 L52 667 Z M369 447 L369 -220 L494 -220 L494 447 L369 447 Z M436 659 C391 659 355 624 355 580 C355 536 390 500 435 500 C478 500 514 536 514 580 C514 623 478 659 436 659 L436 659 Z " />
<glyph glyph-name="uni01C9" unicode="&#x1c9;" horiz-adv-x="411" d="M40 713 L40 0 L165 0 L165 713 L40 713 Z M246 447 L246 -220 L371 -220 L371 447 L246 447 Z M312 659 C267 659 231 624 231 580 C231 536 266 500 311 500 C354 500 390 536 390 580 C390 623 354 659 312 659 L312 659 Z " />
<glyph glyph-name="uni01CA" unicode="&#x1ca;" horiz-adv-x="827" d="M52 667 L52 0 L184 0 L184 316 C182 356 181 377 177 402 L341 0 L466 0 L466 667 L331 667 L331 356 C332 324 335 292 341 264 L177 667 L52 667 Z M643 667 L643 205 C643 130 629 104 587 104 C560 104 539 116 517 142 L517 10 C544 -4 577 -11 615 -11 C670 -11 713 10 742 52 C766 86 775 128 775 205 L775 667 L643 667 Z " />
<glyph glyph-name="uni01CB" unicode="&#x1cb;" horiz-adv-x="723" d="M52 667 L52 0 L184 0 L184 316 C182 356 181 377 177 402 L341 0 L466 0 L466 667 L331 667 L331 356 C332 324 335 292 341 264 L177 667 L52 667 Z M558 447 L558 -220 L683 -220 L683 447 L558 447 Z M624 659 C579 659 543 624 543 580 C543 536 578 500 623 500 C666 500 702 536 702 580 C702 623 666 659 624 659 L624 659 Z " />
<glyph glyph-name="uni01CC" unicode="&#x1cc;" horiz-adv-x="600" d="M40 447 L40 0 L165 0 L165 255 C165 292 165 296 169 306 C174 321 185 330 199 330 C224 330 229 316 229 255 L229 0 L354 0 L354 299 C354 366 351 391 341 415 C330 440 302 456 272 456 C226 456 193 432 165 377 L165 447 L40 447 Z M434 447 L434 -220 L559 -220 L559 447 L434 447 Z M501 659 C456 659 420 624 420 580 C420 536 455 500 500 500 C543 500 579 536 579 580 C579 623 543 659 501 659 L501 659 Z " />
<glyph glyph-name="uni01CD" unicode="&#x1cd;" horiz-adv-x="460" d="M158 667 L3 0 L135 0 L158 112 L292 112 L316 0 L456 0 L297 667 L158 667 Z M272 215 L179 215 L198 307 C209 359 219 438 223 495 C230 430 236 390 250 319 L272 215 Z M230 724 L358 814 L313 879 L230 822 L148 879 L103 814 L230 724 Z " />
<glyph glyph-name="uni01CE" unicode="&#x1ce;" horiz-adv-x="396" d="M231 447 L231 392 C210 435 183 456 147 456 C71 456 27 371 27 225 C27 82 74 -9 149 -9 C183 -9 209 9 231 51 L231 0 L356 0 L356 447 L231 447 Z M198 344 C224 344 240 298 240 222 C240 149 224 103 198 103 C170 103 154 147 154 224 C154 300 170 344 198 344 L198 344 Z M210 518 L337 618 L288 679 L210 618 L135 679 L81 624 L210 518 Z " />
<glyph glyph-name="uni01CF" unicode="&#x1cf;" horiz-adv-x="236" d="M52 667 L52 0 L184 0 L184 667 L52 667 Z M119 724 L246 814 L201 879 L119 822 L37 879 L-9 814 L119 724 Z " />
<glyph glyph-name="uni01D0" unicode="&#x1d0;" horiz-adv-x="205" d="M40 447 L40 0 L165 0 L165 447 L40 447 Z M104 518 L231 618 L182 679 L104 618 L29 679 L-25 624 L104 518 Z " />
<glyph glyph-name="uni01D1" unicode="&#x1d1;" horiz-adv-x="542" d="M271 678 C206 678 137 641 98 584 C56 525 37 446 37 334 C37 221 56 142 98 83 C137 26 206 -11 272 -11 C337 -11 406 26 445 83 C486 141 506 221 506 328 C506 447 488 525 445 584 C405 642 338 678 271 678 L271 678 Z M272 557 C293 557 315 543 330 520 C354 485 365 424 365 333 C365 195 331 116 272 116 C212 116 178 195 178 337 C178 417 188 476 208 511 C223 540 247 557 272 557 L272 557 Z M272 724 L399 814 L354 879 L272 822 L190 879 L144 814 L272 724 Z " />
<glyph glyph-name="uni01D2" unicode="&#x1d2;" horiz-adv-x="392" d="M197 456 C141 456 92 429 65 383 C41 343 27 283 27 224 C27 164 41 105 65 64 C91 18 141 -9 197 -9 C305 -9 366 75 366 220 C366 373 307 456 197 456 L197 456 Z M197 344 C223 344 239 298 239 222 C239 149 223 103 197 103 C170 103 154 147 154 224 C154 300 170 344 197 344 L197 344 Z M198 518 L324 618 L276 679 L198 618 L123 679 L69 624 L198 518 Z " />
<glyph glyph-name="uni01D3" unicode="&#x1d3;" horiz-adv-x="499" d="M52 667 L52 189 C52 133 53 122 63 94 C87 26 153 -11 249 -11 C332 -11 394 17 425 67 C442 94 447 119 447 170 L447 667 L315 667 L315 225 C315 187 313 160 310 150 C302 122 282 108 250 108 C225 108 208 117 197 136 C187 153 184 173 184 225 L184 667 L52 667 Z M250 724 L377 814 L333 879 L250 822 L168 879 L123 814 L250 724 Z " />
<glyph glyph-name="uni01D4" unicode="&#x1d4;" horiz-adv-x="393" d="M40 447 L40 168 C40 102 42 88 58 61 C82 19 136 -9 195 -9 C252 -9 305 17 332 60 C348 84 353 105 353 151 L353 447 L228 447 L228 191 C227 141 227 141 225 133 C222 117 211 107 196 107 C185 107 175 114 170 125 C166 135 165 148 165 191 L165 447 L40 447 Z M198 518 L324 618 L276 679 L198 618 L123 679 L69 624 L198 518 Z " />
<glyph glyph-name="uni01DD" unicode="&#x1dd;" horiz-adv-x="373" d="M140 309 C141 346 153 363 179 363 C213 363 225 335 227 257 L29 257 C27 232 26 220 26 205 C26 71 83 -9 180 -9 C282 -9 346 85 346 234 C346 372 282 456 177 456 C122 456 78 431 57 388 C46 366 41 350 34 309 L140 309 Z M134 180 L225 180 L225 167 C225 117 208 86 179 86 C151 86 134 117 134 167 L134 180 Z " />
<glyph glyph-name="Gcaron" unicode="&#x1e6;" horiz-adv-x="524" d="M273 371 L273 253 L357 253 C354 154 329 108 276 108 C210 108 178 182 178 333 C178 477 213 561 273 561 C314 561 330 539 342 469 L471 519 C440 621 370 678 274 678 C126 678 37 549 37 331 C37 123 130 -11 275 -11 C340 -11 393 17 430 71 C472 131 488 200 488 319 L488 371 L273 371 Z M277 724 L404 814 L359 879 L277 822 L195 879 L149 814 L277 724 Z " />
<glyph glyph-name="gcaron" unicode="&#x1e7;" horiz-adv-x="401" d="M236 447 L236 393 C210 438 185 456 146 456 C72 456 27 367 27 219 C27 84 78 -9 151 -9 C187 -9 204 5 236 56 L236 -12 C236 -92 224 -120 187 -120 C159 -120 145 -102 141 -59 L31 -59 C40 -171 91 -222 190 -222 C252 -222 302 -200 332 -158 C355 -127 361 -102 361 -39 L361 447 L236 447 Z M198 344 C225 344 241 298 241 223 C241 151 225 105 198 105 C170 105 154 149 154 225 C154 300 170 344 198 344 L198 344 Z M209 518 L336 618 L287 679 L209 618 L135 679 L80 624 L209 518 Z " />
<glyph glyph-name="uni01F4" unicode="&#x1f4;" horiz-adv-x="524" d="M273 371 L273 253 L357 253 C354 154 329 108 276 108 C210 108 178 182 178 333 C178 477 213 561 273 561 C314 561 330 539 342 469 L471 519 C440 621 370 678 274 678 C126 678 37 549 37 331 C37 123 130 -11 275 -11 C340 -11 393 17 430 71 C472 131 488 200 488 319 L488 371 L273 371 Z M332 864 L216 774 L261 724 L403 800 L332 864 Z " />
<glyph glyph-name="uni01F5" unicode="&#x1f5;" horiz-adv-x="401" d="M236 447 L236 393 C210 438 185 456 146 456 C72 456 27 367 27 219 C27 84 78 -9 151 -9 C187 -9 204 5 236 56 L236 -12 C236 -92 224 -120 187 -120 C159 -120 145 -102 141 -59 L31 -59 C40 -171 91 -222 190 -222 C252 -222 302 -200 332 -158 C355 -127 361 -102 361 -39 L361 447 L236 447 Z M198 344 C225 344 241 298 241 223 C241 151 225 105 198 105 C170 105 154 149 154 225 C154 300 170 344 198 344 L198 344 Z M191 681 L106 553 L167 518 L282 640 L191 681 Z " />
<glyph glyph-name="Aringacute" unicode="&#x1fa;" horiz-adv-x="460" d="M158 667 L3 0 L135 0 L158 112 L292 112 L316 0 L456 0 L297 667 L158 667 Z M272 215 L179 215 L198 307 C209 359 219 438 223 495 C230 430 236 390 250 319 L272 215 Z M234 868 C180 868 137 826 137 774 C137 721 180 678 233 678 C285 678 328 721 328 773 C328 825 285 868 234 868 L234 868 Z M233 811 C253 811 270 794 270 774 C270 753 253 736 233 736 C212 736 195 753 195 774 C195 795 212 811 233 811 L233 811 Z M221 991 L105 901 L150 851 L292 927 L221 991 Z " />
<glyph glyph-name="aringacute" unicode="&#x1fb;" horiz-adv-x="396" d="M231 447 L231 392 C210 435 183 456 147 456 C71 456 27 371 27 225 C27 82 74 -9 149 -9 C183 -9 209 9 231 51 L231 0 L356 0 L356 447 L231 447 Z M198 344 C224 344 240 298 240 222 C240 149 224 103 198 103 C170 103 154 147 154 224 C154 300 170 344 198 344 L198 344 Z M211 709 C157 709 114 667 114 614 C114 560 157 517 210 517 C262 517 305 560 305 613 C305 665 262 709 211 709 L211 709 Z M210 650 C229 650 246 633 246 613 C246 593 229 576 209 576 C188 576 172 593 172 613 C172 634 189 650 210 650 L210 650 Z M163 854 L78 727 L138 691 L253 813 L163 854 Z " />
<glyph glyph-name="AEacute" unicode="&#x1fc;" horiz-adv-x="592" d="M155 667 L3 0 L134 0 L155 111 L293 111 L318 0 L585 0 L554 123 L426 123 L388 280 L519 280 L488 405 L357 405 L323 544 L454 544 L426 667 L155 667 Z M271 216 L176 216 L199 331 C208 371 215 426 221 495 C226 443 229 421 230 415 C235 382 235 378 248 320 L271 216 Z M333 864 L217 774 L261 724 L404 800 L333 864 Z " />
<glyph glyph-name="aeacute" unicode="&#x1fd;" horiz-adv-x="570" d="M66 330 C104 346 126 352 153 352 C186 352 211 339 219 318 C225 305 227 290 227 252 C210 263 189 268 160 268 C81 268 27 213 27 131 C27 47 85 -9 173 -9 C218 -9 249 6 287 46 C317 7 350 -9 398 -9 C450 -9 495 15 518 55 C532 78 537 98 538 137 L436 137 L436 130 C436 102 419 82 395 82 C361 82 342 120 340 192 L544 192 C542 287 537 328 522 364 C497 426 458 456 400 456 C349 456 317 437 291 390 C264 438 230 456 168 456 C134 456 106 451 66 437 L66 330 Z M188 178 C213 178 234 157 234 131 C234 105 213 84 187 84 C161 84 140 105 140 131 C140 157 161 178 188 178 L188 178 Z M341 269 C342 332 358 365 387 365 C416 365 433 332 433 269 L341 269 Z M307 681 L222 553 L282 518 L397 640 L307 681 Z " />
<glyph glyph-name="Oslashacute" unicode="&#x1fe;" horiz-adv-x="542" d="M454 682 L413 619 C362 662 323 678 270 678 C201 678 131 639 92 578 C54 517 36 440 36 334 C36 232 51 161 85 101 L33 20 L93 -24 L137 39 C190 1 222 -11 270 -11 C343 -11 415 31 453 95 C488 155 505 230 505 329 C505 422 493 490 465 552 L521 639 L454 682 Z M179 246 C176 297 174 327 174 334 C174 405 191 490 210 520 C226 544 245 556 267 556 C296 556 315 543 333 513 L179 246 Z M360 416 C363 350 365 315 365 311 C365 191 328 117 269 117 C245 117 229 127 212 153 L360 416 Z M316 864 L200 774 L244 724 L386 800 L316 864 Z " />
<glyph glyph-name="oslashacute" unicode="&#x1ff;" horiz-adv-x="393" d="M311 478 L280 432 C260 447 230 455 194 455 C140 455 100 435 71 392 C42 348 27 294 27 229 C27 170 39 115 59 75 L22 13 L80 -26 L110 19 C137 -3 155 -9 193 -9 C305 -9 366 74 366 227 C366 284 359 318 333 378 L370 436 L311 478 Z M196 345 C223 345 239 298 239 221 C239 149 223 103 198 103 C170 103 154 148 154 225 C154 300 170 345 196 345 L196 345 Z M193 681 L108 553 L169 518 L283 640 L193 681 Z " />
<glyph glyph-name="uni0200" unicode="&#x200;" horiz-adv-x="460" d="M158 667 L3 0 L135 0 L158 112 L292 112 L316 0 L456 0 L297 667 L158 667 Z M272 215 L179 215 L198 307 C209 359 219 438 223 495 C230 430 236 390 250 319 L272 215 Z M239 873 L176 817 L294 725 L336 770 L239 873 Z M106 873 L42 817 L161 725 L202 770 L106 873 Z " />
<glyph glyph-name="uni0201" unicode="&#x201;" horiz-adv-x="396" d="M231 447 L231 392 C210 435 183 456 147 456 C71 456 27 371 27 225 C27 82 74 -9 149 -9 C183 -9 209 9 231 51 L231 0 L356 0 L356 447 L231 447 Z M198 344 C224 344 240 298 240 222 C240 149 224 103 198 103 C170 103 154 147 154 224 C154 300 170 344 198 344 L198 344 Z M272 681 L189 640 L275 518 L332 553 L272 681 Z M134 681 L52 640 L137 518 L194 553 L134 681 Z " />
<glyph glyph-name="Scommaaccent" unicode="&#x218;" horiz-adv-x="391" d="M328 645 C286 669 254 678 211 678 C108 678 37 598 37 481 C37 396 69 345 160 283 C229 235 238 224 238 187 C238 142 207 113 160 113 C127 113 100 123 62 149 L62 23 C96 0 133 -11 177 -11 C291 -11 367 72 367 195 C367 236 357 272 337 303 C320 328 302 345 237 393 C183 434 166 458 166 494 C166 533 192 559 232 559 C264 559 290 547 328 517 L328 645 Z M139 -53 L88 -220 L153 -220 L239 -53 L139 -53 Z " />
<glyph glyph-name="scommaaccent" unicode="&#x219;" horiz-adv-x="315" d="M300 417 C259 446 227 456 181 456 C92 456 32 402 32 323 C32 290 43 258 62 236 C77 218 96 205 136 184 C169 167 177 158 177 140 C177 118 161 103 138 103 C117 103 102 110 76 131 L21 42 C67 7 108 -9 157 -9 C241 -9 298 54 298 147 C298 209 273 245 206 279 C167 300 159 307 159 325 C159 344 172 357 191 357 C211 357 225 350 250 326 L300 417 Z M109 -54 L59 -213 L124 -213 L209 -54 L109 -54 Z " />
<glyph glyph-name="uni021A" unicode="&#x21a;" horiz-adv-x="339" d="M0 667 L0 545 L103 545 L103 0 L235 0 L235 545 L339 545 L339 667 L0 667 Z M127 -53 L76 -220 L141 -220 L227 -53 L127 -53 Z " />
<glyph glyph-name="uni021B" unicode="&#x21b;" horiz-adv-x="230" d="M52 570 L52 447 L9 447 L9 344 L52 344 L52 0 L177 0 L177 344 L228 344 L228 447 L177 447 L177 570 L52 570 Z M74 -54 L23 -213 L89 -213 L173 -54 L74 -54 Z " />
<glyph glyph-name="uni0226" unicode="&#x226;" horiz-adv-x="460" d="M158 667 L3 0 L135 0 L158 112 L292 112 L316 0 L456 0 L297 667 L158 667 Z M272 215 L179 215 L198 307 C209 359 219 438 223 495 C230 430 236 390 250 319 L272 215 Z M232 864 C193 864 161 833 161 795 C161 755 192 724 231 724 C270 724 301 755 301 794 C301 832 270 864 232 864 L232 864 Z " />
<glyph glyph-name="uni0227" unicode="&#x227;" horiz-adv-x="396" d="M231 447 L231 392 C210 435 183 456 147 456 C71 456 27 371 27 225 C27 82 74 -9 149 -9 C183 -9 209 9 231 51 L231 0 L356 0 L356 447 L231 447 Z M198 344 C224 344 240 298 240 222 C240 149 224 103 198 103 C170 103 154 147 154 224 C154 300 170 344 198 344 L198 344 Z M211 660 C173 660 143 631 143 594 C143 557 173 527 210 527 C246 527 276 557 276 594 C276 630 246 660 211 660 L211 660 Z " />
<glyph glyph-name="uni0237" unicode="&#x237;" horiz-adv-x="205" d="M40 447 L40 -220 L165 -220 L165 447 L40 447 Z " />
<glyph glyph-name="uni02BB" unicode="&#x2bb;" horiz-adv-x="274" d="M163 483 L251 753 L163 753 L30 483 L163 483 Z " />
<glyph glyph-name="afii57929" unicode="&#x2bc;" horiz-adv-x="274" d="M118 713 L30 443 L118 443 L251 713 L118 713 Z " />
<glyph glyph-name="circumflex" unicode="&#x2c6;" horiz-adv-x="500" d="M249 679 L122 579 L171 518 L249 579 L323 518 L378 572 L249 679 Z " />
<glyph glyph-name="caron" unicode="&#x2c7;" horiz-adv-x="500" d="M251 518 L378 618 L329 679 L251 618 L176 679 L122 624 L251 518 Z " />
<glyph glyph-name="uni02C9" unicode="&#x2c9;" horiz-adv-x="500" d="M113 621 L113 541 L386 541 L386 621 L113 621 Z " />
<glyph glyph-name="breve" unicode="&#x2d8;" horiz-adv-x="500" d="M123 668 C132 582 180 528 250 528 C319 528 368 582 376 668 L299 668 C289 624 275 606 250 606 C224 606 211 623 201 668 L123 668 Z " />
<glyph glyph-name="dotaccent" unicode="&#x2d9;" horiz-adv-x="500" d="M252 660 C214 660 184 631 184 594 C184 557 214 527 251 527 C287 527 317 557 317 594 C317 630 287 660 252 660 L252 660 Z " />
<glyph glyph-name="ring" unicode="&#x2da;" horiz-adv-x="500" d="M251 709 C197 709 154 667 154 614 C154 560 196 517 250 517 C302 517 345 560 345 613 C345 665 302 709 251 709 L251 709 Z M250 650 C269 650 286 633 286 613 C286 593 269 576 249 576 C228 576 212 593 212 613 C212 634 229 650 250 650 L250 650 Z " />
<glyph glyph-name="ogonek" unicode="&#x2db;" horiz-adv-x="500" d="M250 0 C199 -33 176 -67 176 -108 C176 -150 215 -185 262 -185 C282 -185 296 -180 310 -168 L324 -97 C312 -110 305 -114 293 -114 C271 -114 253 -96 253 -74 C253 -50 270 -27 309 0 L250 0 Z " />
<glyph glyph-name="tilde" unicode="&#x2dc;" horiz-adv-x="500" d="M326 652 C326 627 317 617 295 617 C284 617 277 619 258 627 C227 641 207 647 190 647 C141 647 110 603 110 533 L173 533 C176 555 185 566 198 566 C207 566 219 563 240 553 C279 537 286 535 305 535 C357 535 389 579 390 652 L326 652 Z " />
<glyph glyph-name="hungarumlaut" unicode="&#x2dd;" horiz-adv-x="500" d="M202 681 L143 553 L200 518 L285 640 L202 681 Z M340 681 L281 553 L337 518 L423 640 L340 681 Z " />
<glyph glyph-name="pi" unicode="&#x3c0;" horiz-adv-x="437" d="M424 447 L13 447 L13 344 L59 344 L59 0 L184 0 L184 344 L253 344 L253 0 L378 0 L378 344 L424 344 L424 447 Z " />
<glyph glyph-name="uni1E1E" unicode="&#x1e1e;" horiz-adv-x="348" d="M52 667 L52 0 L184 0 L184 275 L305 275 L305 402 L184 402 L184 544 L318 544 L318 667 L52 667 Z M189 864 C150 864 118 833 118 795 C118 755 149 724 188 724 C227 724 258 755 258 794 C258 832 227 864 189 864 L189 864 Z " />
<glyph glyph-name="Wgrave" unicode="&#x1e80;" horiz-adv-x="694" d="M3 667 L138 0 L253 0 L315 262 C332 328 346 418 350 474 C356 359 359 335 378 255 L438 0 L553 0 L690 667 L553 667 L505 401 C494 349 487 270 486 207 C482 256 480 272 468 332 L400 667 L296 667 L234 367 C221 309 218 286 209 207 C208 217 208 227 207 230 C205 270 203 296 203 300 C202 308 196 351 192 375 L138 667 L3 667 Z M313 864 L243 800 L385 724 L429 774 L313 864 Z " />
<glyph glyph-name="wgrave" unicode="&#x1e81;" horiz-adv-x="580" d="M-3 447 L124 0 L228 0 L265 148 C274 181 284 236 289 280 C295 238 298 226 319 141 L357 0 L460 0 L583 447 L465 447 L416 247 C405 202 405 201 403 185 C399 207 387 268 382 288 L345 447 L238 447 L179 185 C176 205 168 249 156 300 L118 447 L-3 447 Z M293 681 L203 640 L317 518 L378 553 L293 681 Z " />
<glyph glyph-name="Wacute" unicode="&#x1e82;" horiz-adv-x="694" d="M3 667 L138 0 L253 0 L315 262 C332 328 346 418 350 474 C356 359 359 335 378 255 L438 0 L553 0 L690 667 L553 667 L505 401 C494 349 487 270 486 207 C482 256 480 272 468 332 L400 667 L296 667 L234 367 C221 309 218 286 209 207 C208 217 208 227 207 230 C205 270 203 296 203 300 C202 308 196 351 192 375 L138 667 L3 667 Z M382 864 L266 774 L310 724 L452 800 L382 864 Z " />
<glyph glyph-name="wacute" unicode="&#x1e83;" horiz-adv-x="580" d="M-3 447 L124 0 L228 0 L265 148 C274 181 284 236 289 280 C295 238 298 226 319 141 L357 0 L460 0 L583 447 L465 447 L416 247 C405 202 405 201 403 185 C399 207 387 268 382 288 L345 447 L238 447 L179 185 C176 205 168 249 156 300 L118 447 L-3 447 Z M288 681 L203 553 L263 518 L378 640 L288 681 Z " />
<glyph glyph-name="Wdieresis" unicode="&#x1e84;" horiz-adv-x="694" d="M3 667 L138 0 L253 0 L315 262 C332 328 346 418 350 474 C356 359 359 335 378 255 L438 0 L553 0 L690 667 L553 667 L505 401 C494 349 487 270 486 207 C482 256 480 272 468 332 L400 667 L296 667 L234 367 C221 309 218 286 209 207 C208 217 208 227 207 230 C205 270 203 296 203 300 C202 308 196 351 192 375 L138 667 L3 667 Z M258 857 C220 857 190 828 190 791 C190 754 220 724 257 724 C293 724 323 754 323 791 C323 827 293 857 258 857 L258 857 Z M438 857 C400 857 370 828 370 791 C370 754 400 724 437 724 C473 724 503 754 503 791 C503 827 473 857 438 857 L438 857 Z " />
<glyph glyph-name="wdieresis" unicode="&#x1e85;" horiz-adv-x="580" d="M-3 447 L124 0 L228 0 L265 148 C274 181 284 236 289 280 C295 238 298 226 319 141 L357 0 L460 0 L583 447 L465 447 L416 247 C405 202 405 201 403 185 C399 207 387 268 382 288 L345 447 L238 447 L179 185 C176 205 168 249 156 300 L118 447 L-3 447 Z M202 659 C165 659 135 630 135 594 C135 557 164 527 201 527 C237 527 267 557 267 593 C267 629 237 659 202 659 L202 659 Z M381 659 C344 659 314 630 314 594 C314 557 343 527 380 527 C416 527 446 557 446 593 C446 629 416 659 381 659 L381 659 Z " />
<glyph glyph-name="Ygrave" unicode="&#x1ef2;" horiz-adv-x="447" d="M0 667 L160 319 L160 0 L292 0 L292 319 L447 667 L299 667 L236 492 C232 482 229 470 224 453 C221 464 216 477 211 492 L145 667 L0 667 Z M200 864 L130 800 L272 724 L316 774 L200 864 Z " />
<glyph glyph-name="ygrave" unicode="&#x1ef3;" horiz-adv-x="366" d="M-3 447 L127 9 L56 -220 L178 -220 L370 447 L244 447 L185 192 C184 201 183 207 182 210 C179 223 176 236 173 248 L165 284 L122 447 L-3 447 Z M186 681 L96 640 L210 518 L271 553 L186 681 Z " />
<glyph glyph-name="uni2011" unicode="&#x2011;" horiz-adv-x="168" d="M0 339 L0 221 L168 221 L168 339 L0 339 Z " />
<glyph glyph-name="figuredash" unicode="&#x2012;" horiz-adv-x="432" d="M60 338 L60 221 L373 221 L373 338 L60 338 Z " />
<glyph glyph-name="endash" unicode="&#x2013;" horiz-adv-x="432" d="M60 338 L60 221 L373 221 L373 338 L60 338 Z " />
<glyph glyph-name="emdash" unicode="&#x2014;" horiz-adv-x="501" d="M0 338 L0 221 L501 221 L501 338 L0 338 Z " />
<glyph glyph-name="afii00208" unicode="&#x2015;" horiz-adv-x="501" d="M0 338 L0 221 L501 221 L501 338 L0 338 Z " />
<glyph glyph-name="underscoredbl" unicode="&#x2017;" horiz-adv-x="500" d="M0 -49 L0 -125 L500 -125 L500 -49 L0 -49 Z M0 -166 L0 -242 L500 -242 L500 -166 L0 -166 Z " />
<glyph glyph-name="quoteleft" unicode="&#x2018;" horiz-adv-x="274" d="M163 483 L251 753 L163 753 L30 483 L163 483 Z " />
<glyph glyph-name="quoteright" unicode="&#x2019;" horiz-adv-x="274" d="M118 713 L30 443 L118 443 L251 713 L118 713 Z " />
<glyph glyph-name="quotesinglbase" unicode="&#x201a;" horiz-adv-x="250" d="M95 143 L7 -127 L95 -127 L228 143 L95 143 Z " />
<glyph glyph-name="quotereversed" unicode="&#x201b;" horiz-adv-x="500" d="M225 528 L325 528 L240 687 L175 687 L225 528 Z " />
<glyph glyph-name="quotedblleft" unicode="&#x201c;" horiz-adv-x="441" d="M330 483 L418 753 L330 753 L197 483 L330 483 Z M163 483 L251 753 L163 753 L30 483 L163 483 Z " />
<glyph glyph-name="quotedblright" unicode="&#x201d;" horiz-adv-x="441" d="M118 713 L30 443 L118 443 L251 713 L118 713 Z M285 713 L197 443 L285 443 L418 713 L285 713 Z " />
<glyph glyph-name="quotedblbase" unicode="&#x201e;" horiz-adv-x="435" d="M111 143 L23 -127 L111 -127 L244 143 L111 143 Z M278 143 L190 -127 L278 -127 L411 143 L278 143 Z " />
<glyph glyph-name="dagger" unicode="&#x2020;" horiz-adv-x="433" d="M154 713 L154 540 L43 540 L43 423 L154 423 L154 -183 L279 -183 L279 423 L390 423 L390 540 L279 540 L279 713 L154 713 Z " />
<glyph glyph-name="daggerdbl" unicode="&#x2021;" horiz-adv-x="433" d="M154 713 L154 540 L43 540 L43 423 L154 423 L154 285 L43 285 L43 168 L154 168 L154 -183 L279 -183 L279 168 L390 168 L390 285 L279 285 L279 423 L390 423 L390 540 L279 540 L279 713 L154 713 Z " />
<glyph glyph-name="bullet" unicode="&#x2022;" horiz-adv-x="667" d="M336 480 C258 480 196 418 196 340 C196 263 258 200 334 200 C410 200 471 263 471 340 C471 417 410 480 336 480 L336 480 Z " />
<glyph glyph-name="ellipsis" unicode="&#x2026;" horiz-adv-x="750" d="M126 157 C81 157 46 122 46 79 C46 35 81 0 125 0 C168 0 203 35 203 79 C203 121 168 157 126 157 L126 157 Z M376 157 C331 157 296 122 296 79 C296 35 331 0 375 0 C418 0 453 35 453 79 C453 121 418 157 376 157 L376 157 Z M626 157 C581 157 546 122 546 79 C546 35 581 0 625 0 C668 0 703 35 703 79 C703 121 668 157 626 157 L626 157 Z " />
<glyph glyph-name="perthousand" unicode="&#x2030;" horiz-adv-x="1069" d="M488 658 L184 24 L263 -12 L565 622 L488 658 Z M172 668 C82 668 33 601 33 477 C33 352 82 285 172 285 C262 285 311 352 311 474 C311 602 263 668 172 668 L172 668 Z M174 568 C195 568 206 535 206 476 C206 419 194 386 173 386 C154 386 142 420 142 477 C142 535 154 568 174 568 L174 568 Z M585 375 C495 375 446 308 446 184 C446 60 495 -7 585 -7 C675 -7 724 60 724 182 C724 309 676 375 585 375 L585 375 Z M587 276 C608 276 619 243 619 184 C619 127 607 94 587 94 C567 94 555 127 555 185 C555 243 567 276 587 276 L587 276 Z M897 375 C807 375 758 308 758 184 C758 60 807 -7 897 -7 C987 -7 1036 60 1036 182 C1036 309 988 375 897 375 L897 375 Z M899 276 C920 276 931 243 931 184 C931 127 919 94 899 94 C879 94 867 127 867 185 C867 243 879 276 899 276 L899 276 Z " />
<glyph glyph-name="guilsinglleft" unicode="&#x2039;" horiz-adv-x="243" d="M213 406 L145 440 L30 234 L145 29 L213 67 L122 234 L213 406 Z " />
<glyph glyph-name="guilsinglright" unicode="&#x203a;" horiz-adv-x="243" d="M30 406 L121 234 L30 67 L97 29 L213 234 L97 440 L30 406 Z " />
<glyph glyph-name="uni203E" unicode="&#x203e;" horiz-adv-x="500" d="M0 892 L0 778 L500 778 L500 892 L0 892 Z " />
<glyph glyph-name="fraction" unicode="&#x2044;" horiz-adv-x="146" d="M187 667 L-131 0 L-54 0 L263 667 L187 667 Z " />
<glyph glyph-name="franc" unicode="&#x20a3;" horiz-adv-x="433" d="M10 667 L10 0 L142 0 L142 275 L249 275 L249 402 L142 402 L142 544 L276 544 L276 667 L10 667 Z M273 281 L273 0 L362 0 L362 146 C362 193 371 206 406 206 C409 206 409 206 423 203 L423 292 C396 288 378 277 362 255 L362 281 L273 281 Z " />
<glyph glyph-name="lira" unicode="&#x20a4;" horiz-adv-x="433" d="M325 363 L209 363 C201 420 198 454 198 480 C198 530 224 564 261 564 C293 564 312 536 312 488 C312 486 312 480 311 473 L424 473 C424 607 369 672 255 672 C136 672 64 596 64 471 C64 443 66 423 77 363 L9 363 L9 301 L89 301 C91 280 92 265 92 245 L9 245 L9 183 L85 183 C76 149 65 128 39 100 L39 0 C81 13 98 16 132 16 C162 16 182 14 226 5 C284 -7 309 -10 339 -10 C372 -10 394 -5 420 9 L420 113 C386 97 359 91 322 91 C302 91 285 93 253 100 C222 106 207 108 188 108 L169 108 C186 139 190 150 199 183 L325 183 L325 245 L210 245 C212 262 213 274 213 289 L213 301 L325 301 L325 363 Z " />
<glyph glyph-name="peseta" unicode="&#x20a7;" horiz-adv-x="751" d="M52 667 L52 0 L184 0 L184 275 C197 273 203 273 214 273 C338 273 415 349 415 470 C415 547 380 614 324 645 C294 662 268 667 212 667 L52 667 Z M184 561 L207 561 C260 561 284 532 284 470 C284 408 257 384 184 385 L184 561 Z M425 355 L425 281 L400 281 L400 206 L425 206 L425 0 L514 0 L514 206 L545 206 L545 281 L514 281 L514 355 L425 355 Z M748 259 C715 282 699 287 667 287 C610 287 571 252 571 200 C571 159 587 138 638 111 C655 102 659 98 659 91 C659 81 652 75 642 75 C629 75 624 78 603 95 L563 30 C597 4 620 -5 654 -5 C707 -5 745 36 745 95 C745 135 729 158 685 180 C664 191 660 194 660 201 C660 209 665 214 673 214 C685 214 690 211 711 191 L748 259 Z " />
<glyph glyph-name="Euro" unicode="&#x20ac;" horiz-adv-x="433" d="M176 359 L325 359 L351 421 L188 421 C210 501 267 548 341 548 C359 548 370 546 393 539 L438 646 C394 667 367 674 325 674 C192 674 79 572 45 421 L11 421 L-15 359 L38 359 C37 348 37 344 37 337 L37 317 L11 317 L-15 255 L45 255 C77 95 189 -7 330 -7 C356 -7 367 -5 393 4 L393 130 C370 122 358 120 341 120 C271 120 214 170 188 255 L281 255 L307 317 L176 317 L176 339 L176 359 Z " />
<glyph glyph-name="uni2101" unicode="&#x2101;" horiz-adv-x="789" d="M537 667 L239 0 L318 0 L615 667 L537 667 Z M126 667 L27 267 L117 267 L132 333 L210 333 L226 267 L321 267 L219 667 L126 667 Z M196 400 L146 400 L157 450 C162 473 166 494 170 530 C174 507 177 487 184 457 L196 400 Z M732 383 C703 399 682 404 654 404 C586 404 539 355 539 285 C539 235 560 204 619 167 C664 138 668 134 668 114 C668 91 649 75 621 75 C600 75 583 81 555 99 L555 17 C578 3 602 -4 632 -4 C706 -4 757 46 757 119 C757 144 750 165 737 184 C726 199 715 209 673 238 C640 261 629 274 629 293 C629 313 646 327 668 327 C688 327 705 320 732 299 L732 383 Z " />
<glyph glyph-name="afii61248" unicode="&#x2105;" horiz-adv-x="233" d="M118 413 C77 413 45 381 45 340 C45 301 78 268 117 268 C156 268 189 301 189 340 C189 380 157 413 118 413 L118 413 Z " />
<glyph glyph-name="afii61289" unicode="&#x2113;" horiz-adv-x="500" d="M261 267 C322 331 348 362 368 393 C410 458 436 531 436 584 C436 640 405 677 359 677 C308 677 266 637 231 553 C198 473 174 385 151 260 C133 238 126 230 105 207 C94 195 90 189 90 179 C90 166 99 154 109 154 C114 154 121 158 128 166 L137 175 L143 181 C142 152 141 137 141 121 C141 27 165 -15 218 -15 C273 -15 329 44 329 101 C329 114 322 122 311 122 C301 122 296 117 289 101 C274 71 259 53 247 53 C236 53 231 62 231 82 C231 106 237 146 247 197 L259 257 L261 267 Z M276 356 C288 423 314 534 328 575 C336 598 349 614 360 614 C371 614 378 599 378 574 C378 511 339 428 276 356 L276 356 Z " />
<glyph glyph-name="afii61352" unicode="&#x2116;" horiz-adv-x="776" d="M52 667 L52 0 L184 0 L184 316 C182 356 181 377 177 402 L341 0 L466 0 L466 667 L331 667 L331 356 C332 324 335 292 341 264 L177 667 L52 667 Z M637 540 C558 540 510 479 510 381 C510 282 558 221 637 221 C716 221 762 279 762 378 C762 482 717 540 637 540 L637 540 Z M637 451 C649 451 658 422 658 380 C658 338 648 309 635 310 C622 311 614 339 614 381 C614 423 623 451 637 451 L637 451 Z M762 172 L509 172 L509 55 L762 55 L762 172 Z " />
<glyph glyph-name="uni2117" unicode="&#x2117;" horiz-adv-x="148" d="M28 539 L28 267 L119 267 L119 539 L28 539 Z M75 662 C44 662 19 639 19 610 C19 580 44 557 75 557 C106 557 131 581 131 609 C131 639 106 662 75 662 L75 662 Z " />
<glyph glyph-name="trademark" unicode="&#x2122;" horiz-adv-x="602" d="M-3 667 L-3 592 L60 592 L60 287 L147 287 L147 592 L211 592 L211 667 L-3 667 Z M257 667 L220 287 L314 287 L324 513 L374 287 L441 287 L486 517 L503 287 L593 287 L549 667 L435 667 L405 464 L368 667 L257 667 Z " />
<glyph glyph-name="uni2126" unicode="&#x2126;" horiz-adv-x="666" d="M28 0 L297 0 L297 99 C202 153 158 232 158 352 C158 420 175 472 211 512 C243 550 288 571 333 571 C433 571 507 478 507 352 C507 281 489 217 455 172 C433 142 412 124 369 99 L369 0 L637 0 L637 112 L498 112 C597 174 637 248 637 366 C637 549 509 683 333 683 C157 683 28 549 28 366 C28 295 46 234 80 188 C102 158 123 140 168 112 L28 112 L28 0 Z " />
<glyph glyph-name="estimated" unicode="&#x212e;" horiz-adv-x="597" d="M531 250 C529 323 524 358 510 394 C477 474 400 522 304 522 C161 522 71 418 71 254 C71 92 158 -6 303 -6 C412 -6 486 45 516 142 L472 142 C440 73 384 38 304 38 C259 38 222 50 197 73 C178 89 169 106 157 145 L158 250 L531 250 Z M458 285 L160 285 L160 378 C194 452 232 478 304 478 C361 478 400 460 435 419 C447 405 451 398 458 378 L458 285 Z " />
<glyph glyph-name="partialdiff" unicode="&#x2202;" horiz-adv-x="500" d="M63 555 C203 543 308 481 346 386 C313 418 273 433 223 433 C106 433 16 340 16 220 C16 93 119 -9 247 -9 C389 -9 482 100 482 268 C482 386 439 487 358 559 C289 620 208 651 79 665 L63 555 Z M249 340 C308 340 352 287 352 215 C352 141 307 86 248 86 C190 86 145 143 145 216 C145 287 189 340 249 340 L249 340 Z " />
<glyph glyph-name="emptyset" unicode="&#x2205;" horiz-adv-x="618" d="M439 667 L392 578 C362 588 340 592 311 592 C175 592 67 485 67 349 C67 267 103 200 175 147 L114 25 L162 0 L225 123 C248 112 271 107 304 107 C443 107 552 214 552 350 C552 432 514 501 439 554 L487 642 L439 667 Z M416 502 C465 472 496 412 496 349 C496 247 412 164 309 164 C290 164 275 166 251 172 L416 502 Z M200 198 C149 239 123 290 123 350 C123 452 208 535 312 535 C332 535 345 533 366 527 L200 198 Z " />
<glyph glyph-name="Delta" unicode="&#x2206;" horiz-adv-x="667" d="M17 0 L650 0 L400 667 L263 667 L17 0 Z M198 118 L332 513 L466 118 L198 118 Z " />
<glyph glyph-name="product" unicode="&#x220f;" horiz-adv-x="731" d="M40 750 L40 632 L123 632 L123 -132 L40 -132 L40 -250 L329 -250 L329 -132 L250 -132 L250 632 L481 632 L481 -132 L402 -132 L402 -250 L692 -250 L692 -132 L608 -132 L608 632 L692 632 L692 750 L40 750 Z " />
<glyph glyph-name="summation" unicode="&#x2211;" horiz-adv-x="667" d="M619 750 L21 750 L21 619 L265 267 L21 -119 L21 -250 L628 -250 L628 -1 L509 -1 L502 -132 L164 -132 L414 267 L164 632 L492 632 L505 500 L619 500 L619 750 Z " />
<glyph glyph-name="minus" unicode="&#x2212;" horiz-adv-x="433" d="M33 397 L33 282 L400 282 L400 397 L33 397 Z " />
<glyph glyph-name="uni2215" unicode="&#x2215;" horiz-adv-x="146" d="M187 667 L-131 0 L-54 0 L263 667 L187 667 Z " />
<glyph glyph-name="uni2218" unicode="&#x2218;" horiz-adv-x="500" d="M253 480 C175 480 113 418 113 340 C113 263 175 200 251 200 C327 200 388 263 388 340 C388 417 327 480 253 480 L253 480 Z M252 433 C301 433 341 391 341 340 C341 289 301 247 251 247 C201 247 160 289 160 340 C160 392 200 433 252 433 L252 433 Z " />
<glyph glyph-name="uni2219" unicode="&#x2219;" horiz-adv-x="250" d="M127 317 C79 317 41 280 41 233 C41 186 79 148 126 148 C172 148 210 186 210 233 C210 279 172 317 127 317 L127 317 Z " />
<glyph glyph-name="radical" unicode="&#x221a;" horiz-adv-x="667" d="M667 831 L377 831 L288 449 C268 367 247 232 242 154 L232 154 C231 194 225 259 218 301 L198 391 L0 391 L0 273 L94 273 L152 0 L320 0 L488 713 L667 713 L667 831 Z " />
<glyph glyph-name="infinity" unicode="&#x221e;" horiz-adv-x="667" d="M337 258 C383 203 432 177 489 177 C583 177 650 245 650 340 C650 435 583 502 487 502 C429 502 376 475 331 423 C284 477 235 502 179 502 C85 502 17 434 17 340 C17 245 84 177 180 177 C238 177 287 203 337 258 L337 258 Z M396 340 C422 379 443 395 469 395 C500 395 525 370 525 339 C525 308 501 284 470 284 C443 284 422 300 396 340 L396 340 Z M271 340 C247 301 224 284 198 284 C167 284 142 309 142 340 C142 371 167 395 197 395 C224 395 245 379 271 340 L271 340 Z " />
<glyph glyph-name="integral" unicode="&#x222b;" horiz-adv-x="500" d="M51 -240 C88 -247 113 -250 142 -250 C213 -250 263 -225 291 -173 C311 -139 314 -112 314 20 L314 439 L314 505 C314 585 314 585 318 601 C324 623 344 636 371 636 C388 636 400 634 427 627 L450 740 C407 748 386 750 359 750 C275 750 215 711 197 644 C189 611 187 589 187 480 L187 -4 C187 -85 187 -85 183 -101 C177 -122 156 -136 130 -136 C114 -136 101 -134 74 -127 L51 -240 Z " />
<glyph glyph-name="similar" unicode="&#x223c;" horiz-adv-x="500" d="M77 248 C102 297 117 310 151 310 C167 310 176 308 234 286 C292 265 314 259 335 259 C365 259 395 269 421 288 C448 308 464 330 493 392 L421 433 C398 393 381 381 349 381 C329 381 318 384 262 405 C212 424 182 432 158 432 C87 432 49 397 7 294 L77 248 Z " />
<glyph glyph-name="uni2243" unicode="&#x2243;" horiz-adv-x="500" d="M491 297 L10 297 L10 174 L491 174 L491 297 Z M77 348 C102 396 117 409 150 409 C168 409 177 407 234 386 C290 366 315 359 335 359 C365 359 395 369 421 387 C448 407 464 430 493 491 L422 533 C398 492 382 481 349 481 C328 481 322 483 262 505 C210 524 182 531 159 531 C87 531 51 498 7 393 L77 348 Z " />
<glyph glyph-name="approxequal" unicode="&#x2248;" horiz-adv-x="500" d="M77 348 C102 396 117 409 150 409 C168 409 177 407 234 386 C290 366 315 359 335 359 C365 359 395 369 421 387 C448 407 464 430 493 491 L421 533 C398 492 382 481 349 481 C328 481 322 483 262 505 C210 524 182 531 159 531 C87 531 50 497 7 393 L77 348 Z M77 147 C102 195 117 208 151 208 C167 208 176 205 234 185 C292 164 315 158 335 158 C365 158 395 168 421 186 C448 206 464 229 493 290 L421 332 C398 292 382 280 349 280 C328 280 319 282 262 304 C211 323 182 330 158 330 C87 330 50 296 7 192 L77 147 Z " />
<glyph glyph-name="notequal" unicode="&#x2260;" horiz-adv-x="500" d="M262 488 L33 488 L33 374 L210 374 L175 306 L33 306 L33 192 L124 192 L96 136 L176 95 L225 192 L466 192 L466 306 L276 306 L311 374 L466 374 L466 488 L362 488 L396 555 L316 596 L262 488 Z " />
<glyph glyph-name="lessequal" unicode="&#x2264;" horiz-adv-x="500" d="M466 666 L33 459 L33 353 L466 150 L466 270 L167 408 L466 547 L466 666 Z M466 121 L33 121 L33 3 L466 3 L466 121 Z " />
<glyph glyph-name="greaterequal" unicode="&#x2265;" horiz-adv-x="500" d="M33 150 L466 353 L466 459 L33 666 L33 547 L332 409 L33 270 L33 150 Z M33 3 L466 3 L466 121 L33 121 L33 3 Z " />
<glyph glyph-name="lozenge" unicode="&#x25ca;" horiz-adv-x="667" d="M334 693 L74 334 L334 -26 L593 334 L334 693 Z M334 507 L460 334 L334 161 L208 334 L334 507 Z " />
<glyph glyph-name="ff" unicode="&#xfb00;" horiz-adv-x="468" d="M8 447 L8 344 L54 344 L54 0 L179 0 L179 344 L219 344 L219 447 L179 447 L179 537 C179 585 188 601 214 601 C220 601 224 600 236 594 L236 713 C211 721 199 724 182 724 C147 724 110 711 89 691 C62 666 54 642 54 583 L54 447 L8 447 Z M245 447 L245 344 L282 344 L282 0 L407 0 L407 344 L463 344 L463 447 L407 447 L407 537 C407 585 415 601 441 601 C448 601 452 600 463 594 L463 713 C440 721 427 724 410 724 C375 724 338 711 317 691 C290 666 282 642 282 583 L282 447 L245 447 Z " />
<glyph glyph-name="fi" unicode="&#xfb01;" horiz-adv-x="448" d="M8 447 L8 344 L54 344 L54 0 L179 0 L179 344 L236 344 L236 447 L179 447 L179 537 C179 585 188 601 214 601 C221 601 224 600 236 594 L236 713 C212 721 199 724 182 724 C147 724 110 711 89 691 C62 666 54 642 54 583 L54 447 L8 447 Z M282 447 L282 0 L407 0 L407 447 L282 447 Z M347 658 C303 658 267 623 267 580 C267 535 302 500 346 500 C390 500 425 535 425 579 C425 622 390 658 347 658 L347 658 Z " />
<glyph glyph-name="fl" unicode="&#xfb02;" horiz-adv-x="447" d="M8 447 L8 344 L54 344 L54 0 L179 0 L179 344 L236 344 L236 447 L179 447 L179 537 C179 585 188 601 214 601 C221 601 224 600 236 594 L236 713 C212 721 199 724 182 724 C147 724 110 711 89 691 C62 666 54 642 54 583 L54 447 L8 447 Z M282 713 L282 0 L407 0 L407 713 L282 713 Z " />
<glyph glyph-name="ffi" unicode="&#xfb03;" horiz-adv-x="675" d="M8 447 L8 344 L54 344 L54 0 L179 0 L179 344 L219 344 L219 447 L179 447 L179 537 C179 585 188 601 214 601 C220 601 224 600 236 594 L236 713 C211 721 199 724 182 724 C147 724 110 711 89 691 C62 666 54 642 54 583 L54 447 L8 447 Z M245 447 L245 344 L281 344 L281 0 L406 0 L406 344 L463 344 L463 447 L406 447 L406 537 C406 585 415 601 441 601 C448 601 451 600 463 594 L463 713 C439 721 426 724 409 724 C374 724 337 711 316 691 C289 666 281 642 281 583 L281 447 L245 447 Z M509 447 L509 0 L634 0 L634 447 L509 447 Z M576 659 C531 659 495 624 495 580 C495 536 530 500 575 500 C619 500 654 535 654 580 C654 623 619 659 576 659 L576 659 Z " />
<glyph glyph-name="ffl" unicode="&#xfb04;" horiz-adv-x="674" d="M8 447 L8 344 L54 344 L54 0 L179 0 L179 344 L219 344 L219 447 L179 447 L179 537 C179 585 188 601 214 601 C220 601 224 600 236 594 L236 713 C211 721 199 724 182 724 C147 724 110 711 89 691 C62 666 54 642 54 583 L54 447 L8 447 Z M245 447 L245 344 L281 344 L281 0 L406 0 L406 344 L463 344 L463 447 L406 447 L406 537 C406 585 415 601 441 601 C448 601 451 600 463 594 L463 713 C439 721 426 724 409 724 C374 724 337 711 316 691 C289 666 281 642 281 583 L281 447 L245 447 Z M509 713 L509 0 L634 0 L634 713 L509 713 Z " />
</font>
</svg>
