<?xml version="1.0" encoding="UTF-8"?>
<svg xmlns="http://www.w3.org/2000/svg" xmlns:xlink="http://www.w3.org/1999/xlink" version="1.2" >
<font id="FranklinGothic URW Comp Book">
<font-face  font-family="FranklinGothic URW Comp" units-per-em="1000" ascent="668" descent="-332" font-style="normal" font-weight="400" font-stretch="normal" cap-height="668" x-height="493" underline-position="-67" underline-thickness="65" />
<missing-glyph  horiz-adv-x="204" d="" />
<glyph glyph-name="NULL" d="" />
<glyph glyph-name="CR" unicode="&#xd;" horiz-adv-x="250" d="" />
<glyph glyph-name="space" unicode="&#x20;" horiz-adv-x="204" d="" />
<glyph glyph-name="exclam" unicode="&#x21;" horiz-adv-x="273" d="M92 667 L114 166 L157 166 L180 667 L92 667 Z M94 106 L94 0 L177 0 L177 106 L94 106 Z " />
<glyph glyph-name="quotedbl" unicode="&#x22;" horiz-adv-x="426" d="M110 667 L117 409 L171 409 L179 667 L110 667 Z M246 667 L254 409 L307 409 L315 667 L246 667 Z " />
<glyph glyph-name="numbersign" unicode="&#x23;" horiz-adv-x="426" d="M132 470 L41 470 L32 414 L123 414 L100 268 L10 268 L1 212 L91 212 L57 0 L117 0 L150 212 L238 212 L205 0 L264 0 L298 212 L386 212 L394 268 L307 268 L330 414 L417 414 L426 470 L339 470 L370 667 L310 667 L279 470 L191 470 L222 667 L163 667 L132 470 Z M159 268 L182 414 L271 414 L247 268 L159 268 Z " />
<glyph glyph-name="dollar" unicode="&#x24;" horiz-adv-x="426" d="M242 597 C280 588 306 561 324 510 L382 531 C356 611 316 647 242 656 L242 721 L195 721 L195 655 C160 649 141 641 121 623 C85 592 64 540 64 484 C64 400 97 358 195 317 L195 81 C143 92 113 126 101 190 L40 168 C57 79 115 23 195 20 L195 -64 L242 -64 L242 21 C282 27 305 36 329 58 C365 91 386 144 386 203 C386 290 349 335 242 378 L242 597 Z M195 393 C147 418 130 445 130 498 C130 553 152 586 195 597 L195 393 Z M242 302 C264 291 274 286 282 279 C306 260 320 226 320 186 C320 127 294 92 242 80 L242 302 Z " />
<glyph glyph-name="percent" unicode="&#x25;" horiz-adv-x="545" d="M144 674 C69 674 30 615 30 504 C30 393 72 327 142 327 C213 327 254 390 254 498 C254 610 214 674 144 674 L144 674 Z M143 624 C177 624 190 591 190 504 C190 406 180 379 142 379 C108 379 94 416 94 507 C94 591 108 624 143 624 L143 624 Z M105 0 L154 0 L440 667 L390 667 L105 0 Z M406 342 C331 342 292 283 292 172 C292 61 334 -5 404 -5 C474 -5 516 58 516 166 C516 278 476 342 406 342 L406 342 Z M405 292 C439 292 452 259 452 171 C452 74 442 47 404 47 C370 47 356 84 356 175 C356 259 370 292 405 292 L405 292 Z " />
<glyph glyph-name="ampersand" unicode="&#x26;" horiz-adv-x="460" d="M389 366 C380 276 363 212 334 157 C313 196 312 198 241 347 L232 366 C306 412 339 464 339 536 C339 624 293 679 221 679 C152 679 103 621 103 539 C103 495 116 452 150 386 C70 339 31 273 31 185 C31 67 98 -12 197 -12 C248 -12 290 5 325 40 C355 0 369 -9 406 -9 C427 -9 437 -7 455 0 L455 65 C443 61 438 60 429 60 C405 60 386 71 368 95 C409 152 440 252 447 350 L389 366 Z M207 416 C178 479 170 507 170 545 C170 591 192 621 225 621 C257 621 275 591 275 539 C275 485 256 449 207 416 L207 416 Z M174 334 C199 279 249 176 293 92 C262 61 236 49 205 49 C145 49 104 104 104 185 C104 248 126 295 174 334 L174 334 Z " />
<glyph glyph-name="quotesingle" unicode="&#x27;" horiz-adv-x="273" d="M102 667 L109 409 L163 409 L171 667 L102 667 Z " />
<glyph glyph-name="parenleft" unicode="&#x28;" horiz-adv-x="256" d="M170 667 C89 539 46 395 46 250 C46 104 91 -46 170 -167 L227 -167 C157 -44 122 96 122 250 C122 403 159 549 227 667 L170 667 Z " />
<glyph glyph-name="parenright" unicode="&#x29;" horiz-adv-x="256" d="M28 667 C96 549 133 403 133 250 C133 97 98 -44 28 -167 L85 -167 C164 -46 209 105 209 250 C209 395 166 538 85 667 L28 667 Z " />
<glyph glyph-name="asterisk" unicode="&#x2a;" horiz-adv-x="426" d="M191 529 L98 594 L67 541 L171 493 L66 443 L96 390 L191 455 L183 315 L242 315 L234 455 L330 390 L360 443 L255 492 L359 541 L328 594 L234 528 L242 667 L183 667 L191 529 Z " />
<glyph glyph-name="plus" unicode="&#x2b;" horiz-adv-x="426" d="M246 364 L246 509 L181 509 L181 364 L37 364 L37 303 L181 303 L181 157 L246 157 L246 303 L389 303 L389 364 L246 364 Z " />
<glyph glyph-name="comma" unicode="&#x2c;" horiz-adv-x="204" d="M60 108 L60 0 L95 0 L48 -125 L90 -125 L146 0 L146 108 L60 108 Z " />
<glyph glyph-name="hyphen" unicode="&#x2d;" horiz-adv-x="238" d="M34 282 L34 222 L204 222 L204 282 L34 282 Z " />
<glyph glyph-name="period" unicode="&#x2e;" horiz-adv-x="204" d="M58 108 L58 0 L145 0 L145 108 L58 108 Z " />
<glyph glyph-name="slash" unicode="&#x2f;" horiz-adv-x="392" d="M5 -167 L65 -167 L353 667 L292 667 L5 -167 Z " />
<glyph glyph-name="zero" unicode="0" horiz-adv-x="426" d="M215 679 C156 679 107 652 80 604 C47 546 30 452 30 330 C30 107 94 -12 213 -12 C332 -12 396 107 396 329 C396 556 333 679 215 679 L215 679 Z M209 618 C286 618 319 522 319 302 C319 130 286 49 215 49 C178 49 155 66 136 109 C115 155 107 226 107 359 C107 549 134 618 209 618 L209 618 Z " />
<glyph glyph-name="one" unicode="1" horiz-adv-x="426" d="M273 673 L219 673 C185 619 127 560 87 540 L87 466 C134 491 174 526 198 563 L198 59 L93 59 L93 0 L373 0 L373 59 L273 59 L273 673 Z " />
<glyph glyph-name="two" unicode="2" horiz-adv-x="426" d="M117 70 C169 114 229 176 272 229 C344 318 379 404 379 489 C379 605 314 680 214 680 C161 680 115 658 83 618 C58 586 45 550 36 486 L103 468 C114 567 148 615 208 615 C266 615 302 563 302 482 C302 367 230 256 36 70 L36 0 L379 0 L379 70 L117 70 Z " />
<glyph glyph-name="three" unicode="3" horiz-adv-x="426" d="M147 316 L195 316 C271 316 319 265 319 182 C319 101 277 49 211 49 C143 49 108 85 94 169 L30 149 C42 46 105 -12 205 -12 C319 -12 396 67 396 185 C396 273 357 331 283 352 C345 372 376 422 376 500 C376 606 310 680 216 680 C123 680 63 625 48 527 L109 509 C125 585 156 619 210 619 C269 619 301 574 301 490 C301 415 267 378 197 378 L147 378 L147 316 Z " />
<glyph glyph-name="four" unicode="4" horiz-adv-x="426" d="M268 162 L268 0 L341 0 L341 162 L413 162 L413 223 L341 223 L341 679 L250 679 L39 223 L39 162 L268 162 Z M268 223 L107 223 L273 612 L268 223 Z " />
<glyph glyph-name="five" unicode="5" horiz-adv-x="426" d="M76 667 L61 306 L117 292 C147 362 170 382 221 382 C284 382 316 328 316 218 C316 108 279 49 211 49 C156 49 122 85 103 164 L40 144 C52 92 64 63 86 39 C115 6 159 -12 209 -12 C324 -12 393 76 393 223 C393 366 335 448 236 448 C184 448 153 429 129 384 L138 598 L357 598 L362 667 L76 667 Z " />
<glyph glyph-name="six" unicode="6" horiz-adv-x="426" d="M389 544 C362 636 313 679 236 679 C109 679 39 548 39 312 C39 100 103 -12 224 -12 C330 -12 397 77 397 218 C397 350 334 435 237 435 C174 435 135 403 112 333 C116 523 156 614 235 614 C282 614 304 592 325 522 L389 544 Z M230 374 C290 374 323 316 323 214 C323 108 291 54 228 54 C165 54 125 115 125 210 C125 312 165 374 230 374 L230 374 Z " />
<glyph glyph-name="seven" unicode="7" horiz-adv-x="426" d="M316 597 C214 456 145 234 138 22 L138 15 L138 0 L215 0 L215 34 C215 142 237 266 281 397 C310 484 328 524 383 617 L383 667 L66 667 L60 597 L316 597 Z " />
<glyph glyph-name="eight" unicode="8" horiz-adv-x="426" d="M276 354 C347 391 378 440 378 513 C378 613 314 679 219 679 C120 679 51 608 51 506 C51 433 83 380 147 348 C113 328 100 319 84 305 C47 273 26 223 26 167 C26 58 98 -12 212 -12 C325 -12 400 62 400 173 C400 222 382 270 352 303 C334 323 316 335 276 354 L276 354 Z M215 383 C152 409 123 449 123 512 C123 580 159 621 217 621 C278 621 313 582 313 513 C313 453 287 419 215 383 L215 383 Z M206 314 C251 294 269 284 285 268 C314 241 329 207 329 167 C329 96 284 49 215 49 C145 49 101 97 101 172 C101 242 134 287 206 314 L206 314 Z " />
<glyph glyph-name="nine" unicode="9" horiz-adv-x="426" d="M38 118 C57 27 103 -13 188 -13 C232 -13 274 4 301 32 C357 91 383 196 383 358 C383 573 325 679 207 679 C165 679 127 666 101 641 C56 600 29 530 29 452 C29 324 94 234 188 234 C222 234 254 247 275 269 C288 283 296 297 311 332 C311 263 305 205 291 151 C275 89 240 54 191 54 C142 54 114 81 101 139 L38 118 Z M203 612 C264 612 300 553 300 455 C300 360 260 299 200 299 C139 299 103 356 103 453 C103 554 140 612 203 612 L203 612 Z " />
<glyph glyph-name="colon" unicode="&#x3a;" horiz-adv-x="204" d="M58 108 L58 0 L145 0 L145 108 L58 108 Z M58 493 L58 385 L145 385 L145 493 L58 493 Z " />
<glyph glyph-name="semicolon" unicode="&#x3b;" horiz-adv-x="205" d="M60 108 L60 0 L95 0 L48 -125 L90 -125 L146 0 L146 108 L60 108 Z M60 493 L60 385 L147 385 L147 493 L60 493 Z " />
<glyph glyph-name="less" unicode="&#x3c;" horiz-adv-x="426" d="M397 569 L30 367 L30 306 L397 104 L397 174 L105 336 L397 499 L397 569 Z " />
<glyph glyph-name="equal" unicode="&#x3d;" horiz-adv-x="426" d="M389 361 L389 422 L37 422 L37 361 L389 361 Z M389 245 L389 306 L37 306 L37 245 L389 245 Z " />
<glyph glyph-name="greater" unicode="&#x3e;" horiz-adv-x="426" d="M30 104 L396 306 L396 367 L30 569 L30 499 L321 336 L30 174 L30 104 Z " />
<glyph glyph-name="question" unicode="&#x3f;" horiz-adv-x="409" d="M216 166 L216 202 C217 259 224 274 273 322 C339 386 363 435 363 505 C363 610 300 679 204 679 C104 679 47 613 35 484 L100 468 C105 513 110 539 119 560 C135 598 163 618 200 618 C253 618 286 573 286 501 C286 447 271 416 219 364 C157 301 148 281 148 199 L148 166 L216 166 Z M140 106 L140 0 L223 0 L223 106 L140 106 Z " />
<glyph glyph-name="at" unicode="&#x40;" horiz-adv-x="562" d="M365 506 L356 444 C346 494 327 514 287 514 C215 514 163 421 163 294 C163 192 199 133 260 133 C300 133 321 151 334 195 C344 156 366 137 401 137 C473 137 525 243 525 389 C525 566 436 681 300 681 C140 681 32 537 32 324 C32 119 139 -14 306 -14 C363 -14 398 -4 459 28 L441 71 C398 45 360 34 310 34 C180 34 93 151 93 325 C93 504 179 634 297 634 C401 634 469 534 469 382 C469 271 443 193 406 193 C391 193 380 207 380 227 C380 240 383 271 387 298 L416 506 L365 506 Z M293 455 C318 455 329 431 329 377 C329 339 324 294 317 263 C306 213 291 192 267 192 C242 192 229 224 229 286 C229 387 255 455 293 455 L293 455 Z " />
<glyph glyph-name="A" unicode="A" horiz-adv-x="375" d="M148 667 L-4 0 L67 0 L108 193 L258 193 L300 0 L378 0 L228 667 L148 667 Z M245 255 L122 255 L185 587 L245 255 Z " />
<glyph glyph-name="B" unicode="B" horiz-adv-x="426" d="M64 0 L211 0 C275 0 307 5 333 21 C378 47 406 109 406 185 C406 276 373 330 301 355 C325 363 339 371 350 385 C371 411 384 453 384 500 C384 556 366 602 333 632 C305 657 267 667 203 667 L64 667 L64 0 Z M140 380 L140 602 L198 602 C277 602 309 569 309 490 C309 410 280 380 202 380 L140 380 Z M140 65 L140 318 L208 318 C249 318 274 312 292 297 C316 276 329 241 329 193 C329 147 318 108 299 89 C282 72 256 65 212 65 L140 65 Z " />
<glyph glyph-name="C" unicode="C" horiz-adv-x="409" d="M402 494 C381 623 330 679 234 679 C186 679 147 662 120 629 C68 567 41 461 41 322 C41 183 67 86 119 31 C144 4 187 -12 233 -12 C327 -12 376 41 402 170 L332 183 C314 84 290 53 235 53 C158 53 121 142 121 326 C121 518 159 614 237 614 C291 614 316 579 332 479 L402 494 Z " />
<glyph glyph-name="D" unicode="D" horiz-adv-x="477" d="M64 0 L185 0 C260 0 303 14 343 52 C399 106 436 221 436 340 C436 455 401 565 349 614 C308 652 258 667 174 667 L64 667 L64 0 Z M140 65 L140 602 L187 602 C302 602 356 517 356 337 C356 248 341 177 313 130 C285 84 250 65 192 65 L140 65 Z " />
<glyph glyph-name="E" unicode="E" horiz-adv-x="375" d="M140 602 L369 602 L369 667 L64 667 L64 0 L375 0 L375 65 L140 65 L140 314 L317 314 L317 379 L140 379 L140 602 Z " />
<glyph glyph-name="F" unicode="F" horiz-adv-x="341" d="M140 602 L359 602 L359 667 L64 667 L64 0 L140 0 L140 311 L319 311 L319 376 L140 376 L140 602 Z " />
<glyph glyph-name="G" unicode="G" horiz-adv-x="460" d="M426 330 L246 330 L246 265 L357 265 C357 200 354 170 347 143 C330 83 292 48 243 48 C161 48 122 134 122 315 C122 428 131 499 151 545 C170 590 203 614 246 614 C279 614 306 599 323 571 C336 551 344 528 354 481 L419 504 C397 626 346 679 249 679 C192 679 142 655 109 614 C63 555 42 464 42 328 C42 195 59 110 98 53 C126 13 177 -12 233 -12 C295 -12 333 13 364 73 L378 -9 L426 -9 L426 330 Z " />
<glyph glyph-name="H" unicode="H" horiz-adv-x="477" d="M140 384 L140 667 L64 667 L64 0 L140 0 L140 319 L337 319 L337 0 L413 0 L413 667 L337 667 L337 384 L140 384 Z " />
<glyph glyph-name="I" unicode="I" horiz-adv-x="204" d="M64 0 L140 0 L140 667 L64 667 L64 0 Z " />
<glyph glyph-name="J" unicode="J" horiz-adv-x="272" d="M145 667 L145 221 C145 75 135 53 64 53 C42 53 28 54 5 59 L5 0 C27 -8 53 -12 84 -12 C139 -12 181 13 203 58 C218 89 220 104 221 225 L221 667 L145 667 Z " />
<glyph glyph-name="K" unicode="K" horiz-adv-x="426" d="M444 0 L263 424 L408 667 L326 667 L140 332 L140 667 L64 667 L64 0 L140 0 L140 221 L218 350 L358 0 L444 0 Z " />
<glyph glyph-name="L" unicode="L" horiz-adv-x="341" d="M64 0 L348 0 L348 65 L140 65 L140 667 L64 667 L64 0 Z " />
<glyph glyph-name="M" unicode="M" horiz-adv-x="596" d="M64 0 L132 0 L126 572 L266 0 L323 0 L464 568 L458 0 L532 0 L532 667 L433 667 L298 125 L165 667 L64 667 L64 0 Z " />
<glyph glyph-name="N" unicode="N" horiz-adv-x="494" d="M64 0 L132 0 L128 571 L356 0 L430 0 L430 667 L362 667 L366 145 L155 667 L64 667 L64 0 Z " />
<glyph glyph-name="O" unicode="O" horiz-adv-x="477" d="M242 680 C108 680 41 562 41 327 C41 211 59 123 95 63 C124 15 175 -12 239 -12 C301 -12 346 12 377 64 C417 129 436 219 436 338 C436 563 370 680 242 680 L242 680 Z M240 615 C320 615 357 527 357 334 C357 140 321 53 239 53 C157 53 120 143 120 346 C120 529 158 615 240 615 L240 615 Z " />
<glyph glyph-name="P" unicode="P" horiz-adv-x="392" d="M64 0 L140 0 L140 271 L205 271 C324 271 389 340 389 468 C389 542 367 598 324 633 C294 658 258 667 193 667 L64 667 L64 0 Z M140 336 L140 602 L198 602 C227 602 251 597 265 587 C295 568 312 524 312 465 C312 375 279 336 202 336 L140 336 Z " />
<glyph glyph-name="Q" unicode="Q" horiz-adv-x="477" d="M398 -83 C372 -93 361 -96 346 -96 C305 -96 290 -76 290 -20 L290 -6 C385 24 436 145 436 337 C436 564 370 679 239 679 C109 679 41 559 41 329 C41 184 70 78 121 30 C149 5 175 -6 219 -12 C220 -56 222 -76 230 -95 C247 -136 284 -158 338 -158 C361 -158 377 -155 398 -145 L398 -83 Z M240 614 C320 614 357 526 357 333 C357 139 321 52 239 52 C157 52 120 142 120 345 C120 528 158 614 240 614 L240 614 Z " />
<glyph glyph-name="R" unicode="R" horiz-adv-x="426" d="M64 0 L140 0 L140 292 L235 292 L332 0 L414 0 L307 307 C368 332 399 390 399 481 C399 538 384 582 353 619 C321 656 290 667 212 667 L64 667 L64 0 Z M140 357 L140 602 L208 602 C250 602 273 595 290 576 C310 554 322 517 322 478 C322 442 311 408 293 386 C276 365 254 357 213 357 L140 357 Z " />
<glyph glyph-name="S" unicode="S" horiz-adv-x="409" d="M379 517 C352 627 296 679 204 679 C105 679 37 606 37 500 C37 442 57 397 95 367 C122 346 131 342 218 299 C291 264 312 235 312 172 C312 98 273 53 209 53 C142 53 99 99 84 186 L14 168 C34 50 101 -12 207 -12 C315 -12 389 65 389 177 C389 269 356 313 250 366 C169 405 169 405 151 419 C124 439 110 467 110 504 C110 570 147 614 202 614 C258 614 293 577 309 501 L379 517 Z " />
<glyph glyph-name="T" unicode="T" horiz-adv-x="324" d="M122 0 L198 0 L198 602 L329 602 L329 667 L-6 667 L-6 602 L122 602 L122 0 Z " />
<glyph glyph-name="U" unicode="U" horiz-adv-x="443" d="M52 667 L52 201 C52 112 59 76 82 42 C107 8 155 -12 217 -12 C280 -12 325 6 353 43 C381 79 390 120 390 201 L390 667 L317 667 L317 197 C317 92 292 53 223 53 C148 53 128 84 128 201 L128 667 L52 667 Z " />
<glyph glyph-name="V" unicode="V" horiz-adv-x="375" d="M147 0 L229 0 L380 667 L303 667 L190 100 L76 667 L-5 667 L147 0 Z " />
<glyph glyph-name="W" unicode="W" horiz-adv-x="579" d="M124 0 L196 0 L291 513 L388 0 L463 0 L574 667 L506 667 L428 139 L324 667 L261 667 L166 139 L81 667 L6 667 L124 0 Z " />
<glyph glyph-name="X" unicode="X" horiz-adv-x="375" d="M146 348 L0 0 L75 0 L182 277 L288 0 L374 0 L226 360 L356 667 L282 667 L189 427 L100 667 L18 667 L146 348 Z " />
<glyph glyph-name="Y" unicode="Y" horiz-adv-x="358" d="M140 0 L216 0 L216 282 L368 667 L297 667 L183 358 L67 667 L-12 667 L140 282 L140 0 Z " />
<glyph glyph-name="Z" unicode="Z" horiz-adv-x="375" d="M99 68 L352 614 L352 667 L30 667 L30 602 L266 602 L18 68 L18 0 L358 0 L358 68 L99 68 Z " />
<glyph glyph-name="bracketleft" unicode="&#x5b;" horiz-adv-x="273" d="M165 615 L227 615 L227 667 L95 667 L95 -167 L227 -167 L227 -115 L165 -115 L165 615 Z " />
<glyph glyph-name="backslash" unicode="&#x5c;" horiz-adv-x="392" d="M387 -167 L99 667 L39 667 L326 -167 L387 -167 Z " />
<glyph glyph-name="bracketright" unicode="&#x5d;" horiz-adv-x="273" d="M106 615 L106 -115 L45 -115 L45 -167 L176 -167 L176 667 L45 667 L45 615 L106 615 Z " />
<glyph glyph-name="asciicircum" unicode="&#x5e;" horiz-adv-x="500" d="M102 367 L249 613 L397 367 L474 367 L296 669 L204 669 L26 367 L102 367 Z " />
<glyph glyph-name="underscore" unicode="&#x5f;" horiz-adv-x="500" d="M0 -66 L0 -131 L500 -131 L500 -66 L0 -66 Z " />
<glyph glyph-name="grave" unicode="&#x60;" horiz-adv-x="460" d="M109 654 L263 550 L290 582 L154 710 L109 654 Z " />
<glyph glyph-name="a" unicode="a" horiz-adv-x="392" d="M346 0 C341 30 339 56 339 114 L339 314 C339 403 333 437 312 462 C288 490 250 505 200 505 C115 505 67 464 46 372 L110 355 C124 426 144 448 194 448 C228 448 250 435 259 408 C267 389 269 365 268 304 C238 305 235 305 224 305 C104 305 34 242 34 134 C34 43 83 -12 163 -12 C219 -12 249 10 275 72 C275 37 277 23 284 0 L346 0 Z M268 250 C268 190 266 158 260 133 C246 77 215 47 172 47 C131 47 108 78 108 133 C108 216 146 250 238 250 L268 250 Z " />
<glyph glyph-name="b" unicode="b" horiz-adv-x="409" d="M59 0 L96 0 L113 60 C132 14 167 -9 220 -9 C320 -9 375 84 375 252 C375 417 325 502 229 502 C181 502 150 478 128 423 L128 667 L59 667 L59 0 Z M128 273 C128 384 159 443 216 443 C276 443 299 388 299 249 C299 112 270 47 208 47 C188 47 170 56 155 76 C135 100 128 131 128 188 L128 273 Z " />
<glyph glyph-name="c" unicode="c" horiz-adv-x="358" d="M338 346 C326 451 276 505 193 505 C86 505 34 417 34 237 C34 67 85 -12 193 -12 C279 -12 320 35 338 151 L273 159 C263 81 239 47 192 47 C131 47 110 98 110 247 C110 392 133 446 193 446 C239 446 262 413 273 333 L338 346 Z " />
<glyph glyph-name="d" unicode="d" horiz-adv-x="409" d="M350 667 L281 667 L281 437 C262 482 233 502 188 502 C92 502 35 403 35 237 C35 77 86 -9 182 -9 C235 -9 269 14 289 64 L289 0 L350 0 L350 667 Z M281 181 C281 133 276 107 263 85 C247 60 226 47 199 47 C138 47 111 109 111 251 C111 384 138 443 197 443 C248 443 281 393 281 314 L281 181 Z " />
<glyph glyph-name="e" unicode="e" horiz-adv-x="375" d="M356 238 C356 315 350 359 337 397 C312 468 265 505 198 505 C94 505 34 407 34 239 C34 71 88 -12 198 -12 C283 -12 326 28 351 130 L290 145 C273 75 249 47 205 47 C138 47 107 107 107 238 L356 238 Z M108 295 C116 402 141 446 197 446 C229 446 253 429 266 396 C275 373 278 347 280 295 L108 295 Z " />
<glyph glyph-name="f" unicode="f" horiz-adv-x="204" d="M64 0 L133 0 L133 436 L211 436 L211 493 L133 493 L133 533 C133 572 133 576 139 590 C147 609 166 620 189 620 C200 620 208 619 230 614 L230 674 C203 678 192 679 176 679 C131 679 95 662 79 633 C68 611 64 586 64 533 L64 493 L2 493 L2 436 L64 436 L64 0 Z " />
<glyph glyph-name="g" unicode="g" horiz-adv-x="358" d="M358 568 C349 569 340 569 335 569 C285 569 258 542 254 485 C231 499 212 505 186 505 C103 505 47 437 47 337 C47 281 62 241 97 205 C57 185 38 158 38 120 C38 85 56 56 89 37 C44 12 24 -20 24 -65 C24 -142 87 -190 189 -190 C302 -190 368 -137 368 -47 C368 -13 358 14 339 34 C318 57 290 68 239 71 C158 77 158 77 134 85 C112 93 102 106 102 128 C102 150 115 166 137 174 C155 168 167 166 184 166 C271 166 328 231 328 330 C328 376 316 417 294 448 C297 492 309 507 343 507 C345 507 352 507 358 506 L358 568 Z M189 446 C233 446 255 409 255 337 C255 259 234 225 187 225 C143 225 118 264 118 333 C118 408 142 446 189 446 L189 446 Z M129 17 C162 15 165 15 185 13 C235 10 248 8 266 0 C287 -9 298 -27 298 -52 C298 -102 260 -131 196 -131 C131 -131 94 -102 94 -49 C94 -19 104 0 129 17 L129 17 Z " />
<glyph glyph-name="h" unicode="h" horiz-adv-x="392" d="M59 0 L129 0 L129 251 C129 338 131 360 142 388 C155 423 177 441 207 441 C255 441 271 408 271 308 L271 0 L340 0 L340 308 C340 393 336 425 323 449 C305 485 270 505 228 505 C178 505 149 482 128 427 L128 667 L59 667 L59 0 Z " />
<glyph glyph-name="i" unicode="i" horiz-adv-x="187" d="M59 0 L128 0 L128 493 L59 493 L59 0 Z M56 667 L56 582 L131 582 L131 667 L56 667 Z " />
<glyph glyph-name="j" unicode="j" horiz-adv-x="187" d="M60 493 L60 -14 C60 -99 54 -110 6 -110 L-28 -110 L-28 -174 L11 -174 C106 -175 130 -143 129 -17 L129 493 L60 493 Z M57 667 L57 582 L132 582 L132 667 L57 667 Z " />
<glyph glyph-name="k" unicode="k" horiz-adv-x="358" d="M59 0 L128 0 L128 152 L185 241 L271 0 L353 0 L229 311 L338 493 L265 493 L128 251 L128 667 L59 667 L59 0 Z " />
<glyph glyph-name="l" unicode="l" horiz-adv-x="187" d="M59 0 L128 0 L128 667 L59 667 L59 0 Z " />
<glyph glyph-name="m" unicode="m" horiz-adv-x="596" d="M59 0 L128 0 L128 314 C128 395 157 441 208 441 C253 441 267 410 267 310 L267 0 L336 0 L336 270 C336 329 340 365 348 388 C362 423 383 441 412 441 C457 441 475 406 475 322 L475 0 L544 0 L544 326 C544 391 537 431 522 456 C503 488 471 505 432 505 C377 505 342 474 325 409 C315 475 285 505 229 505 C175 505 140 476 123 415 L123 493 L59 493 L59 0 Z " />
<glyph glyph-name="n" unicode="n" horiz-adv-x="392" d="M59 0 L128 0 L128 284 C128 388 155 441 209 441 C256 441 271 411 271 313 L271 0 L340 0 L340 313 C340 396 337 427 325 451 C309 485 275 505 232 505 C181 505 144 476 123 418 L123 493 L59 493 L59 0 Z " />
<glyph glyph-name="o" unicode="o" horiz-adv-x="392" d="M198 505 C93 505 34 410 34 242 C34 74 89 -12 195 -12 C303 -12 358 74 358 242 C358 409 300 505 198 505 L198 505 Z M197 446 C257 446 282 384 282 235 C282 106 255 47 196 47 C136 47 110 106 110 243 C110 384 136 446 197 446 L197 446 Z " />
<glyph glyph-name="p" unicode="p" horiz-adv-x="409" d="M59 -167 L128 -167 L128 50 C152 8 180 -9 226 -9 C323 -9 375 82 375 249 C375 411 323 502 230 502 C176 502 143 474 124 413 L124 493 L59 493 L59 -167 Z M128 286 C128 388 159 443 215 443 C274 443 299 383 299 244 C299 103 275 50 212 50 C183 50 162 63 145 92 C134 112 128 147 128 196 L128 286 Z " />
<glyph glyph-name="q" unicode="q" horiz-adv-x="409" d="M350 499 L313 499 L294 428 C275 479 243 502 191 502 C95 502 35 402 35 242 C35 79 87 -9 184 -9 C229 -9 259 11 281 57 L281 -167 L350 -167 L350 499 Z M281 183 C281 99 250 50 198 50 C140 50 111 117 111 247 C111 376 141 443 200 443 C249 443 281 399 281 334 L281 183 Z " />
<glyph glyph-name="r" unicode="r" horiz-adv-x="238" d="M59 0 L128 0 L128 232 C128 305 132 341 142 365 C159 403 188 424 226 424 C233 424 236 424 246 423 L246 500 C237 502 233 503 225 503 C176 503 142 467 123 395 L123 493 L59 493 L59 0 Z " />
<glyph glyph-name="s" unicode="s" horiz-adv-x="324" d="M300 382 C282 467 240 505 162 505 C82 505 28 451 28 371 C28 308 57 270 139 229 C198 199 198 199 212 187 C231 172 240 150 240 123 C240 76 211 47 166 47 C137 47 112 58 96 78 C85 92 80 107 73 142 L12 126 C26 34 78 -12 167 -12 C255 -12 311 45 311 134 C311 199 286 231 203 272 C155 297 139 306 125 316 C106 331 96 351 96 378 C96 420 122 446 164 446 C205 446 226 424 241 366 L300 382 Z " />
<glyph glyph-name="t" unicode="t" horiz-adv-x="238" d="M144 493 L144 625 L75 617 L75 493 L19 493 L19 436 L75 436 L75 168 C75 92 80 62 96 36 C110 12 141 -2 182 -2 C207 -2 223 1 241 8 L241 69 C226 66 220 65 207 65 C153 65 144 80 144 168 L144 436 L228 436 L228 493 L144 493 Z " />
<glyph glyph-name="u" unicode="u" horiz-adv-x="392" d="M333 493 L264 493 L264 176 C264 96 235 52 183 52 C160 52 141 62 132 79 C123 95 121 112 121 158 L121 493 L52 493 L52 162 C52 88 55 61 65 40 C82 7 117 -12 162 -12 C213 -12 246 10 269 59 L269 0 L333 0 L333 493 Z " />
<glyph glyph-name="v" unicode="v" horiz-adv-x="307" d="M116 0 L191 0 L307 493 L239 493 L157 86 L72 493 L0 493 L116 0 Z " />
<glyph glyph-name="w" unicode="w" horiz-adv-x="460" d="M103 0 L165 0 L229 365 L299 0 L359 0 L458 493 L398 493 L332 125 L262 493 L202 493 L136 125 L72 493 L2 493 L103 0 Z " />
<glyph glyph-name="x" unicode="x" horiz-adv-x="307" d="M117 261 L2 0 L72 0 L151 198 L231 0 L304 0 L189 261 L287 493 L219 493 L156 322 L89 493 L14 493 L117 261 Z " />
<glyph glyph-name="y" unicode="y" horiz-adv-x="290" d="M-4 493 L114 50 L96 -24 C77 -101 67 -117 38 -117 C28 -117 20 -116 3 -111 L3 -172 C21 -177 30 -178 43 -178 C98 -178 129 -141 154 -47 L294 493 L232 493 L148 152 L67 493 L-4 493 Z " />
<glyph glyph-name="z" unicode="z" horiz-adv-x="307" d="M38 493 L38 434 L201 434 L23 57 L23 0 L284 0 L284 59 L99 59 L284 453 L284 493 L38 493 Z " />
<glyph glyph-name="braceleft" unicode="&#x7b;" horiz-adv-x="256" d="M216 667 C207 668 198 668 194 668 C157 668 129 656 112 633 C96 610 90 582 90 526 L90 381 C91 302 83 284 43 281 L43 220 C83 217 91 199 90 120 L90 -25 C90 -76 94 -102 107 -124 C124 -153 153 -167 194 -167 C198 -167 207 -167 216 -166 L216 -114 C169 -113 158 -97 159 -28 L159 123 C160 214 152 235 109 251 C151 265 160 288 159 378 L159 529 C158 598 169 615 216 616 L216 667 Z " />
<glyph glyph-name="bar" unicode="&#x7c;" horiz-adv-x="500" d="M215 667 L215 -167 L285 -167 L285 667 L215 667 Z " />
<glyph glyph-name="braceright" unicode="&#x7d;" horiz-adv-x="256" d="M40 616 C87 615 98 598 97 529 L97 378 C96 287 105 264 147 251 C104 235 96 214 97 123 L97 -28 C98 -97 87 -113 40 -114 L40 -166 C49 -167 58 -167 62 -167 C99 -167 127 -155 144 -132 C160 -109 166 -82 166 -25 L166 120 C165 200 173 217 213 220 L213 281 C173 284 165 301 166 381 L166 526 C166 578 162 602 149 625 C132 653 103 668 62 668 C58 668 49 668 40 667 L40 616 Z " />
<glyph glyph-name="asciitilde" unicode="&#x7e;" horiz-adv-x="667" d="M135 584 C163 637 189 658 224 658 C241 658 263 652 291 639 C381 597 402 590 431 590 C491 590 535 624 573 701 L531 727 C500 674 477 657 439 657 C415 657 401 662 342 690 C287 715 257 725 229 725 C170 725 135 695 93 611 L135 584 Z " />
<glyph glyph-name="uni00A0" unicode="&#xa0;" horiz-adv-x="204" d="" />
<glyph glyph-name="exclamdown" unicode="&#xa1;" horiz-adv-x="273" d="M180 -174 L158 327 L115 327 L92 -174 L180 -174 Z M178 387 L178 493 L95 493 L95 387 L178 387 Z " />
<glyph glyph-name="cent" unicode="&#xa2;" horiz-adv-x="426" d="M240 515 C271 508 287 479 296 415 L361 428 C352 516 309 570 243 575 L243 668 L196 668 L196 574 C110 558 71 481 71 332 C71 190 107 126 196 108 L196 -7 L243 -7 L243 106 C314 115 346 156 361 258 L296 266 C289 206 270 173 240 166 L240 515 Z M200 169 C159 185 147 225 147 342 C147 451 163 502 200 513 L200 169 Z " />
<glyph glyph-name="sterling" unicode="&#xa3;" horiz-adv-x="426" d="M209 371 C199 436 196 472 196 504 C196 573 221 609 268 609 C303 609 328 592 349 554 L401 588 C370 649 332 676 273 676 C232 676 193 659 165 630 C134 598 120 555 120 492 C120 459 123 435 134 371 L54 371 L54 316 L141 316 C148 260 152 222 152 204 C152 144 133 104 94 80 C73 67 57 64 10 63 L10 0 L216 0 C329 -1 368 19 408 102 L361 136 C335 79 304 63 224 63 L149 63 C176 83 188 97 200 126 C215 160 222 200 222 245 C222 268 221 283 216 316 L320 316 L320 371 L209 371 Z " />
<glyph glyph-name="currency" unicode="&#xa4;" horiz-adv-x="426" d="M302 462 C272 481 246 489 213 489 C181 489 154 481 125 463 L65 523 L24 482 L84 422 C65 392 57 366 57 333 C57 301 65 275 84 244 L25 185 L66 144 L126 204 C156 185 182 177 213 177 C245 177 270 185 301 205 L360 145 L401 186 L342 246 C361 275 369 301 369 334 C369 365 361 391 342 420 L402 480 L361 521 L302 462 Z M213 426 C265 426 306 384 306 332 C306 281 264 240 211 240 C162 240 120 282 120 333 C120 384 162 426 213 426 L213 426 Z " />
<glyph glyph-name="yen" unicode="&#xa5;" horiz-adv-x="426" d="M301 408 L403 667 L332 667 L219 348 L102 667 L23 667 L125 408 L45 408 L45 357 L145 357 L175 282 L45 282 L45 231 L176 231 L176 0 L251 0 L251 231 L394 231 L394 282 L252 282 L282 357 L394 357 L394 408 L301 408 Z " />
<glyph glyph-name="brokenbar" unicode="&#xa6;" horiz-adv-x="500" d="M215 667 L215 334 L285 334 L285 667 L215 667 Z M215 153 L215 -167 L285 -167 L285 153 L215 153 Z " />
<glyph glyph-name="section" unicode="&#xa7;" horiz-adv-x="426" d="M352 550 C339 633 288 679 211 679 C125 679 70 619 70 526 C70 466 88 429 136 393 C83 357 59 314 59 254 C59 182 93 138 173 108 C259 76 260 75 278 58 C297 41 308 12 308 -19 C308 -83 274 -122 217 -122 C162 -122 131 -90 119 -23 L51 -36 C67 -134 119 -181 212 -181 C315 -181 375 -116 375 -6 C375 65 351 111 299 142 C344 177 364 218 364 275 C364 342 335 383 265 413 C177 450 177 450 161 465 C145 481 135 508 135 537 C135 588 163 621 208 621 C249 621 273 597 288 539 L352 550 Z M179 370 C224 352 249 341 257 336 C285 316 298 290 298 255 C298 215 285 185 256 159 C211 175 193 182 177 191 C140 213 124 238 124 276 C124 313 141 342 179 370 L179 370 Z " />
<glyph glyph-name="dieresis" unicode="&#xa8;" horiz-adv-x="460" d="M161 673 C135 673 113 651 113 624 C113 597 135 575 162 575 C188 575 211 597 211 623 C211 651 189 673 161 673 L161 673 Z M297 673 C271 673 249 651 249 624 C249 597 271 575 298 575 C324 575 347 597 347 623 C347 651 325 673 297 673 L297 673 Z " />
<glyph glyph-name="copyright" unicode="&#xa9;" horiz-adv-x="779" d="M506 423 C492 506 459 541 394 541 C312 541 267 464 267 326 C267 194 310 126 393 126 C457 126 488 158 506 242 L451 252 C440 191 427 174 394 174 C350 174 328 225 328 329 C328 438 351 493 395 493 C428 493 441 474 451 412 L506 423 Z M390 680 C197 680 41 525 41 333 C41 145 198 -13 384 -13 C581 -13 738 140 738 331 C738 525 584 680 390 680 L390 680 Z M390 628 C552 628 682 496 682 331 C682 169 550 39 385 39 C228 39 97 173 97 333 C97 496 228 628 390 628 L390 628 Z " />
<glyph glyph-name="ordfeminine" unicode="&#xaa;" horiz-adv-x="255" d="M233 267 C228 291 227 303 227 339 L227 455 C227 510 223 530 209 546 C192 564 168 573 135 573 C73 573 39 548 25 491 L75 478 C85 517 98 529 129 529 C162 529 171 515 171 465 L171 456 L150 456 C65 456 16 417 16 349 C16 294 50 260 105 260 C142 260 160 272 176 310 C176 293 178 282 182 267 L233 267 Z M171 412 C171 337 154 306 115 306 C88 306 74 322 74 351 C74 395 97 413 157 413 C159 413 164 413 171 412 L171 412 Z " />
<glyph glyph-name="guillemotleft" unicode="&#xab;" horiz-adv-x="307" d="M110 254 L155 404 L115 404 L32 254 L115 110 L155 110 L110 254 Z M228 254 L274 404 L234 404 L151 254 L234 110 L274 110 L228 254 Z " />
<glyph glyph-name="logicalnot" unicode="&#xac;" horiz-adv-x="500" d="M396 0 L466 0 L466 266 L33 266 L33 201 L396 201 L396 0 Z " />
<glyph glyph-name="uni00AD" unicode="&#xad;" horiz-adv-x="238" d="M34 282 L34 222 L204 222 L204 282 L34 282 Z " />
<glyph glyph-name="registered" unicode="&#xae;" horiz-adv-x="779" d="M286 133 L345 133 L345 304 L396 304 L457 133 L520 133 L452 315 C489 330 508 366 508 419 C508 454 498 481 478 503 C456 526 435 533 385 533 L286 533 L286 133 Z M345 352 L345 484 L383 484 C428 484 449 463 449 417 C449 373 428 352 386 352 L345 352 Z M390 680 C197 680 41 525 41 333 C41 145 198 -13 384 -13 C581 -13 738 140 738 331 C738 525 584 680 390 680 L390 680 Z M390 628 C552 628 682 496 682 331 C682 169 550 39 385 39 C228 39 97 173 97 333 C97 496 228 628 390 628 L390 628 Z " />
<glyph glyph-name="macron" unicode="&#xaf;" horiz-adv-x="460" d="M118 651 L118 596 L343 596 L343 651 L118 651 Z " />
<glyph glyph-name="degree" unicode="&#xb0;" horiz-adv-x="426" d="M215 679 C136 679 74 618 74 540 C74 463 136 401 213 401 C290 401 352 463 352 540 C352 616 290 679 215 679 L215 679 Z M214 623 C254 623 286 586 286 540 C286 494 254 457 213 457 C173 457 140 494 140 540 C140 587 172 623 214 623 L214 623 Z " />
<glyph glyph-name="plusminus" unicode="&#xb1;" horiz-adv-x="426" d="M246 364 L246 509 L181 509 L181 364 L37 364 L37 303 L181 303 L181 157 L246 157 L246 303 L389 303 L389 364 L246 364 Z M389 45 L389 106 L37 106 L37 45 L389 45 Z " />
<glyph glyph-name="twosuperior" unicode="&#xb2;" horiz-adv-x="290" d="M101 319 C154 367 165 378 186 402 C231 456 254 507 254 557 C254 628 211 674 146 674 C79 674 41 634 29 552 L82 538 C89 599 107 625 142 625 C174 625 194 598 194 554 C194 489 146 419 30 316 L30 267 L254 267 L254 319 L101 319 Z " />
<glyph glyph-name="threesuperior" unicode="&#xb3;" horiz-adv-x="290" d="M98 451 L133 451 C178 451 205 424 205 379 C205 334 182 307 143 307 C102 307 85 326 75 378 L25 363 C32 297 73 260 139 260 C215 260 265 309 265 381 C265 435 240 466 188 478 C233 491 253 518 253 563 C253 629 210 674 147 674 C84 674 45 640 36 576 L84 563 C95 610 111 627 143 627 C176 627 194 603 194 559 C194 517 176 499 135 499 L98 499 L98 451 Z " />
<glyph glyph-name="acute" unicode="&#xb4;" horiz-adv-x="460" d="M352 654 L307 710 L171 582 L198 550 L352 654 Z " />
<glyph glyph-name="mu" unicode="&#xb5;" horiz-adv-x="392" d="M333 493 L264 493 L264 176 C264 96 239 52 193 52 C146 52 121 96 121 176 L121 493 L52 493 L52 -167 L116 -167 L116 59 C129 12 155 -12 193 -12 C232 -12 258 13 269 59 L269 0 L333 0 L333 493 Z " />
<glyph glyph-name="paragraph" unicode="&#xb6;" horiz-adv-x="426" d="M364 667 L221 667 C162 667 122 659 93 641 C47 611 18 550 18 481 C18 419 41 363 79 332 C109 308 148 297 202 297 L215 297 L215 -167 L267 -167 L267 610 L312 610 L312 -167 L364 -167 L364 667 Z " />
<glyph glyph-name="periodcentered" unicode="&#xb7;" horiz-adv-x="204" d="M58 311 L58 203 L145 203 L145 311 L58 311 Z " />
<glyph glyph-name="cedilla" unicode="&#xb8;" horiz-adv-x="460" d="M219 0 L197 -73 C211 -71 216 -71 223 -71 C252 -71 270 -86 270 -109 C270 -132 255 -146 231 -146 C213 -146 195 -141 173 -130 L163 -162 C185 -176 211 -184 240 -184 C289 -184 323 -154 323 -109 C323 -83 311 -61 290 -50 C277 -43 265 -41 238 -41 L248 0 L219 0 Z " />
<glyph glyph-name="onesuperior" unicode="&#xb9;" horiz-adv-x="290" d="M189 671 L145 671 C127 640 86 601 61 591 L61 535 C93 550 109 562 130 584 L130 312 L65 312 L65 266 L250 266 L250 312 L189 312 L189 671 Z " />
<glyph glyph-name="ordmasculine" unicode="&#xba;" horiz-adv-x="239" d="M120 573 C51 573 12 515 12 414 C12 312 49 259 119 259 C189 259 226 312 226 413 C226 515 187 573 120 573 L120 573 Z M120 527 C152 527 166 493 166 411 C166 339 151 305 119 305 C86 305 72 337 72 413 C72 493 86 527 120 527 L120 527 Z " />
<glyph glyph-name="guillemotright" unicode="&#xbb;" horiz-adv-x="307" d="M197 254 L151 110 L191 110 L274 254 L191 404 L151 404 L197 254 Z M78 254 L32 110 L72 110 L155 254 L72 404 L32 404 L78 254 Z " />
<glyph glyph-name="onequarter" unicode="&#xbc;" horiz-adv-x="682" d="M189 671 L145 671 C127 640 86 601 61 591 L61 535 C93 550 109 562 130 584 L130 312 L65 312 L65 266 L250 266 L250 312 L189 312 L189 671 Z M170 0 L226 0 L511 667 L455 667 L170 0 Z M531 95 L531 0 L589 0 L589 95 L632 95 L632 141 L589 141 L589 407 L522 407 L389 137 L389 95 L531 95 Z M531 141 L446 141 L534 335 L531 141 Z " />
<glyph glyph-name="onehalf" unicode="&#xbd;" horiz-adv-x="682" d="M189 671 L145 671 C127 640 86 601 61 591 L61 535 C93 550 109 562 130 584 L130 312 L65 312 L65 266 L250 266 L250 312 L189 312 L189 671 Z M170 0 L226 0 L511 667 L455 667 L170 0 Z M484 52 C538 101 547 110 568 135 C614 189 636 239 636 290 C636 361 593 407 528 407 C462 407 423 367 411 284 L464 271 C471 333 489 358 525 358 C556 358 576 331 576 287 C576 221 530 155 412 49 L412 0 L636 0 L636 52 L484 52 Z " />
<glyph glyph-name="threequarters" unicode="&#xbe;" horiz-adv-x="681" d="M98 451 L133 451 C178 451 205 424 205 379 C205 334 182 307 143 307 C102 307 85 326 75 378 L25 363 C32 297 73 260 139 260 C215 260 265 309 265 381 C265 435 240 466 188 478 C233 491 253 518 253 563 C253 629 210 674 147 674 C84 674 45 640 36 576 L84 563 C95 610 111 627 143 627 C176 627 194 603 194 559 C194 517 176 499 135 499 L98 499 L98 451 Z M176 0 L232 0 L517 667 L461 667 L176 0 Z M531 95 L531 0 L589 0 L589 95 L632 95 L632 141 L589 141 L589 407 L522 407 L389 137 L389 95 L531 95 Z M531 141 L446 141 L534 335 L531 141 Z " />
<glyph glyph-name="questiondown" unicode="&#xbf;" horiz-adv-x="409" d="M192 327 L192 291 C191 234 184 219 135 171 C69 107 45 58 45 -12 C45 -117 108 -186 204 -186 C304 -186 361 -120 373 9 L308 25 C303 -20 298 -45 289 -67 C273 -105 245 -125 208 -125 C155 -125 122 -80 122 -8 C122 46 137 77 189 129 C251 192 260 212 260 294 L260 327 L192 327 Z M268 387 L268 493 L185 493 L185 387 L268 387 Z " />
<glyph glyph-name="Agrave" unicode="&#xc0;" horiz-adv-x="375" d="M148 667 L-4 0 L67 0 L108 193 L258 193 L300 0 L378 0 L228 667 L148 667 Z M245 255 L122 255 L185 587 L245 255 Z M92 861 L60 792 L242 727 L261 766 L92 861 Z " />
<glyph glyph-name="Aacute" unicode="&#xc1;" horiz-adv-x="375" d="M148 667 L-4 0 L67 0 L108 193 L258 193 L300 0 L378 0 L228 667 L148 667 Z M245 255 L122 255 L185 587 L245 255 Z M318 793 L286 861 L117 766 L136 727 L318 793 Z " />
<glyph glyph-name="Acircumflex" unicode="&#xc2;" horiz-adv-x="375" d="M148 667 L-4 0 L67 0 L108 193 L258 193 L300 0 L378 0 L228 667 L148 667 Z M245 255 L122 255 L185 587 L245 255 Z M190 787 L266 727 L324 739 L190 861 L50 739 L110 727 L190 787 Z " />
<glyph glyph-name="Atilde" unicode="&#xc3;" horiz-adv-x="375" d="M148 667 L-4 0 L67 0 L108 193 L258 193 L300 0 L378 0 L228 667 L148 667 Z M245 255 L122 255 L185 587 L245 255 Z M286 829 C270 800 261 791 247 791 C234 791 224 796 195 819 C176 833 163 839 148 839 C116 839 89 813 65 760 L103 733 C119 766 128 775 143 775 C157 775 166 770 187 750 C206 733 221 726 239 726 C271 726 296 750 322 803 L286 829 Z " />
<glyph glyph-name="Adieresis" unicode="&#xc4;" horiz-adv-x="375" d="M148 667 L-4 0 L67 0 L108 193 L258 193 L300 0 L378 0 L228 667 L148 667 Z M245 255 L122 255 L185 587 L245 255 Z M116 833 C89 833 66 810 66 782 C66 755 89 732 117 732 C145 732 168 754 168 781 C168 810 145 833 116 833 L116 833 Z M257 833 C230 833 207 810 207 782 C207 755 230 732 257 732 C285 732 308 754 308 781 C308 810 286 833 257 833 L257 833 Z " />
<glyph glyph-name="Aring" unicode="&#xc5;" horiz-adv-x="375" d="M148 667 L-4 0 L67 0 L108 193 L258 193 L300 0 L378 0 L228 667 L148 667 Z M245 255 L122 255 L185 587 L245 255 Z M187 877 C141 877 103 839 103 794 C103 748 140 710 185 710 C233 710 271 747 271 794 C271 840 233 877 187 877 L187 877 Z M187 831 C207 831 224 814 224 794 C224 772 208 756 186 756 C166 756 150 773 150 793 C150 814 167 831 187 831 L187 831 Z " />
<glyph glyph-name="AE" unicode="&#xc6;" horiz-adv-x="613" d="M264 667 L-12 0 L61 0 L144 206 L300 206 L300 0 L614 0 L614 65 L376 65 L376 314 L556 314 L556 379 L376 379 L376 602 L607 602 L607 667 L264 667 Z M300 271 L168 271 L300 612 L300 271 Z " />
<glyph glyph-name="Ccedilla" unicode="&#xc7;" horiz-adv-x="409" d="M233 -12 C328 -11 377 42 402 170 L332 183 C314 84 290 52 235 52 C158 52 121 141 121 325 C121 518 159 614 237 614 C291 614 316 579 332 479 L402 494 C381 623 330 679 234 679 C186 679 147 662 120 629 C68 567 41 461 41 322 C41 183 67 86 119 31 C137 11 162 -2 197 -9 L177 -80 C191 -78 197 -77 206 -77 C237 -77 255 -92 255 -118 C255 -141 241 -155 217 -155 C198 -155 176 -149 154 -137 L143 -172 C166 -189 194 -197 226 -197 C278 -197 315 -164 315 -116 C315 -71 284 -42 236 -42 L225 -42 L233 -12 Z " />
<glyph glyph-name="Egrave" unicode="&#xc8;" horiz-adv-x="375" d="M140 602 L370 602 L370 667 L64 667 L64 0 L375 0 L375 65 L140 65 L140 314 L317 314 L317 379 L140 379 L140 602 Z M122 861 L91 792 L272 727 L291 766 L122 861 Z " />
<glyph glyph-name="Eacute" unicode="&#xc9;" horiz-adv-x="375" d="M140 602 L369 602 L369 667 L64 667 L64 0 L375 0 L375 65 L140 65 L140 314 L317 314 L317 379 L140 379 L140 602 Z M350 793 L319 861 L149 766 L169 727 L350 793 Z " />
<glyph glyph-name="Ecircumflex" unicode="&#xca;" horiz-adv-x="375" d="M140 602 L369 602 L369 667 L64 667 L64 0 L375 0 L375 65 L140 65 L140 314 L317 314 L317 379 L140 379 L140 602 Z M219 787 L296 727 L354 739 L219 861 L79 739 L140 727 L219 787 Z " />
<glyph glyph-name="Edieresis" unicode="&#xcb;" horiz-adv-x="375" d="M140 602 L369 602 L369 667 L64 667 L64 0 L375 0 L375 65 L140 65 L140 314 L317 314 L317 379 L140 379 L140 602 Z M146 833 C119 833 96 810 96 782 C96 755 119 732 146 732 C174 732 197 754 197 781 C197 810 175 833 146 833 L146 833 Z M287 833 C260 833 237 810 237 782 C237 754 260 732 288 732 C316 732 339 754 339 781 C339 811 317 833 287 833 L287 833 Z " />
<glyph glyph-name="Igrave" unicode="&#xcc;" horiz-adv-x="204" d="M64 0 L140 0 L140 667 L64 667 L64 0 Z M5 861 L-26 794 L142 727 L161 766 L5 861 Z " />
<glyph glyph-name="Iacute" unicode="&#xcd;" horiz-adv-x="204" d="M64 0 L140 0 L140 667 L64 667 L64 0 Z M232 795 L200 861 L44 766 L64 727 L232 795 Z " />
<glyph glyph-name="Icircumflex" unicode="&#xce;" horiz-adv-x="204" d="M64 0 L140 0 L140 667 L64 667 L64 0 Z M103 787 L166 727 L223 739 L103 861 L-18 739 L41 727 L103 787 Z " />
<glyph glyph-name="Idieresis" unicode="&#xcf;" horiz-adv-x="204" d="M64 0 L140 0 L140 667 L64 667 L64 0 Z M34 831 C8 831 -14 809 -14 782 C-14 756 8 734 34 734 C61 734 83 756 83 781 C83 809 62 831 34 831 L34 831 Z M169 831 C143 831 121 809 121 782 C121 756 143 734 169 734 C196 734 218 756 218 781 C218 809 196 831 169 831 L169 831 Z " />
<glyph glyph-name="Eth" unicode="&#xd0;" horiz-adv-x="477" d="M64 323 L64 0 L185 0 C260 0 303 14 343 52 C399 105 436 220 436 339 C436 454 401 565 349 614 C308 652 258 667 174 667 L64 667 L64 378 L10 378 L10 323 L64 323 Z M140 323 L243 323 L243 378 L140 378 L140 602 L187 602 C302 602 356 517 356 336 C356 248 341 177 313 130 C285 84 250 65 192 65 L140 65 L140 323 Z " />
<glyph glyph-name="Ntilde" unicode="&#xd1;" horiz-adv-x="494" d="M64 0 L132 0 L128 571 L356 0 L430 0 L430 667 L362 667 L366 145 L155 667 L64 667 L64 0 Z M345 829 C330 801 319 791 306 791 C293 791 282 796 254 819 C235 833 222 839 207 839 C175 839 147 812 124 760 L162 733 C177 765 187 775 202 775 C216 775 224 770 246 750 C265 733 280 726 298 726 C329 726 357 751 381 803 L345 829 Z " />
<glyph glyph-name="Ograve" unicode="&#xd2;" horiz-adv-x="477" d="M242 680 C108 680 41 562 41 327 C41 211 59 123 95 63 C124 15 175 -12 239 -12 C301 -12 346 12 377 64 C417 129 436 219 436 338 C436 563 370 680 242 680 L242 680 Z M240 615 C320 615 357 527 357 334 C357 140 321 53 239 53 C157 53 120 143 120 346 C120 529 158 615 240 615 L240 615 Z M143 861 L112 792 L293 727 L312 766 L143 861 Z " />
<glyph glyph-name="Oacute" unicode="&#xd3;" horiz-adv-x="477" d="M242 680 C108 680 41 562 41 327 C41 211 59 123 95 63 C124 15 175 -12 239 -12 C301 -12 346 12 377 64 C417 129 436 219 436 338 C436 563 370 680 242 680 L242 680 Z M240 615 C320 615 357 527 357 334 C357 140 321 53 239 53 C157 53 120 143 120 346 C120 529 158 615 240 615 L240 615 Z M373 793 L341 861 L172 766 L191 727 L373 793 Z " />
<glyph glyph-name="Ocircumflex" unicode="&#xd4;" horiz-adv-x="477" d="M242 680 C108 680 41 562 41 327 C41 211 59 123 95 63 C124 15 175 -12 239 -12 C301 -12 346 12 377 64 C417 129 436 219 436 338 C436 563 370 680 242 680 L242 680 Z M240 615 C320 615 357 527 357 334 C357 140 321 53 239 53 C157 53 120 143 120 346 C120 529 158 615 240 615 L240 615 Z M241 787 L318 727 L376 739 L241 861 L101 739 L162 727 L241 787 Z " />
<glyph glyph-name="Otilde" unicode="&#xd5;" horiz-adv-x="477" d="M242 680 C108 680 41 562 41 327 C41 211 59 123 95 63 C124 15 175 -12 239 -12 C301 -12 346 12 377 64 C417 129 436 219 436 338 C436 563 370 680 242 680 L242 680 Z M240 615 C320 615 357 527 357 334 C357 140 321 53 239 53 C157 53 120 143 120 346 C120 529 158 615 240 615 L240 615 Z M338 829 C322 800 312 791 299 791 C285 791 275 796 247 819 C227 833 215 839 200 839 C168 839 140 813 117 760 L154 733 C170 766 179 775 195 775 C208 775 217 770 239 750 C258 733 273 726 290 726 C322 726 348 750 374 803 L338 829 Z " />
<glyph glyph-name="Odieresis" unicode="&#xd6;" horiz-adv-x="477" d="M242 680 C108 680 41 562 41 327 C41 211 59 123 95 63 C124 15 175 -12 239 -12 C301 -12 346 12 377 64 C417 129 436 219 436 338 C436 563 370 680 242 680 L242 680 Z M240 615 C320 615 357 527 357 334 C357 140 321 53 239 53 C157 53 120 143 120 346 C120 529 158 615 240 615 L240 615 Z M167 833 C140 833 117 810 117 782 C117 755 140 732 168 732 C196 732 219 754 219 781 C219 810 197 833 167 833 L167 833 Z M309 833 C281 833 259 810 259 782 C259 754 281 732 309 732 C337 732 360 754 360 781 C360 810 338 833 309 833 L309 833 Z " />
<glyph glyph-name="multiply" unicode="&#xd7;" horiz-adv-x="426" d="M215 378 L100 493 L54 447 L169 332 L55 219 L99 175 L212 289 L327 174 L373 220 L258 335 L372 448 L328 492 L215 378 Z " />
<glyph glyph-name="Oslash" unicode="&#xd8;" horiz-adv-x="477" d="M340 649 C308 671 279 680 238 680 C109 680 41 559 41 327 C41 206 58 125 98 57 L55 -49 L112 -49 L138 16 C171 -5 200 -13 240 -13 C368 -13 436 110 436 340 C436 459 419 538 380 606 L424 714 L367 714 L340 649 Z M135 138 C120 185 112 254 112 346 C112 530 153 619 238 619 C269 619 292 609 310 589 L135 138 Z M343 527 C359 478 364 426 364 331 C364 135 325 48 238 48 C207 48 184 58 168 77 L343 527 Z " />
<glyph glyph-name="Ugrave" unicode="&#xd9;" horiz-adv-x="443" d="M52 667 L52 201 C52 112 59 76 82 42 C107 8 155 -12 217 -12 C280 -12 325 6 353 43 C381 79 390 120 390 201 L390 667 L317 667 L317 197 C317 92 292 53 223 53 C148 53 128 84 128 201 L128 667 L52 667 Z M122 861 L91 792 L272 727 L291 766 L122 861 Z " />
<glyph glyph-name="Uacute" unicode="&#xda;" horiz-adv-x="443" d="M52 667 L52 201 C52 112 59 76 82 42 C107 8 155 -12 217 -12 C280 -12 325 6 353 43 C381 79 390 120 390 201 L390 667 L317 667 L317 197 C317 92 292 53 223 53 C148 53 128 84 128 201 L128 667 L52 667 Z M362 793 L331 861 L161 766 L181 727 L362 793 Z " />
<glyph glyph-name="Ucircumflex" unicode="&#xdb;" horiz-adv-x="443" d="M52 667 L52 201 C52 112 59 76 82 42 C107 8 155 -12 217 -12 C280 -12 325 6 353 43 C381 79 390 120 390 201 L390 667 L317 667 L317 197 C317 92 292 53 223 53 C148 53 128 84 128 201 L128 667 L52 667 Z M224 787 L300 727 L359 739 L224 861 L84 739 L145 727 L224 787 Z " />
<glyph glyph-name="Udieresis" unicode="&#xdc;" horiz-adv-x="443" d="M150 833 C123 833 100 810 100 782 C100 755 123 732 151 732 C179 732 202 754 202 781 C202 810 179 833 150 833 L150 833 Z M292 833 C264 833 241 810 241 782 C241 755 264 732 292 732 C320 732 343 754 343 781 C343 810 321 833 292 833 L292 833 Z M52 667 L52 201 C52 112 59 76 82 42 C107 8 155 -12 217 -12 C280 -12 325 6 353 43 C381 79 390 120 390 201 L390 667 L317 667 L317 197 C317 92 292 53 223 53 C148 53 128 84 128 201 L128 667 L52 667 Z " />
<glyph glyph-name="Yacute" unicode="&#xdd;" horiz-adv-x="358" d="M140 0 L216 0 L216 282 L368 667 L297 667 L183 358 L67 667 L-12 667 L140 282 L140 0 Z M319 793 L288 861 L118 766 L138 727 L319 793 Z " />
<glyph glyph-name="Thorn" unicode="&#xde;" horiz-adv-x="392" d="M64 0 L140 0 L140 158 L205 158 C324 158 389 227 389 355 C389 428 367 484 324 519 C294 544 258 553 193 553 L140 553 L140 667 L64 667 L64 0 Z M140 223 L140 488 L198 488 C227 488 251 483 265 473 C295 454 312 410 312 351 C312 262 279 223 202 223 L140 223 Z " />
<glyph glyph-name="germandbls" unicode="&#xdf;" horiz-adv-x="426" d="M128 -36 L128 468 C128 526 132 568 139 587 C150 618 176 636 210 636 C254 636 279 604 279 548 C279 482 250 454 175 444 C164 428 160 413 160 393 C160 358 177 330 211 309 C277 268 277 268 293 248 C312 225 322 194 322 158 C322 88 293 51 239 51 C222 51 211 53 189 62 L171 3 C199 -8 221 -12 248 -12 C336 -12 395 61 395 168 C395 245 366 291 286 340 C225 377 218 384 214 405 C255 410 278 419 300 438 C330 465 347 506 347 552 C347 637 294 692 212 692 C149 692 99 659 78 605 C62 566 59 537 59 447 L6 447 L6 386 L59 386 L59 -36 L128 -36 Z " />
<glyph glyph-name="agrave" unicode="&#xe0;" horiz-adv-x="392" d="M346 0 C341 30 339 56 339 114 L339 314 C339 403 333 437 312 462 C288 490 250 505 200 505 C115 505 67 464 46 372 L110 355 C124 426 144 448 194 448 C228 448 250 435 259 408 C267 389 269 365 268 304 C238 305 235 305 224 305 C104 305 34 242 34 134 C34 43 83 -12 163 -12 C219 -12 249 10 275 72 C275 37 277 23 284 0 L346 0 Z M268 250 C268 190 266 158 260 133 C246 77 215 47 172 47 C131 47 108 78 108 133 C108 216 146 250 238 250 L268 250 Z M95 654 L248 550 L276 582 L140 710 L95 654 Z " />
<glyph glyph-name="aacute" unicode="&#xe1;" horiz-adv-x="392" d="M346 0 C341 30 339 56 339 114 L339 314 C339 403 333 437 312 462 C288 490 250 505 200 505 C115 505 67 464 46 372 L110 355 C124 426 144 448 194 448 C228 448 250 435 259 408 C267 389 269 365 268 304 C238 305 235 305 224 305 C104 305 34 242 34 134 C34 43 83 -12 163 -12 C219 -12 249 10 275 72 C275 37 277 23 284 0 L346 0 Z M268 250 C268 190 266 158 260 133 C246 77 215 47 172 47 C131 47 108 78 108 133 C108 216 146 250 238 250 L268 250 Z M325 654 L280 710 L144 582 L171 550 L325 654 Z " />
<glyph glyph-name="acircumflex" unicode="&#xe2;" horiz-adv-x="392" d="M346 0 C341 30 339 56 339 114 L339 314 C339 403 333 437 312 462 C288 490 250 505 200 505 C115 505 67 464 46 372 L110 355 C124 426 144 448 194 448 C228 448 250 435 259 408 C267 389 269 365 268 304 C238 305 235 305 224 305 C104 305 34 242 34 134 C34 43 83 -12 163 -12 C219 -12 249 10 275 72 C275 37 277 23 284 0 L346 0 Z M268 250 C268 190 266 158 260 133 C246 77 215 47 172 47 C131 47 108 78 108 133 C108 216 146 250 238 250 L268 250 Z M207 630 L281 570 L337 582 L207 699 L73 582 L131 570 L207 630 Z " />
<glyph glyph-name="atilde" unicode="&#xe3;" horiz-adv-x="392" d="M346 0 C341 30 339 56 339 114 L339 314 C339 403 333 437 312 462 C288 490 250 505 200 505 C115 505 67 464 46 372 L110 355 C124 426 144 448 194 448 C228 448 250 435 259 408 C267 389 269 365 268 304 C238 305 235 305 224 305 C104 305 34 242 34 134 C34 43 83 -12 163 -12 C219 -12 249 10 275 72 C275 37 277 23 284 0 L346 0 Z M268 250 C268 190 266 158 260 133 C246 77 215 47 172 47 C131 47 108 78 108 133 C108 216 146 250 238 250 L268 250 Z M299 672 C285 645 274 635 261 635 C249 635 240 640 211 662 C193 676 180 682 166 682 C136 682 108 656 87 605 L123 580 C139 612 147 620 161 620 C174 620 183 615 204 596 C223 580 237 573 254 573 C284 573 309 596 334 647 L299 672 Z " />
<glyph glyph-name="adieresis" unicode="&#xe4;" horiz-adv-x="392" d="M346 0 C341 30 339 56 339 114 L339 314 C339 403 333 437 312 462 C288 490 250 505 200 505 C115 505 67 464 46 372 L110 355 C124 426 144 448 194 448 C228 448 250 435 259 408 C267 389 269 365 268 304 C238 305 235 305 224 305 C104 305 34 242 34 134 C34 43 83 -12 163 -12 C219 -12 249 10 275 72 C275 37 277 23 284 0 L346 0 Z M268 250 C268 190 266 158 260 133 C246 77 215 47 172 47 C131 47 108 78 108 133 C108 216 146 250 238 250 L268 250 Z M137 673 C111 673 89 651 89 624 C89 597 111 575 138 575 C164 575 187 597 187 623 C187 651 165 673 137 673 L137 673 Z M273 673 C247 673 225 651 225 624 C225 597 247 575 274 575 C300 575 323 597 323 623 C323 651 301 673 273 673 L273 673 Z " />
<glyph glyph-name="aring" unicode="&#xe5;" horiz-adv-x="392" d="M346 0 C341 30 339 56 339 114 L339 314 C339 403 333 437 312 462 C288 490 250 505 200 505 C115 505 67 464 46 372 L110 355 C124 426 144 448 194 448 C228 448 250 435 259 408 C267 389 269 365 268 304 C238 305 235 305 224 305 C104 305 34 242 34 134 C34 43 83 -12 163 -12 C219 -12 249 10 275 72 C275 37 277 23 284 0 L346 0 Z M268 250 C268 190 266 158 260 133 C246 77 215 47 172 47 C131 47 108 78 108 133 C108 216 146 250 238 250 L268 250 Z M207 719 C161 719 123 681 123 636 C123 590 161 552 205 552 C253 552 291 589 291 636 C291 682 253 719 207 719 L207 719 Z M207 674 C228 674 245 657 245 636 C245 614 228 597 206 597 C186 597 169 614 169 636 C169 657 186 674 207 674 L207 674 Z " />
<glyph glyph-name="ae" unicode="&#xe6;" horiz-adv-x="613" d="M109 355 C123 425 144 448 194 448 C228 448 249 435 259 408 C266 388 268 364 268 304 C239 305 234 305 223 305 C104 305 34 242 34 134 C34 41 82 -12 165 -12 C232 -12 274 17 300 83 C321 19 363 -12 431 -12 C518 -12 564 29 588 130 L527 145 C510 75 486 47 442 47 C375 47 344 109 344 238 L594 238 C594 310 588 357 574 398 C549 469 503 506 437 506 C384 506 345 482 319 434 C297 483 258 505 197 505 C114 505 66 463 45 372 L109 355 Z M268 249 C268 195 265 156 259 133 C245 78 214 47 172 47 C131 47 108 78 108 133 C108 216 146 250 237 250 C245 250 253 250 268 249 L268 249 Z M346 295 C353 403 379 447 434 447 C490 447 516 401 518 295 L346 295 Z " />
<glyph glyph-name="ccedilla" unicode="&#xe7;" horiz-adv-x="358" d="M194 -13 C280 -11 322 37 338 151 L273 159 C263 81 239 47 192 47 C131 47 110 98 110 247 C110 392 133 446 193 446 C239 446 262 413 273 333 L338 346 C326 451 276 505 193 505 C86 505 34 417 34 236 C34 79 72 9 165 -10 L146 -73 C160 -71 165 -71 172 -71 C201 -71 219 -86 219 -109 C219 -132 204 -146 180 -146 C162 -146 145 -141 122 -130 L112 -162 C134 -176 160 -184 189 -184 C238 -184 272 -154 272 -109 C272 -83 260 -61 239 -50 C226 -43 213 -41 187 -41 L194 -13 Z " />
<glyph glyph-name="egrave" unicode="&#xe8;" horiz-adv-x="375" d="M86 654 L240 550 L267 582 L131 710 L86 654 Z M356 238 C356 315 350 359 337 397 C312 468 265 505 198 505 C94 505 34 407 34 239 C34 71 88 -12 198 -12 C283 -12 326 28 351 130 L290 145 C273 75 249 47 205 47 C138 47 107 107 107 238 L356 238 Z M108 295 C116 402 141 446 197 446 C229 446 253 429 266 396 C275 373 278 347 280 295 L108 295 Z " />
<glyph glyph-name="eacute" unicode="&#xe9;" horiz-adv-x="375" d="M320 654 L275 710 L138 582 L166 550 L320 654 Z M356 238 C356 315 350 359 337 397 C312 468 265 505 198 505 C94 505 34 407 34 239 C34 71 88 -12 198 -12 C283 -12 326 28 351 130 L290 145 C273 75 249 47 205 47 C138 47 107 107 107 238 L356 238 Z M108 295 C116 402 141 446 197 446 C229 446 253 429 266 396 C275 373 278 347 280 295 L108 295 Z " />
<glyph glyph-name="ecircumflex" unicode="&#xea;" horiz-adv-x="375" d="M356 238 C356 315 350 359 337 397 C312 468 265 505 198 505 C94 505 34 407 34 239 C34 71 88 -12 198 -12 C283 -12 326 28 351 130 L290 145 C273 75 249 47 205 47 C138 47 107 107 107 238 L356 238 Z M108 295 C116 402 141 446 197 446 C229 446 253 429 266 396 C275 373 278 347 280 295 L108 295 Z M202 630 L275 570 L331 582 L202 699 L67 582 L126 570 L202 630 Z " />
<glyph glyph-name="edieresis" unicode="&#xeb;" horiz-adv-x="375" d="M356 238 C356 315 350 359 337 397 C312 468 265 505 198 505 C94 505 34 407 34 239 C34 71 88 -12 198 -12 C283 -12 326 28 351 130 L290 145 C273 75 249 47 205 47 C138 47 107 107 107 238 L356 238 Z M108 295 C116 402 141 446 197 446 C229 446 253 429 266 396 C275 373 278 347 280 295 L108 295 Z M131 673 C105 673 83 651 83 624 C83 597 105 575 132 575 C158 575 181 597 181 623 C181 651 159 673 131 673 L131 673 Z M266 673 C240 673 218 651 218 624 C218 597 240 575 267 575 C293 575 316 597 316 623 C316 651 294 673 266 673 L266 673 Z " />
<glyph glyph-name="igrave" unicode="&#xec;" horiz-adv-x="187" d="M59 0 L128 0 L128 493 L59 493 L59 0 Z M-21 654 L123 550 L150 582 L24 710 L-21 654 Z " />
<glyph glyph-name="iacute" unicode="&#xed;" horiz-adv-x="187" d="M59 0 L128 0 L128 493 L59 493 L59 0 Z M209 654 L164 710 L38 582 L65 550 L209 654 Z " />
<glyph glyph-name="icircumflex" unicode="&#xee;" horiz-adv-x="187" d="M59 0 L128 0 L128 493 L59 493 L59 0 Z M95 630 L160 570 L211 582 L95 699 L-23 582 L29 570 L95 630 Z " />
<glyph glyph-name="idieresis" unicode="&#xef;" horiz-adv-x="187" d="M59 0 L128 0 L128 493 L59 493 L59 0 Z M31 671 C6 671 -15 650 -15 624 C-15 598 6 577 32 577 C57 577 79 598 79 623 C79 650 58 671 31 671 L31 671 Z M153 671 C128 671 107 650 107 624 C107 598 128 577 154 577 C179 577 201 598 201 623 C201 650 180 671 153 671 L153 671 Z " />
<glyph glyph-name="eth" unicode="&#xf0;" horiz-adv-x="392" d="M223 653 L193 699 L188 706 L139 678 L143 671 L165 630 L170 622 L113 589 L135 549 L191 581 C212 539 220 523 232 493 C218 502 205 506 187 506 C153 506 115 487 92 458 C54 412 34 339 34 244 C34 74 88 -12 195 -12 C304 -12 358 74 358 244 C358 368 327 469 246 614 L302 646 L280 686 L223 653 Z M197 447 C257 447 282 385 282 236 C282 106 255 47 196 47 C136 47 110 106 110 243 C110 385 136 447 197 447 L197 447 Z " />
<glyph glyph-name="ntilde" unicode="&#xf1;" horiz-adv-x="392" d="M59 0 L128 0 L128 284 C128 388 155 441 209 441 C256 441 271 411 271 313 L271 0 L340 0 L340 313 C340 396 337 427 325 451 C309 485 275 505 232 505 C181 505 144 476 123 418 L123 493 L59 493 L59 0 Z M289 672 C275 645 265 635 251 635 C239 635 230 640 201 662 C183 676 170 682 156 682 C126 682 98 656 77 605 L113 580 C129 612 137 620 151 620 C164 620 173 615 194 596 C213 580 227 573 244 573 C274 573 300 597 324 647 L289 672 Z " />
<glyph glyph-name="ograve" unicode="&#xf2;" horiz-adv-x="392" d="M198 505 C93 505 34 410 34 242 C34 74 89 -12 195 -12 C303 -12 358 74 358 242 C358 409 300 505 198 505 L198 505 Z M197 446 C257 446 282 384 282 235 C282 106 255 47 196 47 C136 47 110 106 110 243 C110 384 136 446 197 446 L197 446 Z M78 654 L232 550 L259 582 L123 710 L78 654 Z " />
<glyph glyph-name="oacute" unicode="&#xf3;" horiz-adv-x="392" d="M198 505 C93 505 34 410 34 242 C34 74 89 -12 195 -12 C303 -12 358 74 358 242 C358 409 300 505 198 505 L198 505 Z M197 446 C257 446 282 384 282 235 C282 106 255 47 196 47 C136 47 110 106 110 243 C110 384 136 446 197 446 L197 446 Z M321 654 L276 710 L140 582 L168 550 L321 654 Z " />
<glyph glyph-name="ocircumflex" unicode="&#xf4;" horiz-adv-x="392" d="M198 505 C93 505 34 410 34 242 C34 74 89 -12 195 -12 C303 -12 358 74 358 242 C358 409 300 505 198 505 L198 505 Z M197 446 C257 446 282 384 282 235 C282 106 255 47 196 47 C136 47 110 106 110 243 C110 384 136 446 197 446 L197 446 Z M198 630 L272 570 L328 582 L198 699 L64 582 L122 570 L198 630 Z " />
<glyph glyph-name="otilde" unicode="&#xf5;" horiz-adv-x="392" d="M198 505 C93 505 34 410 34 242 C34 74 89 -12 195 -12 C303 -12 358 74 358 242 C358 409 300 505 198 505 L198 505 Z M197 446 C257 446 282 384 282 235 C282 106 255 47 196 47 C136 47 110 106 110 243 C110 384 136 446 197 446 L197 446 Z M292 672 C277 645 267 635 254 635 C241 635 232 640 204 662 C186 676 173 682 159 682 C128 682 101 656 79 605 L115 580 C131 612 139 620 154 620 C167 620 175 615 196 596 C215 580 229 573 246 573 C277 573 301 596 326 647 L292 672 Z " />
<glyph glyph-name="odieresis" unicode="&#xf6;" horiz-adv-x="392" d="M198 505 C93 505 34 410 34 242 C34 74 89 -12 195 -12 C303 -12 358 74 358 242 C358 409 300 505 198 505 L198 505 Z M197 446 C257 446 282 384 282 235 C282 106 255 47 196 47 C136 47 110 106 110 243 C110 384 136 446 197 446 L197 446 Z M127 673 C101 673 79 651 79 624 C79 597 101 575 128 575 C154 575 177 597 177 623 C177 651 155 673 127 673 L127 673 Z M263 673 C237 673 215 651 215 624 C215 597 237 575 264 575 C290 575 313 597 313 623 C313 651 291 673 263 673 L263 673 Z " />
<glyph glyph-name="divide" unicode="&#xf7;" horiz-adv-x="426" d="M389 303 L389 364 L37 364 L37 303 L389 303 Z M254 418 L254 511 L171 511 L171 418 L254 418 Z M254 156 L254 249 L171 249 L171 156 L254 156 Z " />
<glyph glyph-name="oslash" unicode="&#xf8;" horiz-adv-x="392" d="M272 484 C249 499 224 506 195 506 C94 506 34 409 34 242 C34 150 50 82 83 39 L49 -48 L100 -48 L122 5 C150 -9 167 -13 195 -13 C303 -13 358 73 358 243 C358 331 343 394 309 447 L346 537 L294 537 L272 484 Z M117 110 C107 145 103 184 103 243 C103 385 132 449 196 449 C219 449 234 443 246 431 L117 110 Z M275 376 C286 337 289 308 289 248 C289 102 262 44 194 44 C174 44 161 48 149 59 L275 376 Z " />
<glyph glyph-name="ugrave" unicode="&#xf9;" horiz-adv-x="392" d="M333 493 L264 493 L264 176 C264 96 235 52 183 52 C160 52 141 62 132 79 C123 95 121 112 121 158 L121 493 L52 493 L52 162 C52 88 55 61 65 40 C82 7 117 -12 162 -12 C213 -12 246 10 269 59 L269 0 L333 0 L333 493 Z M73 654 L227 550 L254 582 L118 710 L73 654 Z " />
<glyph glyph-name="uacute" unicode="&#xfa;" horiz-adv-x="392" d="M318 654 L273 710 L137 582 L164 550 L318 654 Z M333 493 L264 493 L264 176 C264 96 235 52 183 52 C160 52 141 62 132 79 C123 95 121 112 121 158 L121 493 L52 493 L52 162 C52 88 55 61 65 40 C82 7 117 -12 162 -12 C213 -12 246 10 269 59 L269 0 L333 0 L333 493 Z " />
<glyph glyph-name="ucircumflex" unicode="&#xfb;" horiz-adv-x="392" d="M333 493 L264 493 L264 176 C264 96 235 52 183 52 C160 52 141 62 132 79 C123 95 121 112 121 158 L121 493 L52 493 L52 162 C52 88 55 61 65 40 C82 7 117 -12 162 -12 C213 -12 246 10 269 59 L269 0 L333 0 L333 493 Z M195 630 L268 570 L324 582 L195 699 L60 582 L119 570 L195 630 Z " />
<glyph glyph-name="udieresis" unicode="&#xfc;" horiz-adv-x="392" d="M124 673 C98 673 76 651 76 624 C76 597 98 575 125 575 C151 575 174 597 174 623 C174 651 152 673 124 673 L124 673 Z M259 673 C233 673 211 651 211 624 C211 597 233 575 260 575 C286 575 309 597 309 623 C309 651 287 673 259 673 L259 673 Z M333 493 L264 493 L264 176 C264 96 235 52 183 52 C160 52 141 62 132 79 C123 95 121 112 121 158 L121 493 L52 493 L52 162 C52 88 55 61 65 40 C82 7 117 -12 162 -12 C213 -12 246 10 269 59 L269 0 L333 0 L333 493 Z " />
<glyph glyph-name="yacute" unicode="&#xfd;" horiz-adv-x="290" d="M271 654 L226 710 L89 582 L117 550 L271 654 Z M-4 493 L114 50 L96 -24 C77 -101 67 -117 38 -117 C28 -117 20 -116 3 -111 L3 -172 C21 -177 30 -178 43 -178 C98 -178 129 -141 154 -47 L294 493 L232 493 L148 152 L67 493 L-4 493 Z " />
<glyph glyph-name="thorn" unicode="&#xfe;" horiz-adv-x="409" d="M59 -167 L128 -167 L128 50 C152 8 180 -9 226 -9 C323 -9 375 82 375 249 C375 411 323 502 230 502 C178 502 146 476 128 420 L128 667 L59 667 L59 -167 Z M128 286 C128 388 159 443 215 443 C274 443 299 383 299 244 C299 103 275 50 212 50 C183 50 162 63 145 92 C134 112 128 147 128 196 L128 286 Z " />
<glyph glyph-name="ydieresis" unicode="&#xff;" horiz-adv-x="290" d="M-4 493 L114 50 L96 -24 C77 -101 67 -117 38 -117 C28 -117 20 -116 3 -111 L3 -172 C21 -177 30 -178 43 -178 C98 -178 129 -141 154 -47 L294 493 L232 493 L148 152 L67 493 L-4 493 Z M76 673 C50 673 28 651 28 624 C28 597 50 575 77 575 C103 575 126 597 126 623 C126 651 104 673 76 673 L76 673 Z M212 673 C186 673 164 651 164 624 C164 597 186 575 213 575 C239 575 262 597 262 623 C262 651 240 673 212 673 L212 673 Z " />
<glyph glyph-name="Amacron" unicode="&#x100;" horiz-adv-x="375" d="M148 667 L-4 0 L67 0 L108 193 L258 193 L300 0 L378 0 L228 667 L148 667 Z M245 255 L122 255 L185 587 L245 255 Z M70 811 L70 754 L304 754 L304 811 L70 811 Z " />
<glyph glyph-name="amacron" unicode="&#x101;" horiz-adv-x="392" d="M346 0 C341 30 339 56 339 114 L339 314 C339 403 333 437 312 462 C288 490 250 505 200 505 C115 505 67 464 46 372 L110 355 C124 426 144 448 194 448 C228 448 250 435 259 408 C267 389 269 365 268 304 C238 305 235 305 224 305 C104 305 34 242 34 134 C34 43 83 -12 163 -12 C219 -12 249 10 275 72 C275 37 277 23 284 0 L346 0 Z M268 250 C268 190 266 158 260 133 C246 77 215 47 172 47 C131 47 108 78 108 133 C108 216 146 250 238 250 L268 250 Z M93 651 L93 596 L318 596 L318 651 L93 651 Z " />
<glyph glyph-name="Abreve" unicode="&#x102;" horiz-adv-x="375" d="M148 667 L-4 0 L67 0 L108 193 L258 193 L300 0 L378 0 L228 667 L148 667 Z M245 255 L122 255 L185 587 L245 255 Z M65 839 C69 768 111 731 188 731 C264 731 306 769 309 839 L255 839 C249 805 227 788 187 788 C147 788 124 805 119 839 L65 839 Z " />
<glyph glyph-name="abreve" unicode="&#x103;" horiz-adv-x="392" d="M346 0 C341 30 339 56 339 114 L339 314 C339 403 333 437 312 462 C288 490 250 505 200 505 C115 505 67 464 46 372 L110 355 C124 426 144 448 194 448 C228 448 250 435 259 408 C267 389 269 365 268 304 C238 305 235 305 224 305 C104 305 34 242 34 134 C34 43 83 -12 163 -12 C219 -12 249 10 275 72 C275 37 277 23 284 0 L346 0 Z M268 250 C268 190 266 158 260 133 C246 77 215 47 172 47 C131 47 108 78 108 133 C108 216 146 250 238 250 L268 250 Z M89 684 C92 614 133 577 206 577 C279 577 320 615 323 684 L271 684 C266 649 244 632 206 632 C167 632 146 649 141 684 L89 684 Z " />
<glyph glyph-name="Aogonek" unicode="&#x104;" horiz-adv-x="375" d="M228 667 L148 667 L-4 0 L67 0 L108 193 L258 193 L300 0 L337 0 C324 -6 319 -9 314 -12 C288 -29 272 -59 272 -90 C272 -140 312 -173 371 -173 C398 -173 416 -169 440 -158 L431 -123 C420 -127 406 -129 392 -129 C356 -129 334 -110 334 -79 C334 -49 348 -24 378 0 L228 667 Z M245 255 L122 255 L185 587 L245 255 Z " />
<glyph glyph-name="aogonek" unicode="&#x105;" horiz-adv-x="392" d="M339 314 C339 403 333 437 312 462 C288 490 250 505 200 505 C115 505 67 464 46 372 L110 355 C124 426 144 448 194 448 C228 448 250 435 259 408 C267 389 269 365 268 304 C238 305 235 305 224 305 C104 305 34 242 34 134 C34 43 83 -12 163 -12 C219 -12 249 10 275 72 C275 37 277 23 284 0 L316 0 C271 -17 247 -47 247 -86 C247 -132 284 -163 340 -163 C365 -163 383 -159 404 -149 L395 -117 C385 -121 373 -123 360 -123 C325 -123 305 -105 305 -76 C305 -48 315 -31 346 0 C341 30 339 56 339 114 L339 314 Z M268 250 C268 190 266 158 260 133 C246 77 215 47 172 47 C131 47 108 78 108 133 C108 216 146 250 238 250 L268 250 Z " />
<glyph glyph-name="Cacute" unicode="&#x106;" horiz-adv-x="409" d="M402 494 C381 623 330 679 234 679 C186 679 147 662 120 629 C68 567 41 461 41 322 C41 183 67 86 119 31 C144 4 187 -12 233 -12 C327 -12 376 41 402 170 L332 183 C314 84 290 53 235 53 C158 53 121 142 121 326 C121 518 159 614 237 614 C291 614 316 579 332 479 L402 494 Z M371 793 L339 861 L170 766 L190 727 L371 793 Z " />
<glyph glyph-name="cacute" unicode="&#x107;" horiz-adv-x="358" d="M338 346 C326 451 276 505 193 505 C86 505 34 417 34 237 C34 67 85 -12 193 -12 C279 -12 320 35 338 151 L273 159 C263 81 239 47 192 47 C131 47 110 98 110 247 C110 392 133 446 193 446 C239 446 262 413 273 333 L338 346 Z M317 654 L272 710 L136 582 L163 550 L317 654 Z " />
<glyph glyph-name="Ccircumflex" unicode="&#x108;" horiz-adv-x="409" d="M402 494 C381 623 330 679 234 679 C186 679 147 662 120 629 C68 567 41 461 41 322 C41 183 67 86 119 31 C144 4 187 -12 233 -12 C327 -12 376 41 402 170 L332 183 C314 84 290 53 235 53 C158 53 121 142 121 326 C121 518 159 614 237 614 C291 614 316 579 332 479 L402 494 Z M236 787 L312 727 L370 739 L236 861 L96 739 L157 727 L236 787 Z " />
<glyph glyph-name="ccircumflex" unicode="&#x109;" horiz-adv-x="358" d="M338 346 C326 451 276 505 193 505 C86 505 34 417 34 237 C34 67 85 -12 193 -12 C279 -12 320 35 338 151 L273 159 C263 81 239 47 192 47 C131 47 110 98 110 247 C110 392 133 446 193 446 C239 446 262 413 273 333 L338 346 Z M192 630 L265 570 L321 582 L192 699 L57 582 L115 570 L192 630 Z " />
<glyph glyph-name="Cdotaccent" unicode="&#x10a;" horiz-adv-x="409" d="M402 494 C381 623 330 679 234 679 C186 679 147 662 120 629 C68 567 41 461 41 322 C41 183 67 86 119 31 C144 4 187 -12 233 -12 C327 -12 376 41 402 170 L332 183 C314 84 290 53 235 53 C158 53 121 142 121 326 C121 518 159 614 237 614 C291 614 316 579 332 479 L402 494 Z M235 835 C205 835 181 812 181 782 C181 752 205 729 234 729 C263 729 287 753 287 782 C287 811 263 835 235 835 L235 835 Z " />
<glyph glyph-name="cdotaccent" unicode="&#x10b;" horiz-adv-x="358" d="M338 346 C326 451 276 505 193 505 C86 505 34 417 34 237 C34 67 85 -12 193 -12 C279 -12 320 35 338 151 L273 159 C263 81 239 47 192 47 C131 47 110 98 110 247 C110 392 133 446 193 446 C239 446 262 413 273 333 L338 346 Z M194 675 C165 675 142 653 142 624 C142 596 165 573 193 573 C221 573 244 596 244 624 C244 652 221 675 194 675 L194 675 Z " />
<glyph glyph-name="Ccaron" unicode="&#x10c;" horiz-adv-x="409" d="M402 494 C381 623 330 679 234 679 C186 679 147 662 120 629 C68 567 41 461 41 322 C41 183 67 86 119 31 C144 4 187 -12 233 -12 C327 -12 376 41 402 170 L332 183 C314 84 290 53 235 53 C158 53 121 142 121 326 C121 518 159 614 237 614 C291 614 316 579 332 479 L402 494 Z M235 795 L156 855 L95 843 L235 721 L370 843 L312 855 L235 795 Z " />
<glyph glyph-name="ccaron" unicode="&#x10d;" horiz-adv-x="358" d="M338 346 C326 451 276 505 193 505 C86 505 34 417 34 237 C34 67 85 -12 193 -12 C279 -12 320 35 338 151 L273 159 C263 81 239 47 192 47 C131 47 110 98 110 247 C110 392 133 446 193 446 C239 446 262 413 273 333 L338 346 Z M195 645 L119 705 L61 694 L195 576 L325 694 L269 705 L195 645 Z " />
<glyph glyph-name="Dcaron" unicode="&#x10e;" horiz-adv-x="477" d="M64 0 L185 0 C260 0 303 14 343 52 C399 106 436 221 436 340 C436 455 401 565 349 614 C308 652 258 667 174 667 L64 667 L64 0 Z M140 65 L140 602 L187 602 C302 602 356 517 356 337 C356 248 341 177 313 130 C285 84 250 65 192 65 L140 65 Z M214 795 L134 855 L74 843 L214 721 L348 843 L290 855 L214 795 Z " />
<glyph glyph-name="dcaron" unicode="&#x10f;" horiz-adv-x="476" d="M350 667 L281 667 L281 437 C262 482 233 502 188 502 C92 502 35 403 35 237 C35 77 86 -9 182 -9 C235 -9 269 14 289 64 L289 0 L350 0 L350 667 Z M281 181 C281 133 276 107 263 85 C247 60 226 47 199 47 C138 47 111 109 111 251 C111 384 138 443 197 443 C248 443 281 393 281 314 L281 181 Z M410 667 L389 487 L426 487 L483 667 L410 667 Z " />
<glyph glyph-name="Dcroat" unicode="&#x110;" horiz-adv-x="477" d="M64 323 L64 0 L185 0 C260 0 303 14 343 52 C399 105 436 220 436 339 C436 454 401 565 349 614 C308 652 258 667 174 667 L64 667 L64 378 L10 378 L10 323 L64 323 Z M140 323 L243 323 L243 378 L140 378 L140 602 L187 602 C302 602 356 517 356 336 C356 248 341 177 313 130 C285 84 250 65 192 65 L140 65 L140 323 Z " />
<glyph glyph-name="dcroat" unicode="&#x111;" horiz-adv-x="409" d="M350 604 L350 667 L281 667 L281 604 L182 604 L182 556 L281 556 L281 437 C262 482 233 502 188 502 C91 502 34 403 34 237 C34 77 85 -9 181 -9 C235 -9 266 12 290 64 L290 0 L350 0 L350 556 L403 556 L403 604 L350 604 Z M281 181 C281 133 276 106 263 85 C247 60 225 47 198 47 C137 47 110 109 110 251 C110 384 137 443 196 443 C248 443 281 393 281 314 L281 181 Z " />
<glyph glyph-name="Emacron" unicode="&#x112;" horiz-adv-x="375" d="M140 602 L369 602 L369 667 L64 667 L64 0 L375 0 L375 65 L140 65 L140 314 L317 314 L317 379 L140 379 L140 602 Z M100 811 L100 754 L334 754 L334 811 L100 811 Z " />
<glyph glyph-name="emacron" unicode="&#x113;" horiz-adv-x="375" d="M356 238 C356 315 350 359 337 397 C312 468 265 505 198 505 C94 505 34 407 34 239 C34 71 88 -12 198 -12 C283 -12 326 28 351 130 L290 145 C273 75 249 47 205 47 C138 47 107 107 107 238 L356 238 Z M108 295 C116 402 141 446 197 446 C229 446 253 429 266 396 C275 373 278 347 280 295 L108 295 Z M87 651 L87 596 L312 596 L312 651 L87 651 Z " />
<glyph glyph-name="Ebreve" unicode="&#x114;" horiz-adv-x="375" d="M140 602 L369 602 L369 667 L64 667 L64 0 L375 0 L375 65 L140 65 L140 314 L317 314 L317 379 L140 379 L140 602 Z M95 839 C99 768 141 731 217 731 C293 731 336 769 339 839 L285 839 C279 805 257 788 217 788 C177 788 154 805 149 839 L95 839 Z " />
<glyph glyph-name="ebreve" unicode="&#x115;" horiz-adv-x="375" d="M356 238 C356 315 350 359 337 397 C312 468 265 505 198 505 C94 505 34 407 34 239 C34 71 88 -12 198 -12 C283 -12 326 28 351 130 L290 145 C273 75 249 47 205 47 C138 47 107 107 107 238 L356 238 Z M108 295 C116 402 141 446 197 446 C229 446 253 429 266 396 C275 373 278 347 280 295 L108 295 Z M82 684 C85 614 126 577 200 577 C272 577 313 615 316 684 L264 684 C259 649 238 632 199 632 C160 632 139 649 134 684 L82 684 Z " />
<glyph glyph-name="Edotaccent" unicode="&#x116;" horiz-adv-x="375" d="M140 602 L369 602 L369 667 L64 667 L64 0 L375 0 L375 65 L140 65 L140 314 L317 314 L317 379 L140 379 L140 602 Z M218 835 C188 835 164 812 164 782 C164 752 188 729 217 729 C246 729 270 753 270 782 C270 811 246 835 218 835 L218 835 Z " />
<glyph glyph-name="edotaccent" unicode="&#x117;" horiz-adv-x="375" d="M356 238 C356 315 350 359 337 397 C312 468 265 505 198 505 C94 505 34 407 34 239 C34 71 88 -12 198 -12 C283 -12 326 28 351 130 L290 145 C273 75 249 47 205 47 C138 47 107 107 107 238 L356 238 Z M108 295 C116 402 141 446 197 446 C229 446 253 429 266 396 C275 373 278 347 280 295 L108 295 Z M201 675 C172 675 149 653 149 624 C149 596 172 573 200 573 C228 573 251 596 251 624 C251 652 228 675 201 675 L201 675 Z " />
<glyph glyph-name="Eogonek" unicode="&#x118;" horiz-adv-x="375" d="M375 65 L140 65 L140 314 L317 314 L317 379 L140 379 L140 602 L369 602 L369 667 L64 667 L64 0 L339 0 C293 -17 269 -48 269 -90 C269 -140 308 -173 368 -173 C395 -173 413 -169 437 -158 L428 -123 C417 -127 403 -129 389 -129 C353 -129 331 -110 331 -79 C331 -49 346 -23 375 0 L375 65 Z " />
<glyph glyph-name="eogonek" unicode="&#x119;" horiz-adv-x="375" d="M347 -114 C336 -117 325 -119 310 -119 C275 -119 256 -101 256 -69 C256 -42 268 -17 298 19 C325 51 339 80 351 130 L290 145 C273 75 249 47 205 47 C138 47 107 107 107 238 L356 238 C356 315 350 359 337 397 C312 468 265 505 198 505 C94 505 34 407 34 239 C34 71 88 -12 197 -12 C215 -12 226 -11 244 -7 C213 -27 198 -52 198 -82 C198 -128 235 -159 291 -159 C316 -159 334 -155 356 -145 L347 -114 Z M108 295 C116 402 141 446 197 446 C229 446 253 429 266 396 C275 373 278 347 280 295 L108 295 Z " />
<glyph glyph-name="Ecaron" unicode="&#x11a;" horiz-adv-x="375" d="M140 602 L369 602 L369 667 L64 667 L64 0 L375 0 L375 65 L140 65 L140 314 L317 314 L317 379 L140 379 L140 602 Z M220 795 L140 855 L80 843 L220 721 L354 843 L296 855 L220 795 Z " />
<glyph glyph-name="ecaron" unicode="&#x11b;" horiz-adv-x="375" d="M356 238 C356 315 350 359 337 397 C312 468 265 505 198 505 C94 505 34 407 34 239 C34 71 88 -12 198 -12 C283 -12 326 28 351 130 L290 145 C273 75 249 47 205 47 C138 47 107 107 107 238 L356 238 Z M108 295 C116 402 141 446 197 446 C229 446 253 429 266 396 C275 373 278 347 280 295 L108 295 Z M202 639 L126 698 L68 687 L202 569 L332 687 L276 698 L202 639 Z " />
<glyph glyph-name="Gcircumflex" unicode="&#x11c;" horiz-adv-x="460" d="M426 330 L246 330 L246 265 L357 265 C357 200 354 170 347 143 C330 83 292 48 243 48 C161 48 122 134 122 315 C122 428 131 499 151 545 C170 590 203 614 246 614 C279 614 306 599 323 571 C336 551 344 528 354 481 L419 504 C397 626 346 679 249 679 C192 679 142 655 109 614 C63 555 42 464 42 328 C42 195 59 110 98 53 C126 13 177 -12 233 -12 C295 -12 333 13 364 73 L378 -9 L426 -9 L426 330 Z M248 787 L324 727 L383 739 L248 861 L108 739 L169 727 L248 787 Z " />
<glyph glyph-name="gcircumflex" unicode="&#x11d;" horiz-adv-x="358" d="M358 554 C349 555 339 556 335 556 C287 556 262 534 254 485 C231 499 212 505 186 505 C103 505 47 437 47 337 C47 281 62 241 97 205 C57 185 38 158 38 120 C38 85 56 56 89 37 C44 12 24 -20 24 -65 C24 -142 87 -190 189 -190 C302 -190 368 -137 368 -47 C368 -13 358 14 339 34 C318 57 290 68 239 71 C158 77 158 77 134 85 C112 93 102 106 102 128 C102 150 115 166 137 174 C155 168 167 166 184 166 C271 166 328 231 328 330 C328 376 316 417 294 448 C298 482 311 494 344 494 L358 493 L358 554 Z M189 446 C233 446 255 409 255 337 C255 259 234 225 187 225 C143 225 118 264 118 333 C118 408 142 446 189 446 L189 446 Z M129 17 C162 15 165 15 185 13 C235 10 248 8 266 0 C287 -9 298 -27 298 -52 C298 -102 260 -131 196 -131 C131 -131 94 -102 94 -49 C94 -19 104 0 129 17 L129 17 Z M189 634 L263 574 L319 585 L189 703 L55 585 L113 574 L189 634 Z " />
<glyph glyph-name="Gbreve" unicode="&#x11e;" horiz-adv-x="460" d="M426 330 L246 330 L246 265 L357 265 C357 200 354 170 347 143 C330 83 292 48 243 48 C161 48 122 134 122 315 C122 428 131 499 151 545 C170 590 203 614 246 614 C279 614 306 599 323 571 C336 551 344 528 354 481 L419 504 C397 626 346 679 249 679 C192 679 142 655 109 614 C63 555 42 464 42 328 C42 195 59 110 98 53 C126 13 177 -12 233 -12 C295 -12 333 13 364 73 L378 -9 L426 -9 L426 330 Z M124 839 C127 768 169 731 246 731 C322 731 365 769 367 839 L313 839 C308 805 286 788 246 788 C205 788 183 805 178 839 L124 839 Z " />
<glyph glyph-name="gbreve" unicode="&#x11f;" horiz-adv-x="358" d="M358 568 C349 569 340 569 335 569 C285 569 258 542 254 485 C231 499 212 505 186 505 C103 505 47 437 47 337 C47 281 62 241 97 205 C57 185 38 158 38 120 C38 85 56 56 89 37 C44 12 24 -20 24 -65 C24 -142 87 -190 189 -190 C302 -190 368 -137 368 -47 C368 -13 358 14 339 34 C318 57 290 68 239 71 C158 77 158 77 134 85 C112 93 102 106 102 128 C102 150 115 166 137 174 C155 168 167 166 184 166 C271 166 328 231 328 330 C328 376 316 417 294 448 C297 492 309 507 343 507 C345 507 352 507 358 506 L358 568 Z M189 446 C233 446 255 409 255 337 C255 259 234 225 187 225 C143 225 118 264 118 333 C118 408 142 446 189 446 L189 446 Z M129 17 C162 15 165 15 185 13 C235 10 248 8 266 0 C287 -9 298 -27 298 -52 C298 -102 260 -131 196 -131 C131 -131 94 -102 94 -49 C94 -19 104 0 129 17 L129 17 Z M69 688 C72 618 113 580 187 580 C259 580 300 618 303 688 L251 688 C246 652 225 635 186 635 C147 635 126 652 121 688 L69 688 Z " />
<glyph glyph-name="Gdotaccent" unicode="&#x120;" horiz-adv-x="460" d="M426 330 L246 330 L246 265 L357 265 C357 200 354 170 347 143 C330 83 292 48 243 48 C161 48 122 134 122 315 C122 428 131 499 151 545 C170 590 203 614 246 614 C279 614 306 599 323 571 C336 551 344 528 354 481 L419 504 C397 626 346 679 249 679 C192 679 142 655 109 614 C63 555 42 464 42 328 C42 195 59 110 98 53 C126 13 177 -12 233 -12 C295 -12 333 13 364 73 L378 -9 L426 -9 L426 330 Z M248 835 C218 835 194 812 194 782 C194 752 218 729 247 729 C276 729 300 753 300 782 C300 811 276 835 248 835 L248 835 Z " />
<glyph glyph-name="gdotaccent" unicode="&#x121;" horiz-adv-x="358" d="M358 568 C349 569 340 569 335 569 C285 569 258 542 254 485 C231 499 212 505 186 505 C103 505 47 437 47 337 C47 281 62 241 97 205 C57 185 38 158 38 120 C38 85 56 56 89 37 C44 12 24 -20 24 -65 C24 -142 87 -190 189 -190 C302 -190 368 -137 368 -47 C368 -13 358 14 339 34 C318 57 290 68 239 71 C158 77 158 77 134 85 C112 93 102 106 102 128 C102 150 115 166 137 174 C155 168 167 166 184 166 C271 166 328 231 328 330 C328 376 316 417 294 448 C297 492 309 507 343 507 C345 507 352 507 358 506 L358 568 Z M189 446 C233 446 255 409 255 337 C255 259 234 225 187 225 C143 225 118 264 118 333 C118 408 142 446 189 446 L189 446 Z M129 17 C162 15 165 15 185 13 C235 10 248 8 266 0 C287 -9 298 -27 298 -52 C298 -102 260 -131 196 -131 C131 -131 94 -102 94 -49 C94 -19 104 0 129 17 L129 17 Z M188 678 C159 678 136 656 136 627 C136 599 159 576 187 576 C215 576 238 599 238 627 C238 655 215 678 188 678 L188 678 Z " />
<glyph glyph-name="Gcommaaccent" unicode="&#x122;" horiz-adv-x="460" d="M426 330 L246 330 L246 265 L357 265 C357 200 354 170 347 143 C330 83 292 48 243 48 C161 48 122 134 122 315 C122 428 131 499 151 545 C170 590 203 614 246 614 C279 614 306 599 323 571 C336 551 344 528 354 481 L419 504 C397 626 346 679 249 679 C192 679 142 655 109 614 C63 555 42 464 42 328 C42 195 59 110 98 53 C126 13 177 -12 233 -12 C295 -12 333 13 364 73 L378 -9 L426 -9 L426 330 Z M197 -57 L176 -239 L215 -239 L273 -57 L197 -57 Z " />
<glyph glyph-name="gcommaaccent" unicode="&#x123;" horiz-adv-x="358" d="M358 568 C349 569 340 569 335 569 C285 569 258 542 254 485 C231 499 212 505 186 505 C103 505 47 437 47 337 C47 281 62 241 97 205 C57 185 38 158 38 120 C38 85 56 56 89 37 C44 12 24 -20 24 -65 C24 -142 87 -190 189 -190 C302 -190 368 -137 368 -47 C368 -13 358 14 339 34 C318 57 290 68 239 71 C158 77 158 77 134 85 C112 93 102 106 102 128 C102 150 115 166 137 174 C155 168 167 166 184 166 C271 166 328 231 328 330 C328 376 316 417 294 448 C297 492 309 507 343 507 C345 507 352 507 358 506 L358 568 Z M189 446 C233 446 255 409 255 337 C255 259 234 225 187 225 C143 225 118 264 118 333 C118 408 142 446 189 446 L189 446 Z M129 17 C162 15 165 15 185 13 C235 10 248 8 266 0 C287 -9 298 -27 298 -52 C298 -102 260 -131 196 -131 C131 -131 94 -102 94 -49 C94 -19 104 0 129 17 L129 17 Z M222 575 L242 750 L206 750 L149 575 L222 575 Z " />
<glyph glyph-name="Hcircumflex" unicode="&#x124;" horiz-adv-x="477" d="M140 384 L140 667 L64 667 L64 0 L140 0 L140 319 L337 319 L337 0 L413 0 L413 667 L337 667 L337 384 L140 384 Z M241 787 L317 727 L376 739 L241 861 L101 739 L162 727 L241 787 Z " />
<glyph glyph-name="hcircumflex" unicode="&#x125;" horiz-adv-x="392" d="M59 0 L129 0 L129 251 C129 338 131 360 142 388 C155 423 177 441 207 441 C254 441 270 408 270 308 L270 0 L339 0 L339 308 C339 394 335 425 322 449 C304 485 269 505 228 505 C178 505 149 482 128 427 L128 667 L59 667 L59 0 Z M97 787 L173 727 L231 739 L97 861 L-43 739 L18 727 L97 787 Z " />
<glyph glyph-name="Hbar" unicode="&#x126;" horiz-adv-x="477" d="M336 566 L140 566 L140 667 L64 667 L64 566 L16 566 L16 511 L64 511 L64 0 L140 0 L140 319 L336 319 L336 0 L412 0 L412 511 L464 511 L464 566 L412 566 L412 667 L336 667 L336 566 Z M336 511 L336 384 L140 384 L140 511 L336 511 Z " />
<glyph glyph-name="hbar" unicode="&#x127;" horiz-adv-x="392" d="M59 550 L59 0 L129 0 L129 251 C129 338 131 360 142 388 C155 423 177 441 207 441 C255 441 271 408 271 308 L271 0 L340 0 L340 308 C340 394 336 425 323 449 C305 485 271 505 229 505 C178 505 149 483 128 427 L128 550 L229 550 L229 605 L128 605 L128 667 L59 667 L59 605 L4 605 L4 550 L59 550 Z " />
<glyph glyph-name="Itilde" unicode="&#x128;" horiz-adv-x="204" d="M64 0 L140 0 L140 667 L64 667 L64 0 Z M197 829 C181 800 172 791 158 791 C145 791 135 796 106 819 C87 833 74 839 59 839 C27 839 -1 813 -24 760 L14 733 C30 766 39 775 54 775 C68 775 76 770 98 750 C117 733 132 726 150 726 C182 726 207 750 233 803 L197 829 Z " />
<glyph glyph-name="itilde" unicode="&#x129;" horiz-adv-x="187" d="M59 0 L128 0 L128 493 L59 493 L59 0 Z M204 672 C189 645 179 635 166 635 C153 635 144 640 116 662 C98 676 85 682 71 682 C40 682 13 656 -9 605 L27 580 C43 612 51 620 66 620 C79 620 87 615 108 596 C127 580 141 573 158 573 C189 573 213 596 238 647 L204 672 Z " />
<glyph glyph-name="Imacron" unicode="&#x12a;" horiz-adv-x="204" d="M64 0 L140 0 L140 667 L64 667 L64 0 Z M5 811 L5 754 L199 754 L199 811 L5 811 Z " />
<glyph glyph-name="imacron" unicode="&#x12b;" horiz-adv-x="187" d="M59 0 L128 0 L128 493 L59 493 L59 0 Z M1 651 L1 596 L186 596 L186 651 L1 651 Z " />
<glyph glyph-name="Ibreve" unicode="&#x12c;" horiz-adv-x="204" d="M64 0 L140 0 L140 667 L64 667 L64 0 Z M-14 839 C-11 768 32 731 108 731 C184 731 226 769 229 839 L175 839 C170 805 148 788 108 788 C67 788 45 805 40 839 L-14 839 Z " />
<glyph glyph-name="ibreve" unicode="&#x12d;" horiz-adv-x="187" d="M59 0 L128 0 L128 493 L59 493 L59 0 Z M-12 684 C-9 615 28 577 94 577 C160 577 197 615 199 684 L149 684 C144 648 126 630 94 630 C61 630 43 648 39 684 L-12 684 Z " />
<glyph glyph-name="Iogonek" unicode="&#x12e;" horiz-adv-x="204" d="M140 667 L64 667 L64 0 L101 0 C59 -24 41 -50 41 -88 C41 -138 80 -173 135 -173 C157 -173 175 -169 195 -158 L186 -123 C173 -127 165 -128 155 -128 C122 -128 103 -110 103 -77 C103 -48 114 -25 140 0 L140 667 Z " />
<glyph glyph-name="iogonek" unicode="&#x12f;" horiz-adv-x="187" d="M128 493 L59 493 L59 0 L95 0 C56 -24 38 -51 38 -85 C38 -132 72 -163 122 -163 C143 -163 157 -159 179 -149 L170 -117 C158 -122 151 -123 141 -123 C112 -123 96 -105 96 -73 C96 -48 105 -27 128 0 L128 493 Z M56 667 L56 582 L131 582 L131 667 L56 667 Z " />
<glyph glyph-name="Idotaccent" unicode="&#x130;" horiz-adv-x="204" d="M64 0 L140 0 L140 667 L64 667 L64 0 Z M103 835 C73 835 49 812 49 782 C49 752 73 729 102 729 C131 729 155 753 155 782 C155 811 131 835 103 835 L103 835 Z " />
<glyph glyph-name="dotlessi" unicode="&#x131;" horiz-adv-x="187" d="M59 0 L128 0 L128 493 L59 493 L59 0 Z " />
<glyph glyph-name="IJ" unicode="&#x132;" horiz-adv-x="474" d="M64 0 L140 0 L140 667 L64 667 L64 0 Z M345 667 L345 221 C345 75 335 53 264 53 C242 53 228 54 205 59 L205 0 C227 -8 253 -12 284 -12 C339 -12 381 13 403 58 C418 89 420 104 421 225 L421 667 L345 667 Z " />
<glyph glyph-name="ij" unicode="&#x133;" horiz-adv-x="371" d="M59 0 L128 0 L128 493 L59 493 L59 0 Z M56 667 L56 582 L131 582 L131 667 L56 667 Z M243 493 L243 -14 C243 -98 237 -110 189 -110 L155 -110 L155 -174 L194 -174 C289 -175 313 -143 312 -17 L312 493 L243 493 Z M240 667 L240 582 L315 582 L315 667 L240 667 Z " />
<glyph glyph-name="Jcircumflex" unicode="&#x134;" horiz-adv-x="272" d="M145 667 L145 221 C145 75 135 53 64 53 C42 53 28 54 5 59 L5 0 C27 -8 53 -12 84 -12 C139 -12 181 13 203 58 C218 89 220 104 221 225 L221 667 L145 667 Z M188 787 L264 727 L322 739 L188 861 L48 739 L108 727 L188 787 Z " />
<glyph glyph-name="jcircumflex" unicode="&#x135;" horiz-adv-x="238" d="M59 493 L59 -14 C59 -99 53 -110 5 -110 L-29 -110 L-29 -174 L10 -174 C105 -175 129 -143 128 -17 L128 493 L59 493 Z M94 630 L167 570 L223 582 L94 699 L-41 582 L17 570 L94 630 Z " />
<glyph glyph-name="Kcommaaccent" unicode="&#x136;" horiz-adv-x="426" d="M444 0 L263 424 L408 667 L326 667 L140 332 L140 667 L64 667 L64 0 L140 0 L140 221 L218 350 L358 0 L444 0 Z M208 -57 L187 -239 L226 -239 L284 -57 L208 -57 Z " />
<glyph glyph-name="kcommaaccent" unicode="&#x137;" horiz-adv-x="358" d="M59 0 L128 0 L128 152 L185 241 L271 0 L353 0 L229 311 L338 493 L265 493 L128 251 L128 667 L59 667 L59 0 Z M162 -57 L142 -232 L178 -232 L235 -57 L162 -57 Z " />
<glyph glyph-name="kgreenlandic" unicode="&#x138;" horiz-adv-x="358" d="M225 302 L338 493 L266 493 L128 241 L128 493 L59 493 L59 0 L128 0 L128 139 L185 235 L274 0 L353 0 L225 302 Z " />
<glyph glyph-name="Lacute" unicode="&#x139;" horiz-adv-x="341" d="M64 0 L348 0 L348 65 L140 65 L140 667 L64 667 L64 0 Z M239 793 L208 861 L45 766 L65 727 L239 793 Z " />
<glyph glyph-name="lacute" unicode="&#x13a;" horiz-adv-x="187" d="M59 0 L128 0 L128 667 L59 667 L59 0 Z M221 799 L192 861 L42 766 L62 727 L221 799 Z " />
<glyph glyph-name="Lcommaaccent" unicode="&#x13b;" horiz-adv-x="341" d="M64 0 L348 0 L348 65 L140 65 L140 667 L64 667 L64 0 Z M172 -57 L151 -239 L190 -239 L248 -57 L172 -57 Z " />
<glyph glyph-name="lcommaaccent" unicode="&#x13c;" horiz-adv-x="187" d="M59 0 L128 0 L128 667 L59 667 L59 0 Z M58 -57 L38 -232 L74 -232 L131 -57 L58 -57 Z " />
<glyph glyph-name="Lcaron" unicode="&#x13d;" horiz-adv-x="341" d="M64 0 L348 0 L348 65 L140 65 L140 667 L64 667 L64 0 Z M226 667 L205 485 L244 485 L302 667 L226 667 Z " />
<glyph glyph-name="lcaron" unicode="&#x13e;" horiz-adv-x="255" d="M59 0 L128 0 L128 667 L59 667 L59 0 Z M188 667 L168 487 L204 487 L261 667 L188 667 Z " />
<glyph glyph-name="Ldot" unicode="&#x13f;" horiz-adv-x="341" d="M64 0 L348 0 L348 65 L140 65 L140 667 L64 667 L64 0 Z M231 388 L231 285 L314 285 L314 388 L231 388 Z " />
<glyph glyph-name="ldot" unicode="&#x140;" horiz-adv-x="263" d="M59 0 L128 0 L128 667 L59 667 L59 0 Z M187 385 L187 289 L263 289 L263 385 L187 385 Z " />
<glyph glyph-name="Lslash" unicode="&#x141;" horiz-adv-x="341" d="M64 254 L64 0 L348 0 L348 65 L140 65 L140 306 L246 407 L246 480 L140 378 L140 667 L64 667 L64 326 L10 272 L10 200 L64 254 Z " />
<glyph glyph-name="lslash" unicode="&#x142;" horiz-adv-x="187" d="M59 295 L59 0 L128 0 L128 343 L184 398 L184 463 L128 407 L128 667 L59 667 L59 359 L4 303 L4 239 L59 295 Z " />
<glyph glyph-name="Nacute" unicode="&#x143;" horiz-adv-x="494" d="M64 0 L132 0 L128 571 L356 0 L430 0 L430 667 L362 667 L366 145 L155 667 L64 667 L64 0 Z M386 793 L354 861 L185 766 L205 727 L386 793 Z " />
<glyph glyph-name="nacute" unicode="&#x144;" horiz-adv-x="392" d="M59 0 L128 0 L128 284 C128 388 155 441 209 441 C256 441 271 411 271 313 L271 0 L340 0 L340 313 C340 396 337 427 325 451 C309 485 275 505 232 505 C181 505 144 476 123 418 L123 493 L59 493 L59 0 Z M319 654 L274 710 L138 582 L165 550 L319 654 Z " />
<glyph glyph-name="Ncommaaccent" unicode="&#x145;" horiz-adv-x="494" d="M64 0 L132 0 L128 571 L356 0 L430 0 L430 667 L362 667 L366 145 L155 667 L64 667 L64 0 Z M214 -57 L193 -239 L232 -239 L290 -57 L214 -57 Z " />
<glyph glyph-name="ncommaaccent" unicode="&#x146;" horiz-adv-x="392" d="M59 0 L128 0 L128 284 C128 388 155 441 209 441 C256 441 271 411 271 313 L271 0 L340 0 L340 313 C340 396 337 427 325 451 C309 485 275 505 232 505 C181 505 144 476 123 418 L123 493 L59 493 L59 0 Z M164 -57 L144 -232 L180 -232 L237 -57 L164 -57 Z " />
<glyph glyph-name="Ncaron" unicode="&#x147;" horiz-adv-x="494" d="M64 0 L132 0 L128 571 L356 0 L430 0 L430 667 L362 667 L366 145 L155 667 L64 667 L64 0 Z M249 795 L170 855 L110 843 L249 721 L384 843 L326 855 L249 795 Z " />
<glyph glyph-name="ncaron" unicode="&#x148;" horiz-adv-x="392" d="M59 0 L128 0 L128 284 C128 388 155 441 209 441 C256 441 271 411 271 313 L271 0 L340 0 L340 313 C340 396 337 427 325 451 C309 485 275 505 232 505 C181 505 144 476 123 418 L123 493 L59 493 L59 0 Z M198 639 L122 698 L64 687 L198 569 L328 687 L272 698 L198 639 Z " />
<glyph glyph-name="napostrophe" unicode="&#x149;" horiz-adv-x="392" d="M59 0 L128 0 L128 284 C128 388 155 441 209 441 C256 441 271 411 271 313 L271 0 L340 0 L340 313 C340 396 337 427 325 451 C309 485 275 505 232 505 C181 505 144 476 123 418 L123 493 L59 493 L59 0 Z M-12 667 L-33 485 L6 485 L64 667 L-12 667 Z " />
<glyph glyph-name="Eng" unicode="&#x14a;" horiz-adv-x="392" d="M123 667 L59 667 L59 0 L128 0 L128 404 C128 537 155 603 209 603 C264 603 278 571 278 441 L278 28 C280 -78 274 -91 226 -92 L192 -92 L192 -172 L230 -172 C326 -174 350 -134 349 25 L348 441 C348 529 343 587 333 614 C315 660 282 683 235 683 C180 683 144 648 123 573 L123 667 Z " />
<glyph glyph-name="eng" unicode="&#x14b;" horiz-adv-x="392" d="M139 493 L75 493 L75 0 L144 0 L144 284 C144 388 171 441 224 441 C249 441 267 429 275 408 C284 387 286 368 286 313 L287 -14 C287 -99 281 -110 234 -110 L200 -110 L200 -174 L238 -174 C334 -175 358 -143 357 -17 L356 313 C356 383 351 429 341 451 C324 485 290 505 247 505 C197 505 160 476 139 418 L139 493 Z " />
<glyph glyph-name="Omacron" unicode="&#x14c;" horiz-adv-x="477" d="M242 680 C108 680 41 562 41 327 C41 211 59 123 95 63 C124 15 175 -12 239 -12 C301 -12 346 12 377 64 C417 129 436 219 436 338 C436 563 370 680 242 680 L242 680 Z M240 615 C320 615 357 527 357 334 C357 140 321 53 239 53 C157 53 120 143 120 346 C120 529 158 615 240 615 L240 615 Z M122 811 L122 754 L356 754 L356 811 L122 811 Z " />
<glyph glyph-name="omacron" unicode="&#x14d;" horiz-adv-x="392" d="M198 505 C93 505 34 410 34 242 C34 74 89 -12 195 -12 C303 -12 358 74 358 242 C358 409 300 505 198 505 L198 505 Z M197 446 C257 446 282 384 282 235 C282 106 255 47 196 47 C136 47 110 106 110 243 C110 384 136 446 197 446 L197 446 Z M83 651 L83 596 L308 596 L308 651 L83 651 Z " />
<glyph glyph-name="Obreve" unicode="&#x14e;" horiz-adv-x="477" d="M242 680 C108 680 41 562 41 327 C41 211 59 123 95 63 C124 15 175 -12 239 -12 C301 -12 346 12 377 64 C417 129 436 219 436 338 C436 563 370 680 242 680 L242 680 Z M240 615 C320 615 357 527 357 334 C357 140 321 53 239 53 C157 53 120 143 120 346 C120 529 158 615 240 615 L240 615 Z M119 839 C123 768 165 731 242 731 C318 731 360 769 363 839 L309 839 C303 805 281 788 241 788 C201 788 178 805 173 839 L119 839 Z " />
<glyph glyph-name="obreve" unicode="&#x14f;" horiz-adv-x="392" d="M198 505 C93 505 34 410 34 242 C34 74 89 -12 195 -12 C303 -12 358 74 358 242 C358 409 300 505 198 505 L198 505 Z M197 446 C257 446 282 384 282 235 C282 106 255 47 196 47 C136 47 110 106 110 243 C110 384 136 446 197 446 L197 446 Z M71 684 C74 614 115 577 189 577 C261 577 302 615 305 684 L253 684 C248 649 227 632 188 632 C149 632 128 649 123 684 L71 684 Z " />
<glyph glyph-name="Ohungarumlaut" unicode="&#x150;" horiz-adv-x="477" d="M242 680 C108 680 41 562 41 327 C41 211 59 123 95 63 C124 15 175 -12 239 -12 C301 -12 346 12 377 64 C417 129 436 219 436 338 C436 563 370 680 242 680 L242 680 Z M240 615 C320 615 357 527 357 334 C357 140 321 53 239 53 C157 53 120 143 120 346 C120 529 158 615 240 615 L240 615 Z M282 791 L243 847 L149 751 L176 712 L282 791 Z M401 791 L362 847 L269 751 L295 712 L401 791 Z " />
<glyph glyph-name="ohungarumlaut" unicode="&#x151;" horiz-adv-x="392" d="M198 505 C93 505 34 410 34 242 C34 74 89 -12 195 -12 C303 -12 358 74 358 242 C358 409 300 505 198 505 L198 505 Z M197 446 C257 446 282 384 282 235 C282 106 255 47 196 47 C136 47 110 106 110 243 C110 384 136 446 197 446 L197 446 Z M227 635 L184 686 L101 588 L129 553 L227 635 Z M357 635 L314 686 L231 588 L260 553 L357 635 Z " />
<glyph glyph-name="OE" unicode="&#x152;" horiz-adv-x="681" d="M447 602 L676 602 L676 667 L371 667 L371 586 C347 647 306 676 244 676 C110 676 41 556 41 323 C41 95 101 -9 232 -9 C301 -9 341 20 371 90 L371 0 L682 0 L682 65 L447 65 L447 314 L625 314 L625 379 L447 379 L447 602 Z M371 185 C352 101 306 53 245 53 C158 53 120 134 120 323 C120 522 161 615 250 615 C310 615 346 581 371 501 L371 185 Z " />
<glyph glyph-name="oe" unicode="&#x153;" horiz-adv-x="630" d="M546 145 C530 76 504 47 460 47 C393 47 362 109 362 238 L612 238 C611 317 606 360 593 397 C568 468 521 505 453 505 C392 505 354 478 327 414 C307 473 263 505 199 505 C95 505 34 408 34 242 C34 75 90 -12 197 -12 C259 -12 297 15 320 74 C346 15 388 -12 451 -12 C536 -12 582 30 606 130 L546 145 Z M201 446 C261 446 286 384 286 236 C286 106 259 47 200 47 C137 47 110 106 110 242 C110 384 138 446 201 446 L201 446 Z M364 295 C371 402 397 446 452 446 C485 446 508 429 521 396 C530 374 534 348 536 295 L364 295 Z " />
<glyph glyph-name="Racute" unicode="&#x154;" horiz-adv-x="426" d="M64 0 L140 0 L140 292 L235 292 L332 0 L414 0 L307 307 C368 332 399 390 399 481 C399 538 384 582 353 619 C321 656 290 667 212 667 L64 667 L64 0 Z M140 357 L140 602 L208 602 C250 602 273 595 290 576 C310 554 322 517 322 478 C322 442 311 408 293 386 C276 365 254 357 213 357 L140 357 Z M339 793 L307 861 L138 766 L157 727 L339 793 Z " />
<glyph glyph-name="racute" unicode="&#x155;" horiz-adv-x="238" d="M59 0 L128 0 L128 232 C128 305 132 341 142 365 C159 403 188 424 226 424 C233 424 236 424 246 423 L246 500 C237 502 233 503 225 503 C176 503 142 467 123 395 L123 493 L59 493 L59 0 Z M272 654 L227 710 L91 582 L118 550 L272 654 Z " />
<glyph glyph-name="Rcommaaccent" unicode="&#x156;" horiz-adv-x="426" d="M64 0 L140 0 L140 292 L235 292 L332 0 L414 0 L307 307 C368 332 399 390 399 481 C399 538 384 582 353 619 C321 656 290 667 212 667 L64 667 L64 0 Z M140 357 L140 602 L208 602 C250 602 273 595 290 576 C310 554 322 517 322 478 C322 442 311 408 293 386 C276 365 254 357 213 357 L140 357 Z M193 -57 L172 -239 L211 -239 L269 -57 L193 -57 Z " />
<glyph glyph-name="rcommaaccent" unicode="&#x157;" horiz-adv-x="238" d="M59 0 L128 0 L128 232 C128 305 132 341 142 365 C159 403 188 424 226 424 C233 424 236 424 246 423 L246 500 C237 502 233 503 225 503 C176 503 142 467 123 395 L123 493 L59 493 L59 0 Z M58 -57 L38 -232 L74 -232 L131 -57 L58 -57 Z " />
<glyph glyph-name="Rcaron" unicode="&#x158;" horiz-adv-x="426" d="M64 0 L140 0 L140 292 L235 292 L332 0 L414 0 L307 307 C368 332 399 390 399 481 C399 538 384 582 353 619 C321 656 290 667 212 667 L64 667 L64 0 Z M140 357 L140 602 L208 602 C250 602 273 595 290 576 C310 554 322 517 322 478 C322 442 311 408 293 386 C276 365 254 357 213 357 L140 357 Z M210 795 L131 855 L70 843 L210 721 L345 843 L286 855 L210 795 Z " />
<glyph glyph-name="rcaron" unicode="&#x159;" horiz-adv-x="238" d="M59 0 L128 0 L128 232 C128 305 132 341 142 365 C159 403 188 424 226 424 C233 424 236 424 246 423 L246 500 C237 502 233 503 225 503 C176 503 142 467 123 395 L123 493 L59 493 L59 0 Z M144 639 L74 698 L16 687 L144 569 L267 687 L211 698 L144 639 Z " />
<glyph glyph-name="Sacute" unicode="&#x15a;" horiz-adv-x="409" d="M379 517 C352 627 296 679 204 679 C105 679 37 606 37 500 C37 442 57 397 95 367 C122 346 131 342 218 299 C291 264 312 235 312 172 C312 98 273 53 209 53 C142 53 99 99 84 186 L14 168 C34 50 101 -12 207 -12 C315 -12 389 65 389 177 C389 269 356 313 250 366 C169 405 169 405 151 419 C124 439 110 467 110 504 C110 570 147 614 202 614 C258 614 293 577 309 501 L379 517 Z M342 793 L311 861 L141 766 L161 727 L342 793 Z " />
<glyph glyph-name="sacute" unicode="&#x15b;" horiz-adv-x="324" d="M300 382 C282 467 240 505 162 505 C82 505 28 451 28 371 C28 308 57 270 139 229 C198 199 198 199 212 187 C231 172 240 150 240 123 C240 76 211 47 166 47 C137 47 112 58 96 78 C85 92 80 107 73 142 L12 126 C26 34 78 -12 167 -12 C255 -12 311 45 311 134 C311 199 286 231 203 272 C155 297 139 306 125 316 C106 331 96 351 96 378 C96 420 122 446 164 446 C205 446 226 424 241 366 L300 382 Z M285 654 L240 710 L104 582 L131 550 L285 654 Z " />
<glyph glyph-name="Scircumflex" unicode="&#x15c;" horiz-adv-x="409" d="M379 517 C352 627 296 679 204 679 C105 679 37 606 37 500 C37 442 57 397 95 367 C122 346 131 342 218 299 C291 264 312 235 312 172 C312 98 273 53 209 53 C142 53 99 99 84 186 L14 168 C34 50 101 -12 207 -12 C315 -12 389 65 389 177 C389 269 356 313 250 366 C169 405 169 405 151 419 C124 439 110 467 110 504 C110 570 147 614 202 614 C258 614 293 577 309 501 L379 517 Z M211 787 L287 727 L345 739 L211 861 L71 739 L131 727 L211 787 Z " />
<glyph glyph-name="scircumflex" unicode="&#x15d;" horiz-adv-x="324" d="M300 382 C282 467 240 505 162 505 C82 505 28 451 28 371 C28 308 57 270 139 229 C198 199 198 199 212 187 C231 172 240 150 240 123 C240 76 211 47 166 47 C137 47 112 58 96 78 C85 92 80 107 73 142 L12 126 C26 34 78 -12 167 -12 C255 -12 311 45 311 134 C311 199 286 231 203 272 C155 297 139 306 125 316 C106 331 96 351 96 378 C96 420 122 446 164 446 C205 446 226 424 241 366 L300 382 Z M164 630 L237 570 L293 582 L164 699 L29 582 L88 570 L164 630 Z " />
<glyph glyph-name="Scedilla" unicode="&#x15e;" horiz-adv-x="409" d="M211 -13 C319 -9 389 65 389 177 C389 269 356 313 250 365 C169 405 169 405 151 419 C124 438 110 467 110 504 C110 570 147 614 202 614 C258 614 293 577 309 501 L379 517 C352 627 296 679 204 679 C105 679 37 606 37 500 C37 442 57 396 95 367 C122 346 133 340 218 299 C291 263 312 235 312 171 C312 97 273 52 209 52 C142 52 99 98 84 186 L14 168 C30 64 86 3 175 -10 L155 -80 C169 -78 175 -77 184 -77 C215 -77 233 -92 233 -118 C233 -141 219 -155 195 -155 C177 -155 155 -149 133 -137 L121 -172 C145 -189 172 -197 204 -197 C257 -197 293 -164 293 -116 C293 -71 262 -42 214 -42 L203 -42 L211 -13 Z " />
<glyph glyph-name="scedilla" unicode="&#x15f;" horiz-adv-x="324" d="M163 -13 C256 -12 311 42 311 134 C311 199 286 231 203 272 C155 296 139 305 125 316 C106 331 96 351 96 378 C96 419 122 446 164 446 C205 446 226 425 241 366 L300 382 C282 467 240 505 162 505 C82 505 28 451 28 371 C28 308 57 270 139 229 C198 199 198 199 212 187 C231 172 240 150 240 123 C240 76 211 47 166 47 C137 47 112 58 96 78 C85 92 80 107 73 142 L12 126 C22 48 62 3 134 -10 L116 -73 C129 -71 134 -71 142 -71 C170 -71 188 -86 188 -109 C188 -132 173 -146 150 -146 C132 -146 113 -141 92 -130 L82 -162 C104 -177 130 -184 158 -184 C207 -184 241 -154 241 -109 C241 -84 229 -61 209 -50 C196 -43 183 -41 156 -41 L163 -13 Z " />
<glyph glyph-name="Scaron" unicode="&#x160;" horiz-adv-x="409" d="M379 517 C352 627 296 679 204 679 C105 679 37 606 37 500 C37 442 57 397 95 367 C122 346 131 342 218 299 C291 264 312 235 312 172 C312 98 273 53 209 53 C142 53 99 99 84 186 L14 168 C34 50 101 -12 207 -12 C315 -12 389 65 389 177 C389 269 356 313 250 366 C169 405 169 405 151 419 C124 439 110 467 110 504 C110 570 147 614 202 614 C258 614 293 577 309 501 L379 517 Z M210 795 L131 855 L70 843 L210 721 L345 843 L287 855 L210 795 Z " />
<glyph glyph-name="scaron" unicode="&#x161;" horiz-adv-x="324" d="M300 382 C282 467 240 505 162 505 C82 505 28 451 28 371 C28 308 57 270 139 229 C198 199 198 199 212 187 C231 172 240 150 240 123 C240 76 211 47 166 47 C137 47 112 58 96 78 C85 92 80 107 73 142 L12 126 C26 34 78 -12 167 -12 C255 -12 311 45 311 134 C311 199 286 231 203 272 C155 297 139 306 125 316 C106 331 96 351 96 378 C96 420 122 446 164 446 C205 446 226 424 241 366 L300 382 Z M165 639 L88 698 L30 687 L165 569 L294 687 L238 698 L165 639 Z " />
<glyph glyph-name="Tcommaaccent" unicode="&#x162;" horiz-adv-x="324" d="M122 0 L198 0 L198 602 L329 602 L329 667 L-6 667 L-6 602 L122 602 L122 0 Z M123 -57 L102 -239 L141 -239 L199 -57 L123 -57 Z " />
<glyph glyph-name="tcommaaccent" unicode="&#x163;" horiz-adv-x="238" d="M144 493 L144 625 L75 617 L75 493 L19 493 L19 436 L75 436 L75 168 C75 92 80 62 96 36 C110 12 141 -2 182 -2 C207 -2 223 1 241 8 L241 69 C226 66 220 65 207 65 C153 65 144 80 144 168 L144 436 L228 436 L228 493 L144 493 Z M127 -57 L108 -232 L144 -232 L200 -57 L127 -57 Z " />
<glyph glyph-name="Tcaron" unicode="&#x164;" horiz-adv-x="324" d="M122 0 L198 0 L198 602 L329 602 L329 667 L-6 667 L-6 602 L122 602 L122 0 Z M164 795 L85 855 L24 843 L164 721 L299 843 L241 855 L164 795 Z " />
<glyph glyph-name="tcaron" unicode="&#x165;" horiz-adv-x="271" d="M144 493 L144 625 L75 617 L75 493 L19 493 L19 436 L75 436 L75 168 C75 92 80 62 96 36 C110 12 141 -2 182 -2 C207 -2 223 1 241 8 L241 69 C226 66 220 65 207 65 C153 65 144 80 144 168 L144 436 L228 436 L228 493 L144 493 Z M205 720 L184 540 L221 540 L278 720 L205 720 Z " />
<glyph glyph-name="Tbar" unicode="&#x166;" horiz-adv-x="350" d="M138 369 L138 0 L214 0 L214 369 L322 369 L322 434 L214 434 L214 602 L345 602 L345 667 L10 667 L10 602 L138 602 L138 434 L31 434 L31 369 L138 369 Z " />
<glyph glyph-name="tbar" unicode="&#x167;" horiz-adv-x="279" d="M185 366 L185 436 L269 436 L269 493 L185 493 L185 625 L116 617 L116 493 L60 493 L60 436 L116 436 L116 366 L59 366 L60 306 L116 306 L116 169 C116 92 120 62 136 36 C151 12 182 -2 223 -2 C248 -2 264 1 282 8 L282 69 C267 66 261 65 248 65 C194 65 185 80 185 169 L185 306 L269 306 L269 366 L185 366 Z " />
<glyph glyph-name="Utilde" unicode="&#x168;" horiz-adv-x="443" d="M52 667 L52 201 C52 112 59 76 82 42 C107 8 155 -12 217 -12 C280 -12 325 6 353 43 C381 79 390 120 390 201 L390 667 L317 667 L317 197 C317 92 292 53 223 53 C148 53 128 84 128 201 L128 667 L52 667 Z M322 829 C306 800 297 791 283 791 C270 791 260 796 231 819 C212 833 199 839 184 839 C152 839 125 813 101 760 L139 733 C155 766 164 775 179 775 C193 775 202 770 223 750 C242 733 257 726 275 726 C307 726 332 750 358 803 L322 829 Z " />
<glyph glyph-name="utilde" unicode="&#x169;" horiz-adv-x="392" d="M333 493 L264 493 L264 176 C264 96 235 52 183 52 C160 52 141 62 132 79 C123 95 121 112 121 158 L121 493 L52 493 L52 162 C52 88 55 61 65 40 C82 7 117 -12 162 -12 C213 -12 246 10 269 59 L269 0 L333 0 L333 493 Z M281 672 C267 645 257 635 243 635 C231 635 222 640 194 662 C176 676 163 682 149 682 C118 682 91 656 69 605 L105 580 C121 612 129 620 144 620 C156 620 165 615 186 596 C205 580 219 573 236 573 C266 573 291 596 316 647 L281 672 Z " />
<glyph glyph-name="Umacron" unicode="&#x16a;" horiz-adv-x="443" d="M52 667 L52 201 C52 112 59 76 82 42 C107 8 155 -12 217 -12 C280 -12 325 6 353 43 C381 79 390 120 390 201 L390 667 L317 667 L317 197 C317 92 292 53 223 53 C148 53 128 84 128 201 L128 667 L52 667 Z M104 811 L104 754 L338 754 L338 811 L104 811 Z " />
<glyph glyph-name="umacron" unicode="&#x16b;" horiz-adv-x="392" d="M333 493 L264 493 L264 176 C264 96 235 52 183 52 C160 52 141 62 132 79 C123 95 121 112 121 158 L121 493 L52 493 L52 162 C52 88 55 61 65 40 C82 7 117 -12 162 -12 C213 -12 246 10 269 59 L269 0 L333 0 L333 493 Z M80 651 L80 596 L305 596 L305 651 L80 651 Z " />
<glyph glyph-name="Ubreve" unicode="&#x16c;" horiz-adv-x="443" d="M52 667 L52 201 C52 112 59 76 82 42 C107 8 155 -12 217 -12 C280 -12 325 6 353 43 C381 79 390 120 390 201 L390 667 L317 667 L317 197 C317 92 292 53 223 53 C148 53 128 84 128 201 L128 667 L52 667 Z M108 839 C111 768 154 731 230 731 C306 731 348 769 351 839 L297 839 C292 805 270 788 230 788 C190 788 167 805 162 839 L108 839 Z " />
<glyph glyph-name="ubreve" unicode="&#x16d;" horiz-adv-x="392" d="M333 493 L264 493 L264 176 C264 96 235 52 183 52 C160 52 141 62 132 79 C123 95 121 112 121 158 L121 493 L52 493 L52 162 C52 88 55 61 65 40 C82 7 117 -12 162 -12 C213 -12 246 10 269 59 L269 0 L333 0 L333 493 Z M75 684 C78 614 119 577 193 577 C265 577 306 615 309 684 L257 684 C252 649 231 632 192 632 C154 632 132 649 127 684 L75 684 Z " />
<glyph glyph-name="Uring" unicode="&#x16e;" horiz-adv-x="443" d="M52 667 L52 201 C52 112 59 76 82 42 C107 8 155 -12 217 -12 C280 -12 325 6 353 43 C381 79 390 120 390 201 L390 667 L317 667 L317 197 C317 92 292 53 223 53 C148 53 128 84 128 201 L128 667 L52 667 Z M221 877 C175 877 137 840 137 794 C137 748 174 710 219 710 C268 710 305 747 305 794 C305 840 267 877 221 877 L221 877 Z M221 831 C241 831 258 814 258 794 C258 772 242 756 220 756 C200 756 184 773 184 793 C184 814 200 831 221 831 L221 831 Z " />
<glyph glyph-name="uring" unicode="&#x16f;" horiz-adv-x="392" d="M333 493 L264 493 L264 176 C264 96 235 52 183 52 C160 52 141 62 132 79 C123 95 121 112 121 158 L121 493 L52 493 L52 162 C52 88 55 61 65 40 C82 7 117 -12 162 -12 C213 -12 246 10 269 59 L269 0 L333 0 L333 493 Z M192 719 C146 719 108 682 108 636 C108 590 145 552 190 552 C238 552 276 589 276 636 C276 682 238 719 192 719 L192 719 Z M192 674 C213 674 230 657 230 636 C230 614 213 597 191 597 C171 597 154 614 154 636 C154 657 171 674 192 674 L192 674 Z " />
<glyph glyph-name="Uhungarumlaut" unicode="&#x170;" horiz-adv-x="443" d="M52 667 L52 201 C52 112 59 76 82 42 C107 8 155 -12 217 -12 C280 -12 325 6 353 43 C381 79 390 120 390 201 L390 667 L317 667 L317 197 C317 92 292 53 223 53 C148 53 128 84 128 201 L128 667 L52 667 Z M265 791 L225 847 L132 751 L158 712 L265 791 Z M384 791 L345 847 L251 751 L278 712 L384 791 Z " />
<glyph glyph-name="uhungarumlaut" unicode="&#x171;" horiz-adv-x="392" d="M333 493 L264 493 L264 176 C264 96 235 52 183 52 C160 52 141 62 132 79 C123 95 121 112 121 158 L121 493 L52 493 L52 162 C52 88 55 61 65 40 C82 7 117 -12 162 -12 C213 -12 246 10 269 59 L269 0 L333 0 L333 493 Z M217 635 L174 686 L91 588 L119 553 L217 635 Z M347 635 L304 686 L221 588 L250 553 L347 635 Z " />
<glyph glyph-name="Uogonek" unicode="&#x172;" horiz-adv-x="443" d="M387 -120 C377 -124 363 -126 349 -126 C312 -126 291 -107 291 -73 C291 -45 304 -20 337 21 C380 72 389 105 390 201 L390 667 L317 667 L317 197 C317 92 292 53 223 53 C148 53 128 84 128 201 L128 667 L52 667 L52 201 C52 112 59 76 82 42 C107 7 155 -12 218 -12 C242 -12 254 -11 277 -5 C244 -27 229 -51 229 -86 C229 -137 268 -170 328 -170 C354 -170 373 -166 397 -155 L387 -120 Z " />
<glyph glyph-name="uogonek" unicode="&#x173;" horiz-adv-x="392" d="M333 493 L264 493 L264 176 C264 96 235 52 183 52 C160 52 141 62 132 79 C123 95 121 112 121 158 L121 493 L52 493 L52 162 C52 88 55 61 65 40 C82 7 117 -12 162 -12 C213 -12 246 10 269 59 L269 0 L297 0 C252 -25 234 -50 234 -86 C234 -132 271 -163 327 -163 C351 -163 369 -159 391 -149 L382 -117 C371 -121 360 -123 346 -123 C313 -123 292 -105 292 -76 C292 -49 302 -30 333 0 L333 493 Z " />
<glyph glyph-name="Wcircumflex" unicode="&#x174;" horiz-adv-x="579" d="M124 0 L196 0 L291 513 L388 0 L463 0 L574 667 L506 667 L428 139 L324 667 L261 667 L166 139 L81 667 L6 667 L124 0 Z M293 787 L369 727 L427 739 L293 861 L153 739 L214 727 L293 787 Z " />
<glyph glyph-name="wcircumflex" unicode="&#x175;" horiz-adv-x="460" d="M103 0 L165 0 L229 365 L299 0 L359 0 L458 493 L398 493 L332 125 L262 493 L202 493 L136 125 L72 493 L2 493 L103 0 Z M233 630 L306 570 L362 582 L233 699 L98 582 L156 570 L233 630 Z " />
<glyph glyph-name="Ycircumflex" unicode="&#x176;" horiz-adv-x="358" d="M140 0 L216 0 L216 282 L368 667 L297 667 L183 358 L67 667 L-12 667 L140 282 L140 0 Z M181 787 L257 727 L316 739 L181 861 L41 739 L102 727 L181 787 Z " />
<glyph glyph-name="ycircumflex" unicode="&#x177;" horiz-adv-x="290" d="M-4 493 L114 50 L96 -24 C77 -101 67 -117 38 -117 C28 -117 20 -116 3 -111 L3 -172 C21 -177 30 -178 43 -178 C98 -178 129 -141 154 -47 L294 493 L232 493 L148 152 L67 493 L-4 493 Z M148 630 L221 570 L277 582 L148 699 L13 582 L71 570 L148 630 Z " />
<glyph glyph-name="Ydieresis" unicode="&#x178;" horiz-adv-x="358" d="M140 0 L216 0 L216 282 L368 667 L297 667 L183 358 L67 667 L-12 667 L140 282 L140 0 Z M107 833 C80 833 57 810 57 782 C57 755 80 732 107 732 C135 732 158 754 158 781 C158 810 136 833 107 833 L107 833 Z M248 833 C221 833 198 810 198 782 C198 754 221 732 249 732 C277 732 300 754 300 781 C300 811 278 833 248 833 L248 833 Z " />
<glyph glyph-name="Zacute" unicode="&#x179;" horiz-adv-x="375" d="M99 68 L352 614 L352 667 L30 667 L30 602 L266 602 L18 68 L18 0 L358 0 L358 68 L99 68 Z M334 793 L302 861 L133 766 L152 727 L334 793 Z " />
<glyph glyph-name="zacute" unicode="&#x17a;" horiz-adv-x="307" d="M38 493 L38 434 L201 434 L23 57 L23 0 L284 0 L284 59 L99 59 L284 453 L284 493 L38 493 Z M284 654 L239 710 L103 582 L130 550 L284 654 Z " />
<glyph glyph-name="Zdotaccent" unicode="&#x17b;" horiz-adv-x="375" d="M99 68 L352 614 L352 667 L30 667 L30 602 L266 602 L18 68 L18 0 L358 0 L358 68 L99 68 Z M192 835 C162 835 138 812 138 781 C138 753 162 729 191 729 C220 729 244 753 244 782 C244 811 221 835 192 835 L192 835 Z " />
<glyph glyph-name="zdotaccent" unicode="&#x17c;" horiz-adv-x="307" d="M38 493 L38 434 L201 434 L23 57 L23 0 L284 0 L284 59 L99 59 L284 453 L284 493 L38 493 Z M162 675 C133 675 110 653 110 624 C110 596 133 573 161 573 C189 573 212 596 212 624 C212 652 189 675 162 675 L162 675 Z " />
<glyph glyph-name="Zcaron" unicode="&#x17d;" horiz-adv-x="375" d="M99 68 L352 614 L352 667 L30 667 L30 602 L266 602 L18 68 L18 0 L358 0 L358 68 L99 68 Z M194 795 L115 855 L54 843 L194 721 L328 843 L270 855 L194 795 Z " />
<glyph glyph-name="zcaron" unicode="&#x17e;" horiz-adv-x="307" d="M38 493 L38 434 L201 434 L23 57 L23 0 L284 0 L284 59 L99 59 L284 453 L284 493 L38 493 Z M164 639 L87 698 L29 687 L164 569 L293 687 L237 698 L164 639 Z " />
<glyph glyph-name="uni018F" unicode="&#x18f;" horiz-adv-x="478" d="M41 337 C46 183 58 123 95 63 C125 15 176 -12 238 -12 C301 -12 346 12 377 64 C417 129 436 218 436 338 C436 564 370 679 239 679 C201 679 168 669 140 649 C106 624 82 581 59 504 L132 487 C151 578 181 614 239 614 C320 614 355 532 357 337 L41 337 Z M356 272 C347 119 312 53 239 53 C166 53 129 124 123 272 L356 272 Z " />
<glyph glyph-name="florin" unicode="&#x192;" horiz-adv-x="426" d="M18 -145 C35 -148 44 -149 57 -149 C103 -149 140 -134 168 -105 C196 -75 210 -34 225 71 L271 392 L363 392 L372 449 L279 449 L285 488 C299 585 322 618 379 618 C385 618 388 618 396 616 L405 677 C391 679 385 679 372 679 C328 679 292 664 268 637 C242 607 228 571 215 493 L208 449 L130 449 L122 392 L199 392 L154 75 C134 -58 119 -83 59 -83 C50 -83 42 -82 28 -80 L18 -145 Z " />
<glyph glyph-name="uni01CD" unicode="&#x1cd;" horiz-adv-x="375" d="M148 667 L-4 0 L67 0 L108 193 L258 193 L300 0 L378 0 L228 667 L148 667 Z M245 255 L122 255 L185 587 L245 255 Z M190 795 L110 855 L50 843 L190 721 L324 843 L266 855 L190 795 Z " />
<glyph glyph-name="uni01CE" unicode="&#x1ce;" horiz-adv-x="392" d="M346 0 C341 30 339 56 339 114 L339 314 C339 403 333 437 312 462 C288 490 250 505 200 505 C115 505 67 464 46 372 L110 355 C124 426 144 448 194 448 C228 448 250 435 259 408 C267 389 269 365 268 304 C238 305 235 305 224 305 C104 305 34 242 34 134 C34 43 83 -12 163 -12 C219 -12 249 10 275 72 C275 37 277 23 284 0 L346 0 Z M268 250 C268 190 266 158 260 133 C246 77 215 47 172 47 C131 47 108 78 108 133 C108 216 146 250 238 250 L268 250 Z M209 639 L132 698 L74 687 L209 569 L338 687 L282 698 L209 639 Z " />
<glyph glyph-name="uni01D1" unicode="&#x1d1;" horiz-adv-x="204" d="M64 0 L140 0 L140 667 L64 667 L64 0 Z M214 829 C198 800 189 791 175 791 C162 791 152 796 123 819 C104 833 91 839 76 839 C44 839 16 813 -7 760 L31 733 C47 766 56 775 71 775 C85 775 93 770 115 750 C134 733 149 726 167 726 C199 726 224 750 250 803 L214 829 Z " />
<glyph glyph-name="uni01D2" unicode="&#x1d2;" horiz-adv-x="392" d="M198 505 C93 505 34 410 34 242 C34 74 89 -12 195 -12 C303 -12 358 74 358 242 C358 409 300 505 198 505 L198 505 Z M197 446 C257 446 282 384 282 235 C282 106 255 47 196 47 C136 47 110 106 110 243 C110 384 136 446 197 446 L197 446 Z M196 639 L120 698 L61 687 L196 569 L325 687 L269 698 L196 639 Z " />
<glyph glyph-name="uni01D3" unicode="&#x1d3;" horiz-adv-x="443" d="M52 667 L52 201 C52 112 59 76 82 42 C107 8 155 -12 217 -12 C280 -12 325 6 353 43 C381 79 390 120 390 201 L390 667 L317 667 L317 197 C317 92 292 53 223 53 C148 53 128 84 128 201 L128 667 L52 667 Z M224 795 L145 855 L84 843 L224 721 L358 843 L300 855 L224 795 Z " />
<glyph glyph-name="uni01D4" unicode="&#x1d4;" horiz-adv-x="392" d="M333 493 L264 493 L264 176 C264 96 235 52 183 52 C160 52 141 62 132 79 C123 95 121 112 121 158 L121 493 L52 493 L52 162 C52 88 55 61 65 40 C82 7 117 -12 162 -12 C213 -12 246 10 269 59 L269 0 L333 0 L333 493 Z M195 639 L119 698 L60 687 L195 569 L324 687 L268 698 L195 639 Z " />
<glyph glyph-name="uni01DD" unicode="&#x1dd;" horiz-adv-x="375" d="M19 255 C19 178 25 133 38 96 C63 25 110 -12 177 -12 C281 -12 341 86 341 254 C341 422 287 505 177 505 C92 505 49 465 24 363 L85 348 C102 418 126 446 170 446 C237 446 268 386 268 255 L19 255 Z M266 198 C259 91 234 47 178 47 C146 47 122 64 109 97 C100 120 97 146 95 198 L266 198 Z " />
<glyph glyph-name="Gcaron" unicode="&#x1e6;" horiz-adv-x="460" d="M426 330 L246 330 L246 265 L357 265 C357 200 354 170 347 143 C330 83 292 48 243 48 C161 48 122 134 122 315 C122 428 131 499 151 545 C170 590 203 614 246 614 C279 614 306 599 323 571 C336 551 344 528 354 481 L419 504 C397 626 346 679 249 679 C192 679 142 655 109 614 C63 555 42 464 42 328 C42 195 59 110 98 53 C126 13 177 -12 233 -12 C295 -12 333 13 364 73 L378 -9 L426 -9 L426 330 Z M247 795 L168 855 L107 843 L247 721 L382 843 L324 855 L247 795 Z " />
<glyph glyph-name="gcaron" unicode="&#x1e7;" horiz-adv-x="358" d="M358 568 C349 569 340 569 335 569 C285 569 258 542 254 485 C231 499 212 505 186 505 C103 505 47 437 47 337 C47 281 62 241 97 205 C57 185 38 158 38 120 C38 85 56 56 89 37 C44 12 24 -20 24 -65 C24 -142 87 -190 189 -190 C302 -190 368 -137 368 -47 C368 -13 358 14 339 34 C318 57 290 68 239 71 C158 77 158 77 134 85 C112 93 102 106 102 128 C102 150 115 166 137 174 C155 168 167 166 184 166 C271 166 328 231 328 330 C328 376 316 417 294 448 C297 492 309 507 343 507 C345 507 352 507 358 506 L358 568 Z M189 446 C233 446 255 409 255 337 C255 259 234 225 187 225 C143 225 118 264 118 333 C118 408 142 446 189 446 L189 446 Z M129 17 C162 15 165 15 185 13 C235 10 248 8 266 0 C287 -9 298 -27 298 -52 C298 -102 260 -131 196 -131 C131 -131 94 -102 94 -49 C94 -19 104 0 129 17 L129 17 Z M189 639 L113 698 L55 687 L189 569 L319 687 L263 698 L189 639 Z " />
<glyph glyph-name="uni01F4" unicode="&#x1f4;" horiz-adv-x="460" d="M426 330 L246 330 L246 265 L357 265 C357 200 354 170 347 143 C330 83 292 48 243 48 C161 48 122 134 122 315 C122 428 131 499 151 545 C170 590 203 614 246 614 C279 614 306 599 323 571 C336 551 344 528 354 481 L419 504 C397 626 346 679 249 679 C192 679 142 655 109 614 C63 555 42 464 42 328 C42 195 59 110 98 53 C126 13 177 -12 233 -12 C295 -12 333 13 364 73 L378 -9 L426 -9 L426 330 Z M379 793 L348 861 L178 766 L198 727 L379 793 Z " />
<glyph glyph-name="uni01F5" unicode="&#x1f5;" horiz-adv-x="358" d="M358 568 C349 569 340 569 335 569 C285 569 258 542 254 485 C231 499 212 505 186 505 C103 505 47 437 47 337 C47 281 62 241 97 205 C57 185 38 158 38 120 C38 85 56 56 89 37 C44 12 24 -20 24 -65 C24 -142 87 -190 189 -190 C302 -190 368 -137 368 -47 C368 -13 358 14 339 34 C318 57 290 68 239 71 C158 77 158 77 134 85 C112 93 102 106 102 128 C102 150 115 166 137 174 C155 168 167 166 184 166 C271 166 328 231 328 330 C328 376 316 417 294 448 C297 492 309 507 343 507 C345 507 352 507 358 506 L358 568 Z M189 446 C233 446 255 409 255 337 C255 259 234 225 187 225 C143 225 118 264 118 333 C118 408 142 446 189 446 L189 446 Z M129 17 C162 15 165 15 185 13 C235 10 248 8 266 0 C287 -9 298 -27 298 -52 C298 -102 260 -131 196 -131 C131 -131 94 -102 94 -49 C94 -19 104 0 129 17 L129 17 Z M334 654 L289 710 L153 582 L180 550 L334 654 Z " />
<glyph glyph-name="Aringacute" unicode="&#x1fa;" horiz-adv-x="375" d="M148 667 L-4 0 L67 0 L108 193 L258 193 L300 0 L378 0 L228 667 L148 667 Z M245 255 L122 255 L185 587 L245 255 Z M189 877 C143 877 105 840 105 794 C105 748 142 710 187 710 C236 710 273 747 273 794 C273 840 235 877 189 877 L189 877 Z M189 831 C209 831 226 814 226 794 C226 772 210 756 188 756 C168 756 152 773 152 793 C152 814 168 831 189 831 L189 831 Z M297 940 L266 1008 L96 913 L116 874 L297 940 Z " />
<glyph glyph-name="aringacute" unicode="&#x1fb;" horiz-adv-x="392" d="M346 0 C341 30 339 56 339 114 L339 314 C339 403 333 437 312 462 C288 490 250 505 200 505 C115 505 67 464 46 372 L110 355 C124 426 144 448 194 448 C228 448 250 435 259 408 C267 389 269 365 268 304 C238 305 235 305 224 305 C104 305 34 242 34 134 C34 43 83 -12 163 -12 C219 -12 249 10 275 72 C275 37 277 23 284 0 L346 0 Z M268 250 C268 190 266 158 260 133 C246 77 215 47 172 47 C131 47 108 78 108 133 C108 216 146 250 238 250 L268 250 Z M201 719 C155 719 117 682 117 636 C117 590 154 552 199 552 C247 552 285 589 285 636 C285 682 247 719 201 719 L201 719 Z M201 674 C222 674 239 657 239 636 C239 614 222 597 200 597 C180 597 163 614 163 636 C163 657 180 674 201 674 L201 674 Z M277 819 L232 874 L96 747 L123 715 L277 819 Z " />
<glyph glyph-name="AEacute" unicode="&#x1fc;" horiz-adv-x="613" d="M264 667 L-12 0 L61 0 L144 206 L300 206 L300 0 L614 0 L614 65 L376 65 L376 314 L556 314 L556 379 L376 379 L376 602 L607 602 L607 667 L264 667 Z M300 271 L168 271 L300 612 L300 271 Z M586 793 L554 861 L385 766 L404 727 L586 793 Z " />
<glyph glyph-name="aeacute" unicode="&#x1fd;" horiz-adv-x="426" d="M243 -64 L243 721 L196 721 L196 -64 L243 -64 Z " />
<glyph glyph-name="Oslashacute" unicode="&#x1fe;" horiz-adv-x="477" d="M340 649 C308 671 279 680 238 680 C109 680 41 559 41 327 C41 206 58 125 98 57 L55 -49 L112 -49 L138 16 C171 -5 200 -13 240 -13 C368 -13 436 110 436 340 C436 459 419 538 380 606 L424 714 L367 714 L340 649 Z M135 138 C120 185 112 254 112 346 C112 530 153 619 238 619 C269 619 292 609 310 589 L135 138 Z M343 527 C359 478 364 426 364 331 C364 135 325 48 238 48 C207 48 184 58 168 77 L343 527 Z M418 793 L387 861 L217 766 L237 727 L418 793 Z " />
<glyph glyph-name="oslashacute" unicode="&#x1ff;" horiz-adv-x="392" d="M272 484 C249 499 224 506 195 506 C94 506 34 409 34 242 C34 150 50 82 83 39 L49 -48 L100 -48 L122 5 C150 -9 167 -13 195 -13 C303 -13 358 73 358 243 C358 331 343 394 309 447 L346 537 L294 537 L272 484 Z M117 110 C107 145 103 184 103 243 C103 385 132 449 196 449 C219 449 234 443 246 431 L117 110 Z M275 376 C286 337 289 308 289 248 C289 102 262 44 194 44 C174 44 161 48 149 59 L275 376 Z M352 654 L307 710 L171 582 L198 550 L352 654 Z " />
<glyph glyph-name="Scommaaccent" unicode="&#x218;" horiz-adv-x="409" d="M379 517 C352 627 296 679 204 679 C105 679 37 606 37 500 C37 442 57 397 95 367 C122 346 131 342 218 299 C291 264 312 235 312 172 C312 98 273 53 209 53 C142 53 99 99 84 186 L14 168 C34 50 101 -12 207 -12 C315 -12 389 65 389 177 C389 269 356 313 250 366 C169 405 169 405 151 419 C124 439 110 467 110 504 C110 570 147 614 202 614 C258 614 293 577 309 501 L379 517 Z M168 -57 L147 -239 L186 -239 L244 -57 L168 -57 Z " />
<glyph glyph-name="scommaaccent" unicode="&#x219;" horiz-adv-x="324" d="M300 382 C282 467 240 505 162 505 C82 505 28 451 28 371 C28 308 57 270 139 229 C198 199 198 199 212 187 C231 172 240 150 240 123 C240 76 211 47 166 47 C137 47 112 58 96 78 C85 92 80 107 73 142 L12 126 C26 34 78 -12 167 -12 C255 -12 311 45 311 134 C311 199 286 231 203 272 C155 297 139 306 125 316 C106 331 96 351 96 378 C96 420 122 446 164 446 C205 446 226 424 241 366 L300 382 Z M126 -57 L106 -232 L142 -232 L198 -57 L126 -57 Z " />
<glyph glyph-name="uni021A" unicode="&#x21a;" horiz-adv-x="324" d="M122 0 L198 0 L198 602 L329 602 L329 667 L-6 667 L-6 602 L122 602 L122 0 Z M123 -57 L102 -239 L141 -239 L199 -57 L123 -57 Z " />
<glyph glyph-name="uni021B" unicode="&#x21b;" horiz-adv-x="238" d="M144 493 L144 625 L75 617 L75 493 L19 493 L19 436 L75 436 L75 168 C75 92 80 62 96 36 C110 12 141 -2 182 -2 C207 -2 223 1 241 8 L241 69 C226 66 220 65 207 65 C153 65 144 80 144 168 L144 436 L228 436 L228 493 L144 493 Z M127 -57 L108 -232 L144 -232 L200 -57 L127 -57 Z " />
<glyph glyph-name="uni0226" unicode="&#x226;" horiz-adv-x="375" d="M148 667 L-4 0 L67 0 L108 193 L258 193 L300 0 L378 0 L228 667 L148 667 Z M245 255 L122 255 L185 587 L245 255 Z M188 835 C158 835 134 812 134 782 C134 752 158 729 187 729 C216 729 240 753 240 782 C240 811 216 835 188 835 L188 835 Z " />
<glyph glyph-name="uni0227" unicode="&#x227;" horiz-adv-x="392" d="M346 0 C341 30 339 56 339 114 L339 314 C339 403 333 437 312 462 C288 490 250 505 200 505 C115 505 67 464 46 372 L110 355 C124 426 144 448 194 448 C228 448 250 435 259 408 C267 389 269 365 268 304 C238 305 235 305 224 305 C104 305 34 242 34 134 C34 43 83 -12 163 -12 C219 -12 249 10 275 72 C275 37 277 23 284 0 L346 0 Z M268 250 C268 190 266 158 260 133 C246 77 215 47 172 47 C131 47 108 78 108 133 C108 216 146 250 238 250 L268 250 Z M207 675 C178 675 155 653 155 624 C155 596 178 573 206 573 C234 573 257 596 257 624 C257 652 234 675 207 675 L207 675 Z " />
<glyph glyph-name="uni0237" unicode="&#x237;" horiz-adv-x="187" d="M60 493 L60 -14 C60 -99 54 -110 6 -110 L-28 -110 L-28 -174 L11 -174 C106 -175 130 -143 129 -17 L129 493 L60 493 Z " />
<glyph glyph-name="uni0259" unicode="&#x259;" horiz-adv-x="375" d="M19 255 C19 178 25 133 38 96 C63 25 110 -12 177 -12 C281 -12 341 86 341 254 C341 422 287 505 177 505 C92 505 49 465 24 363 L85 348 C102 418 126 446 170 446 C237 446 268 386 268 255 L19 255 Z M266 198 C259 91 234 47 178 47 C146 47 122 64 109 97 C100 120 97 146 95 198 L266 198 Z " />
<glyph glyph-name="afii57929" unicode="&#x2bc;" horiz-adv-x="136" d="M65 564 L19 450 L61 450 L119 571 L119 667 L30 667 L30 564 L65 564 Z " />
<glyph glyph-name="circumflex" unicode="&#x2c6;" horiz-adv-x="460" d="M233 630 L306 570 L362 582 L233 699 L98 582 L156 570 L233 630 Z " />
<glyph glyph-name="caron" unicode="&#x2c7;" horiz-adv-x="460" d="M233 639 L156 698 L98 687 L233 569 L362 687 L306 698 L233 639 Z " />
<glyph glyph-name="uni02C9" unicode="&#x2c9;" horiz-adv-x="460" d="M118 651 L118 596 L343 596 L343 651 L118 651 Z " />
<glyph glyph-name="breve" unicode="&#x2d8;" horiz-adv-x="460" d="M113 684 C116 614 157 577 231 577 C303 577 344 615 347 684 L295 684 C290 649 269 632 230 632 C191 632 170 649 165 684 L113 684 Z " />
<glyph glyph-name="dotaccent" unicode="&#x2d9;" horiz-adv-x="460" d="M231 675 C202 675 179 653 179 624 C179 596 202 573 230 573 C258 573 281 596 281 624 C281 652 258 675 231 675 L231 675 Z " />
<glyph glyph-name="ring" unicode="&#x2da;" horiz-adv-x="460" d="M230 719 C184 719 146 682 146 636 C146 590 183 552 228 552 C276 552 314 589 314 636 C314 682 276 719 230 719 L230 719 Z M230 674 C251 674 268 657 268 636 C268 614 251 597 229 597 C209 597 192 614 192 636 C192 657 209 674 230 674 L230 674 Z " />
<glyph glyph-name="ogonek" unicode="&#x2db;" horiz-adv-x="460" d="M362 0 C315 -26 298 -50 298 -86 C298 -132 335 -163 391 -163 C416 -163 433 -159 455 -149 L446 -117 C435 -121 424 -123 410 -123 C376 -123 356 -105 356 -76 C356 -49 366 -30 397 0 L362 0 Z " />
<glyph glyph-name="tilde" unicode="&#x2dc;" horiz-adv-x="460" d="M319 672 C304 645 294 635 281 635 C268 635 259 640 231 662 C213 676 200 682 186 682 C155 682 128 656 106 605 L142 580 C158 612 166 620 181 620 C194 620 202 615 223 596 C242 580 256 573 273 573 C304 573 328 596 353 647 L319 672 Z " />
<glyph glyph-name="hungarumlaut" unicode="&#x2dd;" horiz-adv-x="460" d="M293 635 L250 686 L167 588 L196 553 L293 635 Z M423 635 L380 686 L298 588 L326 553 L423 635 Z " />
<glyph glyph-name="uni037E" unicode="&#x37e;" horiz-adv-x="205" d="M60 108 L60 0 L95 0 L48 -125 L90 -125 L146 0 L146 108 L60 108 Z M60 493 L60 385 L147 385 L147 493 L60 493 Z " />
<glyph glyph-name="tonos" unicode="&#x384;" horiz-adv-x="311" d="M124 575 L165 549 L257 718 L190 758 L124 575 Z " />
<glyph glyph-name="dieresistonos" unicode="&#x385;" horiz-adv-x="269" d="M221 795 L167 835 L106 702 L138 677 L221 795 Z M77 660 C52 660 33 638 33 611 C33 584 53 562 76 562 C101 562 121 583 121 611 C121 638 102 660 77 660 L77 660 Z M191 660 C167 660 147 638 147 611 C147 584 167 562 190 562 C215 562 235 583 235 611 C235 638 216 660 191 660 L191 660 Z " />
<glyph glyph-name="Alphatonos" unicode="&#x386;" horiz-adv-x="375" d="M109 667 L45 690 L6 500 L47 484 L109 667 Z M148 667 L-4 0 L67 0 L108 193 L258 193 L300 0 L378 0 L228 667 L148 667 Z M245 255 L122 255 L185 587 L245 255 Z " />
<glyph glyph-name="Epsilontonos" unicode="&#x388;" horiz-adv-x="421" d="M86 667 L22 690 L-17 500 L24 484 L86 667 Z M187 602 L411 602 L411 667 L111 667 L111 0 L416 0 L416 65 L187 65 L187 314 L359 314 L359 379 L187 379 L187 602 Z " />
<glyph glyph-name="Etatonos" unicode="&#x389;" horiz-adv-x="523" d="M86 667 L22 690 L-17 500 L24 484 L86 667 Z M186 384 L186 667 L110 667 L110 0 L186 0 L186 319 L383 319 L383 0 L459 0 L459 667 L383 667 L383 384 L186 384 Z " />
<glyph glyph-name="Iotatonos" unicode="&#x38a;" horiz-adv-x="250" d="M86 667 L22 690 L-17 500 L24 484 L86 667 Z M110 0 L186 0 L186 667 L110 667 L110 0 Z " />
<glyph glyph-name="Omicrontonos" unicode="&#x38c;" horiz-adv-x="509" d="M89 667 L25 690 L-14 500 L27 484 L89 667 Z M274 680 C140 680 73 562 73 327 C73 211 91 123 127 63 C156 15 207 -12 271 -12 C333 -12 378 12 409 64 C449 129 468 219 468 338 C468 563 402 680 274 680 L274 680 Z M272 615 C352 615 389 527 389 334 C389 140 353 53 271 53 C189 53 152 143 152 346 C152 529 190 615 272 615 L272 615 Z " />
<glyph glyph-name="Upsilontonos" unicode="&#x38e;" horiz-adv-x="477" d="M86 667 L22 690 L-17 500 L24 484 L86 667 Z M261 0 L337 0 L337 282 L489 667 L418 667 L304 358 L188 667 L109 667 L261 282 L261 0 Z " />
<glyph glyph-name="Omegatonos" unicode="&#x38f;" horiz-adv-x="518" d="M86 667 L22 690 L-17 500 L24 484 L86 667 Z M59 65 L59 0 L241 0 L241 65 C167 136 137 221 137 361 C137 516 188 613 268 613 C348 613 399 516 399 361 C399 221 369 136 295 65 L295 0 L477 0 L477 65 L365 65 C442 135 474 223 474 361 C474 554 394 678 268 678 C142 678 62 554 62 361 C62 223 94 135 171 65 L59 65 Z " />
<glyph glyph-name="iotadieresistonos" unicode="&#x390;" horiz-adv-x="187" d="M179 795 L125 835 L64 702 L96 677 L179 795 Z M35 660 C10 660 -9 638 -9 611 C-9 584 11 562 34 562 C59 562 79 583 79 611 C79 638 60 660 35 660 L35 660 Z M149 660 C125 660 105 638 105 611 C105 584 125 562 148 562 C173 562 193 583 193 611 C193 638 174 660 149 660 L149 660 Z M59 0 L128 0 L128 493 L59 493 L59 0 Z " />
<glyph glyph-name="Alpha" unicode="&#x391;" horiz-adv-x="375" d="M148 667 L-4 0 L67 0 L108 193 L258 193 L300 0 L378 0 L228 667 L148 667 Z M245 255 L122 255 L185 587 L245 255 Z " />
<glyph glyph-name="Beta" unicode="&#x392;" horiz-adv-x="429" d="M64 0 L211 0 C275 0 307 5 333 21 C378 47 406 109 406 185 C406 276 373 330 301 355 C325 363 339 371 350 385 C371 411 384 453 384 500 C384 556 366 602 333 632 C305 657 267 667 203 667 L64 667 L64 0 Z M140 380 L140 602 L198 602 C277 602 309 569 309 490 C309 410 280 380 202 380 L140 380 Z M140 65 L140 318 L208 318 C249 318 274 312 292 297 C316 276 329 241 329 193 C329 147 318 108 299 89 C282 72 256 65 212 65 L140 65 Z " />
<glyph glyph-name="Gamma" unicode="&#x393;" horiz-adv-x="340" d="M64 0 L140 0 L140 602 L348 602 L348 667 L64 667 L64 0 Z " />
<glyph glyph-name="uni0394" unicode="&#x394;" horiz-adv-x="400" d="M-3 0 L404 0 L246 667 L151 667 L-3 0 Z M83 67 L197 600 L309 67 L83 67 Z " />
<glyph glyph-name="Epsilon" unicode="&#x395;" horiz-adv-x="375" d="M140 602 L364 602 L364 667 L64 667 L64 0 L370 0 L370 65 L140 65 L140 314 L312 314 L312 379 L140 379 L140 602 Z " />
<glyph glyph-name="Zeta" unicode="&#x396;" horiz-adv-x="375" d="M99 68 L352 614 L352 667 L30 667 L30 602 L266 602 L18 68 L18 0 L358 0 L358 68 L99 68 Z " />
<glyph glyph-name="Eta" unicode="&#x397;" horiz-adv-x="477" d="M140 384 L140 667 L64 667 L64 0 L140 0 L140 319 L337 319 L337 0 L413 0 L413 667 L337 667 L337 384 L140 384 Z " />
<glyph glyph-name="Theta" unicode="&#x398;" horiz-adv-x="477" d="M310 379 L169 379 L169 314 L310 314 L310 379 Z M242 680 C108 680 41 562 41 327 C41 211 59 123 95 63 C124 15 175 -12 239 -12 C301 -12 346 12 377 64 C417 129 436 219 436 338 C436 563 370 680 242 680 L242 680 Z M240 615 C320 615 357 527 357 334 C357 140 321 53 239 53 C157 53 120 143 120 346 C120 529 158 615 240 615 L240 615 Z " />
<glyph glyph-name="Iota" unicode="&#x399;" horiz-adv-x="204" d="M64 0 L140 0 L140 667 L64 667 L64 0 Z " />
<glyph glyph-name="Kappa" unicode="&#x39a;" horiz-adv-x="426" d="M444 0 L263 424 L408 667 L326 667 L140 332 L140 667 L64 667 L64 0 L140 0 L140 221 L218 350 L358 0 L444 0 Z " />
<glyph glyph-name="Lambda" unicode="&#x39b;" horiz-adv-x="385" d="M227 667 L146 667 L-5 0 L72 0 L185 567 L299 0 L380 0 L227 667 Z " />
<glyph glyph-name="Mu" unicode="&#x39c;" horiz-adv-x="596" d="M64 0 L132 0 L126 572 L266 0 L323 0 L464 568 L458 0 L532 0 L532 667 L433 667 L298 125 L165 667 L64 667 L64 0 Z " />
<glyph glyph-name="Nu" unicode="&#x39d;" horiz-adv-x="494" d="M64 0 L132 0 L128 571 L356 0 L430 0 L430 667 L362 667 L366 145 L155 667 L64 667 L64 0 Z " />
<glyph glyph-name="Xi" unicode="&#x39e;" horiz-adv-x="344" d="M65 314 L280 314 L280 379 L65 379 L65 314 Z M7 0 L338 0 L338 65 L7 65 L7 0 Z M13 602 L332 602 L332 667 L13 667 L13 602 Z " />
<glyph glyph-name="Omicron" unicode="&#x39f;" horiz-adv-x="477" d="M242 679 C108 679 41 561 41 327 C41 211 59 123 95 63 C124 15 175 -12 239 -12 C301 -12 346 12 377 64 C417 129 436 219 436 338 C436 562 370 679 242 679 L242 679 Z M240 614 C320 614 357 526 357 334 C357 140 321 53 239 53 C157 53 120 143 120 345 C120 528 158 614 240 614 L240 614 Z " />
<glyph glyph-name="Pi" unicode="&#x3a0;" horiz-adv-x="477" d="M64 0 L140 0 L140 602 L337 602 L337 0 L413 0 L413 667 L64 667 L64 0 Z " />
<glyph glyph-name="Rho" unicode="&#x3a1;" horiz-adv-x="395" d="M64 0 L140 0 L140 271 L205 271 C324 271 389 340 389 468 C389 542 367 598 324 633 C294 658 258 667 193 667 L64 667 L64 0 Z M140 336 L140 602 L198 602 C227 602 251 597 265 587 C295 568 312 524 312 465 C312 375 279 336 202 336 L140 336 Z " />
<glyph glyph-name="Sigma" unicode="&#x3a3;" horiz-adv-x="375" d="M168 353 L18 68 L18 0 L358 0 L358 68 L99 68 L251 353 L116 602 L352 602 L352 667 L30 667 L30 614 L168 353 Z " />
<glyph glyph-name="Tau" unicode="&#x3a4;" horiz-adv-x="324" d="M123 0 L199 0 L199 602 L326 602 L326 667 L-2 667 L-2 602 L123 602 L123 0 Z " />
<glyph glyph-name="Upsilon" unicode="&#x3a5;" horiz-adv-x="358" d="M140 0 L216 0 L216 282 L368 667 L297 667 L183 358 L67 667 L-12 667 L140 282 L140 0 Z " />
<glyph glyph-name="Phi" unicode="&#x3a6;" horiz-adv-x="560" d="M244 0 L317 0 L317 49 C456 63 522 155 522 334 C522 513 456 604 317 619 L317 667 L244 667 L244 619 C105 604 39 513 39 334 C39 155 105 63 244 49 L244 0 Z M244 109 C155 126 114 196 114 334 C114 471 155 541 244 558 L244 109 Z M317 558 C406 541 447 471 447 334 C447 196 406 126 317 109 L317 558 Z " />
<glyph glyph-name="Chi" unicode="&#x3a7;" horiz-adv-x="375" d="M146 348 L0 0 L75 0 L182 277 L288 0 L374 0 L226 360 L356 667 L282 667 L189 427 L100 667 L18 667 L146 348 Z " />
<glyph glyph-name="Psi" unicode="&#x3a8;" horiz-adv-x="569" d="M249 0 L322 0 L322 129 C380 134 420 151 456 186 C506 238 519 299 518 469 L518 667 L445 667 L445 469 C448 265 423 207 322 194 L322 667 L249 667 L249 194 C148 208 122 266 126 469 L126 667 L53 667 L53 469 C52 313 62 258 99 204 C135 158 183 134 249 129 L249 0 Z " />
<glyph glyph-name="uni03A9" unicode="&#x3a9;" horiz-adv-x="500" d="M41 65 L41 0 L223 0 L223 65 C149 136 119 221 119 361 C119 516 170 613 250 613 C330 613 380 516 380 361 C380 221 351 136 277 65 L277 0 L458 0 L458 65 L347 65 C423 135 455 223 455 361 C455 554 375 678 250 678 C124 678 44 554 44 361 C44 223 76 135 153 65 L41 65 Z " />
<glyph glyph-name="Iotadieresis" unicode="&#x3aa;" horiz-adv-x="204" d="M64 0 L140 0 L140 667 L64 667 L64 0 Z M35 831 C8 831 -14 810 -14 783 C-14 756 8 734 35 734 C61 734 83 756 83 783 C83 809 61 831 35 831 L35 831 Z M170 831 C143 831 121 810 121 783 C121 756 143 734 169 734 C196 734 218 756 218 783 C218 809 196 831 170 831 L170 831 Z " />
<glyph glyph-name="Upsilondieresis" unicode="&#x3ab;" horiz-adv-x="358" d="M140 0 L216 0 L216 282 L368 667 L297 667 L183 358 L67 667 L-12 667 L140 282 L140 0 Z M111 831 C84 831 62 810 62 783 C62 756 84 734 111 734 C137 734 159 756 159 783 C159 809 137 831 111 831 L111 831 Z M246 831 C219 831 197 810 197 783 C197 756 219 734 245 734 C272 734 294 756 294 783 C294 809 272 831 246 831 L246 831 Z " />
<glyph glyph-name="alphatonos" unicode="&#x3ac;" horiz-adv-x="409" d="M175 575 L216 549 L308 718 L241 758 L175 575 Z M350 493 L281 493 L281 436 C262 482 233 502 188 502 C92 502 35 403 35 237 C35 77 86 -9 182 -9 C235 -9 266 12 290 63 L290 0 L350 0 L350 493 Z M281 181 C281 133 276 107 263 85 C247 60 226 47 199 47 C138 47 111 109 111 251 C111 384 138 443 197 443 C248 443 281 392 281 313 L281 181 Z " />
<glyph glyph-name="epsilontonos" unicode="&#x3ad;" horiz-adv-x="351" d="M219 288 L208 288 C145 288 119 312 119 369 C119 418 144 448 185 448 C226 448 249 420 260 356 L328 371 C312 463 265 506 180 506 C96 506 43 455 43 375 C43 325 64 291 114 261 C65 245 34 198 34 137 C34 46 88 -12 174 -12 C238 -12 274 7 303 55 C320 82 328 106 335 144 L267 158 C249 75 228 47 183 47 C136 47 110 80 110 139 C110 187 126 216 156 225 C170 229 176 229 219 229 L219 288 Z M144 575 L185 549 L277 718 L211 758 L144 575 Z " />
<glyph glyph-name="etatonos" unicode="&#x3ae;" horiz-adv-x="392" d="M59 0 L128 0 L128 284 C128 388 155 441 209 441 C256 441 271 411 271 313 L271 -167 L340 -167 L340 313 C340 396 337 427 325 451 C309 485 275 505 232 505 C181 505 144 476 123 418 L123 493 L59 493 L59 0 Z M167 575 L208 549 L300 718 L234 758 L167 575 Z " />
<glyph glyph-name="iotatonos" unicode="&#x3af;" horiz-adv-x="187" d="M59 0 L128 0 L128 493 L59 493 L59 0 Z M67 575 L109 549 L201 718 L134 758 L67 575 Z " />
<glyph glyph-name="upsilondieresistonos" unicode="&#x3b0;" horiz-adv-x="385" d="M273 795 L219 835 L158 702 L190 677 L273 795 Z M129 660 C104 660 85 638 85 611 C85 584 105 562 128 562 C153 562 173 583 173 611 C173 638 154 660 129 660 L129 660 Z M243 660 C219 660 199 638 199 611 C199 584 219 562 242 562 C267 562 287 583 287 611 C287 638 268 660 243 660 L243 660 Z M264 493 L264 156 C264 111 262 94 253 78 C242 58 218 45 193 45 C167 45 143 58 132 78 C123 94 121 111 121 156 L121 493 L52 493 L52 162 C52 109 59 66 71 45 C93 9 138 -12 194 -12 C246 -12 287 6 309 38 C325 59 333 102 333 162 L333 493 L264 493 Z " />
<glyph glyph-name="alpha" unicode="&#x3b1;" horiz-adv-x="409" d="M350 493 L281 493 L281 436 C262 482 233 502 188 502 C92 502 35 403 35 237 C35 77 86 -9 182 -9 C235 -9 266 12 290 63 L290 0 L350 0 L350 493 Z M281 181 C281 133 276 107 263 85 C247 60 226 47 199 47 C138 47 111 109 111 251 C111 384 138 443 197 443 C248 443 281 392 281 313 L281 181 Z " />
<glyph glyph-name="beta" unicode="&#x3b2;" horiz-adv-x="391" d="M54 -167 L123 -167 L123 31 C147 -2 171 -14 212 -14 C303 -14 361 68 361 195 C361 289 334 339 262 380 C306 406 331 459 331 526 C331 621 279 681 197 681 C141 681 99 659 79 619 C59 582 54 548 54 462 L54 -167 Z M123 466 C123 535 126 560 137 587 C148 611 168 625 193 625 C236 625 261 584 261 513 C261 468 249 433 229 416 C219 408 207 405 185 404 L185 345 C253 343 286 294 286 197 C286 108 248 42 196 42 C167 42 144 60 123 97 L123 466 Z " />
<glyph glyph-name="gamma" unicode="&#x3b3;" horiz-adv-x="296" d="M117 -167 L186 -167 L186 24 L302 493 L239 493 L152 122 L69 493 L-3 493 L117 24 L117 -167 Z " />
<glyph glyph-name="delta" unicode="&#x3b4;" horiz-adv-x="393" d="M320 667 L74 667 L74 609 L201 477 L183 478 C159 478 131 469 110 453 C60 416 34 338 34 227 C34 154 45 105 71 61 C101 11 140 -12 197 -12 C301 -12 359 78 359 237 C359 333 340 399 298 453 C283 472 241 521 226 536 L156 608 L320 608 L320 667 Z M197 435 C251 435 283 363 283 245 C283 116 253 47 198 47 C139 47 110 113 110 245 C110 367 141 435 197 435 L197 435 Z " />
<glyph glyph-name="epsilon" unicode="&#x3b5;" horiz-adv-x="351" d="M219 288 L208 288 C145 288 119 312 119 369 C119 418 144 448 185 448 C226 448 249 420 260 356 L328 371 C312 463 265 506 180 506 C96 506 43 455 43 375 C43 325 64 291 114 261 C65 245 34 198 34 137 C34 46 88 -12 174 -12 C238 -12 274 7 303 55 C320 82 328 106 335 144 L267 158 C249 75 228 47 183 47 C136 47 110 80 110 139 C110 187 126 216 156 225 C170 229 176 229 219 229 L219 288 Z " />
<glyph glyph-name="zeta" unicode="&#x3b6;" horiz-adv-x="268" d="M251 -176 C289 -114 306 -70 306 -32 C306 11 279 38 228 46 C180 53 180 53 173 55 C153 60 140 70 130 88 C115 115 108 156 108 210 C108 271 117 321 135 364 C152 403 203 486 239 532 L304 615 L304 667 L57 667 L57 608 L237 608 C189 563 155 525 121 480 C55 392 31 325 31 227 C31 172 38 123 51 88 C75 23 110 -5 177 -11 C217 -16 232 -24 232 -44 C232 -66 222 -91 189 -152 L251 -176 Z " />
<glyph glyph-name="eta" unicode="&#x3b7;" horiz-adv-x="392" d="M59 0 L128 0 L128 284 C128 388 155 441 209 441 C256 441 271 411 271 313 L271 -167 L340 -167 L340 313 C340 396 337 427 325 451 C309 485 275 505 232 505 C181 505 144 476 123 418 L123 493 L59 493 L59 0 Z " />
<glyph glyph-name="theta" unicode="&#x3b8;" horiz-adv-x="389" d="M194 681 C87 681 34 567 34 337 C34 216 45 137 70 82 C98 17 139 -14 194 -14 C245 -14 283 12 312 67 C341 122 355 206 355 333 C355 448 343 531 319 585 C291 650 250 681 194 681 L194 681 Z M108 375 C111 545 138 622 195 622 C252 622 279 544 281 375 L108 375 Z M281 318 C278 125 253 45 195 45 C136 45 110 128 108 318 L281 318 Z " />
<glyph glyph-name="iota" unicode="&#x3b9;" horiz-adv-x="187" d="M59 0 L128 0 L128 493 L59 493 L59 0 Z " />
<glyph glyph-name="kappa" unicode="&#x3ba;" horiz-adv-x="358" d="M225 302 L338 493 L266 493 L128 241 L128 493 L59 493 L59 0 L128 0 L128 139 L185 235 L274 0 L353 0 L225 302 Z " />
<glyph glyph-name="lambda" unicode="&#x3bb;" horiz-adv-x="290" d="M-5 0 L66 0 L147 341 L231 0 L293 0 L153 540 C128 635 97 672 42 672 C28 672 19 670 2 665 L2 604 C19 609 27 611 37 611 C66 611 76 596 95 517 L113 443 L-5 0 Z " />
<glyph glyph-name="uni03BC" unicode="&#x3bc;" horiz-adv-x="392" d="M333 493 L264 493 L264 176 C264 94 240 51 194 51 C143 51 121 89 121 176 L121 493 L52 493 L52 -167 L119 -167 L119 45 C141 4 163 -13 192 -13 C227 -13 253 10 269 56 L269 0 L333 0 L333 493 Z " />
<glyph glyph-name="nu" unicode="&#x3bd;" horiz-adv-x="307" d="M116 0 L191 0 L307 493 L239 493 L157 86 L72 493 L0 493 L116 0 Z " />
<glyph glyph-name="xi" unicode="&#x3be;" horiz-adv-x="312" d="M252 -176 C290 -115 308 -70 308 -31 C308 -5 298 14 278 28 C262 39 246 44 204 50 C168 55 157 59 145 70 C124 90 110 139 110 193 C110 252 132 299 168 317 C190 328 217 332 261 332 L261 389 C178 389 140 420 140 491 C140 568 184 608 268 608 L305 608 L305 667 L58 667 L58 608 L145 608 C93 585 66 542 66 482 C66 422 92 387 154 362 C70 333 34 280 34 184 C34 112 60 48 102 15 C123 -2 129 -4 194 -13 C221 -17 234 -27 234 -43 C234 -66 224 -90 190 -152 L252 -176 Z " />
<glyph glyph-name="omicron" unicode="&#x3bf;" horiz-adv-x="392" d="M198 505 C93 505 34 410 34 242 C34 74 89 -12 195 -12 C303 -12 358 74 358 242 C358 409 300 505 198 505 L198 505 Z M197 446 C257 446 282 384 282 235 C282 106 255 47 196 47 C136 47 110 106 110 243 C110 384 136 446 197 446 L197 446 Z " />
<glyph glyph-name="pi" unicode="&#x3c0;" horiz-adv-x="384" d="M60 0 L129 0 L129 434 L254 434 L254 0 L323 0 L323 434 L363 434 L363 493 L20 493 L20 434 L60 434 L60 0 Z " />
<glyph glyph-name="rho" unicode="&#x3c1;" horiz-adv-x="402" d="M52 -167 L121 -167 L121 50 C145 8 173 -9 219 -9 C316 -9 368 82 368 251 C368 420 317 505 214 505 C109 505 52 429 52 290 L52 -167 Z M121 289 C121 391 152 446 208 446 C267 446 292 386 292 245 C292 103 268 50 205 50 C176 50 155 63 138 92 C127 112 121 147 121 196 L121 289 Z " />
<glyph glyph-name="uni03C2" unicode="&#x3c2;" horiz-adv-x="363" d="M254 -176 C292 -115 310 -69 310 -31 C310 11 282 38 232 46 C187 53 187 53 180 54 C157 60 145 69 134 88 C117 118 111 162 111 243 C111 393 133 447 194 447 C240 447 263 414 274 333 L339 346 C327 451 277 506 194 506 C87 506 35 418 35 237 C35 140 50 78 84 35 C105 7 134 -7 181 -11 C221 -15 236 -24 236 -44 C236 -66 226 -92 193 -152 L254 -176 Z " />
<glyph glyph-name="sigma" unicode="&#x3c3;" horiz-adv-x="392" d="M366 436 L366 493 L255 493 C236 501 216 505 195 505 C94 505 34 408 34 244 C34 74 88 -12 195 -12 C242 -12 282 6 306 36 C339 80 357 151 357 240 C357 322 342 388 312 436 L366 436 Z M197 446 C256 446 281 384 281 236 C281 106 254 47 195 47 C136 47 110 106 110 243 C110 384 136 446 197 446 L197 446 Z " />
<glyph glyph-name="tau" unicode="&#x3c4;" horiz-adv-x="261" d="M96 434 L96 0 L165 0 L165 434 L253 434 L253 493 L140 493 L112 493 L7 493 L7 434 L96 434 Z " />
<glyph glyph-name="upsilon" unicode="&#x3c5;" horiz-adv-x="385" d="M264 493 L264 156 C264 111 262 94 253 78 C242 58 218 45 193 45 C167 45 143 58 132 78 C123 94 121 111 121 156 L121 493 L52 493 L52 162 C52 109 59 66 71 45 C93 9 138 -12 194 -12 C246 -12 287 6 309 38 C325 59 333 102 333 162 L333 493 L264 493 Z " />
<glyph glyph-name="phi" unicode="&#x3c6;" horiz-adv-x="471" d="M268 667 L202 667 L202 503 C88 488 34 405 34 246 C34 87 88 4 202 -11 L202 -167 L268 -167 L268 -11 C382 5 436 87 436 246 C436 405 382 488 268 503 L268 667 Z M268 444 C337 428 364 372 364 246 C364 121 336 63 268 48 L268 444 Z M202 48 C135 63 106 122 106 246 C106 370 134 429 202 444 L202 48 Z " />
<glyph glyph-name="chi" unicode="&#x3c7;" horiz-adv-x="315" d="M10 493 L119 187 L-8 -167 L62 -167 L151 104 L242 -167 L316 -167 L189 189 L298 493 L230 493 L157 272 L83 493 L10 493 Z " />
<glyph glyph-name="psi" unicode="&#x3c8;" horiz-adv-x="500" d="M222 -167 L288 -167 L288 -12 C408 -6 458 66 453 225 L453 493 L387 493 L387 225 C389 97 365 55 288 48 L288 493 L222 493 L222 48 C145 55 121 97 123 225 L123 493 L57 493 L57 225 C52 66 102 -5 222 -12 L222 -167 Z " />
<glyph glyph-name="omega" unicode="&#x3c9;" horiz-adv-x="501" d="M283 370 L217 370 L217 192 C217 126 215 100 206 79 C198 59 184 47 169 47 C131 47 108 114 108 226 C108 322 126 400 166 469 L114 507 C58 425 35 342 35 228 C35 126 56 57 102 14 C118 -2 142 -12 163 -12 C206 -12 234 13 250 64 C266 13 294 -12 337 -12 C358 -12 382 -2 398 14 C444 57 465 126 465 228 C465 342 442 425 386 507 L334 468 C373 400 392 322 392 225 C392 114 369 47 331 47 C316 47 302 59 294 79 C285 100 283 126 283 192 L283 370 Z " />
<glyph glyph-name="iotadieresis" unicode="&#x3ca;" horiz-adv-x="187" d="M59 0 L128 0 L128 493 L59 493 L59 0 Z M33 671 C6 671 -15 650 -15 624 C-15 598 6 577 32 577 C58 577 79 598 79 624 C79 650 58 671 33 671 L33 671 Z M155 671 C128 671 107 650 107 624 C107 598 128 577 154 577 C180 577 201 598 201 624 C201 650 180 671 155 671 L155 671 Z " />
<glyph glyph-name="upsilondieresis" unicode="&#x3cb;" horiz-adv-x="385" d="M264 493 L264 156 C264 111 262 94 253 78 C242 58 218 45 193 45 C167 45 143 58 132 78 C123 94 121 111 121 156 L121 493 L52 493 L52 162 C52 109 59 66 71 45 C93 9 138 -12 194 -12 C246 -12 287 6 309 38 C325 59 333 102 333 162 L333 493 L264 493 Z M132 671 C105 671 84 650 84 624 C84 598 105 577 131 577 C157 577 178 598 178 624 C178 650 157 671 132 671 L132 671 Z M255 671 C228 671 207 650 207 624 C207 598 228 577 254 577 C280 577 301 598 301 624 C301 650 280 671 255 671 L255 671 Z " />
<glyph glyph-name="omicrontonos" unicode="&#x3cc;" horiz-adv-x="392" d="M198 505 C93 505 34 410 34 242 C34 74 89 -12 195 -12 C303 -12 358 74 358 242 C358 409 300 505 198 505 L198 505 Z M197 446 C257 446 282 384 282 235 C282 106 255 47 196 47 C136 47 110 106 110 243 C110 384 136 446 197 446 L197 446 Z M164 575 L205 549 L297 718 L230 758 L164 575 Z " />
<glyph glyph-name="upsilontonos" unicode="&#x3cd;" horiz-adv-x="385" d="M264 493 L264 156 C264 111 262 94 253 78 C242 58 218 45 193 45 C167 45 143 58 132 78 C123 94 121 111 121 156 L121 493 L52 493 L52 162 C52 109 59 66 71 45 C93 9 138 -12 194 -12 C246 -12 287 6 309 38 C325 59 333 102 333 162 L333 493 L264 493 Z M158 575 L200 549 L292 718 L225 758 L158 575 Z " />
<glyph glyph-name="omegatonos" unicode="&#x3ce;" horiz-adv-x="501" d="M283 370 L250 370 L217 370 L217 192 C217 126 215 100 206 79 C198 59 184 47 169 47 C131 47 108 114 108 226 C108 322 126 399 166 469 L114 507 C58 424 35 343 35 229 C35 126 56 57 102 14 C118 -2 142 -12 163 -12 C206 -12 234 13 250 64 C266 13 294 -12 337 -12 C358 -12 382 -2 398 14 C444 57 465 126 465 229 C465 343 442 424 386 507 L334 468 C374 400 392 322 392 225 C392 114 369 47 331 47 C316 47 302 59 294 79 C285 100 283 126 283 192 L283 370 Z M220 575 L262 549 L354 718 L287 758 L220 575 Z " />
<glyph glyph-name="theta1" unicode="&#x3d1;" horiz-adv-x="402" d="M23 273 L23 218 L63 218 C65 155 69 117 80 85 C102 21 141 -13 195 -13 C258 -13 300 27 323 112 C337 164 346 240 348 315 C359 316 368 317 392 320 L392 382 C370 377 361 375 348 373 C344 568 288 679 196 679 C130 679 85 613 85 518 C85 392 161 309 278 310 C278 142 248 45 196 45 C172 45 152 67 142 105 C131 145 130 160 129 273 L23 273 Z M277 370 C238 373 213 381 195 396 C168 419 152 463 152 521 C152 579 172 621 200 621 C220 621 239 604 249 577 C266 532 277 446 277 370 L277 370 Z " />
<glyph glyph-name="phi1" unicode="&#x3d5;" horiz-adv-x="457" d="M124 473 C66 437 34 355 34 242 C34 88 88 5 196 -10 L196 -166 L262 -166 L262 -10 C371 5 424 88 424 241 C424 412 355 505 227 505 C216 505 207 504 196 503 L196 49 C134 64 106 123 106 241 C106 318 121 382 146 412 L124 473 Z M262 443 L265 443 C287 441 318 414 331 386 C344 355 352 300 352 236 C352 123 323 63 262 49 L262 443 Z " />
<glyph glyph-name="uni0400" unicode="&#x400;" horiz-adv-x="375" d="M140 602 L369 602 L369 667 L64 667 L64 0 L375 0 L375 65 L140 65 L140 314 L317 314 L317 379 L140 379 L140 602 Z M110 861 L79 792 L261 727 L280 766 L110 861 Z " />
<glyph glyph-name="afii10023" unicode="&#x401;" horiz-adv-x="375" d="M140 602 L364 602 L364 667 L64 667 L64 0 L370 0 L370 65 L140 65 L140 314 L312 314 L312 379 L140 379 L140 602 Z M158 831 C131 831 109 810 109 783 C109 756 131 734 158 734 C184 734 206 756 206 783 C206 809 184 831 158 831 L158 831 Z M293 831 C266 831 244 810 244 783 C244 756 266 734 292 734 C319 734 341 756 341 783 C341 809 319 831 293 831 L293 831 Z " />
<glyph glyph-name="afii10051" unicode="&#x402;" horiz-adv-x="458" d="M148 602 L337 602 L337 667 L9 667 L9 602 L72 602 L72 0 L148 0 L148 239 C148 315 192 372 250 372 C280 372 308 354 321 327 C337 295 342 254 342 156 C342 4 337 -42 316 -72 C302 -93 280 -102 240 -102 L240 -167 C278 -167 295 -164 316 -156 C359 -140 391 -103 406 -52 C415 -19 418 26 418 168 C418 279 411 325 387 368 C362 414 320 439 268 439 C214 439 185 421 148 367 L148 602 Z " />
<glyph glyph-name="afii10052" unicode="&#x403;" horiz-adv-x="340" d="M125 778 L145 733 L309 793 L278 861 L125 778 Z M64 0 L140 0 L140 602 L348 602 L348 667 L64 667 L64 0 Z " />
<glyph glyph-name="afii10053" unicode="&#x404;" horiz-adv-x="418" d="M122 379 C129 536 166 614 236 614 C291 614 317 578 332 478 L402 494 C381 623 330 679 234 679 C186 679 147 662 120 629 C68 567 41 460 41 321 C41 183 67 86 119 31 C144 4 187 -12 233 -12 C327 -12 375 40 402 170 L332 183 C314 84 290 53 234 53 C159 53 122 139 121 314 L293 314 L293 379 L122 379 Z " />
<glyph glyph-name="afii10054" unicode="&#x405;" horiz-adv-x="409" d="M379 517 C352 627 296 679 204 679 C105 679 37 606 37 500 C37 442 57 397 95 367 C122 346 131 342 218 299 C291 264 312 235 312 172 C312 98 273 53 209 53 C142 53 99 99 84 186 L14 168 C34 50 101 -12 207 -12 C315 -12 389 65 389 177 C389 237 371 282 335 314 C312 333 284 349 201 390 C131 424 110 451 110 504 C110 570 147 614 202 614 C258 614 293 577 309 501 L379 517 Z " />
<glyph glyph-name="afii10055" unicode="&#x406;" horiz-adv-x="204" d="M64 0 L140 0 L140 667 L64 667 L64 0 Z " />
<glyph glyph-name="afii10056" unicode="&#x407;" horiz-adv-x="204" d="M65 0 L141 0 L141 667 L65 667 L65 0 Z M40 831 C13 831 -9 810 -9 783 C-9 756 13 734 40 734 C66 734 88 756 88 783 C88 809 66 831 40 831 L40 831 Z M165 831 C138 831 116 810 116 783 C116 756 138 734 164 734 C191 734 213 756 213 783 C213 809 191 831 165 831 L165 831 Z " />
<glyph glyph-name="afii10057" unicode="&#x408;" horiz-adv-x="272" d="M145 667 L145 221 C145 75 135 53 64 53 C42 53 28 54 5 59 L5 0 C27 -8 53 -12 84 -12 C139 -12 181 13 203 58 C218 89 220 104 221 225 L221 667 L145 667 Z " />
<glyph glyph-name="afii10058" unicode="&#x409;" horiz-adv-x="596" d="M304 396 L261 667 L150 667 L3 0 L71 0 L200 592 L203 592 L296 0 L402 0 C510 0 564 66 564 195 C564 273 546 329 512 362 C484 388 454 396 380 396 L304 396 Z M356 65 L314 331 L403 331 C457 331 488 283 488 199 C488 114 457 65 403 65 L356 65 Z " />
<glyph glyph-name="afii10059" unicode="&#x40a;" horiz-adv-x="654" d="M406 667 L330 667 L330 392 L140 392 L140 667 L64 667 L64 0 L140 0 L140 327 L330 327 L330 0 L452 0 C509 0 545 8 572 26 C621 58 648 118 648 198 C648 324 583 392 465 392 L406 392 L406 667 Z M406 327 L461 327 C538 327 571 289 571 202 C571 143 554 99 524 80 C510 70 486 65 457 65 L406 65 L406 327 Z " />
<glyph glyph-name="afii10060" unicode="&#x40b;" horiz-adv-x="457" d="M141 602 L330 602 L330 667 L2 667 L2 602 L65 602 L65 0 L141 0 L141 290 C170 344 208 372 251 372 C308 372 337 323 337 227 L337 0 L413 0 L413 220 C413 292 406 328 386 368 C361 416 322 439 268 439 C212 439 181 422 141 367 L141 602 Z " />
<glyph glyph-name="afii10061" unicode="&#x40c;" horiz-adv-x="426" d="M160 778 L180 733 L344 793 L313 861 L160 778 Z M444 0 L263 424 L408 667 L326 667 L140 332 L140 667 L64 667 L64 0 L140 0 L140 221 L218 350 L358 0 L444 0 Z " />
<glyph glyph-name="uni040D" unicode="&#x40d;" horiz-adv-x="375" d="M140 602 L369 602 L369 667 L64 667 L64 0 L375 0 L375 65 L140 65 L140 314 L317 314 L317 379 L140 379 L140 602 Z M149 833 C122 833 99 810 99 782 C99 755 122 732 149 732 C177 732 200 754 200 781 C200 810 178 833 149 833 L149 833 Z M290 833 C263 833 240 810 240 782 C240 754 263 732 291 732 C319 732 342 754 342 781 C342 811 320 833 290 833 L290 833 Z " />
<glyph glyph-name="afii10062" unicode="&#x40e;" horiz-adv-x="358" d="M59 839 C71 765 109 731 181 731 C253 731 292 765 304 839 L251 839 C242 804 223 791 181 791 C139 791 120 804 112 839 L59 839 Z M150 188 L134 135 C117 82 105 67 75 65 L53 65 L53 0 L80 0 C141 -2 178 30 200 105 L368 667 L294 667 L184 287 L67 667 L-10 667 L150 188 Z " />
<glyph glyph-name="afii10145" unicode="&#x40f;" horiz-adv-x="477" d="M273 0 L413 0 L413 667 L337 667 L337 65 L140 65 L140 667 L64 667 L64 0 L204 0 L211 -133 L266 -133 L273 0 Z " />
<glyph glyph-name="afii10017" unicode="&#x410;" horiz-adv-x="375" d="M148 667 L-4 0 L67 0 L108 193 L258 193 L300 0 L378 0 L228 667 L148 667 Z M245 255 L122 255 L185 587 L245 255 Z " />
<glyph glyph-name="afii10018" unicode="&#x411;" horiz-adv-x="426" d="M370 667 L64 667 L64 0 L211 0 C275 0 306 5 333 21 C378 47 405 109 405 186 C405 239 392 284 368 318 C335 366 284 387 202 387 L140 387 L140 602 L370 602 L370 667 Z M140 65 L140 321 L208 321 C249 321 273 315 291 299 C315 278 328 242 328 193 C328 147 317 108 298 89 C281 72 255 65 212 65 L140 65 Z " />
<glyph glyph-name="afii10019" unicode="&#x412;" horiz-adv-x="439" d="M64 0 L211 0 C275 0 307 5 333 21 C378 47 406 109 406 185 C406 276 373 330 301 355 C325 363 339 371 350 385 C371 411 384 453 384 500 C384 556 366 602 333 632 C305 657 267 667 203 667 L64 667 L64 0 Z M140 380 L140 602 L198 602 C277 602 309 569 309 490 C309 410 280 380 202 380 L140 380 Z M140 65 L140 318 L208 318 C249 318 274 312 292 297 C316 276 329 241 329 193 C329 147 318 108 299 89 C282 72 256 65 212 65 L140 65 Z " />
<glyph glyph-name="afii10020" unicode="&#x413;" horiz-adv-x="340" d="M64 0 L140 0 L140 602 L348 602 L348 667 L64 667 L64 0 Z " />
<glyph glyph-name="afii10021" unicode="&#x414;" horiz-adv-x="467" d="M43 65 L16 65 L16 -141 L73 -141 L80 0 L387 0 L394 -141 L451 -141 L451 65 L424 65 L286 667 L178 667 L43 65 Z M107 65 L222 604 L236 604 L351 65 L107 65 Z " />
<glyph glyph-name="afii10022" unicode="&#x415;" horiz-adv-x="375" d="M140 602 L364 602 L364 667 L64 667 L64 0 L370 0 L370 65 L140 65 L140 314 L312 314 L312 379 L140 379 L140 602 Z " />
<glyph glyph-name="afii10024" unicode="&#x416;" horiz-adv-x="569" d="M397 376 L540 667 L464 667 L332 388 L316 378 L316 667 L243 667 L243 378 L227 388 L92 667 L11 667 L162 359 L0 0 L73 0 L222 331 L243 316 L243 0 L316 0 L316 316 L337 331 L486 0 L568 0 L397 376 Z " />
<glyph glyph-name="afii10025" unicode="&#x417;" horiz-adv-x="426" d="M166 315 L195 315 C271 315 318 264 318 182 C318 104 276 52 214 52 C184 52 156 63 138 81 C120 100 112 124 102 183 L32 170 C41 103 54 69 78 42 C109 9 158 -12 208 -12 C258 -12 312 10 344 43 C378 77 396 127 396 185 C396 273 357 330 283 352 C345 373 377 422 377 501 C377 607 311 680 215 680 C110 680 56 624 37 494 L106 479 C121 579 148 615 210 615 C238 615 262 605 275 588 C292 567 302 527 302 487 C302 464 297 443 288 425 C272 393 245 380 197 380 L166 380 L166 315 Z " />
<glyph glyph-name="afii10026" unicode="&#x418;" horiz-adv-x="494" d="M430 0 L430 667 L354 667 L354 630 L140 155 L140 667 L64 667 L64 0 L140 0 L140 32 L354 509 L354 0 L430 0 Z " />
<glyph glyph-name="afii10027" unicode="&#x419;" horiz-adv-x="494" d="M127 839 C139 765 177 731 249 731 C321 731 359 765 371 839 L319 839 C310 804 291 791 249 791 C207 791 188 804 179 839 L127 839 Z M430 0 L430 667 L354 667 L354 630 L140 155 L140 667 L64 667 L64 0 L140 0 L140 32 L354 509 L354 0 L430 0 Z " />
<glyph glyph-name="afii10028" unicode="&#x41a;" horiz-adv-x="426" d="M444 0 L263 424 L408 667 L326 667 L140 332 L140 667 L64 667 L64 0 L140 0 L140 221 L218 350 L358 0 L444 0 Z " />
<glyph glyph-name="afii10029" unicode="&#x41b;" horiz-adv-x="420" d="M80 0 L209 597 L213 597 L338 0 L414 0 L264 667 L162 667 L7 0 L80 0 Z " />
<glyph glyph-name="afii10030" unicode="&#x41c;" horiz-adv-x="596" d="M64 0 L132 0 L126 572 L266 0 L323 0 L464 568 L458 0 L532 0 L532 667 L433 667 L298 125 L165 667 L64 667 L64 0 Z " />
<glyph glyph-name="afii10031" unicode="&#x41d;" horiz-adv-x="477" d="M140 384 L140 667 L64 667 L64 0 L140 0 L140 319 L337 319 L337 0 L413 0 L413 667 L337 667 L337 384 L140 384 Z " />
<glyph glyph-name="afii10032" unicode="&#x41e;" horiz-adv-x="477" d="M242 680 C108 680 41 562 41 327 C41 211 59 123 95 63 C124 15 175 -12 239 -12 C301 -12 346 12 377 64 C417 129 436 219 436 338 C436 563 370 680 242 680 L242 680 Z M240 615 C320 615 357 527 357 334 C357 140 321 53 239 53 C157 53 120 143 120 346 C120 529 158 615 240 615 L240 615 Z " />
<glyph glyph-name="afii10033" unicode="&#x41f;" horiz-adv-x="477" d="M413 667 L64 667 L64 0 L140 0 L140 602 L337 602 L337 0 L413 0 L413 667 Z " />
<glyph glyph-name="afii10034" unicode="&#x420;" horiz-adv-x="395" d="M64 0 L140 0 L140 271 L205 271 C324 271 389 340 389 468 C389 542 367 598 324 633 C294 658 258 667 193 667 L64 667 L64 0 Z M140 336 L140 602 L198 602 C227 602 251 597 265 587 C295 568 312 524 312 465 C312 375 279 336 202 336 L140 336 Z " />
<glyph glyph-name="afii10035" unicode="&#x421;" horiz-adv-x="409" d="M402 494 C381 623 330 679 234 679 C186 679 147 662 120 629 C68 567 41 461 41 322 C41 183 67 86 119 31 C144 4 187 -12 233 -12 C327 -12 376 41 402 170 L332 183 C314 84 290 53 235 53 C158 53 121 142 121 326 C121 518 159 614 237 614 C291 614 316 579 332 479 L402 494 Z " />
<glyph glyph-name="afii10036" unicode="&#x422;" horiz-adv-x="324" d="M123 0 L199 0 L199 602 L326 602 L326 667 L-2 667 L-2 602 L123 602 L123 0 Z " />
<glyph glyph-name="afii10037" unicode="&#x423;" horiz-adv-x="358" d="M150 188 L134 135 C117 82 105 67 75 65 L53 65 L53 0 L80 0 C141 -2 178 30 200 105 L368 667 L294 667 L184 287 L67 667 L-10 667 L150 188 Z " />
<glyph glyph-name="afii10038" unicode="&#x424;" horiz-adv-x="560" d="M244 0 L317 0 L317 49 C456 63 522 155 522 334 C522 513 456 604 317 619 L317 667 L244 667 L244 619 C105 604 39 513 39 334 C39 155 105 63 244 49 L244 0 Z M244 109 C155 126 114 196 114 334 C114 471 155 541 244 558 L244 109 Z M317 558 C406 541 447 471 447 334 C447 196 406 126 317 109 L317 558 Z " />
<glyph glyph-name="afii10039" unicode="&#x425;" horiz-adv-x="375" d="M146 348 L0 0 L75 0 L182 277 L288 0 L374 0 L226 360 L356 667 L282 667 L189 427 L100 667 L18 667 L146 348 Z " />
<glyph glyph-name="afii10040" unicode="&#x426;" horiz-adv-x="477" d="M64 0 L403 0 L410 -133 L466 -133 L466 65 L413 65 L413 667 L337 667 L337 65 L140 65 L140 667 L64 667 L64 0 Z " />
<glyph glyph-name="afii10041" unicode="&#x427;" horiz-adv-x="457" d="M317 0 L393 0 L393 667 L317 667 L317 383 C290 324 254 294 211 294 C181 294 154 311 139 339 C126 365 121 391 121 440 L121 667 L45 667 L45 447 C45 375 52 339 73 299 C99 251 140 227 193 227 C250 227 280 246 317 306 L317 0 Z " />
<glyph glyph-name="afii10042" unicode="&#x428;" horiz-adv-x="655" d="M364 65 L364 667 L291 667 L291 65 L137 65 L137 667 L64 667 L64 0 L591 0 L591 667 L518 667 L518 65 L364 65 Z " />
<glyph glyph-name="afii10043" unicode="&#x429;" horiz-adv-x="655" d="M591 667 L518 667 L518 65 L364 65 L364 667 L291 667 L291 65 L137 65 L137 667 L64 667 L64 0 L581 0 L588 -133 L644 -133 L644 65 L591 65 L591 667 Z " />
<glyph glyph-name="afii10044" unicode="&#x42a;" horiz-adv-x="420" d="M90 602 L90 0 L219 0 C276 0 311 8 339 26 C389 58 415 118 415 199 C415 326 350 395 231 395 L166 395 L166 667 L-10 667 L-10 602 L90 602 Z M166 330 L228 330 C305 330 338 291 338 202 C338 143 321 99 291 79 C277 70 253 65 224 65 L166 65 L166 330 Z " />
<glyph glyph-name="afii10045" unicode="&#x42b;" horiz-adv-x="579" d="M64 667 L64 0 L193 0 C250 0 285 8 313 26 C363 58 389 118 389 199 C389 326 324 395 205 395 L140 395 L140 667 L64 667 Z M140 330 L202 330 C279 330 312 291 312 202 C312 143 295 99 265 79 C251 70 227 65 198 65 L140 65 L140 330 Z M514 667 L439 667 L439 0 L514 0 L514 667 Z " />
<glyph glyph-name="afii10046" unicode="&#x42c;" horiz-adv-x="395" d="M64 667 L64 0 L193 0 C250 0 285 8 313 26 C363 58 389 118 389 199 C389 326 324 395 205 395 L140 395 L140 667 L64 667 Z M140 330 L202 330 C279 330 312 291 312 202 C312 143 295 99 265 79 C251 70 227 65 198 65 L140 65 L140 330 Z " />
<glyph glyph-name="afii10047" unicode="&#x42d;" horiz-adv-x="441" d="M144 379 L144 314 L320 314 C316 128 282 53 203 53 C145 53 110 96 96 183 L19 169 C42 49 103 -12 201 -12 C265 -12 309 12 341 64 C381 129 400 218 400 337 C400 564 334 679 203 679 C107 679 52 623 20 495 L94 478 C111 574 143 614 202 614 C278 614 313 544 320 379 L144 379 Z " />
<glyph glyph-name="afii10048" unicode="&#x42e;" horiz-adv-x="657" d="M140 384 L140 667 L64 667 L64 0 L140 0 L140 319 L221 319 C221 246 229 186 244 136 C274 35 329 -12 418 -12 C481 -12 526 12 557 64 C597 129 616 218 616 338 C616 564 550 679 419 679 C298 679 236 585 222 384 L140 384 Z M420 614 C500 614 537 526 537 333 C537 139 501 53 419 53 C337 53 300 143 300 345 C300 528 338 614 420 614 L420 614 Z " />
<glyph glyph-name="afii10049" unicode="&#x42f;" horiz-adv-x="433" d="M369 0 L369 667 L221 667 C149 667 118 658 88 628 C52 592 34 543 34 481 C34 390 65 332 126 307 L19 0 L101 0 L198 292 L293 292 L293 0 L369 0 Z M293 357 L220 357 C179 357 157 365 140 386 C121 408 111 442 111 478 C111 517 123 554 143 576 C159 595 183 602 224 602 L293 602 L293 357 Z " />
<glyph glyph-name="afii10065" unicode="&#x430;" horiz-adv-x="392" d="M346 0 C341 30 339 56 339 114 L339 314 C339 403 333 437 312 462 C288 490 250 505 200 505 C115 505 67 464 46 372 L110 355 C124 426 144 448 194 448 C228 448 250 435 259 408 C267 389 269 365 268 304 L253 305 L224 305 C104 305 34 242 34 134 C34 43 83 -12 163 -12 C219 -12 249 10 275 72 C275 36 277 24 284 0 L346 0 Z M268 250 C268 190 266 158 260 133 C246 77 215 47 172 47 C131 47 108 78 108 133 C108 216 146 250 238 250 L268 250 Z " />
<glyph glyph-name="afii10066" unicode="&#x431;" horiz-adv-x="392" d="M253 713 C249 680 243 672 209 662 C135 644 120 635 93 593 C54 535 35 423 35 260 C35 147 49 83 85 37 C110 5 149 -12 195 -12 C303 -12 358 74 358 242 C358 406 301 504 204 504 C171 504 154 495 119 459 C133 558 153 592 209 605 L248 615 C295 628 318 660 319 713 L253 713 Z M197 446 C257 446 282 384 282 236 C282 106 255 47 196 47 C136 47 110 106 110 243 C110 384 136 446 197 446 L197 446 Z " />
<glyph glyph-name="afii10067" unicode="&#x432;" horiz-adv-x="370" d="M59 0 L182 0 C235 0 262 4 284 15 C321 34 344 79 344 136 C344 204 317 244 258 263 C302 276 326 314 326 368 C326 411 311 445 283 467 C261 485 229 493 176 493 L59 493 L59 0 Z M128 288 L128 433 L171 433 C230 433 254 411 254 359 C254 307 232 288 174 288 L128 288 Z M128 60 L128 229 L179 229 C243 229 270 204 270 145 C270 83 246 60 182 60 L128 60 Z " />
<glyph glyph-name="afii10068" unicode="&#x433;" horiz-adv-x="291" d="M288 493 L59 493 L59 0 L128 0 L128 436 L288 436 L288 493 Z " />
<glyph glyph-name="afii10069" unicode="&#x434;" horiz-adv-x="339" d="M29 59 L5 59 L5 -114 L53 -114 L60 0 L278 0 L285 -114 L333 -114 L333 59 L309 59 L224 493 L121 493 L29 59 Z M92 59 L169 422 L171 422 L241 59 L92 59 Z " />
<glyph glyph-name="afii10070" unicode="&#x435;" horiz-adv-x="375" d="M356 238 C356 315 350 359 337 397 C312 468 265 505 198 505 C94 505 34 407 34 239 C34 71 88 -12 198 -12 C283 -12 326 28 351 130 L290 145 C273 75 249 47 205 47 C138 47 107 107 107 238 L356 238 Z M108 295 C116 402 141 446 197 446 C229 446 253 429 266 396 C275 373 278 347 280 295 L108 295 Z " />
<glyph glyph-name="afii10072" unicode="&#x436;" horiz-adv-x="432" d="M317 275 L414 493 L348 493 L255 281 L247 278 L247 493 L183 493 L183 278 L175 280 L81 493 L6 493 L113 261 L-10 0 L58 0 L167 235 L183 230 L183 0 L247 0 L247 229 L261 234 L365 0 L442 0 L317 275 Z " />
<glyph glyph-name="afii10073" unicode="&#x437;" horiz-adv-x="351" d="M133 288 L133 229 C176 229 182 229 196 225 C226 216 242 187 242 139 C242 80 216 47 169 47 C124 47 103 75 85 158 L17 144 C24 106 32 82 49 55 C78 7 114 -12 178 -12 C263 -12 318 46 318 137 C318 198 287 245 238 261 C288 291 309 325 309 375 C309 455 256 506 172 506 C87 506 40 463 24 371 L92 356 C103 420 126 448 167 448 C208 448 233 418 233 369 C233 312 206 288 144 288 L133 288 Z " />
<glyph glyph-name="afii10074" unicode="&#x438;" horiz-adv-x="398" d="M271 337 L271 0 L340 0 L340 493 L271 493 L271 461 L128 156 L128 493 L59 493 L59 0 L128 0 L128 43 L271 337 Z " />
<glyph glyph-name="afii10075" unicode="&#x439;" horiz-adv-x="398" d="M89 684 C92 614 133 577 207 577 C279 577 320 615 323 684 L271 684 C266 649 245 632 206 632 C168 632 146 649 141 684 L89 684 Z M271 337 L271 0 L340 0 L340 493 L271 493 L271 461 L128 156 L128 493 L59 493 L59 0 L128 0 L128 43 L271 337 Z " />
<glyph glyph-name="afii10076" unicode="&#x43a;" horiz-adv-x="358" d="M225 302 L338 493 L266 493 L128 241 L128 493 L59 493 L59 0 L128 0 L128 139 L185 235 L274 0 L353 0 L225 302 Z " />
<glyph glyph-name="afii10077" unicode="&#x43b;" horiz-adv-x="315" d="M0 0 L68 0 L157 402 L245 0 L315 0 L204 493 L114 493 L0 0 Z " />
<glyph glyph-name="afii10078" unicode="&#x43c;" horiz-adv-x="538" d="M59 0 L124 0 L124 432 L229 0 L305 0 L412 425 L412 0 L479 0 L479 493 L377 493 L271 66 L168 493 L59 493 L59 0 Z " />
<glyph glyph-name="afii10079" unicode="&#x43d;" horiz-adv-x="399" d="M128 232 L271 232 L271 0 L340 0 L340 493 L271 493 L271 291 L128 291 L128 493 L59 493 L59 0 L128 0 L128 232 Z " />
<glyph glyph-name="afii10080" unicode="&#x43e;" horiz-adv-x="392" d="M198 505 C93 505 34 410 34 242 C34 74 89 -12 195 -12 C303 -12 358 74 358 242 C358 409 300 505 198 505 L198 505 Z M197 446 C257 446 282 384 282 235 C282 106 255 47 196 47 C136 47 110 106 110 243 C110 384 136 446 197 446 L197 446 Z " />
<glyph glyph-name="afii10081" unicode="&#x43f;" horiz-adv-x="399" d="M128 434 L271 434 L271 0 L340 0 L340 493 L59 493 L59 0 L128 0 L128 434 Z " />
<glyph glyph-name="afii10082" unicode="&#x440;" horiz-adv-x="409" d="M59 -167 L128 -167 L128 50 C152 8 180 -9 226 -9 C323 -9 375 82 375 249 C375 411 323 502 230 502 C176 502 143 474 124 413 L124 493 L59 493 L59 -167 Z M128 286 C128 388 159 443 215 443 C274 443 299 383 299 244 C299 103 275 50 212 50 C183 50 162 63 145 92 C134 112 128 147 128 196 L128 286 Z " />
<glyph glyph-name="afii10083" unicode="&#x441;" horiz-adv-x="358" d="M338 346 C326 451 276 505 193 505 C86 505 34 417 34 237 C34 67 85 -12 193 -12 C279 -12 320 35 338 151 L273 159 C263 81 239 47 192 47 C131 47 110 98 110 247 C110 392 133 446 193 446 C239 446 262 413 273 333 L338 346 Z " />
<glyph glyph-name="afii10084" unicode="&#x442;" horiz-adv-x="261" d="M96 434 L96 0 L165 0 L165 434 L253 434 L253 493 L140 493 L112 493 L7 493 L7 434 L96 434 Z " />
<glyph glyph-name="afii10085" unicode="&#x443;" horiz-adv-x="290" d="M-4 493 L114 50 L96 -24 C77 -101 67 -117 38 -117 C28 -117 20 -116 3 -111 L3 -172 C21 -177 30 -178 43 -178 C98 -178 129 -141 154 -47 L294 493 L232 493 L148 152 L67 493 L-4 493 Z " />
<glyph glyph-name="afii10086" unicode="&#x444;" horiz-adv-x="460" d="M198 493 C158 485 138 477 115 460 C57 415 27 343 27 247 C27 157 51 91 102 45 C128 20 151 10 198 0 L198 -167 L262 -167 L262 0 C302 8 322 16 345 34 C403 78 433 151 433 247 C433 336 408 402 358 448 C332 473 309 484 262 493 L262 667 L198 667 L198 493 Z M262 436 C329 414 362 352 362 247 C362 142 329 80 262 58 L262 436 Z M198 58 C131 80 98 142 98 247 C98 352 131 414 198 436 L198 58 Z " />
<glyph glyph-name="afii10087" unicode="&#x445;" horiz-adv-x="307" d="M117 261 L2 0 L72 0 L151 198 L231 0 L304 0 L189 261 L287 493 L219 493 L156 322 L89 493 L14 493 L117 261 Z " />
<glyph glyph-name="afii10088" unicode="&#x446;" horiz-adv-x="402" d="M340 59 L340 493 L271 493 L271 59 L128 59 L128 493 L59 493 L59 0 L336 0 L341 -114 L390 -114 L390 59 L340 59 Z " />
<glyph glyph-name="afii10089" unicode="&#x447;" horiz-adv-x="382" d="M323 0 L323 493 L254 493 L254 265 C225 235 205 225 177 225 C153 225 135 234 124 250 C115 264 111 290 111 344 L111 493 L42 493 L42 356 C42 273 46 241 59 217 C77 182 112 161 152 161 C193 161 221 175 254 212 L254 0 L323 0 Z " />
<glyph glyph-name="afii10090" unicode="&#x448;" horiz-adv-x="568" d="M317 59 L317 493 L250 493 L250 59 L126 59 L126 493 L59 493 L59 0 L509 0 L509 493 L442 493 L442 59 L317 59 Z " />
<glyph glyph-name="afii10091" unicode="&#x449;" horiz-adv-x="572" d="M317 59 L317 493 L250 493 L250 59 L126 59 L126 493 L59 493 L59 0 L505 0 L510 -114 L560 -114 L560 59 L509 59 L509 493 L442 493 L442 59 L317 59 Z " />
<glyph glyph-name="afii10092" unicode="&#x44a;" horiz-adv-x="375" d="M-24 493 L-24 434 L71 434 L71 0 L192 0 C263 0 292 7 317 31 C342 55 356 94 356 144 C356 193 342 233 317 257 C292 281 262 288 192 288 L140 288 L140 493 L-24 493 Z M140 59 L140 229 L191 229 C256 229 282 204 282 144 C282 82 258 59 194 59 L140 59 Z " />
<glyph glyph-name="afii10093" unicode="&#x44b;" horiz-adv-x="523" d="M59 0 L180 0 C251 0 280 7 305 31 C330 55 344 94 344 144 C344 193 330 233 305 257 C280 281 250 288 180 288 L128 288 L128 493 L59 493 L59 0 Z M128 59 L128 229 L179 229 C244 229 270 204 270 144 C270 82 246 59 182 59 L128 59 Z M395 0 L464 0 L464 493 L395 493 L395 0 Z " />
<glyph glyph-name="afii10094" unicode="&#x44c;" horiz-adv-x="364" d="M128 59 L128 229 L179 229 C244 229 270 204 270 144 C270 82 246 59 182 59 L128 59 Z M59 0 L180 0 C250 0 280 7 305 31 C330 55 344 94 344 144 C344 193 330 233 305 257 C280 281 250 288 180 288 L128 288 L128 493 L59 493 L59 0 Z " />
<glyph glyph-name="afii10095" unicode="&#x44d;" horiz-adv-x="361" d="M134 288 L134 229 L251 229 C249 169 247 147 241 116 C231 71 206 47 169 47 C122 47 98 81 88 159 L23 151 C41 35 82 -12 168 -12 C276 -12 327 67 327 236 C327 417 275 505 168 505 C85 505 35 451 23 345 L88 333 C99 413 122 446 168 446 C223 446 245 403 250 288 L134 288 Z " />
<glyph glyph-name="afii10096" unicode="&#x44e;" horiz-adv-x="553" d="M195 233 C198 164 204 128 216 93 C241 22 287 -12 356 -12 C464 -12 519 74 519 242 C519 411 461 505 357 505 C303 505 261 479 232 427 C214 394 204 358 197 293 L128 293 L128 493 L59 493 L59 0 L128 0 L128 233 L195 233 Z M358 446 C418 446 443 385 443 236 C443 106 416 47 357 47 C297 47 271 106 271 243 C271 385 297 446 358 446 L358 446 Z " />
<glyph glyph-name="afii10097" unicode="&#x44f;" horiz-adv-x="370" d="M182 205 L207 205 L259 205 L259 0 L328 0 L328 493 L207 493 C136 493 107 486 82 462 C57 438 43 399 43 349 C43 282 68 235 113 216 L17 0 L94 0 L182 205 Z M259 434 L259 264 L208 264 C143 264 117 289 117 349 C117 411 141 434 205 434 L259 434 Z " />
<glyph glyph-name="uni0450" unicode="&#x450;" horiz-adv-x="385" d="M190 100 L76 667 L-5 667 L147 0 L218 0 L338 512 C350 562 366 586 388 586 C394 586 399 584 414 577 C451 560 451 560 457 560 C480 560 497 583 497 611 C497 648 465 675 423 675 C389 675 355 661 331 638 C306 614 296 590 281 521 L190 100 Z " />
<glyph glyph-name="afii10071" unicode="&#x451;" horiz-adv-x="375" d="M356 238 C356 315 350 359 337 397 C312 468 265 505 198 505 C94 505 34 407 34 239 C34 71 88 -12 198 -12 C283 -12 326 28 351 130 L290 145 C273 75 249 47 205 47 C138 47 107 107 107 238 L356 238 Z M108 295 C116 402 141 446 197 446 C229 446 253 429 266 396 C275 373 278 347 280 295 L108 295 Z M143 671 C116 671 95 650 95 624 C95 598 116 577 142 577 C168 577 189 598 189 624 C189 650 168 671 143 671 L143 671 Z M266 671 C239 671 218 650 218 624 C218 598 239 577 265 577 C291 577 312 598 312 624 C312 650 291 671 266 671 L266 671 Z " />
<glyph glyph-name="afii10099" unicode="&#x452;" horiz-adv-x="380" d="M130 0 L130 251 C130 338 132 360 143 388 C155 422 178 441 205 441 C231 441 250 423 261 390 C271 358 275 299 275 180 C275 -49 262 -103 205 -112 L211 -173 C260 -166 293 -145 311 -110 C337 -61 345 21 345 242 C345 331 339 387 324 429 C307 476 270 505 227 505 C179 505 150 482 129 427 L129 556 L228 556 L228 604 L129 604 L129 667 L60 667 L60 604 L12 604 L12 556 L60 556 L60 0 L130 0 Z " />
<glyph glyph-name="afii10100" unicode="&#x453;" horiz-adv-x="292" d="M316 654 L271 710 L135 582 L162 550 L316 654 Z M288 493 L59 493 L59 0 L128 0 L128 436 L288 436 L288 493 Z " />
<glyph glyph-name="afii10101" unicode="&#x454;" horiz-adv-x="346" d="M100 288 C105 403 127 446 181 446 C228 446 251 413 262 333 L327 345 C314 451 265 505 182 505 C75 505 23 417 23 236 C23 67 74 -12 182 -12 C267 -12 309 35 327 151 L262 159 C252 81 227 47 181 47 C144 47 118 71 109 116 C102 147 100 169 99 229 L216 229 L216 288 L100 288 Z " />
<glyph glyph-name="afii10102" unicode="&#x455;" horiz-adv-x="324" d="M300 382 C282 467 240 505 162 505 C82 505 28 451 28 371 C28 328 45 292 77 267 C99 250 103 247 174 211 C223 186 240 164 240 123 C240 76 211 47 166 47 C137 47 112 58 96 78 C85 92 80 107 73 142 L12 126 C26 34 78 -12 167 -12 C255 -12 311 45 311 134 C311 199 286 231 203 272 C155 297 139 306 125 316 C106 331 96 351 96 378 C96 420 122 446 164 446 C205 446 226 424 241 366 L300 382 Z " />
<glyph glyph-name="afii10103" unicode="&#x456;" horiz-adv-x="187" d="M59 0 L128 0 L128 493 L59 493 L59 0 Z M56 667 L56 582 L131 582 L131 667 L56 667 Z " />
<glyph glyph-name="afii10104" unicode="&#x457;" horiz-adv-x="187" d="M59 0 L128 0 L128 493 L59 493 L59 0 Z M34 671 C7 671 -14 650 -14 624 C-14 598 7 577 33 577 C59 577 80 598 80 624 C80 650 59 671 34 671 L34 671 Z M156 671 C129 671 108 650 108 624 C108 598 129 577 155 577 C181 577 202 598 202 624 C202 650 181 671 156 671 L156 671 Z " />
<glyph glyph-name="afii10105" unicode="&#x458;" horiz-adv-x="187" d="M60 493 L60 -14 C60 -99 54 -110 6 -110 L-28 -110 L-28 -174 L11 -174 C106 -175 130 -143 129 -17 L129 493 L60 493 Z M57 667 L57 582 L132 582 L132 667 L57 667 Z " />
<glyph glyph-name="afii10106" unicode="&#x459;" horiz-adv-x="458" d="M242 288 L209 493 L114 493 L0 0 L68 0 L157 402 L222 0 L337 0 C401 0 444 56 444 141 C444 183 434 221 415 249 C396 277 371 288 328 288 L242 288 Z M279 59 L251 228 L315 228 C356 228 375 201 375 143 C375 84 357 59 313 59 L279 59 Z " />
<glyph glyph-name="afii10107" unicode="&#x45a;" horiz-adv-x="575" d="M270 0 L391 0 C462 0 491 7 516 31 C541 55 555 94 555 144 C555 193 541 233 516 257 C491 281 461 288 391 288 L339 288 L339 493 L270 493 L270 288 L128 288 L128 493 L59 493 L59 0 L128 0 L128 229 L270 229 L270 0 Z M339 59 L339 229 L390 229 C455 229 481 204 481 144 C481 82 457 59 393 59 L339 59 Z " />
<glyph glyph-name="afii10108" unicode="&#x45b;" horiz-adv-x="392" d="M59 556 L59 0 L129 0 L129 251 C129 338 131 360 142 388 C155 423 177 441 207 441 C254 441 270 408 270 308 L270 0 L339 0 L339 308 C339 394 335 425 322 449 C304 485 270 505 228 505 C178 505 149 482 128 427 L128 556 L227 556 L227 604 L128 604 L128 667 L59 667 L59 604 L11 604 L11 556 L59 556 Z " />
<glyph glyph-name="afii10109" unicode="&#x45c;" horiz-adv-x="358" d="M352 654 L307 710 L171 582 L198 550 L352 654 Z M225 302 L338 493 L266 493 L128 241 L128 493 L59 493 L59 0 L128 0 L128 139 L185 235 L274 0 L353 0 L225 302 Z " />
<glyph glyph-name="uni045D" unicode="&#x45d;" horiz-adv-x="307" d="M157 86 L72 493 L0 493 L116 0 L191 0 L268 333 C279 382 296 407 318 407 C324 407 328 405 344 398 C381 381 381 381 387 381 C410 381 427 404 427 432 C427 469 395 496 353 496 C319 496 285 482 261 459 C236 435 225 409 211 342 L157 86 Z " />
<glyph glyph-name="afii10110" unicode="&#x45e;" horiz-adv-x="290" d="M-4 493 L114 50 L96 -24 C77 -101 67 -117 38 -117 C28 -117 20 -116 3 -111 L3 -172 C21 -177 30 -178 43 -178 C98 -178 129 -141 154 -47 L294 493 L232 493 L148 152 L67 493 L-4 493 Z M28 684 C31 614 72 577 146 577 C218 577 259 615 262 684 L210 684 C205 649 184 632 145 632 C106 632 85 649 80 684 L28 684 Z " />
<glyph glyph-name="afii10193" unicode="&#x45f;" horiz-adv-x="399" d="M231 0 L340 0 L340 493 L271 493 L271 59 L128 59 L128 493 L59 493 L59 0 L168 0 L175 -114 L224 -114 L231 0 Z " />
<glyph glyph-name="afii10050" unicode="&#x490;" horiz-adv-x="341" d="M64 667 L64 0 L140 0 L140 602 L348 602 L348 767 L291 767 L285 667 L64 667 Z " />
<glyph glyph-name="afii10098" unicode="&#x491;" horiz-adv-x="284" d="M288 436 L288 587 L228 587 L228 493 L59 493 L59 0 L128 0 L128 436 L288 436 Z " />
<glyph glyph-name="uni0492" unicode="&#x492;" horiz-adv-x="349" d="M140 602 L348 602 L348 667 L64 667 L64 376 L37 376 L37 311 L64 311 L64 0 L140 0 L140 311 L292 311 L292 376 L140 376 L140 602 Z " />
<glyph glyph-name="uni0493" unicode="&#x493;" horiz-adv-x="291" d="M59 274 L22 274 L22 217 L59 217 L59 0 L128 0 L128 217 L215 217 L215 274 L128 274 L128 436 L288 436 L288 493 L59 493 L59 274 Z " />
<glyph glyph-name="uni0496" unicode="&#x496;" horiz-adv-x="589" d="M539 65 L397 376 L540 667 L464 667 L330 383 L316 374 L316 667 L243 667 L243 374 L229 383 L92 667 L11 667 L162 359 L0 0 L73 0 L223 334 L243 320 L243 0 L316 0 L316 320 L336 334 L486 0 L513 0 L522 -133 L579 -133 L579 65 L539 65 Z " />
<glyph glyph-name="uni0497" unicode="&#x497;" horiz-adv-x="470" d="M418 69 L324 275 L422 493 L355 493 L262 281 L254 278 L254 493 L190 493 L190 278 L182 281 L88 493 L13 493 L120 262 L-3 0 L65 0 L174 236 L190 230 L190 0 L254 0 L254 229 L268 234 L372 0 L396 0 L405 -114 L460 -114 L460 69 L418 69 Z " />
<glyph glyph-name="uni049A" unicode="&#x49a;" horiz-adv-x="476" d="M406 0 L412 -133 L469 -133 L469 68 L415 68 L263 424 L408 667 L326 667 L140 332 L140 667 L64 667 L64 0 L140 0 L140 221 L218 350 L358 0 L406 0 Z " />
<glyph glyph-name="uni049B" unicode="&#x49b;" horiz-adv-x="386" d="M326 60 L217 294 L339 493 L265 493 L143 278 L127 246 L128 283 L128 493 L59 493 L59 0 L128 0 L128 152 L175 228 L271 0 L323 0 L328 -114 L378 -114 L378 60 L326 60 Z " />
<glyph glyph-name="uni049C" unicode="&#x49c;" horiz-adv-x="431" d="M226 477 L226 597 L184 597 L184 401 L140 322 L140 667 L64 667 L64 0 L140 0 L140 212 L184 284 L184 128 L226 128 L226 345 L364 0 L449 0 L268 424 L414 667 L331 667 L226 477 Z " />
<glyph glyph-name="uni049D" unicode="&#x49d;" horiz-adv-x="368" d="M160 192 L160 107 L205 107 L205 237 L289 0 L364 0 L246 304 L357 493 L283 493 L205 351 L205 451 L160 451 L160 281 L128 232 L128 493 L59 493 L59 0 L128 0 L128 144 L160 192 Z " />
<glyph glyph-name="uni04A2" unicode="&#x4a2;" horiz-adv-x="477" d="M413 667 L337 667 L337 384 L140 384 L140 667 L64 667 L64 0 L140 0 L140 319 L337 319 L337 0 L403 0 L410 -133 L466 -133 L466 65 L413 65 L413 667 Z " />
<glyph glyph-name="uni04A3" unicode="&#x4a3;" horiz-adv-x="403" d="M340 60 L340 493 L271 493 L271 291 L128 291 L128 493 L59 493 L59 0 L128 0 L128 232 L271 232 L271 0 L334 0 L339 -114 L388 -114 L388 60 L340 60 Z " />
<glyph glyph-name="uni04AE" unicode="&#x4ae;" horiz-adv-x="358" d="M140 0 L216 0 L216 282 L368 667 L297 667 L183 358 L67 667 L-12 667 L140 282 L140 0 Z " />
<glyph glyph-name="uni04AF" unicode="&#x4af;" horiz-adv-x="305" d="M117 -167 L186 -167 L186 24 L302 493 L239 493 L152 122 L69 493 L-3 493 L117 24 L117 -167 Z " />
<glyph glyph-name="uni04B0" unicode="&#x4b0;" horiz-adv-x="358" d="M140 208 L140 0 L216 0 L216 208 L328 208 L328 275 L216 275 L216 282 L368 667 L297 667 L183 358 L67 667 L-12 667 L140 282 L140 275 L28 275 L28 208 L140 208 Z " />
<glyph glyph-name="uni04B1" unicode="&#x4b1;" horiz-adv-x="309" d="M191 -32 L289 -32 L289 28 L192 28 L307 493 L243 493 L156 125 L74 493 L2 493 L121 28 L25 28 L25 -32 L122 -32 L122 -167 L191 -167 L191 -32 Z " />
<glyph glyph-name="uni04B2" unicode="&#x4b2;" horiz-adv-x="402" d="M345 68 L225 360 L355 667 L282 667 L189 427 L100 667 L17 667 L146 348 L0 0 L74 0 L182 277 L288 0 L331 0 L337 -133 L394 -133 L394 68 L345 68 Z " />
<glyph glyph-name="uni04B3" unicode="&#x4b3;" horiz-adv-x="329" d="M278 60 L189 261 L287 493 L219 493 L155 322 L89 493 L14 493 L116 261 L2 0 L71 0 L150 198 L230 0 L268 0 L273 -114 L323 -114 L323 60 L278 60 Z " />
<glyph glyph-name="uni04B6" unicode="&#x4b6;" horiz-adv-x="457" d="M393 64 L393 667 L317 667 L317 383 C290 325 254 294 211 294 C181 294 153 311 139 339 C126 365 121 391 121 440 L121 667 L45 667 L45 446 C45 375 52 338 73 299 C99 251 140 227 194 227 C250 227 280 246 317 306 L317 0 L379 -1 L386 -134 L442 -134 L442 64 L393 64 Z " />
<glyph glyph-name="uni04B7" unicode="&#x4b7;" horiz-adv-x="382" d="M308 0 L314 -113 L363 -113 L363 61 L323 61 L323 493 L254 493 L254 265 C225 235 205 225 177 225 C153 225 135 234 124 250 C115 264 111 290 111 344 L111 493 L42 493 L42 356 C42 273 46 241 59 217 C77 182 112 161 152 161 C193 161 222 175 254 212 L254 0 L308 0 Z " />
<glyph glyph-name="uni04B8" unicode="&#x4b8;" horiz-adv-x="457" d="M195 227 L195 94 L243 94 L243 235 C272 246 291 262 317 299 L317 0 L393 0 L393 667 L317 667 L317 376 C299 341 273 314 243 301 L243 545 L195 545 L195 295 C145 303 119 353 121 440 L121 667 L45 667 L45 446 C45 375 52 338 72 298 C97 250 135 227 189 227 L195 227 Z " />
<glyph glyph-name="uni04B9" unicode="&#x4b9;" horiz-adv-x="382" d="M158 161 L158 67 L204 67 L204 172 C222 180 237 192 254 212 L254 0 L323 0 L323 493 L254 493 L254 265 C236 246 220 234 204 229 L204 370 L158 370 L158 227 C119 238 111 259 111 344 L111 493 L42 493 L42 356 C42 273 46 241 59 217 C77 181 112 161 153 161 L158 161 Z " />
<glyph glyph-name="uni04BA" unicode="&#x4ba;" horiz-adv-x="457" d="M140 667 L64 667 L64 0 L140 0 L140 290 C168 344 207 373 250 373 C308 373 336 325 336 227 L336 0 L412 0 L412 220 C412 293 405 329 385 368 C360 417 322 440 268 440 C211 440 180 422 140 367 L140 667 Z " />
<glyph glyph-name="uni04BB" unicode="&#x4bb;" horiz-adv-x="392" d="M59 0 L129 0 L129 251 C129 338 131 360 142 388 C155 423 177 441 207 441 C255 441 271 408 271 308 L271 0 L340 0 L340 308 C340 393 336 425 323 449 C305 485 270 505 228 505 C178 505 149 482 128 427 L128 667 L59 667 L59 0 Z " />
<glyph glyph-name="uni04C0" unicode="&#x4c0;" horiz-adv-x="204" d="M64 0 L140 0 L140 667 L64 667 L64 0 Z " />
<glyph glyph-name="uni04CF" unicode="&#x4cf;" horiz-adv-x="204" d="M64 0 L140 0 L140 667 L64 667 L64 0 Z " />
<glyph glyph-name="uni04D8" unicode="&#x4d8;" horiz-adv-x="478" d="M41 337 C46 183 58 123 95 63 C125 15 176 -12 238 -12 C301 -12 346 12 377 64 C417 129 436 218 436 338 C436 564 370 679 239 679 C201 679 168 669 140 649 C106 624 82 581 59 504 L132 487 C151 578 181 614 239 614 C320 614 355 532 357 337 L41 337 Z M356 272 C347 119 312 53 239 53 C166 53 129 124 123 272 L356 272 Z " />
<glyph glyph-name="afii10846" unicode="&#x4d9;" horiz-adv-x="375" d="M19 255 C19 178 25 133 38 96 C63 25 110 -12 177 -12 C281 -12 341 86 341 254 C341 422 287 505 177 505 C92 505 49 465 24 363 L85 348 C102 418 126 446 170 446 C237 446 268 386 268 255 L19 255 Z M266 198 C259 91 234 47 178 47 C146 47 122 64 109 97 C100 120 97 146 95 198 L266 198 Z " />
<glyph glyph-name="uni04E2" unicode="&#x4e2;" horiz-adv-x="375" d="M148 667 L-4 0 L67 0 L108 193 L258 193 L300 0 L378 0 L228 667 L148 667 Z M245 255 L122 255 L185 587 L245 255 Z M69 839 C73 768 115 731 192 731 C268 731 310 769 313 839 L259 839 C253 805 231 788 191 788 C151 788 128 805 123 839 L69 839 Z " />
<glyph glyph-name="uni04E3" unicode="&#x4e3;" horiz-adv-x="392" d="M346 0 C341 30 339 56 339 114 L339 314 C339 403 333 437 312 462 C288 490 250 505 200 505 C115 505 67 464 46 372 L110 355 C124 426 144 448 194 448 C228 448 250 435 259 408 C267 389 269 365 268 304 C238 305 235 305 224 305 C104 305 34 242 34 134 C34 43 83 -12 163 -12 C219 -12 249 10 275 72 C275 37 277 23 284 0 L346 0 Z M268 250 C268 190 266 158 260 133 C246 77 215 47 172 47 C131 47 108 78 108 133 C108 216 146 250 238 250 L268 250 Z M81 684 C83 614 125 577 198 577 C271 577 312 615 315 684 L263 684 C257 649 236 632 197 632 C159 632 138 649 132 684 L81 684 Z " />
<glyph glyph-name="uni04E8" unicode="&#x4e8;" horiz-adv-x="477" d="M121 376 C127 542 163 615 239 615 C315 615 349 545 356 376 L121 376 Z M357 311 C355 136 317 52 239 52 C191 52 156 85 141 145 C129 191 124 228 121 311 L357 311 Z M242 679 C108 679 41 561 41 327 C41 211 59 123 95 63 C124 15 175 -12 239 -12 C301 -12 346 12 377 64 C417 129 436 219 436 338 C436 562 370 679 242 679 L242 679 Z " />
<glyph glyph-name="uni04E9" unicode="&#x4e9;" horiz-adv-x="391" d="M282 223 C279 101 253 47 196 47 C139 47 113 101 110 223 L282 223 Z M111 282 C118 402 141 447 196 447 C252 447 274 402 280 282 L111 282 Z M198 505 C93 505 34 410 34 242 C34 74 89 -12 195 -12 C303 -12 358 74 358 242 C358 409 300 505 198 505 L198 505 Z " />
<glyph glyph-name="uni04EE" unicode="&#x4ee;" horiz-adv-x="375" d="M140 602 L369 602 L369 667 L64 667 L64 0 L375 0 L375 65 L140 65 L140 314 L317 314 L317 379 L140 379 L140 602 Z M103 839 C106 768 149 731 225 731 C301 731 344 769 346 839 L292 839 C287 805 265 788 225 788 C185 788 162 805 157 839 L103 839 Z " />
<glyph glyph-name="uni04EF" unicode="&#x4ef;" horiz-adv-x="375" d="M356 238 C356 315 350 359 337 397 C312 468 265 505 198 505 C94 505 34 407 34 239 C34 71 88 -12 198 -12 C283 -12 326 28 351 130 L290 145 C273 75 249 47 205 47 C138 47 107 107 107 238 L356 238 Z M108 295 C116 402 141 446 197 446 C229 446 253 429 266 396 C275 373 278 347 280 295 L108 295 Z M76 684 C79 614 120 577 194 577 C266 577 307 615 310 684 L258 684 C253 649 232 632 193 632 C155 632 133 649 128 684 L76 684 Z " />
<glyph glyph-name="uni1E1E" unicode="&#x1e1e;" horiz-adv-x="341" d="M140 602 L359 602 L359 667 L64 667 L64 0 L140 0 L140 311 L319 311 L319 376 L140 376 L140 602 Z M213 835 C183 835 159 812 159 782 C159 752 183 729 212 729 C241 729 265 753 265 782 C265 811 241 835 213 835 L213 835 Z " />
<glyph glyph-name="Wgrave" unicode="&#x1e80;" horiz-adv-x="579" d="M124 0 L196 0 L291 513 L388 0 L463 0 L574 667 L506 667 L428 139 L324 667 L261 667 L166 139 L81 667 L6 667 L124 0 Z M140 861 L109 792 L290 727 L309 766 L140 861 Z " />
<glyph glyph-name="wgrave" unicode="&#x1e81;" horiz-adv-x="460" d="M103 0 L165 0 L229 365 L299 0 L359 0 L458 493 L398 493 L332 125 L262 493 L202 493 L136 125 L72 493 L2 493 L103 0 Z M84 654 L238 550 L265 582 L129 710 L84 654 Z " />
<glyph glyph-name="Wacute" unicode="&#x1e82;" horiz-adv-x="579" d="M124 0 L196 0 L291 513 L388 0 L463 0 L574 667 L506 667 L428 139 L324 667 L261 667 L166 139 L81 667 L6 667 L124 0 Z M469 798 L438 866 L268 771 L288 732 L469 798 Z " />
<glyph glyph-name="wacute" unicode="&#x1e83;" horiz-adv-x="460" d="M103 0 L165 0 L229 365 L299 0 L359 0 L458 493 L398 493 L332 125 L262 493 L202 493 L136 125 L72 493 L2 493 L103 0 Z M379 654 L334 710 L198 582 L225 550 L379 654 Z " />
<glyph glyph-name="Wdieresis" unicode="&#x1e84;" horiz-adv-x="579" d="M124 0 L196 0 L291 513 L388 0 L463 0 L574 667 L506 667 L428 139 L324 667 L261 667 L166 139 L81 667 L6 667 L124 0 Z M219 833 C192 833 169 810 169 782 C169 755 192 732 219 732 C247 732 270 754 270 781 C270 810 248 833 219 833 L219 833 Z M360 833 C333 833 310 810 310 782 C310 754 333 732 361 732 C389 732 412 754 412 781 C412 811 390 833 360 833 L360 833 Z " />
<glyph glyph-name="wdieresis" unicode="&#x1e85;" horiz-adv-x="460" d="M103 0 L165 0 L229 365 L299 0 L359 0 L458 493 L398 493 L332 125 L262 493 L202 493 L136 125 L72 493 L2 493 L103 0 Z M161 673 C135 673 113 651 113 624 C113 597 135 575 162 575 C188 575 211 597 211 623 C211 651 189 673 161 673 L161 673 Z M297 673 C271 673 249 651 249 624 C249 597 271 575 298 575 C324 575 347 597 347 623 C347 651 325 673 297 673 L297 673 Z " />
<glyph glyph-name="Ygrave" unicode="&#x1ef2;" horiz-adv-x="358" d="M140 0 L216 0 L216 282 L368 667 L297 667 L183 358 L67 667 L-12 667 L140 282 L140 0 Z M19 861 L-12 792 L169 727 L188 766 L19 861 Z " />
<glyph glyph-name="ygrave" unicode="&#x1ef3;" horiz-adv-x="290" d="M-5 493 L113 50 L95 -24 C76 -101 66 -117 38 -117 C27 -117 20 -116 2 -111 L2 -172 C20 -177 29 -178 42 -178 C97 -178 128 -141 153 -47 L293 493 L231 493 L147 152 L66 493 L-5 493 Z M-8 654 L146 550 L173 582 L37 710 L-8 654 Z " />
<glyph glyph-name="uni2011" unicode="&#x2011;" horiz-adv-x="238" d="M34 282 L34 222 L204 222 L204 282 L34 282 Z " />
<glyph glyph-name="figuredash" unicode="&#x2012;" horiz-adv-x="358" d="M34 282 L34 222 L324 222 L324 282 L34 282 Z " />
<glyph glyph-name="endash" unicode="&#x2013;" horiz-adv-x="358" d="M34 282 L34 222 L324 222 L324 282 L34 282 Z " />
<glyph glyph-name="emdash" unicode="&#x2014;" horiz-adv-x="545" d="M34 282 L34 222 L511 222 L511 282 L34 282 Z " />
<glyph glyph-name="afii00208" unicode="&#x2015;" horiz-adv-x="545" d="M34 282 L34 222 L511 222 L511 282 L34 282 Z " />
<glyph glyph-name="quoteleft" unicode="&#x2018;" horiz-adv-x="187" d="M98 558 L144 672 L102 672 L44 551 L44 455 L133 455 L133 558 L98 558 Z " />
<glyph glyph-name="quoteright" unicode="&#x2019;" horiz-adv-x="187" d="M90 564 L44 450 L86 450 L144 571 L144 667 L55 667 L55 564 L90 564 Z " />
<glyph glyph-name="quotesinglbase" unicode="&#x201a;" horiz-adv-x="187" d="M90 0 L44 -114 L86 -114 L144 7 L144 103 L55 103 L55 0 L90 0 Z " />
<glyph glyph-name="quotereversed" unicode="&#x201b;" horiz-adv-x="290" d="M-5 493 L113 50 L95 -24 C76 -101 66 -117 38 -117 C27 -117 20 -116 2 -111 L2 -172 C20 -177 29 -178 42 -178 C97 -178 128 -141 153 -47 L293 493 L231 493 L147 152 L66 493 L-5 493 Z M-8 654 L146 550 L173 582 L37 710 L-8 654 Z " />
<glyph glyph-name="quotedblleft" unicode="&#x201c;" horiz-adv-x="324" d="M234 558 L280 672 L238 672 L180 551 L180 455 L269 455 L269 558 L234 558 Z M98 558 L144 672 L102 672 L44 551 L44 455 L133 455 L133 558 L98 558 Z " />
<glyph glyph-name="quotedblright" unicode="&#x201d;" horiz-adv-x="324" d="M90 564 L44 450 L86 450 L144 571 L144 667 L55 667 L55 564 L90 564 Z M226 564 L180 450 L222 450 L280 571 L280 667 L191 667 L191 564 L226 564 Z " />
<glyph glyph-name="quotedblbase" unicode="&#x201e;" horiz-adv-x="324" d="M90 0 L44 -114 L86 -114 L144 7 L144 103 L55 103 L55 0 L90 0 Z M226 0 L180 -114 L222 -114 L280 7 L280 103 L191 103 L191 0 L226 0 Z " />
<glyph glyph-name="dagger" unicode="&#x2020;" horiz-adv-x="426" d="M179 667 L179 471 L59 471 L59 407 L179 407 L179 -167 L247 -167 L247 407 L367 407 L367 471 L247 471 L247 667 L179 667 Z " />
<glyph glyph-name="daggerdbl" unicode="&#x2021;" horiz-adv-x="426" d="M179 667 L179 471 L59 471 L59 407 L179 407 L179 93 L59 93 L59 29 L179 29 L179 -167 L247 -167 L247 29 L367 29 L367 93 L247 93 L247 407 L367 407 L367 471 L247 471 L247 667 L179 667 Z " />
<glyph glyph-name="bullet" unicode="&#x2022;" horiz-adv-x="667" d="M336 479 C258 479 196 417 196 339 C196 263 258 200 334 200 C410 200 471 262 471 340 C471 416 410 479 336 479 L336 479 Z " />
<glyph glyph-name="ellipsis" unicode="&#x2026;" horiz-adv-x="613" d="M58 108 L58 0 L145 0 L145 108 L58 108 Z M262 108 L262 0 L349 0 L349 108 L262 108 Z M467 108 L467 0 L554 0 L554 108 L467 108 Z " />
<glyph glyph-name="perthousand" unicode="&#x2030;" horiz-adv-x="801" d="M144 674 C69 674 30 615 30 504 C30 393 72 327 142 327 C213 327 254 390 254 498 C254 610 214 674 144 674 L144 674 Z M143 624 C177 624 190 591 190 504 C190 406 180 379 142 379 C108 379 94 416 94 507 C94 591 108 624 143 624 L143 624 Z M105 0 L154 0 L440 667 L390 667 L105 0 Z M406 342 C331 342 292 283 292 172 C292 61 334 -5 404 -5 C474 -5 516 58 516 166 C516 278 476 342 406 342 L406 342 Z M405 292 C439 292 452 259 452 171 C452 74 442 47 404 47 C370 47 356 84 356 175 C356 259 370 292 405 292 L405 292 Z M661 342 C586 342 547 283 547 171 C547 61 589 -5 659 -5 C730 -5 771 58 771 166 C771 278 731 342 661 342 L661 342 Z M660 292 C694 292 707 259 707 174 C707 74 697 47 659 47 C625 47 611 85 611 175 C611 258 625 292 660 292 L660 292 Z " />
<glyph glyph-name="guilsinglleft" unicode="&#x2039;" horiz-adv-x="188" d="M110 254 L155 404 L115 404 L32 254 L115 110 L155 110 L110 254 Z " />
<glyph glyph-name="guilsinglright" unicode="&#x203a;" horiz-adv-x="187" d="M78 254 L32 110 L72 110 L155 254 L72 404 L32 404 L78 254 Z " />
<glyph glyph-name="uni203E" unicode="&#x203e;" horiz-adv-x="500" d="M0 797 L0 732 L500 732 L500 797 L0 797 Z " />
<glyph glyph-name="fraction" unicode="&#x2044;" horiz-adv-x="102" d="M-120 0 L-64 0 L221 667 L165 667 L-120 0 Z " />
<glyph glyph-name="zerosuperior" unicode="&#x2070;" horiz-adv-x="290" d="M147 674 C64 674 25 607 25 465 C25 331 67 260 145 260 C223 260 265 331 265 464 C265 600 223 674 147 674 L147 674 Z M142 627 C186 627 205 573 205 449 C205 352 186 307 146 307 C102 307 85 354 85 481 C85 589 100 627 142 627 L142 627 Z " />
<glyph glyph-name="foursuperior" unicode="&#x2074;" horiz-adv-x="290" d="M173 362 L173 267 L231 267 L231 362 L274 362 L274 408 L231 408 L231 674 L164 674 L31 404 L31 362 L173 362 Z M173 408 L88 408 L176 602 L173 408 Z " />
<glyph glyph-name="fivesuperior" unicode="&#x2075;" horiz-adv-x="290" d="M54 667 L44 446 L89 436 C108 478 120 489 150 489 C186 489 204 460 204 399 C204 338 184 306 144 306 C111 306 93 325 81 375 L31 360 C48 289 81 259 143 259 C218 259 264 313 264 402 C264 486 225 539 163 539 C135 539 117 529 99 502 L104 615 L239 615 L243 667 L54 667 Z " />
<glyph glyph-name="sixsuperior" unicode="&#x2076;" horiz-adv-x="290" d="M259 591 C242 647 210 674 159 674 C76 674 30 595 30 455 C30 327 72 259 151 259 C221 259 265 314 265 400 C265 478 223 532 161 532 C123 532 102 515 85 469 C93 579 114 625 159 625 C185 625 196 614 209 575 L259 591 Z M155 485 C189 485 207 454 207 397 C207 338 190 309 154 309 C118 309 96 342 96 394 C96 451 118 485 155 485 L155 485 Z " />
<glyph glyph-name="sevensuperior" unicode="&#x2077;" horiz-adv-x="290" d="M201 615 C143 549 97 407 93 286 L93 279 L93 267 L152 267 L152 292 C152 354 166 428 192 502 C210 552 222 576 256 631 L256 667 L48 667 L44 615 L201 615 Z " />
<glyph glyph-name="eightsuperior" unicode="&#x2078;" horiz-adv-x="290" d="M103 475 C46 454 22 423 22 370 C22 303 70 260 144 260 C218 260 267 306 267 374 C267 425 241 459 186 479 C232 496 254 526 254 571 C254 633 212 674 148 674 C83 674 37 630 37 568 C37 521 58 492 103 475 L103 475 Z M146 502 C111 516 94 538 94 571 C94 607 114 629 147 629 C182 629 201 608 201 572 C201 540 186 520 146 502 L146 502 Z M140 450 C192 428 210 407 210 370 C210 331 185 307 145 307 C106 307 81 332 81 373 C81 411 99 434 140 450 L140 450 Z " />
<glyph glyph-name="ninesuperior" unicode="&#x2079;" horiz-adv-x="290" d="M31 340 C44 285 74 260 129 260 C212 260 257 338 257 484 C257 610 218 674 141 674 C71 674 24 618 24 536 C24 459 67 403 128 403 C164 403 189 422 202 458 C199 359 175 310 131 310 C103 310 88 324 81 356 L31 340 Z M139 624 C173 624 193 592 193 538 C193 486 171 452 136 452 C102 452 82 483 82 536 C82 592 102 624 139 624 L139 624 Z " />
<glyph glyph-name="zeroinferior" unicode="&#x2080;" horiz-adv-x="290" d="M147 407 C64 407 25 341 25 198 C25 64 67 -7 145 -7 C223 -7 265 64 265 197 C265 333 224 407 147 407 L147 407 Z M143 360 C186 360 205 306 205 182 C205 86 186 40 147 40 C102 40 85 87 85 214 C85 322 100 360 143 360 L143 360 Z " />
<glyph glyph-name="oneinferior" unicode="&#x2081;" horiz-adv-x="290" d="M189 404 L145 404 C127 373 86 334 61 324 L61 268 C94 284 107 294 130 317 L130 46 L65 46 L65 0 L250 0 L250 46 L189 46 L189 404 Z " />
<glyph glyph-name="twoinferior" unicode="&#x2082;" horiz-adv-x="290" d="M101 52 C154 100 165 111 186 135 C232 189 254 239 254 290 C254 361 211 407 146 407 C79 407 41 367 29 284 L82 271 C89 332 107 358 142 358 C174 358 194 331 194 286 C194 221 147 153 30 49 L30 0 L254 0 L254 52 L101 52 Z " />
<glyph glyph-name="threeinferior" unicode="&#x2083;" horiz-adv-x="290" d="M98 184 L133 184 C178 184 205 157 205 112 C205 67 182 40 143 40 C102 40 84 59 75 111 L25 97 C32 30 73 -7 140 -7 C215 -7 265 42 265 114 C265 168 241 199 188 211 C233 224 253 251 253 296 C253 362 210 407 147 407 C84 407 45 372 36 309 L84 296 C95 343 111 360 143 360 C176 360 194 336 194 292 C194 251 176 232 135 232 L98 232 L98 184 Z " />
<glyph glyph-name="fourinferior" unicode="&#x2084;" horiz-adv-x="290" d="M173 95 L173 0 L231 0 L231 95 L274 95 L274 141 L231 141 L231 407 L164 407 L31 137 L31 95 L173 95 Z M173 141 L88 141 L176 335 L173 141 Z " />
<glyph glyph-name="fiveinferior" unicode="&#x2085;" horiz-adv-x="290" d="M54 400 L44 180 L89 169 C108 211 120 222 150 222 C187 222 204 193 204 132 C204 72 183 40 144 40 C111 40 93 59 81 108 L31 93 C48 23 81 -7 143 -7 C218 -7 264 47 264 136 C264 219 225 272 163 272 C135 272 117 261 99 235 L104 348 L239 348 L243 400 L54 400 Z " />
<glyph glyph-name="sixinferior" unicode="&#x2086;" horiz-adv-x="290" d="M259 324 C242 381 210 407 159 407 C76 407 30 328 30 188 C30 61 72 -7 151 -7 C220 -7 265 48 265 133 C265 212 223 265 161 265 C123 265 102 248 85 202 C93 312 114 358 159 358 C185 358 196 347 209 308 L259 324 Z M155 218 C189 218 207 187 207 130 C207 72 190 43 154 43 C118 43 96 76 96 128 C96 184 118 218 155 218 L155 218 Z " />
<glyph glyph-name="seveninferior" unicode="&#x2087;" horiz-adv-x="290" d="M201 348 C143 282 97 140 93 19 L93 13 L93 0 L152 0 L152 25 C152 87 166 160 192 235 C210 285 219 304 256 364 L256 400 L48 400 L44 348 L201 348 Z " />
<glyph glyph-name="eightinferior" unicode="&#x2088;" horiz-adv-x="290" d="M103 208 C46 186 22 156 22 103 C22 36 70 -7 144 -7 C218 -7 267 39 267 107 C267 159 242 191 186 212 C232 229 254 259 254 304 C254 366 212 407 148 407 C83 407 37 363 37 301 C37 254 58 225 103 208 L103 208 Z M146 235 C111 248 94 271 94 304 C94 340 114 362 147 362 C182 362 201 342 201 305 C201 273 186 254 146 235 L146 235 Z M140 183 C192 161 210 140 210 103 C210 64 185 40 145 40 C106 40 81 65 81 106 C81 144 100 168 140 183 L140 183 Z " />
<glyph glyph-name="nineinferior" unicode="&#x2089;" horiz-adv-x="290" d="M31 73 C44 18 74 -7 130 -7 C212 -7 257 71 257 217 C257 343 218 407 142 407 C71 407 24 352 24 269 C24 192 67 136 128 136 C164 136 189 155 202 191 C199 92 175 43 131 43 C103 43 88 57 81 90 L31 73 Z M138 357 C173 357 193 325 193 271 C193 219 171 185 136 185 C102 185 82 216 82 269 C82 325 102 357 138 357 L138 357 Z " />
<glyph glyph-name="franc" unicode="&#x20a3;" horiz-adv-x="579" d="M140 602 L359 602 L359 667 L64 667 L64 0 L140 0 L140 311 L319 311 L319 376 L140 376 L140 602 Z M399 0 L469 0 L469 232 C469 305 473 341 483 365 C500 403 529 424 567 424 C574 424 577 424 587 423 L587 500 C578 502 574 503 566 503 C517 503 486 470 463 395 L463 493 L399 493 L399 0 Z " />
<glyph glyph-name="lira" unicode="&#x20a4;" horiz-adv-x="426" d="M320 316 L320 371 L209 371 L209 374 C199 441 196 472 196 504 C196 573 221 609 268 609 C303 609 328 592 350 554 L401 588 C371 649 332 676 273 676 C232 676 192 659 165 630 C134 598 120 554 120 492 C120 459 122 438 134 371 L54 371 L54 316 L141 316 C141 312 141 311 142 307 L144 293 L145 287 L55 287 L55 232 L151 232 C152 220 152 213 152 204 C152 144 133 104 94 80 C73 67 57 64 10 63 L10 0 L216 0 C330 -1 369 19 408 102 L362 136 C335 79 304 63 224 63 L149 63 C193 91 218 149 222 232 L321 232 L321 287 L220 287 C219 296 217 305 216 316 L320 316 Z " />
<glyph glyph-name="peseta" unicode="&#x20a7;" horiz-adv-x="727" d="M64 0 L140 0 L140 271 L205 271 C324 271 389 340 389 468 C389 542 367 598 324 633 C294 658 258 667 193 667 L64 667 L64 0 Z M140 336 L140 602 L198 602 C227 602 251 597 265 587 C295 568 312 524 312 465 C312 375 279 336 202 336 L140 336 Z M450 299 L450 377 L395 371 L395 299 L360 299 L360 255 L395 255 L395 104 C395 59 398 40 409 24 C418 8 440 -1 466 -1 C484 -1 496 1 509 6 L509 52 C497 51 492 50 483 50 C454 50 450 57 450 104 L450 255 L501 255 L501 299 L450 299 Z M518 78 C526 22 561 -7 619 -7 C677 -7 715 29 715 84 C715 124 699 144 645 170 C587 197 581 202 581 226 C581 247 595 260 617 260 C640 260 650 249 659 217 L707 230 C695 282 667 306 616 306 C562 306 526 272 526 222 C526 183 545 159 598 134 C652 109 658 104 658 78 C658 53 643 39 618 39 C588 39 573 53 567 90 L518 78 Z " />
<glyph glyph-name="Euro" unicode="&#x20ac;" horiz-adv-x="426" d="M28 419 L9 367 L74 367 C73 340 72 325 72 320 L72 303 L28 303 L9 251 L75 251 C89 74 151 -12 265 -12 C313 -12 341 0 369 32 L369 121 C331 66 311 53 269 53 C204 53 170 105 157 226 C156 236 155 244 154 251 L272 251 L291 303 L152 303 L152 306 L152 329 C152 341 152 351 153 367 L315 367 L335 419 L156 419 C167 551 204 614 269 614 C312 614 335 595 376 528 L403 601 C368 656 328 679 266 679 C159 679 99 597 78 419 L28 419 Z " />
<glyph glyph-name="uni20B4" unicode="&#x20b4;" horiz-adv-x="409" d="M-25 421 L-25 366 L155 366 C111 345 80 325 61 307 L-25 307 L-25 252 L26 252 C18 228 14 205 14 176 C14 65 88 -12 196 -12 C302 -12 369 50 389 167 L319 185 C304 98 261 53 194 53 C130 53 91 98 91 171 C91 206 99 232 116 252 L408 252 L408 307 L202 307 C270 340 277 344 308 366 L408 366 L408 421 L351 421 C362 446 367 471 367 501 C367 606 298 679 200 679 C107 679 51 627 24 517 L93 500 C110 577 145 614 202 614 C257 614 294 570 294 505 C294 468 281 441 255 421 L-25 421 Z " />
<glyph glyph-name="uni2101" unicode="&#x2101;" horiz-adv-x="622" d="M79 669 L-12 269 L31 269 L55 385 L145 385 L170 269 L217 269 L127 669 L79 669 Z M138 422 L63 422 L101 622 L138 422 Z M600 310 C584 376 551 407 495 407 C436 407 395 363 395 300 C395 265 407 238 430 220 C446 208 454 203 504 179 C548 158 560 141 560 103 C560 59 537 32 498 32 C458 32 432 59 423 111 L381 101 C393 30 433 -7 497 -7 C562 -7 606 39 606 106 C606 161 586 188 523 219 C474 243 474 243 463 251 C447 263 439 280 439 302 C439 342 461 368 494 368 C528 368 549 346 559 300 L600 310 Z M148 0 L204 0 L489 667 L433 667 L148 0 Z " />
<glyph glyph-name="afii61248" unicode="&#x2105;" horiz-adv-x="426" d="M259 282 L259 385 L167 385 L167 282 L259 282 Z " />
<glyph glyph-name="afii61289" unicode="&#x2113;" horiz-adv-x="622" d="M79 669 L-12 269 L31 269 L55 385 L145 385 L170 269 L217 269 L127 669 L79 669 Z M138 422 L63 422 L101 622 L138 422 Z M600 310 C584 376 551 407 495 407 C436 407 395 363 395 300 C395 265 407 238 430 220 C446 208 454 203 504 179 C548 158 560 141 560 103 C560 59 537 32 498 32 C458 32 432 59 423 111 L381 101 C393 30 433 -7 497 -7 C562 -7 606 39 606 106 C606 161 586 188 523 219 C474 243 474 243 463 251 C447 263 439 280 439 302 C439 342 461 368 494 368 C528 368 549 346 559 300 L600 310 Z M148 0 L204 0 L489 667 L433 667 L148 0 Z " />
<glyph glyph-name="afii61352" unicode="&#x2116;" horiz-adv-x="703" d="M416 0 L416 667 L359 667 L359 146 L144 667 L60 667 L60 0 L117 0 L117 559 L348 0 L416 0 Z M579 444 C511 444 469 382 469 280 C469 178 510 117 579 117 C648 117 690 179 690 279 C690 383 649 444 579 444 L579 444 Z M579 390 C613 390 629 353 629 279 C629 208 612 171 579 171 C547 171 530 208 530 281 C530 353 547 390 579 390 L579 390 Z M690 77 L469 77 L469 20 L690 20 L690 77 Z " />
<glyph glyph-name="uni2117" unicode="&#x2117;" horiz-adv-x="119" d="M32 267 L87 267 L87 565 L32 565 L32 267 Z M31 667 L31 601 L89 601 L89 667 L31 667 Z " />
<glyph glyph-name="trademark" unicode="&#x2122;" horiz-adv-x="562" d="M76 267 L134 267 L134 598 L210 598 L210 647 L1 647 L1 598 L76 598 L76 267 Z M231 267 L285 267 L282 551 L354 267 L396 267 L469 551 L466 267 L523 267 L523 647 L449 647 L377 367 L307 647 L231 647 L231 267 Z " />
<glyph glyph-name="uni2126" unicode="&#x2126;" horiz-adv-x="667" d="M28 0 L289 0 L289 57 C162 129 100 226 100 355 C100 506 201 620 335 620 C392 620 441 599 486 555 C540 501 566 437 566 355 C566 273 539 200 487 141 C458 108 431 87 378 57 L378 0 L638 0 L638 63 L457 63 C579 134 638 232 638 363 C638 544 506 683 333 683 C161 683 28 544 28 363 C28 232 87 135 209 63 L28 63 L28 0 Z " />
<glyph glyph-name="estimated" unicode="&#x212e;" horiz-adv-x="603" d="M490 250 C489 322 485 358 472 394 C443 475 375 523 290 523 C164 523 84 419 84 255 C84 92 161 -6 289 -6 C385 -6 451 46 477 142 L438 142 C410 72 361 38 290 38 C250 38 217 50 195 73 C178 90 170 106 160 145 L160 250 L490 250 Z M426 285 L162 285 L162 378 C193 452 226 479 290 479 C340 479 375 461 406 419 C416 405 420 398 426 378 L426 285 Z " />
<glyph glyph-name="onethird" unicode="&#x2153;" horiz-adv-x="682" d="M189 671 L145 671 C127 640 86 601 61 591 L61 535 C93 550 109 562 130 584 L130 312 L65 312 L65 266 L250 266 L250 312 L189 312 L189 671 Z M170 0 L226 0 L511 667 L455 667 L170 0 Z M479 184 L514 184 C559 184 585 157 585 112 C585 67 562 40 524 40 C483 40 466 58 456 111 L406 97 C415 28 454 -7 521 -7 C595 -7 646 42 646 114 C646 168 622 199 569 211 C614 224 634 250 634 296 C634 362 591 407 528 407 C465 407 426 372 417 309 L465 296 C476 343 492 360 524 360 C558 360 575 337 575 292 C575 251 557 232 516 232 L479 232 L479 184 Z " />
<glyph glyph-name="twothirds" unicode="&#x2154;" horiz-adv-x="682" d="M101 319 C154 367 165 377 186 402 C232 456 254 506 254 557 C254 628 211 674 146 674 C79 674 41 634 29 552 L82 538 C89 599 107 625 142 625 C174 625 194 598 194 554 C194 489 145 419 30 316 L30 267 L254 267 L254 319 L101 319 Z M170 0 L226 0 L511 667 L455 667 L170 0 Z M479 184 L514 184 C559 184 586 157 586 112 C586 67 562 40 524 40 C483 40 465 59 456 111 L405 97 C415 28 454 -7 520 -7 C595 -7 646 42 646 114 C646 168 621 199 569 211 C613 224 634 250 634 296 C634 362 590 407 527 407 C465 407 426 372 416 309 L465 296 C475 342 491 360 524 360 C557 360 575 336 575 292 C575 251 556 232 515 232 L479 232 L479 184 Z " />
</font>
</svg>
