<?xml version="1.0" standalone="no"?>
<!DOCTYPE svg PUBLIC "-//W3C//DTD SVG 1.1//EN" "http://www.w3.org/Graphics/SVG/1.1/DTD/svg11.dtd" >
<svg xmlns="http://www.w3.org/2000/svg">
<metadata>
Created by FontPrep 20130207 at Fri May 26 16:12:56 2017
 By Lizzy Knight
Copyright 2016 by URW++ Design &#38; Development GmbH
</metadata>
<defs>
<font id="5a546ef71e8dfbcc0f4e4bef193af170" horiz-adv-x='1024' >
  <font-face 
    font-family="URWDINSemiCond-Italic"
    font-weight="400"
    font-style="italic"
    font-stretch="normal"
    units-per-em="2048"
    panose-1="0 0 5 0 0 0 0 0 0 0"
    ascent="1462"
    descent="-586"
    x-height="1028"
    cap-height="1462"
    bbox="-348 -498 2134 2075"
    underline-thickness="114"
    underline-position="-184"
    slope="-10"
    unicode-range="U+0020-FB04"
  />
<missing-glyph horiz-adv-x="370" 
 />
    <glyph glyph-name="ff" unicode="ff" horiz-adv-x="1120" 
d="M795 901h-107l23 127h106l33 186q23 146 83 198t204 50h94l-21 -116h-47q-83 2 -115 -29t-51 -133l-26 -156h190l-20 -127h-193l-160 -901h-153zM258 901h-111l23 127h111l32 186q23 146 83 198t204 50h88l-20 -116h-43q-82 2 -114 -29t-50 -133l-29 -156h166l-23 -127
h-165l-158 -901h-154z" />
    <glyph glyph-name="fi" unicode="fi" horiz-adv-x="1038" 
d="M641 0l182 1028h152l-180 -1028h-154zM862 1253l37 215h154l-37 -215h-154zM258 901h-111l23 127h111l32 186q23 146 83 198t204 50h94l-20 -116h-49q-82 2 -114 -29t-50 -133l-29 -156h193l-23 -127h-192l-158 -901h-154z" />
    <glyph glyph-name="fl" unicode="fl" horiz-adv-x="1097" 
d="M838 218q0 -44 28 -66t103 -23h35l-23 -129h-41q-141 0 -200 41q-58 41 -58 141q0 59 18 170l197 1110h152l-201 -1138q-10 -62 -10 -106zM258 901h-111l23 127h111l32 186q23 146 83 198t204 50h94l-20 -116h-49q-82 2 -114 -29t-50 -133l-29 -156h193l-23 -127h-192
l-158 -901h-154z" />
    <glyph glyph-name="ffi" unicode="ffi" horiz-adv-x="1574" 
d="M795 901h-107l23 127h106l33 186q23 146 83 198t204 50h94l-21 -116h-47q-83 2 -115 -29t-51 -133l-26 -156h190l-20 -127h-193l-160 -901h-153zM1178 0l182 1028h153l-182 -1028h-153zM1399 1253l39 215h151l-37 -215h-153zM258 901h-111l23 127h111l32 186
q23 146 83 198t204 50h88l-20 -116h-43q-82 2 -114 -29t-50 -133l-29 -156h166l-23 -127h-165l-158 -901h-154z" />
    <glyph glyph-name="ffl" unicode="ffl" horiz-adv-x="1636" 
d="M795 901h-107l23 127h106l33 186q23 146 83 198t204 50h94l-21 -116h-47q-83 2 -115 -29t-51 -133l-26 -156h190l-20 -127h-193l-160 -901h-153zM1374 215q0 -86 133 -86h33l-22 -129h-41q-141 0 -200 42q-58 42 -58 142q0 59 20 168l195 1110h153l-201 -1138
q-12 -68 -12 -109zM258 901h-111l23 127h111l32 186q23 146 83 198t204 50h88l-20 -116h-43q-82 2 -114 -29t-50 -133l-29 -156h166l-23 -127h-165l-158 -901h-154z" />
    <glyph glyph-name=".notdef" horiz-adv-x="370" 
 />
    <glyph glyph-name=".null" horiz-adv-x="0" 
 />
    <glyph glyph-name="nonmarkingreturn" horiz-adv-x="681" 
 />
    <glyph glyph-name="space" unicode=" " horiz-adv-x="370" 
 />
    <glyph glyph-name="exclam" unicode="!" horiz-adv-x="540" 
d="M104 0l35 199h154l-35 -199h-154zM184 389l168 1073h172l-211 -1073h-129z" />
    <glyph glyph-name="quotedbl" unicode="&#x22;" horiz-adv-x="708" 
d="M514 928l84 534h158l-105 -534h-137zM205 928l84 534h157l-104 -534h-137z" />
    <glyph glyph-name="numbersign" unicode="#" 
d="M399 586h193l70 243h-193zM270 586l70 243h-207l33 107h207l108 373h131l-108 -373h192l109 373h129l-109 -373h191l-33 -107h-190l-70 -243h188l-32 -109h-189l-108 -381h-131l108 381h-192l-109 -381h-131l109 381h-207l32 109h209z" />
    <glyph glyph-name="dollar" unicode="$" horiz-adv-x="983" 
d="M418 147q186 0 266 129q51 86 51 176t-41 136q-26 31 -52 42t-157 54q-283 88 -282 342q0 205 127 320q92 86 256 100l39 217h153l-41 -229q215 -37 230 -256l-144 -37q-18 96 -63 135q-44 39 -150 39t-179 -77t-73 -200q0 -82 50 -131t196 -96q144 -47 201 -96
q88 -76 88 -223q0 -96 -33 -188q-90 -251 -373 -284l-51 -290h-153l53 295q-147 20 -220 93t-77 206l145 38q14 -215 234 -215z" />
    <glyph glyph-name="percent" unicode="%" horiz-adv-x="1546" 
d="M420 0l643 1462h143l-643 -1462h-143zM1343 563q0 115 -112 115q-72 0 -109 -46t-55 -157l-33 -184q-10 -49 -10 -86q0 -117 113 -117q69 0 107 47t56 156l31 176q12 57 12 96zM1481 580q0 -37 -13 -111l-34 -193q-29 -158 -99 -226t-202 -66q-244 0 -244 202
q0 47 14 125l33 191q26 150 96 216t203 64q246 0 246 -202zM600 1260q0 117 -113 116q-71 0 -107 -46t-56 -156l-33 -185q-10 -59 -10 -86q0 -117 112 -117q70 0 108 47t58 156l31 174q10 68 10 97zM492 1481q246 0 245 -203q0 -45 -12 -111l-33 -192q-28 -149 -98 -221
t-205 -72q-244 0 -244 205q1 49 15 123l33 188q27 152 97 218t202 65z" />
    <glyph glyph-name="ampersand" unicode="&#x26;" horiz-adv-x="1388" 
d="M478 70q104 0 227 84q16 12 110 96l-201 426q-150 -86 -215 -156q-119 -123 -118 -276q-1 -174 197 -174zM950 1214q0 162 -147 162q-88 0 -145 -69q-56 -70 -56 -179q0 -42 10 -78t54 -130l20 -50q141 88 203 172q61 84 61 172zM418 -63q-136 1 -218 77t-81 219
q0 201 147 361q47 51 82 77t199 126q-98 215 -98 329q0 160 100 271q99 106 247 106q148 -1 228 -73t80 -201q0 -266 -352 -475l176 -383q98 133 164 297h151q-106 -262 -242 -426l123 -242h-182l-61 129q-125 -106 -225 -149q-102 -43 -238 -43z" />
    <glyph glyph-name="quotesingle" unicode="'" horiz-adv-x="399" 
d="M205 928l84 534h157l-104 -534h-137z" />
    <glyph glyph-name="parenleft" unicode="(" horiz-adv-x="751" 
d="M240 369q0 420 196 837q133 287 275 453l100 -74q-188 -264 -298 -598q-210 -636 -13 -1169l-117 -64q-143 287 -143 615z" />
    <glyph glyph-name="parenright" unicode=")" horiz-adv-x="751" 
d="M418 1042q0 284 -96 551l116 66q143 -293 144 -615q0 -418 -197 -839q-133 -285 -274 -451l-101 74q188 262 298 596t110 618z" />
    <glyph glyph-name="asterisk" unicode="*" 
d="M600 1077l-213 -260l-115 103l242 245l-285 121l66 131l272 -151l43 321l154 -28l-70 -316l310 49l16 -145l-309 -17l143 -313l-143 -57z" />
    <glyph glyph-name="plus" unicode="+" 
d="M117 682l22 127h340l66 373h133l-66 -373h340l-22 -127h-338l-68 -373h-133l66 373h-340z" />
    <glyph glyph-name="comma" unicode="," horiz-adv-x="485" 
d="M-66 -385l185 582h170l-219 -582h-136z" />
    <glyph glyph-name="hyphen" unicode="-" horiz-adv-x="811" 
d="M190 678l25 135h490l-25 -135h-490z" />
    <glyph glyph-name="period" unicode="." horiz-adv-x="487" 
d="M74 0l35 199h159l-35 -199h-159z" />
    <glyph glyph-name="slash" unicode="/" horiz-adv-x="698" 
d="M-29 -45l682 1552h154l-682 -1552h-154z" />
    <glyph glyph-name="zero" unicode="0" 
d="M635 1348q-111 0 -174 -87t-99 -288l-86 -484q-20 -115 -20 -176q0 -199 172 -198q111 1 174 87t98 287l86 484q20 111 21 176q0 199 -172 199zM626 1481q338 0 337 -320q0 -86 -21 -196l-90 -516q-43 -238 -135 -343q-106 -125 -291 -124q-326 0 -326 319q1 78 21 197
l90 516q25 133 54 209q30 76 81 133q106 125 280 125z" />
    <glyph glyph-name="one" unicode="1" 
d="M344 0l227 1290l-223 -104l-47 121l352 155h109l-258 -1462h-160z" />
    <glyph glyph-name="two" unicode="2" horiz-adv-x="983" 
d="M215 1106q89 375 401 375q312 -1 312 -299q0 -150 -88 -310q-59 -104 -277 -356l-332 -381h519l-25 -135h-719l19 109l450 520q291 336 291 563q0 156 -152 156q-182 0 -252 -250z" />
    <glyph glyph-name="three" unicode="3" horiz-adv-x="983" 
d="M471 834q133 0 214 93t81 244q0 176 -164 177q-172 0 -240 -222l-147 9q37 170 138 258t258 88t238 -76t81 -221q0 -303 -250 -414q86 -49 122 -114t36 -171q0 -199 -99 -340q-115 -164 -348 -163q-166 0 -257 76t-91 212q0 20 6 74l154 10q-4 -23 -4 -49
q0 -190 190 -190q152 0 227 133q59 102 60 235q0 221 -227 222h-101l23 129h100z" />
    <glyph glyph-name="four" unicode="4" 
d="M526 0l49 272h-522l19 101l602 1089h166l-584 -1056h342l78 444h147l-78 -444h127l-24 -136h-127l-47 -270h-148z" />
    <glyph glyph-name="five" unicode="5" horiz-adv-x="983" 
d="M573 905q137 0 212 -76t75 -206t-33 -264t-79 -203q-113 -174 -351 -174q-159 0 -245 76t-86 212q0 25 6 74l153 10q-4 -25 -4 -55q0 -184 180 -184q215 0 274 303q19 96 19 178q0 180 -166 180q-113 0 -217 -92l-110 23l186 755h594l-23 -135h-458l-123 -477
q75 37 107 46t89 9z" />
    <glyph glyph-name="six" unicode="6" 
d="M549 776q-143 0 -207 -137q-30 -66 -54 -171t-24 -184t43 -124t121 -45q152 0 215 164t64 325q0 82 -41 127t-117 45zM608 901q121 0 191 -75q69 -75 69 -192q0 -118 -26 -242t-68 -204q-106 -207 -354 -206q-150 0 -234 76t-84 210q0 199 72 375q33 84 117 211l397 608
h178l-387 -590q74 29 129 29z" />
    <glyph glyph-name="seven" unicode="7" 
d="M147 0l658 1327h-518l22 135h686l-18 -96l-645 -1366h-185z" />
    <glyph glyph-name="eight" unicode="8" 
d="M540 702q-172 0 -231 -120q-29 -56 -49 -146t-20 -155q0 -166 188 -166q158 0 217 121q27 55 47 144t21 155q-1 167 -173 167zM641 1356q-141 0 -196 -120t-56 -263q0 -147 160 -148q141 0 199 125q55 125 55 260q0 70 -42 108t-120 38zM643 1481q311 -1 311 -289
q0 -148 -69 -291q-41 -82 -144 -131q129 -61 129 -238q0 -102 -28 -214t-72 -177q-102 -160 -342 -159q-348 0 -348 288q0 96 26 202t73 184q46 79 161 122l-37 27q-66 49 -65 168q0 209 91 359t314 149z" />
    <glyph glyph-name="nine" unicode="9" 
d="M629 1348q-141 0 -203 -121q-29 -55 -49 -151t-21 -169q0 -164 164 -164q143 0 207 136q68 139 68 303q0 80 -43 123t-123 43zM654 1481q134 0 218 -74t84 -211q0 -260 -161 -514l-439 -682h-176l418 651q-78 -31 -141 -30q-121 -1 -191 71t-70 188t29 240q29 125 70 193
q103 168 359 168z" />
    <glyph glyph-name="colon" unicode=":" horiz-adv-x="487" 
d="M221 829l35 199h160l-35 -199h-160zM74 0l35 199h159l-35 -199h-159z" />
    <glyph glyph-name="semicolon" unicode=";" horiz-adv-x="485" 
d="M233 829l35 199h160l-35 -199h-160zM-68 -385l185 582h170l-219 -582h-136z" />
    <glyph glyph-name="less" unicode="&#x3c;" 
d="M313 743l496 -294l-25 -142l-647 400l17 88l786 397l-27 -152z" />
    <glyph glyph-name="equal" unicode="=" 
d="M170 831l20 123h764l-20 -123h-764zM117 535l20 124h766l-22 -124h-764z" />
    <glyph glyph-name="greater" unicode="&#x3e;" 
d="M760 756l-496 297l25 139l647 -397l-16 -88l-787 -400l27 154z" />
    <glyph glyph-name="question" unicode="?" horiz-adv-x="1003" 
d="M326 0l34 199h154l-35 -199h-153zM840 1161q0 186 -174 187q-106 0 -174 -68t-113 -215l-148 12q100 403 441 404q160 0 246 -79q86 -78 86 -238t-107 -300q-45 -53 -189 -177t-165 -243l-11 -59h-126l14 72q18 117 63 189t158 171q113 100 156 179t43 165z" />
    <glyph glyph-name="at" unicode="@" horiz-adv-x="1589" 
d="M930 973q-115 0 -215 -178q-98 -182 -99 -332q0 -47 23 -74t63 -27q122 0 224 184t102 310q0 55 -26 86t-72 31zM1040 422q0 -61 64 -62q131 0 232 178q102 178 102 398q0 219 -121 331t-346 111q-367 0 -580 -340q-78 -129 -126 -306t-48 -345q0 -442 508 -442
q221 0 442 102l39 -100q-246 -113 -495 -113q-309 0 -468 139t-159 414q0 203 64 413q65 210 174 357q244 332 655 332q279 0 435 -142t157 -412q1 -269 -145 -477t-351 -208q-141 0 -141 135q0 10 2 21q-119 -160 -260 -160q-92 0 -144 54q-51 54 -51 151q0 205 134 419
t319 213q74 1 112 -31t58 -110l45 119h100l-176 -504q-31 -84 -31 -135z" />
    <glyph glyph-name="A" unicode="A" horiz-adv-x="1040" 
d="M739 457l-86 788l-364 -788h450zM752 324h-521l-147 -324h-176l706 1462h146l194 -1462h-170z" />
    <glyph glyph-name="B" unicode="B" horiz-adv-x="1122" 
d="M549 133q139 0 205 82q88 113 88 277q0 102 -44 148t-145 46h-284l-99 -553h279zM657 819q127 0 193 78q84 102 84 248q0 98 -46 141t-149 43h-258l-90 -510h266zM741 1462q201 0 279 -76t78 -219t-60 -249t-161 -156q68 -51 90 -88q37 -70 37 -185q0 -225 -127 -372
q-53 -63 -125 -90t-185 -27h-479l258 1462h395z" />
    <glyph glyph-name="C" unicode="C" horiz-adv-x="1097" 
d="M131 317q0 84 23 218l77 442q27 145 61 228t91 143q125 131 332 131q170 0 262 -78t92 -221q0 -35 -8 -86l-150 -7q4 25 4 56q0 203 -200 203q-139 0 -215 -94t-113 -308l-76 -428q-20 -111 -20 -178q0 -223 205 -223q120 -1 198 69t107 201l149 -8q-75 -395 -465 -395
q-174 0 -264 86t-90 249z" />
    <glyph glyph-name="D" unicode="D" horiz-adv-x="1173" 
d="M958 1112q0 117 -84 178q-53 39 -176 39h-215l-213 -1196h217q162 -2 251 87t124 288l78 448q18 90 18 156zM711 1462q201 0 293 -71q117 -94 116 -265q0 -53 -20 -174l-86 -491q-72 -467 -514 -461h-412l258 1462h365z" />
    <glyph glyph-name="E" unicode="E" horiz-adv-x="1003" 
d="M90 0l258 1462h723l-22 -135h-566l-92 -520h481l-24 -135h-479l-97 -537h568l-23 -135h-727z" />
    <glyph glyph-name="F" unicode="F" horiz-adv-x="946" 
d="M90 0l258 1462h717l-25 -135h-557l-92 -530h471l-22 -135h-473l-117 -662h-160z" />
    <glyph glyph-name="G" unicode="G" horiz-adv-x="1146" 
d="M514 -18q-186 0 -284 87q-97 87 -97 255q0 76 23 211l77 442q27 147 61 229t93 142q129 131 321 131t287 -79q94 -79 95 -224q0 -27 -7 -82l-151 -7q4 20 4 48q0 211 -211 211q-143 0 -221 -94t-117 -308l-74 -428q-20 -104 -20 -174q0 -227 225 -227q276 0 336 354
l31 166h-246l23 129h403l-51 -287q-23 -137 -55 -215t-89 -139q-133 -141 -356 -141z" />
    <glyph glyph-name="H" unicode="H" horiz-adv-x="1179" 
d="M90 0l258 1462h160l-117 -655h504l115 655h159l-258 -1462h-159l118 672h-501l-119 -672h-160z" />
    <glyph glyph-name="I" unicode="I" horiz-adv-x="518" 
d="M90 0l258 1462h160l-258 -1462h-160z" />
    <glyph glyph-name="J" unicode="J" horiz-adv-x="794" 
d="M214 115q122 0 187 135q29 61 64 254l168 958h160l-172 -977q-33 -186 -49 -240t-52 -110q-98 -153 -296 -153t-322 131l110 106q80 -104 202 -104z" />
    <glyph glyph-name="K" unicode="K" horiz-adv-x="1071" 
d="M90 0l258 1462h158l-133 -766l643 766h180l-512 -598l293 -864h-176l-238 743l-231 -268l-82 -475h-160z" />
    <glyph glyph-name="L" unicode="L" horiz-adv-x="933" 
d="M90 0l258 1462h160l-234 -1327h572l-23 -135h-733z" />
    <glyph glyph-name="M" unicode="M" horiz-adv-x="1413" 
d="M90 0l258 1462h152l207 -944l538 944h158l-258 -1462h-154l199 1124l-471 -827h-98l-179 827l-198 -1124h-154z" />
    <glyph glyph-name="N" unicode="N" horiz-adv-x="1249" 
d="M90 0l258 1462h156l375 -1157l204 1157h154l-258 -1462h-152l-378 1159l-205 -1159h-154z" />
    <glyph glyph-name="O" unicode="O" horiz-adv-x="1171" 
d="M291 340q0 -225 248 -225q128 0 206 90t115 297l80 459q18 92 18 161q0 109 -61 167t-174 59q-152 0 -240 -119q-61 -86 -94 -268l-80 -459q-18 -109 -18 -162zM714 1481q202 0 304 -89q100 -89 100 -255q0 -70 -18 -185l-88 -491q-23 -135 -56 -212t-92 -138
q-126 -129 -328 -129t-304 88q-101 88 -101 254q1 73 21 186l86 491q25 137 56 212q32 75 91 139q127 129 329 129z" />
    <glyph glyph-name="P" unicode="P" horiz-adv-x="1054" 
d="M586 707q166 0 241 106q88 129 88 307q0 111 -51 160t-166 49h-217l-110 -622h215zM698 1462q201 0 291 -83t90 -242q0 -252 -123 -412q-63 -82 -149 -117t-219 -35h-238l-100 -573h-160l258 1462h350z" />
    <glyph glyph-name="Q" unicode="Q" horiz-adv-x="1171" 
d="M958 1122q0 109 -61 167t-174 59q-152 0 -240 -119q-61 -86 -94 -268l-80 -459q-18 -109 -18 -162q0 -109 60 -167t173 -58t187 59l-172 182l104 93l156 -162q35 74 61 215l80 459q18 92 18 161zM517 -18q-185 0 -286 88q-100 88 -100 254q0 74 21 186l86 491
q25 137 56 212q32 75 91 139q127 129 329 129t304 -89q100 -89 100 -255q0 -70 -18 -185l-88 -491q-31 -186 -101 -293l111 -117l-107 -92l-102 107q-111 -84 -296 -84z" />
    <glyph glyph-name="R" unicode="R" horiz-adv-x="1120" 
d="M616 768q160 0 240 99t80 270q0 102 -54 147t-173 45h-226l-98 -561h231zM721 1462q205 0 292 -78t87 -225q0 -207 -92 -346t-244 -160l158 -653h-177l-139 639h-241l-113 -639h-160l258 1462h371z" />
    <glyph glyph-name="S" unicode="S" horiz-adv-x="1013" 
d="M430 113q188 0 266 135q56 90 56 194q1 141 -107 185q-25 10 -161 56q-275 93 -275 335q0 190 102 317q111 145 332 146q170 0 254 -71t92 -220l-143 -37q-14 107 -62 151t-147 44q-145 0 -215 -113q-53 -85 -53 -183t50 -147q51 -49 201 -101t221 -124t70 -215
q0 -193 -102 -324q-121 -162 -381 -161q-197 0 -288 74t-101 245l145 39q12 -119 70 -172t176 -53z" />
    <glyph glyph-name="T" unicode="T" horiz-adv-x="927" 
d="M295 0l235 1327h-340l25 135h838l-25 -135h-338l-235 -1327h-160z" />
    <glyph glyph-name="U" unicode="U" horiz-adv-x="1196" 
d="M539 -18q-221 0 -318 108q-70 78 -69 205q0 61 22 203l170 964h160l-174 -993q-18 -94 -19 -156q0 -199 221 -198q166 0 252 129q43 66 72 225l176 993h160l-180 -1020q-26 -137 -50 -200t-75 -121q-127 -139 -348 -139z" />
    <glyph glyph-name="V" unicode="V" horiz-adv-x="1005" 
d="M346 0l-151 1462h155l105 -1204l530 1204h164l-668 -1462h-135z" />
    <glyph glyph-name="W" unicode="W" horiz-adv-x="1540" 
d="M262 0l-39 1462h158l6 -1179l490 1179h114l74 -1179l422 1179h162l-553 -1462h-138l-75 1153l-484 -1153h-137z" />
    <glyph glyph-name="X" unicode="X" horiz-adv-x="989" 
d="M453 776l-215 686h163l172 -561l349 561h176l-467 -723l231 -739h-166l-186 614l-385 -614h-174z" />
    <glyph glyph-name="Y" unicode="Y" horiz-adv-x="935" 
d="M299 0l94 532l-225 930h164l170 -747l432 747h174l-555 -930l-94 -532h-160z" />
    <glyph glyph-name="Z" unicode="Z" horiz-adv-x="935" 
d="M-8 0l18 102l776 1225h-524l23 135h704l-16 -102l-776 -1225h585l-24 -135h-766z" />
    <glyph glyph-name="bracketleft" unicode="[" horiz-adv-x="751" 
d="M150 -201l319 1813h340l-21 -119h-186l-276 -1575h184l-21 -119h-339z" />
    <glyph glyph-name="backslash" unicode="\" horiz-adv-x="698" 
d="M530 -45h-153l-135 1552h153z" />
    <glyph glyph-name="bracketright" unicode="]" horiz-adv-x="751" 
d="M672 1612l-320 -1813h-340l21 119h186l277 1575h-185l21 119h340z" />
    <glyph glyph-name="asciicircum" unicode="^" 
d="M635 1286l-322 -504h-178l486 691h86l241 -691h-170z" />
    <glyph glyph-name="underscore" unicode="_" horiz-adv-x="806" 
d="M-197 -356l21 114h893l-21 -114h-893z" />
    <glyph glyph-name="grave" unicode="`" horiz-adv-x="1024" 
d="M729 1192h-113l-147 289h168z" />
    <glyph glyph-name="a" unicode="a" horiz-adv-x="925" 
d="M444 481q-145 0 -200 -67q-59 -66 -60 -193q0 -63 40 -90t144 -27t151 43q48 43 71 164l31 170h-177zM520 1047q145 -1 222 -63t77 -183q0 -66 -18 -166l-113 -635h-121l-6 45q-78 -63 -237 -63q-293 0 -293 211q0 197 92 303q86 106 313 106h205l14 74q10 53 11 104
q0 139 -152 140q-76 0 -125 -36t-88 -120l-127 41q100 242 346 242z" />
    <glyph glyph-name="b" unicode="b" 
d="M739 739q0 176 -157 176q-205 0 -263 -319l-28 -164q-14 -86 -15 -131q0 -190 170 -190q189 0 244 299l37 211q12 66 12 118zM895 770q0 -68 -21 -178l-34 -205q-39 -215 -127 -310q-89 -95 -235 -95t-222 65q-4 2 -45 57l-29 -104h-121l258 1462h154l-90 -506
q90 90 228 90t211 -70q73 -71 73 -206z" />
    <glyph glyph-name="c" unicode="c" horiz-adv-x="858" 
d="M403 -18q-149 0 -227 76t-78 218q0 78 17 170l32 177q41 229 131 327t250 98q158 0 228 -60t75 -191l-137 -31q-8 82 -41 118t-104 36q-103 0 -163 -75t-89 -239l-35 -198q-12 -68 -12 -119q0 -178 162 -178q76 0 124 35q47 36 80 118l132 -28q-68 -254 -345 -254z" />
    <glyph glyph-name="d" unicode="d" 
d="M252 291q0 -178 158 -178q203 0 260 319l28 164q12 66 13 131q0 190 -168 191q-99 0 -157 -70t-85 -221l-39 -211q-10 -57 -10 -125zM383 -18q-287 0 -287 282q0 76 19 172l37 217q37 207 124 300q88 93 248 94q88 1 138 -19t100 -74l88 508h154l-259 -1462h-118l2 84
l-8 -10q-92 -92 -238 -92z" />
    <glyph glyph-name="e" unicode="e" horiz-adv-x="954" 
d="M725 748q0 178 -168 178q-207 0 -254 -279l-8 -43h414q16 92 16 144zM250 291q0 -182 180 -182q82 -1 132 35t85 118l129 -29q-45 -131 -134 -191t-236 -60q-307 0 -308 292q0 78 19 181l28 163q39 228 135 328t275 101q313 0 313 -291q0 -94 -32 -273h-562l-14 -84
q-10 -66 -10 -108z" />
    <glyph glyph-name="f" unicode="f" horiz-adv-x="581" 
d="M258 901h-111l23 127h111l32 186q23 146 83 198t204 50h94l-20 -116h-49q-82 2 -114 -29t-50 -133l-29 -156h193l-23 -127h-192l-158 -901h-154z" />
    <glyph glyph-name="g" unicode="g" horiz-adv-x="989" 
d="M250 293q0 -180 160 -180q205 0 260 319l28 164q12 61 13 129q0 193 -168 193q-193 0 -244 -291l-39 -215q-10 -68 -10 -119zM377 -18q-281 0 -281 282q0 80 17 174l39 215q37 207 123 300q87 93 252 93t247 -102l33 84h121l-189 -1073q-39 -223 -145 -329t-295 -105
q-137 0 -202 54t-74 175l137 31q8 -72 43 -104t110 -31q113 0 177 72t94 227l20 121q-86 -84 -227 -84z" />
    <glyph glyph-name="h" unicode="h" horiz-adv-x="989" 
d="M883 801q0 -76 -21 -193l-106 -608h-154l109 616q14 86 14 134q0 162 -147 161q-109 -1 -169 -79t-94 -263l-100 -569h-154l258 1462h154l-88 -497q57 47 107 64t124 18q127 0 197 -65t70 -181z" />
    <glyph glyph-name="i" unicode="i" horiz-adv-x="458" 
d="M63 0l183 1028h151l-180 -1028h-154zM285 1253l37 215h153l-37 -215h-153z" />
    <glyph glyph-name="j" unicode="j" horiz-adv-x="468" 
d="M293 1253l37 215h153l-37 -215h-153zM252 1028h154l-189 -1069q-39 -250 -132 -342t-306 -88l22 131q113 -6 174 62t88 233z" />
    <glyph glyph-name="k" unicode="k" horiz-adv-x="911" 
d="M63 0l259 1462h153l-178 -1001l471 567h174l-375 -434l221 -594h-165l-170 483l-191 -225l-45 -258h-154z" />
    <glyph glyph-name="l" unicode="l" horiz-adv-x="520" 
d="M260 218q0 -44 29 -66t102 -23h35l-23 -129h-41q-141 0 -199 41t-59 141q0 59 19 170l196 1110h152l-201 -1138q-10 -62 -10 -106z" />
    <glyph glyph-name="m" unicode="m" horiz-adv-x="1468" 
d="M1108 1047q124 -1 190 -63t66 -179q0 -63 -23 -197l-108 -608h-152l107 612q18 104 18 146q0 156 -135 155q-100 0 -157 -79q-56 -80 -89 -265l-100 -569h-154l109 614q14 80 14 142q0 158 -133 157q-100 0 -157 -79q-56 -80 -91 -269l-98 -565h-154l183 1028h116l-4 -86
q96 104 248 105q186 0 240 -127q90 127 264 127z" />
    <glyph glyph-name="n" unicode="n" horiz-adv-x="989" 
d="M636 1047q108 1 177 -63q70 -64 70 -183q0 -76 -21 -193l-106 -608h-154l109 612q14 86 14 140q0 162 -150 161q-109 -1 -169 -81t-93 -269l-98 -563h-154l183 1028h116l-4 -88q56 59 114 83t166 24z" />
    <glyph glyph-name="o" unicode="o" horiz-adv-x="974" 
d="M727 750q0 168 -174 168q-109 0 -168 -69t-86 -222l-39 -224q-12 -61 -12 -120q0 -172 174 -172q106 0 166 68q59 68 88 224l39 224q12 66 12 123zM881 764q0 -63 -19 -164l-39 -221q-37 -211 -132 -304t-273 -93q-324 0 -324 286q1 58 17 162l39 219q37 211 132 304
t275 94q324 0 324 -283z" />
    <glyph glyph-name="p" unicode="p" 
d="M739 739q0 176 -159 176q-205 0 -261 -319l-28 -164q-14 -74 -15 -129q0 -193 166 -192q193 0 248 299l37 217q12 68 12 112zM893 768q0 -76 -16 -166l-39 -215q-37 -213 -125 -309t-247 -96t-239 94l-94 -537h-153l262 1489h120l5 -74q94 92 241 93q285 0 285 -279z" />
    <glyph glyph-name="q" unicode="q" 
d="M252 293q0 -180 158 -180q203 0 260 319l28 164q12 82 13 131q0 190 -168 191q-99 0 -157 -70t-85 -221l-39 -215q-10 -57 -10 -119zM381 -18q-285 0 -285 282q0 80 19 172l37 217q37 207 124 300q88 93 256 93t242 -102l33 84h121l-262 -1489h-154l92 527
q-86 -84 -223 -84z" />
    <glyph glyph-name="r" unicode="r" horiz-adv-x="665" 
d="M584 1047q90 0 166 -54l-91 -129q-51 49 -110 49q-91 0 -149 -97t-97 -314l-88 -502h-154l183 1028h118l3 -92q86 111 219 111z" />
    <glyph glyph-name="s" unicode="s" horiz-adv-x="845" 
d="M584 326q0 58 -37 84t-168 56t-186 83t-56 160q0 157 93 247t251 91q197 0 264 -103q31 -51 35 -137l-137 -31q-8 143 -158 144q-88 0 -143 -54t-55 -128t35 -102q34 -28 150 -52t173 -60q88 -53 88 -180q0 -176 -102 -269t-309 -93t-279 116q-29 50 -37 138l139 30
q11 -86 55 -122t148 -36t170 59q66 58 66 159z" />
    <glyph glyph-name="t" unicode="t" horiz-adv-x="585" 
d="M285 212q0 -83 121 -83h32l-22 -129h-33q-139 0 -197 39q-57 39 -57 133q0 59 23 188l96 541h-107l21 127h108l66 330h145l-59 -330h170l-23 -127h-170l-100 -575q-14 -74 -14 -114z" />
    <glyph glyph-name="u" unicode="u" horiz-adv-x="968" 
d="M106 225q0 66 23 205l107 598h153l-108 -606q-16 -96 -17 -146q0 -160 139 -159q102 0 161 81q58 81 91 267l101 563h151l-180 -1028h-113l2 98q-94 -117 -249 -116q-125 0 -193 63t-68 180z" />
    <glyph glyph-name="v" unicode="v" horiz-adv-x="856" 
d="M266 0l-129 1028h152l82 -817l370 817h158l-491 -1028h-142z" />
    <glyph glyph-name="w" unicode="w" horiz-adv-x="1339" 
d="M240 0l-82 1028h153l37 -801l357 801h106l74 -801l321 801h158l-444 -1028h-125l-80 770l-350 -770h-125z" />
    <glyph glyph-name="x" unicode="x" horiz-adv-x="811" 
d="M324 532l-177 496h162l127 -371l250 371h174l-368 -512l182 -516h-162l-133 387l-262 -387h-174z" />
    <glyph glyph-name="y" unicode="y" horiz-adv-x="856" 
d="M264 -4l-133 1032h150l92 -844l364 844h160l-549 -1202q-86 -186 -164 -240t-254 -57l23 131q100 0 143 32t101 150z" />
    <glyph glyph-name="z" unicode="z" horiz-adv-x="815" 
d="M-16 0l16 94l575 805h-397l23 129h585l-16 -94l-577 -805h460l-22 -129h-647z" />
    <glyph glyph-name="braceleft" unicode="{" horiz-adv-x="751" 
d="M442 618q0 -31 -26 -188l-39 -217q-23 -137 -23 -193q0 -110 127 -110h35l-18 -111h-66q-127 0 -182 43q-55 42 -55 130t28 243l37 217q25 129 25 172q0 96 -115 96h-14l16 97h14q92 4 126 55t63 221l28 164q33 223 103 299t242 76h69l-20 -111h-35q-98 -1 -140 -65
t-75 -267l-19 -102q-28 -166 -58 -225t-110 -94q82 -35 82 -130z" />
    <glyph glyph-name="bar" unicode="|" 
d="M301 -201l320 1813h135l-320 -1813h-135z" />
    <glyph glyph-name="braceright" unicode="}" horiz-adv-x="751" 
d="M469 1389q0 114 -127 112h-35l19 111h65q127 0 182 -43t55 -127t-28 -246l-22 -131q-25 -135 -25 -172q0 -96 115 -96h14l-16 -97h-15q-92 -4 -126 -55t-62 -221l-43 -250q-33 -223 -103 -299t-241 -76h-70l19 111h34q100 2 142 64q40 63 75 268l33 188q27 166 58 225
t108 95q-80 37 -80 129q0 33 27 188l22 131q25 133 25 191z" />
    <glyph glyph-name="asciitilde" unicode="~" 
d="M700 729q78 0 150 141l90 -28q-58 -125 -118 -179t-144 -55q-45 0 -79 16t-90 65q-56 47 -80 61t-54 14q-84 -1 -156 -148l-92 23q105 243 245 245q66 0 102 -16t92 -64t80 -62t54 -13z" />
    <glyph glyph-name="uni00A0" unicode="&#xa0;" horiz-adv-x="370" 
 />
    <glyph glyph-name="exclamdown" unicode="&#xa1;" horiz-adv-x="540" 
d="M436 1026l-35 -199h-153l35 199h153zM356 637l-168 -1073h-172l211 1073h129z" />
    <glyph glyph-name="cent" unicode="&#xa2;" horiz-adv-x="983" 
d="M197 573q0 93 16 191l31 176q35 205 120 305t238 115l37 217h156l-41 -227q92 -23 136 -78t48 -156l-133 -33q-8 84 -44 120t-127 36q-188 0 -243 -315l-35 -199q-12 -70 -12 -119q0 -180 168 -180q82 0 132 38t85 122l125 -31q-70 -223 -285 -248l-39 -229h-155l43 235
q-80 17 -111 36t-57 57q-53 74 -53 167z" />
    <glyph glyph-name="sterling" unicode="&#xa3;" horiz-adv-x="983" 
d="M1001 1155q0 -33 -2 -63l-147 -27q2 31 2 61q0 223 -197 224q-113 0 -185 -92t-71 -238q0 -80 52 -258h305l-23 -135h-268q4 -27 4 -58q0 -262 -205 -434h586l-25 -135h-809l21 117q121 47 199 171t77 267q0 31 -6 72h-184l25 135h131l-13 53q-29 141 -28 201
q0 193 94 317q109 147 323 148q344 0 344 -326z" />
    <glyph glyph-name="currency" unicode="&#xa4;" 
d="M525 983q-115 0 -185 -82t-70 -216t71 -217t183 -83t184 83q71 83 70 216q0 133 -69 216q-70 83 -184 83zM139 682q0 145 80 264l-153 172l79 76l152 -170q106 76 228 76t227 -76l149 170l82 -76l-154 -172q80 -115 80 -262t-80 -262l154 -172l-82 -76l-149 170
q-104 -76 -226 -76t-229 76l-152 -170l-79 76l153 172q-80 115 -80 260z" />
    <glyph glyph-name="yen" unicode="&#xa5;" 
d="M324 0l55 311h-275l17 99h276l25 139h-275l17 98h233l-202 815h163l168 -741l430 741h174l-489 -815h231l-16 -98h-274l-25 -139h274l-18 -99h-274l-56 -311h-159z" />
    <glyph glyph-name="brokenbar" unicode="&#xa6;" horiz-adv-x="858" 
d="M264 0l90 510h148l-90 -510h-148zM428 932l94 530h148l-92 -530h-150z" />
    <glyph glyph-name="section" unicode="&#xa7;" horiz-adv-x="983" 
d="M289 618q0 -63 33 -94t145 -78l98 -38l66 43q96 59 96 200q0 63 -32 93t-148 77l-98 41l-11 -8l-47 -27q-102 -63 -102 -209zM362 -80q92 0 161 60t69 157q0 55 -29 89t-104 65q-205 84 -263 142t-58 176t89 214q41 43 127 90q-80 78 -80 183q0 180 98 282t252 102
t224 -52q70 -54 86 -166l-141 -41q-13 71 -47 101t-112 30t-139 -62t-61 -142q0 -79 27 -109t157 -83t196 -116q67 -63 67 -158q0 -145 -99 -244q-37 -37 -123 -84q51 -36 71 -72t22 -102q0 -66 -28 -144q-87 -245 -376 -245q-147 0 -226 59t-97 185l139 39q19 -89 62 -121
q44 -33 136 -33z" />
    <glyph glyph-name="dieresis" unicode="&#xa8;" horiz-adv-x="1024" 
d="M733 1208l37 209h139l-37 -209h-139zM395 1208l37 209h139l-36 -209h-140z" />
    <glyph glyph-name="copyright" unicode="&#xa9;" horiz-adv-x="1597" 
d="M799 1380q-264 0 -435 -181t-171 -466t171 -468t434 -183t434 183t171 464t-170 466t-434 185zM798 1489q318 0 524 -216t206 -544t-207 -542t-523 -214t-524 214q-206 214 -206 545t206 544t524 213zM549 674v114q0 160 60 232t196 72q233 0 242 -195l-113 -4
q-14 102 -123 102q-76 0 -108 -46t-31 -152v-131q0 -106 33 -152t106 -47q117 0 131 102l115 -4q-6 -195 -250 -194q-137 0 -198 70q-60 71 -60 233z" />
    <glyph glyph-name="ordfeminine" unicode="&#xaa;" horiz-adv-x="589" 
d="M391 1112q-84 0 -116 -38q-31 -38 -31 -91t22 -69q23 -15 81 -15t90 25t42 82l21 106h-109zM522 1305q0 77 -83 77t-128 -73l-90 32q72 133 225 134q199 0 199 -148q0 -51 -12 -108l-70 -398h-98l2 41q-55 -53 -152 -53q-190 0 -190 147q0 125 66 182q67 56 212 56h103
l10 51q6 41 6 60z" />
    <glyph glyph-name="guillemotleft" unicode="&#xab;" horiz-adv-x="755" 
d="M244 592l106 -254l-104 -55l-170 321l282 322l82 -78zM565 592l107 -254l-105 -55l-170 321l283 322l82 -78z" />
    <glyph glyph-name="logicalnot" unicode="&#xac;" 
d="M133 682l23 127h729l-92 -528h-150l72 401h-582z" />
    <glyph glyph-name="uni00AD" unicode="&#xad;" horiz-adv-x="811" 
d="M190 678l25 135h490l-25 -135h-490z" />
    <glyph glyph-name="registered" unicode="&#xae;" horiz-adv-x="1263" 
d="M628 1657q-202 0 -323 -135t-121 -336t121 -336t325 -135t324 133t121 339q-1 206 -123 338t-324 132zM633 1759q243 0 401 -164q158 -165 158 -411t-160 -409t-402 -163t-402 162q-158 162 -158 412t160 412t403 161zM545 1204h110q94 0 95 92q0 90 -99 90h-106v-182z
M547 1135v-230h-107v561h219q197 0 197 -163q0 -127 -104 -158l118 -240h-114l-107 230h-102z" />
    <glyph glyph-name="macron" unicode="&#xaf;" horiz-adv-x="1024" 
d="M418 1270l20 112h459l-20 -112h-459z" />
    <glyph glyph-name="degree" unicode="&#xb0;" horiz-adv-x="700" 
d="M655 1211q0 95 -48 149t-135 55q-87 0 -134 -52q-47 -51 -47 -149t47 -150t135 -52t135 52t47 147zM160 1213q0 143 85 227t229 84t228 -84t84 -228t-84 -226q-84 -83 -229 -83t-229 83t-84 227z" />
    <glyph glyph-name="plusminus" unicode="&#xb1;" 
d="M6 51l23 127h813l-23 -127h-813zM119 692l22 127h340l66 369h133l-64 -369h340l-22 -127h-340l-66 -364h-133l64 364h-340z" />
    <glyph glyph-name="twosuperior" unicode="&#xb2;" horiz-adv-x="628" 
d="M499 1677q218 0 218 -193q0 -96 -48 -178t-175 -214l-189 -197h307l-18 -104h-477l14 83l283 304q172 184 172 303q0 94 -92 94q-104 0 -150 -145l-117 8q33 125 99 182t173 57z" />
    <glyph glyph-name="threesuperior" unicode="&#xb3;" horiz-adv-x="628" 
d="M416 1298q74 0 122 50t48 125q0 102 -100 102t-140 -125l-117 8q55 219 271 219t215 -188q0 -166 -135 -236q84 -57 84 -173t-62 -201q-78 -98 -233 -99q-238 0 -238 172q0 29 4 56l121 12q-2 -14 -2 -29q0 -109 115 -108q75 0 121 53t47 141q0 127 -136 127h-82l17 94
h80z" />
    <glyph glyph-name="acute" unicode="&#xb4;" horiz-adv-x="1024" 
d="M541 1192l182 289h180l-248 -289h-114z" />
    <glyph glyph-name="mu" unicode="&#xb5;" 
d="M395 -20q-59 0 -96 18t-68 63l-94 -522h-149l262 1487h149l-108 -606q-14 -96 -15 -148q0 -162 142 -161q102 0 162 84q59 84 92 276l96 555h150l-181 -1026h-104l2 121q-86 -141 -240 -141z" />
    <glyph glyph-name="paragraph" unicode="&#xb6;" horiz-adv-x="1077" 
d="M391 700q-119 0 -182 41q-98 70 -98 238q0 125 50 244t124 174t172 63q31 2 161 2h443l-307 -1741h-146l285 1612h-199l-284 -1612h-146l172 979h-45z" />
    <glyph glyph-name="periodcentered" unicode="&#xb7;" horiz-adv-x="485" 
d="M186 645l35 197h160l-35 -197h-160z" />
    <glyph glyph-name="cedilla" unicode="&#xb8;" horiz-adv-x="1024" 
d="M225 -451l144 308h155l-192 -308h-107z" />
    <glyph glyph-name="onesuperior" unicode="&#xb9;" horiz-adv-x="526" 
d="M268 791l131 745l-141 -59l-33 94l236 96h90l-156 -876h-127z" />
    <glyph glyph-name="ordmasculine" unicode="&#xba;" horiz-adv-x="614" 
d="M557 1280q0 96 -98 96q-121 0 -148 -155l-26 -150q-6 -47 -6 -65q0 -98 100 -99q118 0 145 154l27 149q6 31 6 70zM680 1290q0 -39 -10 -100l-25 -146q-23 -125 -86 -180t-182 -55q-221 0 -221 182q0 33 10 101l27 145q23 127 85 182t181 56q221 0 221 -185z" />
    <glyph glyph-name="guillemotright" unicode="&#xbb;" horiz-adv-x="755" 
d="M547 616l-107 256l105 54l170 -322l-285 -321l-80 77zM225 616l-106 256l104 54l170 -322l-282 -321l-82 77z" />
    <glyph glyph-name="onequarter" unicode="&#xbc;" horiz-adv-x="1581" 
d="M383 0l645 1462h143l-643 -1462h-145zM1163 0l29 164h-338l12 78l375 635h131l-358 -609h196l39 217h113l-39 -217h80l-17 -106h-81l-29 -162h-113zM299 586l131 745l-141 -59l-33 94l236 96h90l-156 -876h-127z" />
    <glyph glyph-name="onehalf" unicode="&#xbd;" horiz-adv-x="1562" 
d="M360 0l646 1462h143l-643 -1462h-146zM1329 690q0 94 -92 94q-106 0 -150 -145l-118 8q35 127 99 183q65 56 173 56q107 0 163 -47t56 -145t-55 -192q-39 -61 -170 -201l-186 -197h305l-19 -104h-475l14 84l283 303q172 184 172 303zM289 586l131 745l-141 -59l-33 94
l235 96h90l-155 -876h-127z" />
    <glyph glyph-name="threequarters" unicode="&#xbe;" horiz-adv-x="1562" 
d="M442 0l645 1462h144l-643 -1462h-146zM1178 0l28 164h-338l13 78l374 635h131l-358 -609h197l39 217h112l-39 -217h82l-18 -106h-82l-27 -162h-114zM387 1094q74 0 122 49t48 125q0 102 -99 102t-141 -125l-116 8q55 219 270 219t215 -188q0 -166 -135 -235
q84 -57 84 -173t-68 -208t-227 -93q-115 1 -176 45t-62 128q0 29 4 55l121 12q-2 -14 -2 -29q0 -109 115 -108q76 0 122 53t46 139q0 129 -135 129h-82l16 95h80z" />
    <glyph glyph-name="questiondown" unicode="&#xbf;" horiz-adv-x="1003" 
d="M690 1026l-37 -199h-153l35 199h155zM174 -137q0 -186 174 -187q106 0 175 68t114 215l147 -12q-102 -403 -440 -404q-160 0 -245 82t-85 246t107 299q27 36 59 64t146 122q129 111 145 224l10 59h127l-12 -72q-18 -117 -64 -189t-160 -174q-116 -103 -149 -163
q-49 -94 -49 -178z" />
    <glyph glyph-name="Agrave" unicode="&#xc0;" horiz-adv-x="1040" 
d="M780 1618h-112l-148 289h168zM739 457l-86 788l-364 -788h450zM752 324h-521l-147 -324h-176l706 1462h146l194 -1462h-170z" />
    <glyph glyph-name="Aacute" unicode="&#xc1;" horiz-adv-x="1040" 
d="M641 1618l182 289h181l-248 -289h-115zM739 457l-86 788l-364 -788h450zM752 324h-521l-147 -324h-176l706 1462h146l194 -1462h-170z" />
    <glyph glyph-name="Acircumflex" unicode="&#xc2;" horiz-adv-x="1040" 
d="M737 1794l-143 -166h-164l268 270h101l174 -270h-150zM739 457l-86 788l-364 -788h450zM752 324h-521l-147 -324h-176l706 1462h146l194 -1462h-170z" />
    <glyph glyph-name="Atilde" unicode="&#xc3;" horiz-adv-x="1040" 
d="M629 1878q68 0 125 -66t84 -65q47 0 88 115h98q-45 -132 -85 -180t-113 -48t-128 68q-33 41 -47 52t-33 11q-51 1 -92 -114h-96q47 129 89 178t110 49zM739 457l-86 788l-364 -788h450zM752 324h-521l-147 -324h-176l706 1462h146l194 -1462h-170z" />
    <glyph glyph-name="Adieresis" unicode="&#xc4;" horiz-adv-x="1040" 
d="M807 1634l37 209h139l-37 -209h-139zM465 1634l37 209h139l-37 -209h-139zM739 457l-86 788l-364 -788h450zM752 324h-521l-147 -324h-176l706 1462h146l194 -1462h-170z" />
    <glyph glyph-name="Aring" unicode="&#xc5;" horiz-adv-x="1040" 
d="M754 1931q-55 0 -89 -45t-34 -119q0 -84 84 -84q53 -1 88 45t35 115q0 88 -84 88zM524 1788q0 92 66 158t160 67q94 0 144 -47t50 -137t-66 -159q-66 -68 -160 -68q-194 2 -194 186zM739 457l-86 788l-364 -788h450zM752 324h-521l-147 -324h-176l706 1462h146l194 -1462
h-170z" />
    <glyph glyph-name="AE" unicode="&#xc6;" horiz-adv-x="1640" 
d="M813 473l152 854h-19l-596 -854h463zM788 340h-528l-235 -340h-185l1043 1462h827l-24 -135h-566l-92 -520h483l-24 -135h-481l-95 -537h568l-25 -135h-725z" />
    <glyph glyph-name="Ccedilla" unicode="&#xc7;" horiz-adv-x="1097" 
d="M238 -451l143 308h156l-193 -308h-106zM131 317q0 84 23 218l77 442q27 145 61 228t91 143q125 131 332 131q170 0 262 -78t92 -221q0 -35 -8 -86l-150 -7q4 25 4 56q0 203 -200 203q-139 0 -215 -94t-113 -308l-76 -428q-20 -111 -20 -178q0 -223 205 -223
q120 -1 198 69t107 201l149 -8q-75 -395 -465 -395q-174 0 -264 86t-90 249z" />
    <glyph glyph-name="Egrave" unicode="&#xc8;" horiz-adv-x="1003" 
d="M825 1618h-112l-148 289h168zM90 0l258 1462h723l-22 -135h-566l-92 -520h481l-24 -135h-479l-97 -537h568l-23 -135h-727z" />
    <glyph glyph-name="Eacute" unicode="&#xc9;" horiz-adv-x="1003" 
d="M639 1618l182 289h180l-247 -289h-115zM90 0l258 1462h723l-22 -135h-566l-92 -520h481l-24 -135h-479l-97 -537h568l-23 -135h-727z" />
    <glyph glyph-name="Ecircumflex" unicode="&#xca;" horiz-adv-x="1003" 
d="M764 1794l-143 -166h-164l268 270h100l174 -270h-149zM90 0l258 1462h723l-22 -135h-566l-92 -520h481l-24 -135h-479l-97 -537h568l-23 -135h-727z" />
    <glyph glyph-name="Edieresis" unicode="&#xcb;" horiz-adv-x="1003" 
d="M834 1634l36 209h140l-37 -209h-139zM492 1634l36 209h140l-37 -209h-139zM90 0l258 1462h723l-22 -135h-566l-92 -520h481l-24 -135h-479l-97 -537h568l-23 -135h-727z" />
    <glyph glyph-name="Igrave" unicode="&#xcc;" horiz-adv-x="518" 
d="M543 1618h-113l-147 289h168zM90 0l258 1462h160l-258 -1462h-160z" />
    <glyph glyph-name="Iacute" unicode="&#xcd;" horiz-adv-x="518" 
d="M369 1618l182 289h180l-248 -289h-114zM90 0l258 1462h160l-258 -1462h-160z" />
    <glyph glyph-name="Icircumflex" unicode="&#xce;" horiz-adv-x="518" 
d="M494 1794l-144 -166h-164l269 270h100l174 -270h-149zM90 0l258 1462h160l-258 -1462h-160z" />
    <glyph glyph-name="Idieresis" unicode="&#xcf;" horiz-adv-x="518" 
d="M559 1634l37 209h139l-37 -209h-139zM217 1634l37 209h139l-37 -209h-139zM90 0l258 1462h160l-258 -1462h-160z" />
    <glyph glyph-name="Eth" unicode="&#xd0;" horiz-adv-x="1173" 
d="M958 1112q0 117 -84 178q-53 39 -176 39h-217l-92 -522h279l-25 -133h-276l-97 -541h217q162 -2 251 87t124 288l78 448q18 106 18 156zM711 1462q201 0 293 -71q117 -92 116 -261q0 -63 -20 -178l-86 -491q-68 -467 -514 -461h-412l119 674h-141l22 133h141l117 655h365
z" />
    <glyph glyph-name="Ntilde" unicode="&#xd1;" horiz-adv-x="1249" 
d="M742 1878q68 0 124 -66q57 -66 84 -65q47 0 88 115h99q-45 -132 -85 -180t-112 -48t-129 68q-33 41 -47 52t-33 11q-51 1 -92 -114h-96q47 129 89 178t110 49zM90 0l258 1462h156l375 -1157l204 1157h154l-258 -1462h-152l-378 1159l-205 -1159h-154z" />
    <glyph glyph-name="Ograve" unicode="&#xd2;" horiz-adv-x="1171" 
d="M879 1618h-113l-148 289h168zM291 340q0 -225 248 -225q128 0 206 90t115 297l80 459q18 92 18 161q0 109 -61 167t-174 59q-152 0 -240 -119q-61 -86 -94 -268l-80 -459q-18 -109 -18 -162zM714 1481q202 0 304 -89q100 -89 100 -255q0 -70 -18 -185l-88 -491
q-23 -135 -56 -212t-92 -138q-126 -129 -328 -129t-304 88q-101 88 -101 254q1 73 21 186l86 491q25 137 56 212q32 75 91 139q127 129 329 129z" />
    <glyph glyph-name="Oacute" unicode="&#xd3;" horiz-adv-x="1171" 
d="M688 1618l182 289h181l-248 -289h-115zM291 340q0 -225 248 -225q128 0 206 90t115 297l80 459q18 92 18 161q0 109 -61 167t-174 59q-152 0 -240 -119q-61 -86 -94 -268l-80 -459q-18 -109 -18 -162zM714 1481q202 0 304 -89q100 -89 100 -255q0 -70 -18 -185l-88 -491
q-23 -135 -56 -212t-92 -138q-126 -129 -328 -129t-304 88q-101 88 -101 254q1 73 21 186l86 491q25 137 56 212q32 75 91 139q127 129 329 129z" />
    <glyph glyph-name="Ocircumflex" unicode="&#xd4;" horiz-adv-x="1171" 
d="M815 1794l-143 -166h-164l268 270h101l174 -270h-150zM291 340q0 -225 248 -225q128 0 206 90t115 297l80 459q18 92 18 161q0 109 -61 167t-174 59q-152 0 -240 -119q-61 -86 -94 -268l-80 -459q-18 -109 -18 -162zM714 1481q202 0 304 -89q100 -89 100 -255
q0 -70 -18 -185l-88 -491q-23 -135 -56 -212t-92 -138q-126 -129 -328 -129t-304 88q-101 88 -101 254q1 73 21 186l86 491q25 137 56 212q32 75 91 139q127 129 329 129z" />
    <glyph glyph-name="Otilde" unicode="&#xd5;" horiz-adv-x="1171" 
d="M709 1878q68 0 125 -66t84 -65q47 0 88 115h98q-45 -132 -85 -180t-112 -48t-129 68q-33 41 -47 52t-33 11q-51 1 -92 -114h-96q47 129 89 178t110 49zM291 340q0 -225 248 -225q128 0 206 90t115 297l80 459q18 92 18 161q0 109 -61 167t-174 59q-152 0 -240 -119
q-61 -86 -94 -268l-80 -459q-18 -109 -18 -162zM714 1481q202 0 304 -89q100 -89 100 -255q0 -70 -18 -185l-88 -491q-23 -135 -56 -212t-92 -138q-126 -129 -328 -129t-304 88q-101 88 -101 254q1 73 21 186l86 491q25 137 56 212q32 75 91 139q127 129 329 129z" />
    <glyph glyph-name="Odieresis" unicode="&#xd6;" horiz-adv-x="1171" 
d="M885 1634l37 209h139l-37 -209h-139zM543 1634l37 209h139l-37 -209h-139zM291 340q0 -225 248 -225q128 0 206 90t115 297l80 459q18 92 18 161q0 109 -61 167t-174 59q-152 0 -240 -119q-61 -86 -94 -268l-80 -459q-18 -109 -18 -162zM714 1481q202 0 304 -89
q100 -89 100 -255q0 -70 -18 -185l-88 -491q-23 -135 -56 -212t-92 -138q-126 -129 -328 -129t-304 88q-101 88 -101 254q1 73 21 186l86 491q25 137 56 212q32 75 91 139q127 129 329 129z" />
    <glyph glyph-name="multiply" unicode="&#xd7;" 
d="M442 745l-241 295l102 88l244 -294l346 294l72 -88l-347 -295l244 -294l-104 -89l-242 295l-348 -295l-72 89z" />
    <glyph glyph-name="Oslash" unicode="&#xd8;" horiz-adv-x="1169" 
d="M293 379l635 868q-57 101 -208 101t-237 -119q-61 -82 -94 -268l-80 -459q-16 -90 -16 -123zM521 115q144 0 223 90t116 297l80 459q14 83 16 120l-634 -866q55 -100 199 -100zM1118 1140q0 -71 -20 -188l-86 -491q-23 -135 -55 -211t-93 -139q-127 -129 -334 -129
t-309 96l-86 -117l-98 70l115 157q-20 68 -20 138t18 184l88 491q23 135 54 211q32 76 93 140q127 129 333 129t310 -99l82 113l98 -70l-110 -153q20 -61 20 -132z" />
    <glyph glyph-name="Ugrave" unicode="&#xd9;" horiz-adv-x="1196" 
d="M891 1618h-113l-147 289h168zM539 -18q-221 0 -318 108q-70 78 -69 205q0 61 22 203l170 964h160l-174 -993q-18 -94 -19 -156q0 -199 221 -198q166 0 252 129q43 66 72 225l176 993h160l-180 -1020q-26 -137 -50 -200t-75 -121q-127 -139 -348 -139z" />
    <glyph glyph-name="Uacute" unicode="&#xda;" horiz-adv-x="1196" 
d="M705 1618l182 289h180l-248 -289h-114zM539 -18q-221 0 -318 108q-70 78 -69 205q0 61 22 203l170 964h160l-174 -993q-18 -94 -19 -156q0 -199 221 -198q166 0 252 129q43 66 72 225l176 993h160l-180 -1020q-26 -137 -50 -200t-75 -121q-127 -139 -348 -139z" />
    <glyph glyph-name="Ucircumflex" unicode="&#xdb;" horiz-adv-x="1196" 
d="M829 1794l-143 -166h-164l269 270h100l174 -270h-150zM539 -18q-221 0 -318 108q-70 78 -69 205q0 61 22 203l170 964h160l-174 -993q-18 -94 -19 -156q0 -199 221 -198q166 0 252 129q43 66 72 225l176 993h160l-180 -1020q-26 -137 -50 -200t-75 -121
q-127 -139 -348 -139z" />
    <glyph glyph-name="Udieresis" unicode="&#xdc;" horiz-adv-x="1196" 
d="M897 1634l37 209h139l-37 -209h-139zM555 1634l37 209h139l-37 -209h-139zM539 -18q-221 0 -318 108q-70 78 -69 205q0 61 22 203l170 964h160l-174 -993q-18 -94 -19 -156q0 -199 221 -198q166 0 252 129q43 66 72 225l176 993h160l-180 -1020q-26 -137 -50 -200
t-75 -121q-127 -139 -348 -139z" />
    <glyph glyph-name="Yacute" unicode="&#xdd;" horiz-adv-x="935" 
d="M590 1618l182 289h180l-247 -289h-115zM299 0l94 532l-225 930h164l170 -747l432 747h174l-555 -930l-94 -532h-160z" />
    <glyph glyph-name="Thorn" unicode="&#xde;" horiz-adv-x="1054" 
d="M545 469q165 0 247 117t82 301q0 109 -52 157t-167 50h-215l-108 -625h213zM657 1227q197 0 289 -80t92 -246q0 -115 -34 -227q-70 -236 -238 -303q-86 -35 -221 -35h-236l-59 -336h-160l258 1462h160l-41 -235h190z" />
    <glyph glyph-name="germandbls" unicode="&#xdf;" horiz-adv-x="991" 
d="M616 1479q154 0 233 -67t79 -191q0 -195 -137 -310q55 -39 77 -87t21 -120q0 -72 -19 -180l-20 -116q-35 -224 -118 -316t-247 -92h-104l22 127h64q109 0 156 60t77 237l23 121q14 97 14 161t-28 94q-29 30 -113 29h-29l21 117h26q80 0 123 83t43 179q0 145 -155 146
q-93 0 -143 -54t-72 -180l-197 -1120h-154l201 1139q33 180 118 260q84 80 238 80z" />
    <glyph glyph-name="agrave" unicode="&#xe0;" horiz-adv-x="925" 
d="M682 1192h-113l-147 289h168zM444 481q-145 0 -200 -67q-59 -66 -60 -193q0 -63 40 -90t144 -27t151 43q48 43 71 164l31 170h-177zM520 1047q145 -1 222 -63t77 -183q0 -66 -18 -166l-113 -635h-121l-6 45q-78 -63 -237 -63q-293 0 -293 211q0 197 92 303
q86 106 313 106h205l14 74q10 53 11 104q0 139 -152 140q-76 0 -125 -36t-88 -120l-127 41q100 242 346 242z" />
    <glyph glyph-name="aacute" unicode="&#xe1;" horiz-adv-x="925" 
d="M498 1192l182 289h180l-248 -289h-114zM444 481q-145 0 -200 -67q-59 -66 -60 -193q0 -63 40 -90t144 -27t151 43q48 43 71 164l31 170h-177zM520 1047q145 -1 222 -63t77 -183q0 -66 -18 -166l-113 -635h-121l-6 45q-78 -63 -237 -63q-293 0 -293 211q0 197 92 303
q86 106 313 106h205l14 74q10 53 11 104q0 139 -152 140q-76 0 -125 -36t-88 -120l-127 41q100 242 346 242z" />
    <glyph glyph-name="acircumflex" unicode="&#xe2;" horiz-adv-x="925" 
d="M614 1368l-143 -166h-164l268 268h101l174 -268h-150zM444 481q-145 0 -200 -67q-59 -66 -60 -193q0 -63 40 -90t144 -27t151 43q48 43 71 164l31 170h-177zM520 1047q145 -1 222 -63t77 -183q0 -66 -18 -166l-113 -635h-121l-6 45q-78 -63 -237 -63q-293 0 -293 211
q0 197 92 303q86 106 313 106h205l14 74q10 53 11 104q0 139 -152 140q-76 0 -125 -36t-88 -120l-127 41q100 242 346 242z" />
    <glyph glyph-name="atilde" unicode="&#xe3;" horiz-adv-x="925" 
d="M504 1452q70 0 123 -66q57 -66 84 -65q47 0 88 115h98q-45 -132 -85 -180t-113 -48t-128 68q-33 41 -47 52t-32 11q-52 1 -93 -114h-96q45 131 88 179t113 48zM444 481q-145 0 -200 -67q-59 -66 -60 -193q0 -63 40 -90t144 -27t151 43q48 43 71 164l31 170h-177z
M520 1047q145 -1 222 -63t77 -183q0 -66 -18 -166l-113 -635h-121l-6 45q-78 -63 -237 -63q-293 0 -293 211q0 197 92 303q86 106 313 106h205l14 74q10 53 11 104q0 139 -152 140q-76 0 -125 -36t-88 -120l-127 41q100 242 346 242z" />
    <glyph glyph-name="adieresis" unicode="&#xe4;" horiz-adv-x="925" 
d="M684 1208l37 209h139l-37 -209h-139zM346 1208l37 209h139l-37 -209h-139zM444 481q-145 0 -200 -67q-59 -66 -60 -193q0 -63 40 -90t144 -27t151 43q48 43 71 164l31 170h-177zM520 1047q145 -1 222 -63t77 -183q0 -66 -18 -166l-113 -635h-121l-6 45q-78 -63 -237 -63
q-293 0 -293 211q0 197 92 303q86 106 313 106h205l14 74q10 53 11 104q0 139 -152 140q-76 0 -125 -36t-88 -120l-127 41q100 242 346 242z" />
    <glyph glyph-name="aring" unicode="&#xe5;" horiz-adv-x="925" 
d="M635 1503q-55 0 -89 -45t-34 -117q0 -84 84 -84q53 -1 88 45t35 115q0 86 -84 86zM631 1585q94 0 144 -47t50 -137q-1 -90 -67 -158q-66 -67 -159 -67t-143 47t-50 139t65 158q66 65 160 65zM444 481q-145 0 -200 -67q-59 -66 -60 -193q0 -63 40 -90t144 -27t151 43
q48 43 71 164l31 170h-177zM520 1047q145 -1 222 -63t77 -183q0 -66 -18 -166l-113 -635h-121l-6 45q-78 -63 -237 -63q-293 0 -293 211q0 197 92 303q86 106 313 106h205l14 74q10 53 11 104q0 139 -152 140q-76 0 -125 -36t-88 -120l-127 41q100 242 346 242z" />
    <glyph glyph-name="ae" unicode="&#xe6;" horiz-adv-x="1456" 
d="M1061 926q-207 0 -254 -279l-8 -43h413q16 98 17 144q0 178 -168 178zM444 483q-143 0 -200 -69q-59 -66 -60 -193q0 -63 39 -90t141 -27t155 50q54 50 75 170l27 159h-177zM1067 1047q305 0 305 -289q0 -94 -35 -275h-561l-14 -86q-10 -55 -10 -106q0 -184 182 -185
q154 0 215 156l129 -29q-84 -252 -354 -251q-113 0 -179 36t-102 121q-59 -90 -126 -124t-191 -33q-295 0 -295 211q0 197 90 304t315 107h207l12 72q10 68 11 100q0 141 -152 142q-74 0 -123 -35t-94 -117l-121 43q53 123 137 180q83 57 221 57t203 -65q18 -18 43 -74
q59 76 125 108t162 32z" />
    <glyph glyph-name="ccedilla" unicode="&#xe7;" horiz-adv-x="858" 
d="M139 -451l144 308h155l-192 -308h-107zM403 -18q-149 0 -227 76t-78 218q0 78 17 170l32 177q41 229 131 327t250 98q158 0 228 -60t75 -191l-137 -31q-8 82 -41 118t-104 36q-103 0 -163 -75t-89 -239l-35 -198q-12 -68 -12 -119q0 -178 162 -178q76 0 124 35
q47 36 80 118l132 -28q-68 -254 -345 -254z" />
    <glyph glyph-name="egrave" unicode="&#xe8;" horiz-adv-x="954" 
d="M694 1192h-112l-148 289h168zM725 748q0 178 -168 178q-207 0 -254 -279l-8 -43h414q16 92 16 144zM250 291q0 -182 180 -182q82 -1 132 35t85 118l129 -29q-45 -131 -134 -191t-236 -60q-307 0 -308 292q0 78 19 181l28 163q39 228 135 328t275 101q313 0 313 -291
q0 -94 -32 -273h-562l-14 -84q-10 -66 -10 -108z" />
    <glyph glyph-name="eacute" unicode="&#xe9;" horiz-adv-x="954" 
d="M508 1192l182 289h180l-247 -289h-115zM725 748q0 178 -168 178q-207 0 -254 -279l-8 -43h414q16 92 16 144zM250 291q0 -182 180 -182q82 -1 132 35t85 118l129 -29q-45 -131 -134 -191t-236 -60q-307 0 -308 292q0 78 19 181l28 163q39 228 135 328t275 101
q313 0 313 -291q0 -94 -32 -273h-562l-14 -84q-10 -66 -10 -108z" />
    <glyph glyph-name="ecircumflex" unicode="&#xea;" horiz-adv-x="954" 
d="M637 1368l-143 -166h-164l268 268h100l174 -268h-149zM725 748q0 178 -168 178q-207 0 -254 -279l-8 -43h414q16 92 16 144zM250 291q0 -182 180 -182q82 -1 132 35t85 118l129 -29q-45 -131 -134 -191t-236 -60q-307 0 -308 292q0 78 19 181l28 163q39 228 135 328
t275 101q313 0 313 -291q0 -94 -32 -273h-562l-14 -84q-10 -66 -10 -108z" />
    <glyph glyph-name="edieresis" unicode="&#xeb;" horiz-adv-x="954" 
d="M705 1208l36 209h140l-37 -209h-139zM367 1208l36 209h140l-37 -209h-139zM725 748q0 178 -168 178q-207 0 -254 -279l-8 -43h414q16 92 16 144zM250 291q0 -182 180 -182q82 -1 132 35t85 118l129 -29q-45 -131 -134 -191t-236 -60q-307 0 -308 292q0 78 19 181l28 163
q39 228 135 328t275 101q313 0 313 -291q0 -94 -32 -273h-562l-14 -84q-10 -66 -10 -108z" />
    <glyph glyph-name="igrave" unicode="&#xec;" horiz-adv-x="458" 
d="M436 1192h-112l-148 289h168zM63 0l183 1028h151l-180 -1028h-154z" />
    <glyph glyph-name="iacute" unicode="&#xed;" horiz-adv-x="458" 
d="M266 1192l183 289h180l-248 -289h-115zM63 0l183 1028h151l-180 -1028h-154z" />
    <glyph glyph-name="icircumflex" unicode="&#xee;" horiz-adv-x="458" 
d="M387 1368l-143 -166h-164l268 268h101l174 -268h-150zM61 0l183 1028h151l-180 -1028h-154z" />
    <glyph glyph-name="idieresis" unicode="&#xef;" horiz-adv-x="458" 
d="M453 1208l36 209h138l-37 -209h-137zM115 1208l37 209h139l-37 -209h-139zM63 0l183 1028h151l-180 -1028h-154z" />
    <glyph glyph-name="eth" unicode="&#xf0;" horiz-adv-x="974" 
d="M725 731q0 174 -170 174q-109 -1 -170 -71t-88 -224l-37 -204q-12 -80 -12 -123q0 -172 170 -172q109 -1 170 69t88 226l35 196q14 74 14 129zM545 1032q111 0 172 -43q-7 65 -27 131t-39 86l-200 -94l-41 84l168 80q-78 78 -168 94l39 107q152 -20 268 -131l170 79
l41 -86l-144 -65q45 -70 72 -192t27 -253t-23 -249l-35 -203q-37 -209 -134 -302t-277 -93q-319 0 -320 280q1 68 17 160l39 215q35 201 120 289q104 106 275 106z" />
    <glyph glyph-name="ntilde" unicode="&#xf1;" horiz-adv-x="989" 
d="M537 1452q70 0 122 -66q57 -66 84 -65q47 0 88 115h99q-45 -132 -85 -180t-113 -48t-128 68q-33 41 -47 52t-33 11q-51 1 -92 -114h-96q45 131 88 179t113 48zM636 1047q108 1 177 -63q70 -64 70 -183q0 -76 -21 -193l-106 -608h-154l109 612q14 86 14 140
q0 162 -150 161q-109 -1 -169 -81t-93 -269l-98 -563h-154l183 1028h116l-4 -88q56 59 114 83t166 24z" />
    <glyph glyph-name="ograve" unicode="&#xf2;" horiz-adv-x="974" 
d="M705 1192h-113l-148 289h168zM727 750q0 168 -174 168q-109 0 -168 -69t-86 -222l-39 -224q-12 -61 -12 -120q0 -172 174 -172q106 0 166 68q59 68 88 224l39 224q12 66 12 123zM881 764q0 -63 -19 -164l-39 -221q-37 -211 -132 -304t-273 -93q-324 0 -324 286
q1 58 17 162l39 219q37 211 132 304t275 94q324 0 324 -283z" />
    <glyph glyph-name="oacute" unicode="&#xf3;" horiz-adv-x="974" 
d="M514 1192l182 289h181l-248 -289h-115zM727 750q0 168 -174 168q-109 0 -168 -69t-86 -222l-39 -224q-12 -61 -12 -120q0 -172 174 -172q106 0 166 68q59 68 88 224l39 224q12 66 12 123zM881 764q0 -63 -19 -164l-39 -221q-37 -211 -132 -304t-273 -93q-324 0 -324 286
q1 58 17 162l39 219q37 211 132 304t275 94q324 0 324 -283z" />
    <glyph glyph-name="ocircumflex" unicode="&#xf4;" horiz-adv-x="974" 
d="M645 1368l-143 -166h-164l268 268h101l174 -268h-150zM727 750q0 168 -174 168q-109 0 -168 -69t-86 -222l-39 -224q-12 -61 -12 -120q0 -172 174 -172q106 0 166 68q59 68 88 224l39 224q12 66 12 123zM881 764q0 -63 -19 -164l-39 -221q-37 -211 -132 -304t-273 -93
q-324 0 -324 286q1 58 17 162l39 219q37 211 132 304t275 94q324 0 324 -283z" />
    <glyph glyph-name="otilde" unicode="&#xf5;" horiz-adv-x="974" 
d="M534 1452q70 0 123 -66q57 -66 84 -65q47 0 88 115h99q-45 -132 -85 -180t-112 -48t-129 68q-33 41 -47 52t-33 11q-51 1 -92 -114h-96q45 131 88 179q42 48 112 48zM727 750q0 168 -174 168q-109 0 -168 -69t-86 -222l-39 -224q-12 -61 -12 -120q0 -172 174 -172
q106 0 166 68q59 68 88 224l39 224q12 66 12 123zM881 764q0 -63 -19 -164l-39 -221q-37 -211 -132 -304t-273 -93q-324 0 -324 286q1 58 17 162l39 219q37 211 132 304t275 94q324 0 324 -283z" />
    <glyph glyph-name="odieresis" unicode="&#xf6;" horiz-adv-x="974" 
d="M709 1208l36 209h140l-37 -209h-139zM371 1208l37 209h139l-37 -209h-139zM727 750q0 168 -174 168q-109 0 -168 -69t-86 -222l-39 -224q-12 -61 -12 -120q0 -172 174 -172q106 0 166 68q59 68 88 224l39 224q12 66 12 123zM881 764q0 -63 -19 -164l-39 -221
q-37 -211 -132 -304t-273 -93q-324 0 -324 286q1 58 17 162l39 219q37 211 132 304t275 94q324 0 324 -283z" />
    <glyph glyph-name="divide" unicode="&#xf7;" 
d="M504 971l33 180h139l-31 -180h-141zM393 340l31 180h141l-30 -180h-142zM117 682l22 127h813l-22 -127h-813z" />
    <glyph glyph-name="oslash" unicode="&#xf8;" horiz-adv-x="976" 
d="M246 283l452 577q-44 60 -148 60t-165 -70t-88 -225l-39 -222q-12 -71 -12 -120zM423 109q106 -1 166 69t87 225l39 222q10 65 14 120l-453 -575q41 -61 147 -61zM881 776q0 -74 -17 -178l-39 -217q-37 -211 -133 -305t-262 -94t-250 65l-63 -80l-76 53l80 103
q-29 61 -29 137t19 170l36 217q37 211 133 305t264 94q167 0 249 -65l63 82l76 -55l-80 -103q29 -55 29 -129z" />
    <glyph glyph-name="ugrave" unicode="&#xf9;" horiz-adv-x="968" 
d="M700 1192h-112l-148 289h168zM106 225q0 66 23 205l107 598h153l-108 -606q-16 -96 -17 -146q0 -160 139 -159q102 0 161 81q58 81 91 267l101 563h151l-180 -1028h-113l2 98q-94 -117 -249 -116q-125 0 -193 63t-68 180z" />
    <glyph glyph-name="uacute" unicode="&#xfa;" horiz-adv-x="968" 
d="M512 1192l182 289h180l-247 -289h-115zM106 225q0 66 23 205l107 598h153l-108 -606q-16 -96 -17 -146q0 -160 139 -159q102 0 161 81q58 81 91 267l101 563h151l-180 -1028h-113l2 98q-94 -117 -249 -116q-125 0 -193 63t-68 180z" />
    <glyph glyph-name="ucircumflex" unicode="&#xfb;" horiz-adv-x="968" 
d="M637 1368l-143 -166h-164l268 268h100l174 -268h-149zM106 225q0 66 23 205l107 598h153l-108 -606q-16 -96 -17 -146q0 -160 139 -159q102 0 161 81q58 81 91 267l101 563h151l-180 -1028h-113l2 98q-94 -117 -249 -116q-125 0 -193 63t-68 180z" />
    <glyph glyph-name="udieresis" unicode="&#xfc;" horiz-adv-x="968" 
d="M707 1208l36 209h140l-37 -209h-139zM369 1208l37 209h139l-37 -209h-139zM106 225q0 66 23 205l107 598h153l-108 -606q-16 -96 -17 -146q0 -160 139 -159q102 0 161 81q58 81 91 267l101 563h151l-180 -1028h-113l2 98q-94 -117 -249 -116q-125 0 -193 63t-68 180z" />
    <glyph glyph-name="yacute" unicode="&#xfd;" horiz-adv-x="856" 
d="M465 1192l182 289h180l-247 -289h-115zM264 -4l-133 1032h150l92 -844l364 844h160l-549 -1202q-86 -186 -164 -240t-254 -57l23 131q100 0 143 32t101 150z" />
    <glyph glyph-name="thorn" unicode="&#xfe;" horiz-adv-x="985" 
d="M739 739q0 176 -157 176q-209 0 -263 -319l-28 -164q-14 -70 -15 -127q0 -195 166 -194q193 0 248 299l37 217q12 68 12 112zM608 1047q285 0 285 -279q0 -78 -16 -166l-39 -215q-37 -213 -126 -309t-249 -96q-83 0 -133 20t-103 70l-94 -533h-153l339 1923h152l-88 -499
q94 84 225 84z" />
    <glyph glyph-name="ydieresis" unicode="&#xff;" horiz-adv-x="856" 
d="M639 1208l37 209h139l-37 -209h-139zM301 1208l37 209h139l-37 -209h-139zM264 -4l-133 1032h150l92 -844l364 844h160l-549 -1202q-86 -186 -164 -240t-254 -57l23 131q100 0 143 32t101 150z" />
    <glyph glyph-name="Amacron" unicode="&#x100;" horiz-adv-x="1040" 
d="M494 1696l20 112h459l-21 -112h-458zM739 457l-86 788l-364 -788h450zM752 324h-521l-147 -324h-176l706 1462h146l194 -1462h-170z" />
    <glyph glyph-name="amacron" unicode="&#x101;" horiz-adv-x="925" 
d="M352 1270l21 112h458l-20 -112h-459zM444 481q-145 0 -200 -67q-59 -66 -60 -193q0 -63 40 -90t144 -27t151 43q48 43 71 164l31 170h-177zM520 1047q145 -1 222 -63t77 -183q0 -66 -18 -166l-113 -635h-121l-6 45q-78 -63 -237 -63q-293 0 -293 211q0 197 92 303
q86 106 313 106h205l14 74q10 53 11 104q0 139 -152 140q-76 0 -125 -36t-88 -120l-127 41q100 242 346 242z" />
    <glyph glyph-name="Abreve" unicode="&#x102;" horiz-adv-x="1040" 
d="M721 1729q71 1 109 35t63 124h104q-27 -156 -88 -216t-192 -60q-225 0 -225 176q0 34 10 100h102l-4 -55q0 -104 121 -104zM739 457l-86 788l-364 -788h450zM752 324h-521l-147 -324h-176l706 1462h146l194 -1462h-170z" />
    <glyph glyph-name="abreve" unicode="&#x103;" horiz-adv-x="925" 
d="M594 1303q72 -1 111 35t61 124h104q-25 -156 -86 -216t-194 -60q-225 0 -225 176q0 37 10 100h102l-4 -55q0 -104 121 -104zM444 481q-145 0 -200 -67q-59 -66 -60 -193q0 -63 40 -90t144 -27t151 43q48 43 71 164l31 170h-177zM520 1047q145 -1 222 -63t77 -183
q0 -66 -18 -166l-113 -635h-121l-6 45q-78 -63 -237 -63q-293 0 -293 211q0 197 92 303q86 106 313 106h205l14 74q10 53 11 104q0 139 -152 140q-76 0 -125 -36t-88 -120l-127 41q100 242 346 242z" />
    <glyph glyph-name="Aogonek" unicode="&#x104;" horiz-adv-x="1040" 
d="M739 457l-86 788l-364 -788h450zM823 -297q41 0 105 18l2 -90q-72 -27 -150 -26q-180 0 -180 133q0 76 64 148t161 114h-41l-32 324h-521l-147 -324h-176l706 1462h146l194 -1462l-14 -8l-12 -8q-182 -119 -183 -224q0 -57 78 -57z" />
    <glyph glyph-name="aogonek" unicode="&#x105;" horiz-adv-x="925" 
d="M444 481q-145 0 -200 -67q-59 -66 -60 -193q0 -63 40 -90t144 -27t151 43q48 43 71 164l31 170h-177zM477 -240q0 -58 78 -57q43 0 107 18v-90q-78 -27 -150 -26q-180 0 -180 133q0 78 64 150t171 116l-6 41q-78 -63 -237 -63q-293 0 -293 211q0 197 92 303
q86 106 313 106h205l14 74q10 53 11 104q0 139 -152 140q-76 0 -125 -36t-88 -120l-127 41q100 242 346 242q145 -1 222 -63t77 -183q0 -66 -18 -166l-113 -635h-2q-126 -84 -168 -133q-41 -49 -41 -107z" />
    <glyph glyph-name="Cacute" unicode="&#x106;" horiz-adv-x="1097" 
d="M678 1618l182 289h180l-247 -289h-115zM131 317q0 84 23 218l77 442q27 145 61 228t91 143q125 131 332 131q170 0 262 -78t92 -221q0 -35 -8 -86l-150 -7q4 25 4 56q0 203 -200 203q-139 0 -215 -94t-113 -308l-76 -428q-20 -111 -20 -178q0 -223 205 -223
q120 -1 198 69t107 201l149 -8q-75 -395 -465 -395q-174 0 -264 86t-90 249z" />
    <glyph glyph-name="cacute" unicode="&#x107;" horiz-adv-x="858" 
d="M504 1192l182 289h180l-248 -289h-114zM403 -18q-149 0 -227 76t-78 218q0 78 17 170l32 177q41 229 131 327t250 98q158 0 228 -60t75 -191l-137 -31q-8 82 -41 118t-104 36q-103 0 -163 -75t-89 -239l-35 -198q-12 -68 -12 -119q0 -178 162 -178q76 0 124 35
q47 36 80 118l132 -28q-68 -254 -345 -254z" />
    <glyph glyph-name="Ccircumflex" unicode="&#x108;" horiz-adv-x="1097" 
d="M788 1794l-143 -166h-164l269 270h100l174 -270h-150zM131 317q0 84 23 218l77 442q27 145 61 228t91 143q125 131 332 131q170 0 262 -78t92 -221q0 -35 -8 -86l-150 -7q4 25 4 56q0 203 -200 203q-139 0 -215 -94t-113 -308l-76 -428q-20 -111 -20 -178
q0 -223 205 -223q120 -1 198 69t107 201l149 -8q-75 -395 -465 -395q-174 0 -264 86t-90 249z" />
    <glyph glyph-name="ccircumflex" unicode="&#x109;" horiz-adv-x="858" 
d="M623 1368l-144 -166h-164l269 268h100l174 -268h-149zM403 -18q-149 0 -227 76t-78 218q0 78 17 170l32 177q41 229 131 327t250 98q158 0 228 -60t75 -191l-137 -31q-8 82 -41 118t-104 36q-103 0 -163 -75t-89 -239l-35 -198q-12 -68 -12 -119q0 -178 162 -178
q76 0 124 35q47 36 80 118l132 -28q-68 -254 -345 -254z" />
    <glyph glyph-name="Cdotaccent" unicode="&#x10a;" horiz-adv-x="1097" 
d="M684 1634l37 209h149l-36 -209h-150zM131 317q0 84 23 218l77 442q27 145 61 228t91 143q125 131 332 131q170 0 262 -78t92 -221q0 -35 -8 -86l-150 -7q4 25 4 56q0 203 -200 203q-139 0 -215 -94t-113 -308l-76 -428q-20 -111 -20 -178q0 -223 205 -223q120 -1 198 69
t107 201l149 -8q-75 -395 -465 -395q-174 0 -264 86t-90 249z" />
    <glyph glyph-name="cdotaccent" unicode="&#x10b;" horiz-adv-x="858" 
d="M506 1208l37 209h149l-37 -209h-149zM403 -18q-149 0 -227 76t-78 218q0 78 17 170l32 177q41 229 131 327t250 98q158 0 228 -60t75 -191l-137 -31q-8 82 -41 118t-104 36q-103 0 -163 -75t-89 -239l-35 -198q-12 -68 -12 -119q0 -178 162 -178q76 0 124 35
q47 36 80 118l132 -28q-68 -254 -345 -254z" />
    <glyph glyph-name="Ccaron" unicode="&#x10c;" horiz-adv-x="1097" 
d="M768 1729l145 165h162l-268 -268h-100l-175 268h150zM131 317q0 84 23 218l77 442q27 145 61 228t91 143q125 131 332 131q170 0 262 -78t92 -221q0 -35 -8 -86l-150 -7q4 25 4 56q0 203 -200 203q-139 0 -215 -94t-113 -308l-76 -428q-20 -111 -20 -178q0 -223 205 -223
q120 -1 198 69t107 201l149 -8q-75 -395 -465 -395q-174 0 -264 86t-90 249z" />
    <glyph glyph-name="ccaron" unicode="&#x10d;" horiz-adv-x="858" 
d="M600 1303l145 165h162l-268 -270h-102l-172 270h149zM403 -18q-149 0 -227 76t-78 218q0 78 17 170l32 177q41 229 131 327t250 98q158 0 228 -60t75 -191l-137 -31q-8 82 -41 118t-104 36q-103 0 -163 -75t-89 -239l-35 -198q-12 -68 -12 -119q0 -178 162 -178
q76 0 124 35q47 36 80 118l132 -28q-68 -254 -345 -254z" />
    <glyph glyph-name="Dcaron" unicode="&#x10e;" horiz-adv-x="1173" 
d="M733 1729l146 165h161l-268 -268h-100l-174 268h149zM958 1112q0 117 -84 178q-53 39 -176 39h-215l-213 -1196h217q162 -2 251 87t124 288l78 448q18 90 18 156zM711 1462q201 0 293 -71q117 -94 116 -265q0 -53 -20 -174l-86 -491q-72 -467 -514 -461h-412l258 1462
h365z" />
    <glyph glyph-name="dcaron" unicode="&#x10f;" horiz-adv-x="1126" 
d="M1059 1016l129 461h149l-172 -461h-106zM252 291q0 -178 158 -178q203 0 260 319l28 164q12 66 13 131q0 190 -168 191q-99 0 -157 -70t-85 -221l-39 -211q-10 -57 -10 -125zM383 -18q-287 0 -287 282q0 76 19 172l37 217q37 207 124 300q88 93 248 94q88 1 138 -19
t100 -74l88 508h154l-259 -1462h-118l2 84l-8 -10q-92 -92 -238 -92z" />
    <glyph glyph-name="Dcroat" unicode="&#x110;" horiz-adv-x="1173" 
d="M958 1112q0 117 -84 178q-53 39 -176 39h-217l-92 -522h279l-25 -133h-276l-97 -541h217q162 -2 251 87t124 288l78 448q18 106 18 156zM711 1462q201 0 293 -71q117 -92 116 -261q0 -63 -20 -178l-86 -491q-68 -467 -514 -461h-412l119 674h-141l22 133h141l117 655h365
z" />
    <glyph glyph-name="dcroat" unicode="&#x111;" 
d="M252 291q0 -178 158 -178q203 0 260 319l28 164q12 66 13 131q0 190 -168 191q-99 0 -157 -70t-85 -221l-39 -211q-10 -57 -10 -125zM383 -18q-287 0 -287 282q0 76 19 172l37 217q37 207 124 300q88 93 248 94q88 1 138 -19t100 -74l39 220h-260l20 112h258l31 176h154
l-31 -176h135l-18 -112h-138l-207 -1174h-118l2 84l-8 -10q-92 -92 -238 -92z" />
    <glyph glyph-name="Emacron" unicode="&#x112;" horiz-adv-x="1003" 
d="M512 1696l20 112h459l-20 -112h-459zM90 0l258 1462h723l-22 -135h-566l-92 -520h481l-24 -135h-479l-97 -537h568l-23 -135h-727z" />
    <glyph glyph-name="emacron" unicode="&#x113;" horiz-adv-x="954" 
d="M381 1270l20 112h459l-20 -112h-459zM725 748q0 178 -168 178q-207 0 -254 -279l-8 -43h414q16 92 16 144zM250 291q0 -182 180 -182q82 -1 132 35t85 118l129 -29q-45 -131 -134 -191t-236 -60q-307 0 -308 292q0 78 19 181l28 163q39 228 135 328t275 101
q313 0 313 -291q0 -94 -32 -273h-562l-14 -84q-10 -66 -10 -108z" />
    <glyph glyph-name="Ebreve" unicode="&#x114;" horiz-adv-x="1003" 
d="M743 1729q72 1 110 35t62 124h105q-27 -156 -88 -216t-193 -60q-225 0 -225 176q0 34 10 100h103l-4 -55q0 -104 120 -104zM90 0l258 1462h723l-22 -135h-566l-92 -520h481l-24 -135h-479l-97 -537h568l-23 -135h-727z" />
    <glyph glyph-name="ebreve" unicode="&#x115;" horiz-adv-x="954" 
d="M606 1303q72 -1 111 35t61 124h105q-25 -156 -86 -216t-195 -60q-225 0 -225 176q0 37 10 100h102l-4 -55q0 -104 121 -104zM725 748q0 178 -168 178q-207 0 -254 -279l-8 -43h414q16 92 16 144zM250 291q0 -182 180 -182q82 -1 132 35t85 118l129 -29
q-45 -131 -134 -191t-236 -60q-307 0 -308 292q0 78 19 181l28 163q39 228 135 328t275 101q313 0 313 -291q0 -94 -32 -273h-562l-14 -84q-10 -66 -10 -108z" />
    <glyph glyph-name="Edotaccent" unicode="&#x116;" horiz-adv-x="1003" 
d="M657 1634l37 209h150l-37 -209h-150zM90 0l258 1462h723l-22 -135h-566l-92 -520h481l-24 -135h-479l-97 -537h568l-23 -135h-727z" />
    <glyph glyph-name="edotaccent" unicode="&#x117;" horiz-adv-x="954" 
d="M524 1208l37 209h150l-37 -209h-150zM725 748q0 178 -168 178q-207 0 -254 -279l-8 -43h414q16 92 16 144zM250 291q0 -182 180 -182q82 -1 132 35t85 118l129 -29q-45 -131 -134 -191t-236 -60q-307 0 -308 292q0 78 19 181l28 163q39 228 135 328t275 101
q313 0 313 -291q0 -94 -32 -273h-562l-14 -84q-10 -66 -10 -108z" />
    <glyph glyph-name="Eogonek" unicode="&#x118;" horiz-adv-x="1003" 
d="M606 -240q0 -58 80 -57q41 0 105 18l2 -90q-80 -27 -152 -26q-180 0 -180 133q0 152 225 262h-596l258 1462h723l-22 -135h-566l-92 -520h481l-24 -135h-479l-97 -537h568l-23 -135l-14 -8q-105 -70 -151 -122t-46 -110z" />
    <glyph glyph-name="eogonek" unicode="&#x119;" horiz-adv-x="954" 
d="M725 748q0 178 -168 178q-207 0 -254 -279l-8 -43h414q16 92 16 144zM420 -238q0 -59 78 -59q43 0 106 18v-90q-70 -27 -149 -26q-181 0 -181 133t144 244q-150 2 -217 53q-102 76 -103 239q0 78 19 181l28 163q39 228 135 328t275 101q313 0 313 -291q0 -94 -32 -273
h-562l-14 -84q-10 -66 -10 -108q0 -182 180 -182q82 -1 132 35t85 118l129 -29q-49 -141 -147 -200q-115 -85 -162 -145t-47 -126z" />
    <glyph glyph-name="Ecaron" unicode="&#x11a;" horiz-adv-x="1003" 
d="M743 1729l146 165h162l-269 -268h-100l-174 268h149zM90 0l258 1462h723l-22 -135h-566l-92 -520h481l-24 -135h-479l-97 -537h568l-23 -135h-727z" />
    <glyph glyph-name="ecaron" unicode="&#x11b;" horiz-adv-x="954" 
d="M612 1303l146 165h162l-269 -270h-102l-172 270h149zM725 748q0 178 -168 178q-207 0 -254 -279l-8 -43h414q16 92 16 144zM250 291q0 -182 180 -182q82 -1 132 35t85 118l129 -29q-45 -131 -134 -191t-236 -60q-307 0 -308 292q0 78 19 181l28 163q39 228 135 328
t275 101q313 0 313 -291q0 -94 -32 -273h-562l-14 -84q-10 -66 -10 -108z" />
    <glyph glyph-name="Gcircumflex" unicode="&#x11c;" horiz-adv-x="1146" 
d="M799 1794l-144 -166h-163l268 270h100l174 -270h-149zM514 -18q-186 0 -284 87q-97 87 -97 255q0 76 23 211l77 442q27 147 61 229t93 142q129 131 321 131t287 -79q94 -79 95 -224q0 -27 -7 -82l-151 -7q4 20 4 48q0 211 -211 211q-143 0 -221 -94t-117 -308l-74 -428
q-20 -104 -20 -174q0 -227 225 -227q276 0 336 354l31 166h-246l23 129h403l-51 -287q-23 -137 -55 -215t-89 -139q-133 -141 -356 -141z" />
    <glyph glyph-name="gcircumflex" unicode="&#x11d;" horiz-adv-x="989" 
d="M651 1368l-143 -166h-164l268 268h101l174 -268h-150zM250 293q0 -180 160 -180q205 0 260 319l28 164q12 61 13 129q0 193 -168 193q-193 0 -244 -291l-39 -215q-10 -68 -10 -119zM377 -18q-281 0 -281 282q0 80 17 174l39 215q37 207 123 300q87 93 252 93t247 -102
l33 84h121l-189 -1073q-39 -223 -145 -329t-295 -105q-137 0 -202 54t-74 175l137 31q8 -72 43 -104t110 -31q113 0 177 72t94 227l20 121q-86 -84 -227 -84z" />
    <glyph glyph-name="Gbreve" unicode="&#x11e;" horiz-adv-x="1146" 
d="M770 1729q72 1 110 35t62 124h105q-27 -156 -89 -216t-192 -60q-225 0 -225 176q0 34 10 100h102l-4 -55q0 -104 121 -104zM514 -18q-186 0 -284 87q-97 87 -97 255q0 76 23 211l77 442q27 147 61 229t93 142q129 131 321 131t287 -79q94 -79 95 -224q0 -27 -7 -82
l-151 -7q4 20 4 48q0 211 -211 211q-143 0 -221 -94t-117 -308l-74 -428q-20 -104 -20 -174q0 -227 225 -227q276 0 336 354l31 166h-246l23 129h403l-51 -287q-23 -137 -55 -215t-89 -139q-133 -141 -356 -141z" />
    <glyph glyph-name="gbreve" unicode="&#x11f;" horiz-adv-x="989" 
d="M643 1303q72 -1 111 35t61 124h105q-25 -156 -86 -216t-195 -60q-225 0 -225 176q0 37 10 100h102l-4 -55q0 -104 121 -104zM250 293q0 -180 160 -180q205 0 260 319l28 164q12 61 13 129q0 193 -168 193q-193 0 -244 -291l-39 -215q-10 -68 -10 -119zM377 -18
q-281 0 -281 282q0 80 17 174l39 215q37 207 123 300q87 93 252 93t247 -102l33 84h121l-189 -1073q-39 -223 -145 -329t-295 -105q-137 0 -202 54t-74 175l137 31q8 -72 43 -104t110 -31q113 0 177 72t94 227l20 121q-86 -84 -227 -84z" />
    <glyph glyph-name="Gdotaccent" unicode="&#x120;" horiz-adv-x="1146" 
d="M690 1634l37 209h150l-37 -209h-150zM514 -18q-186 0 -284 87q-97 87 -97 255q0 76 23 211l77 442q27 147 61 229t93 142q129 131 321 131t287 -79q94 -79 95 -224q0 -27 -7 -82l-151 -7q4 20 4 48q0 211 -211 211q-143 0 -221 -94t-117 -308l-74 -428q-20 -104 -20 -174
q0 -227 225 -227q276 0 336 354l31 166h-246l23 129h403l-51 -287q-23 -137 -55 -215t-89 -139q-133 -141 -356 -141z" />
    <glyph glyph-name="gdotaccent" unicode="&#x121;" horiz-adv-x="989" 
d="M557 1208l37 209h149l-36 -209h-150zM250 293q0 -180 160 -180q205 0 260 319l28 164q12 61 13 129q0 193 -168 193q-193 0 -244 -291l-39 -215q-10 -68 -10 -119zM377 -18q-281 0 -281 282q0 80 17 174l39 215q37 207 123 300q87 93 252 93t247 -102l33 84h121
l-189 -1073q-39 -223 -145 -329t-295 -105q-137 0 -202 54t-74 175l137 31q8 -72 43 -104t110 -31q113 0 177 72t94 227l20 121q-86 -84 -227 -84z" />
    <glyph glyph-name="Gcommaaccent" unicode="&#x122;" horiz-adv-x="1146" 
d="M264 -451l144 308h155l-192 -308h-107zM514 -18q-186 0 -284 87q-97 87 -97 255q0 76 23 211l77 442q27 147 61 229t93 142q129 131 321 131t287 -79q94 -79 95 -224q0 -27 -7 -82l-151 -7q4 20 4 48q0 211 -211 211q-143 0 -221 -94t-117 -308l-74 -428
q-20 -104 -20 -174q0 -227 225 -227q276 0 336 354l31 166h-246l23 129h403l-51 -287q-23 -137 -55 -215t-89 -139q-133 -141 -356 -141z" />
    <glyph glyph-name="gcommaaccent" unicode="&#x123;" horiz-adv-x="989" 
d="M532 1192l246 289h115l-182 -289h-179zM250 293q0 -180 160 -180q205 0 260 319l28 164q12 61 13 129q0 193 -168 193q-193 0 -244 -291l-39 -215q-10 -68 -10 -119zM377 -18q-281 0 -281 282q0 80 17 174l39 215q37 207 123 300q87 93 252 93t247 -102l33 84h121
l-189 -1073q-39 -223 -145 -329t-295 -105q-137 0 -202 54t-74 175l137 31q8 -72 43 -104t110 -31q113 0 177 72t94 227l20 121q-86 -84 -227 -84z" />
    <glyph glyph-name="Hcircumflex" unicode="&#x124;" horiz-adv-x="1179" 
d="M821 1794l-143 -166h-164l268 270h101l174 -270h-150zM90 0l258 1462h160l-117 -655h504l115 655h159l-258 -1462h-159l118 672h-501l-119 -672h-160z" />
    <glyph glyph-name="hcircumflex" unicode="&#x125;" horiz-adv-x="989" 
d="M498 1794l-144 -166h-164l269 270h100l174 -270h-149zM883 801q0 -76 -21 -193l-106 -608h-154l109 616q14 86 14 134q0 162 -147 161q-109 -1 -169 -79t-94 -263l-100 -569h-154l258 1462h154l-88 -497q57 47 107 64t124 18q127 0 197 -65t70 -181z" />
    <glyph glyph-name="Hbar" unicode="&#x126;" horiz-adv-x="1179" 
d="M391 807h504l37 209h-504zM90 0l178 1016h-114l22 121h115l57 325h160l-57 -325h501l58 325h159l-57 -325h115l-21 -121h-114l-181 -1016h-159l118 672h-501l-119 -672h-160z" />
    <glyph glyph-name="hbar" unicode="&#x127;" horiz-adv-x="989" 
d="M613 1047q130 0 200 -65t70 -181q0 -74 -21 -193l-106 -608h-154l109 616q14 86 14 134q0 162 -147 161q-109 -1 -169 -79t-94 -263l-100 -569h-154l207 1174h-137l21 112h137l30 176h154l-33 -176h258l-18 -112h-258l-37 -209q98 82 228 82z" />
    <glyph glyph-name="Itilde" unicode="&#x128;" horiz-adv-x="518" 
d="M383 1878q68 0 125 -66t84 -65q47 0 88 115h98q-45 -132 -85 -180q-41 -48 -113 -48t-127 68q-33 41 -47 52t-33 11q-51 1 -92 -114h-97q47 129 89 178t110 49zM90 0l258 1462h160l-258 -1462h-160z" />
    <glyph glyph-name="itilde" unicode="&#x129;" horiz-adv-x="458" 
d="M281 1452q70 0 122 -66q57 -66 84 -65q47 0 88 115h99q-45 -132 -85 -180t-112 -48t-129 68q-33 41 -47 52t-33 11q-51 1 -92 -114h-96q45 131 88 179t113 48zM63 0l183 1028h151l-180 -1028h-154z" />
    <glyph glyph-name="Imacron" unicode="&#x12a;" horiz-adv-x="518" 
d="M240 1696l20 112h459l-21 -112h-458zM90 0l258 1462h160l-258 -1462h-160z" />
    <glyph glyph-name="imacron" unicode="&#x12b;" horiz-adv-x="458" 
d="M133 1270l21 112h458l-20 -112h-459zM61 0l183 1028h151l-180 -1028h-154z" />
    <glyph glyph-name="Ibreve" unicode="&#x12c;" horiz-adv-x="518" 
d="M475 1729q72 1 110 35t62 124h105q-27 -156 -88 -216t-193 -60q-225 0 -225 176q0 34 10 100h102l-4 -55q0 -104 121 -104zM90 0l258 1462h160l-258 -1462h-160z" />
    <glyph glyph-name="ibreve" unicode="&#x12d;" horiz-adv-x="458" 
d="M367 1303q73 -1 111 35t61 124h104q-25 -156 -86 -216t-195 -60q-225 0 -225 176q0 37 10 100h103l-4 -55q0 -104 121 -104zM61 0l183 1028h151l-180 -1028h-154z" />
    <glyph glyph-name="Iogonek" unicode="&#x12e;" horiz-adv-x="518" 
d="M49 -236q0 -60 76 -61q41 0 98 18v-90q-74 -27 -143 -26q-176 0 -176 137q0 74 57 142t160 116h-31l256 1462h160l-256 -1462q-106 -68 -154 -122t-47 -114z" />
    <glyph glyph-name="iogonek" unicode="&#x12f;" horiz-adv-x="458" 
d="M285 1253l37 215h153l-37 -215h-153zM16 -236q0 -61 76 -61q41 0 98 18v-90q-74 -27 -143 -26q-176 0 -176 137q0 74 60 146t157 112h-25l181 1028h153l-180 -1028q-4 -2 -13 -8t-14 -8q-174 -117 -174 -220z" />
    <glyph glyph-name="Idotaccent" unicode="&#x130;" horiz-adv-x="518" 
d="M381 1634l37 209h149l-37 -209h-149zM90 0l258 1462h160l-258 -1462h-160z" />
    <glyph glyph-name="dotlessi" unicode="&#x131;" horiz-adv-x="458" 
d="M63 0l183 1028h151l-180 -1028h-154z" />
    <glyph glyph-name="IJ" unicode="&#x132;" horiz-adv-x="1038" 
d="M354 -498q-90 0 -182 33l80 125q47 -25 94 -25q137 0 205 138q29 61 63 254l252 1435h160l-256 -1452q-45 -264 -102 -354q-106 -154 -314 -154zM90 0l258 1462h160l-258 -1462h-160z" />
    <glyph glyph-name="ij" unicode="&#x133;" horiz-adv-x="921" 
d="M705 1028h153l-188 -1069q-39 -250 -132 -342t-307 -88l23 131q113 -6 174 62t88 233zM743 1253l39 215h154l-39 -215h-154zM63 0l183 1028h151l-180 -1028h-154zM285 1253l37 215h153l-37 -215h-153z" />
    <glyph glyph-name="Jcircumflex" unicode="&#x134;" horiz-adv-x="794" 
d="M729 1794l-143 -166h-164l268 270h101l174 -270h-150zM214 115q122 0 187 135q29 61 64 254l168 958h160l-172 -977q-33 -186 -49 -240t-52 -110q-98 -153 -296 -153t-322 131l110 106q80 -104 202 -104z" />
    <glyph glyph-name="jcircumflex" unicode="&#x135;" horiz-adv-x="468" 
d="M379 1368l-143 -166h-164l268 268h100l174 -268h-149zM250 1028h153l-188 -1069q-39 -250 -132 -342t-306 -88l22 131q113 -6 174 62t88 233z" />
    <glyph glyph-name="Kcommaaccent" unicode="&#x136;" horiz-adv-x="1071" 
d="M276 -451l144 308h155l-192 -308h-107zM90 0l258 1462h158l-133 -766l643 766h180l-512 -598l293 -864h-176l-238 743l-231 -268l-82 -475h-160z" />
    <glyph glyph-name="kcommaaccent" unicode="&#x137;" horiz-adv-x="911" 
d="M178 -451l144 308h155l-192 -308h-107zM63 0l259 1462h153l-178 -1001l471 567h174l-375 -434l221 -594h-165l-170 483l-191 -225l-45 -258h-154z" />
    <glyph glyph-name="kgreenlandic" unicode="&#x138;" horiz-adv-x="911" 
d="M63 0l183 1028h151l-100 -565l471 565h174l-375 -434l221 -594h-165l-170 483l-191 -225l-45 -258h-154z" />
    <glyph glyph-name="Lacute" unicode="&#x139;" horiz-adv-x="933" 
d="M414 1618l182 289h180l-248 -289h-114zM90 0l258 1462h160l-234 -1327h572l-23 -135h-733z" />
    <glyph glyph-name="lacute" unicode="&#x13a;" horiz-adv-x="520" 
d="M356 1618l183 289h180l-248 -289h-115zM260 218q0 -44 29 -66t102 -23h35l-23 -129h-41q-141 0 -199 41t-59 141q0 59 19 170l196 1110h152l-201 -1138q-10 -62 -10 -106z" />
    <glyph glyph-name="Lcommaaccent" unicode="&#x13b;" horiz-adv-x="933" 
d="M233 -451l144 308h155l-192 -308h-107zM90 0l258 1462h160l-234 -1327h572l-23 -135h-733z" />
    <glyph glyph-name="lcommaaccent" unicode="&#x13c;" horiz-adv-x="520" 
d="M-27 -451l144 308h153l-190 -308h-107zM260 218q0 -44 29 -66t102 -23h35l-25 -129h-39q-143 0 -200 41t-58 143q0 57 19 168l196 1110h152l-201 -1138q-10 -62 -10 -106z" />
    <glyph glyph-name="Lcaron" unicode="&#x13d;" horiz-adv-x="933" 
d="M616 1016l129 461h150l-172 -461h-107zM90 0l258 1462h160l-234 -1327h572l-23 -135h-733z" />
    <glyph glyph-name="lcaron" unicode="&#x13e;" horiz-adv-x="604" 
d="M537 1016l129 461h149l-172 -461h-106zM260 218q0 -44 29 -66t102 -23h35l-23 -129h-41q-141 0 -199 41t-59 141q0 59 19 170l196 1110h152l-201 -1138q-10 -62 -10 -106z" />
    <glyph glyph-name="Ldot" unicode="&#x13f;" horiz-adv-x="933" 
d="M664 645l34 197h140l-35 -197h-139zM90 0l258 1462h160l-234 -1327h572l-23 -135h-733z" />
    <glyph glyph-name="ldot" unicode="&#x140;" horiz-adv-x="585" 
d="M471 645l35 197h139l-35 -197h-139zM260 218q0 -44 29 -66t102 -23h35l-23 -129h-41q-141 0 -199 41t-59 141q0 59 19 170l196 1110h152l-201 -1138q-10 -62 -10 -106z" />
    <glyph glyph-name="Lslash" unicode="&#x141;" horiz-adv-x="933" 
d="M88 0l78 440l-146 -100l27 154l148 102l151 866h160l-133 -755l391 272l-27 -154l-391 -272l-74 -418h574l-25 -135h-733z" />
    <glyph glyph-name="lslash" unicode="&#x142;" horiz-adv-x="542" 
d="M373 0q-141 0 -200 42q-58 42 -58 142q0 61 12 123l49 281l-182 -127l29 160l180 124l127 717h153l-108 -610l225 156l-27 -158l-227 -156l-65 -370q-11 -68 -11 -109q-1 -86 131 -86h35l-22 -129h-41z" />
    <glyph glyph-name="Nacute" unicode="&#x143;" horiz-adv-x="1249" 
d="M741 1618l183 289h180l-248 -289h-115zM90 0l258 1462h156l375 -1157l204 1157h154l-258 -1462h-152l-378 1159l-205 -1159h-154z" />
    <glyph glyph-name="nacute" unicode="&#x144;" horiz-adv-x="989" 
d="M528 1192l183 289h180l-248 -289h-115zM636 1047q108 1 177 -63q70 -64 70 -183q0 -76 -21 -193l-106 -608h-154l109 612q14 86 14 140q0 162 -150 161q-109 -1 -169 -81t-93 -269l-98 -563h-154l183 1028h116l-4 -88q56 59 114 83t166 24z" />
    <glyph glyph-name="Ncommaaccent" unicode="&#x145;" horiz-adv-x="1249" 
d="M328 -451l143 308h156l-193 -308h-106zM90 0l258 1462h156l375 -1157l204 1157h154l-258 -1462h-152l-378 1159l-205 -1159h-154z" />
    <glyph glyph-name="ncommaaccent" unicode="&#x146;" horiz-adv-x="989" 
d="M197 -451l143 308h156l-193 -308h-106zM636 1047q108 1 177 -63q70 -64 70 -183q0 -76 -21 -193l-106 -608h-154l109 612q14 86 14 140q0 162 -150 161q-109 -1 -169 -81t-93 -269l-98 -563h-154l183 1028h116l-4 -88q56 59 114 83t166 24z" />
    <glyph glyph-name="Ncaron" unicode="&#x147;" horiz-adv-x="1249" 
d="M836 1729l145 165h162l-269 -268h-100l-174 268h150zM90 0l258 1462h156l375 -1157l204 1157h154l-258 -1462h-152l-378 1159l-205 -1159h-154z" />
    <glyph glyph-name="ncaron" unicode="&#x148;" horiz-adv-x="989" 
d="M621 1303l145 165h162l-269 -270h-102l-172 270h150zM636 1047q108 1 177 -63q70 -64 70 -183q0 -76 -21 -193l-106 -608h-154l109 612q14 86 14 140q0 162 -150 161q-109 -1 -169 -81t-93 -269l-98 -563h-154l183 1028h116l-4 -88q56 59 114 83t166 24z" />
    <glyph glyph-name="napostrophe" unicode="&#x149;" horiz-adv-x="1077" 
d="M74 977l145 485h164l-178 -485h-131zM942 801q0 -80 -22 -193l-107 -608h-154l109 612q16 86 16 140q0 162 -149 161q-109 -1 -169 -81t-93 -269l-101 -563h-153l182 1028h117l-2 -88q98 106 242 106q284 0 284 -245z" />
    <glyph glyph-name="Eng" unicode="&#x14a;" horiz-adv-x="1249" 
d="M90 0l258 1462h156l377 -1155l202 1155h154l-264 -1501q-39 -244 -134 -339t-300 -93l20 127q113 -6 174 62t86 225l12 65l-382 1151l-205 -1159h-154z" />
    <glyph glyph-name="eng" unicode="&#x14b;" horiz-adv-x="989" 
d="M636 1047q108 1 177 -63q70 -64 70 -183q0 -80 -21 -193l-114 -647q-36 -244 -134 -339t-305 -93l23 131q113 -8 175 62t87 233l117 657q14 86 14 140q0 162 -150 161q-109 -1 -169 -81t-93 -269l-98 -563h-154l183 1028h116l-4 -88q56 59 114 83t166 24z" />
    <glyph glyph-name="Omacron" unicode="&#x14c;" horiz-adv-x="1171" 
d="M555 1696l20 112h459l-20 -112h-459zM291 340q0 -225 248 -225q128 0 206 90t115 297l80 459q18 92 18 161q0 109 -61 167t-174 59q-152 0 -240 -119q-61 -86 -94 -268l-80 -459q-18 -109 -18 -162zM714 1481q202 0 304 -89q100 -89 100 -255q0 -70 -18 -185l-88 -491
q-23 -135 -56 -212t-92 -138q-126 -129 -328 -129t-304 88q-101 88 -101 254q1 73 21 186l86 491q25 137 56 212q32 75 91 139q127 129 329 129z" />
    <glyph glyph-name="omacron" unicode="&#x14d;" horiz-adv-x="974" 
d="M387 1270l21 112h458l-20 -112h-459zM727 750q0 168 -174 168q-109 0 -168 -69t-86 -222l-39 -224q-12 -61 -12 -120q0 -172 174 -172q106 0 166 68q59 68 88 224l39 224q12 66 12 123zM881 764q0 -63 -19 -164l-39 -221q-37 -211 -132 -304t-273 -93q-324 0 -324 286
q1 58 17 162l39 219q37 211 132 304t275 94q324 0 324 -283z" />
    <glyph glyph-name="Obreve" unicode="&#x14e;" horiz-adv-x="1171" 
d="M801 1729q71 1 109 35t63 124h104q-27 -156 -88 -216t-192 -60q-225 0 -226 176q1 34 11 100h102l-4 -55q0 -104 121 -104zM291 340q0 -225 248 -225q128 0 206 90t115 297l80 459q18 92 18 161q0 109 -61 167t-174 59q-152 0 -240 -119q-61 -86 -94 -268l-80 -459
q-18 -109 -18 -162zM714 1481q202 0 304 -89q100 -89 100 -255q0 -70 -18 -185l-88 -491q-23 -135 -56 -212t-92 -138q-126 -129 -328 -129t-304 88q-101 88 -101 254q1 73 21 186l86 491q25 137 56 212q32 75 91 139q127 129 329 129z" />
    <glyph glyph-name="obreve" unicode="&#x14f;" horiz-adv-x="974" 
d="M627 1303q73 -1 111 35t61 124h104q-25 -156 -86 -216t-194 -60q-225 0 -226 176q1 37 11 100h102l-4 -55q0 -104 121 -104zM727 750q0 168 -174 168q-109 0 -168 -69t-86 -222l-39 -224q-12 -61 -12 -120q0 -172 174 -172q106 0 166 68q59 68 88 224l39 224
q12 66 12 123zM881 764q0 -63 -19 -164l-39 -221q-37 -211 -132 -304t-273 -93q-324 0 -324 286q1 58 17 162l39 219q37 211 132 304t275 94q324 0 324 -283z" />
    <glyph glyph-name="Ohungarumlaut" unicode="&#x150;" horiz-adv-x="1171" 
d="M834 1618l155 289h162l-209 -289h-108zM592 1618l156 289h161l-209 -289h-108zM291 340q0 -225 248 -225q128 0 206 90t115 297l80 459q18 92 18 161q0 109 -61 167t-174 59q-152 0 -240 -119q-61 -86 -94 -268l-80 -459q-18 -109 -18 -162zM714 1481q202 0 304 -89
q100 -89 100 -255q0 -70 -18 -185l-88 -491q-23 -135 -56 -212t-92 -138q-126 -129 -328 -129t-304 88q-101 88 -101 254q1 73 21 186l86 491q25 137 56 212q32 75 91 139q127 129 329 129z" />
    <glyph glyph-name="ohungarumlaut" unicode="&#x151;" horiz-adv-x="974" 
d="M659 1192l156 289h162l-209 -289h-109zM418 1192l155 289h162l-209 -289h-108zM727 750q0 168 -174 168q-109 0 -168 -69t-86 -222l-39 -224q-12 -61 -12 -120q0 -172 174 -172q106 0 166 68q59 68 88 224l39 224q12 66 12 123zM881 764q0 -63 -19 -164l-39 -221
q-37 -211 -132 -304t-273 -93q-324 0 -324 286q1 58 17 162l39 219q37 211 132 304t275 94q324 0 324 -283z" />
    <glyph glyph-name="OE" unicode="&#x152;" horiz-adv-x="1683" 
d="M291 340q0 -106 60 -164t185 -59q259 0 326 383l80 448q18 111 19 166q0 232 -247 232q-128 0 -208 -91t-117 -294l-80 -461q-18 -98 -18 -160zM131 322q0 74 21 186l86 493q41 240 145 349q125 131 315 131t277 -82l53 -76l25 139h702l-24 -135h-564l-92 -520h479
l-22 -135h-481l-95 -537h568l-25 -135h-702l22 135q-70 -87 -143 -121q-74 -33 -182 -32q-172 0 -268 89q-95 89 -95 251z" />
    <glyph glyph-name="oe" unicode="&#x153;" horiz-adv-x="1527" 
d="M1298 748q0 178 -168 178q-207 0 -253 -279l-9 -43h414q16 98 16 144zM729 743q0 174 -174 175q-109 0 -169 -70t-87 -223l-39 -224q-12 -66 -12 -116q0 -176 174 -176q106 0 167 70q60 70 89 222l39 224q12 72 12 118zM1135 1047q307 0 307 -291q0 -94 -33 -273h-563
l-15 -86q-10 -57 -10 -106q0 -184 183 -185q154 0 215 156l129 -29q-45 -131 -130 -191t-225 -60q-211 0 -278 161q-57 -88 -128 -125t-179 -36q-154 0 -234 72t-80 210q1 74 17 162l39 217q37 213 132 308t271 96q115 0 183 -37t104 -119q59 84 127 120t168 36z" />
    <glyph glyph-name="Racute" unicode="&#x154;" horiz-adv-x="1120" 
d="M639 1618l182 289h180l-247 -289h-115zM616 768q160 0 240 99t80 270q0 102 -54 147t-173 45h-226l-98 -561h231zM721 1462q205 0 292 -78t87 -225q0 -207 -92 -346t-244 -160l158 -653h-177l-139 639h-241l-113 -639h-160l258 1462h371z" />
    <glyph glyph-name="racute" unicode="&#x155;" horiz-adv-x="665" 
d="M414 1192l182 289h180l-248 -289h-114zM584 1047q90 0 166 -54l-91 -129q-51 49 -110 49q-91 0 -149 -97t-97 -314l-88 -502h-154l183 1028h118l3 -92q86 111 219 111z" />
    <glyph glyph-name="Rcommaaccent" unicode="&#x156;" horiz-adv-x="1120" 
d="M264 -451l144 308h155l-192 -308h-107zM616 768q160 0 240 99t80 270q0 102 -54 147t-173 45h-226l-98 -561h231zM721 1462q205 0 292 -78t87 -225q0 -207 -92 -346t-244 -160l158 -653h-177l-139 639h-241l-113 -639h-160l258 1462h371z" />
    <glyph glyph-name="rcommaaccent" unicode="&#x157;" horiz-adv-x="665" 
d="M-96 -451l143 308h154l-191 -308h-106zM593 1047q81 0 157 -54l-91 -129q-51 49 -112 49q-89 0 -147 -97t-97 -314l-88 -502h-154l181 1028h120l3 -92q47 61 97 86t131 25z" />
    <glyph glyph-name="Rcaron" unicode="&#x158;" horiz-adv-x="1120" 
d="M717 1729l145 165h162l-268 -268h-101l-174 268h150zM616 768q160 0 240 99t80 270q0 102 -54 147t-173 45h-226l-98 -561h231zM721 1462q205 0 292 -78t87 -225q0 -207 -92 -346t-244 -160l158 -653h-177l-139 639h-241l-113 -639h-160l258 1462h371z" />
    <glyph glyph-name="rcaron" unicode="&#x159;" horiz-adv-x="665" 
d="M500 1303l145 165h162l-268 -270h-103l-172 270h150zM584 1047q90 0 166 -54l-91 -129q-51 49 -110 49q-91 0 -149 -97t-97 -314l-88 -502h-154l183 1028h118l3 -92q86 111 219 111z" />
    <glyph glyph-name="Sacute" unicode="&#x15a;" horiz-adv-x="1013" 
d="M608 1618l183 289h180l-248 -289h-115zM430 113q188 0 266 135q56 90 56 194q1 141 -107 185q-25 10 -161 56q-275 93 -275 335q0 190 102 317q111 145 332 146q170 0 254 -71t92 -220l-143 -37q-14 107 -62 151t-147 44q-145 0 -215 -113q-53 -85 -53 -183t50 -147
q51 -49 201 -101t221 -124t70 -215q0 -193 -102 -324q-121 -162 -381 -161q-197 0 -288 74t-101 245l145 39q12 -119 70 -172t176 -53z" />
    <glyph glyph-name="sacute" unicode="&#x15b;" horiz-adv-x="845" 
d="M451 1192l182 289h180l-248 -289h-114zM584 326q0 58 -37 84t-168 56t-186 83t-56 160q0 157 93 247t251 91q197 0 264 -103q31 -51 35 -137l-137 -31q-8 143 -158 144q-88 0 -143 -54t-55 -128t35 -102q34 -28 150 -52t173 -60q88 -53 88 -180q0 -176 -102 -269
t-309 -93t-279 116q-29 50 -37 138l139 30q11 -86 55 -122t148 -36t170 59q66 58 66 159z" />
    <glyph glyph-name="Scircumflex" unicode="&#x15c;" horiz-adv-x="1013" 
d="M727 1794l-143 -166h-164l268 270h100l175 -270h-150zM430 113q188 0 266 135q56 90 56 194q1 141 -107 185q-25 10 -161 56q-275 93 -275 335q0 190 102 317q111 145 332 146q170 0 254 -71t92 -220l-143 -37q-14 107 -62 151t-147 44q-145 0 -215 -113
q-53 -85 -53 -183t50 -147q51 -49 201 -101t221 -124t70 -215q0 -193 -102 -324q-121 -162 -381 -161q-197 0 -288 74t-101 245l145 39q12 -119 70 -172t176 -53z" />
    <glyph glyph-name="scircumflex" unicode="&#x15d;" horiz-adv-x="845" 
d="M573 1368l-143 -166h-164l269 268h100l174 -268h-150zM584 326q0 58 -37 84t-168 56t-186 83t-56 160q0 157 93 247t251 91q197 0 264 -103q31 -51 35 -137l-137 -31q-8 143 -158 144q-88 0 -143 -54t-55 -128t35 -102q34 -28 150 -52t173 -60q88 -53 88 -180
q0 -176 -102 -269t-309 -93t-279 116q-29 50 -37 138l139 30q11 -86 55 -122t148 -36t170 59q66 58 66 159z" />
    <glyph glyph-name="Scedilla" unicode="&#x15e;" horiz-adv-x="1013" 
d="M188 -451l144 308h155l-192 -308h-107zM430 113q188 0 266 135q56 90 56 194q1 141 -107 185q-25 10 -161 56q-275 93 -275 335q0 190 102 317q111 145 332 146q170 0 254 -71t92 -220l-143 -37q-14 107 -62 151t-147 44q-145 0 -215 -113q-53 -85 -53 -183t50 -147
q51 -49 201 -101t221 -124t70 -215q0 -193 -102 -324q-121 -162 -381 -161q-197 0 -288 74t-101 245l145 39q12 -119 70 -172t176 -53z" />
    <glyph glyph-name="scedilla" unicode="&#x15f;" horiz-adv-x="845" 
d="M121 -451l143 308h156l-193 -308h-106zM584 326q0 58 -37 84t-168 56t-186 83t-56 160q0 157 93 247t251 91q197 0 264 -103q31 -51 35 -137l-137 -31q-8 143 -158 144q-88 0 -143 -54t-55 -128t35 -102q34 -28 150 -52t173 -60q88 -53 88 -180q0 -176 -102 -269
t-309 -93t-279 116q-29 50 -37 138l139 30q11 -86 55 -122t148 -36t170 59q66 58 66 159z" />
    <glyph glyph-name="Scaron" unicode="&#x160;" horiz-adv-x="1013" 
d="M694 1729l146 165h161l-268 -268h-100l-174 268h149zM430 113q188 0 266 135q56 90 56 194q1 141 -107 185q-25 10 -161 56q-275 93 -275 335q0 190 102 317q111 145 332 146q170 0 254 -71t92 -220l-143 -37q-14 107 -62 151t-147 44q-145 0 -215 -113q-53 -85 -53 -183
t50 -147q51 -49 201 -101t221 -124t70 -215q0 -193 -102 -324q-121 -162 -381 -161q-197 0 -288 74t-101 245l145 39q12 -119 70 -172t176 -53z" />
    <glyph glyph-name="scaron" unicode="&#x161;" horiz-adv-x="845" 
d="M547 1303l145 165h162l-268 -270h-103l-172 270h150zM584 326q0 58 -37 84t-168 56t-186 83t-56 160q0 157 93 247t251 91q197 0 264 -103q31 -51 35 -137l-137 -31q-8 143 -158 144q-88 0 -143 -54t-55 -128t35 -102q34 -28 150 -52t173 -60q88 -53 88 -180
q0 -176 -102 -269t-309 -93t-279 116q-29 50 -37 138l139 30q11 -86 55 -122t148 -36t170 59q66 58 66 159z" />
    <glyph glyph-name="Tcommaaccent" unicode="&#x162;" horiz-adv-x="927" 
d="M135 -451l144 308h153l-190 -308h-107zM295 0l233 1327h-338l23 135h838l-23 -135h-340l-233 -1327h-160z" />
    <glyph glyph-name="tcommaaccent" unicode="&#x163;" horiz-adv-x="585" 
d="M6 -451l144 308h153l-190 -308h-107zM285 212q0 -83 121 -83h34l-22 -129h-33q-141 0 -199 39q-57 39 -57 133q0 55 23 188l96 541h-107l23 127h108l66 330h143l-57 -330h170l-23 -127h-170l-102 -575q-14 -74 -14 -114z" />
    <glyph glyph-name="Tcaron" unicode="&#x164;" horiz-adv-x="927" 
d="M674 1729l145 165h162l-268 -268h-101l-174 268h150zM295 0l235 1327h-340l25 135h838l-25 -135h-338l-235 -1327h-160z" />
    <glyph glyph-name="tcaron" unicode="&#x165;" horiz-adv-x="667" 
d="M616 1153l115 414h152l-158 -414h-109zM285 212q0 -83 121 -83h32l-22 -129h-33q-139 0 -197 39q-57 39 -57 133q0 59 23 188l96 541h-107l21 127h108l66 330h145l-59 -330h170l-23 -127h-170l-100 -575q-14 -74 -14 -114z" />
    <glyph glyph-name="Tbar" unicode="&#x166;" horiz-adv-x="927" 
d="M295 0l119 676h-236l23 131h235l92 520h-340l25 135h838l-25 -135h-338l-92 -520h233l-22 -131h-234l-118 -676h-160z" />
    <glyph glyph-name="tbar" unicode="&#x167;" horiz-adv-x="587" 
d="M287 213q0 -84 119 -84h34l-22 -129h-33q-143 0 -200 38q-56 38 -56 132q0 57 18 158l48 274h-107l21 113h106l33 186h-107l23 127h106l66 330h145l-57 -330h170l-23 -127h-170l-32 -186h168l-21 -113h-168l-51 -289q-10 -59 -10 -100z" />
    <glyph glyph-name="Utilde" unicode="&#x168;" horiz-adv-x="1196" 
d="M721 1878q68 0 125 -66t84 -65q47 0 88 115h98q-45 -132 -85 -180q-39 -48 -111 -48t-129 68q-33 41 -47 52t-33 11q-52 1 -93 -114h-96q47 129 89 178t110 49zM539 -18q-221 0 -318 108q-70 78 -69 205q0 61 22 203l170 964h160l-174 -993q-18 -94 -19 -156
q0 -199 221 -198q166 0 252 129q43 66 72 225l176 993h160l-180 -1020q-26 -137 -50 -200t-75 -121q-127 -139 -348 -139z" />
    <glyph glyph-name="utilde" unicode="&#x169;" horiz-adv-x="968" 
d="M534 1452q70 0 123 -66q57 -66 84 -65q47 0 88 115h99q-45 -132 -85 -180t-112 -48t-129 68q-33 41 -47 52t-33 11q-51 1 -92 -114h-96q45 131 88 179q42 48 112 48zM106 225q0 66 23 205l107 598h153l-108 -606q-16 -96 -17 -146q0 -160 139 -159q102 0 161 81
q58 81 91 267l101 563h151l-180 -1028h-113l2 98q-94 -117 -249 -116q-125 0 -193 63t-68 180z" />
    <glyph glyph-name="Umacron" unicode="&#x16a;" horiz-adv-x="1196" 
d="M571 1696l21 112h459l-21 -112h-459zM539 -18q-221 0 -318 108q-70 78 -69 205q0 61 22 203l170 964h160l-174 -993q-18 -94 -19 -156q0 -199 221 -198q166 0 252 129q43 66 72 225l176 993h160l-180 -1020q-26 -137 -50 -200t-75 -121q-127 -139 -348 -139z" />
    <glyph glyph-name="umacron" unicode="&#x16b;" horiz-adv-x="968" 
d="M385 1270l21 112h458l-20 -112h-459zM106 225q0 66 23 205l107 598h153l-108 -606q-16 -96 -17 -146q0 -160 139 -159q102 0 161 81q58 81 91 267l101 563h151l-180 -1028h-113l2 98q-94 -117 -249 -116q-125 0 -193 63t-68 180z" />
    <glyph glyph-name="Ubreve" unicode="&#x16c;" horiz-adv-x="1196" 
d="M813 1729q72 1 110 35t62 124h105q-26 -156 -88 -216t-193 -60q-225 0 -225 176q0 34 10 100h102l-4 -55q0 -104 121 -104zM539 -18q-221 0 -318 108q-70 78 -69 205q0 61 22 203l170 964h160l-174 -993q-18 -94 -19 -156q0 -199 221 -198q166 0 252 129q43 66 72 225
l176 993h160l-180 -1020q-26 -137 -50 -200t-75 -121q-127 -139 -348 -139z" />
    <glyph glyph-name="ubreve" unicode="&#x16d;" horiz-adv-x="968" 
d="M610 1303q72 -1 111 35t61 124h105q-25 -156 -86 -216t-195 -60q-225 0 -225 176q0 37 10 100h103l-5 -55q0 -104 121 -104zM106 225q0 66 23 205l107 598h153l-108 -606q-16 -96 -17 -146q0 -160 139 -159q102 0 161 81q58 81 91 267l101 563h151l-180 -1028h-113l2 98
q-94 -117 -249 -116q-125 0 -193 63t-68 180z" />
    <glyph glyph-name="Uring" unicode="&#x16e;" horiz-adv-x="1196" 
d="M846 1931q-55 0 -89 -45t-34 -119q0 -84 84 -84q53 -1 88 45t35 115q0 88 -84 88zM842 2013q94 0 144 -47t50 -137t-66 -159q-66 -68 -160 -68q-93 0 -143 47q-51 47 -51 139t66 158t160 67zM539 -18q-221 0 -318 108q-70 78 -69 205q0 61 22 203l170 964h160l-174 -993
q-18 -94 -19 -156q0 -199 221 -198q166 0 252 129q43 66 72 225l176 993h160l-180 -1020q-26 -137 -50 -200t-75 -121q-127 -139 -348 -139z" />
    <glyph glyph-name="uring" unicode="&#x16f;" horiz-adv-x="968" 
d="M657 1503q-55 0 -89 -45t-33 -117q0 -84 83 -84q52 -1 88 45t35 115q0 86 -84 86zM428 1362q0 92 67 158t160 65q93 0 143 -47t50 -137t-67 -158q-67 -67 -160 -67t-143 47t-50 139zM106 225q0 66 23 205l107 598h153l-108 -606q-16 -96 -17 -146q0 -160 139 -159
q102 0 161 81q58 81 91 267l101 563h151l-180 -1028h-113l2 98q-94 -117 -249 -116q-125 0 -193 63t-68 180z" />
    <glyph glyph-name="Uhungarumlaut" unicode="&#x170;" horiz-adv-x="1196" 
d="M846 1618l155 289h162l-209 -289h-108zM604 1618l156 289h162l-209 -289h-109zM539 -18q-221 0 -318 108q-70 78 -69 205q0 61 22 203l170 964h160l-174 -993q-18 -94 -19 -156q0 -199 221 -198q166 0 252 129q43 66 72 225l176 993h160l-180 -1020q-26 -137 -50 -200
t-75 -121q-127 -139 -348 -139z" />
    <glyph glyph-name="uhungarumlaut" unicode="&#x171;" horiz-adv-x="968" 
d="M657 1192l156 289h162l-209 -289h-109zM416 1192l155 289h162l-209 -289h-108zM106 225q0 66 23 205l107 598h153l-108 -606q-16 -96 -17 -146q0 -160 139 -159q102 0 161 81q58 81 91 267l101 563h151l-180 -1028h-113l2 98q-94 -117 -249 -116q-125 0 -193 63t-68 180z
" />
    <glyph glyph-name="Uogonek" unicode="&#x172;" horiz-adv-x="1196" 
d="M573 -297q43 0 107 18v-90q-70 -27 -150 -26q-180 0 -180 133t174 244q-178 2 -264 71q-109 86 -108 242q0 78 22 203l170 964h160l-174 -993q-18 -94 -19 -156q0 -197 221 -196q166 0 252 129q43 66 72 223l176 993h160l-180 -1020q-27 -186 -103 -291t-215 -149
q-199 -129 -198 -240q0 -59 77 -59z" />
    <glyph glyph-name="uogonek" unicode="&#x173;" horiz-adv-x="968" 
d="M518 -238q0 -59 78 -59q43 0 104 18l2 -90q-72 -27 -149 -26q-180 0 -180 133q1 78 67 152t174 120l2 88q-94 -117 -249 -116q-125 0 -193 63t-68 180q0 66 23 205l107 598h153l-108 -606q-16 -96 -17 -146q0 -160 139 -159q102 0 161 81q58 81 91 267l101 563h151
l-180 -1028q-209 -125 -209 -238z" />
    <glyph glyph-name="Wcircumflex" unicode="&#x174;" horiz-adv-x="1540" 
d="M987 1794l-143 -166h-164l268 270h101l174 -270h-150zM262 0l-39 1462h158l6 -1179l490 1179h114l74 -1179l422 1179h162l-553 -1462h-138l-75 1153l-484 -1153h-137z" />
    <glyph glyph-name="wcircumflex" unicode="&#x175;" horiz-adv-x="1339" 
d="M819 1368l-143 -166h-164l268 268h101l174 -268h-150zM240 0l-82 1028h153l37 -801l357 801h106l74 -801l321 801h158l-444 -1028h-125l-80 770l-350 -770h-125z" />
    <glyph glyph-name="Ycircumflex" unicode="&#x176;" horiz-adv-x="935" 
d="M696 1794l-143 -166h-164l268 270h101l174 -270h-150zM299 0l94 532l-225 930h164l170 -747l432 747h174l-555 -930l-94 -532h-160z" />
    <glyph glyph-name="ycircumflex" unicode="&#x177;" horiz-adv-x="856" 
d="M573 1368l-143 -166h-164l269 268h100l174 -268h-150zM264 -4l-133 1032h150l92 -844l364 844h160l-549 -1202q-86 -186 -164 -240t-254 -57l23 131q100 0 143 32t101 150z" />
    <glyph glyph-name="Ydieresis" unicode="&#x178;" horiz-adv-x="935" 
d="M768 1634l37 209h139l-37 -209h-139zM426 1634l37 209h139l-37 -209h-139zM299 0l94 532l-225 930h164l170 -747l432 747h174l-555 -930l-94 -532h-160z" />
    <glyph glyph-name="Zacute" unicode="&#x179;" horiz-adv-x="935" 
d="M584 1618l182 289h180l-248 -289h-114zM-8 0l18 102l776 1225h-524l23 135h704l-16 -102l-776 -1225h585l-24 -135h-766z" />
    <glyph glyph-name="zacute" unicode="&#x17a;" horiz-adv-x="815" 
d="M455 1192l182 289h180l-248 -289h-114zM-16 0l16 94l575 805h-397l23 129h585l-16 -94l-577 -805h460l-22 -129h-647z" />
    <glyph glyph-name="Zdotaccent" unicode="&#x17b;" horiz-adv-x="935" 
d="M590 1634l37 209h149l-37 -209h-149zM-8 0l18 102l776 1225h-524l23 135h704l-16 -102l-776 -1225h585l-24 -135h-766z" />
    <glyph glyph-name="zdotaccent" unicode="&#x17c;" horiz-adv-x="815" 
d="M455 1208l37 209h149l-37 -209h-149zM-16 0l16 94l575 805h-397l23 129h585l-16 -94l-577 -805h460l-22 -129h-647z" />
    <glyph glyph-name="Zcaron" unicode="&#x17d;" horiz-adv-x="935" 
d="M686 1729l145 165h162l-268 -268h-100l-174 268h149zM-8 0l18 102l776 1225h-524l23 135h704l-16 -102l-776 -1225h585l-24 -135h-766z" />
    <glyph glyph-name="zcaron" unicode="&#x17e;" horiz-adv-x="815" 
d="M537 1303l145 165h162l-269 -270h-102l-172 270h150zM-16 0l16 94l575 805h-397l23 129h585l-16 -94l-577 -805h460l-22 -129h-647z" />
    <glyph glyph-name="Ohorn" unicode="&#x1a0;" horiz-adv-x="1226" 
d="M958 1140q0 90 -61 148t-187 60q-126 0 -205 -92t-116 -295l-80 -459q-18 -100 -18 -162q0 -106 61 -166t172 -59q156 0 242 118q61 83 94 269l80 459q18 89 18 179zM1399 1438q0 -113 -78 -201q-51 -59 -207 -145v-9l-2 -30q0 -23 -12 -101l-88 -491q-23 -135 -56 -211
t-92 -139q-127 -129 -330 -129t-303 88t-100 256q0 68 21 184l86 491q23 135 55 212q33 77 92 139q129 129 344 129q348 0 385 -287q72 45 103 82q53 68 53 145q0 25 -10 62h137q2 -20 2 -45z" />
    <glyph glyph-name="ohorn" unicode="&#x1a1;" horiz-adv-x="1028" 
d="M727 750q0 170 -174 170q-105 0 -165 -69t-89 -224l-39 -224q-12 -59 -12 -120q0 -172 174 -172q106 0 167 68q60 68 87 224l39 224q12 61 12 123zM1139 999q0 -201 -269 -337q0 -10 -8 -70l-39 -213q-37 -211 -132 -304t-273 -93q-324 0 -324 286q0 57 17 162l39 219
q37 211 133 305t266 94t248 -68q78 -69 82 -214l12 10q119 92 119 209q-1 21 -9 62h136q2 -25 2 -48z" />
    <glyph glyph-name="Uhorn" unicode="&#x1af;" horiz-adv-x="1282" 
d="M1479 1438q0 -125 -90 -215q-43 -47 -97 -81t-174 -91l-106 -609q-26 -137 -50 -200t-75 -121q-127 -139 -349 -139t-317 108q-70 78 -69 205q0 78 22 203l170 964h160l-174 -993q-18 -94 -19 -156q0 -199 221 -198q166 0 252 129q43 66 72 225l176 993h160l-55 -303
q115 59 163 119t50 145q0 27 -11 60h136q4 -20 4 -45z" />
    <glyph glyph-name="uhorn" unicode="&#x1b0;" horiz-adv-x="1062" 
d="M1067 987q0 27 -10 60h137q2 -20 2 -46q0 -121 -78 -205t-282 -184l-109 -612h-113l2 98q-90 -117 -249 -116q-125 0 -193 63t-68 178q0 76 23 207l107 598h153l-108 -606q-16 -98 -17 -146q0 -160 139 -159q102 0 161 81q58 81 91 267l101 563h153l-55 -307
q113 59 163 121t50 145z" />
    <glyph glyph-name="uni01C4" unicode="&#x1c4;" horiz-adv-x="2052" 
d="M1108 0l16 102l779 1225h-527l25 135h704l-18 -102l-776 -1225h585l-22 -135h-766zM1802 1729l144 165h161l-266 -268h-102l-172 268h149zM958 1112q0 117 -84 178q-53 39 -176 39h-215l-213 -1196h217q162 -2 251 87t124 288l78 448q18 90 18 156zM711 1462
q201 0 293 -71q117 -94 116 -265q0 -53 -20 -174l-86 -491q-72 -467 -514 -461h-412l258 1462h365z" />
    <glyph glyph-name="uni01C5" unicode="&#x1c5;" horiz-adv-x="1988" 
d="M1710 1303l143 165h164l-268 -270h-102l-172 270h151zM1157 0l17 94l575 805h-397l22 129h584l-16 -94l-576 -805h461l-23 -129h-647zM958 1112q0 117 -84 178q-53 39 -176 39h-215l-213 -1196h217q162 -2 251 87t124 288l78 448q18 90 18 156zM711 1462q201 0 293 -71
q117 -94 116 -265q0 -53 -20 -174l-86 -491q-72 -467 -514 -461h-412l258 1462h365z" />
    <glyph glyph-name="uni01C6" unicode="&#x1c6;" horiz-adv-x="1802" 
d="M971 0l16 94l576 805h-398l23 129h586l-19 -94l-575 -805h460l-22 -129h-647zM1526 1303l141 165h164l-268 -270h-101l-174 270h152zM252 291q0 -178 158 -178q203 0 260 319l28 164q12 66 13 131q0 190 -168 191q-99 0 -157 -70t-85 -221l-39 -211q-10 -57 -10 -125z
M383 -18q-287 0 -287 282q0 76 19 172l37 217q37 207 124 300q88 93 248 94q88 1 138 -19t100 -74l88 508h154l-259 -1462h-118l2 84l-8 -10q-92 -92 -238 -92z" />
    <glyph glyph-name="uni01C7" unicode="&#x1c7;" horiz-adv-x="1454" 
d="M770 -498q-90 0 -182 33l80 125q47 -25 94 -25q137 0 205 138q29 61 63 254l252 1435h160l-256 -1452q-45 -264 -103 -354q-106 -154 -313 -154zM90 0l258 1462h160l-234 -1327h572l-23 -135h-733z" />
    <glyph glyph-name="uni01C8" unicode="&#x1c8;" horiz-adv-x="1402" 
d="M1188 1028h153l-188 -1069q-39 -250 -133 -342t-307 -88l24 131q113 -6 174 62t88 233zM1227 1253l39 215h151l-37 -215h-153zM90 0l258 1462h160l-234 -1327h572l-23 -135h-733z" />
    <glyph glyph-name="uni01C9" unicode="&#x1c9;" horiz-adv-x="989" 
d="M772 1028h154l-189 -1069q-39 -250 -132 -342t-306 -88l23 131q113 -6 174 62t88 233zM813 1253l37 215h154l-37 -215h-154zM260 218q0 -44 29 -66t102 -23h35l-23 -129h-41q-141 0 -199 41t-59 141q0 59 19 170l196 1110h152l-201 -1138q-10 -62 -10 -106z" />
    <glyph glyph-name="uni01CA" unicode="&#x1ca;" horiz-adv-x="1767" 
d="M1083 -498q-90 0 -182 33l80 125q49 -25 96 -25q135 0 203 138q29 61 63 254l254 1435h160l-256 -1452q-29 -162 -51 -232t-53 -122q-104 -154 -314 -154zM90 0l258 1462h156l375 -1157l204 1157h154l-258 -1462h-152l-378 1159l-205 -1159h-154z" />
    <glyph glyph-name="uni01CB" unicode="&#x1cb;" horiz-adv-x="1718" 
d="M1501 1028h154l-189 -1069q-39 -250 -132 -342t-306 -88l23 131q113 -6 174 62t88 233zM1542 1253l37 215h154l-39 -215h-152zM90 0l258 1462h156l375 -1157l204 1157h154l-258 -1462h-152l-378 1159l-205 -1159h-154z" />
    <glyph glyph-name="uni01CC" unicode="&#x1cc;" horiz-adv-x="1458" 
d="M1243 1028h152l-189 -1069q-37 -250 -131 -342t-307 -88l23 131q115 -6 176 62t86 233zM1282 1253l37 215h154l-37 -215h-154zM636 1047q108 1 177 -63q70 -64 70 -183q0 -76 -21 -193l-106 -608h-154l109 612q14 86 14 140q0 162 -150 161q-109 -1 -169 -81t-93 -269
l-98 -563h-154l183 1028h116l-4 -88q56 59 114 83t166 24z" />
    <glyph glyph-name="uni01CD" unicode="&#x1cd;" horiz-adv-x="1040" 
d="M715 1729l145 165h162l-268 -268h-101l-174 268h150zM739 457l-86 788l-364 -788h450zM752 324h-521l-147 -324h-176l706 1462h146l194 -1462h-170z" />
    <glyph glyph-name="uni01CE" unicode="&#x1ce;" horiz-adv-x="925" 
d="M592 1303l145 165h162l-268 -270h-103l-172 270h150zM444 481q-145 0 -200 -67q-59 -66 -60 -193q0 -63 40 -90t144 -27t151 43q48 43 71 164l31 170h-177zM520 1047q145 -1 222 -63t77 -183q0 -66 -18 -166l-113 -635h-121l-6 45q-78 -63 -237 -63q-293 0 -293 211
q0 197 92 303q86 106 313 106h205l14 74q10 53 11 104q0 139 -152 140q-76 0 -125 -36t-88 -120l-127 41q100 242 346 242z" />
    <glyph glyph-name="uni01CF" unicode="&#x1cf;" horiz-adv-x="518" 
d="M469 1729l143 165h162l-266 -268h-102l-173 268h150zM90 0l258 1462h160l-258 -1462h-160z" />
    <glyph glyph-name="uni01D0" unicode="&#x1d0;" horiz-adv-x="458" 
d="M362 1303l144 165h162l-267 -270h-102l-172 270h149zM61 0l183 1028h151l-180 -1028h-154z" />
    <glyph glyph-name="uni01D1" unicode="&#x1d1;" horiz-adv-x="1171" 
d="M795 1729l143 165h164l-268 -268h-103l-172 268h150zM291 340q0 -225 248 -225q128 0 206 90t115 297l80 459q18 92 18 161q0 109 -61 167t-174 59q-152 0 -240 -119q-61 -86 -94 -268l-80 -459q-18 -109 -18 -162zM714 1481q202 0 304 -89q100 -89 100 -255
q0 -70 -18 -185l-88 -491q-23 -135 -56 -212t-92 -138q-126 -129 -328 -129t-304 88q-101 88 -101 254q1 73 21 186l86 491q25 137 56 212q32 75 91 139q127 129 329 129z" />
    <glyph glyph-name="uni01D2" unicode="&#x1d2;" horiz-adv-x="974" 
d="M621 1303l145 165h162l-269 -270h-102l-172 270h150zM727 750q0 168 -174 168q-109 0 -168 -69t-86 -222l-39 -224q-12 -61 -12 -120q0 -172 174 -172q106 0 166 68q59 68 88 224l39 224q12 66 12 123zM881 764q0 -63 -19 -164l-39 -221q-37 -211 -132 -304t-273 -93
q-324 0 -324 286q1 58 17 162l39 219q37 211 132 304t275 94q324 0 324 -283z" />
    <glyph glyph-name="uni01D3" unicode="&#x1d3;" horiz-adv-x="1196" 
d="M797 1729l145 165h162l-268 -268h-101l-174 268h150zM539 -18q-221 0 -318 108q-70 78 -69 205q0 61 22 203l170 964h160l-174 -993q-18 -94 -19 -156q0 -199 221 -198q166 0 252 129q43 66 72 225l176 993h160l-180 -1020q-26 -137 -50 -200t-75 -121
q-127 -139 -348 -139z" />
    <glyph glyph-name="uni01D4" unicode="&#x1d4;" horiz-adv-x="968" 
d="M618 1303l146 165h162l-269 -270h-102l-172 270h149zM106 225q0 66 23 205l107 598h153l-108 -606q-16 -96 -17 -146q0 -160 139 -159q102 0 161 81q58 81 91 267l101 563h151l-180 -1028h-113l2 98q-94 -117 -249 -116q-125 0 -193 63t-68 180z" />
    <glyph glyph-name="Gcaron" unicode="&#x1e6;" horiz-adv-x="1146" 
d="M774 1729l146 165h161l-268 -268h-100l-174 268h149zM514 -18q-186 0 -284 87q-97 87 -97 255q0 76 23 211l77 442q27 147 61 229t93 142q129 131 321 131t287 -79q94 -79 95 -224q0 -27 -7 -82l-151 -7q4 20 4 48q0 211 -211 211q-143 0 -221 -94t-117 -308l-74 -428
q-20 -104 -20 -174q0 -227 225 -227q276 0 336 354l31 166h-246l23 129h403l-51 -287q-23 -137 -55 -215t-89 -139q-133 -141 -356 -141z" />
    <glyph glyph-name="gcaron" unicode="&#x1e7;" horiz-adv-x="989" 
d="M627 1303l145 165h162l-268 -270h-103l-172 270h150zM250 293q0 -180 160 -180q205 0 260 319l28 164q12 61 13 129q0 193 -168 193q-193 0 -244 -291l-39 -215q-10 -68 -10 -119zM377 -18q-281 0 -281 282q0 80 17 174l39 215q37 207 123 300q87 93 252 93t247 -102
l33 84h121l-189 -1073q-39 -223 -145 -329t-295 -105q-137 0 -202 54t-74 175l137 31q8 -72 43 -104t110 -31q113 0 177 72t94 227l20 121q-86 -84 -227 -84z" />
    <glyph glyph-name="uni01EA" unicode="&#x1ea;" horiz-adv-x="1171" 
d="M291 340q0 -225 248 -225q128 0 206 90t115 297l80 459q18 92 18 161q0 109 -61 167t-174 59q-152 0 -240 -119q-61 -86 -94 -268l-80 -459q-18 -109 -18 -162zM489 -240q0 -57 80 -57q41 0 105 18l2 -90q-72 -27 -150 -26q-180 0 -180 133t176 244q-391 4 -391 342
q0 74 21 186l86 491q25 137 56 212q32 75 91 139q127 129 329 129t304 -89q100 -89 100 -255q0 -70 -18 -185l-88 -491q-53 -362 -314 -455q-209 -123 -209 -246z" />
    <glyph glyph-name="uni01EB" unicode="&#x1eb;" horiz-adv-x="974" 
d="M727 750q0 168 -174 168q-109 0 -168 -69t-86 -222l-39 -224q-12 -61 -12 -120q0 -174 174 -174q106 0 166 68q59 68 88 226l39 224q12 66 12 123zM389 -240q0 -57 82 -57q41 0 104 18v-90q-72 -27 -149 -26q-180 0 -180 132t164 245q-162 4 -239 74t-77 210q0 59 17 164
l39 219q37 211 132 304t275 94q324 0 324 -283q-1 -64 -19 -164l-39 -221q-25 -154 -80 -241t-155 -128q-86 -51 -142 -122t-57 -128z" />
    <glyph glyph-name="uni01F1" unicode="&#x1f1;" horiz-adv-x="2052" 
d="M1108 0l16 102l779 1225h-527l25 135h704l-18 -102l-776 -1225h585l-22 -135h-766zM958 1112q0 117 -84 178q-53 39 -176 39h-215l-213 -1196h217q162 -2 251 87t124 288l78 448q18 90 18 156zM711 1462q201 0 293 -71q117 -94 116 -265q0 -53 -20 -174l-86 -491
q-72 -467 -514 -461h-412l258 1462h365z" />
    <glyph glyph-name="uni01F2" unicode="&#x1f2;" horiz-adv-x="1988" 
d="M1157 0l17 94l575 805h-397l22 129h584l-16 -94l-576 -805h461l-23 -129h-647zM958 1112q0 117 -84 178q-53 39 -176 39h-215l-213 -1196h217q162 -2 251 87t124 288l78 448q18 90 18 156zM711 1462q201 0 293 -71q117 -94 116 -265q0 -53 -20 -174l-86 -491
q-72 -467 -514 -461h-412l258 1462h365z" />
    <glyph glyph-name="uni01F3" unicode="&#x1f3;" horiz-adv-x="1802" 
d="M971 0l16 94l576 805h-398l23 129h586l-19 -94l-575 -805h460l-22 -129h-647zM252 291q0 -178 158 -178q203 0 260 319l28 164q12 66 13 131q0 190 -168 191q-99 0 -157 -70t-85 -221l-39 -211q-10 -57 -10 -125zM383 -18q-287 0 -287 282q0 76 19 172l37 217
q37 207 124 300q88 93 248 94q88 1 138 -19t100 -74l88 508h154l-259 -1462h-118l2 84l-8 -10q-92 -92 -238 -92z" />
    <glyph glyph-name="uni01F4" unicode="&#x1f4;" horiz-adv-x="1146" 
d="M676 1618l182 289h180l-247 -289h-115zM514 -18q-186 0 -284 87q-97 87 -97 255q0 76 23 211l77 442q27 147 61 229t93 142q129 131 321 131t287 -79q94 -79 95 -224q0 -27 -7 -82l-151 -7q4 20 4 48q0 211 -211 211q-143 0 -221 -94t-117 -308l-74 -428
q-20 -104 -20 -174q0 -227 225 -227q276 0 336 354l31 166h-246l23 129h403l-51 -287q-23 -137 -55 -215t-89 -139q-133 -141 -356 -141z" />
    <glyph glyph-name="uni01F5" unicode="&#x1f5;" horiz-adv-x="989" 
d="M526 1192l183 289h180l-248 -289h-115zM250 293q0 -180 160 -180q205 0 260 319l28 164q12 61 13 129q0 193 -168 193q-193 0 -244 -291l-39 -215q-10 -68 -10 -119zM377 -18q-281 0 -281 282q0 80 17 174l39 215q37 207 123 300q87 93 252 93t247 -102l33 84h121
l-189 -1073q-39 -223 -145 -329t-295 -105q-137 0 -202 54t-74 175l137 31q8 -72 43 -104t110 -31q113 0 177 72t94 227l20 121q-86 -84 -227 -84z" />
    <glyph glyph-name="Aringacute" unicode="&#x1fa;" horiz-adv-x="1040" 
d="M678 1835l143 240h193l-236 -240h-100zM729 1712q-55 0 -89 -45t-34 -117q0 -84 84 -84q53 0 88 45t35 115q0 86 -84 86zM739 457l-86 788l-364 -788h450zM500 1556q0 104 66 172q66 66 159 66q94 0 144 -46q51 -46 51 -124t-42 -140t-110 -87l186 -1397h-170l-32 324
h-521l-147 -324h-176l680 1405q-88 47 -88 151z" />
    <glyph glyph-name="aringacute" unicode="&#x1fb;" horiz-adv-x="925" 
d="M598 1626l141 240h195l-236 -240h-100zM641 1462q-55 0 -89 -45t-34 -117q0 -84 84 -83q53 0 88 45t35 114q0 86 -84 86zM638 1544q93 0 143 -47t50 -137q-1 -90 -67 -158t-159 -68t-143 48q-50 47 -50 139t66 158q67 65 160 65zM444 481q-145 0 -200 -67
q-59 -66 -60 -193q0 -63 40 -90t144 -27t151 43q48 43 71 164l31 170h-177zM520 1047q145 -1 222 -63t77 -183q0 -66 -18 -166l-113 -635h-121l-6 45q-78 -63 -237 -63q-293 0 -293 211q0 197 92 303q86 106 313 106h205l14 74q10 53 11 104q0 139 -152 140q-76 0 -125 -36
t-88 -120l-127 41q100 242 346 242z" />
    <glyph glyph-name="AEacute" unicode="&#x1fc;" horiz-adv-x="1640" 
d="M1237 1618l182 289h180l-247 -289h-115zM813 473l152 854h-19l-596 -854h463zM788 340h-528l-235 -340h-185l1043 1462h827l-24 -135h-566l-92 -520h483l-24 -135h-481l-95 -537h568l-25 -135h-725z" />
    <glyph glyph-name="aeacute" unicode="&#x1fd;" horiz-adv-x="1456" 
d="M756 1192l182 289h180l-248 -289h-114zM1061 926q-207 0 -254 -279l-8 -43h413q16 98 17 144q0 178 -168 178zM444 483q-143 0 -200 -69q-59 -66 -60 -193q0 -63 39 -90t141 -27t155 50q54 50 75 170l27 159h-177zM1067 1047q305 0 305 -289q0 -94 -35 -275h-561l-14 -86
q-10 -55 -10 -106q0 -184 182 -185q154 0 215 156l129 -29q-84 -252 -354 -251q-113 0 -179 36t-102 121q-59 -90 -126 -124t-191 -33q-295 0 -295 211q0 197 90 304t315 107h207l12 72q10 68 11 100q0 141 -152 142q-74 0 -123 -35t-94 -117l-121 43q53 123 137 180
q83 57 221 57t203 -65q18 -18 43 -74q59 76 125 108t162 32z" />
    <glyph glyph-name="Oslashacute" unicode="&#x1fe;" horiz-adv-x="1169" 
d="M688 1618l182 289h181l-248 -289h-115zM293 379l635 868q-57 101 -208 101t-237 -119q-61 -82 -94 -268l-80 -459q-16 -90 -16 -123zM521 115q144 0 223 90t116 297l80 459q14 83 16 120l-634 -866q55 -100 199 -100zM1118 1140q0 -71 -20 -188l-86 -491
q-23 -135 -55 -211t-93 -139q-127 -129 -334 -129t-309 96l-86 -117l-98 70l115 157q-20 68 -20 138t18 184l88 491q23 135 54 211q32 76 93 140q127 129 333 129t310 -99l82 113l98 -70l-110 -153q20 -61 20 -132z" />
    <glyph glyph-name="oslashacute" unicode="&#x1ff;" horiz-adv-x="976" 
d="M516 1192l182 289h181l-248 -289h-115zM246 283l452 577q-44 60 -148 60t-165 -70t-88 -225l-39 -222q-12 -71 -12 -120zM423 109q106 -1 166 69t87 225l39 222q10 65 14 120l-453 -575q41 -61 147 -61zM881 776q0 -74 -17 -178l-39 -217q-37 -211 -133 -305t-262 -94
t-250 65l-63 -80l-76 53l80 103q-29 61 -29 137t19 170l36 217q37 211 133 305t264 94q167 0 249 -65l63 82l76 -55l-80 -103q29 -55 29 -129z" />
    <glyph glyph-name="uni0200" unicode="&#x200;" horiz-adv-x="1040" 
d="M662 1618h-109l-107 289h162zM903 1618h-108l-107 289h162zM739 457l-86 788l-364 -788h450zM752 324h-521l-147 -324h-176l706 1462h146l194 -1462h-170z" />
    <glyph glyph-name="uni0201" unicode="&#x201;" horiz-adv-x="925" 
d="M543 1192h-109l-106 289h161zM784 1192h-108l-107 289h162zM444 481q-145 0 -200 -67q-59 -66 -60 -193q0 -63 40 -90t144 -27t151 43q48 43 71 164l31 170h-177zM520 1047q145 -1 222 -63t77 -183q0 -66 -18 -166l-113 -635h-121l-6 45q-78 -63 -237 -63
q-293 0 -293 211q0 197 92 303q86 106 313 106h205l14 74q10 53 11 104q0 139 -152 140q-76 0 -125 -36t-88 -120l-127 41q100 242 346 242z" />
    <glyph glyph-name="uni0202" unicode="&#x202;" horiz-adv-x="1040" 
d="M864 1683q0 104 -121 105q-71 0 -109 -35t-61 -125h-106q27 156 87 216t194 61q225 0 225 -176q0 -29 -8 -101h-105q4 35 4 55zM739 457l-86 788l-364 -788h450zM752 324h-521l-147 -324h-176l706 1462h146l194 -1462h-170z" />
    <glyph glyph-name="uni0203" unicode="&#x203;" horiz-adv-x="925" 
d="M733 1257q0 104 -121 105q-74 0 -112 -35t-60 -125h-106q27 156 88 216t192 61q227 0 228 -176q-1 -33 -11 -101h-104q6 45 6 55zM444 481q-145 0 -200 -67q-59 -66 -60 -193q0 -63 40 -90t144 -27t151 43q48 43 71 164l31 170h-177zM520 1047q145 -1 222 -63t77 -183
q0 -66 -18 -166l-113 -635h-121l-6 45q-78 -63 -237 -63q-293 0 -293 211q0 197 92 303q86 106 313 106h205l14 74q10 53 11 104q0 139 -152 140q-76 0 -125 -36t-88 -120l-127 41q100 242 346 242z" />
    <glyph glyph-name="uni0204" unicode="&#x204;" horiz-adv-x="1003" 
d="M698 1618h-108l-107 289h162zM940 1618h-109l-106 289h162zM90 0l258 1462h723l-22 -135h-566l-92 -520h481l-24 -135h-479l-97 -537h568l-23 -135h-727z" />
    <glyph glyph-name="uni0205" unicode="&#x205;" horiz-adv-x="954" 
d="M551 1192h-109l-106 289h162zM793 1192h-109l-106 289h161zM725 748q0 178 -168 178q-207 0 -254 -279l-8 -43h414q16 92 16 144zM250 291q0 -182 180 -182q82 -1 132 35t85 118l129 -29q-45 -131 -134 -191t-236 -60q-307 0 -308 292q0 78 19 181l28 163q39 228 135 328
t275 101q313 0 313 -291q0 -94 -32 -273h-562l-14 -84q-10 -66 -10 -108z" />
    <glyph glyph-name="uni0206" unicode="&#x206;" horiz-adv-x="1003" 
d="M893 1683q0 104 -121 105q-72 0 -110 -35t-60 -125h-106q27 156 87 216t193 61q225 0 225 -176q0 -29 -8 -101h-104q4 35 4 55zM90 0l258 1462h723l-22 -135h-566l-92 -520h481l-24 -135h-479l-97 -537h568l-23 -135h-727z" />
    <glyph glyph-name="uni0207" unicode="&#x207;" horiz-adv-x="954" 
d="M858 1303q0 -33 -10 -101h-105q6 45 7 55q0 104 -121 105q-74 0 -112 -35t-60 -125h-107q27 156 88 216t193 61q227 0 227 -176zM725 748q0 178 -168 178q-207 0 -254 -279l-8 -43h414q16 92 16 144zM250 291q0 -182 180 -182q82 -1 132 35t85 118l129 -29
q-45 -131 -134 -191t-236 -60q-307 0 -308 292q0 78 19 181l28 163q39 228 135 328t275 101q313 0 313 -291q0 -94 -32 -273h-562l-14 -84q-10 -66 -10 -108z" />
    <glyph glyph-name="uni0208" unicode="&#x208;" horiz-adv-x="518" 
d="M401 1618h-108l-107 289h162zM643 1618h-108l-107 289h162zM90 0l258 1462h160l-258 -1462h-160z" />
    <glyph glyph-name="uni0209" unicode="&#x209;" horiz-adv-x="458" 
d="M297 1192h-109l-106 289h162zM539 1192h-109l-106 289h161zM63 0l183 1028h151l-180 -1028h-154z" />
    <glyph glyph-name="uni020A" unicode="&#x20a;" horiz-adv-x="518" 
d="M604 1683q0 104 -121 105q-71 0 -109 -35t-61 -125h-106q27 156 87 216t193 61q225 0 226 -176q0 -29 -8 -101h-105q4 35 4 55zM90 0l258 1462h160l-258 -1462h-160z" />
    <glyph glyph-name="uni020B" unicode="&#x20b;" horiz-adv-x="458" 
d="M502 1257q0 104 -121 105q-74 0 -112 -35t-60 -125h-107q27 156 88 216t193 61q227 0 227 -176q0 -33 -10 -101h-104q6 45 6 55zM63 0l183 1028h151l-180 -1028h-154z" />
    <glyph glyph-name="uni020C" unicode="&#x20c;" horiz-adv-x="1171" 
d="M729 1618h-108l-107 289h162zM971 1618h-109l-106 289h162zM291 340q0 -225 248 -225q128 0 206 90t115 297l80 459q18 92 18 161q0 109 -61 167t-174 59q-152 0 -240 -119q-61 -86 -94 -268l-80 -459q-18 -109 -18 -162zM714 1481q202 0 304 -89q100 -89 100 -255
q0 -70 -18 -185l-88 -491q-23 -135 -56 -212t-92 -138q-126 -129 -328 -129t-304 88q-101 88 -101 254q1 73 21 186l86 491q25 137 56 212q32 75 91 139q127 129 329 129z" />
    <glyph glyph-name="uni020D" unicode="&#x20d;" horiz-adv-x="974" 
d="M555 1192h-109l-106 289h162zM797 1192h-109l-106 289h161zM727 750q0 168 -174 168q-109 0 -168 -69t-86 -222l-39 -224q-12 -61 -12 -120q0 -172 174 -172q106 0 166 68q59 68 88 224l39 224q12 66 12 123zM881 764q0 -63 -19 -164l-39 -221q-37 -211 -132 -304
t-273 -93q-324 0 -324 286q1 58 17 162l39 219q37 211 132 304t275 94q324 0 324 -283z" />
    <glyph glyph-name="uni020E" unicode="&#x20e;" horiz-adv-x="1171" 
d="M932 1683q0 104 -121 105q-72 0 -110 -35t-60 -125h-106q27 156 87 216t193 61q225 0 225 -176q0 -29 -8 -101h-104q4 35 4 55zM291 340q0 -225 248 -225q128 0 206 90t115 297l80 459q18 92 18 161q0 109 -61 167t-174 59q-152 0 -240 -119q-61 -86 -94 -268l-80 -459
q-18 -109 -18 -162zM714 1481q202 0 304 -89q100 -89 100 -255q0 -70 -18 -185l-88 -491q-23 -135 -56 -212t-92 -138q-126 -129 -328 -129t-304 88q-101 88 -101 254q1 73 21 186l86 491q25 137 56 212q32 75 91 139q127 129 329 129z" />
    <glyph glyph-name="uni020F" unicode="&#x20f;" horiz-adv-x="974" 
d="M760 1257q0 104 -121 105q-74 0 -112 -35t-60 -125h-107q26 156 88 216t193 61q227 0 227 -176q0 -33 -10 -101h-104q6 45 6 55zM727 750q0 168 -174 168q-109 0 -168 -69t-86 -222l-39 -224q-12 -61 -12 -120q0 -172 174 -172q106 0 166 68q59 68 88 224l39 224
q12 66 12 123zM881 764q0 -63 -19 -164l-39 -221q-37 -211 -132 -304t-273 -93q-324 0 -324 286q1 58 17 162l39 219q37 211 132 304t275 94q324 0 324 -283z" />
    <glyph glyph-name="uni0210" unicode="&#x210;" horiz-adv-x="1120" 
d="M664 1618h-109l-106 289h161zM905 1618h-108l-107 289h162zM616 768q160 0 240 99t80 270q0 102 -54 147t-173 45h-226l-98 -561h231zM721 1462q205 0 292 -78t87 -225q0 -207 -92 -346t-244 -160l158 -653h-177l-139 639h-241l-113 -639h-160l258 1462h371z" />
    <glyph glyph-name="uni0211" unicode="&#x211;" horiz-adv-x="665" 
d="M440 1192h-108l-107 289h162zM682 1192h-109l-106 289h162zM584 1047q90 0 166 -54l-91 -129q-51 49 -110 49q-91 0 -149 -97t-97 -314l-88 -502h-154l183 1028h118l3 -92q86 111 219 111z" />
    <glyph glyph-name="uni0212" unicode="&#x212;" horiz-adv-x="1120" 
d="M858 1683q0 104 -121 105q-71 0 -109 -35t-61 -125h-106q27 156 87 216t193 61q225 0 226 -176q-1 -29 -9 -101h-104q4 35 4 55zM616 768q160 0 240 99t80 270q0 102 -54 147t-173 45h-226l-98 -561h231zM721 1462q205 0 292 -78t87 -225q0 -207 -92 -346t-244 -160
l158 -653h-177l-139 639h-241l-113 -639h-160l258 1462h371z" />
    <glyph glyph-name="uni0213" unicode="&#x213;" horiz-adv-x="665" 
d="M651 1257q0 104 -121 105q-74 0 -112 -35t-60 -125h-106q27 156 88 216t192 61q227 0 228 -176q0 -33 -10 -101h-105q6 45 6 55zM584 1047q90 0 166 -54l-91 -129q-51 49 -110 49q-91 0 -149 -97t-97 -314l-88 -502h-154l183 1028h118l3 -92q86 111 219 111z" />
    <glyph glyph-name="uni0214" unicode="&#x214;" horiz-adv-x="1196" 
d="M741 1618h-108l-107 289h162zM983 1618h-109l-106 289h162zM539 -18q-221 0 -318 108q-70 78 -69 205q0 61 22 203l170 964h160l-174 -993q-18 -94 -19 -156q0 -199 221 -198q166 0 252 129q43 66 72 225l176 993h160l-180 -1020q-26 -137 -50 -200t-75 -121
q-127 -139 -348 -139z" />
    <glyph glyph-name="uni0215" unicode="&#x215;" horiz-adv-x="968" 
d="M551 1192h-109l-106 289h162zM793 1192h-109l-106 289h161zM106 225q0 66 23 205l107 598h153l-108 -606q-16 -96 -17 -146q0 -160 139 -159q102 0 161 81q58 81 91 267l101 563h151l-180 -1028h-113l2 98q-94 -117 -249 -116q-125 0 -193 63t-68 180z" />
    <glyph glyph-name="uni0216" unicode="&#x216;" horiz-adv-x="1196" 
d="M944 1683q0 104 -121 105q-71 0 -109 -35t-61 -125h-106q27 156 87 216t193 61q225 0 226 -176q-1 -29 -9 -101h-104q4 35 4 55zM539 -18q-221 0 -318 108q-70 78 -69 205q0 61 22 203l170 964h160l-174 -993q-18 -94 -19 -156q0 -199 221 -198q166 0 252 129
q43 66 72 225l176 993h160l-180 -1020q-26 -137 -50 -200t-75 -121q-127 -139 -348 -139z" />
    <glyph glyph-name="uni0217" unicode="&#x217;" horiz-adv-x="968" 
d="M756 1257q0 104 -121 105q-74 0 -112 -35t-60 -125h-107q27 156 88 216t193 61q227 0 227 -176q0 -33 -10 -101h-104q6 45 6 55zM106 225q0 66 23 205l107 598h153l-108 -606q-16 -96 -17 -146q0 -160 139 -159q102 0 161 81q58 81 91 267l101 563h151l-180 -1028h-113
l2 98q-94 -117 -249 -116q-125 0 -193 63t-68 180z" />
    <glyph glyph-name="Scommaaccent" unicode="&#x218;" horiz-adv-x="1013" 
d="M188 -451l144 308h155l-192 -308h-107zM430 113q188 0 266 135q56 90 56 194q1 141 -107 185q-25 10 -161 56q-275 93 -275 335q0 190 102 317q111 145 332 146q170 0 254 -71t92 -220l-143 -37q-14 107 -62 151t-147 44q-145 0 -215 -113q-53 -85 -53 -183t50 -147
q51 -49 201 -101t221 -124t70 -215q0 -193 -102 -324q-121 -162 -381 -161q-197 0 -288 74t-101 245l145 39q12 -119 70 -172t176 -53z" />
    <glyph glyph-name="scommaaccent" unicode="&#x219;" horiz-adv-x="845" 
d="M109 -451l143 308h156l-193 -308h-106zM584 326q0 58 -37 84t-168 56t-186 83t-56 160q0 157 93 247t251 91q197 0 264 -103q31 -51 35 -137l-137 -31q-8 143 -158 144q-88 0 -143 -54t-55 -128t35 -102q34 -28 150 -52t173 -60q88 -53 88 -180q0 -176 -102 -269
t-309 -93t-279 116q-29 50 -37 138l139 30q11 -86 55 -122t148 -36t170 59q66 58 66 159z" />
    <glyph glyph-name="uni021A" unicode="&#x21a;" horiz-adv-x="927" 
d="M135 -451l144 308h153l-190 -308h-107zM295 0l233 1327h-338l23 135h838l-23 -135h-340l-233 -1327h-160z" />
    <glyph glyph-name="uni021B" unicode="&#x21b;" horiz-adv-x="585" 
d="M6 -451l144 308h153l-190 -308h-107zM285 212q0 -83 121 -83h34l-22 -129h-33q-141 0 -199 39q-57 39 -57 133q0 55 23 188l96 541h-107l23 127h108l66 330h143l-57 -330h170l-23 -127h-170l-102 -575q-14 -74 -14 -114z" />
    <glyph glyph-name="uni0226" unicode="&#x226;" horiz-adv-x="1040" 
d="M637 1634l37 209h149l-37 -209h-149zM739 457l-86 788l-364 -788h450zM752 324h-521l-147 -324h-176l706 1462h146l194 -1462h-170z" />
    <glyph glyph-name="uni0227" unicode="&#x227;" horiz-adv-x="925" 
d="M512 1208l37 209h149l-36 -209h-150zM444 481q-145 0 -200 -67q-59 -66 -60 -193q0 -63 40 -90t144 -27t151 43q48 43 71 164l31 170h-177zM520 1047q145 -1 222 -63t77 -183q0 -66 -18 -166l-113 -635h-121l-6 45q-78 -63 -237 -63q-293 0 -293 211q0 197 92 303
q86 106 313 106h205l14 74q10 53 11 104q0 139 -152 140q-76 0 -125 -36t-88 -120l-127 41q100 242 346 242z" />
    <glyph glyph-name="uni0237" unicode="&#x237;" horiz-adv-x="468" 
d="M252 1028h154l-189 -1069q-39 -250 -132 -342t-306 -88l22 131q113 -6 174 62t88 233z" />
    <glyph glyph-name="afii57929" unicode="&#x2bc;" horiz-adv-x="329" 
d="M137 979l146 483h161l-180 -483h-127z" />
    <glyph glyph-name="uni02C0" unicode="&#x2c0;" horiz-adv-x="1024" 
d="M770 1831q0 39 -45 39t-111 -27l-14 94q80 31 145 31q158 0 158 -131q0 -39 -15 -65q-14 -26 -56 -66t-50 -56t-16 -55h-111q11 67 23 89t52 71t40 76z" />
    <glyph glyph-name="circumflex" unicode="&#x2c6;" horiz-adv-x="1024" 
d="M670 1368l-144 -166h-164l269 268h100l174 -268h-149z" />
    <glyph glyph-name="caron" unicode="&#x2c7;" horiz-adv-x="1024" 
d="M645 1303l146 165h161l-268 -270h-102l-172 270h149z" />
    <glyph glyph-name="uni02C9" unicode="&#x2c9;" horiz-adv-x="1024" 
d="M418 1270l20 112h459l-20 -112h-459z" />
    <glyph glyph-name="breve" unicode="&#x2d8;" horiz-adv-x="1024" 
d="M651 1303q72 -1 111 35t61 124h105q-25 -156 -86 -216t-195 -60q-225 0 -225 176q0 37 10 100h103l-5 -55q0 -104 121 -104z" />
    <glyph glyph-name="dotaccent" unicode="&#x2d9;" horiz-adv-x="1024" 
d="M559 1208l37 209h149l-36 -209h-150z" />
    <glyph glyph-name="ring" unicode="&#x2da;" horiz-adv-x="1024" 
d="M686 1503q-55 0 -89 -45t-34 -117q0 -84 84 -84q53 -1 88 45t35 115q0 86 -84 86zM683 1585q93 0 143 -47t50 -137t-66 -158q-67 -67 -160 -67t-143 47t-50 139t66 158q67 65 160 65z" />
    <glyph glyph-name="ogonek" unicode="&#x2db;" horiz-adv-x="1024" 
d="M416 -238q0 -58 80 -59q41 0 106 18v-90q-72 -27 -149 -26q-180 0 -181 133q1 156 224 262h131q-119 -76 -165 -128t-46 -110z" />
    <glyph glyph-name="tilde" unicode="&#x2dc;" horiz-adv-x="1024" 
d="M562 1452q70 0 122 -66q57 -66 84 -65q47 0 88 115h98q-45 -132 -85 -180q-41 -48 -113 -48t-127 68q-33 41 -47 52t-33 11q-51 1 -92 -114h-97q44 131 88 179t114 48z" />
    <glyph glyph-name="hungarumlaut" unicode="&#x2dd;" horiz-adv-x="1024" 
d="M684 1192l156 289h161l-208 -289h-109zM442 1192l156 289h162l-209 -289h-109z" />
    <glyph glyph-name="uni0309" unicode="&#x309;" horiz-adv-x="1024" 
d="M650 1452q-48 0 -111 -27l-13 97q80 29 148 28q156 0 155 -131q0 -39 -15 -65t-55 -64q-39 -39 -49 -56t-18 -56h-110q12 68 23 90t53 70q42 49 40 75q0 39 -48 39z" />
    <glyph glyph-name="uni0312" unicode="&#x312;" horiz-adv-x="1024" 
d="M543 1192l245 289h115l-182 -289h-178z" />
    <glyph glyph-name="uni0313" unicode="&#x313;" horiz-adv-x="139" 
d="M72 1016l129 461h149l-172 -461h-106z" />
    <glyph glyph-name="uni031B" unicode="&#x31b;" horiz-adv-x="139" 
d="M72 1016l129 461h149l-172 -461h-106z" />
    <glyph glyph-name="uni0323" unicode="&#x323;" horiz-adv-x="1024" 
d="M276 -395l37 209h150l-37 -209h-150z" />
    <glyph glyph-name="uni037E" unicode="&#x37e;" horiz-adv-x="485" 
d="M233 829l35 199h160l-35 -199h-160zM-68 -385l185 582h170l-219 -582h-136z" />
    <glyph glyph-name="uni0387" unicode="&#x387;" horiz-adv-x="485" 
d="M186 645l35 197h160l-35 -197h-160z" />
    <glyph glyph-name="uni04D4" unicode="&#x4d4;" horiz-adv-x="1640" 
d="M813 473l152 854h-19l-596 -854h463zM788 340h-528l-235 -340h-185l1043 1462h827l-24 -135h-566l-92 -520h483l-24 -135h-481l-95 -537h568l-25 -135h-725z" />
    <glyph glyph-name="uni04D5" unicode="&#x4d5;" horiz-adv-x="1456" 
d="M1061 926q-207 0 -254 -279l-8 -43h413q16 98 17 144q0 178 -168 178zM444 483q-143 0 -200 -69q-59 -66 -60 -193q0 -63 39 -90t141 -27t155 50q54 50 75 170l27 159h-177zM1067 1047q305 0 305 -289q0 -94 -35 -275h-561l-14 -86q-10 -55 -10 -106q0 -184 182 -185
q154 0 215 156l129 -29q-84 -252 -354 -251q-113 0 -179 36t-102 121q-59 -90 -126 -124t-191 -33q-295 0 -295 211q0 197 90 304t315 107h207l12 72q10 68 11 100q0 141 -152 142q-74 0 -123 -35t-94 -117l-121 43q53 123 137 180q83 57 221 57t203 -65q18 -18 43 -74
q59 76 125 108t162 32z" />
    <glyph glyph-name="uni1E02" unicode="&#x1e02;" horiz-adv-x="1122" 
d="M664 1634l36 209h150l-37 -209h-149zM549 133q139 0 205 82q88 113 88 277q0 102 -44 148t-145 46h-284l-99 -553h279zM657 819q127 0 193 78q84 102 84 248q0 98 -46 141t-149 43h-258l-90 -510h266zM741 1462q201 0 279 -76t78 -219t-60 -249t-161 -156q68 -51 90 -88
q37 -70 37 -185q0 -225 -127 -372q-53 -63 -125 -90t-185 -27h-479l258 1462h395z" />
    <glyph glyph-name="uni1E03" unicode="&#x1e03;" 
d="M637 1208l37 209h149l-37 -209h-149zM739 739q0 176 -157 176q-205 0 -263 -319l-28 -164q-14 -86 -15 -131q0 -190 170 -190q189 0 244 299l37 211q12 66 12 118zM895 770q0 -68 -21 -178l-34 -205q-39 -215 -127 -310q-89 -95 -235 -95t-222 65q-4 2 -45 57l-29 -104
h-121l258 1462h154l-90 -506q90 90 228 90t211 -70q73 -71 73 -206z" />
    <glyph glyph-name="uni1E0C" unicode="&#x1e0c;" horiz-adv-x="1173" 
d="M303 -395l37 209h149l-36 -209h-150zM958 1112q0 117 -84 178q-53 39 -176 39h-215l-213 -1196h217q162 -2 251 87t124 288l78 448q18 90 18 156zM711 1462q201 0 293 -71q117 -94 116 -265q0 -53 -20 -174l-86 -491q-72 -467 -514 -461h-412l258 1462h365z" />
    <glyph glyph-name="uni1E0D" unicode="&#x1e0d;" 
d="M293 -395l37 209h149l-37 -209h-149zM252 291q0 -178 158 -178q203 0 260 319l28 164q12 66 13 131q0 190 -168 191q-99 0 -157 -70t-85 -221l-39 -211q-10 -57 -10 -125zM383 -18q-287 0 -287 282q0 76 19 172l37 217q37 207 124 300q88 93 248 94q88 1 138 -19t100 -74
l88 508h154l-259 -1462h-118l2 84l-8 -10q-92 -92 -238 -92z" />
    <glyph glyph-name="uni1E1E" unicode="&#x1e1e;" horiz-adv-x="946" 
d="M662 1634l36 209h150l-37 -209h-149zM90 0l258 1462h717l-25 -135h-557l-92 -530h471l-22 -135h-473l-117 -662h-160z" />
    <glyph glyph-name="uni1E1F" unicode="&#x1e1f;" horiz-adv-x="581" 
d="M477 1634l37 209h150l-37 -209h-150zM258 901h-111l23 127h111l32 186q23 146 83 198t204 50h94l-20 -116h-49q-82 2 -114 -29t-50 -133l-29 -156h193l-23 -127h-192l-158 -901h-154z" />
    <glyph glyph-name="uni1E24" unicode="&#x1e24;" horiz-adv-x="1179" 
d="M356 -395l37 209h150l-37 -209h-150zM90 0l258 1462h160l-117 -655h504l115 655h159l-258 -1462h-159l118 672h-501l-119 -672h-160z" />
    <glyph glyph-name="uni1E25" unicode="&#x1e25;" horiz-adv-x="989" 
d="M260 -395l37 209h149l-36 -209h-150zM883 801q0 -76 -21 -193l-106 -608h-154l109 616q14 86 14 134q0 162 -147 161q-109 -1 -169 -79t-94 -263l-100 -569h-154l258 1462h154l-88 -497q57 47 107 64t124 18q127 0 197 -65t70 -181z" />
    <glyph glyph-name="uni1E44" unicode="&#x1e44;" horiz-adv-x="1249" 
d="M774 1634l37 209h150l-37 -209h-150zM90 0l258 1462h156l375 -1157l204 1157h154l-258 -1462h-152l-378 1159l-205 -1159h-154z" />
    <glyph glyph-name="uni1E45" unicode="&#x1e45;" horiz-adv-x="989" 
d="M555 1208l37 209h149l-36 -209h-150zM636 1047q108 1 177 -63q70 -64 70 -183q0 -76 -21 -193l-106 -608h-154l109 612q14 86 14 140q0 162 -150 161q-109 -1 -169 -81t-93 -269l-98 -563h-154l183 1028h116l-4 -88q56 59 114 83t166 24z" />
    <glyph glyph-name="uni1E5A" unicode="&#x1e5a;" horiz-adv-x="1120" 
d="M326 -395l36 209h150l-37 -209h-149zM616 768q160 0 240 99t80 270q0 102 -54 147t-173 45h-226l-98 -561h231zM721 1462q205 0 292 -78t87 -225q0 -207 -92 -346t-244 -160l158 -653h-177l-139 639h-241l-113 -639h-160l258 1462h371z" />
    <glyph glyph-name="uni1E5B" unicode="&#x1e5b;" horiz-adv-x="665" 
d="M-6 -395l37 209h149l-37 -209h-149zM584 1047q90 0 166 -54l-91 -129q-51 49 -110 49q-91 0 -149 -97t-97 -314l-88 -502h-154l181 1028h120l3 -92q86 111 219 111z" />
    <glyph glyph-name="uni1E62" unicode="&#x1e62;" horiz-adv-x="1013" 
d="M244 -395l37 209h149l-37 -209h-149zM430 113q188 0 266 135q56 90 56 194q1 141 -107 185q-25 10 -161 56q-275 93 -275 335q0 190 102 317q111 145 332 146q170 0 254 -71t92 -220l-143 -37q-14 107 -62 151t-147 44q-145 0 -215 -113q-53 -85 -53 -183t50 -147
q51 -49 201 -101t221 -124t70 -215q0 -193 -102 -324q-121 -162 -381 -161q-197 0 -288 74t-101 245l145 39q12 -119 70 -172t176 -53z" />
    <glyph glyph-name="uni1E63" unicode="&#x1e63;" horiz-adv-x="845" 
d="M174 -395l37 209h149l-36 -209h-150zM584 326q0 58 -37 84t-168 56t-186 83t-56 160q0 157 93 247t251 91q197 0 264 -103q31 -51 35 -137l-137 -31q-8 143 -158 144q-88 0 -143 -54t-55 -128t35 -102q34 -28 150 -52t173 -60q88 -53 88 -180q0 -176 -102 -269t-309 -93
t-279 116q-29 50 -37 138l139 30q11 -86 55 -122t148 -36t170 59q66 58 66 159z" />
    <glyph glyph-name="uni1E6C" unicode="&#x1e6c;" horiz-adv-x="927" 
d="M229 -395l37 209h150l-37 -209h-150zM295 0l235 1327h-340l25 135h838l-25 -135h-338l-235 -1327h-160z" />
    <glyph glyph-name="uni1E6D" unicode="&#x1e6d;" horiz-adv-x="585" 
d="M57 -395l37 209h150l-37 -209h-150zM285 212q0 -83 118 -83h35l-22 -129h-33q-139 0 -197 39q-57 39 -57 120t23 201l94 541h-107l23 127h108l66 330h143l-57 -330h170l-23 -127h-170l-100 -575q-14 -74 -14 -114z" />
    <glyph glyph-name="Wgrave" unicode="&#x1e80;" horiz-adv-x="1540" 
d="M1063 1618h-113l-147 289h168zM262 0l-39 1462h158l6 -1179l490 1179h114l74 -1179l422 1179h162l-553 -1462h-138l-75 1153l-484 -1153h-137z" />
    <glyph glyph-name="wgrave" unicode="&#x1e81;" horiz-adv-x="1339" 
d="M887 1192h-113l-147 289h168zM240 0l-82 1028h153l37 -801l357 801h106l74 -801l321 801h158l-444 -1028h-125l-80 770l-350 -770h-125z" />
    <glyph glyph-name="Wacute" unicode="&#x1e82;" horiz-adv-x="1540" 
d="M874 1618l183 289h180l-248 -289h-115zM262 0l-39 1462h158l6 -1179l490 1179h114l74 -1179l422 1179h162l-553 -1462h-138l-75 1153l-484 -1153h-137z" />
    <glyph glyph-name="wacute" unicode="&#x1e83;" horiz-adv-x="1339" 
d="M698 1192l183 289h180l-248 -289h-115zM240 0l-82 1028h153l37 -801l357 801h106l74 -801l321 801h158l-444 -1028h-125l-80 770l-350 -770h-125z" />
    <glyph glyph-name="Wdieresis" unicode="&#x1e84;" horiz-adv-x="1540" 
d="M1059 1634l37 209h139l-37 -209h-139zM717 1634l37 209h139l-37 -209h-139zM262 0l-39 1462h158l6 -1179l490 1179h114l74 -1179l422 1179h162l-553 -1462h-138l-75 1153l-484 -1153h-137z" />
    <glyph glyph-name="wdieresis" unicode="&#x1e85;" horiz-adv-x="1339" 
d="M883 1208l37 209h139l-37 -209h-139zM545 1208l37 209h139l-37 -209h-139zM240 0l-82 1028h153l37 -801l357 801h106l74 -801l321 801h158l-444 -1028h-125l-80 770l-350 -770h-125z" />
    <glyph glyph-name="uni1E92" unicode="&#x1e92;" horiz-adv-x="935" 
d="M260 -395l37 209h149l-36 -209h-150zM-8 0l18 102l776 1225h-524l23 135h704l-16 -102l-776 -1225h585l-24 -135h-766z" />
    <glyph glyph-name="uni1E93" unicode="&#x1e93;" horiz-adv-x="815" 
d="M186 -395l37 209h150l-37 -209h-150zM-16 0l16 94l575 805h-397l23 129h585l-16 -94l-577 -805h460l-22 -129h-647z" />
    <glyph glyph-name="uni1EA0" unicode="&#x1ea0;" horiz-adv-x="1040" 
d="M338 -395l37 209h149l-37 -209h-149zM739 457l-86 788l-364 -788h450zM752 324h-521l-147 -324h-176l706 1462h146l194 -1462h-170z" />
    <glyph glyph-name="uni1EA1" unicode="&#x1ea1;" horiz-adv-x="925" 
d="M227 -395l37 209h148l-37 -209h-148zM444 481q-145 0 -200 -67q-59 -66 -60 -193q0 -63 40 -90t144 -27t151 43q48 43 71 164l31 170h-177zM520 1047q145 -1 222 -63t77 -183q0 -66 -18 -166l-113 -635h-121l-6 45q-78 -63 -237 -63q-293 0 -293 211q0 197 92 303
q86 106 313 106h205l14 74q10 53 11 104q0 139 -152 140q-76 0 -125 -36t-88 -120l-127 41q100 242 346 242z" />
    <glyph glyph-name="uni1EA2" unicode="&#x1ea2;" horiz-adv-x="1040" 
d="M764 1831q0 39 -45 39t-111 -27l-14 94q80 31 147 31q156 0 156 -131q0 -39 -15 -65q-14 -26 -56 -66t-50 -56t-16 -55h-111q11 67 23 89t63 83q29 39 29 64zM739 457l-86 788l-364 -788h450zM752 324h-521l-147 -324h-176l706 1462h146l194 -1462h-170z" />
    <glyph glyph-name="uni1EA3" unicode="&#x1ea3;" horiz-adv-x="925" 
d="M662 1413q0 39 -48 39t-112 -27l-13 97q80 29 148 28q156 0 156 -131q1 -39 -15 -65t-56 -64q-40 -39 -50 -56t-17 -56h-110q12 68 23 90q10 22 52 70q42 49 42 75zM444 481q-145 0 -200 -67q-59 -66 -60 -193q0 -63 40 -90t144 -27t151 43q48 43 71 164l31 170h-177z
M520 1047q145 -1 222 -63t77 -183q0 -66 -18 -166l-113 -635h-121l-6 45q-78 -63 -237 -63q-293 0 -293 211q0 197 92 303q86 106 313 106h205l14 74q10 53 11 104q0 139 -152 140q-76 0 -125 -36t-88 -120l-127 41q100 242 346 242z" />
    <glyph glyph-name="uni1EA4" unicode="&#x1ea4;" horiz-adv-x="1040" 
d="M715 1677l-140 -116h-157l260 217h96l184 -217h-145zM668 1833l143 231h141l-194 -231h-90zM739 457l-86 788l-364 -788h450zM752 324h-521l-147 -324h-176l706 1462h146l194 -1462h-170z" />
    <glyph glyph-name="uni1EA5" unicode="&#x1ea5;" horiz-adv-x="925" 
d="M598 1251l-139 -116h-158l262 217h94l187 -217h-148zM553 1407l143 231h142l-195 -231h-90zM444 481q-145 0 -200 -67q-59 -66 -60 -193q0 -63 40 -90t144 -27t151 43q48 43 71 164l31 170h-177zM520 1047q145 -1 222 -63t77 -183q0 -66 -18 -166l-113 -635h-121l-6 45
q-78 -63 -237 -63q-293 0 -293 211q0 197 92 303q86 106 313 106h205l14 74q10 53 11 104q0 139 -152 140q-76 0 -125 -36t-88 -120l-127 41q100 242 346 242z" />
    <glyph glyph-name="uni1EA6" unicode="&#x1ea6;" horiz-adv-x="1040" 
d="M715 1677l-140 -116h-157l262 217h94l184 -217h-145zM795 1833h-84l-119 231h129zM739 457l-86 788l-364 -788h450zM752 324h-521l-147 -324h-176l706 1462h146l194 -1462h-170z" />
    <glyph glyph-name="uni1EA7" unicode="&#x1ea7;" horiz-adv-x="925" 
d="M598 1251l-139 -116h-158l262 217h94l185 -217h-146zM678 1407h-82l-121 231h129zM444 481q-145 0 -200 -67q-59 -66 -60 -193q0 -63 40 -90t144 -27t151 43q48 43 71 164l31 170h-177zM520 1047q145 -1 222 -63t77 -183q0 -66 -18 -166l-113 -635h-121l-6 45
q-78 -63 -237 -63q-293 0 -293 211q0 197 92 303q86 106 313 106h205l14 74q10 53 11 104q0 139 -152 140q-76 0 -125 -36t-88 -120l-127 41q100 242 346 242z" />
    <glyph glyph-name="uni1EA8" unicode="&#x1ea8;" horiz-adv-x="1040" 
d="M711 1675l-140 -114h-157l258 206h96l186 -206h-145zM766 1962q0 33 -37 33t-84 -19l-12 76q61 23 121 23q125 0 125 -97q1 -47 -49 -92t-52 -86h-98q6 42 17 62t40 50t29 50zM739 457l-86 788l-364 -788h450zM752 324h-521l-147 -324h-176l706 1462h146l194 -1462h-170z
" />
    <glyph glyph-name="uni1EA9" unicode="&#x1ea9;" horiz-adv-x="925" 
d="M594 1249l-139 -114h-158l260 206h94l187 -206h-146zM612 1569q-37 0 -84 -19l-12 74q59 25 121 25q125 0 125 -97q0 -45 -47 -91t-53 -87h-99q5 42 17 62t41 50t28 50q0 33 -37 33zM444 481q-145 0 -200 -67q-59 -66 -60 -193q0 -63 40 -90t144 -27t151 43q48 43 71 164
l31 170h-177zM520 1047q145 -1 222 -63t77 -183q0 -66 -18 -166l-113 -635h-121l-6 45q-78 -63 -237 -63q-293 0 -293 211q0 197 92 303q86 106 313 106h205l14 74q10 53 11 104q0 139 -152 140q-76 0 -125 -36t-88 -120l-127 41q100 242 346 242z" />
    <glyph glyph-name="uni1EAA" unicode="&#x1eaa;" horiz-adv-x="1040" 
d="M721 1677l-139 -116h-158l262 217h94l187 -217h-148zM682 2060q61 0 104 -58t62 -58q43 0 76 102h86q-39 -115 -75 -158t-95 -43t-107 62q-39 55 -61 55q-47 0 -88 -102h-86q41 112 82 156t102 44zM739 457l-86 788l-364 -788h450zM752 324h-521l-147 -324h-176l706 1462
h146l194 -1462h-170z" />
    <glyph glyph-name="uni1EAB" unicode="&#x1eab;" horiz-adv-x="925" 
d="M606 1251l-141 -116h-158l262 217h97l184 -217h-145zM565 1634q61 0 97 -49t47 -59q10 -10 24 -10q39 0 76 104h86q-37 -113 -74 -157t-99 -44t-104 62q-41 55 -63 55q-45 0 -86 -102h-88q43 112 83 156t101 44zM444 481q-145 0 -200 -67q-59 -66 -60 -193q0 -63 40 -90
t144 -27t151 43q48 43 71 164l31 170h-177zM520 1047q145 -1 222 -63t77 -183q0 -66 -18 -166l-113 -635h-121l-6 45q-78 -63 -237 -63q-293 0 -293 211q0 197 92 303q86 106 313 106h205l14 74q10 53 11 104q0 139 -152 140q-76 0 -125 -36t-88 -120l-127 41
q100 242 346 242z" />
    <glyph glyph-name="uni1EAC" unicode="&#x1eac;" horiz-adv-x="1040" 
d="M346 -395l37 209h147l-36 -209h-148zM719 1794l-141 -166h-164l266 270h102l174 -270h-151zM739 457l-86 788l-364 -788h450zM752 324h-521l-147 -324h-176l706 1462h146l194 -1462h-170z" />
    <glyph glyph-name="uni1EAD" unicode="&#x1ead;" horiz-adv-x="925" 
d="M248 -395l37 209h147l-37 -209h-147zM612 1368l-141 -166h-164l268 268h101l174 -268h-152zM444 481q-145 0 -200 -67q-59 -66 -60 -193q0 -63 40 -90t144 -27t151 43q48 43 71 164l31 170h-177zM520 1047q145 -1 222 -63t77 -183q0 -66 -18 -166l-113 -635h-121l-6 45
q-78 -63 -237 -63q-293 0 -293 211q0 197 92 303q86 106 313 106h205l14 74q10 53 11 104q0 139 -152 140q-76 0 -125 -36t-88 -120l-127 41q100 242 346 242z" />
    <glyph glyph-name="uni1EAE" unicode="&#x1eae;" horiz-adv-x="1040" 
d="M580 1769q0 -104 127 -104q73 0 113 32t61 109h106q-27 -139 -90 -196q-63 -58 -187 -58t-179 41q-54 41 -54 131q0 21 6 82h99q-2 -18 -2 -37zM668 1833l143 231h141l-194 -231h-90zM739 457l-86 788l-364 -788h450zM752 324h-521l-147 -324h-176l706 1462h146
l194 -1462h-170z" />
    <glyph glyph-name="uni1EAF" unicode="&#x1eaf;" horiz-adv-x="925" 
d="M463 1343q0 -104 129 -104q72 0 112 32t62 109h104q-27 -139 -90 -196q-63 -58 -187 -58t-178 41t-55 131q1 27 9 82h98q-4 -18 -4 -37zM553 1407l143 231h142l-195 -231h-90zM444 481q-145 0 -200 -67q-59 -66 -60 -193q0 -63 40 -90t144 -27t151 43q48 43 71 164
l31 170h-177zM520 1047q145 -1 222 -63t77 -183q0 -66 -18 -166l-113 -635h-121l-6 45q-78 -63 -237 -63q-293 0 -293 211q0 197 92 303q86 106 313 106h205l14 74q10 53 11 104q0 139 -152 140q-76 0 -125 -36t-88 -120l-127 41q100 242 346 242z" />
    <glyph glyph-name="uni1EB0" unicode="&#x1eb0;" horiz-adv-x="1040" 
d="M580 1769q0 -104 127 -104q73 0 113 32t61 109h106q-27 -139 -90 -196q-63 -58 -187 -58t-179 41q-54 41 -54 131q0 21 6 82h99q-2 -18 -2 -37zM799 1833h-82l-121 231h129zM739 457l-86 788l-364 -788h450zM752 324h-521l-147 -324h-176l706 1462h146l194 -1462h-170z
" />
    <glyph glyph-name="uni1EB1" unicode="&#x1eb1;" horiz-adv-x="925" 
d="M463 1343q0 -104 129 -104q72 0 112 32t62 109h104q-27 -139 -90 -196q-63 -58 -187 -58t-178 41t-55 131q1 27 9 82h98q-4 -18 -4 -37zM684 1407h-84l-119 231h129zM444 481q-145 0 -200 -67q-59 -66 -60 -193q0 -63 40 -90t144 -27t151 43q48 43 71 164l31 170h-177z
M520 1047q145 -1 222 -63t77 -183q0 -66 -18 -166l-113 -635h-121l-6 45q-78 -63 -237 -63q-293 0 -293 211q0 197 92 303q86 106 313 106h205l14 74q10 53 11 104q0 139 -152 140q-76 0 -125 -36t-88 -120l-127 41q100 242 346 242z" />
    <glyph glyph-name="uni1EB2" unicode="&#x1eb2;" horiz-adv-x="1040" 
d="M580 1769q0 -104 127 -104q73 0 113 32t61 109h106q-27 -139 -90 -196q-63 -58 -187 -58t-179 41q-54 41 -54 131q0 21 6 82h99q-2 -18 -2 -37zM766 1962q0 33 -36 33t-85 -21l-10 76q59 25 121 25q123 0 123 -101q-1 -31 -11 -49t-48 -56t-46 -87h-98q10 61 50 109
t40 71zM739 457l-86 788l-364 -788h450zM752 324h-521l-147 -324h-176l706 1462h146l194 -1462h-170z" />
    <glyph glyph-name="uni1EB3" unicode="&#x1eb3;" horiz-adv-x="925" 
d="M463 1343q0 -104 129 -104q72 0 112 32t62 109h104q-27 -139 -90 -196q-63 -58 -187 -58t-178 41t-55 131q1 27 9 82h98q-4 -18 -4 -37zM649 1536q0 33 -35 33t-84 -19l-12 74q59 25 121 25q123 0 123 -101q0 -31 -10 -49t-48 -56t-47 -87h-96q10 63 49 110t39 70z
M444 481q-145 0 -200 -67q-59 -66 -60 -193q0 -63 40 -90t144 -27t151 43q48 43 71 164l31 170h-177zM520 1047q145 -1 222 -63t77 -183q0 -66 -18 -166l-113 -635h-121l-6 45q-78 -63 -237 -63q-293 0 -293 211q0 197 92 303q86 106 313 106h205l14 74q10 53 11 104
q0 139 -152 140q-76 0 -125 -36t-88 -120l-127 41q100 242 346 242z" />
    <glyph glyph-name="uni1EB4" unicode="&#x1eb4;" horiz-adv-x="1040" 
d="M567 1759q0 -100 129 -100q72 0 111 30t59 105h99q-25 -109 -56 -147q-66 -92 -225 -93q-215 0 -215 166q0 21 6 74h94q-2 -23 -2 -35zM674 2066q60 0 105 -58q44 -58 63 -58q39 0 76 102h86q-39 -115 -75 -158t-96 -43q-59 1 -103 59t-64 58q-47 0 -88 -102h-86
q42 112 82 156t100 44zM739 457l-86 788l-364 -788h450zM752 324h-521l-147 -324h-176l706 1462h146l194 -1462h-170z" />
    <glyph glyph-name="uni1EB5" unicode="&#x1eb5;" horiz-adv-x="925" 
d="M451 1333q0 -100 127 -100q74 0 112 30t60 105h100q-27 -109 -55 -147q-69 -93 -203 -93t-186 40t-54 126q0 25 6 74h95q-2 -20 -2 -35zM559 1640q61 0 105 -59q41 -59 61 -59q41 0 76 104h88q-39 -115 -75 -158t-97 -43q-61 1 -103 59t-65 58q-45 0 -88 -102h-86
q43 112 83 156t101 44zM444 481q-145 0 -200 -67q-59 -66 -60 -193q0 -63 40 -90t144 -27t151 43q48 43 71 164l31 170h-177zM520 1047q145 -1 222 -63t77 -183q0 -66 -18 -166l-113 -635h-121l-6 45q-78 -63 -237 -63q-293 0 -293 211q0 197 92 303q86 106 313 106h205
l14 74q10 53 11 104q0 139 -152 140q-76 0 -125 -36t-88 -120l-127 41q100 242 346 242z" />
    <glyph glyph-name="uni1EB6" unicode="&#x1eb6;" horiz-adv-x="1040" 
d="M346 -395l37 209h147l-36 -209h-148zM584 1835q0 -106 118 -106q74 1 112 35t60 124h107q-27 -156 -88 -216t-193 -60q-225 0 -225 176q0 34 10 100h103q-4 -33 -4 -53zM739 457l-86 788l-364 -788h450zM752 324h-521l-147 -324h-176l706 1462h146l194 -1462h-170z" />
    <glyph glyph-name="uni1EB7" unicode="&#x1eb7;" horiz-adv-x="925" 
d="M227 -395l37 209h148l-37 -209h-148zM457 1405q0 -102 118 -102q74 1 112 35t61 124h106q-27 -156 -88 -216t-193 -60q-225 0 -225 176q0 34 10 100h103q-4 -43 -4 -57zM444 481q-145 0 -200 -67q-59 -66 -60 -193q0 -63 40 -90t144 -27t151 43q48 43 71 164l31 170h-177
zM520 1047q145 -1 222 -63t77 -183q0 -66 -18 -166l-113 -635h-121l-6 45q-78 -63 -237 -63q-293 0 -293 211q0 197 92 303q86 106 313 106h205l14 74q10 53 11 104q0 139 -152 140q-76 0 -125 -36t-88 -120l-127 41q100 242 346 242z" />
    <glyph glyph-name="uni1EB8" unicode="&#x1eb8;" horiz-adv-x="1003" 
d="M381 -395l37 209h149l-37 -209h-149zM90 0l258 1462h723l-22 -135h-566l-92 -520h481l-24 -135h-479l-97 -537h568l-23 -135h-727z" />
    <glyph glyph-name="uni1EB9" unicode="&#x1eb9;" horiz-adv-x="954" 
d="M274 -395l37 209h150l-37 -209h-150zM725 748q0 178 -168 178q-207 0 -254 -279l-8 -43h414q16 92 16 144zM250 291q0 -182 180 -182q82 -1 132 35t85 118l129 -29q-45 -131 -134 -191t-236 -60q-307 0 -308 292q0 78 19 181l28 163q39 228 135 328t275 101
q313 0 313 -291q0 -94 -32 -273h-562l-14 -84q-10 -66 -10 -108z" />
    <glyph glyph-name="uni1EBA" unicode="&#x1eba;" horiz-adv-x="1003" 
d="M772 1831q0 39 -45 39t-111 -27l-14 94q80 31 148 31q156 0 155 -131q0 -39 -15 -65q-16 -26 -56 -65t-48 -55t-18 -57h-111q12 68 24 92q11 24 62 80q29 39 29 64zM90 0l258 1462h723l-22 -135h-566l-92 -520h481l-24 -135h-479l-97 -537h568l-23 -135h-727z" />
    <glyph glyph-name="uni1EBB" unicode="&#x1ebb;" horiz-adv-x="954" 
d="M641 1413q0 39 -48 39t-110 -27l-14 97q84 29 147 28q156 0 156 -131q0 -39 -15 -65t-55 -64q-40 -39 -49 -55q-8 -16 -16 -57h-113q14 68 26 90t51 71q40 48 40 74zM725 748q0 178 -168 178q-207 0 -254 -279l-8 -43h414q16 92 16 144zM250 291q0 -182 180 -182
q82 -1 132 35t85 118l129 -29q-45 -131 -134 -191t-236 -60q-307 0 -308 292q0 78 19 181l28 163q39 228 135 328t275 101q313 0 313 -291q0 -94 -32 -273h-562l-14 -84q-10 -66 -10 -108z" />
    <glyph glyph-name="uni1EBC" unicode="&#x1ebc;" horiz-adv-x="1003" 
d="M644 1878q68 0 124 -66q57 -66 84 -65q47 0 88 115h98q-45 -132 -85 -180q-39 -48 -111 -48t-129 68q-33 41 -47 52t-33 11q-51 1 -92 -114h-97q48 129 90 178t110 49zM90 0l258 1462h723l-22 -135h-566l-92 -520h481l-24 -135h-479l-97 -537h568l-23 -135h-727z" />
    <glyph glyph-name="uni1EBD" unicode="&#x1ebd;" horiz-adv-x="954" 
d="M524 1452q70 0 123 -66q57 -66 84 -65q47 0 88 115h99q-45 -132 -85 -180t-113 -48t-128 68q-33 41 -47 52t-33 11q-51 1 -92 -114h-96q45 131 88 179q42 48 112 48zM725 748q0 178 -168 178q-207 0 -254 -279l-8 -43h414q16 92 16 144zM250 291q0 -182 180 -182
q82 -1 132 35t85 118l129 -29q-45 -131 -134 -191t-236 -60q-307 0 -308 292q0 78 19 181l28 163q39 228 135 328t275 101q313 0 313 -291q0 -94 -32 -273h-562l-14 -84q-10 -66 -10 -108z" />
    <glyph glyph-name="uni1EBE" unicode="&#x1ebe;" horiz-adv-x="1003" 
d="M741 1677l-139 -116h-158l261 217h96l184 -217h-145zM694 1833l144 231h141l-195 -231h-90zM90 0l258 1462h723l-22 -135h-566l-92 -520h481l-24 -135h-479l-97 -537h568l-23 -135h-727z" />
    <glyph glyph-name="uni1EBF" unicode="&#x1ebf;" horiz-adv-x="954" 
d="M612 1251l-139 -116h-158l263 217h94l186 -217h-147zM567 1407l144 231h141l-195 -231h-90zM725 748q0 178 -168 178q-207 0 -254 -279l-8 -43h414q16 92 16 144zM250 291q0 -182 180 -182q82 -1 132 35t85 118l129 -29q-45 -131 -134 -191t-236 -60q-307 0 -308 292
q0 78 19 181l28 163q39 228 135 328t275 101q313 0 313 -291q0 -94 -32 -273h-562l-14 -84q-10 -66 -10 -108z" />
    <glyph glyph-name="uni1EC0" unicode="&#x1ec0;" horiz-adv-x="1003" 
d="M741 1677l-139 -116h-158l263 217h94l184 -217h-145zM821 1833h-84l-119 231h130zM90 0l258 1462h723l-22 -135h-566l-92 -520h481l-24 -135h-479l-97 -537h568l-23 -135h-727z" />
    <glyph glyph-name="uni1EC1" unicode="&#x1ec1;" horiz-adv-x="954" 
d="M612 1251l-139 -116h-158l263 217h94l186 -217h-147zM692 1407h-82l-121 231h129zM725 748q0 178 -168 178q-207 0 -254 -279l-8 -43h414q16 92 16 144zM250 291q0 -182 180 -182q82 -1 132 35t85 118l129 -29q-45 -131 -134 -191t-236 -60q-307 0 -308 292q0 78 19 181
l28 163q39 228 135 328t275 101q313 0 313 -291q0 -94 -32 -273h-562l-14 -84q-10 -66 -10 -108z" />
    <glyph glyph-name="uni1EC2" unicode="&#x1ec2;" horiz-adv-x="1003" 
d="M737 1675l-139 -114h-158l258 206h97l186 -206h-145zM793 1962q0 33 -37 33t-84 -19l-13 76q61 23 121 23q125 0 125 -97q0 -47 -49 -92t-51 -86h-98q6 42 17 62t40 50t29 50zM90 0l258 1462h723l-22 -135h-566l-92 -520h481l-24 -135h-479l-97 -537h568l-23 -135h-727z
" />
    <glyph glyph-name="uni1EC3" unicode="&#x1ec3;" horiz-adv-x="954" 
d="M608 1249l-139 -114h-158l260 206h95l188 -206h-147zM664 1536q0 33 -37 33t-84 -19l-11 74q57 25 121 25q123 0 123 -97q0 -45 -47 -91t-53 -87h-98q6 42 17 62t40 50t29 50zM725 748q0 178 -168 178q-207 0 -254 -279l-8 -43h414q16 92 16 144zM250 291
q0 -182 180 -182q82 -1 132 35t85 118l129 -29q-45 -131 -134 -191t-236 -60q-307 0 -308 292q0 78 19 181l28 163q39 228 135 328t275 101q313 0 313 -291q0 -94 -32 -273h-562l-14 -84q-10 -66 -10 -108z" />
    <glyph glyph-name="uni1EC4" unicode="&#x1ec4;" horiz-adv-x="1003" 
d="M748 1677l-140 -116h-157l262 217h94l186 -217h-147zM708 2060q62 0 105 -58t61 -58q43 0 76 102h86q-38 -115 -74 -158t-96 -43q-60 1 -102 59q-43 58 -66 58q-47 0 -88 -102h-86q41 112 82 156q40 44 102 44zM90 0l258 1462h723l-22 -135h-566l-92 -520h481l-24 -135
h-479l-97 -537h568l-23 -135h-727z" />
    <glyph glyph-name="uni1EC5" unicode="&#x1ec5;" horiz-adv-x="954" 
d="M621 1251l-142 -116h-155l260 217h96l184 -217h-145zM580 1634q60 0 104 -59q29 -39 39 -49t25 -10q39 0 75 104h86q-37 -115 -73 -158t-100 -43q-63 0 -103 62q-29 37 -38 46t-24 9q-47 0 -88 -102h-86q41 112 82 156t101 44zM725 748q0 178 -168 178q-207 0 -254 -279
l-8 -43h414q16 92 16 144zM250 291q0 -182 180 -182q82 -1 132 35t85 118l129 -29q-45 -131 -134 -191t-236 -60q-307 0 -308 292q0 78 19 181l28 163q39 228 135 328t275 101q313 0 313 -291q0 -94 -32 -273h-562l-14 -84q-10 -66 -10 -108z" />
    <glyph glyph-name="uni1EC6" unicode="&#x1ec6;" horiz-adv-x="1003" 
d="M375 -395l37 209h149l-37 -209h-149zM762 1794l-144 -166h-161l266 270h102l172 -270h-149zM90 0l258 1462h723l-22 -135h-566l-92 -520h481l-24 -135h-479l-97 -537h568l-23 -135h-727z" />
    <glyph glyph-name="uni1EC7" unicode="&#x1ec7;" horiz-adv-x="954" 
d="M242 -395l37 209h149l-37 -209h-149zM637 1368l-143 -166h-164l268 268h102l172 -268h-149zM725 748q0 178 -168 178q-207 0 -254 -279l-8 -43h414q16 92 16 144zM250 291q0 -182 180 -182q82 -1 132 35t85 118l129 -29q-45 -131 -134 -191t-236 -60q-307 0 -308 292
q0 78 19 181l28 163q39 228 135 328t275 101q313 0 313 -291q0 -94 -32 -273h-562l-14 -84q-10 -66 -10 -108z" />
    <glyph glyph-name="uni1EC8" unicode="&#x1ec8;" horiz-adv-x="518" 
d="M512 1831q0 39 -45 39t-113 -27l-12 94q80 31 145 31q158 0 158 -131q0 -39 -15 -65q-14 -26 -56 -65t-50 -55t-16 -57h-113q14 68 26 91q11 22 51 70t40 75zM90 0l258 1462h160l-258 -1462h-160z" />
    <glyph glyph-name="uni1EC9" unicode="&#x1ec9;" horiz-adv-x="458" 
d="M355 1452q-48 0 -111 -27l-13 97q80 29 146 28q158 0 158 -131q1 -39 -15 -65t-56 -64q-40 -39 -50 -56t-17 -56h-112q14 68 25 90q10 22 52 71q42 48 41 74q0 39 -48 39zM63 0l183 1028h151l-180 -1028h-154z" />
    <glyph glyph-name="uni1ECA" unicode="&#x1eca;" horiz-adv-x="518" 
d="M25 -395l36 209h150l-37 -209h-149zM90 0l258 1462h160l-258 -1462h-160z" />
    <glyph glyph-name="uni1ECB" unicode="&#x1ecb;" horiz-adv-x="458" 
d="M-6 -395l37 209h149l-37 -209h-149zM63 0l181 1028h153l-182 -1028h-152zM285 1253l37 215h153l-39 -215h-151z" />
    <glyph glyph-name="uni1ECC" unicode="&#x1ecc;" horiz-adv-x="1171" 
d="M350 -395l37 209h150l-37 -209h-150zM291 340q0 -225 248 -225q128 0 206 90t115 297l80 459q18 92 18 161q0 109 -61 167t-174 59q-152 0 -240 -119q-61 -86 -94 -268l-80 -459q-18 -109 -18 -162zM714 1481q202 0 304 -89q100 -89 100 -255q0 -70 -18 -185l-88 -491
q-23 -135 -56 -212t-92 -138q-126 -129 -328 -129t-304 88q-101 88 -101 254q1 73 21 186l86 491q25 137 56 212q32 75 91 139q127 129 329 129z" />
    <glyph glyph-name="uni1ECD" unicode="&#x1ecd;" horiz-adv-x="974" 
d="M252 -395l37 209h149l-37 -209h-149zM727 750q0 168 -174 168q-109 0 -168 -69t-86 -222l-39 -224q-12 -61 -12 -120q0 -172 174 -172q106 0 166 68q59 68 88 224l39 224q12 66 12 123zM881 764q0 -63 -19 -164l-39 -221q-37 -211 -132 -304t-273 -93q-324 0 -324 286
q1 58 17 162l39 219q37 211 132 304t275 94q324 0 324 -283z" />
    <glyph glyph-name="uni1ECE" unicode="&#x1ece;" horiz-adv-x="1171" 
d="M844 1831q0 39 -46 39t-110 -27l-14 94q80 31 147 31q156 0 156 -131q0 -39 -15 -65q-14 -26 -56 -66t-50 -56t-16 -55h-111q11 67 23 89t63 83q29 39 29 64zM291 340q0 -225 248 -225q128 0 206 90t115 297l80 459q18 92 18 161q0 109 -61 167t-174 59q-152 0 -240 -119
q-61 -86 -94 -268l-80 -459q-18 -109 -18 -162zM714 1481q202 0 304 -89q100 -89 100 -255q0 -70 -18 -185l-88 -491q-23 -135 -56 -212t-92 -138q-126 -129 -328 -129t-304 88q-101 88 -101 254q1 73 21 186l86 491q25 137 56 212q32 75 91 139q127 129 329 129z" />
    <glyph glyph-name="uni1ECF" unicode="&#x1ecf;" horiz-adv-x="974" 
d="M624 1452q-48 0 -110 -27l-12 97q80 29 145 28q156 0 156 -131q1 -39 -15 -65t-56 -64q-40 -39 -48 -55t-16 -57h-113q12 61 22 83q9 22 51 73t44 79q0 39 -48 39zM727 750q0 168 -174 168q-109 0 -168 -69t-86 -222l-39 -224q-12 -61 -12 -120q0 -172 174 -172
q106 0 166 68q59 68 88 224l39 224q12 66 12 123zM881 764q0 -63 -19 -164l-39 -221q-37 -211 -132 -304t-273 -93q-324 0 -324 286q1 58 17 162l39 219q37 211 132 304t275 94q324 0 324 -283z" />
    <glyph glyph-name="uni1ED0" unicode="&#x1ed0;" horiz-adv-x="1171" 
d="M784 1677l-139 -116h-158l263 217h94l186 -217h-147zM739 1833l144 231h141l-195 -231h-90zM291 340q0 -225 248 -225q128 0 206 90t115 297l80 459q18 92 18 161q0 109 -61 167t-174 59q-152 0 -240 -119q-61 -86 -94 -268l-80 -459q-18 -109 -18 -162zM714 1481
q202 0 304 -89q100 -89 100 -255q0 -70 -18 -185l-88 -491q-23 -135 -56 -212t-92 -138q-126 -129 -328 -129t-304 88q-101 88 -101 254q1 73 21 186l86 491q25 137 56 212q32 75 91 139q127 129 329 129z" />
    <glyph glyph-name="uni1ED1" unicode="&#x1ed1;" horiz-adv-x="974" 
d="M623 1251l-140 -116h-157l262 217h94l186 -217h-147zM578 1407l143 231h141l-194 -231h-90zM727 750q0 168 -174 168q-109 0 -168 -69t-86 -222l-39 -224q-12 -61 -12 -120q0 -172 174 -172q106 0 166 68q59 68 88 224l39 224q12 66 12 123zM881 764q0 -63 -19 -164
l-39 -221q-37 -211 -132 -304t-273 -93q-324 0 -324 286q1 58 17 162l39 219q37 211 132 304t275 94q324 0 324 -283z" />
    <glyph glyph-name="uni1ED2" unicode="&#x1ed2;" horiz-adv-x="1171" 
d="M784 1677l-139 -116h-158l263 217h94l186 -217h-147zM864 1833h-82l-120 231h129zM291 340q0 -225 248 -225q128 0 206 90t115 297l80 459q18 92 18 161q0 109 -61 167t-174 59q-152 0 -240 -119q-61 -86 -94 -268l-80 -459q-18 -109 -18 -162zM714 1481q202 0 304 -89
q100 -89 100 -255q0 -70 -18 -185l-88 -491q-23 -135 -56 -212t-92 -138q-126 -129 -328 -129t-304 88q-101 88 -101 254q1 73 21 186l86 491q25 137 56 212q32 75 91 139q127 129 329 129z" />
    <glyph glyph-name="uni1ED3" unicode="&#x1ed3;" horiz-adv-x="974" 
d="M623 1251l-140 -116h-157l262 217h94l186 -217h-147zM702 1407h-81l-121 231h129zM727 750q0 168 -174 168q-109 0 -168 -69t-86 -222l-39 -224q-12 -61 -12 -120q0 -172 174 -172q106 0 166 68q59 68 88 224l39 224q12 66 12 123zM881 764q0 -63 -19 -164l-39 -221
q-37 -211 -132 -304t-273 -93q-324 0 -324 286q1 58 17 162l39 219q37 211 132 304t275 94q324 0 324 -283z" />
    <glyph glyph-name="uni1ED4" unicode="&#x1ed4;" horiz-adv-x="1171" 
d="M780 1675l-139 -114h-158l260 206h95l188 -206h-147zM836 1962q0 33 -36 33t-85 -19l-10 76q59 23 120 23q123 0 123 -97q0 -47 -47 -92t-53 -86h-98q6 42 17 62t40 50t29 50zM291 340q0 -225 248 -225q128 0 206 90t115 297l80 459q18 92 18 161q0 109 -61 167t-174 59
q-152 0 -240 -119q-61 -86 -94 -268l-80 -459q-18 -109 -18 -162zM714 1481q202 0 304 -89q100 -89 100 -255q0 -70 -18 -185l-88 -491q-23 -135 -56 -212t-92 -138q-126 -129 -328 -129t-304 88q-101 88 -101 254q1 73 21 186l86 491q25 137 56 212q32 75 91 139
q127 129 329 129z" />
    <glyph glyph-name="uni1ED5" unicode="&#x1ed5;" horiz-adv-x="974" 
d="M618 1249l-139 -114h-157l260 206h94l188 -206h-147zM674 1536q0 33 -37 33t-84 -19l-10 74q57 25 121 25q123 0 122 -97q0 -45 -47 -91t-53 -87h-98q6 42 17 62t40 50t29 50zM727 750q0 168 -174 168q-109 0 -168 -69t-86 -222l-39 -224q-12 -61 -12 -120
q0 -172 174 -172q106 0 166 68q59 68 88 224l39 224q12 66 12 123zM881 764q0 -63 -19 -164l-39 -221q-37 -211 -132 -304t-273 -93q-324 0 -324 286q1 58 17 162l39 219q37 211 132 304t275 94q324 0 324 -283z" />
    <glyph glyph-name="uni1ED6" unicode="&#x1ed6;" horiz-adv-x="1171" 
d="M793 1677l-140 -116h-157l260 217h96l184 -217h-145zM752 2060q62 0 104 -58q43 -58 64 -58q39 0 75 102h86q-39 -115 -75 -158t-97 -43q-62 0 -104 62q-29 37 -38 46t-24 9q-47 0 -88 -102h-86q41 112 81 156t102 44zM291 340q0 -225 248 -225q128 0 206 90t115 297
l80 459q18 92 18 161q0 109 -61 167t-174 59q-152 0 -240 -119q-61 -86 -94 -268l-80 -459q-18 -109 -18 -162zM714 1481q202 0 304 -89q100 -89 100 -255q0 -70 -18 -185l-88 -491q-23 -135 -56 -212t-92 -138q-126 -129 -328 -129t-304 88q-101 88 -101 254q1 73 21 186
l86 491q25 137 56 212q32 75 91 139q127 129 329 129z" />
    <glyph glyph-name="uni1ED7" unicode="&#x1ed7;" horiz-adv-x="974" 
d="M618 1251l-139 -116h-157l260 217h96l184 -217h-145zM578 1634q60 0 104 -59q43 -59 63 -59q41 0 76 104h86q-37 -115 -73 -158t-100 -43q-63 0 -103 62q-29 37 -38 46t-24 9q-47 0 -88 -102h-86q41 112 82 156t101 44zM727 750q0 168 -174 168q-109 0 -168 -69t-86 -222
l-39 -224q-12 -61 -12 -120q0 -172 174 -172q106 0 166 68q59 68 88 224l39 224q12 66 12 123zM881 764q0 -63 -19 -164l-39 -221q-37 -211 -132 -304t-273 -93q-324 0 -324 286q1 58 17 162l39 219q37 211 132 304t275 94q324 0 324 -283z" />
    <glyph glyph-name="uni1ED8" unicode="&#x1ed8;" horiz-adv-x="1171" 
d="M350 -395l37 209h150l-37 -209h-150zM803 1794l-144 -166h-163l268 270h100l174 -270h-151zM291 340q0 -225 248 -225q128 0 206 90t115 297l80 459q18 92 18 161q0 109 -61 167t-174 59q-152 0 -240 -119q-61 -86 -94 -268l-80 -459q-18 -109 -18 -162zM714 1481
q202 0 304 -89q100 -89 100 -255q0 -70 -18 -185l-88 -491q-23 -135 -56 -212t-92 -138q-126 -129 -328 -129t-304 88q-101 88 -101 254q1 73 21 186l86 491q25 137 56 212q32 75 91 139q127 129 329 129z" />
    <glyph glyph-name="uni1ED9" unicode="&#x1ed9;" horiz-adv-x="974" 
d="M252 -395l37 209h149l-37 -209h-149zM643 1368l-143 -166h-162l266 268h103l172 -268h-150zM727 750q0 168 -174 168q-109 0 -168 -69t-86 -222l-39 -224q-12 -61 -12 -120q0 -172 174 -172q106 0 166 68q59 68 88 224l39 224q12 66 12 123zM881 764q0 -63 -19 -164
l-39 -221q-37 -211 -132 -304t-273 -93q-324 0 -324 286q1 58 17 162l39 219q37 211 132 304t275 94q324 0 324 -283z" />
    <glyph glyph-name="uni1EDA" unicode="&#x1eda;" horiz-adv-x="1226" 
d="M735 1618l183 289h180l-248 -289h-115zM958 1140q0 90 -61 148t-187 60q-126 0 -205 -92t-116 -295l-80 -459q-18 -100 -18 -162q0 -106 61 -166t172 -59q156 0 242 118q61 83 94 269l80 459q18 89 18 179zM1399 1438q0 -113 -78 -201q-51 -59 -207 -145v-9l-2 -30
q0 -23 -12 -101l-88 -491q-23 -135 -56 -211t-92 -139q-127 -129 -330 -129t-303 88t-100 256q0 68 21 184l86 491q23 135 55 212q33 77 92 139q129 129 344 129q348 0 385 -287q72 45 103 82q53 68 53 145q0 25 -10 62h137q2 -20 2 -45z" />
    <glyph glyph-name="uni1EDB" unicode="&#x1edb;" horiz-adv-x="1028" 
d="M555 1192l182 289h181l-246 -289h-117zM727 750q0 170 -174 170q-105 0 -165 -69t-89 -224l-39 -224q-12 -59 -12 -120q0 -172 174 -172q106 0 167 68q60 68 87 224l39 224q12 61 12 123zM1139 999q0 -201 -269 -337q0 -10 -8 -70l-39 -213q-37 -211 -132 -304t-273 -93
q-324 0 -324 286q0 57 17 162l39 219q37 211 133 305t266 94t248 -68q78 -69 82 -214l12 10q119 92 119 209q-1 21 -9 62h136q2 -25 2 -48z" />
    <glyph glyph-name="uni1EDC" unicode="&#x1edc;" horiz-adv-x="1226" 
d="M915 1618h-110l-150 289h170zM958 1140q0 90 -61 148t-187 60q-126 0 -205 -92t-116 -295l-80 -459q-18 -100 -18 -162q0 -106 61 -166t172 -59q156 0 242 118q61 83 94 269l80 459q18 89 18 179zM1399 1438q0 -113 -78 -201q-51 -59 -207 -145v-9l-2 -30q0 -23 -12 -101
l-88 -491q-23 -135 -56 -211t-92 -139q-127 -129 -330 -129t-303 88t-100 256q0 68 21 184l86 491q23 135 55 212q33 77 92 139q129 129 344 129q348 0 385 -287q72 45 103 82q53 68 53 145q0 25 -10 62h137q2 -20 2 -45z" />
    <glyph glyph-name="uni1EDD" unicode="&#x1edd;" horiz-adv-x="1028" 
d="M737 1192h-110l-150 289h170zM727 750q0 170 -174 170q-105 0 -165 -69t-89 -224l-39 -224q-12 -59 -12 -120q0 -172 174 -172q106 0 167 68q60 68 87 224l39 224q12 61 12 123zM1139 999q0 -201 -269 -337q0 -10 -8 -70l-39 -213q-37 -211 -132 -304t-273 -93
q-324 0 -324 286q0 57 17 162l39 219q37 211 133 305t266 94t248 -68q78 -69 82 -214l12 10q119 92 119 209q-1 21 -9 62h136q2 -25 2 -48z" />
    <glyph glyph-name="uni1EDE" unicode="&#x1ede;" horiz-adv-x="1226" 
d="M846 1831q0 39 -45 39t-111 -27l-14 94q80 31 147 31q156 0 156 -131q0 -39 -15 -65q-14 -26 -56 -66t-50 -56t-16 -55h-111q11 67 23 89t63 83q29 39 29 64zM958 1140q0 90 -61 148t-187 60q-126 0 -205 -92t-116 -295l-80 -459q-18 -100 -18 -162q0 -106 61 -166
t172 -59q156 0 242 118q61 83 94 269l80 459q18 89 18 179zM1399 1438q0 -113 -78 -201q-51 -59 -207 -145v-9l-2 -30q0 -23 -12 -101l-88 -491q-23 -135 -56 -211t-92 -139q-127 -129 -330 -129t-303 88t-100 256q0 68 21 184l86 491q23 135 55 212q33 77 92 139
q129 129 344 129q348 0 385 -287q72 45 103 82q53 68 53 145q0 25 -10 62h137q2 -20 2 -45z" />
    <glyph glyph-name="uni1EDF" unicode="&#x1edf;" horiz-adv-x="1028" 
d="M672 1413q0 39 -48 39t-112 -27l-12 97q80 29 147 28q156 0 156 -131q1 -39 -15 -65t-56 -64q-40 -39 -49 -56t-17 -56h-113q13 68 25 90t53 70q41 49 41 75zM727 750q0 170 -174 170q-105 0 -165 -69t-89 -224l-39 -224q-12 -59 -12 -120q0 -172 174 -172q106 0 167 68
q60 68 87 224l39 224q12 61 12 123zM1139 999q0 -201 -269 -337q0 -10 -8 -70l-39 -213q-37 -211 -132 -304t-273 -93q-324 0 -324 286q0 57 17 162l39 219q37 211 133 305t266 94t248 -68q78 -69 82 -214l12 10q119 92 119 209q-1 21 -9 62h136q2 -25 2 -48z" />
    <glyph glyph-name="uni1EE0" unicode="&#x1ee0;" horiz-adv-x="1226" 
d="M729 1878q68 0 125 -66t84 -65q47 0 88 115h96q-43 -132 -84 -180q-42 -48 -114 -48t-125 66t-80 65q-53 1 -92 -114h-97q45 129 88 178t111 49zM958 1140q0 90 -61 148t-187 60q-126 0 -205 -92t-116 -295l-80 -459q-18 -100 -18 -162q0 -106 61 -166t172 -59
q156 0 242 118q61 83 94 269l80 459q18 89 18 179zM1399 1438q0 -113 -78 -201q-51 -59 -207 -145v-9l-2 -30q0 -23 -12 -101l-88 -491q-23 -135 -56 -211t-92 -139q-127 -129 -330 -129t-303 88t-100 256q0 68 21 184l86 491q23 135 55 212q33 77 92 139q129 129 344 129
q348 0 385 -287q72 45 103 82q53 68 53 145q0 25 -10 62h137q2 -20 2 -45z" />
    <glyph glyph-name="uni1EE1" unicode="&#x1ee1;" horiz-adv-x="1028" 
d="M530 1452q68 0 124 -66t83 -65q49 0 90 115h97q-43 -132 -84 -180t-113 -48t-129 68q-33 41 -47 52t-33 11q-51 1 -90 -114h-98q45 131 88 179q44 48 112 48zM727 750q0 170 -174 170q-105 0 -165 -69t-89 -224l-39 -224q-12 -59 -12 -120q0 -172 174 -172q106 0 167 68
q60 68 87 224l39 224q12 61 12 123zM1139 999q0 -201 -269 -337q0 -10 -8 -70l-39 -213q-37 -211 -132 -304t-273 -93q-324 0 -324 286q0 57 17 162l39 219q37 211 133 305t266 94t248 -68q78 -69 82 -214l12 10q119 92 119 209q-1 21 -9 62h136q2 -25 2 -48z" />
    <glyph glyph-name="uni1EE2" unicode="&#x1ee2;" horiz-adv-x="1226" 
d="M379 -395l37 209h149l-37 -209h-149zM958 1140q0 90 -61 148t-187 60q-126 0 -205 -92t-116 -295l-80 -459q-18 -100 -18 -162q0 -106 61 -166t172 -59q156 0 242 118q61 83 94 269l80 459q18 89 18 179zM1399 1438q0 -113 -78 -201q-51 -59 -207 -145v-9l-2 -30
q0 -23 -12 -101l-88 -491q-23 -135 -56 -211t-92 -139q-127 -129 -330 -129t-303 88t-100 256q0 68 21 184l86 491q23 135 55 212q33 77 92 139q129 129 344 129q348 0 385 -287q72 45 103 82q53 68 53 145q0 25 -10 62h137q2 -20 2 -45z" />
    <glyph glyph-name="uni1EE3" unicode="&#x1ee3;" horiz-adv-x="1028" 
d="M268 -395l37 209h150l-37 -209h-150zM727 750q0 170 -174 170q-105 0 -165 -69t-89 -224l-39 -224q-12 -59 -12 -120q0 -172 174 -172q106 0 167 68q60 68 87 224l39 224q12 61 12 123zM1139 999q0 -201 -269 -337q0 -10 -8 -70l-39 -213q-37 -211 -132 -304t-273 -93
q-324 0 -324 286q0 57 17 162l39 219q37 211 133 305t266 94t248 -68q78 -69 82 -214l12 10q119 92 119 209q-1 21 -9 62h136q2 -25 2 -48z" />
    <glyph glyph-name="uni1EE4" unicode="&#x1ee4;" horiz-adv-x="1196" 
d="M362 -395l37 209h150l-37 -209h-150zM539 -18q-221 0 -318 108q-70 78 -69 205q0 61 22 203l170 964h160l-174 -993q-18 -94 -19 -156q0 -199 221 -198q166 0 252 129q43 66 72 225l176 993h160l-180 -1020q-26 -137 -50 -200t-75 -121q-127 -139 -348 -139z" />
    <glyph glyph-name="uni1EE5" unicode="&#x1ee5;" horiz-adv-x="968" 
d="M250 -395l37 209h147l-37 -209h-147zM106 225q0 66 23 205l107 598h153l-108 -606q-16 -96 -17 -146q0 -160 139 -159q102 0 161 81q58 81 91 267l101 563h151l-180 -1028h-113l2 98q-94 -117 -249 -116q-125 0 -193 63t-68 180z" />
    <glyph glyph-name="uni1EE6" unicode="&#x1ee6;" horiz-adv-x="1196" 
d="M836 1831q0 39 -46 39t-110 -27l-14 94q80 31 147 31q156 0 156 -131q1 -39 -15 -65t-57 -66t-49 -56t-17 -55h-110q12 67 23 89t63 83q29 39 29 64zM539 -18q-221 0 -318 108q-70 78 -69 205q0 61 22 203l170 964h160l-174 -993q-18 -94 -19 -156q0 -199 221 -198
q166 0 252 129q43 66 72 225l176 993h160l-180 -1020q-26 -137 -50 -200t-75 -121q-127 -139 -348 -139z" />
    <glyph glyph-name="uni1EE7" unicode="&#x1ee7;" horiz-adv-x="968" 
d="M649 1413q0 39 -48 39t-109 -27l-15 97q84 29 148 28q156 0 155 -131q0 -39 -15 -65t-55 -64q-40 -39 -49 -55q-8 -16 -18 -57h-111q12 68 24 90t52 71q41 48 41 74zM106 225q0 66 23 205l107 598h153l-108 -606q-16 -96 -17 -146q0 -160 139 -159q102 0 161 81
q58 81 91 267l101 563h151l-180 -1028h-113l2 98q-94 -117 -249 -116q-125 0 -193 63t-68 180z" />
    <glyph glyph-name="uni1EE8" unicode="&#x1ee8;" horiz-adv-x="1282" 
d="M760 1618l182 289h180l-248 -289h-114zM1479 1438q0 -125 -90 -215q-43 -47 -97 -81t-174 -91l-106 -609q-26 -137 -50 -200t-75 -121q-127 -139 -349 -139t-317 108q-70 78 -69 205q0 78 22 203l170 964h160l-174 -993q-18 -94 -19 -156q0 -199 221 -198q166 0 252 129
q43 66 72 225l176 993h160l-55 -303q115 59 163 119t50 145q0 27 -11 60h136q4 -20 4 -45z" />
    <glyph glyph-name="uni1EE9" unicode="&#x1ee9;" horiz-adv-x="1062" 
d="M553 1192l182 289h180l-247 -289h-115zM1067 987q0 27 -10 60h137q2 -20 2 -46q0 -121 -78 -205t-282 -184l-109 -612h-113l2 98q-90 -117 -249 -116q-125 0 -193 63t-68 178q0 76 23 207l107 598h153l-108 -606q-16 -98 -17 -146q0 -160 139 -159q102 0 161 81
q58 81 91 267l101 563h153l-55 -307q113 59 163 121t50 145z" />
    <glyph glyph-name="uni1EEA" unicode="&#x1eea;" horiz-adv-x="1282" 
d="M915 1618h-112l-148 289h168zM1479 1438q0 -125 -90 -215q-43 -47 -97 -81t-174 -91l-106 -609q-26 -137 -50 -200t-75 -121q-127 -139 -349 -139t-317 108q-70 78 -69 205q0 78 22 203l170 964h160l-174 -993q-18 -94 -19 -156q0 -199 221 -198q166 0 252 129
q43 66 72 225l176 993h160l-55 -303q115 59 163 119t50 145q0 27 -11 60h136q4 -20 4 -45z" />
    <glyph glyph-name="uni1EEB" unicode="&#x1eeb;" horiz-adv-x="1062" 
d="M680 1192h-113l-147 289h168zM1067 987q0 27 -10 60h137q2 -20 2 -46q0 -121 -78 -205t-282 -184l-109 -612h-113l2 98q-90 -117 -249 -116q-125 0 -193 63t-68 178q0 76 23 207l107 598h153l-108 -606q-16 -98 -17 -146q0 -160 139 -159q102 0 161 81q58 81 91 267
l101 563h153l-55 -307q113 59 163 121t50 145z" />
    <glyph glyph-name="uni1EEC" unicode="&#x1eec;" horiz-adv-x="1282" 
d="M858 1831q0 39 -45 39t-111 -27l-14 94q80 31 146 31q158 0 157 -131q0 -39 -15 -65q-14 -26 -56 -66t-50 -56t-16 -55h-111q11 67 23 89t52 71t40 76zM1479 1438q0 -125 -90 -215q-43 -47 -97 -81t-174 -91l-106 -609q-26 -137 -50 -200t-75 -121q-127 -139 -349 -139
t-317 108q-70 78 -69 205q0 78 22 203l170 964h160l-174 -993q-18 -94 -19 -156q0 -199 221 -198q166 0 252 129q43 66 72 225l176 993h160l-55 -303q115 59 163 119t50 145q0 27 -11 60h136q4 -20 4 -45z" />
    <glyph glyph-name="uni1EED" unicode="&#x1eed;" horiz-adv-x="1062" 
d="M662 1413q0 39 -48 39t-112 -27l-13 97q80 29 146 28q158 0 158 -131q1 -39 -15 -65t-57 -65q-41 -40 -49 -55t-17 -56h-112q14 68 25 92q10 24 52 70q42 47 42 73zM1067 987q0 27 -10 60h137q2 -20 2 -46q0 -121 -78 -205t-282 -184l-109 -612h-113l2 98
q-90 -117 -249 -116q-125 0 -193 63t-68 178q0 76 23 207l107 598h153l-108 -606q-16 -98 -17 -146q0 -160 139 -159q102 0 161 81q58 81 91 267l101 563h153l-55 -307q113 59 163 121t50 145z" />
    <glyph glyph-name="uni1EEE" unicode="&#x1eee;" horiz-adv-x="1282" 
d="M727 1878q68 0 125 -66t84 -65q47 0 88 115h96q-43 -132 -84 -180q-40 -48 -112 -48t-126 66t-81 65q-51 1 -92 -114h-97q45 129 88 178t111 49zM1479 1438q0 -125 -90 -215q-43 -47 -97 -81t-174 -91l-106 -609q-26 -137 -50 -200t-75 -121q-127 -139 -349 -139
t-317 108q-70 78 -69 205q0 78 22 203l170 964h160l-174 -993q-18 -94 -19 -156q0 -199 221 -198q166 0 252 129q43 66 72 225l176 993h160l-55 -303q115 59 163 119t50 145q0 27 -11 60h136q4 -20 4 -45z" />
    <glyph glyph-name="uni1EEF" unicode="&#x1eef;" horiz-adv-x="1062" 
d="M532 1452q68 0 125 -66t84 -65q47 0 88 115h97q-43 -132 -83 -180t-114 -48t-126 66t-81 65q-51 1 -92 -114h-96q45 131 88 179q42 48 110 48zM1067 987q0 27 -10 60h137q2 -20 2 -46q0 -121 -78 -205t-282 -184l-109 -612h-113l2 98q-90 -117 -249 -116q-125 0 -193 63
t-68 178q0 76 23 207l107 598h153l-108 -606q-16 -98 -17 -146q0 -160 139 -159q102 0 161 81q58 81 91 267l101 563h153l-55 -307q113 59 163 121t50 145z" />
    <glyph glyph-name="uni1EF0" unicode="&#x1ef0;" horiz-adv-x="1282" 
d="M391 -395l37 209h150l-37 -209h-150zM1479 1438q0 -125 -90 -215q-43 -47 -97 -81t-174 -91l-106 -609q-26 -137 -50 -200t-75 -121q-127 -139 -349 -139t-317 108q-70 78 -69 205q0 78 22 203l170 964h160l-174 -993q-18 -94 -19 -156q0 -199 221 -198q166 0 252 129
q43 66 72 225l176 993h160l-55 -303q115 59 163 119t50 145q0 27 -11 60h136q4 -20 4 -45z" />
    <glyph glyph-name="uni1EF1" unicode="&#x1ef1;" horiz-adv-x="1062" 
d="M285 -395l39 209h147l-37 -209h-149zM1067 987q0 27 -10 60h137q2 -20 2 -46q0 -121 -78 -205t-282 -184l-109 -612h-113l2 98q-90 -117 -249 -116q-125 0 -193 63t-68 178q0 76 23 207l107 598h153l-108 -606q-16 -98 -17 -146q0 -160 139 -159q102 0 161 81
q58 81 91 267l101 563h153l-55 -307q113 59 163 121t50 145z" />
    <glyph glyph-name="Ygrave" unicode="&#x1ef2;" horiz-adv-x="935" 
d="M760 1618h-113l-147 289h168zM299 0l94 532l-225 930h164l170 -747l432 747h174l-555 -930l-94 -532h-160z" />
    <glyph glyph-name="ygrave" unicode="&#x1ef3;" horiz-adv-x="856" 
d="M643 1192h-113l-147 289h168zM264 -4l-133 1032h150l92 -844l364 844h160l-549 -1202q-86 -186 -164 -240t-254 -57l23 131q100 0 143 32t101 150z" />
    <glyph glyph-name="uni1EF4" unicode="&#x1ef4;" horiz-adv-x="935" 
d="M233 -395l37 209h148l-37 -209h-148zM299 0l94 532l-225 930h164l170 -747l432 747h174l-555 -930l-94 -532h-160z" />
    <glyph glyph-name="uni1EF5" unicode="&#x1ef5;" horiz-adv-x="856" 
d="M438 -395l37 209h148l-37 -209h-148zM264 -4l-133 1032h150l92 -844l364 844h160l-549 -1202q-86 -186 -164 -240t-254 -57l23 131q100 0 143 32t101 150z" />
    <glyph glyph-name="uni1EF6" unicode="&#x1ef6;" horiz-adv-x="935" 
d="M705 1831q1 39 -45 39t-111 -27l-12 94q80 31 145 31q156 0 156 -131q0 -39 -16 -65t-55 -65q-41 -39 -49 -55t-16 -57h-112q12 67 23 89t63 83q29 39 29 64zM299 0l94 532l-225 930h164l170 -747l432 747h174l-555 -930l-94 -532h-160z" />
    <glyph glyph-name="uni1EF7" unicode="&#x1ef7;" horiz-adv-x="856" 
d="M600 1413q0 39 -48 39t-112 -27l-12 97q80 29 147 28q156 0 156 -131q0 -39 -15 -65q-16 -26 -56 -64q-40 -39 -49 -56t-17 -56h-113q13 68 25 90t53 70q41 49 41 75zM264 -4l-133 1032h150l92 -844l364 844h160l-549 -1202q-86 -186 -164 -240t-254 -57l23 131
q100 0 143 32t101 150z" />
    <glyph glyph-name="uni1EF8" unicode="&#x1ef8;" horiz-adv-x="935" 
d="M570 1878q68 0 124 -66q57 -66 84 -65q47 0 88 115h99q-45 -132 -85 -180t-112 -48t-129 68q-33 41 -47 52t-33 11q-51 1 -92 -114h-96q47 129 89 178t110 49zM299 0l94 532l-225 930h164l170 -747l432 747h174l-555 -930l-94 -532h-160z" />
    <glyph glyph-name="uni1EF9" unicode="&#x1ef9;" horiz-adv-x="856" 
d="M463 1452q70 0 123 -66q57 -66 84 -65q47 0 88 115h98q-45 -132 -85 -180q-41 -48 -113 -48t-128 68q-33 41 -47 52t-32 11q-52 1 -93 -114h-96q45 131 88 179t113 48zM264 -4l-133 1032h150l92 -844l364 844h160l-549 -1202q-86 -186 -164 -240t-254 -57l23 131
q100 0 143 32t101 150z" />
    <glyph glyph-name="uni2002" unicode="&#x2002;" horiz-adv-x="1024" 
 />
    <glyph glyph-name="uni2003" unicode="&#x2003;" horiz-adv-x="2048" 
 />
    <glyph glyph-name="uni2004" unicode="&#x2004;" horiz-adv-x="681" 
 />
    <glyph glyph-name="uni2005" unicode="&#x2005;" horiz-adv-x="512" 
 />
    <glyph glyph-name="uni2006" unicode="&#x2006;" horiz-adv-x="342" 
 />
    <glyph glyph-name="uni2007" unicode="&#x2007;" 
 />
    <glyph glyph-name="uni2008" unicode="&#x2008;" horiz-adv-x="0" 
 />
    <glyph glyph-name="uni2009" unicode="&#x2009;" horiz-adv-x="409" 
 />
    <glyph glyph-name="uni200A" unicode="&#x200a;" horiz-adv-x="256" 
 />
    <glyph glyph-name="uni2011" unicode="&#x2011;" horiz-adv-x="811" 
d="M190 678l25 135h490l-25 -135h-490z" />
    <glyph glyph-name="figuredash" unicode="&#x2012;" 
d="M174 678l25 135h696l-23 -135h-698z" />
    <glyph glyph-name="endash" unicode="&#x2013;" 
d="M174 678l25 135h696l-23 -135h-698z" />
    <glyph glyph-name="emdash" unicode="&#x2014;" 
d="M63 678l25 135h920l-25 -135h-920z" />
    <glyph glyph-name="afii00208" unicode="&#x2015;" 
d="M63 678l25 135h920l-25 -135h-920z" />
    <glyph glyph-name="underscoredbl" unicode="&#x2017;" horiz-adv-x="806" 
d="M-178 -262l16 94h893l-18 -94h-891zM-209 -434l16 94h893l-16 -94h-893z" />
    <glyph glyph-name="quoteleft" unicode="&#x2018;" horiz-adv-x="329" 
d="M444 1462l-145 -483h-162l180 483h127z" />
    <glyph glyph-name="quoteright" unicode="&#x2019;" horiz-adv-x="329" 
d="M137 979l146 483h161l-180 -483h-127z" />
    <glyph glyph-name="quotesinglbase" unicode="&#x201a;" horiz-adv-x="329" 
d="M-88 -287l145 484h162l-180 -484h-127z" />
    <glyph glyph-name="quotedblleft" unicode="&#x201c;" horiz-adv-x="651" 
d="M444 1462l-145 -483h-162l180 483h127zM766 1462l-148 -483h-159l180 483h127z" />
    <glyph glyph-name="quotedblright" unicode="&#x201d;" horiz-adv-x="651" 
d="M459 979l145 483h162l-180 -483h-127zM137 979l146 483h161l-180 -483h-127z" />
    <glyph glyph-name="quotedblbase" unicode="&#x201e;" horiz-adv-x="651" 
d="M233 -287l146 484h162l-181 -484h-127zM-88 -287l145 484h162l-180 -484h-127z" />
    <glyph glyph-name="dagger" unicode="&#x2020;" 
d="M479 870h-299l23 134h299l82 458h155l-80 -458h299l-24 -134h-299l-211 -1194h-156z" />
    <glyph glyph-name="daggerdbl" unicode="&#x2021;" 
d="M479 870h-299l25 134h299l80 458h155l-80 -458h299l-24 -134h-299l-57 -329h276l-25 -133h-276l-127 -732h-158l129 732h-276l22 133h279z" />
    <glyph glyph-name="bullet" unicode="&#x2022;" 
d="M493 1075q146 0 244 -95q99 -96 99 -238t-98 -237t-246 -95t-245 95t-97 237t98 238q99 95 245 95z" />
    <glyph glyph-name="ellipsis" unicode="&#x2026;" horiz-adv-x="1462" 
d="M1049 0l34 199h160l-35 -199h-159zM561 0l35 199h160l-35 -199h-160zM74 0l35 199h159l-35 -199h-159z" />
    <glyph glyph-name="perthousand" unicode="&#x2030;" horiz-adv-x="2197" 
d="M420 0l643 1462h143l-643 -1462h-143zM1997 563q0 115 -113 115q-70 0 -108 -46t-58 -157l-32 -184q-10 -59 -11 -86q0 -117 113 -117q70 0 108 46t58 157l31 176q12 72 12 96zM2134 580q0 -41 -12 -111l-35 -193q-27 -156 -99 -224t-204 -68q-244 0 -244 202
q0 33 14 125l33 191q29 152 97 216t204 64q246 0 246 -202zM1343 563q0 115 -112 115q-72 0 -109 -46t-55 -157l-33 -184q-10 -49 -10 -86q0 -117 113 -117q69 0 107 47t56 156l31 176q12 57 12 96zM1481 580q0 -37 -13 -111l-34 -193q-29 -158 -99 -226t-202 -66
q-244 0 -244 202q0 47 14 125l33 191q26 150 96 216t203 64q246 0 246 -202zM600 1260q0 117 -113 116q-71 0 -107 -46t-56 -156l-33 -185q-10 -59 -10 -86q0 -117 112 -117q70 0 108 47t58 156l31 174q10 68 10 97zM492 1481q246 0 245 -203q0 -45 -12 -111l-33 -192
q-28 -149 -98 -221t-205 -72q-244 0 -244 205q1 49 15 123l33 188q27 152 97 218t202 65z" />
    <glyph glyph-name="guilsinglleft" unicode="&#x2039;" horiz-adv-x="434" 
d="M244 592l106 -254l-104 -55l-170 321l282 322l82 -78z" />
    <glyph glyph-name="guilsinglright" unicode="&#x203a;" horiz-adv-x="434" 
d="M225 614l-106 258l104 54l170 -322l-282 -321l-82 77z" />
    <glyph glyph-name="uni203E" unicode="&#x203e;" horiz-adv-x="806" 
d="M160 1661l20 115h891l-18 -115h-893z" />
    <glyph glyph-name="fraction" unicode="&#x2044;" horiz-adv-x="284" 
d="M-199 0l643 1462h146l-645 -1462h-144z" />
    <glyph glyph-name="zerosuperior" unicode="&#x2070;" horiz-adv-x="651" 
d="M612 1468q0 109 -100 109q-66 0 -102 -49t-56 -158l-51 -283q-12 -70 -12 -96q0 -109 100 -108q125 -1 160 204l49 283q12 63 12 98zM737 1477q0 -59 -12 -117l-51 -293q-26 -151 -94 -219t-193 -68q-221 0 -221 201q0 37 12 117l51 293q29 151 96 219t191 67
q221 0 221 -200z" />
    <glyph glyph-name="foursuperior" unicode="&#x2074;" horiz-adv-x="647" 
d="M446 791l29 163h-340l15 78l372 635h131l-358 -608h197l38 217h113l-37 -217h80l-18 -107h-80l-29 -161h-113z" />
    <glyph glyph-name="fivesuperior" unicode="&#x2075;" horiz-adv-x="628" 
d="M672 1159q0 -377 -303 -379q-109 0 -167 45t-59 129q0 29 4 54l121 12q-2 -14 -2 -29q0 -109 105 -108q78 1 124 69t46 180t-95 111q-72 0 -133 -57l-92 18l119 463h403l-18 -104h-295l-65 -246q59 25 112 24q95 0 145 -47t50 -135z" />
    <glyph glyph-name="sixsuperior" unicode="&#x2076;" horiz-adv-x="647" 
d="M457 1243q-82 0 -123 -72q-45 -86 -45 -190q-1 -47 25 -74t73 -26q82 0 123 71q43 86 43 191q1 47 -25 73t-71 27zM383 780q-219 0 -219 197q0 101 32 177t87 155l254 358h147l-240 -336q35 8 62 8q80 0 127 -47t47 -123q0 -75 -20 -157t-50 -127q-66 -104 -227 -105z
" />
    <glyph glyph-name="sevensuperior" unicode="&#x2077;" horiz-adv-x="548" 
d="M135 791l391 770h-319l18 106h457l-14 -78l-387 -798h-146z" />
    <glyph glyph-name="eightsuperior" unicode="&#x2078;" horiz-adv-x="647" 
d="M446 1200q-90 0 -127 -59q-43 -63 -43 -168q0 -94 111 -94q90 0 127 59q43 61 43 166q0 96 -111 96zM521 1583q-91 0 -125 -60q-34 -59 -34 -145t90 -86t126 58q35 66 34 147q0 86 -91 86zM152 956q0 230 145 301q-51 45 -51 119q0 129 57 211q61 92 217 92
q209 0 209 -166q0 -186 -115 -260q70 -43 70 -137q0 -158 -70 -248t-231 -90q-231 0 -231 178z" />
    <glyph glyph-name="ninesuperior" unicode="&#x2079;" horiz-adv-x="647" 
d="M514 1577q-86 0 -124 -69t-38 -169q0 -94 99 -94q81 0 121 69t40 169q0 94 -98 94zM403 1151q-84 0 -131 44t-47 118q-1 75 19 151t49 117q68 96 225 96q221 0 221 -176q0 -100 -39 -205q-16 -39 -63 -108l-277 -397h-147l256 368q-39 -8 -66 -8z" />
    <glyph glyph-name="zeroinferior" unicode="&#x2080;" horiz-adv-x="651" 
d="M436 471q0 109 -100 109q-64 0 -102 -48t-56 -157l-51 -283q-12 -70 -12 -96q0 -111 100 -111q63 0 101 49t59 158l49 283q12 72 12 96zM340 682q221 0 221 -201q0 -55 -12 -116l-51 -293q-27 -152 -95 -220t-192 -67q-221 0 -221 201q0 38 12 116l51 293q29 151 95 219
t192 68z" />
    <glyph glyph-name="oneinferior" unicode="&#x2081;" horiz-adv-x="526" 
d="M92 -205l131 746l-141 -60l-33 94l236 97h90l-156 -877h-127z" />
    <glyph glyph-name="twoinferior" unicode="&#x2082;" horiz-adv-x="628" 
d="M410 485q0 94 -93 95q-104 0 -149 -146l-117 8q33 124 99 182t178 58q213 0 213 -186q1 -104 -45 -181t-179 -219l-188 -196h307l-18 -105h-477l14 84l283 303q172 180 172 303z" />
    <glyph glyph-name="threeinferior" unicode="&#x2083;" horiz-adv-x="628" 
d="M242 303q74 0 122 49t48 125q0 102 -99 103q-100 0 -141 -125l-117 8q55 219 271 219t215 -188q0 -166 -135 -236q84 -57 84 -173t-62 -202q-74 -98 -233 -98q-115 0 -177 44q-61 44 -61 126q0 29 4 57l121 13q-2 -14 -2 -29q0 -109 115 -109q75 -1 121 53t46 140
q0 129 -135 129h-82l17 94h80z" />
    <glyph glyph-name="fourinferior" unicode="&#x2084;" horiz-adv-x="647" 
d="M272 -205l29 164h-340l14 78l373 635h131l-358 -609h196l39 218h113l-37 -218h80l-18 -106h-80l-29 -162h-113z" />
    <glyph glyph-name="fiveinferior" unicode="&#x2085;" horiz-adv-x="628" 
d="M195 -215q-225 0 -226 176q0 29 4 51l121 13q-2 -14 -2 -29q0 -109 105 -109q78 0 124 69t46 179t-95 111q-72 0 -133 -56l-92 19l119 463h403l-18 -105h-295l-66 -245q55 22 131 22t126 -46q85 -78 31 -293q-19 -79 -50 -120q-76 -100 -233 -100z" />
    <glyph glyph-name="sixinferior" unicode="&#x2086;" horiz-adv-x="647" 
d="M283 248q-82 0 -123 -72q-45 -86 -45 -188t98 -103q82 0 123 72q43 83 43 187t-96 104zM332 344q80 0 127 -47t47 -124t-20 -158t-50 -126q-68 -104 -227 -104q-106 0 -163 48q-56 47 -56 153t45 202q18 47 74 125l253 359h148l-240 -336q39 8 62 8z" />
    <glyph glyph-name="seveninferior" unicode="&#x2087;" horiz-adv-x="548" 
d="M-39 -205l391 770h-319l18 107h457l-14 -78l-388 -799h-145z" />
    <glyph glyph-name="eightinferior" unicode="&#x2088;" horiz-adv-x="647" 
d="M270 205q-170 0 -170 -228q0 -94 111 -94q170 0 170 228q0 94 -111 94zM436 504q0 84 -91 84t-124 -62q-35 -59 -35 -144t90 -85t125 57q35 66 35 150zM70 381q0 129 57 211q61 92 217 92q209 0 209 -168q0 -184 -115 -258q70 -45 70 -137q0 -158 -70 -248t-231 -90
q-231 0 -232 178q0 230 146 299q-51 45 -51 121z" />
    <glyph glyph-name="nineinferior" unicode="&#x2089;" horiz-adv-x="647" 
d="M338 582q-86 0 -124 -69t-38 -166t98 -97q82 0 121 65q41 75 41 171t-98 96zM227 156q-84 0 -131 44t-47 118q-1 74 19 150t49 118q68 96 225 96q221 0 221 -178q0 -98 -39 -203q-16 -39 -63 -108l-277 -398h-147l256 369q-39 -8 -66 -8z" />
    <glyph glyph-name="franc" unicode="&#x20a3;" horiz-adv-x="1327" 
d="M1192 786q-94 0 -154 -99t-98 -316l-66 -371h-149l158 895h116l-4 -123q55 78 109 110t129 32q76 0 149 -48l-86 -127q-53 47 -104 47zM70 0l258 1462h614l-22 -135h-459l-94 -530h374l-24 -135h-375l-117 -662h-155z" />
    <glyph glyph-name="lira" unicode="&#x20a4;" horiz-adv-x="983" 
d="M240 1012q0 219 113 344q114 125 313 125q336 0 335 -340l-2 -49l-145 -25v47q0 121 -46 178q-46 58 -154 58t-181 -92q-74 -92 -74 -236q0 -72 29 -166h348l-16 -98h-303q14 -70 18 -142h260l-18 -98h-254q-16 -225 -197 -383h586l-25 -135h-809l21 117q106 41 185 157
t87 244h-213l17 98h196q-6 66 -28 142h-144l19 98h98q-16 92 -16 156z" />
    <glyph glyph-name="peseta" unicode="&#x20a7;" 
d="M420 965l-49 -279h131q240 -8 311 279h-393zM616 1333h-131l-49 -270h393q4 53 5 61q0 111 -52 160t-166 49zM612 1462q219 0 298 -90t79 -242q0 -35 -4 -67h127l-16 -98h-125q-47 -215 -163 -313t-312 -95h-146l-98 -557h-156l170 965h-160l19 98h158l71 399h258z" />
    <glyph glyph-name="uni20AB" unicode="&#x20ab;" horiz-adv-x="983" 
d="M215 291q0 -178 158 -178q203 0 260 319l29 164q14 84 14 131q0 190 -170 191q-191 0 -242 -291l-37 -211q-12 -59 -12 -125zM346 -18q-287 0 -287 282q0 72 19 172l37 217q37 205 126 299t246 95q89 1 139 -19t99 -74l39 220h-260l20 112h258l33 176h152l-31 -176h135
l-18 -112h-138l-206 -1174h-119l4 84q-102 -102 -248 -102zM-55 -356l20 114h762l-20 -114h-762z" />
    <glyph glyph-name="Euro" unicode="&#x20ac;" horiz-adv-x="983" 
d="M698 1479q158 0 244 -76t86 -215q0 -37 -8 -94l-150 -7q4 33 4 68q0 92 -46 141t-132 50q-126 0 -196 -94t-107 -302l-18 -96h495l-53 -98h-459l-26 -154h401l-53 -98h-365q-18 -113 -18 -180q0 -211 190 -211q215 0 273 235l145 -10q-37 -174 -147 -266t-281 -92
q-340 0 -340 337q0 76 19 187h-160l55 98h121l27 154h-158l53 98h121l23 125q27 145 58 227q32 82 87 142q117 131 315 131z" />
    <glyph glyph-name="uni20B4" unicode="&#x20b4;" horiz-adv-x="983" 
d="M811 1174q0 178 -170 178q-147 0 -221 -152l-131 35q106 246 362 246q150 0 230 -81t80 -231q0 -207 -138 -333l142 -45l-43 -95l-187 62q-59 -39 -225 -94l-23 -7l-10 -6l379 -121l-43 -94l-467 148q-119 -98 -119 -286t203 -187q203 0 275 165l131 -28
q-100 -266 -420 -266q-338 0 -338 311q0 203 119 340l-127 39l43 96l172 -55q29 18 129 55t127 51l-363 115l43 94l447 -141q143 109 143 287z" />
    <glyph glyph-name="uni2101" unicode="&#x2101;" horiz-adv-x="1519" 
d="M1114 94q80 0 131 49t51 109t-30 90q-20 18 -121 51q-182 57 -182 209q0 129 79 207q80 78 211 78q180 0 234 -121l-113 -61q-31 78 -127 77q-67 0 -109 -46t-42 -102t32 -86t126 -60q92 -30 132 -73q40 -44 41 -128q0 -139 -84 -218t-229 -79q-213 0 -268 139l115 61
q31 -96 153 -96zM539 860l-58 434l-211 -434h269zM702 616l371 846h129l-643 -1462h-129l258 586h-115l-22 180h-326l-88 -180h-137l455 876h106z" />
    <glyph glyph-name="afii61248" unicode="&#x2105;" horiz-adv-x="1576" 
d="M426 0l643 1462h129l-643 -1462h-129zM1358 330l26 145q8 53 9 96q0 143 -144 144q-178 0 -217 -234l-26 -151q-10 -57 -11 -92q0 -141 144 -142q180 1 219 234zM1253 823q266 0 267 -237q0 -59 -11 -121l-28 -160q-29 -165 -113 -241t-233 -76q-266 0 -267 237
q1 51 13 119l28 162q29 164 112 240t232 77zM391 639q-123 1 -187 65t-65 185q0 55 13 129l18 104q33 180 115 266t223 87q180 0 240 -142l-109 -53q-39 88 -129 88t-141 -66t-76 -204l-17 -97q-12 -57 -12 -106q0 -150 137 -150q104 1 172 89l91 -64q-104 -131 -273 -131z
" />
    <glyph glyph-name="afii61289" unicode="&#x2113;" horiz-adv-x="925" 
d="M700 1286q0 45 -15 72t-40 26q-63 0 -107 -140t-96 -519q258 314 258 561zM120 315q-12 -1 -22 17t-10 40t41 62q74 68 147 158q70 510 149 708t212 197q72 0 117 -55t45 -144q0 -205 -146 -436q-80 -123 -225 -278q-49 -324 -49 -413t55 -89q34 0 56 22t53 84t57 62
q33 0 33 -39q0 -76 -71 -160t-161 -84q-156 0 -155 217q0 91 18 267q-43 -53 -88 -95t-56 -41z" />
    <glyph glyph-name="afii61352" unicode="&#x2116;" horiz-adv-x="1984" 
d="M1159 0l23 127h630l-22 -127h-631zM1790 909q0 145 -135 146q-84 1 -133 -61t-72 -193l-20 -109q-8 -53 -9 -104q0 -147 133 -148q84 0 134 60t73 192l21 109q8 49 8 108zM1659 1182q283 0 283 -256q0 -63 -15 -140l-20 -122q-33 -182 -118 -266t-237 -85
q-283 0 -282 258q0 58 14 138l21 120q33 182 117 268q85 85 237 85zM82 0l258 1462h156l374 -1157l205 1157h154l-258 -1462h-152l-379 1159l-204 -1159h-154z" />
    <glyph glyph-name="trademark" unicode="&#x2122;" horiz-adv-x="1501" 
d="M698 586l154 876h119l133 -540l323 540h121l-153 -876h-121l108 616l-262 -442h-86l-106 442l-109 -616h-121zM254 586l137 768h-223l18 108h570l-19 -108h-219l-137 -768h-127z" />
    <glyph glyph-name="uni2126" unicode="&#x2126;" horiz-adv-x="1157" 
d="M708 1481q200 0 302 -89q100 -89 100 -257q0 -63 -18 -183l-56 -313q-55 -367 -309 -461l-10 -59h248l-21 -119h-375l47 270q211 51 267 402l51 289q16 106 16 163q0 106 -61 164t-172 60q-152 0 -240 -119q-63 -86 -96 -268l-51 -289q-20 -119 -21 -176q0 -184 146 -226
l-47 -270h-375l20 119h248l12 67q-162 86 -161 299q0 84 22 203l55 313q25 135 58 212t92 139q129 129 329 129z" />
    <glyph glyph-name="estimated" unicode="&#x212e;" horiz-adv-x="1030" 
d="M778 762v246q-61 268 -256 268q-94 0 -150 -60t-102 -206v-248h508zM940 662h-670v-285q38 -157 96 -221t160 -64q197 0 271 258h110q-35 -143 -84 -213q-111 -157 -307 -157t-310 183t-114 513t117 521t315 192q128 0 226 -86q98 -87 144 -233t46 -408z" />
    <glyph glyph-name="onethird" unicode="&#x2153;" horiz-adv-x="1562" 
d="M358 0l643 1462h144l-643 -1462h-144zM1147 508q72 0 120 49t48 125q0 102 -99 102t-139 -125l-116 9q53 219 268 219t215 -189q0 -166 -135 -235q84 -55 84 -172t-68 -209t-227 -92q-236 0 -236 172q0 27 2 55l121 12v-28q0 -109 115 -109q74 0 120 53t46 140
q0 129 -136 129h-79l16 94h80zM287 586l131 745l-142 -59l-32 94l235 96h90l-155 -876h-127z" />
    <glyph glyph-name="twothirds" unicode="&#x2154;" horiz-adv-x="1544" 
d="M420 0l643 1462h143l-643 -1462h-143zM1196 508q72 0 120 49t48 125q0 102 -99 102t-139 -125l-116 9q55 219 269 219t214 -189q0 -168 -135 -235q84 -55 84 -172t-68 -209t-225 -92q-238 0 -238 172q0 25 2 55l121 12v-26q0 -111 115 -111q74 0 120 53t46 142
q0 127 -135 127h-80l16 94h80zM553 1276q0 94 -92 94q-104 0 -150 -145l-116 8q33 125 98 182q66 57 178 58q213 0 213 -187q0 -104 -55 -199q-39 -63 -168 -200l-189 -197h308l-19 -104h-477l14 84l283 303q172 180 172 303z" />
    <glyph glyph-name="uni2155" unicode="&#x2155;" horiz-adv-x="1562" 
d="M344 0l645 1462h144l-644 -1462h-145zM1389 369q0 -379 -304 -379q-227 0 -227 174q0 4 4 53l121 12q-2 -12 -2 -26q0 -111 106 -111q78 0 124 69t46 180t-96 112q-72 0 -133 -58l-92 19l119 463h405l-18 -105h-297l-64 -246q59 25 111 25q197 0 197 -182zM283 586
l131 745l-142 -59l-32 94l235 96h90l-155 -876h-127z" />
    <glyph glyph-name="uni2156" unicode="&#x2156;" horiz-adv-x="1544" 
d="M420 0l643 1462h143l-643 -1462h-143zM1438 371q0 -381 -303 -381q-227 0 -228 174q0 4 4 53l121 12q-2 -12 -2 -26q0 -111 107 -111q78 0 124 69t46 180t-95 112q-76 0 -133 -58l-92 19l117 463h405l-18 -105h-295l-66 -246q59 25 133 25q75 0 125 -46t50 -134z
M549 1276q0 94 -92 94q-104 0 -150 -145l-117 8q33 125 99 182t178 58q213 0 213 -187q0 -104 -55 -199q-39 -63 -168 -200l-189 -197h307l-18 -104h-477l14 84l283 303q172 180 172 303z" />
    <glyph glyph-name="uni2157" unicode="&#x2157;" horiz-adv-x="1544" 
d="M422 0l645 1462h143l-645 -1462h-143zM1135 -10q-227 0 -228 174q0 27 4 53l121 12q-2 -14 -2 -26q0 -111 105 -111q77 0 123 69t46 180t-94 112q-72 0 -133 -58l-92 19l119 463h403l-18 -105h-295l-66 -246q59 25 133 25t124 -46t51 -134q0 -381 -301 -381zM383 1094
q74 0 122 49t48 125q0 102 -99 102t-141 -125l-116 8q55 219 270 219t215 -188q0 -166 -135 -235q84 -57 84 -173t-68 -208t-227 -93q-115 1 -176 45t-62 128q0 29 4 55l121 12q-2 -14 -2 -29q0 -109 115 -108q76 0 122 53t46 139q0 129 -135 129h-82l16 95h80z" />
    <glyph glyph-name="uni2158" unicode="&#x2158;" horiz-adv-x="1562" 
d="M428 0l645 1462h144l-644 -1462h-145zM1440 371q0 -381 -301 -381q-227 0 -228 174q0 27 4 53l121 12q-2 -14 -2 -26q0 -111 105 -111q78 0 124 69t46 180t-95 112q-72 0 -133 -58l-92 19l119 463h403l-18 -105h-295l-65 -246q59 25 133 25t124 -46t50 -134zM412 586
l28 164h-340l15 77l372 635h131l-358 -608h197l39 217h112l-37 -217h80l-18 -106h-80l-29 -162h-112z" />
    <glyph glyph-name="uni2159" unicode="&#x2159;" horiz-adv-x="1581" 
d="M371 0l645 1462h143l-645 -1462h-143zM1155 453q-82 0 -123 -72q-45 -86 -45 -193q0 -46 27 -72t71 -26q86 0 123 72q43 86 43 188t-96 103zM1204 549q80 0 127 -47t47 -123t-20 -158t-49 -127q-68 -104 -228 -104q-219 0 -219 196q0 100 43 207q20 45 76 125l254 359
h147l-239 -336q35 8 61 8zM297 586l131 745l-141 -59l-33 94l235 96h91l-156 -876h-127z" />
    <glyph glyph-name="uni215A" unicode="&#x215a;" horiz-adv-x="1562" 
d="M455 0l643 1462h143l-643 -1462h-143zM1212 453q-82 0 -122 -72q-45 -86 -46 -193q0 -46 27 -72t72 -26q86 0 123 72q42 86 42 188t-96 103zM1139 -10q-219 0 -219 198q0 102 45 205q18 45 73 125l254 359h148l-240 -336q39 8 62 8q80 0 127 -47t47 -123t-20 -158
t-50 -127q-66 -104 -227 -104zM479 1137q74 0 124 -47q50 -48 50 -130t-20 -162t-49 -120q-74 -102 -234 -103q-225 0 -225 177q0 29 4 51l121 12q-2 -14 -2 -27q0 -111 104 -110q78 0 124 68t46 180t-94 112q-76 0 -133 -57l-92 18l119 463h403l-18 -104h-295l-66 -246
q59 25 133 25z" />
    <glyph glyph-name="oneeighth" unicode="&#x215b;" horiz-adv-x="1581" 
d="M332 0l645 1462h143l-643 -1462h-145zM1147 410q-90 0 -127 -60q-43 -63 -43 -168q0 -94 110 -94q88 0 125 59q43 61 43 166q1 97 -108 97zM1313 709q0 84 -91 84t-124 -62q-35 -59 -35 -144t90 -85t125 57q35 66 35 150zM852 166q0 230 145 299q-51 45 -51 119
q0 127 60 216t215 89q209 0 209 -166q0 -186 -115 -260q68 -45 67 -137q0 -158 -68 -248t-231 -90q-231 0 -231 178zM287 586l131 745l-142 -59l-32 94l235 96h90l-155 -876h-127z" />
    <glyph glyph-name="threeeighths" unicode="&#x215c;" horiz-adv-x="1562" 
d="M412 0l645 1462h143l-643 -1462h-145zM1192 410q-90 0 -127 -60q-43 -63 -43 -168q0 -94 111 -94q90 0 130 62t40 162q0 98 -111 98zM1358 709q0 84 -91 84t-124 -62q-35 -59 -35 -144t90 -85t125 57q35 66 35 150zM897 166q0 228 145 299q-51 45 -51 121q0 129 58 211
q61 92 217 92q209 0 209 -166q0 -186 -115 -260q70 -45 70 -137q0 -158 -70 -248t-232 -90q-231 0 -231 178zM387 1094q74 0 122 49t48 125q0 102 -99 102t-141 -125l-116 8q55 219 270 219t215 -188q0 -166 -135 -235q84 -57 84 -173t-68 -208t-227 -93q-115 1 -176 45
t-62 128q0 29 4 55l121 12q-2 -14 -2 -29q0 -109 115 -108q76 0 122 53t46 139q0 129 -135 129h-82l16 95h80z" />
    <glyph glyph-name="fiveeighths" unicode="&#x215d;" horiz-adv-x="1562" 
d="M412 0l643 1462h143l-643 -1462h-143zM1303 309q-1 101 -101 101t-140 -64t-40 -164q0 -94 111 -94q90 0 127 59q43 61 43 162zM1358 709q0 84 -91 84t-124 -62q-35 -59 -35 -144t90 -85t125 57q35 66 35 150zM897 166q0 228 145 299q-51 45 -51 121q0 129 58 211
q61 92 217 92q209 0 209 -166q0 -186 -115 -260q70 -45 70 -137q0 -158 -70 -248t-232 -90q-231 0 -231 178zM469 1137q74 0 124 -47q50 -48 50 -130t-20 -162t-50 -120q-74 -102 -233 -103q-225 0 -225 177q0 29 4 51l121 12q-2 -14 -2 -27q0 -111 104 -110q78 0 124 68
t46 180t-94 112q-76 0 -133 -57l-92 18l118 463h404l-19 -104h-295l-65 -246q59 25 133 25z" />
    <glyph glyph-name="seveneighths" unicode="&#x215e;" horiz-adv-x="1581" 
d="M346 0l643 1462h146l-646 -1462h-143zM1161 410q-90 0 -127 -60q-43 -63 -43 -168q0 -94 111 -94q90 0 127 59q43 61 43 168q0 95 -111 95zM1329 709q0 84 -91 84t-124 -62q-35 -59 -35 -144q1 -85 91 -85t124 57q35 66 35 150zM963 586q0 125 60 214t214 89
q209 0 209 -166q0 -186 -117 -260q70 -45 70 -137q0 -158 -69 -248t-232 -90q-231 0 -232 178q0 229 148 299q-51 45 -51 121zM166 586l405 770h-327l18 106h465l-14 -78l-402 -798h-145z" />
    <glyph glyph-name="arrowleft" unicode="&#x2190;" horiz-adv-x="1638" 
d="M1499 678h-1180l383 -383l-96 -96l-506 518v57l506 518l96 -96l-385 -383h1182v-135z" />
    <glyph glyph-name="arrowup" unicode="&#x2191;" horiz-adv-x="1638" 
d="M715 0v1255l-383 -383l-94 97l516 508h59l518 -508l-96 -97l-383 383v-1255h-137z" />
    <glyph glyph-name="arrowright" unicode="&#x2192;" horiz-adv-x="1638" 
d="M139 678v135h1182l-385 383l96 96l506 -518v-57l-506 -518l-96 96l385 383h-1182z" />
    <glyph glyph-name="arrowdown" unicode="&#x2193;" horiz-adv-x="1638" 
d="M715 1462h137v-1255l383 383l96 -96l-518 -508h-59l-516 508l94 96l383 -383v1255z" />
    <glyph glyph-name="arrowboth" unicode="&#x2194;" horiz-adv-x="1638" 
d="M1348 678h-1055l350 -350l-94 -97l-475 486v57l475 486l94 -97l-350 -350h1055l-351 350l95 97l475 -486v-57l-475 -486l-95 97z" />
    <glyph glyph-name="arrowupdn" unicode="&#x2195;" horiz-adv-x="1638" 
d="M717 180v1102l-350 -350l-97 96l486 475h57l485 -475l-96 -96l-350 350v-1102l350 350l96 -96l-485 -475h-57l-486 475l97 96z" />
    <glyph glyph-name="uni2196" unicode="&#x2196;" horiz-adv-x="1638" 
d="M434 504h-135v723l51 51h723v-135h-545l846 -846l-94 -94l-846 844v-543z" />
    <glyph glyph-name="uni2197" unicode="&#x2197;" horiz-adv-x="1638" 
d="M565 1143v135h723l51 -51v-723h-135v543l-846 -844l-94 94l844 846h-543z" />
    <glyph glyph-name="uni2198" unicode="&#x2198;" horiz-adv-x="1638" 
d="M1204 983h135v-723l-51 -51h-723v135h545l-846 844l94 98l846 -846v543z" />
    <glyph glyph-name="uni2199" unicode="&#x2199;" horiz-adv-x="1638" 
d="M1073 344v-135h-723l-51 51v723h135v-543l846 846l94 -98l-846 -844h545z" />
    <glyph glyph-name="partialdiff" unicode="&#x2202;" 
d="M731 733q0 174 -168 174q-109 -1 -170 -71t-90 -228l-37 -205q-12 -61 -12 -122q0 -174 168 -175q109 0 170 70t90 227l37 205q12 68 12 125zM547 1030q113 0 178 -57q-25 176 -98 270q-74 94 -211 127l37 105q219 -35 321 -189q113 -162 113 -452q0 -123 -23 -242
l-35 -205q-39 -215 -135 -310t-274 -95q-317 0 -318 276q1 72 17 154l37 217q37 207 131 304t260 97z" />
    <glyph glyph-name="emptyset" unicode="&#x2205;" 
d="M789 756q0 164 -113 278l-281 -622q55 -16 97 -17q131 1 214 99t83 262zM475 1106q-129 0 -212 -99t-83 -268t127 -284l285 628q-61 23 -117 23zM903 752q0 -205 -116 -333t-300 -128q-68 0 -135 22l-172 -383l-90 35l174 385q-199 131 -198 402q0 202 116 330t293 128
q72 1 160 -26l153 342l91 -35l-158 -350q182 -129 182 -389z" />
    <glyph glyph-name="Delta" unicode="&#x2206;" 
d="M741 131l-114 1102l-504 -1102h618zM930 0h-1047l711 1462h137z" />
    <glyph glyph-name="product" unicode="&#x220f;" horiz-adv-x="1069" 
d="M-27 -424l332 1886h793l-332 -1886h-156l310 1747h-484l-307 -1747h-156z" />
    <glyph glyph-name="summation" unicode="&#x2211;" horiz-adv-x="1028" 
d="M-35 -424l19 100l516 904l-203 780l18 102h787l-25 -135h-602l197 -749l-486 -867h627l-25 -135h-823z" />
    <glyph glyph-name="minus" unicode="&#x2212;" 
d="M117 682l22 127h813l-22 -127h-813z" />
    <glyph glyph-name="uni2215" unicode="&#x2215;" horiz-adv-x="284" 
d="M-199 0l643 1462h146l-645 -1462h-144z" />
    <glyph glyph-name="uni2218" unicode="&#x2218;" 
d="M496 993q-109 1 -183 -71q-73 -72 -73 -180t72 -180t183 -70q111 0 183 72t72 178q0 107 -72 179t-182 72zM496 1083q150 0 250 -97q100 -96 100 -242t-100 -244t-252 -98q-150 0 -250 98t-100 243t100 243q102 98 252 97z" />
    <glyph glyph-name="uni2219" unicode="&#x2219;" horiz-adv-x="485" 
d="M186 645l35 197h160l-35 -197h-160z" />
    <glyph glyph-name="radical" unicode="&#x221a;" 
d="M283 0l-72 612h-131l22 133h242l43 -540l619 1571h450l-18 -115h-324l-672 -1661h-159z" />
    <glyph glyph-name="infinity" unicode="&#x221e;" horiz-adv-x="1372" 
d="M989 551q68 0 116 54t48 140q0 87 -48 141t-124 54q-117 0 -221 -174l-12 -21l14 -22q57 -94 108 -133t119 -39zM391 940q-76 0 -123 -54t-47 -140t47 -141q48 -54 116 -54t118 38q49 38 110 134l13 22l-13 21q-100 174 -221 174zM96 745q0 141 77 225t209 85
q132 0 224 -94q18 -18 80 -115q10 14 32 48t38 57q18 22 53 46q79 57 197 57t195 -83t77 -225t-77 -226t-210 -84t-225 94q-14 15 -80 115q-46 -92 -121 -151q-79 -58 -197 -58t-195 84t-77 225z" />
    <glyph glyph-name="integral" unicode="&#x222b;" horiz-adv-x="917" 
d="M317 -84q72 0 95 70q14 45 14 178v1050q0 203 31 283q47 123 196 123q61 0 125 -18l-26 -125q-41 16 -70 16q-68 0 -92 -70q-12 -41 -12 -172v-1056q0 -199 -33 -283q-47 -123 -197 -123q-51 0 -125 18l27 125q37 -16 67 -16z" />
    <glyph glyph-name="similar" unicode="&#x223c;" 
d="M700 729q78 0 150 141l90 -28q-58 -125 -118 -179t-144 -55q-45 0 -79 16t-90 65q-56 47 -80 61t-54 14q-84 -1 -156 -148l-92 23q105 243 245 245q66 0 102 -16t92 -64t80 -62t54 -13z" />
    <glyph glyph-name="uni2243" unicode="&#x2243;" 
d="M418 1044q86 0 178 -81q53 -47 79 -61q27 -14 61 -15q70 0 145 141l88 -27q-55 -127 -115 -181t-145 -54q-45 0 -79 16t-91 66t-80 62q-23 13 -56 14q-81 -1 -153 -148l-94 23q53 129 115 187q61 58 147 58zM117 535l20 124h766l-22 -124h-764z" />
    <glyph glyph-name="approxequal" unicode="&#x2248;" 
d="M420 1044q84 0 176 -81q51 -47 78 -61q26 -14 62 -15q36 0 69 31t76 110l90 -27q-57 -127 -117 -181t-145 -54q-47 0 -81 16t-90 66t-79 62q-23 13 -53 14q-84 -1 -156 -148l-94 23q53 129 116 187q64 58 148 58zM362 727q48 0 86 -17q38 -16 92 -64t78 -62t56 -15
q78 0 149 142l90 -29q-55 -125 -116 -179t-146 -54q-45 0 -79 16t-90 65q-56 48 -80 62t-54 14q-81 1 -155 -149l-93 22q54 131 116 189t146 59z" />
    <glyph glyph-name="notequal" unicode="&#x2260;" 
d="M117 535l20 124h281l100 172h-348l20 123h400l141 250l109 -47l-113 -203h227l-20 -123h-279l-102 -172h350l-22 -124h-400l-141 -250l-109 47l115 203h-229z" />
    <glyph glyph-name="lessequal" unicode="&#x2264;" 
d="M33 51l22 127h705l-23 -127h-704zM313 756l498 -289l-25 -139l-647 389l15 90l786 389l-27 -152z" />
    <glyph glyph-name="greaterequal" unicode="&#x2265;" 
d="M88 51l23 127h704l-22 -127h-705zM762 768l-496 289l25 139l647 -389l-16 -90l-785 -389l27 151z" />
    <glyph glyph-name="dotmath" unicode="&#x22c5;" horiz-adv-x="485" 
d="M186 645l35 197h160l-35 -197h-160z" />
    <glyph glyph-name="filledrect" unicode="&#x25ac;" 
d="M180 428v629h629v-629h-629z" />
    <glyph glyph-name="uni25B4" unicode="&#x25b4;" 
d="M117 418l377 751l376 -751h-753z" />
    <glyph glyph-name="uni25B8" unicode="&#x25b8;" 
d="M195 365v753l751 -377z" />
    <glyph glyph-name="uni25BE" unicode="&#x25be;" 
d="M117 1067h753l-376 -754z" />
    <glyph glyph-name="uni25C2" unicode="&#x25c2;" 
d="M793 365l-752 376l752 377v-753z" />
    <glyph glyph-name="lozenge" unicode="&#x25ca;" 
d="M190 713l304 -518l303 518l-303 518zM25 713l469 770l469 -770l-469 -770z" />
    <glyph glyph-name="openbullet" unicode="&#x25e6;" 
d="M496 993q-109 1 -183 -71q-73 -72 -73 -180t72 -180t183 -70q111 0 183 72t72 178q0 107 -72 179t-182 72zM496 1083q150 0 250 -97q100 -96 100 -242t-100 -244t-252 -98q-150 0 -250 98t-100 243t100 243q102 98 252 97z" />
    <glyph glyph-name="commaaccent" unicode="&#xf6c3;" horiz-adv-x="1024" 
d="M225 -451l144 308h155l-192 -308h-107z" />
    <glyph glyph-name="Acute" unicode="&#xf6c9;" horiz-adv-x="1024" 
d="M614 1618l183 289h180l-248 -289h-115z" />
    <glyph glyph-name="Caron" unicode="&#xf6ca;" horiz-adv-x="1024" 
d="M721 1729l145 165h162l-268 -268h-101l-174 268h150z" />
    <glyph glyph-name="Dieresis" unicode="&#xf6cb;" horiz-adv-x="1024" 
d="M811 1634l37 209h139l-37 -209h-139zM469 1634l37 209h139l-37 -209h-139z" />
    <glyph glyph-name="Grave" unicode="&#xf6ce;" horiz-adv-x="1024" 
d="M803 1618h-113l-147 289h168z" />
    <glyph glyph-name="Hungarumlaut" unicode="&#xf6cf;" horiz-adv-x="1024" 
d="M760 1618l155 289h162l-209 -289h-108zM518 1618l156 289h162l-209 -289h-109z" />
    <glyph glyph-name="Macron" unicode="&#xf6d0;" horiz-adv-x="1024" 
d="M492 1698l20 112h459l-21 -112h-458z" />
    <glyph glyph-name="zerooldstyle" unicode="&#xf730;" horiz-adv-x="964" 
d="M725 817q0 168 -168 168q-103 0 -159 -70t-85 -239l-45 -254q-18 -94 -18 -150q0 -162 166 -161q106 0 163 70q56 71 85 239l45 254q16 92 16 143zM553 1114q164 0 246 -75t82 -214q0 -80 -19 -168l-47 -276q-37 -203 -127 -297q-102 -102 -266 -102t-246 74t-82 212
q1 66 19 170l49 275q37 211 132 306t259 95z" />
    <glyph glyph-name="oneoldstyle" unicode="&#xf731;" horiz-adv-x="620" 
d="M166 0l162 922l-222 -103l-49 119l353 156h108l-192 -1094h-160z" />
    <glyph glyph-name="twooldstyle" unicode="&#xf732;" horiz-adv-x="823" 
d="M471 1114q305 0 305 -261q0 -130 -76 -235q-41 -53 -85 -98t-166 -151l-273 -240h488l-23 -129h-698l18 106l393 351q150 135 207 220t57 169q0 137 -153 137q-88 0 -143 -47t-89 -150l-141 21q74 307 379 307z" />
    <glyph glyph-name="threeoldstyle" unicode="&#xf733;" horiz-adv-x="872" 
d="M348 498q125 0 205 90t80 233q0 78 -38 120t-110 42q-145 0 -202 -170l-144 23q35 134 127 206t234 72t219 -74q78 -74 78 -209q0 -287 -248 -397q90 -47 130 -110t40 -164q0 -190 -96 -326q-115 -164 -353 -164t-307 146q-25 53 -24 137l149 27q0 -49 23 -105
q33 -74 153 -74q154 0 234 131q57 100 57 211t-59 168t-166 58h-119l22 129h115z" />
    <glyph glyph-name="fouroldstyle" unicode="&#xf734;" horiz-adv-x="849" 
d="M410 -311l53 311h-529l19 100l575 994h168l-565 -965h354l80 444h142l-78 -444h137l-23 -129h-137l-55 -311h-141z" />
    <glyph glyph-name="fiveoldstyle" unicode="&#xf735;" horiz-adv-x="937" 
d="M500 561q116 0 190 -75t74 -199q0 -123 -30 -243t-75 -191q-117 -183 -351 -183t-306 146q-23 49 -25 137l150 27v-13q0 -39 23 -90q31 -76 149 -76q162 0 240 164q61 127 61 289q0 180 -166 180q-109 0 -213 -92l-110 25l182 727h581l-22 -136h-446l-119 -452
q97 55 213 55z" />
    <glyph glyph-name="sixoldstyle" unicode="&#xf736;" horiz-adv-x="966" 
d="M541 780q-143 0 -207 -137q-32 -70 -56 -174t-24 -184q0 -174 164 -174q147 0 211 147q29 68 50 172t21 182t-42 123t-117 45zM598 901q123 0 193 -75q69 -75 69 -193q0 -117 -30 -249t-74 -217t-134 -135q-92 -50 -226 -50t-218 76t-84 216q0 190 76 373q31 74 113 197
l391 581h178l-379 -551q66 27 125 27z" />
    <glyph glyph-name="sevenoldstyle" unicode="&#xf737;" horiz-adv-x="696" 
d="M-78 -311l623 1269h-496l25 136h659l-16 -97l-613 -1308h-182z" />
    <glyph glyph-name="eightoldstyle" unicode="&#xf738;" horiz-adv-x="989" 
d="M528 688q-154 0 -215 -108q-31 -52 -53 -142t-20 -167q0 -77 49 -119t139 -43q147 0 211 112q29 53 51 143t21 166q0 74 -47 116q-48 42 -136 42zM637 1321q-133 0 -184 -100q-25 -47 -42 -128t-18 -143q0 -143 156 -143q135 0 188 108q57 123 58 265q0 68 -41 104
t-117 37zM244 967q0 88 25 184q26 96 65 156q92 137 303 137q151 0 229 -68t78 -178t-26 -206t-68 -147q-41 -52 -115 -89q133 -74 133 -232q0 -102 -28 -214t-74 -175q-100 -154 -336 -153q-348 0 -348 286q0 115 34 231t85 171t141 90q-98 74 -98 207z" />
    <glyph glyph-name="nineoldstyle" unicode="&#xf739;" horiz-adv-x="966" 
d="M547 985q-150 0 -215 -147q-28 -70 -50 -173t-22 -178q0 -174 162 -174q141 0 205 138q35 72 57 175q23 103 23 185t-42 128t-118 46zM100 460q0 118 30 252q30 132 74 216t135 135t225 51t218 -77t84 -216q0 -188 -75 -375q-31 -74 -113 -194l-389 -567h-176l372 534
q-63 -27 -123 -26q-122 1 -192 75t-70 192z" />
    <glyph glyph-name="Dbreve" horiz-adv-x="1173" 
d="M725 1729q72 1 110 35t62 124h104q-27 -156 -88 -216t-192 -60q-225 0 -225 176q0 34 10 100h102l-4 -55q0 -104 121 -104zM958 1112q0 117 -84 178q-53 39 -176 39h-215l-213 -1196h217q162 -2 251 87t124 288l78 448q18 90 18 156zM711 1462q201 0 293 -71
q117 -94 116 -265q0 -53 -20 -174l-86 -491q-72 -467 -514 -461h-412l258 1462h365z" />
    <glyph glyph-name="ahungarumlaut" horiz-adv-x="925" 
d="M635 1192l156 289h161l-209 -289h-108zM393 1192l156 289h162l-209 -289h-109zM444 481q-145 0 -200 -67q-59 -66 -60 -193q0 -63 40 -90t144 -27t151 43q48 43 71 164l31 170h-177zM520 1047q145 -1 222 -63t77 -183q0 -66 -18 -166l-113 -635h-121l-6 45
q-78 -63 -237 -63q-293 0 -293 211q0 197 92 303q86 106 313 106h205l14 74q10 53 11 104q0 139 -152 140q-76 0 -125 -36t-88 -120l-127 41q100 242 346 242z" />
    <glyph glyph-name="uni0204.sc" horiz-adv-x="837" 
d="M522 1249h-108l-107 289h162zM764 1249h-109l-106 289h162zM43 0l193 1096h595l-22 -129h-440l-62 -351h373l-23 -129h-372l-64 -358h443l-23 -129h-598z" />
    <glyph glyph-name="uni0206.sc" horiz-adv-x="837" 
d="M743 1315q0 104 -120 104q-74 0 -112 -35t-60 -124h-107q27 156 88 216t193 60q227 0 227 -176q0 -32 -10 -100h-105q6 47 6 55zM72 0l192 1096h596l-22 -129h-441l-61 -351h373l-23 -129h-373l-63 -358h442l-22 -129h-598z" />
    <glyph glyph-name="uni0208.sc" horiz-adv-x="479" 
d="M317 1249h-108l-107 289h162zM559 1249h-108l-107 289h162zM72 0l192 1094h156l-193 -1094h-155z" />
    <glyph glyph-name="uni020A.sc" horiz-adv-x="479" 
d="M522 1315q0 104 -121 104q-73 0 -111 -35t-61 -124h-106q27 156 88 216t192 60q227 0 228 -176q0 -32 -10 -100h-105q6 47 6 55zM72 0l192 1094h156l-193 -1094h-155z" />
    <glyph glyph-name="uni020C.sc" horiz-adv-x="980" 
d="M553 1249h-109l-106 289h162zM795 1249h-109l-106 289h161zM721 819q0 164 -181 164q-92 0 -150 -67t-85 -216l-53 -307q-12 -61 -12 -129t44 -110t137 -43q93 0 150 66t84 216l56 307q10 82 10 119zM542 1112q168 0 253 -71q84 -71 84 -203q0 -68 -17 -150l-57 -332
q-18 -104 -44 -164t-75 -110q-100 -100 -269 -100q-335 0 -335 276q0 54 16 148l60 331q18 109 44 168q91 207 340 207z" />
    <glyph glyph-name="uni020E.sc" horiz-adv-x="980" 
d="M766 1315q0 104 -121 104q-73 0 -111 -35t-61 -124h-106q27 156 88 216t192 60q227 0 227 -176q0 -32 -10 -100h-104q6 47 6 55zM735 819q0 164 -181 164q-92 0 -150 -67t-85 -216l-53 -307q-12 -61 -12 -129t44 -110t137 -43q93 0 151 66q57 66 84 216l55 307
q10 82 10 119zM557 1112q168 0 252 -71t84 -203q0 -68 -16 -150l-58 -332q-18 -104 -44 -164t-75 -110q-100 -100 -269 -100q-335 0 -335 276q1 54 17 148l59 331q18 109 44 168t73 107q100 100 268 100z" />
    <glyph glyph-name="uni0210.sc" horiz-adv-x="948" 
d="M514 1249h-108l-107 289h162zM756 1249h-109l-106 289h161zM473 586q119 0 175 68t57 182q0 70 -39 102t-129 31h-162l-68 -383h166zM543 1096q167 0 245 -58t78 -184q0 -84 -28 -164t-82 -132q-53 -52 -150 -71l139 -487h-174l-114 465h-168l-82 -465h-156l193 1096h299
z" />
    <glyph glyph-name="uni0212.sc" horiz-adv-x="948" 
d="M735 1315q0 104 -121 104q-74 0 -112 -35t-60 -124h-106q27 156 88 216t192 60q227 0 228 -176q0 -32 -10 -100h-105q6 47 6 55zM496 586q119 0 175 68t56 160t-39 124t-129 31h-162l-67 -383h166zM565 1096q168 0 246 -58t78 -184q0 -84 -29 -164t-82 -132t-149 -71
l139 -487h-174l-115 465h-168l-82 -465h-155l192 1096h299z" />
    </font>
</defs>
</svg>
