<?xml version="1.0" encoding="UTF-8"?>
<svg xmlns="http://www.w3.org/2000/svg" xmlns:xlink="http://www.w3.org/1999/xlink" version="1.2" >
<font id="Clarendon URW Wide">
<font-face  font-family="Clarendon URW Wide" units-per-em="1000" ascent="667" descent="-333" font-style="normal" font-weight="400" font-stretch="normal" cap-height="667" x-height="469" underline-position="-63" underline-thickness="74" />
<missing-glyph  horiz-adv-x="250" d="" />
<glyph glyph-name="NULL" d="" />
<glyph glyph-name="CR" unicode="&#xd;" horiz-adv-x="250" d="" />
<glyph glyph-name="space" unicode="&#x20;" horiz-adv-x="250" d="" />
<glyph glyph-name="exclam" unicode="&#x21;" horiz-adv-x="334" d="M203 130 C161 130 125 97 125 58 C125 16 159 -17 203 -17 C246 -17 280 16 280 57 C280 97 246 130 203 130 L203 130 Z M235 190 C244 294 248 330 267 476 C282 583 282 586 282 609 C282 662 258 687 205 687 C153 687 128 662 128 609 C128 587 128 584 141 476 C161 316 162 302 170 190 L235 190 Z " />
<glyph glyph-name="quotedbl" unicode="&#x22;" horiz-adv-x="379" d="M142 399 L163 667 L37 667 L57 399 L142 399 Z M321 399 L342 667 L216 667 L236 399 L321 399 Z " />
<glyph glyph-name="numbersign" unicode="&#x23;" horiz-adv-x="652" d="M599 288 L489 288 L506 391 L615 391 L630 488 L521 488 L551 667 L435 667 L405 488 L294 488 L325 667 L210 667 L181 488 L71 488 L56 391 L166 391 L149 288 L38 288 L23 191 L133 191 L101 0 L215 0 L247 191 L356 191 L323 0 L442 0 L474 191 L584 191 L599 288 Z M389 391 L373 288 L264 288 L280 391 L389 391 Z " />
<glyph glyph-name="dollar" unicode="&#x24;" horiz-adv-x="652" d="M283 -104 L350 -104 L350 -1 C436 7 474 18 517 45 C567 76 594 124 594 181 C594 231 571 276 532 303 C491 330 455 342 350 364 L350 543 C421 539 438 534 483 502 C437 498 415 480 415 447 C415 414 447 388 488 388 C531 388 563 419 563 462 C563 496 541 532 503 560 C466 587 431 597 350 605 L350 680 L283 680 L283 605 C205 594 171 583 133 554 C89 522 64 475 64 425 C64 374 91 326 136 300 C168 282 196 272 283 248 L283 63 C202 68 183 75 134 114 C182 113 207 133 207 173 C207 208 175 235 132 235 C84 235 52 202 52 154 C52 110 74 72 116 45 C159 17 202 6 283 0 L283 -104 Z M350 235 C454 216 483 197 483 149 C483 97 440 69 350 65 L350 235 Z M283 378 C202 394 175 414 175 458 C175 505 208 531 283 542 L283 378 Z " />
<glyph glyph-name="percent" unicode="&#x25;" horiz-adv-x="1006" d="M231 622 C114 622 31 543 31 433 C31 317 111 239 231 239 C348 239 430 318 430 431 C430 543 348 622 231 622 L231 622 Z M231 559 C292 559 319 519 319 429 C319 341 292 302 232 302 C171 302 143 342 143 430 C143 517 171 559 231 559 L231 559 Z M739 622 L655 622 L263 -17 L348 -17 L739 622 Z M772 366 C655 366 572 287 572 177 C572 61 653 -17 772 -17 C890 -17 972 62 972 174 C972 287 890 366 772 366 L772 366 Z M772 303 C833 303 860 263 860 173 C860 85 833 46 772 46 C711 46 683 86 683 174 C683 261 712 303 772 303 L772 303 Z " />
<glyph glyph-name="ampersand" unicode="&#x26;" horiz-adv-x="881" d="M757 229 C752 181 749 164 741 142 C727 105 698 85 657 85 C629 85 611 93 579 120 C628 176 651 206 668 235 C722 331 727 335 800 339 L837 339 L837 415 L504 415 L504 339 L535 339 C582 339 599 333 599 317 C599 283 572 238 519 188 C457 265 437 293 386 374 C483 433 521 485 521 559 C521 637 462 687 370 687 C262 687 188 616 188 512 C188 476 194 451 216 399 C161 372 126 351 104 331 C59 291 36 242 36 186 C36 67 138 -19 278 -19 C346 -19 389 -7 475 36 C548 -7 586 -20 637 -20 C706 -20 768 9 800 57 C826 96 835 138 837 229 L757 229 Z M259 315 C314 217 336 185 407 101 C365 84 343 78 317 78 C236 78 177 134 177 213 C177 257 198 283 259 315 L259 315 Z M339 452 C307 490 295 517 295 548 C295 584 324 610 366 610 C405 610 432 587 432 553 C432 513 406 485 339 452 L339 452 Z " />
<glyph glyph-name="quotesingle" unicode="&#x27;" horiz-adv-x="193" d="M139 399 L160 667 L34 667 L55 399 L139 399 Z " />
<glyph glyph-name="parenleft" unicode="&#x28;" horiz-adv-x="401" d="M370 -130 C294 -95 264 -68 232 -8 C198 56 182 139 182 247 C182 347 196 426 225 488 C257 557 289 587 370 624 L370 687 C242 647 186 613 131 540 C72 463 42 363 42 247 C42 141 68 48 117 -27 C173 -111 233 -150 370 -192 L370 -130 Z " />
<glyph glyph-name="parenright" unicode="&#x29;" horiz-adv-x="401" d="M36 -192 C164 -153 220 -118 275 -46 C334 31 364 132 364 247 C364 354 338 447 289 521 C233 605 173 645 36 687 L36 624 C113 589 143 563 174 503 C208 439 224 355 224 247 C224 147 210 69 181 7 C150 -62 117 -92 36 -130 L36 -192 Z " />
<glyph glyph-name="asterisk" unicode="&#x2a;" horiz-adv-x="521" d="M255 490 C222 512 207 526 185 558 C151 606 147 610 121 610 C90 610 63 583 63 551 C63 533 72 518 89 510 C103 502 105 502 148 500 C189 497 211 492 247 475 C212 460 193 455 150 452 C108 449 104 449 90 442 C74 435 63 418 63 401 C63 370 90 342 120 342 C146 342 156 349 185 393 C207 426 224 441 257 462 C254 428 249 410 229 369 C208 330 208 330 208 314 C208 285 231 266 266 266 C297 266 321 287 321 315 C321 328 317 339 300 369 C280 405 276 419 273 462 C304 443 316 431 343 393 C373 349 382 342 408 342 C438 342 464 369 464 399 C464 428 444 448 412 450 C339 454 319 458 280 477 C316 492 333 496 378 500 C428 504 428 504 438 509 C452 515 464 534 464 551 C464 582 437 610 408 610 C382 610 372 602 343 559 C318 523 303 510 271 490 C277 536 281 549 299 582 C316 614 320 625 320 638 C320 666 296 687 263 687 C229 687 207 667 207 636 C207 620 208 618 228 583 C244 553 251 529 255 490 L255 490 Z " />
<glyph glyph-name="plus" unicode="&#x2b;" horiz-adv-x="595" d="M70 358 L70 267 L248 267 L248 104 L346 104 L346 267 L525 267 L525 358 L346 358 L346 521 L248 521 L248 358 L70 358 Z " />
<glyph glyph-name="comma" unicode="&#x2c;" horiz-adv-x="250" d="M34 -143 C137 -127 202 -63 202 24 C202 87 162 130 104 130 C58 130 26 102 26 61 C26 25 52 -1 88 -1 C103 -1 114 2 133 14 C132 -46 99 -82 34 -99 L34 -143 Z " />
<glyph glyph-name="hyphen" unicode="&#x2d;" horiz-adv-x="283" d="M0 184 L283 184 L283 290 L0 290 L0 184 Z " />
<glyph glyph-name="period" unicode="&#x2e;" horiz-adv-x="323" d="M161 130 C119 130 83 97 83 58 C83 16 117 -17 161 -17 C204 -17 238 16 238 57 C238 97 204 130 161 130 L161 130 Z " />
<glyph glyph-name="slash" unicode="&#x2f;" horiz-adv-x="388" d="M89 -92 L346 686 L269 686 L12 -92 L89 -92 Z " />
<glyph glyph-name="zero" unicode="0" horiz-adv-x="652" d="M325 621 C154 621 31 490 31 307 C31 113 149 -17 326 -17 C499 -17 619 114 619 302 C619 490 499 621 325 621 L325 621 Z M325 544 C421 544 465 468 465 302 C465 136 421 60 325 60 C228 60 185 134 185 300 C185 468 229 544 325 544 L325 544 Z " />
<glyph glyph-name="one" unicode="1" horiz-adv-x="652" d="M130 0 L522 0 L522 71 L466 71 C399 71 392 77 392 128 L392 611 L310 611 C270 542 242 528 130 519 L130 448 L258 448 L258 130 C257 78 248 71 176 71 L130 71 L130 0 Z " />
<glyph glyph-name="two" unicode="2" horiz-adv-x="652" d="M114 -4 C122 47 136 64 172 64 C190 64 212 58 230 49 C299 15 299 15 313 10 C358 -7 401 -17 433 -17 C484 -17 527 7 555 50 C582 92 590 131 591 217 L532 217 C526 165 521 146 510 132 C498 114 474 104 447 104 C435 104 419 106 364 117 C313 127 244 137 224 137 C198 137 179 131 142 111 C182 182 233 210 372 239 C461 259 504 278 535 314 C560 341 575 383 575 425 C575 477 553 527 516 558 C468 598 391 622 310 622 C239 622 178 602 132 565 C91 531 67 484 67 441 C67 381 109 337 167 337 C216 337 251 369 251 414 C251 453 222 482 183 482 C174 482 159 480 144 476 C159 502 169 515 183 525 C207 542 243 553 278 553 C364 553 424 505 424 435 C424 409 415 384 399 361 C383 340 360 325 309 304 C106 222 47 151 53 -4 L114 -4 Z " />
<glyph glyph-name="three" unicode="3" horiz-adv-x="652" d="M259 286 C322 286 352 282 381 269 C417 253 440 214 440 168 C440 97 378 52 283 52 C223 52 188 64 142 99 C170 100 187 103 199 112 C218 125 229 147 229 171 C229 216 196 247 147 247 C91 247 52 208 52 152 C52 54 157 -17 301 -17 C478 -17 591 55 591 169 C591 212 572 252 539 278 C511 301 483 312 416 326 C475 340 500 349 523 366 C554 389 573 426 573 464 C573 560 476 622 327 622 C183 622 74 555 74 466 C74 418 110 385 161 385 C208 385 242 415 242 458 C242 493 222 513 179 521 C228 550 253 558 299 558 C378 558 430 517 430 456 C430 418 411 390 376 374 C352 364 325 360 259 359 L259 286 Z " />
<glyph glyph-name="four" unicode="4" horiz-adv-x="652" d="M237 0 L606 0 L606 71 L547 71 C494 75 483 84 484 125 L484 168 L606 168 L606 254 L484 254 L484 610 L383 610 L36 244 L36 168 L352 168 L352 125 C353 78 345 72 274 71 L237 71 L237 0 Z M352 254 L149 254 L356 471 L352 254 Z " />
<glyph glyph-name="five" unicode="5" horiz-adv-x="652" d="M176 487 C232 479 260 477 291 477 C353 477 407 486 452 505 C503 525 526 552 552 619 C455 594 414 588 332 588 C247 588 206 594 109 620 L78 298 L148 295 C197 343 229 358 285 358 C380 358 439 300 439 207 C439 108 381 52 278 52 C225 52 191 62 142 94 C168 95 185 99 197 107 C217 120 229 143 229 168 C229 210 194 240 144 240 C89 240 49 202 49 150 C49 52 158 -17 312 -17 C393 -17 454 1 501 38 C555 80 585 143 585 212 C585 341 479 431 328 431 C273 431 239 423 168 395 L176 487 Z " />
<glyph glyph-name="six" unicode="6" horiz-adv-x="652" d="M457 536 C421 523 408 508 408 480 C408 441 439 414 485 414 C536 414 572 446 572 490 C572 566 482 622 360 622 C263 622 190 592 138 530 C86 468 57 381 57 286 C57 203 80 125 118 75 C166 13 240 -18 340 -18 C415 -18 479 0 524 34 C573 71 602 129 602 189 C602 302 506 386 378 386 C318 386 284 375 217 334 C226 441 238 485 268 518 C293 546 331 561 375 561 C405 561 423 555 457 536 L457 536 Z M330 301 C409 301 453 257 453 179 C453 100 410 55 334 55 C256 55 213 99 213 181 C213 256 257 301 330 301 L330 301 Z " />
<glyph glyph-name="seven" unicode="7" horiz-adv-x="652" d="M256 -4 L400 -4 L400 11 C400 105 403 144 416 191 C431 249 466 317 517 388 C562 451 589 488 596 500 C616 533 622 550 632 605 L566 605 C551 574 536 564 507 564 C487 564 472 568 421 586 C371 604 335 611 297 611 C240 611 209 594 162 537 L162 606 L89 606 L89 330 L158 330 C160 400 165 427 176 449 C189 474 221 491 253 491 C269 491 291 489 315 484 C361 476 390 472 411 472 C439 472 460 477 505 492 C469 453 468 453 432 416 C361 345 352 334 323 292 C271 219 256 159 256 32 L256 -4 Z " />
<glyph glyph-name="eight" unicode="8" horiz-adv-x="652" d="M174 291 C134 276 108 263 92 250 C59 223 42 189 42 150 C42 51 155 -17 318 -17 C404 -17 484 3 534 37 C576 66 604 120 604 175 C604 210 593 243 572 270 C553 295 523 315 467 340 C551 379 579 412 579 471 C579 561 476 622 324 622 C173 622 68 549 68 444 C68 381 96 341 174 291 L174 291 Z M393 218 C457 198 480 178 480 141 C480 89 427 61 328 61 C214 61 155 95 155 160 C155 203 191 242 251 262 L393 218 Z M275 397 C217 412 189 438 189 475 C189 522 242 553 326 553 C418 553 472 520 472 464 C472 421 450 393 394 367 L275 397 Z " />
<glyph glyph-name="nine" unicode="9" horiz-adv-x="652" d="M202 64 C237 78 249 93 249 120 C249 159 218 186 173 186 C123 186 86 154 86 110 C86 35 173 -19 291 -19 C393 -19 471 14 522 80 C569 141 595 223 595 312 C595 400 569 484 528 535 C479 593 408 622 314 622 C155 622 47 537 47 413 C47 300 142 216 270 216 C333 216 368 228 436 273 C430 164 419 121 391 87 C366 58 325 41 281 41 C253 41 236 46 202 64 L202 64 Z M315 549 C393 549 436 503 436 421 C436 346 392 302 319 302 C240 302 196 347 196 428 C196 506 238 549 315 549 L315 549 Z " />
<glyph glyph-name="colon" unicode="&#x3a;" horiz-adv-x="334" d="M203 130 C161 130 125 97 125 58 C125 16 159 -17 203 -17 C246 -17 280 16 280 57 C280 97 246 130 203 130 L203 130 Z M203 447 C161 447 125 414 125 375 C125 333 159 300 203 300 C246 300 280 333 280 374 C280 414 246 447 203 447 L203 447 Z " />
<glyph glyph-name="semicolon" unicode="&#x3b;" horiz-adv-x="334" d="M216 447 C173 447 137 414 137 375 C137 333 172 300 216 300 C258 300 293 333 293 374 C293 414 258 447 216 447 L216 447 Z M133 -143 C236 -127 301 -63 301 24 C301 87 261 130 203 130 C157 130 125 102 125 61 C125 25 151 -1 187 -1 C202 -1 213 2 232 14 C231 -46 199 -82 133 -99 L133 -143 Z " />
<glyph glyph-name="less" unicode="&#x3c;" horiz-adv-x="525" d="M490 603 L35 385 L35 282 L490 63 L490 184 L170 333 L490 482 L490 603 Z " />
<glyph glyph-name="equal" unicode="&#x3d;" horiz-adv-x="595" d="M70 442 L70 356 L525 356 L525 442 L70 442 Z M70 280 L70 194 L525 194 L525 280 L70 280 Z " />
<glyph glyph-name="greater" unicode="&#x3e;" horiz-adv-x="525" d="M35 603 L35 482 L355 333 L35 184 L35 63 L490 282 L490 385 L35 603 Z " />
<glyph glyph-name="question" unicode="&#x3f;" horiz-adv-x="553" d="M262 130 C219 130 183 97 183 58 C183 16 218 -17 262 -17 C305 -17 339 16 339 57 C339 97 304 130 262 130 L262 130 Z M296 189 C299 246 313 270 366 310 C452 368 452 368 478 393 C512 425 529 462 529 504 C529 611 429 687 288 687 C150 687 51 610 51 502 C51 432 97 379 158 379 C206 379 245 413 245 456 C245 493 217 521 179 521 C159 521 146 516 121 498 C126 543 135 562 161 583 C186 603 219 614 253 614 C332 614 387 569 387 504 C387 463 375 444 314 383 C245 317 229 286 229 226 C229 217 229 205 230 189 L296 189 Z " />
<glyph glyph-name="at" unicode="&#x40;" horiz-adv-x="779" d="M507 493 L498 449 C478 484 440 504 392 504 C292 504 207 411 207 302 C207 211 271 143 356 143 C409 143 459 168 487 208 C496 174 528 151 569 151 C660 151 742 262 742 385 C742 555 600 681 408 681 C200 681 37 526 37 328 C37 234 78 140 147 77 C215 15 302 -15 412 -15 C491 -15 568 -3 633 20 L613 92 C551 70 483 58 411 58 C316 58 248 81 196 133 C145 182 115 254 115 328 C115 486 245 609 412 609 C564 609 671 516 671 384 C671 301 622 217 573 217 C556 217 545 231 545 252 C545 261 547 276 551 297 L591 493 L507 493 Z M401 418 C446 418 476 387 476 340 C476 278 429 224 376 224 C330 224 298 257 298 304 C298 366 346 418 401 418 L401 418 Z " />
<glyph glyph-name="A" unicode="A" horiz-adv-x="751" d="M-16 0 L310 0 L310 76 L255 76 C209 76 199 80 199 98 C199 104 201 113 207 129 L238 212 L469 212 L499 134 C504 120 508 106 508 101 C508 81 496 76 450 76 L393 76 L393 0 L755 0 L755 76 L734 76 C681 76 671 84 650 140 L441 667 L294 667 L99 140 C82 91 60 76 6 76 L-16 76 L-16 0 Z M440 290 L267 290 L349 522 L440 290 Z " />
<glyph glyph-name="B" unicode="B" horiz-adv-x="761" d="M26 0 L407 0 C540 0 606 13 655 48 C694 77 715 123 715 180 C715 235 697 276 660 306 C632 328 606 339 546 353 C651 382 687 421 687 503 C687 613 602 667 427 667 L26 667 L26 591 L68 591 C132 591 140 584 140 529 L140 137 C140 83 132 75 68 76 L26 76 L26 0 Z M280 75 L280 307 L386 307 C465 307 500 300 530 279 C555 262 570 230 570 192 C570 154 555 120 531 102 C506 83 465 75 396 75 L280 75 Z M280 383 L280 590 L391 590 C455 590 489 583 513 566 C535 550 547 522 547 487 C547 456 537 431 517 414 C489 390 457 383 381 383 L280 383 Z " />
<glyph glyph-name="C" unicode="C" horiz-adv-x="740" d="M596 258 C581 186 567 154 536 123 C503 89 458 72 404 72 C340 72 282 97 246 142 C210 185 192 247 192 330 C192 501 272 605 402 605 C460 605 512 583 548 544 C579 511 592 478 605 404 L685 404 L685 677 L610 677 L590 617 C507 672 464 686 385 686 C189 686 36 532 36 334 C36 129 186 -19 392 -19 C490 -19 564 11 617 72 C657 118 673 161 685 258 L596 258 Z " />
<glyph glyph-name="D" unicode="D" horiz-adv-x="845" d="M26 0 L421 0 C666 0 794 114 794 333 C794 553 666 667 421 667 L26 667 L26 591 L68 591 C132 592 140 584 140 530 L140 137 C140 83 132 75 68 76 L26 76 L26 0 Z M280 76 L280 591 L371 591 C484 591 533 578 573 538 C614 496 638 421 638 333 C638 246 614 172 573 129 C533 89 484 76 371 76 L280 76 Z " />
<glyph glyph-name="E" unicode="E" horiz-adv-x="787" d="M26 0 L714 0 L714 283 L634 283 C619 112 589 75 465 76 L279 76 L279 310 L320 310 C409 311 423 294 432 174 L513 174 L513 507 L432 507 C421 397 413 389 319 386 L279 386 L279 591 L449 591 C594 593 629 558 634 402 L714 402 L714 667 L26 667 L26 591 L68 591 C131 592 139 584 139 529 L139 138 C139 83 131 75 68 76 L26 76 L26 0 Z " />
<glyph glyph-name="F" unicode="F" horiz-adv-x="725" d="M26 0 L401 0 L401 76 L350 76 C287 76 278 83 279 138 L279 310 L298 310 C388 312 403 293 411 174 L491 174 L491 507 L411 507 C401 397 393 388 297 386 L279 386 L279 591 L412 591 C558 593 593 556 596 390 L676 390 L676 667 L26 667 L26 591 L68 591 C131 592 139 584 139 529 L139 138 C139 83 131 75 68 76 L26 76 L26 0 Z " />
<glyph glyph-name="G" unicode="G" horiz-adv-x="824" d="M637 -4 L708 -4 L708 219 C709 274 715 280 767 281 L813 281 L813 357 L443 357 L443 281 L489 281 C562 282 571 276 570 226 L570 189 C570 149 561 129 535 108 C503 83 458 69 409 69 C272 69 192 166 192 333 C192 500 273 606 400 606 C457 606 508 585 548 544 C581 511 597 481 616 411 L693 411 L693 671 L621 671 L593 614 C513 672 472 687 386 687 C187 687 36 535 36 334 C36 129 184 -19 389 -19 C472 -19 515 -4 600 52 L637 -4 Z " />
<glyph glyph-name="H" unicode="H" horiz-adv-x="866" d="M25 0 L400 0 L400 76 L349 76 C286 76 277 83 278 137 L278 302 L588 302 L588 137 C589 83 580 76 517 76 L466 76 L466 0 L841 0 L841 76 L799 76 C736 75 728 83 728 137 L728 529 C728 584 736 592 799 591 L841 591 L841 667 L466 667 L466 591 L517 591 C580 592 589 584 588 529 L588 382 L278 382 L278 529 C277 584 286 592 349 591 L400 591 L400 667 L25 667 L25 591 L67 591 C130 592 138 584 138 529 L138 137 C138 83 130 75 67 76 L25 76 L25 0 Z " />
<glyph glyph-name="I" unicode="I" horiz-adv-x="433" d="M28 0 L405 0 L405 76 L359 76 C295 75 286 83 287 137 L287 530 C286 584 295 592 359 591 L405 591 L405 667 L28 667 L28 591 L74 591 C137 592 146 584 145 530 L145 137 C145 83 137 75 74 76 L28 76 L28 0 Z " />
<glyph glyph-name="J" unicode="J" horiz-adv-x="605" d="M212 591 L262 591 C325 592 334 584 333 530 L333 193 C333 134 328 111 313 91 C296 69 265 57 226 57 C189 57 172 63 138 86 C187 100 208 123 208 166 C208 214 175 246 124 246 C64 246 26 208 26 148 C26 49 117 -20 246 -20 C319 -20 383 1 424 39 C464 76 476 117 476 213 L476 530 C475 584 484 592 548 591 L580 591 L580 667 L212 667 L212 591 Z " />
<glyph glyph-name="K" unicode="K" horiz-adv-x="808" d="M276 229 L394 324 L537 128 C548 113 554 101 554 93 C554 80 545 76 510 76 L453 76 L453 0 L842 0 L842 76 L807 76 C753 76 743 81 707 126 L493 414 L596 503 C674 570 714 590 774 591 L798 591 L798 667 L445 667 L445 591 L491 591 C519 591 532 587 532 579 C532 572 525 562 515 553 L276 342 L276 530 C275 584 284 592 347 591 L382 591 L382 667 L26 667 L26 591 L68 591 C131 592 140 584 139 530 L139 137 C139 83 131 75 68 76 L26 76 L26 0 L376 0 L376 76 L347 76 C284 75 275 83 276 137 L276 229 Z " />
<glyph glyph-name="L" unicode="L" horiz-adv-x="725" d="M26 667 L26 591 L68 591 C131 592 140 584 139 530 L139 137 C139 83 131 75 68 76 L26 76 L26 0 L676 0 L676 288 L596 288 C595 113 561 74 412 76 L279 76 L279 530 C278 584 287 592 350 591 L401 591 L401 667 L26 667 Z " />
<glyph glyph-name="M" unicode="M" horiz-adv-x="1017" d="M633 0 L993 0 L993 76 L951 76 C888 75 879 83 880 137 L880 530 C879 584 888 592 951 591 L993 591 L993 667 L682 667 L507 234 L352 667 L26 667 L26 591 L64 591 C127 592 136 584 135 530 L135 137 C136 83 127 75 64 76 L26 76 L26 0 L353 0 L353 76 L311 76 C248 75 239 83 240 137 L240 579 L455 0 L524 0 L752 569 L752 137 C752 83 744 75 681 76 L633 76 L633 0 Z " />
<glyph glyph-name="N" unicode="N" horiz-adv-x="855" d="M730 0 L730 530 C729 584 738 592 801 591 L836 591 L836 667 L505 667 L505 591 L555 591 C617 592 626 584 625 530 L625 183 L312 667 L14 667 L14 591 L60 591 C122 592 131 584 130 530 L130 137 C131 83 122 75 60 76 L10 76 L10 0 L355 0 L355 76 L306 76 C243 75 235 83 235 137 L235 543 L587 0 L730 0 Z " />
<glyph glyph-name="O" unicode="O" horiz-adv-x="845" d="M422 686 C311 686 223 656 150 594 C78 533 37 440 37 339 C37 226 74 139 150 73 C221 11 311 -19 423 -19 C653 -19 807 123 807 334 C807 545 653 686 422 686 L422 686 Z M422 607 C494 607 553 580 595 529 C633 482 651 420 651 333 C651 247 634 186 595 138 C554 87 495 60 423 60 C349 60 291 86 249 138 C210 187 193 246 193 338 C193 506 279 607 422 607 L422 607 Z " />
<glyph glyph-name="P" unicode="P" horiz-adv-x="714" d="M401 76 L350 76 C287 76 278 83 279 137 L279 301 L379 301 C498 301 554 310 600 335 C649 363 679 418 679 481 C679 541 653 592 605 622 C556 654 493 667 394 667 L26 667 L26 591 L68 591 C131 592 139 584 139 530 L139 137 C139 83 131 75 68 76 L26 76 L26 0 L401 0 L401 76 Z M279 377 L279 591 L342 591 C413 591 439 589 464 581 C509 567 533 533 533 484 C533 450 519 420 496 404 C468 384 431 377 350 377 L279 377 Z " />
<glyph glyph-name="Q" unicode="Q" horiz-adv-x="871" d="M802 130 C799 86 797 75 793 64 C786 47 775 39 760 39 C737 39 720 50 695 79 C770 147 806 229 806 335 C806 544 651 686 421 686 C190 686 36 545 36 333 C36 123 191 -19 420 -19 C476 -19 509 -14 580 7 C646 -54 675 -69 725 -69 C766 -69 801 -56 825 -32 C858 1 869 41 870 130 L802 130 Z M519 86 C487 64 456 55 415 55 C368 55 334 83 334 122 C334 157 360 182 396 182 C444 182 477 156 519 86 L519 86 Z M616 169 C530 246 480 271 409 271 C325 271 277 226 277 148 C277 145 277 133 278 122 C246 146 233 160 220 189 C201 228 191 279 191 335 C191 504 279 607 424 607 C570 607 657 503 657 328 C657 260 648 224 616 169 L616 169 Z " />
<glyph glyph-name="R" unicode="R" horiz-adv-x="808" d="M401 76 L350 76 C287 76 278 83 279 137 L279 314 L330 314 C457 314 491 286 495 181 L498 103 C501 25 550 -19 634 -19 C697 -19 742 5 760 48 C774 81 777 105 777 174 L777 190 L710 190 C709 93 705 79 678 79 C656 79 649 91 646 135 L642 194 C640 286 606 321 502 337 C571 348 601 357 634 378 C678 407 702 451 702 506 C702 557 679 601 641 626 C596 655 538 667 444 667 L26 667 L26 591 L68 591 C131 592 139 584 139 529 L139 137 C139 83 131 75 68 76 L26 76 L26 0 L401 0 L401 76 Z M279 390 L279 591 L403 591 C459 591 485 587 510 575 C539 561 556 530 556 490 C556 420 511 390 406 390 L279 390 Z " />
<glyph glyph-name="S" unicode="S" horiz-adv-x="673" d="M45 0 L117 0 L140 62 C232 1 291 -19 372 -19 C525 -19 634 69 634 193 C634 253 606 309 562 341 C525 366 468 390 411 402 L270 433 C192 450 161 475 161 520 C161 573 212 606 295 606 C347 606 403 588 438 560 C478 527 502 482 518 414 L597 414 L597 667 L535 667 L498 618 C414 673 372 687 293 687 C143 687 42 604 42 481 C42 375 108 317 272 281 L385 256 C474 236 510 208 510 157 C510 102 459 71 369 71 C300 71 251 86 206 123 C163 158 144 194 126 275 L45 275 L45 0 Z " />
<glyph glyph-name="T" unicode="T" horiz-adv-x="709" d="M284 137 C284 83 276 75 213 76 L151 76 L151 0 L557 0 L557 76 L495 76 C432 75 423 83 424 137 L424 593 C553 595 600 543 604 391 L683 391 L683 667 L25 667 L25 391 L104 391 C108 543 155 596 284 593 L284 137 Z " />
<glyph glyph-name="U" unicode="U" horiz-adv-x="798" d="M21 591 L56 591 C119 592 128 584 127 530 L127 211 C127 127 149 74 199 37 C250 -1 317 -20 398 -20 C486 -20 563 4 609 46 C649 82 671 140 671 211 L671 530 C671 584 679 592 741 591 L774 591 L774 667 L449 667 L449 591 L492 591 C555 592 564 584 563 530 L563 211 C563 160 553 134 528 114 C499 91 456 78 410 78 C367 78 327 90 300 111 C275 130 267 155 267 211 L267 530 C266 584 275 592 339 591 L385 591 L385 667 L21 667 L21 591 Z " />
<glyph glyph-name="V" unicode="V" horiz-adv-x="746" d="M292 0 L436 0 L643 526 C664 580 677 590 732 591 L753 591 L753 667 L421 667 L421 591 L467 591 C518 591 532 585 532 565 C532 556 527 532 522 520 L383 166 L254 512 C246 532 242 550 242 561 C242 583 257 591 297 591 L351 591 L351 667 L-16 667 L-16 591 L15 591 C60 590 79 575 95 528 L292 0 Z " />
<glyph glyph-name="W" unicode="W" horiz-adv-x="1022" d="M256 0 L388 0 L515 357 L624 0 L763 0 L922 524 C935 570 958 592 992 591 L1015 591 L1015 667 L729 667 L729 591 L764 591 C803 591 822 582 822 562 C822 550 818 531 812 511 L708 173 L590 537 C586 550 584 559 584 565 C584 584 597 591 634 591 L672 591 L672 667 L365 667 L365 591 L391 591 C436 591 457 569 470 507 L345 163 L236 539 C234 548 232 558 232 563 C232 581 247 591 276 591 L309 591 L309 667 L10 667 L10 591 L27 591 C76 588 88 575 109 502 L256 0 Z " />
<glyph glyph-name="X" unicode="X" horiz-adv-x="824" d="M365 76 L316 76 C279 76 268 81 268 98 C268 111 277 126 300 152 L399 261 L513 124 C521 115 525 104 525 95 C525 81 513 76 477 76 L429 76 L429 0 L830 0 L830 76 L799 76 C739 75 729 81 673 146 L496 357 L651 517 C710 579 725 590 761 591 L799 591 L799 667 L471 667 L471 591 L511 591 C540 591 557 585 557 574 C557 567 550 555 541 545 L429 435 L338 540 C326 553 321 563 321 572 C321 585 330 591 350 591 L398 591 L398 667 L28 667 L28 591 L64 591 C114 588 131 580 167 537 L332 341 L131 124 C87 80 82 77 35 76 L0 76 L0 0 L365 0 L365 76 Z " />
<glyph glyph-name="Y" unicode="Y" horiz-adv-x="766" d="M586 76 L524 76 C461 75 453 83 453 137 L453 279 L664 547 C694 583 706 590 746 591 L770 591 L770 667 L445 667 L445 591 L505 591 C531 591 543 585 543 572 C543 565 539 555 529 543 L405 381 L292 538 C281 552 277 561 277 570 C277 585 289 591 322 591 L371 591 L371 667 L0 667 L0 591 L35 591 C77 589 97 576 136 523 L313 279 L313 137 C314 83 305 76 242 76 L179 76 L179 0 L586 0 L586 76 Z " />
<glyph glyph-name="Z" unicode="Z" horiz-adv-x="688" d="M42 0 L633 0 L633 302 L553 302 C536 105 506 75 330 76 L218 76 L633 581 L633 667 L63 667 L63 387 L143 387 C147 554 187 595 341 591 L460 591 L42 80 L42 0 Z " />
<glyph glyph-name="bracketleft" unicode="&#x5b;" horiz-adv-x="401" d="M94 -172 L355 -172 L355 -105 L222 -105 L222 600 L355 600 L355 667 L94 667 L94 -172 Z " />
<glyph glyph-name="backslash" unicode="&#x5c;" horiz-adv-x="388" d="M299 -92 L376 -92 L119 686 L42 686 L299 -92 Z " />
<glyph glyph-name="bracketright" unicode="&#x5d;" horiz-adv-x="401" d="M308 -172 L308 667 L47 667 L47 600 L180 600 L180 -105 L47 -105 L47 -172 L308 -172 Z " />
<glyph glyph-name="asciicircum" unicode="&#x5e;" horiz-adv-x="525" d="M138 360 L263 588 L388 360 L503 360 L334 670 L192 670 L23 360 L138 360 Z " />
<glyph glyph-name="underscore" unicode="&#x5f;" horiz-adv-x="500" d="M0 -63 L0 -137 L500 -137 L500 -63 L0 -63 Z " />
<glyph glyph-name="grave" unicode="&#x60;" horiz-adv-x="512" d="M331 540 L196 683 C163 718 144 730 121 730 C90 730 67 707 67 677 C67 653 81 637 117 619 L276 540 L331 540 Z " />
<glyph glyph-name="a" unicode="a" horiz-adv-x="594" d="M527 175 C526 136 525 111 524 102 C520 76 511 65 495 65 C478 65 470 76 470 100 L470 308 C470 395 461 421 419 451 C387 472 326 486 258 486 C137 486 56 437 56 363 C56 317 91 285 140 285 C184 285 214 311 214 348 C214 384 193 401 144 403 C174 424 200 432 242 432 C315 432 353 405 353 354 C353 309 330 289 261 273 C185 256 146 244 110 227 C59 204 31 161 31 110 C31 34 92 -18 183 -18 C259 -18 301 1 353 57 C373 3 403 -17 464 -17 C521 -17 557 4 576 47 C587 73 591 99 592 175 L527 175 Z M350 188 C350 144 340 118 316 95 C295 76 265 65 233 65 C190 65 165 86 165 122 C165 156 192 185 240 202 L297 222 C306 225 324 233 350 245 L350 188 Z " />
<glyph glyph-name="b" unicode="b" horiz-adv-x="620" d="M190 60 C249 3 297 -17 372 -17 C443 -17 492 5 533 55 C572 103 588 157 588 237 C588 392 507 486 372 486 C295 486 252 463 205 395 L205 667 L0 667 L0 600 L22 600 C77 599 85 591 85 541 L85 -5 L150 -5 L190 60 Z M333 400 C412 400 452 343 452 230 C452 123 411 66 333 66 C251 66 205 126 205 233 C205 340 251 400 333 400 L333 400 Z " />
<glyph glyph-name="c" unicode="c" horiz-adv-x="537" d="M423 195 C408 106 374 73 299 73 C211 73 166 128 166 236 C166 354 218 421 311 421 C348 421 369 413 411 385 C370 378 351 358 351 323 C351 284 382 257 427 257 C476 257 509 291 509 342 C509 426 423 486 303 486 C141 486 31 383 31 232 C31 81 131 -17 284 -17 C360 -17 418 5 455 48 C485 84 497 119 504 195 L423 195 Z " />
<glyph glyph-name="d" unicode="d" horiz-adv-x="652" d="M321 600 L362 600 C412 598 419 591 419 541 L419 391 C375 462 334 486 253 486 C115 486 36 395 36 236 C36 77 115 -14 253 -14 C334 -14 375 10 419 82 L419 0 L631 0 L631 67 L601 67 C546 69 539 76 539 126 L539 667 L321 667 L321 600 Z M291 400 C373 400 419 340 419 233 C419 126 373 66 291 66 C212 66 172 123 172 236 C172 343 214 400 291 400 L291 400 Z " />
<glyph glyph-name="e" unicode="e" horiz-adv-x="558" d="M434 167 C422 123 412 103 392 87 C372 71 341 62 305 62 C260 62 229 76 206 107 C186 135 178 162 173 225 L525 225 C520 325 506 371 468 416 C428 463 369 486 290 486 C135 486 31 384 31 233 C31 83 133 -18 286 -18 C351 -18 405 -2 446 29 C490 62 508 95 522 167 L434 167 Z M178 295 C188 345 197 367 217 389 C236 410 260 420 291 420 C351 420 376 387 387 295 L178 295 Z " />
<glyph glyph-name="f" unicode="f" horiz-adv-x="391" d="M120 398 L120 126 C120 76 113 69 56 67 L26 67 L26 0 L352 0 L352 67 L306 67 C253 69 246 77 246 126 L246 398 L352 398 L352 467 L246 467 L246 535 C246 608 264 633 315 633 C333 633 343 630 358 619 C328 610 314 592 314 564 C314 530 341 506 380 506 C422 506 450 535 450 580 C450 642 390 684 301 684 C180 684 120 617 120 483 L120 467 L26 467 L26 398 L120 398 Z " />
<glyph glyph-name="g" unicode="g" horiz-adv-x="693" d="M227 81 C188 81 176 83 164 94 C158 99 154 107 154 114 C154 126 162 136 186 149 C238 136 263 132 300 132 C442 132 530 199 530 308 C530 341 524 362 501 403 C526 433 545 444 571 444 C583 444 590 441 605 431 C570 421 555 405 555 376 C555 342 584 316 622 316 C663 316 691 346 691 388 C691 448 647 486 578 486 C537 486 512 475 475 441 C417 474 373 486 303 486 C162 486 70 416 70 309 C70 257 88 222 141 175 C74 149 48 121 48 76 C48 31 74 4 133 -13 C60 -35 36 -56 36 -98 C36 -171 133 -214 296 -214 C388 -214 469 -200 521 -175 C568 -152 599 -104 599 -53 C599 -7 573 36 533 56 C495 75 455 81 370 81 L227 81 Z M300 428 C368 428 399 391 399 309 C399 230 369 195 299 195 C231 195 202 231 202 315 C202 392 233 428 300 428 L300 428 Z M301 -25 C417 -25 453 -39 453 -84 C453 -132 398 -157 288 -157 C185 -157 134 -135 134 -89 C134 -72 143 -56 159 -45 C178 -31 221 -25 301 -25 L301 -25 Z " />
<glyph glyph-name="h" unicode="h" horiz-adv-x="678" d="M26 600 L54 600 C109 598 116 591 116 541 L116 126 C116 76 109 69 54 67 L26 67 L26 0 L320 0 L320 67 L298 67 C243 69 236 76 236 126 L236 243 C236 301 244 330 267 358 C292 389 329 407 367 407 C394 407 417 397 431 381 C443 366 446 352 446 311 L446 126 C446 76 439 69 384 67 L363 67 L363 0 L658 0 L658 67 L628 67 C573 69 566 76 566 126 L566 311 C566 382 556 418 530 443 C504 468 458 484 413 484 C346 484 302 460 236 387 L236 667 L26 667 L26 600 Z " />
<glyph glyph-name="i" unicode="i" horiz-adv-x="365" d="M178 675 C138 675 104 642 104 603 C104 560 137 527 179 527 C219 527 252 560 252 601 C252 642 219 675 178 675 L178 675 Z M26 0 L342 0 L342 67 L310 67 C256 69 248 77 248 126 L248 469 L26 469 L26 402 L64 402 C117 400 124 392 124 343 L124 126 C124 77 117 69 64 67 L26 67 L26 0 Z " />
<glyph glyph-name="j" unicode="j" horiz-adv-x="327" d="M21 402 L60 402 C111 400 118 392 118 343 L118 -58 C118 -105 116 -120 107 -137 C98 -153 79 -164 60 -164 C50 -164 37 -161 17 -154 C54 -147 70 -132 70 -101 C70 -65 45 -43 6 -43 C-37 -43 -68 -72 -68 -114 C-68 -171 -9 -214 72 -214 C131 -214 182 -192 211 -156 C231 -129 239 -93 239 -26 L239 469 L21 469 L21 402 Z M170 675 C130 675 96 642 96 603 C96 560 129 527 171 527 C211 527 244 560 244 601 C244 642 211 675 170 675 L170 675 Z " />
<glyph glyph-name="k" unicode="k" horiz-adv-x="667" d="M236 241 L236 667 L26 667 L26 600 L53 600 C106 598 113 591 113 541 L113 126 C113 77 106 70 53 67 L26 67 L26 0 L311 0 L311 67 L298 67 C244 70 236 77 236 126 L236 149 L337 224 L420 108 C426 99 432 87 432 82 C432 73 420 67 403 67 L367 67 L367 0 L669 0 L669 67 L645 67 C605 68 577 85 549 123 L425 289 L522 365 C561 395 572 400 613 402 L634 402 L634 469 L322 469 L322 402 L378 402 C408 402 415 399 415 388 C415 381 409 373 397 364 L236 241 Z " />
<glyph glyph-name="l" unicode="l" horiz-adv-x="355" d="M237 667 L21 667 L21 600 L53 600 C106 598 113 591 113 541 L113 126 C113 76 106 69 53 67 L21 67 L21 0 L332 0 L332 67 L299 67 C244 69 237 76 237 126 L237 667 Z " />
<glyph glyph-name="m" unicode="m" horiz-adv-x="970" d="M244 469 L26 469 L26 402 L60 402 C113 399 120 392 120 343 L120 126 C120 77 113 70 60 67 L26 67 L26 0 L315 0 L315 67 L303 67 C251 70 244 77 244 126 L244 277 C244 350 296 407 362 407 C388 407 410 398 421 383 C431 369 433 356 433 311 L433 126 C433 77 426 69 371 67 L359 67 L359 0 L626 0 L626 67 L614 67 C559 70 551 77 551 126 L551 277 C551 350 604 407 671 407 C697 407 720 398 731 383 C742 369 744 356 744 311 L744 126 C744 77 736 70 681 67 L669 67 L669 0 L954 0 L954 67 L924 67 C869 70 862 76 862 126 L862 311 C862 393 856 419 828 445 C803 470 763 484 719 484 C657 484 621 464 546 388 C516 459 480 484 412 484 C346 484 306 461 244 389 L244 469 Z " />
<glyph glyph-name="n" unicode="n" horiz-adv-x="683" d="M26 0 L326 0 L326 67 L305 67 C253 69 246 77 246 126 L246 247 C246 303 253 329 276 358 C301 389 337 407 375 407 C401 407 425 397 438 381 C450 366 453 352 453 311 L453 126 C453 76 446 70 391 67 L370 67 L370 0 L666 0 L666 67 L635 67 C581 69 573 77 573 126 L573 311 C573 382 563 418 537 443 C512 468 466 484 421 484 C354 484 310 459 246 386 L246 469 L26 469 L26 402 L60 402 C113 399 120 392 120 343 L120 126 C120 77 113 70 60 67 L26 67 L26 0 Z " />
<glyph glyph-name="o" unicode="o" horiz-adv-x="615" d="M308 486 C142 486 30 386 30 238 C30 82 138 -17 310 -17 C476 -17 586 83 586 234 C586 386 476 486 308 486 L308 486 Z M308 416 C403 416 450 356 450 235 C450 113 403 53 308 53 C212 53 166 113 166 237 C166 356 214 416 308 416 L308 416 Z " />
<glyph glyph-name="p" unicode="p" horiz-adv-x="652" d="M15 402 L41 402 C94 400 101 393 101 343 L101 -88 C101 -137 94 -145 41 -147 L10 -147 L10 -214 L333 -214 L333 -147 L287 -147 C234 -145 227 -137 227 -88 L227 78 C270 7 312 -17 392 -17 C528 -17 607 74 607 233 C607 392 528 483 392 483 C355 483 319 475 293 460 C269 447 252 428 227 387 L227 469 L15 469 L15 402 Z M353 403 C431 403 471 346 471 233 C471 126 430 69 353 69 C272 69 227 129 227 236 C227 343 272 403 353 403 L353 403 Z " />
<glyph glyph-name="q" unicode="q" horiz-adv-x="657" d="M646 -147 L613 -147 C560 -145 553 -137 553 -88 L553 343 C553 393 560 400 613 402 L639 402 L639 469 L428 469 L428 387 C407 422 391 441 373 454 C345 472 305 483 262 483 C125 483 47 392 47 233 C47 74 126 -17 262 -17 C299 -17 335 -9 361 5 C386 19 403 38 428 78 L428 -88 C428 -137 421 -145 368 -147 L321 -147 L321 -214 L646 -214 L646 -147 Z M301 403 C382 403 428 343 428 236 C428 129 382 69 301 69 C223 69 183 126 183 239 C183 346 224 403 301 403 L301 403 Z " />
<glyph glyph-name="r" unicode="r" horiz-adv-x="516" d="M357 67 L306 67 C253 69 246 77 246 126 L246 252 C246 301 258 347 279 377 C301 409 338 430 366 429 C377 428 392 425 410 419 C364 405 346 385 346 351 C346 314 375 290 418 290 C467 290 502 325 502 374 C502 436 449 482 378 482 C322 482 286 460 246 398 L246 469 L26 469 L26 402 L60 402 C113 399 120 392 120 343 L120 126 C120 77 113 70 60 67 L26 67 L26 0 L357 0 L357 67 Z " />
<glyph glyph-name="s" unicode="s" horiz-adv-x="516" d="M31 -6 L100 -6 L119 36 C191 -7 221 -17 285 -17 C409 -17 485 41 485 135 C485 215 432 261 309 289 L215 310 C169 320 151 335 151 361 C151 394 182 415 232 415 C266 415 309 402 334 384 C360 365 373 345 388 302 L459 302 L459 475 L399 475 L377 439 C324 473 284 486 228 486 C113 486 36 427 36 339 C36 266 88 219 196 194 L273 177 C343 161 367 146 367 115 C367 78 332 55 276 55 C244 55 214 62 190 74 C146 96 126 125 107 186 L31 186 L31 -6 Z " />
<glyph glyph-name="t" unicode="t" horiz-adv-x="422" d="M100 400 L100 147 C100 87 106 59 124 32 C145 -1 181 -17 230 -17 C289 -17 332 5 353 46 C371 80 376 114 376 186 C376 190 376 206 375 221 L308 221 C306 137 306 133 301 111 C296 86 282 75 258 75 C229 75 220 89 220 133 L220 400 L360 400 L360 469 L225 469 L225 653 L159 653 C146 525 116 486 16 465 L16 400 L100 400 Z " />
<glyph glyph-name="u" unicode="u" horiz-adv-x="678" d="M26 402 L49 402 C99 400 106 392 106 343 L106 158 C106 86 116 50 143 26 C170 1 217 -15 263 -15 C332 -15 378 9 445 82 L445 0 L654 0 L654 67 L626 67 C572 69 565 76 565 126 L565 469 L342 469 L342 402 L388 402 C438 400 445 392 445 343 L445 221 C445 167 437 139 413 111 C386 80 349 62 309 62 C281 62 256 72 242 88 C229 102 226 116 226 158 L226 469 L26 469 L26 402 Z " />
<glyph glyph-name="v" unicode="v" horiz-adv-x="579" d="M218 0 L351 0 L478 342 C493 383 510 399 541 402 L567 402 L567 469 L324 469 L324 402 L349 402 C382 402 396 394 396 377 C396 368 393 355 389 344 L305 118 L228 335 C222 350 219 366 219 376 C219 395 230 402 259 402 L276 402 L276 469 L5 469 L5 402 L35 402 C64 400 81 385 91 352 L218 0 Z " />
<glyph glyph-name="w" unicode="w" horiz-adv-x="860" d="M211 0 L336 0 L431 262 L519 0 L642 0 L760 337 C779 389 791 402 818 402 L840 402 L840 469 L624 469 L624 402 L650 402 C671 402 683 393 683 377 C683 366 679 347 673 328 L596 103 L513 348 C509 358 507 371 507 379 C507 395 517 402 539 402 L570 402 L570 469 L318 469 L318 402 L338 402 C374 402 385 395 385 373 C385 365 383 355 378 342 L290 109 L218 338 C211 360 209 370 209 378 C209 396 217 402 243 402 L268 402 L268 469 L10 469 L10 402 L32 402 C68 400 78 391 93 344 L211 0 Z " />
<glyph glyph-name="x" unicode="x" horiz-adv-x="673" d="M5 0 L286 0 L286 67 L246 67 C229 67 217 73 217 81 C217 86 222 92 235 104 L322 178 L397 105 C407 95 412 87 412 81 C412 72 397 67 372 67 L350 67 L350 0 L660 0 L660 67 L638 67 C607 67 586 79 541 120 L407 252 L522 352 C563 388 582 398 623 402 L644 402 L644 469 L380 469 L380 402 L402 402 C425 402 437 397 437 387 C437 381 432 375 414 359 L350 303 L291 365 C277 379 275 382 275 388 C275 397 286 402 305 402 L327 402 L327 469 L26 469 L26 402 L47 402 C87 399 107 390 141 355 L264 231 L119 107 C87 81 55 66 31 67 L5 67 L5 0 Z " />
<glyph glyph-name="y" unicode="y" horiz-adv-x="610" d="M267 0 C217 -116 186 -149 129 -149 C107 -149 97 -144 77 -125 C128 -125 153 -105 153 -66 C153 -28 123 0 81 0 C30 0 -5 -37 -5 -89 C-5 -161 57 -214 141 -214 C244 -214 293 -159 384 56 L500 331 C526 385 542 400 577 402 L600 402 L600 469 L349 469 L349 402 L377 402 C410 402 423 395 423 377 C423 369 420 357 416 347 L330 140 L234 356 C230 364 228 372 228 380 C228 394 240 402 264 402 L300 402 L300 469 L-2 469 L-2 402 L29 402 C68 400 85 387 107 342 L267 0 Z " />
<glyph glyph-name="z" unicode="z" horiz-adv-x="527" d="M21 0 L483 0 L483 224 L410 224 C401 85 384 67 261 67 L170 67 L483 394 L483 469 L42 469 L42 262 L115 262 C119 377 139 402 229 402 L338 402 L21 73 L21 0 Z " />
<glyph glyph-name="braceleft" unicode="&#x7b;" horiz-adv-x="401" d="M234 522 C235 577 236 582 253 594 C268 605 281 607 332 607 C336 607 347 607 359 606 L359 669 C313 671 300 671 283 671 C149 671 106 637 106 529 L106 358 C105 303 90 281 44 272 L44 212 C91 201 106 179 106 122 L106 -41 C106 -151 149 -187 280 -187 C305 -187 325 -187 359 -185 L359 -122 C347 -123 336 -123 332 -123 C288 -123 267 -120 255 -112 C237 -100 235 -95 234 -37 L234 119 C233 184 218 215 174 242 C219 269 232 295 234 365 L234 522 Z " />
<glyph glyph-name="bar" unicode="&#x7c;" horiz-adv-x="519" d="M198 667 L198 -167 L320 -167 L320 667 L198 667 Z " />
<glyph glyph-name="braceright" unicode="&#x7d;" horiz-adv-x="401" d="M168 -39 C167 -93 166 -98 149 -110 C134 -121 120 -123 69 -123 C65 -123 54 -123 42 -122 L42 -185 C90 -187 103 -187 118 -187 C253 -187 296 -153 296 -45 L296 126 C297 181 312 202 357 211 L357 272 C311 282 296 305 296 362 L296 525 C296 635 253 671 122 671 C95 671 75 670 42 669 L42 606 C54 607 65 607 69 607 C114 607 134 604 147 596 C165 584 167 579 168 521 L168 365 C169 299 184 268 228 242 C183 215 170 189 168 119 L168 -39 Z " />
<glyph glyph-name="asciitilde" unicode="&#x7e;" horiz-adv-x="676" d="M159 564 C187 613 207 630 237 630 C258 630 272 625 330 600 C397 570 412 565 437 565 C497 565 539 603 580 693 L519 743 C492 695 470 676 440 676 C419 676 408 680 352 705 C295 732 268 740 241 740 C181 740 135 700 98 613 L159 564 Z " />
<glyph glyph-name="uni00A0" unicode="&#xa0;" horiz-adv-x="250" d="" />
<glyph glyph-name="exclamdown" unicode="&#xa1;" horiz-adv-x="323" d="M161 484 C119 484 85 451 85 410 C85 369 119 336 162 336 C204 336 240 369 240 408 C240 451 206 484 161 484 L161 484 Z M130 277 C122 177 117 135 98 -9 C83 -116 83 -119 83 -142 C83 -196 107 -220 161 -220 C213 -220 238 -195 238 -142 C238 -120 238 -117 225 -9 C205 151 203 165 195 277 L130 277 Z " />
<glyph glyph-name="cent" unicode="&#xa2;" horiz-adv-x="652" d="M151 -99 L212 -99 L268 5 C295 2 322 0 336 0 C407 0 469 26 505 70 C533 104 544 138 552 212 L470 212 C463 169 457 151 443 131 C424 106 391 90 357 90 C345 90 331 91 315 93 L422 290 C443 277 453 274 472 274 C522 274 556 309 556 361 C556 394 546 414 511 453 L573 569 L512 569 L464 482 C416 500 393 504 353 504 C188 504 78 402 78 249 C78 200 90 152 111 114 C132 77 156 55 216 21 L151 -99 Z M267 116 C225 153 213 184 213 254 C213 372 265 438 358 438 C395 438 416 430 458 402 C431 397 427 395 408 375 L267 116 Z " />
<glyph glyph-name="sterling" unicode="&#xa3;" horiz-adv-x="652" d="M86 -14 C139 32 171 47 219 47 C252 47 284 39 335 17 C399 -10 423 -17 457 -17 C513 -17 559 9 583 56 C601 90 606 119 606 181 L606 195 L549 195 C544 124 528 98 488 98 C472 98 465 100 410 123 C374 138 333 148 306 148 C282 148 260 142 213 122 L210 129 C265 161 297 212 300 270 L424 270 L424 329 L292 329 C283 348 276 362 272 371 L263 389 C245 428 240 443 240 465 C240 520 292 559 364 559 C410 559 435 550 480 515 C441 499 426 482 426 453 C426 415 459 386 504 386 C556 386 593 422 593 472 C593 557 487 621 344 621 C196 621 93 552 93 453 C93 419 103 390 135 329 L51 329 L51 270 L154 270 L154 253 C154 165 134 130 47 66 L86 -14 Z " />
<glyph glyph-name="currency" unicode="&#xa4;" horiz-adv-x="700" d="M33 133 L97 72 L202 172 C256 138 299 125 351 125 C404 125 451 140 500 172 L605 72 L669 133 L563 234 C597 282 611 322 611 372 C611 422 597 461 561 512 L666 612 L602 673 L497 573 C447 605 405 618 351 618 C297 618 254 605 202 572 L96 673 L32 612 L139 511 C104 464 90 423 90 373 C90 322 106 277 138 233 L33 133 Z M352 518 C438 518 509 452 509 371 C509 291 438 225 350 225 C263 225 192 291 192 371 C192 453 263 518 352 518 L352 518 Z " />
<glyph glyph-name="yen" unicode="&#xa5;" horiz-adv-x="759" d="M315 203 L315 125 C315 75 308 69 251 69 L194 69 L194 0 L564 0 L564 69 L507 69 C449 69 442 75 442 125 L442 203 L630 203 L630 261 L448 261 L493 316 L637 316 L637 374 L539 374 L634 496 C661 529 672 535 708 536 L730 536 L730 605 L436 605 L436 536 L490 536 C513 536 524 531 524 519 C524 512 520 503 512 492 L400 345 L296 487 C286 501 282 509 282 516 C282 531 293 536 324 536 L368 536 L368 605 L32 605 L32 536 L63 536 C102 534 120 522 155 474 L227 374 L121 374 L121 316 L269 316 L309 261 L128 261 L128 203 L315 203 Z " />
<glyph glyph-name="brokenbar" unicode="&#xa6;" horiz-adv-x="519" d="M198 667 L198 322 L320 322 L320 667 L198 667 Z M198 153 L198 -167 L320 -167 L320 153 L198 153 Z " />
<glyph glyph-name="section" unicode="&#xa7;" horiz-adv-x="620" d="M289 458 C205 488 185 505 185 547 C185 599 238 634 316 634 C349 634 370 630 412 616 C386 597 376 581 376 559 C376 526 408 498 446 498 C488 498 518 529 518 571 C518 639 436 687 321 687 C183 687 90 622 90 526 C90 474 112 441 178 396 C86 359 47 314 47 245 C47 200 69 158 105 133 C135 112 174 95 242 72 L326 44 C409 17 433 -5 433 -52 C433 -87 418 -114 389 -131 C360 -148 323 -157 283 -157 C247 -157 225 -151 177 -130 C216 -111 225 -99 225 -68 C225 -32 194 -6 153 -6 C109 -6 75 -40 75 -83 C75 -156 171 -214 293 -214 C435 -214 534 -138 534 -29 C534 28 510 61 439 104 C483 125 501 135 520 153 C550 180 568 217 568 254 C568 322 515 378 419 412 L289 458 Z M217 196 C159 218 141 236 141 274 C141 298 151 317 171 333 C192 349 210 355 251 360 L384 313 C448 291 472 266 472 224 C472 179 439 152 366 139 L217 196 Z " />
<glyph glyph-name="dieresis" unicode="&#xa8;" horiz-adv-x="518" d="M161 699 C123 699 90 667 90 630 C90 591 121 560 161 560 C199 560 229 590 229 629 C229 668 198 699 161 699 L161 699 Z M359 699 C321 699 288 667 288 630 C288 591 319 560 359 560 C397 560 427 590 427 629 C427 668 396 699 359 699 L359 699 Z " />
<glyph glyph-name="copyright" unicode="&#xa9;" horiz-adv-x="831" d="M532 294 C524 253 515 235 498 218 C480 200 455 190 425 190 C351 190 308 241 308 331 C308 425 352 482 424 482 C456 482 485 470 505 449 C522 431 530 412 537 370 L589 370 L589 529 L540 529 L529 497 C483 526 459 534 415 534 C301 534 212 447 212 334 C212 217 299 132 419 132 C475 132 519 149 549 184 C573 211 583 237 589 294 L532 294 Z M421 681 C206 681 37 528 37 333 C37 142 207 -14 416 -14 C624 -14 793 141 793 333 C793 523 624 681 421 681 L421 681 Z M420 625 C588 625 728 493 728 333 C728 173 588 42 416 42 C243 42 102 173 102 333 C102 497 242 625 420 625 L420 625 Z " />
<glyph glyph-name="ordfeminine" unicode="&#xaa;" horiz-adv-x="381" d="M332 438 C332 385 329 373 315 373 C306 373 303 378 303 390 L303 513 C303 566 297 582 269 600 C249 614 210 622 166 622 C88 622 36 591 36 545 C36 516 59 496 92 496 C121 496 142 513 142 536 C142 557 130 568 105 572 C119 580 136 584 157 584 C200 584 223 569 223 541 C223 516 210 505 168 497 C55 473 20 449 20 396 C20 349 60 317 119 317 C166 317 194 328 225 359 C239 329 258 318 296 318 C333 318 357 331 370 358 C377 373 379 388 380 438 L332 438 Z M221 443 C221 399 195 373 151 373 C125 373 111 384 111 403 C111 422 127 438 156 447 L192 459 C197 461 207 465 221 471 L221 443 Z " />
<glyph glyph-name="guillemotleft" unicode="&#xab;" horiz-adv-x="506" d="M160 72 L235 72 L205 139 C175 205 170 219 170 237 C170 256 175 270 205 336 L235 403 L160 403 L119 346 C84 298 63 258 63 238 C63 217 84 177 119 129 L160 72 Z M364 72 L440 72 L410 139 C380 205 375 219 375 237 C375 256 380 270 410 336 L440 403 L364 403 L323 346 C289 299 268 257 268 238 C268 218 289 176 323 129 L364 72 Z " />
<glyph glyph-name="logicalnot" unicode="&#xac;" horiz-adv-x="525" d="M372 0 L490 0 L490 286 L35 286 L35 179 L372 179 L372 0 Z " />
<glyph glyph-name="uni00AD" unicode="&#xad;" horiz-adv-x="283" d="M0 184 L283 184 L283 290 L0 290 L0 184 Z " />
<glyph glyph-name="registered" unicode="&#xae;" horiz-adv-x="831" d="M429 192 L397 192 C363 192 360 194 360 223 L360 320 L385 320 C455 319 473 305 476 247 L477 204 C479 158 508 132 558 132 C603 132 629 151 639 189 C643 204 643 211 643 256 L598 256 C598 203 596 193 584 193 C573 193 570 198 569 222 L566 255 C565 304 548 325 502 336 C568 348 601 379 601 430 C601 493 552 523 450 523 L208 523 L208 474 L236 474 C270 474 273 472 273 443 L273 223 C273 194 270 192 236 192 L208 192 L208 143 L429 143 L429 192 Z M360 369 L360 474 L426 474 C490 474 511 461 511 421 C511 384 487 369 428 369 L360 369 Z M421 681 C206 681 37 528 37 333 C37 142 207 -14 416 -14 C624 -14 793 141 793 333 C793 523 624 681 421 681 L421 681 Z M420 625 C588 625 728 493 728 333 C728 173 588 42 416 42 C243 42 102 173 102 333 C102 497 242 625 420 625 L420 625 Z " />
<glyph glyph-name="macron" unicode="&#xaf;" horiz-adv-x="510" d="M106 588 L404 588 L404 670 L106 670 L106 588 Z " />
<glyph glyph-name="degree" unicode="&#xb0;" horiz-adv-x="400" d="M203 686 C117 686 50 619 50 534 C50 448 116 381 200 381 C284 381 350 448 350 533 C350 619 286 686 203 686 L203 686 Z M202 629 C252 629 293 586 293 534 C293 480 252 438 200 438 C148 438 106 481 106 533 C106 587 148 629 202 629 L202 629 Z " />
<glyph glyph-name="plusminus" unicode="&#xb1;" horiz-adv-x="549" d="M11 55 L11 0 L535 0 L535 55 L11 55 Z M302 662 L247 662 L247 423 L10 423 L10 368 L247 368 L247 129 L302 129 L302 368 L539 368 L539 423 L302 423 L302 662 Z " />
<glyph glyph-name="twosuperior" unicode="&#xb2;" horiz-adv-x="412" d="M73 264 C78 293 87 302 110 302 C121 302 135 299 147 294 C216 264 239 257 275 257 C307 257 334 270 351 295 C368 318 374 340 374 388 L337 388 C330 338 319 325 284 325 C276 325 265 326 231 332 C197 338 156 343 143 343 C126 343 114 340 91 328 C116 368 148 384 236 401 C292 411 318 422 339 442 C355 457 364 481 364 505 C364 571 297 615 197 615 C112 615 44 570 44 513 C44 480 71 455 107 455 C138 455 160 473 160 499 C160 520 141 536 117 536 C111 536 102 535 92 533 C112 564 136 576 177 576 C232 576 269 549 269 510 C269 476 249 456 197 437 C69 391 31 351 35 264 L73 264 Z " />
<glyph glyph-name="threesuperior" unicode="&#xb3;" horiz-adv-x="412" d="M161 427 C200 427 220 425 238 418 C260 409 275 386 275 361 C275 322 236 296 176 296 C138 296 117 302 88 322 C123 323 142 337 142 363 C142 388 121 405 90 405 C55 405 31 383 31 352 C31 297 97 257 188 257 C299 257 370 298 370 361 C370 385 358 408 337 422 C319 435 302 441 260 449 C297 457 312 462 328 472 C347 484 359 505 359 527 C359 580 298 615 204 615 C113 615 45 577 45 527 C45 501 68 482 100 482 C130 482 151 499 151 523 C151 543 138 554 111 558 C142 575 157 579 186 579 C236 579 269 556 269 522 C269 501 257 485 235 476 C219 470 203 469 161 468 L161 427 Z " />
<glyph glyph-name="acute" unicode="&#xb4;" horiz-adv-x="512" d="M156 540 L211 540 L369 619 C406 637 420 653 420 677 C420 707 397 730 367 730 C343 730 324 718 291 683 L156 540 Z " />
<glyph glyph-name="mu" unicode="&#xb5;" horiz-adv-x="576" d="M442 500 L353 500 L354 131 C318 80 284 58 242 58 C184 58 150 99 150 169 L150 500 L62 500 L62 20 C62 -1 58 -26 51 -56 C34 -118 33 -123 33 -147 C33 -190 54 -219 83 -219 C112 -219 132 -189 132 -145 C132 -124 129 -110 113 -53 C102 -17 101 -8 101 21 L101 33 C143 -3 165 -13 200 -13 C250 -13 301 18 354 80 C362 48 367 36 377 21 C392 0 419 -13 449 -13 C510 -13 553 31 567 108 L540 109 C536 71 515 41 492 41 C462 41 442 77 442 131 L442 500 Z " />
<glyph glyph-name="paragraph" unicode="&#xb6;" horiz-adv-x="632" d="M234 -94 L329 -94 L329 581 L429 581 L429 -94 L524 -94 L524 581 L599 581 L599 667 L269 667 C207 667 151 657 118 640 C63 612 31 557 31 490 C31 389 108 319 220 319 C222 319 228 319 234 320 L234 -94 Z " />
<glyph glyph-name="periodcentered" unicode="&#xb7;" horiz-adv-x="323" d="M161 308 C119 308 83 275 83 236 C83 194 117 161 161 161 C204 161 238 194 238 235 C238 275 204 308 161 308 L161 308 Z " />
<glyph glyph-name="cedilla" unicode="&#xb8;" horiz-adv-x="524" d="M122 -182 C192 -214 241 -227 289 -227 C359 -227 403 -192 403 -136 C403 -89 367 -53 319 -53 C306 -53 291 -54 275 -56 L275 0 L233 0 L233 -99 C246 -97 259 -96 267 -96 C296 -96 314 -111 314 -135 C314 -158 297 -171 267 -171 C232 -171 191 -158 146 -132 L122 -182 Z " />
<glyph glyph-name="onesuperior" unicode="&#xb9;" horiz-adv-x="412" d="M94 267 L341 267 L341 307 L306 307 C264 307 260 310 260 339 L260 609 L208 609 C182 570 165 563 94 557 L94 518 L175 518 L175 340 C175 311 169 307 123 307 L94 307 L94 267 Z " />
<glyph glyph-name="ordmasculine" unicode="&#xba;" horiz-adv-x="394" d="M198 621 C91 621 19 561 19 472 C19 378 89 318 199 318 C305 318 376 379 376 469 C376 561 305 621 198 621 L198 621 Z M197 573 C256 573 284 539 284 469 C284 400 256 366 198 366 C139 366 111 400 111 471 C111 539 140 573 197 573 L197 573 Z " />
<glyph glyph-name="guillemotright" unicode="&#xbb;" horiz-adv-x="506" d="M138 72 L180 129 C214 176 235 218 235 238 C235 257 214 299 180 346 L138 403 L63 403 L93 336 C123 270 128 256 128 237 C128 219 123 204 93 139 L63 72 L138 72 Z M343 72 L384 129 C420 178 440 217 440 238 C440 258 420 297 384 346 L343 403 L268 403 L297 336 C328 271 333 256 333 237 C333 219 327 204 297 139 L268 72 L343 72 Z " />
<glyph glyph-name="onequarter" unicode="&#xbc;" horiz-adv-x="996" d="M94 267 L341 267 L341 307 L306 307 C264 307 260 310 260 339 L260 609 L208 609 C182 570 165 563 94 557 L94 518 L175 518 L175 340 C175 311 169 307 123 307 L94 307 L94 267 Z M240 -17 L320 -17 L762 622 L679 622 L240 -17 Z M732 0 L964 0 L964 40 L927 40 C893 42 887 47 887 70 L887 94 L964 94 L964 142 L887 142 L887 342 L824 342 L605 136 L605 94 L804 94 L804 70 C805 44 800 40 756 40 L732 40 L732 0 Z M804 142 L677 142 L807 264 L804 142 Z " />
<glyph glyph-name="onehalf" unicode="&#xbd;" horiz-adv-x="996" d="M94 267 L341 267 L341 307 L306 307 C264 307 260 310 260 339 L260 609 L208 609 C182 570 165 563 94 557 L94 518 L175 518 L175 340 C175 311 169 307 123 307 L94 307 L94 267 Z M240 -17 L320 -17 L762 622 L679 622 L240 -17 Z M653 -2 C659 26 668 35 690 35 C702 35 716 32 727 27 C794 -2 820 -9 855 -9 C887 -9 914 4 932 28 C949 52 954 73 954 121 L917 121 C910 71 899 58 864 58 C856 58 846 59 811 65 C777 71 736 76 723 76 C706 76 695 73 671 62 C696 101 729 118 816 134 C908 151 944 181 944 237 C944 304 877 348 777 348 C692 348 624 303 624 246 C624 213 651 188 687 188 C718 188 740 206 740 232 C740 253 722 269 697 269 C691 269 682 268 672 266 C693 297 717 309 757 309 C812 309 849 282 849 243 C849 209 829 189 777 170 C649 124 612 84 615 -2 L653 -2 Z " />
<glyph glyph-name="threequarters" unicode="&#xbe;" horiz-adv-x="996" d="M161 427 C200 427 220 425 238 418 C260 409 275 386 275 361 C275 322 236 296 176 296 C138 296 117 302 88 322 C123 323 142 337 142 363 C142 388 121 405 90 405 C55 405 31 383 31 352 C31 297 97 257 188 257 C299 257 370 298 370 361 C370 385 358 408 337 422 C319 435 302 441 260 449 C297 457 312 462 328 472 C347 484 359 505 359 527 C359 580 298 615 204 615 C113 615 45 577 45 527 C45 501 68 482 100 482 C130 482 151 499 151 523 C151 543 138 554 111 558 C142 575 157 579 186 579 C236 579 269 556 269 522 C269 501 257 485 235 476 C219 470 203 469 161 468 L161 427 Z M240 -17 L319 -17 L761 622 L678 622 L240 -17 Z M731 0 L964 0 L964 40 L927 40 C893 42 887 47 887 70 L887 94 L964 94 L964 142 L887 142 L887 342 L823 342 L605 136 L605 94 L804 94 L804 70 C805 44 799 40 755 40 L731 40 L731 0 Z M804 142 L676 142 L806 264 L804 142 Z " />
<glyph glyph-name="questiondown" unicode="&#xbf;" horiz-adv-x="521" d="M288 483 C246 483 212 450 212 409 C212 369 246 336 289 336 C331 336 367 369 367 408 C367 450 333 483 288 483 L288 483 Z M321 277 L254 277 C251 220 238 196 184 157 C98 98 98 98 72 74 C38 41 21 5 21 -38 C21 -144 121 -220 262 -220 C401 -220 499 -143 499 -36 C499 34 453 87 392 87 C344 87 305 53 305 10 C305 -27 333 -55 371 -55 C391 -55 405 -50 430 -31 C424 -76 415 -96 389 -116 C364 -136 331 -147 297 -147 C218 -147 163 -102 163 -37 C163 4 175 23 237 83 C305 150 322 180 322 240 L321 277 Z " />
<glyph glyph-name="Agrave" unicode="&#xc0;" horiz-adv-x="751" d="M-16 0 L310 0 L310 76 L255 76 C209 76 199 80 199 98 C199 104 201 113 207 129 L238 212 L469 212 L499 134 C504 120 508 106 508 101 C508 81 496 76 450 76 L393 76 L393 0 L755 0 L755 76 L734 76 C681 76 671 84 650 140 L441 667 L294 667 L99 140 C82 91 60 76 6 76 L-16 76 L-16 0 Z M440 290 L267 290 L349 522 L440 290 Z M411 721 L465 721 L328 842 C306 861 293 868 276 868 C251 868 230 847 230 822 C230 801 246 782 273 772 L411 721 Z " />
<glyph glyph-name="Aacute" unicode="&#xc1;" horiz-adv-x="751" d="M-16 0 L310 0 L310 76 L255 76 C209 76 199 80 199 98 C199 104 201 113 207 129 L238 212 L469 212 L499 134 C504 120 508 106 508 101 C508 81 496 76 450 76 L393 76 L393 0 L755 0 L755 76 L734 76 C681 76 671 84 650 140 L441 667 L294 667 L99 140 C82 91 60 76 6 76 L-16 76 L-16 0 Z M440 290 L267 290 L349 522 L440 290 Z M340 721 L478 772 C504 782 521 801 521 822 C521 847 500 868 475 868 C459 868 446 862 424 842 L286 721 L340 721 Z " />
<glyph glyph-name="Acircumflex" unicode="&#xc2;" horiz-adv-x="751" d="M-16 0 L310 0 L310 76 L255 76 C209 76 199 80 199 98 C199 104 201 113 207 129 L238 212 L469 212 L499 134 C504 120 508 106 508 101 C508 81 496 76 450 76 L393 76 L393 0 L755 0 L755 76 L734 76 C681 76 671 84 650 140 L441 667 L294 667 L99 140 C82 91 60 76 6 76 L-16 76 L-16 0 Z M440 290 L267 290 L349 522 L440 290 Z M221 721 L267 721 L375 776 L483 721 L529 721 L433 858 L317 858 L221 721 Z " />
<glyph glyph-name="Atilde" unicode="&#xc3;" horiz-adv-x="751" d="M-16 0 L310 0 L310 76 L255 76 C209 76 199 80 199 98 C199 104 201 113 207 129 L238 212 L469 212 L499 134 C504 120 508 106 508 101 C508 81 496 76 450 76 L393 76 L393 0 L755 0 L755 76 L734 76 C681 76 671 84 650 140 L441 667 L294 667 L99 140 C82 91 60 76 6 76 L-16 76 L-16 0 Z M440 290 L267 290 L349 522 L440 290 Z M262 720 C270 748 284 761 304 761 C312 761 323 759 335 756 L389 741 C400 739 411 737 420 737 C447 737 470 748 488 769 C507 790 516 810 526 858 L488 858 C478 828 467 818 445 818 C439 818 431 819 424 821 L367 836 C355 839 343 841 331 841 C273 841 244 808 224 720 L262 720 Z " />
<glyph glyph-name="Adieresis" unicode="&#xc4;" horiz-adv-x="751" d="M-16 0 L310 0 L310 76 L255 76 C209 76 199 80 199 98 C199 104 201 113 207 129 L238 212 L469 212 L499 134 C504 120 508 106 508 101 C508 81 496 76 450 76 L393 76 L393 0 L755 0 L755 76 L734 76 C681 76 671 84 650 140 L441 667 L294 667 L99 140 C82 91 60 76 6 76 L-16 76 L-16 0 Z M440 290 L267 290 L349 522 L440 290 Z M274 858 C238 858 206 826 206 791 C206 752 236 722 275 722 C311 722 342 753 342 789 C342 826 311 858 274 858 L274 858 Z M469 858 C433 858 401 826 401 791 C401 752 431 722 470 722 C506 722 537 753 537 789 C537 826 506 858 469 858 L469 858 Z " />
<glyph glyph-name="Aring" unicode="&#xc5;" horiz-adv-x="751" d="M-16 0 L310 0 L310 76 L255 76 C209 76 199 80 199 98 C199 104 201 113 207 129 L238 212 L469 212 L499 134 C504 120 508 106 508 101 C508 81 496 76 450 76 L393 76 L393 0 L755 0 L755 76 L734 76 C681 76 671 84 650 140 L441 667 L294 667 L99 140 C82 91 60 76 6 76 L-16 76 L-16 0 Z M440 290 L267 290 L349 522 L440 290 Z M366 932 C307 932 258 885 258 828 C258 766 307 716 367 716 C424 716 474 767 474 826 C474 885 426 932 366 932 L366 932 Z M366 873 C393 873 415 851 415 824 C415 798 393 776 367 776 C339 776 317 798 317 825 C317 851 340 873 366 873 L366 873 Z " />
<glyph glyph-name="AE" unicode="&#xc6;" horiz-adv-x="1152" d="M280 234 L500 234 L500 138 C501 83 492 75 429 76 L378 76 L378 0 L1072 0 L1072 283 L992 283 C977 113 946 75 822 76 L637 76 L637 310 L678 310 C766 311 781 294 789 174 L870 174 L870 507 L789 507 C779 398 771 388 677 386 L637 386 L637 591 L807 591 C951 593 986 558 992 402 L1072 402 L1072 667 L231 667 L231 591 L280 591 C328 591 342 586 342 567 C342 560 339 552 326 529 L106 140 C78 97 43 76 1 76 L-16 76 L-16 0 L302 0 L302 76 L253 76 C222 76 208 81 208 93 C208 101 211 108 229 141 L280 234 Z M500 310 L322 310 L478 591 L500 591 L500 310 Z " />
<glyph glyph-name="Ccedilla" unicode="&#xc7;" horiz-adv-x="740" d="M383 -19 C463 -17 525 -1 566 26 C644 85 671 137 685 258 L596 258 C581 186 567 154 536 123 C502 89 457 72 404 72 C340 72 282 97 245 142 C210 185 192 247 192 330 C192 501 272 605 402 605 C460 605 511 584 547 544 C578 510 592 478 605 404 L685 404 L685 677 L610 677 L589 617 C506 672 463 686 384 686 C189 686 36 532 36 334 C36 149 160 7 341 -16 L341 -101 C354 -99 367 -98 374 -98 C403 -98 421 -113 421 -136 C421 -158 404 -171 375 -171 C340 -171 299 -158 255 -132 L230 -182 C302 -214 349 -227 397 -227 C467 -227 512 -191 512 -137 C512 -91 475 -55 427 -55 C415 -55 399 -56 383 -59 L383 -19 Z " />
<glyph glyph-name="Egrave" unicode="&#xc8;" horiz-adv-x="787" d="M26 0 L714 0 L714 283 L634 283 C619 112 589 75 465 76 L279 76 L279 310 L320 310 C409 311 423 294 432 174 L513 174 L513 507 L432 507 C421 397 413 389 319 386 L279 386 L279 591 L449 591 C594 593 629 558 634 402 L714 402 L714 667 L26 667 L26 591 L68 591 C131 592 139 584 139 529 L139 138 C139 83 131 75 68 76 L26 76 L26 0 Z M430 721 L484 721 L346 842 C324 862 311 868 295 868 C270 868 249 847 249 822 C249 801 265 782 292 772 L430 721 Z " />
<glyph glyph-name="Eacute" unicode="&#xc9;" horiz-adv-x="787" d="M26 0 L714 0 L714 283 L634 283 C619 112 589 75 465 76 L279 76 L279 310 L320 310 C409 311 423 294 432 174 L513 174 L513 507 L432 507 C421 397 413 389 319 386 L279 386 L279 591 L449 591 C594 593 629 558 634 402 L714 402 L714 667 L26 667 L26 591 L68 591 C131 592 139 584 139 529 L139 138 C139 83 131 75 68 76 L26 76 L26 0 Z M359 721 L497 772 C524 782 540 801 540 822 C540 847 519 868 494 868 C477 868 464 861 442 842 L305 721 L359 721 Z " />
<glyph glyph-name="Ecircumflex" unicode="&#xca;" horiz-adv-x="787" d="M26 0 L714 0 L714 283 L634 283 C619 112 589 75 465 76 L279 76 L279 310 L320 310 C409 311 423 294 432 174 L513 174 L513 507 L432 507 C421 397 413 389 319 386 L279 386 L279 591 L449 591 C594 593 629 558 634 402 L714 402 L714 667 L26 667 L26 591 L68 591 C131 592 139 584 139 529 L139 138 C139 83 131 75 68 76 L26 76 L26 0 Z M240 721 L286 721 L394 776 L501 721 L548 721 L451 858 L336 858 L240 721 Z " />
<glyph glyph-name="Edieresis" unicode="&#xcb;" horiz-adv-x="787" d="M26 0 L714 0 L714 283 L634 283 C619 112 589 75 465 76 L279 76 L279 310 L320 310 C409 311 423 294 432 174 L513 174 L513 507 L432 507 C421 397 413 389 319 386 L279 386 L279 591 L449 591 C594 593 629 558 634 402 L714 402 L714 667 L26 667 L26 591 L68 591 C131 592 139 584 139 529 L139 138 C139 83 131 75 68 76 L26 76 L26 0 Z M296 858 C260 858 228 826 228 791 C228 752 258 722 297 722 C333 722 364 753 364 789 C364 826 333 858 296 858 L296 858 Z M491 858 C455 858 423 826 423 791 C423 752 453 722 492 722 C528 722 559 753 559 789 C559 826 528 858 491 858 L491 858 Z " />
<glyph glyph-name="Igrave" unicode="&#xcc;" horiz-adv-x="433" d="M28 0 L405 0 L405 76 L359 76 C295 75 286 83 287 137 L287 530 C286 584 295 592 359 591 L405 591 L405 667 L28 667 L28 591 L74 591 C137 592 146 584 145 530 L145 137 C145 83 137 75 74 76 L28 76 L28 0 Z M253 721 L307 721 L169 842 C147 862 134 868 118 868 C93 868 72 847 72 822 C72 801 88 782 115 772 L253 721 Z " />
<glyph glyph-name="Iacute" unicode="&#xcd;" horiz-adv-x="433" d="M28 0 L405 0 L405 76 L359 76 C295 75 286 83 287 137 L287 530 C286 584 295 592 359 591 L405 591 L405 667 L28 667 L28 591 L74 591 C137 592 146 584 145 530 L145 137 C145 83 137 75 74 76 L28 76 L28 0 Z M182 721 L320 772 C347 782 363 801 363 822 C363 847 342 868 317 868 C300 868 287 861 265 842 L128 721 L182 721 Z " />
<glyph glyph-name="Icircumflex" unicode="&#xce;" horiz-adv-x="433" d="M28 0 L405 0 L405 76 L359 76 C295 75 286 83 287 137 L287 530 C286 584 295 592 359 591 L405 591 L405 667 L28 667 L28 591 L74 591 C137 592 146 584 145 530 L145 137 C145 83 137 75 74 76 L28 76 L28 0 Z M62 721 L109 721 L216 776 L324 721 L371 721 L274 858 L159 858 L62 721 Z " />
<glyph glyph-name="Idieresis" unicode="&#xcf;" horiz-adv-x="433" d="M28 0 L405 0 L405 76 L359 76 C295 75 286 83 287 137 L287 530 C286 584 295 592 359 591 L405 591 L405 667 L28 667 L28 591 L74 591 C137 592 146 584 145 530 L145 137 C145 83 137 75 74 76 L28 76 L28 0 Z M122 858 C86 858 54 826 54 791 C54 752 84 722 123 722 C159 722 190 753 190 789 C190 826 159 858 122 858 L122 858 Z M311 858 C275 858 243 826 243 791 C243 752 273 722 312 722 C348 722 379 753 379 789 C379 826 348 858 311 858 L311 858 Z " />
<glyph glyph-name="Eth" unicode="&#xd0;" horiz-adv-x="850" d="M28 0 L425 0 C669 0 797 114 797 333 C797 553 669 667 425 667 L28 667 L28 591 L70 591 C133 592 142 584 141 530 L141 377 L0 377 L0 308 L141 308 L141 137 C141 83 133 75 70 76 L28 76 L28 0 Z M281 76 L281 308 L461 308 L461 377 L281 377 L281 591 L374 591 C487 591 536 578 576 538 C617 495 641 420 641 333 C641 247 617 172 576 129 C536 89 487 76 374 76 L281 76 Z " />
<glyph glyph-name="Ntilde" unicode="&#xd1;" horiz-adv-x="855" d="M730 0 L730 530 C729 584 738 592 801 591 L836 591 L836 667 L505 667 L505 591 L555 591 C617 592 626 584 625 530 L625 183 L312 667 L14 667 L14 591 L60 591 C122 592 131 584 130 530 L130 137 C131 83 122 75 60 76 L10 76 L10 0 L355 0 L355 76 L306 76 C243 75 235 83 235 137 L235 543 L587 0 L730 0 Z M314 720 C322 748 336 761 356 761 C364 761 375 759 387 756 L441 741 C452 739 463 737 472 737 C499 737 522 748 540 769 C559 790 568 810 578 858 L540 858 C530 828 519 818 497 818 C491 818 483 819 476 821 L419 836 C407 839 395 841 383 841 C325 841 296 808 276 720 L314 720 Z " />
<glyph glyph-name="Ograve" unicode="&#xd2;" horiz-adv-x="845" d="M422 686 C311 686 223 656 150 594 C78 533 37 440 37 339 C37 226 74 139 150 73 C221 11 311 -19 423 -19 C653 -19 807 123 807 334 C807 545 653 686 422 686 L422 686 Z M422 607 C494 607 553 580 595 529 C633 482 651 420 651 333 C651 247 634 186 595 138 C554 87 495 60 423 60 C349 60 291 86 249 138 C210 187 193 246 193 338 C193 506 279 607 422 607 L422 607 Z M458 721 L512 721 L375 842 C353 862 340 868 323 868 C298 868 277 847 277 822 C277 801 293 782 320 772 L458 721 Z " />
<glyph glyph-name="Oacute" unicode="&#xd3;" horiz-adv-x="845" d="M422 686 C311 686 223 656 150 594 C78 533 37 440 37 339 C37 226 74 139 150 73 C221 11 311 -19 423 -19 C653 -19 807 123 807 334 C807 545 653 686 422 686 L422 686 Z M422 607 C494 607 553 580 595 529 C633 482 651 420 651 333 C651 247 634 186 595 138 C554 87 495 60 423 60 C349 60 291 86 249 138 C210 187 193 246 193 338 C193 506 279 607 422 607 L422 607 Z M387 721 L525 772 C552 782 568 801 568 822 C568 847 547 868 522 868 C506 868 493 861 471 842 L333 721 L387 721 Z " />
<glyph glyph-name="Ocircumflex" unicode="&#xd4;" horiz-adv-x="845" d="M422 686 C311 686 223 656 150 594 C78 533 37 440 37 339 C37 226 74 139 150 73 C221 11 311 -19 423 -19 C653 -19 807 123 807 334 C807 545 653 686 422 686 L422 686 Z M422 607 C494 607 553 580 595 529 C633 482 651 420 651 333 C651 247 634 186 595 138 C554 87 495 60 423 60 C349 60 291 86 249 138 C210 187 193 246 193 338 C193 506 279 607 422 607 L422 607 Z M268 721 L314 721 L422 776 L529 721 L576 721 L480 858 L364 858 L268 721 Z " />
<glyph glyph-name="Otilde" unicode="&#xd5;" horiz-adv-x="845" d="M422 686 C311 686 223 656 150 594 C78 533 37 440 37 339 C37 226 74 139 150 73 C221 11 311 -19 423 -19 C653 -19 807 123 807 334 C807 545 653 686 422 686 L422 686 Z M422 607 C494 607 553 580 595 529 C633 482 651 420 651 333 C651 247 634 186 595 138 C554 87 495 60 423 60 C349 60 291 86 249 138 C210 187 193 246 193 338 C193 506 279 607 422 607 L422 607 Z M309 720 C317 748 330 761 351 761 C359 761 370 759 382 756 L436 741 C447 739 458 737 467 737 C494 737 517 748 535 769 C554 790 563 810 573 858 L535 858 C524 828 514 818 492 818 C486 818 478 819 471 821 L414 836 C402 839 390 841 378 841 C320 841 290 808 271 720 L309 720 Z " />
<glyph glyph-name="Odieresis" unicode="&#xd6;" horiz-adv-x="845" d="M421 686 C310 686 222 656 149 594 C77 533 36 440 36 339 C36 226 73 139 149 73 C220 11 310 -19 422 -19 C652 -19 806 123 806 334 C806 545 652 686 421 686 L421 686 Z M421 607 C493 607 552 580 594 529 C632 482 650 420 650 333 C650 247 633 186 594 138 C553 87 494 60 422 60 C348 60 290 86 248 138 C209 187 192 246 192 338 C192 506 278 607 421 607 L421 607 Z M320 858 C284 858 252 826 252 791 C252 752 282 722 321 722 C357 722 388 753 388 789 C388 826 357 858 320 858 L320 858 Z M515 858 C479 858 447 826 447 791 C447 752 477 722 516 722 C552 722 583 753 583 789 C583 826 552 858 515 858 L515 858 Z " />
<glyph glyph-name="multiply" unicode="&#xd7;" horiz-adv-x="595" d="M80 170 L148 105 L298 249 L448 105 L516 170 L366 313 L516 456 L448 521 L298 377 L148 521 L80 456 L230 313 L80 170 Z " />
<glyph glyph-name="Oslash" unicode="&#xd8;" horiz-adv-x="845" d="M110 -32 L186 47 C275 -5 323 -19 421 -19 C651 -19 806 122 806 332 C806 395 792 454 765 502 C753 524 737 544 707 580 L778 653 L728 700 L652 622 C562 673 514 686 422 686 C310 686 219 656 149 594 C76 531 36 441 36 343 C36 285 50 227 77 174 C90 148 103 130 133 91 L60 16 L110 -32 Z M614 486 C643 421 650 390 650 328 C650 161 565 60 425 60 C359 60 317 77 265 127 L614 486 Z M225 187 C199 257 192 292 192 347 C192 504 280 607 415 607 C480 607 513 594 575 543 L225 187 Z " />
<glyph glyph-name="Ugrave" unicode="&#xd9;" horiz-adv-x="798" d="M21 591 L56 591 C119 592 128 584 127 530 L127 211 C127 127 149 74 199 37 C250 -1 317 -20 398 -20 C486 -20 563 4 609 46 C649 82 671 140 671 211 L671 530 C671 584 679 592 741 591 L774 591 L774 667 L449 667 L449 591 L492 591 C555 592 564 584 563 530 L563 211 C563 160 553 134 528 114 C499 91 456 78 410 78 C367 78 327 90 300 111 C275 130 267 155 267 211 L267 530 C266 584 275 592 339 591 L385 591 L385 667 L21 667 L21 591 Z M435 721 L489 721 L352 842 C330 861 317 868 300 868 C275 868 254 847 254 822 C254 801 270 782 297 772 L435 721 Z " />
<glyph glyph-name="Uacute" unicode="&#xda;" horiz-adv-x="798" d="M21 591 L56 591 C119 592 128 584 127 530 L127 211 C127 127 149 74 199 37 C250 -1 317 -20 398 -20 C486 -20 563 4 609 46 C649 82 671 140 671 211 L671 530 C671 584 679 592 741 591 L774 591 L774 667 L449 667 L449 591 L492 591 C555 592 564 584 563 530 L563 211 C563 160 553 134 528 114 C499 91 456 78 410 78 C367 78 327 90 300 111 C275 130 267 155 267 211 L267 530 C266 584 275 592 339 591 L385 591 L385 667 L21 667 L21 591 Z M364 721 L502 772 C528 782 545 801 545 822 C545 847 524 868 499 868 C483 868 470 862 448 842 L310 721 L364 721 Z " />
<glyph glyph-name="Ucircumflex" unicode="&#xdb;" horiz-adv-x="798" d="M21 591 L56 591 C119 592 128 584 127 530 L127 211 C127 127 149 74 199 37 C250 -1 317 -20 398 -20 C486 -20 563 4 609 46 C649 82 671 140 671 211 L671 530 C671 584 679 592 741 591 L774 591 L774 667 L449 667 L449 591 L492 591 C555 592 564 584 563 530 L563 211 C563 160 553 134 528 114 C499 91 456 78 410 78 C367 78 327 90 300 111 C275 130 267 155 267 211 L267 530 C266 584 275 592 339 591 L385 591 L385 667 L21 667 L21 591 Z M245 721 L291 721 L399 776 L506 721 L553 721 L457 858 L341 858 L245 721 Z " />
<glyph glyph-name="Udieresis" unicode="&#xdc;" horiz-adv-x="798" d="M21 591 L56 591 C119 592 128 584 127 530 L127 211 C127 127 149 74 199 37 C250 -1 317 -20 398 -20 C486 -20 563 4 609 46 C649 82 671 140 671 211 L671 530 C671 584 679 592 741 591 L774 591 L774 667 L449 667 L449 591 L492 591 C555 592 564 584 563 530 L563 211 C563 160 553 134 528 114 C499 91 456 78 410 78 C367 78 327 90 300 111 C275 130 267 155 267 211 L267 530 C266 584 275 592 339 591 L385 591 L385 667 L21 667 L21 591 Z M300 858 C264 858 232 826 232 791 C232 752 262 722 301 722 C337 722 368 753 368 789 C368 826 337 858 300 858 L300 858 Z M496 858 C460 858 428 826 428 791 C428 752 458 722 497 722 C533 722 564 753 564 789 C564 826 533 858 496 858 L496 858 Z " />
<glyph glyph-name="Yacute" unicode="&#xdd;" horiz-adv-x="766" d="M586 76 L524 76 C461 75 453 83 453 137 L453 279 L664 547 C694 583 706 590 746 591 L770 591 L770 667 L445 667 L445 591 L505 591 C531 591 543 585 543 572 C543 565 539 555 529 543 L405 381 L292 538 C281 552 277 561 277 570 C277 585 289 591 322 591 L371 591 L371 667 L0 667 L0 591 L35 591 C77 589 97 576 136 523 L313 279 L313 137 C314 83 305 76 242 76 L179 76 L179 0 L586 0 L586 76 Z M349 721 L486 772 C513 782 529 801 529 822 C529 847 508 868 483 868 C467 868 454 862 432 842 L295 721 L349 721 Z " />
<glyph glyph-name="Thorn" unicode="&#xde;" horiz-adv-x="714" d="M26 0 L401 0 L401 76 L352 76 C291 76 282 83 283 137 L283 157 L380 157 C498 157 554 166 600 191 C649 219 679 274 679 337 C679 397 653 448 605 478 C556 510 493 523 394 523 L283 523 L283 530 C282 584 291 592 352 591 L401 591 L401 667 L26 667 L26 591 L67 591 C128 592 136 584 136 530 L136 137 C136 83 128 75 67 76 L26 76 L26 0 Z M283 233 L283 447 L344 447 C414 447 440 445 465 437 C509 423 533 389 533 340 C533 306 519 276 496 260 C469 240 431 233 352 233 L283 233 Z " />
<glyph glyph-name="germandbls" unicode="&#xdf;" horiz-adv-x="657" d="M21 0 L224 0 L224 484 C224 528 231 557 245 576 C262 600 297 614 337 614 C398 614 436 582 436 530 C436 500 421 471 399 458 C377 446 354 442 289 439 L289 368 C360 368 390 362 417 345 C453 322 465 284 465 195 C465 97 450 60 411 60 C370 60 363 77 359 170 L281 170 C281 102 282 100 287 73 C300 14 343 -17 415 -17 C472 -17 513 1 546 39 C582 82 601 141 601 208 C601 275 583 323 543 360 C516 385 491 397 435 412 C530 444 566 478 566 537 C566 625 473 684 334 684 C262 684 211 669 169 635 C123 598 104 550 104 470 L104 126 C104 76 97 69 47 67 L21 67 L21 0 Z " />
<glyph glyph-name="agrave" unicode="&#xe0;" horiz-adv-x="594" d="M527 175 C526 136 525 111 524 102 C520 76 511 65 495 65 C478 65 470 76 470 100 L470 308 C470 395 461 421 419 451 C387 472 326 486 258 486 C137 486 56 437 56 363 C56 317 91 285 140 285 C184 285 214 311 214 348 C214 384 193 401 144 403 C174 424 200 432 242 432 C315 432 353 405 353 354 C353 309 330 289 261 273 C185 256 146 244 110 227 C59 204 31 161 31 110 C31 34 92 -18 183 -18 C259 -18 301 1 353 57 C373 3 403 -17 464 -17 C521 -17 557 4 576 47 C587 73 591 99 592 175 L527 175 Z M350 188 C350 144 340 118 316 95 C295 76 265 65 233 65 C190 65 165 86 165 122 C165 156 192 185 240 202 L297 222 C306 225 324 233 350 245 L350 188 Z M372 540 L237 683 C204 718 186 730 162 730 C132 730 109 707 109 677 C109 653 123 636 159 619 L317 540 L372 540 Z " />
<glyph glyph-name="aacute" unicode="&#xe1;" horiz-adv-x="594" d="M527 175 C526 136 525 111 524 102 C520 76 511 65 495 65 C478 65 470 76 470 100 L470 308 C470 395 461 421 419 451 C387 472 326 486 258 486 C137 486 56 437 56 363 C56 317 91 285 140 285 C184 285 214 311 214 348 C214 384 193 401 144 403 C174 424 200 432 242 432 C315 432 353 405 353 354 C353 309 330 289 261 273 C185 256 146 244 110 227 C59 204 31 161 31 110 C31 34 92 -18 183 -18 C259 -18 301 1 353 57 C373 3 403 -17 464 -17 C521 -17 557 4 576 47 C587 73 591 99 592 175 L527 175 Z M350 188 C350 144 340 118 316 95 C295 76 265 65 233 65 C190 65 165 86 165 122 C165 156 192 185 240 202 L297 222 C306 225 324 233 350 245 L350 188 Z M197 540 L252 540 L410 619 C446 636 460 653 460 677 C460 707 437 730 407 730 C383 730 365 718 332 683 L197 540 Z " />
<glyph glyph-name="acircumflex" unicode="&#xe2;" horiz-adv-x="594" d="M527 175 C526 136 525 111 524 102 C520 76 511 65 495 65 C478 65 470 76 470 100 L470 308 C470 395 461 421 419 451 C387 472 326 486 258 486 C137 486 56 437 56 363 C56 317 91 285 140 285 C184 285 214 311 214 348 C214 384 193 401 144 403 C174 424 200 432 242 432 C315 432 353 405 353 354 C353 309 330 289 261 273 C185 256 146 244 110 227 C59 204 31 161 31 110 C31 34 92 -18 183 -18 C259 -18 301 1 353 57 C373 3 403 -17 464 -17 C521 -17 557 4 576 47 C587 73 591 99 592 175 L527 175 Z M350 188 C350 144 340 118 316 95 C295 76 265 65 233 65 C190 65 165 86 165 122 C165 156 192 185 240 202 L297 222 C306 225 324 233 350 245 L350 188 Z M124 540 L172 540 L279 623 L386 540 L435 540 L324 720 L235 720 L124 540 Z " />
<glyph glyph-name="atilde" unicode="&#xe3;" horiz-adv-x="594" d="M527 175 C526 136 525 111 524 102 C520 76 511 65 495 65 C478 65 470 76 470 100 L470 308 C470 395 461 421 419 451 C387 472 326 486 258 486 C137 486 56 437 56 363 C56 317 91 285 140 285 C184 285 214 311 214 348 C214 384 193 401 144 403 C174 424 200 432 242 432 C315 432 353 405 353 354 C353 309 330 289 261 273 C185 256 146 244 110 227 C59 204 31 161 31 110 C31 34 92 -18 183 -18 C259 -18 301 1 353 57 C373 3 403 -17 464 -17 C521 -17 557 4 576 47 C587 73 591 99 592 175 L527 175 Z M350 188 C350 144 340 118 316 95 C295 76 265 65 233 65 C190 65 165 86 165 122 C165 156 192 185 240 202 L297 222 C306 225 324 233 350 245 L350 188 Z M160 555 C168 587 181 601 204 601 C212 601 223 599 236 596 L292 580 C303 577 314 576 325 576 C354 576 379 587 396 608 C415 630 423 651 436 704 L396 704 C384 670 374 660 351 660 C345 660 336 661 328 663 L270 679 C256 682 243 684 231 684 C171 684 141 649 119 555 L160 555 Z " />
<glyph glyph-name="adieresis" unicode="&#xe4;" horiz-adv-x="594" d="M527 175 C526 136 525 111 524 102 C520 76 511 65 495 65 C478 65 470 76 470 100 L470 308 C470 395 461 421 419 451 C387 472 326 486 258 486 C137 486 56 437 56 363 C56 317 91 285 140 285 C184 285 214 311 214 348 C214 384 193 401 144 403 C174 424 200 432 242 432 C315 432 353 405 353 354 C353 309 330 289 261 273 C185 256 146 244 110 227 C59 204 31 161 31 110 C31 34 92 -18 183 -18 C259 -18 301 1 353 57 C373 3 403 -17 464 -17 C521 -17 557 4 576 47 C587 73 591 99 592 175 L527 175 Z M350 188 C350 144 340 118 316 95 C295 76 265 65 233 65 C190 65 165 86 165 122 C165 156 192 185 240 202 L297 222 C306 225 324 233 350 245 L350 188 Z M212 699 C174 699 141 667 141 630 C141 591 172 560 212 560 C250 560 280 590 280 629 C280 667 249 699 212 699 L212 699 Z M409 699 C372 699 339 667 339 630 C339 591 370 560 410 560 C448 560 478 590 478 629 C478 667 447 699 409 699 L409 699 Z " />
<glyph glyph-name="aring" unicode="&#xe5;" horiz-adv-x="594" d="M527 175 C526 136 525 112 524 102 C520 76 511 65 494 65 C477 65 470 75 470 100 L470 308 C470 395 461 421 419 451 C387 472 326 486 258 486 C137 486 56 437 56 363 C56 317 91 285 140 285 C184 285 214 311 214 348 C214 384 193 401 144 403 C174 424 200 432 242 432 C315 432 353 405 353 354 C353 309 330 289 261 273 C185 256 146 244 110 227 C59 204 31 161 31 110 C31 34 92 -18 183 -18 C259 -18 301 1 353 57 C373 3 403 -17 464 -17 C521 -17 557 4 576 47 C587 73 591 99 592 175 L527 175 Z M350 188 C350 144 340 118 316 95 C295 76 265 65 233 65 C190 65 165 86 165 122 C165 156 192 185 240 202 L297 222 C306 225 324 233 350 245 L350 188 Z M269 778 C199 778 140 721 140 652 C140 577 196 520 270 520 C340 520 398 578 398 649 C398 720 340 778 269 778 L269 778 Z M269 714 C305 714 334 685 334 649 C334 613 305 584 269 584 C232 584 204 612 204 650 C204 685 233 714 269 714 L269 714 Z " />
<glyph glyph-name="ae" unicode="&#xe6;" horiz-adv-x="886" d="M749 167 C737 123 726 103 706 87 C685 71 655 62 620 62 C573 62 538 78 516 109 C497 136 491 163 488 225 L840 225 C835 325 821 372 783 416 C743 461 684 486 614 486 C552 486 518 474 452 428 C386 471 338 486 259 486 C136 486 53 437 53 363 C53 317 87 285 136 285 C179 285 209 311 209 348 C209 384 188 401 140 403 C188 427 212 433 252 433 C328 433 371 404 371 351 C371 309 346 288 277 275 C186 256 125 238 94 219 C51 194 29 156 29 109 C29 32 95 -19 193 -19 C232 -19 270 -11 303 4 C341 21 363 39 402 88 C470 8 520 -17 613 -17 C686 -17 734 1 777 42 C812 77 824 103 837 167 L749 167 Z M367 188 C367 144 358 118 333 95 C311 74 275 61 236 61 C190 61 162 84 162 123 C162 159 186 180 253 203 C273 210 294 217 315 224 C322 227 340 234 367 246 L367 188 Z M493 295 C505 386 535 420 602 420 C666 420 690 389 701 295 L493 295 Z " />
<glyph glyph-name="ccedilla" unicode="&#xe7;" horiz-adv-x="537" d="M282 -17 C424 -16 496 53 504 195 L423 195 C408 105 374 72 298 72 C211 72 166 128 166 235 C166 354 218 421 311 421 C348 421 369 413 410 385 C369 378 350 358 350 323 C350 284 382 257 426 257 C476 257 509 291 509 342 C509 425 423 486 303 486 C141 486 31 383 31 232 C31 146 64 75 126 29 C159 4 188 -7 240 -14 L240 -99 C253 -97 266 -96 274 -96 C303 -96 321 -110 321 -135 C321 -158 304 -171 274 -171 C239 -171 197 -158 153 -132 L129 -182 C201 -214 249 -227 296 -227 C366 -227 410 -192 410 -136 C410 -88 374 -53 326 -53 C313 -53 298 -54 282 -56 L282 -17 Z " />
<glyph glyph-name="egrave" unicode="&#xe8;" horiz-adv-x="558" d="M434 167 C422 123 412 103 392 87 C372 71 341 62 305 62 C260 62 229 76 206 107 C186 135 178 162 173 225 L525 225 C520 325 506 371 468 416 C428 463 369 486 290 486 C135 486 31 384 31 233 C31 83 133 -18 286 -18 C351 -18 405 -2 446 29 C490 62 508 95 522 167 L434 167 Z M178 295 C188 345 197 367 217 389 C236 410 260 420 291 420 C351 420 376 387 387 295 L178 295 Z M354 540 L219 683 C186 718 167 730 144 730 C113 730 90 707 90 677 C90 653 104 637 141 619 L299 540 L354 540 Z " />
<glyph glyph-name="eacute" unicode="&#xe9;" horiz-adv-x="558" d="M434 167 C422 123 412 103 392 87 C372 71 341 62 305 62 C260 62 229 76 206 107 C186 135 178 162 173 225 L525 225 C520 325 506 371 468 416 C428 463 369 486 290 486 C135 486 31 384 31 233 C31 83 133 -18 286 -18 C351 -18 405 -2 446 29 C490 62 508 95 522 167 L434 167 Z M178 295 C188 345 197 367 217 389 C236 410 260 420 291 420 C351 420 376 387 387 295 L178 295 Z M179 540 L234 540 L392 619 C428 637 442 653 442 677 C442 707 419 730 389 730 C365 730 346 718 314 683 L179 540 Z " />
<glyph glyph-name="ecircumflex" unicode="&#xea;" horiz-adv-x="558" d="M434 167 C422 123 412 103 392 87 C372 71 341 62 305 62 C260 62 229 76 206 107 C186 135 178 162 173 225 L525 225 C520 325 506 371 468 416 C428 463 369 486 290 486 C135 486 31 384 31 233 C31 83 133 -18 286 -18 C351 -18 405 -2 446 29 C490 62 508 95 522 167 L434 167 Z M178 295 C188 345 197 367 217 389 C236 410 260 420 291 420 C351 420 376 387 387 295 L178 295 Z M123 540 L172 540 L279 623 L386 540 L434 540 L324 720 L234 720 L123 540 Z " />
<glyph glyph-name="edieresis" unicode="&#xeb;" horiz-adv-x="558" d="M434 167 C422 123 412 103 392 87 C372 71 341 62 305 62 C260 62 229 76 206 107 C186 135 178 162 173 225 L525 225 C520 325 506 371 468 416 C428 463 369 486 290 486 C135 486 31 384 31 233 C31 83 133 -18 286 -18 C351 -18 405 -2 446 29 C490 62 508 95 522 167 L434 167 Z M178 295 C188 345 197 367 217 389 C236 410 260 420 291 420 C351 420 376 387 387 295 L178 295 Z M181 699 C143 699 110 667 110 630 C110 591 141 560 181 560 C219 560 249 590 249 629 C249 668 218 699 181 699 L181 699 Z M379 699 C341 699 308 667 308 630 C308 591 339 560 379 560 C417 560 447 590 447 629 C447 668 416 699 379 699 L379 699 Z " />
<glyph glyph-name="igrave" unicode="&#xec;" horiz-adv-x="365" d="M26 0 L342 0 L342 67 L310 67 C256 69 248 77 248 126 L248 469 L26 469 L26 402 L64 402 C117 400 124 392 124 343 L124 126 C124 77 117 69 64 67 L26 67 L26 0 Z M230 538 L149 678 C131 710 113 723 88 723 C61 723 40 703 40 677 C40 656 54 638 86 614 L190 538 L230 538 Z " />
<glyph glyph-name="iacute" unicode="&#xed;" horiz-adv-x="365" d="M98 538 L137 538 L242 614 C275 638 288 656 288 677 C288 704 268 723 240 723 C215 723 197 710 179 678 L98 538 Z M26 0 L342 0 L342 67 L310 67 C256 69 248 77 248 126 L248 469 L26 469 L26 402 L64 402 C117 400 124 392 124 343 L124 126 C124 77 117 69 64 67 L26 67 L26 0 Z " />
<glyph glyph-name="icircumflex" unicode="&#xee;" horiz-adv-x="364" d="M31 538 L77 538 L169 630 L261 538 L308 538 L214 715 L124 715 L31 538 Z M25 0 L341 0 L341 67 L309 67 C255 69 247 77 247 126 L247 469 L25 469 L25 402 L63 402 C116 400 123 392 123 343 L123 126 C123 77 116 69 63 67 L25 67 L25 0 Z " />
<glyph glyph-name="idieresis" unicode="&#xef;" horiz-adv-x="361" d="M23 0 L339 0 L339 67 L307 67 C252 69 244 77 244 126 L244 469 L23 469 L23 402 L60 402 C113 400 120 392 120 343 L120 126 C120 77 113 69 60 67 L23 67 L23 0 Z M76 699 C38 699 5 667 5 630 C5 591 36 560 76 560 C114 560 144 590 144 629 C144 668 113 699 76 699 L76 699 Z M264 699 C226 699 193 667 193 630 C193 591 224 560 264 560 C302 560 332 590 332 629 C332 668 301 699 264 699 L264 699 Z " />
<glyph glyph-name="eth" unicode="&#xf0;" horiz-adv-x="617" d="M232 667 C249 646 253 641 280 604 L204 575 L230 522 L311 555 C337 518 354 492 363 477 C340 483 325 485 299 485 C140 485 32 384 32 235 C32 82 142 -17 311 -17 C477 -17 588 83 588 232 C588 339 543 420 391 589 L470 618 L444 671 L349 636 L332 651 L314 667 L232 667 Z M310 416 C405 416 452 356 452 235 C452 113 405 53 310 53 C214 53 168 113 168 237 C168 356 216 416 310 416 L310 416 Z " />
<glyph glyph-name="ntilde" unicode="&#xf1;" horiz-adv-x="683" d="M26 0 L326 0 L326 67 L305 67 C253 69 246 77 246 126 L246 247 C246 303 253 329 276 358 C301 389 337 407 375 407 C401 407 425 397 438 381 C450 366 453 352 453 311 L453 126 C453 76 446 70 391 67 L370 67 L370 0 L666 0 L666 67 L635 67 C581 69 573 77 573 126 L573 311 C573 382 563 418 537 443 C512 468 466 484 421 484 C354 484 310 459 246 386 L246 469 L26 469 L26 402 L60 402 C113 399 120 392 120 343 L120 126 C120 77 113 70 60 67 L26 67 L26 0 Z M223 555 C232 587 245 601 268 601 C276 601 287 599 299 596 L356 580 C367 577 377 576 389 576 C418 576 443 587 460 608 C478 630 487 651 500 704 L460 704 C448 670 438 660 415 660 C409 660 400 661 392 663 L333 679 C320 682 306 684 295 684 C235 684 205 649 183 555 L223 555 Z " />
<glyph glyph-name="ograve" unicode="&#xf2;" horiz-adv-x="615" d="M308 486 C142 486 30 386 30 238 C30 82 138 -17 310 -17 C476 -17 586 83 586 234 C586 386 476 486 308 486 L308 486 Z M308 416 C403 416 450 356 450 235 C450 113 403 53 308 53 C212 53 166 113 166 237 C166 356 214 416 308 416 L308 416 Z M383 540 L248 683 C215 718 197 730 173 730 C143 730 120 707 120 677 C120 653 134 636 170 619 L328 540 L383 540 Z " />
<glyph glyph-name="oacute" unicode="&#xf3;" horiz-adv-x="615" d="M308 486 C142 486 30 386 30 238 C30 82 138 -17 310 -17 C476 -17 586 83 586 234 C586 386 476 486 308 486 L308 486 Z M308 416 C403 416 450 356 450 235 C450 113 403 53 308 53 C212 53 166 113 166 237 C166 356 214 416 308 416 L308 416 Z M208 540 L263 540 L421 619 C458 637 472 653 472 677 C472 707 449 730 419 730 C395 730 376 718 343 683 L208 540 Z " />
<glyph glyph-name="ocircumflex" unicode="&#xf4;" horiz-adv-x="615" d="M308 486 C142 486 30 386 30 238 C30 82 138 -17 310 -17 C476 -17 586 83 586 234 C586 386 476 486 308 486 L308 486 Z M308 416 C403 416 450 356 450 235 C450 113 403 53 308 53 C212 53 166 113 166 237 C166 356 214 416 308 416 L308 416 Z M152 540 L201 540 L308 623 L415 540 L464 540 L353 720 L263 720 L152 540 Z " />
<glyph glyph-name="otilde" unicode="&#xf5;" horiz-adv-x="615" d="M308 486 C142 486 30 386 30 238 C30 82 138 -17 310 -17 C476 -17 586 83 586 234 C586 386 476 486 308 486 L308 486 Z M308 416 C403 416 450 356 450 235 C450 113 403 53 308 53 C212 53 166 113 166 237 C166 356 214 416 308 416 L308 416 Z M190 555 C198 587 212 601 235 601 C242 601 254 599 266 596 L323 580 C333 577 344 576 356 576 C384 576 409 587 427 608 C445 630 454 651 467 704 L427 704 C415 670 405 660 382 660 C375 660 367 661 359 663 L300 679 C287 682 273 684 262 684 C202 684 171 649 150 555 L190 555 Z " />
<glyph glyph-name="odieresis" unicode="&#xf6;" horiz-adv-x="615" d="M309 486 C143 486 31 386 31 238 C31 82 139 -17 311 -17 C477 -17 587 83 587 234 C587 386 477 486 309 486 L309 486 Z M309 416 C404 416 451 356 451 235 C451 113 404 53 309 53 C213 53 167 113 167 237 C167 356 215 416 309 416 L309 416 Z M217 699 C179 699 146 667 146 630 C146 591 177 560 217 560 C255 560 285 590 285 629 C285 668 254 699 217 699 L217 699 Z M416 699 C378 699 345 667 345 630 C345 591 376 560 416 560 C454 560 484 590 484 629 C484 668 453 699 416 699 L416 699 Z " />
<glyph glyph-name="divide" unicode="&#xf7;" horiz-adv-x="549" d="M273 126 C239 126 211 99 211 64 C211 30 238 2 273 2 C306 2 334 30 334 64 C334 98 306 126 273 126 L273 126 Z M273 525 C239 525 211 498 211 463 C211 429 238 401 273 401 C306 401 334 429 334 463 C334 497 306 525 273 525 L273 525 Z M10 294 L10 239 L536 239 L536 294 L10 294 Z " />
<glyph glyph-name="oslash" unicode="&#xf8;" horiz-adv-x="615" d="M26 8 L69 -35 L136 29 C205 -8 238 -17 309 -17 C477 -17 586 83 586 237 C586 303 573 337 524 401 L590 463 L544 504 L479 441 C407 477 372 486 307 486 C141 486 30 386 30 235 C30 171 42 137 90 69 L26 8 Z M435 315 C448 281 451 266 451 232 C451 116 403 53 314 53 C271 53 249 62 206 96 L435 315 Z M180 156 C168 190 165 205 165 239 C165 354 213 416 302 416 C343 416 366 407 408 374 L180 156 Z " />
<glyph glyph-name="ugrave" unicode="&#xf9;" horiz-adv-x="678" d="M26 402 L49 402 C99 400 106 392 106 343 L106 158 C106 86 116 50 143 26 C170 1 217 -15 263 -15 C332 -15 378 9 445 82 L445 0 L654 0 L654 67 L626 67 C572 69 565 76 565 126 L565 469 L342 469 L342 402 L388 402 C438 400 445 392 445 343 L445 221 C445 167 437 139 413 111 C386 80 349 62 309 62 C281 62 256 72 242 88 C229 102 226 116 226 158 L226 469 L26 469 L26 402 Z M414 540 L279 683 C246 718 227 730 204 730 C173 730 150 707 150 677 C150 653 164 637 201 619 L359 540 L414 540 Z " />
<glyph glyph-name="uacute" unicode="&#xfa;" horiz-adv-x="678" d="M26 402 L49 402 C99 400 106 392 106 343 L106 158 C106 86 116 50 143 26 C170 1 217 -15 263 -15 C332 -15 378 9 445 82 L445 0 L654 0 L654 67 L626 67 C572 69 565 76 565 126 L565 469 L342 469 L342 402 L388 402 C438 400 445 392 445 343 L445 221 C445 167 437 139 413 111 C386 80 349 62 309 62 C281 62 256 72 242 88 C229 102 226 116 226 158 L226 469 L26 469 L26 402 Z M239 540 L294 540 L452 619 C488 636 502 653 502 677 C502 707 479 730 449 730 C425 730 407 718 374 683 L239 540 Z " />
<glyph glyph-name="ucircumflex" unicode="&#xfb;" horiz-adv-x="678" d="M26 402 L49 402 C99 400 106 392 106 343 L106 158 C106 86 116 50 143 26 C170 1 217 -15 263 -15 C332 -15 378 9 445 82 L445 0 L654 0 L654 67 L626 67 C572 69 565 76 565 126 L565 469 L342 469 L342 402 L388 402 C438 400 445 392 445 343 L445 221 C445 167 437 139 413 111 C386 80 349 62 309 62 C281 62 256 72 242 88 C229 102 226 116 226 158 L226 469 L26 469 L26 402 Z M183 540 L232 540 L339 623 L446 540 L495 540 L384 720 L294 720 L183 540 Z " />
<glyph glyph-name="udieresis" unicode="&#xfc;" horiz-adv-x="678" d="M26 402 L49 402 C99 400 106 392 106 343 L106 158 C106 86 116 50 143 26 C170 1 217 -15 263 -15 C332 -15 378 9 445 82 L445 0 L654 0 L654 67 L626 67 C572 69 565 76 565 126 L565 469 L342 469 L342 402 L388 402 C438 400 445 392 445 343 L445 221 C445 167 437 139 413 111 C386 80 349 62 309 62 C281 62 256 72 242 88 C229 102 226 116 226 158 L226 469 L26 469 L26 402 Z M241 699 C203 699 170 667 170 630 C170 591 201 560 241 560 C279 560 309 590 309 629 C309 668 278 699 241 699 L241 699 Z M440 699 C402 699 369 667 369 630 C369 591 400 560 440 560 C478 560 508 590 508 629 C508 668 477 699 440 699 L440 699 Z " />
<glyph glyph-name="yacute" unicode="&#xfd;" horiz-adv-x="610" d="M267 0 C217 -116 186 -149 129 -149 C107 -149 97 -144 77 -125 C128 -125 153 -105 153 -66 C153 -28 123 0 81 0 C30 0 -5 -37 -5 -89 C-5 -161 57 -214 141 -214 C244 -214 293 -159 384 56 L500 331 C526 385 542 400 577 402 L600 402 L600 469 L349 469 L349 402 L377 402 C410 402 423 395 423 377 C423 369 420 357 416 347 L330 140 L234 356 C230 364 228 372 228 380 C228 394 240 402 264 402 L300 402 L300 469 L-2 469 L-2 402 L29 402 C68 400 85 387 107 342 L267 0 Z M205 540 L260 540 L418 619 C455 637 469 653 469 677 C469 707 446 730 416 730 C392 730 373 718 340 683 L205 540 Z " />
<glyph glyph-name="thorn" unicode="&#xfe;" horiz-adv-x="652" d="M15 600 L42 600 C97 598 104 591 104 541 L104 -88 C104 -137 97 -144 42 -147 L10 -147 L10 -214 L333 -214 L333 -147 L285 -147 C232 -145 224 -137 224 -88 L224 78 C268 7 309 -17 390 -17 C528 -17 607 74 607 233 C607 392 528 483 390 483 C353 483 317 475 291 460 C266 447 249 428 224 387 L224 667 L15 667 L15 600 Z M352 403 C431 403 471 346 471 233 C471 126 429 69 352 69 C270 69 224 129 224 236 C224 343 270 403 352 403 L352 403 Z " />
<glyph glyph-name="ydieresis" unicode="&#xff;" horiz-adv-x="610" d="M267 0 C217 -116 186 -149 129 -149 C107 -149 97 -144 77 -125 C128 -125 153 -105 153 -66 C153 -28 123 0 81 0 C30 0 -5 -37 -5 -89 C-5 -161 57 -214 141 -214 C244 -214 293 -159 384 56 L500 331 C526 385 542 400 577 402 L600 402 L600 469 L349 469 L349 402 L377 402 C410 402 423 395 423 377 C423 369 420 357 416 347 L330 140 L234 356 C230 364 228 372 228 380 C228 394 240 402 264 402 L300 402 L300 469 L-2 469 L-2 402 L29 402 C68 400 85 387 107 342 L267 0 Z M208 699 C170 699 137 667 137 630 C137 591 168 560 208 560 C246 560 276 590 276 629 C276 668 245 699 208 699 L208 699 Z M406 699 C368 699 335 667 335 630 C335 591 366 560 406 560 C444 560 474 590 474 629 C474 668 443 699 406 699 L406 699 Z " />
<glyph glyph-name="Amacron" unicode="&#x100;" horiz-adv-x="751" d="M-16 0 L310 0 L310 76 L255 76 C209 76 199 80 199 98 C199 104 201 113 207 129 L238 212 L469 212 L499 134 C504 120 508 106 508 101 C508 81 496 76 450 76 L393 76 L393 0 L755 0 L755 76 L734 76 C681 76 671 84 650 140 L441 667 L294 667 L99 140 C82 91 60 76 6 76 L-16 76 L-16 0 Z M440 290 L267 290 L349 522 L440 290 Z M230 750 L520 750 L520 829 L230 829 L230 750 Z " />
<glyph glyph-name="amacron" unicode="&#x101;" horiz-adv-x="594" d="M527 175 C526 136 525 111 524 102 C520 76 511 65 495 65 C478 65 470 76 470 100 L470 308 C470 395 461 421 419 451 C387 472 326 486 258 486 C137 486 56 437 56 363 C56 317 91 285 140 285 C184 285 214 311 214 348 C214 384 193 401 144 403 C174 424 200 432 242 432 C315 432 353 405 353 354 C353 309 330 289 261 273 C185 256 146 244 110 227 C59 204 31 161 31 110 C31 34 92 -18 183 -18 C259 -18 301 1 353 57 C373 3 403 -17 464 -17 C521 -17 557 4 576 47 C587 73 591 99 592 175 L527 175 Z M350 188 C350 144 340 118 316 95 C295 76 265 65 233 65 C190 65 165 86 165 122 C165 156 192 185 240 202 L297 222 C306 225 324 233 350 245 L350 188 Z M148 588 L446 588 L446 670 L148 670 L148 588 Z " />
<glyph glyph-name="Abreve" unicode="&#x102;" horiz-adv-x="751" d="M-16 0 L310 0 L310 76 L255 76 C209 76 199 80 199 98 C199 104 201 113 207 129 L238 212 L469 212 L499 134 C504 120 508 106 508 101 C508 81 496 76 450 76 L393 76 L393 0 L755 0 L755 76 L734 76 C681 76 671 84 650 140 L441 667 L294 667 L99 140 C82 91 60 76 6 76 L-16 76 L-16 0 Z M440 290 L267 290 L349 522 L440 290 Z M218 858 C229 808 239 786 261 764 C289 736 330 720 375 720 C420 720 462 736 490 764 C511 786 521 808 532 858 L487 858 C471 820 442 806 375 806 C309 806 281 819 263 858 L218 858 Z " />
<glyph glyph-name="abreve" unicode="&#x103;" horiz-adv-x="594" d="M527 175 C526 136 525 111 524 102 C520 76 511 65 495 65 C478 65 470 76 470 100 L470 308 C470 395 461 421 419 451 C387 472 326 486 258 486 C137 486 56 437 56 363 C56 317 91 285 140 285 C184 285 214 311 214 348 C214 384 193 401 144 403 C174 424 200 432 242 432 C315 432 353 405 353 354 C353 309 330 289 261 273 C185 256 146 244 110 227 C59 204 31 161 31 110 C31 34 92 -18 183 -18 C259 -18 301 1 353 57 C373 3 403 -17 464 -17 C521 -17 557 4 576 47 C587 73 591 99 592 175 L527 175 Z M350 188 C350 144 340 118 316 95 C295 76 265 65 233 65 C190 65 165 86 165 122 C165 156 192 185 240 202 L297 222 C306 225 324 233 350 245 L350 188 Z M139 704 C150 649 161 624 183 600 C211 571 252 555 297 555 C342 555 384 572 411 600 C434 623 444 649 455 704 L410 704 C394 659 366 644 297 644 C228 644 202 658 184 704 L139 704 Z " />
<glyph glyph-name="Aogonek" unicode="&#x104;" horiz-adv-x="751" d="M755 0 L755 76 L734 76 C681 76 671 84 650 140 L441 667 L294 667 L99 140 C82 91 60 76 6 76 L-16 76 L-16 0 L310 0 L310 76 L255 76 C209 76 199 80 199 99 C199 104 202 114 207 129 L238 212 L469 212 L499 134 C505 119 508 107 508 100 C508 81 495 76 450 76 L393 76 L393 0 L690 0 C611 -47 567 -101 567 -152 C567 -198 601 -227 656 -227 C709 -227 745 -201 776 -140 L759 -130 C734 -159 725 -164 702 -164 C672 -164 655 -146 655 -114 C655 -74 676 -40 725 0 L755 0 Z M440 290 L267 290 L349 522 L440 290 Z " />
<glyph glyph-name="aogonek" unicode="&#x105;" horiz-adv-x="594" d="M527 175 C526 138 525 113 524 101 C520 76 511 64 496 64 C478 64 470 75 470 100 L470 308 C470 395 461 421 419 451 C387 472 326 486 257 486 C137 486 56 437 56 363 C56 317 91 285 140 285 C184 285 214 311 214 348 C214 384 193 401 144 403 C174 424 200 432 242 432 C315 432 353 405 353 354 C353 309 330 289 261 273 C185 256 146 244 110 227 C59 204 31 161 31 110 C31 34 92 -18 183 -18 C259 -18 301 1 353 57 C370 11 389 -6 434 -15 C370 -63 343 -102 343 -147 C343 -193 377 -222 431 -222 C484 -222 521 -195 551 -135 L534 -125 C508 -154 500 -159 476 -159 C446 -159 430 -141 430 -108 C430 -70 450 -38 482 -25 C553 5 555 6 576 47 C588 74 591 101 592 175 L527 175 Z M350 188 C350 144 340 118 316 95 C295 76 265 65 233 65 C190 65 165 86 165 122 C165 156 192 185 240 202 L297 222 C306 225 324 233 350 245 L350 188 Z " />
<glyph glyph-name="Cacute" unicode="&#x106;" horiz-adv-x="740" d="M596 258 C581 186 567 154 536 123 C503 89 458 72 404 72 C340 72 282 97 246 142 C210 185 192 247 192 330 C192 501 272 605 402 605 C460 605 512 583 548 544 C579 511 592 478 605 404 L685 404 L685 677 L610 677 L590 617 C507 672 464 686 385 686 C189 686 36 532 36 334 C36 129 186 -19 392 -19 C490 -19 564 11 617 72 C657 118 673 161 685 258 L596 258 Z M335 721 L473 772 C500 782 516 801 516 822 C516 847 495 868 470 868 C453 868 440 862 418 842 L281 721 L335 721 Z " />
<glyph glyph-name="cacute" unicode="&#x107;" horiz-adv-x="537" d="M423 195 C408 106 374 73 299 73 C211 73 166 128 166 236 C166 354 218 421 311 421 C348 421 369 413 411 385 C370 378 351 358 351 323 C351 284 382 257 427 257 C476 257 509 291 509 342 C509 426 423 486 303 486 C141 486 31 383 31 232 C31 81 131 -17 284 -17 C360 -17 418 5 455 48 C485 84 497 119 504 195 L423 195 Z M201 540 L256 540 L414 619 C450 637 464 653 464 677 C464 707 441 730 411 730 C387 730 369 718 336 683 L201 540 Z " />
<glyph glyph-name="Ccaron" unicode="&#x10c;" horiz-adv-x="740" d="M596 258 C581 186 567 154 536 123 C503 89 458 72 404 72 C340 72 282 97 246 142 C210 185 192 247 192 330 C192 501 272 605 402 605 C460 605 512 583 548 544 C579 511 592 478 605 404 L685 404 L685 677 L610 677 L590 617 C507 672 464 686 385 686 C189 686 36 532 36 334 C36 129 186 -19 392 -19 C490 -19 564 11 617 72 C657 118 673 161 685 258 L596 258 Z M216 858 L312 721 L427 721 L524 858 L477 858 L370 803 L262 858 L216 858 Z " />
<glyph glyph-name="ccaron" unicode="&#x10d;" horiz-adv-x="537" d="M423 195 C408 106 374 73 299 73 C211 73 166 128 166 236 C166 354 218 421 311 421 C348 421 369 413 411 385 C370 378 351 358 351 323 C351 284 382 257 427 257 C476 257 509 291 509 342 C509 426 423 486 303 486 C141 486 31 383 31 232 C31 81 131 -17 284 -17 C360 -17 418 5 455 48 C485 84 497 119 504 195 L423 195 Z M113 719 L224 540 L313 540 L424 719 L375 719 L268 636 L161 719 L113 719 Z " />
<glyph glyph-name="Dcaron" unicode="&#x10e;" horiz-adv-x="845" d="M26 0 L421 0 C666 0 794 114 794 333 C794 553 666 667 421 667 L26 667 L26 591 L68 591 C132 592 140 584 140 530 L140 137 C140 83 132 75 68 76 L26 76 L26 0 Z M280 76 L280 591 L371 591 C484 591 533 578 573 538 C614 496 638 421 638 333 C638 246 614 172 573 129 C533 89 484 76 371 76 L280 76 Z M107 858 L203 721 L319 721 L415 858 L368 858 L261 803 L153 858 L107 858 Z " />
<glyph glyph-name="dcaron" unicode="&#x10f;" horiz-adv-x="652" d="M321 600 L362 600 C412 598 419 591 419 541 L419 391 C375 462 334 486 253 486 C115 486 36 395 36 236 C36 77 115 -14 253 -14 C334 -14 375 10 419 82 L419 0 L631 0 L631 67 L601 67 C546 69 539 76 539 126 L539 667 L321 667 L321 600 Z M291 400 C373 400 419 340 419 233 C419 126 373 66 291 66 C212 66 172 123 172 236 C172 343 214 400 291 400 L291 400 Z M623 456 C665 461 688 471 710 492 C734 516 748 552 748 591 C748 645 716 680 666 680 C628 680 601 655 601 621 C601 591 623 569 652 569 C664 569 673 572 690 580 C685 526 668 504 623 496 L623 456 Z " />
<glyph glyph-name="Dcroat" unicode="&#x110;" horiz-adv-x="850" d="M28 0 L425 0 C669 0 797 114 797 333 C797 553 669 667 425 667 L28 667 L28 591 L70 591 C133 592 142 584 141 530 L141 377 L0 377 L0 308 L141 308 L141 137 C141 83 133 75 70 76 L28 76 L28 0 Z M281 76 L281 308 L461 308 L461 377 L281 377 L281 591 L374 591 C487 591 536 578 576 538 C617 495 641 420 641 333 C641 247 617 172 576 129 C536 89 487 76 374 76 L281 76 Z " />
<glyph glyph-name="dcroat" unicode="&#x111;" horiz-adv-x="652" d="M539 571 L539 667 L321 667 L321 600 L362 600 C401 599 414 592 417 571 L232 571 L232 513 L419 513 L419 391 C398 425 382 444 364 457 C336 475 296 486 253 486 C115 486 36 395 36 236 C36 77 115 -14 253 -14 C334 -14 375 10 419 82 L419 0 L631 0 L631 67 L601 67 C546 69 539 76 539 126 L539 513 L605 513 L605 571 L539 571 Z M291 400 C373 400 419 340 419 233 C419 126 373 66 292 66 C212 66 172 123 172 236 C172 343 214 400 291 400 L291 400 Z " />
<glyph glyph-name="Emacron" unicode="&#x112;" horiz-adv-x="787" d="M26 0 L714 0 L714 283 L634 283 C619 112 589 75 465 76 L279 76 L279 310 L320 310 C409 311 423 294 432 174 L513 174 L513 507 L432 507 C421 397 413 389 319 386 L279 386 L279 591 L449 591 C594 593 629 558 634 402 L714 402 L714 667 L26 667 L26 591 L68 591 C131 592 139 584 139 529 L139 138 C139 83 131 75 68 76 L26 76 L26 0 Z M249 750 L538 750 L538 829 L249 829 L249 750 Z " />
<glyph glyph-name="emacron" unicode="&#x113;" horiz-adv-x="558" d="M434 167 C422 123 412 103 392 87 C372 71 341 62 305 62 C260 62 229 76 206 107 C186 135 178 162 173 225 L525 225 C520 325 506 371 468 416 C428 463 369 486 290 486 C135 486 31 384 31 233 C31 83 133 -18 286 -18 C351 -18 405 -2 446 29 C490 62 508 95 522 167 L434 167 Z M178 295 C188 345 197 367 217 389 C236 410 260 420 291 420 C351 420 376 387 387 295 L178 295 Z M144 588 L442 588 L442 670 L144 670 L144 588 Z " />
<glyph glyph-name="Edotaccent" unicode="&#x116;" horiz-adv-x="787" d="M26 0 L714 0 L714 283 L634 283 C619 112 589 75 465 76 L279 76 L279 310 L320 310 C409 311 423 294 432 174 L513 174 L513 507 L432 507 C421 397 413 389 319 386 L279 386 L279 591 L449 591 C594 593 629 558 634 402 L714 402 L714 667 L26 667 L26 591 L68 591 C131 592 139 584 139 529 L139 138 C139 83 131 75 68 76 L26 76 L26 0 Z M394 862 C357 862 323 829 323 792 C323 753 355 721 394 721 C432 721 464 753 464 791 C464 829 431 862 394 862 L394 862 Z " />
<glyph glyph-name="edotaccent" unicode="&#x117;" horiz-adv-x="558" d="M434 167 C422 123 412 103 392 87 C372 71 341 62 305 62 C260 62 229 76 206 107 C186 135 178 162 173 225 L525 225 C520 325 506 371 468 416 C428 463 369 486 290 486 C135 486 31 384 31 233 C31 83 133 -18 286 -18 C351 -18 405 -2 446 29 C490 62 508 95 522 167 L434 167 Z M178 295 C188 345 197 367 217 389 C236 410 260 420 291 420 C351 420 376 387 387 295 L178 295 Z M280 702 C241 702 206 668 206 631 C206 590 239 557 280 557 C320 557 351 589 351 629 C351 669 319 702 280 702 L280 702 Z " />
<glyph glyph-name="Eogonek" unicode="&#x118;" horiz-adv-x="787" d="M714 0 L714 283 L634 283 C619 112 589 75 465 76 L279 76 L279 310 L320 310 C409 311 423 294 432 174 L513 174 L513 507 L432 507 C421 397 413 389 319 386 L279 386 L279 591 L449 591 C594 593 629 558 634 402 L714 402 L714 667 L26 667 L26 591 L68 591 C131 592 139 584 139 529 L139 138 C139 83 131 75 68 76 L26 76 L26 0 L640 0 C561 -48 518 -101 518 -152 C518 -198 552 -227 607 -227 C660 -227 696 -201 727 -140 L709 -130 C685 -159 676 -164 652 -164 C623 -164 606 -146 606 -114 C606 -74 628 -38 676 0 L714 0 Z " />
<glyph glyph-name="eogonek" unicode="&#x119;" horiz-adv-x="558" d="M434 167 C422 123 412 103 392 87 C372 71 341 62 305 62 C260 62 229 76 206 107 C186 135 178 162 173 225 L525 225 C520 325 506 371 468 416 C428 463 369 486 290 486 C135 486 31 384 31 233 C31 85 134 -18 281 -18 L290 -18 C223 -67 196 -107 196 -152 C196 -198 229 -227 283 -227 C336 -227 372 -201 403 -140 L386 -130 C361 -159 352 -164 328 -164 C298 -164 282 -146 282 -113 C282 -65 311 -30 369 -8 C466 25 505 69 522 167 L434 167 Z M178 295 C188 345 197 367 217 389 C236 410 260 420 291 420 C351 420 376 387 387 295 L178 295 Z " />
<glyph glyph-name="Ecaron" unicode="&#x11a;" horiz-adv-x="787" d="M26 0 L714 0 L714 283 L634 283 C619 112 589 75 465 76 L279 76 L279 310 L320 310 C409 311 423 294 432 174 L513 174 L513 507 L432 507 C421 397 413 389 319 386 L279 386 L279 591 L449 591 C594 593 629 558 634 402 L714 402 L714 667 L26 667 L26 591 L68 591 C131 592 139 584 139 529 L139 138 C139 83 131 75 68 76 L26 76 L26 0 Z M239 858 L336 721 L451 721 L548 858 L501 858 L393 803 L286 858 L239 858 Z " />
<glyph glyph-name="ecaron" unicode="&#x11b;" horiz-adv-x="558" d="M434 167 C422 123 412 103 392 87 C372 71 341 62 305 62 C260 62 229 76 206 107 C186 135 178 162 173 225 L525 225 C520 325 506 371 468 416 C428 463 369 486 290 486 C135 486 31 384 31 233 C31 83 133 -18 286 -18 C351 -18 405 -2 446 29 C490 62 508 95 522 167 L434 167 Z M178 295 C188 345 197 367 217 389 C236 410 260 420 291 420 C351 420 376 387 387 295 L178 295 Z M123 719 L234 540 L324 540 L434 719 L386 719 L279 636 L172 719 L123 719 Z " />
<glyph glyph-name="Gbreve" unicode="&#x11e;" horiz-adv-x="824" d="M637 -4 L708 -4 L708 219 C709 274 715 280 767 281 L813 281 L813 357 L443 357 L443 281 L489 281 C562 282 571 276 570 226 L570 189 C570 149 561 129 535 108 C503 83 458 69 409 69 C272 69 192 166 192 333 C192 500 273 606 400 606 C457 606 508 585 548 544 C581 511 597 481 616 411 L693 411 L693 671 L621 671 L593 614 C513 672 472 687 386 687 C187 687 36 535 36 334 C36 129 184 -19 389 -19 C472 -19 515 -4 600 52 L637 -4 Z M230 858 C241 808 251 786 273 764 C301 736 341 720 386 720 C431 720 473 736 501 764 C523 786 533 808 543 858 L498 858 C482 820 453 806 387 806 C320 806 292 819 275 858 L230 858 Z " />
<glyph glyph-name="gbreve" unicode="&#x11f;" horiz-adv-x="693" d="M227 81 C188 81 176 83 164 94 C158 99 154 107 154 114 C154 126 162 136 186 149 C238 136 263 132 300 132 C442 132 530 199 530 308 C530 341 524 362 501 403 C526 433 545 444 571 444 C583 444 590 441 605 431 C570 421 555 405 555 376 C555 342 584 316 622 316 C663 316 691 346 691 388 C691 448 647 486 578 486 C537 486 512 475 475 441 C417 474 373 486 303 486 C162 486 70 416 70 309 C70 257 88 222 141 175 C74 149 48 121 48 76 C48 31 74 4 133 -13 C60 -35 36 -56 36 -98 C36 -171 133 -214 296 -214 C388 -214 469 -200 521 -175 C568 -152 599 -104 599 -53 C599 -7 573 36 533 56 C495 75 455 81 370 81 L227 81 Z M300 428 C368 428 399 391 399 309 C399 230 369 195 299 195 C231 195 202 231 202 315 C202 392 233 428 300 428 L300 428 Z M301 -25 C417 -25 453 -39 453 -84 C453 -132 398 -157 288 -157 C185 -157 134 -135 134 -89 C134 -72 143 -56 159 -45 C178 -31 221 -25 301 -25 L301 -25 Z M166 704 C177 649 188 624 210 600 C238 571 279 555 324 555 C369 555 411 572 439 600 C461 623 471 649 482 704 L437 704 C421 659 394 644 324 644 C255 644 229 658 211 704 L166 704 Z " />
<glyph glyph-name="Gcommaaccent" unicode="&#x122;" horiz-adv-x="824" d="M637 -4 L708 -4 L708 219 C709 274 715 280 767 281 L813 281 L813 357 L443 357 L443 281 L489 281 C562 282 571 276 570 226 L570 189 C570 149 561 129 535 108 C503 83 458 69 409 69 C272 69 192 166 192 333 C192 500 273 606 400 606 C457 606 508 585 548 544 C581 511 597 481 616 411 L693 411 L693 671 L621 671 L593 614 C513 672 472 687 386 687 C187 687 36 535 36 334 C36 129 184 -19 389 -19 C472 -19 515 -4 600 52 L637 -4 Z M359 -280 C402 -276 424 -266 446 -245 C470 -220 484 -185 484 -146 C484 -92 452 -57 402 -57 C364 -57 337 -82 337 -116 C337 -146 359 -168 388 -168 C400 -168 409 -165 426 -157 C421 -210 403 -233 359 -240 L359 -280 Z " />
<glyph glyph-name="gcommaaccent" unicode="&#x123;" horiz-adv-x="693" d="M227 81 C188 81 176 83 164 94 C158 99 154 107 154 114 C154 126 162 136 186 149 C238 136 263 132 300 132 C442 132 530 199 530 308 C530 341 524 362 501 403 C526 433 545 444 571 444 C583 444 590 441 605 431 C570 421 555 405 555 376 C555 342 584 316 622 316 C663 316 691 346 691 388 C691 448 647 486 578 486 C537 486 512 475 475 441 C417 474 373 486 303 486 C162 486 70 416 70 309 C70 257 88 222 141 175 C74 149 48 121 48 76 C48 31 74 4 133 -13 C60 -35 36 -56 36 -98 C36 -171 133 -214 296 -214 C388 -214 469 -200 521 -175 C568 -152 599 -104 599 -53 C599 -7 573 36 533 56 C495 75 455 81 370 81 L227 81 Z M300 428 C368 428 399 391 399 309 C399 230 369 195 299 195 C231 195 202 231 202 315 C202 392 233 428 300 428 L300 428 Z M301 -25 C417 -25 453 -39 453 -84 C453 -132 398 -157 288 -157 C185 -157 134 -135 134 -89 C134 -72 143 -56 159 -45 C178 -31 221 -25 301 -25 L301 -25 Z M365 749 C322 745 300 735 278 714 C254 689 240 654 240 615 C240 561 272 526 322 526 C360 526 387 551 387 585 C387 615 365 637 336 637 C324 637 315 634 298 626 C303 679 321 702 365 709 L365 749 Z " />
<glyph glyph-name="Imacron" unicode="&#x12a;" horiz-adv-x="433" d="M28 0 L405 0 L405 76 L359 76 C295 75 286 83 287 137 L287 530 C286 584 295 592 359 591 L405 591 L405 667 L28 667 L28 591 L74 591 C137 592 146 584 145 530 L145 137 C145 83 137 75 74 76 L28 76 L28 0 Z M78 750 L367 750 L367 829 L78 829 L78 750 Z " />
<glyph glyph-name="imacron" unicode="&#x12b;" horiz-adv-x="365" d="M26 0 L342 0 L342 67 L310 67 C256 69 248 77 248 126 L248 469 L26 469 L26 402 L64 402 C117 400 124 392 124 343 L124 126 C124 77 117 69 64 67 L26 67 L26 0 Z M34 588 L331 588 L331 670 L34 670 L34 588 Z " />
<glyph glyph-name="Iogonek" unicode="&#x12e;" horiz-adv-x="433" d="M405 0 L405 76 L359 76 C295 75 286 83 287 137 L287 530 C286 584 295 592 359 591 L405 591 L405 667 L28 667 L28 591 L74 591 C137 592 146 584 145 530 L145 137 C145 83 137 75 74 76 L28 76 L28 0 L310 0 C237 -47 201 -96 201 -144 C201 -190 235 -219 289 -219 C343 -219 379 -193 411 -132 L393 -122 C368 -151 359 -156 336 -156 C306 -156 289 -138 289 -106 C289 -69 307 -37 349 0 L405 0 Z " />
<glyph glyph-name="iogonek" unicode="&#x12f;" horiz-adv-x="365" d="M342 0 L342 67 L310 67 C256 69 248 77 248 126 L248 469 L26 469 L26 402 L64 402 C117 400 124 392 124 343 L124 126 C124 77 117 69 64 67 L26 67 L26 0 L292 0 C201 -53 156 -106 156 -160 C156 -207 190 -235 244 -235 C297 -235 333 -209 365 -148 L347 -138 C321 -168 314 -172 290 -172 C261 -172 244 -154 244 -122 C244 -79 265 -47 324 0 L342 0 Z M179 675 C137 675 104 642 104 599 C104 560 138 527 178 527 C219 527 252 560 252 601 C252 642 219 675 179 675 L179 675 Z " />
<glyph glyph-name="Idotaccent" unicode="&#x130;" horiz-adv-x="433" d="M28 0 L405 0 L405 76 L359 76 C295 75 286 83 287 137 L287 530 C286 584 295 592 359 591 L405 591 L405 667 L28 667 L28 591 L74 591 C137 592 146 584 145 530 L145 137 C145 83 137 75 74 76 L28 76 L28 0 Z M217 862 C180 862 146 829 146 792 C146 753 178 721 217 721 C255 721 287 753 287 791 C287 829 254 862 217 862 L217 862 Z " />
<glyph glyph-name="dotlessi" unicode="&#x131;" horiz-adv-x="365" d="M26 0 L342 0 L342 67 L310 67 C256 69 248 77 248 126 L248 469 L26 469 L26 402 L64 402 C117 400 124 392 124 343 L124 126 C124 77 117 69 64 67 L26 67 L26 0 Z " />
<glyph glyph-name="Kcommaaccent" unicode="&#x136;" horiz-adv-x="808" d="M276 229 L394 324 L537 128 C548 113 554 101 554 93 C554 80 545 76 510 76 L453 76 L453 0 L842 0 L842 76 L807 76 C753 76 743 81 707 126 L493 414 L596 503 C674 570 714 590 774 591 L798 591 L798 667 L445 667 L445 591 L491 591 C519 591 532 587 532 579 C532 572 525 562 515 553 L276 342 L276 530 C275 584 284 592 347 591 L382 591 L382 667 L26 667 L26 591 L68 591 C131 592 140 584 139 530 L139 137 C139 83 131 75 68 76 L26 76 L26 0 L376 0 L376 76 L347 76 C284 75 275 83 276 137 L276 229 Z M351 -280 C394 -276 416 -266 438 -245 C462 -220 476 -185 476 -146 C476 -92 444 -57 394 -57 C356 -57 329 -82 329 -116 C329 -146 351 -168 380 -168 C392 -168 401 -165 418 -157 C413 -210 395 -233 351 -240 L351 -280 Z " />
<glyph glyph-name="kcommaaccent" unicode="&#x137;" horiz-adv-x="667" d="M236 241 L236 667 L26 667 L26 600 L53 600 C106 598 113 591 113 541 L113 126 C113 77 106 70 53 67 L26 67 L26 0 L311 0 L311 67 L298 67 C244 70 236 77 236 126 L236 149 L337 224 L420 108 C426 99 432 87 432 82 C432 73 420 67 403 67 L367 67 L367 0 L669 0 L669 67 L645 67 C605 68 577 85 549 123 L425 289 L522 365 C561 395 572 400 613 402 L634 402 L634 469 L322 469 L322 402 L378 402 C408 402 415 399 415 388 C415 381 409 373 397 364 L236 241 Z M281 -280 C324 -276 346 -266 368 -245 C392 -220 406 -185 406 -146 C406 -92 374 -57 324 -57 C286 -57 259 -82 259 -116 C259 -146 281 -168 310 -168 C322 -168 331 -165 348 -157 C343 -210 325 -233 281 -240 L281 -280 Z " />
<glyph glyph-name="Lacute" unicode="&#x139;" horiz-adv-x="725" d="M26 667 L26 591 L68 591 C131 592 140 584 139 530 L139 137 C139 83 131 75 68 76 L26 76 L26 0 L676 0 L676 288 L596 288 C595 113 561 74 412 76 L279 76 L279 530 C278 584 287 592 350 591 L401 591 L401 667 L26 667 Z M328 721 L465 772 C492 782 508 801 508 822 C508 847 487 868 462 868 C446 868 433 862 411 842 L274 721 L328 721 Z " />
<glyph glyph-name="lacute" unicode="&#x13a;" horiz-adv-x="355" d="M237 667 L21 667 L21 600 L53 600 C106 598 113 591 113 541 L113 126 C113 76 106 69 53 67 L21 67 L21 0 L332 0 L332 67 L299 67 C244 69 237 76 237 126 L237 667 Z M142 721 L197 721 L355 800 C392 818 406 834 406 858 C406 888 383 911 353 911 C329 911 310 899 277 864 L142 721 Z " />
<glyph glyph-name="Lcommaaccent" unicode="&#x13b;" horiz-adv-x="725" d="M26 667 L26 591 L68 591 C131 592 140 584 139 530 L139 137 C139 83 131 75 68 76 L26 76 L26 0 L676 0 L676 288 L596 288 C595 113 561 74 412 76 L279 76 L279 530 C278 584 287 592 350 591 L401 591 L401 667 L26 667 Z M310 -280 C353 -276 375 -266 397 -245 C421 -220 435 -185 435 -146 C435 -92 403 -57 353 -57 C315 -57 288 -82 288 -116 C288 -146 310 -168 339 -168 C351 -168 360 -165 377 -157 C372 -210 354 -233 310 -240 L310 -280 Z " />
<glyph glyph-name="lcommaaccent" unicode="&#x13c;" horiz-adv-x="355" d="M237 667 L21 667 L21 600 L53 600 C106 598 113 591 113 541 L113 126 C113 76 106 69 53 67 L21 67 L21 0 L332 0 L332 67 L299 67 C244 69 237 76 237 126 L237 667 Z M125 -280 C168 -276 190 -266 212 -245 C236 -220 250 -185 250 -146 C250 -92 218 -57 168 -57 C130 -57 103 -82 103 -116 C103 -146 125 -168 154 -168 C166 -168 175 -165 192 -157 C187 -210 169 -233 125 -240 L125 -280 Z " />
<glyph glyph-name="Lcaron" unicode="&#x13d;" horiz-adv-x="725" d="M26 667 L26 591 L68 591 C131 592 140 584 139 530 L139 137 C139 83 131 75 68 76 L26 76 L26 0 L676 0 L676 288 L596 288 C595 113 561 74 412 76 L279 76 L279 530 C278 584 287 592 350 591 L401 591 L401 667 L26 667 Z M495 456 C539 461 563 470 586 492 C611 516 626 552 626 591 C626 645 592 680 541 680 C501 680 472 655 472 620 C472 590 495 568 525 568 C538 568 547 571 565 580 C560 526 542 504 495 496 L495 456 Z " />
<glyph glyph-name="lcaron" unicode="&#x13e;" horiz-adv-x="355" d="M237 667 L21 667 L21 600 L53 600 C106 598 113 591 113 541 L113 126 C113 76 106 69 53 67 L21 67 L21 0 L332 0 L332 67 L299 67 C244 69 237 76 237 126 L237 667 Z M331 468 C373 472 396 482 418 504 C442 528 456 564 456 603 C456 656 424 692 374 692 C336 692 309 667 309 632 C309 602 331 580 360 580 C372 580 381 583 398 592 C393 537 376 515 331 508 L331 468 Z " />
<glyph glyph-name="Lslash" unicode="&#x141;" horiz-adv-x="730" d="M29 667 L29 591 L71 591 C134 592 142 584 142 530 L142 317 L5 227 L5 147 L142 236 L142 137 C142 83 134 75 71 76 L29 76 L29 0 L679 0 L679 288 L599 288 C598 113 564 73 415 76 L282 76 L282 297 L467 418 L467 499 L282 378 L282 530 C281 584 290 592 353 591 L404 591 L404 667 L29 667 Z " />
<glyph glyph-name="lslash" unicode="&#x142;" horiz-adv-x="365" d="M119 282 L119 126 C119 76 112 69 59 67 L27 67 L27 0 L338 0 L338 67 L305 67 C250 69 243 76 243 126 L243 335 L367 412 L367 476 L243 398 L243 667 L27 667 L27 600 L59 600 C112 598 119 591 119 541 L119 346 L5 273 L5 209 L119 282 Z " />
<glyph glyph-name="Nacute" unicode="&#x143;" horiz-adv-x="855" d="M730 0 L730 530 C729 584 738 592 801 591 L836 591 L836 667 L505 667 L505 591 L555 591 C617 592 626 584 625 530 L625 183 L312 667 L14 667 L14 591 L60 591 C122 592 131 584 130 530 L130 137 C131 83 122 75 60 76 L10 76 L10 0 L355 0 L355 76 L306 76 C243 75 235 83 235 137 L235 543 L587 0 L730 0 Z M393 721 L530 772 C557 782 573 801 573 822 C573 847 552 868 527 868 C511 868 498 862 476 842 L338 721 L393 721 Z " />
<glyph glyph-name="nacute" unicode="&#x144;" horiz-adv-x="683" d="M26 0 L326 0 L326 67 L305 67 C253 69 246 77 246 126 L246 247 C246 303 253 329 276 358 C301 389 337 407 375 407 C401 407 425 397 438 381 C450 366 453 352 453 311 L453 126 C453 76 446 70 391 67 L370 67 L370 0 L666 0 L666 67 L635 67 C581 69 573 77 573 126 L573 311 C573 382 563 418 537 443 C512 468 466 484 421 484 C354 484 310 459 246 386 L246 469 L26 469 L26 402 L60 402 C113 399 120 392 120 343 L120 126 C120 77 113 70 60 67 L26 67 L26 0 Z M241 540 L296 540 L455 619 C491 637 505 653 505 677 C505 707 482 730 452 730 C428 730 409 718 376 683 L241 540 Z " />
<glyph glyph-name="Ncommaaccent" unicode="&#x145;" horiz-adv-x="855" d="M730 0 L730 530 C729 584 738 592 801 591 L836 591 L836 667 L505 667 L505 591 L555 591 C617 592 626 584 625 530 L625 183 L312 667 L14 667 L14 591 L60 591 C122 592 131 584 130 530 L130 137 C131 83 122 75 60 76 L10 76 L10 0 L355 0 L355 76 L306 76 C243 75 235 83 235 137 L235 543 L587 0 L730 0 Z M375 -280 C418 -276 440 -266 462 -245 C486 -220 500 -185 500 -146 C500 -92 468 -57 418 -57 C380 -57 353 -82 353 -116 C353 -146 375 -168 404 -168 C416 -168 425 -165 442 -157 C437 -210 419 -233 375 -240 L375 -280 Z " />
<glyph glyph-name="ncommaaccent" unicode="&#x146;" horiz-adv-x="683" d="M26 0 L326 0 L326 67 L305 67 C253 69 246 77 246 126 L246 247 C246 303 253 329 276 358 C301 389 337 407 375 407 C401 407 425 397 438 381 C450 366 453 352 453 311 L453 126 C453 76 446 70 391 67 L370 67 L370 0 L666 0 L666 67 L635 67 C581 69 573 77 573 126 L573 311 C573 382 563 418 537 443 C512 468 466 484 421 484 C354 484 310 459 246 386 L246 469 L26 469 L26 402 L60 402 C113 399 120 392 120 343 L120 126 C120 77 113 70 60 67 L26 67 L26 0 Z M289 -280 C332 -276 354 -266 376 -245 C400 -220 414 -185 414 -146 C414 -92 382 -57 332 -57 C294 -57 267 -82 267 -116 C267 -146 289 -168 318 -168 C330 -168 339 -165 356 -157 C351 -210 333 -233 289 -240 L289 -280 Z " />
<glyph glyph-name="Ncaron" unicode="&#x147;" horiz-adv-x="855" d="M730 0 L730 530 C729 584 738 592 801 591 L836 591 L836 667 L505 667 L505 591 L555 591 C617 592 626 584 625 530 L625 183 L312 667 L14 667 L14 591 L60 591 C122 592 131 584 130 530 L130 137 C131 83 122 75 60 76 L10 76 L10 0 L355 0 L355 76 L306 76 C243 75 235 83 235 137 L235 543 L587 0 L730 0 Z M273 858 L369 721 L485 721 L581 858 L535 858 L427 803 L319 858 L273 858 Z " />
<glyph glyph-name="ncaron" unicode="&#x148;" horiz-adv-x="683" d="M26 0 L326 0 L326 67 L305 67 C253 69 246 77 246 126 L246 247 C246 303 253 329 276 358 C301 389 337 407 375 407 C401 407 425 397 438 381 C450 366 453 352 453 311 L453 126 C453 76 446 70 391 67 L370 67 L370 0 L666 0 L666 67 L635 67 C581 69 573 77 573 126 L573 311 C573 382 563 418 537 443 C512 468 466 484 421 484 C354 484 310 459 246 386 L246 469 L26 469 L26 402 L60 402 C113 399 120 392 120 343 L120 126 C120 77 113 70 60 67 L26 67 L26 0 Z M186 719 L297 540 L386 540 L497 719 L448 719 L341 636 L234 719 L186 719 Z " />
<glyph glyph-name="Omacron" unicode="&#x14c;" horiz-adv-x="845" d="M422 686 C311 686 223 656 150 594 C78 533 37 440 37 339 C37 226 74 139 150 73 C221 11 311 -19 423 -19 C653 -19 807 123 807 334 C807 545 653 686 422 686 L422 686 Z M422 607 C494 607 553 580 595 529 C633 482 651 420 651 333 C651 247 634 186 595 138 C554 87 495 60 423 60 C349 60 291 86 249 138 C210 187 193 246 193 338 C193 506 279 607 422 607 L422 607 Z M277 750 L567 750 L567 829 L277 829 L277 750 Z " />
<glyph glyph-name="omacron" unicode="&#x14d;" horiz-adv-x="615" d="M308 486 C142 486 30 386 30 238 C30 82 138 -17 310 -17 C476 -17 586 83 586 234 C586 386 476 486 308 486 L308 486 Z M308 416 C403 416 450 356 450 235 C450 113 403 53 308 53 C212 53 166 113 166 237 C166 356 214 416 308 416 L308 416 Z M159 588 L457 588 L457 670 L159 670 L159 588 Z " />
<glyph glyph-name="Ohungarumlaut" unicode="&#x150;" horiz-adv-x="845" d="M422 686 C311 686 223 656 150 594 C78 533 37 440 37 339 C37 226 74 139 150 73 C221 11 311 -19 423 -19 C653 -19 807 123 807 334 C807 545 653 686 422 686 L422 686 Z M422 607 C494 607 553 580 595 529 C633 482 651 420 651 333 C651 247 634 186 595 138 C554 87 495 60 423 60 C349 60 291 86 249 138 C210 187 193 246 193 338 C193 506 279 607 422 607 L422 607 Z M375 721 L470 786 C487 798 497 813 497 828 C497 850 477 869 455 869 C437 869 423 858 406 831 L337 721 L375 721 Z M516 721 L637 783 C661 795 672 809 672 826 C672 848 652 868 630 868 C613 868 599 859 580 838 L478 721 L516 721 Z " />
<glyph glyph-name="ohungarumlaut" unicode="&#x151;" horiz-adv-x="615" d="M308 486 C142 486 30 386 30 238 C30 82 138 -17 310 -17 C476 -17 586 83 586 234 C586 386 476 486 308 486 L308 486 Z M308 416 C403 416 450 356 450 235 C450 113 403 53 308 53 C212 53 166 113 166 237 C166 356 214 416 308 416 L308 416 Z M211 540 L254 540 L363 637 C382 654 392 671 392 687 C392 711 372 731 348 731 C321 731 307 718 281 671 L211 540 Z M350 540 L394 540 L534 631 C559 648 573 665 573 682 C573 708 553 729 527 729 C502 729 489 719 458 680 L350 540 Z " />
<glyph glyph-name="OE" unicode="&#x152;" horiz-adv-x="1298" d="M1220 667 L754 667 L424 686 C192 686 36 544 36 333 C36 123 192 -19 424 -19 C466 -19 529 -16 592 -10 C664 -3 731 1 754 0 L1220 0 L1220 283 L1140 283 C1125 113 1094 75 970 76 L784 76 L784 310 L825 310 C914 311 929 293 937 174 L1018 174 L1018 507 L937 507 C927 398 918 388 824 386 L784 386 L784 591 L954 591 C1099 593 1134 557 1140 402 L1220 402 L1220 667 Z M644 138 C644 98 640 88 623 80 C595 67 523 57 462 57 C282 57 192 149 192 333 C192 518 282 610 463 610 C518 610 588 601 617 589 C640 580 644 572 644 529 L644 138 Z " />
<glyph glyph-name="oe" unicode="&#x153;" horiz-adv-x="959" d="M838 167 C826 123 815 103 794 87 C774 71 739 61 706 61 C665 61 627 79 605 109 C586 137 579 164 577 225 L928 225 C924 325 910 371 871 416 C832 462 772 486 698 486 C622 486 576 469 510 415 C438 467 381 486 302 486 C142 486 31 383 31 235 C31 84 141 -17 305 -17 C353 -17 402 -7 439 11 C464 24 480 36 510 67 C537 39 552 27 571 15 C607 -5 657 -17 707 -17 C774 -17 824 2 865 42 C900 77 913 103 925 167 L838 167 Z M306 416 C399 416 445 356 445 235 C445 113 399 53 306 53 C212 53 167 112 167 238 C167 356 214 416 306 416 L306 416 Z M581 295 C595 388 622 420 689 420 C755 420 779 390 790 295 L581 295 Z " />
<glyph glyph-name="Racute" unicode="&#x154;" horiz-adv-x="808" d="M401 76 L350 76 C287 76 278 83 279 137 L279 314 L330 314 C457 314 491 286 495 181 L498 103 C501 25 550 -19 634 -19 C697 -19 742 5 760 48 C774 81 777 105 777 174 L777 190 L710 190 C709 93 705 79 678 79 C656 79 649 91 646 135 L642 194 C640 286 606 321 502 337 C571 348 601 357 634 378 C678 407 702 451 702 506 C702 557 679 601 641 626 C596 655 538 667 444 667 L26 667 L26 591 L68 591 C131 592 139 584 139 529 L139 137 C139 83 131 75 68 76 L26 76 L26 0 L401 0 L401 76 Z M279 390 L279 591 L403 591 C459 591 485 587 510 575 C539 561 556 530 556 490 C556 420 511 390 406 390 L279 390 Z M290 721 L428 772 C455 782 471 801 471 822 C471 847 450 868 425 868 C409 868 396 862 374 842 L236 721 L290 721 Z " />
<glyph glyph-name="racute" unicode="&#x155;" horiz-adv-x="516" d="M357 67 L306 67 C253 69 246 77 246 126 L246 252 C246 301 258 347 279 377 C301 409 338 430 366 429 C377 428 392 425 410 419 C364 405 346 385 346 351 C346 314 375 290 418 290 C467 290 502 325 502 374 C502 436 449 482 378 482 C322 482 286 460 246 398 L246 469 L26 469 L26 402 L60 402 C113 399 120 392 120 343 L120 126 C120 77 113 70 60 67 L26 67 L26 0 L357 0 L357 67 Z M158 540 L213 540 L371 619 C407 636 421 653 421 677 C421 707 398 730 368 730 C345 730 326 718 293 683 L158 540 Z " />
<glyph glyph-name="Rcommaaccent" unicode="&#x156;" horiz-adv-x="808" d="M401 76 L350 76 C287 76 278 83 279 137 L279 314 L330 314 C457 314 491 286 495 181 L498 103 C501 25 550 -19 634 -19 C697 -19 742 5 760 48 C774 81 777 105 777 174 L777 190 L710 190 C709 93 705 79 678 79 C656 79 649 91 646 135 L642 194 C640 286 606 321 502 337 C571 348 601 357 634 378 C678 407 702 451 702 506 C702 557 679 601 641 626 C596 655 538 667 444 667 L26 667 L26 591 L68 591 C131 592 139 584 139 529 L139 137 C139 83 131 75 68 76 L26 76 L26 0 L401 0 L401 76 Z M279 390 L279 591 L403 591 C459 591 485 587 510 575 C539 561 556 530 556 490 C556 420 511 390 406 390 L279 390 Z M351 -280 C394 -276 416 -266 438 -245 C462 -220 476 -185 476 -146 C476 -92 444 -57 394 -57 C356 -57 329 -82 329 -116 C329 -146 351 -168 380 -168 C392 -168 401 -165 418 -157 C413 -210 395 -233 351 -240 L351 -280 Z " />
<glyph glyph-name="rcommaaccent" unicode="&#x157;" horiz-adv-x="516" d="M357 67 L306 67 C253 69 246 77 246 126 L246 252 C246 301 258 347 279 377 C301 409 338 430 366 429 C377 428 392 425 410 419 C364 405 346 385 346 351 C346 314 375 290 418 290 C467 290 502 325 502 374 C502 436 449 482 378 482 C322 482 286 460 246 398 L246 469 L26 469 L26 402 L60 402 C113 399 120 392 120 343 L120 126 C120 77 113 70 60 67 L26 67 L26 0 L357 0 L357 67 Z M129 -280 C172 -276 194 -266 216 -245 C240 -220 254 -185 254 -146 C254 -92 222 -57 172 -57 C134 -57 107 -82 107 -116 C107 -146 129 -168 158 -168 C170 -168 179 -165 196 -157 C191 -210 173 -233 129 -240 L129 -280 Z " />
<glyph glyph-name="Rcaron" unicode="&#x158;" horiz-adv-x="808" d="M401 76 L350 76 C287 76 278 83 279 137 L279 314 L330 314 C457 314 491 286 495 181 L498 103 C501 25 550 -19 634 -19 C697 -19 742 5 760 48 C774 81 777 105 777 174 L777 190 L710 190 C709 93 705 79 678 79 C656 79 649 91 646 135 L642 194 C640 286 606 321 502 337 C571 348 601 357 634 378 C678 407 702 451 702 506 C702 557 679 601 641 626 C596 655 538 667 444 667 L26 667 L26 591 L68 591 C131 592 139 584 139 529 L139 137 C139 83 131 75 68 76 L26 76 L26 0 L401 0 L401 76 Z M279 390 L279 591 L403 591 C459 591 485 587 510 575 C539 561 556 530 556 490 C556 420 511 390 406 390 L279 390 Z M143 858 L239 721 L355 721 L451 858 L405 858 L297 803 L189 858 L143 858 Z " />
<glyph glyph-name="rcaron" unicode="&#x159;" horiz-adv-x="516" d="M357 67 L306 67 C253 69 246 77 246 126 L246 252 C246 301 258 347 279 377 C301 409 338 430 366 429 C377 428 392 425 410 419 C364 405 346 385 346 351 C346 314 375 290 418 290 C467 290 502 325 502 374 C502 436 449 482 378 482 C322 482 286 460 246 398 L246 469 L26 469 L26 402 L60 402 C113 399 120 392 120 343 L120 126 C120 77 113 70 60 67 L26 67 L26 0 L357 0 L357 67 Z M91 719 L202 540 L291 540 L402 719 L354 719 L246 636 L140 719 L91 719 Z " />
<glyph glyph-name="Sacute" unicode="&#x15a;" horiz-adv-x="673" d="M45 0 L117 0 L140 62 C232 1 291 -19 372 -19 C525 -19 634 69 634 193 C634 253 606 309 562 341 C525 366 468 390 411 402 L270 433 C192 450 161 475 161 520 C161 573 212 606 295 606 C347 606 403 588 438 560 C478 527 502 482 518 414 L597 414 L597 667 L535 667 L498 618 C414 673 372 687 293 687 C143 687 42 604 42 481 C42 375 108 317 272 281 L385 256 C474 236 510 208 510 157 C510 102 459 71 369 71 C300 71 251 86 206 123 C163 158 144 194 126 275 L45 275 L45 0 Z M302 721 L440 772 C467 782 483 801 483 822 C483 847 462 868 437 868 C420 868 407 861 385 842 L248 721 L302 721 Z " />
<glyph glyph-name="sacute" unicode="&#x15b;" horiz-adv-x="516" d="M31 -6 L100 -6 L119 36 C191 -7 221 -17 285 -17 C409 -17 485 41 485 135 C485 215 432 261 309 289 L215 310 C169 320 151 335 151 361 C151 394 182 415 232 415 C266 415 309 402 334 384 C360 365 373 345 388 302 L459 302 L459 475 L399 475 L377 439 C324 473 284 486 228 486 C113 486 36 427 36 339 C36 266 88 219 196 194 L273 177 C343 161 367 146 367 115 C367 78 332 55 276 55 C244 55 214 62 190 74 C146 96 126 125 107 186 L31 186 L31 -6 Z M176 540 L231 540 L390 619 C426 637 440 653 440 677 C440 707 417 730 387 730 C363 730 344 718 311 683 L176 540 Z " />
<glyph glyph-name="Scedilla" unicode="&#x15e;" horiz-adv-x="673" d="M350 -19 L372 -19 C525 -19 634 69 634 193 C634 253 606 309 562 341 C525 366 468 390 411 402 L270 433 C192 450 161 475 161 520 C161 574 212 606 296 606 C347 606 403 588 438 560 C478 527 502 482 518 414 L597 414 L597 667 L535 667 L498 618 C414 673 372 687 293 687 C143 687 42 604 42 480 C42 375 108 317 272 281 L385 256 C474 236 510 208 510 157 C510 102 459 71 369 71 C300 71 252 86 207 123 C163 158 144 194 126 275 L45 275 L45 0 L117 0 L140 62 C212 15 245 0 308 -13 L308 -101 C321 -99 335 -98 342 -98 C372 -98 390 -113 390 -136 C390 -158 372 -171 343 -171 C307 -171 266 -158 221 -132 L197 -182 C269 -214 316 -227 365 -227 C434 -227 480 -191 480 -137 C480 -91 442 -55 394 -55 C382 -55 366 -56 350 -59 L350 -19 Z " />
<glyph glyph-name="scedilla" unicode="&#x15f;" horiz-adv-x="516" d="M264 -17 L288 -17 C409 -17 485 42 485 135 C485 215 433 261 309 289 L216 310 C169 320 151 335 151 361 C151 394 182 415 232 415 C266 415 310 402 334 384 C360 365 373 345 388 302 L459 302 L459 475 L399 475 L377 439 C324 473 284 486 228 486 C113 486 36 427 36 339 C36 266 88 219 197 194 L273 177 C343 161 367 146 367 115 C367 78 332 55 276 55 C244 55 214 62 190 74 C146 96 126 124 108 186 L31 186 L31 -6 L100 -6 L119 36 C169 6 189 -3 222 -11 L222 -99 C235 -97 248 -96 256 -96 C285 -96 303 -111 303 -135 C303 -158 286 -171 256 -171 C221 -171 179 -158 135 -132 L110 -182 C183 -214 230 -227 278 -227 C348 -227 392 -192 392 -136 C392 -89 356 -53 308 -53 C295 -53 280 -54 264 -56 L264 -17 Z " />
<glyph glyph-name="Scaron" unicode="&#x160;" horiz-adv-x="673" d="M45 0 L117 0 L140 62 C232 1 291 -19 372 -19 C525 -19 634 69 634 193 C634 253 606 309 562 341 C525 366 468 390 411 402 L270 433 C192 450 161 475 161 520 C161 573 212 606 295 606 C347 606 403 588 438 560 C478 527 502 482 518 414 L597 414 L597 667 L535 667 L498 618 C414 673 372 687 293 687 C143 687 42 604 42 481 C42 375 108 317 272 281 L385 256 C474 236 510 208 510 157 C510 102 459 71 369 71 C300 71 251 86 206 123 C163 158 144 194 126 275 L45 275 L45 0 Z M182 858 L279 721 L394 721 L491 858 L444 858 L336 803 L229 858 L182 858 Z " />
<glyph glyph-name="scaron" unicode="&#x161;" horiz-adv-x="516" d="M31 -6 L100 -6 L119 36 C191 -7 221 -17 285 -17 C409 -17 485 41 485 135 C485 215 432 261 309 289 L215 310 C169 320 151 335 151 361 C151 394 182 415 232 415 C266 415 309 402 334 384 C360 365 373 345 388 302 L459 302 L459 475 L399 475 L377 439 C324 473 284 486 228 486 C113 486 36 427 36 339 C36 266 88 219 196 194 L273 177 C343 161 367 146 367 115 C367 78 332 55 276 55 C244 55 214 62 190 74 C146 96 126 125 107 186 L31 186 L31 -6 Z M102 719 L213 540 L303 540 L414 719 L365 719 L258 636 L151 719 L102 719 Z " />
<glyph glyph-name="Tcommaaccent" unicode="&#x162;" horiz-adv-x="709" d="M284 137 C284 83 276 75 213 76 L151 76 L151 0 L557 0 L557 76 L495 76 C432 75 423 83 424 137 L424 593 C553 595 600 543 604 391 L683 391 L683 667 L25 667 L25 391 L104 391 C108 543 155 596 284 593 L284 137 Z M302 -280 C345 -276 367 -266 389 -245 C413 -220 427 -185 427 -146 C427 -92 395 -57 345 -57 C307 -57 280 -82 280 -116 C280 -146 302 -168 331 -168 C343 -168 352 -165 369 -157 C364 -210 346 -233 302 -240 L302 -280 Z " />
<glyph glyph-name="tcommaaccent" unicode="&#x163;" horiz-adv-x="422" d="M100 400 L100 147 C100 87 106 59 124 32 C145 -1 181 -17 230 -17 C289 -17 332 5 353 46 C371 80 376 114 376 186 C376 190 376 206 375 221 L308 221 C306 137 306 133 301 111 C296 86 282 75 258 75 C229 75 220 89 220 133 L220 400 L360 400 L360 469 L225 469 L225 653 L159 653 C146 525 116 486 16 465 L16 400 L100 400 Z M126 -280 C169 -276 191 -266 213 -245 C237 -220 251 -185 251 -146 C251 -92 219 -57 169 -57 C131 -57 104 -82 104 -116 C104 -146 126 -168 155 -168 C167 -168 176 -165 193 -157 C188 -210 170 -233 126 -240 L126 -280 Z " />
<glyph glyph-name="Tcaron" unicode="&#x164;" horiz-adv-x="709" d="M284 137 C284 83 276 75 213 76 L151 76 L151 0 L557 0 L557 76 L495 76 C432 75 423 83 424 137 L424 593 C553 595 600 543 604 391 L683 391 L683 667 L25 667 L25 391 L104 391 C108 543 155 596 284 593 L284 137 Z M200 858 L296 721 L412 721 L508 858 L462 858 L354 803 L247 858 L200 858 Z " />
<glyph glyph-name="tcaron" unicode="&#x165;" horiz-adv-x="422" d="M100 400 L100 147 C100 87 106 59 124 32 C145 -1 181 -17 230 -17 C289 -17 332 5 353 46 C371 80 376 114 376 186 C376 190 376 206 375 221 L308 221 C306 137 306 133 301 111 C296 86 282 75 258 75 C229 75 220 89 220 133 L220 400 L360 400 L360 469 L225 469 L225 653 L159 653 C146 525 116 486 16 465 L16 400 L100 400 Z M336 531 C378 536 401 545 423 567 C447 591 461 627 461 666 C461 720 429 755 379 755 C341 755 314 730 314 695 C314 665 336 643 365 643 C377 643 386 646 403 655 C398 601 381 579 336 571 L336 531 Z " />
<glyph glyph-name="Umacron" unicode="&#x16a;" horiz-adv-x="798" d="M21 591 L56 591 C119 592 128 584 127 530 L127 211 C127 127 149 74 199 37 C250 -1 317 -20 398 -20 C486 -20 563 4 609 46 C649 82 671 140 671 211 L671 530 C671 584 679 592 741 591 L774 591 L774 667 L449 667 L449 591 L492 591 C555 592 564 584 563 530 L563 211 C563 160 553 134 528 114 C499 91 456 78 410 78 C367 78 327 90 300 111 C275 130 267 155 267 211 L267 530 C266 584 275 592 339 591 L385 591 L385 667 L21 667 L21 591 Z M254 750 L544 750 L544 829 L254 829 L254 750 Z " />
<glyph glyph-name="umacron" unicode="&#x16b;" horiz-adv-x="678" d="M26 402 L49 402 C99 400 106 392 106 343 L106 158 C106 86 116 50 143 26 C170 1 217 -15 263 -15 C332 -15 378 9 445 82 L445 0 L654 0 L654 67 L626 67 C572 69 565 76 565 126 L565 469 L342 469 L342 402 L388 402 C438 400 445 392 445 343 L445 221 C445 167 437 139 413 111 C386 80 349 62 309 62 C281 62 256 72 242 88 C229 102 226 116 226 158 L226 469 L26 469 L26 402 Z M167 588 L465 588 L465 670 L167 670 L167 588 Z " />
<glyph glyph-name="Uring" unicode="&#x16e;" horiz-adv-x="798" d="M21 591 L56 591 C119 592 128 584 127 530 L127 211 C127 127 149 74 199 37 C250 -1 317 -20 398 -20 C486 -20 563 4 609 46 C649 82 671 140 671 211 L671 530 C671 584 679 592 741 591 L774 591 L774 667 L449 667 L449 591 L492 591 C555 592 564 584 563 530 L563 211 C563 160 553 134 528 114 C499 91 456 78 410 78 C367 78 327 90 300 111 C275 130 267 155 267 211 L267 530 C266 584 275 592 339 591 L385 591 L385 667 L21 667 L21 591 Z M399 932 C340 932 291 885 291 828 C291 766 340 716 400 716 C457 716 507 767 507 826 C507 885 459 932 399 932 L399 932 Z M399 873 C426 873 448 851 448 824 C448 798 426 776 400 776 C372 776 350 798 350 825 C350 851 373 873 399 873 L399 873 Z " />
<glyph glyph-name="uring" unicode="&#x16f;" horiz-adv-x="678" d="M26 402 L49 402 C99 400 106 392 106 343 L106 158 C106 86 116 50 143 26 C170 1 217 -15 263 -15 C332 -15 378 9 445 82 L445 0 L654 0 L654 67 L626 67 C572 69 565 76 565 126 L565 469 L342 469 L342 402 L388 402 C438 400 445 392 445 343 L445 221 C445 167 437 139 413 111 C386 80 349 62 309 62 C281 62 256 72 242 88 C229 102 226 116 226 158 L226 469 L26 469 L26 402 Z M311 778 C241 778 182 721 182 652 C182 577 238 520 312 520 C382 520 440 578 440 649 C440 720 382 778 311 778 L311 778 Z M311 714 C347 714 376 685 376 649 C376 613 347 584 311 584 C274 584 246 612 246 650 C246 685 275 714 311 714 L311 714 Z " />
<glyph glyph-name="Uhungarumlaut" unicode="&#x170;" horiz-adv-x="798" d="M21 591 L56 591 C119 592 128 584 127 530 L127 211 C127 127 149 74 199 37 C250 -1 317 -20 398 -20 C486 -20 563 4 609 46 C649 82 671 140 671 211 L671 530 C671 584 679 592 741 591 L774 591 L774 667 L449 667 L449 591 L492 591 C555 592 564 584 563 530 L563 211 C563 160 553 134 528 114 C499 91 456 78 410 78 C367 78 327 90 300 111 C275 130 267 155 267 211 L267 530 C266 584 275 592 339 591 L385 591 L385 667 L21 667 L21 591 Z M333 721 L428 786 C445 798 455 813 455 828 C455 850 435 869 413 869 C395 869 381 858 364 831 L295 721 L333 721 Z M474 721 L595 783 C619 795 630 809 630 826 C630 848 610 868 588 868 C571 868 557 859 538 838 L436 721 L474 721 Z " />
<glyph glyph-name="uhungarumlaut" unicode="&#x171;" horiz-adv-x="678" d="M26 402 L49 402 C99 400 106 392 106 343 L106 158 C106 86 116 50 143 26 C170 1 217 -15 263 -15 C332 -15 378 9 445 82 L445 0 L654 0 L654 67 L626 67 C572 69 565 76 565 126 L565 469 L342 469 L342 402 L388 402 C438 400 445 392 445 343 L445 221 C445 167 437 139 413 111 C386 80 349 62 309 62 C281 62 256 72 242 88 C229 102 226 116 226 158 L226 469 L26 469 L26 402 Z M218 540 L262 540 L370 637 C390 654 400 671 400 687 C400 711 380 731 355 731 C329 731 314 718 289 671 L218 540 Z M358 540 L401 540 L542 631 C568 648 581 665 581 682 C581 708 561 729 535 729 C510 729 496 719 466 680 L358 540 Z " />
<glyph glyph-name="Uogonek" unicode="&#x172;" horiz-adv-x="798" d="M774 591 L774 667 L449 667 L449 591 L492 591 C555 592 564 584 563 530 L563 211 C563 160 553 134 528 114 C499 91 456 78 410 78 C367 78 327 90 300 111 C275 130 267 155 267 211 L267 530 C266 584 275 592 339 591 L385 591 L385 667 L21 667 L21 591 L56 591 C119 592 128 584 127 530 L127 211 C127 127 149 74 199 37 C250 -1 317 -20 397 -20 C417 -20 433 -19 451 -16 C387 -61 354 -107 354 -152 C354 -198 388 -227 442 -227 C496 -227 532 -201 564 -140 L546 -130 C521 -159 512 -164 488 -164 C458 -164 441 -146 441 -114 C441 -65 469 -29 528 -1 C633 45 666 94 671 211 L671 530 C671 584 679 592 741 591 L774 591 Z " />
<glyph glyph-name="uogonek" unicode="&#x173;" horiz-adv-x="678" d="M654 0 L654 67 L626 67 C572 69 565 76 565 126 L565 469 L342 469 L342 402 L388 402 C438 400 445 392 445 343 L445 221 C445 167 437 139 413 111 C386 80 349 62 309 62 C281 62 256 72 242 88 C229 102 226 116 226 158 L226 469 L26 469 L26 402 L49 402 C99 400 106 392 106 343 L106 158 C106 86 116 50 143 26 C170 1 217 -15 263 -15 C332 -15 378 9 445 82 L445 0 L542 0 C475 -44 439 -94 439 -140 C439 -186 473 -215 527 -215 C580 -215 616 -189 648 -128 L630 -118 C605 -147 597 -152 573 -152 C543 -152 526 -134 526 -102 C526 -66 543 -35 582 0 L654 0 Z " />
<glyph glyph-name="Ydieresis" unicode="&#x178;" horiz-adv-x="766" d="M586 76 L524 76 C461 75 453 83 453 137 L453 279 L664 547 C694 583 706 590 746 591 L770 591 L770 667 L445 667 L445 591 L505 591 C531 591 543 585 543 572 C543 565 539 555 529 543 L405 381 L292 538 C281 552 277 561 277 570 C277 585 289 591 322 591 L371 591 L371 667 L0 667 L0 591 L35 591 C77 589 97 576 136 523 L313 279 L313 137 C314 83 305 76 242 76 L179 76 L179 0 L586 0 L586 76 Z M285 858 C249 858 217 826 217 791 C217 752 247 722 286 722 C322 722 353 753 353 789 C353 826 322 858 285 858 L285 858 Z M481 858 C445 858 413 826 413 791 C413 752 443 722 482 722 C518 722 549 753 549 789 C549 826 518 858 481 858 L481 858 Z " />
<glyph glyph-name="Zacute" unicode="&#x179;" horiz-adv-x="688" d="M42 0 L633 0 L633 302 L553 302 C536 105 506 75 330 76 L218 76 L633 581 L633 667 L63 667 L63 387 L143 387 C147 554 187 595 341 591 L460 591 L42 80 L42 0 Z M332 721 L469 772 C497 782 513 801 513 822 C513 847 492 868 467 868 C450 868 437 861 415 842 L278 721 L332 721 Z " />
<glyph glyph-name="zacute" unicode="&#x17a;" horiz-adv-x="527" d="M21 0 L483 0 L483 224 L410 224 C401 85 384 67 261 67 L170 67 L483 394 L483 469 L42 469 L42 262 L115 262 C119 377 139 402 229 402 L338 402 L21 73 L21 0 Z M188 540 L243 540 L401 619 C437 637 451 653 451 677 C451 707 428 730 398 730 C374 730 356 718 323 683 L188 540 Z " />
<glyph glyph-name="Zdotaccent" unicode="&#x17b;" horiz-adv-x="688" d="M42 0 L633 0 L633 302 L553 302 C536 105 506 75 330 76 L218 76 L633 581 L633 667 L63 667 L63 387 L143 387 C147 554 187 595 341 591 L460 591 L42 80 L42 0 Z M345 862 C308 862 274 829 274 792 C274 753 306 721 345 721 C383 721 415 753 415 791 C415 829 382 862 345 862 L345 862 Z " />
<glyph glyph-name="zdotaccent" unicode="&#x17c;" horiz-adv-x="527" d="M21 0 L483 0 L483 224 L410 224 C401 85 384 67 261 67 L170 67 L483 394 L483 469 L42 469 L42 262 L115 262 C119 377 139 402 229 402 L338 402 L21 73 L21 0 Z M265 702 C226 702 191 668 191 631 C191 590 224 557 265 557 C305 557 336 589 336 629 C336 669 304 702 265 702 L265 702 Z " />
<glyph glyph-name="Zcaron" unicode="&#x17d;" horiz-adv-x="688" d="M42 0 L633 0 L633 302 L553 302 C536 105 506 75 330 76 L218 76 L633 581 L633 667 L63 667 L63 387 L143 387 C147 554 187 595 341 591 L460 591 L42 80 L42 0 Z M190 858 L286 721 L402 721 L499 858 L452 858 L344 803 L237 858 L190 858 Z " />
<glyph glyph-name="zcaron" unicode="&#x17e;" horiz-adv-x="527" d="M21 0 L483 0 L483 224 L410 224 C401 85 384 67 261 67 L170 67 L483 394 L483 469 L42 469 L42 262 L115 262 C119 377 139 402 229 402 L338 402 L21 73 L21 0 Z M108 719 L219 540 L308 540 L419 719 L370 719 L263 636 L156 719 L108 719 Z " />
<glyph glyph-name="florin" unicode="&#x192;" horiz-adv-x="638" d="M407 398 L514 398 L525 467 L418 467 L430 535 C442 608 464 633 515 633 C534 633 543 630 557 619 C521 609 502 586 502 554 C502 525 525 506 560 506 C608 506 644 545 644 596 C644 649 591 684 510 684 C389 684 317 617 296 483 L293 467 L199 467 L188 398 L281 398 L213 -15 C201 -88 179 -113 128 -113 C109 -113 99 -110 86 -99 C121 -89 140 -66 140 -35 C140 -6 118 13 82 13 C35 13 -1 -25 -1 -76 C-1 -129 53 -164 133 -164 C254 -164 325 -98 347 37 L407 398 Z " />
<glyph glyph-name="uni01D3" unicode="&#x1d3;" horiz-adv-x="798" d="M21 591 L56 591 C119 592 128 584 127 530 L127 211 C127 127 149 74 199 37 C250 -1 317 -20 398 -20 C486 -20 563 4 609 46 C649 82 671 140 671 211 L671 530 C671 584 679 592 741 591 L774 591 L774 667 L449 667 L449 591 L492 591 C555 592 564 584 563 530 L563 211 C563 160 553 134 528 114 C499 91 456 78 410 78 C367 78 327 90 300 111 C275 130 267 155 267 211 L267 530 C266 584 275 592 339 591 L385 591 L385 667 L21 667 L21 591 Z M245 858 L341 721 L457 721 L553 858 L506 858 L399 803 L291 858 L245 858 Z " />
<glyph glyph-name="Scommaaccent" unicode="&#x218;" horiz-adv-x="673" d="M45 0 L117 0 L140 62 C232 1 291 -19 372 -19 C525 -19 634 69 634 193 C634 253 606 309 562 341 C525 366 468 390 411 402 L270 433 C192 450 161 475 161 520 C161 573 212 606 295 606 C347 606 403 588 438 560 C478 527 502 482 518 414 L597 414 L597 667 L535 667 L498 618 C414 673 372 687 293 687 C143 687 42 604 42 481 C42 375 108 317 272 281 L385 256 C474 236 510 208 510 157 C510 102 459 71 369 71 C300 71 251 86 206 123 C163 158 144 194 126 275 L45 275 L45 0 Z M273 -280 C316 -276 338 -266 360 -245 C384 -220 398 -185 398 -146 C398 -92 366 -57 316 -57 C278 -57 251 -82 251 -116 C251 -146 273 -168 302 -168 C314 -168 323 -165 340 -157 C335 -210 317 -233 273 -240 L273 -280 Z " />
<glyph glyph-name="scommaaccent" unicode="&#x219;" horiz-adv-x="516" d="M31 -6 L100 -6 L119 36 C191 -7 221 -17 285 -17 C409 -17 485 41 485 135 C485 215 432 261 309 289 L215 310 C169 320 151 335 151 361 C151 394 182 415 232 415 C266 415 309 402 334 384 C360 365 373 345 388 302 L459 302 L459 475 L399 475 L377 439 C324 473 284 486 228 486 C113 486 36 427 36 339 C36 266 88 219 196 194 L273 177 C343 161 367 146 367 115 C367 78 332 55 276 55 C244 55 214 62 190 74 C146 96 126 125 107 186 L31 186 L31 -6 Z M205 -280 C248 -276 270 -266 292 -245 C316 -220 330 -185 330 -146 C330 -92 298 -57 248 -57 C210 -57 183 -82 183 -116 C183 -146 205 -168 234 -168 C246 -168 255 -165 272 -157 C267 -210 249 -233 205 -240 L205 -280 Z " />
<glyph glyph-name="uni021A" unicode="&#x21a;" horiz-adv-x="709" d="M284 137 C284 83 276 75 213 76 L151 76 L151 0 L557 0 L557 76 L495 76 C432 75 423 83 424 137 L424 593 C553 595 600 543 604 391 L683 391 L683 667 L25 667 L25 391 L104 391 C108 543 155 596 284 593 L284 137 Z M302 -280 C345 -276 367 -266 389 -245 C413 -220 427 -185 427 -146 C427 -92 395 -57 345 -57 C307 -57 280 -82 280 -116 C280 -146 302 -168 331 -168 C343 -168 352 -165 369 -157 C364 -210 346 -233 302 -240 L302 -280 Z " />
<glyph glyph-name="uni021B" unicode="&#x21b;" horiz-adv-x="422" d="M100 400 L100 147 C100 87 106 59 124 32 C145 -1 181 -17 230 -17 C289 -17 332 5 353 46 C371 80 376 114 376 186 C376 190 376 206 375 221 L308 221 C306 137 306 133 301 111 C296 86 282 75 258 75 C229 75 220 89 220 133 L220 400 L360 400 L360 469 L225 469 L225 653 L159 653 C146 525 116 486 16 465 L16 400 L100 400 Z M126 -280 C169 -276 191 -266 213 -245 C237 -220 251 -185 251 -146 C251 -92 219 -57 169 -57 C131 -57 104 -82 104 -116 C104 -146 126 -168 155 -168 C167 -168 176 -165 193 -157 C188 -210 170 -233 126 -240 L126 -280 Z " />
<glyph glyph-name="afii57929" unicode="&#x2bc;" horiz-adv-x="250" d="M34 413 C137 428 202 493 202 581 C202 644 162 687 104 687 C58 687 26 659 26 617 C26 581 52 555 88 555 C103 555 113 558 133 570 C131 510 100 474 34 457 L34 413 Z " />
<glyph glyph-name="circumflex" unicode="&#x2c6;" horiz-adv-x="509" d="M99 540 L148 540 L255 623 L362 540 L410 540 L300 720 L210 720 L99 540 Z " />
<glyph glyph-name="caron" unicode="&#x2c7;" horiz-adv-x="509" d="M99 719 L210 540 L300 540 L410 719 L362 719 L255 636 L148 719 L99 719 Z " />
<glyph glyph-name="uni02C9" unicode="&#x2c9;" horiz-adv-x="510" d="M106 588 L404 588 L404 670 L106 670 L106 588 Z " />
<glyph glyph-name="breve" unicode="&#x2d8;" horiz-adv-x="509" d="M96 704 C107 649 118 624 140 600 C168 571 209 555 254 555 C299 555 341 572 369 600 C391 623 401 649 412 704 L367 704 C351 659 324 644 254 644 C185 644 159 658 141 704 L96 704 Z " />
<glyph glyph-name="dotaccent" unicode="&#x2d9;" horiz-adv-x="518" d="M261 702 C222 702 187 668 187 631 C187 590 220 557 261 557 C301 557 332 589 332 629 C332 669 300 702 261 702 L261 702 Z " />
<glyph glyph-name="ring" unicode="&#x2da;" horiz-adv-x="512" d="M228 778 C158 778 99 721 99 652 C99 577 155 520 229 520 C299 520 357 578 357 649 C357 720 299 778 228 778 L228 778 Z M228 714 C264 714 293 685 293 649 C293 613 264 584 228 584 C191 584 163 612 163 650 C163 685 192 714 228 714 L228 714 Z " />
<glyph glyph-name="ogonek" unicode="&#x2db;" horiz-adv-x="525" d="M304 14 C204 -43 158 -95 158 -152 C158 -198 191 -227 245 -227 C298 -227 335 -201 366 -140 L348 -130 C323 -159 315 -164 291 -164 C261 -164 244 -146 244 -114 C244 -69 265 -39 333 14 L304 14 Z " />
<glyph glyph-name="tilde" unicode="&#x2dc;" horiz-adv-x="509" d="M136 555 C145 587 158 601 181 601 C189 601 200 599 213 596 L269 580 C280 577 291 576 302 576 C331 576 356 587 373 608 C392 630 400 651 413 704 L373 704 C361 670 351 660 328 660 C322 660 313 661 305 663 L247 679 C233 682 220 684 208 684 C148 684 118 649 96 555 L136 555 Z " />
<glyph glyph-name="hungarumlaut" unicode="&#x2dd;" horiz-adv-x="515" d="M137 540 L181 540 L289 637 C309 654 319 671 319 687 C319 711 299 731 274 731 C248 731 233 718 208 671 L137 540 Z M276 540 L320 540 L461 631 C485 647 499 665 499 682 C499 708 479 729 453 729 C429 729 416 720 385 680 L276 540 Z " />
<glyph glyph-name="uni2011" unicode="&#x2011;" horiz-adv-x="283" d="M0 184 L283 184 L283 290 L0 290 L0 184 Z " />
<glyph glyph-name="figuredash" unicode="&#x2012;" horiz-adv-x="584" d="M31 196 L552 196 L552 279 L31 279 L31 196 Z " />
<glyph glyph-name="endash" unicode="&#x2013;" horiz-adv-x="584" d="M31 196 L552 196 L552 279 L31 279 L31 196 Z " />
<glyph glyph-name="emdash" unicode="&#x2014;" horiz-adv-x="745" d="M0 196 L745 196 L745 279 L0 279 L0 196 Z " />
<glyph glyph-name="afii00208" unicode="&#x2015;" horiz-adv-x="745" d="M0 196 L745 196 L745 279 L0 279 L0 196 Z " />
<glyph glyph-name="quoteleft" unicode="&#x2018;" horiz-adv-x="250" d="M220 687 C117 671 52 606 52 519 C52 456 92 413 151 413 C196 413 228 442 228 483 C228 519 202 545 166 545 C150 545 140 542 121 530 C123 589 154 625 220 642 L220 687 Z " />
<glyph glyph-name="quoteright" unicode="&#x2019;" horiz-adv-x="250" d="M34 413 C137 428 202 493 202 581 C202 644 162 687 104 687 C58 687 26 659 26 617 C26 581 52 555 88 555 C103 555 113 558 133 570 C131 510 100 474 34 457 L34 413 Z " />
<glyph glyph-name="quotesinglbase" unicode="&#x201a;" horiz-adv-x="250" d="M34 -143 C137 -128 202 -63 202 24 C202 87 162 130 104 130 C58 130 26 102 26 61 C26 25 52 -1 88 -1 C103 -1 113 2 133 14 C131 -46 100 -82 34 -99 L34 -143 Z " />
<glyph glyph-name="quotedblleft" unicode="&#x201c;" horiz-adv-x="501" d="M467 687 C364 671 299 606 299 519 C299 456 339 413 398 413 C444 413 476 442 476 483 C476 519 450 545 414 545 C398 545 388 542 368 530 C370 589 401 625 467 642 L467 687 Z M220 687 C117 671 52 606 52 519 C52 456 92 413 151 413 C196 413 228 442 228 483 C228 519 202 545 166 545 C150 545 140 542 121 530 C123 589 154 625 220 642 L220 687 Z " />
<glyph glyph-name="quotedblright" unicode="&#x201d;" horiz-adv-x="500" d="M281 413 C384 428 449 493 449 581 C449 644 409 687 351 687 C305 687 273 658 273 617 C273 581 299 555 335 555 C350 555 360 558 380 570 C378 510 347 474 281 457 L281 413 Z M34 413 C137 428 202 493 202 581 C202 644 162 687 104 687 C58 687 26 659 26 617 C26 581 52 555 88 555 C103 555 113 558 133 570 C131 510 100 474 34 457 L34 413 Z " />
<glyph glyph-name="quotedblbase" unicode="&#x201e;" horiz-adv-x="501" d="M281 -143 C384 -127 449 -63 449 24 C449 87 409 130 351 130 C305 130 273 102 273 61 C273 25 299 -1 335 -1 C350 -1 361 2 380 14 C378 -46 347 -82 281 -99 L281 -143 Z M34 -143 C137 -127 202 -63 202 24 C202 87 162 130 104 130 C58 130 26 102 26 61 C26 25 52 -1 88 -1 C103 -1 114 2 133 14 C132 -46 99 -82 34 -99 L34 -143 Z " />
<glyph glyph-name="dagger" unicode="&#x2020;" horiz-adv-x="620" d="M339 404 C342 476 346 498 367 582 C371 600 374 618 374 629 C374 665 350 687 310 687 C270 687 246 665 246 629 C246 618 249 600 253 582 C275 497 278 476 281 404 C242 409 236 410 200 421 C158 433 138 437 115 437 C75 437 52 418 52 385 C52 352 75 333 115 333 C138 333 159 337 200 349 C236 360 242 361 281 366 C279 220 274 155 256 -19 C245 -113 245 -113 245 -137 C245 -186 267 -214 307 -214 C351 -214 373 -188 373 -137 C373 -121 372 -103 370 -87 C344 129 338 221 339 366 C378 361 384 360 420 349 C462 337 483 333 506 333 C546 333 569 352 569 385 C569 418 546 437 506 437 C483 437 462 433 420 421 C385 410 378 409 339 404 L339 404 Z " />
<glyph glyph-name="daggerdbl" unicode="&#x2021;" horiz-adv-x="620" d="M244 236 C272 171 280 134 281 74 C242 79 235 81 200 91 C158 103 139 107 115 107 C75 107 52 88 52 55 C52 23 75 4 115 4 C139 4 158 8 200 20 C235 30 242 31 281 37 C278 -11 276 -28 266 -63 C246 -134 246 -135 246 -155 C246 -192 270 -214 310 -214 C350 -214 374 -192 374 -155 C374 -143 371 -125 367 -109 C344 -27 343 -23 339 37 C378 31 385 30 420 20 C463 8 482 4 506 4 C546 4 569 23 569 55 C569 88 546 107 506 107 C482 107 463 103 420 91 C385 81 378 79 339 74 C340 131 349 171 376 236 C349 302 343 329 339 398 C378 393 385 391 420 381 C463 369 483 365 506 365 C546 365 569 384 569 417 C569 450 546 469 506 469 C483 469 462 465 420 453 C385 442 378 441 339 436 C342 483 345 500 354 536 C374 607 374 608 374 628 C374 665 350 687 310 687 C270 687 246 665 246 628 C246 615 249 598 253 582 C277 500 277 496 281 436 C242 441 236 442 200 453 C158 465 138 469 115 469 C75 469 52 450 52 417 C52 384 75 365 115 365 C138 365 158 369 200 381 C236 391 242 393 281 398 C281 340 272 301 244 236 L244 236 Z " />
<glyph glyph-name="bullet" unicode="&#x2022;" horiz-adv-x="700" d="M352 480 C270 480 206 418 206 340 C206 262 271 200 351 200 C430 200 495 263 495 340 C495 417 430 480 352 480 L352 480 Z " />
<glyph glyph-name="ellipsis" unicode="&#x2026;" horiz-adv-x="970" d="M161 130 C119 130 83 97 83 58 C83 16 117 -17 161 -17 C204 -17 238 16 238 57 C238 97 204 130 161 130 L161 130 Z M484 130 C442 130 406 97 406 58 C406 16 440 -17 484 -17 C527 -17 561 16 561 57 C561 97 527 130 484 130 L484 130 Z M808 130 C766 130 730 97 730 58 C730 16 764 -17 808 -17 C851 -17 885 16 885 57 C885 97 851 130 808 130 L808 130 Z " />
<glyph glyph-name="perthousand" unicode="&#x2030;" horiz-adv-x="1454" d="M231 622 C114 622 31 543 31 433 C31 317 111 239 231 239 C348 239 430 318 430 431 C430 543 348 622 231 622 L231 622 Z M231 559 C292 559 319 519 319 429 C319 341 292 302 232 302 C171 302 143 342 143 430 C143 517 171 559 231 559 L231 559 Z M739 622 L655 622 L263 -17 L348 -17 L739 622 Z M772 366 C655 366 572 287 572 177 C572 61 653 -17 772 -17 C890 -17 972 62 972 174 C972 287 890 366 772 366 L772 366 Z M772 303 C833 303 860 263 860 173 C860 85 833 46 772 46 C711 46 683 86 683 174 C683 261 712 303 772 303 L772 303 Z M1219 366 C1103 366 1020 287 1020 177 C1020 61 1100 -17 1220 -17 C1337 -17 1419 62 1419 174 C1419 287 1337 366 1219 366 L1219 366 Z M1219 303 C1280 303 1307 262 1307 173 C1307 85 1280 46 1220 46 C1158 46 1131 86 1131 174 C1131 262 1160 303 1219 303 L1219 303 Z " />
<glyph glyph-name="guilsinglleft" unicode="&#x2039;" horiz-adv-x="302" d="M160 72 L235 72 L205 139 C175 204 170 219 170 237 C170 256 175 271 205 336 L235 403 L160 403 L119 346 C84 298 63 258 63 238 C63 217 84 177 119 129 L160 72 Z " />
<glyph glyph-name="guilsinglright" unicode="&#x203a;" horiz-adv-x="302" d="M138 72 L180 129 C214 176 235 218 235 238 C235 257 214 299 180 346 L138 403 L63 403 L93 336 C123 270 128 256 128 237 C128 219 123 204 93 139 L63 72 L138 72 Z " />
<glyph glyph-name="fraction" unicode="&#x2044;" horiz-adv-x="172" d="M-172 -17 L-92 -17 L350 622 L267 622 L-172 -17 Z " />
<glyph glyph-name="Euro" unicode="&#x20ac;" horiz-adv-x="789" d="M108 355 C107 345 107 341 107 335 C107 328 107 322 108 311 L57 311 L31 252 L116 252 C153 86 288 -19 464 -19 C561 -19 635 11 688 72 C728 119 744 161 756 258 L667 258 C652 186 638 154 607 123 C574 89 529 72 475 72 C365 72 291 137 270 252 L496 252 L522 311 L264 311 C263 317 263 321 263 328 C263 340 263 347 264 355 L542 355 L569 414 L271 414 C293 535 367 605 474 605 C532 605 583 584 619 544 C650 511 663 478 676 404 L756 404 L756 677 L681 677 L661 618 C578 672 535 686 456 686 C290 686 151 575 115 414 L57 414 L31 355 L108 355 Z " />
<glyph glyph-name="uni2117" unicode="&#x2117;" horiz-adv-x="329" d="M160 474 C122 474 89 450 89 423 C89 394 120 370 159 370 C199 370 231 393 231 422 C231 451 199 474 160 474 L160 474 Z M21 0 L311 0 L311 47 L282 47 C231 49 225 54 225 89 L225 330 L21 330 L21 283 L56 283 C105 281 111 277 111 241 L111 89 C111 54 105 49 56 47 L21 47 L21 0 Z " />
<glyph glyph-name="trademark" unicode="&#x2122;" horiz-adv-x="1049" d="M171 367 C171 338 168 336 132 336 L91 336 L91 287 L341 287 L341 336 L301 336 C265 336 262 338 262 367 L262 619 C335 619 360 591 362 506 L417 506 L417 667 L15 667 L15 506 L70 506 C72 591 97 620 171 619 L171 367 Z M812 287 L1035 287 L1035 336 L1006 336 C970 336 967 338 967 367 L967 587 C967 616 970 618 1006 618 L1035 618 L1035 667 L842 667 L740 431 L649 667 L448 667 L448 618 L475 618 C511 618 514 615 514 587 L514 367 C514 339 511 336 475 336 L448 336 L448 287 L651 287 L651 336 L622 336 C587 336 584 339 584 367 L584 596 L706 287 L752 287 L883 592 L883 367 C883 339 880 336 844 336 L812 336 L812 287 Z " />
<glyph glyph-name="uni2126" unicode="&#x2126;" horiz-adv-x="768" d="M326 0 L308 155 C230 199 180 288 180 382 C180 434 195 493 221 540 C257 605 317 642 385 642 C453 642 513 605 549 540 C575 493 590 434 590 382 C590 288 540 199 462 155 L444 0 L736 0 L736 153 L712 153 C704 108 684 90 643 90 L497 90 L500 128 C535 141 557 151 580 166 C657 215 702 296 702 382 C702 449 673 522 625 578 C564 648 480 686 385 686 C290 686 206 648 145 578 C97 522 68 449 68 382 C68 296 113 215 190 166 C213 151 235 141 270 128 L273 90 L127 90 C86 90 66 108 58 153 L34 153 L34 0 L326 0 Z " />
<glyph glyph-name="partialdiff" unicode="&#x2202;" horiz-adv-x="494" d="M107 674 C152 697 184 706 219 706 C321 706 379 611 379 447 C379 418 377 394 372 346 C308 396 272 412 221 412 C172 412 131 394 95 355 C51 309 26 246 26 184 C26 76 109 -10 213 -10 C282 -10 341 22 383 84 C429 152 462 286 462 403 C462 519 428 611 360 681 C312 730 259 753 195 753 C155 753 122 746 66 725 L107 674 Z M366 312 C350 201 340 158 314 107 C288 54 245 21 201 21 C146 21 113 73 113 159 C113 273 180 367 261 367 C299 367 324 354 366 312 L366 312 Z " />
<glyph glyph-name="Delta" unicode="&#x2206;" horiz-adv-x="612" d="M6 0 L608 0 L327 688 L6 0 Z M77 51 L290 509 L479 51 L77 51 Z " />
<glyph glyph-name="product" unicode="&#x220f;" horiz-adv-x="823" d="M25 -124 L315 -124 L315 -98 L312 -98 C242 -94 221 -67 224 18 L224 594 C224 656 228 677 242 690 C260 707 272 708 413 708 C556 708 568 707 586 690 C600 677 604 656 604 594 L604 18 C607 -67 586 -94 516 -98 L513 -98 L513 -124 L803 -124 L803 -98 L800 -98 C730 -94 709 -67 712 18 L712 609 C709 694 730 721 800 725 L803 725 L803 751 L25 751 L25 725 L28 725 C98 721 119 694 116 609 L116 18 C119 -67 98 -94 28 -98 L25 -98 L25 -124 Z " />
<glyph glyph-name="summation" unicode="&#x2211;" horiz-adv-x="713" d="M176 711 L444 711 C560 710 590 688 606 587 L632 587 L622 752 L23 752 L256 285 L14 -123 L641 -123 L695 87 L669 87 C639 7 605 -12 491 -11 L163 -11 L364 341 L176 711 Z " />
<glyph glyph-name="minus" unicode="&#x2212;" horiz-adv-x="595" d="M70 358 L70 267 L525 267 L525 358 L70 358 Z " />
<glyph glyph-name="uni2215" unicode="&#x2215;" horiz-adv-x="172" d="M-172 -17 L-92 -17 L350 622 L267 622 L-172 -17 Z " />
<glyph glyph-name="uni2219" unicode="&#x2219;" horiz-adv-x="323" d="M161 308 C119 308 83 275 83 236 C83 194 117 161 161 161 C204 161 238 194 238 235 C238 275 204 308 161 308 L161 308 Z " />
<glyph glyph-name="radical" unicode="&#x221a;" horiz-adv-x="549" d="M363 -35 L515 908 L480 913 L353 123 L156 520 L10 449 L26 414 L121 461 L363 -35 Z " />
<glyph glyph-name="infinity" unicode="&#x221e;" horiz-adv-x="713" d="M357 227 C415 156 485 115 548 115 C631 115 688 176 688 266 C688 354 629 414 543 414 C476 414 412 376 357 303 C300 375 234 414 171 414 C86 414 26 351 26 263 C26 176 84 115 167 115 C224 115 281 142 327 192 L357 227 Z M391 264 C434 325 493 362 546 362 C600 362 638 321 638 264 C638 205 603 167 549 167 C495 167 461 188 391 264 L391 264 Z M324 266 C275 203 216 167 163 167 C111 167 76 207 76 266 C76 323 113 362 167 362 C218 362 258 337 324 266 L324 266 Z " />
<glyph glyph-name="integral" unicode="&#x222b;" horiz-adv-x="274" d="M180 576 C180 653 179 691 176 746 C174 774 173 800 173 815 C173 855 184 878 202 878 C208 878 213 876 215 872 C232 845 239 839 256 839 C276 839 291 853 291 871 C291 898 267 916 231 916 C186 916 152 887 138 838 C123 784 113 682 113 577 L113 232 C113 160 114 124 117 63 C119 34 120 4 120 -12 C120 -47 108 -70 89 -70 C81 -70 74 -65 68 -52 C59 -35 51 -30 37 -30 C17 -30 2 -44 2 -63 C2 -89 26 -107 62 -107 C107 -107 141 -78 155 -29 C170 25 180 126 180 232 L180 576 Z " />
<glyph glyph-name="approxequal" unicode="&#x2248;" horiz-adv-x="549" d="M489 251 C444 199 423 187 384 187 C365 187 354 190 285 211 C212 234 188 239 160 239 C101 239 54 211 14 155 L57 121 C103 174 120 184 159 184 C180 184 180 184 271 157 C350 133 354 132 385 132 C449 132 496 160 527 217 L489 251 Z M489 408 C444 356 423 344 384 344 C365 344 354 347 285 368 C212 391 188 396 160 396 C101 396 54 369 14 312 L57 278 C103 331 120 341 159 341 C180 341 180 341 271 314 C350 290 354 289 385 289 C449 289 496 318 527 375 L489 408 Z " />
<glyph glyph-name="notequal" unicode="&#x2260;" horiz-adv-x="549" d="M187 142 L115 -1 L161 -25 L246 142 L540 142 L540 197 L273 197 L344 336 L540 336 L540 391 L371 391 L439 525 L392 549 L312 391 L15 391 L15 336 L285 336 L215 197 L15 197 L15 142 L187 142 Z " />
<glyph glyph-name="lessequal" unicode="&#x2264;" horiz-adv-x="549" d="M526 55 L29 55 L29 0 L526 0 L526 55 Z M526 639 L29 405 L29 350 L526 117 L526 179 L108 378 L526 577 L526 639 Z " />
<glyph glyph-name="greaterequal" unicode="&#x2265;" horiz-adv-x="549" d="M526 55 L29 55 L29 0 L526 0 L526 55 Z M29 639 L29 577 L447 378 L29 179 L29 117 L526 350 L526 405 L29 639 Z " />
<glyph glyph-name="lozenge" unicode="&#x25ca;" horiz-adv-x="494" d="M209 0 L269 -1 L466 374 L277 740 L214 740 L18 377 L209 0 Z M240 58 L81 376 L245 683 L402 373 L240 58 Z " />
<glyph glyph-name="fi" unicode="&#xfb01;" horiz-adv-x="683" d="M243 467 L243 494 C243 550 252 576 277 597 C298 614 329 623 369 623 C397 623 413 620 443 608 C427 591 422 582 422 565 C422 530 450 508 493 508 C538 508 564 532 564 572 C564 643 487 684 357 684 C277 684 220 670 178 640 C133 607 117 566 117 483 L117 467 L16 467 L16 398 L117 398 L117 126 C117 77 110 69 57 67 L16 67 L16 0 L324 0 L324 67 L303 67 C250 69 243 77 243 126 L243 398 L389 398 C444 395 451 388 451 339 L451 126 C451 77 444 70 389 67 L367 67 L367 0 L675 0 L675 67 L633 67 C578 69 571 77 571 126 L571 467 L243 467 Z " />
<glyph glyph-name="fl" unicode="&#xfb02;" horiz-adv-x="683" d="M26 0 L326 0 L326 67 L305 67 C253 69 246 77 246 126 L246 398 L386 398 L386 467 L246 467 L246 494 C246 550 255 577 279 597 C301 616 330 624 370 624 C400 624 417 620 445 608 C429 591 424 582 424 566 C424 545 431 534 453 518 L453 126 C453 77 446 70 390 67 L370 67 L370 0 L665 0 L665 67 L635 67 C580 69 573 77 573 126 L573 667 L501 667 C434 681 402 685 356 685 C280 685 225 671 182 641 C137 609 120 566 120 483 L120 467 L26 467 L26 398 L120 398 L120 126 C120 77 113 70 60 67 L26 67 L26 0 Z " />
</font>
</svg>
