<?xml version="1.0" standalone="no"?>
<!DOCTYPE svg PUBLIC "-//W3C//DTD SVG 1.1//EN" "http://www.w3.org/Graphics/SVG/1.1/DTD/svg11.dtd" >
<svg xmlns="http://www.w3.org/2000/svg">
<metadata>
Created by FontPrep 20130207 at Wed Nov 23 16:28:28 2016
 By Tina Muller
Copyright (c) 2016 by Enrique Hernandez Vasquez. All rights reserved.
</metadata>
<defs>
<font id="d090e50a4b5d7a0ef7b821e101bee1ef" horiz-adv-x='1024' >
  <font-face 
    font-family="Isidora-Black"
    font-weight="900"
    font-stretch="normal"
    units-per-em="2048"
    panose-1="0 0 10 0 0 0 0 0 0 0"
    ascent="1638"
    descent="-410"
    x-height="1024"
    cap-height="1331"
    bbox="-475 -717 2726 1995"
    underline-thickness="102"
    underline-position="-102"
    unicode-range="U+0020-FB02"
  />
<missing-glyph horiz-adv-x="1177" 
d="M784 -289h-391v-78h166l-166 -110v-78h391v78h-239l164 110h75v78zM707 -45v-111h-236v111h236zM784 33h-391v-266h391v266zM784 440h-235v-133h80v55h78v-110h-236v188h-78v-266h391v266zM784 727h-77v-156h-314v-79h391v235zM784 868h-391v-77h156v-89h-156v-75h236
v164h155v77zM549 1096v-84h-78v84h78zM629 1178h-236v-246h391v80h-155v166zM784 1481h-389v-78h154v-88h-156v-78h391v78h-155v88h155v78zM965 1638v-2355h-746v2355h746z" />
    <glyph glyph-name="fi" unicode="fi" horiz-adv-x="1474" 
d="M1386 1024v-1024h-401v737h-379v-737h-401v737h-178v287h180v31q0 203 134 306t325 103q121 0 225 -45l14 -28l-67 -250l-25 -15q-47 27 -92 27t-78 -27t-33 -73v-29h776zM1189 1083q-87 1 -149 61t-61 148q0 88 61 150q60 62 148 61q88 0 149 -61q61 -62 61 -150
t-60 -148q-62 -60 -149 -61z" />
    <glyph glyph-name="fl" unicode="fl" horiz-adv-x="1474" 
d="M909 332v774q-51 22 -132 22t-117 -26t-44 -78h197v-287h-201l-2 -737h-401v737h-182v287h182q6 198 159 308t414 110t395 -100t134 -293v-658q0 -66 47 -65q16 0 26 10l25 -14l43 -267l-14 -28q-88 -51 -222 -51t-221 92q-86 92 -86 264z" />
    <glyph glyph-name=".notdef" horiz-adv-x="1177" 
d="M784 -289h-391v-78h166l-166 -110v-78h391v78h-239l164 110h75v78zM707 -45v-111h-236v111h236zM784 33h-391v-266h391v266zM784 440h-235v-133h80v55h78v-110h-236v188h-78v-266h391v266zM784 727h-77v-156h-314v-79h391v235zM784 868h-391v-77h156v-89h-156v-75h236
v164h155v77zM549 1096v-84h-78v84h78zM629 1178h-236v-246h391v80h-155v166zM784 1481h-389v-78h154v-88h-156v-78h391v78h-155v88h155v78zM965 1638v-2355h-746v2355h746z" />
    <glyph glyph-name=".null" horiz-adv-x="0" 
 />
    <glyph glyph-name="nonmarkingreturn" horiz-adv-x="681" 
 />
    <glyph glyph-name="space" unicode=" " horiz-adv-x="421" 
 />
    <glyph glyph-name="exclam" unicode="!" horiz-adv-x="606" 
d="M303 442q96 0 165 -68t69 -165q0 -96 -69 -165t-165 -69t-165 69t-68 165q0 96 68 165q69 68 165 68zM111 1309l24 22h336l25 -22l-39 -764l-25 -23h-258l-24 23z" />
    <glyph glyph-name="quotedbl" unicode="&#x22;" horiz-adv-x="847" 
d="M516 776l-53 555h311l-53 -555h-205zM127 776l-53 555h311l-53 -555h-205z" />
    <glyph glyph-name="numbersign" unicode="#" horiz-adv-x="1421" 
d="M586 541h245l37 250h-247zM213 0l47 336h-199l29 205h199l35 250h-199l29 204h198l45 336h299l-47 -336h248l45 336h297l-47 -336h166l-29 -204h-166l-35 -250h166l-28 -205h-166l-47 -336h-295l47 336h-248l-47 -336h-297z" />
    <glyph glyph-name="dollar" unicode="$" horiz-adv-x="1009" 
d="M662 -20h-287v143q-195 33 -312 170v31l142 174h24q43 -45 120 -80t136.5 -35t91 18.5t31.5 41t-8 34.5t-35.5 23.5t-46 17.5t-80.5 26q-132 42 -220 100q-122 81 -122 243q0 125 76 204.5t203 110.5v150h287v-148q162 -33 258 -143v-33l-140 -164h-26
q-104 100 -213 100.5t-109 -61.5q0 -37 40 -59q10 -6 18 -10q18 -11 83.5 -32.5t100.5 -34.5t95 -45t91 -64q80 -84 80 -210t-74.5 -206t-203.5 -111v-151z" />
    <glyph glyph-name="percent" unicode="%" horiz-adv-x="1941" 
d="M1524 182q55 0 89 49t34 131t-34 132t-89 49q-55 0 -89 -49q-34 -50 -34 -132t34 -131t89 -49zM1524 -25q-156 0 -258 108q-102 107 -102 279t102 280t258 108t258 -108t102 -280t-102 -280t-258 -107zM418 784q55 0 89 50t34 131q0 82 -34 131t-89 49t-89 -49t-34 -131
q0 -81 34 -131t89 -50zM322 0l-17 27l1030 1304h297l17 -26l-1031 -1305h-296zM418 578q-156 0 -258 108t-103 279q1 171 103 279t258 108t258 -108t102 -280t-102 -278q-102 -108 -258 -108z" />
    <glyph glyph-name="ampersand" unicode="&#x26;" horiz-adv-x="1576" 
d="M709 207h10l-254 391q-73 -89 -55 -184t96 -151t203 -56zM1289 -86q-175 0 -306 68q-135 -47 -293 -48q-285 0 -461 146t-176 377q0 109 63 213q62 104 165 176q-55 92 -56 201q0 149 129 247t326 97q274 -2 418 -203v-29l-178 -139h-29q-63 104 -168 104q-55 0 -91 -30
t-36 -83q0 -52 39 -112l371 -571q61 74 61 158t-53 161v27l229 141h29q51 -59 86 -159t35 -191q0 -143 -93 -268q98 4 164 63l25 -10l100 -215l-10 -29q-115 -92 -290 -92z" />
    <glyph glyph-name="quotesingle" unicode="'" horiz-adv-x="458" 
d="M127 776l-53 555h311l-53 -555h-205z" />
    <glyph glyph-name="parenleft" unicode="(" horiz-adv-x="747" 
d="M440 573q0 -236 84 -467t226 -405h-392q-137 183 -217 411t-80 461t80 461t217 412h392q-142 -174 -226 -406t-84 -467z" />
    <glyph glyph-name="parenright" unicode=")" horiz-adv-x="747" 
d="M686 574q0 -234 -80 -462t-217 -411h-391q141 174 225 405t84 467q0 235 -84 467t-225 406h391q137 -182 217 -410t80 -462z" />
    <glyph glyph-name="asterisk" unicode="*" horiz-adv-x="874" 
d="M330 1372h215v-182l157 92l109 -186l-160 -92l160 -93l-109 -186l-157 92v-184h-215v184l-160 -92l-107 186l160 93l-160 92l107 186l160 -92v182z" />
    <glyph glyph-name="plus" unicode="+" horiz-adv-x="1183" 
d="M1124 741v-266h-379v-377h-307v377h-379v266h379v379h307v-379h379z" />
    <glyph glyph-name="comma" unicode="," horiz-adv-x="608" 
d="M59 214q0 83 71 152q72 68 174 68t170 -73t67 -211t-101 -311t-235 -285h-29l-127 118v29q139 152 154 287q-63 29 -104 86q-40 57 -40 140z" />
    <glyph glyph-name="hyphen" unicode="-" horiz-adv-x="1042" 
d="M100 768h842v-307h-842v307z" />
    <glyph glyph-name="period" unicode="." horiz-adv-x="585" 
d="M293 -25q-96 0 -165 69t-69 165t69 165q69 68 165 68t165 -68q68 -68 68 -165q0 -96 -68 -165t-165 -69z" />
    <glyph glyph-name="slash" unicode="/" horiz-adv-x="1292" 
d="M868 1442h373l8 -21l-823 -1530h-373l-8 21z" />
    <glyph glyph-name="zero" unicode="0" horiz-adv-x="1368" 
d="M684 1028q-98 0 -158 -99t-61 -264q0 -165 60 -263q61 -98 159 -99q98 0 159 98q60 97 60 263t-60 265q-61 99 -159 99zM1300 666q0 -310 -170 -500t-446 -190t-446 190t-170 500t170 499q170 191 446 191t446 -190t170 -500z" />
    <glyph glyph-name="one" unicode="1" horiz-adv-x="868" 
d="M702 1331v-1331h-401v1024h-289l-8 27l86 280h612z" />
    <glyph glyph-name="two" unicode="2" horiz-adv-x="1181" 
d="M1106 322v-322h-1024v283q86 80 255 230t230 210q113 113 113 197q0 57 -44 92t-112 35t-142 -37t-126 -103h-29l-174 189v28q97 109 239 170t296 62q205 0 340 -108t135 -306q0 -160 -98 -292q-99 -131 -332 -328h473z" />
    <glyph glyph-name="three" unicode="3" horiz-adv-x="1185" 
d="M563 -25q-159 1 -311 63t-229 169v29l188 194h29q47 -55 128 -101t164 -46q82 1 128 33t47 90q0 139 -218 139h-143v266h174q72 0 117 35t45 88q0 115 -162 115q-133 0 -244 -86h-28l-154 204v29q197 160 486 160q217 0 357 -98t140 -291q1 -158 -155 -273
q197 -100 196 -313q0 -188 -154 -297t-401 -109z" />
    <glyph glyph-name="four" unicode="4" horiz-adv-x="1265" 
d="M651 539v325l-243 -325h243zM1022 252v-252h-401v252h-590v262l639 817h352v-792h180l2 -287h-182z" />
    <glyph glyph-name="five" unicode="5" horiz-adv-x="1224" 
d="M651 905q225 0 367 -125q142 -126 143 -334q0 -208 -156 -340q-157 -131 -411 -131q-170 -1 -318 63t-225 169v29l189 194h28q58 -66 140 -106t162 -41q80 0 136 45q54 44 54 116t-54 117t-157 45t-170 -67h-29l-246 108l121 684h838v-317h-582l-22 -135q90 26 192 26z
" />
    <glyph glyph-name="six" unicode="6" horiz-adv-x="1210" 
d="M622 274q76 0 124 48t48 118t-50 118t-122 48t-122 -47q-49 -47 -49 -121t48 -119t123 -45zM664 905q236 0 380 -128t144 -337t-156 -337t-410 -128q-254 1 -410 139q-155 138 -155 365q3 227 147 457t427 518h28l230 -199v-28q-219 -207 -299 -328q41 6 74 6z" />
    <glyph glyph-name="seven" unicode="7" horiz-adv-x="1089" 
d="M1057 1331v-229l-484 -1102h-387l-16 27l440 987h-571v317h1018z" />
    <glyph glyph-name="eight" unicode="8" horiz-adv-x="1282" 
d="M642 264q81 0 131 48t50 120t-52 119t-130 47t-130 -47t-52 -119t51 -120t132 -48zM641 1083q-59 -1 -97 -35t-38 -86t39 -88t96 -36t96 36t39 88t-38 86t-97 35zM1223 389q0 -186 -161 -300t-420 -114t-421 115t-162 299q0 225 211 336q-123 98 -123 263q-1 165 137 266
q138 102 357 102t356 -102t137 -266q0 -165 -122 -263q211 -111 211 -336z" />
    <glyph glyph-name="nine" unicode="9" horiz-adv-x="1210" 
d="M416 891q0 -72 49 -119t123 -47t123 48t49 121t-48 118t-123 45t-124 -47t-49 -119zM587 1356q255 0 411 -138t154 -366q-1 -228 -145 -458t-427 -517h-29l-229 199v28q229 217 303 330q-49 -8 -105 -8q-207 0 -352 129t-145 336t154 336q155 129 410 129z" />
    <glyph glyph-name="colon" unicode=":" horiz-adv-x="626" 
d="M313 -45q-96 0 -165 69q-68 68 -68 164t68 165q69 69 165 69t165 -69t69 -165t-69 -164t-165 -69zM313 602q-96 0 -165 69t-68 165q0 96 68 164t165 69q96 0 165 -69q69 -68 69 -164t-69 -165t-165 -69z" />
    <glyph glyph-name="semicolon" unicode=";" horiz-adv-x="641" 
d="M78 214q0 83 70 152q72 68 174 68t170 -73t68 -211t-101 -311q-100 -173 -236 -285h-28l-127 118v29q139 152 153 287q-63 29 -103 86t-40 140zM318 569q-98 0 -168 71t-70 170t70 169t168 70t169 -70q70 -70 70 -169t-70 -170t-169 -71z" />
    <glyph glyph-name="less" unicode="&#x3c;" horiz-adv-x="1048" 
d="M449 659l477 -282l12 -19v-301l-16 -20l-867 506v225l867 526l16 -20v-301l-12 -19z" />
    <glyph glyph-name="equal" unicode="=" horiz-adv-x="1277" 
d="M106 510h1065v-266h-1065v266zM106 965h1065v-267h-1065v267z" />
    <glyph glyph-name="greater" unicode="&#x3e;" horiz-adv-x="1048" 
d="M600 659l-477 295l-12 19v301l16 20l866 -526v-225l-866 -506l-16 20v301l12 19z" />
    <glyph glyph-name="question" unicode="?" horiz-adv-x="1118" 
d="M551 442q96 0 165 -68q68 -68 68 -165q0 -96 -68 -165t-165 -69q-96 0 -165 69t-69 165q0 97 69 165t165 68zM530 1356q232 0 376 -93t145 -245q0 -82 -40 -147t-122 -139t-98 -91q-53 -63 -50 -113v-10h-383v12q0 56 23 104t47 74q25 26 75 68t86 78q36 37 36 86t-33 76
t-86 26q-94 0 -144 -106l-32 -6l-275 90l-4 33q117 303 479 303z" />
    <glyph glyph-name="at" unicode="@" horiz-adv-x="1873" 
d="M899 371q59 0 93 42q34 43 34 109t-34 108t-93 42t-94 -41t-35 -109t35 -110t94 -41zM924 -309q-367 0 -614 233q-247 232 -247 588t248 588t623 233q374 0 622 -217t248 -541q0 -215 -114 -331t-312 -115q-197 0 -262 129q-112 -115 -274 -115q-162 -1 -273 103
t-111 269t111 276t253 111t251 -93v72h258v-396q0 -111 36 -131q17 -10 44 -10q59 0 100 55t41 176q0 249 -176 397t-440 148t-443 -171t-179 -437t178 -437q180 -171 448 -171q180 0 348 106h25l98 -151v-27q-188 -141 -487 -141z" />
    <glyph glyph-name="A" unicode="A" horiz-adv-x="1558" 
d="M739 862l-149 -395h291zM1505 336l51 -281l-14 -28q-86 -51 -210 -51t-208 61q-68 53 -131 164h-506l-75 -201h-426l567 1331h373l397 -870q57 -127 113 -125q31 0 45 14z" />
    <glyph glyph-name="B" unicode="B" horiz-adv-x="1366" 
d="M758 307q68 0 108 32t41 85q0 53 -41 85t-108 32h-223v-234h223zM836 920q0 52 -36 78t-93 26h-172v-209h172q57 0 93 27t36 78zM1309 369q0 -165 -120 -267t-368 -102h-692v1331h672q236 0 341 -97t105 -257q1 -189 -196 -283q109 -45 183 -128t75 -197z" />
    <glyph glyph-name="C" unicode="C" horiz-adv-x="1398" 
d="M471 665.5q0 -139.5 94 -232.5t232 -93q170 0 288 129h29l246 -209v-29q-213 -256 -567 -256q-311 0 -523.5 198t-212.5 494t212 492.5t530 196.5q168 0 315.5 -68.5t245.5 -187.5v-29l-246 -209h-29q-119 129 -288 129q-137 0 -231.5 -93t-94.5 -232.5z" />
    <glyph glyph-name="D" unicode="D" horiz-adv-x="1515" 
d="M733 328q137 0 222 89t85 249t-85 248t-222 90h-198v-676h198zM750 1331q324 0 514 -181t190 -483q0 -303 -189 -485t-515 -182h-621v1331h621z" />
    <glyph glyph-name="E" unicode="E" horiz-adv-x="1232" 
d="M1149 1004h-614v-185h462v-307h-462v-184h614v-328h-1020v1331h1020v-327z" />
    <glyph glyph-name="F" unicode="F" horiz-adv-x="1165" 
d="M1128 1004h-593v-195h442v-307h-442v-502h-406v1331h999v-327z" />
    <glyph glyph-name="G" unicode="G" horiz-adv-x="1548" 
d="M1507 651q0 -287 -199.5 -481.5t-511.5 -194.5t-525.5 198t-213.5 493t212 492.5t524 197.5q354 0 567 -256v-29l-246 -209h-29q-119 129 -273 129t-247.5 -93t-93.5 -234.5t94 -232.5t242 -91q98 0 175 42t112 124h-295v287h674l28 -25q6 -49 6 -117z" />
    <glyph glyph-name="H" unicode="H" horiz-adv-x="1533" 
d="M999 1331h406v-1331h-406v500h-464v-500h-406v1331h406v-504h464v504z" />
    <glyph glyph-name="I" unicode="I" horiz-adv-x="663" 
d="M129 1331h406v-1331h-406v1331z" />
    <glyph glyph-name="J" unicode="J" horiz-adv-x="1116" 
d="M213 1331h791v-721q0 -334 -130 -484t-415 -151q-119 -1 -254 55t-205 152v31l217 223h31q76 -100 180 -100q170 0 170 192v476h-385v327z" />
    <glyph glyph-name="K" unicode="K" horiz-adv-x="1443" 
d="M535 0h-406v1331h406v-481l401 481h438l17 -26l-473 -566l231 -301q80 -102 147 -102q23 0 56 14l24 -14l68 -273l-10 -28q-74 -59 -201 -60q-240 0 -402 220l-215 299l-81 -97v-397z" />
    <glyph glyph-name="L" unicode="L" horiz-adv-x="1064" 
d="M1042 328v-328h-913v1331h406v-1003h507z" />
    <glyph glyph-name="M" unicode="M" horiz-adv-x="1892" 
d="M59 0l174 1331h308l356 -819l352 819h307l97 -811q0 -33 11 -86q12 -53 28 -76q16 -22 45 -22t43 14l24 -14l51 -281l-14 -28q-87 -51 -211 -51t-216 79q-91 80 -111 226l-43 317l-248 -598h-234l-256 610l-59 -610h-404z" />
    <glyph glyph-name="N" unicode="N" horiz-adv-x="1490" 
d="M956 1331h406v-1331h-303l-524 670v-670h-406v1331h303l524 -669v669z" />
    <glyph glyph-name="O" unicode="O" horiz-adv-x="1601" 
d="M801 340q139 0 234 92t95 234t-95 233q-95 92 -234 92t-235 -92t-95 -233q0 -141 95 -234q96 -92 235 -92zM801 -25q-317 0 -531 197q-213 197 -213 494q0 298 213 494q212 196 530 196t531 -197t213 -493t-213 -493q-213 -198 -530 -198z" />
    <glyph glyph-name="P" unicode="P" horiz-adv-x="1331" 
d="M745 733q59 0 100 35q40 36 40 100t-40 100t-100 36h-210v-271h210zM760 1331q258 0 398 -122q140 -121 140 -331t-139 -331t-399 -121h-225v-426h-406v1331h631z" />
    <glyph glyph-name="Q" unicode="Q" horiz-adv-x="1601" 
d="M471 666q0 -142 95 -234q94 -92 234 -92t235 92t95 234t-95 233q-95 92 -234 92t-235 -92t-95 -233zM1649 -205q-100 -96 -275 -96t-405 192q-100 84 -168 84q-317 0 -531 197q-213 197 -213 494q0 298 213 494q212 196 530 196t531 -197t213 -493q0 -172 -77 -316
t-214 -239q78 -63 147 -63t107 38l29 -10l123 -252z" />
    <glyph glyph-name="R" unicode="R" horiz-adv-x="1413" 
d="M535 733h208q61 0 101.5 34t40.5 98.5t-41 101.5t-101 37h-208v-271zM567 467h-32v-467h-406v1331h631q258 0 398 -118.5t140 -325.5q0 -127 -65.5 -220.5t-179.5 -144.5q27 -27 69.5 -95.5t73.5 -82.5q14 -8 31.5 -8t50.5 14l25 -14l67 -273l-10 -28q-74 -59 -208 -59.5
t-216 52.5t-171 219q-89 165 -147 203q-26 18 -51 17z" />
    <glyph glyph-name="S" unicode="S" horiz-adv-x="1214" 
d="M581.5 313q75.5 0 114.5 22.5t39 59.5q-1 50 -99 82q-18 6 -36.5 13t-78.5 25t-110.5 37t-116.5 56q-200 113 -200 324t152.5 317.5t382.5 106.5q326 0 495 -197v-41l-176 -205h-33q-129 125 -265 125t-136 -75q0 -31 27.5 -55.5t56.5 -37t88 -33t92 -31.5t91.5 -36
t90.5 -45q98 -62 143.5 -140.5t45.5 -189.5q0 -207 -153.5 -313.5t-393.5 -106.5q-359 1 -549 226v37l176 217h31q55 -57 150.5 -99.5t171 -42.5z" />
    <glyph glyph-name="T" unicode="T" horiz-adv-x="1257" 
d="M831 1004v-1004h-405v1004h-406v327h1217v-327h-406z" />
    <glyph glyph-name="U" unicode="U" horiz-adv-x="1470" 
d="M109 1331h405v-749q0 -117 60 -182q60 -64 162 -64t164 64q60 65 61 182v749h399v-725q0 -297 -167 -464t-457 -167t-458 167t-169 464v725z" />
    <glyph glyph-name="V" unicode="V" horiz-adv-x="1554" 
d="M1542 1331l17 -26l-582 -1305h-348l-381 860q-49 109 -77 125t-77 -4l-24 14l-68 273l10 28q74 60 209 60t220 -65t141 -197l229 -566l330 803h401z" />
    <glyph glyph-name="W" unicode="W" horiz-adv-x="2148" 
d="M989 1331h230l235 -770l287 770h391l16 -26l-518 -1305h-307l-219 674l-217 -674h-307l-342 860q-43 109 -72 125q-31 14 -76 -4l-24 14l-68 273l10 28q74 59 205 60q246 0 344 -264l197 -527z" />
    <glyph glyph-name="X" unicode="X" horiz-adv-x="1507" 
d="M258 1356q240 0 387 -211l123 -176l264 362h428l17 -26l-465 -639l184 -234q76 -96 139 -96q31 0 56 14l24 -14l68 -273l-10 -28q-72 -59 -220 -60q-242 0 -387 211l-129 189l-258 -375h-428l-16 27l452 639l-172 233q-70 94 -135 94q-39 0 -59 -12l-25 14l-67 273l10 28
q72 60 219 60z" />
    <glyph glyph-name="Y" unicode="Y" horiz-adv-x="1443" 
d="M965 0h-406v477l-258 420q-61 98 -137 98q-37 0 -66 -14l-24 14l-68 273l10 28q70 60 200 60t220 -62t168 -194l160 -273l283 504h391l16 -26l-489 -822v-483z" />
    <glyph glyph-name="Z" unicode="Z" horiz-adv-x="1288" 
d="M1227 322v-322h-1155v303l630 707h-610v321h1106v-305l-620 -704h649z" />
    <glyph glyph-name="bracketleft" unicode="[" horiz-adv-x="772" 
d="M717 1184h-228v-1217h228v-266h-596v1749h596v-266z" />
    <glyph glyph-name="backslash" unicode="\" horiz-adv-x="1292" 
d="M424 1442l823 -1530l-8 -21h-373l-823 1530l8 21h373z" />
    <glyph glyph-name="bracketright" unicode="]" horiz-adv-x="772" 
d="M55 1184v266h596v-1749h-596v266h228v1217h-228z" />
    <glyph glyph-name="asciicircum" unicode="^" horiz-adv-x="1380" 
d="M803 1331l522 -758l-16 -16h-318l-18 12l-283 410l-282 -410l-19 -12h-317l-17 16l523 758h225z" />
    <glyph glyph-name="underscore" unicode="_" horiz-adv-x="1150" 
d="M41 -4h1069v-307h-1069v307z" />
    <glyph glyph-name="grave" unicode="`" horiz-adv-x="774" 
d="M281 1653l411 -363v-20l-114 -135h-21l-475 282v21l178 215h21z" />
    <glyph glyph-name="a" unicode="a" 
d="M430 315q0 -47 37 -75t94 -29q57 0 97 39t40 82v63q-63 25 -130 25q-66 0 -102 -29t-36 -76zM37 314q0 154 132 236q132 83 333 83q104 0 196 -27v33q0 59 -47 98t-129 39q-127 0 -213 -82h-28l-166 164v29q178 162 465 162t429 -170q79 -94 78 -230v-258q0 -66 46 -65
q18 0 28 10l25 -14l43 -267l-15 -28q-88 -51 -190 -52q-152 0 -231 107q-141 -106 -325 -106t-308 92q-123 92 -123 246z" />
    <glyph glyph-name="b" unicode="b" horiz-adv-x="1325" 
d="M682 313q82 -1 133 55t51 144t-51 143t-133 55t-133 -54q-51 -56 -51 -144t51 -144t133 -55zM766 1049q219 0 364 -154q146 -154 146 -382t-146 -383t-364 -155q-184 0 -330 125v-100h-327v1350l370 45l31 -19v-399q117 72 256 72z" />
    <glyph glyph-name="c" unicode="c" horiz-adv-x="1087" 
d="M49 512q0 233 164 385t418 152t422 -181v-28l-219 -205h-29q-61 76 -153 76t-143.5 -55.5t-51.5 -143.5t52 -143.5t143 -55.5t153 76h29l219 -205v-28q-168 -180 -422 -180t-418 151.5t-164 384.5z" />
    <glyph glyph-name="d" unicode="d" horiz-adv-x="1368" 
d="M643 313q82 0 133 55.5t51 143.5t-51 143.5t-133 55.5t-133 -55.5t-51 -143.5t51 -143.5t133 -55.5zM553 -25q-211 0 -357.5 154t-146.5 382t145.5 383t360.5 155q131 0 248 -64v365l371 45l30 -19v-985q0 -66 45 -65q18 0 29 10l25 -14l43 -267l-15 -28
q-88 -51 -190 -52q-166 0 -242 123q-135 -123 -346 -123z" />
    <glyph glyph-name="e" unicode="e" horiz-adv-x="1216" 
d="M610 780q-78 0 -127 -49t-51 -129h356q-2 80 -51 129t-127 49zM672 258q150 0 246 92h28l168 -166v-28q-162 -180 -467 -181q-252 0 -425 140.5t-173 386.5t155.5 396.5t407.5 150.5t405.5 -148.5t153.5 -390.5q0 -51 -8 -92h-729q12 -80 78 -120t160 -40z" />
    <glyph glyph-name="f" unicode="f" horiz-adv-x="894" 
d="M748 1139q-54 0 -93 -30t-47 -85h266v-287h-268v-737h-401v737h-178v287h180q12 207 151 311t330 105q133 0 238 -45l14 -29l-66 -240l-24 -14q-48 27 -102 27z" />
    <glyph glyph-name="g" unicode="g" horiz-adv-x="1349" 
d="M627 371q82 0 133 55t51 143t-51 143.5t-133 55.5t-133.5 -55.5t-51.5 -143.5t51.5 -143t133.5 -55zM1233 698q-45 0 -45 -65v-424q0 -256 -171 -392t-448 -136q-326 0 -506 180v26l158 205h29q53 -55 143 -92t183 -37t164 42t71 124v25q-123 -63 -268 -64
q-215 0 -359.5 136t-144.5 343t144.5 343.5t349.5 136.5t356 -113q78 113 235 113q103 -1 191 -52l14 -28l-43 -267l-24 -14q-10 10 -29 10z" />
    <glyph glyph-name="h" unicode="h" horiz-adv-x="1263" 
d="M731 1049q199 0 321 -124t122 -327v-598h-402v569q0 63 -34 103t-98 39q-64 0 -99 -40t-35 -102v-569h-397v1350l366 45l31 -19v-381q100 54 225 54z" />
    <glyph glyph-name="i" unicode="i" horiz-adv-x="618" 
d="M109 0v1024h401v-1024h-401zM309 1135q-96 1 -165 69t-68 164q0 96 68 165q69 69 165 69t165 -69t69 -165t-69 -164t-165 -69z" />
    <glyph glyph-name="j" unicode="j" horiz-adv-x="649" 
d="M143 1024h402v-678q-1 -230 -27 -329t-67 -147q-88 -103 -263 -177h-30l-152 284v31q96 49 117 114q20 65 20 277v625zM344 1135q-96 1 -165 69t-68 164q0 96 68 165q69 69 165 69t165 -69t69 -165t-69 -164t-165 -69z" />
    <glyph glyph-name="k" unicode="k" 
d="M1049 -25q-96 0 -174 33t-158 129l-191 232l-16 -21v-348h-401v1350l368 45l33 -27v-670l256 326h414l16 -27l-358 -426l172 -186q53 -59 94 -59t59 18l25 -14l43 -283l-14 -29q-72 -43 -168 -43z" />
    <glyph glyph-name="l" unicode="l" horiz-adv-x="665" 
d="M502 391q0 -66 45 -65q18 0 28 10l25 -14l43 -267l-14 -28q-88 -51 -223.5 -51.5t-220.5 91t-85 265.5v1018l371 47l31 -21v-985z" />
    <glyph glyph-name="m" unicode="m" horiz-adv-x="1966" 
d="M1440 1049q192 0 314 -123t122 -328v-598h-401v569q0 66 -34 104t-94 38q-59 0 -93 -38t-33 -104v-569h-402v569q0 66 -33 104t-94 38t-94 -38t-33 -104v-569h-401v633q0 66 -45 65q-18 0 -29 -10l-24 14l-43 267l14 28q88 51 190 52q154 0 236 -107q143 106 331 106
t304 -122q149 123 342 123z" />
    <glyph glyph-name="n" unicode="n" horiz-adv-x="1323" 
d="M797.5 1049q190.5 0 313 -123t122.5 -328v-598h-402v569q0 63 -33.5 102.5t-98 39.5t-99.5 -40t-35 -102v-569h-401v633q0 66 -45 65q-18 0 -29 -10l-24 14l-43 267l14 28q88 51 196 52q154 0 230 -109q144 109 334.5 109z" />
    <glyph glyph-name="o" unicode="o" horiz-adv-x="1282" 
d="M641 313q82 0 133 55.5t51 143.5t-51 143.5t-133 55.5t-133 -55.5t-51 -143.5t51 -143.5t133 -55.5zM641 1049q264 0 428 -150.5t164 -386.5t-164 -386.5t-428 -150.5t-428 150.5t-164 386.5t164 386.5t428 150.5z" />
    <glyph glyph-name="p" unicode="p" horiz-adv-x="1366" 
d="M723 313q82 -1 133 55t51 144t-51 143t-133 55t-133 -54q-51 -56 -51 -144t51 -144t133 -55zM822 1049q204 0 349 -155t145 -383t-144 -382q-146 -154 -365 -154q-131 0 -242 64v-346h-401v940q0 66 -47 65q-16 0 -27 -10l-24 14l-43 267l14 28q88 51 196 52
q164 0 240 -129q145 129 349 129z" />
    <glyph glyph-name="q" unicode="q" horiz-adv-x="1363" 
d="M643 313q82 -1 133 55t51 144t-51 143t-133 55t-133 -54q-51 -56 -51 -144t51 -144t133 -55zM1249 698q-47 0 -47 -65v-940h-401v346q-111 -63 -242 -64q-219 0 -364 154t-145 382t144 383q146 155 350 155t349 -129q76 129 240 129q108 -1 196 -52l14 -28l-43 -267
l-24 -14q-10 10 -27 10z" />
    <glyph glyph-name="r" unicode="r" horiz-adv-x="980" 
d="M736 711q-71 0 -121 -46.5t-50 -132.5v-532h-401v633q0 66 -47 65q-16 0 -27 -10l-24 14l-43 267l14 28q88 51 196 52q145 0 220 -125q131 125 307 125q113 -1 213 -52l14 -28l-74 -281l-24 -14q-82 37 -153 37z" />
    <glyph glyph-name="s" unicode="s" horiz-adv-x="1087" 
d="M547 1049q319 0 473 -177v-28l-164 -148h-29q-111 94 -252 95q-104 0 -104 -52q0 -20 25.5 -33.5t79.5 -33t98.5 -33.5t70 -23.5t68.5 -28t69 -34.5q80 -50 116 -106t36 -140q0 -152 -132 -242t-324 -90q-367 0 -541 201v29l168 155h28q57 -51 138.5 -89t156.5 -38
q104 0 105 66q0 16 -10 33q-16 20 -69.5 36.5t-105 32t-80 25.5t-102 43t-102.5 62.5t-57.5 82t-28.5 113.5q0 147 128 234.5t341 87.5z" />
    <glyph glyph-name="t" unicode="t" horiz-adv-x="948" 
d="M623.5 -25q-170.5 0 -295.5 107.5t-125 316.5v338h-180v287h180v287l366 45l31 -19v-313h291v-287h-291v-288q0 -68 28.5 -102t74 -34t90.5 33l24 -14l107 -240l-11 -29q-119 -88 -289.5 -88z" />
    <glyph glyph-name="u" unicode="u" horiz-adv-x="1306" 
d="M90 426v598h402v-573q0 -61 32 -100q33 -38 92 -38t93 38q33 38 32 100v573h402v-633q0 -66 47 -65q16 0 27 10l24 -14l43 -267l-14 -28q-88 -51 -197 -52q-145 0 -225 107q-137 -106 -291 -107q-223 0 -345 122t-122 329z" />
    <glyph glyph-name="v" unicode="v" horiz-adv-x="1257" 
d="M193 1049q147 1 233 -89t149 -286l89 -268l221 618h350l16 -27l-413 -997h-351l-254 608q-37 90 -106 90q-37 0 -55 -18l-25 14l-47 283l14 29q70 43 179 43z" />
    <glyph glyph-name="w" unicode="w" horiz-adv-x="1767" 
d="M182 1049q150 1 246 -99t139 -266l58 -223l180 563h225l182 -567l164 567h367l16 -27l-352 -997h-330l-159 492l-160 -492h-330l-207 608q-31 90 -98 90q-37 0 -55 -18l-25 14l-47 283l14 29q70 43 172 43z" />
    <glyph glyph-name="x" unicode="x" horiz-adv-x="1267" 
d="M218 1049q85 0 160 -35t165 -137l108 -123l205 270h381l16 -27l-385 -485l125 -135q47 -51 93 -51t63 18l25 -14l47 -283l-15 -29q-72 -43 -156 -43t-160 35q-75 35 -165 137l-109 123l-204 -270h-381l-17 27l385 485l-125 135q-47 51 -92 51t-63 -18l-25 14l-47 283
l14 29q72 43 157 43z" />
    <glyph glyph-name="y" unicode="y" horiz-adv-x="1271" 
d="M399 -307q-117 0 -204 47l-15 29l70 239l22 15q45 -23 84 -23q98 0 129 59l17 33l-254 516q-43 90 -105 90q-39 0 -57 -18l-25 14l-47 283l15 29q70 43 176 43q147 0 233 -88t172 -287l84 -193l230 543h340l16 -27l-461 -1017q-129 -287 -420 -287z" />
    <glyph glyph-name="z" unicode="z" horiz-adv-x="1075" 
d="M1026 287v-287h-958v285l462 452h-442v287h897v-287l-432 -450h473z" />
    <glyph glyph-name="braceleft" unicode="{" horiz-adv-x="851" 
d="M330 625v-99q100 0 164 -69q63 -70 63 -195v-102q0 -131 38 -162t155 -31h49v-266h-111q-286 0 -394 100t-108 377v86q0 94 -15 130t-44 47t-78 12v245q92 0 115 42t22 147v86q0 277 109 377t393 100h111v-266h-49q-117 0 -155 -31t-38 -162v-102q0 -125 -63 -195
q-64 -69 -164 -69z" />
    <glyph glyph-name="bar" unicode="|" horiz-adv-x="528" 
d="M121 -299v1749h287v-1749h-287z" />
    <glyph glyph-name="braceright" unicode="}" horiz-adv-x="851" 
d="M295 889v102q0 131 -38 162t-155 31h-49v266h111q286 0 394 -100t108 -377v-86q0 -95 15 -131t44 -46q29 -11 78 -12v-245q-92 0 -115 -42t-22 -147v-86q0 -276 -109 -376t-393 -101h-111v266h49q117 0 155 31t38 162v102q0 125 63 195t164 69v99q-100 0 -164 69
q-63 70 -63 195z" />
    <glyph glyph-name="asciitilde" unicode="~" horiz-adv-x="1212" 
d="M842 500q-82 0 -236 36t-219 35q-129 0 -176 -71h-31l-102 188v29q86 121 309 121q88 0 247 -36t193 -36q129 0 177 72h30l103 -189v-28q-25 -35 -50 -57t-93 -43t-152 -21z" />
    <glyph glyph-name="exclamdown" unicode="&#xa1;" horiz-adv-x="593" 
d="M489 -285l-24 -22h-336l-25 22l39 764l25 23h258l25 -23zM297 582q-96 0 -165 68t-69 165q0 96 69 165t165 69t165 -69q68 -69 68 -165t-68 -165q-69 -68 -165 -68z" />
    <glyph glyph-name="cent" unicode="&#xa2;" horiz-adv-x="1062" 
d="M629 856q-86 0 -134.5 -51t-48.5 -133t48.5 -134.5t134.5 -52.5t141 72h29l202 -190v-27q-109 -117 -256 -152v-213h-286v213q-176 43 -283.5 173.5t-107.5 309.5t107.5 309t283.5 173v199h286v-199q147 -35 256 -152v-26l-202 -191h-29q-55 72 -141 72z" />
    <glyph glyph-name="sterling" unicode="&#xa3;" horiz-adv-x="1259" 
d="M766 1044q-64 0 -104 -38t-41 -107v-80h350v-287h-350v-245h559v-287h-1092v287h131v245h-131v287h131v80q0 117 45 207t120 143q151 107 349 107q141 0 264 -56t199 -151v-29l-199 -174h-28q-59 54 -99 76t-104 22z" />
    <glyph glyph-name="currency" unicode="&#xa4;" horiz-adv-x="1423" 
d="M711 465q84 0 142 59q58 60 58 148t-58 147t-142 59q-85 0 -143 -58q-58 -60 -58 -148t58 -148q59 -59 143 -59zM710 174q-120 0 -227 45l-174 -172l-231 232l153 151q-68 113 -67 242q0 129 67 241l-153 154l231 231l174 -172q238 90 455 -2l176 174l232 -231l-156 -154
q68 -113 68 -241t-68 -240l156 -153l-232 -232l-174 172q-110 -45 -230 -45z" />
    <glyph glyph-name="yen" unicode="&#xa5;" horiz-adv-x="1429" 
d="M1139 584v-185h-228v-69h228v-185h-228v-145h-393v145h-227v185h227v69h-227v185h170l-418 721l16 26h443l231 -481l234 481h403l16 -26l-417 -721h170z" />
    <glyph glyph-name="brokenbar" unicode="&#xa6;" horiz-adv-x="524" 
d="M119 494h287v-793h-287v793zM119 1450h287v-752h-287v752z" />
    <glyph glyph-name="section" unicode="&#xa7;" horiz-adv-x="1286" 
d="M475 567q0 -50 56 -73t128 -45q72 -21 107 -33q78 33 78 85t-59 79t-126 46t-92 27q-41 -11 -67 -35t-25 -51zM692 1081q-127 -1 -127 -73t168 -119q88 -25 139 -40t127 -50t117 -71t73 -95t32 -131q0 -166 -142 -264q80 -104 80 -211t-81 -188q-150 -150 -485 -150
t-530 196v31l177 188h30q56 -49 152 -86q96 -36 170 -36t114 19t39 52q0 51 -178 92q-14 4 -22 7q-461 115 -461 380q0 84 43 154t115 113q-96 86 -97 205q0 170 152 261t383 91q317 0 516 -170v-37l-190 -162h-33q-115 94 -281 94z" />
    <glyph glyph-name="dieresis" unicode="&#xa8;" horiz-adv-x="1064" 
d="M776 1130q-86 0 -146 60t-61 147q1 87 61 147t146 60t146 -60t61 -146q-1 -86 -61 -148q-60 -60 -146 -60zM289 1130q-87 0 -147 60t-60 147t60 147t146 60t147 -60t61 -146t-60 -148q-60 -60 -147 -60z" />
    <glyph glyph-name="copyright" unicode="&#xa9;" horiz-adv-x="1540" 
d="M798 268q-196 0 -316 113t-120 289t120 288t316 113q196 0 326 -133v-23l-161 -153h-23q-38 61 -112 61t-117 -45q-43 -46 -43 -112t41 -108t117 -42t114 62h23l161 -154v-23q-130 -133 -326 -133zM771 125q230 0 388 156t158 385t-158 385q-158 155 -389 155t-389 -156
t-158 -385q0 -230 159 -385t389 -155zM770 -25q-299 0 -502 197t-202 492q0 296 204 494t500 198q297 0 501 -199t204 -493t-203 -492q-203 -197 -502 -197z" />
    <glyph glyph-name="ordfeminine" unicode="&#xaa;" horiz-adv-x="843" 
d="M299 901q-1 -29 21 -46t59 -17t61 24t23 51v39q-39 14 -76 15q-88 0 -88 -66zM648 694q-78 0 -126 66q-86 -66 -201 -66t-191 56t-75 152q0 96 81 146t206 50q66 0 121 -17v21q0 38 -29 60q-28 22 -90 22t-121 -51h-16l-103 100v18q112 101 262 101t243 -60t93 -184v-158
q0 -41 31 -41q10 0 17 6l14 -8l27 -164l-9 -18q-56 -31 -134 -31z" />
    <glyph glyph-name="guillemotleft" unicode="&#xab;" horiz-adv-x="1261" 
d="M1180 907v-22l-244 -273l244 -274v-21l-181 -172h-18l-406 451v35l406 448h18zM649 885l-243 -273l243 -274v-21l-180 -172h-18l-406 451v35l406 448h18l180 -172v-22z" />
    <glyph glyph-name="registered" unicode="&#xae;" horiz-adv-x="1540" 
d="M799 711q35 0 59 19t23 57q0 38 -24 60t-58 21h-121v-157h121zM678 557v-270h-234v770h365q151 0 231 -68t80 -184q0 -147 -143 -207l151 -311h-266l-131 270h-53zM770 1206q-231 0 -389 -156t-158 -385q0 -230 158 -385t390 -155t389 155t157 385q0 229 -158 385
t-389 156zM770 1356q297 0 501 -199t204 -493t-203 -492q-203 -197 -502 -197t-502 197t-202 492q0 296 204 494t500 198z" />
    <glyph glyph-name="macron" unicode="&#xaf;" horiz-adv-x="819" 
d="M41 1382h737v-225h-737v225z" />
    <glyph glyph-name="degree" unicode="&#xb0;" horiz-adv-x="638" 
d="M246 1092q0 -31 22 -53q22 -21 52 -21q32 0 53 20q20 20 20 52q1 32 -21 54t-53 22t-52 -22q-21 -21 -21 -52zM320 827q-110 0 -188 78t-77 188q0 111 78 187q77 76 187 76t187 -77t77 -187t-77 -187q-77 -78 -187 -78z" />
    <glyph glyph-name="plusminus" unicode="&#xb1;" horiz-adv-x="1138" 
d="M90 -20v219h959v-219h-959zM707 922h342v-240h-342v-340h-277v340h-340v240h340v340h277v-340z" />
    <glyph glyph-name="acute" unicode="&#xb4;" horiz-adv-x="774" 
d="M494 1653h20l178 -215v-21l-475 -282h-20l-115 135v20z" />
    <glyph glyph-name="paragraph" unicode="&#xb6;" horiz-adv-x="1511" 
d="M1343 1040v-1300h-266v1300h266zM1425 1225h-512v-1485h-266v764h-80q-215 0 -365 125t-151 352q0 227 150 348t366 121h858v-225z" />
    <glyph glyph-name="periodcentered" unicode="&#xb7;" horiz-adv-x="606" 
d="M303 338q-98 0 -168 70q-69 70 -69 168t69 167q70 70 168 70t168 -70t70 -168q0 -97 -70 -167t-168 -70z" />
    <glyph glyph-name="cedilla" unicode="&#xb8;" horiz-adv-x="790" 
d="M694 -316q0 -100 -84 -170t-221 -69q-201 0 -321 102v29l86 113h28q76 -59 164 -60q35 -1 62 17t26 47q0 53 -76 57q-47 0 -82 -16l-79 49l129 270v23l206 2v-25l-77 -162l2 -2q29 8 55 9q82 0 132 -56q50 -58 50 -158z" />
    <glyph glyph-name="ordmasculine" unicode="&#xba;" horiz-adv-x="831" 
d="M299 1026q0 -55 33 -91t84 -36t84 36q32 36 32 91t-32 91q-33 36 -84 36t-84 -36t-33 -91zM53 1027q-1 145 99 237t264 92t263 -92t99 -236t-100 -238t-262 -94t-262 94t-101 237z" />
    <glyph glyph-name="guillemotright" unicode="&#xbb;" horiz-adv-x="1261" 
d="M811 1079l406 -448v-35l-406 -451h-18l-181 172v21l244 274l-244 273v22l181 172h18zM686 631v-35l-405 -451h-19l-180 172v21l244 274l-244 273v22l180 172h19z" />
    <glyph glyph-name="onequarter" unicode="&#xbc;" horiz-adv-x="1757" 
d="M1343 324v198l-155 -198h155zM1677 324v-191h-86v-133h-262v133h-368v178l344 439h286v-426h86zM242 27l1030 1304h297l16 -26l-1030 -1305h-297zM563 1331v-749h-305v516h-203l-4 14l62 219h450z" />
    <glyph glyph-name="onehalf" unicode="&#xbd;" horiz-adv-x="1949" 
d="M1872 223v-223h-639v190q174 113 253 180q79 68 79 108t-25 58q-24 18 -60 19q-36 0 -86 -26t-85 -60h-17l-98 135v17q62 63 158 104t206 41t206 -61q95 -61 96 -170q0 -78 -46 -141q-47 -62 -188 -171h246zM1593 1331l17 -26l-1030 -1305h-297l-17 27l1030 1304h297z
M563 582h-305v526h-203l-4 14l55 209h457v-749z" />
    <glyph glyph-name="threequarters" unicode="&#xbe;" horiz-adv-x="1808" 
d="M1399 324v198l-156 -198h156zM1647 324h86v-191h-86v-133h-263v133h-368v178l344 439h287v-426zM1624 1331l16 -26l-1030 -1305h-297l-16 27l1030 1304h297zM428 1104q0 57 -103 57q-55 0 -120 -51h-17l-88 139v15q108 92 256 92t227 -60t79 -155q0 -94 -87 -160
q125 -59 125 -171t-91 -176t-242 -65q-89 0 -179 36t-133 95v17l107 123h18q55 -66 172 -66q35 0 59 14q23 14 23 42t-31 46t-77 17h-82v154h98q38 0 62 15t24 42z" />
    <glyph glyph-name="questiondown" unicode="&#xbf;" horiz-adv-x="1103" 
d="M580 -319q-233 0 -377 93q-143 93 -144 244q0 82 40 147t122 139t98 91q53 63 50 113v10h383v-12q0 -56 -23 -104t-47 -74t-75 -67q-50 -43 -86 -79t-36 -86t33 -76q33 -27 86 -26q94 0 144 106l32 6l275 -90l4 -32q-117 -303 -479 -303zM559 594q-96 0 -165 69
q-68 69 -68 165t68 164q69 69 165 69t165 -69t69 -165q0 -97 -69 -165t-165 -68z" />
    <glyph glyph-name="Agrave" unicode="&#xc0;" horiz-adv-x="1558" 
d="M739 862l-149 -395h291zM1505 336l51 -281l-14 -28q-86 -51 -210 -51t-208 61q-68 53 -131 164h-506l-75 -201h-426l567 1331h373l397 -870q57 -127 113 -125q31 0 45 14zM926 1450h-29l-535 201v28l142 234h28l474 -291v-29z" />
    <glyph glyph-name="Aacute" unicode="&#xc1;" horiz-adv-x="1558" 
d="M739 862l-149 -395h291zM1505 336l51 -281l-14 -28q-86 -51 -210 -51t-208 61q-68 53 -131 164h-506l-75 -201h-426l567 1331h373l397 -870q57 -127 113 -125q31 0 45 14zM582 1450h-29l-80 143v29l473 291h29l141 -234v-28z" />
    <glyph glyph-name="Acircumflex" unicode="&#xc2;" horiz-adv-x="1558" 
d="M739 862l-149 -395h291zM1505 336l51 -281l-14 -28q-86 -51 -210 -51t-208 61q-68 53 -131 164h-506l-75 -201h-426l567 1331h373l397 -870q57 -127 113 -125q31 0 45 14zM436 1450h-28l-89 149v29l404 236h31l403 -236v-29l-88 -149h-29l-301 141z" />
    <glyph glyph-name="Atilde" unicode="&#xc3;" horiz-adv-x="1558" 
d="M739 862l-149 -395h291zM1505 336l51 -281l-14 -28q-86 -51 -210 -51t-208 61q-68 53 -131 164h-506l-75 -201h-426l567 1331h373l397 -870q57 -127 113 -125q31 0 45 14zM555 1800q70 0 202 -36t161 -35q102 0 141 71h28l109 -180v-29q-72 -129 -278 -129q-58 0 -184 36
t-179 36q-110 0 -149 -72h-29l-101 180v29q72 129 279 129z" />
    <glyph glyph-name="Adieresis" unicode="&#xc4;" horiz-adv-x="1558" 
d="M739 862l-149 -395h291zM1505 336l51 -281l-14 -28q-86 -51 -210 -51t-208 61q-68 53 -131 164h-506l-75 -201h-426l567 1331h373l397 -870q57 -127 113 -125q31 0 45 14zM1006 1450q-96 0 -164 68t-68 164t68 163q68 68 164 68t164 -68t67 -164q1 -95 -67 -163t-164 -68
zM467 1450q-94 0 -163 68q-68 68 -68 164t68 163q69 68 163 68t163 -68q68 -68 68 -164q0 -95 -68 -163t-163 -68z" />
    <glyph glyph-name="Aring" unicode="&#xc5;" horiz-adv-x="1558" 
d="M739 862l-149 -395h291zM1505 336l51 -281l-14 -28q-86 -51 -210 -51t-208 61q-68 53 -131 164h-506l-75 -201h-426l567 1331h373l397 -870q57 -127 113 -125q31 0 45 14zM739 1796q-31 0 -53 -22t-22 -56t22 -56t54 -22q30 0 53 23t23 55t-23 56q-23 22 -54 22z
M739 1442q-115 0 -197 81t-83 195q0 114 83 196q84 81 198 81t197 -81t83 -196q0 -116 -83 -196t-198 -80z" />
    <glyph glyph-name="AE" unicode="&#xc6;" horiz-adv-x="2203" 
d="M1100 467v416l-307 -416h307zM2120 1004h-615v-185h463v-307h-463v-184h615v-328h-1020v201h-504l-147 -201h-488l983 1331h1176v-327z" />
    <glyph glyph-name="Ccedilla" unicode="&#xc7;" horiz-adv-x="1398" 
d="M797 991q-137 0 -231.5 -93t-94.5 -232.5t94 -232.5t232 -93q170 0 288 129h29l246 -209v-29q-178 -217 -475 -251l-31 -64l2 -2q29 8 55 8q82 0 132.5 -56t50.5 -156t-84 -170t-222 -70q-201 0 -321 102v29l86 112h29q76 -59 163 -59q35 0 62 17.5t27 45.5q0 53 -76 58
q-47 0 -82 -17l-80 49l84 177q-270 35 -446.5 225t-176.5 472t212 478.5t530 196.5q168 0 315.5 -68.5t245.5 -187.5v-29l-246 -209h-29q-118 129 -288 129z" />
    <glyph glyph-name="Egrave" unicode="&#xc8;" horiz-adv-x="1232" 
d="M1149 1004h-614v-185h462v-307h-462v-184h614v-328h-1020v1331h1020v-327zM485 1913l473 -291v-29l-79 -143h-29l-535 201v28l142 234h28z" />
    <glyph glyph-name="Eacute" unicode="&#xc9;" horiz-adv-x="1232" 
d="M1149 1004h-614v-185h462v-307h-462v-184h614v-328h-1020v1331h1020v-327zM788 1913h29l141 -234v-28l-534 -201h-29l-80 143v29z" />
    <glyph glyph-name="Ecircumflex" unicode="&#xca;" horiz-adv-x="1232" 
d="M1149 1004h-614v-185h462v-307h-462v-184h614v-328h-1020v1331h1020v-327zM336 1450h-29l-88 149v29l404 236h30l404 -236v-29l-88 -149h-29l-301 141z" />
    <glyph glyph-name="Edieresis" unicode="&#xcb;" horiz-adv-x="1232" 
d="M1149 1004h-614v-185h462v-307h-462v-184h614v-328h-1020v1331h1020v-327zM905 1450q-94 0 -162.5 67.5t-68.5 164t68.5 164t162.5 67.5t163 -67.5t69 -164t-69 -164t-163 -67.5zM366.5 1450q-96.5 0 -164 67.5t-67.5 164t67.5 164t164 67.5t164 -67.5t67.5 -164
t-67.5 -164t-164 -67.5z" />
    <glyph glyph-name="Igrave" unicode="&#xcc;" horiz-adv-x="663" 
d="M129 1331h406v-1331h-406v1331zM141 1913l473 -291v-29l-79 -143h-29l-535 201v28l142 234h28z" />
    <glyph glyph-name="Iacute" unicode="&#xcd;" horiz-adv-x="663" 
d="M129 1331h406v-1331h-406v1331zM522 1913h29l141 -234v-28l-534 -201h-29l-80 143v29z" />
    <glyph glyph-name="Icircumflex" unicode="&#xce;" horiz-adv-x="663" 
d="M129 0v1331h406v-1331h-406zM348 1864l404 -236v-29l-88 -149h-29l-301 141l-303 -141h-29l-88 149v29l403 236h31z" />
    <glyph glyph-name="Idieresis" unicode="&#xcf;" horiz-adv-x="663" 
d="M129 1331h406v-1331h-406v1331zM600 1450q-96 0 -164 68t-68 164t68 163q68 68 164 68t164 -68t68 -164q0 -95 -68 -163t-164 -68zM61 1450q-95 0 -163 68t-68 164t69 163q69 68 163 68t162 -68q69 -68 69 -164q0 -95 -69 -163t-163 -68z" />
    <glyph glyph-name="Eth" unicode="&#xd0;" horiz-adv-x="1566" 
d="M784 328q135 0 222 90q86 90 86 249t-85 247t-223 90h-198v-187h280v-307h-280v-182h198zM801 1331q324 0 514 -181t190 -483q0 -303 -189 -485t-515 -182h-621v510h-139v307h139v514h621z" />
    <glyph glyph-name="Ntilde" unicode="&#xd1;" horiz-adv-x="1490" 
d="M956 1331h406v-1331h-303l-524 670v-670h-406v1331h303l524 -669v669zM563 1800q70 0 202 -35.5t161 -35.5q102 0 141 71h29l108 -180v-29q-72 -129 -278 -129q-57 0 -183.5 36t-179.5 36q-110 0 -149 -72h-29l-100 180v29q72 129 278 129z" />
    <glyph glyph-name="Ograve" unicode="&#xd2;" horiz-adv-x="1601" 
d="M801 340q139 0 234 92t95 234t-95 233q-95 92 -234 92t-235 -92t-95 -233q0 -141 95 -234q96 -92 235 -92zM801 -25q-317 0 -531 197q-213 197 -213 494q0 298 213 494q212 196 530 196t531 -197t213 -493t-213 -493q-213 -198 -530 -198zM649 1913l473 -291v-29
l-80 -143h-28l-535 201v28l142 234h28z" />
    <glyph glyph-name="Oacute" unicode="&#xd3;" horiz-adv-x="1601" 
d="M801 340q139 0 234 92t95 234t-95 233q-95 92 -234 92t-235 -92t-95 -233q0 -141 95 -234q96 -92 235 -92zM801 -25q-317 0 -531 197q-213 197 -213 494q0 298 213 494q212 196 530 196t531 -197t213 -493t-213 -493q-213 -198 -530 -198zM952 1913h29l141 -234v-28
l-534 -201h-29l-80 143v29z" />
    <glyph glyph-name="Ocircumflex" unicode="&#xd4;" horiz-adv-x="1601" 
d="M801 340q139 0 234 92t95 234t-95 233q-95 92 -234 92t-235 -92t-95 -233q0 -141 95 -234q96 -92 235 -92zM801 1356q317 0 530 -197t213 -493t-213 -493q-213 -198 -530 -198t-531 197q-213 197 -213 494q-1 298 213 494t531 196zM500 1450h-29l-88 149v29l403 236h31
l404 -236v-29l-88 -149h-29l-301 141z" />
    <glyph glyph-name="Otilde" unicode="&#xd5;" horiz-adv-x="1601" 
d="M801 340q139 0 234 92t95 234t-95 233q-95 92 -234 92t-235 -92t-95 -233q0 -141 95 -234q96 -92 235 -92zM801 -25q-317 0 -531 197q-213 197 -213 494q0 298 213 494q212 196 530 196t531 -197t213 -493t-213 -493q-213 -198 -530 -198zM618 1800q70 0 202 -36t161 -35
q102 0 141 71h29l109 -180v-29q-72 -129 -279 -129q-57 0 -183 36t-180 36q-111 0 -149 -72h-29l-100 180v29q71 129 278 129z" />
    <glyph glyph-name="Odieresis" unicode="&#xd6;" horiz-adv-x="1601" 
d="M801 340q139 0 234 92t95 234t-95 233q-95 92 -234 92t-235 -92t-95 -233q0 -141 95 -234q96 -92 235 -92zM801 -25q-317 0 -531 197q-213 197 -213 494q0 298 213 494q212 196 530 196t531 -197t213 -493t-213 -493q-213 -198 -530 -198zM1069 1450q-94 0 -163 68
q-68 68 -68 164t68 163q69 68 163 68t163 -68q68 -68 68 -164q0 -95 -68 -163t-163 -68zM530 1450q-96 0 -164 68t-67 164q0 96 68 163q67 68 163 68t164 -68t68 -164q0 -95 -68 -163t-164 -68z" />
    <glyph glyph-name="multiply" unicode="&#xd7;" horiz-adv-x="1290" 
d="M1212 319l-208 -208l-345 344l-358 -357l-238 238l359 356l-346 344l209 209l344 -344l360 359l238 -238l-361 -358z" />
    <glyph glyph-name="Oslash" unicode="&#xd8;" horiz-adv-x="1601" 
d="M801 340q139 0 234 92t95 234t-95 233q-95 92 -234 92t-235 -92t-95 -233q0 -141 95 -234q96 -92 235 -92zM801 -25q-111 0 -209 25l-68 -100h-438l-4 16l178 266q-203 197 -203 489q0 293 213 489t531 196q113 0 221 -29l82 123h434l4 -16l-192 -291q194 -199 194 -485
t-213 -485q-213 -198 -530 -198z" />
    <glyph glyph-name="Ugrave" unicode="&#xd9;" horiz-adv-x="1470" 
d="M109 1331h405v-749q0 -117 60 -182q60 -64 162 -64t164 64q60 65 61 182v749h399v-725q0 -297 -167 -464t-457 -167t-458 167t-169 464v725zM586 1913l473 -291v-29l-80 -143h-29l-534 201v28l141 234h29z" />
    <glyph glyph-name="Uacute" unicode="&#xda;" horiz-adv-x="1470" 
d="M109 1331h405v-749q0 -117 60 -182q60 -64 162 -64t164 64q60 65 61 182v749h399v-725q0 -297 -167 -464t-457 -167t-458 167t-169 464v725zM889 1913h29l141 -234v-28l-535 -201h-28l-80 143v29z" />
    <glyph glyph-name="Ucircumflex" unicode="&#xdb;" horiz-adv-x="1470" 
d="M961 1331h399v-725q0 -297 -167 -464t-457 -167t-458 167t-169 464v725h405v-749q0 -117 60 -182q60 -64 162 -64t164 64q60 65 61 182v749zM436 1450h-28l-89 149v29l404 236h31l403 -236v-29l-88 -149h-29l-301 141z" />
    <glyph glyph-name="Udieresis" unicode="&#xdc;" horiz-adv-x="1470" 
d="M109 1331h405v-749q0 -117 60 -182q60 -64 162 -64t164 64q60 65 61 182v749h399v-725q0 -297 -167 -464t-457 -167t-458 167t-169 464v725zM1006 1450q-96 0 -164 68t-68 164t68 163q68 68 164 68t164 -68t67 -164q1 -95 -67 -163t-164 -68zM467 1450q-94 0 -163 68
q-68 68 -68 164t68 163q69 68 163 68t163 -68q68 -68 68 -164q0 -95 -68 -163t-163 -68z" />
    <glyph glyph-name="Yacute" unicode="&#xdd;" horiz-adv-x="1443" 
d="M965 0h-406v477l-258 420q-61 98 -137 98q-37 0 -66 -14l-24 14l-68 273l10 28q70 60 200 60t220 -62t168 -194l160 -273l283 504h391l16 -26l-489 -822v-483zM549 1450h-29l-80 143v29l473 291h29l141 -234v-28z" />
    <glyph glyph-name="Thorn" unicode="&#xde;" horiz-adv-x="1333" 
d="M748 530q59 0 98 36t39 100t-42 99q-42 36 -95 36h-213v-271h213zM760 1130q258 0 398 -122t140 -331q0 -210 -139 -333t-399 -119h-225v-225h-406v1331h406v-201h225z" />
    <glyph glyph-name="germandbls" unicode="&#xdf;" horiz-adv-x="1323" 
d="M1278 375q0 -182 -127 -291t-330 -109q-147 0 -248 60l-14 28l80 244l29 10q29 -23 88 -23t97 36q38 35 38 96t-46 98t-134 37h-82l2 234h20q47 -1 84 35t37 92t-36 92q-36 35 -96 35t-95 -42t-35 -110v-897h-401v920q0 204 148 320q147 116 379 116t368 -98t135 -261
q0 -164 -135 -258q134 -37 204 -134t70 -230z" />
    <glyph glyph-name="agrave" unicode="&#xe0;" 
d="M430 315q0 -47 37 -75t94 -29q57 0 97 39t40 82v63q-63 25 -130 25q-66 0 -102 -29t-36 -76zM37 314q0 154 132 236q132 83 333 83q104 0 196 -27v33q0 59 -47 98t-129 39q-127 0 -213 -82h-28l-166 164v29q178 162 465 162t429 -170q79 -94 78 -230v-258q0 -66 46 -65
q18 0 28 10l25 -14l43 -267l-15 -28q-88 -51 -190 -52q-152 0 -231 107q-141 -106 -325 -106t-308 92q-123 92 -123 246zM809 1135h-21l-475 282v21l179 215h20l412 -363v-20z" />
    <glyph glyph-name="aacute" unicode="&#xe1;" 
d="M430 315q0 -47 37 -75t94 -29q57 0 97 39t40 82v63q-63 25 -130 25q-66 0 -102 -29t-36 -76zM37 314q0 154 132 236q132 83 333 83q104 0 196 -27v33q0 59 -47 98t-129 39q-127 0 -213 -82h-28l-166 164v29q178 162 465 162t429 -170q79 -94 78 -230v-258q0 -66 46 -65
q18 0 28 10l25 -14l43 -267l-15 -28q-88 -51 -190 -52q-152 0 -231 107q-141 -106 -325 -106t-308 92q-123 92 -123 246zM449 1135h-21l-115 135v20l412 363h20l179 -215v-21z" />
    <glyph glyph-name="acircumflex" unicode="&#xe2;" 
d="M430 315q0 -47 37 -75t94 -29q57 0 97 39t40 82v63q-63 25 -130 25q-66 0 -102 -29t-36 -76zM37 314q0 154 132 236q132 83 333 83q104 0 196 -27v33q0 59 -47 98t-129 39q-127 0 -213 -82h-28l-166 164v29q178 162 465 162t429 -170q79 -94 78 -230v-258q0 -66 46 -65
q18 0 28 10l25 -14l43 -267l-15 -28q-88 -51 -190 -52q-152 0 -231 107q-141 -106 -325 -106t-308 92q-123 92 -123 246zM365 1135h-21l-133 159v21l391 217h33l391 -217v-21l-133 -159h-21l-254 116z" />
    <glyph glyph-name="atilde" unicode="&#xe3;" 
d="M430 315q0 -47 37 -75t94 -29q57 0 97 39t40 82v63q-63 25 -130 25q-66 0 -102 -29t-36 -76zM37 314q0 154 132 236q132 83 333 83q104 0 196 -27v33q0 59 -47 98t-129 39q-127 0 -213 -82h-28l-166 164v29q178 162 465 162t429 -170q79 -94 78 -230v-258q0 -66 46 -65
q18 0 28 10l25 -14l43 -267l-15 -28q-88 -51 -190 -52q-152 0 -231 107q-141 -106 -325 -106t-308 92q-123 92 -123 246zM741 1399q102 0 138 71h24l144 -172v-28q-106 -121 -244 -121q-55 0 -155 36t-152 36q-103 0 -138 -72h-24l-144 172v29q106 121 244 120q56 0 156 -36
t151 -35z" />
    <glyph glyph-name="adieresis" unicode="&#xe4;" 
d="M430 315q0 -47 37 -75t94 -29q57 0 97 39t40 82v63q-63 25 -130 25q-66 0 -102 -29t-36 -76zM37 314q0 154 132 236q132 83 333 83q104 0 196 -27v33q0 59 -47 98t-129 39q-127 0 -213 -82h-28l-166 164v29q178 162 465 162t429 -170q79 -94 78 -230v-258q0 -66 46 -65
q18 0 28 10l25 -14l43 -267l-15 -28q-88 -51 -190 -52q-152 0 -231 107q-141 -106 -325 -106t-308 92q-123 92 -123 246zM862 1130q-86 0 -146 60t-61 147q1 87 61 147t146 60t146 -60t61 -146q-1 -86 -61 -148q-60 -60 -146 -60zM375 1130q-87 0 -147 60t-60 147t60 147
t146 60t147 -60t61 -146t-60 -148q-60 -60 -147 -60z" />
    <glyph glyph-name="aring" unicode="&#xe5;" 
d="M430 315q0 -47 37 -75t94 -29q57 0 97 39t40 82v63q-63 25 -130 25q-66 0 -102 -29t-36 -76zM37 314q0 154 132 236q132 83 333 83q104 0 196 -27v33q0 59 -47 98t-129 39q-127 0 -213 -82h-28l-166 164v29q178 162 465 162t429 -170q79 -94 78 -230v-258q0 -66 46 -65
q18 0 28 10l25 -14l43 -267l-15 -28q-88 -51 -190 -52q-152 0 -231 107q-141 -106 -325 -106t-308 92q-123 92 -123 246zM618 1470q-32 0 -54 -22t-22 -54q0 -30 22 -53t54 -23t55 24q22 22 21 53q0 31 -21 53q-22 22 -55 22zM617 1116q-119 0 -203 82t-84 197t84 197
t204 81q120 0 205 -82q84 -83 84 -197t-85 -196t-205 -82z" />
    <glyph glyph-name="ae" unicode="&#xe6;" horiz-adv-x="1873" 
d="M569.5 420q-65.5 0 -102.5 -29t-37 -76t37 -75.5t92 -28.5t96 36t43 85v63q-63 25 -128.5 25zM1268 780q-78 0 -127 -49t-51 -129h356q-2 80 -51 129t-127 49zM1329 258q150 0 246 92h29l168 -166v-28q-162 -180 -448.5 -180.5t-457.5 151.5q-166 -152 -376 -152
t-331.5 91.5t-121.5 247t132 237.5t353 82q90 0 176 -27v33q0 59 -47 98t-121 39q-131 0 -221 -82h-28l-166 164v29q178 162 454 162q221 0 361 -97q141 96 342 97q250 0 403.5 -148.5t153.5 -390.5q0 -51 -8 -92h-729q12 -80 77.5 -120t159.5 -40z" />
    <glyph glyph-name="ccedilla" unicode="&#xe7;" horiz-adv-x="1087" 
d="M652 711q-91 0 -143 -55.5t-52 -143.5t52 -143.5t143 -55.5t153 76h29l219 -205v-28q-145 -152 -351 -176l-30 -64l2 -2q29 8 55 8q82 0 132 -56t50 -156.5t-84 -170t-221 -69.5q-201 0 -321 102v29l86 112h28q76 -59 164 -59q35 0 61.5 17.5t26.5 45.5q0 53 -76 58
q-47 0 -81 -17l-80 49l86 181q-201 37 -326 180t-125 360t164 369t418 152t422 -181v-28l-219 -205h-29q-62 76 -153 76z" />
    <glyph glyph-name="egrave" unicode="&#xe8;" horiz-adv-x="1216" 
d="M610 780q-78 0 -127 -49t-51 -129h356q-2 80 -51 129t-127 49zM672 258q150 0 246 92h28l168 -166v-28q-162 -180 -467 -181q-252 0 -425 140.5t-173 386.5t155.5 396.5t407.5 150.5t405.5 -148.5t153.5 -390.5q0 -51 -8 -92h-729q12 -80 78 -120t160 -40zM805 1135h-21
l-475 282v21l178 215h21l412 -363v-20z" />
    <glyph glyph-name="eacute" unicode="&#xe9;" horiz-adv-x="1216" 
d="M610 780q-78 0 -127 -49t-51 -129h356q-2 80 -51 129t-127 49zM672 258q150 0 246 92h28l168 -166v-28q-162 -180 -467 -181q-252 0 -425 140.5t-173 386.5t155.5 396.5t407.5 150.5t405.5 -148.5t153.5 -390.5q0 -51 -8 -92h-729q12 -80 78 -120t160 -40zM444 1135h-20
l-115 135v20l412 363h20l179 -215v-21z" />
    <glyph glyph-name="ecircumflex" unicode="&#xea;" horiz-adv-x="1216" 
d="M610 780q-78 0 -127 -49t-51 -129h356q-2 80 -51 129t-127 49zM672 258q150 0 246 92h28l168 -166v-28q-162 -180 -467 -181q-252 0 -425 140.5t-173 386.5t155.5 396.5t407.5 150.5t405.5 -148.5t153.5 -390.5q0 -51 -8 -92h-729q12 -80 78 -120t160 -40zM360 1135h-20
l-133 159v21l391 217h33l391 -217v-21l-133 -159h-21l-254 116z" />
    <glyph glyph-name="edieresis" unicode="&#xeb;" horiz-adv-x="1216" 
d="M610 780q-78 0 -127 -49t-51 -129h356q-2 80 -51 129t-127 49zM672 258q150 0 246 92h28l168 -166v-28q-162 -180 -467 -181q-252 0 -425 140.5t-173 386.5t155.5 396.5t407.5 150.5t405.5 -148.5t153.5 -390.5q0 -51 -8 -92h-729q12 -80 78 -120t160 -40zM858 1130
q-86 0 -146.5 60.5t-60.5 146.5t60.5 146.5t146.5 60.5t146.5 -60.5t60.5 -146.5t-60.5 -146.5t-146.5 -60.5zM371 1130q-86 0 -146.5 60.5t-60.5 146.5t60.5 146.5t146.5 60.5t146.5 -60.5t60.5 -146.5t-60.5 -146.5t-146.5 -60.5z" />
    <glyph glyph-name="igrave" unicode="&#xec;" horiz-adv-x="618" 
d="M109 0v1024h401v-1024h-401zM213 1653l412 -363v-20l-115 -135h-21l-475 282v21l179 215h20z" />
    <glyph glyph-name="iacute" unicode="&#xed;" horiz-adv-x="618" 
d="M109 0v1024h401v-1024h-401zM406 1653h20l178 -215v-21l-475 -282h-20l-115 135v20z" />
    <glyph glyph-name="icircumflex" unicode="&#xee;" horiz-adv-x="618" 
d="M109 0v1024h401v-1024h-401zM324 1532l360 -217v-21l-123 -159h-18l-234 116l-235 -116h-19l-123 159v21l361 217h31z" />
    <glyph glyph-name="idieresis" unicode="&#xef;" horiz-adv-x="618" 
d="M109 0v1024h401v-1024h-401zM553 1130q-86 0 -146 60t-61 147q0 87 60 147t147 60q86 0 146 -60q61 -60 61 -146t-60 -148q-60 -60 -147 -60zM66 1130q-86 0 -146 60t-61 147q0 87 60 147q61 60 147 60t146 -60t60 -146t-60 -148q-60 -60 -146 -60z" />
    <glyph glyph-name="eth" unicode="&#xf0;" horiz-adv-x="1200" 
d="M420 440q0 -72 49 -119t124 -47t123 45t48 118t-49 121t-123 48t-123 -47t-49 -119zM520 905q57 0 109 -8q-53 72 -88 113l-228 -82l-28 18v176l104 37q-45 41 -70 62v28l236 205h29q57 -57 159 -168l236 86l29 -18v-176l-131 -48q281 -356 280 -651q0 -227 -156 -365
q-157 -138 -411 -138t-409 127q-155 128 -155 336t145 337q144 129 349 129z" />
    <glyph glyph-name="ntilde" unicode="&#xf1;" horiz-adv-x="1323" 
d="M797.5 1049q190.5 0 313 -123t122.5 -328v-598h-402v569q0 63 -33.5 102.5t-98 39.5t-99.5 -40t-35 -102v-569h-401v633q0 66 -45 65q-18 0 -29 -10l-24 14l-43 267l14 28q88 51 196 52q154 0 230 -109q144 109 334.5 109zM797 1399q100 0 137 71h24l144 -172v-28
q-106 -121 -244 -121q-55 0 -155.5 36t-151.5 36q-100 0 -137 -72h-25l-143 172v29q106 121 243 120q55 0 155.5 -35.5t152.5 -35.5z" />
    <glyph glyph-name="ograve" unicode="&#xf2;" horiz-adv-x="1282" 
d="M641 313q82 0 133 55.5t51 143.5t-51 143.5t-133 55.5t-133 -55.5t-51 -143.5t51 -143.5t133 -55.5zM641 1049q264 0 428 -150.5t164 -386.5t-164 -386.5t-428 -150.5t-428 150.5t-164 386.5t164 386.5t428 150.5zM535 1653l411 -363v-20l-115 -135h-20l-475 282v21
l178 215h21z" />
    <glyph glyph-name="oacute" unicode="&#xf3;" horiz-adv-x="1282" 
d="M641 313q82 0 133 55.5t51 143.5t-51 143.5t-133 55.5t-133 -55.5t-51 -143.5t51 -143.5t133 -55.5zM641 1049q264 0 428 -150.5t164 -386.5t-164 -386.5t-428 -150.5t-428 150.5t-164 386.5t164 386.5t428 150.5zM748 1653h20l178 -215v-21l-475 -282h-20l-115 135v20z
" />
    <glyph glyph-name="ocircumflex" unicode="&#xf4;" horiz-adv-x="1282" 
d="M641 313q82 0 133 55.5t51 143.5t-51 143.5t-133 55.5t-133 -55.5t-51 -143.5t51 -143.5t133 -55.5zM641 1049q264 0 428 -150.5t164 -386.5t-164 -386.5t-428 -150.5t-428 150.5t-164 386.5t164 386.5t428 150.5zM387 1135h-20l-134 159v21l392 217h32l392 -217v-21
l-134 -159h-20l-254 116z" />
    <glyph glyph-name="otilde" unicode="&#xf5;" horiz-adv-x="1282" 
d="M641 313q82 0 133 55.5t51 143.5t-51 143.5t-133 55.5t-133 -55.5t-51 -143.5t51 -143.5t133 -55.5zM641 1049q264 0 428 -150.5t164 -386.5t-164 -386.5t-428 -150.5t-428 150.5t-164 386.5t164 386.5t428 150.5zM457 1470q55 0 155.5 -35.5t151.5 -35.5q100 0 137 71
h25l143 -172v-28q-106 -121 -244 -121q-55 0 -155.5 36t-151.5 36q-100 0 -137 -72h-25l-143 172v29q107 120 244 120z" />
    <glyph glyph-name="odieresis" unicode="&#xf6;" horiz-adv-x="1282" 
d="M641 313q82 0 133 55.5t51 143.5t-51 143.5t-133 55.5t-133 -55.5t-51 -143.5t51 -143.5t133 -55.5zM641 1049q264 0 428 -150.5t164 -386.5t-164 -386.5t-428 -150.5t-428 150.5t-164 386.5t164 386.5t428 150.5zM885 1130q-86 0 -146.5 60.5t-60.5 146.5t60.5 146.5
t146.5 60.5t146.5 -60.5t60.5 -146.5t-60.5 -146.5t-146.5 -60.5zM397 1130q-86 0 -146.5 60.5t-60.5 146.5t60.5 146.5t146.5 60.5t146.5 -60.5t60.5 -146.5t-60.5 -146.5t-146.5 -60.5z" />
    <glyph glyph-name="divide" unicode="&#xf7;" horiz-adv-x="1183" 
d="M613 -47q-87 0 -148 60q-61 61 -61 149t60 149q62 61 149 61t149 -60q62 -62 61 -150q0 -88 -61 -149q-62 -60 -149 -60zM59 739h1065v-266h-1065v266zM613 852q-87 0 -148 60t-61 148t60 150q62 62 149 62t149 -62t61 -149q0 -88 -61 -149q-62 -60 -149 -60z" />
    <glyph glyph-name="oslash" unicode="&#xf8;" horiz-adv-x="1282" 
d="M641 313q82 0 133 55.5t51 143.5t-51 143.5t-133 55.5t-133 -55.5t-51 -143.5t51 -143.5t133 -55.5zM1233 503q0 -227 -164 -377.5t-428 -150.5q-88 0 -166 19l-61 -88h-355l-16 26l150 213q-143 147 -143.5 375t163.5 378.5t428 150.5q92 0 168 -19l80 115h354l17 -27
l-168 -241q141 -147 141 -374z" />
    <glyph glyph-name="ugrave" unicode="&#xf9;" horiz-adv-x="1306" 
d="M90 426v598h402v-573q0 -61 32 -100q33 -38 92 -38t93 38q33 38 32 100v573h402v-633q0 -66 47 -65q16 0 27 10l24 -14l43 -267l-14 -28q-88 -51 -197 -52q-145 0 -225 107q-137 -106 -291 -107q-223 0 -345 122t-122 329zM801 1135h-21l-475 282v21l178 215h21l411 -363
v-20z" />
    <glyph glyph-name="uacute" unicode="&#xfa;" horiz-adv-x="1306" 
d="M90 426v598h402v-573q0 -61 32 -100q33 -38 92 -38t93 38q33 38 32 100v573h402v-633q0 -66 47 -65q16 0 27 10l24 -14l43 -267l-14 -28q-88 -51 -197 -52q-145 0 -225 107q-137 -106 -291 -107q-223 0 -345 122t-122 329zM440 1135h-20l-115 135v20l412 363h20l178 -215
v-21z" />
    <glyph glyph-name="ucircumflex" unicode="&#xfb;" horiz-adv-x="1306" 
d="M90 426v598h402v-573q0 -61 32 -100q33 -38 92 -38t93 38q33 38 32 100v573h402v-633q0 -66 47 -65q16 0 27 10l24 -14l43 -267l-14 -28q-88 -51 -197 -52q-145 0 -225 107q-137 -106 -291 -107q-223 0 -345 122t-122 329zM356 1135h-20l-133 159v21l391 217h33l391 -217
v-21l-133 -159h-21l-254 116z" />
    <glyph glyph-name="udieresis" unicode="&#xfc;" horiz-adv-x="1306" 
d="M90 426v598h402v-573q0 -61 32 -100q33 -38 92 -38t93 38q33 38 32 100v573h402v-633q0 -66 47 -65q16 0 27 10l24 -14l43 -267l-14 -28q-88 -51 -197 -52q-145 0 -225 107q-137 -106 -291 -107q-223 0 -345 122t-122 329zM854 1130q-86 0 -146 60t-61 147q1 87 61 147
t146 60t146 -60t60 -146t-60 -148q-60 -60 -146 -60zM367 1130q-87 0 -147 60t-60 147t60 147t146 60t147 -60q60 -60 60 -146t-60 -148q-60 -60 -146 -60z" />
    <glyph glyph-name="yacute" unicode="&#xfd;" horiz-adv-x="1271" 
d="M399 -307q-117 0 -204 47l-15 29l70 239l22 15q45 -23 84 -23q98 0 129 59l17 33l-254 516q-43 90 -105 90q-39 0 -57 -18l-25 14l-47 283l15 29q70 43 176 43q147 0 233 -88t172 -287l84 -193l230 543h340l16 -27l-461 -1017q-129 -287 -420 -287zM453 1135h-21
l-115 135v20l412 363h21l178 -215v-21z" />
    <glyph glyph-name="thorn" unicode="&#xfe;" horiz-adv-x="1345" 
d="M702 313q82 -1 134 55t51 144q0 88 -51 143q-52 55 -134 55t-133 -54q-51 -56 -51 -144t51 -144t133 -55zM786 1049q222 0 366 -154t144 -383t-145 -383t-365 -154q-131 0 -241 64v-346h-402v1247q0 66 -47 66q-16 0 -26 -11l-25 15l-43 266l14 29q88 51 204 51t197 -81
t81 -237v-84q126 95 288 95z" />
    <glyph glyph-name="ydieresis" unicode="&#xff;" horiz-adv-x="1271" 
d="M399 -307q-117 0 -204 47l-15 29l70 239l22 15q45 -23 84 -23q98 0 129 59l17 33l-254 516q-43 90 -105 90q-39 0 -57 -18l-25 14l-47 283l15 29q70 43 176 43q147 0 233 -88t172 -287l84 -193l230 543h340l16 -27l-461 -1017q-129 -287 -420 -287zM866 1130
q-86 0 -146 60t-61 147q1 87 61 147t146 60t146 -60t61 -146q-1 -86 -61 -148q-60 -60 -146 -60zM379 1130q-87 0 -147 60t-60 147t60 147t146 60t147 -60t61 -146t-60 -148q-60 -60 -147 -60z" />
    <glyph glyph-name="Amacron" unicode="&#x100;" horiz-adv-x="1558" 
d="M739 862l-149 -395h291zM1505 336l51 -281l-14 -28q-86 -51 -210 -51t-208 61q-68 53 -131 164h-506l-75 -201h-426l567 1331h373l397 -870q57 -127 113 -125q31 0 45 14zM1120 1716v-248h-766v248h766z" />
    <glyph glyph-name="amacron" unicode="&#x101;" 
d="M430 315q0 -47 37 -75t94 -29q57 0 97 39t40 82v63q-63 25 -130 25q-66 0 -102 -29t-36 -76zM37 314q0 154 132 236q132 83 333 83q104 0 196 -27v33q0 59 -47 98t-129 39q-127 0 -213 -82h-28l-166 164v29q178 162 465 162t429 -170q79 -94 78 -230v-258q0 -66 46 -65
q18 0 28 10l25 -14l43 -267l-15 -28q-88 -51 -190 -52q-152 0 -231 107q-141 -106 -325 -106t-308 92q-123 92 -123 246zM987 1382v-225h-737v225h737z" />
    <glyph glyph-name="Abreve" unicode="&#x102;" horiz-adv-x="1558" 
d="M739 862l-149 -395h291zM1505 336l51 -281l-14 -28q-86 -51 -210 -51t-208 61q-68 53 -131 164h-506l-75 -201h-426l567 1331h373l397 -870q57 -127 113 -125q31 0 45 14zM741 1446q-161 0 -271 106t-128 269h233q11 -74 57 -120t109 -46t109 46q45 46 57 120h234
q-18 -163 -129 -269t-271 -106z" />
    <glyph glyph-name="abreve" unicode="&#x103;" 
d="M430 315q0 -47 37 -75t94 -29q57 0 97 39t40 82v63q-63 25 -130 25q-66 0 -102 -29t-36 -76zM37 314q0 154 132 236q132 83 333 83q104 0 196 -27v33q0 59 -47 98t-129 39q-127 0 -213 -82h-28l-166 164v29q178 162 465 162t429 -170q79 -94 78 -230v-258q0 -66 46 -65
q18 0 28 10l25 -14l43 -267l-15 -28q-88 -51 -190 -52q-152 0 -231 107q-141 -106 -325 -106t-308 92q-123 92 -123 246zM618 1135q-160 0 -270 106t-129 268h234q12 -73 57 -119t108 -46q62 0 108 46t58 119h234q-18 -162 -129 -268t-271 -106z" />
    <glyph glyph-name="Aogonek" unicode="&#x104;" horiz-adv-x="1558" 
d="M739 862l-149 -395h291zM1270 -220q0 -34 28 -60t72 -26q45 0 84 40h29l88 -129v-29q-89 -88 -239 -88t-246 75q-95 75 -95 189q0 60 31 110t64 77q34 27 94 65q-97 39 -187 197h-506l-75 -201h-426l567 1331h373l397 -870q57 -127 113 -125q31 0 45 14l24 -14l51 -281
l-14 -28q-18 -12 -78 -45t-112 -70q-53 -37 -67 -67q-15 -31 -15 -65z" />
    <glyph glyph-name="aogonek" unicode="&#x105;" 
d="M430 315q0 -47 37 -75t94 -29q57 0 97 39t40 82v63q-63 25 -130 25q-66 0 -102 -29t-36 -76zM1004 -512q-150 0 -245 75t-95 193t129 208q27 19 75 50q-47 27 -75 68q-141 -106 -325 -106t-308 92q-123 92 -123 246t132 236q132 83 333 83q104 0 196 -27v33q0 59 -47 98
t-129 39q-127 0 -213 -82h-28l-166 164v29q178 162 465 162t429 -170q79 -94 78 -230v-258q0 -66 46 -65q18 0 28 10l25 -14l43 -267l-15 -28q-18 -12 -77 -45q-155 -87 -183 -142q-12 -26 -12 -60t28 -60t72 -26t84 40h29l88 -129v-29q-89 -88 -239 -88z" />
    <glyph glyph-name="Cacute" unicode="&#x106;" horiz-adv-x="1398" 
d="M471 665.5q0 -139.5 94 -232.5t232 -93q170 0 288 129h29l246 -209v-29q-213 -256 -567 -256q-311 0 -523.5 198t-212.5 494t212 492.5t530 196.5q168 0 315.5 -68.5t245.5 -187.5v-29l-246 -209h-29q-119 129 -288 129q-137 0 -231.5 -93t-94.5 -232.5zM950 1913h29
l141 -234v-28l-534 -201h-29l-80 143v29z" />
    <glyph glyph-name="cacute" unicode="&#x107;" horiz-adv-x="1087" 
d="M49 512q0 233 164 385t418 152t422 -181v-28l-219 -205h-29q-61 76 -153 76t-143.5 -55.5t-51.5 -143.5t52 -143.5t143 -55.5t153 76h29l219 -205v-28q-168 -180 -422 -180t-418 151.5t-164 384.5zM731 1653h21l178 -215v-21l-475 -282h-21l-115 135v20z" />
    <glyph glyph-name="Cdotaccent" unicode="&#x10a;" horiz-adv-x="1398" 
d="M471 665.5q0 -139.5 94 -232.5t232 -93q170 0 288 129h29l246 -209v-29q-213 -256 -567 -256q-311 0 -523.5 198t-212.5 494t212 492.5t530 196.5q168 0 315.5 -68.5t245.5 -187.5v-29l-246 -209h-29q-119 129 -288 129q-137 0 -231.5 -93t-94.5 -232.5zM796 1446
q-93 0 -162 68.5t-69 163t68.5 164t164 69.5t164 -68.5t68.5 -164t-70.5 -164t-163.5 -68.5z" />
    <glyph glyph-name="cdotaccent" unicode="&#x10b;" horiz-adv-x="1087" 
d="M49 512q0 233 164 385t418 152t422 -181v-28l-219 -205h-29q-61 76 -153 76t-143.5 -55.5t-51.5 -143.5t52 -143.5t143 -55.5t153 76h29l219 -205v-28q-168 -180 -422 -180t-418 151.5t-164 384.5zM624.5 1135q-96.5 0 -165 68.5t-68.5 164.5t68.5 165t165 69t165 -69
t68.5 -165t-68.5 -164.5t-165 -68.5z" />
    <glyph glyph-name="Ccaron" unicode="&#x10c;" horiz-adv-x="1398" 
d="M797 991q-137 0 -231.5 -93t-94.5 -232.5t94 -232.5t232 -93q170 0 288 129h29l246 -209v-29q-213 -256 -567 -256q-311 0 -523.5 198t-212.5 494t212 492.5t530 196.5q168 0 315.5 -68.5t245.5 -187.5v-29l-246 -209h-29q-118 129 -288 129zM815 1450h-31l-403 236v28
l88 150h29l303 -142l301 142h28l89 -150v-28z" />
    <glyph glyph-name="ccaron" unicode="&#x10d;" horiz-adv-x="1087" 
d="M652 711q-91 0 -143 -55.5t-52 -143.5t52 -143.5t143 -55.5t153 76h29l219 -205v-28q-168 -180 -422 -180.5t-418 151.5t-164 385t164 385t418 152t422 -181v-28l-219 -205h-29q-62 76 -153 76zM641 1135h-33l-391 217v20l133 160h21l254 -117l254 117h20l133 -160v-20z
" />
    <glyph glyph-name="Dcaron" unicode="&#x10e;" horiz-adv-x="1515" 
d="M733 328q137 0 222 89t85 249t-85 248t-222 90h-198v-676h198zM750 1331q324 0 514 -181t190 -483q0 -303 -189 -485t-515 -182h-621v1331h621zM676 1450h-31l-403 236v28l88 150h28l304 -142l301 142h28l88 -150v-28z" />
    <glyph glyph-name="dcaron" unicode="&#x10f;" horiz-adv-x="1531" 
d="M643 313q82 0 133 55.5t51 143.5t-51 143.5t-133 55.5t-133 -55.5t-51 -143.5t51 -143.5t133 -55.5zM553 -25q-211 0 -357.5 154t-146.5 382t145.5 383t360.5 155q131 0 248 -64v365l371 45l30 -19v-985q0 -66 45 -65q19 0 29 10l25 -14l43 -267l-15 -28
q-88 -51 -190 -52q-166 0 -242 123q-135 -123 -346 -123zM1696 1454l18 -20l-158 -430l-24 -21h-193l-18 21l68 430l22 20h285z" />
    <glyph glyph-name="Dcroat" unicode="&#x110;" horiz-adv-x="1566" 
d="M784 328q135 0 222 90q86 90 86 249t-85 247t-223 90h-198v-187h280v-307h-280v-182h198zM801 1331q324 0 514 -181t190 -483q0 -303 -189 -485t-515 -182h-621v510h-139v307h139v514h621z" />
    <glyph glyph-name="dcroat" unicode="&#x111;" horiz-adv-x="1368" 
d="M643 313q82 0 133 55.5t51 143.5t-51 143.5t-133 55.5t-133 -55.5t-51 -143.5t51 -143.5t133 -55.5zM1346 1118h-142v-727q0 -66 47 -65q16 0 27 10l25 -14l43 -267l-15 -28q-88 -51 -196 -52q-158 0 -236 123q-135 -123 -347 -123t-357.5 155t-145.5 383t145.5 382
t364.5 154q127 0 244 -64v133h-283v191h283v102l371 45l30 -18v-129h142v-191z" />
    <glyph glyph-name="Emacron" unicode="&#x112;" horiz-adv-x="1232" 
d="M1149 1004h-614v-185h462v-307h-462v-184h614v-328h-1020v1331h1020v-327zM254 1716h766v-248h-766v248z" />
    <glyph glyph-name="emacron" unicode="&#x113;" horiz-adv-x="1216" 
d="M610 780q-78 0 -127 -49t-51 -129h356q-2 80 -51 129t-127 49zM672 258q150 0 246 92h28l168 -166v-28q-162 -180 -467 -181q-252 0 -425 140.5t-173 386.5t155.5 396.5t407.5 150.5t405.5 -148.5t153.5 -390.5q0 -51 -8 -92h-729q12 -80 78 -120t160 -40zM983 1382v-225
h-737v225h737z" />
    <glyph glyph-name="Edotaccent" unicode="&#x116;" horiz-adv-x="1232" 
d="M1149 1004h-614v-185h462v-307h-462v-184h614v-328h-1020v1331h1020v-327zM634 1446q-93 0 -162 68.5t-69 163t69 164t163 69.5t163.5 -68.5t69.5 -164t-70.5 -164t-163.5 -68.5z" />
    <glyph glyph-name="edotaccent" unicode="&#x117;" horiz-adv-x="1216" 
d="M610 780q-78 0 -127 -49t-51 -129h356q-2 80 -51 129t-127 49zM672 258q150 0 246 92h28l168 -166v-28q-162 -180 -467 -181q-252 0 -425 140.5t-173 386.5t155.5 396.5t407.5 150.5t405.5 -148.5t153.5 -390.5q0 -51 -8 -92h-729q12 -80 78 -120t160 -40zM614.5 1135
q-96.5 0 -165 68.5t-68.5 164.5t68.5 165t165 69t165 -69t68.5 -165t-68.5 -164.5t-165 -68.5z" />
    <glyph glyph-name="Eogonek" unicode="&#x118;" horiz-adv-x="1232" 
d="M939.5 -539q-150.5 0 -246 75t-95.5 179t62.5 163t108.5 88.5t52 33.5h-692v1331h1020v-327h-614v-185h462v-307h-462v-184h614v-328q-17 -12 -77 -45q-79 -44 -137 -90t-58 -96t27.5 -75.5t72.5 -25.5t84 39h29l88 -129v-29q-88 -88 -238.5 -88z" />
    <glyph glyph-name="eogonek" unicode="&#x119;" horiz-adv-x="1216" 
d="M610 780q-78 0 -127 -49t-51 -129h356q-2 80 -51 129t-127 49zM672 258q150 0 246 92h28l168 -166v-28q-80 -88 -203 -136q-17 -12 -77 -44q-74 -41 -134.5 -89t-60.5 -97.5t27.5 -75t72.5 -25.5t84 39h29l88 -129v-29q-88 -88 -238.5 -88t-246 74.5t-95.5 189.5
q0 78 44.5 132t123.5 106q-211 33 -345 169t-134 365.5t155.5 380t407.5 150.5t405.5 -148.5t153.5 -390.5q0 -51 -8 -92h-729q12 -80 78 -120t160 -40z" />
    <glyph glyph-name="Ecaron" unicode="&#x11a;" horiz-adv-x="1232" 
d="M1149 1004h-614v-185h462v-307h-462v-184h614v-328h-1020v1331h1020v-327zM653 1450h-30l-404 236v28l88 150h29l303 -142l301 142h29l88 -150v-28z" />
    <glyph glyph-name="ecaron" unicode="&#x11b;" horiz-adv-x="1216" 
d="M610 780q-78 0 -127 -49t-51 -129h356q-2 80 -51 129t-127 49zM672 258q150 0 246 92h28l168 -166v-28q-162 -180 -467 -181q-252 0 -425 140.5t-173 386.5t155.5 396.5t407.5 150.5t405.5 -148.5t153.5 -390.5q0 -51 -8 -92h-729q12 -80 78 -120t160 -40zM631 1135h-33
l-391 217v20l133 160h20l254 -117l254 117h21l133 -160v-20z" />
    <glyph glyph-name="Gbreve" unicode="&#x11e;" horiz-adv-x="1548" 
d="M1507 651q0 -287 -199.5 -481.5t-511.5 -194.5t-525.5 198t-213.5 493t212 492.5t524 197.5q354 0 567 -256v-29l-246 -209h-29q-119 129 -273 129t-247.5 -93t-93.5 -234.5t94 -232.5t242 -91q98 0 175 42t112 124h-295v287h674l28 -25q6 -49 6 -117zM803 1450
q-160 0 -270.5 106.5t-129.5 268.5h234q12 -74 57 -120t108.5 -46t108.5 46t58 120h233q-18 -162 -128.5 -268.5t-270.5 -106.5z" />
    <glyph glyph-name="gbreve" unicode="&#x11f;" horiz-adv-x="1349" 
d="M627 371q82 0 133 55t51 143t-51 143.5t-133 55.5t-133.5 -55.5t-51.5 -143.5t51.5 -143t133.5 -55zM1233 698q-45 0 -45 -65v-424q0 -256 -171 -392t-448 -136q-326 0 -506 180v26l158 205h29q53 -55 143 -92t183 -37t164 42t71 124v25q-123 -63 -268 -64
q-215 0 -359.5 136t-144.5 343t144.5 343.5t349.5 136.5t356 -113q78 113 235 113q103 -1 191 -52l14 -28l-43 -267l-24 -14q-10 10 -29 10zM626.5 1135q-159.5 0 -270 106.5t-129.5 267.5h234q12 -74 57 -120t108.5 -46t108.5 46.5t58 119.5h233q-18 -162 -129 -268
t-270.5 -106z" />
    <glyph glyph-name="Gdotaccent" unicode="&#x120;" horiz-adv-x="1548" 
d="M1507 651q0 -287 -199.5 -481.5t-511.5 -194.5t-525.5 198t-213.5 493t212 492.5t524 197.5q354 0 567 -256v-29l-246 -209h-29q-119 129 -273 129t-247.5 -93t-93.5 -234.5t94 -232.5t242 -91q98 0 175 42t112 124h-295v287h674l28 -25q6 -49 6 -117zM796 1450
q-93 0 -162 68.5t-69 163t68.5 164t164 69.5t164 -68.5t68.5 -164t-70.5 -164t-163.5 -68.5z" />
    <glyph glyph-name="gdotaccent" unicode="&#x121;" horiz-adv-x="1349" 
d="M627 371q82 0 133 55t51 143t-51 143.5t-133 55.5t-133.5 -55.5t-51.5 -143.5t51.5 -143t133.5 -55zM1233 698q-45 0 -45 -65v-424q0 -256 -171 -392t-448 -136q-326 0 -506 180v26l158 205h29q53 -55 143 -92t183 -37t164 42t71 124v25q-123 -63 -268 -64
q-215 0 -359.5 136t-144.5 343t144.5 343.5t349.5 136.5t356 -113q78 113 235 113q103 -1 191 -52l14 -28l-43 -267l-24 -14q-10 10 -29 10zM626.5 1135q-96.5 0 -165 68.5t-68.5 164.5t68.5 165t165 69t165 -69t68.5 -165t-68.5 -164.5t-165 -68.5z" />
    <glyph glyph-name="Gcommaaccent" unicode="&#x122;" horiz-adv-x="1548" 
d="M655 -104h285l18 -21l-137 -373l-24 -20h-205l-19 20l60 373zM1507 651q0 -287 -199.5 -481.5t-511.5 -194.5t-525.5 198t-213.5 493t212 492.5t524 197.5q354 0 567 -256v-29l-246 -209h-29q-119 129 -273 129t-247.5 -93t-93.5 -234.5t94 -232.5t242 -91q98 0 175 42
t112 124h-295v287h674l28 -25q6 -49 6 -117z" />
    <glyph glyph-name="gcommaaccent" unicode="&#x123;" horiz-adv-x="1349" 
d="M627 371q82 0 133 55t51 143t-51 143.5t-133 55.5t-133.5 -55.5t-51.5 -143.5t51.5 -143t133.5 -55zM1233 698q-45 0 -45 -65v-424q0 -256 -171 -392t-448 -136q-326 0 -506 180v26l158 205h29q53 -55 143 -92t183 -37t164 42t71 124v25q-123 -63 -268 -64
q-215 0 -359.5 136t-144.5 343t144.5 343.5t349.5 136.5t356 -113q78 113 235 113q103 -1 191 -52l14 -28l-43 -267l-24 -14q-10 10 -29 10zM770 1153h-285l-18 21l137 372l25 21h205l18 -21l-59 -372z" />
    <glyph glyph-name="Hbar" unicode="&#x126;" horiz-adv-x="1554" 
d="M1012 827v117h-465v-117h465zM1516 1214v-270h-99v-944h-405v500h-465v-500h-406v944h-106v270h106v117h406v-117h465v117h405v-117h99z" />
    <glyph glyph-name="hbar" unicode="&#x127;" horiz-adv-x="1263" 
d="M731 1049q199 0 321 -124t122 -327v-598h-402v569q0 63 -34 103t-98 39q-64 0 -99 -40t-35 -102v-569h-397v1090h-158v170h158v90l366 45l31 -19v-116h291v-170h-291v-95q100 54 225 54z" />
    <glyph glyph-name="Itilde" unicode="&#x128;" horiz-adv-x="663" 
d="M129 1331h406v-1331h-406v1331zM148 1800q84 0 202 -36q119 -36 144 -35q94 0 127 71h26l98 -180v-29q-68 -129 -251 -129q-51 0 -164 36t-162 36q-98 0 -135 -72h-25l-90 180v29q25 51 85 90q61 39 145 39z" />
    <glyph glyph-name="itilde" unicode="&#x129;" horiz-adv-x="618" 
d="M109 0v1024h401v-1024h-401zM125 1470q55 0 155 -36t152 -35q100 0 137 71h25l143 -172v-28q-106 -121 -243 -121q-56 0 -156 36t-152 36q-100 0 -137 -72h-24l-144 172v29q107 120 244 120z" />
    <glyph glyph-name="Imacron" unicode="&#x12a;" horiz-adv-x="663" 
d="M129 1331h406v-1331h-406v1331zM-12 1716h690v-248h-690v248z" />
    <glyph glyph-name="imacron" unicode="&#x12b;" horiz-adv-x="618" 
d="M109 0v1024h401v-1024h-401zM-59 1382h737v-225h-737v225z" />
    <glyph glyph-name="Iogonek" unicode="&#x12e;" horiz-adv-x="663" 
d="M324 -539q-150 0 -245 75t-95 180t70 171t153 113h-78v1331h406v-1331q-17 -12 -77 -45t-112 -68t-68 -67q-16 -31 -16 -66q0 -34 28 -60t73 -26t83 39h29l88 -129v-29q-89 -88 -239 -88z" />
    <glyph glyph-name="iogonek" unicode="&#x12f;" horiz-adv-x="618" 
d="M300 -539q-150 0 -246 75q-95 75 -95 181t63 163q63 58 108 87q46 29 52 33h-73v1024h401v-1024q-18 -12 -78 -45t-111 -69q-52 -36 -68 -66q-15 -31 -15 -66q0 -34 28 -60t72 -26q45 0 84 39h29l88 -129v-29q-89 -88 -239 -88zM309 1135q-96 1 -165 69t-68 164
q0 96 68 165q69 69 165 69t165 -69t69 -165t-69 -164t-165 -69z" />
    <glyph glyph-name="Idotaccent" unicode="&#x130;" horiz-adv-x="663" 
d="M129 1331h406v-1331h-406v1331zM329 1446q-93 0 -162 68t-69 163q0 94 69 164t164 70t164 -69t69 -164t-71 -164q-71 -68 -164 -68z" />
    <glyph glyph-name="dotlessi" unicode="&#x131;" horiz-adv-x="618" 
d="M109 0v1024h401v-1024h-401z" />
    <glyph glyph-name="IJ" unicode="&#x132;" horiz-adv-x="1781" 
d="M879 1331h790v-721q0 -334 -129 -484t-416 -151q-119 -1 -254 55t-204 152v31l217 223h30q76 -100 181 -100q170 0 170 192v476h-385v327zM129 1331h406v-1331h-406v1331z" />
    <glyph glyph-name="ij" unicode="&#x133;" horiz-adv-x="1267" 
d="M762 1024h401v-678q-1 -230 -27 -329t-67 -147q-89 -104 -262 -177h-31l-151 284v31q96 49 116 114t21 277v625zM109 0v1024h401v-1024h-401zM963 1135q-96 1 -165 69t-69 164t69 165t165 69q97 0 165 -69t68 -165t-68 -164t-165 -69zM309 1135q-96 1 -165 69t-68 164
q0 96 68 165q69 69 165 69t165 -69t69 -165t-69 -164t-165 -69z" />
    <glyph glyph-name="Kcommaaccent" unicode="&#x136;" horiz-adv-x="1443" 
d="M618 -104h285l19 -21l-138 -373l-24 -20h-205l-18 20l59 373zM535 0h-406v1331h406v-481l401 481h438l17 -26l-473 -566l231 -301q80 -102 147 -102q23 0 56 14l24 -14l68 -273l-10 -28q-74 -59 -201 -60q-240 0 -402 220l-215 299l-81 -97v-397z" />
    <glyph glyph-name="kcommaaccent" unicode="&#x137;" 
d="M508 -104h285l18 -21l-137 -373l-25 -20h-205l-18 20l59 373zM1049 -25q-96 0 -174 33t-158 129l-191 232l-16 -21v-348h-401v1350l368 45l33 -27v-670l256 326h414l16 -27l-358 -426l172 -186q53 -59 94 -59t59 18l25 -14l43 -283l-14 -29q-72 -43 -168 -43z" />
    <glyph glyph-name="kgreenlandic" unicode="&#x138;" 
d="M1049 -25q-97 0 -175 33t-157 129l-178 217l-29 -26v-328h-401v1024h401v-326l256 326h414l16 -27l-358 -426l172 -186q53 -59 94 -59t59 18l25 -14l43 -283l-14 -29q-72 -43 -168 -43z" />
    <glyph glyph-name="Lacute" unicode="&#x139;" horiz-adv-x="1064" 
d="M1042 328v-328h-913v1331h406v-1003h507zM522 1913h29l141 -234v-28l-534 -201h-29l-80 143v29z" />
    <glyph glyph-name="lacute" unicode="&#x13a;" horiz-adv-x="665" 
d="M502 391q0 -66 45 -65q18 0 28 10l25 -14l43 -267l-14 -28q-88 -51 -223.5 -51.5t-220.5 91t-85 265.5v1018l371 47l31 -21v-985zM494 1911h28l142 -234v-28l-535 -201h-29l-80 143v29z" />
    <glyph glyph-name="Lcommaaccent" unicode="&#x13b;" horiz-adv-x="1064" 
d="M420 -125l22 21h285l18 -21l-137 -373l-24 -20h-205l-19 20zM1042 328v-328h-913v1331h406v-1003h507z" />
    <glyph glyph-name="lcommaaccent" unicode="&#x13c;" horiz-adv-x="665" 
d="M223 -125l23 21h284l19 -21l-137 -373l-25 -20h-205l-18 20zM502 391q0 -66 45 -65q18 0 28 10l25 -14l43 -267l-14 -28q-88 -51 -223.5 -51.5t-220.5 91t-85 265.5v1018l371 47l31 -21v-985z" />
    <glyph glyph-name="Lcaron" unicode="&#x13d;" horiz-adv-x="1064" 
d="M1042 328v-328h-913v1331h406v-1003h507zM692 1434l23 20h284l19 -20l-158 -430l-24 -21h-193l-18 21z" />
    <glyph glyph-name="lcaron" unicode="&#x13e;" horiz-adv-x="823" 
d="M502 391q0 -66 47 -65q16 0 26 10l25 -14l43 -267l-14 -28q-88 -51 -223.5 -51.5t-220.5 91t-85 265.5v1018l371 47l31 -21v-985zM680 1434l22 20h285l19 -20l-158 -430l-25 -21h-192l-19 21z" />
    <glyph glyph-name="Ldot" unicode="&#x13f;" horiz-adv-x="1122" 
d="M823.5 530q-98.5 0 -168 70t-69.5 168t69.5 168t168 70t168 -70t69.5 -168t-69.5 -168t-168 -70zM1042 328v-328h-913v1331h406v-1003h507z" />
    <glyph glyph-name="ldot" unicode="&#x140;" horiz-adv-x="937" 
d="M772 1065q98 0 168 -69.5t70 -168t-70 -168t-168 -69.5t-167.5 69.5t-69.5 168t69.5 168t167.5 69.5zM502 391q0 -66 47 -65q16 0 26 10l25 -14l43 -267l-14 -28q-88 -51 -223.5 -51.5t-220.5 91t-85 265.5v1018l371 47l31 -21v-985z" />
    <glyph glyph-name="Lslash" unicode="&#x141;" horiz-adv-x="1200" 
d="M670 328h508v-328h-914v383l-162 -72l-30 17v323l192 86v594h406v-411l262 116l33 -16v-324l-295 -131v-237z" />
    <glyph glyph-name="lslash" unicode="&#x142;" horiz-adv-x="835" 
d="M616 391q0 -66 48 -65q16 0 26 10l25 -14l43 -267l-15 -28q-88 -51 -202 -52q-156 0 -241 91.5t-85 265.5v127l-137 -72h-29v279l166 88v596l371 47l30 -21v-411l138 71h28v-278l-166 -88v-279z" />
    <glyph glyph-name="Nacute" unicode="&#x143;" horiz-adv-x="1490" 
d="M956 1331h406v-1331h-303l-524 670v-670h-406v1331h303l524 -669v669zM532 1450h-28l-80 143v29l473 291h29l141 -234v-28z" />
    <glyph glyph-name="nacute" unicode="&#x144;" horiz-adv-x="1323" 
d="M797.5 1049q190.5 0 313 -123t122.5 -328v-598h-402v569q0 63 -33.5 102.5t-98 39.5t-99.5 -40t-35 -102v-569h-401v633q0 66 -45 65q-18 0 -29 -10l-24 14l-43 267l14 28q88 51 196 52q154 0 230 -109q144 109 334.5 109zM504 1135h-21l-114 135v20l411 363h21l178 -215
v-21z" />
    <glyph glyph-name="Ncommaaccent" unicode="&#x145;" horiz-adv-x="1490" 
d="M602 -104h285l18 -21l-137 -373l-25 -20h-204l-19 20l60 373zM956 1331h406v-1331h-303l-524 670v-670h-406v1331h303l524 -669v669z" />
    <glyph glyph-name="ncommaaccent" unicode="&#x146;" horiz-adv-x="1323" 
d="M547 -104h284l19 -21l-137 -373l-25 -20h-205l-18 20l59 373zM797.5 1049q190.5 0 313 -123t122.5 -328v-598h-402v569q0 63 -33.5 102.5t-98 39.5t-99.5 -40t-35 -102v-569h-401v633q0 66 -45 65q-18 0 -29 -10l-24 14l-43 267l14 28q88 51 196 52q154 0 230 -109
q144 109 334.5 109z" />
    <glyph glyph-name="Ncaron" unicode="&#x147;" horiz-adv-x="1490" 
d="M956 1331h406v-1331h-303l-524 670v-670h-406v1331h303l524 -669v669zM762 1450h-31l-403 236v28l88 150h28l304 -142l301 142h28l88 -150v-28z" />
    <glyph glyph-name="ncaron" unicode="&#x148;" horiz-adv-x="1323" 
d="M797.5 1049q190.5 0 313 -123t122.5 -328v-598h-402v569q0 63 -33.5 102.5t-98 39.5t-99.5 -40t-35 -102v-569h-401v633q0 66 -45 65q-18 0 -29 -10l-24 14l-43 267l14 28q88 51 196 52q154 0 230 -109q144 109 334.5 109zM690 1135h-33l-391 217v20l133 160h21l254 -117
l254 117h20l133 -160v-20z" />
    <glyph glyph-name="napostrophe" unicode="&#x149;" horiz-adv-x="1323" 
d="M797.5 1049q190.5 0 313 -123t122.5 -328v-598h-402v569q0 63 -33.5 102.5t-98 39.5t-99.5 -40t-35 -102v-569h-401v633q0 66 -45 65q-18 0 -29 -10l-24 14l-43 267l14 28q88 51 196 52q154 0 230 -109q144 109 334.5 109zM63 1155l-24 -20h-201l-18 20l61 430l23 21h284
l19 -21z" />
    <glyph glyph-name="Eng" unicode="&#x14a;" horiz-adv-x="1490" 
d="M956 1331h406v-1358q0 -215 -148 -353t-360 -138q-106 0 -219 38t-178 128v30l217 213h31q45 -82 141 -81q72 0 114 48t41 117v99l-466 606v-680h-406v1331h303l524 -669v669z" />
    <glyph glyph-name="eng" unicode="&#x14b;" horiz-adv-x="1316" 
d="M798 1049q190 0 312 -123t123 -328v-250q0 -294 -96 -446t-346 -250h-17l-102 295l2 18q94 45 126 79t31 106v419q0 63 -33 103q-34 39 -98 39t-100 -40q-35 -40 -35 -102v-569h-401v633q0 66 -45 65q-18 0 -29 -10l-24 14l-43 267l14 28q88 51 196 52q154 0 230 -109
q145 109 335 109z" />
    <glyph glyph-name="Omacron" unicode="&#x14c;" horiz-adv-x="1601" 
d="M801 340q139 0 234 92t95 234t-95 233q-95 92 -234 92t-235 -92t-95 -233q0 -141 95 -234q96 -92 235 -92zM801 -25q-317 0 -531 197q-213 197 -213 494q0 298 213 494q212 196 530 196t531 -197t213 -493t-213 -493q-213 -198 -530 -198zM418 1716h766v-248h-766v248z
" />
    <glyph glyph-name="omacron" unicode="&#x14d;" horiz-adv-x="1282" 
d="M641 313q82 0 133 55.5t51 143.5t-51 143.5t-133 55.5t-133 -55.5t-51 -143.5t51 -143.5t133 -55.5zM641 1049q264 0 428 -150.5t164 -386.5t-164 -386.5t-428 -150.5t-428 150.5t-164 386.5t164 386.5t428 150.5zM272 1382h738v-225h-738v225z" />
    <glyph glyph-name="Ohungarumlaut" unicode="&#x150;" horiz-adv-x="1601" 
d="M801 340q139 0 234 92t95 234t-95 233q-95 92 -234 92t-235 -92t-95 -233q0 -141 95 -234q96 -92 235 -92zM801 -25q-317 0 -531 197q-213 197 -213 494q0 298 213 494q212 196 530 196t531 -197t213 -493t-213 -493q-213 -198 -530 -198zM1061 1831h287l18 -21
l-299 -360h-205l-14 27zM651 1831h287l18 -21l-299 -360h-204l-15 27z" />
    <glyph glyph-name="ohungarumlaut" unicode="&#x151;" horiz-adv-x="1282" 
d="M641 313q82 0 133 55.5t51 143.5t-51 143.5t-133 55.5t-133 -55.5t-51 -143.5t51 -143.5t133 -55.5zM641 1049q264 0 428 -150.5t164 -386.5t-164 -386.5t-428 -150.5t-428 150.5t-164 386.5t164 386.5t428 150.5zM860 1524l27 20h260l18 -20l-215 -369l-26 -20h-179
l-18 20zM457 1524l26 20h260l19 -20l-215 -369l-27 -20h-178l-18 20z" />
    <glyph glyph-name="OE" unicode="&#x152;" horiz-adv-x="2234" 
d="M801 340q139 0 234 92t95 233.5t-95 233.5t-234 92t-234.5 -92t-95.5 -233.5t95.5 -233.5t234.5 -92zM2150 1006h-614v-187h463v-307h-463v-186h614v-326h-1020v41q-158 -66 -329 -66q-317 0 -530.5 197t-213.5 494t213 493.5t531 196.5q172 0 329 -66v41h1020v-325z" />
    <glyph glyph-name="oe" unicode="&#x153;" horiz-adv-x="2011" 
d="M641 313q82 0 133 55.5t51 143.5t-51 143.5t-133 55.5t-133 -55.5t-51 -143.5t51 -143.5t133 -55.5zM1405 780q-78 0 -127 -49t-51 -129h356q-2 80 -51 129t-127 49zM1466 258q150 0 246 92h29l168 -166v-28q-162 -180 -467 -181q-242 0 -404 123q-162 -123 -411.5 -123
t-413.5 150.5t-164 386.5t164 386.5t411.5 150.5t407.5 -121q150 121 388.5 121t392 -148.5t153.5 -390.5q0 -51 -8 -92h-729q12 -80 77.5 -120t159.5 -40z" />
    <glyph glyph-name="Racute" unicode="&#x154;" horiz-adv-x="1413" 
d="M535 733h208q61 0 101.5 34t40.5 98.5t-41 101.5t-101 37h-208v-271zM567 467h-32v-467h-406v1331h631q258 0 398 -118.5t140 -325.5q0 -127 -65.5 -220.5t-179.5 -144.5q27 -27 69.5 -95.5t73.5 -82.5q14 -8 31.5 -8t50.5 14l25 -14l67 -273l-10 -28q-74 -59 -208 -59.5
t-216 52.5t-171 219q-89 165 -147 203q-26 18 -51 17zM436 1450h-28l-80 143v29l473 291h28l142 -234v-28z" />
    <glyph glyph-name="racute" unicode="&#x155;" horiz-adv-x="980" 
d="M736 711q-71 0 -121 -46.5t-50 -132.5v-532h-401v633q0 66 -47 65q-16 0 -27 -10l-24 14l-43 267l14 28q88 51 196 52q145 0 220 -125q131 125 307 125q113 -1 213 -52l14 -28l-74 -281l-24 -14q-82 37 -153 37zM283 1135h-21l-115 135v20l412 363h21l178 -215v-21z" />
    <glyph glyph-name="Rcommaaccent" unicode="&#x156;" horiz-adv-x="1413" 
d="M571 -104h285l18 -21l-137 -373l-24 -20h-205l-19 20l60 373zM535 733h208q61 0 101.5 34t40.5 98.5t-41 101.5t-101 37h-208v-271zM567 467h-32v-467h-406v1331h631q258 0 398 -118.5t140 -325.5q0 -127 -65.5 -220.5t-179.5 -144.5q27 -27 69.5 -95.5t73.5 -82.5
q14 -8 31.5 -8t50.5 14l25 -14l67 -273l-10 -28q-74 -59 -208 -59.5t-216 52.5t-171 219q-89 165 -147 203q-26 18 -51 17z" />
    <glyph glyph-name="rcommaaccent" unicode="&#x157;" horiz-adv-x="980" 
d="M221 -104h285l18 -21l-137 -373l-25 -20h-204l-19 20l60 373zM736 711q-71 0 -121 -46.5t-50 -132.5v-532h-401v633q0 66 -47 65q-16 0 -27 -10l-24 14l-43 267l14 28q88 51 196 52q145 0 220 -125q131 125 307 125q113 -1 213 -52l14 -28l-74 -281l-24 -14
q-82 37 -153 37z" />
    <glyph glyph-name="Rcaron" unicode="&#x158;" horiz-adv-x="1413" 
d="M535 733h208q61 0 101.5 34t40.5 98.5t-41 101.5t-101 37h-208v-271zM567 467h-32v-467h-406v1331h631q258 0 398 -118.5t140 -325.5q0 -127 -65.5 -220.5t-179.5 -144.5q27 -27 69.5 -95.5t73.5 -82.5q14 -8 31.5 -8t50.5 14l25 -14l67 -273l-10 -28q-74 -59 -208 -59.5
t-216 52.5t-171 219q-89 165 -147 203q-26 18 -51 17zM666 1450h-31l-404 236v28l88 150h29l303 -142l301 142h29l88 -150v-28z" />
    <glyph glyph-name="rcaron" unicode="&#x159;" horiz-adv-x="980" 
d="M736 711q-71 0 -121 -46.5t-50 -132.5v-532h-401v633q0 66 -47 65q-16 0 -27 -10l-24 14l-43 267l14 28q88 51 196 52q145 0 220 -125q131 125 307 125q113 -1 213 -52l14 -28l-74 -281l-24 -14q-82 37 -153 37zM469 1135h-33l-391 217v20l133 160h21l254 -117l254 117
h20l133 -160v-20z" />
    <glyph glyph-name="Sacute" unicode="&#x15a;" horiz-adv-x="1214" 
d="M581.5 313q75.5 0 114.5 22.5t39 59.5q-1 50 -99 82q-18 6 -36.5 13t-78.5 25t-110.5 37t-116.5 56q-200 113 -200 324t152.5 317.5t382.5 106.5q326 0 495 -197v-41l-176 -205h-33q-129 125 -265 125t-136 -75q0 -31 27.5 -55.5t56.5 -37t88 -33t92 -31.5t91.5 -36
t90.5 -45q98 -62 143.5 -140.5t45.5 -189.5q0 -207 -153.5 -313.5t-393.5 -106.5q-359 1 -549 226v37l176 217h31q55 -57 150.5 -99.5t171 -42.5zM762 1913h29l141 -234v-28l-535 -201h-28l-80 143v29z" />
    <glyph glyph-name="sacute" unicode="&#x15b;" horiz-adv-x="1087" 
d="M547 1049q319 0 473 -177v-28l-164 -148h-29q-111 94 -252 95q-104 0 -104 -52q0 -20 25.5 -33.5t79.5 -33t98.5 -33.5t70 -23.5t68.5 -28t69 -34.5q80 -50 116 -106t36 -140q0 -152 -132 -242t-324 -90q-367 0 -541 201v29l168 155h28q57 -51 138.5 -89t156.5 -38
q104 0 105 66q0 16 -10 33q-16 20 -69.5 36.5t-105 32t-80 25.5t-102 43t-102.5 62.5t-57.5 82t-28.5 113.5q0 147 128 234.5t341 87.5zM657 1653h21l178 -215v-21l-475 -282h-21l-114 135v20z" />
    <glyph glyph-name="Scedilla" unicode="&#x15e;" horiz-adv-x="1214" 
d="M1149 395q0 -184 -124 -289.5t-327 -125.5l-30 -64l2 -2q29 8 55 8q82 0 132 -56t50 -156.5t-84 -170t-221 -69.5q-201 0 -321 102v29l86 112h28q76 -59 164 -59q35 0 61.5 17.5t26.5 45.5q0 53 -76 58q-47 0 -82 -17l-79 49l84 175q-281 31 -441 219v37l176 217h31
q55 -57 150.5 -99.5t171 -42.5t114.5 22.5t39 59.5q-1 50 -99 82q-18 6 -36.5 13t-78.5 25t-110.5 37t-116.5 56q-200 113 -200 324t152.5 317.5t382.5 106.5q326 0 495 -197v-41l-176 -205h-33q-129 125 -265 125t-136 -75q0 -31 27.5 -55.5t56.5 -37t88 -33t92 -31.5
t91.5 -36t90.5 -45q98 -62 143.5 -140.5t45.5 -189.5z" />
    <glyph glyph-name="scedilla" unicode="&#x15f;" horiz-adv-x="1087" 
d="M1034 307q0 -137 -108.5 -224t-290.5 -103l-31 -64l2 -2q29 8 56 8q82 0 132 -56t50 -156.5t-84 -170t-221 -69.5q-201 0 -322 102v29l86 112h29q76 -59 164 -59q35 0 61.5 17.5t26.5 45.5q0 53 -76 58q-47 0 -82 -17l-80 49l84 177q-258 37 -393 192v29l168 155h28
q57 -51 138.5 -89t156.5 -38q104 0 105 66q0 31 -25.5 46t-58.5 25.5t-36 11.5t-7 1q-219 66 -299 119q-129 84 -129 228t128 231.5t341 87.5q319 0 473 -177v-28l-164 -148h-29q-111 94 -252 95q-104 0 -104 -52q0 -20 25.5 -33.5t79.5 -33t98.5 -33.5t70 -23.5t68.5 -28
t69 -34.5q80 -50 116 -106t36 -140z" />
    <glyph glyph-name="Scaron" unicode="&#x160;" horiz-adv-x="1214" 
d="M1149 395q0 -207 -153.5 -313.5t-393.5 -106.5q-358 0 -549 226v37l176 217h31q55 -57 150.5 -99.5t171 -42.5t114.5 22.5t39 59.5q-1 50 -99 82q-18 6 -36.5 13t-78.5 25t-110.5 37t-116.5 56q-200 113 -200 324t152.5 317.5t382.5 106.5q326 0 495 -197v-41l-176 -205
h-33q-129 125 -265 125t-136 -75q0 -31 27.5 -55.5t56.5 -37t88 -33t92 -31.5t91.5 -36t90.5 -45q98 -62 143.5 -140.5t45.5 -189.5zM627 1450h-31l-403 236v28l88 150h28l303 -142l301 142h29l88 -150v-28z" />
    <glyph glyph-name="scaron" unicode="&#x161;" horiz-adv-x="1087" 
d="M1034 307q0 -152 -132 -242t-324 -90q-367 0 -541 201v29l168 155h28q57 -51 138.5 -89t156.5 -38q104 0 105 66q0 31 -25.5 46t-58.5 25.5t-36 11.5t-7 1q-219 66 -299 119q-129 84 -129 228t128 231.5t341 87.5q319 0 473 -177v-28l-164 -148h-29q-111 94 -252 95
q-104 0 -104 -52q0 -20 25.5 -33.5t79.5 -33t98.5 -33.5t70 -23.5t68.5 -28t69 -34.5q80 -50 116 -106t36 -140zM567 1135h-32l-392 217v20l133 160h21l254 -117l254 117h20l133 -160v-20z" />
    <glyph glyph-name="uni0162" unicode="&#x162;" horiz-adv-x="1257" 
d="M831 0h-100l-41 -84l2 -2q29 8 56 8q82 0 132 -56t50 -156t-84 -170t-221 -70q-201 0 -322 102v29l86 112h29q76 -59 164 -59q35 0 61.5 17.5t26.5 45.5q0 53 -76 58q-47 0 -82 -17l-80 49l92 193h-98v1004h-406v327h1217v-327h-406v-1004z" />
    <glyph glyph-name="uni0163" unicode="&#x163;" horiz-adv-x="948" 
d="M686 -78q82 0 132 -56t50 -156.5t-84 -170t-221 -69.5q-201 0 -321 102v29l86 112h28q76 -59 164 -59q35 0 61.5 17.5t26.5 45.5q0 53 -76 58q-47 0 -81 -17l-80 49l92 195q-117 41 -188.5 141.5t-71.5 255.5v338h-180v287h180v287l366 45l31 -19v-313h291v-287h-291
v-288q0 -68 28.5 -102t74 -34t90.5 33l24 -14l107 -240l-11 -29q-106 -78 -256 -88l-28 -59l2 -2q29 8 55 8z" />
    <glyph glyph-name="Tcaron" unicode="&#x164;" horiz-adv-x="1257" 
d="M20 1331h1217v-327h-406v-1004h-405v1004h-406v327zM645 1450h-31l-403 236v28l88 150h29l303 -142l301 142h29l88 -150v-28z" />
    <glyph glyph-name="tcaron" unicode="&#x165;" horiz-adv-x="948" 
d="M623.5 -25q-170.5 0 -295.5 107.5t-125 316.5v338h-180v287h180v287l366 45l31 -19v-313h291v-287h-291v-288q0 -68 28.5 -102t74 -34t90.5 33l24 -14l107 -240l-11 -29q-119 -88 -289.5 -88zM895 1135h-193l-18 20l68 430l22 21h285l18 -21l-157 -430z" />
    <glyph glyph-name="Tbar" unicode="&#x166;" horiz-adv-x="1257" 
d="M1237 1004h-406v-209h254v-242h-254v-553h-405v553h-256v242h256v209h-406v327h1217v-327z" />
    <glyph glyph-name="tbar" unicode="&#x167;" horiz-adv-x="948" 
d="M623.5 -25q-170.5 0 -295.5 107.5t-125 316.5v43h-178v183h178v112h-180v287h180v287l366 45l31 -19v-313h291v-287h-291v-112h199v-183h-199q2 -63 30.5 -96t72.5 -33t90 33l24 -14l107 -240l-11 -29q-119 -88 -289.5 -88z" />
    <glyph glyph-name="Utilde" unicode="&#x168;" horiz-adv-x="1470" 
d="M109 1331h405v-749q0 -117 60 -182q60 -64 162 -64t164 64q60 65 61 182v749h399v-725q0 -297 -167 -464t-457 -167t-458 167t-169 464v725zM555 1800q70 0 202 -36t161 -35q102 0 141 71h28l109 -180v-29q-72 -129 -278 -129q-58 0 -184 36t-179 36q-111 0 -149 -72h-29
l-101 180v29q72 129 279 129z" />
    <glyph glyph-name="utilde" unicode="&#x169;" horiz-adv-x="1306" 
d="M90 426v598h402v-573q0 -61 32 -100q33 -38 92 -38t93 38q33 38 32 100v573h402v-633q0 -66 47 -65q16 0 27 10l24 -14l43 -267l-14 -28q-88 -51 -197 -52q-145 0 -225 107q-137 -106 -291 -107q-223 0 -345 122t-122 329zM733 1399q102 0 137 71h25l143 -172v-28
q-106 -121 -243 -121q-55 0 -155 36t-153 36q-102 0 -137 -72h-24l-144 172v29q106 121 244 120q56 0 156 -36t151 -35z" />
    <glyph glyph-name="Umacron" unicode="&#x16a;" horiz-adv-x="1470" 
d="M109 1331h405v-749q0 -117 60 -182q60 -64 162 -64t164 64q60 65 61 182v749h399v-725q0 -297 -167 -464t-457 -167t-458 167t-169 464v725zM354 1716h766v-248h-766v248z" />
    <glyph glyph-name="umacron" unicode="&#x16b;" horiz-adv-x="1306" 
d="M90 426v598h402v-573q0 -61 32 -100q33 -38 92 -38t93 38q33 38 32 100v573h402v-633q0 -66 47 -65q16 0 27 10l24 -14l43 -267l-14 -28q-88 -51 -197 -52q-145 0 -225 107q-137 -106 -291 -107q-223 0 -345 122t-122 329zM979 1382v-225h-737v225h737z" />
    <glyph glyph-name="Uring" unicode="&#x16e;" horiz-adv-x="1470" 
d="M109 1331h405v-749q0 -117 60 -182q60 -64 162 -64t164 64q60 65 61 182v749h399v-725q0 -297 -167 -464t-457 -167t-458 167t-169 464v725zM739 1640q31 0 54 23t23 55t-23 56q-23 22 -54 22t-53 -22t-22 -56t22 -56t53 -22zM739 1442q-115 0 -197 81t-83 195
q0 114 83 196q84 81 198 81t197 -81t83 -196q0 -116 -83 -196t-198 -80z" />
    <glyph glyph-name="uring" unicode="&#x16f;" horiz-adv-x="1306" 
d="M90 426v598h402v-573q0 -61 32 -100q33 -38 92 -38t93 38q33 38 32 100v573h402v-633q0 -66 47 -65q16 0 27 10l24 -14l43 -267l-14 -28q-88 -51 -197 -52q-145 0 -225 107q-137 -106 -291 -107q-223 0 -345 122t-122 329zM610 1470q-32 0 -54 -22t-22 -54q0 -30 22 -53
t54 -23t55 24q22 22 21 53q0 31 -21 53q-22 22 -55 22zM609 1116q-119 0 -203 82t-84 197t84 197t204 81q120 0 205 -82q84 -83 84 -197t-85 -196t-205 -82z" />
    <glyph glyph-name="Uhungarumlaut" unicode="&#x170;" horiz-adv-x="1470" 
d="M109 1331h405v-749q0 -117 60 -182q60 -64 162 -64t164 64q60 65 61 182v749h399v-725q0 -297 -167 -464t-457 -167t-458 167t-169 464v725zM997 1831h287l19 -21l-299 -360h-205l-15 27zM588 1831h286l19 -21l-299 -360h-205l-14 27z" />
    <glyph glyph-name="uhungarumlaut" unicode="&#x171;" horiz-adv-x="1306" 
d="M90 426v598h402v-573q0 -61 32 -100q33 -38 92 -38t93 38q33 38 32 100v573h402v-633q0 -66 47 -65q16 0 27 10l24 -14l43 -267l-14 -28q-88 -51 -197 -52q-145 0 -225 107q-137 -106 -291 -107q-223 0 -345 122t-122 329zM715 1135l-19 20l133 369l27 20h260l19 -20
l-215 -369l-27 -20h-178zM489 1135h-178l-18 20l133 369l27 20h260l18 -20l-215 -369z" />
    <glyph glyph-name="Uogonek" unicode="&#x172;" horiz-adv-x="1470" 
d="M961 1331h399v-725q0 -199 -77 -341t-218 -216q-10 -6 -40 -22q-30 -15 -40 -23t-35 -22t-35 -22t-27 -23q-55 -45 -59 -107q0 -41 28 -67q28 -25 73 -25t84 39h28l88 -129v-29q-88 -88 -238 -88t-246 75q-95 75 -95 182t94 192q-250 26 -393 190t-143 436v725h405v-749
q0 -117 60 -182q60 -64 162 -64t164 64q60 65 61 182v749z" />
    <glyph glyph-name="uogonek" unicode="&#x173;" horiz-adv-x="1306" 
d="M1060 -512q-150 0 -246 75q-95 75 -95 189q0 60 35 114t68 80q34 26 100 68q-43 25 -74 68q-137 -106 -291 -107q-223 0 -345 122t-122 329v598h402v-573q0 -61 32 -100q33 -38 92 -38t93 38q33 38 32 100v573h402v-633q0 -66 47 -65q16 0 27 10l24 -14l43 -267l-14 -28
q-18 -12 -78 -45t-112 -70q-53 -37 -67 -67q-15 -31 -15 -65t27 -60q28 -26 73 -26t84 40h28l88 -129v-29q-88 -88 -238 -88z" />
    <glyph glyph-name="Wcircumflex" unicode="&#x174;" horiz-adv-x="2148" 
d="M2132 1331l16 -26l-518 -1305h-307l-219 674l-217 -674h-307l-342 860q-43 109 -72 125q-31 14 -76 -4l-24 14l-68 273l10 28q74 59 205 60q246 0 344 -264l197 -527l235 766h230l235 -770l287 770h391zM803 1450h-29l-88 149v29l404 236h30l404 -236v-29l-88 -149h-29
l-301 141z" />
    <glyph glyph-name="wcircumflex" unicode="&#x175;" horiz-adv-x="1767" 
d="M123 698q-37 0 -55 -18l-25 14l-47 283l14 29q70 43 172 43q150 1 246 -99t139 -266l58 -223l180 563h225l182 -567l164 567h367l16 -27l-352 -997h-330l-159 492l-160 -492h-330l-207 608q-31 90 -98 90zM664 1135h-21l-133 159v21l391 217h33l391 -217v-21l-133 -159
h-21l-253 116z" />
    <glyph glyph-name="Ycircumflex" unicode="&#x176;" horiz-adv-x="1443" 
d="M965 0h-406v477l-258 420q-61 98 -137 98q-37 0 -66 -14l-24 14l-68 273l10 28q70 60 200 60t220 -62t168 -194l160 -273l283 504h391l16 -26l-489 -822v-483zM461 1450h-29l-88 149v29l404 236h30l404 -236v-29l-88 -149h-29l-301 141z" />
    <glyph glyph-name="ycircumflex" unicode="&#x177;" horiz-adv-x="1271" 
d="M399 -307q-117 0 -204 47l-15 29l70 239l22 15q45 -23 84 -23q98 0 129 59l17 33l-254 516q-43 90 -105 90q-39 0 -57 -18l-25 14l-47 283l15 29q70 43 176 43q147 0 233 -88t172 -287l84 -193l230 543h340l16 -27l-461 -1017q-129 -287 -420 -287zM369 1135h-21
l-133 159v21l391 217h33l391 -217v-21l-133 -159h-20l-254 116z" />
    <glyph glyph-name="Ydieresis" unicode="&#x178;" horiz-adv-x="1443" 
d="M965 0h-406v477l-258 420q-61 98 -137 98q-37 0 -66 -14l-24 14l-68 273l10 28q70 60 200 60t220 -62t168 -194l160 -273l283 504h391l16 -26l-489 -822v-483zM1030 1450q-96 0 -164 68t-68 164t68 163q68 68 164 68t164 -68t68 -164q0 -95 -68 -163t-164 -68zM492 1450
q-94 0 -163 68t-69 164t69 163q69 68 163 68t162 -68t69 -164q-1 -95 -69 -163t-162 -68z" />
    <glyph glyph-name="Zacute" unicode="&#x179;" horiz-adv-x="1288" 
d="M1227 322v-322h-1155v303l630 707h-610v321h1106v-305l-620 -704h649zM797 1913h28l142 -234v-28l-535 -201h-29l-79 143v29z" />
    <glyph glyph-name="zacute" unicode="&#x17a;" horiz-adv-x="1075" 
d="M1026 287v-287h-958v285l462 452h-442v287h897v-287l-432 -450h473zM651 1653h21l178 -215v-21l-475 -282h-21l-114 135v20z" />
    <glyph glyph-name="Zdotaccent" unicode="&#x17b;" horiz-adv-x="1288" 
d="M1227 322v-322h-1155v303l630 707h-610v321h1106v-305l-620 -704h649zM877 1678q0 -96 -71 -164t-164 -68t-162 68t-68 163q0 94 68 164q69 70 163 70t164 -69t70 -164z" />
    <glyph glyph-name="zdotaccent" unicode="&#x17c;" horiz-adv-x="1075" 
d="M1026 287v-287h-958v285l462 452h-442v287h897v-287l-432 -450h473zM545 1135q-96 1 -165 69t-69 164t69 165t165 69t165 -69q68 -69 68 -165t-68 -165q-69 -68 -165 -68z" />
    <glyph glyph-name="Zcaron" unicode="&#x17d;" horiz-adv-x="1288" 
d="M1227 322v-322h-1155v303l630 707h-610v321h1106v-305l-620 -704h649zM662 1450h-31l-404 236v28l88 150h29l303 -142l301 142h29l88 -150v-28z" />
    <glyph glyph-name="zcaron" unicode="&#x17e;" horiz-adv-x="1075" 
d="M1026 287v-287h-958v285l462 452h-442v287h897v-287l-432 -450h473zM561 1135h-33l-391 217v20l133 160h21l254 -117l254 117h20l133 -160v-20z" />
    <glyph glyph-name="uni01EA" unicode="&#x1ea;" horiz-adv-x="1601" 
d="M801 340q139 0 234 92t95 234t-95 233q-95 92 -234 92t-235 -92t-95 -233q0 -141 95 -234q96 -92 235 -92zM1544 666q0 -220 -122 -390t-324 -247q-18 -12 -78 -45q-79 -44 -136 -90t-58 -96t27 -76t73 -26t84 40h28l88 -129v-29q-88 -88 -238 -88t-246 75
q-95 75 -95 195t151 222q-280 33 -460 223t-180 474q0 285 212 481t530 196t531 -196t213 -494z" />
    <glyph glyph-name="uni01EB" unicode="&#x1eb;" horiz-adv-x="1282" 
d="M457 512q0 -88 51 -143.5t133 -55.5t133 55.5t51 143.5t-51 143.5t-133 55.5t-133 -55.5t-51 -143.5zM649 -215q0 -35 28 -60.5t73 -25.5t84 39h28l88 -129v-29q-88 -88 -238.5 -88t-245.5 75t-95 193.5t151 223.5q-215 33 -344 177t-129 365.5t164 372t428 150.5
t428 -150.5t164 -386.5q0 -164 -83 -291t-230 -190q-20 -12 -77 -45t-79.5 -47.5t-56 -41t-46 -52t-12.5 -60.5z" />
    <glyph glyph-name="AEacute" unicode="&#x1fc;" horiz-adv-x="2203" 
d="M1100 467v416l-307 -416h307zM2120 1004h-615v-185h463v-307h-463v-184h615v-328h-1020v201h-504l-147 -201h-488l983 1331h1176v-327zM1325 1450h-29l-79 143v29l473 291h28l142 -234v-28z" />
    <glyph glyph-name="aeacute" unicode="&#x1fd;" horiz-adv-x="1873" 
d="M569.5 420q-65.5 0 -102.5 -29t-37 -76t37 -75.5t92 -28.5t96 36t43 85v63q-63 25 -128.5 25zM1268 780q-78 0 -127 -49t-51 -129h356q-2 80 -51 129t-127 49zM1329 258q150 0 246 92h29l168 -166v-28q-162 -180 -448.5 -180.5t-457.5 151.5q-166 -152 -376 -152
t-331.5 91.5t-121.5 247t132 237.5t353 82q90 0 176 -27v33q0 59 -47 98t-121 39q-131 0 -221 -82h-28l-166 164v29q178 162 454 162q221 0 361 -97q141 96 342 97q250 0 403.5 -148.5t153.5 -390.5q0 -51 -8 -92h-729q12 -80 77.5 -120t159.5 -40zM780 1135h-20l-115 135
v20l412 363h20l178 -215v-21z" />
    <glyph glyph-name="Oslashacute" unicode="&#x1fe;" horiz-adv-x="1601" 
d="M801 340q139 0 234 92t95 234t-95 233q-95 92 -234 92t-235 -92t-95 -233q0 -141 95 -234q96 -92 235 -92zM801 -25q-111 0 -209 25l-68 -100h-438l-4 16l178 266q-203 197 -203 489q0 293 213 489t531 196q113 0 221 -29l82 123h434l4 -16l-192 -291q194 -199 194 -485
t-213 -485q-213 -198 -530 -198zM588 1450h-29l-80 143v29l473 291h29l141 -234v-28z" />
    <glyph glyph-name="oslashacute" unicode="&#x1ff;" horiz-adv-x="1282" 
d="M641 313q82 0 133 55.5t51 143.5t-51 143.5t-133 55.5t-133 -55.5t-51 -143.5t51 -143.5t133 -55.5zM1233 503q0 -227 -164 -377.5t-428 -150.5q-88 0 -166 19l-61 -88h-355l-16 26l150 213q-143 147 -143.5 375t163.5 378.5t428 150.5q92 0 168 -19l80 115h354l17 -27
l-168 -241q141 -147 141 -374zM471 1135h-20l-115 135v20l412 363h20l178 -215v-21z" />
    <glyph glyph-name="Scommaaccent" unicode="&#x218;" horiz-adv-x="1214" 
d="M446 -125l23 21h285l18 -21l-137 -373l-25 -20h-204l-19 20zM581.5 313q75.5 0 114.5 22.5t39 59.5q-1 50 -99 82q-18 6 -36.5 13t-78.5 25t-110.5 37t-116.5 56q-200 113 -200 324t152.5 317.5t382.5 106.5q326 0 495 -197v-41l-176 -205h-33q-129 125 -265 125
t-136 -75q0 -31 27.5 -55.5t56.5 -37t88 -33t92 -31.5t91.5 -36t90.5 -45q98 -62 143.5 -140.5t45.5 -189.5q0 -207 -153.5 -313.5t-393.5 -106.5q-359 1 -549 226v37l176 217h31q55 -57 150.5 -99.5t171 -42.5z" />
    <glyph glyph-name="scommaaccent" unicode="&#x219;" horiz-adv-x="1087" 
d="M383 -125l23 21h284l19 -21l-138 -373l-24 -20h-205l-18 20zM547 1049q319 0 473 -177v-28l-164 -148h-29q-111 94 -252 95q-104 0 -104 -52q0 -20 25.5 -33.5t79.5 -33t98.5 -33.5t70 -23.5t68.5 -28t69 -34.5q80 -50 116 -106t36 -140q0 -152 -132 -242t-324 -90
q-367 0 -541 201v29l168 155h28q57 -51 138.5 -89t156.5 -38q104 0 105 66q0 16 -10 33q-16 20 -69.5 36.5t-105 32t-80 25.5t-102 43t-102.5 62.5t-57.5 82t-28.5 113.5q0 147 128 234.5t341 87.5z" />
    <glyph glyph-name="uni021A" unicode="&#x21a;" horiz-adv-x="1257" 
d="M469 -125l23 21h284l19 -21l-138 -373l-24 -20h-205l-18 20zM831 1004v-1004h-405v1004h-406v327h1217v-327h-406z" />
    <glyph glyph-name="uni021B" unicode="&#x21b;" horiz-adv-x="948" 
d="M430 -104h285l18 -21l-137 -373l-25 -20h-204l-19 20l60 373zM623.5 -25q-170.5 0 -295.5 107.5t-125 316.5v338h-180v287h180v287l366 45l31 -19v-313h291v-287h-291v-288q0 -68 28.5 -102t74 -34t90.5 33l24 -14l107 -240l-11 -29q-119 -88 -289.5 -88z" />
    <glyph glyph-name="uni0237" unicode="&#x237;" horiz-adv-x="649" 
d="M143 1024h402v-678q-1 -230 -27 -329t-67 -147q-88 -103 -263 -177h-30l-152 284v31q96 49 117 114q20 65 20 277v625z" />
    <glyph glyph-name="uni02BC" unicode="&#x2bc;" horiz-adv-x="477" 
d="M125 1589l22 21h285l19 -21l-144 -430l-24 -20h-201l-19 20z" />
    <glyph glyph-name="circumflex" unicode="&#x2c6;" horiz-adv-x="1056" 
d="M539 1532l391 -217v-21l-133 -159h-21l-254 116l-254 -116h-20l-133 159v21l391 217h33z" />
    <glyph glyph-name="caron" unicode="&#x2c7;" horiz-adv-x="1044" 
d="M797 1532l133 -160v-20l-391 -217h-33l-391 217v20l133 160h20l254 -117l254 117h21z" />
    <glyph glyph-name="breve" unicode="&#x2d8;" horiz-adv-x="845" 
d="M422 1135q-160 0 -270 106t-129 268h233q12 -73 57 -119t109 -46t108 46q45 46 58 119h233q-19 -162 -129 -268t-270 -106z" />
    <glyph glyph-name="dotaccent" unicode="&#x2d9;" horiz-adv-x="591" 
d="M295 1135q-96 1 -165 69t-69 164t69 165t165 69t165 -69q68 -69 68 -165t-68 -165q-69 -68 -165 -68z" />
    <glyph glyph-name="ring" unicode="&#x2da;" horiz-adv-x="745" 
d="M373 1319q33 1 55 23t21 53q0 31 -22 53q-23 22 -55 22t-54 -22t-22 -54q0 -30 22 -53q22 -22 55 -22zM372 1116q-120 0 -204 82t-84 197t84 197t205 81q121 0 205 -82q84 -83 84 -197t-85 -196t-205 -82z" />
    <glyph glyph-name="ogonek" unicode="&#x2db;" horiz-adv-x="743" 
d="M402 -528q-150 0 -245 74t-95 179q0 104 69 171q70 66 154 114h327q-18 -12 -77 -45q-156 -87 -183 -141q-12 -26 -12 -60t28 -60t72 -26t84 39h29l88 -129v-28q-89 -88 -239 -88z" />
    <glyph glyph-name="tilde" unicode="&#x2dc;" horiz-adv-x="1019" 
d="M326 1470q55 0 155 -36t152 -35q100 0 137 71h25l143 -172v-28q-106 -121 -244 -121q-55 0 -155 36t-152 36q-100 0 -137 -72h-25l-143 172v29q107 120 244 120z" />
    <glyph glyph-name="hungarumlaut" unicode="&#x2dd;" horiz-adv-x="933" 
d="M608 1524l27 20h260l18 -20l-215 -369l-26 -20h-178l-19 20zM205 1524l26 20h261l18 -20l-215 -369l-27 -20h-178l-18 20z" />
    <glyph glyph-name="uni0326" unicode="&#x326;" horiz-adv-x="0" 
d="M-358 -125l22 21h285l18 -21l-137 -373l-25 -20h-204l-19 20z" />
    <glyph glyph-name="Wgrave" unicode="&#x1e80;" horiz-adv-x="2148" 
d="M989 1331h230l235 -770l287 770h391l16 -26l-518 -1305h-307l-219 674l-217 -674h-307l-342 860q-43 109 -72 125q-31 14 -76 -4l-24 14l-68 273l10 28q74 59 205 60q246 0 344 -264l197 -527zM952 1913l473 -291v-29l-79 -143h-29l-535 201v28l142 234h28z" />
    <glyph glyph-name="wgrave" unicode="&#x1e81;" horiz-adv-x="1767" 
d="M182 1049q150 1 246 -99t139 -266l58 -223l180 563h225l182 -567l164 567h367l16 -27l-352 -997h-330l-159 492l-160 -492h-330l-207 608q-31 90 -98 90q-37 0 -55 -18l-25 14l-47 283l14 29q70 43 172 43zM811 1653l412 -363v-20l-115 -135h-21l-475 282v21l179 215h20z
" />
    <glyph glyph-name="Wacute" unicode="&#x1e82;" horiz-adv-x="2148" 
d="M989 1331h230l235 -770l287 770h391l16 -26l-518 -1305h-307l-219 674l-217 -674h-307l-342 860q-43 109 -72 125q-31 14 -76 -4l-24 14l-68 273l10 28q74 59 205 60q246 0 344 -264l197 -527zM1255 1913h29l141 -234v-28l-534 -201h-29l-80 143v29z" />
    <glyph glyph-name="wacute" unicode="&#x1e83;" horiz-adv-x="1767" 
d="M182 1049q150 1 246 -99t139 -266l58 -223l180 563h225l182 -567l164 567h367l16 -27l-352 -997h-330l-159 492l-160 -492h-330l-207 608q-31 90 -98 90q-37 0 -55 -18l-25 14l-47 283l14 29q70 43 172 43zM1024 1653h20l179 -215v-21l-475 -282h-21l-115 135v20z" />
    <glyph glyph-name="Wdieresis" unicode="&#x1e84;" horiz-adv-x="2148" 
d="M989 1331h230l235 -770l287 770h391l16 -26l-518 -1305h-307l-219 674l-217 -674h-307l-342 860q-43 109 -72 125q-31 14 -76 -4l-24 14l-68 273l10 28q74 59 205 60q246 0 344 -264l197 -527zM1372 1450q-94 0 -163 68t-69 164t69 163q69 68 163 68t163 -68t69 -164
q0 -95 -69 -163t-163 -68zM834 1450q-96 0 -164 68t-68 164t68 163q68 68 164 68t164 -68t67 -164q1 -95 -67 -163t-164 -68z" />
    <glyph glyph-name="wdieresis" unicode="&#x1e85;" horiz-adv-x="1767" 
d="M182 1049q150 1 246 -99t139 -266l58 -223l180 563h225l182 -567l164 567h367l16 -27l-352 -997h-330l-159 492l-160 -492h-330l-207 608q-31 90 -98 90q-37 0 -55 -18l-25 14l-47 283l14 29q70 43 172 43zM1161 1130q-86 0 -146 60t-61 147q0 87 60 147t147 60t147 -60
t60 -146t-60 -148q-60 -60 -147 -60zM674 1130q-86 0 -146 60t-61 147q0 87 60 147q61 60 147 60t146 -60t60 -146t-60 -148q-60 -60 -146 -60z" />
    <glyph glyph-name="uni1E9E" unicode="&#x1e9e;" horiz-adv-x="1456" 
d="M1405 386q0 -175 -135 -293t-336 -118q-98 0 -188 28t-136 69l-14 28l80 244l29 10q25 -18 83 -38t120 -21q61 0 102 40q41 41 41 105q1 64 -51 102t-152 38h-125v221l113 157q-49 37 -123 37q-197 0 -197 -245v-750h-405v725q0 297 173 464t466 167q344 0 528 -279
l-209 -278q137 -18 237 -128t99 -285z" />
    <glyph glyph-name="Ygrave" unicode="&#x1ef2;" horiz-adv-x="1443" 
d="M965 0h-406v477l-258 420q-61 98 -137 98q-37 0 -66 -14l-24 14l-68 273l10 28q70 60 200 60t220 -62t168 -194l160 -273l283 504h391l16 -26l-489 -822v-483zM1004 1450h-29l-535 201v28l142 234h28l473 -291v-29z" />
    <glyph glyph-name="ygrave" unicode="&#x1ef3;" horiz-adv-x="1271" 
d="M399 -307q-117 0 -204 47l-15 29l70 239l22 15q45 -23 84 -23q98 0 129 59l17 33l-254 516q-43 90 -105 90q-39 0 -57 -18l-25 14l-47 283l15 29q70 43 176 43q147 0 233 -88t172 -287l84 -193l230 543h340l16 -27l-461 -1017q-129 -287 -420 -287zM813 1135h-20
l-476 282v21l179 215h20l412 -363v-20z" />
    <glyph glyph-name="uni1EF8" unicode="&#x1ef8;" horiz-adv-x="1443" 
d="M965 0h-406v477l-258 420q-61 98 -137 98q-37 0 -66 -14l-24 14l-68 273l10 28q70 60 200 60t220 -62t168 -194l160 -273l283 504h391l16 -26l-489 -822v-483zM580 1800q70 0 202 -36t160 -35q102 0 141 71h29l109 -180v-29q-72 -129 -279 -129q-57 0 -183 36t-179 36
q-111 0 -150 -72h-29l-100 180v29q72 129 279 129z" />
    <glyph glyph-name="uni1EF9" unicode="&#x1ef9;" horiz-adv-x="1271" 
d="M399 -307q-117 0 -204 47l-15 29l70 239l22 15q45 -23 84 -23q98 0 129 59l17 33l-254 516q-43 90 -105 90q-39 0 -57 -18l-25 14l-47 283l15 29q70 43 176 43q147 0 233 -88t172 -287l84 -193l230 543h340l16 -27l-461 -1017q-129 -287 -420 -287zM745 1399
q102 0 138 71h24l144 -172v-28q-106 -121 -244 -121q-55 0 -155 36t-152 36q-103 0 -138 -72h-24l-143 172v29q106 121 243 120q56 0 156 -36t151 -35z" />
    <glyph glyph-name="endash" unicode="&#x2013;" horiz-adv-x="1269" 
d="M100 768h1069v-307h-1069v307z" />
    <glyph glyph-name="emdash" unicode="&#x2014;" horiz-adv-x="1533" 
d="M100 768h1334v-307h-1334v307z" />
    <glyph glyph-name="quoteleft" unicode="&#x2018;" horiz-adv-x="542" 
d="M481 882q-1 -72 -63 -134t-154 -62t-151 66t-59 180t74 249q75 134 183 240h25l119 -104v-27q-94 -119 -101 -207q55 -25 91 -77t36 -124z" />
    <glyph glyph-name="quoteright" unicode="&#x2019;" horiz-adv-x="538" 
d="M63 1224q1 72 63 134t154 61q92 0 152 -65q60 -66 60 -180t-75 -249q-75 -134 -184 -241h-24l-119 104v27q94 119 100 207q-55 25 -91 77q-36 53 -36 125z" />
    <glyph glyph-name="quotesinglbase" unicode="&#x201a;" horiz-adv-x="561" 
d="M63 173q1 73 63 135t154 61q92 0 152 -66q60 -67 60 -181t-75 -248t-184 -241h-24l-119 105v26q94 119 100 207q-55 25 -91 77t-36 125z" />
    <glyph glyph-name="quotedblleft" unicode="&#x201c;" horiz-adv-x="1093" 
d="M815 684q-92 0 -151 66q-60 66 -60 180t75 249q75 134 183 240h25l119 -104v-27q-94 -119 -101 -207q55 -25 91 -77t36 -124q0 -73 -62 -135q-63 -61 -155 -61zM264 684q-92 0 -151 66t-59 180t74 249q75 134 183 240h25l119 -104v-27q-94 -119 -101 -207q55 -25 91 -77
t36 -124q0 -73 -62 -135q-63 -61 -155 -61z" />
    <glyph glyph-name="quotedblright" unicode="&#x201d;" horiz-adv-x="1089" 
d="M614 1226q0 72 62 134t155 61q92 0 152 -65q59 -66 59 -180t-74 -249q-74 -134 -184 -241h-24l-119 105v26q94 119 100 207q-55 25 -91 77q-36 53 -36 125zM63 1226q1 72 63 134t154 61q92 0 152 -65q60 -66 60 -180t-75 -249q-75 -134 -184 -241h-24l-119 105v26
q94 119 100 207q-55 25 -91 77q-36 53 -36 125z" />
    <glyph glyph-name="quotedblbase" unicode="&#x201e;" horiz-adv-x="1112" 
d="M614 175q0 73 62 135t155 61q91 0 151 -66q60 -67 60 -181t-74 -248t-184 -241h-24l-119 105v27q94 119 100 206q-55 25 -91 77t-36 125zM63 175q1 73 63 135t154 61q92 0 152 -66q60 -67 60 -181t-75 -248t-184 -241h-24l-119 105v27q94 119 100 206q-55 25 -91 77
t-36 125z" />
    <glyph glyph-name="dagger" unicode="&#x2020;" horiz-adv-x="1196" 
d="M1108 1010v-287h-315v-1042h-390v1042h-315v287h315v342h390v-342h315z" />
    <glyph glyph-name="daggerdbl" unicode="&#x2021;" horiz-adv-x="1196" 
d="M1108 723h-315v-414h315v-286h-315v-342h-390v342h-315v286h315v414h-315v287h315v342h390v-342h315v-287z" />
    <glyph glyph-name="bullet" unicode="&#x2022;" horiz-adv-x="790" 
d="M395 295q-119 0 -201 83t-83 202q0 120 83 202q84 82 202 82t201 -83t83 -201t-83 -202q-83 -83 -202 -83z" />
    <glyph glyph-name="ellipsis" unicode="&#x2026;" horiz-adv-x="1773" 
d="M1481 -25q-96 0 -165 69t-69 165t69 165q69 68 165 68t165 -68q68 -68 68 -165q0 -96 -68 -165t-165 -69zM887 -25q-96 0 -165 69t-69 165t69 165q69 68 165 68t165 -68q68 -68 68 -165q0 -96 -68 -165t-165 -69zM293 -25q-96 0 -165 69t-69 165t69 165q69 68 165 68
t165 -68q68 -68 68 -165q0 -96 -68 -165t-165 -69z" />
    <glyph glyph-name="perthousand" unicode="&#x2030;" horiz-adv-x="2781" 
d="M2365 182q55 0 90 49q34 49 33 131q0 82 -33 132q-33 49 -89 49t-90 -49q-34 -50 -34 -132t34 -131t89 -49zM1524 182q55 0 89 49t34 131t-34 132t-89 49q-55 0 -89 -49q-34 -50 -34 -132t34 -131t89 -49zM2365 -25q-156 0 -258 108q-102 107 -102 279t102 280t258 108
t258 -108q103 -108 103 -280t-102 -280t-259 -107zM1524 -25q-156 0 -258 108q-102 107 -102 279t102 280t258 108t258 -108t102 -280t-102 -280t-258 -107zM418 784q55 0 89 50t34 131q0 82 -34 131t-89 49t-89 -49t-34 -131q0 -81 34 -131t89 -50zM322 0l-17 27l1030 1304
h297l17 -26l-1031 -1305h-296zM418 578q-156 0 -258 108t-103 279q1 171 103 279t258 108t258 -108t102 -280t-102 -278q-102 -108 -258 -108z" />
    <glyph glyph-name="guilsinglleft" unicode="&#x2039;" horiz-adv-x="731" 
d="M649 907v-22l-243 -273l243 -274v-21l-180 -172h-18l-406 451v35l406 448h18z" />
    <glyph glyph-name="guilsinglright" unicode="&#x203a;" horiz-adv-x="731" 
d="M281 1079l405 -448v-35l-405 -451h-19l-180 172v21l244 274l-244 273v22l180 172h19z" />
    <glyph glyph-name="fraction" unicode="&#x2044;" horiz-adv-x="1331" 
d="M-2 27l1030 1304h297l16 -26l-1030 -1305h-297z" />
    <glyph glyph-name="Euro" unicode="&#x20ac;" horiz-adv-x="1574" 
d="M945 995q-165 0 -253 -137h361l20 -29l-51 -131h-381q-2 -10 -2 -32t2 -33h385l21 -29l-39 -131h-316q88 -137 253 -137t280 133h28l246 -209v-29q-213 -256 -561 -256q-252 -1 -439 137t-247 361h-180l-21 29l39 131h135v65h-127l-20 29l39 131h135q58 222 246 360
t440 138q348 0 561 -256v-29l-246 -209h-28q-115 133 -280 133z" />
    <glyph glyph-name="trademark" unicode="&#x2122;" horiz-adv-x="1630" 
d="M1536 664h-201l-32 294l-127 -294h-117l-127 290l-33 -290h-201l86 667h156l178 -411l176 411h156zM59 1167v164h611v-164h-203v-503h-203v503h-205z" />
    <glyph glyph-name="minus" unicode="&#x2212;" horiz-adv-x="1273" 
d="M104 801h1065v-266h-1065v266z" />
    <glyph glyph-name="approxequal" unicode="&#x2248;" horiz-adv-x="1245" 
d="M857 256q-83 0 -237 36t-219 36q-129 0 -176 -72h-30l-103 188v29q86 121 309 121q88 0 247 -36t194 -36q129 0 176 72h31l102 -188v-29q-25 -35 -49 -57t-94 -42q-68 -22 -151 -22zM857 743q-83 0 -237 36t-219 36q-129 0 -176 -72h-30l-103 189v29q86 121 309 120
q88 1 247 -35t194 -36q129 0 176 71h31l102 -188v-29q-25 -34 -49 -56t-94 -44q-68 -22 -151 -21z" />
    <glyph glyph-name="notequal" unicode="&#x2260;" horiz-adv-x="1277" 
d="M1225 758h-398l-112 -189h510v-266h-668l-151 -254h-271l-8 21l139 233h-213v266h371l113 189h-484v266h643l150 252h270l8 -21l-137 -231h238v-266z" />
    <glyph glyph-name="uniF8FF" unicode="&#xf8ff;" horiz-adv-x="2758" 
d="M1305 381q-47 0 -48 -62q0 -17 9 -55q79 12 77 74q0 43 -38 43zM1884 350v8q2 4 2 9q0 39 -37 39q-45 0 -45 -56h80zM2200 518q14 0 14 12t-14 13h-17v-25h17zM2167 557h33q31 0 30 -25q0 -18 -16 -24l16 -27h-18l-14 23h-15v-23h-16v76zM2195 457q25 0 43 18t19 43
q-1 25 -19 43q-18 19 -43 19t-43 -18t-18 -44q0 -25 18 -43t43 -18zM2120 518q0 32 22 54t54 22q30 0 53 -23t23 -53t-24 -54q-22 -22 -53 -22t-53 22t-22 54zM1591 346q0 260 252 260q105 0 167 -61t63 -172q0 -19 -11 -74h-245q6 -50 88 -50q81 1 106 32v-150
q-4 -4 -44 -18t-103 -15q-137 0 -205 67t-68 181zM1040 12q0 295 11 420l12 158h160l6 -60q8 -43 8 -94q29 170 160 170q75 0 117 -60t42 -182t-68 -194t-192 -72q0 -14 2 -22l2 -64h-260zM717 590q-4 -78 -4 -216q0 -54 32 -55q31 0 31 54l-2 60v50q-2 31 -2 107h217l6 -82
q6 -78 6 -220q1 -142 -73 -209t-234 -67q-88 0 -133 14t-57 29v170q45 -37 136 -38t136 36q20 16 23 37q-8 -6 -23 -16q-33 -14 -94 -15q-190 0 -190 152v16h-93l4 -125q25 0 58 13v-152q-33 -33 -137 -35q-150 0 -150 131l4 168h-55v170l248 82l8 -59h338zM2389 817
q48 1 48 59t-48 58t-48 -58t48 -59zM664 817q49 1 49 59t-49 58q-43 0 -43 -58t43 -59zM2142 901q0 254 246 254q140 0 194 -68q54 -67 54 -183t-62 -182t-185 -65q-123 -1 -185 65t-62 179zM1599 670q0 320 23 477h156l6 -51q6 -92 6 -101l4 21q17 50 39 80q45 59 125 59
t114 -48t35 -159l4 -278h-229l4 192q0 51 -33 51t-32 -51l10 -192h-232zM586 657q-182 0 -183 230q-1 133 63 201t208 67q238 0 237 -229v-256h-155l-19 118q-25 -131 -151 -131zM938 965v170l238 73l8 -61h352q8 -105 12 -157t4 -320h-233q0 248 4 295h-117l4 -129
q0 -4 20 -4q20 -1 38 8v-148q-2 -8 -30 -21t-97 -14q-160 0 -160 131l4 177h-47zM127 670q0 303 10 446l13 182h194q2 -46 11 -210t10 -418h-238zM1436 1174q-53 0 -87 36t-34 87q0 52 34 87t87 35t87 -35q33 -35 33 -87t-33 -88q-34 -35 -87 -35z" />
    <glyph glyph-name="N.ss01" horiz-adv-x="1581" 
d="M1047 1331h405v-1331h-303l-524 670v-320q0 -180 -92.5 -277.5t-262.5 -97.5q-131 0 -215 52l-14 28l51 281l25 14q14 -14 45 -14t44 26.5t13 90.5v878h303l525 -669v669z" />
    <glyph glyph-name="Nacute.ss01" horiz-adv-x="1581" 
d="M1047 1331h405v-1331h-303l-524 670v-320q0 -180 -92.5 -277.5t-262.5 -97.5q-131 0 -215 52l-14 28l51 281l25 14q14 -14 45 -14t44 26.5t13 90.5v878h303l525 -669v669zM623 1450h-29l-80 143v29l473 291h29l141 -234v-28z" />
    <glyph glyph-name="Ncaron.ss01" horiz-adv-x="1581" 
d="M1047 1331h405v-1331h-303l-524 670v-320q0 -180 -92.5 -277.5t-262.5 -97.5q-131 0 -215 52l-14 28l51 281l25 14q14 -14 45 -14t44 26.5t13 90.5v878h303l525 -669v669zM852 1450h-31l-403 236v28l88 150h29l303 -142l301 142h28l88 -150v-28z" />
    <glyph glyph-name="Ncommaaccent.ss01" horiz-adv-x="1581" 
d="M692 -104h285l18 -21l-137 -373l-24 -20h-205l-19 20l60 373zM1047 1331h405v-1331h-303l-524 670v-320q0 -180 -92.5 -277.5t-262.5 -97.5q-131 0 -215 52l-14 28l51 281l25 14q14 -14 45 -14t44 26.5t13 90.5v878h303l525 -669v669z" />
    <glyph glyph-name="Eng.ss01" horiz-adv-x="1581" 
d="M1047 1331h405v-1358q0 -215 -147 -353t-361 -138q-106 0 -219 38t-178 128v30l217 213h31q45 -82 141 -81q72 0 114 48t42 117v99l-467 596v-320q-1 -180 -93 -277t-242 -97t-235 51l-14 28l51 281l25 14q14 -14 45 -14t44 26t13 91v878h303l525 -669v669z" />
    <glyph glyph-name="Ntilde.ss01" horiz-adv-x="1581" 
d="M1047 1331h405v-1331h-303l-524 670v-320q0 -180 -92.5 -277.5t-262.5 -97.5q-131 0 -215 52l-14 28l51 281l25 14q14 -14 45 -14t44 26.5t13 90.5v878h303l525 -669v669zM653 1800q70 0 202 -35.5t161 -35.5q102 0 141 71h29l108 -180v-29q-72 -129 -278 -129
q-57 0 -183 36t-180 36q-110 0 -149 -72h-29l-100 180v29q72 129 278 129z" />
    <glyph glyph-name="Q.ss01" horiz-adv-x="1601" 
d="M924 338q-150 198 -312 198q-80 0 -123 -12q39 -96 123 -152t167 -56t145 22zM801 1006q-107 0 -191 -56t-123 -149q82 20 154 20q258 0 481 -264q16 53 17 109q1 150 -97 245t-241 95zM801 -25q-317 0 -531 197q-213 197 -213 494q0 298 213 494q212 196 530 196
t531 -197t213 -479t-178 -473q90 -127 172 -199t184 -72t174 62l29 -10l119 -197l-10 -27q-138 -114 -320 -114t-320 104t-268 287q-147 -66 -325 -66z" />
    <glyph glyph-name="W.ss01" horiz-adv-x="2211" 
d="M2000 1356q130 0 204 -60l10 -28l-68 -273l-24 -14q-73 29 -105 -27q-12 -23 -43 -94l-370 -860h-318l-180 508l-180 -508h-318l-370 860q-49 113 -70 125q-33 18 -78 -4l-24 14l-68 273l10 28q74 60 204 60t209 -66t136 -198l246 -582l94 264l-223 531l16 26h281
l135 -327l135 327h281l16 -26l-223 -533l94 -264l246 584q57 132 136 198t209 66z" />
    <glyph glyph-name="Wacute.ss01" horiz-adv-x="2211" 
d="M2000 1356q130 0 204 -60l10 -28l-68 -273l-24 -14q-73 29 -105 -27q-12 -23 -43 -94l-370 -860h-318l-180 508l-180 -508h-318l-370 860q-49 113 -70 125q-33 18 -78 -4l-24 14l-68 273l10 28q74 60 204 60t209 -66t136 -198l246 -582l94 264l-223 531l16 26h281
l135 -327l135 327h281l16 -26l-223 -533l94 -264l246 584q57 132 136 198t209 66zM1257 1913h29l141 -234v-28l-534 -201h-29l-80 143v29z" />
    <glyph glyph-name="Wcircumflex.ss01" horiz-adv-x="2211" 
d="M2204 1296l10 -28l-68 -273l-24 -14q-73 29 -105 -27q-12 -23 -43 -94l-370 -860h-318l-180 508l-180 -508h-318l-370 860q-49 113 -70 125q-33 18 -78 -4l-24 14l-68 273l10 28q74 60 204 60t209 -66t136 -198l246 -582l94 264l-223 531l16 26h281l135 -327l135 327h281
l16 -26l-223 -533l94 -264l246 584q57 132 136 198t209 66t204 -60zM805 1450h-29l-88 149v29l404 236h30l404 -236v-29l-88 -149h-29l-301 141z" />
    <glyph glyph-name="Wdieresis.ss01" horiz-adv-x="2211" 
d="M2000 1356q130 0 204 -60l10 -28l-68 -273l-24 -14q-73 29 -105 -27q-12 -23 -43 -94l-370 -860h-318l-180 508l-180 -508h-318l-370 860q-49 113 -70 125q-33 18 -78 -4l-24 14l-68 273l10 28q74 60 204 60t209 -66t136 -198l246 -582l94 264l-223 531l16 26h281
l135 -327l135 327h281l16 -26l-223 -533l94 -264l246 584q57 132 136 198t209 66zM1374 1450q-96 0 -164 68t-68 164t68 163q68 68 164 68t164 -68t68 -164q0 -95 -68 -163t-164 -68zM836 1450q-94 0 -163 68t-69 164t69 163q69 68 163 68t162 -68t69 -164q-1 -95 -69 -163
t-162 -68z" />
    <glyph glyph-name="Wgrave.ss01" horiz-adv-x="2211" 
d="M2000 1356q130 0 204 -60l10 -28l-68 -273l-24 -14q-73 29 -105 -27q-12 -23 -43 -94l-370 -860h-318l-180 508l-180 -508h-318l-370 860q-49 113 -70 125q-33 18 -78 -4l-24 14l-68 273l10 28q74 60 204 60t209 -66t136 -198l246 -582l94 264l-223 531l16 26h281
l135 -327l135 327h281l16 -26l-223 -533l94 -264l246 584q57 132 136 198t209 66zM954 1913l473 -291v-29l-79 -143h-29l-535 201v28l142 234h28z" />
    <glyph glyph-name="N.ss02" horiz-adv-x="1644" 
d="M1497 995q-31 0 -44 -26.5t-13 -89.5v-879h-303l-525 670v-320q0 -178 -92 -276.5t-240.5 -98.5t-236.5 52l-14 28l51 281l24 14q14 -14 45 -14t44.5 26.5t13.5 90.5v878h303l524 -669v319q0 176 90 275.5t241 99.5t239 -51l14 -29l-51 -281l-25 -14q-14 14 -45 14z" />
    <glyph glyph-name="Nacute.ss02" horiz-adv-x="1644" 
d="M1497 995q-31 0 -44 -26.5t-13 -89.5v-879h-303l-525 670v-320q0 -178 -92 -276.5t-240.5 -98.5t-236.5 52l-14 28l51 281l24 14q14 -14 45 -14t44.5 26.5t13.5 90.5v878h303l524 -669v319q0 176 90 275.5t241 99.5t239 -51l14 -29l-51 -281l-25 -14q-14 14 -45 14z
M649 1450h-28l-80 143v29l473 291h28l142 -234v-28z" />
    <glyph glyph-name="Ncaron.ss02" horiz-adv-x="1644" 
d="M1497 995q-31 0 -44 -26.5t-13 -89.5v-879h-303l-525 670v-320q0 -178 -92 -276.5t-240.5 -98.5t-236.5 52l-14 28l51 281l24 14q14 -14 45 -14t44.5 26.5t13.5 90.5v878h303l524 -669v319q0 176 90 275.5t241 99.5t239 -51l14 -29l-51 -281l-25 -14q-14 14 -45 14z
M879 1450h-31l-404 236v28l88 150h29l303 -142l301 142h29l88 -150v-28z" />
    <glyph glyph-name="Ncommaaccent.ss02" horiz-adv-x="1644" 
d="M680 -104h285l18 -21l-137 -373l-25 -20h-205l-18 20l59 373zM1497 995q-31 0 -44 -26.5t-13 -89.5v-879h-303l-525 670v-320q0 -178 -92 -276.5t-240.5 -98.5t-236.5 52l-14 28l51 281l24 14q14 -14 45 -14t44.5 26.5t13.5 90.5v878h303l524 -669v319q0 176 90 275.5
t241 99.5t239 -51l14 -29l-51 -281l-25 -14q-14 14 -45 14z" />
    <glyph glyph-name="Eng.ss02" horiz-adv-x="1644" 
d="M1497 995q-31 0 -44 -26.5t-13 -89.5v-906q0 -215 -147.5 -353t-360.5 -138q-106 0 -219 38t-178 128v30l217 213h30q45 -82 142 -81q72 0 113.5 48t41.5 117v99l-467 596v-320q0 -180 -92 -277.5t-262 -97.5q-131 0 -215 52l-14 28l51 281l24 14q14 -14 45 -14
t44.5 26.5t13.5 90.5v878h303l524 -669v319q0 176 90 275.5t241 99.5t239 -51l14 -29l-51 -281l-25 -14q-14 14 -45 14z" />
    <glyph glyph-name="Ntilde.ss02" horiz-adv-x="1644" 
d="M1497 995q-31 0 -44 -26.5t-13 -89.5v-879h-303l-525 670v-320q0 -178 -92 -276.5t-240.5 -98.5t-236.5 52l-14 28l51 281l24 14q14 -14 45 -14t44.5 26.5t13.5 90.5v878h303l524 -669v319q0 176 90 275.5t241 99.5t239 -51l14 -29l-51 -281l-25 -14q-14 14 -45 14z
M680 1800q70 0 202 -35.5t160 -35.5q102 0 142 71h28l109 -180v-29q-72 -129 -279 -129q-57 0 -183 36t-179 36q-111 0 -150 -72h-28l-101 180v29q72 129 279 129z" />
    <glyph glyph-name="i.loclTRK" horiz-adv-x="618" 
d="M109 0v1024h401v-1024h-401zM309 1135q-96 1 -165 69t-68 164q0 96 68 165q69 69 165 69t165 -69t69 -165t-69 -164t-165 -69z" />
    <glyph glyph-name="f.ss01" horiz-adv-x="894" 
d="M748 1139q-54 0 -93 -30t-47 -85h266v-287h-268v-1056h-401v1056h-178v287h180q12 207 151 311t330 105q133 0 238 -45l14 -29l-66 -240l-24 -14q-48 27 -102 27z" />
    <glyph glyph-name="i.ss01" horiz-adv-x="665" 
d="M430 -25q-156 1 -243 93t-87 264v692h402v-633q0 -66 47 -65q16 0 26 10l25 -14l43 -267l-14 -28q-88 -52 -199 -52zM301 1135q-96 1 -165 69t-68 164q0 96 68 165q69 69 165 69t165 -69t69 -165t-69 -164t-165 -69z" />
    <glyph glyph-name="dotlessi.ss01" horiz-adv-x="665" 
d="M430 -25q-156 1 -243 93t-87 264v692h402v-633q0 -66 47 -65q16 0 26 10l25 -14l43 -267l-14 -28q-88 -52 -199 -52z" />
    <glyph glyph-name="iacute.ss01" horiz-adv-x="665" 
d="M430 -25q-156 1 -243 93t-87 264v692h402v-633q0 -66 47 -65q16 0 26 10l25 -14l43 -267l-14 -28q-88 -52 -199 -52zM408 1653h20l178 -215v-21l-475 -282h-20l-115 135v20z" />
    <glyph glyph-name="icircumflex.ss01" horiz-adv-x="665" 
d="M100 332v692h402v-633q0 -66 47 -65q16 0 26 10l25 -14l43 -267l-14 -28q-88 -51 -199 -52q-156 1 -243 93t-87 264zM317 1532l392 -217v-21l-134 -159h-20l-254 116l-254 -116h-20l-133 159v21l391 217h32z" />
    <glyph glyph-name="idieresis.ss01" horiz-adv-x="665" 
d="M430 -25q-156 1 -243 93t-87 264v692h402v-633q0 -66 47 -65q16 0 26 10l25 -14l43 -267l-14 -28q-88 -52 -199 -52zM545 1130q-87 0 -147 60t-60 147t60 147t146 60t147 -60t61 -146t-60 -148q-60 -60 -147 -60zM57 1130q-86 0 -146 60t-61 147q0 87 60 147t147 60
t147 -60t60 -146t-60 -148q-60 -60 -147 -60z" />
    <glyph glyph-name="igrave.ss01" horiz-adv-x="665" 
d="M430 -25q-156 1 -243 93t-87 264v692h402v-633q0 -66 47 -65q16 0 26 10l25 -14l43 -267l-14 -28q-88 -52 -199 -52zM195 1653l411 -363v-20l-114 -135h-21l-475 282v21l178 215h21z" />
    <glyph glyph-name="ij.ss01" horiz-adv-x="1314" 
d="M809 1024h401v-678q0 -227 -26 -328q-26 -100 -68 -148q-90 -104 -262 -177h-31l-151 284v31q96 49 116 114t21 277v625zM430 -25q-156 1 -243 93t-87 264v692h402v-633q0 -66 47 -65q16 0 26 10l25 -14l43 -267l-14 -28q-88 -52 -199 -52zM1010 1135q-96 1 -165 69
t-69 164t69 165t165 69t165 -69t69 -165t-69 -165q-69 -68 -165 -68zM301 1135q-96 1 -165 69t-68 164q0 96 68 165q69 69 165 69t165 -69t69 -165t-69 -164t-165 -69z" />
    <glyph glyph-name="imacron.ss01" horiz-adv-x="665" 
d="M430 -25q-156 1 -243 93t-87 264v692h402v-633q0 -66 47 -65q16 0 26 10l25 -14l43 -267l-14 -28q-88 -52 -199 -52zM-68 1382h738v-225h-738v225z" />
    <glyph glyph-name="iogonek.ss01" horiz-adv-x="665" 
d="M419 -512q-150 0 -246 75q-95 75 -95 189q0 58 32 110t64 79q33 27 96 67q-170 78 -170 324v692h402v-633q0 -66 47 -65q16 0 26 10l25 -14l43 -267l-14 -28q-17 -12 -77 -45t-113 -70t-67 -67q-16 -31 -16 -65t28 -60t73 -26t84 40h28l88 -129v-29q-88 -88 -238 -88z
M301 1135q-96 1 -165 69t-68 164q0 96 68 165q69 69 165 69t165 -69t69 -165t-69 -164t-165 -69z" />
    <glyph glyph-name="itilde.ss01" horiz-adv-x="665" 
d="M430 -25q-156 1 -243 93t-87 264v692h402v-633q0 -66 47 -65q16 0 26 10l25 -14l43 -267l-14 -28q-88 -52 -199 -52zM117 1470q55 0 155 -36t152 -35q100 0 137 71h25l143 -172v-28q-106 -121 -244 -121q-55 0 -155 36t-152 36q-100 0 -137 -72h-25l-143 172v29
q107 120 244 120z" />
    <glyph glyph-name="k.ss01" 
d="M1049 -25q-96 0 -174 33t-158 129l-191 232l-16 -21v-348h-401v1010q0 66 -46 65q-18 0 -28 -10l-25 14l-43 267l15 28q88 51 224 51t220 -82.5t84 -252.5v-392l256 326h414l16 -27l-358 -426l172 -186q53 -59 94 -59t59 18l25 -14l43 -283l-14 -29q-72 -43 -168 -43z
" />
    <glyph glyph-name="kcommaaccent.ss01" 
d="M520 -104h285l18 -21l-137 -373l-24 -20h-205l-19 20l60 373zM1049 -25q-96 0 -174 33t-158 129l-191 232l-16 -21v-348h-401v1010q0 66 -46 65q-18 0 -28 -10l-25 14l-43 267l15 28q88 51 224 51t220 -82.5t84 -252.5v-392l256 326h414l16 -27l-358 -426l172 -186
q53 -59 94 -59t59 18l25 -14l43 -283l-14 -29q-72 -43 -168 -43z" />
    <glyph glyph-name="v.ss01" horiz-adv-x="1323" 
d="M193 1049q147 1 233 -89t149 -286l89 -268l96 268q74 205 150 290q77 85 225 85q106 0 176 -43l14 -29l-47 -283l-25 -14q-18 18 -55 18q-70 0 -106 -90l-254 -608h-351l-254 608q-37 90 -106 90q-37 0 -55 -18l-25 14l-47 283l14 29q70 43 179 43z" />
    <glyph glyph-name="y.ss01" horiz-adv-x="1302" 
d="M807 1024h391v-815q0 -256 -171 -392t-447 -136q-326 0 -506 180v26l157 205h29q53 -55 143 -92q89 -37 183 -37t165 42t70 124v49q-84 -88 -233 -88t-284 90q-67 45 -107 128q-41 83 -41 190v135q0 66 -45 65q-18 0 -29 -10l-25 14l-43 267l15 28q88 51 204 52
q313 0 314 -336v-148q0 -63 34 -103t98 -40t96 40t32 103v459z" />
    <glyph glyph-name="yacute.ss01" horiz-adv-x="1302" 
d="M807 1024h391v-815q0 -256 -171 -392t-447 -136q-326 0 -506 180v26l157 205h29q53 -55 143 -92q89 -37 183 -37t165 42t70 124v49q-84 -88 -233 -88t-284 90q-67 45 -107 128q-41 83 -41 190v135q0 66 -45 65q-18 0 -29 -10l-25 14l-43 267l15 28q88 51 204 52
q313 0 314 -336v-148q0 -63 34 -103t98 -40t96 40t32 103v459zM502 1135h-21l-114 135v20l411 363h21l178 -215v-21z" />
    <glyph glyph-name="ycircumflex.ss01" horiz-adv-x="1302" 
d="M807 1024h391v-815q0 -256 -171 -392t-447 -136q-326 0 -506 180v26l157 205h29q53 -55 143 -92q89 -37 183 -37t165 42t70 124v49q-84 -88 -233 -88t-284 90q-67 45 -107 128q-41 83 -41 190v135q0 66 -45 65q-18 0 -29 -10l-25 14l-43 267l15 28q88 51 204 52
q313 0 314 -336v-148q0 -63 34 -103t98 -40t96 40t32 103v459zM418 1135h-21l-133 159v21l391 217h33l391 -217v-21l-133 -159h-20l-254 116z" />
    <glyph glyph-name="ydieresis.ss01" horiz-adv-x="1302" 
d="M807 1024h391v-815q0 -256 -171 -392t-447 -136q-326 0 -506 180v26l157 205h29q53 -55 143 -92q89 -37 183 -37t165 42t70 124v49q-84 -88 -233 -88t-284 90q-67 45 -107 128q-41 83 -41 190v135q0 66 -45 65q-18 0 -29 -10l-25 14l-43 267l15 28q88 51 204 52
q313 0 314 -336v-148q0 -63 34 -103t98 -40t96 40t32 103v459zM915 1130q-86 0 -146 60t-60 147t60 147t146 60q87 0 147 -60t60 -146t-60 -148q-60 -60 -147 -60zM428 1130q-86 0 -146 60t-61 147q1 87 61 147t146 60t146 -60t60 -146t-60 -148q-60 -60 -146 -60z" />
    <glyph glyph-name="ygrave.ss01" horiz-adv-x="1302" 
d="M807 1024h391v-815q0 -256 -171 -392t-447 -136q-326 0 -506 180v26l157 205h29q53 -55 143 -92q89 -37 183 -37t165 42t70 124v49q-84 -88 -233 -88t-284 90q-67 45 -107 128q-41 83 -41 190v135q0 66 -45 65q-18 0 -29 -10l-25 14l-43 267l15 28q88 51 204 52
q313 0 314 -336v-148q0 -63 34 -103t98 -40t96 40t32 103v459zM862 1135h-20l-475 282v21l178 215h20l412 -363v-20z" />
    <glyph glyph-name="uni1EF9.ss01" horiz-adv-x="1302" 
d="M807 1024h391v-815q0 -256 -171 -392t-447 -136q-326 0 -506 180v26l157 205h29q53 -55 143 -92q89 -37 183 -37t165 42t70 124v49q-84 -88 -233 -88t-284 90q-67 45 -107 128q-41 83 -41 190v135q0 66 -45 65q-18 0 -29 -10l-25 14l-43 267l15 28q88 51 204 52
q313 0 314 -336v-148q0 -63 34 -103t98 -40t96 40t32 103v459zM795 1399q102 0 137 71h24l144 -172v-28q-106 -121 -244 -121q-56 0 -156 36t-151 36q-102 0 -137 -72h-25l-143 172v29q106 121 243 120q55 0 155 -36t153 -35z" />
    <glyph glyph-name="f_t" horiz-adv-x="1732" 
d="M666 1464q121 0 225 -45l14 -28l-67 -250l-25 -15q-47 27 -92 27t-78 -27t-33 -73v-29h377v287l367 45l30 -19v-313h291v-287h-291v-288q0 -68 29 -102t74 -34t90 33l25 -14l106 -240l-10 -29q-119 -88 -290 -88t-296 108t-125 316v338h-381v-737h-401v737h-178v287h180
v31q0 203 134 306q135 103 325 103z" />
    <glyph glyph-name="ordfeminine.ss01" horiz-adv-x="915" 
d="M420 897q51 0 83 35t32 88t-32 88t-83 35t-82 -35t-31 -88t31 -88t82 -35zM731 690q-109 0 -156 78q-85 -80 -213 -80t-219 95q-90 95 -90 237t90 236q89 96 215 96t213 -78v63h195v-391q0 -41 31 -41q10 0 16 6l14 -8l27 -164l-8 -18q-51 -31 -115 -31z" />
    <glyph glyph-name="ampersand.ss01" horiz-adv-x="1406" 
d="M1376 772v-250h-112q10 -51 10 -96q0 -201 -164 -326t-440 -125t-447 127q-170 127 -170 326q0 240 240 369q-92 89 -92 227t128 234t328 98q246 0 406 -180v-33l-160 -139h-37l-20 20q-8 8 -18 17t-17 15q-57 52 -128 52q-70 0 -105 -31t-35 -83t34 -83t87 -30h51v-271
h-51q-92 0 -150 -47t-59 -123q0 -76 58 -124q59 -48 151 -48t150 48t58 126q0 41 -26 80v250h530z" />
    <glyph glyph-name="uni0326.001" horiz-adv-x="0" 
d="M-408 1475l23 20h285l18 -20l-158 -431l-24 -20h-193l-18 20z" />
    <glyph glyph-name="acute.case" horiz-adv-x="765" 
d="M535 1585h28l142 -233v-29l-535 -201h-29l-80 144v28z" />
    <glyph glyph-name="breve.case" horiz-adv-x="921" 
d="M461 1143q-160 0 -271 106t-129 269h234q12 -74 57 -120q44 -46 108 -46t109 46t58 120h233q-18 -162 -128 -268t-271 -107z" />
    <glyph glyph-name="caron.case" horiz-adv-x="989" 
d="M825 1561l88 -150v-29l-403 -235h-31l-403 235v29l88 150h29l303 -142l301 142h28z" />
    <glyph glyph-name="circumflex.case" horiz-adv-x="989" 
d="M508 1561l403 -236v-29l-88 -149h-28l-301 141l-304 -141h-28l-88 149v29l403 236h31z" />
    <glyph glyph-name="dieresis.case" horiz-adv-x="1171" 
d="M854 1147q-96 -1 -164 67t-67 164q0 96 67 164q68 68 164 68t164 -68t68 -164t-68 -164q-68 -67 -164 -67zM315 1147q-95 -1 -163 67t-68 164t69 164t163 68t162 -68q69 -68 69 -164t-69 -164t-163 -67z" />
    <glyph glyph-name="dotaccent.case" horiz-adv-x="628" 
d="M547 1375q0 -95 -71 -163t-164 -69q-94 1 -162 69t-68 162t69 164t163 70t164 -69q69 -69 69 -164z" />
    <glyph glyph-name="grave.case" horiz-adv-x="765" 
d="M231 1585l474 -291v-28l-80 -144h-29l-535 201v29l142 233h28z" />
    <glyph glyph-name="hungarumlaut.case" horiz-adv-x="1091" 
d="M705 1503h286l19 -20l-299 -361h-205l-14 27zM295 1503h287l18 -20l-299 -361h-205l-14 27z" />
    <glyph glyph-name="macron.case" horiz-adv-x="929" 
d="M82 1413h766v-248h-766v248z" />
    <glyph glyph-name="ring.case" horiz-adv-x="724" 
d="M362 1337q31 0 54 23q22 24 22 56t-22 54t-54 23q-32 0 -54 -23q-22 -24 -22 -56t23 -54q22 -22 53 -23zM362 1139q-116 0 -198 81q-82 82 -82 196t83 195t197 81t198 -81q83 -81 83 -196t-83 -195t-198 -81z" />
    <glyph glyph-name="tilde.case" horiz-adv-x="1056" 
d="M367 1497q69 0 201 -36t161 -36q102 0 141 72h29l109 -180v-29q-72 -129 -279 -129q-57 0 -183 36t-179 36q-111 0 -150 -72h-29l-100 180v29q72 129 279 129z" />
    <glyph glyph-name="IJacute" horiz-adv-x="1781" 
d="M879 1331h790v-721q0 -334 -129 -484t-416 -151q-119 -1 -254 55t-204 152v31l217 223h30q76 -100 181 -100q170 0 170 192v476h-385v327zM129 1331h406v-1331h-406v1331zM1491 1913h29l141 -234v-28l-535 -201h-28l-80 143v29zM522 1913h29l141 -234v-28l-534 -201h-29
l-80 143v29z" />
    <glyph glyph-name="ijacute" horiz-adv-x="1357" 
d="M852 1024h401v-678q0 -227 -26 -328q-25 -100 -67 -148q-90 -104 -263 -177h-31l-151 284v31q96 49 116 114t21 277v625zM109 0v1024h401v-1024h-401zM1149 1653h20l179 -215v-21l-476 -282h-20l-115 135v20zM406 1653h20l178 -215v-21l-475 -282h-20l-115 135v20z" />
    <glyph glyph-name="slashlong.case" horiz-adv-x="1583" 
d="M66 -100l-5 16l1022 1534h435l4 -16l-1018 -1534h-438z" />
    <glyph glyph-name="slashlong" horiz-adv-x="1300" 
d="M57 59l-16 27l846 1212h356l17 -26l-846 -1213h-357z" />
    <glyph glyph-name="slashshort.case" horiz-adv-x="911" 
d="M870 723l-800 -395l-29 16v324l801 395l28 -16v-324z" />
    <glyph glyph-name="slashshort" horiz-adv-x="897" 
d="M82 354v279l704 371h29v-279l-704 -371h-29z" />
    <glyph glyph-name="strokelong" horiz-adv-x="1548" 
d="M55 1143h1409v-246h-1409v246z" />
    <glyph glyph-name="strokeshort" horiz-adv-x="827" 
d="M61 565v201h705v-201h-705z" />
    </font>
</defs>
</svg>
