<?xml version="1.0" encoding="UTF-8"?>
<svg xmlns="http://www.w3.org/2000/svg" xmlns:xlink="http://www.w3.org/1999/xlink" version="1.2" >
<font id="Futura Cond Extra Bold Oblique">
<font-face  font-family="Futura Cond" units-per-em="1000" ascent="729" descent="-271" font-style="italic" font-weight="800" font-stretch="normal" slope="-7" cap-height="667" x-height="467" underline-position="-49" underline-thickness="110" />
<missing-glyph  horiz-adv-x="186" d="" />
<glyph glyph-name="NULL" d="" />
<glyph glyph-name="CR" unicode="&#xd;" horiz-adv-x="250" d="" />
<glyph glyph-name="space" unicode="&#x20;" horiz-adv-x="186" d="" />
<glyph glyph-name="exclam" unicode="&#x21;" horiz-adv-x="317" d="M154 193 C94 193 41 139 41 79 C41 28 79 -10 129 -10 C189 -10 242 43 242 104 C242 155 205 193 154 193 L154 193 Z M248 239 L306 705 L132 705 L75 239 L248 239 Z " />
<glyph glyph-name="quotedbl" unicode="&#x22;" horiz-adv-x="399" d="M184 392 L241 667 L84 667 L74 392 L184 392 Z M364 392 L422 667 L265 667 L255 392 L364 392 Z " />
<glyph glyph-name="numbersign" unicode="&#x23;" horiz-adv-x="533" d="M460 299 L398 299 L418 381 L491 381 L503 479 L442 479 L488 667 L387 667 L341 479 L288 479 L334 667 L234 667 L188 479 L113 479 L101 381 L164 381 L144 299 L68 299 L56 201 L120 201 L71 0 L172 0 L220 201 L273 201 L224 0 L325 0 L374 201 L448 201 L460 299 Z M317 381 L297 299 L244 299 L264 381 L317 381 Z " />
<glyph glyph-name="dollar" unicode="&#x24;" horiz-adv-x="524" d="M280 7 C334 32 361 55 389 97 C418 141 434 193 434 243 C434 303 414 345 362 390 C300 445 296 449 296 467 C296 492 318 511 346 511 C382 511 412 489 443 440 L468 642 C430 663 410 669 367 675 L378 763 L298 763 L287 670 C231 648 201 626 170 585 C136 541 117 483 117 429 C117 373 140 329 195 280 C250 229 253 226 253 203 C253 174 230 154 195 154 C154 154 115 181 91 229 L65 21 C112 -1 135 -6 197 -9 L187 -94 L268 -94 L280 7 Z " />
<glyph glyph-name="percent" unicode="&#x25;" horiz-adv-x="679" d="M226 677 C128 677 60 598 60 487 C60 402 108 351 187 351 C278 351 348 435 348 543 C348 625 301 677 226 677 L226 677 Z M212 579 C225 579 232 566 232 540 C232 488 217 448 197 448 C183 448 176 462 176 489 C176 541 191 579 212 579 L212 579 Z M522 316 C426 316 357 237 357 126 C357 41 405 -10 484 -10 C575 -10 645 74 645 183 C645 265 598 316 522 316 L522 316 Z M509 218 C522 218 529 205 529 179 C529 127 514 87 494 87 C480 87 473 101 473 128 C473 180 488 218 509 218 L509 218 Z M109 -23 L658 644 L594 694 L47 27 L109 -23 Z " />
<glyph glyph-name="ampersand" unicode="&#x26;" horiz-adv-x="620" d="M582 0 L507 124 C535 148 546 157 584 194 L508 316 C466 267 461 261 438 239 L384 325 C472 379 518 446 518 518 C518 610 441 679 339 679 C279 679 227 655 185 608 C152 571 134 526 134 482 C134 447 147 405 170 371 C81 323 33 253 33 169 C33 67 112 -12 215 -12 C268 -12 318 4 369 36 L390 0 L582 0 Z M295 160 C277 148 264 143 247 143 C222 143 203 163 203 191 C203 216 214 233 241 248 L295 160 Z M319 440 C300 476 296 486 296 501 C296 523 315 542 337 542 C355 542 368 529 368 511 C368 490 356 473 319 440 L319 440 Z " />
<glyph glyph-name="quotesingle" unicode="&#x27;" horiz-adv-x="218" d="M184 392 L242 667 L85 667 L75 392 L184 392 Z " />
<glyph glyph-name="parenleft" unicode="&#x28;" horiz-adv-x="330" d="M231 732 C105 544 42 346 42 140 C42 19 66 -98 115 -212 L251 -142 C214 -45 197 55 197 167 C197 328 251 504 350 662 L231 732 Z " />
<glyph glyph-name="parenright" unicode="&#x29;" horiz-adv-x="330" d="M106 -212 C232 -24 295 174 295 380 C295 501 271 616 222 732 L86 662 C123 564 140 465 140 353 C140 192 86 16 -13 -142 L106 -212 Z " />
<glyph glyph-name="asterisk" unicode="&#x2a;" horiz-adv-x="525" d="M268 735 L262 625 L166 677 L119 574 L220 534 L141 458 L223 381 L292 466 L338 367 L436 422 L378 515 L486 530 L465 641 L359 613 L379 721 L268 735 Z " />
<glyph glyph-name="plus" unicode="&#x2b;" horiz-adv-x="525" d="M59 288 L223 288 L223 110 L328 110 L328 288 L492 288 L492 392 L328 392 L328 570 L223 570 L223 392 L59 392 L59 288 Z " />
<glyph glyph-name="comma" unicode="&#x2c;" horiz-adv-x="289" d="M250 159 L76 159 L-44 -161 L96 -161 L250 159 Z " />
<glyph glyph-name="hyphen" unicode="&#x2d;" horiz-adv-x="213" d="M206 173 L223 306 L9 306 L-7 173 L206 173 Z " />
<glyph glyph-name="period" unicode="&#x2e;" horiz-adv-x="289" d="M139 192 C79 192 27 139 27 79 C27 28 65 -10 116 -10 C176 -10 228 42 228 102 C228 154 190 192 139 192 L139 192 Z " />
<glyph glyph-name="slash" unicode="&#x2f;" horiz-adv-x="582" d="M42 -212 L621 682 L535 732 L-44 -159 L42 -212 Z " />
<glyph glyph-name="zero" unicode="0" horiz-adv-x="524" d="M320 679 C156 679 38 502 38 254 C38 85 111 -12 239 -12 C319 -12 385 29 436 112 C484 190 512 301 512 418 C512 585 443 679 320 679 L320 679 Z M297 524 C327 524 339 496 339 425 C339 377 329 295 317 245 C300 173 281 144 250 144 C222 144 212 169 212 237 C212 301 219 372 232 426 C248 495 267 524 297 524 L297 524 Z " />
<glyph glyph-name="one" unicode="1" horiz-adv-x="524" d="M352 0 L433 667 L185 667 L166 510 L237 510 L174 1 L352 0 Z " />
<glyph glyph-name="two" unicode="2" horiz-adv-x="525" d="M452 0 L471 154 C382 153 365 152 306 148 C456 277 519 380 519 493 C519 605 445 679 334 679 C196 679 96 578 84 425 L256 425 C262 499 279 531 312 531 C332 531 346 512 346 486 C346 424 310 360 209 243 L0 0 L452 0 Z " />
<glyph glyph-name="three" unicode="3" horiz-adv-x="525" d="M35 196 C33 181 31 164 31 158 C31 56 109 -12 224 -12 C365 -12 474 87 474 214 C474 274 452 314 403 345 C468 382 501 437 501 507 C501 608 426 679 319 679 C198 679 107 601 82 477 L253 477 C262 518 272 530 294 530 C314 530 326 514 326 489 C326 433 300 407 244 407 C241 407 233 407 223 408 L206 266 C221 268 228 268 237 268 C279 268 301 247 301 208 C301 168 276 136 244 136 C220 136 206 151 206 177 C206 182 206 187 208 196 L35 196 Z " />
<glyph glyph-name="four" unicode="4" horiz-adv-x="524" d="M414 0 L431 135 L486 135 L504 278 L448 278 L496 667 L278 667 L32 275 L15 135 L253 135 L237 0 L414 0 Z M277 278 L179 278 C222 333 235 354 308 479 C300 439 298 423 295 403 L277 278 Z " />
<glyph glyph-name="five" unicode="5" horiz-adv-x="524" d="M24 40 C77 6 139 -12 198 -12 C351 -12 479 111 479 259 C479 362 409 436 311 436 C303 436 292 436 281 435 L304 510 L491 510 L510 667 L184 667 L85 278 C131 295 163 301 204 301 C266 301 300 277 300 235 C300 187 257 152 199 152 C156 152 115 166 64 198 L24 40 Z " />
<glyph glyph-name="six" unicode="6" horiz-adv-x="524" d="M452 667 L261 667 L187 550 C140 477 93 389 68 329 C49 284 39 235 39 191 C39 65 110 -12 227 -12 C374 -12 487 109 487 265 C487 369 429 444 349 444 C327 444 313 440 284 425 C304 450 310 457 323 477 L452 667 Z M273 313 C298 313 315 290 315 255 C315 182 289 132 251 132 C225 132 212 152 212 193 C212 265 237 313 273 313 L273 313 Z " />
<glyph glyph-name="seven" unicode="7" horiz-adv-x="524" d="M202 0 L579 667 L113 667 L94 510 L317 510 C276 458 248 416 213 355 L11 0 L202 0 Z " />
<glyph glyph-name="eight" unicode="8" horiz-adv-x="524" d="M399 347 C442 368 461 384 480 415 C498 444 508 480 508 514 C508 610 428 679 315 679 C186 679 82 583 82 465 C82 404 107 369 165 347 C122 331 102 318 80 293 C49 259 32 213 32 166 C32 64 118 -12 233 -12 C373 -12 483 89 483 217 C483 281 458 320 399 347 L399 347 Z M268 276 C291 276 304 257 304 225 C304 179 281 142 252 142 C229 142 216 161 216 194 C216 238 240 276 268 276 L268 276 Z M300 536 C319 536 331 519 331 493 C331 450 312 419 287 419 C267 419 256 435 256 464 C256 506 274 536 300 536 L300 536 Z " />
<glyph glyph-name="nine" unicode="9" horiz-adv-x="524" d="M98 0 L288 0 L363 117 C412 193 457 277 482 338 C501 383 511 432 511 476 C511 602 440 679 323 679 C176 679 63 558 63 402 C63 298 120 223 201 223 C222 223 236 227 265 242 C246 217 240 210 226 190 L98 0 Z M299 536 C325 536 338 516 338 476 C338 403 313 354 277 354 C252 354 235 377 235 412 C235 485 261 536 299 536 L299 536 Z " />
<glyph glyph-name="colon" unicode="&#x3a;" horiz-adv-x="289" d="M174 477 C114 477 62 425 62 365 C62 314 100 276 151 276 C211 276 263 328 263 388 C263 439 225 477 174 477 L174 477 Z M139 192 C79 192 27 139 27 79 C27 28 65 -10 116 -10 C176 -10 228 42 228 102 C228 154 190 192 139 192 L139 192 Z " />
<glyph glyph-name="semicolon" unicode="&#x3b;" horiz-adv-x="289" d="M250 159 L76 159 L-44 -161 L96 -161 L250 159 Z M207 477 C147 477 95 424 95 365 C95 313 133 275 184 275 C243 275 296 328 296 387 C296 439 258 477 207 477 L207 477 Z " />
<glyph glyph-name="less" unicode="&#x3c;" horiz-adv-x="500" d="M478 658 L45 418 L45 260 L478 19 L478 206 L245 338 L478 469 L478 658 Z " />
<glyph glyph-name="equal" unicode="&#x3d;" horiz-adv-x="525" d="M53 368 L500 368 L500 462 L53 462 L53 368 Z M53 218 L500 218 L500 312 L53 312 L53 218 Z " />
<glyph glyph-name="greater" unicode="&#x3e;" horiz-adv-x="500" d="M45 19 L478 259 L478 417 L45 658 L46 471 L278 339 L45 208 L45 19 Z " />
<glyph glyph-name="question" unicode="&#x3f;" horiz-adv-x="501" d="M247 193 C188 193 135 139 135 79 C135 28 172 -10 222 -10 C282 -10 335 43 335 104 C335 155 298 193 247 193 L247 193 Z M336 241 L345 310 C374 317 387 323 405 336 C460 374 496 448 496 525 C496 639 421 714 307 714 C230 714 156 677 115 619 C91 583 79 547 71 489 L242 489 C249 542 263 565 289 565 C309 565 319 548 319 512 C319 483 312 456 298 437 C282 413 257 403 214 403 C209 403 199 403 188 404 L168 241 L336 241 Z " />
<glyph glyph-name="at" unicode="&#x40;" horiz-adv-x="683" d="M509 508 L435 508 L430 488 C406 509 390 516 364 516 C280 516 216 431 216 319 C216 215 269 140 342 140 C376 140 398 152 426 184 C446 154 464 142 491 142 C580 142 654 251 654 382 C654 549 530 678 370 678 C193 678 56 528 56 334 C56 210 114 96 207 36 C256 5 315 -11 382 -11 C461 -11 516 5 599 52 L561 126 C507 93 437 74 373 74 C244 74 149 184 149 334 C149 482 245 595 370 595 C486 595 569 503 569 376 C569 299 532 222 496 222 C485 222 481 229 481 249 C481 259 482 277 484 289 L509 508 Z M369 427 C395 427 415 392 415 345 C415 285 382 228 347 228 C325 228 310 263 310 313 C310 377 336 427 369 427 L369 427 Z " />
<glyph glyph-name="A" unicode="A" horiz-adv-x="524" d="M491 0 L434 667 L217 667 L-23 0 L160 0 L185 85 L305 85 L307 0 L491 0 Z M301 228 L227 228 L258 333 C273 391 284 432 289 455 L302 508 C299 407 299 407 299 393 C299 372 299 313 300 306 L301 228 Z " />
<glyph glyph-name="B" unicode="B" horiz-adv-x="522" d="M18 0 L266 0 C338 0 399 27 439 76 C470 115 489 167 489 215 C489 293 456 329 372 342 C418 346 442 356 468 383 C497 414 512 455 512 502 C512 547 498 586 471 615 C437 651 386 667 306 667 L100 667 L18 0 Z M229 272 C234 273 241 273 243 273 C285 273 309 253 309 219 C309 174 276 144 228 144 C225 144 220 144 213 145 L229 272 Z M259 522 C266 523 275 523 278 523 C314 523 333 506 333 473 C333 452 323 433 306 421 C291 411 281 408 245 408 L259 522 Z " />
<glyph glyph-name="C" unicode="C" horiz-adv-x="438" d="M413 205 C374 173 349 162 315 162 C255 162 221 208 221 288 C221 420 279 512 361 512 C393 512 411 502 438 472 L461 663 C431 675 409 679 374 679 C274 679 185 632 121 546 C68 476 38 371 38 260 C38 94 129 -12 270 -12 C308 -12 333 -6 379 12 L413 205 Z " />
<glyph glyph-name="D" unicode="D" horiz-adv-x="529" d="M18 0 L184 0 C304 0 383 39 442 128 C490 199 517 299 517 399 C517 471 499 530 462 579 C417 639 351 667 253 667 L100 667 L18 0 Z M257 500 C259 501 261 501 262 501 C306 504 334 456 334 378 C334 316 319 253 296 213 C275 178 252 163 215 161 L257 500 Z " />
<glyph glyph-name="E" unicode="E" horiz-adv-x="405" d="M18 0 L348 0 L367 160 L215 160 L228 262 L364 262 L383 413 L246 413 L258 510 L410 510 L430 667 L100 667 L18 0 Z " />
<glyph glyph-name="F" unicode="F" horiz-adv-x="382" d="M195 0 L228 262 L354 262 L373 413 L246 413 L258 510 L394 510 L413 667 L100 667 L18 0 L195 0 Z " />
<glyph glyph-name="G" unicode="G" horiz-adv-x="552" d="M293 385 L276 245 L342 245 C333 184 306 148 268 148 C233 148 216 177 216 238 C216 284 223 342 237 402 C255 482 281 518 320 518 C347 518 363 492 363 449 L543 514 C509 624 440 679 337 679 C238 679 157 628 102 529 C61 456 37 353 37 252 C37 85 116 -12 253 -12 C360 -12 443 47 490 155 C514 210 529 276 541 385 L293 385 Z " />
<glyph glyph-name="H" unicode="H" horiz-adv-x="531" d="M457 0 L539 667 L362 667 L333 431 L248 431 L277 667 L100 667 L18 0 L195 0 L228 268 L313 268 L280 0 L457 0 Z " />
<glyph glyph-name="I" unicode="I" horiz-adv-x="269" d="M195 0 L277 667 L100 667 L18 0 L195 0 Z " />
<glyph glyph-name="J" unicode="J" horiz-adv-x="349" d="M-27 10 C16 -6 48 -12 86 -12 C148 -12 199 8 235 45 C273 84 290 125 300 204 L356 667 L179 667 L127 240 C120 183 100 157 62 157 C35 157 13 170 -4 196 L-27 10 Z " />
<glyph glyph-name="K" unicode="K" horiz-adv-x="533" d="M500 0 L383 345 L564 667 L377 667 L238 381 L277 667 L100 667 L18 0 L195 0 L229 307 L309 0 L500 0 Z " />
<glyph glyph-name="L" unicode="L" horiz-adv-x="363" d="M329 0 L348 160 L215 160 L277 667 L100 667 L18 0 L329 0 Z " />
<glyph glyph-name="M" unicode="M" horiz-adv-x="755" d="M694 0 L712 667 L493 667 L419 425 C406 383 398 354 389 312 C391 355 392 376 392 392 C392 406 392 422 391 442 L381 667 L160 667 L2 0 L192 0 L242 278 C245 300 248 323 251 344 C257 382 257 383 263 425 C262 399 262 382 262 355 L262 321 L274 0 L418 0 L510 297 C526 348 534 381 544 425 C542 401 541 390 540 382 L536 340 C536 335 535 321 533 304 L509 0 L694 0 Z " />
<glyph glyph-name="N" unicode="N" horiz-adv-x="554" d="M18 0 L187 0 L208 170 C216 234 220 289 224 384 C231 337 235 319 252 245 L311 0 L480 0 L562 667 L393 667 L374 517 C367 456 364 387 364 265 C341 383 341 387 329 433 L269 667 L100 667 L18 0 Z " />
<glyph glyph-name="O" unicode="O" horiz-adv-x="558" d="M337 679 C255 679 175 633 118 553 C68 482 39 375 39 263 C39 184 53 126 85 77 C121 23 187 -12 255 -12 C421 -12 547 170 547 412 C547 577 467 679 337 679 L337 679 Z M317 511 C347 511 363 477 363 409 C363 333 348 252 325 204 C312 176 290 157 270 157 C238 157 222 193 222 264 C222 399 265 511 317 511 L317 511 Z " />
<glyph glyph-name="P" unicode="P" horiz-adv-x="498" d="M195 0 L222 219 C234 218 246 218 250 218 C337 218 392 237 437 284 C483 330 510 402 510 474 C510 533 492 579 456 614 C417 650 360 667 272 667 L100 667 L18 0 L195 0 Z M241 368 L259 521 L272 522 C307 522 330 496 330 456 C330 404 296 368 249 368 L241 368 Z " />
<glyph glyph-name="Q" unicode="Q" horiz-adv-x="566" d="M506 -14 L437 78 C466 109 478 128 497 170 C529 240 548 330 548 410 C548 573 464 679 336 679 C164 679 37 500 37 256 C37 94 122 -12 250 -12 C270 -12 282 -10 304 -4 L354 -93 L506 -14 Z M313 511 C346 511 363 474 363 404 C363 266 322 157 270 157 C238 157 221 193 221 263 C221 332 235 407 258 460 C273 494 292 511 313 511 L313 511 Z " />
<glyph glyph-name="R" unicode="R" horiz-adv-x="525" d="M485 0 L387 277 C469 312 511 380 511 477 C511 536 491 586 455 619 C419 651 362 667 281 667 L100 667 L18 0 L195 0 L219 189 C220 206 221 206 227 277 C231 258 240 220 253 164 L293 0 L485 0 Z M259 517 L265 517 C311 517 334 496 334 454 C334 402 296 358 251 358 C249 358 244 358 239 359 L259 517 Z " />
<glyph glyph-name="S" unicode="S" horiz-adv-x="398" d="M6 17 C50 -3 92 -12 133 -12 C268 -12 375 102 375 246 C375 307 350 352 291 400 C242 439 235 448 235 469 C235 493 259 514 287 514 C323 514 359 486 382 441 L408 645 C367 668 327 679 284 679 C219 679 161 650 117 596 C79 550 56 488 56 434 C56 372 81 325 142 271 C190 229 193 225 193 203 C193 174 168 153 135 153 C96 153 60 178 32 226 L6 17 Z " />
<glyph glyph-name="T" unicode="T" horiz-adv-x="377" d="M247 0 L309 507 L411 507 L431 667 L54 667 L34 507 L132 507 L70 0 L247 0 Z " />
<glyph glyph-name="U" unicode="U" horiz-adv-x="537" d="M368 667 L315 236 C310 200 309 194 301 180 C293 166 277 157 261 157 C235 157 222 173 222 203 C222 213 223 225 224 237 L277 667 L100 667 L45 221 C43 205 42 188 42 172 C42 116 56 77 87 46 C124 9 181 -12 247 -12 C308 -12 357 4 402 40 C455 80 478 124 487 195 L545 667 L368 667 Z " />
<glyph glyph-name="V" unicode="V" horiz-adv-x="510" d="M304 0 L564 667 L372 667 L302 446 C276 357 261 298 249 232 C251 289 252 316 252 355 C252 395 251 432 249 476 L240 667 L54 667 L123 0 L304 0 Z " />
<glyph glyph-name="W" unicode="W" horiz-adv-x="742" d="M581 0 L796 667 L623 667 L565 460 C549 400 529 311 516 242 C517 270 517 292 517 305 C517 360 514 466 512 507 L501 667 L349 667 L292 476 C267 385 261 362 253 326 L236 250 C238 348 238 348 238 361 L237 426 C237 426 236 436 236 483 L229 667 L54 667 L118 0 L291 0 L354 242 C362 273 366 289 374 326 L384 374 C386 380 389 395 394 417 C395 353 397 292 398 234 L410 0 L581 0 Z " />
<glyph glyph-name="X" unicode="X" horiz-adv-x="509" d="M481 0 L362 346 L552 667 L353 667 L315 576 C307 557 302 544 291 509 L285 539 L282 558 C281 565 279 571 278 577 L260 667 L63 667 L174 346 L-28 0 L165 0 L208 88 C212 95 217 106 223 120 C233 144 241 163 248 179 C250 165 255 137 263 95 L284 0 L481 0 Z " />
<glyph glyph-name="Y" unicode="Y" horiz-adv-x="493" d="M312 0 L347 283 L547 667 L363 667 L319 567 C306 538 295 511 276 461 C270 513 270 513 259 568 L239 667 L54 667 L170 283 L135 0 L312 0 Z " />
<glyph glyph-name="Z" unicode="Z" horiz-adv-x="507" d="M440 0 L460 160 L322 156 C312 156 290 155 256 152 C298 221 325 266 336 285 L542 648 L544 667 L109 667 L90 510 L280 510 C238 454 227 437 171 340 L-10 14 L-12 0 L440 0 Z " />
<glyph glyph-name="bracketleft" unicode="&#x5b;" horiz-adv-x="344" d="M272 -90 L171 -90 L257 610 L358 610 L373 729 L121 729 L6 -209 L258 -209 L272 -90 Z " />
<glyph glyph-name="backslash" unicode="&#x5c;" horiz-adv-x="582" d="M432 -212 L531 -159 L171 732 L72 682 L432 -212 Z " />
<glyph glyph-name="bracketright" unicode="&#x5d;" horiz-adv-x="344" d="M80 610 L181 610 L95 -90 L-6 -90 L-21 -209 L231 -209 L346 729 L94 729 L80 610 Z " />
<glyph glyph-name="asciicircum" unicode="&#x5e;" horiz-adv-x="500" d="M183 337 L262 544 L341 337 L506 337 L366 672 L157 672 L18 337 L183 337 Z " />
<glyph glyph-name="underscore" unicode="&#x5f;" horiz-adv-x="500" d="M12 -49 L12 -159 L512 -159 L512 -49 L12 -49 Z " />
<glyph glyph-name="grave" unicode="&#x60;" horiz-adv-x="500" d="M182 675 L243 530 L339 530 L314 675 L182 675 Z " />
<glyph glyph-name="a" unicode="a" horiz-adv-x="489" d="M421 0 L479 467 L305 467 C304 458 304 448 304 447 L302 419 L301 393 C278 454 250 477 201 477 C97 477 22 347 22 167 C22 56 64 -10 136 -10 C189 -10 227 16 266 79 C263 65 260 53 259 48 C259 45 257 36 255 22 C253 14 252 7 251 0 L421 0 Z M254 334 C273 334 282 319 282 288 C282 258 276 211 268 183 C258 149 245 133 225 133 C204 133 194 150 194 187 C194 212 202 262 210 287 C220 318 235 334 254 334 L254 334 Z " />
<glyph glyph-name="b" unicode="b" horiz-adv-x="489" d="M185 0 C186 9 187 17 187 20 L188 39 L189 63 C216 9 241 -10 285 -10 C392 -10 467 117 467 299 C467 415 425 477 347 477 C297 477 265 456 228 400 C232 420 232 421 234 437 L240 474 L271 729 L101 729 L11 0 L185 0 Z M255 333 C277 333 289 312 289 274 C289 195 266 139 233 139 C213 139 203 158 203 195 C203 274 226 333 255 333 L255 333 Z " />
<glyph glyph-name="c" unicode="c" horiz-adv-x="298" d="M269 152 L257 152 C226 152 203 183 203 225 C203 282 236 319 290 323 L309 475 C294 476 282 477 274 477 C138 477 25 352 25 200 C25 71 94 -10 203 -10 C212 -10 232 -9 249 -7 L269 152 Z " />
<glyph glyph-name="d" unicode="d" horiz-adv-x="489" d="M422 0 L512 729 L341 729 L310 474 L308 451 L305 427 C305 426 304 412 303 400 C280 457 253 477 203 477 C148 477 101 444 70 383 C42 328 23 242 23 164 C23 54 68 -10 145 -10 C190 -10 219 9 259 63 C257 52 255 42 255 39 C252 29 251 22 251 20 C250 17 249 9 248 0 L422 0 Z M260 333 C278 333 288 312 288 275 C288 240 280 195 270 169 C262 151 248 139 235 139 C215 139 202 161 202 195 C202 276 226 333 260 333 L260 333 Z " />
<glyph glyph-name="e" unicode="e" horiz-adv-x="474" d="M266 158 C258 137 243 125 224 125 C203 125 192 143 192 177 C192 182 192 188 193 197 L443 197 C449 234 451 253 451 276 C451 399 382 476 272 476 C131 476 23 348 23 181 C23 60 90 -10 207 -10 C316 -10 396 48 433 155 L266 158 Z M207 290 C213 327 230 349 254 349 C274 349 287 331 287 303 C287 301 287 295 286 290 L207 290 Z " />
<glyph glyph-name="f" unicode="f" horiz-adv-x="296" d="M202 0 L242 328 L303 328 L320 467 L259 467 L267 532 C271 568 280 580 299 580 C310 580 316 577 332 564 L352 724 C319 733 298 736 273 736 C224 736 181 716 147 679 C121 650 106 611 99 553 L88 467 L39 467 L22 328 L71 328 L31 0 L202 0 Z " />
<glyph glyph-name="g" unicode="g" horiz-adv-x="485" d="M476 467 L304 467 L299 406 C269 459 245 477 206 477 C105 477 24 343 24 174 C24 64 72 -7 147 -7 C187 -7 227 14 261 54 L252 -20 C247 -67 233 -86 204 -86 C186 -86 173 -73 173 -55 L173 -48 L-1 -48 C1 -164 60 -217 184 -217 C242 -217 293 -202 334 -172 C384 -137 407 -92 417 -14 L476 467 Z M257 336 C276 336 284 319 284 279 C284 252 281 225 274 195 C265 155 252 136 232 136 C213 136 203 158 203 199 C203 278 226 336 257 336 L257 336 Z " />
<glyph glyph-name="h" unicode="h" horiz-adv-x="483" d="M416 0 L455 319 C456 333 457 344 457 361 C457 430 417 477 357 477 C304 477 260 444 224 378 C227 393 232 424 239 469 L271 729 L101 729 L11 0 L182 0 L211 235 C216 282 230 304 255 304 C269 304 277 293 277 273 C277 267 276 256 275 247 L245 0 L416 0 Z " />
<glyph glyph-name="i" unicode="i" horiz-adv-x="249" d="M182 0 L239 467 L68 467 L11 0 L182 0 Z M184 713 C125 713 72 660 72 600 C72 549 110 511 160 511 C219 511 272 564 272 624 C272 675 235 713 184 713 L184 713 Z " />
<glyph glyph-name="j" unicode="j" horiz-adv-x="250" d="M157 -205 L239 467 L68 467 L-13 -205 L157 -205 Z M183 713 C124 713 71 660 71 600 C71 549 109 511 159 511 C219 511 272 564 272 624 C272 676 235 713 183 713 L183 713 Z " />
<glyph glyph-name="k" unicode="k" horiz-adv-x="487" d="M263 0 L459 0 L365 253 L505 467 L320 467 L248 329 C230 295 225 285 213 257 L271 729 L101 729 L11 0 L182 0 L210 234 C215 203 217 192 219 181 L263 0 Z " />
<glyph glyph-name="l" unicode="l" horiz-adv-x="250" d="M182 0 L271 729 L101 729 L11 0 L182 0 Z " />
<glyph glyph-name="m" unicode="m" horiz-adv-x="722" d="M655 0 L694 320 C696 338 697 353 697 369 C697 433 654 477 592 477 C535 477 499 449 466 380 C447 447 413 477 356 477 C304 477 268 452 227 389 C229 403 231 413 232 418 L235 443 C235 444 237 456 239 467 L68 467 L11 0 L182 0 L210 233 C214 264 217 276 224 286 C232 298 245 306 258 306 C273 306 282 296 282 277 C282 268 282 267 278 235 L249 0 L419 0 L448 236 C454 285 470 309 496 309 C509 309 517 298 517 280 C517 271 517 267 514 245 L484 0 L655 0 Z " />
<glyph glyph-name="n" unicode="n" horiz-adv-x="483" d="M416 0 L455 319 C456 333 457 344 457 361 C457 430 417 477 357 477 C304 477 260 444 224 378 C231 416 233 428 239 467 L68 467 L11 0 L182 0 L211 235 C216 282 230 304 255 304 C269 304 277 293 277 273 C277 267 276 256 275 247 L245 0 L416 0 Z " />
<glyph glyph-name="o" unicode="o" horiz-adv-x="480" d="M269 477 C189 477 123 442 77 373 C43 323 24 256 24 190 C24 64 92 -10 208 -10 C356 -10 456 105 456 275 C456 404 388 477 269 477 L269 477 Z M255 346 C277 346 291 317 291 271 C291 190 261 121 226 121 C204 121 190 150 190 197 C190 277 220 346 255 346 L255 346 Z " />
<glyph glyph-name="p" unicode="p" horiz-adv-x="487" d="M157 -209 L181 -14 C184 24 185 32 186 63 C214 10 241 -10 285 -10 C337 -10 382 20 414 77 C445 132 465 214 465 290 C465 406 418 477 342 477 C294 477 262 456 227 401 L240 467 L69 467 L-14 -209 L157 -209 Z M257 334 C276 334 288 311 288 273 C288 200 262 136 232 136 C214 136 204 158 204 197 C204 273 228 334 257 334 L257 334 Z " />
<glyph glyph-name="q" unicode="q" horiz-adv-x="487" d="M224 -209 L394 -209 L477 467 L307 467 L303 401 C281 456 254 477 206 477 C104 477 23 343 23 173 C23 56 66 -10 143 -10 C188 -10 221 10 261 63 C255 34 254 25 248 -14 L224 -209 Z M256 334 C275 334 286 312 286 273 C286 199 261 136 233 136 C213 136 201 160 201 198 C201 274 225 334 256 334 L256 334 Z " />
<glyph glyph-name="r" unicode="r" horiz-adv-x="339" d="M182 0 L206 200 C211 239 217 255 233 273 C248 290 269 300 290 300 C305 300 316 296 335 284 L359 478 C302 479 250 441 219 376 L239 467 L68 467 L11 0 L182 0 Z " />
<glyph glyph-name="s" unicode="s" horiz-adv-x="389" d="M0 39 C66 1 102 -10 159 -10 C228 -10 282 14 321 61 C347 94 363 135 363 172 C363 201 353 228 336 247 C323 262 308 270 268 287 C235 301 222 313 222 328 C222 343 235 354 252 354 C271 354 290 342 316 312 L390 439 C343 466 304 477 258 477 C142 477 49 398 49 299 C49 244 81 207 154 180 C183 169 194 160 194 146 C194 131 178 119 158 119 C133 119 103 137 78 168 L0 39 Z " />
<glyph glyph-name="t" unicode="t" horiz-adv-x="297" d="M205 0 L245 328 L302 328 L319 467 L262 467 L279 604 L109 604 L92 467 L43 467 L26 328 L75 328 L34 0 L205 0 Z " />
<glyph glyph-name="u" unicode="u" horiz-adv-x="492" d="M69 467 L34 180 C33 168 32 159 32 144 C32 94 47 61 83 33 C118 5 165 -10 217 -10 C269 -10 320 5 362 33 C414 67 438 110 447 180 L482 467 L311 467 L279 204 C273 151 263 135 235 135 C215 135 205 146 205 169 C205 177 206 191 208 204 L240 467 L69 467 Z " />
<glyph glyph-name="v" unicode="v" horiz-adv-x="439" d="M277 0 L468 467 L300 467 L252 321 C239 280 229 245 211 172 C213 255 213 255 213 265 C213 290 212 317 211 330 L202 467 L29 467 L99 0 L277 0 Z " />
<glyph glyph-name="w" unicode="w" horiz-adv-x="672" d="M509 0 L701 467 L530 467 L491 351 C474 300 462 259 443 186 C445 219 445 235 445 256 C445 276 445 296 444 317 L438 467 L293 467 L246 331 C228 276 213 220 206 186 L206 225 L205 317 L197 467 L29 467 L86 0 L254 0 L341 280 L341 0 L509 0 Z " />
<glyph glyph-name="x" unicode="x" horiz-adv-x="475" d="M447 0 L328 244 L491 467 L302 467 L277 417 L264 392 C263 388 258 379 252 366 L248 391 L243 414 L232 467 L37 467 L141 240 L-28 0 L163 0 L189 43 C210 81 213 88 224 110 C228 90 228 89 238 43 L249 0 L447 0 Z " />
<glyph glyph-name="y" unicode="y" horiz-adv-x="449" d="M186 -196 L478 467 L308 467 L270 366 C257 330 245 291 222 202 C222 262 221 302 217 333 L201 467 L29 467 L111 19 L10 -196 L186 -196 Z " />
<glyph glyph-name="z" unicode="z" horiz-adv-x="428" d="M356 0 L374 141 L247 141 C274 179 281 190 303 229 L441 467 L70 467 L53 328 L183 328 C160 293 147 273 129 242 L-12 0 L356 0 Z " />
<glyph glyph-name="braceleft" unicode="&#x7b;" horiz-adv-x="361" d="M285 539 C293 604 296 607 362 609 L381 609 L391 609 L406 730 C385 730 377 730 365 731 C336 732 334 732 325 732 C211 732 161 689 147 580 L125 399 C114 342 103 329 62 321 L48 208 C84 201 93 189 93 149 C93 138 93 133 91 120 L69 -59 C68 -71 67 -81 67 -96 C67 -177 109 -212 208 -212 L218 -212 C242 -211 256 -211 262 -210 L291 -210 L306 -89 C293 -90 286 -90 278 -90 C226 -90 214 -84 214 -60 C214 -48 215 -29 216 -19 L235 129 C236 142 237 155 237 166 C237 212 226 234 191 260 C240 290 256 317 267 390 L285 539 Z " />
<glyph glyph-name="bar" unicode="&#x7c;" horiz-adv-x="500" d="M167 667 L167 -167 L358 -167 L358 667 L167 667 Z " />
<glyph glyph-name="braceright" unicode="&#x7d;" horiz-adv-x="361" d="M84 -19 C76 -84 73 -87 7 -89 L-12 -89 L-22 -89 L-37 -210 C-16 -210 -8 -210 4 -211 C33 -212 35 -212 44 -212 C158 -212 208 -169 222 -60 L244 121 C255 178 266 192 307 199 L321 312 C285 319 276 331 276 370 C276 379 276 386 278 400 L300 579 C302 593 303 608 303 617 C303 697 261 732 161 732 L151 732 L133 731 C121 731 113 731 107 730 L78 730 L64 609 C76 610 84 610 92 610 C144 610 156 604 156 579 C156 566 156 563 153 539 L135 391 C133 378 132 364 132 353 C132 308 143 286 178 260 C129 230 113 203 103 130 L84 -19 Z " />
<glyph glyph-name="asciitilde" unicode="&#x7e;" horiz-adv-x="657" d="M167 561 C192 607 214 626 243 626 C260 626 282 619 317 603 C388 571 403 566 427 566 C499 566 542 602 580 693 L517 745 C493 699 470 680 440 680 C422 680 415 682 360 707 C303 732 272 742 248 742 C188 742 140 699 105 613 L167 561 Z " />
<glyph glyph-name="uni00A0" unicode="&#xa0;" horiz-adv-x="186" d="" />
<glyph glyph-name="exclamdown" unicode="&#xa1;" horiz-adv-x="317" d="M193 506 C133 506 80 453 80 392 C80 341 117 303 168 303 C228 303 281 357 281 417 C281 468 243 506 193 506 L193 506 Z M73 257 L16 -209 L189 -209 L247 257 L73 257 Z " />
<glyph glyph-name="cent" unicode="&#xa2;" horiz-adv-x="524" d="M307 109 L319 110 L337 111 C340 111 346 111 355 112 L374 274 C370 273 366 273 363 273 C331 273 308 302 308 343 C308 366 316 390 329 408 C346 431 363 440 395 442 L413 590 C397 593 390 594 382 594 C379 594 373 594 366 593 L374 651 L291 651 L281 572 C232 548 205 524 177 480 C146 430 129 371 129 314 C129 229 160 170 227 128 L213 18 L296 18 L307 109 Z " />
<glyph glyph-name="sterling" unicode="&#xa3;" horiz-adv-x="524" d="M394 159 C376 136 359 127 338 127 C326 127 320 129 303 138 C273 154 261 157 232 159 C263 193 288 248 290 288 L438 288 L450 381 L291 381 C291 395 290 399 287 418 C279 457 278 466 278 477 C278 510 303 538 333 538 C357 538 373 524 392 488 L499 584 C450 645 389 677 318 677 C196 677 101 586 101 468 C101 448 102 440 113 381 L80 381 L69 288 L129 288 C135 257 137 242 137 224 C137 180 130 157 109 126 C76 111 70 107 26 78 L65 -4 C104 19 125 26 154 26 C176 26 179 25 224 6 C252 -6 278 -12 305 -12 C378 -12 435 29 476 111 L394 159 Z " />
<glyph glyph-name="currency" unicode="&#xa4;" horiz-adv-x="695" d="M37 120 L125 31 L227 134 C277 106 315 95 362 95 C409 95 450 107 496 135 L598 31 L685 121 L582 225 C608 272 618 308 618 354 C618 402 607 440 578 489 L681 593 L594 682 L488 576 C441 602 407 611 361 611 C315 611 280 601 232 575 L126 683 L37 593 L143 487 C117 441 105 400 105 354 C105 311 117 265 140 224 L37 120 Z M363 464 C421 464 469 414 469 355 C469 294 421 245 362 245 C303 245 255 294 255 354 C255 416 302 464 363 464 L363 464 Z " />
<glyph glyph-name="yen" unicode="&#xa5;" horiz-adv-x="525" d="M512 295 L370 295 L404 361 L520 361 L528 433 L442 433 L563 667 L380 667 L335 567 C322 537 313 516 292 460 C288 494 286 512 283 529 L275 568 L255 667 L70 667 L141 433 L48 433 L39 361 L162 361 L182 295 L31 295 L22 223 L179 223 L152 0 L329 0 L356 223 L503 223 L512 295 Z " />
<glyph glyph-name="brokenbar" unicode="&#xa6;" horiz-adv-x="500" d="M167 667 L167 305 L358 305 L358 667 L167 667 Z M167 153 L167 -167 L358 -167 L358 153 L167 153 Z " />
<glyph glyph-name="section" unicode="&#xa7;" horiz-adv-x="525" d="M19 8 C17 -12 15 -35 15 -46 C15 -147 91 -214 207 -214 C348 -214 460 -110 460 20 C460 72 445 105 404 141 C457 180 487 236 487 297 C487 362 455 404 365 455 C275 506 275 506 264 517 C253 528 248 539 248 553 C248 588 272 612 309 612 C345 612 364 591 364 551 C364 543 362 525 360 509 L500 509 C504 540 506 557 506 572 C506 675 444 733 335 733 C204 733 102 639 102 520 C102 479 111 455 142 409 C83 367 52 310 52 244 C52 167 84 130 219 54 C278 21 291 7 291 -20 C291 -57 262 -85 224 -85 C184 -85 163 -64 163 -24 C163 -15 164 -8 166 8 L19 8 Z M277 335 C313 335 335 314 335 279 C335 236 304 205 261 205 C227 205 204 229 204 263 C204 303 236 335 277 335 L277 335 Z " />
<glyph glyph-name="dieresis" unicode="&#xa8;" horiz-adv-x="500" d="M215 674 C173 674 135 637 135 594 C135 557 162 530 199 530 C241 530 279 568 279 610 C279 647 252 674 215 674 L215 674 Z M401 674 C359 674 321 637 321 594 C321 557 348 530 385 530 C427 530 465 568 465 610 C465 647 438 674 401 674 L401 674 Z " />
<glyph glyph-name="copyright" unicode="&#xa9;" horiz-adv-x="749" d="M482 270 C478 267 474 264 471 261 C444 240 432 235 412 235 C378 235 358 261 358 307 C358 382 391 435 439 435 C455 435 466 430 480 416 L484 411 L493 402 L508 529 C483 538 474 540 448 540 C320 540 230 437 230 293 C230 191 290 126 384 126 C411 126 423 129 459 142 L482 270 Z M393 682 C199 682 46 528 46 333 C46 141 200 -15 388 -15 C576 -15 729 141 729 333 C729 524 577 682 393 682 L393 682 Z M392 609 C533 609 651 484 651 333 C651 181 533 57 388 57 C243 57 124 181 124 332 C124 488 242 609 392 609 L392 609 Z " />
<glyph glyph-name="ordfeminine" unicode="&#xaa;" horiz-adv-x="280" d="M278 393 L310 661 L211 661 C209 637 209 635 209 619 C196 653 179 667 151 667 C92 667 49 592 49 489 C49 425 73 387 114 387 C145 387 167 402 189 439 C186 426 185 422 184 415 L180 393 L278 393 Z M181 585 C192 585 197 577 197 559 C197 508 183 470 164 470 C152 470 147 480 147 502 C147 547 162 585 181 585 L181 585 Z M265 294 L272 347 L30 347 L23 294 L265 294 Z " />
<glyph glyph-name="guillemotleft" unicode="&#xab;" horiz-adv-x="475" d="M153 39 L236 97 L142 240 L271 383 L202 441 L28 240 L153 39 Z M350 39 L433 97 L339 240 L468 383 L399 441 L225 240 L350 39 Z " />
<glyph glyph-name="logicalnot" unicode="&#xac;" horiz-adv-x="500" d="M293 0 L478 0 L478 298 L45 298 L45 132 L293 132 L293 0 Z " />
<glyph glyph-name="uni00AD" unicode="&#xad;" horiz-adv-x="213" d="M206 173 L223 306 L9 306 L-7 173 L206 173 Z " />
<glyph glyph-name="registered" unicode="&#xae;" horiz-adv-x="749" d="M531 133 L467 299 L470 300 C517 320 543 362 543 416 C543 494 492 533 391 533 L271 533 L221 133 L346 133 L362 261 L396 133 L531 133 Z M384 438 C408 436 418 426 418 404 C418 374 398 351 373 351 L384 438 Z M393 682 C199 682 46 528 46 333 C46 141 200 -15 388 -15 C576 -15 729 141 729 333 C729 524 577 682 393 682 L393 682 Z M392 609 C533 609 651 484 651 333 C651 181 533 57 388 57 C243 57 124 181 124 332 C124 488 242 609 392 609 L392 609 Z " />
<glyph glyph-name="macron" unicode="&#xaf;" horiz-adv-x="500" d="M148 557 L460 557 L471 650 L159 650 L148 557 Z " />
<glyph glyph-name="degree" unicode="&#xb0;" horiz-adv-x="525" d="M299 684 C207 684 134 614 134 525 C134 438 207 367 297 367 C386 367 459 438 459 526 C459 612 386 684 299 684 L299 684 Z M296 602 C337 602 370 567 370 526 C370 483 337 449 296 449 C255 449 221 483 221 525 C221 568 254 602 296 602 L296 602 Z " />
<glyph glyph-name="plusminus" unicode="&#xb1;" horiz-adv-x="524" d="M46 288 L223 288 L223 117 L328 117 L328 288 L506 288 L506 392 L328 392 L328 570 L223 570 L223 392 L46 392 L46 288 Z M46 -27 L506 -27 L506 77 L46 77 L46 -27 Z " />
<glyph glyph-name="twosuperior" unicode="&#xb2;" horiz-adv-x="347" d="M313 267 L324 362 C272 362 260 361 228 359 C316 435 353 494 353 561 C353 629 307 674 238 674 C151 674 91 613 83 519 L193 519 C195 562 205 582 224 582 C235 582 243 572 243 557 C243 521 221 483 161 414 L31 267 L313 267 Z " />
<glyph glyph-name="threesuperior" unicode="&#xb3;" horiz-adv-x="347" d="M57 387 C56 378 55 367 55 362 C55 301 103 260 175 260 C261 260 328 319 328 396 C328 431 315 456 287 473 C324 495 344 529 344 570 C344 631 297 674 231 674 C155 674 100 627 84 550 L193 550 C199 576 203 582 216 582 C226 582 233 573 233 559 C233 527 218 512 186 512 L172 513 L161 424 C173 425 174 425 180 425 C205 425 218 414 218 392 C218 369 204 352 187 352 C174 352 166 360 166 374 L166 387 L57 387 Z " />
<glyph glyph-name="acute" unicode="&#xb4;" horiz-adv-x="500" d="M439 675 L302 675 L239 530 L338 530 L439 675 Z " />
<glyph glyph-name="mu" unicode="&#xb5;" horiz-adv-x="492" d="M158 -205 L145 4 C172 -6 192 -10 220 -10 C269 -10 321 5 362 33 C413 67 438 110 447 180 L482 467 L311 467 L279 204 C273 151 263 135 235 135 C215 135 205 146 205 169 C205 178 206 191 208 204 L240 467 L69 467 L-12 -205 L158 -205 Z " />
<glyph glyph-name="paragraph" unicode="&#xb6;" horiz-adv-x="525" d="M95 -99 L209 -99 L284 510 L361 510 L286 -99 L400 -99 L475 510 L540 510 L559 667 L237 667 C177 667 131 650 102 616 C69 578 50 521 50 463 C50 387 85 343 149 340 L95 -99 Z " />
<glyph glyph-name="periodcentered" unicode="&#xb7;" horiz-adv-x="288" d="M156 341 C97 341 45 288 45 228 C45 177 83 139 133 139 C193 139 245 192 245 251 C245 303 207 341 156 341 L156 341 Z " />
<glyph glyph-name="cedilla" unicode="&#xb8;" horiz-adv-x="500" d="M333 -99 L246 -44 L147 -178 L210 -224 L333 -99 Z " />
<glyph glyph-name="onesuperior" unicode="&#xb9;" horiz-adv-x="347" d="M251 267 L300 667 L145 667 L133 570 L176 570 L139 267 L251 267 Z " />
<glyph glyph-name="ordmasculine" unicode="&#xba;" horiz-adv-x="276" d="M191 667 C110 667 50 597 50 502 C50 430 89 388 156 388 C241 388 299 454 299 551 C299 625 260 667 191 667 L191 667 Z M183 592 C196 592 204 575 204 548 C204 502 187 463 167 463 C154 463 146 479 146 507 C146 553 163 592 183 592 L183 592 Z M266 294 L273 347 L31 347 L24 294 L266 294 Z " />
<glyph glyph-name="guillemotright" unicode="&#xbb;" horiz-adv-x="475" d="M276 39 L450 240 L326 441 L242 383 L336 240 L207 97 L276 39 Z M79 39 L253 240 L129 441 L45 383 L139 240 L10 97 L79 39 Z " />
<glyph glyph-name="onequarter" unicode="&#xbc;" horiz-adv-x="831" d="M251 267 L300 667 L145 667 L133 570 L176 570 L139 267 L251 267 Z M227 -44 L696 672 L628 711 L161 -5 L227 -44 Z M741 0 L751 80 L785 80 L796 169 L762 169 L790 400 L655 400 L504 166 L494 80 L639 80 L629 0 L741 0 Z M654 169 L600 169 C622 197 630 210 670 276 C667 260 666 254 664 241 L654 169 Z " />
<glyph glyph-name="onehalf" unicode="&#xbd;" horiz-adv-x="831" d="M251 267 L300 667 L145 667 L133 570 L176 570 L139 267 L251 267 Z M227 -44 L696 672 L628 711 L161 -5 L227 -44 Z M764 0 L775 95 C723 95 711 94 679 92 C767 168 804 227 804 294 C804 362 758 407 689 407 C602 407 542 346 534 252 L643 252 C646 296 656 315 675 315 C686 315 694 305 694 290 C694 254 672 215 612 147 L482 0 L764 0 Z " />
<glyph glyph-name="threequarters" unicode="&#xbe;" horiz-adv-x="831" d="M57 387 C56 378 55 367 55 362 C55 301 103 260 175 260 C261 260 328 319 328 396 C328 431 315 456 287 473 C324 495 344 529 344 570 C344 631 297 674 231 674 C155 674 100 627 84 550 L193 550 C199 576 203 582 216 582 C226 582 233 573 233 559 C233 527 218 512 186 512 L172 513 L161 424 C173 425 174 425 180 425 C205 425 218 414 218 392 C218 369 204 352 187 352 C174 352 166 360 166 374 L166 387 L57 387 Z M226 -44 L696 672 L628 711 L160 -5 L226 -44 Z M741 0 L751 80 L785 80 L796 169 L762 169 L790 400 L654 400 L504 166 L493 80 L638 80 L628 0 L741 0 Z M653 169 L599 169 C621 196 631 212 669 276 C666 258 665 250 663 241 L653 169 Z " />
<glyph glyph-name="questiondown" unicode="&#xbf;" horiz-adv-x="501" d="M282 506 C223 506 170 453 170 392 C170 341 207 303 257 303 C316 303 369 357 369 417 C369 468 332 506 282 506 L282 506 Z M168 255 L160 186 C131 179 118 173 99 160 C44 122 9 48 9 -29 C9 -143 84 -218 198 -218 C275 -218 349 -181 390 -123 C414 -87 426 -51 434 7 L263 7 C256 -46 242 -69 216 -69 C196 -69 186 -52 186 -16 C186 13 193 40 206 59 C222 83 248 93 290 93 C296 93 305 93 317 92 L337 255 L168 255 Z " />
<glyph glyph-name="Agrave" unicode="&#xc0;" horiz-adv-x="524" d="M491 0 L434 667 L217 667 L-23 0 L160 0 L185 85 L305 85 L307 0 L491 0 Z M301 228 L227 228 L258 333 C273 391 284 432 289 455 L302 508 C299 407 299 407 299 393 C299 372 299 313 300 306 L301 228 Z M225 865 L286 720 L381 720 L357 865 L225 865 Z " />
<glyph glyph-name="Aacute" unicode="&#xc1;" horiz-adv-x="524" d="M491 0 L434 667 L217 667 L-23 0 L160 0 L185 85 L305 85 L307 0 L491 0 Z M301 228 L227 228 L258 333 C273 391 284 432 289 455 L302 508 C299 407 299 407 299 393 C299 372 299 313 300 306 L301 228 Z M472 865 L335 865 L272 720 L370 720 L472 865 Z " />
<glyph glyph-name="Acircumflex" unicode="&#xc2;" horiz-adv-x="524" d="M491 0 L434 667 L217 667 L-23 0 L160 0 L185 85 L305 85 L307 0 L491 0 Z M301 228 L227 228 L258 333 C273 391 284 432 289 455 L302 508 C299 407 299 407 299 393 C299 372 299 313 300 306 L301 228 Z M492 720 L428 858 L282 858 L170 720 L287 720 L337 783 L362 720 L492 720 Z " />
<glyph glyph-name="Atilde" unicode="&#xc3;" horiz-adv-x="524" d="M491 0 L434 667 L217 667 L-23 0 L160 0 L185 85 L305 85 L307 0 L491 0 Z M301 228 L227 228 L258 333 C273 391 284 432 289 455 L302 508 C299 407 299 407 299 393 C299 372 299 313 300 306 L301 228 Z M426 853 C421 831 411 821 394 821 C386 821 376 823 367 828 C313 853 305 856 281 856 C221 856 177 809 162 730 L250 730 C255 750 267 762 280 762 C289 762 291 761 329 743 C356 730 369 727 390 727 C456 727 497 769 514 853 L426 853 Z " />
<glyph glyph-name="Adieresis" unicode="&#xc4;" horiz-adv-x="524" d="M491 0 L434 667 L217 667 L-23 0 L160 0 L185 85 L305 85 L307 0 L491 0 Z M301 228 L227 228 L258 333 C273 391 284 432 289 455 L302 508 C299 407 299 407 299 393 C299 372 299 313 300 306 L301 228 Z M441 865 C398 865 360 827 360 784 C360 747 387 720 424 720 C467 720 505 758 505 801 C505 838 478 865 441 865 L441 865 Z M245 865 C203 865 165 827 165 784 C165 747 192 720 228 720 C270 720 308 759 308 802 C308 838 282 865 245 865 L245 865 Z " />
<glyph glyph-name="Aring" unicode="&#xc5;" horiz-adv-x="524" d="M491 0 L434 667 L217 667 L-23 0 L160 0 L185 85 L305 85 L307 0 L491 0 Z M301 228 L227 228 L258 333 C273 391 284 432 289 455 L302 508 C299 407 299 407 299 393 C299 372 299 313 300 306 L301 228 Z M337 902 C285 902 243 859 243 806 C243 753 285 710 338 710 C389 710 432 753 432 804 C432 859 390 902 337 902 L337 902 Z M337 845 C358 845 375 828 375 806 C375 785 358 767 337 767 C316 767 299 785 299 806 C299 828 316 845 337 845 L337 845 Z " />
<glyph glyph-name="AE" unicode="&#xc6;" horiz-adv-x="606" d="M548 0 L568 160 L449 160 L445 262 L567 262 L585 413 L437 413 L434 510 L611 510 L630 667 L206 667 L-28 0 L156 0 L180 85 L294 85 L296 0 L548 0 Z M219 224 L259 369 C268 402 269 404 277 438 C283 461 288 484 293 506 C292 455 291 419 291 395 L293 224 L219 224 Z " />
<glyph glyph-name="Ccedilla" unicode="&#xc7;" horiz-adv-x="438" d="M413 205 C374 173 349 162 315 162 C255 162 221 208 221 288 C221 420 279 512 361 512 C393 512 411 502 438 472 L461 663 C431 675 409 679 374 679 C274 679 185 632 121 546 C68 476 38 371 38 260 C38 94 129 -12 270 -12 C308 -12 333 -6 379 12 L413 205 Z M298 -99 L211 -44 L112 -178 L175 -224 L298 -99 Z " />
<glyph glyph-name="Egrave" unicode="&#xc8;" horiz-adv-x="405" d="M18 0 L348 0 L367 160 L215 160 L228 262 L364 262 L383 413 L246 413 L258 510 L410 510 L430 667 L100 667 L18 0 Z M179 865 L240 720 L335 720 L311 865 L179 865 Z " />
<glyph glyph-name="Eacute" unicode="&#xc9;" horiz-adv-x="405" d="M18 0 L348 0 L367 160 L215 160 L228 262 L364 262 L383 413 L246 413 L258 510 L410 510 L430 667 L100 667 L18 0 Z M405 865 L268 865 L205 720 L304 720 L405 865 Z " />
<glyph glyph-name="Ecircumflex" unicode="&#xca;" horiz-adv-x="405" d="M18 0 L348 0 L367 160 L215 160 L228 262 L364 262 L383 413 L246 413 L258 510 L410 510 L430 667 L100 667 L18 0 Z M432 720 L368 858 L222 858 L110 720 L227 720 L277 783 L302 720 L432 720 Z " />
<glyph glyph-name="Edieresis" unicode="&#xcb;" horiz-adv-x="405" d="M18 0 L348 0 L367 160 L215 160 L228 262 L364 262 L383 413 L246 413 L258 510 L410 510 L430 667 L100 667 L18 0 Z M383 865 C340 865 302 827 302 784 C302 748 329 720 366 720 C408 720 446 758 446 801 C446 838 419 865 383 865 L383 865 Z M194 865 C152 865 114 827 114 784 C114 747 141 720 177 720 C219 720 257 759 257 802 C257 838 231 865 194 865 L194 865 Z " />
<glyph glyph-name="Igrave" unicode="&#xcc;" horiz-adv-x="269" d="M195 0 L277 667 L100 667 L18 0 L195 0 Z M93 865 L154 720 L249 720 L225 865 L93 865 Z " />
<glyph glyph-name="Iacute" unicode="&#xcd;" horiz-adv-x="269" d="M195 0 L277 667 L100 667 L18 0 L195 0 Z M336 865 L199 865 L135 720 L234 720 L336 865 Z " />
<glyph glyph-name="Icircumflex" unicode="&#xce;" horiz-adv-x="269" d="M195 0 L277 667 L100 667 L18 0 L195 0 Z M352 720 L291 858 L146 858 L40 720 L157 720 L200 783 L225 720 L352 720 Z " />
<glyph glyph-name="Idieresis" unicode="&#xcf;" horiz-adv-x="269" d="M195 0 L277 667 L100 667 L18 0 L195 0 Z M124 864 C82 864 44 827 44 784 C44 747 71 720 108 720 C150 720 188 758 188 800 C188 837 161 864 124 864 L124 864 Z M302 864 C260 864 222 827 222 784 C222 747 249 720 286 720 C328 720 366 758 366 800 C366 837 339 864 302 864 L302 864 Z " />
<glyph glyph-name="Eth" unicode="&#xd0;" horiz-adv-x="533" d="M21 0 L187 0 C307 0 386 39 445 128 C493 199 520 299 520 399 C520 471 502 530 465 579 C420 639 354 667 256 667 L103 667 L70 397 L31 397 L17 287 L56 287 L21 0 Z M234 287 L283 287 L297 397 L247 397 L260 501 L265 501 C309 504 337 456 337 378 C337 316 323 253 299 213 C279 178 255 163 218 161 L234 287 Z " />
<glyph glyph-name="Ntilde" unicode="&#xd1;" horiz-adv-x="554" d="M18 0 L187 0 L208 170 C216 234 220 289 224 384 C231 337 235 319 252 245 L311 0 L480 0 L562 667 L393 667 L374 517 C367 456 364 387 364 265 C341 383 341 387 329 433 L269 667 L100 667 L18 0 Z M436 853 C431 831 421 821 405 821 C396 821 386 823 377 828 C324 853 315 856 291 856 C232 856 187 809 172 730 L260 730 C266 750 277 762 291 762 C299 762 301 761 340 743 C366 730 379 727 401 727 C466 727 507 769 524 853 L436 853 Z " />
<glyph glyph-name="Ograve" unicode="&#xd2;" horiz-adv-x="558" d="M337 679 C255 679 175 633 118 553 C68 482 39 375 39 263 C39 184 53 126 85 77 C121 23 187 -12 255 -12 C421 -12 547 170 547 412 C547 577 467 679 337 679 L337 679 Z M317 511 C347 511 363 477 363 409 C363 333 348 252 325 204 C312 176 290 157 270 157 C238 157 222 193 222 264 C222 399 265 511 317 511 L317 511 Z M255 865 L317 720 L412 720 L388 865 L255 865 Z " />
<glyph glyph-name="Oacute" unicode="&#xd3;" horiz-adv-x="558" d="M337 679 C255 679 175 633 118 553 C68 482 39 375 39 263 C39 184 53 126 85 77 C121 23 187 -12 255 -12 C421 -12 547 170 547 412 C547 577 467 679 337 679 L337 679 Z M317 511 C347 511 363 477 363 409 C363 333 348 252 325 204 C312 176 290 157 270 157 C238 157 222 193 222 264 C222 399 265 511 317 511 L317 511 Z M489 865 L352 865 L289 720 L388 720 L489 865 Z " />
<glyph glyph-name="Ocircumflex" unicode="&#xd4;" horiz-adv-x="558" d="M337 679 C255 679 175 633 118 553 C68 482 39 375 39 263 C39 184 53 126 85 77 C121 23 187 -12 255 -12 C421 -12 547 170 547 412 C547 577 467 679 337 679 L337 679 Z M317 511 C347 511 363 477 363 409 C363 333 348 252 325 204 C312 176 290 157 270 157 C238 157 222 193 222 264 C222 399 265 511 317 511 L317 511 Z M516 720 L452 858 L306 858 L194 720 L311 720 L361 783 L386 720 L516 720 Z " />
<glyph glyph-name="Otilde" unicode="&#xd5;" horiz-adv-x="558" d="M337 679 C255 679 175 633 118 553 C68 482 39 375 39 263 C39 184 53 126 85 77 C121 23 187 -12 255 -12 C421 -12 547 170 547 412 C547 577 467 679 337 679 L337 679 Z M317 511 C347 511 363 477 363 409 C363 333 348 252 325 204 C312 176 290 157 270 157 C238 157 222 193 222 264 C222 399 265 511 317 511 L317 511 Z M456 853 C451 831 442 821 425 821 C417 821 407 823 397 828 C344 853 335 856 311 856 C252 856 207 809 192 730 L280 730 C286 750 297 762 311 762 C320 762 322 761 360 743 C386 730 400 727 421 727 C486 727 528 769 544 853 L456 853 Z " />
<glyph glyph-name="Odieresis" unicode="&#xd6;" horiz-adv-x="558" d="M337 679 C255 679 175 633 118 553 C68 482 39 375 39 263 C39 184 53 126 85 77 C121 23 187 -12 255 -12 C421 -12 547 170 547 412 C547 577 467 679 337 679 L337 679 Z M317 511 C347 511 363 477 363 409 C363 333 348 252 325 204 C312 176 290 157 270 157 C238 157 222 193 222 264 C222 399 265 511 317 511 L317 511 Z M469 865 C426 865 388 827 388 784 C388 747 415 720 452 720 C494 720 532 758 532 801 C532 838 505 865 469 865 L469 865 Z M273 865 C231 865 193 827 193 784 C193 747 220 720 256 720 C298 720 336 759 336 801 C336 838 310 865 273 865 L273 865 Z " />
<glyph glyph-name="multiply" unicode="&#xd7;" horiz-adv-x="524" d="M66 476 L201 339 L67 203 L140 128 L274 265 L410 127 L485 204 L350 341 L484 477 L410 552 L276 415 L141 553 L66 476 Z " />
<glyph glyph-name="Oslash" unicode="&#xd8;" horiz-adv-x="566" d="M57 -15 L107 48 C153 5 194 -12 250 -12 C339 -12 423 39 476 126 C522 201 551 310 551 411 C551 463 546 494 529 546 L598 632 L538 677 L487 613 C441 660 398 679 338 679 C166 679 41 499 41 252 C41 196 46 169 67 116 L3 34 L57 -15 Z M373 374 C363 296 358 270 347 238 C326 176 303 151 268 151 C249 151 238 159 230 180 L373 374 Z M219 289 C232 390 234 399 244 429 C264 488 288 516 319 516 C338 516 351 505 359 481 L219 289 Z " />
<glyph glyph-name="Ugrave" unicode="&#xd9;" horiz-adv-x="537" d="M368 667 L315 236 C310 200 309 194 301 180 C293 166 277 157 261 157 C235 157 222 173 222 203 C222 213 223 225 224 237 L277 667 L100 667 L45 221 C43 205 42 188 42 172 C42 116 56 77 87 46 C124 9 181 -12 247 -12 C308 -12 357 4 402 40 C455 80 478 124 487 195 L545 667 L368 667 Z M232 865 L293 720 L388 720 L364 865 L232 865 Z " />
<glyph glyph-name="Uacute" unicode="&#xda;" horiz-adv-x="537" d="M368 667 L315 236 C310 200 309 194 301 180 C293 166 277 157 261 157 C235 157 222 173 222 203 C222 213 223 225 224 237 L277 667 L100 667 L45 221 C43 205 42 188 42 172 C42 116 56 77 87 46 C124 9 181 -12 247 -12 C308 -12 357 4 402 40 C455 80 478 124 487 195 L545 667 L368 667 Z M469 865 L332 865 L268 720 L367 720 L469 865 Z " />
<glyph glyph-name="Ucircumflex" unicode="&#xdb;" horiz-adv-x="537" d="M368 667 L315 236 C310 200 309 194 301 180 C293 166 277 157 261 157 C235 157 222 173 222 203 C222 213 223 225 224 237 L277 667 L100 667 L45 221 C43 205 42 188 42 172 C42 116 56 77 87 46 C124 9 181 -12 247 -12 C308 -12 357 4 402 40 C455 80 478 124 487 195 L545 667 L368 667 Z M489 720 L425 858 L279 858 L167 720 L284 720 L334 783 L359 720 L489 720 Z " />
<glyph glyph-name="Udieresis" unicode="&#xdc;" horiz-adv-x="537" d="M368 667 L315 236 C310 200 309 194 301 180 C293 166 277 157 261 157 C235 157 222 173 222 203 C222 213 223 225 224 237 L277 667 L100 667 L45 221 C43 205 42 188 42 172 C42 116 56 77 87 46 C124 9 181 -12 247 -12 C308 -12 357 4 402 40 C455 80 478 124 487 195 L545 667 L368 667 Z M442 865 C399 865 361 827 361 784 C361 747 388 720 425 720 C467 720 505 758 505 801 C505 838 478 865 442 865 L442 865 Z M245 865 C203 865 165 827 165 784 C165 747 192 720 228 720 C270 720 308 759 308 802 C308 838 282 865 245 865 L245 865 Z " />
<glyph glyph-name="Yacute" unicode="&#xdd;" horiz-adv-x="493" d="M312 0 L347 283 L547 667 L363 667 L319 567 C306 538 295 511 276 461 C270 513 270 513 259 568 L239 667 L54 667 L170 283 L135 0 L312 0 Z M449 865 L312 865 L249 720 L347 720 L449 865 Z " />
<glyph glyph-name="Thorn" unicode="&#xde;" horiz-adv-x="498" d="M195 0 L211 125 L239 125 C325 125 381 144 425 191 C471 237 498 309 498 381 C498 459 463 520 403 549 C366 566 330 572 266 574 L277 667 L100 667 L18 0 L195 0 Z M248 427 C253 428 258 428 260 428 C296 428 318 402 318 362 C318 307 286 275 229 275 L248 427 Z " />
<glyph glyph-name="germandbls" unicode="&#xdf;" horiz-adv-x="518" d="M201 0 L265 523 C270 568 283 586 309 586 C331 586 342 572 342 544 C342 499 327 469 301 467 L284 328 C309 324 318 307 318 265 C318 237 313 206 304 185 C294 159 284 149 262 143 L244 0 C324 2 383 29 429 85 C468 132 495 206 495 266 C495 316 481 359 455 385 C442 399 427 405 399 410 C464 425 507 491 507 572 C507 668 430 741 328 741 C257 741 184 703 141 644 C110 601 98 563 87 467 L40 467 L23 328 L70 328 L30 0 L201 0 Z " />
<glyph glyph-name="agrave" unicode="&#xe0;" horiz-adv-x="489" d="M421 0 L479 467 L305 467 C304 458 304 448 304 447 L302 419 L301 393 C278 454 250 477 201 477 C97 477 22 347 22 167 C22 56 64 -10 136 -10 C189 -10 227 16 266 79 C263 65 260 53 259 48 C259 45 257 36 255 22 C253 14 252 7 251 0 L421 0 Z M254 334 C273 334 282 319 282 288 C282 258 276 211 268 183 C258 149 245 133 225 133 C204 133 194 150 194 187 C194 212 202 262 210 287 C220 318 235 334 254 334 L254 334 Z M194 675 L256 530 L351 530 L327 675 L194 675 Z " />
<glyph glyph-name="aacute" unicode="&#xe1;" horiz-adv-x="489" d="M421 0 L479 467 L305 467 C304 458 304 448 304 447 L302 419 L301 393 C278 454 250 477 201 477 C97 477 22 347 22 167 C22 56 64 -10 136 -10 C189 -10 227 16 266 79 C263 65 260 53 259 48 C259 45 257 36 255 22 C253 14 252 7 251 0 L421 0 Z M254 334 C273 334 282 319 282 288 C282 258 276 211 268 183 C258 149 245 133 225 133 C204 133 194 150 194 187 C194 212 202 262 210 287 C220 318 235 334 254 334 L254 334 Z M438 675 L301 675 L238 530 L337 530 L438 675 Z " />
<glyph glyph-name="acircumflex" unicode="&#xe2;" horiz-adv-x="489" d="M421 0 L479 467 L305 467 C304 458 304 448 304 447 L302 419 L301 393 C278 454 250 477 201 477 C97 477 22 347 22 167 C22 56 64 -10 136 -10 C189 -10 227 16 266 79 C263 65 260 53 259 48 C259 45 257 36 255 22 C253 14 252 7 251 0 L421 0 Z M254 334 C273 334 282 319 282 288 C282 258 276 211 268 183 C258 149 245 133 225 133 C204 133 194 150 194 187 C194 212 202 262 210 287 C220 318 235 334 254 334 L254 334 Z M457 530 L393 668 L258 668 L149 530 L261 530 L309 592 L334 530 L457 530 Z " />
<glyph glyph-name="atilde" unicode="&#xe3;" horiz-adv-x="489" d="M421 0 L479 467 L305 467 C304 458 304 448 304 447 L302 419 L301 393 C278 454 250 477 201 477 C97 477 22 347 22 167 C22 56 64 -10 136 -10 C189 -10 227 16 266 79 C263 65 260 53 259 48 C259 45 257 36 255 22 C253 14 252 7 251 0 L421 0 Z M254 334 C273 334 282 319 282 288 C282 258 276 211 268 183 C258 149 245 133 225 133 C204 133 194 150 194 187 C194 212 202 262 210 287 C220 318 235 334 254 334 L254 334 Z M392 663 C387 640 379 631 365 631 C358 631 350 633 340 638 C287 664 276 667 256 667 C201 667 156 617 141 540 L230 540 C236 565 242 572 256 572 C262 572 268 570 279 565 C330 540 338 537 361 537 C422 537 464 581 480 663 L392 663 Z " />
<glyph glyph-name="adieresis" unicode="&#xe4;" horiz-adv-x="489" d="M421 0 L479 467 L305 467 C304 458 304 448 304 447 L302 419 L301 393 C278 454 250 477 201 477 C97 477 22 347 22 167 C22 56 64 -10 136 -10 C189 -10 227 16 266 79 C263 65 260 53 259 48 C259 45 257 36 255 22 C253 14 252 7 251 0 L421 0 Z M254 334 C273 334 282 319 282 288 C282 258 276 211 268 183 C258 149 245 133 225 133 C204 133 194 150 194 187 C194 212 202 262 210 287 C220 318 235 334 254 334 L254 334 Z M221 674 C179 674 141 637 141 594 C141 557 168 530 205 530 C247 530 285 568 285 610 C285 647 258 674 221 674 L221 674 Z M407 674 C365 674 327 637 327 594 C327 557 354 530 391 530 C433 530 471 568 471 610 C471 647 444 674 407 674 L407 674 Z " />
<glyph glyph-name="aring" unicode="&#xe5;" horiz-adv-x="489" d="M421 0 L479 467 L305 467 C304 458 304 448 304 447 L302 419 L301 393 C278 454 250 477 201 477 C97 477 22 347 22 167 C22 56 64 -10 136 -10 C189 -10 227 16 266 79 C263 65 260 53 259 48 C259 45 257 36 255 22 C253 14 252 7 251 0 L421 0 Z M254 334 C273 334 282 319 282 288 C282 258 276 211 268 183 C258 149 245 133 225 133 C204 133 194 150 194 187 C194 212 202 262 210 287 C220 318 235 334 254 334 L254 334 Z M304 716 C252 716 210 673 210 620 C210 567 252 524 305 524 C356 524 399 567 399 618 C399 673 357 716 304 716 L304 716 Z M304 659 C325 659 342 642 342 620 C342 599 325 581 304 581 C283 581 266 599 266 620 C266 642 283 659 304 659 L304 659 Z " />
<glyph glyph-name="ae" unicode="&#xe6;" horiz-adv-x="724" d="M519 153 C508 129 494 118 475 118 C453 118 440 141 440 180 C440 183 440 190 441 198 L693 198 C698 234 700 251 700 275 C700 400 630 478 517 478 C469 478 429 465 380 432 C344 465 307 478 245 478 C200 478 166 473 104 457 L88 321 C128 340 163 348 204 348 C260 348 287 330 288 291 C250 299 230 301 202 301 C91 301 15 232 15 131 C15 47 79 -10 171 -10 C222 -10 277 7 326 38 C364 4 401 -10 456 -10 C570 -10 639 38 681 150 L519 153 Z M232 191 C257 191 272 178 272 156 C272 128 252 109 222 109 C197 109 182 122 182 144 C182 171 203 191 232 191 L232 191 Z M453 291 C462 336 478 356 502 356 C526 356 538 336 538 291 L453 291 Z " />
<glyph glyph-name="ccedilla" unicode="&#xe7;" horiz-adv-x="298" d="M269 152 L257 152 C226 152 203 183 203 225 C203 282 236 319 290 323 L309 475 C294 476 282 477 274 477 C138 477 25 352 25 200 C25 71 94 -10 203 -10 C212 -10 232 -9 249 -7 L269 152 Z M221 -99 L134 -44 L35 -178 L98 -224 L221 -99 Z " />
<glyph glyph-name="egrave" unicode="&#xe8;" horiz-adv-x="474" d="M266 158 C258 137 243 125 224 125 C203 125 192 143 192 177 C192 182 192 188 193 197 L443 197 C449 234 451 253 451 276 C451 399 382 476 272 476 C131 476 23 348 23 181 C23 60 90 -10 207 -10 C316 -10 396 48 433 155 L266 158 Z M207 290 C213 327 230 349 254 349 C274 349 287 331 287 303 C287 301 287 295 286 290 L207 290 Z M188 675 L250 530 L345 530 L321 675 L188 675 Z " />
<glyph glyph-name="eacute" unicode="&#xe9;" horiz-adv-x="474" d="M266 158 C258 137 243 125 224 125 C203 125 192 143 192 177 C192 182 192 188 193 197 L443 197 C449 234 451 253 451 276 C451 399 382 476 272 476 C131 476 23 348 23 181 C23 60 90 -10 207 -10 C316 -10 396 48 433 155 L266 158 Z M207 290 C213 327 230 349 254 349 C274 349 287 331 287 303 C287 301 287 295 286 290 L207 290 Z M419 675 L282 675 L219 530 L317 530 L419 675 Z " />
<glyph glyph-name="ecircumflex" unicode="&#xea;" horiz-adv-x="474" d="M266 158 C258 137 243 125 224 125 C203 125 192 143 192 177 C192 182 192 188 193 197 L443 197 C449 234 451 253 451 276 C451 399 382 476 272 476 C131 476 23 348 23 181 C23 60 90 -10 207 -10 C316 -10 396 48 433 155 L266 158 Z M207 290 C213 327 230 349 254 349 C274 349 287 331 287 303 C287 301 287 295 286 290 L207 290 Z M445 530 L381 668 L245 668 L136 530 L249 530 L297 592 L321 530 L445 530 Z " />
<glyph glyph-name="edieresis" unicode="&#xeb;" horiz-adv-x="474" d="M266 158 C258 137 243 125 224 125 C203 125 192 143 192 177 C192 182 192 188 193 197 L443 197 C449 234 451 253 451 276 C451 399 382 476 272 476 C131 476 23 348 23 181 C23 60 90 -10 207 -10 C316 -10 396 48 433 155 L266 158 Z M207 290 C213 327 230 349 254 349 C274 349 287 331 287 303 C287 301 287 295 286 290 L207 290 Z M207 674 C164 674 127 637 127 594 C127 557 154 530 191 530 C233 530 271 568 271 610 C271 647 244 674 207 674 L207 674 Z M393 674 C351 674 313 636 313 594 C313 557 340 530 377 530 C419 530 457 568 457 610 C457 647 430 674 393 674 L393 674 Z " />
<glyph glyph-name="igrave" unicode="&#xec;" horiz-adv-x="250" d="M182 0 L239 467 L68 467 L11 0 L182 0 Z M57 675 L118 530 L213 530 L189 675 L57 675 Z " />
<glyph glyph-name="iacute" unicode="&#xed;" horiz-adv-x="250" d="M182 0 L239 467 L68 467 L11 0 L182 0 Z M301 675 L164 675 L100 530 L199 530 L301 675 Z " />
<glyph glyph-name="icircumflex" unicode="&#xee;" horiz-adv-x="249" d="M182 0 L239 467 L68 467 L11 0 L182 0 Z M314 530 L253 668 L118 668 L12 530 L125 530 L169 592 L191 530 L314 530 Z " />
<glyph glyph-name="idieresis" unicode="&#xef;" horiz-adv-x="249" d="M182 0 L239 467 L68 467 L11 0 L182 0 Z M93 674 C52 674 15 637 15 594 C15 557 41 530 77 530 C118 530 155 568 155 610 C155 647 129 674 93 674 L93 674 Z M264 674 C223 674 186 637 186 594 C186 557 212 530 248 530 C289 530 326 568 326 610 C326 647 300 674 264 674 L264 674 Z " />
<glyph glyph-name="eth" unicode="&#xf0;" horiz-adv-x="481" d="M100 661 C123 650 160 627 177 613 L99 570 L132 500 L228 554 C240 536 253 507 262 476 C195 474 147 452 105 407 C53 352 24 274 24 190 C24 63 92 -10 210 -10 C290 -10 356 23 402 88 C440 140 461 223 461 318 C461 439 421 543 346 616 L416 653 L378 721 L280 668 C252 690 186 721 152 730 L100 661 Z M254 345 C276 345 290 316 290 270 C290 189 260 120 225 120 C203 120 189 149 189 196 C189 276 219 345 254 345 L254 345 Z " />
<glyph glyph-name="ntilde" unicode="&#xf1;" horiz-adv-x="483" d="M416 0 L455 319 C456 333 457 344 457 361 C457 430 417 477 357 477 C304 477 260 444 224 378 C231 416 233 428 239 467 L68 467 L11 0 L182 0 L211 235 C216 282 230 304 255 304 C269 304 277 293 277 273 C277 267 276 256 275 247 L245 0 L416 0 Z M365 663 C360 640 352 631 338 631 C332 631 323 633 313 638 C260 664 250 667 229 667 C175 667 130 617 115 540 L203 540 C210 565 216 572 230 572 C235 572 242 570 252 565 C304 540 311 537 334 537 C396 537 437 581 454 663 L365 663 Z " />
<glyph glyph-name="ograve" unicode="&#xf2;" horiz-adv-x="480" d="M269 477 C189 477 123 442 77 373 C43 323 24 256 24 190 C24 64 92 -10 208 -10 C356 -10 456 105 456 275 C456 404 388 477 269 477 L269 477 Z M255 346 C277 346 291 317 291 271 C291 190 261 121 226 121 C204 121 190 150 190 197 C190 277 220 346 255 346 L255 346 Z M188 675 L249 530 L345 530 L320 675 L188 675 Z " />
<glyph glyph-name="oacute" unicode="&#xf3;" horiz-adv-x="480" d="M269 477 C189 477 123 442 77 373 C43 323 24 256 24 190 C24 64 92 -10 208 -10 C356 -10 456 105 456 275 C456 404 388 477 269 477 L269 477 Z M255 346 C277 346 291 317 291 271 C291 190 261 121 226 121 C204 121 190 150 190 197 C190 277 220 346 255 346 L255 346 Z M425 675 L288 675 L225 530 L324 530 L425 675 Z " />
<glyph glyph-name="ocircumflex" unicode="&#xf4;" horiz-adv-x="480" d="M269 477 C189 477 123 442 77 373 C43 323 24 256 24 190 C24 64 92 -10 208 -10 C356 -10 456 105 456 275 C456 404 388 477 269 477 L269 477 Z M255 346 C277 346 291 317 291 271 C291 190 261 121 226 121 C204 121 190 150 190 197 C190 277 220 346 255 346 L255 346 Z M444 530 L380 668 L245 668 L136 530 L248 530 L296 592 L321 530 L444 530 Z " />
<glyph glyph-name="otilde" unicode="&#xf5;" horiz-adv-x="480" d="M269 477 C189 477 123 442 77 373 C43 323 24 256 24 190 C24 64 92 -10 208 -10 C356 -10 456 105 456 275 C456 404 388 477 269 477 L269 477 Z M255 346 C277 346 291 317 291 271 C291 190 261 121 226 121 C204 121 190 150 190 197 C190 277 220 346 255 346 L255 346 Z M376 663 C371 640 363 631 348 631 C342 631 334 633 324 638 C270 664 260 667 240 667 C185 667 140 617 125 540 L213 540 C220 565 226 572 240 572 C245 572 252 570 263 565 C314 540 321 537 345 537 C406 537 447 581 464 663 L376 663 Z " />
<glyph glyph-name="odieresis" unicode="&#xf6;" horiz-adv-x="480" d="M269 477 C189 477 123 442 77 373 C43 323 24 256 24 190 C24 64 92 -10 208 -10 C356 -10 456 105 456 275 C456 404 388 477 269 477 L269 477 Z M255 346 C277 346 291 317 291 271 C291 190 261 121 226 121 C204 121 190 150 190 197 C190 277 220 346 255 346 L255 346 Z M206 674 C164 674 126 637 126 594 C126 557 153 530 190 530 C232 530 270 568 270 610 C270 647 243 674 206 674 L206 674 Z M392 674 C350 674 312 636 312 594 C312 557 339 530 376 530 C418 530 456 568 456 610 C456 647 429 674 392 674 L392 674 Z " />
<glyph glyph-name="divide" unicode="&#xf7;" horiz-adv-x="525" d="M53 288 L500 288 L500 392 L53 392 L53 288 Z M276 234 C231 234 195 198 195 153 C195 108 232 71 277 71 C321 71 358 107 358 151 C358 197 322 234 276 234 L276 234 Z M276 608 C231 608 195 572 195 527 C195 482 232 445 277 445 C321 445 358 481 358 525 C358 571 322 608 276 608 L276 608 Z " />
<glyph glyph-name="oslash" unicode="&#xf8;" horiz-adv-x="480" d="M111 12 C145 -5 168 -10 210 -10 C356 -10 457 106 457 274 C457 329 447 367 425 402 L483 474 L424 518 L371 453 C339 470 309 477 269 477 C189 477 124 442 78 373 C43 322 24 257 24 190 C24 138 33 103 58 63 L1 -9 L57 -54 L111 12 Z M255 346 C278 346 292 317 292 271 C292 189 262 121 226 121 C204 121 190 150 190 197 C190 278 220 346 255 346 L255 346 Z " />
<glyph glyph-name="ugrave" unicode="&#xf9;" horiz-adv-x="492" d="M69 467 L34 180 C33 168 32 159 32 144 C32 94 47 61 83 33 C118 5 165 -10 217 -10 C269 -10 320 5 362 33 C414 67 438 110 447 180 L482 467 L311 467 L279 204 C273 151 263 135 235 135 C215 135 205 146 205 169 C205 177 206 191 208 204 L240 467 L69 467 Z M182 675 L243 530 L339 530 L314 675 L182 675 Z " />
<glyph glyph-name="uacute" unicode="&#xfa;" horiz-adv-x="492" d="M69 467 L34 180 C33 168 32 159 32 144 C32 94 47 61 83 33 C118 5 165 -10 217 -10 C269 -10 320 5 362 33 C414 67 438 110 447 180 L482 467 L311 467 L279 204 C273 151 263 135 235 135 C215 135 205 146 205 169 C205 177 206 191 208 204 L240 467 L69 467 Z M422 675 L286 675 L222 530 L321 530 L422 675 Z " />
<glyph glyph-name="ucircumflex" unicode="&#xfb;" horiz-adv-x="492" d="M69 467 L34 180 C33 168 32 159 32 144 C32 94 47 61 83 33 C118 5 165 -10 217 -10 C269 -10 320 5 362 33 C414 67 438 110 447 180 L482 467 L311 467 L279 204 C273 151 263 135 235 135 C215 135 205 146 205 169 C205 177 206 191 208 204 L240 467 L69 467 Z M438 530 L374 668 L239 668 L130 530 L242 530 L290 592 L315 530 L438 530 Z " />
<glyph glyph-name="udieresis" unicode="&#xfc;" horiz-adv-x="492" d="M69 467 L34 180 C33 168 32 159 32 144 C32 94 47 61 83 33 C118 5 165 -10 217 -10 C269 -10 320 5 362 33 C414 67 438 110 447 180 L482 467 L311 467 L279 204 C273 151 263 135 235 135 C215 135 205 146 205 169 C205 177 206 191 208 204 L240 467 L69 467 Z M206 674 C163 674 126 637 126 594 C126 557 153 530 190 530 C232 530 270 568 270 610 C270 647 243 674 206 674 L206 674 Z M392 674 C350 674 312 637 312 594 C312 557 339 530 376 530 C418 530 456 568 456 610 C456 647 429 674 392 674 L392 674 Z " />
<glyph glyph-name="yacute" unicode="&#xfd;" horiz-adv-x="449" d="M186 -196 L478 467 L308 467 L270 366 C257 330 245 291 222 202 C222 262 221 302 217 333 L201 467 L29 467 L111 19 L10 -196 L186 -196 Z M405 675 L268 675 L205 530 L304 530 L405 675 Z " />
<glyph glyph-name="thorn" unicode="&#xfe;" horiz-adv-x="487" d="M157 -209 L181 -14 C184 24 185 32 186 63 C214 10 241 -10 285 -10 C337 -10 382 20 414 77 C445 132 465 214 465 290 C465 406 419 477 342 477 C294 477 262 456 227 401 C232 422 237 445 240 467 L272 729 L101 729 L-14 -209 L157 -209 Z M257 334 C276 334 288 311 288 273 C288 200 262 136 232 136 C214 136 204 158 204 197 C204 273 228 334 257 334 L257 334 Z " />
<glyph glyph-name="ydieresis" unicode="&#xff;" horiz-adv-x="449" d="M186 -196 L478 467 L308 467 L270 366 C257 330 245 291 222 202 C222 262 221 302 217 333 L201 467 L29 467 L111 19 L10 -196 L186 -196 Z M184 674 C142 674 104 636 104 594 C104 557 131 530 168 530 C210 530 248 568 248 610 C248 647 221 674 184 674 L184 674 Z M370 674 C328 674 290 636 290 594 C290 557 317 530 354 530 C396 530 434 568 434 610 C434 647 407 674 370 674 L370 674 Z " />
<glyph glyph-name="Amacron" unicode="&#x100;" horiz-adv-x="524" d="M491 0 L434 667 L217 667 L-23 0 L160 0 L185 85 L305 85 L307 0 L491 0 Z M301 228 L227 228 L258 333 C273 391 284 432 289 455 L302 508 C299 407 299 407 299 393 C299 372 299 313 300 306 L301 228 Z M168 744 L490 744 L501 837 L180 837 L168 744 Z " />
<glyph glyph-name="amacron" unicode="&#x101;" horiz-adv-x="489" d="M421 0 L479 467 L305 467 C304 458 304 448 304 447 L302 419 L301 393 C278 454 250 477 201 477 C97 477 22 347 22 167 C22 56 64 -10 136 -10 C189 -10 227 16 266 79 C263 65 260 53 259 48 C259 45 257 36 255 22 C253 14 252 7 251 0 L421 0 Z M254 334 C273 334 282 319 282 288 C282 258 276 211 268 183 C258 149 245 133 225 133 C204 133 194 150 194 187 C194 212 202 262 210 287 C220 318 235 334 254 334 L254 334 Z M144 557 L456 557 L468 650 L156 650 L144 557 Z " />
<glyph glyph-name="Abreve" unicode="&#x102;" horiz-adv-x="524" d="M491 0 L434 667 L217 667 L-23 0 L160 0 L185 85 L305 85 L307 0 L491 0 Z M301 228 L227 228 L258 333 C273 391 284 432 289 455 L302 508 C299 407 299 407 299 393 C299 372 299 313 300 306 L301 228 Z M194 863 L194 848 C194 763 242 716 328 716 C421 716 483 766 510 863 L428 863 C409 822 385 807 342 807 C296 807 280 820 273 863 L194 863 Z " />
<glyph glyph-name="abreve" unicode="&#x103;" horiz-adv-x="489" d="M421 0 L479 467 L305 467 C304 458 304 448 304 447 L302 419 L301 393 C278 454 250 477 201 477 C97 477 22 347 22 167 C22 56 64 -10 136 -10 C189 -10 227 16 266 79 C263 65 260 53 259 48 C259 45 257 36 255 22 C253 14 252 7 251 0 L421 0 Z M254 334 C273 334 282 319 282 288 C282 258 276 211 268 183 C258 149 245 133 225 133 C204 133 194 150 194 187 C194 212 202 262 210 287 C220 318 235 334 254 334 L254 334 Z M171 673 L171 659 C172 574 217 527 301 527 C393 527 452 576 480 673 L398 673 C378 633 356 618 315 618 C272 618 256 631 249 673 L171 673 Z " />
<glyph glyph-name="Aogonek" unicode="&#x104;" horiz-adv-x="524" d="M434 667 L217 667 L-23 0 L160 0 L185 85 L305 85 L307 0 L427 0 C377 -41 359 -69 359 -105 C359 -148 393 -174 447 -174 C467 -174 480 -172 502 -164 L519 -92 C501 -97 492 -99 481 -99 C460 -99 448 -88 448 -70 C448 -49 462 -27 491 0 L434 667 Z M301 228 L227 228 L258 333 C273 391 284 432 289 455 L302 508 C299 407 299 407 299 393 C299 372 299 313 300 306 L301 228 Z " />
<glyph glyph-name="aogonek" unicode="&#x105;" horiz-adv-x="489" d="M479 467 L305 467 C304 458 304 448 304 447 L302 419 L301 393 C278 454 250 477 201 477 C97 477 22 347 22 167 C22 56 64 -10 136 -10 C189 -10 227 16 266 79 C263 65 260 53 259 48 C259 45 257 36 255 22 C253 14 252 7 251 0 L361 0 C320 -32 298 -67 298 -101 C298 -142 336 -171 390 -171 C408 -171 417 -169 433 -162 L449 -92 C434 -97 426 -98 416 -98 C392 -98 380 -87 380 -67 C380 -47 395 -21 421 0 L479 467 Z M254 334 C273 334 282 319 282 288 C282 258 276 211 268 183 C258 149 245 133 225 133 C204 133 194 150 194 187 C194 212 202 262 210 287 C220 318 235 334 254 334 L254 334 Z " />
<glyph glyph-name="Cacute" unicode="&#x106;" horiz-adv-x="438" d="M413 205 C374 173 349 162 315 162 C255 162 221 208 221 288 C221 420 279 512 361 512 C393 512 411 502 438 472 L461 663 C431 675 409 679 374 679 C274 679 185 632 121 546 C68 476 38 371 38 260 C38 94 129 -12 270 -12 C308 -12 333 -6 379 12 L413 205 Z M489 865 L352 865 L289 720 L387 720 L489 865 Z " />
<glyph glyph-name="cacute" unicode="&#x107;" horiz-adv-x="298" d="M269 152 L257 152 C226 152 203 183 203 225 C203 282 236 319 290 323 L309 475 C294 476 282 477 274 477 C138 477 25 352 25 200 C25 71 94 -10 203 -10 C212 -10 232 -9 249 -7 L269 152 Z M374 675 L237 675 L173 530 L272 530 L374 675 Z " />
<glyph glyph-name="Ccircumflex" unicode="&#x108;" horiz-adv-x="438" d="M413 205 C374 173 349 162 315 162 C255 162 221 208 221 288 C221 420 279 512 361 512 C393 512 411 502 438 472 L461 663 C431 675 409 679 374 679 C274 679 185 632 121 546 C68 476 38 371 38 260 C38 94 129 -12 270 -12 C308 -12 333 -6 379 12 L413 205 Z M502 720 L438 858 L292 858 L180 720 L297 720 L347 783 L372 720 L502 720 Z " />
<glyph glyph-name="Cdotaccent" unicode="&#x10a;" horiz-adv-x="438" d="M413 205 C374 173 349 162 315 162 C255 162 221 208 221 288 C221 420 279 512 361 512 C393 512 411 502 438 472 L461 663 C431 675 409 679 374 679 C274 679 185 632 121 546 C68 476 38 371 38 260 C38 94 129 -12 270 -12 C308 -12 333 -6 379 12 L413 205 Z M371 872 C326 872 287 832 287 787 C287 749 315 720 353 720 C397 720 437 761 437 805 C437 844 409 872 371 872 L371 872 Z " />
<glyph glyph-name="cdotaccent" unicode="&#x10b;" horiz-adv-x="298" d="M269 152 L257 152 C226 152 203 183 203 225 C203 282 236 319 290 323 L309 475 C294 476 282 477 274 477 C138 477 25 352 25 200 C25 71 94 -10 203 -10 C212 -10 232 -9 249 -7 L269 152 Z M250 682 C206 682 166 642 166 598 C166 559 195 530 233 530 C277 530 317 570 317 614 C317 653 289 682 250 682 L250 682 Z " />
<glyph glyph-name="Ccaron" unicode="&#x10c;" horiz-adv-x="438" d="M413 205 C374 173 349 162 315 162 C255 162 221 208 221 288 C221 420 279 512 361 512 C393 512 411 502 438 472 L461 663 C431 675 409 679 374 679 C274 679 185 632 121 546 C68 476 38 371 38 260 C38 94 129 -12 270 -12 C308 -12 333 -6 379 12 L413 205 Z M210 858 L274 720 L420 720 L532 858 L415 858 L365 795 L340 858 L210 858 Z " />
<glyph glyph-name="ccaron" unicode="&#x10d;" horiz-adv-x="298" d="M269 152 L257 152 C226 152 203 183 203 225 C203 282 236 319 290 323 L309 475 C294 476 282 477 274 477 C138 477 25 352 25 200 C25 71 94 -10 203 -10 C212 -10 232 -9 249 -7 L269 152 Z M109 668 L170 530 L299 530 L405 668 L299 668 L251 607 L226 668 L109 668 Z " />
<glyph glyph-name="Dcaron" unicode="&#x10e;" horiz-adv-x="529" d="M18 0 L184 0 C304 0 383 39 442 128 C490 199 517 299 517 399 C517 471 499 530 462 579 C417 639 351 667 253 667 L100 667 L18 0 Z M257 500 C259 501 261 501 262 501 C306 504 334 456 334 378 C334 316 319 253 296 213 C275 178 252 163 215 161 L257 500 Z M140 858 L204 720 L350 720 L462 858 L345 858 L295 795 L270 858 L140 858 Z " />
<glyph glyph-name="dcaron" unicode="&#x10f;" horiz-adv-x="652" d="M422 0 L512 729 L341 729 L310 474 L308 451 L305 427 C305 426 304 412 303 400 C280 457 253 477 203 477 C148 477 101 444 70 383 C42 328 23 242 23 164 C23 54 68 -10 145 -10 C190 -10 219 9 259 63 C257 52 255 42 255 39 C252 29 251 22 251 20 C250 17 249 9 248 0 L422 0 Z M260 333 C278 333 288 312 288 275 C288 240 280 195 270 169 C262 151 248 139 235 139 C215 139 202 161 202 195 C202 276 226 333 260 333 L260 333 Z M716 729 L598 729 L528 569 L626 569 L716 729 Z " />
<glyph glyph-name="Dcroat" unicode="&#x110;" horiz-adv-x="533" d="M21 0 L187 0 C307 0 386 39 445 128 C493 199 520 299 520 399 C520 471 502 530 465 579 C420 639 354 667 256 667 L103 667 L70 397 L31 397 L17 287 L56 287 L21 0 Z M234 287 L283 287 L297 397 L247 397 L260 501 L265 501 C309 504 337 456 337 378 C337 316 323 253 299 213 C279 178 255 163 218 161 L234 287 Z " />
<glyph glyph-name="dcroat" unicode="&#x111;" horiz-adv-x="489" d="M422 0 L490 550 L530 550 L541 643 L501 643 L512 729 L341 729 L330 643 L242 643 L230 550 L319 550 L310 474 C308 459 307 443 305 427 C305 426 304 412 303 400 C279 457 253 477 203 477 C148 477 101 444 70 383 C42 329 23 241 23 164 C23 54 68 -10 146 -10 C190 -10 219 9 259 63 C257 52 255 42 254 39 C251 19 250 18 248 0 L422 0 Z M260 333 C279 332 288 313 288 275 C288 240 280 194 270 169 C262 151 249 139 235 139 C215 139 202 161 202 196 C202 276 227 335 260 333 L260 333 Z " />
<glyph glyph-name="Emacron" unicode="&#x112;" horiz-adv-x="405" d="M18 0 L348 0 L367 160 L215 160 L228 262 L364 262 L383 413 L246 413 L258 510 L410 510 L430 667 L100 667 L18 0 Z M111 744 L432 744 L444 837 L122 837 L111 744 Z " />
<glyph glyph-name="emacron" unicode="&#x113;" horiz-adv-x="474" d="M266 158 C258 137 243 125 224 125 C203 125 192 143 192 177 C192 182 192 188 193 197 L443 197 C449 234 451 253 451 276 C451 399 382 476 272 476 C131 476 23 348 23 181 C23 60 90 -10 207 -10 C316 -10 396 48 433 155 L266 158 Z M207 290 C213 327 230 349 254 349 C274 349 287 331 287 303 C287 301 287 295 286 290 L207 290 Z M132 557 L443 557 L455 650 L143 650 L132 557 Z " />
<glyph glyph-name="Ebreve" unicode="&#x114;" horiz-adv-x="405" d="M18 0 L348 0 L367 160 L215 160 L228 262 L364 262 L383 413 L246 413 L258 510 L410 510 L430 667 L100 667 L18 0 Z M130 863 C130 821 131 815 138 793 C154 744 200 716 263 716 C357 716 419 766 445 863 L364 863 C345 822 321 807 277 807 C232 807 216 820 208 863 L130 863 Z " />
<glyph glyph-name="ebreve" unicode="&#x115;" horiz-adv-x="474" d="M266 158 C258 137 243 125 224 125 C203 125 192 143 192 177 C192 182 192 188 193 197 L443 197 C449 234 451 253 451 276 C451 399 382 476 272 476 C131 476 23 348 23 181 C23 60 90 -10 207 -10 C316 -10 396 48 433 155 L266 158 Z M207 290 C213 327 230 349 254 349 C274 349 287 331 287 303 C287 301 287 295 286 290 L207 290 Z M155 673 L155 659 C155 574 202 527 285 527 C377 527 436 576 464 673 L382 673 C363 633 341 618 299 618 C256 618 241 631 233 673 L155 673 Z " />
<glyph glyph-name="Edotaccent" unicode="&#x116;" horiz-adv-x="405" d="M18 0 L348 0 L367 160 L215 160 L228 262 L364 262 L383 413 L246 413 L258 510 L410 510 L430 667 L100 667 L18 0 Z M290 872 C246 872 206 832 206 787 C206 749 234 720 272 720 C316 720 356 761 356 806 C356 844 328 872 290 872 L290 872 Z " />
<glyph glyph-name="edotaccent" unicode="&#x117;" horiz-adv-x="474" d="M266 158 C258 137 243 125 224 125 C203 125 192 143 192 177 C192 182 192 188 193 197 L443 197 C449 234 451 253 451 276 C451 399 382 476 272 476 C131 476 23 348 23 181 C23 60 90 -10 207 -10 C316 -10 396 48 433 155 L266 158 Z M207 290 C213 327 230 349 254 349 C274 349 287 331 287 303 C287 301 287 295 286 290 L207 290 Z M300 682 C255 682 215 642 215 598 C215 559 244 530 282 530 C327 530 367 570 367 614 C367 654 339 682 300 682 L300 682 Z " />
<glyph glyph-name="Eogonek" unicode="&#x118;" horiz-adv-x="405" d="M18 0 L284 0 C234 -41 216 -69 216 -105 C216 -148 250 -174 304 -174 C324 -174 337 -172 358 -164 L376 -92 C358 -97 349 -99 338 -99 C317 -99 305 -88 305 -70 C305 -50 319 -26 348 0 L367 160 L215 160 L228 262 L364 262 L383 413 L246 413 L258 510 L410 510 L430 667 L100 667 L18 0 Z " />
<glyph glyph-name="eogonek" unicode="&#x119;" horiz-adv-x="474" d="M356 -79 C341 -83 333 -84 323 -84 C299 -84 287 -74 287 -53 C287 -29 302 -7 339 25 C394 71 413 97 433 155 L266 158 C258 138 243 126 224 126 C203 126 192 143 192 177 C192 183 192 188 193 197 L443 197 C449 234 451 253 451 276 C451 399 382 476 272 476 C131 476 23 348 23 181 C23 60 90 -10 207 -10 C218 -10 230 -9 249 -7 C221 -28 205 -57 205 -87 C205 -128 243 -157 297 -157 C315 -157 324 -155 340 -149 L356 -79 Z M207 290 C213 327 230 349 254 349 C274 349 287 331 287 303 C287 301 287 295 286 290 L207 290 Z " />
<glyph glyph-name="Ecaron" unicode="&#x11a;" horiz-adv-x="405" d="M18 0 L348 0 L367 160 L215 160 L228 262 L364 262 L383 413 L246 413 L258 510 L410 510 L430 667 L100 667 L18 0 Z M130 858 L194 720 L340 720 L452 858 L335 858 L285 795 L260 858 L130 858 Z " />
<glyph glyph-name="ecaron" unicode="&#x11b;" horiz-adv-x="474" d="M266 158 C258 137 243 125 224 125 C203 125 192 143 192 177 C192 182 192 188 193 197 L443 197 C449 234 451 253 451 276 C451 399 382 476 272 476 C131 476 23 348 23 181 C23 60 90 -10 207 -10 C316 -10 396 48 433 155 L266 158 Z M207 290 C213 327 230 349 254 349 C274 349 287 331 287 303 C287 301 287 295 286 290 L207 290 Z M153 668 L217 530 L352 530 L461 668 L349 668 L301 607 L276 668 L153 668 Z " />
<glyph glyph-name="Gcircumflex" unicode="&#x11c;" horiz-adv-x="552" d="M293 385 L276 245 L342 245 C333 184 306 148 268 148 C233 148 216 177 216 238 C216 284 223 342 237 402 C255 482 281 518 320 518 C347 518 363 492 363 449 L543 514 C509 624 440 679 337 679 C238 679 157 628 102 529 C61 456 37 353 37 252 C37 85 116 -12 253 -12 C360 -12 443 47 490 155 C514 210 529 276 541 385 L293 385 Z M515 720 L451 858 L305 858 L193 720 L310 720 L360 783 L385 720 L515 720 Z " />
<glyph glyph-name="gcircumflex" unicode="&#x11d;" horiz-adv-x="485" d="M476 467 L304 467 L299 406 C269 459 245 477 206 477 C105 477 24 343 24 174 C24 64 72 -7 147 -7 C187 -7 227 14 261 54 L252 -20 C247 -67 233 -86 204 -86 C186 -86 173 -73 173 -55 L173 -48 L-1 -48 C1 -164 60 -217 184 -217 C242 -217 293 -202 334 -172 C384 -137 407 -92 417 -14 L476 467 Z M257 336 C276 336 284 319 284 279 C284 252 281 225 274 195 C265 155 252 136 232 136 C213 136 203 158 203 199 C203 278 226 336 257 336 L257 336 Z M448 530 L384 668 L248 668 L139 530 L252 530 L300 592 L325 530 L448 530 Z " />
<glyph glyph-name="Gbreve" unicode="&#x11e;" horiz-adv-x="552" d="M293 385 L276 245 L342 245 C333 184 306 148 268 148 C233 148 216 177 216 238 C216 284 223 342 237 402 C255 482 281 518 320 518 C347 518 363 492 363 449 L543 514 C509 624 440 679 337 679 C238 679 157 628 102 529 C61 456 37 353 37 252 C37 85 116 -12 253 -12 C360 -12 443 47 490 155 C514 210 529 276 541 385 L293 385 Z M214 863 L214 848 C214 763 262 716 348 716 C441 716 503 766 530 863 L448 863 C429 822 405 807 362 807 C316 807 300 820 293 863 L214 863 Z " />
<glyph glyph-name="gbreve" unicode="&#x11f;" horiz-adv-x="485" d="M476 467 L304 467 L299 406 C269 459 245 477 206 477 C105 477 24 343 24 174 C24 64 72 -7 147 -7 C187 -7 227 14 261 54 L252 -20 C247 -67 233 -86 204 -86 C186 -86 173 -73 173 -55 L173 -48 L-1 -48 C1 -164 60 -217 184 -217 C242 -217 293 -202 334 -172 C384 -137 407 -92 417 -14 L476 467 Z M257 336 C276 336 284 319 284 279 C284 252 281 225 274 195 C265 155 252 136 232 136 C213 136 203 158 203 199 C203 278 226 336 257 336 L257 336 Z M155 673 C155 632 156 626 163 604 C178 555 224 527 285 527 C377 527 436 576 464 673 L382 673 C363 633 341 618 299 618 C256 618 241 631 233 673 L155 673 Z " />
<glyph glyph-name="Gdotaccent" unicode="&#x120;" horiz-adv-x="552" d="M293 385 L276 245 L342 245 C333 184 306 148 268 148 C233 148 216 177 216 238 C216 284 223 342 237 402 C255 482 281 518 320 518 C347 518 363 492 363 449 L543 514 C509 624 440 679 337 679 C238 679 157 628 102 529 C61 456 37 353 37 252 C37 85 116 -12 253 -12 C360 -12 443 47 490 155 C514 210 529 276 541 385 L293 385 Z M365 872 C320 872 281 832 281 787 C281 749 309 720 347 720 C391 720 431 761 431 806 C431 844 403 872 365 872 L365 872 Z " />
<glyph glyph-name="gdotaccent" unicode="&#x121;" horiz-adv-x="485" d="M476 467 L304 467 L299 406 C269 459 245 477 206 477 C105 477 24 343 24 174 C24 64 72 -7 147 -7 C187 -7 227 14 261 54 L252 -20 C247 -67 233 -86 204 -86 C186 -86 173 -73 173 -55 L173 -48 L-1 -48 C1 -164 60 -217 184 -217 C242 -217 293 -202 334 -172 C384 -137 407 -92 417 -14 L476 467 Z M257 336 C276 336 284 319 284 279 C284 252 281 225 274 195 C265 155 252 136 232 136 C213 136 203 158 203 199 C203 278 226 336 257 336 L257 336 Z M302 682 C257 682 218 642 218 598 C218 559 247 530 285 530 C329 530 369 570 369 615 C369 653 341 682 302 682 L302 682 Z " />
<glyph glyph-name="Gcommaaccent" unicode="&#x122;" horiz-adv-x="552" d="M293 385 L276 245 L342 245 C333 184 306 148 268 148 C233 148 216 177 216 238 C216 284 223 342 237 402 C255 482 281 518 320 518 C347 518 363 492 363 449 L543 514 C509 624 440 679 337 679 C238 679 157 628 102 529 C61 456 37 353 37 252 C37 85 116 -12 253 -12 C360 -12 443 47 490 155 C514 210 529 276 541 385 L293 385 Z M307 -53 L186 -53 L116 -210 L211 -210 L307 -53 Z " />
<glyph glyph-name="gcommaaccent" unicode="&#x123;" horiz-adv-x="485" d="M476 467 L304 467 L299 406 C269 459 245 477 206 477 C105 477 24 343 24 174 C24 64 72 -7 147 -7 C187 -7 227 14 261 54 L252 -20 C247 -67 233 -86 204 -86 C186 -86 173 -73 173 -55 L173 -48 L-1 -48 C1 -164 60 -217 184 -217 C242 -217 293 -202 334 -172 C384 -137 407 -92 417 -14 L476 467 Z M257 336 C276 336 284 319 284 279 C284 252 281 225 274 195 C265 155 252 136 232 136 C213 136 203 158 203 199 C203 278 226 336 257 336 L257 336 Z M217 533 L336 533 L402 687 L307 687 L217 533 Z " />
<glyph glyph-name="Hcircumflex" unicode="&#x124;" horiz-adv-x="531" d="M457 0 L539 667 L362 667 L333 431 L248 431 L277 667 L100 667 L18 0 L195 0 L228 268 L313 268 L280 0 L457 0 Z M489 720 L425 858 L279 858 L167 720 L284 720 L334 783 L359 720 L489 720 Z " />
<glyph glyph-name="Hbar" unicode="&#x126;" horiz-adv-x="531" d="M41 510 L81 510 L18 0 L195 0 L228 268 L313 268 L280 0 L457 0 L520 510 L560 510 L571 603 L531 603 L539 667 L362 667 L354 603 L269 603 L277 667 L100 667 L92 603 L52 603 L41 510 Z M258 510 L343 510 L333 431 L248 431 L258 510 Z " />
<glyph glyph-name="hbar" unicode="&#x127;" horiz-adv-x="483" d="M39 550 L79 550 L11 0 L182 0 L211 235 C216 282 230 304 255 304 C269 304 277 293 277 273 C277 266 276 256 275 247 L245 0 L416 0 L455 319 C456 333 457 344 457 361 C457 430 417 477 357 477 C304 477 260 444 224 378 C227 392 232 423 239 469 L249 550 L338 550 L350 643 L261 643 L271 729 L101 729 L90 643 L50 643 L39 550 Z " />
<glyph glyph-name="Imacron" unicode="&#x12a;" horiz-adv-x="269" d="M195 0 L277 667 L100 667 L18 0 L195 0 Z M64 744 L333 744 L344 837 L76 837 L64 744 Z " />
<glyph glyph-name="imacron" unicode="&#x12b;" horiz-adv-x="250" d="M182 0 L239 467 L68 467 L11 0 L182 0 Z M32 557 L293 557 L305 650 L43 650 L32 557 Z " />
<glyph glyph-name="ibreve" unicode="&#x12d;" horiz-adv-x="249" d="M182 0 L239 467 L68 467 L11 0 L182 0 Z M37 673 L37 659 C37 574 80 527 159 527 C246 527 302 576 328 673 L246 673 C229 633 210 618 173 618 C135 618 122 631 115 673 L37 673 Z " />
<glyph glyph-name="Iogonek" unicode="&#x12e;" horiz-adv-x="269" d="M131 0 C81 -41 63 -69 63 -105 C63 -148 97 -174 151 -174 C172 -174 185 -172 206 -164 L224 -92 C205 -97 196 -99 185 -99 C164 -99 152 -88 152 -70 C152 -49 166 -27 195 0 L277 667 L100 667 L18 0 L131 0 Z " />
<glyph glyph-name="iogonek" unicode="&#x12f;" horiz-adv-x="249" d="M122 0 C80 -31 58 -67 58 -101 C58 -142 96 -171 150 -171 C168 -171 178 -169 193 -162 L210 -92 C194 -97 186 -98 176 -98 C153 -98 140 -87 140 -68 C140 -47 156 -21 182 0 L239 467 L68 467 L11 0 L122 0 Z M184 713 C125 713 72 660 72 600 C72 549 110 511 160 511 C219 511 272 564 272 624 C272 675 235 713 184 713 L184 713 Z " />
<glyph glyph-name="Idotaccent" unicode="&#x130;" horiz-adv-x="269" d="M195 0 L277 667 L100 667 L18 0 L195 0 Z M214 872 C169 872 130 832 130 787 C130 748 158 720 196 720 C240 720 280 761 280 805 C280 844 252 872 214 872 L214 872 Z " />
<glyph glyph-name="dotlessi" unicode="&#x131;" horiz-adv-x="250" d="M182 0 L239 467 L68 467 L11 0 L182 0 Z " />
<glyph glyph-name="IJ" unicode="&#x132;" horiz-adv-x="618" d="M195 0 L277 667 L100 667 L18 0 L195 0 Z M243 10 C285 -6 317 -12 356 -12 C417 -12 469 8 505 45 C543 84 559 125 569 204 L626 667 L449 667 L396 240 C389 183 369 157 331 157 C304 157 282 170 265 196 L243 10 Z " />
<glyph glyph-name="ij" unicode="&#x133;" horiz-adv-x="499" d="M182 0 L239 467 L68 467 L11 0 L182 0 Z M184 713 C125 713 72 660 72 600 C72 549 110 511 160 511 C219 511 272 564 272 624 C272 675 235 713 184 713 L184 713 Z M406 -205 L489 467 L317 467 L236 -205 L406 -205 Z M433 713 C374 713 321 660 321 600 C321 549 359 511 409 511 C468 511 521 564 521 624 C521 676 484 713 433 713 L433 713 Z " />
<glyph glyph-name="Kcommaaccent" unicode="&#x136;" horiz-adv-x="533" d="M500 0 L383 345 L564 667 L377 667 L238 381 L277 667 L100 667 L18 0 L195 0 L229 307 L309 0 L500 0 Z M311 -53 L189 -53 L120 -210 L215 -210 L311 -53 Z " />
<glyph glyph-name="kcommaaccent" unicode="&#x137;" horiz-adv-x="487" d="M263 0 L459 0 L365 253 L505 467 L320 467 L248 329 C230 295 225 285 213 257 L271 729 L101 729 L11 0 L182 0 L210 234 C215 203 217 192 219 181 L263 0 Z M280 -53 L162 -53 L96 -207 L190 -207 L280 -53 Z " />
<glyph glyph-name="kgreenlandic" unicode="&#x138;" horiz-adv-x="487" d="M263 0 L459 0 L365 253 L505 467 L320 467 L248 329 C230 295 225 285 213 257 L239 467 L68 467 L11 0 L182 0 L210 234 C215 203 217 192 219 181 L263 0 Z " />
<glyph glyph-name="Lacute" unicode="&#x139;" horiz-adv-x="363" d="M329 0 L348 160 L215 160 L277 667 L100 667 L18 0 L329 0 Z M339 865 L202 865 L139 720 L237 720 L339 865 Z " />
<glyph glyph-name="lacute" unicode="&#x13a;" horiz-adv-x="250" d="M182 0 L271 729 L101 729 L11 0 L182 0 Z M334 914 L197 914 L134 769 L233 769 L334 914 Z " />
<glyph glyph-name="Lcommaaccent" unicode="&#x13b;" horiz-adv-x="363" d="M329 0 L348 160 L215 160 L277 667 L100 667 L18 0 L329 0 Z M234 -53 L113 -53 L43 -210 L138 -210 L234 -53 Z " />
<glyph glyph-name="lcommaaccent" unicode="&#x13c;" horiz-adv-x="250" d="M182 0 L271 729 L101 729 L11 0 L182 0 Z M155 -53 L37 -53 L-29 -207 L66 -207 L155 -53 Z " />
<glyph glyph-name="Lcaron" unicode="&#x13d;" horiz-adv-x="403" d="M329 0 L348 160 L215 160 L277 667 L100 667 L18 0 L329 0 Z M480 667 L358 667 L289 507 L387 507 L480 667 Z " />
<glyph glyph-name="lcaron" unicode="&#x13e;" horiz-adv-x="413" d="M182 0 L271 729 L101 729 L11 0 L182 0 Z M476 729 L357 729 L288 569 L386 569 L476 729 Z " />
<glyph glyph-name="Ldot" unicode="&#x13f;" horiz-adv-x="363" d="M329 0 L348 160 L215 160 L277 667 L100 667 L18 0 L329 0 Z M339 419 C295 419 256 376 256 329 C256 288 283 258 320 258 C365 258 404 301 404 348 C404 389 376 419 339 419 L339 419 Z " />
<glyph glyph-name="ldot" unicode="&#x140;" horiz-adv-x="419" d="M182 0 L271 729 L101 729 L11 0 L182 0 Z M357 419 C310 419 268 377 268 329 C268 289 298 258 338 258 C386 258 428 300 428 348 C428 389 398 419 357 419 L357 419 Z " />
<glyph glyph-name="Lslash" unicode="&#x141;" horiz-adv-x="367" d="M48 217 L21 0 L332 0 L351 160 L218 160 L237 312 L333 383 L349 514 L253 443 L280 667 L103 667 L64 348 L12 308 L-4 177 L48 217 Z " />
<glyph glyph-name="lslash" unicode="&#x142;" horiz-adv-x="296" d="M69 275 L35 0 L206 0 L250 358 L304 397 L319 515 L264 476 L295 729 L125 729 L83 393 L28 355 L14 237 L69 275 Z " />
<glyph glyph-name="Nacute" unicode="&#x143;" horiz-adv-x="554" d="M18 0 L187 0 L208 170 C216 234 220 289 224 384 C231 337 235 319 252 245 L311 0 L480 0 L562 667 L393 667 L374 517 C367 456 364 387 364 265 C341 383 341 387 329 433 L269 667 L100 667 L18 0 Z M472 865 L335 865 L272 720 L371 720 L472 865 Z " />
<glyph glyph-name="nacute" unicode="&#x144;" horiz-adv-x="483" d="M416 0 L455 319 C456 333 457 344 457 361 C457 430 417 477 357 477 C304 477 260 444 224 378 C231 416 233 428 239 467 L68 467 L11 0 L182 0 L211 235 C216 282 230 304 255 304 C269 304 277 293 277 273 C277 267 276 256 275 247 L245 0 L416 0 Z M405 675 L268 675 L205 530 L303 530 L405 675 Z " />
<glyph glyph-name="Ncommaaccent" unicode="&#x145;" horiz-adv-x="554" d="M18 0 L187 0 L208 170 C216 234 220 289 224 384 C231 337 235 319 252 245 L311 0 L480 0 L562 667 L393 667 L374 517 C367 456 364 387 364 265 C341 383 341 387 329 433 L269 667 L100 667 L18 0 Z M311 -53 L189 -53 L120 -210 L215 -210 L311 -53 Z " />
<glyph glyph-name="ncommaaccent" unicode="&#x146;" horiz-adv-x="483" d="M416 0 L455 319 C456 333 457 344 457 361 C457 430 417 477 357 477 C304 477 260 444 224 378 C231 416 233 428 239 467 L68 467 L11 0 L182 0 L211 235 C216 282 230 304 255 304 C269 304 277 293 277 273 C277 267 276 256 275 247 L245 0 L416 0 Z M273 -53 L155 -53 L89 -207 L183 -207 L273 -53 Z " />
<glyph glyph-name="Ncaron" unicode="&#x147;" horiz-adv-x="554" d="M18 0 L187 0 L208 170 C216 234 220 289 224 384 C231 337 235 319 252 245 L311 0 L480 0 L562 667 L393 667 L374 517 C367 456 364 387 364 265 C341 383 341 387 329 433 L269 667 L100 667 L18 0 Z M193 858 L257 720 L403 720 L515 858 L398 858 L348 795 L323 858 L193 858 Z " />
<glyph glyph-name="ncaron" unicode="&#x148;" horiz-adv-x="483" d="M416 0 L455 319 C456 333 457 344 457 361 C457 430 417 477 357 477 C304 477 260 444 224 378 C231 416 233 428 239 467 L68 467 L11 0 L182 0 L211 235 C216 282 230 304 255 304 C269 304 277 293 277 273 C277 267 276 256 275 247 L245 0 L416 0 Z M132 668 L196 530 L332 530 L441 668 L328 668 L280 607 L255 668 L132 668 Z " />
<glyph glyph-name="napostrophe" unicode="&#x149;" horiz-adv-x="711" d="M348 667 L174 667 L54 346 L194 346 L348 667 Z M644 0 L683 319 C685 333 686 347 686 361 C686 430 646 477 586 477 C533 477 489 444 453 378 L460 418 C463 434 464 441 468 467 L297 467 L240 0 L411 0 L439 235 C445 282 459 304 484 304 C498 304 506 293 506 274 C506 269 505 257 504 247 L474 0 L644 0 Z " />
<glyph glyph-name="Eng" unicode="&#x14a;" horiz-adv-x="531" d="M100 667 L18 0 L195 0 L246 413 C254 480 273 511 307 511 C326 511 336 496 336 468 C336 462 334 444 333 429 L290 81 C284 30 273 13 249 13 L237 13 L221 -123 C252 -131 269 -133 292 -133 C342 -133 384 -112 417 -69 C443 -37 458 7 466 71 L519 502 C521 518 522 535 522 549 C522 627 477 679 409 679 C349 679 300 644 260 573 L268 616 C271 633 273 639 277 667 L100 667 Z " />
<glyph glyph-name="eng" unicode="&#x14b;" horiz-adv-x="483" d="M68 467 L11 0 L182 0 L211 235 C216 282 230 304 255 304 C269 304 277 293 277 273 C277 267 276 256 275 247 L250 44 C246 9 237 -4 218 -4 C216 -4 213 -4 210 -3 L194 -128 C216 -132 229 -133 246 -133 C297 -133 340 -114 373 -76 C400 -47 415 -8 422 50 L455 319 C456 333 457 344 457 361 C457 430 417 477 357 477 C304 477 260 444 224 378 C231 416 233 428 239 467 L68 467 Z " />
<glyph glyph-name="Omacron" unicode="&#x14c;" horiz-adv-x="558" d="M337 679 C255 679 175 633 118 553 C68 482 39 375 39 263 C39 184 53 126 85 77 C121 23 187 -12 255 -12 C421 -12 547 170 547 412 C547 577 467 679 337 679 L337 679 Z M317 511 C347 511 363 477 363 409 C363 333 348 252 325 204 C312 176 290 157 270 157 C238 157 222 193 222 264 C222 399 265 511 317 511 L317 511 Z M195 744 L517 744 L528 837 L207 837 L195 744 Z " />
<glyph glyph-name="omacron" unicode="&#x14d;" horiz-adv-x="480" d="M269 477 C189 477 123 442 77 373 C43 323 24 256 24 190 C24 64 92 -10 208 -10 C356 -10 456 105 456 275 C456 404 388 477 269 477 L269 477 Z M255 346 C277 346 291 317 291 271 C291 190 261 121 226 121 C204 121 190 150 190 197 C190 277 220 346 255 346 L255 346 Z M131 557 L443 557 L455 650 L143 650 L131 557 Z " />
<glyph glyph-name="Ohungarumlaut" unicode="&#x150;" horiz-adv-x="558" d="M337 679 C255 679 175 633 118 553 C68 482 39 375 39 263 C39 184 53 126 85 77 C121 23 187 -12 255 -12 C421 -12 547 170 547 412 C547 577 467 679 337 679 L337 679 Z M317 511 C347 511 363 477 363 409 C363 333 348 252 325 204 C312 176 290 157 270 157 C238 157 222 193 222 264 C222 399 265 511 317 511 L317 511 Z M405 865 L279 865 L217 720 L306 720 L405 865 Z M569 865 L444 865 L381 720 L470 720 L569 865 Z " />
<glyph glyph-name="ohungarumlaut" unicode="&#x151;" horiz-adv-x="480" d="M269 477 C189 477 123 442 77 373 C43 323 24 256 24 190 C24 64 92 -10 208 -10 C356 -10 456 105 456 275 C456 404 388 477 269 477 L269 477 Z M255 346 C277 346 291 317 291 271 C291 190 261 121 226 121 C204 121 190 150 190 197 C190 277 220 346 255 346 L255 346 Z M155 530 L243 530 L338 675 L220 675 L155 530 Z M311 530 L398 530 L494 675 L375 675 L311 530 Z " />
<glyph glyph-name="OE" unicode="&#x152;" horiz-adv-x="697" d="M640 0 L659 160 L509 160 L522 262 L656 262 L674 413 L540 413 L552 510 L701 510 L720 667 L405 667 C390 668 377 669 372 670 C346 672 324 674 313 674 C240 674 168 630 115 552 C66 479 37 369 37 253 C37 183 50 130 78 82 C110 27 165 -8 221 -8 C230 -8 258 -5 296 -1 C298 -1 303 -1 310 0 L640 0 Z M316 511 C346 511 362 477 362 414 C362 364 351 285 337 239 C320 183 299 156 270 156 C239 156 220 194 220 256 C220 324 235 408 256 454 C271 490 294 511 316 511 L316 511 Z " />
<glyph glyph-name="oe" unicode="&#x153;" horiz-adv-x="726" d="M521 155 C511 131 496 119 477 119 C454 119 441 142 441 180 C441 183 441 191 442 199 L695 199 C701 236 703 254 703 277 C703 400 632 478 521 478 C474 478 438 468 395 444 C355 469 322 478 275 478 C125 478 24 361 24 190 C24 64 96 -10 220 -10 C265 -10 293 -2 335 23 C374 0 411 -10 457 -10 C562 -10 646 50 683 151 L521 155 Z M256 348 C278 348 292 319 292 272 C292 190 262 121 227 121 C205 121 191 150 191 197 C191 279 221 348 256 348 L256 348 Z M454 292 C464 338 479 357 503 357 C528 357 539 336 540 292 L454 292 Z " />
<glyph glyph-name="Racute" unicode="&#x154;" horiz-adv-x="525" d="M485 0 L387 277 C469 312 511 380 511 477 C511 536 491 586 455 619 C419 651 362 667 281 667 L100 667 L18 0 L195 0 L219 189 C220 206 221 206 227 277 C231 258 240 220 253 164 L293 0 L485 0 Z M259 517 L265 517 C311 517 334 496 334 454 C334 402 296 358 251 358 C249 358 244 358 239 359 L259 517 Z M429 865 L292 865 L229 720 L327 720 L429 865 Z " />
<glyph glyph-name="racute" unicode="&#x155;" horiz-adv-x="339" d="M182 0 L206 200 C211 239 217 255 233 273 C248 290 269 300 290 300 C305 300 316 296 335 284 L359 478 C302 479 250 441 219 376 L239 467 L68 467 L11 0 L182 0 Z M339 675 L202 675 L138 530 L237 530 L339 675 Z " />
<glyph glyph-name="Rcommaaccent" unicode="&#x156;" horiz-adv-x="525" d="M485 0 L387 277 C469 312 511 380 511 477 C511 536 491 586 455 619 C419 651 362 667 281 667 L100 667 L18 0 L195 0 L219 189 C220 206 221 206 227 277 C231 258 240 220 253 164 L293 0 L485 0 Z M259 517 L265 517 C311 517 334 496 334 454 C334 402 296 358 251 358 C249 358 244 358 239 359 L259 517 Z M309 -53 L187 -53 L118 -210 L213 -210 L309 -53 Z " />
<glyph glyph-name="rcommaaccent" unicode="&#x157;" horiz-adv-x="339" d="M182 0 L207 200 C212 239 217 255 233 273 C248 290 270 300 290 300 C305 300 316 296 336 284 L360 478 C303 479 251 441 219 376 L239 467 L69 467 L11 0 L182 0 Z M154 -53 L36 -53 L-30 -207 L65 -207 L154 -53 Z " />
<glyph glyph-name="Rcaron" unicode="&#x158;" horiz-adv-x="525" d="M485 0 L387 277 C469 312 511 380 511 477 C511 536 491 586 455 619 C419 651 362 667 281 667 L100 667 L18 0 L195 0 L219 189 C220 206 221 206 227 277 C231 258 240 220 253 164 L293 0 L485 0 Z M259 517 L265 517 C311 517 334 496 334 454 C334 402 296 358 251 358 C249 358 244 358 239 359 L259 517 Z M150 858 L214 720 L360 720 L472 858 L355 858 L305 795 L280 858 L150 858 Z " />
<glyph glyph-name="rcaron" unicode="&#x159;" horiz-adv-x="339" d="M182 0 L206 200 C211 239 217 255 233 273 C248 290 269 300 290 300 C305 300 316 296 335 284 L359 478 C302 479 250 441 219 376 L239 467 L68 467 L11 0 L182 0 Z M75 668 L139 530 L275 530 L384 668 L271 668 L223 607 L199 668 L75 668 Z " />
<glyph glyph-name="Sacute" unicode="&#x15a;" horiz-adv-x="398" d="M6 17 C50 -3 92 -12 133 -12 C268 -12 375 102 375 246 C375 307 350 352 291 400 C242 439 235 448 235 469 C235 493 259 514 287 514 C323 514 359 486 382 441 L408 645 C367 668 327 679 284 679 C219 679 161 650 117 596 C79 550 56 488 56 434 C56 372 81 325 142 271 C190 229 193 225 193 203 C193 174 168 153 135 153 C96 153 60 178 32 226 L6 17 Z M428 865 L292 865 L228 720 L327 720 L428 865 Z " />
<glyph glyph-name="sacute" unicode="&#x15b;" horiz-adv-x="389" d="M0 39 C66 1 102 -10 159 -10 C228 -10 282 14 321 61 C347 94 363 135 363 172 C363 201 353 228 336 247 C323 262 308 270 268 287 C235 301 222 313 222 328 C222 343 235 354 252 354 C271 354 290 342 316 312 L390 439 C343 466 304 477 258 477 C142 477 49 398 49 299 C49 244 81 207 154 180 C183 169 194 160 194 146 C194 131 178 119 158 119 C133 119 103 137 78 168 L0 39 Z M386 675 L249 675 L185 530 L284 530 L386 675 Z " />
<glyph glyph-name="Scircumflex" unicode="&#x15c;" horiz-adv-x="398" d="M6 17 C50 -3 92 -12 133 -12 C268 -12 375 102 375 246 C375 307 350 352 291 400 C242 439 235 448 235 469 C235 493 259 514 287 514 C323 514 359 486 382 441 L408 645 C367 668 327 679 284 679 C219 679 161 650 117 596 C79 550 56 488 56 434 C56 372 81 325 142 271 C190 229 193 225 193 203 C193 174 168 153 135 153 C96 153 60 178 32 226 L6 17 Z M442 720 L378 858 L232 858 L120 720 L237 720 L287 783 L312 720 L442 720 Z " />
<glyph glyph-name="scircumflex" unicode="&#x15d;" horiz-adv-x="389" d="M0 39 C66 1 102 -10 159 -10 C228 -10 282 14 321 61 C347 94 363 135 363 172 C363 201 353 228 336 247 C323 262 308 270 268 287 C235 301 222 313 222 328 C222 343 235 354 252 354 C271 354 290 342 316 312 L390 439 C343 466 304 477 258 477 C142 477 49 398 49 299 C49 244 81 207 154 180 C183 169 194 160 194 146 C194 131 178 119 158 119 C133 119 103 137 78 168 L0 39 Z M411 530 L347 668 L212 668 L103 530 L215 530 L263 592 L288 530 L411 530 Z " />
<glyph glyph-name="Scedilla" unicode="&#x15e;" horiz-adv-x="398" d="M6 17 C50 -3 92 -12 133 -12 C268 -12 375 102 375 246 C375 307 350 352 291 400 C242 439 235 448 235 469 C235 493 259 514 287 514 C323 514 359 486 382 441 L407 645 C367 668 327 679 284 679 C219 679 161 650 117 596 C79 550 56 488 56 434 C56 372 81 325 142 271 C190 229 193 225 193 203 C193 174 169 153 135 153 C96 153 60 178 32 226 L6 17 Z M189 -99 L102 -44 L3 -178 L66 -224 L189 -99 Z " />
<glyph glyph-name="scedilla" unicode="&#x15f;" horiz-adv-x="389" d="M0 39 C66 1 102 -10 159 -10 C228 -10 282 14 321 61 C347 94 363 135 363 172 C363 201 353 228 336 247 C323 262 308 270 268 287 C235 301 222 313 222 328 C222 343 235 354 252 354 C271 354 290 342 316 312 L390 439 C343 466 304 477 258 477 C142 477 49 398 49 299 C49 244 81 207 154 180 C183 169 194 160 194 146 C194 131 178 119 158 119 C133 119 103 137 78 168 L0 39 Z M205 -99 L118 -44 L19 -178 L82 -224 L205 -99 Z " />
<glyph glyph-name="Scaron" unicode="&#x160;" horiz-adv-x="398" d="M6 17 C50 -3 92 -12 133 -12 C268 -12 375 102 375 246 C375 307 350 352 291 400 C242 439 235 448 235 469 C235 493 259 514 287 514 C323 514 359 486 382 441 L408 645 C367 668 327 679 284 679 C219 679 161 650 117 596 C79 550 56 488 56 434 C56 372 81 325 142 271 C190 229 193 225 193 203 C193 174 168 153 135 153 C96 153 60 178 32 226 L6 17 Z M143 858 L207 720 L353 720 L465 858 L348 858 L298 795 L273 858 L143 858 Z " />
<glyph glyph-name="scaron" unicode="&#x161;" horiz-adv-x="389" d="M0 39 C66 1 102 -10 159 -10 C228 -10 282 14 321 61 C347 94 363 135 363 172 C363 201 353 228 336 247 C323 262 308 270 268 287 C235 301 222 313 222 328 C222 343 235 354 252 354 C271 354 290 342 316 312 L390 439 C343 466 304 477 258 477 C142 477 49 398 49 299 C49 244 81 207 154 180 C183 169 194 160 194 146 C194 131 178 119 158 119 C133 119 103 137 78 168 L0 39 Z M123 668 L187 530 L322 530 L431 668 L319 668 L271 607 L246 668 L123 668 Z " />
<glyph glyph-name="Tcommaaccent" unicode="&#x162;" horiz-adv-x="377" d="M248 0 L310 507 L412 507 L431 667 L54 667 L35 507 L132 507 L70 0 L248 0 Z M218 -53 L96 -53 L27 -210 L122 -210 L218 -53 Z " />
<glyph glyph-name="tcommaaccent" unicode="&#x163;" horiz-adv-x="297" d="M206 0 L246 328 L302 328 L320 467 L263 467 L280 604 L109 604 L92 467 L44 467 L27 328 L75 328 L35 0 L206 0 Z M178 -53 L60 -53 L-6 -207 L89 -207 L178 -53 Z " />
<glyph glyph-name="Tcaron" unicode="&#x164;" horiz-adv-x="377" d="M247 0 L309 507 L411 507 L431 667 L54 667 L34 507 L132 507 L70 0 L247 0 Z M106 858 L171 720 L316 720 L429 858 L311 858 L261 795 L237 858 L106 858 Z " />
<glyph glyph-name="tcaron" unicode="&#x165;" horiz-adv-x="436" d="M205 0 L245 328 L302 328 L319 467 L262 467 L279 604 L109 604 L92 467 L43 467 L26 328 L75 328 L34 0 L205 0 Z M499 729 L380 729 L311 569 L409 569 L499 729 Z " />
<glyph glyph-name="Tbar" unicode="&#x166;" horiz-adv-x="377" d="M28 339 L112 339 L70 0 L247 0 L289 339 L376 339 L388 432 L300 432 L310 507 L411 507 L431 667 L54 667 L34 507 L132 507 L123 432 L40 432 L28 339 Z " />
<glyph glyph-name="tbar" unicode="&#x167;" horiz-adv-x="297" d="M8 181 L57 181 L34 0 L205 0 L227 181 L284 181 L294 268 L238 268 L245 328 L302 328 L319 467 L263 467 L279 604 L109 604 L92 467 L43 467 L26 328 L75 328 L67 268 L19 268 L8 181 Z " />
<glyph glyph-name="utilde" unicode="&#x169;" horiz-adv-x="492" d="M69 467 L34 180 C33 168 32 159 32 144 C32 94 47 61 83 33 C118 5 165 -10 217 -10 C269 -10 320 5 362 33 C414 67 438 110 447 180 L482 467 L311 467 L279 204 C273 151 263 135 235 135 C215 135 205 146 205 169 C205 177 206 191 208 204 L240 467 L69 467 Z M378 663 C373 640 365 631 351 631 C345 631 336 633 326 638 C273 664 263 667 242 667 C188 667 142 617 128 540 L216 540 C222 565 228 572 242 572 C248 572 254 570 265 565 C316 540 324 537 347 537 C408 537 450 581 466 663 L378 663 Z " />
<glyph glyph-name="Umacron" unicode="&#x16a;" horiz-adv-x="537" d="M368 667 L315 236 C310 200 309 194 301 180 C293 166 277 157 261 157 C235 157 222 173 222 203 C222 213 223 225 224 237 L277 667 L100 667 L45 221 C43 205 42 188 42 172 C42 116 56 77 87 46 C124 9 181 -12 247 -12 C308 -12 357 4 402 40 C455 80 478 124 487 195 L545 667 L368 667 Z M169 744 L490 744 L502 837 L180 837 L169 744 Z " />
<glyph glyph-name="umacron" unicode="&#x16b;" horiz-adv-x="492" d="M69 467 L34 180 C33 168 32 159 32 144 C32 94 47 61 83 33 C118 5 165 -10 217 -10 C269 -10 320 5 362 33 C414 67 438 110 447 180 L482 467 L311 467 L279 204 C273 151 263 135 235 135 C215 135 205 146 205 169 C205 177 206 191 208 204 L240 467 L69 467 Z M128 557 L440 557 L451 650 L140 650 L128 557 Z " />
<glyph glyph-name="ubreve" unicode="&#x16d;" horiz-adv-x="492" d="M69 467 L34 180 C33 168 32 159 32 144 C32 94 47 61 83 33 C118 5 165 -10 217 -10 C269 -10 320 5 362 33 C414 67 438 110 447 180 L482 467 L311 467 L279 204 C273 151 263 135 235 135 C215 135 205 146 205 169 C205 177 206 191 208 204 L240 467 L69 467 Z M148 673 L148 659 C148 574 195 527 278 527 C370 527 430 576 457 673 L375 673 C356 633 334 618 292 618 C249 618 234 631 227 673 L148 673 Z " />
<glyph glyph-name="Uring" unicode="&#x16e;" horiz-adv-x="537" d="M368 667 L315 236 C310 200 309 194 301 180 C293 166 277 157 261 157 C235 157 222 173 222 203 C222 213 223 225 224 237 L277 667 L100 667 L45 221 C43 205 42 188 42 172 C42 116 56 77 87 46 C124 9 181 -12 247 -12 C308 -12 357 4 402 40 C455 80 478 124 487 195 L545 667 L368 667 Z M335 902 C283 902 240 859 240 806 C240 753 283 710 335 710 C387 710 430 753 430 804 C430 859 388 902 335 902 L335 902 Z M334 845 C356 845 373 828 373 806 C373 785 356 767 335 767 C313 767 296 785 296 806 C296 828 313 845 334 845 L334 845 Z " />
<glyph glyph-name="uring" unicode="&#x16f;" horiz-adv-x="492" d="M69 467 L34 180 C33 168 32 159 32 144 C32 94 47 61 83 33 C118 5 165 -10 217 -10 C269 -10 320 5 362 33 C414 67 438 110 447 180 L482 467 L311 467 L279 204 C273 151 263 135 235 135 C215 135 205 146 205 169 C205 177 206 191 208 204 L240 467 L69 467 Z M291 716 C239 716 197 673 197 620 C197 567 239 524 292 524 C343 524 386 567 386 618 C386 673 344 716 291 716 L291 716 Z M291 659 C312 659 329 642 329 620 C329 599 312 581 291 581 C270 581 253 599 253 620 C253 642 270 659 291 659 L291 659 Z " />
<glyph glyph-name="Uhungarumlaut" unicode="&#x170;" horiz-adv-x="537" d="M368 667 L315 236 C310 200 309 194 301 180 C293 166 277 157 261 157 C235 157 222 173 222 203 C222 213 223 225 224 237 L277 667 L100 667 L45 221 C43 205 42 188 42 172 C42 116 56 77 87 46 C124 9 181 -12 247 -12 C308 -12 357 4 402 40 C455 80 478 124 487 195 L545 667 L368 667 Z M378 865 L252 865 L190 720 L279 720 L378 865 Z M542 865 L417 865 L354 720 L443 720 L542 865 Z " />
<glyph glyph-name="uhungarumlaut" unicode="&#x171;" horiz-adv-x="492" d="M69 467 L34 180 C33 168 32 159 32 144 C32 94 47 61 83 33 C118 5 165 -10 217 -10 C269 -10 320 5 362 33 C414 67 438 110 447 180 L482 467 L311 467 L279 204 C273 151 263 135 235 135 C215 135 205 146 205 169 C205 177 206 191 208 204 L240 467 L69 467 Z M149 530 L237 530 L332 675 L214 675 L149 530 Z M305 530 L392 530 L488 675 L369 675 L305 530 Z " />
<glyph glyph-name="Uogonek" unicode="&#x172;" horiz-adv-x="537" d="M407 -78 C388 -84 379 -86 368 -86 C347 -86 335 -75 335 -57 C335 -32 353 -4 389 28 C459 86 475 114 487 195 L545 667 L368 667 L315 236 C310 200 309 194 301 180 C293 166 277 157 261 157 C235 157 222 173 222 203 C222 213 223 225 224 237 L277 667 L100 667 L45 221 C43 205 42 188 42 172 C42 116 56 77 87 46 C124 9 181 -12 246 -12 C262 -12 274 -11 294 -9 C261 -33 246 -59 246 -92 C246 -135 280 -161 334 -161 C355 -161 368 -158 389 -150 L407 -78 Z " />
<glyph glyph-name="uogonek" unicode="&#x173;" horiz-adv-x="492" d="M375 -79 C359 -83 351 -84 341 -84 C317 -84 305 -73 305 -53 C305 -28 322 -1 355 26 C420 76 435 102 447 180 L482 467 L311 467 L279 204 C273 151 263 135 235 135 C215 135 205 146 205 169 C205 177 206 191 208 204 L240 467 L69 467 L34 180 C33 168 32 159 32 144 C32 94 47 61 83 33 C118 5 165 -10 218 -10 C236 -10 248 -9 270 -5 C239 -29 223 -57 223 -87 C223 -128 261 -157 315 -157 C333 -157 342 -155 358 -149 L375 -79 Z " />
<glyph glyph-name="Wcircumflex" unicode="&#x174;" horiz-adv-x="742" d="M581 0 L796 667 L623 667 L565 460 C549 400 529 311 516 242 C517 270 517 292 517 305 C517 360 514 466 512 507 L501 667 L349 667 L292 476 C267 385 261 362 253 326 L236 250 C238 348 238 348 238 361 L237 426 C237 426 236 436 236 483 L229 667 L54 667 L118 0 L291 0 L354 242 C362 273 366 289 374 326 L384 374 C386 380 389 395 394 417 C395 353 397 292 398 234 L410 0 L581 0 Z M586 720 L522 858 L376 858 L264 720 L381 720 L431 783 L456 720 L586 720 Z " />
<glyph glyph-name="Ycircumflex" unicode="&#x176;" horiz-adv-x="493" d="M312 0 L347 283 L547 667 L363 667 L319 567 C306 538 295 511 276 461 C270 513 270 513 259 568 L239 667 L54 667 L170 283 L135 0 L312 0 Z M472 720 L408 858 L262 858 L150 720 L268 720 L317 783 L342 720 L472 720 Z " />
<glyph glyph-name="ycircumflex" unicode="&#x177;" horiz-adv-x="449" d="M186 -196 L478 467 L308 467 L270 366 C257 330 245 291 222 202 C222 262 221 302 217 333 L201 467 L29 467 L111 19 L10 -196 L186 -196 Z M418 530 L354 668 L218 668 L109 530 L222 530 L270 592 L294 530 L418 530 Z " />
<glyph glyph-name="Ydieresis" unicode="&#x178;" horiz-adv-x="493" d="M312 0 L347 283 L547 667 L363 667 L319 567 C306 538 295 511 276 461 C270 513 270 513 259 568 L239 667 L54 667 L170 283 L135 0 L312 0 Z M423 865 C380 865 342 827 342 784 C342 747 369 720 406 720 C448 720 486 758 486 801 C486 838 459 865 423 865 L423 865 Z M226 865 C184 865 146 827 146 784 C146 747 173 720 209 720 C251 720 289 759 289 802 C289 838 263 865 226 865 L226 865 Z " />
<glyph glyph-name="Zacute" unicode="&#x179;" horiz-adv-x="507" d="M440 0 L460 160 L322 156 C312 156 290 155 256 152 C298 221 325 266 336 285 L542 648 L544 667 L109 667 L90 510 L280 510 C238 454 227 437 171 340 L-10 14 L-12 0 L440 0 Z M465 865 L328 865 L265 720 L363 720 L465 865 Z " />
<glyph glyph-name="zacute" unicode="&#x17a;" horiz-adv-x="428" d="M356 0 L374 141 L247 141 C274 179 281 190 303 229 L441 467 L70 467 L53 328 L183 328 C160 293 147 273 129 242 L-12 0 L356 0 Z M398 675 L261 675 L198 530 L297 530 L398 675 Z " />
<glyph glyph-name="Zdotaccent" unicode="&#x17b;" horiz-adv-x="507" d="M440 0 L460 160 L322 156 C312 156 290 155 256 152 C298 221 325 266 336 285 L542 648 L544 667 L109 667 L90 510 L280 510 C238 454 227 437 171 340 L-10 14 L-12 0 L440 0 Z M349 872 C304 872 265 832 265 787 C265 748 293 720 331 720 C375 720 415 761 415 805 C415 844 387 872 349 872 L349 872 Z " />
<glyph glyph-name="zdotaccent" unicode="&#x17c;" horiz-adv-x="428" d="M356 0 L374 141 L247 141 C274 179 281 190 303 229 L441 467 L70 467 L53 328 L183 328 C160 293 147 273 129 242 L-12 0 L356 0 Z M276 682 C232 682 192 642 192 598 C192 559 221 530 259 530 C303 530 343 570 343 614 C343 653 315 682 276 682 L276 682 Z " />
<glyph glyph-name="Zcaron" unicode="&#x17d;" horiz-adv-x="507" d="M440 0 L460 160 L322 156 C312 156 290 155 256 152 C298 221 325 266 336 285 L542 648 L544 667 L109 667 L90 510 L280 510 C238 454 227 437 171 340 L-10 14 L-12 0 L440 0 Z M194 858 L258 720 L404 720 L516 858 L399 858 L349 795 L324 858 L194 858 Z " />
<glyph glyph-name="zcaron" unicode="&#x17e;" horiz-adv-x="428" d="M356 0 L374 141 L247 141 C274 179 281 190 303 229 L441 467 L70 467 L53 328 L183 328 C160 293 147 273 129 242 L-12 0 L356 0 Z M129 668 L193 530 L328 530 L437 668 L325 668 L277 607 L252 668 L129 668 Z " />
<glyph glyph-name="uni018F" unicode="&#x18f;" horiz-adv-x="566" d="M46 381 C43 332 40 279 40 261 C40 173 51 128 86 77 C123 22 189 -12 258 -12 C426 -12 554 170 554 410 C554 576 472 679 341 679 C237 679 135 606 85 496 L244 457 C261 496 279 512 308 512 C342 512 363 489 364 451 C366 413 367 394 367 391 C367 390 367 387 366 384 L366 381 L46 381 Z M358 287 C342 207 309 156 274 156 C242 156 225 191 225 259 C225 266 225 274 226 287 L358 287 Z " />
<glyph glyph-name="florin" unicode="&#x192;" horiz-adv-x="525" d="M414 329 L454 469 L401 469 L426 553 C433 577 445 587 466 587 C470 587 472 587 482 586 C485 585 491 585 497 584 L533 722 C486 732 481 733 456 733 C360 733 310 687 275 566 L247 469 L193 469 L153 329 L207 329 L129 57 C122 30 109 21 78 21 C74 21 68 21 48 23 L9 -119 C44 -129 60 -132 82 -132 C182 -132 243 -78 278 41 L361 329 L414 329 Z " />
<glyph glyph-name="uni01C4" unicode="&#x1c4;" horiz-adv-x="501" d="M308 715 C249 715 196 661 196 601 C196 549 233 511 283 511 C342 511 395 565 395 625 C395 677 358 715 308 715 L308 715 Z M194 463 L186 394 C157 387 144 381 125 368 C71 330 35 256 35 180 C35 66 110 -9 224 -9 C301 -9 375 28 416 86 C440 122 452 158 460 216 L289 216 C282 163 268 140 242 140 C222 140 212 157 212 193 C212 222 219 249 232 268 C248 291 274 301 316 301 C322 301 331 301 343 300 L363 463 L194 463 Z " />
<glyph glyph-name="uni01C5" unicode="&#x1c5;" horiz-adv-x="582" d="M137 -65 L621 682 L535 732 L51 -13 L137 -65 Z " />
<glyph glyph-name="uni01C6" unicode="&#x1c6;" horiz-adv-x="330" d="M221 732 C116 574 62 406 62 232 C62 130 82 31 123 -65 L259 4 C230 84 216 164 216 255 C216 387 260 532 340 663 L221 732 Z " />
<glyph glyph-name="uni01C7" unicode="&#x1c7;" horiz-adv-x="330" d="M134 -65 C240 94 293 261 293 436 C293 537 273 635 232 732 L96 663 C125 583 139 503 139 412 C139 279 95 134 15 4 L134 -65 Z " />
<glyph glyph-name="uni01C8" unicode="&#x1c8;" horiz-adv-x="344" d="M289 56 L188 56 L256 610 L357 610 L372 729 L120 729 L23 -63 L275 -63 L289 56 Z " />
<glyph glyph-name="uni01C9" unicode="&#x1c9;" horiz-adv-x="344" d="M80 610 L181 610 L113 56 L12 56 L-3 -63 L249 -63 L346 729 L94 729 L80 610 Z " />
<glyph glyph-name="uni01CA" unicode="&#x1ca;" horiz-adv-x="525" d="M52 121 C50 105 49 87 49 78 C49 -9 119 -66 225 -66 C352 -66 453 21 453 130 C453 174 439 203 402 233 C450 266 476 313 476 364 C476 419 446 455 364 498 C261 552 257 555 257 581 C257 608 278 625 311 625 C344 625 361 608 361 575 C361 569 360 556 359 544 L486 544 C490 569 491 583 491 596 C491 683 434 733 335 733 C216 733 124 655 124 554 C124 519 132 499 161 460 C109 425 81 378 81 322 C81 256 111 225 234 161 C287 133 300 121 300 99 C300 71 275 49 242 49 C203 49 184 65 184 99 C184 103 185 113 186 121 L52 121 Z M284 392 C318 392 338 375 338 348 C338 316 310 293 272 293 C241 293 219 311 219 338 C219 369 247 392 284 392 L284 392 Z " />
<glyph glyph-name="uni01CB" unicode="&#x1cb;" horiz-adv-x="525" d="M306 -63 L366 426 L524 426 L541 566 L383 566 L403 729 L246 729 L226 566 L68 566 L51 426 L209 426 L149 -63 L306 -63 Z " />
<glyph glyph-name="uni01CC" unicode="&#x1cc;" horiz-adv-x="525" d="M208 428 L183 228 L26 228 L9 91 L167 91 L148 -63 L305 -63 L324 91 L482 91 L499 228 L341 228 L366 428 L523 428 L540 565 L382 565 L403 729 L245 729 L225 565 L67 565 L50 428 L208 428 Z " />
<glyph glyph-name="uni01CD" unicode="&#x1cd;" horiz-adv-x="524" d="M491 0 L434 667 L217 667 L-23 0 L160 0 L185 85 L305 85 L307 0 L491 0 Z M301 228 L227 228 L258 333 C273 391 284 432 289 455 L302 508 C299 407 299 407 299 393 C299 372 299 313 300 306 L301 228 Z M193 858 L257 720 L403 720 L515 858 L398 858 L348 795 L323 858 L193 858 Z " />
<glyph glyph-name="uni01CE" unicode="&#x1ce;" horiz-adv-x="489" d="M421 0 L479 467 L305 467 C304 458 304 448 304 447 L302 419 L301 393 C278 454 250 477 201 477 C97 477 22 347 22 167 C22 56 64 -10 136 -10 C189 -10 227 16 266 79 C263 65 260 53 259 48 C259 45 257 36 255 22 C253 14 252 7 251 0 L421 0 Z M254 334 C273 334 282 319 282 288 C282 258 276 211 268 183 C258 149 245 133 225 133 C204 133 194 150 194 187 C194 212 202 262 210 287 C220 318 235 334 254 334 L254 334 Z M169 668 L233 530 L368 530 L477 668 L365 668 L317 607 L292 668 L169 668 Z " />
<glyph glyph-name="uni01D1" unicode="&#x1d1;" horiz-adv-x="317" d="M219 715 C159 715 106 662 106 601 C106 550 143 512 194 512 C254 512 307 566 307 626 C307 677 269 715 219 715 L219 715 Z M99 467 L42 0 L215 0 L273 467 L99 467 Z " />
<glyph glyph-name="uni01D3" unicode="&#x1d3;" horiz-adv-x="537" d="M368 667 L315 236 C310 200 309 194 301 180 C293 166 277 157 261 157 C235 157 222 173 222 203 C222 213 223 225 224 237 L277 667 L100 667 L45 221 C43 205 42 188 42 172 C42 116 56 77 87 46 C124 9 181 -12 247 -12 C308 -12 357 4 402 40 C455 80 478 124 487 195 L545 667 L368 667 Z M187 858 L251 720 L396 720 L509 858 L391 858 L341 795 L317 858 L187 858 Z " />
<glyph glyph-name="uni01D4" unicode="&#x1d4;" horiz-adv-x="492" d="M69 467 L34 180 C33 168 32 159 32 144 C32 94 47 61 83 33 C118 5 165 -10 217 -10 C269 -10 320 5 362 33 C414 67 438 110 447 180 L482 467 L311 467 L279 204 C273 151 263 135 235 135 C215 135 205 146 205 169 C205 177 206 191 208 204 L240 467 L69 467 Z M146 668 L210 530 L346 530 L455 668 L342 668 L294 607 L270 668 L146 668 Z " />
<glyph glyph-name="uni01DD" unicode="&#x1dd;" horiz-adv-x="481" d="M213 308 C221 329 236 340 255 340 C277 340 288 322 288 289 C288 282 288 278 287 269 L33 269 C27 233 25 214 25 190 C25 67 95 -10 207 -10 C350 -10 459 118 459 284 C459 406 391 476 272 476 C161 476 80 417 44 311 L213 308 Z M273 176 C267 139 250 117 226 117 C205 117 192 135 192 164 C192 166 192 171 193 176 L273 176 Z " />
<glyph glyph-name="Gcaron" unicode="&#x1e6;" horiz-adv-x="552" d="M293 385 L276 245 L342 245 C333 184 306 148 268 148 C233 148 216 177 216 238 C216 284 223 342 237 402 C255 482 281 518 320 518 C347 518 363 492 363 449 L543 514 C509 624 440 679 337 679 C238 679 157 628 102 529 C61 456 37 353 37 252 C37 85 116 -12 253 -12 C360 -12 443 47 490 155 C514 210 529 276 541 385 L293 385 Z M210 858 L274 720 L419 720 L532 858 L414 858 L364 795 L340 858 L210 858 Z " />
<glyph glyph-name="gcaron" unicode="&#x1e7;" horiz-adv-x="485" d="M476 467 L304 467 L299 406 C269 459 245 477 206 477 C105 477 24 343 24 174 C24 64 72 -7 147 -7 C187 -7 227 14 261 54 L252 -20 C247 -67 233 -86 204 -86 C186 -86 173 -73 173 -55 L173 -48 L-1 -48 C1 -164 60 -217 184 -217 C242 -217 293 -202 334 -172 C384 -137 407 -92 417 -14 L476 467 Z M257 336 C276 336 284 319 284 279 C284 252 281 225 274 195 C265 155 252 136 232 136 C213 136 203 158 203 199 C203 278 226 336 257 336 L257 336 Z M153 668 L217 530 L353 530 L462 668 L349 668 L301 607 L276 668 L153 668 Z " />
<glyph glyph-name="uni01F4" unicode="&#x1f4;" horiz-adv-x="552" d="M293 385 L276 245 L342 245 C333 184 306 148 268 148 C233 148 216 177 216 238 C216 284 223 342 237 402 C255 482 281 518 320 518 C347 518 363 492 363 449 L543 514 C509 624 440 679 337 679 C238 679 157 628 102 529 C61 456 37 353 37 252 C37 85 116 -12 253 -12 C360 -12 443 47 490 155 C514 210 529 276 541 385 L293 385 Z M482 865 L345 865 L282 720 L380 720 L482 865 Z " />
<glyph glyph-name="uni0200" unicode="&#x200;" horiz-adv-x="435" d="M224 735 L220 642 L151 703 L84 613 L161 563 L74 533 L117 429 L199 472 L180 381 L291 367 L296 460 L364 399 L431 489 L354 539 L441 569 L398 673 L316 630 L335 721 L224 735 Z " />
<glyph glyph-name="uni0201" unicode="&#x201;" horiz-adv-x="361" d="M289 570 C295 624 301 629 363 629 L369 629 L384 628 L394 628 L406 730 C372 731 352 731 346 732 L326 732 C212 732 162 695 150 604 L132 451 C122 403 111 391 70 385 L58 290 C95 283 104 273 104 236 C104 228 104 223 103 215 L84 64 C83 53 82 42 82 35 C82 -35 126 -66 226 -66 L236 -66 C259 -65 274 -64 280 -64 L309 -64 L321 38 L292 38 C240 38 228 43 228 65 C228 76 228 79 231 97 L246 223 C247 232 248 243 248 251 C248 291 237 311 200 333 C249 359 264 382 273 443 L289 570 Z " />
<glyph glyph-name="Scommaaccent" unicode="&#x218;" horiz-adv-x="398" d="M6 17 C50 -3 92 -12 133 -12 C268 -12 375 102 375 246 C375 307 350 352 291 400 C242 439 235 448 235 469 C235 493 259 514 287 514 C323 514 359 486 382 441 L408 645 C367 668 327 679 284 679 C219 679 161 650 117 596 C79 550 56 488 56 434 C56 372 81 325 142 271 C190 229 193 225 193 203 C193 174 168 153 135 153 C96 153 60 178 32 226 L6 17 Z M199 -53 L77 -53 L8 -210 L103 -210 L199 -53 Z " />
<glyph glyph-name="scommaaccent" unicode="&#x219;" horiz-adv-x="389" d="M0 39 C66 1 102 -10 159 -10 C228 -10 282 14 321 61 C347 94 363 135 363 172 C363 201 353 228 336 247 C323 262 308 270 268 287 C235 301 222 313 222 328 C222 343 235 354 252 354 C271 354 290 342 316 312 L390 439 C343 466 304 477 258 477 C142 477 49 398 49 299 C49 244 81 207 154 180 C183 169 194 160 194 146 C194 131 178 119 158 119 C133 119 103 137 78 168 L0 39 Z M214 -53 L96 -53 L30 -207 L124 -207 L214 -53 Z " />
<glyph glyph-name="uni021A" unicode="&#x21a;" horiz-adv-x="377" d="M248 0 L310 507 L412 507 L431 667 L54 667 L35 507 L132 507 L70 0 L248 0 Z M218 -53 L96 -53 L27 -210 L122 -210 L218 -53 Z " />
<glyph glyph-name="uni021B" unicode="&#x21b;" horiz-adv-x="297" d="M206 0 L246 328 L302 328 L320 467 L263 467 L280 604 L109 604 L92 467 L44 467 L27 328 L75 328 L35 0 L206 0 Z M178 -53 L60 -53 L-6 -207 L89 -207 L178 -53 Z " />
<glyph glyph-name="uni0226" unicode="&#x226;" horiz-adv-x="524" d="M491 0 L434 667 L217 667 L-23 0 L160 0 L185 85 L305 85 L307 0 L491 0 Z M301 228 L227 228 L258 333 C273 391 284 432 289 455 L302 508 C299 407 299 407 299 393 C299 372 299 313 300 306 L301 228 Z M348 872 C303 872 264 832 264 787 C264 749 292 720 330 720 C374 720 414 761 414 805 C414 844 386 872 348 872 L348 872 Z " />
<glyph glyph-name="uni0227" unicode="&#x227;" horiz-adv-x="489" d="M421 0 L479 467 L305 467 C304 458 304 448 304 447 L302 419 L301 393 C278 454 250 477 201 477 C97 477 22 347 22 167 C22 56 64 -10 136 -10 C189 -10 227 16 266 79 C263 65 260 53 259 48 C259 45 257 36 255 22 C253 14 252 7 251 0 L421 0 Z M254 334 C273 334 282 319 282 288 C282 258 276 211 268 183 C258 149 245 133 225 133 C204 133 194 150 194 187 C194 212 202 262 210 287 C220 318 235 334 254 334 L254 334 Z M306 682 C262 682 222 642 222 598 C222 559 251 530 289 530 C333 530 373 570 373 614 C373 653 345 682 306 682 L306 682 Z " />
<glyph glyph-name="uni0259" unicode="&#x259;" horiz-adv-x="481" d="M213 308 C221 329 236 340 255 340 C277 340 288 322 288 289 C288 282 288 278 287 269 L33 269 C27 233 25 214 25 190 C25 67 95 -10 207 -10 C350 -10 459 118 459 284 C459 406 391 476 272 476 C161 476 80 417 44 311 L213 308 Z M273 176 C267 139 250 117 226 117 C205 117 192 135 192 164 C192 166 192 171 193 176 L273 176 Z " />
<glyph glyph-name="circumflex" unicode="&#x2c6;" horiz-adv-x="500" d="M445 530 L381 668 L245 668 L136 530 L249 530 L297 592 L321 530 L445 530 Z " />
<glyph glyph-name="caron" unicode="&#x2c7;" horiz-adv-x="500" d="M149 668 L213 530 L349 530 L458 668 L345 668 L297 607 L272 668 L149 668 Z " />
<glyph glyph-name="uni02C9" unicode="&#x2c9;" horiz-adv-x="500" d="M148 557 L460 557 L471 650 L159 650 L148 557 Z " />
<glyph glyph-name="breve" unicode="&#x2d8;" horiz-adv-x="500" d="M155 673 L155 659 C155 574 202 527 285 527 C377 527 437 576 464 673 L382 673 C363 633 341 618 299 618 C256 618 241 631 234 673 L155 673 Z " />
<glyph glyph-name="dotaccent" unicode="&#x2d9;" horiz-adv-x="500" d="M308 682 C263 682 223 642 223 598 C223 559 252 530 290 530 C335 530 375 570 375 614 C375 654 347 682 308 682 L308 682 Z " />
<glyph glyph-name="ring" unicode="&#x2da;" horiz-adv-x="500" d="M300 716 C248 716 206 673 206 620 C206 567 248 524 301 524 C352 524 395 567 395 618 C395 673 353 716 300 716 L300 716 Z M300 659 C321 659 338 642 338 620 C338 599 321 581 300 581 C279 581 262 599 262 620 C262 642 279 659 300 659 L300 659 Z " />
<glyph glyph-name="ogonek" unicode="&#x2db;" horiz-adv-x="500" d="M221 0 C179 -31 157 -67 157 -101 C157 -142 195 -171 249 -171 C267 -171 277 -169 292 -162 L309 -92 C293 -97 285 -98 275 -98 C252 -98 239 -87 239 -68 C239 -47 255 -21 281 0 L221 0 Z " />
<glyph glyph-name="tilde" unicode="&#x2dc;" horiz-adv-x="500" d="M446 663 C440 640 433 631 418 631 C412 631 404 633 393 638 C340 664 330 667 309 667 C255 667 210 617 195 540 L283 540 C290 565 296 572 310 572 C315 572 322 570 332 565 C384 540 391 537 414 537 C476 537 517 581 534 663 L446 663 Z " />
<glyph glyph-name="hungarumlaut" unicode="&#x2dd;" horiz-adv-x="500" d="M165 530 L253 530 L348 675 L230 675 L165 530 Z M321 530 L408 530 L504 675 L385 675 L321 530 Z " />
<glyph glyph-name="uni04D8" unicode="&#x4d8;" horiz-adv-x="566" d="M46 381 C43 332 40 279 40 261 C40 173 51 128 86 77 C123 22 189 -12 258 -12 C426 -12 554 170 554 410 C554 576 472 679 341 679 C237 679 135 606 85 496 L244 457 C261 496 279 512 308 512 C342 512 363 489 364 451 C366 413 367 394 367 391 C367 390 367 387 366 384 L366 381 L46 381 Z M358 287 C342 207 309 156 274 156 C242 156 225 191 225 259 C225 266 225 274 226 287 L358 287 Z " />
<glyph glyph-name="afii10846" unicode="&#x4d9;" horiz-adv-x="481" d="M213 308 C221 329 236 340 255 340 C277 340 288 322 288 289 C288 282 288 278 287 269 L33 269 C27 233 25 214 25 190 C25 67 95 -10 207 -10 C350 -10 459 118 459 284 C459 406 391 476 272 476 C161 476 80 417 44 311 L213 308 Z M273 176 C267 139 250 117 226 117 C205 117 192 135 192 164 C192 166 192 171 193 176 L273 176 Z " />
<glyph glyph-name="uni1E1E" unicode="&#x1e1e;" horiz-adv-x="382" d="M195 0 L228 262 L354 262 L373 413 L246 413 L258 510 L394 510 L413 667 L100 667 L18 0 L195 0 Z M281 872 C236 872 197 832 197 787 C197 749 225 720 263 720 C307 720 347 761 347 805 C347 844 319 872 281 872 L281 872 Z " />
<glyph glyph-name="Wacute" unicode="&#x1e82;" horiz-adv-x="266" d="M233 173 L250 306 L36 306 L20 173 L233 173 Z " />
<glyph glyph-name="Wdieresis" unicode="&#x1e84;" horiz-adv-x="742" d="M581 0 L796 667 L623 667 L565 460 C549 400 529 311 516 242 C517 270 517 292 517 305 C517 360 514 466 512 507 L501 667 L349 667 L292 476 C267 385 261 362 253 326 L236 250 C238 348 238 348 238 361 L237 426 C237 426 236 436 236 483 L229 667 L54 667 L118 0 L291 0 L354 242 C362 273 366 289 374 326 L384 374 C386 380 389 395 394 417 C395 353 397 292 398 234 L410 0 L581 0 Z M547 865 C504 865 466 827 466 784 C466 748 493 720 530 720 C572 720 610 758 610 801 C610 838 583 865 547 865 L547 865 Z M351 865 C309 865 271 827 271 784 C271 747 298 720 334 720 C376 720 414 759 414 802 C414 838 388 865 351 865 L351 865 Z " />
<glyph glyph-name="uni2011" unicode="&#x2011;" horiz-adv-x="213" d="M206 173 L223 306 L9 306 L-7 173 L206 173 Z " />
<glyph glyph-name="figuredash" unicode="&#x2012;" horiz-adv-x="524" d="M459 173 L476 306 L67 306 L51 173 L459 173 Z " />
<glyph glyph-name="endash" unicode="&#x2013;" horiz-adv-x="524" d="M459 173 L476 306 L67 306 L51 173 L459 173 Z " />
<glyph glyph-name="emdash" unicode="&#x2014;" horiz-adv-x="640" d="M633 173 L650 306 L9 306 L-7 173 L633 173 Z " />
<glyph glyph-name="afii00208" unicode="&#x2015;" horiz-adv-x="640" d="M633 173 L650 306 L9 306 L-7 173 L633 173 Z " />
<glyph glyph-name="underscoredbl" unicode="&#x2017;" horiz-adv-x="500" d="M12 -47 L12 -123 L512 -123 L512 -47 L12 -47 Z M12 -164 L12 -240 L512 -240 L512 -164 L12 -164 Z " />
<glyph glyph-name="quoteleft" unicode="&#x2018;" horiz-adv-x="327" d="M54 346 L228 346 L348 667 L208 667 L54 346 Z " />
<glyph glyph-name="quoteright" unicode="&#x2019;" horiz-adv-x="320" d="M341 667 L167 667 L47 346 L187 346 L341 667 Z " />
<glyph glyph-name="quotesinglbase" unicode="&#x201a;" horiz-adv-x="320" d="M279 159 L105 159 L-15 -161 L125 -161 L279 159 Z " />
<glyph glyph-name="quotedblleft" unicode="&#x201c;" horiz-adv-x="560" d="M54 346 L228 346 L348 667 L208 667 L54 346 Z M287 346 L461 346 L581 667 L441 667 L287 346 Z " />
<glyph glyph-name="quotedblright" unicode="&#x201d;" horiz-adv-x="560" d="M581 667 L407 667 L287 346 L427 346 L581 667 Z M348 667 L174 667 L54 346 L194 346 L348 667 Z " />
<glyph glyph-name="quotedblbase" unicode="&#x201e;" horiz-adv-x="553" d="M512 159 L338 159 L218 -161 L358 -161 L512 159 Z M279 159 L105 159 L-15 -161 L125 -161 L279 159 Z " />
<glyph glyph-name="dagger" unicode="&#x2020;" horiz-adv-x="525" d="M288 -209 L366 426 L524 426 L541 566 L383 566 L403 729 L246 729 L226 566 L68 566 L51 426 L209 426 L131 -209 L288 -209 Z " />
<glyph glyph-name="daggerdbl" unicode="&#x2021;" horiz-adv-x="525" d="M208 428 L183 228 L26 228 L9 91 L167 91 L130 -209 L287 -209 L324 91 L482 91 L499 228 L341 228 L366 428 L523 428 L540 565 L382 565 L403 729 L245 729 L225 565 L67 565 L50 428 L208 428 Z " />
<glyph glyph-name="bullet" unicode="&#x2022;" horiz-adv-x="667" d="M349 478 C270 478 208 417 208 339 C208 263 271 201 347 201 C423 201 485 263 485 340 C485 415 423 478 349 478 L349 478 Z " />
<glyph glyph-name="ellipsis" unicode="&#x2026;" horiz-adv-x="985" d="M159 192 C99 192 47 139 47 79 C47 28 85 -10 136 -10 C196 -10 248 42 248 102 C248 154 210 192 159 192 L159 192 Z M487 192 C427 192 375 139 375 79 C375 28 413 -10 464 -10 C524 -10 576 42 576 102 C576 154 538 192 487 192 L487 192 Z M816 192 C756 192 704 139 704 79 C704 28 742 -10 793 -10 C853 -10 905 42 905 102 C905 154 867 192 816 192 L816 192 Z " />
<glyph glyph-name="perthousand" unicode="&#x2030;" horiz-adv-x="994" d="M226 677 C128 677 60 598 60 487 C60 402 108 351 187 351 C278 351 348 435 348 543 C348 625 301 677 226 677 L226 677 Z M212 579 C225 579 232 566 232 540 C232 488 217 448 197 448 C183 448 176 462 176 489 C176 541 191 579 212 579 L212 579 Z M522 316 C426 316 357 237 357 126 C357 41 405 -10 484 -10 C575 -10 645 74 645 183 C645 265 598 316 522 316 L522 316 Z M509 218 C522 218 529 205 529 179 C529 127 514 87 494 87 C480 87 473 101 473 128 C473 180 488 218 509 218 L509 218 Z M109 -23 L658 644 L594 694 L47 27 L109 -23 Z M837 316 C741 316 672 237 672 126 C672 41 720 -10 799 -10 C890 -10 960 74 960 183 C960 265 913 316 837 316 L837 316 Z M824 218 C837 218 844 205 844 179 C844 127 829 87 809 87 C795 87 788 101 788 128 C788 180 803 218 824 218 L824 218 Z " />
<glyph glyph-name="guilsinglleft" unicode="&#x2039;" horiz-adv-x="278" d="M153 39 L236 97 L142 240 L271 383 L202 441 L28 240 L153 39 Z " />
<glyph glyph-name="guilsinglright" unicode="&#x203a;" horiz-adv-x="278" d="M79 39 L253 240 L129 441 L45 383 L139 240 L10 97 L79 39 Z " />
<glyph glyph-name="uni203E" unicode="&#x203e;" horiz-adv-x="500" d="M12 889 L12 779 L512 779 L512 889 L12 889 Z " />
<glyph glyph-name="fraction" unicode="&#x2044;" horiz-adv-x="137" d="M-120 -44 L349 672 L281 711 L-186 -5 L-120 -44 Z " />
<glyph glyph-name="franc" unicode="&#x20a3;" horiz-adv-x="525" d="M168 0 L201 262 L327 262 L346 413 L219 413 L231 510 L367 510 L386 667 L73 667 L-9 0 L168 0 Z M434 0 L449 127 C453 161 468 179 492 179 C501 179 505 177 525 165 L542 300 L535 300 C507 299 493 291 463 258 L470 293 L354 293 L318 0 L434 0 Z " />
<glyph glyph-name="lira" unicode="&#x20a4;" horiz-adv-x="525" d="M55 232 L137 232 L137 223 C137 182 130 156 109 126 C76 111 69 107 26 78 L65 -4 C104 19 125 26 154 26 C176 26 178 25 224 5 C252 -6 278 -12 305 -12 C378 -12 435 29 476 111 L394 159 C376 137 359 128 338 128 C326 128 320 130 303 139 C273 154 262 157 232 159 C253 183 263 199 276 232 L425 232 L433 297 L292 297 C293 321 294 330 294 347 L439 347 L447 412 L288 412 C279 464 279 466 279 478 C279 511 304 538 334 538 C358 538 374 524 392 488 L499 584 C450 646 389 677 318 677 C197 677 102 586 102 469 C102 451 103 439 107 412 L77 412 L69 347 L119 347 L128 297 L63 297 L55 232 Z " />
<glyph glyph-name="peseta" unicode="&#x20a7;" horiz-adv-x="909" d="M195 0 L222 219 C234 218 246 218 250 218 C337 218 392 237 437 284 C483 330 510 402 510 474 C510 533 492 579 456 614 C417 650 360 667 272 667 L100 667 L18 0 L195 0 Z M241 368 L259 521 L272 522 C307 522 330 496 330 456 C330 404 296 368 249 368 L241 368 Z M597 0 L621 196 L655 196 L667 293 L633 293 L643 376 L527 376 L517 293 L488 293 L476 196 L505 196 L481 0 L597 0 Z M653 27 C697 1 721 -6 756 -6 C829 -6 887 45 887 110 C887 148 873 165 823 185 C804 192 798 197 798 204 C798 210 804 215 813 215 C825 215 836 209 860 189 L905 273 C869 293 849 299 818 299 C744 299 685 248 685 186 C685 149 706 126 754 109 C769 104 775 99 775 94 C775 87 767 82 757 82 C740 82 723 91 701 112 L653 27 Z " />
<glyph glyph-name="Euro" unicode="&#x20ac;" horiz-adv-x="524" d="M107 237 C110 198 114 174 122 149 C155 49 239 -12 343 -12 C381 -12 407 -6 453 12 L487 205 C448 173 422 162 389 162 C341 162 314 185 298 237 L379 237 L407 309 L293 309 C294 324 295 334 299 354 L425 354 L453 426 L319 426 C348 484 385 512 435 512 C453 512 466 509 481 500 L543 659 C516 672 484 679 447 679 C302 679 178 580 131 426 L75 426 L47 354 L115 354 C112 338 110 320 109 309 L56 309 L28 237 L107 237 Z " />
<glyph glyph-name="uni2101" unicode="&#x2101;" horiz-adv-x="829" d="M349 267 L313 667 L177 667 L31 267 L147 267 L162 317 L232 317 L233 267 L349 267 Z M229 406 L188 406 L206 466 C215 500 222 524 225 539 L229 553 C228 526 228 492 228 450 L229 406 Z M286 -44 L755 672 L687 711 L220 -5 L286 -44 Z M557 11 C585 -1 610 -7 636 -7 C719 -7 785 61 785 148 C785 185 770 211 733 241 C704 264 700 269 700 281 C700 294 714 305 730 305 C752 305 773 288 789 257 L805 387 C778 401 754 407 727 407 C652 407 586 338 586 259 C586 221 601 193 639 161 C669 135 670 134 670 121 C670 106 656 94 638 94 C613 94 592 109 573 142 L557 11 Z " />
<glyph glyph-name="afii61248" unicode="&#x2105;" horiz-adv-x="263" d="M145 421 C100 421 64 385 64 340 C64 295 101 258 146 258 C190 258 227 294 227 338 C227 384 191 421 145 421 L145 421 Z " />
<glyph glyph-name="afii61289" unicode="&#x2113;" horiz-adv-x="500" d="M285 267 C377 358 377 358 409 415 C439 466 455 518 455 558 C455 623 417 666 359 666 C299 666 251 624 213 536 C180 459 156 371 137 253 C121 231 115 222 106 212 C75 176 72 171 72 154 C72 134 83 113 93 113 C100 113 108 121 128 147 C129 36 166 -25 232 -25 C289 -25 348 39 348 101 C348 119 339 130 324 130 C313 130 307 126 297 106 C292 98 292 98 291 95 C282 79 282 79 281 77 C276 69 272 66 267 66 C259 66 255 75 255 91 C255 111 261 165 274 255 L285 267 Z M285 341 C308 502 333 578 363 578 C376 578 383 566 383 546 C383 498 335 399 285 341 L285 341 Z " />
<glyph glyph-name="uni2117" unicode="&#x2117;" horiz-adv-x="174" d="M151 267 L186 551 L67 551 L32 267 L151 267 Z M146 707 C105 707 69 673 69 635 C69 602 95 577 130 577 C171 577 207 611 207 649 C207 683 181 707 146 707 L146 707 Z " />
<glyph glyph-name="trademark" unicode="&#x2122;" horiz-adv-x="657" d="M171 287 L205 571 L264 571 L276 667 L51 667 L39 571 L96 571 L61 287 L171 287 Z M649 287 L658 667 L525 667 L473 503 L466 667 L331 667 L240 287 L357 287 L390 473 L398 287 L488 287 L550 482 L534 287 L649 287 Z " />
<glyph glyph-name="uni2126" unicode="&#x2126;" horiz-adv-x="657" d="M41 0 L310 0 L310 139 C238 176 205 241 205 345 C205 457 262 537 342 537 C422 537 478 459 478 346 C478 242 445 176 374 139 L374 0 L642 0 L642 152 L524 152 C611 207 645 269 645 371 C645 549 514 684 342 684 C170 684 38 549 38 371 C38 310 54 256 84 216 C103 192 121 176 159 152 L41 152 L41 0 Z " />
<glyph glyph-name="partialdiff" unicode="&#x2202;" horiz-adv-x="500" d="M59 524 C206 515 298 473 330 401 C302 422 271 431 223 431 C108 431 22 343 22 225 C22 89 118 -8 254 -8 C408 -8 500 97 500 273 C500 394 461 485 378 555 C306 616 214 649 79 662 L59 524 Z M261 299 C304 299 338 262 338 216 C338 170 303 133 259 133 C216 133 181 170 181 216 C181 262 216 299 261 299 L261 299 Z " />
<glyph glyph-name="emptyset" unicode="&#x2205;" horiz-adv-x="618" d="M451 667 L404 578 C374 588 352 592 323 592 C187 592 79 485 79 349 C79 267 115 200 187 147 L126 25 L174 0 L237 123 C260 112 283 107 316 107 C455 107 564 214 564 350 C564 432 526 501 451 554 L499 642 L451 667 Z M428 502 C477 472 508 412 508 349 C508 247 424 164 321 164 C302 164 287 166 263 172 L428 502 Z M212 198 C161 239 135 290 135 350 C135 452 220 535 324 535 C344 535 357 533 378 527 L212 198 Z " />
<glyph glyph-name="Delta" unicode="&#x2206;" horiz-adv-x="662" d="M21 0 L665 0 L435 667 L249 667 L21 0 Z M249 155 L343 478 L433 155 L249 155 Z " />
<glyph glyph-name="product" unicode="&#x220f;" horiz-adv-x="667" d="M27 750 L27 607 L99 607 L99 -107 L27 -107 L27 -250 L316 -250 L316 -107 L258 -107 L258 607 L433 607 L433 -107 L374 -107 L374 -250 L664 -250 L664 -107 L593 -107 L593 607 L664 607 L664 750 L27 750 Z " />
<glyph glyph-name="summation" unicode="&#x2211;" horiz-adv-x="667" d="M645 750 L45 750 L45 560 L272 264 L45 -60 L45 -250 L654 -250 L654 25 L484 25 L473 -85 L248 -85 L484 264 L246 585 L464 585 L484 482 L645 482 L645 750 Z " />
<glyph glyph-name="minus" unicode="&#x2212;" horiz-adv-x="525" d="M53 288 L500 288 L500 392 L53 392 L53 288 Z " />
<glyph glyph-name="uni2218" unicode="&#x2218;" horiz-adv-x="500" d="M265 480 C187 480 125 418 125 340 C125 264 187 201 263 201 C339 201 400 263 400 341 C400 417 339 480 265 480 L265 480 Z M264 432 C312 432 353 390 353 340 C353 290 313 249 263 249 C213 249 172 290 172 340 C172 392 213 432 264 432 L264 432 Z " />
<glyph glyph-name="uni2219" unicode="&#x2219;" horiz-adv-x="288" d="M156 341 C97 341 45 288 45 228 C45 177 83 139 133 139 C193 139 245 192 245 251 C245 303 207 341 156 341 L156 341 Z " />
<glyph glyph-name="radical" unicode="&#x221a;" horiz-adv-x="667" d="M679 827 L392 827 L301 446 C280 360 258 227 252 149 L242 149 C240 192 233 258 227 294 L206 384 L12 384 L12 236 L105 236 L153 0 L364 0 L523 679 L679 679 L679 827 Z " />
<glyph glyph-name="infinity" unicode="&#x221e;" horiz-adv-x="667" d="M349 260 C393 205 444 178 502 178 C595 178 662 246 662 340 C662 435 595 501 500 501 C441 501 387 473 343 420 C295 475 246 501 190 501 C97 501 29 433 29 340 C29 245 96 178 191 178 C250 178 300 204 349 260 L349 260 Z M406 339 C431 374 455 391 481 391 C512 391 536 368 536 340 C536 311 512 288 482 288 C455 288 432 303 406 339 L406 339 Z M285 339 C259 303 236 288 210 288 C179 288 155 311 155 339 C155 368 179 391 209 391 C236 391 259 376 285 339 L285 339 Z " />
<glyph glyph-name="integral" unicode="&#x222b;" horiz-adv-x="500" d="M32 -240 C75 -247 94 -249 127 -249 C254 -249 333 -189 353 -78 C359 -46 359 -46 359 109 L359 489 C359 523 360 536 364 546 C373 568 392 580 419 580 C433 580 445 577 464 570 L493 740 C448 748 426 750 396 750 C283 750 201 695 177 605 C166 562 166 562 166 395 L166 71 C166 -33 166 -33 161 -45 C153 -66 131 -80 106 -80 C92 -80 81 -78 61 -70 L32 -240 Z " />
<glyph glyph-name="similar" unicode="&#x223c;" horiz-adv-x="500" d="M109 221 C130 261 146 276 168 276 C182 276 197 272 236 257 C303 230 322 225 348 225 C383 225 417 240 443 266 C468 292 481 315 505 374 L415 450 C394 410 378 396 355 396 C346 396 333 399 322 403 C218 442 202 447 175 447 C107 447 59 401 19 298 L109 221 Z " />
<glyph glyph-name="uni2243" unicode="&#x2243;" horiz-adv-x="500" d="M153 348 C175 379 190 390 211 390 C226 390 243 385 280 370 C344 345 364 339 392 339 C462 339 505 380 549 488 L459 552 C436 520 422 510 399 510 C389 510 378 513 366 517 C260 557 246 561 219 561 C151 561 103 516 63 412 L153 348 Z M490 275 L57 275 L57 117 L490 117 L490 275 Z " />
<glyph glyph-name="approxequal" unicode="&#x2248;" horiz-adv-x="500" d="M109 348 C131 379 146 390 167 390 C182 390 199 385 236 370 C300 345 320 339 348 339 C418 339 461 380 505 488 L415 552 C392 520 378 510 355 510 C345 510 334 513 322 517 C216 557 202 561 175 561 C107 561 59 516 19 412 L109 348 Z M109 107 C131 138 146 149 167 149 C182 149 199 144 236 129 C299 104 320 98 348 98 C418 98 461 139 505 247 L415 310 C392 278 378 269 354 269 C345 269 334 271 322 276 C212 317 202 320 175 320 C107 320 59 275 19 170 L109 107 Z " />
<glyph glyph-name="notequal" unicode="&#x2260;" horiz-adv-x="500" d="M263 498 L46 498 L46 340 L199 340 L162 275 L45 275 L45 117 L104 117 L77 75 L193 10 L253 117 L478 117 L478 275 L310 275 L347 340 L478 340 L478 498 L411 498 L450 566 L335 631 L263 498 Z " />
<glyph glyph-name="lessequal" unicode="&#x2264;" horiz-adv-x="500" d="M478 672 L45 515 L45 357 L478 200 L478 376 L251 435 L478 495 L478 672 Z M478 174 L45 174 L45 8 L478 8 L478 174 Z " />
<glyph glyph-name="greaterequal" unicode="&#x2265;" horiz-adv-x="500" d="M46 200 L478 357 L478 515 L45 672 L45 495 L272 435 L46 376 L46 200 Z M45 8 L478 8 L478 174 L45 174 L45 8 Z " />
<glyph glyph-name="dotlessj" unicode="&#xf6be;" horiz-adv-x="250" d="M157 -205 L239 467 L68 467 L-13 -205 L157 -205 Z " />
<glyph glyph-name="ff" unicode="&#xfb00;" horiz-adv-x="566" d="M202 0 L242 328 L280 328 L297 467 L259 467 L267 532 C271 568 280 580 299 580 C310 580 316 577 332 564 L352 724 C318 733 298 736 273 736 C224 736 181 716 147 679 C121 650 106 611 99 553 L88 467 L39 467 L22 328 L71 328 L31 0 L202 0 Z M472 0 L512 328 L573 328 L590 467 L529 467 L537 532 C541 568 550 580 569 580 C580 580 586 577 602 564 L622 724 C588 733 568 736 543 736 C494 736 451 716 417 679 C391 650 376 611 369 553 L358 467 L322 467 L305 328 L341 328 L301 0 L472 0 Z " />
<glyph glyph-name="fi" unicode="&#xfb01;" horiz-adv-x="539" d="M202 0 L242 328 L303 328 L320 467 L259 467 L267 532 C271 568 280 580 299 580 C310 580 316 577 332 564 L352 724 C319 733 298 736 273 736 C224 736 181 716 147 679 C121 650 106 611 99 553 L88 467 L39 467 L22 328 L71 328 L31 0 L202 0 Z M472 0 L529 467 L358 467 L301 0 L472 0 Z M474 713 C415 713 362 660 362 600 C362 549 400 511 450 511 C509 511 562 564 562 624 C562 676 525 713 474 713 L474 713 Z " />
<glyph glyph-name="fl" unicode="&#xfb02;" horiz-adv-x="539" d="M202 0 L242 328 L303 328 L320 467 L259 467 L267 532 C271 568 280 580 299 580 C310 580 316 577 332 564 L352 724 C318 733 298 736 273 736 C224 736 181 716 147 679 C121 650 106 611 99 553 L88 467 L39 467 L22 328 L71 328 L31 0 L202 0 Z M472 0 L561 729 L390 729 L301 0 L472 0 Z " />
<glyph glyph-name="ffi" unicode="&#xfb03;" horiz-adv-x="809" d="M202 0 L242 328 L280 328 L297 467 L259 467 L267 532 C271 568 280 580 299 580 C310 580 316 577 332 564 L352 724 C318 733 298 736 273 736 C224 736 181 716 147 679 C121 650 106 611 99 553 L88 467 L39 467 L22 328 L71 328 L31 0 L202 0 Z M472 0 L512 328 L573 328 L590 467 L529 467 L537 532 C541 568 550 580 569 580 C580 580 586 577 602 564 L622 724 C588 733 568 736 543 736 C494 736 451 716 417 679 C391 650 376 611 369 553 L358 467 L322 467 L305 328 L341 328 L301 0 L472 0 Z M742 0 L799 467 L628 467 L571 0 L742 0 Z M744 713 C685 713 632 660 632 600 C632 549 670 511 720 511 C779 511 832 564 832 624 C832 676 795 713 744 713 L744 713 Z " />
<glyph glyph-name="ffl" unicode="&#xfb04;" horiz-adv-x="809" d="M202 0 L242 328 L280 328 L297 467 L259 467 L267 532 C271 568 280 580 299 580 C310 580 316 577 332 564 L352 724 C318 733 298 736 273 736 C224 736 181 716 147 679 C121 650 106 611 99 553 L88 467 L39 467 L22 328 L71 328 L31 0 L202 0 Z M472 0 L512 328 L573 328 L590 467 L529 467 L537 532 C541 568 550 580 569 580 C580 580 586 577 602 564 L622 724 C588 733 568 736 543 736 C494 736 451 716 417 679 C391 650 376 611 369 553 L358 467 L322 467 L305 328 L341 328 L301 0 L472 0 Z M742 0 L831 729 L660 729 L571 0 L742 0 Z " />
</font>
</svg>
