<?xml version="1.0" standalone="no"?>
<!DOCTYPE svg PUBLIC "-//W3C//DTD SVG 1.1//EN" "http://www.w3.org/Graphics/SVG/1.1/DTD/svg11.dtd" >
<svg xmlns="http://www.w3.org/2000/svg">
<metadata>
Created by FontPrep 20130207 at Wed Nov 23 16:28:32 2016
 By Tina Muller
Copyright (c) 2016 by Enrique Hernandez Vasquez. All rights reserved.
</metadata>
<defs>
<font id="63093abacb5d3b53a139cb41d69fe4f0" horiz-adv-x='1024' >
  <font-face 
    font-family="Isidora-MediumIt"
    font-weight="500"
    font-style="italic"
    font-stretch="normal"
    units-per-em="2048"
    panose-1="0 0 6 0 0 0 0 0 0 0"
    ascent="1638"
    descent="-410"
    x-height="1024"
    cap-height="1331"
    bbox="-360 -717 2748 1829.01"
    underline-thickness="102"
    underline-position="-102"
    slope="-10"
    unicode-range="U+0020-FB02"
  />
<missing-glyph horiz-adv-x="1177" 
d="M784 -289h-391v-78h166l-166 -110v-78h391v78h-239l164 110h75v78zM707 -45v-111h-236v111h236zM784 33h-391v-266h391v266zM784 440h-235v-133h80v55h78v-110h-236v188h-78v-266h391v266zM784 727h-77v-156h-314v-79h391v235zM784 868h-391v-77h156v-89h-156v-75h236
v164h155v77zM549 1098v-86h-78v86h78zM629 1178h-236v-246h391v80h-155v166zM784 1481h-389v-78h154v-88h-156v-78h391v78h-155v88h155v78zM967 1638v-2355h-748v2355h748z" />
    <glyph glyph-name="fi" unicode="fi" horiz-adv-x="1062" 
d="M1050 1339q44 -1 72 -27t27 -71q0 -45 -38 -82t-82 -37t-71 27q-26 27 -26 71t37 81q37 38 81 38zM728 1417q102 0 167 -35l2 -10l-70 -98l-10 -4q-41 20 -99 20t-110 -56t-73 -169l-9 -41h547l-143 -823q-22 -101 26 -101q20 0 35 15l10 -4l11 -99q-30 -37 -107 -37
q-77 -1 -109 51t-18 132l131 743h-403l-162 -901h-143l161 901h-163l20 123h164l8 41q31 174 133 263t204 89z" />
    <glyph glyph-name="fl" unicode="fl" horiz-adv-x="1056" 
d="M806 1417q152 0 227 -65t57 -174l-175 -1000q-14 -78 31 -78q18 0 37 15l10 -4l11 -99q-26 -37 -102 -37q-76 1 -112 51t-22 132l182 1038q-12 43 -58 69q-46 25 -125 25t-145 -56t-85 -169l-9 -41h306l-21 -123h-305l-160 -901h-143l160 901h-166l20 123h166l8 41
q31 170 146 261t267 91z" />
    <glyph glyph-name=".notdef" horiz-adv-x="1177" 
d="M784 -289h-391v-78h166l-166 -110v-78h391v78h-239l164 110h75v78zM707 -45v-111h-236v111h236zM784 33h-391v-266h391v266zM784 440h-235v-133h80v55h78v-110h-236v188h-78v-266h391v266zM784 727h-77v-156h-314v-79h391v235zM784 868h-391v-77h156v-89h-156v-75h236
v164h155v77zM549 1098v-86h-78v86h78zM629 1178h-236v-246h391v80h-155v166zM784 1481h-389v-78h154v-88h-156v-78h391v78h-155v88h155v78zM967 1638v-2355h-748v2355h748z" />
    <glyph glyph-name=".null" horiz-adv-x="0" 
 />
    <glyph glyph-name="nonmarkingreturn" horiz-adv-x="681" 
 />
    <glyph glyph-name="space" unicode=" " horiz-adv-x="485" 
 />
    <glyph glyph-name="exclam" unicode="!" horiz-adv-x="456" 
d="M255 213q48 0 78 -30q29 -31 29 -79t-40 -89q-42 -40 -90 -40t-78 29t-29 78q0 49 41 90t89 41zM377 1325l10 6h150l6 -8l-195 -1004l-14 -10h-103l-6 10z" />
    <glyph glyph-name="quotedbl" unicode="&#x22;" horiz-adv-x="610" 
d="M530 838l58 493h145l-121 -493h-82zM293 838l55 493h146l-121 -493h-80z" />
    <glyph glyph-name="numbersign" unicode="#" horiz-adv-x="1150" 
d="M530 500h261l102 331h-260zM252 0l117 377h-236l39 123h236l102 331h-234l37 123h234l115 375h124l-114 -375h260l115 375h122l-114 -375h196l-37 -123h-196l-103 -331h195l-41 -123h-192l-117 -377h-123l115 377h-260l-117 -377h-123z" />
    <glyph glyph-name="dollar" unicode="$" horiz-adv-x="872" 
d="M604 1075q-78 0 -131 -44t-53 -103t40 -95t107 -64t91 -39q108 -49 160 -110.5t52 -154.5q0 -135 -95 -224t-251 -106l-28 -155h-125l28 155q-86 16 -160.5 64.5t-113.5 117.5l2 11l98 75h11q25 -63 90 -103t159.5 -40t165 50t70.5 130q0 51 -19.5 71.5t-26.5 28
t-25 18.5q-16 12 -26 18q-13 9 -118 55.5t-153 86.5t-65.5 79t-17.5 90q0 119 81 205t214 106l27 154h125l-27 -152q82 -10 148.5 -51t95.5 -100l-2 -11l-103 -75h-10q-60 112 -215 112z" />
    <glyph glyph-name="percent" unicode="%" horiz-adv-x="1622" 
d="M1298 94q88 0 145 96q56 96 56 213t-40 170t-99 54q-90 -1 -146 -97t-55 -243q0 -85 40 -139t99 -54zM1278 -25q-112 0 -180 82t-68 215q0 205 98 339t252 134q111 1 180 -81t68 -215q0 -205 -98 -339t-252 -135zM500 705q90 0 145 96t55 243q0 86 -40 140t-99 53
q-90 0 -146 -96t-57 -244q0 -86 40 -139t102 -53zM1597 1331v-16l-1208 -1315h-131l-2 16l1208 1315h133zM477 586q-109 0 -177 82t-69 215q1 205 99 339t252 134q110 0 178 -82t67 -215q0 -205 -97 -339t-253 -134z" />
    <glyph glyph-name="ampersand" unicode="&#x26;" horiz-adv-x="1196" 
d="M390 183q83 -75 211 -77t228 54l-292 545q-101 -45 -165 -131t-64 -202q0 -114 82 -189zM575 -25q-183 -1 -303 105t-118 267q0 161 91 281t238 185q-55 129 -55 219q0 150 106 237t265 87q209 0 303 -160l-2 -10l-107 -82h-10q-63 123 -201 121q-86 -2 -143 -49
t-57 -132q0 -48 22 -114t39 -99q16 -33 59 -114l242 -451q64 92 60 212t-48 177l2 11l115 75h10q72 -113 74 -256q6 -205 -137 -346q31 -43 64 -43t63 13l8 -7l6 -96l-6 -10q-43 -20 -94 -21q-92 0 -162 76q-141 -76 -324 -76z" />
    <glyph glyph-name="quotesingle" unicode="'" horiz-adv-x="370" 
d="M293 838l55 493h146l-121 -493h-80z" />
    <glyph glyph-name="parenleft" unicode="(" horiz-adv-x="561" 
d="M326 371q0 -179 42 -359t117 -311h-159q-74 139 -115 319t-41 357q0 547 463 1069h160q-217 -230 -342 -506t-125 -569z" />
    <glyph glyph-name="parenright" unicode=")" horiz-adv-x="561" 
d="M594 772q0 -555 -465 -1071h-160q219 231 344 507t125 568q0 182 -42 362t-120 308h160q158 -285 158 -674z" />
    <glyph glyph-name="asterisk" unicode="*" horiz-adv-x="876" 
d="M625 1372h110l-47 -272l248 137l39 -98l-250 -135l203 -138l-76 -98l-199 137l-49 -272h-110l49 272l-250 -137l-37 98l248 138l-201 135l74 98l201 -137z" />
    <glyph glyph-name="plus" unicode="+" horiz-adv-x="1048" 
d="M1098 674l-21 -115h-393l-70 -397h-120l69 397h-395l20 115h396l69 389h121l-69 -389h393z" />
    <glyph glyph-name="comma" unicode="," horiz-adv-x="444" 
d="M117 77q0 60 39 98t89 38t80 -31q71 -74 -22 -229q-51 -86 -205 -262h-14l-59 55l2 10q119 133 147 230q-57 31 -57 91z" />
    <glyph glyph-name="hyphen" unicode="-" horiz-adv-x="907" 
d="M246 674h653l-20 -119h-654z" />
    <glyph glyph-name="period" unicode="." horiz-adv-x="438" 
d="M245 213q48 0 79 -30q30 -31 30 -79t-41 -88t-89 -41q-48 0 -78 29t-30 78t41 90q40 41 88 41z" />
    <glyph glyph-name="slash" unicode="/" horiz-adv-x="1017" 
d="M1090 1442h127l6 -12l-1059 -1539h-123l-10 13z" />
    <glyph glyph-name="zero" unicode="0" horiz-adv-x="1204" 
d="M797 1219q-193 0 -320 -202t-127 -495q0 -182 81 -296t212 -113q193 1 319 201t125 495q0 182 -80 296q-81 114 -210 114zM821 1356q188 0 303 -146t115 -385q0 -365 -177 -607t-444 -243q-188 1 -304 147t-115 384q0 366 177 608t445 242z" />
    <glyph glyph-name="one" unicode="1" horiz-adv-x="614" 
d="M313 1331h336l-235 -1331h-148l211 1198h-227l-2 12z" />
    <glyph glyph-name="two" unicode="2" horiz-adv-x="1021" 
d="M711 1356q158 0 259 -91t101 -229t-81 -256q-46 -68 -97 -127q-136 -157 -582 -526h658l-23 -127h-880l18 102q66 56 167 142t211 179t170 150q153 148 209 225q56 78 68 127q12 48 13 87q0 96 -67 153t-165 57t-170 -41q-72 -42 -151 -122h-11l-82 78l3 10
q201 209 432 209z" />
    <glyph glyph-name="three" unicode="3" horiz-adv-x="1032" 
d="M535 109q147 0 233 89t86 208q0 120 -76 188t-207 68h-82l19 112h78q143 0 240 78q98 78 98 177t-65 147t-165 47q-166 0 -299 -129h-10l-82 86l2 10q172 166 420 166q158 0 256 -77t98 -200q-1 -123 -67 -215t-178 -139q169 -83 172 -295q0 -180 -134 -317t-352 -138
q-133 -1 -247 57t-183 156l2 11l101 77h10q47 -74 138 -120t194 -47z" />
    <glyph glyph-name="four" unicode="4" horiz-adv-x="1077" 
d="M858 1036l-563 -581h463zM1055 1331l-156 -876h188l-22 -127h-188l-58 -328h-147l57 328h-637l19 102l874 901h70z" />
    <glyph glyph-name="five" unicode="5" horiz-adv-x="1069" 
d="M680 889q176 1 287 -103t110 -276q-1 -238 -157 -386t-396 -149q-128 1 -238 55t-169 156l2 11l102 79h10q41 -74 124 -120t175 -47q174 0 286 105t112 271q0 121 -81 196t-208 75q-82 0 -168 -42t-143 -108h-13l-88 49l222 676h686l-25 -137h-567l-121 -375
q131 70 258 70z" />
    <glyph glyph-name="six" unicode="6" horiz-adv-x="1079" 
d="M307 375q0 -115 81 -191q82 -76 232 -75t245 109t96 267q0 117 -72 192t-201 75q-166 0 -274 -110t-107 -267zM713 885q181 0 289 -109t108 -276q0 -219 -153 -372t-365 -153t-327 117q-116 117 -109 297q16 379 690 995h10l88 -79l-2 -11q-311 -279 -467 -487
q119 78 238 78z" />
    <glyph glyph-name="seven" unicode="7" horiz-adv-x="899" 
d="M1108 1331l-12 -65l-752 -1266h-151l-3 6l703 1184h-649l26 141h838z" />
    <glyph glyph-name="eight" unicode="8" horiz-adv-x="1128" 
d="M674 688q-140 0 -256 -96t-115 -238q0 -110 83 -178q82 -68 226 -68t248 93q104 92 104 220q0 127 -74 197q-76 70 -216 70zM723 809q99 0 175 68t77 159q-1 91 -61 139t-141 48t-138 -30t-90 -84t-33 -128t56 -123t155 -49zM1116 453q0 -201 -159 -339t-363 -138
t-324 100q-118 100 -118 252t85 262q85 111 222 168q-102 80 -103 211q0 167 125 277t289 110t262 -81t98 -195q0 -221 -184 -326q170 -100 170 -301z" />
    <glyph glyph-name="nine" unicode="9" horiz-adv-x="1079" 
d="M354 836q0 -108 71 -184q71 -74 191 -74t208 51t135 137q49 86 49 175t-31 149t-94 95q-63 36 -164 36t-188 -53q-177 -105 -177 -332zM756 1354q190 0 300 -118t101 -292q-11 -258 -328 -633q-153 -180 -360 -366h-10l-86 78l2 10q297 264 461 485q-117 -74 -236 -74
q-180 0 -288 109t-107 276q0 217 161 371t390 154z" />
    <glyph glyph-name="colon" unicode=":" horiz-adv-x="491" 
d="M274 211q48 0 78 -30q30 -31 29 -79q0 -48 -41 -88t-90 -41q-49 0 -78 30t-29 78t41 89q42 41 90 41zM397 809q-49 0 -78 30q-29 29 -29 77t41 90q40 42 89 41q49 0 79 -30q29 -30 29 -79t-41 -89t-90 -40z" />
    <glyph glyph-name="semicolon" unicode=";" horiz-adv-x="524" 
d="M162 77q0 60 39 98t89 38t80 -31q71 -74 -22 -229q-51 -86 -205 -262h-14l-59 55l2 10q119 133 147 230q-57 31 -57 91zM421 811q-48 0 -78 29q-30 30 -30 78t41 90q42 42 90 41q48 0 78 -30t29 -79q0 -49 -41 -89t-89 -40z" />
    <glyph glyph-name="less" unicode="&#x3c;" horiz-adv-x="991" 
d="M1065 1196l8 -6l-20 -123l-9 -10l-704 -398l565 -397l4 -10l-22 -123l-10 -6l-707 489l16 95z" />
    <glyph glyph-name="equal" unicode="=" horiz-adv-x="1177" 
d="M213 446h907l-20 -118h-907zM295 901h907l-22 -119h-908z" />
    <glyph glyph-name="greater" unicode="&#x3e;" horiz-adv-x="991" 
d="M348 1196l707 -489l-17 -95l-878 -489l-10 6l22 123l8 10l707 397l-568 398l-4 10l21 123z" />
    <glyph glyph-name="question" unicode="?" horiz-adv-x="991" 
d="M522 213q49 0 77 -30q28 -29 28 -77t-43 -90q-44 -42 -92 -41q-48 0 -76 29t-27 78q0 49 42 90t91 41zM724 1356q160 0 262 -87q101 -87 101 -235q0 -85 -21 -129q-22 -43 -32 -67t-39 -57q-29 -32 -41 -47t-48 -46q-42 -36 -128 -102t-111 -108q-26 -42 -38 -109l-8 -50
h-144l8 48q15 99 59 163t132 134q183 137 210 193q42 85 43 167t-66 139t-170 57t-195 -65q-92 -66 -129 -158l-11 -4l-118 29v10q53 135 188 230q136 94 296 94z" />
    <glyph glyph-name="at" unicode="@" horiz-adv-x="1665" 
d="M866 248q108 0 188 88q79 88 79 242q0 102 -66 160q-67 58 -175 58t-184 -94q-76 -96 -75 -210q0 -114 62 -179q63 -65 171 -65zM803 -248q-268 0 -453 181q-184 181 -184 458q0 231 88 415t248 300q227 166 525 166t475 -167t177 -418q1 -251 -119 -399t-272 -148
t-178 120q-126 -127 -276 -127t-243 93t-93 231q0 188 119 322q121 134 301 134t268 -114l20 116h107l-94 -528q-25 -137 88 -137q75 0 157 117t82 319t-146 333q-146 132 -391 132t-427 -139q-133 -102 -206 -258t-73 -346q1 -234 149 -382t386 -149q156 0 301 82h10
l45 -88l-2 -8q-66 -49 -173 -80t-216 -31z" />
    <glyph glyph-name="A" unicode="A" horiz-adv-x="1318" 
d="M449 432h522l-146 649zM1199 -25q-67 0 -105 43t-70 185l-23 98h-628l-176 -301h-152l786 1331h84l261 -1122q14 -57 26 -79q23 -42 92 -7l9 -4l10 -105l-4 -10q-43 -29 -110 -29z" />
    <glyph glyph-name="B" unicode="B" horiz-adv-x="1234" 
d="M952 193q104 76 105 223q0 96 -66 152t-178 57h-373l-88 -494h373q145 1 227 62zM795 745q197 1 271 127q36 60 36 124q0 204 -232 204h-327l-82 -455h334zM1206 414q0 -100 -45 -192q-109 -222 -493 -222h-486l236 1331h463q195 0 285 -80t91 -206q-1 -126 -65 -214
t-164 -137q76 -40 127 -110t51 -170z" />
    <glyph glyph-name="C" unicode="C" horiz-adv-x="1357" 
d="M784 -25q-252 0 -418.5 171t-166.5 425q0 201 93 373t253 281q201 131 432 131q164 0 294 -72t206 -194l-2 -11l-113 -75h-10q-59 104 -165 160.5t-235 56.5q-182 1 -319 -93t-209 -234t-72 -326t130 -321.5t327 -135.5q111 0 225.5 48t200.5 134h10l84 -84l-2 -10
q-228 -224 -543 -224z" />
    <glyph glyph-name="D" unicode="D" horiz-adv-x="1429" 
d="M1315 764q0 213 -127 334q-104 102 -305 102h-340l-191 -1069h342q260 0 416 135q98 84 152 214q53 130 53 284zM672 0h-490l236 1331h489q255 0 398 -131q164 -152 163 -416q0 -190 -72 -354t-204 -268q-205 -162 -520 -162z" />
    <glyph glyph-name="E" unicode="E" horiz-adv-x="1099" 
d="M1227 1200h-686l-82 -463h542l-22 -131h-543l-84 -475h686l-22 -131h-834l236 1331h833z" />
    <glyph glyph-name="F" unicode="F" horiz-adv-x="989" 
d="M1155 1200h-614l-82 -463h491l-22 -131h-492l-106 -606h-148l236 1331h762z" />
    <glyph glyph-name="G" unicode="G" horiz-adv-x="1468" 
d="M975 1356q162 0 294 -75t206 -191l-2 -11l-117 -75h-10q-57 104 -162 160.5t-234 56.5q-238 0 -409 -160q-190 -180 -191 -475q0 -205 130 -340t337 -135t359.5 129t193.5 346h-516l25 131h647l8 -12v-19q-31 -334 -247 -522t-505 -189q-252 0 -418.5 171t-166.5 425
q0 363 260 590q221 195 518 195z" />
    <glyph glyph-name="H" unicode="H" horiz-adv-x="1427" 
d="M1333 1331h148l-236 -1331h-147l106 606h-768l-106 -606h-148l236 1331h147l-106 -594h768z" />
    <glyph glyph-name="I" unicode="I" horiz-adv-x="512" 
d="M418 1331h147l-235 -1331h-148z" />
    <glyph glyph-name="J" unicode="J" horiz-adv-x="978" 
d="M424 -25q-248 0 -348 205l2 13l108 79h11q72 -162 247 -161q102 0 184 75q81 76 105 209l141 805h-419l24 131h568l-166 -936q-35 -203 -166 -311t-291 -109z" />
    <glyph glyph-name="K" unicode="K" horiz-adv-x="1191" 
d="M1098 -25q-139 0 -254 177l-289 448l-141 -127l-84 -473h-148l236 1331h147l-119 -667l728 667h178l2 -6l-682 -623l305 -473q43 -68 75.5 -94t67.5 -26t58 14l8 -4l20 -105l-4 -10q-41 -29 -104 -29z" />
    <glyph glyph-name="L" unicode="L" horiz-adv-x="972" 
d="M965 131l-23 -131h-760l236 1331h147l-213 -1200h613z" />
    <glyph glyph-name="M" unicode="M" horiz-adv-x="1665" 
d="M1505 -25q-164 0 -147 222l63 778l-579 -975h-86l-234 971l-270 -971h-137l374 1331h84l267 -1104l657 1104h82l-78 -1124q-4 -63 6 -81t36 -17q26 0 42 14l8 -4l11 -105l-5 -10q-43 -29 -94 -29z" />
    <glyph glyph-name="N" unicode="N" horiz-adv-x="1419" 
d="M1329 1331h144l-236 -1331h-78l-651 1042l-182 -1042h-144l236 1331h78l649 -1040z" />
    <glyph glyph-name="O" unicode="O" horiz-adv-x="1525" 
d="M813 111q238 0 410 159q190 180 190 473q0 203 -135 340t-332 138q-238 0 -409 -160q-190 -180 -191 -475q0 -203 135 -339t332 -136zM788 -25q-252 0 -424 172t-171 424q0 362 260 590q221 195 518 195q252 0 424 -172t172 -424q0 -362 -260 -590q-222 -195 -519 -195z
" />
    <glyph glyph-name="P" unicode="P" horiz-adv-x="1155" 
d="M797 653q137 0 227 88t90 234q0 100 -65 166q-63 59 -156 59h-352l-97 -547h353zM881 1331q168 0 272 -76q117 -90 117 -251q0 -230 -142 -354t-391 -124h-315l-92 -526h-148l236 1331h463z" />
    <glyph glyph-name="Q" unicode="Q" horiz-adv-x="1589" 
d="M346 586q0 -203 135 -339t332 -136q238 0 410 159q190 180 190 473q0 203 -135 340t-332 138q-238 0 -419 -170t-181 -465zM1198 -307q-123 0 -217 102q-20 23 -53 63t-51 62q-46 55 -95 55q-250 3 -420 175t-169 421q0 362 260 590q221 195 518 195q252 0 424 -172
t172 -424q0 -362 -260 -590q-137 -121 -316 -168q41 -39 105 -110q64 -70 124 -70t107 37l8 -4l39 -95l-4 -10q-35 -25 -84 -41t-88 -16z" />
    <glyph glyph-name="R" unicode="R" horiz-adv-x="1232" 
d="M803 690q129 0 221 82q94 88 94 204.5t-74 174.5q-59 49 -151 49h-352l-90 -510h352zM1075.5 -25q-53.5 0 -85.5 10.5t-54.5 24t-43 44t-31.5 51t-23.5 64.5t-17.5 65.5t-16 74.5t-16 72q-39 182 -118 182h-242l-98 -563h-148l236 1331h463q186 0 288.5 -84t102.5 -231
q0 -223 -158 -344q-104 -78 -254 -101q51 -23 82 -190q16 -92 29.5 -140t45.5 -90t71.5 -42t64.5 14l8 -4l21 -105l-4 -10q-49 -29 -102.5 -29z" />
    <glyph glyph-name="S" unicode="S" horiz-adv-x="1064" 
d="M1032 1059q-96 162 -308 162q-110 0 -194 -67t-84 -169q0 -70 53.5 -117t111.5 -72.5t108.5 -48t71 -31.5t63.5 -33q44 -24 64 -41q72 -60 100.5 -118.5t28.5 -132.5q0 -174 -117 -287q-63 -61 -167.5 -95t-232.5 -34t-247 62.5t-179 171.5l2 10l99 84h10
q121 -193 358 -192q145 0 233.5 74.5t88.5 168t-58.5 144.5t-114.5 77.5t-104 48.5t-88 40q-93 44 -164 105.5t-71 186.5q0 184 138 291.5t327 108.5q133 0 235.5 -54.5t153.5 -146.5l-2 -10l-105 -86h-10z" />
    <glyph glyph-name="T" unicode="T" horiz-adv-x="1019" 
d="M436 0l211 1200h-414l25 131h975l-25 -131h-413l-211 -1200h-148z" />
    <glyph glyph-name="U" unicode="U" horiz-adv-x="1380" 
d="M701 -25q-215 0 -337 112t-122 312q0 45 28 205l129 727h146l-127 -729q-27 -164 -25 -209q4 -185 157 -252q73 -31 175 -30q170 0 281 100q84 78 120 180q37 102 70 287l115 653h145l-117 -659q-41 -230 -91 -354t-171 -218q-160 -125 -376 -125z" />
    <glyph glyph-name="V" unicode="V" horiz-adv-x="1316" 
d="M360 1356q66 0 104 -44t60 -143l205 -915l617 1077h149l4 -8l-776 -1323h-84l-266 1130q-13 52 -25 72q-26 41 -80 6l-10 4l-20 105l4 10q52 29 118 29z" />
    <glyph glyph-name="W" unicode="W" horiz-adv-x="1873" 
d="M358 1356q143 0 166 -187l115 -895l496 1057h141l121 -1063l512 1063h149l4 -8l-673 -1323h-84l-140 1108l-532 -1108h-84l-174 1130q-7 52 -19 72q-23 40 -88 6l-10 4l-20 105l4 10q51 29 116 29z" />
    <glyph glyph-name="X" unicode="X" horiz-adv-x="1247" 
d="M1119 -25q-73 0 -122 42t-98 143l-184 383l-490 -543h-159l-5 8l594 658l-225 464q-43 92 -106 93q-29 0 -52 -15l-10 4l-20 105l4 10q54 29 118 29t113 -42t96 -143l189 -395l500 555h159l4 -8l-604 -670l219 -452q27 -55 52 -73t59 -19q34 0 61 14l9 -4l20 -105l-4 -10
q-45 -29 -118 -29z" />
    <glyph glyph-name="Y" unicode="Y" horiz-adv-x="1277" 
d="M356 1356q66 0 107 -43t86 -144l225 -495l529 657h159l4 -8l-635 -778l-96 -545h-147l94 532l-276 598q-28 56 -46 74t-44 18t-48 -14l-10 4l-20 105l4 10q48 29 114 29z" />
    <glyph glyph-name="Z" unicode="Z" horiz-adv-x="1140" 
d="M1286 1323l-12 -74l-987 -1122h831l-22 -127h-1035l-6 8l13 74l985 1122h-746l23 127h950z" />
    <glyph glyph-name="bracketleft" unicode="[" horiz-adv-x="542" 
d="M707 1327h-179l-264 -1503h178l-22 -123h-322l310 1749h321z" />
    <glyph glyph-name="backslash" unicode="\" horiz-adv-x="1054" 
d="M438 1442l551 -1538l-14 -13h-123l-551 1539l10 12h127z" />
    <glyph glyph-name="bracketright" unicode="]" horiz-adv-x="542" 
d="M303 1327l23 123h321l-309 -1749h-322l23 123h180l264 1503h-180z" />
    <glyph glyph-name="asciicircum" unicode="^" horiz-adv-x="1183" 
d="M885 1331l334 -764l-7 -10h-131l-10 6l-264 604l-498 -604l-10 -6h-129l-4 10l625 764h94z" />
    <glyph glyph-name="underscore" unicode="_" horiz-adv-x="946" 
d="M18 -111h869l-19 -114h-868z" />
    <glyph glyph-name="grave" unicode="`" horiz-adv-x="575" 
d="M317 1503l379 -278v-11l-51 -67h-10l-397 239l-2 11l71 106h10z" />
    <glyph glyph-name="a" unicode="a" 
d="M607 526q-145 0 -239 -66t-94 -165q0 -97 63 -143t175 -46t220 76q110 76 134 205l15 82q-129 57 -274 57zM825 123q-157 -148 -395 -148q-120 0 -214 75q-93 75 -93 218q0 182 145 282t359 99q154 0 276 -57q20 111 21 135q0 96 -76 143t-189 48q-170 0 -315 -125h-10
l-80 88v10q178 158 430 158q166 0 274 -73t109 -239q0 -45 -18 -143l-72 -393q-22 -101 29 -101q16 1 34 15l11 -4l10 -99q-22 -37 -103 -37q-137 0 -133 148z" />
    <glyph glyph-name="b" unicode="b" horiz-adv-x="1226" 
d="M946 211q149 136 152 364q0 150 -84 246t-230 97q-106 0 -206 -56t-160 -167q-60 -112 -62 -263q0 -151 83 -237q83 -85 229 -89q163 1 278 105zM813 1049q201 0 317 -128t117 -324q0 -196 -108 -363q-53 -81 -125 -138q-156 -121 -369 -121t-330 175l-26 -150h-142
l242 1370l139 25l9 -6l-84 -476q159 136 360 136z" />
    <glyph glyph-name="c" unicode="c" horiz-adv-x="1064" 
d="M608 -25q-197 0 -321.5 129t-124.5 324q0 147 63.5 276.5t173.5 217.5q162 127 377 127q125 0 226.5 -48.5t154.5 -132.5l-2 -10l-102 -74h-11q-104 134 -278 134t-291 -101q-164 -137 -164 -377q0 -145 89 -239.5t233 -94.5q182 0 315 134h10l76 -74l-2 -10
q-174 -181 -422 -181z" />
    <glyph glyph-name="d" unicode="d" horiz-adv-x="1249" 
d="M723.5 918q-146.5 0 -262.5 -107q-152 -139 -152 -360q0 -143 87 -244t230.5 -101t247.5 78q178 133 179 412q0 156 -91.5 239t-238 83zM160 432q0 145 57 272t162 214q160 131 375 131t336 -175l88 498l139 25l6 -6l-209 -1190q-22 -101 29 -101q17 1 35 15l10 -4
l10 -99q-22 -37 -93.5 -37t-105.5 41t-32 107q-157 -146 -361.5 -147t-325 131.5t-120.5 324.5z" />
    <glyph glyph-name="e" unicode="e" horiz-adv-x="1153" 
d="M471 825q-111 -86 -143 -233h710q12 150 -64.5 238t-233 87.5t-269.5 -92.5zM631 106q225 0 364 152h11l79 -82l-2 -10q-86 -96 -210.5 -143.5t-247.5 -47.5q-203 0 -334 119t-131 328q0 145 63.5 278.5t163.5 217.5q158 131 361 131t319.5 -122t116.5 -315
q0 -73 -25 -143h-846q-13 -235 131 -319q74 -44 187 -44z" />
    <glyph glyph-name="f" unicode="f" horiz-adv-x="673" 
d="M758 1290q-76 0 -138 -56t-83 -169l-9 -41h308l-21 -123h-307l-160 -901h-143l160 901h-166l20 123h166l8 41q31 172 143 262t234 90t184 -49l2 -10l-63 -98l-10 -5q-49 35 -125 35z" />
    <glyph glyph-name="g" unicode="g" horiz-adv-x="1228" 
d="M1030 613.5q0 97.5 -38 164t-107.5 103.5t-157.5 37q-195 0 -297 -123.5t-102 -271.5t80.5 -229t210 -81t222.5 60.5t141 151.5t48 188.5zM539 -307q-143 0 -255 58.5t-167 166.5l2 14l88 76h14q43 -86 130 -136t206 -50q162 0 263.5 93t125.5 247l8 53
q-150 -133 -347 -133t-312 115.5t-115 291.5q0 137 60.5 257t165.5 198q145 104 342 105q109 0 194.5 -45.5t136.5 -124.5q16 76 63.5 123t114 47t97.5 -27l2 -10l-45 -99l-11 -4q-10 15 -34 15q-44 1 -60 -101l-116 -657q-39 -221 -188.5 -347t-362.5 -126z" />
    <glyph glyph-name="h" unicode="h" horiz-adv-x="1144" 
d="M776 1049q186 -1 277 -103q92 -102 80 -270q0 -25 -23 -150l-94 -526h-146l97 543q18 103 19 155t-28 108q-59 114 -217 114q-127 0 -220 -83t-122 -216l-108 -621h-144l242 1372l139 25l9 -6l-84 -478q137 136 323 136z" />
    <glyph glyph-name="i" unicode="i" horiz-adv-x="454" 
d="M348 100q16 0 35 15l10 -4l10 -99q-22 -37 -100 -37q-78 1 -114 51t-21 132l154 866h143l-150 -846q-12 -78 33 -78zM418 1145q-49 0 -78 30q-29 29 -29 77t40 89t89 41t79 -30t30 -78q0 -49 -41 -89t-90 -40z" />
    <glyph glyph-name="j" unicode="j" horiz-adv-x="436" 
d="M328 1024h143l-174 -987q-25 -137 -88 -214t-176 -130h-13l-36 108l4 13q139 66 162 202zM426 1145q-49 0 -78 30q-29 29 -29 77t40 89q39 41 89 41t80 -30t29 -78q0 -49 -41 -89t-90 -40z" />
    <glyph glyph-name="k" unicode="k" horiz-adv-x="1011" 
d="M928 -25q-106 0 -178 109l-248 399l-150 -133l-61 -350h-144l242 1372l139 25l9 -6l-152 -863l553 496h162l4 -8l-488 -436l263 -422q35 -57 82 -58q14 1 43 15l12 -4l10 -99l-6 -10q-41 -27 -92 -27z" />
    <glyph glyph-name="l" unicode="l" horiz-adv-x="460" 
d="M352 100q16 0 35 15l10 -4l11 -99q-26 -37 -102.5 -37t-112 50.5t-21.5 132.5l213 1214l141 25l6 -6l-213 -1213q-12 -78 33 -78z" />
    <glyph glyph-name="m" unicode="m" horiz-adv-x="1851" 
d="M327 1049q136 0 136 -140q133 141 328 140q121 -3 205 -55t120 -140q66 92 164 144t213 51q170 1 264 -103t78 -270q-6 -55 -23 -154l-94 -522h-145l92 522q19 96 23 152q9 116 -57 180t-185 65t-209 -89t-115 -230l-106 -600h-146l93 522q18 100 22 152q9 110 -55 178
t-186 68t-209 -84q-88 -84 -113 -224l-109 -612h-143l145 823q22 101 -28 101q-16 0 -35 -15l-10 4l-11 99q26 37 96 37z" />
    <glyph glyph-name="n" unicode="n" horiz-adv-x="1169" 
d="M316 1049q147 0 147 -136q131 136 344 136q170 0 265 -103.5t83 -269.5q0 -25 -22 -154l-95 -522h-145l92 522q23 125 24 167q2 100 -63.5 165.5t-167.5 65.5t-172 -36q-146 -75 -184 -266l-109 -618h-143l145 823q22 101 -28 101q-16 0 -35 -15l-10 4l-11 99
q26 37 85 37z" />
    <glyph glyph-name="o" unicode="o" horiz-adv-x="1204" 
d="M631 106q180 0 299 113q145 135 145 363q0 147 -90 241.5t-242.5 94.5t-273.5 -105q-160 -139 -160 -371q0 -147 90.5 -241.5t231.5 -94.5zM625 -25q-214 0 -338.5 129t-124.5 324q0 145 62.5 273t170.5 217q166 131 372 131t332 -129t126 -324q0 -139 -56.5 -263
t-156.5 -212q-173 -146 -387 -146z" />
    <glyph glyph-name="p" unicode="p" horiz-adv-x="1249" 
d="M1120 582q0 141 -84 238q-84 98 -214 98t-230 -60q-136 -76 -186 -241q-27 -85 -27 -187q0 -154 87 -239q88 -85 238 -85t265 105q151 138 151 371zM830 1049q204 0 322 -127t118 -320q0 -152 -62 -286t-172 -220q-154 -121 -366 -121t-330 170l-80 -452h-143l198 1130
q22 101 -28 101q-16 0 -35 -15l-10 4l-11 99q26 37 98 37q142 0 134 -156q162 156 367 156z" />
    <glyph glyph-name="q" unicode="q" horiz-adv-x="1247" 
d="M1053 582q0 168 -90 252t-238 84q-199 0 -326 -179q-87 -123 -88 -278q-2 -156 85 -255q86 -100 230 -100t237 70t141 176t49 230zM160 440q0 135 57 261t158 212q161 135 379 135t342 -182q14 78 61 130t117 52t98 -26l2 -10l-45 -99l-10 -4q-10 14 -33 15
q-45 0 -61 -101l-199 -1130h-143l73 422q-154 -139 -354 -139t-322 130q-120 131 -120 334z" />
    <glyph glyph-name="r" unicode="r" horiz-adv-x="706" 
d="M315 1049q142 0 148 -125q113 125 276 125q83 0 144 -29l2 -10l-68 -111l-10 -4q-33 25 -100 25q-115 0 -186.5 -81t-98.5 -229l-109 -610h-143l145 823q16 100 -28 101q-16 0 -35 -15l-10 4l-11 99q26 37 84 37z" />
    <glyph glyph-name="s" unicode="s" horiz-adv-x="851" 
d="M440 -25q-117 0 -211 50.5t-141 136.5l2 10l103 76h10q27 -66 93 -105t162.5 -39t161 47.5t64.5 109.5t-33 101t-71.5 60.5t-134 63.5t-155 99.5t-59.5 169t91 202.5t268 92q111 0 193.5 -43t115.5 -113l-2 -10l-104 -76h-11q-25 49 -84 81t-134 32t-128 -40t-53 -104
q0 -96 158 -170q74 -35 107.5 -53t86.5 -58q99 -75 99 -209t-105 -223q-107 -88 -289 -88z" />
    <glyph glyph-name="t" unicode="t" horiz-adv-x="694" 
d="M504 -25q-139 0 -206 94.5t-38 247.5l102 584h-163l20 123h166l53 307l142 25l8 -6l-58 -326h306l-21 -123h-307l-102 -582q-16 -100 15.5 -157.5t108.5 -57.5q45 0 91 27l10 -6l26 -98l-8 -11q-63 -41 -145 -41z" />
    <glyph glyph-name="u" unicode="u" horiz-adv-x="1146" 
d="M1096 12q-22 -37 -95 -37q-71 0 -105 38t-32 102q-133 -139 -315 -139q-183 0 -277 102q-94 104 -77 270q6 57 22 150l94 526h146l-97 -543q-12 -63 -19 -159t56 -156q63 -62 185 -62t210 84q89 84 113 226l109 610h143l-149 -846q-12 -78 32 -78q17 1 35 15l10 -4z" />
    <glyph glyph-name="v" unicode="v" horiz-adv-x="1028" 
d="M293 1049q123 0 153 -160l132 -658l452 793h137l4 -10l-585 -1014h-90l-177 791q-23 106 -35 119q-12 14 -32 14q-21 0 -41 -15l-10 4l-15 99q26 37 107 37z" />
    <glyph glyph-name="w" unicode="w" horiz-adv-x="1523" 
d="M289 1049q129 0 153 -160l97 -608l364 743h129l105 -752l387 752h139l4 -10l-547 -1014h-69l-117 815l-402 -815h-71l-146 791q-16 113 -39 125q-31 22 -69 -7l-10 4l-15 99q22 37 107 37z" />
    <glyph glyph-name="x" unicode="x" horiz-adv-x="1064" 
d="M303 1049q80 0 123 -37t82 -119l135 -287l381 418h154l4 -10l-465 -508l149 -313q27 -53 50 -73q24 -20 56 -20t54 15l10 -4l11 -99q-26 -37 -104 -37q-79 0 -122 37t-82 119l-137 289l-383 -420h-153l-5 10l469 512l-149 309q-27 55 -49 74q-23 19 -54 19t-53 -15l-10 4
l-14 99q22 37 102 37z" />
    <glyph glyph-name="y" unicode="y" horiz-adv-x="1073" 
d="M288 1049q72 0 108 -39t57 -121l159 -641l471 776h140l4 -10l-656 -1082q-81 -133 -157 -186t-168 -53t-137 35l-5 8l62 98l12 4q27 -24 77 -24t93 34t96 121l62 101l-182 721q-20 81 -34 107t-37 26q-22 0 -38 -15l-10 4l-15 99q25 37 98 37z" />
    <glyph glyph-name="z" unicode="z" horiz-adv-x="911" 
d="M274 1024h723l7 -10l-15 -88l-721 -807h611l-21 -119h-788l-7 10l15 88l721 807h-545z" />
    <glyph glyph-name="braceleft" unicode="{" horiz-adv-x="593" 
d="M459 -176h47l-23 -123h-53q-170 0 -223 76t-19 268l50 274q26 101 12 153t-90 52l18 103q76 0 103 44t47 160l47 275q33 192 113 268t251 76h54l-23 -123h-47q-104 0 -142 -41t-63 -180l-41 -229q-25 -135 -55 -200t-80 -65l-14 -73q92 0 45 -265l-41 -229
q-25 -139 -1 -180t128 -41z" />
    <glyph glyph-name="bar" unicode="|" horiz-adv-x="423" 
d="M98 -299l310 1749h120l-309 -1749h-121z" />
    <glyph glyph-name="braceright" unicode="}" horiz-adv-x="593" 
d="M338 1327h-47l22 123h56q168 0 221 -75t18 -269l-47 -275q-25 -102 -13 -153t89 -51l-19 -103q-76 0 -102 -44t-47 -161l-47 -274q-33 -193 -113 -269t-250 -75h-55l23 123h47q104 0 143 41t64 180l41 229q47 264 133 265l14 73q-90 1 -43 265l41 229q25 139 0 180
t-129 41z" />
    <glyph glyph-name="asciitilde" unicode="~" horiz-adv-x="1181" 
d="M911 565q-73 0 -213 36t-204 36q-123 0 -181 -72h-10l-49 92v11q34 31 56 47q22 17 72 33t125 16t229 -36t204 -36q104 0 166 72h10l49 -92l-2 -10q-35 -30 -55 -46t-72 -34t-125 -17z" />
    <glyph glyph-name="exclamdown" unicode="&#xa1;" horiz-adv-x="442" 
d="M250 -301l-8 -6h-150l-8 8l199 1004l14 10h102l7 -10zM373 811q-49 0 -78 29q-29 30 -29 78t41 90t89 41q48 0 78 -30t30 -79t-41 -89t-90 -40z" />
    <glyph glyph-name="cent" unicode="&#xa2;" horiz-adv-x="1140" 
d="M796 1073q-290 0 -410 -264q-44 -97 -44 -227.5t89 -225t225 -94.5t228 56q48 30 95 77h10l76 -73l-2 -11q-150 -154 -358 -176l-27 -160h-125l27 160q-172 20 -278.5 145.5t-106.5 288t63.5 291.5t187 227.5t306.5 114.5l24 150h125l-27 -152q221 -25 316 -176l-2 -10
l-103 -74h-10q-105 133 -279 133z" />
    <glyph glyph-name="sterling" unicode="&#xa3;" horiz-adv-x="1058" 
d="M850 1356q98 0 188 -48t142 -128l-2 -11l-95 -75h-10q-41 61 -109 97t-141 36q-113 0 -191 -71t-100 -195l-38 -218h368l-22 -129h-369l-84 -485h606l-22 -129h-873l23 129h121l84 485h-119l22 129h119l39 218q31 179 159 287t304 108z" />
    <glyph glyph-name="currency" unicode="&#xa4;" horiz-adv-x="1302" 
d="M844 1053q-170 0 -297 -134t-127 -311q0 -137 79 -227t206 -90q169 0 295 134t126 310q0 137 -78 228q-79 90 -204 90zM870 1184q170 0 277 -107l147 127l76 -94l-145 -127q49 -92 49 -229q0 -219 -166 -396l98 -127l-110 -94l-99 127q-153 -104 -319 -104t-275 104
l-149 -127l-76 94l148 127q-53 94 -54 230q0 219 166 397l-96 125l111 94l98 -125q149 105 319 105z" />
    <glyph glyph-name="yen" unicode="&#xa5;" horiz-adv-x="1232" 
d="M459 1331l282 -647l516 647h156l2 -6l-629 -780h289l-20 -109h-287l-27 -145h289l-20 -109h-287l-33 -182h-145l33 182h-287l18 109h287l27 145h-287l18 109h285l-354 780l6 6h168z" />
    <glyph glyph-name="brokenbar" unicode="&#xa6;" horiz-adv-x="423" 
d="M238 494h120l-139 -793h-121zM408 1450h120l-133 -752h-121z" />
    <glyph glyph-name="section" unicode="&#xa7;" horiz-adv-x="1085" 
d="M377 576q0 -54 41 -93t89 -59t135 -54t132 -55q68 29 107 78t39 97t-20 78q-20 32 -64 60q-45 28 -79 43t-106 43t-100 40q-82 -24 -128 -74t-46 -104zM718 1239q-108 0 -182 -56t-73 -147q0 -97 163 -159q34 -14 136 -51t207 -107q106 -69 104 -199q0 -172 -174 -276
q90 -74 90 -191q0 -164 -132 -263t-359 -99q-131 0 -258 57t-187 148l2 10l101 80h10q55 -82 150 -130t221 -48q127 0 213 62q86 64 86 161q0 53 -44 96t-94 66t-133 53q-84 30 -131 51q-211 90 -211 244q0 176 193 280q-109 72 -109 189q0 147 124 246t329 100
q124 0 236 -50t163 -128v-11l-108 -77h-11q-45 63 -129 106q-85 43 -193 43z" />
    <glyph glyph-name="dieresis" unicode="&#xa8;" horiz-adv-x="778" 
d="M771 1145q-48 0 -78 30q-29 31 -29 79t41 88t89 40t78 -30t29 -78q0 -49 -41 -89t-89 -40zM421 1145q-48 0 -77 30q-29 29 -29 77t40 89q41 41 89 41t78 -30t29 -77q0 -48 -41 -89t-89 -41z" />
    <glyph glyph-name="copyright" unicode="&#xa9;" horiz-adv-x="1513" 
d="M857 262q-165 0 -266 98t-102 244q1 195 133 332t320 137q96 0 182 -37t125 -98l-2 -8l-90 -84h-8q-66 100 -215 100t-226 -95t-77 -235q1 -98 65 -162t152 -65q88 0 135 23t102 77h9l61 -83l-2 -9q-131 -135 -296 -135zM317 571q-1 -207 135 -345t356 -138t378 131
q116 91 180 235t64 306q0 207 -134 345t-351 138q-216 0 -376 -129q-119 -92 -185 -235t-67 -308zM785 -25q-263 0 -425 167t-161 415q0 197 83 369t230 280q201 150 458 150t419 -167t161 -415q0 -192 -82 -364t-225 -283q-195 -152 -458 -152z" />
    <glyph glyph-name="ordfeminine" unicode="&#xaa;" horiz-adv-x="823" 
d="M379 885q-1 -84 127 -84q64 0 123 48t69 126q-84 31 -156 31t-117 -35q-46 -35 -46 -86zM782 694q-92 0 -100 94q-96 -94 -220 -94t-182 86q-28 42 -28 106t43 118q82 104 254 104q94 0 174 -31l4 25q12 72 -28 106t-109 35q-121 0 -209 -82h-8l-39 82v6q107 107 278 107
q106 0 180 -62t52 -172l-43 -239q-14 -84 22 -84q10 0 31 12l8 -4l8 -82l-6 -6q-20 -25 -82 -25z" />
    <glyph glyph-name="guillemotleft" unicode="&#xab;" horiz-adv-x="880" 
d="M926 907l-2 -8l-285 -287l184 -286l-2 -9l-88 -75h-10l-238 356l7 29l362 356h10zM623 899l-285 -287l184 -286l-2 -9l-86 -75h-10l-238 356l7 29l362 356h10l60 -76z" />
    <glyph glyph-name="registered" unicode="&#xae;" horiz-adv-x="1513" 
d="M918 721q82 0 124 48q42 49 43 105q0 119 -120 117h-195l-47 -270h195zM963 1098q119 0 181 -52t62 -147q0 -246 -239 -278l135 -357h-139l-136 352h-122l-62 -352h-117l148 834h289zM795 88q268 0 450 193q184 190 185 479q0 207 -134 345t-342 138q-207 0 -362 -113
q-127 -94 -201 -241t-74 -336q-1 -189 135 -327t343 -138zM774 -25q-252 0 -414 167t-161 415q0 199 89 373t240 284q195 142 447 142t414 -167t161 -415q0 -338 -225 -568t-551 -231z" />
    <glyph glyph-name="macron" unicode="&#xaf;" horiz-adv-x="1001" 
d="M463 1307h534l-20 -123h-535z" />
    <glyph glyph-name="degree" unicode="&#xb0;" horiz-adv-x="679" 
d="M387 1078q0 -62 37 -100q36 -38 98 -38t109 51t47 113t-37 101q-37 38 -97 38t-108 -52q-49 -51 -49 -113zM274 1068q0 108 90 198t195 90q107 0 169 -65t62 -173t-88 -199q-90 -91 -195 -91t-169 65q-64 67 -64 175z" />
    <glyph glyph-name="plusminus" unicode="&#xb1;" horiz-adv-x="1126" 
d="M111 0l20 119h905l-20 -119h-905zM754 729h393l-21 -115h-393l-69 -397h-121l69 397h-393l21 115h393l67 389h121z" />
    <glyph glyph-name="acute" unicode="&#xb4;" horiz-adv-x="575" 
d="M666 1503h10l63 -106l-2 -11l-397 -239h-10l-43 67v11z" />
    <glyph glyph-name="paragraph" unicode="&#xb6;" horiz-adv-x="1329" 
d="M1300 1200l-262 -1493h-123l263 1493h122zM676 586q-207 0 -327 85t-120 267q0 266 163 389t437 123h676l-22 -127h-439l-284 -1616h-121l154 879h-117z" />
    <glyph glyph-name="periodcentered" unicode="&#xb7;" horiz-adv-x="512" 
d="M496 564q0 -58 -50 -108q-50 -48 -108 -48q-57 0 -92 36t-35 94t50 107q49 49 107 49t93 -36t35 -94z" />
    <glyph glyph-name="cedilla" unicode="&#xb8;" horiz-adv-x="616" 
d="M253 -444q-190 0 -255 102v10l78 76h10q55 -80 152 -80q50 0 82 23t32 57q0 51 -62 60t-130 -21l-51 35l98 174l14 67h141l-8 -67l-49 -88l2 -4q86 4 137 -36q52 -40 52 -118t-75 -134t-168 -56z" />
    <glyph glyph-name="ordmasculine" unicode="&#xba;" horiz-adv-x="811" 
d="M393 1003q0 -182 169 -182q83 0 150 69q66 69 66 159t-42 136t-126 46t-150 -69q-67 -69 -67 -159zM528 696q-122 0 -196 77t-74 198q0 161 115 273t272 112q119 0 194 -78t74 -199q-1 -163 -115 -273t-270 -110z" />
    <glyph glyph-name="guillemotright" unicode="&#xbb;" horiz-adv-x="880" 
d="M674 983l235 -356l-6 -29l-360 -356h-11l-63 75l2 9l285 286l-185 287l2 8l91 76h10zM608 627l-6 -29l-358 -356h-11l-63 75l2 9l285 286l-185 287l2 8l91 76h10z" />
    <glyph glyph-name="onequarter" unicode="&#xbc;" horiz-adv-x="1382" 
d="M879 262h200l49 279zM1286 262l-20 -115h-86l-27 -147h-123l27 147h-342l12 76l467 527h92l-86 -488h86zM596 1331l-135 -758h-142l113 637h-149l-2 11l57 110h258zM1454 1331v-16l-1206 -1315h-131l-2 16l1208 1315h131z" />
    <glyph glyph-name="onehalf" unicode="&#xbd;" horiz-adv-x="1486" 
d="M1290 532q0 42 -27 70q-28 27 -75 27q-90 0 -187 -92h-8l-55 81l2 9q127 123 279 123q98 0 157 -52q60 -52 60 -150q0 -96 -81 -190t-268 -237h297l-18 -121h-543l13 68q41 34 134 104t131 102t93 84q56 52 76 92t20 82zM326 573l116 637h-149l-2 11l57 110h260
l-141 -758h-141zM1454 1331v-16l-1206 -1315h-131l-2 16l1208 1315h131z" />
    <glyph glyph-name="threequarters" unicode="&#xbe;" horiz-adv-x="1511" 
d="M1192 262l49 279l-250 -279h201zM1399 750l-86 -488h86l-21 -115h-86l-26 -147h-123l26 147h-342l13 76l467 527h92zM1593 1331v-16l-1206 -1315h-131l-2 16l1208 1315h131zM750 832q0 -108 -81 -184q-81 -75 -220 -75q-170 0 -259 136l3 6l88 71h6q27 -44 79 -70
t108 -26t95 37t39 92t-37 84t-104 29h-43l18 104h27q76 0 116 36t40 79t-27 67t-70 23q-80 0 -155 -70h-6l-62 68v6q111 111 244 111q99 0 155 -49t56 -111t-33 -118q-33 -54 -90 -89q113 -49 113 -157z" />
    <glyph glyph-name="questiondown" unicode="&#xbf;" horiz-adv-x="978" 
d="M442 -319q-160 0 -263 87q-101 87 -101 234q0 80 20 126t33 72q12 26 39 56t41 46q14 17 49 46t47 39t89 69t103 101q26 43 38 111l8 49h145l-8 -47q-16 -96 -59 -162t-135 -136q-178 -134 -209 -194q-43 -83 -43 -165t66 -140q67 -57 170 -57t196 65q92 66 129 158l12 4
l117 -29v-10q-52 -135 -188 -229t-296 -94zM643 823q-49 0 -77 30t-28 78t44 89q43 41 91 41t76 -29q27 -30 27 -78t-42 -90t-91 -41z" />
    <glyph glyph-name="Agrave" unicode="&#xc0;" horiz-adv-x="1318" 
d="M449 432h522l-146 649zM1199 -25q-67 0 -105 43t-70 185l-23 98h-628l-176 -301h-152l786 1331h84l261 -1122q14 -57 26 -79q23 -42 92 -7l9 -4l10 -105l-4 -10q-43 -29 -110 -29zM905 1450l-416 203l-2 10l58 111h10l399 -244v-10l-39 -70h-10z" />
    <glyph glyph-name="Aacute" unicode="&#xc1;" horiz-adv-x="1318" 
d="M449 432h522l-146 649zM1199 -25q-67 0 -105 43t-70 185l-23 98h-628l-176 -301h-152l786 1331h84l261 -1122q14 -57 26 -79q23 -42 92 -7l9 -4l10 -105l-4 -10q-43 -29 -110 -29zM844 1450h-10l-33 70v10l399 244h10l52 -111l-2 -10z" />
    <glyph glyph-name="Acircumflex" unicode="&#xc2;" horiz-adv-x="1318" 
d="M449 432h522l-146 649zM1199 -25q-67 0 -105 43t-70 185l-23 98h-628l-176 -301h-152l786 1331h84l261 -1122q14 -57 26 -79q23 -42 92 -7l9 -4l10 -105l-4 -10q-43 -29 -110 -29zM618 1450h-10l-37 82l2 10l351 187h16l287 -187l-2 -10l-68 -82h-10l-240 137z" />
    <glyph glyph-name="Atilde" unicode="&#xc3;" horiz-adv-x="1318" 
d="M449 432h522l-146 649zM1199 -25q-67 0 -105 43t-70 185l-23 98h-628l-176 -301h-152l786 1331h84l261 -1122q14 -57 26 -79q23 -42 92 -7l9 -4l10 -105l-4 -10q-43 -29 -110 -29zM758 1659q61 0 173 -37t146 -37q80 0 125 74h10l37 -105l-2 -10q-74 -86 -190 -86
q-55 0 -157 37t-171 37q-70 0 -117 -74h-8l-37 105l2 10q74 86 189 86z" />
    <glyph glyph-name="Adieresis" unicode="&#xc4;" horiz-adv-x="1318" 
d="M449 432h522l-146 649zM1199 -25q-67 0 -105 43t-70 185l-23 98h-628l-176 -301h-152l786 1331h84l261 -1122q14 -57 26 -79q23 -42 92 -7l9 -4l10 -105l-4 -10q-43 -29 -110 -29zM1221 1578q1 -48 -41 -89t-90 -41t-76 30t-29 78q0 48 40 88q40 42 89 42t78 -30t29 -78z
M834 1577q0 -49 -42 -89t-89 -40t-77 30t-30 78t41 88q41 42 89 42t78 -30t30 -79z" />
    <glyph glyph-name="Aring" unicode="&#xc5;" horiz-adv-x="1318" 
d="M449 432h522l-146 649zM1199 -25q-67 0 -105 43t-70 185l-23 98h-628l-176 -301h-152l786 1331h84l261 -1122q14 -57 26 -79q23 -42 92 -7l9 -4l10 -105l-4 -10q-43 -29 -110 -29zM1014 1642q0 40 -24 64t-60 25q-37 0 -70 -35t-33 -74q0 -40 24 -64q25 -24 61 -24t69 34
t33 74zM899 1436q-80 0 -128 48t-48 129t71 149q72 68 150 67q78 0 126 -49t48 -129t-69 -148q-70 -67 -150 -67z" />
    <glyph glyph-name="AE" unicode="&#xc6;" horiz-adv-x="1976" 
d="M1063 432l131 742l-666 -742h535zM2032 1200h-686l-82 -463h542l-22 -131h-543l-84 -475h686l-22 -131h-834l53 301h-628l-271 -301h-170l1180 1331h905z" />
    <glyph glyph-name="Ccedilla" unicode="&#xc7;" horiz-adv-x="1357" 
d="M952 1221q-182 0 -319 -93.5t-209 -233.5t-72 -291.5t59.5 -260.5t164 -170t224.5 -61t234.5 48t200.5 134h10l84 -84l-2 -10q-203 -203 -496 -222l-36 -65l2 -4q86 4 137 -36t51 -118t-74.5 -134t-168.5 -56q-188 0 -255 102v10l78 76h10q55 -80 152 -80q49 0 82 22.5
t33 57.5q0 51 -62.5 60.5t-130.5 -21.5l-51 35l88 158q-141 23 -251.5 104.5t-173 207.5t-62.5 301t93 347t253 281q201 131 427 131t382 -126q74 -60 123 -140l-2 -11l-113 -75h-10q-59 104 -165 160.5t-235 56.5z" />
    <glyph glyph-name="Egrave" unicode="&#xc8;" horiz-adv-x="1099" 
d="M1227 1200h-686l-82 -463h542l-22 -131h-543l-84 -475h686l-22 -131h-834l236 1331h833zM662 1774l399 -244v-10l-39 -70h-10l-416 203l-2 10l57 111h11z" />
    <glyph glyph-name="Eacute" unicode="&#xc9;" horiz-adv-x="1099" 
d="M1227 1200h-686l-82 -463h542l-22 -131h-543l-84 -475h686l-22 -131h-834l236 1331h833zM1042 1774h11l51 -111l-2 -10l-416 -203h-10l-33 70v10z" />
    <glyph glyph-name="Ecircumflex" unicode="&#xca;" horiz-adv-x="1099" 
d="M1227 1200h-686l-82 -463h542l-22 -131h-543l-84 -475h686l-22 -131h-834l236 1331h833zM901 1729l287 -187l-2 -10l-68 -82h-10l-240 137l-288 -137h-11l-37 82l3 10l350 187h16z" />
    <glyph glyph-name="Edieresis" unicode="&#xcb;" horiz-adv-x="1099" 
d="M1227 1200h-686l-82 -463h542l-22 -131h-543l-84 -475h686l-22 -131h-834l236 1331h833zM1074 1686q48 0 78 -30t30 -78t-41 -89t-89 -41t-77 29.5t-29 77.5t40 89.5t88 41.5zM687 1686q48 0 78 -30t30 -79t-41 -89t-90.5 -40t-78 29.5t-28.5 77.5t41 89.5t89 41.5z" />
    <glyph glyph-name="Igrave" unicode="&#xcc;" horiz-adv-x="512" 
d="M418 1331h147l-235 -1331h-148zM207 1774l399 -244v-10l-39 -70h-10l-416 203l-2 10l58 111h10z" />
    <glyph glyph-name="Iacute" unicode="&#xcd;" horiz-adv-x="512" 
d="M418 1331h147l-235 -1331h-148zM786 1774h11l51 -111l-2 -10l-416 -203h-10l-33 70v10z" />
    <glyph glyph-name="Icircumflex" unicode="&#xce;" horiz-adv-x="512" 
d="M418 1331h147l-235 -1331h-148zM559 1729l287 -187l-2 -10l-68 -82h-10l-240 137l-288 -137h-11l-37 82l3 10l350 187h16z" />
    <glyph glyph-name="Idieresis" unicode="&#xcf;" horiz-adv-x="512" 
d="M418 1331h147l-235 -1331h-148zM604 1556q0 48 40 88q40 42 89 42t78 -30t29 -78t-41 -89t-89 -41t-77 30t-29 78zM322 1448q-48 0 -78 30t-29 78q0 48 41 88q41 42 89 42t78 -30t30 -79t-41 -89q-42 -40 -90 -40z" />
    <glyph glyph-name="Eth" unicode="&#xd0;" horiz-adv-x="1431" 
d="M1315 764q0 213 -127 334q-104 102 -305 102h-340l-84 -465h375l-23 -131h-375l-84 -473h342q260 0 416 135q98 84 152 214q53 130 53 284zM672 0h-490l107 604h-131l22 131h133l105 596h489q255 0 398 -131q164 -152 163 -416q0 -190 -72 -354t-204 -268
q-205 -162 -520 -162z" />
    <glyph glyph-name="Ntilde" unicode="&#xd1;" horiz-adv-x="1419" 
d="M1329 1331h144l-236 -1331h-78l-651 1042l-182 -1042h-144l236 1331h78l649 -1040zM788 1659q68 0 192 -37t163 -37q88 0 139 74h10l41 -105l-2 -10q-82 -86 -211 -86q-61 0 -173.5 37t-190.5 37t-129 -74h-11l-41 105l3 10q81 86 210 86z" />
    <glyph glyph-name="Ograve" unicode="&#xd2;" horiz-adv-x="1525" 
d="M813 111q238 0 410 159q190 180 190 473q0 203 -135 340t-332 138q-238 0 -409 -160q-190 -180 -191 -475q0 -203 135 -339t332 -136zM788 -25q-252 0 -424 172t-171 424q0 362 260 590q221 195 518 195q252 0 424 -172t172 -424q0 -362 -260 -590q-222 -195 -519 -195z
M795 1774l399 -244v-10l-39 -70h-10l-416 203l-2 10l57 111h11z" />
    <glyph glyph-name="Oacute" unicode="&#xd3;" horiz-adv-x="1525" 
d="M813 111q238 0 410 159q190 180 190 473q0 203 -135 340t-332 138q-238 0 -409 -160q-190 -180 -191 -475q0 -203 135 -339t332 -136zM788 -25q-252 0 -424 172t-171 424q0 362 260 590q221 195 518 195q252 0 424 -172t172 -424q0 -362 -260 -590q-222 -195 -519 -195z
M1176 1774h10l51 -111l-2 -10l-416 -203h-10l-33 70v10z" />
    <glyph glyph-name="Ocircumflex" unicode="&#xd4;" horiz-adv-x="1525" 
d="M813 111q238 0 410 159q190 180 190 473q0 203 -135 340t-332 138q-238 0 -409 -160q-190 -180 -191 -475q0 -203 135 -339t332 -136zM788 -25q-252 0 -424 172t-171 424q0 362 260 590q221 195 518 195q252 0 424 -172t172 -424q0 -362 -260 -590q-222 -195 -519 -195z
M1034 1729l287 -187l-2 -10l-68 -82h-10l-240 137l-288 -137h-11l-36 82l2 10l350 187h16z" />
    <glyph glyph-name="Otilde" unicode="&#xd5;" horiz-adv-x="1525" 
d="M813 111q238 0 410 159q190 180 190 473q0 203 -135 340t-332 138q-238 0 -409 -160q-190 -180 -191 -475q0 -203 135 -339t332 -136zM788 -25q-252 0 -424 172t-171 424q0 362 260 590q221 195 518 195q252 0 424 -172t172 -424q0 -362 -260 -590q-222 -195 -519 -195z
M840 1659q68 0 192 -37t162 -37q88 0 139 74h10l41 -105l-2 -10q-82 -86 -211 -86q-61 0 -174 37t-191 37t-128 -74h-10l-41 105l2 10q82 86 211 86z" />
    <glyph glyph-name="Odieresis" unicode="&#xd6;" horiz-adv-x="1525" 
d="M813 111q238 0 410 159q190 180 190 473q0 203 -135 340t-332 138q-238 0 -409 -160q-190 -180 -191 -475q0 -203 135 -339t332 -136zM788 -25q-252 0 -424 172t-171 424q0 362 260 590q221 195 518 195q252 0 424 -172t172 -424q0 -362 -260 -590q-222 -195 -519 -195z
M1079 1556q0 48 40 88q40 42 89 42t78 -30t29 -78t-41 -89t-89 -41t-77 30t-29 78zM690 1556q0 48 41 88q41 42 89 42t78 -30t30 -79t-41 -89t-89 -40t-78 30t-30 78z" />
    <glyph glyph-name="multiply" unicode="&#xd7;" horiz-adv-x="1050" 
d="M377 1102l280 -357l408 359l68 -84l-410 -358l283 -359l-84 -74l-281 361l-418 -369l-69 82l417 369l-280 358z" />
    <glyph glyph-name="Oslash" unicode="&#xd8;" horiz-adv-x="1525" 
d="M1413 743q0 195 -125 330l-725 -893q113 -70 250 -69q238 0 410 159q190 180 190 473zM346 586q0 -190 121 -324l725 891q-111 68 -246 68q-238 0 -419 -170t-181 -465zM1581 1448v-16l-195 -240q180 -174 181 -432q0 -362 -260 -590q-221 -195 -519 -195q-176 0 -319 88
l-135 -165h-152v16l187 229q-176 172 -176 428q0 362 260 590q221 195 518 195q174 0 315 -88l148 180h147z" />
    <glyph glyph-name="Ugrave" unicode="&#xd9;" horiz-adv-x="1380" 
d="M701 -25q-215 0 -337 112t-122 312q0 45 28 205l129 727h146l-127 -729q-27 -164 -25 -209q4 -185 157 -252q73 -31 175 -30q170 0 281 100q84 78 120 180q37 102 70 287l115 653h145l-117 -659q-41 -230 -91 -354t-171 -218q-160 -125 -376 -125zM737 1774l400 -244v-10
l-39 -70h-11l-415 203l-2 10l57 111h10z" />
    <glyph glyph-name="Uacute" unicode="&#xda;" horiz-adv-x="1380" 
d="M701 -25q-215 0 -337 112t-122 312q0 45 28 205l129 727h146l-127 -729q-27 -164 -25 -209q4 -185 157 -252q73 -31 175 -30q170 0 281 100q84 78 120 180q37 102 70 287l115 653h145l-117 -659q-41 -230 -91 -354t-171 -218q-160 -125 -376 -125zM1118 1774h10l52 -111
l-2 -10l-416 -203h-10l-33 70v10z" />
    <glyph glyph-name="Ucircumflex" unicode="&#xdb;" horiz-adv-x="1380" 
d="M701 -25q-215 0 -337 112t-122 312q0 45 28 205l129 727h146l-127 -729q-27 -164 -25 -209q4 -185 157 -252q73 -31 175 -30q170 0 281 100q84 78 120 180q37 102 70 287l115 653h145l-117 -659q-41 -230 -91 -354t-171 -218q-160 -125 -376 -125zM977 1729l287 -187
l-2 -10l-68 -82h-10l-240 137l-289 -137h-10l-37 82l2 10l351 187h16z" />
    <glyph glyph-name="Udieresis" unicode="&#xdc;" horiz-adv-x="1380" 
d="M701 -25q-215 0 -337 112t-122 312q0 45 28 205l129 727h146l-127 -729q-27 -164 -25 -209q4 -185 157 -252q73 -31 175 -30q170 0 281 100q84 78 120 180q37 102 70 287l115 653h145l-117 -659q-41 -230 -91 -354t-171 -218q-160 -125 -376 -125zM1128 1448
q-48 0 -78 30q-28 30 -28 78t40 88q40 42 89 42t78 -30t29 -78t-42 -89q-40 -41 -88 -41zM740 1448q-48 0 -78 30t-29 78q0 48 41 88q41 42 89 42t78 -30q29 -30 29 -79t-41 -89t-89 -40z" />
    <glyph glyph-name="Yacute" unicode="&#xdd;" horiz-adv-x="1277" 
d="M356 1356q66 0 107 -43t86 -144l225 -495l529 657h159l4 -8l-635 -778l-96 -545h-147l94 532l-276 598q-28 56 -46 74t-44 18t-48 -14l-10 4l-20 105l4 10q48 29 114 29zM1069 1774h10l51 -111l-2 -10l-415 -203h-11l-32 70v10z" />
    <glyph glyph-name="Thorn" unicode="&#xde;" horiz-adv-x="1177" 
d="M770 391q141 0 229 94t88 212q0 117 -57 179t-164 62h-370l-97 -547h371zM854 1069q190 0 288 -86t99 -242q0 -221 -138 -350t-390 -129h-336l-47 -262h-148l236 1331h147l-47 -262h336z" />
    <glyph glyph-name="germandbls" unicode="&#xdf;" horiz-adv-x="1103" 
d="M1100 434q0 -110 -58 -214t-170 -175q-112 -70 -288 -70q-90 0 -162 41l-4 9l65 106h11q45 -27 112 -27q130 0 202 50q140 96 140 272q0 104 -69 172q-70 68 -189 68h-94l20 112h89q162 0 238 126q36 60 36 140t-65 132t-169 53q-240 0 -286 -273l-168 -956h-144l170 965
q33 186 149 288q116 103 290 103t273 -81t99 -222t-97 -244q-44 -47 -105 -80q174 -75 174 -295z" />
    <glyph glyph-name="agrave" unicode="&#xe0;" 
d="M607 526q-145 0 -239 -66t-94 -165q0 -97 63 -143t175 -46t220 76q110 76 134 205l15 82q-129 57 -274 57zM825 123q-157 -148 -395 -148q-120 0 -214 75q-93 75 -93 218q0 182 145 282t359 99q154 0 276 -57q20 111 21 135q0 96 -76 143t-189 48q-170 0 -315 -125h-10
l-80 88v10q178 158 430 158q166 0 274 -73t109 -239q0 -45 -18 -143l-72 -393q-22 -101 29 -101q16 1 34 15l11 -4l10 -99q-22 -37 -103 -37q-137 0 -133 148zM874 1147l-397 239l-2 11l72 106h10l379 -278v-11l-51 -67h-11z" />
    <glyph glyph-name="aacute" unicode="&#xe1;" 
d="M607 526q-145 0 -239 -66t-94 -165q0 -97 63 -143t175 -46t220 76q110 76 134 205l15 82q-129 57 -274 57zM825 123q-157 -148 -395 -148q-120 0 -214 75q-93 75 -93 218q0 182 145 282t359 99q154 0 276 -57q20 111 21 135q0 96 -76 143t-189 48q-170 0 -315 -125h-10
l-80 88v10q178 158 430 158q166 0 274 -73t109 -239q0 -45 -18 -143l-72 -393q-22 -101 29 -101q16 1 34 15l11 -4l10 -99q-22 -37 -103 -37q-137 0 -133 148zM580 1147h-11l-43 67v11l379 278h10l64 -106l-2 -11z" />
    <glyph glyph-name="acircumflex" unicode="&#xe2;" 
d="M607 526q-145 0 -239 -66t-94 -165q0 -97 63 -143t175 -46t220 76q110 76 134 205l15 82q-129 57 -274 57zM825 123q-157 -148 -395 -148q-120 0 -214 75q-93 75 -93 218q0 182 145 282t359 99q154 0 276 -57q20 111 21 135q0 96 -76 143t-189 48q-170 0 -315 -125h-10
l-80 88v10q178 158 430 158q166 0 274 -73t109 -239q0 -45 -18 -143l-72 -393q-22 -101 29 -101q16 1 34 15l11 -4l10 -99q-22 -37 -103 -37q-137 0 -133 148zM489 1147h-8l-49 78l2 10l328 190h26l259 -190l-3 -10l-71 -78h-10l-213 139z" />
    <glyph glyph-name="atilde" unicode="&#xe3;" 
d="M607 526q-145 0 -239 -66t-94 -165q0 -97 63 -143t175 -46t220 76q110 76 134 205l15 82q-129 57 -274 57zM825 123q-157 -148 -395 -148q-120 0 -214 75q-93 75 -93 218q0 182 145 282t359 99q154 0 276 -57q20 111 21 135q0 96 -76 143t-189 48q-170 0 -315 -125h-10
l-80 88v10q178 158 430 158q166 0 274 -73t109 -239q0 -45 -18 -143l-72 -393q-22 -101 29 -101q16 0 34 15l11 -4l10 -99q-22 -37 -103 -37q-137 0 -133 148zM901 1161q-57 0 -157 36t-168 36t-115 -72h-8l-29 105l2 10q72 84 176 84q61 0 173 -36t147 -36q76 0 118 72h9
l30 -105l-2 -10q-76 -84 -176 -84z" />
    <glyph glyph-name="adieresis" unicode="&#xe4;" 
d="M607 526q-145 0 -239 -66t-94 -165q0 -97 63 -143t175 -46t220 76q110 76 134 205l15 82q-129 57 -274 57zM825 123q-157 -148 -395 -148q-120 0 -214 75q-93 75 -93 218q0 182 145 282t359 99q154 0 276 -57q20 111 21 135q0 96 -76 143t-189 48q-170 0 -315 -125h-10
l-80 88v10q178 158 430 158q166 0 274 -73t109 -239q0 -45 -18 -143l-72 -393q-22 -101 29 -101q16 1 34 15l11 -4l10 -99q-22 -37 -103 -37q-137 0 -133 148zM910 1145q-48 0 -78 30q-30 31 -29 79q0 48 41 88t89 40t78 -30q29 -30 29 -78q0 -49 -41 -89t-89 -40zM560 1145
q-48 0 -77 30q-29 29 -29 77t41 89q40 41 88 41q47 0 77 -30t30 -77q0 -48 -41 -89t-89 -41z" />
    <glyph glyph-name="aring" unicode="&#xe5;" 
d="M607 526q-145 0 -239 -66t-94 -165q0 -97 63 -143t175 -46t220 76q110 76 134 205l15 82q-129 57 -274 57zM825 123q-157 -148 -395 -148q-120 0 -214 75q-93 75 -93 218q0 182 145 282t359 99q154 0 276 -57q20 111 21 135q0 96 -76 143t-189 48q-170 0 -315 -125h-10
l-80 88v10q178 158 430 158q166 0 274 -73t109 -239q0 -45 -18 -143l-72 -393q-22 -101 29 -101q16 1 34 15l11 -4l10 -99q-22 -37 -103 -37q-137 0 -133 148zM846 1334q0 36 -22 58t-59 23q-38 0 -67 -31q-28 -32 -28 -68t22 -59t58 -23q38 0 67 32t29 68zM956 1345
q0 -81 -68 -149t-152 -68q-83 0 -131 48t-48 130q0 80 70 148q71 68 153 68t129 -48t47 -129z" />
    <glyph glyph-name="ae" unicode="&#xe6;" horiz-adv-x="1875" 
d="M274 283.5q0 -86.5 62.5 -132t174.5 -45.5t221 76t134 205l15 82q-127 57 -289 57t-255 -93q-63 -63 -63 -149.5zM1194 825q-111 -86 -143 -233h710q12 150 -64.5 238t-233 87.5t-269.5 -92.5zM1036 469q-17 -363 326 -363q92 0 189.5 38t166.5 114h11l79 -82l-2 -10
q-86 -96 -211 -143.5t-258.5 -47.5t-245.5 63.5t-167 178.5q-63 -111 -196.5 -176.5t-275 -65.5t-235.5 74t-94 220.5t106 248.5q139 131 396 131q158 0 278 -57q20 106 21 133q0 96 -76 144.5t-193 48.5q-166 0 -311 -125h-10l-82 88l2 10q178 158 432 158q172 0 278 -79
q58 -44 83 -114q171 193 430 193q197 0 313.5 -122t116.5 -315q0 -73 -25 -143h-846z" />
    <glyph glyph-name="ccedilla" unicode="&#xe7;" horiz-adv-x="1064" 
d="M309 454q0 -158 89 -253t225.5 -95t227.5 57q48 30 95 77h10l76 -74l-2 -10q-156 -160 -373 -179l-36 -65l2 -4q86 4 137 -36t51 -118t-74.5 -134t-168.5 -56q-188 0 -255 102v10l78 76h10q55 -80 152 -80q49 0 82 22.5t33 57.5q0 51 -62.5 60.5t-130.5 -21.5l-51 35
l90 158q-106 20 -186 82q-166 130 -166 362q0 147 63.5 276.5t173.5 217.5q162 127 365 127q202 0 326 -106q40 -34 67 -75l-2 -10l-102 -74h-11q-104 134 -278 134q-232 1 -360 -176q-94 -130 -95 -288z" />
    <glyph glyph-name="egrave" unicode="&#xe8;" horiz-adv-x="1153" 
d="M471 825q-111 -86 -143 -233h710q12 150 -64.5 238t-233 87.5t-269.5 -92.5zM631 106q225 0 364 152h11l79 -82l-2 -10q-86 -96 -210.5 -143.5t-247.5 -47.5q-203 0 -334 119t-131 328q0 145 63.5 278.5t163.5 217.5q158 131 361 131t319.5 -122t116.5 -315
q0 -73 -25 -143h-846q-13 -235 131 -319q74 -44 187 -44zM920 1147l-398 239l-2 11l72 106h10l379 -278v-11l-51 -67h-10z" />
    <glyph glyph-name="eacute" unicode="&#xe9;" horiz-adv-x="1153" 
d="M471 825q-111 -86 -143 -233h710q12 150 -64.5 238t-233 87.5t-269.5 -92.5zM631 106q225 0 364 152h11l79 -82l-2 -10q-86 -96 -210.5 -143.5t-247.5 -47.5q-203 0 -334 119t-131 328q0 145 63.5 278.5t163.5 217.5q158 131 361 131t319.5 -122t116.5 -315
q0 -73 -25 -143h-846q-13 -235 131 -319q74 -44 187 -44zM625 1147h-11l-43 67v11l379 278h11l63 -106l-2 -11z" />
    <glyph glyph-name="ecircumflex" unicode="&#xea;" horiz-adv-x="1153" 
d="M471 825q-111 -86 -143 -233h710q12 150 -64.5 238t-233 87.5t-269.5 -92.5zM631 106q225 0 364 152h11l79 -82l-2 -10q-86 -96 -210.5 -143.5t-247.5 -47.5q-203 0 -334 119t-131 328q0 145 63.5 278.5t163.5 217.5q158 131 361 131t319.5 -122t116.5 -315
q0 -73 -25 -143h-846q-13 -235 131 -319q74 -44 187 -44zM535 1147h-9l-49 78l2 10l328 190h27l258 -190l-2 -10l-72 -78h-10l-213 139z" />
    <glyph glyph-name="edieresis" unicode="&#xeb;" horiz-adv-x="1153" 
d="M471 825q-111 -86 -143 -233h710q12 150 -64.5 238t-233 87.5t-269.5 -92.5zM631 106q225 0 364 152h11l79 -82l-2 -10q-86 -96 -210.5 -143.5t-247.5 -47.5q-203 0 -334 119t-131 328q0 145 63.5 278.5t163.5 217.5q158 131 361 131t319.5 -122t116.5 -315
q0 -73 -25 -143h-846q-13 -235 131 -319q74 -44 187 -44zM955 1145q-48 0 -77.5 29.5t-29.5 78.5t41 89t89 40t77.5 -29.5t29.5 -78.5t-41 -89t-89 -40zM605 1145q-48 0 -76.5 29.5t-28.5 77.5t40 89t88 41t77.5 -29.5t29.5 -77.5t-41 -89t-89 -41z" />
    <glyph glyph-name="igrave" unicode="&#xec;" horiz-adv-x="454" 
d="M348 100q16 0 35 15l10 -4l10 -99q-22 -37 -100 -37q-78 1 -114 51t-21 132l154 866h143l-150 -846q-12 -78 33 -78zM139 1503l379 -278v-11l-51 -67h-10l-398 239l-2 11l72 106h10z" />
    <glyph glyph-name="iacute" unicode="&#xed;" horiz-adv-x="454" 
d="M348 100q16 0 35 15l10 -4l10 -99q-22 -37 -100 -37q-78 1 -114 51t-21 132l154 866h143l-150 -846q-12 -78 33 -78zM662 1503h10l63 -106l-2 -11l-397 -239h-10l-43 67v11z" />
    <glyph glyph-name="icircumflex" unicode="&#xee;" horiz-adv-x="454" 
d="M348 100q16 0 35 15l10 -4l10 -99q-22 -37 -100 -37q-78 1 -114 51t-21 132l154 866h143l-150 -846q-12 -78 33 -78zM471 1425l258 -190l-2 -10l-72 -78h-10l-213 139l-260 -139h-8l-49 78l2 10l327 190h27z" />
    <glyph glyph-name="idieresis" unicode="&#xef;" horiz-adv-x="454" 
d="M348 100q16 0 35 15l10 -4l10 -99q-22 -37 -100 -37q-78 1 -114 51t-21 132l154 866h143l-150 -846q-12 -78 33 -78zM593 1145q-48 0 -78 30q-30 31 -30 79t41 88q42 40 90 40t78 -30t29 -78q0 -49 -41 -89t-89 -40zM243 1145q-48 0 -77 30q-29 29 -29 77t40 89t88 41
t78 -30t30 -77q0 -48 -41 -89t-89 -41z" />
    <glyph glyph-name="eth" unicode="&#xf0;" horiz-adv-x="1124" 
d="M987 506q0 158 -80 239q-80 82 -217 82q-172 1 -280 -121t-109 -278q0 -156 80 -238q81 -84 233 -84t263 121q110 121 110 279zM573 -25q-188 0 -305 118t-116 302q0 127 57 249t162 202q147 113 344 112q100 0 184 -36q-35 70 -76 137l-219 -78l-4 12l18 111l144 51
q-49 72 -105 143l2 11l105 75h10q70 -94 125 -180l283 101l10 -9l-21 -114l-213 -76q186 -324 178 -570t-171 -404q-162 -158 -392 -157z" />
    <glyph glyph-name="ntilde" unicode="&#xf1;" horiz-adv-x="1169" 
d="M316 1049q147 0 147 -136q131 136 344 136q170 0 265 -103.5t83 -269.5q0 -25 -22 -154l-95 -522h-145l92 522q23 125 24 167q2 100 -63.5 165.5t-167.5 65.5t-172 -36q-146 -75 -184 -266l-109 -618h-143l145 823q22 101 -28 101q-16 0 -35 -15l-10 4l-11 99
q26 37 85 37zM678 1360q61 0 173 -36t146 -36q76 0 119 72h8l31 -105l-2 -10q-76 -84 -176 -84q-55 0 -156.5 36t-169 36t-114.5 -72h-9l-28 105l2 10q72 84 176 84z" />
    <glyph glyph-name="ograve" unicode="&#xf2;" horiz-adv-x="1204" 
d="M631 106q180 0 299 113q145 135 145 363q0 147 -90 241.5t-242.5 94.5t-273.5 -105q-160 -139 -160 -371q0 -147 90.5 -241.5t231.5 -94.5zM625 -25q-214 0 -338.5 129t-124.5 324q0 145 62.5 273t170.5 217q166 131 372 131t332 -129t126 -324q0 -139 -56.5 -263
t-156.5 -212q-173 -146 -387 -146zM621 1503l378 -278v-11l-51 -67h-10l-397 239l-2 11l71 106h11z" />
    <glyph glyph-name="oacute" unicode="&#xf3;" horiz-adv-x="1204" 
d="M631 106q180 0 299 113q145 135 145 363q0 147 -90 241.5t-242.5 94.5t-273.5 -105q-160 -139 -160 -371q0 -147 90.5 -241.5t231.5 -94.5zM625 -25q-214 0 -338.5 129t-124.5 324q0 145 62.5 273t170.5 217q166 131 372 131t332 -129t126 -324q0 -139 -56.5 -263
t-156.5 -212q-173 -146 -387 -146zM969 1503h10l63 -106l-2 -11l-397 -239h-10l-43 67v11z" />
    <glyph glyph-name="ocircumflex" unicode="&#xf4;" horiz-adv-x="1204" 
d="M631 106q180 0 299 113q145 135 145 363q0 147 -90 241.5t-242.5 94.5t-273.5 -105q-160 -139 -160 -371q0 -147 90.5 -241.5t231.5 -94.5zM625 -25q-214 0 -338.5 129t-124.5 324q0 145 62.5 273t170.5 217q166 131 372 131t332 -129t126 -324q0 -139 -56.5 -263
t-156.5 -212q-173 -146 -387 -146zM852 1425l258 -190l-2 -10l-72 -78h-10l-213 139l-260 -139h-8l-49 78l2 10l327 190h27z" />
    <glyph glyph-name="otilde" unicode="&#xf5;" horiz-adv-x="1204" 
d="M631 106q180 0 299 113q145 135 145 363q0 147 -90 241.5t-242.5 94.5t-273.5 -105q-160 -139 -160 -371q0 -147 90.5 -241.5t231.5 -94.5zM625 -25q-214 0 -338.5 129t-124.5 324q0 145 62.5 273t170.5 217q166 131 372 131t332 -129t126 -324q0 -139 -56.5 -263
t-156.5 -212q-173 -146 -387 -146zM666 1360q61 0 172.5 -36t146.5 -36q76 0 119 72h8l31 -105l-2 -10q-76 -84 -176 -84q-55 0 -157.5 36t-169.5 36t-114 -72h-8l-29 105l2 10q73 84 177 84z" />
    <glyph glyph-name="odieresis" unicode="&#xf6;" horiz-adv-x="1204" 
d="M631 106q180 0 299 113q145 135 145 363q0 147 -90 241.5t-242.5 94.5t-273.5 -105q-160 -139 -160 -371q0 -147 90.5 -241.5t231.5 -94.5zM625 -25q-214 0 -338.5 129t-124.5 324q0 145 62.5 273t170.5 217q166 131 372 131t332 -129t126 -324q0 -139 -56.5 -263
t-156.5 -212q-173 -146 -387 -146zM974 1145q-48 0 -78 29.5t-30 78.5t41 89t89 40t78 -29.5t30 -78.5t-41 -89t-89 -40zM623 1145q-48 0 -76.5 29.5t-28.5 77.5t40 89t88 41t78 -29.5t30 -77.5t-41.5 -89t-89.5 -41z" />
    <glyph glyph-name="divide" unicode="&#xf7;" horiz-adv-x="1024" 
d="M552 162q-48 0 -79 30t-31 78q0 49 40 89t88 40q48 1 79 -29t31 -79t-40 -89t-88 -40zM221 672h819l-20 -119h-819zM669 821q-48 0 -79 30t-31 79t40 89t88 40t79 -30t31 -79t-40 -89t-88 -40z" />
    <glyph glyph-name="oslash" unicode="&#xf8;" horiz-adv-x="1204" 
d="M1075 582q0 123 -63 211l-547 -643q74 -43 166 -44q180 0 299 113q145 136 145 363zM309 435q0 -118 68 -208l547 645q-76 45 -170 46q-164 0 -285 -105q-160 -143 -160 -378zM1225 596q0 -139 -56.5 -263t-156.5 -212q-172 -145 -404 -146q-131 0 -237 62l-111 -131
h-143l-6 8l168 199q-117 127 -117 315q0 145 62.5 273t170.5 217q166 131 381 131q135 0 242 -64l135 160h143l7 -8l-193 -228q115 -127 115 -313z" />
    <glyph glyph-name="ugrave" unicode="&#xf9;" horiz-adv-x="1146" 
d="M1096 12q-22 -37 -95 -37q-71 0 -105 38t-32 102q-133 -139 -315 -139q-183 0 -277 102q-94 104 -77 270q6 57 22 150l94 526h146l-97 -543q-12 -63 -19 -159t56 -156q63 -62 185 -62t210 84q89 84 113 226l109 610h143l-149 -846q-12 -78 32 -78q17 1 35 15l10 -4z
M879 1147l-398 239l-2 11l72 106h10l379 -278v-11l-51 -67h-10z" />
    <glyph glyph-name="uacute" unicode="&#xfa;" horiz-adv-x="1146" 
d="M1096 12q-22 -37 -95 -37q-71 0 -105 38t-32 102q-133 -139 -315 -139q-183 0 -277 102q-94 104 -77 270q6 57 22 150l94 526h146l-97 -543q-12 -63 -19 -159t56 -156q63 -62 185 -62t210 84q89 84 113 226l109 610h143l-149 -846q-12 -78 32 -78q17 1 35 15l10 -4z
M584 1147h-11l-43 67v11l379 278h11l63 -106l-2 -11z" />
    <glyph glyph-name="ucircumflex" unicode="&#xfb;" horiz-adv-x="1146" 
d="M1096 12q-22 -37 -95 -37q-71 0 -105 38t-32 102q-133 -139 -315 -139q-183 0 -277 102q-94 104 -77 270q6 57 22 150l94 526h146l-97 -543q-12 -63 -19 -159t56 -156q63 -62 185 -62t210 84q89 84 113 226l109 610h143l-149 -846q-12 -78 32 -78q17 1 35 15l10 -4z
M494 1147h-9l-49 78l2 10l328 190h27l258 -190l-2 -10l-72 -78h-10l-213 139z" />
    <glyph glyph-name="udieresis" unicode="&#xfc;" horiz-adv-x="1146" 
d="M1096 12q-22 -37 -95 -37q-71 0 -105 38t-32 102q-133 -139 -315 -139q-183 0 -277 102q-94 104 -77 270q6 57 22 150l94 526h146l-97 -543q-12 -63 -19 -159t56 -156q63 -62 185 -62t210 84q89 84 113 226l109 610h143l-149 -846q-12 -78 32 -78q17 1 35 15l10 -4z
M937 1382q48 0 78 -30q29 -30 29 -78q0 -49 -41 -89t-89 -40t-78 30q-30 31 -29 79q0 48 41 88t89 40zM564 1145q-48 0 -77 30q-29 29 -29 77t41 89q40 41 88 41t78 -30q29 -30 29 -77q0 -48 -41 -89t-89 -41z" />
    <glyph glyph-name="yacute" unicode="&#xfd;" horiz-adv-x="1073" 
d="M288 1049q72 0 108 -39t57 -121l159 -641l471 776h140l4 -10l-656 -1082q-81 -133 -157 -186t-168 -53t-137 35l-5 8l62 98l12 4q27 -24 77 -24t93 34t96 121l62 101l-182 721q-20 81 -34 107t-37 26q-22 0 -38 -15l-10 4l-15 99q25 37 98 37zM588 1147h-10l-43 67v11
l378 278h11l63 -106l-2 -11z" />
    <glyph glyph-name="thorn" unicode="&#xfe;" horiz-adv-x="1226" 
d="M1098 574q0 206 -145 297q-71 47 -177 47t-206 -58t-156 -169q-58 -111 -58 -263t87 -237t237 -85t266 105q72 66 112 164q40 99 40 199zM810 1049q202 0 320 -127t117 -320q0 -152 -61 -286t-172 -220q-154 -121 -366 -121t-331 170l-79 -452h-146l254 1437
q21 101 -29 101q-16 0 -34 -14l-11 4l-10 98q22 37 100 37t109 -51t18 -131l-49 -279q168 154 370 154z" />
    <glyph glyph-name="ydieresis" unicode="&#xff;" horiz-adv-x="1073" 
d="M288 1049q72 0 108 -39t57 -121l159 -641l471 776h140l4 -10l-656 -1082q-81 -133 -157 -186t-168 -53t-137 35l-5 8l62 98l12 4q27 -24 77 -24t93 34t96 121l62 101l-182 721q-20 81 -34 107t-37 26q-22 0 -38 -15l-10 4l-15 99q25 37 98 37zM941 1382q48 0 78 -30
t30 -78q1 -49 -41 -89t-90 -40t-78 30q-30 31 -29 79q0 48 41 88t89 40zM568 1145q-48 0 -76 30q-28 29 -29 77q0 48 40 89t88 41t78 -30q29 -30 29 -77q0 -48 -41 -89t-89 -41z" />
    <glyph glyph-name="Amacron" unicode="&#x100;" horiz-adv-x="1318" 
d="M449 432h522l-146 649zM1199 -25q-67 0 -105 43t-70 185l-23 98h-628l-176 -301h-152l786 1331h84l261 -1122q14 -57 26 -79q23 -42 92 -7l9 -4l10 -105l-4 -10q-43 -29 -110 -29zM1188 1593l-21 -114h-542l20 114h543z" />
    <glyph glyph-name="amacron" unicode="&#x101;" 
d="M607 526q-145 0 -239 -66t-94 -165q0 -97 63 -143t175 -46t220 76q110 76 134 205l15 82q-129 57 -274 57zM825 123q-157 -148 -395 -148q-120 0 -214 75q-93 75 -93 218q0 182 145 282t359 99q154 0 276 -57q20 111 21 135q0 96 -76 143t-189 48q-170 0 -315 -125h-10
l-80 88v10q178 158 430 158q166 0 274 -73t109 -239q0 -45 -18 -143l-72 -393q-22 -101 29 -101q16 1 34 15l11 -4l10 -99q-22 -37 -103 -37q-137 0 -133 148zM1024 1307l-20 -123h-535l20 123h535z" />
    <glyph glyph-name="Abreve" unicode="&#x102;" horiz-adv-x="1318" 
d="M449 432h522l-146 649zM1199 -25q-67 0 -105 43t-70 185l-23 98h-628l-176 -301h-152l786 1331h84l261 -1122q14 -57 26 -79q23 -42 92 -7l9 -4l10 -105l-4 -10q-43 -29 -110 -29zM893 1448q-113 0 -183 75t-63 195h123q-2 -74 36 -116t107 -41q137 0 191 157h121
q-33 -122 -126 -196t-206 -74z" />
    <glyph glyph-name="abreve" unicode="&#x103;" 
d="M607 526q-145 0 -239 -66t-94 -165q0 -97 63 -143t175 -46t220 76q110 76 134 205l15 82q-129 57 -274 57zM825 123q-157 -148 -395 -148q-120 0 -214 75q-93 75 -93 218q0 182 145 282t359 99q154 0 276 -57q20 111 21 135q0 96 -76 143t-189 48q-170 0 -315 -125h-10
l-80 88v10q178 158 430 158q166 0 274 -73t109 -239q0 -45 -18 -143l-72 -393q-22 -101 29 -101q16 1 34 15l11 -4l10 -99q-22 -37 -103 -37q-137 0 -133 148zM733 1147q-117 0 -187 75t-61 195h123q-2 -69 39 -113t103 -44t115 43q52 43 77 114h121q-35 -123 -124 -197
t-206 -73z" />
    <glyph glyph-name="Aogonek" unicode="&#x104;" horiz-adv-x="1318" 
d="M449 432h522l-146 649zM1061 -263q0 -24 16 -42q16 -19 52 -21t94 37h10l41 -67l-2 -11q-86 -65 -180 -65t-135 74q-19 34 -19 82t36 102t73 88q37 33 92 74q-27 12 -45 30q-39 43 -70 185l-23 98h-628l-176 -301h-152l786 1331h84l261 -1122q14 -57 26 -79q23 -42 92 -7
l9 -4l10 -105l-4 -10q-15 -12 -53 -40t-53 -41t-44 -37t-42 -38t-28 -33t-21 -37t-7 -41z" />
    <glyph glyph-name="aogonek" unicode="&#x105;" 
d="M512 106q112 0 220 76q110 76 134 205l15 82q-129 57 -290 57t-254 -93q-61 -61 -62 -148t62 -133t175 -46zM825 123q-157 -148 -395 -148q-120 0 -214 75q-93 75 -93 218q0 182 145 282t359 99q154 0 276 -57q20 111 21 135q0 96 -76 143t-189 48q-170 0 -315 -125h-10
l-80 88v10q178 158 430 158q166 0 274 -73t109 -239q0 -45 -18 -143l-72 -393q-22 -101 29 -101q16 1 34 15l11 -4l10 -99l-6 -10q-15 -12 -53 -40t-53 -41t-44 -37t-42 -38t-28 -33t-21 -37t-7 -41q0 -24 16 -42q16 -19 52 -21t94 37h10l41 -67l-2 -11q-86 -65 -180 -65
t-135 74q-19 34 -19 76q0 86 72 158q49 51 133 114q-66 33 -64 135z" />
    <glyph glyph-name="Cacute" unicode="&#x106;" horiz-adv-x="1357" 
d="M784 -25q-252 0 -418.5 171t-166.5 425q0 201 93 373t253 281q201 131 432 131q164 0 294 -72t206 -194l-2 -11l-113 -75h-10q-59 104 -165 160.5t-235 56.5q-182 1 -319 -93t-209 -234t-72 -326t130 -321.5t327 -135.5q111 0 225.5 48t200.5 134h10l84 -84l-2 -10
q-228 -224 -543 -224zM1184 1774h10l51 -111l-2 -10l-416 -203h-10l-33 70v10z" />
    <glyph glyph-name="cacute" unicode="&#x107;" horiz-adv-x="1064" 
d="M608 -25q-197 0 -321.5 129t-124.5 324q0 147 63.5 276.5t173.5 217.5q162 127 377 127q125 0 226.5 -48.5t154.5 -132.5l-2 -10l-102 -74h-11q-104 134 -278 134t-291 -101q-164 -137 -164 -377q0 -145 89 -239.5t233 -94.5q182 0 315 134h10l76 -74l-2 -10
q-174 -181 -422 -181zM977 1503h10l64 -106l-2 -11l-398 -239h-10l-43 67v11z" />
    <glyph glyph-name="Cdotaccent" unicode="&#x10a;" horiz-adv-x="1357" 
d="M784 -25q-252 0 -418.5 171t-166.5 425q0 201 93 373t253 281q201 131 432 131q164 0 294 -72t206 -194l-2 -11l-113 -75h-10q-59 104 -165 160.5t-235 56.5q-182 0 -319 -93.5t-209 -233.5t-72 -326.5t130 -321.5t327 -135q111 0 225.5 48t200.5 134h10l84 -84l-2 -10
q-228 -224 -543 -224zM1000 1450q-46 0 -75.5 29.5t-29.5 76.5t41 88.5t87 41.5t76.5 -31t30.5 -78t-42 -87t-88 -40z" />
    <glyph glyph-name="cdotaccent" unicode="&#x10b;" horiz-adv-x="1064" 
d="M608 -25q-197 0 -321.5 129t-124.5 324q0 147 63.5 276.5t173.5 217.5q162 127 377 127q125 0 226.5 -48.5t154.5 -132.5l-2 -10l-102 -74h-11q-104 133 -278 133.5t-291 -100.5q-164 -137 -164 -377q0 -145 89 -239.5t233 -94.5q182 0 315 134h10l76 -74l-2 -10
q-174 -181 -422 -181zM807 1145q-49 0 -78 29.5t-29 77.5t40 89t89.5 41t79 -29.5t29.5 -78.5t-41 -89t-90 -40z" />
    <glyph glyph-name="Ccaron" unicode="&#x10c;" horiz-adv-x="1357" 
d="M784 -25q-252 0 -418.5 171t-166.5 425q0 201 93 373t253 281q201 131 432 131q164 0 294 -72t206 -194l-2 -11l-113 -75h-10q-59 104 -165 160.5t-235 56.5q-182 1 -319 -93t-209 -234t-72 -326t130 -321.5t327 -135.5q111 0 225.5 48t200.5 134h10l84 -84l-2 -10
q-228 -224 -543 -224zM1315 1729l39 -82l-2 -11l-353 -186h-16l-285 186l2 11l66 82h10l240 -138l289 138h10z" />
    <glyph glyph-name="ccaron" unicode="&#x10d;" horiz-adv-x="1064" 
d="M608 -25q-197 0 -321.5 129t-124.5 324q0 147 63.5 276.5t173.5 217.5q162 127 377 127q125 0 226.5 -48.5t154.5 -132.5l-2 -10l-102 -74h-11q-104 134 -278 134t-291 -101q-164 -137 -164 -377q0 -145 89 -239.5t233 -94.5q182 0 315 134h10l76 -74l-2 -10
q-174 -181 -422 -181zM1094 1425l45 -77l-2 -11l-326 -190h-27l-260 190l2 11l76 77h8l213 -139l260 139h11z" />
    <glyph glyph-name="Dcaron" unicode="&#x10e;" horiz-adv-x="1429" 
d="M1315 764q0 213 -127 334q-104 102 -305 102h-340l-191 -1069h342q260 0 416 135q98 84 152 214q53 130 53 284zM672 0h-490l236 1331h489q255 0 398 -131q164 -152 163 -416q0 -190 -72 -354t-204 -268q-205 -162 -520 -162zM893 1450h-16l-285 186l2 11l65 82h11
l239 -138l289 138h10l39 -82l-2 -11z" />
    <glyph glyph-name="dcaron" unicode="&#x10f;" horiz-adv-x="1300" 
d="M723.5 918q-146.5 0 -262.5 -107q-152 -139 -152 -360q0 -143 87 -244t230.5 -101t247.5 78q178 133 179 412q0 156 -91.5 239t-238 83zM160 432q0 145 57 272t162 214q160 131 375 131t336 -175l88 498l139 25l6 -6l-209 -1190q-22 -101 29 -101q16 0 35 15l10 -4
l10 -99q-22 -37 -93.5 -37t-105.5 41t-32 107q-157 -146 -361.5 -147t-325 131.5t-120.5 324.5zM1645 1454l6 -10l-168 -367l-15 -10h-77l-7 10l111 367l12 10h138z" />
    <glyph glyph-name="Dcroat" unicode="&#x110;" horiz-adv-x="1431" 
d="M1315 764q0 213 -127 334q-104 102 -305 102h-340l-84 -465h375l-23 -131h-375l-84 -473h342q260 0 416 135q98 84 152 214q53 130 53 284zM672 0h-490l107 604h-131l22 131h133l105 596h489q255 0 398 -131q164 -152 163 -416q0 -190 -72 -354t-204 -268
q-205 -162 -520 -162z" />
    <glyph glyph-name="dcroat" unicode="&#x111;" horiz-adv-x="1247" 
d="M1053 579.5q0 120.5 -45 195.5q-86 143 -284 143t-326 -180q-88 -124 -88.5 -277t86.5 -254t230.5 -101t236.5 69.5t141.5 176.5t48.5 227.5zM160 432q0 145 57 272t162 214q160 131 375 131t336 -175l43 248h-281l20 115h281l25 135l139 25l6 -6l-27 -154h146l-21 -115
h-145l-162 -921q-22 -101 29 -101q16 0 35 15l10 -4l10 -99q-22 -37 -93.5 -37t-105.5 41t-32 107q-157 -146 -361.5 -147t-325 131.5t-120.5 324.5z" />
    <glyph glyph-name="Emacron" unicode="&#x112;" horiz-adv-x="1099" 
d="M1227 1200h-686l-82 -463h542l-22 -131h-543l-84 -475h686l-22 -131h-834l236 1331h833zM606 1593h543l-21 -114h-542z" />
    <glyph glyph-name="emacron" unicode="&#x113;" horiz-adv-x="1153" 
d="M471 825q-111 -86 -143 -233h710q12 150 -64.5 238t-233 87.5t-269.5 -92.5zM631 106q225 0 364 152h11l79 -82l-2 -10q-86 -96 -210.5 -143.5t-247.5 -47.5q-203 0 -334 119t-131 328q0 145 63.5 278.5t163.5 217.5q158 131 361 131t319.5 -122t116.5 -315
q0 -73 -25 -143h-846q-13 -235 131 -319q74 -44 187 -44zM1069 1307l-20 -123h-535l21 123h534z" />
    <glyph glyph-name="Edotaccent" unicode="&#x116;" horiz-adv-x="1099" 
d="M1227 1200h-686l-82 -463h542l-22 -131h-543l-84 -475h686l-22 -131h-834l236 1331h833zM859 1450q-46 0 -75.5 29.5t-29.5 76.5t41 88.5t87 41.5t76.5 -31t30.5 -78t-42 -87t-88 -40z" />
    <glyph glyph-name="edotaccent" unicode="&#x117;" horiz-adv-x="1153" 
d="M471 825q-111 -86 -143 -233h710q12 150 -64.5 238t-233 87.5t-269.5 -92.5zM631 106q225 0 364 152h11l79 -82l-2 -10q-86 -96 -210.5 -143.5t-247.5 -47.5q-203 0 -334 119t-131 328q0 145 63.5 278.5t163.5 217.5q158 131 361 131t319.5 -122t116.5 -315
q0 -73 -25 -143h-846q-13 -235 131 -319q74 -44 187 -44zM780 1145q-49 0 -77.5 29.5t-28.5 77.5t40 89t89 41t78.5 -29.5t29.5 -78.5t-41 -89t-90 -40z" />
    <glyph glyph-name="Eogonek" unicode="&#x118;" horiz-adv-x="1099" 
d="M930 -293h10l41 -67l-2 -11q-86 -66 -166 -65.5t-124 42.5t-44 98q0 98 83 179q51 50 140 117h-686l236 1331h833l-24 -131h-686l-82 -463h542l-22 -131h-543l-84 -475h686l-22 -131q-84 -62 -102 -78q-20 -16 -48 -40q-98 -81 -98 -144.5t53 -66.5t109 36z" />
    <glyph glyph-name="eogonek" unicode="&#x119;" horiz-adv-x="1153" 
d="M471 825q-111 -86 -143 -233h710q12 150 -64.5 238t-233 87.5t-269.5 -92.5zM631 106q100 0 197.5 38t166.5 114h11l79 -82l-2 -10q-109 -121 -286 -168q-14 -12 -52 -40t-53.5 -41t-44.5 -37q-98 -79 -98 -140q-1 -69 69 -72q36 -2 93 37h10l41 -67l-2 -11
q-86 -65 -180 -65q-92 0 -134 74q-20 34 -20 92q0 101 192 247q-199 2 -328.5 121t-129.5 326q0 145 63.5 278.5t163.5 217.5q158 131 361 131t319.5 -122t116.5 -315q0 -73 -25 -143h-846q-10 -174 70 -268.5t248 -94.5z" />
    <glyph glyph-name="Ecaron" unicode="&#x11a;" horiz-adv-x="1099" 
d="M1227 1200h-686l-82 -463h542l-22 -131h-543l-84 -475h686l-22 -131h-834l236 1331h833zM1174 1729l38 -82l-2 -11l-352 -186h-16l-285 186l2 11l66 82h10l239 -138l289 138h11z" />
    <glyph glyph-name="ecaron" unicode="&#x11b;" horiz-adv-x="1153" 
d="M471 825q-111 -86 -143 -233h710q12 150 -64.5 238t-233 87.5t-269.5 -92.5zM631 106q225 0 364 152h11l79 -82l-2 -10q-86 -96 -210.5 -143.5t-247.5 -47.5q-203 0 -334 119t-131 328q0 145 63.5 278.5t163.5 217.5q158 131 361 131t319.5 -122t116.5 -315
q0 -73 -25 -143h-846q-13 -235 131 -319q74 -44 187 -44zM784 1147h-26l-260 190l2 11l75 77h9l213 -139l260 139h10l45 -77l-2 -11z" />
    <glyph glyph-name="Gbreve" unicode="&#x11e;" horiz-adv-x="1468" 
d="M975 1356q162 0 294 -75t206 -191l-2 -11l-117 -75h-10q-57 104 -162 160.5t-234 56.5q-238 0 -409 -160q-190 -180 -191 -475q0 -205 130 -340t337 -135t359.5 129t193.5 346h-516l25 131h647l8 -12v-19q-31 -334 -247 -522t-505 -189q-252 0 -418.5 171t-166.5 425
q0 363 260 590q221 195 518 195zM1030 1561q137 0 191 157h120q-33 -121 -126 -195.5t-205.5 -74.5t-183 74.5t-62.5 195.5h123q-2 -74 35.5 -115.5t107.5 -41.5z" />
    <glyph glyph-name="gbreve" unicode="&#x11f;" horiz-adv-x="1228" 
d="M1030 613.5q0 97.5 -38 164t-107.5 103.5t-157.5 37q-195 0 -297 -123.5t-102 -271.5t80.5 -229t210 -81t222.5 60.5t141 151.5t48 188.5zM539 -307q-143 0 -255 58.5t-167 166.5l2 14l88 76h14q43 -86 130 -136t206 -50q162 0 263.5 93t125.5 247l8 53
q-150 -133 -347 -133t-312 115.5t-115 291.5q0 137 60.5 257t165.5 198q145 104 342 105q109 0 194.5 -45.5t136.5 -124.5q16 76 63.5 123t114 47t97.5 -27l2 -10l-45 -99l-11 -4q-10 15 -34 15q-44 1 -60 -101l-116 -657q-39 -221 -188.5 -347t-362.5 -126zM768 1147
q-117 0 -186.5 74.5t-61.5 195.5h123q-2 -70 39 -113.5t103 -43.5t114.5 43t77.5 114h121q-35 -123 -124 -196.5t-206 -73.5z" />
    <glyph glyph-name="Gdotaccent" unicode="&#x120;" horiz-adv-x="1468" 
d="M975 1356q162 0 294 -75t206 -191l-2 -11l-117 -75h-10q-57 104 -162 160.5t-234 56.5q-238 0 -409 -160q-190 -180 -191 -475q0 -205 130 -340t337 -135t359.5 129t193.5 346h-516l25 131h647l8 -12v-19q-31 -334 -247 -522t-505 -189q-252 0 -418.5 171t-166.5 425
q0 363 260 590q221 195 518 195zM1015 1450q-46 0 -76 29.5t-30 76.5t41 88.5t87 41.5t77 -31t31 -78t-42 -87t-88 -40z" />
    <glyph glyph-name="gdotaccent" unicode="&#x121;" horiz-adv-x="1228" 
d="M1030 613.5q0 97.5 -38 164t-107.5 103.5t-157.5 37q-195 0 -297 -123.5t-102 -271.5t80.5 -229t210 -81t222.5 60.5t141 151.5t48 188.5zM539 -307q-143 0 -255 58.5t-167 166.5l2 14l88 76h14q43 -86 130 -136t206 -50q162 0 263.5 93t125.5 247l8 53
q-150 -133 -347 -133t-312 115.5t-115 291.5q0 137 60.5 257t165.5 198q145 104 342 105q109 0 194.5 -45.5t136.5 -124.5q16 76 63.5 123t114 47t97.5 -27l2 -10l-45 -99l-11 -4q-10 15 -34 15q-44 1 -60 -101l-116 -657q-39 -221 -188.5 -347t-362.5 -126zM770 1145
q-49 0 -77.5 29.5t-28.5 77.5t39.5 89t89 41t79 -29.5t29.5 -78.5t-41 -89t-90 -40z" />
    <glyph glyph-name="Gcommaaccent" unicode="&#x122;" horiz-adv-x="1468" 
d="M737 -104l15 10h137l6 -10l-156 -336l-14 -11h-82l-6 11zM975 1356q162 0 294 -75t206 -191l-2 -11l-117 -75h-10q-57 104 -162 160.5t-234 56.5q-238 0 -409 -160q-190 -180 -191 -475q0 -205 130 -340t337 -135t359.5 129t193.5 346h-516l25 131h647l8 -12v-19
q-31 -334 -247 -522t-505 -189q-252 0 -418.5 171t-166.5 425q0 363 260 590q221 195 518 195z" />
    <glyph glyph-name="gcommaaccent" unicode="&#x123;" horiz-adv-x="1228" 
d="M1030 613.5q0 97.5 -38 164t-107.5 103.5t-157.5 37q-195 0 -297 -123.5t-102 -271.5t80.5 -229t210 -81t222.5 60.5t141 151.5t48 188.5zM539 -307q-143 0 -255 58.5t-167 166.5l2 14l88 76h14q43 -86 130 -136t206 -50q162 0 263.5 93t125.5 247l8 53
q-150 -133 -347 -133t-312 115.5t-115 291.5q0 137 60.5 257t165.5 198q145 104 342 105q109 0 194.5 -45.5t136.5 -124.5q16 76 63.5 123t114 47t97.5 -27l2 -10l-45 -99l-11 -4q-10 15 -34 15q-44 1 -60 -101l-116 -657q-39 -221 -188.5 -347t-362.5 -126zM831 1143h-137
l-6 10l156 336l14 10h82l6 -10l-100 -336z" />
    <glyph glyph-name="Hbar" unicode="&#x126;" horiz-adv-x="1425" 
d="M1227 737l37 207h-770l-37 -207h770zM1520 1059l-21 -115h-86l-168 -944h-147l106 606h-770l-106 -606h-148l168 944h-88l21 115h86l49 272h147l-49 -272h770l49 272h148l-49 -272h88z" />
    <glyph glyph-name="hbar" unicode="&#x127;" horiz-adv-x="1144" 
d="M776 1049q186 -1 277 -103q92 -102 80 -270q0 -25 -23 -150l-94 -526h-146l97 543q18 102 18 131q5 114 -61 180t-188 66t-217 -83q-91 -83 -120 -216l-108 -621h-144l201 1143h-143l20 114h144l20 115l139 25l9 -6l-25 -134h281l-21 -114h-278l-41 -230q137 136 323 136
z" />
    <glyph glyph-name="Itilde" unicode="&#x128;" horiz-adv-x="512" 
d="M418 1331h147l-235 -1331h-148zM391 1659q53 0 153 -37t130 -37q70 0 110 74h9l32 -105v-10q-66 -86 -170 -86q-49 0 -139 37t-152 37t-104 -74h-8l-33 105l2 10q66 86 170 86z" />
    <glyph glyph-name="itilde" unicode="&#x129;" horiz-adv-x="454" 
d="M348 100q16 0 35 15l10 -4l10 -99q-22 -37 -100 -37q-78 1 -114 51t-21 132l154 866h143l-150 -846q-12 -78 33 -78zM285 1360q61 0 173 -36t146 -36q76 0 119 72h8l31 -105l-2 -10q-76 -84 -176 -84q-56 0 -158 36t-169 36t-114 -72h-8l-29 105l3 10q72 84 176 84z" />
    <glyph glyph-name="Imacron" unicode="&#x12a;" horiz-adv-x="512" 
d="M418 1331h147l-235 -1331h-148zM287 1593h489l-18 -114h-490z" />
    <glyph glyph-name="imacron" unicode="&#x12b;" horiz-adv-x="454" 
d="M348 100q16 0 35 15l10 -4l10 -99q-22 -37 -100 -37q-78 1 -114 51t-21 132l154 866h143l-150 -846q-12 -78 33 -78zM172 1307h535l-21 -123h-534z" />
    <glyph glyph-name="Iogonek" unicode="&#x12e;" horiz-adv-x="512" 
d="M244 -293h10l41 -67l-2 -11q-86 -65 -166 -65t-124 42t-44 98t27 109t123 131q25 19 73 56l236 1331h147l-235 -1331q-16 -12 -54 -40t-52 -41q-15 -13 -44 -37q-98 -81 -98 -145q0 -63 53 -66t109 36z" />
    <glyph glyph-name="iogonek" unicode="&#x12f;" horiz-adv-x="454" 
d="M150 -247q0 -81 61 -82q45 -1 100 38h11l40 -67l-2 -11q-86 -65 -166 -65t-124 42t-43 97q0 55 18 94q37 79 188 191q-88 41 -65 168l154 866h143l-150 -846q-16 -76 33 -78q16 0 35 15l10 -4l10 -99l-6 -10q-86 -64 -103 -79t-46 -39t-42 -38q-56 -61 -56 -93zM440 1382
q49 0 79 -30t30 -78q0 -49 -41 -89t-90 -40t-78 30q-29 29 -29 77t40 89t89 41z" />
    <glyph glyph-name="Idotaccent" unicode="&#x130;" horiz-adv-x="512" 
d="M418 1331h147l-235 -1331h-148zM517 1450q-46 0 -76 30q-29 30 -29 76t41 88t87 42t76 -31t31 -78q0 -47 -42 -87t-88 -40z" />
    <glyph glyph-name="dotlessi" unicode="&#x131;" horiz-adv-x="454" 
d="M348 100q16 0 35 15l10 -4l10 -99q-22 -37 -100 -37q-78 1 -114 51t-21 132l154 866h143l-150 -846q-12 -78 33 -78z" />
    <glyph glyph-name="IJ" unicode="&#x132;" horiz-adv-x="1445" 
d="M891 -25q-248 0 -348 205l2 13l108 79h11q72 -162 247 -161q102 0 184 75q81 76 105 209l141 805h-419l24 131h567l-165 -936q-35 -203 -166 -311t-291 -109zM418 1331h147l-235 -1331h-148z" />
    <glyph glyph-name="ij" unicode="&#x133;" horiz-adv-x="890" 
d="M782 1024h144l-174 -987q-25 -137 -88 -214t-177 -130h-12l-37 108l4 13q139 66 162 202zM348 100q16 0 35 15l10 -4l10 -99q-22 -37 -100 -37q-78 1 -114 51t-21 132l154 866h143l-150 -846q-12 -78 33 -78zM903 1382q49 0 79 -30t30 -78q0 -49 -42 -89t-90 -40
q-50 0 -78 30q-28 29 -28 77t40 89t89 41zM418 1145q-49 0 -78 30q-29 29 -29 77t40 89t89 41t79 -30t30 -78q0 -49 -41 -89t-90 -40z" />
    <glyph glyph-name="Kcommaaccent" unicode="&#x136;" horiz-adv-x="1191" 
d="M596 -94h137l6 -10l-155 -336l-15 -11h-82l-6 11l101 336zM1098 -25q-139 0 -254 177l-289 448l-141 -127l-84 -473h-148l236 1331h147l-119 -667l728 667h178l2 -6l-682 -623l305 -473q43 -68 75.5 -94t67.5 -26t58 14l8 -4l20 -105l-4 -10q-41 -29 -104 -29z" />
    <glyph glyph-name="kcommaaccent" unicode="&#x137;" horiz-adv-x="1011" 
d="M492 -94h137l6 -10l-156 -336l-14 -11h-82l-6 11l100 336zM928 -25q-106 0 -178 109l-248 399l-150 -133l-61 -350h-144l242 1372l139 25l9 -6l-152 -863l553 496h162l4 -8l-488 -436l263 -422q35 -57 82 -58q14 1 43 15l12 -4l10 -99l-6 -10q-41 -27 -92 -27z" />
    <glyph glyph-name="kgreenlandic" unicode="&#x138;" horiz-adv-x="1011" 
d="M928 -25q-106 0 -178 109l-244 395l-156 -139l-59 -340h-144l181 1024h143l-88 -496l555 496h162l4 -8l-488 -436l263 -422q35 -57 82 -58q14 1 43 15l12 -4l10 -99l-6 -10q-41 -27 -92 -27z" />
    <glyph glyph-name="Lacute" unicode="&#x139;" horiz-adv-x="972" 
d="M965 131l-23 -131h-760l236 1331h147l-213 -1200h613zM786 1774h11l51 -111l-2 -10l-416 -203h-10l-33 70v10z" />
    <glyph glyph-name="lacute" unicode="&#x13a;" horiz-adv-x="460" 
d="M352 100q16 0 35 15l10 -4l11 -99q-26 -37 -102.5 -37t-112 50.5t-21.5 132.5l213 1214l141 25l6 -6l-213 -1213q-12 -78 33 -78zM750 1774h10l51 -111l-2 -10l-416 -203h-10l-33 70v10z" />
    <glyph glyph-name="Lcommaaccent" unicode="&#x13b;" horiz-adv-x="972" 
d="M508 -104l14 10h137l7 -10l-156 -336l-14 -11h-82l-6 11zM965 131l-23 -131h-760l236 1331h147l-213 -1200h613z" />
    <glyph glyph-name="lcommaaccent" unicode="&#x13c;" horiz-adv-x="460" 
d="M213 -104l14 10h138l6 -10l-156 -336l-14 -11h-82l-6 11zM352 100q16 0 35 15l10 -4l11 -99q-26 -37 -102.5 -37t-112 50.5t-21.5 132.5l213 1214l141 25l6 -6l-213 -1213q-12 -78 33 -78z" />
    <glyph glyph-name="Lcaron" unicode="&#x13d;" horiz-adv-x="972" 
d="M965 131l-23 -131h-760l236 1331h147l-213 -1200h613zM813 1419l12 11h138l8 -11l-170 -366l-15 -11h-77l-7 11z" />
    <glyph glyph-name="lcaron" unicode="&#x13e;" horiz-adv-x="509" 
d="M352 100q16 0 35 15l10 -4l11 -99q-26 -37 -102.5 -37t-112 50.5t-21.5 132.5l213 1214l141 25l6 -6l-213 -1213q-12 -78 33 -78zM705 1444l12 10h137l6 -10l-168 -367l-14 -10h-78l-6 10z" />
    <glyph glyph-name="Ldot" unicode="&#x13f;" horiz-adv-x="985" 
d="M749 608q-57 0 -95 36t-38 94.5t47.5 107.5t104.5 49t94 -36t37 -94.5t-46.5 -107.5t-103.5 -49zM965 131l-23 -131h-760l236 1331h147l-213 -1200h613z" />
    <glyph glyph-name="ldot" unicode="&#x140;" horiz-adv-x="514" 
d="M589 602q-56 0 -90 36t-34 94.5t52 107.5t108.5 49t89.5 -36t33 -94.5t-51.5 -107.5t-107.5 -49zM352 100q16 0 35 15l10 -4l11 -99q-26 -37 -102.5 -37t-112 50.5t-21.5 132.5l213 1214l141 25l6 -6l-213 -1213q-12 -78 33 -78z" />
    <glyph glyph-name="Lslash" unicode="&#x141;" horiz-adv-x="1013" 
d="M393 131h613l-23 -131h-760l92 520l-194 -90l-8 6l20 115l205 96l121 684h147l-108 -610l346 162l8 -6l-21 -115l-356 -166z" />
    <glyph glyph-name="lslash" unicode="&#x142;" horiz-adv-x="598" 
d="M442 100q16 0 35 15l10 -4l11 -99q-22 -37 -100.5 -37t-114 50.5t-21.5 132.5l80 450l-188 -92l-11 8l19 127l205 101l108 620l141 25l7 -6l-99 -564l185 91l10 -9l-19 -127l-202 -98l-88 -506q-12 -78 32 -78z" />
    <glyph glyph-name="Nacute" unicode="&#x143;" horiz-adv-x="1419" 
d="M1329 1331h144l-236 -1331h-78l-651 1042l-182 -1042h-144l236 1331h78l649 -1040zM1124 1774h11l51 -111l-2 -10l-416 -203h-10l-33 70v10z" />
    <glyph glyph-name="nacute" unicode="&#x144;" horiz-adv-x="1169" 
d="M316 1049q147 0 147 -136q131 136 344 136q170 0 265 -103.5t83 -269.5q0 -25 -22 -154l-95 -522h-145l92 522q23 125 24 167q2 100 -63.5 165.5t-167.5 65.5t-172 -36q-146 -75 -184 -266l-109 -618h-143l145 823q22 101 -28 101q-16 0 -35 -15l-10 4l-11 99
q26 37 85 37zM655 1147h-10l-43 67v11l379 278h10l64 -106l-2 -11z" />
    <glyph glyph-name="Ncommaaccent" unicode="&#x145;" horiz-adv-x="1419" 
d="M653 -104l15 10h137l6 -10l-156 -336l-14 -11h-82l-6 11zM1329 1331h144l-236 -1331h-78l-651 1042l-182 -1042h-144l236 1331h78l649 -1040z" />
    <glyph glyph-name="ncommaaccent" unicode="&#x146;" horiz-adv-x="1169" 
d="M545 -94h137l6 -10l-156 -336l-14 -11h-82l-6 11l100 336zM316 1049q147 0 147 -136q131 136 344 136q170 0 265 -103.5t83 -269.5q0 -25 -22 -154l-95 -522h-145l92 522q23 125 24 167q2 100 -63.5 165.5t-167.5 65.5t-172 -36q-146 -75 -184 -266l-109 -618h-143
l145 823q22 101 -28 101q-16 0 -35 -15l-10 4l-11 99q26 37 85 37z" />
    <glyph glyph-name="Ncaron" unicode="&#x147;" horiz-adv-x="1419" 
d="M1329 1331h144l-236 -1331h-78l-651 1042l-182 -1042h-144l236 1331h78l649 -1040zM1255 1729l39 -82l-2 -11l-352 -186h-16l-285 186l2 11l66 82h10l239 -138l289 138h10z" />
    <glyph glyph-name="ncaron" unicode="&#x148;" horiz-adv-x="1169" 
d="M316 1049q147 0 147 -136q131 136 344 136q170 0 265 -103.5t83 -269.5q0 -25 -22 -154l-95 -522h-145l92 522q23 125 24 167q2 100 -63.5 165.5t-167.5 65.5t-172 -36q-146 -75 -184 -266l-109 -618h-143l145 823q22 101 -28 101q-16 0 -35 -15l-10 4l-11 99
q26 37 85 37zM815 1147h-27l-260 190l2 11l76 77h8l213 -139l260 139h11l45 -77l-2 -11z" />
    <glyph glyph-name="napostrophe" unicode="&#x149;" horiz-adv-x="1169" 
d="M316 1049q147 0 147 -136q131 136 344 136q170 0 265 -103.5t83 -269.5q0 -25 -22 -154l-95 -522h-145l92 522q23 125 24 167q2 100 -63.5 165.5t-167.5 65.5t-172 -36q-146 -75 -184 -266l-109 -618h-143l145 823q22 101 -28 101q-16 0 -35 -15l-10 4l-11 99
q26 37 85 37zM225 1157l-14 -10h-78l-6 10l104 336l15 10h137l6 -10z" />
    <glyph glyph-name="Eng" unicode="&#x14a;" horiz-adv-x="1419" 
d="M801 -436q-97 0 -185 42t-131 118l2 10l101 69h10q55 -104 221 -104q106 0 176 60t90 180l25 139l-600 964l-184 -1042h-144l236 1331h78l649 -1040l184 1040h144l-250 -1413q-29 -162 -150 -258t-272 -96z" />
    <glyph glyph-name="eng" unicode="&#x14b;" horiz-adv-x="1169" 
d="M327 1049q136 0 136 -138q131 138 344 138q170 1 265 -103t83 -270q0 -25 -22 -154l-84 -465q-45 -258 -275 -364h-8l-41 106l2 8q141 66 172 230l86 485q23 123 23 152q4 114 -62 180t-188 66t-216 -81q-93 -81 -120 -221l-109 -618h-143l145 823q22 101 -28 101
q-16 0 -35 -15l-10 4l-11 99q26 37 96 37z" />
    <glyph glyph-name="Omacron" unicode="&#x14c;" horiz-adv-x="1525" 
d="M813 111q238 0 410 159q190 180 190 473q0 203 -135 340t-332 138q-238 0 -409 -160q-190 -180 -191 -475q0 -203 135 -339t332 -136zM788 -25q-252 0 -424 172t-171 424q0 362 260 590q221 195 518 195q252 0 424 -172t172 -424q0 -362 -260 -590q-222 -195 -519 -195z
M739 1593h543l-20 -114h-543z" />
    <glyph glyph-name="omacron" unicode="&#x14d;" horiz-adv-x="1204" 
d="M631 106q180 0 299 113q145 135 145 363q0 147 -90 241.5t-242.5 94.5t-273.5 -105q-160 -139 -160 -371q0 -147 90.5 -241.5t231.5 -94.5zM625 -25q-214 0 -338.5 129t-124.5 324q0 145 62.5 273t170.5 217q166 131 372 131t332 -129t126 -324q0 -139 -56.5 -263
t-156.5 -212q-173 -146 -387 -146zM553 1307h534l-20 -123h-535z" />
    <glyph glyph-name="Ohungarumlaut" unicode="&#x150;" horiz-adv-x="1525" 
d="M813 111q238 0 410 159q190 180 190 473q0 203 -135 340t-332 138q-238 0 -409 -160q-190 -180 -191 -475q0 -203 135 -339t332 -136zM788 -25q-252 0 -424 172t-171 424q0 362 260 590q221 195 518 195q252 0 424 -172t172 -424q0 -362 -260 -590q-222 -195 -519 -195z
M1266 1767h147l8 -10l-264 -307h-108l-2 10zM969 1767h147l6 -10l-262 -307h-106l-4 10z" />
    <glyph glyph-name="ohungarumlaut" unicode="&#x151;" horiz-adv-x="1204" 
d="M631 106q180 0 299 113q145 135 145 363q0 147 -90 241.5t-242.5 94.5t-273.5 -105q-160 -139 -160 -371q0 -147 90.5 -241.5t231.5 -94.5zM625 -25q-214 0 -338.5 129t-124.5 324q0 145 62.5 273t170.5 217q166 131 372 131t332 -129t126 -324q0 -139 -56.5 -263
t-156.5 -212q-173 -146 -387 -146zM1042 1503l15 10h137l6 -10l-260 -348l-12 -10h-80l-6 10zM780 1503l15 10h135l6 -10l-260 -348l-12 -10h-78l-6 10z" />
    <glyph glyph-name="OE" unicode="&#x152;" horiz-adv-x="2217" 
d="M1413 743q0 203 -135 340.5t-332 137.5q-238 0 -409 -160q-190 -180 -191 -475q0 -203 136 -339t331 -136q238 -1 410 159q190 180 190 473zM788 -25q-252 0 -423.5 172t-171.5 424q0 362 260 590q221 195 518 195q166 0 303 -80t215 -215l47 270h834l-25 -131h-686
l-82 -463h543l-23 -131h-543l-84 -475h687l-23 -131h-834l35 197q-106 -106 -247.5 -164t-299.5 -58z" />
    <glyph glyph-name="oe" unicode="&#x153;" horiz-adv-x="2058" 
d="M1646 917q-156 0 -270 -92q-111 -86 -143 -233h711q12 150 -65 238t-233 87zM1075 601q0 128 -90 222q-91 95 -243 95t-273 -105q-160 -143 -160 -389q0 -129 90 -223t232 -95q180 0 299 113q145 130 145 382zM608 -25q-198 0 -322 129t-124 324q0 145 62 273t171 217
q166 131 381 131q139 0 247 -68t159 -184q82 117 207 185t270 67q197 0 313 -122t117 -315q0 -73 -25 -143h-845q-11 -174 69 -268t248 -95q100 0 198 38t167 114h10l80 -82l-2 -10q-86 -96 -211 -143t-259 -47t-248 64q-114 65 -167 183q-113 -156 -299 -217
q-94 -31 -197 -31z" />
    <glyph glyph-name="Racute" unicode="&#x154;" horiz-adv-x="1232" 
d="M803 690q129 0 221 82q94 88 94 204.5t-74 174.5q-59 49 -151 49h-352l-90 -510h352zM1075.5 -25q-53.5 0 -85.5 10.5t-54.5 24t-43 44t-31.5 51t-23.5 64.5t-17.5 65.5t-16 74.5t-16 72q-39 182 -118 182h-242l-98 -563h-148l236 1331h463q186 0 288.5 -84t102.5 -231
q0 -223 -158 -344q-104 -78 -254 -101q51 -23 82 -190q16 -92 29.5 -140t45.5 -90t71.5 -42t64.5 14l8 -4l21 -105l-4 -10q-49 -29 -102.5 -29zM676 1450h-10l-33 70v10l399 244h10l52 -111l-2 -10z" />
    <glyph glyph-name="racute" unicode="&#x155;" horiz-adv-x="706" 
d="M315 1049q142 0 148 -125q113 125 276 125q83 0 144 -29l2 -10l-68 -111l-10 -4q-33 25 -100 25q-115 0 -186.5 -81t-98.5 -229l-109 -610h-143l145 823q16 100 -28 101q-16 0 -35 -15l-10 4l-11 99q26 37 84 37zM444 1147h-10l-43 67v11l379 278h10l64 -106l-2 -11z" />
    <glyph glyph-name="Rcommaaccent" unicode="&#x156;" horiz-adv-x="1232" 
d="M561 -94h137l7 -10l-156 -336l-14 -11h-82l-7 11l101 336zM803 690q129 0 221 82q94 88 94 204.5t-74 174.5q-59 49 -151 49h-352l-90 -510h352zM1075.5 -25q-53.5 0 -85.5 10.5t-54.5 24t-43 44t-31.5 51t-23.5 64.5t-17.5 65.5t-16 74.5t-16 72q-39 182 -118 182h-242
l-98 -563h-148l236 1331h463q186 0 288.5 -84t102.5 -231q0 -223 -158 -344q-104 -78 -254 -101q51 -23 82 -190q16 -92 29.5 -140t45.5 -90t71.5 -42t64.5 14l8 -4l21 -105l-4 -10q-49 -29 -102.5 -29z" />
    <glyph glyph-name="rcommaaccent" unicode="&#x157;" horiz-adv-x="706" 
d="M166 -94h137l6 -10l-155 -336l-15 -11h-82l-6 11l101 336zM315 1049q142 0 148 -125q113 125 276 125q83 0 144 -29l2 -10l-68 -111l-10 -4q-33 25 -100 25q-115 0 -186.5 -81t-98.5 -229l-109 -610h-143l145 823q16 100 -28 101q-16 0 -35 -15l-10 4l-11 99q26 37 84 37
z" />
    <glyph glyph-name="Rcaron" unicode="&#x158;" horiz-adv-x="1232" 
d="M803 690q129 0 221 82q94 88 94 204.5t-74 174.5q-59 49 -151 49h-352l-90 -510h352zM1075.5 -25q-53.5 0 -85.5 10.5t-54.5 24t-43 44t-31.5 51t-23.5 64.5t-17.5 65.5t-16 74.5t-16 72q-39 182 -118 182h-242l-98 -563h-148l236 1331h463q186 0 288.5 -84t102.5 -231
q0 -223 -158 -344q-104 -78 -254 -101q51 -23 82 -190q16 -92 29.5 -140t45.5 -90t71.5 -42t64.5 14l8 -4l21 -105l-4 -10q-49 -29 -102.5 -29zM848 1450h-17l-284 186l2 11l65 82h11l239 -138l289 138h10l39 -82l-2 -11z" />
    <glyph glyph-name="rcaron" unicode="&#x159;" horiz-adv-x="706" 
d="M315 1049q142 0 148 -125q112 125 276 125q82 0 144 -29l2 -10l-68 -111l-10 -4q-33 25 -100 25q-115 0 -186.5 -81t-98.5 -229l-109 -610h-143l145 823q16 100 -28 101q-16 0 -35 -15l-10 4l-11 99q26 37 84 37zM856 1425l45 -77l-2 -11l-326 -190h-26l-260 190l2 11
l76 77h8l213 -139l260 139h10z" />
    <glyph glyph-name="Sacute" unicode="&#x15a;" horiz-adv-x="1064" 
d="M1032 1059q-96 162 -308 162q-110 0 -194 -67t-84 -169q0 -70 53.5 -117t111.5 -72.5t108.5 -48t71 -31.5t63.5 -33q44 -24 64 -41q72 -60 100.5 -118.5t28.5 -132.5q0 -174 -117 -287q-63 -61 -167.5 -95t-232.5 -34t-247 62.5t-179 171.5l2 10l99 84h10
q121 -193 358 -192q145 0 233.5 74.5t88.5 168t-58.5 144.5t-114.5 77.5t-104 48.5t-88 40q-93 44 -164 105.5t-71 186.5q0 184 138 291.5t327 108.5q133 0 235.5 -54.5t153.5 -146.5l-2 -10l-105 -86h-10zM965 1774h10l51 -111l-2 -10l-416 -203h-10l-33 70v10z" />
    <glyph glyph-name="sacute" unicode="&#x15b;" horiz-adv-x="851" 
d="M440 -25q-117 0 -211 50.5t-141 136.5l2 10l103 76h10q27 -66 93 -105t162.5 -39t161 47.5t64.5 109.5t-33 101t-71.5 60.5t-134 63.5t-155 99.5t-59.5 169t91 202.5t268 92q111 0 193.5 -43t115.5 -113l-2 -10l-104 -76h-11q-25 49 -84 81t-134 32t-128 -40t-53 -104
q0 -96 158 -170q74 -35 107.5 -53t86.5 -58q99 -75 99 -209t-105 -223q-107 -88 -289 -88zM784 1503h11l63 -106l-2 -11l-397 -239h-10l-43 67v11z" />
    <glyph glyph-name="Scedilla" unicode="&#x15e;" horiz-adv-x="1064" 
d="M724 1221q-110 0 -194 -67t-84 -169q0 -70 53.5 -117t112.5 -73.5t100.5 -44t62 -27.5t58 -28.5t58 -34t49.5 -37t44 -45t39 -65t24 -108.5q1 -67 -13 -118q-42 -157 -157 -224.5t-230 -78.5l-39 -72l2 -4q86 4 137.5 -36t51.5 -118t-75 -134t-168 -56q-188 0 -255 102
v10l78 76h10q55 -80 152 -80q49 0 81.5 22.5t32.5 57.5q0 51 -62.5 60.5t-129.5 -21.5l-51 35l86 151q-131 10 -234.5 72t-159.5 160l2 10l99 84h10q121 -193 358 -192q145 0 233.5 74.5t88.5 168t-58.5 144.5t-114.5 77.5t-104 48.5t-88 40q-93 44 -164 105.5t-71 186.5
q0 184 138 291.5t327 108.5q133 0 235.5 -54.5t153.5 -146.5l-2 -10l-105 -86h-10q-95 162 -308 162z" />
    <glyph glyph-name="scedilla" unicode="&#x15f;" horiz-adv-x="851" 
d="M564 920q-75 0 -128 -40t-53 -99.5t41 -99.5t101.5 -67.5t76.5 -36t56 -30t58 -35.5q63 -51 90.5 -102.5t27.5 -118.5q0 -139 -94.5 -218.5t-231.5 -92.5l-37 -68l2 -4q86 4 137.5 -36t51.5 -118t-75 -134t-169 -56q-187 0 -254 102v10l78 76h10q55 -80 142 -80t115 48
q9 16 9 32q0 51 -62.5 60.5t-129.5 -21.5l-52 35l88 156q-92 14 -163.5 61t-110.5 119l2 10l103 76h10q27 -66 93 -105t162.5 -39t161 47.5t64.5 109.5t-33 101t-71.5 60.5t-134 63.5t-155 99.5t-59.5 169t91 202.5t268 92q111 0 193.5 -43t115.5 -113l-2 -10l-104 -76h-11
q-25 49 -84 81t-134 32z" />
    <glyph glyph-name="Scaron" unicode="&#x160;" horiz-adv-x="1064" 
d="M1032 1059q-96 162 -308 162q-110 0 -194 -67t-84 -169q0 -70 53.5 -117t111.5 -72.5t108.5 -48t71 -31.5t63.5 -33q44 -24 64 -41q72 -60 100.5 -118.5t28.5 -132.5q0 -174 -117 -287q-63 -61 -167.5 -95t-232.5 -34t-247 62.5t-179 171.5l2 10l99 84h10
q121 -193 358 -192q145 0 233.5 74.5t88.5 168t-58.5 144.5t-114.5 77.5t-104 48.5t-88 40q-93 44 -164 105.5t-71 186.5q0 184 138 291.5t327 108.5q133 0 235.5 -54.5t153.5 -146.5l-2 -10l-105 -86h-10zM1096 1729l39 -82l-2 -11l-353 -186h-16l-285 186l2 11l66 82h10
l240 -138l288 138h11z" />
    <glyph glyph-name="scaron" unicode="&#x161;" horiz-adv-x="851" 
d="M440 -25q-117 0 -211 50.5t-141 136.5l2 10l103 76h10q27 -66 93 -105t162.5 -39t161 47.5t64.5 109.5t-33 101t-71.5 60.5t-134 63.5t-155 99.5t-59.5 169t91 202.5t268 92q111 0 193.5 -43t115.5 -113l-2 -10l-104 -76h-11q-25 49 -84 81t-134 32t-128 -40t-53 -104
q0 -96 158 -170q74 -35 107.5 -53t86.5 -58q99 -75 99 -209t-105 -223q-107 -88 -289 -88zM901 1425l45 -77l-2 -11l-326 -190h-26l-260 190l2 11l76 77h8l213 -139l260 139h10z" />
    <glyph glyph-name="uni0162" unicode="&#x162;" horiz-adv-x="1019" 
d="M725 -246q0 -78 -75 -134t-168 -56q-188 0 -255 102v10l78 76h10q55 -80 152 -80q49 0 82 22.5t33 57.5q0 51 -62.5 60.5t-130.5 -21.5l-51 35l98 174l211 1200h-414l25 131h975l-25 -131h-413l-211 -1200l-49 -88l2 -4q86 4 137 -36t51 -118z" />
    <glyph glyph-name="uni0163" unicode="&#x163;" horiz-adv-x="694" 
d="M530 104q45 0 91 27l10 -6l26 -98l-8 -11q-59 -37 -127 -41l-35 -63l2 -4q86 4 137.5 -36t51.5 -118t-75 -134t-168 -56q-188 0 -255 102v10l78 76h10q55 -80 152 -80q49 0 82 22.5t33 57.5q0 51 -62.5 60.5t-130.5 -21.5l-51 35l96 172q-80 35 -113.5 119t-13.5 200
l102 584h-163l20 123h166l53 307l142 25l8 -6l-58 -326h306l-21 -123h-307l-102 -582q-16 -100 15.5 -157.5t108.5 -57.5z" />
    <glyph glyph-name="Tcaron" unicode="&#x164;" horiz-adv-x="1019" 
d="M436 0l211 1200h-414l25 131h975l-25 -131h-413l-211 -1200h-148zM1065 1729l39 -82l-2 -11l-352 -186h-17l-284 186l2 11l65 82h10l240 -138l289 138h10z" />
    <glyph glyph-name="tcaron" unicode="&#x165;" horiz-adv-x="694" 
d="M504 -25q-139 0 -206 94.5t-38 247.5l102 584h-163l20 123h166l53 307l142 25l8 -6l-58 -326h306l-21 -123h-307l-102 -582q-16 -100 15.5 -157.5t108.5 -57.5q45 0 91 27l10 -6l26 -98l-8 -11q-63 -41 -145 -41zM776 1499l12 10h138l8 -10l-170 -366l-14 -11h-78l-6 11z
" />
    <glyph glyph-name="Tbar" unicode="&#x166;" horiz-adv-x="1019" 
d="M1208 1200h-413l-84 -475h229l-20 -115h-230l-106 -610h-148l107 610h-191l21 115h190l84 475h-414l25 131h975z" />
    <glyph glyph-name="tbar" unicode="&#x167;" horiz-adv-x="694" 
d="M530 104q45 0 91 27l10 -6l26 -98l-8 -11q-63 -41 -145 -41q-139 0 -206 94.5t-38 247.5l31 175h-166l20 114h166l51 295h-163l20 123h166l53 307l142 25l8 -6l-58 -326h306l-21 -123h-307l-51 -295h256l-21 -114h-256l-30 -173q-16 -100 15.5 -157.5t108.5 -57.5z" />
    <glyph glyph-name="Utilde" unicode="&#x168;" horiz-adv-x="1380" 
d="M701 -25q-215 0 -337 112t-122 312q0 45 28 205l129 727h146l-127 -729q-27 -164 -25 -209q4 -185 157 -252q73 -31 175 -30q170 0 281 100q84 78 120 180q37 102 70 287l115 653h145l-117 -659q-41 -230 -91 -354t-171 -218q-160 -125 -376 -125zM782 1659q68 0 192 -37
t163 -37q88 0 139 74h10l41 -105l-2 -10q-82 -86 -211 -86q-61 0 -174 37q-112 37 -190 37t-129 -74h-11l-41 105l2 10q82 86 211 86z" />
    <glyph glyph-name="utilde" unicode="&#x169;" horiz-adv-x="1146" 
d="M1096 12q-22 -37 -95 -37q-71 0 -105 38t-32 102q-133 -139 -315 -139q-183 0 -277 102q-94 104 -77 270q6 57 22 150l94 526h146l-97 -543q-12 -63 -19 -159t56 -156q63 -62 185 -62t210 84q89 84 113 226l109 610h143l-149 -846q-12 -78 32 -78q17 1 35 15l10 -4z
M606 1360q61 0 173 -36t147 -36q76 0 118 72h9l30 -105l-2 -10q-76 -84 -176 -84q-57 0 -157 36t-168 36t-115 -72h-8l-29 105l2 10q72 84 176 84z" />
    <glyph glyph-name="Umacron" unicode="&#x16a;" horiz-adv-x="1380" 
d="M701 -25q-215 0 -337 112t-122 312q0 45 28 205l129 727h146l-127 -729q-27 -164 -25 -209q4 -185 157 -252q73 -31 175 -30q170 0 281 100q84 78 120 180q37 102 70 287l115 653h145l-117 -659q-41 -230 -91 -354t-171 -218q-160 -125 -376 -125zM682 1593h543l-21 -114
h-542z" />
    <glyph glyph-name="umacron" unicode="&#x16b;" horiz-adv-x="1146" 
d="M1096 12q-22 -37 -95 -37q-71 0 -105 38t-32 102q-133 -139 -315 -139q-183 0 -277 102q-94 104 -77 270q6 57 22 150l94 526h146l-97 -543q-12 -63 -19 -159t56 -156q63 -62 185 -62t210 84q89 84 113 226l109 610h143l-149 -846q-12 -78 32 -78q17 1 35 15l10 -4z
M1028 1307l-20 -123h-535l21 123h534z" />
    <glyph glyph-name="Uring" unicode="&#x16e;" horiz-adv-x="1380" 
d="M701 -25q-215 0 -337 112t-122 312q0 45 28 205l129 727h146l-127 -729q-27 -164 -25 -209q4 -185 157 -252q73 -31 175 -30q170 0 281 100q84 78 120 180q37 102 70 287l115 653h145l-117 -659q-41 -230 -91 -354t-171 -218q-160 -125 -376 -125zM864 1622q0 -40 24 -64
t60 -24q37 0 70 34t33 74t-24 64q-25 24 -61 25q-36 0 -69 -35t-33 -74zM1155 1651q1 -79 -69 -147t-150 -68t-128 48t-48 129t70 149t150 67q79 0 127 -49t48 -129z" />
    <glyph glyph-name="uring" unicode="&#x16f;" horiz-adv-x="1146" 
d="M1096 12q-22 -37 -95 -37q-71 0 -105 38t-32 102q-133 -139 -315 -139q-183 0 -277 102q-94 104 -77 270q6 57 22 150l94 526h146l-97 -543q-12 -63 -19 -159t56 -156q63 -62 185 -62t210 84q89 84 113 226l109 610h143l-149 -846q-12 -78 32 -78q17 1 35 15l10 -4z
M850 1334q0 36 -22 58t-59 23q-38 0 -67 -31q-28 -32 -28 -68t22 -59t59 -23q39 0 67 32t28 68zM740 1128q-83 0 -131 48t-48 130q0 80 70 148t153 68q84 0 130 -48t46 -129t-68 -149q-69 -68 -152 -68z" />
    <glyph glyph-name="Uhungarumlaut" unicode="&#x170;" horiz-adv-x="1380" 
d="M701 -25q-215 0 -337 112t-122 312q0 45 28 205l129 727h146l-127 -729q-27 -164 -25 -209q4 -185 157 -252q73 -31 175 -30q170 0 281 100q84 78 120 180q37 102 70 287l115 653h145l-117 -659q-41 -230 -91 -354t-171 -218q-160 -125 -376 -125zM1208 1767h148l8 -10
l-264 -307h-109l-2 10zM911 1767h148l6 -10l-262 -307h-107l-4 10z" />
    <glyph glyph-name="uhungarumlaut" unicode="&#x171;" horiz-adv-x="1146" 
d="M1096 12q-22 -37 -95 -37q-71 0 -105 38t-32 102q-133 -139 -315 -139q-183 0 -277 102q-94 104 -77 270q6 57 22 150l94 526h146l-97 -543q-12 -63 -19 -159t56 -156q63 -62 185 -62t210 84q89 84 113 226l109 610h143l-149 -846q-12 -78 32 -78q17 1 35 15l10 -4z
M788 1145l-6 10l201 348l14 10h138l6 -10l-260 -348l-13 -10h-80zM604 1145h-78l-6 10l201 348l14 10h135l7 -10l-261 -348z" />
    <glyph glyph-name="Uogonek" unicode="&#x172;" horiz-adv-x="1380" 
d="M494 -296q0 60 34 112t70 86q37 33 92 73q-285 4 -395 198q-53 95 -53 226q0 45 28 205l129 727h146l-127 -729q-27 -164 -25 -209q8 -285 339 -283q163 0 274 101q84 78 120 180q37 102 70 287l115 653h145l-117 -659q-41 -230 -91 -354t-158 -208t-226 -114
q-152 -114 -178 -142t-47 -54t-23 -64q0 -66 60 -70q47 -2 102 37h10l41 -68l-2 -10q-86 -65 -166 -65q-79 0 -123 42t-44 102z" />
    <glyph glyph-name="uogonek" unicode="&#x173;" horiz-adv-x="1146" 
d="M842 -255q0 -66 59 -73q47 -2 103 37h10l41 -67l-2 -11q-86 -65 -180 -65t-135 74q-19 36 -19 78q0 84 73 157q50 52 134 115q-63 35 -62 125q-133 -139 -315 -139q-183 0 -277 102q-94 104 -77 270q6 57 22 150l94 526h146l-97 -543q-12 -63 -19 -159t56 -156
q63 -62 185 -62t210 84q89 84 113 226l109 610h143l-149 -846q-12 -78 32 -78q17 1 35 15l10 -4l11 -99l-6 -10q-16 -12 -54 -40t-52 -41q-15 -13 -44 -37t-42 -38q-12 -14 -34 -41q-22 -26 -22 -60z" />
    <glyph glyph-name="Wcircumflex" unicode="&#x174;" horiz-adv-x="1873" 
d="M358 1356q143 0 166 -187l115 -895l496 1057h141l121 -1063l512 1063h149l4 -8l-673 -1323h-84l-140 1108l-532 -1108h-84l-174 1130q-7 52 -19 72q-23 40 -88 6l-10 4l-20 105l4 10q51 29 116 29zM1274 1729l287 -187l-2 -10l-68 -82h-10l-240 137l-289 -137h-10l-37 82
l2 10l350 187h17z" />
    <glyph glyph-name="wcircumflex" unicode="&#x175;" horiz-adv-x="1523" 
d="M289 1049q129 0 153 -160l97 -608l364 743h129l105 -752l387 752h139l4 -10l-547 -1014h-69l-117 815l-402 -815h-71l-146 791q-16 113 -39 125q-31 22 -69 -7l-10 4l-15 99q22 37 107 37zM739 1147h-8l-49 78l2 10l328 190h26l258 -190l-2 -10l-71 -78h-11l-213 139z
" />
    <glyph glyph-name="Ycircumflex" unicode="&#x176;" horiz-adv-x="1277" 
d="M356 1356q66 0 107 -43t86 -144l225 -495l529 657h159l4 -8l-635 -778l-96 -545h-147l94 532l-276 598q-28 56 -46 74t-44 18t-48 -14l-10 4l-20 105l4 10q48 29 114 29zM928 1729l286 -187l-2 -10l-67 -82h-10l-240 137l-289 -137h-10l-37 82l2 10l350 187h17z" />
    <glyph glyph-name="ycircumflex" unicode="&#x177;" horiz-adv-x="1073" 
d="M288 1049q72 0 108 -39t57 -121l159 -641l471 776h140l4 -10l-656 -1082q-81 -133 -157 -186t-168 -53t-137 35l-5 8l62 98l12 4q27 -24 77 -24t93 34t96 121l62 101l-182 721q-20 81 -34 107t-37 26q-22 0 -38 -15l-10 4l-15 99q25 37 98 37zM498 1147h-9l-49 78l2 10
l328 190h27l258 -190l-2 -10l-72 -78h-10l-213 139z" />
    <glyph glyph-name="Ydieresis" unicode="&#x178;" horiz-adv-x="1277" 
d="M356 1356q66 0 107 -43t86 -144l225 -495l529 657h159l4 -8l-635 -778l-96 -545h-147l94 532l-276 598q-28 56 -46 74t-44 18t-48 -14l-10 4l-20 105l4 10q48 29 114 29zM1102 1686q49 0 78 -30q28 -30 28 -78t-41 -89t-89 -41t-77 30t-29 78t41 88q40 42 89 42z
M714 1686q48 0 78 -30t30 -79t-42 -89q-41 -40 -89 -40t-78 30q-29 30 -29 78t41 88q41 42 89 42z" />
    <glyph glyph-name="Zacute" unicode="&#x179;" horiz-adv-x="1140" 
d="M1286 1323l-12 -74l-987 -1122h831l-22 -127h-1035l-6 8l13 74l985 1122h-746l23 127h950zM1018 1774h10l51 -111l-2 -10l-415 -203h-11l-33 70v10z" />
    <glyph glyph-name="zacute" unicode="&#x17a;" horiz-adv-x="911" 
d="M274 1024h723l7 -10l-15 -88l-721 -807h611l-21 -119h-788l-7 10l15 88l721 807h-545zM821 1503h10l64 -106l-2 -11l-397 -239h-11l-43 67v11z" />
    <glyph glyph-name="Zdotaccent" unicode="&#x17b;" horiz-adv-x="1140" 
d="M1286 1323l-12 -74l-987 -1122h831l-22 -127h-1035l-6 8l13 74l985 1122h-746l23 127h950zM965 1577q-1 -47 -43 -87t-88 -40t-76 30t-29 76q0 46 41 88t87 42t77 -31t31 -78z" />
    <glyph glyph-name="zdotaccent" unicode="&#x17c;" horiz-adv-x="911" 
d="M274 1024h723l7 -10l-15 -88l-721 -807h611l-21 -119h-788l-7 10l15 88l721 807h-545zM651 1145q-49 0 -78 30q-29 29 -29 77t41 89q40 41 89 41t79 -30q29 -30 29 -78q0 -49 -41 -89t-90 -40z" />
    <glyph glyph-name="Zcaron" unicode="&#x17d;" horiz-adv-x="1140" 
d="M1286 1323l-12 -74l-987 -1122h831l-22 -127h-1035l-6 8l13 74l985 1122h-746l23 127h950zM1149 1729l39 -82l-2 -11l-352 -186h-17l-285 186l3 11l65 82h10l240 -138l289 138h10z" />
    <glyph glyph-name="zcaron" unicode="&#x17e;" horiz-adv-x="911" 
d="M274 1024h723l7 -10l-15 -88l-721 -807h611l-21 -119h-788l-7 10l15 88l721 807h-545zM938 1425l45 -77l-2 -11l-326 -190h-26l-260 190l2 11l75 77h9l213 -139l260 139h10z" />
    <glyph glyph-name="uni01EA" unicode="&#x1ea;" horiz-adv-x="1525" 
d="M1413 743q0 203 -135 340t-332 138q-238 0 -409 -160q-190 -180 -191 -475q0 -203 135 -339t332 -136q238 -1 410 159q190 180 190 473zM971 1356q252 0 424 -172t172 -424q0 -362 -260 -590q-156 -137 -359 -178q-16 -12 -53 -41t-53 -41q-138 -103 -142 -178
q0 -64 60 -70q45 -4 102 37h10l41 -68l-2 -10q-86 -65 -181 -65t-133 72q-19 36 -19 84t36 102t72 88q37 33 92 73q-248 3 -417 175t-168 421q0 362 260 590q221 195 518 195z" />
    <glyph glyph-name="uni01EB" unicode="&#x1eb;" horiz-adv-x="1204" 
d="M1075 601q0 128 -90 222.5t-242.5 94.5t-273.5 -105q-160 -143 -160 -389q0 -129 90 -223.5t232 -94.5q180 0 299 113q145 130 145 382zM767 1049q206 0 332 -129t126 -324q0 -139 -56.5 -263t-156.5 -210t-230 -123q-157 -118 -180.5 -144t-45 -53t-21.5 -61
q0 -68 53 -71t108 36h11l41 -67l-3 -11q-86 -65 -179 -65q-92 0 -134 74q-20 34 -20 92q0 102 190 245q-195 2 -317.5 130t-122.5 323q0 145 62.5 273t170.5 217q166 131 372 131z" />
    <glyph glyph-name="AEacute" unicode="&#x1fc;" horiz-adv-x="1976" 
d="M1063 432l131 742l-666 -742h535zM2032 1200h-686l-82 -463h542l-22 -131h-543l-84 -475h686l-22 -131h-834l53 301h-628l-271 -301h-170l1180 1331h905zM1452 1450h-10l-33 70v10l399 244h11l51 -111l-2 -10z" />
    <glyph glyph-name="aeacute" unicode="&#x1fd;" horiz-adv-x="1875" 
d="M274 283.5q0 -86.5 62.5 -132t174.5 -45.5t221 76t134 205l15 82q-127 57 -289 57t-255 -93q-63 -63 -63 -149.5zM1194 825q-111 -86 -143 -233h710q12 150 -64.5 238t-233 87.5t-269.5 -92.5zM1036 469q-17 -363 326 -363q92 0 189.5 38t166.5 114h11l79 -82l-2 -10
q-86 -96 -211 -143.5t-258.5 -47.5t-245.5 63.5t-167 178.5q-63 -111 -196.5 -176.5t-275 -65.5t-235.5 74t-94 220.5t106 248.5q139 131 396 131q158 0 278 -57q20 106 21 133q0 96 -76 144.5t-193 48.5q-166 0 -311 -125h-10l-82 88l2 10q178 158 432 158q172 0 278 -79
q58 -44 83 -114q171 193 430 193q197 0 313.5 -122t116.5 -315q0 -73 -25 -143h-846zM958 1147h-10l-43 67v11l379 278h10l64 -106l-2 -11z" />
    <glyph glyph-name="Oslashacute" unicode="&#x1fe;" horiz-adv-x="1525" 
d="M1413 743q0 195 -125 330l-725 -893q113 -70 250 -69q238 0 410 159q190 180 190 473zM346 586q0 -190 121 -324l725 891q-111 68 -246 68q-238 0 -419 -170t-181 -465zM1581 1448v-16l-195 -240q180 -174 181 -432q0 -362 -260 -590q-221 -195 -519 -195q-176 0 -319 88
l-135 -165h-152v16l187 229q-176 172 -176 428q0 362 260 590q221 195 518 195q174 0 315 -88l148 180h147zM831 1450h-10l-33 70v10l400 244h10l51 -111l-2 -10z" />
    <glyph glyph-name="oslashacute" unicode="&#x1ff;" horiz-adv-x="1204" 
d="M1075 582q0 123 -63 211l-547 -643q74 -43 166 -44q180 0 299 113q145 136 145 363zM309 435q0 -118 68 -208l547 645q-76 45 -170 46q-164 0 -285 -105q-160 -143 -160 -378zM1225 596q0 -139 -56.5 -263t-156.5 -212q-172 -145 -404 -146q-131 0 -237 62l-111 -131
h-143l-6 8l168 199q-117 127 -117 315q0 145 62.5 273t170.5 217q166 131 381 131q135 0 242 -64l135 160h143l7 -8l-193 -228q115 -127 115 -313zM653 1147h-10l-43 67v11l379 278h10l64 -106l-2 -11z" />
    <glyph glyph-name="Scommaaccent" unicode="&#x218;" horiz-adv-x="1064" 
d="M492 -104l14 10h137l6 -10l-155 -336l-15 -11h-82l-6 11zM1032 1059q-96 162 -308 162q-110 0 -194 -67t-84 -169q0 -70 53.5 -117t111.5 -72.5t108.5 -48t71 -31.5t63.5 -33q44 -24 64 -41q72 -60 100.5 -118.5t28.5 -132.5q0 -174 -117 -287q-63 -61 -167.5 -95
t-232.5 -34t-247 62.5t-179 171.5l2 10l99 84h10q121 -193 358 -192q145 0 233.5 74.5t88.5 168t-58.5 144.5t-114.5 77.5t-104 48.5t-88 40q-93 44 -164 105.5t-71 186.5q0 184 138 291.5t327 108.5q133 0 235.5 -54.5t153.5 -146.5l-2 -10l-105 -86h-10z" />
    <glyph glyph-name="scommaaccent" unicode="&#x219;" horiz-adv-x="851" 
d="M354 -104l15 10h137l6 -10l-156 -336l-14 -11h-82l-6 11zM440 -25q-117 0 -211 50.5t-141 136.5l2 10l103 76h10q27 -66 93 -105t162.5 -39t161 47.5t64.5 109.5t-33 101t-71.5 60.5t-134 63.5t-155 99.5t-59.5 169t91 202.5t268 92q111 0 193.5 -43t115.5 -113l-2 -10
l-104 -76h-11q-25 49 -84 81t-134 32t-128 -40t-53 -104q0 -96 158 -170q74 -35 107.5 -53t86.5 -58q99 -75 99 -209t-105 -223q-107 -88 -289 -88z" />
    <glyph glyph-name="uni021A" unicode="&#x21a;" horiz-adv-x="1019" 
d="M418 -104l14 10h137l6 -10l-155 -336l-14 -11h-82l-7 11zM436 0l211 1200h-414l25 131h975l-25 -131h-413l-211 -1200h-148z" />
    <glyph glyph-name="uni021B" unicode="&#x21b;" horiz-adv-x="694" 
d="M371 -104l14 10h137l6 -10l-155 -336l-15 -11h-82l-6 11zM504 -25q-139 0 -206 94.5t-38 247.5l102 584h-163l20 123h166l53 307l142 25l8 -6l-58 -326h306l-21 -123h-307l-102 -582q-16 -100 15.5 -157.5t108.5 -57.5q45 0 91 27l10 -6l26 -98l-8 -11q-63 -41 -145 -41z
" />
    <glyph glyph-name="uni0237" unicode="&#x237;" horiz-adv-x="436" 
d="M328 1024h143l-174 -987q-25 -137 -88 -214t-176 -130h-13l-36 108l4 13q139 66 162 202z" />
    <glyph glyph-name="uni02BC" unicode="&#x2bc;" horiz-adv-x="370" 
d="M403 1491l15 10h137l6 -10l-164 -336l-14 -10h-78l-6 10z" />
    <glyph glyph-name="circumflex" unicode="&#x2c6;" horiz-adv-x="733" 
d="M647 1425l258 -190l-2 -10l-72 -78h-10l-213 139l-260 -139h-8l-49 78l2 10l328 190h26z" />
    <glyph glyph-name="caron" unicode="&#x2c7;" horiz-adv-x="751" 
d="M881 1425l45 -77l-2 -11l-326 -190h-27l-260 190l2 11l76 77h8l213 -139l260 139h11z" />
    <glyph glyph-name="breve" unicode="&#x2d8;" horiz-adv-x="712" 
d="M577 1260q62 0 114 43t77 114h121q-35 -123 -124 -197t-206 -73q-117 0 -187 75t-61 195h123q-2 -69 40 -113t103 -44z" />
    <glyph glyph-name="dotaccent" unicode="&#x2d9;" horiz-adv-x="309" 
d="M385 1382q49 0 79 -30t30 -78q0 -49 -42 -89t-90 -40q-50 0 -78 30q-28 29 -28 77t40 89t89 41z" />
    <glyph glyph-name="ring" unicode="&#x2da;" horiz-adv-x="544" 
d="M494 1235q38 0 67 31q29 32 29 68t-22 59t-60 23t-66 -32t-28 -68t21 -58t59 -23zM700 1345q0 -81 -68 -149t-152 -68q-83 0 -131 48t-48 130q0 80 70 148q71 68 153 68t129 -48t47 -129z" />
    <glyph glyph-name="ogonek" unicode="&#x2db;" horiz-adv-x="507" 
d="M180 -430q-80 0 -124 42t-44 98t27 110q27 53 123 130q25 19 74 56h147q-86 -64 -103 -79q-16 -15 -46 -39q-98 -80 -99 -144q0 -64 60 -68q47 -2 102 37h10l41 -67l-2 -11q-86 -65 -166 -65z" />
    <glyph glyph-name="tilde" unicode="&#x2dc;" horiz-adv-x="813" 
d="M479 1360q61 0 173 -36t147 -36q76 0 119 72h8l30 -105l-2 -10q-76 -84 -176 -84q-57 0 -157 36t-168 36t-115 -72h-8l-29 105l2 10q72 84 176 84z" />
    <glyph glyph-name="hungarumlaut" unicode="&#x2dd;" horiz-adv-x="712" 
d="M733 1503l15 10h137l6 -10l-260 -348l-13 -10h-79l-7 10zM471 1503l14 10h136l6 -10l-260 -348l-13 -10h-78l-6 10z" />
    <glyph glyph-name="uni0326" unicode="&#x326;" horiz-adv-x="0" 
d="M-260 -115l14 11h137l7 -11l-156 -336l-14 -10h-82l-6 10z" />
    <glyph glyph-name="Wgrave" unicode="&#x1e80;" horiz-adv-x="1873" 
d="M358 1356q143 0 166 -187l115 -895l496 1057h141l121 -1063l512 1063h149l4 -8l-673 -1323h-84l-140 1108l-532 -1108h-84l-174 1130q-7 52 -19 72q-23 40 -88 6l-10 4l-20 105l4 10q51 29 116 29zM1034 1774l400 -244v-10l-39 -70h-11l-415 203l-2 10l57 111h10z" />
    <glyph glyph-name="wgrave" unicode="&#x1e81;" horiz-adv-x="1523" 
d="M289 1049q129 0 153 -160l97 -608l364 743h129l105 -752l387 752h139l4 -10l-547 -1014h-69l-117 815l-402 -815h-71l-146 791q-16 113 -39 125q-31 22 -69 -7l-10 4l-15 99q22 37 107 37zM1174 1147l-398 239l-2 11l72 106h10l379 -278v-11l-51 -67h-10z" />
    <glyph glyph-name="Wacute" unicode="&#x1e82;" horiz-adv-x="1873" 
d="M358 1356q143 0 166 -187l115 -895l496 1057h141l121 -1063l512 1063h149l4 -8l-673 -1323h-84l-140 1108l-532 -1108h-84l-174 1130q-7 52 -19 72q-23 40 -88 6l-10 4l-20 105l4 10q51 29 116 29zM1415 1774h10l52 -111l-2 -10l-416 -203h-10l-33 70v10z" />
    <glyph glyph-name="wacute" unicode="&#x1e83;" horiz-adv-x="1523" 
d="M289 1049q129 0 153 -160l97 -608l364 743h129l105 -752l387 752h139l4 -10l-547 -1014h-69l-117 815l-402 -815h-71l-146 791q-16 113 -39 125q-31 22 -69 -7l-10 4l-15 99q22 37 107 37zM778 1147h-10l-43 67v11l379 278h10l64 -106l-2 -11z" />
    <glyph glyph-name="Wdieresis" unicode="&#x1e84;" horiz-adv-x="1873" 
d="M358 1356q143 0 166 -187l115 -895l496 1057h141l121 -1063l512 1063h149l4 -8l-673 -1323h-84l-140 1108l-532 -1108h-84l-174 1130q-7 52 -19 72q-23 40 -88 6l-10 4l-20 105l4 10q51 29 116 29zM1424 1448q-48 0 -76 30t-29 78q0 48 40 88q40 42 88 42t78 -30
q29 -30 29 -78t-41 -89t-89 -41zM1060 1686q48 0 78 -30t30 -79t-42 -89q-41 -40 -90 -40t-78 30q-28 30 -28 78t41 88q41 42 89 42z" />
    <glyph glyph-name="wdieresis" unicode="&#x1e85;" horiz-adv-x="1523" 
d="M289 1049q129 0 153 -160l97 -608l364 743h129l105 -752l387 752h139l4 -10l-547 -1014h-69l-117 815l-402 -815h-71l-146 791q-16 113 -39 125q-31 22 -69 -7l-10 4l-15 99q22 37 107 37zM1160 1145q-48 0 -78 30q-30 31 -30 79t42 88q41 40 89 40t78 -30q29 -30 29 -78
q0 -49 -41 -89t-89 -40zM810 1145q-48 0 -77 30q-29 29 -29 77t40 89t88 41t78 -30t30 -77q0 -48 -41 -89t-89 -41z" />
    <glyph glyph-name="uni1E9E" unicode="&#x1e9e;" horiz-adv-x="1236" 
d="M858 1356q313 0 399 -217l-325 -324q10 -2 24 -4q135 -27 204 -122t69 -213t-47 -218t-131 -170q-139 -113 -319 -113t-306 91l-2 10l82 96l10 2q88 -70 220 -70t225 82q117 98 116 252q1 112 -71 180t-211 68h-66l25 135l319 326q-80 74 -216 74t-224 -64
q-137 -98 -178 -344l-144 -813h-147l143 817q57 313 258 451q131 88 293 88z" />
    <glyph glyph-name="Ygrave" unicode="&#x1ef2;" horiz-adv-x="1277" 
d="M356 1356q66 0 107 -43t86 -144l225 -495l529 657h159l4 -8l-635 -778l-96 -545h-147l94 532l-276 598q-28 56 -46 74t-44 18t-48 -14l-10 4l-20 105l4 10q48 29 114 29zM688 1774l399 -244v-10l-38 -70h-11l-415 203l-2 10l57 111h10z" />
    <glyph glyph-name="ygrave" unicode="&#x1ef3;" horiz-adv-x="1073" 
d="M288 1049q72 0 108 -39t57 -121l159 -641l471 776h140l4 -10l-656 -1082q-81 -133 -157 -186t-168 -53t-137 35l-5 8l62 98l12 4q27 -24 77 -24t93 34t96 121l62 101l-182 721q-20 81 -34 107t-37 26q-22 0 -38 -15l-10 4l-15 99q25 37 98 37zM883 1147l-398 239l-2 11
l72 106h10l379 -278v-11l-51 -67h-10z" />
    <glyph glyph-name="uni1EF8" unicode="&#x1ef8;" horiz-adv-x="1277" 
d="M356 1356q66 0 107 -43t86 -144l225 -495l529 657h159l4 -8l-635 -778l-96 -545h-147l94 532l-276 598q-28 56 -46 74t-44 18t-48 -14l-10 4l-20 105l4 10q48 29 114 29zM733 1659q68 0 192 -37t162 -37q88 0 140 74h10l41 -105l-2 -10q-82 -86 -211 -86q-61 0 -174 37
t-191 37t-129 -74h-10l-41 105l2 10q82 86 211 86z" />
    <glyph glyph-name="uni1EF9" unicode="&#x1ef9;" horiz-adv-x="1073" 
d="M288 1049q72 0 108 -39t57 -121l159 -641l471 776h140l4 -10l-656 -1082q-81 -133 -157 -186t-168 -53t-137 35l-5 8l62 98l12 4q27 -24 77 -24t93 34t96 121l62 101l-182 721q-20 81 -34 107t-37 26q-22 0 -38 -15l-10 4l-15 99q25 37 98 37zM610 1360q61 0 173 -36
t147 -36q76 0 119 72h8l30 -105l-2 -10q-76 -84 -176 -84q-57 0 -157 36t-168 36t-115 -72h-8l-29 105l2 10q72 84 176 84z" />
    <glyph glyph-name="endash" unicode="&#x2013;" horiz-adv-x="1122" 
d="M246 674h868l-20 -119h-869z" />
    <glyph glyph-name="emdash" unicode="&#x2014;" horiz-adv-x="1417" 
d="M246 674h1163l-20 -119h-1164z" />
    <glyph glyph-name="quoteleft" unicode="&#x2018;" horiz-adv-x="434" 
d="M384 930q-50 0 -80 31t-30 85t35 112t189 239h14l63 -56l-2 -10q-92 -115 -112 -174q51 -27 51 -88t-39 -100t-89 -39z" />
    <glyph glyph-name="quoteright" unicode="&#x2019;" horiz-adv-x="430" 
d="M470 1405q50 0 80 -31t30 -86t-35 -112t-189 -238h-14l-63 55l2 11q92 115 112 174q-51 27 -51 88t39 100t89 39z" />
    <glyph glyph-name="quotesinglbase" unicode="&#x201a;" horiz-adv-x="452" 
d="M249 203q50 0 80 -31q29 -31 29 -86q0 -54 -34 -112t-189 -238h-14l-64 55l2 10q92 115 113 174q-51 27 -51 89t39 100q39 39 89 39z" />
    <glyph glyph-name="quotedblleft" unicode="&#x201c;" horiz-adv-x="755" 
d="M829 1069q0 -61 -39 -100t-89 -39q-49 0 -79 31t-30 85t35 112t188 239h14l64 -56l-2 -10q-92 -115 -113 -174q51 -27 51 -88zM382 930q-50 0 -80 31t-30 85t35 112t189 239h14l63 -56l-2 -10q-92 -115 -112 -174q51 -27 51 -88t-39 -100t-89 -39z" />
    <glyph glyph-name="quotedblright" unicode="&#x201d;" horiz-adv-x="751" 
d="M788 1405q50 0 80 -31t29 -86q0 -55 -35 -112t-188 -238h-15l-63 55l2 11q92 115 113 174q-51 27 -51 88t38 100q40 39 90 39zM468 1405q50 0 80 -31t30 -86t-35 -112t-189 -238h-14l-64 55l3 11q92 115 112 174q-51 27 -51 88t39 100t89 39z" />
    <glyph glyph-name="quotedblbase" unicode="&#x201e;" horiz-adv-x="774" 
d="M568 201q50 0 80 -31t30 -86q0 -54 -35 -112t-188 -238h-15l-63 55l2 10q92 115 113 174q-52 27 -52 89t39 100q39 39 89 39zM249 201q50 0 80 -31q29 -31 29 -86q0 -54 -34 -112t-189 -238h-14l-64 55l2 10q92 115 113 174q-51 27 -51 89t39 100q39 39 89 39z" />
    <glyph glyph-name="dagger" unicode="&#x2020;" horiz-adv-x="968" 
d="M1024 930l-23 -127h-301l-198 -1122h-148l199 1122h-303l22 127h303l74 422h148l-74 -422h301z" />
    <glyph glyph-name="daggerdbl" unicode="&#x2021;" horiz-adv-x="968" 
d="M1001 803h-301l-100 -574h301l-22 -127h-301l-76 -421h-148l76 421h-303l23 127h303l100 574h-303l22 127h303l74 422h148l-74 -422h301z" />
    <glyph glyph-name="bullet" unicode="&#x2022;" horiz-adv-x="737" 
d="M448 354q-90 0 -144 56t-54 147q0 92 77 170t167 78t144 -55q54 -56 54 -148t-77 -170t-167 -78z" />
    <glyph glyph-name="ellipsis" unicode="&#x2026;" horiz-adv-x="1142" 
d="M1059 106q0 -48 -40 -90t-89 -41q-49 0 -78 29t-29 78t41 90t89 41t77 -30q29 -29 29 -77zM578 -25q-48 0 -78 30t-29 79q0 49 41 89t90 40t78 -29q29 -30 29 -78t-41 -90q-42 -41 -90 -41zM224 -25q-48 0 -78 29t-30 78t42 90q41 41 89 41t78 -30q29 -31 29 -79t-41 -88
t-89 -41z" />
    <glyph glyph-name="perthousand" unicode="&#x2030;" horiz-adv-x="2357" 
d="M2036 94q88 0 144 96t56 213t-40 170t-99 54q-90 -1 -145 -97t-56 -243q0 -86 40 -140q41 -53 100 -53zM1298 94q88 0 145 96q56 96 56 213t-40 170t-99 54q-90 -1 -146 -97t-55 -243q0 -85 40 -139t99 -54zM2015 -25q-111 0 -179 82t-69 215q1 205 99 339t252 134
q112 1 180 -81t67 -215q0 -205 -98 -339t-252 -135zM1278 -25q-112 0 -180 82t-68 215q0 205 98 339t252 134q111 1 180 -81t68 -215q0 -205 -98 -339t-252 -135zM500 705q90 0 145 96t55 243q0 86 -40 140t-99 53q-90 0 -146 -96t-57 -244q0 -86 40 -139t102 -53z
M1597 1331v-16l-1208 -1315h-131l-2 16l1208 1315h133zM477 586q-109 0 -177 82t-69 215q1 205 99 339t252 134q110 0 178 -82t67 -215q0 -205 -97 -339t-253 -134z" />
    <glyph glyph-name="guilsinglleft" unicode="&#x2039;" horiz-adv-x="579" 
d="M625 907l-2 -8l-285 -287l184 -286l-2 -9l-86 -75h-10l-238 356l7 29l362 356h10z" />
    <glyph glyph-name="guilsinglright" unicode="&#x203a;" horiz-adv-x="579" 
d="M375 983l233 -356l-6 -29l-358 -356h-11l-63 75l2 9l285 286l-185 287l2 8l91 76h10z" />
    <glyph glyph-name="fraction" unicode="&#x2044;" horiz-adv-x="1107" 
d="M1346 1331v-16l-1207 -1315h-131l-2 16l1208 1315h132z" />
    <glyph glyph-name="Euro" unicode="&#x20ac;" horiz-adv-x="1509" 
d="M1104 1221q-182 0 -332 -101q-143 -100 -215 -266h629l-43 -119h-623q-18 -82 -16 -168h631l-41 -118h-572q39 -152 159 -245t280 -93q111 0 225 48t200 134h11l84 -84l-2 -10q-111 -109 -252.5 -166.5t-290.5 -57.5q-217 0 -376 132.5t-198 341.5h-206l43 118h151
q0 86 19 168h-162l43 119h153q88 231 293 371q201 131 427.5 131t382.5 -126q74 -60 122 -140l-2 -11l-113 -75h-10q-59 104 -164.5 160.5t-234.5 56.5z" />
    <glyph glyph-name="trademark" unicode="&#x2122;" horiz-adv-x="1427" 
d="M1386 1331h80l-47 -667h-108l28 411l-243 -411h-80l-98 405l-115 -405h-109l189 667h82l120 -508zM791 1331l-17 -86h-188l-103 -581h-114l102 581h-186l16 86h490z" />
    <glyph glyph-name="minus" unicode="&#x2212;" horiz-adv-x="1173" 
d="M260 725h907l-20 -119h-907z" />
    <glyph glyph-name="approxequal" unicode="&#x2248;" horiz-adv-x="1177" 
d="M880 403q-73 0 -212 36t-204 36q-127 0 -181 -72h-11l-49 93l2 10q31 29 55 46q71 50 171 50t254 -36t204 -36q104 0 166 72h10l50 -92l-2 -10q-35 -31 -55 -46t-73 -33q-52 -18 -125 -18zM937 727q-73 0 -212 36t-203 36q-123 0 -182 -72h-10l-49 92v10q33 31 55 47
t73 33t125 17t228 -36t205 -36q104 0 166 72h10l49 -92l-2 -11q-35 -31 -55 -46q-21 -15 -73 -33t-125 -17z" />
    <glyph glyph-name="notequal" unicode="&#x2260;" horiz-adv-x="1175" 
d="M256 143v17l213 282h-260l20 119h330l158 211h-451l23 119h518l182 242h137l-2 -17l-170 -225h244l-22 -119h-312l-157 -211h432l-21 -119h-502l-225 -299h-135z" />
    <glyph glyph-name="uniF8FF" unicode="&#xf8ff;" horiz-adv-x="2807" 
d="M1456 338q0 43 -39 43q-47 0 -47 -62q0 -21 8 -55q78 12 78 74zM1997 350v4l2 4v9q0 39 -37 39q-45 0 -45 -56h80zM2312 518q14 0 15 12q0 12 -15 13h-16v-25h16zM2279 557h33q31 0 31 -25q0 -18 -16 -24l16 -27h-19l-14 23h-14v-23h-17v76zM2308 457q25 0 43 18t19 43
q0 25 -18 43q-18 19 -44 19q-25 0 -43 -18t-18 -44q0 -25 18 -43t43 -18zM2232 518q0 32 23 54t53 22t54 -23q22 -23 22 -53t-23 -54q-23 -22 -53 -22t-54 22q-22 22 -22 54zM1704 346q0 260 252 260q106 0 168 -61t61 -172q0 -24 -10 -74h-246q13 -50 88 -50q76 1 107 32
v-150q-4 -4 -44 -18t-104 -15q-136 0 -204 67t-68 181zM1153 12q0 295 10 420l13 158h159l6 -60q8 -43 9 -94q29 170 159 170q74 0 117 -60t43 -182q1 -122 -67 -194t-193 -72q0 -14 2 -22l2 -64h-260zM829 590q-4 -78 -4 -216q0 -54 33 -55q31 0 31 54v18l-2 92
q-2 31 -2 107h217l6 -82q6 -76 6 -219t-74 -210t-233 -67q-87 0 -133 14t-58 29v170q45 -37 136 -38q92 -1 137 36q20 16 22 37q-30 -30 -116 -31q-190 0 -191 152v16h-92l4 -125q27 0 57 13v-152q-27 -33 -137 -35q-150 0 -149 131l4 168h-55v170l247 82l9 -59h337z
M2502 817q48 1 48 59t-48 58t-48 -58t48 -59zM776 817q49 1 49 59t-49 58q-43 0 -43 -58t43 -59zM2255 901q0 254 246 254q141 0 194 -68q53 -67 53 -183t-61 -182t-185 -65q-124 -1 -186 65t-61 179zM1712 670q0 342 23 477h155l6 -51q6 -92 7 -101l6 21q10 44 34 76
q47 63 127 63t114 -48t36 -159l4 -278h-229l4 192q0 51 -33 51t-33 -51l11 -192h-232zM698 657q-182 0 -182 230q0 133 64 201t206 67q238 0 238 -229v-256h-156l-18 118q-25 -131 -152 -131zM1051 965v170l237 73l8 -61h353q8 -105 12 -157t4 -320h-233q0 248 4 295h-117
l4 -129q-1 -4 19 -4q20 -1 38 8v-148q-2 -8 -30 -21t-97 -14q-160 0 -159 131l4 177h-47zM240 670q0 303 10 446l12 182h195q2 -46 11 -210t9 -418h-237zM1548 1174q-53 0 -87 36t-34 87q0 52 34 87t87 35t87 -35t34 -87q0 -51 -34 -87t-87 -36z" />
    <glyph glyph-name="H.ss01" horiz-adv-x="1447" 
d="M421 1356q75 0 107 -51t17 -131l-78 -437h768l106 594h148l-199 -1122q-23 -102 27 -100q23 0 41 14l8 -4l10 -105l-4 -10q-40 -29 -114 -29q-74 -1 -106 51t-17 132l77 448h-768l-106 -606h-148l199 1122q22 101 -27 101q-23 0 -40 -15l-9 4l-10 105l4 10q39 29 114 29z
" />
    <glyph glyph-name="K.ss01" horiz-adv-x="1202" 
d="M1108 -25q-139 0 -254 177l-289 448l-141 -129l-84 -471h-147l198 1122q22 101 -26 101q-23 0 -41 -15l-9 4l-10 105l4 10q39 29 114 29t106.5 -51.5t17.5 -130.5l-90 -510l727 667h176l2 -8l-680 -621l305 -473q43 -68 76 -94t67.5 -26t57.5 14l8 -4l21 -105l-5 -10
q-41 -29 -104 -29z" />
    <glyph glyph-name="N.ss01" horiz-adv-x="1439" 
d="M181 -25q-75 0 -103 29l-2 10l53 105l12 4q10 -14 31 -14q51 0 68 100l198 1122h78l649 -1040l185 1040h143l-236 -1331h-77l-652 1042l-153 -884q-14 -80 -66.5 -131.5t-127.5 -51.5z" />
    <glyph glyph-name="Nacute.ss01" horiz-adv-x="1439" 
d="M181 -25q-75 0 -103 29l-2 10l53 105l12 4q10 -14 31 -14q51 0 68 100l198 1122h78l649 -1040l185 1040h143l-236 -1331h-77l-652 1042l-153 -884q-14 -80 -66.5 -131.5t-127.5 -51.5zM1184 1774h10l51 -111l-2 -10l-416 -203h-10l-33 70v10z" />
    <glyph glyph-name="Ncaron.ss01" horiz-adv-x="1439" 
d="M181 -25q-75 0 -103 29l-2 10l53 105l12 4q10 -14 31 -14q51 0 68 100l198 1122h78l649 -1040l185 1040h143l-236 -1331h-77l-652 1042l-153 -884q-14 -80 -66.5 -131.5t-127.5 -51.5zM1315 1729l39 -82l-2 -11l-353 -186h-16l-285 186l2 11l66 82h10l240 -138l289 138
h10z" />
    <glyph glyph-name="Ncommaaccent.ss01" horiz-adv-x="1439" 
d="M674 -104l14 10h137l6 -10l-155 -336l-14 -11h-82l-7 11zM181 -25q-75 0 -103 29l-2 10l53 105l12 4q10 -14 31 -14q51 0 68 100l198 1122h78l649 -1040l185 1040h143l-236 -1331h-77l-652 1042l-153 -884q-14 -80 -66.5 -131.5t-127.5 -51.5z" />
    <glyph glyph-name="Eng.ss01" horiz-adv-x="1439" 
d="M823 -436q-98 0 -185 42t-130 118l2 10l100 71h11q57 -109 225 -108q102 0 172 61t90 181l25 139l-603 964l-155 -884q-15 -80 -67 -131t-127 -51t-103 28l-2 10l53 105l12 4q10 -14 31 -14q51 0 68 100l198 1122h78l649 -1040l185 1040h143l-248 -1413
q-29 -162 -149 -258t-273 -96z" />
    <glyph glyph-name="Ntilde.ss01" horiz-adv-x="1439" 
d="M181 -25q-75 0 -103 29l-2 10l53 105l12 4q10 -14 31 -14q51 0 68 100l198 1122h78l649 -1040l185 1040h143l-236 -1331h-77l-652 1042l-153 -884q-14 -80 -66.5 -131.5t-127.5 -51.5zM848 1659q68 0 191.5 -37t162.5 -37q88 0 139 74h11l41 -105l-2 -10
q-82 -86 -211 -86q-61 0 -174 37t-191 37t-129 -74h-10l-41 105l2 10q82 86 211 86z" />
    <glyph glyph-name="Q.ss01" horiz-adv-x="1525" 
d="M604 420q-112 0 -211 -51q77 -163 243 -227q134 -51 296 -19q-78 161 -147 229t-181 68zM631 555q156 0 254 -91t196 -290q78 37 142 96q190 180 190 473q0 203 -135 340t-332 138q-237 0 -409 -160q-190 -180 -191 -475q0 -49 8 -94q121 63 277 63zM1446 -332
q-268 0 -455 334q-98 -27 -203 -27q-252 0 -424 172t-171 424q0 362 260 590q221 195 518 195q252 0 424 -172t172 -424q0 -362 -260 -590q-76 -68 -168 -113q139 -254 319 -254q109 0 213 78l10 -4l43 -102l-4 -11q-133 -96 -274 -96z" />
    <glyph glyph-name="W.ss01" horiz-adv-x="1906" 
d="M238 1317q23 39 107 39q83 0 122 -44t61 -143l207 -915l256 442l-157 629l6 6h143l115 -516l297 516h153l2 -6l-385 -639l101 -442l536 925q54 99 110 143t126 44t102 -29l2 -10l-51 -105l-10 -4q-20 14 -45 15q-41 0 -97 -93l-669 -1130h-82l-129 565l-330 -565h-84
l-272 1130q-12 53 -27 73q-28 38 -78 5l-10 4z" />
    <glyph glyph-name="Wacute.ss01" horiz-adv-x="1906" 
d="M238 1317q23 39 107 39q83 0 122 -44t61 -143l207 -915l256 442l-157 629l6 6h143l115 -516l297 516h153l2 -6l-385 -639l101 -442l536 925q54 99 110 143t126 44t102 -29l2 -10l-51 -105l-10 -4q-20 14 -45 15q-41 0 -97 -93l-669 -1130h-82l-129 565l-330 -565h-84
l-272 1130q-12 53 -27 73q-28 38 -78 5l-10 4zM1362 1774h10l51 -111l-2 -10l-415 -203h-11l-32 70v10z" />
    <glyph glyph-name="Wcircumflex.ss01" horiz-adv-x="1906" 
d="M238 1317q23 39 107 39q83 0 122 -44t61 -143l207 -915l256 442l-157 629l6 6h143l115 -516l297 516h153l2 -6l-385 -639l101 -442l536 925q54 99 110 143t126 44t102 -29l2 -10l-51 -105l-10 -4q-20 14 -45 15q-41 0 -97 -93l-669 -1130h-82l-129 565l-330 -565h-84
l-272 1130q-12 53 -27 73q-28 38 -78 5l-10 4zM1221 1729l286 -187l-2 -10l-67 -82h-11l-239 137l-289 -137h-10l-37 82l2 10l350 187h17z" />
    <glyph glyph-name="Wdieresis.ss01" horiz-adv-x="1906" 
d="M238 1317q23 39 107 39q83 0 122 -44t61 -143l207 -915l256 442l-157 629l6 6h143l115 -516l297 516h153l2 -6l-385 -639l101 -442l536 925q54 99 110 143t126 44t102 -29l2 -10l-51 -105l-10 -4q-20 14 -45 15q-41 0 -97 -93l-669 -1130h-82l-129 565l-330 -565h-84
l-272 1130q-12 53 -27 73q-28 38 -78 5l-10 4zM1394 1686q48 0 78 -30t29 -78q0 -48 -41 -89t-89 -41t-77 30q-28 30 -28 78t40 88q40 42 88 42zM1007 1686q47 0 77 -30t30 -79t-41 -89t-90 -40t-78 30t-29 78t42 88q41 42 89 42z" />
    <glyph glyph-name="Wgrave.ss01" horiz-adv-x="1906" 
d="M238 1317q23 39 107 39q83 0 122 -44t61 -143l207 -915l256 442l-157 629l6 6h143l115 -516l297 516h153l2 -6l-385 -639l101 -442l536 925q54 99 110 143t126 44t102 -29l2 -10l-51 -105l-10 -4q-20 14 -45 15q-41 0 -97 -93l-669 -1130h-82l-129 565l-330 -565h-84
l-272 1130q-12 53 -27 73q-28 38 -78 5l-10 4zM981 1774l399 -244v-10l-39 -70h-10l-416 203l-2 10l58 111h10z" />
    <glyph glyph-name="N.ss02" horiz-adv-x="1445" 
d="M181 -25q-75 0 -103 29l-2 10l53 105l12 4q10 -14 31 -14q51 0 68 100l198 1122h78l649 -1040l156 883q14 80 65.5 131t125 51t102.5 -29l4 -10l-53 -105l-11 -4q-10 14 -34 15q-47 0 -64 -101l-199 -1122h-77l-650 1042l-155 -884q-14 -80 -66.5 -131.5t-127.5 -51.5z
" />
    <glyph glyph-name="Nacute.ss02" horiz-adv-x="1445" 
d="M181 -25q-75 0 -103 29l-2 10l53 105l12 4q10 -14 31 -14q51 0 68 100l198 1122h78l649 -1040l156 883q14 80 65.5 131t125 51t102.5 -29l4 -10l-53 -105l-11 -4q-10 14 -34 15q-47 0 -64 -101l-199 -1122h-77l-650 1042l-155 -884q-14 -80 -66.5 -131.5t-127.5 -51.5z
M821 1450h-10l-33 70v10l400 244h10l51 -111l-2 -10z" />
    <glyph glyph-name="Ncaron.ss02" horiz-adv-x="1445" 
d="M181 -25q-75 0 -103 29l-2 10l53 105l12 4q10 -14 31 -14q51 0 68 100l198 1122h78l649 -1040l156 883q14 80 65.5 131t125 51t102.5 -29l4 -10l-53 -105l-11 -4q-10 14 -34 15q-47 0 -64 -101l-199 -1122h-77l-650 1042l-155 -884q-14 -80 -66.5 -131.5t-127.5 -51.5z
M993 1450h-16l-285 186l2 11l66 82h10l240 -138l288 138h11l39 -82l-2 -11z" />
    <glyph glyph-name="Ncommaaccent.ss02" horiz-adv-x="1445" 
d="M682 -94h137l6 -10l-155 -336l-15 -11h-82l-6 11l101 336zM181 -25q-75 0 -103 29l-2 10l53 105l12 4q10 -14 31 -14q51 0 68 100l198 1122h78l649 -1040l156 883q14 80 65.5 131t125 51t102.5 -29l4 -10l-53 -105l-11 -4q-10 14 -34 15q-47 0 -64 -101l-199 -1122h-77
l-650 1042l-155 -884q-14 -80 -66.5 -131.5t-127.5 -51.5z" />
    <glyph glyph-name="Eng.ss02" horiz-adv-x="1447" 
d="M1505.5 1356q73.5 0 102.5 -29l4 -10l-53 -105l-11 -4q-10 14 -35 15q-47 0 -63 -101l-211 -1204q-29 -162 -149.5 -258t-268.5 -96q-102 0 -189 42t-130 118l2 10l100 71h10q59 -106 232 -106q96 0 165.5 61.5t90.5 178.5l24 137l-602 966l-155 -884
q-14 -80 -66.5 -131.5t-127.5 -51.5t-103 29l-2 10l53 105l12 4q10 -14 31 -14q51 0 67 100l199 1122h78l649 -1040l156 883q14 80 65.5 131t125 51z" />
    <glyph glyph-name="Ntilde.ss02" horiz-adv-x="1445" 
d="M181 -25q-75 0 -103 29l-2 10l53 105l12 4q10 -14 31 -14q51 0 68 100l198 1122h78l649 -1040l156 883q14 80 65.5 131t125 51t102.5 -29l4 -10l-53 -105l-11 -4q-10 14 -34 15q-47 0 -64 -101l-199 -1122h-77l-650 1042l-155 -884q-14 -80 -66.5 -131.5t-127.5 -51.5z
M842 1659q68 0 191.5 -37t162.5 -37q88 0 139 74h11l40 -105l-2 -10q-82 -86 -210 -86q-61 0 -174 37t-191 37t-129 -74h-10l-41 105l2 10q82 86 211 86z" />
    <glyph glyph-name="W.ss02" horiz-adv-x="1935" 
d="M358 1356q143 0 166 -187l115 -895l496 1057h141l121 -1063l434 901q90 186 237 187q66 0 99 -29l4 -10l-53 -105l-11 -4q-18 14 -46 14t-48 -18q-20 -20 -49 -76l-575 -1128h-84l-140 1108l-532 -1108h-84l-174 1130q-7 52 -19 72q-23 39 -88 6l-10 4l-20 105l4 10
q51 29 116 29z" />
    <glyph glyph-name="Wacute.ss02" horiz-adv-x="1935" 
d="M358 1356q143 0 166 -187l115 -895l496 1057h141l121 -1063l434 901q90 186 237 187q66 0 99 -29l4 -10l-53 -105l-11 -4q-18 14 -46 14t-48 -18q-20 -20 -49 -76l-575 -1128h-84l-140 1108l-532 -1108h-84l-174 1130q-7 52 -19 72q-23 39 -88 6l-10 4l-20 105l4 10
q51 29 116 29zM1413 1774h10l52 -111l-2 -10l-416 -203h-10l-33 70v10z" />
    <glyph glyph-name="Wcircumflex.ss02" horiz-adv-x="1935" 
d="M358 1356q143 0 166 -187l115 -895l496 1057h141l121 -1063l434 901q90 186 237 187q66 0 99 -29l4 -10l-53 -105l-11 -4q-18 14 -46 14t-48 -18q-20 -20 -49 -76l-575 -1128h-84l-140 1108l-532 -1108h-84l-174 1130q-7 52 -19 72q-23 39 -88 6l-10 4l-20 105l4 10
q51 29 116 29zM1272 1729l287 -187l-3 -10l-67 -82h-10l-240 137l-289 -137h-10l-37 82l2 10l350 187h17z" />
    <glyph glyph-name="Wdieresis.ss02" horiz-adv-x="1935" 
d="M358 1356q143 0 166 -187l115 -895l496 1057h141l121 -1063l434 901q90 186 237 187q66 0 99 -29l4 -10l-53 -105l-11 -4q-18 14 -46 14t-48 -18q-20 -20 -49 -76l-575 -1128h-84l-140 1108l-532 -1108h-84l-174 1130q-7 52 -19 72q-23 39 -88 6l-10 4l-20 105l4 10
q51 29 116 29zM1422 1448q-48 0 -76 30t-29 78q0 48 40 88q40 42 89 42t78 -30q28 -30 28 -78t-41 -89t-89 -41zM1058 1686q48 0 78 -30t30 -79t-42 -89q-41 -40 -89 -40t-78 30q-29 30 -29 78t41 88q41 42 89 42z" />
    <glyph glyph-name="Wgrave.ss02" horiz-adv-x="1935" 
d="M358 1356q143 0 166 -187l115 -895l496 1057h141l121 -1063l434 901q90 186 237 187q66 0 99 -29l4 -10l-53 -105l-11 -4q-18 14 -46 14t-48 -18q-20 -20 -49 -76l-575 -1128h-84l-140 1108l-532 -1108h-84l-174 1130q-7 52 -19 72q-23 39 -88 6l-10 4l-20 105l4 10
q51 29 116 29zM1032 1774l400 -244v-10l-39 -70h-11l-415 203l-2 10l57 111h10z" />
    <glyph glyph-name="i.loclTRK" horiz-adv-x="438" 
d="M147 0l181 1024h143l-180 -1024h-144zM426 1145q-49 0 -78 30q-29 29 -29 77t40 89q39 41 89 41t80 -30t29 -78q0 -49 -41 -89t-90 -40z" />
    <glyph glyph-name="a.ss01" horiz-adv-x="1249" 
d="M309 434q0 -126 87 -226q88 -100 230 -102q142 0 236 70t142 176t49 226q0 120 -44 195q-85 145 -278 145q-143 0 -258 -95q-164 -143 -164 -389zM160 414q0 346 248 524q150 111 346 111q106 -1 193 -49t143 -132l28 156h142l-146 -823q-18 -100 29 -101q17 1 35 15
l10 -4l10 -99q-22 -37 -94 -37q-71 0 -105 40q-33 40 -32 104q-154 -143 -360 -143q-207 0 -327 132t-120 306z" />
    <glyph glyph-name="aacute.ss01" horiz-adv-x="1249" 
d="M309 434q0 -126 87 -226q88 -100 230 -102q142 0 236 70t142 176t49 226q0 120 -44 195q-85 145 -278 145q-143 0 -258 -95q-164 -143 -164 -389zM160 414q0 346 248 524q150 111 346 111q106 -1 193 -49t143 -132l28 156h142l-146 -823q-18 -100 29 -101q17 1 35 15
l10 -4l10 -99q-22 -37 -94 -37q-71 0 -105 40q-33 40 -32 104q-154 -143 -360 -143q-207 0 -327 132t-120 306zM623 1147h-11l-43 67v11l379 278h10l64 -106l-2 -11z" />
    <glyph glyph-name="abreve.ss01" horiz-adv-x="1249" 
d="M309 434q0 -126 87 -226q88 -100 230 -102q142 0 236 70t142 176t49 226q0 120 -44 195q-85 145 -278 145q-143 0 -258 -95q-164 -143 -164 -389zM160 414q0 346 248 524q150 111 346 111q106 -1 193 -49t143 -132l28 156h142l-146 -823q-18 -100 29 -101q17 1 35 15
l10 -4l10 -99q-22 -37 -94 -37q-71 0 -105 40q-33 40 -32 104q-154 -143 -360 -143q-207 0 -327 132t-120 306zM776 1147q-116 0 -186 75t-62 195h123q-2 -69 39 -113q42 -44 104 -44t114 43t77 114h121q-35 -123 -124 -197t-206 -73z" />
    <glyph glyph-name="acircumflex.ss01" horiz-adv-x="1249" 
d="M309 434q0 -126 87 -226q88 -100 230 -102q142 0 236 70t142 176t49 226q0 120 -44 195q-85 145 -278 145q-143 0 -258 -95q-164 -143 -164 -389zM160 414q0 346 248 524q150 111 346 111q106 -1 193 -49t143 -132l28 156h142l-146 -823q-18 -100 29 -101q17 1 35 15
l10 -4l10 -99q-22 -37 -94 -37q-71 0 -105 40q-33 40 -32 104q-154 -143 -360 -143q-207 0 -327 132t-120 306zM532 1147h-8l-49 78l2 10l328 190h26l259 -190l-3 -10l-71 -78h-10l-213 139z" />
    <glyph glyph-name="adieresis.ss01" horiz-adv-x="1249" 
d="M309 434q0 -126 87 -226q88 -100 230 -102q142 0 236 70t142 176t49 226q0 120 -44 195q-85 145 -278 145q-143 0 -258 -95q-164 -143 -164 -389zM160 414q0 346 248 524q150 111 346 111q106 -1 193 -49t143 -132l28 156h142l-146 -823q-18 -100 29 -101q17 1 35 15
l10 -4l10 -99q-22 -37 -94 -37q-71 0 -105 40q-33 40 -32 104q-154 -143 -360 -143q-207 0 -327 132t-120 306zM953 1145q-47 0 -77 30q-30 31 -30 79t41 88t89 40t78 -30t30 -78q0 -49 -42 -89q-41 -40 -89 -40zM603 1145q-48 0 -77 30q-28 29 -28 77t40 89t88 41t78 -30
t29 -77q0 -48 -41 -89t-89 -41z" />
    <glyph glyph-name="agrave.ss01" horiz-adv-x="1249" 
d="M309 434q0 -126 87 -226q88 -100 230 -102q142 0 236 70t142 176t49 226q0 120 -44 195q-85 145 -278 145q-143 0 -258 -95q-164 -143 -164 -389zM160 414q0 346 248 524q150 111 346 111q106 -1 193 -49t143 -132l28 156h142l-146 -823q-18 -100 29 -101q17 1 35 15
l10 -4l10 -99q-22 -37 -94 -37q-71 0 -105 40q-33 40 -32 104q-154 -143 -360 -143q-207 0 -327 132t-120 306zM918 1147l-398 239l-2 11l72 106h10l379 -278v-11l-51 -67h-10z" />
    <glyph glyph-name="amacron.ss01" horiz-adv-x="1249" 
d="M309 434q0 -126 87 -226q88 -100 230 -102q142 0 236 70t142 176t49 226q0 120 -44 195q-85 145 -278 145q-143 0 -258 -95q-164 -143 -164 -389zM160 414q0 346 248 524q150 111 346 111q106 -1 193 -49t143 -132l28 156h142l-146 -823q-18 -100 29 -101q17 1 35 15
l10 -4l10 -99q-22 -37 -94 -37q-71 0 -105 40q-33 40 -32 104q-154 -143 -360 -143q-207 0 -327 132t-120 306zM1067 1307l-20 -123h-535l20 123h535z" />
    <glyph glyph-name="aogonek.ss01" horiz-adv-x="1249" 
d="M309 434q0 -126 87 -226q88 -100 230 -102q142 0 236 70t142 176t49 252q0 146 -91 230q-90 84 -232 84t-257 -95q-164 -143 -164 -389zM944 -265q0 -24 16 -42q16 -19 54 -21q37 -2 92 37h10l41 -67l-2 -11q-86 -65 -180 -65t-135 75q-40 75 -3 153t193 198
q-66 35 -63 127q-154 -143 -360 -143q-207 0 -327 132t-120 306q0 346 248 524q150 111 346 111q106 -1 193 -49t143 -132l28 156h142l-146 -823q-18 -100 29 -101q17 1 35 15l10 -4l10 -99l-6 -10q-82 -62 -102 -78t-48 -40q-29 -24 -42 -38t-28 -33q-16 -19 -22 -37
t-6 -41z" />
    <glyph glyph-name="aring.ss01" horiz-adv-x="1249" 
d="M309 434q0 -126 87 -226q88 -100 230 -102q142 0 236 70t142 176t49 226q0 120 -44 195q-85 145 -278 145q-143 0 -258 -95q-164 -143 -164 -389zM160 414q0 346 248 524q150 111 346 111q106 -1 193 -49t143 -132l28 156h142l-146 -823q-18 -100 29 -101q17 1 35 15
l10 -4l10 -99q-22 -37 -94 -37q-71 0 -105 40q-33 40 -32 104q-154 -143 -360 -143q-207 0 -327 132t-120 306zM889 1334q1 36 -21 58t-60 23q-38 0 -67 -31q-29 -32 -29 -68t22 -59t60 -23t66 32q29 32 29 68zM999 1345q-1 -81 -69 -149t-151 -68t-131 48t-48 130
q0 80 70 148t152 68t130 -48q47 -48 47 -129z" />
    <glyph glyph-name="atilde.ss01" horiz-adv-x="1249" 
d="M309 434q0 -126 87 -226q88 -100 230 -102q142 0 236 70t142 176t49 226q0 120 -44 195q-85 145 -278 145q-143 0 -258 -95q-164 -143 -164 -389zM160 414q0 346 248 524q150 111 346 111q106 -1 193 -49t143 -132l28 156h142l-146 -823q-18 -100 29 -101q17 1 35 15
l10 -4l10 -99q-22 -37 -94 -37q-71 0 -105 40q-33 40 -32 104q-154 -143 -360 -143q-207 0 -327 132t-120 306zM645 1360q61 0 173 -36t147 -36q76 0 118 72h9l30 -105l-2 -10q-76 -84 -176 -84q-56 0 -158 36t-168 36t-114 -72h-8l-29 105l2 10q72 84 176 84z" />
    <glyph glyph-name="e.ss01" 
d="M661 498q165 0 256 66.5t91 160.5t-70 143.5t-204 49t-249 -88.5q-113 -90 -153 -235q164 -96 329 -96zM669.5 375q-210.5 0 -360.5 82q-4 -164 83 -257.5t253 -93.5t318 127h10l74 -79l-3 -11q-190 -168 -413 -168t-347 123t-124 304.5t70.5 317.5t193.5 220
q158 109 342 109t287.5 -79t103.5 -210q0 -172 -138.5 -278.5t-349 -106.5z" />
    <glyph glyph-name="eacute.ss01" 
d="M661 498q165 0 256 66.5t91 160.5t-70 143.5t-204 49t-249 -88.5q-113 -90 -153 -235q164 -96 329 -96zM669.5 375q-210.5 0 -360.5 82q-4 -164 83 -257.5t253 -93.5t318 127h10l74 -79l-3 -11q-190 -168 -413 -168t-347 123t-124 304.5t70.5 317.5t193.5 220
q158 109 342 109t287.5 -79t103.5 -210q0 -172 -138.5 -278.5t-349 -106.5zM635 1147h-10l-43 67v11l379 278h10l63 -106l-2 -11z" />
    <glyph glyph-name="ecaron.ss01" 
d="M661 498q165 0 256 66.5t91 160.5t-70 143.5t-204 49t-249 -88.5q-113 -90 -153 -235q164 -96 329 -96zM669.5 375q-210.5 0 -360.5 82q-4 -164 83 -257.5t253 -93.5t318 127h10l74 -79l-3 -11q-190 -168 -413 -168t-347 123t-124 304.5t70.5 317.5t193.5 220
q158 109 342 109t287.5 -79t103.5 -210q0 -172 -138.5 -278.5t-349 -106.5zM795 1147h-27l-260 190l2 11l76 77h8l213 -139l260 139h10l45 -77l-2 -11z" />
    <glyph glyph-name="ecircumflex.ss01" 
d="M661 498q165 0 256 66.5t91 160.5t-70 143.5t-204 49t-249 -88.5q-113 -90 -153 -235q164 -96 329 -96zM669.5 375q-210.5 0 -360.5 82q-4 -164 83 -257.5t253 -93.5t318 127h10l74 -79l-3 -11q-190 -168 -413 -168t-347 123t-124 304.5t70.5 317.5t193.5 220
q158 109 342 109t287.5 -79t103.5 -210q0 -172 -138.5 -278.5t-349 -106.5zM545 1147h-8l-50 78l2 10l328 190h27l258 -190l-2 -10l-72 -78h-10l-213 139z" />
    <glyph glyph-name="edieresis.ss01" 
d="M661 498q165 0 256 66.5t91 160.5t-70 143.5t-204 49t-249 -88.5q-113 -90 -153 -235q164 -96 329 -96zM669.5 375q-210.5 0 -360.5 82q-4 -164 83 -257.5t253 -93.5t318 127h10l74 -79l-3 -11q-190 -168 -413 -168t-347 123t-124 304.5t70.5 317.5t193.5 220
q158 109 342 109t287.5 -79t103.5 -210q0 -172 -138.5 -278.5t-349 -106.5zM965 1145q-48 0 -77.5 29.5t-29.5 78.5t41 89t89 40t78 -29.5t30 -78.5t-41.5 -89t-89.5 -40zM615 1145q-48 0 -76.5 29.5t-28.5 77.5t40 89t88 41t77.5 -29.5t29.5 -77.5t-41 -89t-89 -41z" />
    <glyph glyph-name="edotaccent.ss01" 
d="M661 498q165 0 256 66.5t91 160.5t-70 143.5t-204 49t-249 -88.5q-113 -90 -153 -235q164 -96 329 -96zM669.5 375q-210.5 0 -360.5 82q-4 -164 83 -257.5t253 -93.5t318 127h10l74 -79l-3 -11q-190 -168 -413 -168t-347 123t-124 304.5t70.5 317.5t193.5 220
q158 109 342 109t287.5 -79t103.5 -210q0 -172 -138.5 -278.5t-349 -106.5zM790 1145q-49 0 -77.5 29.5t-28.5 77.5t40 89t89 41t79 -29.5t30 -78.5t-41.5 -89t-90.5 -40z" />
    <glyph glyph-name="egrave.ss01" 
d="M661 498q165 0 256 66.5t91 160.5t-70 143.5t-204 49t-249 -88.5q-113 -90 -153 -235q164 -96 329 -96zM669.5 375q-210.5 0 -360.5 82q-4 -164 83 -257.5t253 -93.5t318 127h10l74 -79l-3 -11q-190 -168 -413 -168t-347 123t-124 304.5t70.5 317.5t193.5 220
q158 109 342 109t287.5 -79t103.5 -210q0 -172 -138.5 -278.5t-349 -106.5zM930 1147l-398 239l-2 11l72 106h10l379 -278v-11l-51 -67h-10z" />
    <glyph glyph-name="emacron.ss01" 
d="M661 498q165 0 256 66.5t91 160.5t-70 143.5t-204 49t-249 -88.5q-113 -90 -153 -235q164 -96 329 -96zM669.5 375q-210.5 0 -360.5 82q-4 -164 83 -257.5t253 -93.5t318 127h10l74 -79l-3 -11q-190 -168 -413 -168t-347 123t-124 304.5t70.5 317.5t193.5 220
q158 109 342 109t287.5 -79t103.5 -210q0 -172 -138.5 -278.5t-349 -106.5zM1079 1307l-20 -123h-535l21 123h534z" />
    <glyph glyph-name="eogonek.ss01" 
d="M661 498q165 0 256 66.5t91 175t-122 155.5q-60 23 -138 23q-148 -1 -263 -89q-113 -90 -153 -235q164 -96 329 -96zM669.5 375q-210.5 0 -360.5 82q-4 -164 83 -257.5t253 -93.5q96 0 170 33t148 94h10l74 -79l-3 -11q-72 -63 -147 -102q-155 -116 -180 -143t-46.5 -55
t-21.5 -60q0 -67 60 -72q45 -2 102 37h10l41 -67l-2 -11q-88 -66 -180 -66t-134 74q-20 34 -20 80q0 102 140 219q-23 -2 -45 -2q-213 0 -337 123t-124 304.5t70.5 317.5t193.5 220q158 109 342 109t287.5 -79t103.5 -210q0 -172 -138.5 -278.5t-349 -106.5z" />
    <glyph glyph-name="f.ss01" horiz-adv-x="661" 
d="M746 1290q-76 0 -138 -56t-84 -169l-8 -41h307l-20 -123h-307l-213 -1208h-144l213 1208h-166l21 123h166l8 41q31 172 142 262q112 90 235 90t184 -49l2 -10l-63 -98l-11 -5q-48 35 -124 35z" />
    <glyph glyph-name="i.ss01" horiz-adv-x="438" 
d="M147 0l181 1024h143l-180 -1024h-144zM426 1145q-49 0 -78 30q-29 29 -29 77t40 89q39 41 89 41t80 -30t29 -78q0 -49 -41 -89t-90 -40z" />
    <glyph glyph-name="dotlessi.ss01" horiz-adv-x="438" 
d="M147 0l181 1024h143l-180 -1024h-144z" />
    <glyph glyph-name="iacute.ss01" horiz-adv-x="438" 
d="M147 0l181 1024h143l-180 -1024h-144zM668 1503h10l63 -106l-2 -11l-397 -239h-10l-43 67v11z" />
    <glyph glyph-name="icircumflex.ss01" horiz-adv-x="438" 
d="M147 0l181 1024h143l-180 -1024h-144zM471 1425l234 -190l-3 -10l-65 -78h-8l-193 139l-233 -139h-8l-43 78l2 10l295 190h22z" />
    <glyph glyph-name="idieresis.ss01" horiz-adv-x="438" 
d="M147 0l181 1024h143l-180 -1024h-144zM601 1145q-48 0 -78 30q-29 31 -29 79t41 88t89 40t78 -30t29 -78q0 -49 -41 -89t-89 -40zM251 1145q-48 0 -77 30q-29 29 -29 77t40 89q41 41 89 41t78 -30t29 -77q0 -48 -41 -89t-89 -41z" />
    <glyph glyph-name="igrave.ss01" horiz-adv-x="438" 
d="M147 0l181 1024h143l-180 -1024h-144zM145 1503l379 -278v-11l-51 -67h-10l-397 239l-3 11l72 106h10z" />
    <glyph glyph-name="ij.ss01" horiz-adv-x="874" 
d="M766 1024h143l-174 -987q-25 -137 -88 -214t-176 -130h-12l-37 108l4 13q139 66 162 202zM147 0l181 1024h143l-180 -1024h-144zM864 1145q-49 0 -78 30q-28 29 -28 77t40 89t89 41t79 -30t30 -78q0 -49 -42 -89q-41 -40 -90 -40zM426 1145q-49 0 -78 30q-29 29 -29 77
t40 89q39 41 89 41t80 -30t29 -78q0 -49 -41 -89t-90 -40z" />
    <glyph glyph-name="imacron.ss01" horiz-adv-x="438" 
d="M147 0l181 1024h143l-180 -1024h-144zM203 1307h481l-18 -123h-482z" />
    <glyph glyph-name="iogonek.ss01" horiz-adv-x="438" 
d="M205 -293h10l39 -67v-11q-86 -65 -166 -65t-124 42t-44 98q0 100 74 169t153 127l181 1024h143l-180 -1024q-81 -62 -101 -78t-49 -40q-98 -81 -98 -145q0 -63 53 -66t109 36zM449 1382q49 0 79 -30t29 -78q0 -49 -41 -89t-90 -40t-78 30q-29 29 -29 77t40 89
q41 41 90 41z" />
    <glyph glyph-name="itilde.ss01" horiz-adv-x="438" 
d="M147 0l181 1024h143l-180 -1024h-144zM303 1360q57 0 157 -36t132 -36q68 0 106 72h9l26 -105l-2 -10q-68 -84 -158 -84q-51 0 -142 36t-151 36t-104 -72h-6l-27 105l2 10q66 84 158 84z" />
    <glyph glyph-name="k.ss01" horiz-adv-x="1011" 
d="M328 1280q-16 0 -35 -14l-10 4l-11 98q26 37 103 37q79 0 113 -49t20 -139l-125 -697l561 504h156l4 -8l-488 -436l263 -422q35 -57 82 -58q16 1 45 15l12 -4l8 -99q-30 -37 -102 -37q-102 0 -174 109l-244 395l-154 -139l-61 -340h-144l209 1180q18 100 -28 100z" />
    <glyph glyph-name="kcommaaccent.ss01" horiz-adv-x="1048" 
d="M492 -80h137l6 -10l-156 -336l-14 -10h-82l-6 10l100 336zM328 1280q-16 0 -35 -14l-10 4l-11 98q26 37 103 37q79 0 113 -49t20 -139l-125 -697l561 504h156l4 -8l-488 -436l263 -422q35 -57 82 -58q16 1 45 15l12 -4l8 -99q-30 -37 -102 -37q-102 0 -174 109l-244 395
l-154 -139l-61 -340h-144l209 1180q18 100 -28 100z" />
    <glyph glyph-name="v.ss01" horiz-adv-x="1083" 
d="M293 1049q121 0 153 -160l132 -658l374 658q88 160 203 160q61 0 94 -27l4 -10l-45 -99l-12 -4q-46 37 -89 -15q-24 -28 -67 -103l-454 -791h-90l-177 791q-16 75 -28 103t-36 30t-48 -15l-8 4l-13 99q33 37 107 37z" />
    <glyph glyph-name="y.ss01" horiz-adv-x="1132" 
d="M316 1049q81 1 113 -51t17 -132l-57 -329q-18 -99 -22 -153q-3 -54 23 -108q57 -118 222 -116q102 0 181 59q111 82 139 244l98 561h144l-152 -858q-38 -221 -188 -347t-363 -126q-129 0 -234 49t-167 139v10l92 84h10q47 -73 129 -113t188 -40q162 0 265 92
q102 92 127 244q-133 -127 -311 -127t-271 103q-94 103 -78 269q0 6 27 150l49 270q22 101 -29 101q-16 0 -35 -15l-10 4l-10 99q22 37 103 37z" />
    <glyph glyph-name="yacute.ss01" horiz-adv-x="1132" 
d="M316 1049q81 1 113 -51t17 -132l-57 -329q-18 -99 -22 -153q-3 -54 23 -108q57 -118 222 -116q102 0 181 59q111 82 139 244l98 561h144l-152 -858q-38 -221 -188 -347t-363 -126q-129 0 -234 49t-167 139v10l92 84h10q47 -73 129 -113t188 -40q162 0 265 92
q102 92 127 244q-133 -127 -311 -127t-271 103q-94 103 -78 269q0 6 27 150l49 270q22 101 -29 101q-16 0 -35 -15l-10 4l-10 99q22 37 103 37zM586 1147h-11l-43 67v11l379 278h11l63 -106l-2 -11z" />
    <glyph glyph-name="ycircumflex.ss01" horiz-adv-x="1132" 
d="M316 1049q81 1 113 -51t17 -132l-57 -329q-18 -99 -22 -153q-3 -54 23 -108q57 -118 222 -116q102 0 181 59q111 82 139 244l98 561h144l-152 -858q-38 -221 -188 -347t-363 -126q-129 0 -234 49t-167 139v10l92 84h10q47 -73 129 -113t188 -40q162 0 265 92
q102 92 127 244q-133 -127 -311 -127t-271 103q-94 103 -78 269q0 6 27 150l49 270q22 101 -29 101q-16 0 -35 -15l-10 4l-10 99q22 37 103 37zM496 1147h-9l-49 78l2 10l328 190h27l258 -190l-2 -10l-72 -78h-10l-213 139z" />
    <glyph glyph-name="ydieresis.ss01" horiz-adv-x="1132" 
d="M316 1049q81 1 113 -51t17 -132l-57 -329q-18 -99 -22 -153q-3 -54 23 -108q57 -118 222 -116q102 0 181 59q111 82 139 244l98 561h144l-152 -858q-38 -221 -188 -347t-363 -126q-129 0 -234 49t-167 139v10l92 84h10q47 -73 129 -113t188 -40q162 0 265 92
q102 92 127 244q-133 -127 -311 -127t-271 103q-94 103 -78 269q0 6 27 150l49 270q22 101 -29 101q-16 0 -35 -15l-10 4l-10 99q22 37 103 37zM939 1382q48 0 78 -30t30 -78q1 -49 -41 -89t-90 -40t-78 30q-30 31 -29 79q0 48 41 88t89 40zM566 1145q-48 0 -77 30
q-29 29 -29 77t41 89q40 41 88 41t78 -30q29 -30 29 -77q0 -48 -41 -89t-89 -41z" />
    <glyph glyph-name="ygrave.ss01" horiz-adv-x="1132" 
d="M316 1049q81 1 113 -51t17 -132l-57 -329q-18 -99 -22 -153q-3 -54 23 -108q57 -118 222 -116q102 0 181 59q111 82 139 244l98 561h144l-152 -858q-38 -221 -188 -347t-363 -126q-129 0 -234 49t-167 139v10l92 84h10q47 -73 129 -113t188 -40q162 0 265 92
q102 92 127 244q-133 -127 -311 -127t-271 103q-94 103 -78 269q0 6 27 150l49 270q22 101 -29 101q-16 0 -35 -15l-10 4l-10 99q22 37 103 37zM881 1147l-398 239l-2 11l72 106h10l379 -278v-11l-51 -67h-10z" />
    <glyph glyph-name="uni1EF9.ss01" horiz-adv-x="1132" 
d="M316 1049q81 1 113 -51t17 -132l-57 -329q-18 -99 -22 -153q-3 -54 23 -108q57 -118 222 -116q102 0 181 59q111 82 139 244l98 561h144l-152 -858q-38 -221 -188 -347t-363 -126q-129 0 -234 49t-167 139v10l92 84h10q47 -73 129 -113t188 -40q162 0 265 92
q102 92 127 244q-133 -127 -311 -127t-271 103q-94 103 -78 269q0 6 27 150l49 270q22 101 -29 101q-16 0 -35 -15l-10 4l-10 99q22 37 103 37zM608 1360q61 0 173 -36t147 -36q76 0 119 72h8l30 -105l-2 -10q-76 -84 -176 -84q-55 0 -156 36t-169 36t-115 -72h-8l-29 105
l2 10q72 84 176 84z" />
    <glyph glyph-name="f_t" horiz-adv-x="1232" 
d="M1042 -25q-138 1 -204 95t-39 247l102 584h-391l-160 -901h-143l160 901h-168l20 123h168l8 41q31 174 133 263t222 89q86 0 149 -35l2 -10l-70 -98l-10 -4q-41 20 -99 20t-110 -56t-73 -169l-9 -41h394l53 307l141 25l8 -6l-57 -326h305l-20 -123h-307l-103 -582
q-16 -100 16 -157t109 -58q45 0 90 27l10 -6l27 -98l-8 -11q-63 -41 -146 -41z" />
    <glyph glyph-name="ordfeminine.ss01" horiz-adv-x="899" 
d="M545 793q143 -1 213 125q35 62 35 148q1 85 -49 134t-122 49t-128 -38t-90 -99q-32 -61 -32 -136t48 -129q47 -54 125 -54zM526 688q-124 0 -196 79t-72 198q0 161 108 275t269 114q123 0 194 -90l13 75h114l-84 -479q-12 -76 21 -76q14 0 25 11l8 -4l10 -74
q-21 -28 -76 -28q-100 -1 -106 89q-104 -90 -228 -90z" />
    <glyph glyph-name="ampersand.ss01" horiz-adv-x="1236" 
d="M1071 1055q-103 166 -307 166q-108 0 -186 -66t-78 -159t59 -141t164 -48h76l-23 -131h-80q-162 0 -278 -95t-117 -227q0 -102 91 -175t229 -73t242 82q103 82 123 194t-40 193l23 132h348l-23 -132h-170q29 -96 17 -184q-35 -186 -185 -301t-354 -115q-204 -1 -330 99
q-127 100 -127 250t82 261q82 112 222 169q-100 84 -101 215q0 163 134 275t329 112q123 0 224 -56t151 -149l-2 -10l-103 -86h-10z" />
    <glyph glyph-name="uni0326.001" horiz-adv-x="0" 
d="M12 1401l13 10h137l8 -10l-170 -367l-14 -10h-78l-6 10z" />
    <glyph glyph-name="acute.case" horiz-adv-x="591" 
d="M688 1470h10l52 -110l-2 -10l-416 -203h-10l-33 70v10z" />
    <glyph glyph-name="breve.case" horiz-adv-x="714" 
d="M580 1257q137 0 190 158h121q-33 -121 -126 -195t-206 -75q-113 0 -183 75t-63 195h123q-2 -74 36 -116t108 -42z" />
    <glyph glyph-name="caron.case" horiz-adv-x="735" 
d="M889 1425l39 -82l-2 -10l-353 -186h-16l-285 186l2 10l66 82h10l240 -137l289 137h10z" />
    <glyph glyph-name="circumflex.case" horiz-adv-x="733" 
d="M614 1425l287 -186l-2 -10l-68 -82h-10l-239 137l-289 -137h-10l-37 82l2 10l350 186h16z" />
    <glyph glyph-name="dieresis.case" horiz-adv-x="774" 
d="M811 1382q49 0 78 -30t29 -77q0 -48 -41 -89t-89 -41t-78 30q-28 29 -28 77t40 89t89 41zM423 1382q48 0 78 -30q29 -30 29 -78q0 -49 -41 -89t-89 -40t-78 30q-30 29 -29 77q0 48 41 89t89 41z" />
    <glyph glyph-name="dotaccent.case" horiz-adv-x="387" 
d="M400 1147q-46 0 -76 30q-30 31 -29 77q0 46 41 87t87 41t77 -30q30 -30 30 -78q0 -47 -42 -87t-88 -40z" />
    <glyph glyph-name="grave.case" horiz-adv-x="591" 
d="M307 1470l400 -243v-10l-39 -70h-11l-415 203l-2 10l57 110h10z" />
    <glyph glyph-name="hungarumlaut.case" horiz-adv-x="776" 
d="M791 1464h147l8 -10l-264 -307h-109l-2 10zM494 1464h147l6 -10l-262 -307h-106l-5 10z" />
    <glyph glyph-name="macron.case" horiz-adv-x="696" 
d="M305 1290h543l-21 -114h-542z" />
    <glyph glyph-name="ring.case" horiz-adv-x="460" 
d="M453 1231q37 0 69 34q32 33 33 73q0 40 -24 65q-25 25 -61 25t-69 -34t-33 -74t24 -65q24 -24 61 -24zM440 1133q-80 0 -128 48q-48 49 -48 129t71 148t150 68t127 -49t47 -129q0 -80 -69 -148q-70 -67 -150 -67z" />
    <glyph glyph-name="tilde.case" horiz-adv-x="894" 
d="M504 1356q68 0 192 -37t162 -37q88 0 139 74h11l41 -105l-2 -10q-82 -86 -211 -86q-61 0 -174 37t-191 37t-129 -74h-10l-41 105l2 10q82 86 211 86z" />
    <glyph glyph-name="IJacute" horiz-adv-x="1445" 
d="M891 -25q-248 0 -348 205l2 13l112 83h11q74 -166 243 -165q102 0 184 75q81 76 105 209l141 805h-419l24 131h567l-165 -936q-35 -203 -166 -311t-291 -109zM180 0l236 1331h147l-235 -1331h-148zM1098 1450l-33 70l2 10l397 244h11l53 -111l-2 -10l-418 -203h-10z
M432 1450l-33 70l2 10l398 244h10l51 -111v-10l-418 -203h-10z" />
    <glyph glyph-name="ijacute" horiz-adv-x="946" 
d="M528 -307l-36 108l2 9q143 68 165 206l179 1008h143l-174 -987q-25 -137 -91 -214t-179 -130h-9zM356 100q16 0 35 15l10 -4l11 -99q-22 -37 -101 -37q-77 1 -113 51t-22 132l154 866h143l-149 -846q-12 -78 32 -78zM856 1147l-43 67l2 11l377 278h10l64 -106l-2 -11
l-398 -239h-10zM348 1147l-43 67l2 11l377 278h10l64 -106l-2 -11l-398 -239h-10z" />
    <glyph glyph-name="slashlong.case" horiz-adv-x="1187" 
d="M84 -100v16l1251 1534h148v-16l-1247 -1534h-152z" />
    <glyph glyph-name="slashlong" horiz-adv-x="1054" 
d="M57 59l-6 9l1043 1230h143l6 -8l-1042 -1231h-144z" />
    <glyph glyph-name="slashshort.case" horiz-adv-x="731" 
d="M844 760l-709 -332l-10 6l20 115l711 332l8 -7z" />
    <glyph glyph-name="slashshort" horiz-adv-x="667" 
d="M168 440h-12l20 115l547 266h12l-20 -114z" />
    <glyph glyph-name="strokelong" horiz-adv-x="1486" 
d="M299 1073h1237l-18 -115h-1237z" />
    <glyph glyph-name="strokeshort" horiz-adv-x="686" 
d="M166 604l20 115h568l-21 -115h-567z" />
    <glyph glyph-name="ijacute.ss01" horiz-adv-x="946" 
d="M528 -307l-36 108l2 9q143 68 165 206l179 1008h143l-174 -987q-25 -137 -91 -214t-179 -130h-9zM150 0l180 1024h143l-180 -1024h-143zM856 1147l-43 67l2 11l377 278h10l64 -106l-2 -11l-398 -239h-10zM348 1147l-43 67l2 11l377 278h10l64 -106l-2 -11l-398 -239h-10z
" />
    </font>
</defs>
</svg>
