<?xml version="1.0" encoding="UTF-8"?>
<svg xmlns="http://www.w3.org/2000/svg" xmlns:xlink="http://www.w3.org/1999/xlink" version="1.2" >
<font id="Clarendon URW Narrow Light Oblique">
<font-face  font-family="Clarendon URW Narrow" units-per-em="1000" ascent="668" descent="-332" font-style="italic" font-weight="300" font-stretch="semi-condensed" cap-height="668" x-height="469" underline-position="-70" underline-thickness="56" />
<missing-glyph  horiz-adv-x="250" d="" />
<glyph glyph-name="NULL" d="" />
<glyph glyph-name="CR" unicode="&#xd;" horiz-adv-x="250" d="" />
<glyph glyph-name="space" unicode="&#x20;" horiz-adv-x="250" d="" />
<glyph glyph-name="exclam" unicode="&#x21;" horiz-adv-x="283" d="M126 90 C91 90 59 60 59 27 C59 1 76 -17 101 -17 C135 -17 168 14 168 47 C168 72 150 90 126 90 L126 90 Z M161 181 C200 341 210 375 250 497 C288 620 288 621 288 642 C288 669 273 687 250 687 C223 687 200 668 188 636 C182 617 182 617 168 497 C156 374 151 339 122 181 L161 181 Z " />
<glyph glyph-name="quotedbl" unicode="&#x22;" horiz-adv-x="310" d="M128 399 L198 667 L114 667 L70 399 L128 399 Z M268 399 L338 667 L255 667 L210 399 L268 399 Z " />
<glyph glyph-name="numbersign" unicode="&#x23;" horiz-adv-x="570" d="M506 274 L403 274 L450 405 L553 405 L577 474 L474 474 L544 667 L469 667 L400 474 L274 474 L344 667 L270 667 L200 474 L95 474 L72 405 L177 405 L129 274 L24 274 L0 205 L105 205 L31 0 L104 0 L178 205 L303 205 L228 0 L305 0 L378 205 L482 205 L506 274 Z M375 405 L328 274 L203 274 L250 405 L375 405 Z " />
<glyph glyph-name="dollar" unicode="&#x24;" horiz-adv-x="580" d="M161 -104 L212 -104 L234 -2 C339 11 388 28 435 68 C476 104 501 156 501 205 C501 242 485 273 457 294 C425 317 395 328 308 349 L353 559 C427 556 463 540 476 505 C437 498 418 477 418 440 C418 416 434 402 462 402 C505 402 538 438 538 485 C538 515 522 546 495 566 C465 590 433 599 363 606 L379 681 L328 681 L312 606 C220 593 177 576 133 536 C93 501 72 457 72 412 C72 378 85 348 108 328 C135 304 165 291 241 272 L194 48 C97 60 69 73 53 115 C81 118 93 123 106 135 C118 148 126 167 126 184 C126 209 108 225 78 225 C33 225 -4 181 -4 128 C-4 97 9 68 31 47 C59 21 95 10 183 -2 L161 -104 Z M260 361 C181 379 158 397 158 439 C158 465 169 491 187 511 C211 537 240 550 302 561 L260 361 Z M290 263 C344 251 367 243 386 229 C404 216 414 197 414 176 C414 145 398 113 372 90 C344 67 314 57 244 48 L290 263 Z " />
<glyph glyph-name="percent" unicode="&#x25;" horiz-adv-x="906" d="M272 622 C151 622 49 512 49 381 C49 293 104 238 192 238 C311 238 413 349 413 479 C413 567 358 622 272 622 L272 622 Z M262 571 C305 571 328 540 328 483 C328 439 315 390 293 353 C269 311 237 289 200 289 C158 289 134 321 134 380 C134 423 147 469 169 507 C194 551 223 571 262 571 L262 571 Z M233 -17 L723 622 L664 622 L174 -17 L233 -17 Z M707 366 C586 366 484 257 484 126 C484 38 539 -17 627 -17 C747 -17 849 94 849 224 C849 311 794 366 707 366 L707 366 Z M698 315 C741 315 764 284 764 227 C764 183 751 135 729 98 C705 56 673 34 636 34 C593 34 569 66 569 124 C569 167 582 214 604 252 C629 295 659 315 698 315 L698 315 Z " />
<glyph glyph-name="ampersand" unicode="&#x26;" horiz-adv-x="778" d="M659 201 C644 152 639 137 627 114 C608 77 575 54 539 54 C508 54 486 68 455 107 C512 158 543 194 600 275 C641 335 664 350 717 352 L740 352 L751 405 L474 405 L463 352 L488 352 C530 352 551 341 551 320 C551 286 512 232 427 151 C380 227 373 242 324 373 C394 410 426 435 459 475 C490 513 506 552 506 590 C506 647 461 687 397 687 C293 687 206 596 206 488 C206 466 209 442 217 396 C128 352 91 326 54 281 C20 239 1 190 1 141 C1 102 12 66 32 41 C61 5 120 -20 176 -20 C244 -20 303 -2 377 43 C419 -3 453 -19 507 -19 C549 -19 589 -5 619 20 C662 56 684 100 709 201 L659 201 Z M344 89 C282 57 251 47 217 47 C150 47 104 94 104 162 C104 192 112 222 127 247 C148 280 173 301 235 333 C283 196 293 173 344 89 L344 89 Z M305 431 C298 464 295 482 295 499 C295 574 334 632 383 632 C411 632 430 612 430 583 C430 557 418 524 401 502 C384 481 362 465 305 431 L305 431 Z " />
<glyph glyph-name="quotesingle" unicode="&#x27;" horiz-adv-x="169" d="M128 399 L198 667 L114 667 L70 399 L128 399 Z " />
<glyph glyph-name="parenleft" unicode="&#x28;" horiz-adv-x="340" d="M214 -154 C172 -128 156 -111 133 -71 C105 -20 93 30 93 98 C93 185 112 284 147 374 C178 453 213 509 269 566 C308 606 330 622 384 649 L392 687 C338 666 314 654 285 635 C236 601 186 554 148 506 C65 400 16 258 16 123 C16 37 40 -38 86 -101 C119 -144 144 -163 205 -192 L214 -154 Z " />
<glyph glyph-name="parenright" unicode="&#x29;" horiz-adv-x="340" d="M-93 -192 C-39 -172 -15 -160 14 -141 C63 -107 113 -60 151 -12 C234 94 283 236 283 371 C283 458 260 532 213 595 C180 639 155 657 94 686 L86 648 C127 622 143 605 166 565 C194 514 206 464 206 396 C206 310 186 210 152 120 C121 41 86 -15 31 -72 C-8 -112 -31 -128 -85 -155 L-93 -192 Z " />
<glyph glyph-name="asterisk" unicode="&#x2a;" horiz-adv-x="472" d="M273 469 C309 440 313 436 324 409 C336 381 337 377 342 372 C351 361 363 354 375 354 C400 354 430 387 430 415 C430 442 414 451 358 455 C343 456 329 458 324 461 C320 462 309 468 293 477 C292 477 289 479 285 481 C314 499 339 507 370 509 C415 512 415 512 432 521 C452 531 463 548 463 567 C463 590 448 610 430 610 C408 610 393 599 355 554 C342 539 332 529 326 526 C314 518 302 510 290 501 C288 500 285 498 280 494 C290 538 296 553 316 582 C347 628 350 634 350 653 C350 675 337 687 314 687 C281 687 257 662 257 629 C257 618 259 609 265 581 C269 566 271 555 271 547 C271 543 269 528 267 507 C266 505 266 500 265 495 C230 524 226 529 214 555 C204 583 201 587 197 593 C188 604 175 611 163 611 C138 611 108 578 108 550 C108 538 113 528 123 522 C136 514 142 512 180 510 C210 507 213 506 246 488 C248 487 249 486 254 483 C220 464 200 458 169 455 C120 452 115 450 98 437 C83 426 76 413 76 397 C76 374 92 354 109 354 C131 354 147 366 185 410 C197 425 207 435 213 439 C225 447 237 455 248 463 C250 464 254 467 259 470 C249 427 242 411 223 383 C191 336 189 331 189 312 C189 290 202 278 225 278 C258 278 282 303 282 336 C282 347 281 354 273 383 C270 398 268 410 268 418 C268 423 269 437 272 458 L273 469 Z " />
<glyph glyph-name="plus" unicode="&#x2b;" horiz-adv-x="481" d="M52 342 L38 276 L191 276 L156 114 L233 114 L267 276 L420 276 L434 342 L281 342 L315 504 L239 504 L205 342 L52 342 Z " />
<glyph glyph-name="comma" unicode="&#x2c;" horiz-adv-x="288" d="M-26 -146 C37 -134 70 -116 101 -76 C127 -44 143 -1 143 33 C143 70 120 95 85 95 C47 95 17 64 17 25 C17 4 32 -11 55 -11 C67 -11 76 -8 94 3 C87 -58 42 -103 -19 -111 L-26 -146 Z " />
<glyph glyph-name="hyphen" unicode="&#x2d;" horiz-adv-x="245" d="M-28 201 L217 201 L233 275 L-12 275 L-28 201 Z " />
<glyph glyph-name="period" unicode="&#x2e;" horiz-adv-x="265" d="M82 90 C47 90 15 60 15 27 C15 1 32 -17 57 -17 C91 -17 124 14 124 47 C124 72 106 90 82 90 L82 90 Z " />
<glyph glyph-name="slash" unicode="&#x2f;" horiz-adv-x="332" d="M-28 -92 L369 686 L316 686 L-80 -92 L-28 -92 Z " />
<glyph glyph-name="zero" unicode="0" horiz-adv-x="580" d="M353 622 C172 622 17 431 17 208 C17 72 96 -17 216 -17 C396 -17 552 175 552 396 C552 535 475 622 353 622 L353 622 Z M342 569 C412 569 452 515 452 419 C452 332 427 230 387 154 C347 78 290 36 225 36 C157 36 116 92 116 185 C116 274 141 375 181 451 C222 529 277 569 342 569 L342 569 Z " />
<glyph glyph-name="one" unicode="1" horiz-adv-x="580" d="M59 0 L400 0 L411 51 L371 51 C316 51 297 59 298 81 C298 90 300 103 304 120 L411 622 L359 622 C314 546 278 527 157 518 L147 469 L289 469 L214 121 C202 57 196 54 107 51 L70 51 L59 0 Z " />
<glyph glyph-name="two" unicode="2" horiz-adv-x="580" d="M21 0 C36 50 54 66 94 66 C121 66 127 64 172 35 L215 9 C245 -10 270 -18 299 -18 C336 -18 368 -6 397 18 C440 56 463 102 487 201 L444 201 C419 104 395 75 336 75 C314 75 287 80 263 88 L203 109 C168 121 157 123 134 123 C111 123 97 120 67 107 C126 179 142 189 264 227 C375 262 422 282 450 307 C498 350 527 413 527 473 C527 566 457 622 340 622 C259 622 188 594 137 542 C102 506 81 462 81 425 C81 390 103 365 133 365 C173 365 207 401 207 443 C207 469 192 482 163 482 L148 482 C199 546 239 568 306 568 C381 568 427 531 427 471 C427 440 417 407 400 382 C379 350 354 334 281 304 C70 217 8 155 -24 0 L21 0 Z " />
<glyph glyph-name="three" unicode="3" horiz-adv-x="580" d="M213 299 C286 297 314 293 339 281 C369 267 384 242 384 204 C384 165 369 125 343 96 C310 58 256 39 187 39 C116 39 86 55 55 106 C86 109 100 115 112 129 C123 141 130 159 130 177 C130 203 112 219 84 219 C34 219 -6 175 -6 120 C-6 42 77 -17 189 -17 C358 -17 489 79 489 204 C489 232 481 255 464 277 C443 302 422 314 372 327 C429 342 452 353 477 374 C513 405 534 448 534 491 C534 572 462 622 345 622 C217 622 92 542 92 461 C92 430 111 411 142 411 C182 411 212 441 212 482 C212 504 203 514 176 521 C231 558 270 571 320 571 C391 571 433 539 433 483 C433 438 408 394 371 375 C341 358 312 354 224 352 L213 299 Z " />
<glyph glyph-name="four" unicode="4" horiz-adv-x="580" d="M139 0 L470 0 L481 51 L429 51 C387 51 369 60 370 79 C370 86 372 97 375 110 L390 180 L509 180 L521 237 L402 237 L484 622 L425 622 L7 231 L-4 180 L302 180 L286 106 C275 58 266 52 208 51 L150 51 L139 0 Z M314 237 L84 237 L372 509 L314 237 Z " />
<glyph glyph-name="five" unicode="5" horiz-adv-x="580" d="M189 519 C245 510 271 508 306 508 C354 508 394 513 431 523 C482 538 511 561 558 622 C460 597 414 591 344 591 C279 591 243 597 162 620 L70 305 L117 305 C180 350 216 364 267 364 C348 364 397 320 397 249 C397 129 308 38 190 38 C164 38 138 43 117 51 C95 60 83 71 63 102 C113 108 139 132 139 173 C139 200 120 218 90 218 C42 218 3 173 3 116 C3 37 80 -17 194 -17 C277 -17 356 12 416 64 C469 111 501 185 501 262 C501 362 429 422 309 422 C258 422 222 413 149 382 L189 519 Z " />
<glyph glyph-name="six" unicode="6" horiz-adv-x="580" d="M474 539 C440 524 422 502 422 476 C422 449 442 431 471 431 C513 431 546 469 546 517 C546 578 476 622 381 622 C293 622 212 582 148 508 C78 426 31 300 31 191 C31 129 51 70 84 34 C115 0 162 -17 227 -17 C384 -17 509 97 509 240 C509 331 437 395 335 395 C271 395 224 376 149 319 C175 416 195 460 231 501 C269 546 323 571 379 571 C416 571 441 563 474 539 L474 539 Z M300 336 C368 336 404 300 404 232 C404 121 331 38 232 38 C168 38 128 78 128 141 C128 253 201 336 300 336 L300 336 Z " />
<glyph glyph-name="seven" unicode="7" horiz-adv-x="580" d="M267 -5 C309 200 321 227 450 379 C592 545 592 546 611 605 L561 605 C546 575 528 563 498 563 C482 563 464 568 430 584 C382 605 354 613 321 613 C267 613 231 594 172 534 L187 605 L129 605 L75 352 L129 352 C150 435 159 461 178 483 C202 510 238 526 273 526 C284 526 294 525 302 522 C388 497 392 496 423 496 C448 496 465 500 502 514 C452 455 446 449 383 388 C249 261 211 191 171 -5 L267 -5 Z " />
<glyph glyph-name="eight" unicode="8" horiz-adv-x="580" d="M168 307 C92 278 61 258 31 221 C9 193 -4 157 -4 123 C-4 36 77 -17 210 -17 C372 -17 503 78 503 197 C503 256 472 293 390 332 C453 357 479 373 504 400 C528 427 543 464 543 498 C543 570 462 622 349 622 C202 622 84 531 84 419 C84 369 106 340 168 307 L168 307 Z M313 256 C377 236 406 209 406 169 C406 92 330 39 220 39 C136 39 80 77 80 133 C80 160 91 189 111 214 C138 247 168 263 238 281 L313 256 Z M243 379 C196 394 177 415 177 452 C177 519 246 570 339 570 C414 570 461 541 461 495 C461 467 448 434 427 410 C405 384 381 371 325 354 L243 379 Z " />
<glyph glyph-name="nine" unicode="9" horiz-adv-x="580" d="M93 66 C126 80 144 102 144 129 C144 156 124 174 95 174 C53 174 20 136 20 88 C20 27 89 -17 185 -17 C273 -17 354 23 418 97 C488 179 535 305 535 413 C535 475 515 535 482 571 C451 606 404 622 338 622 C183 622 58 507 58 364 C58 273 130 209 232 209 C295 209 342 228 417 286 C391 189 371 145 335 103 C297 60 243 34 188 34 C152 34 127 42 93 66 L93 66 Z M334 567 C398 567 438 527 438 463 C438 351 365 268 267 268 C199 268 163 304 163 372 C163 484 236 567 334 567 L334 567 Z " />
<glyph glyph-name="colon" unicode="&#x3a;" horiz-adv-x="283" d="M126 90 C91 90 59 60 59 27 C59 1 76 -17 101 -17 C135 -17 168 14 168 47 C168 71 150 90 126 90 L126 90 Z M200 439 C165 439 133 409 133 375 C133 349 150 331 175 331 C209 331 242 363 242 396 C242 420 224 439 200 439 L200 439 Z " />
<glyph glyph-name="semicolon" unicode="&#x3b;" horiz-adv-x="283" d="M216 441 C180 441 147 410 147 376 C147 349 165 331 190 331 C225 331 259 363 259 397 C259 422 240 441 216 441 L216 441 Z M21 -146 C84 -134 117 -116 148 -76 C174 -44 190 -1 190 33 C190 70 167 95 132 95 C94 95 64 64 64 25 C64 4 79 -11 102 -11 C114 -11 123 -8 141 3 C134 -58 89 -103 28 -111 L21 -146 Z " />
<glyph glyph-name="less" unicode="&#x3c;" horiz-adv-x="475" d="M496 578 L40 371 L24 296 L392 89 L410 175 L120 333 L477 492 L496 578 Z " />
<glyph glyph-name="equal" unicode="&#x3d;" horiz-adv-x="481" d="M70 426 L56 363 L438 363 L452 426 L70 426 Z M37 274 L24 211 L406 211 L419 274 L37 274 Z " />
<glyph glyph-name="greater" unicode="&#x3e;" horiz-adv-x="475" d="M84 578 L66 492 L355 333 L-2 175 L-20 89 L435 296 L451 371 L84 578 Z " />
<glyph glyph-name="question" unicode="&#x3f;" horiz-adv-x="486" d="M185 93 C149 93 116 62 116 28 C116 1 134 -17 159 -17 C194 -17 228 15 228 49 C228 74 209 93 185 93 L185 93 Z M223 180 C247 265 254 274 335 329 C407 377 429 394 456 427 C486 462 504 508 504 549 C504 635 438 687 329 687 C254 687 185 659 139 611 C104 574 83 527 83 486 C83 440 105 412 143 412 C184 412 216 443 216 483 C216 507 202 520 176 520 C163 520 153 517 134 507 C145 548 156 566 184 590 C215 617 261 633 304 633 C368 633 409 599 409 547 C409 493 382 447 320 397 C214 310 202 293 176 180 L223 180 Z " />
<glyph glyph-name="at" unicode="&#x40;" horiz-adv-x="709" d="M507 494 L484 435 C475 483 446 506 396 506 C290 506 181 381 181 260 C181 188 222 142 286 142 C334 142 383 167 419 211 L419 200 C419 170 443 147 476 147 C578 147 690 305 690 449 C690 588 592 680 445 680 C228 680 29 476 29 253 C29 89 134 -13 302 -13 C382 -13 455 1 524 31 L520 85 C452 55 389 42 315 42 C228 42 166 70 128 125 C102 164 89 210 89 263 C89 452 254 626 435 626 C556 626 635 553 635 442 C635 331 555 197 489 197 C474 197 465 208 465 226 C465 239 469 254 482 286 L564 494 L507 494 Z M392 443 C427 443 450 418 450 381 C450 349 436 306 415 272 C388 228 350 202 313 202 C274 202 250 229 250 273 C250 357 321 443 392 443 L392 443 Z " />
<glyph glyph-name="A" unicode="A" horiz-adv-x="665" d="M-90 0 L183 0 L195 53 L147 53 C104 53 91 57 91 72 C91 82 99 101 116 130 L171 223 L412 223 L428 110 C429 104 429 98 429 90 C429 61 416 53 368 53 L317 53 L306 0 L606 0 L617 53 L591 53 C545 54 531 67 525 114 L441 667 L362 667 L40 111 C12 64 -4 54 -48 53 L-79 53 L-90 0 Z M201 276 L361 561 L403 276 L201 276 Z " />
<glyph glyph-name="B" unicode="B" horiz-adv-x="679" d="M-42 0 L288 0 C402 0 474 20 531 67 C578 106 605 163 605 224 C605 263 591 295 563 316 C540 334 518 342 465 352 C531 368 560 381 590 406 C629 439 652 489 652 540 C652 624 582 667 446 667 L100 667 L88 614 L126 614 C167 614 183 606 183 584 C183 577 181 565 176 541 L88 126 C75 63 67 55 7 53 L-31 53 L-42 0 Z M169 53 L226 322 L356 322 C425 322 452 315 477 292 C496 274 506 250 506 220 C506 182 490 141 463 111 C429 72 376 53 299 53 L169 53 Z M237 375 L288 614 L426 614 C513 614 551 586 551 524 C551 434 478 375 368 375 L237 375 Z " />
<glyph glyph-name="C" unicode="C" horiz-adv-x="670" d="M546 243 C519 173 502 143 471 110 C427 65 370 41 307 41 C197 41 136 112 136 240 C136 328 162 417 210 492 C267 582 342 631 423 631 C517 631 586 559 586 462 C586 450 585 428 583 408 L631 408 L687 667 L643 667 L606 607 C538 669 498 687 429 687 C216 687 27 477 27 241 C27 79 123 -20 279 -20 C373 -20 448 9 507 69 C551 113 573 152 602 243 L546 243 Z " />
<glyph glyph-name="D" unicode="D" horiz-adv-x="745" d="M-42 0 L265 0 C350 0 414 6 455 18 C511 35 567 72 610 121 C680 201 724 319 724 428 C724 501 705 556 666 599 C617 652 560 667 409 667 L100 667 L88 614 L126 614 C167 614 183 606 183 584 C183 577 181 565 176 541 L88 126 C75 63 67 55 7 53 L-31 53 L-42 0 Z M288 614 L397 614 C469 614 523 602 554 580 C594 550 618 498 618 439 C618 354 587 244 544 177 C490 94 403 53 276 53 L169 53 L288 614 Z " />
<glyph glyph-name="E" unicode="E" horiz-adv-x="703" d="M-42 0 L558 0 L616 271 L567 271 C522 88 490 56 351 53 L169 53 L227 323 L290 323 C350 323 372 308 372 269 C372 250 371 241 361 178 L408 178 L478 505 L430 505 C405 392 387 374 303 376 L238 376 L288 614 L458 614 C572 614 609 589 609 513 C609 486 607 466 598 416 L646 416 L700 667 L100 667 L88 614 L127 614 C168 614 184 606 184 584 C184 578 183 571 176 541 L88 126 C76 63 68 55 7 53 L-31 53 L-42 0 Z " />
<glyph glyph-name="F" unicode="F" horiz-adv-x="646" d="M-42 0 L269 0 L280 53 L235 53 C194 53 178 61 178 83 C178 90 181 106 185 126 L227 323 L275 323 C334 323 356 308 356 269 C356 250 356 247 345 178 L393 178 L463 505 L415 505 C390 392 372 374 287 376 L238 376 L288 614 L437 614 C551 614 588 589 588 512 C588 484 585 459 574 401 L622 401 L679 667 L100 667 L88 614 L127 614 C168 614 184 606 184 584 C184 578 183 571 176 541 L88 126 C76 63 68 55 7 53 L-31 53 L-42 0 Z " />
<glyph glyph-name="G" unicode="G" horiz-adv-x="736" d="M562 -7 L613 232 C624 283 633 290 691 289 L727 289 L738 342 L420 342 L408 289 L458 289 C507 289 520 283 520 259 C520 252 519 241 517 232 L508 191 C501 156 488 130 466 108 C427 68 360 41 297 41 C194 41 133 109 133 224 C133 313 162 421 206 493 C260 582 336 631 418 631 C471 631 519 607 548 565 C573 529 581 495 584 421 L636 421 L688 667 L643 667 L595 602 C532 669 495 687 419 687 C315 687 215 638 143 552 C70 464 26 344 26 232 C26 75 117 -19 266 -19 C340 -19 390 -2 486 56 L508 -7 L562 -7 Z " />
<glyph glyph-name="H" unicode="H" horiz-adv-x="788" d="M-44 0 L267 0 L278 53 L233 53 C192 53 176 61 176 83 C176 90 179 106 183 126 L222 311 L556 311 L516 126 C504 63 496 55 436 53 L390 53 L379 0 L690 0 L701 53 L663 53 C622 53 606 61 606 83 C606 90 608 103 613 126 L701 541 C713 604 722 612 782 614 L820 614 L832 667 L520 667 L509 614 L555 614 C596 614 612 605 612 584 C612 578 610 567 605 541 L567 364 L233 364 L271 541 C283 604 292 612 352 614 L398 614 L409 667 L98 667 L86 614 L125 614 C166 614 182 605 182 584 C182 578 181 571 174 541 L86 126 C74 63 65 55 5 53 L-33 53 L-44 0 Z " />
<glyph glyph-name="I" unicode="I" horiz-adv-x="368" d="M-43 0 L269 0 L280 53 L239 53 C198 53 182 61 182 83 C182 90 185 107 189 126 L277 541 C289 604 298 612 358 614 L399 614 L411 667 L99 667 L87 614 L129 614 C170 614 186 605 186 584 C186 577 184 564 179 541 L91 126 C79 63 70 55 10 53 L-32 53 L-43 0 Z " />
<glyph glyph-name="J" unicode="J" horiz-adv-x="514" d="M245 614 L289 614 C329 614 345 606 345 584 C345 577 342 560 338 541 L261 179 C241 84 192 36 114 36 C70 36 46 49 25 84 C57 87 71 93 85 110 C98 126 105 145 105 164 C105 194 87 212 56 212 C5 212 -37 163 -37 103 C-37 27 22 -19 120 -19 C193 -19 252 3 292 45 C329 83 345 120 365 210 L435 541 C447 604 456 612 516 614 L546 614 L558 667 L256 667 L245 614 Z " />
<glyph glyph-name="K" unicode="K" horiz-adv-x="727" d="M280 53 L235 53 C194 53 178 61 178 83 C178 90 181 106 185 126 L208 237 L317 323 L449 121 C473 85 473 85 473 77 C473 61 458 53 431 53 L359 53 L348 0 L692 0 L703 53 L674 53 C622 56 604 66 576 111 L397 384 L589 536 C669 596 701 611 750 614 L788 614 L800 667 L483 667 L471 614 L519 614 C548 614 562 608 562 597 C562 588 553 576 539 565 L226 318 L273 541 C285 604 294 612 354 614 L400 614 L411 667 L100 667 L88 614 L127 614 C168 614 184 605 184 584 C184 578 183 571 176 541 L88 126 C76 63 68 55 7 53 L-31 53 L-42 0 L269 0 L280 53 Z " />
<glyph glyph-name="L" unicode="L" horiz-adv-x="646" d="M100 667 L88 614 L127 614 C168 614 184 605 184 584 C184 578 183 571 176 541 L88 126 C76 62 67 55 7 53 L-31 53 L-42 0 L537 0 L596 277 L547 277 C508 91 470 54 318 53 L169 53 L273 541 C285 604 294 612 354 614 L400 614 L411 667 L100 667 Z " />
<glyph glyph-name="M" unicode="M" horiz-adv-x="896" d="M88 614 L125 614 C166 614 182 605 182 584 C182 577 180 563 175 541 L87 126 C75 63 66 55 6 53 L-31 53 L-42 0 L235 0 L246 53 L204 53 C163 53 147 61 147 83 C147 90 150 107 154 126 L254 600 L347 0 L384 0 L729 586 L631 126 C619 63 610 55 550 53 L506 53 L495 0 L802 0 L813 53 L775 53 C734 53 718 61 718 83 C718 90 720 103 725 126 L813 541 C825 604 834 612 894 614 L932 614 L944 667 L721 667 L413 145 L331 667 L100 667 L88 614 Z " />
<glyph glyph-name="N" unicode="N" horiz-adv-x="783" d="M594 -3 L710 541 C722 604 731 612 791 614 L821 614 L833 667 L555 667 L543 614 L592 614 C634 614 650 605 650 584 C650 577 648 567 643 541 L556 131 L313 667 L100 667 L88 614 L125 614 C166 614 182 605 182 584 C182 577 180 563 175 541 L87 126 C75 63 66 55 6 53 L-31 53 L-42 0 L240 0 L251 53 L204 53 C163 53 147 61 147 83 C147 90 150 107 154 126 L249 577 L511 -3 L594 -3 Z " />
<glyph glyph-name="O" unicode="O" horiz-adv-x="755" d="M453 687 C225 687 29 485 29 249 C29 86 137 -19 303 -19 C529 -19 726 184 726 417 C726 581 619 687 453 687 L453 687 Z M441 632 C549 632 620 554 620 435 C620 348 593 249 550 181 C491 88 406 36 314 36 C206 36 135 114 135 231 C135 319 162 420 205 487 C263 579 349 632 441 632 L441 632 Z " />
<glyph glyph-name="P" unicode="P" horiz-adv-x="646" d="M280 53 L235 53 C194 53 178 61 178 83 C178 90 181 106 185 126 L222 302 L324 302 C457 302 517 316 568 358 C618 399 648 464 648 530 C648 567 639 594 617 616 C583 653 522 667 394 667 L100 667 L88 614 L127 614 C168 614 184 605 184 584 C184 578 183 571 176 541 L88 126 C76 63 68 55 7 53 L-31 53 L-42 0 L269 0 L280 53 Z M233 355 L288 614 L385 614 C504 614 547 590 547 522 C547 482 530 438 504 409 C472 373 416 355 336 355 L233 355 Z " />
<glyph glyph-name="Q" unicode="Q" horiz-adv-x="778" d="M684 113 C658 39 629 9 586 9 C561 9 546 19 525 52 C602 111 633 144 667 202 C705 268 726 345 726 417 C726 581 618 687 452 687 C225 687 28 484 28 250 C28 84 134 -19 305 -19 C351 -19 380 -14 440 5 C472 -49 500 -68 551 -68 C596 -68 633 -49 668 -10 C698 24 713 54 731 113 L684 113 Z M492 106 C465 158 452 178 431 200 C406 226 371 240 333 240 C288 240 247 221 220 188 C197 160 190 139 190 94 C190 92 190 83 191 76 C146 130 134 161 134 227 C134 452 270 632 441 632 C550 632 620 554 620 435 C620 368 603 293 574 224 C554 177 536 151 492 106 L492 106 Z M418 57 C368 40 344 35 317 35 C268 35 238 59 238 96 C238 140 272 176 315 176 C359 176 385 146 418 57 L418 57 Z " />
<glyph glyph-name="R" unicode="R" horiz-adv-x="731" d="M280 53 L235 53 C194 53 178 61 178 83 C178 90 181 106 185 126 L226 320 L345 320 C427 320 468 288 468 222 C468 208 466 191 463 174 L449 92 C447 81 446 68 446 61 C446 5 470 -19 525 -19 C603 -19 639 27 670 163 L625 163 C601 67 590 46 564 46 C548 46 541 54 541 73 C541 85 545 111 552 141 C559 174 564 212 564 230 C564 292 538 321 464 342 C541 355 576 369 611 400 C649 435 672 486 672 538 C672 631 603 667 428 667 L100 667 L88 614 L127 614 C168 614 184 606 184 584 C184 578 183 571 176 541 L88 126 C76 63 68 55 7 53 L-31 53 L-42 0 L269 0 L280 53 Z M237 373 L288 614 L416 614 C456 614 504 608 521 601 C552 589 569 563 569 526 C569 496 558 463 538 437 C505 394 446 373 356 373 L237 373 Z " />
<glyph glyph-name="S" unicode="S" horiz-adv-x="594" d="M-28 0 L20 0 L67 74 C133 0 173 -20 258 -20 C415 -20 541 94 541 235 C541 319 493 359 358 388 L270 407 C198 423 167 450 167 496 C167 572 239 629 336 629 C398 629 450 606 477 565 C495 538 502 508 502 460 C502 452 502 437 501 420 L552 420 L605 673 L561 673 L521 612 C453 673 419 687 340 687 C189 687 75 586 75 452 C75 414 87 385 111 364 C139 338 160 330 252 307 L326 289 C415 267 444 244 444 193 C444 109 366 43 265 43 C200 43 147 69 114 118 C90 153 82 185 82 243 C82 248 82 263 83 277 L31 277 L-28 0 Z " />
<glyph glyph-name="T" unicode="T" horiz-adv-x="632" d="M41 405 L89 405 C130 570 173 612 299 614 L328 614 L224 126 C212 63 203 55 143 53 L85 53 L73 0 L417 0 L429 53 L370 53 C329 53 313 61 313 83 C313 89 315 99 320 126 L424 614 L453 614 C550 614 585 585 585 505 C585 477 582 454 574 405 L622 405 L678 667 L97 667 L41 405 Z " />
<glyph glyph-name="U" unicode="U" horiz-adv-x="722" d="M88 614 L118 614 C159 614 175 605 175 584 C175 578 174 570 168 541 L97 209 C92 185 89 160 89 138 C89 37 161 -20 288 -20 C364 -20 430 2 481 43 C534 87 565 147 586 244 L649 541 C661 604 670 612 730 614 L758 614 L770 667 L497 667 L486 614 L532 614 C574 614 590 605 590 584 C590 578 589 569 583 541 L519 244 C502 162 482 120 447 91 C414 62 366 47 313 47 C231 47 187 82 187 148 C187 169 189 188 193 209 L264 541 C276 604 285 612 345 614 L391 614 L402 667 L99 667 L88 614 Z " />
<glyph glyph-name="V" unicode="V" horiz-adv-x="646" d="M213 0 L286 0 L597 546 C629 603 644 613 697 614 L728 614 L739 667 L462 667 L451 614 L506 614 C539 614 552 608 552 594 C552 583 545 565 534 545 L291 118 L233 547 C232 551 232 555 232 563 C232 602 245 614 288 614 L348 614 L359 667 L52 667 L41 614 L70 614 C121 612 131 603 138 551 L213 0 Z " />
<glyph glyph-name="W" unicode="W" horiz-adv-x="910" d="M172 0 L245 0 L478 437 L514 0 L588 0 L852 531 C889 602 899 612 941 614 L966 614 L977 667 L738 667 L727 614 L772 614 C801 614 813 608 813 594 C813 583 803 555 789 527 L590 124 L558 555 L557 564 C556 578 561 598 568 605 C574 611 590 614 617 614 L659 614 L671 667 L395 667 L383 614 L415 614 C457 613 466 606 470 571 L472 537 L253 124 L231 551 C233 605 239 612 290 614 L327 614 L338 667 L71 667 L60 614 L88 614 C131 613 137 602 142 513 L172 0 Z " />
<glyph glyph-name="X" unicode="X" horiz-adv-x="698" d="M-71 0 L207 0 L218 53 L176 53 C147 53 134 60 134 75 C134 84 140 93 155 108 L318 275 L407 103 C411 96 412 90 412 82 C412 62 391 53 346 53 L313 53 L302 0 L628 0 L639 53 L614 53 C563 56 529 81 505 130 L396 353 L580 542 C630 593 660 611 705 614 L737 614 L748 667 L476 667 L465 614 L510 614 C533 614 547 608 547 598 C547 588 535 570 513 548 L369 407 L292 560 C288 569 285 579 285 586 C285 604 304 614 337 614 L373 614 L384 667 L84 667 L73 614 L98 614 C143 610 163 594 190 537 L294 330 L106 138 C42 76 5 54 -36 53 L-60 53 L-71 0 Z " />
<glyph glyph-name="Y" unicode="Y" horiz-adv-x="604" d="M235 263 L206 126 C194 63 185 55 125 53 L67 53 L55 0 L400 0 L411 53 L351 53 C311 53 295 61 295 83 C295 89 296 97 302 126 L332 263 L544 532 C597 597 622 614 661 614 L683 614 L694 667 L437 667 L426 614 L490 614 C507 614 519 608 519 599 C519 592 511 577 501 564 L315 331 L232 555 C228 565 226 577 226 585 C226 605 238 614 264 614 L327 614 L338 667 L47 667 L36 614 L63 614 C96 612 117 593 132 550 L235 263 Z " />
<glyph glyph-name="Z" unicode="Z" horiz-adv-x="585" d="M-47 0 L468 0 L529 287 L479 287 C427 88 400 59 257 53 L76 53 L598 611 L610 667 L113 667 L57 403 L106 403 C150 577 187 615 309 614 L490 614 L-35 54 L-47 0 Z " />
<glyph glyph-name="bracketleft" unicode="&#x5b;" horiz-adv-x="340" d="M-8 -172 L201 -172 L210 -128 L75 -128 L235 623 L370 623 L379 667 L170 667 L-8 -172 Z " />
<glyph glyph-name="backslash" unicode="&#x5c;" horiz-adv-x="332" d="M178 -92 L231 -92 L165 686 L113 686 L178 -92 Z " />
<glyph glyph-name="bracketright" unicode="&#x5d;" horiz-adv-x="340" d="M-79 -172 L130 -172 L308 667 L99 667 L90 623 L225 623 L65 -128 L-70 -128 L-79 -172 Z " />
<glyph glyph-name="asciicircum" unicode="&#x5e;" horiz-adv-x="475" d="M113 371 L295 610 L378 371 L455 371 L355 669 L262 669 L36 371 L113 371 Z " />
<glyph glyph-name="underscore" unicode="&#x5f;" horiz-adv-x="500" d="M-86 -70 L-98 -126 L402 -126 L414 -70 L-86 -70 Z " />
<glyph glyph-name="grave" unicode="&#x60;" horiz-adv-x="486" d="M350 540 L247 686 C233 705 216 716 201 716 C178 716 155 693 155 669 C155 656 164 645 187 629 L314 540 L350 540 Z " />
<glyph glyph-name="a" unicode="a" horiz-adv-x="524" d="M442 159 C418 62 405 38 375 38 C361 38 352 47 353 62 C353 70 355 82 358 95 L407 327 C413 352 416 377 416 392 C416 448 356 486 266 486 C155 486 56 420 56 345 C56 319 75 300 101 300 C135 300 164 327 164 360 C164 382 156 392 130 399 C173 430 202 441 242 441 C300 441 335 415 335 372 C335 354 327 329 316 314 C304 296 282 284 241 273 L162 251 C90 231 55 215 26 189 C-5 161 -23 122 -23 81 C-23 19 20 -18 92 -18 C153 -18 201 3 272 61 C277 4 297 -17 348 -17 C422 -17 457 28 486 159 L442 159 Z M296 199 C283 137 264 103 227 74 C200 54 163 41 131 41 C94 41 73 60 73 94 C73 144 108 181 176 203 L215 216 C244 225 255 230 308 253 L296 199 Z " />
<glyph glyph-name="b" unicode="b" horiz-adv-x="557" d="M49 -6 L109 81 C123 50 134 31 148 19 C172 -3 208 -15 247 -15 C389 -15 510 134 510 309 C510 419 450 485 352 485 C281 485 237 462 174 391 L233 667 L71 667 L61 619 L79 619 C115 619 130 611 130 591 C130 586 128 575 126 562 L5 -6 L49 -6 Z M320 427 C381 427 414 387 414 315 C414 255 396 181 370 133 C336 74 292 43 240 43 C175 43 134 90 134 165 C134 224 150 286 178 333 C215 395 263 427 320 427 L320 427 Z " />
<glyph glyph-name="c" unicode="c" horiz-adv-x="486" d="M368 175 C347 130 337 111 318 91 C289 60 246 41 203 41 C135 41 96 85 96 163 C96 225 114 291 144 341 C181 405 236 438 301 438 C326 438 351 432 370 421 C388 411 395 400 406 372 C362 364 341 343 341 308 C341 281 356 266 383 266 C429 266 464 307 464 362 C464 436 397 486 297 486 C136 486 -2 337 -2 161 C-2 50 66 -18 179 -18 C247 -18 299 2 346 47 C380 81 397 109 423 175 L368 175 Z " />
<glyph glyph-name="d" unicode="d" horiz-adv-x="580" d="M364 619 L395 619 C433 619 449 610 448 590 C448 583 446 574 444 562 L407 391 C395 418 384 436 373 448 C350 472 312 485 269 485 C125 485 3 336 3 159 C3 52 64 -15 161 -15 C231 -15 279 11 342 81 L324 0 L490 0 L500 48 L476 48 C438 48 422 57 423 76 C423 83 425 93 428 105 L547 667 L375 667 L364 619 Z M274 427 C342 427 382 381 382 302 C382 161 296 43 194 43 C134 43 99 85 99 157 C99 216 118 290 145 339 C178 397 222 427 274 427 L274 427 Z " />
<glyph glyph-name="e" unicode="e" horiz-adv-x="500" d="M362 154 C339 110 325 92 301 74 C272 52 233 39 195 39 C127 39 87 80 87 148 C87 164 91 197 97 226 L447 226 C454 265 458 302 458 328 C458 369 443 410 417 439 C389 471 347 486 287 486 C205 486 136 453 80 387 C30 329 -1 242 -1 163 C-1 51 69 -17 183 -17 C244 -17 295 1 339 38 C373 67 391 92 418 154 L362 154 Z M112 279 C130 338 142 363 167 390 C196 421 232 437 276 437 C337 437 372 403 372 343 C372 328 370 303 366 279 L112 279 Z " />
<glyph glyph-name="f" unicode="f" horiz-adv-x="325" d="M128 420 L61 105 C51 58 40 49 -11 48 L-37 48 L-47 0 L228 0 L238 48 L193 48 C157 48 142 56 142 75 C142 82 144 94 146 105 L213 420 L317 420 L327 469 L223 469 L231 506 C242 557 249 580 261 600 C276 624 303 639 334 639 C359 639 369 634 390 614 C360 606 342 586 342 559 C342 536 358 521 383 521 C419 521 448 555 448 599 C448 651 403 684 331 684 C286 684 246 671 215 645 C181 616 161 579 147 509 L138 469 L53 469 L42 420 L128 420 Z " />
<glyph glyph-name="g" unicode="g" horiz-adv-x="613" d="M141 60 C91 60 70 69 70 90 C70 116 101 147 129 147 C131 147 135 146 140 145 C192 128 193 128 225 128 C292 128 356 151 399 190 C440 227 468 291 468 345 C468 354 464 374 457 397 C494 433 514 444 544 444 C560 444 564 441 573 427 C534 419 515 400 515 369 C515 346 531 331 554 331 C592 331 626 373 626 421 C626 461 598 486 554 486 C514 486 490 474 441 432 C394 472 356 486 294 486 C160 486 56 391 56 269 C56 231 64 210 92 176 C16 136 -9 108 -9 61 C-9 29 6 11 48 -4 C0 -17 -20 -28 -40 -52 C-56 -71 -65 -93 -65 -113 C-65 -178 9 -214 145 -214 C257 -214 338 -194 382 -157 C418 -127 439 -83 439 -41 C439 27 388 60 286 60 L141 60 Z M288 439 C342 439 377 407 377 358 C377 319 364 269 345 240 C322 202 281 180 233 180 C177 180 147 208 147 260 C147 363 208 439 288 439 L288 439 Z M227 -20 C334 -21 370 -34 370 -74 C370 -133 291 -164 138 -164 C47 -164 0 -143 0 -102 C0 -48 59 -20 169 -20 L227 -20 Z " />
<glyph glyph-name="h" unicode="h" horiz-adv-x="613" d="M89 619 L110 619 C147 619 161 611 161 591 C161 583 160 572 157 562 L60 105 C51 58 40 50 -11 48 L-32 48 L-42 0 L212 0 L223 48 L193 48 C156 48 141 56 141 76 C141 81 143 92 145 105 L180 268 C191 319 209 352 243 384 C275 413 312 429 352 429 C402 429 425 406 425 357 C425 338 421 310 415 281 L378 105 C368 58 357 50 306 48 L276 48 L266 0 L520 0 L531 48 L510 48 C474 48 459 56 459 76 C459 82 461 94 463 105 L498 268 C507 313 513 354 513 376 C513 441 466 482 391 482 C317 482 266 456 205 388 L265 667 L100 667 L89 619 Z " />
<glyph glyph-name="i" unicode="i" horiz-adv-x="311" d="M223 675 C186 675 152 643 152 608 C152 581 170 562 196 562 C233 562 267 595 267 630 C267 655 248 675 223 675 L223 675 Z M-42 0 L217 0 L227 48 L203 48 C167 48 152 56 152 76 C152 83 154 95 156 105 L233 469 L58 469 L47 421 L78 421 C115 421 130 413 130 393 C130 385 129 374 126 364 L71 105 C62 59 51 50 -2 48 L-32 48 L-42 0 Z " />
<glyph glyph-name="j" unicode="j" horiz-adv-x="304" d="M53 421 L82 421 C120 421 131 416 131 399 C131 394 129 379 125 360 L34 -68 C18 -139 -7 -167 -58 -167 C-78 -167 -87 -163 -105 -148 C-68 -139 -51 -120 -51 -89 C-51 -65 -67 -50 -92 -50 C-131 -50 -163 -87 -163 -132 C-163 -182 -121 -214 -56 -214 C-7 -214 35 -197 69 -164 C97 -135 111 -106 124 -45 L233 469 L63 469 L53 421 Z M225 675 C187 675 154 643 154 608 C154 581 172 562 198 562 C234 562 269 595 269 630 C269 655 250 675 225 675 L225 675 Z " />
<glyph glyph-name="k" unicode="k" horiz-adv-x="604" d="M167 229 L260 667 L95 667 L84 619 L109 619 C146 619 160 611 160 590 C160 583 159 572 156 562 L59 105 C50 58 39 50 -12 48 L-37 48 L-47 0 L198 0 L208 48 L188 48 C152 48 137 56 137 76 C137 82 139 95 141 105 L154 165 L243 228 L335 89 C339 82 342 75 342 71 C342 57 320 48 283 48 L259 48 L248 0 L518 0 L529 48 L515 48 C478 49 450 64 431 93 L311 276 L452 377 C501 410 530 422 569 420 L583 420 L593 469 L315 469 L305 420 L348 420 C381 420 395 416 395 406 C395 397 382 382 358 365 L167 229 Z " />
<glyph glyph-name="l" unicode="l" horiz-adv-x="302" d="M266 667 L95 667 L84 619 L110 619 C147 619 161 611 161 591 C161 584 160 572 157 562 L60 105 C51 58 40 50 -11 48 L-37 48 L-47 0 L211 0 L221 48 L194 48 C158 48 143 56 143 76 C143 83 145 95 147 105 L266 667 Z " />
<glyph glyph-name="m" unicode="m" horiz-adv-x="877" d="M-42 0 L203 0 L214 48 L196 48 C158 48 142 57 143 77 C143 84 145 93 147 105 L182 268 C195 327 206 351 239 382 C270 413 305 429 342 429 C386 429 406 409 406 366 C406 348 402 320 394 281 L356 105 C347 59 336 50 285 48 L268 48 L257 0 L494 0 L504 48 L487 48 C451 48 436 56 436 76 C436 83 438 95 440 105 L474 268 C487 327 498 351 531 382 C562 413 597 429 633 429 C676 429 696 409 696 366 C696 348 692 318 684 281 L646 105 C637 58 626 50 575 48 L558 48 L548 0 L789 0 L800 48 L777 48 C741 48 726 56 726 76 C726 82 728 94 730 105 L765 268 C775 318 782 362 782 383 C782 444 739 482 670 482 C607 482 566 461 491 390 C486 420 479 437 467 450 C449 470 416 482 379 482 C316 482 274 461 210 398 L225 469 L58 469 L47 421 L74 421 C112 421 127 413 127 393 C127 387 125 375 123 364 L68 105 C59 59 47 50 -5 48 L-32 48 L-42 0 Z " />
<glyph glyph-name="n" unicode="n" horiz-adv-x="618" d="M-42 0 L218 0 L228 48 L198 48 C160 48 145 56 145 76 C145 83 146 95 149 105 L183 268 C194 319 212 352 247 384 C279 413 317 429 357 429 C407 429 431 406 431 357 C431 339 427 312 421 281 L383 105 C374 59 363 50 312 48 L282 48 L272 0 L526 0 L536 48 L516 48 C479 48 464 56 464 76 C464 81 466 92 468 105 L503 268 C513 314 519 356 519 375 C519 441 472 482 396 482 C321 482 270 456 209 388 L226 469 L58 469 L47 421 L74 421 C112 421 127 413 127 393 C127 387 125 375 123 364 L68 105 C59 59 47 50 -5 48 L-32 48 L-42 0 Z " />
<glyph glyph-name="o" unicode="o" horiz-adv-x="547" d="M307 486 C138 486 0 343 0 167 C0 58 81 -17 199 -17 C366 -17 504 127 504 301 C504 410 423 486 307 486 L307 486 Z M295 435 C368 435 409 391 409 312 C409 247 388 171 357 121 C322 64 270 34 209 34 C136 34 95 78 95 155 C95 222 115 297 147 348 C182 405 233 435 295 435 L295 435 Z " />
<glyph glyph-name="p" unicode="p" horiz-adv-x="576" d="M28 421 L49 421 C86 421 103 412 102 393 C102 386 100 376 97 364 L-3 -109 C-12 -155 -24 -164 -76 -166 L-97 -166 L-107 -214 L147 -214 L157 -166 L127 -166 C89 -166 74 -158 74 -137 C74 -131 76 -119 78 -109 L118 78 C130 51 141 33 152 21 C175 -3 212 -16 256 -16 C400 -16 522 133 522 310 C522 417 461 484 364 484 C294 484 245 458 183 388 L201 469 L38 469 L28 421 Z M331 426 C391 426 426 384 426 312 C426 253 407 178 380 130 C347 72 303 42 251 42 C183 42 143 88 143 167 C143 308 229 426 331 426 L331 426 Z " />
<glyph glyph-name="q" unicode="q" horiz-adv-x="580" d="M453 -166 L431 -166 C394 -166 377 -157 378 -138 C378 -130 380 -121 382 -109 L483 364 C492 411 503 419 556 421 L577 421 L588 469 L424 469 L407 388 C393 419 381 438 367 450 C343 472 307 484 268 484 C125 484 4 336 4 160 C4 51 64 -16 162 -16 C234 -16 278 7 341 78 L301 -109 C292 -155 281 -164 228 -166 L198 -166 L188 -214 L443 -214 L453 -166 Z M275 426 C341 426 382 379 382 303 C382 244 366 182 337 136 C300 74 252 42 195 42 C134 42 100 82 100 154 C100 215 118 288 145 336 C178 395 222 426 275 426 L275 426 Z " />
<glyph glyph-name="r" unicode="r" horiz-adv-x="453" d="M243 48 L198 48 C160 48 145 56 145 76 C145 83 146 94 149 105 L172 217 C184 272 202 315 228 352 C267 408 309 436 351 436 C374 436 383 431 398 408 C374 408 364 403 351 388 C341 377 335 362 335 348 C335 324 352 308 378 308 C418 308 453 349 453 397 C453 452 422 483 366 483 C306 483 258 450 205 372 L226 469 L58 469 L47 421 L74 421 C112 421 127 413 127 392 C127 387 125 375 123 364 L68 105 C59 58 47 49 -5 48 L-32 48 L-42 0 L233 0 L243 48 Z " />
<glyph glyph-name="s" unicode="s" horiz-adv-x="472" d="M-34 -4 L15 -4 L45 47 C89 -1 123 -16 186 -16 C243 -16 297 1 332 30 C372 63 399 117 399 163 C399 219 357 258 278 274 L193 291 C152 299 131 319 131 349 C131 398 176 433 237 433 C280 433 315 418 335 390 C353 366 359 343 359 292 L406 292 L445 475 L403 475 L376 432 C330 471 294 485 237 485 C130 485 43 410 43 318 C43 261 87 219 164 203 L245 186 C289 176 311 158 311 129 C311 77 261 38 192 38 C149 38 112 55 87 86 C64 113 57 138 57 193 L8 193 L-34 -4 Z " />
<glyph glyph-name="t" unicode="t" horiz-adv-x="382" d="M112 420 L43 95 C41 85 40 75 40 66 C40 13 73 -17 132 -17 C183 -17 229 8 254 50 C272 80 282 108 303 192 L259 192 C246 135 236 103 224 80 C212 56 186 41 159 41 C135 41 122 51 122 72 C122 80 123 88 124 95 L194 420 L329 420 L339 469 L204 469 L243 655 L199 655 C161 528 118 477 43 469 L33 420 L112 420 Z " />
<glyph glyph-name="u" unicode="u" horiz-adv-x="613" d="M42 421 L64 421 C104 421 121 412 120 392 C120 385 118 375 116 364 L81 201 C71 155 65 112 65 93 C65 27 110 -13 184 -13 C256 -13 306 13 366 81 L349 0 L520 0 L531 48 L504 48 C468 48 452 56 452 75 C452 82 454 93 456 105 L533 469 L346 469 L336 421 L374 421 C414 421 430 413 430 392 C430 387 428 375 426 364 L391 201 C380 150 363 118 330 85 C299 56 262 40 223 40 C176 40 153 62 153 110 C153 129 157 155 164 188 L223 469 L52 469 L42 421 Z " />
<glyph glyph-name="v" unicode="v" horiz-adv-x="528" d="M14 420 L35 420 C68 418 72 414 80 375 L158 -5 L208 -5 L440 362 C473 414 479 418 515 420 L533 420 L543 469 L328 469 L318 420 L360 420 C391 420 401 416 401 404 C401 396 394 381 381 360 L224 107 L169 366 C167 373 166 383 166 388 C166 413 176 420 212 420 L246 420 L257 469 L24 469 L14 420 Z " />
<glyph glyph-name="w" unicode="w" horiz-adv-x="778" d="M153 -5 L206 -5 L376 285 L423 -5 L477 -5 L694 363 C720 407 736 420 770 421 L783 421 L793 469 L596 469 L586 421 L614 421 C643 421 655 417 655 406 C655 399 647 379 637 363 L485 107 L444 372 C443 379 443 382 443 391 C443 402 448 412 456 416 C462 420 470 421 494 421 L522 421 L532 469 L310 469 L300 421 L320 421 C352 418 360 411 364 380 L366 362 L215 107 L173 372 C172 382 171 389 171 392 C171 411 185 421 213 421 L244 421 L254 469 L38 469 L28 421 L45 421 C78 419 84 412 91 370 L153 -5 Z " />
<glyph glyph-name="x" unicode="x" horiz-adv-x="571" d="M308 251 L436 368 C481 409 506 421 543 421 L560 421 L571 469 L349 469 L339 421 L365 421 C393 421 403 418 403 411 C403 404 398 394 392 389 L282 290 L227 379 C220 391 217 397 217 403 C217 415 227 421 249 421 L280 421 L290 469 L47 469 L37 421 L52 421 C92 419 116 404 141 364 L222 240 L67 98 C29 65 1 51 -33 48 L-47 48 L-57 0 L173 0 L183 48 L148 48 C122 48 108 53 108 63 C108 69 112 74 125 86 L246 196 L313 89 C319 79 322 73 322 69 C322 58 303 48 280 48 L237 48 L227 0 L485 0 L496 48 L481 48 C454 47 429 63 407 94 L308 251 Z " />
<glyph glyph-name="y" unicode="y" horiz-adv-x="538" d="M172 -3 C89 -132 56 -164 4 -164 C-20 -164 -31 -157 -44 -132 C2 -128 24 -109 24 -71 C24 -46 8 -30 -17 -30 C-62 -30 -100 -74 -100 -128 C-100 -180 -64 -214 -10 -214 C35 -214 72 -198 110 -164 C144 -134 166 -102 254 38 L454 359 C487 411 497 419 531 421 L559 421 L570 469 L344 469 L333 421 L371 421 C402 421 414 416 414 404 C414 396 410 385 402 372 L236 103 L186 367 C184 375 183 384 183 390 C183 413 192 421 221 421 L262 421 L272 469 L31 469 L21 421 L45 421 C81 419 89 412 97 374 L172 -3 Z " />
<glyph glyph-name="z" unicode="z" horiz-adv-x="472" d="M-47 0 L365 0 L410 212 L364 212 C326 66 310 51 187 50 L65 50 L446 420 L456 469 L68 469 L26 272 L72 272 C108 405 128 423 233 420 L345 420 L-36 50 L-47 0 Z " />
<glyph glyph-name="braceleft" unicode="&#x7b;" horiz-adv-x="340" d="M227 549 C241 613 265 631 335 628 L360 628 L373 628 L382 671 C343 672 335 672 328 672 C219 672 171 634 150 532 L111 351 C98 299 81 278 42 268 L33 227 C58 220 71 204 71 180 C71 167 69 154 66 137 L30 -32 C25 -53 23 -72 23 -89 C23 -152 59 -178 145 -178 C161 -178 175 -178 202 -177 L211 -133 C146 -133 139 -133 125 -128 C106 -123 95 -107 95 -87 C95 -77 96 -66 99 -52 L137 126 C141 144 143 161 143 174 C143 207 132 228 102 247 C153 273 172 299 189 368 L227 549 Z " />
<glyph glyph-name="bar" unicode="&#x7c;" horiz-adv-x="479" d="M267 667 L90 -167 L177 -167 L354 667 L267 667 Z " />
<glyph glyph-name="braceright" unicode="&#x7d;" horiz-adv-x="340" d="M102 -55 C88 -119 63 -137 -6 -134 L-31 -133 L-44 -133 L-53 -177 C-16 -178 -6 -178 1 -178 C110 -178 157 -141 179 -38 L218 143 C230 196 248 216 287 226 L295 268 C271 274 258 290 258 315 C258 327 260 342 263 358 L299 526 C304 550 306 566 306 583 C306 646 270 672 184 672 C167 672 162 672 127 671 L118 627 L136 627 C185 627 192 626 204 622 C223 617 234 601 234 581 C234 571 233 562 230 547 L192 369 C188 351 186 334 186 320 C186 287 197 267 226 247 C176 222 157 196 140 126 L102 -55 Z " />
<glyph glyph-name="asciitilde" unicode="&#x7e;" horiz-adv-x="657" d="M187 577 C228 630 256 650 291 650 C314 650 330 644 380 618 C438 586 458 579 484 579 C541 579 590 614 646 695 L608 731 C566 678 537 658 503 658 C480 658 466 663 416 691 C364 719 339 728 309 728 C253 728 202 692 149 613 L187 577 Z " />
<glyph glyph-name="uni00A0" unicode="&#xa0;" horiz-adv-x="250" d="" />
<glyph glyph-name="exclamdown" unicode="&#xa1;" horiz-adv-x="288" d="M175 478 C140 478 107 447 107 414 C107 390 125 371 149 371 C185 371 217 401 217 434 C217 460 200 478 175 478 L175 478 Z M110 285 C72 128 61 89 22 -31 C-16 -154 -16 -155 -16 -176 C-16 -202 -1 -220 22 -220 C49 -220 72 -201 83 -169 C90 -150 90 -150 104 -31 C115 88 121 128 150 285 L110 285 Z " />
<glyph glyph-name="cent" unicode="&#xa2;" horiz-adv-x="580" d="M-1 -87 L48 -87 L123 21 C164 3 182 -1 216 -1 C268 -1 313 11 349 34 C403 68 433 109 465 192 L410 192 C389 147 378 128 360 108 C330 77 287 58 243 58 C214 58 198 63 168 84 L414 435 C436 419 439 416 448 390 C404 381 383 360 383 325 C383 299 399 283 425 283 C471 283 506 324 506 379 C506 422 487 453 444 478 L517 582 L467 582 L406 494 C373 501 346 504 328 504 C259 504 179 464 124 402 C71 342 40 258 40 175 C40 116 51 89 92 45 L-1 -87 Z M144 120 C139 148 137 170 137 183 C137 235 158 313 185 359 C220 418 278 456 333 456 C343 456 358 454 376 451 L144 120 Z " />
<glyph glyph-name="sterling" unicode="&#xa3;" horiz-adv-x="580" d="M-5 -14 C50 33 85 49 130 49 C156 49 175 43 220 22 L272 -3 C296 -15 311 -19 328 -19 C363 -19 394 -7 418 16 C460 54 482 99 503 192 L462 192 C437 98 411 64 364 64 C342 64 317 71 293 84 L253 106 C235 116 215 121 194 121 C167 121 148 115 111 93 L109 99 C193 167 216 202 230 276 L353 276 L363 320 L233 320 C231 341 230 342 220 373 C211 401 206 423 206 440 C206 511 282 574 368 574 C399 574 430 566 451 553 C465 544 472 535 480 515 C444 489 433 473 433 445 C433 419 448 404 476 404 C518 404 554 446 554 495 C554 569 475 622 365 622 C302 622 251 608 203 578 C143 540 105 481 105 424 C105 397 112 373 135 320 L43 320 L33 276 L138 276 C130 183 85 115 -19 42 L-5 -14 Z " />
<glyph glyph-name="currency" unicode="&#xa4;" horiz-adv-x="633" d="M4 125 L37 80 L148 176 C188 141 226 126 272 126 C323 126 370 142 420 176 L491 80 L543 125 L472 221 C528 283 554 344 554 410 C554 442 548 469 531 504 L642 599 L609 644 L498 549 C460 584 423 598 373 598 C323 598 281 584 226 548 L155 644 L103 599 L174 503 C118 440 92 381 92 314 C92 279 99 252 114 221 L4 125 Z M359 526 C429 526 479 473 479 399 C479 295 386 198 287 198 C217 198 167 251 167 325 C167 429 260 526 359 526 L359 526 Z " />
<glyph glyph-name="yen" unicode="&#xa5;" horiz-adv-x="621" d="M419 349 L525 482 C573 542 595 557 631 557 L651 557 L661 605 L428 605 L418 557 L476 557 C492 557 503 552 503 544 C503 538 496 524 486 512 L317 300 L242 503 C239 512 237 521 237 530 C237 549 248 557 271 557 L328 557 L338 605 L74 605 L64 557 L89 557 C118 556 137 538 151 499 L205 349 L92 349 L82 306 L220 306 L242 246 L82 246 L73 203 L237 203 L218 114 C207 57 199 50 145 48 L92 48 L82 0 L394 0 L404 48 L350 48 C313 48 299 56 299 75 C299 81 301 91 306 114 L325 203 L492 203 L501 246 L337 246 L384 306 L526 306 L535 349 L419 349 Z " />
<glyph glyph-name="brokenbar" unicode="&#xa6;" horiz-adv-x="479" d="M267 667 L196 330 L283 330 L354 667 L267 667 Z M158 153 L90 -167 L177 -167 L245 153 L158 153 Z " />
<glyph glyph-name="section" unicode="&#xa7;" horiz-adv-x="561" d="M292 438 C227 467 209 485 209 519 C209 589 270 637 357 637 C394 637 410 631 444 607 C406 593 387 570 387 537 C387 510 406 494 438 494 C485 494 519 534 519 588 C519 649 459 687 364 687 C294 687 238 667 194 625 C154 587 130 538 130 494 C130 454 140 431 172 404 C123 382 102 368 79 344 C50 313 34 274 34 236 C34 177 63 142 133 115 L229 77 C293 52 324 20 324 -21 C324 -103 254 -160 152 -160 C118 -160 100 -155 63 -134 C103 -115 120 -93 120 -57 C120 -26 101 -7 70 -7 C23 -7 -15 -50 -15 -105 C-15 -172 44 -211 145 -211 C218 -211 283 -190 329 -152 C378 -111 409 -49 409 9 C409 51 397 73 356 105 C409 129 429 142 450 165 C479 196 496 237 496 277 C496 302 489 324 476 340 C460 361 449 368 388 395 L292 438 Z M169 188 C127 205 107 228 107 258 C107 311 142 348 220 378 L365 315 C406 297 424 278 424 252 C424 230 413 205 395 185 C377 165 359 154 306 131 L169 188 Z " />
<glyph glyph-name="dieresis" unicode="&#xa8;" horiz-adv-x="480" d="M226 674 C190 674 157 643 157 609 C157 582 174 565 202 565 C236 565 268 596 268 630 C268 655 250 674 226 674 L226 674 Z M403 674 C368 674 334 643 334 609 C334 582 352 565 379 565 C413 565 445 596 445 630 C445 655 427 674 403 674 L403 674 Z " />
<glyph glyph-name="copyright" unicode="&#xa9;" horiz-adv-x="759" d="M488 286 C473 246 464 229 446 211 C422 186 390 173 355 173 C294 173 260 212 260 283 C260 394 336 496 418 496 C471 496 509 457 509 403 C509 395 509 384 508 372 L541 372 L573 523 L543 523 L524 491 C485 525 463 534 423 534 C300 534 191 415 191 281 C191 189 247 132 338 132 C393 132 436 149 471 183 C497 209 509 232 527 286 L488 286 Z M458 681 C236 681 30 479 30 261 C30 101 145 -14 304 -14 C524 -14 729 189 729 406 C729 566 615 681 458 681 L458 681 Z M446 630 C576 630 670 532 670 397 C670 211 498 37 314 37 C184 37 89 135 89 270 C89 456 261 630 446 630 L446 630 Z " />
<glyph glyph-name="ordfeminine" unicode="&#xaa;" horiz-adv-x="331" d="M318 429 C304 370 297 357 280 357 C273 357 269 361 269 369 C269 373 270 381 272 388 L301 524 C304 538 305 551 305 562 C305 599 267 622 209 622 C138 622 76 581 76 535 C76 517 89 505 107 505 C130 505 149 523 149 545 C149 557 145 564 132 569 C154 584 170 589 193 589 C227 589 248 574 248 550 C248 522 232 506 194 496 L146 483 C62 461 29 431 29 379 C29 341 57 318 103 318 C140 318 170 330 212 362 C217 330 230 318 262 318 C310 318 333 347 351 429 L318 429 Z M226 449 C214 392 179 360 128 360 C107 360 95 370 95 389 C95 416 115 436 155 448 L179 456 C197 461 206 465 231 475 L226 449 Z " />
<glyph glyph-name="guillemotleft" unicode="&#xab;" horiz-adv-x="434" d="M265 72 L314 72 L286 182 C283 213 283 213 283 220 C283 238 295 272 310 293 L384 403 L336 403 L275 333 C215 265 207 253 207 222 C207 203 209 197 234 142 L265 72 Z M103 72 L151 72 L124 182 C120 212 120 212 120 219 C120 238 132 271 147 293 L222 403 L173 403 L112 333 C51 265 44 253 44 222 C44 203 46 198 71 142 L103 72 Z " />
<glyph glyph-name="logicalnot" unicode="&#xac;" horiz-adv-x="475" d="M288 0 L373 0 L432 279 L20 279 L4 203 L331 203 L288 0 Z " />
<glyph glyph-name="uni00AD" unicode="&#xad;" horiz-adv-x="245" d="M-28 201 L217 201 L233 275 L-12 275 L-28 201 Z " />
<glyph glyph-name="registered" unicode="&#xae;" horiz-adv-x="759" d="M341 179 L312 179 C290 179 282 183 282 194 C282 197 284 208 286 217 L308 323 L372 323 C418 323 440 306 440 270 C440 261 439 253 438 244 L430 198 C429 192 428 184 428 180 C428 147 443 132 476 132 C523 132 545 160 563 241 L531 241 C517 186 512 175 499 175 C491 175 488 179 488 188 C488 194 490 209 494 225 C498 244 501 266 501 276 C501 309 488 326 455 338 C525 352 562 390 562 449 C562 502 522 523 420 523 L230 523 L222 487 L247 487 C269 487 277 483 277 473 C277 469 276 460 273 450 L224 217 C217 183 214 181 182 179 L157 179 L149 143 L333 143 L341 179 Z M316 359 L343 487 L412 487 C474 487 497 474 497 440 C497 389 454 359 380 359 L316 359 Z M458 681 C236 681 30 479 30 261 C30 101 145 -14 304 -14 C524 -14 729 189 729 406 C729 566 615 681 458 681 L458 681 Z M446 630 C576 630 670 532 670 397 C670 211 498 37 314 37 C184 37 89 135 89 270 C89 456 261 630 446 630 L446 630 Z " />
<glyph glyph-name="macron" unicode="&#xaf;" horiz-adv-x="488" d="M167 585 L429 585 L443 653 L181 653 L167 585 Z " />
<glyph glyph-name="degree" unicode="&#xb0;" horiz-adv-x="400" d="M203 686 C117 686 50 619 50 534 C50 448 116 381 200 381 C284 381 350 448 350 533 C350 619 286 686 203 686 L203 686 Z M202 629 C252 629 293 586 293 534 C293 480 252 438 200 438 C148 438 106 481 106 533 C106 587 148 629 202 629 L202 629 Z " />
<glyph glyph-name="plusminus" unicode="&#xb1;" horiz-adv-x="549" d="M11 55 L11 0 L535 0 L535 55 L11 55 Z M302 662 L247 662 L247 423 L10 423 L10 368 L247 368 L247 129 L302 129 L302 368 L539 368 L539 423 L302 423 L302 662 Z " />
<glyph glyph-name="twosuperior" unicode="&#xb2;" horiz-adv-x="382" d="M49 267 C58 295 69 304 96 304 C113 304 115 303 148 287 L177 272 C199 260 213 256 232 256 C294 256 330 293 352 379 L324 379 C310 325 294 308 256 308 C240 308 226 310 206 316 L167 327 C137 336 137 336 121 336 C105 336 96 334 77 326 C114 367 124 372 204 394 C278 414 307 424 325 438 C354 461 373 496 373 528 C373 582 325 615 246 615 C158 615 79 564 79 507 C79 486 94 471 115 471 C140 471 162 490 162 514 C162 529 152 537 132 537 L122 537 C155 573 180 585 225 585 C276 585 307 563 307 529 C307 511 301 493 291 480 C277 462 262 453 214 437 C77 388 37 354 19 267 L49 267 Z " />
<glyph glyph-name="threesuperior" unicode="&#xb3;" horiz-adv-x="382" d="M165 434 C214 433 233 431 249 424 C271 416 281 401 281 378 C281 323 232 288 154 288 C107 288 87 297 65 326 C98 329 113 341 113 365 C113 380 101 390 81 390 C50 390 25 366 25 337 C25 291 82 257 157 257 C266 257 350 309 350 378 C350 415 325 438 270 450 C307 459 322 464 338 476 C360 492 373 516 373 539 C373 586 324 615 245 615 C162 615 82 571 82 526 C82 508 95 497 116 497 C142 497 161 513 161 535 C161 549 155 554 136 559 C172 579 197 586 230 586 C278 586 306 567 306 535 C306 510 291 487 268 476 C247 467 230 465 171 464 L165 434 Z " />
<glyph glyph-name="acute" unicode="&#xb4;" horiz-adv-x="486" d="M216 540 L252 540 L417 629 C455 650 468 664 468 684 C468 702 456 715 439 715 C423 715 402 704 381 686 L216 540 Z " />
<glyph glyph-name="mu" unicode="&#xb5;" horiz-adv-x="576" d="M442 500 L353 500 L354 131 C318 80 284 58 242 58 C184 58 150 99 150 169 L150 500 L62 500 L62 20 C62 -1 58 -26 51 -56 C34 -118 33 -123 33 -147 C33 -190 54 -219 83 -219 C112 -219 132 -189 132 -145 C132 -124 129 -110 113 -53 C102 -17 101 -8 101 21 L101 33 C143 -3 165 -13 200 -13 C250 -13 301 18 354 80 C362 48 367 36 377 21 C392 0 419 -13 449 -13 C510 -13 553 31 567 108 L540 109 C536 71 515 41 492 41 C462 41 442 77 442 131 L442 500 Z " />
<glyph glyph-name="paragraph" unicode="&#xb6;" horiz-adv-x="538" d="M127 -98 L196 -98 L346 604 L438 604 L289 -98 L358 -98 L507 604 L564 604 L577 667 L315 667 C240 667 183 650 141 615 C92 575 61 509 61 447 C61 366 115 315 202 315 L215 315 L127 -98 Z " />
<glyph glyph-name="periodcentered" unicode="&#xb7;" horiz-adv-x="288" d="M134 285 C99 285 67 255 67 222 C67 196 84 178 109 178 C143 178 176 209 176 242 C176 267 158 285 134 285 L134 285 Z " />
<glyph glyph-name="cedilla" unicode="&#xb8;" horiz-adv-x="475" d="M11 -178 C56 -204 98 -217 139 -217 C212 -217 264 -173 264 -110 C264 -72 240 -49 199 -49 C190 -49 177 -50 165 -51 L176 0 L144 0 L124 -94 C140 -89 148 -88 158 -88 C181 -88 194 -99 194 -119 C194 -154 171 -174 133 -174 C102 -174 66 -159 37 -135 L11 -178 Z " />
<glyph glyph-name="onesuperior" unicode="&#xb9;" horiz-adv-x="382" d="M61 267 L294 267 L300 295 L272 295 C234 295 221 300 221 313 C221 317 222 325 224 334 L284 615 L250 615 C222 572 201 562 125 557 L119 530 L207 530 L165 334 C158 299 155 297 97 295 L67 295 L61 267 Z " />
<glyph glyph-name="ordmasculine" unicode="&#xba;" horiz-adv-x="346" d="M234 622 C129 622 43 536 43 431 C43 364 95 318 170 318 C275 318 361 404 361 509 C361 576 309 622 234 622 L234 622 Z M227 586 C271 586 295 560 295 513 C295 476 283 432 265 404 C244 371 214 354 177 354 C133 354 109 379 109 426 C109 518 159 586 227 586 L227 586 Z " />
<glyph glyph-name="guillemotright" unicode="&#xbb;" horiz-adv-x="434" d="M59 72 L119 142 C181 211 188 222 188 253 C188 272 186 278 160 333 L129 403 L80 403 L108 293 C109 289 112 261 112 255 C112 237 100 204 85 182 L10 72 L59 72 Z M221 72 L282 142 C343 211 350 223 350 253 C350 273 348 278 323 333 L291 403 L243 403 L271 293 C274 262 274 262 274 255 C274 237 262 204 247 182 L173 72 L221 72 Z " />
<glyph glyph-name="onequarter" unicode="&#xbc;" horiz-adv-x="920" d="M61 267 L294 267 L300 295 L272 295 C234 295 221 300 221 313 C221 317 222 325 224 334 L284 615 L250 615 C222 572 201 562 125 557 L119 530 L207 530 L165 334 C158 299 155 297 97 295 L67 295 L61 267 Z M152 -17 L210 -17 L759 622 L701 622 L152 -17 Z M605 0 L824 0 L830 28 L796 28 C767 28 756 33 756 45 C756 48 757 55 758 62 L767 101 L845 101 L852 133 L773 133 L819 348 L780 348 L513 129 L507 101 L709 101 L700 59 C694 32 688 29 649 28 L611 28 L605 0 Z M716 133 L564 133 L748 285 L716 133 Z " />
<glyph glyph-name="onehalf" unicode="&#xbd;" horiz-adv-x="920" d="M61 267 L294 267 L300 295 L272 295 C234 295 221 300 221 313 C221 317 222 325 224 334 L284 615 L250 615 C222 572 201 562 125 557 L119 530 L207 530 L165 334 C158 299 155 297 97 295 L67 295 L61 267 Z M152 -17 L210 -17 L759 622 L701 622 L152 -17 Z M530 0 C538 28 550 37 576 37 C594 37 598 36 628 20 L657 5 C678 -6 694 -10 713 -10 C775 -10 811 27 833 113 L804 113 C790 58 774 42 736 42 C721 42 703 45 687 49 L647 61 C622 68 617 69 601 69 C586 69 577 67 558 60 C595 101 605 106 684 127 C756 146 787 158 805 172 C835 194 853 229 853 262 C853 315 805 348 726 348 C639 348 560 297 560 240 C560 219 575 204 596 204 C621 204 643 223 643 247 C643 262 633 270 613 270 L603 270 C636 306 661 318 705 318 C756 318 787 296 787 262 C787 244 781 227 771 214 C757 195 741 186 695 170 C557 122 517 87 500 0 L530 0 Z " />
<glyph glyph-name="threequarters" unicode="&#xbe;" horiz-adv-x="920" d="M165 434 C214 433 233 431 249 424 C271 416 281 401 281 378 C281 323 232 288 154 288 C107 288 87 297 65 326 C98 329 113 341 113 365 C113 380 101 390 81 390 C50 390 25 366 25 337 C25 291 82 257 157 257 C266 257 350 309 350 378 C350 415 325 438 270 450 C307 459 322 464 338 476 C360 492 373 516 373 539 C373 586 324 615 245 615 C162 615 82 571 82 526 C82 508 95 497 116 497 C142 497 161 513 161 535 C161 549 155 554 136 559 C172 579 197 586 230 586 C278 586 306 567 306 535 C306 510 291 487 268 476 C247 467 230 465 171 464 L165 434 Z M152 -17 L210 -17 L760 622 L701 622 L152 -17 Z M606 0 L824 0 L830 28 L796 28 C767 28 756 33 756 45 C756 48 757 54 759 62 L767 101 L845 101 L852 133 L774 133 L819 348 L780 348 L513 129 L507 101 L709 101 L700 59 C694 32 688 29 650 28 L612 28 L606 0 Z M716 133 L564 133 L748 285 L716 133 Z " />
<glyph glyph-name="questiondown" unicode="&#xbf;" horiz-adv-x="472" d="M294 481 C258 481 225 449 225 415 C225 390 244 371 268 371 C304 371 337 402 337 436 C337 463 319 481 294 481 L294 481 Z M228 287 C205 202 198 193 116 138 C45 91 22 72 -5 40 C-35 5 -53 -41 -53 -83 C-53 -169 13 -221 121 -221 C198 -221 267 -193 313 -144 C348 -108 369 -61 369 -19 C369 27 347 55 309 55 C267 55 235 24 235 -15 C235 -40 249 -53 276 -53 C288 -53 298 -50 317 -40 C307 -81 296 -100 268 -124 C237 -151 190 -167 147 -167 C83 -167 42 -133 42 -80 C42 -27 69 19 131 70 C237 156 250 175 276 287 L228 287 Z " />
<glyph glyph-name="Agrave" unicode="&#xc0;" horiz-adv-x="665" d="M-90 0 L183 0 L195 53 L147 53 C104 53 91 57 91 72 C91 82 99 101 116 130 L171 223 L412 223 L428 110 C429 104 429 98 429 90 C429 61 416 53 368 53 L317 53 L306 0 L606 0 L617 53 L591 53 C545 54 531 67 525 114 L441 667 L362 667 L40 111 C12 64 -4 54 -48 53 L-79 53 L-90 0 Z M201 276 L361 561 L403 276 L201 276 Z M451 706 L486 706 L376 827 C365 839 351 846 340 846 C317 846 296 825 296 802 C296 788 303 779 322 770 L451 706 Z " />
<glyph glyph-name="Aacute" unicode="&#xc1;" horiz-adv-x="665" d="M-90 0 L183 0 L195 53 L147 53 C104 53 91 57 91 72 C91 82 99 101 116 130 L171 223 L412 223 L428 110 C429 104 429 98 429 90 C429 61 416 53 368 53 L317 53 L306 0 L606 0 L617 53 L591 53 C545 54 531 67 525 114 L441 667 L362 667 L40 111 C12 64 -4 54 -48 53 L-79 53 L-90 0 Z M201 276 L361 561 L403 276 L201 276 Z M373 706 L530 770 C558 782 572 797 572 818 C572 834 560 846 544 846 C532 846 516 839 500 827 L339 706 L373 706 Z " />
<glyph glyph-name="Acircumflex" unicode="&#xc2;" horiz-adv-x="665" d="M-90 0 L183 0 L195 53 L147 53 C104 53 91 57 91 72 C91 82 99 101 116 130 L171 223 L412 223 L428 110 C429 104 429 98 429 90 C429 61 416 53 368 53 L317 53 L306 0 L606 0 L617 53 L591 53 C545 54 531 67 525 114 L441 667 L362 667 L40 111 C12 64 -4 54 -48 53 L-79 53 L-90 0 Z M201 276 L361 561 L403 276 L201 276 Z M269 706 L301 706 L426 777 L522 706 L554 706 L476 838 L402 838 L269 706 Z " />
<glyph glyph-name="Atilde" unicode="&#xc3;" horiz-adv-x="665" d="M-90 0 L183 0 L195 53 L147 53 C104 53 91 57 91 72 C91 82 99 101 116 130 L171 223 L412 223 L428 110 C429 104 429 98 429 90 C429 61 416 53 368 53 L317 53 L306 0 L606 0 L617 53 L591 53 C545 54 531 67 525 114 L441 667 L362 667 L40 111 C12 64 -4 54 -48 53 L-79 53 L-90 0 Z M201 276 L361 561 L403 276 L201 276 Z M547 835 C532 807 520 798 496 797 C488 797 480 797 473 799 L424 812 C413 815 401 817 391 817 C369 817 349 808 329 791 C307 772 295 753 276 708 L304 708 C320 738 336 750 357 749 C364 749 374 747 386 744 L435 731 C443 729 450 728 459 728 C508 728 542 760 575 835 L547 835 Z " />
<glyph glyph-name="Adieresis" unicode="&#xc4;" horiz-adv-x="665" d="M-90 0 L183 0 L195 53 L147 53 C104 53 91 57 91 72 C91 82 99 101 116 130 L171 223 L412 223 L428 110 C429 104 429 98 429 90 C429 61 416 53 368 53 L317 53 L306 0 L606 0 L617 53 L591 53 C545 54 531 67 525 114 L441 667 L362 667 L40 111 C12 64 -4 54 -48 53 L-79 53 L-90 0 Z M201 276 L361 561 L403 276 L201 276 Z M350 821 C317 821 286 792 286 761 C286 736 302 720 326 720 C359 720 389 749 389 780 C389 803 372 821 350 821 L350 821 Z M520 821 C487 821 456 792 456 761 C456 736 472 720 496 720 C529 720 559 749 559 780 C559 803 542 821 520 821 L520 821 Z " />
<glyph glyph-name="Aring" unicode="&#xc5;" horiz-adv-x="665" d="M-90 0 L183 0 L195 53 L147 53 C104 53 91 57 91 72 C91 82 99 101 116 130 L171 223 L412 223 L428 110 C429 104 429 98 429 90 C429 61 416 53 368 53 L317 53 L306 0 L606 0 L617 53 L591 53 C545 54 531 67 525 114 L441 667 L362 667 L40 111 C12 64 -4 54 -48 53 L-79 53 L-90 0 Z M201 276 L361 561 L403 276 L201 276 Z M447 893 C383 893 327 840 327 780 C327 733 358 701 403 701 C464 701 523 757 523 817 C523 861 491 893 447 893 L447 893 Z M436 848 C460 848 477 831 477 807 C477 776 445 746 412 746 C388 746 372 763 372 788 C372 820 402 848 436 848 L436 848 Z " />
<glyph glyph-name="AE" unicode="&#xc6;" horiz-adv-x="1043" d="M230 270 L464 270 L433 126 C421 63 412 55 352 53 L307 53 L295 0 L895 0 L952 271 L904 271 C859 88 827 56 687 53 L506 53 L563 323 L627 323 C687 323 709 308 709 269 C709 250 708 241 697 178 L745 178 L814 505 L767 505 C742 392 724 374 639 376 L575 376 L625 614 L795 614 C909 614 946 589 946 513 C946 486 944 466 934 416 L983 416 L1036 667 L330 667 L318 614 L365 614 C409 614 425 608 425 589 C425 578 416 562 397 541 L8 111 C-34 66 -59 52 -93 53 L-112 53 L-123 0 L133 0 L145 53 L120 53 C80 53 66 58 66 72 C66 83 78 102 103 130 L230 270 Z M276 323 L525 614 L537 614 L475 323 L276 323 Z " />
<glyph glyph-name="Ccedilla" unicode="&#xc7;" horiz-adv-x="670" d="M546 243 C520 173 503 143 471 110 C427 65 370 41 307 41 C197 41 136 112 136 240 C136 328 162 417 210 492 C268 583 342 631 423 631 C517 631 586 559 586 461 C586 449 585 428 584 408 L632 408 L687 667 L643 667 L607 607 C538 669 498 687 429 687 C216 687 27 477 27 241 C27 96 105 -1 236 -17 L219 -101 C234 -96 242 -95 252 -95 C275 -95 288 -106 288 -126 C288 -155 264 -174 229 -174 C197 -174 163 -160 132 -135 L106 -178 C151 -204 194 -217 234 -217 C272 -217 304 -207 324 -188 C346 -169 359 -141 359 -118 C359 -80 334 -56 293 -56 C284 -56 272 -57 259 -58 L267 -19 C274 -20 279 -20 282 -20 C347 -20 407 -4 455 26 C527 72 565 127 602 243 L546 243 Z " />
<glyph glyph-name="Egrave" unicode="&#xc8;" horiz-adv-x="703" d="M-42 0 L558 0 L616 271 L567 271 C522 88 490 56 351 53 L169 53 L227 323 L290 323 C350 323 372 308 372 269 C372 250 371 241 361 178 L408 178 L478 505 L430 505 C405 392 387 374 303 376 L238 376 L288 614 L458 614 C572 614 609 589 609 513 C609 486 607 466 598 416 L646 416 L700 667 L100 667 L88 614 L127 614 C168 614 184 606 184 584 C184 578 183 571 176 541 L88 126 C76 63 68 55 7 53 L-31 53 L-42 0 Z M471 706 L505 706 L395 827 C385 839 371 846 360 846 C337 846 316 825 316 802 C316 788 323 779 342 770 L471 706 Z " />
<glyph glyph-name="Eacute" unicode="&#xc9;" horiz-adv-x="703" d="M-42 0 L558 0 L616 271 L567 271 C522 88 490 56 351 53 L169 53 L227 323 L290 323 C350 323 372 308 372 269 C372 250 371 241 361 178 L408 178 L478 505 L430 505 C405 392 387 374 303 376 L238 376 L288 614 L458 614 C572 614 609 589 609 513 C609 486 607 466 598 416 L646 416 L700 667 L100 667 L88 614 L127 614 C168 614 184 606 184 584 C184 578 183 571 176 541 L88 126 C76 63 68 55 7 53 L-31 53 L-42 0 Z M393 706 L550 770 C578 782 592 797 592 818 C592 834 580 846 564 846 C552 846 536 839 520 827 L358 706 L393 706 Z " />
<glyph glyph-name="Ecircumflex" unicode="&#xca;" horiz-adv-x="703" d="M-42 0 L558 0 L616 271 L567 271 C522 88 490 56 351 53 L169 53 L227 323 L290 323 C350 323 372 308 372 269 C372 250 371 241 361 178 L408 178 L478 505 L430 505 C405 392 387 374 303 376 L238 376 L288 614 L458 614 C572 614 609 589 609 513 C609 486 607 466 598 416 L646 416 L700 667 L100 667 L88 614 L127 614 C168 614 184 606 184 584 C184 578 183 571 176 541 L88 126 C76 63 68 55 7 53 L-31 53 L-42 0 Z M288 706 L320 706 L446 777 L542 706 L574 706 L496 838 L422 838 L288 706 Z " />
<glyph glyph-name="Edieresis" unicode="&#xcb;" horiz-adv-x="703" d="M-42 0 L558 0 L616 271 L567 271 C522 88 490 56 351 53 L169 53 L227 323 L290 323 C350 323 372 308 372 269 C372 250 371 241 361 178 L408 178 L478 505 L430 505 C405 392 387 374 303 376 L238 376 L288 614 L458 614 C572 614 609 589 609 513 C609 486 607 466 598 416 L646 416 L700 667 L100 667 L88 614 L127 614 C168 614 184 606 184 584 C184 578 183 571 176 541 L88 126 C76 63 68 55 7 53 L-31 53 L-42 0 Z M372 821 C339 821 308 792 308 760 C308 736 324 720 349 720 C382 720 412 749 412 780 C412 803 395 821 372 821 L372 821 Z M542 821 C509 821 478 792 478 760 C478 736 494 720 519 720 C552 720 582 749 582 780 C582 803 565 821 542 821 L542 821 Z " />
<glyph glyph-name="Igrave" unicode="&#xcc;" horiz-adv-x="368" d="M-43 0 L269 0 L280 53 L239 53 C198 53 182 61 182 83 C182 90 185 107 189 126 L277 541 C289 604 298 612 358 614 L399 614 L411 667 L99 667 L87 614 L129 614 C170 614 186 605 186 584 C186 577 184 564 179 541 L91 126 C79 63 70 55 10 53 L-32 53 L-43 0 Z M303 706 L337 706 L227 827 C217 839 203 846 192 846 C169 846 148 825 148 802 C148 788 155 779 173 770 L303 706 Z " />
<glyph glyph-name="Iacute" unicode="&#xcd;" horiz-adv-x="368" d="M-43 0 L269 0 L280 53 L239 53 C198 53 182 61 182 83 C182 90 185 107 189 126 L277 541 C289 604 298 612 358 614 L399 614 L411 667 L99 667 L87 614 L129 614 C170 614 186 605 186 584 C186 577 184 564 179 541 L91 126 C79 63 70 55 10 53 L-32 53 L-43 0 Z M225 706 L381 770 C410 782 424 797 424 818 C424 834 412 846 396 846 C384 846 367 839 352 827 L190 706 L225 706 Z " />
<glyph glyph-name="Icircumflex" unicode="&#xce;" horiz-adv-x="368" d="M-43 0 L269 0 L280 53 L239 53 C198 53 182 61 182 83 C182 90 185 107 189 126 L277 541 C289 604 298 612 358 614 L399 614 L411 667 L99 667 L87 614 L129 614 C170 614 186 605 186 584 C186 577 184 564 179 541 L91 126 C79 63 70 55 10 53 L-32 53 L-43 0 Z M120 706 L152 706 L278 777 L374 706 L406 706 L328 838 L254 838 L120 706 Z " />
<glyph glyph-name="Idieresis" unicode="&#xcf;" horiz-adv-x="368" d="M-43 0 L269 0 L280 53 L239 53 C198 53 182 61 182 83 C182 90 185 107 189 126 L277 541 C289 604 298 612 358 614 L399 614 L411 667 L99 667 L87 614 L129 614 C170 614 186 605 186 584 C186 577 184 564 179 541 L91 126 C79 63 70 55 10 53 L-32 53 L-43 0 Z M214 821 C181 821 150 792 150 760 C150 736 166 720 190 720 C223 720 253 749 253 780 C253 803 236 821 214 821 L214 821 Z M364 821 C331 821 300 792 300 760 C300 736 316 720 341 720 C374 720 404 749 404 780 C404 803 387 821 364 821 L364 821 Z " />
<glyph glyph-name="Eth" unicode="&#xd0;" horiz-adv-x="750" d="M-39 0 L268 0 C353 0 417 6 458 18 C514 35 570 72 613 121 C683 201 727 319 727 427 C727 501 708 556 668 599 C619 652 563 667 411 667 L103 667 L91 614 L130 614 C171 614 187 605 187 584 C187 578 186 570 179 541 L141 361 L11 361 L0 313 L131 313 L91 126 C79 63 70 55 10 53 L-28 53 L-39 0 Z M228 313 L406 313 L417 361 L238 361 L292 614 L400 614 C472 614 526 602 557 580 C597 550 621 497 621 438 C621 354 590 244 547 177 C493 93 406 53 279 53 L173 53 L228 313 Z " />
<glyph glyph-name="Ntilde" unicode="&#xd1;" horiz-adv-x="783" d="M594 -3 L710 541 C722 604 731 612 791 614 L821 614 L833 667 L555 667 L543 614 L592 614 C634 614 650 605 650 584 C650 577 648 567 643 541 L556 131 L313 667 L100 667 L88 614 L125 614 C166 614 182 605 182 584 C182 577 180 563 175 541 L87 126 C75 63 66 55 6 53 L-31 53 L-42 0 L240 0 L251 53 L204 53 C163 53 147 61 147 83 C147 90 150 107 154 126 L249 577 L511 -3 L594 -3 Z M607 835 C591 807 580 798 555 797 C548 797 540 797 533 799 L483 812 C472 815 461 817 451 817 C429 817 409 808 389 791 C367 772 355 753 336 708 L364 708 C380 738 396 750 416 749 C424 749 434 747 445 744 L495 731 C502 729 510 728 519 728 C567 728 602 760 635 835 L607 835 Z " />
<glyph glyph-name="Ograve" unicode="&#xd2;" horiz-adv-x="755" d="M453 687 C225 687 29 485 29 249 C29 86 137 -19 303 -19 C529 -19 726 184 726 417 C726 581 619 687 453 687 L453 687 Z M441 632 C549 632 620 554 620 435 C620 348 593 249 550 181 C491 88 406 36 314 36 C206 36 135 114 135 231 C135 319 162 420 205 487 C263 579 349 632 441 632 L441 632 Z M496 706 L531 706 L420 827 C410 839 396 846 385 846 C362 846 341 825 341 802 C341 788 348 779 367 770 L496 706 Z " />
<glyph glyph-name="Oacute" unicode="&#xd3;" horiz-adv-x="755" d="M453 687 C225 687 29 485 29 249 C29 86 137 -19 303 -19 C529 -19 726 184 726 417 C726 581 619 687 453 687 L453 687 Z M441 632 C549 632 620 554 620 435 C620 348 593 249 550 181 C491 88 406 36 314 36 C206 36 135 114 135 231 C135 319 162 420 205 487 C263 579 349 632 441 632 L441 632 Z M418 706 L575 770 C603 782 617 797 617 818 C617 834 605 846 589 846 C577 846 561 839 545 827 L384 706 L418 706 Z " />
<glyph glyph-name="Ocircumflex" unicode="&#xd4;" horiz-adv-x="755" d="M453 687 C225 687 29 485 29 249 C29 86 137 -19 303 -19 C529 -19 726 184 726 417 C726 581 619 687 453 687 L453 687 Z M441 632 C549 632 620 554 620 435 C620 348 593 249 550 181 C491 88 406 36 314 36 C206 36 135 114 135 231 C135 319 162 420 205 487 C263 579 349 632 441 632 L441 632 Z M314 706 L346 706 L471 777 L567 706 L599 706 L521 838 L447 838 L314 706 Z " />
<glyph glyph-name="Otilde" unicode="&#xd5;" horiz-adv-x="755" d="M453 687 C225 687 29 485 29 249 C29 86 137 -19 303 -19 C529 -19 726 184 726 417 C726 581 619 687 453 687 L453 687 Z M441 632 C549 632 620 554 620 435 C620 348 593 249 550 181 C491 88 406 36 314 36 C206 36 135 114 135 231 C135 319 162 420 205 487 C263 579 349 632 441 632 L441 632 Z M592 835 C576 807 565 798 540 797 C533 797 525 797 518 799 L468 812 C458 815 446 817 436 817 C414 817 394 809 374 791 C352 772 340 753 321 708 L349 708 C365 738 381 750 401 749 C409 749 419 747 430 744 L480 731 C487 729 495 728 504 728 C552 728 587 760 620 835 L592 835 Z " />
<glyph glyph-name="Odieresis" unicode="&#xd6;" horiz-adv-x="755" d="M453 687 C225 687 29 485 29 249 C29 86 137 -19 303 -19 C529 -19 726 184 726 417 C726 581 619 687 453 687 L453 687 Z M441 632 C549 632 620 554 620 435 C620 348 593 249 550 181 C491 88 406 36 314 36 C206 36 135 114 135 231 C135 319 162 420 205 487 C263 579 349 632 441 632 L441 632 Z M397 821 C364 821 333 792 333 760 C333 736 349 720 374 720 C407 720 437 749 437 780 C437 803 420 821 397 821 L397 821 Z M567 821 C534 821 503 792 503 760 C503 736 519 720 544 720 C577 720 607 749 607 780 C607 803 590 821 567 821 L567 821 Z " />
<glyph glyph-name="multiply" unicode="&#xd7;" horiz-adv-x="481" d="M24 165 L58 118 L226 263 L333 118 L386 165 L280 309 L448 454 L414 500 L246 356 L139 500 L85 454 L192 309 L24 165 Z " />
<glyph glyph-name="Oslash" unicode="&#xd8;" horiz-adv-x="755" d="M-13 7 L12 -28 L103 56 C126 36 143 23 156 15 C193 -7 244 -19 301 -19 C416 -19 522 28 603 116 C680 198 726 312 726 418 C726 477 716 513 678 581 L764 659 L739 694 L650 611 C628 631 614 642 600 650 C561 673 505 687 449 687 C337 687 233 640 151 552 C75 470 28 355 28 248 C28 191 38 157 75 88 L-13 7 Z M609 517 C619 476 622 457 622 431 C622 375 601 288 573 225 C523 111 419 36 312 36 C250 36 217 52 163 110 L609 517 Z M144 150 C135 187 132 204 132 229 C132 448 273 632 440 632 C503 632 544 612 590 557 L144 150 Z " />
<glyph glyph-name="Ugrave" unicode="&#xd9;" horiz-adv-x="722" d="M88 614 L118 614 C159 614 175 605 175 584 C175 578 174 570 168 541 L97 209 C92 185 89 160 89 138 C89 37 161 -20 288 -20 C364 -20 430 2 481 43 C534 87 565 147 586 244 L649 541 C661 604 670 612 730 614 L758 614 L770 667 L497 667 L486 614 L532 614 C574 614 590 605 590 584 C590 578 589 569 583 541 L519 244 C502 162 482 120 447 91 C414 62 366 47 313 47 C231 47 187 82 187 148 C187 169 189 188 193 209 L264 541 C276 604 285 612 345 614 L391 614 L402 667 L99 667 L88 614 Z M480 706 L514 706 L404 827 C394 839 380 846 369 846 C346 846 325 825 325 802 C325 788 332 779 351 770 L480 706 Z " />
<glyph glyph-name="Uacute" unicode="&#xda;" horiz-adv-x="722" d="M88 614 L118 614 C159 614 175 605 175 584 C175 578 174 570 168 541 L97 209 C92 185 89 160 89 138 C89 37 161 -20 288 -20 C364 -20 430 2 481 43 C534 87 565 147 586 244 L649 541 C661 604 670 612 730 614 L758 614 L770 667 L497 667 L486 614 L532 614 C574 614 590 605 590 584 C590 578 589 569 583 541 L519 244 C502 162 482 120 447 91 C414 62 366 47 313 47 C231 47 187 82 187 148 C187 169 189 188 193 209 L264 541 C276 604 285 612 345 614 L391 614 L402 667 L99 667 L88 614 Z M402 706 L559 770 C587 782 601 797 601 818 C601 834 589 846 573 846 C561 846 545 839 529 827 L367 706 L402 706 Z " />
<glyph glyph-name="Ucircumflex" unicode="&#xdb;" horiz-adv-x="722" d="M88 614 L118 614 C159 614 175 605 175 584 C175 578 174 570 168 541 L97 209 C92 185 89 160 89 138 C89 37 161 -20 288 -20 C364 -20 430 2 481 43 C534 87 565 147 586 244 L649 541 C661 604 670 612 730 614 L758 614 L770 667 L497 667 L486 614 L532 614 C574 614 590 605 590 584 C590 578 589 569 583 541 L519 244 C502 162 482 120 447 91 C414 62 366 47 313 47 C231 47 187 82 187 148 C187 169 189 188 193 209 L264 541 C276 604 285 612 345 614 L391 614 L402 667 L99 667 L88 614 Z M297 706 L329 706 L455 777 L551 706 L583 706 L505 838 L431 838 L297 706 Z " />
<glyph glyph-name="Udieresis" unicode="&#xdc;" horiz-adv-x="722" d="M88 614 L118 614 C159 614 175 605 175 584 C175 578 174 570 168 541 L97 209 C92 185 89 160 89 138 C89 37 161 -20 288 -20 C364 -20 430 2 481 43 C534 87 565 147 586 244 L649 541 C661 604 670 612 730 614 L758 614 L770 667 L497 667 L486 614 L532 614 C574 614 590 605 590 584 C590 578 589 569 583 541 L519 244 C502 162 482 120 447 91 C414 62 366 47 313 47 C231 47 187 82 187 148 C187 169 189 188 193 209 L264 541 C276 604 285 612 345 614 L391 614 L402 667 L99 667 L88 614 Z M392 821 C359 821 328 792 328 760 C328 736 344 720 368 720 C401 720 431 749 431 780 C431 803 414 821 392 821 L392 821 Z M561 821 C528 821 497 792 497 760 C497 736 513 720 538 720 C571 720 601 749 601 780 C601 803 584 821 561 821 L561 821 Z " />
<glyph glyph-name="Yacute" unicode="&#xdd;" horiz-adv-x="604" d="M235 263 L206 126 C194 63 185 55 125 53 L67 53 L55 0 L400 0 L411 53 L351 53 C311 53 295 61 295 83 C295 89 296 97 302 126 L332 263 L544 532 C597 597 622 614 661 614 L683 614 L694 667 L437 667 L426 614 L490 614 C507 614 519 608 519 599 C519 592 511 577 501 564 L315 331 L232 555 C228 565 226 577 226 585 C226 605 238 614 264 614 L327 614 L338 667 L47 667 L36 614 L63 614 C96 612 117 593 132 550 L235 263 Z M343 706 L499 770 C528 782 542 797 542 818 C542 834 530 846 514 846 C502 846 486 839 470 827 L308 706 L343 706 Z " />
<glyph glyph-name="Thorn" unicode="&#xde;" horiz-adv-x="646" d="M-42 0 L269 0 L280 53 L234 53 C191 53 175 62 175 83 C175 89 177 99 182 126 L189 158 L293 158 C427 158 486 172 538 214 C588 255 618 320 618 386 C618 423 608 449 587 472 C552 508 492 522 363 522 L267 522 L271 541 C283 604 292 612 353 614 L400 614 L411 667 L100 667 L88 614 L128 614 C170 614 186 605 186 584 C186 577 184 565 179 541 L91 126 C79 63 70 55 8 53 L-31 53 L-42 0 Z M200 211 L255 469 L354 469 C474 469 517 445 517 378 C517 338 500 294 474 265 C442 229 385 211 305 211 L200 211 Z " />
<glyph glyph-name="germandbls" unicode="&#xdf;" horiz-adv-x="594" d="M-57 0 L113 0 L207 442 C224 521 240 563 265 591 C291 619 324 634 362 634 C413 634 442 607 442 559 C442 519 426 484 398 462 C369 439 339 431 269 430 L258 379 C322 379 349 374 374 359 C405 341 420 309 420 259 C420 213 407 155 386 111 C362 60 333 36 298 36 C266 36 249 57 249 95 C249 110 252 131 258 168 L207 168 C200 134 195 97 195 78 C195 14 226 -17 288 -17 C347 -17 399 10 443 63 C489 118 518 197 518 265 C518 307 503 345 477 370 C460 386 437 397 395 410 C456 428 482 444 506 475 C525 501 537 535 537 567 C537 638 475 684 378 684 C245 684 156 599 122 442 L51 105 C41 58 30 50 -22 48 L-44 48 L-57 0 Z " />
<glyph glyph-name="agrave" unicode="&#xe0;" horiz-adv-x="524" d="M442 159 C418 62 405 38 375 38 C361 38 352 47 353 62 C353 70 355 82 358 95 L407 327 C413 352 416 377 416 392 C416 448 356 486 266 486 C155 486 56 420 56 345 C56 319 75 300 101 300 C135 300 164 327 164 360 C164 382 156 392 130 399 C173 430 202 441 242 441 C300 441 335 415 335 372 C335 354 327 329 316 314 C304 296 282 284 241 273 L162 251 C90 231 55 215 26 189 C-5 161 -23 122 -23 81 C-23 19 20 -18 92 -18 C153 -18 201 3 272 61 C277 4 297 -17 348 -17 C422 -17 457 28 486 159 L442 159 Z M296 199 C283 137 264 103 227 74 C200 54 163 41 131 41 C94 41 73 60 73 94 C73 144 108 181 176 203 L215 216 C244 225 255 230 308 253 L296 199 Z M369 540 L266 686 C253 704 235 715 220 715 C197 715 174 692 174 669 C174 656 183 645 206 629 L333 540 L369 540 Z " />
<glyph glyph-name="aacute" unicode="&#xe1;" horiz-adv-x="524" d="M442 159 C418 62 405 38 375 38 C361 38 352 47 353 62 C353 70 355 82 358 95 L407 327 C413 352 416 377 416 392 C416 448 356 486 266 486 C155 486 56 420 56 345 C56 319 75 300 101 300 C135 300 164 327 164 360 C164 382 156 392 130 399 C173 430 202 441 242 441 C300 441 335 415 335 372 C335 354 327 329 316 314 C304 296 282 284 241 273 L162 251 C90 231 55 215 26 189 C-5 161 -23 122 -23 81 C-23 19 20 -18 92 -18 C153 -18 201 3 272 61 C277 4 297 -17 348 -17 C422 -17 457 28 486 159 L442 159 Z M296 199 C283 137 264 103 227 74 C200 54 163 41 131 41 C94 41 73 60 73 94 C73 144 108 181 176 203 L215 216 C244 225 255 230 308 253 L296 199 Z M235 540 L271 540 L435 629 C474 650 487 664 487 684 C487 702 475 715 458 715 C442 715 421 704 400 686 L235 540 Z " />
<glyph glyph-name="acircumflex" unicode="&#xe2;" horiz-adv-x="524" d="M442 159 C418 62 405 38 375 38 C361 38 352 47 353 62 C353 70 355 82 358 95 L407 327 C413 352 416 377 416 392 C416 448 356 486 266 486 C155 486 56 420 56 345 C56 319 75 300 101 300 C135 300 164 327 164 360 C164 382 156 392 130 399 C173 430 202 441 242 441 C300 441 335 415 335 372 C335 354 327 329 316 314 C304 296 282 284 241 273 L162 251 C90 231 55 215 26 189 C-5 161 -23 122 -23 81 C-23 19 20 -18 92 -18 C153 -18 201 3 272 61 C277 4 297 -17 348 -17 C422 -17 457 28 486 159 L442 159 Z M296 199 C283 137 264 103 227 74 C200 54 163 41 131 41 C94 41 73 60 73 94 C73 144 108 181 176 203 L215 216 C244 225 255 230 308 253 L296 199 Z M144 540 L179 540 L307 635 L394 540 L429 540 L355 709 L290 709 L144 540 Z " />
<glyph glyph-name="atilde" unicode="&#xe3;" horiz-adv-x="524" d="M442 159 C418 62 405 38 375 38 C361 38 352 47 353 62 C353 70 355 82 358 95 L407 327 C413 352 416 377 416 392 C416 448 356 486 266 486 C155 486 56 420 56 345 C56 319 75 300 101 300 C135 300 164 327 164 360 C164 382 156 392 130 399 C173 430 202 441 242 441 C300 441 335 415 335 372 C335 354 327 329 316 314 C304 296 282 284 241 273 L162 251 C90 231 55 215 26 189 C-5 161 -23 122 -23 81 C-23 19 20 -18 92 -18 C153 -18 201 3 272 61 C277 4 297 -17 348 -17 C422 -17 457 28 486 159 L442 159 Z M296 199 C283 137 264 103 227 74 C200 54 163 41 131 41 C94 41 73 60 73 94 C73 144 108 181 176 203 L215 216 C244 225 255 230 308 253 L296 199 Z M428 694 C411 662 399 652 374 652 C367 652 359 653 352 655 L303 668 C292 671 279 673 270 673 C249 673 229 664 209 647 C186 627 174 607 154 560 L182 560 C199 593 213 604 236 604 C242 604 254 602 265 599 L314 586 C322 584 331 583 339 583 C388 583 421 615 456 694 L428 694 Z " />
<glyph glyph-name="adieresis" unicode="&#xe4;" horiz-adv-x="524" d="M442 159 C418 62 405 38 375 38 C361 38 352 47 353 62 C353 70 355 82 358 95 L407 327 C413 352 416 377 416 392 C416 448 356 486 266 486 C155 486 56 420 56 345 C56 319 75 300 101 300 C135 300 164 327 164 360 C164 382 156 392 130 399 C173 430 202 441 242 441 C300 441 335 415 335 372 C335 354 327 329 316 314 C304 296 282 284 241 273 L162 251 C90 231 55 215 26 189 C-5 161 -23 122 -23 81 C-23 19 20 -18 92 -18 C153 -18 201 3 272 61 C277 4 297 -17 348 -17 C422 -17 457 28 486 159 L442 159 Z M296 199 C283 137 264 103 227 74 C200 54 163 41 131 41 C94 41 73 60 73 94 C73 144 108 181 176 203 L215 216 C244 225 255 230 308 253 L296 199 Z M243 674 C207 674 174 643 174 609 C174 582 191 565 219 565 C253 565 285 596 285 630 C285 655 267 674 243 674 L243 674 Z M420 674 C385 674 351 642 351 609 C351 582 369 565 396 565 C430 565 462 596 462 630 C462 655 444 674 420 674 L420 674 Z " />
<glyph glyph-name="aring" unicode="&#xe5;" horiz-adv-x="524" d="M442 159 C418 62 405 38 375 38 C361 38 352 47 353 62 C353 70 355 82 358 95 L407 327 C413 352 416 377 416 392 C416 448 356 486 266 486 C155 486 56 420 56 345 C56 319 75 300 101 300 C135 300 164 327 164 360 C164 382 156 392 130 399 C173 430 202 441 242 441 C300 441 335 415 335 372 C335 354 327 329 316 314 C304 296 282 284 241 273 L162 251 C90 231 55 215 26 189 C-5 161 -23 122 -23 81 C-23 19 20 -18 92 -18 C153 -18 201 3 272 61 C277 4 297 -17 348 -17 C422 -17 457 28 486 159 L442 159 Z M296 199 C283 137 264 103 227 74 C200 54 163 41 131 41 C94 41 73 60 73 94 C73 144 108 181 176 203 L215 216 C244 225 255 230 308 253 L296 199 Z M331 759 C251 759 180 692 180 617 C180 558 218 519 275 519 C353 519 425 588 425 663 C425 718 385 759 331 759 L331 759 Z M319 708 C351 706 372 685 372 653 C372 610 330 570 286 570 C254 570 232 593 232 626 C232 669 275 710 319 708 L319 708 Z " />
<glyph glyph-name="ae" unicode="&#xe6;" horiz-adv-x="793" d="M655 154 C631 110 617 92 593 74 C564 52 526 39 488 39 C420 39 380 79 380 148 C380 164 384 197 389 226 L739 226 C746 265 750 302 750 328 C750 369 735 410 709 439 C681 470 639 486 584 486 C519 486 483 473 413 424 C394 450 383 460 364 468 C338 480 303 486 264 486 C146 486 47 422 47 345 C47 318 66 299 93 299 C128 299 157 327 157 360 C157 382 148 392 122 399 C168 431 197 442 242 442 C308 442 346 416 346 372 C346 353 338 329 327 313 C312 293 286 280 233 268 L170 254 C33 224 -32 168 -32 81 C-32 18 13 -18 91 -18 C123 -18 157 -11 188 1 C230 18 257 38 308 89 C323 54 335 35 351 21 C380 -3 426 -17 475 -17 C536 -17 587 1 631 38 C665 67 683 92 711 154 L655 154 Z M307 199 C294 137 275 103 237 75 C209 54 167 40 132 40 C89 40 64 60 64 95 C64 147 105 186 177 204 L223 216 C261 226 284 235 319 252 L307 199 Z M404 279 C422 338 434 363 459 390 C488 421 525 437 568 437 C629 437 664 403 664 343 C664 328 662 303 658 279 L404 279 Z " />
<glyph glyph-name="ccedilla" unicode="&#xe7;" horiz-adv-x="486" d="M368 175 C348 130 337 111 318 91 C289 60 246 41 203 41 C135 41 96 85 96 163 C96 225 114 292 144 341 C181 405 236 438 301 438 C326 438 351 432 370 421 C388 411 396 400 406 372 C363 364 342 343 342 308 C342 281 357 266 384 266 C429 266 464 307 464 362 C464 436 397 486 297 486 C136 486 -2 337 -2 161 C-2 61 51 -2 146 -16 L129 -94 C145 -89 152 -88 163 -88 C186 -88 199 -99 199 -119 C199 -154 176 -174 138 -174 C106 -174 71 -160 41 -135 L15 -178 C61 -204 103 -217 143 -217 C217 -217 269 -173 269 -110 C269 -72 244 -49 204 -49 C195 -49 182 -50 170 -51 L177 -18 C292 -20 378 48 423 175 L368 175 Z " />
<glyph glyph-name="egrave" unicode="&#xe8;" horiz-adv-x="500" d="M362 154 C339 110 325 92 301 74 C272 52 233 39 195 39 C127 39 87 80 87 148 C87 164 91 197 97 226 L447 226 C454 265 458 302 458 328 C458 369 443 410 417 439 C389 471 347 486 287 486 C205 486 136 453 80 387 C30 329 -1 242 -1 163 C-1 51 69 -17 183 -17 C244 -17 295 1 339 38 C373 67 391 92 418 154 L362 154 Z M112 279 C130 338 142 363 167 390 C196 421 232 437 276 437 C337 437 372 403 372 343 C372 328 370 303 366 279 L112 279 Z M357 540 L254 686 C241 705 224 716 209 716 C186 716 163 693 163 669 C163 656 172 645 195 629 L321 540 L357 540 Z " />
<glyph glyph-name="eacute" unicode="&#xe9;" horiz-adv-x="500" d="M362 154 C339 110 325 92 301 74 C272 52 233 39 195 39 C127 39 87 80 87 148 C87 164 91 197 97 226 L447 226 C454 265 458 302 458 328 C458 369 443 410 417 439 C389 471 347 486 287 486 C205 486 136 453 80 387 C30 329 -1 242 -1 163 C-1 51 69 -17 183 -17 C244 -17 295 1 339 38 C373 67 391 92 418 154 L362 154 Z M112 279 C130 338 142 363 167 390 C196 421 232 437 276 437 C337 437 372 403 372 343 C372 328 370 303 366 279 L112 279 Z M224 540 L260 540 L424 629 C463 650 476 664 476 684 C476 702 464 715 447 715 C431 715 409 704 389 686 L224 540 Z " />
<glyph glyph-name="ecircumflex" unicode="&#xea;" horiz-adv-x="500" d="M362 154 C339 110 325 92 301 74 C272 52 233 39 195 39 C127 39 87 80 87 148 C87 164 91 197 97 226 L447 226 C454 265 458 302 458 328 C458 369 443 410 417 439 C389 471 347 486 287 486 C205 486 136 453 80 387 C30 329 -1 242 -1 163 C-1 51 69 -17 183 -17 C244 -17 295 1 339 38 C373 67 391 92 418 154 L362 154 Z M112 279 C130 338 142 363 167 390 C196 421 232 437 276 437 C337 437 372 403 372 343 C372 328 370 303 366 279 L112 279 Z M151 540 L187 540 L314 635 L401 540 L437 540 L362 709 L298 709 L151 540 Z " />
<glyph glyph-name="edieresis" unicode="&#xeb;" horiz-adv-x="500" d="M362 154 C339 110 325 92 301 74 C272 52 233 39 195 39 C127 39 87 80 87 148 C87 164 91 197 97 226 L447 226 C454 265 458 302 458 328 C458 369 443 410 417 439 C389 471 347 486 287 486 C205 486 136 453 80 387 C30 329 -1 242 -1 163 C-1 51 69 -17 183 -17 C244 -17 295 1 339 38 C373 67 391 92 418 154 L362 154 Z M112 279 C130 338 142 363 167 390 C196 421 232 437 276 437 C337 437 372 403 372 343 C372 328 370 303 366 279 L112 279 Z M236 674 C200 674 167 643 167 609 C167 582 184 565 212 565 C246 565 278 596 278 630 C278 655 260 674 236 674 L236 674 Z M413 674 C378 674 344 643 344 609 C344 582 362 565 389 565 C423 565 455 596 455 630 C455 655 437 674 413 674 L413 674 Z " />
<glyph glyph-name="igrave" unicode="&#xec;" horiz-adv-x="312" d="M-42 0 L217 0 L227 48 L203 48 C167 48 152 56 152 76 C152 83 154 95 156 105 L233 469 L58 469 L47 421 L78 421 C115 421 130 413 130 393 C130 385 129 374 126 364 L71 105 C62 59 51 50 -2 48 L-32 48 L-42 0 Z M230 540 L186 675 C177 704 165 715 146 715 C122 715 102 696 102 673 C102 660 103 659 129 628 L198 540 L230 540 Z " />
<glyph glyph-name="iacute" unicode="&#xed;" horiz-adv-x="329" d="M-42 0 L217 0 L227 48 L203 48 C167 48 152 56 152 76 C152 83 154 95 156 105 L233 469 L58 469 L47 421 L78 421 C115 421 130 413 130 393 C130 385 129 374 126 364 L71 105 C62 59 51 50 -2 48 L-32 48 L-42 0 Z M136 540 L168 540 L275 628 C320 664 325 669 325 689 C325 704 313 715 297 715 C276 715 259 704 238 675 L136 540 Z " />
<glyph glyph-name="icircumflex" unicode="&#xee;" horiz-adv-x="318" d="M-36 0 L223 0 L233 48 L209 48 C173 48 158 56 158 76 C158 83 160 95 162 105 L239 469 L64 469 L53 421 L84 421 C121 421 136 413 136 393 C136 385 135 374 132 364 L77 105 C68 59 57 50 4 48 L-26 48 L-36 0 Z M64 540 L97 540 L214 635 L290 540 L323 540 L262 709 L197 709 L64 540 Z " />
<glyph glyph-name="idieresis" unicode="&#xef;" horiz-adv-x="314" d="M-40 0 L219 0 L229 48 L205 48 C169 48 154 56 154 76 C154 83 156 95 158 105 L235 469 L60 469 L49 421 L80 421 C117 421 132 413 132 393 C132 385 131 374 128 364 L73 105 C64 59 53 50 0 48 L-30 48 L-40 0 Z M154 674 C117 674 84 643 84 609 C84 582 102 565 130 565 C164 565 196 596 196 630 C196 655 178 674 154 674 L154 674 Z M305 674 C270 674 236 642 236 609 C236 582 254 565 281 565 C315 565 347 596 347 630 C347 655 329 674 305 674 L305 674 Z " />
<glyph glyph-name="eth" unicode="&#xf0;" horiz-adv-x="547" d="M301 667 C317 639 322 630 333 606 L260 578 L273 537 L348 567 C369 518 374 503 383 474 C353 483 333 486 305 486 C226 486 145 450 87 389 C32 333 0 250 0 168 C0 59 81 -17 197 -17 C366 -17 503 125 503 302 C503 377 472 468 404 591 L487 622 L474 663 L382 630 C370 647 368 650 355 667 L301 667 Z M294 435 C367 435 408 391 408 314 C408 247 388 172 356 121 C321 64 270 34 208 34 C135 34 95 78 95 157 C95 222 115 298 146 348 C182 405 233 435 294 435 L294 435 Z " />
<glyph glyph-name="ntilde" unicode="&#xf1;" horiz-adv-x="618" d="M-42 0 L218 0 L228 48 L198 48 C160 48 145 56 145 76 C145 83 146 95 149 105 L183 268 C194 319 212 352 247 384 C279 413 317 429 357 429 C407 429 431 406 431 357 C431 339 427 312 421 281 L383 105 C374 59 363 50 312 48 L282 48 L272 0 L526 0 L536 48 L516 48 C479 48 464 56 464 76 C464 81 466 92 468 105 L503 268 C513 314 519 356 519 375 C519 441 472 482 396 482 C321 482 270 456 209 388 L226 469 L58 469 L47 421 L74 421 C112 421 127 413 127 393 C127 387 125 375 123 364 L68 105 C59 59 47 50 -5 48 L-32 48 L-42 0 Z M495 694 C478 662 466 652 441 652 C434 652 426 653 419 655 L370 668 C359 671 346 673 337 673 C316 673 296 664 276 647 C253 627 241 607 221 560 L249 560 C266 593 280 604 303 604 C309 604 321 602 332 599 L381 586 C389 584 398 583 406 583 C455 583 488 615 523 694 L495 694 Z " />
<glyph glyph-name="ograve" unicode="&#xf2;" horiz-adv-x="547" d="M307 486 C138 486 0 343 0 167 C0 58 81 -17 199 -17 C366 -17 504 127 504 301 C504 410 423 486 307 486 L307 486 Z M295 435 C368 435 409 391 409 312 C409 247 388 171 357 121 C322 64 270 34 209 34 C136 34 95 78 95 155 C95 222 115 297 147 348 C182 405 233 435 295 435 L295 435 Z M380 540 L277 686 C264 704 247 715 232 715 C209 715 186 692 186 669 C186 656 195 645 217 629 L344 540 L380 540 Z " />
<glyph glyph-name="oacute" unicode="&#xf3;" horiz-adv-x="547" d="M307 486 C138 486 0 343 0 167 C0 58 81 -17 199 -17 C366 -17 504 127 504 301 C504 410 423 486 307 486 L307 486 Z M295 435 C368 435 409 391 409 312 C409 247 388 171 357 121 C322 64 270 34 209 34 C136 34 95 78 95 155 C95 222 115 297 147 348 C182 405 233 435 295 435 L295 435 Z M247 540 L283 540 L447 629 C486 650 499 664 499 684 C499 703 487 715 470 715 C454 715 432 704 411 686 L247 540 Z " />
<glyph glyph-name="ocircumflex" unicode="&#xf4;" horiz-adv-x="547" d="M307 486 C138 486 0 343 0 167 C0 58 81 -17 199 -17 C366 -17 504 127 504 301 C504 410 423 486 307 486 L307 486 Z M295 435 C368 435 409 391 409 312 C409 247 388 171 357 121 C322 64 270 34 209 34 C136 34 95 78 95 155 C95 222 115 297 147 348 C182 405 233 435 295 435 L295 435 Z M174 540 L210 540 L337 635 L424 540 L460 540 L385 709 L321 709 L174 540 Z " />
<glyph glyph-name="otilde" unicode="&#xf5;" horiz-adv-x="547" d="M307 486 C138 486 0 343 0 167 C0 58 81 -17 199 -17 C366 -17 504 127 504 301 C504 410 423 486 307 486 L307 486 Z M295 435 C368 435 409 391 409 312 C409 247 388 171 357 121 C322 64 270 34 209 34 C136 34 95 78 95 155 C95 222 115 297 147 348 C182 405 233 435 295 435 L295 435 Z M459 694 C442 662 429 652 404 652 C397 652 390 653 383 655 L334 668 C322 671 309 673 301 673 C279 673 259 664 239 647 C217 627 204 607 184 560 L212 560 C230 593 244 604 266 604 C273 604 285 602 296 599 L345 586 C353 584 362 583 369 583 C418 583 452 615 487 694 L459 694 Z " />
<glyph glyph-name="odieresis" unicode="&#xf6;" horiz-adv-x="547" d="M307 486 C138 486 0 343 0 167 C0 58 81 -17 199 -17 C366 -17 504 127 504 301 C504 410 423 486 307 486 L307 486 Z M295 435 C368 435 409 391 409 312 C409 247 388 171 357 121 C322 64 270 34 209 34 C136 34 95 78 95 155 C95 222 115 297 147 348 C182 405 233 435 295 435 L295 435 Z M260 674 C224 674 191 643 191 608 C191 582 208 565 236 565 C270 565 302 596 302 630 C302 655 284 674 260 674 L260 674 Z M437 674 C402 674 368 642 368 609 C368 582 386 565 413 565 C447 565 479 596 479 630 C479 655 461 674 437 674 L437 674 Z " />
<glyph glyph-name="divide" unicode="&#xf7;" horiz-adv-x="549" d="M273 126 C239 126 211 99 211 64 C211 30 238 2 273 2 C306 2 334 30 334 64 C334 98 306 126 273 126 L273 126 Z M273 525 C239 525 211 498 211 463 C211 429 238 401 273 401 C306 401 334 429 334 463 C334 497 306 525 273 525 L273 525 Z M10 294 L10 239 L536 239 L536 294 L10 294 Z " />
<glyph glyph-name="oslash" unicode="&#xf8;" horiz-adv-x="547" d="M-56 5 L-33 -26 L48 41 C96 -2 134 -17 196 -17 C363 -17 502 126 502 297 C502 331 496 353 477 398 L559 466 L536 497 L453 428 C404 472 368 486 306 486 C141 486 0 344 0 179 C0 147 6 122 25 73 L-56 5 Z M409 341 C409 274 405 252 388 196 C354 89 292 33 206 33 C159 33 132 47 104 88 L409 341 Z M92 128 C91 136 91 143 91 145 C91 201 105 265 131 320 C163 393 224 435 294 435 C343 435 373 419 397 382 L92 128 Z " />
<glyph glyph-name="ugrave" unicode="&#xf9;" horiz-adv-x="613" d="M42 421 L64 421 C104 421 121 412 120 392 C120 385 118 375 116 364 L81 201 C71 155 65 112 65 93 C65 27 110 -13 184 -13 C256 -13 306 13 366 81 L349 0 L520 0 L531 48 L504 48 C468 48 452 56 452 75 C452 82 454 93 456 105 L533 469 L346 469 L336 421 L374 421 C414 421 430 413 430 392 C430 387 428 375 426 364 L391 201 C380 150 363 118 330 85 C299 56 262 40 223 40 C176 40 153 62 153 110 C153 129 157 155 164 188 L223 469 L52 469 L42 421 Z M413 540 L310 686 C297 705 280 716 265 716 C242 716 219 693 219 669 C219 656 228 645 251 629 L377 540 L413 540 Z " />
<glyph glyph-name="uacute" unicode="&#xfa;" horiz-adv-x="613" d="M42 421 L64 421 C104 421 121 412 120 392 C120 385 118 375 116 364 L81 201 C71 155 65 112 65 93 C65 27 110 -13 184 -13 C256 -13 306 13 366 81 L349 0 L520 0 L531 48 L504 48 C468 48 452 56 452 75 C452 82 454 93 456 105 L533 469 L346 469 L336 421 L374 421 C414 421 430 413 430 392 C430 387 428 375 426 364 L391 201 C380 150 363 118 330 85 C299 56 262 40 223 40 C176 40 153 62 153 110 C153 129 157 155 164 188 L223 469 L52 469 L42 421 Z M280 540 L316 540 L480 629 C519 650 532 664 532 684 C532 702 520 715 503 715 C487 715 466 704 445 686 L280 540 Z " />
<glyph glyph-name="ucircumflex" unicode="&#xfb;" horiz-adv-x="613" d="M42 421 L64 421 C104 421 121 412 120 392 C120 385 118 375 116 364 L81 201 C71 155 65 112 65 93 C65 27 110 -13 184 -13 C256 -13 306 13 366 81 L349 0 L520 0 L531 48 L504 48 C468 48 452 56 452 75 C452 82 454 93 456 105 L533 469 L346 469 L336 421 L374 421 C414 421 430 413 430 392 C430 387 428 375 426 364 L391 201 C380 150 363 118 330 85 C299 56 262 40 223 40 C176 40 153 62 153 110 C153 129 157 155 164 188 L223 469 L52 469 L42 421 Z M208 540 L243 540 L370 635 L458 540 L493 540 L419 709 L354 709 L208 540 Z " />
<glyph glyph-name="udieresis" unicode="&#xfc;" horiz-adv-x="613" d="M42 421 L64 421 C104 421 121 412 120 392 C120 385 118 375 116 364 L81 201 C71 155 65 112 65 93 C65 27 110 -13 184 -13 C256 -13 306 13 366 81 L349 0 L520 0 L531 48 L504 48 C468 48 452 56 452 75 C452 82 454 93 456 105 L533 469 L346 469 L336 421 L374 421 C414 421 430 413 430 392 C430 387 428 375 426 364 L391 201 C380 150 363 118 330 85 C299 56 262 40 223 40 C176 40 153 62 153 110 C153 129 157 155 164 188 L223 469 L52 469 L42 421 Z M282 674 C246 674 213 643 213 609 C213 582 231 565 258 565 C292 565 324 596 324 630 C324 655 306 674 282 674 L282 674 Z M459 674 C423 674 389 642 389 609 C389 582 407 565 435 565 C469 565 501 596 501 630 C501 655 483 674 459 674 L459 674 Z " />
<glyph glyph-name="yacute" unicode="&#xfd;" horiz-adv-x="538" d="M172 -3 C89 -132 56 -164 4 -164 C-20 -164 -31 -157 -44 -132 C2 -128 24 -109 24 -71 C24 -46 8 -30 -17 -30 C-62 -30 -100 -74 -100 -128 C-100 -180 -64 -214 -10 -214 C35 -214 72 -198 110 -164 C144 -134 166 -102 254 38 L454 359 C487 411 497 419 531 421 L559 421 L570 469 L344 469 L333 421 L371 421 C402 421 414 416 414 404 C414 396 410 385 402 372 L236 103 L186 367 C184 375 183 384 183 390 C183 413 192 421 221 421 L262 421 L272 469 L31 469 L21 421 L45 421 C81 419 89 412 97 374 L172 -3 Z M243 540 L279 540 L443 629 C482 650 495 664 495 684 C495 702 483 715 466 715 C450 715 429 704 408 686 L243 540 Z " />
<glyph glyph-name="thorn" unicode="&#xfe;" horiz-adv-x="584" d="M129 78 C141 51 152 33 163 21 C186 -3 223 -16 266 -16 C409 -16 530 134 530 310 C530 417 470 484 374 484 C324 484 274 465 238 433 C225 422 217 413 196 390 L255 667 L84 667 L73 619 L99 619 C135 619 150 611 150 591 C150 584 148 572 146 562 L4 -109 C-6 -155 -17 -164 -68 -166 L-88 -166 L-98 -214 L156 -214 L166 -166 L136 -166 C100 -166 85 -158 85 -138 C85 -132 87 -120 89 -109 L129 78 Z M341 426 C400 426 434 384 434 312 C434 253 415 178 388 130 C355 72 312 42 261 42 C194 42 154 88 154 166 C154 308 239 426 341 426 L341 426 Z " />
<glyph glyph-name="ydieresis" unicode="&#xff;" horiz-adv-x="538" d="M172 -3 C89 -132 56 -164 4 -164 C-20 -164 -31 -157 -44 -132 C2 -128 24 -109 24 -71 C24 -46 8 -30 -17 -30 C-62 -30 -100 -74 -100 -128 C-100 -180 -64 -214 -10 -214 C35 -214 72 -198 110 -164 C144 -134 166 -102 254 38 L454 359 C487 411 497 419 531 421 L559 421 L570 469 L344 469 L333 421 L371 421 C402 421 414 416 414 404 C414 396 410 385 402 372 L236 103 L186 367 C184 375 183 384 183 390 C183 413 192 421 221 421 L262 421 L272 469 L31 469 L21 421 L45 421 C81 419 89 412 97 374 L172 -3 Z M255 674 C219 674 186 643 186 609 C186 582 203 565 231 565 C265 565 297 596 297 630 C297 655 279 674 255 674 L255 674 Z M432 674 C397 674 363 643 363 609 C363 582 381 565 408 565 C442 565 474 596 474 630 C474 655 456 674 432 674 L432 674 Z " />
<glyph glyph-name="Amacron" unicode="&#x100;" horiz-adv-x="665" d="M-90 0 L183 0 L195 53 L147 53 C104 53 91 57 91 72 C91 82 99 101 116 130 L171 223 L412 223 L428 110 C429 104 429 98 429 90 C429 61 416 53 368 53 L317 53 L306 0 L606 0 L617 53 L591 53 C545 54 531 67 525 114 L441 667 L362 667 L40 111 C12 64 -4 54 -48 53 L-79 53 L-90 0 Z M201 276 L361 561 L403 276 L201 276 Z M293 738 L544 738 L558 803 L306 803 L293 738 Z " />
<glyph glyph-name="amacron" unicode="&#x101;" horiz-adv-x="524" d="M442 159 C418 62 405 38 375 38 C361 38 352 47 353 62 C353 70 355 82 358 95 L407 327 C413 352 416 377 416 392 C416 448 356 486 266 486 C155 486 56 420 56 345 C56 319 75 300 101 300 C135 300 164 327 164 360 C164 382 156 392 130 399 C173 430 202 441 242 441 C300 441 335 415 335 372 C335 354 327 329 316 314 C304 296 282 284 241 273 L162 251 C90 231 55 215 26 189 C-5 161 -23 122 -23 81 C-23 19 20 -18 92 -18 C153 -18 201 3 272 61 C277 4 297 -17 348 -17 C422 -17 457 28 486 159 L442 159 Z M296 199 C283 137 264 103 227 74 C200 54 163 41 131 41 C94 41 73 60 73 94 C73 144 108 181 176 203 L215 216 C244 225 255 230 308 253 L296 199 Z M184 585 L446 585 L460 653 L199 653 L184 585 Z " />
<glyph glyph-name="Abreve" unicode="&#x102;" horiz-adv-x="665" d="M-90 0 L183 0 L195 53 L147 53 C104 53 91 57 91 72 C91 82 99 101 116 130 L171 223 L412 223 L428 110 C429 104 429 98 429 90 C429 61 416 53 368 53 L317 53 L306 0 L606 0 L617 53 L591 53 C545 54 531 67 525 114 L441 667 L362 667 L40 111 C12 64 -4 54 -48 53 L-79 53 L-90 0 Z M201 276 L361 561 L403 276 L201 276 Z M294 834 C295 789 300 768 316 748 C337 723 370 709 412 709 C454 709 495 723 525 748 C550 768 563 788 583 834 L551 834 C527 792 495 777 427 777 C359 777 332 792 326 834 L294 834 Z " />
<glyph glyph-name="abreve" unicode="&#x103;" horiz-adv-x="524" d="M442 159 C418 62 405 38 375 38 C361 38 352 47 353 62 C353 70 355 82 358 95 L407 327 C413 352 416 377 416 392 C416 448 356 486 266 486 C155 486 56 420 56 345 C56 319 75 300 101 300 C135 300 164 327 164 360 C164 382 156 392 130 399 C173 430 202 441 242 441 C300 441 335 415 335 372 C335 354 327 329 316 314 C304 296 282 284 241 273 L162 251 C90 231 55 215 26 189 C-5 161 -23 122 -23 81 C-23 19 20 -18 92 -18 C153 -18 201 3 272 61 C277 4 297 -17 348 -17 C422 -17 457 28 486 159 L442 159 Z M296 199 C283 137 264 103 227 74 C200 54 163 41 131 41 C94 41 73 60 73 94 C73 144 108 181 176 203 L215 216 C244 225 255 230 308 253 L296 199 Z M192 692 C192 656 194 638 200 623 C215 580 254 557 309 557 C352 557 392 571 422 597 C448 619 462 640 483 692 L452 692 C426 644 395 628 324 628 C254 628 230 644 224 692 L192 692 Z " />
<glyph glyph-name="Aogonek" unicode="&#x104;" horiz-adv-x="665" d="M606 0 L617 53 L591 53 C545 54 531 67 525 114 L441 667 L362 667 L40 111 C12 64 -4 54 -48 53 L-79 53 L-90 0 L183 0 L195 53 L147 53 C103 53 91 57 91 72 C91 82 99 100 116 130 L171 223 L412 223 L428 110 C429 104 429 98 429 89 C429 61 415 53 368 53 L317 53 L306 0 L553 0 C464 -54 413 -115 413 -170 C413 -203 436 -224 473 -224 C516 -224 557 -197 591 -148 L579 -140 C557 -165 539 -175 517 -175 C496 -175 486 -162 486 -136 C486 -94 520 -44 579 0 L606 0 Z M201 276 L361 561 L403 276 L201 276 Z " />
<glyph glyph-name="aogonek" unicode="&#x105;" horiz-adv-x="524" d="M442 159 C419 61 405 37 375 37 C361 37 354 46 354 62 C354 70 356 83 358 95 L407 327 C413 353 416 377 416 393 C416 448 355 486 266 486 C155 486 56 420 56 345 C56 319 75 300 101 300 C136 300 164 327 164 361 C164 382 155 392 130 399 C173 430 202 441 242 441 C300 441 335 415 335 372 C335 353 327 330 316 314 C304 296 282 284 241 273 L162 251 C90 231 55 215 26 189 C-6 161 -23 122 -23 80 C-23 19 20 -18 92 -18 C153 -18 201 3 272 61 C277 12 287 -5 321 -14 C258 -62 228 -107 228 -153 C228 -187 250 -207 287 -207 C330 -207 370 -181 404 -131 L392 -123 C370 -148 352 -158 330 -158 C309 -158 299 -145 299 -119 C299 -84 322 -47 354 -30 C372 -20 390 -11 409 -1 C419 4 433 19 445 39 C463 69 470 90 486 159 L442 159 Z M296 199 C283 137 264 103 227 74 C200 54 163 41 131 41 C94 41 73 60 73 94 C73 144 108 181 176 203 L215 216 C244 225 255 230 308 253 L296 199 Z " />
<glyph glyph-name="Cacute" unicode="&#x106;" horiz-adv-x="670" d="M546 243 C519 173 502 143 471 110 C427 65 370 41 307 41 C197 41 136 112 136 240 C136 328 162 417 210 492 C267 582 342 631 423 631 C517 631 586 559 586 462 C586 450 585 428 583 408 L631 408 L687 667 L643 667 L606 607 C538 669 498 687 429 687 C216 687 27 477 27 241 C27 79 123 -20 279 -20 C373 -20 448 9 507 69 C551 113 573 152 602 243 L546 243 Z M376 706 L532 770 C562 782 575 797 575 818 C575 834 563 846 547 846 C535 846 518 839 503 827 L341 706 L376 706 Z " />
<glyph glyph-name="cacute" unicode="&#x107;" horiz-adv-x="486" d="M368 175 C347 130 337 111 318 91 C289 60 246 41 203 41 C135 41 96 85 96 163 C96 225 114 291 144 341 C181 405 236 438 301 438 C326 438 351 432 370 421 C388 411 395 400 406 372 C362 364 341 343 341 308 C341 281 356 266 383 266 C429 266 464 307 464 362 C464 436 397 486 297 486 C136 486 -2 337 -2 161 C-2 50 66 -18 179 -18 C247 -18 299 2 346 47 C380 81 397 109 423 175 L368 175 Z M216 540 L252 540 L417 629 C455 650 468 664 468 684 C468 702 456 715 439 715 C423 715 402 704 381 686 L216 540 Z " />
<glyph glyph-name="Ccaron" unicode="&#x10c;" horiz-adv-x="670" d="M546 243 C519 173 502 143 471 110 C427 65 370 41 307 41 C197 41 136 112 136 240 C136 328 162 417 210 492 C267 582 342 631 423 631 C517 631 586 559 586 462 C586 450 585 428 583 408 L631 408 L687 667 L643 667 L606 607 C538 669 498 687 429 687 C216 687 27 477 27 241 C27 79 123 -20 279 -20 C373 -20 448 9 507 69 C551 113 573 152 602 243 L546 243 Z M299 838 L377 706 L451 706 L585 838 L553 838 L427 767 L331 838 L299 838 Z " />
<glyph glyph-name="ccaron" unicode="&#x10d;" horiz-adv-x="486" d="M368 175 C347 130 337 111 318 91 C289 60 246 41 203 41 C135 41 96 85 96 163 C96 225 114 291 144 341 C181 405 236 438 301 438 C326 438 351 432 370 421 C388 411 395 400 406 372 C362 364 341 343 341 308 C341 281 356 266 383 266 C429 266 464 307 464 362 C464 436 397 486 297 486 C136 486 -2 337 -2 161 C-2 50 66 -18 179 -18 C247 -18 299 2 346 47 C380 81 397 109 423 175 L368 175 Z M180 709 L254 540 L319 540 L465 709 L430 709 L302 614 L215 709 L180 709 Z " />
<glyph glyph-name="Dcaron" unicode="&#x10e;" horiz-adv-x="745" d="M-42 0 L265 0 C350 0 414 6 455 18 C511 35 567 72 610 121 C680 201 724 319 724 428 C724 501 705 556 666 599 C617 652 560 667 409 667 L100 667 L88 614 L126 614 C167 614 183 606 183 584 C183 577 181 565 176 541 L88 126 C75 63 67 55 7 53 L-31 53 L-42 0 Z M288 614 L397 614 C469 614 523 602 554 580 C594 550 618 498 618 439 C618 354 587 244 544 177 C490 94 403 53 276 53 L169 53 L288 614 Z M225 838 L303 706 L377 706 L511 838 L479 838 L353 767 L257 838 L225 838 Z " />
<glyph glyph-name="dcaron" unicode="&#x10f;" horiz-adv-x="580" d="M547 667 L375 667 L364 619 L395 619 C434 619 449 610 448 589 C448 584 447 579 446 573 L407 391 C395 418 384 436 373 448 C350 472 312 485 269 485 C124 485 3 336 3 158 C3 52 65 -15 161 -15 C231 -15 279 11 342 81 L324 0 L490 0 L500 48 L476 48 C438 48 422 57 423 76 C423 83 425 93 428 105 L547 667 Z M274 427 C342 427 382 381 382 301 C382 247 366 186 339 140 C303 76 252 43 192 43 C134 43 99 85 99 157 C99 215 118 291 145 339 C178 397 222 427 274 427 L274 427 Z M619 466 C693 482 755 552 755 620 C755 654 733 676 699 676 C665 676 635 647 635 613 C635 595 652 580 671 580 C682 580 690 583 708 591 C700 546 668 509 626 498 L619 466 Z " />
<glyph glyph-name="Dcroat" unicode="&#x110;" horiz-adv-x="750" d="M-39 0 L268 0 C353 0 417 6 458 18 C514 35 570 72 613 121 C683 201 727 319 727 427 C727 501 708 556 668 599 C619 652 563 667 411 667 L103 667 L91 614 L130 614 C171 614 187 605 187 584 C187 578 186 570 179 541 L141 361 L11 361 L0 313 L131 313 L91 126 C79 63 70 55 10 53 L-28 53 L-39 0 Z M228 313 L406 313 L417 361 L238 361 L292 614 L400 614 C472 614 526 602 557 580 C597 550 621 497 621 438 C621 354 590 244 547 177 C493 93 406 53 279 53 L173 53 L228 313 Z " />
<glyph glyph-name="dcroat" unicode="&#x111;" horiz-adv-x="580" d="M528 577 L547 667 L375 667 L364 618 L395 618 C433 618 448 610 448 590 C448 587 448 583 446 577 L278 577 L269 534 L438 534 L407 391 C395 418 384 436 373 448 C350 472 313 485 269 485 C124 485 3 336 3 158 C3 52 65 -15 161 -15 C231 -15 279 11 342 81 L324 0 L490 0 L500 48 L476 48 C438 48 422 57 423 76 C423 83 425 93 428 105 L519 534 L588 534 L597 577 L528 577 Z M274 427 C342 427 382 381 382 302 C382 161 296 43 194 43 C134 43 99 85 99 157 C99 216 118 290 145 339 C178 397 222 427 274 427 L274 427 Z " />
<glyph glyph-name="Emacron" unicode="&#x112;" horiz-adv-x="703" d="M-42 0 L558 0 L616 271 L567 271 C522 88 490 56 351 53 L169 53 L227 323 L290 323 C350 323 372 308 372 269 C372 250 371 241 361 178 L408 178 L478 505 L430 505 C405 392 387 374 303 376 L238 376 L288 614 L458 614 C572 614 609 589 609 513 C609 486 607 466 598 416 L646 416 L700 667 L100 667 L88 614 L127 614 C168 614 184 606 184 584 C184 578 183 571 176 541 L88 126 C76 63 68 55 7 53 L-31 53 L-42 0 Z M312 738 L564 738 L578 803 L326 803 L312 738 Z " />
<glyph glyph-name="emacron" unicode="&#x113;" horiz-adv-x="500" d="M362 154 C339 110 325 92 301 74 C272 52 233 39 195 39 C127 39 87 80 87 148 C87 164 91 197 97 226 L447 226 C454 265 458 302 458 328 C458 369 443 410 417 439 C389 471 347 486 287 486 C205 486 136 453 80 387 C30 329 -1 242 -1 163 C-1 51 69 -17 183 -17 C244 -17 295 1 339 38 C373 67 391 92 418 154 L362 154 Z M112 279 C130 338 142 363 167 390 C196 421 232 437 276 437 C337 437 372 403 372 343 C372 328 370 303 366 279 L112 279 Z M173 585 L435 585 L449 653 L187 653 L173 585 Z " />
<glyph glyph-name="Edotaccent" unicode="&#x116;" horiz-adv-x="703" d="M-42 0 L558 0 L616 271 L567 271 C522 88 490 56 351 53 L169 53 L227 323 L290 323 C350 323 372 308 372 269 C372 250 371 241 361 178 L408 178 L478 505 L430 505 C405 392 387 374 303 376 L238 376 L288 614 L458 614 C572 614 609 589 609 513 C609 486 607 466 598 416 L646 416 L700 667 L100 667 L88 614 L127 614 C168 614 184 606 184 584 C184 578 183 571 176 541 L88 126 C76 63 68 55 7 53 L-31 53 L-42 0 Z M458 824 C423 824 391 793 391 760 C391 734 408 717 433 717 C467 717 499 747 499 780 C499 805 481 824 458 824 L458 824 Z " />
<glyph glyph-name="edotaccent" unicode="&#x117;" horiz-adv-x="500" d="M362 154 C339 110 325 92 301 74 C272 52 233 39 195 39 C127 39 87 80 87 148 C87 164 91 197 97 226 L447 226 C454 265 458 302 458 328 C458 369 443 410 417 439 C389 471 347 486 287 486 C205 486 136 453 80 387 C30 329 -1 242 -1 163 C-1 51 69 -17 183 -17 C244 -17 295 1 339 38 C373 67 391 92 418 154 L362 154 Z M112 279 C130 338 142 363 167 390 C196 421 232 437 276 437 C337 437 372 403 372 343 C372 328 370 303 366 279 L112 279 Z M325 677 C288 677 253 644 253 608 C253 580 271 562 298 562 C335 562 369 594 369 630 C369 656 349 677 325 677 L325 677 Z " />
<glyph glyph-name="Eogonek" unicode="&#x118;" horiz-adv-x="703" d="M558 0 L616 271 L567 271 C522 88 490 56 351 53 L169 53 L227 323 L290 323 C350 323 372 308 372 269 C372 250 371 241 361 178 L408 178 L478 505 L430 505 C405 392 387 374 303 376 L238 376 L288 614 L458 614 C573 614 609 589 609 511 C609 487 606 464 598 416 L646 416 L700 667 L100 667 L88 614 L127 614 C168 614 184 606 184 584 C184 578 183 570 176 541 L88 126 C76 63 68 55 7 53 L-31 53 L-42 0 L501 0 C414 -56 370 -111 370 -165 C370 -198 393 -219 430 -219 C473 -219 514 -193 547 -143 L535 -135 C513 -160 496 -170 474 -170 C453 -170 443 -157 443 -131 C443 -91 476 -40 529 0 L558 0 Z " />
<glyph glyph-name="eogonek" unicode="&#x119;" horiz-adv-x="500" d="M362 154 C339 110 325 92 301 74 C272 52 233 39 195 39 C127 39 87 80 87 148 C87 164 91 197 97 226 L447 226 C454 265 458 302 458 328 C458 369 443 410 417 439 C389 471 347 486 287 486 C205 486 136 453 80 387 C30 328 -1 242 -1 161 C-1 51 68 -16 183 -17 C114 -67 80 -115 80 -163 C80 -197 102 -217 139 -217 C182 -217 223 -190 257 -141 L244 -133 C222 -158 204 -168 182 -168 C162 -168 151 -155 151 -130 C151 -108 163 -77 177 -59 C194 -40 208 -31 267 -4 C353 37 377 62 418 154 L362 154 Z M112 279 C130 338 142 363 167 390 C196 421 232 437 276 437 C337 437 372 403 372 343 C372 328 370 303 366 279 L112 279 Z " />
<glyph glyph-name="Ecaron" unicode="&#x11a;" horiz-adv-x="703" d="M-42 0 L558 0 L616 271 L567 271 C522 88 490 56 351 53 L169 53 L227 323 L290 323 C350 323 372 308 372 269 C372 250 371 241 361 178 L408 178 L478 505 L430 505 C405 392 387 374 303 376 L238 376 L288 614 L458 614 C572 614 609 589 609 513 C609 486 607 466 598 416 L646 416 L700 667 L100 667 L88 614 L127 614 C168 614 184 606 184 584 C184 578 183 571 176 541 L88 126 C76 63 68 55 7 53 L-31 53 L-42 0 Z M316 838 L394 706 L468 706 L602 838 L570 838 L444 767 L348 838 L316 838 Z " />
<glyph glyph-name="ecaron" unicode="&#x11b;" horiz-adv-x="500" d="M362 154 C339 110 325 92 301 74 C272 52 233 39 195 39 C127 39 87 80 87 148 C87 164 91 197 97 226 L447 226 C454 265 458 302 458 328 C458 369 443 410 417 439 C389 471 347 486 287 486 C205 486 136 453 80 387 C30 329 -1 242 -1 163 C-1 51 69 -17 183 -17 C244 -17 295 1 339 38 C373 67 391 92 418 154 L362 154 Z M112 279 C130 338 142 363 167 390 C196 421 232 437 276 437 C337 437 372 403 372 343 C372 328 370 303 366 279 L112 279 Z M187 709 L262 540 L326 540 L473 709 L437 709 L310 614 L223 709 L187 709 Z " />
<glyph glyph-name="Gbreve" unicode="&#x11e;" horiz-adv-x="736" d="M562 -7 L613 232 C624 283 633 290 691 289 L727 289 L738 342 L420 342 L408 289 L458 289 C507 289 520 283 520 259 C520 252 519 241 517 232 L508 191 C501 156 488 130 466 108 C427 68 360 41 297 41 C194 41 133 109 133 224 C133 313 162 421 206 493 C260 582 336 631 418 631 C471 631 519 607 548 565 C573 529 581 495 584 421 L636 421 L688 667 L643 667 L595 602 C532 669 495 687 419 687 C315 687 215 638 143 552 C70 464 26 344 26 232 C26 75 117 -19 266 -19 C340 -19 390 -2 486 56 L508 -7 L562 -7 Z M297 834 C298 789 303 768 319 748 C340 723 373 709 415 709 C457 709 498 723 528 748 C553 768 566 788 586 834 L554 834 C530 792 498 777 430 777 C362 777 335 792 329 834 L297 834 Z " />
<glyph glyph-name="gbreve" unicode="&#x11f;" horiz-adv-x="613" d="M141 60 C91 60 70 69 70 90 C70 116 101 147 129 147 C131 147 135 146 140 145 C192 128 193 128 225 128 C292 128 356 151 399 190 C440 227 468 291 468 345 C468 354 464 374 457 397 C494 433 514 444 544 444 C560 444 564 441 573 427 C534 419 515 400 515 369 C515 346 531 331 554 331 C592 331 626 373 626 421 C626 461 598 486 554 486 C514 486 490 474 441 432 C394 472 356 486 294 486 C160 486 56 391 56 269 C56 231 64 210 92 176 C16 136 -9 108 -9 61 C-9 29 6 11 48 -4 C0 -17 -20 -28 -40 -52 C-56 -71 -65 -93 -65 -113 C-65 -178 9 -214 145 -214 C257 -214 338 -194 382 -157 C418 -127 439 -83 439 -41 C439 27 388 60 286 60 L141 60 Z M288 439 C342 439 377 407 377 358 C377 319 364 269 345 240 C322 202 281 180 233 180 C177 180 147 208 147 260 C147 363 208 439 288 439 L288 439 Z M227 -20 C334 -21 370 -34 370 -74 C370 -133 291 -164 138 -164 C47 -164 0 -143 0 -102 C0 -48 59 -20 169 -20 L227 -20 Z M199 692 C199 656 201 638 206 623 C222 580 260 557 315 557 C358 557 398 571 429 597 C454 619 468 640 490 692 L458 692 C432 644 401 628 331 628 C261 628 236 644 230 692 L199 692 Z " />
<glyph glyph-name="Gcommaaccent" unicode="&#x122;" horiz-adv-x="736" d="M562 -7 L613 232 C624 283 633 290 691 289 L727 289 L738 342 L420 342 L408 289 L458 289 C507 289 520 283 520 259 C520 252 519 241 517 232 L508 191 C501 156 488 130 466 108 C427 68 360 41 297 41 C194 41 133 109 133 224 C133 313 162 421 206 493 C260 582 336 631 418 631 C471 631 519 607 548 565 C573 529 581 495 584 421 L636 421 L688 667 L643 667 L595 602 C532 669 495 687 419 687 C315 687 215 638 143 552 C70 464 26 344 26 232 C26 75 117 -19 266 -19 C340 -19 390 -2 486 56 L508 -7 L562 -7 Z M197 -266 C272 -250 333 -180 333 -112 C333 -78 311 -56 277 -56 C243 -56 213 -85 213 -118 C213 -137 229 -152 249 -152 C260 -152 268 -149 285 -141 C278 -186 245 -223 204 -234 L197 -266 Z " />
<glyph glyph-name="gcommaaccent" unicode="&#x123;" horiz-adv-x="613" d="M141 60 C91 60 70 69 70 90 C70 116 101 147 129 147 C131 147 135 146 140 145 C192 128 193 128 225 128 C292 128 356 151 399 190 C440 227 468 291 468 345 C468 354 464 374 457 397 C494 433 514 444 544 444 C560 444 564 441 573 427 C534 419 515 400 515 369 C515 346 531 331 554 331 C592 331 626 373 626 421 C626 461 598 486 554 486 C514 486 490 474 441 432 C394 472 356 486 294 486 C160 486 56 391 56 269 C56 231 64 210 92 176 C16 136 -9 108 -9 61 C-9 29 6 11 48 -4 C0 -17 -20 -28 -40 -52 C-56 -71 -65 -93 -65 -113 C-65 -178 9 -214 145 -214 C257 -214 338 -194 382 -157 C418 -127 439 -83 439 -41 C439 27 388 60 286 60 L141 60 Z M288 439 C342 439 377 407 377 358 C377 319 364 269 345 240 C322 202 281 180 233 180 C177 180 147 208 147 260 C147 363 208 439 288 439 L288 439 Z M227 -20 C334 -21 370 -34 370 -74 C370 -133 291 -164 138 -164 C47 -164 0 -143 0 -102 C0 -48 59 -20 169 -20 L227 -20 Z M406 735 C331 719 270 649 270 581 C270 547 292 525 326 525 C360 525 390 554 390 587 C390 606 374 621 354 621 C343 621 335 618 317 610 C325 655 358 692 399 703 L406 735 Z " />
<glyph glyph-name="Imacron" unicode="&#x12a;" horiz-adv-x="368" d="M-43 0 L269 0 L280 53 L239 53 C198 53 182 61 182 83 C182 90 185 107 189 126 L277 541 C289 604 298 612 358 614 L399 614 L411 667 L99 667 L87 614 L129 614 C170 614 186 605 186 584 C186 577 184 564 179 541 L91 126 C79 63 70 55 10 53 L-32 53 L-43 0 Z M144 738 L396 738 L409 803 L158 803 L144 738 Z " />
<glyph glyph-name="imacron" unicode="&#x12b;" horiz-adv-x="311" d="M-42 0 L217 0 L227 48 L203 48 C167 48 152 56 152 76 C152 83 154 95 156 105 L233 469 L58 469 L47 421 L78 421 C115 421 130 413 130 393 C130 385 129 374 126 364 L71 105 C62 59 51 50 -2 48 L-32 48 L-42 0 Z M79 585 L341 585 L355 653 L93 653 L79 585 Z " />
<glyph glyph-name="Iogonek" unicode="&#x12e;" horiz-adv-x="371" d="M272 0 L283 53 L242 53 C200 53 185 61 185 84 C185 90 188 108 192 126 L280 541 C292 604 301 612 361 614 L402 614 L414 667 L102 667 L90 614 L132 614 C173 614 189 605 189 583 C189 577 187 563 182 541 L94 126 C82 63 73 55 13 53 L-29 53 L-40 0 L213 0 C124 -53 73 -115 73 -170 C73 -203 96 -224 133 -224 C176 -224 217 -198 250 -148 L238 -140 C217 -165 199 -175 177 -175 C156 -175 146 -162 146 -136 C146 -94 180 -44 239 0 L272 0 Z " />
<glyph glyph-name="iogonek" unicode="&#x12f;" horiz-adv-x="311" d="M217 0 L227 48 L203 48 C166 48 152 56 152 76 C152 83 154 96 156 105 L233 469 L58 469 L47 421 L78 421 C115 421 130 413 130 393 C130 385 129 374 126 364 L71 105 C62 59 51 50 -2 48 L-32 48 L-42 0 L174 0 C86 -55 38 -113 38 -167 C38 -201 61 -222 98 -222 C141 -222 183 -195 216 -145 L204 -138 C182 -163 164 -173 142 -173 C121 -173 111 -160 111 -134 C111 -92 143 -45 201 0 L217 0 Z M222 675 C185 675 151 642 151 607 C151 581 170 562 196 562 C233 562 267 595 267 630 C267 656 248 675 222 675 L222 675 Z " />
<glyph glyph-name="Idotaccent" unicode="&#x130;" horiz-adv-x="368" d="M-43 0 L269 0 L280 53 L239 53 C198 53 182 61 182 83 C182 90 185 107 189 126 L277 541 C289 604 298 612 358 614 L399 614 L411 667 L99 667 L87 614 L129 614 C170 614 186 605 186 584 C186 577 184 564 179 541 L91 126 C79 63 70 55 10 53 L-32 53 L-43 0 Z M290 824 C254 824 222 793 222 760 C222 734 239 717 265 717 C299 717 331 747 331 780 C331 805 313 824 290 824 L290 824 Z " />
<glyph glyph-name="dotlessi" unicode="&#x131;" horiz-adv-x="311" d="M-42 0 L217 0 L227 48 L203 48 C167 48 152 56 152 76 C152 83 154 95 156 105 L233 469 L58 469 L47 421 L78 421 C115 421 130 413 130 393 C130 385 129 374 126 364 L71 105 C62 59 51 50 -2 48 L-32 48 L-42 0 Z " />
<glyph glyph-name="Kcommaaccent" unicode="&#x136;" horiz-adv-x="727" d="M280 53 L235 53 C194 53 178 61 178 83 C178 90 181 106 185 126 L208 237 L317 323 L449 121 C473 85 473 85 473 77 C473 61 458 53 431 53 L359 53 L348 0 L692 0 L703 53 L674 53 C622 56 604 66 576 111 L397 384 L589 536 C669 596 701 611 750 614 L788 614 L800 667 L483 667 L471 614 L519 614 C548 614 562 608 562 597 C562 588 553 576 539 565 L226 318 L273 541 C285 604 294 612 354 614 L400 614 L411 667 L100 667 L88 614 L127 614 C168 614 184 605 184 584 C184 578 183 571 176 541 L88 126 C76 63 68 55 7 53 L-31 53 L-42 0 L269 0 L280 53 Z M193 -266 C268 -250 329 -180 329 -112 C329 -78 307 -56 273 -56 C239 -56 209 -85 209 -118 C209 -137 225 -152 245 -152 C256 -152 264 -149 281 -141 C274 -186 241 -223 200 -234 L193 -266 Z " />
<glyph glyph-name="kcommaaccent" unicode="&#x137;" horiz-adv-x="604" d="M167 229 L260 667 L95 667 L84 619 L109 619 C146 619 160 611 160 590 C160 583 159 572 156 562 L59 105 C50 58 39 50 -12 48 L-37 48 L-47 0 L198 0 L208 48 L188 48 C152 48 137 56 137 76 C137 82 139 95 141 105 L154 165 L243 228 L335 89 C339 82 342 75 342 71 C342 57 320 48 283 48 L259 48 L248 0 L518 0 L529 48 L515 48 C478 49 450 64 431 93 L311 276 L452 377 C501 410 530 422 569 420 L583 420 L593 469 L315 469 L305 420 L348 420 C381 420 395 416 395 406 C395 397 382 382 358 365 L167 229 Z M131 -266 C206 -250 267 -180 267 -112 C267 -78 245 -56 211 -56 C177 -56 147 -85 147 -118 C147 -137 163 -152 183 -152 C194 -152 202 -149 220 -141 C212 -186 180 -223 138 -234 L131 -266 Z " />
<glyph glyph-name="Lacute" unicode="&#x139;" horiz-adv-x="646" d="M100 667 L88 614 L127 614 C168 614 184 605 184 584 C184 578 183 571 176 541 L88 126 C76 62 67 55 7 53 L-31 53 L-42 0 L537 0 L596 277 L547 277 C508 91 470 54 318 53 L169 53 L273 541 C285 604 294 612 354 614 L400 614 L411 667 L100 667 Z M365 706 L521 770 C551 782 564 797 564 818 C564 834 552 846 536 846 C524 846 507 839 492 827 L330 706 L365 706 Z " />
<glyph glyph-name="lacute" unicode="&#x13a;" horiz-adv-x="302" d="M266 667 L95 667 L84 619 L110 619 C147 619 161 611 161 591 C161 584 160 572 157 562 L60 105 C51 58 40 50 -11 48 L-37 48 L-47 0 L211 0 L221 48 L194 48 C158 48 143 56 143 76 C143 83 145 95 147 105 L266 667 Z M294 712 L330 712 L494 801 C533 822 546 836 546 856 C546 874 534 887 517 887 C501 887 480 876 459 858 L294 712 Z " />
<glyph glyph-name="Lcommaaccent" unicode="&#x13b;" horiz-adv-x="646" d="M100 667 L88 614 L127 614 C168 614 184 605 184 584 C184 578 183 571 176 541 L88 126 C76 62 67 55 7 53 L-31 53 L-42 0 L537 0 L596 277 L547 277 C508 91 470 54 318 53 L169 53 L273 541 C285 604 294 612 354 614 L400 614 L411 667 L100 667 Z M153 -266 C227 -250 289 -180 289 -112 C289 -78 267 -56 233 -56 C199 -56 169 -85 169 -118 C169 -137 185 -152 205 -152 C215 -152 224 -149 241 -141 C234 -186 201 -223 160 -234 L153 -266 Z " />
<glyph glyph-name="lcommaaccent" unicode="&#x13c;" horiz-adv-x="302" d="M266 667 L95 667 L84 619 L110 619 C147 619 161 611 161 591 C161 584 160 572 157 562 L60 105 C51 58 40 50 -11 48 L-37 48 L-47 0 L211 0 L221 48 L194 48 C158 48 143 56 143 76 C143 83 145 95 147 105 L266 667 Z M-20 -266 C55 -250 116 -180 116 -112 C116 -78 94 -56 60 -56 C26 -56 -4 -85 -4 -118 C-4 -137 12 -152 32 -152 C43 -152 51 -149 69 -141 C61 -186 29 -223 -13 -234 L-20 -266 Z " />
<glyph glyph-name="Lcaron" unicode="&#x13d;" horiz-adv-x="646" d="M100 667 L88 614 L127 614 C168 614 184 605 184 584 C184 578 183 571 176 541 L88 126 C76 62 67 55 7 53 L-31 53 L-42 0 L537 0 L596 277 L547 277 C508 91 470 54 318 53 L169 53 L273 541 C285 604 294 612 354 614 L400 614 L411 667 L100 667 Z M455 472 C529 487 591 557 591 625 C591 659 569 681 535 681 C501 681 471 652 471 619 C471 601 487 586 507 586 C518 586 526 588 544 597 C536 551 503 514 462 504 L455 472 Z " />
<glyph glyph-name="lcaron" unicode="&#x13e;" horiz-adv-x="302" d="M266 667 L95 667 L84 619 L110 619 C147 619 161 611 161 591 C161 584 160 572 157 562 L60 105 C51 58 40 50 -11 48 L-37 48 L-47 0 L211 0 L221 48 L194 48 C158 48 143 56 143 76 C143 83 145 95 147 105 L266 667 Z M304 466 C378 482 440 552 440 620 C440 654 418 676 384 676 C350 676 320 647 320 614 C320 596 337 581 356 581 C367 581 375 583 393 592 C386 546 353 509 311 499 L304 466 Z " />
<glyph glyph-name="Lslash" unicode="&#x141;" horiz-adv-x="651" d="M120 266 L90 126 C78 63 69 55 9 53 L-29 53 L-40 0 L539 0 L598 277 L550 277 C510 91 472 54 320 53 L171 53 L226 311 L428 441 L440 497 L238 367 L275 541 C287 604 296 612 356 614 L402 614 L413 667 L102 667 L90 614 L129 614 C170 614 186 605 186 584 C186 578 185 570 179 541 L132 323 L-18 225 L-30 169 L120 266 Z " />
<glyph glyph-name="lslash" unicode="&#x142;" horiz-adv-x="302" d="M210 402 L266 667 L95 667 L84 619 L110 619 C147 619 161 611 161 591 C161 584 160 572 157 562 L111 345 L-13 273 L-24 219 L100 292 L60 105 C51 59 40 50 -11 48 L-37 48 L-47 0 L211 0 L221 48 L194 48 C158 48 143 56 143 76 C143 83 145 95 147 105 L199 349 L325 423 L336 476 L210 402 Z " />
<glyph glyph-name="Nacute" unicode="&#x143;" horiz-adv-x="783" d="M594 -3 L710 541 C722 604 731 612 791 614 L821 614 L833 667 L555 667 L543 614 L592 614 C634 614 650 605 650 584 C650 577 648 567 643 541 L556 131 L313 667 L100 667 L88 614 L125 614 C166 614 182 605 182 584 C182 577 180 563 175 541 L87 126 C75 63 66 55 6 53 L-31 53 L-42 0 L240 0 L251 53 L204 53 C163 53 147 61 147 83 C147 90 150 107 154 126 L249 577 L511 -3 L594 -3 Z M433 706 L590 770 C618 782 632 797 632 818 C632 834 620 846 604 846 C592 846 576 839 560 827 L399 706 L433 706 Z " />
<glyph glyph-name="nacute" unicode="&#x144;" horiz-adv-x="618" d="M-42 0 L218 0 L228 48 L198 48 C160 48 145 56 145 76 C145 83 146 95 149 105 L183 268 C194 319 212 352 247 384 C279 413 317 429 357 429 C407 429 431 406 431 357 C431 339 427 312 421 281 L383 105 C374 59 363 50 312 48 L282 48 L272 0 L526 0 L536 48 L516 48 C479 48 464 56 464 76 C464 81 466 92 468 105 L503 268 C513 314 519 356 519 375 C519 441 472 482 396 482 C321 482 270 456 209 388 L226 469 L58 469 L47 421 L74 421 C112 421 127 413 127 393 C127 387 125 375 123 364 L68 105 C59 59 47 50 -5 48 L-32 48 L-42 0 Z M283 540 L319 540 L483 629 C522 650 535 664 535 684 C535 702 523 715 506 715 C490 715 469 704 448 686 L283 540 Z " />
<glyph glyph-name="Ncommaaccent" unicode="&#x145;" horiz-adv-x="783" d="M594 -3 L710 541 C722 604 731 612 791 614 L821 614 L833 667 L555 667 L543 614 L592 614 C634 614 650 605 650 584 C650 577 648 567 643 541 L556 131 L313 667 L100 667 L88 614 L125 614 C166 614 182 605 182 584 C182 577 180 563 175 541 L87 126 C75 63 66 55 6 53 L-31 53 L-42 0 L240 0 L251 53 L204 53 C163 53 147 61 147 83 C147 90 150 107 154 126 L249 577 L511 -3 L594 -3 Z M221 -266 C296 -250 357 -180 357 -112 C357 -78 335 -56 301 -56 C267 -56 237 -85 237 -118 C237 -137 253 -152 273 -152 C284 -152 292 -149 310 -141 C302 -186 270 -223 228 -234 L221 -266 Z " />
<glyph glyph-name="ncommaaccent" unicode="&#x146;" horiz-adv-x="618" d="M-42 0 L218 0 L228 48 L198 48 C160 48 145 56 145 76 C145 83 146 95 149 105 L183 268 C194 319 212 352 247 384 C279 413 317 429 357 429 C407 429 431 406 431 357 C431 339 427 312 421 281 L383 105 C374 59 363 50 312 48 L282 48 L272 0 L526 0 L536 48 L516 48 C479 48 464 56 464 76 C464 81 466 92 468 105 L503 268 C513 314 519 356 519 375 C519 441 472 482 396 482 C321 482 270 456 209 388 L226 469 L58 469 L47 421 L74 421 C112 421 127 413 127 393 C127 387 125 375 123 364 L68 105 C59 59 47 50 -5 48 L-32 48 L-42 0 Z M139 -266 C213 -250 275 -180 275 -112 C275 -78 252 -56 219 -56 C184 -56 154 -85 154 -118 C154 -137 170 -152 190 -152 C201 -152 209 -149 227 -141 C220 -186 187 -223 145 -234 L139 -266 Z " />
<glyph glyph-name="Ncaron" unicode="&#x147;" horiz-adv-x="783" d="M594 -3 L710 541 C722 604 731 612 791 614 L821 614 L833 667 L555 667 L543 614 L592 614 C634 614 650 605 650 584 C650 577 648 567 643 541 L556 131 L313 667 L100 667 L88 614 L125 614 C166 614 182 605 182 584 C182 577 180 563 175 541 L87 126 C75 63 66 55 6 53 L-31 53 L-42 0 L240 0 L251 53 L204 53 C163 53 147 61 147 83 C147 90 150 107 154 126 L249 577 L511 -3 L594 -3 Z M357 838 L434 706 L508 706 L642 838 L610 838 L484 767 L388 838 L357 838 Z " />
<glyph glyph-name="ncaron" unicode="&#x148;" horiz-adv-x="618" d="M-42 0 L218 0 L228 48 L198 48 C160 48 145 56 145 76 C145 83 146 95 149 105 L183 268 C194 319 212 352 247 384 C279 413 317 429 357 429 C407 429 431 406 431 357 C431 339 427 312 421 281 L383 105 C374 59 363 50 312 48 L282 48 L272 0 L526 0 L536 48 L516 48 C479 48 464 56 464 76 C464 81 466 92 468 105 L503 268 C513 314 519 356 519 375 C519 441 472 482 396 482 C321 482 270 456 209 388 L226 469 L58 469 L47 421 L74 421 C112 421 127 413 127 393 C127 387 125 375 123 364 L68 105 C59 59 47 50 -5 48 L-32 48 L-42 0 Z M225 709 L299 540 L364 540 L511 709 L475 709 L348 614 L260 709 L225 709 Z " />
<glyph glyph-name="Omacron" unicode="&#x14c;" horiz-adv-x="755" d="M453 687 C225 687 29 485 29 249 C29 86 137 -19 303 -19 C529 -19 726 184 726 417 C726 581 619 687 453 687 L453 687 Z M441 632 C549 632 620 554 620 435 C620 348 593 249 550 181 C491 88 406 36 314 36 C206 36 135 114 135 231 C135 319 162 420 205 487 C263 579 349 632 441 632 L441 632 Z M349 738 L600 738 L614 803 L363 803 L349 738 Z " />
<glyph glyph-name="omacron" unicode="&#x14d;" horiz-adv-x="547" d="M307 486 C138 486 0 343 0 167 C0 58 81 -17 199 -17 C366 -17 504 127 504 301 C504 410 423 486 307 486 L307 486 Z M295 435 C368 435 409 391 409 312 C409 247 388 171 357 121 C322 64 270 34 209 34 C136 34 95 78 95 155 C95 222 115 297 147 348 C182 405 233 435 295 435 L295 435 Z M196 585 L457 585 L472 653 L210 653 L196 585 Z " />
<glyph glyph-name="Ohungarumlaut" unicode="&#x150;" horiz-adv-x="755" d="M453 687 C225 687 29 485 29 249 C29 86 137 -19 303 -19 C529 -19 726 184 726 417 C726 581 619 687 453 687 L453 687 Z M441 632 C549 632 620 554 620 435 C620 348 593 249 550 181 C491 88 406 36 314 36 C206 36 135 114 135 231 C135 319 162 420 205 487 C263 579 349 632 441 632 L441 632 Z M419 714 L527 783 C545 795 556 810 556 825 C556 841 546 851 529 851 C515 851 498 841 483 823 L392 714 L419 714 Z M535 714 L661 781 C681 792 694 809 694 824 C694 841 683 852 667 852 C654 852 638 843 622 827 L508 714 L535 714 Z " />
<glyph glyph-name="ohungarumlaut" unicode="&#x151;" horiz-adv-x="547" d="M307 486 C138 486 0 343 0 167 C0 58 81 -17 199 -17 C366 -17 504 127 504 301 C504 410 423 486 307 486 L307 486 Z M295 435 C368 435 409 391 409 312 C409 247 388 171 357 121 C322 64 270 34 209 34 C136 34 95 78 95 155 C95 222 115 297 147 348 C182 405 233 435 295 435 L295 435 Z M223 540 L252 540 L362 634 C389 658 399 672 399 687 C399 702 386 715 371 715 C352 715 335 702 315 673 L223 540 Z M335 540 L364 540 L491 631 C522 654 533 669 533 688 C533 703 521 714 505 714 C487 714 469 702 448 678 L335 540 Z " />
<glyph glyph-name="OE" unicode="&#x152;" horiz-adv-x="1151" d="M1144 667 L729 667 L489 686 C373 686 283 657 199 592 C91 508 28 381 28 248 C28 180 48 123 89 75 C145 11 224 -19 334 -19 C365 -19 399 -17 429 -14 L516 -4 C542 -1 568 0 592 0 L1002 0 L1060 271 L1011 271 C966 88 935 56 795 53 L614 53 L672 323 L735 323 C795 323 817 308 817 269 C817 250 816 239 805 178 L853 178 L922 505 L875 505 C850 392 832 374 748 376 L683 376 L734 614 L903 614 C1016 614 1053 589 1053 513 C1053 486 1051 466 1042 416 L1090 416 L1144 667 Z M533 126 C523 79 519 70 501 60 C472 44 414 33 362 33 C215 33 136 107 136 245 C136 352 181 469 249 538 C309 600 394 634 490 634 C532 634 569 628 602 615 C621 608 629 599 629 584 C629 578 627 568 622 541 L533 126 Z " />
<glyph glyph-name="oe" unicode="&#x153;" horiz-adv-x="887" d="M749 154 C725 110 711 92 687 74 C658 52 620 39 582 39 C514 39 474 80 474 148 C474 164 478 197 484 226 L833 226 C840 265 844 302 844 328 C844 369 829 410 803 439 C775 470 733 486 676 486 C599 486 553 466 476 401 C454 428 441 442 424 453 C392 474 349 486 305 486 C226 486 145 450 87 389 C32 333 0 250 0 168 C0 59 81 -17 198 -17 C277 -17 334 7 408 73 C424 46 435 31 449 19 C477 -4 521 -17 569 -17 C630 -17 681 1 725 38 C759 67 777 92 805 154 L749 154 Z M297 435 C372 435 413 391 413 311 C413 246 393 172 361 121 C326 64 273 34 211 34 C137 34 95 78 95 156 C95 222 115 297 147 348 C182 404 235 435 297 435 L297 435 Z M498 279 C516 337 529 362 554 389 C583 420 618 436 662 436 C723 436 758 402 758 343 C758 327 756 303 752 279 L498 279 Z " />
<glyph glyph-name="Racute" unicode="&#x154;" horiz-adv-x="731" d="M280 53 L235 53 C194 53 178 61 178 83 C178 90 181 106 185 126 L226 320 L345 320 C427 320 468 288 468 222 C468 208 466 191 463 174 L449 92 C447 81 446 68 446 61 C446 5 470 -19 525 -19 C603 -19 639 27 670 163 L625 163 C601 67 590 46 564 46 C548 46 541 54 541 73 C541 85 545 111 552 141 C559 174 564 212 564 230 C564 292 538 321 464 342 C541 355 576 369 611 400 C649 435 672 486 672 538 C672 631 603 667 428 667 L100 667 L88 614 L127 614 C168 614 184 606 184 584 C184 578 183 571 176 541 L88 126 C76 63 68 55 7 53 L-31 53 L-42 0 L269 0 L280 53 Z M237 373 L288 614 L416 614 C456 614 504 608 521 601 C552 589 569 563 569 526 C569 496 558 463 538 437 C505 394 446 373 356 373 L237 373 Z M334 706 L491 770 C520 782 533 797 533 818 C533 834 521 846 505 846 C494 846 477 839 461 827 L300 706 L334 706 Z " />
<glyph glyph-name="racute" unicode="&#x155;" horiz-adv-x="453" d="M243 48 L198 48 C160 48 145 56 145 76 C145 83 146 94 149 105 L172 217 C184 272 202 315 228 352 C267 408 309 436 351 436 C374 436 383 431 398 408 C374 408 364 403 351 388 C341 377 335 362 335 348 C335 324 352 308 378 308 C418 308 453 349 453 397 C453 452 422 483 366 483 C306 483 258 450 205 372 L226 469 L58 469 L47 421 L74 421 C112 421 127 413 127 392 C127 387 125 375 123 364 L68 105 C59 58 47 49 -5 48 L-32 48 L-42 0 L233 0 L243 48 Z M200 540 L236 540 L401 629 C440 650 453 664 453 684 C453 702 441 715 424 715 C408 715 386 704 365 686 L200 540 Z " />
<glyph glyph-name="Rcommaaccent" unicode="&#x156;" horiz-adv-x="731" d="M280 53 L235 53 C194 53 178 61 178 83 C178 90 181 106 185 126 L226 320 L345 320 C427 320 468 288 468 222 C468 208 466 191 463 174 L449 92 C447 81 446 68 446 61 C446 5 470 -19 525 -19 C603 -19 639 27 670 163 L625 163 C601 67 590 46 564 46 C548 46 541 54 541 73 C541 85 545 111 552 141 C559 174 564 212 564 230 C564 292 538 321 464 342 C541 355 576 369 611 400 C649 435 672 486 672 538 C672 631 603 667 428 667 L100 667 L88 614 L127 614 C168 614 184 606 184 584 C184 578 183 571 176 541 L88 126 C76 63 68 55 7 53 L-31 53 L-42 0 L269 0 L280 53 Z M237 373 L288 614 L416 614 C456 614 504 608 521 601 C552 589 569 563 569 526 C569 496 558 463 538 437 C505 394 446 373 356 373 L237 373 Z M195 -266 C270 -250 331 -180 331 -112 C331 -78 309 -56 275 -56 C241 -56 211 -85 211 -118 C211 -137 227 -152 247 -152 C258 -152 266 -149 284 -141 C276 -186 244 -223 202 -234 L195 -266 Z " />
<glyph glyph-name="rcommaaccent" unicode="&#x157;" horiz-adv-x="453" d="M243 48 L198 48 C160 48 145 56 145 76 C145 83 146 94 149 105 L172 217 C184 272 202 315 228 352 C267 408 309 436 351 436 C374 436 383 431 398 408 C374 408 364 403 351 388 C341 377 335 362 335 348 C335 324 352 308 378 308 C418 308 453 349 453 397 C453 452 422 483 366 483 C306 483 258 450 205 372 L226 469 L58 469 L47 421 L74 421 C112 421 127 413 127 392 C127 387 125 375 123 364 L68 105 C59 58 47 49 -5 48 L-32 48 L-42 0 L233 0 L243 48 Z M-2 -266 C73 -250 134 -180 134 -112 C134 -78 112 -56 78 -56 C44 -56 14 -85 14 -118 C14 -137 30 -152 50 -152 C61 -152 69 -149 87 -141 C79 -186 47 -223 5 -234 L-2 -266 Z " />
<glyph glyph-name="Rcaron" unicode="&#x158;" horiz-adv-x="731" d="M280 53 L235 53 C194 53 178 61 178 83 C178 90 181 106 185 126 L226 320 L345 320 C427 320 468 288 468 222 C468 208 466 191 463 174 L449 92 C447 81 446 68 446 61 C446 5 470 -19 525 -19 C603 -19 639 27 670 163 L625 163 C601 67 590 46 564 46 C548 46 541 54 541 73 C541 85 545 111 552 141 C559 174 564 212 564 230 C564 292 538 321 464 342 C541 355 576 369 611 400 C649 435 672 486 672 538 C672 631 603 667 428 667 L100 667 L88 614 L127 614 C168 614 184 606 184 584 C184 578 183 571 176 541 L88 126 C76 63 68 55 7 53 L-31 53 L-42 0 L269 0 L280 53 Z M237 373 L288 614 L416 614 C456 614 504 608 521 601 C552 589 569 563 569 526 C569 496 558 463 538 437 C505 394 446 373 356 373 L237 373 Z M209 838 L287 706 L361 706 L495 838 L463 838 L337 767 L241 838 L209 838 Z " />
<glyph glyph-name="rcaron" unicode="&#x159;" horiz-adv-x="453" d="M243 48 L198 48 C160 48 145 56 145 76 C145 83 146 94 149 105 L172 217 C184 272 202 315 228 352 C267 408 309 436 351 436 C374 436 383 431 398 408 C374 408 364 403 351 388 C341 377 335 362 335 348 C335 324 352 308 378 308 C418 308 453 349 453 397 C453 452 422 483 366 483 C306 483 258 450 205 372 L226 469 L58 469 L47 421 L74 421 C112 421 127 413 127 392 C127 387 125 375 123 364 L68 105 C59 58 47 49 -5 48 L-32 48 L-42 0 L233 0 L243 48 Z M164 709 L238 540 L303 540 L450 709 L414 709 L287 614 L199 709 L164 709 Z " />
<glyph glyph-name="Sacute" unicode="&#x15a;" horiz-adv-x="594" d="M-28 0 L20 0 L67 74 C133 0 173 -20 258 -20 C415 -20 541 94 541 235 C541 319 493 359 358 388 L270 407 C198 423 167 450 167 496 C167 572 239 629 336 629 C398 629 450 606 477 565 C495 538 502 508 502 460 C502 452 502 437 501 420 L552 420 L605 673 L561 673 L521 612 C453 673 419 687 340 687 C189 687 75 586 75 452 C75 414 87 385 111 364 C139 338 160 330 252 307 L326 289 C415 267 444 244 444 193 C444 109 366 43 265 43 C200 43 147 69 114 118 C90 153 82 185 82 243 C82 248 82 263 83 277 L31 277 L-28 0 Z M339 706 L495 770 C525 782 538 797 538 818 C538 834 526 846 510 846 C498 846 481 839 466 827 L304 706 L339 706 Z " />
<glyph glyph-name="sacute" unicode="&#x15b;" horiz-adv-x="472" d="M-34 -4 L15 -4 L45 47 C89 -1 123 -16 186 -16 C243 -16 297 1 332 30 C372 63 399 117 399 163 C399 219 357 258 278 274 L193 291 C152 299 131 319 131 349 C131 398 176 433 237 433 C280 433 315 418 335 390 C353 366 359 343 359 292 L406 292 L445 475 L403 475 L376 432 C330 471 294 485 237 485 C130 485 43 410 43 318 C43 261 87 219 164 203 L245 186 C289 176 311 158 311 129 C311 77 261 38 192 38 C149 38 112 55 87 86 C64 113 57 138 57 193 L8 193 L-34 -4 Z M209 540 L245 540 L410 629 C449 650 462 664 462 684 C462 702 450 715 433 715 C417 715 395 704 374 686 L209 540 Z " />
<glyph glyph-name="Scedilla" unicode="&#x15e;" horiz-adv-x="594" d="M230 -19 C239 -20 245 -20 257 -20 C416 -20 541 93 541 236 C541 319 492 359 358 388 L270 407 C198 423 167 450 167 496 C167 572 239 629 336 629 C398 629 450 606 477 565 C496 537 502 509 502 456 C502 451 502 436 501 420 L552 420 L605 673 L561 673 L521 612 C453 673 419 687 340 687 C188 687 75 586 75 451 C75 415 87 385 111 364 C139 338 160 330 252 307 L326 289 C415 267 444 244 444 192 C444 108 366 42 265 42 C200 42 147 68 114 117 C89 153 82 184 82 249 C82 251 82 266 83 277 L31 277 L-28 0 L20 0 L67 74 C123 12 147 -4 199 -14 L181 -101 C197 -96 204 -95 214 -95 C236 -95 249 -106 249 -126 C249 -154 225 -174 191 -174 C159 -174 124 -159 95 -135 L69 -178 C114 -204 156 -217 196 -217 C268 -217 321 -174 321 -117 C321 -80 295 -56 255 -56 C246 -56 234 -57 221 -58 L230 -19 Z " />
<glyph glyph-name="scedilla" unicode="&#x15f;" horiz-adv-x="472" d="M170 -16 L185 -16 C243 -16 297 1 332 30 C372 64 399 117 399 164 C399 219 356 258 278 274 L193 291 C152 299 131 319 131 349 C131 398 176 433 237 433 C280 433 315 418 335 390 C353 366 359 343 359 292 L406 292 L445 475 L403 475 L376 432 C330 471 294 485 237 485 C130 485 43 410 43 317 C43 261 87 219 164 203 L245 186 C290 176 311 158 311 129 C311 77 260 38 192 38 C149 38 112 55 87 86 C64 113 57 138 57 193 L8 193 L-34 -4 L15 -4 L45 47 C79 9 99 -3 140 -12 L122 -95 C138 -90 145 -89 156 -89 C179 -89 191 -100 191 -120 C191 -154 168 -174 131 -174 C99 -174 64 -160 35 -135 L9 -178 C55 -205 96 -217 136 -217 C210 -217 261 -173 261 -111 C261 -73 237 -50 196 -50 C186 -50 175 -51 163 -52 L170 -16 Z " />
<glyph glyph-name="Scaron" unicode="&#x160;" horiz-adv-x="594" d="M-28 0 L20 0 L67 74 C133 0 173 -20 258 -20 C415 -20 541 94 541 235 C541 319 493 359 358 388 L270 407 C198 423 167 450 167 496 C167 572 239 629 336 629 C398 629 450 606 477 565 C495 538 502 508 502 460 C502 452 502 437 501 420 L552 420 L605 673 L561 673 L521 612 C453 673 419 687 340 687 C189 687 75 586 75 452 C75 414 87 385 111 364 C139 338 160 330 252 307 L326 289 C415 267 444 244 444 193 C444 109 366 43 265 43 C200 43 147 69 114 118 C90 153 82 185 82 243 C82 248 82 263 83 277 L31 277 L-28 0 Z M262 838 L340 706 L414 706 L547 838 L515 838 L390 767 L294 838 L262 838 Z " />
<glyph glyph-name="scaron" unicode="&#x161;" horiz-adv-x="472" d="M-34 -4 L15 -4 L45 47 C89 -1 123 -16 186 -16 C243 -16 297 1 332 30 C372 63 399 117 399 163 C399 219 357 258 278 274 L193 291 C152 299 131 319 131 349 C131 398 176 433 237 433 C280 433 315 418 335 390 C353 366 359 343 359 292 L406 292 L445 475 L403 475 L376 432 C330 471 294 485 237 485 C130 485 43 410 43 318 C43 261 87 219 164 203 L245 186 C289 176 311 158 311 129 C311 77 261 38 192 38 C149 38 112 55 87 86 C64 113 57 138 57 193 L8 193 L-34 -4 Z M173 709 L247 540 L312 540 L458 709 L423 709 L296 614 L208 709 L173 709 Z " />
<glyph glyph-name="Tcommaaccent" unicode="&#x162;" horiz-adv-x="632" d="M41 405 L89 405 C130 570 173 612 299 614 L328 614 L224 126 C212 63 203 55 143 53 L85 53 L73 0 L417 0 L429 53 L370 53 C329 53 313 61 313 83 C313 89 315 99 320 126 L424 614 L453 614 C550 614 585 585 585 505 C585 477 582 454 574 405 L622 405 L678 667 L97 667 L41 405 Z M145 -266 C220 -250 281 -180 281 -112 C281 -78 259 -56 225 -56 C191 -56 161 -85 161 -118 C161 -137 177 -152 197 -152 C208 -152 216 -149 234 -141 C226 -186 194 -223 152 -234 L145 -266 Z " />
<glyph glyph-name="tcommaaccent" unicode="&#x163;" horiz-adv-x="382" d="M112 420 L43 95 C41 86 40 77 40 66 C40 13 73 -17 132 -17 C183 -17 229 8 254 50 C272 80 281 107 302 192 L259 192 C246 136 236 103 224 80 C211 56 186 41 159 41 C135 41 122 52 122 72 C122 84 122 88 124 95 L193 420 L329 420 L339 469 L203 469 L243 655 L198 655 C161 528 118 477 43 469 L33 420 L112 420 Z M20 -266 C95 -250 156 -180 156 -112 C156 -78 134 -56 100 -56 C66 -56 36 -85 36 -118 C36 -137 52 -152 72 -152 C83 -152 91 -149 108 -141 C101 -186 69 -223 27 -234 L20 -266 Z " />
<glyph glyph-name="Tcaron" unicode="&#x164;" horiz-adv-x="632" d="M41 405 L89 405 C130 570 173 612 299 614 L328 614 L224 126 C212 63 203 55 143 53 L85 53 L73 0 L417 0 L429 53 L370 53 C329 53 313 61 313 83 C313 89 315 99 320 126 L424 614 L453 614 C550 614 585 585 585 505 C585 477 582 454 574 405 L622 405 L678 667 L97 667 L41 405 Z M281 838 L358 706 L432 706 L566 838 L534 838 L408 767 L313 838 L281 838 Z " />
<glyph glyph-name="tcaron" unicode="&#x165;" horiz-adv-x="382" d="M112 420 L43 95 C41 85 40 75 40 66 C40 13 73 -17 132 -17 C183 -17 229 8 254 50 C272 80 282 108 303 192 L259 192 C246 135 236 103 224 80 C212 56 186 41 159 41 C135 41 122 51 122 72 C122 80 123 88 124 95 L194 420 L329 420 L339 469 L204 469 L243 655 L199 655 C161 528 118 477 43 469 L33 420 L112 420 Z M326 532 C400 547 462 617 462 685 C462 719 440 741 406 741 C372 741 342 712 342 679 C342 661 358 646 378 646 C389 646 397 648 415 657 C407 611 374 574 333 564 L326 532 Z " />
<glyph glyph-name="Umacron" unicode="&#x16a;" horiz-adv-x="722" d="M88 614 L118 614 C159 614 175 605 175 584 C175 578 174 570 168 541 L97 209 C92 185 89 160 89 138 C89 37 161 -20 288 -20 C364 -20 430 2 481 43 C534 87 565 147 586 244 L649 541 C661 604 670 612 730 614 L758 614 L770 667 L497 667 L486 614 L532 614 C574 614 590 605 590 584 C590 578 589 569 583 541 L519 244 C502 162 482 120 447 91 C414 62 366 47 313 47 C231 47 187 82 187 148 C187 169 189 188 193 209 L264 541 C276 604 285 612 345 614 L391 614 L402 667 L99 667 L88 614 Z M321 738 L573 738 L587 803 L335 803 L321 738 Z " />
<glyph glyph-name="umacron" unicode="&#x16b;" horiz-adv-x="613" d="M42 421 L64 421 C104 421 121 412 120 392 C120 385 118 375 116 364 L81 201 C71 155 65 112 65 93 C65 27 110 -13 184 -13 C256 -13 306 13 366 81 L349 0 L520 0 L531 48 L504 48 C468 48 452 56 452 75 C452 82 454 93 456 105 L533 469 L346 469 L336 421 L374 421 C414 421 430 413 430 392 C430 387 428 375 426 364 L391 201 C380 150 363 118 330 85 C299 56 262 40 223 40 C176 40 153 62 153 110 C153 129 157 155 164 188 L223 469 L52 469 L42 421 Z M204 575 L465 575 L480 643 L218 643 L204 575 Z " />
<glyph glyph-name="Uring" unicode="&#x16e;" horiz-adv-x="722" d="M88 614 L118 614 C159 614 175 605 175 584 C175 578 174 570 168 541 L97 209 C92 185 89 160 89 138 C89 37 161 -20 288 -20 C364 -20 430 2 481 43 C534 87 565 147 586 244 L649 541 C661 604 670 612 730 614 L758 614 L770 667 L497 667 L486 614 L532 614 C574 614 590 605 590 584 C590 578 589 569 583 541 L519 244 C502 162 482 120 447 91 C414 62 366 47 313 47 C231 47 187 82 187 148 C187 169 189 188 193 209 L264 541 C276 604 285 612 345 614 L391 614 L402 667 L99 667 L88 614 Z M505 893 C441 893 385 840 385 780 C385 733 416 701 460 701 C522 701 580 757 580 817 C580 861 549 893 505 893 L505 893 Z M494 848 C517 848 534 831 534 807 C534 776 502 746 470 746 C446 746 430 763 430 788 C430 820 460 848 494 848 L494 848 Z " />
<glyph glyph-name="uring" unicode="&#x16f;" horiz-adv-x="613" d="M42 421 L64 421 C104 421 121 412 120 392 C120 385 118 375 116 364 L81 201 C71 155 65 112 65 93 C65 27 110 -13 184 -13 C256 -13 306 13 366 81 L349 0 L520 0 L531 48 L504 48 C468 48 452 56 452 75 C452 82 454 93 456 105 L533 469 L346 469 L336 421 L374 421 C414 421 430 413 430 392 C430 387 428 375 426 364 L391 201 C380 150 363 118 330 85 C299 56 262 40 223 40 C176 40 153 62 153 110 C153 129 157 155 164 188 L223 469 L52 469 L42 421 Z M376 759 C296 759 225 692 225 617 C225 558 263 519 320 519 C397 519 470 589 470 663 C470 718 430 759 376 759 L376 759 Z M364 708 C396 706 417 685 417 653 C417 610 375 570 331 570 C299 570 277 593 277 626 C277 669 321 710 364 708 L364 708 Z " />
<glyph glyph-name="Uhungarumlaut" unicode="&#x170;" horiz-adv-x="722" d="M88 614 L118 614 C159 614 175 605 175 584 C175 578 174 570 168 541 L97 209 C92 185 89 160 89 138 C89 37 161 -20 288 -20 C364 -20 430 2 481 43 C534 87 565 147 586 244 L649 541 C661 604 670 612 730 614 L758 614 L770 667 L497 667 L486 614 L532 614 C574 614 590 605 590 584 C590 578 589 569 583 541 L519 244 C502 162 482 120 447 91 C414 62 366 47 313 47 C231 47 187 82 187 148 C187 169 189 188 193 209 L264 541 C276 604 285 612 345 614 L391 614 L402 667 L99 667 L88 614 Z M373 706 L481 775 C499 787 510 803 510 817 C510 834 500 844 483 844 C469 844 453 834 438 815 L346 706 L373 706 Z M489 706 L615 774 C635 784 648 801 648 816 C648 833 637 844 621 844 C608 844 592 835 576 819 L462 706 L489 706 Z " />
<glyph glyph-name="uhungarumlaut" unicode="&#x171;" horiz-adv-x="613" d="M42 421 L64 421 C104 421 121 412 120 392 C120 385 118 375 116 364 L81 201 C71 155 65 112 65 93 C65 27 110 -13 184 -13 C256 -13 306 13 366 81 L349 0 L520 0 L531 48 L504 48 C468 48 452 56 452 75 C452 82 454 93 456 105 L533 469 L346 469 L336 421 L374 421 C414 421 430 413 430 392 C430 387 428 375 426 364 L391 201 C380 150 363 118 330 85 C299 56 262 40 223 40 C176 40 153 62 153 110 C153 129 157 155 164 188 L223 469 L52 469 L42 421 Z M256 540 L286 540 L396 634 C424 659 433 672 433 687 C433 702 420 715 405 715 C386 715 368 702 348 673 L256 540 Z M369 540 L398 540 L524 631 C555 654 566 669 566 688 C566 703 554 714 538 714 C520 714 502 702 482 678 L369 540 Z " />
<glyph glyph-name="Uogonek" unicode="&#x172;" horiz-adv-x="722" d="M758 614 L770 667 L497 667 L486 614 L532 614 C574 614 590 605 590 583 C590 578 588 568 583 541 L519 244 C502 162 482 120 447 91 C414 63 366 47 313 47 C231 47 187 82 187 149 C187 169 189 188 193 209 L264 541 C276 604 285 612 345 614 L391 614 L402 667 L99 667 L88 614 L118 614 C159 614 175 605 175 583 C175 578 173 569 168 541 L97 209 C92 184 89 160 89 136 C89 37 162 -20 288 -20 C300 -20 309 -20 320 -18 C249 -69 215 -117 215 -165 C215 -198 238 -219 275 -219 C318 -219 359 -192 393 -143 L381 -135 C358 -160 341 -170 319 -170 C298 -170 288 -157 288 -131 C288 -109 297 -86 314 -61 C337 -29 346 -23 397 -3 C508 42 553 100 586 244 L649 541 C661 604 670 612 730 614 L758 614 Z " />
<glyph glyph-name="uogonek" unicode="&#x173;" horiz-adv-x="613" d="M495 0 L520 0 L531 48 L504 48 C468 48 452 56 452 75 C452 82 454 93 456 105 L533 469 L346 469 L336 421 L374 421 C414 421 430 413 430 392 C430 387 428 375 426 364 L391 201 C380 150 363 118 330 85 C299 56 262 40 223 40 C175 40 153 62 153 111 C153 128 157 157 164 188 L223 469 L52 469 L42 421 L64 421 C104 421 121 412 120 392 C120 385 118 375 116 364 L81 201 C71 155 65 112 65 93 C65 27 110 -13 184 -13 C256 -13 306 13 366 81 L349 0 L468 0 C381 -56 337 -111 337 -165 C337 -199 359 -219 396 -219 C439 -219 480 -192 513 -143 L501 -135 C479 -160 461 -170 439 -170 C418 -170 408 -157 408 -132 C408 -91 439 -44 492 -2 L495 0 Z " />
<glyph glyph-name="Ydieresis" unicode="&#x178;" horiz-adv-x="604" d="M235 263 L206 126 C194 63 185 55 125 53 L67 53 L55 0 L400 0 L411 53 L351 53 C311 53 295 61 295 83 C295 89 296 97 302 126 L332 263 L544 532 C597 597 622 614 661 614 L683 614 L694 667 L437 667 L426 614 L490 614 C507 614 519 608 519 599 C519 592 511 577 501 564 L315 331 L232 555 C228 565 226 577 226 585 C226 605 238 614 264 614 L327 614 L338 667 L47 667 L36 614 L63 614 C96 612 117 593 132 550 L235 263 Z M322 821 C289 821 258 792 258 760 C258 736 274 720 299 720 C332 720 362 749 362 780 C362 803 345 821 322 821 L322 821 Z M492 821 C459 821 428 792 428 760 C428 736 444 720 468 720 C501 720 531 749 531 780 C531 803 514 821 492 821 L492 821 Z " />
<glyph glyph-name="Zacute" unicode="&#x179;" horiz-adv-x="585" d="M-47 0 L468 0 L529 287 L479 287 C427 88 400 59 257 53 L76 53 L598 611 L610 667 L113 667 L57 403 L106 403 C150 577 187 615 309 614 L490 614 L-35 54 L-47 0 Z M334 706 L490 770 C520 782 533 797 533 818 C533 834 521 846 505 846 C493 846 476 839 461 827 L299 706 L334 706 Z " />
<glyph glyph-name="zacute" unicode="&#x17a;" horiz-adv-x="472" d="M-47 0 L365 0 L410 212 L364 212 C326 66 310 51 187 50 L65 50 L446 420 L456 469 L68 469 L26 272 L72 272 C108 405 128 423 233 420 L345 420 L-36 50 L-47 0 Z M210 540 L246 540 L410 629 C449 650 462 664 462 684 C462 703 450 715 433 715 C417 715 395 704 375 686 L210 540 Z " />
<glyph glyph-name="Zdotaccent" unicode="&#x17b;" horiz-adv-x="585" d="M-47 0 L468 0 L529 287 L479 287 C427 88 400 59 257 53 L76 53 L598 611 L610 667 L113 667 L57 403 L106 403 C150 577 187 615 309 614 L490 614 L-35 54 L-47 0 Z M399 824 C363 824 331 793 331 760 C331 734 348 717 374 717 C408 717 440 747 440 780 C440 805 422 824 399 824 L399 824 Z " />
<glyph glyph-name="zdotaccent" unicode="&#x17c;" horiz-adv-x="472" d="M-47 0 L365 0 L410 212 L364 212 C326 66 310 51 187 50 L65 50 L446 420 L456 469 L68 469 L26 272 L72 272 C108 405 128 423 233 420 L345 420 L-36 50 L-47 0 Z M311 677 C274 677 239 644 239 608 C239 580 257 562 284 562 C321 562 355 594 355 630 C355 656 335 677 311 677 L311 677 Z " />
<glyph glyph-name="Zcaron" unicode="&#x17d;" horiz-adv-x="585" d="M-47 0 L468 0 L529 287 L479 287 C427 88 400 59 257 53 L76 53 L598 611 L610 667 L113 667 L57 403 L106 403 C150 577 187 615 309 614 L490 614 L-35 54 L-47 0 Z M257 838 L335 706 L409 706 L543 838 L511 838 L385 767 L289 838 L257 838 Z " />
<glyph glyph-name="zcaron" unicode="&#x17e;" horiz-adv-x="472" d="M-47 0 L365 0 L410 212 L364 212 C326 66 310 51 187 50 L65 50 L446 420 L456 469 L68 469 L26 272 L72 272 C108 405 128 423 233 420 L345 420 L-36 50 L-47 0 Z M173 709 L248 540 L312 540 L459 709 L423 709 L296 614 L209 709 L173 709 Z " />
<glyph glyph-name="florin" unicode="&#x192;" horiz-adv-x="578" d="M278 420 L142 45 C123 -6 116 -23 108 -39 C84 -83 53 -104 11 -104 C-13 -104 -23 -99 -41 -79 C-7 -70 15 -46 15 -19 C15 1 2 13 -20 13 C-62 13 -99 -30 -99 -77 C-99 -122 -59 -149 5 -149 C102 -149 172 -94 211 13 L359 420 L465 420 L483 469 L377 469 L390 506 C408 556 419 579 435 600 C453 625 483 639 515 639 C539 639 549 634 568 614 C533 605 511 581 511 553 C511 533 524 521 546 521 C587 521 624 564 624 611 C624 657 585 684 520 684 C476 684 434 671 399 645 C360 616 336 579 310 509 L296 469 L208 469 L191 420 L278 420 Z " />
<glyph glyph-name="uni01D3" unicode="&#x1d3;" horiz-adv-x="722" d="M88 614 L118 614 C159 614 175 605 175 584 C175 578 174 570 168 541 L97 209 C92 185 89 160 89 138 C89 37 161 -20 288 -20 C364 -20 430 2 481 43 C534 87 565 147 586 244 L649 541 C661 604 670 612 730 614 L758 614 L770 667 L497 667 L486 614 L532 614 C574 614 590 605 590 584 C590 578 589 569 583 541 L519 244 C502 162 482 120 447 91 C414 62 366 47 313 47 C231 47 187 82 187 148 C187 169 189 188 193 209 L264 541 C276 604 285 612 345 614 L391 614 L402 667 L99 667 L88 614 Z M325 838 L403 706 L477 706 L611 838 L579 838 L453 767 L357 838 L325 838 Z " />
<glyph glyph-name="Scommaaccent" unicode="&#x218;" horiz-adv-x="594" d="M-28 0 L20 0 L67 74 C133 0 173 -20 258 -20 C415 -20 541 94 541 235 C541 319 493 359 358 388 L270 407 C198 423 167 450 167 496 C167 572 239 629 336 629 C398 629 450 606 477 565 C495 538 502 508 502 460 C502 452 502 437 501 420 L552 420 L605 673 L561 673 L521 612 C453 673 419 687 340 687 C189 687 75 586 75 452 C75 414 87 385 111 364 C139 338 160 330 252 307 L326 289 C415 267 444 244 444 193 C444 109 366 43 265 43 C200 43 147 69 114 118 C90 153 82 185 82 243 C82 248 82 263 83 277 L31 277 L-28 0 Z M153 -266 C228 -250 289 -180 289 -112 C289 -78 267 -56 233 -56 C199 -56 169 -85 169 -118 C169 -137 185 -152 205 -152 C216 -152 224 -149 242 -141 C234 -186 202 -223 160 -234 L153 -266 Z " />
<glyph glyph-name="scommaaccent" unicode="&#x219;" horiz-adv-x="472" d="M-34 -4 L15 -4 L45 47 C89 -1 123 -16 186 -16 C243 -16 297 1 332 30 C372 63 399 117 399 163 C399 219 357 258 278 274 L193 291 C152 299 131 319 131 349 C131 398 176 433 237 433 C280 433 315 418 335 390 C353 366 359 343 359 292 L406 292 L445 475 L403 475 L376 432 C330 471 294 485 237 485 C130 485 43 410 43 318 C43 261 87 219 164 203 L245 186 C289 176 311 158 311 129 C311 77 261 38 192 38 C149 38 112 55 87 86 C64 113 57 138 57 193 L8 193 L-34 -4 Z M65 -266 C140 -250 201 -180 201 -112 C201 -78 179 -56 145 -56 C111 -56 81 -85 81 -118 C81 -137 97 -152 117 -152 C128 -152 136 -149 153 -141 C146 -186 113 -223 72 -234 L65 -266 Z " />
<glyph glyph-name="uni021A" unicode="&#x21a;" horiz-adv-x="632" d="M41 405 L89 405 C130 570 173 612 299 614 L328 614 L224 126 C212 63 203 55 143 53 L85 53 L73 0 L417 0 L429 53 L370 53 C329 53 313 61 313 83 C313 89 315 99 320 126 L424 614 L453 614 C550 614 585 585 585 505 C585 477 582 454 574 405 L622 405 L678 667 L97 667 L41 405 Z M145 -266 C220 -250 281 -180 281 -112 C281 -78 259 -56 225 -56 C191 -56 161 -85 161 -118 C161 -137 177 -152 197 -152 C208 -152 216 -149 234 -141 C226 -186 194 -223 152 -234 L145 -266 Z " />
<glyph glyph-name="uni021B" unicode="&#x21b;" horiz-adv-x="382" d="M112 420 L43 95 C41 86 40 77 40 66 C40 13 73 -17 132 -17 C183 -17 229 8 254 50 C272 80 281 107 302 192 L259 192 C246 136 236 103 224 80 C211 56 186 41 159 41 C135 41 122 52 122 72 C122 84 122 88 124 95 L193 420 L329 420 L339 469 L203 469 L243 655 L198 655 C161 528 118 477 43 469 L33 420 L112 420 Z M20 -266 C95 -250 156 -180 156 -112 C156 -78 134 -56 100 -56 C66 -56 36 -85 36 -118 C36 -137 52 -152 72 -152 C83 -152 91 -149 108 -141 C101 -186 69 -223 27 -234 L20 -266 Z " />
<glyph glyph-name="afii57929" unicode="&#x2bc;" horiz-adv-x="217" d="M57 445 C120 457 153 475 184 516 C210 548 226 590 226 625 C226 662 203 687 168 687 C130 687 100 655 100 617 C100 595 115 580 138 580 C150 580 159 583 177 594 C170 533 125 488 64 480 L57 445 Z " />
<glyph glyph-name="circumflex" unicode="&#x2c6;" horiz-adv-x="489" d="M146 540 L181 540 L309 635 L396 540 L432 540 L357 709 L292 709 L146 540 Z " />
<glyph glyph-name="caron" unicode="&#x2c7;" horiz-adv-x="489" d="M182 709 L256 540 L321 540 L468 709 L432 709 L305 614 L217 709 L182 709 Z " />
<glyph glyph-name="uni02C9" unicode="&#x2c9;" horiz-adv-x="488" d="M167 585 L429 585 L443 653 L181 653 L167 585 Z " />
<glyph glyph-name="breve" unicode="&#x2d8;" horiz-adv-x="490" d="M176 692 C176 656 178 638 183 623 C199 580 238 557 293 557 C335 557 375 571 406 597 C431 619 445 640 467 692 L435 692 C409 644 378 628 308 628 C238 628 213 644 207 692 L176 692 Z " />
<glyph glyph-name="dotaccent" unicode="&#x2d9;" horiz-adv-x="481" d="M316 677 C278 677 243 644 243 608 C243 580 261 562 289 562 C326 562 360 594 360 630 C360 656 340 677 316 677 L316 677 Z " />
<glyph glyph-name="ring" unicode="&#x2da;" horiz-adv-x="487" d="M313 759 C233 759 162 692 162 617 C162 558 200 519 257 519 C334 519 407 589 407 663 C407 718 367 759 313 759 L313 759 Z M301 708 C333 706 354 685 354 653 C354 610 312 570 268 570 C236 570 214 593 214 626 C214 669 258 710 301 708 L301 708 Z " />
<glyph glyph-name="ogonek" unicode="&#x2db;" horiz-adv-x="475" d="M202 17 C99 -43 46 -104 46 -163 C46 -197 68 -217 105 -217 C148 -217 188 -191 222 -141 L210 -133 C188 -158 170 -168 148 -168 C127 -168 117 -155 117 -129 C117 -83 151 -36 223 17 L202 17 Z " />
<glyph glyph-name="tilde" unicode="&#x2dc;" horiz-adv-x="489" d="M430 694 C413 662 400 652 375 652 C368 652 361 653 354 655 L305 668 C293 671 280 673 272 673 C250 673 230 664 210 647 C188 627 175 607 155 560 L183 560 C201 593 215 604 237 604 C244 604 256 602 267 599 L316 586 C324 584 333 583 340 583 C389 583 423 615 458 694 L430 694 Z " />
<glyph glyph-name="hungarumlaut" unicode="&#x2dd;" horiz-adv-x="483" d="M191 540 L220 540 L330 634 C357 658 367 672 367 687 C367 702 354 715 339 715 C320 715 303 702 283 673 L191 540 Z M303 540 L332 540 L459 631 C490 654 501 669 501 688 C501 703 489 714 473 714 C455 714 437 702 416 678 L303 540 Z " />
<glyph glyph-name="uni2011" unicode="&#x2011;" horiz-adv-x="245" d="M-28 201 L217 201 L233 275 L-12 275 L-28 201 Z " />
<glyph glyph-name="figuredash" unicode="&#x2012;" horiz-adv-x="521" d="M6 209 L462 209 L474 266 L18 266 L6 209 Z " />
<glyph glyph-name="endash" unicode="&#x2013;" horiz-adv-x="521" d="M6 209 L462 209 L474 266 L18 266 L6 209 Z " />
<glyph glyph-name="emdash" unicode="&#x2014;" horiz-adv-x="660" d="M-26 209 L634 209 L646 266 L-14 266 L-26 209 Z " />
<glyph glyph-name="afii00208" unicode="&#x2015;" horiz-adv-x="660" d="M-26 209 L634 209 L646 266 L-14 266 L-26 209 Z " />
<glyph glyph-name="quoteleft" unicode="&#x2018;" horiz-adv-x="217" d="M260 687 C203 682 169 665 135 621 C109 589 93 546 93 512 C93 475 116 450 151 450 C189 450 219 481 219 520 C219 541 204 556 181 556 C168 556 159 553 142 542 C149 604 193 649 254 657 L260 687 Z " />
<glyph glyph-name="quoteright" unicode="&#x2019;" horiz-adv-x="217" d="M57 445 C120 457 153 475 184 516 C210 548 226 590 226 625 C226 662 203 687 168 687 C130 687 100 655 100 617 C100 595 115 580 138 580 C150 580 159 583 177 594 C170 533 125 488 64 480 L57 445 Z " />
<glyph glyph-name="quotesinglbase" unicode="&#x201a;" horiz-adv-x="217" d="M-69 -146 C-6 -134 27 -116 58 -76 C84 -44 100 -1 100 33 C100 70 77 95 42 95 C4 95 -26 64 -26 25 C-26 4 -11 -11 12 -11 C24 -11 33 -8 51 3 C44 -58 -1 -103 -62 -111 L-69 -146 Z " />
<glyph glyph-name="quotedblleft" unicode="&#x201c;" horiz-adv-x="415" d="M457 687 C394 674 362 656 330 616 C304 584 288 541 288 507 C288 470 311 445 346 445 C384 445 414 476 414 515 C414 537 399 551 376 551 C364 551 355 548 337 537 C344 599 389 644 450 652 L457 687 Z M261 687 C198 674 165 656 134 616 C108 584 92 541 92 507 C92 470 115 445 150 445 C188 445 218 476 218 515 C218 537 203 551 180 551 C167 551 158 548 141 537 C148 599 192 644 253 652 L261 687 Z " />
<glyph glyph-name="quotedblright" unicode="&#x201d;" horiz-adv-x="415" d="M57 445 C120 457 153 475 184 516 C210 548 226 590 226 625 C226 662 203 687 168 687 C130 687 100 655 100 617 C100 595 115 580 138 580 C150 580 159 583 177 594 C170 533 125 488 64 480 L57 445 Z M254 445 C316 457 349 475 380 516 C406 548 422 591 422 625 C422 662 399 687 364 687 C327 687 296 655 296 617 C296 595 311 580 334 580 C346 580 356 583 374 594 C366 533 322 488 261 480 L254 445 Z " />
<glyph glyph-name="quotedblbase" unicode="&#x201e;" horiz-adv-x="415" d="M-69 -146 C-6 -134 27 -116 58 -76 C84 -44 100 -1 100 33 C100 70 77 95 42 95 C4 95 -26 64 -26 25 C-26 4 -11 -11 12 -11 C24 -11 33 -8 51 3 C44 -58 -1 -103 -62 -111 L-69 -146 Z M128 -146 C191 -134 223 -116 254 -76 C280 -44 296 -1 296 33 C296 70 273 95 238 95 C201 95 170 64 170 25 C170 4 185 -11 208 -11 C221 -11 230 -8 248 3 C240 -59 196 -103 135 -111 L128 -146 Z " />
<glyph glyph-name="dagger" unicode="&#x2020;" horiz-adv-x="561" d="M264 366 C225 182 185 25 156 -60 C130 -141 127 -152 127 -173 C127 -198 140 -214 161 -214 C181 -214 201 -200 211 -180 C222 -156 225 -142 233 -60 C241 33 263 159 306 366 C342 365 358 363 383 358 C445 344 445 344 463 344 C495 344 517 364 517 393 C517 414 505 424 480 424 C470 424 452 422 439 419 C363 403 363 403 313 401 C330 467 340 502 351 532 C385 622 386 627 386 649 C386 673 374 687 353 687 C316 687 296 652 292 583 C289 501 288 495 272 401 C237 402 221 404 195 410 C133 424 133 424 115 424 C83 424 61 404 61 375 C61 354 73 344 98 344 C108 344 126 346 139 349 C213 364 214 364 264 366 L264 366 Z " />
<glyph glyph-name="daggerdbl" unicode="&#x2021;" horiz-adv-x="561" d="M210 236 C217 212 219 197 219 183 C219 151 215 124 205 82 C168 83 152 85 128 90 C66 104 66 104 48 104 C16 104 -6 84 -6 55 C-6 34 6 24 31 24 C42 24 59 26 72 29 C147 45 148 45 197 46 C185 -3 181 -18 165 -60 C132 -149 130 -154 130 -176 C130 -200 142 -214 163 -214 C200 -214 221 -179 224 -110 C228 -16 228 -14 239 46 C275 46 290 44 316 38 C377 24 377 24 396 24 C428 24 450 44 450 73 C450 94 438 104 413 104 C403 104 385 102 372 99 C298 84 297 84 247 82 C258 149 276 194 307 236 C300 261 298 275 298 289 C298 322 302 349 312 390 C348 390 364 388 389 382 C451 368 451 368 469 368 C500 368 523 388 523 417 C523 438 511 448 486 448 C476 448 458 446 445 443 C371 428 370 428 320 426 C332 476 337 491 352 532 C385 622 387 627 387 649 C387 673 375 687 354 687 C317 687 296 652 293 583 C289 491 289 487 278 426 C243 427 226 429 202 434 C139 448 139 448 121 448 C89 448 67 428 67 399 C67 378 79 368 104 368 C114 368 132 370 145 373 C220 389 221 389 270 390 C259 323 241 278 210 236 L210 236 Z " />
<glyph glyph-name="bullet" unicode="&#x2022;" horiz-adv-x="633" d="M349 480 C264 480 184 397 184 309 C184 245 227 200 287 200 C372 200 452 283 452 371 C452 435 409 480 349 480 L349 480 Z " />
<glyph glyph-name="ellipsis" unicode="&#x2026;" horiz-adv-x="796" d="M84 92 C48 92 15 62 15 28 C15 1 33 -17 58 -17 C94 -17 127 15 127 48 C127 73 109 92 84 92 L84 92 Z M348 92 C312 92 279 62 279 28 C279 1 297 -17 322 -17 C358 -17 391 15 391 48 C391 73 373 92 348 92 L348 92 Z M612 92 C576 92 543 62 543 28 C543 1 561 -17 586 -17 C622 -17 655 15 655 48 C655 73 637 92 612 92 L612 92 Z " />
<glyph glyph-name="perthousand" unicode="&#x2030;" horiz-adv-x="1320" d="M272 622 C151 622 49 512 49 381 C49 293 104 238 192 238 C311 238 413 349 413 479 C413 567 358 622 272 622 L272 622 Z M262 571 C305 571 328 540 328 483 C328 439 315 390 293 353 C269 311 237 289 200 289 C158 289 134 321 134 380 C134 423 147 469 169 507 C194 551 223 571 262 571 L262 571 Z M233 -17 L723 622 L664 622 L174 -17 L233 -17 Z M707 366 C586 366 484 257 484 126 C484 38 539 -17 627 -17 C747 -17 849 94 849 224 C849 311 794 366 707 366 L707 366 Z M698 315 C741 315 764 284 764 227 C764 183 751 135 729 98 C705 56 673 34 636 34 C593 34 569 66 569 124 C569 167 582 214 604 252 C629 295 659 315 698 315 L698 315 Z M1122 366 C1001 366 899 257 899 126 C899 38 954 -17 1042 -17 C1162 -17 1264 94 1264 224 C1264 311 1209 366 1122 366 L1122 366 Z M1113 315 C1156 315 1179 284 1179 227 C1179 183 1166 135 1144 98 C1120 56 1088 34 1051 34 C1008 34 984 66 984 124 C984 167 997 214 1019 252 C1044 295 1074 315 1113 315 L1113 315 Z " />
<glyph glyph-name="guilsinglleft" unicode="&#x2039;" horiz-adv-x="274" d="M103 72 L151 72 L124 182 C120 212 120 212 120 219 C120 238 132 271 147 293 L222 403 L173 403 L112 333 C51 265 44 253 44 222 C44 203 46 198 72 142 L103 72 Z " />
<glyph glyph-name="guilsinglright" unicode="&#x203a;" horiz-adv-x="273" d="M59 72 L119 142 C181 211 188 222 188 253 C188 272 186 278 160 333 L129 403 L80 403 L108 293 C109 289 112 261 112 255 C112 237 100 204 85 182 L10 72 L59 72 Z " />
<glyph glyph-name="uni203E" unicode="&#x203e;" horiz-adv-x="500" d="M-86 787 L-98 731 L402 731 L414 787 L-86 787 Z " />
<glyph glyph-name="fraction" unicode="&#x2044;" horiz-adv-x="156" d="M-230 -17 L-171 -17 L378 622 L319 622 L-230 -17 Z " />
<glyph glyph-name="Euro" unicode="&#x20ac;" horiz-adv-x="775" d="M224 399 C272 537 376 631 482 631 C578 631 645 559 645 457 C645 449 644 426 643 408 L691 408 L746 667 L702 667 L666 607 C597 669 558 687 488 687 C330 687 179 571 116 399 L64 399 L37 355 L102 355 C99 342 95 323 93 311 L45 311 L18 267 L88 267 C87 254 87 250 87 239 C87 172 105 114 140 68 C186 8 250 -20 339 -20 C433 -20 507 9 567 69 C611 113 632 152 662 243 L605 243 C579 173 562 143 530 110 C486 65 430 41 367 41 C257 41 196 112 196 242 L196 264 L196 267 L456 267 L483 311 L201 311 C205 336 207 343 210 355 L510 355 L537 399 L224 399 Z " />
<glyph glyph-name="trademark" unicode="&#x2122;" horiz-adv-x="917" d="M53 513 L89 513 C111 606 134 628 207 629 L220 629 L163 361 C157 328 154 325 121 324 L83 324 L75 286 L286 286 L293 324 L255 324 C234 324 225 328 225 338 C225 341 227 352 228 361 L285 629 L299 629 C355 629 374 614 374 569 C374 554 372 541 367 513 L403 513 L436 667 L86 667 L53 513 Z M460 629 L485 629 C507 629 516 625 516 616 C516 613 515 605 512 593 L463 361 C457 328 454 326 420 325 L395 325 L387 287 L558 287 L566 325 L538 325 C516 325 507 328 507 338 C507 342 509 353 510 361 L562 605 L618 287 L645 287 L834 598 L784 361 C777 328 775 326 741 325 L712 325 L704 287 L893 287 L901 325 L874 325 C853 325 844 328 844 338 C844 342 846 352 847 361 L897 593 C903 626 906 628 939 629 L965 629 L973 667 L836 667 L661 382 L611 667 L468 667 L460 629 Z " />
<glyph glyph-name="uni2126" unicode="&#x2126;" horiz-adv-x="768" d="M326 0 L308 155 C230 199 180 288 180 382 C180 434 195 493 221 540 C257 605 317 642 385 642 C453 642 513 605 549 540 C575 493 590 434 590 382 C590 288 540 199 462 155 L444 0 L736 0 L736 153 L712 153 C704 108 684 90 643 90 L497 90 L500 128 C535 141 557 151 580 166 C657 215 702 296 702 382 C702 449 673 522 625 578 C564 648 480 686 385 686 C290 686 206 648 145 578 C97 522 68 449 68 382 C68 296 113 215 190 166 C213 151 235 141 270 128 L273 90 L127 90 C86 90 66 108 58 153 L34 153 L34 0 L326 0 Z " />
<glyph glyph-name="partialdiff" unicode="&#x2202;" horiz-adv-x="494" d="M107 674 C152 697 184 706 219 706 C321 706 379 611 379 447 C379 418 377 394 372 346 C308 396 272 412 221 412 C172 412 131 394 95 355 C51 309 26 246 26 184 C26 76 109 -10 213 -10 C282 -10 341 22 383 84 C429 152 462 286 462 403 C462 519 428 611 360 681 C312 730 259 753 195 753 C155 753 122 746 66 725 L107 674 Z M366 312 C350 201 340 158 314 107 C288 54 245 21 201 21 C146 21 113 73 113 159 C113 273 180 367 261 367 C299 367 324 354 366 312 L366 312 Z " />
<glyph glyph-name="Delta" unicode="&#x2206;" horiz-adv-x="612" d="M6 0 L608 0 L327 688 L6 0 Z M77 51 L290 509 L479 51 L77 51 Z " />
<glyph glyph-name="product" unicode="&#x220f;" horiz-adv-x="823" d="M25 -124 L315 -124 L315 -98 L312 -98 C242 -94 221 -67 224 18 L224 594 C224 656 228 677 242 690 C260 707 272 708 413 708 C556 708 568 707 586 690 C600 677 604 656 604 594 L604 18 C607 -67 586 -94 516 -98 L513 -98 L513 -124 L803 -124 L803 -98 L800 -98 C730 -94 709 -67 712 18 L712 609 C709 694 730 721 800 725 L803 725 L803 751 L25 751 L25 725 L28 725 C98 721 119 694 116 609 L116 18 C119 -67 98 -94 28 -98 L25 -98 L25 -124 Z " />
<glyph glyph-name="summation" unicode="&#x2211;" horiz-adv-x="713" d="M176 711 L444 711 C560 710 590 688 606 587 L632 587 L622 752 L23 752 L256 285 L14 -123 L641 -123 L695 87 L669 87 C639 7 605 -12 491 -11 L163 -11 L364 341 L176 711 Z " />
<glyph glyph-name="minus" unicode="&#x2212;" horiz-adv-x="481" d="M51 342 L37 276 L419 276 L433 342 L51 342 Z " />
<glyph glyph-name="uni2215" unicode="&#x2215;" horiz-adv-x="156" d="M-230 -17 L-171 -17 L378 622 L319 622 L-230 -17 Z " />
<glyph glyph-name="uni2219" unicode="&#x2219;" horiz-adv-x="288" d="M134 285 C99 285 67 255 67 222 C67 196 84 178 109 178 C143 178 176 209 176 242 C176 267 158 285 134 285 L134 285 Z " />
<glyph glyph-name="radical" unicode="&#x221a;" horiz-adv-x="549" d="M363 -35 L515 908 L480 913 L353 123 L156 520 L10 449 L26 414 L121 461 L363 -35 Z " />
<glyph glyph-name="infinity" unicode="&#x221e;" horiz-adv-x="713" d="M357 227 C415 156 485 115 548 115 C631 115 688 176 688 266 C688 354 629 414 543 414 C476 414 412 376 357 303 C300 375 234 414 171 414 C86 414 26 351 26 263 C26 176 84 115 167 115 C224 115 281 142 327 192 L357 227 Z M391 264 C434 325 493 362 546 362 C600 362 638 321 638 264 C638 205 603 167 549 167 C495 167 461 188 391 264 L391 264 Z M324 266 C275 203 216 167 163 167 C111 167 76 207 76 266 C76 323 113 362 167 362 C218 362 258 337 324 266 L324 266 Z " />
<glyph glyph-name="integral" unicode="&#x222b;" horiz-adv-x="274" d="M180 576 C180 653 179 691 176 746 C174 774 173 800 173 815 C173 855 184 878 202 878 C208 878 213 876 215 872 C232 845 239 839 256 839 C276 839 291 853 291 871 C291 898 267 916 231 916 C186 916 152 887 138 838 C123 784 113 682 113 577 L113 232 C113 160 114 124 117 63 C119 34 120 4 120 -12 C120 -47 108 -70 89 -70 C81 -70 74 -65 68 -52 C59 -35 51 -30 37 -30 C17 -30 2 -44 2 -63 C2 -89 26 -107 62 -107 C107 -107 141 -78 155 -29 C170 25 180 126 180 232 L180 576 Z " />
<glyph glyph-name="approxequal" unicode="&#x2248;" horiz-adv-x="549" d="M489 251 C444 199 423 187 384 187 C365 187 354 190 285 211 C212 234 188 239 160 239 C101 239 54 211 14 155 L57 121 C103 174 120 184 159 184 C180 184 180 184 271 157 C350 133 354 132 385 132 C449 132 496 160 527 217 L489 251 Z M489 408 C444 356 423 344 384 344 C365 344 354 347 285 368 C212 391 188 396 160 396 C101 396 54 369 14 312 L57 278 C103 331 120 341 159 341 C180 341 180 341 271 314 C350 290 354 289 385 289 C449 289 496 318 527 375 L489 408 Z " />
<glyph glyph-name="notequal" unicode="&#x2260;" horiz-adv-x="549" d="M187 142 L115 -1 L161 -25 L246 142 L540 142 L540 197 L273 197 L344 336 L540 336 L540 391 L371 391 L439 525 L392 549 L312 391 L15 391 L15 336 L285 336 L215 197 L15 197 L15 142 L187 142 Z " />
<glyph glyph-name="lessequal" unicode="&#x2264;" horiz-adv-x="549" d="M526 55 L29 55 L29 0 L526 0 L526 55 Z M526 639 L29 405 L29 350 L526 117 L526 179 L108 378 L526 577 L526 639 Z " />
<glyph glyph-name="greaterequal" unicode="&#x2265;" horiz-adv-x="549" d="M526 55 L29 55 L29 0 L526 0 L526 55 Z M29 639 L29 577 L447 378 L29 179 L29 117 L526 350 L526 405 L29 639 Z " />
<glyph glyph-name="lozenge" unicode="&#x25ca;" horiz-adv-x="494" d="M209 0 L269 -1 L466 374 L277 740 L214 740 L18 377 L209 0 Z M240 58 L81 376 L245 683 L402 373 L240 58 Z " />
<glyph glyph-name="fi" unicode="&#xfb01;" horiz-adv-x="618" d="M-42 0 L217 0 L227 48 L198 48 C162 48 147 56 147 76 C147 82 149 94 151 105 L218 419 L390 419 C427 419 442 411 442 391 C442 385 440 374 438 362 L383 105 C374 59 363 50 312 48 L281 48 L271 0 L525 0 L536 48 L516 48 C479 48 464 56 464 76 C464 81 466 92 468 105 L546 469 L228 469 L236 506 C257 604 301 644 390 644 C439 644 467 634 490 608 C461 600 443 580 443 554 C443 531 460 516 485 516 C522 516 553 550 553 591 C553 649 492 685 394 685 C259 685 176 622 149 499 L143 469 L57 469 L47 419 L132 419 L66 105 C56 59 45 50 -6 48 L-32 48 L-42 0 Z " />
<glyph glyph-name="fl" unicode="&#xfb02;" horiz-adv-x="623" d="M-42 0 L217 0 L227 48 L198 48 C162 48 147 56 147 76 C147 82 149 94 151 105 L218 419 L322 419 L332 469 L228 469 L236 506 C257 604 301 644 389 644 C435 644 467 634 487 613 C464 599 452 581 452 559 C452 542 458 533 473 526 L383 105 C374 59 363 50 312 48 L281 48 L271 0 L528 0 L539 48 L516 48 C479 48 464 56 464 76 C464 81 466 92 468 105 L588 669 L504 667 C464 681 437 686 395 686 C259 686 176 622 149 499 L143 469 L58 469 L47 419 L132 419 L66 105 C56 59 45 50 -6 48 L-32 48 L-42 0 Z " />
</font>
</svg>
