<?xml version="1.0" standalone="no"?>
<!DOCTYPE svg PUBLIC "-//W3C//DTD SVG 1.1//EN" "http://www.w3.org/Graphics/SVG/1.1/DTD/svg11.dtd" >
<svg xmlns="http://www.w3.org/2000/svg">
<metadata>
Created by FontPrep 20130207 at Fri May 26 16:11:14 2017
 By Lizzy Knight
Copyright 2016 by URW++ Design &#38; Development GmbH
</metadata>
<defs>
<font id="5f3c1f957487aad9092d8864c5d6c08c" horiz-adv-x='1024' >
  <font-face 
    font-family="URWDIN-MediumItalic"
    font-weight="500"
    font-style="italic"
    font-stretch="normal"
    units-per-em="2048"
    panose-1="0 0 6 0 0 0 0 0 0 0"
    ascent="1462"
    descent="-586"
    x-height="1040"
    cap-height="1462"
    bbox="-381 -500 2562 2099.03"
    underline-thickness="147"
    underline-position="-146"
    slope="-10"
    unicode-range="U+0020-FB04"
  />
<missing-glyph horiz-adv-x="409" 
 />
    <glyph glyph-name="ff" unicode="ff" horiz-adv-x="1325" 
d="M905 872h-125l29 168h125l29 160q25 156 96 211q72 55 246 51h127l-27 -153h-62q-94 2 -128 -25t-50 -117l-22 -127h225l-29 -168h-227l-154 -872h-208zM272 872h-125l31 168h125l27 160q27 156 98 211q72 55 244 51h116l-26 -153h-51q-94 2 -128 -25t-51 -117l-22 -127
h184l-28 -168h-185l-153 -872h-209z" />
    <glyph glyph-name="fi" unicode="fi" horiz-adv-x="1234" 
d="M768 0l182 1040h209l-182 -1040h-209zM985 1233l43 240h207l-41 -240h-209zM272 872h-125l31 168h125l27 160q27 156 98 211q72 55 244 51h127l-27 -153h-61q-94 2 -128 -25t-51 -117l-22 -127h227l-28 -168h-228l-153 -872h-209z" />
    <glyph glyph-name="fl" unicode="fl" horiz-adv-x="1306" 
d="M1028 287q0 -65 35 -91t125 -26h39l-31 -170h-47q-186 0 -259 49t-73 174q0 70 21 193l186 1046h207l-191 -1085q-12 -68 -12 -90zM272 872h-125l31 168h125l27 160q27 156 98 211q72 55 244 51h127l-27 -153h-61q-94 2 -128 -25t-51 -117l-22 -127h227l-28 -168h-228
l-153 -872h-209z" />
    <glyph glyph-name="ffi" unicode="ffi" horiz-adv-x="1865" 
d="M905 872h-125l29 168h125l29 160q25 156 96 211q72 55 246 51h127l-27 -153h-62q-94 2 -128 -25t-50 -117l-22 -127h225l-29 -168h-227l-154 -872h-208zM1399 0l184 1040h209l-184 -1040h-209zM1618 1233l41 240h209l-43 -240h-207zM272 872h-125l31 168h125l27 160
q27 156 98 211q72 55 244 51h116l-26 -153h-51q-94 2 -128 -25t-51 -117l-22 -127h184l-28 -168h-185l-153 -872h-209z" />
    <glyph glyph-name="ffl" unicode="ffl" horiz-adv-x="1939" 
d="M905 872h-125l29 168h125l29 160q25 156 96 211q72 55 246 51h127l-27 -153h-62q-94 2 -128 -25t-50 -117l-22 -127h225l-29 -168h-227l-154 -872h-208zM1659 287q0 -65 35 -91t125 -26h39l-29 -170h-49q-186 0 -259 49t-73 176q0 68 22 191l185 1046h209l-193 -1085
q-12 -68 -12 -90zM272 872h-125l31 168h125l27 160q27 156 98 211q72 55 244 51h116l-26 -153h-51q-94 2 -128 -25t-51 -117l-22 -127h184l-28 -168h-185l-153 -872h-209z" />
    <glyph glyph-name=".notdef" horiz-adv-x="409" 
 />
    <glyph glyph-name=".null" horiz-adv-x="0" 
 />
    <glyph glyph-name="nonmarkingreturn" horiz-adv-x="681" 
 />
    <glyph glyph-name="space" unicode=" " horiz-adv-x="409" 
 />
    <glyph glyph-name="exclam" unicode="!" horiz-adv-x="659" 
d="M135 0l41 231h209l-41 -231h-209zM223 403l156 1059h235l-217 -1059h-174z" />
    <glyph glyph-name="quotedbl" unicode="&#x22;" horiz-adv-x="876" 
d="M594 897l84 565h219l-115 -565h-188zM231 897l84 565h217l-114 -565h-187z" />
    <glyph glyph-name="numbersign" unicode="#" 
d="M451 592h200l70 223h-201zM274 592l70 223h-194l45 137h194l117 369h176l-117 -369h201l117 369h176l-115 -369h205l-45 -137h-207l-68 -223h203l-45 -137h-205l-114 -369h-176l114 369h-200l-117 -369h-176l116 369h-196l45 137h196z" />
    <glyph glyph-name="dollar" unicode="$" 
d="M485 190q158 0 249 68t91 184q0 80 -55 119q-36 27 -66 37t-182 47q-356 88 -356 356q0 97 42 189q105 228 410 256l39 219h211l-41 -229q231 -35 295 -189l-184 -104q-68 129 -266 129q-129 0 -208 -66t-79 -158t59 -137t236 -90t254 -100q111 -82 110 -238
q0 -96 -36 -187t-99 -149q-102 -94 -331 -129l-52 -292h-211l52 294q-147 14 -251 72t-139 148l189 108q66 -158 319 -158z" />
    <glyph glyph-name="percent" unicode="%" horiz-adv-x="1867" 
d="M514 0l719 1462h197l-719 -1462h-197zM1481 676q-78 0 -121 -50t-64 -167l-22 -127q-12 -68 -12 -92q0 -125 127 -125q78 0 121 51t63 166l20 112q12 72 13 103q0 129 -125 129zM1486 811q165 -1 232 -67t68 -164q0 -49 -14 -123l-29 -168q-16 -91 -39 -141t-68 -89
q-88 -80 -254 -79q-299 0 -299 227q1 49 17 131l28 164q14 92 37 140t68 89q88 80 253 80zM676 1219q0 129 -125 129q-78 0 -120 -50t-62 -168l-23 -126q-10 -61 -10 -89q0 -127 125 -127q77 0 119 50t65 166l19 112q12 63 12 103zM556 1483q164 -1 232 -67t68 -165
q0 -41 -12 -123l-31 -167q-14 -93 -37 -141t-67 -87q-88 -80 -251 -80q-163 -1 -233 63t-69 163q0 41 14 131l29 164q29 160 111 234t246 75z" />
    <glyph glyph-name="ampersand" unicode="&#x26;" horiz-adv-x="1648" 
d="M352 281q0 -164 207 -164q182 -1 383 157l-227 377q-162 -82 -226 -131q-137 -106 -137 -239zM805 893q281 140 281 287q-2 147 -176 147q-86 0 -148 -56t-64 -141q1 -61 107 -237zM511 -63q-179 0 -279 83q-99 84 -99 242q0 205 170 352q111 94 307 189
q-121 217 -121 321q0 158 122 264t299 107q176 0 280 -83t104 -215q0 -133 -93 -239t-296 -215l199 -333q115 125 180 276h205q-113 -254 -281 -428l166 -258h-256l-78 129q-111 -78 -170 -106q-180 -86 -359 -86z" />
    <glyph glyph-name="quotesingle" unicode="'" horiz-adv-x="514" 
d="M231 897l84 565h217l-114 -565h-187z" />
    <glyph glyph-name="parenleft" unicode="(" horiz-adv-x="903" 
d="M506 436q0 -280 135 -602l-160 -88q-201 360 -200 700q0 214 62 440q61 226 165 397t297 384l141 -102q-174 -231 -250 -375q-190 -350 -190 -754z" />
    <glyph glyph-name="parenright" unicode=")" horiz-adv-x="903" 
d="M688 965q0 -215 -62 -439t-173 -405q-100 -170 -289 -375l-141 102q168 221 251 373q188 354 189 754q0 278 -135 604l161 88q199 -365 199 -702z" />
    <glyph glyph-name="asterisk" unicode="*" 
d="M645 1020l-225 -258l-146 145l256 234l-305 121l84 176l293 -158l41 319l203 -34l-70 -316l330 47l18 -192l-329 -10l161 -308l-186 -86z" />
    <glyph glyph-name="plus" unicode="+" 
d="M102 653l29 168h383l70 393h182l-70 -393h383l-28 -168h-383l-70 -391h-182l69 391h-383z" />
    <glyph glyph-name="comma" unicode="," horiz-adv-x="585" 
d="M-59 -385l204 614h234l-252 -614h-186z" />
    <glyph glyph-name="hyphen" unicode="-" horiz-adv-x="964" 
d="M203 649l30 178h607l-31 -178h-606z" />
    <glyph glyph-name="period" unicode="." horiz-adv-x="587" 
d="M92 0l41 231h219l-41 -231h-219z" />
    <glyph glyph-name="slash" unicode="/" horiz-adv-x="831" 
d="M-31 -43l762 1548h209l-762 -1548h-209z" />
    <glyph glyph-name="zero" unicode="0" 
d="M858 1104q0 199 -170 199q-114 1 -178 -89t-100 -299l-66 -368q-23 -135 -22 -191q0 -199 172 -198q113 0 177 91t101 298l66 368q20 123 20 189zM698 1483q184 0 280 -92t97 -269q0 -76 -22 -215l-74 -407q-27 -154 -59 -236t-95 -147q-123 -137 -333 -137t-298 100
t-88 258q0 78 23 217l72 408q29 153 61 235t92 148q123 137 344 137z" />
    <glyph glyph-name="one" unicode="1" 
d="M383 0l217 1235l-246 -98l-53 161l412 164h147l-258 -1462h-219z" />
    <glyph glyph-name="two" unicode="2" 
d="M829 1155q-1 147 -173 147t-246 -210l-197 16q88 375 457 375q182 0 280 -83t98 -237q1 -219 -193 -443q-52 -60 -212 -220l-317 -322h557l-31 -178h-846l25 141l497 512q172 172 258 333q42 79 43 169z" />
    <glyph glyph-name="three" unicode="3" 
d="M524 856q127 0 208 78t81 201q0 170 -168 170t-229 -170l-193 16q88 332 430 332q183 0 283 -84t100 -248t-94 -272q-51 -57 -162 -107l21 -12q49 -31 68 -48q83 -74 83 -250t-108 -319q-125 -164 -393 -163q-188 0 -295 79q-106 80 -107 222q0 31 2 51l199 16
q-2 -8 -2 -22q0 -76 55 -122t148 -46q152 0 225 116q57 86 57 192t-63 162t-183 56h-110l29 172h118z" />
    <glyph glyph-name="four" unicode="4" 
d="M586 0l47 264h-588l23 133l649 1065h231l-622 -1022h338l71 410h199l-72 -410h139l-30 -176h-140l-47 -264h-198z" />
    <glyph glyph-name="five" unicode="5" 
d="M977 618q0 -136 -33 -263q-33 -126 -84 -195q-133 -178 -401 -178q-180 0 -286 80q-105 81 -105 219q0 31 2 51l198 18q-2 -10 -2 -20q0 -78 54 -124t143 -46q158 0 231 143q57 111 58 260q0 184 -177 185q-125 0 -225 -89l-153 33l204 770h695l-33 -178h-512l-113 -405
q12 6 17 6l80 28q35 10 98 11q162 0 253 -85t91 -221z" />
    <glyph glyph-name="six" unicode="6" 
d="M598 745q-143 1 -207 -129t-63 -290q0 -168 166 -168q140 0 204 128t64 294t-164 165zM987 613q0 -130 -33 -260t-82 -201q-119 -172 -391 -172q-182 0 -280 82t-99 231q0 190 70 362q47 104 139 230l424 577h244l-422 -569q70 23 135 22q133 0 214 -86t81 -216z" />
    <glyph glyph-name="seven" unicode="7" 
d="M156 0l698 1284h-567l30 178h797l-22 -129l-686 -1333h-250z" />
    <glyph glyph-name="eight" unicode="8" 
d="M584 678q-162 0 -219 -105q-66 -104 -66 -254q0 -162 188 -161q164 0 224 114q59 115 59 240q0 166 -186 166zM696 1315q-139 0 -190 -101q-57 -104 -57 -223q0 -145 163 -145q132 0 188 106t56 219q0 144 -160 144zM240 978q0 106 28 202t72 155q115 147 358 148
q367 0 367 -301q0 -168 -74 -295q-39 -72 -131 -117q27 -14 72 -65q57 -69 57 -177t-31 -214t-77 -171q-121 -164 -394 -163q-408 0 -407 321q0 215 96 356q56 82 160 121l-10 13l-23 20q-63 61 -63 167z" />
    <glyph glyph-name="nine" unicode="9" 
d="M680 1305q-140 0 -202 -111t-62 -260q0 -164 168 -164q139 0 200 111t62 260q0 164 -166 164zM190 889q0 127 32 247t81 185q117 162 383 162q188 0 286 -81t99 -235q0 -248 -168 -493l-467 -674h-243l440 625q-84 -18 -141 -19q-141 0 -222 78q-80 78 -80 205z" />
    <glyph glyph-name="colon" unicode=":" horiz-adv-x="587" 
d="M236 811l40 231h220l-41 -231h-219zM92 0l41 231h219l-41 -231h-219z" />
    <glyph glyph-name="semicolon" unicode=";" horiz-adv-x="585" 
d="M256 811l41 231h219l-41 -231h-219zM-59 -385l204 614h234l-252 -614h-186z" />
    <glyph glyph-name="less" unicode="&#x3c;" 
d="M387 737l537 -286l-33 -187l-752 414l23 133l899 414l-37 -203z" />
    <glyph glyph-name="equal" unicode="=" 
d="M166 825l27 164h886l-28 -164h-885zM104 483l29 164h887l-29 -164h-887z" />
    <glyph glyph-name="greater" unicode="&#x3e;" 
d="M799 754l-537 284l33 187l752 -414l-25 -133l-897 -414l35 203z" />
    <glyph glyph-name="question" unicode="?" horiz-adv-x="1191" 
d="M389 0l39 231h211l-41 -231h-209zM954 1149q0 72 -51 115t-149 43q-196 0 -310 -271l-196 35q141 414 530 414q188 0 292 -87t104 -249t-115 -287q-59 -66 -219 -177t-181 -232l-10 -54h-174l14 82q23 127 71 197t177 165t173 165t44 141z" />
    <glyph glyph-name="at" unicode="@" horiz-adv-x="1873" 
d="M1077 926q-131 0 -234 -168t-104 -291q0 -94 95 -94q135 0 253 180q102 152 103 262q0 51 -31 81t-82 30zM1237 428q0 -61 70 -61q135 1 241 163t106 358t-100 304q-143 156 -440 156q-410 0 -645 -332q-88 -121 -137 -283t-49 -321q0 -233 152 -356q153 -122 429 -122
t531 109l49 -131q-287 -119 -590 -119q-365 0 -555 157t-190 458q1 202 69 398t196 352t322 243q194 88 392 88q387 0 577 -182q158 -145 158 -414t-166 -469t-395 -199q-164 0 -166 158q-133 -160 -295 -160q-115 1 -181 61t-65 167q0 190 139 393q158 223 375 223
q117 0 172 -61q18 -18 39 -66l47 104h133l-188 -481q-35 -90 -35 -135z" />
    <glyph glyph-name="A" unicode="A" horiz-adv-x="1245" 
d="M866 483l-116 715l-373 -715h489zM891 305h-598l-156 -305h-243l790 1462h211l274 -1462h-231z" />
    <glyph glyph-name="B" unicode="B" horiz-adv-x="1306" 
d="M700 176q131 0 193 70q84 90 84 235q0 94 -45 137t-146 44h-348l-86 -486h348zM788 838q129 0 193 65q80 86 80 217q0 88 -45 127t-148 39h-319l-80 -448h319zM887 1462q217 0 307 -81t90 -238q0 -264 -217 -381l16 -14q49 -44 61 -58t23 -43q29 -70 29 -162
q0 -233 -137 -370q-63 -63 -143 -89t-205 -26h-607l258 1462h525z" />
    <glyph glyph-name="C" unicode="C" horiz-adv-x="1286" 
d="M1042 1100q0 96 -62 148t-175 52q-156 0 -237 -97t-122 -335l-49 -278q-23 -123 -22 -193q1 -239 245 -239t314 227l201 -23q-86 -383 -535 -382q-217 0 -332 100t-114 291q0 88 26 233l53 305q31 172 68 261t109 161q145 147 399 148q207 0 325 -88t117 -242
q0 -18 -6 -59l-205 -17q2 12 2 27z" />
    <glyph glyph-name="D" unicode="D" horiz-adv-x="1382" 
d="M1083 1049q0 127 -94 192q-63 45 -215 45h-223l-197 -1110h226q190 -4 290 89t142 315l53 303q18 104 18 166zM815 1462q236 0 342 -80q147 -106 148 -305q0 -68 -23 -203l-59 -339q-80 -541 -611 -535h-508l258 1462h453z" />
    <glyph glyph-name="E" unicode="E" horiz-adv-x="1187" 
d="M106 0l259 1462h876l-31 -178h-661l-80 -455h561l-31 -178h-561l-84 -473h666l-31 -178h-883z" />
    <glyph glyph-name="F" unicode="F" horiz-adv-x="1118" 
d="M106 0l259 1462h868l-33 -178h-649l-82 -465h549l-31 -180h-549l-112 -639h-220z" />
    <glyph glyph-name="G" unicode="G" horiz-adv-x="1353" 
d="M1274 1145q0 -31 -4 -58l-207 -14q2 18 2 35q0 90 -67 141t-183 51q-162 0 -246 -98t-125 -334l-49 -278q-20 -117 -20 -187q0 -246 256 -245q155 0 243 84t121 260l19 112h-275l31 170h492l-48 -264q-28 -152 -62 -234t-101 -151q-154 -155 -415 -155t-374 110
q-109 102 -108 287q0 90 24 227l55 305q29 168 68 259t111 163q147 147 409 148q213 0 333 -88t120 -246z" />
    <glyph glyph-name="H" unicode="H" horiz-adv-x="1392" 
d="M104 0l258 1462h220l-113 -633h561l113 633h219l-258 -1462h-219l114 651h-561l-114 -651h-220z" />
    <glyph glyph-name="I" unicode="I" horiz-adv-x="612" 
d="M104 0l258 1462h220l-258 -1462h-220z" />
    <glyph glyph-name="J" unicode="J" horiz-adv-x="970" 
d="M305 -20q-127 0 -218 36t-181 123l147 146q97 -127 241 -127t214 141q27 57 65 270l158 893h219l-162 -915q-37 -207 -55 -269t-59 -124q-117 -174 -369 -174z" />
    <glyph glyph-name="K" unicode="K" horiz-adv-x="1263" 
d="M106 0l259 1462h217l-129 -729l690 729h256l-584 -594l367 -868h-254l-279 719l-243 -252l-82 -467h-218z" />
    <glyph glyph-name="L" unicode="L" horiz-adv-x="1101" 
d="M104 0l258 1462h220l-228 -1284h666l-33 -178h-883z" />
    <glyph glyph-name="M" unicode="M" horiz-adv-x="1671" 
d="M104 0l258 1462h205l273 -901l590 901h210l-258 -1462h-211l187 1053l-492 -748h-139l-225 748l-187 -1053h-211z" />
    <glyph glyph-name="N" unicode="N" horiz-adv-x="1470" 
d="M104 0l258 1462h211l461 -1093l193 1093h213l-258 -1462h-211l-461 1094l-193 -1094h-213z" />
    <glyph glyph-name="O" unicode="O" horiz-adv-x="1378" 
d="M373 403q0 -245 260 -245q162 0 249 97t126 318l55 316q20 104 20 170q0 244 -262 244q-176 0 -270 -127q-70 -92 -105 -287l-55 -316q-18 -106 -18 -170zM1305 1085q0 -78 -23 -204l-63 -355q-29 -160 -67 -246t-114 -157q-152 -143 -404 -143t-368 108
q-115 108 -114 285q-1 84 22 209l62 354q29 160 67 247q39 87 115 156q156 143 400 143t365 -102q122 -102 122 -295z" />
    <glyph glyph-name="P" unicode="P" horiz-adv-x="1241" 
d="M717 727q157 0 239 96t82 269q0 102 -52 148t-171 46h-266l-98 -559h266zM817 1462q231 0 334 -82q113 -94 113 -258q0 -122 -36 -236q-74 -234 -265 -302q-96 -35 -252 -35h-289l-96 -549h-220l259 1462h452z" />
    <glyph glyph-name="Q" unicode="Q" horiz-adv-x="1378" 
d="M1083 1059q0 244 -262 244q-176 0 -270 -127q-70 -92 -105 -287l-55 -316q-18 -106 -18 -170q0 -246 262 -245q112 0 192 53l-184 170l127 125l172 -158q39 76 66 225l55 316q20 104 20 170zM608 -20q-228 0 -342 108q-115 108 -114 285q0 84 22 209l62 354
q29 160 67 247q39 87 115 156q156 143 400 143t365 -102q122 -102 122 -295q0 -78 -23 -204l-63 -355q-23 -126 -47 -194t-68 -133l125 -117l-127 -125l-127 117q-139 -94 -367 -94z" />
    <glyph glyph-name="R" unicode="R" horiz-adv-x="1318" 
d="M758 788q152 0 228 84t77 234q0 94 -55 137t-177 43h-282l-88 -498h297zM856 1462q430 0 430 -319q0 -117 -36 -225t-99 -173q-92 -100 -238 -110l207 -635h-241l-183 618h-262l-108 -618h-220l259 1462h491z" />
    <glyph glyph-name="S" unicode="S" horiz-adv-x="1181" 
d="M866 430q0 90 -55 133q-33 27 -65 37t-198 53q-338 88 -337 355q0 217 141 346t379 129q340 0 438 -203l-182 -106q-72 131 -272 131q-125 0 -205 -74t-80 -191q0 -82 59 -129t198 -84t193 -59q205 -82 205 -304q-1 -222 -151 -353t-405 -131t-396 90q-78 47 -119 139
l189 106q66 -156 323 -155q195 0 281 108q59 72 59 162z" />
    <glyph glyph-name="T" unicode="T" horiz-adv-x="1136" 
d="M369 0l225 1284h-410l31 178h1038l-30 -178h-410l-225 -1284h-219z" />
    <glyph glyph-name="U" unicode="U" horiz-adv-x="1406" 
d="M641 158q190 0 285 137q47 72 78 246l163 921h219l-169 -958q-29 -158 -58 -231t-90 -136q-152 -158 -426 -157q-145 0 -235 30t-150 99q-82 94 -82 233q0 78 27 236l155 884h220l-162 -921q-18 -106 -19 -168q0 -215 244 -215z" />
    <glyph glyph-name="V" unicode="V" horiz-adv-x="1196" 
d="M412 0l-232 1462h215l158 -1159l569 1159h226l-748 -1462h-188z" />
    <glyph glyph-name="W" unicode="W" horiz-adv-x="1832" 
d="M330 0l-113 1462h215l53 -1149l512 1149h162l105 -1149l460 1149h226l-629 -1462h-191l-110 1100l-498 -1100h-192z" />
    <glyph glyph-name="X" unicode="X" horiz-adv-x="1175" 
d="M510 776l-283 686h228l215 -528l379 528h241l-534 -725l305 -737h-230l-233 582l-418 -582h-243z" />
    <glyph glyph-name="Y" unicode="Y" horiz-adv-x="1099" 
d="M350 0l94 528l-292 934h225l209 -714l461 714h239l-622 -934l-95 -528h-219z" />
    <glyph glyph-name="Z" unicode="Z" horiz-adv-x="1132" 
d="M14 0l27 147l842 1137h-609l33 178h856l-24 -147l-842 -1137h672l-33 -178h-922z" />
    <glyph glyph-name="bracketleft" unicode="[" horiz-adv-x="903" 
d="M193 -201l319 1813h428l-27 -156h-217l-266 -1501h217l-26 -156h-428z" />
    <glyph glyph-name="backslash" unicode="\" horiz-adv-x="831" 
d="M664 -43h-209l-215 1548h209z" />
    <glyph glyph-name="bracketright" unicode="]" horiz-adv-x="903" 
d="M778 1612l-319 -1813h-428l26 156h215l267 1501h-215l26 156h428z" />
    <glyph glyph-name="asciicircum" unicode="^" 
d="M684 1227l-332 -453h-252l559 699h121l314 -699h-238z" />
    <glyph glyph-name="underscore" unicode="_" horiz-adv-x="962" 
d="M-207 -367l27 148h1065l-27 -148h-1065z" />
    <glyph glyph-name="grave" unicode="`" horiz-adv-x="1024" 
d="M756 1188h-152l-192 303h231z" />
    <glyph glyph-name="a" unicode="a" horiz-adv-x="1081" 
d="M502 471q-141 0 -199 -57q-55 -59 -55 -164q0 -59 43 -85t163 -26t181 64q31 35 49 131l23 137h-205zM580 893q-143 0 -248 -105l-125 103q150 170 391 170q178 0 270 -69t93 -201q0 -66 -19 -175l-111 -616h-163l-9 49q-92 -69 -271 -69t-262 57t-83 182q0 199 93 299
t339 100h258l10 60q8 45 9 80q0 135 -172 135z" />
    <glyph glyph-name="b" unicode="b" horiz-adv-x="1159" 
d="M657 893q-217 0 -264 -279l-35 -188q-8 -66 -8 -94q0 -184 191 -185q113 0 176 73t92 237l22 127q10 66 11 116q0 193 -185 193zM1053 748q0 -80 -17 -179l-26 -153q-40 -232 -144 -334t-280 -102t-258 67q-10 9 -28 31t-28 31l-34 -109h-162l258 1462h209l-88 -495
q63 55 114 74t136 20q348 0 348 -313z" />
    <glyph glyph-name="c" unicode="c" horiz-adv-x="976" 
d="M113 328q0 70 18 184l12 76q41 231 140 338q123 135 335 135q276 0 357 -205l-170 -68q-33 57 -73 81t-109 24q-113 0 -179 -79t-96 -249l-16 -96q-10 -66 -10 -119q0 -203 192 -203q129 1 217 103l135 -111q-135 -160 -374 -159q-184 0 -282 89q-97 89 -97 259z" />
    <glyph glyph-name="d" unicode="d" horiz-adv-x="1159" 
d="M811 709q0 184 -188 184q-113 1 -177 -73t-94 -236l-22 -127q-12 -68 -13 -119q0 -190 183 -191q219 0 268 279l33 188q10 66 10 95zM739 0v90q-2 -2 -4 -5t-6 -5q-56 -56 -117 -78q-61 -23 -153 -22q-352 0 -353 313q0 80 19 178l27 154q41 233 142 334t294 102
q127 0 219 -49l55 -45l88 495h209l-258 -1462h-162z" />
    <glyph glyph-name="e" unicode="e" horiz-adv-x="1118" 
d="M831 717q0 190 -190 190q-111 0 -188 -74t-93 -210h461q10 43 10 94zM539 143q145 0 239 107l135 -111q-75 -88 -163 -124t-230 -35q-408 0 -407 344q0 90 18 184l14 82q45 252 158 362t330 109q389 0 389 -350q0 -100 -29 -238h-659l-6 -39q-8 -43 -9 -86
q0 -205 220 -205z" />
    <glyph glyph-name="f" unicode="f" horiz-adv-x="694" 
d="M272 872h-125l31 168h125l27 160q27 156 98 211q72 55 244 51h127l-27 -153h-61q-94 2 -128 -25t-51 -117l-22 -127h227l-28 -168h-228l-153 -872h-209z" />
    <glyph glyph-name="g" unicode="g" horiz-adv-x="1159" 
d="M807 707q0 186 -186 186q-113 1 -179 -73t-92 -236l-22 -127q-12 -72 -13 -119q0 -190 183 -191q219 0 268 279l33 188q8 35 8 93zM446 -20q-342 0 -342 315q0 70 19 174l27 156q41 233 142 334t301 101t292 -112l35 92h163l-182 -1026q-45 -256 -170 -376t-350 -119
q-281 0 -367 182l170 90q33 -59 77 -84t120 -24q254 0 307 303l14 82q-90 -88 -256 -88z" />
    <glyph glyph-name="h" unicode="h" horiz-adv-x="1163" 
d="M1036 780q0 -70 -22 -205l-101 -575h-208l102 586q12 66 12 121q0 174 -166 174q-115 0 -179 -79t-95 -255l-96 -547h-209l258 1462h209l-86 -489q62 52 119 69q57 18 137 19q153 0 239 -74t86 -207z" />
    <glyph glyph-name="i" unicode="i" horiz-adv-x="540" 
d="M76 0l182 1040h209l-182 -1040h-209zM293 1233l43 240h207l-41 -240h-209z" />
    <glyph glyph-name="j" unicode="j" horiz-adv-x="555" 
d="M303 1233l43 240h209l-43 -240h-209zM270 1040h207l-184 -1048q-41 -279 -151 -373t-386 -90l31 172q137 -6 205 57t90 222z" />
    <glyph glyph-name="k" unicode="k" horiz-adv-x="1064" 
d="M76 0l258 1462h209l-170 -958l508 536h241l-434 -440l279 -600h-228l-207 467l-202 -211l-45 -256h-209z" />
    <glyph glyph-name="l" unicode="l" horiz-adv-x="612" 
d="M336 287q0 -65 35 -91t125 -26h39l-31 -170h-47q-186 0 -259 49t-73 174q0 70 20 193l187 1046h207l-191 -1085q-12 -68 -12 -90z" />
    <glyph glyph-name="m" unicode="m" horiz-adv-x="1716" 
d="M418 1040v-94q100 115 274 115q207 0 283 -143q92 143 303 143q154 0 234 -71t79 -204q0 -82 -22 -211l-103 -575h-206l100 575q14 72 14 140q0 168 -149 168q-105 0 -163 -80t-91 -266l-94 -537h-209l100 575q16 88 16 134q0 174 -149 174q-107 0 -165 -80t-91 -268
l-94 -535h-209l182 1040h160z" />
    <glyph glyph-name="n" unicode="n" horiz-adv-x="1163" 
d="M416 1040v-98q104 119 299 119q157 0 239 -73t82 -208q0 -76 -22 -205l-101 -575h-208l100 573q14 84 14 132q0 178 -166 178q-117 0 -180 -80t-96 -271l-94 -532h-209l182 1040h160z" />
    <glyph glyph-name="o" unicode="o" horiz-adv-x="1142" 
d="M825 707q0 186 -196 186q-119 0 -184 -72t-93 -235l-22 -131q-12 -68 -13 -119q0 -188 197 -189q120 0 184 72t93 236l22 131q12 68 12 121zM1036 737q0 -63 -16 -166l-29 -157q-39 -229 -153 -332q-115 -102 -332 -102q-399 0 -400 325q1 68 17 162l29 160
q41 231 154 332q114 101 331 102q399 0 399 -324z" />
    <glyph glyph-name="p" unicode="p" horiz-adv-x="1159" 
d="M662 893q-219 0 -271 -279l-33 -188q-10 -57 -10 -94q0 -184 189 -185q113 0 177 75t93 235l22 127q12 61 13 116q0 193 -180 193zM710 1061q170 0 256 -77t87 -239q0 -72 -17 -176l-28 -153q-42 -232 -144 -334t-280 -102t-287 98l-94 -539h-209l264 1501h162l8 -79
q112 100 282 100z" />
    <glyph glyph-name="q" unicode="q" horiz-adv-x="1159" 
d="M811 705q0 188 -188 188q-113 1 -179 -73t-92 -236l-22 -127q-12 -72 -13 -119q0 -190 183 -191q219 0 268 279l33 188q10 51 10 91zM455 -20q-348 0 -349 313q0 84 19 176l27 156q39 211 124 311q106 125 310 125t299 -109l37 88h163l-264 -1501h-209l93 531
q-104 -90 -250 -90z" />
    <glyph glyph-name="r" unicode="r" horiz-adv-x="784" 
d="M688 1061q92 0 191 -60l-119 -174q-70 55 -133 56q-101 0 -161 -89t-95 -288l-88 -506h-209l182 1040h162l8 -96q58 63 114 90t148 27z" />
    <glyph glyph-name="s" unicode="s" horiz-adv-x="985" 
d="M408 143q118 -1 184 49t65 136q0 55 -45 82q-38 18 -186 38t-216 81q-68 60 -69 180q1 158 103 255t291 97q295 0 387 -182l-162 -88q-72 106 -217 106q-89 0 -143 -45q-54 -44 -54 -110t37 -90t143 -38q190 -25 264 -83t72 -185q0 -367 -459 -366q-331 0 -415 178
l168 94q78 -109 252 -109z" />
    <glyph glyph-name="t" unicode="t" horiz-adv-x="696" 
d="M365 283q1 -63 33 -87t120 -24h33l-31 -172h-31q-188 0 -262 48t-73 169q0 70 22 199l80 456h-121l29 168h127l67 318h193l-55 -318h204l-30 -168h-205l-86 -483q-14 -82 -14 -106z" />
    <glyph glyph-name="u" unicode="u" horiz-adv-x="1140" 
d="M342 334q0 -176 156 -176q113 0 172 80t94 270l94 532h209l-184 -1040h-144l-8 104q-53 -68 -121 -96t-170 -28q-152 0 -234 72t-81 204q0 88 27 229l96 555h209l-99 -557q-16 -98 -16 -149z" />
    <glyph glyph-name="v" unicode="v" horiz-adv-x="1015" 
d="M317 0l-184 1040h207l115 -780l391 780h217l-551 -1040h-195z" />
    <glyph glyph-name="w" unicode="w" horiz-adv-x="1587" 
d="M289 0l-131 1040h207l63 -780l379 780h145l103 -780l340 780h217l-498 -1040h-174l-111 723l-366 -723h-174z" />
    <glyph glyph-name="x" unicode="x" horiz-adv-x="974" 
d="M379 537l-229 503h217l155 -346l269 346h243l-428 -518l238 -522h-219l-162 362l-281 -362h-243z" />
    <glyph glyph-name="y" unicode="y" horiz-adv-x="1015" 
d="M315 10l-188 1030h207l125 -802l385 802h217l-598 -1171q-83 -157 -143 -223t-142 -90t-241 -27l30 172q119 -2 169 31t116 155z" />
    <glyph glyph-name="z" unicode="z" horiz-adv-x="978" 
d="M-8 0l22 131l625 741h-455l31 168h713l-25 -131l-622 -741h524l-29 -168h-784z" />
    <glyph glyph-name="braceleft" unicode="{" horiz-adv-x="903" 
d="M539 -201q-162 0 -230 48t-67 163q0 70 26 223l37 205q20 123 21 148q0 92 -138 92h-16l23 127h16q106 4 143 49t60 201l30 178q33 229 116 304t298 75h90l-26 -144h-43q-115 -2 -159 -58t-75 -245l-20 -110q-23 -156 -58 -215t-125 -101q96 -39 97 -137q0 -37 -25 -174
l-33 -182q-23 -134 -23 -192t36 -85q35 -27 116 -26h43l-24 -144h-90z" />
    <glyph glyph-name="bar" unicode="|" 
d="M336 -201l319 1813h183l-320 -1813h-182z" />
    <glyph glyph-name="braceright" unicode="}" horiz-adv-x="903" 
d="M510 1358q0 58 -35 84q-35 27 -117 26h-43l25 144h90q162 0 230 -48t67 -165q0 -70 -27 -221l-24 -136q-20 -113 -21 -147q0 -90 138 -90h16l-23 -127h-16q-106 -4 -143 -49t-60 -201l-43 -250q-32 -229 -116 -305t-297 -74h-91l25 144h45q115 1 159 59t75 244l32 182
q23 156 58 215t125 98q-96 41 -97 142q0 33 25 172l18 110q25 135 25 193z" />
    <glyph glyph-name="asciitilde" unicode="~" 
d="M422 895q59 0 99 -15t125 -76t138 -61q92 0 174 136l119 -37q-121 -258 -317 -258q-90 0 -178 62t-116 76t-63 13q-96 0 -176 -145l-123 28q68 152 140 214t178 63z" />
    <glyph glyph-name="uni00A0" unicode="&#xa0;" horiz-adv-x="409" 
 />
    <glyph glyph-name="exclamdown" unicode="&#xa1;" horiz-adv-x="659" 
d="M526 1040l-41 -231h-209l41 231h209zM438 635l-155 -1059h-236l217 1059h174z" />
    <glyph glyph-name="cent" unicode="&#xa2;" 
d="M197 616q0 68 16 162l14 76q37 233 135 352t277 148l41 223h211l-43 -238q84 -20 133 -57t80 -106l-168 -86q-31 56 -71 80t-105 24q-227 0 -285 -330l-20 -112q-12 -76 -13 -113q0 -197 189 -197q135 0 231 103l135 -86q-61 -76 -119 -110t-171 -60l-43 -240h-211
l43 246q-256 51 -256 321z" />
    <glyph glyph-name="sterling" unicode="&#xa3;" 
d="M350 535q0 31 -8 71h-215l33 180h129q-43 145 -43 222q0 190 120 332t358 142q239 0 341 -143q47 -63 68 -215l-189 -65l-4 20l-10 66q-12 74 -68 119t-154 45t-168 -79t-69 -206q0 -80 57 -238h349l-33 -180h-289q4 -57 4 -59q0 -211 -186 -369h622l-32 -178h-938
l26 154q131 38 215 146t84 235z" />
    <glyph glyph-name="currency" unicode="&#xa4;" 
d="M582 397q116 0 188 79t72 207t-72 207t-188 79q-117 0 -189 -78q-71 -78 -71 -207t72 -208t188 -79zM145 683q0 134 82 257l-176 184l109 97l170 -179q117 78 252 78t252 -78l170 179l108 -97l-176 -184q82 -123 82 -257t-82 -257l174 -182l-106 -99l-170 179
q-117 -78 -252 -78t-252 78l-170 -179l-109 99l176 182q-82 123 -82 257z" />
    <glyph glyph-name="yen" unicode="&#xa5;" 
d="M354 0l54 297h-306l23 123h303l23 123h-306l23 123h246l-248 796h225l201 -700l448 700h240l-530 -796h245l-20 -123h-305l-23 -123h305l-22 -123h-303l-54 -297h-219z" />
    <glyph glyph-name="brokenbar" unicode="&#xa6;" horiz-adv-x="1024" 
d="M319 0l93 528h202l-94 -528h-201zM479 911l99 551h200l-96 -551h-203z" />
    <glyph glyph-name="section" unicode="&#xa7;" 
d="M348 632q0 -66 42 -102q42 -35 173 -79l94 -33l38 26q19 12 30 19q74 43 74 147q0 70 -42 107t-169 84l-92 33q-84 -48 -116 -92t-32 -110zM416 -51q106 0 171 48q65 49 65 119t-46 103q-30 23 -184 74t-220 118t-65 173q0 197 228 317q-84 76 -84 191q1 176 117 284
t295 107q179 0 286 -70q35 -25 86 -86l-162 -104q-70 86 -177 86q-106 -1 -166 -51t-60 -118t36 -97q36 -31 152 -71t161 -63q46 -23 85 -57q78 -68 78 -198t-101 -226q-35 -33 -118 -78q78 -76 77 -188q0 -174 -122 -281q-124 -106 -314 -106t-307 71q-50 31 -109 103
l162 106q88 -106 236 -106z" />
    <glyph glyph-name="dieresis" unicode="&#xa8;" horiz-adv-x="1024" 
d="M737 1202l41 234h187l-41 -234h-187zM338 1202l41 234h188l-43 -234h-186z" />
    <glyph glyph-name="copyright" unicode="&#xa9;" horiz-adv-x="1693" 
d="M1458 729q0 269 -172 447t-437 178t-438 -175t-173 -447t173 -447q173 -176 438 -176t437 176t172 444zM850 1495q336 0 554 -218t218 -547t-220 -546t-555 -217t-555 217t-220 545q0 160 57 303t162 246q223 217 559 217zM543 680v102q1 162 75 236t230 74t227 -50
q72 -50 80 -155l-151 -8q-16 92 -144 92q-82 0 -117 -40t-34 -134v-131q0 -94 34 -135q35 -40 117 -39q134 0 152 92l153 -13q-12 -201 -309 -200q-178 0 -256 92q-57 70 -57 217z" />
    <glyph glyph-name="ordfeminine" unicode="&#xaa;" horiz-adv-x="710" 
d="M446 1094q-159 0 -159 -112q0 -52 25 -68q26 -15 92 -15t97 22q32 22 42 72l16 101h-113zM582 1278q0 78 -101 78q-80 0 -162 -64l-79 78q102 104 260 105q244 0 243 -177q0 -43 -12 -100l-69 -397h-130l3 39q-72 -52 -186 -52t-166 38t-52 122q0 128 73 186t251 58h114
l9 41q4 33 4 45z" />
    <glyph glyph-name="guillemotleft" unicode="&#xab;" horiz-adv-x="935" 
d="M305 590l133 -256l-143 -76l-217 346l340 344l110 -102zM709 590l133 -256l-144 -76l-217 346l340 344l111 -102z" />
    <glyph glyph-name="logicalnot" unicode="&#xac;" 
d="M119 653l28 168h854l-104 -596h-201l74 428h-651z" />
    <glyph glyph-name="uni00AD" unicode="&#xad;" horiz-adv-x="964" 
d="M203 649l30 178h607l-31 -178h-606z" />
    <glyph glyph-name="registered" unicode="&#xae;" horiz-adv-x="1419" 
d="M711 723q207 0 333 131t125 333q1 202 -125 332t-332 130t-333 -131t-127 -330t129 -338q123 -127 330 -127zM104 1187q0 257 174 425t435 168q262 0 433 -170t171 -425t-172 -424t-434 -169t-435 169q-172 169 -172 426zM614 1204h125q102 0 103 86q0 84 -109 84h-119
v-170zM616 1124v-221h-139v567h264q125 0 183 -39q57 -41 57 -121t-27 -116t-92 -55l142 -236h-152l-125 221h-111z" />
    <glyph glyph-name="macron" unicode="&#xaf;" horiz-adv-x="1024" 
d="M356 1253l27 150h573l-26 -150h-574z" />
    <glyph glyph-name="degree" unicode="&#xb0;" horiz-adv-x="849" 
d="M545 1376q-197 0 -197 -205q0 -98 50 -150t144 -52t143 53q50 52 50 150t-50 151t-140 53zM542 1524q169 0 265 -94t96 -258t-97 -258q-97 -93 -265 -93t-266 94q-97 94 -97 258t97 258q98 93 267 93z" />
    <glyph glyph-name="plusminus" unicode="&#xb1;" 
d="M-12 0l28 168h949l-29 -168h-948zM109 684l28 168h383l68 379h182l-68 -379h383l-28 -168h-383l-66 -377h-184l68 377h-383z" />
    <glyph glyph-name="twosuperior" unicode="&#xb2;" horiz-adv-x="712" 
d="M627 1464q0 86 -103 86t-147 -123l-156 17q39 129 116 185t216 57q246 0 246 -193q0 -109 -64 -207q-37 -53 -182 -194l-170 -164h315l-24 -137h-551l18 108l310 301q176 170 176 264z" />
    <glyph glyph-name="threesuperior" unicode="&#xb3;" horiz-adv-x="712" 
d="M567 1079q0 115 -143 115h-88l20 117h78q76 0 126 40t50 92q0 103 -100 101q-104 0 -141 -94l-152 16q33 111 109 162t209 51q250 0 249 -186q0 -113 -59 -182q-18 -20 -76 -58q88 -57 88 -157q0 -129 -71 -215q-90 -103 -278 -103t-251 86q-27 37 -26 117v16l165 25
q-4 -109 123 -109q76 0 122 46t46 120z" />
    <glyph glyph-name="acute" unicode="&#xb4;" horiz-adv-x="1024" 
d="M510 1190l213 301h242l-297 -301h-158z" />
    <glyph glyph-name="mu" unicode="&#xb5;" 
d="M326 326q0 -172 161 -172q111 0 171 82t96 272l94 532h203l-183 -1040h-141l-6 117q-90 -137 -270 -137q-63 0 -99 14t-80 61l-96 -516h-203l265 1501h202l-100 -579q-14 -72 -14 -135z" />
    <glyph glyph-name="paragraph" unicode="&#xb6;" horiz-adv-x="1275" 
d="M440 684q-98 0 -147 11t-94 46q-104 82 -105 248q0 123 58 236q110 219 350 235q35 2 190 2h543l-307 -1741h-197l279 1569h-215l-277 -1569h-196l170 963h-52z" />
    <glyph glyph-name="periodcentered" unicode="&#xb7;" horiz-adv-x="585" 
d="M201 621l41 229h219l-41 -229h-219z" />
    <glyph glyph-name="cedilla" unicode="&#xb8;" horiz-adv-x="1024" 
d="M188 -469l164 332h203l-223 -332h-144z" />
    <glyph glyph-name="onesuperior" unicode="&#xb9;" horiz-adv-x="516" 
d="M250 791l125 714l-158 -57l-29 123l269 96h116l-153 -876h-170z" />
    <glyph glyph-name="ordmasculine" unicode="&#xba;" horiz-adv-x="737" 
d="M328 1014q0 -100 108 -101q135 0 162 162l20 113q6 29 7 61q0 100 -111 101q-131 0 -162 -162l-18 -113q-6 -25 -6 -61zM788 1272q0 -39 -10 -101l-22 -122q-25 -139 -100 -199t-222 -62q-270 0 -270 203q0 38 10 99l23 124q25 139 99 200q75 60 222 61q270 0 270 -203z
" />
    <glyph glyph-name="guillemotright" unicode="&#xbb;" horiz-adv-x="935" 
d="M659 618l-133 256l144 74l217 -344l-340 -346l-111 104zM256 618l-133 256l143 74l217 -344l-340 -346l-110 104z" />
    <glyph glyph-name="onequarter" unicode="&#xbc;" horiz-adv-x="1798" 
d="M430 0l719 1462h194l-716 -1462h-197zM1331 0l29 154h-383l18 100l408 623h178l-387 -590h188l31 172h152l-31 -172h88l-23 -133h-90l-26 -154h-152zM326 586l127 714l-160 -57l-29 123l268 96h117l-153 -876h-170z" />
    <glyph glyph-name="onehalf" unicode="&#xbd;" horiz-adv-x="1798" 
d="M401 0l717 1462h197l-719 -1462h-195zM1495 676q-1 84 -103 84t-145 -123l-155 16q39 129 115 186q77 56 216 56q246 0 246 -193q0 -149 -120 -277q-30 -32 -128 -124l-170 -164h316l-23 -137h-553l21 109l309 301q174 168 174 266zM313 586l127 714l-159 -57l-29 123
l268 96h117l-154 -876h-170z" />
    <glyph glyph-name="threequarters" unicode="&#xbe;" horiz-adv-x="1798" 
d="M485 0l719 1462h197l-719 -1462h-197zM1348 0l26 154h-381l17 100l407 623h180l-387 -590h187l30 172h152l-31 -172h88l-22 -133h-88l-27 -154h-151zM410 1106q76 0 126 40t50 92t-27 77t-74 24q-104 0 -141 -94l-151 17q33 112 109 162t208 51q250 0 250 -187
q0 -113 -60 -182q-18 -20 -75 -57q88 -57 88 -172t-72 -201q-91 -102 -279 -102t-249 85q-27 35 -27 109v25l166 24q0 -109 123 -108q76 0 122 45t46 120q0 115 -144 115h-88l21 117h78z" />
    <glyph glyph-name="questiondown" unicode="&#xbf;" horiz-adv-x="1191" 
d="M817 1040l-41 -231h-209l41 231h209zM252 -112q0 -72 51 -114t139 -42q133 0 226 104q43 49 94 166l196 -35q-143 -414 -530 -413q-188 0 -292 87q-103 87 -103 249t114 286q67 74 223 182t177 228l8 53h176l-14 -82q-23 -127 -71 -197t-185 -170q-125 -96 -162 -153
q-47 -78 -47 -149z" />
    <glyph glyph-name="Agrave" unicode="&#xc0;" horiz-adv-x="1245" 
d="M922 1606h-152l-192 303h231zM866 483l-116 715l-373 -715h489zM891 305h-598l-156 -305h-243l790 1462h211l274 -1462h-231z" />
    <glyph glyph-name="Aacute" unicode="&#xc1;" horiz-adv-x="1245" 
d="M713 1606l213 303h241l-297 -303h-157zM866 483l-116 715l-373 -715h489zM891 305h-598l-156 -305h-243l790 1462h211l274 -1462h-231z" />
    <glyph glyph-name="Acircumflex" unicode="&#xc2;" horiz-adv-x="1245" 
d="M840 1776l-158 -164h-217l317 291h144l217 -291h-199zM866 483l-116 715l-373 -715h489zM891 305h-598l-156 -305h-243l790 1462h211l274 -1462h-231z" />
    <glyph glyph-name="Atilde" unicode="&#xc3;" horiz-adv-x="1245" 
d="M703 1892q95 0 161 -63t99 -63t55 25q22 26 45 85h131q-47 -125 -70 -162q-62 -100 -162 -100t-163 63t-99 64q-63 0 -106 -113h-129q47 123 74 162q68 102 164 102zM866 483l-116 715l-373 -715h489zM891 305h-598l-156 -305h-243l790 1462h211l274 -1462h-231z" />
    <glyph glyph-name="Adieresis" unicode="&#xc4;" horiz-adv-x="1245" 
d="M915 1618l41 233h187l-41 -233h-187zM510 1618l41 233h186l-41 -233h-186zM866 483l-116 715l-373 -715h489zM891 305h-598l-156 -305h-243l790 1462h211l274 -1462h-231z" />
    <glyph glyph-name="Aring" unicode="&#xc5;" horiz-adv-x="1245" 
d="M856 1925q-57 0 -92 -42t-35 -111q0 -84 90 -84q57 0 92 42t35 109q0 86 -90 86zM594 1788q0 99 76 168t184 69t168 -50q60 -51 59 -147q1 -96 -75 -168t-184 -73q-108 0 -169 51q-59 51 -59 150zM866 483l-116 715l-373 -715h489zM891 305h-598l-156 -305h-243l790 1462
h211l274 -1462h-231z" />
    <glyph glyph-name="AE" unicode="&#xc6;" horiz-adv-x="1953" 
d="M965 506l135 778h-15l-626 -778h506zM932 328h-608l-263 -328h-254l1201 1462h1001l-33 -178h-659l-80 -455h561l-33 -178h-561l-82 -473h664l-31 -178h-881z" />
    <glyph glyph-name="Ccedilla" unicode="&#xc7;" horiz-adv-x="1286" 
d="M293 -469l164 332h202l-223 -332h-143zM1042 1100q0 96 -62 148t-175 52q-156 0 -237 -97t-122 -335l-49 -278q-23 -123 -22 -193q1 -239 245 -239t314 227l201 -23q-86 -383 -535 -382q-217 0 -332 100t-114 291q0 88 26 233l53 305q31 172 68 261t109 161
q145 147 399 148q207 0 325 -88t117 -242q0 -18 -6 -59l-205 -17q2 12 2 27z" />
    <glyph glyph-name="Egrave" unicode="&#xc8;" horiz-adv-x="1187" 
d="M952 1606h-151l-193 303h232zM106 0l259 1462h876l-31 -178h-661l-80 -455h561l-31 -178h-561l-84 -473h666l-31 -178h-883z" />
    <glyph glyph-name="Eacute" unicode="&#xc9;" horiz-adv-x="1187" 
d="M709 1606l213 303h241l-297 -303h-157zM106 0l259 1462h876l-31 -178h-661l-80 -455h561l-31 -178h-561l-84 -473h666l-31 -178h-883z" />
    <glyph glyph-name="Ecircumflex" unicode="&#xca;" horiz-adv-x="1187" 
d="M852 1776l-158 -164h-217l318 291h143l217 -291h-199zM106 0l259 1462h876l-31 -178h-661l-80 -455h561l-31 -178h-561l-84 -473h666l-31 -178h-883z" />
    <glyph glyph-name="Edieresis" unicode="&#xcb;" horiz-adv-x="1187" 
d="M938 1618l41 233h186l-41 -233h-186zM532 1618l41 233h187l-41 -233h-187zM106 0l259 1462h876l-31 -178h-661l-80 -455h561l-31 -178h-561l-84 -473h666l-31 -178h-883z" />
    <glyph glyph-name="Igrave" unicode="&#xcc;" horiz-adv-x="612" 
d="M612 1606h-151l-193 303h232zM104 0l258 1462h220l-258 -1462h-220z" />
    <glyph glyph-name="Iacute" unicode="&#xcd;" horiz-adv-x="612" 
d="M379 1606l213 303h242l-297 -303h-158zM98 0l258 1462h219l-258 -1462h-219z" />
    <glyph glyph-name="Icircumflex" unicode="&#xce;" horiz-adv-x="612" 
d="M535 1776l-158 -164h-217l317 291h144l217 -291h-199zM104 0l258 1462h220l-258 -1462h-220z" />
    <glyph glyph-name="Idieresis" unicode="&#xcf;" horiz-adv-x="612" 
d="M608 1618l41 233h187l-41 -233h-187zM203 1618l41 233h186l-41 -233h-186zM104 0l258 1462h220l-258 -1462h-220z" />
    <glyph glyph-name="Eth" unicode="&#xd0;" horiz-adv-x="1382" 
d="M1083 1049q0 127 -94 192q-63 45 -215 45h-223l-80 -459h307l-30 -176h-310l-82 -475h224q192 -4 292 89t140 317l53 301q18 115 18 166zM817 1462q233 0 342 -80q145 -104 146 -305q0 -80 -23 -203l-59 -339q-76 -541 -609 -535h-510l115 651h-162l31 176h164l110 635
h455z" />
    <glyph glyph-name="Ntilde" unicode="&#xd1;" horiz-adv-x="1470" 
d="M834 1892q84 0 150 -63t98 -63t55 25q23 26 45 85h131q-47 -125 -70 -162q-61 -100 -161 -100t-164 63t-99 64q-63 0 -106 -113h-129q47 123 73 162q68 102 177 102zM104 0l258 1462h211l461 -1093l193 1093h213l-258 -1462h-211l-461 1094l-193 -1094h-213z" />
    <glyph glyph-name="Ograve" unicode="&#xd2;" horiz-adv-x="1378" 
d="M1008 1606h-152l-192 303h231zM373 403q0 -245 260 -245q162 0 249 97t126 318l55 316q20 104 20 170q0 244 -262 244q-176 0 -270 -127q-70 -92 -105 -287l-55 -316q-18 -106 -18 -170zM1305 1085q0 -78 -23 -204l-63 -355q-29 -160 -67 -246t-114 -157
q-152 -143 -404 -143t-368 108q-115 108 -114 285q-1 84 22 209l62 354q29 160 67 247q39 87 115 156q156 143 400 143t365 -102q122 -102 122 -295z" />
    <glyph glyph-name="Oacute" unicode="&#xd3;" horiz-adv-x="1378" 
d="M762 1606l213 303h242l-297 -303h-158zM373 403q0 -245 260 -245q162 0 249 97t126 318l55 316q20 104 20 170q0 244 -262 244q-176 0 -270 -127q-70 -92 -105 -287l-55 -316q-18 -106 -18 -170zM1305 1085q0 -78 -23 -204l-63 -355q-29 -160 -67 -246t-114 -157
q-152 -143 -404 -143t-368 108q-115 108 -114 285q-1 84 22 209l62 354q29 160 67 247q39 87 115 156q156 143 400 143t365 -102q122 -102 122 -295z" />
    <glyph glyph-name="Ocircumflex" unicode="&#xd4;" horiz-adv-x="1378" 
d="M920 1776l-158 -164h-217l317 291h144l217 -291h-199zM373 403q0 -245 260 -245q162 0 249 97t126 318l55 316q20 104 20 170q0 244 -262 244q-176 0 -270 -127q-70 -92 -105 -287l-55 -316q-18 -106 -18 -170zM1305 1085q0 -78 -23 -204l-63 -355q-29 -160 -67 -246
t-114 -157q-152 -143 -404 -143t-368 108q-115 108 -114 285q-1 84 22 209l62 354q29 160 67 247q39 87 115 156q156 143 400 143t365 -102q122 -102 122 -295z" />
    <glyph glyph-name="Otilde" unicode="&#xd5;" horiz-adv-x="1378" 
d="M793 1892q83 0 149 -63t98 -63t56 25q23 26 45 85h131q-47 -125 -70 -162q-62 -100 -162 -100t-164 63t-98 64q-63 0 -106 -113h-129q47 123 73 162q68 102 177 102zM373 403q0 -245 260 -245q162 0 249 97t126 318l55 316q20 104 20 170q0 244 -262 244
q-176 0 -270 -127q-70 -92 -105 -287l-55 -316q-18 -106 -18 -170zM1305 1085q0 -78 -23 -204l-63 -355q-29 -160 -67 -246t-114 -157q-152 -143 -404 -143t-368 108q-115 108 -114 285q-1 84 22 209l62 354q29 160 67 247q39 87 115 156q156 143 400 143t365 -102
q122 -102 122 -295z" />
    <glyph glyph-name="Odieresis" unicode="&#xd6;" horiz-adv-x="1378" 
d="M993 1618l41 233h187l-41 -233h-187zM588 1618l41 233h186l-41 -233h-186zM373 403q0 -245 260 -245q162 0 249 97t126 318l55 316q20 104 20 170q0 244 -262 244q-176 0 -270 -127q-70 -92 -105 -287l-55 -316q-18 -106 -18 -170zM1305 1085q0 -78 -23 -204l-63 -355
q-29 -160 -67 -246t-114 -157q-152 -143 -404 -143t-368 108q-115 108 -114 285q-1 84 22 209l62 354q29 160 67 247q39 87 115 156q156 143 400 143t365 -102q122 -102 122 -295z" />
    <glyph glyph-name="multiply" unicode="&#xd7;" 
d="M467 737l-252 307l137 117l254 -307l361 307l96 -117l-361 -307l252 -307l-137 -117l-252 308l-362 -308l-97 117z" />
    <glyph glyph-name="Oslash" unicode="&#xd8;" horiz-adv-x="1378" 
d="M806 1305q-163 0 -257 -127q-70 -92 -105 -289l-55 -316q-14 -94 -16 -137l659 785q-63 84 -226 84zM640 158q154 0 240 97q87 97 126 318l57 316q16 92 16 137l-659 -784q66 -84 220 -84zM1303 1094q0 -87 -23 -213l-63 -355q-29 -160 -67 -246t-114 -157
q-152 -143 -395 -143t-362 96l-107 -127l-127 100l135 160q-30 74 -30 159t22 214l61 354q27 158 67 245t116 158q152 143 393 143t365 -96l102 123l127 -100l-131 -156q31 -72 31 -159z" />
    <glyph glyph-name="Ugrave" unicode="&#xd9;" horiz-adv-x="1406" 
d="M1020 1606h-152l-192 303h231zM641 158q190 0 285 137q47 72 78 246l163 921h219l-169 -958q-29 -158 -58 -231t-90 -136q-152 -158 -426 -157q-145 0 -235 30t-150 99q-82 94 -82 233q0 78 27 236l155 884h220l-162 -921q-18 -106 -19 -168q0 -215 244 -215z" />
    <glyph glyph-name="Uacute" unicode="&#xda;" horiz-adv-x="1406" 
d="M782 1606l213 303h242l-297 -303h-158zM641 158q190 0 285 137q47 72 78 246l163 921h219l-169 -958q-29 -158 -58 -231t-90 -136q-152 -158 -426 -157q-145 0 -235 30t-150 99q-82 94 -82 233q0 78 27 236l155 884h220l-162 -921q-18 -106 -19 -168q0 -215 244 -215z
" />
    <glyph glyph-name="Ucircumflex" unicode="&#xdb;" horiz-adv-x="1406" 
d="M930 1776l-158 -164h-217l317 291h144l217 -291h-199zM641 158q190 0 285 137q47 72 78 246l163 921h219l-169 -958q-29 -158 -58 -231t-90 -136q-152 -158 -426 -157q-145 0 -235 30t-150 99q-82 94 -82 233q0 78 27 236l155 884h220l-162 -921q-18 -106 -19 -168
q0 -215 244 -215z" />
    <glyph glyph-name="Udieresis" unicode="&#xdc;" horiz-adv-x="1406" 
d="M1008 1618l41 233h186l-41 -233h-186zM602 1618l41 233h186l-41 -233h-186zM641 158q190 0 285 137q47 72 78 246l163 921h219l-169 -958q-29 -158 -58 -231t-90 -136q-152 -158 -426 -157q-145 0 -235 30t-150 99q-82 94 -82 233q0 78 27 236l155 884h220l-162 -921
q-18 -106 -19 -168q0 -215 244 -215z" />
    <glyph glyph-name="Yacute" unicode="&#xdd;" horiz-adv-x="1099" 
d="M647 1606l213 303h242l-297 -303h-158zM350 0l94 528l-292 934h225l209 -714l461 714h239l-622 -934l-95 -528h-219z" />
    <glyph glyph-name="Thorn" unicode="&#xde;" horiz-adv-x="1241" 
d="M676 496q160 0 235 88q88 109 88 276q0 102 -53 148t-172 47h-262l-100 -559h264zM778 1231q229 0 338 -84t109 -258q0 -121 -36 -235q-35 -114 -103 -190t-163 -112q-95 -35 -251 -35h-291l-55 -317h-220l259 1462h219l-41 -231h235z" />
    <glyph glyph-name="germandbls" unicode="&#xdf;" horiz-adv-x="1169" 
d="M700 1479q188 0 286 -73q97 -73 97 -208q0 -176 -145 -293q68 -45 92 -96t25 -129q0 -78 -17 -186l-14 -76q-37 -230 -135 -324t-303 -94h-121l29 168h69q125 -2 176 52t80 212l17 94q12 68 12 140t-35 103q-35 30 -131 30h-35l27 151h33q94 0 137 72q41 61 41 145
q0 147 -180 148q-105 0 -157 -52t-75 -180l-190 -1083h-209l194 1102q36 199 140 288t292 89z" />
    <glyph glyph-name="agrave" unicode="&#xe0;" horiz-adv-x="1081" 
d="M799 1188h-152l-192 303h231zM502 471q-141 0 -199 -57q-55 -59 -55 -164q0 -59 43 -85t163 -26t181 64q31 35 49 131l23 137h-205zM580 893q-143 0 -248 -105l-125 103q150 170 391 170q178 0 270 -69t93 -201q0 -66 -19 -175l-111 -616h-163l-9 49q-92 -69 -271 -69
t-262 57t-83 182q0 199 93 299t339 100h258l10 60q8 45 9 80q0 135 -172 135z" />
    <glyph glyph-name="aacute" unicode="&#xe1;" horiz-adv-x="1081" 
d="M559 1190l213 301h242l-297 -301h-158zM502 471q-141 0 -199 -57q-55 -59 -55 -164q0 -59 43 -85t163 -26t181 64q31 35 49 131l23 137h-205zM580 893q-143 0 -248 -105l-125 103q150 170 391 170q178 0 270 -69t93 -201q0 -66 -19 -175l-111 -616h-163l-9 49
q-92 -69 -271 -69t-262 57t-83 182q0 199 93 299t339 100h258l10 60q8 45 9 80q0 135 -172 135z" />
    <glyph glyph-name="acircumflex" unicode="&#xe2;" horiz-adv-x="1081" 
d="M694 1358l-157 -162h-218l318 289h143l217 -289h-198zM502 471q-141 0 -199 -57q-55 -59 -55 -164q0 -59 43 -85t163 -26t181 64q31 35 49 131l23 137h-205zM580 893q-143 0 -248 -105l-125 103q150 170 391 170q178 0 270 -69t93 -201q0 -66 -19 -175l-111 -616h-163
l-9 49q-92 -69 -271 -69t-262 57t-83 182q0 199 93 299t339 100h258l10 60q8 45 9 80q0 135 -172 135z" />
    <glyph glyph-name="atilde" unicode="&#xe3;" horiz-adv-x="1081" 
d="M814 1348q32 0 54 24t45 86h131q-45 -123 -69 -162q-61 -100 -161 -100t-164 64t-99 63q-62 0 -107 -113h-129q47 125 74 162q70 102 165 102t161 -62q67 -64 99 -64zM502 471q-141 0 -199 -57q-55 -59 -55 -164q0 -59 43 -85t163 -26t181 64q31 35 49 131l23 137h-205z
M580 893q-143 0 -248 -105l-125 103q150 170 391 170q178 0 270 -69t93 -201q0 -66 -19 -175l-111 -616h-163l-9 49q-92 -69 -271 -69t-262 57t-83 182q0 199 93 299t339 100h258l10 60q8 45 9 80q0 135 -172 135z" />
    <glyph glyph-name="adieresis" unicode="&#xe4;" horiz-adv-x="1081" 
d="M768 1202l41 234h186l-41 -234h-186zM369 1202l41 234h188l-43 -234h-186zM502 471q-141 0 -199 -57q-55 -59 -55 -164q0 -59 43 -85t163 -26t181 64q31 35 49 131l23 137h-205zM580 893q-143 0 -248 -105l-125 103q150 170 391 170q178 0 270 -69t93 -201
q0 -66 -19 -175l-111 -616h-163l-9 49q-92 -69 -271 -69t-262 57t-83 182q0 199 93 299t339 100h258l10 60q8 45 9 80q0 135 -172 135z" />
    <glyph glyph-name="aring" unicode="&#xe5;" horiz-adv-x="1081" 
d="M715 1509q-57 0 -92 -42t-35 -111q0 -84 90 -84q57 0 92 42t35 111q0 84 -90 84zM712 1610q108 0 168 -50t60 -147t-76 -169t-184 -73t-168 51t-59 150q-1 98 75 168t184 70zM502 471q-141 0 -199 -57q-55 -59 -55 -164q0 -59 43 -85t163 -26t181 64q31 35 49 131l23 137
h-205zM580 893q-143 0 -248 -105l-125 103q150 170 391 170q178 0 270 -69t93 -201q0 -66 -19 -175l-111 -616h-163l-9 49q-92 -69 -271 -69t-262 57t-83 182q0 199 93 299t339 100h258l10 60q8 45 9 80q0 135 -172 135z" />
    <glyph glyph-name="ae" unicode="&#xe6;" horiz-adv-x="1703" 
d="M1419 719q0 188 -194 188q-109 0 -186 -74t-93 -210h461q12 51 12 96zM502 471q-141 0 -199 -57q-55 -59 -55 -164q0 -59 43 -85t153 -26t165 48q56 48 77 167l23 117h-207zM596 1061q150 0 242 -68q23 -18 55 -78q75 84 147 115t191 31q379 0 379 -350q0 -111 -31 -238
h-657l-9 -41q-8 -57 -8 -86q0 -203 219 -203q147 0 240 107l135 -113q-72 -84 -162 -121q-90 -36 -225 -36t-215 38t-121 127q-53 -74 -94 -98q-102 -67 -288 -67t-268 57q-83 57 -83 182q0 197 92 298t340 101h258l10 62q8 45 9 78q0 135 -172 135q-144 -1 -248 -105
l-125 105q147 168 389 168z" />
    <glyph glyph-name="ccedilla" unicode="&#xe7;" horiz-adv-x="976" 
d="M160 -469l164 332h202l-223 -332h-143zM113 328q0 70 18 184l12 76q41 231 140 338q123 135 335 135q276 0 357 -205l-170 -68q-33 57 -73 81t-109 24q-113 0 -179 -79t-96 -249l-16 -96q-10 -66 -10 -119q0 -203 192 -203q129 1 217 103l135 -111q-135 -160 -374 -159
q-184 0 -282 89q-97 89 -97 259z" />
    <glyph glyph-name="egrave" unicode="&#xe8;" horiz-adv-x="1118" 
d="M803 1188h-152l-192 303h231zM831 717q0 190 -190 190q-111 0 -188 -74t-93 -210h461q10 43 10 94zM539 143q145 0 239 107l135 -111q-75 -88 -163 -124t-230 -35q-408 0 -407 344q0 90 18 184l14 82q45 252 158 362t330 109q389 0 389 -350q0 -100 -29 -238h-659l-6 -39
q-8 -43 -9 -86q0 -205 220 -205z" />
    <glyph glyph-name="eacute" unicode="&#xe9;" horiz-adv-x="1118" 
d="M565 1190l213 301h242l-297 -301h-158zM831 717q0 190 -190 190q-111 0 -188 -74t-93 -210h461q10 43 10 94zM539 143q145 0 239 107l135 -111q-75 -88 -163 -124t-230 -35q-408 0 -407 344q0 90 18 184l14 82q45 252 158 362t330 109q389 0 389 -350q0 -100 -29 -238
h-659l-6 -39q-8 -43 -9 -86q0 -205 220 -205z" />
    <glyph glyph-name="ecircumflex" unicode="&#xea;" horiz-adv-x="1118" 
d="M721 1358l-158 -162h-217l318 289h143l217 -289h-199zM831 717q0 190 -190 190q-111 0 -188 -74t-93 -210h461q10 43 10 94zM539 143q145 0 239 107l135 -111q-75 -88 -163 -124t-230 -35q-408 0 -407 344q0 90 18 184l14 82q45 252 158 362t330 109q389 0 389 -350
q0 -100 -29 -238h-659l-6 -39q-8 -43 -9 -86q0 -205 220 -205z" />
    <glyph glyph-name="edieresis" unicode="&#xeb;" horiz-adv-x="1118" 
d="M795 1202l41 234h186l-41 -234h-186zM395 1202l41 234h189l-43 -234h-187zM831 717q0 190 -190 190q-111 0 -188 -74t-93 -210h461q10 43 10 94zM539 143q145 0 239 107l135 -111q-75 -88 -163 -124t-230 -35q-408 0 -407 344q0 90 18 184l14 82q45 252 158 362t330 109
q389 0 389 -350q0 -100 -29 -238h-659l-6 -39q-8 -43 -9 -86q0 -205 220 -205z" />
    <glyph glyph-name="igrave" unicode="&#xec;" horiz-adv-x="540" 
d="M496 1188h-152l-192 303h231zM74 0l182 1040h209l-182 -1040h-209z" />
    <glyph glyph-name="iacute" unicode="&#xed;" horiz-adv-x="540" 
d="M276 1190l213 301h242l-297 -301h-158zM68 0l182 1040h209l-183 -1040h-208z" />
    <glyph glyph-name="icircumflex" unicode="&#xee;" horiz-adv-x="540" 
d="M426 1358l-158 -162h-217l318 289h143l217 -289h-199zM76 0l182 1040h209l-184 -1040h-207z" />
    <glyph glyph-name="idieresis" unicode="&#xef;" horiz-adv-x="540" 
d="M496 1202l41 234h186l-41 -234h-186zM96 1202l41 234h189l-43 -234h-187zM74 0l182 1040h209l-182 -1040h-209z" />
    <glyph glyph-name="eth" unicode="&#xf0;" horiz-adv-x="1142" 
d="M821 684q0 184 -188 184q-121 0 -190 -74t-95 -231l-18 -108q-12 -66 -13 -123q0 -184 189 -185q120 0 188 74t97 234l16 98q14 70 14 131zM1034 766q0 -106 -18 -215l-25 -137q-39 -227 -158 -331q-120 -103 -344 -103q-383 0 -383 323q1 76 17 164l24 137
q37 213 148 318q129 117 334 116q111 0 178 -43q-35 143 -86 195l-240 -111l-51 103l180 82q-80 57 -176 75l49 138q97 -12 161 -37t157 -84l205 94l51 -102l-162 -76q139 -184 139 -506z" />
    <glyph glyph-name="ntilde" unicode="&#xf1;" horiz-adv-x="1163" 
d="M852 1348q32 0 54 24t46 86h131q-45 -123 -69 -162q-62 -100 -162 -100t-164 64t-98 63q-62 0 -107 -113h-129q47 125 74 162q70 102 165 102t161 -62q66 -64 98 -64zM416 1040v-98q104 119 299 119q157 0 239 -73t82 -208q0 -76 -22 -205l-101 -575h-208l100 573
q14 84 14 132q0 178 -166 178q-117 0 -180 -80t-96 -271l-94 -532h-209l182 1040h160z" />
    <glyph glyph-name="ograve" unicode="&#xf2;" horiz-adv-x="1142" 
d="M815 1188h-151l-193 303h231zM825 707q0 186 -196 186q-119 0 -184 -72t-93 -235l-22 -131q-12 -68 -13 -119q0 -188 197 -189q120 0 184 72t93 236l22 131q12 68 12 121zM1036 737q0 -63 -16 -166l-29 -157q-39 -229 -153 -332q-115 -102 -332 -102q-399 0 -400 325
q1 68 17 162l29 160q41 231 154 332q114 101 331 102q399 0 399 -324z" />
    <glyph glyph-name="oacute" unicode="&#xf3;" horiz-adv-x="1142" 
d="M569 1190l213 301h242l-297 -301h-158zM825 707q0 186 -196 186q-119 0 -184 -72t-93 -235l-22 -131q-12 -68 -13 -119q0 -188 197 -189q120 0 184 72t93 236l22 131q12 68 12 121zM1036 737q0 -63 -16 -166l-29 -157q-39 -229 -153 -332q-115 -102 -332 -102
q-399 0 -400 325q1 68 17 162l29 160q41 231 154 332q114 101 331 102q399 0 399 -324z" />
    <glyph glyph-name="ocircumflex" unicode="&#xf4;" horiz-adv-x="1142" 
d="M725 1358l-158 -162h-217l318 289h143l217 -289h-199zM825 707q0 186 -196 186q-119 0 -184 -72t-93 -235l-22 -131q-12 -68 -13 -119q0 -188 197 -189q120 0 184 72t93 236l22 131q12 68 12 121zM1036 737q0 -63 -16 -166l-29 -157q-39 -229 -153 -332
q-115 -102 -332 -102q-399 0 -400 325q1 68 17 162l29 160q41 231 154 332q114 101 331 102q399 0 399 -324z" />
    <glyph glyph-name="otilde" unicode="&#xf5;" horiz-adv-x="1142" 
d="M848 1348q32 0 54 24t46 86h131q-45 -123 -69 -162q-62 -100 -162 -100t-164 64t-98 63q-62 0 -107 -113h-129q47 125 74 162q70 102 165 102t161 -62q66 -64 98 -64zM825 707q0 186 -196 186q-119 0 -184 -72t-93 -235l-22 -131q-12 -68 -13 -119q0 -188 197 -189
q120 0 184 72t93 236l22 131q12 68 12 121zM1036 737q0 -63 -16 -166l-29 -157q-39 -229 -153 -332q-115 -102 -332 -102q-399 0 -400 325q1 68 17 162l29 160q41 231 154 332q114 101 331 102q399 0 399 -324z" />
    <glyph glyph-name="odieresis" unicode="&#xf6;" horiz-adv-x="1142" 
d="M797 1202l41 234h186l-41 -234h-186zM397 1202l41 234h189l-43 -234h-187zM825 707q0 186 -196 186q-119 0 -184 -72t-93 -235l-22 -131q-12 -68 -13 -119q0 -188 197 -189q120 0 184 72t93 236l22 131q12 68 12 121zM1036 737q0 -63 -16 -166l-29 -157
q-39 -229 -153 -332q-115 -102 -332 -102q-399 0 -400 325q1 68 17 162l29 160q41 231 154 332q114 101 331 102q399 0 399 -324z" />
    <glyph glyph-name="divide" unicode="&#xf7;" 
d="M539 975l34 203h191l-35 -203h-190zM420 297l35 205h188l-35 -205h-188zM102 653l29 168h948l-28 -168h-949z" />
    <glyph glyph-name="oslash" unicode="&#xf8;" horiz-adv-x="1142" 
d="M622 893q-110 0 -176 -73t-92 -234l-24 -131q-9 -57 -11 -129l463 516q-50 51 -160 51zM827 715l-465 -516q53 -51 162 -51q108 0 174 72q66 73 95 235l22 131q6 45 12 129zM1036 745q0 -92 -16 -174l-27 -157q-39 -229 -153 -332q-114 -102 -314 -102t-301 65l-80 -88
l-88 78l88 98q-59 109 -20 334l27 160q41 231 154 332q114 101 314 101t300 -65l79 88l88 -77l-88 -99q37 -70 37 -162z" />
    <glyph glyph-name="ugrave" unicode="&#xf9;" horiz-adv-x="1140" 
d="M813 1188h-151l-193 303h231zM342 334q0 -176 156 -176q113 0 172 80t94 270l94 532h209l-184 -1040h-144l-8 104q-53 -68 -121 -96t-170 -28q-152 0 -234 72t-81 204q0 88 27 229l96 555h209l-99 -557q-16 -98 -16 -149z" />
    <glyph glyph-name="uacute" unicode="&#xfa;" horiz-adv-x="1140" 
d="M567 1190l213 301h242l-297 -301h-158zM342 334q0 -176 156 -176q113 0 172 80t94 270l94 532h209l-184 -1040h-144l-8 104q-53 -68 -121 -96t-170 -28q-152 0 -234 72t-81 204q0 88 27 229l96 555h209l-99 -557q-16 -98 -16 -149z" />
    <glyph glyph-name="ucircumflex" unicode="&#xfb;" horiz-adv-x="1140" 
d="M719 1358l-158 -162h-217l318 289h143l217 -289h-199zM342 334q0 -176 156 -176q113 0 172 80t94 270l94 532h209l-184 -1040h-144l-8 104q-53 -68 -121 -96t-170 -28q-152 0 -234 72t-81 204q0 88 27 229l96 555h209l-99 -557q-16 -98 -16 -149z" />
    <glyph glyph-name="udieresis" unicode="&#xfc;" horiz-adv-x="1140" 
d="M797 1202l41 234h186l-41 -234h-186zM397 1202l41 234h189l-43 -234h-187zM342 334q0 -176 156 -176q113 0 172 80t94 270l94 532h209l-184 -1040h-144l-8 104q-53 -68 -121 -96t-170 -28q-152 0 -234 72t-81 204q0 88 27 229l96 555h209l-99 -557q-16 -98 -16 -149z" />
    <glyph glyph-name="yacute" unicode="&#xfd;" horiz-adv-x="1015" 
d="M520 1190l213 301h242l-297 -301h-158zM315 10l-188 1030h207l125 -802l385 802h217l-598 -1171q-83 -157 -143 -223t-142 -90t-241 -27l30 172q119 -2 169 31t116 155z" />
    <glyph glyph-name="thorn" unicode="&#xfe;" horiz-adv-x="1159" 
d="M662 893q-113 0 -179 -68t-92 -211l-33 -188q-10 -57 -10 -94q0 -184 189 -185q113 0 178 75t94 235l20 127q12 68 13 116q0 193 -180 193zM1053 745q0 -72 -17 -176l-28 -153q-42 -232 -144 -334t-280 -102t-287 94l-94 -535h-209l340 1923h209l-86 -487q67 51 117 68
t137 18q342 0 342 -316z" />
    <glyph glyph-name="ydieresis" unicode="&#xff;" horiz-adv-x="1015" 
d="M721 1202l41 234h186l-41 -234h-186zM322 1202l40 234h189l-43 -234h-186zM315 10l-188 1030h207l125 -802l385 802h217l-598 -1171q-83 -157 -143 -223t-142 -90t-241 -27l30 172q119 -2 169 31t116 155z" />
    <glyph glyph-name="Amacron" unicode="&#x100;" horiz-adv-x="1245" 
d="M539 1671l26 150h574l-27 -150h-573zM866 483l-116 715l-373 -715h489zM891 305h-598l-156 -305h-243l790 1462h211l274 -1462h-231z" />
    <glyph glyph-name="amacron" unicode="&#x101;" horiz-adv-x="1081" 
d="M377 1253l26 150h574l-27 -150h-573zM502 471q-141 0 -199 -57q-55 -59 -55 -164q0 -59 43 -85t163 -26t181 64q31 35 49 131l23 137h-205zM580 893q-143 0 -248 -105l-125 103q150 170 391 170q178 0 270 -69t93 -201q0 -66 -19 -175l-111 -616h-163l-9 49
q-92 -69 -271 -69t-262 57t-83 182q0 199 93 299t339 100h258l10 60q8 45 9 80q0 135 -172 135z" />
    <glyph glyph-name="Abreve" unicode="&#x102;" horiz-adv-x="1245" 
d="M674 1855q0 -109 153 -108q88 0 132 32t69 115h137q-20 -129 -63 -186q-84 -115 -279 -115q-289 0 -288 213q0 31 8 88h135q-4 -23 -4 -39zM866 483l-116 715l-373 -715h489zM891 305h-598l-156 -305h-243l790 1462h211l274 -1462h-231z" />
    <glyph glyph-name="abreve" unicode="&#x103;" horiz-adv-x="1081" 
d="M522 1438q0 -106 154 -107q88 0 132 32t69 116h137q-20 -131 -64 -187q-82 -117 -278 -116q-289 0 -289 215q0 33 8 88h135q-4 -23 -4 -41zM502 471q-141 0 -199 -57q-55 -59 -55 -164q0 -59 43 -85t163 -26t181 64q31 35 49 131l23 137h-205zM580 893q-143 0 -248 -105
l-125 103q150 170 391 170q178 0 270 -69t93 -201q0 -66 -19 -175l-111 -616h-163l-9 49q-92 -69 -271 -69t-262 57t-83 182q0 199 93 299t339 100h258l10 60q8 45 9 80q0 135 -172 135z" />
    <glyph glyph-name="Aogonek" unicode="&#x104;" horiz-adv-x="1245" 
d="M866 483l-116 715l-373 -715h489zM938 -233q0 -63 86 -64q57 0 127 23l2 -111q-90 -33 -184 -33q-223 0 -224 158q0 117 148 209q59 33 108 51h-63l-47 305h-598l-156 -305h-243l790 1462h211l274 -1462q-4 -2 -12 -7t-14 -7q-205 -115 -205 -219z" />
    <glyph glyph-name="aogonek" unicode="&#x105;" horiz-adv-x="1081" 
d="M502 471q-141 0 -199 -57q-55 -59 -55 -164q0 -59 43 -85t163 -26t181 64q31 35 49 131l23 137h-205zM600 -233q0 -63 86 -64q55 0 129 23l2 -111q-90 -33 -184 -33q-225 0 -225 158q0 119 149 209q59 35 111 53l-9 47q-92 -69 -271 -69t-262 57t-83 182q0 199 93 299
t339 100h258l10 60q8 45 9 80q0 135 -172 135q-143 0 -248 -105l-125 103q150 170 391 170q178 0 270 -69t93 -201q0 -66 -19 -175l-111 -616l-12 -8l-12 -6q-207 -117 -207 -219z" />
    <glyph glyph-name="Cacute" unicode="&#x106;" horiz-adv-x="1286" 
d="M752 1606l213 303h241l-297 -303h-157zM1042 1100q0 96 -62 148t-175 52q-156 0 -237 -97t-122 -335l-49 -278q-23 -123 -22 -193q1 -239 245 -239t314 227l201 -23q-86 -383 -535 -382q-217 0 -332 100t-114 291q0 88 26 233l53 305q31 172 68 261t109 161
q145 147 399 148q207 0 325 -88t117 -242q0 -18 -6 -59l-205 -17q2 12 2 27z" />
    <glyph glyph-name="cacute" unicode="&#x107;" horiz-adv-x="976" 
d="M559 1190l213 301h242l-297 -301h-158zM113 328q0 70 18 184l12 76q41 231 140 338q123 135 335 135q276 0 357 -205l-170 -68q-33 57 -73 81t-109 24q-113 0 -179 -79t-96 -249l-16 -96q-10 -66 -10 -119q0 -203 192 -203q129 1 217 103l135 -111q-135 -160 -374 -159
q-184 0 -282 89q-97 89 -97 259z" />
    <glyph glyph-name="Ccircumflex" unicode="&#x108;" horiz-adv-x="1286" 
d="M897 1776l-158 -164h-217l318 291h143l217 -291h-199zM1042 1100q0 96 -62 148t-175 52q-156 0 -237 -97t-122 -335l-49 -278q-23 -123 -22 -193q1 -239 245 -239t314 227l201 -23q-86 -383 -535 -382q-217 0 -332 100t-114 291q0 88 26 233l53 305q31 172 68 261
t109 161q145 147 399 148q207 0 325 -88t117 -242q0 -18 -6 -59l-205 -17q2 12 2 27z" />
    <glyph glyph-name="ccircumflex" unicode="&#x109;" horiz-adv-x="976" 
d="M707 1358l-158 -162h-217l317 289h144l217 -289h-199zM113 328q0 70 18 184l12 76q41 231 140 338q123 135 335 135q276 0 357 -205l-170 -68q-33 57 -73 81t-109 24q-113 0 -179 -79t-96 -249l-16 -96q-10 -66 -10 -119q0 -203 192 -203q129 1 217 103l135 -111
q-135 -160 -374 -159q-184 0 -282 89q-97 89 -97 259z" />
    <glyph glyph-name="Cdotaccent" unicode="&#x10a;" horiz-adv-x="1286" 
d="M762 1618l41 233h203l-41 -233h-203zM1042 1100q0 96 -62 148t-175 52q-156 0 -237 -97t-122 -335l-49 -278q-23 -123 -22 -193q1 -239 245 -239t314 227l201 -23q-86 -383 -535 -382q-217 0 -332 100t-114 291q0 88 26 233l53 305q31 172 68 261t109 161
q145 147 399 148q207 0 325 -88t117 -242q0 -18 -6 -59l-205 -17q2 12 2 27z" />
    <glyph glyph-name="cdotaccent" unicode="&#x10b;" horiz-adv-x="976" 
d="M557 1202l41 234h203l-41 -234h-203zM113 328q0 70 18 184l12 76q41 231 140 338q123 135 335 135q276 0 357 -205l-170 -68q-33 57 -73 81t-109 24q-113 0 -179 -79t-96 -249l-16 -96q-10 -66 -10 -119q0 -203 192 -203q129 1 217 103l135 -111q-135 -160 -374 -159
q-184 0 -282 89q-97 89 -97 259z" />
    <glyph glyph-name="Ccaron" unicode="&#x10c;" horiz-adv-x="1286" 
d="M877 1737l159 161h217l-317 -288h-143l-218 288h199zM1042 1100q0 96 -62 148t-175 52q-156 0 -237 -97t-122 -335l-49 -278q-23 -123 -22 -193q1 -239 245 -239t314 227l201 -23q-86 -383 -535 -382q-217 0 -332 100t-114 291q0 88 26 233l53 305q31 172 68 261t109 161
q145 147 399 148q207 0 325 -88t117 -242q0 -18 -6 -59l-205 -17q2 12 2 27z" />
    <glyph glyph-name="ccaron" unicode="&#x10d;" horiz-adv-x="976" 
d="M684 1319l158 162h217l-318 -289h-143l-217 289h199zM113 328q0 70 18 184l12 76q41 231 140 338q123 135 335 135q276 0 357 -205l-170 -68q-33 57 -73 81t-109 24q-113 0 -179 -79t-96 -249l-16 -96q-10 -66 -10 -119q0 -203 192 -203q129 1 217 103l135 -111
q-135 -160 -374 -159q-184 0 -282 89q-97 89 -97 259z" />
    <glyph glyph-name="Dcaron" unicode="&#x10e;" horiz-adv-x="1382" 
d="M836 1737l159 161h217l-317 -288h-143l-217 288h198zM1083 1049q0 127 -94 192q-63 45 -215 45h-223l-197 -1110h226q190 -4 290 89t142 315l53 303q18 104 18 166zM815 1462q236 0 342 -80q147 -106 148 -305q0 -68 -23 -203l-59 -339q-80 -541 -611 -535h-508l258 1462
h453z" />
    <glyph glyph-name="dcaron" unicode="&#x10f;" horiz-adv-x="1349" 
d="M1217 975l149 512h201l-203 -512h-147zM811 709q0 184 -188 184q-113 1 -177 -73t-94 -236l-22 -127q-12 -68 -13 -119q0 -190 183 -191q219 0 268 279l33 188q10 66 10 95zM739 0v90q-2 -2 -4 -5t-6 -5q-56 -56 -117 -78q-61 -23 -153 -22q-352 0 -353 313q0 80 19 178
l27 154q41 233 142 334t294 102q127 0 219 -49l55 -45l88 495h209l-258 -1462h-162z" />
    <glyph glyph-name="Dcroat" unicode="&#x110;" horiz-adv-x="1382" 
d="M1083 1049q0 127 -94 192q-63 45 -215 45h-223l-80 -459h307l-30 -176h-310l-82 -475h224q192 -4 292 89t140 317l53 301q18 115 18 166zM817 1462q233 0 342 -80q145 -104 146 -305q0 -80 -23 -203l-59 -339q-76 -541 -609 -535h-510l115 651h-162l31 176h164l110 635
h455z" />
    <glyph glyph-name="dcroat" unicode="&#x111;" horiz-adv-x="1159" 
d="M811 709q0 184 -188 184q-113 1 -177 -73t-94 -236l-22 -127q-12 -68 -13 -119q0 -190 183 -191q219 0 268 279l33 188q10 66 10 95zM739 0v90q-2 -2 -4 -5t-6 -5q-56 -56 -117 -78q-61 -23 -153 -22q-352 0 -353 313q0 80 19 178l27 154q41 233 142 334t294 102
q127 0 219 -49l55 -45l35 196h-299l25 140h299l28 159h209l-29 -159h164l-24 -140h-164l-205 -1163h-162z" />
    <glyph glyph-name="Emacron" unicode="&#x112;" horiz-adv-x="1187" 
d="M539 1671l26 150h574l-27 -150h-573zM106 0l259 1462h876l-31 -178h-661l-80 -455h561l-31 -178h-561l-84 -473h666l-31 -178h-883z" />
    <glyph glyph-name="emacron" unicode="&#x113;" horiz-adv-x="1118" 
d="M399 1253l27 150h573l-26 -150h-574zM831 717q0 190 -190 190q-111 0 -188 -74t-93 -210h461q10 43 10 94zM539 143q145 0 239 107l135 -111q-75 -88 -163 -124t-230 -35q-408 0 -407 344q0 90 18 184l14 82q45 252 158 362t330 109q389 0 389 -350q0 -100 -29 -238h-659
l-6 -39q-8 -43 -9 -86q0 -205 220 -205z" />
    <glyph glyph-name="Ebreve" unicode="&#x114;" horiz-adv-x="1187" 
d="M692 1855q0 -109 154 -108q88 0 132 32t69 115h137q-20 -129 -64 -186q-84 -115 -278 -115q-289 0 -289 213q0 31 8 88h135q-4 -23 -4 -39zM106 0l259 1462h876l-31 -178h-661l-80 -455h561l-31 -178h-561l-84 -473h666l-31 -178h-883z" />
    <glyph glyph-name="ebreve" unicode="&#x115;" horiz-adv-x="1118" 
d="M545 1438q0 -106 153 -107q88 0 132 32t69 116h137q-20 -131 -63 -187q-82 -117 -279 -116q-289 0 -288 215q0 33 8 88h135q-4 -23 -4 -41zM831 717q0 190 -190 190q-111 0 -188 -74t-93 -210h461q10 43 10 94zM539 143q145 0 239 107l135 -111q-75 -88 -163 -124
t-230 -35q-408 0 -407 344q0 90 18 184l14 82q45 252 158 362t330 109q389 0 389 -350q0 -100 -29 -238h-659l-6 -39q-8 -43 -9 -86q0 -205 220 -205z" />
    <glyph glyph-name="Edotaccent" unicode="&#x116;" horiz-adv-x="1187" 
d="M723 1618l41 233h203l-41 -233h-203zM106 0l259 1462h876l-31 -178h-661l-80 -455h561l-31 -178h-561l-84 -473h666l-31 -178h-883z" />
    <glyph glyph-name="edotaccent" unicode="&#x117;" horiz-adv-x="1118" 
d="M586 1202l41 234h202l-41 -234h-202zM831 717q0 190 -190 190q-111 0 -188 -74t-93 -210h461q10 43 10 94zM539 143q145 0 239 107l135 -111q-75 -88 -163 -124t-230 -35q-408 0 -407 344q0 90 18 184l14 82q45 252 158 362t330 109q389 0 389 -350q0 -100 -29 -238h-659
l-6 -39q-8 -43 -9 -86q0 -205 220 -205z" />
    <glyph glyph-name="Eogonek" unicode="&#x118;" horiz-adv-x="1187" 
d="M758 -236q0 -61 86 -61q57 0 127 23l2 -111q-92 -33 -185 -33q-223 0 -223 160t252 258h-711l259 1462h876l-31 -178h-661l-80 -455h561l-31 -178h-561l-84 -473h666l-31 -178q-231 -125 -231 -236z" />
    <glyph glyph-name="eogonek" unicode="&#x119;" horiz-adv-x="1118" 
d="M831 717q0 190 -190 190q-111 0 -188 -74t-93 -210h461q10 43 10 94zM549 -235q0 -61 86 -62q53 0 127 23l2 -111q-90 -33 -182 -33q-225 0 -226 160q0 131 148 238q-201 6 -296 90t-95 254q0 90 18 184l14 82q45 252 158 362t330 109q389 0 389 -350q0 -100 -29 -238
h-659l-6 -39q-8 -43 -9 -86q0 -205 220 -205q145 1 239 107l135 -111q-76 -90 -174 -127q-102 -72 -146 -129t-44 -118z" />
    <glyph glyph-name="Ecaron" unicode="&#x11a;" horiz-adv-x="1187" 
d="M838 1737l159 161h217l-317 -288h-143l-217 288h198zM106 0l259 1462h876l-31 -178h-661l-80 -455h561l-31 -178h-561l-84 -473h666l-31 -178h-883z" />
    <glyph glyph-name="ecaron" unicode="&#x11b;" horiz-adv-x="1118" 
d="M702 1319l158 162h217l-317 -289h-144l-217 289h199zM831 717q0 190 -190 190q-111 0 -188 -74t-93 -210h461q10 43 10 94zM539 143q145 0 239 107l135 -111q-75 -88 -163 -124t-230 -35q-408 0 -407 344q0 90 18 184l14 82q45 252 158 362t330 109q389 0 389 -350
q0 -100 -29 -238h-659l-6 -39q-8 -43 -9 -86q0 -205 220 -205z" />
    <glyph glyph-name="Gcircumflex" unicode="&#x11c;" horiz-adv-x="1353" 
d="M905 1776l-157 -164h-218l318 291h143l217 -291h-198zM1274 1145q0 -31 -4 -58l-207 -14q2 18 2 35q0 90 -67 141t-183 51q-162 0 -246 -98t-125 -334l-49 -278q-20 -117 -20 -187q0 -246 256 -245q155 0 243 84t121 260l19 112h-275l31 170h492l-48 -264
q-28 -152 -62 -234t-101 -151q-154 -155 -415 -155t-374 110q-109 102 -108 287q0 90 24 227l55 305q29 168 68 259t111 163q147 147 409 148q213 0 333 -88t120 -246z" />
    <glyph glyph-name="gcircumflex" unicode="&#x11d;" horiz-adv-x="1159" 
d="M733 1358l-158 -162h-217l318 289h143l217 -289h-198zM807 707q0 186 -186 186q-113 1 -179 -73t-92 -236l-22 -127q-12 -72 -13 -119q0 -190 183 -191q219 0 268 279l33 188q8 35 8 93zM446 -20q-342 0 -342 315q0 70 19 174l27 156q41 233 142 334t301 101t292 -112
l35 92h163l-182 -1026q-45 -256 -170 -376t-350 -119q-281 0 -367 182l170 90q33 -59 77 -84t120 -24q254 0 307 303l14 82q-90 -88 -256 -88z" />
    <glyph glyph-name="Gbreve" unicode="&#x11e;" horiz-adv-x="1353" 
d="M733 1855q0 -109 154 -108q88 0 132 32t68 115h138q-20 -129 -64 -186q-84 -115 -278 -115q-289 0 -289 213q0 31 8 88h135q-4 -23 -4 -39zM1274 1145q0 -31 -4 -58l-207 -14q2 18 2 35q0 90 -67 141t-183 51q-162 0 -246 -98t-125 -334l-49 -278q-20 -117 -20 -187
q0 -246 256 -245q155 0 243 84t121 260l19 112h-275l31 170h492l-48 -264q-28 -152 -62 -234t-101 -151q-154 -155 -415 -155t-374 110q-109 102 -108 287q0 90 24 227l55 305q29 168 68 259t111 163q147 147 409 148q213 0 333 -88t120 -246z" />
    <glyph glyph-name="gbreve" unicode="&#x11f;" horiz-adv-x="1159" 
d="M584 1438q0 -106 153 -107q88 0 132 32t69 116h137q-20 -131 -63 -187q-82 -117 -279 -116q-289 0 -289 215q1 33 9 88h135q-4 -23 -4 -41zM807 707q0 186 -186 186q-113 1 -179 -73t-92 -236l-22 -127q-12 -72 -13 -119q0 -190 183 -191q219 0 268 279l33 188q8 35 8 93
zM446 -20q-342 0 -342 315q0 70 19 174l27 156q41 233 142 334t301 101t292 -112l35 92h163l-182 -1026q-45 -256 -170 -376t-350 -119q-281 0 -367 182l170 90q33 -59 77 -84t120 -24q254 0 307 303l14 82q-90 -88 -256 -88z" />
    <glyph glyph-name="Gdotaccent" unicode="&#x120;" horiz-adv-x="1353" 
d="M768 1618l41 233h203l-41 -233h-203zM1274 1145q0 -31 -4 -58l-207 -14q2 18 2 35q0 90 -67 141t-183 51q-162 0 -246 -98t-125 -334l-49 -278q-20 -117 -20 -187q0 -246 256 -245q155 0 243 84t121 260l19 112h-275l31 170h492l-48 -264q-28 -152 -62 -234t-101 -151
q-154 -155 -415 -155t-374 110q-109 102 -108 287q0 90 24 227l55 305q29 168 68 259t111 163q147 147 409 148q213 0 333 -88t120 -246z" />
    <glyph glyph-name="gdotaccent" unicode="&#x121;" horiz-adv-x="1159" 
d="M623 1202l41 234h202l-41 -234h-202zM807 707q0 186 -186 186q-113 1 -179 -73t-92 -236l-22 -127q-12 -72 -13 -119q0 -190 183 -191q219 0 268 279l33 188q8 35 8 93zM446 -20q-342 0 -342 315q0 70 19 174l27 156q41 233 142 334t301 101t292 -112l35 92h163
l-182 -1026q-45 -256 -170 -376t-350 -119q-281 0 -367 182l170 90q33 -59 77 -84t120 -24q254 0 307 303l14 82q-90 -88 -256 -88z" />
    <glyph glyph-name="Gcommaaccent" unicode="&#x122;" horiz-adv-x="1353" 
d="M332 -469l164 332h202l-223 -332h-143zM1274 1145q0 -31 -4 -58l-207 -14q2 18 2 35q0 90 -67 141t-183 51q-162 0 -246 -98t-125 -334l-49 -278q-20 -117 -20 -187q0 -246 256 -245q155 0 243 84t121 260l19 112h-275l31 170h492l-48 -264q-28 -152 -62 -234t-101 -151
q-154 -155 -415 -155t-374 110q-109 102 -108 287q0 90 24 227l55 305q29 168 68 259t111 163q147 147 409 148q213 0 333 -88t120 -246z" />
    <glyph glyph-name="gcommaaccent" unicode="&#x123;" horiz-adv-x="1159" 
d="M582 1190l295 301h157l-213 -301h-239zM807 707q0 186 -186 186q-113 1 -179 -73t-92 -236l-22 -127q-12 -72 -13 -119q0 -190 183 -191q219 0 268 279l33 188q8 35 8 93zM446 -20q-342 0 -342 315q0 70 19 174l27 156q41 233 142 334t301 101t292 -112l35 92h163
l-182 -1026q-45 -256 -170 -376t-350 -119q-281 0 -367 182l170 90q33 -59 77 -84t120 -24q254 0 307 303l14 82q-90 -88 -256 -88z" />
    <glyph glyph-name="Hcircumflex" unicode="&#x124;" horiz-adv-x="1392" 
d="M924 1776l-158 -164h-217l317 291h144l217 -291h-199zM104 0l258 1462h220l-113 -633h561l113 633h219l-258 -1462h-219l114 651h-561l-114 -651h-220z" />
    <glyph glyph-name="hcircumflex" unicode="&#x125;" horiz-adv-x="1163" 
d="M551 1776l-158 -164h-217l318 291h143l217 -291h-199zM1036 780q0 -70 -22 -205l-101 -575h-208l102 586q12 66 12 121q0 174 -166 174q-115 0 -179 -79t-95 -255l-96 -547h-209l258 1462h209l-86 -489q62 52 119 69q57 18 137 19q153 0 239 -74t86 -207z" />
    <glyph glyph-name="Hbar" unicode="&#x126;" horiz-adv-x="1392" 
d="M471 829h561l35 185h-561zM106 0l181 1014h-144l27 160h143l52 288h219l-52 -288h562l51 288h219l-51 -288h141l-27 -160h-141l-180 -1014h-219l114 651h-561l-114 -651h-220z" />
    <glyph glyph-name="hbar" unicode="&#x127;" horiz-adv-x="1163" 
d="M1036 780q0 -70 -22 -205l-101 -575h-208l102 586q12 66 12 121q0 174 -168 174q-113 0 -177 -79t-95 -255l-96 -547h-209l205 1161h-162l24 144h162l29 157h209l-29 -157h301l-25 -144h-301l-32 -188q62 52 119 69q57 18 137 19q153 0 239 -74t86 -207z" />
    <glyph glyph-name="Itilde" unicode="&#x128;" horiz-adv-x="612" 
d="M408 1892q84 0 150 -63t98 -63t55 25q23 26 45 85h131q-47 -125 -70 -162q-61 -100 -161 -100t-164 63t-99 64q-63 0 -106 -113h-129q47 123 73 162q68 102 177 102zM104 0l258 1462h220l-258 -1462h-220z" />
    <glyph glyph-name="itilde" unicode="&#x129;" horiz-adv-x="540" 
d="M548 1348q32 0 54 24t45 86h131q-45 -123 -69 -162q-61 -100 -161 -100t-164 64t-99 63q-62 0 -107 -113h-129q47 125 74 162q70 102 165 102t161 -62q67 -64 99 -64zM74 0l182 1040h209l-182 -1040h-209z" />
    <glyph glyph-name="Imacron" unicode="&#x12a;" horiz-adv-x="612" 
d="M223 1671l27 150h573l-26 -150h-574zM104 0l258 1462h220l-258 -1462h-220z" />
    <glyph glyph-name="imacron" unicode="&#x12b;" horiz-adv-x="540" 
d="M115 1253l26 150h574l-27 -150h-573zM74 0l182 1040h209l-182 -1040h-209z" />
    <glyph glyph-name="Ibreve" unicode="&#x12c;" horiz-adv-x="612" 
d="M369 1855q0 -109 153 -108q88 0 132 32t69 115h137q-20 -129 -63 -186q-84 -115 -279 -115q-289 0 -289 213q1 31 9 88h135q-4 -23 -4 -39zM104 0l258 1462h220l-258 -1462h-220z" />
    <glyph glyph-name="ibreve" unicode="&#x12d;" horiz-adv-x="540" 
d="M258 1438q0 -106 154 -107q88 0 132 32t68 116h138q-20 -131 -64 -187q-82 -117 -278 -116q-289 0 -289 215q0 33 8 88h135q-4 -23 -4 -41zM74 0l182 1040h209l-182 -1040h-209z" />
    <glyph glyph-name="Iogonek" unicode="&#x12e;" horiz-adv-x="612" 
d="M186 -297q51 0 119 23l2 -111q-84 -33 -176 -33q-217 0 -217 160t242 258h-52l258 1462h220l-258 -1462q-217 -117 -218 -229q0 -68 80 -68z" />
    <glyph glyph-name="iogonek" unicode="&#x12f;" horiz-adv-x="540" 
d="M293 1233l41 240h209l-41 -240h-209zM66 -229q0 -68 79 -68q51 0 119 23l2 -111q-84 -33 -176 -33q-217 0 -217 162q0 117 143 205q47 31 101 51h-41l182 1040h209l-184 -1040q-117 -70 -167 -122t-50 -107z" />
    <glyph glyph-name="Idotaccent" unicode="&#x130;" horiz-adv-x="612" 
d="M397 1618l41 233h203l-41 -233h-203zM104 0l258 1462h220l-258 -1462h-220z" />
    <glyph glyph-name="dotlessi" unicode="&#x131;" horiz-adv-x="540" 
d="M74 0l182 1040h209l-182 -1040h-209z" />
    <glyph glyph-name="IJ" unicode="&#x132;" horiz-adv-x="1224" 
d="M457 -500q-109 0 -226 39l103 166q53 -27 110 -27q150 0 222 142q33 63 67 270l242 1372h219l-246 -1399q-30 -177 -54 -255t-65 -136q-121 -172 -372 -172zM104 0l258 1462h220l-258 -1462h-220z" />
    <glyph glyph-name="ij" unicode="&#x133;" horiz-adv-x="1095" 
d="M811 1040h209l-186 -1048q-41 -281 -150 -374t-387 -89l31 172q136 -6 204 57t93 222zM846 1233l41 240h209l-43 -240h-207zM76 0l182 1040h209l-182 -1040h-209zM293 1233l43 240h207l-41 -240h-209z" />
    <glyph glyph-name="Jcircumflex" unicode="&#x134;" horiz-adv-x="970" 
d="M838 1776l-158 -164h-217l317 291h144l217 -291h-199zM305 -20q-127 0 -218 36t-181 123l147 146q97 -127 241 -127t214 141q27 57 65 270l158 893h219l-162 -915q-37 -207 -55 -269t-59 -124q-117 -174 -369 -174z" />
    <glyph glyph-name="jcircumflex" unicode="&#x135;" horiz-adv-x="555" 
d="M416 1358l-158 -162h-217l317 289h144l217 -289h-199zM270 1040h207l-184 -1048q-41 -279 -151 -373t-386 -90l31 172q137 -6 205 57t90 222z" />
    <glyph glyph-name="Kcommaaccent" unicode="&#x136;" horiz-adv-x="1263" 
d="M322 -469l163 332h203l-223 -332h-143zM106 0l259 1462h217l-129 -729l690 729h256l-584 -594l367 -868h-254l-279 719l-243 -252l-82 -467h-218z" />
    <glyph glyph-name="kcommaaccent" unicode="&#x137;" horiz-adv-x="1064" 
d="M223 -469l164 332h203l-223 -332h-144zM76 0l258 1462h209l-170 -958l508 536h241l-434 -440l279 -600h-228l-207 467l-202 -211l-45 -256h-209z" />
    <glyph glyph-name="kgreenlandic" unicode="&#x138;" horiz-adv-x="1064" 
d="M76 0l182 1040h209l-94 -536l508 536h241l-434 -440l279 -600h-228l-207 467l-202 -211l-45 -256h-209z" />
    <glyph glyph-name="Lacute" unicode="&#x139;" horiz-adv-x="1101" 
d="M442 1606l213 303h242l-297 -303h-158zM104 0l258 1462h220l-228 -1284h666l-33 -178h-883z" />
    <glyph glyph-name="lacute" unicode="&#x13a;" horiz-adv-x="612" 
d="M369 1606l213 301h241l-297 -301h-157zM336 287q0 -65 35 -91t125 -26h39l-31 -170h-47q-186 0 -259 49t-73 174q0 70 20 193l187 1046h207l-191 -1085q-12 -68 -12 -90z" />
    <glyph glyph-name="Lcommaaccent" unicode="&#x13b;" horiz-adv-x="1101" 
d="M279 -469l163 332h203l-223 -332h-143zM104 0l258 1462h220l-228 -1284h666l-33 -178h-883z" />
    <glyph glyph-name="lcommaaccent" unicode="&#x13c;" horiz-adv-x="614" 
d="M-18 -469l163 332h203l-223 -332h-143zM334 287q0 -65 35 -91t125 -26h38l-30 -170h-47q-186 0 -259 49t-73 174q0 76 20 193l185 1046h209l-191 -1085q-12 -63 -12 -90z" />
    <glyph glyph-name="Lcaron" unicode="&#x13d;" horiz-adv-x="1101" 
d="M702 975l150 512h201l-203 -512h-148zM104 0l258 1462h220l-228 -1284h666l-33 -178h-883z" />
    <glyph glyph-name="lcaron" unicode="&#x13e;" horiz-adv-x="729" 
d="M598 975l150 512h200l-203 -512h-147zM336 287q0 -65 35 -91t125 -26h39l-31 -170h-47q-186 0 -259 49t-73 174q0 70 20 193l187 1046h207l-191 -1085q-12 -68 -12 -90z" />
    <glyph glyph-name="Ldot" unicode="&#x13f;" horiz-adv-x="1101" 
d="M762 621l41 229h190l-41 -229h-190zM104 0l258 1462h220l-228 -1284h666l-33 -178h-883z" />
    <glyph glyph-name="ldot" unicode="&#x140;" horiz-adv-x="708" 
d="M547 621l41 229h188l-39 -229h-190zM336 287q0 -65 35 -91t125 -26h39l-31 -170h-47q-186 0 -259 49t-73 174q0 70 20 193l187 1046h207l-191 -1085q-12 -68 -12 -90z" />
    <glyph glyph-name="Lslash" unicode="&#x141;" horiz-adv-x="1101" 
d="M104 0l74 418l-166 -96l35 194l166 96l149 850h220l-127 -723l444 256l-35 -194l-444 -256l-64 -367h664l-31 -178h-885z" />
    <glyph glyph-name="lslash" unicode="&#x142;" horiz-adv-x="649" 
d="M514 170h37l-29 -170h-49q-184 0 -257 49t-73 174q0 61 9 107l38 221l-210 -123l34 201l209 121l125 712h209l-104 -592l262 152l-35 -201l-262 -151l-53 -293q-11 -63 -11 -109t35 -72t125 -26z" />
    <glyph glyph-name="Nacute" unicode="&#x143;" horiz-adv-x="1470" 
d="M825 1606l213 303h242l-297 -303h-158zM104 0l258 1462h211l461 -1093l193 1093h213l-258 -1462h-211l-461 1094l-193 -1094h-213z" />
    <glyph glyph-name="nacute" unicode="&#x144;" horiz-adv-x="1163" 
d="M596 1190l213 301h242l-297 -301h-158zM416 1040v-98q104 119 299 119q157 0 239 -73t82 -208q0 -76 -22 -205l-101 -575h-208l100 573q14 84 14 132q0 178 -166 178q-117 0 -180 -80t-96 -271l-94 -532h-209l182 1040h160z" />
    <glyph glyph-name="Ncommaaccent" unicode="&#x145;" horiz-adv-x="1470" 
d="M403 -469l164 332h203l-223 -332h-144zM104 0l258 1462h211l461 -1093l193 1093h213l-258 -1462h-211l-461 1094l-193 -1094h-213z" />
    <glyph glyph-name="ncommaaccent" unicode="&#x146;" horiz-adv-x="1163" 
d="M248 -469l164 332h202l-223 -332h-143zM416 1040v-98q104 119 299 119q157 0 239 -73t82 -208q0 -76 -22 -205l-101 -575h-208l100 573q14 84 14 132q0 178 -166 178q-117 0 -180 -80t-96 -271l-94 -532h-209l182 1040h160z" />
    <glyph glyph-name="Ncaron" unicode="&#x147;" horiz-adv-x="1470" 
d="M948 1737l160 161h217l-317 -288h-144l-217 288h199zM104 0l258 1462h211l461 -1093l193 1093h213l-258 -1462h-211l-461 1094l-193 -1094h-213z" />
    <glyph glyph-name="ncaron" unicode="&#x148;" horiz-adv-x="1163" 
d="M707 1319l157 162h217l-317 -289h-143l-218 289h199zM416 1040v-98q104 119 299 119q157 0 239 -73t82 -208q0 -76 -22 -205l-101 -575h-208l100 573q14 84 14 132q0 178 -166 178q-117 0 -180 -80t-96 -271l-94 -532h-209l182 1040h160z" />
    <glyph glyph-name="napostrophe" unicode="&#x149;" horiz-adv-x="1292" 
d="M74 954l159 508h224l-203 -508h-180zM535 1040v-98q104 119 279 119q341 0 341 -285q0 -74 -22 -201l-103 -575h-209l103 573q14 88 14 134q0 176 -166 176q-119 0 -181 -80t-97 -271l-95 -532h-206l182 1040h160z" />
    <glyph glyph-name="Eng" unicode="&#x14a;" horiz-adv-x="1470" 
d="M104 0l258 1462h211l461 -1087l193 1087h213l-258 -1464q-43 -274 -156 -372t-379 -97l31 168q133 -6 202 56t93 214l10 51l-473 1076l-193 -1094h-213z" />
    <glyph glyph-name="eng" unicode="&#x14b;" horiz-adv-x="1163" 
d="M416 1040v-98q104 119 299 119q157 0 239 -73t82 -208q0 -76 -22 -205l-105 -595q-41 -264 -153 -359q-113 -94 -383 -92l30 172q137 -6 205 57t92 222l105 593q14 84 14 132q0 178 -166 178q-117 0 -180 -80t-96 -271l-94 -532h-209l182 1040h160z" />
    <glyph glyph-name="Omacron" unicode="&#x14c;" horiz-adv-x="1378" 
d="M608 1671l27 150h573l-26 -150h-574zM373 403q0 -245 260 -245q162 0 249 97t126 318l55 316q20 104 20 170q0 244 -262 244q-176 0 -270 -127q-70 -92 -105 -287l-55 -316q-18 -106 -18 -170zM1305 1085q0 -78 -23 -204l-63 -355q-29 -160 -67 -246t-114 -157
q-152 -143 -404 -143t-368 108q-115 108 -114 285q-1 84 22 209l62 354q29 160 67 247q39 87 115 156q156 143 400 143t365 -102q122 -102 122 -295z" />
    <glyph glyph-name="omacron" unicode="&#x14d;" horiz-adv-x="1142" 
d="M408 1253l26 150h574l-27 -150h-573zM825 707q0 186 -196 186q-119 0 -184 -72t-93 -235l-22 -131q-12 -68 -13 -119q0 -188 197 -189q120 0 184 72t93 236l22 131q12 68 12 121zM1036 737q0 -63 -16 -166l-29 -157q-39 -229 -153 -332q-115 -102 -332 -102
q-399 0 -400 325q1 68 17 162l29 160q41 231 154 332q114 101 331 102q399 0 399 -324z" />
    <glyph glyph-name="Obreve" unicode="&#x14e;" horiz-adv-x="1378" 
d="M754 1855q0 -109 153 -108q88 0 132 32t69 115h137q-20 -129 -63 -186q-84 -115 -279 -115q-289 0 -289 213q1 31 9 88h135q-4 -23 -4 -39zM373 403q0 -245 260 -245q162 0 249 97t126 318l55 316q20 104 20 170q0 244 -262 244q-176 0 -270 -127q-70 -92 -105 -287
l-55 -316q-18 -106 -18 -170zM1305 1085q0 -78 -23 -204l-63 -355q-29 -160 -67 -246t-114 -157q-152 -143 -404 -143t-368 108q-115 108 -114 285q-1 84 22 209l62 354q29 160 67 247q39 87 115 156q156 143 400 143t365 -102q122 -102 122 -295z" />
    <glyph glyph-name="obreve" unicode="&#x14f;" horiz-adv-x="1142" 
d="M559 1438q0 -106 154 -107q88 0 132 32t68 116h138q-20 -131 -64 -187q-82 -117 -278 -116q-289 0 -289 215q0 33 8 88h135q-4 -23 -4 -41zM825 707q0 186 -196 186q-119 0 -184 -72t-93 -235l-22 -131q-12 -68 -13 -119q0 -188 197 -189q120 0 184 72t93 236l22 131
q12 68 12 121zM1036 737q0 -63 -16 -166l-29 -157q-39 -229 -153 -332q-115 -102 -332 -102q-399 0 -400 325q1 68 17 162l29 160q41 231 154 332q114 101 331 102q399 0 399 -324z" />
    <glyph glyph-name="Ohungarumlaut" unicode="&#x150;" horiz-adv-x="1378" 
d="M942 1606l180 303h215l-247 -303h-148zM637 1606l180 303h215l-248 -303h-147zM373 403q0 -245 260 -245q162 0 249 97t126 318l55 316q20 104 20 170q0 244 -262 244q-176 0 -270 -127q-70 -92 -105 -287l-55 -316q-18 -106 -18 -170zM1305 1085q0 -78 -23 -204
l-63 -355q-29 -160 -67 -246t-114 -157q-152 -143 -404 -143t-368 108q-115 108 -114 285q-1 84 22 209l62 354q29 160 67 247q39 87 115 156q156 143 400 143t365 -102q122 -102 122 -295z" />
    <glyph glyph-name="ohungarumlaut" unicode="&#x151;" horiz-adv-x="1142" 
d="M750 1190l180 301h215l-248 -301h-147zM444 1190l181 301h215l-248 -301h-148zM825 707q0 186 -196 186q-119 0 -184 -72t-93 -235l-22 -131q-12 -68 -13 -119q0 -188 197 -189q120 0 184 72t93 236l22 131q12 68 12 121zM1036 737q0 -63 -16 -166l-29 -157
q-39 -229 -153 -332q-115 -102 -332 -102q-399 0 -400 325q1 68 17 162l29 160q41 231 154 332q114 101 331 102q399 0 399 -324z" />
    <glyph glyph-name="OE" unicode="&#x152;" horiz-adv-x="1990" 
d="M373 406q0 -248 264 -248q158 0 247 98t128 313l53 303q20 111 20 179q0 254 -264 254q-176 0 -270 -127q-69 -94 -102 -287l-58 -322q-18 -94 -18 -163zM946 0l27 154l-47 -54q-104 -120 -324 -120t-336 102q-115 102 -114 287q0 90 20 209l66 360q27 156 64 245
q38 89 108 156q144 143 374 143q284 2 366 -140q18 -30 26 -39l28 159h842l-33 -178h-657l-82 -455h561l-33 -178h-559l-82 -473h664l-33 -178h-846z" />
    <glyph glyph-name="oe" unicode="&#x153;" horiz-adv-x="1789" 
d="M1501 721q0 186 -190 186q-111 0 -188 -74t-93 -210h461q10 51 10 98zM825 707q0 186 -196 186q-119 0 -184 -72t-93 -235l-22 -131q-12 -68 -13 -119q0 -188 197 -189q120 0 184 72t93 236l22 131q12 68 12 121zM1309 1061q383 0 383 -350q0 -117 -29 -238h-657l-9 -39
q-8 -49 -8 -88q0 -203 219 -203q145 0 240 107l135 -111q-72 -84 -162 -122q-89 -37 -243 -37t-248 67q-43 33 -76 107q-59 -94 -142 -134t-216 -40q-389 0 -390 325q1 68 17 162l29 160q39 229 150 331q112 102 325 103q137 0 215 -40t119 -130q77 96 153 133t195 37z" />
    <glyph glyph-name="Racute" unicode="&#x154;" horiz-adv-x="1318" 
d="M709 1606l213 303h241l-297 -303h-157zM758 788q152 0 228 84t77 234q0 94 -55 137t-177 43h-282l-88 -498h297zM856 1462q430 0 430 -319q0 -117 -36 -225t-99 -173q-92 -100 -238 -110l207 -635h-241l-183 618h-262l-108 -618h-220l259 1462h491z" />
    <glyph glyph-name="racute" unicode="&#x155;" horiz-adv-x="784" 
d="M449 1190l213 301h241l-297 -301h-157zM688 1061q92 0 191 -60l-119 -174q-70 55 -133 56q-101 0 -161 -89t-95 -288l-88 -506h-209l182 1040h162l8 -96q58 63 114 90t148 27z" />
    <glyph glyph-name="Rcommaaccent" unicode="&#x156;" horiz-adv-x="1318" 
d="M324 -469l163 332h203l-223 -332h-143zM758 788q152 0 228 84t77 234q0 94 -55 137t-177 43h-282l-88 -498h297zM856 1462q430 0 430 -319q0 -117 -36 -225t-99 -173q-92 -100 -238 -110l207 -635h-241l-183 618h-262l-108 -618h-220l259 1462h491z" />
    <glyph glyph-name="rcommaaccent" unicode="&#x157;" horiz-adv-x="784" 
d="M-100 -469l163 332h203l-223 -332h-143zM689 1061q91 0 190 -60l-119 -174q-66 55 -133 56q-99 0 -159 -88t-95 -289l-90 -506h-207l182 1040h162l8 -96q58 63 114 90t147 27z" />
    <glyph glyph-name="Rcaron" unicode="&#x158;" horiz-adv-x="1318" 
d="M813 1737l160 161h217l-318 -288h-143l-217 288h199zM758 788q152 0 228 84t77 234q0 94 -55 137t-177 43h-282l-88 -498h297zM856 1462q430 0 430 -319q0 -117 -36 -225t-99 -173q-92 -100 -238 -110l207 -635h-241l-183 618h-262l-108 -618h-220l259 1462h491z" />
    <glyph glyph-name="rcaron" unicode="&#x159;" horiz-adv-x="784" 
d="M569 1319l158 162h217l-317 -289h-144l-217 289h199zM688 1061q92 0 191 -60l-119 -174q-70 55 -133 56q-101 0 -161 -89t-95 -288l-88 -506h-209l182 1040h162l8 -96q58 63 114 90t148 27z" />
    <glyph glyph-name="Sacute" unicode="&#x15a;" horiz-adv-x="1181" 
d="M662 1606l212 303h242l-297 -303h-157zM866 430q0 90 -55 133q-33 27 -65 37t-198 53q-338 88 -337 355q0 217 141 346t379 129q340 0 438 -203l-182 -106q-72 131 -272 131q-125 0 -205 -74t-80 -191q0 -82 59 -129t198 -84t193 -59q205 -82 205 -304q-1 -222 -151 -353
t-405 -131t-396 90q-78 47 -119 139l189 106q66 -156 323 -155q195 0 281 108q59 72 59 162z" />
    <glyph glyph-name="sacute" unicode="&#x15b;" horiz-adv-x="985" 
d="M489 1190l213 301h242l-297 -301h-158zM408 143q118 -1 184 49t65 136q0 55 -45 82q-38 18 -186 38t-216 81q-68 60 -69 180q1 158 103 255t291 97q295 0 387 -182l-162 -88q-72 106 -217 106q-89 0 -143 -45q-54 -44 -54 -110t37 -90t143 -38q190 -25 264 -83t72 -185
q0 -367 -459 -366q-331 0 -415 178l168 94q78 -109 252 -109z" />
    <glyph glyph-name="Scircumflex" unicode="&#x15c;" horiz-adv-x="1181" 
d="M819 1776l-157 -164h-218l318 291h143l217 -291h-198zM866 430q0 90 -55 133q-33 27 -65 37t-198 53q-338 88 -337 355q0 217 141 346t379 129q340 0 438 -203l-182 -106q-72 131 -272 131q-125 0 -205 -74t-80 -191q0 -82 59 -129t198 -84t193 -59q205 -82 205 -304
q-1 -222 -151 -353t-405 -131t-396 90q-78 47 -119 139l189 106q66 -156 323 -155q195 0 281 108q59 72 59 162z" />
    <glyph glyph-name="scircumflex" unicode="&#x15d;" horiz-adv-x="985" 
d="M641 1358l-158 -162h-217l318 289h143l217 -289h-199zM408 143q118 -1 184 49t65 136q0 55 -45 82q-38 18 -186 38t-216 81q-68 60 -69 180q1 158 103 255t291 97q295 0 387 -182l-162 -88q-72 106 -217 106q-89 0 -143 -45q-54 -44 -54 -110t37 -90t143 -38
q190 -25 264 -83t72 -185q0 -367 -459 -366q-331 0 -415 178l168 94q78 -109 252 -109z" />
    <glyph glyph-name="Scedilla" unicode="&#x15e;" horiz-adv-x="1181" 
d="M236 -469l163 332h203l-223 -332h-143zM866 430q0 90 -55 133q-33 27 -65 37t-198 53q-338 88 -337 355q0 217 141 346t379 129q340 0 438 -203l-182 -106q-72 131 -272 131q-125 0 -205 -74t-80 -191q0 -82 59 -129t198 -84t193 -59q205 -82 205 -304q-1 -222 -151 -353
t-405 -131t-396 90q-78 47 -119 139l189 106q66 -156 323 -155q195 0 281 108q59 72 59 162z" />
    <glyph glyph-name="scedilla" unicode="&#x15f;" horiz-adv-x="985" 
d="M145 -469l164 332h203l-223 -332h-144zM408 143q118 -1 184 49t65 136q0 55 -45 82q-38 18 -186 38t-216 81q-68 60 -69 180q1 158 103 255t291 97q295 0 387 -182l-162 -88q-72 106 -217 106q-89 0 -143 -45q-54 -44 -54 -110t37 -90t143 -38q190 -25 264 -83t72 -185
q0 -367 -459 -366q-331 0 -415 178l168 94q78 -109 252 -109z" />
    <glyph glyph-name="Scaron" unicode="&#x160;" horiz-adv-x="1181" 
d="M780 1737l160 161h217l-317 -288h-144l-217 288h199zM866 430q0 90 -55 133q-33 27 -65 37t-198 53q-338 88 -337 355q0 217 141 346t379 129q340 0 438 -203l-182 -106q-72 131 -272 131q-125 0 -205 -74t-80 -191q0 -82 59 -129t198 -84t193 -59q205 -82 205 -304
q-1 -222 -151 -353t-405 -131t-396 90q-78 47 -119 139l189 106q66 -156 323 -155q195 0 281 108q59 72 59 162z" />
    <glyph glyph-name="scaron" unicode="&#x161;" horiz-adv-x="985" 
d="M616 1319l158 162h217l-317 -289h-144l-217 289h199zM408 143q118 -1 184 49t65 136q0 55 -45 82q-38 18 -186 38t-216 81q-68 60 -69 180q1 158 103 255t291 97q295 0 387 -182l-162 -88q-72 106 -217 106q-89 0 -143 -45q-54 -44 -54 -110t37 -90t143 -38
q190 -25 264 -83t72 -185q0 -367 -459 -366q-331 0 -415 178l168 94q78 -109 252 -109z" />
    <glyph glyph-name="Tcommaaccent" unicode="&#x162;" horiz-adv-x="1136" 
d="M195 -469l163 332h203l-223 -332h-143zM369 0l225 1284h-410l31 178h1038l-30 -178h-410l-225 -1284h-219z" />
    <glyph glyph-name="tcommaaccent" unicode="&#x163;" horiz-adv-x="696" 
d="M25 -469l163 332h203l-223 -332h-143zM367 283q1 -63 33 -87t120 -24h33l-31 -172h-30q-188 0 -263 48q-74 48 -73 169q0 76 22 199l80 456h-121l29 168h127l65 318h195l-57 -318h206l-30 -168h-205l-86 -483q-14 -82 -14 -106z" />
    <glyph glyph-name="Tcaron" unicode="&#x164;" horiz-adv-x="1136" 
d="M774 1737l160 161h217l-317 -288h-144l-217 288h199zM369 0l225 1284h-410l31 178h1038l-30 -178h-410l-225 -1284h-219z" />
    <glyph glyph-name="tcaron" unicode="&#x165;" horiz-adv-x="800" 
d="M698 1188l133 446h201l-186 -446h-148zM365 283q1 -63 33 -87t120 -24h33l-31 -172h-31q-188 0 -262 48t-73 169q0 70 22 199l80 456h-121l29 168h127l67 318h193l-55 -318h204l-30 -168h-205l-86 -483q-14 -82 -14 -106z" />
    <glyph glyph-name="Tbar" unicode="&#x166;" horiz-adv-x="1136" 
d="M369 0l114 651h-272l31 176h272l80 457h-410l31 178h1038l-30 -178h-410l-80 -457h271l-31 -176h-271l-114 -651h-219z" />
    <glyph glyph-name="tbar" unicode="&#x167;" horiz-adv-x="702" 
d="M377 276q0 -56 34 -81t117 -25h31l-31 -170h-30q-190 0 -264 47q-73 47 -72 170q0 72 12 133l39 217h-123l25 144h123l28 161h-123l31 168h121l67 318h197l-55 -318h205l-29 -168h-205l-29 -161h205l-24 -144h-207l-37 -217q-6 -18 -6 -74z" />
    <glyph glyph-name="Utilde" unicode="&#x168;" horiz-adv-x="1406" 
d="M795 1892q95 0 161 -63t99 -63t55 25q22 26 45 85h131q-47 -125 -69 -162q-61 -100 -162 -100t-164 63t-98 64q-64 0 -107 -113h-129q47 123 74 162q68 102 164 102zM641 158q190 0 285 137q47 72 78 246l163 921h219l-169 -958q-29 -158 -58 -231t-90 -136
q-152 -158 -426 -157q-145 0 -235 30t-150 99q-82 94 -82 233q0 78 27 236l155 884h220l-162 -921q-18 -106 -19 -168q0 -215 244 -215z" />
    <glyph glyph-name="utilde" unicode="&#x169;" horiz-adv-x="1140" 
d="M848 1348q32 0 54 24t46 86h131q-45 -123 -69 -162q-62 -100 -162 -100t-164 64t-98 63q-62 0 -107 -113h-129q47 125 74 162q70 102 165 102t161 -62q66 -64 98 -64zM342 334q0 -176 156 -176q113 0 172 80t94 270l94 532h209l-184 -1040h-144l-8 104q-53 -68 -121 -96
t-170 -28q-152 0 -234 72t-81 204q0 88 27 229l96 555h209l-99 -557q-16 -98 -16 -149z" />
    <glyph glyph-name="Umacron" unicode="&#x16a;" horiz-adv-x="1406" 
d="M618 1671l27 150h574l-27 -150h-574zM641 158q190 0 285 137q47 72 78 246l163 921h219l-169 -958q-29 -158 -58 -231t-90 -136q-152 -158 -426 -157q-145 0 -235 30t-150 99q-82 94 -82 233q0 78 27 236l155 884h220l-162 -921q-18 -106 -19 -168q0 -215 244 -215z" />
    <glyph glyph-name="umacron" unicode="&#x16b;" horiz-adv-x="1140" 
d="M408 1253l26 150h574l-27 -150h-573zM342 334q0 -176 156 -176q113 0 172 80t94 270l94 532h209l-184 -1040h-144l-8 104q-53 -68 -121 -96t-170 -28q-152 0 -234 72t-81 204q0 88 27 229l96 555h209l-99 -557q-16 -98 -16 -149z" />
    <glyph glyph-name="Ubreve" unicode="&#x16c;" horiz-adv-x="1406" 
d="M766 1855q0 -109 154 -108q88 0 132 32t68 115h137q-20 -129 -63 -186q-84 -115 -279 -115q-289 0 -288 213q0 31 8 88h135q-4 -23 -4 -39zM641 158q190 0 285 137q47 72 78 246l163 921h219l-169 -958q-29 -158 -58 -231t-90 -136q-152 -158 -426 -157q-145 0 -235 30
t-150 99q-82 94 -82 233q0 78 27 236l155 884h220l-162 -921q-18 -106 -19 -168q0 -215 244 -215z" />
    <glyph glyph-name="ubreve" unicode="&#x16d;" horiz-adv-x="1140" 
d="M543 1438q0 -106 153 -107q88 0 132 32t69 116h137q-20 -131 -63 -187q-82 -117 -279 -116q-289 0 -289 215q1 33 9 88h135q-4 -23 -4 -41zM342 334q0 -176 156 -176q113 0 172 80t94 270l94 532h209l-184 -1040h-144l-8 104q-53 -68 -121 -96t-170 -28q-152 0 -234 72
t-81 204q0 88 27 229l96 555h209l-99 -557q-16 -98 -16 -149z" />
    <glyph glyph-name="Uring" unicode="&#x16e;" horiz-adv-x="1406" 
d="M948 1925q-57 0 -92 -42t-35 -111q0 -84 90 -84q57 0 93 42q35 42 34 109q0 86 -90 86zM686 1788q0 99 76 168t184 69t168 -50q60 -51 60 -147t-76 -168t-184 -73q-108 0 -169 51q-59 51 -59 150zM641 158q190 0 285 137q47 72 78 246l163 921h219l-169 -958
q-29 -158 -58 -231t-90 -136q-152 -158 -426 -157q-145 0 -235 30t-150 99q-82 94 -82 233q0 78 27 236l155 884h220l-162 -921q-18 -106 -19 -168q0 -215 244 -215z" />
    <glyph glyph-name="uring" unicode="&#x16f;" horiz-adv-x="1140" 
d="M741 1509q-57 0 -92 -42t-35 -111q0 -84 91 -84q57 0 92 42t34 111q0 84 -90 84zM706 1171q-108 -1 -167 51t-59 150t75 168q77 70 185 70t167 -50t59 -147t-75 -169q-77 -72 -185 -73zM342 334q0 -176 156 -176q113 0 172 80t94 270l94 532h209l-184 -1040h-144l-8 104
q-53 -68 -121 -96t-170 -28q-152 0 -234 72t-81 204q0 88 27 229l96 555h209l-99 -557q-16 -98 -16 -149z" />
    <glyph glyph-name="Uhungarumlaut" unicode="&#x170;" horiz-adv-x="1406" 
d="M956 1606l181 303h215l-248 -303h-148zM651 1606l180 303h216l-248 -303h-148zM641 158q190 0 285 137q47 72 78 246l163 921h219l-169 -958q-29 -158 -58 -231t-90 -136q-152 -158 -426 -157q-145 0 -235 30t-150 99q-82 94 -82 233q0 78 27 236l155 884h220l-162 -921
q-18 -106 -19 -168q0 -215 244 -215z" />
    <glyph glyph-name="uhungarumlaut" unicode="&#x171;" horiz-adv-x="1140" 
d="M750 1190l180 301h215l-248 -301h-147zM444 1190l181 301h215l-248 -301h-148zM342 334q0 -176 156 -176q113 0 172 80t94 270l94 532h209l-184 -1040h-144l-8 104q-53 -68 -121 -96t-170 -28q-152 0 -234 72t-81 204q0 88 27 229l96 555h209l-99 -557q-16 -98 -16 -149z
" />
    <glyph glyph-name="Uogonek" unicode="&#x172;" horiz-adv-x="1406" 
d="M655 -418q-225 0 -225 160q0 137 182 240q-217 10 -307 84q-129 102 -129 278q0 74 27 234l155 884h220l-162 -921q-18 -106 -19 -166q0 -215 244 -215q190 0 285 137q47 72 78 244l163 921h219l-169 -958q-29 -217 -121 -337t-265 -167q-209 -125 -208 -233
q0 -63 86 -64q57 0 127 23l2 -111q-90 -33 -183 -33z" />
    <glyph glyph-name="uogonek" unicode="&#x173;" horiz-adv-x="1140" 
d="M737 -297q57 0 127 23l2 -111q-90 -33 -182 -33q-225 0 -225 158q0 170 280 270l-8 94q-53 -68 -121 -96t-170 -28q-152 0 -234 72t-81 204q0 88 27 229l96 555h209l-99 -557q-16 -98 -16 -149q0 -176 156 -176q113 0 172 80t94 270l94 532h209l-184 -1040
q-231 -123 -232 -236q0 -61 86 -61z" />
    <glyph glyph-name="Wcircumflex" unicode="&#x174;" horiz-adv-x="1832" 
d="M1126 1776l-157 -164h-217l317 291h143l218 -291h-199zM330 0l-113 1462h215l53 -1149l512 1149h162l105 -1149l460 1149h226l-629 -1462h-191l-110 1100l-498 -1100h-192z" />
    <glyph glyph-name="wcircumflex" unicode="&#x175;" horiz-adv-x="1587" 
d="M938 1358l-158 -162h-217l318 289h143l217 -289h-199zM289 0l-131 1040h207l63 -780l379 780h145l103 -780l340 780h217l-498 -1040h-174l-111 723l-366 -723h-174z" />
    <glyph glyph-name="Ycircumflex" unicode="&#x176;" horiz-adv-x="1099" 
d="M772 1776l-158 -164h-217l318 291h143l217 -291h-198zM350 0l94 528l-292 934h225l209 -714l461 714h239l-622 -934l-95 -528h-219z" />
    <glyph glyph-name="ycircumflex" unicode="&#x177;" horiz-adv-x="1015" 
d="M649 1358l-157 -162h-218l318 289h143l217 -289h-198zM315 10l-188 1030h207l125 -802l385 802h217l-598 -1171q-83 -157 -143 -223t-142 -90t-241 -27l30 172q119 -2 169 31t116 155z" />
    <glyph glyph-name="Ydieresis" unicode="&#x178;" horiz-adv-x="1099" 
d="M852 1618l41 233h186l-41 -233h-186zM446 1618l41 233h187l-41 -233h-187zM350 0l94 528l-292 934h225l209 -714l461 714h239l-622 -934l-95 -528h-219z" />
    <glyph glyph-name="Zacute" unicode="&#x179;" horiz-adv-x="1132" 
d="M659 1606l213 303h242l-297 -303h-158zM14 0l27 147l842 1137h-609l33 178h856l-24 -147l-842 -1137h672l-33 -178h-922z" />
    <glyph glyph-name="zacute" unicode="&#x17a;" horiz-adv-x="978" 
d="M508 1190l213 301h242l-297 -301h-158zM-8 0l22 131l625 741h-455l31 168h713l-25 -131l-622 -741h524l-29 -168h-784z" />
    <glyph glyph-name="Zdotaccent" unicode="&#x17b;" horiz-adv-x="1132" 
d="M659 1618l41 233h203l-41 -233h-203zM14 0l27 147l842 1137h-609l33 178h856l-24 -147l-842 -1137h672l-33 -178h-922z" />
    <glyph glyph-name="zdotaccent" unicode="&#x17c;" horiz-adv-x="978" 
d="M506 1202l41 234h203l-41 -234h-203zM-8 0l22 131l625 741h-455l31 168h713l-25 -131l-622 -741h524l-29 -168h-784z" />
    <glyph glyph-name="Zcaron" unicode="&#x17d;" horiz-adv-x="1132" 
d="M795 1737l159 161h217l-317 -288h-143l-217 288h198zM14 0l27 147l842 1137h-609l33 178h856l-24 -147l-842 -1137h672l-33 -178h-922z" />
    <glyph glyph-name="zcaron" unicode="&#x17e;" horiz-adv-x="978" 
d="M618 1319l158 162h217l-317 -289h-144l-217 289h199zM-8 0l22 131l625 741h-455l31 168h713l-25 -131l-622 -741h524l-29 -168h-784z" />
    <glyph glyph-name="Ohorn" unicode="&#x1a0;" horiz-adv-x="1443" 
d="M373 403q0 -245 260 -245q162 0 249 97t126 318l55 316q20 106 20 168q0 246 -262 246q-176 0 -270 -127q-70 -92 -105 -287l-55 -316q-18 -102 -18 -170zM1294 1184q166 100 166 208q0 52 -14 93h184q4 -31 4 -60q0 -152 -135 -249q-51 -39 -199 -115l-2 -10v-39
q0 -23 -16 -131l-63 -355q-27 -158 -67 -244t-114 -159q-152 -143 -404 -143t-368 108q-115 108 -114 285q0 84 22 209l62 354q27 158 66 245q40 87 116 158q152 143 413 144q403 0 463 -299z" />
    <glyph glyph-name="ohorn" unicode="&#x1a1;" horiz-adv-x="1218" 
d="M825 709q0 184 -196 184q-119 0 -184 -72t-93 -235l-22 -131q-12 -68 -13 -121q0 -186 197 -187q120 0 184 72t93 236l22 131q12 68 12 123zM1343 1004q-1 -111 -75 -195t-240 -164q-8 -64 -8 -74l-29 -157q-39 -229 -153 -332q-115 -102 -330 -102q-401 0 -402 325
q0 68 17 162l29 160q39 229 153 331q115 102 332 103q373 0 397 -285q66 45 84 70q51 68 51 141q0 29 -14 74h184q4 -53 4 -57z" />
    <glyph glyph-name="Uhorn" unicode="&#x1af;" horiz-adv-x="1513" 
d="M176 342q0 76 27 236l155 884h220l-162 -921q-18 -104 -18 -178t51 -140q52 -66 192 -65q190 0 285 137q47 72 78 246l161 921h219l-53 -309q102 49 144 84q78 68 77 172q0 31 -14 76h184l4 -58q0 -150 -137 -256q-90 -68 -282 -153l-90 -514q-27 -156 -58 -230t-90 -137
q-152 -158 -426 -157q-145 0 -235 30t-150 99q-82 94 -82 233z" />
    <glyph glyph-name="uhorn" unicode="&#x1b0;" horiz-adv-x="1265" 
d="M342 336q0 -176 156 -176q113 0 172 79t94 269l94 532h209l-55 -311q102 49 141 82q82 70 82 174q0 31 -14 76h184q4 -53 4 -55q0 -154 -137 -256q-52 -41 -102 -68t-183 -88l-104 -594h-144l-8 104q-98 -125 -291 -124q-152 0 -234 72t-81 204q0 90 27 229l98 555h207
l-99 -557q-16 -98 -16 -147z" />
    <glyph glyph-name="uni01C4" unicode="&#x1c4;" horiz-adv-x="2435" 
d="M2097 1737l158 161h217l-318 -288h-143l-217 288h199zM1317 0l26 147l842 1137h-608l33 178h856l-27 -147l-842 -1137h674l-33 -178h-921zM1083 1049q0 127 -94 192q-63 45 -215 45h-223l-197 -1110h226q190 -4 290 89t142 315l53 303q18 104 18 166zM815 1462
q236 0 342 -80q147 -106 148 -305q0 -68 -23 -203l-59 -339q-80 -541 -611 -535h-508l258 1462h453z" />
    <glyph glyph-name="uni01C5" unicode="&#x1c5;" horiz-adv-x="2318" 
d="M1956 1319l160 162h215l-318 -289h-143l-215 289h196zM1329 0l25 131l622 741h-452l28 168h713l-22 -131l-623 -741h524l-30 -168h-785zM1083 1049q0 127 -94 192q-63 45 -215 45h-223l-197 -1110h226q190 -4 290 89t142 315l53 303q18 104 18 166zM815 1462
q236 0 342 -80q147 -106 148 -305q0 -68 -23 -203l-59 -339q-80 -541 -611 -535h-508l258 1462h453z" />
    <glyph glyph-name="uni01C6" unicode="&#x1c6;" horiz-adv-x="2138" 
d="M1149 0l25 131l622 741h-453l29 168h713l-23 -131l-624 -741h524l-29 -168h-784zM1776 1319l157 162h217l-317 -289h-143l-217 289h198zM811 709q0 184 -188 184q-113 1 -177 -73t-94 -236l-22 -127q-12 -68 -13 -119q0 -190 183 -191q219 0 268 279l33 188q10 66 10 95z
M739 0v90q-2 -2 -4 -5t-6 -5q-56 -56 -117 -78q-61 -23 -153 -22q-352 0 -353 313q0 80 19 178l27 154q41 233 142 334t294 102q127 0 219 -49l55 -45l88 495h209l-258 -1462h-162z" />
    <glyph glyph-name="uni01C7" unicode="&#x1c7;" horiz-adv-x="1712" 
d="M946 -500q-109 0 -227 39l104 166q51 -27 111 -27q152 0 221 142q31 66 68 270l241 1372h219l-245 -1399q-31 -175 -56 -255t-65 -136q-117 -172 -371 -172zM104 0l258 1462h220l-228 -1284h666l-33 -178h-883z" />
    <glyph glyph-name="uni01C8" unicode="&#x1c8;" horiz-adv-x="1654" 
d="M1370 1040h207l-184 -1048q-41 -279 -151 -373t-386 -90l31 172q137 -6 205 57t90 222zM1403 1233l43 240h209l-43 -240h-209zM104 0l258 1462h220l-228 -1284h666l-33 -178h-883z" />
    <glyph glyph-name="uni01C9" unicode="&#x1c9;" horiz-adv-x="1167" 
d="M883 1040h209l-185 -1048q-43 -281 -151 -374t-387 -89l30 172q137 -6 205 57t92 222zM918 1233l40 240h209l-41 -240h-208zM336 287q0 -65 35 -91t125 -26h39l-31 -170h-47q-186 0 -259 49t-73 174q0 70 20 193l187 1046h207l-191 -1085q-12 -68 -12 -90z" />
    <glyph glyph-name="uni01CA" unicode="&#x1ca;" horiz-adv-x="2082" 
d="M1303 -322q152 0 221 142q31 66 67 270l244 1372h219l-248 -1399q-32 -176 -56 -256q-94 -307 -435 -307q-106 0 -225 39l102 166q53 -27 111 -27zM104 0l258 1462h211l461 -1093l193 1093h213l-258 -1462h-211l-461 1094l-193 -1094h-213z" />
    <glyph glyph-name="uni01CB" unicode="&#x1cb;" horiz-adv-x="2025" 
d="M1739 1040h209l-187 -1048q-41 -281 -149 -374t-387 -89l30 172q137 -6 205 57t92 222zM1774 1233l41 240h208l-41 -240h-208zM104 0l258 1462h211l461 -1093l193 1093h213l-258 -1462h-211l-461 1094l-193 -1094h-213z" />
    <glyph glyph-name="uni01CC" unicode="&#x1cc;" horiz-adv-x="1716" 
d="M1432 1040h208l-186 -1048q-42 -281 -150 -374t-386 -89l30 172q137 -6 205 57t90 222zM1466 1233l41 240h209l-43 -240h-207zM416 1040v-98q104 119 299 119q157 0 239 -73t82 -208q0 -76 -22 -205l-101 -575h-208l100 573q14 84 14 132q0 178 -166 178q-117 0 -180 -80
t-96 -271l-94 -532h-209l182 1040h160z" />
    <glyph glyph-name="uni01CD" unicode="&#x1cd;" horiz-adv-x="1245" 
d="M817 1737l160 161h217l-317 -288h-144l-217 288h199zM866 483l-116 715l-373 -715h489zM891 305h-598l-156 -305h-243l790 1462h211l274 -1462h-231z" />
    <glyph glyph-name="uni01CE" unicode="&#x1ce;" horiz-adv-x="1081" 
d="M672 1319l157 162h218l-318 -289h-143l-217 289h198zM502 471q-141 0 -199 -57q-55 -59 -55 -164q0 -59 43 -85t163 -26t181 64q31 35 49 131l23 137h-205zM580 893q-143 0 -248 -105l-125 103q150 170 391 170q178 0 270 -69t93 -201q0 -66 -19 -175l-111 -616h-163
l-9 49q-92 -69 -271 -69t-262 57t-83 182q0 199 93 299t339 100h258l10 60q8 45 9 80q0 135 -172 135z" />
    <glyph glyph-name="uni01CF" unicode="&#x1cf;" horiz-adv-x="612" 
d="M512 1737l160 161h215l-318 -288h-143l-215 288h197zM104 0l258 1462h220l-258 -1462h-220z" />
    <glyph glyph-name="uni01D0" unicode="&#x1d0;" horiz-adv-x="540" 
d="M403 1319l158 162h217l-317 -289h-144l-217 289h199zM74 0l182 1040h209l-182 -1040h-209z" />
    <glyph glyph-name="uni01D1" unicode="&#x1d1;" horiz-adv-x="1378" 
d="M897 1737l160 161h215l-318 -288h-143l-217 288h199zM373 403q0 -245 260 -245q162 0 249 97t126 318l55 316q20 104 20 170q0 244 -262 244q-176 0 -270 -127q-70 -92 -105 -287l-55 -316q-18 -106 -18 -170zM1305 1085q0 -78 -23 -204l-63 -355q-29 -160 -67 -246
t-114 -157q-152 -143 -404 -143t-368 108q-115 108 -114 285q-1 84 22 209l62 354q29 160 67 247q39 87 115 156q156 143 400 143t365 -102q122 -102 122 -295z" />
    <glyph glyph-name="uni01D2" unicode="&#x1d2;" horiz-adv-x="1142" 
d="M705 1319l157 162h217l-317 -289h-144l-217 289h199zM825 707q0 186 -196 186q-119 0 -184 -72t-93 -235l-22 -131q-12 -68 -13 -119q0 -188 197 -189q120 0 184 72t93 236l22 131q12 68 12 121zM1036 737q0 -63 -16 -166l-29 -157q-39 -229 -153 -332
q-115 -102 -332 -102q-399 0 -400 325q1 68 17 162l29 160q41 231 154 332q114 101 331 102q399 0 399 -324z" />
    <glyph glyph-name="uni01D3" unicode="&#x1d3;" horiz-adv-x="1406" 
d="M899 1737l160 161h217l-318 -288h-143l-217 288h199zM641 158q190 0 285 137q47 72 78 246l163 921h219l-169 -958q-29 -158 -58 -231t-90 -136q-152 -158 -426 -157q-145 0 -235 30t-150 99q-82 94 -82 233q0 78 27 236l155 884h220l-162 -921q-18 -106 -19 -168
q0 -215 244 -215z" />
    <glyph glyph-name="uni01D4" unicode="&#x1d4;" horiz-adv-x="1140" 
d="M705 1319l157 162h217l-317 -289h-144l-217 289h199zM342 334q0 -176 156 -176q113 0 172 80t94 270l94 532h209l-184 -1040h-144l-8 104q-53 -68 -121 -96t-170 -28q-152 0 -234 72t-81 204q0 88 27 229l96 555h209l-99 -557q-16 -98 -16 -149z" />
    <glyph glyph-name="Gcaron" unicode="&#x1e6;" horiz-adv-x="1353" 
d="M883 1737l159 161h218l-318 -288h-143l-217 288h198zM1274 1145q0 -31 -4 -58l-207 -14q2 18 2 35q0 90 -67 141t-183 51q-162 0 -246 -98t-125 -334l-49 -278q-20 -117 -20 -187q0 -246 256 -245q155 0 243 84t121 260l19 112h-275l31 170h492l-48 -264
q-28 -152 -62 -234t-101 -151q-154 -155 -415 -155t-374 110q-109 102 -108 287q0 90 24 227l55 305q29 168 68 259t111 163q147 147 409 148q213 0 333 -88t120 -246z" />
    <glyph glyph-name="gcaron" unicode="&#x1e7;" horiz-adv-x="1159" 
d="M725 1319l158 162h217l-318 -289h-143l-217 289h199zM807 707q0 186 -186 186q-113 1 -179 -73t-92 -236l-22 -127q-12 -72 -13 -119q0 -190 183 -191q219 0 268 279l33 188q8 35 8 93zM446 -20q-342 0 -342 315q0 70 19 174l27 156q41 233 142 334t301 101t292 -112
l35 92h163l-182 -1026q-45 -256 -170 -376t-350 -119q-281 0 -367 182l170 90q33 -59 77 -84t120 -24q254 0 307 303l14 82q-90 -88 -256 -88z" />
    <glyph glyph-name="uni01EA" unicode="&#x1ea;" horiz-adv-x="1378" 
d="M373 403q0 -245 260 -245q162 0 249 97t126 318l55 316q20 104 20 170q0 244 -262 244q-176 0 -270 -127q-70 -92 -105 -287l-55 -316q-18 -106 -18 -170zM618 -236q0 -61 87 -61q55 0 129 23v-111q-90 -33 -183 -33q-225 0 -225 158q0 135 180 240q-205 10 -295 71
q-160 109 -159 322q0 84 22 209l62 354q29 160 67 247q39 87 115 156q156 143 400 143t365 -102q122 -102 122 -295q0 -77 -23 -204l-63 -355q-31 -215 -126 -343t-264 -179q-211 -131 -211 -240z" />
    <glyph glyph-name="uni01EB" unicode="&#x1eb;" horiz-adv-x="1142" 
d="M825 707q0 186 -196 186q-119 0 -184 -72t-93 -235l-22 -131q-12 -68 -13 -119q0 -188 197 -189q120 0 184 72t93 236l22 131q12 68 12 121zM500 -236q0 -61 86 -61q57 0 127 23l2 -111q-90 -33 -183 -33q-225 0 -225 158q0 135 166 240q-190 8 -278 87t-89 238
q0 68 17 162l29 160q41 231 154 332q114 101 331 102q399 0 399 -324q0 -64 -16 -166l-29 -157q-53 -336 -301 -412q-190 -121 -190 -238z" />
    <glyph glyph-name="uni01F1" unicode="&#x1f1;" horiz-adv-x="2435" 
d="M1317 0l26 147l842 1137h-608l33 178h856l-27 -147l-842 -1137h674l-33 -178h-921zM1083 1049q0 127 -94 192q-63 45 -215 45h-223l-197 -1110h226q190 -4 290 89t142 315l53 303q18 104 18 166zM815 1462q236 0 342 -80q147 -106 148 -305q0 -68 -23 -203l-59 -339
q-80 -541 -611 -535h-508l258 1462h453z" />
    <glyph glyph-name="uni01F2" unicode="&#x1f2;" horiz-adv-x="2318" 
d="M1329 0l25 131l622 741h-452l28 168h713l-22 -131l-623 -741h524l-30 -168h-785zM1083 1049q0 127 -94 192q-63 45 -215 45h-223l-197 -1110h226q190 -4 290 89t142 315l53 303q18 104 18 166zM815 1462q236 0 342 -80q147 -106 148 -305q0 -68 -23 -203l-59 -339
q-80 -541 -611 -535h-508l258 1462h453z" />
    <glyph glyph-name="uni01F3" unicode="&#x1f3;" horiz-adv-x="2138" 
d="M1149 0l25 131l622 741h-453l29 168h713l-23 -131l-624 -741h524l-29 -168h-784zM811 709q0 184 -188 184q-113 1 -177 -73t-94 -236l-22 -127q-12 -68 -13 -119q0 -190 183 -191q219 0 268 279l33 188q10 66 10 95zM739 0v90q-2 -2 -4 -5t-6 -5q-56 -56 -117 -78
q-61 -23 -153 -22q-352 0 -353 313q0 80 19 178l27 154q41 233 142 334t294 102q127 0 219 -49l55 -45l88 495h209l-258 -1462h-162z" />
    <glyph glyph-name="uni01F4" unicode="&#x1f4;" horiz-adv-x="1353" 
d="M750 1606l213 303h241l-297 -303h-157zM1274 1145q0 -31 -4 -58l-207 -14q2 18 2 35q0 90 -67 141t-183 51q-162 0 -246 -98t-125 -334l-49 -278q-20 -117 -20 -187q0 -246 256 -245q155 0 243 84t121 260l19 112h-275l31 170h492l-48 -264q-28 -152 -62 -234t-101 -151
q-154 -155 -415 -155t-374 110q-109 102 -108 287q0 90 24 227l55 305q29 168 68 259t111 163q147 147 409 148q213 0 333 -88t120 -246z" />
    <glyph glyph-name="uni01F5" unicode="&#x1f5;" horiz-adv-x="1159" 
d="M575 1190l213 301h242l-297 -301h-158zM807 707q0 186 -186 186q-113 1 -179 -73t-92 -236l-22 -127q-12 -72 -13 -119q0 -190 183 -191q219 0 268 279l33 188q8 35 8 93zM446 -20q-342 0 -342 315q0 70 19 174l27 156q41 233 142 334t301 101t292 -112l35 92h163
l-182 -1026q-45 -256 -170 -376t-350 -119q-281 0 -367 182l170 90q33 -59 77 -84t120 -24q254 0 307 303l14 82q-90 -88 -256 -88z" />
    <glyph glyph-name="Aringacute" unicode="&#x1fa;" horiz-adv-x="1245" 
d="M768 1837l158 250h233l-264 -250h-127zM827 1700q-57 0 -92 -42t-35 -110q0 -84 91 -84q57 0 92 42t35 110q-1 84 -91 84zM866 483l-116 715l-373 -715h489zM565 1555q0 103 75 175t183 70q109 0 169 -50t60 -128t-38 -139q-39 -61 -107 -94l262 -1389h-231l-47 305h-598
l-156 -305h-243l755 1397q-84 55 -84 158z" />
    <glyph glyph-name="aringacute" unicode="&#x1fb;" horiz-adv-x="1081" 
d="M653 1647l160 247h234l-265 -247h-129zM709 1475q-57 0 -93 -42t-34 -112q0 -84 90 -84q57 0 92 42t35 112q0 84 -90 84zM706 1575q108 0 168 -50q60 -51 60 -147t-76 -169t-184 -73t-168 52t-60 150t76 168t184 69zM502 471q-141 0 -199 -57q-55 -59 -55 -164
q0 -59 43 -85t163 -26t181 64q31 35 49 131l23 137h-205zM580 893q-143 0 -248 -105l-125 103q150 170 391 170q178 0 270 -69t93 -201q0 -66 -19 -175l-111 -616h-163l-9 49q-92 -69 -271 -69t-262 57t-83 182q0 199 93 299t339 100h258l10 60q8 45 9 80q0 135 -172 135z
" />
    <glyph glyph-name="AEacute" unicode="&#x1fc;" horiz-adv-x="1953" 
d="M1384 1606l213 303h242l-297 -303h-158zM965 506l135 778h-15l-626 -778h506zM932 328h-608l-263 -328h-254l1201 1462h1001l-33 -178h-659l-80 -455h561l-33 -178h-561l-82 -473h664l-31 -178h-881z" />
    <glyph glyph-name="aeacute" unicode="&#x1fd;" horiz-adv-x="1703" 
d="M850 1190l213 301h242l-297 -301h-158zM1419 719q0 188 -194 188q-109 0 -186 -74t-93 -210h461q12 51 12 96zM502 471q-141 0 -199 -57q-55 -59 -55 -164q0 -59 43 -85t153 -26t165 48q56 48 77 167l23 117h-207zM596 1061q150 0 242 -68q23 -18 55 -78q75 84 147 115
t191 31q379 0 379 -350q0 -111 -31 -238h-657l-9 -41q-8 -57 -8 -86q0 -203 219 -203q147 0 240 107l135 -113q-72 -84 -162 -121q-90 -36 -225 -36t-215 38t-121 127q-53 -74 -94 -98q-102 -67 -288 -67t-268 57q-83 57 -83 182q0 197 92 298t340 101h258l10 62q8 45 9 78
q0 135 -172 135q-144 -1 -248 -105l-125 105q147 168 389 168z" />
    <glyph glyph-name="Oslashacute" unicode="&#x1fe;" horiz-adv-x="1378" 
d="M760 1606l213 303h241l-296 -303h-158zM806 1305q-163 0 -257 -127q-70 -92 -105 -289l-55 -316q-14 -94 -16 -137l659 785q-63 84 -226 84zM640 158q154 0 240 97q87 97 126 318l57 316q16 92 16 137l-659 -784q66 -84 220 -84zM1303 1094q0 -87 -23 -213l-63 -355
q-29 -160 -67 -246t-114 -157q-152 -143 -395 -143t-362 96l-107 -127l-127 100l135 160q-30 74 -30 159t22 214l61 354q27 158 67 245t116 158q152 143 393 143t365 -96l102 123l127 -100l-131 -156q31 -72 31 -159z" />
    <glyph glyph-name="oslashacute" unicode="&#x1ff;" horiz-adv-x="1142" 
d="M569 1190l213 301h242l-297 -301h-158zM622 893q-110 0 -176 -73t-92 -234l-24 -131q-9 -57 -11 -129l463 516q-50 51 -160 51zM827 715l-465 -516q53 -51 162 -51q108 0 174 72q66 73 95 235l22 131q6 45 12 129zM1036 745q0 -92 -16 -174l-27 -157q-39 -229 -153 -332
q-114 -102 -314 -102t-301 65l-80 -88l-88 78l88 98q-59 109 -20 334l27 160q41 231 154 332q114 101 314 101t300 -65l79 88l88 -77l-88 -99q37 -70 37 -162z" />
    <glyph glyph-name="uni0200" unicode="&#x200;" horiz-adv-x="1245" 
d="M754 1606h-148l-141 303h215zM1059 1606h-146l-143 303h215zM866 483l-116 715l-373 -715h489zM891 305h-598l-156 -305h-243l790 1462h211l274 -1462h-231z" />
    <glyph glyph-name="uni0201" unicode="&#x201;" horiz-adv-x="1081" 
d="M590 1188h-148l-141 303h215zM895 1188h-145l-144 303h215zM492 471q-141 0 -199 -57q-55 -59 -55 -164q0 -59 43 -85t163 -26t181 64q31 35 49 131l22 137h-204zM741 758q0 135 -172 135q-143 0 -247 -105l-125 103q150 170 391 170q178 0 270 -69t92 -201
q0 -66 -18 -175l-111 -616h-164l-8 49q-92 -69 -271 -69t-262 57t-83 182q0 199 93 299t339 100h258l10 60q8 45 8 80z" />
    <glyph glyph-name="uni0202" unicode="&#x202;" horiz-adv-x="1245" 
d="M993 1653q0 106 -153 106q-88 0 -131 -32t-70 -115h-137q20 129 63 186q84 117 279 117q289 0 289 -215q-1 -31 -9 -88h-135q4 25 4 41zM866 483l-116 715l-373 -715h489zM891 305h-598l-156 -305h-243l790 1462h211l274 -1462h-231z" />
    <glyph glyph-name="uni0203" unicode="&#x203;" horiz-adv-x="1081" 
d="M842 1235q0 106 -154 106q-88 1 -131 -31t-70 -116h-137q29 166 106 234t236 69q289 0 289 -215q0 -31 -8 -88h-135q4 23 4 41zM502 471q-141 0 -199 -57q-55 -59 -55 -164q0 -59 43 -85t163 -26t181 64q31 35 49 131l23 137h-205zM580 893q-143 0 -248 -105l-125 103
q150 170 391 170q178 0 270 -69t93 -201q0 -66 -19 -175l-111 -616h-163l-9 49q-92 -69 -271 -69t-262 57t-83 182q0 199 93 299t339 100h258l10 60q8 45 9 80q0 135 -172 135z" />
    <glyph glyph-name="uni0204" unicode="&#x204;" horiz-adv-x="1187" 
d="M772 1606h-147l-142 303h215zM1077 1606h-145l-144 303h216zM94 0l258 1462h877l-31 -178h-661l-80 -455h561l-31 -178h-561l-84 -473h666l-31 -178h-883z" />
    <glyph glyph-name="uni0205" unicode="&#x205;" horiz-adv-x="1118" 
d="M623 1188h-148l-141 303h215zM928 1188h-146l-143 303h215zM817 717q0 190 -190 190q-111 0 -188 -74t-93 -210h461q10 43 10 94zM305 348q0 -205 219 -205q145 0 240 107l135 -111q-74 -88 -163 -124t-230 -35q-408 0 -408 344q0 90 19 184l14 82q45 252 158 362
t329 109q389 0 390 -350q0 -100 -29 -238h-660l-6 -39q-8 -43 -8 -86z" />
    <glyph glyph-name="uni0206" unicode="&#x206;" horiz-adv-x="1187" 
d="M1012 1653q0 106 -154 106q-88 0 -131 -32t-70 -115h-137q20 129 64 186q84 117 278 117q289 0 289 -215q0 -31 -8 -88h-135q4 25 4 41zM106 0l259 1462h876l-31 -178h-661l-80 -455h561l-31 -178h-561l-84 -473h666l-31 -178h-883z" />
    <glyph glyph-name="uni0207" unicode="&#x207;" horiz-adv-x="1118" 
d="M864 1235q0 106 -153 106q-88 1 -131 -31t-70 -116h-137q29 166 105 234t237 69q289 0 289 -215q-1 -31 -9 -88h-135q4 23 4 41zM831 717q0 190 -190 190q-111 0 -188 -74t-93 -210h461q10 43 10 94zM539 143q145 0 239 107l135 -111q-75 -88 -163 -124t-230 -35
q-408 0 -407 344q0 90 18 184l14 82q45 252 158 362t330 109q389 0 389 -350q0 -100 -29 -238h-659l-6 -39q-8 -43 -9 -86q0 -205 220 -205z" />
    <glyph glyph-name="uni0208" unicode="&#x208;" horiz-adv-x="612" 
d="M436 1606h-147l-142 303h215zM741 1606h-145l-143 303h215zM104 0l258 1462h220l-258 -1462h-220z" />
    <glyph glyph-name="uni0209" unicode="&#x209;" horiz-adv-x="540" 
d="M328 1188h-148l-141 303h215zM633 1188h-146l-143 303h215zM74 0l184 1040h207l-182 -1040h-209z" />
    <glyph glyph-name="uni020A" unicode="&#x20a;" horiz-adv-x="612" 
d="M678 1653q0 106 -154 106q-88 0 -131 -32t-69 -115h-138q20 129 64 186q84 117 278 117q289 0 289 -215q0 -31 -8 -88h-135q4 25 4 41zM104 0l258 1462h220l-258 -1462h-220z" />
    <glyph glyph-name="uni020B" unicode="&#x20b;" horiz-adv-x="540" 
d="M569 1235q0 106 -153 106q-88 1 -131 -31t-70 -116h-137q30 166 106 234t236 69q289 0 289 -215q-1 -31 -9 -88h-135q4 23 4 41zM74 0l182 1040h209l-182 -1040h-209z" />
    <glyph glyph-name="uni020C" unicode="&#x20c;" horiz-adv-x="1378" 
d="M821 1606h-147l-142 303h216zM1126 1606h-145l-143 303h215zM373 403q0 -245 260 -245q162 0 249 97t126 318l55 316q20 104 20 170q0 244 -262 244q-176 0 -270 -127q-70 -92 -105 -287l-55 -316q-18 -106 -18 -170zM1305 1085q0 -78 -23 -204l-63 -355
q-29 -160 -67 -246t-114 -157q-152 -143 -404 -143t-368 108q-115 108 -114 285q-1 84 22 209l62 354q29 160 67 247q39 87 115 156q156 143 400 143t365 -102q122 -102 122 -295z" />
    <glyph glyph-name="uni020D" unicode="&#x20d;" horiz-adv-x="1142" 
d="M618 1188h-147l-141 303h215zM924 1188h-146l-143 303h215zM815 707q0 186 -197 186q-120 0 -184 -72t-92 -235l-23 -131q-12 -68 -12 -119q0 -188 197 -189q119 0 183 72t93 236l23 131q12 68 12 121zM1026 737q0 -63 -16 -166l-29 -157q-39 -230 -154 -332t-331 -102
q-399 0 -400 325q1 68 17 162l28 160q41 231 155 332t331 102q399 0 399 -324z" />
    <glyph glyph-name="uni020E" unicode="&#x20e;" horiz-adv-x="1378" 
d="M1063 1653q0 106 -154 106q-88 0 -131 -32t-69 -115h-138q20 129 64 186q84 117 278 117q289 0 289 -215q0 -31 -8 -88h-135q4 25 4 41zM373 403q0 -245 260 -245q162 0 249 97t126 318l55 316q20 104 20 170q0 244 -262 244q-176 0 -270 -127q-70 -92 -105 -287
l-55 -316q-18 -106 -18 -170zM1305 1085q0 -78 -23 -204l-63 -355q-29 -160 -67 -246t-114 -157q-152 -143 -404 -143t-368 108q-115 108 -114 285q-1 84 22 209l62 354q29 160 67 247q39 87 115 156q156 143 400 143t365 -102q122 -102 122 -295z" />
    <glyph glyph-name="uni020F" unicode="&#x20f;" horiz-adv-x="1142" 
d="M870 1235q0 106 -153 106q-88 1 -131 -31t-70 -116h-137q29 166 105 234t237 69q289 0 289 -215q-1 -31 -9 -88h-135q4 23 4 41zM825 707q0 186 -196 186q-119 0 -184 -72t-93 -235l-22 -131q-12 -68 -13 -119q0 -188 197 -189q120 0 184 72t93 236l22 131q12 68 12 121z
M1036 737q0 -63 -16 -166l-29 -157q-39 -229 -153 -332q-115 -102 -332 -102q-399 0 -400 325q1 68 17 162l29 160q41 231 154 332q114 101 331 102q399 0 399 -324z" />
    <glyph glyph-name="uni0210" unicode="&#x210;" horiz-adv-x="1318" 
d="M709 1606h-148l-141 303h215zM1014 1606h-146l-143 303h215zM739 788q152 0 229 84t76 234q0 94 -55 137t-176 43h-283l-88 -498h297zM838 1462q225 0 327 -82t103 -237q0 -117 -36 -225t-99 -173q-92 -100 -238 -110l207 -635h-242l-182 618h-262l-109 -618h-219
l258 1462h492z" />
    <glyph glyph-name="uni0211" unicode="&#x211;" horiz-adv-x="784" 
d="M492 1188h-148l-141 303h215zM797 1188h-146l-143 303h215zM688 1061q92 0 191 -60l-119 -174q-70 55 -133 56q-101 0 -161 -89t-95 -288l-88 -506h-209l182 1040h162l8 -96q58 63 114 90t148 27z" />
    <glyph glyph-name="uni0212" unicode="&#x212;" horiz-adv-x="1318" 
d="M983 1653q0 106 -154 106q-88 0 -131 -32t-69 -115h-137q20 129 63 186q84 117 279 117q289 0 288 -215q0 -31 -8 -88h-135q4 25 4 41zM758 788q152 0 228 84t77 234q0 94 -55 137t-177 43h-282l-88 -498h297zM856 1462q430 0 430 -319q0 -117 -36 -225t-99 -173
q-92 -100 -238 -110l207 -635h-241l-183 618h-262l-108 -618h-220l259 1462h491z" />
    <glyph glyph-name="uni0213" unicode="&#x213;" horiz-adv-x="784" 
d="M741 1235q0 106 -153 106q-88 1 -131 -31t-70 -116h-137q30 166 106 234t236 69q289 0 289 -215q-1 -31 -9 -88h-135q4 23 4 41zM688 1061q92 0 191 -60l-119 -174q-70 55 -133 56q-101 0 -161 -89t-95 -288l-88 -506h-209l182 1040h162l8 -96q58 63 114 90t148 27z" />
    <glyph glyph-name="uni0214" unicode="&#x214;" horiz-adv-x="1406" 
d="M836 1606h-148l-141 303h215zM1141 1606h-146l-143 303h215zM641 158q190 0 285 137q47 72 78 246l163 921h219l-169 -958q-29 -158 -58 -231t-90 -136q-152 -158 -426 -157q-145 0 -235 30t-150 99q-82 94 -82 233q0 78 27 236l155 884h220l-162 -921q-18 -106 -19 -168
q0 -215 244 -215z" />
    <glyph glyph-name="uni0215" unicode="&#x215;" horiz-adv-x="1140" 
d="M612 1188h-147l-141 303h215zM918 1188h-146l-143 303h215zM326 334q0 -176 155 -176q113 0 172 80t95 270l94 532h209l-185 -1040h-143l-8 104q-53 -68 -121 -96t-170 -28q-152 0 -234 72t-81 204q0 88 26 229l96 555h209l-98 -557q-16 -98 -16 -149z" />
    <glyph glyph-name="uni0216" unicode="&#x216;" horiz-adv-x="1406" 
d="M1075 1653q0 106 -153 106q-88 0 -131 -32t-70 -115h-137q20 129 63 186q84 117 279 117q289 0 288 -215q0 -31 -8 -88h-135q4 25 4 41zM641 158q190 0 285 137q47 72 78 246l163 921h219l-169 -958q-29 -158 -58 -231t-90 -136q-152 -158 -426 -157q-145 0 -235 30
t-150 99q-82 94 -82 233q0 78 27 236l155 884h220l-162 -921q-18 -106 -19 -168q0 -215 244 -215z" />
    <glyph glyph-name="uni0217" unicode="&#x217;" horiz-adv-x="1140" 
d="M868 1235q0 106 -153 106q-88 1 -131 -31t-70 -116h-137q29 166 105 234t237 69q289 0 289 -215q-1 -31 -9 -88h-135q4 23 4 41zM342 334q0 -176 156 -176q113 0 172 80t94 270l94 532h209l-184 -1040h-144l-8 104q-53 -68 -121 -96t-170 -28q-152 0 -234 72t-81 204
q0 88 27 229l96 555h209l-99 -557q-16 -98 -16 -149z" />
    <glyph glyph-name="Scommaaccent" unicode="&#x218;" horiz-adv-x="1181" 
d="M225 -469l164 332h203l-223 -332h-144zM866 430q0 90 -55 133q-33 27 -65 37t-198 53q-338 88 -337 355q0 217 141 346t379 129q340 0 438 -203l-182 -106q-72 131 -272 131q-125 0 -205 -74t-80 -191q0 -82 59 -129t198 -84t193 -59q205 -82 205 -304q-1 -222 -151 -353
t-405 -131t-396 90q-78 47 -119 139l189 106q66 -156 323 -155q195 0 281 108q59 72 59 162z" />
    <glyph glyph-name="scommaaccent" unicode="&#x219;" horiz-adv-x="985" 
d="M135 -469l164 332h203l-223 -332h-144zM408 143q118 -1 184 49t65 136q0 55 -45 82q-38 18 -186 38t-216 81q-68 60 -69 180q1 158 103 255t291 97q295 0 387 -182l-162 -88q-72 106 -217 106q-89 0 -143 -45q-54 -44 -54 -110t37 -90t143 -38q190 -25 264 -83t72 -185
q0 -367 -459 -366q-331 0 -415 178l168 94q78 -109 252 -109z" />
    <glyph glyph-name="uni021A" unicode="&#x21a;" horiz-adv-x="1136" 
d="M195 -469l163 332h203l-223 -332h-143zM369 0l225 1284h-410l31 178h1038l-30 -178h-410l-225 -1284h-219z" />
    <glyph glyph-name="uni021B" unicode="&#x21b;" horiz-adv-x="696" 
d="M25 -469l163 332h203l-223 -332h-143zM367 283q1 -63 33 -87t120 -24h33l-31 -172h-30q-188 0 -263 48q-74 48 -73 169q0 76 22 199l80 456h-121l29 168h127l65 318h195l-57 -318h206l-30 -168h-205l-86 -483q-14 -82 -14 -106z" />
    <glyph glyph-name="uni0226" unicode="&#x226;" horiz-adv-x="1245" 
d="M713 1618l41 233h202l-41 -233h-202zM866 483l-116 715l-373 -715h489zM891 305h-598l-156 -305h-243l790 1462h211l274 -1462h-231z" />
    <glyph glyph-name="uni0227" unicode="&#x227;" horiz-adv-x="1081" 
d="M571 1202l41 234h203l-41 -234h-203zM502 471q-141 0 -199 -57q-55 -59 -55 -164q0 -59 43 -85t163 -26t181 64q31 35 49 131l23 137h-205zM580 893q-143 0 -248 -105l-125 103q150 170 391 170q178 0 270 -69t93 -201q0 -66 -19 -175l-111 -616h-163l-9 49
q-92 -69 -271 -69t-262 57t-83 182q0 199 93 299t339 100h258l10 60q8 45 9 80q0 135 -172 135z" />
    <glyph glyph-name="uni0237" unicode="&#x237;" horiz-adv-x="555" 
d="M270 1040h207l-184 -1048q-41 -279 -151 -373t-386 -90l31 172q137 -6 205 57t90 222z" />
    <glyph glyph-name="afii57929" unicode="&#x2bc;" horiz-adv-x="411" 
d="M137 956l160 506h221l-205 -506h-176z" />
    <glyph glyph-name="uni02C0" unicode="&#x2c0;" horiz-adv-x="1024" 
d="M762 1833q0 35 -47 35t-115 -29l-14 117q88 33 168 33q182 0 182 -148q0 -43 -16 -69t-60 -65q-44 -41 -54 -59t-18 -61h-147q14 78 27 104q12 26 53 70t41 72z" />
    <glyph glyph-name="circumflex" unicode="&#x2c6;" horiz-adv-x="1024" 
d="M668 1358l-158 -162h-217l317 289h144l217 -289h-199z" />
    <glyph glyph-name="caron" unicode="&#x2c7;" horiz-adv-x="1024" 
d="M647 1319l158 162h217l-317 -289h-144l-217 289h199z" />
    <glyph glyph-name="uni02C9" unicode="&#x2c9;" horiz-adv-x="1024" 
d="M356 1253l27 150h573l-26 -150h-574z" />
    <glyph glyph-name="breve" unicode="&#x2d8;" horiz-adv-x="1024" 
d="M502 1438q0 -106 153 -107q88 0 132 32t69 116h137q-20 -131 -63 -187q-82 -117 -279 -116q-289 0 -289 215q1 33 9 88h135q-4 -23 -4 -41z" />
    <glyph glyph-name="dotaccent" unicode="&#x2d9;" horiz-adv-x="1024" 
d="M530 1202l41 234h203l-41 -234h-203z" />
    <glyph glyph-name="ring" unicode="&#x2da;" horiz-adv-x="1024" 
d="M684 1509q-57 0 -92 -42t-35 -111q0 -84 90 -84q57 0 92 42t35 111q0 84 -90 84zM682 1610q108 0 168 -50t59 -147q1 -97 -75 -169t-184 -73t-168 51t-60 150t76 168t184 70z" />
    <glyph glyph-name="ogonek" unicode="&#x2db;" horiz-adv-x="1024" 
d="M471 -418q-223 0 -223 159t254 259h170q-123 -70 -177 -124q-55 -54 -55 -113t86 -60q53 0 127 23l2 -111q-90 -33 -184 -33z" />
    <glyph glyph-name="tilde" unicode="&#x2dc;" horiz-adv-x="1024" 
d="M789 1348q33 0 55 24t45 86h131q-45 -123 -70 -162q-62 -100 -162 -100t-163 64t-99 63q-61 0 -106 -113h-129q47 125 74 162q70 102 165 102q94 0 160 -62q66 -64 99 -64z" />
    <glyph glyph-name="hungarumlaut" unicode="&#x2dd;" horiz-adv-x="1024" 
d="M690 1190l180 301h215l-247 -301h-148zM385 1190l180 301h215l-248 -301h-147z" />
    <glyph glyph-name="uni0309" unicode="&#x309;" horiz-adv-x="1024" 
d="M688 1423q0 35 -46 35t-114 -28l-16 116q96 33 166 33q184 0 184 -147q0 -43 -16 -69t-60 -67t-54 -59q-9 -18 -17 -59h-148q15 76 27 102t65 84q29 35 29 59z" />
    <glyph glyph-name="uni0312" unicode="&#x312;" horiz-adv-x="1024" 
d="M512 1190l295 301h158l-213 -301h-240z" />
    <glyph glyph-name="uni0313" unicode="&#x313;" horiz-adv-x="190" 
d="M59 975l150 512h201l-203 -512h-148z" />
    <glyph glyph-name="uni031B" unicode="&#x31b;" horiz-adv-x="190" 
d="M59 975l150 512h201l-203 -512h-148z" />
    <glyph glyph-name="uni0323" unicode="&#x323;" horiz-adv-x="1024" 
d="M246 -410l41 234h202l-40 -234h-203z" />
    <glyph glyph-name="uni037E" unicode="&#x37e;" horiz-adv-x="585" 
d="M256 811l41 231h219l-41 -231h-219zM-59 -385l204 614h234l-252 -614h-186z" />
    <glyph glyph-name="uni0387" unicode="&#x387;" horiz-adv-x="585" 
d="M201 621l41 229h219l-41 -229h-219z" />
    <glyph glyph-name="uni04D4" unicode="&#x4d4;" horiz-adv-x="1953" 
d="M965 506l135 778h-15l-626 -778h506zM932 328h-608l-263 -328h-254l1201 1462h1001l-33 -178h-659l-80 -455h561l-33 -178h-561l-82 -473h664l-31 -178h-881z" />
    <glyph glyph-name="uni04D5" unicode="&#x4d5;" horiz-adv-x="1703" 
d="M1419 719q0 188 -194 188q-109 0 -186 -74t-93 -210h461q12 51 12 96zM502 471q-141 0 -199 -57q-55 -59 -55 -164q0 -59 43 -85t153 -26t165 48q56 48 77 167l23 117h-207zM596 1061q150 0 242 -68q23 -18 55 -78q75 84 147 115t191 31q379 0 379 -350q0 -111 -31 -238
h-657l-9 -41q-8 -57 -8 -86q0 -203 219 -203q147 0 240 107l135 -113q-72 -84 -162 -121q-90 -36 -225 -36t-215 38t-121 127q-53 -74 -94 -98q-102 -67 -288 -67t-268 57q-83 57 -83 182q0 197 92 298t340 101h258l10 62q8 45 9 78q0 135 -172 135q-144 -1 -248 -105
l-125 105q147 168 389 168z" />
    <glyph glyph-name="uni1E02" unicode="&#x1e02;" horiz-adv-x="1306" 
d="M721 1618l41 233h203l-41 -233h-203zM700 176q131 0 193 70q84 90 84 235q0 94 -45 137t-146 44h-348l-86 -486h348zM788 838q129 0 193 65q80 86 80 217q0 88 -45 127t-148 39h-319l-80 -448h319zM887 1462q217 0 307 -81t90 -238q0 -264 -217 -381l16 -14
q49 -44 61 -58t23 -43q29 -70 29 -162q0 -233 -137 -370q-63 -63 -143 -89t-205 -26h-607l258 1462h525z" />
    <glyph glyph-name="uni1E03" unicode="&#x1e03;" horiz-adv-x="1159" 
d="M727 1202l41 234h203l-41 -234h-203zM657 893q-217 0 -264 -279l-35 -188q-8 -66 -8 -94q0 -184 191 -185q113 0 176 73t92 237l22 127q10 66 11 116q0 193 -185 193zM1053 748q0 -80 -17 -179l-26 -153q-40 -232 -144 -334t-280 -102t-258 67q-10 9 -28 31t-28 31
l-34 -109h-162l258 1462h209l-88 -495q63 55 114 74t136 20q348 0 348 -313z" />
    <glyph glyph-name="uni1E0C" unicode="&#x1e0c;" horiz-adv-x="1382" 
d="M371 -410l41 234h202l-41 -234h-202zM1083 1049q0 127 -94 192q-63 45 -215 45h-223l-197 -1110h226q190 -4 290 89t142 315l53 303q18 104 18 166zM815 1462q236 0 342 -80q147 -106 148 -305q0 -68 -23 -203l-59 -339q-80 -541 -611 -535h-508l258 1462h453z" />
    <glyph glyph-name="uni1E0D" unicode="&#x1e0d;" horiz-adv-x="1159" 
d="M342 -410l41 234h203l-41 -234h-203zM811 709q0 184 -188 184q-113 1 -177 -73t-94 -236l-22 -127q-12 -68 -13 -119q0 -190 183 -191q219 0 268 279l33 188q10 66 10 95zM739 0v90q-2 -2 -4 -5t-6 -5q-56 -56 -117 -78q-61 -23 -153 -22q-352 0 -353 313q0 80 19 178
l27 154q41 233 142 334t294 102q127 0 219 -49l55 -45l88 495h209l-258 -1462h-162z" />
    <glyph glyph-name="uni1E1E" unicode="&#x1e1e;" horiz-adv-x="1118" 
d="M731 1618l41 233h203l-41 -233h-203zM106 0l259 1462h868l-33 -178h-649l-82 -465h549l-31 -180h-549l-112 -639h-220z" />
    <glyph glyph-name="uni1E1F" unicode="&#x1e1f;" horiz-adv-x="694" 
d="M508 1618l41 233h203l-41 -233h-203zM272 872h-125l31 168h125l27 160q27 156 98 211q72 55 244 51h127l-27 -153h-61q-94 2 -128 -25t-51 -117l-22 -127h227l-28 -168h-228l-153 -872h-209z" />
    <glyph glyph-name="uni1E24" unicode="&#x1e24;" horiz-adv-x="1392" 
d="M430 -410l41 234h203l-41 -234h-203zM104 0l258 1462h220l-113 -633h561l113 633h219l-258 -1462h-219l114 651h-561l-114 -651h-220z" />
    <glyph glyph-name="uni1E25" unicode="&#x1e25;" horiz-adv-x="1163" 
d="M315 -410l41 234h203l-41 -234h-203zM1036 780q0 -70 -22 -205l-101 -575h-208l102 586q12 66 12 121q0 174 -166 174q-115 0 -179 -79t-95 -255l-96 -547h-209l258 1462h209l-86 -489q62 52 119 69q57 18 137 19q153 0 239 -74t86 -207z" />
    <glyph glyph-name="uni1E44" unicode="&#x1e44;" horiz-adv-x="1470" 
d="M862 1618l41 233h203l-41 -233h-203zM104 0l258 1462h211l461 -1093l193 1093h213l-258 -1462h-211l-461 1094l-193 -1094h-213z" />
    <glyph glyph-name="uni1E45" unicode="&#x1e45;" horiz-adv-x="1163" 
d="M600 1202l41 234h203l-41 -234h-203zM416 1040v-98q104 119 299 119q157 0 239 -73t82 -208q0 -76 -22 -205l-101 -575h-208l100 573q14 84 14 132q0 178 -166 178q-117 0 -180 -80t-96 -271l-94 -532h-209l182 1040h160z" />
    <glyph glyph-name="uni1E5A" unicode="&#x1e5a;" horiz-adv-x="1318" 
d="M420 -410l41 234h203l-41 -234h-203zM758 788q152 0 228 84t77 234q0 94 -55 137t-177 43h-282l-88 -498h297zM856 1462q430 0 430 -319q0 -117 -36 -225t-99 -173q-92 -100 -238 -110l207 -635h-241l-183 618h-262l-108 -618h-220l259 1462h491z" />
    <glyph glyph-name="uni1E5B" unicode="&#x1e5b;" horiz-adv-x="784" 
d="M4 -410l41 234h203l-41 -234h-203zM688 1061q92 0 191 -60l-119 -174q-70 55 -133 56q-101 0 -161 -89t-95 -288l-88 -506h-209l182 1040h162l8 -96q58 63 114 90t148 27z" />
    <glyph glyph-name="uni1E62" unicode="&#x1e62;" horiz-adv-x="1181" 
d="M307 -410l41 234h203l-41 -234h-203zM866 430q0 90 -55 133q-33 27 -65 37t-198 53q-338 88 -337 355q0 217 141 346t379 129q340 0 438 -203l-182 -106q-72 131 -272 131q-125 0 -205 -74t-80 -191q0 -82 59 -129t198 -84t193 -59q205 -82 205 -304q-1 -222 -151 -353
t-405 -131t-396 90q-78 47 -119 139l189 106q66 -156 323 -155q195 0 281 108q59 72 59 162z" />
    <glyph glyph-name="uni1E63" unicode="&#x1e63;" horiz-adv-x="985" 
d="M209 -410l41 234h203l-41 -234h-203zM408 143q118 -1 184 49t65 136q0 55 -45 82q-38 18 -186 38t-216 81q-68 60 -69 180q1 158 103 255t291 97q295 0 387 -182l-162 -88q-72 106 -217 106q-89 0 -143 -45q-54 -44 -54 -110t37 -90t143 -38q190 -25 264 -83t72 -185
q0 -367 -459 -366q-331 0 -415 178l168 94q78 -109 252 -109z" />
    <glyph glyph-name="uni1E6C" unicode="&#x1e6c;" horiz-adv-x="1136" 
d="M301 -410l41 234h203l-41 -234h-203zM369 0l225 1284h-410l31 178h1038l-30 -178h-410l-225 -1284h-219z" />
    <glyph glyph-name="uni1E6D" unicode="&#x1e6d;" horiz-adv-x="696" 
d="M82 -410l41 234h203l-41 -234h-203zM367 268q1 -48 33 -72t118 -24h33l-31 -172h-31q-186 0 -260 48t-73 169q0 72 20 199l82 456h-123l31 168h125l67 318h193l-55 -318h204l-28 -168h-207l-84 -483q-14 -73 -14 -121z" />
    <glyph glyph-name="Wgrave" unicode="&#x1e80;" horiz-adv-x="1832" 
d="M1233 1606h-152l-192 303h231zM330 0l-113 1462h215l53 -1149l512 1149h162l105 -1149l460 1149h226l-629 -1462h-191l-110 1100l-498 -1100h-192z" />
    <glyph glyph-name="wgrave" unicode="&#x1e81;" horiz-adv-x="1587" 
d="M1036 1188h-151l-193 303h232zM289 0l-131 1040h207l63 -780l379 780h145l103 -780l340 780h217l-498 -1040h-174l-111 723l-366 -723h-174z" />
    <glyph glyph-name="Wacute" unicode="&#x1e82;" horiz-adv-x="1832" 
d="M987 1606l213 303h242l-297 -303h-158zM330 0l-113 1462h215l53 -1149l512 1149h162l105 -1149l460 1149h226l-629 -1462h-191l-110 1100l-498 -1100h-192z" />
    <glyph glyph-name="wacute" unicode="&#x1e83;" horiz-adv-x="1587" 
d="M791 1190l213 301h241l-297 -301h-157zM289 0l-131 1040h207l63 -780l379 780h145l103 -780l340 780h217l-498 -1040h-174l-111 723l-366 -723h-174z" />
    <glyph glyph-name="Wdieresis" unicode="&#x1e84;" horiz-adv-x="1832" 
d="M1206 1618l41 233h187l-41 -233h-187zM801 1618l41 233h186l-41 -233h-186zM330 0l-113 1462h215l53 -1149l512 1149h162l105 -1149l460 1149h226l-629 -1462h-191l-110 1100l-498 -1100h-192z" />
    <glyph glyph-name="wdieresis" unicode="&#x1e85;" horiz-adv-x="1587" 
d="M1008 1202l41 234h186l-41 -234h-186zM608 1202l41 234h189l-43 -234h-187zM289 0l-131 1040h207l63 -780l379 780h145l103 -780l340 780h217l-498 -1040h-174l-111 723l-366 -723h-174z" />
    <glyph glyph-name="uni1E92" unicode="&#x1e92;" horiz-adv-x="1132" 
d="M317 -410l41 234h203l-41 -234h-203zM14 0l27 147l842 1137h-609l33 178h856l-24 -147l-842 -1137h672l-33 -178h-922z" />
    <glyph glyph-name="uni1E93" unicode="&#x1e93;" horiz-adv-x="978" 
d="M236 -410l40 234h203l-41 -234h-202zM-8 0l22 131l625 741h-455l31 168h713l-25 -131l-622 -741h524l-29 -168h-784z" />
    <glyph glyph-name="uni1EA0" unicode="&#x1ea0;" horiz-adv-x="1245" 
d="M377 -410l41 234h203l-41 -234h-203zM866 483l-116 715l-373 -715h489zM891 305h-598l-156 -305h-243l790 1462h211l274 -1462h-231z" />
    <glyph glyph-name="uni1EA1" unicode="&#x1ea1;" horiz-adv-x="1081" 
d="M276 -410l41 234h203l-41 -234h-203zM502 471q-141 0 -199 -57q-55 -59 -55 -164q0 -59 43 -85t163 -26t181 64q31 35 49 131l23 137h-205zM580 893q-143 0 -248 -105l-125 103q150 170 391 170q178 0 270 -69t93 -201q0 -66 -19 -175l-111 -616h-163l-9 49
q-92 -69 -271 -69t-262 57t-83 182q0 199 93 299t339 100h258l10 60q8 45 9 80q0 135 -172 135z" />
    <glyph glyph-name="uni1EA2" unicode="&#x1ea2;" horiz-adv-x="1245" 
d="M850 1833q0 35 -47 35t-115 -29l-14 117q88 33 168 33q182 0 182 -148q0 -43 -16 -69t-60 -65q-44 -41 -54 -59q-9 -18 -17 -61h-148q14 78 27 104q12 26 65 83q29 35 29 59zM866 483l-116 715l-373 -715h489zM891 305h-598l-156 -305h-243l790 1462h211l274 -1462h-231z
" />
    <glyph glyph-name="uni1EA3" unicode="&#x1ea3;" horiz-adv-x="1081" 
d="M723 1423q0 35 -46 35t-116 -28l-14 116q94 33 166 33q184 0 184 -145q0 -45 -16 -72t-76 -80q-29 -29 -38 -45t-17 -59h-148q14 76 26 102t66 84q29 35 29 59zM502 471q-141 0 -199 -57q-55 -59 -55 -164q0 -59 43 -85t163 -26t181 64q31 35 49 131l23 137h-205z
M580 893q-143 0 -248 -105l-125 103q150 170 391 170q178 0 270 -69t93 -201q0 -66 -19 -175l-111 -616h-163l-9 49q-92 -69 -271 -69t-262 57t-83 182q0 199 93 299t339 100h258l10 60q8 45 9 80q0 135 -172 135z" />
    <glyph glyph-name="uni1EA4" unicode="&#x1ea4;" horiz-adv-x="1245" 
d="M831 1673l-147 -114h-205l299 233h135l217 -233h-190zM772 1847l162 236h180l-221 -236h-121zM866 483l-116 715l-373 -715h489zM891 305h-598l-156 -305h-243l790 1462h211l274 -1462h-231z" />
    <glyph glyph-name="uni1EA5" unicode="&#x1ea5;" horiz-adv-x="1083" 
d="M680 1255l-148 -112h-206l299 231h135l217 -231h-191zM621 1430l159 235h183l-224 -235h-118zM502 471q-141 0 -199 -57q-55 -59 -55 -164q0 -59 43 -85t163 -26t181 64q31 35 49 131l23 137h-205zM580 893q-143 0 -248 -105l-125 103q150 170 391 170q178 0 270 -69
t93 -201q0 -66 -19 -175l-111 -616h-163l-9 49q-92 -69 -271 -69t-262 57t-83 182q0 199 93 299t339 100h258l10 60q8 45 9 80q0 135 -172 135z" />
    <glyph glyph-name="uni1EA6" unicode="&#x1ea6;" horiz-adv-x="1245" 
d="M831 1673l-147 -114h-205l299 233h135l217 -233h-190zM924 1847h-109l-149 236h165zM866 483l-116 715l-373 -715h489zM891 305h-598l-156 -305h-243l790 1462h211l274 -1462h-231z" />
    <glyph glyph-name="uni1EA7" unicode="&#x1ea7;" horiz-adv-x="1083" 
d="M680 1255l-148 -112h-206l299 231h135l217 -231h-191zM770 1430h-108l-150 235h168zM502 471q-141 0 -199 -57q-55 -59 -55 -164q0 -59 43 -85t163 -26t181 64q31 35 49 131l23 137h-205zM580 893q-143 0 -248 -105l-125 103q150 170 391 170q178 0 270 -69t93 -201
q0 -66 -19 -175l-111 -616h-163l-9 49q-92 -69 -271 -69t-262 57t-83 182q0 199 93 299t339 100h258l10 60q8 45 9 80q0 135 -172 135z" />
    <glyph glyph-name="uni1EA8" unicode="&#x1ea8;" horiz-adv-x="1245" 
d="M827 1669l-147 -110h-205l297 219h135l219 -219h-190zM872 1974q0 29 -38 29t-93 -25l-16 93q78 29 149 28q147 0 148 -106q0 -31 -14 -54t-54 -55t-45 -76h-129q8 49 21 73q12 24 51 58q20 20 20 35zM866 483l-116 715l-373 -715h489zM891 305h-598l-156 -305h-243
l790 1462h211l274 -1462h-231z" />
    <glyph glyph-name="uni1EA9" unicode="&#x1ea9;" horiz-adv-x="1083" 
d="M674 1251l-146 -108h-206l296 217h136l221 -217h-193zM684 1583q-37 0 -96 -22l-17 94q78 27 152 26q147 0 147 -106q0 -55 -69 -109q-37 -28 -43 -75h-129q4 43 18 67q13 24 43 54q30 28 31 44q0 27 -37 27zM502 471q-141 0 -199 -57q-55 -59 -55 -164q0 -59 43 -85
t163 -26t181 64q31 35 49 131l23 137h-205zM580 893q-143 0 -248 -105l-125 103q150 170 391 170q178 0 270 -69t93 -201q0 -66 -19 -175l-111 -616h-163l-9 49q-92 -69 -271 -69t-262 57t-83 182q0 199 93 299t339 100h258l10 60q8 45 9 80q0 135 -172 135z" />
    <glyph glyph-name="uni1EAA" unicode="&#x1eaa;" horiz-adv-x="1245" 
d="M838 1673l-146 -114h-207l299 233h136l217 -233h-191zM786 2083q74 0 123 -55l50 -50q9 -8 29 -8q37 0 75 98h113q-47 -131 -87 -175t-113 -44t-130 60q-35 37 -45 45t-27 8q-51 0 -92 -98h-111q49 127 95 173t120 46zM866 483l-116 715l-373 -715h489zM891 305h-598
l-156 -305h-243l790 1462h211l274 -1462h-231z" />
    <glyph glyph-name="uni1EAB" unicode="&#x1eab;" horiz-adv-x="1081" 
d="M686 1255l-147 -112h-207l299 231h135l219 -231h-192zM632 1665q73 0 118 -48t55 -56t24 -9q47 0 80 99h113q-45 -129 -86 -174t-114 -45t-119 48t-56 56t-24 8q-56 0 -93 -98h-112q51 127 96 173t118 46zM502 471q-141 0 -199 -57q-55 -59 -55 -164q0 -59 43 -85
t163 -26t181 64q31 35 49 131l23 137h-205zM580 893q-143 0 -248 -105l-125 103q150 170 391 170q178 0 270 -69t93 -201q0 -66 -19 -175l-111 -616h-163l-9 49q-92 -69 -271 -69t-262 57t-83 182q0 199 93 299t339 100h258l10 60q8 45 9 80q0 135 -172 135z" />
    <glyph glyph-name="uni1EAC" unicode="&#x1eac;" horiz-adv-x="1245" 
d="M367 -410l41 234h202l-41 -234h-202zM842 1776l-160 -164h-217l317 291h144l217 -291h-199zM866 483l-116 715l-373 -715h489zM891 305h-598l-156 -305h-243l790 1462h211l274 -1462h-231z" />
    <glyph glyph-name="uni1EAD" unicode="&#x1ead;" horiz-adv-x="1081" 
d="M283 -410l41 234h202l-41 -234h-202zM694 1358l-159 -162h-216l318 289h143l215 -289h-196zM502 471q-141 0 -199 -57q-55 -59 -55 -164q0 -59 43 -85t163 -26t181 64q31 35 49 131l23 137h-205zM580 893q-143 0 -248 -105l-125 103q150 170 391 170q178 0 270 -69
t93 -201q0 -66 -19 -175l-111 -616h-163l-9 49q-92 -69 -271 -69t-262 57t-83 182q0 199 93 299t339 100h258l10 60q8 45 9 80q0 135 -172 135z" />
    <glyph glyph-name="uni1EAE" unicode="&#x1eae;" horiz-adv-x="1245" 
d="M680 1800q0 -104 149 -104q84 0 127 30t66 101h139q-27 -150 -105 -212t-237 -63q-274 0 -274 187q0 29 8 88h129q-2 -12 -2 -27zM772 1847l162 236h180l-221 -236h-121zM866 483l-116 715l-373 -715h489zM891 305h-598l-156 -305h-243l790 1462h211l274 -1462h-231z" />
    <glyph glyph-name="uni1EAF" unicode="&#x1eaf;" horiz-adv-x="1083" 
d="M528 1380q0 -102 150 -102q84 0 127 30t63 101h140q-27 -150 -104 -212t-236 -62q-274 0 -275 184q0 16 6 90h131q-2 -16 -2 -29zM621 1430l159 235h183l-224 -235h-118zM502 471q-141 0 -199 -57q-55 -59 -55 -164q0 -59 43 -85t163 -26t181 64q31 35 49 131l23 137
h-205zM580 893q-143 0 -248 -105l-125 103q150 170 391 170q178 0 270 -69t93 -201q0 -66 -19 -175l-111 -616h-163l-9 49q-92 -69 -271 -69t-262 57t-83 182q0 199 93 299t339 100h258l10 60q8 45 9 80q0 135 -172 135z" />
    <glyph glyph-name="uni1EB0" unicode="&#x1eb0;" horiz-adv-x="1245" 
d="M680 1800q0 -104 149 -104q84 0 127 30t66 101h139q-27 -150 -105 -212t-237 -63q-274 0 -274 187q0 29 8 88h129q-2 -12 -2 -27zM932 1847h-109l-149 236h166zM866 483l-116 715l-373 -715h489zM891 305h-598l-156 -305h-243l790 1462h211l274 -1462h-231z" />
    <glyph glyph-name="uni1EB1" unicode="&#x1eb1;" horiz-adv-x="1083" 
d="M528 1380q0 -102 150 -102q84 0 127 30t63 101h140q-27 -150 -104 -212t-236 -62q-274 0 -275 184q0 16 6 90h131q-2 -16 -2 -29zM778 1430h-108l-150 235h168zM502 471q-141 0 -199 -57q-55 -59 -55 -164q0 -59 43 -85t163 -26t181 64q31 35 49 131l23 137h-205z
M580 893q-143 0 -248 -105l-125 103q150 170 391 170q178 0 270 -69t93 -201q0 -66 -19 -175l-111 -616h-163l-9 49q-92 -69 -271 -69t-262 57t-83 182q0 199 93 299t339 100h258l10 60q8 45 9 80q0 135 -172 135z" />
    <glyph glyph-name="uni1EB2" unicode="&#x1eb2;" horiz-adv-x="1245" 
d="M680 1800q0 -104 149 -104q84 0 127 30t66 101h139q-27 -150 -105 -212t-237 -63q-274 0 -274 187q0 29 8 88h129q-2 -12 -2 -27zM877 1974q0 29 -38 29t-98 -25l-14 93q80 29 147 28q150 0 150 -110q0 -35 -12 -53t-54 -56q-42 -37 -51 -84h-127q8 49 21 74q12 26 44 56
t32 48zM866 483l-116 715l-373 -715h489zM891 305h-598l-156 -305h-243l790 1462h211l274 -1462h-231z" />
    <glyph glyph-name="uni1EB3" unicode="&#x1eb3;" horiz-adv-x="1083" 
d="M528 1380q0 -102 150 -102q84 0 127 30t63 101h140q-27 -150 -104 -212t-236 -62q-274 0 -275 184q0 16 6 90h131q-2 -16 -2 -29zM686 1583q-37 0 -96 -22l-17 94q78 27 150 26q147 0 147 -110q0 -33 -12 -52t-53 -55t-49 -86h-129q6 47 19 72t54 66q23 18 23 42t-37 25z
M502 471q-141 0 -199 -57q-55 -59 -55 -164q0 -59 43 -85t163 -26t181 64q31 35 49 131l23 137h-205zM580 893q-143 0 -248 -105l-125 103q150 170 391 170q178 0 270 -69t93 -201q0 -66 -19 -175l-111 -616h-163l-9 49q-92 -69 -271 -69t-262 57t-83 182q0 199 93 299
t339 100h258l10 60q8 45 9 80q0 135 -172 135z" />
    <glyph glyph-name="uni1EB4" unicode="&#x1eb4;" horiz-adv-x="1245" 
d="M666 1782q0 -96 149 -96q82 0 124 26t65 94h129q-25 -111 -62 -157q-78 -96 -270 -97q-264 0 -264 179q0 32 8 75h123q-2 -12 -2 -24zM777 2093q73 0 120 -48t56 -56t24 -9q47 0 80 99h112q-45 -129 -86 -174t-113 -45t-119 48q-46 48 -56 56t-25 8q-53 0 -92 -98h-113
q49 127 94 173t118 46zM866 483l-116 715l-373 -715h489zM891 305h-598l-156 -305h-243l790 1462h211l274 -1462h-231z" />
    <glyph glyph-name="uni1EB5" unicode="&#x1eb5;" horiz-adv-x="1081" 
d="M512 1364q0 -94 150 -94q84 0 126 26t62 95h129q-25 -111 -61 -158q-78 -96 -271 -96q-264 0 -264 178q0 29 8 76h123q-2 -12 -2 -27zM626 1677q73 0 119 -48t55 -56t23 -8q47 0 80 98h113q-37 -104 -58 -139q-53 -82 -134 -82t-126 48t-55 56t-27 8q-53 0 -92 -98h-112
q49 127 95 174t119 47zM502 471q-141 0 -199 -57q-55 -59 -55 -164q0 -59 43 -85t163 -26t181 64q31 35 49 131l23 137h-205zM580 893q-143 0 -248 -105l-125 103q150 170 391 170q178 0 270 -69t93 -201q0 -66 -19 -175l-111 -616h-163l-9 49q-92 -69 -271 -69t-262 57
t-83 182q0 199 93 299t339 100h258l10 60q8 45 9 80q0 135 -172 135z" />
    <glyph glyph-name="uni1EB6" unicode="&#x1eb6;" horiz-adv-x="1245" 
d="M367 -410l41 234h202l-41 -234h-202zM674 1855q0 -109 153 -108q88 0 132 32t69 115h137q-20 -129 -63 -186q-84 -115 -279 -115q-289 0 -288 215q0 31 8 86h135q-4 -23 -4 -39zM866 483l-116 715l-373 -715h489zM891 305h-598l-156 -305h-243l790 1462h211l274 -1462
h-231z" />
    <glyph glyph-name="uni1EB7" unicode="&#x1eb7;" horiz-adv-x="1081" 
d="M281 -410l41 234h202l-41 -234h-202zM522 1438q0 -106 154 -107q88 0 131 32t67 116h140q-25 -129 -64 -187q-86 -117 -278 -116q-289 0 -289 215q0 31 8 88h135q-4 -29 -4 -41zM502 471q-141 0 -199 -57q-55 -59 -55 -164q0 -59 43 -85t163 -26t181 64q31 35 49 131
l23 137h-205zM580 893q-143 0 -248 -105l-125 103q150 170 391 170q178 0 270 -69t93 -201q0 -66 -19 -175l-111 -616h-163l-9 49q-92 -69 -271 -69t-262 57t-83 182q0 199 93 299t339 100h258l10 60q8 45 9 80q0 135 -172 135z" />
    <glyph glyph-name="uni1EB8" unicode="&#x1eb8;" horiz-adv-x="1187" 
d="M422 -410l41 234h205l-41 -234h-205zM106 0l259 1462h876l-31 -178h-661l-80 -455h561l-31 -178h-561l-84 -473h666l-31 -178h-883z" />
    <glyph glyph-name="uni1EB9" unicode="&#x1eb9;" horiz-adv-x="1118" 
d="M319 -410l41 234h203l-41 -234h-203zM831 717q0 190 -190 190q-111 0 -188 -74t-93 -210h461q10 43 10 94zM539 143q145 0 239 107l135 -111q-75 -88 -163 -124t-230 -35q-408 0 -407 344q0 90 18 184l14 82q45 252 158 362t330 109q389 0 389 -350q0 -100 -29 -238h-659
l-6 -39q-8 -43 -9 -86q0 -205 220 -205z" />
    <glyph glyph-name="uni1EBA" unicode="&#x1eba;" horiz-adv-x="1187" 
d="M883 1833q0 35 -47 35t-113 -29l-16 117q90 33 167 33q182 0 183 -148q1 -43 -15 -69t-75 -78q-29 -30 -39 -48t-19 -59h-147q16 78 29 105q12 27 63 82q29 35 29 59zM106 0l259 1462h876l-31 -178h-661l-80 -455h561l-31 -178h-561l-84 -473h666l-31 -178h-883z" />
    <glyph glyph-name="uni1EBB" unicode="&#x1ebb;" horiz-adv-x="1118" 
d="M731 1423q0 35 -46 35t-114 -28l-16 116q96 33 168 33q182 0 182 -147q0 -43 -16 -70q-15 -27 -59 -66t-53 -57t-19 -61h-148q14 76 28 102t53 73q40 46 40 70zM831 717q0 190 -190 190q-111 0 -188 -74t-93 -210h461q10 43 10 94zM539 143q145 0 239 107l135 -111
q-75 -88 -163 -124t-230 -35q-408 0 -407 344q0 90 18 184l14 82q45 252 158 362t330 109q389 0 389 -350q0 -100 -29 -238h-659l-6 -39q-8 -43 -9 -86q0 -205 220 -205z" />
    <glyph glyph-name="uni1EBC" unicode="&#x1ebc;" horiz-adv-x="1187" 
d="M705 1892q83 0 149 -63t98 -63t56 25q23 26 45 85h131q-47 -125 -70 -162q-62 -100 -162 -100t-164 63t-98 64q-63 0 -106 -113h-129q47 123 73 162q68 102 177 102zM106 0l259 1462h876l-31 -178h-661l-80 -455h561l-31 -178h-561l-84 -473h666l-31 -178h-883z" />
    <glyph glyph-name="uni1EBD" unicode="&#x1ebd;" horiz-adv-x="1118" 
d="M838 1348q32 0 54 24t46 86h131q-45 -123 -70 -162q-61 -100 -161 -100t-164 64q-63 64 -99 63q-61 0 -106 -113h-129q47 125 74 162q70 102 165 102t161 -62q66 -64 98 -64zM831 717q0 190 -190 190q-111 0 -188 -74t-93 -210h461q10 43 10 94zM539 143q145 0 239 107
l135 -111q-75 -88 -163 -124t-230 -35q-408 0 -407 344q0 90 18 184l14 82q45 252 158 362t330 109q389 0 389 -350q0 -100 -29 -238h-659l-6 -39q-8 -43 -9 -86q0 -205 220 -205z" />
    <glyph glyph-name="uni1EBE" unicode="&#x1ebe;" horiz-adv-x="1187" 
d="M831 1673l-147 -114h-207l299 233h135l219 -233h-192zM772 1847l160 236h182l-223 -236h-119zM106 0l259 1462h876l-31 -178h-661l-80 -455h561l-31 -178h-561l-84 -473h666l-31 -178h-883z" />
    <glyph glyph-name="uni1EBF" unicode="&#x1ebf;" horiz-adv-x="1118" 
d="M696 1255l-147 -112h-205l299 231h135l217 -231h-190zM637 1430l162 235h180l-221 -235h-121zM831 717q0 190 -190 190q-111 0 -188 -74t-93 -210h461q10 43 10 94zM539 143q145 0 239 107l135 -111q-75 -88 -163 -124t-230 -35q-408 0 -407 344q0 90 18 184l14 82
q45 252 158 362t330 109q389 0 389 -350q0 -100 -29 -238h-659l-6 -39q-8 -43 -9 -86q0 -205 220 -205z" />
    <glyph glyph-name="uni1EC0" unicode="&#x1ec0;" horiz-adv-x="1187" 
d="M831 1673l-147 -114h-205l299 233h135l217 -233h-190zM924 1847h-109l-149 236h165zM106 0l259 1462h876l-31 -178h-661l-80 -455h561l-31 -178h-561l-84 -473h666l-31 -178h-883z" />
    <glyph glyph-name="uni1EC1" unicode="&#x1ec1;" horiz-adv-x="1118" 
d="M696 1255l-147 -112h-205l299 231h135l217 -231h-190zM788 1430h-108l-150 235h166zM831 717q0 190 -190 190q-111 0 -188 -74t-93 -210h461q10 43 10 94zM539 143q145 0 239 107l135 -111q-75 -88 -163 -124t-230 -35q-408 0 -407 344q0 90 18 184l14 82q45 252 158 362
t330 109q389 0 389 -350q0 -100 -29 -238h-659l-6 -39q-8 -43 -9 -86q0 -205 220 -205z" />
    <glyph glyph-name="uni1EC2" unicode="&#x1ec2;" horiz-adv-x="1187" 
d="M827 1669l-147 -110h-205l297 219h135l219 -219h-190zM872 1974q0 29 -38 29t-93 -25l-16 93q78 29 149 28q147 0 148 -106q0 -31 -14 -54t-54 -55t-45 -76h-129q6 47 20 72q13 25 52 59q20 20 20 35zM106 0l259 1462h876l-31 -178h-661l-80 -455h561l-31 -178h-561
l-84 -473h666l-31 -178h-883z" />
    <glyph glyph-name="uni1EC3" unicode="&#x1ec3;" horiz-adv-x="1118" 
d="M692 1251l-147 -108h-205l297 217h135l219 -217h-190zM737 1556q0 27 -36 27t-95 -22l-16 94q78 27 151 26q145 0 146 -106q0 -55 -70 -109q-37 -30 -43 -75h-129q5 45 19 69t44 52t29 44zM831 717q0 190 -190 190q-111 0 -188 -74t-93 -210h461q10 43 10 94zM539 143
q145 0 239 107l135 -111q-75 -88 -163 -124t-230 -35q-408 0 -407 344q0 90 18 184l14 82q45 252 158 362t330 109q389 0 389 -350q0 -100 -29 -238h-659l-6 -39q-8 -43 -9 -86q0 -205 220 -205z" />
    <glyph glyph-name="uni1EC4" unicode="&#x1ec4;" horiz-adv-x="1187" 
d="M838 1673l-146 -114h-207l299 233h136l217 -233h-191zM786 2083q74 0 123 -55l50 -50q9 -8 29 -8q37 0 75 98h113q-47 -131 -87 -175t-113 -44t-130 60q-35 37 -45 45t-27 8q-51 0 -92 -98h-111q49 127 95 173t120 46zM106 0l259 1462h876l-31 -178h-661l-80 -455h561
l-31 -178h-561l-84 -473h666l-31 -178h-883z" />
    <glyph glyph-name="uni1EC5" unicode="&#x1ec5;" horiz-adv-x="1118" 
d="M702 1255l-145 -112h-207l299 231h135l217 -231h-190zM648 1665q73 0 118 -48t56 -56t26 -9q45 0 80 99h112q-47 -131 -87 -175q-41 -44 -113 -44t-117 48t-56 56t-28 8q-49 0 -92 -98h-111q49 127 94 173t118 46zM831 717q0 190 -190 190q-111 0 -188 -74t-93 -210h461
q10 43 10 94zM539 143q145 0 239 107l135 -111q-75 -88 -163 -124t-230 -35q-408 0 -407 344q0 90 18 184l14 82q45 252 158 362t330 109q389 0 389 -350q0 -100 -29 -238h-659l-6 -39q-8 -43 -9 -86q0 -205 220 -205z" />
    <glyph glyph-name="uni1EC6" unicode="&#x1ec6;" horiz-adv-x="1187" 
d="M416 -410l41 234h202l-41 -234h-202zM854 1776l-160 -164h-217l318 291h143l217 -291h-197zM106 0l259 1462h876l-31 -178h-661l-80 -455h561l-31 -178h-561l-84 -473h666l-31 -178h-883z" />
    <glyph glyph-name="uni1EC7" unicode="&#x1ec7;" horiz-adv-x="1118" 
d="M309 -410l41 234h203l-41 -234h-203zM723 1358l-160 -162h-217l320 289h143l215 -289h-197zM831 717q0 190 -190 190q-111 0 -188 -74t-93 -210h461q10 43 10 94zM539 143q145 0 239 107l135 -111q-75 -88 -163 -124t-230 -35q-408 0 -407 344q0 90 18 184l14 82
q45 252 158 362t330 109q389 0 389 -350q0 -100 -29 -238h-659l-6 -39q-8 -43 -9 -86q0 -205 220 -205z" />
    <glyph glyph-name="uni1EC8" unicode="&#x1ec8;" horiz-adv-x="612" 
d="M549 1833q0 35 -44 35t-116 -29l-16 117q88 33 168 33q182 0 182 -148q0 -43 -16 -69t-76 -78q-29 -30 -39 -48t-17 -59h-147q14 76 27 103q12 27 65 84q29 35 29 59zM104 0l258 1462h220l-258 -1462h-220z" />
    <glyph glyph-name="uni1EC9" unicode="&#x1ec9;" horiz-adv-x="540" 
d="M396 1458q-46 0 -115 -28l-15 116q96 33 166 33q184 0 184 -147q0 -43 -16 -69t-60 -67t-54 -59q-9 -18 -17 -59h-147q14 76 26 102t66 84q29 35 28 59q0 35 -46 35zM74 0l182 1040h209l-182 -1040h-209z" />
    <glyph glyph-name="uni1ECA" unicode="&#x1eca;" horiz-adv-x="612" 
d="M39 -410l41 234h203l-41 -234h-203zM104 0l258 1462h220l-258 -1462h-220z" />
    <glyph glyph-name="uni1ECB" unicode="&#x1ecb;" horiz-adv-x="540" 
d="M4 -410l41 234h203l-41 -234h-203zM74 0l184 1040h209l-184 -1040h-209zM293 1233l41 240h209l-41 -240h-209z" />
    <glyph glyph-name="uni1ECC" unicode="&#x1ecc;" horiz-adv-x="1378" 
d="M424 -410l41 234h203l-41 -234h-203zM373 403q0 -245 260 -245q162 0 249 97t126 318l55 316q20 104 20 170q0 244 -262 244q-176 0 -270 -127q-70 -92 -105 -287l-55 -316q-18 -106 -18 -170zM1305 1085q0 -78 -23 -204l-63 -355q-29 -160 -67 -246t-114 -157
q-152 -143 -404 -143t-368 108q-115 108 -114 285q-1 84 22 209l62 354q29 160 67 247q39 87 115 156q156 143 400 143t365 -102q122 -102 122 -295z" />
    <glyph glyph-name="uni1ECD" unicode="&#x1ecd;" horiz-adv-x="1142" 
d="M305 -410l41 234h203l-41 -234h-203zM825 707q0 186 -196 186q-119 0 -184 -72t-93 -235l-22 -131q-12 -68 -13 -119q0 -188 197 -189q120 0 184 72t93 236l22 131q12 68 12 121zM1036 737q0 -63 -16 -166l-29 -157q-39 -229 -153 -332q-115 -102 -332 -102
q-399 0 -400 325q1 68 17 162l29 160q41 231 154 332q114 101 331 102q399 0 399 -324z" />
    <glyph glyph-name="uni1ECE" unicode="&#x1ece;" horiz-adv-x="1378" 
d="M934 1833q0 35 -47 35t-115 -29l-14 117q96 33 168 33q182 0 182 -148q0 -43 -16 -69t-60 -65q-44 -41 -54 -59q-9 -18 -17 -61h-148q14 78 27 105q12 27 53 70t41 71zM373 403q0 -245 260 -245q162 0 249 97t126 318l55 316q20 104 20 170q0 244 -262 244
q-176 0 -270 -127q-70 -92 -105 -287l-55 -316q-18 -106 -18 -170zM1305 1085q0 -78 -23 -204l-63 -355q-29 -160 -67 -246t-114 -157q-152 -143 -404 -143t-368 108q-115 108 -114 285q-1 84 22 209l62 354q29 160 67 247q39 87 115 156q156 143 400 143t365 -102
q122 -102 122 -295z" />
    <glyph glyph-name="uni1ECF" unicode="&#x1ecf;" horiz-adv-x="1142" 
d="M695 1458q-46 0 -113 -28l-15 116q96 33 166 33q182 0 182 -147q0 -43 -15 -69q-16 -26 -60 -66t-53 -58t-17 -61h-147q14 76 26 102q13 26 53 71q40 44 39 72q0 35 -46 35zM825 707q0 186 -196 186q-119 0 -184 -72t-93 -235l-22 -131q-12 -68 -13 -119q0 -188 197 -189
q120 0 184 72t93 236l22 131q12 68 12 121zM1036 737q0 -63 -16 -166l-29 -157q-39 -229 -153 -332q-115 -102 -332 -102q-399 0 -400 325q1 68 17 162l29 160q41 231 154 332q114 101 331 102q399 0 399 -324z" />
    <glyph glyph-name="uni1ED0" unicode="&#x1ed0;" horiz-adv-x="1378" 
d="M901 1673l-147 -114h-205l297 233h137l217 -233h-192zM842 1847l159 236h183l-223 -236h-119zM373 403q0 -245 260 -245q162 0 249 97t126 318l55 316q20 104 20 170q0 244 -262 244q-176 0 -270 -127q-70 -92 -105 -287l-55 -316q-18 -106 -18 -170zM1305 1085
q0 -78 -23 -204l-63 -355q-29 -160 -67 -246t-114 -157q-152 -143 -404 -143t-368 108q-115 108 -114 285q-1 84 22 209l62 354q29 160 67 247q39 87 115 156q156 143 400 143t365 -102q122 -102 122 -295z" />
    <glyph glyph-name="uni1ED1" unicode="&#x1ed1;" horiz-adv-x="1142" 
d="M709 1255l-148 -112h-207l299 231h135l220 -231h-193zM649 1430l160 235h182l-223 -235h-119zM825 707q0 186 -196 186q-119 0 -184 -72t-93 -235l-22 -131q-12 -68 -13 -119q0 -188 197 -189q120 0 184 72t93 236l22 131q12 68 12 121zM1036 737q0 -63 -16 -166
l-29 -157q-39 -229 -153 -332q-115 -102 -332 -102q-399 0 -400 325q1 68 17 162l29 160q41 231 154 332q114 101 331 102q399 0 399 -324z" />
    <glyph glyph-name="uni1ED2" unicode="&#x1ed2;" horiz-adv-x="1378" 
d="M901 1673l-147 -114h-207l301 233h135l217 -233h-192zM993 1847h-108l-150 236h166zM373 403q0 -245 260 -245q162 0 249 97t126 318l55 316q20 104 20 170q0 244 -262 244q-176 0 -270 -127q-70 -92 -105 -287l-55 -316q-18 -106 -18 -170zM1305 1085q0 -78 -23 -204
l-63 -355q-29 -160 -67 -246t-114 -157q-152 -143 -404 -143t-368 108q-115 108 -114 285q-1 84 22 209l62 354q29 160 67 247q39 87 115 156q156 143 400 143t365 -102q122 -102 122 -295z" />
    <glyph glyph-name="uni1ED3" unicode="&#x1ed3;" horiz-adv-x="1142" 
d="M709 1255l-148 -112h-207l299 231h138l215 -231h-191zM799 1430h-109l-149 235h168zM825 707q0 186 -196 186q-119 0 -184 -72t-93 -235l-22 -131q-12 -68 -13 -119q0 -188 197 -189q120 0 184 72t93 236l22 131q12 68 12 121zM1036 737q0 -63 -16 -166l-29 -157
q-39 -229 -153 -332q-115 -102 -332 -102q-399 0 -400 325q1 68 17 162l29 160q41 231 154 332q114 101 331 102q399 0 399 -324z" />
    <glyph glyph-name="uni1ED4" unicode="&#x1ed4;" horiz-adv-x="1378" 
d="M897 1669l-147 -110h-205l295 219h135l221 -219h-192zM942 1974q0 29 -38 29t-95 -25l-16 93q78 29 151 28q147 0 148 -106q0 -31 -14 -54t-54 -55q-39 -32 -45 -76h-129q6 47 19 72t53 59q20 20 20 35zM373 403q0 -245 260 -245q162 0 249 97t126 318l55 316
q20 104 20 170q0 244 -262 244q-176 0 -270 -127q-70 -92 -105 -287l-55 -316q-18 -106 -18 -170zM1305 1085q0 -78 -23 -204l-63 -355q-29 -160 -67 -246t-114 -157q-152 -143 -404 -143t-368 108q-115 108 -114 285q-1 84 22 209l62 354q29 160 67 247q39 87 115 156
q156 143 400 143t365 -102q122 -102 122 -295z" />
    <glyph glyph-name="uni1ED5" unicode="&#x1ed5;" horiz-adv-x="1142" 
d="M702 1251l-145 -108h-207l297 217h135l222 -217h-193zM713 1583q-37 0 -97 -22l-16 94q78 27 152 26q147 0 147 -106q0 -31 -14 -53q-13 -22 -53 -54q-40 -30 -46 -77h-129q5 45 19 69t44 52t30 44q0 27 -37 27zM825 707q0 186 -196 186q-119 0 -184 -72t-93 -235
l-22 -131q-12 -68 -13 -119q0 -188 197 -189q120 0 184 72t93 236l22 131q12 68 12 121zM1036 737q0 -63 -16 -166l-29 -157q-39 -229 -153 -332q-115 -102 -332 -102q-399 0 -400 325q1 68 17 162l29 160q41 231 154 332q114 101 331 102q399 0 399 -324z" />
    <glyph glyph-name="uni1ED6" unicode="&#x1ed6;" horiz-adv-x="1378" 
d="M907 1673l-147 -114h-205l299 233h135l217 -233h-192zM853 2083q73 0 119 -48q46 -49 55 -57t24 -8q47 0 79 98h113q-47 -131 -87 -175t-113 -44q-73 1 -118 49t-55 56t-26 8q-53 0 -92 -98h-113q49 125 95 172t119 47zM373 403q0 -245 260 -245q162 0 249 97t126 318
l55 316q20 104 20 170q0 244 -262 244q-176 0 -270 -127q-70 -92 -105 -287l-55 -316q-18 -106 -18 -170zM1305 1085q0 -78 -23 -204l-63 -355q-29 -160 -67 -246t-114 -157q-152 -143 -404 -143t-368 108q-115 108 -114 285q-1 84 22 209l62 354q29 160 67 247
q39 87 115 156q156 143 400 143t365 -102q122 -102 122 -295z" />
    <glyph glyph-name="uni1ED7" unicode="&#x1ed7;" horiz-adv-x="1142" 
d="M715 1255l-148 -112h-207l299 231h136l219 -231h-193zM661 1665q73 0 117 -48t56 -56q10 -8 24 -9q47 0 80 99h113q-47 -131 -87 -175t-113 -44t-119 48t-56 56t-25 8q-53 0 -92 -98h-113q50 125 96 172t119 47zM825 707q0 186 -196 186q-119 0 -184 -72t-93 -235
l-22 -131q-12 -68 -13 -119q0 -188 197 -189q120 0 184 72t93 236l22 131q12 68 12 121zM1036 737q0 -63 -16 -166l-29 -157q-39 -229 -153 -332q-115 -102 -332 -102q-399 0 -400 325q1 68 17 162l29 160q41 231 154 332q114 101 331 102q399 0 399 -324z" />
    <glyph glyph-name="uni1ED8" unicode="&#x1ed8;" horiz-adv-x="1378" 
d="M424 -410l41 234h203l-41 -234h-203zM920 1776l-160 -164h-215l317 291h144l215 -291h-197zM373 403q0 -245 260 -245q162 0 249 97t126 318l55 316q20 104 20 170q0 244 -262 244q-176 0 -270 -127q-70 -92 -105 -287l-55 -316q-18 -106 -18 -170zM1305 1085
q0 -78 -23 -204l-63 -355q-29 -160 -67 -246t-114 -157q-152 -143 -404 -143t-368 108q-115 108 -114 285q-1 84 22 209l62 354q29 160 67 247q39 87 115 156q156 143 400 143t365 -102q122 -102 122 -295z" />
    <glyph glyph-name="uni1ED9" unicode="&#x1ed9;" horiz-adv-x="1142" 
d="M305 -410l41 234h203l-41 -234h-203zM727 1358l-160 -162h-217l320 289h143l215 -289h-197zM825 707q0 186 -196 186q-119 0 -184 -72t-93 -235l-22 -131q-12 -68 -13 -119q0 -188 197 -189q120 0 184 72t93 236l22 131q12 68 12 121zM1036 737q0 -63 -16 -166l-29 -157
q-39 -229 -153 -332q-115 -102 -332 -102q-399 0 -400 325q1 68 17 162l29 160q41 231 154 332q114 101 331 102q399 0 399 -324z" />
    <glyph glyph-name="uni1EDA" unicode="&#x1eda;" horiz-adv-x="1443" 
d="M811 1606l213 303h242l-297 -303h-158zM373 403q0 -245 260 -245q162 0 249 97t126 318l55 316q20 106 20 168q0 246 -262 246q-176 0 -270 -127q-70 -92 -105 -287l-55 -316q-18 -102 -18 -170zM1294 1184q166 100 166 208q0 52 -14 93h184q4 -31 4 -60
q0 -152 -135 -249q-51 -39 -199 -115l-2 -10v-39q0 -23 -16 -131l-63 -355q-27 -158 -67 -244t-114 -159q-152 -143 -404 -143t-368 108q-115 108 -114 285q0 84 22 209l62 354q27 158 66 245q40 87 116 158q152 143 413 144q403 0 463 -299z" />
    <glyph glyph-name="uni1EDB" unicode="&#x1edb;" horiz-adv-x="1218" 
d="M614 1190l213 301h242l-297 -301h-158zM825 709q0 184 -196 184q-119 0 -184 -72t-93 -235l-22 -131q-12 -68 -13 -121q0 -186 197 -187q120 0 184 72t93 236l22 131q12 68 12 123zM1343 1004q-1 -111 -75 -195t-240 -164q-8 -64 -8 -74l-29 -157q-39 -229 -153 -332
q-115 -102 -330 -102q-401 0 -402 325q0 68 17 162l29 160q39 229 153 331q115 102 332 103q373 0 397 -285q66 45 84 70q51 68 51 141q0 29 -14 74h184q4 -53 4 -57z" />
    <glyph glyph-name="uni1EDC" unicode="&#x1edc;" horiz-adv-x="1443" 
d="M1032 1606h-149l-193 303h230zM373 403q0 -245 260 -245q162 0 249 97t126 318l55 316q20 106 20 168q0 246 -262 246q-176 0 -270 -127q-70 -92 -105 -287l-55 -316q-18 -102 -18 -170zM1294 1184q166 100 166 208q0 52 -14 93h184q4 -31 4 -60q0 -152 -135 -249
q-51 -39 -199 -115l-2 -10v-39q0 -23 -16 -131l-63 -355q-27 -158 -67 -244t-114 -159q-152 -143 -404 -143t-368 108q-115 108 -114 285q0 84 22 209l62 354q27 158 66 245q40 87 116 158q152 143 413 144q403 0 463 -299z" />
    <glyph glyph-name="uni1EDD" unicode="&#x1edd;" horiz-adv-x="1218" 
d="M872 1188h-151l-193 303h232zM825 709q0 184 -196 184q-119 0 -184 -72t-93 -235l-22 -131q-12 -68 -13 -121q0 -186 197 -187q120 0 184 72t93 236l22 131q12 68 12 123zM1343 1004q-1 -111 -75 -195t-240 -164q-8 -64 -8 -74l-29 -157q-39 -229 -153 -332
q-115 -102 -330 -102q-401 0 -402 325q0 68 17 162l29 160q39 229 153 331q115 102 332 103q373 0 397 -285q66 45 84 70q51 68 51 141q0 29 -14 74h184q4 -53 4 -57z" />
    <glyph glyph-name="uni1EDE" unicode="&#x1ede;" horiz-adv-x="1443" 
d="M942 1833q0 35 -47 35t-113 -29l-16 117q90 33 168 33q182 0 182 -148q0 -43 -16 -69t-76 -78q-29 -28 -38 -46t-17 -61h-148q16 78 29 105q12 27 63 82q29 35 29 59zM373 403q0 -245 260 -245q162 0 249 97t126 318l55 316q20 106 20 168q0 246 -262 246
q-176 0 -270 -127q-70 -92 -105 -287l-55 -316q-18 -102 -18 -170zM1294 1184q166 100 166 208q0 52 -14 93h184q4 -31 4 -60q0 -152 -135 -249q-51 -39 -199 -115l-2 -10v-39q0 -23 -16 -131l-63 -355q-27 -158 -67 -244t-114 -159q-152 -143 -404 -143t-368 108
q-115 108 -114 285q0 84 22 209l62 354q27 158 66 245q40 87 116 158q152 143 413 144q403 0 463 -299z" />
    <glyph glyph-name="uni1EDF" unicode="&#x1edf;" horiz-adv-x="1218" 
d="M758 1423q0 35 -46 35t-116 -28l-14 116q96 33 166 33q184 0 184 -147q0 -43 -16 -70t-61 -67q-43 -40 -53 -58t-18 -59h-147q15 78 27 102t53 70q41 45 41 73zM825 709q0 184 -196 184q-119 0 -184 -72t-93 -235l-22 -131q-12 -68 -13 -121q0 -186 197 -187
q120 0 184 72t93 236l22 131q12 68 12 123zM1343 1004q-1 -111 -75 -195t-240 -164q-8 -64 -8 -74l-29 -157q-39 -229 -153 -332q-115 -102 -330 -102q-401 0 -402 325q0 68 17 162l29 160q39 229 153 331q115 102 332 103q373 0 397 -285q66 45 84 70q51 68 51 141
q0 29 -14 74h184q4 -53 4 -57z" />
    <glyph glyph-name="uni1EE0" unicode="&#x1ee0;" horiz-adv-x="1443" 
d="M813 1892q96 0 162 -63q67 -63 99 -63t54 25q22 26 46 85h131q-47 -125 -70 -162q-61 -100 -161 -100t-164 63t-96 63t-60 -30q-28 -31 -47 -82h-132q45 119 74 162q68 102 164 102zM373 403q0 -245 260 -245q162 0 249 97t126 318l55 316q20 106 20 168q0 246 -262 246
q-176 0 -270 -127q-70 -92 -105 -287l-55 -316q-18 -102 -18 -170zM1294 1184q166 100 166 208q0 52 -14 93h184q4 -31 4 -60q0 -152 -135 -249q-51 -39 -199 -115l-2 -10v-39q0 -23 -16 -131l-63 -355q-27 -158 -67 -244t-114 -159q-152 -143 -404 -143t-368 108
q-115 108 -114 285q0 84 22 209l62 354q27 158 66 245q40 87 116 158q152 143 413 144q403 0 463 -299z" />
    <glyph glyph-name="uni1EE1" unicode="&#x1ee1;" horiz-adv-x="1218" 
d="M850 1348q32 0 54 24t46 86h131q-41 -113 -69 -162q-62 -100 -162 -100t-164 64t-98 63q-62 0 -107 -113h-129q47 125 74 162q68 102 164 102t162 -62q66 -64 98 -64zM825 709q0 184 -196 184q-119 0 -184 -72t-93 -235l-22 -131q-12 -68 -13 -121q0 -186 197 -187
q120 0 184 72t93 236l22 131q12 68 12 123zM1343 1004q-1 -111 -75 -195t-240 -164q-8 -64 -8 -74l-29 -157q-39 -229 -153 -332q-115 -102 -330 -102q-401 0 -402 325q0 68 17 162l29 160q39 229 153 331q115 102 332 103q373 0 397 -285q66 45 84 70q51 68 51 141
q0 29 -14 74h184q4 -53 4 -57z" />
    <glyph glyph-name="uni1EE2" unicode="&#x1ee2;" horiz-adv-x="1443" 
d="M428 -410l41 234h205l-43 -234h-203zM373 403q0 -245 260 -245q162 0 249 97t126 318l55 316q20 106 20 168q0 246 -262 246q-176 0 -270 -127q-70 -92 -105 -287l-55 -316q-18 -102 -18 -170zM1294 1184q166 100 166 208q0 52 -14 93h184q4 -31 4 -60q0 -152 -135 -249
q-51 -39 -199 -115l-2 -10v-39q0 -23 -16 -131l-63 -355q-27 -158 -67 -244t-114 -159q-152 -143 -404 -143t-368 108q-115 108 -114 285q0 84 22 209l62 354q27 158 66 245q40 87 116 158q152 143 413 144q403 0 463 -299z" />
    <glyph glyph-name="uni1EE3" unicode="&#x1ee3;" horiz-adv-x="1218" 
d="M317 -410l41 234h203l-41 -234h-203zM825 709q0 184 -196 184q-119 0 -184 -72t-93 -235l-22 -131q-12 -68 -13 -121q0 -186 197 -187q120 0 184 72t93 236l22 131q12 68 12 123zM1343 1004q-1 -111 -75 -195t-240 -164q-8 -64 -8 -74l-29 -157q-39 -229 -153 -332
q-115 -102 -330 -102q-401 0 -402 325q0 68 17 162l29 160q39 229 153 331q115 102 332 103q373 0 397 -285q66 45 84 70q51 68 51 141q0 29 -14 74h184q4 -53 4 -57z" />
    <glyph glyph-name="uni1EE4" unicode="&#x1ee4;" horiz-adv-x="1406" 
d="M438 -410l41 234h203l-41 -234h-203zM641 158q190 0 285 137q47 72 78 246l163 921h219l-169 -958q-29 -158 -58 -231t-90 -136q-152 -158 -426 -157q-145 0 -235 30t-150 99q-82 94 -82 233q0 78 27 236l155 884h220l-162 -921q-18 -106 -19 -168q0 -215 244 -215z" />
    <glyph glyph-name="uni1EE5" unicode="&#x1ee5;" horiz-adv-x="1140" 
d="M303 -410l41 234h203l-41 -234h-203zM342 334q0 -176 156 -176q113 0 172 80t94 270l94 532h209l-184 -1040h-144l-8 104q-53 -68 -121 -96t-170 -28q-152 0 -234 72t-81 204q0 88 27 229l96 555h209l-99 -557q-16 -98 -16 -149z" />
    <glyph glyph-name="uni1EE6" unicode="&#x1ee6;" horiz-adv-x="1406" 
d="M903 1868q-43 0 -117 -29l-14 117q88 33 166 33q182 0 182 -148q0 -43 -15 -69t-59 -65q-44 -41 -54 -59q-9 -18 -17 -61h-148q14 78 27 105q12 27 52 70t40 71q0 35 -43 35zM641 158q190 0 285 137q47 72 78 246l163 921h219l-169 -958q-29 -158 -58 -231t-90 -136
q-152 -158 -426 -157q-145 0 -235 30t-150 99q-82 94 -82 233q0 78 27 236l155 884h220l-162 -921q-18 -106 -19 -168q0 -215 244 -215z" />
    <glyph glyph-name="uni1EE7" unicode="&#x1ee7;" horiz-adv-x="1140" 
d="M695 1458q-46 0 -113 -28l-17 116q96 33 168 33q182 0 182 -147q0 -43 -16 -70q-15 -27 -59 -66t-53 -57t-19 -61h-147q14 74 27 102t65 84q29 35 28 59q0 35 -46 35zM342 334q0 -176 156 -176q113 0 172 80t94 270l94 532h209l-184 -1040h-144l-8 104q-53 -68 -121 -96
t-170 -28q-152 0 -234 72t-81 204q0 88 27 229l96 555h209l-99 -557q-16 -98 -16 -149z" />
    <glyph glyph-name="uni1EE8" unicode="&#x1ee8;" horiz-adv-x="1513" 
d="M838 1606l213 303h241l-297 -303h-157zM176 342q0 76 27 236l155 884h220l-162 -921q-18 -104 -18 -178t51 -140q52 -66 192 -65q190 0 285 137q47 72 78 246l161 921h219l-53 -309q102 49 144 84q78 68 77 172q0 31 -14 76h184l4 -58q0 -150 -137 -256
q-90 -68 -282 -153l-90 -514q-27 -156 -58 -230t-90 -137q-152 -158 -426 -157q-145 0 -235 30t-150 99q-82 94 -82 233z" />
    <glyph glyph-name="uni1EE9" unicode="&#x1ee9;" horiz-adv-x="1265" 
d="M621 1190l213 301h241l-297 -301h-157zM342 336q0 -176 156 -176q113 0 172 79t94 269l94 532h209l-55 -311q102 49 141 82q82 70 82 174q0 31 -14 76h184q4 -53 4 -55q0 -154 -137 -256q-52 -41 -102 -68t-183 -88l-104 -594h-144l-8 104q-98 -125 -291 -124
q-152 0 -234 72t-81 204q0 90 27 229l98 555h207l-99 -557q-16 -98 -16 -147z" />
    <glyph glyph-name="uni1EEA" unicode="&#x1eea;" horiz-adv-x="1513" 
d="M1051 1606h-150l-192 303h229zM176 342q0 76 27 236l155 884h220l-162 -921q-18 -104 -18 -178t51 -140q52 -66 192 -65q190 0 285 137q47 72 78 246l161 921h219l-53 -309q102 49 144 84q78 68 77 172q0 31 -14 76h184l4 -58q0 -150 -137 -256q-90 -68 -282 -153
l-90 -514q-27 -156 -58 -230t-90 -137q-152 -158 -426 -157q-145 0 -235 30t-150 99q-82 94 -82 233z" />
    <glyph glyph-name="uni1EEB" unicode="&#x1eeb;" horiz-adv-x="1265" 
d="M799 1188h-150l-192 303h231zM342 336q0 -176 156 -176q113 0 172 79t94 269l94 532h209l-55 -311q102 49 141 82q82 70 82 174q0 31 -14 76h184q4 -53 4 -55q0 -154 -137 -256q-52 -41 -102 -68t-183 -88l-104 -594h-144l-8 104q-98 -125 -291 -124q-152 0 -234 72
t-81 204q0 90 27 229l98 555h207l-99 -557q-16 -98 -16 -147z" />
    <glyph glyph-name="uni1EEC" unicode="&#x1eec;" horiz-adv-x="1513" 
d="M965 1833q-1 35 -45 35t-115 -29l-14 117q88 33 165 33q182 0 183 -148q1 -43 -15 -69t-60 -65q-44 -41 -54 -59t-17 -61h-147q14 78 26 105t52 70t41 71zM176 342q0 76 27 236l155 884h220l-162 -921q-18 -104 -18 -178t51 -140q52 -66 192 -65q190 0 285 137
q47 72 78 246l161 921h219l-53 -309q102 49 144 84q78 68 77 172q0 31 -14 76h184l4 -58q0 -150 -137 -256q-90 -68 -282 -153l-90 -514q-27 -156 -58 -230t-90 -137q-152 -158 -426 -157q-145 0 -235 30t-150 99q-82 94 -82 233z" />
    <glyph glyph-name="uni1EED" unicode="&#x1eed;" horiz-adv-x="1265" 
d="M756 1423q0 35 -46 35t-116 -28l-14 116q94 33 165 33q184 0 185 -145q0 -45 -16 -71t-60 -67t-54 -58t-18 -60h-147q15 76 27 102t53 72q41 47 41 71zM342 336q0 -176 156 -176q113 0 172 79t94 269l94 532h209l-55 -311q102 49 141 82q82 70 82 174q0 31 -14 76h184
q4 -53 4 -55q0 -154 -137 -256q-52 -41 -102 -68t-183 -88l-104 -594h-144l-8 104q-98 -125 -291 -124q-152 0 -234 72t-81 204q0 90 27 229l98 555h207l-99 -557q-16 -98 -16 -147z" />
    <glyph glyph-name="uni1EEE" unicode="&#x1eee;" horiz-adv-x="1513" 
d="M803 1892q96 0 162 -63q67 -63 99 -63t54 25q22 26 45 85h131q-45 -123 -69 -162q-61 -100 -161 -100t-164 63t-96 63t-61 -30q-29 -31 -47 -82h-131q47 123 74 162q68 102 164 102zM176 342q0 76 27 236l155 884h220l-162 -921q-18 -104 -18 -178t51 -140
q52 -66 192 -65q190 0 285 137q47 72 78 246l161 921h219l-53 -309q102 49 144 84q78 68 77 172q0 31 -14 76h184l4 -58q0 -150 -137 -256q-90 -68 -282 -153l-90 -514q-27 -156 -58 -230t-90 -137q-152 -158 -426 -157q-145 0 -235 30t-150 99q-82 94 -82 233z" />
    <glyph glyph-name="uni1EEF" unicode="&#x1eef;" horiz-adv-x="1265" 
d="M860 1348q32 0 54 24t47 86h129q-45 -121 -68 -162q-60 -100 -162 -100t-164 64t-98 63q-61 0 -106 -113h-130q43 115 74 162q68 102 163 102t162 -62q67 -64 99 -64zM342 336q0 -176 156 -176q113 0 172 79t94 269l94 532h209l-55 -311q102 49 141 82q82 70 82 174
q0 31 -14 76h184q4 -53 4 -55q0 -154 -137 -256q-52 -41 -102 -68t-183 -88l-104 -594h-144l-8 104q-98 -125 -291 -124q-152 0 -234 72t-81 204q0 90 27 229l98 555h207l-99 -557q-16 -98 -16 -147z" />
    <glyph glyph-name="uni1EF0" unicode="&#x1ef0;" horiz-adv-x="1513" 
d="M444 -410l41 234h205l-41 -234h-205zM176 342q0 76 27 236l155 884h220l-162 -921q-18 -104 -18 -178t51 -140q52 -66 192 -65q190 0 285 137q47 72 78 246l161 921h219l-53 -309q102 49 144 84q78 68 77 172q0 31 -14 76h184l4 -58q0 -150 -137 -256q-90 -68 -282 -153
l-90 -514q-27 -156 -58 -230t-90 -137q-152 -158 -426 -157q-145 0 -235 30t-150 99q-82 94 -82 233z" />
    <glyph glyph-name="uni1EF1" unicode="&#x1ef1;" horiz-adv-x="1265" 
d="M344 -410l41 234h203l-41 -234h-203zM342 336q0 -176 156 -176q113 0 172 79t94 269l94 532h209l-55 -311q102 49 141 82q82 70 82 174q0 31 -14 76h184q4 -53 4 -55q0 -154 -137 -256q-52 -41 -102 -68t-183 -88l-104 -594h-144l-8 104q-98 -125 -291 -124
q-152 0 -234 72t-81 204q0 90 27 229l98 555h207l-99 -557q-16 -98 -16 -147z" />
    <glyph glyph-name="Ygrave" unicode="&#x1ef2;" horiz-adv-x="1099" 
d="M866 1606h-151l-193 303h232zM350 0l94 528l-292 934h225l209 -714l461 714h239l-622 -934l-95 -528h-219z" />
    <glyph glyph-name="ygrave" unicode="&#x1ef3;" horiz-adv-x="1015" 
d="M748 1188h-152l-193 303h232zM315 10l-188 1030h207l125 -802l385 802h217l-598 -1171q-83 -157 -143 -223t-142 -90t-241 -27l30 172q119 -2 169 31t116 155z" />
    <glyph glyph-name="uni1EF4" unicode="&#x1ef4;" horiz-adv-x="1099" 
d="M283 -410l41 234h202l-41 -234h-202zM350 0l94 528l-292 934h225l209 -714l461 714h239l-622 -934l-95 -528h-219z" />
    <glyph glyph-name="uni1EF5" unicode="&#x1ef5;" horiz-adv-x="1015" 
d="M518 -410l41 234h203l-41 -234h-203zM315 10l-188 1030h207l125 -802l385 802h217l-598 -1171q-83 -157 -143 -223t-142 -90t-241 -27l30 172q119 -2 169 31t116 155z" />
    <glyph glyph-name="uni1EF6" unicode="&#x1ef6;" horiz-adv-x="1099" 
d="M732 1868q-46 0 -114 -29l-14 117q92 33 166 33q182 0 182 -148q0 -43 -15 -69t-59 -65q-44 -41 -54 -59q-9 -18 -19 -61h-146q14 78 27 105q12 27 64 82q29 35 28 59q0 35 -46 35zM350 0l94 528l-292 934h225l209 -714l461 714h239l-622 -934l-95 -528h-219z" />
    <glyph glyph-name="uni1EF7" unicode="&#x1ef7;" horiz-adv-x="1015" 
d="M662 1423q0 35 -46 35t-114 -28l-17 116q96 33 168 33q182 0 183 -145q0 -45 -16 -71t-60 -68t-54 -58t-18 -59h-147q14 76 27 102q14 26 54 71q40 44 40 72zM315 10l-188 1030h207l125 -802l385 802h217l-598 -1171q-83 -157 -143 -223t-142 -90t-241 -27l30 172
q119 -2 169 31t116 155z" />
    <glyph glyph-name="uni1EF8" unicode="&#x1ef8;" horiz-adv-x="1099" 
d="M640 1892q95 0 162 -63t99 -64q57 0 100 111h129q-43 -123 -69 -162q-59 -100 -172 -100q-89 0 -153 63t-95 63t-61 -30q-30 -31 -48 -82h-129q41 115 74 162q68 102 163 102zM350 0l94 528l-292 934h225l209 -714l461 714h239l-622 -934l-95 -528h-219z" />
    <glyph glyph-name="uni1EF9" unicode="&#x1ef9;" horiz-adv-x="1015" 
d="M780 1348q32 0 54 24q23 24 47 86h129q-41 -121 -68 -162q-62 -100 -162 -100t-164 64t-98 63q-61 0 -106 -113h-129q47 125 73 162q68 102 164 102t160 -63q68 -63 100 -63zM315 10l-188 1030h207l125 -802l385 802h217l-598 -1171q-83 -157 -143 -223t-142 -90
t-241 -27l30 172q119 -2 169 31t116 155z" />
    <glyph glyph-name="uni2002" unicode="&#x2002;" horiz-adv-x="1024" 
 />
    <glyph glyph-name="uni2003" unicode="&#x2003;" horiz-adv-x="2048" 
 />
    <glyph glyph-name="uni2004" unicode="&#x2004;" horiz-adv-x="681" 
 />
    <glyph glyph-name="uni2005" unicode="&#x2005;" horiz-adv-x="512" 
 />
    <glyph glyph-name="uni2006" unicode="&#x2006;" horiz-adv-x="342" 
 />
    <glyph glyph-name="uni2007" unicode="&#x2007;" 
 />
    <glyph glyph-name="uni2008" unicode="&#x2008;" horiz-adv-x="0" 
 />
    <glyph glyph-name="uni2009" unicode="&#x2009;" horiz-adv-x="409" 
 />
    <glyph glyph-name="uni200A" unicode="&#x200a;" horiz-adv-x="256" 
 />
    <glyph glyph-name="uni2011" unicode="&#x2011;" horiz-adv-x="964" 
d="M203 649l30 178h607l-31 -178h-606z" />
    <glyph glyph-name="figuredash" unicode="&#x2012;" 
d="M166 649l31 178h819l-31 -178h-819z" />
    <glyph glyph-name="endash" unicode="&#x2013;" 
d="M166 649l31 178h819l-31 -178h-819z" />
    <glyph glyph-name="emdash" unicode="&#x2014;" 
d="M23 649l30 178h1108l-31 -178h-1107z" />
    <glyph glyph-name="afii00208" unicode="&#x2015;" 
d="M23 649l30 178h1108l-31 -178h-1107z" />
    <glyph glyph-name="underscoredbl" unicode="&#x2017;" horiz-adv-x="962" 
d="M-188 -264l20 117h1065l-20 -117h-1065zM-223 -457l20 117h1065l-20 -117h-1065z" />
    <glyph glyph-name="quoteleft" unicode="&#x2018;" horiz-adv-x="411" 
d="M518 1462l-162 -506h-219l205 506h176z" />
    <glyph glyph-name="quoteright" unicode="&#x2019;" horiz-adv-x="411" 
d="M137 956l160 506h221l-205 -506h-176z" />
    <glyph glyph-name="quotesinglbase" unicode="&#x201a;" horiz-adv-x="411" 
d="M-80 -276l160 505h221l-205 -505h-176z" />
    <glyph glyph-name="quotedblleft" unicode="&#x201c;" horiz-adv-x="811" 
d="M518 1462l-162 -506h-219l205 506h176zM915 1462l-159 -506h-221l204 506h176z" />
    <glyph glyph-name="quotedblright" unicode="&#x201d;" horiz-adv-x="811" 
d="M535 956l159 506h221l-204 -506h-176zM137 956l160 506h221l-205 -506h-176z" />
    <glyph glyph-name="quotedblbase" unicode="&#x201e;" horiz-adv-x="811" 
d="M317 -276l160 505h221l-204 -505h-177zM-80 -276l160 505h221l-205 -505h-176z" />
    <glyph glyph-name="dagger" unicode="&#x2020;" 
d="M504 842h-330l31 178h332l77 442h213l-79 -442h331l-32 -178h-330l-205 -1159h-211z" />
    <glyph glyph-name="daggerdbl" unicode="&#x2021;" 
d="M502 842h-330l31 178h332l77 442h213l-80 -442h332l-33 -178h-329l-51 -289h303l-31 -178h-303l-121 -692h-213l121 692h-303l30 178h304z" />
    <glyph glyph-name="bullet" unicode="&#x2022;" 
d="M556 1090q155 0 259 -102q105 -102 105 -253q0 -152 -104 -253t-262 -101q-157 0 -261 102q-105 103 -105 253t106 252t262 102z" />
    <glyph glyph-name="ellipsis" unicode="&#x2026;" horiz-adv-x="1761" 
d="M1266 0l41 231h219l-41 -231h-219zM680 0l39 231h219l-39 -231h-219zM92 0l41 231h219l-41 -231h-219z" />
    <glyph glyph-name="perthousand" unicode="&#x2030;" horiz-adv-x="2641" 
d="M514 0l719 1462h197l-719 -1462h-197zM2382 547q0 129 -125 129q-78 0 -120 -50t-64 -167l-23 -127q-8 -61 -8 -88q0 -129 125 -129q76 0 119 51t63 166l21 112q12 70 12 103zM2262 811q164 -1 232 -67t68 -162q0 -49 -14 -125l-29 -168q-29 -160 -104 -230
q-92 -79 -253 -79t-231 64t-69 163q0 55 14 131l29 164q29 160 111 234t246 75zM1481 676q-78 0 -121 -50t-64 -167l-22 -127q-12 -68 -12 -92q0 -125 127 -125q78 0 121 51t63 166l20 112q12 72 13 103q0 129 -125 129zM1486 811q165 -1 232 -67t68 -164q0 -49 -14 -123
l-29 -168q-16 -91 -39 -141t-68 -89q-88 -80 -254 -79q-299 0 -299 227q1 49 17 131l28 164q14 92 37 140t68 89q88 80 253 80zM676 1219q0 129 -125 129q-78 0 -120 -50t-62 -168l-23 -126q-10 -61 -10 -89q0 -127 125 -127q77 0 119 50t65 166l19 112q12 63 12 103z
M556 1483q164 -1 232 -67t68 -165q0 -41 -12 -123l-31 -167q-14 -93 -37 -141t-67 -87q-88 -80 -251 -80q-163 -1 -233 63t-69 163q0 41 14 131l29 164q29 160 111 234t246 75z" />
    <glyph glyph-name="guilsinglleft" unicode="&#x2039;" horiz-adv-x="532" 
d="M305 590l133 -256l-143 -76l-217 346l340 344l110 -102z" />
    <glyph glyph-name="guilsinglright" unicode="&#x203a;" horiz-adv-x="532" 
d="M256 616l-133 258l143 74l217 -344l-340 -346l-110 104z" />
    <glyph glyph-name="uni203E" unicode="&#x203e;" horiz-adv-x="962" 
d="M150 1657l26 147h1065l-27 -147h-1064z" />
    <glyph glyph-name="fraction" unicode="&#x2044;" horiz-adv-x="350" 
d="M-223 0l719 1462h194l-717 -1462h-196z" />
    <glyph glyph-name="zerosuperior" unicode="&#x2070;" horiz-adv-x="727" 
d="M643 1442q0 113 -100 112q-63 0 -101 -51t-57 -166l-39 -217q-12 -74 -12 -116t26 -72q26 -29 82 -29q55 0 93 50q36 50 59 167l37 217q12 72 12 105zM557 1679q254 0 254 -217q0 -49 -12 -121l-43 -237q-29 -172 -109 -249t-227 -77q-254 0 -254 217q0 45 12 121l43 238
q31 170 110 248t226 77z" />
    <glyph glyph-name="foursuperior" unicode="&#x2074;" horiz-adv-x="724" 
d="M481 791l29 153h-383l16 100l410 623h178l-387 -590h188l31 172h152l-33 -172h90l-24 -133h-89l-26 -153h-152z" />
    <glyph glyph-name="fivesuperior" unicode="&#x2075;" horiz-adv-x="716" 
d="M305 1010q9 -101 119 -101q60 1 102 57t43 155q0 99 -98 100q-76 0 -135 -54l-123 25l129 475h473l-22 -137h-330l-57 -207q53 20 104 20q113 0 175 -49q103 -81 40 -289q-23 -77 -55 -118q-90 -109 -283 -109q-147 0 -197 58t-51 137q0 14 2 24l164 23v-10z" />
    <glyph glyph-name="sixsuperior" unicode="&#x2076;" horiz-adv-x="724" 
d="M494 1231q-76 1 -120 -61t-44 -164t100 -103q74 1 118 63t44 164q0 47 -26 74t-72 27zM164 979q0 123 49 225q20 41 82 121l266 342h199l-260 -324q53 6 63 7q86 0 140 -52q90 -85 33 -291q-22 -81 -54 -122q-78 -106 -266 -107q-252 0 -252 201z" />
    <glyph glyph-name="sevensuperior" unicode="&#x2077;" horiz-adv-x="546" 
d="M102 791l408 739h-346l24 137h529l-17 -100l-409 -776h-189z" />
    <glyph glyph-name="eightsuperior" unicode="&#x2078;" horiz-adv-x="724" 
d="M481 1188q-78 0 -122 -50t-44 -142t113 -93q78 0 122 50q44 51 44 143t-113 92zM551 1561q-70 -1 -110 -47t-40 -128q0 -88 101 -88q68 0 108 48t39 127q0 88 -98 88zM762 1118q0 -338 -346 -340q-266 0 -266 191q0 212 141 286q-45 51 -45 121q0 129 70 216t249 87
q238 0 238 -178q0 -158 -109 -246q68 -47 68 -137z" />
    <glyph glyph-name="ninesuperior" unicode="&#x2079;" horiz-adv-x="724" 
d="M535 1554q-70 0 -113 -53t-43 -143q0 -98 100 -98q70 0 112 54t42 142q0 98 -98 98zM408 1143q-92 0 -145 46q-52 46 -52 124q0 77 20 153t54 115q82 98 264 98q254 0 254 -182q-1 -101 -27 -171t-80 -142l-295 -393h-196l270 356q-33 -4 -67 -4z" />
    <glyph glyph-name="zeroinferior" unicode="&#x2080;" horiz-adv-x="727" 
d="M467 446q0 113 -100 113q-63 0 -101 -51t-57 -166l-39 -217q-12 -63 -12 -105q0 -113 100 -112q63 0 100 50t60 167l37 217q12 63 12 104zM381 684q254 0 254 -217q0 -57 -12 -121l-41 -237q-31 -174 -111 -250t-231 -76q-250 0 -250 217q0 49 14 121l41 237
q31 172 110 249t226 77z" />
    <glyph glyph-name="oneinferior" unicode="&#x2081;" horiz-adv-x="516" 
d="M74 -205l127 715l-160 -55l-29 120l271 97h116l-155 -877h-170z" />
    <glyph glyph-name="twoinferior" unicode="&#x2082;" horiz-adv-x="712" 
d="M349 555q-102 0 -146 -123l-156 17q41 129 118 185t205 56q253 0 255 -190q0 -111 -64 -209q-41 -59 -182 -195l-170 -164h315l-24 -137h-551l18 109l309 301q174 166 175 264q0 86 -102 86z" />
    <glyph glyph-name="threeinferior" unicode="&#x2083;" horiz-adv-x="712" 
d="M393 84q0 115 -143 115h-88l20 116h78q78 0 127 40q49 41 49 93t-28 78t-72 25q-102 0 -141 -96l-152 16q33 113 109 164t208 51q250 0 250 -188q0 -115 -59 -181q-23 -29 -76 -59q88 -57 88 -172t-71 -201q-90 -102 -278 -102t-251 86q-27 35 -26 111v22l165 25
q-4 -109 123 -109q76 0 122 45t46 121z" />
    <glyph glyph-name="fourinferior" unicode="&#x2084;" horiz-adv-x="724" 
d="M305 -205l27 154h-381l16 100l410 623h178l-387 -590h188l31 172h152l-33 -172h90l-25 -133h-88l-26 -154h-152z" />
    <glyph glyph-name="fiveinferior" unicode="&#x2085;" horiz-adv-x="716" 
d="M334 348q113 0 175 -49t62 -131q-1 -82 -23 -159t-54 -118q-86 -109 -283 -108q-248 0 -248 192q0 14 2 27l164 23q-2 -51 27 -81q28 -30 90 -30t104 57t43 155q0 98 -98 99q-76 0 -135 -53l-123 25l129 475h473l-23 -137h-329l-58 -207q53 20 105 20z" />
    <glyph glyph-name="sixinferior" unicode="&#x2086;" horiz-adv-x="724" 
d="M317 236q-73 0 -117 -62t-44 -164t100 -102q72 0 116 62t44 165q0 47 -26 74t-73 27zM389 354q86 0 140 -51q55 -51 55 -131t-22 -161t-54 -122q-78 -106 -266 -106q-252 0 -252 199q0 125 49 227q23 45 82 121l266 342h199l-260 -324q39 6 63 6z" />
    <glyph glyph-name="seveninferior" unicode="&#x2087;" horiz-adv-x="546" 
d="M-68 -205l408 740h-346l24 137h529l-17 -101l-409 -776h-189z" />
    <glyph glyph-name="eightinferior" unicode="&#x2088;" horiz-adv-x="724" 
d="M307 193q-80 -1 -124 -51t-44 -142t113 -92q78 0 122 50t44 140q0 95 -111 95zM373 565q-70 0 -109 -46t-39 -128q0 -88 101 -88q68 0 106 47t39 127q0 88 -98 88zM70 372q0 312 317 312q238 0 238 -178q0 -160 -107 -246q68 -47 68 -137q0 -147 -77 -243t-269 -97
q-137 0 -202 46t-65 144q1 213 142 287q-45 48 -45 112z" />
    <glyph glyph-name="nineinferior" unicode="&#x2089;" horiz-adv-x="724" 
d="M360 559q-72 0 -114 -53t-41 -144q0 -98 100 -98q72 0 114 54q41 54 41 148t-100 93zM37 317q-1 77 21 153t53 114q82 100 264 100q254 0 254 -182q1 -100 -25 -170t-82 -144l-295 -393h-196l270 357q-33 -4 -68 -5q-92 1 -144 47t-52 123z" />
    <glyph glyph-name="franc" unicode="&#x20a3;" horiz-adv-x="1558" 
d="M1432 940q89 0 180 -51l-117 -168q-59 51 -123 51q-104 0 -168 -92t-98 -295l-70 -385h-202l161 920h158l4 -121q61 77 123 109t152 32zM84 0l258 1462h713l-31 -178h-502l-82 -465h402l-33 -180h-399l-113 -639h-213z" />
    <glyph glyph-name="lira" unicode="&#x20a4;" 
d="M706 1307q-96 0 -166 -77t-71 -198q0 -68 39 -168h381l-21 -123h-321q14 -82 16 -123h283l-23 -122h-278q-14 -176 -172 -318h622l-32 -178h-938l26 154q109 31 193 129t98 213h-250l21 122h225q-6 43 -35 123h-168l21 123h110q-20 82 -20 137q0 150 80 285
q121 197 379 197t360 -144q29 -41 43 -85t25 -130l-189 -67l-4 24q-8 41 -10 62q-14 74 -70 119q-58 45 -154 45z" />
    <glyph glyph-name="peseta" unicode="&#x20a7;" 
d="M469 938l-43 -242h145q123 -2 198 56t110 186h-410zM899 1061v35q0 102 -53 149t-170 47h-146l-41 -231h410zM668 1462q150 0 236 -28t136 -91q74 -90 74 -231q0 -25 -2 -51h137l-20 -123h-133q-50 -219 -182 -318t-357 -96h-158l-92 -524h-213l166 938h-176l22 123h175
l71 401h316z" />
    <glyph glyph-name="uni20AB" unicode="&#x20ab;" 
d="M246 338q0 -190 182 -191q219 0 268 279l33 188q10 55 10 95q0 184 -188 184q-113 1 -177 -73t-93 -236l-23 -127q-12 -74 -12 -119zM35 293q0 74 18 178l27 154q41 233 142 334t294 102q168 1 248 -71q18 -16 29 -23l34 196h-301l25 140h301l27 159h208l-28 -159h164
l-25 -140h-164l-205 -1163h-161l2 90q-74 -69 -132 -90t-151 -20q-352 0 -352 313zM-82 -367l27 148h940l-25 -148h-942z" />
    <glyph glyph-name="Euro" unicode="&#x20ac;" 
d="M954 1108q0 90 -51 140t-145 50q-129 0 -202 -96t-112 -315l-6 -29h539l-70 -123h-489l-25 -133h432l-69 -123h-379q-10 -53 -10 -96q0 -231 221 -231q209 0 274 188l205 -25q-84 -342 -492 -342q-209 -1 -319 99t-111 288q0 47 11 119h-183l70 123h133l23 133h-181
l70 123h131l10 60q29 160 66 252t100 161q139 147 371 148q188 0 294 -82t105 -228q0 -29 -8 -84l-203 -14v37z" />
    <glyph glyph-name="uni20B4" unicode="&#x20b4;" 
d="M686 1319q-150 0 -240 -121l-143 84q133 201 395 201q178 0 276 -87t99 -247q0 -121 -59 -227q-14 -29 -68 -84l131 -39l-51 -117l-209 57q-72 -39 -266 -96l407 -113l-53 -116l-514 143q-119 -82 -119 -231q0 -178 224 -179q201 0 309 132l149 -91q-154 -209 -467 -208
q-201 0 -307 86t-106 233t51 236q6 12 61 79l-141 41l53 117l195 -53q20 13 101 43t109 41t40 14l-379 107l53 116l508 -141q150 88 149 250q0 82 -49 126t-139 44z" />
    <glyph glyph-name="uni2101" unicode="&#x2101;" horiz-adv-x="1841" 
d="M1374 121q84 0 136 39t52 92q0 54 -30 74q-31 20 -150 51q-221 55 -221 225q0 123 84 205t254 82q225 0 293 -137l-147 -78q-45 82 -152 82q-70 0 -114 -37t-44 -87t36 -76q35 -26 149 -54t166 -76q52 -47 51 -135q1 -145 -95 -224t-272 -79q-258 -1 -332 151l152 80
q41 -98 184 -98zM625 868l-76 394l-217 -394h293zM846 637l405 825h174l-718 -1462h-175l289 586h-141l-33 166h-377l-92 -166h-184l516 876h141z" />
    <glyph glyph-name="afii61248" unicode="&#x2105;" horiz-adv-x="1894" 
d="M516 0l719 1462h176l-719 -1462h-176zM1489 686q-103 0 -163 -62t-83 -194l-8 -53q-12 -59 -12 -101q0 -154 163 -153q102 0 162 61q59 62 82 193l10 53q10 66 11 100q0 156 -162 156zM1495 823q324 0 324 -270q0 -70 -13 -135l-12 -70q-35 -188 -133 -275t-281 -87
q-326 0 -325 270q0 63 14 135l12 70q33 188 132 275t282 87zM467 639q-152 0 -233 74t-80 213q0 61 12 129l6 28q35 203 133 297t270 95q219 0 289 -162l-139 -64q-45 88 -150 88q-193 0 -239 -274l-6 -33q-8 -49 -8 -94q0 -160 159 -160q119 0 191 84l123 -84
q-117 -137 -328 -137z" />
    <glyph glyph-name="afii61289" unicode="&#x2113;" 
d="M827 1274q0 84 -53 84q-62 0 -108 -138t-103 -485q264 305 264 539zM201 299q-12 0 -24 19q-11 19 -11 46q0 26 62 88t116 130q84 498 180 706t244 207q78 0 127 -56q49 -57 49 -149t-42 -207t-122 -233t-239 -272q-53 -326 -53 -402t47 -76q29 0 47 20t51 87
q29 53 59 53q37 0 37 -45q0 -86 -82 -174q-70 -80 -164 -80q-170 0 -170 227q1 56 15 226q-100 -115 -127 -115z" />
    <glyph glyph-name="afii61352" unicode="&#x2116;" horiz-adv-x="2381" 
d="M1395 0l30 168h773l-31 -168h-772zM1966 1055q-96 -1 -149 -61t-76 -193l-8 -43q-8 -45 -9 -105q0 -150 148 -149q96 0 149 60t76 194l8 43q8 45 9 104q0 150 -148 150zM1972 1223q348 0 348 -289q0 -61 -14 -148l-12 -65q-35 -203 -137 -294t-291 -91q-348 0 -348 291
q0 65 14 145l12 68q35 201 136 292t292 91zM104 0l258 1462h211l461 -1093l193 1093h213l-258 -1462h-211l-461 1094l-193 -1094h-213z" />
    <glyph glyph-name="trademark" unicode="&#x2122;" horiz-adv-x="1798" 
d="M829 586l156 876h158l176 -504l352 504h162l-156 -876h-164l101 565l-273 -389h-112l-133 389l-101 -565h-166zM291 586l131 739h-262l22 137h695l-25 -137h-260l-131 -739h-170z" />
    <glyph glyph-name="uni2126" unicode="&#x2126;" horiz-adv-x="1378" 
d="M1303 1085q0 -72 -23 -204l-31 -172q-27 -185 -119 -317t-229 -177l-10 -57h285l-27 -158h-457l60 338q231 49 284 403l27 148q18 100 18 172q0 119 -66 181q-67 62 -194 63q-178 0 -272 -127q-72 -96 -105 -289l-26 -148q-20 -123 -21 -166q0 -197 162 -237l-59 -338
h-455l29 158h282l13 69q-186 86 -187 332q0 82 21 205l30 172q29 160 68 247t115 156q156 143 400 143t366 -102t121 -295z" />
    <glyph glyph-name="estimated" unicode="&#x212e;" horiz-adv-x="1228" 
d="M911 776v213q-16 68 -49 113q-49 72 -103 102t-149 29q-95 0 -160 -55t-114 -187v-215h575zM336 641v-252q33 -104 65 -156q72 -102 224 -102q111 0 193 65t118 177h151q-49 -170 -102 -236q-129 -160 -365 -160q-236 1 -376 185t-140 511t140 521t379 192q157 0 275 -84
t172 -230q54 -144 56 -431h-790z" />
    <glyph glyph-name="onethird" unicode="&#x2153;" horiz-adv-x="1798" 
d="M403 0l717 1462h197l-719 -1462h-195zM1307 520q78 0 127 40t49 104q0 44 -28 68t-75 24q-98 0 -141 -97l-149 17q33 113 107 164q75 51 203 51t192 -48q64 -47 65 -151q0 -104 -60 -170q-20 -27 -77 -59q90 -57 90 -158q0 -129 -72 -215q-90 -102 -296 -102t-249 118
q-10 23 -10 72v29l164 24q0 -109 123 -108q76 0 123 46t47 120q0 115 -146 114h-86l19 117h80zM315 586l127 714l-159 -57l-29 123l268 96h117l-154 -876h-170z" />
    <glyph glyph-name="twothirds" unicode="&#x2154;" horiz-adv-x="1798" 
d="M479 0l719 1462h197l-719 -1462h-197zM1376 520q76 0 126 40t50 92t-28 78t-74 26q-102 0 -139 -97l-152 17q33 113 108 164t208 51q252 0 251 -186q0 -117 -59 -183q-20 -27 -78 -59q90 -57 90 -158q0 -129 -71 -215q-90 -102 -296 -102t-249 118q-6 14 -10 101l164 24
q0 -109 122 -108q76 0 123 46t47 120q0 115 -145 114h-86l18 117h80zM602 1260q0 86 -102 86t-146 -123l-155 16q41 129 117 185q77 56 205 56q255 1 255 -190q0 -114 -52 -192t-194 -211l-170 -164h316l-25 -137h-551l19 108l309 301q174 168 174 265z" />
    <glyph glyph-name="uni2155" unicode="&#x2155;" horiz-adv-x="1798" 
d="M377 0l719 1462h194l-719 -1462h-194zM1587 373q-1 -82 -23 -159t-55 -118q-90 -109 -282 -108q-147 0 -197 57t-51 137q0 14 2 25l164 22v-10q0 -45 30 -73t76 -27q72 0 115 56q43 55 43 155t-98 100q-76 0 -135 -53l-123 24l129 476h473l-23 -138h-329l-58 -207
q53 20 105 21q113 0 175 -49t62 -131zM303 586l127 714l-160 -57l-28 123l268 96h117l-154 -876h-170z" />
    <glyph glyph-name="uni2156" unicode="&#x2156;" horiz-adv-x="1798" 
d="M481 0l719 1462h197l-719 -1462h-197zM1217 219q-1 -45 29 -73t90 -28t102 57q43 55 43 155t-99 100q-74 0 -133 -53l-123 24l129 476h474l-23 -138h-330l-59 -207q53 20 106 21q111 0 173 -49t62 -131t-22 -159q-23 -77 -55 -118q-90 -109 -283 -108q-147 0 -202 61
q-45 57 -45 133l2 25l166 22q-2 -4 -2 -10zM598 1260q0 86 -102 86t-146 -123l-155 16q41 129 117 185q77 56 205 56q255 1 255 -190q0 -114 -52 -192t-194 -211l-170 -164h316l-25 -137h-551l19 108l309 301q174 168 174 265z" />
    <glyph glyph-name="uni2157" unicode="&#x2157;" horiz-adv-x="1798" 
d="M473 0l717 1462h196l-718 -1462h-195zM1206 219q0 -45 30 -73t90 -28t102 57q42 55 42 155t-98 100q-74 0 -133 -53l-123 24l129 476h473l-22 -138h-330l-59 -207q53 20 106 21q111 0 173 -49t62 -131t-22 -159q-23 -77 -55 -118q-86 -109 -283 -108q-147 0 -203 61
q-45 57 -45 133l2 25l166 22q-2 -4 -2 -10zM418 1106q76 0 126 40t50 92t-27 77t-73 24q-104 0 -142 -94l-151 17q33 112 109 162t208 51q250 0 250 -187q0 -113 -59 -182q-18 -20 -76 -57q88 -57 88 -172t-72 -201q-90 -102 -278 -102t-250 85q-27 35 -27 109v25l166 24
q0 -109 123 -108q76 0 122 45t46 120q0 115 -143 115h-89l21 117h78z" />
    <glyph glyph-name="uni2158" unicode="&#x2158;" horiz-adv-x="1798" 
d="M473 0l719 1462h197l-719 -1462h-197zM1036 182v25l166 22q6 -111 107 -110q73 0 115 56q42 55 42 155t-98 100q-78 0 -135 -53l-123 24l129 476h473l-22 -138h-330l-60 -207q53 20 107 21q113 0 175 -49t62 -131t-22 -159q-23 -77 -55 -118q-90 -109 -283 -108
q-248 0 -248 194zM444 586l29 153h-383l16 101l410 622h178l-387 -590h189l30 172h152l-33 -172h90l-24 -133h-88l-27 -153h-152z" />
    <glyph glyph-name="uni2159" unicode="&#x2159;" horiz-adv-x="1798" 
d="M414 0l719 1462h196l-719 -1462h-196zM1419 338q0 102 -98 102q-76 0 -120 -61t-44 -163t100 -103q74 0 118 62q44 61 44 163zM1393 559q84 0 138 -51t54 -131q1 -80 -21 -161t-55 -122q-78 -106 -266 -106q-252 0 -252 200q0 123 49 226q20 41 82 121l269 342h196
l-258 -324q53 6 64 6zM319 586l127 714l-159 -57l-29 123l268 96h117l-154 -876h-170z" />
    <glyph glyph-name="uni215A" unicode="&#x215a;" horiz-adv-x="1798" 
d="M508 0l719 1462h196l-718 -1462h-197zM1386 440q-76 0 -120 -61t-43 -163q0 -102 100 -103q74 0 118 62t44 165q0 48 -26 74t-73 26zM1458 559q84 0 138 -51t54 -131t-21 -161q-22 -81 -54 -122q-78 -106 -266 -106q-252 0 -252 200q0 123 49 226q20 43 82 121l268 342
h197l-258 -324q53 6 63 6zM299 815q-1 -111 117 -111q62 0 104 58q42 57 43 156q0 99 -98 100q-76 0 -135 -55l-123 24l129 475h473l-23 -137h-329l-58 -205q51 20 105 21q113 0 175 -49q62 -50 62 -132q1 -82 -21 -158t-56 -120q-86 -109 -283 -109q-248 0 -248 193
q0 16 2 27z" />
    <glyph glyph-name="oneeighth" unicode="&#x215b;" horiz-adv-x="1798" 
d="M369 0l718 1462h197l-719 -1462h-196zM1307 397q-78 0 -122 -50t-44 -142t112 -92q76 0 120 50t44 140q1 94 -110 94zM1374 770q-70 0 -108 -46t-39 -128q0 -88 100 -88q66 0 106 47q39 47 39 131t-98 84zM1239 -12q-264 0 -264 190q0 213 141 287q-45 51 -45 121
q0 129 71 216t247 87q238 0 237 -178q0 -158 -106 -246q66 -47 65 -137q0 -340 -346 -340zM319 586l127 714l-159 -57l-29 123l268 96h117l-154 -876h-170z" />
    <glyph glyph-name="threeeighths" unicode="&#x215c;" horiz-adv-x="1798" 
d="M457 0l717 1462h196l-719 -1462h-194zM1360 397q-80 0 -124 -49t-44 -139q0 -96 113 -96q77 0 121 50t44 140q1 94 -110 94zM1427 770q-71 0 -111 -46t-40 -128q0 -88 100 -88q70 0 110 47t40 131t-99 84zM1292 -12q-266 0 -266 190q0 213 141 287q-45 49 -45 121
q0 129 71 216t249 87q238 0 237 -176q0 -160 -108 -248q68 -45 67 -137q0 -340 -346 -340zM414 1106q76 0 126 40t50 92t-27 77t-74 24q-104 0 -141 -94l-151 17q33 112 109 162t208 51q250 0 250 -187q0 -113 -59 -182q-18 -20 -76 -57q88 -57 88 -172t-72 -201
q-91 -102 -279 -102t-249 85q-27 35 -27 109v25l166 24q0 -109 123 -108q76 0 122 45t46 120q0 115 -144 115h-88l21 117h78z" />
    <glyph glyph-name="fiveeighths" unicode="&#x215d;" horiz-adv-x="1798" 
d="M451 0l718 1462h197l-719 -1462h-196zM1360 397q-80 0 -124 -49t-44 -139q0 -96 113 -96q77 0 121 50t44 140q1 94 -110 94zM1425 770q-71 0 -109 -46t-38 -128q0 -88 98 -88q68 0 108 47t40 131t-99 84zM1292 -12q-266 0 -266 190q0 213 141 287q-45 49 -45 121
q0 129 71 216t247 87q238 0 237 -178q0 -158 -106 -246q68 -47 67 -137q0 -340 -346 -340zM279 815q1 -111 117 -111q62 0 104 58q43 57 43 156t-99 100q-76 0 -135 -55l-123 24l129 475h473l-22 -137h-330l-57 -205q51 20 104 21q113 0 175 -49q102 -80 41 -290
q-22 -77 -56 -120q-86 -109 -283 -109q-248 0 -247 193q0 16 2 27z" />
    <glyph glyph-name="seveneighths" unicode="&#x215e;" horiz-adv-x="1798" 
d="M383 0l719 1462h194l-718 -1462h-195zM1329 397q-80 0 -124 -49t-44 -139q0 -96 113 -96q78 0 122 50t44 142t-111 92zM1395 770q-70 0 -110 -46t-40 -128q0 -88 101 -88q68 0 108 47t39 127q0 88 -98 88zM1608 328q0 -340 -346 -340q-266 0 -267 190q1 215 142 287
q-45 49 -45 121q0 129 70 216t247 87q238 0 238 -176q0 -160 -107 -248q68 -45 68 -137zM174 586l426 739h-354l22 137h541l-16 -100l-431 -776h-188z" />
    <glyph glyph-name="arrowleft" unicode="&#x2190;" horiz-adv-x="1638" 
d="M1511 645h-1126l363 -362l-130 -129l-526 542v78l526 543l130 -129l-363 -363h1126v-180z" />
    <glyph glyph-name="arrowup" unicode="&#x2191;" horiz-adv-x="1638" 
d="M700 0v1184l-360 -363l-129 129l543 527h77l543 -527l-129 -129l-360 363l-2 -1184h-183z" />
    <glyph glyph-name="arrowright" unicode="&#x2192;" horiz-adv-x="1638" 
d="M129 645v180h1126l-362 363l127 129l528 -543v-78l-526 -542l-129 129l362 362h-1126z" />
    <glyph glyph-name="arrowdown" unicode="&#x2193;" horiz-adv-x="1638" 
d="M700 1462h183v-1183l362 362l129 -129l-543 -526h-77l-543 526l129 129l360 -362v1183z" />
    <glyph glyph-name="arrowboth" unicode="&#x2194;" horiz-adv-x="1638" 
d="M1294 645h-950l315 -315l-129 -127l-479 493v78l479 494l129 -127l-315 -316h950l-315 316l129 127l479 -494v-78l-479 -493l-129 127z" />
    <glyph glyph-name="arrowupdn" unicode="&#x2195;" horiz-adv-x="1638" 
d="M702 236v991l-313 -316l-129 129l494 480h77l496 -480l-129 -129l-313 316l-2 -991l315 315l129 -129l-496 -479h-75l-496 479l129 129z" />
    <glyph glyph-name="uni2196" unicode="&#x2196;" horiz-adv-x="1638" 
d="M469 461h-182v753l67 68h754v-180h-512l803 -805l-127 -127l-803 805v-514z" />
    <glyph glyph-name="uni2197" unicode="&#x2197;" horiz-adv-x="1638" 
d="M530 1102v180h754l68 -68l2 -753h-183v514l-804 -805l-127 127l802 805h-512z" />
    <glyph glyph-name="uni2198" unicode="&#x2198;" horiz-adv-x="1638" 
d="M1169 997h183v-751l-70 -68h-754v180h512l-802 803l127 127l804 -803v512z" />
    <glyph glyph-name="uni2199" unicode="&#x2199;" horiz-adv-x="1638" 
d="M1110 356v-180h-754l-69 68v753h182v-514l803 807l129 -129l-805 -805h514z" />
    <glyph glyph-name="partialdiff" unicode="&#x2202;" 
d="M805 688q0 188 -191 189q-122 0 -192 -76t-96 -238l-21 -110q-10 -61 -10 -119q0 -190 190 -191q121 0 191 74q69 74 98 236l19 110q12 59 12 125zM1012 764q0 -117 -17 -211l-24 -139q-39 -230 -156 -332t-336 -102q-391 0 -391 323q0 70 16 162l25 137q37 211 135 309
q119 125 322 125q129 0 207 -51l-2 6q0 2 -7 19t-30 79t-51 98t-117 95q-68 41 -170 59l49 136q262 -35 391 -189q156 -190 156 -524z" />
    <glyph glyph-name="emptyset" unicode="&#x2205;" 
d="M768 1012l-324 -604q63 -18 109 -19q141 0 234 99t94 251q0 87 -26 147t-87 126zM520 1096q-127 0 -223 -96t-96 -252q1 -96 29 -160t100 -129l327 612q-106 25 -137 25zM1022 741q0 -211 -134 -348t-339 -137q-74 0 -166 27l-195 -365l-114 45l194 369
q-209 141 -209 411q0 209 131 344q62 66 152 104t170 38t205 -33l176 326l115 -45l-179 -336q193 -147 193 -400z" />
    <glyph glyph-name="Delta" unicode="&#x2206;" 
d="M844 174l-168 991l-520 -991h688zM1102 0h-1276l803 1462h184z" />
    <glyph glyph-name="product" unicode="&#x220f;" horiz-adv-x="1232" 
d="M-18 -424l331 1886h942l-333 -1886h-211l299 1700h-516l-299 -1700h-213z" />
    <glyph glyph-name="summation" unicode="&#x2211;" horiz-adv-x="1169" 
d="M-57 -424l26 145l572 857l-269 743l25 141h954l-30 -178h-691l261 -711l-531 -817h717l-31 -180h-1003z" />
    <glyph glyph-name="minus" unicode="&#x2212;" 
d="M102 653l29 168h948l-28 -168h-949z" />
    <glyph glyph-name="uni2215" unicode="&#x2215;" horiz-adv-x="350" 
d="M-223 0l719 1462h194l-717 -1462h-196z" />
    <glyph glyph-name="uni2218" unicode="&#x2218;" 
d="M553 995q-113 -1 -189 -75t-75 -186q0 -112 75 -186q74 -74 188 -75q114 0 190 75q76 74 75 186q1 112 -75 186t-189 75zM552 369q-160 0 -268 105t-108 260q0 154 110 260t268 106q160 0 268 -106t108 -260q0 -155 -109 -260t-269 -105z" />
    <glyph glyph-name="uni2219" unicode="&#x2219;" horiz-adv-x="585" 
d="M201 621l41 229h219l-41 -229h-219z" />
    <glyph glyph-name="radical" unicode="&#x221a;" 
d="M305 0l-110 592h-154l31 176h303l74 -487l665 1523h559l-26 -147h-381l-744 -1657h-217z" />
    <glyph glyph-name="infinity" unicode="&#x221e;" horiz-adv-x="1576" 
d="M1130 559q72 0 122 49t50 128t-50 128t-130 49q-121 0 -239 -157l-15 -21l17 -22q68 -84 121 -119q52 -35 124 -35zM445 559q71 0 123 34t122 120l17 22l-15 21q-117 158 -239 157q-80 0 -130 -49q-51 -49 -51 -128t50 -128t123 -49zM420 408q-136 0 -224 88t-90 240
q0 152 90 239q90 88 242 88t260 -90q16 -16 88 -107q12 12 37 45t43 51t58 44q94 57 230 57t226 -88q88 -88 88 -240q0 -151 -89 -239t-241 -88t-261 92q-28 26 -89 106q-16 -16 -16 -22q-68 -86 -121 -119q-95 -57 -231 -57z" />
    <glyph glyph-name="integral" unicode="&#x222b;" horiz-adv-x="903" 
d="M270 -43q80 0 105 61q14 35 14 195l2 932q0 238 35 328q55 150 244 149q78 0 166 -25l-37 -163q-47 18 -84 18q-80 0 -105 -61q-14 -35 -14 -189l-2 -938q0 -238 -35 -327q-57 -150 -244 -150q-69 0 -165 25l36 163q53 -18 84 -18z" />
    <glyph glyph-name="similar" unicode="&#x223c;" 
d="M422 895q59 0 99 -15t125 -76t138 -61q92 0 174 136l119 -37q-121 -258 -317 -258q-90 0 -178 62t-116 76t-63 13q-96 0 -176 -145l-123 28q68 152 140 214t178 63z" />
    <glyph glyph-name="uni2243" unicode="&#x2243;" 
d="M455 1079q57 0 99 -16t126 -76q84 -59 134 -59q52 0 91 30t86 105l119 -35q-66 -137 -139 -199q-74 -61 -170 -61q-95 0 -185 62t-118 76q-28 13 -62 14q-98 -1 -174 -144l-125 29q63 150 136 212t182 62zM104 483l29 164h887l-29 -164h-887z" />
    <glyph glyph-name="approxequal" unicode="&#x2248;" 
d="M453 1079q59 0 101 -16t126 -76t137 -59q90 0 172 135l119 -35q-63 -136 -138 -198t-170 -62q-94 0 -184 62t-118 76q-28 13 -64 14q-94 -1 -174 -144l-123 29q63 150 136 212t180 62zM752 557q92 0 172 135l120 -37q-63 -135 -139 -196q-165 -132 -375 14q-70 49 -98 63
t-61 13q-96 0 -176 -143l-123 28q63 150 136 212t181 63q57 1 98 -15t127 -76t138 -61z" />
    <glyph glyph-name="notequal" unicode="&#x2260;" 
d="M104 483l29 164h307l117 178h-391l27 164h466l154 242l143 -70l-110 -172h233l-28 -164h-308l-116 -178h393l-29 -164h-467l-153 -241l-142 69l109 172h-234z" />
    <glyph glyph-name="lessequal" unicode="&#x2264;" 
d="M20 0l29 168h825l-28 -168h-826zM393 768l541 -264l-33 -187l-756 394l25 133l893 391l-35 -203z" />
    <glyph glyph-name="greaterequal" unicode="&#x2265;" 
d="M80 0l29 168h825l-29 -168h-825zM805 784l-541 265l33 186l756 -391l-23 -133l-895 -394l37 203z" />
    <glyph glyph-name="dotmath" unicode="&#x22c5;" horiz-adv-x="585" 
d="M201 621l41 229h219l-41 -229h-219z" />
    <glyph glyph-name="filledrect" unicode="&#x25ac;" 
d="M219 401v666h668v-666h-668z" />
    <glyph glyph-name="uni25B4" unicode="&#x25b4;" 
d="M150 389l403 807l405 -807h-808z" />
    <glyph glyph-name="uni25B8" unicode="&#x25b8;" 
d="M240 332v807l807 -404z" />
    <glyph glyph-name="uni25BE" unicode="&#x25be;" 
d="M150 1079h808l-403 -805z" />
    <glyph glyph-name="uni25C2" unicode="&#x25c2;" 
d="M866 332l-807 403l807 404v-807z" />
    <glyph glyph-name="lozenge" unicode="&#x25ca;" 
d="M236 717l317 -461l315 461l-315 463zM-2 717l555 778l555 -778l-555 -776z" />
    <glyph glyph-name="openbullet" unicode="&#x25e6;" 
d="M553 995q-113 -1 -189 -75t-75 -186q0 -112 75 -186q74 -74 188 -75q114 0 190 75q76 74 75 186q1 112 -75 186t-189 75zM552 369q-160 0 -268 105t-108 260q0 154 110 260t268 106q160 0 268 -106t108 -260q0 -155 -109 -260t-269 -105z" />
    <glyph glyph-name="commaaccent" unicode="&#xf6c3;" horiz-adv-x="1024" 
d="M188 -469l164 332h203l-223 -332h-144z" />
    <glyph glyph-name="Acute" unicode="&#xf6c9;" horiz-adv-x="1024" 
d="M584 1606l213 303h241l-297 -303h-157z" />
    <glyph glyph-name="Caron" unicode="&#xf6ca;" horiz-adv-x="1024" 
d="M717 1737l160 161h217l-318 -288h-143l-217 288h198z" />
    <glyph glyph-name="Dieresis" unicode="&#xf6cb;" horiz-adv-x="1024" 
d="M815 1618l41 233h186l-41 -233h-186zM410 1618l41 233h186l-41 -233h-186z" />
    <glyph glyph-name="Grave" unicode="&#xf6ce;" horiz-adv-x="1024" 
d="M829 1606h-151l-193 303h232z" />
    <glyph glyph-name="Hungarumlaut" unicode="&#xf6cf;" horiz-adv-x="1024" 
d="M764 1606l180 303h215l-248 -303h-147zM459 1606l180 303h215l-248 -303h-147z" />
    <glyph glyph-name="Macron" unicode="&#xf6d0;" horiz-adv-x="1024" 
d="M430 1671l27 150h573l-26 -150h-574z" />
    <glyph glyph-name="zerooldstyle" unicode="&#xf730;" horiz-adv-x="1077" 
d="M776 797q0 162 -170 161q-102 0 -156 -68t-83 -233l-37 -206q-16 -92 -17 -146q0 -156 162 -155q109 0 165 68t85 233l35 206q16 82 16 140zM991 809q0 -84 -18 -178l-37 -207q-22 -131 -56 -207t-92 -127q-117 -110 -309 -110q-379 1 -381 315q1 73 21 182l37 207
q44 240 152 342t299 102q384 -2 384 -319z" />
    <glyph glyph-name="oneoldstyle" unicode="&#xf731;" horiz-adv-x="729" 
d="M199 0l153 881l-237 -97l-62 160l412 164h147l-194 -1108h-219z" />
    <glyph glyph-name="twooldstyle" unicode="&#xf732;" horiz-adv-x="925" 
d="M-70 0l25 135l397 322q164 131 236 220t71 161q1 120 -161 120t-228 -165l-188 47q109 289 434 288q360 0 361 -274q0 -137 -86 -240q-47 -57 -89 -95t-196 -157l-244 -192h518l-28 -170h-822z" />
    <glyph glyph-name="threeoldstyle" unicode="&#xf733;" horiz-adv-x="978" 
d="M385 520q127 0 205 79t78 208q0 150 -150 149q-70 0 -125 -40t-82 -111l-188 49q66 148 159 210q94 62 258 62t257 -78q92 -79 92 -236t-94 -267q-55 -63 -162 -109q80 -47 110 -80q72 -82 72 -200q0 -193 -104 -324q-129 -168 -410 -168q-358 0 -403 254l206 68
q14 -80 60 -116t135 -36q160 0 236 121q57 89 57 189t-62 152t-174 52h-133l29 172h133z" />
    <glyph glyph-name="fouroldstyle" unicode="&#xf734;" horiz-adv-x="958" 
d="M465 -315l57 315h-583l22 133l606 975h232l-600 -942h352l72 409h186l-72 -409h140l-29 -168h-139l-56 -313h-188z" />
    <glyph glyph-name="fiveoldstyle" unicode="&#xf735;" horiz-adv-x="1026" 
d="M545 582q151 0 235 -80t84 -212t-33 -255t-83 -193q-131 -178 -404 -178q-346 0 -389 254l207 68q18 -152 183 -152t239 154q57 119 57 258q0 168 -168 168q-115 0 -215 -90l-154 32l199 752h668l-31 -180h-487l-109 -396l18 9q109 41 183 41z" />
    <glyph glyph-name="sixoldstyle" unicode="&#xf736;" horiz-adv-x="1097" 
d="M594 758q-143 0 -203 -121q-72 -137 -72 -313t168 -174q143 0 205 133q68 141 68 308t-166 167zM983 616q0 -132 -33 -263t-85 -207t-153 -121t-229 -45q-188 0 -286 82t-99 243q0 195 80 365q37 84 129 204l418 553h244l-412 -528q76 18 123 19q137 0 220 -85t83 -217z
" />
    <glyph glyph-name="sevenoldstyle" unicode="&#xf737;" horiz-adv-x="825" 
d="M-78 -315l678 1245h-555l33 178h782l-24 -129l-664 -1294h-250z" />
    <glyph glyph-name="eightoldstyle" unicode="&#xf738;" horiz-adv-x="1124" 
d="M590 666q-156 0 -217 -99q-66 -100 -66 -262t191 -162q152 0 215 109q66 106 65 258q0 156 -188 156zM698 1284q-127 0 -184 -90q-55 -100 -55 -231q0 -139 157 -140q132 -1 186 99t54 223q0 139 -158 139zM252 989q0 183 100 321t346 138q365 0 365 -299
q0 -281 -207 -385q139 -82 139 -258q1 -94 -29 -196t-77 -167q-117 -164 -389 -163q-410 0 -410 323q0 109 32 208t86 159t144 94q-100 88 -100 225z" />
    <glyph glyph-name="nineoldstyle" unicode="&#xf739;" horiz-adv-x="1097" 
d="M621 958q-147 0 -209 -133q-68 -141 -68 -305q0 -170 168 -170q139 0 201 121q31 55 51 149t20 168q1 170 -163 170zM121 492q0 132 33 263q33 130 82 201q117 172 387 172q188 0 285 -82q98 -82 98 -260t-80 -350q-35 -78 -129 -203l-416 -548h-244l410 524
q-74 -18 -123 -19q-137 0 -220 85t-83 217z" />
    <glyph glyph-name="Dbreve" horiz-adv-x="1382" 
d="M684 1855q0 -109 154 -108q88 0 132 32t68 115h138q-20 -129 -64 -186q-84 -115 -278 -115q-289 0 -289 213q0 31 8 88h135q-4 -23 -4 -39zM1083 1049q0 127 -94 192q-63 45 -215 45h-223l-197 -1110h226q190 -4 290 89t142 315l53 303q18 104 18 166zM815 1462
q236 0 342 -80q147 -106 148 -305q0 -68 -23 -203l-59 -339q-80 -541 -611 -535h-508l258 1462h453z" />
    <glyph glyph-name="ahungarumlaut" horiz-adv-x="1081" 
d="M721 1190l180 301h215l-248 -301h-147zM416 1190l180 301h215l-248 -301h-147zM502 471q-141 0 -199 -57q-55 -59 -55 -164q0 -59 43 -85t163 -26t181 64q31 35 49 131l23 137h-205zM580 893q-143 0 -248 -105l-125 103q150 170 391 170q178 0 270 -69t93 -201
q0 -66 -19 -175l-111 -616h-163l-9 49q-92 -69 -271 -69t-262 57t-83 182q0 199 93 299t339 100h258l10 60q8 45 9 80q0 135 -172 135z" />
    <glyph glyph-name="uni0204.sc" horiz-adv-x="989" 
d="M586 1251h-148l-141 303h215zM891 1251h-146l-143 303h215zM57 0l195 1108h725l-31 -168h-514l-51 -295h436l-31 -168h-436l-53 -309h518l-31 -168h-727z" />
    <glyph glyph-name="uni0206.sc" horiz-adv-x="989" 
d="M846 1298q0 106 -154 107q-88 0 -131 -32t-69 -116h-138q20 129 64 187q84 117 278 117q289 0 289 -215q0 -32 -8 -89h-135q4 25 4 41zM86 0l195 1108h725l-31 -168h-514l-51 -295h436l-31 -168h-436l-53 -309h518l-31 -168h-727z" />
    <glyph glyph-name="uni0208.sc" horiz-adv-x="563" 
d="M350 1251h-147l-142 303h215zM655 1251h-145l-143 303h215zM84 0l197 1108h211l-195 -1108h-213z" />
    <glyph glyph-name="uni020A.sc" horiz-adv-x="563" 
d="M592 1298q0 106 -154 107q-88 0 -131 -32t-69 -116h-138q20 129 64 187q84 117 278 117q289 0 289 -215q0 -32 -8 -89h-135q4 25 4 41zM84 0l195 1108h213l-197 -1108h-211z" />
    </font>
</defs>
</svg>
