<?xml version="1.0" standalone="no"?>
<!DOCTYPE svg PUBLIC "-//W3C//DTD SVG 1.1//EN" "http://www.w3.org/Graphics/SVG/1.1/DTD/svg11.dtd" >
<svg xmlns="http://www.w3.org/2000/svg">
<metadata></metadata>
<defs>
<font id="muriza_basicextrabold" horiz-adv-x="1040" >
<font-face units-per-em="2048" ascent="1589" descent="-459" />
<missing-glyph horiz-adv-x="528" />
<glyph horiz-adv-x="0" />
<glyph horiz-adv-x="682" />
<glyph unicode=" "  horiz-adv-x="528" />
<glyph unicode="&#x09;" horiz-adv-x="528" />
<glyph unicode="&#xa0;" horiz-adv-x="528" />
<glyph unicode="!" horiz-adv-x="595" d="M111 158q0 81 52 133.5t136 52.5t136 -52.5t52 -133.5t-52 -134t-136 -53t-136 53t-52 134zM111 1352h374l-47 -903h-280z" />
<glyph unicode="&#x22;" horiz-adv-x="1060" d="M131 1352h330l-47 -574h-236zM598 1352h332l-49 -574h-236z" />
<glyph unicode="#" horiz-adv-x="1095" d="M35 330v198h174l33 224h-181v198h211l43 293h234l-45 -293h184l45 293h234l-45 -293h139v-198h-168l-35 -224h176v-198h-205l-49 -330h-233l49 330h-184l-50 -330h-233l49 330h-143zM440 528h185l34 224h-184z" />
<glyph unicode="$" d="M80 96v332h256v-174q92 -10 151 -10q82 0 122 23t40 87q0 51 -33 77.5t-135 66.5l-104 41q-64 25 -109.5 52t-86 67t-61 96.5t-20.5 128.5q0 144 81.5 231.5t219.5 116.5v282h256v-276q142 -18 258 -68v-319h-256v158q-58 6 -102 6q-77 0 -113 -23t-36 -78q0 -46 32 -75 t123 -64l96 -37q79 -31 129.5 -59t92.5 -67.5t61 -92.5t19 -125q0 -145 -77.5 -234t-226.5 -120v-281h-256v269q-171 15 -321 69z" />
<glyph unicode="%" horiz-adv-x="1740" d="M31 944q0 214 90.5 319t245.5 105q158 0 250 -105t92 -319q0 -213 -92 -316.5t-250 -103.5q-155 0 -245.5 103.5t-90.5 316.5zM291 946q0 -109 8.5 -165t24 -73.5t45.5 -17.5q31 0 47.5 17.5t25.5 73.5t9 165q0 108 -9 164t-25.5 74t-47.5 18q-30 0 -45.5 -18t-24 -74 t-8.5 -164zM512 0l248 676l221 676h248l-244 -676l-223 -676h-250zM1032 403q0 214 90.5 319t245.5 105q157 0 249.5 -105t92.5 -319q0 -212 -92.5 -315.5t-249.5 -103.5q-155 0 -245.5 103t-90.5 316zM1292 406q0 -109 8.5 -165t24 -73.5t45.5 -17.5q31 0 47.5 17.5 t25.5 73.5t9 165q0 108 -9 164t-25.5 74t-47.5 18q-30 0 -45.5 -18t-24 -74t-8.5 -164z" />
<glyph unicode="&#x26;" horiz-adv-x="1273" d="M25 340q0 61 14.5 110.5t48 93t75 79.5t107.5 82q-133 180 -133 346q0 154 102.5 240.5t274.5 86.5q169 0 271 -83.5t102 -221.5q0 -100 -52 -186t-149 -172l164 -174q28 109 33 211h366v-215h-137q-27 -104 -72 -199l68 -72q47 -53 111 -53q5 0 15.5 1t14.5 1v-215 q-91 -25 -149 -25q-150 0 -266 111q-160 -115 -373 -115q-198 0 -317 94.5t-119 274.5zM358 354q0 -76 46.5 -118.5t119.5 -42.5q84 0 156 57l-242 264q-41 -39 -60.5 -76t-19.5 -84zM459 1061q0 -85 73 -174q101 84 101 176q0 96 -84 96q-43 0 -66.5 -25.5t-23.5 -72.5z " />
<glyph unicode="'" horiz-adv-x="591" d="M131 1352h330l-47 -574h-236z" />
<glyph unicode="(" horiz-adv-x="624" d="M61 567q0 179 33 341.5t90.5 287t123.5 219t143 164.5l167 -111q-112 -160 -181.5 -388t-69.5 -513q0 -286 69.5 -513.5t181.5 -389.5l-167 -110q-77 70 -143 164t-123.5 219t-90.5 287.5t-33 342.5z" />
<glyph unicode=")" horiz-adv-x="624" d="M6 -336q112 162 182 389.5t70 513.5q0 285 -70 513t-182 388l166 111q77 -70 143.5 -164.5t123.5 -219t89.5 -287t32.5 -341.5q0 -180 -32.5 -342.5t-89.5 -287.5t-123.5 -219t-143.5 -164z" />
<glyph unicode="*" horiz-adv-x="882" d="M43 958v230l219 -14l-119 188l199 115l100 -199l103 199l196 -117l-118 -186l219 14v-230l-219 13l118 -191l-198 -110l-101 196l-102 -196l-197 112l119 189z" />
<glyph unicode="+" d="M76 483v230h317v325h258v-325h316v-230h-316v-325h-258v325h-317z" />
<glyph unicode="," horiz-adv-x="536" d="M10 -209q165 84 226 201q-67 5 -113.5 54.5t-46.5 123.5q0 79 54.5 127.5t131.5 48.5q89 0 154 -69t65 -187q0 -156 -116 -273.5t-285 -164.5z" />
<glyph unicode="-" horiz-adv-x="540" d="M45 393v217h451v-217h-451z" />
<glyph unicode="." horiz-adv-x="509" d="M63 162q0 82 53.5 135t139.5 53q84 0 137 -53t53 -135q0 -83 -53 -137t-137 -54q-85 0 -139 54t-54 137z" />
<glyph unicode="/" horiz-adv-x="940" d="M27 -74l608 1499h278l-608 -1499h-278z" />
<glyph unicode="0" horiz-adv-x="1099" d="M45 674q0 352 135.5 528t368.5 176t369.5 -176t136.5 -528q0 -178 -37 -314t-105 -220t-159.5 -126.5t-204.5 -42.5q-232 0 -368 176t-136 527zM410 676q0 -191 13 -290.5t42 -138t84 -38.5q57 0 87 39t43 137.5t13 290.5q0 191 -13 289.5t-43 138t-87 39.5 q-55 0 -84 -39t-42 -138.5t-13 -289.5z" />
<glyph unicode="1" horiz-adv-x="876" d="M33 1047v219l377 86h229l2 -1131h197v-221h-783v221h234v838z" />
<glyph unicode="2" horiz-adv-x="1030" d="M29 0v190l389 453q82 92 117.5 160.5t35.5 154.5q0 101 -45 143t-129 42q-31 0 -45 -2v-236h-299v363q65 49 173 79.5t227 30.5q101 0 186.5 -25t152.5 -74t104.5 -130.5t37.5 -187.5q0 -58 -13 -110.5t-33 -94.5t-60 -94t-76.5 -91.5t-100.5 -105.5l-225 -236h238v129 h297v-358h-932z" />
<glyph unicode="3" d="M45 168l92 176q142 -92 285 -92q196 0 196 160q0 75 -43 118t-126 43h-111v222h96q141 0 141 176q0 95 -38 133.5t-125 38.5q-27 0 -39 -2v-234h-291v363q147 108 389 108q99 0 181 -21.5t148 -66t103 -121t37 -178.5q0 -223 -188 -299q231 -70 231 -313 q0 -128 -64.5 -222t-171.5 -140t-243 -46q-140 0 -261 50t-198 147z" />
<glyph unicode="4" horiz-adv-x="1138" d="M23 311v178l446 863h268h189v-822h168v-219h-168v-106h116v-205h-626v205h178v106h-571zM326 530h282v406q0 48 10 205q-29 -91 -79 -193z" />
<glyph unicode="5" horiz-adv-x="1015" d="M39 168l94 176q146 -92 283 -92q93 0 146.5 44t53.5 132q0 82 -45 128t-120 46q-92 0 -142 -74h-176v824h754v-283h-488v-270q76 43 185 43q79 0 148.5 -26t124.5 -76.5t87.5 -133t32.5 -188.5q0 -113 -37 -200t-103 -140t-151.5 -80t-187.5 -27q-136 0 -257.5 49.5 t-201.5 147.5z" />
<glyph unicode="6" horiz-adv-x="1046" d="M45 633q0 185 41.5 328.5t117 234t177 136.5t225.5 46q228 0 361 -143l-88 -170q-91 49 -207 49q-138 0 -205.5 -85t-73.5 -281q82 104 244 104q75 0 139.5 -24t115.5 -73t80 -131t29 -190q0 -119 -36 -209.5t-99.5 -145t-145 -81.5t-177.5 -27q-218 0 -348 142 q-150 166 -150 520zM410 416q0 -107 27.5 -157t90.5 -50q60 0 86.5 48.5t26.5 154.5q0 108 -26 154t-89 46t-89.5 -45.5t-26.5 -150.5z" />
<glyph unicode="7" horiz-adv-x="974" d="M20 879v473h930v-185l-448 -1167h-381l459 1069h-261v-190h-299z" />
<glyph unicode="8" horiz-adv-x="1089" d="M57 377q0 244 205 338q-178 82 -178 291q0 121 61.5 206.5t163.5 125.5t236 40q205 0 332 -95.5t127 -276.5q0 -211 -179 -293q207 -94 207 -338q0 -86 -27.5 -155.5t-73.5 -115t-109.5 -76.5t-132 -44t-144.5 -13t-144.5 13t-132.5 44t-110 76.5t-73.5 115.5t-27.5 157z M418 403q0 -102 30 -152t97 -50t97 50t30 152q0 103 -29.5 156t-97.5 53q-127 0 -127 -209zM426 987q0 -174 119 -174t119 174q0 80 -26.5 122t-92.5 42q-64 0 -91.5 -42t-27.5 -122z" />
<glyph unicode="9" horiz-adv-x="1046" d="M45 915q0 119 36 210t99.5 145t144.5 81t177 27q223 0 348 -139q149 -162 149 -520q0 -185 -41.5 -329t-117 -235t-177 -137.5t-225.5 -46.5q-225 0 -360 146l90 168q89 -47 209 -47q138 0 204 85t70 281q-79 -104 -241 -104q-75 0 -139.5 24t-116 72.5t-80.5 130 t-29 188.5zM403 940q0 -107 27.5 -154t89.5 -47q61 0 88 46t27 151q0 106 -27.5 156.5t-89.5 50.5q-60 0 -87.5 -48.5t-27.5 -154.5z" />
<glyph unicode=":" horiz-adv-x="536" d="M86 154q0 77 50.5 127.5t131.5 50.5t132 -50.5t51 -127.5q0 -80 -51 -131.5t-132 -51.5t-131.5 51.5t-50.5 131.5zM86 805q0 79 50.5 129.5t131.5 50.5t132 -50.5t51 -129.5q0 -77 -51 -127.5t-132 -50.5t-131.5 50.5t-50.5 127.5z" />
<glyph unicode=";" horiz-adv-x="536" d="M12 -209q167 87 228 201q-68 5 -114 54t-46 124q0 79 54 127.5t130 48.5q89 0 154 -69t65 -187q0 -80 -32.5 -152t-88.5 -127t-127.5 -95.5t-152.5 -63.5zM86 805q0 79 50.5 129.5t131.5 50.5t132 -50.5t51 -129.5q0 -77 -51 -127.5t-132 -50.5t-131.5 50.5t-50.5 127.5z " />
<glyph unicode="&#x3c;" d="M90 506v188l846 334v-244l-473 -184l473 -184v-246z" />
<glyph unicode="=" d="M94 276v230h854v-230h-854zM94 696v228h854v-228h-854z" />
<glyph unicode="&#x3e;" d="M102 170v246l476 184l-476 184v244l848 -334v-188z" />
<glyph unicode="?" horiz-adv-x="937" d="M23 889v381q179 108 430 108q101 0 182 -20.5t144 -63t97.5 -114.5t34.5 -170q0 -112 -48.5 -192.5t-157.5 -160.5q-94 -65 -123 -97.5t-29 -84.5v-26h-279q-6 30 -6 61q0 44 16.5 83.5t36 65t64.5 76.5q67 75 94 131.5t27 130.5q0 83 -33.5 114.5t-107.5 31.5 q-38 0 -58 -2v-252h-284zM227 158q0 80 52.5 133t136.5 53t137 -53t53 -133t-53 -133.5t-137 -53.5t-136.5 53t-52.5 134z" />
<glyph unicode="@" horiz-adv-x="1646" d="M45 455q0 149 43 278.5t119 225t177 164t219.5 103t244.5 34.5q156 0 295.5 -54.5t241.5 -150.5t161.5 -235.5t59.5 -301.5q0 -227 -108 -357t-286 -130q-104 0 -166.5 43t-80.5 116q-10 -54 -47 -91t-85.5 -52.5t-105.5 -15.5q-113 0 -182.5 68t-69.5 180 q0 116 80.5 179.5t237.5 63.5h120v29q0 62 -31.5 87.5t-95.5 25.5q-106 0 -217 -58l-77 154q54 66 147 103.5t203 37.5q160 0 249 -82.5t89 -238.5v-254q0 -43 24 -69t68 -26q70 0 107.5 68t37.5 193q0 265 -153.5 429t-411.5 164q-172 0 -310 -75t-220 -220t-82 -337 q0 -136 42.5 -248.5t117.5 -189t179 -118.5t226 -42q81 0 153 10v-162q-70 -22 -174 -22q-117 0 -226 33t-202 99t-162.5 158t-109 216.5t-39.5 267.5zM764 303q0 -28 16 -46.5t47 -18.5q36 0 61 25.5t25 70.5v39h-63q-86 0 -86 -70z" />
<glyph unicode="A" horiz-adv-x="1290" d="M12 0v221h97l315 1131h444l316 -1131h96v-221h-571v221h114l-43 160h-344l-41 -160h107v-221h-490zM496 598h227l-61 227q-50 209 -54 232q-7 -40 -51 -232z" />
<glyph unicode="B" horiz-adv-x="1167" d="M47 0v221h119v909h-119v222h561q102 0 186 -19.5t151 -61t104.5 -113.5t37.5 -169q0 -215 -204 -284q126 -28 185.5 -105t59.5 -211q0 -109 -36 -186t-104.5 -120.5t-157.5 -63t-207 -19.5h-576zM506 221h127q74 0 111.5 48.5t37.5 136.5q0 87 -38 134.5t-109 47.5h-129 v-367zM506 805h84q76 0 111.5 40t35.5 124q0 161 -147 161h-84v-325z" />
<glyph unicode="C" horiz-adv-x="1046" d="M45 688q0 177 41 311t115.5 216t173 122.5t219.5 40.5q109 0 208 -29t171 -79v-424h-305v297h-23q-62 0 -102.5 -17t-73 -63.5t-47 -133.5t-14.5 -222q0 -250 64 -352.5t216 -102.5q70 0 124 19.5t108 58.5l94 -187q-68 -83 -171 -127.5t-231 -44.5q-261 0 -414 185 t-153 532z" />
<glyph unicode="D" horiz-adv-x="1247" d="M47 0v221h119v909h-119v222h582q263 0 418 -176t155 -500q0 -323 -155 -499.5t-418 -176.5h-582zM520 221h101q72 0 118.5 43t72.5 144.5t26 265.5q0 244 -54.5 350t-162.5 106h-101v-909z" />
<glyph unicode="E" horiz-adv-x="1087" d="M47 0v221h117v909h-117v222h983v-414h-299v192h-213v-325h256v-219h-256v-365h225v209h299v-430h-995z" />
<glyph unicode="F" horiz-adv-x="1050" d="M47 0v221h117v909h-117v222h977v-426h-297v204h-209v-356h240v-221h-240v-332h156v-221h-627z" />
<glyph unicode="G" horiz-adv-x="1169" d="M45 690q0 348 149 518t414 170q120 0 230.5 -29t181.5 -79v-396h-307v267q-18 2 -56 2q-50 0 -85.5 -9.5t-68.5 -37t-52.5 -77t-31 -131.5t-11.5 -198q0 -185 29.5 -291t88 -150t158.5 -44h31v244h-92v219h497v-219h-80v-357q-83 -58 -193 -89.5t-220 -31.5 q-275 0 -428.5 183.5t-153.5 535.5z" />
<glyph unicode="H" horiz-adv-x="1361" d="M47 0v221h117v909h-117v222h574v-222h-103v-325h326v325h-101v222h574v-222h-119v-909h119v-221h-574v221h101v367h-326v-367h103v-221h-574z" />
<glyph unicode="I" horiz-adv-x="681" d="M47 0v221h117v909h-117v222h590v-222h-119v-909h119v-221h-590z" />
<glyph unicode="J" horiz-adv-x="708" d="M-29 -154q222 0 222 211v1073h-162v222h631v-222h-117v-1067q0 -452 -574 -452v235z" />
<glyph unicode="K" horiz-adv-x="1359" d="M47 0v221h117v909h-117v222h559v-222h-88v-399l340 399h-139v222h608v-222h-106l-344 -380l374 -529h101v-221h-629v221h84l-289 428v-428h88v-221h-559z" />
<glyph unicode="L" d="M47 0v221h117v909h-117v222h627v-222h-156v-909h201v209h307v-430h-979z" />
<glyph unicode="M" horiz-adv-x="1787" d="M51 0v221h121v912h-121v219h545h104l144 -666q38 -222 55 -362q16 146 49 360l135 668h205h447v-219h-117v-912h117v-221h-549v221h100v907q-4 -23 -21 -104.5t-26 -134.5l-201 -889h-336l-200 889l-49 235v-903h100v-221h-502z" />
<glyph unicode="N" horiz-adv-x="1411" d="M51 0v221h119v909h-119v222h588l227 -635q70 -234 99 -377v790h-105v222h504v-222h-117v-1130h-471l-231 639q-61 197 -92 371v-789h104v-221h-506z" />
<glyph unicode="O" horiz-adv-x="1173" d="M45 674q0 347 145.5 525.5t397.5 178.5q249 0 394.5 -179t145.5 -525q0 -345 -145.5 -524t-394.5 -179q-252 0 -397.5 178.5t-145.5 524.5zM410 678q0 -262 36.5 -365.5t141.5 -103.5q104 0 141 104t37 365t-36.5 363t-141.5 102q-106 0 -142 -101.5t-36 -363.5z" />
<glyph unicode="P" horiz-adv-x="1163" d="M47 0v221h117v909h-117v222h600q228 0 360 -104.5t132 -317.5q0 -214 -132.5 -323t-359.5 -109h-129v-277h156v-221h-627zM518 721h88q168 0 168 209q0 200 -168 200h-88v-409z" />
<glyph unicode="Q" horiz-adv-x="1173" d="M45 674q0 347 145.5 525.5t397.5 178.5q249 0 394.5 -179t145.5 -525q0 -252 -79 -416t-224 -235q86 -66 154 -93.5t139 -27.5q41 0 53 2v-226q-41 -14 -106 -14q-55 0 -114.5 14.5t-129.5 47.5t-145.5 96.5t-145.5 150.5q-226 21 -355.5 199t-129.5 502zM410 678 q0 -262 36.5 -365.5t141.5 -103.5q104 0 141 104t37 365t-36.5 363t-141.5 102q-106 0 -142 -101.5t-36 -363.5z" />
<glyph unicode="R" horiz-adv-x="1230" d="M47 0v221h117v909h-117v222h598q110 0 198.5 -23t155.5 -70.5t103.5 -126t36.5 -184.5q0 -243 -185 -344l150 -315q18 -36 37 -52t49 -16h39v-221q-80 -25 -170 -25q-107 0 -177.5 46t-117.5 169l-146 349h-108v-318h98v-221h-561zM510 756h123q151 0 151 190 q0 184 -153 184h-121v-374z" />
<glyph unicode="S" horiz-adv-x="1038" d="M55 53v371h303v-201q59 -6 121 -6q164 0 164 129q0 61 -35 95.5t-129 70.5l-110 45q-293 107 -293 399q0 104 37 185.5t101 132t146 76.5t177 26q207 0 401 -80v-350h-307v187q-50 4 -70 4q-149 0 -149 -129q0 -58 33.5 -94t117.5 -70l103 -41q174 -65 245.5 -156.5 t71.5 -240.5q0 -211 -126 -322t-357 -111q-209 0 -445 80z" />
<glyph unicode="T" horiz-adv-x="1245" d="M20 922v430h1205v-430h-293v208h-133v-909h170v-221h-693v221h170v909h-133v-208h-293z" />
<glyph unicode="U" horiz-adv-x="1282" d="M43 1130v222h563v-222h-100v-747q0 -88 47.5 -131t128.5 -43q78 0 122 42t44 132v747h-96v222h487v-222h-111v-698q0 -222 -125 -341.5t-348 -119.5q-227 0 -363 120.5t-136 340.5v698h-113z" />
<glyph unicode="V" horiz-adv-x="1288" d="M12 1130v222h588v-222h-123l174 -696q17 -68 29 -174q12 76 33 176l170 694h-123v222h520v-222h-102l-312 -1130h-442l-313 1130h-99z" />
<glyph unicode="W" horiz-adv-x="1947" d="M37 1130v222h579v-222h-129l111 -645q25 -199 27 -237q7 76 30 237l148 867h385l137 -865q2 -14 27 -239q12 105 34 237l111 645h-127v222h543v-222h-125l-229 -1130h-455l-109 674q-10 83 -19.5 181t-10.5 110q-4 -35 -14.5 -123.5t-20.5 -167.5l-109 -674h-459 l-233 1130h-92z" />
<glyph unicode="X" horiz-adv-x="1288" d="M20 0v221h103l295 488l-279 421h-108v222h577v-222h-84l160 -241l141 241h-86v222h498v-222h-102l-273 -458l299 -451h107v-221h-576v221h86l-180 275l-166 -275h88v-221h-500z" />
<glyph unicode="Y" horiz-adv-x="1292" d="M12 1133v219h611v-219h-119l104 -236q45 -110 74 -219q33 109 80 219l106 236h-120v219h532v-219h-111l-338 -652v-260h170v-221h-692v221h170v248l-352 664h-115z" />
<glyph unicode="Z" horiz-adv-x="1054" d="M23 0v184l577 946h-244v-178h-299v400h934v-183l-585 -948h311v209h307v-430h-1001z" />
<glyph unicode="[" horiz-adv-x="600" d="M133 -379v1895h420v-195h-164v-1505h164v-195h-420z" />
<glyph unicode="\" horiz-adv-x="940" d="M27 1425h278l608 -1499h-278z" />
<glyph unicode="]" horiz-adv-x="600" d="M47 -184h162v1505h-162v195h420v-1895h-420v195z" />
<glyph unicode="^" horiz-adv-x="954" d="M29 758l354 620h188l355 -620h-264l-185 291l-184 -291h-264z" />
<glyph unicode="_" horiz-adv-x="931" d="M45 -123h842v-213h-842v213z" />
<glyph unicode="`" horiz-adv-x="579" d="M55 1380q0 20 16.5 35t39.5 15h280l133 -365h-200l-238 258q-18 18 -24.5 29t-6.5 28z" />
<glyph unicode="a" horiz-adv-x="978" d="M43 252q0 139 91.5 216t264.5 77h140v41q0 74 -36 104.5t-112 30.5q-121 0 -239 -64l-86 174q61 72 164 113t231 41q181 0 285 -90.5t104 -286.5v-336q0 -59 51 -59q16 0 36.5 1t25.5 1v-215q-88 -25 -172 -25q-199 0 -220 183q-19 -91 -85 -139t-167 -48 q-127 0 -201.5 76t-74.5 205zM350 291q0 -38 21 -63t61 -25q50 0 78.5 35t28.5 90v53h-84q-53 0 -79 -24t-26 -66z" />
<glyph unicode="b" horiz-adv-x="1064" d="M29 1210v215h436v-598q58 158 237 158q154 0 233 -118.5t79 -383.5q0 -269 -83 -390.5t-245 -121.5q-205 0 -268 191v-162h-387v215h108v995h-110zM465 479q0 -145 23.5 -203.5t82.5 -58.5q61 0 86 58.5t25 203.5t-25 202.5t-86 57.5q-59 0 -82.5 -58t-23.5 -202z" />
<glyph unicode="c" horiz-adv-x="901" d="M41 487q0 128 35 225t99 156t148 88t187 29q169 0 313 -70v-364h-264v213h-22q-37 0 -63 -8.5t-49.5 -33t-35.5 -75.5t-12 -129q0 -149 49 -213.5t158 -64.5q102 0 196 63l86 -162q-132 -170 -368 -170q-206 0 -331.5 134.5t-125.5 381.5z" />
<glyph unicode="d" horiz-adv-x="1054" d="M51 485q0 263 78.5 381.5t230.5 118.5q185 0 240 -158v383h-111v215h437v-1153q0 -59 51 -59q18 0 37.5 1t23.5 1v-215q-84 -25 -170 -25q-200 0 -221 183v4q-59 -191 -266 -191q-162 0 -246 122.5t-84 391.5zM383 479q0 -145 25 -203.5t84 -58.5q60 0 84 60t24 202 q0 144 -24.5 202t-83.5 58t-84 -57.5t-25 -202.5z" />
<glyph unicode="e" horiz-adv-x="923" d="M41 494q0 123 34.5 218.5t94.5 154t137.5 88.5t167.5 30q183 0 293.5 -118t110.5 -335q0 -74 -13 -141h-495q14 -80 63.5 -120t149.5 -40q64 0 108 15.5t94 48.5l86 -154q-57 -78 -148 -124t-210 -46q-99 0 -184.5 33.5t-150 97.5t-101.5 165t-37 227zM365 578h215 q-1 107 -27 150.5t-82 43.5q-52 0 -76 -41.5t-30 -152.5z" />
<glyph unicode="f" horiz-adv-x="653" d="M29 0v215h110v528h-110v213h110v181q0 151 83.5 234t252.5 83q110 0 207 -29v-215q-46 4 -80 4q-71 0 -104 -26.5t-33 -95.5v-136h174v-213h-174v-528h156v-215h-592z" />
<glyph unicode="g" horiz-adv-x="1007" d="M6 -147q0 107 111 163q-45 51 -45 127q0 81 49.5 134t118.5 75q-77 39 -121.5 113.5t-44.5 175.5q0 162 111 253t290 91q95 0 180 -29h9q73 0 73 95q0 52 -2 77h232q16 -52 16 -118q0 -159 -176 -172q76 -83 76 -197q0 -83 -33.5 -149t-91 -107t-130.5 -62.5t-157 -21.5 h-72q-21 0 -33 -10.5t-12 -28.5q0 -39 45 -39h222q368 0 368 -266q0 -163 -134.5 -254.5t-399.5 -91.5q-219 0 -334 64t-115 178zM276 -88q0 -57 43 -83t162 -26q189 0 189 82q0 56 -74 56h-297h-18q-5 -20 -5 -29zM389 643q0 -75 20 -111t70 -36q51 0 70.5 36t19.5 111 t-19.5 113.5t-70.5 38.5q-50 0 -70 -39t-20 -113z" />
<glyph unicode="h" horiz-adv-x="1107" d="M29 0v215h110v995h-110v215h436v-596q27 76 91 116t149 40q124 0 201 -84t77 -229v-457h109v-215h-435v215v397q0 119 -94 119q-98 0 -98 -123v-393h80v-215h-516z" />
<glyph unicode="i" horiz-adv-x="591" d="M29 0v215h110v528h-110v213h436v-741h110v-215h-546zM82 1249q0 80 53 131.5t137 51.5q83 0 136 -51.5t53 -131.5t-53 -132t-136 -52q-84 0 -137 52t-53 132z" />
<glyph unicode="j" horiz-adv-x="569" d="M-45 -150q23 -2 65 -2q113 0 113 129v766h-110v213h438v-1007q0 -162 -75 -251t-232 -89q-92 0 -199 29v212zM78 1249q0 80 53 131.5t137 51.5q83 0 136 -51.5t53 -131.5t-53 -132t-136 -52q-84 0 -137 52t-53 132z" />
<glyph unicode="k" horiz-adv-x="1095" d="M29 0v215h110v995h-110v215h436v-972l219 290h-109v213h482v-213h-86l-209 -256l180 -223q29 -29 48.5 -40t51.5 -11q8 0 19 1t16 1v-215q-91 -25 -153 -25q-81 0 -147 32t-124 118l-188 260v-170v-215h-436z" />
<glyph unicode="l" horiz-adv-x="602" d="M10 1210v215h436v-1138q0 -41 15.5 -57.5t52.5 -16.5q10 0 32 1t32 1v-215q-83 -25 -185 -25q-140 0 -206 72.5t-66 214.5v948h-111z" />
<glyph unicode="m" horiz-adv-x="1626" d="M29 0v215h110v528h-110v213h389v-159q31 95 103 141.5t165 46.5q100 0 169 -48t99 -134q32 93 101.5 137.5t161.5 44.5q130 0 206 -85t76 -228v-457h109v-215h-434v215v397q0 119 -93 119q-98 0 -98 -123v-393h80v-215h-406v215v397q0 119 -94 119q-98 0 -98 -123v-393 h80v-215h-516z" />
<glyph unicode="n" horiz-adv-x="1107" d="M29 0v215h110v528h-110v213h389v-159q31 95 103 141.5t167 46.5q137 0 216 -85t79 -228v-457h109v-215h-435v215v397q0 119 -94 119q-98 0 -98 -123v-393h80v-215h-516z" />
<glyph unicode="o" horiz-adv-x="972" d="M41 487q0 130 35 228t97.5 156t141 86t172.5 28t172 -28t140.5 -86t97.5 -156t35 -228t-35 -231t-97 -162t-141 -92t-172 -31t-172 31t-141 92t-97.5 162t-35.5 231zM379 481q0 -166 23 -227t85 -61q61 0 85 61.5t24 226.5q0 162 -24 222.5t-85 60.5q-62 0 -85 -60 t-23 -223z" />
<glyph unicode="p" horiz-adv-x="1054" d="M18 -150h109v893h-109v213h388v-159q59 188 264 188q163 0 248.5 -121.5t85.5 -390.5q0 -502 -314 -502q-181 0 -237 158v-279h127v-212h-562v212zM451 479q0 -144 25 -203t85 -59q58 0 82.5 58.5t24.5 203.5q0 144 -24.5 202t-82.5 58q-60 0 -85 -58t-25 -202z" />
<glyph unicode="q" horiz-adv-x="1052" d="M51 473q0 270 84 391t246 121q207 0 264 -188v159h389v-213h-108v-893h110v-212h-563v212h127v279q-56 -158 -238 -158q-152 0 -231.5 119.5t-79.5 382.5zM385 479q0 -146 24.5 -204t84.5 -58q59 0 83.5 59t24.5 203t-24.5 202t-83.5 58q-60 0 -84.5 -57.5t-24.5 -202.5z " />
<glyph unicode="r" horiz-adv-x="780" d="M29 0v215h110v528h-110v213h389v-229q28 133 96.5 195.5t183.5 62.5q32 0 50 -6v-283h-78q-111 0 -158 -56t-47 -146v-279h182v-215h-618z" />
<glyph unicode="s" horiz-adv-x="847" d="M47 37v280h240v-122q82 -11 119 -11q53 0 78.5 16t25.5 56q0 20 -5.5 33.5t-22.5 24t-32.5 16.5t-50.5 18l-69 23q-141 40 -202.5 114.5t-61.5 186.5q0 106 51.5 178t135 103.5t193.5 31.5q162 0 322 -63v-250h-244v98q-50 4 -67 4q-95 0 -95 -61q0 -32 24 -50t87 -38 l64 -21q142 -41 207 -117.5t65 -197.5q0 -157 -104.5 -236.5t-301.5 -79.5q-180 0 -356 64z" />
<glyph unicode="t" horiz-adv-x="684" d="M18 743v213h113l31 261h295v-261h198v-213h-198v-411q0 -69 31.5 -95t101.5 -26q36 0 82 4v-215q-114 -29 -228 -29q-149 0 -232 85.5t-83 228.5v458h-111z" />
<glyph unicode="u" horiz-adv-x="1101" d="M18 743v213h439v-608q0 -121 88 -121q49 0 75.5 32t26.5 91v393h-84v213h410v-684q0 -59 51 -59q18 0 37 1t24 1v-215q-87 -25 -172 -25q-198 0 -219 183q-31 -93 -103 -140t-167 -47q-136 0 -215.5 86t-79.5 228v458h-111z" />
<glyph unicode="v" horiz-adv-x="1036" d="M8 743v213h508v-213h-82l101 -340q18 -63 34 -135q4 23 35 135l98 340h-84v213h410v-213h-82l-237 -743h-383l-238 743h-80z" />
<glyph unicode="w" horiz-adv-x="1601" d="M25 743v213h524v-213h-111l74 -340q12 -50 23 -120q1 8 28 123l150 550h276l150 -550q15 -56 28 -125q4 20 10.5 61t10.5 61l76 340h-95v213h408v-213h-80l-182 -743h-365l-121 451q-21 104 -22 108q-3 -13 -10 -49.5t-13 -58.5l-120 -451h-379l-183 743h-77z" />
<glyph unicode="x" horiz-adv-x="1075" d="M27 0v215h88l207 287l-187 241h-88v213h498v-213h-62l103 -137l92 137h-53v213h401v-213h-84l-186 -262l205 -266h86v-215h-515v215h78l-123 164l-110 -164h69v-215h-419z" />
<glyph unicode="y" horiz-adv-x="1046" d="M8 743v213h520v-213h-84l95 -317q34 -114 45 -166q13 58 41 166l90 317h-86v213h411v-213h-79l-250 -788q-59 -183 -166.5 -264.5t-263.5 -81.5q-90 0 -183 26v213q62 -4 121 -4q120 0 176 43l-293 856h-94z" />
<glyph unicode="z" horiz-adv-x="894" d="M29 0v193l448 550h-180v-125h-248v338h799v-190l-449 -551h213v139h252v-354h-835z" />
<glyph unicode="{" horiz-adv-x="632" d="M12 481v185v30h43q55 0 83 26.5t28 98.5v389q0 151 87 230.5t239 79.5q36 0 94 -4v-195q-75 0 -119.5 -32.5t-44.5 -114.5v-383q0 -132 -105 -203q105 -74 105 -203v-422q0 -82 44.5 -114.5t119.5 -32.5v-195q-58 -4 -92 -4q-155 0 -241.5 79t-86.5 230v428 q0 71 -28.5 99t-82.5 28h-43z" />
<glyph unicode="|" horiz-adv-x="528" d="M135 -190l2 1691h256l-2 -1691h-256z" />
<glyph unicode="}" horiz-adv-x="632" d="M47 -184q75 0 118.5 32t43.5 115v422q0 130 104 203q-104 70 -104 203v383q0 83 -43.5 115t-118.5 32v195q54 4 94 4q151 0 238.5 -79.5t87.5 -230.5v-389q0 -72 27.5 -98.5t83.5 -26.5h43v-186v-29h-43q-55 0 -83 -28t-28 -99v-428q0 -151 -87.5 -230t-242.5 -79 q-36 0 -90 4v195z" />
<glyph unicode="~" d="M68 479q44 299 266 299q74 0 166 -45l65 -26q68 -33 117 -33q41 0 66 23.5t45 72.5l180 -49q-47 -301 -266 -301q-66 0 -166 45l-66 29q-73 32 -117 32q-41 0 -65.5 -24t-44.5 -74z" />
<glyph unicode="&#xa1;" horiz-adv-x="595" d="M109 799q0 82 52 134t136 52t137 -52t53 -134q0 -80 -53 -132.5t-137 -52.5t-136 52.5t-52 132.5zM111 -362l47 872h280l47 -872h-374z" />
<glyph unicode="&#xa2;" d="M111 627q0 198 87 315t240 154v274h246v-268q122 -15 207 -60v-352h-262v199q-8 2 -23 2q-38 0 -64 -8.5t-49.5 -32t-35 -71t-11.5 -120.5q0 -140 49.5 -202t157.5 -62q103 0 195 62l86 -162q-89 -123 -250 -156v-272h-246v274q-152 38 -239.5 163t-87.5 323z" />
<glyph unicode="&#xa3;" d="M47 498v202h121q-49 103 -49 199q0 172 124.5 270.5t319.5 98.5q176 0 279.5 -85.5t122.5 -244.5l-191 -70q-33 86 -77.5 121t-110.5 35q-67 0 -112.5 -36.5t-45.5 -123.5q0 -69 43 -164h248v-202h-174q4 -24 4 -43q0 -131 -100 -205h294v156h244v-406h-903v193 q84 31 133 92.5t49 150.5q0 35 -6 62h-213z" />
<glyph unicode="&#xa4;" d="M20 356l164 164q-37 73 -37 172q0 93 35 168l-162 160l166 170l162 -164q80 39 172 39q97 0 172 -37l160 162l168 -170l-162 -160q35 -75 35 -168q0 -99 -37 -174l164 -162l-168 -168l-164 164q-73 -37 -168 -37q-96 0 -170 39l-162 -166zM399 692q0 -64 31 -100.5 t90 -36.5t90 36.5t31 100.5t-31 99.5t-90 35.5t-90 -35.5t-31 -99.5z" />
<glyph unicode="&#xa5;" d="M10 1047v196h469v-196h-78l91 -189q18 -44 34 -98q6 27 35 98l90 189h-69v196h448v-196h-102l-164 -314h201v-192h-285v-92h285v-187h-285v-92h149v-170h-620v170h151v92h-284v187h284v92h-284v192h198l-163 314h-101z" />
<glyph unicode="&#xa6;" horiz-adv-x="528" d="M135 -190l2 563h256l-2 -563h-256zM137 938v563h256v-563h-256z" />
<glyph unicode="&#xa7;" horiz-adv-x="1021" d="M53 596q0 165 144 268q-66 91 -66 211q0 84 34 150t94 107t137.5 62t168.5 21t177 -19t143 -48v-314h-254v148q-18 2 -58 2q-73 0 -110 -22.5t-37 -84.5q0 -49 28 -78t93 -51l123 -43q153 -51 226 -126.5t73 -196.5q0 -169 -146 -267q68 -89 68 -211q0 -85 -34 -151 t-94 -106.5t-137 -61.5t-167 -21q-164 0 -322 68v315h254v-149q18 -2 60 -2q71 0 109 23t38 83q0 49 -28.5 78t-94.5 51l-121 43q-153 51 -227 127t-74 195zM334 639q0 -47 28 -73.5t103 -53.5l143 -49q8 -2 43 -17q39 48 39 97q0 44 -29.5 71.5t-103.5 53.5l-143 47 q-7 3 -21.5 8t-21.5 8q-37 -46 -37 -92z" />
<glyph unicode="&#xa8;" horiz-adv-x="899" d="M55 1245q0 75 50.5 123.5t125.5 48.5q74 0 125.5 -49t51.5 -123t-51.5 -123t-125.5 -49q-75 0 -125.5 48.5t-50.5 123.5zM494 1245q0 75 50.5 123.5t125.5 48.5q74 0 124 -49t50 -123t-50 -123t-124 -49q-75 0 -125.5 48.5t-50.5 123.5z" />
<glyph unicode="&#xa9;" horiz-adv-x="1478" d="M45 678q0 187 93.5 346.5t253.5 252.5t347 93t347.5 -93t254 -252.5t93.5 -346.5t-93.5 -347t-254 -253.5t-347.5 -93.5t-347 93.5t-253.5 253.5t-93.5 347zM223 678q0 -113 41 -213.5t110.5 -171t164.5 -111.5t200 -41t200 41t164.5 111.5t110.5 171t41 213.5 q0 151 -70 274t-188 191.5t-258 68.5t-258 -68.5t-188 -191.5t-70 -274zM422 684q0 118 46 198.5t121 116t173 35.5q128 0 221 -49v-260h-190v149h-11q-28 0 -46.5 -5.5t-35 -22.5t-24.5 -51.5t-8 -87.5q0 -104 35 -148.5t110 -44.5q73 0 137 41l64 -117q-91 -116 -262 -116 q-147 0 -238.5 95t-91.5 267z" />
<glyph unicode="&#xaa;" horiz-adv-x="632" d="M31 825q0 179 231 179h78v16q0 44 -21.5 61t-70.5 17q-78 0 -152 -39l-53 112q77 97 260 97q252 0 252 -232v-186q0 -37 35 -37h33v-137q-59 -19 -117 -19q-130 0 -144 113q-10 -53 -56 -83t-109 -30q-76 0 -121 44.5t-45 123.5zM61 389v176h543v-176h-543zM233 852 q0 -47 50 -47q57 0 57 65v31h-45q-62 0 -62 -49z" />
<glyph unicode="&#xab;" d="M43 506l274 409l189 -94l-137 -315l137 -318l-189 -94zM492 506l276 409l188 -94l-137 -315l137 -318l-188 -94z" />
<glyph unicode="&#xac;" d="M74 485v230h829v-520h-252v290h-577z" />
<glyph unicode="&#xad;" horiz-adv-x="540" d="M45 393v217h451v-217h-451z" />
<glyph unicode="&#xae;" horiz-adv-x="1019" d="M41 1001q0 128 62 236.5t170 172t237 63.5q128 0 236.5 -63.5t171.5 -172t63 -236.5q0 -196 -138 -333.5t-333 -137.5q-196 0 -332.5 137t-136.5 334zM182 1001q0 -156 93.5 -249t234.5 -93t235.5 93t94.5 249q0 155 -94.5 247.5t-235.5 92.5t-234.5 -92t-93.5 -248z M317 791v86h35v251h-35v91h205q76 0 122 -32t46 -102q0 -63 -43 -100l43 -86q9 -18 27 -18h16v-86q-35 -13 -71 -13q-74 0 -105 72l-39 94h-31v-71h23v-86h-193zM487 1028h23q39 0 39 49q0 51 -43 51h-19v-100z" />
<glyph unicode="&#xaf;" horiz-adv-x="733" d="M55 1118v219h623v-219h-623z" />
<glyph unicode="&#xb0;" horiz-adv-x="698" d="M35 1178q0 138 90.5 225.5t224.5 87.5t224 -87.5t90 -225.5q0 -135 -90.5 -222.5t-223.5 -87.5q-134 0 -224.5 87.5t-90.5 222.5zM246 1178q0 -49 28.5 -77t75.5 -28q45 0 73 28t28 77q0 50 -28 78t-73 28q-47 0 -75.5 -28t-28.5 -78z" />
<glyph unicode="&#xb1;" d="M94 0v215h854v-215h-854zM94 594v215h299v252h258v-252h297v-215h-297v-268h-258v268h-299z" />
<glyph unicode="&#xb2;" horiz-adv-x="692" d="M20 774v135l250 254q52 52 74.5 93t22.5 90q0 52 -24.5 71t-76.5 19q-18 0 -28 -2v-150h-201v248q101 70 268 70q91 0 161.5 -25.5t115.5 -85t45 -145.5q0 -85 -44 -156.5t-145 -151.5l-71 -63h278v-201h-625z" />
<glyph unicode="&#xb3;" horiz-adv-x="696" d="M33 877l61 127q106 -50 187 -50q120 0 120 88q0 78 -102 78h-57v150h53q80 0 80 86q0 43 -23 61.5t-73 18.5q-19 0 -29 -2v-117h-195v215q106 70 264 70q138 0 227 -58.5t89 -177.5q0 -128 -121 -170q73 -23 110.5 -73.5t37.5 -121.5q0 -113 -90.5 -178t-233.5 -65 q-92 0 -172.5 29.5t-132.5 89.5z" />
<glyph unicode="&#xb4;" horiz-adv-x="579" d="M55 1065l133 365h283q23 0 38 -14.5t15 -35.5q0 -25 -28 -57l-240 -258h-201z" />
<glyph unicode="&#xb5;" horiz-adv-x="1089" d="M92 -307l25 307v956h325v-608q0 -121 90 -121q47 0 74 32.5t27 90.5v606h328v-682q0 -59 49 -59t61 2v-215q-87 -27 -170 -27q-198 0 -219 183q-28 -91 -92 -139t-139 -48q-6 0 -17 1t-16 1v-335h-326v55z" />
<glyph unicode="&#xb6;" horiz-adv-x="1449" d="M25 930q0 213 132 317.5t361 104.5h885v-222h-189v-1044q0 -229 -132.5 -342t-362.5 -113h-195v236h201q96 0 151.5 51t55.5 162v1050h-139v-1101h-269v469h-6q-227 0 -360 109t-133 323z" />
<glyph unicode="&#xb7;" horiz-adv-x="509" d="M63 504q0 84 53.5 137t139.5 53q84 0 137 -53t53 -137q0 -81 -53 -135t-137 -54q-85 0 -139 54t-54 135z" />
<glyph unicode="&#xb8;" horiz-adv-x="555" d="M55 -211q52 -6 86 -6q86 0 86 49q0 51 -84 51l19 162h188v-117q148 -19 148 -129q0 -82 -74.5 -136t-200.5 -54q-87 0 -168 29v151z" />
<glyph unicode="&#xb9;" horiz-adv-x="598" d="M23 1380v152l243 53h164l2 -657h129v-154h-524v154h143v456z" />
<glyph unicode="&#xba;" horiz-adv-x="630" d="M27 967q0 155 79 228t211 73q130 0 208.5 -73t78.5 -228q0 -154 -79 -232t-208 -78q-130 0 -210 78t-80 232zM59 389v176h512v-176h-512zM258 965q0 -96 12 -131t45 -35q35 0 46.5 34.5t11.5 131.5q0 93 -11.5 126t-46.5 33q-34 0 -45.5 -33t-11.5 -126z" />
<glyph unicode="&#xbb;" d="M84 188l139 318l-139 315l190 94l277 -409l-277 -412zM535 188l137 318l-137 315l188 94l276 -409l-276 -412z" />
<glyph unicode="&#xbc;" horiz-adv-x="1642" d="M23 1147v151l243 54h164l2 -658h129v-153h-524v153h143v457zM426 0l246 676l221 676h250l-246 -676l-223 -676h-248zM887 152v127l278 532h201h135v-481h109v-178h-109v-152h-235v152h-379zM1128 330h152v180q0 58 8 156q-25 -72 -55 -134z" />
<glyph unicode="&#xbd;" horiz-adv-x="1662" d="M23 1147v151l243 54h164l2 -658h129v-153h-524v153h143v457zM426 0l246 676l221 676h250l-246 -676l-223 -676h-248zM991 0v135l250 254q52 52 74 92.5t22 89.5q0 52 -24.5 71.5t-75.5 19.5q-14 0 -29 -3v-149h-200v248q99 69 268 69q140 0 230.5 -64t90.5 -192 q0 -86 -43.5 -156.5t-144.5 -150.5l-72 -63h279v-201h-625z" />
<glyph unicode="&#xbe;" horiz-adv-x="1722" d="M33 643l61 127q103 -49 187 -49q120 0 120 88q0 78 -102 78h-57v149h53q80 0 80 86q0 43 -23 61.5t-73 18.5q-19 0 -29 -2v-117h-195v215q106 70 264 70q138 0 227 -58t89 -177q0 -128 -121 -170q73 -23 110.5 -73.5t37.5 -121.5q0 -113 -90.5 -178.5t-233.5 -65.5 q-92 0 -172.5 29.5t-132.5 89.5zM506 0l246 676l221 676h250l-246 -676l-223 -676h-248zM965 152v127l280 532h201h133v-481h111v-178h-111v-152h-236v152h-378zM1206 330h152v180q0 58 8 156q-16 -54 -55 -134z" />
<glyph unicode="&#xbf;" horiz-adv-x="937" d="M25 -37q0 113 53 193.5t168 158.5q84 60 111.5 91t27.5 79v25h279q6 -27 6 -57q0 -59 -26 -103.5t-91 -118.5q-38 -42 -53.5 -61t-35.5 -50.5t-27 -61.5t-7 -70q0 -81 34.5 -111.5t108.5 -30.5q38 0 58 2v252h282v-383q-182 -108 -432 -108q-100 0 -180.5 19.5t-143.5 61 t-97.5 111t-34.5 162.5zM334 799q0 82 53.5 134t138.5 52q84 0 136.5 -52t52.5 -134q0 -80 -52.5 -132.5t-136.5 -52.5t-138 52.5t-54 132.5z" />
<glyph unicode="&#xc0;" horiz-adv-x="1290" d="M12 0v221h97l315 1131h444l316 -1131h96v-221h-571v221h114l-43 160h-344l-41 -160h107v-221h-490zM266 1722q0 25 17 39.5t39 14.5h274l143 -332h-202l-234 219q-37 32 -37 59zM496 598h227l-61 227q-50 209 -54 232q-7 -40 -51 -232z" />
<glyph unicode="&#xc1;" horiz-adv-x="1290" d="M12 0v221h97l315 1131h444l316 -1131h96v-221h-571v221h114l-43 160h-344l-41 -160h107v-221h-490zM496 598h227l-61 227q-50 209 -54 232q-7 -40 -51 -232zM537 1444l143 332h274q22 0 39 -14.5t17 -39.5t-37 -59l-236 -219h-200z" />
<glyph unicode="&#xc2;" horiz-adv-x="1290" d="M12 0v221h97l315 1131h444l316 -1131h96v-221h-571v221h114l-43 160h-344l-41 -160h107v-221h-490zM285 1444l245 332h230l244 -332h-207l-158 131l-145 -131h-209zM496 598h227l-61 227q-50 209 -54 232q-7 -40 -51 -232z" />
<glyph unicode="&#xc3;" horiz-adv-x="1290" d="M12 0v221h97l315 1131h444l316 -1131h96v-221h-571v221h114l-43 160h-344l-41 -160h107v-221h-490zM258 1528q0 125 63 197.5t160 72.5q71 0 148 -41l53 -28q56 -35 96 -35q64 0 64 69v27h182q4 -54 4 -78q0 -127 -63 -197.5t-162 -70.5q-70 0 -144 41l-53 28 q-65 33 -96 33q-64 0 -64 -67v-27h-182q-6 38 -6 76zM496 598h227l-61 227q-50 209 -54 232q-7 -40 -51 -232z" />
<glyph unicode="&#xc4;" horiz-adv-x="1290" d="M12 0v221h97l315 1131h444l316 -1131h96v-221h-571v221h114l-43 160h-344l-41 -160h107v-221h-490zM231 1622q0 75 51 124.5t126 49.5q74 0 125 -50t51 -124t-51 -123t-125 -49q-76 0 -126.5 48.5t-50.5 123.5zM496 598h227l-61 227q-50 209 -54 232q-7 -40 -51 -232z M707 1622q0 75 50.5 124.5t125.5 49.5q74 0 124 -49.5t50 -124.5q0 -74 -50 -123t-124 -49q-75 0 -125.5 48.5t-50.5 123.5z" />
<glyph unicode="&#xc5;" horiz-adv-x="1290" d="M12 0v221h97l315 1131h444l316 -1131h96v-221h-571v221h114l-43 160h-344l-41 -160h107v-221h-490zM401 1636q0 98 69 166t175 68t175 -68t69 -166q0 -99 -69 -166t-175 -67t-175 67t-69 166zM496 598h227l-61 227q-50 209 -54 232q-7 -40 -51 -232zM582 1636 q0 -31 18 -49t47 -18q28 0 47 18.5t19 48.5q0 29 -19 47.5t-47 18.5q-29 0 -47 -18.5t-18 -47.5z" />
<glyph unicode="&#xc6;" horiz-adv-x="1703" d="M0 0v221h98l385 909h-127v222h1291v-414h-299v192h-293l53 -325h283v-217h-248l59 -367h158v209h299v-430h-932v221h119l-25 160h-358l-66 -160h119v-221h-516zM551 598h237l-65 471q-21 -103 -76 -238z" />
<glyph unicode="&#xc7;" horiz-adv-x="1046" d="M45 688q0 177 41 311t115.5 216t173 122.5t219.5 40.5q109 0 208 -29t171 -79v-424h-305v297h-23q-62 0 -102.5 -17t-73 -63.5t-47 -133.5t-14.5 -222q0 -250 64 -352.5t216 -102.5q70 0 124 19.5t108 58.5l94 -187q-133 -158 -365 -170v-45q148 -19 148 -129 q0 -82 -74.5 -136t-200.5 -54q-87 0 -168 29v151q52 -6 86 -6q86 0 86 49q0 51 -84 51l13 109q-192 51 -301 228.5t-109 467.5z" />
<glyph unicode="&#xc8;" horiz-adv-x="1087" d="M47 0v221h117v909h-117v222h983v-414h-299v192h-213v-325h256v-219h-256v-365h225v209h299v-430h-995zM170 1722q0 25 16.5 39.5t38.5 14.5h275l143 -332h-203l-233 219q-37 32 -37 59z" />
<glyph unicode="&#xc9;" horiz-adv-x="1087" d="M47 0v221h117v909h-117v222h983v-414h-299v192h-213v-325h256v-219h-256v-365h225v209h299v-430h-995zM442 1444l144 332h274q22 0 38.5 -14.5t16.5 -39.5q0 -26 -36 -59l-236 -219h-201z" />
<glyph unicode="&#xca;" horiz-adv-x="1087" d="M47 0v221h117v909h-117v222h983v-414h-299v192h-213v-325h256v-219h-256v-365h225v209h299v-430h-995zM190 1444l246 332h230l243 -332h-207l-157 131l-146 -131h-209z" />
<glyph unicode="&#xcb;" horiz-adv-x="1087" d="M47 0v221h117v909h-117v222h983v-414h-299v192h-213v-325h256v-219h-256v-365h225v209h299v-430h-995zM137 1622q0 75 50.5 124.5t125.5 49.5q74 0 125 -50t51 -124t-51 -123t-125 -49q-75 0 -125.5 48.5t-50.5 123.5zM612 1622q0 75 50.5 124.5t125.5 49.5 q74 0 124.5 -49.5t50.5 -124.5q0 -74 -50.5 -123t-124.5 -49q-75 0 -125.5 48.5t-50.5 123.5z" />
<glyph unicode="&#xcc;" horiz-adv-x="681" d="M-39 1722q0 25 16.5 39.5t38.5 14.5h275l143 -332h-203l-233 219q-37 32 -37 59zM47 0v221h117v909h-117v222h590v-222h-119v-909h119v-221h-590z" />
<glyph unicode="&#xcd;" horiz-adv-x="681" d="M47 0v221h117v909h-117v222h590v-222h-119v-909h119v-221h-590zM233 1444l144 332h274q22 0 39 -14.5t17 -39.5t-37 -59l-236 -219h-201z" />
<glyph unicode="&#xce;" horiz-adv-x="681" d="M-18 1444l245 332h230l243 -332h-206l-158 131l-146 -131h-208zM47 0v221h117v909h-117v222h590v-222h-119v-909h119v-221h-590z" />
<glyph unicode="&#xcf;" horiz-adv-x="681" d="M-72 1622q0 75 50.5 124.5t125.5 49.5q74 0 125.5 -50t51.5 -124t-51.5 -123t-125.5 -49q-75 0 -125.5 48.5t-50.5 123.5zM47 0v221h117v909h-117v222h590v-222h-119v-909h119v-221h-590zM403 1622q0 75 51 124.5t126 49.5q74 0 124 -49.5t50 -124.5q0 -74 -50 -123 t-124 -49q-76 0 -126.5 48.5t-50.5 123.5z" />
<glyph unicode="&#xd0;" horiz-adv-x="1247" d="M47 0v221h119v369h-117v215h117v325h-119v222h582q263 0 418 -176t155 -500q0 -323 -155 -499.5t-418 -176.5h-582zM520 221h101q72 0 118.5 43t72.5 144.5t26 265.5q0 244 -54.5 350t-162.5 106h-101v-325h174v-215h-174v-369z" />
<glyph unicode="&#xd1;" horiz-adv-x="1411" d="M51 0v221h119v909h-119v222h588l227 -635q70 -234 99 -377v790h-105v222h504v-222h-117v-1130h-471l-231 639q-61 197 -92 371v-789h104v-221h-506zM307 1528q0 125 63 197.5t160 72.5q71 0 148 -41l53 -28q56 -35 96 -35q64 0 64 69v27h182q4 -54 4 -78 q0 -127 -63 -197.5t-162 -70.5q-69 0 -143 41l-54 28q-65 33 -96 33q-35 0 -49 -17t-14 -50v-27h-183q-6 37 -6 76z" />
<glyph unicode="&#xd2;" horiz-adv-x="1173" d="M45 674q0 347 145.5 525.5t397.5 178.5q249 0 394.5 -179t145.5 -525q0 -345 -145.5 -524t-394.5 -179q-252 0 -397.5 178.5t-145.5 524.5zM209 1722q0 25 16.5 39.5t38.5 14.5h275l143 -332h-203l-233 219q-37 32 -37 59zM410 678q0 -262 36.5 -365.5t141.5 -103.5 q104 0 141 104t37 365t-36.5 363t-141.5 102q-106 0 -142 -101.5t-36 -363.5z" />
<glyph unicode="&#xd3;" horiz-adv-x="1173" d="M45 674q0 347 145.5 525.5t397.5 178.5q249 0 394.5 -179t145.5 -525q0 -345 -145.5 -524t-394.5 -179q-252 0 -397.5 178.5t-145.5 524.5zM410 678q0 -262 36.5 -365.5t141.5 -103.5q104 0 141 104t37 365t-36.5 363t-141.5 102q-106 0 -142 -101.5t-36 -363.5z M479 1444l144 332h274q22 0 38.5 -14.5t16.5 -39.5t-37 -59l-235 -219h-201z" />
<glyph unicode="&#xd4;" horiz-adv-x="1173" d="M45 674q0 347 145.5 525.5t397.5 178.5q249 0 394.5 -179t145.5 -525q0 -345 -145.5 -524t-394.5 -179q-252 0 -397.5 178.5t-145.5 524.5zM229 1444l246 332h230l243 -332h-207l-157 131l-146 -131h-209zM410 678q0 -262 36.5 -365.5t141.5 -103.5q104 0 141 104t37 365 t-36.5 363t-141.5 102q-106 0 -142 -101.5t-36 -363.5z" />
<glyph unicode="&#xd5;" horiz-adv-x="1173" d="M45 674q0 347 145.5 525.5t397.5 178.5q249 0 394.5 -179t145.5 -525q0 -345 -145.5 -524t-394.5 -179q-252 0 -397.5 178.5t-145.5 524.5zM201 1528q0 125 63 197.5t160 72.5q70 0 147 -41l54 -28q56 -35 96 -35q63 0 63 69v27h183q4 -54 4 -78q0 -126 -63.5 -197 t-162.5 -71q-69 0 -143 41l-53 28q-65 33 -96 33q-64 0 -64 -67v-27h-182q-6 38 -6 76zM410 678q0 -262 36.5 -365.5t141.5 -103.5q104 0 141 104t37 365t-36.5 363t-141.5 102q-106 0 -142 -101.5t-36 -363.5z" />
<glyph unicode="&#xd6;" horiz-adv-x="1173" d="M45 674q0 347 145.5 525.5t397.5 178.5q249 0 394.5 -179t145.5 -525q0 -345 -145.5 -524t-394.5 -179q-252 0 -397.5 178.5t-145.5 524.5zM174 1622q0 75 50.5 124.5t125.5 49.5q74 0 125 -50t51 -124t-51 -123t-125 -49q-75 0 -125.5 48.5t-50.5 123.5zM410 678 q0 -262 36.5 -365.5t141.5 -103.5q104 0 141 104t37 365t-36.5 363t-141.5 102q-106 0 -142 -101.5t-36 -363.5zM649 1622q0 75 50.5 124.5t125.5 49.5q74 0 124 -49.5t50 -124.5q0 -74 -50 -123t-124 -49q-75 0 -125.5 48.5t-50.5 123.5z" />
<glyph unicode="&#xd7;" d="M84 334l272 270l-272 275l164 159l272 -272l271 272l161 -161l-272 -273l270 -270l-162 -162l-270 272l-272 -272z" />
<glyph unicode="&#xd8;" horiz-adv-x="1173" d="M20 4l130 207q-105 178 -105 463q0 347 145.5 525.5t397.5 178.5q142 0 250 -57l98 160l217 -133l-129 -209q104 -173 104 -465q0 -345 -145.5 -524t-394.5 -179q-142 0 -252 58l-98 -160zM395 678q0 -20 1 -57t1 -54l322 518q-45 66 -131 66q-113 0 -153 -105t-40 -368z M457 268q43 -67 131 -67q111 0 151.5 107.5t40.5 369.5q0 20 -1 56t-1 52z" />
<glyph unicode="&#xd9;" horiz-adv-x="1282" d="M43 1130v222h563v-222h-100v-747q0 -88 47.5 -131t128.5 -43q78 0 122 42t44 132v747h-96v222h487v-222h-111v-698q0 -222 -125 -341.5t-348 -119.5q-227 0 -363 120.5t-136 340.5v698h-113zM305 1722q0 25 16.5 39.5t38.5 14.5h275l143 -332h-203l-233 219 q-37 32 -37 59z" />
<glyph unicode="&#xda;" horiz-adv-x="1282" d="M43 1130v222h563v-222h-100v-747q0 -88 47.5 -131t128.5 -43q78 0 122 42t44 132v747h-96v222h487v-222h-111v-698q0 -222 -125 -341.5t-348 -119.5q-227 0 -363 120.5t-136 340.5v698h-113zM575 1444l144 332h274q22 0 39 -14.5t17 -39.5t-37 -59l-236 -219h-201z" />
<glyph unicode="&#xdb;" horiz-adv-x="1282" d="M43 1130v222h563v-222h-100v-747q0 -88 47.5 -131t128.5 -43q78 0 122 42t44 132v747h-96v222h487v-222h-111v-698q0 -222 -125 -341.5t-348 -119.5q-227 0 -363 120.5t-136 340.5v698h-113zM324 1444l245 332h230l243 -332h-206l-158 131l-146 -131h-208z" />
<glyph unicode="&#xdc;" horiz-adv-x="1282" d="M43 1130v222h563v-222h-100v-747q0 -88 47.5 -131t128.5 -43q78 0 122 42t44 132v747h-96v222h487v-222h-111v-698q0 -222 -125 -341.5t-348 -119.5q-227 0 -363 120.5t-136 340.5v698h-113zM270 1622q0 75 50.5 124.5t125.5 49.5q74 0 125.5 -50t51.5 -124t-51.5 -123 t-125.5 -49q-75 0 -125.5 48.5t-50.5 123.5zM745 1622q0 75 51 124.5t126 49.5q74 0 124 -49.5t50 -124.5q0 -74 -50 -123t-124 -49q-76 0 -126.5 48.5t-50.5 123.5z" />
<glyph unicode="&#xdd;" horiz-adv-x="1292" d="M12 1133v219h611v-219h-119l104 -236q45 -110 74 -219q33 109 80 219l106 236h-120v219h532v-219h-111l-338 -652v-260h170v-221h-692v221h170v248l-352 664h-115zM571 1444l144 332h274q22 0 38.5 -14.5t16.5 -39.5q0 -26 -36 -59l-236 -219h-201z" />
<glyph unicode="&#xde;" horiz-adv-x="1165" d="M47 0v221h117v909h-117v222h627v-222h-156v-90h158q463 0 463 -356q0 -188 -123 -276.5t-340 -88.5h-158v-98h156v-221h-627zM518 532h103q76 0 114.5 40t38.5 112q0 143 -153 143h-103v-295z" />
<glyph unicode="&#xdf;" horiz-adv-x="1075" d="M29 0v215h110v528h-110v215h110v129q0 367 406 367q206 0 318 -94t112 -285q0 -205 -131 -289q96 -39 143 -131t47 -252q0 -101 -19 -179t-50 -125t-75 -76.5t-88.5 -40.5t-96.5 -11q-75 0 -168 29v213q16 -2 38 -2q30 0 50.5 8.5t38.5 32t27 71t9 119.5q0 132 -32 186 t-101 54h-10v215h10q41 0 56.5 35.5t15.5 120.5q0 106 -18 143t-66 37q-49 0 -69.5 -29.5t-20.5 -95.5v-1108h-436z" />
<glyph unicode="&#xe0;" horiz-adv-x="978" d="M43 252q0 139 91.5 216t264.5 77h140v41q0 74 -36 104.5t-112 30.5q-121 0 -239 -64l-86 174q61 72 164 113t231 41q181 0 285 -90.5t104 -286.5v-336q0 -59 51 -59q16 0 36.5 1t25.5 1v-215q-88 -25 -172 -25q-199 0 -220 183q-19 -91 -85 -139t-167 -48 q-127 0 -201.5 76t-74.5 205zM102 1380q0 20 16.5 35t39.5 15h280l133 -365h-200l-238 258q-18 18 -24.5 29t-6.5 28zM350 291q0 -38 21 -63t61 -25q50 0 78.5 35t28.5 90v53h-84q-53 0 -79 -24t-26 -66z" />
<glyph unicode="&#xe1;" horiz-adv-x="978" d="M43 252q0 139 91.5 216t264.5 77h140v41q0 74 -36 104.5t-112 30.5q-121 0 -239 -64l-86 174q61 72 164 113t231 41q181 0 285 -90.5t104 -286.5v-336q0 -59 51 -59q16 0 36.5 1t25.5 1v-215q-88 -25 -172 -25q-199 0 -220 183q-19 -91 -85 -139t-167 -48 q-127 0 -201.5 76t-74.5 205zM350 291q0 -38 21 -63t61 -25q50 0 78.5 35t28.5 90v53h-84q-53 0 -79 -24t-26 -66zM367 1065l133 365h282q23 0 38.5 -14.5t15.5 -35.5q0 -24 -29 -57l-240 -258h-200z" />
<glyph unicode="&#xe2;" horiz-adv-x="978" d="M43 252q0 139 91.5 216t264.5 77h140v41q0 74 -36 104.5t-112 30.5q-121 0 -239 -64l-86 174q61 72 164 113t231 41q181 0 285 -90.5t104 -286.5v-336q0 -59 51 -59q16 0 36.5 1t25.5 1v-215q-88 -25 -172 -25q-199 0 -220 183q-19 -91 -85 -139t-167 -48 q-127 0 -201.5 76t-74.5 205zM133 1065l227 365h230l225 -365h-203l-139 123l-137 -123h-203zM350 291q0 -38 21 -63t61 -25q50 0 78.5 35t28.5 90v53h-84q-53 0 -79 -24t-26 -66z" />
<glyph unicode="&#xe3;" horiz-adv-x="978" d="M43 252q0 139 91.5 216t264.5 77h140v41q0 74 -36 104.5t-112 30.5q-121 0 -239 -64l-86 174q61 72 164 113t231 41q181 0 285 -90.5t104 -286.5v-336q0 -59 51 -59q16 0 36.5 1t25.5 1v-215q-88 -25 -172 -25q-199 0 -220 183q-19 -91 -85 -139t-167 -48 q-127 0 -201.5 76t-74.5 205zM109 1149q0 126 63 198t156 72q70 0 135 -41l51 -30q53 -31 82 -31q59 0 59 65v29h183q4 -54 4 -78q0 -126 -63 -197t-158 -71q-66 0 -134 41l-51 29q-50 32 -82 32q-57 0 -57 -65v-31h-182q-6 43 -6 78zM350 291q0 -38 21 -63t61 -25 q50 0 78.5 35t28.5 90v53h-84q-53 0 -79 -24t-26 -66z" />
<glyph unicode="&#xe4;" horiz-adv-x="978" d="M43 252q0 139 91.5 216t264.5 77h140v41q0 74 -36 104.5t-112 30.5q-121 0 -239 -64l-86 174q61 72 164 113t231 41q181 0 285 -90.5t104 -286.5v-336q0 -59 51 -59q16 0 36.5 1t25.5 1v-215q-88 -25 -172 -25q-199 0 -220 183q-19 -91 -85 -139t-167 -48 q-127 0 -201.5 76t-74.5 205zM80 1245q0 75 50.5 123.5t125.5 48.5q74 0 125 -49t51 -123t-51 -123t-125 -49q-75 0 -125.5 48.5t-50.5 123.5zM350 291q0 -38 21 -63t61 -25q50 0 78.5 35t28.5 90v53h-84q-53 0 -79 -24t-26 -66zM518 1245q0 75 50.5 123.5t125.5 48.5 q74 0 124 -49t50 -123t-50 -123t-124 -49q-75 0 -125.5 48.5t-50.5 123.5z" />
<glyph unicode="&#xe5;" horiz-adv-x="978" d="M43 252q0 139 91.5 216t264.5 77h140v41q0 74 -36 104.5t-112 30.5q-121 0 -239 -64l-86 174q61 72 164 113t231 41q181 0 285 -90.5t104 -286.5v-336q0 -59 51 -59q16 0 36.5 1t25.5 1v-215q-88 -25 -172 -25q-199 0 -220 183q-19 -91 -85 -139t-167 -48 q-127 0 -201.5 76t-74.5 205zM231 1255q0 98 69 166t175 68t175 -68t69 -166q0 -99 -69 -167t-175 -68t-175 68t-69 167zM350 291q0 -38 21 -63t61 -25q50 0 78.5 35t28.5 90v53h-84q-53 0 -79 -24t-26 -66zM412 1255q0 -31 18 -49t47 -18q28 0 47 18.5t19 48.5q0 28 -19 47 t-47 19q-29 0 -47 -19t-18 -47z" />
<glyph unicode="&#xe6;" horiz-adv-x="1411" d="M43 260q0 140 92.5 218.5t263.5 78.5h140v29q0 74 -36 104.5t-112 30.5q-121 0 -239 -64l-86 174q60 71 164.5 112.5t222.5 41.5q185 0 274 -102q92 102 250 102q169 0 279 -119t110 -334q0 -82 -12 -141h-496q16 -81 64.5 -120.5t146.5 -39.5q64 0 108.5 15.5t96.5 48.5 l86 -154q-56 -77 -148 -123.5t-211 -46.5q-110 0 -201.5 42.5t-152.5 123.5q-105 -166 -301 -166q-136 0 -219.5 76.5t-83.5 212.5zM348 293q0 -39 21.5 -65.5t62.5 -26.5q49 0 78 33.5t29 89.5v67h-84q-53 0 -80 -27t-27 -71zM850 557h217v10q0 114 -26 159.5t-85 45.5 q-52 0 -77 -45t-29 -170z" />
<glyph unicode="&#xe7;" horiz-adv-x="901" d="M41 487q0 128 35 225t99 156t148 88t187 29q169 0 313 -70v-364h-264v213h-22q-37 0 -63 -8.5t-49.5 -33t-35.5 -75.5t-12 -129q0 -149 49 -213.5t158 -64.5q102 0 196 63l86 -162q-101 -133 -276 -161v-52q147 -19 147 -129q0 -82 -74 -136t-200 -54q-87 0 -168 29v151 q53 -6 86 -6q86 0 86 49q0 51 -84 51l10 99q-163 32 -257.5 161.5t-94.5 343.5z" />
<glyph unicode="&#xe8;" horiz-adv-x="923" d="M41 494q0 123 34.5 218.5t94.5 154t137.5 88.5t167.5 30q183 0 293.5 -118t110.5 -335q0 -74 -13 -141h-495q14 -80 63.5 -120t149.5 -40q64 0 108 15.5t94 48.5l86 -154q-57 -78 -148 -124t-210 -46q-99 0 -184.5 33.5t-150 97.5t-101.5 165t-37 227zM104 1380 q0 20 16.5 35t39.5 15h280l133 -365h-200l-238 258q-18 18 -24.5 29t-6.5 28zM365 578h215q-1 107 -27 150.5t-82 43.5q-52 0 -76 -41.5t-30 -152.5z" />
<glyph unicode="&#xe9;" horiz-adv-x="923" d="M41 494q0 123 34.5 218.5t94.5 154t137.5 88.5t167.5 30q183 0 293.5 -118t110.5 -335q0 -74 -13 -141h-495q14 -80 63.5 -120t149.5 -40q64 0 108 15.5t94 48.5l86 -154q-57 -78 -148 -124t-210 -46q-99 0 -184.5 33.5t-150 97.5t-101.5 165t-37 227zM365 578h215 q-1 107 -27 150.5t-82 43.5q-52 0 -76 -41.5t-30 -152.5zM367 1065l133 365h282q23 0 38.5 -14.5t15.5 -35.5q0 -24 -29 -57l-240 -258h-200z" />
<glyph unicode="&#xea;" horiz-adv-x="923" d="M41 494q0 123 34.5 218.5t94.5 154t137.5 88.5t167.5 30q183 0 293.5 -118t110.5 -335q0 -74 -13 -141h-495q14 -80 63.5 -120t149.5 -40q64 0 108 15.5t94 48.5l86 -154q-57 -78 -148 -124t-210 -46q-99 0 -184.5 33.5t-150 97.5t-101.5 165t-37 227zM135 1065l227 365 h230l225 -365h-203l-139 123l-137 -123h-203zM365 578h215q-1 107 -27 150.5t-82 43.5q-52 0 -76 -41.5t-30 -152.5z" />
<glyph unicode="&#xeb;" horiz-adv-x="923" d="M41 494q0 123 34.5 218.5t94.5 154t137.5 88.5t167.5 30q183 0 293.5 -118t110.5 -335q0 -74 -13 -141h-495q14 -80 63.5 -120t149.5 -40q64 0 108 15.5t94 48.5l86 -154q-57 -78 -148 -124t-210 -46q-99 0 -184.5 33.5t-150 97.5t-101.5 165t-37 227zM80 1245 q0 75 50.5 123.5t125.5 48.5q74 0 125 -49t51 -123t-51 -123t-125 -49q-75 0 -125.5 48.5t-50.5 123.5zM365 578h215q-1 107 -27 150.5t-82 43.5q-52 0 -76 -41.5t-30 -152.5zM518 1245q0 75 50.5 123.5t125.5 48.5q74 0 124 -49t50 -123t-50 -123t-124 -49 q-75 0 -125.5 48.5t-50.5 123.5z" />
<glyph unicode="&#xec;" horiz-adv-x="550" d="M-68 1307q0 53 62 53h262l92 -363h-196l-187 242q-33 35 -33 68zM29 0v215h110v528h-110v213h436v-741h110v-215h-546z" />
<glyph unicode="&#xed;" horiz-adv-x="550" d="M29 0v215h110v528h-110v213h436v-741h110v-215h-546zM152 997l92 363h264q59 0 59 -53q0 -31 -32 -68l-189 -242h-194z" />
<glyph unicode="&#xee;" horiz-adv-x="550" d="M-100 997l227 363h229l226 -363h-203l-137 123l-140 -123h-202zM29 0v215h110v528h-110v213h436v-741h110v-215h-546z" />
<glyph unicode="&#xef;" horiz-adv-x="550" d="M-143 1178q0 75 50.5 123.5t125.5 48.5q74 0 125 -49t51 -123t-51 -123t-125 -49q-75 0 -125.5 48.5t-50.5 123.5zM29 0v215h110v528h-110v213h436v-741h110v-215h-546zM264 1178q0 75 49.5 123.5t126.5 48.5q73 0 122.5 -49t49.5 -123t-49.5 -123t-122.5 -49 q-77 0 -126.5 48.5t-49.5 123.5z" />
<glyph unicode="&#xf0;" horiz-adv-x="972" d="M41 463q0 116 31.5 207t85 145.5t119.5 82.5t141 28q136 0 207 -88q-48 139 -166 254l-264 -123l-82 190l159 74q-59 38 -139 84l152 137q126 -44 231 -108l234 108l81 -190l-135 -64q236 -245 236 -649q0 -291 -121 -438q-119 -142 -319 -142q-94 0 -174.5 30.5 t-143 89.5t-98 154.5t-35.5 217.5zM377 457q0 -149 24 -206.5t86 -57.5t85.5 57.5t23.5 206.5q0 148 -24 206t-85 58q-62 0 -86 -58t-24 -206z" />
<glyph unicode="&#xf1;" horiz-adv-x="1107" d="M29 0v215h110v528h-110v213h389v-159q31 95 103 141.5t167 46.5q137 0 216 -85t79 -228v-457h109v-215h-435v215v397q0 119 -94 119q-98 0 -98 -123v-393h80v-215h-516zM188 1149q0 126 63.5 198t156.5 72q70 0 135 -41l51 -30q53 -31 82 -31q59 0 59 65v29h183 q4 -54 4 -78q0 -126 -63.5 -197t-158.5 -71q-65 0 -133 41l-51 29q-50 32 -82 32q-57 0 -57 -65v-31h-182q-7 51 -7 78z" />
<glyph unicode="&#xf2;" horiz-adv-x="972" d="M41 487q0 130 35 228t97.5 156t141 86t172.5 28t172 -28t140.5 -86t97.5 -156t35 -228t-35 -231t-97 -162t-141 -92t-172 -31t-172 31t-141 92t-97.5 162t-35.5 231zM115 1380q0 20 16 35t39 15h281l133 -365h-201l-238 258q-18 18 -24 29t-6 28zM379 481q0 -166 23 -227 t85 -61q61 0 85 61.5t24 226.5q0 162 -24 222.5t-85 60.5q-62 0 -85 -60t-23 -223z" />
<glyph unicode="&#xf3;" horiz-adv-x="972" d="M41 487q0 130 35 228t97.5 156t141 86t172.5 28t172 -28t140.5 -86t97.5 -156t35 -228t-35 -231t-97 -162t-141 -92t-172 -31t-172 31t-141 92t-97.5 162t-35.5 231zM379 481q0 -166 23 -227t85 -61q61 0 85 61.5t24 226.5q0 162 -24 222.5t-85 60.5q-62 0 -85 -60 t-23 -223zM379 1065l133 365h283q23 0 38 -14.5t15 -35.5q0 -24 -29 -57l-239 -258h-201z" />
<glyph unicode="&#xf4;" horiz-adv-x="972" d="M41 487q0 130 35 228t97.5 156t141 86t172.5 28t172 -28t140.5 -86t97.5 -156t35 -228t-35 -231t-97 -162t-141 -92t-172 -31t-172 31t-141 92t-97.5 162t-35.5 231zM145 1065l228 365h229l225 -365h-202l-140 123l-137 -123h-203zM379 481q0 -166 23 -227t85 -61 q61 0 85 61.5t24 226.5q0 162 -24 222.5t-85 60.5q-62 0 -85 -60t-23 -223z" />
<glyph unicode="&#xf5;" horiz-adv-x="972" d="M41 487q0 130 35 228t97.5 156t141 86t172.5 28t172 -28t140.5 -86t97.5 -156t35 -228t-35 -231t-97 -162t-141 -92t-172 -31t-172 31t-141 92t-97.5 162t-35.5 231zM119 1149q0 126 63 198t156 72q70 0 135 -41l51 -30q53 -31 82 -31q60 0 60 65v29h182q4 -54 4 -78 q0 -126 -63 -197t-158 -71q-65 0 -133 41l-52 29q-50 32 -81 32q-58 0 -58 -65v-31h-182q-6 43 -6 78zM379 481q0 -166 23 -227t85 -61q61 0 85 61.5t24 226.5q0 162 -24 222.5t-85 60.5q-62 0 -85 -60t-23 -223z" />
<glyph unicode="&#xf6;" horiz-adv-x="972" d="M41 487q0 130 35 228t97.5 156t141 86t172.5 28t172 -28t140.5 -86t97.5 -156t35 -228t-35 -231t-97 -162t-141 -92t-172 -31t-172 31t-141 92t-97.5 162t-35.5 231zM92 1245q0 75 50.5 123.5t125.5 48.5q74 0 125 -49t51 -123t-51 -123t-125 -49q-75 0 -125.5 48.5 t-50.5 123.5zM379 481q0 -166 23 -227t85 -61q61 0 85 61.5t24 226.5q0 162 -24 222.5t-85 60.5q-62 0 -85 -60t-23 -223zM530 1245q0 75 50.5 123.5t126.5 48.5q74 0 124 -49t50 -123t-50 -123t-124 -49q-76 0 -126.5 48.5t-50.5 123.5z" />
<glyph unicode="&#xf7;" d="M82 485v230h891v-230h-891zM346 217q0 74 50 122t126 48t124 -48t48 -122t-48 -122t-124 -48t-126 48t-50 122zM346 983q0 74 50 122t126 48t124 -48t48 -122t-48 -122t-124 -48t-126 48t-50 122z" />
<glyph unicode="&#xf8;" horiz-adv-x="985" d="M18 -20l121 163q-92 132 -92 344q0 130 35.5 228t98 156t141.5 86t174 28q121 0 206 -43l105 148l160 -113l-117 -158q88 -128 88 -332q0 -130 -34.5 -231t-96 -162t-140 -92t-171.5 -31q-119 0 -209 47l-107 -149zM350 481q0 -14 1 -38t1 -35l234 335q-28 35 -92 35 q-82 0 -113 -62.5t-31 -234.5zM408 207q29 -29 86 -29q55 0 84.5 26.5t43 91.5t13.5 185v62z" />
<glyph unicode="&#xf9;" horiz-adv-x="1101" d="M18 743v213h439v-608q0 -121 88 -121q49 0 75.5 32t26.5 91v393h-84v213h410v-684q0 -59 51 -59q18 0 37 1t24 1v-215q-87 -25 -172 -25q-198 0 -219 183q-31 -93 -103 -140t-167 -47q-136 0 -215.5 86t-79.5 228v458h-111zM166 1380q0 20 16 35t39 15h281l133 -365h-201 l-237 258q-18 18 -24.5 29t-6.5 28z" />
<glyph unicode="&#xfa;" horiz-adv-x="1101" d="M18 743v213h439v-608q0 -121 88 -121q49 0 75.5 32t26.5 91v393h-84v213h410v-684q0 -59 51 -59q18 0 37 1t24 1v-215q-87 -25 -172 -25q-198 0 -219 183q-31 -93 -103 -140t-167 -47q-136 0 -215.5 86t-79.5 228v458h-111zM430 1065l133 365h283q23 0 38 -14.5t15 -35.5 q0 -24 -29 -57l-239 -258h-201z" />
<glyph unicode="&#xfb;" horiz-adv-x="1101" d="M18 743v213h439v-608q0 -121 88 -121q49 0 75.5 32t26.5 91v393h-84v213h410v-684q0 -59 51 -59q18 0 37 1t24 1v-215q-87 -25 -172 -25q-198 0 -219 183q-31 -93 -103 -140t-167 -47q-136 0 -215.5 86t-79.5 228v458h-111zM197 1065l227 365h229l226 -365h-203l-139 123 l-138 -123h-202z" />
<glyph unicode="&#xfc;" horiz-adv-x="1101" d="M18 743v213h439v-608q0 -121 88 -121q49 0 75.5 32t26.5 91v393h-84v213h410v-684q0 -59 51 -59q18 0 37 1t24 1v-215q-87 -25 -172 -25q-198 0 -219 183q-31 -93 -103 -140t-167 -47q-136 0 -215.5 86t-79.5 228v458h-111zM143 1245q0 75 50.5 123.5t125.5 48.5 q74 0 125.5 -49t51.5 -123t-51.5 -123t-125.5 -49q-75 0 -125.5 48.5t-50.5 123.5zM582 1245q0 75 50.5 123.5t125.5 48.5q74 0 124 -49t50 -123t-50 -123t-124 -49q-75 0 -125.5 48.5t-50.5 123.5z" />
<glyph unicode="&#xfd;" horiz-adv-x="1046" d="M8 743v213h520v-213h-84l95 -317q34 -114 45 -166q13 58 41 166l90 317h-86v213h411v-213h-79l-250 -788q-59 -183 -166.5 -264.5t-263.5 -81.5q-90 0 -183 26v213q62 -4 121 -4q120 0 176 43l-293 856h-94zM471 1065l133 365h283q23 0 38 -14.5t15 -35.5q0 -24 -29 -57 l-239 -258h-201z" />
<glyph unicode="&#xfe;" horiz-adv-x="1046" d="M10 -150h111v1360h-111v215h436v-594q59 154 234 154q315 0 315 -514q0 -500 -313 -500q-180 0 -236 158v-279h127v-212h-563v212zM444 479q0 -144 25.5 -203t85.5 -59q59 0 83 58.5t24 203.5t-24 202.5t-83 57.5q-60 0 -85.5 -58t-25.5 -202z" />
<glyph unicode="&#xff;" horiz-adv-x="1046" d="M8 743v213h520v-213h-84l95 -317q34 -114 45 -166q13 58 41 166l90 317h-86v213h411v-213h-79l-250 -788q-59 -183 -166.5 -264.5t-263.5 -81.5q-90 0 -183 26v213q62 -4 121 -4q120 0 176 43l-293 856h-94zM184 1245q0 75 50.5 123.5t125.5 48.5q74 0 125.5 -49 t51.5 -123t-51.5 -123t-125.5 -49q-75 0 -125.5 48.5t-50.5 123.5zM623 1245q0 75 50.5 123.5t125.5 48.5q74 0 124 -49t50 -123t-50 -123t-124 -49q-75 0 -125.5 48.5t-50.5 123.5z" />
<glyph unicode="&#x152;" horiz-adv-x="1662" d="M45 674q0 350 148 527t409 177q101 0 178 -26h824v-414h-297v192h-226v-325h256v-217h-256v-367h238v209h297v-430h-834q-86 -29 -180 -29q-261 0 -409 177.5t-148 525.5zM408 676q1 -187 20.5 -285.5t64 -140t128.5 -41.5q38 0 106 10v914q-68 10 -106 10 q-84 0 -128.5 -41.5t-64 -140t-20.5 -285.5z" />
<glyph unicode="&#x153;" horiz-adv-x="1480" d="M41 487q0 130 35.5 228t97.5 156t139.5 86t167.5 28q180 0 283 -106q103 106 270 106q178 0 290 -118.5t112 -334.5q0 -52 -13 -141h-497q16 -81 64.5 -120.5t146.5 -39.5q65 0 108.5 15t95.5 49l89 -154q-58 -77 -150 -123.5t-209 -46.5q-187 0 -301 123 q-105 -123 -289 -123q-90 0 -167.5 31t-139.5 92t-97.5 162t-35.5 231zM379 481q0 -166 23 -227t85 -61q61 0 85 61.5t24 226.5q0 162 -24 222.5t-85 60.5q-62 0 -85 -60t-23 -223zM920 578h215q-1 107 -27 150.5t-82 43.5q-54 0 -78 -41.5t-28 -152.5z" />
<glyph unicode="&#x178;" horiz-adv-x="1292" d="M12 1133v219h611v-219h-119l104 -236q45 -110 74 -219q33 109 80 219l106 236h-120v219h532v-219h-111l-338 -652v-260h170v-221h-692v221h170v248l-352 664h-115zM266 1622q0 75 50.5 124.5t125.5 49.5q74 0 125 -50t51 -124t-51 -123t-125 -49q-75 0 -125.5 48.5 t-50.5 123.5zM741 1622q0 75 51 124.5t126 49.5q74 0 124 -49.5t50 -124.5q0 -74 -50 -123t-124 -49q-76 0 -126.5 48.5t-50.5 123.5z" />
<glyph unicode="&#x2c6;" horiz-adv-x="792" d="M55 1065l228 365h229l225 -365h-202l-140 125l-137 -125h-203z" />
<glyph unicode="&#x2dc;" horiz-adv-x="843" d="M55 1149q0 126 63 198t156 72q71 0 136 -41l51 -30q53 -31 82 -31q59 0 59 65v29h182q4 -54 4 -78q0 -126 -63 -197t-158 -71q-65 0 -133 41l-51 29q-50 32 -82 32q-57 0 -57 -65v-31h-183q-6 43 -6 78z" />
<glyph unicode="&#x2000;" horiz-adv-x="935" />
<glyph unicode="&#x2001;" horiz-adv-x="1870" />
<glyph unicode="&#x2002;" horiz-adv-x="935" />
<glyph unicode="&#x2003;" horiz-adv-x="1870" />
<glyph unicode="&#x2004;" horiz-adv-x="623" />
<glyph unicode="&#x2005;" horiz-adv-x="467" />
<glyph unicode="&#x2006;" horiz-adv-x="311" />
<glyph unicode="&#x2007;" horiz-adv-x="311" />
<glyph unicode="&#x2008;" horiz-adv-x="233" />
<glyph unicode="&#x2009;" horiz-adv-x="374" />
<glyph unicode="&#x200a;" horiz-adv-x="103" />
<glyph unicode="&#x2010;" horiz-adv-x="540" d="M45 393v217h451v-217h-451z" />
<glyph unicode="&#x2011;" horiz-adv-x="540" d="M45 393v217h451v-217h-451z" />
<glyph unicode="&#x2012;" horiz-adv-x="540" d="M45 393v217h451v-217h-451z" />
<glyph unicode="&#x2013;" horiz-adv-x="931" d="M45 393v215h842v-215h-842z" />
<glyph unicode="&#x2014;" horiz-adv-x="1863" d="M45 393v215h1774v-215h-1774z" />
<glyph unicode="&#x2018;" horiz-adv-x="602" d="M86 1008q0 151 110.5 257.5t278.5 151.5l68 -133q-163 -83 -215 -182q65 -3 110 -52t45 -122q0 -80 -52 -127t-126 -47q-90 0 -154.5 68.5t-64.5 185.5z" />
<glyph unicode="&#x2019;" horiz-adv-x="602" d="M59 883q163 81 217 180q-66 5 -110.5 53.5t-44.5 120.5q0 80 52 127t126 47q90 0 153.5 -68t63.5 -184q0 -152 -110.5 -260t-278.5 -154z" />
<glyph unicode="&#x201a;" horiz-adv-x="602" d="M59 -190q166 83 217 182q-66 3 -110.5 51.5t-44.5 122.5q0 79 52 125.5t126 46.5q90 0 153.5 -67.5t63.5 -184.5q0 -102 -54.5 -188t-140.5 -141t-194 -83z" />
<glyph unicode="&#x201c;" horiz-adv-x="1071" d="M86 1008q0 151 110.5 257.5t278.5 151.5l68 -133q-163 -83 -215 -182q65 -3 110 -52t45 -122q0 -80 -52 -127t-126 -47q-90 0 -154.5 68.5t-64.5 185.5zM555 1008q0 151 110.5 257.5t276.5 151.5l70 -133q-163 -82 -215 -180q65 -5 110 -54t45 -122q0 -80 -53 -127 t-127 -47q-89 0 -153 68.5t-64 185.5z" />
<glyph unicode="&#x201d;" horiz-adv-x="1071" d="M59 883q163 81 217 180q-66 5 -110.5 53.5t-44.5 120.5q0 80 52 127t126 47q90 0 153.5 -68t63.5 -184q0 -152 -110.5 -260t-278.5 -154zM528 883q164 84 217 180q-66 5 -110.5 53.5t-44.5 120.5q0 80 51.5 127t126.5 47q89 0 152 -68t63 -184q0 -152 -109.5 -260 t-277.5 -154z" />
<glyph unicode="&#x201e;" horiz-adv-x="1071" d="M59 -190q166 83 217 182q-66 3 -110.5 51.5t-44.5 122.5q0 79 52 125.5t126 46.5q90 0 153.5 -67.5t63.5 -184.5q0 -102 -54.5 -188t-140.5 -141t-194 -83zM528 -190q165 82 217 182q-66 3 -110.5 51.5t-44.5 122.5q0 79 51.5 125.5t126.5 46.5q90 0 152.5 -67t62.5 -185 q0 -152 -109.5 -260t-277.5 -152z" />
<glyph unicode="&#x2022;" horiz-adv-x="819" d="M51 502q0 149 105 253.5t254 104.5t253.5 -104.5t104.5 -253.5t-104.5 -254t-253.5 -105t-254 105t-105 254z" />
<glyph unicode="&#x2026;" horiz-adv-x="1474" d="M63 162q0 82 53.5 135t139.5 53q84 0 137 -53t53 -135q0 -83 -53 -137t-137 -54q-85 0 -139 54t-54 137zM545 162q0 82 53 135t139 53t139.5 -53t53.5 -135q0 -83 -54 -137t-139 -54t-138.5 54t-53.5 137zM1028 162q0 82 53 135t138 53q86 0 139 -53t53 -135 q0 -83 -53.5 -137t-138.5 -54t-138 54t-53 137z" />
<glyph unicode="&#x202f;" horiz-adv-x="374" />
<glyph unicode="&#x2039;" horiz-adv-x="591" d="M43 506l274 409l189 -94l-137 -315l137 -318l-189 -94z" />
<glyph unicode="&#x203a;" horiz-adv-x="591" d="M84 188l139 318l-139 315l190 94l277 -409l-277 -412z" />
<glyph unicode="&#x205f;" horiz-adv-x="467" />
<glyph unicode="&#x20ac;" d="M20 379v192h107q-2 18 -2 58v35h-105v190h127q48 208 182.5 311t332.5 103q184 0 335 -99v-333h-239v200q-16 2 -47 2q-99 0 -160.5 -42.5t-89.5 -141.5h241v-190h-264q-2 -16 -2 -48q0 -31 2 -45h264v-192h-235q29 -86 88.5 -123t157.5 -37q122 0 223 68l82 -164 q-130 -152 -367 -152q-190 0 -319 105t-178 303h-134z" />
<glyph unicode="&#x2122;" horiz-adv-x="1525" d="M14 1139v213h576v-213h-144v84h-55v-359h82v-129h-344v129h82v359h-55v-84h-142zM618 735v129h58v359h-58v129h347l69 -301q5 -22 25 -129q12 86 22 129l68 301h113h235v-129h-57v-359h57v-129h-287v129h52v357q-3 -20 -10.5 -55.5t-10.5 -49.5l-98 -381h-195l-96 381 q-17 68 -21 107v-359h50v-129h-263z" />
<glyph unicode="&#x25fc;" horiz-adv-x="952" d="M0 0v952h952v-952h-952z" />
</font>
</defs>
</svg>
