<?xml version="1.0" encoding="UTF-8"?>
<svg xmlns="http://www.w3.org/2000/svg" xmlns:xlink="http://www.w3.org/1999/xlink" version="1.2" >
<font id="Basilia Regular Italic">
<font-face  font-family="Basilia" units-per-em="1000" ascent="677" descent="-323" font-style="italic" font-weight="400" font-stretch="normal" slope="-11.5" cap-height="667" x-height="421" underline-position="-89" underline-thickness="50" />
<missing-glyph  horiz-adv-x="300" d="" />
<glyph glyph-name="NULL" d="" />
<glyph glyph-name="CR" unicode="&#xd;" horiz-adv-x="250" d="" />
<glyph glyph-name="space" unicode="&#x20;" horiz-adv-x="300" d="" />
<glyph glyph-name="exclam" unicode="&#x21;" horiz-adv-x="386" d="M225 155 C238 230 274 346 336 514 C353 558 364 602 364 630 C364 657 343 674 310 674 C260 674 244 644 238 538 C224 297 222 276 198 155 L225 155 Z M194 106 C158 106 131 79 131 44 C131 13 153 -7 185 -7 C222 -7 249 18 249 52 C249 86 229 106 194 106 L194 106 Z " />
<glyph glyph-name="quotedbl" unicode="&#x22;" horiz-adv-x="358" d="M157 399 L237 667 L145 667 L116 399 L157 399 Z M323 399 L403 667 L310 667 L282 399 L323 399 Z " />
<glyph glyph-name="numbersign" unicode="&#x23;" horiz-adv-x="589" d="M398 229 L511 229 L526 269 L417 269 L472 411 L585 411 L600 451 L491 451 L579 667 L535 667 L447 451 L302 451 L390 667 L347 667 L258 451 L139 451 L125 411 L240 411 L185 269 L65 269 L50 229 L166 229 L72 0 L116 0 L210 229 L354 229 L260 0 L304 0 L398 229 Z M373 269 L228 269 L284 411 L428 411 L373 269 Z " />
<glyph glyph-name="dollar" unicode="&#x24;" horiz-adv-x="556" d="M386 747 L357 747 L345 669 C300 668 276 664 244 654 C163 629 114 566 114 490 C114 433 145 381 201 344 L281 292 L232 -3 C172 -1 123 24 123 54 C123 62 126 71 130 79 C151 118 151 118 151 130 C151 156 129 174 99 174 C66 174 46 150 46 112 C46 38 118 -17 228 -26 L214 -110 L243 -110 L257 -26 C321 -23 356 -13 399 12 C460 49 493 105 493 174 C493 239 462 291 398 333 L325 381 L369 645 C423 640 456 620 456 591 C456 584 454 576 451 568 C439 539 439 537 439 528 C439 504 458 487 487 487 C520 487 539 506 539 539 C539 605 479 652 373 668 L386 747 Z M299 399 C220 453 203 476 203 527 C203 556 214 585 233 605 C260 634 290 645 341 647 L299 399 Z M307 274 C385 222 406 192 406 134 C406 99 392 64 367 39 C340 13 311 1 261 -3 L307 274 Z " />
<glyph glyph-name="percent" unicode="&#x25;" horiz-adv-x="890" d="M293 677 C234 677 184 655 150 614 C118 575 98 516 98 461 C98 371 154 316 247 316 C316 316 369 341 402 390 C428 429 444 481 444 529 C444 623 389 677 293 677 L293 677 Z M299 657 C348 657 372 627 372 565 C372 523 358 455 342 420 C318 366 283 337 241 337 C196 337 169 369 169 423 C169 468 183 534 201 576 C226 630 257 657 299 657 L299 657 Z M772 702 L747 721 L165 -25 L189 -44 L772 702 Z M685 355 C625 355 575 333 541 292 C509 253 489 194 489 138 C489 48 545 -7 638 -7 C708 -7 760 18 794 68 C820 106 836 159 836 206 C836 301 781 355 685 355 L685 355 Z M690 335 C740 335 764 305 764 243 C764 200 750 132 734 97 C710 43 674 14 633 14 C587 14 560 46 560 100 C560 146 574 212 592 253 C617 308 649 335 690 335 L690 335 Z " />
<glyph glyph-name="ampersand" unicode="&#x26;" horiz-adv-x="834" d="M767 352 C727 349 697 348 677 348 C657 348 627 349 588 352 L584 330 L655 330 C655 277 635 233 576 154 C530 208 499 245 483 264 C466 286 453 304 404 375 C469 394 500 406 527 422 C584 456 612 498 612 552 C612 632 553 680 454 680 C335 680 252 609 252 508 C252 460 267 415 299 368 C166 324 102 256 102 160 C102 55 183 -13 309 -13 C395 -13 462 12 526 70 L588 -2 C630 1 661 2 682 2 C701 2 733 1 773 -2 L778 22 L755 22 C702 22 679 36 619 103 L590 136 C635 189 669 253 694 330 L763 330 L767 352 Z M393 393 C356 451 339 497 339 545 C339 610 388 659 454 659 C510 659 545 624 545 567 C545 491 489 427 393 393 L393 393 Z M310 349 C383 240 449 154 511 87 C457 36 398 10 334 10 C249 10 197 66 197 157 C197 254 234 317 310 349 L310 349 Z " />
<glyph glyph-name="quotesingle" unicode="&#x27;" horiz-adv-x="204" d="M164 399 L244 667 L149 667 L120 399 L164 399 Z " />
<glyph glyph-name="parenleft" unicode="&#x28;" horiz-adv-x="393" d="M436 710 C313 643 256 595 204 512 C138 407 96 258 96 126 C96 49 110 -17 140 -79 C165 -132 190 -163 252 -221 L265 -205 C247 -189 239 -180 229 -167 C197 -124 177 -50 177 21 C177 127 203 283 241 409 C290 569 336 632 447 692 L436 710 Z " />
<glyph glyph-name="parenright" unicode="&#x29;" horiz-adv-x="393" d="M-44 -221 C79 -155 136 -106 188 -23 C254 82 296 231 296 363 C296 440 282 506 252 567 C227 621 202 652 140 710 L126 694 C145 678 153 669 162 656 C195 613 215 539 215 468 C215 362 189 205 151 79 C102 -80 56 -143 -55 -203 L-44 -221 Z " />
<glyph glyph-name="asterisk" unicode="&#x2a;" horiz-adv-x="446" d="M300 531 C314 530 324 529 326 529 C349 529 368 543 368 558 C368 580 354 597 336 597 C326 597 313 592 305 586 C271 556 261 549 237 541 C236 541 233 540 229 538 C232 570 235 582 246 605 C253 623 256 633 256 645 C256 667 245 678 223 678 C202 678 190 666 190 646 C190 635 192 629 202 604 C211 583 213 571 214 538 C189 546 172 555 156 572 C135 591 121 599 105 599 C90 599 77 582 77 561 C77 542 93 529 116 529 C119 529 129 530 140 532 C146 533 153 533 158 533 C174 533 191 530 211 524 C201 507 181 488 161 477 C131 459 120 446 120 430 C120 414 140 397 158 397 C171 397 187 411 190 427 C199 472 206 490 224 513 C238 495 250 471 252 456 C259 422 259 422 267 413 C274 404 283 398 292 398 C308 398 326 415 326 430 C326 443 315 459 299 468 C268 486 255 498 235 524 C261 530 269 531 288 531 L300 531 Z " />
<glyph glyph-name="plus" unicode="&#x2b;" horiz-adv-x="500" d="M46 370 L46 320 L250 320 L250 126 L302 126 L302 320 L507 320 L507 370 L302 370 L302 565 L250 565 L250 370 L46 370 Z " />
<glyph glyph-name="comma" unicode="&#x2c;" horiz-adv-x="334" d="M47 -119 C88 -104 107 -95 125 -82 C176 -46 205 0 205 45 C205 82 181 107 147 107 C115 107 92 84 92 53 C92 37 100 21 112 11 C136 -7 139 -11 139 -24 C139 -51 102 -78 37 -100 L47 -119 Z " />
<glyph glyph-name="hyphen" unicode="&#x2d;" horiz-adv-x="232" d="M9 257 L0 213 L223 213 L232 257 L9 257 Z " />
<glyph glyph-name="period" unicode="&#x2e;" horiz-adv-x="334" d="M144 106 C109 106 80 78 80 44 C80 14 103 -7 135 -7 C170 -7 199 20 199 53 C199 85 178 106 144 106 L144 106 Z " />
<glyph glyph-name="slash" unicode="&#x2f;" horiz-adv-x="375" d="M415 705 L386 722 L-64 -77 L-34 -93 L415 705 Z " />
<glyph glyph-name="zero" unicode="0" horiz-adv-x="530" d="M333 674 C247 674 178 633 125 550 C75 471 42 353 42 254 C42 92 119 -7 243 -7 C324 -7 391 31 445 107 C502 189 542 316 542 419 C542 584 468 674 333 674 L333 674 Z M345 653 C416 653 452 602 452 500 C452 425 435 321 407 228 C365 84 310 16 236 16 C169 16 129 73 129 171 C129 249 150 362 184 464 C227 595 277 653 345 653 L345 653 Z " />
<glyph glyph-name="one" unicode="1" horiz-adv-x="529" d="M423 680 L383 680 C265 618 239 605 150 565 L160 543 L235 578 C244 582 274 597 318 618 L196 22 L102 22 L97 -2 C157 1 204 2 234 2 C264 2 311 1 371 -2 L375 22 L289 22 L423 680 Z " />
<glyph glyph-name="two" unicode="2" horiz-adv-x="530" d="M438 161 C420 100 390 80 307 78 L67 78 C87 146 167 215 294 273 C404 325 434 344 468 383 C501 420 521 472 521 521 C521 616 446 674 323 674 C198 674 110 614 110 529 C110 493 129 474 165 474 C199 474 218 493 218 529 C218 537 217 545 215 554 C211 573 209 587 209 592 C209 626 252 651 310 651 C385 651 430 613 430 548 C430 475 395 402 334 348 C311 328 308 326 216 266 C67 170 14 104 -1 -2 C17 -1 29 -1 33 -1 L59 0 C134 2 155 2 166 2 L265 2 C283 2 290 2 398 -1 C403 -1 406 -1 431 -2 C440 54 457 138 464 161 L438 161 Z " />
<glyph glyph-name="three" unicode="3" horiz-adv-x="530" d="M212 333 C256 330 277 326 301 314 C342 295 367 251 367 199 C367 89 302 15 207 15 C158 15 116 38 116 66 C116 73 119 86 125 101 C130 113 132 126 132 138 C132 163 111 180 79 180 C43 180 21 155 21 116 C21 42 102 -7 227 -7 C369 -7 466 70 466 182 C466 273 408 322 275 343 C347 347 384 353 418 367 C485 394 525 451 525 519 C525 611 442 674 321 674 C207 674 122 619 122 545 C122 515 144 496 177 496 C210 496 229 515 229 548 C229 555 228 565 226 574 C224 585 223 595 223 601 C223 632 259 654 311 654 C389 654 432 618 432 552 C432 502 414 447 386 414 C353 376 303 357 231 357 L217 357 L212 333 Z " />
<glyph glyph-name="four" unicode="4" horiz-adv-x="529" d="M518 231 L412 231 L502 673 L455 673 C428 647 392 611 346 563 L73 286 L45 259 L18 231 L6 172 L309 172 L279 22 L184 22 L179 -2 C239 1 285 2 314 2 C344 2 390 1 449 -2 L454 22 L369 22 L400 172 L506 172 L518 231 Z M321 231 L53 231 L392 579 L383 535 L374 492 L321 231 Z " />
<glyph glyph-name="five" unicode="5" horiz-adv-x="529" d="M486 504 C501 590 503 603 519 669 L486 668 C410 665 404 665 385 665 L324 665 C305 665 303 665 225 668 L192 669 L104 358 C146 370 190 376 231 376 C318 376 370 324 370 237 C370 188 356 133 332 92 C304 41 254 12 196 12 C150 12 117 33 117 62 C117 69 119 78 127 99 C131 111 134 125 134 134 C134 160 112 179 82 179 C46 179 23 154 23 114 C23 40 93 -7 202 -7 C278 -7 342 13 387 51 C436 92 467 158 467 224 C467 330 380 399 248 399 C207 399 174 396 140 389 L198 591 L364 591 C441 591 464 576 464 525 C464 522 463 512 462 504 L486 504 Z " />
<glyph glyph-name="six" unicode="6" horiz-adv-x="530" d="M146 300 C187 539 259 653 370 653 C411 653 441 633 441 606 C441 599 440 591 437 584 C425 548 425 548 425 533 C425 503 443 487 475 487 C512 487 533 508 533 547 C533 622 464 674 366 674 C275 674 196 631 139 551 C87 477 47 341 47 234 C47 175 62 120 91 77 C128 21 186 -7 266 -7 C398 -7 500 99 500 236 C500 342 426 414 317 414 C240 414 190 380 146 300 L146 300 Z M300 388 C366 388 404 340 404 255 C404 210 394 159 377 120 C348 51 303 16 245 16 C172 16 132 64 132 150 C132 281 207 388 300 388 L300 388 Z " />
<glyph glyph-name="seven" unicode="7" horiz-adv-x="530" d="M144 511 C167 580 190 594 278 593 L523 593 C328 363 170 141 99 0 L221 0 C322 219 461 470 575 638 L581 669 C563 668 551 668 547 668 L520 667 C445 665 425 665 413 665 L319 665 C301 665 294 665 186 668 C180 668 178 668 153 669 C150 645 147 627 139 591 C136 578 134 569 123 522 L121 511 L144 511 Z " />
<glyph glyph-name="eight" unicode="8" horiz-adv-x="530" d="M350 353 C412 372 435 382 463 402 C498 428 522 473 522 516 C522 608 441 674 329 674 C203 674 111 598 111 494 C111 429 139 382 209 331 C154 320 129 311 99 291 C51 259 20 205 20 151 C20 56 105 -7 233 -7 C381 -7 478 66 478 175 C478 209 468 240 446 270 C430 294 413 308 362 344 L350 353 Z M291 394 C225 440 198 480 198 532 C198 602 254 653 332 653 C405 653 458 606 458 539 C458 502 442 462 414 428 C395 405 375 390 332 365 L291 394 Z M299 274 C356 238 384 195 384 146 C384 71 320 15 233 15 C146 15 90 67 90 148 C90 191 105 230 135 262 C156 284 180 299 230 319 L299 274 Z " />
<glyph glyph-name="nine" unicode="9" horiz-adv-x="530" d="M441 377 C429 311 412 247 391 189 C349 73 291 17 211 17 C166 17 135 37 135 64 C135 72 138 85 144 104 C149 117 151 130 151 140 C151 166 128 187 97 187 C63 187 42 165 42 128 C42 48 112 -7 213 -7 C324 -7 408 45 467 152 C507 225 534 336 534 430 C534 587 460 674 326 674 C190 674 94 578 94 443 C94 335 165 264 273 264 C348 264 391 293 441 377 L441 377 Z M342 650 C412 650 452 602 452 516 C452 394 377 290 290 290 C221 290 183 339 183 427 C183 554 252 650 342 650 L342 650 Z " />
<glyph glyph-name="colon" unicode="&#x3a;" horiz-adv-x="334" d="M208 427 C173 427 144 399 144 365 C144 335 167 314 199 314 C234 314 263 341 263 374 C263 406 242 427 208 427 L208 427 Z M141 106 C106 106 77 78 77 44 C77 14 100 -7 132 -7 C167 -7 196 20 196 53 C196 85 175 106 141 106 L141 106 Z " />
<glyph glyph-name="semicolon" unicode="&#x3b;" horiz-adv-x="336" d="M47 -119 C88 -104 107 -95 125 -82 C176 -46 205 0 205 45 C205 82 181 107 147 107 C115 107 92 84 92 53 C92 37 100 21 112 11 C136 -7 139 -11 139 -24 C139 -51 102 -78 37 -100 L47 -119 Z M216 427 C181 427 152 399 152 365 C152 335 175 314 207 314 C242 314 271 341 271 374 C271 406 250 427 216 427 L216 427 Z " />
<glyph glyph-name="less" unicode="&#x3c;" horiz-adv-x="500" d="M485 618 L69 352 L69 345 L485 66 L485 182 L187 381 L485 574 L485 618 Z " />
<glyph glyph-name="equal" unicode="&#x3d;" horiz-adv-x="500" d="M46 442 L46 393 L507 393 L507 442 L46 442 Z M46 298 L46 249 L507 249 L507 298 L46 298 Z " />
<glyph glyph-name="greater" unicode="&#x3e;" horiz-adv-x="500" d="M69 66 L485 332 L485 338 L69 618 L69 502 L367 302 L69 110 L69 66 Z " />
<glyph glyph-name="question" unicode="&#x3f;" horiz-adv-x="560" d="M241 148 C265 263 279 284 359 324 C434 362 440 365 457 377 C504 411 533 466 533 519 C533 609 452 674 338 674 C227 674 142 616 142 540 C142 504 165 481 202 481 C235 481 256 503 256 539 C256 546 255 557 253 567 C250 580 249 592 249 598 C249 630 283 651 332 651 C400 651 441 614 441 553 C441 511 427 470 397 429 C376 400 361 386 316 352 C253 305 229 259 215 148 L241 148 Z M215 106 C179 106 152 79 152 44 C152 13 174 -7 206 -7 C243 -7 270 18 270 52 C270 86 250 106 215 106 L215 106 Z " />
<glyph glyph-name="at" unicode="&#x40;" horiz-adv-x="776" d="M632 118 C593 88 585 82 566 69 C520 39 464 22 409 22 C342 22 275 47 225 90 C164 142 123 228 123 305 C123 382 166 492 218 548 C276 611 365 648 459 648 C609 648 714 550 714 409 C714 342 691 277 649 228 C620 193 588 173 562 173 C540 173 528 188 528 216 C528 228 533 258 539 281 L599 519 C576 514 565 513 543 512 L535 471 C512 508 483 525 445 525 C350 525 250 391 250 264 C250 188 288 136 345 136 C392 136 439 168 479 229 C478 174 504 139 545 139 C651 139 751 272 751 414 C751 572 631 682 457 682 C376 682 300 660 239 617 C142 551 79 433 79 316 C79 133 222 -14 401 -14 C464 -14 533 7 583 41 C606 57 624 72 664 108 L632 118 Z M494 352 C493 350 492 345 490 336 C487 321 486 317 483 306 C475 283 465 260 452 239 C422 190 393 167 360 167 C328 167 306 196 306 239 C306 290 325 355 356 411 C387 468 421 496 460 496 C494 496 516 468 516 426 C516 422 516 419 515 416 L494 352 Z " />
<glyph glyph-name="A" unicode="A" horiz-adv-x="698" d="M166 218 L435 218 L479 22 L401 22 L396 -2 C451 1 488 2 519 2 C540 2 579 1 626 -2 L631 22 L579 22 L436 677 L410 677 L110 174 C61 93 36 54 11 22 L-34 22 L-39 -2 C-7 1 19 2 33 2 C54 2 79 1 116 -2 L120 22 L55 22 C77 67 88 88 125 150 L166 218 Z M181 241 L364 551 L431 241 L181 241 Z " />
<glyph glyph-name="B" unicode="B" horiz-adv-x="609" d="M117 645 L201 645 L74 22 L-10 22 L-15 -2 C13 -1 13 -1 55 0 C131 2 131 2 155 2 L196 2 C243 1 277 0 286 0 C457 0 568 74 568 189 C568 237 543 283 504 309 C475 328 448 336 385 342 C455 348 486 357 526 381 C582 415 614 466 614 521 C614 578 581 623 524 646 C485 661 451 664 339 665 C273 665 232 665 216 666 C171 666 166 666 121 669 L117 645 Z M239 354 L298 643 L359 643 C461 643 514 607 514 537 C514 484 491 429 455 396 C422 367 372 354 290 354 L239 354 Z M172 23 L235 330 L298 330 C412 330 464 294 464 214 C464 160 442 103 409 71 C373 37 327 23 246 23 L172 23 Z " />
<glyph glyph-name="C" unicode="C" horiz-adv-x="665" d="M572 212 C554 156 538 126 506 89 C461 39 409 12 353 12 C290 12 233 47 204 103 C183 143 175 185 175 249 C175 351 197 445 236 517 C285 606 366 656 460 656 C554 656 609 599 609 501 L608 466 L632 466 C652 582 660 622 671 658 C658 657 651 657 645 657 C625 657 611 659 573 665 C475 680 475 680 443 680 C229 680 71 514 71 289 C71 100 175 -13 348 -13 C378 -13 409 -10 438 -3 C498 11 505 12 528 12 C536 12 543 12 558 10 C559 39 577 133 597 212 L572 212 Z " />
<glyph glyph-name="D" unicode="D" horiz-adv-x="738" d="M-14 -2 C12 -1 31 0 40 0 L131 0 L206 1 C301 1 301 1 326 3 C419 9 484 26 541 59 C647 120 713 247 713 388 C713 510 664 596 574 635 C522 657 447 668 353 667 C233 666 233 666 225 666 C191 666 169 666 119 668 L114 645 L203 645 L76 22 L-9 22 L-14 -2 Z M174 23 L300 643 L365 643 C441 643 496 628 535 596 C584 557 613 489 613 414 C613 325 581 212 538 150 C480 66 386 23 257 23 L174 23 Z " />
<glyph glyph-name="E" unicode="E" horiz-adv-x="614" d="M239 335 L333 335 C402 335 430 311 430 253 C430 248 429 231 427 219 L453 219 C467 313 487 411 503 466 L478 466 C454 383 420 358 331 359 L243 359 L301 643 L439 643 C539 643 581 611 581 536 C581 530 579 511 578 497 L604 497 C615 563 623 602 638 669 C615 668 609 668 605 668 L578 667 C502 665 484 665 471 665 L292 665 C274 665 267 665 159 668 C156 668 143 668 126 669 L122 645 L204 645 L77 22 L-5 22 L-10 -2 C8 -1 20 -1 24 -1 L50 0 C125 2 146 2 157 2 L352 2 C370 2 377 2 485 -1 C490 -1 493 -1 518 -2 C523 35 543 133 555 183 L531 183 C494 71 425 23 303 24 L175 24 L239 335 Z " />
<glyph glyph-name="F" unicode="F" horiz-adv-x="558" d="M240 322 L310 322 C381 322 418 294 418 239 C418 231 417 223 414 207 L440 207 C451 274 462 336 463 339 C471 374 480 410 488 446 L490 454 L465 454 C447 378 407 349 313 345 L245 345 L306 645 L442 645 C532 645 573 611 573 534 C573 528 571 507 569 491 L593 491 C596 512 600 529 610 578 C618 615 623 636 629 669 C606 668 600 668 596 668 L569 667 C493 665 475 665 462 665 L294 665 C276 665 269 665 161 668 C158 668 145 668 128 669 L124 645 L207 645 L80 22 L-3 22 L-8 -2 C49 1 96 2 121 2 C158 2 203 1 268 -2 L273 22 L179 22 L240 322 Z " />
<glyph glyph-name="G" unicode="G" horiz-adv-x="723" d="M641 245 L712 245 L718 268 C664 266 620 265 595 265 C564 265 522 266 464 268 L459 245 L543 245 L503 48 C463 23 419 11 366 11 C251 11 174 105 174 246 C174 328 198 427 236 498 C290 600 378 656 483 656 C585 656 642 603 642 509 C642 493 641 482 638 462 L663 462 C674 532 693 628 701 653 L689 653 C654 653 641 655 578 667 C521 678 504 680 466 680 C361 680 273 650 203 589 C118 515 69 406 69 291 C69 216 89 147 127 92 C175 23 250 -13 348 -13 C382 -13 421 -9 461 -1 C519 11 525 12 561 12 C567 12 580 12 594 11 L641 245 Z " />
<glyph glyph-name="H" unicode="H" horiz-adv-x="727" d="M240 328 L541 328 L479 22 L399 22 L394 -2 C447 1 492 2 516 2 C551 2 593 1 655 -2 L660 22 L576 22 L702 645 L786 645 L791 669 C737 666 691 665 667 665 C631 665 588 666 525 669 L520 645 L605 645 L546 353 L245 353 L305 645 L389 645 L394 669 C340 666 294 665 270 665 C234 665 191 666 128 669 L123 645 L208 645 L81 22 L3 22 L-2 -2 C51 1 96 2 119 2 C154 2 196 1 258 -2 L262 22 L178 22 L240 328 Z " />
<glyph glyph-name="I" unicode="I" horiz-adv-x="325" d="M302 645 L381 645 L386 669 C332 666 287 665 263 665 C228 665 185 666 123 669 L119 645 L204 645 L77 22 L-8 22 L-13 -2 C42 1 88 2 112 2 C148 2 192 1 255 -2 L260 22 L175 22 L302 645 Z " />
<glyph glyph-name="J" unicode="J" horiz-adv-x="447" d="M13 185 L-4 93 L-22 15 L-24 3 C-1 2 8 1 16 1 L49 -3 L82 -8 C125 -13 125 -13 144 -13 C222 -13 277 14 306 68 C326 104 335 134 352 218 L439 645 L516 645 L521 669 C465 666 419 665 394 665 C357 665 313 666 249 669 L244 645 L342 645 L253 208 C242 154 225 97 210 66 C194 32 164 11 130 11 C73 11 35 66 35 148 C35 154 36 171 37 185 L13 185 Z " />
<glyph glyph-name="K" unicode="K" horiz-adv-x="724" d="M330 391 L588 588 C604 600 616 609 631 618 L671 645 L738 645 L744 669 C702 666 666 665 648 665 C620 665 587 666 539 669 L534 645 L608 645 C570 607 548 588 518 565 L246 359 L304 645 L389 645 L394 669 C339 666 292 665 268 665 C232 665 188 666 124 669 L120 645 L206 645 L79 22 L-7 22 L-12 -2 C43 1 90 2 114 2 C150 2 194 1 258 -2 L263 22 L177 22 L244 350 L482 22 L403 22 L397 -2 C464 1 510 2 549 2 C574 2 623 1 681 -2 L686 22 L603 22 L330 391 Z " />
<glyph glyph-name="L" unicode="L" horiz-adv-x="555" d="M177 24 L302 645 L393 645 L398 669 C342 666 295 665 270 665 C233 665 189 666 124 669 L120 645 L205 645 L78 22 L-7 22 L-12 -2 C6 -1 18 -1 22 -1 L48 0 C123 2 144 2 155 2 L330 2 C348 2 355 2 463 -1 C468 -1 471 -1 496 -2 C500 38 523 153 534 184 L509 184 C468 66 418 27 302 24 L177 24 Z " />
<glyph glyph-name="M" unicode="M" horiz-adv-x="890" d="M349 0 L375 0 L768 645 L642 22 L558 22 L553 -2 C607 1 652 2 676 2 C711 2 754 1 816 -2 L821 22 L740 22 L867 645 L947 645 L952 669 C906 666 874 665 847 665 C829 665 795 666 755 669 L422 123 L307 669 C269 666 237 665 221 665 C195 665 166 666 121 669 L117 645 L191 645 L91 133 C86 105 79 79 64 22 L-15 22 L-20 -2 C20 1 54 2 72 2 C98 2 130 1 176 -2 L181 22 L105 22 C106 70 110 102 120 155 L215 645 L349 0 Z " />
<glyph glyph-name="N" unicode="N" horiz-adv-x="726" d="M556 -7 L592 -7 L700 524 C705 551 713 583 730 645 L806 645 L812 669 C771 666 737 665 719 665 C692 665 660 666 613 669 L608 645 L691 645 C690 618 686 591 677 538 L594 131 L326 669 C286 666 253 665 236 665 C210 665 179 666 133 669 L128 645 L210 645 L113 141 C105 105 91 49 83 22 L2 22 L-3 -2 C37 1 70 2 87 2 C113 2 144 1 190 -2 L195 22 L121 22 C123 49 128 84 136 131 L235 638 L556 -7 Z " />
<glyph glyph-name="O" unicode="O" horiz-adv-x="753" d="M452 684 C243 684 90 507 90 267 C90 91 194 -17 364 -17 C472 -17 571 32 631 115 C687 192 724 307 724 401 C724 579 623 684 452 684 L452 684 Z M457 662 C563 662 625 583 625 448 C625 368 595 236 559 160 C512 58 441 4 355 4 C252 4 186 86 186 216 C186 318 223 461 270 540 C318 620 382 662 457 662 L457 662 Z " />
<glyph glyph-name="P" unicode="P" horiz-adv-x="585" d="M231 297 L311 297 C416 297 472 308 524 337 C583 371 617 432 617 505 C617 615 541 667 382 667 C378 667 358 667 331 666 L259 666 C183 666 172 666 123 669 L119 645 L203 645 L77 22 L-8 22 L-13 -2 C45 1 93 2 119 2 C156 2 202 1 269 -2 L273 22 L175 22 L231 297 Z M236 321 L301 643 L349 643 C412 643 449 636 475 619 C503 601 520 565 520 523 C520 488 511 450 496 418 C471 366 433 337 375 326 C349 321 335 321 266 321 L236 321 Z " />
<glyph glyph-name="Q" unicode="Q" horiz-adv-x="755" d="M402 -19 C480 -5 528 14 572 50 C661 120 724 269 724 409 C724 576 618 684 453 684 C358 684 275 650 211 586 C136 511 89 385 89 260 C89 111 160 17 295 -14 L357 -118 C402 -192 429 -208 507 -209 L589 -209 L594 -185 L566 -185 C518 -185 490 -167 456 -110 L402 -19 Z M458 660 C562 660 625 579 625 445 C625 365 597 240 561 162 C513 59 440 2 355 2 C252 2 185 85 185 212 C185 308 215 433 260 522 C303 609 377 660 458 660 L458 660 Z " />
<glyph glyph-name="R" unicode="R" horiz-adv-x="651" d="M118 645 L202 645 L75 22 L-9 22 L-14 -2 C41 1 87 2 111 2 C147 2 190 1 253 -2 L258 22 L172 22 L231 313 L280 313 C422 309 450 282 446 159 L444 111 L444 93 C444 50 447 28 459 -2 C492 1 520 2 534 2 C556 2 582 1 620 -2 L625 24 L604 24 C555 24 539 43 539 101 L539 117 L540 175 L540 180 C541 278 497 318 383 324 C444 331 478 340 512 357 C576 388 610 440 610 505 C610 569 573 624 517 645 C477 660 422 667 358 666 C280 665 280 665 267 665 C181 665 172 665 122 669 L118 645 Z M236 337 L298 643 L333 643 C466 643 514 611 514 521 C514 462 489 406 449 376 C412 349 361 337 284 337 L236 337 Z " />
<glyph glyph-name="S" unicode="S" horiz-adv-x="562" d="M64 205 C58 151 41 65 26 11 C32 11 36 11 38 10 L69 9 C75 8 104 4 125 0 C182 -10 208 -13 247 -13 C392 -13 494 70 494 188 C494 254 464 303 395 348 L295 414 C224 461 203 488 203 538 C203 611 260 660 344 660 C440 660 495 607 495 517 C495 511 493 492 492 477 L517 477 C523 525 534 589 549 660 C513 663 486 666 468 668 C411 677 381 680 347 680 C209 680 114 607 114 500 C114 441 143 394 205 353 L318 278 C382 235 406 199 406 147 C406 64 341 7 247 7 C148 7 84 68 84 161 C84 169 86 189 88 205 L64 205 Z " />
<glyph glyph-name="T" unicode="T" horiz-adv-x="612" d="M442 643 L504 643 C594 643 631 614 631 541 C631 524 630 510 625 483 L650 483 C655 518 660 548 666 571 L684 656 L687 669 C664 668 657 668 654 668 L627 667 C551 665 532 665 520 665 L274 665 C255 665 249 665 141 668 C138 668 125 668 108 669 C98 609 94 587 92 577 C80 526 73 495 71 483 L95 483 C121 593 189 645 304 643 L344 643 L218 22 L134 22 L129 -2 C184 1 230 2 254 2 C290 2 333 1 396 -2 L400 22 L316 22 L442 643 Z " />
<glyph glyph-name="U" unicode="U" horiz-adv-x="695" d="M177 645 L106 296 C97 254 91 207 91 184 C91 67 191 -13 336 -13 C487 -13 566 60 601 230 L660 519 C673 584 680 610 690 645 L760 645 L766 669 C728 666 696 665 679 665 C654 665 624 666 581 669 L576 645 L649 645 C644 593 636 539 620 460 L581 269 C563 182 550 143 527 104 C493 48 430 16 356 16 C250 16 190 75 190 180 C190 211 197 263 209 323 L275 645 L355 645 L360 669 C306 666 260 665 236 665 C200 665 157 666 95 669 L90 645 L177 645 Z " />
<glyph glyph-name="V" unicode="V" horiz-adv-x="681" d="M284 -7 L314 -7 L622 524 C647 567 652 574 699 645 L747 645 L753 669 C717 666 687 665 672 665 C649 665 621 666 580 669 L576 645 L657 645 C645 619 624 580 603 543 L357 117 L250 645 L331 645 L336 669 C282 666 244 665 213 665 C193 665 153 666 106 669 L101 645 L152 645 L284 -7 Z " />
<glyph glyph-name="W" unicode="W" horiz-adv-x="1037" d="M663 -7 L696 -7 L989 531 C994 540 999 549 1003 558 C1012 574 1020 587 1025 596 C1036 614 1041 623 1055 645 L1102 645 L1107 669 C1072 666 1043 665 1028 665 C1005 665 977 666 937 669 L932 645 L1012 645 C1003 623 976 564 958 531 L739 124 L654 674 L621 674 L326 124 L245 645 L325 645 L331 669 C275 666 238 665 206 665 C185 665 145 666 98 669 L93 645 L147 645 L251 -7 L282 -7 L575 533 L663 -7 Z " />
<glyph glyph-name="X" unicode="X" horiz-adv-x="692" d="M419 364 L605 563 C624 584 637 598 646 606 L686 645 L741 645 L746 669 C709 666 678 665 661 665 C637 665 608 666 565 669 L560 645 L639 645 C623 622 600 596 569 562 L407 390 L289 645 L370 645 L375 669 C317 666 276 665 243 665 C221 665 178 666 127 669 L122 645 L183 645 L326 334 L117 110 C92 83 54 45 29 22 L-21 22 L-26 -2 C10 1 41 2 57 2 C81 2 110 1 151 -2 L156 22 L78 22 C88 36 88 37 98 48 C111 64 126 80 136 92 L338 309 L471 22 L381 22 L375 -2 C435 1 476 2 511 2 C533 2 577 1 629 -2 L634 22 L579 22 L419 364 Z " />
<glyph glyph-name="Y" unicode="Y" horiz-adv-x="645" d="M390 280 L588 546 C610 575 642 614 669 645 L716 645 L721 669 C685 666 655 665 639 665 C616 665 588 666 547 669 L542 645 L620 645 C600 608 595 601 541 525 L381 310 L254 645 L339 645 L344 669 C287 666 248 665 216 665 C194 665 153 666 104 669 L99 645 L151 645 L291 280 L238 22 L155 22 L150 -2 C203 1 248 2 272 2 C307 2 349 1 410 -2 L415 22 L337 22 L390 280 Z " />
<glyph glyph-name="Z" unicode="Z" horiz-adv-x="583" d="M513 182 C482 73 412 22 296 24 L119 24 L619 649 L623 669 C600 668 593 668 589 668 L563 667 C487 665 468 665 456 665 L297 665 C278 665 272 665 164 668 C160 668 148 668 131 669 C125 633 107 541 95 493 L121 493 C152 596 222 645 336 643 L493 643 L-9 23 L-13 -2 C5 -1 17 -1 21 -1 L47 0 C122 2 143 2 154 2 L336 2 C354 2 361 2 469 -1 C474 -1 477 -1 502 -2 C516 78 518 87 539 182 L513 182 Z " />
<glyph glyph-name="bracketleft" unicode="&#x5b;" horiz-adv-x="390" d="M412 717 C371 716 343 715 319 715 C304 715 274 716 240 717 L53 -202 C86 -201 115 -200 128 -200 C156 -200 182 -200 225 -202 L230 -180 L141 -180 L319 695 L408 695 L412 717 Z " />
<glyph glyph-name="backslash" unicode="&#x5c;" horiz-adv-x="376" d="M166 705 L290 -93 L327 -77 L202 722 L166 705 Z " />
<glyph glyph-name="bracketright" unicode="&#x5d;" horiz-adv-x="390" d="M-22 -201 C20 -200 47 -199 71 -199 C86 -199 116 -200 150 -201 L337 717 C304 716 275 715 262 715 C234 715 208 715 165 717 L160 695 L249 695 L71 -179 L-17 -179 L-22 -201 Z " />
<glyph glyph-name="asciicircum" unicode="&#x5e;" horiz-adv-x="500" d="M553 284 L287 700 L280 700 L1 284 L117 284 L316 582 L509 284 L553 284 Z " />
<glyph glyph-name="underscore" unicode="&#x5f;" horiz-adv-x="500" d="M46 -89 L46 -139 L507 -139 L507 -89 L46 -89 Z " />
<glyph glyph-name="grave" unicode="&#x60;" horiz-adv-x="500" d="M255 494 L266 502 L229 592 C206 647 178 672 139 672 C117 672 101 662 101 648 C101 633 107 624 135 600 L255 494 Z " />
<glyph glyph-name="a" unicode="a" horiz-adv-x="499" d="M340 252 C219 250 135 234 93 205 C55 179 33 139 33 95 C33 31 82 -13 151 -13 C225 -13 283 29 316 107 L308 73 C305 59 303 45 303 34 C303 8 314 -2 342 -2 L372 -1 L461 3 L466 24 L444 23 L424 22 C402 21 387 32 387 50 C387 55 387 55 394 96 L427 259 C431 279 434 303 434 318 C434 391 382 430 284 430 C180 430 102 384 102 324 C102 301 119 286 146 286 C177 286 192 304 195 344 C197 376 199 384 209 393 C221 405 248 413 275 413 C327 413 357 387 357 344 C357 338 356 327 354 319 L340 252 Z M336 231 C324 172 315 145 300 113 C268 51 228 18 182 18 C143 18 123 42 123 87 C123 142 147 186 186 207 C219 224 265 231 336 231 L336 231 Z " />
<glyph glyph-name="b" unicode="b" horiz-adv-x="547" d="M191 341 L198 374 L260 677 C181 668 169 667 92 667 L87 644 L169 649 L88 241 C80 201 74 158 74 140 C74 43 141 -14 253 -14 C330 -14 388 12 430 65 C469 115 496 198 496 272 C496 370 440 430 349 430 C301 430 263 413 231 379 C215 362 206 348 183 301 L191 341 Z M335 408 C383 408 408 373 408 305 C408 255 390 171 368 118 C338 46 293 7 242 7 C187 7 156 49 156 125 C156 186 177 260 210 319 C243 375 289 408 335 408 L335 408 Z " />
<glyph glyph-name="c" unicode="c" horiz-adv-x="445" d="M373 125 C348 53 299 12 238 12 C175 12 139 54 139 129 C139 187 151 246 176 309 C205 381 239 412 288 412 C320 412 340 399 340 379 C340 374 340 372 334 352 C332 344 331 335 331 329 C331 303 349 287 377 287 C408 287 428 308 428 339 C428 393 371 430 288 430 C145 430 48 322 48 163 C48 55 116 -13 224 -13 C308 -13 364 30 394 118 L373 125 Z " />
<glyph glyph-name="d" unicode="d" horiz-adv-x="545" d="M559 677 C476 668 463 667 382 667 L377 644 L471 649 L410 351 L407 334 L403 313 C397 355 390 375 374 393 C352 417 320 430 281 430 C209 430 137 390 98 327 C68 279 49 213 49 154 C49 54 109 -13 198 -13 C272 -13 328 30 367 115 L358 76 C353 56 350 39 350 31 C350 6 362 -3 394 -3 C407 -3 424 -2 439 -1 L511 5 L514 25 C491 23 474 22 464 22 C445 22 433 31 434 46 C434 50 436 59 438 72 L559 677 Z M300 405 C358 405 388 360 388 275 C388 141 303 10 216 10 C163 10 137 44 137 114 C137 185 162 281 195 334 C224 381 259 405 300 405 L300 405 Z " />
<glyph glyph-name="e" unicode="e" horiz-adv-x="501" d="M381 212 C430 212 452 232 452 277 C452 366 382 430 285 430 C149 430 47 318 47 169 C47 59 120 -13 232 -13 C323 -13 385 29 424 119 L405 126 C369 48 314 8 243 8 C172 8 134 48 134 123 C134 149 136 169 144 212 L381 212 Z M148 232 C175 350 222 411 287 411 C340 411 366 376 366 306 C366 249 354 232 313 232 L148 232 Z " />
<glyph glyph-name="f" unicode="f" horiz-adv-x="300" d="M218 395 L323 395 L327 415 L222 415 L232 466 C250 554 255 572 273 605 C289 635 320 656 347 656 C363 656 374 647 374 635 C374 629 373 623 371 618 C363 594 363 594 363 584 C363 562 378 549 404 549 C436 549 454 569 454 604 C454 649 415 680 357 680 C305 680 254 651 214 598 C180 553 160 506 136 415 L42 415 L38 395 L132 395 L106 267 L75 101 C29 -140 29 -140 11 -173 C0 -193 -23 -208 -45 -208 C-60 -208 -71 -201 -71 -190 C-71 -186 -70 -179 -67 -170 C-65 -161 -63 -150 -63 -143 C-63 -123 -78 -110 -102 -110 C-132 -110 -150 -129 -150 -161 C-150 -201 -114 -230 -63 -230 C-5 -230 50 -189 92 -114 C121 -63 147 23 170 145 L218 395 Z " />
<glyph glyph-name="g" unicode="g" horiz-adv-x="479" d="M458 422 L336 422 C308 428 296 430 274 430 C156 430 79 359 79 249 C79 199 95 166 133 138 C75 118 46 87 46 45 C46 22 53 7 71 -10 C8 -40 -21 -74 -21 -121 C-21 -189 51 -230 170 -230 C312 -230 393 -176 393 -80 C393 -8 349 28 251 36 L166 42 C122 46 104 57 104 81 C104 102 121 118 155 128 C177 120 196 117 227 117 C295 117 343 135 376 173 C404 205 421 253 421 297 C421 342 408 371 377 399 L453 399 L458 422 Z M275 411 C318 411 343 379 343 324 C343 290 329 232 312 199 C292 158 263 137 226 137 C183 137 157 169 157 221 C157 262 171 319 189 352 C211 391 240 411 275 411 L275 411 Z M250 -44 C301 -48 323 -55 340 -73 C349 -83 354 -97 354 -110 C354 -167 282 -209 185 -209 C95 -209 35 -165 35 -100 C35 -65 50 -43 89 -20 C104 -28 122 -32 150 -35 L250 -44 Z " />
<glyph glyph-name="h" unicode="h" horiz-adv-x="553" d="M204 329 L209 354 L216 385 L275 677 C195 668 183 667 105 667 L101 644 L184 649 L70 88 C61 47 56 24 48 -3 L142 3 C144 25 149 57 153 79 L170 159 C199 305 268 402 343 402 C378 402 402 378 402 343 C402 331 400 316 394 289 L350 68 C347 55 345 41 345 33 C345 7 359 -2 400 -2 C409 -2 419 -2 428 -1 L515 6 L521 27 L482 22 L466 21 C446 20 433 32 433 51 C433 57 434 66 437 80 L477 278 C481 298 484 318 484 331 C484 391 440 430 373 430 C294 430 238 389 199 303 L204 329 Z " />
<glyph glyph-name="i" unicode="i" horiz-adv-x="267" d="M218 423 C139 415 127 414 51 413 L46 390 L126 397 L61 76 C57 57 55 40 55 33 C55 9 71 -3 104 -3 C118 -3 137 -2 151 -1 L218 5 L222 25 L185 22 C158 20 143 29 143 47 C143 53 144 63 146 72 L218 423 Z M208 657 C173 657 146 634 146 603 C146 576 168 557 200 557 C235 557 261 581 261 612 C261 639 240 657 208 657 L208 657 Z " />
<glyph glyph-name="j" unicode="j" horiz-adv-x="271" d="M231 423 C148 414 136 414 51 413 L47 390 L137 395 L72 63 C54 -32 41 -87 30 -124 C13 -178 -18 -209 -55 -209 C-72 -209 -84 -200 -84 -186 C-84 -181 -83 -174 -81 -168 C-73 -146 -73 -146 -73 -137 C-73 -115 -89 -101 -114 -101 C-147 -101 -167 -122 -167 -158 C-167 -204 -133 -230 -73 -230 C46 -230 118 -129 165 103 L231 423 Z M224 657 C189 657 162 634 162 603 C162 576 184 557 215 557 C250 557 276 581 276 612 C276 639 255 657 224 657 L224 657 Z " />
<glyph glyph-name="k" unicode="k" horiz-adv-x="529" d="M189 255 L275 677 C196 668 184 668 110 667 L105 644 L183 649 L69 88 C60 45 55 24 47 -3 L142 3 C144 23 149 58 153 79 L187 243 L303 64 C338 11 360 -4 404 -4 L425 -3 L506 4 L512 25 L495 23 L484 23 C447 23 427 38 393 88 L270 270 L313 291 C409 338 453 373 453 402 C453 418 437 429 414 429 C380 429 365 415 355 375 C345 334 334 323 267 291 L189 255 Z " />
<glyph glyph-name="l" unicode="l" horiz-adv-x="305" d="M277 677 C198 668 186 668 111 667 L107 644 L184 649 L68 76 C60 40 60 37 60 32 C60 6 75 -5 109 -5 C118 -5 125 -4 158 -1 L227 5 L230 25 C214 24 201 23 193 23 C187 22 182 22 178 22 C160 22 149 32 150 47 C150 53 152 62 154 72 L277 677 Z " />
<glyph glyph-name="m" unicode="m" horiz-adv-x="834" d="M223 423 C147 414 135 414 60 413 L55 390 L137 397 L74 88 C65 47 61 27 52 -3 L148 3 C150 25 155 57 159 79 L179 177 C208 317 270 404 341 404 C378 404 400 381 400 343 C400 324 397 296 392 272 L355 88 C346 48 341 24 333 -3 L428 3 C431 33 435 56 441 86 L462 181 C490 316 555 404 626 404 C663 404 684 382 684 345 C684 333 682 319 677 292 L631 68 C627 48 625 37 625 32 C625 10 640 -3 665 -3 C670 -3 689 -2 710 0 L791 6 L794 27 L764 25 C752 24 743 24 742 24 C724 24 714 34 714 51 C714 55 715 59 719 80 L760 282 C764 303 766 320 766 338 C766 394 722 430 654 430 C576 430 526 394 486 309 C486 342 486 342 483 353 C472 403 431 430 368 430 C288 430 232 385 197 292 L223 423 Z " />
<glyph glyph-name="n" unicode="n" horiz-adv-x="558" d="M221 423 C144 415 133 414 59 413 L54 390 L133 397 L70 88 C61 47 57 27 48 -3 L140 3 C142 19 142 20 147 49 L153 79 L171 161 C202 312 266 402 341 402 C381 402 404 379 404 340 C404 328 404 328 396 289 L352 76 C348 57 346 41 346 33 C346 10 361 -2 391 -2 C407 -2 431 -1 441 0 L503 5 L506 25 L477 23 C472 22 467 22 463 22 C445 22 435 31 435 47 C435 54 436 63 438 72 L480 281 C484 301 487 321 487 332 C487 391 441 430 372 430 C289 430 230 384 191 289 L221 423 Z " />
<glyph glyph-name="o" unicode="o" horiz-adv-x="518" d="M285 434 C205 434 134 397 94 333 C63 283 45 216 45 152 C45 50 116 -13 231 -13 C306 -13 371 17 411 68 C448 117 473 192 473 256 C473 370 406 434 285 434 L285 434 Z M298 415 C355 415 384 375 384 298 C384 247 369 171 349 123 C317 45 276 7 221 7 C166 7 133 48 133 115 C133 180 156 277 183 329 C214 386 252 415 298 415 L298 415 Z " />
<glyph glyph-name="p" unicode="p" horiz-adv-x="543" d="M217 423 C141 415 129 414 56 413 L51 390 L129 397 L15 -159 C12 -174 10 -190 10 -198 C10 -217 25 -230 47 -230 C52 -230 69 -229 92 -227 L177 -221 L180 -200 L144 -203 C139 -204 133 -204 130 -204 C107 -204 98 -198 98 -182 C98 -174 100 -159 102 -147 L155 112 C156 31 197 -13 274 -13 C404 -13 507 110 507 264 C507 368 452 430 361 430 C282 430 224 385 188 293 C190 303 193 312 193 315 C196 325 198 332 199 335 L217 423 Z M344 410 C393 410 420 369 420 295 C420 244 406 183 382 126 C349 48 308 9 258 9 C207 9 173 57 173 129 C173 277 254 410 344 410 L344 410 Z " />
<glyph glyph-name="q" unicode="q" horiz-adv-x="548" d="M507 420 L421 420 L399 310 C392 346 388 359 378 377 C359 411 321 430 272 430 C197 430 129 389 90 319 C63 271 47 211 47 157 C47 56 106 -13 193 -13 C262 -13 313 24 359 107 L304 -159 C301 -173 299 -189 299 -196 C299 -220 311 -230 338 -230 C343 -230 360 -229 382 -227 L465 -221 L468 -200 L437 -202 C425 -203 416 -203 416 -203 C397 -203 387 -193 387 -176 C387 -171 389 -159 391 -147 L507 420 Z M289 409 C346 409 382 356 382 274 C382 230 368 175 346 127 C310 53 262 13 210 13 C163 13 135 53 135 119 C135 183 153 259 183 319 C213 381 247 409 289 409 L289 409 Z " />
<glyph glyph-name="r" unicode="r" horiz-adv-x="418" d="M216 423 C140 415 128 414 54 413 L49 390 L129 397 L66 88 C57 47 53 27 44 -3 L140 3 C141 19 144 46 150 79 L168 164 C195 292 268 402 327 402 C341 402 351 393 351 381 C351 376 349 369 347 363 C338 341 337 339 337 329 C337 308 354 294 379 294 C414 294 435 318 435 357 C435 402 404 430 353 430 C282 430 227 380 186 281 L216 423 Z " />
<glyph glyph-name="s" unicode="s" horiz-adv-x="416" d="M229 263 C169 295 154 311 154 343 C154 384 192 413 245 413 C288 413 319 397 319 375 C319 370 318 362 315 354 C312 343 310 333 310 326 C310 305 326 293 352 293 C382 293 398 309 398 338 C398 392 338 430 251 430 C159 430 93 376 93 303 C93 252 116 222 183 185 L227 161 C274 134 292 112 292 79 C292 37 250 6 194 6 C147 6 112 24 112 48 C112 55 113 63 116 71 C122 90 123 95 123 100 C123 122 108 134 80 134 C49 134 31 117 31 87 C31 30 98 -13 188 -13 C290 -13 360 42 360 123 C360 171 335 205 278 236 L229 263 Z " />
<glyph glyph-name="t" unicode="t" horiz-adv-x="334" d="M244 570 L221 570 C198 482 130 424 44 420 L40 400 L123 400 L67 125 C63 108 61 89 61 75 C61 20 100 -13 165 -13 C234 -13 279 22 300 90 L279 95 C265 43 232 12 189 12 C160 12 142 28 142 52 C142 65 144 81 152 117 L209 400 L320 400 L324 420 L213 420 L244 570 Z " />
<glyph glyph-name="u" unicode="u" horiz-adv-x="528" d="M490 423 C411 415 400 414 325 413 L320 390 L399 397 L374 274 C362 214 335 143 309 97 C276 40 242 14 200 14 C166 14 145 33 145 66 C145 84 147 100 157 147 L213 423 C134 415 122 414 46 413 L41 390 L122 397 L67 128 C63 108 61 90 61 74 C61 23 107 -13 173 -13 C228 -13 273 11 305 56 C321 80 330 97 350 141 L336 76 C332 57 330 41 330 32 C330 9 345 -5 370 -5 C376 -5 387 -4 423 -2 L491 2 L495 22 L456 20 L443 20 C425 20 416 29 416 47 C416 56 417 63 419 72 L490 423 Z " />
<glyph glyph-name="v" unicode="v" horiz-adv-x="476" d="M223 -7 L332 136 C352 162 387 214 416 260 C447 310 459 342 459 373 C459 408 438 430 407 430 C380 430 362 413 362 388 C362 375 367 365 378 353 C397 333 402 324 402 309 C402 278 361 208 290 117 L257 75 L248 110 L210 255 L169 398 L162 423 C93 415 82 414 12 410 L11 389 L75 397 C82 375 86 363 141 174 C159 112 164 92 191 -7 L223 -7 Z " />
<glyph glyph-name="w" unicode="w" horiz-adv-x="752" d="M467 -7 L502 -7 L575 89 C611 135 654 199 688 253 C719 304 733 342 733 376 C733 410 713 430 681 430 C657 430 640 414 640 391 C640 379 645 363 653 352 C673 325 675 320 675 306 C675 278 642 216 589 146 L538 78 C515 188 504 239 500 252 L464 404 L460 423 L424 423 L241 96 C231 157 189 347 169 426 C103 418 97 418 42 417 L18 417 L18 394 L83 398 L86 387 C90 373 97 342 107 297 L129 204 C167 31 167 29 174 -7 L208 -7 L392 326 L467 -7 Z " />
<glyph glyph-name="x" unicode="x" horiz-adv-x="488" d="M287 242 L329 304 C349 335 367 348 386 348 C391 348 400 347 407 346 C431 341 431 341 439 341 C467 341 485 358 485 384 C485 409 468 424 439 424 C403 424 371 402 340 358 L276 264 L200 423 C127 414 116 413 41 413 L41 390 L118 396 L215 194 L186 150 C150 95 129 76 104 76 C96 76 88 77 80 78 C45 83 45 83 37 83 C13 83 -5 64 -5 39 C-5 12 15 -4 48 -4 C92 -4 122 18 167 85 L226 171 L274 66 C302 7 317 -6 361 -6 C364 -6 370 -6 375 -5 L472 0 L476 21 L466 20 L452 20 C405 20 385 36 356 96 L287 242 Z " />
<glyph glyph-name="y" unicode="y" horiz-adv-x="482" d="M141 -84 C94 -143 69 -163 45 -163 C38 -163 31 -162 25 -160 C-11 -149 -11 -149 -21 -149 C-45 -149 -60 -165 -60 -189 C-60 -215 -42 -230 -9 -230 C28 -230 56 -214 96 -169 C147 -111 187 -64 203 -44 L305 90 C342 138 386 200 419 252 C451 302 467 342 467 373 C467 409 448 430 414 430 C388 430 370 415 370 392 C370 376 377 360 390 346 C407 328 410 322 410 311 C410 282 382 232 322 151 L261 69 C255 90 251 104 250 107 C238 160 225 214 212 267 C206 289 203 303 169 423 C94 415 83 414 14 413 L15 390 L83 397 C122 266 145 180 192 -21 L141 -84 Z " />
<glyph glyph-name="z" unicode="z" horiz-adv-x="418" d="M410 413 L88 413 L55 253 L78 253 C89 315 118 340 183 338 L317 338 L8 19 L2 -9 C35 0 64 5 88 5 C114 5 153 -1 172 -9 C236 -33 236 -33 263 -33 C324 -33 379 20 379 79 C379 117 355 148 327 148 C306 148 288 129 288 109 C288 92 298 81 324 68 C340 61 347 53 347 43 C347 30 336 18 324 18 C317 18 308 21 299 25 C220 68 195 77 155 77 C127 77 109 72 78 55 L406 394 L410 413 Z " />
<glyph glyph-name="braceleft" unicode="&#x7b;" horiz-adv-x="500" d="M125 301 C156 300 168 298 179 292 C196 283 206 267 206 247 C206 231 206 231 190 160 C153 -2 153 -2 153 -32 C153 -74 171 -102 205 -113 C225 -120 233 -120 321 -122 L336 -122 L340 -99 C259 -99 231 -80 231 -26 C231 -4 233 11 247 75 C266 165 276 219 276 237 C276 275 254 300 213 308 L213 311 C287 329 309 359 327 469 L340 530 C362 658 393 690 501 691 L506 714 C496 713 490 713 488 713 L438 712 C390 711 368 707 346 694 C294 659 278 618 248 447 C233 345 215 325 128 318 L125 301 Z " />
<glyph glyph-name="bar" unicode="&#x7c;" horiz-adv-x="500" d="M245 667 L245 -167 L309 -167 L309 667 L245 667 Z " />
<glyph glyph-name="braceright" unicode="&#x7d;" horiz-adv-x="500" d="M420 318 C363 322 339 337 339 371 C339 385 342 400 354 453 C379 566 383 589 383 626 C383 662 367 691 341 702 C324 709 302 712 262 713 L221 713 L203 714 L198 691 C282 689 308 671 308 615 C308 595 308 595 295 530 L282 469 C268 398 268 398 268 383 C268 344 289 321 332 311 L331 308 C270 297 237 258 224 183 C218 150 209 108 202 75 C178 -68 149 -99 38 -99 L33 -122 L48 -122 C165 -121 184 -116 223 -79 C259 -33 259 -33 294 160 C311 275 330 297 416 301 L420 318 Z " />
<glyph glyph-name="asciitilde" unicode="&#x7e;" horiz-adv-x="667" d="M551 734 C522 698 492 681 457 681 C438 681 420 685 378 700 C328 717 311 721 290 721 C239 721 191 686 153 621 L169 611 C211 659 222 666 256 666 C280 666 294 663 343 647 C409 625 412 624 432 624 C480 624 534 664 567 724 L551 734 Z " />
<glyph glyph-name="uni00A0" unicode="&#xa0;" horiz-adv-x="300" d="" />
<glyph glyph-name="exclamdown" unicode="&#xa1;" horiz-adv-x="386" d="M161 256 C144 165 124 101 50 -103 C33 -148 22 -191 22 -219 C22 -246 43 -263 76 -263 C126 -263 142 -232 148 -127 C161 114 167 169 187 256 L161 256 Z M201 423 C164 423 137 398 137 364 C137 331 157 311 192 311 C228 311 255 337 255 372 C255 403 233 423 201 423 L201 423 Z " />
<glyph glyph-name="cent" unicode="&#xa2;" horiz-adv-x="433" d="M336 640 L311 640 L286 513 C236 514 198 502 158 475 C94 431 51 338 51 243 C51 149 104 86 196 71 L168 -67 L192 -67 L220 69 C308 69 372 118 395 200 L373 206 C344 129 302 94 236 94 L225 94 L306 492 C328 492 343 479 343 461 C343 456 341 445 337 432 C335 425 334 417 334 410 C334 386 353 368 380 368 C410 368 430 389 430 421 C430 449 413 478 389 492 C367 504 348 509 310 513 L336 640 Z M201 98 C157 118 141 146 141 205 C141 285 175 404 211 452 C232 480 250 490 281 493 L201 98 Z " />
<glyph glyph-name="sterling" unicode="&#xa3;" horiz-adv-x="666" d="M539 165 C521 99 485 77 397 79 L290 79 C225 79 190 75 156 66 C215 109 252 191 283 340 L431 340 L436 364 L287 364 L304 454 C317 525 329 562 350 595 C377 636 425 661 478 661 C516 661 542 645 542 623 C542 615 539 604 533 593 C519 566 517 561 517 546 C517 518 539 499 570 499 C607 499 633 528 633 570 C633 639 573 680 472 680 C395 680 335 657 288 608 C241 560 220 512 199 410 L190 364 L87 364 L82 340 L187 340 L181 303 C160 167 141 100 115 69 C85 36 53 20 17 21 L12 -2 C30 -1 42 -1 46 -1 L72 0 C147 2 168 2 179 2 L363 2 C381 2 388 2 496 -1 C501 -1 504 -1 529 -2 C546 100 546 101 563 165 L539 165 Z " />
<glyph glyph-name="currency" unicode="&#xa4;" horiz-adv-x="667" d="M84 100 L118 65 L211 159 C271 121 307 109 359 109 C412 109 451 122 509 160 L604 66 L638 100 L542 196 C581 257 592 289 592 342 C592 394 581 427 543 490 L639 585 L605 619 L510 525 C447 564 411 577 360 577 C306 577 256 560 209 525 L116 618 L82 584 L175 492 C139 430 125 387 125 337 C125 286 138 250 177 192 L84 100 Z M359 507 C452 507 524 434 524 341 C524 252 449 179 360 179 C269 179 195 252 195 343 C195 433 269 507 359 507 L359 507 Z " />
<glyph glyph-name="yen" unicode="&#xa5;" horiz-adv-x="645" d="M433 253 L582 253 L588 280 L439 280 L539 414 L669 414 L675 441 L559 441 L637 546 C659 575 691 614 718 645 L765 645 L770 669 C734 666 704 665 688 665 C665 665 637 666 596 669 L591 645 L669 645 C649 608 644 601 590 525 L528 441 L380 441 L303 645 L388 645 L393 669 C336 666 297 665 265 665 C243 665 202 666 153 669 L148 645 L200 645 L278 441 L154 441 L148 414 L288 414 L340 280 L187 280 L182 253 L334 253 L287 22 L204 22 L199 -2 C252 1 297 2 321 2 C356 2 398 1 459 -2 L464 22 L386 22 L433 253 Z M508 414 L430 310 L391 414 L508 414 Z " />
<glyph glyph-name="brokenbar" unicode="&#xa6;" horiz-adv-x="500" d="M245 667 L245 328 L309 328 L309 667 L245 667 Z M245 153 L245 -167 L309 -167 L309 153 L245 153 Z " />
<glyph glyph-name="section" unicode="&#xa7;" horiz-adv-x="559" d="M246 34 C300 -16 321 -52 321 -95 C321 -161 270 -206 194 -206 C146 -206 119 -190 119 -163 C119 -160 119 -158 120 -156 C131 -112 131 -112 131 -100 C131 -71 112 -55 80 -55 C44 -55 22 -77 22 -114 C22 -181 91 -230 187 -230 C309 -230 400 -157 400 -59 C400 -21 388 13 362 46 C443 83 486 134 486 194 C486 240 459 289 403 344 L328 418 C270 475 250 510 250 552 C250 614 300 658 370 658 C411 658 441 640 441 615 C441 609 439 601 437 593 C427 565 426 561 426 550 C426 522 448 503 481 503 C514 503 534 525 534 561 C534 630 465 680 371 680 C254 680 167 610 167 515 C167 476 183 437 214 400 C183 389 169 382 150 371 C107 346 82 304 82 257 C82 206 105 166 169 106 L246 34 Z M355 259 C409 205 424 181 424 147 C424 112 405 92 347 64 L206 201 C162 243 147 269 147 300 C147 340 171 362 232 381 L355 259 Z " />
<glyph glyph-name="dieresis" unicode="&#xa8;" horiz-adv-x="500" d="M95 654 C63 654 38 630 38 598 C38 569 58 549 88 549 C120 549 146 574 146 605 C146 635 126 654 95 654 L95 654 Z M279 654 C246 654 222 630 222 598 C222 569 242 549 271 549 C303 549 329 574 329 605 C329 635 310 654 279 654 L279 654 Z " />
<glyph glyph-name="copyright" unicode="&#xa9;" horiz-adv-x="804" d="M576 523 L559 522 C550 499 548 497 538 497 C531 497 526 498 516 503 C486 515 461 521 433 521 C326 521 248 439 248 327 C248 221 326 146 436 146 C495 146 546 171 582 219 L582 258 C545 202 500 173 449 173 C371 173 325 232 325 330 C325 431 372 497 444 497 C501 497 543 464 559 407 L576 407 L576 523 Z M429 680 C237 680 82 525 82 334 C82 144 237 -13 424 -13 C620 -13 775 140 775 334 C775 525 620 680 429 680 L429 680 Z M429 646 C601 646 741 506 741 334 C741 159 602 21 425 21 C256 21 116 163 116 334 C116 506 256 646 429 646 L429 646 Z " />
<glyph glyph-name="ordfeminine" unicode="&#xaa;" horiz-adv-x="323" d="M344 443 C329 424 321 417 313 417 C306 417 302 422 302 432 C302 437 302 437 306 458 L334 593 C336 602 337 613 337 618 C337 653 307 672 253 672 C189 672 125 633 125 593 C125 578 135 568 149 568 C168 568 184 584 184 604 C184 609 184 611 181 618 C180 621 179 623 179 625 C179 638 212 654 241 654 C271 654 287 642 287 620 C287 611 287 611 286 606 L277 562 C149 533 85 492 85 441 C85 413 106 395 137 395 C171 395 202 408 253 444 L253 434 C253 406 264 395 289 395 C311 395 333 409 353 436 L344 443 Z M257 465 C221 436 195 424 170 424 C152 424 140 435 140 452 C140 490 192 525 273 543 L257 465 Z M340 332 L56 332 L50 301 L333 301 L340 332 Z " />
<glyph glyph-name="guillemotleft" unicode="&#xab;" horiz-adv-x="474" d="M365 0 L383 6 L343 211 L463 401 L449 415 L245 223 L365 0 Z M186 0 L204 6 L164 211 L285 401 L271 415 L67 223 L186 0 Z " />
<glyph glyph-name="logicalnot" unicode="&#xac;" horiz-adv-x="500" d="M383 0 L492 0 L492 266 L61 266 L61 219 L383 219 L383 0 Z " />
<glyph glyph-name="uni00AD" unicode="&#xad;" horiz-adv-x="232" d="M9 257 L0 213 L223 213 L232 257 L9 257 Z " />
<glyph glyph-name="registered" unicode="&#xae;" horiz-adv-x="804" d="M543 151 L630 151 L630 169 C609 169 596 176 585 194 L509 325 C559 347 578 372 578 415 C578 453 559 483 523 501 C503 511 473 516 430 516 L260 516 L260 498 L278 498 C305 498 312 489 311 460 L311 207 C312 178 305 170 278 169 L263 169 L263 151 L428 151 L428 169 L411 169 C384 170 377 178 378 207 L378 324 L444 324 L543 151 Z M378 342 L378 493 L429 493 C480 493 509 465 509 416 C509 389 499 365 483 354 C471 345 458 342 430 342 L378 342 Z M429 680 C237 680 82 525 82 334 C82 144 237 -13 424 -13 C620 -13 775 140 775 334 C775 525 620 680 429 680 L429 680 Z M429 646 C601 646 741 506 741 334 C741 159 602 21 425 21 C256 21 116 163 116 334 C116 506 256 646 429 646 L429 646 Z " />
<glyph glyph-name="macron" unicode="&#xaf;" horiz-adv-x="500" d="M60 622 L51 573 L307 573 L316 622 L60 622 Z " />
<glyph glyph-name="degree" unicode="&#xb0;" horiz-adv-x="423" d="M233 636 C185 636 145 594 145 544 C145 494 186 452 235 452 C290 452 332 491 332 543 C332 593 286 636 233 636 L233 636 Z M234 610 C275 610 306 581 306 543 C306 508 275 477 239 477 C201 477 171 508 171 547 C171 582 199 610 234 610 L234 610 Z " />
<glyph glyph-name="plusminus" unicode="&#xb1;" horiz-adv-x="500" d="M46 381 L46 331 L250 331 L250 140 L302 140 L302 331 L507 331 L507 381 L302 381 L302 575 L250 575 L250 381 L46 381 Z M46 96 L46 46 L507 46 L507 96 L46 96 Z " />
<glyph glyph-name="twosuperior" unicode="&#xb2;" horiz-adv-x="340" d="M273 368 C263 332 245 320 196 319 L54 319 C68 357 115 395 189 428 C256 459 275 470 296 493 C316 516 329 548 329 577 C329 636 282 671 205 671 C126 671 72 635 72 582 C72 558 85 546 109 546 C132 546 145 559 145 582 C145 587 144 592 143 597 C141 608 139 616 139 619 C139 637 164 651 197 651 C241 651 267 630 267 594 C267 567 256 533 240 510 C222 484 210 475 138 430 C46 372 13 332 4 266 C32 267 67 267 110 268 L170 268 C213 267 248 267 274 266 C282 307 291 354 296 368 L273 368 Z " />
<glyph glyph-name="threesuperior" unicode="&#xb3;" horiz-adv-x="340" d="M133 464 C163 462 175 459 191 453 C214 442 229 417 229 388 C229 325 191 283 135 283 C106 283 82 295 82 310 C82 314 84 321 87 329 C90 336 92 344 92 351 C92 369 78 380 56 380 C33 380 17 363 17 339 C17 293 69 263 146 263 C235 263 296 310 296 378 C296 427 268 454 202 471 C250 476 271 483 293 499 C316 517 331 546 331 576 C331 633 279 671 204 671 C132 671 79 637 79 592 C79 573 94 560 116 560 C138 560 151 573 151 594 C151 599 150 605 149 610 C148 616 147 622 147 625 C147 641 168 653 198 653 C242 653 267 633 267 596 C267 567 256 536 240 517 C220 494 192 484 148 484 L137 484 L133 464 Z " />
<glyph glyph-name="acute" unicode="&#xb4;" horiz-adv-x="500" d="M106 503 L227 595 C257 619 271 635 271 649 C271 664 253 675 230 675 C198 675 173 655 151 615 L95 513 L106 503 Z " />
<glyph glyph-name="mu" unicode="&#xb5;" horiz-adv-x="453" d="M492 52 C480 44 472 42 462 42 C431 42 423 59 423 120 L423 457 L338 457 L338 108 C300 56 269 35 226 35 C202 35 180 45 167 61 C150 82 144 109 144 171 L144 457 L59 457 L59 270 C59 152 49 34 30 -81 C26 -105 23 -130 23 -142 C23 -171 41 -191 67 -191 C92 -191 110 -170 110 -141 C110 -131 108 -111 104 -91 C86 3 86 3 86 46 C86 50 86 61 87 72 C107 11 140 -15 196 -15 C246 -15 273 0 343 69 C353 24 355 15 363 6 C371 -4 385 -11 396 -11 C397 -11 399 -11 400 -10 L492 35 L492 52 Z " />
<glyph glyph-name="paragraph" unicode="&#xb6;" horiz-adv-x="572" d="M626 667 L382 667 C319 667 319 667 305 666 C264 665 236 658 206 642 C147 609 106 541 106 473 C106 438 117 408 139 386 C166 358 194 349 253 349 L294 349 L223 -1 C212 -61 207 -65 147 -66 L125 -66 L120 -91 L255 -91 L404 640 L492 640 L343 -91 L466 -91 L471 -66 L450 -66 C415 -66 405 -61 405 -45 C405 -39 405 -38 411 -3 L527 566 C541 636 547 641 603 641 L621 641 L626 667 Z M354 641 L300 379 L261 379 C210 379 179 411 179 466 C179 517 202 578 233 611 C253 632 281 641 321 641 L354 641 Z " />
<glyph glyph-name="periodcentered" unicode="&#xb7;" horiz-adv-x="194" d="M122 326 C98 326 74 303 74 279 C74 260 87 247 106 247 C132 247 155 270 155 294 C155 313 141 326 122 326 L122 326 Z " />
<glyph glyph-name="cedilla" unicode="&#xb8;" horiz-adv-x="500" d="M258 -58 L246 -49 L147 -136 C115 -164 109 -173 109 -190 C109 -210 125 -223 147 -223 C180 -223 205 -196 228 -136 L258 -58 Z " />
<glyph glyph-name="onesuperior" unicode="&#xb9;" horiz-adv-x="339" d="M268 675 L239 675 C178 643 163 636 93 605 L102 586 C110 590 119 594 127 597 C153 608 159 611 195 629 L123 286 L66 286 L61 265 C100 267 129 268 149 268 C168 268 197 267 235 265 L239 286 L186 286 L268 675 Z " />
<glyph glyph-name="ordmasculine" unicode="&#xba;" horiz-adv-x="323" d="M260 673 C170 673 96 595 96 498 C96 433 136 393 202 393 C291 393 363 472 363 568 C363 632 322 673 260 673 L260 673 Z M255 654 C293 654 311 632 311 587 C311 554 302 510 288 477 C270 434 242 412 205 412 C168 412 148 435 148 478 C148 511 157 556 170 588 C189 633 216 654 255 654 L255 654 Z M331 332 L47 332 L41 301 L324 301 L331 332 Z " />
<glyph glyph-name="guillemotright" unicode="&#xbb;" horiz-adv-x="474" d="M109 415 L91 408 L131 204 L11 13 L25 0 L229 192 L109 415 Z M288 415 L270 408 L310 204 L189 13 L203 0 L407 192 L288 415 Z " />
<glyph glyph-name="onequarter" unicode="&#xbc;" horiz-adv-x="1052" d="M268 675 L239 675 C178 643 163 636 93 605 L102 586 C110 590 119 594 127 597 C153 608 159 611 195 629 L123 286 L66 286 L61 265 C100 267 129 268 149 268 C168 268 197 267 235 265 L239 286 L186 286 L268 675 Z M754 705 L724 722 L275 -77 L304 -93 L754 705 Z M1041 143 L977 143 L1032 404 L998 404 L963 370 L930 338 L764 175 L747 158 L730 141 L721 101 L906 101 L889 19 L831 19 L827 -1 C865 0 894 1 913 1 C932 1 961 0 998 -1 L1003 19 L951 19 L968 101 L1033 101 L1041 143 Z M915 143 L762 143 L955 335 L952 320 L947 294 L915 143 Z " />
<glyph glyph-name="onehalf" unicode="&#xbd;" horiz-adv-x="1054" d="M268 675 L239 675 C178 643 163 636 93 605 L102 586 C110 590 119 594 127 597 C153 608 159 611 195 629 L123 286 L66 286 L61 265 C100 267 129 268 149 268 C168 268 197 267 235 265 L239 286 L186 286 L268 675 Z M754 705 L724 722 L275 -77 L304 -93 L754 705 Z M987 100 C977 64 960 52 910 51 L768 51 C781 89 830 128 904 160 C971 191 990 202 1011 226 C1031 249 1044 280 1044 310 C1044 368 997 404 920 404 C842 404 787 367 787 315 C787 292 800 279 824 279 C846 279 859 292 859 315 C859 320 858 325 857 330 C855 341 854 349 854 352 C854 370 879 384 912 384 C956 384 982 363 982 326 C982 300 971 266 955 242 C936 216 926 208 853 162 C760 104 728 65 718 -1 C746 0 781 0 824 1 L884 1 C928 0 962 0 988 -1 C996 38 1005 82 1010 100 L987 100 Z " />
<glyph glyph-name="threequarters" unicode="&#xbe;" horiz-adv-x="1052" d="M133 464 C163 462 175 459 191 453 C214 442 229 417 229 388 C229 325 191 283 135 283 C106 283 82 295 82 310 C82 314 84 321 87 329 C90 336 92 344 92 351 C92 369 78 380 56 380 C33 380 17 363 17 339 C17 293 69 263 146 263 C235 263 296 310 296 378 C296 427 268 454 202 471 C250 476 271 483 293 499 C316 517 331 546 331 576 C331 633 279 671 204 671 C132 671 79 637 79 592 C79 573 94 560 116 560 C138 560 151 573 151 594 C151 599 150 605 149 610 C148 616 147 622 147 625 C147 641 168 653 198 653 C242 653 267 633 267 596 C267 567 256 536 240 517 C220 494 192 484 148 484 L137 484 L133 464 Z M754 705 L725 722 L275 -77 L305 -93 L754 705 Z M1042 143 L978 143 L1032 404 L998 404 L964 370 L931 338 L764 175 L747 158 L730 141 L722 101 L907 101 L889 19 L832 19 L827 -1 C865 0 895 1 914 1 C932 1 961 0 999 -1 L1003 19 L952 19 L969 101 L1033 101 L1042 143 Z M915 143 L762 143 L956 335 L953 320 L947 294 L915 143 Z " />
<glyph glyph-name="questiondown" unicode="&#xbf;" horiz-adv-x="560" d="M318 262 C294 148 280 126 200 86 C130 51 119 45 102 33 C55 -1 26 -55 26 -108 C26 -198 107 -263 221 -263 C332 -263 417 -205 417 -129 C417 -93 394 -70 357 -70 C324 -70 303 -92 303 -128 C303 -135 304 -146 306 -156 C309 -169 310 -181 310 -187 C310 -219 276 -240 227 -240 C159 -240 118 -203 118 -142 C118 -100 132 -60 162 -19 C183 10 198 25 243 59 C306 105 330 152 344 262 L318 262 Z M353 423 C316 423 289 398 289 364 C289 331 309 311 344 311 C380 311 407 337 407 372 C407 403 385 423 353 423 L353 423 Z " />
<glyph glyph-name="Agrave" unicode="&#xc0;" horiz-adv-x="698" d="M166 218 L435 218 L479 22 L401 22 L396 -2 C451 1 488 2 519 2 C540 2 579 1 626 -2 L631 22 L579 22 L436 677 L410 677 L110 174 C61 93 36 54 11 22 L-34 22 L-39 -2 C-7 1 19 2 33 2 C54 2 79 1 116 -2 L120 22 L55 22 C77 67 88 88 125 150 L166 218 Z M181 241 L364 551 L431 241 L181 241 Z M444 713 L393 779 C366 816 342 833 319 833 C297 833 280 819 280 800 C280 778 297 762 342 742 L434 700 L444 713 Z " />
<glyph glyph-name="Aacute" unicode="&#xc1;" horiz-adv-x="698" d="M166 218 L435 218 L479 22 L401 22 L396 -2 C451 1 488 2 519 2 C540 2 579 1 626 -2 L631 22 L579 22 L436 677 L410 677 L110 174 C61 93 36 54 11 22 L-34 22 L-39 -2 C-7 1 19 2 33 2 C54 2 79 1 116 -2 L120 22 L55 22 C77 67 88 88 125 150 L166 218 Z M181 241 L364 551 L431 241 L181 241 Z M438 702 L530 742 C572 761 590 777 590 798 C590 818 574 832 552 832 C529 832 506 816 480 782 L428 714 L438 702 Z " />
<glyph glyph-name="Acircumflex" unicode="&#xc2;" horiz-adv-x="698" d="M166 218 L435 218 L479 22 L401 22 L396 -2 C451 1 488 2 519 2 C540 2 579 1 626 -2 L631 22 L579 22 L436 677 L410 677 L110 174 C61 93 36 54 11 22 L-34 22 L-39 -2 C-7 1 19 2 33 2 C54 2 79 1 116 -2 L120 22 L55 22 C77 67 88 88 125 150 L166 218 Z M181 241 L364 551 L431 241 L181 241 Z M578 720 L461 835 L445 835 L280 720 L288 708 L445 756 L575 708 L578 720 Z " />
<glyph glyph-name="Atilde" unicode="&#xc3;" horiz-adv-x="698" d="M166 218 L435 218 L479 22 L401 22 L396 -2 C451 1 488 2 519 2 C540 2 579 1 626 -2 L631 22 L579 22 L436 677 L410 677 L110 174 C61 93 36 54 11 22 L-34 22 L-39 -2 C-7 1 19 2 33 2 C54 2 79 1 116 -2 L120 22 L55 22 C77 67 88 88 125 150 L166 218 Z M181 241 L364 551 L431 241 L181 241 Z M589 830 C570 784 556 770 529 770 C515 770 501 775 484 787 L461 804 C433 824 409 833 384 833 C332 833 299 797 274 713 L296 713 C321 758 336 771 363 771 C377 771 390 766 408 753 L436 733 C458 716 484 707 506 707 C542 707 568 725 586 762 C598 788 606 809 610 830 L589 830 Z " />
<glyph glyph-name="Adieresis" unicode="&#xc4;" horiz-adv-x="698" d="M166 218 L435 218 L479 22 L401 22 L396 -2 C451 1 488 2 519 2 C540 2 579 1 626 -2 L631 22 L579 22 L436 677 L410 677 L110 174 C61 93 36 54 11 22 L-34 22 L-39 -2 C-7 1 19 2 33 2 C54 2 79 1 116 -2 L120 22 L55 22 C77 67 88 88 125 150 L166 218 Z M181 241 L364 551 L431 241 L181 241 Z M348 829 C317 829 291 805 291 774 C291 748 312 728 341 728 C372 728 397 752 397 781 C397 811 379 829 348 829 L348 829 Z M545 829 C513 829 487 805 487 774 C487 748 508 728 537 728 C569 728 594 752 594 781 C594 811 576 829 545 829 L545 829 Z " />
<glyph glyph-name="Aring" unicode="&#xc5;" horiz-adv-x="698" d="M166 218 L435 218 L479 22 L401 22 L396 -2 C451 1 488 2 519 2 C540 2 579 1 626 -2 L631 22 L579 22 L436 677 L410 677 L110 174 C61 93 36 54 11 22 L-34 22 L-39 -2 C-7 1 19 2 33 2 C54 2 79 1 116 -2 L120 22 L55 22 C77 67 88 88 125 150 L166 218 Z M181 241 L364 551 L431 241 L181 241 Z M441 856 C402 856 369 823 369 784 C369 745 404 712 445 712 C483 712 516 744 516 781 C516 821 481 856 441 856 L441 856 Z M442 833 C469 833 492 809 492 782 C492 757 470 735 445 735 C417 735 394 758 394 784 C394 811 416 833 442 833 L442 833 Z " />
<glyph glyph-name="AE" unicode="&#xc6;" horiz-adv-x="969" d="M583 331 L663 331 C714 331 735 327 752 315 C768 303 776 284 776 256 C776 245 775 237 772 220 L797 220 C814 328 827 393 846 461 L821 461 C792 374 760 353 652 354 L583 354 L594 643 L753 643 C828 643 864 635 892 612 C911 596 922 569 922 536 C922 526 921 517 919 498 L942 498 L944 509 L956 572 L974 655 L977 669 C953 668 947 668 943 668 L916 667 C840 665 822 665 809 665 L548 665 C530 665 523 665 415 668 L384 669 L379 645 L466 645 L105 122 C86 95 73 78 29 22 L-17 22 L-22 -2 C17 1 49 2 66 2 C92 2 122 1 167 -2 L172 22 L73 22 C87 48 100 69 121 100 L204 220 L481 220 L473 22 L393 22 L387 -2 C405 -1 417 -1 421 -1 L447 0 C523 2 543 2 555 2 L705 2 C724 2 731 2 838 -1 C844 -1 847 -1 871 -2 C886 77 899 138 909 183 L884 183 C844 58 791 24 638 24 L571 24 L583 331 Z M221 244 L498 649 L482 244 L221 244 Z " />
<glyph glyph-name="Ccedilla" unicode="&#xc7;" horiz-adv-x="665" d="M572 212 C554 156 538 126 506 89 C461 39 409 12 353 12 C290 12 233 47 204 103 C183 143 175 185 175 249 C175 351 197 445 236 517 C285 606 366 656 460 656 C554 656 609 599 609 501 L608 466 L632 466 C652 582 660 622 671 658 C658 657 651 657 645 657 C625 657 611 659 573 665 C475 680 475 680 443 680 C229 680 71 514 71 289 C71 100 175 -13 348 -13 C378 -13 409 -10 438 -3 C498 11 505 12 528 12 C536 12 543 12 558 10 C559 39 577 133 597 212 L572 212 Z M363 -58 L350 -49 L252 -136 C220 -164 214 -173 214 -190 C214 -210 229 -223 252 -223 C285 -223 310 -196 333 -136 L363 -58 Z " />
<glyph glyph-name="Egrave" unicode="&#xc8;" horiz-adv-x="614" d="M239 335 L333 335 C402 335 430 311 430 253 C430 248 429 231 427 219 L453 219 C467 313 487 411 503 466 L478 466 C454 383 420 358 331 359 L243 359 L301 643 L439 643 C539 643 581 611 581 536 C581 530 579 511 578 497 L604 497 C615 563 623 602 638 669 C615 668 609 668 605 668 L578 667 C502 665 484 665 471 665 L292 665 C274 665 267 665 159 668 C156 668 143 668 126 669 L122 645 L204 645 L77 22 L-5 22 L-10 -2 C8 -1 20 -1 24 -1 L50 0 C125 2 146 2 157 2 L352 2 C370 2 377 2 485 -1 C490 -1 493 -1 518 -2 C523 35 543 133 555 183 L531 183 C494 71 425 23 303 24 L175 24 L239 335 Z M455 713 L405 779 C377 816 353 833 330 833 C308 833 291 819 291 800 C291 778 308 762 354 742 L445 700 L455 713 Z " />
<glyph glyph-name="Eacute" unicode="&#xc9;" horiz-adv-x="614" d="M239 335 L333 335 C402 335 430 311 430 253 C430 248 429 231 427 219 L453 219 C467 313 487 411 503 466 L478 466 C454 383 420 358 331 359 L243 359 L301 643 L439 643 C539 643 581 611 581 536 C581 530 579 511 578 497 L604 497 C615 563 623 602 638 669 C615 668 609 668 605 668 L578 667 C502 665 484 665 471 665 L292 665 C274 665 267 665 159 668 C156 668 143 668 126 669 L122 645 L204 645 L77 22 L-5 22 L-10 -2 C8 -1 20 -1 24 -1 L50 0 C125 2 146 2 157 2 L352 2 C370 2 377 2 485 -1 C490 -1 493 -1 518 -2 C523 35 543 133 555 183 L531 183 C494 71 425 23 303 24 L175 24 L239 335 Z M369 702 L461 742 C503 760 521 777 521 798 C521 818 505 832 483 832 C460 832 438 817 411 782 L359 714 L369 702 Z " />
<glyph glyph-name="Ecircumflex" unicode="&#xca;" horiz-adv-x="614" d="M239 335 L333 335 C402 335 430 311 430 253 C430 248 429 231 427 219 L453 219 C467 313 487 411 503 466 L478 466 C454 383 420 358 331 359 L243 359 L301 643 L439 643 C539 643 581 611 581 536 C581 530 579 511 578 497 L604 497 C615 563 623 602 638 669 C615 668 609 668 605 668 L578 667 C502 665 484 665 471 665 L292 665 C274 665 267 665 159 668 C156 668 143 668 126 669 L122 645 L204 645 L77 22 L-5 22 L-10 -2 C8 -1 20 -1 24 -1 L50 0 C125 2 146 2 157 2 L352 2 C370 2 377 2 485 -1 C490 -1 493 -1 518 -2 C523 35 543 133 555 183 L531 183 C494 71 425 23 303 24 L175 24 L239 335 Z M555 720 L438 835 L422 835 L258 720 L266 708 L422 756 L553 708 L555 720 Z " />
<glyph glyph-name="Edieresis" unicode="&#xcb;" horiz-adv-x="614" d="M239 335 L333 335 C402 335 430 311 430 253 C430 248 429 231 427 219 L453 219 C467 313 487 411 503 466 L478 466 C454 383 420 358 331 359 L243 359 L301 643 L439 643 C539 643 581 611 581 536 C581 530 579 511 578 497 L604 497 C615 563 623 602 638 669 C615 668 609 668 605 668 L578 667 C502 665 484 665 471 665 L292 665 C274 665 267 665 159 668 C156 668 143 668 126 669 L122 645 L204 645 L77 22 L-5 22 L-10 -2 C8 -1 20 -1 24 -1 L50 0 C125 2 146 2 157 2 L352 2 C370 2 377 2 485 -1 C490 -1 493 -1 518 -2 C523 35 543 133 555 183 L531 183 C494 71 425 23 303 24 L175 24 L239 335 Z M346 829 C315 829 289 805 289 774 C289 748 310 728 339 728 C370 728 395 752 395 781 C395 811 377 829 346 829 L346 829 Z M542 829 C511 829 485 805 485 774 C485 748 506 728 535 728 C566 728 591 752 591 781 C591 811 573 829 542 829 L542 829 Z " />
<glyph glyph-name="Igrave" unicode="&#xcc;" horiz-adv-x="325" d="M302 645 L381 645 L386 669 C332 666 287 665 263 665 C228 665 185 666 123 669 L119 645 L204 645 L77 22 L-8 22 L-13 -2 C42 1 88 2 112 2 C148 2 192 1 255 -2 L260 22 L175 22 L302 645 Z M311 713 L260 779 C232 816 208 833 185 833 C164 833 147 819 147 800 C147 778 164 762 209 742 L300 700 L311 713 Z " />
<glyph glyph-name="Iacute" unicode="&#xcd;" horiz-adv-x="325" d="M302 645 L381 645 L386 669 C332 666 287 665 263 665 C228 665 185 666 123 669 L119 645 L204 645 L77 22 L-8 22 L-13 -2 C42 1 88 2 112 2 C148 2 192 1 255 -2 L260 22 L175 22 L302 645 Z M258 702 L350 742 C392 761 410 777 410 798 C410 818 394 832 372 832 C349 832 326 816 300 782 L248 714 L258 702 Z " />
<glyph glyph-name="Icircumflex" unicode="&#xce;" horiz-adv-x="325" d="M302 645 L381 645 L386 669 C332 666 287 665 263 665 C228 665 185 666 123 669 L119 645 L204 645 L77 22 L-8 22 L-13 -2 C42 1 88 2 112 2 C148 2 192 1 255 -2 L260 22 L175 22 L302 645 Z M420 720 L303 835 L287 835 L122 720 L130 708 L287 756 L417 708 L420 720 Z " />
<glyph glyph-name="Idieresis" unicode="&#xcf;" horiz-adv-x="325" d="M302 645 L381 645 L386 669 C332 666 287 665 263 665 C228 665 185 666 123 669 L119 645 L204 645 L77 22 L-8 22 L-13 -2 C42 1 88 2 112 2 C148 2 192 1 255 -2 L260 22 L175 22 L302 645 Z M232 829 C200 829 174 805 174 774 C174 747 195 728 224 728 C256 728 281 752 281 781 C281 811 263 829 232 829 L232 829 Z M381 829 C350 829 324 805 324 774 C324 747 345 728 374 728 C405 728 430 752 430 781 C430 811 412 829 381 829 L381 829 Z " />
<glyph glyph-name="Eth" unicode="&#xd0;" horiz-adv-x="738" d="M-14 -2 C13 -1 31 0 40 0 L131 0 L206 1 C301 1 301 1 326 3 C419 9 484 26 541 59 C647 120 713 246 713 388 C713 510 664 596 574 635 C522 657 447 668 353 667 C233 666 233 666 225 666 C191 666 169 666 119 668 L114 645 L203 645 L144 356 L62 356 L58 333 L140 333 L76 22 L-9 22 L-14 -2 Z M174 23 L237 333 L420 333 L424 356 L242 356 L300 643 L365 643 C441 643 496 628 535 596 C584 557 613 489 613 413 C613 325 581 212 538 150 C480 66 386 23 257 23 L174 23 Z " />
<glyph glyph-name="Ntilde" unicode="&#xd1;" horiz-adv-x="727" d="M556 -7 L592 -7 L700 524 C705 551 713 583 730 645 L806 645 L812 669 C771 666 737 665 719 665 C692 665 660 666 613 669 L608 645 L691 645 C690 618 686 591 677 538 L594 131 L326 669 C286 666 253 665 236 665 C210 665 179 666 133 669 L128 645 L210 645 L113 141 C105 105 91 49 83 22 L2 22 L-3 -2 C37 1 70 2 87 2 C113 2 144 1 190 -2 L195 22 L121 22 C123 49 128 84 136 131 L235 638 L556 -7 Z M644 830 C624 784 610 770 583 770 C569 770 555 775 538 787 L515 804 C488 824 463 833 438 833 C387 833 354 797 328 713 L350 713 C375 758 390 771 417 771 C431 771 445 766 462 753 L490 733 C513 716 538 707 560 707 C596 707 622 725 640 762 C652 788 660 809 665 830 L644 830 Z " />
<glyph glyph-name="Ograve" unicode="&#xd2;" horiz-adv-x="753" d="M452 684 C243 684 90 507 90 267 C90 91 194 -17 364 -17 C472 -17 571 32 631 115 C687 192 724 307 724 401 C724 579 623 684 452 684 L452 684 Z M457 662 C563 662 625 583 625 448 C625 368 595 236 559 160 C512 58 441 4 355 4 C252 4 186 86 186 216 C186 318 223 461 270 540 C318 620 382 662 457 662 L457 662 Z M505 713 L454 779 C427 816 403 833 379 833 C358 833 341 819 341 800 C341 778 358 762 403 742 L495 700 L505 713 Z " />
<glyph glyph-name="Oacute" unicode="&#xd3;" horiz-adv-x="753" d="M452 684 C243 684 90 507 90 267 C90 91 194 -17 364 -17 C472 -17 571 32 631 115 C687 192 724 307 724 401 C724 579 623 684 452 684 L452 684 Z M457 662 C563 662 625 583 625 448 C625 368 595 236 559 160 C512 58 441 4 355 4 C252 4 186 86 186 216 C186 318 223 461 270 540 C318 620 382 662 457 662 L457 662 Z M472 702 L564 742 C606 760 624 777 624 798 C624 818 608 832 586 832 C563 832 541 817 514 782 L462 714 L472 702 Z " />
<glyph glyph-name="Ocircumflex" unicode="&#xd4;" horiz-adv-x="753" d="M452 684 C243 684 90 507 90 267 C90 91 194 -17 364 -17 C472 -17 571 32 631 115 C687 192 724 307 724 401 C724 579 623 684 452 684 L452 684 Z M457 662 C563 662 625 583 625 448 C625 368 595 236 559 160 C512 58 441 4 355 4 C252 4 186 86 186 216 C186 318 223 461 270 540 C318 620 382 662 457 662 L457 662 Z M625 720 L508 835 L492 835 L328 720 L335 708 L492 756 L622 708 L625 720 Z " />
<glyph glyph-name="Otilde" unicode="&#xd5;" horiz-adv-x="753" d="M452 684 C243 684 90 507 90 267 C90 91 194 -17 364 -17 C472 -17 571 32 631 115 C687 192 724 307 724 401 C724 579 623 684 452 684 L452 684 Z M457 662 C563 662 625 583 625 448 C625 368 595 236 559 160 C512 58 441 4 355 4 C252 4 186 86 186 216 C186 318 223 461 270 540 C318 620 382 662 457 662 L457 662 Z M657 830 C637 784 623 770 597 770 C582 770 568 775 552 787 L529 804 C501 824 477 833 451 833 C400 833 367 797 342 713 L363 713 C388 758 403 771 430 771 C444 771 458 766 476 753 L503 733 C526 716 551 707 574 707 C609 707 635 725 653 762 C665 787 673 808 678 830 L657 830 Z " />
<glyph glyph-name="Odieresis" unicode="&#xd6;" horiz-adv-x="753" d="M452 684 C243 684 90 507 90 267 C90 91 194 -17 364 -17 C472 -17 571 32 631 115 C687 192 724 307 724 401 C724 579 623 684 452 684 L452 684 Z M457 662 C563 662 625 583 625 448 C625 368 595 236 559 160 C512 58 441 4 355 4 C252 4 186 86 186 216 C186 318 223 461 270 540 C318 620 382 662 457 662 L457 662 Z M416 829 C384 829 358 805 358 774 C358 747 379 728 408 728 C440 728 465 752 465 781 C465 811 447 829 416 829 L416 829 Z M612 829 C581 829 555 805 555 774 C555 747 576 728 605 728 C636 728 661 752 661 781 C661 811 643 829 612 829 L612 829 Z " />
<glyph glyph-name="multiply" unicode="&#xd7;" horiz-adv-x="500" d="M121 537 L85 501 L241 346 L84 190 L120 153 L277 310 L433 154 L468 189 L312 345 L469 502 L432 538 L276 381 L121 537 Z " />
<glyph glyph-name="Oslash" unicode="&#xd8;" horiz-adv-x="733" d="M118 -60 L146 -79 L212 19 C253 -4 309 -17 365 -17 C466 -17 561 28 624 105 C683 177 725 305 725 411 C725 510 692 584 624 637 L684 728 L657 747 L595 655 C539 677 506 684 457 684 C244 684 92 507 92 261 C92 162 121 92 184 39 L118 -60 Z M216 87 C196 129 188 167 188 216 C188 322 225 465 273 543 C321 621 387 663 461 663 C506 663 541 648 571 618 L216 87 Z M593 589 C619 547 627 514 627 451 C627 378 607 277 577 200 C528 71 453 4 358 4 C310 4 267 23 238 56 L593 589 Z " />
<glyph glyph-name="Ugrave" unicode="&#xd9;" horiz-adv-x="695" d="M177 645 L106 296 C97 254 91 207 91 184 C91 67 191 -13 336 -13 C487 -13 566 60 601 230 L660 519 C673 584 680 610 690 645 L760 645 L766 669 C728 666 696 665 679 665 C654 665 624 666 581 669 L576 645 L649 645 C644 593 636 539 620 460 L581 269 C563 182 550 143 527 104 C493 48 430 16 356 16 C250 16 190 75 190 180 C190 211 197 263 209 323 L275 645 L355 645 L360 669 C306 666 260 665 236 665 C200 665 157 666 95 669 L90 645 L177 645 Z M563 713 L513 779 C485 816 461 833 437 833 C416 833 399 819 399 800 C399 778 416 762 461 742 L553 700 L563 713 Z " />
<glyph glyph-name="Uacute" unicode="&#xda;" horiz-adv-x="695" d="M177 645 L106 296 C97 254 91 207 91 184 C91 67 191 -13 336 -13 C487 -13 566 60 601 230 L660 519 C673 584 680 610 690 645 L760 645 L766 669 C728 666 696 665 679 665 C654 665 624 666 581 669 L576 645 L649 645 C644 593 636 539 620 460 L581 269 C563 182 550 143 527 104 C493 48 430 16 356 16 C250 16 190 75 190 180 C190 211 197 263 209 323 L275 645 L355 645 L360 669 C306 666 260 665 236 665 C200 665 157 666 95 669 L90 645 L177 645 Z M411 702 L502 742 C543 760 562 777 562 798 C562 817 546 832 524 832 C501 832 479 817 452 782 L400 714 L411 702 Z " />
<glyph glyph-name="Ucircumflex" unicode="&#xdb;" horiz-adv-x="695" d="M177 645 L106 296 C97 254 91 207 91 184 C91 67 191 -13 336 -13 C487 -13 566 60 601 230 L660 519 C673 584 680 610 690 645 L760 645 L766 669 C728 666 696 665 679 665 C654 665 624 666 581 669 L576 645 L649 645 C644 593 636 539 620 460 L581 269 C563 182 550 143 527 104 C493 48 430 16 356 16 C250 16 190 75 190 180 C190 211 197 263 209 323 L275 645 L355 645 L360 669 C306 666 260 665 236 665 C200 665 157 666 95 669 L90 645 L177 645 Z M630 720 L513 835 L497 835 L333 720 L340 708 L497 756 L627 708 L630 720 Z " />
<glyph glyph-name="Udieresis" unicode="&#xdc;" horiz-adv-x="695" d="M177 645 L106 296 C97 254 91 207 91 184 C91 67 191 -13 336 -13 C487 -13 566 60 601 230 L660 519 C673 584 680 610 690 645 L760 645 L766 669 C728 666 696 665 679 665 C654 665 624 666 581 669 L576 645 L649 645 C644 593 636 539 620 460 L581 269 C563 182 550 143 527 104 C493 48 430 16 356 16 C250 16 190 75 190 180 C190 211 197 263 209 323 L275 645 L355 645 L360 669 C306 666 260 665 236 665 C200 665 157 666 95 669 L90 645 L177 645 Z M387 829 C356 829 330 805 330 774 C330 747 351 728 380 728 C411 728 436 752 436 781 C436 811 418 829 387 829 L387 829 Z M584 829 C552 829 526 805 526 774 C526 747 547 728 576 728 C608 728 633 752 633 781 C633 811 615 829 584 829 L584 829 Z " />
<glyph glyph-name="Yacute" unicode="&#xdd;" horiz-adv-x="645" d="M390 280 L588 546 C610 575 642 614 669 645 L716 645 L721 669 C685 666 655 665 639 665 C616 665 588 666 547 669 L542 645 L620 645 C600 608 595 601 541 525 L381 310 L254 645 L339 645 L344 669 C287 666 248 665 216 665 C194 665 153 666 104 669 L99 645 L151 645 L291 280 L238 22 L155 22 L150 -2 C203 1 248 2 272 2 C307 2 349 1 410 -2 L415 22 L337 22 L390 280 Z M452 702 L543 742 C584 760 603 777 603 798 C603 818 587 832 566 832 C542 832 520 817 493 782 L442 714 L452 702 Z " />
<glyph glyph-name="Thorn" unicode="&#xde;" horiz-adv-x="600" d="M269 0 L273 19 L233 19 C193 19 178 28 178 54 C178 61 181 83 184 99 L200 174 L332 174 C486 174 595 266 595 396 C595 439 576 479 545 503 C514 527 473 536 394 536 L273 536 L281 572 C293 638 303 648 359 648 L394 648 L397 667 L110 667 L106 648 L124 648 C172 648 187 640 187 613 C187 605 185 595 180 568 L84 99 C72 32 59 20 2 19 L-20 19 L-24 0 L269 0 Z M268 509 L364 509 C447 509 490 473 490 405 C490 343 468 286 429 249 C390 212 359 201 292 201 L205 201 L268 509 Z " />
<glyph glyph-name="germandbls" unicode="&#xdf;" horiz-adv-x="556" d="M137 3 C139 26 144 58 148 80 L224 456 C242 543 248 563 261 593 C280 635 318 660 364 660 C417 660 445 631 445 577 C445 506 430 470 392 450 C327 415 327 415 311 396 C295 376 286 352 286 327 C286 282 308 255 387 198 C445 157 456 142 456 103 C456 46 416 8 356 8 C321 8 299 22 299 45 C299 51 300 55 308 79 C311 87 312 94 312 101 C312 119 296 131 271 131 C240 131 222 111 222 78 C222 24 277 -13 355 -13 C454 -13 523 48 523 134 C523 181 502 219 454 254 C394 299 394 299 379 315 C360 335 354 348 354 364 C354 395 371 414 414 430 C470 452 476 455 492 470 C511 487 522 520 522 558 C522 638 470 680 370 680 C308 680 259 665 221 634 C181 601 156 548 137 456 L63 88 C54 44 50 27 41 -3 L137 3 Z " />
<glyph glyph-name="agrave" unicode="&#xe0;" horiz-adv-x="499" d="M340 252 C219 250 135 234 93 205 C55 179 33 139 33 95 C33 31 82 -13 151 -13 C225 -13 283 29 316 107 L308 73 C305 59 303 45 303 34 C303 8 314 -2 342 -2 L372 -1 L461 3 L466 24 L444 23 L424 22 C402 21 387 32 387 50 C387 55 387 55 394 96 L427 259 C431 279 434 303 434 318 C434 391 382 430 284 430 C180 430 102 384 102 324 C102 301 119 286 146 286 C177 286 192 304 195 344 C197 376 199 384 209 393 C221 405 248 413 275 413 C327 413 357 387 357 344 C357 338 356 327 354 319 L340 252 Z M336 231 C324 172 315 145 300 113 C268 51 228 18 182 18 C143 18 123 42 123 87 C123 142 147 186 186 207 C219 224 265 231 336 231 L336 231 Z M355 494 L366 502 L328 592 C305 647 277 672 238 672 C216 672 200 662 200 648 C200 633 205 625 235 600 L355 494 Z " />
<glyph glyph-name="aacute" unicode="&#xe1;" horiz-adv-x="499" d="M340 252 C219 250 135 234 93 205 C55 179 33 139 33 95 C33 31 82 -13 151 -13 C225 -13 283 29 316 107 L308 73 C305 59 303 45 303 34 C303 8 314 -2 342 -2 L372 -1 L461 3 L466 24 L444 23 L424 22 C402 21 387 32 387 50 C387 55 387 55 394 96 L427 259 C431 279 434 303 434 318 C434 391 382 430 284 430 C180 430 102 384 102 324 C102 301 119 286 146 286 C177 286 192 304 195 344 C197 376 199 384 209 393 C221 405 248 413 275 413 C327 413 357 387 357 344 C357 338 356 327 354 319 L340 252 Z M336 231 C324 172 315 145 300 113 C268 51 228 18 182 18 C143 18 123 42 123 87 C123 142 147 186 186 207 C219 224 265 231 336 231 L336 231 Z M307 503 L427 595 C457 618 471 635 471 649 C471 664 453 675 430 675 C399 675 373 655 351 615 L295 513 L307 503 Z " />
<glyph glyph-name="acircumflex" unicode="&#xe2;" horiz-adv-x="499" d="M340 252 C219 250 135 234 93 205 C55 179 33 139 33 95 C33 31 82 -13 151 -13 C225 -13 283 29 316 107 L308 73 C305 59 303 45 303 34 C303 8 314 -2 342 -2 L372 -1 L461 3 L466 24 L444 23 L424 22 C402 21 387 32 387 50 C387 55 387 55 394 96 L427 259 C431 279 434 303 434 318 C434 391 382 430 284 430 C180 430 102 384 102 324 C102 301 119 286 146 286 C177 286 192 304 195 344 C197 376 199 384 209 393 C221 405 248 413 275 413 C327 413 357 387 357 344 C357 338 356 327 354 319 L340 252 Z M336 231 C324 172 315 145 300 113 C268 51 228 18 182 18 C143 18 123 42 123 87 C123 142 147 186 186 207 C219 224 265 231 336 231 L336 231 Z M457 511 L361 684 L340 684 L176 511 L186 500 L335 592 L448 500 L457 511 Z " />
<glyph glyph-name="atilde" unicode="&#xe3;" horiz-adv-x="499" d="M340 252 C219 250 135 234 93 205 C55 179 33 139 33 95 C33 31 82 -13 151 -13 C225 -13 283 29 316 107 L308 73 C305 59 303 45 303 34 C303 8 314 -2 342 -2 L372 -1 L461 3 L466 24 L444 23 L424 22 C402 21 387 32 387 50 C387 55 387 55 394 96 L427 259 C431 279 434 303 434 318 C434 391 382 430 284 430 C181 430 102 384 102 324 C102 301 119 286 146 286 C177 286 192 304 195 344 C197 376 199 384 209 393 C221 405 248 413 275 413 C326 413 357 387 357 344 C357 338 356 327 354 319 L340 252 Z M336 231 C324 172 315 145 300 113 C268 51 228 18 182 18 C143 18 123 42 123 87 C123 142 146 186 186 207 C219 224 265 231 336 231 L336 231 Z M498 666 C490 616 475 595 448 595 C434 595 420 602 400 618 L376 637 C349 659 329 668 308 668 C255 668 221 622 209 532 L230 532 C238 582 254 606 279 606 C292 606 310 597 325 582 L342 565 C365 542 392 529 417 529 C472 529 514 586 518 666 L498 666 Z " />
<glyph glyph-name="adieresis" unicode="&#xe4;" horiz-adv-x="499" d="M340 252 C219 250 135 234 93 205 C55 179 33 139 33 95 C33 31 82 -13 151 -13 C225 -13 283 29 316 107 L308 73 C305 59 303 45 303 34 C303 8 314 -2 342 -2 L372 -1 L461 3 L466 24 L444 23 L424 22 C402 21 387 32 387 50 C387 55 387 55 394 96 L427 259 C431 279 434 303 434 318 C434 391 382 430 284 430 C180 430 102 384 102 324 C102 301 119 286 146 286 C177 286 192 304 195 344 C197 376 199 384 209 393 C221 405 248 413 275 413 C327 413 357 387 357 344 C357 338 356 327 354 319 L340 252 Z M336 231 C324 172 315 145 300 113 C268 51 228 18 182 18 C143 18 123 42 123 87 C123 142 147 186 186 207 C219 224 265 231 336 231 L336 231 Z M261 654 C229 654 204 630 204 598 C204 569 224 549 254 549 C286 549 312 574 312 605 C312 635 292 654 261 654 L261 654 Z M445 654 C413 654 388 630 388 598 C388 569 408 549 438 549 C470 549 496 574 496 605 C496 635 476 654 445 654 L445 654 Z " />
<glyph glyph-name="aring" unicode="&#xe5;" horiz-adv-x="499" d="M340 252 C219 250 135 234 93 205 C55 179 33 139 33 95 C33 31 82 -13 151 -13 C225 -13 283 29 316 107 L308 73 C305 59 303 45 303 34 C303 8 314 -2 342 -2 L372 -1 L461 3 L466 24 L444 23 L424 22 C402 21 387 32 387 50 C387 55 387 55 394 96 L427 259 C431 279 434 303 434 318 C434 391 382 430 284 430 C180 430 102 384 102 324 C102 301 119 286 146 286 C177 286 192 304 195 344 C197 376 199 384 209 393 C221 405 248 413 275 413 C327 413 357 387 357 344 C357 338 356 327 354 319 L340 252 Z M336 231 C324 172 315 145 300 113 C268 51 228 18 182 18 C143 18 123 42 123 87 C123 142 147 186 186 207 C219 224 265 231 336 231 L336 231 Z M329 671 C288 671 255 637 255 597 C255 557 291 523 333 523 C371 523 405 556 405 594 C405 635 369 671 329 671 L329 671 Z M330 651 C358 651 384 625 384 595 C384 567 360 543 331 543 C302 543 277 567 277 596 C277 626 301 651 330 651 L330 651 Z " />
<glyph glyph-name="ae" unicode="&#xe6;" horiz-adv-x="781" d="M658 218 C696 218 702 219 714 226 C729 235 736 253 736 280 C736 371 674 430 579 430 C509 430 452 404 420 356 C399 406 355 430 283 430 C178 430 100 384 100 322 C100 299 117 285 148 285 C180 285 189 298 194 349 C198 391 224 409 281 409 C335 409 361 381 361 323 C361 305 359 289 354 266 L349 237 L304 237 C122 237 36 192 36 97 C36 25 89 -13 190 -13 C275 -13 328 13 365 72 C396 17 451 -13 519 -13 C600 -13 668 36 705 121 L686 130 C646 53 589 11 524 11 C459 11 422 55 422 136 C422 164 426 188 435 218 L658 218 Z M345 218 L333 158 C328 135 311 92 297 68 C277 34 238 12 197 12 C151 12 123 40 123 86 C123 127 143 171 171 190 C198 209 240 218 304 218 L345 218 Z M440 237 C473 353 521 411 584 411 C632 411 655 381 655 319 C655 287 649 263 637 249 C629 239 620 237 592 237 L440 237 Z " />
<glyph glyph-name="ccedilla" unicode="&#xe7;" horiz-adv-x="445" d="M373 125 C348 53 299 12 238 12 C175 12 139 54 139 129 C139 187 151 246 176 309 C205 381 239 412 288 412 C320 412 340 399 340 379 C340 374 340 372 334 352 C332 344 331 335 331 329 C331 303 349 287 377 287 C408 287 428 308 428 339 C428 393 371 430 288 430 C145 430 48 322 48 163 C48 55 116 -13 224 -13 C308 -13 364 30 394 118 L373 125 Z M231 -55 L218 -48 L112 -140 C90 -158 81 -173 81 -189 C81 -207 97 -221 119 -221 C144 -221 164 -208 178 -181 C190 -161 190 -161 217 -93 C220 -83 224 -73 228 -63 L231 -55 Z " />
<glyph glyph-name="egrave" unicode="&#xe8;" horiz-adv-x="501" d="M381 212 C430 212 452 232 452 277 C452 366 382 430 285 430 C149 430 47 318 47 169 C47 59 120 -13 232 -13 C323 -13 385 29 424 119 L405 126 C369 48 314 8 243 8 C172 8 134 48 134 123 C134 149 136 169 144 212 L381 212 Z M148 232 C175 350 222 411 287 411 C340 411 366 376 366 306 C366 249 354 232 313 232 L148 232 Z M323 494 L334 502 L296 592 C273 647 245 672 206 672 C184 672 168 662 168 648 C168 633 173 625 203 600 L323 494 Z " />
<glyph glyph-name="eacute" unicode="&#xe9;" horiz-adv-x="501" d="M381 212 C430 212 452 232 452 277 C452 366 382 430 285 430 C149 430 47 318 47 169 C47 59 120 -13 232 -13 C323 -13 385 29 424 119 L405 126 C369 48 314 8 243 8 C172 8 134 48 134 123 C134 149 136 169 144 212 L381 212 Z M148 232 C175 350 222 411 287 411 C340 411 366 376 366 306 C366 249 354 232 313 232 L148 232 Z M308 503 L428 595 C458 618 472 635 472 649 C472 664 454 675 431 675 C400 675 374 656 352 615 L297 513 L308 503 Z " />
<glyph glyph-name="ecircumflex" unicode="&#xea;" horiz-adv-x="501" d="M381 212 C430 212 452 232 452 277 C452 366 382 430 285 430 C149 430 47 318 47 169 C47 59 120 -13 232 -13 C323 -13 385 29 424 119 L405 126 C368 48 314 8 243 8 C172 8 134 48 134 123 C134 149 136 169 144 212 L381 212 Z M148 232 C175 350 222 411 287 411 C340 411 366 376 366 306 C366 249 354 232 313 232 L148 232 Z M458 511 L362 684 L341 684 L177 511 L187 500 L336 592 L449 500 L458 511 Z " />
<glyph glyph-name="edieresis" unicode="&#xeb;" horiz-adv-x="501" d="M380 212 C429 212 451 232 451 277 C451 366 381 430 284 430 C148 430 46 318 46 169 C46 59 119 -13 231 -13 C322 -13 384 29 424 119 L404 126 C368 48 313 8 242 8 C171 8 133 48 133 123 C133 149 135 169 143 212 L380 212 Z M147 232 C174 350 221 411 286 411 C338 411 365 376 365 306 C365 249 353 232 312 232 L147 232 Z M261 654 C229 654 204 630 204 598 C204 569 224 549 254 549 C286 549 312 574 312 605 C312 635 292 654 261 654 L261 654 Z M445 654 C413 654 388 630 388 598 C388 569 408 549 438 549 C470 549 496 574 496 605 C496 635 476 654 445 654 L445 654 Z " />
<glyph glyph-name="igrave" unicode="&#xec;" horiz-adv-x="267" d="M218 423 C139 415 127 414 51 413 L46 390 L127 397 L61 76 C57 57 55 41 55 33 C55 9 71 -3 104 -3 C118 -3 137 -2 151 -1 L218 5 L222 25 L185 22 C159 20 143 29 143 46 C143 53 144 62 146 72 L218 423 Z M205 494 L216 502 L179 592 C156 647 128 672 89 672 C66 672 51 662 51 648 C51 633 57 624 85 600 L205 494 Z " />
<glyph glyph-name="iacute" unicode="&#xed;" horiz-adv-x="267" d="M218 423 C139 415 127 414 51 413 L46 390 L126 397 L61 76 C57 57 55 41 55 33 C55 9 71 -3 104 -3 C118 -3 137 -2 151 -1 L218 5 L222 25 L185 22 C159 20 143 29 143 46 C143 53 144 62 146 72 L218 423 Z M157 503 L277 595 C307 618 321 635 321 649 C321 664 303 675 280 675 C249 675 223 655 201 615 L145 513 L157 503 Z " />
<glyph glyph-name="icircumflex" unicode="&#xee;" horiz-adv-x="267" d="M217 423 C138 415 126 414 51 413 L46 390 L126 397 L61 76 C57 57 55 41 55 33 C55 9 71 -3 104 -3 C118 -3 137 -2 150 -1 L218 5 L221 25 L185 22 C159 20 143 29 143 46 C143 54 144 62 146 72 L217 423 Z M307 511 L211 684 L190 684 L26 511 L36 500 L185 592 L298 500 L307 511 Z " />
<glyph glyph-name="idieresis" unicode="&#xef;" horiz-adv-x="267" d="M218 423 C139 415 127 414 51 413 L46 390 L127 397 L61 76 C57 57 55 40 55 33 C55 9 71 -3 104 -3 C118 -3 137 -2 151 -1 L218 5 L222 25 L185 22 C159 20 143 29 143 46 C143 53 144 62 146 72 L218 423 Z M131 656 C100 656 77 632 77 600 C77 571 96 551 123 551 C154 551 179 576 179 607 C179 637 160 656 131 656 L131 656 Z M276 656 C245 656 221 632 221 600 C221 571 240 551 268 551 C299 551 324 576 324 607 C324 637 305 656 276 656 L276 656 Z " />
<glyph glyph-name="eth" unicode="&#xf0;" horiz-adv-x="525" d="M248 529 L341 595 C394 529 414 480 427 387 C411 408 402 420 400 421 C383 438 345 451 311 451 C167 451 40 317 40 166 C40 57 111 -15 217 -15 C294 -15 367 22 424 90 C472 148 497 225 497 319 C497 444 456 546 375 620 L460 678 L447 698 L357 635 C337 652 290 680 265 689 L251 672 C272 659 287 649 296 640 L314 622 C316 621 320 617 325 613 L235 550 L248 529 Z M311 426 C373 426 405 383 405 299 C405 218 376 129 331 69 C302 31 264 10 221 10 C158 10 129 54 129 152 C129 232 155 309 203 372 C230 407 268 426 311 426 L311 426 Z " />
<glyph glyph-name="ntilde" unicode="&#xf1;" horiz-adv-x="558" d="M221 423 C144 415 133 414 59 413 L54 390 L133 397 L70 88 C61 47 57 27 48 -3 L140 3 C142 19 142 20 147 49 L153 79 L171 161 C202 312 266 402 341 402 C381 402 404 379 404 340 C404 328 404 328 396 289 L352 76 C348 57 346 41 346 33 C346 10 361 -2 391 -2 C407 -2 431 -1 441 0 L503 5 L506 25 L477 23 C472 22 467 22 463 22 C445 22 435 31 435 47 C435 54 436 63 438 72 L480 281 C484 301 487 321 487 332 C487 391 441 430 372 430 C289 430 230 384 191 289 L221 423 Z M514 666 C506 616 491 595 464 595 C450 595 436 602 416 618 L392 637 C365 659 345 668 324 668 C271 668 237 621 225 532 L245 532 C254 582 270 606 295 606 C308 606 326 597 341 582 L358 565 C381 542 408 529 433 529 C488 529 530 587 534 666 L514 666 Z " />
<glyph glyph-name="ograve" unicode="&#xf2;" horiz-adv-x="519" d="M285 434 C205 434 134 397 94 333 C63 283 45 216 45 152 C45 50 116 -13 231 -13 C306 -13 371 17 411 68 C448 117 473 192 473 256 C473 370 406 434 285 434 L285 434 Z M298 415 C355 415 384 375 384 298 C384 247 369 171 349 123 C317 45 276 7 221 7 C166 7 133 48 133 115 C133 180 156 277 183 329 C214 386 252 415 298 415 L298 415 Z M331 494 L341 502 L304 592 C281 647 253 672 214 672 C191 672 176 662 176 648 C176 633 182 625 210 600 L331 494 Z " />
<glyph glyph-name="oacute" unicode="&#xf3;" horiz-adv-x="519" d="M285 434 C205 434 134 397 94 333 C63 283 45 216 45 152 C45 50 116 -13 231 -13 C306 -13 371 17 411 68 C448 117 473 192 473 256 C473 370 406 434 285 434 L285 434 Z M298 415 C355 415 384 375 384 298 C384 247 369 171 349 123 C317 45 276 7 221 7 C166 7 133 48 133 115 C133 180 156 277 183 329 C214 386 252 415 298 415 L298 415 Z M282 503 L403 595 C433 619 447 635 447 649 C447 664 429 675 406 675 C374 675 349 655 326 615 L271 513 L282 503 Z " />
<glyph glyph-name="ocircumflex" unicode="&#xf4;" horiz-adv-x="518" d="M285 434 C205 434 134 397 94 333 C63 283 45 216 45 152 C45 50 116 -13 231 -13 C306 -13 371 17 411 68 C448 117 473 192 473 256 C473 370 406 434 285 434 L285 434 Z M298 415 C355 415 384 375 384 298 C384 247 369 171 349 123 C317 45 276 7 221 7 C166 7 133 48 133 115 C133 180 156 277 183 329 C214 386 252 415 298 415 L298 415 Z M466 511 L370 684 L349 684 L185 511 L195 500 L344 592 L457 500 L466 511 Z " />
<glyph glyph-name="otilde" unicode="&#xf5;" horiz-adv-x="518" d="M285 434 C205 434 134 397 94 333 C63 283 45 216 45 152 C45 50 116 -13 231 -13 C306 -13 371 17 411 68 C448 117 473 192 473 256 C473 370 406 434 285 434 L285 434 Z M298 415 C355 415 384 375 384 298 C384 247 369 171 349 123 C318 45 276 7 221 7 C166 7 133 48 133 115 C133 180 156 277 183 329 C214 386 252 415 298 415 L298 415 Z M494 666 C486 616 471 595 443 595 C429 595 416 602 396 618 L372 637 C345 659 325 668 304 668 C250 668 217 622 204 532 L225 532 C233 582 250 606 275 606 C288 606 306 597 320 582 L337 565 C361 542 387 529 413 529 C468 529 509 586 513 666 L494 666 Z " />
<glyph glyph-name="odieresis" unicode="&#xf6;" horiz-adv-x="518" d="M285 434 C205 434 134 397 94 333 C63 283 45 216 45 152 C45 50 116 -13 231 -13 C306 -13 371 17 411 68 C448 117 473 192 473 256 C473 370 406 434 285 434 L285 434 Z M298 415 C355 415 384 375 384 298 C384 247 369 171 349 123 C317 45 276 7 221 7 C166 7 133 48 133 115 C133 180 156 277 183 329 C214 386 252 415 298 415 L298 415 Z M270 654 C238 654 213 630 213 598 C213 569 233 549 263 549 C295 549 321 574 321 605 C321 635 301 654 270 654 L270 654 Z M454 654 C422 654 397 630 397 598 C397 569 417 549 447 549 C479 549 505 574 505 605 C505 635 485 654 454 654 L454 654 Z " />
<glyph glyph-name="divide" unicode="&#xf7;" horiz-adv-x="500" d="M46 370 L46 320 L507 320 L507 370 L46 370 Z M277 570 C252 570 233 551 233 527 C233 503 253 483 277 483 C301 483 320 502 320 527 C320 550 301 570 277 570 L277 570 Z M277 207 C252 207 233 188 233 163 C233 140 253 120 277 120 C300 120 320 140 320 164 C320 187 301 207 277 207 L277 207 Z " />
<glyph glyph-name="oslash" unicode="&#xf8;" horiz-adv-x="517" d="M494 488 L469 507 L391 411 C350 428 324 434 287 434 C207 434 139 400 99 340 C66 289 47 222 47 156 C47 104 59 72 91 35 L12 -63 L36 -83 L115 17 C148 -4 183 -13 233 -13 C311 -13 379 20 418 79 C451 128 472 197 472 258 C472 319 458 353 418 394 L494 488 Z M137 92 C136 106 135 119 135 125 C135 183 156 272 182 322 C213 382 253 414 298 414 C327 414 349 402 365 378 L137 92 Z M379 344 C383 328 384 321 384 302 C384 253 371 183 353 132 C324 53 277 8 222 8 C186 8 161 23 147 55 L379 344 Z " />
<glyph glyph-name="ugrave" unicode="&#xf9;" horiz-adv-x="528" d="M490 423 C411 415 400 414 325 413 L320 390 L399 397 L374 274 C362 214 335 143 309 97 C276 40 242 14 200 14 C166 14 145 33 145 66 C145 84 147 100 157 147 L213 423 C134 415 122 414 46 413 L41 390 L122 397 L67 128 C63 108 61 90 61 74 C61 23 107 -13 173 -13 C228 -13 273 11 305 56 C321 80 330 97 350 141 L336 76 C332 57 330 41 330 32 C330 9 345 -5 370 -5 C376 -5 387 -4 423 -2 L491 2 L495 22 L456 20 L443 20 C425 20 416 29 416 47 C416 56 417 63 419 72 L490 423 Z M303 494 L313 502 L276 592 C253 647 225 672 186 672 C163 672 148 662 148 648 C148 633 154 625 182 600 L303 494 Z " />
<glyph glyph-name="uacute" unicode="&#xfa;" horiz-adv-x="528" d="M490 423 C411 415 400 414 325 413 L320 390 L399 397 L374 274 C362 214 335 143 309 97 C276 40 242 14 200 14 C166 14 145 33 145 66 C145 84 147 100 157 147 L213 423 C134 415 122 414 46 413 L41 390 L122 397 L67 128 C63 108 61 90 61 74 C61 23 107 -13 173 -13 C228 -13 273 11 305 56 C321 80 330 97 350 141 L336 76 C332 57 330 41 330 32 C330 9 345 -5 370 -5 C376 -5 387 -4 423 -2 L491 2 L495 22 L456 20 L443 20 C425 20 416 29 416 47 C416 56 417 63 419 72 L490 423 Z M254 503 L374 595 C406 619 419 635 419 649 C419 664 401 675 378 675 C346 675 320 655 298 615 L243 513 L254 503 Z " />
<glyph glyph-name="ucircumflex" unicode="&#xfb;" horiz-adv-x="528" d="M490 423 C411 415 400 414 325 413 L320 390 L399 397 L374 274 C362 214 335 143 309 97 C276 40 242 14 200 14 C166 14 145 33 145 66 C145 84 147 100 157 147 L213 423 C134 415 122 414 46 413 L41 390 L122 397 L67 128 C63 108 61 90 61 74 C61 23 107 -13 173 -13 C228 -13 273 11 305 56 C321 80 330 97 350 141 L336 76 C332 57 330 41 330 32 C330 9 345 -5 370 -5 C376 -5 387 -4 423 -2 L491 2 L495 22 L456 20 L443 20 C425 20 416 29 416 47 C416 56 417 63 419 72 L490 423 Z M471 511 L375 684 L354 684 L190 511 L200 500 L349 592 L462 500 L471 511 Z " />
<glyph glyph-name="udieresis" unicode="&#xfc;" horiz-adv-x="528" d="M490 423 C411 415 400 414 325 413 L320 390 L399 397 L374 274 C362 214 335 143 309 97 C276 40 242 14 200 14 C166 14 145 33 145 66 C145 84 147 100 157 147 L213 423 C134 415 122 414 46 413 L41 390 L122 397 L67 128 C63 108 61 90 61 74 C61 23 107 -13 173 -13 C228 -13 273 11 305 56 C321 80 330 97 350 141 L336 76 C332 57 330 41 330 32 C330 9 345 -5 370 -5 C376 -5 387 -4 423 -2 L491 2 L495 22 L456 20 L443 20 C425 20 416 29 416 47 C416 56 417 63 419 72 L490 423 Z M242 654 C210 654 185 630 185 598 C185 569 205 549 235 549 C267 549 293 574 293 605 C293 635 273 654 242 654 L242 654 Z M426 654 C393 654 369 630 369 598 C369 569 389 549 418 549 C450 549 476 574 476 605 C476 635 457 654 426 654 L426 654 Z " />
<glyph glyph-name="yacute" unicode="&#xfd;" horiz-adv-x="482" d="M141 -84 C94 -143 69 -163 45 -163 C38 -163 31 -162 25 -160 C-11 -149 -11 -149 -21 -149 C-45 -149 -60 -165 -60 -189 C-60 -215 -42 -230 -9 -230 C28 -230 56 -214 96 -169 C147 -111 187 -64 203 -44 L305 90 C342 138 386 200 419 252 C451 302 467 342 467 373 C467 409 448 430 414 430 C388 430 370 415 370 392 C370 376 377 360 390 346 C407 328 410 322 410 311 C410 282 382 232 322 151 L261 69 C255 90 251 104 250 107 C238 160 225 214 212 267 C206 289 203 303 169 423 C94 415 83 414 14 413 L15 390 L83 397 C122 266 145 180 192 -21 L141 -84 Z M264 503 L385 595 C415 618 429 635 429 649 C429 664 411 675 388 675 C356 675 331 655 309 615 L253 513 L264 503 Z " />
<glyph glyph-name="thorn" unicode="&#xfe;" horiz-adv-x="543" d="M252 667 L118 667 L114 648 L126 648 C148 648 156 642 156 627 C156 617 154 606 148 577 L12 -92 C1 -154 -7 -162 -50 -163 L-58 -163 L-62 -182 L148 -182 L152 -163 L125 -163 C100 -163 91 -157 91 -138 C91 -130 94 -112 98 -93 L129 61 C148 16 200 -15 259 -15 C334 -15 395 18 443 84 C487 144 514 226 514 301 C514 407 457 469 360 469 C295 469 245 445 195 391 L252 667 Z M176 296 C192 375 257 431 331 431 C391 431 426 391 426 322 C426 249 391 134 354 84 C320 39 284 18 242 18 C186 18 143 58 143 110 C143 116 144 130 145 142 L176 296 Z " />
<glyph glyph-name="ydieresis" unicode="&#xff;" horiz-adv-x="482" d="M141 -84 C94 -143 69 -163 45 -163 C38 -163 31 -162 25 -160 C-11 -149 -11 -149 -21 -149 C-45 -149 -60 -165 -60 -189 C-60 -215 -42 -230 -9 -230 C28 -230 56 -214 96 -169 C147 -111 187 -64 203 -44 L305 90 C342 138 386 200 419 252 C451 302 467 342 467 373 C467 409 448 430 414 430 C388 430 370 415 370 392 C370 376 377 360 390 346 C407 328 410 322 410 311 C410 282 382 232 322 151 L261 69 C255 90 251 104 250 107 C238 160 225 214 212 267 C206 289 203 303 169 423 C94 415 83 414 14 413 L15 390 L83 397 C122 266 145 180 192 -21 L141 -84 Z M219 654 C187 654 162 630 162 598 C162 569 182 549 212 549 C244 549 270 574 270 605 C270 635 250 654 219 654 L219 654 Z M403 654 C370 654 346 630 346 598 C346 569 366 549 395 549 C427 549 453 574 453 605 C453 635 434 654 403 654 L403 654 Z " />
<glyph glyph-name="Amacron" unicode="&#x100;" horiz-adv-x="698" d="M166 218 L435 218 L479 22 L401 22 L396 -2 C451 1 488 2 519 2 C540 2 579 1 626 -2 L631 22 L579 22 L436 677 L410 677 L110 174 C61 93 36 54 11 22 L-34 22 L-39 -2 C-7 1 19 2 33 2 C54 2 79 1 116 -2 L120 22 L55 22 C77 67 88 88 125 150 L166 218 Z M181 241 L364 551 L431 241 L181 241 Z M325 785 L316 742 L573 742 L582 785 L325 785 Z " />
<glyph glyph-name="amacron" unicode="&#x101;" horiz-adv-x="499" d="M340 252 C219 250 135 234 93 205 C55 179 33 139 33 95 C33 31 82 -13 151 -13 C225 -13 283 29 316 107 L308 73 C305 59 303 45 303 34 C303 8 314 -2 342 -2 L372 -1 L461 3 L466 24 L444 23 L424 22 C402 21 387 32 387 50 C387 55 387 55 394 96 L427 259 C431 279 434 303 434 318 C434 391 382 430 284 430 C180 430 102 384 102 324 C102 301 119 286 146 286 C177 286 192 304 195 344 C197 376 199 384 209 393 C221 405 248 413 275 413 C327 413 357 387 357 344 C357 338 356 327 354 319 L340 252 Z M336 231 C324 172 315 145 300 113 C268 51 228 18 182 18 C143 18 123 42 123 87 C123 142 147 186 186 207 C219 224 265 231 336 231 L336 231 Z M226 622 L217 573 L473 573 L482 622 L226 622 Z " />
<glyph glyph-name="Abreve" unicode="&#x102;" horiz-adv-x="698" d="M166 218 L435 218 L479 22 L401 22 L396 -2 C451 1 488 2 519 2 C540 2 579 1 626 -2 L631 22 L579 22 L436 677 L410 677 L110 174 C61 93 36 54 11 22 L-34 22 L-39 -2 C-7 1 19 2 33 2 C54 2 79 1 116 -2 L120 22 L55 22 C77 67 88 88 125 150 L166 218 Z M181 241 L364 551 L431 241 L181 241 Z M574 831 C562 812 551 801 536 794 C516 786 472 779 432 779 C363 779 324 796 312 831 L291 831 C293 757 343 715 430 715 C516 715 580 760 593 831 L574 831 Z " />
<glyph glyph-name="abreve" unicode="&#x103;" horiz-adv-x="499" d="M340 252 C219 250 135 234 93 205 C55 179 33 139 33 95 C33 31 82 -13 151 -13 C225 -13 283 29 316 107 L308 73 C305 59 303 45 303 34 C303 8 314 -2 342 -2 L372 -1 L461 3 L466 24 L444 23 L424 22 C402 21 387 32 387 50 C387 55 387 55 394 96 L427 259 C431 279 434 303 434 318 C434 391 382 430 284 430 C181 430 102 384 102 324 C102 301 119 286 146 286 C177 286 192 304 195 344 C197 376 199 384 209 393 C221 405 248 413 275 413 C326 413 357 387 357 344 C357 338 356 327 354 319 L340 252 Z M336 231 C324 172 315 145 300 113 C268 51 228 18 182 18 C143 18 123 42 123 87 C123 142 146 186 186 207 C219 224 265 231 336 231 L336 231 Z M498 665 C493 645 487 635 477 624 C459 607 408 596 350 596 C270 596 231 618 228 665 L210 665 L209 648 C209 577 264 532 348 532 C440 532 504 582 517 665 L498 665 Z " />
<glyph glyph-name="Aogonek" unicode="&#x104;" horiz-adv-x="698" d="M657 19 C623 20 612 31 601 74 L459 672 L418 672 L96 123 C46 38 25 21 -28 19 L-32 0 L169 0 L173 19 C114 19 96 27 96 53 C96 65 103 83 118 109 L194 240 L464 240 L496 98 C499 85 501 72 501 63 C501 46 494 33 480 27 C467 21 455 20 409 19 L405 0 L627 0 C557 -32 520 -77 520 -129 C520 -173 551 -198 607 -198 C642 -198 670 -191 700 -173 L697 -164 C679 -169 670 -171 655 -171 C604 -171 574 -150 574 -114 C574 -67 597 -33 653 0 L657 19 Z M458 268 L211 268 L387 568 L458 268 Z " />
<glyph glyph-name="aogonek" unicode="&#x105;" horiz-adv-x="500" d="M443 69 C421 38 407 26 393 26 C380 26 373 36 373 52 C373 62 375 78 379 98 L427 332 C431 354 433 366 433 376 C433 436 383 469 293 469 C187 469 80 401 80 334 C80 309 96 291 118 291 C150 291 176 318 176 351 C176 360 175 364 170 375 C168 380 167 383 167 387 C167 411 227 441 275 441 C326 441 353 420 353 380 C353 373 352 363 350 355 L333 277 C123 228 12 156 12 68 C12 21 45 -10 96 -10 C153 -10 202 11 293 77 C292 67 292 63 292 55 C292 9 303 -3 347 -10 C289 -45 264 -80 264 -125 C264 -169 294 -193 349 -193 C382 -193 410 -185 439 -168 L436 -159 C418 -164 409 -166 396 -166 C346 -166 317 -146 317 -111 C317 -69 338 -38 392 -1 C415 13 446 41 457 59 L443 69 Z M299 111 C240 61 193 37 155 37 C123 37 102 57 102 87 C102 153 183 211 327 248 L299 111 Z " />
<glyph glyph-name="Cacute" unicode="&#x106;" horiz-adv-x="665" d="M572 212 C554 156 538 126 506 89 C461 39 409 12 353 12 C290 12 233 47 204 103 C183 143 175 185 175 249 C175 351 197 445 236 517 C285 606 366 656 460 656 C554 656 609 599 609 501 L608 466 L632 466 C652 582 660 622 671 658 C658 657 651 657 645 657 C625 657 611 659 573 665 C475 680 475 680 443 680 C229 680 71 514 71 289 C71 100 175 -13 348 -13 C378 -13 409 -10 438 -3 C498 11 505 12 528 12 C536 12 543 12 558 10 C559 39 577 133 597 212 L572 212 Z M455 702 L547 742 C589 761 607 777 607 798 C607 818 591 832 569 832 C546 832 523 816 497 782 L445 714 L455 702 Z " />
<glyph glyph-name="cacute" unicode="&#x107;" horiz-adv-x="445" d="M373 125 C348 53 299 12 238 12 C175 12 139 54 139 129 C139 187 151 246 176 309 C205 381 239 412 288 412 C320 412 340 399 340 379 C340 374 340 372 334 352 C332 344 331 335 331 329 C331 303 349 287 377 287 C408 287 428 308 428 339 C428 393 371 430 288 430 C145 430 48 322 48 163 C48 55 116 -13 224 -13 C308 -13 364 30 394 118 L373 125 Z M293 503 L413 595 C443 618 457 635 457 649 C457 664 439 675 416 675 C385 675 359 655 337 615 L281 513 L293 503 Z " />
<glyph glyph-name="Ccircumflex" unicode="&#x108;" horiz-adv-x="665" d="M572 212 C554 156 538 126 506 89 C461 39 409 12 353 12 C290 12 233 47 204 103 C183 143 175 185 175 249 C175 351 197 445 236 517 C285 606 366 656 460 656 C554 656 609 599 609 501 L608 466 L632 466 C652 582 660 622 671 658 C658 657 651 657 645 657 C625 657 611 659 573 665 C475 680 475 680 443 680 C229 680 71 514 71 289 C71 100 175 -13 348 -13 C378 -13 409 -10 438 -3 C498 11 505 12 528 12 C536 12 543 12 558 10 C559 39 577 133 597 212 L572 212 Z M594 720 L477 835 L461 835 L297 720 L305 708 L461 756 L592 708 L594 720 Z " />
<glyph glyph-name="Cdotaccent" unicode="&#x10a;" horiz-adv-x="665" d="M572 212 C554 156 538 126 506 89 C461 39 409 12 353 12 C290 12 233 47 204 103 C183 143 175 185 175 249 C175 351 197 445 236 517 C285 606 366 656 460 656 C554 656 609 599 609 501 L608 466 L632 466 C652 582 660 622 671 658 C658 657 651 657 645 657 C625 657 611 659 573 665 C475 680 475 680 443 680 C229 680 71 514 71 289 C71 100 175 -13 348 -13 C378 -13 409 -10 438 -3 C498 11 505 12 528 12 C536 12 543 12 558 10 C559 39 577 133 597 212 L572 212 Z M468 834 C434 834 407 809 407 778 C407 749 430 728 463 728 C497 728 525 752 525 782 C525 813 502 834 468 834 L468 834 Z " />
<glyph glyph-name="cdotaccent" unicode="&#x10b;" horiz-adv-x="445" d="M373 125 C348 53 299 12 238 12 C175 12 139 54 139 129 C139 187 151 246 176 309 C205 381 239 412 288 412 C320 412 340 399 340 379 C340 374 340 372 334 352 C332 344 331 335 331 329 C331 303 349 287 377 287 C408 287 428 308 428 339 C428 393 371 430 288 430 C145 430 48 322 48 163 C48 55 116 -13 224 -13 C308 -13 364 30 394 118 L373 125 Z M325 650 C293 650 267 625 267 595 C267 566 289 544 319 544 C351 544 378 570 378 599 C378 629 356 650 325 650 L325 650 Z " />
<glyph glyph-name="Ccaron" unicode="&#x10c;" horiz-adv-x="665" d="M572 212 C554 156 538 126 506 89 C461 39 409 12 353 12 C290 12 233 47 204 103 C183 143 175 185 175 249 C175 351 197 445 236 517 C285 606 366 656 460 656 C554 656 609 599 609 501 L608 466 L632 466 C652 582 660 622 671 658 C658 657 651 657 645 657 C625 657 611 659 573 665 C475 680 475 680 443 680 C229 680 71 514 71 289 C71 100 175 -13 348 -13 C378 -13 409 -10 438 -3 C498 11 505 12 528 12 C536 12 543 12 558 10 C559 39 577 133 597 212 L572 212 Z M337 822 L454 708 L470 708 L634 822 L627 835 L470 787 L340 835 L337 822 Z " />
<glyph glyph-name="ccaron" unicode="&#x10d;" horiz-adv-x="445" d="M373 125 C348 53 299 12 238 12 C175 12 139 54 139 129 C139 187 151 246 176 309 C205 381 239 412 288 412 C320 412 340 399 340 379 C340 374 340 372 334 352 C332 344 331 335 331 329 C331 303 349 287 377 287 C408 287 428 308 428 339 C428 393 371 430 288 430 C145 430 48 322 48 163 C48 55 116 -13 224 -13 C308 -13 364 30 394 118 L373 125 Z M242 674 L338 500 L359 500 L523 674 L513 684 L364 592 L252 684 L242 674 Z " />
<glyph glyph-name="Dcaron" unicode="&#x10e;" horiz-adv-x="738" d="M-14 -2 C12 -1 31 0 40 0 L131 0 L206 1 C301 1 301 1 326 3 C419 9 484 26 541 59 C647 120 713 247 713 388 C713 510 664 596 574 635 C522 657 447 668 353 667 C233 666 233 666 225 666 C191 666 169 666 119 668 L114 645 L203 645 L76 22 L-9 22 L-14 -2 Z M174 23 L300 643 L365 643 C441 643 496 628 535 596 C584 557 613 489 613 414 C613 325 581 212 538 150 C480 66 386 23 257 23 L174 23 Z M287 822 L404 708 L420 708 L585 822 L577 835 L420 787 L290 835 L287 822 Z " />
<glyph glyph-name="dcaron" unicode="&#x10f;" horiz-adv-x="698" d="M559 677 C476 668 463 667 382 667 L377 644 L471 649 L410 351 L407 334 L403 313 C397 355 390 375 374 393 C352 417 320 430 281 430 C209 430 137 390 98 327 C68 279 49 213 49 154 C49 54 109 -13 198 -13 C272 -13 328 30 367 115 L358 76 C353 56 350 39 350 31 C350 6 362 -3 394 -3 C407 -3 424 -2 439 -1 L511 5 L514 25 C491 23 474 22 464 22 C445 22 433 31 434 46 C434 50 436 59 438 72 L559 677 Z M300 405 C358 405 388 360 388 275 C388 141 303 10 216 10 C163 10 137 44 137 114 C137 185 162 281 195 334 C224 381 259 405 300 405 L300 405 Z M564 431 C655 466 714 533 714 601 C714 636 690 661 656 661 C625 661 602 638 602 607 C602 586 610 573 635 555 C647 546 651 540 651 531 C651 514 627 488 600 474 C573 461 558 453 555 451 L564 431 Z " />
<glyph glyph-name="Dcroat" unicode="&#x110;" horiz-adv-x="738" d="M-14 -2 C13 -1 31 0 40 0 L131 0 L206 1 C301 1 301 1 326 3 C419 9 484 26 541 59 C647 120 713 246 713 388 C713 510 664 596 574 635 C522 657 447 668 353 667 C233 666 233 666 225 666 C191 666 169 666 119 668 L114 645 L203 645 L144 356 L62 356 L58 333 L140 333 L76 22 L-9 22 L-14 -2 Z M174 23 L237 333 L420 333 L424 356 L242 356 L300 643 L365 643 C441 643 496 628 535 596 C584 557 613 489 613 413 C613 325 581 212 538 150 C480 66 386 23 257 23 L174 23 Z " />
<glyph glyph-name="dcroat" unicode="&#x111;" horiz-adv-x="545" d="M527 522 L593 522 L597 542 L531 542 L559 677 C476 668 463 667 382 667 L377 644 L470 649 L449 542 L309 542 L305 522 L444 522 L410 351 L407 334 L403 313 C397 356 390 375 374 393 C352 417 320 430 281 430 C209 430 137 390 98 327 C68 279 49 213 49 154 C49 54 109 -13 198 -13 C272 -13 328 30 367 115 L358 76 C353 56 350 39 350 31 C350 6 362 -3 394 -3 C407 -3 424 -2 439 -1 L511 5 L514 25 L482 22 L468 22 C445 22 433 30 434 46 C434 50 436 59 438 72 L527 522 Z M300 405 C358 405 388 360 388 275 C388 141 303 10 216 10 C163 10 137 44 137 114 C137 185 162 281 195 334 C224 381 259 405 300 405 L300 405 Z " />
<glyph glyph-name="Emacron" unicode="&#x112;" horiz-adv-x="614" d="M239 335 L333 335 C402 335 430 311 430 253 C430 248 429 231 427 219 L453 219 C467 313 487 411 503 466 L478 466 C454 383 420 358 331 359 L243 359 L301 643 L439 643 C539 643 581 611 581 536 C581 530 579 511 578 497 L604 497 C615 563 623 602 638 669 C615 668 609 668 605 668 L578 667 C502 665 484 665 471 665 L292 665 C274 665 267 665 159 668 C156 668 143 668 126 669 L122 645 L204 645 L77 22 L-5 22 L-10 -2 C8 -1 20 -1 24 -1 L50 0 C125 2 146 2 157 2 L352 2 C370 2 377 2 485 -1 C490 -1 493 -1 518 -2 C523 35 543 133 555 183 L531 183 C494 71 425 23 303 24 L175 24 L239 335 Z M293 785 L284 742 L540 742 L549 785 L293 785 Z " />
<glyph glyph-name="emacron" unicode="&#x113;" horiz-adv-x="501" d="M381 212 C430 212 452 232 452 277 C452 366 382 430 285 430 C149 430 47 318 47 169 C47 59 120 -13 232 -13 C323 -13 385 29 424 119 L405 126 C369 48 314 8 243 8 C172 8 134 48 134 123 C134 149 136 169 144 212 L381 212 Z M148 232 C175 350 222 411 287 411 C340 411 366 376 366 306 C366 249 354 232 313 232 L148 232 Z M228 622 L219 573 L475 573 L484 622 L228 622 Z " />
<glyph glyph-name="Ebreve" unicode="&#x114;" horiz-adv-x="614" d="M239 335 L333 335 C402 335 430 311 430 253 C430 248 429 231 427 219 L453 219 C467 313 487 411 503 466 L478 466 C454 383 420 358 331 359 L243 359 L301 643 L439 643 C539 643 581 611 581 536 C581 530 579 511 578 497 L604 497 C615 563 623 602 638 669 C615 668 609 668 605 668 L578 667 C502 665 484 665 471 665 L292 665 C274 665 267 665 159 668 C156 668 143 668 126 669 L122 645 L204 645 L77 22 L-5 22 L-10 -2 C8 -1 20 -1 24 -1 L50 0 C125 2 146 2 157 2 L352 2 C370 2 377 2 485 -1 C490 -1 493 -1 518 -2 C523 35 543 133 555 183 L531 183 C494 71 425 23 303 24 L175 24 L239 335 Z M538 831 C526 812 515 801 501 794 C481 786 437 779 397 779 C327 779 289 796 276 831 L255 831 C258 757 308 715 394 715 C481 715 544 760 558 831 L538 831 Z " />
<glyph glyph-name="Edotaccent" unicode="&#x116;" horiz-adv-x="614" d="M239 335 L333 335 C402 335 430 311 430 253 C430 248 429 231 427 219 L453 219 C467 313 487 411 503 466 L478 466 C454 383 420 358 331 359 L243 359 L301 643 L439 643 C539 643 581 611 581 536 C581 530 579 511 578 497 L604 497 C615 563 623 602 638 669 C615 668 609 668 605 668 L578 667 C502 665 484 665 471 665 L292 665 C274 665 267 665 159 668 C156 668 143 668 126 669 L122 645 L204 645 L77 22 L-5 22 L-10 -2 C8 -1 20 -1 24 -1 L50 0 C125 2 146 2 157 2 L352 2 C370 2 377 2 485 -1 C490 -1 493 -1 518 -2 C523 35 543 133 555 183 L531 183 C494 71 425 23 303 24 L175 24 L239 335 Z M442 834 C408 834 381 809 381 778 C381 749 404 728 436 728 C471 728 499 752 499 782 C499 812 476 834 442 834 L442 834 Z " />
<glyph glyph-name="edotaccent" unicode="&#x117;" horiz-adv-x="501" d="M381 212 C430 212 452 232 452 277 C452 366 382 430 285 430 C149 430 47 318 47 169 C47 59 120 -13 232 -13 C323 -13 385 29 424 119 L405 126 C369 48 314 8 243 8 C172 8 134 48 134 123 C134 149 136 169 144 212 L381 212 Z M148 232 C175 350 222 411 287 411 C340 411 366 376 366 306 C366 249 354 232 313 232 L148 232 Z M320 650 C288 650 262 625 262 595 C262 566 285 544 314 544 C346 544 373 570 373 599 C373 629 351 650 320 650 L320 650 Z " />
<glyph glyph-name="Eogonek" unicode="&#x118;" horiz-adv-x="657" d="M629 181 L610 181 C560 70 488 24 374 27 L225 27 C191 27 181 33 181 54 C181 62 183 76 185 89 L234 329 L369 329 C431 329 453 305 453 236 C453 222 452 212 450 193 L469 193 L530 495 L511 495 C480 387 451 357 374 357 L240 357 L297 639 L496 639 C599 639 635 610 635 529 L634 503 L653 503 L686 667 L110 667 L106 648 L127 648 C175 648 189 640 189 613 C189 605 187 588 183 568 L87 99 C75 32 62 20 5 19 L-19 19 L-23 0 L532 0 C463 -31 425 -77 425 -129 C425 -173 456 -198 512 -198 C547 -198 575 -191 605 -173 L602 -164 C584 -169 575 -171 560 -171 C509 -171 479 -150 479 -114 C479 -67 502 -34 558 0 L629 181 Z " />
<glyph glyph-name="eogonek" unicode="&#x119;" horiz-adv-x="491" d="M424 115 C366 53 316 26 259 26 C179 26 132 80 132 171 C132 192 133 206 137 233 L466 233 C471 265 473 285 473 306 C473 405 412 468 316 468 C169 468 42 325 42 159 C42 49 104 -17 207 -17 C224 -17 238 -16 265 -11 C210 -44 183 -81 183 -126 C183 -169 214 -193 268 -193 C301 -193 329 -185 358 -168 L355 -159 C338 -164 329 -166 315 -166 C265 -166 236 -146 236 -111 C236 -64 260 -30 317 2 C382 36 402 53 440 104 L424 115 Z M142 261 C173 376 233 442 308 442 C367 442 399 403 399 332 C399 311 397 292 390 261 L142 261 Z " />
<glyph glyph-name="Ecaron" unicode="&#x11a;" horiz-adv-x="614" d="M239 335 L333 335 C402 335 430 311 430 253 C430 248 429 231 427 219 L453 219 C467 313 487 411 503 466 L478 466 C454 383 420 358 331 359 L243 359 L301 643 L439 643 C539 643 581 611 581 536 C581 530 579 511 578 497 L604 497 C615 563 623 602 638 669 C615 668 609 668 605 668 L578 667 C502 665 484 665 471 665 L292 665 C274 665 267 665 159 668 C156 668 143 668 126 669 L122 645 L204 645 L77 22 L-5 22 L-10 -2 C8 -1 20 -1 24 -1 L50 0 C125 2 146 2 157 2 L352 2 C370 2 377 2 485 -1 C490 -1 493 -1 518 -2 C523 35 543 133 555 183 L531 183 C494 71 425 23 303 24 L175 24 L239 335 Z M291 822 L408 708 L424 708 L589 822 L581 835 L424 787 L294 835 L291 822 Z " />
<glyph glyph-name="ecaron" unicode="&#x11b;" horiz-adv-x="501" d="M381 212 C430 212 452 232 452 277 C452 366 382 430 285 430 C149 430 47 318 47 169 C47 59 120 -13 232 -13 C323 -13 385 29 424 119 L405 126 C369 48 314 8 243 8 C172 8 134 48 134 123 C134 149 136 169 144 212 L381 212 Z M148 232 C175 350 222 411 287 411 C340 411 366 376 366 306 C366 249 354 232 313 232 L148 232 Z M211 674 L306 500 L328 500 L492 674 L482 684 L333 592 L220 684 L211 674 Z " />
<glyph glyph-name="Gcircumflex" unicode="&#x11c;" horiz-adv-x="723" d="M641 245 L712 245 L718 268 C664 266 620 265 595 265 C564 265 522 266 464 268 L459 245 L543 245 L503 48 C463 23 419 11 366 11 C251 11 174 105 174 246 C174 328 198 427 236 498 C290 600 378 656 483 656 C585 656 642 603 642 509 C642 493 641 482 638 462 L663 462 C674 532 693 628 701 653 L689 653 C654 653 641 655 578 667 C521 678 504 680 466 680 C361 680 273 650 203 589 C118 515 69 406 69 291 C69 216 89 147 127 92 C175 23 250 -13 348 -13 C382 -13 421 -9 461 -1 C519 11 525 12 561 12 C567 12 580 12 594 11 L641 245 Z M623 720 L507 835 L490 835 L326 720 L334 708 L490 756 L621 708 L623 720 Z " />
<glyph glyph-name="gcircumflex" unicode="&#x11d;" horiz-adv-x="479" d="M458 422 L336 422 C308 428 296 430 274 430 C156 430 79 359 79 249 C79 199 95 166 133 138 C75 118 46 87 46 45 C46 22 53 7 71 -10 C8 -40 -21 -74 -21 -121 C-21 -189 51 -230 170 -230 C312 -230 393 -176 393 -80 C393 -8 349 28 251 36 L166 42 C122 46 104 57 104 81 C104 102 121 118 155 128 C177 120 196 117 227 117 C295 117 343 135 376 173 C404 205 421 253 421 297 C421 342 408 371 377 399 L453 399 L458 422 Z M275 411 C318 411 343 379 343 324 C343 290 329 232 312 199 C292 158 263 137 226 137 C183 137 157 169 157 221 C157 262 171 319 189 352 C211 391 240 411 275 411 L275 411 Z M250 -44 C301 -48 323 -55 340 -73 C349 -83 354 -97 354 -110 C354 -167 282 -209 185 -209 C95 -209 35 -165 35 -100 C35 -65 50 -43 89 -20 C104 -28 122 -32 150 -35 L250 -44 Z M432 511 L337 684 L315 684 L151 511 L161 500 L310 592 L423 500 L432 511 Z " />
<glyph glyph-name="Gbreve" unicode="&#x11e;" horiz-adv-x="723" d="M641 245 L712 245 L718 268 C664 266 620 265 595 265 C564 265 522 266 464 268 L459 245 L543 245 L503 48 C463 23 419 11 366 11 C251 11 174 105 174 246 C174 328 198 427 236 498 C290 600 378 656 483 656 C585 656 642 603 642 509 C642 493 641 482 638 462 L663 462 C674 532 693 628 701 653 L689 653 C654 653 641 655 578 667 C521 678 504 680 466 680 C361 680 273 650 203 589 C118 515 69 406 69 291 C69 216 89 147 127 92 C175 23 250 -13 348 -13 C382 -13 421 -9 461 -1 C519 11 525 12 561 12 C567 12 580 12 594 11 L641 245 Z M640 831 C628 812 617 801 602 794 C582 786 538 779 498 779 C428 779 390 796 378 831 L357 831 C359 757 409 715 496 715 C582 715 646 760 659 831 L640 831 Z " />
<glyph glyph-name="gbreve" unicode="&#x11f;" horiz-adv-x="479" d="M458 422 L336 422 C308 428 296 430 274 430 C156 430 79 359 79 249 C79 199 95 166 133 138 C75 118 46 87 46 45 C46 22 53 7 71 -10 C8 -40 -21 -74 -21 -121 C-21 -189 51 -230 170 -230 C312 -230 393 -176 393 -80 C393 -8 349 28 251 36 L166 42 C122 46 104 57 104 81 C104 102 121 118 155 128 C177 120 196 117 227 117 C295 117 343 135 376 173 C404 205 421 253 421 297 C421 342 408 371 377 399 L453 399 L458 422 Z M275 411 C318 411 343 379 343 324 C343 290 329 232 312 199 C292 158 263 137 226 137 C183 137 157 169 157 221 C157 262 171 319 189 352 C211 391 240 411 275 411 L275 411 Z M250 -44 C301 -48 323 -55 340 -73 C349 -83 354 -97 354 -110 C354 -167 282 -209 185 -209 C95 -209 35 -165 35 -100 C35 -65 50 -43 89 -20 C104 -28 122 -32 150 -35 L250 -44 Z M430 665 C424 645 419 635 408 624 C391 607 339 596 282 596 C202 596 163 618 159 665 L142 665 C141 659 141 651 141 648 C141 578 196 532 280 532 C372 532 436 582 449 665 L430 665 Z " />
<glyph glyph-name="Gdotaccent" unicode="&#x120;" horiz-adv-x="723" d="M641 245 L712 245 L718 268 C664 266 620 265 595 265 C564 265 522 266 464 268 L459 245 L543 245 L503 48 C463 23 419 11 366 11 C251 11 174 105 174 246 C174 328 198 427 236 498 C290 600 378 656 483 656 C585 656 642 603 642 509 C642 493 641 482 638 462 L663 462 C674 532 693 628 701 653 L689 653 C654 653 641 655 578 667 C521 678 504 680 466 680 C361 680 273 650 203 589 C118 515 69 406 69 291 C69 216 89 147 127 92 C175 23 250 -13 348 -13 C382 -13 421 -9 461 -1 C519 11 525 12 561 12 C567 12 580 12 594 11 L641 245 Z M510 834 C476 834 449 809 449 778 C449 749 472 728 504 728 C539 728 567 752 567 782 C567 813 544 834 510 834 L510 834 Z " />
<glyph glyph-name="gdotaccent" unicode="&#x121;" horiz-adv-x="479" d="M458 422 L336 422 C308 428 296 430 274 430 C156 430 79 359 79 249 C79 199 95 166 133 138 C75 118 46 87 46 45 C46 22 53 7 71 -10 C8 -40 -21 -74 -21 -121 C-21 -189 51 -230 170 -230 C312 -230 393 -176 393 -80 C393 -8 349 28 251 36 L166 42 C122 46 104 57 104 81 C104 102 121 118 155 128 C177 120 196 117 227 117 C295 117 343 135 376 173 C404 205 421 253 421 297 C421 342 408 371 377 399 L453 399 L458 422 Z M275 411 C318 411 343 379 343 324 C343 290 329 232 312 199 C292 158 263 137 226 137 C183 137 157 169 157 221 C157 262 171 319 189 352 C211 391 240 411 275 411 L275 411 Z M250 -44 C301 -48 323 -55 340 -73 C349 -83 354 -97 354 -110 C354 -167 282 -209 185 -209 C95 -209 35 -165 35 -100 C35 -65 50 -43 89 -20 C104 -28 122 -32 150 -35 L250 -44 Z M291 650 C259 650 233 626 233 595 C233 566 255 544 285 544 C317 544 344 570 344 599 C344 629 322 650 291 650 L291 650 Z " />
<glyph glyph-name="Gcommaaccent" unicode="&#x122;" horiz-adv-x="723" d="M641 245 L712 245 L718 268 C664 266 620 265 595 265 C564 265 522 266 464 268 L459 245 L543 245 L503 48 C463 23 419 11 366 11 C251 11 174 105 174 246 C174 328 198 427 236 498 C290 600 378 656 483 656 C585 656 642 603 642 509 C642 493 641 482 638 462 L663 462 C674 532 693 628 701 653 L689 653 C654 653 641 655 578 667 C521 678 504 680 466 680 C361 680 273 650 203 589 C118 515 69 406 69 291 C69 216 89 147 127 92 C175 23 250 -13 348 -13 C382 -13 421 -9 461 -1 C519 11 525 12 561 12 C567 12 580 12 594 11 L641 245 Z M240 -216 C302 -195 344 -146 344 -96 C344 -71 328 -53 306 -53 C280 -53 257 -75 257 -99 C257 -115 268 -126 284 -126 C289 -126 292 -126 294 -125 C305 -120 305 -120 306 -120 C308 -120 309 -122 309 -125 C309 -151 275 -190 238 -206 L240 -216 Z " />
<glyph glyph-name="gcommaaccent" unicode="&#x123;" horiz-adv-x="479" d="M458 422 L336 422 C308 428 296 430 274 430 C156 430 79 359 79 249 C79 199 95 166 133 138 C75 118 46 87 46 45 C46 22 53 7 71 -10 C8 -40 -21 -74 -21 -121 C-21 -189 51 -230 170 -230 C312 -230 393 -176 393 -80 C393 -8 349 28 251 36 L166 42 C122 46 104 57 104 81 C104 102 121 118 155 128 C177 120 196 117 227 117 C295 117 343 135 376 173 C404 205 421 253 421 297 C421 342 408 371 377 399 L453 399 L458 422 Z M275 411 C318 411 343 379 343 324 C343 290 329 232 312 199 C292 158 263 137 226 137 C183 137 157 169 157 221 C157 262 171 319 189 352 C211 391 240 411 275 411 L275 411 Z M250 -44 C301 -48 323 -55 340 -73 C349 -83 354 -97 354 -110 C354 -167 282 -209 185 -209 C95 -209 35 -165 35 -100 C35 -65 50 -43 89 -20 C104 -28 122 -32 150 -35 L250 -44 Z M393 718 C301 683 242 616 242 548 C242 513 266 488 300 488 C332 488 355 511 355 542 C355 563 347 576 321 594 C309 603 305 609 305 618 C305 635 330 662 357 675 L402 698 L393 718 Z " />
<glyph glyph-name="Hcircumflex" unicode="&#x124;" horiz-adv-x="727" d="M240 328 L541 328 L479 22 L399 22 L394 -2 C447 1 492 2 516 2 C551 2 593 1 655 -2 L660 22 L576 22 L702 645 L786 645 L791 669 C737 666 691 665 667 665 C631 665 588 666 525 669 L520 645 L605 645 L546 353 L245 353 L305 645 L389 645 L394 669 C340 666 294 665 270 665 C234 665 191 666 128 669 L123 645 L208 645 L81 22 L3 22 L-2 -2 C51 1 96 2 119 2 C154 2 196 1 258 -2 L262 22 L178 22 L240 328 Z M646 720 L529 835 L513 835 L348 720 L356 708 L513 756 L643 708 L646 720 Z " />
<glyph glyph-name="Hbar" unicode="&#x126;" horiz-adv-x="751" d="M153 443 L82 94 C69 29 59 19 3 19 L-20 19 L-24 0 L248 0 L252 19 L229 19 C189 19 176 27 176 50 C176 59 178 74 182 94 L232 336 L572 336 L523 94 C511 29 500 19 445 19 L423 19 L419 0 L693 0 L697 19 L670 19 C630 19 618 26 618 52 C618 62 620 75 624 94 L695 443 L784 443 L791 473 L701 473 L721 572 C733 638 744 648 799 648 L826 648 L830 667 L554 667 L551 648 L572 648 C614 648 626 641 626 615 C626 605 624 590 620 572 L600 473 L259 473 L279 572 C292 638 303 648 358 648 L381 648 L385 667 L110 667 L106 648 L131 648 C173 648 185 641 185 615 C185 605 184 595 179 572 L159 473 L70 473 L64 443 L153 443 Z M594 443 L579 367 L238 367 L253 443 L594 443 Z " />
<glyph glyph-name="hbar" unicode="&#x127;" horiz-adv-x="529" d="M227 569 L247 667 L114 667 L110 648 L116 648 C143 648 152 642 152 623 C152 615 152 613 145 578 L143 569 L71 569 L65 538 L137 538 L45 90 C34 28 27 20 -13 19 L-18 19 L-22 0 L159 0 L162 19 L151 19 C131 19 123 25 123 40 C123 49 126 68 130 90 L171 291 C184 337 194 359 219 386 C251 422 290 442 330 442 C379 442 412 412 412 367 C412 357 411 347 406 323 L358 90 C347 30 339 20 303 19 L298 19 L294 0 L473 0 L477 19 L465 19 C444 19 436 25 436 40 C436 49 439 68 443 90 L485 298 C490 323 494 349 494 361 C494 435 446 481 370 481 C299 481 231 442 188 376 L221 538 L321 538 L327 569 L227 569 Z " />
<glyph glyph-name="Imacron" unicode="&#x12a;" horiz-adv-x="325" d="M302 645 L381 645 L386 669 C332 666 287 665 263 665 C228 665 185 666 123 669 L119 645 L204 645 L77 22 L-8 22 L-13 -2 C42 1 88 2 112 2 C148 2 192 1 255 -2 L260 22 L175 22 L302 645 Z M142 785 L133 742 L390 742 L398 785 L142 785 Z " />
<glyph glyph-name="imacron" unicode="&#x12b;" horiz-adv-x="267" d="M218 423 C139 415 127 414 51 413 L46 390 L127 397 L61 76 C57 56 55 40 55 33 C55 9 71 -3 104 -3 C118 -3 137 -2 151 -1 L218 5 L222 25 L185 22 C158 20 143 29 143 47 C143 52 144 63 146 72 L218 423 Z M42 622 L33 573 L289 573 L298 622 L42 622 Z " />
<glyph glyph-name="ibreve" unicode="&#x12d;" horiz-adv-x="267" d="M218 423 C139 415 127 414 51 413 L46 390 L127 397 L61 76 C57 57 55 40 55 33 C55 9 71 -3 104 -3 C118 -3 137 -2 151 -1 L218 5 L222 25 L185 22 C159 20 143 29 143 46 C143 53 144 62 146 72 L218 423 Z M369 665 C363 645 358 635 347 624 C329 607 278 596 221 596 C140 596 102 618 98 665 L80 665 L79 648 C79 577 134 532 218 532 C310 532 374 582 387 665 L369 665 Z " />
<glyph glyph-name="Iogonek" unicode="&#x12e;" horiz-adv-x="325" d="M255 -2 L260 22 L175 22 L302 645 L381 645 L386 669 C332 666 287 665 263 665 C228 665 185 666 123 669 L119 645 L204 645 L77 22 L-8 22 L-13 -2 C33 1 66 2 91 2 L155 1 C163 0 187 0 215 -1 C154 -32 120 -76 120 -125 C120 -169 152 -194 207 -194 C242 -194 269 -186 300 -169 L297 -159 C279 -165 270 -166 255 -166 C202 -166 174 -146 174 -108 C174 -65 196 -31 243 -1 L255 -2 Z " />
<glyph glyph-name="iogonek" unicode="&#x12f;" horiz-adv-x="267" d="M218 5 L222 25 L185 22 C158 20 143 29 143 47 C143 53 144 63 146 72 L218 423 C139 415 127 414 51 413 L46 390 L126 397 L61 76 C57 57 55 40 55 33 C55 9 71 -3 104 -3 C118 -3 137 -2 151 -1 L164 0 C107 -27 72 -74 72 -122 C72 -166 104 -191 159 -191 C193 -191 221 -184 252 -166 L249 -157 C231 -162 222 -164 207 -164 C154 -164 126 -144 126 -106 C126 -61 149 -26 199 3 L218 5 Z M208 657 C173 657 146 634 146 603 C146 576 168 557 200 557 C235 557 261 581 261 613 C261 639 239 657 208 657 L208 657 Z " />
<glyph glyph-name="Idotaccent" unicode="&#x130;" horiz-adv-x="325" d="M302 645 L381 645 L386 669 C332 666 287 665 263 665 C228 665 185 666 123 669 L119 645 L204 645 L77 22 L-8 22 L-13 -2 C42 1 88 2 112 2 C148 2 192 1 255 -2 L260 22 L175 22 L302 645 Z M264 834 C230 834 203 809 203 778 C203 749 226 728 258 728 C293 728 321 752 321 782 C321 812 298 834 264 834 L264 834 Z " />
<glyph glyph-name="dotlessi" unicode="&#x131;" horiz-adv-x="267" d="M218 423 C139 415 127 414 51 413 L46 390 L126 397 L61 76 C57 57 55 40 55 33 C55 9 71 -3 104 -3 C118 -3 137 -2 151 -1 L218 5 L222 25 L185 22 C158 20 143 29 143 47 C143 53 144 63 146 72 L218 423 Z " />
<glyph glyph-name="IJ" unicode="&#x132;" horiz-adv-x="772" d="M302 645 L381 645 L386 669 C332 666 287 665 263 665 C228 665 185 666 123 669 L119 645 L204 645 L77 22 L-8 22 L-13 -2 C42 1 88 2 112 2 C148 2 192 1 255 -2 L260 22 L175 22 L302 645 Z M361 185 L337 185 C331 154 326 123 320 93 C314 67 308 41 303 15 L300 3 C324 2 332 1 340 1 C351 -1 362 -2 373 -3 L406 -8 C449 -13 449 -13 468 -13 C546 -13 601 14 630 68 C650 104 660 134 677 218 L763 645 L840 645 L845 669 C790 666 743 665 718 665 C682 665 637 666 573 669 L569 645 L666 645 L577 208 C566 153 549 97 534 66 C518 31 489 11 455 11 C398 11 360 66 360 148 L361 185 Z " />
<glyph glyph-name="ij" unicode="&#x133;" horiz-adv-x="537" d="M218 423 C139 415 127 414 51 413 L46 390 L126 397 L61 76 C57 57 55 40 55 33 C55 9 71 -3 104 -3 C118 -3 137 -2 151 -1 L218 5 L222 25 L185 22 C158 20 143 29 143 47 C143 53 144 63 146 72 L218 423 Z M208 657 C173 657 146 634 146 603 C146 576 168 557 200 557 C235 557 261 581 261 612 C261 639 240 657 208 657 L208 657 Z M498 423 C415 414 403 414 318 413 L314 390 L404 395 L339 63 C320 -36 308 -86 297 -124 C279 -178 249 -209 212 -209 C195 -209 183 -200 183 -186 C183 -181 184 -174 187 -168 C194 -146 194 -146 194 -137 C194 -115 178 -101 153 -101 C120 -101 100 -122 100 -158 C100 -204 134 -230 194 -230 C313 -230 385 -129 432 103 L498 423 Z M491 657 C456 657 429 634 429 603 C429 576 451 557 483 557 C517 557 543 581 543 612 C543 639 522 657 491 657 L491 657 Z " />
<glyph glyph-name="Kcommaaccent" unicode="&#x136;" horiz-adv-x="724" d="M330 391 L588 588 C604 600 616 609 631 618 L671 645 L738 645 L744 669 C702 666 666 665 648 665 C620 665 587 666 539 669 L534 645 L608 645 C570 607 548 588 518 565 L246 359 L304 645 L389 645 L394 669 C339 666 292 665 268 665 C232 665 188 666 124 669 L120 645 L206 645 L79 22 L-7 22 L-12 -2 C43 1 90 2 114 2 C150 2 194 1 258 -2 L263 22 L177 22 L244 350 L482 22 L403 22 L397 -2 C464 1 510 2 549 2 C574 2 623 1 681 -2 L686 22 L603 22 L330 391 Z M240 -216 C302 -194 344 -146 344 -96 C344 -71 328 -53 306 -53 C280 -53 257 -75 257 -99 C257 -115 268 -126 284 -126 C289 -126 292 -126 294 -125 C305 -120 305 -120 306 -120 C308 -120 309 -122 309 -125 C309 -151 275 -190 239 -206 L240 -216 Z " />
<glyph glyph-name="kcommaaccent" unicode="&#x137;" horiz-adv-x="529" d="M189 255 L275 677 C196 668 184 668 110 667 L105 644 L183 649 L69 88 C60 45 55 24 47 -3 L142 3 C144 23 149 58 153 79 L187 243 L303 64 C338 11 360 -4 404 -4 L425 -3 L506 4 L512 25 L495 23 L484 23 C447 23 427 38 393 88 L270 270 L313 291 C409 338 453 373 453 402 C453 418 437 429 414 429 C380 429 365 415 355 375 C345 334 334 323 267 291 L189 255 Z M145 -212 C205 -193 246 -145 246 -95 C246 -70 231 -53 209 -53 C184 -53 161 -75 161 -98 C161 -114 172 -125 188 -125 L198 -124 C208 -118 208 -118 209 -118 C211 -118 212 -120 212 -124 C212 -149 179 -187 143 -204 L145 -212 Z " />
<glyph glyph-name="kgreenlandic" unicode="&#x138;" horiz-adv-x="497" d="M293 303 L398 391 C444 429 461 438 485 438 L489 457 L329 457 L325 438 C354 438 369 430 369 415 C369 403 350 381 315 352 L161 225 L208 457 L67 457 L63 438 L72 438 C101 438 112 431 112 413 C112 404 110 392 105 368 L49 90 C37 29 30 19 -9 19 L-20 19 L-24 0 L168 0 L172 19 L156 19 C134 19 126 25 126 41 C126 50 127 59 134 90 L155 192 L216 243 L310 59 C314 52 316 46 316 42 C316 26 304 19 275 19 L271 0 L463 0 L467 19 C440 24 429 32 415 59 L293 303 Z " />
<glyph glyph-name="Lacute" unicode="&#x139;" horiz-adv-x="555" d="M177 24 L302 645 L393 645 L398 669 C342 666 295 665 270 665 C233 665 189 666 124 669 L120 645 L205 645 L78 22 L-7 22 L-12 -2 C6 -1 18 -1 22 -1 L48 0 C123 2 144 2 155 2 L330 2 C348 2 355 2 463 -1 C468 -1 471 -1 496 -2 C500 38 523 153 534 184 L509 184 C468 66 418 27 302 24 L177 24 Z M274 702 L365 742 C407 760 425 777 425 798 C425 818 409 832 387 832 C364 832 342 817 315 782 L264 714 L274 702 Z " />
<glyph glyph-name="lacute" unicode="&#x13a;" horiz-adv-x="305" d="M278 677 C199 668 187 668 112 667 L108 644 L185 649 L69 76 C61 40 61 37 61 32 C61 6 76 -5 110 -5 C119 -5 126 -4 159 -1 L228 5 L231 25 C215 24 202 23 194 23 C188 22 183 22 179 22 C161 22 150 32 151 47 C151 53 153 62 155 72 L278 677 Z M244 702 L335 742 C377 760 395 777 395 798 C395 818 379 832 358 832 C334 832 312 817 286 782 L234 714 L244 702 Z " />
<glyph glyph-name="Lcommaaccent" unicode="&#x13b;" horiz-adv-x="555" d="M177 24 L302 645 L393 645 L398 669 C342 666 295 665 270 665 C233 665 189 666 124 669 L120 645 L205 645 L78 22 L-7 22 L-12 -2 C6 -1 18 -1 22 -1 L48 0 C123 2 144 2 155 2 L330 2 C348 2 355 2 463 -1 C468 -1 471 -1 496 -2 C500 38 523 153 534 184 L509 184 C468 66 418 27 302 24 L177 24 Z M156 -216 C219 -195 261 -146 261 -96 C261 -71 245 -53 223 -53 C197 -53 173 -75 173 -99 C173 -115 184 -126 200 -126 C205 -126 208 -126 210 -125 C221 -120 221 -120 222 -120 C224 -120 225 -122 225 -125 C225 -151 191 -190 155 -206 L156 -216 Z " />
<glyph glyph-name="lcommaaccent" unicode="&#x13c;" horiz-adv-x="305" d="M277 677 C198 668 187 667 112 667 L107 644 L185 649 L69 76 C62 44 61 38 61 32 C61 6 76 -5 109 -5 C119 -5 125 -5 159 -1 L227 5 L231 25 C215 24 202 23 194 23 C188 22 183 22 179 22 C161 22 151 31 151 47 C151 52 152 62 154 72 L277 677 Z M33 -212 C94 -192 135 -145 135 -95 C135 -70 120 -53 97 -53 C72 -53 49 -75 49 -98 C49 -114 60 -125 76 -125 L86 -124 C96 -118 96 -118 97 -118 C99 -118 100 -120 100 -124 C100 -149 67 -187 31 -204 L33 -212 Z " />
<glyph glyph-name="Lcaron" unicode="&#x13d;" horiz-adv-x="555" d="M177 24 L302 645 L393 645 L398 669 C342 666 295 665 270 665 C233 665 189 666 124 669 L120 645 L205 645 L78 22 L-7 22 L-12 -2 C6 -1 18 -1 22 -1 L48 0 C123 2 144 2 155 2 L330 2 C348 2 355 2 463 -1 C468 -1 471 -1 496 -2 C500 38 523 153 534 184 L509 184 C468 66 418 27 302 24 L177 24 Z M420 431 C512 466 571 533 571 601 C571 636 547 661 513 661 C481 661 458 638 458 607 C458 586 467 573 492 555 C505 546 509 540 509 531 C509 514 484 487 457 474 C430 461 415 453 411 451 L420 431 Z " />
<glyph glyph-name="lcaron" unicode="&#x13e;" horiz-adv-x="525" d="M277 677 C198 668 186 668 111 667 L107 644 L184 649 L68 76 C60 40 60 37 60 32 C60 6 75 -5 109 -5 C118 -5 125 -4 158 -1 L227 5 L230 25 C214 24 201 23 193 23 C187 22 182 22 178 22 C160 22 149 32 150 47 C150 53 152 62 154 72 L277 677 Z M390 431 C482 466 541 533 541 601 C541 636 517 661 483 661 C451 661 428 638 428 607 C428 586 437 573 462 555 C474 546 478 540 478 531 C478 514 454 488 426 474 L381 451 L390 431 Z " />
<glyph glyph-name="Ldot" unicode="&#x13f;" horiz-adv-x="555" d="M177 24 L302 645 L393 645 L398 669 C342 666 295 665 270 665 C233 665 189 666 124 669 L120 645 L205 645 L78 22 L-7 22 L-12 -2 C6 -1 18 -1 22 -1 L48 0 C123 2 144 2 155 2 L330 2 C348 2 355 2 463 -1 C468 -1 471 -1 496 -2 C500 38 523 153 534 184 L509 184 C468 66 418 27 302 24 L177 24 Z M384 396 C357 396 331 371 331 344 C331 324 346 309 366 309 C394 309 420 334 420 361 C420 381 405 396 384 396 L384 396 Z " />
<glyph glyph-name="ldot" unicode="&#x140;" horiz-adv-x="391" d="M277 677 C198 668 186 668 111 667 L107 644 L184 649 L68 76 C60 40 60 37 60 32 C60 6 75 -5 109 -5 C118 -5 125 -4 158 -1 L227 5 L230 25 C214 24 201 23 193 23 C187 22 182 22 178 22 C160 22 149 32 150 47 C150 53 152 62 154 72 L277 677 Z M387 396 C360 396 334 371 334 344 C334 324 349 309 369 309 C396 309 422 334 422 361 C422 381 407 396 387 396 L387 396 Z " />
<glyph glyph-name="Lslash" unicode="&#x141;" horiz-adv-x="555" d="M176 24 L234 310 L423 435 L430 469 L241 345 L302 645 L393 645 L398 669 C342 666 295 665 270 665 C233 665 189 666 124 669 L120 645 L205 645 L135 298 L36 231 L28 197 L127 264 L78 22 L-7 22 L-12 -2 C6 -1 18 -1 22 -1 L48 0 C123 2 144 2 155 2 L330 2 C348 2 355 2 463 -1 C468 -1 471 -1 496 -2 C500 38 523 153 534 184 L509 184 C468 66 418 27 302 24 L176 24 Z " />
<glyph glyph-name="lslash" unicode="&#x142;" horiz-adv-x="305" d="M215 370 L289 423 L296 455 L221 403 L277 677 C198 668 186 667 112 667 L107 644 L185 649 L127 362 L50 309 L43 276 L120 330 L68 76 C63 49 61 38 61 32 C61 6 76 -5 109 -5 C118 -5 124 -5 159 -1 L227 5 L231 25 L207 23 C202 22 197 22 187 22 C162 22 151 30 151 46 C151 53 152 62 154 72 L215 370 Z " />
<glyph glyph-name="Nacute" unicode="&#x143;" horiz-adv-x="726" d="M556 -7 L592 -7 L700 524 C705 551 713 583 730 645 L806 645 L812 669 C771 666 737 665 719 665 C692 665 660 666 613 669 L608 645 L691 645 C690 618 686 591 677 538 L594 131 L326 669 C286 666 253 665 236 665 C210 665 179 666 133 669 L128 645 L210 645 L113 141 C105 105 91 49 83 22 L2 22 L-3 -2 C37 1 70 2 87 2 C113 2 144 1 190 -2 L195 22 L121 22 C123 49 128 84 136 131 L235 638 L556 -7 Z M426 702 L517 742 C558 760 577 777 577 798 C577 818 561 832 539 832 C516 832 494 817 468 782 L416 714 L426 702 Z " />
<glyph glyph-name="nacute" unicode="&#x144;" horiz-adv-x="558" d="M221 423 C144 415 133 414 59 413 L54 390 L133 397 L70 88 C61 47 57 27 48 -3 L140 3 C142 19 142 20 147 49 L153 79 L171 161 C202 312 266 402 341 402 C381 402 404 379 404 340 C404 328 404 328 396 289 L352 76 C348 57 346 41 346 33 C346 10 361 -2 391 -2 C407 -2 431 -1 441 0 L503 5 L506 25 L477 23 C472 22 467 22 463 22 C445 22 435 31 435 47 C435 54 436 63 438 72 L480 281 C484 301 487 321 487 332 C487 391 441 430 372 430 C289 430 230 384 191 289 L221 423 Z M269 503 L390 595 C420 618 434 635 434 649 C434 664 416 675 393 675 C361 675 335 655 313 615 L258 513 L269 503 Z " />
<glyph glyph-name="Ncommaaccent" unicode="&#x145;" horiz-adv-x="726" d="M556 -7 L592 -7 L700 524 C705 551 713 583 730 645 L806 645 L812 669 C771 666 737 665 719 665 C692 665 660 666 613 669 L608 645 L691 645 C690 618 686 591 677 538 L594 131 L326 669 C286 666 253 665 236 665 C210 665 179 666 133 669 L128 645 L210 645 L113 141 C105 105 91 49 83 22 L2 22 L-3 -2 C37 1 70 2 87 2 C113 2 144 1 190 -2 L195 22 L121 22 C123 49 128 84 136 131 L235 638 L556 -7 Z M242 -216 C304 -195 346 -146 346 -96 C346 -71 330 -53 308 -53 C282 -53 258 -75 258 -99 C258 -115 269 -126 286 -126 C291 -126 294 -126 296 -125 C307 -120 307 -120 308 -120 C310 -120 311 -122 311 -125 C311 -151 277 -190 240 -206 L242 -216 Z " />
<glyph glyph-name="ncommaaccent" unicode="&#x146;" horiz-adv-x="558" d="M221 423 C144 415 133 414 59 413 L54 390 L133 397 L70 88 C61 47 57 27 48 -3 L140 3 C142 19 142 20 147 49 L153 79 L171 161 C202 312 266 402 341 402 C381 402 404 379 404 340 C404 328 404 328 396 289 L352 76 C348 57 346 41 346 33 C346 10 361 -2 391 -2 C407 -2 431 -1 441 0 L503 5 L506 25 L477 23 C472 22 467 22 463 22 C445 22 435 31 435 47 C435 54 436 63 438 72 L480 281 C484 301 487 321 487 332 C487 391 441 430 372 430 C289 430 230 384 191 289 L221 423 Z M159 -212 C220 -192 261 -145 261 -95 C261 -70 246 -53 224 -53 C199 -53 176 -75 176 -98 C176 -114 187 -125 202 -125 L212 -124 C222 -118 222 -118 223 -118 C225 -118 226 -120 226 -124 C226 -149 193 -187 158 -204 L159 -212 Z " />
<glyph glyph-name="Ncaron" unicode="&#x147;" horiz-adv-x="727" d="M556 -7 L592 -7 L700 524 C705 551 713 583 730 645 L806 645 L812 669 C771 666 737 665 719 665 C692 665 660 666 613 669 L608 645 L691 645 C690 618 686 591 677 538 L594 131 L326 669 C286 666 253 665 236 665 C210 665 179 666 133 669 L128 645 L210 645 L113 141 C105 105 91 49 83 22 L2 22 L-3 -2 C37 1 70 2 87 2 C113 2 144 1 190 -2 L195 22 L121 22 C123 49 128 84 136 131 L235 638 L556 -7 Z M348 822 L465 708 L481 708 L645 822 L637 835 L481 787 L350 835 L348 822 Z " />
<glyph glyph-name="ncaron" unicode="&#x148;" horiz-adv-x="558" d="M221 423 C144 415 133 414 59 413 L54 390 L133 397 L70 88 C61 47 57 27 48 -3 L140 3 C142 19 142 20 147 49 L153 79 L171 161 C202 312 266 402 341 402 C381 402 404 379 404 340 C404 328 404 328 396 289 L352 76 C348 57 346 41 346 33 C346 10 361 -2 391 -2 C407 -2 431 -1 441 0 L503 5 L506 25 L477 23 C472 22 467 22 463 22 C445 22 435 31 435 47 C435 54 436 63 438 72 L480 281 C484 301 487 321 487 332 C487 391 441 430 372 430 C289 430 230 384 191 289 L221 423 Z M205 674 L301 500 L322 500 L486 674 L476 684 L327 592 L215 684 L205 674 Z " />
<glyph glyph-name="napostrophe" unicode="&#x149;" horiz-adv-x="778" d="M86 431 C178 466 237 533 237 601 C237 636 213 661 179 661 C147 661 124 638 124 607 C124 586 132 573 158 555 C170 546 174 540 174 531 C174 514 150 488 122 474 L85 455 L77 451 L86 431 Z M441 423 C364 415 353 414 279 413 L274 390 L353 397 L290 88 C281 46 277 30 268 -3 L360 3 C362 20 362 21 367 49 L373 79 L391 161 C422 312 486 402 561 402 C601 402 624 379 624 340 C624 328 624 328 616 289 L572 76 C568 57 566 41 566 33 C566 10 581 -2 611 -2 C627 -2 651 -1 661 0 L723 5 L727 25 L697 23 C692 22 687 22 683 22 C665 22 655 31 655 47 C655 54 656 63 658 72 L700 281 C704 301 707 321 707 332 C707 391 661 430 592 430 C509 430 450 384 411 289 L441 423 Z " />
<glyph glyph-name="Eng" unicode="&#x14a;" horiz-adv-x="659" d="M277 661 L110 661 L105 638 L120 638 C152 638 166 628 166 604 C166 590 165 587 156 539 L71 124 C55 37 45 24 -4 23 L-20 23 L-25 0 L216 0 L220 23 L193 23 C168 23 157 32 157 51 C157 65 160 86 168 123 L226 412 C245 481 262 514 297 550 C342 595 389 618 438 618 C505 618 549 578 549 517 C549 503 547 491 540 457 L445 -14 C434 -65 412 -136 400 -157 C377 -197 363 -210 344 -210 C330 -210 322 -202 322 -189 C322 -185 324 -173 325 -168 C330 -152 332 -143 332 -136 C332 -112 318 -97 298 -97 C264 -97 235 -132 235 -173 C235 -222 274 -254 332 -254 C390 -254 440 -225 479 -168 C512 -118 532 -62 556 60 L630 420 C637 454 641 487 641 504 C641 548 624 599 600 626 C574 655 531 673 485 673 C395 673 306 619 250 531 L277 661 Z " />
<glyph glyph-name="eng" unicode="&#x14b;" horiz-adv-x="513" d="M203 469 L70 469 L67 450 L72 450 C97 450 107 443 107 425 C107 416 106 408 100 380 L41 90 C30 29 22 20 -16 19 L-21 19 L-25 0 L155 0 L159 19 L147 19 C126 19 118 25 118 40 C118 50 119 60 126 90 L167 291 C180 340 192 363 217 390 C250 425 288 443 325 443 C374 443 407 413 407 367 C407 356 405 341 402 323 L330 -28 C310 -128 289 -166 254 -166 C244 -166 239 -161 239 -152 C239 -148 240 -142 241 -138 C245 -125 246 -121 246 -115 C246 -99 234 -88 217 -88 C190 -88 168 -111 168 -139 C168 -176 199 -198 250 -198 C300 -198 337 -179 368 -137 C394 -102 408 -63 425 24 L481 298 C486 322 489 346 489 360 C489 433 439 482 366 482 C294 482 226 443 184 376 L203 469 Z " />
<glyph glyph-name="Omacron" unicode="&#x14c;" horiz-adv-x="753" d="M452 684 C243 684 90 507 90 267 C90 91 194 -17 364 -17 C472 -17 571 32 631 115 C687 192 724 307 724 401 C724 579 623 684 452 684 L452 684 Z M457 662 C563 662 625 583 625 448 C625 368 595 236 559 160 C512 58 441 4 355 4 C252 4 186 86 186 216 C186 318 223 461 270 540 C318 620 382 662 457 662 L457 662 Z M353 785 L344 742 L600 742 L609 785 L353 785 Z " />
<glyph glyph-name="omacron" unicode="&#x14d;" horiz-adv-x="518" d="M285 434 C205 434 134 397 94 333 C63 283 45 216 45 152 C45 50 116 -13 231 -13 C306 -13 371 17 411 68 C448 117 473 192 473 256 C473 370 406 434 285 434 L285 434 Z M298 415 C355 415 384 375 384 298 C384 247 369 171 349 123 C317 45 276 7 221 7 C166 7 133 48 133 115 C133 180 156 277 183 329 C214 386 252 415 298 415 L298 415 Z M235 622 L226 573 L482 573 L491 622 L235 622 Z " />
<glyph glyph-name="Ohungarumlaut" unicode="&#x150;" horiz-adv-x="753" d="M452 684 C243 684 90 507 90 267 C90 91 194 -17 364 -17 C472 -17 571 32 631 115 C687 192 724 307 724 401 C724 579 623 684 452 684 L452 684 Z M457 662 C563 662 625 583 625 448 C625 368 595 236 559 160 C512 58 441 4 355 4 C252 4 186 86 186 216 C186 318 223 461 270 540 C318 620 382 662 457 662 L457 662 Z M395 708 L503 742 C541 753 560 769 560 790 C560 807 543 821 522 821 C497 821 467 806 444 782 L386 721 L395 708 Z M598 708 L706 742 C745 754 764 769 764 790 C764 807 747 821 726 821 C701 821 670 806 647 782 L589 721 L598 708 Z " />
<glyph glyph-name="ohungarumlaut" unicode="&#x151;" horiz-adv-x="519" d="M285 434 C205 434 134 397 94 333 C63 283 45 216 45 152 C45 50 116 -13 231 -13 C306 -13 371 17 411 68 C448 117 473 192 473 256 C473 370 406 434 285 434 L285 434 Z M298 415 C355 415 384 375 384 297 C384 247 369 171 349 123 C317 45 276 7 221 7 C166 7 133 48 133 115 C133 180 156 277 183 329 C214 386 252 415 298 415 L298 415 Z M244 493 L354 596 C373 613 387 636 387 647 C387 662 371 674 349 674 C312 674 287 651 265 596 L228 506 L244 493 Z M413 493 L523 596 C543 615 557 635 557 647 C557 662 541 674 519 674 C481 674 456 651 434 596 L397 506 L413 493 Z " />
<glyph glyph-name="OE" unicode="&#x152;" horiz-adv-x="1004" d="M637 329 L704 329 C783 329 818 304 818 247 C818 237 817 230 815 216 L841 216 L843 228 C848 260 854 291 859 322 L887 443 L890 457 L865 457 C839 372 810 352 718 353 L642 353 L701 643 L817 643 C896 643 930 635 956 609 C974 592 983 567 983 537 C983 527 982 516 980 495 L1004 495 L1006 506 L1019 573 L1034 648 C1035 649 1036 657 1038 669 C971 665 947 665 742 665 C724 665 665 667 603 670 C557 673 518 674 490 674 C350 674 247 637 171 559 C103 490 64 387 64 279 C64 198 88 124 130 76 C179 19 254 -7 365 -7 C393 -7 431 -6 468 -5 C508 -3 548 -2 554 -2 L916 -2 L917 7 L925 47 C929 72 933 92 936 108 C942 136 944 143 953 182 L928 182 C887 61 834 24 703 23 L575 23 L637 329 Z M477 23 C448 18 431 17 402 17 C319 17 271 33 229 75 C187 117 166 176 166 253 C166 339 189 432 227 500 C286 604 374 649 520 649 C549 649 568 648 603 643 L477 23 Z " />
<glyph glyph-name="oe" unicode="&#x153;" horiz-adv-x="808" d="M687 214 C749 214 763 228 763 286 C763 375 703 430 604 430 C525 430 468 401 438 347 C413 403 367 430 295 430 C221 430 159 403 115 351 C76 305 52 234 52 168 C52 59 121 -8 233 -8 C308 -8 356 16 396 74 C429 16 477 -13 543 -13 C626 -13 687 30 730 120 L710 129 C678 56 619 12 553 12 C489 12 453 57 453 136 C453 162 456 185 462 214 L687 214 Z M297 412 C350 412 379 373 379 301 C379 234 357 146 327 90 C300 39 266 13 226 13 C171 13 140 55 140 129 C140 276 216 412 297 412 L297 412 Z M467 235 C489 350 538 412 607 412 C655 412 680 381 680 321 C680 290 673 263 661 250 C650 239 635 235 600 235 L467 235 Z " />
<glyph glyph-name="Racute" unicode="&#x154;" horiz-adv-x="651" d="M118 645 L202 645 L75 22 L-9 22 L-14 -2 C41 1 87 2 111 2 C147 2 190 1 253 -2 L258 22 L172 22 L231 313 L280 313 C422 309 450 282 446 159 L444 111 L444 93 C444 50 447 28 459 -2 C492 1 520 2 534 2 C556 2 582 1 620 -2 L625 24 L604 24 C555 24 539 43 539 101 L539 117 L540 175 L540 180 C541 278 497 318 383 324 C444 331 478 340 512 357 C576 388 610 440 610 505 C610 569 573 624 517 645 C477 660 422 667 358 666 C280 665 280 665 267 665 C181 665 172 665 122 669 L118 645 Z M236 337 L298 643 L333 643 C466 643 514 611 514 521 C514 462 489 406 449 376 C412 349 361 337 284 337 L236 337 Z M313 702 L404 742 C446 760 464 777 464 798 C464 818 448 832 426 832 C403 832 381 817 354 782 L303 714 L313 702 Z " />
<glyph glyph-name="racute" unicode="&#x155;" horiz-adv-x="418" d="M216 423 C140 415 128 414 54 413 L49 390 L129 397 L66 88 C57 47 53 27 44 -3 L140 3 C141 19 144 46 150 79 L168 164 C195 292 268 402 327 402 C341 402 351 393 351 381 C351 376 349 369 347 363 C338 341 337 339 337 329 C337 308 354 294 379 294 C414 294 435 318 435 357 C435 402 404 430 353 430 C282 430 227 380 186 281 L216 423 Z M199 503 L319 595 C348 617 363 635 363 649 C363 664 345 675 322 675 C291 675 265 656 243 615 L188 513 L199 503 Z " />
<glyph glyph-name="Rcommaaccent" unicode="&#x156;" horiz-adv-x="651" d="M118 645 L202 645 L75 22 L-9 22 L-14 -2 C41 1 87 2 111 2 C147 2 190 1 253 -2 L258 22 L172 22 L231 313 L280 313 C422 309 450 282 446 159 L444 111 L444 93 C444 50 447 28 459 -2 C492 1 520 2 534 2 C556 2 582 1 620 -2 L625 24 L604 24 C555 24 539 43 539 101 L539 117 L540 175 L540 180 C541 278 497 318 383 324 C444 331 478 340 512 357 C576 388 610 440 610 505 C610 569 573 624 517 645 C477 660 422 667 358 666 C280 665 280 665 267 665 C181 665 172 665 122 669 L118 645 Z M236 337 L298 643 L333 643 C466 643 514 611 514 521 C514 462 489 406 449 376 C412 349 361 337 284 337 L236 337 Z M257 -216 C319 -195 361 -146 361 -96 C361 -71 345 -53 323 -53 C297 -53 274 -75 274 -99 C274 -115 285 -126 301 -126 C306 -126 309 -126 311 -125 C322 -120 322 -120 323 -120 C325 -120 326 -122 326 -125 C326 -151 292 -190 255 -206 L257 -216 Z " />
<glyph glyph-name="rcommaaccent" unicode="&#x157;" horiz-adv-x="418" d="M216 423 C140 415 129 414 54 413 L50 390 L129 397 L66 88 C58 47 53 27 44 -3 L140 3 C141 19 145 46 150 79 L168 164 C195 292 269 402 328 402 C342 402 352 393 352 381 C352 376 350 369 348 363 C339 341 338 339 338 329 C338 308 355 294 380 294 C415 294 436 318 436 357 C436 402 405 430 354 430 C283 430 227 380 187 281 L216 423 Z M21 -212 C82 -192 123 -145 123 -95 C123 -70 108 -53 85 -53 C60 -53 37 -75 37 -98 C37 -114 48 -125 64 -125 L74 -124 C84 -118 84 -118 85 -118 C87 -118 88 -120 88 -124 C88 -149 55 -187 19 -204 L21 -212 Z " />
<glyph glyph-name="Rcaron" unicode="&#x158;" horiz-adv-x="651" d="M118 645 L202 645 L75 22 L-9 22 L-14 -2 C41 1 87 2 111 2 C147 2 190 1 253 -2 L258 22 L172 22 L231 313 L280 313 C422 309 450 282 446 159 L444 111 L444 93 C444 50 447 28 459 -2 C492 1 520 2 534 2 C556 2 582 1 620 -2 L625 24 L604 24 C555 24 539 43 539 101 L539 117 L540 175 L540 180 C541 278 497 318 383 324 C444 331 478 340 512 357 C576 388 610 440 610 505 C610 569 573 624 517 645 C477 660 422 667 358 666 C280 665 280 665 267 665 C181 665 172 665 122 669 L118 645 Z M236 337 L298 643 L333 643 C466 643 514 611 514 521 C514 462 489 406 449 376 C412 349 361 337 284 337 L236 337 Z M199 822 L316 708 L332 708 L496 822 L489 835 L332 787 L202 835 L199 822 Z " />
<glyph glyph-name="rcaron" unicode="&#x159;" horiz-adv-x="418" d="M216 423 C140 415 128 414 54 413 L49 390 L129 397 L66 88 C57 46 53 30 44 -3 L140 3 C141 19 144 44 150 79 L168 164 C195 292 268 402 327 402 C341 402 351 393 351 381 C351 376 349 369 347 363 C338 342 337 339 337 330 C337 308 353 294 379 294 C414 294 435 318 435 357 C435 403 404 430 353 430 C282 430 227 380 186 281 L216 423 Z M135 674 L231 500 L252 500 L416 674 L406 684 L257 592 L145 684 L135 674 Z " />
<glyph glyph-name="Sacute" unicode="&#x15a;" horiz-adv-x="562" d="M64 205 C58 151 41 65 26 11 C32 11 36 11 38 10 L69 9 C75 8 104 4 125 0 C182 -10 208 -13 247 -13 C392 -13 494 70 494 188 C494 254 464 303 395 348 L295 414 C224 461 203 488 203 538 C203 611 260 660 344 660 C440 660 495 607 495 517 C495 511 493 492 492 477 L517 477 C523 525 534 589 549 660 C513 663 486 666 468 668 C411 677 381 680 347 680 C209 680 114 607 114 500 C114 441 143 394 205 353 L318 278 C382 235 406 199 406 147 C406 64 341 7 247 7 C148 7 84 68 84 161 C84 169 86 189 88 205 L64 205 Z M344 702 L435 742 C476 760 495 777 495 798 C495 817 479 832 457 832 C434 832 412 817 385 782 L334 714 L344 702 Z " />
<glyph glyph-name="sacute" unicode="&#x15b;" horiz-adv-x="416" d="M229 263 C169 295 154 311 154 343 C154 384 192 413 245 413 C288 413 319 397 319 375 C319 370 318 362 315 354 C312 343 310 333 310 326 C310 305 326 293 352 293 C382 293 398 309 398 338 C398 392 338 430 251 430 C159 430 93 376 93 303 C93 252 116 222 183 185 L227 161 C274 134 292 112 292 79 C292 37 250 6 194 6 C147 6 112 24 112 48 C112 55 113 63 116 71 C122 90 123 95 123 100 C123 122 108 134 80 134 C49 134 31 117 31 87 C31 30 98 -13 188 -13 C290 -13 360 42 360 123 C360 171 335 205 278 236 L229 263 Z M265 503 L385 595 C417 619 430 635 430 649 C430 664 412 675 389 675 C357 675 331 655 309 615 L254 513 L265 503 Z " />
<glyph glyph-name="Scircumflex" unicode="&#x15c;" horiz-adv-x="562" d="M64 205 C58 151 41 65 26 11 C32 11 36 11 38 10 L69 9 C75 8 104 4 125 0 C182 -10 208 -13 247 -13 C392 -13 494 70 494 188 C494 254 464 303 395 348 L295 414 C224 461 203 488 203 538 C203 611 260 660 344 660 C440 660 495 607 495 517 C495 511 493 492 492 477 L517 477 C523 525 534 589 549 660 C513 663 486 666 468 668 C411 677 381 680 347 680 C209 680 114 607 114 500 C114 441 143 394 205 353 L318 278 C382 235 406 199 406 147 C406 64 341 7 247 7 C148 7 84 68 84 161 C84 169 86 189 88 205 L64 205 Z M530 720 L413 835 L397 835 L232 720 L240 708 L397 756 L527 708 L530 720 Z " />
<glyph glyph-name="scircumflex" unicode="&#x15d;" horiz-adv-x="416" d="M229 263 C169 295 154 311 154 344 C154 384 193 413 246 413 C288 413 319 397 319 375 C319 370 318 362 315 354 C312 344 310 333 310 328 C310 306 325 293 351 293 C382 293 398 308 398 338 C398 392 338 430 251 430 C159 430 93 376 93 303 C93 252 116 222 183 185 L227 161 C274 135 292 112 292 79 C292 37 250 6 194 6 C148 6 112 24 112 48 C112 55 113 63 116 71 C122 89 123 95 123 100 C123 122 108 134 80 134 C49 134 31 117 31 87 C31 30 98 -13 188 -13 C290 -13 360 42 360 123 C360 171 335 205 278 236 L229 263 Z M416 511 L320 684 L299 684 L135 511 L145 500 L294 592 L406 500 L416 511 Z " />
<glyph glyph-name="Scedilla" unicode="&#x15e;" horiz-adv-x="612" d="M1 0 L20 0 C36 30 54 44 75 44 C86 44 95 41 114 32 C171 5 202 -4 264 -9 C243 -32 210 -61 185 -79 L198 -79 C235 -79 257 -93 257 -115 C257 -153 214 -174 133 -174 L111 -174 L107 -194 C122 -196 132 -196 149 -196 C220 -196 256 -190 283 -175 C308 -160 326 -133 326 -109 C326 -78 304 -61 252 -54 L295 -9 C459 -7 575 88 575 220 C575 290 530 338 436 370 C286 420 281 422 250 440 C214 462 199 484 199 514 C199 589 283 648 390 648 C506 648 585 584 585 490 L584 468 L602 468 L643 667 L624 667 C615 636 604 625 583 625 C575 625 566 628 556 632 C483 668 451 676 384 676 C298 676 229 653 177 607 C134 569 108 516 108 464 C108 396 156 346 255 312 C406 260 408 259 435 242 C467 221 482 196 482 164 C482 83 396 22 283 22 C203 22 135 52 100 101 C81 129 73 161 71 229 L52 229 L1 0 Z " />
<glyph glyph-name="scedilla" unicode="&#x15f;" horiz-adv-x="387" d="M393 453 L380 453 C367 426 361 419 351 419 C346 419 343 421 332 430 C303 454 277 463 240 463 C146 463 62 391 62 310 C62 286 71 263 86 247 C105 225 116 219 192 184 C247 158 268 138 268 108 C268 56 223 15 165 15 C96 15 40 69 40 135 L40 140 L23 141 L-6 0 L8 0 C16 21 25 31 38 31 C45 31 52 28 73 16 C102 0 116 -4 154 -9 C130 -35 119 -46 82 -80 C126 -80 148 -92 148 -115 C148 -150 105 -167 13 -168 L10 -185 C21 -186 31 -186 49 -186 C111 -186 139 -182 165 -168 C191 -155 209 -129 209 -107 C209 -77 189 -62 140 -55 L183 -8 C218 -2 258 15 285 37 C319 65 344 115 344 157 C344 213 317 239 209 286 C150 313 132 329 132 358 C132 401 178 439 232 439 C302 439 343 398 348 323 L366 321 L393 453 Z " />
<glyph glyph-name="Scaron" unicode="&#x160;" horiz-adv-x="562" d="M64 205 C58 151 41 65 26 11 C32 11 36 11 38 10 L69 9 C75 8 104 4 125 0 C182 -10 208 -13 247 -13 C392 -13 494 70 494 188 C494 254 464 303 395 348 L295 414 C224 461 203 488 203 538 C203 611 260 660 344 660 C440 660 495 607 495 517 C495 511 493 492 492 477 L517 477 C523 525 534 589 549 660 C513 663 486 666 468 668 C411 677 381 680 347 680 C209 680 114 607 114 500 C114 441 143 394 205 353 L318 278 C382 235 406 199 406 147 C406 64 341 7 247 7 C148 7 84 68 84 161 C84 169 86 189 88 205 L64 205 Z M202 822 L319 708 L335 708 L499 822 L492 835 L335 787 L205 835 L202 822 Z " />
<glyph glyph-name="scaron" unicode="&#x161;" horiz-adv-x="416" d="M229 263 C169 295 154 311 154 344 C154 384 193 413 245 413 C288 413 319 397 319 375 C319 370 318 363 315 354 C312 344 310 334 310 328 C310 305 325 293 352 293 C382 293 398 309 398 338 C398 392 338 430 251 430 C160 430 93 376 93 303 C93 252 116 222 183 185 L227 161 C274 134 292 112 292 78 C292 37 250 6 194 6 C147 6 112 24 112 48 C112 55 113 63 116 71 C122 89 123 95 123 100 C123 122 108 134 80 134 C49 134 31 117 31 87 C31 30 98 -13 188 -13 C290 -13 360 42 360 123 C360 171 335 205 278 236 L229 263 Z M168 674 L264 500 L285 500 L449 674 L439 684 L290 592 L177 684 L168 674 Z " />
<glyph glyph-name="Tcommaaccent" unicode="&#x162;" horiz-adv-x="612" d="M442 643 L504 643 C594 643 631 614 631 541 C631 524 630 510 625 483 L650 483 C655 518 660 548 666 571 L684 656 L687 669 C664 668 657 668 654 668 L627 667 C551 665 532 665 520 665 L274 665 C255 665 249 665 141 668 C138 668 125 668 108 669 C98 609 94 587 92 577 C80 526 73 495 71 483 L95 483 C121 593 189 645 304 643 L344 643 L218 22 L134 22 L129 -2 C184 1 230 2 254 2 C290 2 333 1 396 -2 L400 22 L316 22 L442 643 Z M184 -216 C246 -195 288 -146 288 -96 C288 -71 272 -53 250 -53 C224 -53 201 -75 201 -99 C201 -115 212 -126 228 -126 C233 -126 236 -126 238 -125 C249 -120 249 -120 250 -120 C252 -120 253 -122 253 -125 C253 -151 219 -190 183 -206 L184 -216 Z " />
<glyph glyph-name="tcommaaccent" unicode="&#x163;" horiz-adv-x="334" d="M244 570 L221 570 C198 482 130 424 44 420 L40 400 L123 400 L67 125 C63 108 61 89 61 75 C61 20 100 -13 165 -13 C234 -13 279 22 300 90 L279 95 C265 43 232 12 189 12 C160 12 142 28 142 52 C142 65 144 81 152 117 L209 400 L320 400 L324 420 L213 420 L244 570 Z M47 -212 C108 -192 149 -145 149 -95 C149 -70 134 -53 112 -53 C86 -53 63 -74 63 -98 C63 -114 74 -125 90 -125 L100 -124 C110 -118 110 -118 112 -118 C113 -118 114 -120 114 -124 C114 -149 81 -187 45 -204 L47 -212 Z " />
<glyph glyph-name="Tcaron" unicode="&#x164;" horiz-adv-x="612" d="M442 643 L504 643 C594 643 631 614 631 541 C631 524 630 510 625 483 L650 483 C655 518 660 548 666 571 L684 656 L687 669 C664 668 657 668 654 668 L627 667 C551 665 532 665 520 665 L274 665 C255 665 249 665 141 668 C138 668 125 668 108 669 C98 609 94 587 92 577 C80 526 73 495 71 483 L95 483 C121 593 189 645 304 643 L344 643 L218 22 L134 22 L129 -2 C184 1 230 2 254 2 C290 2 333 1 396 -2 L400 22 L316 22 L442 643 Z M290 822 L407 708 L423 708 L588 822 L580 835 L423 787 L293 835 L290 822 Z " />
<glyph glyph-name="tcaron" unicode="&#x165;" horiz-adv-x="554" d="M244 570 L221 570 C198 482 130 424 44 420 L40 400 L123 400 L67 125 C63 108 61 89 61 75 C61 20 100 -13 165 -13 C234 -13 279 22 300 90 L279 95 C265 43 232 12 189 12 C160 12 142 28 142 52 C142 65 144 81 152 117 L209 400 L320 400 L324 420 L213 420 L244 570 Z M420 431 C511 467 570 533 570 601 C570 636 546 661 512 661 C481 661 458 638 458 607 C458 586 466 573 492 555 C504 546 508 540 508 531 C508 514 483 487 456 474 L411 451 L420 431 Z " />
<glyph glyph-name="Tbar" unicode="&#x166;" horiz-adv-x="580" d="M273 363 L219 99 C207 32 194 19 134 19 L96 19 L92 0 L406 0 L410 19 L372 19 C329 19 313 28 313 54 C313 61 316 84 319 99 L373 363 L547 363 L553 392 L379 392 L430 642 L495 642 C527 642 552 639 569 633 C597 624 614 596 614 560 C614 543 613 531 608 503 L628 503 L661 667 L108 667 L75 503 L95 503 C119 610 160 643 265 642 L330 642 L279 392 L105 392 L99 363 L273 363 Z " />
<glyph glyph-name="tbar" unicode="&#x167;" horiz-adv-x="279" d="M195 307 L219 424 L307 424 L314 457 L225 457 L258 619 L239 619 C192 509 150 462 83 443 L79 424 L134 424 L110 307 L57 307 L51 277 L104 277 L72 120 C64 82 63 74 63 57 C63 14 89 -10 133 -10 C177 -10 213 12 247 58 L234 70 C209 39 191 26 172 26 C157 26 147 38 147 57 C147 68 149 81 154 107 L189 277 L251 277 L257 307 L195 307 Z " />
<glyph glyph-name="utilde" unicode="&#x169;" horiz-adv-x="528" d="M490 423 C411 415 400 414 325 413 L320 390 L399 397 L374 274 C362 214 335 143 309 97 C276 40 242 14 200 14 C166 14 145 33 145 66 C145 84 147 100 157 147 L213 423 C134 415 122 414 46 413 L41 390 L122 397 L67 128 C63 108 61 90 61 74 C61 23 107 -13 173 -13 C228 -13 273 11 305 56 C321 80 330 97 350 141 L336 76 C332 57 330 41 330 32 C330 9 345 -5 370 -5 C376 -5 387 -4 423 -2 L491 2 L495 22 L456 20 L443 20 C425 20 416 29 416 47 C416 56 417 63 419 72 L490 423 Z M479 666 C470 616 456 595 429 595 C415 595 401 602 381 618 L357 637 C330 659 310 668 288 668 C236 668 202 622 190 532 L210 532 C218 582 235 606 260 606 C273 606 291 597 305 582 L322 565 C345 542 373 529 398 529 C453 529 494 586 498 666 L479 666 Z " />
<glyph glyph-name="Umacron" unicode="&#x16a;" horiz-adv-x="695" d="M177 645 L106 296 C97 254 91 207 91 184 C91 67 191 -13 336 -13 C487 -13 566 60 601 230 L660 519 C673 584 680 610 690 645 L760 645 L766 669 C728 666 696 665 679 665 C654 665 624 666 581 669 L576 645 L649 645 C644 593 636 539 620 460 L581 269 C563 182 550 143 527 104 C493 48 430 16 356 16 C250 16 190 75 190 180 C190 211 197 263 209 323 L275 645 L355 645 L360 669 C306 666 260 665 236 665 C200 665 157 666 95 669 L90 645 L177 645 Z M353 785 L345 742 L601 742 L610 785 L353 785 Z " />
<glyph glyph-name="umacron" unicode="&#x16b;" horiz-adv-x="528" d="M490 423 C411 415 400 414 325 413 L320 390 L399 397 L374 274 C362 214 335 143 309 97 C276 40 242 14 200 14 C166 14 145 33 145 66 C145 84 147 100 157 147 L213 423 C134 415 122 414 46 413 L41 390 L122 397 L67 128 C63 108 61 90 61 74 C61 23 107 -13 173 -13 C228 -13 273 11 305 56 C321 80 330 97 350 141 L336 76 C332 57 330 41 330 32 C330 9 345 -5 370 -5 C376 -5 387 -4 423 -2 L491 2 L495 22 L456 20 L443 20 C425 20 416 29 416 47 C416 56 417 63 419 72 L490 423 Z M184 622 L175 573 L431 573 L440 622 L184 622 Z " />
<glyph glyph-name="ubreve" unicode="&#x16d;" horiz-adv-x="528" d="M490 423 C411 415 400 414 325 413 L320 390 L399 397 L374 274 C362 214 335 143 309 97 C276 40 242 14 200 14 C166 14 145 33 145 66 C145 84 147 100 157 147 L213 423 C134 415 122 414 46 413 L41 390 L122 397 L67 128 C63 108 61 90 61 74 C61 23 107 -13 173 -13 C228 -13 273 11 305 56 C321 80 330 97 350 141 L336 76 C332 57 330 41 330 32 C330 9 345 -5 370 -5 C376 -5 387 -4 423 -2 L491 2 L495 22 L456 20 L443 20 C425 20 416 29 416 47 C416 56 417 63 419 72 L490 423 Z M466 665 C460 645 455 635 444 624 C427 607 375 596 318 596 C238 596 199 618 195 665 L178 665 C177 659 177 651 177 648 C177 578 232 532 316 532 C408 532 471 582 485 665 L466 665 Z " />
<glyph glyph-name="Uring" unicode="&#x16e;" horiz-adv-x="695" d="M177 645 L106 296 C97 254 91 207 91 184 C91 67 191 -13 336 -13 C487 -13 566 60 601 230 L660 519 C673 584 680 610 690 645 L760 645 L766 669 C728 666 696 665 679 665 C654 665 624 666 581 669 L576 645 L649 645 C644 593 636 539 620 460 L581 269 C563 182 550 143 527 104 C493 48 430 16 356 16 C250 16 190 75 190 180 C190 211 197 263 209 323 L275 645 L355 645 L360 669 C306 666 260 665 236 665 C200 665 157 666 95 669 L90 645 L177 645 Z M480 856 C441 856 408 823 408 784 C408 745 443 712 484 712 C522 712 555 744 555 781 C555 821 520 856 480 856 L480 856 Z M481 833 C508 833 531 809 531 782 C531 757 509 735 484 735 C456 735 433 758 433 784 C433 811 455 833 481 833 L481 833 Z " />
<glyph glyph-name="uring" unicode="&#x16f;" horiz-adv-x="528" d="M490 423 C411 415 400 414 325 413 L320 390 L399 397 L374 274 C362 214 335 143 309 97 C276 40 242 14 200 14 C166 14 145 33 145 66 C145 84 147 100 157 147 L213 423 C134 415 122 414 46 413 L41 390 L122 397 L67 128 C63 108 61 90 61 74 C61 23 107 -13 173 -13 C228 -13 273 11 305 56 C321 80 330 97 350 141 L336 76 C332 57 330 41 330 32 C330 9 345 -5 370 -5 C376 -5 387 -4 423 -2 L491 2 L495 22 L456 20 L443 20 C425 20 416 29 416 47 C416 56 417 63 419 72 L490 423 Z M330 671 C289 671 256 637 256 597 C256 557 292 523 334 523 C372 523 406 556 406 594 C406 635 370 671 330 671 L330 671 Z M331 651 C359 651 385 625 385 595 C385 567 361 543 332 543 C303 543 278 567 278 596 C278 626 302 651 331 651 L331 651 Z " />
<glyph glyph-name="Uhungarumlaut" unicode="&#x170;" horiz-adv-x="695" d="M177 645 L106 296 C97 254 91 207 91 184 C91 67 191 -13 337 -13 C487 -13 566 60 601 230 L660 519 C673 584 680 610 690 645 L760 645 L766 669 C728 666 696 665 679 665 C654 665 624 666 581 669 L576 645 L649 645 C644 593 636 539 620 460 L581 269 C563 181 550 143 527 104 C493 48 430 16 356 16 C250 16 190 75 190 180 C190 211 197 263 209 323 L275 645 L355 645 L360 669 C306 666 260 665 236 665 C200 665 157 666 95 669 L90 645 L177 645 Z M333 708 L441 742 C479 753 498 769 498 790 C498 807 481 821 460 821 C435 821 405 806 382 782 L324 721 L333 708 Z M537 708 L644 742 C683 754 702 769 702 790 C702 807 685 821 664 821 C639 821 609 806 585 782 L527 721 L537 708 Z " />
<glyph glyph-name="uhungarumlaut" unicode="&#x171;" horiz-adv-x="528" d="M490 423 C411 415 400 414 325 413 L320 390 L399 397 L374 274 C362 214 335 143 309 97 C276 40 242 14 200 14 C166 14 145 33 145 66 C145 84 147 100 157 147 L213 423 C134 415 122 414 46 413 L41 390 L122 397 L67 128 C63 108 61 91 61 75 C61 23 107 -13 173 -13 C228 -13 273 11 305 56 C321 80 331 98 350 141 L336 76 C332 58 330 41 330 32 C330 9 345 -5 370 -5 C376 -5 387 -4 423 -2 L491 2 L495 22 L456 20 L443 20 C425 20 416 29 416 47 C416 56 417 63 419 72 L490 423 Z M215 493 L326 596 C345 614 359 636 359 647 C359 662 343 674 321 674 C284 674 259 651 236 596 L200 506 L215 493 Z M385 493 L495 596 C514 613 528 635 528 647 C528 662 512 674 490 674 C453 674 428 651 406 596 L369 506 L385 493 Z " />
<glyph glyph-name="Uogonek" unicode="&#x172;" horiz-adv-x="695" d="M760 645 L766 669 C728 666 696 665 679 665 C654 665 624 666 581 669 L576 645 L649 645 C644 593 636 539 620 460 L581 269 C563 182 550 143 527 104 C493 48 430 16 356 16 C249 16 190 75 190 182 C190 212 197 264 209 323 L275 645 L355 645 L360 669 C306 666 260 665 236 665 C200 665 157 666 95 669 L90 645 L177 645 L106 296 C97 254 91 207 91 184 C91 68 191 -13 335 -13 C351 -13 364 -12 382 -10 C335 -40 310 -79 310 -121 C310 -165 342 -190 397 -190 C432 -190 459 -183 490 -165 L487 -156 C470 -161 461 -163 445 -163 C391 -163 364 -144 364 -104 C364 -89 367 -74 374 -58 C385 -32 403 -17 454 9 C538 49 573 102 601 230 L660 519 C673 584 680 610 690 645 L760 645 Z " />
<glyph glyph-name="uogonek" unicode="&#x173;" horiz-adv-x="528" d="M491 2 L495 22 L456 20 L442 20 C425 20 416 30 416 47 C416 56 417 63 419 72 L490 423 C411 415 400 414 325 413 L320 390 L399 397 L374 274 C362 214 335 143 309 97 C276 40 242 14 200 14 C166 14 145 34 145 66 C145 84 147 100 157 147 L213 423 C134 415 122 414 46 413 L41 390 L122 397 L67 128 C63 108 61 90 61 74 C61 23 107 -13 173 -13 C228 -13 273 11 305 56 C321 80 330 97 350 141 L336 76 C332 57 330 41 330 32 C330 9 345 -5 370 -5 C376 -5 376 -5 423 -2 L447 -1 C389 -29 355 -74 355 -121 C355 -164 386 -188 440 -188 C474 -188 501 -181 530 -164 L527 -154 C510 -160 501 -161 486 -161 C435 -161 408 -142 408 -105 C408 -61 429 -30 479 1 L491 2 Z " />
<glyph glyph-name="Wcircumflex" unicode="&#x174;" horiz-adv-x="1037" d="M663 -7 L696 -7 L989 531 C994 540 999 549 1003 558 C1012 574 1020 587 1025 596 C1036 614 1041 623 1055 645 L1102 645 L1107 669 C1072 666 1043 665 1028 665 C1005 665 977 666 937 669 L932 645 L1012 645 C1003 623 976 564 958 531 L739 124 L654 674 L621 674 L326 124 L245 645 L325 645 L331 669 C275 666 238 665 206 665 C185 665 145 666 98 669 L93 645 L147 645 L251 -7 L282 -7 L575 533 L663 -7 Z M787 720 L670 835 L654 835 L490 720 L498 708 L654 756 L785 708 L787 720 Z " />
<glyph glyph-name="Ycircumflex" unicode="&#x176;" horiz-adv-x="645" d="M390 280 L588 546 C610 575 642 614 669 645 L716 645 L721 669 C685 666 655 665 639 665 C616 665 588 666 547 669 L542 645 L620 645 C600 608 595 601 541 525 L381 310 L254 645 L339 645 L344 669 C287 666 248 665 216 665 C194 665 153 666 104 669 L99 645 L151 645 L291 280 L238 22 L155 22 L150 -2 C203 1 248 2 272 2 C307 2 349 1 410 -2 L415 22 L337 22 L390 280 Z M604 720 L488 835 L472 835 L307 720 L315 708 L471 756 L602 708 L604 720 Z " />
<glyph glyph-name="ycircumflex" unicode="&#x177;" horiz-adv-x="482" d="M141 -84 C94 -143 69 -163 45 -163 C38 -163 31 -162 25 -160 C-11 -149 -11 -149 -21 -149 C-45 -149 -60 -165 -60 -189 C-60 -215 -42 -230 -9 -230 C28 -230 56 -214 96 -169 C147 -111 187 -64 203 -44 L305 90 C342 138 386 200 419 252 C451 302 467 342 467 373 C467 409 448 430 414 430 C388 430 370 415 370 392 C370 376 377 360 390 346 C407 328 410 322 410 311 C410 282 382 232 322 151 L261 69 C255 90 251 104 250 107 C238 160 225 214 212 267 C206 289 203 303 169 423 C94 415 83 414 14 413 L15 390 L83 397 C122 266 145 180 192 -21 L141 -84 Z M448 511 L352 684 L331 684 L167 511 L177 500 L326 592 L439 500 L448 511 Z " />
<glyph glyph-name="Ydieresis" unicode="&#x178;" horiz-adv-x="645" d="M390 280 L588 546 C610 575 642 614 669 645 L716 645 L721 669 C685 666 655 665 639 665 C616 665 588 666 547 669 L542 645 L620 645 C600 608 595 601 541 525 L381 310 L254 645 L339 645 L344 669 C287 666 248 665 216 665 C194 665 153 666 104 669 L99 645 L151 645 L291 280 L238 22 L155 22 L150 -2 C203 1 248 2 272 2 C307 2 349 1 410 -2 L415 22 L337 22 L390 280 Z M362 829 C330 829 304 805 304 774 C304 747 325 728 354 728 C386 728 411 752 411 781 C411 811 393 829 362 829 L362 829 Z M558 829 C527 829 501 805 501 774 C501 747 522 728 551 728 C582 728 607 752 607 781 C607 811 589 829 558 829 L558 829 Z " />
<glyph glyph-name="Zacute" unicode="&#x179;" horiz-adv-x="583" d="M513 182 C482 73 412 22 296 24 L119 24 L619 649 L623 669 C600 668 593 668 589 668 L563 667 C487 665 468 665 456 665 L297 665 C278 665 272 665 164 668 C160 668 148 668 131 669 C125 633 107 541 95 493 L121 493 C152 596 222 645 336 643 L493 643 L-9 23 L-13 -2 C5 -1 17 -1 21 -1 L47 0 C122 2 143 2 154 2 L336 2 C354 2 361 2 469 -1 C474 -1 477 -1 502 -2 C516 78 518 87 539 182 L513 182 Z M354 702 L446 742 C488 761 506 777 506 798 C506 818 490 832 468 832 C445 832 422 816 396 782 L344 714 L354 702 Z " />
<glyph glyph-name="zacute" unicode="&#x17a;" horiz-adv-x="418" d="M410 413 L88 413 L55 253 L78 253 C89 315 118 340 183 338 L317 338 L8 19 L2 -9 C35 0 64 5 88 5 C114 5 153 -1 172 -9 C236 -33 236 -33 263 -33 C324 -33 379 20 379 79 C379 117 355 148 327 148 C306 148 288 129 288 109 C288 92 298 81 324 68 C340 61 347 53 347 43 C347 30 336 18 324 18 C317 18 308 21 299 25 C220 68 195 77 155 77 C127 77 109 72 78 55 L406 394 L410 413 Z M240 503 L361 595 C391 619 405 635 405 649 C405 664 387 675 364 675 C332 675 307 655 285 615 L229 513 L240 503 Z " />
<glyph glyph-name="Zdotaccent" unicode="&#x17b;" horiz-adv-x="583" d="M513 182 C482 73 412 22 296 24 L119 24 L619 649 L623 669 C600 668 593 668 589 668 L563 667 C487 665 468 665 456 665 L297 665 C278 665 272 665 164 668 C160 668 148 668 131 669 C125 633 107 541 95 493 L121 493 C152 596 222 645 336 643 L493 643 L-9 23 L-13 -2 C5 -1 17 -1 21 -1 L47 0 C122 2 143 2 154 2 L336 2 C354 2 361 2 469 -1 C474 -1 477 -1 502 -2 C516 78 518 87 539 182 L513 182 Z M427 834 C393 834 366 809 366 778 C366 749 389 728 421 728 C456 728 484 752 484 782 C484 812 461 834 427 834 L427 834 Z " />
<glyph glyph-name="zdotaccent" unicode="&#x17c;" horiz-adv-x="418" d="M410 413 L88 413 L55 253 L78 253 C89 315 118 340 183 338 L317 338 L8 19 L2 -9 C35 0 64 5 88 5 C114 5 153 -1 172 -9 C236 -33 236 -33 263 -33 C324 -33 379 20 379 79 C379 117 355 148 327 148 C306 148 288 129 288 109 C288 92 298 81 324 68 C340 61 347 53 347 43 C347 30 336 18 324 18 C317 18 308 21 299 25 C220 68 195 77 155 77 C127 77 109 72 78 55 L406 394 L410 413 Z M278 650 C246 650 220 625 220 595 C220 566 242 544 272 544 C303 544 331 570 331 599 C331 629 309 650 278 650 L278 650 Z " />
<glyph glyph-name="Zcaron" unicode="&#x17d;" horiz-adv-x="583" d="M513 182 C482 73 412 22 296 24 L119 24 L619 649 L623 669 C600 668 593 668 589 668 L563 667 C487 665 468 665 456 665 L297 665 C278 665 272 665 164 668 C160 668 148 668 131 669 C125 633 107 541 95 493 L121 493 C152 596 222 645 336 643 L493 643 L-9 23 L-13 -2 C5 -1 17 -1 21 -1 L47 0 C122 2 143 2 154 2 L336 2 C354 2 361 2 469 -1 C474 -1 477 -1 502 -2 C516 78 518 87 539 182 L513 182 Z M276 822 L393 708 L409 708 L573 822 L566 835 L409 787 L279 835 L276 822 Z " />
<glyph glyph-name="zcaron" unicode="&#x17e;" horiz-adv-x="418" d="M410 413 L88 413 L55 253 L78 253 C89 316 118 340 183 338 L317 338 L8 19 L2 -9 C35 0 64 5 88 5 C114 5 153 -1 172 -9 C236 -33 236 -33 263 -33 C324 -33 379 20 379 79 C379 117 355 148 327 148 C306 148 288 129 288 108 C288 92 299 80 324 68 C340 61 347 53 347 43 C347 30 336 18 324 18 C317 18 308 21 299 25 C220 68 195 77 155 77 C127 77 109 72 78 55 L406 394 L410 413 Z M149 674 L245 500 L266 500 L430 674 L420 684 L271 592 L158 684 L149 674 Z " />
<glyph glyph-name="florin" unicode="&#x192;" horiz-adv-x="321" d="M234 384 L339 384 L344 408 L239 408 L262 521 C279 601 287 627 305 660 C321 690 352 711 380 711 C396 711 407 702 407 690 C407 685 406 678 403 673 C394 649 394 649 394 639 C394 617 409 604 435 604 C467 604 486 624 486 659 C486 703 447 733 390 733 C337 733 286 704 246 652 C202 595 180 535 153 408 L59 408 L54 384 L148 384 L135 323 L103 157 C54 -85 54 -85 36 -118 C25 -139 2 -153 -21 -153 C-37 -153 -46 -145 -46 -131 C-46 -125 -45 -120 -43 -115 C-38 -101 -37 -98 -37 -90 C-37 -67 -53 -53 -78 -53 C-106 -53 -125 -74 -125 -106 C-125 -146 -89 -175 -39 -175 C20 -175 75 -134 117 -59 C147 -7 174 79 198 200 L234 384 Z " />
<glyph glyph-name="uni01CD" unicode="&#x1cd;" horiz-adv-x="698" d="M166 218 L435 218 L479 22 L401 22 L396 -2 C451 1 488 2 519 2 C540 2 579 1 626 -2 L631 22 L579 22 L436 677 L410 677 L110 174 C61 93 36 54 11 22 L-34 22 L-39 -2 C-7 1 19 2 33 2 C54 2 79 1 116 -2 L120 22 L55 22 C77 67 88 88 125 150 L166 218 Z M181 241 L364 551 L431 241 L181 241 Z M307 822 L424 708 L440 708 L604 822 L597 835 L440 787 L310 835 L307 822 Z " />
<glyph glyph-name="uni01CE" unicode="&#x1ce;" horiz-adv-x="499" d="M340 252 C219 250 135 234 93 205 C55 179 33 139 33 95 C33 31 82 -13 151 -13 C225 -13 283 29 316 107 L308 73 C305 59 303 45 303 34 C303 8 314 -2 342 -2 L372 -1 L461 3 L466 24 L444 23 L424 22 C402 21 387 32 387 50 C387 55 387 55 394 96 L427 259 C431 279 434 303 434 318 C434 391 382 430 284 430 C180 430 102 384 102 324 C102 301 119 286 146 286 C177 286 192 304 195 344 C197 376 199 384 209 393 C221 405 248 413 275 413 C327 413 357 387 357 344 C357 338 356 327 354 319 L340 252 Z M336 231 C324 172 315 145 300 113 C268 51 228 18 182 18 C143 18 123 42 123 87 C123 142 147 186 186 207 C219 224 265 231 336 231 L336 231 Z M229 674 L325 500 L346 500 L510 674 L500 684 L352 592 L239 684 L229 674 Z " />
<glyph glyph-name="uni01D3" unicode="&#x1d3;" horiz-adv-x="695" d="M177 645 L106 296 C97 254 91 207 91 184 C91 67 191 -13 336 -13 C487 -13 566 60 601 230 L660 519 C673 584 680 610 690 645 L760 645 L766 669 C728 666 696 665 679 665 C654 665 624 666 581 669 L576 645 L649 645 C644 593 636 539 620 460 L581 269 C563 182 550 143 527 104 C493 48 430 16 356 16 C250 16 190 75 190 180 C190 211 197 263 209 323 L275 645 L355 645 L360 669 C306 666 260 665 236 665 C200 665 157 666 95 669 L90 645 L177 645 Z M333 822 L449 708 L466 708 L630 822 L622 835 L466 787 L335 835 L333 822 Z " />
<glyph glyph-name="Gcaron" unicode="&#x1e6;" horiz-adv-x="723" d="M641 245 L712 245 L718 268 C664 266 620 265 595 265 C564 265 522 266 464 268 L459 245 L543 245 L503 48 C463 23 419 11 366 11 C251 11 174 105 174 246 C174 328 198 427 236 498 C290 600 378 656 483 656 C585 656 642 603 642 509 C642 493 641 482 638 462 L663 462 C674 532 693 628 701 653 L689 653 C654 653 641 655 578 667 C521 678 504 680 466 680 C361 680 273 650 203 589 C118 515 69 406 69 291 C69 216 89 147 127 92 C175 23 250 -13 348 -13 C382 -13 421 -9 461 -1 C519 11 525 12 561 12 C567 12 580 12 594 11 L641 245 Z M359 822 L476 708 L492 708 L657 822 L649 835 L492 787 L362 835 L359 822 Z " />
<glyph glyph-name="gcaron" unicode="&#x1e7;" horiz-adv-x="479" d="M458 422 L336 422 C308 428 296 430 274 430 C156 430 79 359 79 249 C79 199 95 166 133 138 C75 118 46 87 46 45 C46 22 53 7 71 -10 C8 -40 -21 -74 -21 -121 C-21 -189 51 -230 170 -230 C312 -230 393 -176 393 -80 C393 -8 349 28 251 36 L166 42 C122 46 104 57 104 81 C104 102 121 118 155 128 C177 120 196 117 227 117 C295 117 343 135 376 173 C404 205 421 253 421 297 C421 342 408 371 377 399 L453 399 L458 422 Z M275 411 C318 411 343 379 343 324 C343 290 329 232 312 199 C292 158 263 137 226 137 C183 137 157 169 157 221 C157 262 171 319 189 352 C211 391 240 411 275 411 L275 411 Z M250 -44 C301 -48 323 -55 340 -73 C349 -83 354 -97 354 -110 C354 -167 282 -209 185 -209 C95 -209 35 -165 35 -100 C35 -65 50 -43 89 -20 C104 -28 122 -32 150 -35 L250 -44 Z M188 674 L284 500 L305 500 L469 674 L459 684 L310 592 L198 684 L188 674 Z " />
<glyph glyph-name="uni01F4" unicode="&#x1f4;" horiz-adv-x="723" d="M641 245 L712 245 L718 268 C664 266 620 265 595 265 C564 265 522 266 464 268 L459 245 L543 245 L503 48 C463 23 419 11 366 11 C251 11 174 105 174 246 C174 328 198 427 236 498 C290 600 378 656 483 656 C585 656 642 603 642 509 C642 493 641 482 638 462 L663 462 C674 532 693 628 701 653 L689 653 C654 653 641 655 578 667 C521 678 504 680 466 680 C361 680 273 650 203 589 C118 515 69 406 69 291 C69 216 89 147 127 92 C175 23 250 -13 348 -13 C382 -13 421 -9 461 -1 C519 11 525 12 561 12 C567 12 580 12 594 11 L641 245 Z M491 702 L582 742 C624 760 642 777 642 798 C642 818 626 832 605 832 C581 832 559 817 532 782 L481 714 L491 702 Z " />
<glyph glyph-name="Scommaaccent" unicode="&#x218;" horiz-adv-x="562" d="M64 205 C58 151 41 65 26 11 C32 11 36 11 38 10 L69 9 C75 8 104 4 125 0 C182 -10 208 -13 247 -13 C392 -13 494 70 494 188 C494 254 464 303 395 348 L295 414 C224 461 203 488 203 538 C203 611 260 660 344 660 C440 660 495 607 495 517 C495 511 493 492 492 477 L517 477 C523 525 534 589 549 660 C513 663 486 666 468 668 C411 677 381 680 347 680 C209 680 114 607 114 500 C114 441 143 394 205 353 L318 278 C382 235 406 199 406 147 C406 64 341 7 247 7 C148 7 84 68 84 161 C84 169 86 189 88 205 L64 205 Z M161 -216 C223 -195 265 -146 265 -96 C265 -71 249 -53 227 -53 C201 -53 177 -75 177 -99 C177 -115 188 -126 204 -126 C209 -126 212 -126 214 -125 C225 -120 225 -120 226 -120 C228 -120 229 -122 229 -125 C229 -151 196 -190 159 -206 L161 -216 Z " />
<glyph glyph-name="scommaaccent" unicode="&#x219;" horiz-adv-x="416" d="M229 263 C169 295 154 311 154 343 C154 384 192 413 245 413 C288 413 319 397 319 375 C319 370 318 362 315 354 C312 343 310 333 310 326 C310 305 326 293 352 293 C382 293 398 309 398 338 C398 392 338 430 251 430 C159 430 93 376 93 303 C93 252 116 222 183 185 L227 161 C274 134 292 112 292 79 C292 37 250 6 194 6 C147 6 112 24 112 48 C112 55 113 63 116 71 C122 90 123 95 123 100 C123 122 108 134 80 134 C49 134 31 117 31 87 C31 30 98 -13 188 -13 C290 -13 360 42 360 123 C360 171 335 205 278 236 L229 263 Z M89 -212 C149 -192 190 -145 190 -95 C190 -70 175 -53 153 -53 C128 -53 105 -74 105 -98 C105 -114 116 -125 132 -125 L142 -124 C152 -118 152 -118 153 -118 C155 -118 156 -120 156 -124 C156 -149 123 -187 87 -204 L89 -212 Z " />
<glyph glyph-name="uni021A" unicode="&#x21a;" horiz-adv-x="612" d="M442 643 L504 643 C594 643 631 614 631 541 C631 524 630 510 625 483 L650 483 C655 518 660 548 666 571 L684 656 L687 669 C664 668 657 668 654 668 L627 667 C551 665 532 665 520 665 L274 665 C255 665 249 665 141 668 C138 668 125 668 108 669 C98 609 94 587 92 577 C80 526 73 495 71 483 L95 483 C121 593 189 645 304 643 L344 643 L218 22 L134 22 L129 -2 C184 1 230 2 254 2 C290 2 333 1 396 -2 L400 22 L316 22 L442 643 Z M184 -216 C246 -195 288 -146 288 -96 C288 -71 272 -53 250 -53 C224 -53 201 -75 201 -99 C201 -115 212 -126 228 -126 C233 -126 236 -126 238 -125 C249 -120 249 -120 250 -120 C252 -120 253 -122 253 -125 C253 -151 219 -190 183 -206 L184 -216 Z " />
<glyph glyph-name="uni021B" unicode="&#x21b;" horiz-adv-x="334" d="M244 570 L221 570 C198 482 130 424 44 420 L40 400 L123 400 L67 125 C63 108 61 89 61 75 C61 20 100 -13 165 -13 C234 -13 279 22 300 90 L279 95 C265 43 232 12 189 12 C160 12 142 28 142 52 C142 65 144 81 152 117 L209 400 L320 400 L324 420 L213 420 L244 570 Z M47 -212 C108 -192 149 -145 149 -95 C149 -70 134 -53 112 -53 C86 -53 63 -74 63 -98 C63 -114 74 -125 90 -125 L100 -124 C110 -118 110 -118 112 -118 C113 -118 114 -120 114 -124 C114 -149 81 -187 45 -204 L47 -212 Z " />
<glyph glyph-name="uni0226" unicode="&#x226;" horiz-adv-x="698" d="M166 218 L435 218 L479 22 L401 22 L396 -2 C451 1 488 2 519 2 C540 2 579 1 626 -2 L631 22 L579 22 L436 677 L410 677 L110 174 C61 93 36 54 11 22 L-34 22 L-39 -2 C-7 1 19 2 33 2 C54 2 79 1 116 -2 L120 22 L55 22 C77 67 88 88 125 150 L166 218 Z M181 241 L364 551 L431 241 L181 241 Z M451 834 C417 834 390 809 390 778 C390 749 413 728 445 728 C480 728 508 752 508 782 C508 812 485 834 451 834 L451 834 Z " />
<glyph glyph-name="uni0227" unicode="&#x227;" horiz-adv-x="499" d="M340 252 C219 250 135 234 93 205 C55 179 33 139 33 95 C33 31 82 -13 151 -13 C225 -13 283 29 316 107 L308 73 C305 59 303 45 303 34 C303 8 314 -2 342 -2 L372 -1 L461 3 L466 24 L444 23 L424 22 C402 21 387 32 387 50 C387 55 387 55 394 96 L427 259 C431 279 434 303 434 318 C434 391 382 430 284 430 C180 430 102 384 102 324 C102 301 119 286 146 286 C177 286 192 304 195 344 C197 376 199 384 209 393 C221 405 248 413 275 413 C327 413 357 387 357 344 C357 338 356 327 354 319 L340 252 Z M336 231 C324 172 315 145 300 113 C268 51 228 18 182 18 C143 18 123 42 123 87 C123 142 147 186 186 207 C219 224 265 231 336 231 L336 231 Z M353 650 C321 650 295 625 295 595 C295 566 317 544 347 544 C379 544 406 570 406 599 C406 629 384 650 353 650 L353 650 Z " />
<glyph glyph-name="uni0237" unicode="&#x237;" horiz-adv-x="271" d="M231 423 C148 414 136 414 51 413 L47 390 L137 395 L72 63 C54 -32 41 -87 30 -124 C13 -178 -18 -209 -55 -209 C-72 -209 -84 -200 -84 -186 C-84 -181 -83 -174 -81 -168 C-73 -146 -73 -146 -73 -137 C-73 -115 -89 -101 -114 -101 C-147 -101 -167 -122 -167 -158 C-167 -204 -133 -230 -73 -230 C46 -230 118 -129 165 103 L231 423 Z " />
<glyph glyph-name="afii57929" unicode="&#x2bc;" horiz-adv-x="220" d="M86 431 C178 466 237 533 237 601 C237 636 213 661 179 661 C147 661 124 638 124 607 C124 586 132 573 158 555 C170 546 174 540 174 531 C174 514 150 488 122 474 L85 455 L77 451 L86 431 Z " />
<glyph glyph-name="circumflex" unicode="&#x2c6;" horiz-adv-x="500" d="M324 511 L228 684 L207 684 L43 511 L53 500 L202 592 L315 500 L324 511 Z " />
<glyph glyph-name="caron" unicode="&#x2c7;" horiz-adv-x="500" d="M43 674 L139 500 L160 500 L324 674 L314 684 L165 592 L53 684 L43 674 Z " />
<glyph glyph-name="uni02C9" unicode="&#x2c9;" horiz-adv-x="500" d="M60 622 L51 573 L307 573 L316 622 L60 622 Z " />
<glyph glyph-name="breve" unicode="&#x2d8;" horiz-adv-x="500" d="M319 665 C313 645 308 635 297 624 C280 607 228 596 171 596 C91 596 52 618 48 665 L31 665 C30 659 30 651 30 648 C30 578 85 532 169 532 C261 532 325 582 338 665 L319 665 Z " />
<glyph glyph-name="dotaccent" unicode="&#x2d9;" horiz-adv-x="500" d="M186 650 C154 650 128 626 128 595 C128 566 150 544 180 544 C212 544 239 570 239 599 C239 629 217 650 186 650 L186 650 Z " />
<glyph glyph-name="ring" unicode="&#x2da;" horiz-adv-x="500" d="M183 671 C142 671 109 637 109 597 C109 557 145 523 187 523 C225 523 259 556 259 594 C259 635 223 671 183 671 L183 671 Z M184 651 C212 651 238 625 238 595 C238 567 214 543 185 543 C156 543 131 567 131 596 C131 626 155 651 184 651 L184 651 Z " />
<glyph glyph-name="ogonek" unicode="&#x2db;" horiz-adv-x="500" d="M345 0 C278 -31 242 -75 242 -125 C242 -169 273 -193 327 -193 C360 -193 388 -185 417 -168 L414 -159 C397 -164 388 -166 374 -166 C324 -166 295 -146 295 -111 C295 -65 317 -33 372 0 L345 0 Z " />
<glyph glyph-name="tilde" unicode="&#x2dc;" horiz-adv-x="500" d="M318 666 C310 616 295 595 268 595 C254 595 240 602 220 618 L196 637 C170 659 149 668 128 668 C75 668 41 622 29 532 L50 532 C58 582 74 606 99 606 C113 606 130 597 145 582 L162 565 C185 542 212 529 237 529 C292 529 334 586 338 666 L318 666 Z " />
<glyph glyph-name="hungarumlaut" unicode="&#x2dd;" horiz-adv-x="500" d="M34 493 L145 596 C164 614 178 636 178 647 C178 662 162 674 140 674 C103 674 78 651 55 596 L19 506 L34 493 Z M204 493 L314 596 C333 613 347 635 347 647 C347 662 331 674 309 674 C272 674 247 651 225 596 L188 506 L204 493 Z " />
<glyph glyph-name="pi" unicode="&#x3c0;" horiz-adv-x="595" d="M629 469 L209 469 C161 469 137 459 115 430 L48 339 L61 325 C111 390 145 408 218 408 C212 258 198 175 168 94 C147 50 147 49 147 29 C147 1 164 -19 188 -19 C210 -19 226 0 234 39 C245 89 260 230 262 294 L264 409 L434 409 C428 402 424 397 423 395 C417 385 411 375 406 365 C369 311 365 297 362 241 L362 86 C362 54 364 43 374 24 C384 4 402 -13 411 -13 C413 -13 417 -12 423 -10 L542 33 L542 51 C512 44 496 41 495 41 C461 41 453 57 453 132 L453 291 C454 327 461 354 484 409 L629 409 L629 469 Z " />
<glyph glyph-name="uni1E1E" unicode="&#x1e1e;" horiz-adv-x="558" d="M240 322 L310 322 C381 322 418 294 418 239 C418 231 417 223 414 207 L440 207 C451 274 462 336 463 339 C471 374 480 410 488 446 L490 454 L465 454 C447 378 407 349 313 345 L245 345 L306 645 L442 645 C532 645 573 611 573 534 C573 528 571 507 569 491 L593 491 C596 512 600 529 610 578 C618 615 623 636 629 669 C606 668 600 668 596 668 L569 667 C493 665 475 665 462 665 L294 665 C276 665 269 665 161 668 C158 668 145 668 128 669 L124 645 L207 645 L80 22 L-3 22 L-8 -2 C49 1 96 2 121 2 C158 2 203 1 268 -2 L273 22 L179 22 L240 322 Z M414 834 C380 834 353 809 353 778 C353 749 376 728 408 728 C443 728 471 752 471 782 C471 812 448 834 414 834 L414 834 Z " />
<glyph glyph-name="Wacute" unicode="&#x1e82;" horiz-adv-x="298" d="M42 257 L33 213 L256 213 L265 257 L42 257 Z " />
<glyph glyph-name="Wdieresis" unicode="&#x1e84;" horiz-adv-x="1037" d="M663 -7 L696 -7 L989 531 C994 540 999 549 1003 558 C1012 574 1020 587 1025 596 C1036 614 1041 623 1055 645 L1102 645 L1107 669 C1072 666 1043 665 1028 665 C1005 665 977 666 937 669 L932 645 L1012 645 C1003 623 976 564 958 531 L739 124 L654 674 L621 674 L326 124 L245 645 L325 645 L331 669 C275 666 238 665 206 665 C185 665 145 666 98 669 L93 645 L147 645 L251 -7 L282 -7 L575 533 L663 -7 Z M558 829 C526 829 500 805 500 774 C500 747 521 728 550 728 C582 728 607 752 607 781 C607 811 589 829 558 829 L558 829 Z M754 829 C723 829 697 805 697 774 C697 747 718 728 747 728 C778 728 803 752 803 781 C803 811 785 829 754 829 L754 829 Z " />
<glyph glyph-name="uni2011" unicode="&#x2011;" horiz-adv-x="232" d="M9 257 L0 213 L223 213 L232 257 L9 257 Z " />
<glyph glyph-name="figuredash" unicode="&#x2012;" horiz-adv-x="500" d="M9 257 L0 213 L491 213 L500 257 L9 257 Z " />
<glyph glyph-name="endash" unicode="&#x2013;" horiz-adv-x="500" d="M9 257 L0 213 L491 213 L500 257 L9 257 Z " />
<glyph glyph-name="emdash" unicode="&#x2014;" horiz-adv-x="645" d="M9 257 L0 213 L636 213 L645 257 L9 257 Z " />
<glyph glyph-name="afii00208" unicode="&#x2015;" horiz-adv-x="645" d="M9 257 L0 213 L636 213 L645 257 L9 257 Z " />
<glyph glyph-name="underscoredbl" unicode="&#x2017;" horiz-adv-x="500" d="M46 -35 L46 -85 L507 -85 L507 -35 L46 -35 Z M46 -142 L46 -192 L507 -192 L507 -142 L46 -142 Z " />
<glyph glyph-name="quoteleft" unicode="&#x2018;" horiz-adv-x="220" d="M134 661 C43 627 -17 560 -17 491 C-17 456 7 431 41 431 C73 431 96 454 96 485 C96 506 88 519 62 538 C50 546 46 552 46 562 C46 578 70 605 98 619 L143 641 L134 661 Z " />
<glyph glyph-name="quoteright" unicode="&#x2019;" horiz-adv-x="220" d="M86 431 C178 466 237 533 237 601 C237 636 213 661 179 661 C147 661 124 638 124 607 C124 586 132 573 158 555 C170 546 174 540 174 531 C174 514 150 488 122 474 L85 455 L77 451 L86 431 Z " />
<glyph glyph-name="quotesinglbase" unicode="&#x201a;" horiz-adv-x="334" d="M47 -119 C88 -104 107 -95 125 -82 C176 -46 205 0 205 45 C205 82 181 107 147 107 C115 107 92 84 92 53 C92 37 100 21 112 11 C136 -7 139 -11 139 -24 C139 -51 102 -78 37 -100 L47 -119 Z " />
<glyph glyph-name="quotedblleft" unicode="&#x201c;" horiz-adv-x="349" d="M393 661 C302 627 243 560 243 491 C243 456 267 431 301 431 C332 431 355 454 355 485 C355 506 347 520 322 538 C310 546 306 552 306 562 C306 578 330 605 357 619 L395 637 L402 641 L393 661 Z M234 661 C143 627 83 560 83 491 C83 456 107 431 141 431 C173 431 196 454 196 485 C196 506 188 519 162 538 C150 546 146 552 146 562 C146 578 170 605 198 619 L243 641 L234 661 Z " />
<glyph glyph-name="quotedblright" unicode="&#x201d;" horiz-adv-x="393" d="M99 431 C191 466 250 533 250 601 C250 636 226 661 192 661 C160 661 137 638 137 607 C137 586 145 573 171 555 C183 546 187 540 187 531 C187 514 163 488 135 474 L98 455 L90 451 L99 431 Z M259 431 C350 466 409 533 409 601 C409 636 385 661 351 661 C320 661 297 638 297 607 C297 586 305 573 330 555 C342 546 346 540 346 531 C346 514 322 488 295 474 L257 455 L250 451 L259 431 Z " />
<glyph glyph-name="quotedblbase" unicode="&#x201e;" horiz-adv-x="383" d="M-12 -119 C80 -85 139 -18 139 50 C139 85 115 110 81 110 C49 110 26 87 26 56 C26 35 34 22 60 4 C72 -5 76 -11 76 -20 C76 -36 52 -63 24 -77 C12 -83 -1 -89 -13 -96 C-14 -96 -17 -98 -21 -100 L-12 -119 Z M148 -119 C239 -85 298 -18 298 50 C298 85 274 110 240 110 C209 110 186 87 186 56 C186 35 194 22 219 4 C231 -5 235 -11 235 -20 C235 -37 211 -63 184 -77 C158 -90 143 -97 139 -100 L148 -119 Z " />
<glyph glyph-name="dagger" unicode="&#x2020;" horiz-adv-x="555" d="M310 198 C310 279 317 342 333 413 C357 411 385 405 408 396 C471 371 483 367 502 367 C532 367 551 390 551 427 C551 461 536 477 505 477 C488 477 475 473 437 457 C399 440 371 434 337 433 C346 466 353 486 365 506 C412 590 418 605 418 634 C418 658 398 674 367 674 C329 674 308 654 308 616 C308 600 310 576 315 546 C320 513 321 506 321 488 C321 471 320 457 316 433 C275 434 245 442 202 463 C176 475 162 479 146 479 C114 479 93 454 93 417 C93 388 110 371 139 371 C155 371 167 374 204 388 C261 409 277 413 312 413 C303 354 272 258 235 173 C194 78 190 64 190 34 C190 6 213 -13 247 -13 C293 -13 311 17 311 94 C311 101 311 120 310 144 L310 198 Z " />
<glyph glyph-name="daggerdbl" unicode="&#x2021;" horiz-adv-x="546" d="M358 330 C334 340 326 353 326 382 C326 395 328 412 333 436 C354 436 383 427 423 410 C454 396 475 391 493 391 C523 391 543 417 543 455 C543 483 525 501 498 501 C481 501 465 497 436 484 C387 461 365 455 336 455 C342 474 352 497 364 516 C407 584 414 599 414 629 C414 658 395 674 363 674 C324 674 301 650 301 610 C301 601 302 591 304 582 C317 522 318 518 318 490 C318 478 317 470 315 455 C294 455 269 461 242 473 C177 502 174 503 155 503 C123 503 102 480 102 445 C102 415 121 395 150 395 C166 395 179 399 215 412 C263 431 285 437 312 436 C301 368 288 346 249 330 C269 319 276 306 276 283 C276 271 275 263 271 234 C232 234 208 240 168 258 C134 274 124 277 107 277 C72 277 51 254 51 218 C51 189 70 168 96 168 C111 168 135 175 168 189 C211 209 235 215 267 215 C264 196 251 170 225 127 C195 80 187 62 187 37 C187 8 210 -13 240 -13 C277 -13 302 15 302 57 C302 69 300 85 296 108 C287 163 286 169 286 184 C286 194 287 199 289 213 C329 209 336 207 391 186 C434 170 441 168 456 168 C487 168 509 194 509 229 C509 261 491 280 461 280 C443 280 442 280 394 258 C362 244 324 233 304 233 C302 233 298 233 293 234 C302 293 320 319 358 330 L358 330 Z " />
<glyph glyph-name="bullet" unicode="&#x2022;" horiz-adv-x="667" d="M363 479 C285 479 223 417 223 339 C223 263 285 200 361 200 C437 200 498 262 498 340 C498 416 437 479 363 479 L363 479 Z " />
<glyph glyph-name="ellipsis" unicode="&#x2026;" horiz-adv-x="1001" d="M144 106 C109 106 80 78 80 44 C80 14 103 -7 135 -7 C170 -7 199 20 199 53 C199 85 178 106 144 106 L144 106 Z M478 106 C443 106 414 78 414 44 C414 14 437 -7 469 -7 C504 -7 533 20 533 53 C533 85 512 106 478 106 L478 106 Z M811 106 C776 106 747 78 747 44 C747 14 770 -7 802 -7 C837 -7 866 20 866 53 C866 85 845 106 811 106 L811 106 Z " />
<glyph glyph-name="perthousand" unicode="&#x2030;" horiz-adv-x="903" d="M189 677 C138 677 92 652 64 609 C36 565 17 499 17 440 C17 363 61 317 136 317 C191 317 235 341 264 389 C292 433 310 498 310 549 C310 632 268 677 189 677 L189 677 Z M194 657 C226 657 243 632 243 587 C243 552 226 468 210 424 C189 365 164 337 132 337 C102 337 85 360 85 403 C85 445 95 503 111 554 C134 626 159 657 194 657 L194 657 Z M604 701 L578 722 L0 -22 L27 -42 L604 701 Z M455 356 C404 356 358 331 330 288 C302 244 283 178 283 119 C283 42 327 -4 402 -4 C457 -4 501 20 530 68 C558 112 576 176 576 228 C576 311 534 356 455 356 L455 356 Z M460 336 C492 336 509 312 509 266 C509 231 492 148 476 103 C455 43 430 16 398 16 C368 16 351 39 351 82 C351 124 361 182 377 233 C400 305 424 336 460 336 L460 336 Z M782 347 C731 347 685 322 656 279 C628 236 609 170 609 111 C609 34 653 -12 728 -12 C784 -12 828 12 857 60 C885 104 903 168 903 219 C903 302 860 347 782 347 L782 347 Z M786 327 C819 327 836 303 836 257 C836 223 819 139 803 95 C782 36 757 8 724 8 C694 8 677 31 677 73 C677 116 687 173 703 224 C726 296 751 327 786 327 L786 327 Z " />
<glyph glyph-name="guilsinglleft" unicode="&#x2039;" horiz-adv-x="296" d="M187 0 L205 6 L165 211 L286 401 L272 415 L68 223 L187 0 Z " />
<glyph glyph-name="guilsinglright" unicode="&#x203a;" horiz-adv-x="296" d="M109 415 L91 408 L131 204 L11 13 L25 0 L229 192 L109 415 Z " />
<glyph glyph-name="uni203E" unicode="&#x203e;" horiz-adv-x="500" d="M46 843 L46 793 L507 793 L507 843 L46 843 Z " />
<glyph glyph-name="fraction" unicode="&#x2044;" horiz-adv-x="375" d="M415 705 L386 722 L-64 -77 L-34 -93 L415 705 Z " />
<glyph glyph-name="franc" unicode="&#x20a3;" horiz-adv-x="975" d="M240 322 L310 322 C381 322 418 294 418 239 C418 231 417 223 414 207 L440 207 C451 274 462 336 463 339 C471 374 480 410 488 446 L490 454 L465 454 C447 378 407 349 313 345 L245 345 L306 645 L442 645 C532 645 573 611 573 534 C573 528 571 507 569 491 L593 491 C596 512 600 529 610 578 C618 615 623 636 629 669 C606 668 600 668 596 668 L569 667 C493 665 475 665 462 665 L294 665 C276 665 269 665 161 668 C158 668 145 668 128 669 L124 645 L207 645 L80 22 L-3 22 L-8 -2 C49 1 96 2 121 2 C158 2 203 1 268 -2 L273 22 L179 22 L240 322 Z M773 423 C697 415 685 414 611 413 L606 390 L686 397 L623 88 C615 47 610 27 601 -3 L697 3 C698 19 702 46 707 79 L725 164 C752 292 826 402 885 402 C899 402 909 393 909 381 C909 376 907 369 904 363 C895 341 894 339 894 329 C894 308 911 294 936 294 C971 294 993 318 993 357 C993 402 962 430 911 430 C840 430 784 380 744 281 L773 423 Z " />
<glyph glyph-name="lira" unicode="&#x20a4;" horiz-adv-x="520" d="M220 269 C221 256 221 249 221 242 C221 184 217 165 196 113 C166 126 147 130 123 130 C63 130 16 94 16 48 C16 16 42 -5 82 -5 C119 -5 160 16 201 55 C250 13 287 -4 330 -4 C409 -4 474 57 505 162 L488 163 C483 150 475 137 461 118 C435 82 399 65 349 65 C309 65 275 75 234 100 C271 151 292 201 305 269 L441 269 L447 300 L309 300 C312 321 313 326 314 373 L462 373 L468 404 L316 404 L314 472 C314 525 320 560 334 589 C355 629 391 653 430 653 C457 653 475 640 475 620 C475 615 474 612 471 603 C466 589 464 580 464 570 C464 548 475 535 493 535 C521 535 542 562 542 597 C542 647 500 681 439 681 C366 681 298 643 256 579 C223 529 211 483 209 404 L118 404 L112 373 L209 373 C210 360 211 351 211 345 C213 325 213 323 213 300 L97 300 L91 269 L220 269 Z M178 74 C150 38 125 23 95 23 C76 23 61 36 61 54 C61 79 84 98 113 98 C134 98 148 93 178 74 L178 74 Z " />
<glyph glyph-name="peseta" unicode="&#x20a7;" horiz-adv-x="985" d="M231 297 L311 297 C416 297 472 308 524 337 C583 371 617 432 617 505 C617 615 541 667 382 667 C378 667 358 667 331 666 L259 666 C183 666 172 666 123 669 L119 645 L203 645 L77 22 L-8 22 L-13 -2 C45 1 93 2 119 2 C156 2 202 1 269 -2 L273 22 L175 22 L231 297 Z M236 321 L301 643 L349 643 C412 643 449 636 475 619 C503 601 520 565 520 523 C520 488 511 450 496 418 C471 366 433 337 375 326 C349 321 335 321 266 321 L236 321 Z M631 343 L609 343 C596 289 555 255 500 254 L497 236 L548 236 L516 77 C513 67 512 55 512 48 C512 13 537 -8 581 -8 C626 -8 655 14 669 59 L649 64 C641 31 622 13 596 13 C580 13 570 21 570 35 C570 43 570 43 576 72 L609 236 L678 236 L682 254 L613 254 L631 343 Z M845 161 C810 179 801 189 801 207 C801 228 822 243 853 243 C877 243 895 235 895 223 C895 221 894 217 892 212 C890 206 889 201 889 196 C888 182 900 173 919 173 C940 173 952 184 952 203 C952 237 913 260 857 260 C798 260 755 227 755 182 C755 150 770 132 813 109 L841 95 C868 81 879 67 879 48 C879 26 856 10 824 10 C796 10 776 20 776 33 C776 36 777 40 778 45 C782 57 783 59 783 63 C783 78 772 86 753 86 C731 86 718 74 718 55 C718 19 761 -8 819 -8 C884 -8 929 26 929 75 C929 105 913 127 876 146 L845 161 Z " />
<glyph glyph-name="Euro" unicode="&#x20ac;" horiz-adv-x="530" d="M78 279 C78 97 157 -7 296 -7 C329 -7 359 -1 397 12 C413 18 418 19 424 19 C427 19 432 19 454 16 C456 44 471 127 489 198 L465 198 C451 149 439 124 416 92 C381 44 337 17 294 17 C221 17 173 100 173 226 C173 242 173 254 175 279 L415 279 L430 305 L177 305 C179 328 181 343 184 357 L461 357 L476 383 L189 383 C201 436 215 480 230 512 C272 599 338 649 411 649 C477 649 522 593 522 510 C522 503 521 490 520 477 L544 477 C563 583 569 608 580 651 C570 650 561 650 556 650 C543 650 529 652 499 658 C420 673 420 673 394 673 C246 673 129 561 89 383 L54 383 L39 357 L84 357 C81 334 79 319 79 305 L41 305 L27 279 L78 279 Z " />
<glyph glyph-name="uni2101" unicode="&#x2101;" horiz-adv-x="888" d="M120 414 L280 414 L305 304 L259 304 L254 283 C290 285 314 286 334 286 C347 286 372 285 402 283 L406 304 L373 304 L286 691 L265 691 L81 393 C51 343 37 323 22 304 L-6 304 L-11 283 C10 285 28 286 37 286 C51 286 67 285 90 283 L95 304 L57 304 C63 320 65 323 78 344 C84 355 90 365 96 375 L120 414 Z M133 434 L238 605 L276 434 L133 434 Z M733 705 L704 722 L255 -77 L284 -93 L733 705 Z M573 127 L570 113 C566 88 564 73 563 70 C559 49 555 33 548 7 C573 5 594 3 612 0 C649 -7 661 -8 686 -8 C778 -8 841 42 841 114 C841 154 822 184 779 211 L718 250 C677 277 664 293 664 321 C664 362 697 390 747 390 C803 390 835 360 835 308 C835 304 834 291 833 281 L855 281 C858 311 866 351 875 396 C852 398 834 399 823 401 C789 406 769 408 748 408 C662 408 603 363 603 298 C603 263 622 233 660 209 L729 164 C767 140 781 120 781 90 C781 43 743 11 687 11 C629 11 591 45 591 99 C591 104 592 117 594 127 L573 127 Z " />
<glyph glyph-name="afii61248" unicode="&#x2105;" horiz-adv-x="250" d="M153 406 C124 406 101 384 101 355 C101 327 124 304 152 304 C180 304 203 327 203 355 C203 383 180 406 153 406 L153 406 Z " />
<glyph glyph-name="afii61289" unicode="&#x2113;" horiz-adv-x="500" d="M277 263 C335 324 367 362 390 398 C431 463 456 534 456 588 C456 640 429 674 386 674 C301 674 238 543 184 255 C161 227 142 206 129 193 C116 181 111 174 111 166 C111 156 119 145 125 145 C132 145 156 165 177 187 C172 131 170 103 170 81 C170 16 196 -19 244 -19 C276 -19 303 -1 327 37 C340 58 348 79 348 93 C348 103 342 110 333 110 C324 110 319 105 312 91 C293 52 281 39 266 39 C255 39 249 48 249 64 C249 89 263 189 277 263 L277 263 Z M287 324 C324 550 349 623 387 623 C401 623 411 608 411 588 C411 561 400 514 384 474 C362 419 334 375 287 324 L287 324 Z " />
<glyph glyph-name="uni2117" unicode="&#x2117;" horiz-adv-x="183" d="M185 524 C132 518 124 517 73 517 L69 496 L119 500 L81 315 C79 302 77 292 77 289 C77 272 88 265 115 265 L141 266 L186 270 L190 288 L163 286 L158 286 C145 286 138 290 139 298 C139 299 140 304 142 313 L185 524 Z M174 661 C150 661 131 646 131 626 C131 608 146 595 168 595 C191 595 210 611 210 631 C210 649 195 661 174 661 L174 661 Z " />
<glyph glyph-name="trademark" unicode="&#x2122;" horiz-adv-x="966" d="M322 648 L356 648 C412 648 433 631 433 589 C433 579 432 570 429 553 L452 553 C456 583 464 625 475 668 C441 667 438 667 368 667 L215 667 C145 667 143 667 108 668 L106 657 L98 612 C91 580 87 561 85 553 L108 553 C122 619 163 649 233 648 L254 648 L180 286 L129 286 L124 265 C160 267 190 268 205 268 C228 268 257 267 297 265 L302 286 L249 286 L322 648 Z M658 267 L680 267 L910 631 L840 286 L788 286 L784 265 C819 267 848 268 864 268 C887 268 914 267 955 265 L959 286 L909 286 L982 647 L1032 647 L1036 668 C1006 667 985 666 968 666 C956 666 934 667 907 668 L708 352 L635 668 C611 667 590 666 579 666 C562 666 543 667 513 668 L509 647 L556 647 L497 348 C495 334 490 318 482 286 L433 286 L428 265 C455 267 477 268 489 268 C506 268 527 267 558 265 L562 286 L514 286 C515 312 517 330 523 361 L575 631 L658 267 Z " />
<glyph glyph-name="uni2126" unicode="&#x2126;" horiz-adv-x="667" d="M719 128 L699 128 C679 71 654 56 579 56 L463 52 L463 57 C515 78 541 91 568 110 C651 170 701 265 701 365 C701 438 672 511 621 570 C559 641 470 678 360 678 C271 678 197 654 139 606 C65 545 19 451 19 362 C19 276 57 193 125 132 C160 100 190 83 257 57 L257 51 L148 55 C65 56 39 71 20 128 L0 128 L38 0 L320 0 L320 53 C268 80 246 95 220 123 C164 184 132 272 132 362 C132 426 149 491 179 542 C220 612 281 647 363 647 C412 647 461 629 494 600 C552 548 588 456 588 359 C588 279 562 201 518 144 C488 106 462 85 400 53 L400 0 L681 0 L719 128 Z " />
<glyph glyph-name="partialdiff" unicode="&#x2202;" horiz-adv-x="500" d="M170 672 C292 603 358 522 403 387 C383 408 371 419 370 421 C349 439 308 451 272 451 C150 451 56 350 56 218 C56 85 150 -15 275 -15 C341 -15 396 11 440 61 C479 108 497 159 497 228 C497 288 485 341 454 415 C421 493 390 542 344 586 C299 629 240 666 179 689 L170 672 Z M279 426 C304 426 331 416 349 399 C384 366 407 296 407 224 C407 102 350 10 274 10 C247 10 224 20 201 43 C169 74 145 151 145 219 C145 284 171 363 203 394 C224 415 251 426 279 426 L279 426 Z " />
<glyph glyph-name="emptyset" unicode="&#x2205;" horiz-adv-x="618" d="M465 667 L418 578 C388 588 366 592 337 592 C201 592 93 485 93 349 C93 267 129 200 201 147 L140 25 L188 0 L251 123 C274 112 297 107 330 107 C469 107 578 214 578 350 C578 432 540 501 465 554 L513 642 L465 667 Z M442 502 C491 472 522 412 522 349 C522 247 438 164 335 164 C316 164 301 166 277 172 L442 502 Z M226 198 C175 239 149 290 149 350 C149 452 234 535 338 535 C358 535 371 533 392 527 L226 198 Z " />
<glyph glyph-name="Delta" unicode="&#x2206;" horiz-adv-x="667" d="M384 682 L335 682 L29 0 L691 0 L384 682 Z M332 579 L559 60 L167 60 C132 60 120 68 120 91 C120 101 125 116 134 137 L332 579 Z " />
<glyph glyph-name="product" unicode="&#x220f;" horiz-adv-x="667" d="M31 667 L31 648 L56 648 C113 648 123 635 122 568 L122 -135 C123 -202 113 -214 56 -214 L34 -214 L34 -233 L311 -233 L311 -214 L286 -214 C232 -214 221 -201 222 -135 L222 568 C221 635 232 648 289 648 L434 648 C491 648 501 635 500 568 L500 -135 C501 -202 491 -214 434 -214 L412 -214 L412 -233 L689 -233 L689 -214 L665 -214 C610 -214 599 -201 600 -135 L600 568 C599 635 610 648 667 648 L690 648 L690 667 L31 667 Z " />
<glyph glyph-name="summation" unicode="&#x2211;" horiz-adv-x="667" d="M79 667 L325 215 L79 -233 L611 -233 L645 -24 L626 -24 C599 -134 537 -181 421 -178 L158 -177 L399 261 L197 639 L419 639 C529 641 573 605 585 503 L604 503 L604 667 L79 667 Z " />
<glyph glyph-name="minus" unicode="&#x2212;" horiz-adv-x="500" d="M46 370 L46 320 L507 320 L507 370 L46 370 Z " />
<glyph glyph-name="uni2215" unicode="&#x2215;" horiz-adv-x="375" d="M415 705 L386 722 L-64 -77 L-34 -93 L415 705 Z " />
<glyph glyph-name="uni2218" unicode="&#x2218;" horiz-adv-x="500" d="M279 480 C201 480 139 418 139 340 C139 263 201 200 277 200 C353 200 414 263 414 340 C414 417 353 480 279 480 L279 480 Z M278 432 C327 432 367 390 367 340 C367 289 327 248 277 248 C227 248 186 289 186 340 C186 391 226 432 278 432 L278 432 Z " />
<glyph glyph-name="uni2219" unicode="&#x2219;" horiz-adv-x="194" d="M122 326 C98 326 74 303 74 279 C74 260 87 247 106 247 C132 247 155 270 155 294 C155 313 141 326 122 326 L122 326 Z " />
<glyph glyph-name="radical" unicode="&#x221a;" horiz-adv-x="667" d="M676 823 L532 823 L350 50 L271 387 L43 387 L43 357 L194 357 L280 0 L374 0 L559 793 L676 793 L676 823 Z " />
<glyph glyph-name="infinity" unicode="&#x221e;" horiz-adv-x="667" d="M336 279 C382 201 446 157 512 157 C610 157 686 237 686 339 C686 436 616 511 526 511 C496 511 468 502 443 485 C423 471 412 457 380 406 C380 406 374 397 368 389 C317 471 263 510 199 510 C107 510 34 430 34 329 C34 237 100 166 185 166 C244 166 281 194 336 279 L336 279 Z M384 366 C419 421 459 442 525 442 C608 442 659 401 659 336 C659 275 616 229 560 229 C525 229 487 245 454 275 C431 295 414 318 384 366 L384 366 Z M317 306 C280 252 246 233 187 233 C109 233 60 271 60 333 C60 393 100 437 154 437 C215 437 255 405 317 306 L317 306 Z " />
<glyph glyph-name="integral" unicode="&#x222b;" horiz-adv-x="501" d="M327 490 C327 606 353 671 399 671 C419 671 432 659 432 641 C432 633 430 629 424 618 C419 609 417 601 417 591 C417 562 443 538 474 538 C507 538 533 565 533 600 C533 662 475 708 397 708 C335 708 287 681 257 627 C233 584 227 546 227 434 L227 -67 C227 -161 198 -223 154 -223 C135 -223 121 -211 121 -194 C121 -186 123 -182 129 -171 C134 -162 137 -154 137 -145 C137 -116 111 -92 80 -92 C47 -92 21 -119 21 -153 C21 -215 79 -261 157 -261 C219 -261 267 -233 297 -180 C321 -138 327 -99 327 10 L327 490 Z " />
<glyph glyph-name="similar" unicode="&#x223c;" horiz-adv-x="500" d="M483 406 C455 373 418 354 383 354 C362 354 340 359 297 373 C244 389 224 394 201 394 C147 394 99 361 53 294 L71 284 L102 315 C118 331 140 339 165 339 C191 339 209 335 259 320 C331 297 333 297 355 297 C407 297 463 335 501 396 L483 406 Z " />
<glyph glyph-name="approxequal" unicode="&#x2248;" horiz-adv-x="500" d="M483 485 C454 452 418 433 383 433 C362 433 339 438 297 452 C245 468 224 473 201 473 C147 473 99 440 53 373 L71 363 L102 394 C118 410 140 418 165 418 C190 418 209 414 259 399 C331 376 333 376 355 376 C407 376 463 414 501 475 L483 485 Z M483 327 C454 293 418 275 383 275 C362 275 339 280 297 294 C244 310 224 315 201 315 C147 315 99 282 53 215 L71 204 L102 236 C118 252 140 260 165 260 C191 260 208 256 259 241 C332 218 332 218 355 218 C407 218 463 256 501 317 L483 327 Z " />
<glyph glyph-name="notequal" unicode="&#x2260;" horiz-adv-x="500" d="M299 450 L46 450 L46 401 L276 401 L232 307 L47 307 L47 258 L209 258 L157 147 L202 126 L264 258 L508 258 L508 307 L287 307 L331 401 L507 401 L507 450 L354 450 L402 554 L357 574 L299 450 Z " />
<glyph glyph-name="lessequal" unicode="&#x2264;" horiz-adv-x="500" d="M485 620 L69 354 L69 348 L485 68 L485 184 L187 384 L485 576 L485 620 Z M69 40 L69 0 L485 0 L485 40 L69 40 Z " />
<glyph glyph-name="greaterequal" unicode="&#x2265;" horiz-adv-x="500" d="M69 40 L69 0 L485 0 L485 40 L69 40 Z M69 68 L485 332 L485 338 L69 620 L69 504 L367 305 L69 112 L69 68 Z " />
<glyph glyph-name="lozenge" unicode="&#x25ca;" horiz-adv-x="667" d="M360 693 L100 334 L360 -26 L619 334 L360 693 Z M360 604 L557 334 L360 63 L163 334 L360 604 Z " />
<glyph glyph-name="ff" unicode="&#xfb00;" horiz-adv-x="594" d="M218 395 L323 395 L327 415 L222 415 L232 466 C250 554 255 572 273 605 C289 635 320 656 347 656 C363 656 374 647 374 635 C374 629 373 623 371 618 C363 594 363 594 363 584 C363 562 378 549 404 549 C436 549 454 569 454 604 C454 649 415 680 357 680 C305 680 254 651 214 598 C180 553 160 506 136 415 L42 415 L38 395 L132 395 L106 267 L75 101 C29 -140 29 -140 11 -173 C0 -193 -23 -208 -45 -208 C-60 -208 -71 -201 -71 -190 C-71 -186 -70 -179 -67 -170 C-65 -161 -63 -150 -63 -143 C-63 -123 -78 -110 -102 -110 C-132 -110 -150 -129 -150 -161 C-150 -201 -114 -230 -63 -230 C-5 -230 50 -189 92 -114 C121 -63 147 23 170 145 L218 395 Z M511 395 L616 395 L621 415 L515 415 L526 466 C544 554 549 571 567 605 C583 635 614 656 641 656 C657 656 668 647 668 635 C668 629 667 623 665 618 C657 594 657 594 657 584 C657 562 672 549 698 549 C730 549 748 569 748 604 C748 649 709 680 651 680 C598 680 548 651 508 598 C474 552 454 506 430 415 L336 415 L332 395 L426 395 L400 267 L369 101 C323 -140 323 -140 305 -173 C294 -193 271 -208 249 -208 C234 -208 223 -201 223 -190 C223 -186 224 -179 227 -170 C229 -161 231 -150 231 -143 C231 -123 216 -110 192 -110 C162 -110 144 -129 144 -161 C144 -201 180 -230 231 -230 C289 -230 344 -189 386 -114 C415 -63 441 23 464 145 L511 395 Z " />
</font>
</svg>
