<?xml version="1.0" standalone="no"?>
<!DOCTYPE svg PUBLIC "-//W3C//DTD SVG 1.1//EN" "http://www.w3.org/Graphics/SVG/1.1/DTD/svg11.dtd" >
<svg xmlns="http://www.w3.org/2000/svg">
<metadata>
Created by FontPrep 20130207 at Tue Jul 25 16:14:49 2017
 By Louise Stroud
Copyright (c) 2017 by Emil Bertell. All rights reserved.
</metadata>
<defs>
<font id="b8373655edf1c2898dae81a1bdeb22c2" horiz-adv-x='1024' >
  <font-face 
    font-family="Karu-ExtraBold"
    font-weight="800"
    font-stretch="normal"
    units-per-em="2048"
    panose-1="0 0 9 0 0 0 0 0 0 0"
    ascent="1638"
    descent="-410"
    x-height="979"
    cap-height="1427"
    bbox="-1157 -778 2472 2173"
    underline-thickness="102"
    underline-position="-102"
    unicode-range="U+0020-FB02"
  />
<missing-glyph horiz-adv-x="1019" 
d="M680 -137h-340v-68h143l-143 -96v-68h340v68h-209l143 96h66v68zM612 72v-95h-204v95h204zM680 139h-340v-229h340v229zM680 494h-205v-115h70v47h67v-96h-204v164h-68v-232h340v232zM680 741h-68v-135h-272v-69h340v204zM680 864h-340v-67h135v-76h-135v-68h205v144h135
v67zM475 1061v-72h-67v72h67zM545 1130h-205v-210h340v69h-135v141zM680 1395h-338v-68h133v-76h-135v-67h340v67h-135v76h135v68zM836 1530v-2038h-646v2038h646z" />
    <glyph glyph-name="fi" unicode="fi" horiz-adv-x="1232" 
d="M770 979h383v-979h-383v979zM694 1241q-100 0 -138 -54t-38 -165v-43h146v-285h-146v-694h-383v694h-94v285h94v74q0 270 124 391t378 121q205 0 336 -68l-109 -307q-70 51 -170 51z" />
    <glyph glyph-name="fl" unicode="fl" horiz-adv-x="1212" 
d="M633 1565q160 0 300 -29t212 -74v-1462h-383v1233q-43 6 -92 6q-152 0 -152 -152v-108h146v-285h-146v-694h-383v694h-94v285h94v108q0 256 118 367t380 111z" />
    <glyph glyph-name="f_b" unicode="fb" horiz-adv-x="1857" 
d="M1300 309q63 0 108 44q44 45 44 121q0 197 -147 200q-109 0 -160 -109v-147q44 -109 155 -109zM1829 485q0 -137 -38 -241q-67 -183 -238 -250q-73 -29 -150 -29q-168 0 -258 113v-78h-383v1233q-37 6 -82 6q-94 0 -128 -42t-34 -150v-68h146v-285h-146v-694h-383v694
h-94v285h94v68q0 292 134 405t426 113t450 -99v-567q104 115 273 115t290 -123q121 -122 121 -406z" />
    <glyph glyph-name="f_f_i" unicode="ffi" horiz-adv-x="1931" 
 />
    <glyph glyph-name="f_f_l" unicode="ffl" horiz-adv-x="1908" 
d="M1329 1565q160 0 300 -29t212 -74v-1462h-383v1233q-43 6 -94 6q-152 0 -152 -152v-108h148v-285h-148v-694h-383v694h-92v285h92v108q0 256 118 367t382 111zM602 1239q-84 0 -84 -121v-139h146v-285h-146v-694h-383v694h-94v285h94v190q0 205 93 300t275 95t314 -87
l-92 -277q-51 39 -123 39z" />
    <glyph glyph-name="f_h" unicode="fh" horiz-adv-x="1789" 
d="M1421 1016q147 0 227 -87t81 -259v-670h-383v553q0 123 -93 123q-72 0 -106 -84v-592h-383v1227q-45 12 -94 12q-104 0 -134 -70q-17 -39 -18 -100v-90h146v-285h-146v-694h-383v694h-94v285h94v106q0 260 119 370t387 110q330 0 506 -109v-590q84 150 274 150z" />
    <glyph glyph-name="f_k" unicode="fk" horiz-adv-x="1816" 
d="M1145 0h-383v1229q-43 10 -94 10q-101 0 -132 -71q-17 -38 -18 -101v-88h146v-285h-146v-694h-383v694h-94v285h94v102q0 271 113 377t377 107q162 0 303 -29t217 -72v-786l231 301h447l-295 -336l295 -643h-457l-129 311l-92 -104v-207z" />
    <glyph glyph-name=".notdef" horiz-adv-x="1019" 
d="M680 -137h-340v-68h143l-143 -96v-68h340v68h-209l143 96h66v68zM612 72v-95h-204v95h204zM680 139h-340v-229h340v229zM680 494h-205v-115h70v47h67v-96h-204v164h-68v-232h340v232zM680 741h-68v-135h-272v-69h340v204zM680 864h-340v-67h135v-76h-135v-68h205v144h135
v67zM475 1061v-72h-67v72h67zM545 1130h-205v-210h340v69h-135v141zM680 1395h-338v-68h133v-76h-135v-67h340v67h-135v76h135v68zM836 1530v-2038h-646v2038h646z" />
    <glyph glyph-name=".null" 
 />
    <glyph glyph-name="nonmarkingreturn" horiz-adv-x="681" 
 />
    <glyph glyph-name="space" unicode=" " horiz-adv-x="311" 
 />
    <glyph glyph-name="exclam" unicode="!" horiz-adv-x="679" 
d="M127 162q0 140 106 199q49 28 122 28t134 -61q61 -60 61 -150t-60 -151t-149 -61t-151 60q-62 62 -63 136zM539 1427l-19 -966h-364l-21 966h404z" />
    <glyph glyph-name="quotedbl" unicode="&#x22;" horiz-adv-x="925" 
d="M870 1530l-73 -586h-279l-37 586h389zM442 1530l-34 -586h-279l-74 586h387z" />
    <glyph glyph-name="numbersign" unicode="#" horiz-adv-x="1310" 
d="M707 625l41 190h-152l-41 -190h152zM1284 815h-172l-41 -190h115v-324h-185l-65 -301h-365l64 301h-150l-63 -301h-367l66 301h-94v324h163l41 190h-106v324h176l61 288h367l-63 -288h151l62 288h364l-61 -288h102v-324z" />
    <glyph glyph-name="dollar" unicode="$" horiz-adv-x="1026" 
d="M991 461q-1 -158 -71 -264t-201 -154v-193h-348v162q-182 23 -336 107l88 358q169 -106 323 -106t154 71q0 36 -30 56t-113 47q-213 63 -309 174q-95 111 -95 278t82 273t240 145v154h348v-150q141 -23 250 -71l-133 -342q-145 78 -281 77q-104 0 -104 -65q0 -37 30 -62
q30 -24 118 -53q87 -29 149 -59q155 -77 209 -207q30 -76 30 -176z" />
    <glyph glyph-name="percent" unicode="%" horiz-adv-x="1724" 
d="M1450 312q0 122 -115 122q-41 0 -69 -33t-29 -81q0 -48 29 -80q30 -32 78 -31q48 -1 77 31t29 72zM1698 319q0 -151 -97 -253t-259 -102t-257 100q-96 101 -96 252t95 254q95 104 257 104q161 0 259 -102t98 -253zM485 1110q0 47 -28 81q-29 34 -78 34t-77 -34t-28 -81
t29 -79t77 -32t77 32q28 32 28 79zM1341 1427l-571 -1427h-385l571 1427h385zM27 1109q0 153 96 254t256 101t257 -101t97 -253t-96 -255t-257 -102t-257 102t-96 254z" />
    <glyph glyph-name="ampersand" unicode="&#x26;" horiz-adv-x="1339" 
d="M559 285q51 0 96 10l-190 221q-68 -47 -68 -113q0 -118 162 -118zM624 1143q-81 0 -108 -49q-12 -23 -12 -52q0 -76 100 -190l6 -6q117 76 117 180q0 53 -29 85t-74 32zM31 332q0 256 270 377q-97 125 -121 208t-24 150q0 186 119 291q121 104 337 104t330 -93t115 -269
q0 -228 -191 -374q-47 -36 -98 -58l147 -168q35 84 33 196h338q0 -285 -133 -467l201 -229h-443l-24 29q-156 -63 -369 -64q-487 0 -487 367z" />
    <glyph glyph-name="quotesingle" unicode="'" horiz-adv-x="497" 
d="M442 1530l-55 -586h-276l-56 586h387z" />
    <glyph glyph-name="parenleft" unicode="(" horiz-adv-x="665" 
d="M434 645q0 -582 215 -936l-307 -176q-133 186 -217 474t-84 638q0 238 42 456q77 400 259 656l307 -176q-215 -354 -215 -936z" />
    <glyph glyph-name="parenright" unicode=")" horiz-adv-x="673" 
d="M231 653q0 590 -215 946l308 175q181 -250 258 -666q41 -221 41 -463q0 -350 -84 -638t-215 -474l-308 176q215 354 215 944z" />
    <glyph glyph-name="asterisk" unicode="*" horiz-adv-x="919" 
d="M887 1124l-250 -45l205 -211l-271 -157l-100 288l-102 -288l-271 157l203 207l-266 49l112 291l222 -153l-70 282h313l-55 -280l217 151z" />
    <glyph glyph-name="plus" unicode="+" horiz-adv-x="1138" 
d="M1032 848v-336h-291v-313h-346v313h-291v336h291v311h346v-311h291z" />
    <glyph glyph-name="comma" unicode="," horiz-adv-x="565" 
d="M290 385q93 0 152 -72t60 -209q0 -192 -93 -352t-251 -229l-121 178q178 104 225 262q-105 4 -159 100q-26 47 -25 109q0 98 59 156q60 57 153 57z" />
    <glyph glyph-name="hyphen" unicode="-" horiz-adv-x="837" 
d="M66 395v326h708v-326h-708z" />
    <glyph glyph-name="period" unicode="." horiz-adv-x="598" 
d="M78 162q0 140 105 199q48 28 122 28t135 -61q62 -60 62 -150t-62 -151t-150 -61t-150 60q-62 62 -62 136z" />
    <glyph glyph-name="slash" unicode="/" horiz-adv-x="1075" 
d="M1055 1661l-647 -1890h-385l647 1890h385z" />
    <glyph glyph-name="zero" unicode="0" horiz-adv-x="1388" 
d="M696 350q226 0 226 364t-224 365q-231 0 -231 -362q0 -183 59 -275t170 -92zM697 -35q-310 0 -481 199t-171 551t177 550t476 197q197 0 342 -86q146 -86 226 -255t80 -404q0 -358 -170 -555t-479 -197z" />
    <glyph glyph-name="one" unicode="1" horiz-adv-x="716" 
d="M569 1427v-1427h-401v1081h-117v346h518z" />
    <glyph glyph-name="two" unicode="2" horiz-adv-x="1153" 
d="M1112 358v-358h-1026v326l225 200q153 134 219 232t66 180q0 147 -147 147q-133 0 -279 -118l-193 297q223 199 543 198q227 0 366 -114q138 -116 138 -320t-87 -348t-251 -285l-43 -37h469z" />
    <glyph glyph-name="three" unicode="3" horiz-adv-x="1148" 
d="M508 348q164 0 164 125q0 41 -26 68q-47 49 -146 49h-121l2 262h106q166 0 166 121q1 113 -151 113t-287 -101l-172 291q215 186 567 186q207 0 340 -98t133 -291q0 -246 -211 -342q224 -101 228 -348q0 -209 -148 -313t-399 -105q-319 0 -530 185l182 317
q75 -61 139 -90t164 -29z" />
    <glyph glyph-name="four" unicode="4" horiz-adv-x="1230" 
d="M659 575v414l-206 -414h206zM1227 575v-344h-178v-231h-390v231h-614v334l496 865h508v-855h178z" />
    <glyph glyph-name="five" unicode="5" horiz-adv-x="1107" 
d="M674 895q184 0 294 -102t109 -322q0 -378 -339 -477q-99 -29 -220 -29q-313 0 -522 172l164 336q133 -127 307 -127q78 0 129 37t51 99t-31 91t-84 29q-86 0 -141 -72l-287 101v796h879v-362h-502v-209q89 39 193 39z" />
    <glyph glyph-name="six" unicode="6" horiz-adv-x="1236" 
d="M492 472q0 -60 44 -98t112 -38q69 0 112 37t43 99t-39 95t-111 33q-73 0 -117 -34t-44 -94zM772 891q195 1 317 -105t121 -317q0 -145 -64 -258t-194 -179q-129 -66 -305 -67q-289 -1 -443 189t-155 546q0 356 177 560t466 202q289 0 461 -155l-209 -303q-92 84 -212 84
q-243 -1 -259 -304q104 107 299 107z" />
    <glyph glyph-name="seven" unicode="7" horiz-adv-x="991" 
d="M20 1427h1002l-377 -1427h-440l311 1065h-496v362z" />
    <glyph glyph-name="eight" unicode="8" horiz-adv-x="1224" 
d="M453 461q1 -125 173 -125q62 0 104 33t42 91t-42 89t-118 31q-159 0 -159 -119zM745 970q0 60 -35 93q-36 33 -98 33t-97 -33q-36 -33 -36 -93t36 -96t97 -36t98 35q35 37 35 97zM1178 371q0 -406 -566 -406t-565 406q0 250 215 348q-172 113 -172 344q0 182 131 291
q131 108 391 108t392 -108q131 -109 131 -291q0 -231 -172 -344q215 -98 215 -348z" />
    <glyph glyph-name="nine" unicode="9" horiz-adv-x="1241" 
d="M616 829q64 0 108 35t44 94q0 58 -39 96t-107 38t-107 -35q-38 -35 -38 -97t37 -97q38 -34 102 -34zM563 -35q-318 0 -514 174l187 324q115 -121 284 -121q125 0 194 75t70 228q-100 -106 -286 -106q-256 0 -365 184q-57 97 -57 227q0 239 141 376q142 136 411 136
t426 -192q156 -193 156 -525q2 -385 -164 -583t-483 -197z" />
    <glyph glyph-name="colon" unicode=":" horiz-adv-x="641" 
d="M78 183q0 89 61 151t151 61q90 0 150 -61q62 -60 62 -150t-62 -151t-150 -61t-150 60q-62 62 -62 151zM78 876q0 138 105 200q48 28 122 28t135 -62q62 -62 62 -150t-62 -150t-150 -62q-89 0 -151 61q-61 61 -61 135z" />
    <glyph glyph-name="semicolon" unicode=";" horiz-adv-x="602" 
d="M290 385q93 0 152 -72t60 -209q0 -192 -93 -352t-251 -229l-121 178q178 104 225 262q-105 4 -159 100q-26 47 -25 109q0 98 59 156q60 57 153 57zM301 1104q74 0 135 -62q62 -62 62 -150t-62 -150t-150 -62q-89 0 -151 61q-61 61 -61 135t28 123q62 105 199 105z" />
    <glyph glyph-name="less" unicode="&#x3c;" horiz-adv-x="978" 
d="M872 1196v-373l-489 -161l489 -173v-372l-845 352v393z" />
    <glyph glyph-name="equal" unicode="=" horiz-adv-x="1138" 
d="M104 596h930v-336h-930v336zM104 1065h930v-334h-930v334z" />
    <glyph glyph-name="greater" unicode="&#x3e;" horiz-adv-x="978" 
d="M104 1196l846 -334v-393l-846 -352v372l490 173l-490 161v373z" />
    <glyph glyph-name="question" unicode="?" horiz-adv-x="1040" 
d="M498 389q88 0 149 -61q61 -60 61 -150t-60 -151q-62 -61 -151 -61t-151 60q-62 62 -61 151q0 89 62 151q63 61 151 61zM543 1462q187 0 309 -86q137 -93 137 -332q0 -160 -78 -262t-221 -139l-4 -174h-364l-9 360h62q104 0 157 39t54 111q0 121 -146 121q-117 0 -227 -96
l-180 270q209 188 510 188z" />
    <glyph glyph-name="at" unicode="@" horiz-adv-x="1867" 
d="M809 539q0 -166 115 -166q90 0 125 80v157q-33 96 -117 97q-55 0 -89 -42t-34 -126zM1354 940v-491q0 -150 73 -150q47 0 73 63q26 62 26 228q0 460 -345 576q-99 34 -222 34t-235 -46t-197 -132t-134 -221t-49 -272q0 -369 215 -539q153 -121 397 -121q152 0 263 26
t235 82l62 -231q-242 -119 -560 -119q-256 -3 -450 97t-306 300q-110 200 -110 448q0 468 259 722q120 118 278 182t332 64q347 0 577 -200q116 -99 180 -264t64 -381t-84 -368q-43 -78 -122 -123t-183 -45t-183 43q-78 43 -118 123q-98 -127 -252 -127t-245 106t-91 331
q0 326 212 412q58 24 128 24q150 0 225 -115l16 84h271z" />
    <glyph glyph-name="A" unicode="A" horiz-adv-x="1290" 
d="M520 565h203l-111 426zM868 0l-61 242h-358l-54 -242h-395l389 1427h469l432 -1427h-422z" />
    <glyph glyph-name="B" unicode="B" horiz-adv-x="1306" 
d="M723 356q63 0 102 33t39 96q0 117 -143 117h-201v-246h203zM801 967q0 109 -139 108h-142v-225h144q137 0 137 117zM1264 436q0 -204 -132 -320t-399 -116h-614v1427h641q278 0 381 -157q53 -82 53 -203q0 -205 -172 -297q114 -33 178 -118t64 -216z" />
    <glyph glyph-name="C" unicode="C" horiz-adv-x="1341" 
d="M733 -35q-322 0 -504 197.5t-182 548t206 551t525 200.5t535 -188l-213 -336q-121 133 -314 133q-139 0 -227 -92t-90 -262t81 -263.5t230 -93.5q225 0 359 170l176 -354q-84 -96 -240 -153.5t-342 -57.5z" />
    <glyph glyph-name="D" unicode="D" horiz-adv-x="1421" 
d="M588 1067h-68v-705h68q178 0 265 99.5t89 271.5q2 334 -354 334zM623 1427q348 0 546.5 -171t198.5 -525t-200.5 -542.5t-544.5 -188.5h-504v1427h504z" />
    <glyph glyph-name="E" unicode="E" horiz-adv-x="1163" 
d="M1108 1069h-588v-178h436v-320h-436v-209h588v-362h-991v1427h991v-358z" />
    <glyph glyph-name="F" unicode="F" horiz-adv-x="1120" 
d="M1100 1065h-578v-199h426v-329h-426v-537h-403v1427h981v-362z" />
    <glyph glyph-name="G" unicode="G" horiz-adv-x="1404" 
d="M692 856h639v-790q-289 -100 -599 -100t-497.5 195t-187.5 551t196.5 553t532.5 197t541 -196l-244 -297q-121 106 -281 106t-245.5 -98t-85.5 -266t80 -263.5t229 -95.5q94 0 160 21v162h-238v321z" />
    <glyph glyph-name="H" unicode="H" horiz-adv-x="1406" 
d="M891 1427h399v-1427h-399v541h-373v-541h-401v1427h401v-518h373v518z" />
    <glyph glyph-name="I" unicode="I" horiz-adv-x="634" 
d="M518 1427v-1427h-401v1427h401z" />
    <glyph glyph-name="J" unicode="J" horiz-adv-x="954" 
d="M299 328q84 0 126 50t42 175v874h401v-837q0 -352 -150.5 -488.5t-377.5 -136.5q-113 0 -208 33t-157 84l105 369q84 -123 219 -123z" />
    <glyph glyph-name="K" unicode="K" horiz-adv-x="1310" 
d="M520 0h-401v1427h401v-458l316 458h464l-389 -520l389 -907h-475l-202 518l-103 -137v-381z" />
    <glyph glyph-name="L" unicode="L" horiz-adv-x="1019" 
d="M117 1427h403v-1065h484v-362h-887v1427z" />
    <glyph glyph-name="M" unicode="M" horiz-adv-x="1730" 
d="M1227 0v702l-221 -589h-295l-224 596v-709h-370v1427h481l279 -686l256 686h460l21 -1427h-387z" />
    <glyph glyph-name="N" unicode="N" horiz-adv-x="1384" 
d="M897 1427h371v-1427h-377l-404 666v-666h-370v1427h372l408 -677v677z" />
    <glyph glyph-name="O" unicode="O" horiz-adv-x="1560" 
d="M792 354q84 0 155 44q145 90 145 319q0 166 -83 262t-228.5 96t-228.5 -96t-83 -262q0 -256 181 -337q58 -26 142 -26zM780 -35q-219 0 -384 88t-258 259t-93 405q0 346 206 545.5t529.5 199.5t529.5 -199.5t206 -548.5t-201 -549t-535 -200z" />
    <glyph glyph-name="P" unicode="P" horiz-adv-x="1243" 
d="M668 815q102 0 132 76q9 25 9 55q0 119 -143 119h-146v-250h148zM707 1427q524 0 524 -477q0 -248 -136 -366t-384 -119h-191v-465h-401v1427h588z" />
    <glyph glyph-name="Q" unicode="Q" horiz-adv-x="1558" 
d="M1362 -418h-801v316h801v-316zM792 354q84 0 155 44q145 90 145 319q0 166 -83 262t-228.5 96t-228.5 -96t-83 -262q0 -256 181 -337q58 -26 142 -26zM780 -35q-219 0 -384 88t-258 259t-93 405q0 346 206 545.5t529.5 199.5t529.5 -199.5t206 -548.5t-201 -549
t-535 -200z" />
    <glyph glyph-name="R" unicode="R" horiz-adv-x="1327" 
d="M680 819q131 0 131 133q0 51 -36 82t-97 31h-158v-246h160zM1233 967q0 -273 -221 -404l291 -563h-476l-221 496h-86v-496h-401v1427h606q242 0 375 -115.5t133 -344.5z" />
    <glyph glyph-name="S" unicode="S" horiz-adv-x="1064" 
d="M481 -35q-264 0 -469 135l138 367q141 -129 327 -129q143 0 144 84q0 41 -32 61.5t-112 44.5q-217 63 -322.5 178t-105.5 308.5t122.5 319.5t363.5 126q295 0 503 -121l-186 -346q-78 65 -194 91q-52 12 -99 12q-100 0 -100 -70q0 -40 34.5 -63t117.5 -48
q168 -49 284 -144q135 -110 135 -339.5t-142.5 -348t-406.5 -118.5z" />
    <glyph glyph-name="T" unicode="T" horiz-adv-x="1064" 
d="M1049 1427v-368h-312v-1059h-401v1059h-313v368h1026z" />
    <glyph glyph-name="U" unicode="U" horiz-adv-x="1314" 
d="M658 -35q-280 0 -435 167t-155 476v819h401v-845q0 -111 48 -172.5t141.5 -61.5t140.5 61.5t47 172.5v845h401v-819q0 -313 -154.5 -478t-434.5 -165z" />
    <glyph glyph-name="V" unicode="V" horiz-adv-x="1357" 
d="M928 1427h415l-450 -1427h-469l-408 1427h430l179 -753q29 -137 47 -252q27 141 57 262z" />
    <glyph glyph-name="W" unicode="W" horiz-adv-x="1941" 
d="M1509 1427h412l-309 -1427h-463l-131 510q-20 90 -55 246q-37 -160 -60 -244l-139 -512h-463l-281 1427h435l77 -710q0 -10 8.5 -100.5t12.5 -137.5q27 150 49 238l193 706h372l168 -686q31 -121 49 -250q25 176 31 244z" />
    <glyph glyph-name="X" unicode="X" horiz-adv-x="1292" 
d="M1276 0h-436l-201 477l-182 -477h-441l369 739l-348 688h434l184 -448l168 448h432l-337 -677z" />
    <glyph glyph-name="Y" unicode="Y" horiz-adv-x="1259" 
d="M836 0h-402v465l-424 962h436l189 -571l184 571h432l-415 -927v-500z" />
    <glyph glyph-name="Z" unicode="Z" horiz-adv-x="1130" 
d="M1102 358v-358h-1041v336l484 729h-510v362h1024v-333l-508 -736h551z" />
    <glyph glyph-name="bracketleft" unicode="[" horiz-adv-x="653" 
d="M610 1417h-155v-1548h155v-295h-538v2138h538v-295z" />
    <glyph glyph-name="backslash" unicode="\" horiz-adv-x="1003" 
d="M1055 -229h-385l-647 1890h385z" />
    <glyph glyph-name="bracketright" unicode="]" horiz-adv-x="653" 
d="M43 1712h539v-2138h-539v295h156v1548h-156v295z" />
    <glyph glyph-name="asciicircum" unicode="^" horiz-adv-x="1173" 
d="M1126 684h-372l-162 490l-172 -490h-373l352 846h394z" />
    <glyph glyph-name="underscore" unicode="_" horiz-adv-x="1030" 
d="M66 -297v262h899v-262h-899z" />
    <glyph glyph-name="grave" unicode="`" horiz-adv-x="1228" 
d="M580 1128h-258l-281 461h375z" />
    <glyph glyph-name="a" unicode="a" horiz-adv-x="1021" 
d="M480 371q-100 0 -101 -80q0 -37 23.5 -57.5t64.5 -20.5q82 0 119 63v66q-52 29 -106 29zM522 1014q221 0 327.5 -105.5t106.5 -337.5v-571h-370v59q-100 -94 -248.5 -94t-231.5 79t-83 236.5t98 243.5t232 86t231 -47q-4 70 -40 99.5t-110 29.5q-135 0 -241 -61l-127 266
q182 117 456 117z" />
    <glyph glyph-name="b" unicode="b" horiz-adv-x="1161" 
d="M604 309q66 0 109 44t43 136q0 93 -41 139t-107 46q-109 0 -157 -109v-147q44 -109 153 -109zM1135 510q-1 -117 -19 -196t-49 -135q-64 -115 -161 -164q-97 -50 -199 -50q-168 0 -256 113v-78h-383v1530h383v-631q102 115 271 115t285 -117q58 -59 93 -165t35 -222z" />
    <glyph glyph-name="c" unicode="c" horiz-adv-x="935" 
d="M510 -35q-213 0 -348 135.5t-135 387.5t146 389t375.5 137t375.5 -146l-226 -252q-49 57 -131 57.5t-124 -47.5t-42 -132t41 -133.5t126 -49.5t149 78l213 -254q-66 -78 -176.5 -124t-243.5 -46z" />
    <glyph glyph-name="d" unicode="d" horiz-adv-x="1159" 
d="M561 307q109 0 152 90v193q-41 92 -148 92q-72 0 -115.5 -46t-43.5 -141t42.5 -141.5t112.5 -46.5zM713 1530h383v-1530h-383v80q-104 -115 -269 -115t-290 120q-125 121 -125 405q0 140 36.5 245t98.5 163q125 116 291 116t258 -117v633z" />
    <glyph glyph-name="e" unicode="e" horiz-adv-x="1015" 
d="M518 725q-100 0 -117 -143h224q-13 143 -107 143zM991 532v-102h-590q14 -72 58.5 -103.5t156.5 -31.5t256 61l117 -274q-178 -117 -439 -117t-393 135.5t-132 381.5t139 389t360 143t344 -119t123 -363z" />
    <glyph glyph-name="f" unicode="f" horiz-adv-x="696" 
d="M602 1239q-84 0 -84 -121v-139h146v-285h-146v-694h-383v694h-94v285h94v190q0 205 93 300t275 95t314 -87l-92 -277q-51 39 -123 39z" />
    <glyph glyph-name="g" unicode="g" horiz-adv-x="991" 
d="M488 -256q163 0 163 82q0 57 -84 57h-207q-35 -20 -34 -61q-1 -78 162 -78zM475 743q-55 0 -87 -26.5t-32 -76.5t32 -75.5t87 -25.5q119 0 119 100q0 51 -32 77.5t-87 26.5zM31 169.5q0 132.5 114 217.5q-88 100 -88 265t108.5 263.5t291.5 98.5q115 0 205 -35h296v-272
h-71q6 -31 6 -64q0 -176 -121 -278.5t-315 -102.5q-59 0 -115 12q-16 -20 -16 -45q0 -53 55 -53h221q180 0 282.5 -84t102.5 -246q0 -203 -135 -296t-371 -93q-471 0 -471 297q0 129 105 207q-84 76 -84 208.5z" />
    <glyph glyph-name="h" unicode="h" horiz-adv-x="1093" 
d="M1032 670v-670h-383v553q0 123 -92 123q-72 0 -106 -84v-592h-383v1530h383v-664q83 150 267 150q314 0 314 -346z" />
    <glyph glyph-name="i" unicode="i" horiz-adv-x="538" 
d="M78 0v979h383v-979h-383zM424 1446q64 -63 63 -155q1 -92 -63 -154t-153 -62q-89 -1 -152 63t-64 153t63 154t153 65t153 -64z" />
    <glyph glyph-name="j" unicode="j" horiz-adv-x="589" 
d="M98 -61v1040h383v-1040q0 -242 -103 -360t-351 -142l-105 319q90 4 133 48t43 135zM96 1342q0 74 64 138t152 64q89 0 153 -64q63 -65 63 -154t-63 -152q-63 -64 -137 -64t-124 29t-79 79t-29 124z" />
    <glyph glyph-name="k" unicode="k" horiz-adv-x="1120" 
d="M451 0h-383v1530h383v-852l229 301h446l-295 -336l295 -643h-454l-131 311l-90 -104v-207z" />
    <glyph glyph-name="l" unicode="l" horiz-adv-x="516" 
d="M451 1530v-1530h-383v1530h383z" />
    <glyph glyph-name="m" unicode="m" horiz-adv-x="1632" 
d="M1280 1014q141 0 217 -86t76 -258v-670h-383v559q0 113 -82 113q-63 0 -96 -78v-594h-383v559q0 113 -86 113q-59 0 -92 -76v-596h-383v979h383v-115q86 150 270 150q211 0 270 -191q80 191 289 191z" />
    <glyph glyph-name="n" unicode="n" horiz-adv-x="1095" 
d="M729 1014q143 0 224 -87t81 -257v-670h-383v549q0 123 -92 123q-72 0 -108 -80v-592h-383v979h383v-115q85 150 278 150z" />
    <glyph glyph-name="o" unicode="o" horiz-adv-x="1120" 
d="M560 315q73 0 116 46.5t43 116.5q-1 70 -21 112q-42 84 -137 80q-115 0 -149 -100q-12 -34 -11 -76q0 -88 43 -133.5t116 -45.5zM560 -35q-243 0 -389 139.5t-146 386.5t147 385t388 138t388.5 -138.5t147.5 -385t-146.5 -386t-389.5 -139.5z" />
    <glyph glyph-name="p" unicode="p" horiz-adv-x="1165" 
d="M600 315q70 0 114 43t44 130q0 88 -42 134t-112 46q-123 0 -153 -129v-76q26 -148 149 -148zM1135 485q0 -394 -271 -493q-74 -27 -159 -27q-166 0 -254 113v-582h-383v1483h383v-135q96 170 296 170t306 -167q82 -129 82 -362z" />
    <glyph glyph-name="q" unicode="q" horiz-adv-x="1155" 
d="M561 307q109 0 152 90v193q-41 92 -137 92t-140 -62q-30 -47 -30 -134q0 -86 42 -132t113 -47zM713 979h383v-1487h-383v590q-106 -117 -270 -117t-284 116q-59 57 -95 163t-35 245q0 139 37 245t99 164q123 116 290 116q166 0 258 -117v82z" />
    <glyph glyph-name="r" unicode="r" horiz-adv-x="768" 
d="M684 1010q49 0 76 -15l-2 -333q-254 45 -307 -232v-430h-383v979h383v-193q33 102 91 163t142 61z" />
    <glyph glyph-name="s" unicode="s" horiz-adv-x="872" 
d="M43 685q0 155 107.5 243t312 88t352.5 -82l-119 -275q-104 59 -229 60q-72 0 -72 -36t99 -56q330 -57 329 -318q0 -166 -114.5 -255t-327.5 -89t-346 82l92 281q118 -72 229 -72t111 41q0 20 -17.5 28.5t-62.5 16.5q-166 29 -255 108.5t-89 234.5z" />
    <glyph glyph-name="t" unicode="t" horiz-adv-x="770" 
d="M451.5 -35q-179.5 0 -265.5 95.5t-86 304.5v329h-84v285h84v285h383v-285h215v-285h-215v-280q0 -111 74 -111q58 0 117 39l94 -295q-137 -82 -316.5 -82z" />
    <glyph glyph-name="u" unicode="u" horiz-adv-x="1085" 
d="M633 979h383v-979h-383v113q-82 -147 -275 -148q-145 0 -222 86t-77 258v670h383v-549q0 -123 90 -123q68 0 101 78v594z" />
    <glyph glyph-name="v" unicode="v" horiz-adv-x="1112" 
d="M709 979h409l-364 -979h-439l-321 979h407l148 -633z" />
    <glyph glyph-name="w" unicode="w" horiz-adv-x="1568" 
d="M1165 979h398l-301 -979h-371l-133 465l-158 -465h-360l-234 979h395l64 -485l143 481h338l125 -461z" />
    <glyph glyph-name="x" unicode="x" horiz-adv-x="1056" 
d="M1047 0h-408l-115 250l-104 -250h-410l285 477l-281 502h408l110 -262l101 262h407l-280 -479z" />
    <glyph glyph-name="y" unicode="y" horiz-adv-x="1122" 
d="M715 979h399l-565 -1487h-399l219 510l-361 977h408l143 -520z" />
    <glyph glyph-name="z" unicode="z" horiz-adv-x="851" 
d="M831 295v-295h-794v291l305 395h-322v293h785v-283l-322 -401h348z" />
    <glyph glyph-name="braceleft" unicode="{" horiz-adv-x="733" 
d="M481 -22q1 -96 93 -97q44 0 112 29v-307q-123 -29 -265 -29t-233 74q-90 74 -90 231q0 74 46 257t46 249q0 65 -28 93t-99 28v307q72 0 100 28q27 29 27 95t-46 248t-46 256q0 158 90 232t232 73q142 0 266 -29v-307q-68 29 -113 29q-92 0 -92 -95q0 -53 39 -196t39 -250
q0 -184 -156 -238q156 -53 156 -237q0 -106 -39 -250q-39 -142 -39 -194z" />
    <glyph glyph-name="bar" unicode="|" horiz-adv-x="735" 
d="M559 1661v-1890h-383v1890h383z" />
    <glyph glyph-name="braceright" unicode="}" horiz-adv-x="733" 
d="M252 1341q0 97 -92 97q-46 0 -111 -29v307q121 29 263 29t232 -74t91 -231q0 -74 -45 -256t-45 -249q-1 -67 27 -95t98 -27v-307q-93 0 -114 -50q-11 -26 -11 -82t45 -238q45 -183 45 -257q0 -157 -90 -231q-91 -74 -233 -74t-263 29v307q66 -29 106 -29t56 8
q41 20 41 80q0 59 -39 203t-39 250q0 184 156 237q-156 53 -156 238q0 105 39 249t39 195z" />
    <glyph glyph-name="asciitilde" unicode="~" horiz-adv-x="987" 
d="M292 627q-42 -1 -86 -19t-69 -36t-71 -56v320q113 117 237 116q66 0 200 -70t184 -69q87 0 162 55q26 18 73 56v-324q-106 -113 -240 -113q-59 0 -135 35q-77 35 -145 70t-110 35z" />
    <glyph glyph-name="exclamdown" unicode="&#xa1;" horiz-adv-x="679" 
d="M539 -444h-404l21 966h364zM127 806q1 90 63 150q62 62 151 62t149 -62t60 -134q1 -141 -103 -200q-47 -28 -121 -28t-137 61q-62 61 -62 151z" />
    <glyph glyph-name="cent" unicode="&#xa2;" horiz-adv-x="946" 
d="M344 -2v252q-150 47 -236 179t-88 341q0 271 157 415q73 67 169 99v246h348v-236q135 -29 232 -98l-168 -281q-72 57 -169 57t-147 -51q-50 -53 -49 -147q0 -94 47 -147t135 -54q125 0 205 80l148 -280q-70 -74 -223 -117l-15 -258h-346z" />
    <glyph glyph-name="sterling" unicode="&#xa3;" horiz-adv-x="1148" 
d="M707 1094q-160 0 -160 -179v-41h371v-321h-320q16 -72 43 -162l8 -31h453v-360h-1049v360h193q-8 39 -56 193h-145v321h82q-2 35 -2 68q0 260 136 390t380 130q133 0 253 -35t200 -88l-172 -325q-100 80 -215 80z" />
    <glyph glyph-name="currency" unicode="&#xa4;" horiz-adv-x="1126" 
d="M564 938q-81 0 -132 -52t-51 -143q0 -90 51 -143t132 -53t131 54t50 142q0 87 -50 141t-131 54zM1104 742q0 -181 -86 -310l112 -164l-286 -194l-113 164q-154 -40 -315 -7l-111 -157l-287 194l103 148q-96 132 -96 326t100 327l-107 154l287 196l117 -170q156 32 301 -4
l121 174l286 -196l-116 -170q90 -130 90 -311z" />
    <glyph glyph-name="yen" unicode="&#xa5;" horiz-adv-x="1286" 
d="M1163 922v-322h-313v-78h313v-321h-313v-201h-401v201h-314v321h314v78h-314v322h156l-262 505h434l186 -487l178 487h433l-267 -505h170z" />
    <glyph glyph-name="brokenbar" unicode="&#xa6;" horiz-adv-x="735" 
d="M559 651v-880h-383v880h383zM559 1661v-881h-383v881h383z" />
    <glyph glyph-name="section" unicode="&#xa7;" horiz-adv-x="1136" 
d="M395 598q0 -48 45 -82q45 -32 129 -52t123 -32q41 4 65 26q23 22 23 58t-45 57q-45 20 -131 45t-110 31q-23 6 -54 17q-45 -20 -45 -68zM1139 590q-1 -90 -57 -163t-154 -105q125 -98 125 -274t-124 -288q-124 -110 -394 -110t-506 121l137 307q158 -100 331 -100t173 67
q0 31 -54 53t-217 52q-176 46 -269 126t-93 221t86 222q41 39 100 61q-121 106 -121 305q0 163 122 269t372 108q135 -2 275 -28t237 -72l-145 -324q-176 94 -347 92q-110 0 -124 -34q-5 -12 -5 -25q-1 -39 47 -70t179 -57q200 -47 301 -110q125 -80 125 -244z" />
    <glyph glyph-name="dieresis" unicode="&#xa8;" horiz-adv-x="1228" 
d="M508 1369q0 83 59.5 142.5t142.5 59.5t140 -59.5t57 -127.5t-25.5 -114.5t-71.5 -73.5t-114 -27t-128 58.5t-60 141.5zM41 1369q0 83 59.5 142.5t141.5 59.5t140 -59.5t58 -142.5t-58 -141.5t-140 -58.5t-141.5 58.5t-59.5 141.5z" />
    <glyph glyph-name="copyright" unicode="&#xa9;" horiz-adv-x="1832" 
d="M934 283q-275 0 -394 218q-62 114 -63 275q0 230 135 360q134 130 346 130t345 -117l-185 -258q-56 49 -116 49q-160 0 -160 -162q0 -76 37 -121t113 -45t151 68l172 -248q-59 -66 -155 -108t-226 -41zM1577 762q0 158 -54 289q-53 131 -145 217t-212 134t-251 48
t-249 -48q-251 -102 -356 -351q-54 -131 -54 -315t90 -339t238 -233t308 -78t280 46q252 96 353 343q52 129 52 287zM121 760q0 352 216 577t577 225q362 0 580 -230q218 -232 218 -571t-217 -567t-582 -228t-579 220q-214 222 -213 574z" />
    <glyph glyph-name="guillemotleft" unicode="&#xab;" horiz-adv-x="1140" 
d="M1079 1077v-372l-235 -130l235 -137v-372l-497 337v355zM43 403v355l485 319v-372l-227 -130l227 -137v-372z" />
    <glyph glyph-name="logicalnot" unicode="&#xac;" horiz-adv-x="1140" 
d="M1049 909v-567h-336v231h-609v336h945z" />
    <glyph glyph-name="registered" unicode="&#xae;" horiz-adv-x="1126" 
d="M524 1223v-84h35q53 0 53 42t-51 42h-37zM786 1194q0 -100 -73 -147l100 -201h-195l-65 168h-29v-168h-166v528h232q196 0 196 -180zM564 682q171 0 282 106q110 106 110 296t-111 302q-112 111 -282 111q-169 0 -281 -111t-112 -301q0 -191 112 -297t282 -106zM66 1085
q0 221 135 361t361 141q226 0 362 -144q136 -143 137 -357q0 -214 -136 -356q-135 -142 -363 -142t-362 138t-134 359z" />
    <glyph glyph-name="macron" unicode="&#xaf;" horiz-adv-x="1228" 
d="M41 1516h733v-318h-733v318z" />
    <glyph glyph-name="degree" unicode="&#xb0;" horiz-adv-x="749" 
d="M377 1001q59 0 94 36q35 37 35 89t-16 82q-34 63 -103 65q-69 1 -106 -37t-37 -100t37 -98t96 -37zM375 786q-109 0 -190 45q-165 92 -165 302q0 157 96 253t259 96q164 0 259 -100t95 -249q0 -95 -42 -175q-43 -80 -123 -126t-189 -46z" />
    <glyph glyph-name="plusminus" unicode="&#xb1;" horiz-adv-x="1138" 
d="M104 377h928v-336h-928v336zM395 461v227h-291v336h291v229h346v-229h291v-336h-291v-227h-346z" />
    <glyph glyph-name="acute" unicode="&#xb4;" horiz-adv-x="1228" 
d="M580 1589l-281 -461h-260l166 461h375z" />
    <glyph glyph-name="paragraph" unicode="&#xb6;" horiz-adv-x="1079" 
d="M573 1427h404v-1644h-402v670h-4q-537 0 -536 491q-1 483 538 483z" />
    <glyph glyph-name="periodcentered" unicode="&#xb7;" horiz-adv-x="598" 
d="M78 701q0 89 61 151t151 63q90 0 150 -62q62 -63 62 -151t-62 -149t-150 -61q-89 0 -151 60q-61 60 -61 149z" />
    <glyph glyph-name="cedilla" unicode="&#xb8;" horiz-adv-x="1228" 
d="M446 -111q96 0 150.5 -54t54.5 -154.5t-42 -164.5q-80 -124 -296 -124q-156 0 -270 73l86 193q20 -20 79.5 -39.5t96.5 -19.5q88 0 88 63q0 53 -49 53q-37 0 -61 -34l-168 55l102 293h225l-67 -150q34 10 71 10z" />
    <glyph glyph-name="guillemotright" unicode="&#xbb;" horiz-adv-x="1140" 
d="M612 1077l486 -319v-355l-486 -337v372l228 137l-228 130v372zM61 705v372l498 -319v-355l-498 -337v372l234 137z" />
    <glyph glyph-name="questiondown" unicode="&#xbf;" horiz-adv-x="1040" 
d="M477 -479q-185 0 -307 86q-139 95 -139 332q0 160 78 262t221 139l6 174h364l9 -360h-64q-141 0 -186 -69q-23 -34 -23 -81q0 -121 144 -121q116 1 227 97l180 -271q-209 -188 -510 -188zM674 956q62 -62 61 -150q0 -90 -61 -151q-60 -61 -150 -61t-151 61t-61 151
t60 150q62 62 151 62t151 -62z" />
    <glyph glyph-name="Agrave" unicode="&#xc0;" horiz-adv-x="1290" 
d="M520 565h203l-111 426zM868 0l-61 242h-358l-54 -242h-395l389 1427h469l432 -1427h-422zM743 1577h-260l-284 461h372z" />
    <glyph glyph-name="Aacute" unicode="&#xc1;" horiz-adv-x="1290" 
d="M520 565h203l-111 426zM868 0l-61 242h-358l-54 -242h-395l389 1427h469l432 -1427h-422zM1128 2005l-389 -428h-297l277 428h409z" />
    <glyph glyph-name="Acircumflex" unicode="&#xc2;" horiz-adv-x="1290" 
d="M520 565h203l-111 426zM868 0l-61 242h-358l-54 -242h-395l389 1427h469l432 -1427h-422zM610 1753l-133 -178h-297l279 481h303l278 -481h-295z" />
    <glyph glyph-name="Atilde" unicode="&#xc3;" horiz-adv-x="1290" 
d="M520 565h203l-111 426zM868 0l-61 242h-358l-54 -242h-395l389 1427h469l432 -1427h-422zM401 1942q84 0 172.5 -61.5t128.5 -61.5q59 0 60 116h260q20 -451 -234 -450q-84 0 -178 60.5t-120.5 60.5t-40 -35t-11.5 -80h-260q-23 451 223 451z" />
    <glyph glyph-name="Adieresis" unicode="&#xc4;" horiz-adv-x="1290" 
d="M520 565h203l-111 426zM868 0l-61 242h-358l-54 -242h-395l389 1427h469l432 -1427h-422zM830.5 1585q-68.5 0 -128 58.5t-59.5 141.5t59.5 142.5t142.5 59.5t141 -59.5t58 -128t-26.5 -115t-72.5 -73t-114.5 -26.5zM184 1783.5q0 84.5 58.5 144t141.5 59.5t141.5 -59.5
t58.5 -142.5t-58.5 -141.5t-141 -58.5t-141.5 57t-59 141.5z" />
    <glyph glyph-name="Aring" unicode="&#xc5;" horiz-adv-x="1290" 
d="M520 565h203l-111 426zM868 0l-61 242h-358l-54 -242h-395l389 1427h469l432 -1427h-422zM700 1831q0 100 -93 100q-32 0 -55.5 -25.5t-23.5 -67.5t23.5 -66.5t62.5 -24.5t62.5 24.5t23.5 59.5zM614 1559q-143 0 -221 74.5t-78 204.5t79 206t219 76t219 -78t79 -205
q0 -173 -136 -243q-69 -36 -161 -35z" />
    <glyph glyph-name="AE" unicode="&#xc6;" horiz-adv-x="1689" 
d="M811 565l-16 506h-41l-176 -506h233zM1634 1069h-434l4 -178h279v-320h-269l7 -209h413v-362h-807l-8 242h-354l-84 -242h-397l546 1427h1104v-358z" />
    <glyph glyph-name="Ccedilla" unicode="&#xc7;" horiz-adv-x="1341" 
d="M883 -80q204 0 204 -232q0 -124 -89 -195t-246.5 -71t-272.5 72l86 195q12 -12 73 -36t101 -24q88 0 88 64q0 53 -47 53q-37 0 -61 -35l-168 56l72 206q-272 33 -424 226.5t-152 527.5t206 534.5t525 200.5t535 -188l-213 -336q-121 133 -314 133q-139 0 -227 -92
t-90 -262t81 -263.5t230 -93.5q225 0 359 170l176 -354q-112 -124 -329 -180q-71 -18 -148 -25l-29 -61q35 10 74 10z" />
    <glyph glyph-name="Egrave" unicode="&#xc8;" horiz-adv-x="1163" 
d="M1108 1069h-588v-178h436v-320h-436v-209h588v-362h-991v1427h991v-358zM709 1577h-260l-285 461h375z" />
    <glyph glyph-name="Eacute" unicode="&#xc9;" horiz-adv-x="1163" 
d="M1108 1069h-588v-178h436v-320h-436v-209h588v-362h-991v1427h991v-358zM1096 2005l-391 -428h-295l274 428h412z" />
    <glyph glyph-name="Ecircumflex" unicode="&#xca;" horiz-adv-x="1163" 
d="M1108 1069h-588v-178h436v-320h-436v-209h588v-362h-991v1427h991v-358zM575 1753l-133 -178h-297l279 481h303l281 -481h-297z" />
    <glyph glyph-name="Edieresis" unicode="&#xcb;" horiz-adv-x="1163" 
d="M1108 1069h-588v-178h436v-320h-436v-209h588v-362h-991v1427h991v-358zM810 1585q-83 0 -142.5 58.5t-59.5 141.5t59.5 142.5t142.5 59.5t141.5 -59.5t58.5 -142.5t-58.5 -141.5t-141.5 -58.5zM351 1585q-83 0 -142 58.5t-59 141.5t59 142.5t126.5 59.5t115 -27t73 -74
t25.5 -115.5t-57.5 -127t-140.5 -58.5z" />
    <glyph glyph-name="Igrave" unicode="&#xcc;" horiz-adv-x="634" 
d="M518 1427v-1427h-401v1427h401zM188 1577l-286 461h374l173 -461h-261z" />
    <glyph glyph-name="Iacute" unicode="&#xcd;" horiz-adv-x="634" 
d="M518 1427v-1427h-401v1427h401zM834 2005l-390 -428h-297l277 428h410z" />
    <glyph glyph-name="Icircumflex" unicode="&#xce;" horiz-adv-x="634" 
d="M117 0v1427h401v-1427h-401zM315 1753l-135 -178h-297l281 481h303l278 -481h-296z" />
    <glyph glyph-name="Idieresis" unicode="&#xcf;" horiz-adv-x="634" 
d="M518 1427v-1427h-401v1427h401zM550 1585q-83 0 -142.5 58.5t-59.5 141.5t59.5 142.5t142.5 59.5t141.5 -59.5t58.5 -142.5t-58.5 -141.5t-141.5 -58.5zM89 1585q-83 0 -142.5 58.5t-59.5 141.5t59.5 142.5t128 59.5t115 -27t73 -74t26.5 -115.5t-58.5 -127t-141.5 -58.5
z" />
    <glyph glyph-name="Eth" unicode="&#xd0;" horiz-adv-x="1421" 
d="M588 1067h-68v-188h195v-324h-195v-193h68q178 0 265 99.5t89 271.5q2 334 -354 334zM623 1427q343 0 544 -168t201 -525t-200.5 -545.5t-544.5 -188.5h-504v555h-113v324h113v548h504z" />
    <glyph glyph-name="Ntilde" unicode="&#xd1;" horiz-adv-x="1384" 
d="M897 1427h371v-1427h-377l-404 666v-666h-370v1427h372l408 -677v677zM516 1491h-258q-23 451 221 451q87 0 175 -62t128 -61q59 0 60 116h260q20 -451 -234 -450q-84 1 -178 61t-120.5 60t-40 -35t-13.5 -80z" />
    <glyph glyph-name="Ograve" unicode="&#xd2;" horiz-adv-x="1560" 
d="M792 354q84 0 155 44q145 90 145 319q0 166 -83 262t-228.5 96t-228.5 -96t-83 -262q0 -256 181 -337q58 -26 142 -26zM780 -35q-334 0 -534.5 200t-200.5 549t206 548.5t529.5 199.5t529.5 -199.5t206 -548.5t-201 -549t-535 -200zM649 1577l-284 461h374l170 -461h-260
z" />
    <glyph glyph-name="Oacute" unicode="&#xd3;" horiz-adv-x="1560" 
d="M792 354q84 0 155 44q145 90 145 319q0 166 -83 262t-228.5 96t-228.5 -96t-83 -262q0 -256 181 -337q58 -26 142 -26zM780 -35q-334 0 -534.5 200t-200.5 549t206 548.5t529.5 199.5t529.5 -199.5t206 -548.5t-201 -549t-535 -200zM1296 2005l-391 -428h-295l275 428
h411z" />
    <glyph glyph-name="Ocircumflex" unicode="&#xd4;" horiz-adv-x="1560" 
d="M792 354q84 0 155 44q145 90 145 319q0 166 -83 262t-228.5 96t-228.5 -96t-83 -262q0 -256 181 -337q58 -26 142 -26zM780 1462q211 0 377 -87t262.5 -258t96.5 -400q0 -352 -201 -552t-535 -200t-534.5 200t-200.5 549t205.5 548.5t529.5 199.5zM776 1753l-133 -178
h-297l281 481h301l280 -481h-297z" />
    <glyph glyph-name="Otilde" unicode="&#xd5;" horiz-adv-x="1560" 
d="M792 354q84 0 155 44q145 90 145 319q0 166 -83 262t-228.5 96t-228.5 -96t-83 -262q0 -256 181 -337q58 -26 142 -26zM780 -35q-219 0 -384 88t-258 259t-93 405q0 346 206 545.5t529.5 199.5t529.5 -199.5t206 -548.5t-201 -549t-535 -200zM660 1606q-56 0 -56 -115
h-260q-20 451 223 451q84 0 172.5 -61.5t130.5 -61.5q59 0 58 116h260q23 -451 -234 -450q-84 0 -177 60.5t-117 60.5z" />
    <glyph glyph-name="Odieresis" unicode="&#xd6;" horiz-adv-x="1560" 
d="M792 354q84 0 155 44q145 90 145 319q0 166 -83 262t-228.5 96t-228.5 -96t-83 -262q0 -256 181 -337q58 -26 142 -26zM780 -35q-219 0 -384 88t-258 259t-93 405q0 346 206 545.5t529.5 199.5t529.5 -199.5t206 -548.5t-201 -549t-535 -200zM1011 1585
q-83 0 -142.5 58.5t-59.5 141.5t59.5 142.5t142.5 59.5t141 -59.5t58 -142.5t-58 -141.5t-141 -58.5zM552 1585q-83 0 -142.5 58.5t-59.5 141.5t59.5 142.5t128 59.5t114.5 -27t73 -74t27 -115.5t-58.5 -127t-141.5 -58.5z" />
    <glyph glyph-name="multiply" unicode="&#xd7;" horiz-adv-x="1110" 
d="M1030 965l-256 -277l256 -278l-237 -220l-238 259l-238 -259l-237 220l256 278l-256 277l237 219l238 -258l238 258z" />
    <glyph glyph-name="Oslash" unicode="&#xd8;" horiz-adv-x="1560" 
d="M1112 717q0 45 -6 88l-410 -465q39 -8 84 -8q156 0 244 102.5t88 282.5zM449 717q0 -51 8 -96l413 469q-43 8 -90 8q-156 0 -243.5 -102.5t-87.5 -278.5zM1516 717q0 -352 -201 -552t-535 -200q-197 0 -350 72l-102 -115l-305 205l133 152q-111 182 -111 438
q0 346 206 545.5t529 199.5q195 0 353 -76l102 117l305 -205l-135 -153q111 -180 111 -428z" />
    <glyph glyph-name="Ugrave" unicode="&#xd9;" horiz-adv-x="1314" 
d="M658 -35q-280 0 -435 167t-155 476v819h401v-845q0 -111 48 -172.5t141.5 -61.5t140.5 61.5t47 172.5v845h401v-819q0 -313 -154.5 -478t-434.5 -165zM528 1577l-286 461h374l172 -461h-260z" />
    <glyph glyph-name="Uacute" unicode="&#xda;" horiz-adv-x="1314" 
d="M658 -35q-280 0 -435 167t-155 476v819h401v-845q0 -111 48 -172.5t141.5 -61.5t140.5 61.5t47 172.5v845h401v-819q0 -313 -154.5 -478t-434.5 -165zM1174 2005l-390 -428h-297l277 428h410z" />
    <glyph glyph-name="Ucircumflex" unicode="&#xdb;" horiz-adv-x="1314" 
d="M846 1427h401v-819q0 -313 -154.5 -478t-434.5 -165t-435 167t-155 476v819h401v-845q0 -111 48 -172.5t141.5 -61.5t140.5 61.5t47 172.5v845zM655 1753l-135 -178h-297l281 481h301l280 -481h-297z" />
    <glyph glyph-name="Udieresis" unicode="&#xdc;" horiz-adv-x="1314" 
d="M658 -35q-280 0 -435 167t-155 476v819h401v-845q0 -111 48 -172.5t141.5 -61.5t140.5 61.5t47 172.5v845h401v-819q0 -313 -154.5 -478t-434.5 -165zM890 1585q-83 0 -142.5 58.5t-59.5 141.5t59.5 142.5t128 59.5t114.5 -27t73 -74t27 -115.5t-58.5 -127t-141.5 -58.5z
M429 1585q-83 0 -142.5 58.5t-59.5 141.5t59.5 142.5t128 59.5t114.5 -27t73 -74t27 -115.5t-58.5 -127t-141.5 -58.5z" />
    <glyph glyph-name="Yacute" unicode="&#xdd;" horiz-adv-x="1259" 
d="M836 0h-402v465l-424 962h436l189 -571l184 571h432l-415 -927v-500zM1145 2005l-389 -428h-297l276 428h410z" />
    <glyph glyph-name="Thorn" unicode="&#xde;" horiz-adv-x="1216" 
d="M623 610q71 0 109 35t38 96q0 119 -149 119h-103v-250h105zM657 1223q524 0 525 -478q0 -249 -136 -367t-384 -118h-144v-260h-401v1427h401v-204h139z" />
    <glyph glyph-name="germandbls" unicode="&#xdf;" horiz-adv-x="1157" 
d="M1108 371q0 -195 -106 -292t-293 -102q-121 -2 -213 33l28 291q37 -27 94 -27q58 0 92 46t34 122q0 74 -44 119q-43 45 -120 45h-50v279h31q59 0 93 60t34 138q0 172 -119 172q-61 0 -94 -45t-33 -163v-1047h-383v956q0 358 134 488q125 121 380 121q121 0 201 -24
q273 -82 270 -390q0 -96 -54 -202t-169 -167q187 -63 254 -232q33 -81 33 -179z" />
    <glyph glyph-name="agrave" unicode="&#xe0;" horiz-adv-x="1021" 
d="M480 371q-100 0 -101 -80q0 -37 23.5 -57.5t64.5 -20.5q82 0 119 63v66q-52 29 -106 29zM522 1014q221 0 327.5 -105.5t106.5 -337.5v-571h-370v59q-100 -94 -248.5 -94t-231.5 79t-83 236.5t98 243.5t232 86t231 -47q-4 70 -40 99.5t-110 29.5q-135 0 -241 -61l-127 266
q182 117 456 117zM676 1128h-258l-281 461h375z" />
    <glyph glyph-name="aacute" unicode="&#xe1;" horiz-adv-x="1021" 
d="M480 371q-100 0 -101 -80q0 -37 23.5 -57.5t64.5 -20.5q82 0 119 63v66q-52 29 -106 29zM522 1014q221 0 327.5 -105.5t106.5 -337.5v-571h-370v59q-100 -94 -248.5 -94t-231.5 79t-83 236.5t98 243.5t232 86t231 -47q-4 70 -40 99.5t-110 29.5q-135 0 -241 -61l-127 266
q182 117 456 117zM922 1589l-281 -461h-260l166 461h375z" />
    <glyph glyph-name="acircumflex" unicode="&#xe2;" horiz-adv-x="1021" 
d="M480 371q-100 0 -101 -80q0 -37 23.5 -57.5t64.5 -20.5q82 0 119 63v66q-52 29 -106 29zM522 1014q221 0 327.5 -105.5t106.5 -337.5v-571h-370v59q-100 -94 -248.5 -94t-231.5 79t-83 236.5t98 243.5t232 86t231 -47q-4 70 -40 99.5t-110 29.5q-135 0 -241 -61l-127 266
q182 117 456 117zM532 1325l-133 -197h-260l244 463h301l244 -463h-260z" />
    <glyph glyph-name="atilde" unicode="&#xe3;" horiz-adv-x="1021" 
d="M480 371q-100 0 -101 -80q0 -37 23.5 -57.5t64.5 -20.5q82 0 119 63v66q-52 29 -106 29zM522 1014q221 0 327.5 -105.5t106.5 -337.5v-571h-370v59q-100 -94 -248.5 -94t-231.5 79t-83 236.5t98 243.5t232 86t231 -47q-4 70 -40 99.5t-110 29.5q-135 0 -241 -61l-127 266
q182 117 456 117zM651 1438q45 0 45 125h260q20 -438 -217 -439q-85 0 -161 37q-20 10 -78.5 48t-81.5 38q-47 0 -47 -117h-260q-19 439 227 439q104 0 225 -84q59 -47 88 -47z" />
    <glyph glyph-name="adieresis" unicode="&#xe4;" horiz-adv-x="1021" 
d="M480 371q-100 0 -101 -80q0 -37 23.5 -57.5t64.5 -20.5q82 0 119 63v66q-52 29 -106 29zM522 1014q221 0 327.5 -105.5t106.5 -337.5v-571h-370v59q-100 -94 -248.5 -94t-231.5 79t-83 236.5t98 243.5t232 86t231 -47q-4 70 -40 99.5t-110 29.5q-135 0 -241 -61l-127 266
q182 117 456 117zM768 1167q-82 0 -141.5 59.5t-59.5 141.5t59.5 142.5t141.5 60.5t140.5 -59.5t58.5 -143.5t-58.5 -142.5t-140.5 -58.5zM300 1167q-83 0 -141.5 59.5t-58.5 141.5t59.5 142.5t141.5 60.5t140.5 -59.5t58.5 -143.5t-58.5 -142.5t-141.5 -58.5z" />
    <glyph glyph-name="aring" unicode="&#xe5;" horiz-adv-x="1021" 
d="M480 371q-100 0 -101 -80q0 -37 23.5 -57.5t64.5 -20.5q82 0 119 63v66q-52 29 -106 29zM522 1014q221 0 327.5 -105.5t106.5 -337.5v-571h-370v59q-100 -94 -248.5 -94t-231.5 79t-83 236.5t98 243.5t232 86t231 -47q-4 70 -40 99.5t-110 29.5q-135 0 -241 -61l-127 266
q182 117 456 117zM637 1416q0 120 -111 120q-39 0 -67.5 -30.5t-28.5 -81t28.5 -79t76 -28.5t75 28.5t27.5 70.5zM217 1423.5q0 132.5 85 216.5t230 84q98 0 171 -41q147 -83 147 -260q0 -127 -85.5 -212t-232 -85t-231 82.5t-84.5 215z" />
    <glyph glyph-name="ae" unicode="&#xe6;" horiz-adv-x="1572" 
d="M381 295q0 -82 86 -82t121 63v54q-43 55 -115 55q-43 0 -67.5 -23.5t-24.5 -66.5zM1079 725q-100 0 -116 -143h221q-13 143 -105 143zM1135 -35q-272 0 -371 166q-59 -80 -164.5 -123t-222.5 -43q-164 0 -258 79t-94 237q1 224 205 279q56 15 118 15q139 0 240 -51v11
q0 86 -36 121.5t-116 35.5q-135 0 -241 -61l-127 266q182 117 420.5 117t324.5 -117q111 117 303 117t305 -120t113 -362v-102h-569q12 -72 56 -103.5t157 -31.5t256 61l114 -274q-176 -117 -413 -117z" />
    <glyph glyph-name="ccedilla" unicode="&#xe7;" horiz-adv-x="935" 
d="M797 -374.5q0 -122.5 -89.5 -193.5t-247 -71t-272.5 72l86 194q36 -24 89 -41.5t88 -17.5q88 0 88 63q0 51 -50 52q-37 0 -61 -33l-168 55l98 281q-152 43 -241.5 171t-89.5 335q0 248 146 385t375.5 137t375.5 -146l-226 -252q-49 57 -131 57.5t-124 -47.5t-42 -132
t41 -133.5t126 -49.5t149 78l213 -254q-76 -91 -214 -137q-68 -22 -141 -29l-55 -121q35 10 74 11q94 0 148.5 -55.5t54.5 -178z" />
    <glyph glyph-name="egrave" unicode="&#xe8;" horiz-adv-x="1015" 
d="M518 725q-100 0 -117 -143h224q-13 143 -107 143zM991 532v-102h-590q14 -72 58.5 -103.5t156.5 -31.5t256 61l117 -274q-178 -117 -439 -117t-393 135.5t-132 381.5t139 389t360 143t344 -119t123 -363zM696 1128h-260l-280 461h374z" />
    <glyph glyph-name="eacute" unicode="&#xe9;" horiz-adv-x="1015" 
d="M518 725q-100 0 -117 -143h224q-13 143 -107 143zM991 532v-102h-590q14 -72 58.5 -103.5t156.5 -31.5t256 61l117 -274q-178 -117 -439 -117t-393 135.5t-132 381.5t139 389t360 143t344 -119t123 -363zM940 1589l-281 -461h-258l164 461h375z" />
    <glyph glyph-name="ecircumflex" unicode="&#xea;" horiz-adv-x="1015" 
d="M518 725q-100 0 -117 -143h224q-13 143 -107 143zM991 532v-102h-590q14 -72 58.5 -103.5t156.5 -31.5t256 61l117 -274q-178 -117 -439 -117t-393 135.5t-132 381.5t139 389t360 143t344 -119t123 -363zM553 1325l-135 -197h-260l243 463h304l243 -463h-260z" />
    <glyph glyph-name="edieresis" unicode="&#xeb;" horiz-adv-x="1015" 
d="M518 725q-100 0 -117 -143h224q-13 143 -107 143zM991 532v-102h-590q14 -72 58.5 -103.5t157 -31.5t255.5 61l117 -274q-178 -117 -439 -117t-393 135.5t-132 381t139 389t360 143.5t344 -119t123 -363zM787 1169q-83 0 -142 58.5t-59 142.5t60 142.5t142 58.5
t140.5 -59.5t58.5 -142.5t-58.5 -141.5t-141.5 -58.5zM320 1169q-83 0 -142 58.5t-59 141.5t59.5 142.5t142 59.5t140 -59.5t57.5 -142.5t-57.5 -141.5t-140.5 -58.5z" />
    <glyph glyph-name="igrave" unicode="&#xec;" horiz-adv-x="538" 
d="M461 979v-979h-383v979h383zM414 1128h-260l-281 461h375z" />
    <glyph glyph-name="iacute" unicode="&#xed;" horiz-adv-x="538" 
d="M461 979v-979h-383v979h383zM657 1589l-280 -461h-258l164 461h374z" />
    <glyph glyph-name="icircumflex" unicode="&#xee;" horiz-adv-x="538" 
d="M78 0v979h383v-979h-383zM270 1325l-135 -197h-260l244 463h303l244 -463h-260z" />
    <glyph glyph-name="idieresis" unicode="&#xef;" horiz-adv-x="538" 
d="M461 979v-979h-383v979h383zM303 1369q0 83 59.5 142.5t142.5 59.5t141.5 -59.5t58.5 -142.5t-58.5 -141.5t-141.5 -58.5t-142.5 58.5t-59.5 141.5zM-164 1369q0 83 60 143q60 59 128 59q68 1 114 -27q98 -59 98 -176q0 -82 -57.5 -140.5t-140.5 -58.5t-142.5 58.5
t-59.5 141.5z" />
    <glyph glyph-name="eth" unicode="&#xf0;" horiz-adv-x="1148" 
d="M566 336q54 0 86 32t32 85t-36 83t-78 30q-121 -1 -123 -101q-1 -63 32 -96t87 -33zM1110 676q0 -318 -145 -514t-435 -197q-236 0 -364 120t-127 329q0 209 120 312t286 103t257 -88q0 158 -59 260l-240 -145l-120 193l168 102q-135 47 -349 29l-14 348q455 35 721 -162
l166 98l121 -190l-125 -76q139 -204 139 -522z" />
    <glyph glyph-name="ntilde" unicode="&#xf1;" horiz-adv-x="1095" 
d="M729 1014q143 0 224 -87t81 -257v-670h-383v549q0 123 -92 123q-72 0 -108 -80v-592h-383v979h383v-115q85 150 278 150zM666 1438q45 0 45 127h260q20 -438 -215 -439q-102 0 -180 46q-12 8 -60 34q-61 43 -84 43q-47 1 -45 -116h-260q-23 436 217 436q114 0 234 -84
q61 -47 88 -47z" />
    <glyph glyph-name="ograve" unicode="&#xf2;" horiz-adv-x="1120" 
d="M560 315q73 0 116 46.5t43 116.5q-1 70 -21 112q-42 84 -137 80q-115 0 -149 -100q-12 -34 -11 -76q0 -88 43 -133.5t116 -45.5zM560 -35q-243 0 -389 139.5t-146 386.5t147 385t388 138t388.5 -138.5t147.5 -385t-146.5 -386t-389.5 -139.5zM702 1128h-258l-280 461h375
z" />
    <glyph glyph-name="oacute" unicode="&#xf3;" horiz-adv-x="1120" 
d="M560 315q73 0 116 46.5t43 116.5q-1 70 -21 112q-42 84 -137 80q-115 0 -149 -100q-12 -34 -11 -76q0 -88 43 -133.5t116 -45.5zM560 -35q-243 0 -389 139.5t-146 386.5t147 385t388 138t388.5 -138.5t147.5 -385t-146.5 -386t-389.5 -139.5zM948 1589l-280 -461h-260
l165 461h375z" />
    <glyph glyph-name="ocircumflex" unicode="&#xf4;" horiz-adv-x="1120" 
d="M560 315q73 0 116 46.5t43 116.5q-1 70 -21 112q-42 84 -137 80q-115 0 -149 -100q-12 -34 -11 -76q0 -88 43 -133.5t116 -45.5zM560 1014q241 0 388.5 -138.5t147.5 -385t-146.5 -386t-389.5 -139.5t-389 139.5t-146 386.5t147 385t388 138zM561 1325l-135 -197h-260
l244 463h301l243 -463h-260z" />
    <glyph glyph-name="otilde" unicode="&#xf5;" horiz-adv-x="1120" 
d="M560 315q73 0 116 46.5t43 116.5q-1 70 -21 112q-42 84 -137 80q-74 0 -117 -45t-43 -132t43 -132.5t116 -45.5zM560 -35q-243 0 -389 139.5t-146 386.5t147 385t389 138q327 0 466 -240q69 -119 69 -282q0 -248 -146.5 -387.5t-389.5 -139.5zM678 1438q45 0 45 127h260
q20 -438 -217 -439q-96 0 -180 46q-14 8 -58 34q-61 43 -84 43q-47 0 -47 -116h-258q-23 436 226 436q104 0 225 -84q59 -47 88 -47z" />
    <glyph glyph-name="odieresis" unicode="&#xf6;" horiz-adv-x="1120" 
d="M560 315q73 0 116 46.5t43 116.5q-1 70 -21 112q-42 84 -137 80q-115 0 -149 -100q-12 -34 -11 -76q0 -88 43 -133.5t116 -45.5zM560 -35q-243 0 -389 139.5t-146 386.5t147 385t388 138t388.5 -138.5t147.5 -385t-146.5 -386t-389.5 -139.5zM795 1571q82 0 140 -59.5
t58 -128t-26.5 -114.5t-72.5 -73t-113.5 -27t-127 58.5t-59.5 141.5t59.5 142.5t141.5 59.5zM127 1369q0 83 59.5 142.5t141.5 59.5t140 -59.5t58 -142.5t-58 -141.5t-141 -58.5t-141.5 58.5t-58.5 141.5z" />
    <glyph glyph-name="divide" unicode="&#xf7;" horiz-adv-x="1142" 
d="M348 246q0 94 67 161t161 67t160 -68q67 -66 67 -160t-67 -161t-161 -67q-95 0 -161 67t-66 161zM102 854h938v-336h-938v336zM348 1126q0 94 67 161t144 67t129 -30t84 -83q31 -53 31 -130t-67 -145t-161 -67q-95 1 -161 67t-66 160z" />
    <glyph glyph-name="oslash" unicode="&#xf8;" horiz-adv-x="1120" 
d="M561 276q86 0 138.5 57.5t52.5 160.5q0 39 -9 71l-194 -286q6 -3 12 -3zM369 494q0 -39 6 -70l192 285h-6q-90 0 -141 -56.5t-51 -158.5zM561 -35q-111 0 -203 31l-102 -154l-188 125l98 144q-141 141 -141 384t147 381t389 138q104 0 195 -27l98 148l199 -111l-103 -152
q145 -141 145.5 -384.5t-146 -383t-388.5 -139.5z" />
    <glyph glyph-name="ugrave" unicode="&#xf9;" horiz-adv-x="1085" 
d="M633 979h383v-979h-383v113q-82 -147 -275 -148q-145 0 -222 86t-77 258v670h383v-549q0 -123 90 -123q68 0 101 78v594zM686 1128h-260l-281 461h375z" />
    <glyph glyph-name="uacute" unicode="&#xfa;" horiz-adv-x="1085" 
d="M633 979h383v-979h-383v113q-82 -147 -275 -148q-145 0 -222 86t-77 258v670h383v-549q0 -123 90 -123q68 0 101 78v594zM930 1589l-281 -461h-260l166 461h375z" />
    <glyph glyph-name="ucircumflex" unicode="&#xfb;" horiz-adv-x="1085" 
d="M633 979h383v-979h-383v113q-82 -147 -275 -148q-145 0 -222 86t-77 258v670h383v-549q0 -123 90 -123q68 0 101 78v594zM543 1325l-135 -197h-261l244 463h301l246 -463h-262z" />
    <glyph glyph-name="udieresis" unicode="&#xfc;" horiz-adv-x="1085" 
d="M633 979h383v-979h-383v113q-82 -147 -275 -148q-145 0 -222 86t-77 258v670h383v-549q0 -123 90 -123q68 0 101 78v594zM777 1169q-83 0 -142.5 58.5t-59.5 142t60.5 142.5t142.5 59t139.5 -59.5t57.5 -142.5t-57.5 -141.5t-140.5 -58.5zM310 1169q-83 0 -142 58.5
t-59 141.5t59 142.5t141 59.5t140.5 -59.5t58.5 -142.5t-57.5 -141.5t-140.5 -58.5z" />
    <glyph glyph-name="yacute" unicode="&#xfd;" horiz-adv-x="1122" 
d="M715 979h399l-565 -1487h-399l219 510l-361 977h408l143 -520zM948 1589l-280 -461h-258l163 461h375z" />
    <glyph glyph-name="thorn" unicode="&#xfe;" horiz-adv-x="1165" 
d="M600 315q70 0 114 43t44 130q0 88 -42 134t-112 46q-123 0 -153 -129v-76q26 -148 149 -148zM1135 485q0 -394 -271 -493q-74 -27 -159 -27q-166 0 -254 113v-582h-383v2034h383v-686q96 170 296 170t306 -167q82 -129 82 -362z" />
    <glyph glyph-name="ydieresis" unicode="&#xff;" horiz-adv-x="1122" 
d="M715 979h399l-565 -1487h-399l219 510l-361 977h408l143 -520zM796 1169q-83 0 -142.5 58.5t-59.5 141.5t59.5 142.5t142.5 59.5t141 -59.5t58 -142.5t-58 -141.5t-141 -58.5zM329 1169q-83 0 -142.5 58.5t-59.5 141.5t59.5 142.5t142.5 59.5t140 -59.5t57 -142.5
t-57 -141.5t-140 -58.5z" />
    <glyph glyph-name="Amacron" unicode="&#x100;" horiz-adv-x="1290" 
d="M520 565h203l-111 426zM868 0l-61 242h-358l-54 -242h-395l389 1427h469l432 -1427h-422zM981 1944v-318h-733v318h733z" />
    <glyph glyph-name="amacron" unicode="&#x101;" horiz-adv-x="1021" 
d="M480 371q-100 0 -101 -80q0 -37 23.5 -57.5t64.5 -20.5q82 0 119 63v66q-52 29 -106 29zM522 1014q221 0 327.5 -105.5t106.5 -337.5v-571h-370v59q-100 -94 -248.5 -94t-231.5 79t-83 236.5t98 243.5t232 86t231 -47q-4 70 -40 99.5t-110 29.5q-135 0 -241 -61l-127 266
q182 117 456 117zM899 1513v-317h-731v317h731z" />
    <glyph glyph-name="Abreve" unicode="&#x102;" horiz-adv-x="1290" 
d="M520 565h203l-111 426zM868 0l-61 242h-358l-54 -242h-395l389 1427h469l432 -1427h-422zM518 2036q-4 -211 91 -211q90 0 104 100q6 43 6 111h295q24 -457 -395.5 -457t-397.5 457h297z" />
    <glyph glyph-name="abreve" unicode="&#x103;" horiz-adv-x="1021" 
d="M480 371q-100 0 -101 -80q0 -37 23.5 -57.5t64.5 -20.5q82 0 119 63v66q-52 29 -106 29zM522 1014q221 0 327.5 -105.5t106.5 -337.5v-571h-370v59q-100 -94 -248.5 -94t-231.5 79t-83 236.5t98 243.5t232 86t231 -47q-4 70 -40 99.5t-110 29.5q-135 0 -241 -61l-127 266
q182 117 456 117zM534 1135q-421 0 -397 454h295q0 -102 21.5 -155.5t81 -53.5t80 53.5t20.5 155.5h295q25 -454 -396 -454z" />
    <glyph glyph-name="Aogonek" unicode="&#x104;" horiz-adv-x="1290" 
d="M520 565h203l-111 426zM725 -373q0 217 287 373h-144l-61 242h-358l-54 -242h-395l389 1427h469l432 -1427q-240 -145 -239 -268q0 -74 73 -74q64 0 125 35l56 -244q-127 -66 -285 -65.5t-226.5 69t-68.5 174.5z" />
    <glyph glyph-name="aogonek" unicode="&#x105;" horiz-adv-x="1021" 
d="M480 371q-100 0 -101 -80q0 -37 23.5 -57.5t64.5 -20.5q82 0 119 63v66q-52 29 -106 29zM420 -377q0 217 260 377h-94v59q-100 -94 -248.5 -94t-231.5 79t-83 236.5t98 243.5t232 86t231 -47q-4 70 -40 99.5t-110 29.5q-135 0 -241 -61l-127 266q182 117 456 117
q221 0 327.5 -105.5t106.5 -337.5v-571q-61 -47 -100 -80t-75 -87t-36 -105q0 -70 72 -70q63 0 141 47l56 -246q-145 -76 -301 -75.5t-224.5 68t-68.5 171.5z" />
    <glyph glyph-name="Cacute" unicode="&#x106;" horiz-adv-x="1341" 
d="M733 -35q-322 0 -504 197.5t-182 548t206 551t525 200.5t535 -188l-213 -336q-121 133 -314 133q-139 0 -227 -92t-90 -262t81 -263.5t230 -93.5q225 0 359 170l176 -354q-84 -96 -240 -153.5t-342 -57.5zM1145 2038l-281 -461h-260l166 461h375z" />
    <glyph glyph-name="cacute" unicode="&#x107;" horiz-adv-x="935" 
d="M510 -35q-213 0 -348 135.5t-135 387.5t146 389t375.5 137t375.5 -146l-226 -252q-49 57 -131 57.5t-124 -47.5t-42 -132t41 -133.5t126 -49.5t149 78l213 -254q-66 -78 -176.5 -124t-243.5 -46zM922 1589l-279 -461h-260l166 461h373z" />
    <glyph glyph-name="Cdotaccent" unicode="&#x10a;" horiz-adv-x="1341" 
d="M733 -35q-322 0 -504 197.5t-182 548t206 551t525 200.5t535 -188l-213 -336q-121 133 -314 133q-139 0 -227 -92t-90 -262t81 -263.5t230 -93.5q225 0 359 170l176 -354q-84 -96 -240 -153.5t-342 -57.5zM557 1802q0 84 59.5 144.5t129 60.5t115.5 -27.5t73 -74.5
t27 -117t-58.5 -129.5t-142.5 -59.5t-143.5 59.5t-59.5 143.5z" />
    <glyph glyph-name="cdotaccent" unicode="&#x10b;" horiz-adv-x="935" 
d="M510 -35q-213 0 -348 135.5t-135 387.5t146 389t375.5 137t375.5 -146l-226 -252q-49 57 -131 57.5t-124 -47.5t-42 -132t41 -133.5t126 -49.5t149 78l213 -254q-66 -78 -176.5 -124t-243.5 -46zM336 1354q0 84 59.5 144.5t128 60.5t115.5 -28t73.5 -75t26.5 -116.5
t-58 -129t-142 -59.5t-143.5 59.5t-59.5 143.5z" />
    <glyph glyph-name="Ccaron" unicode="&#x10c;" horiz-adv-x="1341" 
d="M746 -35q-334 0 -516.5 197t-182.5 548t206 551.5t525 200.5t535 -188l-213 -336q-121 133 -314 133q-139 0 -227 -92t-90 -262t81 -263.5t230 -93.5q226 0 359 170l176 -354q-84 -96 -239.5 -153.5t-329.5 -57.5zM922 1577h-301l-281 479h297l135 -178l133 178h297z" />
    <glyph glyph-name="ccaron" unicode="&#x10d;" horiz-adv-x="935" 
d="M568 311q85 0 149 78l213 -254q-89 -105 -250 -149q-80 -22 -170 -21q-213 0 -348 135.5t-135 387.5t146 389t375.5 137t375.5 -146l-226 -252q-49 57 -131 57.5t-124 -47.5t-42 -132t41 -133.5t126 -49.5zM686 1128h-303l-244 463h262l134 -196l135 196h260z" />
    <glyph glyph-name="Dcaron" unicode="&#x10e;" horiz-adv-x="1421" 
d="M588 1067h-68v-705h68q178 0 265 99.5t89 271.5q2 334 -354 334zM623 1427q348 0 546.5 -171t198.5 -525t-200.5 -542.5t-544.5 -188.5h-504v1427h504zM827 1577h-303l-278 479h295l135 -178l133 178h297z" />
    <glyph glyph-name="dcaron" unicode="&#x10f;" horiz-adv-x="1413" 
d="M561 307q109 0 152 90v193q-41 92 -148 92q-72 0 -115.5 -46t-43.5 -141t42.5 -141.5t112.5 -46.5zM713 1530h383v-1530h-383v80q-104 -115 -269 -115t-290 120q-125 121 -125 405q0 140 36.5 245t98.5 163q125 116 291 116t258 -117v633zM1145 1532h375l-101 -623h-260z
" />
    <glyph glyph-name="Dcroat" unicode="&#x110;" horiz-adv-x="1421" 
d="M588 1067h-68v-188h195v-324h-195v-193h68q178 0 265 99.5t89 271.5q2 334 -354 334zM623 1427q343 0 544 -168t201 -525t-200.5 -545.5t-544.5 -188.5h-504v555h-113v324h113v548h504z" />
    <glyph glyph-name="dcroat" unicode="&#x111;" horiz-adv-x="1159" 
d="M561 307q109 0 152 90v193q-41 92 -148 92q-72 0 -115.5 -46t-43.5 -141t42.5 -141.5t112.5 -46.5zM1184 1444v-289h-88v-1155h-383v80q-104 -115 -269 -115t-290 120q-125 121 -125 405q0 140 36.5 245t98.5 163q125 116 291 116t258 -117v258h-312v289h312v86h383v-86
h88z" />
    <glyph glyph-name="Emacron" unicode="&#x112;" horiz-adv-x="1163" 
d="M1108 1069h-588v-178h436v-320h-436v-209h588v-362h-991v1427h991v-358zM946 1944v-318h-733v318h733z" />
    <glyph glyph-name="emacron" unicode="&#x113;" horiz-adv-x="1015" 
d="M518 725q-100 0 -117 -143h224q-13 143 -107 143zM991 532v-102h-590q14 -72 58.5 -103.5t156.5 -31.5t256 61l117 -274q-178 -117 -439 -117t-393 135.5t-132 381.5t139 389t360 143t344 -119t123 -363zM920 1516v-318h-734v318h734z" />
    <glyph glyph-name="Edotaccent" unicode="&#x116;" horiz-adv-x="1163" 
d="M1108 1069h-588v-178h436v-320h-436v-209h588v-362h-991v1427h991v-358zM567.5 1599q-69.5 0 -129 59.5t-59.5 143.5t60.5 144.5t129 60.5t115.5 -27.5t73.5 -74.5t26.5 -102.5t-26.5 -101.5t-73.5 -74t-116.5 -28z" />
    <glyph glyph-name="edotaccent" unicode="&#x117;" horiz-adv-x="1015" 
d="M518 725q-100 0 -117 -143h224q-13 143 -107 143zM991 532v-102h-590q14 -72 58.5 -103.5t157 -31.5t255.5 61l117 -274q-178 -117 -439 -117t-393 135.5t-132 381t139 389t360 143.5t344 -119t123 -363zM555 1151q-84 0 -143.5 59.5t-59.5 143.5t60.5 144.5t129 60.5
t116.5 -28q100 -59 100 -177q0 -84 -59.5 -143.5t-143.5 -59.5z" />
    <glyph glyph-name="Eogonek" unicode="&#x118;" horiz-adv-x="1163" 
d="M1108 1069h-588v-178h436v-320h-436v-209h588v-362h-94q-205 -131 -205 -248q0 -74 72 -74q63 0 125 35l55 -243q-127 -66 -283 -66t-225.5 68.5t-69.5 175.5q0 203 248 352h-614v1427h991v-358z" />
    <glyph glyph-name="eogonek" unicode="&#x119;" horiz-adv-x="1015" 
d="M518 725q-100 0 -117 -143h224q-13 143 -107 143zM739.5 -537q-155.5 0 -224.5 68t-69 172q0 145 115 262h-22q-250 0 -382 135.5t-132 381t139 389t360 143.5t344 -119t123 -363v-102h-590q14 -72 58.5 -103.5t157 -31.5t255.5 61l117 -274q-10 -8 -22 -14
q-88 -66 -141.5 -128.5t-53.5 -132t72 -69.5q63 0 141 47l55 -244q-145 -78 -300.5 -78z" />
    <glyph glyph-name="Ecaron" unicode="&#x11a;" horiz-adv-x="1163" 
d="M1108 1069h-588v-178h436v-320h-436v-209h588v-362h-991v1427h991v-358zM745 1577h-303l-278 479h295l135 -178l135 178h295z" />
    <glyph glyph-name="ecaron" unicode="&#x11b;" horiz-adv-x="1015" 
d="M518 725q-100 0 -117 -143h224q-13 143 -107 143zM991 532v-102h-590q14 -72 58.5 -103.5t156.5 -31.5t256 61l117 -274q-178 -117 -439 -117t-393 135.5t-132 381.5t139 389t360 143t344 -119t123 -363zM705 1128h-304l-243 463h260l135 -196l135 196h260z" />
    <glyph glyph-name="Gbreve" unicode="&#x11e;" horiz-adv-x="1404" 
d="M692 856h639v-790q-289 -100 -599.5 -100.5t-497.5 195t-187 551t196.5 553t532.5 197.5t541 -196l-244 -297q-121 106 -281 106t-245.5 -98t-85.5 -264q0 -231 141 -318q70 -43 166 -43t162 21v162h-238v321zM765 1583q-421 0 -396 457h295q0 -104 21.5 -157.5
t80.5 -53.5t79.5 53t18.5 158h297q25 -457 -396 -457z" />
    <glyph glyph-name="gbreve" unicode="&#x11f;" horiz-adv-x="991" 
d="M488 -256q163 0 163 82q0 57 -84 57h-207q-35 -20 -34 -61q-1 -78 162 -78zM475 743q-55 0 -87 -26.5t-32 -76.5t32 -75.5t87 -25.5q119 0 119 100q0 51 -32 77.5t-87 26.5zM31 169.5q0 132.5 114 217.5q-88 100 -88 265t108.5 263.5t291.5 98.5q115 0 205 -35h296v-272
h-71q6 -31 6 -64q0 -176 -121 -278.5t-315 -102.5q-59 0 -115 12q-16 -20 -16 -45q0 -53 55 -53h221q180 0 282.5 -84t102.5 -246q0 -203 -135 -296t-371 -93q-471 0 -471 297q0 129 105 207q-84 76 -84 208.5zM501 1135q-421 0 -397 456h297q-2 -104 19.5 -157.5t81 -53.5
t80 53.5t20.5 157.5h295q25 -456 -396 -456z" />
    <glyph glyph-name="Gdotaccent" unicode="&#x120;" horiz-adv-x="1404" 
d="M692 856h639v-790q-289 -100 -599.5 -100.5t-497.5 195t-187 551t196.5 553t532.5 197.5t541 -196l-244 -297q-121 106 -281 106t-245.5 -98t-85.5 -264q0 -231 141 -318q70 -43 166 -43t162 21v162h-238v321zM768 1599q-84 0 -143.5 59.5t-59.5 143.5t59.5 144.5
t129 60.5t115.5 -27.5t73 -74.5t27 -117t-58.5 -129.5t-142.5 -59.5z" />
    <glyph glyph-name="gdotaccent" unicode="&#x121;" horiz-adv-x="991" 
d="M488 -256q163 0 163 82q0 57 -84 57h-207q-35 -20 -34 -61q-1 -78 162 -78zM475 743q-55 0 -87 -26.5t-32 -76.5t32 -75.5t87 -25.5q119 0 119 100q0 51 -32 77.5t-87 26.5zM31 169.5q0 132.5 114 217.5q-88 100 -88 265t108.5 263.5t291.5 98.5q115 0 205 -35h296v-272
h-71q6 -31 6 -64q0 -176 -121 -278.5t-315 -102.5q-59 0 -115 12q-16 -20 -16 -45q0 -53 55 -53h221q180 0 282.5 -84t102.5 -246q0 -203 -135 -296t-371 -93q-471 0 -471 297q0 129 105 207q-84 76 -84 208.5zM504 1151q-84 0 -143.5 59.5t-59.5 143.5t59.5 144.5
t143.5 60.5t142.5 -60.5t58.5 -144.5t-58.5 -143.5t-142.5 -59.5z" />
    <glyph glyph-name="Gcommaaccent" unicode="&#x122;" horiz-adv-x="1404" 
d="M762 -94q94 0 157.5 -73t63.5 -193q0 -281 -307 -418l-121 178q133 61 174 121q-72 6 -121 56t-49 136t54.5 139.5t148.5 53.5zM692 856h639v-790q-289 -100 -599.5 -100.5t-497.5 195t-187 551t196.5 553t532.5 197.5t541 -196l-244 -297q-121 106 -281 106t-245.5 -98
t-85.5 -266t80 -263.5t229 -95.5q94 0 160 21v162h-238v321z" />
    <glyph glyph-name="gcommaaccent" unicode="&#x123;" horiz-adv-x="991" 
d="M488 -256q163 0 163 82q0 57 -84 57h-207q-35 -20 -34 -61q-1 -78 162 -78zM475 743q-55 0 -87 -26.5t-32 -76.5t32 -75.5t87 -25.5q119 0 119 100q0 51 -32 77.5t-87 26.5zM31 169.5q0 132.5 114 217.5q-88 100 -88 265t108.5 263.5t291.5 98.5q115 0 205 -35h296v-272
h-71q6 -31 6 -64q0 -176 -121 -278.5t-315 -102.5q-59 0 -115 12q-16 -20 -16 -45q0 -53 55 -53h221q180 0 282.5 -84t102.5 -246q0 -203 -135 -296t-371 -93q-471 0 -471 297q0 129 105 207q-84 76 -84 208.5zM488 1143q-79 1 -130 31q-102 61 -102 211.5t81 265t226 157.5
l121 -178q-141 -59 -186 -137h20q61 0 112.5 -41t51.5 -127t-57.5 -134t-136.5 -48z" />
    <glyph glyph-name="Hbar" unicode="&#x126;" horiz-adv-x="1406" 
d="M891 780v183h-373v-183h373zM1366 1286v-323h-76v-963h-399v430h-373v-430h-401v963h-76v323h76v141h401v-141h373v141h399v-141h76z" />
    <glyph glyph-name="hbar" unicode="&#x127;" horiz-adv-x="1093" 
d="M1032 670v-670h-383v553q0 123 -92 123q-72 0 -106 -84v-592h-383v1102h-76v297h76v131h383v-131h323v-297h-323v-236q83 150 267 150q314 0 314 -346z" />
    <glyph glyph-name="Imacron" unicode="&#x12a;" horiz-adv-x="634" 
d="M518 1427v-1427h-401v1427h401zM-47 1626v318h733v-318h-733z" />
    <glyph glyph-name="imacron" unicode="&#x12b;" horiz-adv-x="538" 
d="M461 979v-979h-383v979h383zM-96 1516h733v-318h-733v318z" />
    <glyph glyph-name="Iogonek" unicode="&#x12e;" horiz-adv-x="634" 
d="M-45 -373q0 217 285 373h-123v1427h401v-1427h2q-240 -145 -239 -268q0 -74 68.5 -74t127.5 35l58 -244q-127 -66 -285 -65.5t-226.5 69t-68.5 174.5z" />
    <glyph glyph-name="iogonek" unicode="&#x12f;" horiz-adv-x="538" 
d="M221.5 -598q-155.5 0 -223.5 66.5t-68 173.5q0 205 232 358h-84v979h383v-954l6 -7l-6 -4v-14h-19q-84 -66 -135 -126t-51 -130t72 -70q63 0 139 47l57 -243q-147 -76 -302.5 -76zM70 1354q0 84 60 144.5t143 60.5t142.5 -60.5t59.5 -144.5t-59.5 -143.5t-141.5 -59.5
t-143 59.5t-61 143.5z" />
    <glyph glyph-name="Idotaccent" unicode="&#x130;" horiz-adv-x="634" 
d="M518 1427v-1427h-401v1427h401zM119 1802q0 84 59.5 144.5t128.5 60.5q69 1 115 -27q100 -59 100 -178q0 -84 -58 -143.5t-142.5 -59.5t-143.5 59.5t-59 143.5z" />
    <glyph glyph-name="dotlessi" unicode="&#x131;" horiz-adv-x="538" 
d="M461 979v-979h-383v979h383z" />
    <glyph glyph-name="Kcommaaccent" unicode="&#x136;" horiz-adv-x="1310" 
d="M659 -94q94 0 158 -73t64 -193q0 -281 -308 -418l-120 178q133 61 174 121q-72 6 -121 56t-49 136t54 139.5t148 53.5zM520 0h-401v1427h401v-458l316 458h464l-389 -520l389 -907h-475l-202 518l-103 -137v-381z" />
    <glyph glyph-name="kcommaaccent" unicode="&#x137;" horiz-adv-x="1120" 
d="M567 -94q94 0 157.5 -73t63.5 -193q0 -281 -307 -418l-123 178q133 61 177 121q-72 6 -122.5 56t-50.5 136t55.5 139.5t149.5 53.5zM451 0h-383v1530h383v-852l229 301h446l-295 -336l295 -643h-454l-131 311l-90 -104v-207z" />
    <glyph glyph-name="Lacute" unicode="&#x139;" horiz-adv-x="1019" 
d="M117 1427h403v-1065h484v-362h-887v1427zM707 2038l-281 -461h-260l166 461h375z" />
    <glyph glyph-name="lacute" unicode="&#x13a;" horiz-adv-x="516" 
d="M451 1530v-1530h-383v1530h383zM653 2073l-280 -461h-258l166 461h372z" />
    <glyph glyph-name="Lcommaaccent" unicode="&#x13b;" horiz-adv-x="1019" 
d="M581 -94q94 0 158 -73t64 -193q0 -281 -307 -418l-123 178q135 61 176 121q-72 6 -121 56t-49 136t54 139.5t148 53.5zM520 362h484v-362h-887v1427h403v-1065z" />
    <glyph glyph-name="lcommaaccent" unicode="&#x13c;" horiz-adv-x="516" 
d="M247 -94q77 0 129 -33q109 -69 109 -233q0 -281 -307 -418l-121 178q133 61 174 121q-72 6 -121 56t-49 136t54.5 139.5t131.5 53.5zM451 1530v-1530h-383v1530h383z" />
    <glyph glyph-name="Lcaron" unicode="&#x13d;" horiz-adv-x="1019" 
d="M520 362h484v-362h-887v1427h403v-1065zM483 1577h-301l-280 479h297l133 -178l135 178h297z" />
    <glyph glyph-name="lcaron" unicode="&#x13e;" horiz-adv-x="722" 
d="M451 1530v-1530h-383v1530h383zM883 1530l-101 -623h-260l-14 623h375z" />
    <glyph glyph-name="Lslash" unicode="&#x141;" horiz-adv-x="1019" 
d="M520 362h484v-362h-887v459l-103 -47l-135 303l238 106v606h403v-432l279 129l133 -299l-412 -190v-273z" />
    <glyph glyph-name="lslash" unicode="&#x142;" horiz-adv-x="972" 
d="M659 0h-383v500l-77 -49l-189 297l266 163v619h383v-383l158 98l178 -303l-336 -207v-735z" />
    <glyph glyph-name="Nacute" unicode="&#x143;" horiz-adv-x="1384" 
d="M897 1427h371v-1427h-377l-404 666v-666h-370v1427h372l408 -677v677zM1081 2038l-280 -461h-260l166 461h374z" />
    <glyph glyph-name="nacute" unicode="&#x144;" horiz-adv-x="1095" 
d="M729 1014q143 0 224 -87t81 -257v-670h-383v549q0 123 -92 123q-72 0 -108 -80v-592h-383v979h383v-115q85 150 278 150zM936 1589l-281 -461h-258l164 461h375z" />
    <glyph glyph-name="Ncommaaccent" unicode="&#x145;" horiz-adv-x="1384" 
d="M698 -94q94 0 158 -73t64 -193q0 -281 -308 -418l-123 178q135 61 177 121q-72 6 -121 56t-49 136t54 139.5t148 53.5zM897 1427h371v-1427h-377l-404 666v-666h-370v1427h372l408 -677v677z" />
    <glyph glyph-name="ncommaaccent" unicode="&#x146;" horiz-adv-x="1095" 
d="M554 -94q93 0 156.5 -73t63.5 -193q0 -281 -307 -418l-121 178q133 61 174 121q-72 6 -121 56t-49 136t55.5 139.5t148.5 53.5zM729 1014q143 0 224 -87t81 -257v-670h-383v549q0 123 -92 123q-72 0 -108 -80v-592h-383v979h383v-115q85 150 278 150z" />
    <glyph glyph-name="Ncaron" unicode="&#x147;" horiz-adv-x="1384" 
d="M897 1427h371v-1427h-377l-404 666v-666h-370v1427h372l408 -677v677zM858 1577h-301l-281 479h297l136 -178l133 178h297z" />
    <glyph glyph-name="ncaron" unicode="&#x148;" horiz-adv-x="1095" 
d="M729 1014q143 0 224 -87t81 -257v-670h-383v549q0 123 -92 123q-72 0 -108 -80v-592h-383v979h383v-115q85 150 278 150zM700 1128h-303l-243 463h260l135 -196l135 196h260z" />
    <glyph glyph-name="Eng" unicode="&#x14a;" horiz-adv-x="1372" 
d="M1268 1427v-1349q0 -300 -123 -446t-350 -146q-186 0 -308 74l84 329q74 -55 179 -55q133 0 147 158l-410 674v-666h-370v1427h372l408 -677v677h371z" />
    <glyph glyph-name="eng" unicode="&#x14b;" horiz-adv-x="1095" 
d="M651 4v545q0 123 -92 123q-72 0 -108 -80v-592h-383v979h383v-115q85 150 278 150q143 0 224 -87t81 -257v-635q0 -271 -105 -399t-360 -152l-102 319q184 4 184 201z" />
    <glyph glyph-name="Omacron" unicode="&#x14c;" horiz-adv-x="1560" 
d="M792 354q84 0 155 44q145 90 145 319q0 166 -83 262t-228.5 96t-228.5 -96t-83 -262q0 -256 181 -337q58 -26 142 -26zM780 -35q-334 0 -534.5 200t-200.5 549t206 548.5t529.5 199.5t529.5 -199.5t206 -548.5t-201 -549t-535 -200zM414 1626v318h733v-318h-733z" />
    <glyph glyph-name="omacron" unicode="&#x14d;" horiz-adv-x="1120" 
d="M560 315q73 0 116 46.5t43 116.5q-1 70 -21 112q-42 84 -137 80q-115 0 -149 -100q-12 -34 -11 -76q0 -88 43 -133.5t116 -45.5zM560 -35q-243 0 -389 139.5t-146 386.5t147 385t388 138t388.5 -138.5t147.5 -385t-146.5 -386t-389.5 -139.5zM195 1516h733v-318h-733v318
z" />
    <glyph glyph-name="Ohungarumlaut" unicode="&#x150;" horiz-adv-x="1560" 
d="M792 354q84 0 155 44q145 90 145 319q0 166 -83 262t-228.5 96t-228.5 -96t-83 -262q0 -256 181 -337q58 -26 142 -26zM780 -35q-334 0 -534.5 200t-200.5 549t206 548.5t529.5 199.5t529.5 -199.5t206 -548.5t-201 -549t-535 -200zM1425 2038l-348 -461h-260l236 461
h372zM918 2038l-216 -461h-229l84 461h361z" />
    <glyph glyph-name="ohungarumlaut" unicode="&#x151;" horiz-adv-x="1120" 
d="M560 315q73 0 116 46.5t43 116.5q-1 70 -21 112q-42 84 -137 80q-115 0 -149 -100q-12 -34 -11 -76q0 -88 43 -133.5t116 -45.5zM560 -35q-243 0 -389 139.5t-146 386.5t147 385t388 138t388.5 -138.5t147.5 -385t-146.5 -386t-389.5 -139.5zM1214 1589l-350 -461h-260
l236 461h374zM705 1589l-216 -461h-229l84 461h361z" />
    <glyph glyph-name="OE" unicode="&#x152;" horiz-adv-x="2086" 
d="M807 354q162 0 254 95v512q-88 115 -252 114.5t-252 -96.5t-88 -263t88 -264.5t250 -97.5zM2032 1069h-582v-178h430v-320h-430v-209h582v-362h-971v6q-133 -41 -262 -41q-225 0 -394 88t-264.5 259t-95.5 405q0 172 57.5 314.5t157.5 235.5q210 195 539 195
q127 0 262 -53v18h971v-358z" />
    <glyph glyph-name="oe" unicode="&#x153;" horiz-adv-x="1703" 
d="M560 315q73 0 116 46t43 117q0 130 -76 173q-35 19 -95 19t-104 -45q-43 -45 -43 -132t43 -133t116 -45zM1206 725q-100 0 -119 -143h224q-13 143 -105 143zM1679 532v-102h-589q14 -72 58 -104t156 -31q112 0 257 61l114 -274q-176 -117 -450 -117q-207 0 -324 119
q-133 -119 -359 -119t-371 139q-146 138 -146 386t147 386q146 138 374 138t361 -127q121 127 324 127t325 -119t123 -363z" />
    <glyph glyph-name="Racute" unicode="&#x154;" horiz-adv-x="1327" 
d="M680 819q131 0 131 133q0 51 -36 82t-97 31h-158v-246h160zM1233 967q0 -273 -221 -404l291 -563h-476l-221 496h-86v-496h-401v1427h606q242 0 375 -115.5t133 -344.5zM1053 2038l-281 -461h-260l166 461h375z" />
    <glyph glyph-name="racute" unicode="&#x155;" horiz-adv-x="768" 
d="M684 1010q49 0 76 -15l-2 -333q-254 45 -307 -232v-430h-383v979h383v-193q33 102 91 163t142 61zM772 1589l-278 -461h-261l166 461h373z" />
    <glyph glyph-name="Rcommaaccent" unicode="&#x156;" horiz-adv-x="1327" 
d="M670 -94q94 0 157.5 -73t63.5 -193q0 -281 -307 -418l-123 178q133 61 176 121q-72 6 -122 56t-50 136t55.5 139.5t149.5 53.5zM811 942q1 40 -17 68q-35 54 -116 55h-158v-246h160q82 1 114 55q16 28 17 68zM1233 967q0 -273 -221 -404l291 -563h-476l-221 496h-86v-496
h-401v1427h606q242 0 375 -115.5t133 -344.5z" />
    <glyph glyph-name="rcommaaccent" unicode="&#x157;" horiz-adv-x="768" 
d="M278 -94q94 0 158 -73t64 -193q0 -281 -307 -418l-123 178q133 61 176 121q-100 9 -146 91q-24 44 -24 115.5t54 125t148 53.5zM684 1010q49 0 76 -15l-2 -333q-254 45 -307 -232v-430h-383v979h383v-193q33 102 91 163t142 61z" />
    <glyph glyph-name="Rcaron" unicode="&#x158;" horiz-adv-x="1327" 
d="M680 819q131 0 131 133q0 51 -36 82t-97 31h-158v-246h160zM1233 967q0 -273 -221 -404l291 -563h-476l-221 496h-86v-496h-401v1427h606q242 0 375 -115.5t133 -344.5zM829 1577h-301l-280 479h297l135 -178l133 178h297z" />
    <glyph glyph-name="rcaron" unicode="&#x159;" horiz-adv-x="768" 
d="M684 1010q49 0 76 -15l-2 -333q-254 45 -307 -232v-430h-383v979h383v-193q33 102 91 163t142 61zM537 1128h-304l-243 463h260l135 -196l135 196h260z" />
    <glyph glyph-name="Sacute" unicode="&#x15a;" horiz-adv-x="1064" 
d="M481 -35q-264 0 -469 135l138 367q141 -129 327 -129q143 0 144 84q0 41 -32 61.5t-112 44.5q-217 63 -322.5 178t-105.5 308.5t122.5 319.5t363.5 126q295 0 503 -121l-186 -346q-78 65 -194 91q-52 12 -99 12q-100 0 -100 -70q0 -40 34.5 -63t117.5 -48
q168 -49 284 -144q135 -110 135 -339.5t-142.5 -348t-406.5 -118.5zM922 2038l-281 -461h-260l166 461h375z" />
    <glyph glyph-name="sacute" unicode="&#x15b;" horiz-adv-x="872" 
d="M43 685q0 155 107.5 243t312 88t352.5 -82l-119 -275q-104 59 -229 60q-72 0 -72 -36t99 -56q330 -57 329 -318q0 -166 -114.5 -255t-327.5 -89t-346 82l92 281q118 -72 229 -72t111 41q0 20 -17.5 28.5t-62.5 16.5q-166 29 -255 108.5t-89 234.5zM823 1589l-280 -461
h-260l166 461h374z" />
    <glyph glyph-name="Scedilla" unicode="&#x15e;" horiz-adv-x="1064" 
d="M860 -374.5q0 -122.5 -89 -193.5t-247 -71t-272 72l86 194q18 -18 78.5 -38.5t97.5 -20.5q88 0 88 63q0 51 -49 52q-37 0 -61 -33l-168 55l92 262q-223 14 -404 133l138 367q141 -129 327 -129q143 0 144 84q0 41 -32 61.5t-112 44.5q-217 63 -322.5 178t-105.5 308.5
t122.5 319.5t363.5 126q295 0 503 -121l-186 -346q-78 65 -194 91q-52 12 -99 12q-100 0 -100 -70q0 -40 34.5 -63t117.5 -48q168 -49 284 -144q135 -110 135 -320t-101.5 -325.5t-285.5 -148.5l-59 -129q35 10 73 11q94 0 148.5 -55.5t54.5 -178z" />
    <glyph glyph-name="scedilla" unicode="&#x15f;" horiz-adv-x="872" 
d="M823 309q0 -275 -309 -334l-59 -127q35 10 73 11q96 0 150.5 -55.5t54.5 -155.5t-42 -164q-81 -123 -296 -123q-156 0 -270 72l86 194q18 -18 78.5 -38.5t95.5 -20.5q88 0 88 63q0 51 -47 52q-37 0 -61 -33l-168 55l92 264q-152 16 -254 78l92 281q118 -72 229 -72
t111 41q0 20 -17.5 28.5t-62.5 16.5q-166 29 -255 108.5t-89 234.5t107.5 243t312 88t352.5 -82l-119 -275q-104 59 -229 60q-72 0 -72 -36t99 -56q329 -58 329 -318z" />
    <glyph glyph-name="Scaron" unicode="&#x160;" horiz-adv-x="1064" 
d="M1030 444q0 -242 -142.5 -360.5t-406.5 -118.5t-469 135l138 367q141 -129 327 -129q143 0 144 84q0 41 -32 61.5t-112 44.5q-217 63 -322.5 178t-105.5 308.5t122.5 319.5t363.5 126q295 0 503 -121l-186 -346q-78 65 -194 91q-52 12 -99 12q-100 0 -100 -70
q0 -40 34.5 -63t108.5 -44t129 -45q136 -59 217.5 -159.5t81.5 -270.5zM700 1577h-303l-280 479h297l135 -178l133 178h297z" />
    <glyph glyph-name="scaron" unicode="&#x161;" horiz-adv-x="872" 
d="M381 -35q-213 0 -346 82l92 281q118 -72 229 -72t111 41q0 20 -17.5 28.5t-94.5 22.5t-150.5 52t-117.5 109t-44 171q0 160 107.5 248t312 88t352.5 -82l-119 -275q-104 59 -229 60q-72 0 -72 -37q1 -35 99 -55q330 -57 329 -318q0 -166 -114.5 -255t-327.5 -89z
M586 1128h-301l-244 463h260l133 -196l135 196h260z" />
    <glyph glyph-name="uni0162" unicode="&#x162;" horiz-adv-x="1064" 
d="M655 -141q203 1 203 -233q0 -122 -88 -193.5t-246 -71.5t-272 72l84 194q37 -25 89 -42t87 -17q88 0 88 63q0 51 -47 52q-37 0 -61 -33l-170 55l104 293h225l-69 -150q34 11 73 11zM23 1427h1026v-368h-312v-1059h-401v1059h-313v368z" />
    <glyph glyph-name="uni0163" unicode="&#x163;" horiz-adv-x="770" 
d="M508 -141q96 0 150.5 -55.5t54.5 -178t-89 -193.5t-247 -71t-273 72l86 194q19 -19 79.5 -39t95.5 -20q88 0 88 63q0 51 -47 52q-37 0 -62 -33l-168 55l100 291q-176 76 -176 369v329h-84v285h84v285h383v-285h215v-285h-215v-280q0 -111 74 -111q57 0 117 39l94 -295
q-119 -72 -279 -80l-55 -119q35 11 74 11z" />
    <glyph glyph-name="Tcaron" unicode="&#x164;" horiz-adv-x="1064" 
d="M1049 1427v-368h-312v-1059h-401v1059h-313v368h1026zM700 1577h-301l-280 479h297l133 -178l135 178h297z" />
    <glyph glyph-name="tcaron" unicode="&#x165;" horiz-adv-x="774" 
d="M557 303q57 0 117 39l94 -295q-136 -82 -316 -82t-266 95.5t-86 304.5v329h-84v285h84v285h383v-285h215v-285h-215v-280q0 -111 74 -111zM551 1616h338l-119 -520h-223z" />
    <glyph glyph-name="Tbar" unicode="&#x166;" horiz-adv-x="1064" 
d="M1049 1059h-312v-336h189v-326h-189v-397h-401v397h-191v326h191v336h-313v368h1026v-368z" />
    <glyph glyph-name="tbar" unicode="&#x167;" horiz-adv-x="774" 
d="M451.5 -35q-179.5 0 -265.5 95.5t-86 304.5v67h-77v201h77v98h-84v248h84v285h383v-285h215v-248h-215v-98h215v-201h-215v-51q0 -96 82 -96q70 0 129 39l74 -277q-137 -82 -316.5 -82z" />
    <glyph glyph-name="Umacron" unicode="&#x16a;" horiz-adv-x="1314" 
d="M658 -35q-280 0 -435 167t-155 476v819h401v-845q0 -111 48 -172.5t141.5 -61.5t140.5 61.5t47 172.5v845h401v-819q0 -313 -154.5 -478t-434.5 -165zM293 1626v318h733v-318h-733z" />
    <glyph glyph-name="umacron" unicode="&#x16b;" horiz-adv-x="1085" 
d="M633 979h383v-979h-383v113q-82 -147 -275 -148q-145 0 -222 86t-77 258v670h383v-549q0 -123 90 -123q68 0 101 78v594zM909 1516v-318h-733v318h733z" />
    <glyph glyph-name="Uring" unicode="&#x16e;" horiz-adv-x="1314" 
d="M658 -35q-280 0 -435 167t-155 476v819h401v-845q0 -111 48 -172.5t141.5 -61.5t140.5 61.5t47 172.5v845h401v-819q0 -313 -154.5 -478t-434.5 -165zM762 1865q0 41 -14 67q-28 53 -82 53t-82.5 -31t-28.5 -81t27.5 -79t75 -29t76 29t28.5 71zM342 1874q0 133 85 216
t230.5 83t231.5 -86t86 -214t-85 -213t-232.5 -85t-231.5 83t-84 216z" />
    <glyph glyph-name="uring" unicode="&#x16f;" horiz-adv-x="1085" 
d="M633 979h383v-979h-383v113q-82 -147 -275 -148q-145 0 -222 86t-77 258v670h383v-549q0 -123 90 -123q68 0 101 78v594zM543 1536q-47 0 -76 -30.5t-29 -81t29 -79t76 -28.5t75.5 28.5t28.5 80t-28.5 81t-75.5 29.5zM542 1126q-146 0 -231.5 83t-85.5 216.5t85 216
t231.5 82.5t231.5 -86t85 -214t-85 -213t-231 -85z" />
    <glyph glyph-name="Uhungarumlaut" unicode="&#x170;" horiz-adv-x="1314" 
d="M657 -35q-373 0 -517 293q-72 145 -72 350v819h401v-845q0 -111 48 -172.5t141.5 -61.5t140.5 61.5t47 172.5v845h401v-819q0 -313 -154.5 -478t-435.5 -165zM1305 2038l-351 -461h-260l236 461h375zM795 2038l-215 -461h-230l86 461h359z" />
    <glyph glyph-name="uhungarumlaut" unicode="&#x171;" horiz-adv-x="1085" 
d="M633 979h383v-979h-383v113q-82 -147 -275 -148q-145 0 -222 86t-77 258v670h383v-549q0 -123 90 -123q68 0 101 78v594zM846 1128h-260l235 461h375zM686 1589l-215 -461h-229l86 461h358z" />
    <glyph glyph-name="Uogonek" unicode="&#x172;" horiz-adv-x="1314" 
d="M846 1427h401v-819q0 -238 -90 -390t-258 -214q-213 -133 -213 -252q0 -74 72 -74q66 0 125 35l57 -243q-127 -66 -307 -66q-93 0 -155 34q-118 64 -118 210q0 182 205 323q-320 37 -438 311q-59 138 -59 326v819h401v-845q0 -111 48 -172.5t141.5 -61.5t140.5 61.5
t47 172.5v845z" />
    <glyph glyph-name="uogonek" unicode="&#x173;" horiz-adv-x="1085" 
d="M481 -377q0 217 258 377h-106v113q-82 -147 -275 -148q-145 0 -222 86t-77 258v670h383v-549q0 -123 90 -123q68 0 101 78v594h383v-979q-61 -47 -99 -80t-74 -87t-36 -105q0 -70 72 -70q61 0 139 47l55 -246q-145 -76 -300.5 -75.5t-223.5 67t-68 172.5z" />
    <glyph glyph-name="Wcircumflex" unicode="&#x174;" horiz-adv-x="1941" 
d="M1509 1427h412l-309 -1427h-463l-131 510q-20 90 -55 246q-37 -160 -60 -244l-139 -512h-463l-281 1427h435l77 -710q0 -10 8.5 -100.5t12.5 -137.5q27 150 49 238l193 706h372l168 -686q31 -121 49 -250q25 176 31 244zM967 1753l-133 -178h-297l280 481h301l281 -481
h-297z" />
    <glyph glyph-name="wcircumflex" unicode="&#x175;" horiz-adv-x="1568" 
d="M1165 979h398l-301 -979h-371l-133 465l-158 -465h-360l-234 979h395l64 -485l143 481h338l125 -461zM764 1325l-135 -197h-260l243 463h301l244 -463h-260z" />
    <glyph glyph-name="Ycircumflex" unicode="&#x176;" horiz-adv-x="1259" 
d="M836 0h-402v465l-424 962h436l189 -571l184 571h432l-415 -927v-500zM627 1753l-133 -178h-297l278 481h303l279 -481h-295z" />
    <glyph glyph-name="ycircumflex" unicode="&#x177;" horiz-adv-x="1122" 
d="M715 979h399l-565 -1487h-399l219 510l-361 977h408l143 -520zM561 1325l-135 -197h-260l244 463h303l243 -463h-260z" />
    <glyph glyph-name="Ydieresis" unicode="&#x178;" horiz-adv-x="1259" 
d="M836 0h-402v465l-424 962h436l189 -571l184 571h432l-415 -927v-500zM846.5 1585q-68.5 0 -128 58.5t-59.5 141.5t59.5 142.5t142.5 59.5t141.5 -59.5t58.5 -128t-26.5 -115t-73 -73t-115 -26.5zM201 1782.5q0 85.5 58 145t126.5 59.5t115 -27t73 -74t26.5 -115.5
t-58.5 -127t-140 -58.5t-141 56t-59.5 141.5z" />
    <glyph glyph-name="Zacute" unicode="&#x179;" horiz-adv-x="1130" 
d="M1102 358v-358h-1041v336l484 729h-510v362h1024v-333l-508 -736h551zM961 2038l-281 -461h-258l164 461h375z" />
    <glyph glyph-name="zacute" unicode="&#x17a;" horiz-adv-x="851" 
d="M831 295v-295h-794v291l305 395h-322v293h785v-283l-322 -401h348zM815 1589l-280 -461h-261l166 461h375z" />
    <glyph glyph-name="Zdotaccent" unicode="&#x17b;" horiz-adv-x="1130" 
d="M1102 358v-358h-1041v336l484 729h-510v362h1024v-333l-508 -736h551zM576 1599q-83 0 -143 59.5t-60 143.5t60.5 144.5t128.5 60.5q68 1 116 -27q100 -58 100 -178q0 -84 -59.5 -143.5t-142.5 -59.5z" />
    <glyph glyph-name="zdotaccent" unicode="&#x17c;" horiz-adv-x="851" 
d="M831 295v-295h-794v291l305 395h-322v293h785v-283l-322 -401h348zM430 1151q-84 0 -143.5 59.5t-59.5 143.5t59.5 144.5t127.5 60.5t116 -28q100 -59 101 -177q0 -84 -58.5 -143.5t-142.5 -59.5z" />
    <glyph glyph-name="Zcaron" unicode="&#x17d;" horiz-adv-x="1130" 
d="M1102 358v-358h-1041v336l484 729h-510v362h1024v-333l-508 -736h551zM739 1577h-303l-278 479h297l133 -178l135 178h297z" />
    <glyph glyph-name="zcaron" unicode="&#x17e;" horiz-adv-x="851" 
d="M831 295v-295h-794v291l305 395h-322v293h785v-283l-322 -401h348zM578 1128h-304l-243 463h262l133 -196l135 196h260z" />
    <glyph glyph-name="uni01CD" unicode="&#x1cd;" horiz-adv-x="1290" 
d="M520 565h203l-111 426zM868 0l-61 242h-358l-54 -242h-395l389 1427h469l432 -1427h-422zM780 1577h-303l-280 479h297l135 -178l133 178h297z" />
    <glyph glyph-name="uni01CE" unicode="&#x1ce;" horiz-adv-x="1021" 
d="M480 371q-100 0 -101 -80q0 -37 23.5 -57.5t64.5 -20.5q82 0 119 63v66q-52 29 -106 29zM522 1014q221 0 327.5 -105.5t106.5 -337.5v-571h-370v59q-100 -94 -248.5 -94t-231.5 79t-83 236.5t98 243.5t232 86t231 -47q-4 70 -40 99.5t-110 29.5q-135 0 -241 -61l-127 266
q182 117 456 117zM684 1128h-301l-244 463h260l133 -196l136 196h260z" />
    <glyph glyph-name="uni01CF" unicode="&#x1cf;" horiz-adv-x="634" 
d="M117 0v1427h401v-1427h-401zM483 1577h-301l-280 479h297l135 -178l133 178h297z" />
    <glyph glyph-name="uni01D0" unicode="&#x1d0;" horiz-adv-x="538" 
d="M78 0v979h383v-979h-383zM422 1128h-303l-244 463h260l135 -196l136 196h260z" />
    <glyph glyph-name="uni01D1" unicode="&#x1d1;" horiz-adv-x="1560" 
d="M792 354q84 0 155 44q145 90 145 319q0 166 -83 262t-228.5 96t-228.5 -96t-83 -262q0 -256 181 -337q58 -26 142 -26zM780 1462q211 0 377 -87t262.5 -258t96.5 -400q0 -352 -201 -552t-535 -200t-534.5 200t-200.5 549t205.5 548.5t529.5 199.5zM946 1577h-303
l-278 479h297l133 -178l135 178h297z" />
    <glyph glyph-name="uni01D2" unicode="&#x1d2;" horiz-adv-x="1120" 
d="M560 315q73 0 116 46.5t43 116.5q-1 70 -21 112q-42 84 -137 80q-115 0 -149 -100q-12 -34 -11 -76q0 -88 43 -133.5t116 -45.5zM560 1014q241 0 388.5 -138.5t147.5 -385t-146.5 -386t-389.5 -139.5t-389 139.5t-146 386.5t147 385t388 138zM711 1128h-301l-244 463h260
l135 -196l133 196h260z" />
    <glyph glyph-name="uni01D3" unicode="&#x1d3;" horiz-adv-x="1314" 
d="M846 1427h401v-819q0 -313 -154.5 -478t-434.5 -165t-435 167t-155 476v819h401v-845q0 -111 48 -172.5t141.5 -61.5t140.5 61.5t47 172.5v845zM823 1577h-301l-280 479h297l135 -178l133 178h297z" />
    <glyph glyph-name="uni01D4" unicode="&#x1d4;" horiz-adv-x="1085" 
d="M633 979h383v-979h-383v113q-82 -147 -275 -148q-145 0 -222 86t-77 258v670h383v-549q0 -123 90 -123q68 0 101 78v594zM692 1128h-301l-244 463h261l135 -196l133 196h262z" />
    <glyph glyph-name="Scommaaccent" unicode="&#x218;" horiz-adv-x="1064" 
d="M541 -94q93 0 157 -73t64 -193q0 -281 -307 -418l-121 178q133 61 174 121q-72 6 -121 56t-49 136t55 139.5t148 53.5zM1030 444q0 -242 -142.5 -360.5t-406.5 -118.5t-469 135l138 367q141 -129 327 -129q143 0 144 84q0 41 -32 61.5t-112 44.5q-217 63 -322.5 178
t-105.5 308.5t122.5 319.5t363.5 126q295 0 503 -121l-186 -346q-78 65 -194 91q-52 12 -99 12q-100 0 -100 -70q0 -40 34.5 -63t108.5 -44t129 -45q136 -59 217.5 -159.5t81.5 -270.5z" />
    <glyph glyph-name="scommaaccent" unicode="&#x219;" horiz-adv-x="872" 
d="M414 -94q94 0 157.5 -73t63.5 -193q0 -281 -307 -418l-123 178q133 61 176 121q-72 6 -121 56t-49 136t54.5 139.5t148.5 53.5zM381 -35q-213 0 -346 82l92 281l33 -20q88 -52 197.5 -52t109.5 41q0 20 -17.5 28.5t-94.5 22.5t-150.5 52t-117.5 109t-44 171
q0 160 107.5 248t312 88t352.5 -82l-119 -275q-104 59 -229 60q-72 0 -72 -37q1 -35 99 -55q330 -57 329 -318q0 -166 -114.5 -255t-327.5 -89z" />
    <glyph glyph-name="uni021A" unicode="&#x21a;" horiz-adv-x="1064" 
d="M540 -94q94 0 158 -73t64 -193q0 -281 -307 -418l-123 178q133 61 176 121q-72 6 -122 56t-50 136t55 139.5t149 53.5zM23 1427h1026v-368h-312v-1059h-401v1059h-313v368z" />
    <glyph glyph-name="uni021B" unicode="&#x21b;" horiz-adv-x="770" 
d="M393 -94q94 0 157.5 -73t63.5 -193q0 -281 -307 -418l-123 178q133 61 176 121q-72 6 -121 56t-49 136t54.5 139.5t148.5 53.5zM451.5 -35q-179.5 0 -265.5 95.5t-86 304.5v329h-84v285h84v285h383v-285h215v-285h-215v-280q0 -111 74 -111q57 0 117 39l94 -295
q-137 -82 -316.5 -82z" />
    <glyph glyph-name="circumflex" unicode="&#x2c6;" horiz-adv-x="1228" 
d="M829 1128h-260l-135 197l-135 -197h-260l244 463h303z" />
    <glyph glyph-name="caron" unicode="&#x2c7;" horiz-adv-x="1228" 
d="M569 1591h262l-243 -463h-303l-244 463h260l135 -196z" />
    <glyph glyph-name="breve" unicode="&#x2d8;" horiz-adv-x="1228" 
d="M338 1591q0 -104 21.5 -157.5t81 -53.5t80 53.5t18.5 157.5h297q25 -457 -396 -456q-422 -1 -397 456h295z" />
    <glyph glyph-name="dotaccent" unicode="&#x2d9;" horiz-adv-x="1228" 
d="M41 1354q0 84 59.5 144.5t143.5 60.5t142 -60.5t58 -130.5t-26.5 -116t-72.5 -74q-45 -28 -115 -27.5t-129.5 60t-59.5 143.5z" />
    <glyph glyph-name="ring" unicode="&#x2da;" horiz-adv-x="729" 
d="M426 1416q0 42 -14 68q-28 53 -82.5 52.5t-83.5 -31t-29 -81t28.5 -79t76 -28.5t76 28.5t28.5 70.5zM4 1425.5q0 133.5 85 216t231.5 82.5t231.5 -86t85 -214t-85 -213t-231 -85t-231.5 83t-85.5 216.5z" />
    <glyph glyph-name="ogonek" unicode="&#x2db;" horiz-adv-x="1228" 
d="M336 -569q-156 1 -224 67t-69 172q0 141 110 259t351 221l76 -103q-62 -47 -100 -80t-74 -87t-37 -105q0 -70 71 -70q63 0 142 47l55 -246q-145 -75 -301 -75z" />
    <glyph glyph-name="tilde" unicode="&#x2dc;" horiz-adv-x="1228" 
d="M43 1133q-23 436 217 436q114 0 234 -84q61 -47 88 -47q47 0 45 127h260q23 -438 -215 -439q-96 0 -162 36q-20 12 -78 44q-61 43 -84 43q-47 0 -45 -116h-260z" />
    <glyph glyph-name="hungarumlaut" unicode="&#x2dd;" horiz-adv-x="1228" 
d="M1006 1589l-351 -461h-260l236 461h375zM496 1589l-215 -461h-230l84 461h361z" />
    <glyph glyph-name="gravecomb" unicode="&#x300;" 
d="M-41 1128h-260l-281 461h375z" />
    <glyph glyph-name="acutecomb" unicode="&#x301;" 
d="M-37 1589l-280 -461h-261l166 461h375z" />
    <glyph glyph-name="uni0302" unicode="&#x302;" 
d="M-39 1128h-260l-135 197l-135 -197h-260l243 463h303z" />
    <glyph glyph-name="tildecomb" unicode="&#x303;" 
d="M-887 1133q-19 436 219 436q114 0 232 -84q61 -47 88 -47q47 0 45 127h260q23 -438 -215 -439q-96 0 -162 36q-20 12 -78 44q-59 43 -82 43q-49 0 -47 -116h-260z" />
    <glyph glyph-name="uni0304" unicode="&#x304;" 
d="M-774 1516h733v-318h-733v318z" />
    <glyph glyph-name="uni0306" unicode="&#x306;" 
d="M-438.5 1380q59.5 0 80 53.5t20.5 157.5h295q25 -457 -395.5 -457t-397.5 457h297q-2 -104 19.5 -157.5t81 -53.5z" />
    <glyph glyph-name="uni0307" unicode="&#x307;" 
d="M-440 1354q0 84 59 144.5t129 60.5t116 -28t72 -75q26 -46 26.5 -116t-58 -129.5t-142.5 -59.5t-143 59.5t-59 143.5z" />
    <glyph glyph-name="uni0308" unicode="&#x308;" 
d="M-440 1369q0 83 58 142.5t141 59.5t141.5 -59.5t58.5 -128t-26.5 -114.5t-72.5 -73t-115 -27t-127 58.5t-58 141.5zM-907 1368q1 130 123 186q36 16 75 17q84 0 142.5 -59.5t58.5 -142.5t-58.5 -141.5t-141.5 -58.5t-141 58.5t-58 140.5z" />
    <glyph glyph-name="uni030A" unicode="&#x30a;" 
d="M-199 1425.5q0 51.5 -28.5 81t-75.5 29.5t-76 -30.5t-29 -81t29 -79t76 -28.5t75.5 28.5t28.5 80zM-618 1425.5q0 133.5 83.5 216t231.5 82.5q96 0 170 -41q145 -80 145 -258q0 -129 -85 -214t-231 -85t-230 83t-84 216.5z" />
    <glyph glyph-name="uni030B" unicode="&#x30b;" 
d="M-39 1589l-350 -461h-258l233 461h375zM-547 1589l-215 -461h-231l86 461h360z" />
    <glyph glyph-name="uni030C" unicode="&#x30c;" 
d="M-301 1591h260l-244 -463h-303l-243 463h262l133 -196z" />
    <glyph glyph-name="uni0312" unicode="&#x312;" 
d="M-194 1493q24 0 60 -15.5t62.5 -53.5t26.5 -93q0 -92 -57.5 -140t-153.5 -48t-155.5 67.5t-59.5 196.5t82 243.5t225 157.5l123 -178q-141 -59 -188 -137h35z" />
    <glyph glyph-name="uni0326" unicode="&#x326;" 
d="M-300 -94q77 0 129 -33q110 -70 110 -233q0 -281 -308 -418l-123 178q133 61 177 121q-72 6 -122 56t-50 136t55 139.5t132 53.5z" />
    <glyph glyph-name="uni0327" unicode="&#x327;" 
d="M-247 -111q49 1 95 -23q96 -50 97 -194q0 -92 -42 -156q-80 -124 -296 -124q-156 0 -271 73l86 193q20 -20 80 -39.5t97 -19.5q88 0 88 63q0 53 -49 53q-37 0 -62 -34l-168 55l103 293h225l-68 -150q35 10 85 10z" />
    <glyph glyph-name="uni0328" unicode="&#x328;" 
d="M-367 -569q-91 1 -153 33q-118 61 -117.5 204t109 261t350.5 221l78 -103q-61 -47 -100.5 -80t-75 -87t-35.5 -105q0 -70 71 -70q63 0 140 47l57 -246q-148 -75 -324 -75z" />
    <glyph glyph-name="uni0335" unicode="&#x335;" 
d="M-821 395v326h780v-326h-780z" />
    <glyph glyph-name="uni0336" unicode="&#x336;" 
 />
    <glyph glyph-name="uni0337" unicode="&#x337;" 
d="M-840 45l-317 246l827 936l332 -230z" />
    <glyph glyph-name="uni0338" unicode="&#x338;" 
 />
    <glyph glyph-name="Wgrave" unicode="&#x1e80;" horiz-adv-x="1941" 
d="M1509 1427h412l-309 -1427h-463l-131 510q-20 90 -55 246q-37 -160 -60 -244l-139 -512h-463l-281 1427h435l77 -710q0 -10 8.5 -100.5t12.5 -137.5q27 150 49 238l193 706h372l168 -686q31 -121 49 -250q25 176 31 244zM1100 1577h-260l-285 461h375z" />
    <glyph glyph-name="wgrave" unicode="&#x1e81;" horiz-adv-x="1568" 
d="M1165 979h398l-301 -979h-371l-133 465l-158 -465h-360l-234 979h395l64 -485l143 481h338l125 -461zM907 1128h-260l-280 461h374z" />
    <glyph glyph-name="Wacute" unicode="&#x1e82;" horiz-adv-x="1941" 
d="M1509 1427h412l-309 -1427h-463l-131 510q-20 90 -55 246q-37 -160 -60 -244l-139 -512h-463l-281 1427h435l77 -710q0 -10 8.5 -100.5t12.5 -137.5q27 150 49 238l193 706h372l168 -686q31 -121 49 -250q25 176 31 244zM1487 2005l-391 -428h-295l274 428h412z" />
    <glyph glyph-name="wacute" unicode="&#x1e83;" horiz-adv-x="1568" 
d="M1165 979h398l-301 -979h-371l-133 465l-158 -465h-360l-234 979h395l64 -485l143 481h338l125 -461zM1151 1589l-281 -461h-260l166 461h375z" />
    <glyph glyph-name="Wdieresis" unicode="&#x1e84;" horiz-adv-x="1941" 
d="M1509 1427h412l-309 -1427h-463l-131 510q-20 90 -55 246q-37 -160 -60 -244l-139 -512h-463l-281 1427h435l77 -710q0 -10 8.5 -100.5t12.5 -137.5q27 150 49 238l193 706h372l168 -686q31 -121 49 -250q25 176 31 244zM1201 1585q-83 0 -142.5 58.5t-59.5 141.5
t59.5 142.5t142.5 59.5t141.5 -59.5t58.5 -142.5t-58.5 -141.5t-141.5 -58.5zM742 1585q-83 0 -142 58.5t-59 141.5t59 142.5t127.5 59.5t115 -27t72 -74t25.5 -115.5t-57.5 -127t-140.5 -58.5z" />
    <glyph glyph-name="wdieresis" unicode="&#x1e85;" horiz-adv-x="1568" 
d="M1165 979h398l-301 -979h-371l-133 465l-158 -465h-360l-234 979h395l64 -485l143 481h338l125 -461zM998 1169q-83 0 -142 58.5t-59 142.5t60 142.5t142 58.5t139.5 -59.5t57.5 -142.5t-57.5 -141.5t-140.5 -58.5zM530.5 1169q-81.5 0 -141 58.5t-59.5 141.5t59.5 142.5
t141 59.5t140 -59.5t58.5 -142.5t-58.5 -141.5t-140 -58.5z" />
    <glyph glyph-name="Ygrave" unicode="&#x1ef2;" horiz-adv-x="1259" 
d="M836 0h-402v465l-424 962h436l189 -571l184 571h432l-415 -927v-500zM760 1577h-260l-285 461h373z" />
    <glyph glyph-name="ygrave" unicode="&#x1ef3;" horiz-adv-x="1122" 
d="M715 979h399l-565 -1487h-399l219 510l-361 977h408l143 -520zM705 1128h-261l-280 461h375z" />
    <glyph glyph-name="endash" unicode="&#x2013;" horiz-adv-x="1138" 
d="M66 395v326h1007v-326h-1007z" />
    <glyph glyph-name="emdash" unicode="&#x2014;" horiz-adv-x="1404" 
d="M66 395v326h1273v-326h-1273z" />
    <glyph glyph-name="quoteleft" unicode="&#x2018;" horiz-adv-x="546" 
d="M285 1204q72 0 121 -45t49 -127q1 -82 -51 -132t-145 -50t-151 68t-58 208t81 258q82 118 219 177l123 -179q-168 -57 -205 -178h17z" />
    <glyph glyph-name="quoteright" unicode="&#x2019;" horiz-adv-x="546" 
d="M274 1563q106 0 164 -69q58 -70 58 -210t-81 -256t-218 -178l-123 178q168 59 202 178h-34q-26 0 -65 20t-63 59q-24 40 -24 94q0 113 89 161q42 23 95 23z" />
    <glyph glyph-name="quotesinglbase" unicode="&#x201a;" horiz-adv-x="686" 
d="M293 385q97 0 157 -72t60 -209q0 -192 -93 -352t-251 -229l-123 178q178 104 227 262q-80 5 -132 61t-52 135q0 148 102 201q48 25 105 25z" />
    <glyph glyph-name="quotedblleft" unicode="&#x201c;" horiz-adv-x="985" 
d="M285 1204q72 0 121 -45t49 -127q1 -82 -51 -132t-145 -50t-151 68t-58 208t81 258q82 118 219 177l123 -179q-168 -57 -205 -178h17zM723 1206q72 0 121 -45t49 -127t-51 -132t-144 -50t-152 68q-58 68 -58 183q-1 217 143 355q68 66 157 105l123 -179
q-168 -57 -204 -178h16z" />
    <glyph glyph-name="quotedblright" unicode="&#x201d;" horiz-adv-x="997" 
d="M721 1556q76 0 125 -30q104 -63 103 -224q-1 -162 -82 -280t-220 -176l-121 178q168 57 203 178h-16q-72 0 -121 45t-49 127t51 132t127 50zM274 1563q106 0 164 -69q58 -70 58 -210t-81 -256t-218 -178l-123 178q168 59 202 178h-34q-26 0 -65 20t-63 59q-24 40 -24 94
q0 113 89 161q42 23 95 23z" />
    <glyph glyph-name="quotedblbase" unicode="&#x201e;" horiz-adv-x="1054" 
d="M769 385q93 0 153 -72t59 -209q0 -192 -93 -352t-251 -229l-123 178q178 104 227 262q-80 5 -132 61t-52 151t59 153q60 57 153 57zM300 385q92 0 152 -72t60 -209q0 -192 -94 -352t-250 -229l-123 178q178 104 225 262q-78 5 -131 61t-53 151t60 153q61 57 154 57z" />
    <glyph glyph-name="dagger" unicode="&#x2020;" horiz-adv-x="843" 
d="M819 977v-324h-207v-1042h-383v1042h-204v324h204v450h383v-450h207z" />
    <glyph glyph-name="daggerdbl" unicode="&#x2021;" horiz-adv-x="843" 
d="M819 653h-207v-301h207v-323h-207v-418h-383v418h-204v323h204v301h-204v324h204v450h383v-450h207v-324z" />
    <glyph glyph-name="bullet" unicode="&#x2022;" horiz-adv-x="628" 
d="M37 677q0 117 81 197q80 80 196 80t196 -81t80 -195q0 -76 -36 -139t-99 -101t-140 -37q-117 0 -197 80t-81 196z" />
    <glyph glyph-name="ellipsis" unicode="&#x2026;" horiz-adv-x="1540" 
d="M1020 177q0 89 61 151t151 61q90 0 150 -61q62 -60 62 -150t-62 -151t-150 -61t-150 60q-62 62 -62 151zM549 192q0 74 62 136q63 62 151 61q88 0 149 -61q61 -60 61 -150t-60 -151t-134 -61t-123 28q-106 62 -106 198zM78 162q0 140 105 199q48 28 122 28t135 -61
q62 -60 62 -150t-62 -151t-150 -61t-150 60q-62 62 -62 136z" />
    <glyph glyph-name="perthousand" unicode="&#x2030;" horiz-adv-x="2461" 
d="M2187 308q0 126 -106 126q-49 0 -78 -33t-29 -81t29 -80t78 -31q49 -1 77 31t29 68zM1450 312q0 122 -115 122q-41 0 -69 -33t-29 -81q0 -48 29 -80q30 -32 78 -31q48 -1 77 31t29 72zM2080 674q161 0 258 -102t97 -253t-97 -253t-258 -102q-162 0 -258 100
q-96 101 -96 254t96 254q97 102 258 102zM1698 319q0 -151 -97 -253t-259 -102t-257 100q-96 101 -96 252t95 254q95 104 257 104q161 0 259 -102t98 -253zM485 1110q0 47 -28 81q-29 34 -78 34t-77 -34t-28 -81t29 -79t77 -32t77 32q28 32 28 79zM1341 1427l-571 -1427
h-385l571 1427h385zM27 1109q0 153 96 254t256 101t257 -101t97 -253t-96 -255t-257 -102t-257 102t-96 254z" />
    <glyph glyph-name="guilsinglleft" unicode="&#x2039;" horiz-adv-x="763" 
d="M659 1077v-372l-299 -130l299 -137v-372l-616 337v355z" />
    <glyph glyph-name="guilsinglright" unicode="&#x203a;" horiz-adv-x="763" 
d="M104 1077l617 -319v-355l-617 -337v372l302 137l-302 130v372z" />
    <glyph glyph-name="fraction" unicode="&#x2044;" horiz-adv-x="1013" 
d="M991 1427l-583 -1427h-385l583 1427h385z" />
    <glyph glyph-name="Euro" unicode="&#x20ac;" horiz-adv-x="1304" 
d="M872 950v-200h-399q-2 -14 -2 -28v-30h401v-203h-348q80 -129 256 -129q226 0 359 170l176 -354q-84 -96 -240 -153t-342 -58q-264 0 -436 137t-225 387h-125v203h104v58h-104v200h133q62 242 252 377t450 135q315 0 531 -188l-213 -336q-116 133 -306 133t-268 -121h346
z" />
    <glyph glyph-name="trademark" unicode="&#x2122;" horiz-adv-x="1570" 
d="M1292 694v207q0 74 8 184l-120 -297h-148l-112 299q6 -80 6 -186v-207h-232v733h299l123 -350l121 350h283l12 -733h-240zM25 1188v239h608v-239h-170v-494h-270v494h-168z" />
    <glyph glyph-name="partialdiff" unicode="&#x2202;" horiz-adv-x="1228" 
 />
    <glyph glyph-name="emptyset" unicode="&#x2205;" horiz-adv-x="1228" 
 />
    <glyph glyph-name="product" unicode="&#x220f;" horiz-adv-x="1228" 
 />
    <glyph glyph-name="summation" unicode="&#x2211;" horiz-adv-x="1228" 
 />
    <glyph glyph-name="minus" unicode="&#x2212;" horiz-adv-x="1138" 
d="M104 846h930v-334h-930v334z" />
    <glyph glyph-name="radical" unicode="&#x221a;" horiz-adv-x="1228" 
 />
    <glyph glyph-name="infinity" unicode="&#x221e;" horiz-adv-x="1228" 
 />
    <glyph glyph-name="integral" unicode="&#x222b;" horiz-adv-x="1228" 
 />
    <glyph glyph-name="approxequal" unicode="&#x2248;" horiz-adv-x="1228" 
 />
    <glyph glyph-name="notequal" unicode="&#x2260;" horiz-adv-x="1138" 
d="M1034 731h-268l-57 -135h325v-336h-467l-92 -217l-291 117l43 100h-123v336h265l57 135h-322v334h463l84 199l291 -117l-35 -82h127v-334z" />
    <glyph glyph-name="lessequal" unicode="&#x2264;" horiz-adv-x="1228" 
 />
    <glyph glyph-name="greaterequal" unicode="&#x2265;" horiz-adv-x="1228" 
 />
    <glyph glyph-name="lozenge" unicode="&#x25ca;" horiz-adv-x="1228" 
 />
    <glyph glyph-name="G.ss01" horiz-adv-x="1533" 
d="M727 870h721v-125q0 -197 -55.5 -347t-153.5 -244q-199 -189 -510 -189q-203 0 -356.5 88t-240.5 257t-87 403q0 352 200.5 550.5t536.5 198.5q172 0 320.5 -58t234.5 -157l-264 -289q-125 113 -284 113t-243.5 -96t-84.5 -260t75.5 -257t191.5 -93q230 0 296 170h-297
v335z" />
    <glyph glyph-name="Gbreve.ss01" horiz-adv-x="1533" 
d="M727 870h721v-125q0 -197 -55.5 -347t-153.5 -244q-199 -189 -510 -189q-203 0 -356.5 88t-240.5 257t-87 403q0 352 200.5 550.5t536.5 198.5q236 0 413 -102q85 -49 142 -113l-264 -289q-125 113 -284 113t-243.5 -96t-84.5 -260t75.5 -257t191.5 -93q230 0 296 170
h-297v335zM771 1579q-421 0 -396 457h297q-6 -211 100 -211q41 0 64.5 28.5t29.5 71.5t6 111h295q25 -457 -396 -457z" />
    <glyph glyph-name="Gcommaaccent.ss01" horiz-adv-x="1533" 
d="M772 -94q94 0 157.5 -73t63.5 -193q0 -281 -307 -418l-123 178q133 61 176 121q-72 6 -121 56t-49 136t54.5 139.5t148.5 53.5zM727 870h721v-125q0 -197 -55.5 -347t-153.5 -244q-199 -189 -510 -189q-203 0 -356.5 88t-240.5 257t-87 403q0 352 200.5 550.5
t536.5 198.5q172 0 320.5 -58t234.5 -157l-264 -289q-125 113 -284 113t-243.5 -96t-84.5 -260t75.5 -257t191.5 -93q230 0 296 170h-297v335z" />
    <glyph glyph-name="Q.ss01" horiz-adv-x="1558" 
d="M469 717q-1 -256 181 -337q58 -26 142 -26t155 44q145 90 145 319q0 166 -83 262t-228.5 96t-228.5 -96t-83 -262zM1516 717q0 -346 -195 -547l156 -199l-297 -241l-203 256q-92 -20 -197 -21q-219 0 -384 88t-258 259t-93 405q0 346 206 545.5t529.5 199.5t529.5 -199.5
t206 -545.5z" />
    <glyph glyph-name="W.ss01" horiz-adv-x="2236" 
d="M1829 1427h414l-576 -1427h-410l-155 365l-172 -365h-410l-524 1427h434l326 -983l162 355l-267 628h412l70 -161l71 161h400l-285 -606l151 -364z" />
    <glyph glyph-name="Gdotaccent.sso1" horiz-adv-x="1404" 
d="M692 856h639v-790q-289 -100 -599.5 -100.5t-497.5 195t-187 551t196.5 553t532.5 197.5t541 -196l-244 -297q-121 106 -281 106t-245.5 -98t-85.5 -264q0 -231 141 -318q70 -43 166 -43t162 21v162h-238v321zM751.5 1585q-69.5 0 -129 58.5t-59.5 141.5t59.5 143.5
t143.5 60.5t142.5 -59.5t58.5 -129t-27 -116t-73 -73t-115.5 -26.5z" />
    <glyph glyph-name="A.swsh" horiz-adv-x="1736" 
d="M965 565h204l-110 426zM573 1104q-131 0 -189 -41t-58 -123q0 -166 198 -168l-84 -299q-123 10 -215 54t-141 112q-94 130 -94 297q0 262 194 388q158 103 457 103h664l432 -1427h-422l-64 242h-356l-53 -242h-396l299 1104h-172z" />
    <glyph glyph-name="Aacute.swsh" horiz-adv-x="1736" 
d="M965 565h204l-110 426zM573 1104q-131 0 -189 -41t-58 -123q0 -166 198 -168l-84 -299q-123 10 -215 54t-141 112q-94 130 -94 297q0 262 194 388q158 103 457 103h664l432 -1427h-422l-64 242h-356l-53 -242h-396l299 1104h-172zM1567 2005l-391 -428h-295l274 428h412z
" />
    <glyph glyph-name="Abreve.swsh" horiz-adv-x="1736" 
d="M965 565h204l-110 426zM573 1104q-131 0 -189 -41t-58 -123q0 -166 198 -168l-84 -299q-123 10 -215 54t-141 112q-94 130 -94 297q0 262 194 388q158 103 457 103h664l432 -1427h-422l-64 242h-356l-53 -242h-396l299 1104h-172zM1055 1579q-420 0 -396 457h295
q0 -102 20.5 -156.5t81 -54.5t81 53t18.5 158h297q23 -457 -397 -457z" />
    <glyph glyph-name="uni01CD.swsh" horiz-adv-x="1736" 
d="M965 565h204l-110 426zM573 1104q-131 0 -189 -41t-58 -123q0 -166 198 -168l-84 -299q-123 10 -215 54t-141 112q-94 130 -94 297q0 262 194 388q158 103 457 103h664l432 -1427h-422l-64 242h-356l-53 -242h-396l299 1104h-172zM1217 1577h-304l-278 479h297l133 -178
l135 178h297z" />
    <glyph glyph-name="Acircumflex.swsh" horiz-adv-x="1736" 
d="M965 565h204l-110 426zM573 1104q-131 0 -189 -41t-58 -123q0 -166 198 -168l-84 -299q-123 10 -215 54t-141 112q-94 130 -94 297q0 262 194 388q158 103 457 103h664l432 -1427h-422l-64 242h-356l-53 -242h-396l299 1104h-172zM1047 1753l-134 -178h-297l281 481h301
l281 -481h-297z" />
    <glyph glyph-name="Adieresis.swsh" horiz-adv-x="1736" 
d="M965 565h204l-110 426zM573 1104q-131 0 -189 -41t-58 -123q0 -166 198 -168l-84 -299q-123 10 -215 54t-141 112q-94 130 -94 297q0 262 194 388q158 103 457 103h664l432 -1427h-422l-64 242h-356l-53 -242h-396l299 1104h-172zM1281 1585q-83 0 -142.5 58.5
t-59.5 141.5t59.5 142.5t142.5 59.5t141.5 -59.5t58.5 -142.5t-58.5 -141.5t-141.5 -58.5zM822 1585q-83 0 -142 58.5t-59 141.5t59 142.5t127.5 59.5t115 -27t73 -74t26.5 -115.5t-58.5 -127t-141.5 -58.5z" />
    <glyph glyph-name="Agrave.swsh" horiz-adv-x="1736" 
d="M965 565h204l-110 426zM573 1104q-131 0 -189 -41t-58 -123q0 -166 198 -168l-84 -299q-123 10 -215 54t-141 112q-94 130 -94 297q0 262 194 388q158 103 457 103h664l432 -1427h-422l-64 242h-356l-53 -242h-396l299 1104h-172zM1182 1577h-262l-285 461h375z" />
    <glyph glyph-name="Amacron.swsh" horiz-adv-x="1736" 
d="M965 565h204l-110 426zM573 1104q-131 0 -189 -41t-58 -123q0 -166 198 -168l-84 -299q-123 10 -215 54t-141 112q-94 130 -94 297q0 262 194 388q158 103 457 103h664l432 -1427h-422l-64 242h-356l-53 -242h-396l299 1104h-172zM1417 1944v-318h-733v318h733z" />
    <glyph glyph-name="Aogonek.swsh" horiz-adv-x="1736" 
d="M965 565h204l-110 426zM1171 -373q0 217 285 373h-141l-64 242h-356l-53 -242h-396l299 1104h-172q-131 0 -189 -41t-58 -123q0 -166 198 -168l-84 -299q-123 10 -215 54t-141 112q-94 130 -94 297q0 262 194 388q158 103 457 103h664l432 -1427h-2q-238 -145 -238 -268
q0 -74 72 -74q64 0 125 35l57 -244q-129 -66 -285.5 -65.5t-225.5 69t-69 174.5z" />
    <glyph glyph-name="Aring.swsh" horiz-adv-x="1736" 
d="M965 565h204l-110 426zM573 1104q-131 0 -189 -41t-58 -123q0 -166 198 -168l-84 -299q-123 10 -215 54t-141 112q-94 130 -94 297q0 262 194 388q158 103 457 103h664l432 -1427h-422l-64 242h-356l-53 -242h-396l299 1104h-172zM1051 1931q-39 0 -62.5 -25.5
t-23.5 -60.5t11 -55q23 -43 68.5 -43t69 24.5t23.5 66.5t-23.5 67.5t-62.5 25.5zM1051 1559q-141 0 -219 74.5t-78 204.5t77.5 206t218 76t220.5 -78t80 -205q0 -171 -138 -243q-68 -36 -161 -35z" />
    <glyph glyph-name="Atilde.swsh" horiz-adv-x="1736" 
d="M965 565h204l-110 426zM573 1104q-131 0 -189 -41t-58 -123q0 -166 198 -168l-84 -299q-123 10 -215 54t-141 112q-94 130 -94 297q0 262 194 388q158 103 457 103h664l432 -1427h-422l-64 242h-356l-53 -242h-396l299 1104h-172zM928 1606q-54 0 -54 -115h-260
q-20 451 224 451q84 0 192 -76q68 -47 111 -47q59 0 57 116h260q23 -451 -233 -450q-84 0 -177.5 60.5t-119.5 60.5z" />
    <glyph glyph-name="B.swsh" horiz-adv-x="1808" 
d="M1227 356q63 0 102 33t39 96q0 117 -143 117h-201v-246h203zM1305 967q0 109 -140 108h-141v-225h143q138 0 138 117zM1264 1427q434 -1 434 -373q0 -192 -172 -284q114 -33 178 -118t63 -216q0 -204 -132 -320t-398 -116h-614v1077h-84q-117 0 -168 -37t-52 -114
q0 -160 199 -160v-326q-413 0 -524 308q-31 86 -31 187q0 204 130 349t472 143h699z" />
    <glyph glyph-name="C.swsh" horiz-adv-x="1343" 
d="M748 -76q-328 0 -514.5 205t-186.5 564t205 564t528 205q289 0 424 -212q109 -171 74 -492h-371q25 145 -20 229t-155 84t-185.5 -98.5t-76.5 -248.5q-3 -415 333 -415q217 0 352 170l174 -348q-82 -92 -238.5 -149.5t-342.5 -57.5z" />
    <glyph glyph-name="Cacute.swsh" horiz-adv-x="1343" 
d="M748 -76q-328 0 -514.5 205t-186.5 564t205 564t528 205q289 0 424 -212q109 -171 74 -492h-371q25 145 -20 229t-155 84t-185.5 -98.5t-76.5 -248.5q-3 -415 333 -415q217 0 352 170l174 -348q-82 -92 -238.5 -149.5t-342.5 -57.5zM1270 2005l-389 -428h-297l276 428
h410z" />
    <glyph glyph-name="Ccaron.swsh" horiz-adv-x="1343" 
d="M732.5 -76q-201.5 0 -359.5 92.5t-242 265.5t-84 408q0 362 205 567t528 205q289 0 424 -212q109 -171 74 -492h-371q25 145 -20 229t-155 84t-185.5 -98.5t-76.5 -248.5q-3 -415 333 -415q217 0 352 170l174 -348q-82 -92 -238.5 -149.5t-358 -57.5zM922 1577h-304
l-280 479h297l135 -178l133 178h297z" />
    <glyph glyph-name="Ccedilla.swsh" horiz-adv-x="1343" 
d="M879 -127q204 1 204 -233q0 -122 -89 -194.5t-247 -72.5t-272 74l86 195q20 -20 79.5 -40t96.5 -20q88 0 88 64q0 51 -49 51q-37 0 -61 -33l-168 55l76 215q-272 37 -424 237t-152 519q0 362 205 567t528 205q289 0 424 -212q109 -171 74 -492h-371q25 145 -20 229
t-155 84t-185.5 -98.5t-76.5 -248.5q-3 -415 333 -415q217 0 352 170l174 -348q-72 -80 -203 -135t-290 -68l-29 -65q35 10 72 10z" />
    <glyph glyph-name="Cdotaccent.swsh" horiz-adv-x="1343" 
d="M748 -76q-328 0 -514.5 205t-186.5 564t205 564t528 205q289 0 424 -212q109 -171 74 -492h-371q25 145 -20 229t-155 84t-185.5 -98.5t-76.5 -248.5q-3 -415 333 -415q217 0 352 170l174 -348q-82 -92 -238.5 -149.5t-342.5 -57.5zM555 1799.5q0 68.5 59.5 129
t142.5 60.5t141 -59.5t58 -143.5t-58 -142.5t-127.5 -58.5t-116 26.5t-73 73t-26.5 115z" />
    <glyph glyph-name="D.swsh" horiz-adv-x="1941" 
d="M1110 1067h-70v-705h70q178 0 264 99.5t88 271.5q2 334 -352 334zM1143 1427q343 0 544 -168t201 -525t-200.5 -545.5t-544.5 -188.5h-504v1077h-47q-129 0 -183.5 -36.5t-54.5 -114.5q0 -160 183 -160v-326q-401 0 -507 308q-30 86 -30 186q0 494 637 493h506z" />
    <glyph glyph-name="Eth.swsh" horiz-adv-x="2076" 
d="M1245 1067h-67v-195h235v-325h-235v-185h67q178 0 265 99.5t87 271.5q4 334 -352 334zM1280 1427q348 0 546.5 -171t198.5 -525t-201.5 -542.5t-543.5 -188.5h-504v547h-143v325h143v205h-102q-174 0 -249 -58t-75 -165.5t58.5 -170t187.5 -62.5v-328q-160 0 -278.5 46
t-187.5 125q-134 153 -134 384q0 580 739 579h545z" />
    <glyph glyph-name="Dcaron.swsh" horiz-adv-x="1941" 
d="M1110 1067h-70v-705h70q178 0 264 99.5t88 271.5q2 334 -352 334zM1143 1427q343 0 544 -168t201 -525t-200.5 -545.5t-544.5 -188.5h-504v1077h-47q-129 0 -183.5 -36.5t-54.5 -114.5q0 -160 183 -160v-326q-401 0 -507 308q-30 86 -30 186q0 494 637 493h506z
M1348 1577h-304l-278 479h297l133 -178l135 178h297z" />
    <glyph glyph-name="Dcroat.swsh" horiz-adv-x="2076" 
d="M1245 1067h-67v-195h235v-325h-235v-185h67q178 0 265 99.5t87 271.5q4 334 -352 334zM1280 1427q348 0 546.5 -171t198.5 -525t-201.5 -542.5t-543.5 -188.5h-504v547h-143v325h143v205h-102q-174 0 -249 -58t-75 -165.5t58.5 -170t187.5 -62.5v-328q-160 0 -278.5 46
t-187.5 125q-134 153 -134 384q0 580 739 579h545z" />
    <glyph glyph-name="E.swsh" horiz-adv-x="1722" 
d="M1667 1069h-588v-178h437v-320h-437v-209h588v-362h-991v1077h-98q-119 0 -171.5 -36.5t-52.5 -114.5q0 -160 183 -160v-326q-401 0 -507 308q-30 86 -30 186q0 494 623 493h1044v-358z" />
    <glyph glyph-name="Eacute.swsh" horiz-adv-x="1722" 
d="M1667 1069h-588v-178h437v-320h-437v-209h588v-362h-991v1077h-98q-119 0 -171.5 -36.5t-52.5 -114.5q0 -160 183 -160v-326q-401 0 -507 308q-30 86 -30 186q0 494 623 493h1044v-358zM1397 2005l-391 -428h-295l274 428h412z" />
    <glyph glyph-name="Ecaron.swsh" horiz-adv-x="1722" 
d="M1667 1069h-588v-178h437v-320h-437v-209h588v-362h-991v1077h-98q-119 0 -171.5 -36.5t-52.5 -114.5q0 -160 183 -160v-326q-401 0 -507 308q-30 86 -30 186q0 494 623 493h1044v-358zM1047 1577h-304l-278 479h297l133 -178l135 178h295z" />
    <glyph glyph-name="Ecircumflex.swsh" horiz-adv-x="1722" 
d="M1667 1069h-588v-178h437v-320h-437v-209h588v-362h-991v1077h-98q-119 0 -171.5 -36.5t-52.5 -114.5q0 -160 183 -160v-326q-401 0 -507 308q-30 86 -30 186q0 494 623 493h1044v-358zM877 1753l-134 -178h-297l279 481h303l281 -481h-297z" />
    <glyph glyph-name="Edieresis.swsh" horiz-adv-x="1722" 
d="M1667 1069h-588v-178h437v-320h-437v-209h588v-362h-991v1077h-98q-119 0 -171.5 -36.5t-52.5 -114.5q0 -160 183 -160v-326q-401 0 -507 308q-30 86 -30 186q0 494 623 493h1044v-358zM1111 1585q-83 0 -142.5 58.5t-59.5 141.5t59.5 142.5t142.5 59.5t141.5 -59.5
t58.5 -142.5t-58.5 -141.5t-141.5 -58.5zM665.5 1585q-69.5 0 -115.5 26.5t-72.5 73t-26.5 115t59 128t127.5 59.5t115 -27t72 -74t25.5 -115.5t-57.5 -127t-127 -58.5z" />
    <glyph glyph-name="Edotaccent.swsh" horiz-adv-x="1722" 
d="M1667 1069h-588v-178h437v-320h-437v-209h588v-362h-991v1077h-98q-119 0 -171.5 -36.5t-52.5 -114.5q0 -160 183 -160v-326q-401 0 -507 308q-30 86 -30 186q0 494 623 493h1044v-358zM867.5 1585q-68.5 0 -128 58.5t-59.5 141.5t59.5 143.5t142.5 60.5t141 -59.5
t58 -129t-26.5 -116t-72.5 -73t-114.5 -26.5z" />
    <glyph glyph-name="Egrave.swsh" horiz-adv-x="1722" 
d="M1667 1069h-588v-178h437v-320h-437v-209h588v-362h-991v1077h-98q-119 0 -171.5 -36.5t-52.5 -114.5q0 -160 183 -160v-326q-401 0 -507 308q-30 86 -30 186q0 494 623 493h1044v-358zM1010 1577h-260l-285 461h375z" />
    <glyph glyph-name="Emacron.swsh" horiz-adv-x="1722" 
d="M1667 1069h-588v-178h437v-320h-437v-209h588v-362h-991v1077h-98q-119 0 -171.5 -36.5t-52.5 -114.5q0 -160 183 -160v-326q-401 0 -507 308q-30 86 -30 186q0 494 623 493h1044v-358zM1247 1944v-318h-733v318h733z" />
    <glyph glyph-name="Eogonek.swsh" horiz-adv-x="1722" 
d="M1667 1069h-588v-178h437v-320h-437v-209h588v-362h-20q-238 -145 -238 -268q0 -74 72 -74q63 0 125 35l57 -244q-127 -66 -284.5 -65.5t-226.5 69t-69 174.5q0 217 285 373h-692v1077h-98q-119 0 -171.5 -36.5t-52.5 -114.5q0 -160 183 -160v-326q-401 0 -507 308
q-30 86 -30 186q0 494 623 493h1044v-358z" />
    <glyph glyph-name="F.swsh" horiz-adv-x="1710" 
d="M1690 1065h-580v-199h428v-329h-428v-537h-401v1077h-111q-121 0 -173 -37t-52 -114q0 -160 198 -160v-326q-145 0 -256 40t-174 111q-123 139 -123 345t121 340q140 153 484 151h1067v-362z" />
    <glyph glyph-name="G.swsh" horiz-adv-x="1404" 
d="M647.5 -539q-147.5 0 -274.5 41t-195 101l133 340q135 -119 373 -119t252 217q-115 -37 -270 -37q-299 0 -477.5 180.5t-178.5 534.5q0 233 92.5 402t253 255t375.5 86q322 0 451 -188q104 -152 75 -449h-376q16 117 -22 183.5t-159 66.5q-196 -1 -256 -211
q-18 -66 -18 -157.5t36 -166.5q72 -149 255 -149q127 0 217 33l-4 203h401l4 -482q0 -452 -268 -598q-86 -47 -179 -66.5t-240.5 -19.5z" />
    <glyph glyph-name="Gbreve.swsh" horiz-adv-x="1404" 
d="M676 -539q-120 -1 -224 21q-177 36 -274 121l133 340q135 -119 373 -119t252 217q-115 -37 -270 -37q-299 0 -477.5 180.5t-178.5 534.5q0 233 92.5 402t253 255t375.5 86q322 0 451 -188q104 -152 75 -449h-376q16 117 -22 183.5t-159 66.5q-196 -1 -256 -211
q-18 -66 -18 -157.5t36 -166.5q72 -149 255 -149q127 0 217 33l-4 203h401l4 -482q1 -315 -123 -475q-160 -209 -536 -209zM769 1579q-421 0 -396 457h297q-6 -211 100 -211q59 0 79.5 53t20.5 158h295q25 -457 -396 -457z" />
    <glyph glyph-name="Gdotaccent.swsh" horiz-adv-x="1404" 
d="M684 -176q238 0 252 217q-115 -37 -270 -37q-299 0 -477.5 180.5t-178.5 534.5q0 233 92.5 402t253 255t375.5 86q322 0 451 -188q104 -152 75 -449h-376q16 117 -22 183.5t-159 66.5q-196 -1 -256 -211q-18 -66 -18 -157.5t36 -166.5q72 -149 255 -149q127 0 217 33
l-4 203h401l4 -482q0 -385 -191 -543q-171 -141 -464 -141q-180 0 -307 41t-195 101l133 340q135 -119 373 -119zM751.5 1585q-69.5 0 -129 58.5t-59.5 141.5t59.5 143.5t143.5 60.5t142.5 -59.5t58.5 -129t-27 -116t-73 -73t-115.5 -26.5z" />
    <glyph glyph-name="H.swsh" horiz-adv-x="1955" 
d="M354 928q0 -162 201 -162v-326q-300 0 -427 147q-128 147 -128 350t128 347q128 143 476 143h461v-518h373v518h401v-1427h-401v541h-373v-541h-401v1077h-84q-121 0 -173.5 -36.5t-52.5 -112.5z" />
    <glyph glyph-name="I.swsh" horiz-adv-x="1193" 
d="M354 928q0 -162 201 -162v-326q-300 0 -427 147q-128 147 -128 351q0 489 621 489h456v-1427h-399v1077h-82q-131 0 -186.5 -36.5t-55.5 -112.5z" />
    <glyph glyph-name="Iacute.swsh" horiz-adv-x="1193" 
d="M354 928q0 -162 201 -162v-326q-300 0 -427 147q-128 147 -128 351q0 489 621 489h456v-1427h-399v1077h-82q-131 0 -186.5 -36.5t-55.5 -112.5zM1401 2005l-389 -428h-297l276 428h410z" />
    <glyph glyph-name="uni01CF.swsh" horiz-adv-x="1193" 
d="M354 928q0 -162 201 -162v-326q-300 0 -427 147q-128 147 -128 351q0 489 621 489h456v-1427h-399v1077h-82q-131 0 -186.5 -36.5t-55.5 -112.5zM1051 1577h-301l-281 479h297l133 -178l135 178h297z" />
    <glyph glyph-name="Icircumflex.swsh" horiz-adv-x="1193" 
d="M354 928q0 -162 201 -162v-326q-300 0 -427 147q-128 147 -128 351q0 489 621 489h456v-1427h-399v1077h-82q-131 0 -186.5 -36.5t-55.5 -112.5zM883 1753l-135 -178h-297l280 481h301l281 -481h-297z" />
    <glyph glyph-name="Idieresis.swsh" horiz-adv-x="1193" 
d="M354 928q0 -162 201 -162v-326q-300 0 -427.5 147t-127.5 351q0 489 621 489h456v-1427h-399v1077h-82q-131 0 -186.5 -36.5t-55.5 -112.5zM1115 1987q83 0 141.5 -59.5t58.5 -142.5t-58.5 -141.5t-141.5 -58.5t-141.5 58.5t-58.5 141.5t58.5 142.5t141.5 59.5zM656 1585
q-54 0 -100 26.5t-73.5 73t-27.5 115t59 128t142 59.5t141.5 -59.5t58.5 -128t-26.5 -115t-73 -73t-100.5 -26.5z" />
    <glyph glyph-name="Idotaccent.swsh" horiz-adv-x="1193" 
d="M354 928q0 -162 201 -162v-326q-300 0 -427.5 147t-127.5 351q0 489 621 489h456v-1427h-399v1077h-82q-131 0 -186.5 -36.5t-55.5 -112.5zM886 1585q-83 0 -142.5 58.5t-59.5 141.5t59.5 143.5t142.5 60.5t141 -59.5t58 -143.5t-58 -142.5t-141 -58.5z" />
    <glyph glyph-name="Igrave.swsh" horiz-adv-x="1193" 
d="M354 928q0 -162 201 -162v-326q-300 0 -427 147q-128 147 -128 351q0 489 621 489h456v-1427h-399v1077h-82q-131 0 -186.5 -36.5t-55.5 -112.5zM1016 1577h-262l-285 461h375z" />
    <glyph glyph-name="Imacron.swsh" horiz-adv-x="1193" 
d="M354 928q0 -162 201 -162v-326q-300 0 -427 147q-128 147 -128 351q0 489 621 489h456v-1427h-399v1077h-82q-131 0 -186.5 -36.5t-55.5 -112.5zM520 1944h731v-318h-731v318z" />
    <glyph glyph-name="Iogonek.swsh" horiz-adv-x="1193" 
d="M354 928q0 -162 201 -162v-326q-300 0 -427 147q-128 147 -128 351q0 489 621 489h456v-1427h-43q-209 -133 -209 -252q0 -74 72 -74q63 0 125 37l55 -243q-127 -66 -283.5 -66t-225 67.5t-68.5 174.5q0 207 252 356h-74v1077h-82q-131 0 -186.5 -36.5t-55.5 -112.5z" />
    <glyph glyph-name="J.swsh" horiz-adv-x="1253" 
d="M1169 1427v-1153q1 -448 -253 -604q-140 -86 -377.5 -86t-388 145.5t-150.5 411.5q0 165 87 301q164 254 550 254v-334q-127 0 -195.5 -64.5t-68.5 -156.5q0 -199 180 -202q100 -4 157.5 71.5t57.5 231.5v835h-418v350h819z" />
    <glyph glyph-name="K.swsh" horiz-adv-x="1878" 
d="M1090 0h-402v1077h-113q-119 0 -170 -36.5t-51 -114.5q0 -160 201 -160v-326q-147 0 -258 40t-173 111q-124 140 -124 345t128 348t472 143h490v-458l315 458h463l-387 -520l389 -907h-475l-205 518l-100 -137v-381z" />
    <glyph glyph-name="Kcommaaccent.swsh" horiz-adv-x="1878" 
d="M1229 -94q94 0 157.5 -73t63.5 -193q0 -281 -307 -418l-123 178q133 61 176 121q-72 6 -122 56t-50 136t55.5 139.5t149.5 53.5zM1090 0h-402v1077h-113q-119 0 -170 -36.5t-51 -114.5q0 -160 201 -160v-326q-147 0 -258 40t-173 111q-124 140 -124 344.5t128.5 348
t471.5 143.5h490v-458l315 458h463l-387 -520l389 -907h-475l-205 518l-100 -137v-381z" />
    <glyph glyph-name="L.swsh" horiz-adv-x="1564" 
d="M1063 362h485v-362h-889v1077h-84q-119 0 -170 -36.5t-51 -114.5q0 -160 201 -160v-326q-147 0 -258 40t-173 111q-124 140 -124 345t128 348t472 143h463v-1065z" />
    <glyph glyph-name="Lacute.swsh" horiz-adv-x="1564" 
d="M1063 362h485v-362h-889v1077h-84q-119 0 -170 -36.5t-51 -114.5q0 -160 201 -160v-326q-147 0 -258 40t-173 111q-124 140 -124 345t128 348t472 143h463v-1065zM1389 2005l-392 -428h-295l275 428h412z" />
    <glyph glyph-name="Lcaron.swsh" horiz-adv-x="1564" 
d="M1063 362h485v-362h-889v1077h-84q-119 0 -170 -36.5t-51 -114.5q0 -160 201 -160v-326q-147 0 -258 40t-173 111q-124 140 -124 345t128 348t472 143h463v-1065zM1038 1577h-303l-278 479h297l133 -178l135 178h297z" />
    <glyph glyph-name="Lcommaaccent.swsh" horiz-adv-x="1564" 
d="M1154 -94q93 0 156.5 -73t63.5 -193q0 -281 -305 -418l-123 178q133 61 176 121q-74 6 -123 56t-49 136t55.5 139.5t148.5 53.5zM1063 362h485v-362h-889v1077h-84q-119 0 -170 -36.5t-51 -114.5q0 -160 201 -160v-326q-147 0 -258 40t-173 111q-124 140 -124 344.5
t128.5 348t471.5 143.5h463v-1065z" />
    <glyph glyph-name="Lslash.swsh" horiz-adv-x="1499" 
d="M997 362h486v-362h-887v358l-115 -57l-143 279l258 131v366h-84q-176 0 -176 -127q0 -70 51 -127l-285 -141q-102 131 -102 311t123 307t418 127h456v-507l189 98l162 -270l-351 -181v-205z" />
    <glyph glyph-name="M.swsh" horiz-adv-x="2285" 
d="M1782 0v702l-221 -589h-295l-224 596v-709h-370v1077h-97q-156 0 -199 -67q-22 -33 -22 -84q0 -160 201 -160v-326q-147 0 -258 40t-173 111q-124 142 -124 345t130 348t470 143h551l281 -686l254 686h462l21 -1427h-387z" />
    <glyph glyph-name="N.swsh" horiz-adv-x="1929" 
d="M1442 1427h370v-1427h-376l-404 666v-666h-370v1077h-87q-155 1 -199 -67q-22 -32 -22 -84q0 -160 201 -160v-326q-147 0 -258 40t-173 111q-124 140 -124 345t128 348t472 143h434l408 -677v677z" />
    <glyph glyph-name="Nacute.swsh" horiz-adv-x="1929" 
d="M1442 1427h370v-1427h-376l-404 666v-666h-370v1077h-87q-155 1 -199 -67q-22 -32 -22 -84q0 -160 201 -160v-326q-147 0 -258 40t-173 111q-124 140 -124 345t128 348t472 143h434l408 -677v677zM1753 2005l-389 -428h-297l276 428h410z" />
    <glyph glyph-name="Ncaron.swsh" horiz-adv-x="1929" 
d="M1442 1427h370v-1427h-376l-404 666v-666h-370v1077h-87q-155 1 -199 -67q-22 -32 -22 -84q0 -160 201 -160v-326q-147 0 -258 40t-173 111q-124 140 -124 345t128 348t472 143h434l408 -677v677zM1405 1577h-303l-281 479h297l135 -178l133 178h297z" />
    <glyph glyph-name="Ncommaaccent.swsh" horiz-adv-x="1929" 
d="M1243 -94q94 0 157.5 -73t63.5 -193q0 -281 -307 -418l-121 178q133 61 174 121q-72 6 -121 56t-49 136t54.5 139.5t148.5 53.5zM1442 1427h370v-1427h-376l-404 666v-666h-370v1077h-87q-155 1 -199 -67q-22 -32 -22 -84q0 -160 201 -160v-326q-147 0 -258 40t-173 111
q-124 140 -124 344.5t128.5 348t471.5 143.5h434l408 -677v677z" />
    <glyph glyph-name="Ntilde.swsh" horiz-adv-x="1929" 
d="M1442 1427h370v-1427h-376l-404 666v-666h-370v1077h-87q-119 0 -170 -36.5t-51 -114.5q0 -160 201 -160v-326q-147 0 -258 40t-173 111q-124 140 -124 345t128 348t472 143h434l408 -677v677zM1026 1942q84 0 172.5 -61.5t128.5 -61.5q59 0 59 116h261
q20 -451 -234 -450q-84 0 -178.5 60.5t-121 60.5t-39.5 -35t-11 -80h-260q-23 451 223 451z" />
    <glyph glyph-name="O.swsh" horiz-adv-x="1560" 
d="M784.5 354q149.5 0 234.5 82t85 199q0 49 -10 90q-147 -145 -455 -145l6 331q59 0 109.5 21.5t50.5 62.5q0 80 -100 80t-168 -94t-68 -260t83 -266.5t232.5 -100.5zM45 712.5q0 350.5 206 550t532.5 199.5t411.5 -248q24 -70 24 -153l94 76q90 -66 146.5 -182.5
t60.5 -270.5q8 -324 -195 -522.5t-546 -195.5t-538.5 199.5t-195.5 547z" />
    <glyph glyph-name="Oacute.swsh" horiz-adv-x="1560" 
d="M784.5 354q149.5 0 234.5 82t85 199q0 49 -10 90q-147 -145 -455 -145l6 331q59 0 109.5 21.5t50.5 62.5q0 80 -100 80t-168 -94t-68 -260t83 -266.5t232.5 -100.5zM45 712.5q0 350.5 206 550t532.5 199.5t411.5 -248q24 -70 24 -153l94 76q90 -66 146.5 -182.5
t60.5 -270.5q8 -324 -195 -522.5t-546 -195.5t-538.5 199.5t-195.5 547zM1303 2005l-392 -428h-295l275 428h412z" />
    <glyph glyph-name="uni01D1.swsh" horiz-adv-x="1560" 
d="M784.5 354q149.5 0 234.5 82t85 199q0 49 -10 90q-147 -145 -455 -145l6 331q59 0 109.5 21.5t50.5 62.5q0 80 -100 80t-168 -94t-68 -260t83 -266.5t232.5 -100.5zM45 712.5q0 350.5 206 550t532.5 199.5t411.5 -248q24 -70 24 -153l94 76q90 -66 146.5 -182.5
t60.5 -270.5q8 -324 -195 -522.5t-546 -195.5t-538.5 199.5t-195.5 547zM952 1577h-303l-278 479h297l133 -178l135 178h297z" />
    <glyph glyph-name="Ocircumflex.swsh" horiz-adv-x="1560" 
d="M784.5 354q149.5 0 234.5 82t85 199q0 49 -10 90q-147 -145 -455 -145l6 331q59 0 109.5 21.5t50.5 62.5q0 80 -100 80t-168 -94t-68 -260t83 -266.5t232.5 -100.5zM45 712.5q0 350.5 206 550t532.5 199.5t411.5 -248q24 -70 24 -153l94 76q90 -66 146.5 -182.5
t60.5 -270.5q8 -324 -195 -522.5t-546 -195.5t-538.5 199.5t-195.5 547zM782 1753l-133 -178h-297l281 481h301l280 -481h-296z" />
    <glyph glyph-name="Odieresis.swsh" horiz-adv-x="1560" 
d="M784.5 354q149.5 0 234.5 82t85 199q0 49 -10 90q-147 -145 -455 -145l6 331q59 0 109.5 21.5t50.5 62.5q0 80 -100 80t-168 -94t-68 -260t83 -266.5t232.5 -100.5zM45 712.5q0 350.5 206 550t532.5 199.5t411.5 -248q24 -70 24 -153l94 76q90 -66 146.5 -182.5
t60.5 -270.5q8 -324 -195 -522.5t-546 -195.5t-538.5 199.5t-195.5 547zM1017 1585q-83 0 -142.5 58.5t-59.5 141.5t59.5 142.5t142.5 59.5t141.5 -59.5t58.5 -142.5t-58.5 -141.5t-141.5 -58.5zM558 1585q-83 0 -142.5 58.5t-59.5 141.5t59.5 142.5t128 59.5t115 -27
t73 -74t26.5 -115.5t-58.5 -127t-141.5 -58.5z" />
    <glyph glyph-name="Ograve.swsh" horiz-adv-x="1560" 
d="M784.5 354q149.5 0 234.5 82t85 199q0 49 -10 90q-147 -145 -455 -145l6 331q59 0 109.5 21.5t50.5 62.5q0 80 -100 80t-168 -94t-68 -260t83 -266.5t232.5 -100.5zM45 712.5q0 350.5 206 550t532.5 199.5t411.5 -248q24 -70 24 -153l94 76q90 -66 146.5 -182.5
t60.5 -270.5q8 -324 -195 -522.5t-546 -195.5t-538.5 199.5t-195.5 547zM918 1577h-263l-284 461h374z" />
    <glyph glyph-name="Ohungarumlaut.swsh" horiz-adv-x="1560" 
d="M784.5 354q149.5 0 234.5 82t85 199q0 49 -10 90q-147 -145 -455 -145l6 331q59 0 109.5 21.5t50.5 62.5q0 80 -100 80t-168 -94t-68 -260t83 -266.5t232.5 -100.5zM45 712.5q0 350.5 206 550t532.5 199.5t411.5 -248q24 -70 24 -153l94 76q90 -66 146.5 -182.5
t60.5 -270.5q8 -324 -195 -522.5t-546 -195.5t-538.5 199.5t-195.5 547zM1083 1577h-260l236 461h373zM924 2038l-215 -461h-230l84 461h361z" />
    <glyph glyph-name="Omacron.swsh" horiz-adv-x="1560" 
d="M780 354q102 0 178 40q146 77 146 241q0 49 -10 90q-147 -145 -455 -145l6 331q59 0 109.5 21.5t50.5 62.5q0 80 -100 80t-168 -94t-68 -260t83 -266.5t228 -100.5zM45 712.5q0 350.5 206 550t532.5 199.5t411.5 -248q24 -70 24 -153l94 76q90 -66 146.5 -182.5
t60.5 -270.5q8 -324 -195 -522.5t-546 -195.5t-538.5 199.5t-195.5 547zM1153 1944v-318h-733v318h733z" />
    <glyph glyph-name="Otilde.swsh" horiz-adv-x="1560" 
d="M784.5 354q149.5 0 234.5 82t85 199q0 49 -10 90q-147 -145 -455 -145l6 331q59 0 109.5 21.5t50.5 62.5q0 80 -100 80t-168 -94t-68 -260t83 -266.5t232.5 -100.5zM45 717q0 346 206 545.5t532.5 199.5t411.5 -248q24 -70 24 -153l94 76q90 -66 146.5 -182.5
t60.5 -270.5q8 -324 -195 -522.5t-545 -196.5q-227 2 -392 90t-254 257t-89 405zM664 1606q-54 0 -54 -115h-260q-20 451 223 451q84 0 172.5 -61.5t131.5 -61.5q59 0 57 116h260q23 -451 -233 -450q-84 0 -177.5 60.5t-119.5 60.5z" />
    <glyph glyph-name="P.swsh" horiz-adv-x="1781" 
d="M1204 815q108 0 133 86q6 20 6 45q0 119 -141 119h-147v-250h149zM1243 1427q522 0 522 -477q0 -248 -136 -366t-384 -119h-190v-465h-402v1077h-78q-119 0 -169 -37t-52 -114q0 -160 201 -160v-326q-147 0 -258 40t-173 111q-124 142 -124 345t130 348t470 143h643z" />
    <glyph glyph-name="Q.swsh" horiz-adv-x="1560" 
d="M469 721q0 -166 83 -266.5t233 -100.5t234.5 82.5t84.5 198.5q0 49 -10 90q-147 -145 -455 -145l6 331q59 0 109.5 21.5t50.5 62.5q0 80 -100 80t-168 -94t-68 -260zM1270 -121q117 0 221 64l27 -357q-112 -45 -224 -45q-191 0 -404.5 91.5t-334.5 91.5t-305 -93l-19 346
q102 45 191 62q-182 84 -279.5 257t-97.5 421q0 346 206 545.5t532.5 199.5t411.5 -248q24 -70 24 -153l94 76q90 -66 146.5 -182.5t60.5 -264.5q8 -291 -150.5 -480.5t-437.5 -232.5q62 -31 150.5 -60.5t120.5 -33.5t67 -4z" />
    <glyph glyph-name="R.swsh" horiz-adv-x="1873" 
d="M1360 933q0 132 -133 132h-158v-246h160q59 0 95 32t36 82zM1069 496v-496h-401v1077h-93q-119 0 -170 -36.5t-51 -114.5q0 -160 201 -160v-326q-147 0 -258 40t-173 111q-124 140 -124 344.5t128.5 348t471.5 143.5h672q242 0 375 -115.5t133 -344.5q0 -276 -221 -404
l292 -563h-475l-221 496h-86z" />
    <glyph glyph-name="Racute.swsh" horiz-adv-x="1873" 
d="M1360 933q0 132 -133 132h-158v-246h160q59 0 95 32t36 82zM1069 496v-496h-401v1077h-93q-155 1 -199 -67q-22 -32 -22 -84q0 -160 201 -160v-326q-147 0 -258 40t-173 111q-124 140 -124 344.5t128.5 348t471.5 143.5h672q242 0 375 -115.5t133 -344.5
q0 -276 -221 -404l292 -563h-475l-221 496h-86zM1729 2005l-392 -428h-295l275 428h412z" />
    <glyph glyph-name="Rcaron.swsh" horiz-adv-x="1873" 
d="M1360 933q0 132 -133 132h-158v-246h160q59 0 95 32t36 82zM1069 496v-496h-401v1077h-93q-119 0 -170 -36.5t-51 -114.5q0 -160 201 -160v-326q-147 0 -258 40t-173 111q-124 140 -124 344.5t128.5 348t471.5 143.5h672q242 0 375 -115.5t133 -344.5q0 -276 -221 -404
l292 -563h-475l-221 496h-86zM1378 1577h-303l-278 479h297l133 -178l135 178h295z" />
    <glyph glyph-name="Rcommaaccent.swsh" horiz-adv-x="1873" 
d="M1200 -94q76 0 128 -33q110 -70 110 -233q0 -281 -308 -418l-120 178q133 61 174 121q-72 6 -121 56t-49 136t55 139.5t131 53.5zM1360 933q0 132 -133 132h-158v-246h160q59 0 95 32t36 82zM1069 0h-401v1077h-93q-119 0 -170 -36.5t-51 -114.5q0 -160 201 -160v-326
q-147 0 -258 40t-173 111q-124 140 -124 344.5t128.5 348t471.5 143.5h672q242 0 375 -115.5t133 -344.5q0 -276 -221 -404l292 -563h-475l-221 496h-86v-496z" />
    <glyph glyph-name="S.swsh" horiz-adv-x="1193" 
d="M586 -334q-268 0 -425 158t-157 465l369 61q-6 -164 52 -242.5t169 -78.5q78 0 122 34.5t44 98.5q0 110 -148 194q-28 16 -67 35q-296 149 -387 363q-45 106 -45 237q0 215 136 342t400.5 127t385.5 -166q98 -135 71 -393h-356q16 123 -44 171q-30 24 -79 24t-80 -31
t-31 -87t54.5 -107.5t191.5 -127.5q197 -100 299 -233t102 -351t-154.5 -355.5t-422.5 -137.5z" />
    <glyph glyph-name="Sacute.swsh" horiz-adv-x="1193" 
d="M594 29q166 0 166 138q0 69 -48 116t-184 115q-416 210 -415 593q0 215 136 342t400.5 127t385.5 -166q98 -135 71 -393h-356q16 123 -44 171q-30 24 -79 24t-80 -31t-31 -87t54.5 -107.5t191.5 -127.5q197 -100 299 -233t102 -351t-154.5 -355.5t-422.5 -137.5t-425 158
t-157 465l369 61q-12 -321 221 -321zM1147 2005l-389 -428h-297l276 428h410z" />
    <glyph glyph-name="Scaron.swsh" horiz-adv-x="1193" 
d="M594 29q166 0 166 138q0 69 -48 116t-167 108q-225 115 -328.5 259.5t-103.5 350t136 332.5t400.5 127t385.5 -166q98 -135 71 -393h-356q16 123 -44 171q-30 24 -70 24t-66 -14q-54 -31 -54 -95.5t54.5 -116t191.5 -127.5q197 -100 299 -233t102 -351t-154.5 -355.5
t-422 -137.5t-425 155.5t-157.5 467.5l369 61q-12 -321 221 -321zM797 1577h-303l-279 479h297l133 -178l135 178h297z" />
    <glyph glyph-name="T.swsh" horiz-adv-x="1527" 
d="M0 895q0 532 600 532h907v-366h-311v-1061h-399v1061h-222q-155 0 -199 -78q-22 -39 -22 -98q0 -172 217 -172v-328q-152 0 -265 42q-113 43 -178 115q-128 142 -128 353z" />
    <glyph glyph-name="Tbar.swsh" horiz-adv-x="1527" 
d="M1507 1061h-311v-383h190v-324h-190v-354h-399v354h-193v324h193v383h-262q-199 0 -199 -139q0 -125 162 -125v-326q-386 0 -488 287q-28 80 -28 177q0 199 139.5 345.5t490.5 146.5h895v-366z" />
    <glyph glyph-name="Tcaron.swsh" horiz-adv-x="1527" 
d="M0 895q0 532 600 532h907v-366h-311v-1061h-399v1061h-222q-155 0 -199 -78q-22 -39 -22 -98q0 -172 217 -172v-328q-152 0 -265 42q-113 43 -178 115q-128 142 -128 353zM1161 1577h-303l-278 479h297l133 -178l135 178h297z" />
    <glyph glyph-name="uni0162.swsh" horiz-adv-x="1527" 
d="M1126 -80q205 0 205 -233q0 -123 -89 -195t-247 -72t-272 74l86 195q11 -17 75 -38.5t99 -21.5q88 0 88 64q0 51 -47 51q-37 0 -61 -33l-168 53l82 236h-80v1061h-222q-119 0 -170 -43t-51 -133q0 -172 217 -172v-328q-152 0 -265 42q-113 43 -178 115q-128 143 -128 353
q0 532 600 532h907v-366h-311v-1061h-100l-43 -90q35 10 73 10z" />
    <glyph glyph-name="uni021A.swsh" horiz-adv-x="1527" 
d="M1001 -94q94 0 158 -73t64 -193q0 -281 -308 -418l-122 178q133 61 176 121q-72 6 -122 56t-50 136t55 139.5t149 53.5zM0 895q0 532 600 532h907v-366h-311v-1061h-399v1061h-222q-155 0 -199 -78q-22 -39 -22 -98q0 -172 217 -172v-328q-152 0 -265 42
q-113 43 -178 115q-128 142 -128 353z" />
    <glyph glyph-name="U.swsh" horiz-adv-x="1908" 
d="M1440 1427h401v-819q0 -313 -154.5 -478t-433 -165t-435 167t-156.5 476v469h-87q-119 0 -170 -36.5t-51 -114.5q0 -160 201 -160v-326q-147 0 -258 40t-173 111q-124 140 -124 345t128 348t472 143h463v-845q0 -146 85 -205q42 -29 119.5 -29t125 61.5t47.5 172.5v845z
" />
    <glyph glyph-name="Uacute.swsh" horiz-adv-x="1908" 
d="M1440 1427h401v-819q0 -313 -154.5 -478t-433 -165t-435 167t-156.5 476v469h-87q-119 0 -170 -36.5t-51 -114.5q0 -160 201 -160v-326q-147 0 -258 40t-173 111q-124 140 -124 345t128 348t472 143h463v-845q0 -146 85 -205q42 -29 119.5 -29t125 61.5t47.5 172.5v845z
M1784 2005l-389 -428h-297l276 428h410z" />
    <glyph glyph-name="uni01D3.swsh" horiz-adv-x="1908" 
d="M1440 1427h401v-819q0 -313 -154.5 -478t-433 -165t-435 167t-156.5 476v469h-87q-119 0 -170 -36.5t-51 -114.5q0 -160 201 -160v-326q-147 0 -258 40t-173 111q-124 140 -124 345t128 348t472 143h463v-845q0 -146 85 -205q42 -29 119.5 -29t125 61.5t47.5 172.5v845z
M1434 1577h-301l-281 479h297l133 -178l135 178h297z" />
    <glyph glyph-name="Ucircumflex.swsh" horiz-adv-x="1908" 
d="M1440 1427h401v-819q0 -313 -154.5 -478t-433 -165t-435 167t-156.5 476v469h-87q-119 0 -170 -36.5t-51 -114.5q0 -160 201 -160v-326q-147 0 -258 40t-173 111q-124 140 -124 345t128 348t472 143h463v-845q0 -146 85 -205q42 -29 119.5 -29t125 61.5t47.5 172.5v845z
M1266 1753l-136 -178h-296l280 481h301l281 -481h-297z" />
    <glyph glyph-name="Udieresis.swsh" horiz-adv-x="1908" 
d="M1440 1427h401v-819q0 -313 -154.5 -478t-433 -165t-435 167t-156.5 476v469h-87q-119 0 -170 -36.5t-51 -114.5q0 -160 201 -160v-326q-147 0 -258 40t-173 111q-124 140 -124 344.5t128.5 348t471.5 143.5h463v-845q0 -146 85 -205q42 -29 119.5 -29t125 61.5
t47.5 172.5v845zM1499 1585q-84 0 -142.5 58.5t-58.5 141.5t58.5 142.5t127 59.5t116 -27t73 -74t25.5 -115.5t-57.5 -127t-141.5 -58.5zM1039 1585q-83 0 -142 58.5t-59 141.5t59 142.5t127.5 59.5t115 -27t73 -74t26.5 -115.5t-58.5 -127t-141.5 -58.5z" />
    <glyph glyph-name="Ugrave.swsh" horiz-adv-x="1908" 
d="M1440 1427h401v-819q0 -313 -154.5 -478t-433 -165t-435 167t-156.5 476v469h-87q-119 0 -170 -36.5t-51 -114.5q0 -160 201 -160v-326q-147 0 -258 40t-173 111q-124 140 -124 345t128 348t472 143h463v-845q0 -146 85 -205q42 -29 119.5 -29t125 61.5t47.5 172.5v845z
M1399 1577h-260l-287 461h375z" />
    <glyph glyph-name="Uhungarumlaut.swsh" horiz-adv-x="1908" 
d="M1440 582v845h401v-819q0 -313 -154.5 -478t-433 -165t-435 167t-156.5 476v469h-87q-119 0 -170 -36.5t-51 -114.5q0 -160 201 -160v-326q-147 0 -258 40t-173 111q-124 140 -124 345t128 348t472 143h463v-845q0 -146 85 -205q42 -29 119.5 -29t125 61.5t47.5 172.5z
M1565 1577h-260l235 461h375zM1405 2038l-215 -461h-229l83 461h361z" />
    <glyph glyph-name="Umacron.swsh" horiz-adv-x="1908" 
d="M1440 1427h401v-819q0 -313 -154.5 -478t-433 -165t-435 167t-156.5 476v469h-87q-119 0 -170 -36.5t-51 -114.5q0 -160 201 -160v-326q-147 0 -258 40t-173 111q-124 140 -124 345t128 348t472 143h463v-845q0 -146 85 -205q42 -29 119.5 -29t125 61.5t47.5 172.5v845z
M1636 1944v-318h-733v318h733z" />
    <glyph glyph-name="Uogonek.swsh" horiz-adv-x="1908" 
d="M1440 1427h401v-819q0 -231 -85 -381.5t-245 -214.5q-223 -139 -223 -260q0 -74 72 -74q63 0 125 35l55 -243q-127 -66 -283.5 -66t-225 68.5t-68.5 175.5q0 182 202 323q-240 25 -371.5 190t-131.5 447v469h-87q-119 0 -170 -36.5t-51 -114.5q0 -160 201 -160v-326
q-147 0 -258 40t-173 111q-124 140 -124 345t128 348t472 143h463v-845q0 -146 85 -205q42 -29 119.5 -29t125 61.5t47.5 172.5v845z" />
    <glyph glyph-name="Uring.swsh" horiz-adv-x="1908" 
d="M1440 1427h401v-819q0 -313 -154.5 -478t-433 -165t-435 167t-156.5 476v469h-87q-119 0 -170 -36.5t-51 -114.5q0 -160 201 -160v-326q-147 0 -258 40t-173 111q-124 140 -124 344.5t128.5 348t471.5 143.5h463v-845q0 -146 85 -205q42 -29 119.5 -29t125 61.5
t47.5 172.5v845zM1354 1831q0 100 -92 100q-33 0 -56.5 -25.5t-23.5 -67.5t23.5 -66.5t62.5 -24.5t62.5 24.5t23.5 59.5zM1267.5 1559q-141.5 0 -219 74.5t-77.5 204.5t77.5 206t219 76t220.5 -78t79 -204t-79 -202.5t-220.5 -76.5z" />
    <glyph glyph-name="V.swsh" horiz-adv-x="1906" 
d="M575 1077q-119 0 -169 -38t-52 -117q0 -160 211 -160v-328q-151 0 -263 41q-204 74 -271 269q-31 88 -31 188t27 182q99 302 538 313h430l179 -753q29 -137 49 -252q25 141 55 262l201 743h415l-450 -1427h-469l-309 1077h-91z" />
    <glyph glyph-name="W.swsh" horiz-adv-x="2492" 
d="M575 1077q-117 0 -168 -38t-51 -117q0 -162 205 -162v-328q-147 0 -259 41t-176 113q-124 140 -124 345t114 339q128 149 453 157h435l77 -710q15 -108 21 -238q29 150 51 238l193 706h372l168 -686q29 -121 49 -250q23 176 31 244l94 696h412l-309 -1427h-463l-131 510
q-23 90 -56 246q-37 -160 -59 -244l-139 -512h-465l-211 1077h-64z" />
    <glyph glyph-name="Wacute.swsh" horiz-adv-x="2492" 
d="M575 1077q-117 0 -168 -38t-51 -117q0 -162 205 -162v-328q-147 0 -259 41t-176 113q-124 140 -124 345t114 339q128 149 453 157h435l77 -710q15 -108 21 -238q29 150 51 238l193 706h372l168 -686q29 -121 49 -250q23 176 31 244l94 696h412l-309 -1427h-463l-131 510
q-23 90 -56 246q-37 -160 -59 -244l-139 -512h-465l-211 1077h-64zM2036 2005l-389 -428h-297l276 428h410z" />
    <glyph glyph-name="Wcircumflex.swsh" horiz-adv-x="2492" 
d="M575 1077q-117 0 -168 -38t-51 -117q0 -162 205 -162v-328q-147 0 -259 41t-176 113q-124 140 -124 345t114 339q128 149 453 157h435l77 -710q15 -108 21 -238q29 150 51 238l193 706h372l168 -686q29 -121 49 -250q23 176 31 244l94 696h412l-309 -1427h-463l-131 510
q-23 90 -56 246q-37 -160 -59 -244l-139 -512h-465l-211 1077h-64zM1518 1753l-136 -178h-295l279 481h303l279 -481h-297z" />
    <glyph glyph-name="Wdieresis.swsh" horiz-adv-x="2492" 
d="M575 1077q-117 0 -168 -38t-51 -117q0 -162 205 -162v-328q-147 0 -259 41t-176 113q-124 140 -124 345t114 339q128 149 453 157h435l77 -710q15 -108 21 -238q29 150 51 238l193 706h372l168 -686q29 -121 49 -250q23 176 31 244l94 696h412l-309 -1427h-463l-131 510
q-23 90 -56 246q-37 -160 -59 -244l-139 -512h-465l-211 1077h-64zM1752 1585q-83 0 -142.5 58.5t-59.5 141.5t59.5 142.5t142.5 59.5t141.5 -59.5t58.5 -142.5t-58.5 -141.5t-141.5 -58.5zM1291 1585q-83 0 -142 58.5t-59 141.5t59 142.5t127.5 59.5t115 -27t73 -74
t26.5 -115.5t-58.5 -127t-141.5 -58.5z" />
    <glyph glyph-name="Wgrave.swsh" horiz-adv-x="2492" 
d="M575 1077q-117 0 -168 -38t-51 -117q0 -162 205 -162v-328q-147 0 -259 41t-176 113q-124 140 -124 345t114 339q128 149 453 157h435l77 -710q15 -108 21 -238q29 150 51 238l193 706h372l168 -686q29 -121 49 -250q23 176 31 244l94 696h412l-309 -1427h-463l-131 510
q-23 90 -56 246q-37 -160 -59 -244l-139 -512h-465l-211 1077h-64zM1651 1577h-260l-287 461h375z" />
    <glyph glyph-name="X.swsh" horiz-adv-x="1796" 
d="M575 1077q-156 0 -199 -67q-22 -33 -22 -84q0 -160 201 -160v-326q-147 0 -258 40t-173 111q-124 142 -124 341t115 339t426 156h434l184 -448l168 448h432l-338 -677l359 -750h-434l-203 477l-182 -477h-441l369 739l-172 338h-142z" />
    <glyph glyph-name="Y.swsh" horiz-adv-x="1751" 
d="M1309 0h-400v492q-59 256 -163.5 420.5t-225.5 164.5q-72 0 -113.5 -41t-41.5 -110.5t50 -113.5t158 -44v-326q-288 0 -436 151q-127 130 -127 338t121 352t391 144q440 0 606 -532q76 268 220 532h430q-322 -584 -469 -929v-498z" />
    <glyph glyph-name="Yacute.swsh" horiz-adv-x="1751" 
d="M1309 0h-400v492q-59 256 -163.5 420.5t-225.5 164.5q-71 0 -113 -40t-42 -110.5t50 -114.5t158 -44v-326q-300 0 -432 147q-131 147 -131 348q0 202 121 346t391 144q440 0 606 -532q76 268 220 532h430q-322 -584 -469 -929v-498zM1618 2005l-389 -428h-297l276 428
h410z" />
    <glyph glyph-name="Ycircumflex.swsh" horiz-adv-x="1751" 
d="M1309 0h-400v492q-59 256 -163.5 420.5t-225.5 164.5q-71 0 -113 -40t-42 -110.5t50 -114.5t158 -44v-326q-300 0 -432 147q-131 147 -131 348q0 202 121 346t391 144q440 0 606 -532q76 268 220 532h430q-322 -584 -469 -929v-498zM1100 1753l-133 -178h-297l278 481
h303l279 -481h-295z" />
    <glyph glyph-name="Ydieresis.swsh" horiz-adv-x="1751" 
d="M1309 0h-400v492q-59 256 -163.5 420.5t-225.5 164.5q-71 0 -113 -40t-42 -110.5t50 -114.5t158 -44v-326q-300 0 -431.5 146.5t-131.5 348.5t121.5 346t390.5 144q440 0 606 -532q76 268 220 532h430q-322 -584 -469 -929v-498zM1334 1585q-83 0 -142 58.5t-59 127
t27.5 115.5t73.5 74t114.5 27t127 -59.5t58.5 -142.5t-58.5 -141.5t-141.5 -58.5zM873 1585q-83 0 -141 58.5t-58 141.5t58.5 142.5t126.5 59.5t114.5 -27t73 -74t26.5 -115.5t-58.5 -127t-141.5 -58.5z" />
    <glyph glyph-name="Ygrave.swsh" horiz-adv-x="1751" 
d="M1309 0h-400v492q-59 256 -163.5 420.5t-225.5 164.5q-72 0 -113.5 -41t-41.5 -110.5t50 -113.5t158 -44v-326q-288 0 -436 151q-127 130 -127 338t121 352t391 144q440 0 606 -532q76 268 220 532h430q-322 -584 -469 -929v-498zM1233 1577h-260l-285 461h373z" />
    <glyph glyph-name="Z.swsh" horiz-adv-x="1363" 
d="M1341 291q-1 -133 -41 -233q-40 -102 -112 -158q-142 -112 -318 -111q-176 0 -350.5 81t-258 81t-152.5 -35l-84 334l596 815h-576v362h1102v-333l-621 -818q168 -96 264 -96q186 0 185 139q1 89 -55 145q-24 24 -64 48l219 289q109 -49 187.5 -177t78.5 -333z" />
    <glyph glyph-name="Zacute.swsh" horiz-adv-x="1363" 
d="M1341 291q-1 -133 -41 -233q-40 -102 -112 -158q-142 -112 -318 -111q-176 0 -350.5 81t-258 81t-152.5 -35l-84 334l596 815h-576v362h1102v-333l-621 -818q168 -96 263.5 -96t140.5 35t45 103.5t-30 113.5t-89 80l219 289q109 -49 187.5 -177t78.5 -333zM1194 2005
l-389 -428h-297l276 428h410z" />
    <glyph glyph-name="Zcaron.swsh" horiz-adv-x="1363" 
d="M1341 291q-1 -133 -41 -233q-40 -102 -112 -158q-142 -112 -318 -111q-176 0 -350.5 81t-258 81t-152.5 -35l-84 334l596 815h-576v362h1102v-333l-621 -818q168 -96 264 -96q186 0 185 139q1 89 -55 145q-24 24 -64 48l219 289q109 -49 187.5 -177t78.5 -333zM844 1577
h-301l-281 479h297l135 -178l133 178h297z" />
    <glyph glyph-name="Zdotaccent.swsh" horiz-adv-x="1363" 
d="M1341 291q-1 -133 -41 -233q-40 -102 -112 -158q-142 -112 -318 -111.5t-350.5 81.5t-258 81t-152.5 -35l-84 334l596 815h-576v362h1102v-333l-621 -818q168 -96 264 -96q186 0 185 139q1 89 -55 145q-24 24 -64 48l219 289q109 -49 187.5 -177t78.5 -333zM665.5 1585
q-69.5 0 -129 58.5t-59.5 141.5t59.5 143.5t143.5 60.5t142.5 -59.5t58.5 -129t-27 -116t-73 -73t-115.5 -26.5z" />
    <glyph glyph-name="i.loclTRK" horiz-adv-x="538" 
d="M461 979v-979h-383v979h383zM273 1559q83 0 142.5 -60.5t59.5 -144.5t-59.5 -143.5t-141.5 -59.5t-143 59.5t-61 143.5t60 144.5t143 60.5z" />
    <glyph glyph-name="a.ss01" horiz-adv-x="1159" 
d="M555 307q109 0 154 90v193q-41 92 -148 92q-70 0 -115 -47t-45 -142.5t42 -140.5t112 -45zM709 979h383v-979h-383v82q-106 -117 -277 -117t-289 121t-118 403q1 391 263 496q72 29 158 29q170 0 263 -117v82z" />
    <glyph glyph-name="aacute.ss01" horiz-adv-x="1159" 
d="M555 307q109 0 154 90v193q-41 92 -148 92q-70 0 -115 -47t-45 -142.5t42 -140.5t112 -45zM709 979h383v-979h-383v82q-106 -117 -277 -117t-289 121t-118 403q1 391 263 496q72 29 158 29q170 0 263 -117v82zM1018 1589l-279 -461h-260l166 461h373z" />
    <glyph glyph-name="abreve.ss01" horiz-adv-x="1159" 
d="M555 307q109 0 154 90v193q-41 92 -148 92q-70 0 -115 -47t-45 -142.5t42 -140.5t112 -45zM709 979h383v-979h-383v82q-106 -117 -275 -117q-220 1 -328 173q-80 128 -81 351q1 391 263 496q72 29 158 29q170 0 263 -117v82zM631 1135q-420 0 -395 456h294
q0 -104 20.5 -157.5t81 -53.5t81 53.5t18.5 157.5h297q23 -456 -397 -456z" />
    <glyph glyph-name="acircumflex.ss01" horiz-adv-x="1159" 
d="M555 307q109 0 154 90v193q-41 92 -148 92q-70 0 -115 -47t-45 -142.5t42 -140.5t112 -45zM709 979h383v-979h-383v82q-106 -117 -277 -117t-289 121t-118 403q1 391 263 496q72 29 158 29q170 0 263 -117v82zM631 1325l-133 -197h-262l243 463h303l244 -463h-260z" />
    <glyph glyph-name="adieresis.ss01" horiz-adv-x="1159" 
d="M555 307q109 0 154 90v193q-41 92 -148 92q-70 0 -115 -47t-45 -142.5t42 -140.5t112 -45zM709 979h383v-979h-383v82q-106 -117 -276.5 -117t-289 121.5t-118.5 402.5q1 391 263 496q72 29 158 29q170 0 263 -117v82zM850.5 1169q-68.5 0 -126.5 58.5t-58 141.5
t58 142.5t141 59.5t141.5 -59.5t58.5 -128t-26.5 -114.5t-73 -73t-115 -27zM398 1169q-83 0 -141 58.5t-58 141.5t58 142.5t141 59.5t141.5 -59.5t58.5 -142.5t-58.5 -141.5t-141.5 -58.5z" />
    <glyph glyph-name="agrave.ss01" horiz-adv-x="1159" 
d="M555 307q109 0 154 90v193q-41 92 -148 92q-70 0 -115 -47t-45 -142.5t42 -140.5t112 -45zM709 979h383v-979h-383v82q-106 -117 -277 -117t-289 121t-118 403q1 391 263 496q72 29 158 29q170 0 263 -117v82zM774 1128h-260l-278 461h372z" />
    <glyph glyph-name="amacron.ss01" horiz-adv-x="1159" 
d="M555 307q109 0 154 90v193q-41 92 -148 92q-70 0 -115 -47t-45 -142.5t42 -140.5t112 -45zM709 979h383v-979h-383v82q-106 -117 -277 -117t-289 121t-118 403q1 391 263 496q72 29 158 29q170 0 263 -117v82zM997 1516v-318h-733v318h733z" />
    <glyph glyph-name="aogonek.ss01" horiz-adv-x="1159" 
d="M555 307q109 0 154 90v193q-41 92 -148 92q-70 0 -115 -47t-45 -142.5t42 -140.5t112 -45zM555 -377q0 217 260 377h-106v82q-106 -117 -277 -117t-289 121t-118 403q1 391 263 496q72 29 158 29q170 0 263 -117v82h383v-979q-97 -76 -136 -117q-75 -81 -75 -153t71 -72
q64 0 142 47l55 -246q-145 -76 -301 -75.5t-224.5 68t-68.5 171.5z" />
    <glyph glyph-name="aring.ss01" horiz-adv-x="1159" 
d="M555 307q109 0 154 90v193q-41 92 -148 92q-70 0 -115 -47t-45 -142.5t42 -140.5t112 -45zM709 979h383v-979h-383v82q-106 -117 -276.5 -117t-289 121.5t-118.5 402.5q1 391 263 496q72 29 158 29q170 0 263 -117v82zM735 1416q0 120 -112 120q-39 0 -68 -30.5t-29 -73
t14 -66.5q27 -48 82.5 -48.5t84 28t28.5 70.5zM315 1425.5q0 133.5 84 216t230.5 82.5t232.5 -86t86 -212.5t-85 -213t-232 -86.5t-231.5 83t-84.5 216.5z" />
    <glyph glyph-name="atilde.ss01" horiz-adv-x="1159" 
d="M555 307q109 0 154 90v193q-41 92 -148 92q-70 0 -115 -47t-45 -142.5t42 -140.5t112 -45zM709 979h383v-979h-383v82q-106 -117 -276.5 -117t-289 121.5t-118.5 402.5q1 391 263 496q72 29 158 29q170 0 263 -117v82zM209 1133q-19 436 217 436q114 0 236 -84
q59 -47 86 -47q47 0 45 127h260q23 -438 -215 -439q-96 0 -162 36q-20 12 -78 44q-59 43 -82 43q-47 1 -47 -116h-260z" />
    <glyph glyph-name="g.ss01" horiz-adv-x="1153" 
d="M555 307q111 0 154 90v195q-41 90 -142 90t-143 -82q-22 -43 -22.5 -122.5t41.5 -125t112 -45.5zM709 979h383v-895q0 -152 -37 -268t-95 -182q-158 -179 -452.5 -179t-462.5 154l154 295q111 -125 270 -125q240 0 240 237v64q-104 -115 -275 -115q-249 1 -352 217
q-57 119 -57 282q0 306 124.5 428t295.5 122t264 -117v82z" />
    <glyph glyph-name="gbreve.ss01" horiz-adv-x="1153" 
d="M555 307q111 0 154 90v195q-41 90 -142 90t-143 -82q-22 -43 -22.5 -122.5t41.5 -125t112 -45.5zM709 979h383v-895q0 -152 -37 -268t-95 -182q-158 -179 -452.5 -179t-462.5 154l154 295q111 -125 270 -125q240 0 240 237v64q-104 -115 -275 -115q-249 1 -352 217
q-57 119 -57 282q0 306 124.5 428t295.5 122t264 -117v82zM637 1135q-420 0 -395 456h295q0 -104 20.5 -157.5t80.5 -53.5t80.5 53.5t18.5 157.5h297q23 -456 -397 -456z" />
    <glyph glyph-name="gcommaaccent.ss01" horiz-adv-x="1153" 
d="M555 307q111 0 154 90v195q-41 90 -148 90q-70 0 -115 -47t-45 -142.5t42 -140.5t112 -45zM709 979h383v-895q0 -152 -37 -268t-95 -182q-158 -179 -452.5 -179t-462.5 154l154 295q111 -125 270 -125q240 0 240 237v64q-104 -115 -275.5 -115t-290 121.5t-118.5 402.5
q-1 392 263 496q74 29 158 29q170 0 263 -117v82zM632 1143q-240 0 -239 265q0 128 81 242.5t226 157.5l121 -178q-141 -59 -188 -137h20q63 0 113.5 -41t50.5 -127t-57.5 -134t-127.5 -48z" />
    <glyph glyph-name="gdotaccent.ss01" horiz-adv-x="1153" 
d="M555 307q111 0 154 90v195q-41 90 -142 90t-143 -82q-22 -43 -22.5 -122.5t41.5 -125t112 -45.5zM709 979h383v-895q0 -152 -37 -268t-95 -182q-158 -179 -452.5 -179t-462.5 154l154 295q111 -125 270 -125q240 0 240 237v64q-104 -115 -275 -115q-249 1 -352 217
q-57 119 -57 282q0 306 124.5 428t295.5 122t264 -117v82zM641 1151q-84 0 -143.5 59.5t-59.5 143.5t59.5 144.5t128 60.5t115.5 -28t74 -75t27 -116.5t-58.5 -129t-142.5 -59.5z" />
    <glyph glyph-name="w.ss01" horiz-adv-x="1492" 
d="M1116 979h367l-287 -979h-377l-102 299l-127 -299h-361l-219 979h377l80 -637l108 377l-88 260h525l-101 -229l88 -369z" />
    <glyph glyph-name="wacute.ss01" horiz-adv-x="1492" 
d="M1116 979h367l-287 -979h-377l-102 299l-127 -299h-361l-219 979h377l80 -637l108 377l-88 260h525l-101 -229l88 -369zM1135 1589l-281 -461h-260l166 461h375z" />
    <glyph glyph-name="wcircumflex.ss01" horiz-adv-x="1492" 
d="M1116 979h367l-287 -979h-377l-102 299l-127 -299h-361l-219 979h377l80 -637l108 377l-88 260h525l-101 -229l88 -369zM745 1325l-133 -197h-260l242 463h303l244 -463h-260z" />
    <glyph glyph-name="wdieresis.ss01" horiz-adv-x="1492" 
d="M1116 979h367l-287 -979h-377l-102 299l-127 -299h-361l-219 979h377l80 -637l108 377l-88 260h525l-101 -229l88 -369zM980 1169q-83 0 -141.5 58.5t-58.5 141.5t58.5 142.5t141.5 59.5t141.5 -59.5t58.5 -142.5t-58.5 -141.5t-141.5 -58.5zM513 1169q-83 0 -141.5 58.5
t-58.5 141.5t58.5 142.5t141.5 59.5t141.5 -59.5t58.5 -142.5t-58.5 -141.5t-141.5 -58.5z" />
    <glyph glyph-name="wgrave.ss01" horiz-adv-x="1492" 
d="M1116 979h367l-287 -979h-377l-102 299l-127 -299h-361l-219 979h377l80 -637l108 377l-88 260h525l-101 -229l88 -369zM889 1128h-258l-281 461h375z" />
    <glyph glyph-name="y.ss01" horiz-adv-x="1114" 
d="M248 -537q-145 0 -250 74l84 330q72 -55 123 -55q88 0 139 114l25 56l-365 997h406l145 -524l154 524h397l-424 -1149q-133 -367 -434 -367z" />
    <glyph glyph-name="yacute.ss01" horiz-adv-x="1114" 
d="M248 -537q-145 0 -250 74l84 330q72 -55 123 -55q88 0 139 114l25 56l-365 997h406l145 -524l154 524h397l-424 -1149q-133 -367 -434 -367zM944 1589l-278 -461h-260l165 461h373z" />
    <glyph glyph-name="ycircumflex.ss01" horiz-adv-x="1114" 
d="M248 -537q-145 0 -250 74l84 330q72 -55 123 -55q88 0 139 114l25 56l-365 997h406l145 -524l154 524h397l-424 -1149q-133 -367 -434 -367zM557 1325l-133 -197h-262l244 463h303l243 -463h-260z" />
    <glyph glyph-name="ydieresis.ss01" horiz-adv-x="1114" 
d="M248 -537q-145 0 -250 74l84 330q72 -55 123 -55q88 0 139 114l25 56l-365 997h406l145 -524l154 524h397l-424 -1149q-133 -367 -434 -367zM777.5 1169q-68.5 0 -127 58.5t-58.5 141.5t58.5 142.5t141.5 59.5t141 -59.5t58 -128t-26.5 -114.5t-72.5 -73t-114.5 -27z
M325 1169q-83 0 -142.5 58.5t-59.5 141.5t59.5 142.5t142.5 59.5t141 -59.5t58 -142.5t-58 -141.5t-141 -58.5z" />
    <glyph glyph-name="a.sc" horiz-adv-x="1226" 
d="M492 397h200l-108 351zM815 0l-43 137h-350l-35 -137h-369l347 1059h456l387 -1059h-393z" />
    <glyph glyph-name="aacute.sc" horiz-adv-x="1226" 
d="M492 397h200l-108 351zM815 0l-43 137h-350l-35 -137h-369l347 1059h456l387 -1059h-393zM989 1661l-280 -461h-258l163 461h375z" />
    <glyph glyph-name="abreve.sc" horiz-adv-x="1226" 
d="M492 397h200l-108 351zM815 0l-43 137h-350l-35 -137h-369l347 1059h456l387 -1059h-393zM602 1206q-420 0 -395 457h295q0 -104 20.5 -157.5t81 -53.5t81 53.5t17.5 157.5h297q23 -457 -397 -457z" />
    <glyph glyph-name="uni01CE.sc" horiz-adv-x="1226" 
d="M492 397h200l-108 351zM815 0l-43 137h-350l-35 -137h-369l347 1059h456l387 -1059h-393zM754 1200h-303l-244 463h260l135 -197l135 197h260z" />
    <glyph glyph-name="acircumflex.sc" horiz-adv-x="1226" 
d="M492 397h200l-108 351zM815 0l-43 137h-350l-35 -137h-369l347 1059h456l387 -1059h-393zM602 1397l-135 -197h-260l244 463h303l243 -463h-260z" />
    <glyph glyph-name="adieresis.sc" horiz-adv-x="1226" 
d="M492 397h200l-108 351zM815 0l-43 137h-350l-35 -137h-369l347 1059h456l387 -1059h-393zM837 1239q-83 0 -142.5 59.5t-59.5 141.5t59.5 142t142.5 60t141 -59t58 -142t-58 -142.5t-141 -59.5zM370 1239q-83 0 -142.5 59.5t-59.5 141.5t59.5 142t142.5 60t141 -59
t58 -142t-58 -142.5t-141 -59.5z" />
    <glyph glyph-name="agrave.sc" horiz-adv-x="1226" 
d="M492 397h200l-108 351zM815 0l-43 137h-350l-35 -137h-369l347 1059h456l387 -1059h-393zM745 1200h-260l-280 461h375z" />
    <glyph glyph-name="amacron.sc" horiz-adv-x="1226" 
d="M492 397h200l-108 351zM815 0l-43 137h-350l-35 -137h-369l347 1059h456l387 -1059h-393zM969 1585v-317h-733v317h733z" />
    <glyph glyph-name="aogonek.sc" horiz-adv-x="1226" 
d="M492 397h200l-108 351zM1012 -307q61 0 139 47l55 -246q-144 -76 -300 -76t-225 69t-69 179q0 201 213 334h-10l-43 137h-350l-35 -137h-369l347 1059h456l387 -1059h-57q-102 -59 -157.5 -114.5t-55.5 -123.5t74 -69z" />
    <glyph glyph-name="aring.sc" horiz-adv-x="1226" 
d="M492 397h200l-108 351zM815 0l-43 137h-350l-35 -137h-369l347 1059h456l387 -1059h-393zM707 1488q0 120 -113 120q-39 0 -67.5 -31t-28.5 -81t28.5 -78.5t75.5 -28.5t76 28.5t29 70.5zM601 1198q-146 0 -230 83t-84 215t84 216t230 84t231.5 -86t85.5 -214t-85.5 -213
t-231.5 -85z" />
    <glyph glyph-name="atilde.sc" horiz-adv-x="1226" 
d="M492 397h200l-108 351zM815 0l-43 137h-350l-35 -137h-369l347 1059h456l387 -1059h-393zM420 1640q92 0 182 -65.5t117 -65.5q47 0 45 125h260q23 -438 -215 -438q-85 0 -161 37q-20 10 -79 45q-59 41 -84 41q-47 0 -45 -117h-260q-16 304 96 395q52 43 144 43z" />
    <glyph glyph-name="ae.sc" horiz-adv-x="1411" 
d="M694 416l-8 321h-41l-94 -321h143zM1268 668v-279h-203l2 -63h287v-326h-647l-5 156h-227l-45 -156h-371l375 1059h920v-324l-299 2l2 -69h211z" />
    <glyph glyph-name="b.sc" horiz-adv-x="1112" 
d="M598 330q86 0 86 73q0 63 -86 64h-119v-137h119zM655 670q0 61 -86 61h-90v-135h92q37 0 61 19q23 20 23 55zM608 0h-504v1059h541q178 0 261 -57q95 -60 95 -201q0 -85 -44 -151t-126 -93q105 -7 165 -67t60 -189t-110 -215q-111 -86 -338 -86z" />
    <glyph glyph-name="c.sc" horiz-adv-x="1089" 
d="M625 -29q-266 0 -415 146.5t-149 417t162 411.5t411 141t415 -116l-201 -316q-86 61 -178.5 61.5t-143.5 -45.5q-51 -45 -52 -117q-2 -72 22 -118q48 -92 170 -92t215 74l153 -326q-63 -53 -178.5 -87t-230.5 -34z" />
    <glyph glyph-name="cacute.sc" horiz-adv-x="1089" 
d="M625 -29q-266 0 -415 146.5t-149 417t162 411.5t411 141t415 -116l-201 -316q-86 61 -178.5 61.5t-143.5 -45.5q-51 -45 -52 -117q-2 -72 22 -118q48 -92 170 -92t215 74l153 -326q-63 -53 -178.5 -87t-230.5 -34zM1020 1669l-281 -461h-258l164 461h375z" />
    <glyph glyph-name="ccaron.sc" horiz-adv-x="1089" 
d="M625 -29q-266 0 -415 146.5t-149 417t162 411.5t411 141t415 -116l-201 -316q-86 61 -178.5 61.5t-143.5 -45.5q-51 -45 -52 -117q-2 -72 22 -118q48 -92 170 -92t215 74l153 -326q-89 -72 -256 -106q-78 -16 -153 -15zM784 1208h-303l-243 463h260l135 -196l135 196h260
z" />
    <glyph glyph-name="ccedilla.sc" horiz-adv-x="1089" 
d="M956 -352q0 -287 -338 -287q-154 0 -270 72l86 194q37 -25 89 -42t87 -17q88 0 88 63q0 51 -47 52q-37 0 -61 -33l-170 55l96 275q-217 29 -336 172t-119 398t162 396t411 141t415 -116l-201 -316q-86 61 -178.5 61.5t-143.5 -45.5q-51 -45 -52 -117q-2 -72 22 -118
q48 -92 170 -92t215 74l153 -326q-100 -82 -293 -110l-61 -134q35 10 74 11q94 0 148 -55.5t54 -155.5z" />
    <glyph glyph-name="cdotaccent.sc" horiz-adv-x="1089" 
d="M625 -29q-266 0 -415 146.5t-149 417t162 411.5t411 141t415 -116l-201 -316q-86 61 -178.5 61.5t-143.5 -45.5q-51 -45 -52 -117q-2 -72 22 -118q48 -92 170 -92t215 74l153 -326q-63 -53 -178.5 -87t-230.5 -34zM432 1434q0 84 60.5 144t129 60t115.5 -27.5t74 -74.5
t27 -116.5t-59.5 -129t-142.5 -59.5t-143.5 59.5t-60.5 143.5z" />
    <glyph glyph-name="d.sc" horiz-adv-x="1191" 
d="M549 707h-53v-353h53q92 0 140 48.5t48 134.5q2 170 -188 170zM551 1059q604 0 604 -518q0 -272 -156.5 -406.5t-447.5 -134.5h-447v1059h447z" />
    <glyph glyph-name="eth.sc" horiz-adv-x="1191" 
d="M549 707h-53v-35h120v-269h-120v-49h53q92 0 140 48.5t48 134.5q2 170 -188 170zM551 1059q604 0 604 -518q0 -272 -156.5 -406.5t-447.5 -134.5h-447v403h-71v269h71v387h447z" />
    <glyph glyph-name="dcaron.sc" horiz-adv-x="1191" 
d="M549 707h-53v-353h53q92 0 140 48.5t48 134.5q2 170 -188 170zM551 1059q604 0 604 -518q0 -272 -156.5 -406.5t-447.5 -134.5h-447v1059h447zM731 1208h-301l-244 463h260l134 -196l135 196h260z" />
    <glyph glyph-name="dcroat.sc" horiz-adv-x="1191" 
d="M549 707h-53v-35h120v-269h-120v-49h53q92 0 140 48.5t48 134.5q2 170 -188 170zM551 1059q604 0 604 -518q0 -272 -156.5 -406.5t-447.5 -134.5h-447v403h-71v269h71v387h447z" />
    <glyph glyph-name="e.sc" horiz-adv-x="978" 
d="M922 727h-422v-57h299v-273h-299v-61h422v-336h-816v1059h816v-332z" />
    <glyph glyph-name="eacute.sc" horiz-adv-x="978" 
d="M922 727h-422v-57h299v-273h-299v-61h422v-336h-816v1059h816v-332zM913 1669l-280 -461h-260l166 461h374z" />
    <glyph glyph-name="ecaron.sc" horiz-adv-x="978" 
d="M922 727h-422v-57h299v-273h-299v-61h422v-336h-816v1059h816v-332zM676 1208h-301l-244 463h260l133 -196l135 196h261z" />
    <glyph glyph-name="ecircumflex.sc" horiz-adv-x="978" 
d="M922 727h-422v-57h299v-273h-299v-61h422v-336h-816v1059h816v-332zM524 1405l-133 -197h-260l244 463h301l244 -463h-261z" />
    <glyph glyph-name="edieresis.sc" horiz-adv-x="978" 
d="M106 0v1059h816v-332h-422v-57h299v-273h-299v-61h422v-336h-816zM745.5 1249q-67.5 0 -127 58.5t-59.5 141.5t59.5 142.5t141.5 59.5t140 -59.5t58 -128t-26.5 -114.5t-72.5 -73t-113.5 -27zM292 1249q-83 0 -141.5 58.5t-58.5 141.5t59.5 142.5t141.5 59.5t140.5 -59.5
t58.5 -142.5t-58.5 -141.5t-141.5 -58.5z" />
    <glyph glyph-name="edotaccent.sc" horiz-adv-x="978" 
d="M922 727h-422v-57h299v-273h-299v-61h422v-336h-816v1059h816v-332zM528 1231q-84 0 -143 59.5t-59 143.5t59 144t128.5 60t116 -27.5t73 -74.5t26.5 -116.5t-58.5 -129t-142.5 -59.5z" />
    <glyph glyph-name="egrave.sc" horiz-adv-x="978" 
d="M922 727h-422v-57h299v-273h-299v-61h422v-336h-816v1059h816v-332zM668 1208h-258l-281 461h375z" />
    <glyph glyph-name="emacron.sc" horiz-adv-x="978" 
d="M922 727h-422v-57h299v-273h-299v-61h422v-336h-816v1059h816v-332zM891 1595v-317h-733v317h733z" />
    <glyph glyph-name="eogonek.sc" horiz-adv-x="978" 
d="M674 -582q-156 0 -223.5 69t-67.5 179q0 201 213 334h-490v1059h816v-332h-422v-57h299v-273h-299v-61h422v-336q-102 -61 -157.5 -115.5t-55.5 -123.5t71 -68q62 0 140 47l57 -246q-147 -76 -303 -76z" />
    <glyph glyph-name="f.sc" horiz-adv-x="944" 
d="M915 729h-415v-135h295v-291h-295v-303h-394v1059h809v-330z" />
    <glyph glyph-name="g.sc" horiz-adv-x="1175" 
d="M705 586h380v-541q-227 -72 -450 -72q-274 0 -429 143.5t-155 412.5t159 417t429 148t414 -111l-172 -324q-80 55 -215 55q-136 0 -188 -89q-24 -41 -23.5 -111t51.5 -116t147 -46q27 0 52 6v228z" />
    <glyph glyph-name="gbreve.sc" horiz-adv-x="1175" 
d="M705 586h380v-541q-227 -72 -450 -72q-274 0 -429 143.5t-155 412.5t159 417t429 148t414 -111l-172 -324q-80 55 -208 55q-129 0 -185 -73q-34 -44 -33.5 -120.5t51.5 -122.5t147 -46q27 0 52 6v228zM635 1214q-420 0 -397 457h297q-2 -104 19 -157.5t80.5 -53.5
t80 53.5t20.5 157.5h295q25 -457 -395 -457z" />
    <glyph glyph-name="gcommaaccent.sc" horiz-adv-x="1175" 
d="M673 -94q93 0 156.5 -73t63.5 -193q0 -281 -307 -418l-121 178q133 61 174 121q-72 6 -121 56t-49 136t55.5 139.5t148.5 53.5zM705 586h380v-541q-227 -72 -450 -72q-274 0 -429 143.5t-155 412.5t159 417t429 148t414 -111l-172 -324q-80 55 -215.5 55.5t-187.5 -89.5
q-24 -41 -23.5 -111t51.5 -116t147 -46q27 0 52 6v228z" />
    <glyph glyph-name="gdotaccent.sc" horiz-adv-x="1175" 
d="M705 586h380v-541q-227 -72 -450 -72q-274 0 -429 143.5t-155 412.5t159 417t429 148t414 -111l-172 -324q-80 55 -215 55q-136 0 -188 -89q-24 -41 -23.5 -111t51.5 -116t147 -46q27 0 52 6v228zM637 1231q-84 0 -143.5 59.5t-59.5 143.5t59.5 144t143.5 60t142.5 -60
t58.5 -144t-58.5 -143.5t-142.5 -59.5z" />
    <glyph glyph-name="h.sc" horiz-adv-x="1216" 
d="M719 1059h391v-1059h-391v367h-221v-367h-392v1059h392v-350h221v350z" />
    <glyph glyph-name="hbar.sc" horiz-adv-x="1181" 
d="M682 551v127h-184v-127h184zM1122 952v-274h-47v-678h-393v242h-184v-242h-392v678h-47v274h47v107h392v-107h184v107h393v-107h47z" />
    <glyph glyph-name="i.sc" horiz-adv-x="604" 
d="M498 1059v-1059h-392v1059h392z" />
    <glyph glyph-name="iacute.sc" horiz-adv-x="604" 
d="M498 1059v-1059h-392v1059h392zM690 1669l-280 -461h-258l163 461h375z" />
    <glyph glyph-name="uni01D0.sc" horiz-adv-x="604" 
d="M106 0v1059h392v-1059h-392zM455 1208h-303l-244 463h260l135 -196l133 196h262z" />
    <glyph glyph-name="icircumflex.sc" horiz-adv-x="604" 
d="M106 0v1059h392v-1059h-392zM303 1405l-135 -197h-260l244 463h303l243 -463h-262z" />
    <glyph glyph-name="idieresis.sc" horiz-adv-x="604" 
d="M498 1059v-1059h-392v1059h392zM336 1449q0 83 59.5 142.5t142.5 59.5t140 -59.5t57 -142.5t-57 -141.5t-140 -58.5t-142.5 58.5t-59.5 141.5zM-131 1449q0 83 59.5 142.5t142.5 59.5t140 -59.5t57 -142.5t-57 -141.5t-140 -58.5t-142.5 58.5t-59.5 141.5z" />
    <glyph glyph-name="i.sc.loclTRK" horiz-adv-x="604" 
d="M498 1059v-1059h-392v1059h392zM102 1434q0 84 60 144q58 60 128 60t116 -28q48 -27 74 -74q26 -46 26 -116t-58.5 -129.5t-142.5 -59.5t-143.5 59.5t-59.5 143.5z" />
    <glyph glyph-name="igrave.sc" horiz-adv-x="604" 
d="M498 1059v-1059h-392v1059h392zM446 1208h-260l-280 461h375z" />
    <glyph glyph-name="imacron.sc" horiz-adv-x="604" 
d="M498 1059v-1059h-392v1059h392zM-63 1595h733v-317h-733v317z" />
    <glyph glyph-name="iogonek.sc" horiz-adv-x="604" 
d="M252 -582q-156 0 -224.5 69t-68.5 179q0 201 213 334h-66v1059h392v-1059q-100 -61 -155.5 -115.5t-55.5 -123.5t71 -68q62 0 140 47l55 -246q-145 -76 -301 -76z" />
    <glyph glyph-name="j.sc" horiz-adv-x="831" 
d="M358 1059h392v-608q0 -329 -190 -425q-106 -53 -275.5 -53t-286.5 72l92 348q68 -68 154 -67q115 0 114 137v596z" />
    <glyph glyph-name="k.sc" horiz-adv-x="1138" 
d="M496 0h-392v1059h392v-311l198 311h430l-274 -371l278 -688h-458l-103 309l-71 -94v-215z" />
    <glyph glyph-name="kcommaaccent.sc" horiz-adv-x="1138" 
d="M567 -94q94 0 157.5 -73t63.5 -193q0 -281 -307 -418l-123 178q133 61 177 121q-72 6 -122.5 56t-50.5 136t55.5 139.5t149.5 53.5zM496 0h-392v1059h392v-311l198 311h430l-274 -371l278 -688h-458l-103 309l-71 -94v-215z" />
    <glyph glyph-name="l.sc" horiz-adv-x="870" 
d="M500 336h346v-336h-740v1059h394v-723z" />
    <glyph glyph-name="lacute.sc" horiz-adv-x="870" 
d="M500 1059v-723h346v-336h-740v1059h394zM854 1669l-281 -461h-260l166 461h375z" />
    <glyph glyph-name="lcaron.sc" horiz-adv-x="870" 
d="M500 1059v-723h346v-336h-740v1059h394zM616 1208h-301l-243 463h260l133 -196l135 196h260z" />
    <glyph glyph-name="lcommaaccent.sc" horiz-adv-x="870" 
d="M514 -94q94 0 157.5 -73t63.5 -193q0 -281 -307 -418l-123 178q133 61 176 121q-72 6 -121 56t-49 136t54.5 139.5t148.5 53.5zM500 336h346v-336h-740v1059h394v-723z" />
    <glyph glyph-name="lslash.sc" horiz-adv-x="958" 
d="M567 336h346v-336h-739v401l-72 -28l-104 280l176 60v346h393v-201l156 53l102 -278l-258 -88v-209z" />
    <glyph glyph-name="m.sc" horiz-adv-x="1435" 
d="M958 0v270q0 113 9 228q-45 -147 -84 -246l-70 -156h-203l-63 140q-47 127 -96 262q10 -131 10 -222v-276h-355v1059h429l196 -441l170 441h408l20 -1059h-371z" />
    <glyph glyph-name="n.sc" horiz-adv-x="1165" 
d="M711 1059h350v-1059h-354l-254 389v-389h-347v1059h349l256 -404v404z" />
    <glyph glyph-name="nacute.sc" horiz-adv-x="1165" 
d="M711 1059h350v-1059h-354l-254 389v-389h-347v1059h349l256 -404v404zM971 1669l-281 -461h-258l164 461h375z" />
    <glyph glyph-name="ncaron.sc" horiz-adv-x="1165" 
d="M711 1059h350v-1059h-354l-254 389v-389h-347v1059h349l256 -404v404zM735 1208h-303l-244 463h261l135 -196l135 196h260z" />
    <glyph glyph-name="ncommaaccent.sc" horiz-adv-x="1165" 
d="M589 -94q93 0 156.5 -73t63.5 -193q0 -281 -305 -418l-123 178q133 61 176 121q-74 6 -123 56t-49 136t55.5 139.5t148.5 53.5zM711 1059h350v-1059h-354l-254 389v-389h-347v1059h349l256 -404v404z" />
    <glyph glyph-name="eng.sc" horiz-adv-x="1153" 
d="M698 1059h361v-1018q-1 -217 -105 -333t-297 -116q-127 0 -206 41l69 322q41 -25 92 -25q76 0 84 66l-229 381v-377h-361v1059h363l229 -385v385z" />
    <glyph glyph-name="ntilde.sc" horiz-adv-x="1165" 
d="M711 1059h350v-1059h-354l-254 389v-389h-347v1059h349l256 -404v404zM380 1649q114 0 232 -84q61 -47 88 -47q47 0 45 127h261q23 -438 -215 -439q-102 0 -197 56q-2 0 -43 24q-59 41 -84 41q-47 0 -45 -115h-260q-22 437 218 437z" />
    <glyph glyph-name="o.sc" horiz-adv-x="1292" 
d="M646 346q85 0 132 50t47 132t-48 134.5t-131 52.5t-132 -52.5t-49 -134.5t48 -132t133 -50zM645.5 -35q-278.5 0 -436.5 148.5t-158 415t162 416t432 149.5t432 -150q162 -148 162 -414t-157.5 -415.5t-436 -149.5z" />
    <glyph glyph-name="oacute.sc" horiz-adv-x="1292" 
d="M646 346q85 0 132 50t47 132t-48 134.5t-131 52.5t-132 -52.5t-49 -134.5t48 -132t133 -50zM645.5 -35q-278.5 0 -436.5 148.5t-158 415t162 416t432 149.5t432 -150q162 -148 162 -414t-157.5 -415.5t-436 -149.5zM1034 1669l-280 -461h-260l165 461h375z" />
    <glyph glyph-name="uni01D2.sc" horiz-adv-x="1292" 
d="M646 346q85 0 132 50t47 132t-48 134.5t-131 52.5t-132 -52.5t-49 -134.5t48 -132t133 -50zM645 1094q270 0 432 -150q162 -148 162 -414t-157.5 -415.5t-436 -149.5t-436.5 148.5t-158 415t162 416t432 149.5zM797 1208h-301l-244 463h260l133 -196l135 196h260z" />
    <glyph glyph-name="ocircumflex.sc" horiz-adv-x="1292" 
d="M646 346q85 0 132 50t47 132t-48 134.5t-131 52.5t-132 -52.5t-49 -134.5t48 -132t133 -50zM645 1094q270 0 432 -150q162 -148 162 -414t-157.5 -415.5t-436 -149.5t-436.5 148.5t-158 415t162 416t432 149.5zM645 1405l-133 -197h-260l244 463h301l243 -463h-260z" />
    <glyph glyph-name="odieresis.sc" horiz-adv-x="1292" 
d="M646 346q85 0 132 50t47 132t-48 134.5t-131 52.5t-132 -52.5t-49 -134.5t48 -132t133 -50zM645.5 -35q-278.5 0 -436.5 148.5t-158 415t162 416t432 149.5t432 -150q162 -148 162 -414t-157.5 -415.5t-436 -149.5zM680 1449q0 83 59.5 142.5t141.5 59.5t140 -59.5
t58 -127.5t-26.5 -114.5t-72.5 -73.5t-114 -27t-127 58.5t-59 141.5zM213 1449q0 83 58.5 142.5t141.5 59.5t141 -59.5t58 -142.5t-58 -141.5t-141 -58.5t-141.5 58.5t-58.5 141.5z" />
    <glyph glyph-name="ograve.sc" horiz-adv-x="1292" 
d="M646 346q85 0 132 50t47 132t-48 134.5t-131 52.5t-132 -52.5t-49 -134.5t48 -132t133 -50zM645.5 -35q-278.5 0 -436.5 148.5t-158 415t162 416t432 149.5t432 -150q162 -148 162 -414t-157.5 -415.5t-436 -149.5zM788 1208h-258l-280 461h375z" />
    <glyph glyph-name="ohungarumlaut.sc" horiz-adv-x="1292" 
d="M646 346q85 0 132 50t47 132t-48 134.5t-131 52.5t-132 -52.5t-49 -134.5t48 -132t133 -50zM645.5 -35q-278.5 0 -436.5 148.5t-158 415t162 416t432 149.5t432 -150q162 -148 162 -414t-157.5 -415.5t-436 -149.5zM1300 1669l-350 -461h-260l236 461h374zM791 1669
l-216 -461h-229l84 461h361z" />
    <glyph glyph-name="omacron.sc" horiz-adv-x="1292" 
d="M646 346q85 0 132 50t47 132t-48 134.5t-131 52.5t-132 -52.5t-49 -134.5t48 -132t133 -50zM645.5 -35q-278.5 0 -436.5 148.5t-158 415t162 416t432 149.5t432 -150q162 -148 162 -414t-157.5 -415.5t-436 -149.5zM279 1595h733v-317h-733v317z" />
    <glyph glyph-name="oslash.sc" horiz-adv-x="1323" 
d="M825 514q-1 202 -193 203q-70 0 -118 -53q-49 -54 -49 -136t48 -132t133 -50t132 50t47 118zM645 -35q-131 0 -237 35l-72 -76l-299 197l90 96q-76 129 -76 311q0 266 162 416t432 150q143 0 260 -43l82 86l299 -195l-112 -123q66 -125 65 -291q0 -264 -158 -414
t-436 -149z" />
    <glyph glyph-name="otilde.sc" horiz-adv-x="1292" 
d="M646 346q85 0 132 50t47 132t-48 134.5t-131 52.5t-132 -52.5t-49 -134.5t48 -132t133 -50zM645.5 -35q-278.5 0 -436.5 148.5t-158 415t162 416t432 149.5t432 -149.5t162 -415t-157.5 -415t-436 -149.5zM764 1518q45 0 45 127h260q20 -438 -217 -439q-94 0 -162 36
q-20 11 -76 44q-61 41 -84 41q-47 0 -47 -115h-260q-19 437 228 437q104 0 225 -84q59 -47 88 -47z" />
    <glyph glyph-name="oe.sc" horiz-adv-x="1650" 
d="M465 528q0 -82 49 -129t134 -47t140 35v291q-57 31 -141 31t-133 -49.5t-49 -131.5zM1593 725h-424v-90h304v-203h-304v-96h424v-336h-772q-102 -27 -213 -27q-252 0 -404.5 139.5t-152.5 413.5q0 184 77 316q148 252 480 252q106 0 215 -35h770v-334z" />
    <glyph glyph-name="p.sc" horiz-adv-x="1058" 
d="M537 514q49 0 75 31t27 82q0 102 -102 102h-39v-215h39zM539 1059q255 0 375 -94q120 -93 120 -315q0 -424 -434 -427h-102v-223h-392v1059h433z" />
    <glyph glyph-name="thorn.sc" horiz-adv-x="1046" 
d="M637 553q0 66 -80 65h-59v-137h61q78 0 78 72zM569 936q434 0 435 -381q0 -383 -431 -383h-75v-172h-392v1059h392v-123h71z" />
    <glyph glyph-name="q.sc" horiz-adv-x="1318" 
d="M1133 -371h-660v291h660v-291zM646 346q85 0 132 50t47 132t-48 134.5t-131 52.5t-132 -52.5t-49 -134.5t48 -132t133 -50zM645.5 -35q-278.5 0 -436.5 148.5t-158 415t162 416t432 149.5t432 -150q162 -148 162 -414t-157.5 -415.5t-436 -149.5z" />
    <glyph glyph-name="r.sc" horiz-adv-x="1122" 
d="M573 729h-84v-129h84q84 0 86 66q0 63 -86 63zM489 311v-311h-383v1059h482q231 0 346 -84t115 -277.5t-136 -300.5l195 -397h-446l-113 311h-60z" />
    <glyph glyph-name="racute.sc" horiz-adv-x="1122" 
d="M573 729h-84v-129h84q84 0 86 66q0 63 -86 63zM489 311v-311h-383v1059h482q231 0 346 -84t115 -277.5t-136 -300.5l195 -397h-446l-113 311h-60zM950 1669l-280 -461h-258l163 461h375z" />
    <glyph glyph-name="rcaron.sc" horiz-adv-x="1122" 
d="M573 729h-84v-129h84q84 0 86 66q0 63 -86 63zM489 311v-311h-383v1059h482q231 0 346 -84t115 -277.5t-136 -300.5l195 -397h-446l-113 311h-60zM715 1208h-303l-244 463h260l135 -196l135 196h260z" />
    <glyph glyph-name="rcommaaccent.sc" horiz-adv-x="1122" 
d="M568 -94q93 0 156.5 -73t63.5 -193q0 -281 -307 -418l-121 178q133 61 175 121q-72 6 -121 56t-49 136t55 139.5t148 53.5zM573 729h-84v-129h84q84 0 86 66q0 63 -86 63zM489 311v-311h-383v1059h482q231 0 346 -84t115 -277.5t-136 -300.5l195 -397h-446l-113 311h-60z
" />
    <glyph glyph-name="s.sc" horiz-adv-x="894" 
d="M442 -35q-248 0 -415 94l116 318q113 -88 260 -88q53 0 54 33q0 16 -14.5 24t-53.5 16q-336 68 -336 377q0 164 106.5 259.5t332 95.5t380.5 -82l-151 -316q-98 66 -223 66q-47 0 -47 -31q1 -23 39 -37q16 -6 49 -14q317 -82 317 -363q0 -178 -113 -265t-301 -87z" />
    <glyph glyph-name="sacute.sc" horiz-adv-x="894" 
d="M442 -35q-248 0 -415 94l116 318q113 -88 260 -88q53 0 54 33q0 16 -14.5 24t-53.5 16q-336 68 -336 377q0 164 106.5 259.5t332 95.5t380.5 -82l-151 -316q-98 66 -223 66q-47 0 -47 -31q1 -23 39 -37q16 -6 49 -14q317 -82 317 -363q0 -178 -113 -265t-301 -87z
M836 1669l-281 -461h-258l164 461h375z" />
    <glyph glyph-name="scaron.sc" horiz-adv-x="894" 
d="M856 317q0 -119 -54 -199q-102 -152 -355 -152.5t-420 93.5l116 318q113 -88 260 -88q53 0 54 33q0 16 -14.5 24t-53.5 16q-336 68 -336 377q0 164 106.5 259.5t332 95.5t380.5 -82l-151 -316q-98 66 -223 66q-47 0 -47 -31q1 -23 39 -37q16 -6 49 -14q317 -82 317 -363z
M600 1208h-303l-244 463h260l136 -196l135 196h260z" />
    <glyph glyph-name="scedilla.sc" horiz-adv-x="894" 
d="M856 317q0 -156 -86 -241.5t-238 -104.5l-38 -86q35 10 73 11q94 0 148.5 -55.5t54.5 -179.5t-89 -194.5t-247 -70.5t-272 74l86 192q18 -18 79.5 -37.5t96.5 -19.5q88 0 88 63q0 51 -49 51q-37 0 -62 -34l-168 55l82 231q-160 16 -288 88l116 318q113 -88 260 -88
q53 0 54 33q0 16 -14.5 24t-53.5 16q-336 68 -336 377q0 164 106.5 259.5t332 95.5t380.5 -82l-151 -316q-98 66 -223 66q-47 0 -47 -31q1 -23 39 -37q16 -6 49 -14q317 -82 317 -363z" />
    <glyph glyph-name="scommaaccent.sc" horiz-adv-x="894" 
d="M451 -94q93 0 157 -73t64 -193q0 -281 -305 -418l-123 178q133 61 176 121q-74 6 -123 56t-49 136t55 139.5t148 53.5zM856 317q0 -119 -54 -199q-102 -152 -355 -152.5t-420 93.5l116 318q113 -88 260 -88q53 0 54 33q0 16 -14.5 24t-53.5 16q-336 68 -336 377
q0 164 106.5 259.5t332 95.5t380.5 -82l-151 -316q-98 66 -223 66q-47 0 -47 -31q1 -23 39 -37q16 -6 49 -14q317 -82 317 -363z" />
    <glyph glyph-name="t.sc" horiz-adv-x="1001" 
d="M956 1059v-330h-258v-729h-393v729h-258v330h909z" />
    <glyph glyph-name="tcaron.sc" horiz-adv-x="1001" 
d="M956 1059v-330h-258v-729h-393v729h-258v330h909zM651 1208h-301l-244 463h261l135 -196l133 196h262z" />
    <glyph glyph-name="uni0163.sc" horiz-adv-x="921" 
d="M698 0h-120l-72 -152q37 10 74 11q96 0 150 -55.5t54 -155.5t-42 -164q-81 -123 -296 -123q-156 0 -270 72l86 194q18 -18 78.5 -38.5t97.5 -20.5q86 0 86 63q0 51 -47 52q-37 0 -61 -33l-168 55l106 295h-49v729h-258v330h909v-330h-258v-729z" />
    <glyph glyph-name="uni021B.sc" horiz-adv-x="1001" 
d="M506 -94q94 0 157.5 -73t63.5 -193q0 -281 -307 -418l-123 178q133 61 176 121q-72 6 -121 56t-49 136t54.5 139.5t148.5 53.5zM47 1059h909v-330h-258v-729h-393v729h-258v330z" />
    <glyph glyph-name="u.sc" horiz-adv-x="1087" 
d="M546 -35q-232 0 -360.5 124t-128.5 351v619h392v-590q0 -129 94 -129t94 129v590h393v-619q0 -231 -126 -353t-358 -122z" />
    <glyph glyph-name="uacute.sc" horiz-adv-x="1087" 
d="M546 -35q-232 0 -360.5 124t-128.5 351v619h392v-590q0 -129 94 -129t94 129v590h393v-619q0 -231 -126 -353t-358 -122zM932 1669l-281 -461h-258l164 461h375z" />
    <glyph glyph-name="uni01D4.sc" horiz-adv-x="1087" 
d="M637 1059h393v-619q0 -231 -126 -353t-358 -122t-360.5 124t-128.5 351v619h392v-590q0 -129 94 -129t94 129v590zM696 1208h-303l-243 463h260l135 -196l133 196h262z" />
    <glyph glyph-name="ucircumflex.sc" horiz-adv-x="1087" 
d="M637 1059h393v-619q0 -231 -126 -353t-358 -122t-360.5 124t-128.5 351v619h392v-590q0 -129 94 -129t94 129v590zM545 1405l-135 -197h-260l243 463h303l244 -463h-262z" />
    <glyph glyph-name="udieresis.sc" horiz-adv-x="1087" 
d="M546 -35q-232 0 -360.5 124t-128.5 351v619h392v-590q0 -129 94 -129t94 129v590h393v-619q0 -231 -126 -353t-358 -122zM780 1651q82 0 139.5 -59.5t57.5 -142.5t-57.5 -141.5t-140.5 -58.5t-142 58.5t-59 142.5t60 142.5t142 58.5zM111 1449q0 83 59 142.5t142 59.5
t140.5 -59.5t57.5 -142.5t-57.5 -141.5t-140.5 -58.5t-142 58.5t-59 141.5z" />
    <glyph glyph-name="ugrave.sc" horiz-adv-x="1087" 
d="M546 -35q-232 0 -360.5 124t-128.5 351v619h392v-590q0 -129 94 -129t94 129v590h393v-619q0 -231 -126 -353t-358 -122zM688 1208h-260l-281 461h375z" />
    <glyph glyph-name="uhungarumlaut.sc" horiz-adv-x="1087" 
d="M546 -35q-232 0 -360.5 124t-128.5 351v619h392v-590q0 -129 94 -129t94 129v590h393v-619q0 -231 -126 -353t-358 -122zM1198 1669l-350 -461h-258l233 461h375zM688 1669l-213 -461h-231l86 461h358z" />
    <glyph glyph-name="umacron.sc" horiz-adv-x="1087" 
d="M546 -35q-232 0 -360.5 124t-128.5 351v619h392v-590q0 -129 94 -129t94 129v590h393v-619q0 -231 -126 -353t-358 -122zM178 1595h733v-317h-733v317z" />
    <glyph glyph-name="uogonek.sc" horiz-adv-x="1087" 
d="M637 1059h393v-619q0 -317 -231 -424v-2q-66 -39 -108 -69.5t-73.5 -75.5t-31.5 -90q0 -72 73 -72q61 0 140 47l55 -246q-145 -74 -301 -74t-224.5 68t-68.5 179q0 172 158 296q-174 31 -267.5 150t-93.5 313v619h392v-590q0 -129 94 -129t94 129v590z" />
    <glyph glyph-name="uring.sc" horiz-adv-x="1087" 
d="M546 -35q-232 0 -360.5 124t-128.5 351v619h392v-590q0 -129 94 -129t94 129v590h393v-619q0 -231 -126 -353t-358 -122zM649 1496q0 42 -13 68q-27 52 -82.5 52t-84.5 -31t-29 -81t29 -78.5t76 -28.5t75.5 28.5t28.5 70.5zM227 1505q0 133 85 216t233 83q97 0 169 -41
q146 -83 146 -258q0 -129 -85 -214t-231 -85t-231.5 83t-85.5 216z" />
    <glyph glyph-name="v.sc" horiz-adv-x="1175" 
d="M713 1059h442l-338 -1059h-493l-306 1059h457l78 -463q18 -145 31 -279q14 154 34 279z" />
    <glyph glyph-name="w.sc" horiz-adv-x="1638" 
d="M1200 1059h402l-230 -1059h-448l-56 213q-25 119 -53 264q-33 -156 -59 -264l-60 -213h-448l-209 1059h418l37 -383q2 -53 4 -275q29 164 55 273l96 370h363l82 -352q39 -199 51 -282q4 86 12 276z" />
    <glyph glyph-name="wacute.sc" horiz-adv-x="1638" 
d="M1200 1059h402l-230 -1059h-448l-56 213q-25 119 -53 264q-33 -156 -59 -264l-60 -213h-448l-209 1059h418l37 -383q2 -53 4 -275q29 164 55 273l96 370h363l82 -352q39 -199 51 -282q4 86 12 276zM1206 1669l-278 -461h-260l166 461h372z" />
    <glyph glyph-name="wcircumflex.sc" horiz-adv-x="1638" 
d="M1200 1059h402l-230 -1059h-448l-56 213q-25 119 -53 264q-33 -156 -59 -264l-60 -213h-448l-209 1059h418l37 -383q2 -53 4 -275q29 164 55 273l96 370h363l82 -352q39 -199 51 -282q4 86 12 276zM819 1405l-133 -197h-262l244 463h303l243 -463h-260z" />
    <glyph glyph-name="wdieresis.sc" horiz-adv-x="1638" 
d="M1200 1059h402l-230 -1059h-448l-56 213q-25 119 -53 264q-33 -156 -59 -264l-60 -213h-448l-209 1059h418l37 -383q2 -53 4 -275q29 164 55 273l96 370h363l82 -352q39 -199 51 -282q4 86 12 276zM1054 1249q-83 0 -141.5 58.5t-58.5 141.5t58.5 142.5t141.5 59.5
t141 -59.5t58 -142.5t-58 -141.5t-141 -58.5zM587 1249q-83 0 -141.5 58.5t-58.5 141.5t58.5 142.5t127 59.5t114.5 -28q99 -60 99 -175q0 -82 -58 -140.5t-141 -58.5z" />
    <glyph glyph-name="wgrave.sc" horiz-adv-x="1638" 
d="M1200 1059h402l-230 -1059h-448l-56 213q-25 119 -53 264q-33 -156 -59 -264l-60 -213h-448l-209 1059h418l37 -383q2 -53 4 -275q29 164 55 273l96 370h363l82 -352q39 -199 51 -282q4 86 12 276zM963 1208h-261l-278 461h373z" />
    <glyph glyph-name="x.sc" horiz-adv-x="1114" 
d="M1090 0h-424l-109 309l-104 -309h-428l260 549l-244 510h424l100 -297l88 297h420l-233 -508z" />
    <glyph glyph-name="y.sc" horiz-adv-x="1107" 
d="M756 0h-391v289l-330 770h424l98 -391l98 391h420l-319 -748v-311z" />
    <glyph glyph-name="yacute.sc" horiz-adv-x="1107" 
d="M756 0h-391v289l-330 770h424l98 -391l98 391h420l-319 -748v-311zM942 1669l-280 -461h-261l166 461h375z" />
    <glyph glyph-name="ycircumflex.sc" horiz-adv-x="1107" 
d="M756 0h-391v289l-330 770h424l98 -391l98 391h420l-319 -748v-311zM553 1405l-133 -197h-260l243 463h302l243 -463h-260z" />
    <glyph glyph-name="ydieresis.sc" horiz-adv-x="1107" 
d="M756 0h-391v289l-330 770h424l98 -391l98 391h420l-319 -748v-311zM773.5 1249q-67.5 0 -126.5 58.5t-59 141.5t59.5 142.5t141 59.5t140 -59.5t58.5 -128t-26.5 -114.5t-73 -73t-114 -27zM320 1249q-83 0 -141 58.5t-58 141.5t59.5 142.5t141 59.5t140 -59.5
t58.5 -142.5t-58.5 -141.5t-141.5 -58.5z" />
    <glyph glyph-name="ygrave.sc" horiz-adv-x="1107" 
d="M756 0h-391v289l-330 770h424l98 -391l98 391h420l-319 -748v-311zM696 1208h-258l-280 461h374z" />
    <glyph glyph-name="z.sc" horiz-adv-x="948" 
d="M911 336v-336h-852v328l320 401h-338v330h844v-328l-320 -395h346z" />
    <glyph glyph-name="zacute.sc" horiz-adv-x="948" 
d="M911 336v-336h-852v328l320 401h-338v330h844v-328l-320 -395h346zM858 1669l-280 -461h-261l166 461h375z" />
    <glyph glyph-name="zcaron.sc" horiz-adv-x="948" 
d="M911 336v-336h-852v328l320 401h-338v330h844v-328l-320 -395h346zM621 1208h-302l-243 463h260l133 -196l135 196h260z" />
    <glyph glyph-name="zdotaccent.sc" horiz-adv-x="948" 
d="M911 336v-336h-852v328l320 401h-338v330h844v-328l-320 -395h346zM473 1231q-84 0 -143.5 59.5t-59.5 143.5t59.5 144t129 60t116 -27.5t73 -74.5t26.5 -116.5t-58.5 -129t-142.5 -59.5z" />
    <glyph glyph-name="zero.lf" horiz-adv-x="1388" 
d="M696 350q226 0 226 364t-224 365q-231 0 -231 -362q0 -183 59 -275t170 -92zM697 -35q-310 0 -481 199t-171 551t177 550t476 197q197 0 342 -86q146 -86 226 -255t80 -404q0 -358 -170 -555t-479 -197z" />
    <glyph glyph-name="one.lf" horiz-adv-x="716" 
d="M569 1427v-1427h-401v1081h-117v346h518z" />
    <glyph glyph-name="two.lf" horiz-adv-x="1153" 
d="M1112 358v-358h-1026v326l225 200q153 134 219 232t66 180q0 147 -147 147q-133 0 -279 -118l-193 297q223 199 543 198q227 0 366 -114q138 -116 138 -320t-87 -348t-251 -285l-43 -37h469z" />
    <glyph glyph-name="three.lf" horiz-adv-x="1148" 
d="M508 348q164 0 164 125q0 41 -26 68q-47 49 -146 49h-121l2 262h106q166 0 166 121q1 113 -151 113t-287 -101l-172 291q215 186 567 186q207 0 340 -98t133 -291q0 -246 -211 -342q224 -101 228 -348q0 -209 -148 -313t-399 -105q-319 0 -530 185l182 317
q75 -61 139 -90t164 -29z" />
    <glyph glyph-name="four.lf" horiz-adv-x="1230" 
d="M659 575v414l-206 -414h206zM1227 575v-344h-178v-231h-390v231h-614v334l496 865h508v-855h178z" />
    <glyph glyph-name="five.lf" horiz-adv-x="1107" 
d="M674 895q184 0 294 -102t109 -322q0 -378 -339 -477q-99 -29 -220 -29q-313 0 -522 172l164 336q133 -127 307 -127q78 0 129 37t51 99t-31 91t-84 29q-86 0 -141 -72l-287 101v796h879v-362h-502v-209q89 39 193 39z" />
    <glyph glyph-name="six.lf" horiz-adv-x="1236" 
d="M492 472q0 -60 44 -98t112 -38q69 0 112 37t43 99t-39 95t-111 33q-73 0 -117 -34t-44 -94zM772 891q195 1 317 -105t121 -317q0 -145 -64 -258t-194 -179q-129 -66 -305 -67q-289 -1 -443 189t-155 546q0 356 177 560t466 202q289 0 461 -155l-209 -303q-92 84 -212 84
q-243 -1 -259 -304q104 107 299 107z" />
    <glyph glyph-name="seven.lf" horiz-adv-x="991" 
d="M20 1427h1002l-377 -1427h-440l311 1065h-496v362z" />
    <glyph glyph-name="eight.lf" horiz-adv-x="1224" 
d="M453 461q1 -125 173 -125q62 0 104 33t42 91t-42 89t-118 31q-159 0 -159 -119zM745 970q0 60 -35 93q-36 33 -98 33t-97 -33q-36 -33 -36 -93t36 -96t97 -36t98 35q35 37 35 97zM1178 371q0 -406 -566 -406t-565 406q0 250 215 348q-172 113 -172 344q0 182 131 291
q131 108 391 108t392 -108q131 -109 131 -291q0 -231 -172 -344q215 -98 215 -348z" />
    <glyph glyph-name="nine.lf" horiz-adv-x="1241" 
d="M616 829q64 0 108 35t44 94q0 58 -39 96t-107 38t-107 -35q-38 -35 -38 -97t37 -97q38 -34 102 -34zM563 -35q-318 0 -514 174l187 324q115 -121 284 -121q125 0 194 75t70 228q-100 -106 -286 -106q-256 0 -365 184q-57 97 -57 227q0 239 141 376q142 136 411 136
t426 -192q156 -193 156 -525q2 -385 -164 -583t-483 -197z" />
    <glyph glyph-name="zero.osf" horiz-adv-x="1269" 
d="M620 319q68 0 110 25q91 54 89 191q0 102 -50 157q-50 56 -134 56t-134 -56t-50 -157q0 -102 51 -159q50 -57 118 -57zM635 -35q-176 0 -303 69q-260 141 -258 501q0 262 150 410q151 149 411 149t412 -148q151 -148 151 -413q0 -264 -150 -416t-413 -152z" />
    <glyph glyph-name="one.osf" horiz-adv-x="638" 
d="M528 1059v-1059h-395v733h-84v326h479z" />
    <glyph glyph-name="two.osf" horiz-adv-x="1067" 
d="M1018 309v-309h-926l2 313q242 96 345 172t104 160q0 109 -123 109q-70 0 -142 -33t-126 -82l-160 285q116 99 307 144q106 26 223 26q190 0 310 -87t120 -273t-157 -313q-88 -71 -205 -112h428z" />
    <glyph glyph-name="three.osf" horiz-adv-x="980" 
d="M393 -61q178 0 178 136t-198 136h-117v258h98q90 0 142 39q51 39 51 104q1 138 -145 138t-250 -82l-156 256q101 101 280 145q98 25 205 25q205 0 327 -94t122 -287q0 -121 -64 -217t-186 -146q122 -35 194 -120t72 -222q0 -197 -138 -302t-355 -105q-272 0 -482 149
l154 291q123 -102 268 -102z" />
    <glyph glyph-name="four.osf" horiz-adv-x="1171" 
d="M612 307v418l-239 -418h239zM1147 307v-309h-150v-360h-385v360h-587v297l462 766h510v-754h150z" />
    <glyph glyph-name="five.osf" horiz-adv-x="1044" 
d="M639 98q0 66 -35 101t-88 34q-92 0 -147 -77l-260 90v813h804v-363h-460v-245q92 45 192 45q170 0 270 -106t101 -312q0 -356 -325 -454q-93 -28 -206 -27q-252 0 -440 120l113 336q125 -115 291 -114q190 0 190 159z" />
    <glyph glyph-name="six.osf" horiz-adv-x="1159" 
d="M583 319q67 0 109 41t41 111q0 70 -40 108q-40 37 -102 37t-108 -39q-45 -40 -45 -107t39 -109t106 -42zM598 -35q-287 -1 -419 185t-132 547t171 565t468 200q240 -2 418 -100l-158 -301q-114 63 -222 65t-165 -39q-121 -87 -121 -333v-4q96 135 291 135t304 -145
q81 -108 79 -279q0 -227 -142 -361t-372 -135z" />
    <glyph glyph-name="seven.osf" horiz-adv-x="974" 
d="M18 1061h934l-307 -1417h-428l264 1058h-463v359z" />
    <glyph glyph-name="eight.osf" horiz-adv-x="1126" 
d="M563 608q-69 0 -111 -38t-42 -107q0 -68 42 -107t112 -39t112 39q43 39 43 107q0 69 -43 107t-113 38zM700 978q0 68 -36 104t-100 36t-101 -37t-37 -92t16 -89q33 -71 109 -72q75 -1 113 41q36 42 36 109zM1083 373q0 -207 -137 -307t-382 -100t-383 100t-138 307
q0 258 209 346q-166 106 -166 344q0 184 124 292q124 107 354 107t354 -107q123 -108 122 -292q0 -238 -166 -344q209 -86 209 -346z" />
    <glyph glyph-name="nine.osf" horiz-adv-x="1140" 
d="M555 743q-51 -1 -90 -39t-39 -96t15 -90q30 -65 120 -65q59 -2 101 39q40 41 40 95t-17 88t-48 51t-82 17zM444 182q-174 0 -286 113t-111 325q0 212 133 342t384 130t390 -199q140 -199 140 -554t-171 -548t-456 -188q-231 2 -410 100l105 322q119 -86 263 -86t217 87
t73 244v23q-97 -111 -271 -111z" />
    <glyph glyph-name="three.ss01" horiz-adv-x="1130" 
d="M1067 420q0 -233 -138 -344t-380 -111q-322 0 -529 185l179 327q135 -131 282 -131q76 0 121 39t45 115q0 172 -270 157v154l180 254h-448v362h942v-309l-240 -313q256 -81 256 -385z" />
    <glyph glyph-name="uni0308.case" 
d="M-239 1137q-83 0 -142 58t-59 141t59 142.5t142 59.5t141.5 -59.5t58.5 -142.5t-58.5 -141t-141.5 -58zM-699 1137q-83 0 -141.5 58t-58.5 141t59.5 142.5t127 59.5t113.5 -26.5t72.5 -73.5t26.5 -116t-58 -127t-141 -58z" />
    <glyph glyph-name="uni0307.case" 
d="M-442 1351.5q0 69.5 59 129t142 59.5t142.5 -59.5t59.5 -143.5t-59.5 -142t-128 -58t-114.5 26.5t-73.5 72.5t-27.5 115.5z" />
    <glyph glyph-name="gravecomb.case" 
d="M-303 1128l-285 461h375l172 -461h-262z" />
    <glyph glyph-name="acutecomb.case" 
d="M109 1556l-390 -428h-297l277 428h410z" />
    <glyph glyph-name="uni030B.case" 
d="M-35 1589l-348 -461h-260l235 461h373zM-543 1589l-215 -461h-229l84 461h360z" />
    <glyph glyph-name="uni0302.case" 
d="M-20 1128h-297l-136 179l-133 -179h-297l281 480h301z" />
    <glyph glyph-name="uni030C.case" 
d="M-283 1608h295l-278 -480h-303l-279 480h295l135 -178z" />
    <glyph glyph-name="uni0306.case" 
d="M-438.5 1376q59.5 0 80 53.5t20.5 157.5h295q25 -457 -395.5 -457t-397.5 457h297q-2 -102 19.5 -156.5t81 -54.5z" />
    <glyph glyph-name="uni030A.case" 
d="M-236 1380q0 103 -85 103q-40 0 -63.5 -25.5t-23.5 -67.5t24 -67t62.5 -25t62 25t23.5 57zM-618 1389q0 131 77.5 206.5t218.5 75.5q214 0 279 -169q20 -52 20 -123.5t-34.5 -134t-102 -98.5t-162 -36t-162.5 34q-134 68 -134 245z" />
    <glyph glyph-name="tildecomb.case" 
d="M-276 1163q-84 0 -177 60.5t-121 60.5t-40.5 -36t-12.5 -79h-260q-23 451 223 451q84 0 172.5 -62.5t131.5 -62.5q59 0 57 119h260q23 -451 -233 -451z" />
    <glyph glyph-name="uni0304.case" 
d="M-774 1178v317h733v-317h-733z" />
    <glyph glyph-name="uni0327.case" 
d="M-246 -74q96 0 150.5 -55t54.5 -155t-41 -164q-80 -124 -297 -125q-156 0 -270 73l86 195q20 -20 79.5 -40t96.5 -20q88 0 88 64q0 51 -49 51q-37 0 -62 -33l-168 54l103 295h225l-67 -150q34 10 71 10z" />
    <glyph glyph-name="uni0328.case" 
d="M-525.5 -569q-156.5 0 -225 68.5t-68.5 174.5q0 266 422 437l141 -64q-238 -145 -238 -268q0 -74 72 -74q63 0 125 35l55 -244q-127 -65 -283.5 -65z" />
    <glyph glyph-name="caron.alt" horiz-adv-x="462" 
d="M422 1532l-100 -623h-261l-14 623h375z" />
    <glyph glyph-name="uni0328.sc" horiz-adv-x="677" 
d="M311 -569q-90 -1 -151 33q-119 65 -119 210t114 260t351 187l74 -109q-100 -61 -156 -115t-57 -123q0 -69 73 -69q61 0 140 45l55 -246q-146 -73 -324 -73z" />
    <glyph glyph-name="ogonek.sc" horiz-adv-x="677" 
d="M336 -569q-156 -1 -224 67t-69 172q0 143 111 262t354 220l72 -105q-211 -150 -211 -272q0 -70 71 -70q63 0 142 47l55 -246q-145 -75 -301 -75z" />
    </font>
</defs>
</svg>
