<?xml version="1.0" encoding="UTF-8"?>
<svg xmlns="http://www.w3.org/2000/svg" xmlns:xlink="http://www.w3.org/1999/xlink" version="1.2" >
<font id="Bodoni URW Extra Wide Bold">
<font-face  font-family="Bodoni URW Extra Wide" units-per-em="1000" ascent="680" descent="-320" font-style="normal" font-weight="700" font-stretch="normal" cap-height="667" x-height="420" underline-position="-94" underline-thickness="98" />
<missing-glyph  horiz-adv-x="250" d="" />
<glyph glyph-name="NULL" d="" />
<glyph glyph-name="CR" unicode="&#xd;" horiz-adv-x="250" d="" />
<glyph glyph-name="space" unicode="&#x20;" horiz-adv-x="250" d="" />
<glyph glyph-name="exclam" unicode="&#x21;" horiz-adv-x="339" d="M195 210 C202 308 215 376 245 466 C268 534 273 556 273 587 C273 645 234 680 170 680 C105 680 66 645 66 587 C66 556 71 535 94 466 C124 375 138 306 144 210 L195 210 Z M169 180 C113 180 67 138 67 86 C67 35 113 -7 170 -7 C226 -7 272 35 272 85 C272 138 227 180 169 180 L169 180 Z " />
<glyph glyph-name="quotedbl" unicode="&#x22;" horiz-adv-x="351" d="M77 411 L105 411 L145 546 C151 563 153 579 153 596 C153 645 127 680 91 680 C54 680 29 645 29 596 C29 579 31 563 37 546 L77 411 Z M245 411 L273 411 L313 546 C319 563 321 579 321 596 C321 645 295 680 259 680 C222 680 197 645 197 596 C197 579 199 563 205 546 L245 411 Z " />
<glyph glyph-name="numbersign" unicode="&#x23;" horiz-adv-x="653" d="M307 454 L340 667 L178 667 L146 454 L62 454 L62 424 L141 424 L114 251 L30 251 L30 221 L110 221 L75 0 L237 0 L271 221 L346 221 L311 0 L473 0 L507 221 L590 221 L590 251 L512 251 L539 424 L623 424 L623 454 L544 454 L576 667 L415 667 L382 454 L307 454 Z M303 424 L377 424 L350 251 L276 251 L303 424 Z " />
<glyph glyph-name="dollar" unicode="&#x24;" horiz-adv-x="653" d="M335 644 C432 628 500 572 527 484 L564 484 L564 664 L527 664 L495 611 C455 649 403 671 335 678 L335 753 L302 753 L302 680 C238 680 197 670 154 645 C86 604 43 531 43 454 C43 364 103 305 233 265 L302 243 L302 22 C194 36 116 104 84 214 L48 214 L48 4 L84 4 L118 63 C170 19 231 -6 302 -12 L302 -85 L335 -85 L335 -13 C412 -10 465 7 513 44 C574 91 609 165 609 244 C609 350 556 407 420 446 L335 470 L335 644 Z M297 480 L286 484 C217 506 188 532 188 573 C188 621 226 647 297 647 L297 480 Z M335 232 L366 223 C458 195 487 171 487 122 C487 62 432 26 335 21 L335 232 Z " />
<glyph glyph-name="percent" unicode="&#x25;" horiz-adv-x="939" d="M214 668 C106 668 25 593 25 495 C25 397 106 322 214 322 C320 322 403 396 403 492 C403 594 323 668 214 668 L214 668 Z M166 579 C166 614 166 617 173 626 C179 636 195 642 214 642 C233 642 249 636 256 626 C262 617 262 614 262 579 L262 411 C262 376 262 373 256 364 C249 354 233 348 214 348 C195 348 179 354 173 364 C166 373 166 376 166 411 L166 579 Z M678 667 L621 667 L261 0 L317 0 L678 667 Z M724 339 C616 339 535 264 535 166 C535 66 616 -8 725 -8 C831 -8 914 66 914 163 C914 265 834 339 724 339 L724 339 Z M676 250 C676 285 676 288 683 297 C689 307 705 313 724 313 C744 313 760 307 766 297 C773 288 773 285 773 250 L773 81 C773 46 773 43 766 34 C760 24 744 18 725 18 C705 18 689 24 683 34 C676 43 676 46 676 81 L676 250 Z " />
<glyph glyph-name="ampersand" unicode="&#x26;" horiz-adv-x="891" d="M866 0 L866 30 L758 30 L667 163 C722 216 748 258 769 325 C783 369 790 375 824 375 L869 375 L869 405 L649 405 L649 375 L693 375 C726 375 737 368 737 347 C737 327 724 291 705 260 C692 238 680 224 649 190 L497 416 C619 455 674 502 674 566 C674 602 653 636 619 653 C583 672 537 680 465 680 C390 680 339 672 296 655 C240 632 205 582 205 524 C205 480 218 450 264 390 C206 375 175 364 141 345 C66 303 28 249 28 184 C28 73 126 -13 253 -13 C323 -13 395 9 483 59 L520 0 L866 0 Z M467 83 C431 67 414 63 392 63 C353 63 320 87 275 147 C224 215 197 268 197 300 C197 331 223 350 284 362 L467 83 Z M438 514 C418 548 412 565 412 586 C412 624 436 647 476 647 C521 647 540 622 540 564 C540 503 520 466 478 445 L438 514 Z " />
<glyph glyph-name="quotesingle" unicode="&#x27;" horiz-adv-x="183" d="M77 411 L105 411 L145 546 C151 563 153 579 153 596 C153 645 127 680 91 680 C54 680 29 645 29 596 C29 579 31 563 37 546 L77 411 Z " />
<glyph glyph-name="parenleft" unicode="&#x28;" horiz-adv-x="450" d="M412 674 C321 650 267 622 197 563 C75 460 29 361 29 200 C29 47 68 -45 175 -144 C250 -213 313 -248 412 -274 L427 -243 C361 -204 327 -172 295 -119 C251 -46 236 35 236 200 C236 354 249 432 286 503 C317 563 355 601 427 643 L412 674 Z " />
<glyph glyph-name="parenright" unicode="&#x29;" horiz-adv-x="450" d="M38 -274 C129 -250 183 -222 253 -163 C375 -60 421 39 421 200 C421 353 382 445 275 544 C200 613 137 648 38 674 L23 643 C89 604 123 572 155 519 C199 446 214 364 214 200 C214 47 201 -32 164 -102 C133 -163 95 -201 23 -243 L38 -274 Z " />
<glyph glyph-name="asterisk" unicode="&#x2a;" horiz-adv-x="534" d="M243 501 L170 560 C142 583 135 587 120 587 C98 587 79 562 79 533 C79 509 97 494 126 494 L149 495 L243 501 Z M257 483 L170 432 C132 409 124 401 124 382 C124 360 155 335 182 335 C208 335 218 347 231 392 L257 483 Z M278 483 L304 392 C317 347 328 335 353 335 C380 335 411 360 411 383 C411 401 403 410 365 432 L278 483 Z M292 501 L386 495 L409 494 C438 494 456 508 456 532 C456 562 437 587 415 587 C400 587 393 583 365 560 L292 501 Z M267 512 L301 599 C312 627 313 630 313 642 C313 665 295 680 267 680 C239 680 221 665 221 643 C221 630 221 628 233 599 L267 512 Z " />
<glyph glyph-name="plus" unicode="&#x2b;" horiz-adv-x="653" d="M345 353 L345 567 L305 567 L305 353 L59 353 L59 313 L305 313 L305 100 L345 100 L345 313 L594 313 L594 353 L345 353 Z " />
<glyph glyph-name="comma" unicode="&#x2c;" horiz-adv-x="308" d="M115 -193 C218 -134 272 -55 272 36 C272 127 227 180 150 180 C84 180 36 141 36 86 C36 34 81 -8 137 -8 C158 -8 179 -1 195 10 C210 20 211 21 215 21 C221 21 225 15 225 6 C225 -53 176 -118 95 -167 L115 -193 Z " />
<glyph glyph-name="hyphen" unicode="&#x2d;" horiz-adv-x="287" d="M287 149 L287 277 L0 277 L0 149 L287 149 Z " />
<glyph glyph-name="period" unicode="&#x2e;" horiz-adv-x="308" d="M153 180 C97 180 51 138 51 86 C51 35 97 -7 154 -7 C210 -7 256 35 256 85 C256 138 211 180 153 180 L153 180 Z " />
<glyph glyph-name="slash" unicode="&#x2f;" horiz-adv-x="446" d="M415 667 L254 667 L-60 -267 L101 -267 L415 667 Z " />
<glyph glyph-name="zero" unicode="0" horiz-adv-x="653" d="M326 680 C158 680 30 530 30 334 C30 136 157 -13 326 -13 C493 -13 622 136 622 328 C622 443 587 535 516 602 C461 655 399 680 326 680 L326 680 Z M237 510 C237 585 238 590 249 611 C261 633 290 647 326 647 C362 647 391 633 403 611 C414 590 415 585 415 510 L415 157 C415 82 414 77 403 56 C391 34 362 20 326 20 C290 20 261 34 249 56 C238 77 237 82 237 157 L237 510 Z " />
<glyph glyph-name="one" unicode="1" horiz-adv-x="653" d="M465 667 C336 639 295 634 206 633 L110 633 L110 603 L252 603 L252 30 L110 30 L110 0 L586 0 L586 30 L465 30 L465 667 Z " />
<glyph glyph-name="two" unicode="2" horiz-adv-x="653" d="M582 0 L602 273 L573 273 L568 242 C559 174 553 170 473 170 L189 170 L382 242 C520 294 592 375 592 478 C592 607 496 681 329 681 C246 681 183 665 134 631 C77 592 41 527 41 464 C41 396 96 346 169 346 C235 346 281 390 281 452 C281 509 244 543 181 543 C175 543 168 543 157 542 L142 542 C124 542 116 548 116 559 C116 591 182 625 241 625 C336 625 395 565 395 469 C395 410 376 368 329 317 C285 269 263 253 130 166 L38 106 L38 0 L582 0 Z " />
<glyph glyph-name="three" unicode="3" horiz-adv-x="653" d="M213 376 C180 379 180 379 173 379 C149 379 136 371 136 358 C136 344 150 335 171 335 C176 335 181 335 184 336 C232 340 232 340 249 340 C343 340 394 286 394 185 C394 84 343 23 259 23 C215 23 181 40 181 62 C181 72 187 78 208 86 C254 106 275 131 275 170 C275 225 228 264 162 264 C94 264 50 222 50 157 C50 57 153 -13 299 -13 C481 -13 602 66 602 185 C602 244 569 295 514 322 C481 339 456 346 386 362 C448 375 472 383 503 400 C547 426 570 466 570 517 C570 567 547 611 505 639 C463 668 413 680 334 680 C247 680 190 666 143 633 C105 606 82 565 82 524 C82 469 125 429 186 429 C242 429 283 465 283 514 C283 549 268 569 223 593 C210 599 205 605 205 613 C205 630 231 642 267 642 C335 642 371 595 371 507 C371 420 330 375 250 375 L213 376 Z " />
<glyph glyph-name="four" unicode="4" horiz-adv-x="653" d="M504 173 L537 173 C580 174 584 171 584 131 L584 99 L614 99 L614 270 L584 270 L584 239 C585 209 578 203 541 203 L504 203 L504 667 L364 667 L28 210 L28 173 L291 173 L291 30 L171 30 L171 0 L603 0 L603 30 L504 30 L504 173 Z M291 203 L62 203 L291 513 L291 203 Z " />
<glyph glyph-name="five" unicode="5" horiz-adv-x="653" d="M572 695 L543 695 C539 672 531 667 500 667 L143 667 C104 667 95 656 92 604 L78 335 L102 327 C150 351 186 361 230 361 C331 361 402 285 402 178 C402 82 346 20 260 20 C218 20 183 35 183 53 C183 62 190 69 211 82 C252 107 268 130 268 164 C268 218 225 256 163 256 C91 256 40 210 40 146 C40 48 137 -13 291 -13 C482 -13 609 75 609 206 C609 274 576 333 518 366 C465 396 393 413 318 413 C245 413 189 401 116 370 L123 497 L459 497 C521 496 537 508 547 561 L572 695 Z " />
<glyph glyph-name="six" unicode="6" horiz-adv-x="653" d="M567 679 C548 680 531 680 523 680 C240 680 32 515 32 290 C32 117 164 -13 340 -13 C501 -13 625 94 625 235 C625 353 534 431 396 431 C348 431 318 424 280 405 C312 571 395 641 567 649 L567 679 Z M266 254 C266 326 268 339 278 360 C289 379 312 390 342 390 C372 390 395 379 406 360 C416 340 418 325 418 254 L418 155 C418 84 416 70 406 50 C395 31 372 20 342 20 C312 20 289 31 278 50 C268 70 266 84 266 155 L266 254 Z " />
<glyph glyph-name="seven" unicode="7" horiz-adv-x="653" d="M152 667 L73 409 L108 409 L121 449 C136 496 139 498 189 497 L489 497 L368 371 C258 256 216 182 216 102 C216 33 268 -13 346 -13 C420 -13 468 25 468 85 C468 109 466 113 437 165 C422 191 415 213 415 234 C415 284 438 347 489 437 C546 536 567 566 618 620 L618 667 L152 667 Z " />
<glyph glyph-name="eight" unicode="8" horiz-adv-x="653" d="M436 357 C490 371 513 382 539 403 C573 430 592 468 592 508 C592 562 556 615 499 645 C453 669 399 680 327 680 C254 680 200 669 154 645 C97 615 61 562 61 508 C61 468 80 430 114 403 C140 382 163 371 217 357 C155 342 129 332 99 311 C55 281 31 236 31 184 C31 70 155 -13 327 -13 C498 -13 622 70 622 184 C622 236 598 281 554 311 C524 332 498 342 436 357 L436 357 Z M252 575 C252 625 275 647 327 647 C378 647 401 625 401 575 L401 443 C401 394 378 372 327 372 C275 372 252 394 252 443 L252 575 Z M238 240 C238 311 262 337 327 337 C391 337 415 311 415 240 L415 117 C415 46 391 20 327 20 C262 20 238 46 238 117 L238 240 Z " />
<glyph glyph-name="nine" unicode="9" horiz-adv-x="653" d="M99 -13 C249 -13 337 7 428 61 C549 133 619 252 619 385 C619 557 495 680 321 680 C151 680 24 579 24 443 C24 393 39 350 67 317 C113 264 191 233 277 233 C327 233 358 240 408 264 C377 97 280 20 99 17 L99 -13 Z M233 528 C233 579 238 603 252 620 C265 637 291 647 321 647 C351 647 376 637 390 620 C403 603 408 580 408 528 L408 399 C408 347 403 323 390 306 C376 289 350 279 321 279 C291 279 265 289 252 306 C238 323 233 347 233 399 L233 528 Z " />
<glyph glyph-name="colon" unicode="&#x3a;" horiz-adv-x="308" d="M154 430 C98 430 51 388 51 338 C51 285 96 244 154 244 C210 244 256 286 256 337 C256 388 210 430 154 430 L154 430 Z M154 180 C97 180 51 138 51 88 C51 35 96 -7 154 -7 C210 -7 256 35 256 86 C256 138 210 180 154 180 L154 180 Z " />
<glyph glyph-name="semicolon" unicode="&#x3b;" horiz-adv-x="308" d="M149 430 C93 430 47 388 47 336 C47 285 93 243 150 243 C206 243 252 285 252 335 C252 388 207 430 149 430 L149 430 Z M115 -193 C218 -134 272 -55 272 36 C272 127 227 180 150 180 C84 180 36 141 36 86 C36 34 81 -8 137 -8 C158 -8 179 -1 195 10 C210 20 211 21 215 21 C221 21 225 15 225 6 C225 -53 176 -118 95 -167 L115 -193 Z " />
<glyph glyph-name="less" unicode="&#x3c;" horiz-adv-x="653" d="M553 610 L99 344 L99 338 L553 62 L553 173 L217 377 L553 576 L553 610 Z " />
<glyph glyph-name="equal" unicode="&#x3d;" horiz-adv-x="653" d="M594 245 L594 285 L59 285 L59 245 L594 245 Z M594 381 L594 421 L59 421 L59 381 L594 381 Z " />
<glyph glyph-name="greater" unicode="&#x3e;" horiz-adv-x="653" d="M99 62 L553 329 L553 335 L99 610 L99 499 L435 296 L99 97 L99 62 Z " />
<glyph glyph-name="question" unicode="&#x3f;" horiz-adv-x="527" d="M249 211 C248 248 256 260 303 297 L401 369 C474 424 499 461 499 516 C499 562 478 602 439 633 C396 666 343 681 264 681 C124 681 29 623 29 538 C29 486 71 448 128 448 C182 448 225 482 225 525 C225 553 211 574 177 594 C158 605 155 608 155 614 C155 632 199 647 251 647 C310 647 344 623 344 582 C344 555 341 549 294 500 L241 442 C196 393 181 362 181 322 C181 292 187 259 202 211 L249 211 Z M243 180 C187 180 141 138 141 86 C141 35 187 -7 244 -7 C300 -7 346 35 346 85 C346 138 301 180 243 180 L243 180 Z " />
<glyph glyph-name="at" unicode="&#x40;" horiz-adv-x="845" d="M614 83 C553 46 495 29 427 29 C246 29 100 164 100 330 C100 501 251 638 439 638 C602 638 739 529 739 399 C739 348 719 302 680 262 C655 236 623 216 608 216 C603 216 600 219 600 223 C600 225 600 227 601 229 L658 498 L492 498 L484 459 C456 496 433 509 391 509 C288 509 187 403 187 294 C187 211 238 159 321 159 C371 159 400 173 438 215 C461 174 491 159 547 159 C596 159 641 172 679 197 C751 246 790 316 790 397 C790 560 635 687 438 687 C223 687 48 527 48 329 C48 134 217 -20 431 -20 C536 -20 618 11 702 83 L614 83 Z M429 468 C453 468 465 444 465 394 C465 302 409 198 359 198 C344 198 337 206 337 225 C337 262 348 322 363 367 C388 442 405 468 429 468 L429 468 Z " />
<glyph glyph-name="A" unicode="A" horiz-adv-x="756" d="M382 180 L449 30 L372 30 L372 0 L770 0 L770 30 L707 30 L421 667 L337 667 L90 93 C69 45 51 31 5 30 L-22 30 L-22 0 L191 0 L191 30 L162 30 C129 30 115 36 115 52 C115 57 117 63 120 71 L166 180 L382 180 Z M178 210 L272 428 L370 210 L178 210 Z " />
<glyph glyph-name="B" unicode="B" horiz-adv-x="797" d="M37 667 L37 637 L114 637 L114 30 L37 30 L37 0 L419 0 C638 0 758 65 758 184 C758 244 724 293 666 321 C629 338 601 346 533 354 C589 362 614 369 646 388 C694 416 719 455 719 504 C719 566 679 622 618 645 C574 662 535 667 435 667 L37 667 Z M334 369 L334 637 L360 637 C484 637 508 617 508 512 C508 403 473 369 363 369 L334 369 Z M334 37 L334 339 L361 339 C483 339 526 300 526 188 C526 74 487 37 365 37 L334 37 Z " />
<glyph glyph-name="C" unicode="C" horiz-adv-x="778" d="M743 212 L705 212 C689 164 675 138 642 102 C590 42 533 16 459 16 C393 16 343 40 312 86 C284 127 274 173 274 252 L274 412 C274 489 287 542 316 583 C347 627 396 651 455 651 C529 651 597 616 637 557 C652 533 662 513 675 473 L714 473 L711 667 L672 667 L640 619 C579 667 525 684 436 684 C203 684 37 535 37 326 C37 125 202 -17 438 -17 C531 -17 578 -2 662 54 L686 0 L725 0 L743 212 Z " />
<glyph glyph-name="D" unicode="D" horiz-adv-x="867" d="M113 30 L37 30 L37 0 L371 0 C542 0 641 26 723 93 C794 151 832 235 832 331 C832 475 761 583 633 636 C576 659 509 667 368 667 L37 667 L37 637 L113 637 L113 30 Z M333 30 L333 637 L368 637 C514 641 558 589 560 414 L559 287 C562 88 519 29 371 30 L333 30 Z " />
<glyph glyph-name="E" unicode="E" horiz-adv-x="757" d="M110 30 L37 30 L37 0 L717 0 L717 222 L683 222 C657 83 584 26 440 30 L330 30 L330 319 L369 319 C463 320 501 286 509 197 L542 197 L542 469 L509 469 C509 387 466 350 372 349 L330 349 L330 637 L407 637 C550 640 630 595 658 494 L691 494 L691 667 L37 667 L37 637 L110 637 L110 30 Z " />
<glyph glyph-name="F" unicode="F" horiz-adv-x="683" d="M330 319 L372 319 C466 320 505 286 513 197 L546 197 L546 469 L513 469 C513 388 470 350 375 349 L330 349 L330 637 L404 637 C549 639 629 589 650 483 L683 483 L683 667 L37 667 L37 637 L110 637 L110 30 L37 30 L37 0 L462 0 L462 30 L330 30 L330 319 Z " />
<glyph glyph-name="G" unicode="G" horiz-adv-x="821" d="M744 248 L810 248 L810 278 L394 278 L394 248 L524 248 L524 178 C524 95 523 85 508 61 C491 33 456 16 416 16 C358 16 307 51 291 102 C280 137 274 198 274 266 L274 374 C274 485 280 529 301 568 C329 621 380 651 441 651 C517 651 600 607 641 545 C658 520 667 497 676 455 L709 455 L709 667 L676 667 L637 629 C554 672 510 684 433 684 C208 684 37 533 37 333 C37 258 61 184 103 126 C172 32 279 -17 417 -17 C558 -17 662 25 744 114 L744 248 Z " />
<glyph glyph-name="H" unicode="H" horiz-adv-x="896" d="M330 328 L566 328 L566 30 L471 30 L471 0 L859 0 L859 30 L786 30 L786 637 L859 637 L859 667 L471 667 L471 637 L566 637 L566 358 L330 358 L330 637 L425 637 L425 667 L37 667 L37 637 L110 637 L110 30 L37 30 L37 0 L425 0 L425 30 L330 30 L330 328 Z " />
<glyph glyph-name="I" unicode="I" horiz-adv-x="440" d="M110 30 L37 30 L37 0 L403 0 L403 30 L330 30 L330 637 L403 637 L403 667 L37 667 L37 637 L110 637 L110 30 Z " />
<glyph glyph-name="J" unicode="J" horiz-adv-x="574" d="M475 637 L548 637 L548 667 L182 667 L182 637 L255 637 L255 62 C255 14 253 -8 245 -29 C234 -59 210 -76 179 -76 C159 -76 144 -69 144 -59 C144 -53 146 -52 168 -35 C194 -17 208 9 208 38 C208 92 166 132 108 132 C45 132 0 92 0 36 C0 -50 86 -110 209 -110 C286 -110 362 -86 404 -49 C457 -2 475 54 475 173 L475 637 Z " />
<glyph glyph-name="K" unicode="K" horiz-adv-x="874" d="M521 468 L641 579 C695 632 704 635 771 637 L814 637 L814 667 L506 667 L506 637 L571 637 C604 637 618 633 618 623 C618 615 607 599 594 588 L330 361 L330 637 L403 637 L403 667 L37 667 L37 637 L110 637 L110 30 L37 30 L37 0 L403 0 L403 30 L330 30 L330 349 L531 30 L464 30 L464 0 L874 0 L874 30 L804 30 L521 468 Z " />
<glyph glyph-name="L" unicode="L" horiz-adv-x="736" d="M330 637 L437 637 L437 667 L37 667 L37 637 L110 637 L110 30 L37 30 L37 0 L698 0 L712 226 L675 226 C662 172 641 136 604 96 C561 50 500 31 391 30 L330 30 L330 637 Z " />
<glyph glyph-name="M" unicode="M" horiz-adv-x="979" d="M649 30 L540 30 L540 0 L942 0 L942 30 L869 30 L869 637 L942 637 L942 667 L629 667 L489 332 L370 667 L31 667 L31 637 L105 637 L105 125 C108 48 94 31 29 30 L13 30 L13 0 L233 0 L233 30 L216 30 C149 31 135 48 138 125 L138 607 L356 0 L406 0 L649 607 L649 30 Z " />
<glyph glyph-name="N" unicode="N" horiz-adv-x="770" d="M552 0 L669 0 L669 542 C666 619 680 636 744 637 L761 637 L761 667 L541 667 L541 637 L558 637 C625 636 639 619 636 542 L636 296 L378 667 L13 667 L13 637 L59 637 C102 636 110 627 108 578 L108 125 C111 48 97 31 30 30 L13 30 L13 0 L233 0 L233 30 L217 30 C152 31 138 48 141 125 L141 597 L552 0 Z " />
<glyph glyph-name="O" unicode="O" horiz-adv-x="863" d="M431 684 C318 684 212 643 135 569 C70 506 37 427 37 334 C37 240 69 163 135 98 C210 25 317 -17 432 -17 C655 -17 827 134 827 329 C827 428 796 505 729 569 C651 644 548 684 431 684 L431 684 Z M274 441 C274 514 286 564 311 597 C335 630 383 651 432 651 C481 651 529 629 553 597 C578 564 590 514 590 441 L590 226 C590 153 578 103 553 70 C529 38 481 16 432 16 C383 16 335 37 311 70 C286 103 274 154 274 226 L274 441 Z " />
<glyph glyph-name="P" unicode="P" horiz-adv-x="787" d="M330 305 L472 305 C562 305 635 316 674 334 C734 362 768 416 768 482 C768 552 731 612 670 639 C619 661 577 667 463 667 L37 667 L37 637 L110 637 L110 30 L37 30 L37 0 L437 0 L437 30 L330 30 L330 305 Z M330 335 L330 637 L396 637 C507 637 536 605 536 486 C536 367 507 335 396 335 L330 335 Z " />
<glyph glyph-name="Q" unicode="Q" horiz-adv-x="863" d="M536 -5 C587 8 621 21 658 44 C768 109 827 211 827 334 C827 427 795 504 729 569 C654 643 548 684 432 684 C317 684 210 643 135 569 C69 504 37 427 37 334 C37 166 149 37 333 -6 L333 -42 C333 -162 413 -212 605 -212 C641 -212 664 -210 723 -204 L723 -171 C689 -176 672 -177 650 -177 C572 -177 536 -137 536 -52 L536 -5 Z M274 441 C274 514 286 564 310 597 C335 630 383 651 432 651 C481 651 529 629 553 597 C578 564 590 514 590 441 L590 226 C590 154 578 104 553 71 C529 38 481 17 432 17 C383 17 335 38 310 71 C286 104 274 154 274 226 L274 441 Z " />
<glyph glyph-name="R" unicode="R" horiz-adv-x="847" d="M330 338 L389 338 C462 338 488 308 488 222 L488 165 C488 100 502 57 532 29 C563 0 614 -17 670 -17 C726 -17 771 -4 829 30 L815 49 C793 40 784 38 771 38 C756 38 744 45 737 59 C732 69 731 74 730 131 L730 171 C729 278 670 331 530 349 C601 357 627 362 663 377 C719 401 753 450 753 510 C753 573 717 624 658 645 C609 663 573 667 448 667 L37 667 L37 637 L110 637 L110 30 L37 30 L37 0 L403 0 L403 30 L330 30 L330 338 Z M330 368 L330 637 L403 637 C505 637 535 606 535 502 C535 399 504 368 403 368 L330 368 Z " />
<glyph glyph-name="S" unicode="S" horiz-adv-x="657" d="M567 667 L530 667 L498 613 C443 663 383 684 297 684 C215 684 150 659 101 608 C62 566 39 511 39 455 C39 364 100 304 232 263 L370 221 C462 192 490 168 490 118 C490 58 429 16 340 16 C252 16 170 57 122 125 C106 150 96 170 82 212 L45 212 L45 0 L82 0 L116 60 C181 6 245 -17 331 -17 C497 -17 613 90 613 242 C613 350 560 407 423 446 L289 485 C239 500 211 511 197 522 C178 538 168 556 168 577 C168 622 215 651 287 651 C367 651 440 620 485 567 C506 544 517 523 530 485 L567 485 L567 667 Z " />
<glyph glyph-name="T" unicode="T" horiz-adv-x="670" d="M445 637 L463 637 C547 635 600 576 626 454 L662 454 L649 667 L20 667 L7 454 L44 454 C68 576 115 635 192 637 L225 637 L225 30 L120 30 L120 0 L549 0 L549 30 L445 30 L445 637 Z " />
<glyph glyph-name="U" unicode="U" horiz-adv-x="789" d="M319 637 L426 637 L426 667 L26 667 L26 637 L99 637 L99 219 C99 128 115 81 158 45 C210 2 283 -17 399 -17 C514 -17 586 1 635 42 C678 78 694 124 694 208 L694 542 C691 619 705 636 769 637 L786 637 L786 667 L566 667 L566 637 L583 637 C650 636 664 619 661 542 L661 209 C661 150 654 120 632 91 C604 51 551 28 488 28 C427 28 373 51 347 89 C328 117 319 159 319 219 L319 637 Z " />
<glyph glyph-name="V" unicode="V" horiz-adv-x="741" d="M493 243 L312 637 L390 637 L390 667 L-17 667 L-17 637 L50 637 L349 0 L429 0 L669 574 C691 628 702 637 742 637 L755 637 L755 667 L566 667 L566 637 L591 637 C626 637 639 629 639 609 C639 601 635 587 631 575 L493 243 Z " />
<glyph glyph-name="W" unicode="W" horiz-adv-x="1117" d="M878 264 L726 637 L798 637 L798 667 L396 667 L396 637 L461 637 L543 437 L468 246 L310 637 L371 637 L371 667 L-13 667 L-13 637 L48 637 L316 0 L408 0 L563 390 L727 0 L819 0 L1025 569 C1044 624 1055 635 1096 637 L1131 637 L1131 667 L920 667 L920 637 L941 637 C981 637 994 630 994 607 C994 596 991 584 986 569 L878 264 Z " />
<glyph glyph-name="X" unicode="X" horiz-adv-x="764" d="M476 413 L595 585 C625 628 640 636 681 637 L715 637 L715 667 L498 667 L498 637 L521 637 C554 637 565 632 565 618 C565 608 561 598 551 585 L454 444 L334 637 L412 637 L412 667 L-7 667 L-7 637 L56 637 L262 304 L110 88 C77 42 60 31 13 30 L-7 30 L-7 0 L203 0 L203 30 L168 30 C144 30 132 36 132 48 C132 54 135 61 141 70 L283 270 L431 30 L358 30 L358 0 L779 0 L779 30 L715 30 L476 413 Z " />
<glyph glyph-name="Y" unicode="Y" horiz-adv-x="736" d="M493 296 L644 585 C664 625 682 637 717 637 L754 637 L754 667 L540 667 L540 637 L564 637 C600 637 613 631 613 615 C613 608 610 600 602 584 L475 337 L315 637 L380 637 L380 667 L-38 667 L-38 637 L29 637 L273 250 L273 30 L147 30 L147 0 L597 0 L597 30 L493 30 L493 296 Z " />
<glyph glyph-name="Z" unicode="Z" horiz-adv-x="679" d="M653 223 L616 223 C607 106 515 24 400 30 L287 30 L642 640 L642 667 L54 667 L46 487 L83 487 C111 599 175 643 303 637 L365 637 L15 30 L15 0 L642 0 L653 223 Z " />
<glyph glyph-name="bracketleft" unicode="&#x5b;" horiz-adv-x="450" d="M286 637 L417 637 L417 667 L86 667 L86 -267 L417 -267 L417 -237 L286 -237 L286 637 Z " />
<glyph glyph-name="backslash" unicode="&#x5c;" horiz-adv-x="446" d="M31 667 L345 -267 L506 -267 L192 667 L31 667 Z " />
<glyph glyph-name="bracketright" unicode="&#x5d;" horiz-adv-x="450" d="M144 -237 L32 -237 L32 -267 L364 -267 L364 667 L32 667 L32 637 L144 637 L144 -237 Z " />
<glyph glyph-name="asciicircum" unicode="&#x5e;" horiz-adv-x="550" d="M587 273 L299 700 L288 700 L-38 273 L201 273 L358 480 L498 273 L587 273 Z " />
<glyph glyph-name="underscore" unicode="&#x5f;" horiz-adv-x="500" d="M-2 -93 L-2 -191 L501 -191 L501 -93 L-2 -93 Z " />
<glyph glyph-name="grave" unicode="&#x60;" horiz-adv-x="526" d="M329 500 L354 511 L264 653 L148 653 C127 653 117 646 117 633 C117 622 125 612 140 604 L329 500 Z " />
<glyph glyph-name="a" unicode="a" horiz-adv-x="623" d="M351 240 C267 236 207 226 143 207 C66 183 29 147 29 93 C29 31 84 -13 160 -13 C236 -13 291 6 359 56 C385 7 422 -13 489 -13 C549 -13 595 10 628 56 L600 74 C583 54 575 49 566 49 C554 49 548 57 548 74 L548 322 C548 410 499 433 315 433 C239 433 198 428 156 413 C92 391 57 355 57 312 C57 268 98 240 162 240 C227 240 276 270 276 311 C276 330 263 347 238 358 C223 365 220 368 220 373 C220 385 247 396 278 396 C324 396 351 375 351 339 L351 240 Z M351 118 C351 83 330 63 292 63 C252 63 227 86 227 122 C227 171 268 205 326 205 C333 205 339 205 351 203 L351 118 Z " />
<glyph glyph-name="b" unicode="b" horiz-adv-x="663" d="M274 0 L274 45 C316 4 357 -13 416 -13 C544 -13 634 83 634 219 C634 344 547 433 426 433 C359 433 312 411 274 362 L274 680 C210 669 173 667 71 667 L8 667 L8 637 L77 637 L77 30 L8 30 L8 0 L274 0 Z M274 277 C274 328 309 366 357 366 C405 366 421 327 421 209 C421 149 416 102 406 78 C398 58 377 45 352 45 C306 45 274 82 274 135 L274 277 Z " />
<glyph glyph-name="c" unicode="c" horiz-adv-x="582" d="M545 124 C484 52 426 20 354 20 C317 20 284 34 265 57 C248 77 242 104 242 155 L242 292 C242 342 249 365 269 381 C284 393 307 400 332 400 C364 400 395 387 395 373 C395 367 390 362 378 355 C335 332 325 321 325 299 C325 257 375 223 438 223 C504 223 545 257 545 310 C545 383 456 433 326 433 C146 433 29 344 29 207 C29 73 143 -13 321 -13 C436 -13 505 20 571 108 L545 124 Z " />
<glyph glyph-name="d" unicode="d" horiz-adv-x="665" d="M394 0 L657 0 L657 30 L591 30 L591 680 C526 669 489 667 386 667 L308 667 L308 637 L394 637 L394 369 C353 416 314 433 253 433 C124 433 29 336 29 207 C29 79 117 -13 241 -13 C301 -13 344 3 394 45 L394 0 Z M394 152 C394 88 358 44 305 44 C253 44 242 76 242 228 C242 335 258 369 310 369 C336 369 360 358 374 339 C385 323 394 296 394 277 L394 152 Z " />
<glyph glyph-name="e" unicode="e" horiz-adv-x="620" d="M594 232 C592 278 584 304 565 334 C520 401 445 433 333 433 C150 433 29 344 29 211 C29 130 73 57 145 21 C190 -2 254 -14 329 -14 C464 -14 549 36 594 141 L567 152 C524 69 450 20 367 20 C326 20 296 36 282 66 C268 99 265 126 264 232 L594 232 Z M263 262 C264 302 264 321 267 337 C273 381 289 400 320 400 C358 400 373 374 373 307 C373 265 371 262 344 262 L263 262 Z " />
<glyph glyph-name="f" unicode="f" horiz-adv-x="422" d="M83 30 L17 30 L17 0 L393 0 L393 30 L280 30 L280 390 L393 390 L393 420 L280 420 L280 461 C280 517 286 559 296 585 C314 627 344 650 382 650 C402 650 417 642 417 631 C417 626 412 621 400 613 C362 591 350 575 350 545 C350 497 393 462 451 462 C514 462 555 499 555 556 C555 633 483 684 374 684 C310 684 250 669 201 640 C123 594 83 529 83 445 L83 420 L17 420 L17 390 L83 390 L83 30 Z " />
<glyph glyph-name="g" unicode="g" horiz-adv-x="671" d="M210 45 C122 45 90 55 90 83 C90 103 115 119 147 119 C156 119 165 118 173 116 C231 100 255 97 308 97 C462 97 576 166 576 260 C576 294 569 310 538 353 C544 359 547 361 553 361 C563 361 568 357 578 338 C588 318 602 310 624 310 C655 310 680 334 680 364 C680 402 647 433 609 433 C573 433 543 415 513 375 C449 416 391 433 310 433 C157 433 39 358 39 260 C39 210 62 176 115 145 C85 130 72 121 58 107 C35 82 21 44 21 5 C21 -50 42 -85 93 -114 C48 -131 28 -151 28 -178 C28 -230 134 -263 303 -263 C400 -263 476 -251 523 -229 C592 -196 632 -142 632 -79 C632 -46 621 -17 601 4 C572 35 532 45 439 45 L210 45 Z M241 319 C241 379 258 399 307 399 C356 399 373 379 373 319 L373 207 C373 148 356 127 307 127 C258 127 241 147 241 207 L241 319 Z M427 -131 C496 -131 512 -137 512 -163 C512 -203 431 -231 314 -231 C193 -231 122 -206 122 -165 C122 -153 129 -141 138 -136 C146 -131 146 -131 183 -131 L427 -131 Z " />
<glyph glyph-name="h" unicode="h" horiz-adv-x="664" d="M74 30 L8 30 L8 0 L330 0 L330 30 L271 30 L271 235 C271 301 308 353 357 353 C384 353 395 340 395 307 L395 30 L355 30 L355 0 L658 0 L658 30 L592 30 L592 304 C592 391 547 434 455 434 C413 434 372 423 339 404 C313 389 298 374 271 337 L271 680 C206 669 170 667 68 667 L8 667 L8 637 L74 637 L74 30 Z " />
<glyph glyph-name="i" unicode="i" horiz-adv-x="353" d="M83 30 L17 30 L17 0 L346 0 L346 30 L280 30 L280 433 C211 422 178 420 75 420 L17 420 L17 390 L83 390 L83 30 Z M166 699 C106 699 57 650 57 590 C57 529 106 480 167 480 C227 480 276 529 276 588 C276 651 228 699 166 699 L166 699 Z " />
<glyph glyph-name="j" unicode="j" horiz-adv-x="328" d="M73 390 L73 -112 C73 -147 72 -165 69 -178 C64 -207 46 -222 19 -222 C-2 -222 -17 -212 -17 -199 C-17 -191 -10 -182 5 -170 C31 -150 40 -134 40 -111 C40 -67 2 -36 -51 -36 C-113 -36 -156 -76 -156 -133 C-156 -207 -89 -255 13 -255 C85 -255 143 -231 195 -180 C250 -126 270 -68 270 40 L270 433 C204 422 169 420 67 420 L7 420 L7 390 L73 390 Z M166 699 C106 699 57 650 57 590 C57 529 106 480 167 480 C227 480 276 529 276 588 C276 651 228 699 166 699 L166 699 Z " />
<glyph glyph-name="k" unicode="k" horiz-adv-x="685" d="M74 30 L8 30 L8 0 L331 0 L331 30 L271 30 L271 213 L409 30 L370 30 L370 0 L696 0 L696 30 L647 30 L463 319 L510 355 C548 385 559 389 595 390 L627 390 L627 420 L379 420 L379 390 L434 390 C456 390 464 386 464 375 C464 368 457 358 446 350 L271 228 L271 680 C209 669 170 667 68 667 L8 667 L8 637 L74 637 L74 30 Z " />
<glyph glyph-name="l" unicode="l" horiz-adv-x="344" d="M271 680 C206 669 169 667 66 667 L8 667 L8 637 L74 637 L74 30 L8 30 L8 0 L337 0 L337 30 L271 30 L271 680 Z " />
<glyph glyph-name="m" unicode="m" horiz-adv-x="997" d="M280 433 C215 422 179 420 77 420 L17 420 L17 390 L83 390 L83 30 L17 30 L17 0 L340 0 L340 30 L280 30 L280 250 C280 307 318 353 364 353 C395 353 408 335 408 293 L408 30 L368 30 L368 0 L665 0 L665 30 L605 30 L605 250 C605 308 641 354 685 354 C716 354 729 335 729 293 L729 30 L689 30 L689 0 L992 0 L992 30 L926 30 L926 284 C926 336 917 366 896 390 C870 420 831 434 778 434 C702 434 649 407 604 344 C593 372 585 385 571 398 C548 420 506 433 459 433 C386 433 336 408 280 344 L280 433 Z " />
<glyph glyph-name="n" unicode="n" horiz-adv-x="673" d="M83 30 L17 30 L17 0 L339 0 L339 30 L280 30 L280 235 C280 301 317 353 366 353 C393 353 404 340 404 307 L404 30 L364 30 L364 0 L667 0 L667 30 L601 30 L601 304 C601 391 556 434 464 434 C422 434 381 423 348 404 C322 389 307 374 280 337 L280 433 C215 422 179 420 77 420 L17 420 L17 390 L83 390 L83 30 Z " />
<glyph glyph-name="o" unicode="o" horiz-adv-x="668" d="M333 433 C151 433 29 343 29 210 C29 76 151 -13 334 -13 C515 -13 639 76 639 207 C639 344 519 433 333 433 L333 433 Z M242 277 C242 324 247 352 259 370 C272 388 300 400 335 400 C368 400 397 388 409 370 C421 353 426 323 426 277 L426 143 C426 97 421 67 409 50 C397 32 367 20 334 20 C301 20 272 32 259 50 C247 68 242 96 242 143 L242 277 Z " />
<glyph glyph-name="p" unicode="p" horiz-adv-x="669" d="M271 433 C204 422 170 420 68 420 L8 420 L8 390 L74 390 L74 -237 L8 -237 L8 -267 L357 -267 L357 -237 L271 -237 L271 53 C313 6 358 -13 425 -13 C549 -13 641 83 641 213 C641 340 553 433 432 433 C360 433 314 411 271 355 L271 433 Z M271 237 C271 314 310 367 366 367 C415 367 427 332 427 195 C427 80 413 45 366 45 C313 45 271 99 271 167 L271 237 Z " />
<glyph glyph-name="q" unicode="q" horiz-adv-x="671" d="M400 -237 L314 -237 L314 -267 L663 -267 L663 -237 L597 -237 L597 390 L663 390 L663 420 L603 420 C501 420 464 422 400 433 L400 364 C362 413 318 434 253 434 C128 434 28 332 28 203 C28 81 124 -13 247 -13 C310 -13 357 6 400 47 L400 -237 Z M400 146 C400 88 359 44 305 44 C257 44 241 72 241 155 C241 225 244 295 247 311 C254 347 277 366 312 366 C365 366 400 326 400 264 L400 146 Z " />
<glyph glyph-name="r" unicode="r" horiz-adv-x="574" d="M83 30 L17 30 L17 0 L366 0 L366 30 L280 30 L280 220 C280 279 284 297 304 322 C326 350 358 371 380 371 C390 371 398 366 398 359 C398 354 393 350 381 343 C360 332 350 316 350 296 C350 250 398 213 458 213 C525 213 569 253 569 314 C569 385 513 433 431 433 C363 433 316 408 280 351 L280 433 C215 422 179 420 77 420 L17 420 L17 390 L83 390 L83 30 Z " />
<glyph glyph-name="s" unicode="s" horiz-adv-x="468" d="M415 420 L385 420 L358 401 C307 424 269 433 217 433 C106 433 34 370 34 272 C34 201 76 159 170 137 L300 107 C344 97 358 88 358 68 C358 38 320 20 259 20 C151 20 85 64 62 151 L33 151 L33 -9 L62 -9 L99 22 C162 -4 201 -13 251 -13 C369 -13 443 52 443 156 C443 199 430 236 406 260 C386 279 355 292 299 305 L200 328 C165 336 146 341 143 343 C134 348 129 355 129 363 C129 385 162 400 209 400 C260 400 311 386 346 361 C365 348 375 334 385 305 L415 305 L415 420 Z " />
<glyph glyph-name="t" unicode="t" horiz-adv-x="410" d="M290 390 L394 390 L394 420 L290 420 L290 630 L263 630 C192 530 139 484 5 409 L5 390 L93 390 L93 138 C93 66 99 42 125 19 C149 -3 184 -13 235 -13 C334 -13 388 24 410 107 L382 115 C364 69 347 51 323 51 C300 51 290 70 290 115 L290 390 Z " />
<glyph glyph-name="u" unicode="u" horiz-adv-x="686" d="M416 0 L679 0 L679 30 L613 30 L613 433 C547 422 511 420 408 420 L330 420 L330 390 L416 390 L416 169 C416 130 411 112 395 95 C379 78 354 66 334 66 C302 66 288 84 288 126 L288 433 C221 422 186 420 83 420 L20 420 L20 390 L91 390 L91 134 C91 84 99 55 121 32 C147 3 192 -13 244 -13 C311 -13 368 15 416 71 L416 0 Z " />
<glyph glyph-name="v" unicode="v" horiz-adv-x="538" d="M370 200 L267 390 L316 390 L316 420 L-11 420 L-11 390 L24 390 L240 0 L295 0 L494 356 C509 382 518 390 537 390 L549 390 L549 420 L405 420 L405 390 L426 390 C446 390 457 383 457 370 C457 363 455 355 451 347 L370 200 Z " />
<glyph glyph-name="w" unicode="w" horiz-adv-x="736" d="M361 211 L480 0 L531 0 L680 343 C696 380 707 389 732 390 L747 390 L747 420 L596 420 L596 390 L617 390 C642 390 651 385 651 372 C651 366 649 357 643 343 L592 221 L486 420 L430 420 L332 224 L257 390 L314 390 L314 420 L-11 420 L-11 390 L25 390 L196 0 L248 0 L361 211 Z " />
<glyph glyph-name="x" unicode="x" horiz-adv-x="638" d="M423 263 L517 355 C544 383 555 388 585 390 L605 390 L605 420 L437 420 L437 390 L461 390 C477 390 484 386 484 378 C484 372 479 363 471 355 L406 288 L336 390 L384 390 L384 420 L23 420 L23 390 L76 390 L216 189 L100 71 C66 35 59 31 23 30 L-7 30 L-7 0 L183 0 L183 30 L158 30 C139 30 130 35 130 44 C130 51 134 59 146 70 L235 160 L327 30 L279 30 L279 0 L641 0 L641 30 L585 30 L423 263 Z " />
<glyph glyph-name="y" unicode="y" horiz-adv-x="568" d="M267 -8 L220 -99 C213 -112 207 -118 201 -118 C196 -118 196 -118 173 -101 C157 -89 136 -83 114 -83 C59 -83 15 -125 15 -178 C15 -226 51 -260 102 -260 C138 -260 167 -245 191 -214 C206 -194 206 -194 244 -123 L498 344 C516 377 532 388 560 390 L579 390 L579 420 L412 420 L412 390 L430 390 C456 390 466 385 466 373 C466 367 462 356 456 344 L386 212 L287 390 L336 390 L336 420 L-11 420 L-11 390 L37 390 L267 -8 Z " />
<glyph glyph-name="z" unicode="z" horiz-adv-x="564" d="M509 178 C490 69 446 28 349 30 L278 30 L530 376 L530 420 L53 420 L49 252 L78 252 C99 348 143 392 219 390 L278 390 L29 39 L29 0 L530 0 L538 178 L509 178 Z " />
<glyph glyph-name="braceleft" unicode="&#x7b;" horiz-adv-x="450" d="M37 199 C93 196 108 182 108 133 C108 122 109 96 110 56 L110 -65 C111 -173 115 -198 133 -223 C155 -254 194 -267 270 -267 L409 -267 L409 -237 L387 -237 C317 -236 308 -217 310 -76 L310 59 C313 166 291 206 223 212 L223 216 C290 222 314 263 310 360 L310 490 C309 606 325 636 391 637 L409 637 L409 667 L272 667 C139 669 105 628 110 469 L110 359 C109 241 104 231 37 229 L37 199 Z " />
<glyph glyph-name="bar" unicode="&#x7c;" horiz-adv-x="537" d="M203 667 L203 -167 L335 -167 L335 667 L203 667 Z " />
<glyph glyph-name="braceright" unicode="&#x7d;" horiz-adv-x="450" d="M413 229 C346 231 340 241 340 359 L340 469 C345 628 311 669 177 667 L40 667 L40 637 L58 637 C124 636 141 606 140 490 L140 360 C135 263 160 222 226 216 L226 212 C159 206 136 166 140 59 L140 -76 C142 -217 132 -236 62 -237 L40 -237 L40 -267 L179 -267 C256 -267 295 -254 316 -223 C334 -198 338 -173 340 -65 L340 56 C342 165 342 165 354 181 C366 193 380 197 413 199 L413 229 Z " />
<glyph glyph-name="asciitilde" unicode="&#x7e;" horiz-adv-x="512" d="M410 397 C388 369 375 361 353 361 C344 361 334 363 322 366 L254 387 C240 391 202 397 189 397 C136 397 93 359 65 286 L103 273 C126 305 130 309 151 309 C162 309 165 308 196 300 L272 278 C287 274 312 270 327 270 C374 270 422 315 448 384 L410 397 Z " />
<glyph glyph-name="uni00A0" unicode="&#xa0;" horiz-adv-x="250" d="" />
<glyph glyph-name="exclamdown" unicode="&#xa1;" horiz-adv-x="339" d="M144 216 C138 120 124 50 94 -40 C71 -109 66 -130 66 -161 C66 -219 105 -254 169 -254 C234 -254 273 -219 273 -161 C273 -129 268 -109 245 -40 C214 53 202 117 195 216 L144 216 Z M170 433 C113 433 67 392 67 341 C67 288 112 247 170 247 C226 247 272 289 272 340 C272 392 226 433 170 433 L170 433 Z " />
<glyph glyph-name="cent" unicode="&#xa2;" horiz-adv-x="658" d="M350 657 L317 657 L317 575 C159 560 63 475 63 351 C63 226 156 146 317 132 L317 51 L350 51 L350 130 C467 130 543 166 604 252 L580 267 C519 194 461 163 388 163 C351 163 318 177 299 200 C282 220 276 248 276 298 L276 435 C276 485 283 508 303 524 C318 536 342 543 366 543 C399 543 430 530 430 515 C430 510 426 505 416 498 C379 473 373 465 373 442 C373 400 420 366 479 366 C541 366 580 400 580 453 C580 529 490 578 350 577 L350 657 Z " />
<glyph glyph-name="sterling" unicode="&#xa3;" horiz-adv-x="653" d="M216 280 L226 270 C283 215 296 195 308 146 C251 161 225 165 191 165 C107 165 46 125 46 69 C46 18 96 -14 175 -14 C228 -14 264 -2 308 30 L354 14 C424 -9 441 -13 476 -13 C571 -13 628 57 628 174 L592 174 C590 155 588 147 582 138 C569 118 541 106 510 106 C486 106 485 106 416 122 L374 130 C398 169 406 193 406 229 C406 246 404 261 398 280 L532 280 L532 310 L388 310 C380 329 378 332 374 338 L339 389 C300 445 300 445 294 455 C275 489 266 520 266 547 C266 606 314 646 387 646 C429 646 467 630 467 612 C467 607 462 602 449 595 C417 578 403 559 403 533 C403 493 439 464 487 464 C535 464 575 501 575 546 C575 572 561 602 536 625 C498 664 443 680 355 680 C176 680 74 614 74 498 C74 457 89 418 116 385 C130 367 130 367 178 319 L187 310 L78 310 L78 280 L216 280 Z M267 47 L238 36 C214 28 192 24 169 24 C123 24 88 39 88 59 C88 73 104 83 128 83 C151 83 188 76 215 66 L267 47 Z " />
<glyph glyph-name="currency" unicode="&#xa4;" horiz-adv-x="653" d="M151 478 C114 435 96 392 96 341 C96 289 113 247 151 204 L75 134 L99 112 L175 182 C223 147 269 131 326 131 C383 131 425 145 477 182 L553 112 L577 134 L501 204 C538 245 556 290 556 341 C556 391 537 438 501 478 L577 547 L553 569 L477 499 C429 535 383 550 326 550 C269 550 223 535 175 499 L99 569 L75 547 L151 478 Z M327 436 C391 436 442 393 442 339 C442 288 389 245 326 245 C262 245 210 288 210 341 C210 394 262 436 327 436 L327 436 Z " />
<glyph glyph-name="yen" unicode="&#xa5;" horiz-adv-x="653" d="M444 289 L579 289 L579 319 L454 319 L513 447 L624 447 L624 477 L527 477 L578 585 C596 625 611 637 643 637 L676 637 L676 667 L485 667 L485 637 L504 637 C536 637 548 631 548 615 C548 609 545 600 538 584 L425 336 L263 637 L343 637 L343 667 L-22 667 L-22 637 L36 637 L124 477 L24 477 L24 447 L141 447 L213 319 L83 319 L83 289 L228 289 L248 253 L248 30 L135 30 L135 0 L536 0 L536 30 L444 30 L444 289 Z " />
<glyph glyph-name="brokenbar" unicode="&#xa6;" horiz-adv-x="537" d="M203 667 L203 299 L335 299 L335 667 L203 667 Z M203 153 L203 -167 L335 -167 L335 153 L203 153 Z " />
<glyph glyph-name="section" unicode="&#xa7;" horiz-adv-x="770" d="M407 447 C344 472 320 484 305 497 C284 515 273 534 273 556 C273 607 328 639 416 639 C482 639 538 623 538 604 C538 598 534 595 514 583 C484 565 469 542 469 513 C469 466 515 427 572 427 C630 427 674 469 674 525 C674 615 562 674 392 674 C221 674 118 605 118 490 C118 444 130 414 164 376 C87 322 56 274 56 208 C56 137 103 88 213 45 L394 -25 C465 -53 474 -57 496 -72 C523 -92 536 -113 536 -140 C536 -199 470 -240 375 -240 C296 -240 222 -217 222 -193 C222 -185 228 -180 246 -169 C281 -149 297 -127 297 -97 C297 -48 252 -11 193 -11 C133 -11 92 -48 92 -103 C92 -204 213 -274 389 -274 C472 -274 527 -259 581 -221 C639 -180 670 -125 670 -64 C670 -16 656 18 618 58 C660 87 677 103 694 133 C708 159 716 189 716 218 C716 294 669 342 548 390 L407 447 Z M283 214 C219 239 214 241 189 255 C162 270 149 285 149 303 C149 322 159 334 191 351 C220 328 234 321 282 301 L552 194 C626 164 640 153 640 128 C640 108 624 93 588 81 C551 107 543 111 484 134 L283 214 Z " />
<glyph glyph-name="dieresis" unicode="&#xa8;" horiz-adv-x="471" d="M111 655 C68 655 33 619 33 575 C33 531 68 496 111 496 C156 496 192 532 192 575 C192 620 157 655 111 655 L111 655 Z M357 655 C314 655 279 619 279 575 C279 531 314 496 357 496 C402 496 438 532 438 575 C438 620 403 655 357 655 L357 655 Z " />
<glyph glyph-name="copyright" unicode="&#xa9;" horiz-adv-x="852" d="M610 275 L583 275 C562 213 513 175 452 175 C387 175 356 213 356 292 L356 373 C356 450 389 491 451 491 C508 491 545 462 567 401 L594 401 L593 507 L566 507 L549 484 C517 506 487 515 438 515 C307 515 214 438 214 329 C214 225 307 151 439 151 C490 151 516 159 561 186 L573 160 L600 160 L610 275 Z M427 684 C212 684 37 527 37 333 C37 143 212 -17 420 -17 C641 -17 816 137 816 331 C816 527 643 684 427 684 L427 684 Z M427 631 C609 631 755 498 755 331 C755 167 607 36 421 36 C245 36 98 172 98 333 C98 498 245 631 427 631 L427 631 Z " />
<glyph glyph-name="ordfeminine" unicode="&#xaa;" horiz-adv-x="424" d="M224 415 C92 408 25 377 25 325 C25 287 61 259 110 259 C156 259 191 270 232 298 C249 271 277 259 322 259 C366 259 398 273 423 304 L400 318 C388 305 384 302 379 302 C374 302 372 305 372 314 L372 460 C372 515 339 529 212 529 C106 529 42 503 42 459 C42 434 69 418 110 418 C154 418 185 435 185 459 C185 469 175 480 161 485 C157 486 155 488 155 490 C155 495 170 500 185 500 C210 500 224 489 224 470 L224 415 Z M224 387 L224 340 C224 320 213 310 194 310 C173 310 160 322 160 342 C160 368 182 387 212 387 L224 387 Z " />
<glyph glyph-name="guillemotleft" unicode="&#xab;" horiz-adv-x="523" d="M358 208 L475 333 L345 333 L228 208 L345 88 L475 88 L358 208 Z M171 208 L287 333 L158 333 L40 208 L158 88 L287 88 L171 208 Z " />
<glyph glyph-name="logicalnot" unicode="&#xac;" horiz-adv-x="550" d="M313 0 L522 0 L522 267 L28 267 L28 178 L313 178 L313 0 Z " />
<glyph glyph-name="uni00AD" unicode="&#xad;" horiz-adv-x="287" d="M287 149 L287 277 L0 277 L0 149 L287 149 Z " />
<glyph glyph-name="registered" unicode="&#xae;" horiz-adv-x="852" d="M385 333 L414 333 C455 333 468 319 468 277 L468 248 C468 183 504 151 576 151 C609 151 635 158 672 178 L660 193 C646 188 640 186 634 186 C617 186 615 191 614 231 L614 251 C614 301 584 330 522 341 C590 349 627 378 627 423 C627 448 616 468 597 483 C570 502 540 507 449 507 L211 507 L211 485 L253 485 L253 182 L211 182 L211 160 L442 160 L442 182 L385 182 L385 333 Z M385 355 L385 485 L422 485 C480 485 496 471 496 420 C496 369 480 355 422 355 L385 355 Z M427 684 C212 684 37 527 37 333 C37 143 212 -17 420 -17 C641 -17 816 137 816 331 C816 527 643 684 427 684 L427 684 Z M427 631 C609 631 755 498 755 331 C755 167 607 36 421 36 C245 36 98 172 98 333 C98 498 245 631 427 631 L427 631 Z " />
<glyph glyph-name="macron" unicode="&#xaf;" horiz-adv-x="381" d="M348 592 L33 592 L33 532 L348 532 L348 592 Z " />
<glyph glyph-name="degree" unicode="&#xb0;" horiz-adv-x="400" d="M203 686 C117 686 50 619 50 534 C50 447 116 380 200 380 C284 380 350 447 350 533 C350 619 286 686 203 686 L203 686 Z M202 629 C252 629 293 586 293 533 C293 479 252 437 200 437 C148 437 106 480 106 532 C106 587 148 629 202 629 L202 629 Z " />
<glyph glyph-name="plusminus" unicode="&#xb1;" horiz-adv-x="653" d="M345 353 L345 567 L305 567 L305 353 L59 353 L59 313 L305 313 L305 100 L345 100 L345 313 L594 313 L594 353 L345 353 Z M594 49 L59 49 L59 9 L594 9 L594 49 Z " />
<glyph glyph-name="twosuperior" unicode="&#xb2;" horiz-adv-x="443" d="M390 267 L404 435 L378 435 L375 414 C369 375 367 374 316 374 L152 374 L259 410 C350 441 398 490 398 552 C398 630 334 675 223 675 C168 675 127 666 94 645 C56 622 32 582 32 544 C32 504 68 474 115 474 C157 474 188 501 188 538 C188 573 161 594 115 594 C113 594 113 594 98 593 C91 593 87 595 87 600 C87 616 129 635 166 635 C226 635 263 601 263 547 C263 513 251 488 221 459 C192 431 186 427 91 371 L30 335 L30 267 L390 267 Z " />
<glyph glyph-name="threesuperior" unicode="&#xb3;" horiz-adv-x="443" d="M277 483 C352 499 384 527 384 575 C384 639 327 675 227 675 C169 675 132 667 100 647 C75 630 59 605 59 580 C59 549 88 527 129 527 C165 527 190 547 190 575 C190 596 179 610 154 623 C148 626 145 629 145 632 C145 640 161 646 183 646 C226 646 248 620 248 569 C248 520 223 495 172 495 C165 495 157 495 149 496 C128 497 128 497 123 497 C104 497 94 491 94 481 C94 471 105 464 121 464 C124 464 127 464 130 465 C161 468 161 468 171 468 C231 468 262 437 262 379 C262 322 230 287 177 287 C151 287 130 296 130 307 C130 311 133 314 143 318 C170 329 184 346 184 369 C184 401 155 422 113 422 C68 422 38 398 38 362 C38 302 107 259 204 259 C324 259 404 307 404 380 C404 434 366 465 277 483 L277 483 Z " />
<glyph glyph-name="acute" unicode="&#xb4;" horiz-adv-x="526" d="M197 500 L386 604 C401 612 409 622 409 633 C409 646 399 653 378 653 L262 653 L172 511 L197 500 Z " />
<glyph glyph-name="mu" unicode="&#xb5;" horiz-adv-x="576" d="M442 500 L353 500 L354 131 C318 80 284 58 242 58 C184 58 150 99 150 169 L150 500 L62 500 L62 20 C62 -1 58 -26 51 -56 C34 -118 33 -123 33 -147 C33 -190 54 -219 83 -219 C112 -219 132 -189 132 -145 C132 -124 129 -110 113 -53 C102 -17 101 -8 101 21 L101 33 C143 -3 165 -13 200 -13 C250 -13 301 18 354 80 C362 48 367 36 377 21 C392 0 419 -13 449 -13 C510 -13 553 31 567 108 L540 109 C536 71 515 41 492 41 C462 41 442 77 442 131 L442 500 Z " />
<glyph glyph-name="paragraph" unicode="&#xb6;" horiz-adv-x="653" d="M294 -237 L200 -237 L200 -267 L624 -267 L624 -237 L549 -237 L549 637 L624 637 L624 667 L300 667 C128 667 34 595 34 464 C34 369 86 302 181 274 C217 264 237 261 294 261 L294 -237 Z M388 -237 L388 637 L456 637 L456 -237 L388 -237 Z " />
<glyph glyph-name="periodcentered" unicode="&#xb7;" horiz-adv-x="308" d="M153 307 C97 307 51 265 51 213 C51 162 97 120 154 120 C210 120 256 162 256 212 C256 265 211 307 153 307 L153 307 Z " />
<glyph glyph-name="cedilla" unicode="&#xb8;" horiz-adv-x="550" d="M316 0 L281 0 L247 -84 C290 -90 302 -99 302 -125 C302 -151 284 -167 254 -167 C236 -167 216 -160 216 -154 C216 -153 217 -151 218 -148 C223 -141 225 -133 225 -126 C225 -108 212 -96 193 -96 C172 -96 156 -113 156 -135 C156 -173 201 -200 265 -200 C342 -200 396 -164 396 -112 C396 -72 368 -51 317 -51 C312 -51 304 -51 294 -52 L316 0 Z " />
<glyph glyph-name="onesuperior" unicode="&#xb9;" horiz-adv-x="443" d="M315 668 C221 650 205 648 144 647 L77 647 L77 623 L170 623 L170 292 L77 292 L77 266 L394 266 L394 292 L315 292 L315 668 Z " />
<glyph glyph-name="ordmasculine" unicode="&#xba;" horiz-adv-x="453" d="M226 529 C106 529 25 475 25 394 C25 313 106 259 227 259 C347 259 429 313 429 392 C429 475 350 529 226 529 L226 529 Z M170 433 C170 486 184 503 227 503 C271 503 284 486 284 433 L284 355 C284 302 270 285 227 285 C184 285 170 302 170 355 L170 433 Z " />
<glyph glyph-name="guillemotright" unicode="&#xbb;" horiz-adv-x="523" d="M165 213 L48 88 L178 88 L295 213 L178 333 L48 333 L165 213 Z M352 213 L236 88 L365 88 L483 213 L365 333 L236 333 L352 213 Z " />
<glyph glyph-name="onequarter" unicode="&#xbc;" horiz-adv-x="998" d="M315 668 C221 650 205 648 144 647 L77 647 L77 623 L170 623 L170 292 L77 292 L77 266 L394 266 L394 292 L315 292 L315 668 Z M722 667 L666 667 L305 0 L361 0 L722 667 Z M896 102 L914 102 C940 102 941 102 941 80 L941 65 L967 65 L967 160 L941 160 L941 144 C941 128 939 126 917 126 L896 126 L896 400 L800 400 L579 128 L579 102 L736 102 L736 26 L672 26 L672 0 L960 0 L960 26 L896 26 L896 102 Z M736 126 L612 126 L736 281 L736 126 Z " />
<glyph glyph-name="onehalf" unicode="&#xbd;" horiz-adv-x="998" d="M315 668 C221 650 205 648 144 647 L77 647 L77 623 L170 623 L170 292 L77 292 L77 266 L394 266 L394 292 L315 292 L315 668 Z M708 667 L651 667 L290 0 L347 0 L708 667 Z M945 0 L959 168 L933 168 L930 147 C924 108 922 107 871 107 L707 107 L814 143 C905 174 953 223 953 285 C953 363 889 408 778 408 C723 408 682 399 649 378 C611 355 587 315 587 277 C587 237 623 207 670 207 C712 207 743 234 743 271 C743 306 716 327 670 327 C668 327 668 327 653 326 C646 326 642 328 642 333 C642 349 684 368 721 368 C781 368 818 334 818 280 C818 246 806 221 776 192 C747 164 741 160 646 104 L585 68 L585 0 L945 0 Z " />
<glyph glyph-name="threequarters" unicode="&#xbe;" horiz-adv-x="998" d="M277 483 C352 499 384 527 384 575 C384 639 327 675 227 675 C169 675 132 667 100 647 C75 630 59 605 59 580 C59 549 88 527 129 527 C165 527 190 547 190 575 C190 596 179 610 154 623 C148 626 145 629 145 632 C145 640 161 646 183 646 C226 646 248 620 248 569 C248 520 223 495 172 495 C165 495 157 495 149 496 C128 497 128 497 123 497 C104 497 94 491 94 481 C94 471 105 464 121 464 C124 464 127 464 130 465 C161 468 161 468 171 468 C231 468 262 437 262 379 C262 322 230 287 177 287 C151 287 130 296 130 307 C130 311 133 314 143 318 C170 329 184 346 184 369 C184 401 155 422 113 422 C68 422 38 398 38 362 C38 302 107 259 204 259 C324 259 404 307 404 380 C404 434 366 465 277 483 L277 483 Z M726 667 L669 667 L309 0 L365 0 L726 667 Z M896 102 L914 102 C940 102 941 102 941 80 L941 65 L967 65 L967 160 L941 160 L941 144 C941 128 939 126 917 126 L896 126 L896 400 L800 400 L579 128 L579 102 L736 102 L736 26 L672 26 L672 0 L960 0 L960 26 L896 26 L896 102 Z M736 126 L612 126 L736 281 L736 126 Z " />
<glyph glyph-name="questiondown" unicode="&#xbf;" horiz-adv-x="527" d="M278 216 L278 209 C278 179 266 162 224 130 L125 57 C53 4 28 -34 28 -89 C28 -135 49 -175 88 -206 C131 -239 184 -254 263 -254 C403 -254 498 -196 498 -111 C498 -59 456 -21 399 -21 C345 -21 302 -55 302 -98 C302 -126 316 -147 349 -167 C368 -178 371 -181 371 -187 C371 -205 328 -220 275 -220 C217 -220 183 -196 183 -155 C183 -128 186 -123 233 -73 L286 -15 C331 34 346 65 346 105 C346 135 340 168 324 216 L278 216 Z M283 433 C227 433 180 392 180 341 C180 288 225 247 283 247 C340 247 386 289 386 340 C386 392 340 433 283 433 L283 433 Z " />
<glyph glyph-name="Agrave" unicode="&#xc0;" horiz-adv-x="756" d="M442 733 L468 753 L361 873 L238 873 C213 873 201 867 201 853 C201 842 209 835 229 826 L442 733 Z M382 180 L449 30 L372 30 L372 0 L770 0 L770 30 L707 30 L421 667 L337 667 L90 93 C69 45 51 31 5 30 L-22 30 L-22 0 L191 0 L191 30 L162 30 C129 30 115 36 115 52 C115 57 117 63 120 71 L166 180 L382 180 Z M178 210 L272 428 L370 210 L178 210 Z " />
<glyph glyph-name="Aacute" unicode="&#xc1;" horiz-adv-x="756" d="M347 733 L560 826 C580 835 588 842 588 853 C588 867 576 873 551 873 L428 873 L321 753 L347 733 Z M382 180 L449 30 L372 30 L372 0 L770 0 L770 30 L707 30 L421 667 L337 667 L90 93 C69 45 51 31 5 30 L-22 30 L-22 0 L191 0 L191 30 L162 30 C129 30 115 36 115 52 C115 57 117 63 120 71 L166 180 L382 180 Z M178 210 L272 428 L370 210 L178 210 Z " />
<glyph glyph-name="Acircumflex" unicode="&#xc2;" horiz-adv-x="756" d="M370 791 L537 733 L559 761 L437 873 L303 873 L181 761 L203 733 L370 791 Z M382 180 L449 30 L372 30 L372 0 L770 0 L770 30 L707 30 L421 667 L337 667 L90 93 C69 45 51 31 5 30 L-22 30 L-22 0 L191 0 L191 30 L162 30 C129 30 115 36 115 52 C115 57 117 63 120 71 L166 180 L382 180 Z M178 210 L272 428 L370 210 L178 210 Z " />
<glyph glyph-name="Atilde" unicode="&#xc3;" horiz-adv-x="756" d="M543 867 C521 838 508 830 485 830 C477 830 470 831 455 836 L386 857 C372 861 334 867 321 867 C268 867 226 829 198 755 L235 743 C258 775 263 779 283 779 C295 779 295 779 329 769 L405 748 C423 742 445 739 459 739 C507 739 555 784 580 854 L543 867 Z M382 180 L449 30 L372 30 L372 0 L770 0 L770 30 L707 30 L421 667 L337 667 L90 93 C69 45 51 31 5 30 L-22 30 L-22 0 L191 0 L191 30 L162 30 C129 30 115 36 115 52 C115 57 117 63 120 71 L166 180 L382 180 Z M178 210 L272 428 L370 210 L178 210 Z " />
<glyph glyph-name="Adieresis" unicode="&#xc4;" horiz-adv-x="756" d="M240 891 C195 891 159 855 159 810 C159 764 195 728 241 728 C285 728 322 764 322 809 C322 855 286 891 240 891 L240 891 Z M515 891 C470 891 434 855 434 810 C434 764 470 728 516 728 C560 728 597 764 597 809 C597 855 561 891 515 891 L515 891 Z M382 180 L449 30 L372 30 L372 0 L770 0 L770 30 L707 30 L421 667 L337 667 L90 93 C69 45 51 31 5 30 L-22 30 L-22 0 L191 0 L191 30 L162 30 C129 30 115 36 115 52 C115 57 117 63 120 71 L166 180 L382 180 Z M178 210 L272 428 L370 210 L178 210 Z " />
<glyph glyph-name="Aring" unicode="&#xc5;" horiz-adv-x="756" d="M374 903 C308 903 254 861 254 810 C254 759 308 717 375 717 C440 717 495 759 495 809 C495 862 442 903 374 903 L374 903 Z M375 850 C399 850 418 832 418 810 C418 788 398 770 375 770 C350 770 331 788 331 810 C331 832 350 850 375 850 L375 850 Z M382 180 L449 30 L372 30 L372 0 L770 0 L770 30 L707 30 L421 667 L337 667 L90 93 C69 45 51 31 5 30 L-22 30 L-22 0 L191 0 L191 30 L162 30 C129 30 115 36 115 52 C115 57 117 63 120 71 L166 180 L382 180 Z M178 210 L272 428 L370 210 L178 210 Z " />
<glyph glyph-name="AE" unicode="&#xc6;" horiz-adv-x="1111" d="M461 177 L461 30 L374 30 L374 0 L1071 0 L1071 222 L1034 222 C1008 84 934 26 791 30 L681 30 L681 319 L720 319 C813 319 851 286 859 197 L900 197 L900 469 L859 469 C859 387 817 350 723 349 L681 349 L681 637 L758 637 C901 640 981 594 1008 494 L1045 494 L1045 667 L356 667 L356 637 L438 637 L93 79 C72 46 46 31 4 30 L-22 30 L-22 0 L192 0 L192 30 L152 30 C129 30 118 35 118 45 C118 52 119 54 134 78 L196 177 L461 177 Z M215 207 L461 607 L461 207 L215 207 Z " />
<glyph glyph-name="Ccedilla" unicode="&#xc7;" horiz-adv-x="778" d="M448 -17 C540 -14 582 0 662 54 L686 0 L725 0 L743 212 L705 212 C689 164 675 139 642 102 C590 43 533 17 459 17 C393 17 343 41 312 87 C284 127 274 173 274 252 L274 412 C274 489 287 542 316 583 C347 627 396 651 455 651 C529 651 597 616 637 557 C652 533 662 513 675 473 L714 473 L711 667 L672 667 L640 619 C579 667 525 684 436 684 C203 684 37 535 37 326 C37 134 185 -3 409 -16 L380 -93 C428 -99 443 -110 443 -137 C443 -167 420 -186 384 -186 C363 -186 342 -179 342 -172 C342 -170 343 -168 345 -165 C350 -158 353 -149 353 -141 C353 -123 339 -109 319 -109 C298 -109 280 -127 280 -148 C280 -190 329 -219 400 -219 C484 -219 543 -180 543 -123 C543 -83 511 -57 464 -57 C456 -57 445 -57 434 -58 L448 -17 Z " />
<glyph glyph-name="Egrave" unicode="&#xc8;" horiz-adv-x="760" d="M473 733 L499 753 L391 873 L269 873 C244 873 232 867 232 853 C232 842 240 835 260 826 L473 733 Z M110 30 L37 30 L37 0 L717 0 L717 222 L683 222 C657 83 584 26 440 30 L330 30 L330 319 L369 319 C463 320 501 286 509 197 L542 197 L542 469 L509 469 C509 387 466 350 372 349 L330 349 L330 637 L407 637 C550 640 630 595 658 494 L691 494 L691 667 L37 667 L37 637 L110 637 L110 30 Z " />
<glyph glyph-name="Eacute" unicode="&#xc9;" horiz-adv-x="760" d="M361 733 L575 826 C594 835 602 842 602 853 C602 867 590 873 565 873 L443 873 L336 753 L361 733 Z M110 30 L37 30 L37 0 L717 0 L717 222 L683 222 C657 83 584 26 440 30 L330 30 L330 319 L369 319 C463 320 501 286 509 197 L542 197 L542 469 L509 469 C509 387 466 350 372 349 L330 349 L330 637 L407 637 C550 640 630 595 658 494 L691 494 L691 667 L37 667 L37 637 L110 637 L110 30 Z " />
<glyph glyph-name="Ecircumflex" unicode="&#xca;" horiz-adv-x="760" d="M400 791 L567 733 L589 761 L466 873 L333 873 L211 761 L233 733 L400 791 Z M110 30 L37 30 L37 0 L717 0 L717 222 L683 222 C657 83 584 26 440 30 L330 30 L330 319 L369 319 C463 320 501 286 509 197 L542 197 L542 469 L509 469 C509 387 466 350 372 349 L330 349 L330 637 L407 637 C550 640 630 595 658 494 L691 494 L691 667 L37 667 L37 637 L110 637 L110 30 Z " />
<glyph glyph-name="Edieresis" unicode="&#xcb;" horiz-adv-x="760" d="M261 891 C216 891 180 855 180 810 C180 764 216 728 262 728 C306 728 343 764 343 809 C343 855 307 891 261 891 L261 891 Z M537 891 C492 891 456 855 456 810 C456 764 492 728 538 728 C582 728 619 764 619 809 C619 855 583 891 537 891 L537 891 Z M110 30 L37 30 L37 0 L717 0 L717 222 L683 222 C657 83 584 26 440 30 L330 30 L330 319 L369 319 C463 320 501 286 509 197 L542 197 L542 469 L509 469 C509 387 466 350 372 349 L330 349 L330 637 L407 637 C550 640 630 595 658 494 L691 494 L691 667 L37 667 L37 637 L110 637 L110 30 Z " />
<glyph glyph-name="Igrave" unicode="&#xcc;" horiz-adv-x="440" d="M110 30 L37 30 L37 0 L403 0 L403 30 L330 30 L330 637 L403 637 L403 667 L37 667 L37 637 L110 637 L110 30 Z M306 733 L332 753 L224 873 L102 873 C77 873 65 867 65 853 C65 842 73 835 93 826 L306 733 Z " />
<glyph glyph-name="Iacute" unicode="&#xcd;" horiz-adv-x="440" d="M110 30 L37 30 L37 0 L403 0 L403 30 L330 30 L330 637 L403 637 L403 667 L37 667 L37 637 L110 637 L110 30 Z M168 733 L382 826 C401 835 409 842 409 853 C409 867 397 873 372 873 L250 873 L143 753 L168 733 Z " />
<glyph glyph-name="Icircumflex" unicode="&#xce;" horiz-adv-x="440" d="M110 30 L37 30 L37 0 L403 0 L403 30 L330 30 L330 637 L403 637 L403 667 L37 667 L37 637 L110 637 L110 30 Z M220 791 L387 733 L409 761 L287 873 L153 873 L31 761 L53 733 L220 791 Z " />
<glyph glyph-name="Idieresis" unicode="&#xcf;" horiz-adv-x="440" d="M110 30 L37 30 L37 0 L403 0 L403 30 L330 30 L330 637 L403 637 L403 667 L37 667 L37 637 L110 637 L110 30 Z M112 891 C67 891 31 855 31 810 C31 764 67 728 113 728 C157 728 194 764 194 809 C194 855 158 891 112 891 L112 891 Z M328 891 C283 891 247 855 247 810 C247 764 283 728 329 728 C373 728 410 764 410 809 C410 855 374 891 328 891 L328 891 Z " />
<glyph glyph-name="Eth" unicode="&#xd0;" horiz-adv-x="867" d="M113 358 L37 358 L37 328 L113 328 L113 30 L37 30 L37 0 L371 0 C542 0 641 26 723 93 C794 150 832 234 832 331 C832 475 761 583 633 636 C576 659 509 667 368 667 L37 667 L37 637 L113 637 L113 358 Z M333 358 L333 637 L368 637 C514 641 558 589 560 414 L559 287 C562 88 519 29 371 30 L333 30 L333 328 L477 328 L477 358 L333 358 Z " />
<glyph glyph-name="Ntilde" unicode="&#xd1;" horiz-adv-x="770" d="M559 867 C537 838 525 830 502 830 C493 830 487 831 471 836 L403 857 C389 861 351 867 338 867 C285 867 243 829 214 755 L252 743 C275 775 280 779 300 779 C311 779 311 779 345 769 L421 748 C439 742 461 739 476 739 C524 739 571 784 597 854 L559 867 Z M552 0 L669 0 L669 542 C666 619 680 636 744 637 L761 637 L761 667 L541 667 L541 637 L558 637 C625 636 639 619 636 542 L636 296 L378 667 L13 667 L13 637 L59 637 C102 636 110 627 108 578 L108 125 C111 48 97 31 30 30 L13 30 L13 0 L233 0 L233 30 L217 30 C152 31 138 48 141 125 L141 597 L552 0 Z " />
<glyph glyph-name="Ograve" unicode="&#xd2;" horiz-adv-x="863" d="M513 733 L538 753 L431 873 L309 873 C284 873 272 867 272 853 C272 842 280 835 299 826 L513 733 Z M431 684 C318 684 212 643 135 569 C70 506 37 427 37 334 C37 240 69 163 135 98 C210 25 317 -17 432 -17 C655 -17 827 134 827 329 C827 428 796 505 729 569 C651 644 548 684 431 684 L431 684 Z M274 441 C274 514 286 564 311 597 C335 630 383 651 432 651 C481 651 529 629 553 597 C578 564 590 514 590 441 L590 226 C590 153 578 103 553 70 C529 38 481 16 432 16 C383 16 335 37 311 70 C286 103 274 154 274 226 L274 441 Z " />
<glyph glyph-name="Oacute" unicode="&#xd3;" horiz-adv-x="863" d="M394 733 L607 826 C627 835 635 842 635 853 C635 867 623 873 598 873 L476 873 L369 753 L394 733 Z M431 684 C318 684 212 643 135 569 C70 506 37 427 37 334 C37 240 69 163 135 98 C210 25 317 -17 432 -17 C655 -17 827 134 827 329 C827 428 796 505 729 569 C651 644 548 684 431 684 L431 684 Z M274 441 C274 514 286 564 311 597 C335 630 383 651 432 651 C481 651 529 629 553 597 C578 564 590 514 590 441 L590 226 C590 153 578 103 553 70 C529 38 481 16 432 16 C383 16 335 37 311 70 C286 103 274 154 274 226 L274 441 Z " />
<glyph glyph-name="Ocircumflex" unicode="&#xd4;" horiz-adv-x="863" d="M436 791 L603 733 L625 761 L502 873 L369 873 L246 761 L269 733 L436 791 Z M431 684 C318 684 212 643 135 569 C70 506 37 427 37 334 C37 240 69 163 135 98 C210 25 317 -17 432 -17 C655 -17 827 134 827 329 C827 428 796 505 729 569 C651 644 548 684 431 684 L431 684 Z M274 441 C274 514 286 564 311 597 C335 630 383 651 432 651 C481 651 529 629 553 597 C578 564 590 514 590 441 L590 226 C590 153 578 103 553 70 C529 38 481 16 432 16 C383 16 335 37 311 70 C286 103 274 154 274 226 L274 441 Z " />
<glyph glyph-name="Otilde" unicode="&#xd5;" horiz-adv-x="863" d="M597 867 C575 838 563 830 540 830 C531 830 525 831 509 836 L441 857 C427 861 389 867 376 867 C323 867 281 829 252 755 L290 743 C313 775 318 779 338 779 C349 779 349 779 383 769 L459 748 C477 742 499 739 514 739 C562 739 609 784 635 854 L597 867 Z M431 684 C318 684 212 643 135 569 C70 506 37 427 37 334 C37 240 69 163 135 98 C210 25 317 -17 432 -17 C655 -17 827 134 827 329 C827 428 796 505 729 569 C651 644 548 684 431 684 L431 684 Z M274 441 C274 514 286 564 311 597 C335 630 383 651 432 651 C481 651 529 629 553 597 C578 564 590 514 590 441 L590 226 C590 153 578 103 553 70 C529 38 481 16 432 16 C383 16 335 37 311 70 C286 103 274 154 274 226 L274 441 Z " />
<glyph glyph-name="Odieresis" unicode="&#xd6;" horiz-adv-x="863" d="M293 891 C248 891 212 855 212 810 C212 764 248 728 294 728 C338 728 375 764 375 809 C375 855 339 891 293 891 L293 891 Z M568 891 C523 891 487 855 487 810 C487 764 523 728 569 728 C613 728 650 764 650 809 C650 855 614 891 568 891 L568 891 Z M431 684 C318 684 212 643 135 569 C70 506 37 427 37 334 C37 240 69 163 135 98 C210 25 317 -17 432 -17 C655 -17 827 134 827 329 C827 428 796 505 729 569 C651 644 548 684 431 684 L431 684 Z M274 441 C274 514 286 564 311 597 C335 630 383 651 432 651 C481 651 529 629 553 597 C578 564 590 514 590 441 L590 226 C590 153 578 103 553 70 C529 38 481 16 432 16 C383 16 335 37 311 70 C286 103 274 154 274 226 L274 441 Z " />
<glyph glyph-name="multiply" unicode="&#xd7;" horiz-adv-x="653" d="M326 362 L142 529 L111 501 L295 333 L111 166 L142 138 L326 305 L510 138 L541 166 L357 333 L541 501 L510 529 L326 362 Z " />
<glyph glyph-name="Oslash" unicode="&#xd8;" horiz-adv-x="863" d="M137 -14 L167 -32 L219 36 C280 2 356 -17 433 -17 C548 -17 654 25 729 98 C795 163 827 240 827 333 C827 451 771 552 669 617 L721 684 L690 700 L639 634 C575 667 506 684 432 684 C317 684 210 643 135 569 C69 504 37 427 37 334 C37 218 90 120 190 54 L137 -14 Z M277 167 C275 190 274 209 274 226 L274 441 C274 514 286 564 311 597 C335 629 383 651 432 651 C502 651 555 615 576 553 L277 167 Z M586 509 C589 484 590 462 590 441 L590 226 C590 153 578 103 553 70 C529 38 481 16 432 16 C359 16 305 55 286 122 L586 509 Z " />
<glyph glyph-name="Ugrave" unicode="&#xd9;" horiz-adv-x="789" d="M503 733 L528 753 L421 873 L299 873 C274 873 262 867 262 853 C262 842 270 835 289 826 L503 733 Z M319 637 L426 637 L426 667 L26 667 L26 637 L99 637 L99 219 C99 128 115 81 158 45 C210 2 283 -17 399 -17 C514 -17 586 1 635 42 C678 78 694 124 694 208 L694 542 C691 619 705 636 769 637 L786 637 L786 667 L566 667 L566 637 L583 637 C650 636 664 619 661 542 L661 209 C661 150 654 120 632 91 C604 51 551 28 488 28 C427 28 373 51 347 89 C328 117 319 159 319 219 L319 637 Z " />
<glyph glyph-name="Uacute" unicode="&#xda;" horiz-adv-x="789" d="M400 733 L614 826 C633 835 641 842 641 853 C641 867 629 873 604 873 L482 873 L375 753 L400 733 Z M319 637 L426 637 L426 667 L26 667 L26 637 L99 637 L99 219 C99 128 115 81 158 45 C210 2 283 -17 399 -17 C514 -17 586 1 635 42 C678 78 694 124 694 208 L694 542 C691 619 705 636 769 637 L786 637 L786 667 L566 667 L566 637 L583 637 C650 636 664 619 661 542 L661 209 C661 150 654 120 632 91 C604 51 551 28 488 28 C427 28 373 51 347 89 C328 117 319 159 319 219 L319 637 Z " />
<glyph glyph-name="Ucircumflex" unicode="&#xdb;" horiz-adv-x="789" d="M436 791 L603 733 L625 761 L503 873 L370 873 L247 761 L269 733 L436 791 Z M319 637 L426 637 L426 667 L26 667 L26 637 L99 637 L99 219 C99 128 115 81 158 45 C210 2 283 -17 399 -17 C514 -17 586 1 635 42 C678 78 694 124 694 208 L694 542 C691 619 705 636 769 637 L786 637 L786 667 L566 667 L566 637 L583 637 C650 636 664 619 661 542 L661 209 C661 150 654 120 632 91 C604 51 551 28 488 28 C427 28 373 51 347 89 C328 117 319 159 319 219 L319 637 Z " />
<glyph glyph-name="Udieresis" unicode="&#xdc;" horiz-adv-x="789" d="M296 891 C251 891 215 855 215 810 C215 764 251 728 297 728 C341 728 378 764 378 809 C378 855 342 891 296 891 L296 891 Z M572 891 C527 891 491 855 491 810 C491 764 527 728 573 728 C617 728 654 764 654 809 C654 855 618 891 572 891 L572 891 Z M319 637 L426 637 L426 667 L26 667 L26 637 L99 637 L99 219 C99 128 115 81 158 45 C210 2 283 -17 399 -17 C514 -17 586 1 635 42 C678 78 694 124 694 208 L694 542 C691 619 705 636 769 637 L786 637 L786 667 L566 667 L566 637 L583 637 C650 636 664 619 661 542 L661 209 C661 150 654 120 632 91 C604 51 551 28 488 28 C427 28 373 51 347 89 C328 117 319 159 319 219 L319 637 Z " />
<glyph glyph-name="Yacute" unicode="&#xdd;" horiz-adv-x="736" d="M367 733 L581 826 C600 835 608 842 608 853 C608 867 596 873 571 873 L449 873 L342 753 L367 733 Z M493 296 L644 585 C664 625 682 637 717 637 L754 637 L754 667 L540 667 L540 637 L564 637 C600 637 613 631 613 615 C613 608 610 600 602 584 L475 337 L315 637 L380 637 L380 667 L-38 667 L-38 637 L29 637 L273 250 L273 30 L147 30 L147 0 L597 0 L597 30 L493 30 L493 296 Z " />
<glyph glyph-name="Thorn" unicode="&#xde;" horiz-adv-x="795" d="M330 198 L472 198 C562 198 635 209 674 227 C734 255 768 309 768 375 C768 445 731 505 670 532 C619 554 577 560 463 560 L330 560 L330 637 L437 637 L437 667 L37 667 L37 637 L110 637 L110 30 L37 30 L37 0 L437 0 L437 30 L330 30 L330 198 Z M330 228 L330 530 L396 530 C507 530 536 498 536 379 C536 260 507 228 396 228 L330 228 Z " />
<glyph glyph-name="germandbls" unicode="&#xdf;" horiz-adv-x="736" d="M336 236 L392 236 C477 236 505 207 505 118 C505 55 484 23 442 23 C422 23 406 32 406 44 C406 47 409 51 413 55 C443 77 446 81 446 100 C446 127 423 146 389 146 C352 146 328 122 328 84 C328 23 388 -14 490 -14 C613 -14 704 47 704 129 C704 167 686 198 653 220 C632 234 610 241 562 252 C608 261 625 266 645 277 C670 292 686 318 686 344 C686 404 619 435 491 435 C394 435 325 415 274 371 L274 451 C274 534 287 579 319 610 C347 637 384 651 428 651 C448 651 457 648 457 640 C457 637 454 633 449 630 C401 599 395 592 395 561 C395 513 437 478 496 478 C560 478 602 516 602 573 C602 647 535 684 400 684 C296 684 221 661 163 613 C101 561 77 499 77 391 L77 30 L11 30 L11 0 L334 0 L334 30 L274 30 L274 266 C274 322 284 344 318 366 C346 383 384 394 418 394 C462 394 489 370 489 331 C489 290 455 266 396 266 L336 266 L336 236 Z " />
<glyph glyph-name="agrave" unicode="&#xe0;" horiz-adv-x="623" d="M399 500 L424 511 L334 653 L217 653 C196 653 186 646 186 633 C186 622 194 613 209 604 L399 500 Z M351 240 C267 236 207 226 143 207 C66 183 29 147 29 93 C29 31 84 -13 160 -13 C236 -13 291 6 359 56 C385 7 422 -13 489 -13 C549 -13 595 10 628 56 L600 74 C583 54 575 49 566 49 C554 49 548 57 548 74 L548 322 C548 410 499 433 315 433 C239 433 198 428 156 413 C92 391 57 355 57 312 C57 268 98 240 162 240 C227 240 276 270 276 311 C276 330 263 347 238 358 C223 365 220 368 220 373 C220 385 247 396 278 396 C324 396 351 375 351 339 L351 240 Z M351 118 C351 83 330 63 292 63 C252 63 227 86 227 122 C227 171 268 205 326 205 C333 205 339 205 351 203 L351 118 Z " />
<glyph glyph-name="aacute" unicode="&#xe1;" horiz-adv-x="623" d="M298 500 L488 604 C503 613 511 622 511 633 C511 646 501 653 480 653 L364 653 L274 511 L298 500 Z M351 240 C267 236 207 226 143 207 C66 183 29 147 29 93 C29 31 84 -13 160 -13 C236 -13 291 6 359 56 C385 7 422 -13 489 -13 C549 -13 595 10 628 56 L600 74 C583 54 575 49 566 49 C554 49 548 57 548 74 L548 322 C548 410 499 433 315 433 C239 433 198 428 156 413 C92 391 57 355 57 312 C57 268 98 240 162 240 C227 240 276 270 276 311 C276 330 263 347 238 358 C223 365 220 368 220 373 C220 385 247 396 278 396 C324 396 351 375 351 339 L351 240 Z M351 118 C351 83 330 63 292 63 C252 63 227 86 227 122 C227 171 268 205 326 205 C333 205 339 205 351 203 L351 118 Z " />
<glyph glyph-name="acircumflex" unicode="&#xe2;" horiz-adv-x="623" d="M467 500 L491 520 L382 653 L274 653 L165 520 L189 500 L328 567 L467 500 Z M351 240 C267 236 207 226 143 207 C66 183 29 147 29 93 C29 31 84 -13 160 -13 C236 -13 291 6 359 56 C385 7 422 -13 489 -13 C549 -13 595 10 628 56 L600 74 C583 54 575 49 566 49 C554 49 548 57 548 74 L548 322 C548 410 499 433 315 433 C239 433 198 428 156 413 C92 391 57 355 57 312 C57 268 98 240 162 240 C227 240 276 270 276 311 C276 330 263 347 238 358 C223 365 220 368 220 373 C220 385 247 396 278 396 C324 396 351 375 351 339 L351 240 Z M351 118 C351 83 330 63 292 63 C252 63 227 86 227 122 C227 171 268 205 326 205 C333 205 339 205 351 203 L351 118 Z " />
<glyph glyph-name="atilde" unicode="&#xe3;" horiz-adv-x="623" d="M467 643 C447 608 440 603 417 603 C409 603 405 604 385 611 L326 631 C313 636 289 640 277 640 C249 640 220 627 200 605 C184 590 174 572 158 535 L189 518 C202 545 215 555 233 555 C241 555 249 553 277 545 L342 525 C358 521 373 518 385 518 C434 518 474 557 498 629 L467 643 Z M351 240 C267 236 207 226 143 207 C66 183 29 147 29 93 C29 31 84 -13 160 -13 C236 -13 291 6 359 56 C385 7 422 -13 489 -13 C549 -13 595 10 628 56 L600 74 C583 54 575 49 566 49 C554 49 548 57 548 74 L548 322 C548 410 499 433 315 433 C239 433 198 428 156 413 C92 391 57 355 57 312 C57 268 98 240 162 240 C227 240 276 270 276 311 C276 330 263 347 238 358 C223 365 220 368 220 373 C220 385 247 396 278 396 C324 396 351 375 351 339 L351 240 Z M351 118 C351 83 330 63 292 63 C252 63 227 86 227 122 C227 171 268 205 326 205 C333 205 339 205 351 203 L351 118 Z " />
<glyph glyph-name="adieresis" unicode="&#xe4;" horiz-adv-x="623" d="M203 655 C160 655 125 619 125 575 C125 531 160 496 203 496 C248 496 284 532 284 575 C284 620 249 655 203 655 L203 655 Z M449 655 C406 655 371 619 371 575 C371 531 406 496 449 496 C494 496 530 532 530 575 C530 620 495 655 449 655 L449 655 Z M351 240 C267 236 207 226 143 207 C66 183 29 147 29 93 C29 31 84 -13 160 -13 C236 -13 291 6 359 56 C385 7 422 -13 489 -13 C549 -13 595 10 628 56 L600 74 C583 54 575 49 566 49 C554 49 548 57 548 74 L548 322 C548 410 499 433 315 433 C239 433 198 428 156 413 C92 391 57 355 57 312 C57 268 98 240 162 240 C227 240 276 270 276 311 C276 330 263 347 238 358 C223 365 220 368 220 373 C220 385 247 396 278 396 C324 396 351 375 351 339 L351 240 Z M351 118 C351 83 330 63 292 63 C252 63 227 86 227 122 C227 171 268 205 326 205 C333 205 339 205 351 203 L351 118 Z " />
<glyph glyph-name="aring" unicode="&#xe5;" horiz-adv-x="623" d="M324 679 C259 679 207 636 207 584 C207 532 259 489 324 489 C388 489 441 532 441 583 C441 637 390 679 324 679 L324 679 Z M324 626 C349 626 368 607 368 583 C368 561 348 542 324 542 C300 542 280 561 280 584 C280 607 300 626 324 626 L324 626 Z M351 240 C267 236 207 226 143 207 C66 183 29 147 29 93 C29 31 84 -13 160 -13 C236 -13 291 6 359 56 C385 7 422 -13 489 -13 C549 -13 595 10 628 56 L600 74 C583 54 575 49 566 49 C554 49 548 57 548 74 L548 322 C548 410 499 433 315 433 C239 433 198 428 156 413 C92 391 57 355 57 312 C57 268 98 240 162 240 C227 240 276 270 276 311 C276 330 263 347 238 358 C223 365 220 368 220 373 C220 385 247 396 278 396 C324 396 351 375 351 339 L351 240 Z M351 118 C351 83 330 63 292 63 C252 63 227 86 227 122 C227 171 268 205 326 205 C333 205 339 205 351 203 L351 118 Z " />
<glyph glyph-name="ae" unicode="&#xe6;" horiz-adv-x="914" d="M349 240 C267 235 208 226 145 207 C69 183 33 147 33 93 C33 31 86 -13 162 -13 C249 -13 325 17 381 74 C409 42 420 34 445 21 C489 -2 555 -14 629 -14 C760 -14 844 37 889 141 L861 152 C819 68 748 20 666 20 C578 20 548 66 548 198 L548 232 L889 232 C883 362 790 433 626 433 C576 433 539 428 490 416 C454 428 410 433 318 433 C243 433 202 428 160 413 C96 391 61 355 61 312 C61 267 101 239 164 239 C228 239 275 269 275 311 C275 330 263 346 240 358 C226 365 223 367 223 373 C223 385 249 396 279 396 C323 396 349 375 349 339 L349 240 Z M349 118 C349 83 329 63 292 63 C255 63 231 86 231 121 C231 171 269 205 325 205 C333 205 338 204 349 203 L349 118 Z M548 262 C548 302 549 321 551 337 C558 381 574 400 607 400 C646 400 661 374 661 308 C661 265 659 262 631 262 L548 262 Z " />
<glyph glyph-name="ccedilla" unicode="&#xe7;" horiz-adv-x="582" d="M338 -13 C445 -8 512 26 571 108 L545 124 C484 52 426 20 354 20 C317 20 284 34 265 57 C248 77 242 104 242 155 L242 292 C242 342 249 365 269 381 C284 393 307 400 332 400 C364 400 395 387 395 373 C395 367 390 362 378 355 C335 332 325 321 325 299 C325 257 375 223 438 223 C504 223 545 257 545 310 C545 383 456 433 326 433 C146 433 29 344 29 207 C29 77 133 -6 303 -13 L274 -84 C317 -90 329 -99 329 -125 C329 -151 311 -167 281 -167 C263 -167 243 -160 243 -154 C243 -153 244 -151 245 -148 C250 -141 252 -133 252 -126 C252 -108 239 -96 220 -96 C199 -96 183 -113 183 -135 C183 -173 228 -200 292 -200 C369 -200 423 -164 423 -112 C423 -73 395 -51 344 -51 C339 -51 331 -51 321 -52 L338 -13 Z " />
<glyph glyph-name="egrave" unicode="&#xe8;" horiz-adv-x="620" d="M389 500 L414 511 L324 653 L207 653 C187 653 177 646 177 633 C177 622 185 612 199 604 L389 500 Z M594 232 C592 278 584 304 565 334 C520 401 445 433 333 433 C150 433 29 344 29 211 C29 130 73 57 145 21 C190 -2 254 -14 329 -14 C464 -14 549 36 594 141 L567 152 C524 69 450 20 367 20 C326 20 296 36 282 66 C268 99 265 126 264 232 L594 232 Z M263 262 C264 302 264 321 267 337 C273 381 289 400 320 400 C358 400 373 374 373 307 C373 265 371 262 344 262 L263 262 Z " />
<glyph glyph-name="eacute" unicode="&#xe9;" horiz-adv-x="620" d="M297 500 L486 604 C501 612 509 622 509 633 C509 646 499 653 478 653 L362 653 L272 511 L297 500 Z M594 232 C592 278 584 304 565 334 C520 401 445 433 333 433 C150 433 29 344 29 211 C29 130 73 57 145 21 C190 -2 254 -14 329 -14 C464 -14 549 36 594 141 L567 152 C524 69 450 20 367 20 C326 20 296 36 282 66 C268 99 265 126 264 232 L594 232 Z M263 262 C264 302 264 321 267 337 C273 381 289 400 320 400 C358 400 373 374 373 307 C373 265 371 262 344 262 L263 262 Z " />
<glyph glyph-name="ecircumflex" unicode="&#xea;" horiz-adv-x="620" d="M469 500 L493 520 L384 653 L277 653 L168 520 L191 500 L330 567 L469 500 Z M594 232 C592 278 584 304 565 334 C520 401 445 433 333 433 C150 433 29 344 29 211 C29 130 73 57 145 21 C190 -2 254 -14 329 -14 C464 -14 549 36 594 141 L567 152 C524 69 450 20 367 20 C326 20 296 36 282 66 C268 99 265 126 264 232 L594 232 Z M263 262 C264 302 264 321 267 337 C273 381 289 400 320 400 C358 400 373 374 373 307 C373 265 371 262 344 262 L263 262 Z " />
<glyph glyph-name="edieresis" unicode="&#xeb;" horiz-adv-x="620" d="M203 655 C160 655 125 619 125 575 C125 531 160 496 203 496 C248 496 284 532 284 575 C284 620 249 655 203 655 L203 655 Z M449 655 C406 655 371 619 371 575 C371 531 406 496 449 496 C494 496 530 532 530 575 C530 620 495 655 449 655 L449 655 Z M594 232 C592 278 584 304 565 334 C520 401 445 433 333 433 C150 433 29 344 29 211 C29 130 73 57 145 21 C190 -2 254 -14 329 -14 C464 -14 549 36 594 141 L567 152 C524 69 450 20 367 20 C326 20 296 36 282 66 C268 99 265 126 264 232 L594 232 Z M263 262 C264 302 264 321 267 337 C273 381 289 400 320 400 C358 400 373 374 373 307 C373 265 371 262 344 262 L263 262 Z " />
<glyph glyph-name="igrave" unicode="&#xec;" horiz-adv-x="353" d="M83 30 L17 30 L17 0 L346 0 L346 30 L280 30 L280 433 C211 422 178 420 75 420 L17 420 L17 390 L83 390 L83 30 Z M264 500 L289 511 L199 653 L83 653 C62 653 52 646 52 633 C52 622 60 612 75 604 L264 500 Z " />
<glyph glyph-name="iacute" unicode="&#xed;" horiz-adv-x="353" d="M83 30 L17 30 L17 0 L346 0 L346 30 L280 30 L280 433 C211 422 178 420 75 420 L17 420 L17 390 L83 390 L83 30 Z M153 500 L342 604 C357 612 365 622 365 633 C365 646 355 653 334 653 L218 653 L128 511 L153 500 Z " />
<glyph glyph-name="icircumflex" unicode="&#xee;" horiz-adv-x="353" d="M83 30 L17 30 L17 0 L346 0 L346 30 L280 30 L280 433 C211 422 178 420 75 420 L17 420 L17 390 L83 390 L83 30 Z M318 500 L342 520 L232 653 L125 653 L16 520 L40 500 L179 567 L318 500 Z " />
<glyph glyph-name="idieresis" unicode="&#xef;" horiz-adv-x="353" d="M82 30 L16 30 L16 0 L345 0 L345 30 L279 30 L279 433 C210 422 177 420 74 420 L16 420 L16 390 L82 390 L82 30 Z M69 655 C26 655 -9 619 -9 575 C-9 531 26 496 69 496 C114 496 150 532 150 575 C150 620 115 655 69 655 L69 655 Z M280 655 C237 655 202 619 202 575 C202 531 237 496 280 496 C325 496 361 532 361 575 C361 620 326 655 280 655 L280 655 Z " />
<glyph glyph-name="eth" unicode="&#xf0;" horiz-adv-x="668" d="M214 520 L232 496 L360 551 C394 514 421 457 431 402 C393 427 375 432 330 432 C262 432 193 415 141 386 C67 344 29 284 29 209 C29 151 53 100 100 58 C151 12 234 -13 332 -13 C517 -13 638 73 638 205 C638 328 564 473 442 588 L534 639 L515 663 L419 610 C352 647 312 667 262 684 L232 652 C257 640 305 607 342 576 L214 520 Z M242 277 C242 324 247 352 259 370 C271 388 300 400 334 400 C367 400 396 388 408 370 C420 353 425 323 425 277 L425 143 C425 97 420 67 408 50 C396 32 367 20 334 20 C300 20 271 32 259 50 C247 68 242 96 242 143 L242 277 Z " />
<glyph glyph-name="ntilde" unicode="&#xf1;" horiz-adv-x="692" d="M486 643 C466 608 459 603 437 603 C428 603 424 604 404 611 L345 631 C332 636 308 640 296 640 C269 640 239 627 219 605 C204 590 193 572 177 535 L208 518 C221 545 234 555 252 555 C260 555 268 553 296 545 L361 525 C377 521 392 518 404 518 C453 518 493 557 517 629 L486 643 Z M83 30 L17 30 L17 0 L339 0 L339 30 L280 30 L280 235 C280 301 317 353 366 353 C393 353 404 340 404 307 L404 30 L364 30 L364 0 L667 0 L667 30 L601 30 L601 304 C601 391 556 434 464 434 C422 434 381 423 348 404 C322 389 307 374 280 337 L280 433 C215 422 179 420 77 420 L17 420 L17 390 L83 390 L83 30 Z " />
<glyph glyph-name="ograve" unicode="&#xf2;" horiz-adv-x="668" d="M387 500 L411 511 L321 653 L205 653 C184 653 174 646 174 633 C174 622 182 613 197 604 L387 500 Z M333 433 C151 433 29 343 29 210 C29 76 151 -13 334 -13 C515 -13 639 76 639 207 C639 344 519 433 333 433 L333 433 Z M242 277 C242 324 247 352 259 370 C272 388 300 400 335 400 C368 400 397 388 409 370 C421 353 426 323 426 277 L426 143 C426 97 421 67 409 50 C397 32 367 20 334 20 C301 20 272 32 259 50 C247 68 242 96 242 143 L242 277 Z " />
<glyph glyph-name="oacute" unicode="&#xf3;" horiz-adv-x="668" d="M309 500 L499 604 C514 613 522 622 522 633 C522 646 512 653 491 653 L375 653 L285 511 L309 500 Z M333 433 C151 433 29 343 29 210 C29 76 151 -13 334 -13 C515 -13 639 76 639 207 C639 344 519 433 333 433 L333 433 Z M242 277 C242 324 247 352 259 370 C272 388 300 400 335 400 C368 400 397 388 409 370 C421 353 426 323 426 277 L426 143 C426 97 421 67 409 50 C397 32 367 20 334 20 C301 20 272 32 259 50 C247 68 242 96 242 143 L242 277 Z " />
<glyph glyph-name="ocircumflex" unicode="&#xf4;" horiz-adv-x="668" d="M478 500 L502 520 L393 653 L286 653 L177 520 L201 500 L340 567 L478 500 Z M333 433 C151 433 29 343 29 210 C29 76 151 -13 334 -13 C515 -13 639 76 639 207 C639 344 519 433 333 433 L333 433 Z M242 277 C242 324 247 352 259 370 C272 388 300 400 335 400 C368 400 397 388 409 370 C421 353 426 323 426 277 L426 143 C426 97 421 67 409 50 C397 32 367 20 334 20 C301 20 272 32 259 50 C247 68 242 96 242 143 L242 277 Z " />
<glyph glyph-name="otilde" unicode="&#xf5;" horiz-adv-x="668" d="M488 643 C467 608 461 603 438 603 C430 603 426 604 406 611 L347 631 C333 636 310 640 298 640 C270 640 241 627 220 605 C205 590 194 572 178 535 L210 518 C223 545 235 555 254 555 C262 555 270 553 297 545 L363 525 C379 521 393 518 405 518 C455 518 495 557 519 629 L488 643 Z M333 433 C151 433 29 343 29 210 C29 76 151 -13 334 -13 C515 -13 639 76 639 207 C639 344 519 433 333 433 L333 433 Z M242 277 C242 324 247 352 259 370 C272 388 300 400 335 400 C368 400 397 388 409 370 C421 353 426 323 426 277 L426 143 C426 97 421 67 409 50 C397 32 367 20 334 20 C301 20 272 32 259 50 C247 68 242 96 242 143 L242 277 Z " />
<glyph glyph-name="odieresis" unicode="&#xf6;" horiz-adv-x="668" d="M208 655 C165 655 130 619 130 575 C130 531 165 496 208 496 C253 496 289 532 289 575 C289 620 254 655 208 655 L208 655 Z M454 655 C411 655 376 619 376 575 C376 531 411 496 454 496 C499 496 535 532 535 575 C535 620 500 655 454 655 L454 655 Z M333 433 C151 433 29 343 29 210 C29 76 151 -13 334 -13 C515 -13 639 76 639 207 C639 344 519 433 333 433 L333 433 Z M242 277 C242 324 247 352 259 370 C272 388 300 400 335 400 C368 400 397 388 409 370 C421 353 426 323 426 277 L426 143 C426 97 421 67 409 50 C397 32 367 20 334 20 C301 20 272 32 259 50 C247 68 242 96 242 143 L242 277 Z " />
<glyph glyph-name="divide" unicode="&#xf7;" horiz-adv-x="653" d="M594 353 L59 353 L59 313 L594 313 L594 353 Z M327 589 C281 589 243 555 243 514 C243 471 280 438 327 438 C373 438 410 472 410 513 C410 555 373 589 327 589 L327 589 Z M327 230 C281 230 243 196 243 155 C243 112 280 78 327 78 C373 78 410 112 410 154 C410 196 373 230 327 230 L327 230 Z " />
<glyph glyph-name="oslash" unicode="&#xf8;" horiz-adv-x="668" d="M134 -31 L165 -49 L205 4 C236 -5 295 -13 336 -13 C517 -13 639 77 639 210 C639 295 591 363 503 402 L541 452 L509 469 L468 414 C433 425 379 433 333 433 C151 433 29 343 29 210 C29 123 79 55 170 16 L134 -31 Z M243 114 C242 122 242 129 242 143 L242 277 C242 324 247 352 259 370 C272 388 300 400 334 400 C381 400 409 383 419 348 L243 114 Z M425 298 C426 289 426 283 426 277 L426 143 C426 97 421 67 409 50 C397 32 367 20 334 20 C291 20 262 36 251 66 L425 298 Z " />
<glyph glyph-name="ugrave" unicode="&#xf9;" horiz-adv-x="686" d="M409 500 L434 511 L344 653 L228 653 C207 653 197 646 197 633 C197 622 205 612 220 604 L409 500 Z M416 0 L679 0 L679 30 L613 30 L613 433 C547 422 511 420 408 420 L330 420 L330 390 L416 390 L416 169 C416 130 411 112 395 95 C379 78 354 66 334 66 C302 66 288 84 288 126 L288 433 C221 422 186 420 83 420 L20 420 L20 390 L91 390 L91 134 C91 84 99 55 121 32 C147 3 192 -13 244 -13 C311 -13 368 15 416 71 L416 0 Z " />
<glyph glyph-name="uacute" unicode="&#xfa;" horiz-adv-x="686" d="M321 500 L511 604 C526 613 534 622 534 633 C534 647 524 653 503 653 L387 653 L297 511 L321 500 Z M416 0 L679 0 L679 30 L613 30 L613 433 C547 422 511 420 408 420 L330 420 L330 390 L416 390 L416 169 C416 130 411 112 395 95 C379 78 354 66 334 66 C302 66 288 84 288 126 L288 433 C221 422 186 420 83 420 L20 420 L20 390 L91 390 L91 134 C91 84 99 55 121 32 C147 3 192 -13 244 -13 C311 -13 368 15 416 71 L416 0 Z " />
<glyph glyph-name="ucircumflex" unicode="&#xfb;" horiz-adv-x="686" d="M500 500 L523 520 L414 653 L307 653 L198 520 L222 500 L361 567 L500 500 Z M416 0 L679 0 L679 30 L613 30 L613 433 C547 422 511 420 408 420 L330 420 L330 390 L416 390 L416 169 C416 130 411 112 395 95 C379 78 354 66 334 66 C302 66 288 84 288 126 L288 433 C221 422 186 420 83 420 L20 420 L20 390 L91 390 L91 134 C91 84 99 55 121 32 C147 3 192 -13 244 -13 C311 -13 368 15 416 71 L416 0 Z " />
<glyph glyph-name="udieresis" unicode="&#xfc;" horiz-adv-x="686" d="M231 655 C188 655 153 619 153 575 C153 531 188 496 231 496 C276 496 312 532 312 575 C312 620 277 655 231 655 L231 655 Z M477 655 C434 655 399 619 399 575 C399 531 434 496 477 496 C522 496 558 532 558 575 C558 620 523 655 477 655 L477 655 Z M416 0 L679 0 L679 30 L613 30 L613 433 C547 422 511 420 408 420 L330 420 L330 390 L416 390 L416 169 C416 130 411 112 395 95 C379 78 354 66 334 66 C302 66 288 84 288 126 L288 433 C221 422 186 420 83 420 L20 420 L20 390 L91 390 L91 134 C91 84 99 55 121 32 C147 3 192 -13 244 -13 C311 -13 368 15 416 71 L416 0 Z " />
<glyph glyph-name="yacute" unicode="&#xfd;" horiz-adv-x="568" d="M294 500 L484 604 C499 613 507 622 507 633 C507 646 497 653 476 653 L360 653 L270 511 L294 500 Z M267 -8 L220 -99 C213 -112 207 -118 201 -118 C196 -118 196 -118 173 -101 C157 -89 136 -83 114 -83 C59 -83 15 -125 15 -178 C15 -226 51 -260 102 -260 C138 -260 167 -245 191 -214 C206 -194 206 -194 244 -123 L498 344 C516 377 532 388 560 390 L579 390 L579 420 L412 420 L412 390 L430 390 C456 390 466 385 466 373 C466 367 462 356 456 344 L386 212 L287 390 L336 390 L336 420 L-11 420 L-11 390 L37 390 L267 -8 Z " />
<glyph glyph-name="thorn" unicode="&#xfe;" horiz-adv-x="669" d="M271 680 C204 669 170 667 68 667 L8 667 L8 637 L74 637 L74 -237 L8 -237 L8 -267 L357 -267 L357 -237 L271 -237 L271 53 C313 6 358 -13 425 -13 C549 -13 641 83 641 213 C641 340 553 433 432 433 C360 433 314 411 271 355 L271 680 Z M271 237 C271 314 310 367 366 367 C415 367 427 332 427 195 C427 80 413 45 366 45 C313 45 271 99 271 167 L271 237 Z " />
<glyph glyph-name="ydieresis" unicode="&#xff;" horiz-adv-x="568" d="M193 655 C150 655 115 619 115 575 C115 531 150 496 193 496 C238 496 274 532 274 575 C274 620 239 655 193 655 L193 655 Z M439 655 C396 655 361 619 361 575 C361 531 396 496 439 496 C484 496 520 532 520 575 C520 620 485 655 439 655 L439 655 Z M267 -8 L220 -99 C213 -112 207 -118 201 -118 C196 -118 196 -118 173 -101 C157 -89 136 -83 114 -83 C59 -83 15 -125 15 -178 C15 -226 51 -260 102 -260 C138 -260 167 -245 191 -214 C206 -194 206 -194 244 -123 L498 344 C516 377 532 388 560 390 L579 390 L579 420 L412 420 L412 390 L430 390 C456 390 466 385 466 373 C466 367 462 356 456 344 L386 212 L287 390 L336 390 L336 420 L-11 420 L-11 390 L37 390 L267 -8 Z " />
<glyph glyph-name="Amacron" unicode="&#x100;" horiz-adv-x="756" d="M382 180 L449 30 L372 30 L372 0 L770 0 L770 30 L707 30 L421 667 L337 667 L90 93 C69 45 51 31 5 30 L-22 30 L-22 0 L191 0 L191 30 L162 30 C129 30 115 36 115 52 C115 57 117 63 120 71 L166 180 L382 180 Z M178 210 L272 428 L370 210 L178 210 Z M559 818 L202 818 L202 758 L559 758 L559 818 Z " />
<glyph glyph-name="amacron" unicode="&#x101;" horiz-adv-x="623" d="M351 240 C267 236 207 226 143 207 C66 183 29 147 29 93 C29 31 84 -13 160 -13 C236 -13 291 6 359 56 C385 7 422 -13 489 -13 C549 -13 595 10 628 56 L600 74 C583 54 575 49 566 49 C554 49 548 57 548 74 L548 322 C548 410 499 433 315 433 C239 433 198 428 156 413 C92 391 57 355 57 312 C57 268 98 240 162 240 C227 240 276 270 276 311 C276 330 263 347 238 358 C223 365 220 368 220 373 C220 385 247 396 278 396 C324 396 351 375 351 339 L351 240 Z M351 118 C351 83 330 63 292 63 C252 63 227 86 227 122 C227 171 268 205 326 205 C333 205 339 205 351 203 L351 118 Z M475 592 L160 592 L160 532 L475 532 L475 592 Z " />
<glyph glyph-name="Abreve" unicode="&#x102;" horiz-adv-x="756" d="M382 180 L449 30 L372 30 L372 0 L770 0 L770 30 L707 30 L421 667 L337 667 L90 93 C69 45 51 31 5 30 L-22 30 L-22 0 L191 0 L191 30 L162 30 C129 30 115 36 115 52 C115 57 117 63 120 71 L166 180 L382 180 Z M178 210 L272 428 L370 210 L178 210 Z M211 878 C214 837 231 800 257 773 C285 744 329 728 380 728 C433 728 475 744 504 773 C530 800 547 837 550 878 L506 878 C478 835 448 822 380 822 C313 822 283 835 255 878 L211 878 Z " />
<glyph glyph-name="abreve" unicode="&#x103;" horiz-adv-x="623" d="M351 240 C267 236 207 226 143 207 C66 183 29 147 29 93 C29 31 84 -13 160 -13 C236 -13 291 6 359 56 C385 7 422 -13 489 -13 C549 -13 595 10 628 56 L600 74 C583 54 575 49 566 49 C554 49 548 57 548 74 L548 322 C548 410 499 433 315 433 C239 433 198 428 156 413 C92 391 57 355 57 312 C57 268 98 240 162 240 C227 240 276 270 276 311 C276 330 263 347 238 358 C223 365 220 368 220 373 C220 385 247 396 278 396 C324 396 351 375 351 339 L351 240 Z M351 118 C351 83 330 63 292 63 C252 63 227 86 227 122 C227 171 268 205 326 205 C333 205 339 205 351 203 L351 118 Z M442 651 C426 608 393 589 334 589 C275 589 242 609 232 651 L189 651 L189 641 C189 612 198 583 214 558 C242 514 281 494 336 494 C391 494 432 515 457 557 C475 585 483 616 484 651 L442 651 Z " />
<glyph glyph-name="Aogonek" unicode="&#x104;" horiz-adv-x="756" d="M770 0 L770 30 L707 30 L420 667 L336 667 L89 93 C69 45 51 31 4 30 L-22 30 L-22 0 L191 0 L191 30 L162 30 C129 30 115 36 115 52 C115 57 117 64 119 71 L165 180 L382 180 L449 30 L371 30 L371 0 L650 0 C565 -35 530 -69 530 -114 C530 -158 572 -188 633 -188 C669 -188 709 -178 753 -159 L753 -120 C722 -129 706 -132 687 -132 C650 -132 628 -116 628 -88 C628 -58 654 -27 704 0 L770 0 Z M178 210 L272 428 L369 210 L178 210 Z " />
<glyph glyph-name="aogonek" unicode="&#x105;" horiz-adv-x="623" d="M599 74 C582 54 575 49 565 49 C554 49 548 57 548 74 L548 322 C548 410 499 433 315 433 C239 433 198 428 156 413 C92 391 57 355 57 312 C57 268 98 240 162 240 C227 240 276 270 276 311 C276 330 263 347 238 358 C223 365 220 368 220 373 C220 385 247 396 278 396 C324 396 351 375 351 339 L351 240 C267 236 207 226 143 207 C66 183 29 147 29 93 C29 31 84 -13 160 -13 C236 -13 291 6 359 56 C382 10 414 -9 477 -13 L474 -14 C411 -45 386 -72 386 -109 C386 -152 425 -181 484 -181 C519 -181 553 -172 599 -152 L599 -116 C568 -124 553 -127 537 -127 C502 -127 478 -112 478 -90 C478 -64 504 -29 539 -7 C575 3 608 26 627 56 L599 74 Z M351 118 C351 83 330 63 292 63 C252 63 227 86 227 122 C227 171 268 205 326 205 C333 205 339 205 351 203 L351 118 Z " />
<glyph glyph-name="Cacute" unicode="&#x106;" horiz-adv-x="778" d="M743 212 L705 212 C689 164 675 138 642 102 C590 42 533 16 459 16 C393 16 343 40 312 86 C284 127 274 173 274 252 L274 412 C274 489 287 542 316 583 C347 627 396 651 455 651 C529 651 597 616 637 557 C652 533 662 513 675 473 L714 473 L711 667 L672 667 L640 619 C579 667 525 684 436 684 C203 684 37 535 37 326 C37 125 202 -17 438 -17 C531 -17 578 -2 662 54 L686 0 L725 0 L743 212 Z M395 733 L608 826 C627 834 635 842 635 853 C635 867 623 873 599 873 L476 873 L369 753 L395 733 Z " />
<glyph glyph-name="cacute" unicode="&#x107;" horiz-adv-x="582" d="M545 124 C484 52 426 20 354 20 C317 20 284 34 265 57 C248 77 242 104 242 155 L242 292 C242 342 249 365 269 381 C284 393 307 400 332 400 C364 400 395 387 395 373 C395 367 390 362 378 355 C335 332 325 321 325 299 C325 257 375 223 438 223 C504 223 545 257 545 310 C545 383 456 433 326 433 C146 433 29 344 29 207 C29 73 143 -13 321 -13 C436 -13 505 20 571 108 L545 124 Z M265 500 L455 604 C470 613 478 622 478 633 C478 646 468 653 447 653 L331 653 L240 511 L265 500 Z " />
<glyph glyph-name="Ccircumflex" unicode="&#x108;" horiz-adv-x="778" d="M743 212 L705 212 C689 164 675 138 642 102 C590 42 533 16 459 16 C393 16 343 40 312 86 C284 127 274 173 274 252 L274 412 C274 489 287 542 316 583 C347 627 396 651 455 651 C529 651 597 616 637 557 C652 533 662 513 675 473 L714 473 L711 667 L672 667 L640 619 C579 667 525 684 436 684 C203 684 37 535 37 326 C37 125 202 -17 438 -17 C531 -17 578 -2 662 54 L686 0 L725 0 L743 212 Z M424 791 L591 733 L613 761 L490 873 L357 873 L235 761 L257 733 L424 791 Z " />
<glyph glyph-name="Cdotaccent" unicode="&#x10a;" horiz-adv-x="778" d="M743 212 L705 212 C689 164 675 138 642 102 C590 42 533 16 459 16 C393 16 343 40 312 86 C284 127 274 173 274 252 L274 412 C274 489 287 542 316 583 C347 627 396 651 455 651 C529 651 597 616 637 557 C652 533 662 513 675 473 L714 473 L711 667 L672 667 L640 619 C579 667 525 684 436 684 C203 684 37 535 37 326 C37 125 202 -17 438 -17 C531 -17 578 -2 662 54 L686 0 L725 0 L743 212 Z M430 891 C385 891 349 855 349 810 C349 764 385 728 431 728 C475 728 512 764 512 809 C512 855 476 891 430 891 L430 891 Z " />
<glyph glyph-name="cdotaccent" unicode="&#x10b;" horiz-adv-x="582" d="M545 124 C484 52 426 20 354 20 C317 20 284 34 265 57 C248 77 242 104 242 155 L242 292 C242 342 249 365 269 381 C284 393 307 400 332 400 C364 400 395 387 395 373 C395 367 390 362 378 355 C335 332 325 321 325 299 C325 257 375 223 438 223 C504 223 545 257 545 310 C545 383 456 433 326 433 C146 433 29 344 29 207 C29 73 143 -13 321 -13 C436 -13 505 20 571 108 L545 124 Z M312 655 C268 655 233 619 233 576 C233 531 269 496 313 496 C356 496 392 531 392 575 C392 620 357 655 312 655 L312 655 Z " />
<glyph glyph-name="Ccaron" unicode="&#x10c;" horiz-adv-x="778" d="M743 212 L705 212 C689 164 675 138 642 102 C590 42 533 16 459 16 C393 16 343 40 312 86 C284 127 274 173 274 252 L274 412 C274 489 287 542 316 583 C347 627 396 651 455 651 C529 651 597 616 637 557 C652 533 662 513 675 473 L714 473 L711 667 L672 667 L640 619 C579 667 525 684 436 684 C203 684 37 535 37 326 C37 125 202 -17 438 -17 C531 -17 578 -2 662 54 L686 0 L725 0 L743 212 Z M432 815 L265 873 L243 845 L365 733 L499 733 L621 845 L599 873 L432 815 Z " />
<glyph glyph-name="ccaron" unicode="&#x10d;" horiz-adv-x="582" d="M545 124 C484 52 426 20 354 20 C317 20 284 34 265 57 C248 77 242 104 242 155 L242 292 C242 342 249 365 269 381 C284 393 307 400 332 400 C364 400 395 387 395 373 C395 367 390 362 378 355 C335 332 325 321 325 299 C325 257 375 223 438 223 C504 223 545 257 545 310 C545 383 456 433 326 433 C146 433 29 344 29 207 C29 73 143 -13 321 -13 C436 -13 505 20 571 108 L545 124 Z M176 654 L152 633 L261 500 L368 500 L478 633 L454 654 L315 586 L176 654 Z " />
<glyph glyph-name="Dcaron" unicode="&#x10e;" horiz-adv-x="867" d="M113 30 L37 30 L37 0 L371 0 C542 0 641 26 723 93 C794 151 832 235 832 331 C832 475 761 583 633 636 C576 659 509 667 368 667 L37 667 L37 637 L113 637 L113 30 Z M333 30 L333 637 L368 637 C514 641 558 589 560 414 L559 287 C562 88 519 29 371 30 L333 30 Z M402 815 L235 873 L213 845 L336 733 L469 733 L591 845 L569 873 L402 815 Z " />
<glyph glyph-name="dcaron" unicode="&#x10f;" horiz-adv-x="823" d="M394 0 L657 0 L657 30 L591 30 L591 680 C526 669 489 667 386 667 L308 667 L308 637 L394 637 L394 369 C353 416 314 433 253 433 C124 433 29 336 29 207 C29 79 117 -13 241 -13 C301 -13 344 3 394 45 L394 0 Z M394 152 C394 88 358 44 305 44 C253 44 242 76 242 228 C242 335 258 369 310 369 C336 369 360 358 374 339 C385 323 394 296 394 277 L394 152 Z M711 416 C780 456 816 508 816 569 C816 638 780 680 720 680 C668 680 631 649 631 607 C631 566 666 533 709 533 C724 533 742 539 753 547 C765 556 766 556 769 556 C774 556 777 551 777 544 C777 508 746 469 693 439 L711 416 Z " />
<glyph glyph-name="Dcroat" unicode="&#x110;" horiz-adv-x="867" d="M113 358 L37 358 L37 328 L113 328 L113 30 L37 30 L37 0 L371 0 C542 0 641 26 723 93 C794 150 832 234 832 331 C832 475 761 583 633 636 C576 659 509 667 368 667 L37 667 L37 637 L113 637 L113 358 Z M333 358 L333 637 L368 637 C514 641 558 589 560 414 L559 287 C562 88 519 29 371 30 L333 30 L333 328 L477 328 L477 358 L333 358 Z " />
<glyph glyph-name="dcroat" unicode="&#x111;" horiz-adv-x="665" d="M394 534 L394 369 C353 415 314 433 253 433 C124 433 29 336 29 207 C29 79 117 -13 241 -13 C301 -13 344 3 394 45 L394 0 L657 0 L657 30 L591 30 L591 534 L657 534 L657 564 L591 564 L591 680 C526 669 489 667 386 667 L308 667 L308 637 L394 637 L394 564 L215 564 L215 534 L394 534 Z M394 152 C394 88 358 44 305 44 C253 44 242 76 242 228 C242 335 258 369 310 369 C336 369 360 358 374 339 C385 323 394 296 394 277 L394 152 Z " />
<glyph glyph-name="Emacron" unicode="&#x112;" horiz-adv-x="757" d="M110 30 L37 30 L37 0 L717 0 L717 222 L683 222 C657 83 584 26 440 30 L330 30 L330 319 L369 319 C463 320 501 286 509 197 L542 197 L542 469 L509 469 C509 387 466 350 372 349 L330 349 L330 637 L407 637 C550 640 630 595 658 494 L691 494 L691 667 L37 667 L37 637 L110 637 L110 30 Z M574 818 L218 818 L218 758 L574 758 L574 818 Z " />
<glyph glyph-name="emacron" unicode="&#x113;" horiz-adv-x="620" d="M594 232 C592 278 584 304 565 334 C520 401 445 433 333 433 C150 433 29 344 29 211 C29 130 73 57 145 21 C190 -2 254 -14 329 -14 C464 -14 549 36 594 141 L567 152 C524 69 450 20 367 20 C326 20 296 36 282 66 C268 99 265 126 264 232 L594 232 Z M263 262 C264 302 264 321 267 337 C273 381 289 400 320 400 C358 400 373 374 373 307 C373 265 371 262 344 262 L263 262 Z M477 592 L163 592 L163 532 L477 532 L477 592 Z " />
<glyph glyph-name="Ebreve" unicode="&#x114;" horiz-adv-x="757" d="M110 30 L37 30 L37 0 L717 0 L717 222 L683 222 C657 83 584 26 440 30 L330 30 L330 319 L369 319 C463 320 501 286 509 197 L542 197 L542 469 L509 469 C509 387 466 350 372 349 L330 349 L330 637 L407 637 C550 640 630 595 658 494 L691 494 L691 667 L37 667 L37 637 L110 637 L110 30 Z M225 878 C228 837 244 800 270 773 C299 744 342 728 394 728 C446 728 489 744 518 773 C544 800 560 837 563 878 L519 878 C491 835 462 822 394 822 C326 822 297 835 268 878 L225 878 Z " />
<glyph glyph-name="ebreve" unicode="&#x115;" horiz-adv-x="620" d="M594 232 C592 278 584 304 565 334 C520 401 445 433 333 433 C150 433 29 344 29 211 C29 130 73 57 145 21 C190 -2 254 -14 329 -14 C464 -14 549 36 594 141 L567 152 C524 69 450 20 367 20 C326 20 296 36 282 66 C268 99 265 126 264 232 L594 232 Z M263 262 C264 302 264 321 267 337 C273 381 289 400 320 400 C358 400 373 374 373 307 C373 265 371 262 344 262 L263 262 Z M425 651 C409 608 376 589 317 589 C259 589 225 609 215 651 L173 651 C172 647 172 642 172 641 C172 612 181 583 197 558 C225 514 264 494 319 494 C374 494 416 515 440 557 C458 586 466 616 467 651 L425 651 Z " />
<glyph glyph-name="Edotaccent" unicode="&#x116;" horiz-adv-x="757" d="M110 30 L37 30 L37 0 L717 0 L717 222 L683 222 C657 83 584 26 440 30 L330 30 L330 319 L369 319 C463 320 501 286 509 197 L542 197 L542 469 L509 469 C509 387 466 350 372 349 L330 349 L330 637 L407 637 C550 640 630 595 658 494 L691 494 L691 667 L37 667 L37 637 L110 637 L110 30 Z M394 891 C349 891 313 855 313 810 C313 764 349 728 395 728 C439 728 476 764 476 809 C476 855 440 891 394 891 L394 891 Z " />
<glyph glyph-name="edotaccent" unicode="&#x117;" horiz-adv-x="620" d="M594 232 C592 278 584 304 565 334 C520 401 445 433 333 433 C150 433 29 344 29 211 C29 130 73 57 145 21 C190 -2 254 -14 329 -14 C464 -14 549 36 594 141 L567 152 C524 69 450 20 367 20 C326 20 296 36 282 66 C268 99 265 126 264 232 L594 232 Z M263 262 C264 302 264 321 267 337 C273 381 289 400 320 400 C358 400 373 374 373 307 C373 265 371 262 344 262 L263 262 Z M324 655 C280 655 245 619 245 576 C245 531 281 496 325 496 C368 496 404 531 404 575 C404 620 369 655 324 655 L324 655 Z " />
<glyph glyph-name="Eogonek" unicode="&#x118;" horiz-adv-x="757" d="M717 0 L717 222 L683 222 C657 83 584 26 440 30 L330 30 L330 319 L369 319 C463 320 501 286 509 197 L542 197 L542 469 L509 469 C509 387 466 350 372 349 L330 349 L330 637 L407 637 C550 640 630 595 658 494 L691 494 L691 667 L37 667 L37 637 L110 637 L110 30 L37 30 L37 0 L605 0 C521 -35 485 -69 485 -114 C485 -158 527 -188 588 -188 C624 -188 663 -178 708 -159 L708 -120 C676 -129 661 -132 642 -132 C605 -132 583 -116 583 -88 C583 -58 610 -27 658 0 L717 0 Z " />
<glyph glyph-name="eogonek" unicode="&#x119;" horiz-adv-x="620" d="M511 -116 C480 -124 465 -127 449 -127 C414 -127 390 -112 390 -90 C390 -58 417 -27 483 18 C544 56 570 86 594 141 L567 152 C524 69 450 20 367 20 C325 20 295 36 282 66 C267 99 265 126 264 232 L594 232 C592 278 584 304 564 334 C520 401 445 433 332 433 C150 433 29 344 29 211 C29 130 73 57 145 21 C190 -2 254 -14 330 -14 C356 -14 377 -13 396 -10 L392 -11 C323 -45 298 -70 298 -109 C298 -152 337 -181 396 -181 C430 -181 465 -172 511 -152 L511 -116 Z M263 262 C263 302 264 321 266 337 C273 381 289 400 320 400 C358 400 373 374 373 307 C373 265 371 262 344 262 L263 262 Z " />
<glyph glyph-name="Ecaron" unicode="&#x11a;" horiz-adv-x="757" d="M110 30 L37 30 L37 0 L717 0 L717 222 L683 222 C657 83 584 26 440 30 L330 30 L330 319 L369 319 C463 320 501 286 509 197 L542 197 L542 469 L509 469 C509 387 466 350 372 349 L330 349 L330 637 L407 637 C550 640 630 595 658 494 L691 494 L691 667 L37 667 L37 637 L110 637 L110 30 Z M396 815 L229 873 L207 845 L329 733 L463 733 L585 845 L563 873 L396 815 Z " />
<glyph glyph-name="ecaron" unicode="&#x11b;" horiz-adv-x="620" d="M594 232 C592 278 584 304 565 334 C520 401 445 433 333 433 C150 433 29 344 29 211 C29 130 73 57 145 21 C190 -2 254 -14 329 -14 C464 -14 549 36 594 141 L567 152 C524 69 450 20 367 20 C326 20 296 36 282 66 C268 99 265 126 264 232 L594 232 Z M263 262 C264 302 264 321 267 337 C273 381 289 400 320 400 C358 400 373 374 373 307 C373 265 371 262 344 262 L263 262 Z M187 654 L163 633 L273 500 L380 500 L489 633 L465 654 L326 586 L187 654 Z " />
<glyph glyph-name="Gcircumflex" unicode="&#x11c;" horiz-adv-x="821" d="M744 248 L810 248 L810 278 L394 278 L394 248 L524 248 L524 178 C524 95 523 85 508 61 C491 33 456 16 416 16 C358 16 307 51 291 102 C280 137 274 198 274 266 L274 374 C274 485 280 529 301 568 C329 621 380 651 441 651 C517 651 600 607 641 545 C658 520 667 497 676 455 L709 455 L709 667 L676 667 L637 629 C554 672 510 684 433 684 C208 684 37 533 37 333 C37 258 61 184 103 126 C172 32 279 -17 417 -17 C558 -17 662 25 744 114 L744 248 Z M424 791 L591 733 L613 761 L490 873 L357 873 L235 761 L257 733 L424 791 Z " />
<glyph glyph-name="gcircumflex" unicode="&#x11d;" horiz-adv-x="671" d="M210 45 C122 45 90 55 90 83 C90 103 115 119 147 119 C156 119 165 118 173 116 C231 100 255 97 308 97 C462 97 576 166 576 260 C576 294 569 310 538 353 C544 359 547 361 553 361 C563 361 568 357 578 338 C588 318 602 310 624 310 C655 310 680 334 680 364 C680 402 647 433 609 433 C573 433 543 415 513 375 C449 416 391 433 310 433 C157 433 39 358 39 260 C39 210 62 176 115 145 C85 130 72 121 58 107 C35 82 21 44 21 5 C21 -50 42 -85 93 -114 C48 -131 28 -151 28 -178 C28 -230 134 -263 303 -263 C400 -263 476 -251 523 -229 C592 -196 632 -142 632 -79 C632 -46 621 -17 601 4 C572 35 532 45 439 45 L210 45 Z M241 319 C241 379 258 399 307 399 C356 399 373 379 373 319 L373 207 C373 148 356 127 307 127 C258 127 241 147 241 207 L241 319 Z M427 -131 C496 -131 512 -137 512 -163 C512 -203 431 -231 314 -231 C193 -231 122 -206 122 -165 C122 -153 129 -141 138 -136 C146 -131 146 -131 183 -131 L427 -131 Z M451 500 L475 520 L366 653 L259 653 L149 520 L173 500 L312 567 L451 500 Z " />
<glyph glyph-name="Gbreve" unicode="&#x11e;" horiz-adv-x="821" d="M744 248 L810 248 L810 278 L394 278 L394 248 L524 248 L524 178 C524 95 523 85 508 61 C491 33 456 16 416 16 C358 16 307 51 291 102 C280 137 274 198 274 266 L274 374 C274 485 280 529 301 568 C329 621 380 651 441 651 C517 651 600 607 641 545 C658 520 667 497 676 455 L709 455 L709 667 L676 667 L637 629 C554 672 510 684 433 684 C208 684 37 533 37 333 C37 258 61 184 103 126 C172 32 279 -17 417 -17 C558 -17 662 25 744 114 L744 248 Z M263 878 C266 837 282 800 308 773 C337 744 380 728 432 728 C484 728 527 744 556 773 C582 800 598 837 601 878 L558 878 C530 835 500 822 432 822 C364 822 335 835 307 878 L263 878 Z " />
<glyph glyph-name="gbreve" unicode="&#x11f;" horiz-adv-x="671" d="M210 45 C122 45 90 55 90 83 C90 103 115 119 147 119 C156 119 165 118 173 116 C231 100 255 97 308 97 C462 97 576 166 576 260 C576 294 569 310 538 353 C544 359 547 361 553 361 C563 361 568 357 578 338 C588 318 602 310 624 310 C655 310 680 334 680 364 C680 402 647 433 609 433 C573 433 543 415 513 375 C449 416 391 433 310 433 C157 433 39 358 39 260 C39 210 62 176 115 145 C85 130 72 121 58 107 C35 82 21 44 21 5 C21 -50 42 -85 93 -114 C48 -131 28 -151 28 -178 C28 -230 134 -263 303 -263 C400 -263 476 -251 523 -229 C592 -196 632 -142 632 -79 C632 -46 621 -17 601 4 C572 35 532 45 439 45 L210 45 Z M241 319 C241 379 258 399 307 399 C356 399 373 379 373 319 L373 207 C373 148 356 127 307 127 C258 127 241 147 241 207 L241 319 Z M427 -131 C496 -131 512 -137 512 -163 C512 -203 431 -231 314 -231 C193 -231 122 -206 122 -165 C122 -153 129 -141 138 -136 C146 -131 146 -131 183 -131 L427 -131 Z M421 651 C405 608 372 589 314 589 C255 589 222 609 211 651 L169 651 C169 618 171 605 182 580 C207 523 253 494 316 494 C371 494 412 515 437 557 C454 585 463 616 464 651 L421 651 Z " />
<glyph glyph-name="Gdotaccent" unicode="&#x120;" horiz-adv-x="821" d="M744 248 L810 248 L810 278 L394 278 L394 248 L524 248 L524 178 C524 95 523 85 508 61 C491 33 456 16 416 16 C358 16 307 51 291 102 C280 137 274 198 274 266 L274 374 C274 485 280 529 301 568 C329 621 380 651 441 651 C517 651 600 607 641 545 C658 520 667 497 676 455 L709 455 L709 667 L676 667 L637 629 C554 672 510 684 433 684 C208 684 37 533 37 333 C37 258 61 184 103 126 C172 32 279 -17 417 -17 C558 -17 662 25 744 114 L744 248 Z M432 891 C387 891 351 855 351 810 C351 764 387 728 433 728 C477 728 514 764 514 809 C514 855 478 891 432 891 L432 891 Z " />
<glyph glyph-name="gdotaccent" unicode="&#x121;" horiz-adv-x="671" d="M210 45 C122 45 90 55 90 83 C90 103 115 119 147 119 C156 119 165 118 173 116 C231 100 255 97 308 97 C462 97 576 166 576 260 C576 294 569 310 538 353 C544 359 547 361 553 361 C563 361 568 357 578 338 C588 318 602 310 624 310 C655 310 680 334 680 364 C680 402 647 433 609 433 C573 433 543 415 513 375 C449 416 391 433 310 433 C157 433 39 358 39 260 C39 210 62 176 115 145 C85 130 72 121 58 107 C35 82 21 44 21 5 C21 -50 42 -85 93 -114 C48 -131 28 -151 28 -178 C28 -230 134 -263 303 -263 C400 -263 476 -251 523 -229 C592 -196 632 -142 632 -79 C632 -46 621 -17 601 4 C572 35 532 45 439 45 L210 45 Z M241 319 C241 379 258 399 307 399 C356 399 373 379 373 319 L373 207 C373 148 356 127 307 127 C258 127 241 147 241 207 L241 319 Z M427 -131 C496 -131 512 -137 512 -163 C512 -203 431 -231 314 -231 C193 -231 122 -206 122 -165 C122 -153 129 -141 138 -136 C146 -131 146 -131 183 -131 L427 -131 Z M316 655 C272 655 237 619 237 576 C237 531 273 496 317 496 C360 496 396 531 396 575 C396 620 361 655 316 655 L316 655 Z " />
<glyph glyph-name="Gcommaaccent" unicode="&#x122;" horiz-adv-x="821" d="M744 248 L810 248 L810 278 L394 278 L394 248 L524 248 L524 178 C524 95 523 85 508 61 C491 33 456 16 416 16 C358 16 307 51 291 102 C280 137 274 198 274 266 L274 374 C274 485 280 529 301 568 C329 621 380 651 441 651 C517 651 600 607 641 545 C658 520 667 497 676 455 L709 455 L709 667 L676 667 L637 629 C554 672 510 684 433 684 C208 684 37 533 37 333 C37 258 61 184 103 126 C172 32 279 -17 417 -17 C558 -17 662 25 744 114 L744 248 Z M406 -349 C484 -304 525 -245 525 -175 C525 -96 484 -49 415 -49 C357 -49 315 -84 315 -132 C315 -179 354 -216 403 -216 C421 -216 441 -210 454 -200 C468 -190 468 -190 472 -190 C478 -190 481 -195 481 -203 C481 -245 445 -291 385 -325 L406 -349 Z " />
<glyph glyph-name="gcommaaccent" unicode="&#x123;" horiz-adv-x="671" d="M210 45 C122 45 90 55 90 83 C90 103 115 119 147 119 C156 119 165 118 173 116 C231 100 255 97 308 97 C462 97 576 166 576 260 C576 294 569 310 538 353 C544 359 547 361 553 361 C563 361 568 357 578 338 C588 318 602 310 624 310 C655 310 680 334 680 364 C680 402 647 433 609 433 C573 433 543 415 513 375 C449 416 391 433 310 433 C157 433 39 358 39 260 C39 210 62 176 115 145 C85 130 72 121 58 107 C35 82 21 44 21 5 C21 -50 42 -85 93 -114 C48 -131 28 -151 28 -178 C28 -230 134 -263 303 -263 C400 -263 476 -251 523 -229 C592 -196 632 -142 632 -79 C632 -46 621 -17 601 4 C572 35 532 45 439 45 L210 45 Z M241 319 C241 379 258 399 307 399 C356 399 373 379 373 319 L373 207 C373 148 356 127 307 127 C258 127 241 147 241 207 L241 319 Z M427 -131 C496 -131 512 -137 512 -163 C512 -203 431 -231 314 -231 C193 -231 122 -206 122 -165 C122 -153 129 -141 138 -136 C146 -131 146 -131 183 -131 L427 -131 Z M323 745 C253 705 217 653 217 592 C217 523 254 481 314 481 C366 481 403 512 403 554 C403 595 368 628 325 628 C309 628 291 623 280 614 C268 605 267 605 264 605 C259 605 256 610 256 617 C256 653 288 693 341 722 L323 745 Z " />
<glyph glyph-name="Hcircumflex" unicode="&#x124;" horiz-adv-x="896" d="M330 328 L566 328 L566 30 L471 30 L471 0 L859 0 L859 30 L786 30 L786 637 L859 637 L859 667 L471 667 L471 637 L566 637 L566 358 L330 358 L330 637 L425 637 L425 667 L37 667 L37 637 L110 637 L110 30 L37 30 L37 0 L425 0 L425 30 L330 30 L330 328 Z M448 791 L615 733 L637 761 L515 873 L382 873 L259 761 L281 733 L448 791 Z " />
<glyph glyph-name="Hbar" unicode="&#x126;" horiz-adv-x="896" d="M110 473 L110 30 L37 30 L37 0 L425 0 L425 30 L330 30 L330 328 L566 328 L566 30 L471 30 L471 0 L859 0 L859 30 L786 30 L786 473 L847 473 L847 503 L786 503 L786 637 L859 637 L859 667 L471 667 L471 637 L566 637 L566 503 L330 503 L330 637 L425 637 L425 667 L37 667 L37 637 L110 637 L110 503 L50 503 L50 473 L110 473 Z M330 473 L566 473 L566 358 L330 358 L330 473 Z " />
<glyph glyph-name="hbar" unicode="&#x127;" horiz-adv-x="664" d="M74 534 L74 30 L8 30 L8 0 L331 0 L331 30 L271 30 L271 235 C271 301 309 353 358 353 C385 353 396 340 396 307 L396 30 L356 30 L356 0 L659 0 L659 30 L593 30 L593 304 C593 391 548 434 456 434 C414 434 372 423 340 404 C314 389 298 374 271 337 L271 534 L457 534 L457 564 L271 564 L271 680 C206 669 170 667 68 667 L8 667 L8 637 L74 637 L74 564 L8 564 L8 534 L74 534 Z " />
<glyph glyph-name="Imacron" unicode="&#x12a;" horiz-adv-x="440" d="M110 30 L37 30 L37 0 L403 0 L403 30 L330 30 L330 637 L403 637 L403 667 L37 667 L37 637 L110 637 L110 30 Z M399 818 L42 818 L42 758 L399 758 L399 818 Z " />
<glyph glyph-name="imacron" unicode="&#x12b;" horiz-adv-x="353" d="M83 30 L17 30 L17 0 L346 0 L346 30 L280 30 L280 433 C211 422 178 420 75 420 L17 420 L17 390 L83 390 L83 30 Z M322 592 L24 592 L24 532 L322 532 L322 592 Z " />
<glyph glyph-name="ibreve" unicode="&#x12d;" horiz-adv-x="353" d="M83 30 L17 30 L17 0 L346 0 L346 30 L280 30 L280 433 C211 422 178 420 75 420 L17 420 L17 390 L83 390 L83 30 Z M291 651 C274 608 242 589 183 589 C124 589 91 609 81 651 L38 651 L38 641 C38 612 47 583 63 558 C91 514 130 494 185 494 C240 494 281 515 306 557 C323 585 332 616 333 651 L291 651 Z " />
<glyph glyph-name="Iogonek" unicode="&#x12e;" horiz-adv-x="440" d="M403 0 L403 30 L330 30 L330 637 L403 637 L403 667 L37 667 L37 637 L110 637 L110 30 L37 30 L37 0 L290 0 C205 -35 170 -69 170 -114 C170 -158 212 -188 273 -188 C310 -188 349 -178 393 -159 L393 -120 C362 -129 346 -132 327 -132 C290 -132 268 -116 268 -88 C268 -58 294 -27 344 0 L403 0 Z " />
<glyph glyph-name="iogonek" unicode="&#x12f;" horiz-adv-x="353" d="M346 0 L346 30 L280 30 L280 433 C211 422 178 420 75 420 L17 420 L17 390 L83 390 L83 30 L17 30 L17 0 L244 0 C218 -12 205 -18 195 -24 C148 -49 126 -76 126 -109 C126 -152 165 -181 224 -181 C258 -181 293 -172 339 -152 L339 -116 C308 -124 293 -127 277 -127 C242 -127 218 -112 218 -90 C218 -60 244 -28 290 0 L346 0 Z M166 699 C106 699 57 650 57 590 C57 529 106 480 167 480 C227 480 276 529 276 588 C276 651 228 699 166 699 L166 699 Z " />
<glyph glyph-name="Idotaccent" unicode="&#x130;" horiz-adv-x="440" d="M110 30 L37 30 L37 0 L403 0 L403 30 L330 30 L330 637 L403 637 L403 667 L37 667 L37 637 L110 637 L110 30 Z M220 891 C175 891 139 855 139 810 C139 764 175 728 221 728 C265 728 302 764 302 809 C302 855 266 891 220 891 L220 891 Z " />
<glyph glyph-name="dotlessi" unicode="&#x131;" horiz-adv-x="353" d="M83 30 L17 30 L17 0 L346 0 L346 30 L280 30 L280 433 C211 422 178 420 75 420 L17 420 L17 390 L83 390 L83 30 Z " />
<glyph glyph-name="Kcommaaccent" unicode="&#x136;" horiz-adv-x="874" d="M521 468 L641 579 C695 632 704 635 771 637 L814 637 L814 667 L506 667 L506 637 L571 637 C604 637 618 633 618 623 C618 615 607 599 594 588 L330 361 L330 637 L403 637 L403 667 L37 667 L37 637 L110 637 L110 30 L37 30 L37 0 L403 0 L403 30 L330 30 L330 349 L531 30 L464 30 L464 0 L874 0 L874 30 L804 30 L521 468 Z M391 -349 C470 -304 511 -245 511 -175 C511 -96 469 -49 401 -49 C342 -49 300 -84 300 -132 C300 -179 339 -216 389 -216 C407 -216 427 -210 440 -200 C454 -190 454 -190 458 -190 C464 -190 467 -195 467 -203 C467 -245 431 -291 371 -325 L391 -349 Z " />
<glyph glyph-name="kcommaaccent" unicode="&#x137;" horiz-adv-x="685" d="M74 30 L8 30 L8 0 L331 0 L331 30 L271 30 L271 213 L409 30 L370 30 L370 0 L696 0 L696 30 L647 30 L463 319 L510 355 C548 385 559 389 595 390 L627 390 L627 420 L379 420 L379 390 L434 390 C456 390 464 386 464 375 C464 368 457 358 446 350 L271 228 L271 680 C209 669 170 667 68 667 L8 667 L8 637 L74 637 L74 30 Z M318 -313 C388 -273 424 -222 424 -160 C424 -91 387 -49 327 -49 C275 -49 238 -80 238 -122 C238 -163 273 -196 316 -196 C332 -196 350 -191 361 -182 C373 -173 374 -173 377 -173 C382 -173 385 -178 385 -185 C385 -221 353 -261 300 -290 L318 -313 Z " />
<glyph glyph-name="Lacute" unicode="&#x139;" horiz-adv-x="736" d="M330 637 L437 637 L437 667 L37 667 L37 637 L110 637 L110 30 L37 30 L37 0 L698 0 L712 226 L675 226 C662 172 641 136 604 96 C561 50 500 31 391 30 L330 30 L330 637 Z M224 733 L437 826 C457 835 465 842 465 853 C465 867 453 873 428 873 L306 873 L198 753 L224 733 Z " />
<glyph glyph-name="lacute" unicode="&#x13a;" horiz-adv-x="344" d="M271 680 C206 669 169 667 66 667 L8 667 L8 637 L74 637 L74 30 L8 30 L8 0 L337 0 L337 30 L271 30 L271 680 Z M116 733 L330 826 C349 835 357 842 357 853 C357 867 345 873 320 873 L198 873 L91 753 L116 733 Z " />
<glyph glyph-name="Lcommaaccent" unicode="&#x13b;" horiz-adv-x="736" d="M330 637 L437 637 L437 667 L37 667 L37 637 L110 637 L110 30 L37 30 L37 0 L698 0 L712 226 L675 226 C662 172 641 136 604 96 C561 50 500 31 391 30 L330 30 L330 637 Z M355 -349 C433 -304 474 -245 474 -175 C474 -96 433 -49 364 -49 C306 -49 264 -84 264 -132 C264 -179 303 -216 352 -216 C370 -216 390 -210 403 -200 C417 -190 417 -190 421 -190 C427 -190 430 -195 430 -203 C430 -245 394 -291 334 -325 L355 -349 Z " />
<glyph glyph-name="lcommaaccent" unicode="&#x13c;" horiz-adv-x="344" d="M271 680 C206 669 169 667 66 667 L8 667 L8 637 L74 637 L74 30 L8 30 L8 0 L337 0 L337 30 L271 30 L271 680 Z M160 -313 C229 -273 265 -222 265 -160 C265 -91 229 -49 169 -49 C117 -49 80 -80 80 -122 C80 -163 115 -196 158 -196 C173 -196 191 -190 202 -182 C214 -173 215 -173 218 -173 C223 -173 226 -178 226 -185 C226 -221 194 -261 142 -290 L160 -313 Z " />
<glyph glyph-name="Lcaron" unicode="&#x13d;" horiz-adv-x="736" d="M330 637 L437 637 L437 667 L37 667 L37 637 L110 637 L110 30 L37 30 L37 0 L698 0 L712 226 L675 226 C662 172 641 136 604 96 C561 50 500 31 391 30 L330 30 L330 637 Z M548 367 C627 412 667 471 667 542 C667 620 626 667 557 667 C499 667 457 632 457 584 C457 537 496 500 545 500 C563 500 583 506 596 516 C610 526 610 526 614 526 C620 526 623 521 623 513 C623 471 587 425 527 391 L548 367 Z " />
<glyph glyph-name="lcaron" unicode="&#x13e;" horiz-adv-x="497" d="M271 680 C206 669 169 667 66 667 L8 667 L8 637 L74 637 L74 30 L8 30 L8 0 L337 0 L337 30 L271 30 L271 680 Z M389 416 C458 456 494 508 494 569 C494 638 458 680 398 680 C346 680 309 649 309 607 C309 566 344 533 387 533 C402 533 420 539 431 547 C443 556 444 556 447 556 C452 556 455 551 455 544 C455 508 424 469 371 439 L389 416 Z " />
<glyph glyph-name="Ldot" unicode="&#x13f;" horiz-adv-x="736" d="M330 637 L437 637 L437 667 L37 667 L37 637 L110 637 L110 30 L37 30 L37 0 L698 0 L712 226 L675 226 C662 172 641 136 604 96 C561 50 500 31 391 30 L330 30 L330 637 Z M465 413 C421 413 386 377 386 334 C386 289 422 254 466 254 C509 254 545 289 545 333 C545 378 510 413 465 413 L465 413 Z " />
<glyph glyph-name="ldot" unicode="&#x140;" horiz-adv-x="461" d="M271 680 C206 669 169 667 66 667 L8 667 L8 637 L74 637 L74 30 L8 30 L8 0 L337 0 L337 30 L271 30 L271 680 Z M395 423 C351 423 316 387 316 344 C316 299 352 264 396 264 C439 264 475 299 475 343 C475 388 440 423 395 423 L395 423 Z " />
<glyph glyph-name="Lslash" unicode="&#x141;" horiz-adv-x="736" d="M330 338 L486 437 L486 474 L330 375 L330 637 L437 637 L437 667 L37 667 L37 637 L110 637 L110 236 L37 189 L37 152 L110 200 L110 30 L37 30 L37 0 L698 0 L712 226 L675 226 C662 172 641 136 604 96 C561 50 500 31 391 30 L330 30 L330 338 Z " />
<glyph glyph-name="lslash" unicode="&#x142;" horiz-adv-x="364" d="M271 392 L356 451 L356 487 L271 429 L271 680 C207 669 170 667 68 667 L8 667 L8 637 L74 637 L74 300 L8 257 L8 220 L74 264 L74 30 L8 30 L8 0 L356 0 L356 30 L271 30 L271 392 Z " />
<glyph glyph-name="Nacute" unicode="&#x143;" horiz-adv-x="770" d="M552 0 L669 0 L669 542 C666 619 680 636 744 637 L761 637 L761 667 L541 667 L541 637 L558 637 C625 636 639 619 636 542 L636 296 L378 667 L13 667 L13 637 L59 637 C102 636 110 627 108 578 L108 125 C111 48 97 31 30 30 L13 30 L13 0 L233 0 L233 30 L217 30 C152 31 138 48 141 125 L141 597 L552 0 Z M343 733 L557 826 C576 835 584 842 584 853 C584 867 572 873 547 873 L425 873 L318 753 L343 733 Z " />
<glyph glyph-name="nacute" unicode="&#x144;" horiz-adv-x="673" d="M83 30 L17 30 L17 0 L339 0 L339 30 L280 30 L280 235 C280 301 317 353 366 353 C393 353 404 340 404 307 L404 30 L364 30 L364 0 L667 0 L667 30 L601 30 L601 304 C601 391 556 434 464 434 C422 434 381 423 348 404 C322 389 307 374 280 337 L280 433 C215 422 179 420 77 420 L17 420 L17 390 L83 390 L83 30 Z M309 500 L499 604 C514 613 522 622 522 633 C522 646 512 653 491 653 L375 653 L285 511 L309 500 Z " />
<glyph glyph-name="Ncommaaccent" unicode="&#x145;" horiz-adv-x="770" d="M552 0 L669 0 L669 542 C666 619 680 636 744 637 L761 637 L761 667 L541 667 L541 637 L558 637 C625 636 639 619 636 542 L636 296 L378 667 L13 667 L13 637 L59 637 C102 636 110 627 108 578 L108 125 C111 48 97 31 30 30 L13 30 L13 0 L233 0 L233 30 L217 30 C152 31 138 48 141 125 L141 597 L552 0 Z M363 -349 C441 -304 482 -245 482 -175 C482 -96 441 -49 372 -49 C314 -49 272 -84 272 -132 C272 -179 311 -216 360 -216 C378 -216 398 -210 411 -200 C425 -190 425 -190 429 -190 C435 -190 438 -195 438 -203 C438 -245 402 -291 342 -325 L363 -349 Z " />
<glyph glyph-name="ncommaaccent" unicode="&#x146;" horiz-adv-x="673" d="M83 30 L17 30 L17 0 L339 0 L339 30 L280 30 L280 235 C280 301 317 353 366 353 C393 353 404 340 404 307 L404 30 L364 30 L364 0 L667 0 L667 30 L601 30 L601 304 C601 391 556 434 464 434 C422 434 381 423 348 404 C322 389 307 374 280 337 L280 433 C215 422 179 420 77 420 L17 420 L17 390 L83 390 L83 30 Z M330 -313 C399 -273 435 -222 435 -160 C435 -91 399 -49 339 -49 C287 -49 250 -80 250 -122 C250 -163 285 -196 328 -196 C343 -196 361 -190 372 -182 C384 -173 385 -173 388 -173 C393 -173 396 -178 396 -185 C396 -221 364 -261 312 -290 L330 -313 Z " />
<glyph glyph-name="Ncaron" unicode="&#x147;" horiz-adv-x="770" d="M552 0 L669 0 L669 542 C666 619 680 636 744 637 L761 637 L761 667 L541 667 L541 637 L558 637 C625 636 639 619 636 542 L636 296 L378 667 L13 667 L13 637 L59 637 C102 636 110 627 108 578 L108 125 C111 48 97 31 30 30 L13 30 L13 0 L233 0 L233 30 L217 30 C152 31 138 48 141 125 L141 597 L552 0 Z M402 815 L235 873 L213 845 L335 733 L468 733 L591 845 L569 873 L402 815 Z " />
<glyph glyph-name="ncaron" unicode="&#x148;" horiz-adv-x="673" d="M83 30 L17 30 L17 0 L339 0 L339 30 L280 30 L280 235 C280 301 317 353 366 353 C393 353 404 340 404 307 L404 30 L364 30 L364 0 L667 0 L667 30 L601 30 L601 304 C601 391 556 434 464 434 C422 434 381 423 348 404 C322 389 307 374 280 337 L280 433 C215 422 179 420 77 420 L17 420 L17 390 L83 390 L83 30 Z M212 654 L188 633 L297 500 L404 500 L513 633 L490 654 L351 586 L212 654 Z " />
<glyph glyph-name="Omacron" unicode="&#x14c;" horiz-adv-x="863" d="M431 684 C318 684 212 643 135 569 C70 506 37 427 37 334 C37 240 69 163 135 98 C210 25 317 -17 432 -17 C655 -17 827 134 827 329 C827 428 796 505 729 569 C651 644 548 684 431 684 L431 684 Z M274 441 C274 514 286 564 311 597 C335 630 383 651 432 651 C481 651 529 629 553 597 C578 564 590 514 590 441 L590 226 C590 153 578 103 553 70 C529 38 481 16 432 16 C383 16 335 37 311 70 C286 103 274 154 274 226 L274 441 Z M610 818 L254 818 L254 758 L610 758 L610 818 Z " />
<glyph glyph-name="omacron" unicode="&#x14d;" horiz-adv-x="668" d="M333 433 C151 433 29 343 29 210 C29 76 151 -13 334 -13 C515 -13 639 76 639 207 C639 344 519 433 333 433 L333 433 Z M242 277 C242 324 247 352 259 370 C272 388 300 400 335 400 C368 400 397 388 409 370 C421 353 426 323 426 277 L426 143 C426 97 421 67 409 50 C397 32 367 20 334 20 C301 20 272 32 259 50 C247 68 242 96 242 143 L242 277 Z M491 592 L176 592 L176 532 L491 532 L491 592 Z " />
<glyph glyph-name="Ohungarumlaut" unicode="&#x150;" horiz-adv-x="863" d="M431 684 C318 684 212 643 135 569 C70 506 37 427 37 334 C37 240 69 163 135 98 C210 25 317 -17 432 -17 C655 -17 827 134 827 329 C827 428 796 505 729 569 C651 644 548 684 431 684 L431 684 Z M274 441 C274 514 286 564 311 597 C335 630 383 651 432 651 C481 651 529 629 553 597 C578 564 590 514 590 441 L590 226 C590 153 578 103 553 70 C529 38 481 16 432 16 C383 16 335 37 311 70 C286 103 274 154 274 226 L274 441 Z M306 733 L490 826 C509 836 517 844 517 854 C517 867 505 873 480 873 L378 873 L284 750 L306 733 Z M544 733 L728 826 C747 836 755 844 755 854 C755 867 743 873 718 873 L616 873 L522 750 L544 733 Z " />
<glyph glyph-name="ohungarumlaut" unicode="&#x151;" horiz-adv-x="668" d="M333 433 C151 433 29 343 29 210 C29 76 151 -13 334 -13 C515 -13 639 76 639 207 C639 344 519 433 333 433 L333 433 Z M242 277 C242 324 247 352 259 370 C272 388 300 400 335 400 C368 400 397 388 409 370 C421 353 426 323 426 277 L426 143 C426 97 421 67 409 50 C397 32 367 20 334 20 C301 20 272 32 259 50 C247 68 242 96 242 143 L242 277 Z M217 500 L370 604 C387 615 393 623 393 633 C393 646 383 653 362 653 L263 653 L196 508 L217 500 Z M415 500 L568 604 C585 615 591 623 591 633 C591 646 581 653 560 653 L461 653 L394 508 L415 500 Z " />
<glyph glyph-name="OE" unicode="&#x152;" horiz-adv-x="1211" d="M559 667 C495 680 463 684 423 684 C212 684 37 525 37 333 C37 142 212 -17 423 -17 C463 -17 495 -13 559 0 L1171 0 L1171 222 L1134 222 C1108 84 1034 26 891 30 L781 30 L781 319 L820 319 C913 320 952 286 959 197 L1000 197 L1000 469 L959 469 C959 387 917 350 823 349 L781 349 L781 637 L858 637 C1001 640 1081 594 1108 494 L1145 494 L1145 667 L559 667 Z M274 390 C274 479 281 545 293 574 C314 624 360 651 424 651 C469 651 508 636 531 610 C552 587 561 552 561 498 L561 169 C561 115 552 80 531 57 C508 31 469 16 424 16 C366 16 322 39 299 81 C282 112 274 175 274 276 L274 390 Z " />
<glyph glyph-name="oe" unicode="&#x153;" horiz-adv-x="976" d="M922 152 C880 68 809 20 728 20 C640 20 610 66 610 198 L610 232 L950 232 C948 278 940 304 920 334 C875 402 800 433 678 433 C611 433 581 426 512 395 C447 425 410 433 339 433 C151 433 29 345 29 210 C29 75 151 -13 339 -13 C408 -13 447 -5 506 22 C564 -7 600 -14 684 -14 C756 -14 802 -4 847 23 C896 51 926 86 950 141 L922 152 Z M242 277 C242 323 247 352 258 370 C270 388 297 400 328 400 C359 400 387 388 398 370 C409 352 414 323 414 277 L414 143 C414 97 409 68 398 50 C387 32 359 20 329 20 C297 20 270 32 258 50 C247 68 242 96 242 143 L242 277 Z M610 262 C610 301 611 321 613 337 C620 381 636 400 669 400 C708 400 723 374 723 307 C723 265 721 262 693 262 L610 262 Z " />
<glyph glyph-name="Racute" unicode="&#x154;" horiz-adv-x="847" d="M330 338 L389 338 C462 338 488 308 488 222 L488 165 C488 100 502 57 532 29 C563 0 614 -17 670 -17 C726 -17 771 -4 829 30 L815 49 C793 40 784 38 771 38 C756 38 744 45 737 59 C732 69 731 74 730 131 L730 171 C729 278 670 331 530 349 C601 357 627 362 663 377 C719 401 753 450 753 510 C753 573 717 624 658 645 C609 663 573 667 448 667 L37 667 L37 637 L110 637 L110 30 L37 30 L37 0 L403 0 L403 30 L330 30 L330 338 Z M330 368 L330 637 L403 637 C505 637 535 606 535 502 C535 399 504 368 403 368 L330 368 Z M341 733 L555 826 C574 835 582 842 582 853 C582 867 570 873 545 873 L423 873 L316 753 L341 733 Z " />
<glyph glyph-name="racute" unicode="&#x155;" horiz-adv-x="574" d="M83 30 L17 30 L17 0 L366 0 L366 30 L280 30 L280 220 C280 279 284 297 304 322 C326 350 358 371 380 371 C390 371 398 366 398 359 C398 354 393 350 381 343 C360 332 350 316 350 296 C350 250 398 213 458 213 C525 213 569 253 569 314 C569 385 513 433 431 433 C363 433 316 408 280 351 L280 433 C215 422 179 420 77 420 L17 420 L17 390 L83 390 L83 30 Z M247 500 L436 604 C451 612 459 622 459 633 C459 646 449 653 428 653 L312 653 L222 511 L247 500 Z " />
<glyph glyph-name="Rcommaaccent" unicode="&#x156;" horiz-adv-x="847" d="M330 338 L389 338 C462 338 488 308 488 222 L488 165 C488 100 502 57 532 29 C563 0 614 -17 670 -17 C726 -17 771 -4 829 30 L815 49 C793 40 784 38 771 38 C756 38 744 45 737 59 C732 69 731 74 730 131 L730 171 C729 278 670 331 530 349 C601 357 627 362 663 377 C719 401 753 450 753 510 C753 573 717 624 658 645 C609 663 573 667 448 667 L37 667 L37 637 L110 637 L110 30 L37 30 L37 0 L403 0 L403 30 L330 30 L330 338 Z M330 368 L330 637 L403 637 C505 637 535 606 535 502 C535 399 504 368 403 368 L330 368 Z M400 -349 C480 -304 520 -245 520 -175 C520 -96 479 -49 410 -49 C352 -49 310 -84 310 -132 C310 -179 349 -216 398 -216 C416 -216 436 -210 449 -200 C463 -190 463 -190 467 -190 C473 -190 476 -195 476 -203 C476 -245 440 -291 380 -325 L400 -349 Z " />
<glyph glyph-name="rcommaaccent" unicode="&#x157;" horiz-adv-x="574" d="M83 30 L17 30 L17 0 L366 0 L366 30 L280 30 L280 220 C280 279 284 297 304 322 C326 350 358 371 380 371 C390 371 398 366 398 359 C398 354 393 350 381 343 C360 332 350 316 350 296 C350 250 398 213 458 213 C525 213 569 253 569 314 C569 385 513 433 431 433 C363 433 316 408 280 351 L280 433 C215 422 179 420 77 420 L17 420 L17 390 L83 390 L83 30 Z M173 -313 C242 -274 278 -222 278 -160 C278 -91 242 -49 182 -49 C130 -49 93 -80 93 -122 C93 -163 128 -196 171 -196 C186 -196 204 -190 215 -182 C227 -173 228 -173 231 -173 C236 -173 239 -178 239 -185 C239 -221 207 -261 154 -290 L173 -313 Z " />
<glyph glyph-name="Rcaron" unicode="&#x158;" horiz-adv-x="847" d="M330 338 L389 338 C462 338 488 308 488 222 L488 165 C488 100 502 57 532 29 C563 0 614 -17 670 -17 C726 -17 771 -4 829 30 L815 49 C793 40 784 38 771 38 C756 38 744 45 737 59 C732 69 731 74 730 131 L730 171 C729 278 670 331 530 349 C601 357 627 362 663 377 C719 401 753 450 753 510 C753 573 717 624 658 645 C609 663 573 667 448 667 L37 667 L37 637 L110 637 L110 30 L37 30 L37 0 L403 0 L403 30 L330 30 L330 338 Z M330 368 L330 637 L403 637 C505 637 535 606 535 502 C535 399 504 368 403 368 L330 368 Z M395 815 L228 873 L206 845 L329 733 L462 733 L585 845 L562 873 L395 815 Z " />
<glyph glyph-name="rcaron" unicode="&#x159;" horiz-adv-x="574" d="M83 30 L17 30 L17 0 L366 0 L366 30 L280 30 L280 220 C280 279 284 297 304 322 C326 350 358 371 380 371 C390 371 398 366 398 359 C398 354 393 350 381 343 C360 332 350 316 350 296 C350 250 398 213 458 213 C525 213 569 253 569 314 C569 385 513 433 431 433 C363 433 316 408 280 351 L280 433 C215 422 179 420 77 420 L17 420 L17 390 L83 390 L83 30 Z M156 654 L132 633 L241 500 L348 500 L457 633 L433 654 L294 586 L156 654 Z " />
<glyph glyph-name="Sacute" unicode="&#x15a;" horiz-adv-x="657" d="M567 667 L530 667 L498 613 C443 663 383 684 297 684 C215 684 150 659 101 608 C62 566 39 511 39 455 C39 364 100 304 232 263 L370 221 C462 192 490 168 490 118 C490 58 429 16 340 16 C252 16 170 57 122 125 C106 150 96 170 82 212 L45 212 L45 0 L82 0 L116 60 C181 6 245 -17 331 -17 C497 -17 613 90 613 242 C613 350 560 407 423 446 L289 485 C239 500 211 511 197 522 C178 538 168 556 168 577 C168 622 215 651 287 651 C367 651 440 620 485 567 C506 544 517 523 530 485 L567 485 L567 667 Z M284 733 L498 826 C517 835 525 842 525 853 C525 867 513 873 488 873 L366 873 L259 753 L284 733 Z " />
<glyph glyph-name="sacute" unicode="&#x15b;" horiz-adv-x="468" d="M415 420 L385 420 L358 401 C307 424 269 433 217 433 C106 433 34 370 34 272 C34 201 76 159 170 137 L300 107 C344 97 358 88 358 68 C358 38 320 20 259 20 C151 20 85 64 62 151 L33 151 L33 -9 L62 -9 L99 22 C162 -4 201 -13 251 -13 C369 -13 443 52 443 156 C443 199 430 236 406 260 C386 279 355 292 299 305 L200 328 C165 336 146 341 143 343 C134 348 129 355 129 363 C129 385 162 400 209 400 C260 400 311 386 346 361 C365 348 375 334 385 305 L415 305 L415 420 Z M188 500 L378 604 C393 613 401 622 401 633 C401 646 391 653 370 653 L253 653 L163 511 L188 500 Z " />
<glyph glyph-name="Scircumflex" unicode="&#x15c;" horiz-adv-x="657" d="M567 667 L530 667 L498 613 C443 663 383 684 297 684 C215 684 150 659 101 608 C62 566 39 511 39 455 C39 364 100 304 232 263 L370 221 C462 192 490 168 490 118 C490 58 429 16 340 16 C252 16 170 57 122 125 C106 150 96 170 82 212 L45 212 L45 0 L82 0 L116 60 C181 6 245 -17 331 -17 C497 -17 613 90 613 242 C613 350 560 407 423 446 L289 485 C239 500 211 511 197 522 C178 538 168 556 168 577 C168 622 215 651 287 651 C367 651 440 620 485 567 C506 544 517 523 530 485 L567 485 L567 667 Z M318 791 L485 733 L507 761 L384 873 L251 873 L128 761 L151 733 L318 791 Z " />
<glyph glyph-name="scircumflex" unicode="&#x15d;" horiz-adv-x="468" d="M415 420 L385 420 L358 401 C307 424 269 433 217 433 C106 433 34 370 34 272 C34 201 76 159 170 137 L300 107 C344 97 358 88 358 68 C358 38 320 20 259 20 C151 20 85 64 62 151 L33 151 L33 -9 L62 -9 L99 22 C162 -4 201 -13 251 -13 C369 -13 443 52 443 156 C443 199 430 236 406 260 C386 279 355 292 299 305 L200 328 C165 336 146 341 143 343 C134 348 129 355 129 363 C129 385 162 400 209 400 C260 400 311 386 346 361 C365 348 375 334 385 305 L415 305 L415 420 Z M389 500 L413 520 L304 653 L197 653 L88 520 L112 500 L250 567 L389 500 Z " />
<glyph glyph-name="Scedilla" unicode="&#x15e;" horiz-adv-x="657" d="M348 -16 C504 -10 613 96 613 242 C613 350 560 407 423 446 L289 485 C239 500 211 511 197 522 C178 538 168 556 168 577 C168 622 215 651 287 651 C367 651 440 620 485 567 C506 544 517 523 530 485 L567 485 L567 667 L530 667 L498 613 C443 663 383 684 297 684 C215 684 150 659 101 608 C62 566 39 511 39 455 C39 364 100 304 232 263 L370 221 C414 207 438 197 452 187 C478 169 490 147 490 118 C490 58 429 17 340 17 C252 17 170 58 122 126 C106 150 96 170 82 212 L45 212 L45 0 L82 0 L116 60 C171 13 233 -12 309 -16 L280 -93 C328 -99 343 -110 343 -137 C343 -167 320 -186 284 -186 C263 -186 242 -179 242 -172 C242 -170 243 -168 245 -165 C250 -158 253 -149 253 -141 C253 -123 239 -109 219 -109 C198 -109 180 -127 180 -148 C180 -190 229 -219 300 -219 C384 -219 443 -180 443 -123 C443 -83 411 -57 364 -57 C356 -57 345 -57 334 -58 L348 -16 Z " />
<glyph glyph-name="scedilla" unicode="&#x15f;" horiz-adv-x="468" d="M265 -13 C378 -7 443 56 443 156 C443 199 430 236 406 260 C386 279 356 292 299 305 L200 328 C165 336 146 341 143 343 C134 348 129 355 129 363 C129 385 162 400 209 400 C260 400 311 386 346 361 C365 348 375 334 385 305 L415 305 L415 420 L385 420 L358 401 C307 424 269 433 217 433 C106 433 34 370 34 272 C34 201 76 159 170 137 L300 107 C344 97 358 88 358 68 C358 38 320 20 259 20 C151 20 85 64 62 151 L33 151 L33 -9 L62 -9 L99 22 C150 0 187 -10 230 -13 L201 -84 C245 -90 257 -99 257 -125 C257 -151 238 -167 209 -167 C190 -167 170 -160 170 -154 C170 -153 171 -151 173 -148 C177 -141 180 -133 180 -126 C180 -108 167 -96 148 -96 C126 -96 110 -113 110 -135 C110 -173 155 -200 219 -200 C296 -200 351 -164 351 -112 C351 -72 323 -51 271 -51 C266 -51 259 -51 249 -52 L265 -13 Z " />
<glyph glyph-name="Scaron" unicode="&#x160;" horiz-adv-x="657" d="M313 815 L146 873 L124 845 L246 733 L379 733 L502 845 L480 873 L313 815 Z M567 667 L530 667 L498 613 C443 663 383 684 297 684 C215 684 150 659 101 608 C62 566 39 511 39 455 C39 364 100 304 232 263 L370 221 C462 192 490 168 490 118 C490 58 429 16 340 16 C252 16 170 57 122 125 C106 150 96 170 82 212 L45 212 L45 0 L82 0 L116 60 C181 6 245 -17 331 -17 C497 -17 613 90 613 242 C613 350 560 407 423 446 L289 485 C239 500 211 511 197 522 C178 538 168 556 168 577 C168 622 215 651 287 651 C367 651 440 620 485 567 C506 544 517 523 530 485 L567 485 L567 667 Z " />
<glyph glyph-name="scaron" unicode="&#x161;" horiz-adv-x="468" d="M104 654 L80 633 L189 500 L297 500 L406 633 L382 654 L243 586 L104 654 Z M415 420 L385 420 L358 401 C307 424 269 433 217 433 C106 433 34 370 34 272 C34 201 76 159 170 137 L300 107 C344 97 358 88 358 68 C358 38 320 20 259 20 C151 20 85 64 62 151 L33 151 L33 -9 L62 -9 L99 22 C162 -4 201 -13 251 -13 C369 -13 443 52 443 156 C443 199 430 236 406 260 C386 279 355 292 299 305 L200 328 C165 336 146 341 143 343 C134 348 129 355 129 363 C129 385 162 400 209 400 C260 400 311 386 346 361 C365 348 375 334 385 305 L415 305 L415 420 Z " />
<glyph glyph-name="Tcommaaccent" unicode="&#x162;" horiz-adv-x="670" d="M445 637 L463 637 C547 635 600 576 626 454 L662 454 L649 667 L20 667 L7 454 L44 454 C68 576 115 635 192 637 L225 637 L225 30 L120 30 L120 0 L549 0 L549 30 L445 30 L445 637 Z M327 -349 C405 -304 446 -245 446 -175 C446 -96 404 -49 336 -49 C278 -49 236 -84 236 -132 C236 -179 275 -216 324 -216 C342 -216 361 -210 375 -200 C388 -190 389 -190 393 -190 C398 -190 402 -195 402 -203 C402 -245 366 -291 306 -325 L327 -349 Z " />
<glyph glyph-name="tcommaaccent" unicode="&#x163;" horiz-adv-x="410" d="M290 390 L394 390 L394 420 L290 420 L290 630 L263 630 C192 530 139 484 5 409 L5 390 L93 390 L93 138 C93 66 99 42 125 19 C149 -3 184 -13 235 -13 C334 -13 388 24 410 107 L382 115 C364 69 347 51 323 51 C300 51 290 70 290 115 L290 390 Z M208 -313 C277 -274 313 -222 313 -160 C313 -91 277 -49 217 -49 C165 -49 128 -80 128 -122 C128 -163 163 -196 206 -196 C221 -196 239 -190 250 -182 C262 -173 263 -173 266 -173 C271 -173 274 -178 274 -185 C274 -221 242 -261 189 -290 L208 -313 Z " />
<glyph glyph-name="Tcaron" unicode="&#x164;" horiz-adv-x="670" d="M445 637 L463 637 C547 635 600 576 626 454 L662 454 L649 667 L20 667 L7 454 L44 454 C68 576 115 635 192 637 L225 637 L225 30 L120 30 L120 0 L549 0 L549 30 L445 30 L445 637 Z M334 815 L167 873 L145 845 L268 733 L401 733 L523 845 L501 873 L334 815 Z " />
<glyph glyph-name="tcaron" unicode="&#x165;" horiz-adv-x="505" d="M290 390 L394 390 L394 420 L290 420 L290 630 L263 630 C192 530 139 484 5 409 L5 390 L93 390 L93 138 C93 66 99 42 125 19 C149 -3 184 -13 235 -13 C334 -13 388 24 410 107 L382 115 C364 69 347 51 323 51 C300 51 290 70 290 115 L290 390 Z M386 496 C455 536 491 588 491 649 C491 718 455 760 395 760 C343 760 306 729 306 687 C306 646 341 613 384 613 C399 613 417 619 428 627 C440 636 441 636 444 636 C449 636 452 631 452 624 C452 588 420 548 368 519 L386 496 Z " />
<glyph glyph-name="utilde" unicode="&#x169;" horiz-adv-x="686" d="M416 0 L679 0 L679 30 L613 30 L613 433 C547 422 511 420 408 420 L330 420 L330 390 L416 390 L416 169 C416 130 411 112 395 95 C379 78 354 66 334 66 C302 66 288 84 288 126 L288 433 C221 422 186 420 83 420 L20 420 L20 390 L91 390 L91 134 C91 84 99 55 121 32 C147 3 192 -13 244 -13 C311 -13 368 15 416 71 L416 0 Z M506 643 C485 608 478 603 456 603 C447 603 443 604 423 611 L364 631 C351 636 327 640 315 640 C288 640 259 627 238 605 C223 590 212 572 196 535 L228 518 C241 545 253 555 271 555 C280 555 287 553 315 545 L380 525 C396 521 411 518 423 518 C472 518 512 557 536 629 L506 643 Z " />
<glyph glyph-name="Umacron" unicode="&#x16a;" horiz-adv-x="789" d="M319 637 L426 637 L426 667 L26 667 L26 637 L99 637 L99 219 C99 128 115 81 158 45 C210 2 283 -17 399 -17 C514 -17 586 1 635 42 C678 78 694 124 694 208 L694 542 C691 619 705 636 769 637 L786 637 L786 667 L566 667 L566 637 L583 637 C650 636 664 619 661 542 L661 209 C661 150 654 120 632 91 C604 51 551 28 488 28 C427 28 373 51 347 89 C328 117 319 159 319 219 L319 637 Z M595 818 L238 818 L238 758 L595 758 L595 818 Z " />
<glyph glyph-name="umacron" unicode="&#x16b;" horiz-adv-x="686" d="M416 0 L679 0 L679 30 L613 30 L613 433 C547 422 511 420 408 420 L330 420 L330 390 L416 390 L416 169 C416 130 411 112 395 95 C379 78 354 66 334 66 C302 66 288 84 288 126 L288 433 C221 422 186 420 83 420 L20 420 L20 390 L91 390 L91 134 C91 84 99 55 121 32 C147 3 192 -13 244 -13 C311 -13 368 15 416 71 L416 0 Z M511 592 L196 592 L196 532 L511 532 L511 592 Z " />
<glyph glyph-name="ubreve" unicode="&#x16d;" horiz-adv-x="686" d="M416 0 L679 0 L679 30 L613 30 L613 433 C547 422 511 420 408 420 L330 420 L330 390 L416 390 L416 169 C416 130 411 112 395 95 C379 78 354 66 334 66 C302 66 288 84 288 126 L288 433 C221 422 186 420 83 420 L20 420 L20 390 L91 390 L91 134 C91 84 99 55 121 32 C147 3 192 -13 244 -13 C311 -13 368 15 416 71 L416 0 Z M458 651 C442 608 410 589 351 589 C292 589 259 609 248 651 L206 651 L206 641 C206 612 215 583 231 558 C259 514 298 494 353 494 C408 494 449 515 474 557 C491 585 500 616 501 651 L458 651 Z " />
<glyph glyph-name="Uring" unicode="&#x16e;" horiz-adv-x="789" d="M319 637 L426 637 L426 667 L26 667 L26 637 L99 637 L99 219 C99 128 115 81 158 45 C210 2 283 -17 399 -17 C514 -17 586 1 635 42 C678 78 694 124 694 208 L694 542 C691 619 705 636 769 637 L786 637 L786 667 L566 667 L566 637 L583 637 C650 636 664 619 661 542 L661 209 C661 150 654 120 632 91 C604 51 551 28 488 28 C427 28 373 51 347 89 C328 117 319 159 319 219 L319 637 Z M437 903 C371 903 317 861 317 810 C317 759 371 717 438 717 C503 717 558 759 558 809 C558 862 505 903 437 903 L437 903 Z M438 850 C462 850 481 832 481 810 C481 788 461 770 438 770 C413 770 394 788 394 810 C394 832 413 850 438 850 L438 850 Z " />
<glyph glyph-name="uring" unicode="&#x16f;" horiz-adv-x="686" d="M416 0 L679 0 L679 30 L613 30 L613 433 C547 422 511 420 408 420 L330 420 L330 390 L416 390 L416 169 C416 130 411 112 395 95 C379 78 354 66 334 66 C302 66 288 84 288 126 L288 433 C221 422 186 420 83 420 L20 420 L20 390 L91 390 L91 134 C91 84 99 55 121 32 C147 3 192 -13 244 -13 C311 -13 368 15 416 71 L416 0 Z M360 679 C295 679 243 636 243 584 C243 532 295 489 360 489 C424 489 477 532 477 583 C477 637 426 679 360 679 L360 679 Z M360 626 C385 626 404 607 404 583 C404 561 384 542 360 542 C336 542 316 561 316 584 C316 607 336 626 360 626 L360 626 Z " />
<glyph glyph-name="Uhungarumlaut" unicode="&#x170;" horiz-adv-x="789" d="M319 637 L426 637 L426 667 L26 667 L26 637 L99 637 L99 219 C99 128 115 81 158 45 C210 2 283 -17 399 -17 C514 -17 586 1 635 42 C678 78 694 124 694 208 L694 542 C691 619 705 636 769 637 L786 637 L786 667 L566 667 L566 637 L583 637 C650 636 664 619 661 542 L661 209 C661 150 654 120 632 91 C604 51 551 28 488 28 C427 28 373 51 347 89 C328 117 319 159 319 219 L319 637 Z M289 733 L472 826 C493 836 500 844 500 854 C500 867 488 873 463 873 L361 873 L267 750 L289 733 Z M527 733 L710 826 C731 836 738 844 738 854 C738 867 725 873 701 873 L599 873 L505 750 L527 733 Z " />
<glyph glyph-name="uhungarumlaut" unicode="&#x171;" horiz-adv-x="686" d="M416 0 L679 0 L679 30 L613 30 L613 433 C547 422 511 420 408 420 L330 420 L330 390 L416 390 L416 169 C416 130 411 112 395 95 C379 78 354 66 334 66 C302 66 288 84 288 126 L288 433 C221 422 186 420 83 420 L20 420 L20 390 L91 390 L91 134 C91 84 99 55 121 32 C147 3 192 -13 244 -13 C311 -13 368 15 416 71 L416 0 Z M241 500 L394 604 C411 616 417 623 417 633 C417 646 407 653 386 653 L287 653 L220 508 L241 500 Z M439 500 L592 604 C609 616 615 623 615 633 C615 646 605 653 584 653 L485 653 L418 508 L439 500 Z " />
<glyph glyph-name="Uogonek" unicode="&#x172;" horiz-adv-x="789" d="M694 542 C691 619 705 636 769 637 L786 637 L786 667 L565 667 L565 637 L582 637 C650 636 664 619 661 542 L661 209 C661 150 654 121 632 91 C602 51 550 28 488 28 C426 28 373 51 347 89 C328 117 319 159 319 219 L319 637 L425 637 L425 667 L26 667 L26 637 L99 637 L99 219 C99 128 115 81 158 45 C210 2 284 -17 394 -17 C427 -17 455 -15 484 -12 C432 -44 408 -75 408 -113 C408 -158 449 -188 511 -188 C547 -188 587 -178 631 -159 L631 -120 C600 -129 584 -132 565 -132 C528 -132 506 -116 506 -88 C506 -63 536 -25 583 11 C666 50 695 102 694 208 L694 542 Z " />
<glyph glyph-name="uogonek" unicode="&#x173;" horiz-adv-x="686" d="M678 0 L678 30 L613 30 L613 433 C547 422 511 420 408 420 L330 420 L330 390 L416 390 L416 169 C416 130 411 112 395 95 C379 78 354 66 334 66 C302 66 288 84 288 126 L288 433 C221 422 186 420 83 420 L20 420 L20 390 L91 390 L91 134 C91 84 99 55 121 32 C147 3 192 -13 244 -13 C311 -13 368 15 416 71 L416 0 L563 0 C539 -11 525 -18 514 -24 C468 -49 446 -76 446 -109 C446 -152 485 -181 544 -181 C578 -181 612 -172 658 -152 L658 -116 C628 -124 613 -127 597 -127 C562 -127 538 -112 538 -90 C538 -60 564 -28 610 0 L678 0 Z " />
<glyph glyph-name="Wcircumflex" unicode="&#x174;" horiz-adv-x="1117" d="M878 264 L726 637 L798 637 L798 667 L396 667 L396 637 L461 637 L543 437 L468 246 L310 637 L371 637 L371 667 L-13 667 L-13 637 L48 637 L316 0 L408 0 L563 390 L727 0 L819 0 L1025 569 C1044 624 1055 635 1096 637 L1131 637 L1131 667 L920 667 L920 637 L941 637 C981 637 994 630 994 607 C994 596 991 584 986 569 L878 264 Z M597 791 L764 733 L786 761 L663 873 L530 873 L408 761 L430 733 L597 791 Z " />
<glyph glyph-name="Ycircumflex" unicode="&#x176;" horiz-adv-x="736" d="M493 296 L644 585 C664 625 682 637 717 637 L754 637 L754 667 L540 667 L540 637 L564 637 C600 637 613 631 613 615 C613 608 610 600 602 584 L475 337 L315 637 L380 637 L380 667 L-38 667 L-38 637 L29 637 L273 250 L273 30 L147 30 L147 0 L597 0 L597 30 L493 30 L493 296 Z M385 791 L552 733 L575 761 L452 873 L319 873 L196 761 L218 733 L385 791 Z " />
<glyph glyph-name="ycircumflex" unicode="&#x177;" horiz-adv-x="568" d="M267 -8 L220 -99 C213 -112 207 -118 201 -118 C196 -118 196 -118 173 -101 C157 -89 136 -83 114 -83 C59 -83 15 -125 15 -178 C15 -226 51 -260 102 -260 C138 -260 167 -245 191 -214 C206 -194 206 -194 244 -123 L498 344 C516 377 532 388 560 390 L579 390 L579 420 L412 420 L412 390 L430 390 C456 390 466 385 466 373 C466 367 462 356 456 344 L386 212 L287 390 L336 390 L336 420 L-11 420 L-11 390 L37 390 L267 -8 Z M438 500 L462 520 L352 653 L245 653 L136 520 L160 500 L299 567 L438 500 Z " />
<glyph glyph-name="Ydieresis" unicode="&#x178;" horiz-adv-x="736" d="M253 891 C208 891 172 855 172 810 C172 764 208 728 254 728 C298 728 335 764 335 809 C335 855 299 891 253 891 L253 891 Z M529 891 C484 891 448 855 448 810 C448 764 484 728 530 728 C574 728 611 764 611 809 C611 855 575 891 529 891 L529 891 Z M493 296 L644 585 C664 625 682 637 717 637 L754 637 L754 667 L540 667 L540 637 L564 637 C600 637 613 631 613 615 C613 608 610 600 602 584 L475 337 L315 637 L380 637 L380 667 L-38 667 L-38 637 L29 637 L273 250 L273 30 L147 30 L147 0 L597 0 L597 30 L493 30 L493 296 Z " />
<glyph glyph-name="Zacute" unicode="&#x179;" horiz-adv-x="679" d="M653 223 L616 223 C607 106 515 24 400 30 L287 30 L642 640 L642 667 L54 667 L46 487 L83 487 C111 599 175 643 303 637 L365 637 L15 30 L15 0 L642 0 L653 223 Z M322 733 L535 826 C554 834 562 842 562 853 C562 867 550 873 526 873 L403 873 L296 753 L322 733 Z " />
<glyph glyph-name="zacute" unicode="&#x17a;" horiz-adv-x="564" d="M509 178 C490 69 446 28 349 30 L278 30 L530 376 L530 420 L53 420 L49 252 L78 252 C99 348 143 392 219 390 L278 390 L29 39 L29 0 L530 0 L538 178 L509 178 Z M278 500 L468 604 C482 612 490 622 490 633 C490 646 480 653 460 653 L343 653 L253 511 L278 500 Z " />
<glyph glyph-name="Zdotaccent" unicode="&#x17b;" horiz-adv-x="679" d="M653 223 L616 223 C607 106 515 24 400 30 L287 30 L642 640 L642 667 L54 667 L46 487 L83 487 C111 599 175 643 303 637 L365 637 L15 30 L15 0 L642 0 L653 223 Z M361 891 C316 891 280 855 280 810 C280 764 316 728 362 728 C406 728 443 764 443 809 C443 855 407 891 361 891 L361 891 Z " />
<glyph glyph-name="zdotaccent" unicode="&#x17c;" horiz-adv-x="564" d="M509 178 C490 69 446 28 349 30 L278 30 L530 376 L530 420 L53 420 L49 252 L78 252 C99 348 143 392 219 390 L278 390 L29 39 L29 0 L530 0 L538 178 L509 178 Z M306 655 C262 655 227 619 227 576 C227 531 263 496 307 496 C350 496 386 531 386 575 C386 620 351 655 306 655 L306 655 Z " />
<glyph glyph-name="Zcaron" unicode="&#x17d;" horiz-adv-x="679" d="M367 815 L200 873 L178 845 L300 733 L434 733 L556 845 L534 873 L367 815 Z M653 223 L616 223 C607 106 515 24 400 30 L287 30 L642 640 L642 667 L54 667 L46 487 L83 487 C111 599 175 643 303 637 L365 637 L15 30 L15 0 L642 0 L653 223 Z " />
<glyph glyph-name="zcaron" unicode="&#x17e;" horiz-adv-x="564" d="M168 654 L144 633 L253 500 L361 500 L470 633 L446 654 L307 586 L168 654 Z M509 178 C490 69 446 28 349 30 L278 30 L530 376 L530 420 L53 420 L49 252 L78 252 C99 348 143 392 219 390 L278 390 L29 39 L29 0 L530 0 L538 178 L509 178 Z " />
<glyph glyph-name="florin" unicode="&#x192;" horiz-adv-x="653" d="M409 350 L434 513 C448 601 481 648 528 648 C549 648 562 643 562 634 C562 629 558 624 549 616 C517 590 509 578 509 555 C509 512 545 481 593 481 C641 481 675 512 675 556 C675 627 608 681 522 681 C458 681 390 653 337 604 C277 549 251 494 221 350 L123 350 L119 320 L214 320 C205 269 195 201 179 57 L161 -143 C154 -218 130 -247 76 -247 C51 -247 37 -241 37 -230 C37 -227 40 -223 44 -221 C88 -200 102 -183 102 -149 C102 -105 65 -72 16 -72 C-34 -72 -67 -104 -67 -152 C-67 -219 1 -280 77 -280 C163 -280 247 -219 300 -117 C338 -44 364 55 387 209 L404 320 L536 320 L540 350 L409 350 Z " />
<glyph glyph-name="uni01CD" unicode="&#x1cd;" horiz-adv-x="756" d="M382 180 L449 30 L372 30 L372 0 L770 0 L770 30 L707 30 L421 667 L337 667 L90 93 C69 45 51 31 5 30 L-22 30 L-22 0 L191 0 L191 30 L162 30 C129 30 115 36 115 52 C115 57 117 63 120 71 L166 180 L382 180 Z M178 210 L272 428 L370 210 L178 210 Z M381 815 L214 873 L191 845 L314 733 L447 733 L570 845 L548 873 L381 815 Z " />
<glyph glyph-name="uni01CE" unicode="&#x1ce;" horiz-adv-x="623" d="M351 240 C267 236 207 226 143 207 C66 183 29 147 29 93 C29 31 84 -13 160 -13 C236 -13 291 6 359 56 C385 7 422 -13 489 -13 C549 -13 595 10 628 56 L600 74 C583 54 575 49 566 49 C554 49 548 57 548 74 L548 322 C548 410 499 433 315 433 C239 433 198 428 156 413 C92 391 57 355 57 312 C57 268 98 240 162 240 C227 240 276 270 276 311 C276 330 263 347 238 358 C223 365 220 368 220 373 C220 385 247 396 278 396 C324 396 351 375 351 339 L351 240 Z M351 118 C351 83 330 63 292 63 C252 63 227 86 227 122 C227 171 268 205 326 205 C333 205 339 205 351 203 L351 118 Z M194 654 L170 633 L279 500 L386 500 L495 633 L471 654 L332 586 L194 654 Z " />
<glyph glyph-name="uni01D3" unicode="&#x1d3;" horiz-adv-x="789" d="M319 637 L426 637 L426 667 L26 667 L26 637 L99 637 L99 219 C99 128 115 81 158 45 C210 2 283 -17 399 -17 C514 -17 586 1 635 42 C678 78 694 124 694 208 L694 542 C691 619 705 636 769 637 L786 637 L786 667 L566 667 L566 637 L583 637 C650 636 664 619 661 542 L661 209 C661 150 654 120 632 91 C604 51 551 28 488 28 C427 28 373 51 347 89 C328 117 319 159 319 219 L319 637 Z M427 815 L260 873 L238 845 L360 733 L494 733 L616 845 L594 873 L427 815 Z " />
<glyph glyph-name="uni01D4" unicode="&#x1d4;" horiz-adv-x="686" d="M416 0 L679 0 L679 30 L613 30 L613 433 C547 422 511 420 408 420 L330 420 L330 390 L416 390 L416 169 C416 130 411 112 395 95 C379 78 354 66 334 66 C302 66 288 84 288 126 L288 433 C221 422 186 420 83 420 L20 420 L20 390 L91 390 L91 134 C91 84 99 55 121 32 C147 3 192 -13 244 -13 C311 -13 368 15 416 71 L416 0 Z M217 654 L193 633 L302 500 L409 500 L518 633 L494 654 L356 586 L217 654 Z " />
<glyph glyph-name="Gcaron" unicode="&#x1e6;" horiz-adv-x="821" d="M744 248 L810 248 L810 278 L394 278 L394 248 L524 248 L524 178 C524 95 523 85 508 61 C491 33 456 16 416 16 C358 16 307 51 291 102 C280 137 274 198 274 266 L274 374 C274 485 280 529 301 568 C329 621 380 651 441 651 C517 651 600 607 641 545 C658 520 667 497 676 455 L709 455 L709 667 L676 667 L637 629 C554 672 510 684 433 684 C208 684 37 533 37 333 C37 258 61 184 103 126 C172 32 279 -17 417 -17 C558 -17 662 25 744 114 L744 248 Z M432 815 L265 873 L243 845 L366 733 L499 733 L621 845 L599 873 L432 815 Z " />
<glyph glyph-name="gcaron" unicode="&#x1e7;" horiz-adv-x="671" d="M210 45 C122 45 90 55 90 83 C90 103 115 119 147 119 C156 119 165 118 173 116 C231 100 255 97 308 97 C462 97 576 166 576 260 C576 294 569 310 538 353 C544 359 547 361 553 361 C563 361 568 357 578 338 C588 318 602 310 624 310 C655 310 680 334 680 364 C680 402 647 433 609 433 C573 433 543 415 513 375 C449 416 391 433 310 433 C157 433 39 358 39 260 C39 210 62 176 115 145 C85 130 72 121 58 107 C35 82 21 44 21 5 C21 -50 42 -85 93 -114 C48 -131 28 -151 28 -178 C28 -230 134 -263 303 -263 C400 -263 476 -251 523 -229 C592 -196 632 -142 632 -79 C632 -46 621 -17 601 4 C572 35 532 45 439 45 L210 45 Z M241 319 C241 379 258 399 307 399 C356 399 373 379 373 319 L373 207 C373 148 356 127 307 127 C258 127 241 147 241 207 L241 319 Z M427 -131 C496 -131 512 -137 512 -163 C512 -203 431 -231 314 -231 C193 -231 122 -206 122 -165 C122 -153 129 -141 138 -136 C146 -131 146 -131 183 -131 L427 -131 Z M173 654 L149 633 L259 500 L366 500 L475 633 L451 654 L312 586 L173 654 Z " />
<glyph glyph-name="Scommaaccent" unicode="&#x218;" horiz-adv-x="657" d="M567 667 L530 667 L498 613 C443 663 383 684 297 684 C215 684 150 659 101 608 C62 566 39 511 39 455 C39 364 100 304 232 263 L370 221 C462 192 490 168 490 118 C490 58 429 16 340 16 C252 16 170 57 122 125 C106 150 96 170 82 212 L45 212 L45 0 L82 0 L116 60 C181 6 245 -17 331 -17 C497 -17 613 90 613 242 C613 350 560 407 423 446 L289 485 C239 500 211 511 197 522 C178 538 168 556 168 577 C168 622 215 651 287 651 C367 651 440 620 485 567 C506 544 517 523 530 485 L567 485 L567 667 Z M308 -349 C386 -304 427 -245 427 -175 C427 -96 386 -49 317 -49 C259 -49 217 -84 217 -132 C217 -179 256 -216 305 -216 C323 -216 343 -210 356 -200 C370 -190 370 -190 374 -190 C380 -190 383 -195 383 -203 C383 -245 347 -291 287 -325 L308 -349 Z " />
<glyph glyph-name="scommaaccent" unicode="&#x219;" horiz-adv-x="468" d="M415 420 L385 420 L358 401 C307 424 269 433 217 433 C106 433 34 370 34 272 C34 201 76 159 170 137 L300 107 C344 97 358 88 358 68 C358 38 320 20 259 20 C151 20 85 64 62 151 L33 151 L33 -9 L62 -9 L99 22 C162 -4 201 -13 251 -13 C369 -13 443 52 443 156 C443 199 430 236 406 260 C386 279 355 292 299 305 L200 328 C165 336 146 341 143 343 C134 348 129 355 129 363 C129 385 162 400 209 400 C260 400 311 386 346 361 C365 348 375 334 385 305 L415 305 L415 420 Z M225 -313 C294 -273 330 -221 330 -160 C330 -91 294 -49 234 -49 C182 -49 145 -80 145 -122 C145 -163 180 -196 223 -196 C238 -196 256 -190 267 -182 C279 -173 280 -173 283 -173 C288 -173 291 -178 291 -185 C291 -221 259 -261 207 -290 L225 -313 Z " />
<glyph glyph-name="uni021A" unicode="&#x21a;" horiz-adv-x="670" d="M445 637 L463 637 C547 635 600 576 626 454 L662 454 L649 667 L20 667 L7 454 L44 454 C68 576 115 635 192 637 L225 637 L225 30 L120 30 L120 0 L549 0 L549 30 L445 30 L445 637 Z M327 -349 C405 -304 446 -245 446 -175 C446 -96 404 -49 336 -49 C278 -49 236 -84 236 -132 C236 -179 275 -216 324 -216 C342 -216 361 -210 375 -200 C388 -190 389 -190 393 -190 C398 -190 402 -195 402 -203 C402 -245 366 -291 306 -325 L327 -349 Z " />
<glyph glyph-name="uni021B" unicode="&#x21b;" horiz-adv-x="410" d="M290 390 L394 390 L394 420 L290 420 L290 630 L263 630 C192 530 139 484 5 409 L5 390 L93 390 L93 138 C93 66 99 42 125 19 C149 -3 184 -13 235 -13 C334 -13 388 24 410 107 L382 115 C364 69 347 51 323 51 C300 51 290 70 290 115 L290 390 Z M208 -313 C277 -274 313 -222 313 -160 C313 -91 277 -49 217 -49 C165 -49 128 -80 128 -122 C128 -163 163 -196 206 -196 C221 -196 239 -190 250 -182 C262 -173 263 -173 266 -173 C271 -173 274 -178 274 -185 C274 -221 242 -261 189 -290 L208 -313 Z " />
<glyph glyph-name="circumflex" unicode="&#x2c6;" horiz-adv-x="517" d="M398 500 L422 520 L312 653 L205 653 L96 520 L120 500 L259 567 L398 500 Z " />
<glyph glyph-name="caron" unicode="&#x2c7;" horiz-adv-x="517" d="M120 654 L96 633 L205 500 L312 500 L422 633 L398 654 L259 586 L120 654 Z " />
<glyph glyph-name="uni02C9" unicode="&#x2c9;" horiz-adv-x="381" d="M348 592 L33 592 L33 532 L348 532 L348 592 Z " />
<glyph glyph-name="breve" unicode="&#x2d8;" horiz-adv-x="521" d="M365 651 C349 608 316 589 258 589 C199 589 166 609 155 651 L113 651 C113 618 115 605 126 580 C151 523 197 494 260 494 C315 494 356 515 381 557 C398 585 407 616 408 651 L365 651 Z " />
<glyph glyph-name="dotaccent" unicode="&#x2d9;" horiz-adv-x="534" d="M267 655 C223 655 188 619 188 576 C188 531 224 496 268 496 C311 496 347 531 347 575 C347 620 312 655 267 655 L267 655 Z " />
<glyph glyph-name="ring" unicode="&#x2da;" horiz-adv-x="527" d="M263 679 C198 679 146 636 146 584 C146 532 198 489 263 489 C327 489 380 532 380 583 C380 637 329 679 263 679 L263 679 Z M263 626 C288 626 307 607 307 583 C307 561 287 542 263 542 C239 542 219 561 219 584 C219 607 239 626 263 626 L263 626 Z " />
<glyph glyph-name="ogonek" unicode="&#x2db;" horiz-adv-x="550" d="M432 0 C388 -20 377 -26 360 -37 C332 -55 314 -83 314 -109 C314 -152 353 -181 412 -181 C446 -181 481 -172 527 -152 L527 -116 C496 -124 481 -127 465 -127 C430 -127 406 -112 406 -90 C406 -60 433 -26 478 0 L432 0 Z " />
<glyph glyph-name="tilde" unicode="&#x2dc;" horiz-adv-x="516" d="M398 643 C377 608 370 603 348 603 C340 603 335 604 315 611 L257 631 C243 636 219 640 207 640 C180 640 151 627 130 605 C115 590 104 572 88 535 L120 518 C133 545 145 555 163 555 C172 555 179 553 207 545 L273 525 C288 521 303 518 315 518 C364 518 404 557 428 629 L398 643 Z " />
<glyph glyph-name="hungarumlaut" unicode="&#x2dd;" horiz-adv-x="530" d="M140 500 L293 604 C310 615 316 623 316 633 C316 646 306 653 285 653 L186 653 L119 508 L140 500 Z M338 500 L491 604 C508 615 514 623 514 633 C514 646 504 653 483 653 L384 653 L317 508 L338 500 Z " />
<glyph glyph-name="Wdieresis" unicode="&#x1e84;" horiz-adv-x="1117" d="M878 264 L726 637 L798 637 L798 667 L396 667 L396 637 L461 637 L543 437 L468 246 L310 637 L371 637 L371 667 L-13 667 L-13 637 L48 637 L316 0 L408 0 L563 390 L727 0 L819 0 L1025 569 C1044 624 1055 635 1096 637 L1131 637 L1131 667 L920 667 L920 637 L941 637 C981 637 994 630 994 607 C994 596 991 584 986 569 L878 264 Z M448 891 C403 891 367 855 367 810 C367 764 403 728 449 728 C493 728 530 764 530 809 C530 855 494 891 448 891 L448 891 Z M724 891 C679 891 643 855 643 810 C643 764 679 728 725 728 C769 728 806 764 806 809 C806 855 770 891 724 891 L724 891 Z " />
<glyph glyph-name="uni2011" unicode="&#x2011;" horiz-adv-x="287" d="M287 149 L287 277 L0 277 L0 149 L287 149 Z " />
<glyph glyph-name="figuredash" unicode="&#x2012;" horiz-adv-x="653" d="M608 149 L608 277 L45 277 L45 149 L608 149 Z " />
<glyph glyph-name="endash" unicode="&#x2013;" horiz-adv-x="653" d="M608 149 L608 277 L45 277 L45 149 L608 149 Z " />
<glyph glyph-name="emdash" unicode="&#x2014;" horiz-adv-x="863" d="M863 149 L863 277 L0 277 L0 149 L863 149 Z " />
<glyph glyph-name="afii00208" unicode="&#x2015;" horiz-adv-x="863" d="M863 149 L863 277 L0 277 L0 149 L863 149 Z " />
<glyph glyph-name="quoteleft" unicode="&#x2018;" horiz-adv-x="298" d="M186 687 C88 631 37 556 37 469 C37 383 80 333 153 333 C216 333 262 370 262 422 C262 471 219 511 165 511 C145 511 124 504 110 494 C95 483 95 483 91 483 C85 483 81 489 81 498 C81 554 128 616 206 663 L186 687 Z " />
<glyph glyph-name="quoteright" unicode="&#x2019;" horiz-adv-x="298" d="M112 327 C210 382 261 457 261 544 C261 630 218 680 146 680 C83 680 37 643 37 591 C37 542 80 502 134 502 C153 502 174 508 188 519 C202 529 203 530 207 530 C213 530 217 525 217 515 C217 459 171 398 93 350 L112 327 Z " />
<glyph glyph-name="quotesinglbase" unicode="&#x201a;" horiz-adv-x="298" d="M112 -183 C210 -127 261 -52 261 35 C261 120 218 171 146 171 C82 171 37 134 37 82 C37 33 80 -7 134 -7 C153 -7 174 -1 188 9 C203 20 203 20 208 20 C213 20 217 14 217 5 C217 -51 171 -112 93 -159 L112 -183 Z " />
<glyph glyph-name="quotedblleft" unicode="&#x201c;" horiz-adv-x="567" d="M455 687 C357 631 306 557 306 470 C306 383 349 333 422 333 C485 333 531 370 531 422 C531 471 487 511 434 511 C414 511 393 505 379 495 C365 485 364 484 360 484 C354 484 350 490 350 499 C350 554 397 616 475 663 L455 687 Z M186 687 C88 631 37 556 37 470 C37 383 80 333 153 333 C216 333 262 370 262 422 C262 471 219 511 165 511 C145 511 124 505 110 494 C96 484 95 483 91 483 C85 483 81 489 81 498 C81 554 128 616 206 663 L186 687 Z " />
<glyph glyph-name="quotedblright" unicode="&#x201d;" horiz-adv-x="567" d="M112 327 C210 382 261 457 261 544 C261 630 218 680 146 680 C83 680 37 643 37 591 C37 542 80 502 134 502 C153 502 174 508 188 519 C202 529 203 530 207 530 C213 530 217 525 217 515 C217 459 171 398 93 350 L112 327 Z M382 327 C480 382 531 457 531 544 C531 630 488 680 415 680 C352 680 306 643 306 591 C306 542 349 502 403 502 C423 502 444 509 458 519 C472 529 473 530 477 530 C483 530 487 525 487 515 C487 459 440 397 362 350 L382 327 Z " />
<glyph glyph-name="quotedblbase" unicode="&#x201e;" horiz-adv-x="567" d="M112 -183 C210 -127 261 -52 261 35 C261 120 218 171 146 171 C82 171 37 134 37 82 C37 33 80 -7 134 -7 C153 -7 174 -1 188 9 C203 20 203 20 208 20 C213 20 217 14 217 5 C217 -51 171 -112 93 -159 L112 -183 Z M382 -183 C480 -127 531 -52 531 34 C531 120 488 171 415 171 C352 171 306 134 306 82 C306 33 349 -7 403 -7 C423 -7 444 -1 458 9 C473 20 473 20 477 20 C483 20 487 14 487 5 C487 -50 440 -112 362 -159 L382 -183 Z " />
<glyph glyph-name="dagger" unicode="&#x2020;" horiz-adv-x="770" d="M401 314 L547 264 C600 246 623 241 652 241 C709 241 745 274 745 327 C745 381 705 419 650 419 C625 419 608 415 551 396 L401 345 L449 450 C480 517 491 553 491 588 C491 639 451 670 385 670 C319 670 279 639 279 588 C279 553 290 517 321 450 L369 345 L219 396 C162 415 145 419 121 419 C64 419 25 381 25 327 C25 274 61 241 118 241 C147 241 170 246 223 264 L369 314 L326 142 C267 -96 264 -108 264 -152 C264 -225 310 -270 385 -270 C460 -270 506 -225 506 -152 C506 -108 503 -95 444 142 L401 314 Z " />
<glyph glyph-name="daggerdbl" unicode="&#x2021;" horiz-adv-x="770" d="M401 314 L547 264 C601 246 623 241 652 241 C709 241 745 274 745 327 C745 381 705 419 650 419 C625 419 608 415 551 396 L401 345 L449 450 C480 516 491 553 491 588 C491 639 451 670 385 670 C319 670 279 639 279 588 C279 553 290 516 321 450 L369 345 L219 396 C162 415 145 419 121 419 C64 419 25 381 25 327 C25 274 61 241 118 241 C147 241 169 246 223 264 L369 314 L314 200 L369 86 L223 136 C169 154 147 159 118 159 C61 159 25 126 25 73 C25 19 65 -19 120 -19 C145 -19 162 -15 219 4 L369 55 L321 -50 C290 -116 279 -153 279 -188 C279 -239 319 -270 385 -270 C451 -270 491 -239 491 -188 C491 -153 480 -116 449 -50 L401 55 L551 4 C608 -15 625 -19 649 -19 C705 -19 745 19 745 73 C745 126 709 159 652 159 C623 159 601 154 547 136 L401 86 L456 200 L401 314 Z " />
<glyph glyph-name="bullet" unicode="&#x2022;" horiz-adv-x="733" d="M368 480 C282 480 215 418 215 340 C215 263 283 200 366 200 C450 200 517 263 517 340 C517 417 450 480 368 480 L368 480 Z " />
<glyph glyph-name="ellipsis" unicode="&#x2026;" horiz-adv-x="924" d="M153 180 C97 180 51 138 51 86 C51 35 97 -7 154 -7 C210 -7 256 35 256 85 C256 138 211 180 153 180 L153 180 Z M461 180 C405 180 359 138 359 86 C359 35 405 -7 462 -7 C518 -7 564 35 564 85 C564 138 519 180 461 180 L461 180 Z M769 180 C713 180 667 138 667 86 C667 35 713 -7 770 -7 C826 -7 872 35 872 85 C872 138 827 180 769 180 L769 180 Z " />
<glyph glyph-name="perthousand" unicode="&#x2030;" horiz-adv-x="1381" d="M214 668 C106 668 25 593 25 495 C25 397 106 322 214 322 C320 322 403 396 403 492 C403 594 323 668 214 668 L214 668 Z M166 579 C166 614 166 617 173 626 C179 636 195 642 214 642 C233 642 249 636 256 626 C262 617 262 614 262 579 L262 411 C262 376 262 373 256 364 C249 354 233 348 214 348 C195 348 179 354 173 364 C166 373 166 376 166 411 L166 579 Z M678 667 L621 667 L261 0 L317 0 L678 667 Z M717 339 C605 339 521 264 521 166 C521 67 605 -8 718 -8 C828 -8 914 66 914 163 C914 265 831 339 717 339 L717 339 Z M662 250 C662 285 662 288 670 297 C677 307 695 313 717 313 C740 313 758 307 766 297 C772 288 773 285 773 250 L773 81 C773 46 773 43 766 34 C758 24 740 18 718 18 C695 18 677 24 670 34 C662 43 662 46 662 81 L662 250 Z M1167 339 C1059 339 978 264 978 166 C978 67 1059 -8 1167 -8 C1273 -8 1356 67 1356 163 C1356 265 1276 339 1167 339 L1167 339 Z M1119 250 C1119 285 1119 288 1126 297 C1132 307 1147 313 1167 313 C1186 313 1202 307 1209 297 C1215 288 1215 285 1215 250 L1215 81 C1215 46 1215 43 1209 34 C1202 24 1186 18 1167 18 C1148 18 1132 24 1126 34 C1119 43 1119 46 1119 81 L1119 250 Z " />
<glyph glyph-name="guilsinglleft" unicode="&#x2039;" horiz-adv-x="335" d="M171 208 L287 333 L158 333 L40 208 L158 88 L287 88 L171 208 Z " />
<glyph glyph-name="guilsinglright" unicode="&#x203a;" horiz-adv-x="335" d="M165 213 L48 88 L178 88 L295 213 L178 333 L48 333 L165 213 Z " />
<glyph glyph-name="uni203E" unicode="&#x203e;" horiz-adv-x="500" d="M0 847 L0 807 L500 807 L500 847 L0 847 Z " />
<glyph glyph-name="fraction" unicode="&#x2044;" horiz-adv-x="112" d="M265 667 L208 667 L-153 0 L-96 0 L265 667 Z " />
<glyph glyph-name="franc" unicode="&#x20a3;" horiz-adv-x="1118" d="M330 319 L372 319 C466 320 505 286 513 197 L546 197 L546 469 L513 469 C513 388 470 350 375 349 L330 349 L330 637 L404 637 C549 639 629 589 650 483 L683 483 L683 667 L37 667 L37 637 L110 637 L110 30 L37 30 L37 0 L462 0 L462 30 L330 30 L330 319 Z M647 30 L581 30 L581 0 L930 0 L930 30 L844 30 L844 180 C844 239 848 257 868 282 C890 310 922 331 944 331 C954 331 962 326 962 319 C962 314 957 310 945 303 C924 292 914 276 914 256 C914 210 962 173 1022 173 C1089 173 1133 213 1133 274 C1133 345 1077 393 995 393 C927 393 880 368 844 311 L844 393 C779 382 743 380 641 380 L581 380 L581 350 L647 350 L647 30 Z " />
<glyph glyph-name="Euro" unicode="&#x20ac;" horiz-adv-x="817" d="M81 348 C80 340 80 333 80 326 L80 318 L44 318 L30 288 L82 288 C100 107 263 -17 481 -17 C574 -17 621 -2 705 54 L729 0 L768 0 L786 212 L748 212 C732 164 718 138 685 102 C633 42 576 16 502 16 C436 16 386 40 355 86 C327 127 317 173 317 252 L317 288 L580 288 L594 318 L317 318 L317 348 L607 348 L622 378 L317 378 L317 412 C317 489 330 542 359 583 C390 627 439 651 498 651 C572 651 640 616 680 557 C695 533 705 513 718 473 L757 473 L754 667 L715 667 L683 619 C622 667 568 684 479 684 C267 684 115 566 84 378 L44 378 L30 348 L81 348 Z " />
<glyph glyph-name="trademark" unicode="&#x2122;" horiz-adv-x="1036" d="M288 643 L308 643 C358 642 387 610 404 541 L433 541 L424 667 L26 667 L18 541 L47 541 C61 610 88 642 133 643 L149 643 L149 311 L86 311 L86 286 L364 286 L364 311 L288 311 L288 643 Z M819 311 L753 311 L753 286 L1002 286 L1002 311 L958 311 L958 642 L1002 642 L1002 667 L808 667 L726 486 L657 667 L448 667 L448 642 L492 642 L492 361 C493 319 487 312 450 311 L437 311 L437 286 L576 286 L576 311 L562 311 C524 312 517 319 519 361 L519 610 L644 286 L679 286 L819 611 L819 311 Z " />
<glyph glyph-name="uni2126" unicode="&#x2126;" horiz-adv-x="768" d="M326 0 L308 155 C230 199 180 288 180 382 C180 434 195 493 221 540 C257 605 317 642 385 642 C453 642 513 605 549 540 C575 493 590 434 590 382 C590 288 540 199 462 155 L444 0 L736 0 L736 153 L712 153 C704 108 684 90 643 90 L497 90 L500 128 C535 141 557 151 580 166 C657 215 702 296 702 382 C702 449 673 522 625 578 C564 648 480 686 385 686 C290 686 206 648 145 578 C97 522 68 449 68 382 C68 296 113 215 190 166 C213 151 235 141 270 128 L273 90 L127 90 C86 90 66 108 58 153 L34 153 L34 0 L326 0 Z " />
<glyph glyph-name="partialdiff" unicode="&#x2202;" horiz-adv-x="494" d="M107 674 C152 697 184 706 219 706 C321 706 379 611 379 447 C379 418 377 394 372 346 C308 396 272 412 221 412 C172 412 131 394 95 355 C51 309 26 246 26 184 C26 76 109 -10 213 -10 C282 -10 341 22 383 84 C429 152 462 286 462 403 C462 519 428 611 360 681 C312 730 259 753 195 753 C155 753 122 746 66 725 L107 674 Z M366 312 C350 201 340 158 314 107 C288 54 245 21 201 21 C146 21 113 73 113 159 C113 273 180 367 261 367 C299 367 324 354 366 312 L366 312 Z " />
<glyph glyph-name="Delta" unicode="&#x2206;" horiz-adv-x="612" d="M6 0 L608 0 L327 688 L6 0 Z M77 51 L290 509 L479 51 L77 51 Z " />
<glyph glyph-name="product" unicode="&#x220f;" horiz-adv-x="823" d="M25 -124 L315 -124 L315 -98 L312 -98 C242 -94 221 -67 224 18 L224 594 C224 656 228 677 242 690 C260 707 272 708 413 708 C556 708 568 707 586 690 C600 677 604 656 604 594 L604 18 C607 -67 586 -94 516 -98 L513 -98 L513 -124 L803 -124 L803 -98 L800 -98 C730 -94 709 -67 712 18 L712 609 C709 694 730 721 800 725 L803 725 L803 751 L25 751 L25 725 L28 725 C98 721 119 694 116 609 L116 18 C119 -67 98 -94 28 -98 L25 -98 L25 -124 Z " />
<glyph glyph-name="summation" unicode="&#x2211;" horiz-adv-x="713" d="M176 711 L444 711 C560 710 590 688 606 587 L632 587 L622 752 L23 752 L256 285 L14 -123 L641 -123 L695 87 L669 87 C639 7 605 -12 491 -11 L163 -11 L364 341 L176 711 Z " />
<glyph glyph-name="minus" unicode="&#x2212;" horiz-adv-x="653" d="M594 313 L594 353 L59 353 L59 313 L594 313 Z " />
<glyph glyph-name="uni2215" unicode="&#x2215;" horiz-adv-x="112" d="M265 667 L208 667 L-153 0 L-96 0 L265 667 Z " />
<glyph glyph-name="uni2219" unicode="&#x2219;" horiz-adv-x="308" d="M153 307 C97 307 51 265 51 213 C51 162 97 120 154 120 C210 120 256 162 256 212 C256 265 211 307 153 307 L153 307 Z " />
<glyph glyph-name="radical" unicode="&#x221a;" horiz-adv-x="549" d="M363 -35 L515 908 L480 913 L353 123 L156 520 L10 449 L26 414 L121 461 L363 -35 Z " />
<glyph glyph-name="infinity" unicode="&#x221e;" horiz-adv-x="713" d="M357 227 C415 156 485 115 548 115 C631 115 688 176 688 266 C688 354 629 414 543 414 C476 414 412 376 357 303 C300 375 234 414 171 414 C86 414 26 351 26 263 C26 176 84 115 167 115 C224 115 281 142 327 192 L357 227 Z M391 264 C434 325 493 362 546 362 C600 362 638 321 638 264 C638 205 603 167 549 167 C495 167 461 188 391 264 L391 264 Z M324 266 C275 203 216 167 163 167 C111 167 76 207 76 266 C76 323 113 362 167 362 C218 362 258 337 324 266 L324 266 Z " />
<glyph glyph-name="integral" unicode="&#x222b;" horiz-adv-x="274" d="M180 576 C180 653 179 691 176 746 C174 774 173 800 173 815 C173 855 184 878 202 878 C208 878 213 876 215 872 C232 845 239 839 256 839 C276 839 291 853 291 871 C291 898 267 916 231 916 C186 916 152 887 138 838 C123 784 113 682 113 577 L113 232 C113 160 114 124 117 63 C119 34 120 4 120 -12 C120 -47 108 -70 89 -70 C81 -70 74 -65 68 -52 C59 -35 51 -30 37 -30 C17 -30 2 -44 2 -63 C2 -89 26 -107 62 -107 C107 -107 141 -78 155 -29 C170 25 180 126 180 232 L180 576 Z " />
<glyph glyph-name="approxequal" unicode="&#x2248;" horiz-adv-x="549" d="M489 251 C444 199 423 187 384 187 C365 187 354 190 285 211 C212 234 188 239 160 239 C101 239 54 211 14 155 L57 121 C103 174 120 184 159 184 C180 184 180 184 271 157 C350 133 354 132 385 132 C449 132 496 160 527 217 L489 251 Z M489 408 C444 356 423 344 384 344 C365 344 354 347 285 368 C212 391 188 396 160 396 C101 396 54 369 14 312 L57 278 C103 331 120 341 159 341 C180 341 180 341 271 314 C350 290 354 289 385 289 C449 289 496 318 527 375 L489 408 Z " />
<glyph glyph-name="notequal" unicode="&#x2260;" horiz-adv-x="549" d="M187 142 L115 -1 L161 -25 L246 142 L540 142 L540 197 L273 197 L344 336 L540 336 L540 391 L371 391 L439 525 L392 549 L312 391 L15 391 L15 336 L285 336 L215 197 L15 197 L15 142 L187 142 Z " />
<glyph glyph-name="lessequal" unicode="&#x2264;" horiz-adv-x="549" d="M526 55 L29 55 L29 0 L526 0 L526 55 Z M526 639 L29 405 L29 350 L526 117 L526 179 L108 378 L526 577 L526 639 Z " />
<glyph glyph-name="greaterequal" unicode="&#x2265;" horiz-adv-x="549" d="M526 55 L29 55 L29 0 L526 0 L526 55 Z M29 639 L29 577 L447 378 L29 179 L29 117 L526 350 L526 405 L29 639 Z " />
<glyph glyph-name="lozenge" unicode="&#x25ca;" horiz-adv-x="494" d="M209 0 L269 -1 L466 374 L277 740 L214 740 L18 377 L209 0 Z M240 58 L81 376 L245 683 L402 373 L240 58 Z " />
<glyph glyph-name="fi" unicode="&#xfb01;" horiz-adv-x="709" d="M280 420 L280 461 C280 607 313 653 417 653 C465 653 497 644 497 630 C497 626 493 622 483 614 C447 589 439 576 439 546 C439 497 477 462 529 462 C585 462 622 499 622 555 C622 636 539 684 396 684 C207 684 83 589 83 445 L83 420 L17 420 L17 390 L83 390 L83 30 L17 30 L17 0 L340 0 L340 30 L280 30 L280 390 L439 390 L439 30 L379 30 L379 0 L702 0 L702 30 L636 30 L636 433 C567 422 534 420 430 420 L280 420 Z " />
<glyph glyph-name="fl" unicode="&#xfb02;" horiz-adv-x="709" d="M636 30 L636 684 C590 673 564 670 524 670 L485 671 C449 681 423 684 386 684 C202 684 83 590 83 445 L83 420 L17 420 L17 390 L83 390 L83 30 L17 30 L17 0 L340 0 L340 30 L280 30 L280 390 L370 390 L370 420 L280 420 L280 461 C280 523 283 566 289 586 C303 630 331 651 376 651 C424 651 437 634 437 568 L438 513 C439 495 439 480 439 472 L439 30 L379 30 L379 0 L702 0 L702 30 L636 30 Z " />
</font>
</svg>
