<?xml version="1.0" encoding="UTF-8"?>
<svg xmlns="http://www.w3.org/2000/svg" xmlns:xlink="http://www.w3.org/1999/xlink" version="1.2" >
<font id="Bodoni URW Narrow Light">
<font-face  font-family="Bodoni URW Narrow" units-per-em="1000" ascent="667" descent="-333" font-style="normal" font-weight="300" font-stretch="semi-condensed" cap-height="667" x-height="387" underline-position="-88" underline-thickness="46" />
<missing-glyph  horiz-adv-x="250" d="" />
<glyph glyph-name="NULL" d="" />
<glyph glyph-name="CR" unicode="&#xd;" horiz-adv-x="250" d="" />
<glyph glyph-name="space" unicode="&#x20;" horiz-adv-x="250" d="" />
<glyph glyph-name="exclam" unicode="&#x21;" horiz-adv-x="260" d="M138 197 C140 325 147 412 159 480 L176 577 C177 587 178 596 178 606 C178 647 157 677 130 677 C103 677 82 647 82 607 C82 593 82 588 84 577 L101 480 C115 394 119 345 122 197 L138 197 Z M130 106 C100 106 76 80 76 49 C76 18 100 -7 130 -7 C160 -7 184 18 184 49 C184 81 160 106 130 106 L130 106 Z " />
<glyph glyph-name="quotedbl" unicode="&#x22;" horiz-adv-x="278" d="M86 413 L109 576 C111 592 112 608 112 620 C112 653 96 677 74 677 C53 677 38 652 38 619 C38 607 39 591 41 576 L64 413 L86 413 Z M213 413 L236 576 C238 593 240 611 240 620 C240 653 224 677 202 677 C180 677 165 652 165 618 C165 609 167 592 169 576 L192 413 L213 413 Z " />
<glyph glyph-name="numbersign" unicode="&#x23;" horiz-adv-x="475" d="M197 442 L225 647 L167 647 L140 442 L54 442 L54 417 L136 417 L112 238 L26 238 L26 213 L109 213 L81 0 L138 0 L167 213 L278 213 L250 0 L307 0 L336 213 L422 213 L421 238 L339 238 L363 417 L449 417 L449 442 L366 442 L394 647 L336 647 L309 442 L197 442 Z M194 417 L306 417 L282 238 L170 238 L194 417 Z " />
<glyph glyph-name="dollar" unicode="&#x24;" horiz-adv-x="475" d="M247 395 L247 648 C306 644 328 626 328 581 C330 521 346 493 379 493 C401 493 416 514 416 545 C416 612 341 666 247 668 L247 749 L218 749 L218 667 C119 654 51 582 51 488 C51 421 87 369 163 326 L218 296 L218 21 C192 23 169 32 154 46 C139 59 124 104 124 132 C124 133 124 137 125 143 L125 152 C125 191 107 218 81 218 C56 218 35 190 35 155 C35 77 114 10 218 1 L218 -88 L247 -88 L247 1 C345 7 420 94 420 202 C420 272 387 319 311 361 L247 395 Z M222 411 L190 427 C135 455 104 495 104 540 C104 598 151 641 222 647 L222 411 Z M247 280 L293 255 C340 228 365 191 365 147 C365 81 315 28 247 21 L247 280 Z " />
<glyph glyph-name="percent" unicode="&#x25;" horiz-adv-x="653" d="M158 653 C87 653 27 576 27 487 C27 397 87 320 158 320 C226 320 288 397 288 483 C288 576 229 653 158 653 L158 653 Z M219 451 C219 367 203 338 158 338 C112 338 96 367 96 451 L96 521 C96 606 112 635 158 635 C203 635 219 606 219 521 L219 451 Z M483 647 L455 647 L170 0 L198 0 L483 647 Z M496 327 C426 327 366 250 366 161 C366 71 426 -6 496 -6 C564 -6 626 71 626 157 C626 249 567 327 496 327 L496 327 Z M557 126 C557 41 541 12 496 12 C450 12 435 41 435 126 L435 196 C435 280 450 309 496 309 C541 309 557 280 557 196 L557 126 Z " />
<glyph glyph-name="ampersand" unicode="&#x26;" horiz-adv-x="564" d="M393 0 L539 0 L539 18 L465 18 L406 112 C452 184 465 228 469 322 L539 322 L539 340 L371 340 L371 322 L449 322 C450 246 429 175 393 131 L263 340 C347 376 378 409 378 460 C378 514 331 551 261 551 C181 551 129 512 129 452 C129 430 136 411 155 380 L190 322 C128 289 104 273 77 242 C53 215 38 176 38 139 C38 102 52 65 77 36 C103 5 143 -10 198 -10 C260 -10 312 11 356 54 L393 0 Z M221 408 C201 441 192 464 192 483 C192 514 215 531 258 531 C301 531 321 509 321 461 C321 430 313 400 300 383 C291 371 278 363 254 353 L221 408 Z M346 71 C309 35 282 21 249 21 C217 21 186 38 164 68 C131 112 108 171 108 209 C108 245 134 272 199 306 L346 71 Z " />
<glyph glyph-name="quotesingle" unicode="&#x27;" horiz-adv-x="150" d="M86 413 L109 576 C111 592 112 608 112 620 C112 653 96 677 74 677 C53 677 38 652 38 619 C38 607 39 591 41 576 L64 413 L86 413 Z " />
<glyph glyph-name="parenleft" unicode="&#x28;" horiz-adv-x="252" d="M208 674 C96 526 36 376 36 244 C36 111 95 -38 208 -186 L220 -177 C144 -33 114 86 114 244 C114 401 144 521 220 665 L208 674 Z " />
<glyph glyph-name="parenright" unicode="&#x29;" horiz-adv-x="252" d="M32 665 C108 520 138 401 138 244 C138 86 108 -32 32 -177 L44 -186 C157 -37 216 111 216 244 C216 376 156 526 44 674 L32 665 Z " />
<glyph glyph-name="asterisk" unicode="&#x2a;" horiz-adv-x="475" d="M234 510 C227 508 225 506 221 500 L134 554 C111 568 107 570 97 570 C81 570 67 554 67 535 C67 512 79 504 118 501 L219 492 C219 485 220 482 224 477 L149 406 C125 385 121 378 121 364 C121 347 137 331 155 331 C170 331 178 340 191 373 L231 472 C234 470 235 470 238 470 C240 470 242 470 246 472 L286 375 C299 341 307 332 323 332 C341 332 357 348 357 365 C357 379 352 386 329 407 L252 477 C256 482 257 485 257 492 L357 503 C397 506 409 514 409 537 C409 556 395 572 379 572 C369 572 364 570 341 555 L254 500 C250 506 249 508 242 510 L264 613 C269 636 269 636 269 644 C269 664 256 677 237 677 C218 677 206 664 206 643 C206 635 206 632 211 613 L234 510 Z " />
<glyph glyph-name="plus" unicode="&#x2b;" horiz-adv-x="475" d="M223 308 L223 131 L253 131 L253 308 L426 308 L426 338 L253 338 L253 515 L223 515 L223 338 L49 338 L49 308 L223 308 Z " />
<glyph glyph-name="comma" unicode="&#x2c;" horiz-adv-x="234" d="M99 -152 C158 -96 186 -44 186 13 C186 69 152 112 107 112 C73 112 49 86 49 48 C49 15 67 -7 93 -7 C116 -7 133 13 133 41 C133 44 133 50 132 56 C154 43 163 26 163 -2 C163 -44 142 -82 87 -140 L99 -152 Z " />
<glyph glyph-name="hyphen" unicode="&#x2d;" horiz-adv-x="179" d="M179 230 L0 230 L0 170 L179 170 L179 230 Z " />
<glyph glyph-name="period" unicode="&#x2e;" horiz-adv-x="234" d="M117 106 C87 106 63 80 63 49 C63 18 87 -7 117 -7 C147 -7 171 18 171 49 C171 81 147 106 117 106 L117 106 Z " />
<glyph glyph-name="slash" unicode="&#x2f;" horiz-adv-x="388" d="M353 667 L303 667 L-37 -180 L14 -180 L353 667 Z " />
<glyph glyph-name="zero" unicode="0" horiz-adv-x="475" d="M238 657 C201 657 170 643 140 612 C78 548 40 439 40 323 C40 226 75 112 125 52 C159 10 195 -10 238 -10 C275 -10 305 4 336 35 C395 94 436 210 436 314 C436 425 406 524 350 597 C320 636 281 657 238 657 L238 657 Z M343 251 C343 72 316 10 238 10 C160 10 133 73 133 251 L133 396 C133 574 160 637 238 637 C316 637 343 575 343 396 L343 251 Z " />
<glyph glyph-name="one" unicode="1" horiz-adv-x="475" d="M291 647 L107 637 L107 621 L190 621 C209 621 210 619 211 595 L211 18 L107 18 L107 0 L391 0 L391 18 L291 18 L291 647 Z " />
<glyph glyph-name="two" unicode="2" horiz-adv-x="475" d="M410 0 L410 177 L397 177 C394 156 394 151 393 145 C383 85 376 78 316 77 L100 77 L254 243 C330 324 330 324 348 349 C390 406 408 450 408 494 C408 589 333 657 230 657 C134 657 63 595 63 510 C63 457 91 419 128 419 C154 419 172 437 172 464 C172 489 154 508 130 508 C125 508 119 507 114 505 C99 500 99 500 97 500 C89 500 84 509 84 522 C84 582 137 634 198 634 C269 634 318 565 318 466 C318 379 286 314 193 211 L43 46 L43 0 L410 0 Z " />
<glyph glyph-name="three" unicode="3" horiz-adv-x="475" d="M130 358 L130 340 L165 340 C213 340 256 327 281 306 C308 282 324 233 324 172 C324 67 282 10 203 10 C174 10 144 20 125 36 C114 46 106 57 106 64 C106 68 109 72 118 79 C130 89 136 102 136 120 C136 148 122 166 100 166 C75 166 57 143 57 110 C57 39 121 -10 214 -10 C330 -10 417 73 417 183 C417 235 393 285 355 311 C323 333 295 342 228 349 C278 360 301 371 331 400 C365 433 382 470 382 513 C382 596 317 657 227 657 C149 657 90 612 90 551 C90 521 106 498 128 498 C147 498 161 517 161 542 C161 560 155 574 143 583 C136 589 135 591 135 596 C135 615 172 634 210 634 C270 634 295 601 295 520 C295 465 290 438 277 413 C257 377 218 358 165 358 L130 358 Z " />
<glyph glyph-name="four" unicode="4" horiz-adv-x="475" d="M329 174 L415 174 L415 99 L436 99 L436 273 L415 273 L415 199 L329 199 L329 654 L290 654 L25 216 L25 174 L249 174 L249 18 L160 18 L160 0 L407 0 L407 18 L329 18 L329 174 Z M249 199 L43 199 L249 546 L249 199 Z " />
<glyph glyph-name="five" unicode="5" horiz-adv-x="475" d="M129 570 L305 570 C360 569 372 586 377 672 L365 672 C354 650 351 647 326 647 L153 647 C114 646 108 639 107 597 L95 339 C137 362 156 368 187 368 C278 368 324 309 324 193 C324 76 281 10 203 10 C159 10 100 39 100 61 C100 65 102 68 105 70 C129 87 135 98 135 123 C135 150 119 168 97 168 C73 168 54 142 54 109 C54 41 122 -10 210 -10 C328 -10 417 77 417 191 C417 306 329 388 205 388 C172 388 150 384 119 372 L129 570 Z " />
<glyph glyph-name="six" unicode="6" horiz-adv-x="475" d="M384 687 C306 670 258 649 204 608 C101 531 43 405 43 259 C43 191 56 133 82 88 C117 27 179 -10 244 -10 C352 -10 436 88 436 214 C436 338 360 429 256 429 C212 429 180 415 144 380 C154 536 233 631 384 667 L384 687 Z M244 407 C266 407 288 399 305 384 C333 361 343 316 343 222 C343 57 321 10 244 10 C166 10 136 69 136 220 C136 288 143 332 158 357 C176 388 208 407 244 407 L244 407 Z " />
<glyph glyph-name="seven" unicode="7" horiz-adv-x="475" d="M390 570 L264 280 C258 265 230 194 217 157 C200 112 193 81 193 52 C193 14 211 -10 240 -10 C267 -10 288 14 288 45 C288 55 286 72 282 88 L274 127 C270 142 269 153 269 164 C269 208 288 270 334 379 L440 629 C443 636 445 641 445 642 C445 646 442 647 432 647 L87 647 L44 468 L60 468 L77 516 C92 561 101 568 149 570 L390 570 Z " />
<glyph glyph-name="eight" unicode="8" horiz-adv-x="475" d="M271 343 C362 367 408 418 408 493 C408 584 332 657 237 657 C142 657 66 584 66 493 C66 418 112 367 203 343 C153 333 129 323 100 300 C61 267 39 220 39 169 C39 67 124 -10 237 -10 C350 -10 435 67 435 169 C435 220 413 267 374 300 C345 323 321 333 271 343 L271 343 Z M237 637 C299 637 322 598 322 497 C322 396 299 358 236 358 C175 358 152 397 152 500 C152 598 176 637 237 637 L237 637 Z M237 331 C305 331 341 273 341 163 C341 68 302 10 237 10 C214 10 194 18 175 33 C149 55 133 107 133 170 C133 273 171 331 237 331 L237 331 Z " />
<glyph glyph-name="nine" unicode="9" horiz-adv-x="475" d="M86 -41 C174 -25 235 6 297 67 C384 151 431 265 431 392 C431 547 351 657 238 657 C128 657 39 552 39 423 C39 307 121 212 223 212 C271 212 298 228 331 274 C313 100 228 -2 86 -21 L86 -41 Z M235 637 C276 637 305 618 320 579 C331 553 338 488 338 416 C338 365 333 326 322 302 C304 259 269 234 228 234 C160 234 132 286 132 412 C132 509 139 560 156 592 C173 622 199 637 235 637 L235 637 Z " />
<glyph glyph-name="colon" unicode="&#x3a;" horiz-adv-x="234" d="M117 400 C87 400 63 375 63 344 C63 313 87 287 117 287 C146 287 171 312 171 343 C171 375 147 400 117 400 L117 400 Z M117 106 C87 106 63 80 63 49 C63 18 87 -7 117 -7 C147 -7 171 18 171 49 C171 81 147 106 117 106 L117 106 Z " />
<glyph glyph-name="semicolon" unicode="&#x3b;" horiz-adv-x="234" d="M107 400 C77 400 53 374 53 343 C53 312 77 287 107 287 C137 287 161 312 161 343 C161 375 137 400 107 400 L107 400 Z M99 -152 C158 -96 186 -44 186 13 C186 69 152 112 107 112 C73 112 49 86 49 48 C49 15 67 -7 93 -7 C116 -7 133 13 133 41 C133 44 133 50 132 56 C154 43 163 26 163 -2 C163 -44 142 -82 87 -140 L99 -152 Z " />
<glyph glyph-name="less" unicode="&#x3c;" horiz-adv-x="475" d="M432 595 L43 327 L43 322 L432 52 L432 114 L103 343 L432 571 L432 595 Z " />
<glyph glyph-name="equal" unicode="&#x3d;" horiz-adv-x="475" d="M427 399 L49 399 L49 369 L427 369 L427 399 Z M427 279 L49 279 L49 249 L427 249 L427 279 Z " />
<glyph glyph-name="greater" unicode="&#x3e;" horiz-adv-x="475" d="M43 52 L432 319 L432 324 L43 595 L43 532 L372 303 L43 75 L43 52 Z " />
<glyph glyph-name="question" unicode="&#x3f;" horiz-adv-x="358" d="M140 196 C140 262 147 278 200 324 L248 365 C296 406 320 455 320 514 C320 609 259 677 173 677 C96 677 36 620 36 549 C36 512 52 488 75 488 C95 488 109 505 109 531 C109 552 103 564 85 575 C74 583 71 587 71 593 C71 625 123 657 174 657 C234 657 279 618 279 567 C279 538 261 503 233 476 L203 446 C181 425 168 411 159 398 C135 365 123 315 123 253 C123 234 124 220 127 193 L140 196 Z M139 106 C109 106 85 80 85 49 C85 18 109 -7 139 -7 C169 -7 193 18 193 49 C193 81 169 106 139 106 L139 106 Z " />
<glyph glyph-name="at" unicode="&#x40;" horiz-adv-x="707" d="M560 83 C502 35 442 12 375 12 C211 12 82 151 82 327 C82 499 211 639 371 639 C440 639 502 613 552 563 C602 513 626 453 626 378 C626 337 617 304 598 270 C567 216 512 174 472 174 C459 174 452 181 452 195 C452 205 455 227 460 248 L515 487 L454 487 L441 432 C428 478 407 496 368 496 C279 496 192 389 192 280 C192 205 238 149 299 149 C343 149 375 173 399 223 C403 165 417 148 460 148 C510 148 563 178 603 230 C638 275 654 321 654 379 C654 540 532 664 372 664 C196 664 54 512 54 325 C54 137 196 -13 373 -13 C460 -13 541 22 599 83 L560 83 Z M377 479 C410 479 433 445 430 399 C427 338 406 265 379 212 C363 182 335 163 307 163 C276 163 256 189 256 228 C256 282 279 372 308 427 C324 459 351 479 377 479 L377 479 Z " />
<glyph glyph-name="A" unicode="A" horiz-adv-x="576" d="M347 214 L411 18 L321 18 L321 0 L579 0 L579 18 L507 18 L299 667 L274 667 L57 18 L-3 18 L-3 0 L165 0 L165 18 L81 18 L145 214 L347 214 Z M341 232 L152 232 L247 527 L341 232 Z " />
<glyph glyph-name="B" unicode="B" horiz-adv-x="585" d="M113 18 L32 18 L32 0 L289 0 C370 0 415 9 457 33 C509 62 537 114 537 180 C537 234 518 274 480 303 C446 329 417 339 354 350 C410 362 435 374 465 400 C497 428 513 463 513 504 C513 559 484 607 435 635 C398 656 340 667 266 667 L32 667 L32 649 L113 649 L113 18 Z M206 358 L206 649 L257 649 C372 649 415 608 415 501 C415 438 397 396 362 375 C341 364 312 358 271 358 L206 358 Z M206 18 L206 340 L268 340 C384 340 426 296 426 175 C426 68 382 18 289 18 L206 18 Z " />
<glyph glyph-name="C" unicode="C" horiz-adv-x="561" d="M516 667 L503 667 L472 617 C418 660 376 677 321 677 C164 677 44 526 44 328 C44 252 60 190 95 131 C148 41 227 -10 313 -10 C367 -10 411 7 472 50 L503 0 L516 0 L516 185 L503 185 C481 123 466 95 438 63 C408 30 363 10 317 10 C262 10 210 38 186 82 C164 120 157 173 157 296 C157 426 162 504 172 544 C191 616 246 657 322 657 C372 657 418 637 452 599 C478 570 490 545 503 494 L516 494 L516 667 Z " />
<glyph glyph-name="D" unicode="D" horiz-adv-x="640" d="M114 18 L32 18 L32 0 L271 0 C365 0 411 10 457 42 C545 103 596 211 596 336 C596 467 540 576 446 631 C402 657 352 667 271 667 L32 667 L32 649 L114 649 L114 18 Z M207 18 L207 649 L270 649 C347 649 389 638 425 608 C467 572 483 504 483 349 C483 181 469 105 435 69 C399 32 354 18 272 18 L207 18 Z " />
<glyph glyph-name="E" unicode="E" horiz-adv-x="556" d="M480 667 L32 667 L32 649 L114 649 L114 18 L32 18 L32 0 L501 0 L520 208 L508 208 C493 151 481 115 468 90 C432 26 419 19 330 18 L207 18 L207 329 L247 329 C320 328 346 301 349 221 L349 198 L362 198 L362 472 L349 472 L349 453 C346 373 323 349 250 347 L207 347 L207 649 L285 649 C413 651 452 618 480 486 L493 486 L480 667 Z " />
<glyph glyph-name="F" unicode="F" horiz-adv-x="508" d="M483 667 L32 667 L32 649 L114 649 L114 18 L32 18 L32 0 L291 0 L291 18 L207 18 L207 329 L261 329 C337 329 362 305 367 227 L367 205 L380 205 L380 475 L367 475 L367 457 C362 362 347 347 262 347 L207 347 L207 649 L310 649 C383 648 413 636 438 600 C464 564 475 530 483 475 L496 475 L483 667 Z " />
<glyph glyph-name="G" unicode="G" horiz-adv-x="603" d="M504 667 L491 667 L459 625 C410 661 366 677 315 677 C228 677 146 624 94 533 C60 474 44 409 44 329 C44 248 60 184 95 124 C148 35 220 -10 309 -10 C381 -10 447 23 487 79 C510 112 520 144 530 212 L594 212 L594 230 L328 230 L328 212 L427 212 C426 152 424 127 417 103 C400 42 358 10 298 10 C251 10 209 33 189 70 C165 114 157 174 157 308 C157 466 167 549 192 593 C215 633 260 657 312 657 C402 657 462 595 491 471 L504 471 L504 667 Z " />
<glyph glyph-name="H" unicode="H" horiz-adv-x="674" d="M468 330 L468 18 L384 18 L384 0 L643 0 L643 18 L561 18 L561 649 L643 649 L643 667 L384 667 L384 649 L468 649 L468 348 L207 348 L207 649 L291 649 L291 667 L32 667 L32 649 L114 649 L114 18 L32 18 L32 0 L291 0 L291 18 L207 18 L207 330 L468 330 Z " />
<glyph glyph-name="I" unicode="I" horiz-adv-x="321" d="M114 18 L32 18 L32 0 L289 0 L289 18 L207 18 L207 649 L289 649 L289 667 L32 667 L32 649 L114 649 L114 18 Z " />
<glyph glyph-name="J" unicode="J" horiz-adv-x="364" d="M267 649 L345 649 L345 667 L92 667 L92 649 L174 649 L174 63 C174 16 170 -6 160 -24 C150 -43 130 -55 110 -55 C96 -55 81 -45 81 -34 C81 -32 82 -29 83 -27 C93 -9 94 -5 94 10 C94 38 78 58 56 58 C31 58 13 36 13 5 C13 -41 52 -75 105 -75 C160 -75 213 -42 240 9 C260 46 267 80 267 149 L267 649 Z " />
<glyph glyph-name="K" unicode="K" horiz-adv-x="623" d="M114 18 L32 18 L32 0 L285 0 L285 18 L207 18 L207 649 L285 649 L285 667 L32 667 L32 649 L114 649 L114 18 Z M298 407 L504 649 L583 649 L583 667 L383 667 L383 649 L474 649 L221 353 L460 18 L375 18 L375 0 L624 0 L624 18 L575 18 L298 407 Z " />
<glyph glyph-name="L" unicode="L" horiz-adv-x="539" d="M500 0 L513 205 L500 205 C470 55 436 17 338 18 L207 18 L207 649 L285 649 L285 667 L32 667 L32 649 L114 649 L114 18 L32 18 L32 0 L500 0 Z " />
<glyph glyph-name="M" unicode="M" horiz-adv-x="725" d="M319 0 L337 0 L522 644 L522 18 L444 18 L444 0 L697 0 L697 18 L615 18 L615 649 L697 649 L697 667 L509 667 L366 166 L219 667 L29 667 L29 649 L105 649 L105 18 L29 18 L29 0 L209 0 L209 18 L128 18 L128 649 L319 0 Z " />
<glyph glyph-name="N" unicode="N" horiz-adv-x="645" d="M527 0 L543 0 L543 649 L613 649 L613 667 L439 667 L439 649 L520 649 L520 185 L222 667 L22 667 L22 649 L104 649 L104 18 L22 18 L22 0 L215 0 L215 18 L127 18 L127 644 L527 0 Z " />
<glyph glyph-name="O" unicode="O" horiz-adv-x="627" d="M313 677 C162 677 44 527 44 334 C44 140 162 -10 313 -10 C465 -10 583 139 583 330 C583 430 559 509 507 576 C456 642 388 677 313 677 L313 677 Z M314 657 C380 657 432 620 453 559 C467 518 470 479 470 312 C470 166 464 120 439 77 C415 36 366 10 313 10 C247 10 195 47 174 108 C160 149 157 189 157 347 C157 501 163 547 188 590 C212 631 261 657 314 657 L314 657 Z " />
<glyph glyph-name="P" unicode="P" horiz-adv-x="544" d="M207 323 L298 323 C360 323 403 332 439 352 C490 380 522 435 522 493 C522 552 489 610 440 638 C406 657 359 667 298 667 L32 667 L32 649 L114 649 L114 18 L32 18 L32 0 L291 0 L291 18 L207 18 L207 323 Z M207 341 L207 649 L291 649 C383 649 409 616 409 502 C409 375 384 341 292 341 L207 341 Z " />
<glyph glyph-name="Q" unicode="Q" horiz-adv-x="627" d="M357 -6 C490 21 583 161 583 334 C583 528 466 677 313 677 C161 677 44 528 44 334 C44 161 136 22 269 -6 L269 -19 C270 -160 348 -214 548 -217 L548 -204 C401 -199 357 -155 357 -13 L357 -6 Z M314 657 C380 657 432 620 453 559 C467 518 470 479 470 312 C470 166 464 120 439 77 C415 36 366 10 313 10 C247 10 195 47 174 108 C160 149 157 189 157 347 C157 501 163 547 188 590 C212 631 261 657 314 657 L314 657 Z " />
<glyph glyph-name="R" unicode="R" horiz-adv-x="612" d="M207 345 L262 345 C355 343 390 308 393 214 L393 165 C393 55 438 -5 521 -5 C546 -5 563 -1 587 12 L582 29 C563 19 554 16 542 16 C527 16 511 26 504 38 C496 53 494 69 494 108 L494 163 C491 271 432 334 318 350 C388 359 418 369 454 395 C494 424 515 465 515 514 C515 569 488 617 442 641 C404 661 372 667 290 667 L32 667 L32 649 L114 649 L114 18 L32 18 L32 0 L291 0 L291 18 L207 18 L207 345 Z M207 363 L207 649 L272 649 C316 649 354 639 373 621 C396 600 411 554 411 503 C411 409 364 363 266 363 L207 363 Z " />
<glyph glyph-name="S" unicode="S" horiz-adv-x="477" d="M395 676 L383 676 L353 633 C312 663 274 677 231 677 C133 677 58 592 58 479 C58 389 100 337 195 310 L268 290 C350 267 383 228 383 157 C383 70 327 10 245 10 C186 10 131 44 97 100 C80 129 73 154 65 207 L46 207 L52 0 L65 0 L99 56 C148 8 187 -10 244 -10 C291 -10 331 5 362 34 C404 73 431 143 431 216 C431 322 385 381 281 409 L230 423 C139 447 105 478 105 535 C105 604 159 657 230 657 C310 657 364 602 378 503 L397 503 L395 676 Z " />
<glyph glyph-name="T" unicode="T" horiz-adv-x="554" d="M541 459 L528 667 L20 667 L13 459 L25 457 C41 536 54 568 87 612 C111 641 130 648 187 649 L232 649 L232 18 L137 18 L137 0 L415 0 L415 18 L325 18 L325 649 L371 649 C455 648 491 604 528 457 L541 459 Z " />
<glyph glyph-name="U" unicode="U" horiz-adv-x="610" d="M190 649 L272 649 L272 667 L19 667 L19 649 L97 649 L97 249 C97 162 105 117 128 77 C160 21 228 -10 318 -10 C406 -10 464 21 494 84 C510 118 516 154 516 222 L516 649 L584 649 L584 667 L417 667 L417 649 L493 649 L493 222 C493 149 490 127 477 98 C452 41 404 10 341 10 C285 10 235 36 212 78 C194 109 190 136 190 205 L190 649 Z " />
<glyph glyph-name="V" unicode="V" horiz-adv-x="527" d="M310 144 L142 649 L233 649 L233 667 L-16 667 L-16 649 L45 649 L265 -10 L284 -10 L483 649 L546 649 L546 667 L367 667 L367 649 L460 649 L310 144 Z " />
<glyph glyph-name="W" unicode="W" horiz-adv-x="745" d="M534 143 L432 431 L506 649 L559 649 L559 667 L-10 667 L-10 649 L46 649 L267 -10 L284 -10 L389 292 L491 -10 L508 -10 L705 649 L757 649 L757 667 L598 667 L598 649 L684 649 L534 143 Z M142 649 L265 649 L377 325 L312 135 L142 649 Z M355 649 L487 649 L422 467 L355 649 Z " />
<glyph glyph-name="X" unicode="X" horiz-adv-x="554" d="M300 385 L458 649 L525 649 L525 667 L347 667 L347 649 L431 649 L288 408 L152 649 L245 649 L245 667 L-10 667 L-10 649 L43 649 L233 310 L65 18 L-1 18 L-1 0 L179 0 L179 18 L92 18 L245 288 L396 18 L311 18 L311 0 L563 0 L563 18 L505 18 L300 385 Z " />
<glyph glyph-name="Y" unicode="Y" horiz-adv-x="524" d="M477 649 L542 649 L542 667 L361 667 L361 649 L454 649 L313 353 L142 649 L226 649 L226 667 L-19 667 L-19 649 L35 649 L226 312 L226 18 L131 18 L131 0 L414 0 L414 18 L319 18 L319 312 L477 649 Z " />
<glyph glyph-name="Z" unicode="Z" horiz-adv-x="530" d="M488 0 L505 208 L493 208 C456 53 420 14 317 18 L133 18 L506 667 L78 667 L59 464 L72 464 C104 604 139 648 220 649 L394 649 L29 24 L29 0 L488 0 Z " />
<glyph glyph-name="bracketleft" unicode="&#x5b;" horiz-adv-x="252" d="M245 649 L245 667 L63 667 L63 -180 L245 -180 L245 -162 L138 -162 L138 649 L245 649 Z " />
<glyph glyph-name="backslash" unicode="&#x5c;" horiz-adv-x="388" d="M39 667 L379 -180 L429 -180 L90 667 L39 667 Z " />
<glyph glyph-name="bracketright" unicode="&#x5d;" horiz-adv-x="252" d="M6 -162 L6 -180 L188 -180 L188 667 L6 667 L6 649 L113 649 L113 -162 L6 -162 Z " />
<glyph glyph-name="asciicircum" unicode="&#x5e;" horiz-adv-x="475" d="M499 285 L246 700 L240 700 L-24 285 L77 285 L272 591 L461 285 L499 285 Z " />
<glyph glyph-name="underscore" unicode="&#x5f;" horiz-adv-x="498" d="M20 -88 L20 -134 L477 -134 L477 -88 L20 -88 Z " />
<glyph glyph-name="grave" unicode="&#x60;" horiz-adv-x="484" d="M181 613 L116 613 C108 613 104 611 104 606 C104 603 107 598 112 595 L270 466 C273 463 274 463 276 463 C277 463 279 464 279 466 C279 467 279 468 277 470 L181 613 Z " />
<glyph glyph-name="a" unicode="a" horiz-adv-x="401" d="M254 215 C173 212 137 204 94 179 C60 159 38 121 38 82 C38 26 76 -10 136 -10 C190 -10 225 14 254 71 C261 14 282 -10 327 -10 C350 -10 361 -5 392 18 L384 30 C373 19 365 15 356 15 C338 15 331 27 331 57 L331 282 C331 324 322 349 301 366 C278 386 241 397 202 397 C126 397 62 352 62 299 C62 275 77 257 96 257 C116 257 130 274 130 297 C130 309 127 318 120 329 C116 335 114 340 114 343 C114 360 156 380 190 380 C233 380 254 359 254 315 L254 215 Z M254 167 C254 118 250 94 237 72 C223 46 198 30 173 30 C137 30 114 57 114 99 C114 131 127 156 153 174 C179 192 202 198 254 200 L254 167 Z " />
<glyph glyph-name="b" unicode="b" horiz-adv-x="468" d="M157 667 L17 667 L17 649 L80 649 L80 18 L17 18 L17 0 L157 0 L157 69 C189 11 220 -10 270 -10 C360 -10 430 81 430 197 C430 313 363 397 271 397 C221 397 187 372 157 313 L157 667 Z M337 163 C337 89 334 64 322 41 C311 22 290 10 265 10 C232 10 200 31 181 65 C164 95 155 142 155 197 C155 307 197 377 263 377 C287 377 311 364 321 345 C334 323 337 301 337 244 L337 163 Z " />
<glyph glyph-name="c" unicode="c" horiz-adv-x="383" d="M354 126 C335 51 288 10 223 10 C190 10 163 25 148 52 C136 73 131 106 131 165 L131 228 C131 337 158 378 232 378 C268 378 302 365 302 350 C302 348 301 346 297 341 C289 330 284 313 284 297 C284 268 299 249 321 249 C343 249 358 268 358 297 C358 354 303 397 230 397 C121 397 38 308 38 191 C38 79 118 -10 220 -10 C265 -10 306 8 334 41 C353 63 362 83 373 126 L354 126 Z " />
<glyph glyph-name="d" unicode="d" horiz-adv-x="467" d="M309 0 L449 0 L449 18 L386 18 L386 667 L237 667 L237 649 L309 649 L309 307 C278 372 246 397 194 397 C103 397 38 312 38 194 C38 77 105 -10 196 -10 C248 -10 278 15 309 84 L309 0 Z M131 233 C131 342 148 377 200 377 C264 377 306 304 306 192 C306 84 264 10 203 10 C180 10 159 22 150 39 C135 66 131 94 131 165 L131 233 Z " />
<glyph glyph-name="e" unicode="e" horiz-adv-x="410" d="M129 228 L377 228 C373 326 305 397 215 397 C173 397 137 382 106 352 C64 311 38 250 38 192 C38 83 123 -10 223 -10 C301 -10 360 44 374 130 L355 130 C341 56 291 10 225 10 C190 10 160 26 146 52 C133 75 129 98 129 151 L129 228 Z M291 246 L129 246 L129 280 C129 346 156 377 214 377 C268 377 291 350 291 289 L291 246 Z " />
<glyph glyph-name="f" unicode="f" horiz-adv-x="283" d="M175 369 L261 369 L261 387 L175 387 L175 557 C175 606 177 619 187 637 C195 652 211 661 230 661 C245 661 253 658 261 649 C248 636 243 625 243 608 C243 584 256 566 275 566 C293 566 307 585 307 610 C307 649 275 677 230 677 C189 677 150 652 125 608 C104 572 98 543 98 474 L98 387 L15 387 L15 369 L98 369 L98 18 L15 18 L15 0 L258 0 L258 18 L175 18 L175 369 Z " />
<glyph glyph-name="g" unicode="g" horiz-adv-x="415" d="M128 18 C85 18 61 31 61 54 C61 78 82 102 131 133 C157 121 175 117 201 117 C284 117 345 176 345 257 C345 290 337 313 316 343 C328 356 336 361 344 361 C351 361 356 356 357 349 C361 325 368 315 385 315 C402 315 414 329 414 351 C414 376 398 391 372 391 C350 391 334 383 304 353 C270 386 243 397 200 397 C115 397 55 339 55 258 C55 210 72 178 114 144 C108 138 108 138 82 120 C46 95 25 58 25 19 C25 -26 49 -55 99 -69 C45 -93 25 -117 25 -157 C25 -224 97 -274 193 -274 C311 -274 390 -199 390 -86 C390 -42 376 -10 350 5 C332 15 314 18 269 18 L128 18 Z M262 228 C262 157 248 137 200 137 C150 137 137 156 137 228 L137 288 C137 354 153 377 200 377 C226 377 246 369 254 354 C260 342 262 329 262 293 L262 228 Z M125 -70 L161 -70 L280 -70 C341 -70 341 -70 355 -77 C365 -83 372 -97 372 -113 C372 -191 295 -254 200 -254 C121 -254 69 -212 69 -148 C69 -118 79 -96 105 -70 L125 -70 Z " />
<glyph glyph-name="h" unicode="h" horiz-adv-x="496" d="M157 667 L17 667 L17 649 L80 649 L80 18 L17 18 L17 0 L216 0 L216 18 L157 18 L157 177 C157 247 163 286 179 315 C200 353 234 374 274 374 C322 374 342 348 342 286 L342 18 L279 18 L279 0 L479 0 L479 18 L419 18 L419 286 C419 363 381 397 298 397 C239 397 202 379 157 327 L157 667 Z " />
<glyph glyph-name="i" unicode="i" horiz-adv-x="251" d="M172 387 L35 387 L35 369 L95 369 L95 18 L35 18 L35 0 L235 0 L235 18 L172 18 L172 387 Z M129 654 C99 654 75 630 75 601 C75 571 99 547 128 547 C157 547 182 571 182 600 C182 630 158 654 129 654 L129 654 Z " />
<glyph glyph-name="j" unicode="j" horiz-adv-x="221" d="M157 387 L17 387 L17 369 L80 369 L80 -182 C80 -232 69 -254 43 -254 C28 -254 19 -246 19 -233 L19 -227 C20 -221 20 -218 20 -212 C20 -208 20 -208 17 -193 C12 -166 5 -157 -14 -157 C-33 -157 -46 -175 -46 -202 C-46 -244 -12 -274 36 -274 C80 -274 120 -246 140 -203 C153 -173 157 -146 157 -77 L157 387 Z M113 654 C83 654 59 630 59 601 C59 571 83 547 113 547 C142 547 166 571 166 600 C166 630 143 654 113 654 L113 654 Z " />
<glyph glyph-name="k" unicode="k" horiz-adv-x="465" d="M154 667 L17 667 L17 649 L77 649 L77 18 L17 18 L17 0 L217 0 L217 18 L154 18 L154 667 Z M244 250 L366 369 L429 369 L429 387 L244 387 L244 369 L334 369 L173 214 L315 18 L263 18 L263 0 L465 0 L465 18 L419 18 L244 250 Z " />
<glyph glyph-name="l" unicode="l" horiz-adv-x="234" d="M154 667 L8 667 L8 649 L77 649 L77 18 L8 18 L8 0 L227 0 L227 18 L154 18 L154 667 Z " />
<glyph glyph-name="m" unicode="m" horiz-adv-x="723" d="M175 387 L35 387 L35 369 L98 369 L98 18 L35 18 L35 0 L238 0 L238 18 L175 18 L175 189 C175 268 180 305 194 328 C210 356 241 374 272 374 C311 374 333 347 333 299 L333 18 L270 18 L270 0 L473 0 L473 18 L410 18 L410 206 C410 279 413 299 428 328 C443 355 474 374 506 374 C546 374 565 350 565 299 L565 18 L502 18 L502 0 L705 0 L705 18 L642 18 L642 287 C642 365 611 397 536 397 C485 397 448 381 409 343 C389 382 361 397 306 397 C254 397 216 381 175 343 L175 387 Z " />
<glyph glyph-name="n" unicode="n" horiz-adv-x="501" d="M175 387 L35 387 L35 369 L98 369 L98 18 L35 18 L35 0 L238 0 L238 18 L175 18 L175 178 C175 255 180 295 195 320 C213 353 248 374 283 374 C323 374 343 346 343 292 L343 18 L280 18 L280 0 L483 0 L483 18 L420 18 L420 265 C420 301 415 324 405 342 C385 377 346 397 299 397 C248 397 213 378 175 330 L175 387 Z " />
<glyph glyph-name="o" unicode="o" horiz-adv-x="447" d="M225 397 C120 397 38 307 38 194 C38 80 120 -10 224 -10 C325 -10 409 80 409 190 C409 306 328 397 225 397 L225 397 Z M316 169 C316 101 312 71 301 51 C287 25 258 10 223 10 C184 10 154 28 141 58 C135 73 131 114 131 169 L131 218 C131 265 134 310 139 324 C150 357 182 377 223 377 C258 377 287 362 301 336 C312 316 316 286 316 218 L316 169 Z " />
<glyph glyph-name="p" unicode="p" horiz-adv-x="465" d="M157 387 L17 387 L17 369 L80 369 L80 -249 L17 -249 L17 -267 L229 -267 L229 -249 L157 -249 L157 82 C189 15 220 -10 270 -10 C358 -10 427 82 427 200 C427 313 361 397 273 397 C221 397 186 370 157 306 L157 387 Z M334 176 C334 102 324 45 308 29 C295 17 280 10 263 10 C203 10 159 87 159 192 C159 302 202 377 266 377 C289 377 310 366 319 350 C330 329 334 305 334 249 L334 176 Z " />
<glyph glyph-name="q" unicode="q" horiz-adv-x="454" d="M297 387 L297 316 C265 374 233 397 185 397 C102 397 38 310 38 197 C38 80 105 -10 191 -10 C239 -10 266 12 297 77 L297 -249 L225 -249 L225 -267 L437 -267 L437 -249 L374 -249 L374 369 L437 369 L437 387 L297 387 Z M131 239 C131 296 136 327 147 347 C158 366 176 377 196 377 C225 377 251 358 270 325 C288 294 294 260 294 196 C294 131 287 92 268 57 C253 30 223 10 197 10 C175 10 155 25 144 50 C136 69 131 109 131 159 L131 239 Z " />
<glyph glyph-name="r" unicode="r" horiz-adv-x="336" d="M175 387 L35 387 L35 369 L98 369 L98 18 L35 18 L35 0 L238 0 L238 18 L175 18 L175 134 C175 220 181 262 201 309 C214 343 229 360 244 360 C253 360 257 355 257 344 C258 311 270 294 290 294 C311 294 326 314 326 342 C326 376 306 397 274 397 C229 397 204 368 175 287 L175 387 Z " />
<glyph glyph-name="s" unicode="s" horiz-adv-x="338" d="M285 395 L272 395 L259 359 C226 386 200 397 167 397 C100 397 53 347 53 278 C53 217 85 175 141 164 L215 148 C254 140 274 119 274 88 C274 45 236 10 188 10 C148 10 114 31 90 71 C78 92 72 109 65 148 L49 148 L49 0 L59 0 L80 38 C120 2 146 -10 185 -10 C256 -10 305 45 305 123 C305 193 271 232 197 248 L155 257 C102 268 83 281 83 307 C83 346 118 377 163 377 C218 377 258 341 269 280 L285 280 L285 395 Z " />
<glyph glyph-name="t" unicode="t" horiz-adv-x="274" d="M154 369 L255 369 L255 387 L154 387 L154 546 L144 546 C125 479 67 404 19 384 L19 369 L77 369 L77 107 C77 67 79 51 89 33 C105 6 136 -10 175 -10 C232 -10 264 17 275 74 L256 74 C248 36 231 20 202 20 C168 20 154 40 154 85 L154 369 Z " />
<glyph glyph-name="u" unicode="u" horiz-adv-x="485" d="M405 387 L268 387 L268 369 L328 369 L328 200 C328 134 321 88 307 64 C290 32 256 13 218 13 C169 13 154 38 154 117 L154 387 L17 387 L17 369 L77 369 L77 131 C77 83 81 61 93 39 C111 8 151 -10 203 -10 C260 -10 295 10 328 60 L328 0 L468 0 L468 18 L405 18 L405 387 Z " />
<glyph glyph-name="v" unicode="v" horiz-adv-x="411" d="M196 -10 L225 -10 L369 369 L411 369 L411 387 L272 387 L272 369 L347 369 L238 85 L132 369 L207 369 L207 387 L0 387 L0 369 L49 369 L196 -10 Z " />
<glyph glyph-name="w" unicode="w" horiz-adv-x="581" d="M398 -10 L426 -10 L540 369 L581 369 L581 387 L457 387 L457 369 L517 369 L436 94 L332 387 L311 387 L225 94 L130 369 L198 369 L198 387 L0 387 L0 369 L49 369 L186 -9 L214 -9 L296 261 L398 -10 Z " />
<glyph glyph-name="x" unicode="x" horiz-adv-x="402" d="M227 230 L330 369 L381 369 L381 387 L241 387 L241 369 L304 369 L213 249 L134 369 L195 369 L195 387 L-3 387 L-3 369 L45 369 L167 182 L45 18 L-3 18 L-3 0 L147 0 L147 18 L75 18 L181 163 L275 18 L228 18 L228 0 L405 0 L405 18 L365 18 L227 230 Z " />
<glyph glyph-name="y" unicode="y" horiz-adv-x="393" d="M237 94 L129 369 L193 369 L193 387 L0 387 L0 369 L44 369 L205 -6 L153 -161 C140 -201 136 -208 122 -208 C116 -208 112 -206 108 -200 C93 -180 84 -174 68 -174 C45 -174 27 -194 27 -221 C27 -252 49 -274 80 -274 C120 -274 147 -244 172 -170 L351 369 L393 369 L393 387 L260 387 L260 369 L327 369 L237 94 Z " />
<glyph glyph-name="z" unicode="z" horiz-adv-x="381" d="M348 0 L350 164 L337 164 C313 41 293 19 210 18 L125 18 L356 387 L59 387 L55 238 L68 238 C99 350 116 367 200 369 L256 369 L29 0 L348 0 Z " />
<glyph glyph-name="braceleft" unicode="&#x7b;" horiz-adv-x="251" d="M1 250 C28 248 37 244 48 223 C57 205 58 196 59 108 L59 22 C59 -94 62 -111 87 -144 C110 -172 144 -180 228 -180 L228 -162 C150 -156 131 -123 134 0 L134 103 C136 208 119 242 56 256 L56 260 C120 276 135 304 134 403 L134 501 C133 612 153 644 228 649 L228 667 C140 666 119 661 95 639 C64 604 57 574 59 469 L59 395 C58 288 50 270 1 266 L1 250 Z " />
<glyph glyph-name="bar" unicode="&#x7c;" horiz-adv-x="475" d="M210 667 L210 -167 L265 -167 L265 667 L210 667 Z " />
<glyph glyph-name="braceright" unicode="&#x7d;" horiz-adv-x="251" d="M250 266 C201 270 193 288 192 395 L192 469 C193 570 188 597 162 632 C138 660 116 666 23 667 L23 649 C97 644 118 611 117 501 L117 403 C114 307 132 274 195 260 L195 256 C132 242 114 208 117 103 L117 0 C120 -123 100 -156 23 -162 L23 -180 C101 -180 134 -173 157 -151 C188 -116 192 -99 192 22 L192 108 C193 196 194 206 203 223 C214 244 222 248 250 250 L250 266 Z " />
<glyph glyph-name="asciitilde" unicode="&#x7e;" horiz-adv-x="492" d="M402 374 C384 352 366 343 338 343 C320 343 306 345 289 351 L245 365 C222 372 208 375 191 375 C139 375 111 356 80 299 L90 294 C108 316 128 325 157 325 C175 325 193 322 212 316 L255 302 C276 296 295 292 309 292 C347 292 378 315 412 369 L402 374 Z " />
<glyph glyph-name="uni00A0" unicode="&#xa0;" horiz-adv-x="250" d="" />
<glyph glyph-name="exclamdown" unicode="&#xa1;" horiz-adv-x="260" d="M122 207 C119 70 113 -4 101 -76 L84 -174 C82 -184 82 -190 82 -204 C82 -244 103 -274 130 -274 C157 -274 178 -244 178 -203 C178 -192 177 -184 176 -174 L159 -76 C145 7 140 66 138 207 L122 207 Z M130 410 C100 410 76 385 76 354 C76 322 100 297 130 297 C160 297 184 323 184 354 C184 385 160 410 130 410 L130 410 Z " />
<glyph glyph-name="cent" unicode="&#xa2;" horiz-adv-x="475" d="M268 665 L239 665 L239 545 C143 533 73 447 73 341 C73 235 144 149 239 140 L239 42 L268 42 L268 140 C343 147 391 193 409 276 L390 276 C374 209 331 168 268 160 L268 527 C304 527 337 514 337 500 C337 497 336 495 332 490 C323 479 318 463 318 447 C318 418 333 399 355 399 C378 399 393 418 393 447 C393 503 340 545 268 547 L268 665 Z M239 161 C182 174 166 209 166 314 L166 378 C167 477 187 516 239 525 L239 161 Z " />
<glyph glyph-name="sterling" unicode="&#xa3;" horiz-adv-x="475" d="M194 268 C226 222 234 200 234 157 C234 141 233 133 229 114 C183 136 149 144 105 144 C44 144 4 115 4 72 C4 29 44 0 105 0 C151 0 184 12 222 42 L260 17 C287 -1 316 -10 348 -10 C394 -10 427 7 447 41 C469 79 477 113 478 171 L456 171 L456 160 C456 100 422 53 378 53 C353 53 320 64 285 85 L253 103 C264 142 267 163 267 194 C267 221 263 245 254 268 L381 268 L381 298 L240 298 C236 305 234 309 229 317 L187 381 C161 421 145 473 145 516 C145 598 199 657 273 657 C326 657 369 625 369 584 C369 578 367 573 361 568 C340 545 336 538 336 519 C336 492 354 471 378 471 C408 471 430 501 430 540 C430 615 356 677 267 677 C158 677 66 590 66 487 C66 447 80 414 117 366 L170 298 L55 298 L55 268 L194 268 Z M203 58 C173 30 147 20 107 20 C62 20 31 40 31 69 C31 92 52 109 78 109 C102 109 133 100 159 84 L203 58 Z " />
<glyph glyph-name="currency" unicode="&#xa4;" horiz-adv-x="475" d="M361 478 C325 511 283 527 237 527 C191 527 150 511 113 478 L50 545 L30 523 L93 457 C62 418 47 375 47 327 C47 279 63 235 93 196 L30 130 L50 109 L113 175 C150 143 192 127 237 127 C282 127 326 144 361 175 L424 109 L444 130 L381 196 C411 234 427 279 427 327 C427 375 412 419 381 457 L444 523 L424 545 L361 478 Z M237 464 C307 464 364 402 364 328 C364 251 307 190 235 190 C167 190 110 252 110 327 C110 403 167 464 237 464 L237 464 Z " />
<glyph glyph-name="yen" unicode="&#xa5;" horiz-adv-x="475" d="M125 451 L24 451 L24 433 L134 433 L191 322 L52 322 L52 304 L200 304 L200 18 L119 18 L119 0 L357 0 L357 18 L280 18 L280 304 L421 304 L421 322 L287 322 L332 433 L450 433 L450 451 L339 451 L416 629 L471 629 L471 647 L316 647 L316 629 L393 629 L272 339 L128 629 L200 629 L200 647 L-10 647 L-10 629 L36 629 L125 451 Z " />
<glyph glyph-name="brokenbar" unicode="&#xa6;" horiz-adv-x="475" d="M210 667 L210 330 L265 330 L265 667 L210 667 Z M210 153 L210 -167 L265 -167 L265 153 L210 153 Z " />
<glyph glyph-name="section" unicode="&#xa7;" horiz-adv-x="475" d="M189 475 C140 502 121 526 121 563 C121 620 169 657 242 657 C294 657 330 641 352 607 C311 597 295 581 295 550 C295 523 313 503 338 503 C367 503 390 529 390 563 C390 628 327 677 242 677 C195 677 155 664 130 641 C99 612 81 567 81 521 C81 471 97 439 142 402 C79 370 53 328 53 260 C53 193 74 164 155 118 L292 40 C350 7 369 -18 369 -60 C369 -88 361 -111 345 -128 C321 -154 273 -170 223 -170 C162 -170 123 -152 93 -109 C133 -105 155 -81 155 -42 C155 -9 136 13 109 13 C78 13 53 -18 53 -57 C53 -133 127 -190 225 -190 C338 -190 418 -121 418 -25 C418 36 393 74 325 118 C389 142 423 190 423 258 C423 325 395 362 310 409 L189 475 Z M311 316 C368 283 390 258 390 223 C390 179 348 136 306 136 C292 136 283 139 262 151 L146 215 C105 238 86 265 86 300 C86 344 121 383 162 383 C182 383 204 377 223 366 L311 316 Z " />
<glyph glyph-name="dieresis" unicode="&#xa8;" horiz-adv-x="480" d="M158 584 C131 584 109 562 109 536 C109 509 131 487 158 487 C184 487 206 509 206 535 C206 562 185 584 158 584 L158 584 Z M322 584 C296 584 274 562 274 536 C274 509 296 487 323 487 C349 487 371 509 371 535 C371 562 350 584 322 584 L322 584 Z " />
<glyph glyph-name="copyright" unicode="&#xa9;" horiz-adv-x="747" d="M373 677 C191 677 44 523 44 333 C44 146 192 -10 369 -10 C557 -10 703 141 703 335 C703 524 555 677 373 677 L373 677 Z M374 649 C535 649 668 508 668 335 C668 157 537 18 370 18 C211 18 79 161 79 333 C79 508 211 649 374 649 L374 649 Z M503 530 L491 530 L473 503 C443 526 417 536 385 536 C290 536 218 448 218 333 C218 225 291 138 380 138 C412 138 439 147 473 171 L491 143 L503 143 L503 255 L490 255 C465 186 433 156 382 156 C351 156 321 172 307 196 C295 217 291 248 291 318 C291 415 296 456 309 480 C323 503 353 518 385 518 C438 518 475 485 490 425 L503 425 L503 530 Z " />
<glyph glyph-name="ordfeminine" unicode="&#xaa;" horiz-adv-x="322" d="M293 330 L24 330 L24 297 L293 297 L293 330 Z M189 551 C85 548 30 516 30 459 C30 420 60 394 106 394 C143 394 170 410 190 442 C195 410 214 394 245 394 C262 394 270 397 296 415 L285 429 C276 421 270 418 264 418 C253 418 249 424 249 442 L249 593 C249 622 242 640 226 652 C208 666 182 674 152 674 C96 674 48 642 48 605 C48 587 60 573 76 573 C92 573 104 586 104 603 C104 612 101 619 95 627 C92 630 91 632 91 634 C91 643 121 656 144 656 C175 656 189 643 189 615 L189 551 Z M189 516 C189 486 186 470 179 457 C169 439 151 428 132 428 C107 428 91 445 91 471 C91 511 124 532 189 534 L189 516 Z " />
<glyph glyph-name="guillemotleft" unicode="&#xab;" horiz-adv-x="357" d="M153 200 L259 96 L306 96 L201 200 L306 304 L259 304 L153 200 Z M44 200 L150 96 L197 96 L92 200 L197 304 L150 304 L44 200 Z " />
<glyph glyph-name="logicalnot" unicode="&#xac;" horiz-adv-x="475" d="M341 0 L441 0 L441 267 L33 267 L33 224 L341 224 L341 0 Z " />
<glyph glyph-name="uni00AD" unicode="&#xad;" horiz-adv-x="179" d="M179 230 L0 230 L0 170 L179 170 L179 230 Z " />
<glyph glyph-name="registered" unicode="&#xae;" horiz-adv-x="747" d="M373 677 C191 677 44 523 44 333 C44 146 192 -10 369 -10 C557 -10 703 141 703 335 C703 524 555 677 373 677 L373 677 Z M374 649 C535 649 668 508 668 335 C668 157 537 18 370 18 C211 18 79 161 79 333 C79 508 211 649 374 649 L374 649 Z M330 340 L359 340 C412 338 431 320 433 268 L433 240 C433 176 461 140 511 140 C527 140 538 143 554 151 L549 167 C537 161 531 159 523 159 C506 159 498 174 498 208 L498 239 C498 294 465 335 412 345 C474 355 511 390 511 439 C511 472 495 500 468 514 C444 527 424 530 376 530 L219 530 L219 513 L268 513 L268 160 L219 160 L219 143 L379 143 L379 160 L330 160 L330 340 Z M330 357 L330 513 L365 513 C420 513 443 490 443 434 C443 381 417 357 361 357 L330 357 Z " />
<glyph glyph-name="macron" unicode="&#xaf;" horiz-adv-x="489" d="M381 499 L381 523 L108 523 L108 499 L381 499 Z " />
<glyph glyph-name="degree" unicode="&#xb0;" horiz-adv-x="400" d="M203 686 C117 686 50 619 50 534 C50 448 116 381 200 381 C284 381 350 448 350 533 C350 619 286 686 203 686 L203 686 Z M202 629 C252 629 293 586 293 534 C293 480 252 438 200 438 C148 438 106 481 106 533 C106 587 148 629 202 629 L202 629 Z " />
<glyph glyph-name="plusminus" unicode="&#xb1;" horiz-adv-x="475" d="M223 308 L223 131 L253 131 L253 308 L426 308 L426 338 L253 338 L253 515 L223 515 L223 338 L49 338 L49 308 L223 308 Z M49 11 L427 11 L427 41 L49 41 L49 11 Z " />
<glyph glyph-name="twosuperior" unicode="&#xb2;" horiz-adv-x="310" d="M265 258 L265 369 L251 369 C247 345 244 328 240 319 C237 313 226 310 203 310 L77 310 L167 402 C215 450 215 450 227 466 C254 500 266 526 266 553 C266 611 217 653 150 653 C89 653 44 615 44 562 C44 529 62 505 87 505 C105 505 118 517 118 535 C118 552 105 565 89 565 C85 565 82 564 78 563 C70 560 70 560 69 560 C65 560 64 563 64 570 C64 603 95 633 130 633 C170 633 198 594 198 537 C198 485 177 444 125 388 L31 290 L31 258 L265 258 Z " />
<glyph glyph-name="threesuperior" unicode="&#xb3;" horiz-adv-x="310" d="M84 477 L84 460 L109 460 C173 460 201 431 201 363 C201 304 177 271 132 271 C108 271 76 287 76 299 C76 301 78 303 82 306 C90 312 94 321 94 333 C94 352 84 364 68 364 L67 364 C51 364 39 348 39 327 C39 283 80 253 140 253 C214 253 271 303 271 370 C271 425 235 460 167 469 C217 484 250 523 250 565 C250 616 207 653 148 653 C97 653 59 625 59 588 C59 568 71 553 86 553 C100 553 110 565 110 583 C110 594 106 603 98 609 C95 612 94 613 94 615 C94 623 117 633 137 633 C171 633 184 614 184 567 C184 503 163 477 109 477 L84 477 Z " />
<glyph glyph-name="acute" unicode="&#xb4;" horiz-adv-x="484" d="M302 613 L206 470 L205 467 C205 465 207 463 208 463 C209 463 210 463 213 466 L372 595 C376 598 379 603 379 606 C379 611 375 613 367 613 L302 613 Z " />
<glyph glyph-name="mu" unicode="&#xb5;" horiz-adv-x="576" d="M442 500 L353 500 L354 131 C318 80 284 58 242 58 C184 58 150 99 150 169 L150 500 L62 500 L62 20 C62 -1 58 -26 51 -56 C34 -118 33 -123 33 -147 C33 -190 54 -219 83 -219 C112 -219 132 -189 132 -145 C132 -124 129 -110 113 -53 C102 -17 101 -8 101 21 L101 33 C143 -3 165 -13 200 -13 C250 -13 301 18 354 80 C362 48 367 36 377 21 C392 0 419 -13 449 -13 C510 -13 553 31 567 108 L540 109 C536 71 515 41 492 41 C462 41 442 77 442 131 L442 500 Z " />
<glyph glyph-name="paragraph" unicode="&#xb6;" horiz-adv-x="475" d="M214 -162 L143 -162 L143 -180 L436 -180 L436 -162 L381 -162 L381 649 L436 649 L436 667 L209 667 C153 667 107 652 79 626 C46 593 25 541 25 488 C25 383 93 312 195 312 L214 312 L214 -162 Z M257 -162 L257 649 L338 649 L338 -162 L257 -162 Z " />
<glyph glyph-name="periodcentered" unicode="&#xb7;" horiz-adv-x="234" d="M117 256 C87 256 63 231 63 200 C63 168 87 143 117 143 C147 143 171 168 171 199 C171 231 147 256 117 256 L117 256 Z " />
<glyph glyph-name="cedilla" unicode="&#xb8;" horiz-adv-x="475" d="M248 0 L230 0 L214 -65 C244 -74 258 -89 258 -114 C258 -141 239 -160 211 -160 C193 -160 174 -151 175 -142 C175 -141 175 -140 176 -138 L176 -136 C176 -135 176 -133 175 -130 C175 -127 174 -123 174 -123 C172 -104 169 -98 161 -98 C154 -98 150 -104 150 -115 C150 -150 181 -176 224 -176 C273 -176 316 -144 316 -107 C316 -75 290 -56 246 -56 L233 -56 L248 0 Z " />
<glyph glyph-name="onesuperior" unicode="&#xb9;" horiz-adv-x="310" d="M195 647 L69 641 L69 625 L123 625 C128 625 131 624 132 623 C133 623 133 620 133 613 L133 276 L69 276 L69 258 L257 258 L257 276 L195 276 L195 647 Z " />
<glyph glyph-name="ordmasculine" unicode="&#xba;" horiz-adv-x="327" d="M296 330 L28 330 L28 297 L296 297 L296 330 Z M162 674 C86 674 24 612 24 534 C24 456 85 394 162 394 C238 394 300 456 300 532 C300 612 240 674 162 674 L162 674 Z M229 517 C229 471 224 444 214 433 C202 421 182 414 162 414 C143 414 125 420 113 430 C99 441 94 465 94 517 L94 550 C94 596 99 624 109 635 C121 647 141 654 162 654 C180 654 198 648 210 638 C224 627 229 603 229 550 L229 517 Z " />
<glyph glyph-name="guillemotright" unicode="&#xbb;" horiz-adv-x="357" d="M204 200 L99 304 L51 304 L156 200 L51 96 L99 96 L204 200 Z M313 200 L208 304 L160 304 L265 200 L160 96 L208 96 L313 200 Z " />
<glyph glyph-name="onequarter" unicode="&#xbc;" horiz-adv-x="729" d="M195 647 L69 641 L69 625 L123 625 C128 625 131 624 132 623 C133 623 133 620 133 613 L133 276 L69 276 L69 258 L257 258 L257 276 L195 276 L195 647 Z M536 647 L504 647 L219 0 L251 0 L536 647 Z M639 103 L681 103 L681 59 L700 59 L700 168 L681 168 L681 124 L639 124 L639 393 L604 393 L438 132 L438 103 L577 103 L577 18 L522 18 L522 0 L683 0 L683 18 L639 18 L639 103 Z M577 124 L458 124 L577 315 L577 124 Z " />
<glyph glyph-name="onehalf" unicode="&#xbd;" horiz-adv-x="729" d="M195 647 L69 641 L69 625 L123 625 C128 625 131 624 132 623 C133 623 133 620 133 613 L133 276 L69 276 L69 258 L257 258 L257 276 L195 276 L195 647 Z M523 647 L491 647 L206 0 L238 0 L523 647 Z M684 0 L684 111 L670 111 C667 87 663 70 659 61 C656 55 646 52 623 52 L497 52 L586 144 C635 192 635 192 647 207 C673 241 685 268 685 294 C685 352 637 394 570 394 C508 394 463 356 463 304 C463 271 481 247 507 247 C524 247 537 259 537 277 C537 294 524 307 508 307 C505 307 501 306 497 305 C489 302 489 302 488 302 C485 302 483 305 483 312 C483 344 514 374 549 374 C589 374 617 335 617 279 C617 227 597 185 544 130 L450 32 L450 0 L684 0 Z " />
<glyph glyph-name="threequarters" unicode="&#xbe;" horiz-adv-x="729" d="M84 477 L84 460 L109 460 C173 460 201 431 201 363 C201 304 177 271 132 271 C108 271 76 287 76 299 C76 301 78 303 82 306 C90 312 94 321 94 333 C94 352 84 364 68 364 L67 364 C51 364 39 348 39 327 C39 283 80 253 140 253 C214 253 271 303 271 370 C271 425 235 460 167 469 C217 484 250 523 250 565 C250 616 207 653 148 653 C97 653 59 625 59 588 C59 568 71 553 86 553 C100 553 110 565 110 583 C110 594 106 603 98 609 C95 612 94 613 94 615 C94 623 117 633 137 633 C171 633 184 614 184 567 C184 503 163 477 109 477 L84 477 Z M536 647 L504 647 L219 0 L251 0 L536 647 Z M639 103 L681 103 L681 59 L700 59 L700 168 L681 168 L681 124 L639 124 L639 393 L604 393 L438 132 L438 103 L577 103 L577 18 L522 18 L522 0 L683 0 L683 18 L639 18 L639 103 Z M577 124 L458 124 L577 315 L577 124 Z " />
<glyph glyph-name="questiondown" unicode="&#xbf;" horiz-adv-x="358" d="M218 207 C218 141 211 126 158 79 L110 38 C62 -2 38 -52 38 -110 C38 -206 99 -274 185 -274 C262 -274 322 -217 322 -145 C322 -108 306 -84 283 -84 C262 -84 249 -101 249 -128 C249 -148 255 -160 273 -172 C284 -179 287 -183 287 -190 C287 -222 235 -254 184 -254 C124 -254 79 -215 79 -164 C79 -135 97 -100 125 -72 L155 -43 C178 -21 190 -8 199 5 C223 39 235 89 235 152 C235 171 234 184 231 211 L218 207 Z M219 410 C189 410 165 385 165 354 C165 322 189 297 219 297 C249 297 273 323 273 354 C273 385 249 410 219 410 L219 410 Z " />
<glyph glyph-name="Agrave" unicode="&#xc0;" horiz-adv-x="576" d="M223 833 L126 833 C117 833 113 830 113 825 C113 821 117 818 126 814 L347 721 C349 720 351 720 352 720 C355 720 357 722 357 724 C357 726 356 728 352 731 L223 833 Z M347 214 L411 18 L321 18 L321 0 L579 0 L579 18 L507 18 L299 667 L274 667 L57 18 L-3 18 L-3 0 L165 0 L165 18 L81 18 L145 214 L347 214 Z M341 232 L152 232 L247 527 L341 232 Z " />
<glyph glyph-name="Aacute" unicode="&#xc1;" horiz-adv-x="576" d="M377 833 L248 731 C244 728 243 726 243 724 C243 721 245 719 248 719 C249 719 251 720 254 721 L475 814 C483 817 487 821 487 825 C487 830 483 833 474 833 L377 833 Z M347 214 L411 18 L321 18 L321 0 L579 0 L579 18 L507 18 L299 667 L274 667 L57 18 L-3 18 L-3 0 L165 0 L165 18 L81 18 L145 214 L347 214 Z M341 232 L152 232 L247 527 L341 232 Z " />
<glyph glyph-name="Acircumflex" unicode="&#xc2;" horiz-adv-x="576" d="M287 769 L434 721 C435 720 437 720 438 720 C441 720 443 721 443 723 C443 725 442 727 438 730 L287 838 L135 730 C132 727 130 725 130 723 C130 721 132 720 135 720 C136 720 138 720 139 721 L287 769 Z M347 214 L411 18 L321 18 L321 0 L579 0 L579 18 L507 18 L299 667 L274 667 L57 18 L-3 18 L-3 0 L165 0 L165 18 L81 18 L145 214 L347 214 Z M341 232 L152 232 L247 527 L341 232 Z " />
<glyph glyph-name="Atilde" unicode="&#xc3;" horiz-adv-x="576" d="M447 815 C429 793 412 784 384 784 C367 784 351 787 334 792 L291 806 C264 815 254 817 237 817 C184 817 156 797 125 741 L135 735 C153 758 173 767 202 767 C218 767 238 763 257 757 L300 744 C321 737 341 733 355 733 C392 733 423 756 457 810 L447 815 Z M347 214 L411 18 L321 18 L321 0 L579 0 L579 18 L507 18 L299 667 L274 667 L57 18 L-3 18 L-3 0 L165 0 L165 18 L81 18 L145 214 L347 214 Z M341 232 L152 232 L247 527 L341 232 Z " />
<glyph glyph-name="Adieresis" unicode="&#xc4;" horiz-adv-x="576" d="M186 824 C160 824 138 802 138 776 C138 749 160 727 187 727 C213 727 235 749 235 775 C235 802 214 824 186 824 L186 824 Z M387 824 C361 824 339 802 339 776 C339 749 361 727 388 727 C414 727 436 749 436 775 C436 802 415 824 387 824 L387 824 Z M347 214 L411 18 L321 18 L321 0 L579 0 L579 18 L507 18 L299 667 L274 667 L57 18 L-3 18 L-3 0 L165 0 L165 18 L81 18 L145 214 L347 214 Z M341 232 L152 232 L247 527 L341 232 Z " />
<glyph glyph-name="Aring" unicode="&#xc5;" horiz-adv-x="576" d="M285 859 C243 859 209 825 209 782 C209 740 242 707 285 707 C328 707 361 740 361 781 C361 825 328 859 285 859 L285 859 Z M285 832 C311 832 333 809 333 783 C333 757 311 734 285 734 C259 734 237 757 237 783 C237 809 259 832 285 832 L285 832 Z M347 214 L411 18 L321 18 L321 0 L579 0 L579 18 L507 18 L299 667 L274 667 L57 18 L-3 18 L-3 0 L165 0 L165 18 L81 18 L145 214 L347 214 Z M341 232 L152 232 L247 527 L341 232 Z " />
<glyph glyph-name="AE" unicode="&#xc6;" horiz-adv-x="801" d="M726 667 L239 667 L239 649 L333 649 L45 18 L-25 18 L-25 0 L164 0 L164 18 L69 18 L157 211 L359 211 L359 18 L277 18 L277 0 L747 0 L766 207 L753 207 C739 151 727 115 714 90 C678 26 664 19 575 18 L452 18 L452 329 L493 329 C565 328 591 301 594 221 L594 197 L607 197 L607 472 L594 472 L594 453 C592 373 569 348 495 347 L452 347 L452 649 L531 649 C658 651 698 618 726 486 L739 486 L726 667 Z M359 229 L165 229 L359 649 L359 229 Z " />
<glyph glyph-name="Ccedilla" unicode="&#xc7;" horiz-adv-x="561" d="M312 -10 C368 -10 415 8 472 50 L503 0 L516 0 L516 185 L503 185 C481 123 466 95 438 63 C408 30 363 10 317 10 C262 10 210 38 186 82 C164 120 157 173 157 296 C157 426 162 504 172 544 C191 616 246 657 322 657 C372 657 418 637 452 599 C478 570 490 545 503 494 L516 494 L516 667 L503 667 L472 617 C418 660 376 677 321 677 C164 677 44 526 44 328 C44 238 67 164 116 99 C166 33 220 0 294 -9 L279 -67 C311 -76 326 -92 326 -117 C326 -146 306 -165 277 -165 C253 -165 239 -157 239 -142 C239 -140 239 -137 238 -134 L237 -126 C235 -108 232 -101 224 -101 C216 -101 212 -107 212 -118 C212 -155 245 -181 290 -181 C342 -181 387 -148 387 -110 C387 -78 359 -58 313 -58 L299 -58 L312 -10 Z " />
<glyph glyph-name="Egrave" unicode="&#xc8;" horiz-adv-x="556" d="M253 833 L157 833 C148 833 143 830 143 825 C143 821 147 818 156 814 L377 721 C379 720 381 720 383 720 C385 720 387 722 387 724 C387 726 386 728 383 731 L253 833 Z M480 667 L32 667 L32 649 L114 649 L114 18 L32 18 L32 0 L501 0 L520 208 L508 208 C493 151 481 115 468 90 C432 26 419 19 330 18 L207 18 L207 329 L247 329 C320 328 346 301 349 221 L349 198 L362 198 L362 472 L349 472 L349 453 C346 373 323 349 250 347 L207 347 L207 649 L285 649 C413 651 452 618 480 486 L493 486 L480 667 Z " />
<glyph glyph-name="Eacute" unicode="&#xc9;" horiz-adv-x="556" d="M353 833 L224 731 C220 728 219 726 219 724 C219 721 221 719 223 719 C225 719 226 720 229 721 L450 814 C459 818 463 821 463 825 C463 830 459 833 450 833 L353 833 Z M480 667 L32 667 L32 649 L114 649 L114 18 L32 18 L32 0 L501 0 L520 208 L508 208 C493 151 481 115 468 90 C432 26 419 19 330 18 L207 18 L207 329 L247 329 C320 328 346 301 349 221 L349 198 L362 198 L362 472 L349 472 L349 453 C346 373 323 349 250 347 L207 347 L207 649 L285 649 C413 651 452 618 480 486 L493 486 L480 667 Z " />
<glyph glyph-name="Ecircumflex" unicode="&#xca;" horiz-adv-x="556" d="M290 769 L438 721 C439 720 440 720 442 720 C445 720 447 721 447 723 C447 725 446 726 441 730 L290 838 L139 730 C134 727 133 725 133 723 C133 721 135 720 138 720 C140 720 141 720 142 721 L290 769 Z M480 667 L32 667 L32 649 L114 649 L114 18 L32 18 L32 0 L501 0 L520 208 L508 208 C493 151 481 115 468 90 C432 26 419 19 330 18 L207 18 L207 329 L247 329 C320 328 346 301 349 221 L349 198 L362 198 L362 472 L349 472 L349 453 C346 373 323 349 250 347 L207 347 L207 649 L285 649 C413 651 452 618 480 486 L493 486 L480 667 Z " />
<glyph glyph-name="Edieresis" unicode="&#xcb;" horiz-adv-x="556" d="M185 824 C159 824 137 802 137 776 C137 749 159 727 186 727 C212 727 234 749 234 775 C234 802 213 824 185 824 L185 824 Z M386 824 C360 824 338 802 338 776 C338 749 360 727 387 727 C413 727 435 749 435 775 C435 802 414 824 386 824 L386 824 Z M480 667 L32 667 L32 649 L114 649 L114 18 L32 18 L32 0 L501 0 L520 208 L508 208 C493 151 481 115 468 90 C432 26 419 19 330 18 L207 18 L207 329 L247 329 C320 328 346 301 349 221 L349 198 L362 198 L362 472 L349 472 L349 453 C346 373 323 349 250 347 L207 347 L207 649 L285 649 C413 651 452 618 480 486 L493 486 L480 667 Z " />
<glyph glyph-name="Igrave" unicode="&#xcc;" horiz-adv-x="321" d="M114 18 L32 18 L32 0 L289 0 L289 18 L207 18 L207 649 L289 649 L289 667 L32 667 L32 649 L114 649 L114 18 Z M110 833 L13 833 C4 833 0 830 0 825 C0 821 4 817 12 814 L234 721 C236 720 238 719 239 719 C242 719 244 721 244 724 C244 726 243 728 239 731 L110 833 Z " />
<glyph glyph-name="Iacute" unicode="&#xcd;" horiz-adv-x="321" d="M114 18 L32 18 L32 0 L289 0 L289 18 L207 18 L207 649 L289 649 L289 667 L32 667 L32 649 L114 649 L114 18 Z M258 833 L128 731 C125 728 124 726 124 724 C124 721 126 719 128 719 C129 719 131 720 134 721 L355 814 C364 818 368 821 368 825 C368 831 364 833 354 833 L258 833 Z " />
<glyph glyph-name="Icircumflex" unicode="&#xce;" horiz-adv-x="321" d="M114 18 L32 18 L32 0 L289 0 L289 18 L207 18 L207 649 L289 649 L289 667 L32 667 L32 649 L114 649 L114 18 Z M160 769 L308 721 C309 720 311 720 312 720 C315 720 317 721 317 723 C317 725 316 727 312 730 L160 838 L9 730 C4 726 3 725 3 723 C3 721 5 720 8 720 C10 720 11 720 13 721 L160 769 Z " />
<glyph glyph-name="Idieresis" unicode="&#xcf;" horiz-adv-x="321" d="M114 18 L32 18 L32 0 L289 0 L289 18 L207 18 L207 649 L289 649 L289 667 L32 667 L32 649 L114 649 L114 18 Z M81 824 C55 824 33 802 33 776 C33 749 55 727 82 727 C108 727 130 749 130 775 C130 802 109 824 81 824 L81 824 Z M241 824 C215 824 193 802 193 776 C193 749 215 727 242 727 C268 727 290 749 290 775 C290 802 269 824 241 824 L241 824 Z " />
<glyph glyph-name="Eth" unicode="&#xd0;" horiz-adv-x="640" d="M114 330 L114 18 L32 18 L32 0 L270 0 C354 0 397 8 438 31 C536 86 595 201 595 335 C595 466 540 576 446 631 C401 657 352 667 270 667 L32 667 L32 649 L114 649 L114 348 L32 348 L32 330 L114 330 Z M207 330 L350 330 L350 348 L207 348 L207 649 L269 649 C346 649 388 638 424 607 C467 571 482 504 482 348 C482 181 469 105 434 69 C399 32 354 18 271 18 L207 18 L207 330 Z " />
<glyph glyph-name="Ntilde" unicode="&#xd1;" horiz-adv-x="645" d="M491 815 C473 793 456 784 428 784 C411 784 395 787 378 792 L335 806 C308 815 298 817 281 817 C228 817 200 797 169 741 L179 735 C197 758 217 767 246 767 C262 767 282 763 301 757 L344 744 C365 737 385 733 399 733 C436 733 467 756 501 810 L491 815 Z M527 0 L543 0 L543 649 L613 649 L613 667 L439 667 L439 649 L520 649 L520 185 L222 667 L22 667 L22 649 L104 649 L104 18 L22 18 L22 0 L215 0 L215 18 L127 18 L127 644 L527 0 Z " />
<glyph glyph-name="Ograve" unicode="&#xd2;" horiz-adv-x="627" d="M264 833 L167 833 C158 833 154 830 154 825 C154 821 158 818 167 814 L388 721 C390 720 392 720 393 720 C396 720 398 722 398 724 C398 726 397 728 393 731 L264 833 Z M313 677 C162 677 44 527 44 334 C44 140 162 -10 313 -10 C465 -10 583 139 583 330 C583 430 559 509 507 576 C456 642 388 677 313 677 L313 677 Z M314 657 C380 657 432 620 453 559 C467 518 470 479 470 312 C470 166 464 120 439 77 C415 36 366 10 313 10 C247 10 195 47 174 108 C160 149 157 189 157 347 C157 501 163 547 188 590 C212 631 261 657 314 657 L314 657 Z " />
<glyph glyph-name="Oacute" unicode="&#xd3;" horiz-adv-x="627" d="M389 833 L260 731 C256 728 255 726 255 724 C255 721 257 719 259 719 C261 719 262 720 265 721 L486 814 C495 818 499 821 499 825 C499 830 495 833 486 833 L389 833 Z M313 677 C162 677 44 527 44 334 C44 140 162 -10 313 -10 C465 -10 583 139 583 330 C583 430 559 509 507 576 C456 642 388 677 313 677 L313 677 Z M314 657 C380 657 432 620 453 559 C467 518 470 479 470 312 C470 166 464 120 439 77 C415 36 366 10 313 10 C247 10 195 47 174 108 C160 149 157 189 157 347 C157 501 163 547 188 590 C212 631 261 657 314 657 L314 657 Z " />
<glyph glyph-name="Ocircumflex" unicode="&#xd4;" horiz-adv-x="627" d="M313 769 L461 721 C462 720 464 720 465 720 C468 720 470 721 470 723 C470 725 469 727 465 730 L313 838 L162 730 C157 726 156 725 156 723 C156 721 158 720 161 720 C163 720 164 720 166 721 L313 769 Z M313 677 C162 677 44 527 44 334 C44 140 162 -10 313 -10 C465 -10 583 139 583 330 C583 430 559 509 507 576 C456 642 388 677 313 677 L313 677 Z M314 657 C380 657 432 620 453 559 C467 518 470 479 470 312 C470 166 464 120 439 77 C415 36 366 10 313 10 C247 10 195 47 174 108 C160 149 157 189 157 347 C157 501 163 547 188 590 C212 631 261 657 314 657 L314 657 Z " />
<glyph glyph-name="Otilde" unicode="&#xd5;" horiz-adv-x="627" d="M476 815 C458 793 440 784 412 784 C395 784 379 787 363 792 L319 806 C292 815 282 817 265 817 C213 817 184 797 154 741 L164 735 C182 758 201 767 230 767 C246 767 266 763 286 757 L328 744 C350 737 370 733 383 733 C421 733 452 756 486 810 L476 815 Z M313 677 C162 677 44 527 44 334 C44 140 162 -10 313 -10 C465 -10 583 139 583 330 C583 430 559 509 507 576 C456 642 388 677 313 677 L313 677 Z M314 657 C380 657 432 620 453 559 C467 518 470 479 470 312 C470 166 464 120 439 77 C415 36 366 10 313 10 C247 10 195 47 174 108 C160 149 157 189 157 347 C157 501 163 547 188 590 C212 631 261 657 314 657 L314 657 Z " />
<glyph glyph-name="Odieresis" unicode="&#xd6;" horiz-adv-x="627" d="M213 824 C187 824 165 802 165 776 C165 749 187 727 214 727 C240 727 262 749 262 775 C262 802 241 824 213 824 L213 824 Z M414 824 C388 824 366 802 366 776 C366 749 388 727 415 727 C441 727 463 749 463 775 C463 802 442 824 414 824 L414 824 Z M313 677 C162 677 44 527 44 334 C44 140 162 -10 313 -10 C465 -10 583 139 583 330 C583 430 559 509 507 576 C456 642 388 677 313 677 L313 677 Z M314 657 C380 657 432 620 453 559 C467 518 470 479 470 312 C470 166 464 120 439 77 C415 36 366 10 313 10 C247 10 195 47 174 108 C160 149 157 189 157 347 C157 501 163 547 188 590 C212 631 261 657 314 657 L314 657 Z " />
<glyph glyph-name="multiply" unicode="&#xd7;" horiz-adv-x="475" d="M238 302 L370 163 L390 184 L258 323 L390 463 L370 484 L238 345 L105 484 L85 463 L218 323 L85 184 L105 163 L238 302 Z " />
<glyph glyph-name="Oslash" unicode="&#xd8;" horiz-adv-x="627" d="M78 2 L93 -11 L144 65 C194 15 250 -10 313 -10 C401 -10 483 42 533 130 C567 189 583 256 583 334 C583 435 553 523 496 588 L549 667 L532 679 L482 604 C431 653 376 677 314 677 C162 677 44 527 44 334 C44 233 75 141 130 80 L78 2 Z M167 135 C159 174 157 211 157 347 C157 501 163 547 188 590 C212 631 261 657 313 657 C379 657 430 622 452 560 L167 135 Z M460 534 C468 502 470 452 470 320 C470 165 464 120 439 77 C415 36 366 10 314 10 C247 10 194 47 174 110 L460 534 Z " />
<glyph glyph-name="Ugrave" unicode="&#xd9;" horiz-adv-x="610" d="M281 833 L184 833 C175 833 171 831 171 825 C171 821 174 818 183 814 L405 721 C407 720 409 719 410 719 C412 719 415 721 415 724 C415 726 413 728 410 731 L281 833 Z M190 649 L272 649 L272 667 L19 667 L19 649 L97 649 L97 249 C97 162 105 117 128 77 C160 21 228 -10 318 -10 C406 -10 464 21 494 84 C510 118 516 154 516 222 L516 649 L584 649 L584 667 L417 667 L417 649 L493 649 L493 222 C493 149 490 127 477 98 C452 41 404 10 341 10 C285 10 235 36 212 78 C194 109 190 136 190 205 L190 649 Z " />
<glyph glyph-name="Uacute" unicode="&#xda;" horiz-adv-x="610" d="M410 833 L281 731 C277 728 276 726 276 724 C276 721 278 719 280 719 C281 719 283 720 286 721 L507 814 C516 817 520 821 520 825 C520 830 515 833 507 833 L410 833 Z M190 649 L272 649 L272 667 L19 667 L19 649 L97 649 L97 249 C97 162 105 117 128 77 C160 21 228 -10 318 -10 C406 -10 464 21 494 84 C510 118 516 154 516 222 L516 649 L584 649 L584 667 L417 667 L417 649 L493 649 L493 222 C493 149 490 127 477 98 C452 41 404 10 341 10 C285 10 235 36 212 78 C194 109 190 136 190 205 L190 649 Z " />
<glyph glyph-name="Ucircumflex" unicode="&#xdb;" horiz-adv-x="610" d="M327 769 L475 721 C476 720 477 720 479 720 C482 720 484 721 484 723 C484 725 482 727 478 730 L327 838 L176 730 C171 726 170 725 170 723 C170 721 172 720 175 720 C177 720 178 720 179 721 L327 769 Z M190 649 L272 649 L272 667 L19 667 L19 649 L97 649 L97 249 C97 162 105 117 128 77 C160 21 228 -10 318 -10 C406 -10 464 21 494 84 C510 118 516 154 516 222 L516 649 L584 649 L584 667 L417 667 L417 649 L493 649 L493 222 C493 149 490 127 477 98 C452 41 404 10 341 10 C285 10 235 36 212 78 C194 109 190 136 190 205 L190 649 Z " />
<glyph glyph-name="Udieresis" unicode="&#xdc;" horiz-adv-x="610" d="M220 824 C193 824 172 802 172 776 C172 749 194 727 220 727 C247 727 269 749 269 775 C269 802 247 824 220 824 L220 824 Z M421 824 C394 824 373 802 373 776 C373 749 394 727 421 727 C448 727 470 749 470 775 C470 802 448 824 421 824 L421 824 Z M190 649 L272 649 L272 667 L19 667 L19 649 L97 649 L97 249 C97 162 105 117 128 77 C160 21 228 -10 318 -10 C406 -10 464 21 494 84 C510 118 516 154 516 222 L516 649 L584 649 L584 667 L417 667 L417 649 L493 649 L493 222 C493 149 490 127 477 98 C452 41 404 10 341 10 C285 10 235 36 212 78 C194 109 190 136 190 205 L190 649 Z " />
<glyph glyph-name="Yacute" unicode="&#xdd;" horiz-adv-x="524" d="M381 833 L252 731 C248 728 247 726 247 724 C247 721 249 719 252 719 C253 719 255 720 258 721 L479 814 C487 817 491 821 491 825 C491 830 487 833 478 833 L381 833 Z M477 649 L542 649 L542 667 L361 667 L361 649 L454 649 L313 353 L142 649 L226 649 L226 667 L-19 667 L-19 649 L35 649 L226 312 L226 18 L131 18 L131 0 L414 0 L414 18 L319 18 L319 312 L477 649 Z " />
<glyph glyph-name="Thorn" unicode="&#xde;" horiz-adv-x="550" d="M207 203 L298 203 C360 203 403 212 439 232 C490 260 522 315 522 373 C522 432 489 490 440 518 C406 538 359 547 298 547 L207 547 L207 649 L291 649 L291 667 L32 667 L32 649 L114 649 L114 18 L32 18 L32 0 L291 0 L291 18 L207 18 L207 203 Z M207 221 L207 529 L291 529 C383 529 409 496 409 382 C409 255 384 221 292 221 L207 221 Z " />
<glyph glyph-name="germandbls" unicode="&#xdf;" horiz-adv-x="462" d="M157 18 L157 203 C157 264 162 296 177 322 C195 353 233 374 271 374 C308 374 331 352 331 317 C331 285 312 259 281 249 C268 245 261 244 238 244 L238 226 C276 226 289 224 306 214 C334 197 350 157 350 100 C350 43 333 10 305 10 C290 10 274 20 274 29 C274 31 275 34 277 38 C284 49 287 62 287 74 C287 98 275 113 257 113 L256 113 C238 113 224 95 224 71 C224 26 263 -10 313 -10 C374 -10 427 46 427 111 C427 145 411 179 385 199 C360 217 339 225 290 235 C372 241 408 267 408 319 C408 368 369 397 301 397 C233 397 194 378 157 325 L157 450 C157 590 183 657 238 657 C251 657 263 650 263 641 C263 639 262 636 261 632 C258 623 256 613 256 603 C256 580 268 565 289 565 C311 565 326 583 326 609 C326 650 294 677 247 677 C194 677 151 648 118 592 C89 541 80 498 80 401 L80 18 L17 18 L17 0 L199 0 L199 18 L157 18 Z " />
<glyph glyph-name="agrave" unicode="&#xe0;" horiz-adv-x="401" d="M181 613 L115 613 C107 613 103 611 103 606 C103 603 106 598 111 595 L270 466 C273 463 273 463 275 463 C276 463 278 465 278 466 C278 467 277 469 276 470 L181 613 Z M254 215 C173 212 137 204 94 179 C60 159 38 121 38 82 C38 26 76 -10 136 -10 C190 -10 225 14 254 71 C261 14 282 -10 327 -10 C350 -10 361 -5 392 18 L384 30 C373 19 365 15 356 15 C338 15 331 27 331 57 L331 282 C331 324 322 349 301 366 C278 386 241 397 202 397 C126 397 62 352 62 299 C62 275 77 257 96 257 C116 257 130 274 130 297 C130 309 127 318 120 329 C116 335 114 340 114 343 C114 360 156 380 190 380 C233 380 254 359 254 315 L254 215 Z M254 167 C254 118 250 94 237 72 C223 46 198 30 173 30 C137 30 114 57 114 99 C114 131 127 156 153 174 C179 192 202 198 254 200 L254 167 Z " />
<glyph glyph-name="aacute" unicode="&#xe1;" horiz-adv-x="401" d="M276 613 L180 470 L179 467 C179 465 181 463 183 463 C184 463 184 463 187 466 L346 595 C351 599 354 603 354 606 C354 611 350 613 341 613 L276 613 Z M254 215 C173 212 137 204 94 179 C60 159 38 121 38 82 C38 26 76 -10 136 -10 C190 -10 225 14 254 71 C261 14 282 -10 327 -10 C350 -10 361 -5 392 18 L384 30 C373 19 365 15 356 15 C338 15 331 27 331 57 L331 282 C331 324 322 349 301 366 C278 386 241 397 202 397 C126 397 62 352 62 299 C62 275 77 257 96 257 C116 257 130 274 130 297 C130 309 127 318 120 329 C116 335 114 340 114 343 C114 360 156 380 190 380 C233 380 254 359 254 315 L254 215 Z M254 167 C254 118 250 94 237 72 C223 46 198 30 173 30 C137 30 114 57 114 99 C114 131 127 156 153 174 C179 192 202 198 254 200 L254 167 Z " />
<glyph glyph-name="acircumflex" unicode="&#xe2;" horiz-adv-x="401" d="M215 541 L349 465 C351 464 353 463 354 463 C356 463 358 465 358 467 C358 468 356 470 353 474 L215 617 L78 474 C75 471 73 468 73 466 C73 465 75 463 77 463 C78 463 80 464 82 465 L215 541 Z M254 215 C173 212 137 204 94 179 C60 159 38 121 38 82 C38 26 76 -10 136 -10 C190 -10 225 14 254 71 C261 14 282 -10 327 -10 C350 -10 361 -5 392 18 L384 30 C373 19 365 15 356 15 C338 15 331 27 331 57 L331 282 C331 324 322 349 301 366 C278 386 241 397 202 397 C126 397 62 352 62 299 C62 275 77 257 96 257 C116 257 130 274 130 297 C130 309 127 318 120 329 C116 335 114 340 114 343 C114 360 156 380 190 380 C233 380 254 359 254 315 L254 215 Z M254 167 C254 118 250 94 237 72 C223 46 198 30 173 30 C137 30 114 57 114 99 C114 131 127 156 153 174 C179 192 202 198 254 200 L254 167 Z " />
<glyph glyph-name="atilde" unicode="&#xe3;" horiz-adv-x="401" d="M362 572 C346 550 330 542 304 542 C286 542 275 544 260 549 L221 563 C200 570 188 573 172 573 C125 573 100 554 72 499 L81 493 C97 515 115 524 141 524 C157 524 174 521 191 515 L229 502 C248 495 265 492 278 492 C313 492 340 515 371 567 L362 572 Z M254 215 C173 212 137 204 94 179 C60 159 38 121 38 82 C38 26 76 -10 136 -10 C190 -10 225 14 254 71 C261 14 282 -10 327 -10 C350 -10 361 -5 392 18 L384 30 C373 19 365 15 356 15 C338 15 331 27 331 57 L331 282 C331 324 322 349 301 366 C278 386 241 397 202 397 C126 397 62 352 62 299 C62 275 77 257 96 257 C116 257 130 274 130 297 C130 309 127 318 120 329 C116 335 114 340 114 343 C114 360 156 380 190 380 C233 380 254 359 254 315 L254 215 Z M254 167 C254 118 250 94 237 72 C223 46 198 30 173 30 C137 30 114 57 114 99 C114 131 127 156 153 174 C179 192 202 198 254 200 L254 167 Z " />
<glyph glyph-name="adieresis" unicode="&#xe4;" horiz-adv-x="401" d="M125 584 C98 584 76 563 76 536 C76 509 98 487 124 487 C151 487 173 509 173 535 C173 562 152 584 125 584 L125 584 Z M289 584 C263 584 241 562 241 536 C241 509 263 487 290 487 C316 487 338 509 338 535 C338 562 317 584 289 584 L289 584 Z M254 215 C173 212 137 204 94 179 C60 159 38 121 38 82 C38 26 76 -10 136 -10 C190 -10 225 14 254 71 C261 14 282 -10 327 -10 C350 -10 361 -5 392 18 L384 30 C373 19 365 15 356 15 C338 15 331 27 331 57 L331 282 C331 324 322 349 301 366 C278 386 241 397 202 397 C126 397 62 352 62 299 C62 275 77 257 96 257 C116 257 130 274 130 297 C130 309 127 318 120 329 C116 335 114 340 114 343 C114 360 156 380 190 380 C233 380 254 359 254 315 L254 215 Z M254 167 C254 118 250 94 237 72 C223 46 198 30 173 30 C137 30 114 57 114 99 C114 131 127 156 153 174 C179 192 202 198 254 200 L254 167 Z " />
<glyph glyph-name="aring" unicode="&#xe5;" horiz-adv-x="401" d="M213 615 C171 615 137 581 137 538 C137 496 170 463 213 463 C256 463 289 496 289 537 C289 581 256 615 213 615 L213 615 Z M213 588 C239 588 261 565 261 539 C261 513 239 490 213 490 C187 490 165 513 165 539 C165 565 187 588 213 588 L213 588 Z M254 215 C173 212 137 204 94 179 C60 159 38 121 38 82 C38 26 76 -10 136 -10 C190 -10 225 14 254 71 C261 14 282 -10 327 -10 C350 -10 361 -5 392 18 L384 30 C373 19 365 15 356 15 C338 15 331 27 331 57 L331 282 C331 324 322 349 301 366 C278 386 241 397 202 397 C126 397 62 352 62 299 C62 275 77 257 96 257 C116 257 130 274 130 297 C130 309 127 318 120 329 C116 335 114 340 114 343 C114 360 156 380 190 380 C233 380 254 359 254 315 L254 215 Z M254 167 C254 118 250 94 237 72 C223 46 198 30 173 30 C137 30 114 57 114 99 C114 131 127 156 153 174 C179 192 202 198 254 200 L254 167 Z " />
<glyph glyph-name="ae" unicode="&#xe6;" horiz-adv-x="615" d="M257 214 C174 212 138 204 94 178 C60 158 38 120 38 82 C38 26 77 -10 139 -10 C198 -10 250 32 266 94 L266 95 L267 98 C281 74 290 61 299 50 C328 14 381 -10 429 -10 C506 -10 565 45 579 130 L560 130 C546 56 496 10 430 10 C395 10 365 26 350 52 C338 75 334 98 334 151 L334 228 L582 228 C578 326 511 397 422 397 C383 397 348 383 315 354 C293 381 252 397 204 397 C126 397 62 352 62 298 C62 274 77 256 97 256 C116 256 131 273 131 297 C131 308 128 317 121 329 C117 335 115 339 115 342 C115 359 156 380 192 380 C236 380 257 359 257 314 L257 214 Z M257 167 C257 119 253 94 240 72 C226 46 200 30 174 30 C138 30 114 57 114 99 C114 130 127 156 153 173 C180 192 204 198 257 199 L257 167 Z M496 246 L334 246 L334 280 C334 346 361 377 419 377 C473 377 496 350 496 289 L496 246 Z " />
<glyph glyph-name="ccedilla" unicode="&#xe7;" horiz-adv-x="383" d="M215 -10 L221 -10 L223 -10 C302 -9 355 40 373 126 L354 126 C335 51 288 10 223 10 C190 10 162 25 148 52 C136 73 131 106 131 165 L131 228 C131 337 158 378 231 378 C268 378 302 365 302 350 C302 348 301 346 297 341 C289 330 284 314 284 297 C284 268 299 249 320 249 C343 249 358 268 358 296 C358 354 303 397 230 397 C121 397 38 308 38 191 C38 90 105 6 197 -8 L183 -65 C213 -74 226 -89 226 -114 C226 -141 207 -160 181 -160 C164 -160 145 -151 145 -143 L145 -138 L145 -136 L145 -130 L143 -122 C142 -105 138 -98 131 -98 C124 -98 120 -104 120 -115 C120 -150 151 -176 193 -176 C242 -176 284 -144 284 -107 C284 -75 258 -56 215 -56 L202 -56 L215 -10 Z " />
<glyph glyph-name="egrave" unicode="&#xe8;" horiz-adv-x="410" d="M187 613 L121 613 C113 613 109 611 109 606 C109 603 112 599 117 595 L276 466 C279 463 279 463 281 463 C282 463 284 465 284 466 C284 467 283 469 282 470 L187 613 Z M129 228 L377 228 C373 326 305 397 215 397 C173 397 137 382 106 352 C64 311 38 250 38 192 C38 83 123 -10 223 -10 C301 -10 360 44 374 130 L355 130 C341 56 291 10 225 10 C190 10 160 26 146 52 C133 75 129 98 129 151 L129 228 Z M291 246 L129 246 L129 280 C129 346 156 377 214 377 C268 377 291 350 291 289 L291 246 Z " />
<glyph glyph-name="eacute" unicode="&#xe9;" horiz-adv-x="410" d="M288 613 L192 470 L191 467 C191 465 193 463 195 463 C196 463 196 463 199 466 L358 595 C363 599 366 603 366 606 C366 611 362 613 353 613 L288 613 Z M129 228 L377 228 C373 326 305 397 215 397 C173 397 137 382 106 352 C64 311 38 250 38 192 C38 83 123 -10 223 -10 C301 -10 360 44 374 130 L355 130 C341 56 291 10 225 10 C190 10 160 26 146 52 C133 75 129 98 129 151 L129 228 Z M291 246 L129 246 L129 280 C129 346 156 377 214 377 C268 377 291 350 291 289 L291 246 Z " />
<glyph glyph-name="ecircumflex" unicode="&#xea;" horiz-adv-x="410" d="M221 541 L355 465 C357 464 359 463 360 463 C362 463 364 465 364 467 C364 468 363 470 358 474 L221 617 L84 474 C79 469 78 468 78 466 C78 464 80 463 82 463 C84 463 85 464 88 465 L221 541 Z M129 228 L377 228 C373 326 305 397 215 397 C173 397 137 382 106 352 C64 311 38 250 38 192 C38 83 123 -10 223 -10 C301 -10 360 44 374 130 L355 130 C341 56 291 10 225 10 C190 10 160 26 146 52 C133 75 129 98 129 151 L129 228 Z M291 246 L129 246 L129 280 C129 346 156 377 214 377 C268 377 291 350 291 289 L291 246 Z " />
<glyph glyph-name="edieresis" unicode="&#xeb;" horiz-adv-x="410" d="M134 584 C108 584 86 562 86 536 C86 509 108 487 135 487 C161 487 183 509 183 535 C183 562 162 584 134 584 L134 584 Z M299 584 C273 584 251 562 251 536 C251 509 273 487 300 487 C326 487 348 509 348 535 C348 562 327 584 299 584 L299 584 Z M129 228 L377 228 C373 326 305 397 215 397 C173 397 137 382 106 352 C64 311 38 250 38 192 C38 83 123 -10 223 -10 C301 -10 360 44 374 130 L355 130 C341 56 291 10 225 10 C190 10 160 26 146 52 C133 75 129 98 129 151 L129 228 Z M291 246 L129 246 L129 280 C129 346 156 377 214 377 C268 377 291 350 291 289 L291 246 Z " />
<glyph glyph-name="igrave" unicode="&#xec;" horiz-adv-x="251" d="M171 387 L34 387 L34 369 L94 369 L94 18 L34 18 L34 0 L234 0 L234 18 L171 18 L171 387 Z M81 613 L16 613 C8 613 4 611 4 606 C4 603 7 598 12 595 L170 466 C173 463 174 463 176 463 C177 463 179 464 179 466 C179 467 179 468 177 470 L81 613 Z " />
<glyph glyph-name="iacute" unicode="&#xed;" horiz-adv-x="251" d="M172 387 L35 387 L35 369 L95 369 L95 18 L35 18 L35 0 L235 0 L235 18 L172 18 L172 387 Z M203 613 L107 470 C106 469 106 468 106 467 C106 465 107 463 109 463 C110 463 111 463 114 466 L272 595 C277 599 281 603 281 606 C281 611 276 613 268 613 L203 613 Z " />
<glyph glyph-name="icircumflex" unicode="&#xee;" horiz-adv-x="251" d="M172 387 L35 387 L35 369 L95 369 L95 18 L35 18 L35 0 L235 0 L235 18 L172 18 L172 387 Z M126 541 L259 465 C261 464 263 463 264 463 C266 463 268 465 268 467 C268 468 266 471 263 474 L126 617 L-12 474 C-16 470 -17 468 -17 466 C-17 465 -15 463 -13 463 C-12 463 -10 464 -8 465 L126 541 Z " />
<glyph glyph-name="idieresis" unicode="&#xef;" horiz-adv-x="251" d="M171 387 L34 387 L34 369 L94 369 L94 18 L34 18 L34 0 L234 0 L234 18 L171 18 L171 387 Z M57 580 C31 580 10 559 10 534 C10 508 31 487 57 487 C82 487 103 508 103 533 C103 559 83 580 57 580 L57 580 Z M195 580 C169 580 148 559 148 534 C148 508 169 487 195 487 C220 487 241 508 241 533 C241 559 221 580 195 580 L195 580 Z " />
<glyph glyph-name="eth" unicode="&#xf0;" horiz-adv-x="447" d="M137 544 L147 527 L217 580 C259 516 283 456 299 378 C266 393 249 397 221 397 C119 397 38 306 38 192 C38 80 121 -10 224 -10 C332 -10 409 80 409 204 C409 335 349 474 240 597 L306 649 L297 664 L226 610 C211 629 166 669 146 680 L137 667 C173 636 189 619 207 596 L137 544 Z M316 169 C316 101 312 71 301 51 C287 25 258 10 223 10 C184 10 154 28 141 58 C135 73 131 114 131 169 L131 218 C131 265 134 311 139 324 C150 357 182 377 223 377 C258 377 287 362 301 336 C312 316 316 286 316 218 L316 169 Z " />
<glyph glyph-name="ntilde" unicode="&#xf1;" horiz-adv-x="501" d="M400 572 C384 550 368 542 343 542 C324 542 313 544 298 549 L259 563 C238 570 226 573 210 573 C163 573 138 554 110 499 L119 493 C135 515 153 524 179 524 C195 524 212 521 229 515 L267 502 C286 495 303 492 316 492 C351 492 378 515 409 567 L400 572 Z M175 387 L35 387 L35 369 L98 369 L98 18 L35 18 L35 0 L238 0 L238 18 L175 18 L175 178 C175 255 180 295 195 320 C213 353 248 374 283 374 C323 374 343 346 343 292 L343 18 L280 18 L280 0 L483 0 L483 18 L420 18 L420 265 C420 301 415 324 405 342 C385 377 346 397 299 397 C248 397 213 378 175 330 L175 387 Z " />
<glyph glyph-name="ograve" unicode="&#xf2;" horiz-adv-x="447" d="M198 613 L133 613 C125 613 121 611 121 606 C121 603 124 598 129 595 L287 466 C291 463 291 463 293 463 C294 463 296 465 296 466 C296 467 295 468 294 470 L198 613 Z M225 397 C120 397 38 307 38 194 C38 80 120 -10 224 -10 C325 -10 409 80 409 190 C409 306 328 397 225 397 L225 397 Z M316 169 C316 101 312 71 301 51 C287 25 258 10 223 10 C184 10 154 28 141 58 C135 73 131 114 131 169 L131 218 C131 265 134 310 139 324 C150 357 182 377 223 377 C258 377 287 362 301 336 C312 316 316 286 316 218 L316 169 Z " />
<glyph glyph-name="oacute" unicode="&#xf3;" horiz-adv-x="447" d="M301 613 L205 470 L204 467 C204 465 206 463 208 463 C208 463 209 463 212 466 L371 595 C375 598 378 603 378 606 C378 611 374 613 366 613 L301 613 Z M225 397 C120 397 38 307 38 194 C38 80 120 -10 224 -10 C325 -10 409 80 409 190 C409 306 328 397 225 397 L225 397 Z M316 169 C316 101 312 71 301 51 C287 25 258 10 223 10 C184 10 154 28 141 58 C135 73 131 114 131 169 L131 218 C131 265 134 310 139 324 C150 357 182 377 223 377 C258 377 287 362 301 336 C312 316 316 286 316 218 L316 169 Z " />
<glyph glyph-name="ocircumflex" unicode="&#xf4;" horiz-adv-x="447" d="M224 541 L357 465 C359 464 361 463 362 463 C364 463 366 465 366 467 C366 468 364 471 361 474 L224 617 L86 474 C82 470 81 468 81 466 C81 465 83 463 85 463 C86 463 88 464 90 465 L224 541 Z M225 397 C120 397 38 307 38 194 C38 80 120 -10 224 -10 C325 -10 409 80 409 190 C409 306 328 397 225 397 L225 397 Z M316 169 C316 101 312 71 301 51 C287 25 258 10 223 10 C184 10 154 28 141 58 C135 73 131 114 131 169 L131 218 C131 265 134 310 139 324 C150 357 182 377 223 377 C258 377 287 362 301 336 C312 316 316 286 316 218 L316 169 Z " />
<glyph glyph-name="otilde" unicode="&#xf5;" horiz-adv-x="447" d="M376 572 C360 550 344 542 319 542 C301 542 289 544 275 549 L235 563 C215 570 202 573 187 573 C140 573 114 554 87 499 L96 493 C112 515 130 524 156 524 C172 524 188 521 206 515 L244 502 C262 495 280 492 293 492 C327 492 355 515 386 567 L376 572 Z M225 397 C120 397 38 307 38 194 C38 80 120 -10 224 -10 C325 -10 409 80 409 190 C409 306 328 397 225 397 L225 397 Z M316 169 C316 101 312 71 301 51 C287 25 258 10 223 10 C184 10 154 28 141 58 C135 73 131 114 131 169 L131 218 C131 265 134 310 139 324 C150 357 182 377 223 377 C258 377 287 362 301 336 C312 316 316 286 316 218 L316 169 Z " />
<glyph glyph-name="odieresis" unicode="&#xf6;" horiz-adv-x="447" d="M141 584 C115 584 93 562 93 536 C93 509 115 487 142 487 C168 487 190 509 190 535 C190 562 169 584 141 584 L141 584 Z M305 584 C279 584 257 562 257 536 C257 509 279 487 306 487 C332 487 354 509 354 535 C354 562 333 584 305 584 L305 584 Z M225 397 C120 397 38 307 38 194 C38 80 120 -10 224 -10 C325 -10 409 80 409 190 C409 306 328 397 225 397 L225 397 Z M316 169 C316 101 312 71 301 51 C287 25 258 10 223 10 C184 10 154 28 141 58 C135 73 131 114 131 169 L131 218 C131 265 134 310 139 324 C150 357 182 377 223 377 C258 377 287 362 301 336 C312 316 316 286 316 218 L316 169 Z " />
<glyph glyph-name="divide" unicode="&#xf7;" horiz-adv-x="475" d="M49 308 L427 308 L427 338 L49 338 L49 308 Z M238 530 C208 530 184 505 184 474 C184 443 208 417 238 417 C267 417 292 442 292 473 C292 505 268 530 238 530 L238 530 Z M238 230 C208 230 184 204 184 173 C184 142 208 117 238 117 C268 117 292 142 292 173 C292 205 268 230 238 230 L238 230 Z " />
<glyph glyph-name="oslash" unicode="&#xf8;" horiz-adv-x="447" d="M383 406 L368 416 L326 360 C294 385 259 397 220 397 C119 397 38 307 38 195 C38 137 59 86 99 45 L58 -11 L71 -23 L113 32 C148 4 185 -10 226 -10 C327 -10 409 80 409 192 C409 253 383 312 341 348 L383 406 Z M310 313 C313 294 316 262 316 218 L316 169 C316 101 312 71 301 51 C287 25 258 10 223 10 C182 10 154 28 140 61 L310 313 Z M135 84 C132 114 131 141 131 169 L131 218 C131 264 135 311 139 324 C150 357 182 377 223 377 C259 377 284 364 302 335 L135 84 Z " />
<glyph glyph-name="ugrave" unicode="&#xf9;" horiz-adv-x="485" d="M213 613 L148 613 C140 613 136 611 136 606 C136 603 139 598 143 595 L302 466 C305 463 306 463 307 463 C309 463 311 465 311 466 C311 467 310 468 309 470 L213 613 Z M405 387 L268 387 L268 369 L328 369 L328 200 C328 134 321 88 307 64 C290 32 256 13 218 13 C169 13 154 38 154 117 L154 387 L17 387 L17 369 L77 369 L77 131 C77 83 81 61 93 39 C111 8 151 -10 203 -10 C260 -10 295 10 328 60 L328 0 L468 0 L468 18 L405 18 L405 387 Z " />
<glyph glyph-name="uacute" unicode="&#xfa;" horiz-adv-x="485" d="M319 613 L223 470 C222 469 222 468 222 467 C222 465 223 463 225 463 C226 463 227 463 230 466 L388 595 C392 598 396 603 396 606 C396 611 391 613 384 613 L319 613 Z M405 387 L268 387 L268 369 L328 369 L328 200 C328 134 321 88 307 64 C290 32 256 13 218 13 C169 13 154 38 154 117 L154 387 L17 387 L17 369 L77 369 L77 131 C77 83 81 61 93 39 C111 8 151 -10 203 -10 C260 -10 295 10 328 60 L328 0 L468 0 L468 18 L405 18 L405 387 Z " />
<glyph glyph-name="ucircumflex" unicode="&#xfb;" horiz-adv-x="485" d="M245 541 L379 465 C381 464 383 463 385 463 C387 463 389 465 389 467 C389 468 387 470 383 474 L245 617 L108 474 C104 470 102 468 103 466 C103 465 105 463 106 463 C108 463 110 464 112 465 L245 541 Z M405 387 L268 387 L268 369 L328 369 L328 200 C328 134 321 88 307 64 C290 32 256 13 218 13 C169 13 154 38 154 117 L154 387 L17 387 L17 369 L77 369 L77 131 C77 83 81 61 93 39 C111 8 151 -10 203 -10 C260 -10 295 10 328 60 L328 0 L468 0 L468 18 L405 18 L405 387 Z " />
<glyph glyph-name="udieresis" unicode="&#xfc;" horiz-adv-x="485" d="M165 584 C138 584 117 562 117 536 C117 509 138 487 165 487 C192 487 214 509 214 535 C214 562 192 584 165 584 L165 584 Z M330 584 C303 584 282 562 282 536 C282 509 303 487 330 487 C357 487 379 509 379 535 C379 562 357 584 330 584 L330 584 Z M405 387 L268 387 L268 369 L328 369 L328 200 C328 134 321 88 307 64 C290 32 256 13 218 13 C169 13 154 38 154 117 L154 387 L17 387 L17 369 L77 369 L77 131 C77 83 81 61 93 39 C111 8 151 -10 203 -10 C260 -10 295 10 328 60 L328 0 L468 0 L468 18 L405 18 L405 387 Z " />
<glyph glyph-name="yacute" unicode="&#xfd;" horiz-adv-x="393" d="M302 613 L206 470 C205 469 205 468 205 467 C205 465 207 463 208 463 C209 463 209 463 213 466 L371 595 C376 598 379 603 379 606 C379 611 375 613 367 613 L302 613 Z M237 94 L129 369 L193 369 L193 387 L0 387 L0 369 L44 369 L205 -6 L153 -161 C140 -201 136 -208 122 -208 C116 -208 112 -206 108 -200 C93 -180 84 -174 68 -174 C45 -174 27 -194 27 -221 C27 -252 49 -274 80 -274 C120 -274 147 -244 172 -170 L351 369 L393 369 L393 387 L260 387 L260 369 L327 369 L237 94 Z " />
<glyph glyph-name="thorn" unicode="&#xfe;" horiz-adv-x="465" d="M157 667 L17 667 L17 649 L80 649 L80 -249 L17 -249 L17 -267 L229 -267 L229 -249 L157 -249 L157 82 C189 15 220 -10 270 -10 C358 -10 427 82 427 200 C427 312 361 397 273 397 C221 397 186 370 157 306 L157 667 Z M334 176 C334 102 324 45 308 29 C295 17 280 10 263 10 C203 10 159 87 159 192 C159 302 203 377 266 377 C288 377 310 366 319 350 C330 329 334 305 334 249 L334 176 Z " />
<glyph glyph-name="ydieresis" unicode="&#xff;" horiz-adv-x="393" d="M139 584 C113 584 91 562 91 536 C91 509 113 487 140 487 C166 487 188 509 188 535 C188 562 167 584 139 584 L139 584 Z M304 584 C278 584 256 562 256 536 C256 509 278 487 305 487 C331 487 353 509 353 535 C353 562 332 584 304 584 L304 584 Z M237 94 L129 369 L193 369 L193 387 L0 387 L0 369 L44 369 L205 -6 L153 -161 C140 -201 136 -208 122 -208 C116 -208 112 -206 108 -200 C93 -180 84 -174 68 -174 C45 -174 27 -194 27 -221 C27 -252 49 -274 80 -274 C120 -274 147 -244 172 -170 L351 369 L393 369 L393 387 L260 387 L260 369 L327 369 L237 94 Z " />
<glyph glyph-name="Amacron" unicode="&#x100;" horiz-adv-x="576" d="M347 214 L411 18 L321 18 L321 0 L579 0 L579 18 L507 18 L299 667 L274 667 L57 18 L-3 18 L-3 0 L165 0 L165 18 L81 18 L145 214 L347 214 Z M341 232 L152 232 L247 527 L341 232 Z M448 749 L448 779 L128 779 L128 749 L448 749 Z " />
<glyph glyph-name="amacron" unicode="&#x101;" horiz-adv-x="401" d="M254 215 C173 212 137 204 94 179 C60 159 38 121 38 82 C38 26 76 -10 136 -10 C190 -10 225 14 254 71 C261 14 282 -10 327 -10 C350 -10 361 -5 392 18 L384 30 C373 19 365 15 356 15 C338 15 331 27 331 57 L331 282 C331 324 322 349 301 366 C278 386 241 397 202 397 C126 397 62 352 62 299 C62 275 77 257 96 257 C116 257 130 274 130 297 C130 309 127 318 120 329 C116 335 114 340 114 343 C114 360 156 380 190 380 C233 380 254 359 254 315 L254 215 Z M254 167 C254 118 250 94 237 72 C223 46 198 30 173 30 C137 30 114 57 114 99 C114 131 127 156 153 174 C179 192 202 198 254 200 L254 167 Z M352 499 L352 523 L79 523 L78 499 L352 499 Z " />
<glyph glyph-name="Abreve" unicode="&#x102;" horiz-adv-x="576" d="M347 214 L411 18 L321 18 L321 0 L579 0 L579 18 L507 18 L299 667 L274 667 L57 18 L-3 18 L-3 0 L165 0 L165 18 L81 18 L145 214 L347 214 Z M341 232 L152 232 L247 527 L341 232 Z M424 838 C416 819 410 811 400 803 C379 784 338 774 288 774 C239 774 198 784 176 802 C166 811 161 819 153 838 L139 838 C152 768 211 722 288 722 C366 722 425 768 438 838 L424 838 Z " />
<glyph glyph-name="abreve" unicode="&#x103;" horiz-adv-x="401" d="M254 215 C173 212 137 204 94 179 C60 159 38 121 38 82 C38 26 76 -10 136 -10 C190 -10 225 14 254 71 C261 14 282 -10 327 -10 C350 -10 361 -5 392 18 L384 30 C373 19 365 15 356 15 C338 15 331 27 331 57 L331 282 C331 324 322 349 301 366 C278 386 241 397 202 397 C126 397 62 352 62 299 C62 275 77 257 96 257 C116 257 130 274 130 297 C130 309 127 318 120 329 C116 335 114 340 114 343 C114 360 156 380 190 380 C233 380 254 359 254 315 L254 215 Z M254 167 C254 118 250 94 237 72 C223 46 198 30 173 30 C137 30 114 57 114 99 C114 131 127 156 153 174 C179 192 202 198 254 200 L254 167 Z M337 610 C330 581 324 568 311 554 C293 534 257 521 217 521 C178 521 142 534 123 554 C111 567 105 580 97 610 L86 610 C97 524 149 467 217 467 C286 467 337 523 349 610 L337 610 Z " />
<glyph glyph-name="Aogonek" unicode="&#x104;" horiz-adv-x="576" d="M579 0 L579 18 L507 18 L299 667 L274 667 L57 18 L-3 18 L-3 0 L165 0 L165 18 L81 18 L145 214 L347 214 L411 18 L321 18 L321 0 L495 0 C430 -24 399 -54 399 -95 C399 -137 429 -162 478 -162 C506 -162 528 -156 555 -141 L555 -127 C536 -134 524 -136 508 -136 C472 -136 454 -120 454 -87 C454 -53 474 -27 518 0 L579 0 Z M341 232 L152 232 L247 527 L341 232 Z " />
<glyph glyph-name="aogonek" unicode="&#x105;" horiz-adv-x="401" d="M384 30 C373 19 365 15 356 15 C338 15 331 27 331 57 L331 282 C331 324 322 349 301 366 C278 386 241 397 202 397 C126 397 62 352 62 299 C62 275 77 257 96 257 C116 257 130 274 130 297 C130 309 127 318 120 329 C116 335 114 340 114 343 C114 360 156 380 190 380 C233 380 254 359 254 315 L254 215 C173 212 137 204 94 179 C60 159 38 121 38 82 C38 26 76 -10 136 -10 C190 -10 225 14 254 71 C259 21 276 -3 313 -9 C268 -30 243 -61 243 -94 C243 -134 272 -159 319 -159 C346 -159 367 -153 393 -138 L393 -124 C375 -132 364 -134 348 -134 C313 -134 296 -118 296 -86 C296 -56 312 -30 345 -8 C358 -6 371 2 392 18 L384 30 Z M254 167 C254 118 250 94 237 72 C223 46 198 30 173 30 C137 30 114 57 114 99 C114 131 127 156 153 174 C179 192 202 198 254 200 L254 167 Z " />
<glyph glyph-name="Cacute" unicode="&#x106;" horiz-adv-x="561" d="M516 667 L503 667 L472 617 C418 660 376 677 321 677 C164 677 44 526 44 328 C44 252 60 190 95 131 C148 41 227 -10 313 -10 C367 -10 411 7 472 50 L503 0 L516 0 L516 185 L503 185 C481 123 466 95 438 63 C408 30 363 10 317 10 C262 10 210 38 186 82 C164 120 157 173 157 296 C157 426 162 504 172 544 C191 616 246 657 322 657 C372 657 418 637 452 599 C478 570 490 545 503 494 L516 494 L516 667 Z M397 833 L268 731 C264 728 263 726 263 724 C263 721 265 719 268 719 C269 719 271 720 274 721 L495 814 C503 817 507 821 507 825 C507 830 503 833 494 833 L397 833 Z " />
<glyph glyph-name="cacute" unicode="&#x107;" horiz-adv-x="383" d="M354 126 C335 51 288 10 223 10 C190 10 163 25 148 52 C136 73 131 106 131 165 L131 228 C131 337 158 378 232 378 C268 378 302 365 302 350 C302 348 301 346 297 341 C289 330 284 313 284 297 C284 268 299 249 321 249 C343 249 358 268 358 297 C358 354 303 397 230 397 C121 397 38 308 38 191 C38 79 118 -10 220 -10 C265 -10 306 8 334 41 C353 63 362 83 373 126 L354 126 Z M298 613 L202 470 C202 469 201 467 201 467 C201 465 203 463 204 463 C205 463 205 463 209 466 L368 595 C372 598 375 603 375 606 C375 611 371 613 363 613 L298 613 Z " />
<glyph glyph-name="Ccircumflex" unicode="&#x108;" horiz-adv-x="561" d="M516 667 L503 667 L472 617 C418 660 376 677 321 677 C164 677 44 526 44 328 C44 252 60 190 95 131 C148 41 227 -10 313 -10 C367 -10 411 7 472 50 L503 0 L516 0 L516 185 L503 185 C481 123 466 95 438 63 C408 30 363 10 317 10 C262 10 210 38 186 82 C164 120 157 173 157 296 C157 426 162 504 172 544 C191 616 246 657 322 657 C372 657 418 637 452 599 C478 570 490 545 503 494 L516 494 L516 667 Z M325 769 L473 721 C474 720 476 720 477 720 C480 720 482 721 482 723 C482 725 481 727 477 730 L325 838 L174 730 C169 726 168 725 168 723 C168 721 170 720 173 720 C175 720 176 720 178 721 L325 769 Z " />
<glyph glyph-name="Cdotaccent" unicode="&#x10a;" horiz-adv-x="561" d="M516 667 L503 667 L472 617 C418 660 376 677 321 677 C164 677 44 526 44 328 C44 252 60 190 95 131 C148 41 227 -10 313 -10 C367 -10 411 7 472 50 L503 0 L516 0 L516 185 L503 185 C481 123 466 95 438 63 C408 30 363 10 317 10 C262 10 210 38 186 82 C164 120 157 173 157 296 C157 426 162 504 172 544 C191 616 246 657 322 657 C372 657 418 637 452 599 C478 570 490 545 503 494 L516 494 L516 667 Z M322 826 C294 826 271 803 271 776 C271 748 294 725 322 725 C349 725 372 748 372 775 C372 804 350 826 322 826 L322 826 Z " />
<glyph glyph-name="cdotaccent" unicode="&#x10b;" horiz-adv-x="383" d="M354 126 C335 51 288 10 223 10 C190 10 163 25 148 52 C136 73 131 106 131 165 L131 228 C131 337 158 378 232 378 C268 378 302 365 302 350 C302 348 301 346 297 341 C289 330 284 313 284 297 C284 268 299 249 321 249 C343 249 358 268 358 297 C358 354 303 397 230 397 C121 397 38 308 38 191 C38 79 118 -10 220 -10 C265 -10 306 8 334 41 C353 63 362 83 373 126 L354 126 Z M229 586 C201 586 178 563 178 536 C178 508 201 485 229 485 C256 485 279 508 279 535 C279 564 257 586 229 586 L229 586 Z " />
<glyph glyph-name="Ccaron" unicode="&#x10c;" horiz-adv-x="561" d="M516 667 L503 667 L472 617 C418 660 376 677 321 677 C164 677 44 526 44 328 C44 252 60 190 95 131 C148 41 227 -10 313 -10 C367 -10 411 7 472 50 L503 0 L516 0 L516 185 L503 185 C481 123 466 95 438 63 C408 30 363 10 317 10 C262 10 210 38 186 82 C164 120 157 173 157 296 C157 426 162 504 172 544 C191 616 246 657 322 657 C372 657 418 637 452 599 C478 570 490 545 503 494 L516 494 L516 667 Z M321 789 L174 838 L169 838 C166 838 164 837 164 835 C164 833 165 832 170 829 L321 720 L472 829 C477 832 478 833 478 835 C478 837 477 838 473 838 L469 838 L321 789 Z " />
<glyph glyph-name="ccaron" unicode="&#x10d;" horiz-adv-x="383" d="M354 126 C335 51 288 10 223 10 C190 10 163 25 148 52 C136 73 131 106 131 165 L131 228 C131 337 158 378 232 378 C268 378 302 365 302 350 C302 348 301 346 297 341 C289 330 284 313 284 297 C284 268 299 249 321 249 C343 249 358 268 358 297 C358 354 303 397 230 397 C121 397 38 308 38 191 C38 79 118 -10 220 -10 C265 -10 306 8 334 41 C353 63 362 83 373 126 L354 126 Z M228 539 L95 615 C93 616 91 617 90 617 C88 617 86 615 86 613 C86 612 88 609 91 606 L228 463 L366 606 C370 610 371 612 371 614 C371 615 369 617 367 617 C366 617 364 616 362 615 L228 539 Z " />
<glyph glyph-name="Dcaron" unicode="&#x10e;" horiz-adv-x="640" d="M114 18 L32 18 L32 0 L271 0 C365 0 411 10 457 42 C545 103 596 211 596 336 C596 467 540 576 446 631 C402 657 352 667 271 667 L32 667 L32 649 L114 649 L114 18 Z M207 18 L207 649 L270 649 C347 649 389 638 425 608 C467 572 483 504 483 349 C483 181 469 105 435 69 C399 32 354 18 272 18 L207 18 Z M298 789 L151 838 L146 838 C143 838 142 837 142 835 C142 833 143 832 147 829 L298 720 L449 829 C455 832 456 833 456 835 C456 837 454 838 450 838 L446 838 L298 789 Z " />
<glyph glyph-name="dcaron" unicode="&#x10f;" horiz-adv-x="553" d="M309 0 L449 0 L449 18 L386 18 L386 667 L237 667 L237 649 L309 649 L309 307 C278 372 246 397 194 397 C103 397 38 312 38 194 C38 77 105 -10 196 -10 C248 -10 278 15 309 84 L309 0 Z M131 233 C131 342 148 377 200 377 C264 377 306 304 306 192 C306 84 264 10 203 10 C180 10 159 22 150 39 C135 66 131 94 131 165 L131 233 Z M464 461 C523 503 550 543 550 588 C550 632 517 667 475 667 C441 667 417 644 417 612 C417 584 435 565 461 565 C484 565 501 582 501 606 C501 609 501 614 500 619 C518 610 527 596 527 575 C527 544 507 516 452 473 L464 461 Z " />
<glyph glyph-name="Dcroat" unicode="&#x110;" horiz-adv-x="640" d="M114 330 L114 18 L32 18 L32 0 L270 0 C354 0 397 8 438 31 C536 86 595 201 595 335 C595 466 540 576 446 631 C401 657 352 667 270 667 L32 667 L32 649 L114 649 L114 348 L32 348 L32 330 L114 330 Z M207 330 L350 330 L350 348 L207 348 L207 649 L269 649 C346 649 388 638 424 607 C467 571 482 504 482 348 C482 181 469 105 434 69 C399 32 354 18 271 18 L207 18 L207 330 Z " />
<glyph glyph-name="dcroat" unicode="&#x111;" horiz-adv-x="467" d="M309 532 L309 307 C278 372 246 397 194 397 C103 397 38 312 38 194 C38 77 105 -10 196 -10 C248 -10 278 15 309 84 L309 0 L449 0 L449 18 L386 18 L386 532 L449 532 L449 556 L386 556 L386 667 L237 667 L237 649 L309 649 L309 556 L153 556 L153 532 L309 532 Z M131 233 C131 342 148 377 200 377 C264 377 306 304 306 192 C306 84 264 10 203 10 C180 10 159 22 150 39 C135 66 131 94 131 165 L131 233 Z " />
<glyph glyph-name="Emacron" unicode="&#x112;" horiz-adv-x="556" d="M480 667 L32 667 L32 649 L114 649 L114 18 L32 18 L32 0 L501 0 L520 208 L508 208 C493 151 481 115 468 90 C432 26 419 19 330 18 L207 18 L207 329 L247 329 C320 328 346 301 349 221 L349 198 L362 198 L362 472 L349 472 L349 453 C346 373 323 349 250 347 L207 347 L207 649 L285 649 C413 651 452 618 480 486 L493 486 L480 667 Z M436 749 L436 779 L116 779 L116 749 L436 749 Z " />
<glyph glyph-name="emacron" unicode="&#x113;" horiz-adv-x="410" d="M129 228 L377 228 C373 326 305 397 215 397 C173 397 137 382 106 352 C64 311 38 250 38 192 C38 83 123 -10 223 -10 C301 -10 360 44 374 130 L355 130 C341 56 291 10 225 10 C190 10 160 26 146 52 C133 75 129 98 129 151 L129 228 Z M291 246 L129 246 L129 280 C129 346 156 377 214 377 C268 377 291 350 291 289 L291 246 Z M350 499 L350 523 L77 523 L77 499 L350 499 Z " />
<glyph glyph-name="Ebreve" unicode="&#x114;" horiz-adv-x="556" d="M480 667 L32 667 L32 649 L114 649 L114 18 L32 18 L32 0 L501 0 L520 208 L508 208 C493 151 481 115 468 90 C432 26 419 19 330 18 L207 18 L207 329 L247 329 C320 328 346 301 349 221 L349 198 L362 198 L362 472 L349 472 L349 453 C346 373 323 349 250 347 L207 347 L207 649 L285 649 C413 651 452 618 480 486 L493 486 L480 667 Z M429 838 C421 819 415 811 405 803 C384 784 343 774 293 774 C244 774 203 784 181 802 C171 811 166 819 158 838 L144 838 C157 768 216 722 293 722 C371 722 430 768 442 838 L429 838 Z " />
<glyph glyph-name="ebreve" unicode="&#x115;" horiz-adv-x="410" d="M129 228 L377 228 C373 326 305 397 215 397 C173 397 137 382 106 352 C64 311 38 250 38 192 C38 83 123 -10 223 -10 C301 -10 360 44 374 130 L355 130 C341 56 291 10 225 10 C190 10 160 26 146 52 C133 75 129 98 129 151 L129 228 Z M291 246 L129 246 L129 280 C129 346 156 377 214 377 C268 377 291 350 291 289 L291 246 Z M340 610 C332 581 326 568 314 554 C295 534 260 521 219 521 C180 521 144 534 126 554 C114 567 108 580 100 610 L88 610 C99 524 152 467 220 467 C288 467 340 523 352 610 L340 610 Z " />
<glyph glyph-name="Edotaccent" unicode="&#x116;" horiz-adv-x="556" d="M480 667 L32 667 L32 649 L114 649 L114 18 L32 18 L32 0 L501 0 L520 208 L508 208 C493 151 481 115 468 90 C432 26 419 19 330 18 L207 18 L207 329 L247 329 C320 328 346 301 349 221 L349 198 L362 198 L362 472 L349 472 L349 453 C346 373 323 349 250 347 L207 347 L207 649 L285 649 C413 651 452 618 480 486 L493 486 L480 667 Z M293 826 C265 826 242 803 242 776 C242 748 265 725 293 725 C320 725 343 748 343 775 C343 804 321 826 293 826 L293 826 Z " />
<glyph glyph-name="edotaccent" unicode="&#x117;" horiz-adv-x="410" d="M129 228 L377 228 C373 326 305 397 215 397 C173 397 137 382 106 352 C64 311 38 250 38 192 C38 83 123 -10 223 -10 C301 -10 360 44 374 130 L355 130 C341 56 291 10 225 10 C190 10 160 26 146 52 C133 75 129 98 129 151 L129 228 Z M291 246 L129 246 L129 280 C129 346 156 377 214 377 C268 377 291 350 291 289 L291 246 Z M218 586 C190 586 167 563 167 536 C167 508 190 485 218 485 C245 485 268 508 268 535 C268 564 246 586 218 586 L218 586 Z " />
<glyph glyph-name="Eogonek" unicode="&#x118;" horiz-adv-x="556" d="M501 0 L520 208 L508 208 C493 151 481 115 468 90 C432 26 419 19 330 18 L207 18 L207 329 L247 329 C320 328 346 301 349 221 L349 198 L362 198 L362 472 L349 472 L349 453 C346 373 323 349 250 347 L207 347 L207 649 L285 649 C413 651 452 618 480 486 L493 486 L480 667 L32 667 L32 649 L114 649 L114 18 L32 18 L32 0 L441 0 C376 -24 345 -54 345 -95 C345 -137 375 -162 424 -162 C453 -162 474 -156 501 -141 L501 -127 C482 -134 470 -136 454 -136 C418 -136 400 -120 400 -87 C400 -53 419 -27 464 0 L501 0 Z " />
<glyph glyph-name="eogonek" unicode="&#x119;" horiz-adv-x="410" d="M329 -124 C311 -132 300 -134 284 -134 C249 -134 232 -118 232 -86 C232 -53 246 -34 302 11 C345 43 367 80 374 130 L355 130 C341 56 291 10 225 10 C190 10 160 26 146 52 C133 75 129 98 129 151 L129 228 L377 228 C373 326 305 397 215 397 C173 397 137 382 106 352 C64 311 38 250 38 192 C38 83 123 -10 223 -10 C232 -10 240 -9 251 -8 C203 -31 179 -60 179 -94 C179 -134 208 -159 255 -159 C282 -159 303 -153 329 -138 L329 -124 Z M291 246 L129 246 L129 280 C129 346 156 377 214 377 C268 377 291 350 291 289 L291 246 Z " />
<glyph glyph-name="Ecaron" unicode="&#x11a;" horiz-adv-x="556" d="M480 667 L32 667 L32 649 L114 649 L114 18 L32 18 L32 0 L501 0 L520 208 L508 208 C493 151 481 115 468 90 C432 26 419 19 330 18 L207 18 L207 329 L247 329 C320 328 346 301 349 221 L349 198 L362 198 L362 472 L349 472 L349 453 C346 373 323 349 250 347 L207 347 L207 649 L285 649 C413 651 452 618 480 486 L493 486 L480 667 Z M292 789 L145 838 L141 838 C137 838 136 837 136 835 C136 833 137 831 141 829 L292 720 L444 829 C447 831 449 833 449 835 C449 837 448 838 444 838 L440 838 L292 789 Z " />
<glyph glyph-name="ecaron" unicode="&#x11b;" horiz-adv-x="410" d="M129 228 L377 228 C373 326 305 397 215 397 C173 397 137 382 106 352 C64 311 38 250 38 192 C38 83 123 -10 223 -10 C301 -10 360 44 374 130 L355 130 C341 56 291 10 225 10 C190 10 160 26 146 52 C133 75 129 98 129 151 L129 228 Z M291 246 L129 246 L129 280 C129 346 156 377 214 377 C268 377 291 350 291 289 L291 246 Z M218 539 L84 615 C82 616 80 617 79 617 C77 617 75 615 75 613 C75 612 77 609 80 606 L218 463 L355 606 C359 609 360 612 360 614 C360 615 358 617 356 617 C355 617 353 616 351 615 L218 539 Z " />
<glyph glyph-name="Gcircumflex" unicode="&#x11c;" horiz-adv-x="603" d="M504 667 L491 667 L459 625 C410 661 366 677 315 677 C228 677 146 624 94 533 C60 474 44 409 44 329 C44 248 60 184 95 124 C148 35 220 -10 309 -10 C381 -10 447 23 487 79 C510 112 520 144 530 212 L594 212 L594 230 L328 230 L328 212 L427 212 C426 152 424 127 417 103 C400 42 358 10 298 10 C251 10 209 33 189 70 C165 114 157 174 157 308 C157 466 167 549 192 593 C215 633 260 657 312 657 C402 657 462 595 491 471 L504 471 L504 667 Z M318 769 L465 721 C467 720 468 720 470 720 C473 720 475 721 475 723 C475 725 474 726 469 730 L318 838 L167 730 C163 727 161 725 161 723 C161 721 163 720 166 720 C168 720 169 720 170 721 L318 769 Z " />
<glyph glyph-name="gcircumflex" unicode="&#x11d;" horiz-adv-x="415" d="M128 18 C85 18 61 31 61 54 C61 78 82 102 131 133 C157 121 175 117 201 117 C284 117 345 176 345 257 C345 290 337 313 316 343 C328 356 336 361 344 361 C351 361 356 356 357 349 C361 325 368 315 385 315 C402 315 414 329 414 351 C414 376 398 391 372 391 C350 391 334 383 304 353 C270 386 243 397 200 397 C115 397 55 339 55 258 C55 210 72 178 114 144 C108 138 108 138 82 120 C46 95 25 58 25 19 C25 -26 49 -55 99 -69 C45 -93 25 -117 25 -157 C25 -224 97 -274 193 -274 C311 -274 390 -199 390 -86 C390 -42 376 -10 350 5 C332 15 314 18 269 18 L128 18 Z M262 228 C262 157 248 137 200 137 C150 137 137 156 137 228 L137 288 C137 354 153 377 200 377 C226 377 246 369 254 354 C260 342 262 329 262 293 L262 228 Z M125 -70 L161 -70 L280 -70 C341 -70 341 -70 355 -77 C365 -83 372 -97 372 -113 C372 -191 295 -254 200 -254 C121 -254 69 -212 69 -148 C69 -118 79 -96 105 -70 L125 -70 Z M207 541 L340 465 C342 464 344 463 345 463 C347 463 349 465 349 467 C349 468 347 471 344 474 L207 617 L69 474 C65 470 64 468 64 466 C64 465 66 463 68 463 C69 463 71 464 73 465 L207 541 Z " />
<glyph glyph-name="Gbreve" unicode="&#x11e;" horiz-adv-x="603" d="M504 667 L491 667 L459 625 C410 661 366 677 315 677 C228 677 146 624 94 533 C60 474 44 409 44 329 C44 248 60 184 95 124 C148 35 220 -10 309 -10 C381 -10 447 23 487 79 C510 112 520 144 530 212 L594 212 L594 230 L328 230 L328 212 L427 212 C426 152 424 127 417 103 C400 42 358 10 298 10 C251 10 209 33 189 70 C165 114 157 174 157 308 C157 466 167 549 192 593 C215 633 260 657 312 657 C402 657 462 595 491 471 L504 471 L504 667 Z M448 838 C440 819 435 811 425 803 C403 784 362 774 312 774 C263 774 222 784 200 802 C190 811 185 819 177 838 L163 838 C176 768 235 722 312 722 C390 722 449 768 462 838 L448 838 Z " />
<glyph glyph-name="gbreve" unicode="&#x11f;" horiz-adv-x="415" d="M128 18 C85 18 61 31 61 54 C61 78 82 102 131 133 C157 121 175 117 201 117 C284 117 345 176 345 257 C345 290 337 313 316 343 C328 356 336 361 344 361 C351 361 356 356 357 349 C361 325 368 315 385 315 C402 315 414 329 414 351 C414 376 398 391 372 391 C350 391 334 383 304 353 C270 386 243 397 200 397 C115 397 55 339 55 258 C55 210 72 178 114 144 C108 138 108 138 82 120 C46 95 25 58 25 19 C25 -26 49 -55 99 -69 C45 -93 25 -117 25 -157 C25 -224 97 -274 193 -274 C311 -274 390 -199 390 -86 C390 -42 376 -10 350 5 C332 15 314 18 269 18 L128 18 Z M262 228 C262 157 248 137 200 137 C150 137 137 156 137 228 L137 288 C137 354 153 377 200 377 C226 377 246 369 254 354 C260 342 262 329 262 293 L262 228 Z M125 -70 L161 -70 L280 -70 C341 -70 341 -70 355 -77 C365 -83 372 -97 372 -113 C372 -191 295 -254 200 -254 C121 -254 69 -212 69 -148 C69 -118 79 -96 105 -70 L125 -70 Z M327 610 C319 581 313 568 301 554 C282 534 247 521 206 521 C167 521 131 534 113 554 C101 567 95 580 87 610 L75 610 C86 524 139 467 207 467 C275 467 327 523 339 610 L327 610 Z " />
<glyph glyph-name="Gdotaccent" unicode="&#x120;" horiz-adv-x="603" d="M504 667 L491 667 L459 625 C410 661 366 677 315 677 C228 677 146 624 94 533 C60 474 44 409 44 329 C44 248 60 184 95 124 C148 35 220 -10 309 -10 C381 -10 447 23 487 79 C510 112 520 144 530 212 L594 212 L594 230 L328 230 L328 212 L427 212 C426 152 424 127 417 103 C400 42 358 10 298 10 C251 10 209 33 189 70 C165 114 157 174 157 308 C157 466 167 549 192 593 C215 633 260 657 312 657 C402 657 462 595 491 471 L504 471 L504 667 Z M315 826 C287 826 264 803 264 776 C264 748 287 725 315 725 C342 725 365 748 365 775 C365 804 343 826 315 826 L315 826 Z " />
<glyph glyph-name="gdotaccent" unicode="&#x121;" horiz-adv-x="415" d="M128 18 C85 18 61 31 61 54 C61 78 82 102 131 133 C157 121 175 117 201 117 C284 117 345 176 345 257 C345 290 337 313 316 343 C328 356 336 361 344 361 C351 361 356 356 357 349 C361 325 368 315 385 315 C402 315 414 329 414 351 C414 376 398 391 372 391 C350 391 334 383 304 353 C270 386 243 397 200 397 C115 397 55 339 55 258 C55 210 72 178 114 144 C108 138 108 138 82 120 C46 95 25 58 25 19 C25 -26 49 -55 99 -69 C45 -93 25 -117 25 -157 C25 -224 97 -274 193 -274 C311 -274 390 -199 390 -86 C390 -42 376 -10 350 5 C332 15 314 18 269 18 L128 18 Z M262 228 C262 157 248 137 200 137 C150 137 137 156 137 228 L137 288 C137 354 153 377 200 377 C226 377 246 369 254 354 C260 342 262 329 262 293 L262 228 Z M125 -70 L161 -70 L280 -70 C341 -70 341 -70 355 -77 C365 -83 372 -97 372 -113 C372 -191 295 -254 200 -254 C121 -254 69 -212 69 -148 C69 -118 79 -96 105 -70 L125 -70 Z M203 586 C175 586 152 563 152 536 C152 508 175 485 203 485 C230 485 253 508 253 535 C253 564 231 586 203 586 L203 586 Z " />
<glyph glyph-name="Gcommaaccent" unicode="&#x122;" horiz-adv-x="603" d="M504 667 L491 667 L459 625 C410 661 366 677 315 677 C228 677 146 624 94 533 C60 474 44 409 44 329 C44 248 60 184 95 124 C148 35 220 -10 309 -10 C381 -10 447 23 487 79 C510 112 520 144 530 212 L594 212 L594 230 L328 230 L328 212 L427 212 C426 152 424 127 417 103 C400 42 358 10 298 10 C251 10 209 33 189 70 C165 114 157 174 157 308 C157 466 167 549 192 593 C215 633 260 657 312 657 C402 657 462 595 491 471 L504 471 L504 667 Z M308 -105 C328 -115 337 -130 337 -153 C337 -187 316 -217 259 -264 L270 -276 C332 -230 360 -188 360 -140 C360 -92 326 -54 283 -54 C249 -54 225 -78 225 -111 C225 -141 242 -161 268 -161 C291 -161 308 -143 308 -118 L308 -105 Z " />
<glyph glyph-name="gcommaaccent" unicode="&#x123;" horiz-adv-x="415" d="M128 18 C85 18 61 31 61 54 C61 78 82 102 131 133 C157 121 175 117 201 117 C284 117 345 176 345 257 C345 290 337 313 316 343 C328 356 336 361 344 361 C351 361 356 356 357 349 C361 325 368 315 385 315 C402 315 414 329 414 351 C414 376 398 391 372 391 C350 391 334 383 304 353 C270 386 243 397 200 397 C115 397 55 339 55 258 C55 210 72 178 114 144 C108 138 108 138 82 120 C46 95 25 58 25 19 C25 -26 49 -55 99 -69 C45 -93 25 -117 25 -157 C25 -224 97 -274 193 -274 C311 -274 390 -199 390 -86 C390 -42 376 -10 350 5 C332 15 314 18 269 18 L128 18 Z M262 228 C262 157 248 137 200 137 C150 137 137 156 137 228 L137 288 C137 354 153 377 200 377 C226 377 246 369 254 354 C260 342 262 329 262 293 L262 228 Z M125 -70 L161 -70 L280 -70 C341 -70 341 -70 355 -77 C365 -83 372 -97 372 -113 C372 -191 295 -254 200 -254 C121 -254 69 -212 69 -148 C69 -118 79 -96 105 -70 L125 -70 Z M192 495 C175 504 166 518 166 538 C166 570 186 597 240 640 L229 652 C170 610 143 570 143 525 C143 481 176 446 217 446 C251 446 275 469 275 501 C275 529 258 548 232 548 C209 548 192 531 192 507 L192 495 Z " />
<glyph glyph-name="Hcircumflex" unicode="&#x124;" horiz-adv-x="674" d="M468 330 L468 18 L384 18 L384 0 L643 0 L643 18 L561 18 L561 649 L643 649 L643 667 L384 667 L384 649 L468 649 L468 348 L207 348 L207 649 L291 649 L291 667 L32 667 L32 649 L114 649 L114 18 L32 18 L32 0 L291 0 L291 18 L207 18 L207 330 L468 330 Z M337 769 L484 721 C486 720 487 720 489 720 C492 720 494 721 494 723 C494 725 493 726 488 730 L337 838 L186 730 C182 727 180 725 180 723 C180 721 182 720 185 720 C186 720 188 720 189 721 L337 769 Z " />
<glyph glyph-name="Hbar" unicode="&#x126;" horiz-adv-x="674" d="M114 475 L114 18 L32 18 L32 0 L291 0 L291 18 L207 18 L207 330 L468 330 L468 18 L384 18 L384 0 L643 0 L643 18 L561 18 L561 475 L624 475 L624 493 L561 493 L561 649 L643 649 L643 667 L384 667 L384 649 L468 649 L468 493 L207 493 L207 649 L291 649 L291 667 L32 667 L32 649 L114 649 L114 493 L49 493 L49 475 L114 475 Z M207 475 L468 475 L468 348 L207 348 L207 475 Z " />
<glyph glyph-name="hbar" unicode="&#x127;" horiz-adv-x="496" d="M157 556 L157 667 L17 667 L17 649 L80 649 L80 556 L17 556 L17 532 L80 532 L80 18 L17 18 L17 0 L216 0 L216 18 L157 18 L157 177 C157 247 163 286 179 315 C200 353 234 374 274 374 C322 374 342 348 342 286 L342 18 L279 18 L279 0 L479 0 L479 18 L419 18 L419 286 C419 363 381 397 298 397 C239 397 202 379 157 327 L157 532 L311 532 L311 556 L157 556 Z " />
<glyph glyph-name="Imacron" unicode="&#x12a;" horiz-adv-x="321" d="M114 18 L32 18 L32 0 L289 0 L289 18 L207 18 L207 649 L289 649 L289 667 L32 667 L32 649 L114 649 L114 18 Z M299 749 L299 779 L24 779 L24 749 L299 749 Z " />
<glyph glyph-name="imacron" unicode="&#x12b;" horiz-adv-x="251" d="M171 387 L34 387 L34 369 L94 369 L94 18 L34 18 L34 0 L234 0 L234 18 L171 18 L171 387 Z M239 499 L239 523 L4 523 L4 499 L239 499 Z " />
<glyph glyph-name="ibreve" unicode="&#x12d;" horiz-adv-x="251" d="M171 387 L34 387 L34 369 L94 369 L94 18 L34 18 L34 0 L234 0 L234 18 L171 18 L171 387 Z M255 610 C247 581 241 568 229 554 C210 534 174 521 134 521 C95 521 59 534 41 554 C28 567 22 580 14 610 L3 610 C14 524 66 467 135 467 C203 467 255 523 266 610 L255 610 Z " />
<glyph glyph-name="Iogonek" unicode="&#x12e;" horiz-adv-x="321" d="M289 0 L289 18 L207 18 L207 649 L289 649 L289 667 L32 667 L32 649 L114 649 L114 18 L32 18 L32 0 L210 0 C145 -23 114 -54 114 -95 C114 -137 144 -162 193 -162 C221 -162 243 -156 270 -141 L270 -127 C250 -134 238 -136 222 -136 C186 -136 168 -120 168 -87 C168 -53 187 -27 232 0 L289 0 Z " />
<glyph glyph-name="iogonek" unicode="&#x12f;" horiz-adv-x="251" d="M235 0 L235 18 L172 18 L172 387 L35 387 L35 369 L95 369 L95 18 L35 18 L35 0 L158 0 C95 -27 69 -56 69 -94 C69 -134 98 -159 145 -159 C172 -159 193 -153 219 -138 L219 -124 C200 -132 189 -134 173 -134 C139 -134 122 -118 122 -86 C122 -52 138 -29 183 0 L235 0 Z M129 654 C99 654 75 630 75 601 C75 571 99 547 128 547 C157 547 182 571 182 600 C182 630 158 654 129 654 L129 654 Z " />
<glyph glyph-name="Idotaccent" unicode="&#x130;" horiz-adv-x="321" d="M114 18 L32 18 L32 0 L289 0 L289 18 L207 18 L207 649 L289 649 L289 667 L32 667 L32 649 L114 649 L114 18 Z M161 826 C133 826 110 803 110 776 C110 748 133 725 161 725 C188 725 211 748 211 775 C211 804 189 826 161 826 L161 826 Z " />
<glyph glyph-name="dotlessi" unicode="&#x131;" horiz-adv-x="251" d="M172 387 L35 387 L35 369 L95 369 L95 18 L35 18 L35 0 L235 0 L235 18 L172 18 L172 387 Z " />
<glyph glyph-name="Kcommaaccent" unicode="&#x136;" horiz-adv-x="623" d="M114 18 L32 18 L32 0 L285 0 L285 18 L207 18 L207 649 L285 649 L285 667 L32 667 L32 649 L114 649 L114 18 Z M298 407 L504 649 L583 649 L583 667 L383 667 L383 649 L474 649 L221 353 L460 18 L375 18 L375 0 L624 0 L624 18 L575 18 L298 407 Z M282 -276 C343 -230 371 -188 371 -140 C371 -92 337 -54 294 -54 C260 -54 236 -78 236 -111 C236 -141 254 -161 280 -161 C303 -161 320 -143 320 -118 C320 -115 320 -110 319 -105 C339 -115 348 -130 348 -153 C348 -187 327 -217 270 -264 L282 -276 Z " />
<glyph glyph-name="kcommaaccent" unicode="&#x137;" horiz-adv-x="465" d="M154 667 L17 667 L17 649 L77 649 L77 18 L17 18 L17 0 L217 0 L217 18 L154 18 L154 667 Z M244 250 L366 369 L429 369 L429 387 L244 387 L244 369 L334 369 L173 214 L315 18 L263 18 L263 0 L465 0 L465 18 L419 18 L244 250 Z M247 -103 C265 -112 274 -126 274 -146 C274 -178 253 -205 199 -248 L210 -260 C270 -218 297 -178 297 -133 C297 -89 264 -54 222 -54 C188 -54 164 -77 164 -109 C164 -137 181 -156 207 -156 C231 -156 248 -139 248 -115 L247 -103 Z " />
<glyph glyph-name="Lacute" unicode="&#x139;" horiz-adv-x="539" d="M500 0 L513 205 L500 205 C470 55 436 17 338 18 L207 18 L207 649 L285 649 L285 667 L32 667 L32 649 L114 649 L114 18 L32 18 L32 0 L500 0 Z M283 833 L154 731 C150 728 149 726 149 724 C149 721 151 719 154 719 C155 719 157 720 160 721 L381 814 C389 817 393 821 393 825 C393 830 389 833 380 833 L283 833 Z " />
<glyph glyph-name="lacute" unicode="&#x13a;" horiz-adv-x="234" d="M154 667 L8 667 L8 649 L77 649 L77 18 L8 18 L8 0 L227 0 L227 18 L154 18 L154 667 Z M208 833 L78 731 C75 728 74 726 74 724 C74 721 76 719 78 719 C79 719 81 720 84 721 L305 814 C314 818 318 821 318 825 C318 831 314 833 304 833 L208 833 Z " />
<glyph glyph-name="Lcommaaccent" unicode="&#x13b;" horiz-adv-x="539" d="M500 0 L513 205 L500 205 C470 55 436 17 338 18 L207 18 L207 649 L285 649 L285 667 L32 667 L32 649 L114 649 L114 18 L32 18 L32 0 L500 0 Z M250 -276 C312 -230 339 -188 339 -140 C339 -92 305 -54 262 -54 C228 -54 204 -78 204 -111 C204 -141 222 -161 248 -161 C271 -161 288 -143 288 -118 C288 -115 288 -110 287 -105 C307 -115 316 -130 316 -153 C316 -187 296 -216 238 -264 L250 -276 Z " />
<glyph glyph-name="lcommaaccent" unicode="&#x13c;" horiz-adv-x="234" d="M154 667 L8 667 L8 649 L77 649 L77 18 L8 18 L8 0 L227 0 L227 18 L154 18 L154 667 Z M102 -260 C161 -218 188 -178 188 -133 C188 -89 155 -54 113 -54 C79 -54 55 -77 55 -109 C55 -137 73 -156 99 -156 C122 -156 139 -139 139 -115 C139 -113 139 -107 138 -103 C156 -112 165 -126 165 -146 C165 -178 145 -205 90 -248 L102 -260 Z " />
<glyph glyph-name="Lcaron" unicode="&#x13d;" horiz-adv-x="539" d="M500 0 L513 205 L500 205 C470 55 436 17 338 18 L207 18 L207 649 L285 649 L285 667 L32 667 L32 649 L114 649 L114 18 L32 18 L32 0 L500 0 Z M351 445 C412 491 440 533 440 581 C440 629 406 667 363 667 C329 667 305 644 305 610 C305 581 323 561 349 561 C372 561 389 579 389 603 C389 606 389 612 388 617 C408 606 417 591 417 568 C417 534 396 505 339 458 L351 445 Z " />
<glyph glyph-name="lcaron" unicode="&#x13e;" horiz-adv-x="325" d="M154 667 L8 667 L8 649 L77 649 L77 18 L8 18 L8 0 L227 0 L227 18 L154 18 L154 667 Z M236 461 C295 503 322 543 322 588 C322 632 289 667 247 667 C213 667 189 644 189 612 C189 584 207 565 233 565 C256 565 273 582 273 606 C273 610 273 614 272 619 C291 610 299 596 299 575 C299 544 279 516 225 473 L236 461 Z " />
<glyph glyph-name="Ldot" unicode="&#x13f;" horiz-adv-x="539" d="M500 0 L513 205 L500 205 C470 55 436 17 338 18 L207 18 L207 649 L285 649 L285 667 L32 667 L32 649 L114 649 L114 18 L32 18 L32 0 L500 0 Z M330 368 C302 368 279 345 279 318 C279 290 302 267 330 267 C357 267 380 290 380 317 C380 346 358 368 330 368 L330 368 Z " />
<glyph glyph-name="ldot" unicode="&#x140;" horiz-adv-x="285" d="M154 667 L8 667 L8 649 L77 649 L77 18 L8 18 L8 0 L227 0 L227 18 L154 18 L154 667 Z M242 361 C214 361 191 338 191 311 C191 283 214 260 242 260 C269 260 292 283 292 310 C292 339 270 361 242 361 L242 361 Z " />
<glyph glyph-name="Lslash" unicode="&#x141;" horiz-adv-x="539" d="M114 269 L114 18 L32 18 L32 0 L500 0 L513 205 L500 205 C470 55 436 17 338 18 L207 18 L207 324 L367 455 L367 480 L207 349 L207 649 L285 649 L285 667 L32 667 L32 649 L114 649 L114 294 L32 228 L32 203 L114 269 Z " />
<glyph glyph-name="lslash" unicode="&#x142;" horiz-adv-x="234" d="M81 351 L8 293 L8 268 L81 326 L81 18 L8 18 L8 0 L227 0 L227 18 L158 18 L158 367 L227 425 L227 450 L158 392 L158 667 L8 667 L8 649 L81 649 L81 351 Z " />
<glyph glyph-name="Nacute" unicode="&#x143;" horiz-adv-x="645" d="M527 0 L543 0 L543 649 L613 649 L613 667 L439 667 L439 649 L520 649 L520 185 L222 667 L22 667 L22 649 L104 649 L104 18 L22 18 L22 0 L215 0 L215 18 L127 18 L127 644 L527 0 Z M416 833 L287 731 C283 728 282 726 282 724 C282 721 284 719 287 719 C288 719 290 720 292 721 L514 814 C522 817 526 821 526 825 C526 830 522 833 513 833 L416 833 Z " />
<glyph glyph-name="nacute" unicode="&#x144;" horiz-adv-x="501" d="M175 387 L35 387 L35 369 L98 369 L98 18 L35 18 L35 0 L238 0 L238 18 L175 18 L175 178 C175 255 180 295 195 320 C213 353 248 374 283 374 C323 374 343 346 343 292 L343 18 L280 18 L280 0 L483 0 L483 18 L420 18 L420 265 C420 301 415 324 405 342 C385 377 346 397 299 397 C248 397 213 378 175 330 L175 387 Z M318 613 L222 470 C221 469 221 468 221 467 C221 465 223 463 224 463 C225 463 225 463 229 466 L387 595 C392 598 395 603 395 606 C395 611 391 613 383 613 L318 613 Z " />
<glyph glyph-name="Ncommaaccent" unicode="&#x145;" horiz-adv-x="645" d="M527 0 L543 0 L543 649 L613 649 L613 667 L439 667 L439 649 L520 649 L520 185 L222 667 L22 667 L22 649 L104 649 L104 18 L22 18 L22 0 L215 0 L215 18 L127 18 L127 644 L527 0 Z M332 -105 C352 -115 361 -130 361 -153 C361 -187 340 -217 283 -264 L294 -276 C356 -230 384 -188 384 -140 C384 -92 350 -54 307 -54 C273 -54 249 -78 249 -111 C249 -141 266 -161 292 -161 C315 -161 332 -143 332 -118 L332 -105 Z " />
<glyph glyph-name="ncommaaccent" unicode="&#x146;" horiz-adv-x="501" d="M175 387 L35 387 L35 369 L98 369 L98 18 L35 18 L35 0 L238 0 L238 18 L175 18 L175 178 C175 255 180 295 195 320 C213 353 248 374 283 374 C323 374 343 346 343 292 L343 18 L280 18 L280 0 L483 0 L483 18 L420 18 L420 265 C420 301 415 324 405 342 C385 377 346 397 299 397 C248 397 213 378 175 330 L175 387 Z M274 -103 C292 -112 301 -125 301 -146 C301 -178 281 -205 226 -248 L237 -260 C297 -218 324 -178 324 -133 C324 -89 291 -54 249 -54 C215 -54 191 -77 191 -109 C191 -137 208 -156 234 -156 C257 -156 274 -139 274 -115 L274 -103 Z " />
<glyph glyph-name="Ncaron" unicode="&#x147;" horiz-adv-x="645" d="M527 0 L543 0 L543 649 L613 649 L613 667 L439 667 L439 649 L520 649 L520 185 L222 667 L22 667 L22 649 L104 649 L104 18 L22 18 L22 0 L215 0 L215 18 L127 18 L127 644 L527 0 Z M329 789 L182 838 L177 838 C174 838 172 837 172 835 C172 833 173 832 178 829 L329 720 L481 829 C484 831 486 833 486 835 C486 837 485 838 481 838 L477 838 L329 789 Z " />
<glyph glyph-name="ncaron" unicode="&#x148;" horiz-adv-x="501" d="M175 387 L35 387 L35 369 L98 369 L98 18 L35 18 L35 0 L238 0 L238 18 L175 18 L175 178 C175 255 180 295 195 320 C213 353 248 374 283 374 C323 374 343 346 343 292 L343 18 L280 18 L280 0 L483 0 L483 18 L420 18 L420 265 C420 301 415 324 405 342 C385 377 346 397 299 397 C248 397 213 378 175 330 L175 387 Z M265 539 L132 615 C130 616 128 617 127 617 C125 617 123 615 123 613 C123 612 125 609 128 606 L265 463 L403 606 C407 610 408 612 408 614 C408 616 406 617 404 617 C403 617 401 616 399 615 L265 539 Z " />
<glyph glyph-name="Omacron" unicode="&#x14c;" horiz-adv-x="627" d="M313 677 C162 677 44 527 44 334 C44 140 162 -10 313 -10 C465 -10 583 139 583 330 C583 430 559 509 507 576 C456 642 388 677 313 677 L313 677 Z M314 657 C380 657 432 620 453 559 C467 518 470 479 470 312 C470 166 464 120 439 77 C415 36 366 10 313 10 C247 10 195 47 174 108 C160 149 157 189 157 347 C157 501 163 547 188 590 C212 631 261 657 314 657 L314 657 Z M473 749 L473 779 L153 779 L153 749 L473 749 Z " />
<glyph glyph-name="omacron" unicode="&#x14d;" horiz-adv-x="447" d="M225 397 C120 397 38 307 38 194 C38 80 120 -10 224 -10 C325 -10 409 80 409 190 C409 306 328 397 225 397 L225 397 Z M316 169 C316 101 312 71 301 51 C287 25 258 10 223 10 C184 10 154 28 141 58 C135 73 131 114 131 169 L131 218 C131 265 134 310 139 324 C150 357 182 377 223 377 C258 377 287 362 301 336 C312 316 316 286 316 218 L316 169 Z M360 499 L360 523 L87 523 L87 499 L360 499 Z " />
<glyph glyph-name="Ohungarumlaut" unicode="&#x150;" horiz-adv-x="627" d="M313 677 C162 677 44 527 44 334 C44 140 162 -10 313 -10 C465 -10 583 139 583 330 C583 430 559 509 507 576 C456 642 388 677 313 677 L313 677 Z M314 657 C380 657 432 620 453 559 C467 518 470 479 470 312 C470 166 464 120 439 77 C415 36 366 10 313 10 C247 10 195 47 174 108 C160 149 157 189 157 347 C157 501 163 547 188 590 C212 631 261 657 314 657 L314 657 Z M487 833 L375 731 C371 727 370 726 370 724 C370 722 371 720 374 720 C376 720 378 720 380 721 L568 813 C578 818 581 821 581 825 C581 830 576 833 567 833 L487 833 Z M331 833 L218 731 C214 727 213 726 213 724 C213 721 214 720 217 720 C219 720 222 720 224 721 L412 813 C420 818 424 821 424 825 C424 830 420 833 411 833 L331 833 Z " />
<glyph glyph-name="ohungarumlaut" unicode="&#x151;" horiz-adv-x="447" d="M225 397 C120 397 38 307 38 194 C38 80 120 -10 224 -10 C325 -10 409 80 409 190 C409 306 328 397 225 397 L225 397 Z M316 169 C316 101 312 71 301 51 C287 25 258 10 223 10 C184 10 154 28 141 58 C135 73 131 114 131 169 L131 218 C131 265 134 310 139 324 C150 357 182 377 223 377 C258 377 287 362 301 336 C312 316 316 286 316 218 L316 169 Z M376 613 L281 470 C280 469 279 467 279 466 C279 465 280 463 282 463 C283 463 286 464 288 466 L439 595 C444 599 447 603 447 606 C447 611 443 613 435 613 L376 613 Z M246 613 L150 470 L149 466 C149 465 150 463 152 463 C153 463 156 464 158 466 L309 595 C314 599 317 603 317 606 C317 611 313 613 305 613 L246 613 Z " />
<glyph glyph-name="OE" unicode="&#x152;" horiz-adv-x="876" d="M800 667 L417 667 C383 675 365 677 341 677 C172 677 44 529 44 333 C44 223 81 130 153 63 C205 13 265 -10 341 -10 C367 -10 384 -8 417 0 L821 0 L840 208 L827 208 C813 151 801 115 788 90 C752 26 738 19 650 18 L527 18 L527 329 L567 329 C640 328 665 301 668 221 L668 198 L681 198 L681 472 L668 472 L668 453 C666 373 643 349 570 347 L527 347 L527 649 L605 649 C733 650 772 618 800 486 L813 486 L800 667 Z M434 30 C395 14 375 10 342 10 C268 10 217 35 190 85 C168 125 157 193 157 291 C157 390 164 502 173 545 C187 611 254 657 338 657 C369 657 389 653 434 639 L434 30 Z " />
<glyph glyph-name="oe" unicode="&#x153;" horiz-adv-x="688" d="M632 130 C618 56 567 10 500 10 C464 10 434 26 419 52 C407 75 403 98 403 151 L403 228 L654 228 C650 326 581 397 492 397 C440 397 392 371 360 327 C329 371 277 397 222 397 C120 397 38 306 38 193 C38 81 120 -10 222 -10 C277 -10 329 16 361 60 C395 16 446 -10 500 -10 C578 -10 637 44 651 130 L632 130 Z M316 169 C316 101 312 70 302 51 C287 25 258 10 223 10 C188 10 159 26 144 51 C134 70 130 102 130 169 L130 218 C130 285 134 317 144 336 C158 361 188 377 223 377 C258 377 287 361 302 336 C312 316 316 285 316 218 L316 169 Z M568 246 L403 246 L403 280 C403 346 431 377 490 377 C544 377 568 350 568 289 L568 246 Z " />
<glyph glyph-name="Racute" unicode="&#x154;" horiz-adv-x="612" d="M207 345 L262 345 C355 343 390 308 393 214 L393 165 C393 55 438 -5 521 -5 C546 -5 563 -1 587 12 L582 29 C563 19 554 16 542 16 C527 16 511 26 504 38 C496 53 494 69 494 108 L494 163 C491 271 432 334 318 350 C388 359 418 369 454 395 C494 424 515 465 515 514 C515 569 488 617 442 641 C404 661 372 667 290 667 L32 667 L32 649 L114 649 L114 18 L32 18 L32 0 L291 0 L291 18 L207 18 L207 345 Z M207 363 L207 649 L272 649 C316 649 354 639 373 621 C396 600 411 554 411 503 C411 409 364 363 266 363 L207 363 Z M351 833 L222 731 C218 728 217 726 217 724 C217 721 219 719 222 719 C223 719 225 720 227 721 L449 814 C457 817 461 821 461 825 C461 830 457 833 448 833 L351 833 Z " />
<glyph glyph-name="racute" unicode="&#x155;" horiz-adv-x="336" d="M175 387 L35 387 L35 369 L98 369 L98 18 L35 18 L35 0 L238 0 L238 18 L175 18 L175 134 C175 220 181 262 201 309 C214 343 229 360 244 360 C253 360 257 355 257 344 C258 311 270 294 290 294 C311 294 326 314 326 342 C326 376 306 397 274 397 C229 397 204 368 175 287 L175 387 Z M271 613 L175 470 L173 467 C173 465 175 463 177 463 C178 463 179 464 182 466 L340 595 C345 598 348 603 348 606 C348 611 344 613 336 613 L271 613 Z " />
<glyph glyph-name="Rcommaaccent" unicode="&#x156;" horiz-adv-x="612" d="M207 345 L262 345 C355 343 390 308 393 214 L393 165 C393 55 438 -5 521 -5 C546 -5 563 -1 587 12 L582 29 C563 19 554 16 542 16 C527 16 511 26 504 38 C496 53 494 69 494 108 L494 163 C491 271 432 334 318 350 C388 359 418 369 454 395 C494 424 515 465 515 514 C515 569 488 617 442 641 C404 661 372 667 290 667 L32 667 L32 649 L114 649 L114 18 L32 18 L32 0 L291 0 L291 18 L207 18 L207 345 Z M207 363 L207 649 L272 649 C316 649 354 639 373 621 C396 600 411 554 411 503 C411 409 364 363 266 363 L207 363 Z M274 -276 C335 -230 363 -188 363 -140 C363 -92 329 -54 286 -54 C252 -54 228 -78 228 -111 C228 -141 246 -161 272 -161 C295 -161 312 -143 312 -118 C312 -115 312 -110 311 -105 C331 -115 340 -130 340 -153 C340 -187 319 -217 262 -264 L274 -276 Z " />
<glyph glyph-name="rcommaaccent" unicode="&#x157;" horiz-adv-x="336" d="M175 387 L35 387 L35 369 L98 369 L98 18 L35 18 L35 0 L238 0 L238 18 L175 18 L175 134 C175 220 181 262 201 309 C214 343 229 360 244 360 C253 360 257 355 257 344 C258 311 270 294 290 294 C311 294 326 314 326 342 C326 376 306 397 274 397 C229 397 204 368 175 287 L175 387 Z M125 -260 C184 -218 211 -178 211 -133 C211 -89 178 -54 136 -54 C102 -54 78 -77 78 -109 C78 -137 96 -156 122 -156 C145 -156 162 -139 162 -115 C162 -111 162 -107 161 -103 C180 -112 188 -126 188 -146 C188 -178 168 -205 114 -248 L125 -260 Z " />
<glyph glyph-name="Rcaron" unicode="&#x158;" horiz-adv-x="612" d="M207 345 L262 345 C355 343 390 308 393 214 L393 165 C393 55 438 -5 521 -5 C546 -5 563 -1 587 12 L582 29 C563 19 554 16 542 16 C527 16 511 26 504 38 C496 53 494 69 494 108 L494 163 C491 271 432 334 318 350 C388 359 418 369 454 395 C494 424 515 465 515 514 C515 569 488 617 442 641 C404 661 372 667 290 667 L32 667 L32 649 L114 649 L114 18 L32 18 L32 0 L291 0 L291 18 L207 18 L207 345 Z M207 363 L207 649 L272 649 C316 649 354 639 373 621 C396 600 411 554 411 503 C411 409 364 363 266 363 L207 363 Z M285 789 L138 838 L134 838 C130 838 129 837 129 835 C129 833 130 831 134 829 L285 720 L437 829 C441 831 442 833 442 835 C442 837 441 838 437 838 L433 838 L285 789 Z " />
<glyph glyph-name="rcaron" unicode="&#x159;" horiz-adv-x="336" d="M175 387 L35 387 L35 369 L98 369 L98 18 L35 18 L35 0 L238 0 L238 18 L175 18 L175 134 C175 220 181 262 201 309 C214 343 229 360 244 360 C253 360 257 355 257 344 C258 311 270 294 290 294 C311 294 326 314 326 342 C326 376 306 397 274 397 C229 397 204 368 175 287 L175 387 Z M191 539 L57 615 C55 616 53 617 52 617 C50 617 48 615 48 613 C48 612 49 610 54 606 L191 463 L328 606 C331 609 333 612 333 614 C333 615 331 617 329 617 C328 617 327 616 324 615 L191 539 Z " />
<glyph glyph-name="Sacute" unicode="&#x15a;" horiz-adv-x="477" d="M395 676 L383 676 L353 633 C312 663 274 677 231 677 C133 677 58 592 58 479 C58 389 100 337 195 310 L268 290 C350 267 383 228 383 157 C383 70 327 10 245 10 C186 10 131 44 97 100 C80 129 73 154 65 207 L46 207 L52 0 L65 0 L99 56 C148 8 187 -10 244 -10 C291 -10 331 5 362 34 C404 73 431 143 431 216 C431 322 385 381 281 409 L230 423 C139 447 105 478 105 535 C105 604 159 657 230 657 C310 657 364 602 378 503 L397 503 L395 676 Z M322 833 L193 731 C189 727 188 726 188 724 C188 721 190 719 193 719 C194 719 196 720 199 721 L420 814 C428 817 432 821 432 825 C432 830 428 833 419 833 L322 833 Z " />
<glyph glyph-name="sacute" unicode="&#x15b;" horiz-adv-x="338" d="M285 395 L272 395 L259 359 C226 386 200 397 167 397 C100 397 53 347 53 278 C53 217 85 175 141 164 L215 148 C254 140 274 119 274 88 C274 45 236 10 188 10 C148 10 114 31 90 71 C78 92 72 109 65 148 L49 148 L49 0 L59 0 L80 38 C120 2 146 -10 185 -10 C256 -10 305 45 305 123 C305 193 271 232 197 248 L155 257 C102 268 83 281 83 307 C83 346 118 377 163 377 C218 377 258 341 269 280 L285 280 L285 395 Z M246 613 L150 470 C149 469 149 468 149 467 C149 465 151 463 152 463 C153 463 153 463 157 466 L315 595 C320 598 323 603 323 606 C323 611 319 613 311 613 L246 613 Z " />
<glyph glyph-name="Scircumflex" unicode="&#x15c;" horiz-adv-x="477" d="M395 676 L383 676 L353 633 C312 663 274 677 231 677 C133 677 58 592 58 479 C58 389 100 337 195 310 L268 290 C350 267 383 228 383 157 C383 70 327 10 245 10 C186 10 131 44 97 100 C80 129 73 154 65 207 L46 207 L52 0 L65 0 L99 56 C148 8 187 -10 244 -10 C291 -10 331 5 362 34 C404 73 431 143 431 216 C431 322 385 381 281 409 L230 423 C139 447 105 478 105 535 C105 604 159 657 230 657 C310 657 364 602 378 503 L397 503 L395 676 Z M238 769 L385 721 C387 720 388 720 390 720 C393 720 395 721 395 723 C395 725 394 726 389 730 L238 838 L87 730 C83 727 81 725 81 723 C81 721 83 720 86 720 C87 720 89 720 90 721 L238 769 Z " />
<glyph glyph-name="scircumflex" unicode="&#x15d;" horiz-adv-x="338" d="M286 395 L273 395 L260 359 C227 386 201 397 168 397 C101 397 54 347 54 278 C54 217 86 175 142 164 L216 148 C255 140 275 119 275 88 C275 45 237 10 189 10 C149 10 115 31 91 71 C79 92 73 109 66 148 L50 148 L50 0 L60 0 L81 38 C121 2 147 -10 186 -10 C257 -10 306 45 306 123 C306 193 272 232 198 248 L156 257 C103 268 84 281 84 307 C84 346 119 377 164 377 C219 377 259 341 270 280 L286 280 L286 395 Z M184 541 L317 465 C319 464 321 463 322 463 C324 463 326 465 326 467 C326 468 324 471 321 474 L184 617 L46 474 C42 470 41 468 41 466 C41 465 43 463 45 463 C46 463 48 464 50 465 L184 541 Z " />
<glyph glyph-name="Scedilla" unicode="&#x15e;" horiz-adv-x="477" d="M245 -10 C279 -9 307 -2 332 12 C393 47 431 126 431 216 C431 322 385 381 281 409 L230 423 C139 447 105 478 105 535 C105 604 159 657 230 657 C310 657 364 602 378 503 L397 503 L395 676 L383 676 L353 633 C312 663 274 677 231 677 C133 677 58 592 58 479 C58 389 100 337 195 310 L268 290 C350 267 383 228 383 157 C383 70 327 10 245 10 C186 10 131 44 97 100 C80 129 73 154 65 207 L46 207 L52 0 L65 0 L99 56 C139 14 178 -5 227 -9 L212 -67 C244 -76 259 -91 259 -117 C259 -145 239 -165 210 -165 C186 -165 172 -157 172 -142 C172 -140 172 -137 171 -134 L170 -126 C168 -108 164 -101 157 -101 C150 -101 145 -107 145 -118 C145 -155 178 -181 223 -181 C275 -181 320 -148 320 -110 C320 -78 292 -58 246 -58 L232 -58 L245 -10 Z " />
<glyph glyph-name="scedilla" unicode="&#x15f;" horiz-adv-x="338" d="M185 -10 C257 -9 305 44 305 123 C305 193 271 232 197 248 L155 257 C102 268 83 281 83 307 C83 346 118 377 163 377 C218 377 258 341 269 280 L285 280 L285 395 L272 395 L259 359 C226 386 200 397 167 397 C100 397 53 347 53 278 C53 217 85 175 141 164 L215 148 C254 140 274 119 274 88 C274 45 236 10 188 10 C148 10 114 31 90 71 C78 92 72 109 65 148 L49 148 L49 0 L59 0 L80 38 C112 8 137 -5 167 -9 L153 -65 C184 -74 198 -89 198 -114 C198 -141 179 -160 151 -160 C128 -160 115 -152 115 -138 C115 -136 115 -134 114 -130 L113 -123 C111 -104 108 -98 101 -98 C94 -98 90 -104 90 -115 C90 -150 121 -176 164 -176 C213 -176 256 -144 256 -107 C256 -75 230 -56 186 -56 L172 -56 L185 -10 Z " />
<glyph glyph-name="Scaron" unicode="&#x160;" horiz-adv-x="477" d="M243 789 L95 838 L91 838 C87 838 86 837 86 835 C86 833 87 831 91 829 L243 720 L394 829 C397 831 399 833 399 835 C399 837 398 838 394 838 L390 838 L243 789 Z M395 676 L383 676 L353 633 C312 663 274 677 231 677 C133 677 58 592 58 479 C58 389 100 337 195 310 L268 290 C350 267 383 228 383 157 C383 70 327 10 245 10 C186 10 131 44 97 100 C80 129 73 154 65 207 L46 207 L52 0 L65 0 L99 56 C148 8 187 -10 244 -10 C291 -10 331 5 362 34 C404 73 431 143 431 216 C431 322 385 381 281 409 L230 423 C139 447 105 478 105 535 C105 604 159 657 230 657 C310 657 364 602 378 503 L397 503 L395 676 Z " />
<glyph glyph-name="scaron" unicode="&#x161;" horiz-adv-x="338" d="M285 395 L272 395 L259 359 C226 386 200 397 167 397 C100 397 53 347 53 278 C53 217 85 175 141 164 L215 148 C254 140 274 119 274 88 C274 45 236 10 188 10 C148 10 114 31 90 71 C78 92 72 109 65 148 L49 148 L49 0 L59 0 L80 38 C120 2 146 -10 185 -10 C256 -10 305 45 305 123 C305 193 271 232 197 248 L155 257 C102 268 83 281 83 307 C83 346 118 377 163 377 C218 377 258 341 269 280 L285 280 L285 395 Z M177 539 L43 615 C41 616 39 617 38 617 C36 617 34 615 34 613 C34 612 36 609 39 606 L177 463 L314 606 C318 609 319 612 319 614 C319 615 317 617 315 617 C314 617 312 616 310 615 L177 539 Z " />
<glyph glyph-name="Tcommaaccent" unicode="&#x162;" horiz-adv-x="554" d="M541 459 L528 667 L20 667 L13 459 L25 457 C41 536 54 568 87 612 C111 641 130 648 187 649 L232 649 L232 18 L137 18 L137 0 L415 0 L415 18 L325 18 L325 649 L371 649 C455 648 491 604 528 457 L541 459 Z M261 -276 C322 -230 350 -188 350 -140 C350 -92 316 -54 273 -54 C239 -54 215 -78 215 -111 C215 -141 233 -161 259 -161 C282 -161 299 -143 299 -118 C299 -115 299 -110 298 -105 C318 -115 327 -130 327 -153 C327 -187 306 -216 249 -264 L261 -276 Z " />
<glyph glyph-name="tcommaaccent" unicode="&#x163;" horiz-adv-x="274" d="M154 369 L255 369 L255 387 L154 387 L154 546 L144 546 C125 479 67 404 19 384 L19 369 L77 369 L77 107 C77 67 79 51 89 33 C105 6 136 -10 175 -10 C232 -10 264 17 275 74 L256 74 C248 36 231 20 202 20 C168 20 154 40 154 85 L154 369 Z M169 -103 C187 -112 196 -126 196 -146 C196 -178 175 -205 121 -248 L133 -260 C192 -218 219 -178 219 -133 C219 -89 186 -54 144 -54 C110 -54 86 -77 86 -109 C86 -137 103 -156 129 -156 C153 -156 170 -139 170 -115 L169 -103 Z " />
<glyph glyph-name="Tcaron" unicode="&#x164;" horiz-adv-x="554" d="M541 459 L528 667 L20 667 L13 459 L25 457 C41 536 54 568 87 612 C111 641 130 648 187 649 L232 649 L232 18 L137 18 L137 0 L415 0 L415 18 L325 18 L325 649 L371 649 C455 648 491 604 528 457 L541 459 Z M281 789 L133 838 L129 838 C126 838 124 837 124 835 C124 833 125 832 129 829 L281 720 L432 829 C437 832 438 833 438 835 C438 837 436 838 433 838 L428 838 L281 789 Z " />
<glyph glyph-name="tcaron" unicode="&#x165;" horiz-adv-x="307" d="M154 369 L255 369 L255 387 L154 387 L154 546 L144 546 C125 479 67 404 19 384 L19 369 L77 369 L77 107 C77 67 79 51 89 33 C105 6 136 -10 175 -10 C232 -10 264 17 275 74 L256 74 C248 36 231 20 202 20 C168 20 154 40 154 85 L154 369 Z M253 619 C271 610 280 596 280 575 C280 544 259 516 205 473 L217 461 C276 503 303 543 303 588 C303 632 270 667 228 667 C194 667 171 644 171 612 C171 584 188 565 214 565 C237 565 254 582 254 606 L253 619 Z " />
<glyph glyph-name="utilde" unicode="&#x169;" horiz-adv-x="485" d="M405 387 L268 387 L268 369 L328 369 L328 200 C328 134 321 88 307 64 C290 32 256 13 218 13 C169 13 154 38 154 117 L154 387 L17 387 L17 369 L77 369 L77 131 C77 83 81 61 93 39 C111 8 151 -10 203 -10 C260 -10 295 10 328 60 L328 0 L468 0 L468 18 L405 18 L405 387 Z M389 572 C373 550 357 542 331 542 C313 542 302 544 287 549 L248 563 C227 570 215 573 199 573 C152 573 127 554 99 499 L108 493 C124 515 142 524 168 524 C184 524 201 521 218 515 L256 502 C275 495 292 492 305 492 C340 492 367 515 398 567 L389 572 Z " />
<glyph glyph-name="Umacron" unicode="&#x16a;" horiz-adv-x="610" d="M190 649 L272 649 L272 667 L19 667 L19 649 L97 649 L97 249 C97 162 105 117 128 77 C160 21 228 -10 318 -10 C406 -10 464 21 494 84 C510 118 516 154 516 222 L516 649 L584 649 L584 667 L417 667 L417 649 L493 649 L493 222 C493 149 490 127 477 98 C452 41 404 10 341 10 C285 10 235 36 212 78 C194 109 190 136 190 205 L190 649 Z M476 749 L476 779 L156 779 L156 749 L476 749 Z " />
<glyph glyph-name="umacron" unicode="&#x16b;" horiz-adv-x="485" d="M405 387 L268 387 L268 369 L328 369 L328 200 C328 134 321 88 307 64 C290 32 256 13 218 13 C169 13 154 38 154 117 L154 387 L17 387 L17 369 L77 369 L77 131 C77 83 81 61 93 39 C111 8 151 -10 203 -10 C260 -10 295 10 328 60 L328 0 L468 0 L468 18 L405 18 L405 387 Z M379 499 L379 523 L106 523 L106 499 L379 499 Z " />
<glyph glyph-name="ubreve" unicode="&#x16d;" horiz-adv-x="485" d="M405 387 L268 387 L268 369 L328 369 L328 200 C328 134 321 88 307 64 C290 32 256 13 218 13 C169 13 154 38 154 117 L154 387 L17 387 L17 369 L77 369 L77 131 C77 83 81 61 93 39 C111 8 151 -10 203 -10 C260 -10 295 10 328 60 L328 0 L468 0 L468 18 L405 18 L405 387 Z M362 610 C355 581 349 568 336 554 C318 534 282 521 242 521 C203 521 167 534 148 554 C136 567 130 580 122 610 L111 610 C122 524 174 467 242 467 C310 467 362 523 374 610 L362 610 Z " />
<glyph glyph-name="Uring" unicode="&#x16e;" horiz-adv-x="610" d="M190 649 L272 649 L272 667 L19 667 L19 649 L97 649 L97 249 C97 162 105 117 128 77 C160 21 228 -10 318 -10 C406 -10 464 21 494 84 C510 118 516 154 516 222 L516 649 L584 649 L584 667 L417 667 L417 649 L493 649 L493 222 C493 149 490 127 477 98 C452 41 404 10 341 10 C285 10 235 36 212 78 C194 109 190 136 190 205 L190 649 Z M325 859 C282 859 249 825 249 782 C249 740 282 707 325 707 C367 707 401 740 401 781 C401 825 368 859 325 859 L325 859 Z M325 832 C350 832 373 809 373 783 C373 757 350 734 324 734 C299 734 277 757 277 783 C277 810 299 832 325 832 L325 832 Z " />
<glyph glyph-name="uring" unicode="&#x16f;" horiz-adv-x="485" d="M405 387 L268 387 L268 369 L328 369 L328 200 C328 134 321 88 307 64 C290 32 256 13 218 13 C169 13 154 38 154 117 L154 387 L17 387 L17 369 L77 369 L77 131 C77 83 81 61 93 39 C111 8 151 -10 203 -10 C260 -10 295 10 328 60 L328 0 L468 0 L468 18 L405 18 L405 387 Z M250 615 C208 615 175 581 175 538 C175 496 208 463 251 463 C293 463 327 496 327 537 C327 581 293 615 250 615 L250 615 Z M251 588 C276 588 299 565 299 539 C299 513 276 490 250 490 C224 490 203 513 203 539 C203 566 225 588 251 588 L251 588 Z " />
<glyph glyph-name="Uhungarumlaut" unicode="&#x170;" horiz-adv-x="610" d="M190 649 L272 649 L272 667 L19 667 L19 649 L97 649 L97 249 C97 162 105 117 128 77 C160 21 228 -10 318 -10 C406 -10 464 21 494 84 C510 118 516 154 516 222 L516 649 L584 649 L584 667 L417 667 L417 649 L493 649 L493 222 C493 149 490 127 477 98 C452 41 404 10 341 10 C285 10 235 36 212 78 C194 109 190 136 190 205 L190 649 Z M473 833 L361 731 C356 727 356 726 356 724 C356 721 357 720 360 720 C362 720 364 720 366 721 L554 813 C563 818 567 821 567 825 C567 830 562 833 554 833 L473 833 Z M317 833 L205 731 C201 728 200 726 200 724 C200 722 201 720 203 720 C206 720 208 720 210 721 L398 813 C407 818 411 821 411 825 C411 830 406 833 397 833 L317 833 Z " />
<glyph glyph-name="uhungarumlaut" unicode="&#x171;" horiz-adv-x="485" d="M405 387 L268 387 L268 369 L328 369 L328 200 C328 134 321 88 307 64 C290 32 256 13 218 13 C169 13 154 38 154 117 L154 387 L17 387 L17 369 L77 369 L77 131 C77 83 81 61 93 39 C111 8 151 -10 203 -10 C260 -10 295 10 328 60 L328 0 L468 0 L468 18 L405 18 L405 387 Z M376 613 L280 470 C279 468 279 467 279 466 C279 464 280 463 281 463 C283 463 286 464 288 466 L439 595 C443 598 447 603 447 606 C447 611 442 613 435 613 L376 613 Z M246 613 L150 470 C149 468 149 467 149 466 C149 464 150 463 151 463 C153 463 156 464 158 466 L309 595 C314 598 317 603 317 606 C317 611 312 613 304 613 L246 613 Z " />
<glyph glyph-name="Uogonek" unicode="&#x172;" horiz-adv-x="610" d="M452 -127 C433 -134 421 -136 405 -136 C370 -136 352 -120 352 -87 C352 -52 368 -31 430 13 C493 54 517 112 516 222 L516 649 L584 649 L584 667 L417 667 L417 649 L493 649 L493 222 C493 149 490 127 477 98 C452 41 404 10 341 10 C285 10 235 36 212 78 C194 109 190 136 190 205 L190 649 L272 649 L272 667 L19 667 L19 649 L97 649 L97 249 C97 162 105 118 128 77 C160 22 228 -10 316 -10 C339 -10 358 -8 380 -4 C324 -28 297 -58 297 -95 C297 -137 327 -162 376 -162 C404 -162 425 -156 452 -141 L452 -127 Z " />
<glyph glyph-name="uogonek" unicode="&#x173;" horiz-adv-x="485" d="M468 0 L468 18 L405 18 L405 387 L268 387 L268 369 L328 369 L328 200 C328 134 321 88 307 64 C290 32 256 13 218 13 C169 13 154 38 154 117 L154 387 L17 387 L17 369 L77 369 L77 131 C77 83 81 61 93 39 C111 8 151 -10 203 -10 C260 -10 295 10 328 60 L328 0 L389 0 C327 -27 301 -55 301 -94 C301 -134 329 -159 376 -159 C403 -159 424 -153 450 -138 L450 -124 C432 -132 420 -134 405 -134 C370 -134 353 -118 353 -86 C353 -52 369 -29 414 0 L468 0 Z " />
<glyph glyph-name="Wcircumflex" unicode="&#x174;" horiz-adv-x="745" d="M534 143 L432 431 L506 649 L559 649 L559 667 L-10 667 L-10 649 L46 649 L267 -10 L284 -10 L389 292 L491 -10 L508 -10 L705 649 L757 649 L757 667 L598 667 L598 649 L684 649 L534 143 Z M142 649 L265 649 L377 325 L312 135 L142 649 Z M355 649 L487 649 L422 467 L355 649 Z M398 769 L546 721 C547 720 548 720 550 720 C553 720 555 721 555 723 C555 725 554 727 549 730 L398 838 L247 730 C242 727 241 725 241 723 C241 721 243 720 246 720 C248 720 249 720 251 721 L398 769 Z " />
<glyph glyph-name="Ycircumflex" unicode="&#x176;" horiz-adv-x="524" d="M477 649 L542 649 L542 667 L361 667 L361 649 L454 649 L313 353 L142 649 L226 649 L226 667 L-19 667 L-19 649 L35 649 L226 312 L226 18 L131 18 L131 0 L414 0 L414 18 L319 18 L319 312 L477 649 Z M280 769 L428 721 C429 720 431 720 432 720 C435 720 437 721 437 723 C437 725 436 727 431 730 L280 838 L129 730 C124 726 123 725 123 723 C123 721 125 720 128 720 C130 720 131 720 133 721 L280 769 Z " />
<glyph glyph-name="ycircumflex" unicode="&#x177;" horiz-adv-x="393" d="M237 94 L129 369 L193 369 L193 387 L0 387 L0 369 L44 369 L205 -6 L153 -161 C140 -201 136 -208 122 -208 C116 -208 112 -206 108 -200 C93 -180 84 -174 68 -174 C45 -174 27 -194 27 -221 C27 -252 49 -274 80 -274 C120 -274 147 -244 172 -170 L351 369 L393 369 L393 387 L260 387 L260 369 L327 369 L237 94 Z M217 541 L351 465 C353 464 355 463 356 463 C358 463 360 465 360 467 C360 468 359 470 354 474 L217 617 L80 474 C75 469 74 468 74 466 C74 464 76 463 78 463 C80 463 81 464 84 465 L217 541 Z " />
<glyph glyph-name="Ydieresis" unicode="&#x178;" horiz-adv-x="524" d="M183 824 C157 824 135 802 135 776 C135 749 157 727 184 727 C210 727 232 749 232 775 C232 802 211 824 183 824 L183 824 Z M384 824 C358 824 336 802 336 776 C336 749 358 727 385 727 C411 727 433 749 433 775 C433 802 412 824 384 824 L384 824 Z M477 649 L542 649 L542 667 L361 667 L361 649 L454 649 L313 353 L142 649 L226 649 L226 667 L-19 667 L-19 649 L35 649 L226 312 L226 18 L131 18 L131 0 L414 0 L414 18 L319 18 L319 312 L477 649 Z " />
<glyph glyph-name="Zacute" unicode="&#x179;" horiz-adv-x="530" d="M488 0 L505 208 L493 208 C456 53 420 14 317 18 L133 18 L506 667 L78 667 L59 464 L72 464 C104 604 139 648 220 649 L394 649 L29 24 L29 0 L488 0 Z M381 833 L252 731 C248 728 247 726 247 724 C247 721 249 719 251 719 C252 719 254 720 257 721 L478 814 C488 818 491 821 491 825 C491 830 487 833 477 833 L381 833 Z " />
<glyph glyph-name="zacute" unicode="&#x17a;" horiz-adv-x="381" d="M348 0 L350 164 L337 164 C313 41 293 19 210 18 L125 18 L356 387 L59 387 L55 238 L68 238 C99 350 116 367 200 369 L256 369 L29 0 L348 0 Z M295 613 L199 470 L198 467 C198 465 200 463 201 463 C202 463 203 463 206 466 L365 595 C369 598 372 603 372 606 C372 611 368 613 360 613 L295 613 Z " />
<glyph glyph-name="Zdotaccent" unicode="&#x17b;" horiz-adv-x="530" d="M488 0 L505 208 L493 208 C456 53 420 14 317 18 L133 18 L506 667 L78 667 L59 464 L72 464 C104 604 139 648 220 649 L394 649 L29 24 L29 0 L488 0 Z M299 826 C271 826 248 803 248 776 C248 748 271 725 299 725 C326 725 349 748 349 775 C349 804 327 826 299 826 L299 826 Z " />
<glyph glyph-name="zdotaccent" unicode="&#x17c;" horiz-adv-x="381" d="M348 0 L350 164 L337 164 C313 41 293 19 210 18 L125 18 L356 387 L59 387 L55 238 L68 238 C99 350 116 367 200 369 L256 369 L29 0 L348 0 Z M220 586 C192 586 169 563 169 536 C169 508 192 485 220 485 C247 485 270 508 270 535 C270 564 248 586 220 586 L220 586 Z " />
<glyph glyph-name="Zcaron" unicode="&#x17d;" horiz-adv-x="530" d="M300 789 L152 838 L148 838 C145 838 143 837 143 835 C143 833 144 832 149 829 L300 720 L451 829 C456 832 457 833 457 835 C457 837 455 838 452 838 L447 838 L300 789 Z M488 0 L505 208 L493 208 C456 53 420 14 317 18 L133 18 L506 667 L78 667 L59 464 L72 464 C104 604 139 648 220 649 L394 649 L29 24 L29 0 L488 0 Z " />
<glyph glyph-name="zcaron" unicode="&#x17e;" horiz-adv-x="382" d="M221 539 L87 615 C85 616 83 617 82 617 C80 617 78 615 78 613 C78 612 79 610 84 606 L221 463 L358 606 C363 611 364 612 364 614 C364 615 362 617 360 617 C359 617 357 616 355 615 L221 539 Z M348 0 L350 164 L337 164 C313 41 293 19 210 18 L125 18 L356 387 L59 387 L55 238 L68 238 C99 350 116 367 200 369 L256 369 L29 0 L348 0 Z " />
<glyph glyph-name="florin" unicode="&#x192;" horiz-adv-x="475" d="M260 302 L342 302 L345 320 L263 320 L289 459 C315 599 347 660 395 660 C406 660 412 656 412 649 C412 645 411 643 407 640 C394 628 392 623 392 611 C392 592 406 579 426 579 C451 579 469 598 469 624 C469 655 443 677 403 677 C315 677 239 574 209 413 L192 320 L109 320 L106 302 L188 302 L128 -27 C103 -164 101 -171 90 -198 C72 -242 48 -263 18 -263 C6 -263 -4 -258 -4 -251 C-4 -247 -3 -243 0 -237 C4 -228 6 -219 6 -213 C6 -196 -7 -183 -24 -183 C-44 -183 -60 -202 -60 -226 C-60 -259 -33 -280 10 -280 C59 -280 98 -254 134 -197 C168 -142 190 -72 215 59 L260 302 Z " />
<glyph glyph-name="uni01CD" unicode="&#x1cd;" horiz-adv-x="576" d="M347 214 L411 18 L321 18 L321 0 L579 0 L579 18 L507 18 L299 667 L274 667 L57 18 L-3 18 L-3 0 L165 0 L165 18 L81 18 L145 214 L347 214 Z M341 232 L152 232 L247 527 L341 232 Z M287 789 L140 838 L136 838 C132 838 131 837 131 835 C131 833 132 831 136 829 L287 720 L439 829 C443 831 444 833 444 835 C444 837 443 838 439 838 L435 838 L287 789 Z " />
<glyph glyph-name="uni01CE" unicode="&#x1ce;" horiz-adv-x="401" d="M254 215 C173 212 137 204 94 179 C60 159 38 121 38 82 C38 26 76 -10 136 -10 C190 -10 225 14 254 71 C261 14 282 -10 327 -10 C350 -10 361 -5 392 18 L384 30 C373 19 365 15 356 15 C338 15 331 27 331 57 L331 282 C331 324 322 349 301 366 C278 386 241 397 202 397 C126 397 62 352 62 299 C62 275 77 257 96 257 C116 257 130 274 130 297 C130 309 127 318 120 329 C116 335 114 340 114 343 C114 360 156 380 190 380 C233 380 254 359 254 315 L254 215 Z M254 167 C254 118 250 94 237 72 C223 46 198 30 173 30 C137 30 114 57 114 99 C114 131 127 156 153 174 C179 192 202 198 254 200 L254 167 Z M221 539 L88 615 C86 616 84 617 82 617 C80 617 78 615 78 613 C78 612 79 610 84 606 L221 463 L358 606 C363 610 364 612 364 614 C364 616 362 617 360 617 C359 617 357 616 355 615 L221 539 Z " />
<glyph glyph-name="uni01D3" unicode="&#x1d3;" horiz-adv-x="610" d="M190 649 L272 649 L272 667 L19 667 L19 649 L97 649 L97 249 C97 162 105 117 128 77 C160 21 228 -10 318 -10 C406 -10 464 21 494 84 C510 118 516 154 516 222 L516 649 L584 649 L584 667 L417 667 L417 649 L493 649 L493 222 C493 149 490 127 477 98 C452 41 404 10 341 10 C285 10 235 36 212 78 C194 109 190 136 190 205 L190 649 Z M330 789 L183 838 L179 838 C175 838 174 837 174 835 C174 833 175 832 179 829 L330 720 L482 829 C487 832 488 833 488 835 C488 837 486 838 482 838 L478 838 L330 789 Z " />
<glyph glyph-name="uni01D4" unicode="&#x1d4;" horiz-adv-x="485" d="M405 387 L268 387 L268 369 L328 369 L328 200 C328 134 321 88 307 64 C290 32 256 13 218 13 C169 13 154 38 154 117 L154 387 L17 387 L17 369 L77 369 L77 131 C77 83 81 61 93 39 C111 8 151 -10 203 -10 C260 -10 295 10 328 60 L328 0 L468 0 L468 18 L405 18 L405 387 Z M250 539 L117 615 C115 616 113 617 111 617 C109 617 108 615 108 613 C108 612 109 610 113 606 L250 463 L388 606 C391 609 393 612 393 614 C392 615 391 617 389 617 C388 617 386 616 384 615 L250 539 Z " />
<glyph glyph-name="Gcaron" unicode="&#x1e6;" horiz-adv-x="603" d="M504 667 L491 667 L459 625 C410 661 366 677 315 677 C228 677 146 624 94 533 C60 474 44 409 44 329 C44 248 60 184 95 124 C148 35 220 -10 309 -10 C381 -10 447 23 487 79 C510 112 520 144 530 212 L594 212 L594 230 L328 230 L328 212 L427 212 C426 152 424 127 417 103 C400 42 358 10 298 10 C251 10 209 33 189 70 C165 114 157 174 157 308 C157 466 167 549 192 593 C215 633 260 657 312 657 C402 657 462 595 491 471 L504 471 L504 667 Z M309 789 L162 838 L158 838 C154 838 153 837 153 835 C153 833 154 831 158 829 L309 720 L461 829 C464 831 466 833 466 835 C466 837 465 838 461 838 L457 838 L309 789 Z " />
<glyph glyph-name="gcaron" unicode="&#x1e7;" horiz-adv-x="415" d="M128 18 C85 18 61 31 61 54 C61 78 82 102 131 133 C157 121 175 117 201 117 C284 117 345 176 345 257 C345 290 337 313 316 343 C328 356 336 361 344 361 C351 361 356 356 357 349 C361 325 368 315 385 315 C402 315 414 329 414 351 C414 376 398 391 372 391 C350 391 334 383 304 353 C270 386 243 397 200 397 C115 397 55 339 55 258 C55 210 72 178 114 144 C108 138 108 138 82 120 C46 95 25 58 25 19 C25 -26 49 -55 99 -69 C45 -93 25 -117 25 -157 C25 -224 97 -274 193 -274 C311 -274 390 -199 390 -86 C390 -42 376 -10 350 5 C332 15 314 18 269 18 L128 18 Z M262 228 C262 157 248 137 200 137 C150 137 137 156 137 228 L137 288 C137 354 153 377 200 377 C226 377 246 369 254 354 C260 342 262 329 262 293 L262 228 Z M125 -70 L161 -70 L280 -70 C341 -70 341 -70 355 -77 C365 -83 372 -97 372 -113 C372 -191 295 -254 200 -254 C121 -254 69 -212 69 -148 C69 -118 79 -96 105 -70 L125 -70 Z M211 539 L77 615 C75 616 73 617 72 617 C70 617 68 615 68 613 C68 612 69 610 74 606 L211 463 L348 606 C351 609 353 612 353 614 C353 615 351 617 349 617 C348 617 347 616 344 615 L211 539 Z " />
<glyph glyph-name="Scommaaccent" unicode="&#x218;" horiz-adv-x="477" d="M395 676 L383 676 L353 633 C312 663 274 677 231 677 C133 677 58 592 58 479 C58 389 100 337 195 310 L268 290 C350 267 383 228 383 157 C383 70 327 10 245 10 C186 10 131 44 97 100 C80 129 73 154 65 207 L46 207 L52 0 L65 0 L99 56 C148 8 187 -10 244 -10 C291 -10 331 5 362 34 C404 73 431 143 431 216 C431 322 385 381 281 409 L230 423 C139 447 105 478 105 535 C105 604 159 657 230 657 C310 657 364 602 378 503 L397 503 L395 676 Z M216 -276 C277 -230 305 -188 305 -140 C305 -92 271 -54 228 -54 C194 -54 170 -78 170 -111 C170 -141 188 -161 214 -161 C237 -161 254 -143 254 -118 C254 -115 254 -110 253 -105 C273 -115 282 -130 282 -153 C282 -187 261 -216 204 -264 L216 -276 Z " />
<glyph glyph-name="scommaaccent" unicode="&#x219;" horiz-adv-x="338" d="M285 395 L272 395 L259 359 C226 386 200 397 167 397 C100 397 53 347 53 278 C53 217 85 175 141 164 L215 148 C254 140 274 119 274 88 C274 45 236 10 188 10 C148 10 114 31 90 71 C78 92 72 109 65 148 L49 148 L49 0 L59 0 L80 38 C120 2 146 -10 185 -10 C256 -10 305 45 305 123 C305 193 271 232 197 248 L155 257 C102 268 83 281 83 307 C83 346 118 377 163 377 C218 377 258 341 269 280 L285 280 L285 395 Z M155 -260 C214 -218 241 -178 241 -133 C241 -89 208 -54 166 -54 C132 -54 108 -77 108 -109 C108 -137 126 -156 152 -156 C175 -156 192 -139 192 -115 C192 -112 192 -107 191 -103 C209 -112 218 -126 218 -146 C218 -178 198 -205 143 -248 L155 -260 Z " />
<glyph glyph-name="uni021A" unicode="&#x21a;" horiz-adv-x="554" d="M541 459 L528 667 L20 667 L13 459 L25 457 C41 536 54 568 87 612 C111 641 130 648 187 649 L232 649 L232 18 L137 18 L137 0 L415 0 L415 18 L325 18 L325 649 L371 649 C455 648 491 604 528 457 L541 459 Z M261 -276 C322 -230 350 -188 350 -140 C350 -92 316 -54 273 -54 C239 -54 215 -78 215 -111 C215 -141 233 -161 259 -161 C282 -161 299 -143 299 -118 C299 -115 299 -110 298 -105 C318 -115 327 -130 327 -153 C327 -187 306 -216 249 -264 L261 -276 Z " />
<glyph glyph-name="uni021B" unicode="&#x21b;" horiz-adv-x="274" d="M154 369 L255 369 L255 387 L154 387 L154 546 L144 546 C125 479 67 404 19 384 L19 369 L77 369 L77 107 C77 67 79 51 89 33 C105 6 136 -10 175 -10 C232 -10 264 17 275 74 L256 74 C248 36 231 20 202 20 C168 20 154 40 154 85 L154 369 Z M169 -103 C187 -112 196 -126 196 -146 C196 -178 175 -205 121 -248 L133 -260 C192 -218 219 -178 219 -133 C219 -89 186 -54 144 -54 C110 -54 86 -77 86 -109 C86 -137 103 -156 129 -156 C153 -156 170 -139 170 -115 L169 -103 Z " />
<glyph glyph-name="circumflex" unicode="&#x2c6;" horiz-adv-x="489" d="M245 541 L378 465 C380 464 382 463 383 463 C385 463 387 465 387 467 C387 468 385 471 382 474 L245 617 L107 474 C103 470 102 468 102 466 C102 465 104 463 106 463 C107 463 109 464 111 465 L245 541 Z " />
<glyph glyph-name="caron" unicode="&#x2c7;" horiz-adv-x="489" d="M245 539 L111 615 C109 616 107 617 106 617 C104 617 102 615 102 613 C102 612 104 609 107 606 L245 463 L382 606 C386 609 387 612 387 614 C387 615 385 617 383 617 C382 617 380 616 378 615 L245 539 Z " />
<glyph glyph-name="uni02C9" unicode="&#x2c9;" horiz-adv-x="489" d="M381 499 L381 523 L108 523 L108 499 L381 499 Z " />
<glyph glyph-name="breve" unicode="&#x2d8;" horiz-adv-x="488" d="M364 610 C356 581 350 568 338 554 C319 534 283 521 243 521 C204 521 168 534 150 554 C137 567 131 580 123 610 L112 610 C123 524 175 467 244 467 C312 467 364 523 375 610 L364 610 Z " />
<glyph glyph-name="dotaccent" unicode="&#x2d9;" horiz-adv-x="480" d="M240 586 C212 586 189 563 189 536 C189 508 212 485 240 485 C267 485 290 508 290 535 C290 564 268 586 240 586 L240 586 Z " />
<glyph glyph-name="ring" unicode="&#x2da;" horiz-adv-x="483" d="M241 615 C199 615 166 581 166 538 C166 496 199 463 242 463 C284 463 317 496 317 537 C317 581 284 615 241 615 L241 615 Z M242 588 C267 588 289 565 289 539 C289 513 267 490 241 490 C216 490 194 513 194 539 C194 566 216 588 242 588 L242 588 Z " />
<glyph glyph-name="ogonek" unicode="&#x2db;" horiz-adv-x="475" d="M361 0 C300 -26 272 -56 272 -94 C272 -134 301 -159 348 -159 C375 -159 396 -153 422 -138 L422 -124 C403 -132 392 -134 377 -134 C342 -134 325 -118 325 -86 C325 -52 343 -27 386 0 L361 0 Z " />
<glyph glyph-name="tilde" unicode="&#x2dc;" horiz-adv-x="490" d="M385 572 C369 550 353 542 327 542 C309 542 298 544 283 549 L244 563 C223 570 211 573 195 573 C148 573 123 554 95 499 L104 493 C120 515 138 524 164 524 C180 524 197 521 214 515 L252 502 C271 495 288 492 301 492 C336 492 363 515 394 567 L385 572 Z " />
<glyph glyph-name="hungarumlaut" unicode="&#x2dd;" horiz-adv-x="483" d="M369 613 L274 470 C273 469 272 467 272 466 C272 465 273 463 275 463 C276 463 279 464 281 466 L432 595 C437 599 440 603 440 606 C440 611 436 613 428 613 L369 613 Z M239 613 L143 470 L142 466 C142 465 143 463 145 463 C146 463 149 464 151 466 L302 595 C307 599 310 603 310 606 C310 611 306 613 298 613 L239 613 Z " />
<glyph glyph-name="Wdieresis" unicode="&#x1e84;" horiz-adv-x="745" d="M534 143 L432 431 L506 649 L559 649 L559 667 L-10 667 L-10 649 L46 649 L267 -10 L284 -10 L389 292 L491 -10 L508 -10 L705 649 L757 649 L757 667 L598 667 L598 649 L684 649 L534 143 Z M142 649 L265 649 L377 325 L312 135 L142 649 Z M355 649 L487 649 L422 467 L355 649 Z M299 824 C272 824 250 802 250 776 C250 749 272 727 299 727 C325 727 347 749 347 775 C347 802 326 824 299 824 L299 824 Z M499 824 C473 824 451 802 451 776 C451 749 473 727 500 727 C526 727 548 749 548 775 C548 802 527 824 499 824 L499 824 Z " />
<glyph glyph-name="uni2011" unicode="&#x2011;" horiz-adv-x="179" d="M179 230 L0 230 L0 170 L179 170 L179 230 Z " />
<glyph glyph-name="figuredash" unicode="&#x2012;" horiz-adv-x="475" d="M436 230 L40 230 L40 170 L436 170 L436 230 Z " />
<glyph glyph-name="endash" unicode="&#x2013;" horiz-adv-x="475" d="M436 230 L40 230 L40 170 L436 170 L436 230 Z " />
<glyph glyph-name="emdash" unicode="&#x2014;" horiz-adv-x="538" d="M538 230 L0 230 L0 170 L538 170 L538 230 Z " />
<glyph glyph-name="afii00208" unicode="&#x2015;" horiz-adv-x="538" d="M538 230 L0 230 L0 170 L538 170 L538 230 Z " />
<glyph glyph-name="quoteleft" unicode="&#x2018;" horiz-adv-x="246" d="M143 687 C83 634 51 578 51 523 C51 466 87 423 134 423 C170 423 195 449 195 487 C195 520 177 542 149 542 C125 542 107 522 107 494 C107 491 107 485 108 479 C84 491 74 509 74 537 C74 578 97 618 155 675 L143 687 Z " />
<glyph glyph-name="quoteright" unicode="&#x2019;" horiz-adv-x="246" d="M104 413 C164 466 195 522 195 577 C195 634 159 677 112 677 C76 677 51 651 51 613 C51 580 69 558 97 558 C121 558 139 578 139 606 C139 611 139 615 138 621 C162 609 172 591 172 563 C172 521 149 483 91 425 L104 413 Z " />
<glyph glyph-name="quotesinglbase" unicode="&#x201a;" horiz-adv-x="238" d="M101 -152 C160 -96 188 -44 188 13 C188 69 154 112 109 112 C75 112 51 86 51 48 C51 15 69 -7 95 -7 C118 -7 135 13 135 41 C135 44 135 50 134 56 C156 43 165 26 165 -2 C165 -44 144 -82 89 -140 L101 -152 Z " />
<glyph glyph-name="quotedblleft" unicode="&#x201c;" horiz-adv-x="448" d="M310 479 C287 491 276 509 276 537 C276 579 299 618 357 675 L345 687 C285 634 253 578 253 523 C253 466 289 423 336 423 C372 423 398 449 398 487 C398 520 380 542 352 542 C328 542 310 522 310 494 L310 479 Z M143 687 C83 634 51 578 51 523 C51 466 87 423 134 423 C170 423 195 449 195 487 C195 520 177 542 149 542 C125 542 107 522 107 494 C107 491 107 485 108 479 C84 491 74 509 74 537 C74 578 97 618 155 675 L143 687 Z " />
<glyph glyph-name="quotedblright" unicode="&#x201d;" horiz-adv-x="448" d="M104 413 C164 466 195 522 195 577 C195 634 159 677 112 677 C76 677 51 651 51 613 C51 580 69 558 97 558 C121 558 139 578 139 606 C139 611 139 615 138 621 C162 609 172 591 172 563 C172 521 149 483 91 425 L104 413 Z M341 621 C364 609 375 591 375 563 C375 522 352 482 293 425 L306 413 C366 466 398 522 398 577 C398 634 362 677 315 677 C279 677 253 651 253 613 C253 580 271 558 299 558 C323 558 341 578 341 606 L341 621 Z " />
<glyph glyph-name="quotedblbase" unicode="&#x201e;" horiz-adv-x="441" d="M101 -152 C160 -96 188 -44 188 13 C188 69 154 112 109 112 C75 112 51 86 51 48 C51 15 69 -7 95 -7 C118 -7 135 13 135 41 C135 44 135 50 134 56 C156 43 165 26 165 -2 C165 -44 144 -82 89 -140 L101 -152 Z M303 -152 C360 -99 390 -42 390 12 C390 69 356 112 311 112 C277 112 253 86 253 48 C253 15 270 -7 297 -7 C320 -7 337 13 337 41 C337 45 337 50 336 56 C358 43 367 26 367 -2 C367 -44 346 -82 291 -140 L303 -152 Z " />
<glyph glyph-name="dagger" unicode="&#x2020;" horiz-adv-x="475" d="M245 376 L405 339 C411 337 414 337 422 337 C453 337 474 356 474 383 C474 410 453 429 422 429 C415 429 410 428 405 427 L245 388 L275 531 C280 556 283 584 283 608 C283 654 268 677 237 677 C207 677 192 654 192 608 C192 584 195 556 200 531 L230 388 L70 427 C65 428 60 429 53 429 C22 429 1 410 1 383 C1 356 22 337 53 337 C62 337 65 337 70 339 L230 376 L198 17 C190 -52 190 -57 190 -91 C190 -130 193 -149 203 -166 C211 -181 225 -190 238 -190 C250 -190 264 -181 272 -166 C282 -149 285 -131 285 -93 C285 -55 285 -52 277 17 L245 376 Z " />
<glyph glyph-name="daggerdbl" unicode="&#x2021;" horiz-adv-x="475" d="M230 407 L70 446 C65 448 62 448 53 448 C23 448 1 429 1 402 C1 375 22 356 53 356 C59 356 65 357 70 358 L230 395 C229 355 220 311 204 255 C214 210 216 198 230 109 L70 148 C65 149 59 150 53 150 C22 150 1 131 1 103 C1 76 24 56 53 57 C58 57 64 58 70 59 L230 96 L203 -43 C192 -103 192 -103 192 -124 C192 -167 208 -190 238 -190 C267 -190 283 -167 283 -125 C283 -105 282 -97 272 -43 L245 96 L405 59 C411 58 417 57 422 57 C451 56 474 76 474 104 C474 131 453 150 422 150 C416 150 410 149 405 148 L246 109 L246 113 L251 146 L259 190 L262 209 C265 225 267 235 272 255 C258 300 250 342 245 395 L405 358 C410 357 416 356 422 356 C453 356 474 375 474 402 C474 429 452 448 422 448 C413 448 410 448 405 446 L245 407 L272 531 C278 561 283 597 283 615 C283 654 266 677 238 677 C209 677 192 654 192 615 C192 597 197 562 203 531 L230 407 Z " />
<glyph glyph-name="bullet" unicode="&#x2022;" horiz-adv-x="633" d="M318 480 C244 480 186 418 186 340 C186 262 244 200 317 200 C389 200 447 262 447 340 C447 417 389 480 318 480 L318 480 Z " />
<glyph glyph-name="ellipsis" unicode="&#x2026;" horiz-adv-x="703" d="M117 106 C87 106 63 80 63 49 C63 18 87 -7 117 -7 C147 -7 171 18 171 49 C171 81 147 106 117 106 L117 106 Z M351 106 C321 106 297 80 297 49 C297 18 321 -7 351 -7 C381 -7 405 18 405 49 C405 81 381 106 351 106 L351 106 Z M586 106 C556 106 532 80 532 49 C532 18 556 -7 586 -7 C616 -7 640 18 640 49 C640 81 616 106 586 106 L586 106 Z " />
<glyph glyph-name="perthousand" unicode="&#x2030;" horiz-adv-x="957" d="M158 653 C87 653 27 576 27 487 C27 397 87 320 158 320 C226 320 288 397 288 483 C288 576 229 653 158 653 L158 653 Z M219 451 C219 367 203 338 158 338 C112 338 96 367 96 451 L96 521 C96 606 112 635 158 635 C203 635 219 606 219 521 L219 451 Z M483 647 L455 647 L170 0 L198 0 L483 647 Z M498 327 C428 327 369 250 369 160 C369 71 428 -6 498 -6 C565 -6 626 71 626 157 C626 250 568 327 498 327 L498 327 Z M557 126 C557 41 542 12 498 12 C453 12 438 41 438 126 L438 196 C438 280 453 309 498 309 C542 309 557 280 557 196 L557 126 Z M800 327 C730 327 670 250 670 161 C670 71 730 -6 800 -6 C868 -6 930 71 930 157 C930 249 871 327 800 327 L800 327 Z M861 126 C861 41 845 12 800 12 C754 12 739 41 739 126 L739 196 C739 280 754 309 800 309 C845 309 861 280 861 196 L861 126 Z " />
<glyph glyph-name="guilsinglleft" unicode="&#x2039;" horiz-adv-x="248" d="M44 200 L150 96 L197 96 L92 200 L197 304 L150 304 L44 200 Z " />
<glyph glyph-name="guilsinglright" unicode="&#x203a;" horiz-adv-x="248" d="M204 200 L99 304 L51 304 L156 200 L51 96 L99 96 L204 200 Z " />
<glyph glyph-name="uni203E" unicode="&#x203e;" horiz-adv-x="500" d="M0 847 L0 807 L500 807 L500 847 L0 847 Z " />
<glyph glyph-name="fraction" unicode="&#x2044;" horiz-adv-x="108" d="M212 647 L180 647 L-105 0 L-73 0 L212 647 Z " />
<glyph glyph-name="franc" unicode="&#x20a3;" horiz-adv-x="688" d="M483 667 L32 667 L32 649 L114 649 L114 18 L32 18 L32 0 L291 0 L291 18 L207 18 L207 329 L261 329 C337 329 362 305 367 227 L367 205 L380 205 L380 475 L367 475 L367 457 C362 362 347 347 262 347 L207 347 L207 649 L310 649 C383 648 413 636 438 600 C464 564 475 530 483 475 L496 475 L483 667 Z M550 357 L410 357 L410 339 L473 339 L473 18 L410 18 L410 0 L613 0 L613 18 L550 18 L550 105 C550 190 556 232 576 280 C589 313 604 330 619 330 C628 330 632 325 632 314 C633 281 645 264 665 264 C686 264 701 284 701 312 C701 346 681 367 649 367 C605 367 579 338 550 257 L550 357 Z " />
<glyph glyph-name="Euro" unicode="&#x20ac;" horiz-adv-x="608" d="M97 350 C96 340 96 337 96 328 C96 325 96 322 97 317 L52 317 L40 287 L98 287 C111 122 230 -10 366 -10 C419 -10 463 7 524 50 L555 0 L568 0 L568 185 L555 185 C533 123 518 95 490 63 C460 30 415 10 369 10 C305 10 251 46 228 103 C216 134 209 196 209 287 L414 287 L426 317 L210 317 L210 340 L210 350 L440 350 L452 380 L211 380 L211 403 C213 474 216 511 225 544 C244 616 298 657 374 657 C425 657 470 637 504 599 C530 570 542 545 555 494 L568 494 L568 667 L555 667 L524 617 C470 660 428 677 373 677 C269 677 174 607 127 494 C113 459 105 427 99 380 L52 380 L40 350 L97 350 Z " />
<glyph glyph-name="trademark" unicode="&#x2122;" horiz-adv-x="777" d="M330 544 L322 667 L20 667 L16 544 L30 542 C47 623 71 652 120 649 L143 649 L143 305 L88 305 L88 287 L257 287 L257 305 L205 305 L205 649 L228 649 C274 649 294 625 316 542 L330 544 Z M513 287 L529 287 L629 625 L629 305 L584 305 L584 287 L739 287 L739 305 L691 305 L691 649 L739 649 L739 667 L623 667 L543 397 L460 667 L343 667 L343 649 L387 649 L387 305 L343 305 L343 287 L456 287 L456 305 L409 305 L409 628 L513 287 Z " />
<glyph glyph-name="uni2126" unicode="&#x2126;" horiz-adv-x="768" d="M326 0 L308 155 C230 199 180 288 180 382 C180 434 195 493 221 540 C257 605 317 642 385 642 C453 642 513 605 549 540 C575 493 590 434 590 382 C590 288 540 199 462 155 L444 0 L736 0 L736 153 L712 153 C704 108 684 90 643 90 L497 90 L500 128 C535 141 557 151 580 166 C657 215 702 296 702 382 C702 449 673 522 625 578 C564 648 480 686 385 686 C290 686 206 648 145 578 C97 522 68 449 68 382 C68 296 113 215 190 166 C213 151 235 141 270 128 L273 90 L127 90 C86 90 66 108 58 153 L34 153 L34 0 L326 0 Z " />
<glyph glyph-name="partialdiff" unicode="&#x2202;" horiz-adv-x="494" d="M107 674 C151 697 184 706 219 706 C321 706 379 611 379 448 C379 418 377 395 372 346 C308 396 272 412 221 412 C172 412 131 394 95 355 C51 309 26 246 26 184 C26 76 109 -10 213 -10 C282 -10 341 22 383 84 C429 152 462 286 462 403 C462 519 428 611 360 681 C312 730 259 753 195 753 C156 753 121 746 66 725 L107 674 Z M366 312 C350 201 340 158 314 107 C288 54 245 21 201 21 C146 21 113 73 113 159 C113 273 180 367 261 367 C299 367 324 354 366 312 L366 312 Z " />
<glyph glyph-name="Delta" unicode="&#x2206;" horiz-adv-x="612" d="M6 0 L608 0 L327 688 L6 0 Z M77 51 L290 509 L479 51 L77 51 Z " />
<glyph glyph-name="product" unicode="&#x220f;" horiz-adv-x="823" d="M25 -124 L315 -124 L315 -98 L312 -98 C242 -94 221 -67 224 18 L224 594 C224 656 228 677 242 690 C260 707 272 708 413 708 C556 708 568 707 586 690 C600 677 604 656 604 594 L604 18 C607 -67 586 -94 516 -98 L513 -98 L513 -124 L803 -124 L803 -98 L800 -98 C730 -94 709 -67 712 18 L712 609 C709 694 730 721 800 725 L803 725 L803 751 L25 751 L25 725 L28 725 C98 721 119 694 116 609 L116 18 C119 -67 98 -94 28 -98 L25 -98 L25 -124 Z " />
<glyph glyph-name="summation" unicode="&#x2211;" horiz-adv-x="713" d="M176 711 L444 711 C560 710 590 688 606 587 L632 587 L622 752 L23 752 L256 285 L14 -123 L641 -123 L695 87 L669 87 C639 7 605 -12 491 -11 L163 -11 L364 341 L176 711 Z " />
<glyph glyph-name="minus" unicode="&#x2212;" horiz-adv-x="475" d="M427 339 L49 339 L49 309 L427 309 L427 339 Z " />
<glyph glyph-name="uni2215" unicode="&#x2215;" horiz-adv-x="108" d="M212 647 L180 647 L-105 0 L-73 0 L212 647 Z " />
<glyph glyph-name="uni2219" unicode="&#x2219;" horiz-adv-x="234" d="M117 256 C87 256 63 231 63 200 C63 168 87 143 117 143 C147 143 171 168 171 199 C171 231 147 256 117 256 L117 256 Z " />
<glyph glyph-name="radical" unicode="&#x221a;" horiz-adv-x="549" d="M363 -35 L515 908 L480 913 L353 123 L156 520 L10 449 L26 414 L121 461 L363 -35 Z " />
<glyph glyph-name="infinity" unicode="&#x221e;" horiz-adv-x="713" d="M357 227 C415 156 485 115 548 115 C631 115 688 176 688 266 C688 354 629 414 543 414 C476 414 412 376 357 303 C300 375 234 414 171 414 C86 414 26 351 26 263 C26 176 84 115 167 115 C224 115 281 142 327 192 L357 227 Z M391 264 C434 325 493 362 546 362 C600 362 638 321 638 264 C638 205 603 167 549 167 C495 167 461 188 391 264 L391 264 Z M324 266 C275 203 216 167 163 167 C111 167 76 207 76 266 C76 323 113 362 167 362 C218 362 258 337 324 266 L324 266 Z " />
<glyph glyph-name="integral" unicode="&#x222b;" horiz-adv-x="274" d="M180 576 C180 653 179 691 176 746 C174 774 173 800 173 815 C173 855 184 878 202 878 C208 878 213 876 215 872 C232 845 239 839 256 839 C276 839 291 853 291 871 C291 898 267 916 231 916 C186 916 152 887 138 838 C123 784 113 682 113 577 L113 232 C113 160 114 124 117 63 C119 34 120 4 120 -12 C120 -47 108 -70 89 -70 C81 -70 74 -65 68 -52 C59 -35 51 -30 37 -30 C17 -30 2 -44 2 -63 C2 -89 26 -107 62 -107 C107 -107 141 -78 155 -29 C170 25 180 126 180 232 L180 576 Z " />
<glyph glyph-name="approxequal" unicode="&#x2248;" horiz-adv-x="549" d="M489 251 C444 199 423 187 384 187 C365 187 354 190 285 211 C212 234 188 239 160 239 C101 239 54 211 14 155 L57 121 C103 174 120 184 159 184 C180 184 180 184 271 157 C350 133 354 132 385 132 C449 132 496 160 527 217 L489 251 Z M489 408 C444 356 423 344 384 344 C365 344 354 347 285 369 C212 392 188 397 160 397 C101 397 54 369 14 312 L57 279 C104 332 119 342 159 342 C181 342 181 342 271 315 C351 290 354 289 385 289 C449 289 496 318 527 375 L489 408 Z " />
<glyph glyph-name="notequal" unicode="&#x2260;" horiz-adv-x="549" d="M187 142 L115 -1 L161 -25 L246 142 L540 142 L540 197 L273 197 L344 336 L540 336 L540 391 L371 391 L439 525 L392 549 L312 391 L15 391 L15 336 L285 336 L215 197 L15 197 L15 142 L187 142 Z " />
<glyph glyph-name="lessequal" unicode="&#x2264;" horiz-adv-x="549" d="M526 55 L29 55 L29 0 L526 0 L526 55 Z M526 639 L29 405 L29 350 L526 117 L526 179 L108 378 L526 577 L526 639 Z " />
<glyph glyph-name="greaterequal" unicode="&#x2265;" horiz-adv-x="549" d="M526 55 L29 55 L29 0 L526 0 L526 55 Z M29 639 L29 577 L447 378 L29 179 L29 117 L526 350 L526 405 L29 639 Z " />
<glyph glyph-name="lozenge" unicode="&#x25ca;" horiz-adv-x="494" d="M209 0 L269 -1 L466 374 L277 740 L214 740 L18 377 L209 0 Z M240 58 L81 376 L245 683 L402 373 L240 58 Z " />
<glyph glyph-name="fi" unicode="&#xfb01;" horiz-adv-x="495" d="M175 387 L175 540 C175 623 208 663 278 663 C306 663 328 657 348 644 C334 630 328 616 328 596 C328 566 349 544 377 544 C404 544 424 565 424 594 C424 644 364 682 285 682 C213 682 151 650 121 597 C105 570 98 538 98 495 L98 387 L15 387 L15 369 L98 369 L98 18 L15 18 L15 0 L234 0 L234 18 L175 18 L175 369 L338 369 L338 18 L279 18 L279 0 L478 0 L478 18 L415 18 L415 387 L175 387 Z " />
<glyph glyph-name="fl" unicode="&#xfb02;" horiz-adv-x="495" d="M415 18 L415 680 L338 671 C313 679 295 682 272 682 C164 682 98 611 98 495 L98 387 L15 387 L15 369 L98 369 L98 18 L15 18 L15 0 L234 0 L234 18 L175 18 L175 369 L261 369 L261 387 L175 387 L175 540 C175 622 205 663 265 663 C292 663 316 651 326 632 C336 614 338 599 338 549 L338 18 L279 18 L279 0 L488 0 L488 18 L415 18 Z " />
</font>
</svg>
