<?xml version="1.0" standalone="no"?>
<!DOCTYPE svg PUBLIC "-//W3C//DTD SVG 1.1//EN" "http://www.w3.org/Graphics/SVG/1.1/DTD/svg11.dtd" >
<svg xmlns="http://www.w3.org/2000/svg">
<metadata>
Created by FontPrep 20130207 at Wed Sep 28 15:16:40 2016
 By Tina Muller
Copyright (c) 2016 by Typetype. Designers Ivan Gladkikh &#38; Olexa Volochay. All rights reserved.
</metadata>
<defs>
<font id="baee58c9b7dd6112e4ec7961b31759ae" horiz-adv-x='1024' >
  <font-face 
    font-family="TTCorals-Thin"
    font-weight="250"
    font-stretch="normal"
    units-per-em="2048"
    panose-1="2 0 5 6 2 0 0 2 0 3"
    ascent="1638"
    descent="-410"
    x-height="983"
    cap-height="1434"
    bbox="-41 -389 2314 1904"
    underline-thickness="102"
    underline-position="-102"
    unicode-range="U+000D-F6D4"
  />
<missing-glyph horiz-adv-x="0" 
 />
    <glyph glyph-name=".notdef" horiz-adv-x="0" 
 />
    <glyph glyph-name=".null" horiz-adv-x="0" 
 />
    <glyph glyph-name=".null" horiz-adv-x="0" 
 />
    <glyph glyph-name="nonmarkingreturn" horiz-adv-x="681" 
 />
    <glyph glyph-name="CR" unicode="&#xd;" horiz-adv-x="0" 
 />
    <glyph glyph-name="space" unicode=" " horiz-adv-x="327" 
 />
    <glyph glyph-name="exclam" unicode="!" horiz-adv-x="532" 
d="M246 369v1065h41v-1065h-41zM225 0v82h82v-82h-82z" />
    <glyph glyph-name="quotedbl" unicode="&#x22;" horiz-adv-x="593" 
d="M389 942v512h41v-512h-41zM164 942v512h41v-512h-41z" />
    <glyph glyph-name="numbersign" unicode="#" horiz-adv-x="1085" 
d="M440 942l-102 -450h307l103 450h-308zM82 451v41h215l102 450h-215v41h224l104 451h41l-102 -451h305l104 451h41l-102 -451h205v-41h-216l-102 -450h215v-41h-225l-103 -451h-41l103 451h-307l-103 -451h-41l103 451h-205z" />
    <glyph glyph-name="dollar" unicode="$" horiz-adv-x="1024" 
d="M492 -266v246q-72 2 -139 30t-109 68q-96 88 -125 141l-17 27l31 20q96 -159 245 -219q65 -27 134 -27q154 0 251 96t97 242q0 111 -69 188q-70 77 -169 123q-98 46 -198 90t-170 118q-70 75 -70 195t84 206t224 94v246h40v-246q123 -4 200 -72t108 -120l10 -23l-31 -20
q-4 8 -10 21t-33 46t-58 59q-32 25 -87 47t-119 21q-129 0 -208 -77t-79 -184t70 -173t169 -109q98 -43 198 -90t170 -133t69 -207q0 -160 -103 -265t-266 -113v-246h-40z" />
    <glyph glyph-name="percent" unicode="%" horiz-adv-x="1290" 
d="M1147 317q0 145 -56 221q-57 76 -139 76t-138 -76t-56 -220q0 -146 56 -222t138 -76t139 76q56 76 56 221zM1188 317q0 -161 -69 -249t-167 -88t-167 89t-69 249t69 248q69 89 167 89t167 -89t69 -249zM215 0l809 1434h51l-809 -1434h-51zM143 1116q1 -145 57 -221
t138 -76t138 76t56 221t-56 221t-138 76t-138 -76t-57 -221zM102 1116q0 160 69 249t167 89t167 -89t69 -249t-70 -249q-68 -89 -166 -89t-167 89t-69 249z" />
    <glyph glyph-name="ampersand" unicode="&#x26;" horiz-adv-x="1177" 
d="M328 1106q0 -59 32 -131t66 -115l35 -41q28 14 70 46q145 109 145 281q0 78 -48 132t-127 53q-79 0 -126 -57t-47 -168zM164 369q0 -154 99 -251t259 -98q162 0 280 159q26 36 38 63l10 24l-399 502q-33 -11 -91 -53q-59 -43 -97 -86q-39 -43 -69 -113t-30 -147z
M717 1132q1 -106 -59 -190t-117 -119l-60 -35l389 -481q28 56 50 193t22 278h41q0 -150 -20 -278t-41 -181l-21 -53l215 -266h-51l-184 225q-12 -30 -48 -78q-37 -49 -75 -81t-100 -60q-64 -27 -136 -26q-176 0 -288 110t-111 279q0 85 32 159t76 121q96 100 166 133l33 17
q-53 53 -98 146t-45 161q0 127 59 197q58 69 154 69t156 -66q60 -68 61 -174z" />
    <glyph glyph-name="quotesingle" unicode="'" horiz-adv-x="368" 
d="M164 942v512h41v-512h-41z" />
    <glyph glyph-name="parenleft" unicode="(" horiz-adv-x="665" 
d="M563 1597v-41q-317 0 -317 -840t317 -839v-41q-358 0 -358 880t358 881z" />
    <glyph glyph-name="parenright" unicode=")" horiz-adv-x="665" 
d="M102 1556v41q358 -1 358 -881t-358 -880v41q317 -1 317 839t-317 840z" />
    <glyph glyph-name="asterisk" unicode="*" horiz-adv-x="798" 
d="M420 1434v-297l287 92l10 -41l-287 -92l195 -256l-41 -21l-185 246l-184 -246l-41 21l195 256l-287 92l10 41l287 -92v297h41z" />
    <glyph glyph-name="plus" unicode="+" horiz-adv-x="716" 
d="M82 676v41h256v276h41v-276h256v-41h-256v-277h-41v277h-256z" />
    <glyph glyph-name="comma" unicode="," horiz-adv-x="327" 
d="M164 0h-41v82h82v-62q-1 -40 -19 -66t-34 -32l-19 -4l-10 21q41 10 41 61z" />
    <glyph glyph-name="hyphen" unicode="-" horiz-adv-x="593" 
d="M82 676v41h430v-41h-430z" />
    <glyph glyph-name="period" unicode="." horiz-adv-x="327" 
d="M123 0v82h82v-82h-82z" />
    <glyph glyph-name="slash" unicode="/" horiz-adv-x="634" 
d="M82 -266l430 1720h41l-430 -1720h-41z" />
    <glyph glyph-name="zero" unicode="0" horiz-adv-x="1146" 
d="M143 676q0 330 130 513t300 183t300 -183q131 -183 131 -513t-130 -513t-301 -183q-170 0 -300 183t-130 513zM184 676q0 -316 118 -486t272 -170t271 170q118 170 118 486t-118 485q-118 170 -272 170q-153 0 -271 -170t-118 -485z" />
    <glyph glyph-name="one" unicode="1" horiz-adv-x="583" 
d="M143 1178q19 0 55 12t60 30t41 52q18 35 18 80h41v-1352h-41v1208h-10q-72 -72 -164 -71v41z" />
    <glyph glyph-name="two" unicode="2" horiz-adv-x="1064" 
d="M922 973q0 -223 -116 -378q-62 -83 -124 -144t-170 -154l-287 -246v-10h666v-41h-748v41l328 276q105 87 163 145q174 171 218 314q29 90 29 197q-1 154 -103 256t-255 102t-256 -99t-103 -239q0 -78 29 -141t57 -90l26 -25l-20 -30q-14 10 -37 30q-23 19 -59 95t-37 161
q0 156 116 268q117 111 285 111t283 -114t115 -285z" />
    <glyph glyph-name="three" unicode="3" horiz-adv-x="1044" 
d="M205 1044q0 -67 31 -133l-31 -20q-41 61 -41 153q0 140 96 234t242 94t241 -94q97 -94 97 -230t-80 -218q-71 -69 -121 -80l-25 -9v-8q32 -5 91 -39t97 -70t68 -104t31 -151q0 -162 -116 -276t-283 -113q-84 0 -155 28t-111 66q-81 80 -105 143l-8 29l41 10q5 -24 37 -73
q33 -50 67 -81q34 -30 96 -56q64 -26 138 -26q154 0 256 100t102 248t-102 248t-256 101h-92v41h92q129 0 213 82t84 204q0 123 -84 205t-213 82t-213 -82t-84 -205z" />
    <glyph glyph-name="four" unicode="4" horiz-adv-x="983" 
d="M133 410h522v850h-10l-512 -840v-10zM696 1352v-942h226v-41h-226v-369h-41v369h-573v41l573 942h41z" />
    <glyph glyph-name="five" unicode="5" horiz-adv-x="1013" 
d="M512 799q-204 0 -307 -164h-41l72 717h552v-41h-512l-61 -584h10q12 13 34 31q23 18 97 50t156 32q172 0 286 -120t114 -310t-114 -311q-114 -120 -286 -119q-84 0 -155 28t-111 66q-85 84 -103 143l-10 29l41 10q5 -24 37 -73q33 -50 67 -81q34 -30 97 -56t137 -26
q156 0 257 108t101 282t-101 282t-257 107z" />
    <glyph glyph-name="six" unicode="6" horiz-adv-x="1064" 
d="M543 840q-158 0 -258 -111q-101 -111 -101 -299t100 -299t259 -111q158 0 258 111t100 299t-100 299t-258 111zM573 1331q-153 0 -271 -172t-118 -493h11l11 22q7 14 35 52t63 66q36 28 100 52t139 23q171 0 285 -124t114 -327t-114 -327q-114 -123 -290 -123t-286 122
q-109 122 -109 349v225q0 330 130 513t300 183q139 0 249 -119q26 -27 38 -45l10 -20l-30 -21l-12 18q-58 91 -159 129q-46 17 -96 17z" />
    <glyph glyph-name="seven" unicode="7" 
d="M809 1311h-686v-267h-41v308h778v-41q-263 -379 -390 -890q-52 -214 -60 -421h-41q20 511 294 1050q62 124 103 187l43 63v11z" />
    <glyph glyph-name="eight" unicode="8" horiz-adv-x="1085" 
d="M860 1034q0 125 -90 211t-227 86t-227 -86t-91 -211q0 -125 90 -211q89 -86 227 -86t228 86t90 211zM184 358q0 -139 104 -238q104 -100 255 -100q152 0 255 100t103 238t-103 238t-255 100q-151 0 -255 -100t-104 -238zM184 1034q0 138 104 238t255 100q152 0 255 -99
t103 -234t-74 -211t-127 -99l-24 -8v-8q10 -5 28 -11t65 -34q46 -28 81 -65q36 -35 64 -101t28 -144q0 -156 -116 -268t-284 -110q-168 0 -283 112q-116 112 -116 266q0 78 28 143t67 103q82 79 143 101l29 8v8q-8 4 -24 10t-54 33q-39 26 -69 58t-54 89q-25 57 -25 123z
" />
    <glyph glyph-name="nine" unicode="9" horiz-adv-x="1064" 
d="M522 512q158 0 258 111t101 299q-1 188 -101 299t-258 111t-258 -112q-100 -110 -100 -298t100 -299t258 -111zM881 686h-11l-11 -22q-7 -14 -35 -52t-64 -66t-100 -52q-65 -24 -138 -23q-172 0 -286 124t-113 327q0 202 114 326q115 124 291 124t285 -123t109 -348v-225
q0 -330 -130 -513t-300 -183q-136 0 -249 118q-26 27 -38 45l-10 21l30 20q107 -161 264 -162q157 -2 275 170t117 494z" />
    <glyph glyph-name="colon" unicode=":" horiz-adv-x="327" 
d="M123 901v82h82v-82h-82zM123 0v82h82v-82h-82z" />
    <glyph glyph-name="semicolon" unicode=";" horiz-adv-x="327" 
d="M123 901v82h82v-82h-82zM164 0h-41v82h82v-62q-1 -40 -19 -66t-34 -32l-19 -4l-10 21q41 10 41 61z" />
    <glyph glyph-name="less" unicode="&#x3c;" horiz-adv-x="665" 
d="M584 266v-51l-502 338v41l502 338v-51l-461 -308z" />
    <glyph glyph-name="equal" unicode="=" horiz-adv-x="655" 
d="M82 553v41h491v-41h-491zM82 799v41h491v-41h-491z" />
    <glyph glyph-name="greater" unicode="&#x3e;" horiz-adv-x="665" 
d="M82 881v51l502 -338v-41l-502 -338v51l461 307z" />
    <glyph glyph-name="question" unicode="?" horiz-adv-x="1024" 
d="M389 0v82h82v-82h-82zM410 369v358q31 -10 92 -10q160 0 259 97t99 251t-99 251t-259 97t-259 -97t-100 -251h-41q0 170 112 280q112 109 288 109t288 -110t112 -279q0 -170 -112 -280t-288 -109h-51v-307h-41z" />
    <glyph glyph-name="at" unicode="@" horiz-adv-x="1638" 
d="M1475 758q0 -205 -82 -313t-205 -107q-41 0 -82 22t-62 46l-20 24q-28 -35 -82 -64q-53 -28 -102 -28q-115 0 -196 101t-81 277t81 278q81 101 196 102q45 0 84 -16t55 -31l14 -15h11v51h40v-624q62 -82 156 -82t164 95t70 284q0 295 -168 475t-433 180t-447 -193
q-181 -194 -181 -503t181 -503t454 -194q96 0 183 26t126 52l39 25l20 -31q-48 -41 -156 -77t-212 -35q-289 0 -483 206t-193 531q0 325 194 531t474 206t462 -194t181 -502zM840 379q45 0 86 20t59 41l19 21v512q-23 31 -71 56q-48 26 -93 26q-98 0 -167 -89t-69 -249
t69 -249t167 -89z" />
    <glyph glyph-name="A" unicode="A" horiz-adv-x="1177" 
d="M584 1372l-318 -942h645l-317 942h-10zM614 1434l482 -1434h-41l-133 389h-666l-133 -389h-41l481 1434h51z" />
    <glyph glyph-name="B" unicode="B" horiz-adv-x="1249" 
d="M266 819h389q152 0 240 82t88 216t-98 215t-292 81t-294 -37l-33 -14v-543zM1085 410q0 164 -108 266q-109 102 -291 102h-420v-737h420q182 0 291 102q108 103 108 267zM1126 410q0 -178 -122 -294t-318 -116h-461v1393q133 61 355 61t334 -93q110 -93 110 -257
t-138 -257q-32 -22 -55 -30l-22 -8v-10q48 -8 107 -38t100 -68q42 -37 76 -113t34 -170z" />
    <glyph glyph-name="C" unicode="C" horiz-adv-x="1208" 
d="M143 717q0 329 167 533t386 204q169 0 329 -138q36 -32 52 -54l19 -23l-31 -31q-6 8 -16 22q-11 14 -47 50q-141 136 -306 133q-204 0 -358 -190q-154 -189 -154 -505t154 -506t358 -192q72 0 140 26t139 84t104 112l17 24l30 -20q-6 -10 -17 -28t-51 -65
q-40 -46 -86 -81t-121 -64t-155 -28q-219 0 -386 204t-167 533z" />
    <glyph glyph-name="D" unicode="D" horiz-adv-x="1269" 
d="M1085 721q0 313 -156 503q-157 189 -376 189q-86 0 -158 -12t-100 -25l-29 -14v-1321h307q211 0 362 183q150 184 150 497zM225 0v1393q113 61 337 61t394 -203t170 -531t-164 -524t-389 -196h-348z" />
    <glyph glyph-name="E" unicode="E" horiz-adv-x="1044" 
d="M225 0v1434h697v-41h-656v-410h574v-41h-574v-901h697v-41h-738z" />
    <glyph glyph-name="F" unicode="F" horiz-adv-x="983" 
d="M225 0v1434h697v-41h-656v-410h512v-41h-512v-942h-41z" />
    <glyph glyph-name="G" unicode="G" horiz-adv-x="1310" 
d="M1065 0v154h-10q-14 -22 -54 -56q-39 -34 -77 -58q-95 -60 -228 -60q-219 0 -386 204t-167 533t167 533t386 204q169 0 329 -138q36 -32 52 -54l19 -23l-31 -31q-6 8 -16 22q-11 14 -47 50q-141 136 -306 133q-204 0 -358 -190q-154 -189 -154 -505t154 -506t358 -192
q125 0 221 67q97 67 132 118l16 20v410h-389v41h430v-676h-41z" />
    <glyph glyph-name="H" unicode="H" horiz-adv-x="1372" 
d="M1106 0v942h-840v-942h-41v1434h41v-451h840v451h41v-1434h-41z" />
    <glyph glyph-name="I" unicode="I" horiz-adv-x="491" 
d="M225 0v1434h41v-1434h-41z" />
    <glyph glyph-name="J" unicode="J" horiz-adv-x="665" 
d="M399 338v1096h41v-1096q0 -338 -317 -338v41q276 0 276 297z" />
    <glyph glyph-name="K" unicode="K" horiz-adv-x="1157" 
d="M266 0h-41v1434h41v-922l697 922h51l-482 -635l564 -799h-52l-542 768l-236 -317v-451z" />
    <glyph glyph-name="L" unicode="L" horiz-adv-x="1024" 
d="M225 0v1434h41v-1393h676v-41h-717z" />
    <glyph glyph-name="M" unicode="M" horiz-adv-x="1525" 
d="M266 1331v-1331h-41v1434h51l482 -983h10l481 983h51v-1434h-40v1331h-11l-461 -942h-51l-461 942h-10z" />
    <glyph glyph-name="N" unicode="N" horiz-adv-x="1372" 
d="M266 1331v-1331h-41v1434h41l830 -1332h10v1332h41v-1434h-41l-830 1331h-10z" />
    <glyph glyph-name="O" unicode="O" horiz-adv-x="1392" 
d="M184 717q0 -315 154 -505t358 -192q204 0 359 190q153 190 153 506t-153 507q-154 190 -359 190q-204 -1 -358 -191t-154 -505zM143 717q0 329 167 533t386 204t386 -204t167 -534t-167 -533t-386 -203t-386 204t-167 533z" />
    <glyph glyph-name="P" unicode="P" horiz-adv-x="1290" 
d="M1106 952q0 203 -139 332t-354 129t-314 -37l-33 -14v-870h348q220 0 356 128t136 332zM225 0v1393q133 61 376 61t395 -141t151 -359t-149 -361q-148 -142 -384 -142h-348v-451h-41z" />
    <glyph glyph-name="Q" unicode="Q" horiz-adv-x="1392" 
d="M184 717q0 -315 154 -505t358 -192q170 0 310 136q-27 35 -45 55q-50 55 -111 55l10 41q82 0 174 -121q174 198 174 522t-153 515q-154 190 -359 190q-204 -1 -358 -191t-154 -505zM696 -20q-219 0 -386 204t-167 533t167 533t386 204t386 -204t167 -542t-190 -554
q27 -38 46 -58q51 -55 114 -55l-11 -41q-70 0 -126 62q-19 22 -52 63q-145 -145 -334 -145z" />
    <glyph glyph-name="R" unicode="R" horiz-adv-x="1310" 
d="M666 553q204 0 332 125t128 309t-131 305t-356 121t-336 -37l-37 -14v-809h400zM266 512v-512h-41v1393q143 61 420 61q233 0 377 -134t145 -337q1 -100 -35 -183t-88 -131q-109 -101 -188 -124l-37 -13v-10l348 -522h-51l-338 512h-512z" />
    <glyph glyph-name="S" unicode="S" horiz-adv-x="1085" 
d="M532 20q160 0 264 102t105 257q0 94 -40 164q-40 69 -102 111t-139 76t-154 66t-139 70q-63 38 -103 102t-40 148q0 146 98 242t241 96q144 0 235 -71t119 -121l14 -23l-31 -31l-11 22t-36 50q-61 74 -138 104t-143 29q-137 0 -222 -83t-85 -214q0 -76 40 -133
q41 -57 103 -92t204 -92t216 -112q154 -113 154 -295q0 -183 -117 -298t-293 -114q-80 0 -154 28t-147 87q-74 60 -112 122l-17 29l31 20q17 -29 61 -78t87 -82q43 -34 111 -60t140 -26z" />
    <glyph glyph-name="T" unicode="T" horiz-adv-x="942" 
d="M492 1393v-1393h-41v1393h-390v41h820v-41h-389z" />
    <glyph glyph-name="U" unicode="U" horiz-adv-x="1372" 
d="M1106 471v963h41v-963q0 -227 -126 -359t-335 -132t-335 132t-126 359v963h41v-963q0 -213 113 -332t307 -119t308 119q112 119 112 332z" />
    <glyph glyph-name="V" unicode="V" horiz-adv-x="1157" 
d="M553 0l-471 1434h41l450 -1373h11l450 1373h41l-471 -1434h-51z" />
    <glyph glyph-name="W" unicode="W" horiz-adv-x="1720" 
d="M1116 0l-256 778l-256 -778h-51l-471 1434h41l450 -1373h11l256 779l-195 594h41l174 -533l174 533h41l-194 -594l256 -779h10l450 1373h41l-471 -1434h-51z" />
    <glyph glyph-name="X" unicode="X" horiz-adv-x="1126" 
d="M1004 1434l-420 -686l460 -748h-51l-430 707l-430 -707h-51l461 748l-420 686h51l389 -646l389 646h52z" />
    <glyph glyph-name="Y" unicode="Y" horiz-adv-x="1064" 
d="M512 0v758l-451 676h52l415 -625h9l415 625h52l-451 -676v-758h-41z" />
    <glyph glyph-name="Z" unicode="Z" horiz-adv-x="1044" 
d="M82 0v41l829 1352h-768v41h820v-41l-830 -1352h830v-41h-881z" />
    <glyph glyph-name="bracketleft" unicode="[" horiz-adv-x="573" 
d="M205 -164v1761h266v-41h-225v-1679h225v-41h-266z" />
    <glyph glyph-name="backslash" unicode="\" horiz-adv-x="634" 
d="M123 1454l430 -1720h-41l-430 1720h41z" />
    <glyph glyph-name="bracketright" unicode="]" horiz-adv-x="573" 
d="M369 1597v-1761h-267v41h226v1679h-226v41h267z" />
    <glyph glyph-name="asciicircum" unicode="^" horiz-adv-x="778" 
d="M410 1434l286 -635h-51l-256 573l-256 -573h-51l287 635h41z" />
    <glyph glyph-name="underscore" unicode="_" horiz-adv-x="593" 
d="M0 -225v41h594v-41h-594z" />
    <glyph glyph-name="grave" unicode="`" horiz-adv-x="307" 
d="M102 1434l144 -226h-41l-144 226h41z" />
    <glyph glyph-name="a" unicode="a" horiz-adv-x="952" 
d="M481 20q100 0 164 54q65 54 92 100v635q-101 151 -248 152q-147 2 -246 -124t-99 -345q0 -220 98 -346q100 -126 239 -126zM102 492q0 236 112 374t267 138q68 0 129 -31t90 -62l27 -30h10v102h41v-819l10 -164h-40l-11 102h-10q-9 -14 -29 -34t-85 -54t-132 -34
q-155 0 -267 138t-112 374z" />
    <glyph glyph-name="b" unicode="b" horiz-adv-x="942" 
d="M461 963q-77 0 -141 -39t-91 -76l-24 -39v-707q31 -31 99 -57q68 -25 136 -25q154 0 256 125t102 345t-98 347q-100 126 -239 126zM164 1434h41v-553h10q9 14 29 34q20 21 85 55t132 34q155 0 267 -138t112 -376q0 -236 -116 -373t-284 -137q-78 0 -146 26t-99 51l-31 25
v1352z" />
    <glyph glyph-name="c" unicode="c" horiz-adv-x="839" 
d="M489 20q147 0 259 164l30 -20q-59 -118 -187 -165q-52 -19 -110 -19q-155 0 -267 138t-112 374t112 374t267 138q82 0 151 -39t97 -76l29 -39l-31 -21q-9 14 -29 37t-85 60t-132 37q-139 0 -238 -126t-99 -345q0 -220 98 -346q100 -126 247 -126z" />
    <glyph glyph-name="d" unicode="d" horiz-adv-x="942" 
d="M481 20q100 0 164 54q65 54 92 100v635q-101 151 -248 152q-147 2 -246 -124t-99 -345q0 -220 98 -346q100 -126 239 -126zM737 0v102h-10q-9 -14 -29 -34t-85 -54t-132 -34q-155 0 -267 138t-112 374t112 374t267 138q68 0 129 -31t90 -62l27 -30h10v553h41v-1434h-41z
" />
    <glyph glyph-name="e" unicode="e" 
d="M461 963q-121 0 -212 -109t-106 -301h635q-14 193 -105 301t-212 109zM143 492q-1 -220 99 -346t247 -126t259 164l30 -20q-59 -118 -187 -165q-52 -19 -110 -19q-155 0 -267 138t-112 377t106 373t252 136q148 0 254 -132t105 -360h-676v-20z" />
    <glyph glyph-name="f" unicode="f" horiz-adv-x="450" 
d="M61 942v41h123v348q0 45 29 74t74 29h82v-41h-82q-61 0 -62 -62v-348h144v-41h-144v-942h-41v942h-123z" />
    <glyph glyph-name="g" unicode="g" horiz-adv-x="942" 
d="M481 20q100 0 164 54q65 54 92 100v635q-101 151 -248 152q-147 2 -246 -124t-99 -345q0 -220 98 -346q100 -126 239 -126zM737 20v82h-10q-9 -14 -29 -34t-85 -54t-132 -34q-155 0 -267 138t-112 374t112 374t267 138q68 0 129 -31t90 -62l27 -30h10v102h41v-963
q0 -137 -83 -222t-214 -85q-79 0 -145 26t-94 52l-27 25l21 30q35 -35 106 -63q72 -29 139 -29q117 0 187 72t69 194z" />
    <glyph glyph-name="h" unicode="h" 
d="M717 0v696q0 123 -70 195t-186 72q-77 0 -141 -39t-91 -76l-24 -39v-809h-41v1434h41v-553h10q9 14 29 34q20 21 85 55t132 34q131 0 214 -85t83 -223v-696h-41z" />
    <glyph glyph-name="i" unicode="i" horiz-adv-x="368" 
d="M154 1372v62h61v-62h-61zM164 0v983h41v-983h-41z" />
    <glyph glyph-name="j" unicode="j" horiz-adv-x="368" 
d="M154 1372v62h61v-62h-61zM205 983v-1147q0 -45 -29 -74t-74 -28h-10l-10 41h20q61 0 62 61v1147h41z" />
    <glyph glyph-name="k" unicode="k" horiz-adv-x="839" 
d="M205 0h-41v1434h41v-1065l502 614h51l-348 -430l389 -553h-51l-369 522l-174 -215v-307z" />
    <glyph glyph-name="l" unicode="l" horiz-adv-x="409" 
d="M164 102v1332h41v-1332q0 -61 61 -61h21l-11 -41h-10q-46 0 -74 28t-28 74z" />
    <glyph glyph-name="m" unicode="m" horiz-adv-x="1310" 
d="M907 963q-84 0 -138 -39t-73 -76l-20 -39v-809h-41v737q0 105 -57 165q-58 60 -142 60t-138 -38q-54 -39 -73 -76l-20 -39v-809h-41v983h41v-102h10q18 36 74 78q56 43 121 44t119 -18t100 -82q18 -26 26 -53h11q4 13 29 46q78 105 195 107q118 1 188 -71t69 -195v-737
h-41v737q0 106 -57 166q-58 60 -142 60z" />
    <glyph glyph-name="n" unicode="n" 
d="M717 0v696q0 123 -70 195t-186 72q-77 0 -141 -39t-91 -76l-24 -39v-809h-41v983h41v-102h10q9 14 29 34q20 21 85 55t132 34q131 0 214 -85t83 -223v-696h-41z" />
    <glyph glyph-name="o" unicode="o" horiz-adv-x="962" 
d="M143 492q-1 -220 99 -346t239 -126t239 126q99 126 99 346t-99 345q-98 126 -238 126t-240 -126t-99 -345zM102 492q0 236 112 374t268 138t267 -138t111 -374t-112 -374t-267 -138t-267 138t-112 374z" />
    <glyph glyph-name="p" unicode="p" horiz-adv-x="942" 
d="M461 963q-77 0 -141 -39t-91 -76l-24 -39v-635q101 -151 248 -152q147 -2 246 124t99 346t-98 345q-100 126 -239 126zM205 102v-368h-41v1249h41v-102h10q9 14 29 34q20 21 85 55t132 34q155 0 267 -138t112 -374t-112 -374t-267 -138q-68 0 -129 30t-90 62l-27 30h-10z
" />
    <glyph glyph-name="q" unicode="q" horiz-adv-x="942" 
d="M481 20q100 0 164 54q65 54 92 100v635q-101 151 -248 152q-147 2 -246 -124t-99 -345q0 -220 98 -346q100 -126 239 -126zM737 -266v368h-10q-9 -14 -29 -34t-85 -54t-132 -34q-155 0 -267 138t-112 374t112 374t267 138q68 0 129 -31t90 -62l27 -30h10v102h41v-1249
h-41z" />
    <glyph glyph-name="r" unicode="r" horiz-adv-x="624" 
d="M394 963q-50 0 -98 -39t-71 -76l-20 -39v-809h-41v983h41v-102h10q25 44 80 83q55 40 107 40t98 -31t65 -62l19 -30l-31 -21q-6 12 -17 28q-12 16 -52 46q-40 29 -90 29z" />
    <glyph glyph-name="s" unicode="s" horiz-adv-x="778" 
d="M635 248q0 92 -53 146t-128 82l-150 56t-128 88q-53 58 -53 153t70 163t164 68q93 0 163 -39t98 -76l27 -39l-31 -21q-10 14 -29 37t-84 60t-145 37q-80 -1 -136 -55t-56 -136t53 -132t128 -78t150 -58t128 -90q53 -61 53 -168t-82 -187t-205 -79q-151 0 -260 118
q-25 27 -35 45l-12 21l31 20q107 -161 276 -164q106 0 176 68t70 160z" />
    <glyph glyph-name="t" unicode="t" horiz-adv-x="501" 
d="M61 942v41h123v246l41 20v-266h154v-41h-154v-840q0 -61 62 -61h112l-10 -41h-102q-45 0 -74 29t-29 73v840h-123z" />
    <glyph glyph-name="u" unicode="u" 
d="M205 983v-696q-1 -123 69 -195t178 -72t173 54t92 100v809h41v-983h-41v102h-10q-9 -14 -29 -34t-85 -54t-132 -34q-131 0 -214 85t-83 222v696h41z" />
    <glyph glyph-name="v" unicode="v" horiz-adv-x="798" 
d="M737 983l-317 -983h-41l-318 983h41l297 -922l297 922h41z" />
    <glyph glyph-name="w" unicode="w" horiz-adv-x="1085" 
d="M1024 983l-276 -983h-41l-160 573h-8l-160 -573h-41l-277 983h41l256 -911l164 583l-92 328h41l256 -911l256 911h41z" />
    <glyph glyph-name="x" unicode="x" horiz-adv-x="757" 
d="M61 0l297 512l-276 471h51l246 -430l246 430h51l-277 -471l297 -512h-51l-266 471l-266 -471h-52z" />
    <glyph glyph-name="y" unicode="y" horiz-adv-x="757" 
d="M205 -266v41h31q53 0 71 61l51 164l-297 983h41l277 -911l276 911h41l-348 -1147q-16 -55 -42 -79t-70 -23h-31z" />
    <glyph glyph-name="z" unicode="z" horiz-adv-x="716" 
d="M123 942v41h512v-41l-502 -901h502v-41h-553v41l502 901h-461z" />
    <glyph glyph-name="braceleft" unicode="{" horiz-adv-x="614" 
d="M328 543v-512q0 -92 30 -123t123 -31h31v-41h-31q-109 0 -151 43t-43 152v512q0 92 -31 123t-123 30h-10v41h10q92 0 123 31t31 123v512q0 109 43 151t151 43h31v-41h-31q-92 0 -123 -30t-30 -123v-512q0 -108 -54 -154q-6 -5 -28 -16v-8q8 -1 22 -9t37 -50t23 -111z" />
    <glyph glyph-name="bar" unicode="|" horiz-adv-x="491" 
d="M225 -266v1720h41v-1720h-41z" />
    <glyph glyph-name="braceright" unicode="}" horiz-adv-x="614" 
d="M287 543q0 134 82 170v8q-8 2 -23 9q-14 7 -37 50t-22 111v512q0 92 -31 123t-123 30h-31v41h31q109 0 152 -43t43 -151v-512q0 -92 30 -123t123 -31h11v-41h-11q-92 0 -123 -30t-30 -123v-512q0 -109 -43 -152t-152 -43h-31v41h31q92 0 123 31t31 123v512z" />
    <glyph glyph-name="asciitilde" unicode="~" horiz-adv-x="727" 
d="M236 696q63 0 135 -61t115 -61q44 0 74 30q30 31 42 62l12 30l31 -20q-29 -87 -98 -128q-27 -15 -55 -16q-64 0 -136 62t-114 61t-74 -31q-31 -30 -43 -61l-12 -31l-31 21q29 87 98 128q27 15 56 15z" />
    <glyph glyph-name="nbspace" unicode="&#xa0;" horiz-adv-x="327" 
 />
    <glyph glyph-name="exclamdown" unicode="&#xa1;" horiz-adv-x="532" 
d="M246 -369v983h41v-983h-41zM225 901v82h82v-82h-82z" />
    <glyph glyph-name="cent" unicode="&#xa2;" horiz-adv-x="839" 
d="M489 20q147 0 259 164l30 -20q-4 -6 -10 -18t-32 -43q-98 -113 -234 -123v-246h-41v246q-141 8 -250 147t-109 365t109 364q109 139 250 148v245h41v-245q76 -4 139 -43t90 -76l27 -35l-31 -21q-9 14 -29 37t-85 60t-132 37q-139 0 -238 -126t-99 -345q0 -220 98 -346
q100 -126 247 -126z" />
    <glyph glyph-name="sterling" unicode="&#xa3;" horiz-adv-x="993" 
d="M123 717v41h153v276q0 166 77 252t210 86q82 0 151 -39t97 -76l29 -38l-31 -21q-9 14 -29 37t-85 59t-132 37q-246 0 -246 -297v-276h431v-41h-431v-492q0 -81 -20 -115q-20 -35 -43 -55l-8 -4v-10h686v-41h-809v41h61q10 4 26 15q15 10 41 58t25 111v492h-153z" />
    <glyph glyph-name="currency" unicode="&#xa4;" horiz-adv-x="1228" 
d="M614 492q205 0 328 116t123 304q0 187 -126 303t-345 116q-90 0 -167 -12t-108 -25l-32 -14v-788h327zM819 225h-532v-225h-41v225h-164v41h164v185h-164v41h164v819q123 61 352 61q228 0 368 -129t140 -332t-135 -331t-357 -129h-327v-185h532v-41z" />
    <glyph glyph-name="yen" unicode="&#xa5;" horiz-adv-x="1024" 
d="M266 471v41h226v184l-431 656h52l395 -604h8l395 604h52l-431 -656v-184h226v-41h-226v-205h226v-41h-226v-225h-40v225h-226v41h226v205h-226z" />
    <glyph glyph-name="brokenbar" unicode="&#xa6;" horiz-adv-x="491" 
d="M225 -266v737h41v-737h-41zM225 717v737h41v-737h-41z" />
    <glyph glyph-name="section" unicode="&#xa7;" 
d="M717 668q0 68 -45 130q-46 60 -100 89t-129 61t-105 56q-55 -18 -79 -52q-54 -73 -54 -164q0 -92 45 -152t99 -89t129 -62t106 -55q20 7 46 24q87 54 87 214zM758 655q0 -169 -133 -245v-11q10 -6 25 -18t41 -59t26 -107q0 -100 -70 -168q-70 -67 -177 -67t-176 53
t-89 86l-10 14l30 21q9 -14 29 -37t85 -60t145 -37t136 54t56 137q0 82 -53 136t-128 88t-150 71q-75 38 -128 106t-53 166q0 170 133 246v10q-9 6 -25 18t-42 60q-26 47 -25 107q-1 99 69 167t164 68t164 -39t98 -76l27 -39l-31 -20q-10 14 -29 37t-84 59t-145 37
q-80 0 -136 -54t-56 -136q0 -83 53 -137t128 -88t150 -70t128 -106q53 -69 53 -167z" />
    <glyph glyph-name="dieresis" unicode="&#xa8;" horiz-adv-x="430" 
d="M307 1290v62h62v-62h-62zM61 1290v62h62v-62h-62z" />
    <glyph glyph-name="copyright" unicode="&#xa9;" horiz-adv-x="1679" 
d="M848 379q106 0 176 113l31 -21q-3 -10 -39 -51q-36 -42 -85 -62q-50 -20 -91 -20q-115 0 -196 101t-81 277t81 278q81 101 196 102q59 0 110 -28t74 -56l20 -29l-30 -20q-19 32 -72 62t-102 30q-98 0 -167 -89t-69 -249t69 -249t175 -89zM205 717q0 -309 181 -503
q182 -194 454 -194t453 194t182 503t-181 503t-454 194t-454 -194q-181 -194 -181 -503zM164 717q0 325 194 531t482 206t482 -206t194 -532t-194 -531t-482 -205t-483 205q-193 206 -193 532z" />
    <glyph glyph-name="ordfeminine" unicode="&#xaa;" horiz-adv-x="778" 
d="M399 737q55 0 101 29t65 57l19 27v450q-19 38 -74 76q-55 37 -111 37q-98 0 -167 -89q-68 -89 -68 -249t68 -249t167 -89zM399 696q-115 0 -195 102t-81 277q0 175 81 277t195 102q49 0 93 -20t63 -41l18 -21h11v62h41v-594l10 -123h-41l-10 61h-11q-24 -32 -74 -57
t-100 -25z" />
    <glyph glyph-name="guillemotleft" unicode="&#xab;" horiz-adv-x="675" 
d="M543 819l30 -20l-184 -277v-10l184 -276l-30 -21l-195 287v30zM297 819l31 -20l-185 -277v-10l185 -276l-31 -21l-195 287v30z" />
    <glyph glyph-name="logicalnot" unicode="&#xac;" horiz-adv-x="706" 
d="M82 573v41h543v-245h-41v204h-502z" />
    <glyph glyph-name="uni00AD" unicode="&#xad;" horiz-adv-x="583" 
d="M82 614v41h420v-41h-420z" />
    <glyph glyph-name="registered" unicode="&#xae;" horiz-adv-x="1679" 
d="M1055 870q-1 80 -63 132t-169 52t-176 -38l-22 -12v-318h215q98 0 156 52t59 132zM625 645v-287h-41v676q92 62 227 62t210 -65t75 -160t-53 -142q-53 -48 -85 -57l-16 -6v-11l184 -297h-51l-174 287h-276zM205 717q0 -309 181 -503q182 -194 454 -194t453 194t182 503
t-181 503t-454 194t-454 -194q-181 -194 -181 -503zM164 717q0 325 194 531t482 206t482 -206t194 -532t-194 -531t-482 -205t-483 205q-193 206 -193 532z" />
    <glyph glyph-name="macron" unicode="&#xaf;" horiz-adv-x="512" 
d="M61 1341h390v-41h-390v41z" />
    <glyph glyph-name="degree" unicode="&#xb0;" horiz-adv-x="675" 
d="M164 1208q0 -76 52 -130t122 -54t122 54t52 130t-52 130t-122 54t-122 -54t-52 -130zM123 1208q0 92 64 159q65 67 151 67t150 -67t65 -159q0 -92 -65 -158q-64 -66 -150 -67q-86 1 -150 67t-65 158z" />
    <glyph glyph-name="plusminus" unicode="&#xb1;" horiz-adv-x="716" 
d="M82 184v41h553v-41h-553zM82 676v41h256v276h41v-276h256v-41h-256v-277h-41v277h-256z" />
    <glyph glyph-name="twosuperior" unicode="&#xb2;" horiz-adv-x="655" 
d="M123 1264q0 70 61 130q62 60 154 60t154 -59t61 -141q0 -157 -110 -286t-185 -177l-33 -23v-10h307v-41h-378v41q52 30 119 87q67 58 114 112q47 55 86 135t39 154t-49 120q-49 47 -125 47t-125 -47q-49 -46 -49 -104t18 -92t35 -44l19 -12l-21 -29q-9 5 -25 15t-42 52
q-25 42 -25 112z" />
    <glyph glyph-name="threesuperior" unicode="&#xb3;" horiz-adv-x="645" 
d="M307 1413q-67 0 -105 -40q-38 -39 -38 -93t12 -72l-33 -22q-20 34 -20 98t51 117t133 53t133 -53q52 -53 52 -136t-60 -135q-16 -14 -33 -20v-8q4 -2 23 -8t46 -37q54 -61 54 -149q0 -89 -61 -150q-61 -62 -153 -62t-136 43q-43 43 -66 86l-4 15l41 10q2 -4 6 -22t32 -42
q54 -47 129 -48t123 48t48 125t-48 125t-126 49h-31v41h31q68 0 106 40t38 104t-38 103q-38 40 -106 40z" />
    <glyph glyph-name="acute" unicode="&#xb4;" horiz-adv-x="307" 
d="M61 1208l144 226h41l-144 -226h-41z" />
    <glyph glyph-name="mu" unicode="&#xb5;" 
d="M205 983v-696q-1 -123 69 -195t178 -72t173 54t92 100v809h41v-983h-41v102h-10q-9 -14 -29 -34t-85 -54t-137 -34t-134 34q-61 34 -84 66l-23 33h-10v-379h-41v1249h41z" />
    <glyph glyph-name="paragraph" unicode="&#xb6;" horiz-adv-x="1075" 
d="M768 -266v1659h-246v-1659h-41v962q-141 0 -229 98t-88 271q0 172 88 270t229 99h471v-41h-143v-1659h-41z" />
    <glyph glyph-name="periodcentered" unicode="&#xb7;" horiz-adv-x="327" 
d="M123 553v82h82v-82h-82z" />
    <glyph glyph-name="cedilla" unicode="&#xb8;" horiz-adv-x="471" 
d="M205 -143v143h41v-102h20q60 0 102 -39t42 -99t-52 -104q-52 -45 -135 -45q-84 0 -141 37l-21 14l21 31q61 -41 136 -41t113 33t38 75t-29 70q-29 27 -74 27h-61z" />
    <glyph glyph-name="onesuperior" unicode="&#xb9;" horiz-adv-x="409" 
d="M205 1331h-10q-10 -20 -52 -41l-20 31q31 15 56 48q26 32 26 65h41v-717h-41v614z" />
    <glyph glyph-name="ordmasculine" unicode="&#xba;" horiz-adv-x="798" 
d="M164 1075q0 -160 68 -249t167 -89q98 0 167 89t69 249t-69 249t-167 89q-99 0 -167 -89t-68 -249zM123 1075q0 175 81 277q82 102 196 102t195 -101t81 -277t-81 -278t-196 -102t-195 102t-81 277z" />
    <glyph glyph-name="guillemotright" unicode="&#xbb;" horiz-adv-x="675" 
d="M102 799l31 20l195 -287v-30l-195 -287l-31 21l185 276v10zM348 799l31 20l194 -287v-30l-194 -287l-31 21l184 276v10z" />
    <glyph glyph-name="onequarter" unicode="&#xbc;" horiz-adv-x="1249" 
d="M737 236h267v378h-11l-256 -368v-10zM1044 696v-460h103v-41h-103v-215h-40v215h-328v41l328 460h40zM225 1331h-10q-10 -20 -51 -41l-21 31q32 16 58 48q25 32 24 65h41v-717h-41v614zM154 0l809 1434h51l-809 -1434h-51z" />
    <glyph glyph-name="onehalf" unicode="&#xbd;" horiz-adv-x="1361" 
d="M809 548q0 70 61 130q62 60 154 59q92 0 154 -59q62 -60 61 -142q0 -82 -34 -160t-82 -133q-102 -119 -177 -169l-35 -23v-10h308v-41h-379v41q48 28 117 86q69 59 116 113t86 135q39 79 39 153t-49 121t-125 47t-125 -47t-49 -105t17 -90q17 -34 36 -44l19 -13l-21 -28
q-10 4 -25 14t-41 52q-26 43 -26 113zM225 1331h-10q-10 -20 -51 -41l-21 31q32 16 58 48q25 32 24 65h41v-717h-41v614zM154 0l809 1434h51l-809 -1434h-51z" />
    <glyph glyph-name="threequarters" unicode="&#xbe;" horiz-adv-x="1402" 
d="M891 236h266v378h-10l-256 -368v-10zM1198 696v-460h102v-41h-102v-215h-41v215h-328v41l328 460h41zM307 1413q-67 0 -105 -40q-38 -39 -38 -93t12 -72l-33 -22q-20 34 -20 98t51 117t133 53t133 -53q52 -53 52 -136t-60 -135q-16 -14 -33 -20v-8q4 -2 23 -8t46 -37
q54 -61 54 -149q0 -89 -61 -150q-61 -62 -153 -62t-136 43q-43 43 -66 86l-4 15l41 10q2 -4 6 -22t32 -42q54 -47 129 -48t123 48t48 125t-48 125t-126 49h-31v41h31q68 0 106 40t38 104t-38 103q-38 40 -106 40zM307 0l809 1434h51l-809 -1434h-51z" />
    <glyph glyph-name="questiondown" unicode="&#xbf;" horiz-adv-x="1024" 
d="M635 983v-82h-82v82h82zM614 614v-256q-31 10 -92 11q-160 1 -259 -97t-99 -252t99 -250t259 -98q160 0 259 98t100 250h41q0 -170 -112 -280t-288 -109q-176 0 -288 110q-112 109 -112 279t112 280t288 110h51v204h41z" />
    <glyph glyph-name="Agrave" unicode="&#xc0;" horiz-adv-x="1177" 
d="M465 1843l143 -225h-41l-143 225h41zM584 1372l-318 -942h645l-317 942h-10zM614 1434l482 -1434h-41l-133 389h-666l-133 -389h-41l481 1434h51z" />
    <glyph glyph-name="Aacute" unicode="&#xc1;" horiz-adv-x="1177" 
d="M567 1618l144 225h41l-144 -225h-41zM584 1372l-318 -942h645l-317 942h-10zM614 1434l482 -1434h-41l-133 389h-666l-133 -389h-41l481 1434h51z" />
    <glyph glyph-name="Acircumflex" unicode="&#xc2;" horiz-adv-x="1177" 
d="M608 1843l185 -225h-41l-164 194l-164 -194h-41l184 225h41zM584 1372l-318 -942h645l-317 942h-10zM614 1434l482 -1434h-41l-133 389h-666l-133 -389h-41l481 1434h51z" />
    <glyph glyph-name="Atilde" unicode="&#xc3;" horiz-adv-x="1177" 
d="M690 1690q68 0 82 122h41q-8 -82 -41 -122t-79 -41q-46 0 -109 61t-99 62q-68 0 -82 -123h-41q8 82 41 123q72 90 189 -21q63 -61 98 -61zM584 1372l-318 -942h645l-317 942h-10zM614 1434l482 -1434h-41l-133 389h-666l-133 -389h-41l481 1434h51z" />
    <glyph glyph-name="Adieresis" unicode="&#xc4;" horiz-adv-x="1177" 
d="M680 1700v61h61v-61h-61zM434 1700v61h62v-61h-62zM584 1372l-318 -942h645l-317 942h-10zM614 1434l482 -1434h-41l-133 389h-666l-133 -389h-41l481 1434h51z" />
    <glyph glyph-name="Aring" unicode="&#xc5;" horiz-adv-x="1177" 
d="M424 1731q0 77 47 125t117 48t117 -48q47 -50 47 -126t-47 -124q-47 -50 -117 -50t-117 50t-47 125zM465 1731q0 -61 34 -97t89 -37q55 0 89 36q34 35 34 97t-34 98t-89 36t-89 -36t-34 -97zM584 1372l-318 -942h645l-317 942h-10zM614 1434l482 -1434h-41l-133 389h-666
l-133 -389h-41l481 1434h51z" />
    <glyph glyph-name="AE" unicode="&#xc6;" horiz-adv-x="1556" 
d="M778 430v963h-184l-328 -963h512zM778 0v389h-522l-133 -389h-41l481 1434h871v-41h-615v-410h533v-41h-533v-901h656v-41h-697z" />
    <glyph glyph-name="Ccedilla" unicode="&#xc7;" horiz-adv-x="1208" 
d="M666 -143v123q-207 16 -365 217t-158 525t167 528t386 204q169 0 329 -138q36 -32 52 -54l19 -23l-31 -31q-6 8 -16 22q-11 14 -47 50q-141 136 -306 133q-204 0 -358 -190q-154 -189 -154 -505t154 -506t358 -192q72 0 140 26t139 84t104 112l17 24l30 -20
q-99 -165 -269 -235q-73 -30 -150 -31v-82h20q61 0 102 -39t41 -99t-51 -104q-51 -45 -135 -45t-141 37l-21 14l21 31q61 -41 136 -41t113 33t38 75t-29 70q-29 27 -74 27h-61z" />
    <glyph glyph-name="Egrave" unicode="&#xc8;" horiz-adv-x="1044" 
d="M471 1843l143 -225h-41l-143 225h41zM225 0v1434h697v-41h-656v-410h574v-41h-574v-901h697v-41h-738z" />
    <glyph glyph-name="Eacute" unicode="&#xc9;" horiz-adv-x="1044" 
d="M532 1618l144 225h41l-144 -225h-41zM225 0v1434h697v-41h-656v-410h574v-41h-574v-901h697v-41h-738z" />
    <glyph glyph-name="Ecircumflex" unicode="&#xca;" horiz-adv-x="1044" 
d="M594 1843l184 -225h-41l-164 194l-163 -194h-41l184 225h41zM225 0v1434h697v-41h-656v-410h574v-41h-574v-901h697v-41h-738z" />
    <glyph glyph-name="Edieresis" unicode="&#xcb;" horiz-adv-x="1044" 
d="M666 1700v61h61v-61h-61zM420 1700v61h61v-61h-61zM225 0v1434h697v-41h-656v-410h574v-41h-574v-901h697v-41h-738z" />
    <glyph glyph-name="Igrave" unicode="&#xcc;" horiz-adv-x="512" 
d="M133 1843l143 -225h-40l-144 225h41zM236 0v1434h40v-1434h-40z" />
    <glyph glyph-name="Iacute" unicode="&#xcd;" horiz-adv-x="512" 
d="M236 1618l143 225h41l-144 -225h-40zM236 0v1434h40v-1434h-40z" />
    <glyph glyph-name="Icircumflex" unicode="&#xce;" horiz-adv-x="512" 
d="M276 1843l185 -225h-41l-164 194l-164 -194h-41l185 225h40zM236 0v1434h40v-1434h-40z" />
    <glyph glyph-name="Idieresis" unicode="&#xcf;" horiz-adv-x="512" 
d="M348 1700v61h62v-61h-62zM102 1700v61h62v-61h-62zM236 0v1434h40v-1434h-40z" />
    <glyph glyph-name="Eth" unicode="&#xd0;" horiz-adv-x="1269" 
d="M1085 721q0 313 -156 503q-157 189 -376 189q-86 0 -158 -12t-100 -25l-29 -14v-379h348v-41h-348v-901h307q211 0 362 183q150 184 150 497zM82 942v41h143v410q113 61 337 61t394 -203t170 -531t-164 -524t-389 -196h-348v942h-143z" />
    <glyph glyph-name="Ntilde" unicode="&#xd1;" horiz-adv-x="1372" 
d="M788 1690q68 0 82 122h41q-8 -82 -41 -122t-79 -41q-46 0 -109 61t-98 62q-68 0 -82 -123h-41q8 82 41 123q33 40 79 40t109 -61t98 -61zM266 1331v-1331h-41v1434h41l830 -1332h10v1332h41v-1434h-41l-830 1331h-10z" />
    <glyph glyph-name="Ograve" unicode="&#xd2;" horiz-adv-x="1392" 
d="M594 1843l143 -225h-41l-143 225h41zM184 717q0 -315 154 -505t358 -192q204 0 359 190q153 190 153 506t-153 507q-154 190 -359 190q-204 -1 -358 -191t-154 -505zM143 717q0 329 167 533t386 204t386 -204t167 -534t-167 -533t-386 -203t-386 204t-167 533z" />
    <glyph glyph-name="Oacute" unicode="&#xd3;" horiz-adv-x="1392" 
d="M655 1618l144 225h41l-144 -225h-41zM184 717q0 -315 154 -505t358 -192q204 0 359 190q153 190 153 506t-153 507q-154 190 -359 190q-204 -1 -358 -191t-154 -505zM143 717q0 329 167 533t386 204t386 -204t167 -534t-167 -533t-386 -203t-386 204t-167 533z" />
    <glyph glyph-name="Ocircumflex" unicode="&#xd4;" horiz-adv-x="1392" 
d="M717 1843l184 -225h-41l-164 194l-164 -194h-40l184 225h41zM184 717q0 -315 154 -505t358 -192q204 0 359 190q153 190 153 506t-153 507q-154 190 -359 190q-204 -1 -358 -191t-154 -505zM143 717q0 329 167 533t386 204t386 -204t167 -534t-167 -533t-386 -203
t-386 204t-167 533z" />
    <glyph glyph-name="Otilde" unicode="&#xd5;" horiz-adv-x="1392" 
d="M799 1690q68 0 82 122h41q-8 -82 -41 -122t-79 -41q-46 0 -110 61t-98 62q-68 0 -82 -123h-41q8 82 41 123q33 40 79 40t109 -61t99 -61zM184 717q0 -315 154 -505t358 -192q204 0 359 190q153 190 153 506t-153 507q-154 190 -359 190q-204 -1 -358 -191t-154 -505z
M143 717q0 329 167 533t386 204t386 -204t167 -534t-167 -533t-386 -203t-386 204t-167 533z" />
    <glyph glyph-name="Odieresis" unicode="&#xd6;" horiz-adv-x="1392" 
d="M788 1700v61h62v-61h-62zM543 1700v61h61v-61h-61zM184 717q0 -315 154 -505t358 -192q204 0 359 190q153 190 153 506t-153 507q-154 190 -359 190q-204 -1 -358 -191t-154 -505zM143 717q0 329 167 533t386 204t386 -204t167 -534t-167 -533t-386 -203t-386 204
t-167 533z" />
    <glyph glyph-name="multiply" unicode="&#xd7;" horiz-adv-x="614" 
d="M276 696l-194 195l31 31l194 -197l195 197l30 -31l-194 -195l194 -194l-30 -31l-195 197l-194 -197l-31 31z" />
    <glyph glyph-name="Oslash" unicode="&#xd8;" horiz-adv-x="1392" 
d="M1208 717q0 212 -62 348q-62 137 -102 174l-20 18l-631 -1107q14 -14 39 -36t104 -58t160 -36q205 0 359 191q153 191 153 506zM184 717q0 -206 63 -344t101 -176l21 -21l630 1108q-15 14 -39 36t-103 58t-161 35q-204 -1 -358 -191t-154 -505zM143 717q0 329 167 533
t386 204q86 0 167 -34t120 -68l37 -33l65 115h41l-82 -142l22 -22t50 -66q136 -203 133 -487q0 -330 -167 -534t-386 -203q-86 0 -167 34t-119 68l-37 33l-66 -115h-41l82 141q-81 81 -133 205q-27 62 -49 162t-23 209z" />
    <glyph glyph-name="Ugrave" unicode="&#xd9;" horiz-adv-x="1372" 
d="M584 1843l143 -225h-41l-143 225h41zM1106 471v963h41v-963q0 -227 -126 -359t-335 -132t-335 132t-126 359v963h41v-963q0 -213 113 -332t307 -119t308 119q112 119 112 332z" />
    <glyph glyph-name="Uacute" unicode="&#xda;" horiz-adv-x="1372" 
d="M645 1618l143 225h41l-143 -225h-41zM1106 471v963h41v-963q0 -227 -126 -359t-335 -132t-335 132t-126 359v963h41v-963q0 -213 113 -332t307 -119t308 119q112 119 112 332z" />
    <glyph glyph-name="Ucircumflex" unicode="&#xdb;" horiz-adv-x="1372" 
d="M707 1843l184 -225h-41l-164 194l-164 -194h-41l185 225h41zM1106 471v963h41v-963q0 -227 -126 -359t-335 -132t-335 132t-126 359v963h41v-963q0 -213 113 -332t307 -119t308 119q112 119 112 332z" />
    <glyph glyph-name="Udieresis" unicode="&#xdc;" horiz-adv-x="1372" 
d="M778 1700v61h62v-61h-62zM532 1700v61h62v-61h-62zM1106 471v963h41v-963q0 -227 -126 -359t-335 -132t-335 132t-126 359v963h41v-963q0 -213 113 -332t307 -119t308 119q112 119 112 332z" />
    <glyph glyph-name="Yacute" unicode="&#xdd;" horiz-adv-x="1064" 
d="M492 1618l143 225h41l-144 -225h-40zM512 0v758l-451 676h52l415 -625h9l415 625h52l-451 -676v-758h-41z" />
    <glyph glyph-name="Thorn" unicode="&#xde;" horiz-adv-x="1249" 
d="M1085 768q0 196 -132 318t-343 122t-311 -37l-33 -14v-829h348q213 0 342 122t129 318zM225 0v1434h41v-236q122 51 346 51t369 -135t145 -345t-142 -346t-370 -136h-348v-287h-41z" />
    <glyph glyph-name="germandbls" unicode="&#xdf;" horiz-adv-x="962" 
d="M205 963v-963h-41v963q0 221 102 346t256 125h226q0 -256 -139 -382q-32 -30 -54 -40l-23 -8v-11q38 -6 99 -45t102 -89t74 -147t33 -220q0 -238 -116 -375t-284 -137q-71 0 -108 16l-15 4l11 41q41 -20 112 -21q154 0 256 125t102 345t-98 347q-100 126 -239 126h-72v41
q127 0 222 110t96 279h-185q-137 1 -227 -111t-90 -319z" />
    <glyph glyph-name="agrave" unicode="&#xe0;" horiz-adv-x="952" 
d="M379 1434l143 -226h-41l-143 226h41zM481 20q100 0 164 54q65 54 92 100v635q-101 151 -248 152q-147 2 -246 -124t-99 -345q0 -220 98 -346q100 -126 239 -126zM102 492q0 236 112 374t267 138q68 0 129 -31t90 -62l27 -30h10v102h41v-819l10 -164h-40l-11 102h-10
q-9 -14 -29 -34t-85 -54t-132 -34q-155 0 -267 138t-112 374z" />
    <glyph glyph-name="aacute" unicode="&#xe1;" horiz-adv-x="952" 
d="M461 1208l143 226h41l-143 -226h-41zM481 20q100 0 164 54q65 54 92 100v635q-101 151 -248 152q-147 2 -246 -124t-99 -345q0 -220 98 -346q100 -126 239 -126zM102 492q0 236 112 374t267 138q68 0 129 -31t90 -62l27 -30h10v102h41v-819l10 -164h-40l-11 102h-10
q-9 -14 -29 -34t-85 -54t-132 -34q-155 0 -267 138t-112 374z" />
    <glyph glyph-name="acircumflex" unicode="&#xe2;" horiz-adv-x="952" 
d="M502 1434l184 -226h-41l-164 195l-164 -195h-41l185 226h41zM481 20q100 0 164 54q65 54 92 100v635q-101 151 -248 152q-147 2 -246 -124t-99 -345q0 -220 98 -346q100 -126 239 -126zM102 492q0 236 112 374t267 138q68 0 129 -31t90 -62l27 -30h10v102h41v-819
l10 -164h-40l-11 102h-10q-9 -14 -29 -34t-85 -54t-132 -34q-155 0 -267 138t-112 374z" />
    <glyph glyph-name="atilde" unicode="&#xe3;" horiz-adv-x="952" 
d="M376 1403q46 1 109 -61t99 -62q68 0 82 123h41q-8 -82 -41 -123t-79 -41q-45 0 -109 61t-99 62q-68 0 -82 -123h-41q8 82 41 123t79 41zM481 20q100 0 164 54q65 54 92 100v635q-101 151 -248 152q-147 2 -246 -124t-99 -345q0 -220 98 -346q100 -126 239 -126zM102 492
q0 236 112 374t267 138q68 0 129 -31t90 -62l27 -30h10v102h41v-819l10 -164h-40l-11 102h-10q-9 -14 -29 -34t-85 -54t-132 -34q-155 0 -267 138t-112 374z" />
    <glyph glyph-name="adieresis" unicode="&#xe4;" horiz-adv-x="952" 
d="M573 1290v62h62v-62h-62zM328 1290v62h61v-62h-61zM481 20q100 0 164 54q65 54 92 100v635q-101 151 -248 152q-147 2 -246 -124t-99 -345q0 -220 98 -346q100 -126 239 -126zM102 492q0 236 112 374t267 138q68 0 129 -31t90 -62l27 -30h10v102h41v-819l10 -164h-40
l-11 102h-10q-9 -14 -29 -34t-85 -54t-132 -34q-155 0 -267 138t-112 374z" />
    <glyph glyph-name="aring" unicode="&#xe5;" horiz-adv-x="952" 
d="M317 1321q-1 76 47 125t118 49t116 -49q47 -49 47 -125t-47 -125t-117 -49t-117 49t-47 125zM358 1321q0 -61 34 -97t89 -36t89 36t34 97t-34 97t-89 36t-89 -36t-34 -97zM481 20q100 0 164 54q65 54 92 100v635q-101 151 -248 152q-147 2 -246 -124t-99 -345
q0 -220 98 -346q100 -126 239 -126zM102 492q0 236 112 374t267 138q68 0 129 -31t90 -62l27 -30h10v102h41v-819l10 -164h-40l-11 102h-10q-9 -14 -29 -34t-85 -54t-132 -34q-155 0 -267 138t-112 374z" />
    <glyph glyph-name="ae" unicode="&#xe6;" horiz-adv-x="1495" 
d="M1055 963q-123 0 -203 -109t-94 -301h594q-14 193 -94 301t-203 109zM387 20q131 0 230 126t100 346v20h-338q-123 0 -190 -65t-67 -181t68 -182q66 -64 197 -64zM758 512v-20q0 -224 92 -348t225 -124q99 0 160 56q60 56 86 108l31 -20q-5 -19 -33 -58
q-92 -126 -226 -126q-171 0 -252 111t-91 183l-9 33h-8q-6 -42 -38 -106q-32 -63 -67 -107q-36 -43 -103 -79t-146 -35q-137 0 -217 78t-80 208q0 131 80 209t217 78h338q-15 199 -99 304t-198 106q-68 0 -129 -33t-90 -66l-27 -35l-31 21q65 97 183 138q119 41 214 -11
t152 -165q23 -44 31 -75l8 -30h10q5 29 35 91q31 62 63 102t89 72t127 32q143 0 240 -134t98 -358h-635z" />
    <glyph glyph-name="ccedilla" unicode="&#xe7;" horiz-adv-x="839" 
d="M489 20q147 0 259 164l30 -20q-4 -6 -10 -18t-44 -60q-38 -47 -103 -76q-64 -29 -119 -30v-82h20q60 0 102 -39t42 -99t-52 -104q-52 -45 -135 -45q-84 0 -141 37l-21 14l21 31q61 -41 136 -41t113 33t38 75t-29 70q-29 27 -74 27h-61v123q-141 8 -250 147t-109 370
t112 369t267 138q82 0 151 -39t97 -76l29 -39l-31 -21q-9 14 -29 37t-85 60t-132 37q-139 0 -238 -126t-99 -345q0 -220 98 -346q100 -126 247 -126z" />
    <glyph glyph-name="egrave" unicode="&#xe8;" 
d="M358 1434l144 -226h-41l-144 226h41zM461 963q-121 0 -212 -109t-106 -301h635q-14 193 -105 301t-212 109zM143 492q-1 -220 99 -346t247 -126t259 164l30 -20q-59 -118 -187 -165q-52 -19 -110 -19q-155 0 -267 138t-112 377t106 373t252 136q148 0 254 -132t105 -360
h-676v-20z" />
    <glyph glyph-name="eacute" unicode="&#xe9;" 
d="M440 1208l144 226h41l-144 -226h-41zM461 963q-121 0 -212 -109t-106 -301h635q-14 193 -105 301t-212 109zM143 492q-1 -220 99 -346t247 -126t259 164l30 -20q-59 -118 -187 -165q-52 -19 -110 -19q-155 0 -267 138t-112 377t106 373t252 136q148 0 254 -132t105 -360
h-676v-20z" />
    <glyph glyph-name="ecircumflex" unicode="&#xea;" 
d="M481 1434l185 -226h-41l-164 195l-164 -195h-41l184 226h41zM461 963q-121 0 -212 -109t-106 -301h635q-14 193 -105 301t-212 109zM143 492q-1 -220 99 -346t247 -126t259 164l30 -20q-59 -118 -187 -165q-52 -19 -110 -19q-155 0 -267 138t-112 377t106 373t252 136
q148 0 254 -132t105 -360h-676v-20z" />
    <glyph glyph-name="edieresis" unicode="&#xeb;" 
d="M553 1290v62h61v-62h-61zM307 1290v62h62v-62h-62zM461 963q-121 0 -212 -109t-106 -301h635q-14 193 -105 301t-212 109zM143 492q-1 -220 99 -346t247 -126t259 164l30 -20q-59 -118 -187 -165q-52 -19 -110 -19q-155 0 -267 138t-112 377t106 373t252 136
q148 0 254 -132t105 -360h-676v-20z" />
    <glyph glyph-name="igrave" unicode="&#xec;" horiz-adv-x="368" 
d="M61 1434l144 -226h-41l-144 226h41zM164 0v983h41v-983h-41z" />
    <glyph glyph-name="iacute" unicode="&#xed;" horiz-adv-x="368" 
d="M164 1208l143 226h41l-143 -226h-41zM164 0v983h41v-983h-41z" />
    <glyph glyph-name="icircumflex" unicode="&#xee;" horiz-adv-x="368" 
d="M205 1434l184 -226h-41l-164 195l-164 -195h-40l184 226h41zM164 0v983h41v-983h-41z" />
    <glyph glyph-name="idieresis" unicode="&#xef;" horiz-adv-x="368" 
d="M276 1290v62h62v-62h-62zM31 1290v62h61v-62h-61zM164 0v983h41v-983h-41z" />
    <glyph glyph-name="eth" unicode="&#xf0;" horiz-adv-x="983" 
d="M819 471q0 213 -96 332q-95 119 -241 119t-242 -119t-96 -332t96 -332t241 -119t242 119q96 119 96 332zM860 635v-164q0 -229 -108 -360t-271 -131t-271 131t-108 360t109 360t270 132q72 0 132 -26t95 -61q74 -79 91 -135l10 -24h10q-18 131 -90 262t-135 197l-62 63
l-143 -123l-31 31l144 123q-104 95 -195 145l-31 19h72q82 -41 184 -134l144 123l31 -30l-144 -123q25 -21 89 -104q65 -84 105 -154q39 -70 71 -173t32 -204z" />
    <glyph glyph-name="ntilde" unicode="&#xf1;" 
d="M355 1403q45 1 109 -61t99 -62q68 0 82 123h41q-8 -82 -41 -123t-79 -41t-109 61t-99 62q-68 0 -82 -123h-40q8 82 40 123q33 41 79 41zM717 0v696q0 123 -70 195t-186 72q-77 0 -141 -39t-91 -76l-24 -39v-809h-41v983h41v-102h10q9 14 29 34q20 21 85 55t132 34
q131 0 214 -85t83 -223v-696h-41z" />
    <glyph glyph-name="ograve" unicode="&#xf2;" horiz-adv-x="962" 
d="M379 1434l143 -226h-41l-143 226h41zM143 492q-1 -220 99 -346t239 -126t239 126q99 126 99 346t-99 345q-98 126 -238 126t-240 -126t-99 -345zM102 492q0 236 112 374t268 138t267 -138t111 -374t-112 -374t-267 -138t-267 138t-112 374z" />
    <glyph glyph-name="oacute" unicode="&#xf3;" horiz-adv-x="962" 
d="M440 1208l144 226h41l-144 -226h-41zM143 492q-1 -220 99 -346t239 -126t239 126q99 126 99 346t-99 345q-98 126 -238 126t-240 -126t-99 -345zM102 492q0 236 112 374t268 138t267 -138t111 -374t-112 -374t-267 -138t-267 138t-112 374z" />
    <glyph glyph-name="ocircumflex" unicode="&#xf4;" horiz-adv-x="962" 
d="M502 1434l184 -226h-41l-164 195l-164 -195h-41l185 226h41zM143 492q-1 -220 99 -346t239 -126t239 126q99 126 99 346t-99 345q-98 126 -238 126t-240 -126t-99 -345zM102 492q0 236 112 374t268 138t267 -138t111 -374t-112 -374t-267 -138t-267 138t-112 374z" />
    <glyph glyph-name="otilde" unicode="&#xf5;" horiz-adv-x="962" 
d="M376 1403q46 1 109 -61t99 -62q68 0 82 123h41q-8 -82 -41 -123t-79 -41q-45 0 -109 61t-99 62q-68 0 -82 -123h-41q8 82 41 123t79 41zM143 492q-1 -220 99 -346t239 -126t239 126q99 126 99 346t-99 345q-98 126 -238 126t-240 -126t-99 -345zM102 492q0 236 112 374
t268 138t267 -138t111 -374t-112 -374t-267 -138t-267 138t-112 374z" />
    <glyph glyph-name="odieresis" unicode="&#xf6;" horiz-adv-x="962" 
d="M573 1290v62h62v-62h-62zM328 1290v62h61v-62h-61zM143 492q-1 -220 99 -346t239 -126t239 126q99 126 99 346t-99 345q-98 126 -238 126t-240 -126t-99 -345zM102 492q0 236 112 374t268 138t267 -138t111 -374t-112 -374t-267 -138t-267 138t-112 374z" />
    <glyph glyph-name="divide" unicode="&#xf7;" horiz-adv-x="716" 
d="M317 963v81h82v-81h-82zM317 348v82h82v-82h-82zM82 676v41h553v-41h-553z" />
    <glyph glyph-name="oslash" unicode="&#xf8;" horiz-adv-x="962" 
d="M819 492q-1 110 -27 198t-55 123l-26 35l-435 -742q23 -29 87 -58q63 -28 118 -28q139 0 239 126q99 127 99 346zM143 492q0 -109 27 -199t55 -125l27 -35l432 744q-23 29 -85 57q-62 29 -118 29q-139 0 -239 -126t-99 -345zM102 492q0 236 112 374t267 138q59 0 115 -23
t82 -47l27 -23l43 72h40l-57 -98q14 -14 36 -43q21 -29 57 -130t36 -220q0 -236 -112 -374t-267 -138q-59 0 -115 22t-83 47l-27 23l-41 -72h-41l57 98q-14 14 -35 43q-22 29 -58 130t-36 221z" />
    <glyph glyph-name="ugrave" unicode="&#xf9;" 
d="M358 1434l144 -226h-41l-144 226h41zM205 983v-696q-1 -123 69 -195t178 -72t173 54t92 100v809h41v-983h-41v102h-10q-9 -14 -29 -34t-85 -54t-132 -34q-131 0 -214 85t-83 222v696h41z" />
    <glyph glyph-name="uacute" unicode="&#xfa;" 
d="M420 1208l143 226h41l-143 -226h-41zM205 983v-696q-1 -123 69 -195t178 -72t173 54t92 100v809h41v-983h-41v102h-10q-9 -14 -29 -34t-85 -54t-132 -34q-131 0 -214 85t-83 222v696h41z" />
    <glyph glyph-name="ucircumflex" unicode="&#xfb;" 
d="M481 1434l185 -226h-41l-164 195l-164 -195h-41l184 226h41zM205 983v-696q-1 -123 69 -195t178 -72t173 54t92 100v809h41v-983h-41v102h-10q-9 -14 -29 -34t-85 -54t-132 -34q-131 0 -214 85t-83 222v696h41z" />
    <glyph glyph-name="udieresis" unicode="&#xfc;" 
d="M553 1290v62h61v-62h-61zM307 1290v62h62v-62h-62zM205 983v-696q-1 -123 69 -195t178 -72t173 54t92 100v809h41v-983h-41v102h-10q-9 -14 -29 -34t-85 -54t-132 -34q-131 0 -214 85t-83 222v696h41z" />
    <glyph glyph-name="yacute" unicode="&#xfd;" horiz-adv-x="757" 
d="M338 1208l143 226h41l-143 -226h-41zM205 -266v41h31q53 0 71 61l51 164l-297 983h41l277 -911l276 911h41l-348 -1147q-16 -55 -42 -79t-70 -23h-31z" />
    <glyph glyph-name="thorn" unicode="&#xfe;" horiz-adv-x="942" 
d="M461 963q-77 0 -141 -39t-91 -76l-24 -39v-635q101 -151 248 -152q147 -2 246 124t99 346t-98 345q-100 126 -239 126zM205 102v-368h-41v1700h41v-553h10q9 14 29 34q20 21 85 55t132 34q155 0 267 -138t112 -374t-112 -374t-267 -138q-68 0 -129 30t-90 62l-27 30h-10z
" />
    <glyph glyph-name="ydieresis" unicode="&#xff;" horiz-adv-x="757" 
d="M471 1290v62h61v-62h-61zM225 1290v62h62v-62h-62zM205 -266v41h31q53 0 71 61l51 164l-297 983h41l277 -911l276 911h41l-348 -1147q-16 -55 -42 -79t-70 -23h-31z" />
    <glyph glyph-name="Amacron" unicode="&#x100;" horiz-adv-x="1177" 
d="M393 1751h389v-41h-389v41zM584 1372l-318 -942h645l-317 942h-10zM614 1434l482 -1434h-41l-133 389h-666l-133 -389h-41l481 1434h51z" />
    <glyph glyph-name="amacron" unicode="&#x101;" horiz-adv-x="952" 
d="M287 1341h389v-41h-389v41zM481 20q100 0 164 54q65 54 92 100v635q-101 151 -248 152q-147 2 -246 -124t-99 -345q0 -220 98 -346q100 -126 239 -126zM102 492q0 236 112 374t267 138q68 0 129 -31t90 -62l27 -30h10v102h41v-819l10 -164h-40l-11 102h-10
q-9 -14 -29 -34t-85 -54t-132 -34q-155 0 -267 138t-112 374z" />
    <glyph glyph-name="Abreve" unicode="&#x102;" horiz-adv-x="1177" 
d="M588 1618q-92 0 -150 59q-57 59 -65 166h41q16 -184 174 -184t174 184h41q-7 -105 -65 -165t-150 -60zM584 1372l-318 -942h645l-317 942h-10zM614 1434l482 -1434h-41l-133 389h-666l-133 -389h-41l481 1434h51z" />
    <glyph glyph-name="abreve" unicode="&#x103;" horiz-adv-x="952" 
d="M481 1208q-92 0 -149 60t-66 166h41q16 -184 174 -185q158 0 174 185h41q-8 -106 -66 -166t-149 -60zM481 20q100 0 164 54q65 54 92 100v635q-101 151 -248 152q-147 2 -246 -124t-99 -345q0 -220 98 -346q100 -126 239 -126zM102 492q0 236 112 374t267 138
q68 0 129 -31t90 -62l27 -30h10v102h41v-819l10 -164h-40l-11 102h-10q-9 -14 -29 -34t-85 -54t-132 -34q-155 0 -267 138t-112 374z" />
    <glyph glyph-name="Aogonek" unicode="&#x104;" horiz-adv-x="1177" 
d="M584 1372l-318 -942h645l-317 942h-10zM1024 -348q52 0 113 41l20 -31q-51 -51 -130 -51t-123 40t-44 101q0 60 49 122t99 93l47 33l-133 389h-666l-133 -389h-41l481 1434h51l482 -1434q-22 -11 -62 -45q-133 -113 -133 -201q0 -102 123 -102z" />
    <glyph glyph-name="aogonek" unicode="&#x105;" horiz-adv-x="952" 
d="M481 20q100 0 164 54q65 54 92 100v635q-101 151 -248 152q-147 2 -246 -124t-99 -345q0 -220 98 -346q100 -126 239 -126zM717 -348q55 0 112 41l21 -31q-51 -51 -130 -51t-123 40t-44 101q0 60 49 122t98 93l48 33l-11 102h-10q-9 -14 -29 -34t-85 -54t-132 -34
q-155 0 -267 138t-112 374t112 374t267 138q68 0 129 -31t90 -62l27 -30h10v102h41v-819l10 -164q-20 -10 -60 -44q-137 -116 -134 -202q0 -102 123 -102z" />
    <glyph glyph-name="Cacute" unicode="&#x106;" horiz-adv-x="1208" 
d="M655 1618l144 225h41l-144 -225h-41zM143 717q0 329 167 533t386 204q169 0 329 -138q36 -32 52 -54l19 -23l-31 -31q-6 8 -16 22q-11 14 -47 50q-141 136 -306 133q-204 0 -358 -190q-154 -189 -154 -505t154 -506t358 -192q72 0 140 26t139 84t104 112l17 24l30 -20
q-6 -10 -17 -28t-51 -65q-40 -46 -86 -81t-121 -64t-155 -28q-219 0 -386 204t-167 533z" />
    <glyph glyph-name="cacute" unicode="&#x107;" horiz-adv-x="839" 
d="M440 1208l144 226h41l-144 -226h-41zM489 20q147 0 259 164l30 -20q-59 -118 -187 -165q-52 -19 -110 -19q-155 0 -267 138t-112 374t112 374t267 138q82 0 151 -39t97 -76l29 -39l-31 -21q-9 14 -29 37t-85 60t-132 37q-139 0 -238 -126t-99 -345q0 -220 98 -346
q100 -126 247 -126z" />
    <glyph glyph-name="Ccircumflex" unicode="&#x108;" horiz-adv-x="1208" 
d="M717 1843l184 -225h-41l-164 194l-164 -194h-40l184 225h41zM143 717q0 329 167 533t386 204q169 0 329 -138q36 -32 52 -54l19 -23l-31 -31q-6 8 -16 22q-11 14 -47 50q-141 136 -306 133q-204 0 -358 -190q-154 -189 -154 -505t154 -506t358 -192q72 0 140 26t139 84
t104 112l17 24l30 -20q-6 -10 -17 -28t-51 -65q-40 -46 -86 -81t-121 -64t-155 -28q-219 0 -386 204t-167 533z" />
    <glyph glyph-name="ccircumflex" unicode="&#x109;" horiz-adv-x="839" 
d="M481 1434l185 -226h-41l-164 195l-164 -195h-41l184 226h41zM489 20q147 0 259 164l30 -20q-59 -118 -187 -165q-52 -19 -110 -19q-155 0 -267 138t-112 374t112 374t267 138q82 0 151 -39t97 -76l29 -39l-31 -21q-9 14 -29 37t-85 60t-132 37q-139 0 -238 -126t-99 -345
q0 -220 98 -346q100 -126 247 -126z" />
    <glyph glyph-name="Ccaron" unicode="&#x10c;" horiz-adv-x="1208" 
d="M676 1618l-184 225h40l164 -194l164 194h41l-184 -225h-41zM143 717q0 329 167 533t386 204q169 0 329 -138q36 -32 52 -54l19 -23l-31 -31q-6 8 -16 22q-11 14 -47 50q-141 136 -306 133q-204 0 -358 -190q-154 -189 -154 -505t154 -506t358 -192q72 0 140 26t139 84
t104 112l17 24l30 -20q-6 -10 -17 -28t-51 -65q-40 -46 -86 -81t-121 -64t-155 -28q-219 0 -386 204t-167 533z" />
    <glyph glyph-name="ccaron" unicode="&#x10d;" horiz-adv-x="839" 
d="M440 1208l-184 226h41l164 -195l164 195h41l-185 -226h-41zM489 20q147 0 259 164l30 -20q-59 -118 -187 -165q-52 -19 -110 -19q-155 0 -267 138t-112 374t112 374t267 138q82 0 151 -39t97 -76l29 -39l-31 -21q-9 14 -29 37t-85 60t-132 37q-139 0 -238 -126t-99 -345
q0 -220 98 -346q100 -126 247 -126z" />
    <glyph glyph-name="Dcaron" unicode="&#x10e;" horiz-adv-x="1269" 
d="M532 1618l-184 225h41l164 -194l164 194h41l-185 -225h-41zM1085 721q0 313 -156 503q-157 189 -376 189q-86 0 -158 -12t-100 -25l-29 -14v-1321h307q211 0 362 183q150 184 150 497zM225 0v1393q113 61 337 61t394 -203t170 -531t-164 -524t-389 -196h-348z" />
    <glyph glyph-name="dcaron" unicode="&#x10f;" horiz-adv-x="993" 
d="M952 1352h-41v82h82v-62q0 -40 -17 -66t-36 -32l-18 -4l-11 20q41 11 41 62zM481 20q100 0 164 54q65 54 92 100v635q-101 151 -248 152q-147 2 -246 -124t-99 -345q0 -220 98 -346q100 -126 239 -126zM737 0v102h-10q-9 -14 -29 -34t-85 -54t-132 -34q-155 0 -267 138
t-112 374t112 374t267 138q68 0 129 -31t90 -62l27 -30h10v553h41v-1434h-41z" />
    <glyph glyph-name="Dcroat" unicode="&#x110;" horiz-adv-x="1269" 
d="M1085 721q0 313 -156 503q-157 189 -376 189q-86 0 -158 -12t-100 -25l-29 -14v-379h348v-41h-348v-901h307q211 0 362 183q150 184 150 497zM82 942v41h143v410q113 61 337 61t394 -203t170 -531t-164 -524t-389 -196h-348v942h-143z" />
    <glyph glyph-name="dcroat" unicode="&#x111;" horiz-adv-x="962" 
d="M481 20q100 0 164 54q65 54 92 100v553q-101 151 -254 152q-155 2 -247 -109q-92 -112 -92 -320t92 -319q94 -111 245 -111zM737 0v102h-10q-9 -14 -29 -34t-85 -54t-132 -34q-168 0 -273 124q-106 124 -106 346q0 224 106 348t273 124q68 0 129 -31t90 -62l27 -30h10
v327h-235v41h235v267h41v-267h123v-41h-123v-1126h-41z" />
    <glyph glyph-name="Emacron" unicode="&#x112;" horiz-adv-x="1044" 
d="M379 1751h389v-41h-389v41zM225 0v1434h697v-41h-656v-410h574v-41h-574v-901h697v-41h-738z" />
    <glyph glyph-name="emacron" unicode="&#x113;" 
d="M266 1341h389v-41h-389v41zM461 963q-121 0 -212 -109t-106 -301h635q-14 193 -105 301t-212 109zM143 492q-1 -220 99 -346t247 -126t259 164l30 -20q-59 -118 -187 -165q-52 -19 -110 -19q-155 0 -267 138t-112 377t106 373t252 136q148 0 254 -132t105 -360h-676v-20z
" />
    <glyph glyph-name="Edotaccent" unicode="&#x116;" horiz-adv-x="1044" 
d="M543 1700v61h61v-61h-61zM225 0v1434h697v-41h-656v-410h574v-41h-574v-901h697v-41h-738z" />
    <glyph glyph-name="edotaccent" unicode="&#x117;" 
d="M430 1372v62h62v-62h-62zM461 963q-121 0 -212 -109t-106 -301h635q-14 193 -105 301t-212 109zM143 492q-1 -220 99 -346t247 -126t259 164l30 -20q-59 -118 -187 -165q-52 -19 -110 -19q-155 0 -267 138t-112 377t106 373t252 136q148 0 254 -132t105 -360h-676v-20z
" />
    <glyph glyph-name="Eogonek" unicode="&#x118;" horiz-adv-x="1044" 
d="M891 -348q51 0 113 41l20 -31q-51 -51 -130 -51t-123 40t-44 101q0 60 48 122t97 93l50 33h-697v1434h697v-41h-656v-410h574v-41h-574v-901h697v-41q-22 -11 -62 -45q-133 -113 -133 -201q0 -102 123 -102z" />
    <glyph glyph-name="eogonek" unicode="&#x119;" 
d="M461 963q-121 0 -212 -109t-106 -301h635q-14 193 -105 301t-212 109zM522 -348q56 0 113 41l20 -31q-51 -51 -130 -51t-123 40t-44 99q0 60 41 116t82 85l41 29h-41q-155 0 -267 138t-112 377t106 373t252 136q148 0 254 -132t105 -360h-676v-20q-1 -220 99 -346
t247 -126t259 164l30 -20q-20 -40 -75 -91q-54 -50 -109 -73q-22 -11 -62 -45q-133 -113 -133 -201q0 -102 123 -102z" />
    <glyph glyph-name="Ecaron" unicode="&#x11a;" horiz-adv-x="1044" 
d="M553 1618l-184 225h41l163 -194l164 194h41l-184 -225h-41zM225 0v1434h697v-41h-656v-410h574v-41h-574v-901h697v-41h-738z" />
    <glyph glyph-name="ecaron" unicode="&#x11b;" 
d="M440 1208l-184 226h41l164 -195l164 195h41l-185 -226h-41zM461 963q-121 0 -212 -109t-106 -301h635q-14 193 -105 301t-212 109zM143 492q-1 -220 99 -346t247 -126t259 164l30 -20q-59 -118 -187 -165q-52 -19 -110 -19q-155 0 -267 138t-112 377t106 373t252 136
q148 0 254 -132t105 -360h-676v-20z" />
    <glyph glyph-name="Gbreve" unicode="&#x11e;" horiz-adv-x="1310" 
d="M676 1618q-92 0 -150 59q-57 59 -65 166h41q14 -184 174 -184t174 184h41q-7 -105 -65 -165t-150 -60zM1065 0v154h-10q-14 -22 -54 -56q-39 -34 -77 -58q-95 -60 -228 -60q-219 0 -386 204t-167 533t167 533t386 204q169 0 329 -138q36 -32 52 -54l19 -23l-31 -31
q-6 8 -16 22q-11 14 -47 50q-141 136 -306 133q-204 0 -358 -190q-154 -189 -154 -505t154 -506t358 -192q125 0 221 67q97 67 132 118l16 20v410h-389v41h430v-676h-41z" />
    <glyph glyph-name="gbreve" unicode="&#x11f;" horiz-adv-x="942" 
d="M481 1208q-92 0 -149 60t-66 166h41q16 -184 174 -185q158 0 174 185h41q-8 -106 -66 -166t-149 -60zM481 20q100 0 164 54q65 54 92 100v635q-101 151 -248 152q-147 2 -246 -124t-99 -345q0 -220 98 -346q100 -126 239 -126zM737 20v82h-10q-9 -14 -29 -34t-85 -54
t-132 -34q-155 0 -267 138t-112 374t112 374t267 138q68 0 129 -31t90 -62l27 -30h10v102h41v-963q0 -137 -83 -222t-214 -85q-79 0 -145 26t-94 52l-27 25l21 30q35 -35 106 -63q72 -29 139 -29q117 0 187 72t69 194z" />
    <glyph glyph-name="Gcommaaccent" unicode="&#x122;" horiz-adv-x="1310" 
d="M696 -225h-41v82h82v-62q0 -41 -18 -67t-35 -31l-18 -4l-11 20q41 11 41 62zM1065 0v154h-10q-14 -22 -54 -56q-39 -34 -77 -58q-95 -60 -228 -60q-219 0 -386 204t-167 533t167 533t386 204q169 0 329 -138q36 -32 52 -54l19 -23l-31 -31q-6 8 -16 22q-11 14 -47 50
q-141 136 -306 133q-204 0 -358 -190q-154 -189 -154 -505t154 -506t358 -192q125 0 221 67q97 67 132 118l16 20v410h-389v41h430v-676h-41z" />
    <glyph glyph-name="gcommaaccent" unicode="&#x123;" horiz-adv-x="942" 
d="M481 1321h41v-82h-82v61q0 41 18 67t36 30l18 6l10 -21q-41 -10 -41 -61zM481 20q100 0 164 54q65 54 92 100v635q-101 151 -248 152q-147 2 -246 -124t-99 -345q0 -220 98 -346q100 -126 239 -126zM737 20v82h-10q-9 -14 -29 -34t-85 -54t-132 -34q-155 0 -267 138
t-112 374t112 374t267 138q68 0 129 -31t90 -62l27 -30h10v102h41v-963q0 -137 -83 -222t-214 -85q-79 0 -145 26t-94 52l-27 25l21 30q35 -35 106 -63q72 -29 139 -29q117 0 187 72t69 194z" />
    <glyph glyph-name="Imacron" unicode="&#x12a;" horiz-adv-x="512" 
d="M61 1751h390v-41h-390v41zM236 0v1434h40v-1434h-40z" />
    <glyph glyph-name="imacron" unicode="&#x12b;" horiz-adv-x="368" 
d="M-10 1341h389v-41h-389v41zM164 0v983h41v-983h-41z" />
    <glyph glyph-name="Iogonek" unicode="&#x12e;" horiz-adv-x="512" 
d="M205 -348q55 0 112 41l21 -31q-51 -51 -130 -51t-123 40t-44 101q0 60 49 122t98 93l48 33v1434h40v-1434q-20 -10 -60 -44q-137 -116 -134 -202q0 -102 123 -102z" />
    <glyph glyph-name="iogonek" unicode="&#x12f;" horiz-adv-x="378" 
d="M143 1372v62h62v-62h-62zM123 -348q51 0 113 41l20 -31q-51 -51 -130 -51t-123 40t-44 101q0 60 48 122t97 93l50 33v983h41v-983q-22 -11 -62 -45q-133 -113 -133 -201q0 -102 123 -102z" />
    <glyph glyph-name="Idotaccent" unicode="&#x130;" horiz-adv-x="512" 
d="M225 1700v61h62v-61h-62zM236 0v1434h40v-1434h-40z" />
    <glyph glyph-name="dotlessi" unicode="&#x131;" horiz-adv-x="368" 
d="M164 0v983h41v-983h-41z" />
    <glyph glyph-name="Kcommaaccent" unicode="&#x136;" horiz-adv-x="1157" 
d="M635 -225h-41v82h82v-62q0 -41 -18 -67t-35 -31l-19 -4l-10 20q41 11 41 62zM266 0h-41v1434h41v-922l697 922h51l-482 -635l564 -799h-52l-542 768l-236 -317v-451z" />
    <glyph glyph-name="kcommaaccent" unicode="&#x137;" horiz-adv-x="839" 
d="M461 -225h-41v82h82v-62q0 -41 -18 -67t-35 -31l-19 -4l-10 20q41 11 41 62zM205 0h-41v1434h41v-1065l502 614h51l-348 -430l389 -553h-51l-369 522l-174 -215v-307z" />
    <glyph glyph-name="Lacute" unicode="&#x139;" horiz-adv-x="1024" 
d="M225 1618l144 225h41l-144 -225h-41zM225 0v1434h41v-1393h676v-41h-717z" />
    <glyph glyph-name="lacute" unicode="&#x13a;" horiz-adv-x="409" 
d="M164 1618l143 225h41l-143 -225h-41zM164 102v1332h41v-1332q0 -61 61 -61h21l-11 -41h-10q-46 0 -74 28t-28 74z" />
    <glyph glyph-name="Lcommaaccent" unicode="&#x13b;" horiz-adv-x="1024" 
d="M584 -225h-41v82h82v-62q1 -41 -17 -67t-37 -31l-18 -4l-10 20q41 11 41 62zM225 0v1434h41v-1393h676v-41h-717z" />
    <glyph glyph-name="lcommaaccent" unicode="&#x13c;" horiz-adv-x="409" 
d="M225 -225h-41v82h82v-62q0 -41 -18 -67t-35 -31l-18 -4l-11 20q41 11 41 62zM164 102v1332h41v-1332q0 -61 61 -61h21l-11 -41h-10q-46 0 -74 28t-28 74z" />
    <glyph glyph-name="Lcaron" unicode="&#x13d;" horiz-adv-x="1024" 
d="M492 1352h-41v82h81v-62q0 -40 -18 -66t-35 -32l-18 -4l-10 20q41 11 41 62zM225 0v1434h41v-1393h676v-41h-717z" />
    <glyph glyph-name="lcaron" unicode="&#x13e;" horiz-adv-x="419" 
d="M379 1352h-41v82h82v-62q0 -40 -18 -66t-35 -32l-19 -4l-10 20q41 11 41 62zM164 102v1332h41v-1332q0 -61 61 -61h21l-11 -41h-10q-46 0 -74 28t-28 74z" />
    <glyph glyph-name="Lslash" unicode="&#x141;" horiz-adv-x="1034" 
d="M236 0v614l-175 -102v41l175 102v779h40v-758l420 246v-41l-420 -246v-594h676v-41h-716z" />
    <glyph glyph-name="lslash" unicode="&#x142;" horiz-adv-x="399" 
d="M164 1434h41v-564l153 113v-41l-153 -113v-727q0 -61 61 -61h21l-11 -41h-10q-46 0 -74 29t-28 73v697l-123 -92v41l123 92v594z" />
    <glyph glyph-name="Nacute" unicode="&#x143;" horiz-adv-x="1372" 
d="M645 1618l143 225h41l-143 -225h-41zM266 1331v-1331h-41v1434h41l830 -1332h10v1332h41v-1434h-41l-830 1331h-10z" />
    <glyph glyph-name="nacute" unicode="&#x144;" 
d="M399 1208l144 226h41l-144 -226h-41zM717 0v696q0 123 -70 195t-186 72q-77 0 -141 -39t-91 -76l-24 -39v-809h-41v983h41v-102h10q9 14 29 34q20 21 85 55t132 34q131 0 214 -85t83 -223v-696h-41z" />
    <glyph glyph-name="Ncommaaccent" unicode="&#x145;" horiz-adv-x="1372" 
d="M686 -225h-41v82h82v-62q0 -41 -17 -67t-36 -31l-19 -4l-10 20q41 11 41 62zM266 1331v-1331h-41v1434h41l830 -1332h10v1332h41v-1434h-41l-830 1331h-10z" />
    <glyph glyph-name="ncommaaccent" unicode="&#x146;" 
d="M461 -225h-41v82h82v-62q0 -41 -18 -67t-35 -31l-19 -4l-10 20q41 11 41 62zM717 0v696q0 123 -70 195t-186 72q-77 0 -141 -39t-91 -76l-24 -39v-809h-41v983h41v-102h10q9 14 29 34q20 21 85 55t132 34q131 0 214 -85t83 -223v-696h-41z" />
    <glyph glyph-name="Ncaron" unicode="&#x147;" horiz-adv-x="1372" 
d="M666 1618l-185 225h41l164 -194l164 194h41l-184 -225h-41zM266 1331v-1331h-41v1434h41l830 -1332h10v1332h41v-1434h-41l-830 1331h-10z" />
    <glyph glyph-name="ncaron" unicode="&#x148;" 
d="M440 1208l-184 226h41l164 -195l164 195h41l-185 -226h-41zM717 0v696q0 123 -70 195t-186 72q-77 0 -141 -39t-91 -76l-24 -39v-809h-41v983h41v-102h10q9 14 29 34q20 21 85 55t132 34q131 0 214 -85t83 -223v-696h-41z" />
    <glyph glyph-name="Omacron" unicode="&#x14c;" horiz-adv-x="1392" 
d="M502 1751h389v-41h-389v41zM184 717q0 -315 154 -505t358 -192q204 0 359 190q153 190 153 506t-153 507q-154 190 -359 190q-204 -1 -358 -191t-154 -505zM143 717q0 329 167 533t386 204t386 -204t167 -534t-167 -533t-386 -203t-386 204t-167 533z" />
    <glyph glyph-name="omacron" unicode="&#x14d;" horiz-adv-x="962" 
d="M287 1341h389v-41h-389v41zM143 492q-1 -220 99 -346t239 -126t239 126q99 126 99 346t-99 345q-98 126 -238 126t-240 -126t-99 -345zM102 492q0 236 112 374t268 138t267 -138t111 -374t-112 -374t-267 -138t-267 138t-112 374z" />
    <glyph glyph-name="Ohungarumlaut" unicode="&#x150;" horiz-adv-x="1392" 
d="M819 1618l144 225h41l-144 -225h-41zM532 1618l144 225h41l-144 -225h-41zM184 717q0 -315 154 -505t358 -192q204 0 359 190q153 190 153 506t-153 507q-154 190 -359 190q-204 -1 -358 -191t-154 -505zM143 717q0 329 167 533t386 204t386 -204t167 -534t-167 -533
t-386 -203t-386 204t-167 533z" />
    <glyph glyph-name="ohungarumlaut" unicode="&#x151;" horiz-adv-x="962" 
d="M604 1208l144 226h40l-143 -226h-41zM317 1208l144 226h41l-144 -226h-41zM143 492q-1 -220 99 -346t239 -126t239 126q99 126 99 346t-99 345q-98 126 -238 126t-240 -126t-99 -345zM102 492q0 236 112 374t268 138t267 -138t111 -374t-112 -374t-267 -138t-267 138
t-112 374z" />
    <glyph glyph-name="OE" unicode="&#x152;" horiz-adv-x="1587" 
d="M809 1393h-113q-212 1 -362 -183t-150 -493t151 -493t361 -183h113v1352zM1505 0h-809q-225 0 -389 197t-164 521t164 520t389 196h768v-41h-614v-410h532v-41h-532v-901h655v-41z" />
    <glyph glyph-name="oe" unicode="&#x153;" horiz-adv-x="1556" 
d="M143 492q1 -224 93 -348t225 -124t225 123t92 349t-92 348q-92 123 -225 123t-225 -123t-93 -348zM1116 963q-123 0 -203 -109t-94 -301h594q-14 193 -94 301t-203 109zM102 492q0 242 106 376t253 136q74 0 136 -33t97 -80q78 -104 92 -172l9 -33h8q8 45 33 106
q25 60 55 101q31 41 91 76t134 35q142 0 240 -134t98 -358h-635v-20q0 -224 92 -348t226 -124q101 0 160 56t85 108l31 -20q-5 -22 -34 -59q-29 -39 -57 -63t-78 -43t-116 -19t-128 32t-97 79q-73 97 -92 173l-8 33h-8q-6 -37 -37 -102q-31 -64 -65 -105t-96 -76t-136 -34
q-147 0 -253 135t-106 377z" />
    <glyph glyph-name="Racute" unicode="&#x154;" horiz-adv-x="1310" 
d="M604 1618l144 225h40l-143 -225h-41zM666 553q204 0 332 125t128 309t-131 305t-356 121t-336 -37l-37 -14v-809h400zM266 512v-512h-41v1393q143 61 420 61q233 0 377 -134t145 -337q1 -100 -35 -183t-88 -131q-109 -101 -188 -124l-37 -13v-10l348 -522h-51l-338 512
h-512z" />
    <glyph glyph-name="racute" unicode="&#x155;" horiz-adv-x="624" 
d="M338 1208l143 226h41l-143 -226h-41zM394 963q-50 0 -98 -39t-71 -76l-20 -39v-809h-41v983h41v-102h10q25 44 80 83q55 40 107 40t98 -31t65 -62l19 -30l-31 -21q-6 12 -17 28q-12 16 -52 46q-40 29 -90 29z" />
    <glyph glyph-name="Rcommaaccent" unicode="&#x156;" horiz-adv-x="1310" 
d="M666 -225h-41v82h82v-62q1 -41 -17 -67t-37 -31l-18 -4l-10 20q41 11 41 62zM666 553q204 0 332 125t128 309t-131 305t-356 121t-336 -37l-37 -14v-809h400zM266 512v-512h-41v1393q143 61 420 61q233 0 377 -134t145 -337q1 -100 -35 -183t-88 -131
q-109 -101 -188 -124l-37 -13v-10l348 -522h-51l-338 512h-512z" />
    <glyph glyph-name="rcommaaccent" unicode="&#x157;" horiz-adv-x="624" 
d="M184 -225h-41v82h82v-62q0 -41 -18 -67t-35 -31l-18 -4l-11 20q41 11 41 62zM394 963q-50 0 -98 -39t-71 -76l-20 -39v-809h-41v983h41v-102h10q25 44 80 83q55 40 107 40t98 -31t65 -62l19 -30l-31 -21q-6 12 -17 28q-12 16 -52 46q-40 29 -90 29z" />
    <glyph glyph-name="Rcaron" unicode="&#x158;" horiz-adv-x="1310" 
d="M625 1618l-185 225h41l164 -194l164 194h41l-184 -225h-41zM666 553q204 0 332 125t128 309t-131 305t-356 121t-336 -37l-37 -14v-809h400zM266 512v-512h-41v1393q143 61 420 61q233 0 377 -134t145 -337q1 -100 -35 -183t-88 -131q-109 -101 -188 -124l-37 -13v-10
l348 -522h-51l-338 512h-512z" />
    <glyph glyph-name="rcaron" unicode="&#x159;" horiz-adv-x="624" 
d="M348 1208l-184 226h41l164 -195l163 195h41l-184 -226h-41zM394 963q-50 0 -98 -39t-71 -76l-20 -39v-809h-41v983h41v-102h10q25 44 80 83q55 40 107 40t98 -31t65 -62l19 -30l-31 -21q-6 12 -17 28q-12 16 -52 46q-40 29 -90 29z" />
    <glyph glyph-name="Sacute" unicode="&#x15a;" horiz-adv-x="1085" 
d="M492 1618l143 225h41l-144 -225h-40zM532 20q160 0 264 102t105 257q0 94 -40 164q-40 69 -102 111t-139 76t-154 66t-139 70q-63 38 -103 102t-40 148q0 146 98 242t241 96q144 0 235 -71t119 -121l14 -23l-31 -31l-11 22t-36 50q-61 74 -138 104t-143 29
q-137 0 -222 -83t-85 -214q0 -76 40 -133q41 -57 103 -92t204 -92t216 -112q154 -113 154 -295q0 -183 -117 -298t-293 -114q-80 0 -154 28t-147 87q-74 60 -112 122l-17 29l31 20q17 -29 61 -78t87 -82q43 -34 111 -60t140 -26z" />
    <glyph glyph-name="sacute" unicode="&#x15b;" horiz-adv-x="778" 
d="M348 1208l144 226h40l-143 -226h-41zM635 248q0 92 -53 146t-128 82l-150 56t-128 88q-53 58 -53 153t70 163t164 68q93 0 163 -39t98 -76l27 -39l-31 -21q-10 14 -29 37t-84 60t-145 37q-80 -1 -136 -55t-56 -136t53 -132t128 -78t150 -58t128 -90q53 -61 53 -168
t-82 -187t-205 -79q-151 0 -260 118q-25 27 -35 45l-12 21l31 20q107 -161 276 -164q106 0 176 68t70 160z" />
    <glyph glyph-name="Scedilla" unicode="&#x15e;" horiz-adv-x="1085" 
d="M512 -143v123q-78 2 -148 30t-116 68q-100 86 -129 141l-17 27l31 20q17 -29 61 -78t87 -82q43 -34 111 -60t140 -26q160 0 264 102t105 257q0 94 -40 164q-40 69 -102 111t-139 76t-154 66t-139 70q-63 38 -103 102t-40 148q0 146 98 242t241 96q144 0 235 -71t119 -121
l14 -23l-31 -31l-11 22t-36 50q-61 74 -138 104t-143 29q-137 0 -222 -83t-85 -214q0 -76 40 -133q41 -57 103 -92t204 -92t216 -112q154 -113 154 -294q0 -182 -109 -294q-110 -112 -280 -119v-82h20q61 0 103 -39t41 -99q0 -60 -51 -104q-51 -45 -134 -45t-143 37l-20 14
l20 31q61 -41 136 -41t113 33t38 75t-29 70q-29 27 -74 27h-61z" />
    <glyph glyph-name="scedilla" unicode="&#x15f;" horiz-adv-x="778" 
d="M635 248q0 92 -53 146t-128 82l-150 56t-128 88q-53 58 -53 153t70 163t164 68q93 0 163 -39t98 -76l27 -39l-31 -21q-10 14 -29 37t-84 60t-145 37q-80 -1 -136 -55t-56 -136t53 -132t128 -78t150 -58t128 -90q53 -61 53 -167q0 -107 -75 -183t-191 -84v-82h20
q61 0 102 -39t41 -99t-51 -104q-51 -45 -135 -45t-141 37l-21 14l21 31q61 -41 136 -41t113 33q37 33 37 75t-28 70q-29 27 -74 27h-61v123q-109 4 -183 66t-94 99l-10 19l31 20q107 -161 276 -164q106 0 176 68t70 160z" />
    <glyph glyph-name="Scaron" unicode="&#x160;" horiz-adv-x="1085" 
d="M512 1618l-184 225h41l163 -194l164 194h41l-184 -225h-41zM532 20q160 0 264 102t105 257q0 94 -40 164q-40 69 -102 111t-139 76t-154 66t-139 70q-63 38 -103 102t-40 148q0 146 98 242t241 96q144 0 235 -71t119 -121l14 -23l-31 -31l-11 22t-36 50q-61 74 -138 104
t-143 29q-137 0 -222 -83t-85 -214q0 -76 40 -133q41 -57 103 -92t204 -92t216 -112q154 -113 154 -295q0 -183 -117 -298t-293 -114q-80 0 -154 28t-147 87q-74 60 -112 122l-17 29l31 20q17 -29 61 -78t87 -82q43 -34 111 -60t140 -26z" />
    <glyph glyph-name="scaron" unicode="&#x161;" horiz-adv-x="778" 
d="M348 1208l-184 226h41l164 -195l163 195h41l-184 -226h-41zM635 248q0 92 -53 146t-128 82l-150 56t-128 88q-53 58 -53 153t70 163t164 68q93 0 163 -39t98 -76l27 -39l-31 -21q-10 14 -29 37t-84 60t-145 37q-80 -1 -136 -55t-56 -136t53 -132t128 -78t150 -58t128 -90
q53 -61 53 -168t-82 -187t-205 -79q-151 0 -260 118q-25 27 -35 45l-12 21l31 20q107 -161 276 -164q106 0 176 68t70 160z" />
    <glyph glyph-name="Tcommaaccent" unicode="&#x162;" horiz-adv-x="942" 
d="M471 -225h-41v82h82v-62q0 -41 -18 -67t-35 -31l-19 -4l-10 20q41 11 41 62zM492 1393v-1393h-41v1393h-390v41h820v-41h-389z" />
    <glyph glyph-name="tcommaaccent" unicode="&#x163;" horiz-adv-x="501" 
d="M287 -225h-41v82h82v-62q0 -41 -18 -67t-36 -31l-18 -4l-10 20q41 11 41 62zM61 942v41h123v246l41 20v-266h154v-41h-154v-840q0 -61 62 -61h112l-10 -41h-102q-45 0 -74 29t-29 73v840h-123z" />
    <glyph glyph-name="Tcaron" unicode="&#x164;" horiz-adv-x="942" 
d="M451 1618l-185 225h41l164 -194l164 194h41l-184 -225h-41zM492 1393v-1393h-41v1393h-390v41h820v-41h-389z" />
    <glyph glyph-name="tcaron" unicode="&#x165;" horiz-adv-x="501" 
d="M399 1352h-41v82h82v-62q0 -40 -17 -66t-36 -32l-18 -4l-11 20q41 11 41 62zM61 942v41h123v246l41 20v-266h154v-41h-154v-840q0 -61 62 -61h112l-10 -41h-102q-45 0 -74 29t-29 73v840h-123z" />
    <glyph glyph-name="Umacron" unicode="&#x16a;" horiz-adv-x="1372" 
d="M492 1751h389v-41h-389v41zM1106 471v963h41v-963q0 -227 -126 -359t-335 -132t-335 132t-126 359v963h41v-963q0 -213 113 -332t307 -119t308 119q112 119 112 332z" />
    <glyph glyph-name="umacron" unicode="&#x16b;" 
d="M266 1341h389v-41h-389v41zM205 983v-696q-1 -123 69 -195t178 -72t173 54t92 100v809h41v-983h-41v102h-10q-9 -14 -29 -34t-85 -54t-132 -34q-131 0 -214 85t-83 222v696h41z" />
    <glyph glyph-name="Uring" unicode="&#x16e;" horiz-adv-x="1372" 
d="M522 1731q0 77 47 125t117 48t117 -48q47 -50 47 -126t-47 -124q-47 -50 -117 -50t-117 50t-47 125zM563 1731q0 -61 34 -97t89 -37q55 0 89 36q34 35 34 97t-34 98t-89 36t-89 -36t-34 -97zM1106 471v963h41v-963q0 -227 -126 -359t-335 -132t-335 132t-126 359v963h41
v-963q0 -213 113 -332t307 -119t308 119q112 119 112 332z" />
    <glyph glyph-name="uring" unicode="&#x16f;" 
d="M297 1321q0 76 47 125t117 49t117 -49t47 -125t-47 -125t-117 -49t-117 49t-47 125zM338 1321q0 -61 34 -97t89 -36t89 36t34 97t-34 97t-89 36t-89 -36t-34 -97zM205 983v-696q-1 -123 69 -195t178 -72t173 54t92 100v809h41v-983h-41v102h-10q-9 -14 -29 -34t-85 -54
t-132 -34q-131 0 -214 85t-83 222v696h41z" />
    <glyph glyph-name="Uhungarumlaut" unicode="&#x170;" horiz-adv-x="1372" 
d="M788 1618l144 225h41l-144 -225h-41zM502 1618l143 225h41l-143 -225h-41zM1106 471v963h41v-963q0 -227 -126 -359t-335 -132t-335 132t-126 359v963h41v-963q0 -213 113 -332t307 -119t308 119q112 119 112 332z" />
    <glyph glyph-name="uhungarumlaut" unicode="&#x171;" 
d="M573 1208l144 226h41l-144 -226h-41zM287 1208l143 226h41l-143 -226h-41zM205 983v-696q-1 -123 69 -195t178 -72t173 54t92 100v809h41v-983h-41v102h-10q-9 -14 -29 -34t-85 -54t-132 -34q-131 0 -214 85t-83 222v696h41z" />
    <glyph glyph-name="Uogonek" unicode="&#x172;" horiz-adv-x="1372" 
d="M707 -348q55 0 112 41l21 -31q-51 -51 -130 -51t-123 40t-44 99q0 60 41 116t82 85l41 29h-21q-209 0 -335 132t-126 359v963h41v-963q0 -213 113 -332t307 -119t308 119q112 119 112 332v963h41v-963q0 -215 -112 -345t-287 -146q-103 -69 -147 -159q-17 -36 -17 -67
q0 -102 123 -102z" />
    <glyph glyph-name="uogonek" unicode="&#x173;" 
d="M686 -348q52 0 113 41l20 -31q-51 -51 -130 -51t-123 40t-44 101q0 60 48 122t98 93l49 33v102h-10q-9 -14 -29 -34t-85 -54t-132 -34q-131 0 -214 85t-83 222v696h41v-696q-1 -123 69 -195t178 -72t173 54t92 100v809h41v-983q-22 -11 -62 -45q-133 -113 -133 -201
q0 -102 123 -102z" />
    <glyph glyph-name="Ydieresis" unicode="&#x178;" horiz-adv-x="1064" 
d="M625 1700v61h61v-61h-61zM379 1700v61h61v-61h-61zM512 0v758l-451 676h52l415 -625h9l415 625h52l-451 -676v-758h-41z" />
    <glyph glyph-name="Zacute" unicode="&#x179;" horiz-adv-x="1044" 
d="M512 1618l143 225h41l-143 -225h-41zM82 0v41l829 1352h-768v41h820v-41l-830 -1352h830v-41h-881z" />
    <glyph glyph-name="zacute" unicode="&#x17a;" horiz-adv-x="716" 
d="M338 1208l143 226h41l-143 -226h-41zM123 942v41h512v-41l-502 -901h502v-41h-553v41l502 901h-461z" />
    <glyph glyph-name="Zdotaccent" unicode="&#x17b;" horiz-adv-x="1044" 
d="M522 1700v61h62v-61h-62zM82 0v41l829 1352h-768v41h820v-41l-830 -1352h830v-41h-881z" />
    <glyph glyph-name="zdotaccent" unicode="&#x17c;" horiz-adv-x="716" 
d="M338 1372v62h61v-62h-61zM123 942v41h512v-41l-502 -901h502v-41h-553v41l502 901h-461z" />
    <glyph glyph-name="Zcaron" unicode="&#x17d;" horiz-adv-x="1044" 
d="M512 1618l-184 225h41l163 -194l164 194h41l-184 -225h-41zM82 0v41l829 1352h-768v41h820v-41l-830 -1352h830v-41h-881z" />
    <glyph glyph-name="zcaron" unicode="&#x17e;" horiz-adv-x="716" 
d="M348 1208l-184 226h41l164 -195l163 195h41l-184 -226h-41zM123 942v41h512v-41l-502 -901h502v-41h-553v41l502 901h-461z" />
    <glyph glyph-name="florin" unicode="&#x192;" horiz-adv-x="471" 
d="M82 942v41h123v266q0 45 28 74q29 29 74 29h82v-41h-82q-61 0 -61 -62v-266h143v-41h-143v-1106q0 -45 -29 -74t-74 -28h-10l-10 41h20q61 0 62 61v1106h-123z" />
    <glyph glyph-name="Scommaaccent" unicode="&#x218;" horiz-adv-x="1085" 
d="M532 -225h-40v82h81v-62q0 -41 -18 -67t-35 -31l-18 -4l-10 20q40 11 40 62zM532 20q160 0 264 102t105 257q0 94 -40 164q-40 69 -102 111t-139 76t-154 66t-139 70q-63 38 -103 102t-40 148q0 146 98 242t241 96q144 0 235 -71t119 -121l14 -23l-31 -31l-11 22t-36 50
q-61 74 -138 104t-143 29q-137 0 -222 -83t-85 -214q0 -76 40 -133q41 -57 103 -92t204 -92t216 -112q154 -113 154 -295q0 -183 -117 -298t-293 -114q-80 0 -154 28t-147 87q-74 60 -112 122l-17 29l31 20q17 -29 61 -78t87 -82q43 -34 111 -60t140 -26z" />
    <glyph glyph-name="scommaaccent" unicode="&#x219;" horiz-adv-x="778" 
d="M389 -225h-41v82h82v-62q0 -41 -18 -67t-35 -31l-19 -4l-10 20q41 11 41 62zM635 248q0 92 -53 146t-128 82l-150 56t-128 88q-53 58 -53 153t70 163t164 68q93 0 163 -39t98 -76l27 -39l-31 -21q-10 14 -29 37t-84 60t-145 37q-80 -1 -136 -55t-56 -136t53 -132t128 -78
t150 -58t128 -90q53 -61 53 -168t-82 -187t-205 -79q-151 0 -260 118q-25 27 -35 45l-12 21l31 20q107 -161 276 -164q106 0 176 68t70 160z" />
    <glyph glyph-name="afii57929" unicode="&#x2bc;" horiz-adv-x="204" 
d="M102 1352h-41v82h82v-62q0 -40 -18 -66t-35 -32l-18 -4l-11 20q41 11 41 62z" />
    <glyph glyph-name="circumflex" unicode="&#x2c6;" horiz-adv-x="532" 
d="M287 1434l184 -226h-41l-164 195l-164 -195h-41l185 226h41z" />
    <glyph glyph-name="caron" unicode="&#x2c7;" horiz-adv-x="532" 
d="M246 1208l-185 226h41l164 -195l164 195h41l-184 -226h-41z" />
    <glyph glyph-name="breve" unicode="&#x2d8;" horiz-adv-x="552" 
d="M276 1208q-92 0 -149 60t-66 166h41q16 -184 174 -185q158 0 175 185h41q-8 -106 -66 -166t-150 -60z" />
    <glyph glyph-name="dotaccent" unicode="&#x2d9;" horiz-adv-x="184" 
d="M61 1372v62h62v-62h-62z" />
    <glyph glyph-name="ring" unicode="&#x2da;" horiz-adv-x="450" 
d="M61 1321q-1 76 47 125t118 49t116 -49q47 -49 47 -125t-47 -125t-117 -49t-117 49t-47 125zM102 1321q0 -61 34 -97t89 -36t89 36t34 97t-34 97t-89 36t-89 -36t-34 -97z" />
    <glyph glyph-name="ogonek" unicode="&#x2db;" horiz-adv-x="419" 
d="M225 -348q56 0 113 41l20 -31q-51 -51 -130 -51t-123 40t-44 101q-1 60 49 122t99 93l47 33h41q-22 -11 -62 -45q-133 -113 -133 -201q0 -102 123 -102z" />
    <glyph glyph-name="tilde" unicode="&#x2dc;" horiz-adv-x="573" 
d="M181 1403q45 1 109 -61t99 -62q68 0 82 123h41q-8 -82 -41 -123t-79 -41t-109 61t-99 62q-68 0 -82 -123h-41q8 82 41 123t79 41z" />
    <glyph glyph-name="hungarumlaut" unicode="&#x2dd;" horiz-adv-x="593" 
d="M348 1208l144 226h40l-143 -226h-41zM61 1208l144 226h41l-144 -226h-41z" />
    <glyph glyph-name="afii10023" unicode="&#x401;" horiz-adv-x="1044" 
d="M666 1700v61h61v-61h-61zM420 1700v61h61v-61h-61zM225 0v1434h697v-41h-656v-410h574v-41h-574v-901h697v-41h-738z" />
    <glyph glyph-name="afii10051" unicode="&#x402;" horiz-adv-x="1280" 
d="M1116 430q0 166 -116 278t-297 112t-281 -38l-33 -14v-768h-41v1393h-348v41h758v-41h-369v-584q123 51 317 51t322 -125q129 -125 129 -305t-129 -305t-332 -125v41q188 -1 304 111t116 278z" />
    <glyph glyph-name="afii10052" unicode="&#x403;" horiz-adv-x="942" 
d="M522 1618l144 225h41l-144 -225h-41zM225 0v1434h676v-41h-635v-1393h-41z" />
    <glyph glyph-name="afii10053" unicode="&#x404;" horiz-adv-x="1208" 
d="M143 717q0 329 167 533t386 204q169 0 329 -138q36 -32 52 -54l19 -23l-31 -31q-6 8 -16 22q-11 14 -47 50q-141 136 -306 133q-190 0 -336 -163t-172 -431h641v-41h-645v-61q0 -315 154 -505t358 -192q72 0 140 26t139 84t104 112l17 24l30 -20q-6 -10 -17 -28t-51 -65
q-40 -46 -86 -81t-121 -64t-155 -28q-219 0 -386 204t-167 533z" />
    <glyph glyph-name="afii10054" unicode="&#x405;" horiz-adv-x="1085" 
d="M532 20q160 0 264 102t105 257q0 94 -40 164q-40 69 -102 111t-139 76t-154 66t-139 70q-63 38 -103 102t-40 148q0 146 98 242t241 96q144 0 235 -71t119 -121l14 -23l-31 -31l-11 22t-36 50q-61 74 -138 104t-143 29q-137 0 -222 -83t-85 -214q0 -76 40 -133
q41 -57 103 -92t204 -92t216 -112q154 -113 154 -295q0 -183 -117 -298t-293 -114q-80 0 -154 28t-147 87q-74 60 -112 122l-17 29l31 20q17 -29 61 -78t87 -82q43 -34 111 -60t140 -26z" />
    <glyph glyph-name="afii10055" unicode="&#x406;" horiz-adv-x="491" 
d="M225 0v1434h41v-1434h-41z" />
    <glyph glyph-name="afii10056" unicode="&#x407;" horiz-adv-x="512" 
d="M348 1700v61h62v-61h-62zM102 1700v61h62v-61h-62zM236 0v1434h40v-1434h-40z" />
    <glyph glyph-name="afii10057" unicode="&#x408;" horiz-adv-x="665" 
d="M399 338v1096h41v-1096q0 -338 -317 -338v41q276 0 276 297z" />
    <glyph glyph-name="afii10058" unicode="&#x409;" horiz-adv-x="1925" 
d="M1761 502q0 209 -132 335t-359 126q-96 -1 -173 -13t-106 -24l-28 -15v-870h327q215 0 343 126t128 335zM963 1434v-482q103 52 327 52t368 -138t144 -363q0 -223 -141 -363t-371 -140h-368v1393h-523l-82 -1055q-27 -338 -317 -338v41q130 -1 198 71t78 226l82 1096h605
z" />
    <glyph glyph-name="afii10059" unicode="&#x40a;" horiz-adv-x="2017" 
d="M1853 493q0 201 -132 325t-359 124h-307v-901h327q213 0 342 125t129 327zM225 0v1434h41v-451h748v451h41v-451h307q244 0 388 -137t144 -354q0 -216 -141 -354t-371 -138h-368v942h-748v-942h-41z" />
    <glyph glyph-name="afii10060" unicode="&#x40b;" horiz-adv-x="1290" 
d="M1147 481v-481h-41v481q0 158 -100 248t-292 90t-292 -37l-33 -14v-768h-41v1393h-348v41h758v-41h-369v-584q123 51 327 51t318 -104t113 -275z" />
    <glyph glyph-name="afii10061" unicode="&#x40c;" horiz-adv-x="1126" 
d="M543 1618l143 225h41l-143 -225h-41zM266 778v-778h-41v1434h41v-615h277l389 615h51l-410 -635l492 -799h-51l-471 778h-277z" />
    <glyph glyph-name="afii10062" unicode="&#x40e;" horiz-adv-x="1064" 
d="M532 1618q92 0 150 59q57 59 66 166h40q-8 -123 -78 -195t-178 -71q-108 0 -178 72t-78 194h41q7 -105 65 -165t150 -60zM287 0v41q199 0 256 195l-461 1198h41l440 -1137l379 1137h41l-399 -1198q-39 -120 -109 -178t-188 -58z" />
    <glyph glyph-name="afii10145" unicode="&#x40f;" horiz-adv-x="1372" 
d="M225 0v1434h41v-1393h840v1393h41v-1434h-440v-266h-41v266h-441z" />
    <glyph glyph-name="afii10017" unicode="&#x410;" horiz-adv-x="1177" 
d="M584 1372l-318 -942h645l-317 942h-10zM614 1434l482 -1434h-41l-133 389h-666l-133 -389h-41l481 1434h51z" />
    <glyph glyph-name="afii10018" unicode="&#x411;" horiz-adv-x="1290" 
d="M666 41q204 0 332 125t128 309t-131 305t-356 121t-336 -37l-37 -14v-809h400zM225 0v1434h799v-41h-758v-502q144 51 378 51t378 -134t145 -334q0 -200 -141 -337t-360 -137h-441z" />
    <glyph glyph-name="afii10019" unicode="&#x412;" horiz-adv-x="1249" 
d="M266 819h389q152 0 240 82t88 216t-98 215t-292 81t-294 -37l-33 -14v-543zM1085 410q0 164 -108 266q-109 102 -291 102h-420v-737h420q182 0 291 102q108 103 108 267zM1126 410q0 -178 -122 -294t-318 -116h-461v1393q133 61 355 61t334 -93q110 -93 110 -257
t-138 -257q-32 -22 -55 -30l-22 -8v-10q48 -8 107 -38t100 -68q42 -37 76 -113t34 -170z" />
    <glyph glyph-name="afii10020" unicode="&#x413;" horiz-adv-x="942" 
d="M225 0v1434h676v-41h-635v-1393h-41z" />
    <glyph glyph-name="afii10021" unicode="&#x414;" horiz-adv-x="1228" 
d="M922 41v1352h-553l-82 -1055q-8 -108 -42 -180t-63 -88l-28 -19v-10h768zM963 1434v-1393h143v-307h-41v266h-1004v-266h-41v307h72q45 15 94 90t60 207l82 1096h635z" />
    <glyph glyph-name="afii10022" unicode="&#x415;" horiz-adv-x="1044" 
d="M225 0v1434h697v-41h-656v-410h574v-41h-574v-901h697v-41h-738z" />
    <glyph glyph-name="afii10024" unicode="&#x416;" horiz-adv-x="1679" 
d="M819 819v615h41v-615h277l358 615h41l-369 -635l451 -799h-51l-430 778h-277v-778h-41v778h-276l-430 -778h-52l451 799l-369 635h41l359 -615h276z" />
    <glyph glyph-name="afii10025" unicode="&#x417;" horiz-adv-x="1024" 
d="M901 399q0 -184 -116 -302t-293 -117q-80 0 -154 28t-148 87q-74 60 -112 122l-17 29l31 20q17 -29 61 -78t87 -82q44 -34 112 -60t140 -26q162 0 265 106t103 273t-103 273t-265 106h-164v41h143q152 0 240 82t88 214t-85 215t-237 83t-265 -132q-26 -30 -36 -52
l-12 -21l-31 31q14 28 51 70q128 147 321 146q141 -1 237 -96t98 -243q0 -72 -24 -130q-49 -119 -177 -171l-25 -6v-10q34 -6 92 -41t96 -76t68 -116t31 -167z" />
    <glyph glyph-name="afii10026" unicode="&#x418;" horiz-adv-x="1372" 
d="M225 0v1434h41v-1342h10l830 1342h41v-1434h-41v1341h-10l-830 -1341h-41z" />
    <glyph glyph-name="afii10027" unicode="&#x419;" horiz-adv-x="1372" 
d="M686 1618q92 0 150 59q57 59 65 166h41q-8 -123 -78 -195t-178 -71q-108 0 -178 72t-78 194h41q7 -105 65 -165t150 -60zM225 0v1434h41v-1342h10l830 1342h41v-1434h-41v1341h-10l-830 -1341h-41z" />
    <glyph glyph-name="afii10028" unicode="&#x41a;" horiz-adv-x="1105" 
d="M266 778v-778h-41v1434h41v-615h277l389 615h51l-410 -635l492 -799h-51l-471 778h-277z" />
    <glyph glyph-name="afii10029" unicode="&#x41b;" horiz-adv-x="1249" 
d="M1024 1434v-1434h-41v1393h-584l-82 -1055q-27 -338 -317 -338v41q130 -1 198 71t78 226l82 1096h666z" />
    <glyph glyph-name="afii10030" unicode="&#x41c;" horiz-adv-x="1525" 
d="M266 1331v-1331h-41v1434h51l482 -983h10l481 983h51v-1434h-40v1331h-11l-461 -942h-51l-461 942h-10z" />
    <glyph glyph-name="afii10031" unicode="&#x41d;" horiz-adv-x="1372" 
d="M1106 0v942h-840v-942h-41v1434h41v-451h840v451h41v-1434h-41z" />
    <glyph glyph-name="afii10032" unicode="&#x41e;" horiz-adv-x="1392" 
d="M184 717q0 -315 154 -505t358 -192q204 0 359 190q153 190 153 506t-153 507q-154 190 -359 190q-204 -1 -358 -191t-154 -505zM143 717q0 329 167 533t386 204t386 -204t167 -534t-167 -533t-386 -203t-386 204t-167 533z" />
    <glyph glyph-name="afii10033" unicode="&#x41f;" horiz-adv-x="1372" 
d="M1106 0v1393h-840v-1393h-41v1434h922v-1434h-41z" />
    <glyph glyph-name="afii10034" unicode="&#x420;" horiz-adv-x="1290" 
d="M1106 952q0 203 -139 332t-354 129t-314 -37l-33 -14v-870h348q220 0 356 128t136 332zM225 0v1393q133 61 376 61t395 -141t151 -359t-149 -361q-148 -142 -384 -142h-348v-451h-41z" />
    <glyph glyph-name="afii10035" unicode="&#x421;" horiz-adv-x="1208" 
d="M143 717q0 329 167 533t386 204q169 0 329 -138q36 -32 52 -54l19 -23l-31 -31q-6 8 -16 22q-11 14 -47 50q-141 136 -306 133q-204 0 -358 -190q-154 -189 -154 -505t154 -506t358 -192q72 0 140 26t139 84t104 112l17 24l30 -20q-6 -10 -17 -28t-51 -65
q-40 -46 -86 -81t-121 -64t-155 -28q-219 0 -386 204t-167 533z" />
    <glyph glyph-name="afii10036" unicode="&#x422;" horiz-adv-x="942" 
d="M492 1393v-1393h-41v1393h-390v41h820v-41h-389z" />
    <glyph glyph-name="afii10037" unicode="&#x423;" horiz-adv-x="1064" 
d="M287 0v41q199 0 256 195l-461 1198h41l440 -1137l379 1137h41l-399 -1198q-39 -120 -109 -178t-188 -58z" />
    <glyph glyph-name="afii10038" unicode="&#x424;" horiz-adv-x="1474" 
d="M184 727q0 -211 146 -346t387 -135v962q-241 0 -387 -135t-146 -346zM1290 727q0 211 -145 346t-387 135v-962q242 0 387 135t145 346zM717 0v205q-258 0 -416 147q-158 146 -158 374t158 376t416 147v185h41v-185q258 0 416 -147q158 -146 158 -374t-158 -376
q-158 -147 -416 -147v-205h-41z" />
    <glyph glyph-name="afii10039" unicode="&#x425;" horiz-adv-x="1126" 
d="M1004 1434l-420 -686l460 -748h-51l-430 707l-430 -707h-51l461 748l-420 686h51l389 -646l389 646h52z" />
    <glyph glyph-name="afii10040" unicode="&#x426;" horiz-adv-x="1413" 
d="M225 0v1434h41v-1393h840v1393h41v-1393h143v-307h-41v266h-1024z" />
    <glyph glyph-name="afii10041" unicode="&#x427;" horiz-adv-x="1228" 
d="M963 0v625q-103 -51 -317 -51t-328 102q-114 104 -113 276v482h41v-482q0 -158 100 -248t288 -90t296 37l33 15v768h41v-1434h-41z" />
    <glyph glyph-name="afii10042" unicode="&#x428;" horiz-adv-x="1884" 
d="M225 0v1434h41v-1393h656v1393h41v-1393h655v1393h41v-1434h-1434z" />
    <glyph glyph-name="afii10043" unicode="&#x429;" horiz-adv-x="1925" 
d="M225 0v1434h41v-1393h656v1393h41v-1393h655v1393h41v-1393h143v-307h-41v266h-1536z" />
    <glyph glyph-name="afii10044" unicode="&#x42a;" horiz-adv-x="1351" 
d="M1188 505q0 200 -139 329t-373 129q-187 0 -295 -37l-33 -15v-870h348q219 0 356 132q136 132 136 332zM20 1393v41h328v-482q123 51 328 52q250 0 402 -142t151 -356q0 -214 -150 -360t-383 -146h-389v1393h-287z" />
    <glyph glyph-name="afii10045" unicode="&#x42b;" horiz-adv-x="1617" 
d="M1352 0v1434h41v-1434h-41zM1106 505q0 200 -139 329t-373 129q-187 0 -295 -37l-33 -15v-870h348q219 0 356 132q136 132 136 332zM225 0v1434h41v-482q123 51 328 52q250 0 402 -142t151 -356q0 -214 -150 -360t-383 -146h-389z" />
    <glyph glyph-name="afii10046" unicode="&#x42c;" horiz-adv-x="1290" 
d="M1126 505q0 200 -139 329t-373 129q-104 -1 -191 -13t-122 -24l-35 -15v-870h369q219 0 355 132t136 332zM225 0v1434h41v-482q134 52 366 52t384 -142t152 -356q0 -215 -150 -361q-150 -145 -383 -145h-410z" />
    <glyph glyph-name="afii10047" unicode="&#x42d;" horiz-adv-x="1208" 
d="M512 20q204 0 358 190t154 507v61h-645v41h645q-31 262 -180 428q-150 166 -332 166q-130 0 -226 -69t-126 -115l-17 -21l-30 31q22 29 65 71q151 147 334 144q219 0 386 -204t167 -534t-167 -533q-167 -204 -386 -203q-80 0 -154 28t-146 86q-72 59 -114 123l-16 29
l31 20q19 -32 62 -80q42 -47 85 -80q43 -34 112 -60t140 -26z" />
    <glyph glyph-name="afii10048" unicode="&#x42e;" horiz-adv-x="1761" 
d="M635 717q0 -328 140 -512q141 -185 331 -185t330 184t141 513q0 328 -140 512q-141 184 -331 184t-330 -184t-141 -512zM225 0v1434h41v-697h328q0 328 154 523q154 194 360 194t358 -198t152 -540t-153 -539t-359 -197t-358 194t-154 522h-328v-696h-41z" />
    <glyph glyph-name="afii10049" unicode="&#x42f;" horiz-adv-x="1320" 
d="M184 973q0 -195 129 -318t342 -123h400v830q-123 51 -365 51q-242 -1 -374 -123t-132 -317zM1096 0h-41v492h-512l-318 -492h-51l328 502v10q-14 4 -39 11t-86 42t-109 81q-47 46 -86 133t-39 194q-1 211 145 346t388 135q123 0 228 -15t149 -30l43 -16v-1393z" />
    <glyph glyph-name="afii10065" unicode="&#x430;" horiz-adv-x="952" 
d="M481 20q100 0 164 54q65 54 92 100v635q-101 151 -248 152q-147 2 -246 -124t-99 -345q0 -220 98 -346q100 -126 239 -126zM102 492q0 236 112 374t267 138q68 0 129 -31t90 -62l27 -30h10v102h41v-819l10 -164h-40l-11 102h-10q-9 -14 -29 -34t-85 -54t-132 -34
q-155 0 -267 138t-112 374z" />
    <glyph glyph-name="afii10066" unicode="&#x431;" horiz-adv-x="983" 
d="M164 471q0 -213 96 -332t242 -119t241 119q96 119 97 332q0 213 -96 332t-242 119t-242 -119t-96 -332zM502 963q162 1 270 -131t109 -361q0 -229 -109 -360q-108 -131 -270 -131t-271 131t-108 360v123q0 450 95 605q52 85 119 123t175 58l328 64v-41l-328 -62
q-122 -23 -188 -75q-142 -110 -160 -549h10q5 23 36 75q32 52 65 85q35 33 95 59t132 27z" />
    <glyph glyph-name="afii10067" unicode="&#x432;" horiz-adv-x="849" 
d="M440 573q98 1 156 55t59 141q0 87 -61 140q-62 53 -152 53q-158 1 -217 -36l-20 -15v-338h235zM717 287q1 115 -63 181t-173 64h-276v-491h276q109 -1 173 65t63 181zM164 0v942q102 62 242 62t216 -67q75 -67 74 -169q0 -62 -30 -114t-62 -72l-31 -19v-10q9 -2 21 -5
q12 -4 44 -22t56 -44t44 -78q19 -52 20 -117q0 -129 -77 -208t-200 -79h-317z" />
    <glyph glyph-name="afii10068" unicode="&#x433;" horiz-adv-x="696" 
d="M164 0v983h512v-41h-471v-942h-41z" />
    <glyph glyph-name="afii10069" unicode="&#x434;" horiz-adv-x="890" 
d="M133 41h522v901h-399l-51 -717q-5 -59 -23 -102t-35 -57l-14 -15v-10zM696 983v-942h113v-266h-41v225h-727v-225h-41v266h72q8 6 22 18q14 11 40 59t30 107l51 758h481z" />
    <glyph glyph-name="afii10070" unicode="&#x435;" 
d="M461 963q-121 0 -212 -109t-106 -301h635q-14 193 -105 301t-212 109zM143 492q-1 -220 99 -346t247 -126t259 164l30 -20q-59 -118 -187 -165q-52 -19 -110 -19q-155 0 -267 138t-112 377t106 373t252 136q148 0 254 -132t105 -360h-676v-20z" />
    <glyph glyph-name="afii10072" unicode="&#x436;" horiz-adv-x="1208" 
d="M625 584v-584h-41v584h-205l-287 -584h-51l297 604l-256 379h51l246 -358h205v358h41v-358h204l246 358h51l-256 -379l297 -604h-51l-287 584h-204z" />
    <glyph glyph-name="afii10073" unicode="&#x437;" horiz-adv-x="768" 
d="M635 276q0 108 -78 183q-78 74 -199 73h-71v41h82q92 1 148 55t56 140t-56 140t-136 54t-141 -32q-61 -33 -88 -66l-29 -35l-31 21q65 97 177 137q48 16 100 17q106 0 176 -68q69 -68 69 -155t-36 -139t-70 -69l-37 -16v-8q30 -7 68 -32q39 -23 65 -51t50 -79
q22 -51 22 -111q0 -124 -90 -210t-228 -86t-252 118q-25 27 -34 45l-11 21l31 20q107 -161 266 -164q121 0 199 74t78 182z" />
    <glyph glyph-name="afii10074" unicode="&#x438;" horiz-adv-x="942" 
d="M164 0v983h41v-891h10l522 891h41v-983h-41v891h-10l-522 -891h-41z" />
    <glyph glyph-name="afii10075" unicode="&#x439;" horiz-adv-x="942" 
d="M471 1208q-92 0 -149 60t-66 166h41q14 -184 174 -185q160 0 174 185h41q-8 -106 -66 -166t-149 -60zM164 0v983h41v-891h10l522 891h41v-983h-41v891h-10l-522 -891h-41z" />
    <glyph glyph-name="afii10076" unicode="&#x43a;" horiz-adv-x="819" 
d="M205 584v-584h-41v983h41v-358h184l297 358h51l-317 -379l358 -604h-51l-348 584h-174z" />
    <glyph glyph-name="afii10077" unicode="&#x43b;" horiz-adv-x="890" 
d="M727 983v-983h-41v942h-399l-51 -717q-8 -123 -58 -174t-158 -51h-20v41h20q92 0 130 39q37 39 45 145l51 758h481z" />
    <glyph glyph-name="afii10078" unicode="&#x43c;" horiz-adv-x="1095" 
d="M891 0v901h-10l-318 -532h-31l-317 532h-10v-901h-41v983h51l328 -553h10l328 553h51v-983h-41z" />
    <glyph glyph-name="afii10079" unicode="&#x43d;" 
d="M758 983v-983h-41v573h-512v-573h-41v983h41v-369h512v369h41z" />
    <glyph glyph-name="afii10080" unicode="&#x43e;" horiz-adv-x="962" 
d="M143 492q-1 -220 99 -346t239 -126t239 126q99 126 99 346t-99 345q-98 126 -238 126t-240 -126t-99 -345zM102 492q0 236 112 374t268 138t267 -138t111 -374t-112 -374t-267 -138t-267 138t-112 374z" />
    <glyph glyph-name="afii10081" unicode="&#x43f;" 
d="M758 983v-983h-41v942h-512v-942h-41v983h594z" />
    <glyph glyph-name="afii10082" unicode="&#x440;" horiz-adv-x="942" 
d="M461 963q-77 0 -141 -39t-91 -76l-24 -39v-635q101 -151 248 -152q147 -2 246 124t99 346t-98 345q-100 126 -239 126zM205 102v-368h-41v1249h41v-102h10q9 14 29 34q20 21 85 55t132 34q155 0 267 -138t112 -374t-112 -374t-267 -138q-68 0 -129 30t-90 62l-27 30h-10z
" />
    <glyph glyph-name="afii10083" unicode="&#x441;" horiz-adv-x="839" 
d="M489 20q147 0 259 164l30 -20q-59 -118 -187 -165q-52 -19 -110 -19q-155 0 -267 138t-112 374t112 374t267 138q82 0 151 -39t97 -76l29 -39l-31 -21q-9 14 -29 37t-85 60t-132 37q-139 0 -238 -126t-99 -345q0 -220 98 -346q100 -126 247 -126z" />
    <glyph glyph-name="afii10084" unicode="&#x442;" horiz-adv-x="655" 
d="M41 942v41h573v-41h-266v-942h-41v942h-266z" />
    <glyph glyph-name="afii10085" unicode="&#x443;" horiz-adv-x="757" 
d="M205 -266v41h31q53 0 71 61l51 164l-297 983h41l277 -911l276 911h41l-348 -1147q-16 -55 -42 -79t-70 -23h-31z" />
    <glyph glyph-name="afii10086" unicode="&#x444;" horiz-adv-x="1187" 
d="M573 41v901q-193 0 -311 -122t-119 -328q1 -206 119 -329q118 -122 311 -122zM1044 492q0 206 -118 328t-312 122v-901q193 0 312 122q118 122 118 329zM614 0v-266h-41v266q-209 0 -340 135t-131 357t131 356q131 135 340 135v246h41v-246q209 0 340 -135t131 -356
q0 -220 -131 -356t-340 -136z" />
    <glyph glyph-name="afii10087" unicode="&#x445;" horiz-adv-x="757" 
d="M61 0l297 512l-276 471h51l246 -430l246 430h51l-277 -471l297 -512h-51l-266 471l-266 -471h-52z" />
    <glyph glyph-name="afii10088" unicode="&#x446;" horiz-adv-x="952" 
d="M164 0v983h41v-942h512v942h41v-942h112v-266h-41v225h-665z" />
    <glyph glyph-name="afii10089" unicode="&#x447;" horiz-adv-x="860" 
d="M143 655v328h41v-328q0 -115 64 -181t172 -64q68 0 127 15t84 30l24 16v512h41v-983h-41v420h-10q-72 -51 -210 -51q-138 1 -215 79t-77 207z" />
    <glyph glyph-name="afii10090" unicode="&#x448;" horiz-adv-x="1310" 
d="M164 0v983h41v-942h430v942h41v-942h430v942h41v-983h-983z" />
    <glyph glyph-name="afii10091" unicode="&#x449;" horiz-adv-x="1341" 
d="M164 0v983h41v-942h430v942h41v-942h430v942h41v-942h113v-266h-41v225h-1055z" />
    <glyph glyph-name="afii10092" unicode="&#x44a;" horiz-adv-x="880" 
d="M758 328q0 129 -73 208t-183 78q-58 0 -112 -20t-79 -41l-24 -21v-491h215q112 0 184 79t72 208zM0 942v41h287v-399h10q72 72 201 72t215 -93q86 -92 86 -235q0 -144 -86 -236t-211 -92h-256v942h-246z" />
    <glyph glyph-name="afii10093" unicode="&#x44b;" horiz-adv-x="1085" 
d="M922 983v-983h-41v983h41zM676 328q0 129 -73 208t-183 78q-58 0 -112 -20t-79 -41l-24 -21v-491h215q112 0 184 79t72 208zM164 0v983h41v-399h10q72 72 201 72t215 -93q86 -92 86 -235q0 -144 -86 -236t-211 -92h-256z" />
    <glyph glyph-name="afii10094" unicode="&#x44c;" horiz-adv-x="819" 
d="M696 328q0 129 -72 208q-73 79 -184 78q-68 0 -127 -20t-84 -41l-24 -21v-491h235q111 0 184 79q72 79 72 208zM164 0v983h41v-399h10q27 27 92 49t133 22q125 0 211 -92t86 -235q0 -144 -86 -236t-211 -92h-276z" />
    <glyph glyph-name="afii10095" unicode="&#x44d;" horiz-adv-x="839" 
d="M696 492v40h-420v41h416q-20 181 -113 285t-221 105q-68 0 -129 -33t-90 -66l-26 -35l-31 21q65 97 177 137q48 16 99 17q156 0 268 -138t112 -374t-112 -374t-259 -138t-261 118q-25 27 -34 45l-11 21l31 20q107 -161 266 -164q139 0 239 126q99 126 99 346z" />
    <glyph glyph-name="afii10096" unicode="&#x44e;" horiz-adv-x="1228" 
d="M471 492q0 -224 91 -348t216 -124t216 123t91 349t-91 348q-91 123 -216 123t-216 -123t-91 -348zM430 492v40h-225v-532h-41v983h41v-410h229q12 193 114 312t236 119t238 -136t104 -376t-103 -376t-245 -136t-244 136q-104 136 -104 376z" />
    <glyph glyph-name="afii10097" unicode="&#x44f;" horiz-adv-x="849" 
d="M133 696q0 -122 70 -194t186 -72h256v481q-82 51 -223 51t-215 -71q-74 -72 -74 -195zM92 696q0 140 86 224t232 84q78 0 146 -16t99 -30l31 -16v-942h-41v389h-297l-235 -389h-52l236 389v10q-26 7 -67 31q-40 26 -66 56t-49 85t-23 125z" />
    <glyph glyph-name="afii10071" unicode="&#x451;" 
d="M553 1290v62h61v-62h-61zM307 1290v62h62v-62h-62zM461 963q-121 0 -212 -109t-106 -301h635q-14 193 -105 301t-212 109zM143 492q-1 -220 99 -346t247 -126t259 164l30 -20q-59 -118 -187 -165q-52 -19 -110 -19q-155 0 -267 138t-112 377t106 373t252 136
q148 0 254 -132t105 -360h-676v-20z" />
    <glyph glyph-name="afii10099" unicode="&#x452;" horiz-adv-x="942" 
d="M61 1126v41h123v267h41v-267h236v-41h-236v-327h11q10 15 29 35t84 54t132 34q131 0 214 -85t83 -223v-573q0 -137 -83 -222t-214 -85v41q117 -1 187 71t69 195v573q0 123 -69 195q-70 72 -187 72q-78 0 -141 -39t-90 -76l-25 -39v-727h-41v1126h-123z" />
    <glyph glyph-name="afii10100" unicode="&#x453;" horiz-adv-x="696" 
d="M379 1208l143 226h41l-143 -226h-41zM164 0v983h512v-41h-471v-942h-41z" />
    <glyph glyph-name="afii10101" unicode="&#x454;" horiz-adv-x="839" 
d="M143 492q-1 -220 99 -346t247 -126t259 164l30 -20q-59 -118 -187 -165q-52 -19 -110 -19q-155 0 -267 138t-112 374t112 374t267 138q82 0 151 -39t97 -76l29 -39l-31 -21q-9 14 -29 37t-85 60t-132 37q-127 -1 -220 -105t-114 -285h416v-41h-420v-40z" />
    <glyph glyph-name="afii10102" unicode="&#x455;" horiz-adv-x="778" 
d="M635 248q0 92 -53 146t-128 82l-150 56t-128 88q-53 58 -53 153t70 163t164 68q93 0 163 -39t98 -76l27 -39l-31 -21q-10 14 -29 37t-84 60t-145 37q-80 -1 -136 -55t-56 -136t53 -132t128 -78t150 -58t128 -90q53 -61 53 -168t-82 -187t-205 -79q-151 0 -260 118
q-25 27 -35 45l-12 21l31 20q107 -161 276 -164q106 0 176 68t70 160z" />
    <glyph glyph-name="afii10103" unicode="&#x456;" horiz-adv-x="368" 
d="M154 1372v62h61v-62h-61zM164 0v983h41v-983h-41z" />
    <glyph glyph-name="afii10104" unicode="&#x457;" horiz-adv-x="389" 
d="M287 1290v62h61v-62h-61zM41 1290v62h61v-62h-61zM174 0v983h41v-983h-41z" />
    <glyph glyph-name="afii10105" unicode="&#x458;" horiz-adv-x="368" 
d="M154 1372v62h61v-62h-61zM205 983v-1147q0 -45 -29 -74t-74 -28h-10l-10 41h20q61 0 62 61v1147h41z" />
    <glyph glyph-name="afii10106" unicode="&#x459;" horiz-adv-x="1320" 
d="M1198 328q0 129 -73 208t-183 78q-58 0 -112 -20t-78 -41l-25 -21v-491h215q112 0 184 79t72 208zM686 0v942h-399l-51 -717q-8 -123 -58 -174t-158 -51h-20v41h20q92 0 130 39q37 39 45 145l51 758h481v-399h10q72 72 201 72t215 -93q86 -92 86 -235q0 -144 -86 -236
t-211 -92h-256z" />
    <glyph glyph-name="afii10107" unicode="&#x45a;" horiz-adv-x="1351" 
d="M1229 307q0 123 -70 195t-186 71h-215v-532h215q117 -1 187 71t69 195zM205 983v-369h512v369h41v-369h215q131 0 214 -85t83 -222t-83 -222t-214 -85h-256v573h-512v-573h-41v983h41z" />
    <glyph glyph-name="afii10108" unicode="&#x45b;" horiz-adv-x="942" 
d="M61 1126v41h123v267h41v-267h236v-41h-236v-327h11q10 15 29 35t84 54t132 34q131 0 214 -85t83 -223v-614h-41v614q0 123 -69 195q-70 72 -187 72q-78 0 -141 -39t-90 -76l-25 -39v-727h-41v1126h-123z" />
    <glyph glyph-name="afii10109" unicode="&#x45c;" horiz-adv-x="819" 
d="M410 1208l143 226h41l-143 -226h-41zM205 584v-584h-41v983h41v-358h184l297 358h51l-317 -379l358 -604h-51l-348 584h-174z" />
    <glyph glyph-name="afii10110" unicode="&#x45e;" horiz-adv-x="757" 
d="M379 1208q-91 0 -149 60t-66 166h41q16 -184 174 -185q158 0 174 185h41q-8 -106 -66 -166t-149 -60zM205 -266v41h31q53 0 71 61l51 164l-297 983h41l277 -911l276 911h41l-348 -1147q-16 -55 -42 -79t-70 -23h-31z" />
    <glyph glyph-name="afii10193" unicode="&#x45f;" 
d="M164 0v983h41v-942h512v942h41v-983h-277v-225h-41v225h-276z" />
    <glyph glyph-name="afii10050" unicode="&#x490;" horiz-adv-x="942" 
d="M225 0v1434h635v266h41v-307h-635v-1393h-41z" />
    <glyph glyph-name="afii10098" unicode="&#x491;" horiz-adv-x="696" 
d="M635 983v205h41v-246h-471v-942h-41v983h471z" />
    <glyph glyph-name="uni1E9E" unicode="&#x1e9e;" horiz-adv-x="1208" 
d="M1044 461q0 205 -92 323t-215 117h-92v41q39 16 91 58q52 44 89 86t68 117t33 157q-108 53 -292 53t-296 -119t-113 -331v-963h-41v963q0 227 126 359t335 132q96 0 178 -15t115 -30l35 -16q0 -84 -25 -160t-76 -150t-110 -114l-25 -17v-10q139 0 243 -131t105 -350
q0 -219 -104 -350t-243 -131t-253 118q-25 27 -34 45l-11 21l31 20q107 -161 266 -164q123 0 215 118t92 323z" />
    <glyph glyph-name="endash" unicode="&#x2013;" horiz-adv-x="808" 
d="M82 614v41h645v-41h-645z" />
    <glyph glyph-name="emdash" unicode="&#x2014;" horiz-adv-x="1085" 
d="M82 614v41h922v-41h-922z" />
    <glyph glyph-name="quoteleft" unicode="&#x2018;" horiz-adv-x="327" 
d="M164 1454h41v-82h-82v62q0 40 18 66t35 32l19 4l10 -20q-41 -11 -41 -62z" />
    <glyph glyph-name="quoteright" unicode="&#x2019;" horiz-adv-x="327" 
d="M164 1372h-41v82h82v-61q-1 -41 -19 -67t-34 -32l-19 -4l-10 21q41 10 41 61z" />
    <glyph glyph-name="quotesinglbase" unicode="&#x201a;" horiz-adv-x="327" 
d="M164 0h-41v82h82v-62q-1 -40 -19 -66t-34 -32l-19 -4l-10 21q41 10 41 61z" />
    <glyph glyph-name="quotedblleft" unicode="&#x201c;" horiz-adv-x="552" 
d="M389 1454h41v-82h-82v62q0 40 18 66t35 32l19 4l10 -20q-41 -11 -41 -62zM164 1454h41v-82h-82v62q0 40 18 66t35 32l19 4l10 -20q-41 -11 -41 -62z" />
    <glyph glyph-name="quotedblright" unicode="&#x201d;" horiz-adv-x="552" 
d="M389 1372h-41v82h82v-61q0 -41 -18 -67t-35 -32l-19 -4l-10 21q41 10 41 61zM164 1372h-41v82h82v-61q-1 -41 -19 -67t-34 -32l-19 -4l-10 21q41 10 41 61z" />
    <glyph glyph-name="quotedblbase" unicode="&#x201e;" horiz-adv-x="552" 
d="M389 0h-41v82h82v-62q0 -40 -18 -66t-35 -32l-19 -4l-10 21q41 10 41 61zM164 0h-41v82h82v-62q-1 -40 -19 -66t-34 -32l-19 -4l-10 21q41 10 41 61z" />
    <glyph glyph-name="dagger" unicode="&#x2020;" horiz-adv-x="757" 
d="M143 1055q-61 0 -61 41t61 41l164 -31h62v82q-31 184 -31 205q0 61 41 61t41 -61l-31 -205v-82h62q143 31 163 31q61 0 62 -41q0 -41 -62 -41l-163 30h-62v-81q31 -184 31 -205l-31 -942h-20l-31 942l31 205v81h-62q-144 -30 -164 -30z" />
    <glyph glyph-name="daggerdbl" unicode="&#x2021;" horiz-adv-x="798" 
d="M389 256v195q-31 143 -31 201t23 171l8 37v195h-82q-143 -31 -164 -31q-61 0 -61 41t61 41l164 -31h82v113q-31 184 -31 205q0 61 41 61t41 -61l-30 -205v-113h82q143 31 163 31q61 0 62 -41q0 -41 -62 -41l-163 31h-82v-195q31 -143 30 -204t-22 -169l-8 -36v-195h82
q143 31 163 31q61 0 62 -41q0 -41 -62 -41l-163 31h-82v-113q31 -184 30 -205q0 -61 -41 -61t-41 61l31 205v113h-82q-143 -31 -164 -31q-61 0 -61 41t61 41l164 -31h82z" />
    <glyph glyph-name="bullet" unicode="&#x2022;" horiz-adv-x="512" 
d="M256 717q39 0 66 -27q26 -28 26 -66t-26 -65t-66 -27q-39 0 -66 27t-26 66q0 39 26 65t66 27z" />
    <glyph glyph-name="ellipsis" unicode="&#x2026;" horiz-adv-x="983" 
d="M778 0v82h82v-82h-82zM451 0v82h81v-82h-81zM123 0v82h82v-82h-82z" />
    <glyph glyph-name="perthousand" unicode="&#x2030;" horiz-adv-x="1843" 
d="M1700 317q0 145 -56 221t-138 76t-139 -76q-56 -76 -56 -220q0 -146 56 -222t138 -76t139 76q56 76 56 221zM1741 317q0 -161 -69 -249t-167 -88t-167 89q-68 89 -68 249t68 248q69 89 167 89t167 -89t69 -249zM1147 317q0 145 -56 221q-57 76 -139 76t-138 -76t-56 -220
q0 -146 56 -222t138 -76t139 76q56 76 56 221zM1188 317q0 -161 -69 -249t-167 -88t-167 89t-69 249t69 248q69 89 167 89t167 -89t69 -249zM215 0l809 1434h51l-809 -1434h-51zM143 1116q1 -145 57 -221t138 -76t138 76t56 221t-56 221t-138 76t-138 -76t-57 -221z
M102 1116q0 160 69 249t167 89t167 -89t69 -249t-70 -249q-68 -89 -166 -89t-167 89t-69 249z" />
    <glyph glyph-name="guilsinglleft" unicode="&#x2039;" horiz-adv-x="430" 
d="M297 819l31 -20l-185 -277v-10l185 -276l-31 -21l-195 287v30z" />
    <glyph glyph-name="guilsinglright" unicode="&#x203a;" horiz-adv-x="430" 
d="M102 799l31 20l195 -287v-30l-195 -287l-31 21l185 276v10z" />
    <glyph glyph-name="fraction" unicode="&#x2044;" horiz-adv-x="860" 
d="M0 0l809 1434h51l-809 -1434h-51z" />
    <glyph glyph-name="foursuperior" unicode="&#x2074;" horiz-adv-x="655" 
d="M164 973h266v379h-10l-256 -369v-10zM471 1434v-461h102v-41h-102v-215h-41v215h-328v41l328 461h41z" />
    <glyph glyph-name="Euro" unicode="&#x20ac;" horiz-adv-x="1198" 
d="M686 1331q-174 0 -307 -146t-164 -386h666v-41h-670q-6 -31 -6 -82l4 -82h672v-41h-666q31 -240 164 -386t307 -147q126 0 222 72t141 129l16 25l31 -21q-18 -30 -62 -78q-45 -49 -89 -81t-115 -60q-71 -27 -144 -26q-188 0 -335 158q-146 159 -177 415h-113v41h107
q-4 31 -4 82l6 82h-109v41h113q31 257 177 415t325 158t325 -132q33 -30 48 -52l16 -21l-31 -20q-90 120 -229 165q-59 19 -119 19z" />
    <glyph glyph-name="uni20B4" unicode="&#x20b4;" horiz-adv-x="1064" 
d="M123 758v41h532q118 59 165 167q19 44 20 89q0 123 -79 199t-208 77q-160 0 -263 -126q-24 -28 -34 -48l-10 -20l-31 20q66 132 213 192q59 24 125 23q145 0 237 -89t91 -228q0 -99 -50 -161t-94 -85v-10h205v-41h-819zM123 553v41h819v-41h-625q-33 -20 -62 -83
q-30 -64 -30 -132q0 -139 91 -228q91 -90 228 -90t232 85q94 85 121 137l14 24l31 -20q-6 -10 -16 -28t-46 -65q-36 -46 -78 -81t-110 -64t-139 -28q-160 0 -264 102t-105 256q0 62 18 114t36 72l18 19v10h-133z" />
    <glyph glyph-name="uni20BD" unicode="&#x20bd;" horiz-adv-x="1228" 
d="M614 492q205 0 328 116t123 304q0 187 -126 303t-345 116q-90 0 -167 -12t-108 -25l-32 -14v-788h327zM819 225h-532v-225h-41v225h-164v41h164v185h-164v41h164v819q123 61 352 61q228 0 368 -129t140 -332t-135 -331t-357 -129h-327v-185h532v-41z" />
    <glyph glyph-name="afii61352" unicode="&#x2116;" horiz-adv-x="1894" 
d="M1321 573v41h430v-41h-430zM1731 1116q-1 145 -57 221t-138 76t-138 -76t-56 -221t56 -221t138 -76t138 76t57 221zM1772 1116q0 -160 -69 -249t-167 -89t-167 89t-69 249t69 249t167 89t167 -89t69 -249zM266 1331v-1331h-41v1434h41l789 -1332h10v1332h41v-1434h-41
l-789 1331h-10z" />
    <glyph glyph-name="trademark" unicode="&#x2122;" horiz-adv-x="1280" 
d="M1096 819v533h-11l-225 -369h-31l-225 369h-10v-533h-41v615h51l236 -390h10l235 390h52v-615h-41zM41 1393v41h410v-41h-185v-574h-41v574h-184z" />
    <glyph glyph-name="minus" unicode="&#x2212;" horiz-adv-x="716" 
d="M82 676v41h553v-41h-553z" />
    <glyph glyph-name="Breve" unicode="&#xf406;" horiz-adv-x="552" 
d="M276 1618q-92 0 -149 59t-66 166h41q16 -184 174 -184t175 184h41q-8 -105 -66 -165t-150 -60z" />
    <glyph glyph-name="Circumflex" unicode="&#xf408;" horiz-adv-x="532" 
d="M287 1843l184 -225h-41l-164 194l-164 -194h-41l185 225h41z" />
    <glyph glyph-name="Dotaccent" unicode="&#xf40b;" horiz-adv-x="184" 
d="M61 1700v61h62v-61h-62z" />
    <glyph glyph-name="Ring" unicode="&#xf40c;" horiz-adv-x="450" 
d="M61 1731q-1 77 47 125t118 48t116 -48q47 -50 47 -126t-47 -124q-47 -50 -117 -50t-117 50t-47 125zM102 1731q0 -61 34 -97t89 -37q55 0 89 36q34 35 34 97t-34 98t-89 36t-89 -36t-34 -97z" />
    <glyph glyph-name="Tilde" unicode="&#xf40d;" horiz-adv-x="573" 
d="M389 1690q68 0 82 122h41q-8 -82 -41 -122t-79 -41q-46 0 -109 61t-99 62q-68 0 -82 -123h-41q8 82 41 123q72 90 189 -21q63 -61 98 -61z" />
    <glyph glyph-name="commaaccent" unicode="&#xf6c3;" horiz-adv-x="204" 
d="M102 -225h-41v82h82v-62q0 -41 -18 -67t-35 -31l-18 -4l-11 20q41 11 41 62z" />
    <glyph glyph-name="Acute" unicode="&#xf6c9;" horiz-adv-x="307" 
d="M61 1618l144 225h41l-144 -225h-41z" />
    <glyph glyph-name="Caron" unicode="&#xf6ca;" horiz-adv-x="532" 
d="M246 1618l-185 225h41l164 -194l164 194h41l-184 -225h-41z" />
    <glyph glyph-name="Dieresis" unicode="&#xf6cb;" horiz-adv-x="430" 
d="M307 1700v61h62v-61h-62zM61 1700v61h62v-61h-62z" />
    <glyph glyph-name="Grave" unicode="&#xf6ce;" horiz-adv-x="307" 
d="M102 1843l144 -225h-41l-144 225h41z" />
    <glyph glyph-name="Hungarumlaut" unicode="&#xf6cf;" horiz-adv-x="593" 
d="M348 1618l144 225h40l-143 -225h-41zM61 1618l144 225h41l-144 -225h-41z" />
    <glyph glyph-name="Macron" unicode="&#xf6d0;" horiz-adv-x="512" 
d="M61 1751h390v-41h-390v41z" />
    <glyph glyph-name="cyrBreve" unicode="&#xf6d1;" horiz-adv-x="634" 
d="M317 1618q92 0 150 59q57 59 65 166h41q-7 -123 -77 -195t-179 -71q-109 0 -179 72t-77 194h41q8 -105 66 -165t149 -60z" />
    <glyph glyph-name="cyrbreve" unicode="&#xf6d4;" horiz-adv-x="552" 
d="M276 1208q-92 0 -149 60t-66 166h41q16 -184 174 -185q158 0 175 185h41q-8 -106 -66 -166t-150 -60z" />
    <glyph glyph-name="Germandbls" horiz-adv-x="1208" 
d="M1044 461q0 205 -92 323t-215 117h-92v41q39 16 91 58q52 44 89 86t68 117t33 157q-108 53 -292 53t-296 -119t-113 -331v-963h-41v963q0 227 126 359t335 132q96 0 178 -15t115 -30l35 -16q0 -84 -25 -160t-76 -150t-110 -114l-25 -17v-10q139 0 243 -131t105 -350
q0 -219 -104 -350t-243 -131t-253 118q-25 27 -34 45l-11 21l31 20q107 -161 266 -164q123 0 215 118t92 323z" />
    <glyph glyph-name="foundryicon" horiz-adv-x="2519" 
d="M1526 440q16 0 28 12t13 28q1 14 -13 28t-28 14h-113v-82h113zM1526 1075q16 1 28 13t13 27t-13 29t-28 13h-113v-82h113zM1976 1249v-92h-235q-19 76 -82 92h317zM1976 614v-92h-235q-19 76 -82 92h317zM1618 184v133q41 8 78 43t45 80h164v-92h-174v-72h245v-92h-358z
M1618 819v133q41 8 78 43t45 80h164v-92h-174v-72h245v-92h-358zM614 1157h-133v92h338l51 -92h-143v-338h-113v338zM614 522h-133v92h338l51 -92h-143v-338h-113v338zM1126 819h-112v164l-154 266h123l82 -153h10l82 153h133l-164 -266v-164zM1126 184h-112v164l-154 266
h123l82 -153h10l82 153h133l-164 -266v-164zM1300 614h226q74 0 119 -39t45 -94t-45 -94t-119 -39h-113v-164h-113v430zM1300 1249h226q74 0 119 -39t45 -94t-45 -94t-119 -39h-113v-164h-113v430zM2273 -184v1802h-2027v-1802h2027zM205 -225v1884h2109v-1884h-2109z" />
    </font>
</defs>
</svg>
