<?xml version="1.0" encoding="UTF-8"?>
<svg xmlns="http://www.w3.org/2000/svg" xmlns:xlink="http://www.w3.org/1999/xlink" version="1.2" >
<font id="Bodoni URW Light">
<font-face  font-family="Bodoni URW" units-per-em="1000" ascent="667" descent="-333" font-style="normal" font-weight="300" font-stretch="normal" cap-height="667" x-height="387" underline-position="-88" underline-thickness="46" />
<missing-glyph  horiz-adv-x="250" d="" />
<glyph glyph-name="NULL" d="" />
<glyph glyph-name="CR" unicode="&#xd;" horiz-adv-x="250" d="" />
<glyph glyph-name="space" unicode="&#x20;" horiz-adv-x="250" d="" />
<glyph glyph-name="exclam" unicode="&#x21;" horiz-adv-x="273" d="M145 197 L145 219 C149 351 152 382 167 480 L185 577 C186 586 187 595 187 606 C187 647 166 677 137 677 C108 677 86 647 86 607 C86 597 87 587 89 577 L106 480 C122 381 125 345 129 197 L145 197 Z M136 106 C105 106 80 80 80 49 C80 18 105 -7 137 -7 C167 -7 193 18 193 49 C193 81 168 106 136 106 L136 106 Z " />
<glyph glyph-name="quotedbl" unicode="&#x22;" horiz-adv-x="288" d="M88 413 L110 576 C113 592 114 607 114 617 C114 652 99 677 76 677 C55 677 40 652 40 616 C40 607 41 590 43 576 L66 413 L88 413 Z M222 413 L245 576 C247 591 248 607 248 617 C248 652 233 677 210 677 C189 677 174 652 174 616 C174 608 176 589 177 576 L200 413 L222 413 Z " />
<glyph glyph-name="numbersign" unicode="&#x23;" horiz-adv-x="500" d="M207 442 L236 647 L175 647 L147 442 L56 442 L56 417 L143 417 L118 238 L27 238 L27 213 L115 213 L85 0 L145 0 L175 213 L293 213 L263 0 L323 0 L353 213 L444 213 L443 238 L356 238 L382 417 L473 417 L472 442 L385 442 L414 647 L353 647 L325 442 L207 442 Z M204 417 L321 417 L296 238 L178 238 L204 417 Z " />
<glyph glyph-name="dollar" unicode="&#x24;" horiz-adv-x="500" d="M259 395 L259 648 C320 645 347 625 345 581 C346 551 348 540 353 526 C361 506 378 493 399 493 C422 493 438 515 438 545 C438 612 358 666 259 668 L259 749 L230 749 L230 667 C125 655 54 582 54 488 C54 421 92 368 171 326 L230 296 L230 21 C164 25 130 56 130 109 L131 133 C132 139 132 146 132 151 C132 191 113 218 85 218 C58 218 37 189 37 153 C37 77 121 10 230 1 L230 -88 L259 -88 L259 1 C363 7 442 94 442 202 C442 272 408 319 326 361 L259 395 Z M230 411 L198 427 C143 455 113 495 113 541 C113 598 159 640 230 647 L230 411 Z M259 280 L307 255 C360 227 387 190 387 147 C387 81 333 28 259 21 L259 280 Z " />
<glyph glyph-name="percent" unicode="&#x25;" horiz-adv-x="687" d="M164 653 C91 653 28 576 28 487 C28 397 91 320 164 320 C236 320 299 397 299 485 C299 576 237 653 164 653 L164 653 Z M97 521 C97 606 114 635 164 635 C213 635 230 606 230 521 L230 451 C230 367 213 338 164 338 C114 338 97 367 97 451 L97 521 Z M508 647 L479 647 L178 0 L208 0 L508 647 Z M524 327 C451 327 388 250 388 161 C388 71 451 -6 524 -6 C596 -6 659 71 659 159 C659 250 597 327 524 327 L524 327 Z M457 196 C457 280 474 309 524 309 C573 309 590 280 590 196 L590 126 C590 41 573 12 524 12 C474 12 457 41 457 126 L457 196 Z " />
<glyph glyph-name="ampersand" unicode="&#x26;" horiz-adv-x="594" d="M413 0 L567 0 L567 18 L490 18 L428 112 C476 183 490 228 493 322 L567 322 L567 340 L390 340 L390 322 L472 322 C474 246 452 175 413 131 L277 340 C365 376 398 408 398 460 C398 515 349 551 273 551 C191 551 136 511 136 453 C136 430 143 411 163 380 L200 322 C146 295 124 282 99 260 C61 228 40 184 40 140 C40 100 59 55 87 29 C115 3 155 -10 205 -10 C274 -10 327 10 375 54 L413 0 Z M233 408 C203 453 199 463 199 484 C199 515 225 531 274 531 C319 531 341 508 341 461 C341 402 321 373 268 353 L233 408 Z M364 71 C324 35 296 21 260 21 C218 21 184 44 153 92 C126 133 110 176 110 205 C110 244 138 272 210 306 L364 71 Z " />
<glyph glyph-name="quotesingle" unicode="&#x27;" horiz-adv-x="154" d="M88 413 L110 576 C113 592 114 607 114 617 C114 652 99 677 76 677 C55 677 40 652 40 616 C40 607 41 590 43 576 L66 413 L88 413 Z " />
<glyph glyph-name="parenleft" unicode="&#x28;" horiz-adv-x="265" d="M219 674 C101 526 38 377 38 244 C38 111 100 -38 219 -186 L231 -177 C150 -35 116 88 116 244 C116 399 150 523 231 665 L219 674 Z " />
<glyph glyph-name="parenright" unicode="&#x29;" horiz-adv-x="265" d="M33 665 C114 522 148 399 148 244 C148 88 115 -34 33 -177 L46 -186 C164 -37 226 111 226 244 C226 377 164 525 46 674 L33 665 Z " />
<glyph glyph-name="asterisk" unicode="&#x2a;" horiz-adv-x="500" d="M246 510 C239 508 236 506 233 500 L141 554 C117 568 112 570 101 570 C84 570 70 554 70 535 C70 512 82 504 124 501 L230 492 C230 484 231 482 235 477 L156 406 C132 385 127 378 127 365 C127 347 144 331 162 331 C180 331 187 339 201 373 L243 472 C246 470 247 470 250 470 C253 470 254 470 258 472 L301 375 C315 340 323 332 341 332 C359 332 376 348 376 366 C376 379 371 386 346 407 L265 477 C269 482 270 485 270 492 L376 503 C403 505 405 505 414 510 C424 515 430 525 430 537 C430 556 416 572 399 572 C388 572 383 570 359 555 L268 500 C263 506 262 508 255 510 L277 613 C283 636 283 636 283 644 C283 664 270 677 249 677 C229 677 216 664 216 643 C216 636 216 636 222 613 L246 510 Z " />
<glyph glyph-name="plus" unicode="&#x2b;" horiz-adv-x="500" d="M235 308 L235 131 L265 131 L265 308 L448 308 L448 338 L265 338 L265 515 L235 515 L235 338 L51 338 L51 308 L235 308 Z " />
<glyph glyph-name="comma" unicode="&#x2c;" horiz-adv-x="247" d="M103 -152 C163 -99 195 -43 195 12 C195 69 159 112 112 112 C76 112 51 86 51 48 C51 15 69 -7 97 -7 C121 -7 139 13 139 41 C139 45 139 50 138 56 C162 44 172 26 172 -3 C172 -44 149 -82 91 -140 L103 -152 Z " />
<glyph glyph-name="hyphen" unicode="&#x2d;" horiz-adv-x="189" d="M189 230 L0 230 L0 170 L189 170 L189 230 Z " />
<glyph glyph-name="period" unicode="&#x2e;" horiz-adv-x="247" d="M123 106 C92 106 67 80 67 49 C67 18 92 -7 124 -7 C154 -7 180 18 180 49 C180 81 155 106 123 106 L123 106 Z " />
<glyph glyph-name="slash" unicode="&#x2f;" horiz-adv-x="408" d="M372 667 L319 667 L-39 -180 L14 -180 L372 667 Z " />
<glyph glyph-name="zero" unicode="0" horiz-adv-x="500" d="M251 657 C201 657 158 632 121 583 C73 519 42 417 42 323 C42 236 69 142 112 77 C151 18 197 -10 251 -10 C300 -10 342 14 380 64 C428 128 459 230 459 320 C459 411 433 504 389 570 C350 628 304 657 251 657 L251 657 Z M135 396 C135 575 165 637 251 637 C336 637 366 575 366 396 L366 251 C366 72 336 10 251 10 C165 10 135 73 135 251 L135 396 Z " />
<glyph glyph-name="one" unicode="1" horiz-adv-x="500" d="M307 647 L113 637 L113 621 L204 621 C225 621 227 618 227 595 L227 18 L113 18 L113 0 L413 0 L413 18 L307 18 L307 647 Z " />
<glyph glyph-name="two" unicode="2" horiz-adv-x="500" d="M431 0 L431 177 L418 177 C405 82 402 79 332 77 L105 77 L267 243 C350 327 350 327 375 361 C410 408 428 453 428 494 C428 537 406 585 374 613 C343 641 293 657 241 657 C140 657 66 595 66 509 C66 457 95 419 135 419 C162 419 181 437 181 464 C181 489 161 508 137 508 C131 508 125 507 119 505 C103 500 103 500 101 500 C92 500 87 509 87 523 C87 582 145 634 209 634 C287 634 338 566 338 462 C338 379 306 320 203 211 L45 46 L45 0 L431 0 Z " />
<glyph glyph-name="three" unicode="3" horiz-adv-x="500" d="M136 358 L136 340 L174 340 C293 340 346 289 346 172 C346 67 300 10 215 10 C186 10 156 18 136 32 C120 42 109 56 109 64 C109 68 111 71 122 79 C137 89 143 102 143 121 C143 148 128 166 105 166 C78 166 60 143 60 108 C60 40 128 -10 222 -10 C348 -10 439 72 439 185 C439 244 405 299 353 323 C323 337 299 343 240 349 C290 360 313 370 344 397 C383 430 402 469 402 513 C402 597 333 657 237 657 C156 657 94 612 94 551 C94 521 111 498 135 498 C155 498 170 517 170 542 C170 560 162 575 149 583 C141 589 139 591 139 597 C139 615 180 634 221 634 C255 634 282 623 297 602 C310 583 315 561 315 516 C315 457 307 426 287 401 C263 373 225 358 174 358 L136 358 Z " />
<glyph glyph-name="four" unicode="4" horiz-adv-x="500" d="M342 174 L439 174 L439 99 L460 99 L460 273 L439 273 L439 199 L342 199 L342 654 L303 654 L27 216 L27 174 L262 174 L262 18 L169 18 L169 0 L430 0 L430 18 L342 18 L342 174 Z M262 199 L45 199 L262 546 L262 199 Z " />
<glyph glyph-name="five" unicode="5" horiz-adv-x="500" d="M136 570 L321 570 C379 569 392 587 397 672 L384 672 C373 650 368 647 343 647 L162 647 C121 647 113 639 113 597 L100 339 C146 362 165 368 199 368 C294 368 346 308 346 198 C346 76 300 10 215 10 C168 10 103 40 103 61 C103 65 105 68 108 70 C135 87 143 99 143 124 C143 149 126 168 103 168 C77 168 57 142 57 108 C57 41 129 -10 223 -10 C345 -10 439 78 439 191 C439 306 347 388 217 388 C182 388 158 384 125 372 L136 570 Z " />
<glyph glyph-name="six" unicode="6" horiz-adv-x="500" d="M404 687 C324 671 274 650 218 611 C108 533 45 406 45 260 C45 186 61 124 93 78 C130 23 192 -10 257 -10 C369 -10 458 89 458 213 C458 338 378 429 269 429 C223 429 189 415 152 380 C162 537 244 630 404 667 L404 687 Z M255 407 C287 407 319 393 336 371 C357 347 365 298 365 203 C365 58 338 10 256 10 C173 10 138 70 138 210 C138 277 143 318 154 343 C172 382 211 407 255 407 L255 407 Z " />
<glyph glyph-name="seven" unicode="7" horiz-adv-x="500" d="M410 570 L278 280 C270 263 269 260 228 157 C211 115 203 81 203 53 C203 14 221 -10 252 -10 C280 -10 302 14 302 46 C302 54 299 78 297 88 L288 127 C285 141 283 153 283 165 C283 209 302 270 351 379 L463 629 C467 637 468 639 468 641 C468 646 465 647 455 647 L91 647 L46 468 L63 468 L80 516 C95 560 107 568 156 570 L410 570 Z " />
<glyph glyph-name="eight" unicode="8" horiz-adv-x="500" d="M286 343 C382 368 430 417 430 493 C430 584 350 657 250 657 C150 657 70 584 70 493 C70 417 118 368 214 343 C169 334 148 327 121 310 C71 278 42 226 42 169 C42 67 132 -10 250 -10 C369 -10 459 67 459 169 C459 226 430 278 379 310 C353 327 332 334 286 343 L286 343 Z M250 637 C318 637 344 598 344 498 C344 397 318 358 250 358 C181 358 156 396 156 500 C156 598 183 637 250 637 L250 637 Z M250 331 C324 331 365 273 365 168 C365 68 323 10 250 10 C177 10 136 68 136 170 C136 273 177 331 250 331 L250 331 Z " />
<glyph glyph-name="nine" unicode="9" horiz-adv-x="500" d="M90 -41 C179 -26 241 3 304 59 C401 143 454 261 454 391 C454 548 370 657 250 657 C135 657 41 552 41 422 C41 306 128 212 235 212 C285 212 314 228 349 274 C329 99 241 -1 90 -21 L90 -41 Z M247 637 C302 637 339 607 350 554 C356 521 361 464 361 418 C361 359 354 318 339 292 C317 255 281 234 239 234 C166 234 134 286 134 408 C134 478 138 526 146 559 C159 609 196 637 247 637 L247 637 Z " />
<glyph glyph-name="colon" unicode="&#x3a;" horiz-adv-x="247" d="M123 400 C92 400 67 375 67 344 C67 312 92 287 124 287 C154 287 180 312 180 343 C180 375 155 400 123 400 L123 400 Z M123 106 C92 106 67 80 67 49 C67 18 92 -7 124 -7 C154 -7 180 18 180 49 C180 81 155 106 123 106 L123 106 Z " />
<glyph glyph-name="semicolon" unicode="&#x3b;" horiz-adv-x="247" d="M111 400 C80 400 55 374 55 343 C55 312 80 287 112 287 C142 287 168 312 168 343 C168 375 143 400 111 400 L111 400 Z M103 -152 C163 -99 195 -43 195 12 C195 69 159 112 112 112 C76 112 51 86 51 48 C51 15 69 -7 97 -7 C121 -7 139 13 139 41 C139 45 139 50 138 56 C162 44 172 26 172 -3 C172 -44 149 -82 91 -140 L103 -152 Z " />
<glyph glyph-name="less" unicode="&#x3c;" horiz-adv-x="500" d="M455 595 L45 327 L45 322 L455 52 L455 114 L109 343 L455 571 L455 595 Z " />
<glyph glyph-name="equal" unicode="&#x3d;" horiz-adv-x="500" d="M449 399 L51 399 L51 369 L449 369 L449 399 Z M449 279 L51 279 L51 249 L449 249 L449 279 Z " />
<glyph glyph-name="greater" unicode="&#x3e;" horiz-adv-x="500" d="M45 52 L455 319 L455 324 L45 595 L45 532 L391 303 L45 75 L45 52 Z " />
<glyph glyph-name="question" unicode="&#x3f;" horiz-adv-x="377" d="M147 196 C147 261 155 276 211 324 L261 365 C312 407 337 455 337 514 C337 609 272 677 182 677 C100 677 38 621 38 546 C38 512 55 488 79 488 C101 488 115 505 115 531 C115 552 108 564 90 575 C77 583 74 586 74 594 C74 625 129 657 182 657 C247 657 296 619 296 569 C296 539 278 505 246 476 L214 446 C172 408 157 388 146 357 C136 329 130 290 130 252 C130 233 131 221 134 193 L147 196 Z M146 106 C115 106 90 80 90 49 C90 18 115 -7 147 -7 C177 -7 203 18 203 49 C203 81 178 106 146 106 L146 106 Z " />
<glyph glyph-name="at" unicode="&#x40;" horiz-adv-x="745" d="M590 83 C528 34 466 12 394 12 C222 12 85 151 85 327 C85 500 221 639 391 639 C463 639 529 613 582 563 C635 512 660 453 660 379 C660 309 630 250 573 206 C546 185 520 174 498 174 C483 174 476 181 476 196 C476 206 479 227 484 248 L542 487 L478 487 L465 432 C450 479 429 496 385 496 C295 496 203 388 203 281 C203 205 251 149 316 149 C361 149 395 173 420 223 C425 165 439 148 487 148 C519 148 552 160 586 184 C652 231 688 299 688 379 C688 540 559 664 391 664 C207 664 57 512 57 326 C57 138 206 -13 393 -13 C485 -13 570 21 630 83 L590 83 Z M395 479 C431 479 453 450 453 402 C453 367 437 300 418 253 C394 192 363 163 321 163 C288 163 267 190 267 232 C267 274 288 357 312 409 C333 453 364 479 395 479 L395 479 Z " />
<glyph glyph-name="A" unicode="A" horiz-adv-x="606" d="M366 214 L433 18 L338 18 L338 0 L610 0 L610 18 L534 18 L315 667 L288 667 L61 18 L-3 18 L-3 0 L174 0 L174 18 L86 18 L153 214 L366 214 Z M359 232 L160 232 L260 527 L359 232 Z " />
<glyph glyph-name="B" unicode="B" horiz-adv-x="615" d="M120 18 L33 18 L33 0 L301 0 C398 0 454 12 498 44 C543 75 566 121 566 180 C566 233 548 269 508 300 C474 327 441 339 370 350 C482 373 540 426 540 504 C540 557 513 602 463 631 C422 655 362 667 277 667 L33 667 L33 649 L120 649 L120 18 Z M213 358 L213 649 L267 649 C393 649 442 608 442 501 C442 398 397 358 282 358 L213 358 Z M213 18 L213 340 L279 340 C407 340 455 296 455 179 C455 67 407 18 301 18 L213 18 Z " />
<glyph glyph-name="C" unicode="C" horiz-adv-x="591" d="M543 667 L530 667 L497 617 C439 661 396 677 337 677 C256 677 181 639 125 568 C73 505 47 423 47 328 C47 141 174 -10 330 -10 C387 -10 432 6 497 50 L530 0 L543 0 L543 185 L530 185 C510 134 498 109 479 85 C442 37 389 10 331 10 C268 10 212 41 186 89 C166 128 160 178 160 324 C160 431 165 505 176 543 C196 615 255 657 336 657 C390 657 438 637 475 599 C503 570 516 545 530 494 L543 494 L543 667 Z " />
<glyph glyph-name="D" unicode="D" horiz-adv-x="673" d="M120 18 L33 18 L33 0 L282 0 C412 0 473 22 538 91 C595 153 627 240 627 334 C627 428 596 514 541 574 C479 641 407 667 281 667 L33 667 L33 649 L120 649 L120 18 Z M213 18 L213 649 L280 649 C368 649 416 636 454 603 C497 566 513 500 513 348 C513 202 502 127 476 89 C442 38 387 18 282 18 L213 18 Z " />
<glyph glyph-name="E" unicode="E" horiz-adv-x="586" d="M505 667 L33 667 L33 649 L120 649 L120 18 L33 18 L33 0 L527 0 L547 208 L534 208 C519 154 506 116 493 92 C455 26 437 17 346 18 L213 18 L213 329 L257 329 C333 330 365 299 366 221 L366 198 L380 198 L380 472 L366 472 L366 453 C366 376 337 347 259 347 L213 347 L213 649 L298 649 C433 651 476 617 505 486 L518 486 L505 667 Z " />
<glyph glyph-name="F" unicode="F" horiz-adv-x="534" d="M507 667 L33 667 L33 649 L120 649 L120 18 L33 18 L33 0 L306 0 L306 18 L213 18 L213 329 L272 329 C351 330 380 304 384 227 L384 205 L398 205 L398 475 L384 475 L384 457 C380 364 361 345 273 347 L213 347 L213 649 L325 649 C435 653 486 605 507 475 L520 475 L507 667 Z " />
<glyph glyph-name="G" unicode="G" horiz-adv-x="635" d="M531 667 L518 667 L484 625 C432 661 386 677 331 677 C263 677 197 647 145 593 C80 524 47 437 47 329 C47 235 71 161 121 95 C175 25 243 -10 325 -10 C397 -10 461 18 505 70 C535 104 547 137 558 212 L625 212 L625 230 L346 230 L346 212 L449 212 C449 153 447 129 440 105 C422 44 377 10 312 10 C244 10 198 44 177 108 C166 144 160 212 160 317 C160 431 168 522 183 563 C204 623 256 657 326 657 C422 657 487 594 518 471 L531 471 L531 667 Z " />
<glyph glyph-name="H" unicode="H" horiz-adv-x="710" d="M496 330 L496 18 L402 18 L402 0 L675 0 L675 18 L589 18 L589 649 L675 649 L675 667 L402 667 L402 649 L496 649 L496 348 L213 348 L213 649 L306 649 L306 667 L33 667 L33 649 L120 649 L120 18 L33 18 L33 0 L306 0 L306 18 L213 18 L213 330 L496 330 Z " />
<glyph glyph-name="I" unicode="I" horiz-adv-x="333" d="M120 18 L33 18 L33 0 L299 0 L299 18 L213 18 L213 649 L299 649 L299 667 L33 667 L33 649 L120 649 L120 18 Z " />
<glyph glyph-name="J" unicode="J" horiz-adv-x="383" d="M276 649 L363 649 L363 667 L96 667 L96 649 L183 649 L183 63 C183 30 180 4 175 -9 C165 -36 141 -55 114 -55 C97 -55 81 -45 81 -34 C81 -32 82 -29 84 -27 C96 -10 99 -3 99 12 C99 38 82 58 58 58 C33 58 13 36 13 6 C13 -42 52 -75 110 -75 C158 -75 204 -51 237 -8 C266 30 276 69 276 149 L276 649 Z " />
<glyph glyph-name="K" unicode="K" horiz-adv-x="656" d="M120 18 L33 18 L33 0 L299 0 L299 18 L213 18 L213 649 L299 649 L299 667 L33 667 L33 649 L120 649 L120 18 Z M312 407 L529 649 L613 649 L613 667 L402 667 L402 649 L498 649 L231 353 L483 18 L394 18 L394 0 L655 0 L655 18 L604 18 L312 407 Z " />
<glyph glyph-name="L" unicode="L" horiz-adv-x="567" d="M526 0 L540 205 L526 205 C495 57 457 15 355 18 L213 18 L213 649 L299 649 L299 667 L33 667 L33 649 L120 649 L120 18 L33 18 L33 0 L526 0 Z " />
<glyph glyph-name="M" unicode="M" horiz-adv-x="764" d="M335 0 L354 0 L554 644 L554 18 L467 18 L467 0 L734 0 L734 18 L647 18 L647 649 L734 649 L734 667 L539 667 L384 166 L230 667 L30 667 L30 649 L110 649 L110 18 L30 18 L30 0 L220 0 L220 18 L133 18 L133 649 L335 0 Z " />
<glyph glyph-name="N" unicode="N" horiz-adv-x="679" d="M556 0 L572 0 L572 649 L645 649 L645 667 L462 667 L462 649 L549 649 L549 185 L234 667 L23 667 L23 649 L110 649 L110 18 L23 18 L23 0 L226 0 L226 18 L133 18 L133 644 L556 0 Z " />
<glyph glyph-name="O" unicode="O" horiz-adv-x="660" d="M331 677 C257 677 188 644 133 583 C77 520 47 433 47 334 C47 241 72 161 121 99 C177 28 250 -10 331 -10 C489 -10 614 139 614 330 C614 426 590 505 540 568 C484 639 411 677 331 677 L331 677 Z M331 657 C402 657 460 620 483 560 C498 519 501 481 501 329 C501 202 498 161 488 124 C468 52 409 10 331 10 C259 10 201 47 179 108 C163 148 160 187 160 333 C160 466 162 505 173 543 C193 615 251 657 331 657 L331 657 Z " />
<glyph glyph-name="P" unicode="P" horiz-adv-x="572" d="M213 323 L313 323 C392 323 445 336 484 366 C526 398 550 443 550 492 C550 541 527 589 488 621 C450 652 395 667 313 667 L33 667 L33 649 L120 649 L120 18 L33 18 L33 0 L306 0 L306 18 L213 18 L213 323 Z M213 341 L213 649 L306 649 C409 649 437 617 437 496 C437 375 408 341 307 341 L213 341 Z " />
<glyph glyph-name="Q" unicode="Q" horiz-adv-x="660" d="M377 -6 C423 3 462 23 501 57 C575 124 614 218 614 334 C614 426 589 506 540 568 C484 639 411 677 331 677 C256 677 189 645 133 583 C76 519 47 434 47 334 C47 161 143 23 284 -6 L284 -19 C286 -160 366 -214 577 -217 L577 -204 C422 -198 377 -155 377 -13 L377 -6 Z M331 657 C402 657 460 620 483 560 C498 519 501 481 501 329 C501 202 498 161 488 124 C468 52 409 10 331 10 C259 10 201 47 179 108 C163 148 160 187 160 333 C160 466 162 505 173 543 C193 615 251 657 331 657 L331 657 Z " />
<glyph glyph-name="R" unicode="R" horiz-adv-x="644" d="M213 345 L273 345 C373 342 409 308 413 214 L413 165 C413 107 422 71 446 41 C471 10 504 -5 547 -5 C575 -5 589 -1 617 12 L611 29 C592 19 582 16 570 16 C552 16 535 27 528 42 C521 56 519 72 519 108 L519 163 C516 270 453 334 334 350 C412 359 447 371 483 400 C522 431 541 468 541 512 C541 564 519 605 477 633 C439 659 399 667 305 667 L33 667 L33 649 L120 649 L120 18 L33 18 L33 0 L306 0 L306 18 L213 18 L213 345 Z M213 363 L213 649 L284 649 C391 649 437 606 437 506 C437 409 386 363 278 363 L213 363 Z " />
<glyph glyph-name="S" unicode="S" horiz-adv-x="502" d="M416 676 L402 676 L371 633 C328 663 288 677 243 677 C140 677 61 591 61 479 C61 389 106 337 205 310 L282 290 C370 266 405 229 405 157 C405 70 346 10 259 10 C197 10 140 42 105 96 C85 126 76 152 68 207 L48 207 L55 0 L68 0 L103 56 C156 8 197 -10 257 -10 C373 -10 453 82 453 216 C453 322 405 381 295 409 L242 423 C144 448 108 478 108 535 C108 603 165 657 238 657 C291 657 337 634 366 593 C383 569 391 547 397 503 L417 503 L416 676 Z " />
<glyph glyph-name="T" unicode="T" horiz-adv-x="583" d="M337 649 L387 649 C477 648 516 604 556 457 L569 459 L556 667 L20 667 L13 459 L26 457 C39 517 51 551 73 587 C107 638 129 649 196 649 L244 649 L244 18 L144 18 L144 0 L437 0 L437 18 L337 18 L337 649 Z " />
<glyph glyph-name="U" unicode="U" horiz-adv-x="642" d="M200 649 L286 649 L286 667 L20 667 L20 649 L107 649 L107 249 C107 139 122 84 165 44 C202 10 266 -10 342 -10 C420 -10 475 15 509 67 C533 103 542 144 542 222 L542 649 L615 649 L615 667 L439 667 L439 649 L519 649 L519 222 C519 144 515 119 497 87 C469 37 421 10 360 10 C309 10 263 29 235 62 C207 94 200 126 200 205 L200 649 Z " />
<glyph glyph-name="V" unicode="V" horiz-adv-x="555" d="M326 144 L149 649 L246 649 L246 667 L-17 667 L-17 649 L48 649 L279 -10 L299 -10 L508 649 L574 649 L574 667 L386 667 L386 649 L485 649 L326 144 Z " />
<glyph glyph-name="W" unicode="W" horiz-adv-x="784" d="M562 143 L456 431 L534 649 L589 649 L589 667 L-10 667 L-10 649 L49 649 L282 -10 L300 -10 L410 292 L517 -10 L535 -10 L743 649 L797 649 L797 667 L629 667 L629 649 L720 649 L562 143 Z M150 649 L279 649 L397 325 L329 135 L150 649 Z M377 649 L510 649 L444 467 L377 649 Z " />
<glyph glyph-name="X" unicode="X" horiz-adv-x="583" d="M316 385 L483 649 L553 649 L553 667 L366 667 L366 649 L454 649 L304 408 L160 649 L258 649 L258 667 L-10 667 L-10 649 L46 649 L246 310 L69 18 L-1 18 L-1 0 L189 0 L189 18 L97 18 L258 288 L417 18 L328 18 L328 0 L593 0 L593 18 L532 18 L316 385 Z " />
<glyph glyph-name="Y" unicode="Y" horiz-adv-x="551" d="M331 312 L502 649 L571 649 L571 667 L380 667 L380 649 L478 649 L325 353 L150 649 L238 649 L238 667 L-20 667 L-20 649 L37 649 L238 312 L238 18 L138 18 L138 0 L431 0 L431 18 L331 18 L331 312 Z " />
<glyph glyph-name="Z" unicode="Z" horiz-adv-x="558" d="M513 0 L532 208 L518 208 C480 54 441 13 333 18 L139 18 L532 667 L81 667 L61 464 L75 464 C109 605 146 648 231 649 L414 649 L30 24 L30 0 L513 0 Z " />
<glyph glyph-name="bracketleft" unicode="&#x5b;" horiz-adv-x="265" d="M142 649 L258 649 L258 667 L67 667 L67 -180 L258 -180 L258 -162 L142 -162 L142 649 Z " />
<glyph glyph-name="backslash" unicode="&#x5c;" horiz-adv-x="408" d="M41 667 L399 -180 L452 -180 L94 667 L41 667 Z " />
<glyph glyph-name="bracketright" unicode="&#x5d;" horiz-adv-x="265" d="M123 -162 L7 -162 L7 -180 L198 -180 L198 667 L7 667 L7 649 L123 649 L123 -162 Z " />
<glyph glyph-name="asciicircum" unicode="&#x5e;" horiz-adv-x="500" d="M525 285 L259 700 L253 700 L-25 285 L81 285 L286 591 L485 285 L525 285 Z " />
<glyph glyph-name="underscore" unicode="&#x5f;" horiz-adv-x="500" d="M21 -88 L21 -134 L478 -134 L478 -88 L21 -88 Z " />
<glyph glyph-name="grave" unicode="&#x60;" horiz-adv-x="500" d="M187 613 L122 613 C114 613 110 611 110 606 C110 603 113 598 117 595 L276 466 C279 463 280 463 281 463 C283 463 284 464 284 466 C284 467 284 469 283 470 L187 613 Z " />
<glyph glyph-name="a" unicode="a" horiz-adv-x="422" d="M270 215 C198 213 165 208 129 194 C71 171 39 131 39 82 C39 26 80 -10 144 -10 C201 -10 239 15 270 71 C278 13 299 -10 345 -10 C369 -10 380 -6 413 18 L404 30 C392 19 384 15 374 15 C354 15 347 26 347 57 L347 282 C347 324 338 348 316 366 C292 386 253 397 211 397 C133 397 65 352 65 301 C65 275 80 257 101 257 C122 257 137 274 137 297 C137 309 134 315 124 329 C119 336 117 340 117 343 C117 359 162 380 199 380 C248 380 270 359 270 315 L270 215 Z M270 167 C270 132 267 106 261 89 C247 54 214 30 180 30 C141 30 115 57 115 99 C115 132 130 158 160 176 C189 193 214 198 270 200 L270 167 Z " />
<glyph glyph-name="b" unicode="b" horiz-adv-x="493" d="M162 667 L18 667 L18 649 L85 649 L85 18 L18 18 L18 0 L162 0 L162 69 C197 11 228 -10 282 -10 C378 -10 453 80 453 197 C453 312 381 397 284 397 C229 397 194 373 162 313 L162 667 Z M360 163 C360 119 358 87 354 71 C345 31 320 10 280 10 C245 10 214 28 191 60 C171 90 160 138 160 201 C160 307 206 377 277 377 C309 377 334 363 347 339 C357 320 360 298 360 244 L360 163 Z " />
<glyph glyph-name="c" unicode="c" horiz-adv-x="403" d="M373 126 C363 93 355 77 340 59 C313 28 273 10 232 10 C196 10 169 24 151 51 C138 72 133 103 133 165 L133 228 C133 336 164 378 242 378 C282 378 320 365 320 351 C320 348 319 346 314 341 C303 330 297 313 297 297 C297 269 313 249 336 249 C360 249 376 268 376 296 C376 354 319 397 241 397 C128 397 40 308 40 192 C40 79 124 -10 231 -10 C279 -10 321 7 352 41 C372 62 381 81 393 126 L373 126 Z " />
<glyph glyph-name="d" unicode="d" horiz-adv-x="491" d="M330 0 L474 0 L474 18 L407 18 L407 667 L250 667 L250 649 L330 649 L330 307 C297 372 262 397 206 397 C110 397 40 312 40 194 C40 76 112 -10 209 -10 C265 -10 297 15 330 84 L330 0 Z M133 233 C133 277 137 315 143 331 C153 361 176 377 209 377 C281 377 327 305 327 192 C327 83 281 10 212 10 C181 10 157 26 145 55 C136 77 133 105 133 165 L133 233 Z " />
<glyph glyph-name="e" unicode="e" horiz-adv-x="432" d="M131 228 L397 228 C393 326 321 397 226 397 C171 397 124 373 87 325 C57 286 40 239 40 192 C40 83 130 -10 235 -10 C317 -10 378 44 393 130 L373 130 C359 56 305 10 234 10 C200 10 170 23 154 45 C136 67 131 92 131 151 L131 228 Z M306 246 L131 246 L131 280 C131 346 160 377 222 377 C281 377 306 351 306 289 L306 246 Z " />
<glyph glyph-name="f" unicode="f" horiz-adv-x="298" d="M180 369 L275 369 L275 387 L180 387 L180 557 C180 609 183 623 195 640 C205 653 221 661 240 661 C257 661 266 658 275 649 C260 636 255 625 255 608 C255 584 269 566 289 566 C308 566 323 585 323 610 C323 649 289 677 242 677 C205 677 170 659 144 627 C113 588 103 552 103 474 L103 387 L16 387 L16 369 L103 369 L103 18 L16 18 L16 0 L268 0 L268 18 L180 18 L180 369 Z " />
<glyph glyph-name="g" unicode="g" horiz-adv-x="437" d="M132 18 C86 18 63 30 63 54 C63 77 89 106 135 133 C162 122 184 117 212 117 C298 117 364 176 364 254 C364 290 357 312 335 343 C347 355 356 361 364 361 C372 361 377 357 378 349 C382 324 389 315 407 315 C425 315 437 329 437 352 C437 375 420 391 393 391 C370 391 354 382 323 353 C287 386 258 397 212 397 C123 397 59 339 59 258 C59 210 76 177 118 144 C112 139 112 139 105 134 C79 116 79 116 72 110 C42 82 27 53 27 20 C27 -26 51 -55 103 -69 C47 -93 27 -116 27 -157 C27 -225 103 -274 207 -274 C328 -274 412 -198 412 -88 C412 -44 399 -13 375 3 C356 15 336 18 288 18 L132 18 Z M141 288 C141 354 159 377 212 377 C267 377 281 360 281 293 L281 228 C281 156 266 137 211 137 C156 137 141 156 141 228 L141 288 Z M138 -70 L174 -70 L293 -70 C349 -70 349 -70 362 -75 C377 -80 385 -94 385 -115 C385 -191 307 -254 211 -254 C133 -254 81 -211 81 -148 C81 -118 91 -96 118 -70 L138 -70 Z " />
<glyph glyph-name="h" unicode="h" horiz-adv-x="522" d="M162 667 L18 667 L18 649 L85 649 L85 18 L18 18 L18 0 L228 0 L228 18 L162 18 L162 177 C162 235 168 281 179 304 C201 348 240 374 286 374 C339 374 360 349 360 286 L360 18 L293 18 L293 0 L503 0 L503 18 L437 18 L437 286 C437 361 397 397 312 397 C248 397 210 379 162 327 L162 667 Z " />
<glyph glyph-name="i" unicode="i" horiz-adv-x="265" d="M181 387 L37 387 L37 369 L104 369 L104 18 L37 18 L37 0 L247 0 L247 18 L181 18 L181 387 Z M135 654 C106 654 82 630 82 601 C82 571 106 547 135 547 C164 547 189 571 189 600 C189 630 165 654 135 654 L135 654 Z " />
<glyph glyph-name="j" unicode="j" horiz-adv-x="228" d="M162 387 L18 387 L18 369 L85 369 L85 -182 C85 -233 73 -254 43 -254 C26 -254 16 -246 16 -231 C16 -228 16 -223 17 -219 C20 -206 20 -203 20 -197 C20 -172 7 -157 -14 -157 C-35 -157 -48 -174 -48 -202 C-48 -244 -12 -274 37 -274 C77 -274 114 -252 136 -217 C156 -185 162 -154 162 -77 L162 387 Z M117 654 C88 654 64 630 64 601 C64 571 88 547 118 547 C147 547 171 571 171 600 C171 630 148 654 117 654 L117 654 Z " />
<glyph glyph-name="k" unicode="k" horiz-adv-x="490" d="M162 667 L18 667 L18 649 L85 649 L85 18 L18 18 L18 0 L228 0 L228 18 L162 18 L162 667 Z M257 250 L385 369 L452 369 L452 387 L257 387 L257 369 L351 369 L182 214 L331 18 L277 18 L277 0 L489 0 L489 18 L441 18 L257 250 Z " />
<glyph glyph-name="l" unicode="l" horiz-adv-x="246" d="M162 667 L8 667 L8 649 L85 649 L85 18 L8 18 L8 0 L238 0 L238 18 L162 18 L162 667 Z " />
<glyph glyph-name="m" unicode="m" horiz-adv-x="757" d="M181 387 L37 387 L37 369 L104 369 L104 18 L37 18 L37 0 L247 0 L247 18 L181 18 L181 189 C181 258 184 288 193 312 C207 348 244 374 283 374 C326 374 350 348 350 299 L350 18 L283 18 L283 0 L493 0 L493 18 L427 18 L427 206 C427 277 430 300 445 325 C462 355 495 374 530 374 C574 374 595 350 595 299 L595 18 L528 18 L528 0 L738 0 L738 18 L672 18 L672 287 C672 365 639 397 560 397 C505 397 466 381 426 343 C405 382 375 397 318 397 C262 397 224 382 181 343 L181 387 Z " />
<glyph glyph-name="n" unicode="n" horiz-adv-x="523" d="M181 387 L37 387 L37 369 L104 369 L104 18 L37 18 L37 0 L247 0 L247 18 L181 18 L181 178 C181 250 186 289 198 313 C216 349 256 374 296 374 C341 374 362 348 362 292 L362 18 L295 18 L295 0 L505 0 L505 18 L439 18 L439 265 C439 310 431 335 412 357 C389 383 352 397 311 397 C258 397 222 378 181 330 L181 387 Z " />
<glyph glyph-name="o" unicode="o" horiz-adv-x="470" d="M235 397 C127 397 40 306 40 194 C40 80 127 -10 235 -10 C342 -10 430 81 430 191 C430 307 345 397 235 397 L235 397 Z M133 218 C135 304 136 312 144 328 C157 358 192 377 234 377 C273 377 305 362 322 335 C332 318 337 280 337 218 L337 169 C337 117 332 74 325 59 C311 28 277 10 234 10 C195 10 163 26 147 52 C136 70 136 76 133 169 L133 218 Z " />
<glyph glyph-name="p" unicode="p" horiz-adv-x="489" d="M162 387 L18 387 L18 369 L85 369 L85 -249 L18 -249 L18 -267 L242 -267 L242 -249 L162 -249 L162 82 C197 14 228 -10 285 -10 C376 -10 450 84 450 201 C450 312 379 397 287 397 C230 397 192 370 162 306 L162 387 Z M357 176 C357 54 336 10 278 10 C213 10 164 87 164 189 C164 302 211 377 282 377 C312 377 336 363 346 338 C354 321 357 297 357 249 L357 176 Z " />
<glyph glyph-name="q" unicode="q" horiz-adv-x="478" d="M316 387 L316 316 C281 375 249 397 197 397 C108 397 40 310 40 197 C40 80 111 -10 203 -10 C255 -10 283 12 316 77 L316 -249 L236 -249 L236 -267 L460 -267 L460 -249 L393 -249 L393 369 L460 369 L460 387 L316 387 Z M133 239 C133 290 136 318 145 337 C156 362 178 377 205 377 C239 377 270 356 291 318 C307 290 313 256 313 195 C313 142 307 105 294 75 C276 35 242 10 206 10 C182 10 160 25 148 49 C138 69 133 108 133 159 L133 239 Z " />
<glyph glyph-name="r" unicode="r" horiz-adv-x="353" d="M181 387 L37 387 L37 369 L104 369 L104 18 L37 18 L37 0 L247 0 L247 18 L181 18 L181 134 C181 216 184 245 201 291 C217 336 236 360 256 360 C265 360 269 355 270 344 C271 310 282 294 305 294 C328 294 344 314 344 344 C344 376 321 397 288 397 C257 397 229 381 211 353 C200 335 194 322 181 287 L181 387 Z " />
<glyph glyph-name="s" unicode="s" horiz-adv-x="356" d="M300 395 L287 395 L273 359 C238 387 211 397 176 397 C106 397 56 347 56 277 C56 217 90 175 149 164 L226 148 C269 140 290 120 290 88 C290 45 249 10 199 10 C157 10 121 31 96 71 C83 92 77 108 69 148 L52 148 L52 0 L62 0 L85 38 C127 1 154 -10 195 -10 C269 -10 321 45 321 122 C321 193 286 232 208 248 L163 257 C106 268 86 282 86 307 C86 346 124 377 171 377 C230 377 271 341 283 280 L300 280 L300 395 Z " />
<glyph glyph-name="t" unicode="t" horiz-adv-x="289" d="M162 369 L268 369 L268 387 L162 387 L162 546 L152 546 C133 479 71 403 20 384 L20 369 L85 369 L85 107 C85 61 89 43 104 24 C122 2 150 -10 186 -10 C245 -10 278 17 289 74 L269 74 C261 36 244 20 212 20 C176 20 162 39 162 85 L162 369 Z " />
<glyph glyph-name="u" unicode="u" horiz-adv-x="511" d="M426 387 L282 387 L282 369 L349 369 L349 200 C349 141 341 91 330 69 C312 34 274 13 231 13 C178 13 162 38 162 117 L162 387 L18 387 L18 369 L85 369 L85 131 C85 80 90 54 106 33 C127 6 167 -10 217 -10 C278 -10 314 9 349 60 L349 0 L492 0 L492 18 L426 18 L426 387 Z " />
<glyph glyph-name="v" unicode="v" horiz-adv-x="433" d="M206 -10 L237 -10 L388 369 L433 369 L433 387 L286 387 L286 369 L365 369 L251 85 L139 369 L218 369 L218 387 L0 387 L0 369 L51 369 L206 -10 Z " />
<glyph glyph-name="w" unicode="w" horiz-adv-x="612" d="M419 -10 L448 -10 L568 369 L612 369 L612 387 L481 387 L481 369 L545 369 L459 94 L349 387 L327 387 L237 94 L136 369 L209 369 L209 387 L0 387 L0 369 L51 369 L196 -9 L226 -9 L311 261 L419 -10 Z " />
<glyph glyph-name="x" unicode="x" horiz-adv-x="423" d="M239 230 L348 369 L401 369 L401 387 L254 387 L254 369 L320 369 L224 249 L141 369 L205 369 L205 387 L-3 387 L-3 369 L47 369 L176 182 L47 18 L-3 18 L-3 0 L155 0 L155 18 L79 18 L190 163 L290 18 L240 18 L240 0 L427 0 L427 18 L385 18 L239 230 Z " />
<glyph glyph-name="y" unicode="y" horiz-adv-x="414" d="M250 94 L135 369 L203 369 L203 387 L0 387 L0 369 L47 369 L215 -6 L161 -161 C148 -201 143 -208 128 -208 C122 -208 118 -205 114 -200 C98 -180 89 -174 71 -174 C46 -174 28 -194 28 -221 C28 -252 51 -274 83 -274 C127 -274 155 -244 181 -170 L370 369 L414 369 L414 387 L274 387 L274 369 L344 369 L250 94 Z " />
<glyph glyph-name="z" unicode="z" horiz-adv-x="401" d="M367 0 L369 164 L356 164 C330 42 307 18 222 18 L132 18 L375 387 L62 387 L59 238 L72 238 C104 349 124 368 211 369 L270 369 L31 0 L367 0 Z " />
<glyph glyph-name="braceleft" unicode="&#x7b;" horiz-adv-x="265" d="M1 250 C29 248 37 245 49 230 C64 209 65 203 66 108 L66 22 C66 -98 69 -116 100 -149 C123 -173 157 -180 240 -180 L240 -162 C159 -157 137 -122 141 0 L141 103 C144 206 125 243 63 256 L63 260 C125 274 144 308 141 403 L141 501 C138 609 162 645 240 649 L240 667 C157 666 136 662 113 647 C73 615 64 580 66 469 L66 395 C64 288 56 270 1 266 L1 250 Z " />
<glyph glyph-name="bar" unicode="&#x7c;" horiz-adv-x="500" d="M221 667 L221 -167 L279 -167 L279 667 L221 667 Z " />
<glyph glyph-name="braceright" unicode="&#x7d;" horiz-adv-x="265" d="M264 266 C209 270 200 288 199 395 L199 469 C200 576 193 608 159 642 C134 662 114 666 25 667 L25 649 C102 645 126 609 124 501 L124 403 C121 308 139 274 202 260 L202 256 C139 243 121 206 124 103 L124 0 C127 -122 106 -157 25 -162 L25 -180 C101 -180 135 -174 158 -155 C195 -121 199 -102 199 22 L199 108 C200 202 201 209 216 230 C228 245 235 248 264 250 L264 266 Z " />
<glyph glyph-name="asciitilde" unicode="&#x7e;" horiz-adv-x="500" d="M406 374 C388 351 370 342 344 342 C329 342 308 345 293 350 L249 365 C225 373 213 375 193 375 C143 375 114 355 84 299 L94 294 C112 316 132 325 163 325 C179 325 197 322 216 316 L259 302 C282 295 296 292 310 292 C352 292 380 312 416 369 L406 374 Z " />
<glyph glyph-name="uni00A0" unicode="&#xa0;" horiz-adv-x="250" d="" />
<glyph glyph-name="exclamdown" unicode="&#xa1;" horiz-adv-x="273" d="M129 207 L128 184 C124 53 122 21 106 -76 L89 -174 C87 -183 86 -194 86 -203 C86 -244 108 -274 137 -274 C166 -274 188 -244 188 -203 C188 -196 187 -184 185 -174 L167 -76 C151 22 148 59 145 207 L129 207 Z M136 410 C106 410 80 385 80 354 C80 322 105 297 137 297 C168 297 193 322 193 354 C193 385 168 410 136 410 L136 410 Z " />
<glyph glyph-name="cent" unicode="&#xa2;" horiz-adv-x="500" d="M281 665 L252 665 L252 545 C151 533 77 447 77 342 C77 235 152 149 252 140 L252 42 L281 42 L281 140 C359 147 412 195 430 276 L410 276 C394 209 348 168 281 160 L281 527 C320 527 357 514 357 500 C357 497 356 495 351 490 C340 479 334 463 334 447 C334 418 350 399 373 399 C397 399 413 418 413 446 C413 503 358 545 281 547 L281 665 Z M252 161 C189 172 169 211 170 314 L170 378 C172 479 193 516 252 525 L252 161 Z " />
<glyph glyph-name="sterling" unicode="&#xa3;" horiz-adv-x="500" d="M203 268 C240 221 248 201 248 158 C248 141 247 133 241 114 C198 133 153 144 112 144 C47 144 4 116 4 72 C4 28 46 0 110 0 C159 0 193 11 233 42 L273 17 C303 -1 332 -10 366 -10 C455 -10 501 52 503 171 L479 171 C480 166 480 161 480 160 C480 97 445 53 395 53 C372 53 335 65 299 85 L266 103 C277 140 281 165 281 195 C281 222 277 244 268 268 L401 268 L401 298 L253 298 C248 306 245 310 241 317 L197 381 C166 427 149 472 149 512 C149 597 206 657 287 657 C345 657 392 625 392 585 C392 578 390 574 383 568 C358 545 354 538 354 519 C354 492 373 471 398 471 C429 471 453 500 453 540 C453 615 375 677 282 677 C168 677 70 590 70 488 C70 447 85 413 123 366 L179 298 L57 298 L57 268 L203 268 Z M213 58 C182 30 154 20 112 20 C64 20 31 40 31 69 C31 92 53 109 83 109 C107 109 140 99 167 84 L213 58 Z " />
<glyph glyph-name="currency" unicode="&#xa4;" horiz-adv-x="500" d="M380 478 C342 511 298 527 250 527 C201 527 159 511 120 478 L53 545 L32 523 L98 457 C66 418 50 375 50 327 C50 279 66 235 98 196 L32 130 L53 109 L119 175 C159 143 202 127 250 127 C298 127 343 143 381 175 L447 109 L468 130 L402 196 C434 235 450 278 450 327 C450 375 434 418 402 457 L468 523 L447 545 L380 478 Z M250 464 C326 464 387 403 387 326 C387 250 325 190 248 190 C174 190 113 252 113 327 C113 403 174 464 250 464 L250 464 Z " />
<glyph glyph-name="yen" unicode="&#xa5;" horiz-adv-x="500" d="M133 451 L25 451 L25 433 L142 433 L201 322 L55 322 L55 304 L211 304 L211 18 L125 18 L125 0 L377 0 L377 18 L291 18 L291 304 L444 304 L444 322 L299 322 L350 433 L474 433 L474 451 L358 451 L438 629 L496 629 L496 647 L333 647 L333 629 L414 629 L283 339 L135 629 L211 629 L211 647 L-10 647 L-10 629 L38 629 L133 451 Z " />
<glyph glyph-name="brokenbar" unicode="&#xa6;" horiz-adv-x="500" d="M221 667 L221 330 L279 330 L279 667 L221 667 Z M221 153 L221 -167 L279 -167 L279 153 L221 153 Z " />
<glyph glyph-name="section" unicode="&#xa7;" horiz-adv-x="500" d="M199 475 C143 505 125 526 125 563 C125 620 176 657 255 657 C309 657 348 640 370 607 C327 597 311 581 311 550 C311 522 330 503 356 503 C387 503 411 530 411 564 C411 629 344 677 253 677 C198 677 160 663 129 633 C101 604 85 564 85 521 C85 471 103 439 150 402 C84 370 56 328 56 259 C56 193 78 164 163 118 L307 40 C373 5 391 -17 391 -61 C391 -128 332 -170 237 -170 C172 -170 130 -152 98 -109 C140 -105 163 -81 163 -41 C163 -10 143 13 115 13 C82 13 56 -18 56 -58 C56 -132 135 -190 233 -190 C355 -190 440 -122 440 -24 C440 37 415 73 343 118 C410 142 445 191 445 258 C445 325 416 362 326 409 L199 475 Z M153 215 C109 239 89 265 89 300 C89 345 127 383 171 383 C191 383 216 377 235 366 L327 316 C392 281 412 258 412 222 C412 179 367 136 323 136 C308 136 298 139 276 151 L153 215 Z " />
<glyph glyph-name="dieresis" unicode="&#xa8;" horiz-adv-x="500" d="M163 584 C137 584 115 562 115 536 C115 509 137 487 164 487 C190 487 212 509 212 535 C212 562 191 584 163 584 L163 584 Z M336 584 C310 584 288 562 288 536 C288 509 310 487 337 487 C363 487 385 509 385 535 C385 562 364 584 336 584 L336 584 Z " />
<glyph glyph-name="copyright" unicode="&#xa9;" horiz-adv-x="787" d="M530 530 L517 530 L499 503 C466 527 439 536 405 536 C306 536 230 448 230 334 C230 226 306 138 400 138 C434 138 462 147 498 171 L517 143 L530 143 L530 255 L516 255 C489 185 456 156 402 156 C366 156 333 173 319 200 C307 221 304 250 304 333 C304 393 307 434 313 456 C324 495 358 518 404 518 C461 518 500 486 516 425 L530 425 L530 530 Z M394 677 C202 677 47 523 47 333 C47 147 203 -10 388 -10 C584 -10 740 141 740 331 C740 524 586 677 394 677 L394 677 Z M394 649 C567 649 705 508 705 331 C705 157 564 18 389 18 C222 18 82 162 82 333 C82 508 221 649 394 649 L394 649 Z " />
<glyph glyph-name="ordfeminine" unicode="&#xaa;" horiz-adv-x="333" d="M308 330 L25 330 L25 297 L308 297 L308 330 Z M197 551 C150 550 127 546 102 537 C61 521 38 493 38 459 C38 419 68 394 114 394 C151 394 178 410 198 442 C203 410 222 394 252 394 C270 394 277 397 304 415 L293 429 C284 421 279 418 272 418 C260 418 257 423 257 442 L257 593 C257 622 250 640 234 652 C217 666 190 674 160 674 C104 674 56 642 56 606 C56 587 68 573 84 573 C100 573 112 586 112 604 C112 612 109 620 103 627 C100 630 99 632 99 634 C99 644 128 656 152 656 C183 656 197 644 197 615 L197 551 Z M197 516 C197 492 195 476 191 466 C182 443 161 428 138 428 C113 428 97 445 97 470 C97 511 130 532 197 534 L197 516 Z " />
<glyph glyph-name="guillemotleft" unicode="&#xab;" horiz-adv-x="376" d="M162 200 L273 96 L323 96 L213 200 L323 304 L273 304 L162 200 Z M47 200 L158 96 L208 96 L98 200 L208 304 L158 304 L47 200 Z " />
<glyph glyph-name="logicalnot" unicode="&#xac;" horiz-adv-x="500" d="M365 0 L465 0 L465 267 L35 267 L35 224 L365 224 L365 0 Z " />
<glyph glyph-name="uni00AD" unicode="&#xad;" horiz-adv-x="189" d="M189 230 L0 230 L0 170 L189 170 L189 230 Z " />
<glyph glyph-name="registered" unicode="&#xae;" horiz-adv-x="787" d="M344 340 L376 340 C433 338 453 321 456 268 L456 240 C456 176 485 140 538 140 C555 140 564 142 583 151 L578 167 C565 161 559 159 551 159 C532 159 524 172 524 208 L524 239 C524 294 489 335 433 346 C498 356 537 390 537 438 C537 469 524 493 498 510 C475 525 451 530 395 530 L231 530 L231 513 L282 513 L282 160 L231 160 L231 143 L399 143 L399 160 L344 160 L344 340 Z M344 357 L344 513 L383 513 C444 513 469 490 469 435 C469 382 441 357 379 357 L344 357 Z M394 677 C202 677 47 523 47 333 C47 147 203 -10 388 -10 C584 -10 740 141 740 331 C740 524 586 677 394 677 L394 677 Z M394 649 C567 649 705 508 705 331 C705 157 564 18 389 18 C222 18 82 162 82 333 C82 508 221 649 394 649 L394 649 Z " />
<glyph glyph-name="macron" unicode="&#xaf;" horiz-adv-x="512" d="M379 499 L379 523 L133 523 L133 499 L379 499 Z " />
<glyph glyph-name="degree" unicode="&#xb0;" horiz-adv-x="400" d="M203 686 C117 686 50 619 50 534 C50 448 116 381 200 381 C284 381 350 448 350 533 C350 619 286 686 203 686 L203 686 Z M202 629 C252 629 293 586 293 534 C293 480 252 438 200 438 C148 438 106 481 106 533 C106 587 148 629 202 629 L202 629 Z " />
<glyph glyph-name="plusminus" unicode="&#xb1;" horiz-adv-x="500" d="M235 308 L235 131 L265 131 L265 308 L449 308 L449 338 L265 338 L265 515 L235 515 L235 338 L51 338 L51 308 L235 308 Z M51 11 L449 11 L449 41 L51 41 L51 11 Z " />
<glyph glyph-name="twosuperior" unicode="&#xb2;" horiz-adv-x="327" d="M279 258 L279 369 L265 369 C256 311 256 311 215 310 L82 310 L176 402 C229 452 229 452 245 473 C268 501 280 528 280 553 C280 611 229 653 158 653 C93 653 46 615 46 562 C46 529 65 505 92 505 C111 505 124 518 124 535 C124 552 110 565 94 565 C88 565 83 564 74 560 C73 559 72 559 71 559 C68 559 66 563 66 569 C66 603 100 633 138 633 C183 633 212 594 212 535 C212 487 190 446 132 388 L33 290 L33 258 L279 258 Z " />
<glyph glyph-name="threesuperior" unicode="&#xb3;" horiz-adv-x="327" d="M88 477 L88 460 L115 460 C185 460 215 431 215 363 C215 303 189 271 139 271 C122 271 107 275 94 283 C86 288 78 296 78 299 C78 301 79 302 85 306 C95 313 99 321 99 334 C99 352 88 364 72 364 C54 364 41 349 41 326 C41 284 85 253 145 253 C226 253 285 303 285 372 C285 426 247 460 176 469 C228 484 263 523 263 565 C263 616 217 653 155 653 C102 653 62 625 62 588 C62 568 74 553 90 553 C105 553 116 565 116 583 C116 594 111 603 102 609 C99 611 97 613 97 614 C97 623 123 633 145 633 C183 633 197 615 197 568 C197 503 174 477 115 477 L88 477 Z " />
<glyph glyph-name="acute" unicode="&#xb4;" horiz-adv-x="500" d="M313 613 L218 470 C217 469 216 467 216 466 C216 465 218 463 219 463 C221 463 221 463 224 466 L383 595 C388 599 391 603 391 606 C391 611 387 613 378 613 L313 613 Z " />
<glyph glyph-name="mu" unicode="&#xb5;" horiz-adv-x="576" d="M442 500 L353 500 L354 131 C318 80 284 58 242 58 C184 58 150 99 150 169 L150 500 L62 500 L62 20 C62 -1 58 -26 51 -56 C34 -118 33 -123 33 -147 C33 -190 54 -219 83 -219 C112 -219 132 -189 132 -145 C132 -124 129 -110 113 -53 C102 -17 101 -8 101 21 L101 33 C143 -3 165 -13 200 -13 C250 -13 301 18 354 80 C362 48 367 36 377 21 C392 0 419 -13 449 -13 C510 -13 553 31 567 108 L540 109 C536 71 515 41 492 41 C462 41 442 77 442 131 L442 500 Z " />
<glyph glyph-name="paragraph" unicode="&#xb6;" horiz-adv-x="500" d="M228 -162 L151 -162 L151 -180 L460 -180 L460 -162 L400 -162 L400 649 L460 649 L460 667 L222 667 C174 667 133 658 106 641 C57 611 27 552 27 488 C27 384 99 312 205 312 L228 312 L228 -162 Z M271 -162 L271 649 L357 649 L357 -162 L271 -162 Z " />
<glyph glyph-name="periodcentered" unicode="&#xb7;" horiz-adv-x="247" d="M123 256 C92 256 67 231 67 199 C67 168 92 143 124 143 C154 143 180 168 180 199 C180 231 155 256 123 256 L123 256 Z " />
<glyph glyph-name="cedilla" unicode="&#xb8;" horiz-adv-x="500" d="M261 0 L242 0 L225 -65 C260 -74 275 -89 275 -114 C275 -140 254 -160 227 -160 C214 -160 197 -156 190 -151 C183 -147 183 -146 183 -130 C183 -108 179 -98 170 -98 C162 -98 158 -104 158 -114 C158 -150 191 -176 236 -176 C288 -176 333 -144 333 -107 C333 -75 305 -56 259 -56 L245 -56 L261 0 Z " />
<glyph glyph-name="onesuperior" unicode="&#xb9;" horiz-adv-x="327" d="M205 647 L72 641 L72 625 L132 625 C143 625 143 625 143 613 L143 276 L72 276 L72 258 L270 258 L270 276 L205 276 L205 647 Z " />
<glyph glyph-name="ordmasculine" unicode="&#xba;" horiz-adv-x="333" d="M308 330 L25 330 L25 297 L308 297 L308 330 Z M166 674 C90 674 28 611 28 534 C28 456 89 394 166 394 C242 394 304 456 304 532 C304 612 243 674 166 674 L166 674 Z M98 550 C98 584 101 613 106 623 C116 642 138 654 166 654 C191 654 212 644 223 627 C230 616 233 591 233 550 L233 517 C233 482 230 455 226 445 C216 426 194 414 166 414 C140 414 119 424 109 441 C102 451 98 477 98 517 L98 550 Z " />
<glyph glyph-name="guillemotright" unicode="&#xbb;" horiz-adv-x="376" d="M214 200 L103 304 L53 304 L164 200 L53 96 L103 96 L214 200 Z M329 200 L218 304 L168 304 L279 200 L168 96 L218 96 L329 200 Z " />
<glyph glyph-name="onequarter" unicode="&#xbc;" horiz-adv-x="767" d="M205 647 L72 641 L72 625 L132 625 C143 625 143 625 143 613 L143 276 L72 276 L72 258 L270 258 L270 276 L205 276 L205 647 Z M563 647 L529 647 L229 0 L263 0 L563 647 Z M669 103 L718 103 L718 59 L737 59 L737 168 L718 168 L718 124 L669 124 L669 393 L634 393 L461 132 L461 103 L607 103 L607 18 L549 18 L549 0 L719 0 L719 18 L669 18 L669 103 Z M607 124 L482 124 L607 315 L607 124 Z " />
<glyph glyph-name="onehalf" unicode="&#xbd;" horiz-adv-x="767" d="M205 647 L72 641 L72 625 L132 625 C143 625 143 625 143 613 L143 276 L72 276 L72 258 L270 258 L270 276 L205 276 L205 647 Z M550 647 L516 647 L216 0 L250 0 L550 647 Z M719 0 L719 111 L704 111 C696 53 696 53 654 52 L522 52 L616 144 C669 194 669 194 685 214 C708 243 720 270 720 294 C720 352 669 394 598 394 C533 394 486 356 486 303 C486 271 505 247 532 247 C551 247 564 260 564 277 C564 294 550 307 534 307 C528 307 523 306 514 302 C513 301 512 301 511 301 C508 301 506 305 506 311 C506 344 540 374 578 374 C622 374 652 335 652 276 C652 228 630 189 572 130 L473 32 L473 0 L719 0 Z " />
<glyph glyph-name="threequarters" unicode="&#xbe;" horiz-adv-x="767" d="M88 477 L88 460 L115 460 C185 460 215 431 215 363 C215 303 189 271 139 271 C122 271 107 275 94 283 C86 288 78 296 78 299 C78 301 79 302 85 306 C95 313 99 321 99 334 C99 352 88 364 72 364 C54 364 41 349 41 326 C41 284 85 253 145 253 C226 253 285 303 285 372 C285 426 247 460 176 469 C228 484 263 523 263 565 C263 616 217 653 155 653 C102 653 62 625 62 588 C62 568 74 553 90 553 C105 553 116 565 116 583 C116 594 111 603 102 609 C99 611 97 613 97 614 C97 623 123 633 145 633 C183 633 197 615 197 568 C197 503 174 477 115 477 L88 477 Z M564 647 L530 647 L230 0 L264 0 L564 647 Z M670 103 L718 103 L718 59 L737 59 L737 168 L718 168 L718 124 L670 124 L670 393 L635 393 L462 132 L462 103 L608 103 L608 18 L550 18 L550 0 L719 0 L719 18 L670 18 L670 103 Z M608 124 L483 124 L608 315 L608 124 Z " />
<glyph glyph-name="questiondown" unicode="&#xbf;" horiz-adv-x="377" d="M230 207 C230 142 222 127 166 79 L116 38 C65 -3 40 -52 40 -111 C40 -206 105 -274 195 -274 C277 -274 339 -217 339 -143 C339 -108 322 -84 298 -84 C276 -84 262 -101 262 -128 C262 -148 269 -161 287 -172 C300 -179 303 -183 303 -191 C303 -222 248 -254 195 -254 C130 -254 81 -216 81 -166 C81 -136 99 -102 131 -72 L163 -43 C205 -4 220 15 231 47 C241 75 247 113 247 152 C247 170 246 183 243 211 L230 207 Z M230 410 C200 410 174 385 174 354 C174 322 199 297 231 297 C262 297 287 322 287 354 C287 385 262 410 230 410 L230 410 Z " />
<glyph glyph-name="Agrave" unicode="&#xc0;" horiz-adv-x="606" d="M366 214 L433 18 L338 18 L338 0 L610 0 L610 18 L534 18 L315 667 L288 667 L61 18 L-3 18 L-3 0 L174 0 L174 18 L86 18 L153 214 L366 214 Z M359 232 L160 232 L260 527 L359 232 Z M231 833 L134 833 C125 833 121 831 121 825 C121 821 124 818 134 814 L355 721 C356 720 359 720 361 720 C364 720 365 721 365 724 C365 726 364 728 360 731 L231 833 Z " />
<glyph glyph-name="Aacute" unicode="&#xc1;" horiz-adv-x="606" d="M366 214 L433 18 L338 18 L338 0 L610 0 L610 18 L534 18 L315 667 L288 667 L61 18 L-3 18 L-3 0 L174 0 L174 18 L86 18 L153 214 L366 214 Z M359 232 L160 232 L260 527 L359 232 Z M410 833 L281 731 C276 727 276 726 276 724 C276 721 277 720 280 720 C282 720 285 720 287 721 L508 814 C516 817 520 821 520 825 C520 831 516 833 507 833 L410 833 Z " />
<glyph glyph-name="Acircumflex" unicode="&#xc2;" horiz-adv-x="606" d="M366 214 L433 18 L338 18 L338 0 L610 0 L610 18 L534 18 L315 667 L288 667 L61 18 L-3 18 L-3 0 L174 0 L174 18 L86 18 L153 214 L366 214 Z M359 232 L160 232 L260 527 L359 232 Z M302 769 L449 721 C451 720 452 720 454 720 C457 720 459 721 459 723 C459 725 458 726 453 730 L302 838 L151 730 C147 727 145 725 145 723 C145 721 147 720 150 720 C151 720 153 720 154 721 L302 769 Z " />
<glyph glyph-name="Atilde" unicode="&#xc3;" horiz-adv-x="606" d="M366 214 L433 18 L338 18 L338 0 L610 0 L610 18 L534 18 L315 667 L288 667 L61 18 L-3 18 L-3 0 L174 0 L174 18 L86 18 L153 214 L366 214 Z M359 232 L160 232 L260 527 L359 232 Z M463 815 C445 793 427 784 401 784 C386 784 363 787 350 792 L306 806 C279 815 269 817 250 817 C200 817 171 797 141 741 L151 735 C169 758 188 767 220 767 C235 767 252 764 273 757 L315 744 C341 736 353 733 367 733 C409 733 436 753 473 810 L463 815 Z " />
<glyph glyph-name="Adieresis" unicode="&#xc4;" horiz-adv-x="606" d="M366 214 L433 18 L338 18 L338 0 L610 0 L610 18 L534 18 L315 667 L288 667 L61 18 L-3 18 L-3 0 L174 0 L174 18 L86 18 L153 214 L366 214 Z M359 232 L160 232 L260 527 L359 232 Z M196 824 C170 824 148 802 148 776 C148 749 170 727 197 727 C223 727 245 749 245 775 C245 802 224 824 196 824 L196 824 Z M407 824 C381 824 359 802 359 776 C359 749 381 727 408 727 C434 727 456 749 456 775 C456 802 435 824 407 824 L407 824 Z " />
<glyph glyph-name="Aring" unicode="&#xc5;" horiz-adv-x="606" d="M366 214 L433 18 L338 18 L338 0 L610 0 L610 18 L534 18 L315 667 L288 667 L61 18 L-3 18 L-3 0 L174 0 L174 18 L86 18 L153 214 L366 214 Z M359 232 L160 232 L260 527 L359 232 Z M301 859 C258 859 224 825 224 782 C224 740 257 707 300 707 C343 707 376 740 376 781 C376 825 343 859 301 859 L301 859 Z M301 832 C326 832 348 809 348 783 C348 757 326 734 300 734 C274 734 252 757 252 783 C252 809 274 832 301 832 L301 832 Z " />
<glyph glyph-name="AE" unicode="&#xc6;" horiz-adv-x="843" d="M763 667 L251 667 L251 649 L351 649 L47 18 L-27 18 L-27 0 L173 0 L173 18 L72 18 L165 211 L378 211 L378 18 L291 18 L291 0 L785 0 L805 207 L791 207 C777 153 764 116 751 92 C713 26 694 17 604 18 L471 18 L471 329 L514 329 C591 330 623 299 624 221 L624 197 L638 197 L638 472 L624 472 L624 453 C624 376 595 347 517 347 L471 347 L471 649 L555 649 C691 651 734 617 763 486 L776 486 L763 667 Z M378 229 L173 229 L378 649 L378 229 Z " />
<glyph glyph-name="Ccedilla" unicode="&#xc7;" horiz-adv-x="591" d="M329 -10 C386 -10 437 8 497 50 L530 0 L543 0 L543 185 L530 185 C510 134 498 109 479 85 C442 37 389 10 331 10 C268 10 212 41 186 89 C166 128 160 178 160 324 C160 431 165 505 176 543 C196 615 255 657 336 657 C390 657 438 637 475 599 C503 570 516 545 530 494 L543 494 L543 667 L530 667 L497 617 C439 661 396 677 337 677 C256 677 181 639 125 568 C73 505 47 423 47 328 C47 216 90 118 167 52 C210 16 252 -3 309 -9 L293 -67 C329 -76 346 -92 346 -117 C346 -145 324 -165 294 -165 C281 -165 265 -161 256 -156 C249 -152 249 -150 249 -134 C249 -112 245 -101 235 -101 C227 -101 223 -107 223 -118 C223 -155 257 -181 305 -181 C360 -181 407 -148 407 -110 C407 -77 378 -58 329 -58 L314 -58 L329 -10 Z " />
<glyph glyph-name="Egrave" unicode="&#xc8;" horiz-adv-x="586" d="M505 667 L33 667 L33 649 L120 649 L120 18 L33 18 L33 0 L527 0 L547 208 L534 208 C519 154 506 116 493 92 C455 26 437 17 346 18 L213 18 L213 329 L257 329 C333 330 365 299 366 221 L366 198 L380 198 L380 472 L366 472 L366 453 C366 376 337 347 259 347 L213 347 L213 649 L298 649 C433 651 476 617 505 486 L518 486 L505 667 Z M251 833 L154 833 C145 833 141 831 141 825 C141 821 144 818 153 814 L375 721 C376 720 379 720 381 720 C383 720 385 721 385 724 C385 726 384 728 380 731 L251 833 Z " />
<glyph glyph-name="Eacute" unicode="&#xc9;" horiz-adv-x="586" d="M505 667 L33 667 L33 649 L120 649 L120 18 L33 18 L33 0 L527 0 L547 208 L534 208 C519 154 506 116 493 92 C455 26 437 17 346 18 L213 18 L213 329 L257 329 C333 330 365 299 366 221 L366 198 L380 198 L380 472 L366 472 L366 453 C366 376 337 347 259 347 L213 347 L213 649 L298 649 C433 651 476 617 505 486 L518 486 L505 667 Z M393 833 L264 731 C261 728 260 726 260 724 C260 722 261 720 263 720 C266 720 268 720 269 721 L491 814 C499 817 503 821 503 825 C503 830 498 833 490 833 L393 833 Z " />
<glyph glyph-name="Ecircumflex" unicode="&#xca;" horiz-adv-x="586" d="M505 667 L33 667 L33 649 L120 649 L120 18 L33 18 L33 0 L527 0 L547 208 L534 208 C519 154 506 116 493 92 C455 26 437 17 346 18 L213 18 L213 329 L257 329 C333 330 365 299 366 221 L366 198 L380 198 L380 472 L366 472 L366 453 C366 376 337 347 259 347 L213 347 L213 649 L298 649 C433 651 476 617 505 486 L518 486 L505 667 Z M300 769 L447 721 C449 720 450 720 452 720 C455 720 457 721 457 723 C457 725 455 727 451 730 L300 838 L149 730 C144 727 143 725 143 723 C143 721 145 720 148 720 C149 720 151 720 152 721 L300 769 Z " />
<glyph glyph-name="Edieresis" unicode="&#xcb;" horiz-adv-x="586" d="M505 667 L33 667 L33 649 L120 649 L120 18 L33 18 L33 0 L527 0 L547 208 L534 208 C519 154 506 116 493 92 C455 26 437 17 346 18 L213 18 L213 329 L257 329 C333 330 365 299 366 221 L366 198 L380 198 L380 472 L366 472 L366 453 C366 376 337 347 259 347 L213 347 L213 649 L298 649 C433 651 476 617 505 486 L518 486 L505 667 Z M194 824 C167 824 146 802 146 776 C146 749 168 727 194 727 C221 727 243 749 243 775 C243 802 221 824 194 824 L194 824 Z M406 824 C379 824 358 802 358 776 C358 749 380 727 406 727 C433 727 455 749 455 775 C455 802 433 824 406 824 L406 824 Z " />
<glyph glyph-name="Igrave" unicode="&#xcc;" horiz-adv-x="333" d="M120 18 L33 18 L33 0 L300 0 L300 18 L213 18 L213 649 L300 649 L300 667 L33 667 L33 649 L120 649 L120 18 Z M107 833 L14 833 C5 833 1 830 1 825 C1 821 4 818 13 814 L218 721 C219 720 222 720 224 720 C227 720 228 721 228 724 C228 726 228 727 223 731 L107 833 Z " />
<glyph glyph-name="Iacute" unicode="&#xcd;" horiz-adv-x="333" d="M120 18 L33 18 L33 0 L299 0 L299 18 L213 18 L213 649 L299 649 L299 667 L33 667 L33 649 L120 649 L120 18 Z M253 833 L138 731 C133 727 133 727 133 724 C133 721 134 720 136 720 C139 720 142 720 143 721 L348 814 C357 818 360 821 360 826 C360 831 355 833 347 833 L253 833 Z " />
<glyph glyph-name="Icircumflex" unicode="&#xce;" horiz-adv-x="333" d="M120 18 L33 18 L33 0 L300 0 L300 18 L213 18 L213 649 L300 649 L300 667 L33 667 L33 649 L120 649 L120 18 Z M167 769 L301 721 C302 720 304 720 305 720 C308 720 310 721 310 723 C310 725 308 727 305 730 L167 838 L29 730 C24 726 23 725 23 723 C23 721 25 720 28 720 C30 720 31 720 33 721 L167 769 Z " />
<glyph glyph-name="Idieresis" unicode="&#xcf;" horiz-adv-x="333" d="M120 18 L33 18 L33 0 L299 0 L299 18 L213 18 L213 649 L299 649 L299 667 L33 667 L33 649 L120 649 L120 18 Z M82 824 C55 824 34 802 34 776 C34 749 56 727 82 727 C109 727 131 749 131 775 C131 802 109 824 82 824 L82 824 Z M250 824 C223 824 202 802 202 776 C202 749 224 727 250 727 C277 727 299 749 299 775 C299 802 277 824 250 824 L250 824 Z " />
<glyph glyph-name="Eth" unicode="&#xd0;" horiz-adv-x="673" d="M120 330 L120 18 L33 18 L33 0 L282 0 C412 0 473 22 538 91 C595 153 627 240 627 334 C627 428 596 514 541 574 C479 641 408 667 281 667 L33 667 L33 649 L120 649 L120 348 L33 348 L33 330 L120 330 Z M213 330 L368 330 L368 348 L213 348 L213 649 L280 649 C368 649 416 636 454 603 C497 566 513 499 513 347 C513 202 502 127 476 89 C442 38 387 18 282 18 L213 18 L213 330 Z " />
<glyph glyph-name="Ntilde" unicode="&#xd1;" horiz-adv-x="679" d="M556 0 L572 0 L572 649 L645 649 L645 667 L462 667 L462 649 L549 649 L549 185 L234 667 L23 667 L23 649 L110 649 L110 18 L23 18 L23 0 L226 0 L226 18 L133 18 L133 644 L556 0 Z M511 815 C494 793 476 784 450 784 C434 784 412 787 399 792 L355 806 C327 815 318 817 299 817 C249 817 220 797 190 741 L199 735 C218 758 237 767 269 767 C284 767 301 764 322 757 L364 744 C390 736 402 733 415 733 C458 733 485 753 522 810 L511 815 Z " />
<glyph glyph-name="Ograve" unicode="&#xd2;" horiz-adv-x="660" d="M331 677 C257 677 188 644 133 583 C77 520 47 433 47 334 C47 241 72 161 121 99 C177 28 250 -10 331 -10 C489 -10 614 139 614 330 C614 426 590 505 540 568 C484 639 411 677 331 677 L331 677 Z M331 657 C402 657 460 620 483 560 C498 519 501 481 501 329 C501 202 498 161 488 124 C468 52 409 10 331 10 C259 10 201 47 179 108 C163 148 160 187 160 333 C160 466 162 505 173 543 C193 615 251 657 331 657 L331 657 Z M268 833 L172 833 C162 833 158 831 158 825 C158 821 161 818 171 814 L392 721 C393 720 396 720 398 720 C401 720 402 722 402 724 C402 726 401 728 397 731 L268 833 Z " />
<glyph glyph-name="Oacute" unicode="&#xd3;" horiz-adv-x="660" d="M331 677 C257 677 188 644 133 583 C77 520 47 433 47 334 C47 241 72 161 121 99 C177 28 250 -10 331 -10 C489 -10 614 139 614 330 C614 426 590 505 540 568 C484 639 411 677 331 677 L331 677 Z M331 657 C402 657 460 620 483 560 C498 519 501 481 501 329 C501 202 498 161 488 124 C468 52 409 10 331 10 C259 10 201 47 179 108 C163 148 160 187 160 333 C160 466 162 505 173 543 C193 615 251 657 331 657 L331 657 Z M415 833 L286 731 C282 727 281 726 281 724 C281 721 282 720 285 720 C287 720 290 720 291 721 L513 814 C522 818 525 821 525 825 C525 830 521 833 512 833 L415 833 Z " />
<glyph glyph-name="Ocircumflex" unicode="&#xd4;" horiz-adv-x="660" d="M331 677 C257 677 188 644 133 583 C77 520 47 433 47 334 C47 241 72 161 121 99 C177 28 250 -10 331 -10 C489 -10 614 139 614 330 C614 426 590 505 540 568 C484 639 411 677 331 677 L331 677 Z M331 657 C402 657 460 620 483 560 C498 519 501 481 501 329 C501 202 498 161 488 124 C468 52 409 10 331 10 C259 10 201 47 179 108 C163 148 160 187 160 333 C160 466 162 505 173 543 C193 615 251 657 331 657 L331 657 Z M331 769 L478 721 C480 720 481 720 483 720 C486 720 488 721 488 723 C488 725 487 726 482 730 L331 838 L179 730 C176 727 174 725 174 723 C174 721 176 720 179 720 C180 720 182 720 183 721 L331 769 Z " />
<glyph glyph-name="Otilde" unicode="&#xd5;" horiz-adv-x="660" d="M331 677 C257 677 188 644 133 583 C77 520 47 433 47 334 C47 241 72 161 121 99 C177 28 250 -10 331 -10 C489 -10 614 139 614 330 C614 426 590 505 540 568 C484 639 411 677 331 677 L331 677 Z M331 657 C402 657 460 620 483 560 C498 519 501 481 501 329 C501 202 498 161 488 124 C468 52 409 10 331 10 C259 10 201 47 179 108 C163 148 160 187 160 333 C160 466 162 505 173 543 C193 615 251 657 331 657 L331 657 Z M493 815 C476 793 457 784 431 784 C416 784 394 787 380 792 L336 806 C309 815 299 817 281 817 C230 817 201 797 171 741 L181 735 C200 758 219 767 250 767 C265 767 282 764 303 757 L346 744 C372 736 384 733 397 733 C439 733 467 753 503 810 L493 815 Z " />
<glyph glyph-name="Odieresis" unicode="&#xd6;" horiz-adv-x="660" d="M331 677 C257 677 188 644 133 583 C77 520 47 433 47 334 C47 241 72 161 121 99 C177 28 250 -10 331 -10 C489 -10 614 139 614 330 C614 426 590 505 540 568 C484 639 411 677 331 677 L331 677 Z M331 657 C402 657 460 620 483 560 C498 519 501 481 501 329 C501 202 498 161 488 124 C468 52 409 10 331 10 C259 10 201 47 179 108 C163 148 160 187 160 333 C160 466 162 505 173 543 C193 615 251 657 331 657 L331 657 Z M224 824 C198 824 176 802 176 776 C176 749 198 727 225 727 C251 727 273 749 273 775 C273 802 252 824 224 824 L224 824 Z M436 824 C410 824 388 802 388 776 C388 749 410 727 437 727 C463 727 485 749 485 775 C485 802 464 824 436 824 L436 824 Z " />
<glyph glyph-name="multiply" unicode="&#xd7;" horiz-adv-x="500" d="M250 302 L389 163 L410 184 L271 323 L410 463 L389 484 L250 345 L110 484 L89 463 L228 323 L89 184 L110 163 L250 302 Z " />
<glyph glyph-name="Oslash" unicode="&#xd8;" horiz-adv-x="660" d="M579 667 L561 679 L506 605 C452 654 397 677 331 677 C256 677 189 645 133 583 C76 519 47 434 47 334 C47 230 75 151 137 80 L82 2 L98 -11 L152 65 C213 11 264 -10 330 -10 C405 -10 472 22 528 84 C584 148 614 233 614 333 C614 439 586 516 522 589 L579 667 Z M487 543 C498 510 501 464 501 344 C501 200 499 163 488 124 C468 52 409 10 331 10 C262 10 208 42 182 99 L487 543 Z M174 124 C163 163 160 202 160 328 C160 466 162 505 173 543 C194 615 251 657 330 657 C399 657 454 624 479 568 L174 124 Z " />
<glyph glyph-name="Ugrave" unicode="&#xd9;" horiz-adv-x="642" d="M200 649 L286 649 L286 667 L20 667 L20 649 L107 649 L107 249 C107 139 122 84 165 44 C202 10 266 -10 342 -10 C420 -10 475 15 509 67 C533 103 542 144 542 222 L542 649 L615 649 L615 667 L439 667 L439 649 L519 649 L519 222 C519 144 515 119 497 87 C469 37 421 10 360 10 C309 10 263 29 235 62 C207 94 200 126 200 205 L200 649 Z M292 833 L196 833 C187 833 183 831 183 825 C183 821 186 817 195 814 L416 721 C417 720 420 720 423 720 C425 720 427 721 427 724 C427 727 426 727 422 731 L292 833 Z " />
<glyph glyph-name="Uacute" unicode="&#xda;" horiz-adv-x="642" d="M200 649 L286 649 L286 667 L20 667 L20 649 L107 649 L107 249 C107 139 122 84 165 44 C202 10 266 -10 342 -10 C420 -10 475 15 509 67 C533 103 542 144 542 222 L542 649 L615 649 L615 667 L439 667 L439 649 L519 649 L519 222 C519 144 515 119 497 87 C469 37 421 10 360 10 C309 10 263 29 235 62 C207 94 200 126 200 205 L200 649 Z M441 833 L312 731 C309 728 308 726 308 724 C308 722 309 720 311 720 C314 720 316 720 317 721 L539 814 C547 817 551 821 551 825 C551 830 546 833 538 833 L441 833 Z " />
<glyph glyph-name="Ucircumflex" unicode="&#xdb;" horiz-adv-x="642" d="M200 649 L286 649 L286 667 L20 667 L20 649 L107 649 L107 249 C107 139 122 84 165 44 C202 10 266 -10 342 -10 C420 -10 475 15 509 67 C533 103 542 144 542 222 L542 649 L615 649 L615 667 L439 667 L439 649 L519 649 L519 222 C519 144 515 119 497 87 C469 37 421 10 360 10 C309 10 263 29 235 62 C207 94 200 126 200 205 L200 649 Z M358 769 L506 721 C507 720 509 720 510 720 C514 720 516 721 516 723 C516 725 515 726 509 730 L358 838 L207 730 C203 727 202 725 202 723 C202 721 204 720 207 720 C208 720 209 720 211 721 L358 769 Z " />
<glyph glyph-name="Udieresis" unicode="&#xdc;" horiz-adv-x="642" d="M200 649 L286 649 L286 667 L20 667 L20 649 L107 649 L107 249 C107 139 122 84 165 44 C202 10 266 -10 342 -10 C420 -10 475 15 509 67 C533 103 542 144 542 222 L542 649 L615 649 L615 667 L439 667 L439 649 L519 649 L519 222 C519 144 515 119 497 87 C469 37 421 10 360 10 C309 10 263 29 235 62 C207 94 200 126 200 205 L200 649 Z M240 824 C213 824 192 802 192 776 C192 749 214 727 240 727 C267 727 289 749 289 775 C289 802 267 824 240 824 L240 824 Z M452 824 C425 824 404 802 404 776 C404 749 426 727 452 727 C479 727 501 749 501 775 C501 802 479 824 452 824 L452 824 Z " />
<glyph glyph-name="Yacute" unicode="&#xdd;" horiz-adv-x="551" d="M331 312 L502 649 L571 649 L571 667 L380 667 L380 649 L478 649 L325 353 L150 649 L238 649 L238 667 L-20 667 L-20 649 L37 649 L238 312 L238 18 L138 18 L138 0 L431 0 L431 18 L331 18 L331 312 Z M407 833 L278 731 C274 728 273 726 273 724 C273 721 274 720 277 720 C279 720 282 720 283 721 L504 814 C514 818 517 821 517 825 C517 831 513 833 504 833 L407 833 Z " />
<glyph glyph-name="Thorn" unicode="&#xde;" horiz-adv-x="579" d="M213 203 L313 203 C392 203 445 216 484 246 C526 278 550 323 550 372 C550 421 527 469 488 501 C450 532 395 547 313 547 L213 547 L213 649 L306 649 L306 667 L33 667 L33 649 L120 649 L120 18 L33 18 L33 0 L306 0 L306 18 L213 18 L213 203 Z M213 221 L213 529 L306 529 C409 529 437 497 437 376 C437 255 408 221 307 221 L213 221 Z " />
<glyph glyph-name="germandbls" unicode="&#xdf;" horiz-adv-x="486" d="M162 18 L162 203 C162 268 169 303 188 329 C208 355 249 374 289 374 C327 374 353 351 353 318 C353 289 335 263 308 253 C291 246 280 244 251 244 L251 226 C285 226 295 225 312 220 C350 207 373 165 373 105 C373 45 354 10 321 10 C304 10 287 20 287 29 C287 31 288 34 291 38 C299 49 303 60 303 75 C303 98 290 113 271 113 C251 113 237 96 237 72 C237 26 277 -10 330 -10 C394 -10 450 46 450 112 C450 151 427 188 391 208 C367 221 350 227 306 235 C345 238 360 240 380 249 C411 262 430 288 430 319 C430 368 387 397 316 397 C243 397 201 378 162 325 L162 450 C162 522 169 574 183 606 C197 638 223 657 251 657 C267 657 280 650 280 641 C280 638 279 636 276 628 C272 618 270 609 270 601 C270 580 284 565 304 565 C328 565 344 583 344 609 C344 650 310 677 259 677 C217 677 184 662 152 627 C102 574 85 517 85 401 L85 18 L18 18 L18 0 L210 0 L210 18 L162 18 Z " />
<glyph glyph-name="agrave" unicode="&#xe0;" horiz-adv-x="422" d="M270 215 C198 213 165 208 129 194 C71 171 39 131 39 82 C39 26 80 -10 144 -10 C201 -10 239 15 270 71 C278 13 299 -10 345 -10 C369 -10 380 -6 413 18 L404 30 C392 19 384 15 374 15 C354 15 347 26 347 57 L347 282 C347 324 338 348 316 366 C292 386 253 397 211 397 C133 397 65 352 65 301 C65 275 80 257 101 257 C122 257 137 274 137 297 C137 309 134 315 124 329 C119 336 117 340 117 343 C117 359 162 380 199 380 C248 380 270 359 270 315 L270 215 Z M270 167 C270 132 267 106 261 89 C247 54 214 30 180 30 C141 30 115 57 115 99 C115 132 130 158 160 176 C189 193 214 198 270 200 L270 167 Z M187 613 L122 613 C113 613 109 611 109 606 C109 603 112 599 117 595 L276 466 C279 463 279 463 281 463 C283 463 284 464 284 466 C284 467 283 469 282 470 L187 613 Z " />
<glyph glyph-name="aacute" unicode="&#xe1;" horiz-adv-x="422" d="M270 215 C198 213 165 208 129 194 C71 171 39 131 39 82 C39 26 80 -10 144 -10 C201 -10 239 15 270 71 C278 13 299 -10 345 -10 C369 -10 380 -6 413 18 L404 30 C392 19 384 15 374 15 C354 15 347 26 347 57 L347 282 C347 324 338 348 316 366 C292 386 253 397 211 397 C133 397 65 352 65 301 C65 275 80 257 101 257 C122 257 137 274 137 297 C137 309 134 315 124 329 C119 336 117 340 117 343 C117 359 162 380 199 380 C248 380 270 359 270 315 L270 215 Z M270 167 C270 132 267 106 261 89 C247 54 214 30 180 30 C141 30 115 57 115 99 C115 132 130 158 160 176 C189 193 214 198 270 200 L270 167 Z M288 613 L192 470 C191 469 190 467 190 466 C190 465 191 463 193 463 C195 463 196 463 198 466 L357 595 C362 598 365 603 365 606 C365 611 361 613 353 613 L288 613 Z " />
<glyph glyph-name="acircumflex" unicode="&#xe2;" horiz-adv-x="422" d="M270 215 C198 213 165 208 129 194 C71 171 39 131 39 82 C39 26 80 -10 144 -10 C201 -10 239 15 270 71 C278 13 299 -10 345 -10 C369 -10 380 -6 413 18 L404 30 C392 19 384 15 374 15 C354 15 347 26 347 57 L347 282 C347 324 338 348 316 366 C292 386 253 397 211 397 C133 397 65 352 65 301 C65 275 80 257 101 257 C122 257 137 274 137 297 C137 309 134 315 124 329 C119 336 117 340 117 343 C117 359 162 380 199 380 C248 380 270 359 270 315 L270 215 Z M270 167 C270 132 267 106 261 89 C247 54 214 30 180 30 C141 30 115 57 115 99 C115 132 130 158 160 176 C189 193 214 198 270 200 L270 167 Z M220 541 L353 465 C355 464 357 463 359 463 C361 463 363 464 363 466 C363 468 362 470 357 474 L220 617 L82 474 C79 471 77 468 77 466 C77 464 79 463 81 463 C82 463 84 464 86 465 L220 541 Z " />
<glyph glyph-name="atilde" unicode="&#xe3;" horiz-adv-x="422" d="M270 215 C198 213 165 208 129 194 C71 171 39 131 39 82 C39 26 80 -10 144 -10 C201 -10 239 15 270 71 C278 13 299 -10 345 -10 C369 -10 380 -6 413 18 L404 30 C392 19 384 15 374 15 C354 15 347 26 347 57 L347 282 C347 324 338 348 316 366 C292 386 253 397 211 397 C133 397 65 352 65 301 C65 275 80 257 101 257 C122 257 137 274 137 297 C137 309 134 315 124 329 C119 336 117 340 117 343 C117 359 162 380 199 380 C248 380 270 359 270 315 L270 215 Z M270 167 C270 132 267 106 261 89 C247 54 214 30 180 30 C141 30 115 57 115 99 C115 132 130 158 160 176 C189 193 214 198 270 200 L270 167 Z M367 572 C351 550 334 541 311 541 C297 541 278 544 265 549 L226 563 C204 571 193 573 176 573 C130 573 104 553 77 499 L86 493 C102 515 120 524 148 524 C162 524 180 521 196 515 L234 502 C253 495 268 492 280 492 C318 492 343 512 376 567 L367 572 Z " />
<glyph glyph-name="adieresis" unicode="&#xe4;" horiz-adv-x="422" d="M270 215 C198 213 165 208 129 194 C71 171 39 131 39 82 C39 26 80 -10 144 -10 C201 -10 239 15 270 71 C278 13 299 -10 345 -10 C369 -10 380 -6 413 18 L404 30 C392 19 384 15 374 15 C354 15 347 26 347 57 L347 282 C347 324 338 348 316 366 C292 386 253 397 211 397 C133 397 65 352 65 301 C65 275 80 257 101 257 C122 257 137 274 137 297 C137 309 134 315 124 329 C119 336 117 340 117 343 C117 359 162 380 199 380 C248 380 270 359 270 315 L270 215 Z M270 167 C270 132 267 106 261 89 C247 54 214 30 180 30 C141 30 115 57 115 99 C115 132 130 158 160 176 C189 193 214 198 270 200 L270 167 Z M133 584 C107 584 85 562 85 536 C85 509 107 487 134 487 C160 487 182 509 182 535 C182 562 161 584 133 584 L133 584 Z M306 584 C280 584 258 562 258 536 C258 509 280 487 307 487 C333 487 355 509 355 535 C355 562 334 584 306 584 L306 584 Z " />
<glyph glyph-name="aring" unicode="&#xe5;" horiz-adv-x="422" d="M270 215 C198 213 165 208 129 194 C71 171 39 131 39 82 C39 26 80 -10 144 -10 C201 -10 239 15 270 71 C278 13 299 -10 345 -10 C369 -10 380 -6 413 18 L404 30 C392 19 384 15 374 15 C354 15 347 26 347 57 L347 282 C347 324 338 348 316 366 C292 386 253 397 211 397 C133 397 65 352 65 301 C65 275 80 257 101 257 C122 257 137 274 137 297 C137 309 134 315 124 329 C119 336 117 340 117 343 C117 359 162 380 199 380 C248 380 270 359 270 315 L270 215 Z M270 167 C270 132 267 106 261 89 C247 54 214 30 180 30 C141 30 115 57 115 99 C115 132 130 158 160 176 C189 193 214 198 270 200 L270 167 Z M224 615 C181 615 148 581 148 538 C148 496 181 463 224 463 C266 463 299 496 299 537 C299 581 266 615 224 615 L224 615 Z M224 588 C249 588 271 565 271 539 C271 513 249 490 223 490 C198 490 176 513 176 539 C176 565 198 588 224 588 L224 588 Z " />
<glyph glyph-name="ae" unicode="&#xe6;" horiz-adv-x="648" d="M271 214 C199 212 166 207 130 193 C72 170 40 130 40 82 C40 26 81 -10 145 -10 C210 -10 261 31 281 98 C296 74 305 61 315 50 C346 14 401 -10 451 -10 C533 -10 594 45 609 130 L589 130 C575 56 521 10 451 10 C417 10 387 23 370 45 C353 67 348 92 348 151 L348 228 L613 228 C609 325 537 397 443 397 C401 397 364 383 329 354 C306 381 264 397 213 397 C134 397 66 352 66 300 C66 274 81 256 102 256 C123 256 138 273 138 297 C138 308 135 315 125 329 C120 336 118 339 118 342 C118 359 163 380 200 380 C249 380 271 359 271 314 L271 214 Z M271 167 C271 131 268 106 262 89 C248 54 215 30 181 30 C142 30 116 57 116 98 C116 131 131 157 161 175 C190 193 215 198 271 199 L271 167 Z M522 246 L348 246 L348 280 C348 346 377 377 439 377 C497 377 522 351 522 289 L522 246 Z " />
<glyph glyph-name="ccedilla" unicode="&#xe7;" horiz-adv-x="403" d="M223 -10 L232 -10 C272 -10 308 3 337 27 C366 51 378 73 393 126 L373 126 C363 93 355 77 340 59 C313 28 273 10 232 10 C196 10 169 24 151 51 C138 72 133 103 133 165 L133 228 C133 336 164 378 242 378 C282 378 320 365 320 351 C320 348 319 346 314 341 C303 330 297 313 297 297 C297 269 313 249 336 249 C360 249 376 268 376 296 C376 354 319 397 241 397 C128 397 40 308 40 192 C40 90 109 6 204 -8 L189 -65 C224 -74 239 -89 239 -114 C239 -140 218 -160 191 -160 C178 -160 161 -156 154 -151 C147 -147 147 -146 147 -130 C147 -109 143 -98 134 -98 C126 -98 122 -104 122 -114 C122 -150 155 -176 200 -176 C252 -176 297 -144 297 -107 C297 -75 269 -56 223 -56 L209 -56 L223 -10 Z " />
<glyph glyph-name="egrave" unicode="&#xe8;" horiz-adv-x="432" d="M131 228 L397 228 C393 326 321 397 226 397 C171 397 124 373 87 325 C57 286 40 239 40 192 C40 83 130 -10 235 -10 C317 -10 378 44 393 130 L373 130 C359 56 305 10 234 10 C200 10 170 23 154 45 C136 67 131 92 131 151 L131 228 Z M306 246 L131 246 L131 280 C131 346 160 377 222 377 C281 377 306 351 306 289 L306 246 Z M188 613 L123 613 C115 613 111 611 111 606 C111 603 114 598 118 595 L277 466 C281 463 281 463 282 463 C284 463 285 464 285 466 C285 467 285 469 284 470 L188 613 Z " />
<glyph glyph-name="eacute" unicode="&#xe9;" horiz-adv-x="432" d="M131 228 L397 228 C393 326 321 397 226 397 C171 397 124 373 87 325 C57 286 40 239 40 192 C40 83 130 -10 235 -10 C317 -10 378 44 393 130 L373 130 C359 56 305 10 234 10 C200 10 170 23 154 45 C136 67 131 92 131 151 L131 228 Z M306 246 L131 246 L131 280 C131 346 160 377 222 377 C281 377 306 351 306 289 L306 246 Z M291 613 L195 470 C194 469 193 467 193 466 C193 465 195 463 196 463 C198 463 199 464 202 466 L360 595 C365 598 368 603 368 606 C368 611 364 613 356 613 L291 613 Z " />
<glyph glyph-name="ecircumflex" unicode="&#xea;" horiz-adv-x="432" d="M131 228 L397 228 C393 326 321 397 226 397 C171 397 124 373 87 325 C57 286 40 239 40 192 C40 83 130 -10 235 -10 C317 -10 378 44 393 130 L373 130 C359 56 305 10 234 10 C200 10 170 23 154 45 C136 67 131 92 131 151 L131 228 Z M306 246 L131 246 L131 280 C131 346 160 377 222 377 C281 377 306 351 306 289 L306 246 Z M239 541 L372 465 C374 464 376 463 378 463 C380 463 382 464 382 466 C382 468 381 469 376 474 L239 617 L101 474 C98 471 96 468 96 466 C96 464 98 463 99 463 C101 463 103 464 105 465 L239 541 Z " />
<glyph glyph-name="edieresis" unicode="&#xeb;" horiz-adv-x="432" d="M131 228 L397 228 C393 326 321 397 226 397 C171 397 124 373 87 325 C57 286 40 239 40 192 C40 83 130 -10 235 -10 C317 -10 378 44 393 130 L373 130 C359 56 305 10 234 10 C200 10 170 23 154 45 C136 67 131 92 131 151 L131 228 Z M306 246 L131 246 L131 280 C131 346 160 377 222 377 C281 377 306 351 306 289 L306 246 Z M148 584 C122 584 100 562 100 536 C100 509 122 487 149 487 C175 487 197 509 197 535 C197 562 176 584 148 584 L148 584 Z M322 584 C296 584 274 562 274 536 C274 509 296 487 323 487 C349 487 371 509 371 535 C371 562 350 584 322 584 L322 584 Z " />
<glyph glyph-name="igrave" unicode="&#xec;" horiz-adv-x="265" d="M181 387 L37 387 L37 369 L104 369 L104 18 L37 18 L37 0 L248 0 L248 18 L181 18 L181 387 Z M83 613 L18 613 C10 613 6 611 6 606 C6 603 9 598 13 595 L172 466 C175 463 176 463 177 463 C179 463 180 464 180 466 C180 467 180 469 179 470 L83 613 Z " />
<glyph glyph-name="iacute" unicode="&#xed;" horiz-adv-x="265" d="M181 387 L37 387 L37 369 L104 369 L104 18 L37 18 L37 0 L247 0 L247 18 L181 18 L181 387 Z M213 613 L117 470 C116 469 116 467 116 466 C116 464 117 463 119 463 C120 463 121 463 124 466 L282 595 C287 598 290 603 290 606 C290 611 286 613 278 613 L213 613 Z " />
<glyph glyph-name="icircumflex" unicode="&#xee;" horiz-adv-x="265" d="M180 387 L36 387 L36 369 L103 369 L103 18 L36 18 L36 0 L247 0 L247 18 L180 18 L180 387 Z M133 541 L248 465 C249 464 251 463 252 463 C254 463 256 464 256 466 C256 468 255 471 251 474 L133 617 L15 474 C13 471 11 468 11 466 C11 464 12 463 14 463 C16 463 18 464 19 465 L133 541 Z " />
<glyph glyph-name="idieresis" unicode="&#xef;" horiz-adv-x="265" d="M180 387 L36 387 L36 369 L103 369 L103 18 L36 18 L36 0 L247 0 L247 18 L180 18 L180 387 Z M61 580 C36 580 15 559 15 534 C15 508 36 487 62 487 C87 487 108 508 108 533 C108 559 88 580 61 580 L61 580 Z M206 580 C181 580 160 559 160 534 C160 508 181 487 207 487 C232 487 253 508 253 533 C253 559 233 580 206 580 L206 580 Z " />
<glyph glyph-name="eth" unicode="&#xf0;" horiz-adv-x="470" d="M139 544 L150 527 L227 580 C275 514 300 458 318 378 C283 393 265 397 235 397 C127 397 40 306 40 192 C40 80 127 -10 236 -10 C350 -10 430 80 430 207 C430 335 366 475 253 597 L326 649 L316 664 L238 610 C221 629 172 669 150 680 L140 667 C183 632 192 624 217 596 L139 544 Z M133 218 C135 304 136 312 144 328 C157 358 192 377 234 377 C273 377 305 362 322 335 C332 318 337 280 337 218 L337 169 C337 117 332 74 325 59 C311 28 277 10 234 10 C195 10 163 26 147 52 C136 70 136 76 133 169 L133 218 Z " />
<glyph glyph-name="ntilde" unicode="&#xf1;" horiz-adv-x="523" d="M181 387 L37 387 L37 369 L104 369 L104 18 L37 18 L37 0 L247 0 L247 18 L181 18 L181 178 C181 250 186 289 198 313 C216 349 256 374 296 374 C341 374 362 348 362 292 L362 18 L295 18 L295 0 L505 0 L505 18 L439 18 L439 265 C439 310 431 335 412 357 C389 383 352 397 311 397 C258 397 222 378 181 330 L181 387 Z M425 572 C409 550 393 541 369 541 C355 541 337 544 323 549 L284 563 C263 571 251 573 234 573 C188 573 162 553 135 499 L144 493 C160 515 178 524 207 524 C220 524 238 521 254 515 L292 502 C312 495 327 492 338 492 C377 492 401 512 434 567 L425 572 Z " />
<glyph glyph-name="ograve" unicode="&#xf2;" horiz-adv-x="470" d="M235 397 C127 397 40 306 40 194 C40 80 127 -10 235 -10 C342 -10 430 81 430 191 C430 307 345 397 235 397 L235 397 Z M133 218 C135 304 136 312 144 328 C157 358 192 377 234 377 C273 377 305 362 322 335 C332 318 337 280 337 218 L337 169 C337 117 332 74 325 59 C311 28 277 10 234 10 C195 10 163 26 147 52 C136 70 136 76 133 169 L133 218 Z M205 613 L140 613 C132 613 128 611 128 606 C128 603 131 599 136 595 L295 466 C298 463 298 463 300 463 C301 463 303 464 303 466 C303 467 302 469 301 470 L205 613 Z " />
<glyph glyph-name="oacute" unicode="&#xf3;" horiz-adv-x="470" d="M235 397 C127 397 40 306 40 194 C40 80 127 -10 235 -10 C342 -10 430 81 430 191 C430 307 345 397 235 397 L235 397 Z M133 218 C135 304 136 312 144 328 C157 358 192 377 234 377 C273 377 305 362 322 335 C332 318 337 280 337 218 L337 169 C337 117 332 74 325 59 C311 28 277 10 234 10 C195 10 163 26 147 52 C136 70 136 76 133 169 L133 218 Z M325 613 L229 470 C228 469 228 467 228 466 C228 464 230 463 231 463 C232 463 232 463 236 466 L395 595 C399 598 402 603 402 606 C402 611 398 613 390 613 L325 613 Z " />
<glyph glyph-name="ocircumflex" unicode="&#xf4;" horiz-adv-x="470" d="M235 397 C127 397 40 306 40 194 C40 80 127 -10 235 -10 C342 -10 430 81 430 191 C430 307 345 397 235 397 L235 397 Z M133 218 C135 304 136 312 144 328 C157 358 192 377 234 377 C273 377 305 362 322 335 C332 318 337 280 337 218 L337 169 C337 117 332 74 325 59 C311 28 277 10 234 10 C195 10 163 26 147 52 C136 70 136 76 133 169 L133 218 Z M239 541 L372 465 C374 464 376 463 378 463 C380 463 382 464 382 466 C382 468 381 469 376 474 L239 617 L101 474 C98 471 96 468 96 466 C96 464 98 463 99 463 C101 463 103 464 105 465 L239 541 Z " />
<glyph glyph-name="otilde" unicode="&#xf5;" horiz-adv-x="470" d="M235 397 C127 397 40 306 40 194 C40 80 127 -10 235 -10 C342 -10 430 81 430 191 C430 307 345 397 235 397 L235 397 Z M133 218 C135 304 136 312 144 328 C157 358 192 377 234 377 C273 377 305 362 322 335 C332 318 337 280 337 218 L337 169 C337 117 332 74 325 59 C311 28 277 10 234 10 C195 10 163 26 147 52 C136 70 136 76 133 169 L133 218 Z M391 572 C375 550 358 541 335 541 C321 541 302 544 289 549 L250 563 C228 571 217 573 200 573 C154 573 128 553 101 499 L110 493 C126 515 144 524 172 524 C186 524 204 521 220 515 L258 502 C277 495 292 492 304 492 C342 492 367 512 400 567 L391 572 Z " />
<glyph glyph-name="odieresis" unicode="&#xf6;" horiz-adv-x="470" d="M235 397 C127 397 40 306 40 194 C40 80 127 -10 235 -10 C342 -10 430 81 430 191 C430 307 345 397 235 397 L235 397 Z M133 218 C135 304 136 312 144 328 C157 358 192 377 234 377 C273 377 305 362 322 335 C332 318 337 280 337 218 L337 169 C337 117 332 74 325 59 C311 28 277 10 234 10 C195 10 163 26 147 52 C136 70 136 76 133 169 L133 218 Z M148 584 C122 584 100 562 100 536 C100 509 122 487 149 487 C175 487 197 509 197 535 C197 562 176 584 148 584 L148 584 Z M322 584 C296 584 274 562 274 536 C274 509 296 487 323 487 C349 487 371 509 371 535 C371 562 350 584 322 584 L322 584 Z " />
<glyph glyph-name="divide" unicode="&#xf7;" horiz-adv-x="500" d="M51 308 L449 308 L449 338 L51 338 L51 308 Z M249 530 C218 530 193 505 193 474 C193 442 218 417 250 417 C280 417 306 442 306 473 C306 505 281 530 249 530 L249 530 Z M249 237 C218 237 193 211 193 180 C193 149 218 124 250 124 C280 124 306 149 306 180 C306 212 281 237 249 237 L249 237 Z " />
<glyph glyph-name="oslash" unicode="&#xf8;" horiz-adv-x="470" d="M404 406 L389 416 L347 360 C313 385 276 397 235 397 C127 397 40 306 40 194 C40 136 60 87 101 45 L60 -11 L73 -23 L115 32 C153 3 191 -10 235 -10 C343 -10 430 81 430 194 C430 252 403 314 362 348 L404 406 Z M330 313 C334 294 336 262 337 218 L337 169 C337 117 332 74 325 59 C311 28 277 10 234 10 C189 10 158 28 143 61 L330 313 Z M137 84 C134 112 133 140 133 169 L133 218 C136 305 136 312 144 328 C157 358 192 377 234 377 C274 377 301 364 322 335 L137 84 Z " />
<glyph glyph-name="ugrave" unicode="&#xf9;" horiz-adv-x="511" d="M426 387 L282 387 L282 369 L349 369 L349 200 C349 141 341 91 330 69 C312 34 274 13 231 13 C178 13 162 38 162 117 L162 387 L18 387 L18 369 L85 369 L85 131 C85 80 90 54 106 33 C127 6 167 -10 217 -10 C278 -10 314 9 349 60 L349 0 L492 0 L492 18 L426 18 L426 387 Z M212 613 L147 613 C139 613 135 611 135 606 C135 603 138 598 142 595 L301 466 C304 463 305 463 306 463 C308 463 310 464 310 466 L308 470 L212 613 Z " />
<glyph glyph-name="uacute" unicode="&#xfa;" horiz-adv-x="511" d="M426 387 L282 387 L282 369 L349 369 L349 200 C349 141 341 91 330 69 C312 34 274 13 231 13 C178 13 162 38 162 117 L162 387 L18 387 L18 369 L85 369 L85 131 C85 80 90 54 106 33 C127 6 167 -10 217 -10 C278 -10 314 9 349 60 L349 0 L492 0 L492 18 L426 18 L426 387 Z M319 613 L224 470 C222 469 222 467 222 466 C221 465 223 463 225 463 C226 463 227 464 230 466 L389 595 C394 598 397 603 397 606 C397 611 393 613 384 613 L319 613 Z " />
<glyph glyph-name="ucircumflex" unicode="&#xfb;" horiz-adv-x="511" d="M426 387 L282 387 L282 369 L349 369 L349 200 C349 141 341 91 330 69 C312 34 274 13 231 13 C178 13 162 38 162 117 L162 387 L18 387 L18 369 L85 369 L85 131 C85 80 90 54 106 33 C127 6 167 -10 217 -10 C278 -10 314 9 349 60 L349 0 L492 0 L492 18 L426 18 L426 387 Z M252 541 L385 465 C387 464 389 463 391 463 C393 463 395 464 395 466 C395 468 393 470 389 474 L252 617 L115 474 C110 470 109 468 109 466 C109 464 110 463 112 463 C114 463 116 464 118 465 L252 541 Z " />
<glyph glyph-name="udieresis" unicode="&#xfc;" horiz-adv-x="511" d="M426 387 L282 387 L282 369 L349 369 L349 200 C349 141 341 91 330 69 C312 34 274 13 231 13 C178 13 162 38 162 117 L162 387 L18 387 L18 369 L85 369 L85 131 C85 80 90 54 106 33 C127 6 167 -10 217 -10 C278 -10 314 9 349 60 L349 0 L492 0 L492 18 L426 18 L426 387 Z M165 584 C138 584 117 562 117 536 C117 509 139 487 165 487 C192 487 214 509 214 535 C214 562 192 584 165 584 L165 584 Z M339 584 C312 584 291 562 291 536 C291 509 313 487 339 487 C366 487 388 509 388 535 C388 562 366 584 339 584 L339 584 Z " />
<glyph glyph-name="yacute" unicode="&#xfd;" horiz-adv-x="414" d="M250 94 L135 369 L203 369 L203 387 L0 387 L0 369 L47 369 L215 -6 L161 -161 C148 -201 143 -208 128 -208 C122 -208 118 -205 114 -200 C98 -180 89 -174 71 -174 C46 -174 28 -194 28 -221 C28 -252 51 -274 83 -274 C127 -274 155 -244 181 -170 L370 369 L414 369 L414 387 L274 387 L274 369 L344 369 L250 94 Z M308 613 L212 470 C211 468 210 467 210 466 C210 465 212 463 213 463 C215 463 216 464 219 466 L377 595 C382 598 385 603 385 606 C385 611 381 613 373 613 L308 613 Z " />
<glyph glyph-name="thorn" unicode="&#xfe;" horiz-adv-x="489" d="M162 667 L18 667 L18 649 L85 649 L85 -249 L18 -249 L18 -267 L242 -267 L242 -249 L162 -249 L162 82 C196 14 228 -10 285 -10 C376 -10 450 84 450 200 C450 312 379 397 287 397 C230 397 193 370 162 306 L162 667 Z M357 176 C357 54 336 10 278 10 C213 10 164 87 164 189 C164 302 211 377 282 377 C312 377 336 362 346 338 C354 320 357 297 357 249 L357 176 Z " />
<glyph glyph-name="ydieresis" unicode="&#xff;" horiz-adv-x="414" d="M250 94 L135 369 L203 369 L203 387 L0 387 L0 369 L47 369 L215 -6 L161 -161 C148 -201 143 -208 128 -208 C122 -208 118 -205 114 -200 C98 -180 89 -174 71 -174 C46 -174 28 -194 28 -221 C28 -252 51 -274 83 -274 C127 -274 155 -244 181 -170 L370 369 L414 369 L414 387 L274 387 L274 369 L344 369 L250 94 Z M144 584 C118 584 96 562 96 536 C96 509 118 487 145 487 C171 487 193 509 193 535 C193 562 172 584 144 584 L144 584 Z M317 584 C291 584 269 562 269 536 C269 509 291 487 318 487 C344 487 366 509 366 535 C366 562 345 584 317 584 L317 584 Z " />
<glyph glyph-name="Amacron" unicode="&#x100;" horiz-adv-x="606" d="M366 214 L433 18 L338 18 L338 0 L610 0 L610 18 L534 18 L315 667 L288 667 L61 18 L-3 18 L-3 0 L174 0 L174 18 L86 18 L153 214 L366 214 Z M359 232 L160 232 L260 527 L359 232 Z M463 749 L463 779 L144 779 L144 749 L463 749 Z " />
<glyph glyph-name="amacron" unicode="&#x101;" horiz-adv-x="422" d="M270 215 C198 213 165 208 129 194 C71 171 39 131 39 82 C39 26 80 -10 144 -10 C201 -10 239 15 270 71 C278 13 299 -10 345 -10 C369 -10 380 -6 413 18 L404 30 C392 19 384 15 374 15 C354 15 347 26 347 57 L347 282 C347 324 338 348 316 366 C292 386 253 397 211 397 C133 397 65 352 65 301 C65 275 80 257 101 257 C122 257 137 274 137 297 C137 309 134 315 124 329 C119 336 117 340 117 343 C117 359 162 380 199 380 C248 380 270 359 270 315 L270 215 Z M270 167 C270 132 267 106 261 89 C247 54 214 30 180 30 C141 30 115 57 115 99 C115 132 130 158 160 176 C189 193 214 198 270 200 L270 167 Z M349 499 L349 523 L104 523 L104 499 L349 499 Z " />
<glyph glyph-name="Abreve" unicode="&#x102;" horiz-adv-x="606" d="M366 214 L433 18 L338 18 L338 0 L610 0 L610 18 L534 18 L315 667 L288 667 L61 18 L-3 18 L-3 0 L174 0 L174 18 L86 18 L153 214 L366 214 Z M359 232 L160 232 L260 527 L359 232 Z M439 838 C429 813 418 800 398 791 C375 781 339 774 304 774 C268 774 232 781 209 791 C189 800 178 813 168 838 L154 838 C167 768 226 722 303 722 C381 722 440 768 453 838 L439 838 Z " />
<glyph glyph-name="abreve" unicode="&#x103;" horiz-adv-x="422" d="M270 215 C198 213 165 208 129 194 C71 171 39 131 39 82 C39 26 80 -10 144 -10 C201 -10 239 15 270 71 C278 13 299 -10 345 -10 C369 -10 380 -6 413 18 L404 30 C392 19 384 15 374 15 C354 15 347 26 347 57 L347 282 C347 324 338 348 316 366 C292 386 253 397 211 397 C133 397 65 352 65 301 C65 275 80 257 101 257 C122 257 137 274 137 297 C137 309 134 315 124 329 C119 336 117 340 117 343 C117 359 162 380 199 380 C248 380 270 359 270 315 L270 215 Z M270 167 C270 132 267 106 261 89 C247 54 214 30 180 30 C141 30 115 57 115 99 C115 132 130 158 160 176 C189 193 214 198 270 200 L270 167 Z M347 610 C338 576 328 559 311 545 C292 531 258 521 226 521 C194 521 160 531 142 545 C124 559 115 575 106 610 L95 610 C106 524 158 467 226 467 C295 467 347 523 358 610 L347 610 Z " />
<glyph glyph-name="Aogonek" unicode="&#x104;" horiz-adv-x="606" d="M610 0 L610 18 L534 18 L315 667 L288 667 L61 18 L-3 18 L-3 0 L174 0 L174 18 L86 18 L153 214 L366 214 L433 18 L338 18 L338 0 L534 0 C464 -25 433 -54 433 -96 C433 -137 464 -162 515 -162 C547 -162 566 -157 597 -141 L597 -127 C575 -134 564 -136 548 -136 C508 -136 488 -120 488 -87 C488 -53 508 -28 557 0 L610 0 Z M359 232 L160 232 L260 527 L359 232 Z " />
<glyph glyph-name="aogonek" unicode="&#x105;" horiz-adv-x="422" d="M404 30 C392 19 384 15 374 15 C354 15 347 26 347 57 L347 282 C347 324 338 348 316 366 C292 386 253 397 211 397 C133 397 65 352 65 301 C65 275 80 257 101 257 C122 257 137 274 137 297 C137 309 134 315 124 329 C119 336 117 340 117 343 C117 359 162 380 199 380 C248 380 270 359 270 315 L270 215 C198 213 165 208 129 194 C71 171 39 131 39 82 C39 26 80 -10 144 -10 C201 -10 239 15 270 71 C275 21 294 -3 333 -9 C285 -33 261 -61 261 -95 C261 -134 291 -159 340 -159 C371 -159 389 -154 419 -138 L419 -124 C399 -132 387 -134 372 -134 C333 -134 314 -118 314 -86 C314 -56 333 -29 369 -7 C381 -3 390 2 413 18 L404 30 Z M270 167 C270 132 267 106 261 89 C247 54 214 30 180 30 C141 30 115 57 115 99 C115 132 130 158 160 176 C189 193 214 198 270 200 L270 167 Z " />
<glyph glyph-name="Cacute" unicode="&#x106;" horiz-adv-x="591" d="M543 667 L530 667 L497 617 C439 661 396 677 337 677 C256 677 181 639 125 568 C73 505 47 423 47 328 C47 141 174 -10 330 -10 C387 -10 432 6 497 50 L530 0 L543 0 L543 185 L530 185 C510 134 498 109 479 85 C442 37 389 10 331 10 C268 10 212 41 186 89 C166 128 160 178 160 324 C160 431 165 505 176 543 C196 615 255 657 336 657 C390 657 438 637 475 599 C503 570 516 545 530 494 L543 494 L543 667 Z M409 833 L280 731 C276 728 275 726 275 724 C275 722 276 720 279 720 C281 720 284 720 285 721 L506 814 C516 818 519 821 519 825 C519 831 515 833 505 833 L409 833 Z " />
<glyph glyph-name="cacute" unicode="&#x107;" horiz-adv-x="403" d="M373 126 C363 93 355 77 340 59 C313 28 273 10 232 10 C196 10 169 24 151 51 C138 72 133 103 133 165 L133 228 C133 336 164 378 242 378 C282 378 320 365 320 351 C320 348 319 346 314 341 C303 330 297 313 297 297 C297 269 313 249 336 249 C360 249 376 268 376 296 C376 354 319 397 241 397 C128 397 40 308 40 192 C40 79 124 -10 231 -10 C279 -10 321 7 352 41 C372 62 381 81 393 126 L373 126 Z M290 613 L195 470 C194 469 193 467 193 466 C193 465 195 463 196 463 C198 463 198 463 201 466 L360 595 C365 599 368 603 368 606 C368 611 364 613 356 613 L290 613 Z " />
<glyph glyph-name="Ccircumflex" unicode="&#x108;" horiz-adv-x="591" d="M543 667 L530 667 L497 617 C439 661 396 677 337 677 C256 677 181 639 125 568 C73 505 47 423 47 328 C47 141 174 -10 330 -10 C387 -10 432 6 497 50 L530 0 L543 0 L543 185 L530 185 C510 134 498 109 479 85 C442 37 389 10 331 10 C268 10 212 41 186 89 C166 128 160 178 160 324 C160 431 165 505 176 543 C196 615 255 657 336 657 C390 657 438 637 475 599 C503 570 516 545 530 494 L543 494 L543 667 Z M335 769 L483 721 C484 720 485 720 487 720 C490 720 492 721 492 723 C492 725 491 727 486 730 L335 838 L184 730 C179 727 178 725 178 723 C178 721 180 720 183 720 C185 720 186 720 187 721 L335 769 Z " />
<glyph glyph-name="Cdotaccent" unicode="&#x10a;" horiz-adv-x="591" d="M543 667 L530 667 L497 617 C439 661 396 677 337 677 C256 677 181 639 125 568 C73 505 47 423 47 328 C47 141 174 -10 330 -10 C387 -10 432 6 497 50 L530 0 L543 0 L543 185 L530 185 C510 134 498 109 479 85 C442 37 389 10 331 10 C268 10 212 41 186 89 C166 128 160 178 160 324 C160 431 165 505 176 543 C196 615 255 657 336 657 C390 657 438 637 475 599 C503 570 516 545 530 494 L543 494 L543 667 Z M336 826 C309 826 286 803 286 776 C286 748 309 725 337 725 C364 725 387 748 387 775 C387 804 365 826 336 826 L336 826 Z " />
<glyph glyph-name="cdotaccent" unicode="&#x10b;" horiz-adv-x="403" d="M373 126 C363 93 355 77 340 59 C313 28 273 10 232 10 C196 10 169 24 151 51 C138 72 133 103 133 165 L133 228 C133 336 164 378 242 378 C282 378 320 365 320 351 C320 348 319 346 314 341 C303 330 297 313 297 297 C297 269 313 249 336 249 C360 249 376 268 376 296 C376 354 319 397 241 397 C128 397 40 308 40 192 C40 79 124 -10 231 -10 C279 -10 321 7 352 41 C372 62 381 81 393 126 L373 126 Z M238 586 C211 586 188 563 188 536 C188 508 211 485 239 485 C266 485 289 508 289 535 C289 564 267 586 238 586 L238 586 Z " />
<glyph glyph-name="Ccaron" unicode="&#x10c;" horiz-adv-x="591" d="M543 667 L530 667 L497 617 C439 661 396 677 337 677 C256 677 181 639 125 568 C73 505 47 423 47 328 C47 141 174 -10 330 -10 C387 -10 432 6 497 50 L530 0 L543 0 L543 185 L530 185 C510 134 498 109 479 85 C442 37 389 10 331 10 C268 10 212 41 186 89 C166 128 160 178 160 324 C160 431 165 505 176 543 C196 615 255 657 336 657 C390 657 438 637 475 599 C503 570 516 545 530 494 L543 494 L543 667 Z M331 789 L184 838 L180 838 C176 838 175 837 175 835 C175 833 176 831 180 829 L331 720 L483 829 C486 831 488 833 488 835 C488 837 486 838 483 838 L479 838 L331 789 Z " />
<glyph glyph-name="ccaron" unicode="&#x10d;" horiz-adv-x="403" d="M373 126 C363 93 355 77 340 59 C313 28 273 10 232 10 C196 10 169 24 151 51 C138 72 133 103 133 165 L133 228 C133 336 164 378 242 378 C282 378 320 365 320 351 C320 348 319 346 314 341 C303 330 297 313 297 297 C297 269 313 249 336 249 C360 249 376 268 376 296 C376 354 319 397 241 397 C128 397 40 308 40 192 C40 79 124 -10 231 -10 C279 -10 321 7 352 41 C372 62 381 81 393 126 L373 126 Z M239 539 L105 615 C103 616 102 617 100 617 C98 617 96 616 96 614 C96 612 98 610 102 606 L239 463 L376 606 C381 610 382 612 382 614 C382 616 380 617 378 617 C376 617 374 616 373 615 L239 539 Z " />
<glyph glyph-name="Dcaron" unicode="&#x10e;" horiz-adv-x="673" d="M120 18 L33 18 L33 0 L282 0 C412 0 473 22 538 91 C595 153 627 240 627 334 C627 428 596 514 541 574 C479 641 407 667 281 667 L33 667 L33 649 L120 649 L120 18 Z M213 18 L213 649 L280 649 C368 649 416 636 454 603 C497 566 513 500 513 348 C513 202 502 127 476 89 C442 38 387 18 282 18 L213 18 Z M305 789 L158 838 L154 838 C150 838 149 837 149 835 C149 833 150 831 154 829 L305 720 L456 829 C462 832 463 833 463 835 C463 837 461 838 457 838 L453 838 L305 789 Z " />
<glyph glyph-name="dcaron" unicode="&#x10f;" horiz-adv-x="562" d="M330 0 L474 0 L474 18 L407 18 L407 667 L250 667 L250 649 L330 649 L330 307 C297 372 262 397 206 397 C110 397 40 312 40 194 C40 76 112 -10 209 -10 C265 -10 297 15 330 84 L330 0 Z M133 233 C133 277 137 315 143 331 C153 361 176 377 209 377 C281 377 327 305 327 192 C327 83 281 10 212 10 C181 10 157 26 145 55 C136 77 133 105 133 165 L133 233 Z M494 466 C539 505 562 545 562 585 C562 632 533 667 494 667 C460 667 436 644 436 611 C436 582 454 563 480 563 C503 563 520 580 520 605 C520 608 520 613 519 618 C534 608 540 594 540 574 C540 543 525 519 483 478 L494 466 Z " />
<glyph glyph-name="Dcroat" unicode="&#x110;" horiz-adv-x="673" d="M120 330 L120 18 L33 18 L33 0 L282 0 C412 0 473 22 538 91 C595 153 627 240 627 334 C627 428 596 514 541 574 C479 641 408 667 281 667 L33 667 L33 649 L120 649 L120 348 L33 348 L33 330 L120 330 Z M213 330 L368 330 L368 348 L213 348 L213 649 L280 649 C368 649 416 636 454 603 C497 566 513 499 513 347 C513 202 502 127 476 89 C442 38 387 18 282 18 L213 18 L213 330 Z " />
<glyph glyph-name="dcroat" unicode="&#x111;" horiz-adv-x="491" d="M330 532 L330 307 C297 372 262 397 206 397 C110 397 40 312 40 194 C40 76 112 -10 209 -10 C265 -10 297 15 330 84 L330 0 L474 0 L474 18 L407 18 L407 532 L463 532 L463 556 L407 556 L407 667 L250 667 L250 649 L330 649 L330 556 L161 556 L161 532 L330 532 Z M133 233 C133 277 137 315 143 331 C153 361 176 377 209 377 C281 377 327 305 327 192 C327 83 281 10 212 10 C181 10 157 26 145 55 C136 77 133 105 133 165 L133 233 Z " />
<glyph glyph-name="Emacron" unicode="&#x112;" horiz-adv-x="586" d="M505 667 L33 667 L33 649 L120 649 L120 18 L33 18 L33 0 L527 0 L547 208 L534 208 C519 154 506 116 493 92 C455 26 437 17 346 18 L213 18 L213 329 L257 329 C333 330 365 299 366 221 L366 198 L380 198 L380 472 L366 472 L366 453 C366 376 337 347 259 347 L213 347 L213 649 L298 649 C433 651 476 617 505 486 L518 486 L505 667 Z M458 749 L458 779 L138 779 L138 749 L458 749 Z " />
<glyph glyph-name="emacron" unicode="&#x113;" horiz-adv-x="432" d="M131 228 L397 228 C393 326 321 397 226 397 C171 397 124 373 87 325 C57 286 40 239 40 192 C40 83 130 -10 235 -10 C317 -10 378 44 393 130 L373 130 C359 56 305 10 234 10 C200 10 170 23 154 45 C136 67 131 92 131 151 L131 228 Z M306 246 L131 246 L131 280 C131 346 160 377 222 377 C281 377 306 351 306 289 L306 246 Z M351 499 L351 523 L106 523 L106 499 L351 499 Z " />
<glyph glyph-name="Ebreve" unicode="&#x114;" horiz-adv-x="586" d="M505 667 L33 667 L33 649 L120 649 L120 18 L33 18 L33 0 L527 0 L547 208 L534 208 C519 154 506 116 493 92 C455 26 437 17 346 18 L213 18 L213 329 L257 329 C333 330 365 299 366 221 L366 198 L380 198 L380 472 L366 472 L366 453 C366 376 337 347 259 347 L213 347 L213 649 L298 649 C433 651 476 617 505 486 L518 486 L505 667 Z M441 838 C431 813 419 800 400 791 C377 781 341 774 305 774 C269 774 233 781 211 791 C191 800 180 813 170 838 L156 838 C169 768 228 722 305 722 C383 722 442 768 455 838 L441 838 Z " />
<glyph glyph-name="ebreve" unicode="&#x115;" horiz-adv-x="432" d="M131 228 L397 228 C393 326 321 397 226 397 C171 397 124 373 87 325 C57 286 40 239 40 192 C40 83 130 -10 235 -10 C317 -10 378 44 393 130 L373 130 C359 56 305 10 234 10 C200 10 170 23 154 45 C136 67 131 92 131 151 L131 228 Z M306 246 L131 246 L131 280 C131 346 160 377 222 377 C281 377 306 351 306 289 L306 246 Z M345 610 C336 576 327 559 309 545 C291 531 257 521 225 521 C193 521 159 531 141 545 C123 559 114 575 105 610 L94 610 C104 524 157 467 225 467 C293 467 345 523 357 610 L345 610 Z " />
<glyph glyph-name="Edotaccent" unicode="&#x116;" horiz-adv-x="586" d="M505 667 L33 667 L33 649 L120 649 L120 18 L33 18 L33 0 L527 0 L547 208 L534 208 C519 154 506 116 493 92 C455 26 437 17 346 18 L213 18 L213 329 L257 329 C333 330 365 299 366 221 L366 198 L380 198 L380 472 L366 472 L366 453 C366 376 337 347 259 347 L213 347 L213 649 L298 649 C433 651 476 617 505 486 L518 486 L505 667 Z M295 826 C267 826 245 803 245 776 C245 748 268 725 295 725 C323 725 346 748 346 775 C346 804 324 826 295 826 L295 826 Z " />
<glyph glyph-name="edotaccent" unicode="&#x117;" horiz-adv-x="432" d="M131 228 L397 228 C393 326 321 397 226 397 C171 397 124 373 87 325 C57 286 40 239 40 192 C40 83 130 -10 235 -10 C317 -10 378 44 393 130 L373 130 C359 56 305 10 234 10 C200 10 170 23 154 45 C136 67 131 92 131 151 L131 228 Z M306 246 L131 246 L131 280 C131 346 160 377 222 377 C281 377 306 351 306 289 L306 246 Z M231 586 C204 586 181 563 181 536 C181 508 204 485 232 485 C259 485 282 508 282 535 C282 564 260 586 231 586 L231 586 Z " />
<glyph glyph-name="Eogonek" unicode="&#x118;" horiz-adv-x="586" d="M527 0 L547 208 L534 208 C519 154 506 116 493 92 C455 26 437 17 346 18 L213 18 L213 329 L257 329 C333 330 365 299 366 221 L366 198 L380 198 L380 472 L366 472 L366 453 C366 376 337 347 259 347 L213 347 L213 649 L298 649 C433 651 476 617 505 486 L518 486 L505 667 L33 667 L33 649 L120 649 L120 18 L33 18 L33 0 L458 0 C387 -25 357 -54 357 -96 C357 -137 388 -162 439 -162 C471 -162 491 -157 521 -141 L521 -127 C499 -134 488 -136 472 -136 C431 -136 412 -120 412 -87 C412 -53 431 -29 482 0 L527 0 Z " />
<glyph glyph-name="eogonek" unicode="&#x119;" horiz-adv-x="432" d="M345 -124 C325 -132 313 -134 298 -134 C259 -134 240 -118 240 -86 C240 -53 255 -34 314 9 C361 40 386 78 393 130 L373 130 C359 56 305 10 234 10 C200 10 170 23 154 45 C136 67 131 92 131 151 L131 228 L397 228 C393 326 321 397 226 397 C171 397 124 373 87 325 C57 286 40 238 40 192 C40 83 130 -10 234 -10 C244 -10 251 -10 262 -8 C212 -31 187 -60 187 -95 C187 -134 218 -159 266 -159 C297 -159 316 -154 345 -138 L345 -124 Z M306 246 L131 246 L131 280 C131 346 160 377 222 377 C281 377 306 351 306 289 L306 246 Z " />
<glyph glyph-name="Ecaron" unicode="&#x11a;" horiz-adv-x="586" d="M505 667 L33 667 L33 649 L120 649 L120 18 L33 18 L33 0 L527 0 L547 208 L534 208 C519 154 506 116 493 92 C455 26 437 17 346 18 L213 18 L213 329 L257 329 C333 330 365 299 366 221 L366 198 L380 198 L380 472 L366 472 L366 453 C366 376 337 347 259 347 L213 347 L213 649 L298 649 C433 651 476 617 505 486 L518 486 L505 667 Z M300 789 L153 838 L149 838 C145 838 144 837 144 835 C144 833 145 831 149 829 L300 720 L451 829 C455 831 457 833 457 835 C457 837 455 838 452 838 L448 838 L300 789 Z " />
<glyph glyph-name="ecaron" unicode="&#x11b;" horiz-adv-x="432" d="M131 228 L397 228 C393 326 321 397 226 397 C171 397 124 373 87 325 C57 286 40 239 40 192 C40 83 130 -10 235 -10 C317 -10 378 44 393 130 L373 130 C359 56 305 10 234 10 C200 10 170 23 154 45 C136 67 131 92 131 151 L131 228 Z M306 246 L131 246 L131 280 C131 346 160 377 222 377 C281 377 306 351 306 289 L306 246 Z M227 539 L93 615 C91 616 89 617 88 617 C86 617 84 616 84 614 C84 612 86 610 90 606 L227 463 L364 606 C368 610 370 612 370 614 C370 616 368 617 366 617 C364 617 362 616 360 615 L227 539 Z " />
<glyph glyph-name="Gcircumflex" unicode="&#x11c;" horiz-adv-x="635" d="M531 667 L518 667 L484 625 C432 661 386 677 331 677 C263 677 197 647 145 593 C80 524 47 437 47 329 C47 235 71 161 121 95 C175 25 243 -10 325 -10 C397 -10 461 18 505 70 C535 104 547 137 558 212 L625 212 L625 230 L346 230 L346 212 L449 212 C449 153 447 129 440 105 C422 44 377 10 312 10 C244 10 198 44 177 108 C166 144 160 212 160 317 C160 431 168 522 183 563 C204 623 256 657 326 657 C422 657 487 594 518 471 L531 471 L531 667 Z M336 769 L484 721 C485 720 486 720 488 720 C491 720 493 721 493 723 C493 725 492 727 487 730 L336 838 L185 730 C180 727 179 725 179 723 C179 721 181 720 184 720 C186 720 187 720 189 721 L336 769 Z " />
<glyph glyph-name="gcircumflex" unicode="&#x11d;" horiz-adv-x="437" d="M132 18 C86 18 63 30 63 54 C63 77 89 106 135 133 C162 122 184 117 212 117 C298 117 364 176 364 254 C364 290 357 312 335 343 C347 355 356 361 364 361 C372 361 377 357 378 349 C382 324 389 315 407 315 C425 315 437 329 437 352 C437 375 420 391 393 391 C370 391 354 382 323 353 C287 386 258 397 212 397 C123 397 59 339 59 258 C59 210 76 177 118 144 C112 139 112 139 105 134 C79 116 79 116 72 110 C42 82 27 53 27 20 C27 -26 51 -55 103 -69 C47 -93 27 -116 27 -157 C27 -225 103 -274 207 -274 C328 -274 412 -198 412 -88 C412 -44 399 -13 375 3 C356 15 336 18 288 18 L132 18 Z M141 288 C141 354 159 377 212 377 C267 377 281 360 281 293 L281 228 C281 156 266 137 211 137 C156 137 141 156 141 228 L141 288 Z M138 -70 L174 -70 L293 -70 C349 -70 349 -70 362 -75 C377 -80 385 -94 385 -115 C385 -191 307 -254 211 -254 C133 -254 81 -211 81 -148 C81 -118 91 -96 118 -70 L138 -70 Z M218 541 L352 465 C354 464 355 463 357 463 C359 463 361 464 361 466 C361 468 360 470 355 474 L218 617 L81 474 C77 470 75 468 75 466 C75 464 77 463 79 463 C81 463 82 464 84 465 L218 541 Z " />
<glyph glyph-name="Gbreve" unicode="&#x11e;" horiz-adv-x="635" d="M531 667 L518 667 L484 625 C432 661 386 677 331 677 C263 677 197 647 145 593 C80 524 47 437 47 329 C47 235 71 161 121 95 C175 25 243 -10 325 -10 C397 -10 461 18 505 70 C535 104 547 137 558 212 L625 212 L625 230 L346 230 L346 212 L449 212 C449 153 447 129 440 105 C422 44 377 10 312 10 C244 10 198 44 177 108 C166 144 160 212 160 317 C160 431 168 522 183 563 C204 623 256 657 326 657 C422 657 487 594 518 471 L531 471 L531 667 Z M471 838 C461 813 450 800 431 791 C408 781 372 774 336 774 C300 774 264 781 241 791 C222 800 211 813 201 838 L187 838 C199 768 259 722 336 722 C414 722 473 768 485 838 L471 838 Z " />
<glyph glyph-name="gbreve" unicode="&#x11f;" horiz-adv-x="437" d="M132 18 C86 18 63 30 63 54 C63 77 89 106 135 133 C162 122 184 117 212 117 C298 117 364 176 364 254 C364 290 357 312 335 343 C347 355 356 361 364 361 C372 361 377 357 378 349 C382 324 389 315 407 315 C425 315 437 329 437 352 C437 375 420 391 393 391 C370 391 354 382 323 353 C287 386 258 397 212 397 C123 397 59 339 59 258 C59 210 76 177 118 144 C112 139 112 139 105 134 C79 116 79 116 72 110 C42 82 27 53 27 20 C27 -26 51 -55 103 -69 C47 -93 27 -116 27 -157 C27 -225 103 -274 207 -274 C328 -274 412 -198 412 -88 C412 -44 399 -13 375 3 C356 15 336 18 288 18 L132 18 Z M141 288 C141 354 159 377 212 377 C267 377 281 360 281 293 L281 228 C281 156 266 137 211 137 C156 137 141 156 141 228 L141 288 Z M138 -70 L174 -70 L293 -70 C349 -70 349 -70 362 -75 C377 -80 385 -94 385 -115 C385 -191 307 -254 211 -254 C133 -254 81 -211 81 -148 C81 -118 91 -96 118 -70 L138 -70 Z M345 610 C336 576 327 559 309 545 C291 531 257 521 225 521 C193 521 159 531 141 545 C123 559 114 575 105 610 L93 610 C104 524 157 467 225 467 C293 467 345 523 357 610 L345 610 Z " />
<glyph glyph-name="Gdotaccent" unicode="&#x120;" horiz-adv-x="635" d="M531 667 L518 667 L484 625 C432 661 386 677 331 677 C263 677 197 647 145 593 C80 524 47 437 47 329 C47 235 71 161 121 95 C175 25 243 -10 325 -10 C397 -10 461 18 505 70 C535 104 547 137 558 212 L625 212 L625 230 L346 230 L346 212 L449 212 C449 153 447 129 440 105 C422 44 377 10 312 10 C244 10 198 44 177 108 C166 144 160 212 160 317 C160 431 168 522 183 563 C204 623 256 657 326 657 C422 657 487 594 518 471 L531 471 L531 667 Z M335 826 C308 826 285 803 285 776 C285 748 308 725 336 725 C363 725 386 748 386 775 C386 804 364 826 335 826 L335 826 Z " />
<glyph glyph-name="gdotaccent" unicode="&#x121;" horiz-adv-x="437" d="M132 18 C86 18 63 30 63 54 C63 77 89 106 135 133 C162 122 184 117 212 117 C298 117 364 176 364 254 C364 290 357 312 335 343 C347 355 356 361 364 361 C372 361 377 357 378 349 C382 324 389 315 407 315 C425 315 437 329 437 352 C437 375 420 391 393 391 C370 391 354 382 323 353 C287 386 258 397 212 397 C123 397 59 339 59 258 C59 210 76 177 118 144 C112 139 112 139 105 134 C79 116 79 116 72 110 C42 82 27 53 27 20 C27 -26 51 -55 103 -69 C47 -93 27 -116 27 -157 C27 -225 103 -274 207 -274 C328 -274 412 -198 412 -88 C412 -44 399 -13 375 3 C356 15 336 18 288 18 L132 18 Z M141 288 C141 354 159 377 212 377 C267 377 281 360 281 293 L281 228 C281 156 266 137 211 137 C156 137 141 156 141 228 L141 288 Z M138 -70 L174 -70 L293 -70 C349 -70 349 -70 362 -75 C377 -80 385 -94 385 -115 C385 -191 307 -254 211 -254 C133 -254 81 -211 81 -148 C81 -118 91 -96 118 -70 L138 -70 Z M224 586 C197 586 174 563 174 536 C174 508 197 485 225 485 C252 485 275 508 275 535 C275 564 253 586 224 586 L224 586 Z " />
<glyph glyph-name="Gcommaaccent" unicode="&#x122;" horiz-adv-x="635" d="M531 667 L518 667 L484 625 C432 661 386 677 331 677 C263 677 197 647 145 593 C80 524 47 437 47 329 C47 235 71 161 121 95 C175 25 243 -10 325 -10 C397 -10 461 18 505 70 C535 104 547 137 558 212 L625 212 L625 230 L346 230 L346 212 L449 212 C449 153 447 129 440 105 C422 44 377 10 312 10 C244 10 198 44 177 108 C166 144 160 212 160 317 C160 431 168 522 183 563 C204 623 256 657 326 657 C422 657 487 594 518 471 L531 471 L531 667 Z M343 -106 C357 -116 364 -131 364 -153 C364 -184 349 -210 304 -254 L316 -266 C364 -225 388 -183 388 -141 C388 -91 357 -54 316 -54 C281 -54 255 -79 255 -112 C255 -143 273 -163 301 -163 C325 -163 343 -145 343 -119 L343 -106 Z " />
<glyph glyph-name="gcommaaccent" unicode="&#x123;" horiz-adv-x="437" d="M132 18 C86 18 63 30 63 54 C63 77 89 106 135 133 C162 122 184 117 212 117 C298 117 364 176 364 254 C364 290 357 312 335 343 C347 355 356 361 364 361 C372 361 377 357 378 349 C382 324 389 315 407 315 C425 315 437 329 437 352 C437 375 420 391 393 391 C370 391 354 382 323 353 C287 386 258 397 212 397 C123 397 59 339 59 258 C59 210 76 177 118 144 C112 139 112 139 105 134 C79 116 79 116 72 110 C42 82 27 53 27 20 C27 -26 51 -55 103 -69 C47 -93 27 -116 27 -157 C27 -225 103 -274 207 -274 C328 -274 412 -198 412 -88 C412 -44 399 -13 375 3 C356 15 336 18 288 18 L132 18 Z M141 288 C141 354 159 377 212 377 C267 377 281 360 281 293 L281 228 C281 156 266 137 211 137 C156 137 141 156 141 228 L141 288 Z M138 -70 L174 -70 L293 -70 C349 -70 349 -70 362 -75 C377 -80 385 -94 385 -115 C385 -191 307 -254 211 -254 C133 -254 81 -211 81 -148 C81 -118 91 -96 118 -70 L138 -70 Z M195 515 C181 525 175 538 175 559 C175 589 190 614 232 655 L220 667 C176 628 153 588 153 548 C153 501 182 466 221 466 C254 466 278 489 278 522 C278 551 261 570 235 570 C212 570 195 552 195 528 L195 515 Z " />
<glyph glyph-name="Hcircumflex" unicode="&#x124;" horiz-adv-x="710" d="M496 330 L496 18 L402 18 L402 0 L675 0 L675 18 L589 18 L589 649 L675 649 L675 667 L402 667 L402 649 L496 649 L496 348 L213 348 L213 649 L306 649 L306 667 L33 667 L33 649 L120 649 L120 18 L33 18 L33 0 L306 0 L306 18 L213 18 L213 330 L496 330 Z M354 769 L502 721 C503 720 505 720 506 720 C510 720 512 721 512 723 C512 725 511 726 505 730 L354 838 L203 730 C199 727 198 725 198 723 C198 721 200 720 203 720 C204 720 205 720 207 721 L354 769 Z " />
<glyph glyph-name="Hbar" unicode="&#x126;" horiz-adv-x="710" d="M120 475 L120 18 L33 18 L33 0 L306 0 L306 18 L213 18 L213 330 L496 330 L496 18 L402 18 L402 0 L675 0 L675 18 L589 18 L589 475 L675 475 L675 493 L589 493 L589 649 L675 649 L675 667 L402 667 L402 649 L496 649 L496 493 L213 493 L213 649 L306 649 L306 667 L33 667 L33 649 L120 649 L120 493 L33 493 L33 475 L120 475 Z M213 475 L496 475 L496 348 L213 348 L213 475 Z " />
<glyph glyph-name="hbar" unicode="&#x127;" horiz-adv-x="522" d="M162 556 L162 667 L18 667 L18 649 L85 649 L85 556 L18 556 L18 532 L85 532 L85 18 L18 18 L18 0 L228 0 L228 18 L162 18 L162 177 C162 235 168 281 179 304 C201 348 240 374 286 374 C339 374 360 349 360 286 L360 18 L293 18 L293 0 L503 0 L503 18 L437 18 L437 286 C437 361 397 397 312 397 C248 397 210 379 162 327 L162 532 L308 532 L308 556 L162 556 Z " />
<glyph glyph-name="Imacron" unicode="&#x12a;" horiz-adv-x="333" d="M120 18 L33 18 L33 0 L300 0 L300 18 L213 18 L213 649 L300 649 L300 667 L33 667 L33 649 L120 649 L120 18 Z M327 749 L327 779 L7 779 L7 749 L327 749 Z " />
<glyph glyph-name="imacron" unicode="&#x12b;" horiz-adv-x="265" d="M180 387 L36 387 L36 369 L103 369 L103 18 L36 18 L36 0 L247 0 L247 18 L180 18 L180 387 Z M254 499 L254 523 L8 523 L8 499 L254 499 Z " />
<glyph glyph-name="ibreve" unicode="&#x12d;" horiz-adv-x="265" d="M180 387 L36 387 L36 369 L103 369 L103 18 L36 18 L36 0 L247 0 L247 18 L180 18 L180 387 Z M262 610 C253 576 244 559 226 545 C208 531 174 521 142 521 C110 521 76 531 57 545 C40 559 31 575 21 610 L10 610 C21 524 73 467 142 467 C210 467 262 523 273 610 L262 610 Z " />
<glyph glyph-name="Iogonek" unicode="&#x12e;" horiz-adv-x="333" d="M299 0 L299 18 L213 18 L213 649 L299 649 L299 667 L33 667 L33 649 L120 649 L120 18 L33 18 L33 0 L220 0 C151 -25 120 -54 120 -96 C120 -137 151 -162 201 -162 C233 -162 253 -157 283 -141 L283 -127 C261 -134 250 -136 234 -136 C193 -136 174 -120 174 -87 C174 -53 193 -29 244 0 L299 0 Z " />
<glyph glyph-name="iogonek" unicode="&#x12f;" horiz-adv-x="265" d="M247 0 L247 18 L181 18 L181 387 L37 387 L37 369 L104 369 L104 18 L37 18 L37 0 L183 0 C118 -26 89 -56 89 -95 C89 -134 119 -159 168 -159 C199 -159 217 -154 247 -138 L247 -124 C227 -132 215 -134 200 -134 C161 -134 142 -118 142 -86 C142 -53 162 -27 209 0 L247 0 Z M135 654 C106 654 82 630 82 601 C82 571 106 547 135 547 C164 547 189 571 189 600 C189 630 165 654 135 654 L135 654 Z " />
<glyph glyph-name="Idotaccent" unicode="&#x130;" horiz-adv-x="333" d="M120 18 L33 18 L33 0 L299 0 L299 18 L213 18 L213 649 L299 649 L299 667 L33 667 L33 649 L120 649 L120 18 Z M166 826 C138 826 116 803 116 776 C116 748 139 725 166 725 C194 725 217 748 217 775 C217 804 195 826 166 826 L166 826 Z " />
<glyph glyph-name="dotlessi" unicode="&#x131;" horiz-adv-x="265" d="M181 387 L37 387 L37 369 L104 369 L104 18 L37 18 L37 0 L247 0 L247 18 L181 18 L181 387 Z " />
<glyph glyph-name="Kcommaaccent" unicode="&#x136;" horiz-adv-x="656" d="M120 18 L33 18 L33 0 L299 0 L299 18 L213 18 L213 649 L299 649 L299 667 L33 667 L33 649 L120 649 L120 18 Z M312 407 L529 649 L613 649 L613 667 L402 667 L402 649 L498 649 L231 353 L483 18 L394 18 L394 0 L655 0 L655 18 L604 18 L312 407 Z M342 -106 C356 -116 363 -131 363 -153 C363 -184 347 -210 303 -254 L316 -266 C363 -225 387 -183 387 -141 C387 -91 356 -54 315 -54 C280 -54 255 -79 255 -112 C255 -143 273 -163 300 -163 C325 -163 343 -145 343 -119 L342 -106 Z " />
<glyph glyph-name="kcommaaccent" unicode="&#x137;" horiz-adv-x="490" d="M162 667 L18 667 L18 649 L85 649 L85 18 L18 18 L18 0 L228 0 L228 18 L162 18 L162 667 Z M257 250 L385 369 L452 369 L452 387 L257 387 L257 369 L351 369 L182 214 L331 18 L277 18 L277 0 L489 0 L489 18 L441 18 L257 250 Z M264 -103 C278 -113 285 -127 285 -148 C285 -178 270 -202 227 -243 L239 -255 C284 -216 307 -176 307 -136 C307 -89 277 -54 239 -54 C206 -54 182 -77 182 -110 C182 -139 199 -158 225 -158 C248 -158 265 -141 265 -116 L264 -103 Z " />
<glyph glyph-name="Lacute" unicode="&#x139;" horiz-adv-x="567" d="M526 0 L540 205 L526 205 C495 57 457 15 355 18 L213 18 L213 649 L299 649 L299 667 L33 667 L33 649 L120 649 L120 18 L33 18 L33 0 L526 0 Z M277 833 L148 731 C143 727 143 726 143 724 C143 721 144 720 147 720 C149 720 152 720 153 721 L375 814 C383 817 387 821 387 825 C387 831 382 833 374 833 L277 833 Z " />
<glyph glyph-name="lacute" unicode="&#x13a;" horiz-adv-x="246" d="M162 667 L8 667 L8 649 L85 649 L85 18 L8 18 L8 0 L238 0 L238 18 L162 18 L162 667 Z M221 833 L91 731 C88 728 87 726 87 724 C87 721 88 720 90 720 C93 720 96 720 97 721 L318 814 C327 818 331 821 331 825 C331 831 326 833 317 833 L221 833 Z " />
<glyph glyph-name="Lcommaaccent" unicode="&#x13b;" horiz-adv-x="567" d="M526 0 L540 205 L526 205 C495 57 457 15 355 18 L213 18 L213 649 L299 649 L299 667 L33 667 L33 649 L120 649 L120 18 L33 18 L33 0 L526 0 Z M275 -266 C323 -225 347 -183 347 -141 C347 -91 316 -54 274 -54 C239 -54 214 -79 214 -112 C214 -143 232 -163 259 -163 C284 -163 302 -145 302 -119 C302 -113 302 -111 301 -106 C316 -116 323 -131 323 -153 C323 -184 307 -210 263 -254 L275 -266 Z " />
<glyph glyph-name="lcommaaccent" unicode="&#x13c;" horiz-adv-x="246" d="M162 667 L8 667 L8 649 L85 649 L85 18 L8 18 L8 0 L238 0 L238 18 L162 18 L162 667 Z M144 -103 C158 -113 165 -127 165 -148 C165 -178 150 -202 107 -243 L119 -255 C164 -216 187 -176 187 -136 C187 -89 157 -54 118 -54 C85 -54 61 -77 61 -110 C61 -139 78 -158 104 -158 C128 -158 145 -141 145 -116 L144 -103 Z " />
<glyph glyph-name="Lcaron" unicode="&#x13d;" horiz-adv-x="567" d="M526 0 L540 205 L526 205 C495 57 457 15 355 18 L213 18 L213 649 L299 649 L299 667 L33 667 L33 649 L120 649 L120 18 L33 18 L33 0 L526 0 Z M407 615 C421 605 428 590 428 568 C428 537 412 511 368 467 L380 455 C428 496 452 538 452 580 C452 630 421 667 380 667 C345 667 320 642 320 609 C320 578 338 558 365 558 C390 558 408 576 408 602 L407 615 Z " />
<glyph glyph-name="lcaron" unicode="&#x13e;" horiz-adv-x="318" d="M162 667 L8 667 L8 649 L85 649 L85 18 L8 18 L8 0 L238 0 L238 18 L162 18 L162 667 Z M275 618 C289 608 296 595 296 574 C296 543 281 519 238 478 L250 466 C295 504 318 545 318 585 C318 632 288 667 249 667 C216 667 192 644 192 611 C192 582 209 563 235 563 C259 563 276 580 276 605 L275 618 Z " />
<glyph glyph-name="Ldot" unicode="&#x13f;" horiz-adv-x="567" d="M526 0 L540 205 L526 205 C495 57 457 15 355 18 L213 18 L213 649 L299 649 L299 667 L33 667 L33 649 L120 649 L120 18 L33 18 L33 0 L526 0 Z M334 365 C306 365 284 342 284 315 C284 287 307 264 334 264 C362 264 385 287 385 314 C385 343 363 365 334 365 L334 365 Z " />
<glyph glyph-name="ldot" unicode="&#x140;" horiz-adv-x="290" d="M162 667 L8 667 L8 649 L85 649 L85 18 L8 18 L8 0 L238 0 L238 18 L162 18 L162 667 Z M259 365 C231 365 209 342 209 315 C209 287 232 264 259 264 C287 264 310 287 310 314 C310 343 288 365 259 365 L259 365 Z " />
<glyph glyph-name="Lslash" unicode="&#x141;" horiz-adv-x="567" d="M120 269 L120 18 L33 18 L33 0 L526 0 L540 205 L526 205 C495 57 457 15 355 18 L213 18 L213 324 L386 455 L386 480 L213 349 L213 649 L299 649 L299 667 L33 667 L33 649 L120 649 L120 294 L33 228 L33 203 L120 269 Z " />
<glyph glyph-name="lslash" unicode="&#x142;" horiz-adv-x="246" d="M85 351 L8 293 L8 268 L85 326 L85 18 L8 18 L8 0 L238 0 L238 18 L162 18 L162 367 L238 425 L238 450 L162 392 L162 667 L8 667 L8 649 L85 649 L85 351 Z " />
<glyph glyph-name="Nacute" unicode="&#x143;" horiz-adv-x="679" d="M556 0 L572 0 L572 649 L645 649 L645 667 L462 667 L462 649 L549 649 L549 185 L234 667 L23 667 L23 649 L110 649 L110 18 L23 18 L23 0 L226 0 L226 18 L133 18 L133 644 L556 0 Z M432 833 L302 731 C299 728 298 726 298 724 C298 722 299 720 301 720 C304 720 307 720 308 721 L529 814 C538 818 542 821 542 825 C542 831 537 833 528 833 L432 833 Z " />
<glyph glyph-name="nacute" unicode="&#x144;" horiz-adv-x="523" d="M181 387 L37 387 L37 369 L104 369 L104 18 L37 18 L37 0 L247 0 L247 18 L181 18 L181 178 C181 250 186 289 198 313 C216 349 256 374 296 374 C341 374 362 348 362 292 L362 18 L295 18 L295 0 L505 0 L505 18 L439 18 L439 265 C439 310 431 335 412 357 C389 383 352 397 311 397 C258 397 222 378 181 330 L181 387 Z M326 613 L230 470 C229 469 229 467 229 466 C229 464 230 463 232 463 C233 463 234 463 237 466 L395 595 C400 598 403 603 403 606 C403 611 399 613 391 613 L326 613 Z " />
<glyph glyph-name="Ncommaaccent" unicode="&#x145;" horiz-adv-x="679" d="M556 0 L572 0 L572 649 L645 649 L645 667 L462 667 L462 649 L549 649 L549 185 L234 667 L23 667 L23 649 L110 649 L110 18 L23 18 L23 0 L226 0 L226 18 L133 18 L133 644 L556 0 Z M349 -106 C363 -116 370 -131 370 -153 C370 -184 354 -211 310 -254 L322 -266 C370 -225 394 -183 394 -141 C394 -91 363 -54 322 -54 C287 -54 262 -79 262 -112 C262 -143 280 -163 307 -163 C332 -163 350 -145 350 -119 L349 -106 Z " />
<glyph glyph-name="ncommaaccent" unicode="&#x146;" horiz-adv-x="523" d="M181 387 L37 387 L37 369 L104 369 L104 18 L37 18 L37 0 L247 0 L247 18 L181 18 L181 178 C181 250 186 289 198 313 C216 349 256 374 296 374 C341 374 362 348 362 292 L362 18 L295 18 L295 0 L505 0 L505 18 L439 18 L439 265 C439 310 431 335 412 357 C389 383 352 397 311 397 C258 397 222 378 181 330 L181 387 Z M292 -103 C306 -113 313 -127 313 -148 C313 -178 298 -202 255 -243 L267 -255 C312 -217 335 -176 335 -136 C335 -89 305 -54 266 -54 C233 -54 209 -77 209 -110 C209 -139 226 -158 252 -158 C276 -158 293 -141 293 -116 L292 -103 Z " />
<glyph glyph-name="Ncaron" unicode="&#x147;" horiz-adv-x="679" d="M556 0 L572 0 L572 649 L645 649 L645 667 L462 667 L462 649 L549 649 L549 185 L234 667 L23 667 L23 649 L110 649 L110 18 L23 18 L23 0 L226 0 L226 18 L133 18 L133 644 L556 0 Z M349 789 L202 838 L198 838 C194 838 193 837 193 835 C193 833 194 831 198 829 L349 720 L500 829 C504 831 506 833 506 835 C506 837 504 838 501 838 L497 838 L349 789 Z " />
<glyph glyph-name="ncaron" unicode="&#x148;" horiz-adv-x="523" d="M181 387 L37 387 L37 369 L104 369 L104 18 L37 18 L37 0 L247 0 L247 18 L181 18 L181 178 C181 250 186 289 198 313 C216 349 256 374 296 374 C341 374 362 348 362 292 L362 18 L295 18 L295 0 L505 0 L505 18 L439 18 L439 265 C439 310 431 335 412 357 C389 383 352 397 311 397 C258 397 222 378 181 330 L181 387 Z M274 539 L141 615 C139 616 137 617 135 617 C133 617 132 616 132 614 C132 612 133 609 137 606 L274 463 L412 606 C415 609 417 612 417 614 C417 616 415 617 413 617 C412 617 410 616 408 615 L274 539 Z " />
<glyph glyph-name="Omacron" unicode="&#x14c;" horiz-adv-x="660" d="M331 677 C257 677 188 644 133 583 C77 520 47 433 47 334 C47 241 72 161 121 99 C177 28 250 -10 331 -10 C489 -10 614 139 614 330 C614 426 590 505 540 568 C484 639 411 677 331 677 L331 677 Z M331 657 C402 657 460 620 483 560 C498 519 501 481 501 329 C501 202 498 161 488 124 C468 52 409 10 331 10 C259 10 201 47 179 108 C163 148 160 187 160 333 C160 466 162 505 173 543 C193 615 251 657 331 657 L331 657 Z M491 749 L491 779 L171 779 L171 749 L491 749 Z " />
<glyph glyph-name="omacron" unicode="&#x14d;" horiz-adv-x="470" d="M235 397 C127 397 40 306 40 194 C40 80 127 -10 235 -10 C342 -10 430 81 430 191 C430 307 345 397 235 397 L235 397 Z M133 218 C135 304 136 312 144 328 C157 358 192 377 234 377 C273 377 305 362 322 335 C332 318 337 280 337 218 L337 169 C337 117 332 74 325 59 C311 28 277 10 234 10 C195 10 163 26 147 52 C136 70 136 76 133 169 L133 218 Z M358 499 L358 523 L112 523 L112 499 L358 499 Z " />
<glyph glyph-name="Ohungarumlaut" unicode="&#x150;" horiz-adv-x="660" d="M331 677 C257 677 188 644 133 583 C77 520 47 433 47 334 C47 241 72 161 121 99 C177 28 250 -10 331 -10 C489 -10 614 139 614 330 C614 426 590 505 540 568 C484 639 411 677 331 677 L331 677 Z M331 657 C402 657 460 620 483 560 C498 519 501 481 501 329 C501 202 498 161 488 124 C468 52 409 10 331 10 C259 10 201 47 179 108 C163 148 160 187 160 333 C160 466 162 505 173 543 C193 615 251 657 331 657 L331 657 Z M491 833 L378 731 C373 727 373 727 373 724 C373 722 374 720 377 720 C380 720 382 720 384 721 L572 813 C581 818 584 821 584 825 C584 830 580 833 571 833 L491 833 Z M326 833 L214 731 C210 728 209 726 209 724 C209 721 210 720 213 720 C215 720 217 720 219 721 L407 813 C416 818 419 821 419 825 C419 830 415 833 406 833 L326 833 Z " />
<glyph glyph-name="ohungarumlaut" unicode="&#x151;" horiz-adv-x="470" d="M235 397 C127 397 40 306 40 194 C40 80 127 -10 235 -10 C342 -10 430 81 430 191 C430 307 345 397 235 397 L235 397 Z M133 218 C135 304 136 312 144 328 C157 358 192 377 234 377 C273 377 305 362 322 335 C332 318 337 280 337 218 L337 169 C337 117 332 74 325 59 C311 28 277 10 234 10 C195 10 163 26 147 52 C136 70 136 76 133 169 L133 218 Z M385 613 L289 470 C288 469 287 467 287 466 C287 465 288 463 290 463 C292 463 294 464 296 466 L448 595 C452 598 455 603 455 606 C455 611 451 613 443 613 L385 613 Z M248 613 L152 470 C151 469 150 467 150 466 C150 464 151 463 153 463 C155 463 157 464 159 466 L311 595 C315 598 318 603 318 606 C318 611 314 613 306 613 L248 613 Z " />
<glyph glyph-name="OE" unicode="&#x152;" horiz-adv-x="922" d="M842 667 L439 667 C403 675 384 677 359 677 C181 677 47 528 47 331 C47 245 72 167 121 106 C181 28 260 -10 357 -10 C386 -10 404 -8 439 0 L864 0 L884 208 L871 208 C856 154 843 116 830 92 C792 26 774 17 683 18 L550 18 L550 329 L594 329 C671 330 702 299 704 221 L704 198 L717 198 L717 472 L704 472 L704 453 C703 376 674 347 597 347 L550 347 L550 649 L635 649 C770 651 813 617 842 486 L855 486 L842 667 Z M457 30 C414 14 394 10 355 10 C282 10 231 33 199 78 C172 117 160 188 160 302 C160 391 168 509 177 545 C194 612 264 657 355 657 C387 657 409 653 457 639 L457 30 Z " />
<glyph glyph-name="oe" unicode="&#x153;" horiz-adv-x="724" d="M665 130 C651 56 597 10 527 10 C493 10 463 23 446 45 C429 67 424 92 424 151 L424 228 L689 228 C685 325 613 397 519 397 C465 397 414 371 381 327 C347 371 294 397 235 397 C127 397 40 306 40 193 C40 81 127 -10 235 -10 C294 -10 348 16 382 60 C419 15 470 -10 528 -10 C609 -10 670 45 685 130 L665 130 Z M132 218 C132 270 137 313 144 328 C158 359 192 377 235 377 C273 377 305 362 322 335 C332 318 337 279 337 218 L337 169 C337 116 332 74 325 59 C311 28 277 10 235 10 C196 10 164 25 147 52 C137 69 132 107 132 169 L132 218 Z M598 246 L424 246 L424 280 C424 346 453 377 515 377 C573 377 598 351 598 289 L598 246 Z " />
<glyph glyph-name="Racute" unicode="&#x154;" horiz-adv-x="644" d="M213 345 L273 345 C373 342 409 308 413 214 L413 165 C413 107 422 71 446 41 C471 10 504 -5 547 -5 C575 -5 589 -1 617 12 L611 29 C592 19 582 16 570 16 C552 16 535 27 528 42 C521 56 519 72 519 108 L519 163 C516 270 453 334 334 350 C412 359 447 371 483 400 C522 431 541 468 541 512 C541 564 519 605 477 633 C439 659 399 667 305 667 L33 667 L33 649 L120 649 L120 18 L33 18 L33 0 L306 0 L306 18 L213 18 L213 345 Z M213 363 L213 649 L284 649 C391 649 437 606 437 506 C437 409 386 363 278 363 L213 363 Z M362 833 L233 731 C228 727 228 726 228 724 C228 721 229 720 232 720 C234 720 237 720 238 721 L460 814 C468 817 472 821 472 825 C472 831 467 833 459 833 L362 833 Z " />
<glyph glyph-name="racute" unicode="&#x155;" horiz-adv-x="353" d="M181 387 L37 387 L37 369 L104 369 L104 18 L37 18 L37 0 L247 0 L247 18 L181 18 L181 134 C181 216 184 245 201 291 C217 336 236 360 256 360 C265 360 269 355 270 344 C271 310 282 294 305 294 C328 294 344 314 344 344 C344 376 321 397 288 397 C257 397 229 381 211 353 C200 335 194 322 181 287 L181 387 Z M279 613 L184 470 C183 468 182 467 182 466 C181 465 183 463 185 463 C186 463 188 464 190 466 L349 595 C354 598 357 603 357 606 C357 611 353 613 345 613 L279 613 Z " />
<glyph glyph-name="Rcommaaccent" unicode="&#x156;" horiz-adv-x="644" d="M213 345 L273 345 C373 342 409 308 413 214 L413 165 C413 107 422 71 446 41 C471 10 504 -5 547 -5 C575 -5 589 -1 617 12 L611 29 C592 19 582 16 570 16 C552 16 535 27 528 42 C521 56 519 72 519 108 L519 163 C516 270 453 334 334 350 C412 359 447 371 483 400 C522 431 541 468 541 512 C541 564 519 605 477 633 C439 659 399 667 305 667 L33 667 L33 649 L120 649 L120 18 L33 18 L33 0 L306 0 L306 18 L213 18 L213 345 Z M213 363 L213 649 L284 649 C391 649 437 606 437 506 C437 409 386 363 278 363 L213 363 Z M303 -266 C351 -225 375 -183 375 -141 C375 -91 344 -54 302 -54 C267 -54 242 -79 242 -112 C242 -143 260 -163 287 -163 C312 -163 330 -145 330 -119 C330 -112 330 -112 329 -106 C344 -116 351 -131 351 -153 C351 -184 335 -211 291 -254 L303 -266 Z " />
<glyph glyph-name="rcommaaccent" unicode="&#x157;" horiz-adv-x="353" d="M181 387 L37 387 L37 369 L104 369 L104 18 L37 18 L37 0 L247 0 L247 18 L181 18 L181 134 C181 216 184 245 201 291 C217 336 236 360 256 360 C265 360 269 355 270 344 C271 310 282 294 305 294 C328 294 344 314 344 344 C344 376 321 397 288 397 C257 397 229 381 211 353 C200 335 194 322 181 287 L181 387 Z M173 -103 C187 -113 194 -127 194 -148 C194 -178 179 -202 136 -243 L148 -255 C193 -216 216 -177 216 -136 C216 -89 186 -54 147 -54 C114 -54 90 -77 90 -110 C90 -139 107 -158 133 -158 C157 -158 174 -141 174 -116 L173 -103 Z " />
<glyph glyph-name="Rcaron" unicode="&#x158;" horiz-adv-x="644" d="M213 345 L273 345 C373 342 409 308 413 214 L413 165 C413 107 422 71 446 41 C471 10 504 -5 547 -5 C575 -5 589 -1 617 12 L611 29 C592 19 582 16 570 16 C552 16 535 27 528 42 C521 56 519 72 519 108 L519 163 C516 270 453 334 334 350 C412 359 447 371 483 400 C522 431 541 468 541 512 C541 564 519 605 477 633 C439 659 399 667 305 667 L33 667 L33 649 L120 649 L120 18 L33 18 L33 0 L306 0 L306 18 L213 18 L213 345 Z M213 363 L213 649 L284 649 C391 649 437 606 437 506 C437 409 386 363 278 363 L213 363 Z M295 789 L148 838 L144 838 C140 838 139 837 139 835 C139 833 140 831 144 829 L295 720 L446 829 C452 832 453 833 453 835 C453 837 451 838 447 838 L443 838 L295 789 Z " />
<glyph glyph-name="rcaron" unicode="&#x159;" horiz-adv-x="353" d="M181 387 L37 387 L37 369 L104 369 L104 18 L37 18 L37 0 L247 0 L247 18 L181 18 L181 134 C181 216 184 245 201 291 C217 336 236 360 256 360 C265 360 269 355 270 344 C271 310 282 294 305 294 C328 294 344 314 344 344 C344 376 321 397 288 397 C257 397 229 381 211 353 C200 335 194 322 181 287 L181 387 Z M190 539 L56 615 C54 616 52 617 51 617 C48 617 47 616 47 614 C47 612 48 611 53 606 L190 463 L327 606 C331 609 333 612 333 614 C333 616 331 617 329 617 C327 617 325 616 324 615 L190 539 Z " />
<glyph glyph-name="Sacute" unicode="&#x15a;" horiz-adv-x="502" d="M416 676 L402 676 L371 633 C328 663 288 677 243 677 C140 677 61 591 61 479 C61 389 106 337 205 310 L282 290 C370 266 405 229 405 157 C405 70 346 10 259 10 C197 10 140 42 105 96 C85 126 76 152 68 207 L48 207 L55 0 L68 0 L103 56 C156 8 197 -10 257 -10 C373 -10 453 82 453 216 C453 322 405 381 295 409 L242 423 C144 448 108 478 108 535 C108 603 165 657 238 657 C291 657 337 634 366 593 C383 569 391 547 397 503 L417 503 L416 676 Z M329 833 L200 731 C195 727 195 726 195 724 C195 721 196 720 199 720 C201 720 205 720 206 721 L427 814 C435 817 439 821 439 825 C439 831 435 833 426 833 L329 833 Z " />
<glyph glyph-name="sacute" unicode="&#x15b;" horiz-adv-x="356" d="M300 395 L287 395 L273 359 C238 387 211 397 176 397 C106 397 56 347 56 277 C56 217 90 175 149 164 L226 148 C269 140 290 120 290 88 C290 45 249 10 199 10 C157 10 121 31 96 71 C83 92 77 108 69 148 L52 148 L52 0 L62 0 L85 38 C127 1 154 -10 195 -10 C269 -10 321 45 321 122 C321 193 286 232 208 248 L163 257 C106 268 86 282 86 307 C86 346 124 377 171 377 C230 377 271 341 283 280 L300 280 L300 395 Z M262 613 L166 470 C165 469 165 467 165 466 C165 464 167 463 168 463 C169 463 170 463 173 466 L332 595 C336 598 339 603 339 606 C339 611 335 613 327 613 L262 613 Z " />
<glyph glyph-name="Scircumflex" unicode="&#x15c;" horiz-adv-x="502" d="M416 676 L402 676 L371 633 C328 663 288 677 243 677 C140 677 61 591 61 479 C61 389 106 337 205 310 L282 290 C370 266 405 229 405 157 C405 70 346 10 259 10 C197 10 140 42 105 96 C85 126 76 152 68 207 L48 207 L55 0 L68 0 L103 56 C156 8 197 -10 257 -10 C373 -10 453 82 453 216 C453 322 405 381 295 409 L242 423 C144 448 108 478 108 535 C108 603 165 657 238 657 C291 657 337 634 366 593 C383 569 391 547 397 503 L417 503 L416 676 Z M251 769 L398 721 C399 720 401 720 402 720 C405 720 407 721 407 723 C407 725 405 727 402 730 L251 838 L99 730 C96 727 94 725 94 723 C94 721 96 720 99 720 C100 720 102 720 103 721 L251 769 Z " />
<glyph glyph-name="scircumflex" unicode="&#x15d;" horiz-adv-x="356" d="M300 395 L287 395 L273 359 C238 387 211 397 176 397 C106 397 56 347 56 277 C56 217 90 175 149 164 L226 148 C269 140 290 120 290 88 C290 45 249 10 199 10 C157 10 121 31 96 71 C83 92 77 108 69 148 L52 148 L52 0 L62 0 L85 38 C127 1 154 -10 195 -10 C269 -10 321 45 321 122 C321 193 286 232 208 248 L163 257 C106 268 86 282 86 307 C86 346 124 377 171 377 C230 377 271 341 283 280 L300 280 L300 395 Z M191 541 L325 465 C327 464 329 463 330 463 C332 463 334 464 334 466 C334 468 332 471 329 474 L191 617 L54 474 C51 471 49 468 49 466 C49 464 51 463 52 463 C54 463 56 464 58 465 L191 541 Z " />
<glyph glyph-name="Scedilla" unicode="&#x15e;" horiz-adv-x="502" d="M258 -10 C306 -9 345 4 377 31 C424 71 453 141 453 216 C453 322 405 381 295 409 L242 423 C144 448 108 478 108 535 C108 603 165 657 238 657 C291 657 337 634 366 593 C383 569 391 547 397 503 L417 503 L416 676 L402 676 L371 633 C328 663 288 677 243 677 C140 677 61 591 61 479 C61 389 106 337 205 310 L282 290 C370 266 405 229 405 157 C405 70 346 10 259 10 C197 10 140 42 105 96 C85 126 76 152 68 207 L48 207 L55 0 L68 0 L103 56 C146 14 186 -5 238 -9 L222 -67 C258 -76 275 -91 275 -117 C275 -145 253 -165 223 -165 C210 -165 194 -161 185 -156 C178 -152 178 -150 178 -134 C178 -112 174 -101 164 -101 C156 -101 152 -107 152 -118 C152 -155 186 -181 234 -181 C289 -181 336 -148 336 -110 C336 -77 307 -58 258 -58 L244 -58 L258 -10 Z " />
<glyph glyph-name="scedilla" unicode="&#x15f;" horiz-adv-x="356" d="M200 -10 C271 -8 321 47 321 122 C321 193 286 232 208 248 L163 257 C106 268 86 282 86 307 C86 346 124 377 171 377 C230 377 271 341 283 280 L300 280 L300 395 L287 395 L273 359 C238 387 211 397 176 397 C106 397 56 347 56 277 C56 217 90 175 149 164 L226 148 C269 140 290 120 290 88 C290 45 249 10 199 10 C157 10 121 31 96 71 C83 92 77 108 69 148 L52 148 L52 0 L62 0 L85 38 C120 7 145 -6 181 -9 L166 -65 C201 -74 216 -89 216 -114 C216 -140 195 -160 168 -160 C143 -160 123 -151 124 -139 C125 -128 125 -128 125 -126 C125 -108 120 -98 112 -98 C104 -98 100 -104 100 -114 C100 -150 132 -176 177 -176 C229 -176 274 -144 274 -107 C274 -75 246 -56 200 -56 L187 -56 L200 -10 Z " />
<glyph glyph-name="Scaron" unicode="&#x160;" horiz-adv-x="502" d="M416 676 L402 676 L371 633 C328 663 288 677 243 677 C140 677 61 591 61 479 C61 389 106 337 205 310 L282 290 C370 266 405 229 405 157 C405 70 346 10 259 10 C197 10 140 42 105 96 C85 126 76 152 68 207 L48 207 L55 0 L68 0 L103 56 C156 8 197 -10 257 -10 C373 -10 453 82 453 216 C453 322 405 381 295 409 L242 423 C144 448 108 478 108 535 C108 603 165 657 238 657 C291 657 337 634 366 593 C383 569 391 547 397 503 L417 503 L416 676 Z M250 789 L103 838 L99 838 C95 838 94 837 94 835 C94 833 95 831 99 829 L250 720 L402 829 C405 831 407 833 407 835 C407 837 405 838 402 838 L398 838 L250 789 Z " />
<glyph glyph-name="scaron" unicode="&#x161;" horiz-adv-x="356" d="M300 395 L287 395 L273 359 C238 387 211 397 176 397 C106 397 56 347 56 277 C56 217 90 175 149 164 L226 148 C269 140 290 120 290 88 C290 45 249 10 199 10 C157 10 121 31 96 71 C83 92 77 108 69 148 L52 148 L52 0 L62 0 L85 38 C127 1 154 -10 195 -10 C269 -10 321 45 321 122 C321 193 286 232 208 248 L163 257 C106 268 86 282 86 307 C86 346 124 377 171 377 C230 377 271 341 283 280 L300 280 L300 395 Z M187 539 L60 615 C58 616 56 617 54 617 C52 617 50 616 50 614 C50 612 50 612 56 606 L187 463 L317 606 C322 611 323 612 323 614 C323 616 321 617 319 617 C317 617 315 616 314 615 L187 539 Z " />
<glyph glyph-name="Tcommaaccent" unicode="&#x162;" horiz-adv-x="583" d="M337 649 L387 649 C477 648 516 604 556 457 L569 459 L556 667 L20 667 L13 459 L26 457 C39 517 51 551 73 587 C107 638 129 649 196 649 L244 649 L244 18 L144 18 L144 0 L437 0 L437 18 L337 18 L337 649 Z M280 -266 C327 -226 351 -183 351 -141 C351 -91 320 -54 279 -54 C244 -54 219 -79 219 -112 C219 -143 237 -163 265 -163 C289 -163 307 -145 307 -119 C307 -116 307 -111 306 -106 C320 -116 327 -131 327 -153 C327 -184 312 -210 267 -254 L280 -266 Z " />
<glyph glyph-name="tcommaaccent" unicode="&#x163;" horiz-adv-x="289" d="M162 369 L268 369 L268 387 L162 387 L162 546 L152 546 C133 479 71 403 20 384 L20 369 L85 369 L85 107 C85 61 89 43 104 24 C122 2 150 -10 186 -10 C245 -10 278 17 289 74 L269 74 C261 36 244 20 212 20 C176 20 162 39 162 85 L162 369 Z M189 -103 C203 -113 210 -127 210 -148 C210 -178 195 -203 152 -243 L164 -255 C209 -217 232 -176 232 -136 C232 -89 202 -54 163 -54 C130 -54 106 -77 106 -110 C106 -139 123 -158 149 -158 C173 -158 190 -141 190 -116 L189 -103 Z " />
<glyph glyph-name="Tcaron" unicode="&#x164;" horiz-adv-x="583" d="M337 649 L387 649 C477 648 516 604 556 457 L569 459 L556 667 L20 667 L13 459 L26 457 C39 517 51 551 73 587 C107 638 129 649 196 649 L244 649 L244 18 L144 18 L144 0 L437 0 L437 18 L337 18 L337 649 Z M291 789 L143 838 L139 838 C135 838 134 837 134 835 C134 833 135 832 140 829 L291 720 L442 829 C446 832 448 833 448 835 C448 837 446 838 443 838 L438 838 L291 789 Z " />
<glyph glyph-name="tcaron" unicode="&#x165;" horiz-adv-x="309" d="M162 369 L268 369 L268 387 L162 387 L162 546 L152 546 C133 479 71 403 20 384 L20 369 L85 369 L85 107 C85 61 89 43 104 24 C122 2 150 -10 186 -10 C245 -10 278 17 289 74 L269 74 C261 36 244 20 212 20 C176 20 162 39 162 85 L162 369 Z M258 618 C272 608 279 594 279 574 C279 543 264 518 221 478 L233 466 C278 504 301 545 301 585 C301 632 271 667 232 667 C199 667 175 644 175 611 C175 582 192 563 218 563 C242 563 259 580 259 605 L258 618 Z " />
<glyph glyph-name="utilde" unicode="&#x169;" horiz-adv-x="511" d="M426 387 L282 387 L282 369 L349 369 L349 200 C349 141 341 91 330 69 C312 34 274 13 231 13 C178 13 162 38 162 117 L162 387 L18 387 L18 369 L85 369 L85 131 C85 80 90 54 106 33 C127 6 167 -10 217 -10 C278 -10 314 9 349 60 L349 0 L492 0 L492 18 L426 18 L426 387 Z M395 572 C380 550 363 541 340 541 C326 541 307 544 294 549 L254 563 C233 571 221 573 204 573 C159 573 133 553 106 499 L115 493 C131 515 148 524 177 524 C191 524 208 521 225 515 L263 502 C282 495 297 492 309 492 C347 492 372 512 405 567 L395 572 Z " />
<glyph glyph-name="Umacron" unicode="&#x16a;" horiz-adv-x="642" d="M200 649 L286 649 L286 667 L20 667 L20 649 L107 649 L107 249 C107 139 122 84 165 44 C202 10 266 -10 342 -10 C420 -10 475 15 509 67 C533 103 542 144 542 222 L542 649 L615 649 L615 667 L439 667 L439 649 L519 649 L519 222 C519 144 515 119 497 87 C469 37 421 10 360 10 C309 10 263 29 235 62 C207 94 200 126 200 205 L200 649 Z M502 749 L502 779 L182 779 L182 749 L502 749 Z " />
<glyph glyph-name="umacron" unicode="&#x16b;" horiz-adv-x="511" d="M426 387 L282 387 L282 369 L349 369 L349 200 C349 141 341 91 330 69 C312 34 274 13 231 13 C178 13 162 38 162 117 L162 387 L18 387 L18 369 L85 369 L85 131 C85 80 90 54 106 33 C127 6 167 -10 217 -10 C278 -10 314 9 349 60 L349 0 L492 0 L492 18 L426 18 L426 387 Z M378 499 L378 523 L132 523 L132 499 L378 499 Z " />
<glyph glyph-name="ubreve" unicode="&#x16d;" horiz-adv-x="511" d="M426 387 L282 387 L282 369 L349 369 L349 200 C349 141 341 91 330 69 C312 34 274 13 231 13 C178 13 162 38 162 117 L162 387 L18 387 L18 369 L85 369 L85 131 C85 80 90 54 106 33 C127 6 167 -10 217 -10 C278 -10 314 9 349 60 L349 0 L492 0 L492 18 L426 18 L426 387 Z M375 610 C366 576 357 559 339 545 C321 531 287 521 255 521 C223 521 189 531 171 545 C153 559 144 575 135 610 L124 610 C134 524 187 467 255 467 C323 467 375 523 387 610 L375 610 Z " />
<glyph glyph-name="Uring" unicode="&#x16e;" horiz-adv-x="642" d="M200 649 L286 649 L286 667 L20 667 L20 649 L107 649 L107 249 C107 139 122 84 165 44 C202 10 266 -10 342 -10 C420 -10 475 15 509 67 C533 103 542 144 542 222 L542 649 L615 649 L615 667 L439 667 L439 649 L519 649 L519 222 C519 144 515 119 497 87 C469 37 421 10 360 10 C309 10 263 29 235 62 C207 94 200 126 200 205 L200 649 Z M356 859 C313 859 280 825 280 782 C280 740 313 707 356 707 C398 707 432 740 432 781 C432 825 399 859 356 859 L356 859 Z M356 832 C381 832 404 809 404 783 C404 757 381 734 355 734 C330 734 308 757 308 783 C308 809 330 832 356 832 L356 832 Z " />
<glyph glyph-name="uring" unicode="&#x16f;" horiz-adv-x="511" d="M426 387 L282 387 L282 369 L349 369 L349 200 C349 141 341 91 330 69 C312 34 274 13 231 13 C178 13 162 38 162 117 L162 387 L18 387 L18 369 L85 369 L85 131 C85 80 90 54 106 33 C127 6 167 -10 217 -10 C278 -10 314 9 349 60 L349 0 L492 0 L492 18 L426 18 L426 387 Z M263 615 C220 615 187 581 187 538 C187 496 220 463 262 463 C305 463 338 496 338 537 C338 581 305 615 263 615 L263 615 Z M263 588 C287 588 310 565 310 539 C310 513 287 490 262 490 C236 490 215 513 215 539 C215 565 237 588 263 588 L263 588 Z " />
<glyph glyph-name="Uhungarumlaut" unicode="&#x170;" horiz-adv-x="642" d="M200 649 L286 649 L286 667 L20 667 L20 649 L107 649 L107 249 C107 139 122 84 165 44 C202 10 266 -10 342 -10 C420 -10 475 15 509 67 C533 103 542 144 542 222 L542 649 L615 649 L615 667 L439 667 L439 649 L519 649 L519 222 C519 144 515 119 497 87 C469 37 421 10 360 10 C309 10 263 29 235 62 C207 94 200 126 200 205 L200 649 Z M516 833 L403 731 C400 728 399 726 399 724 C399 721 400 720 402 720 C405 720 407 720 409 721 L597 813 C606 818 609 821 609 825 C609 830 604 833 596 833 L516 833 Z M351 833 L239 731 C234 727 234 726 234 724 C234 721 235 720 238 720 C240 720 242 720 244 721 L432 813 C442 818 445 821 445 825 C445 830 440 833 431 833 L351 833 Z " />
<glyph glyph-name="uhungarumlaut" unicode="&#x171;" horiz-adv-x="511" d="M426 387 L282 387 L282 369 L349 369 L349 200 C349 141 341 91 330 69 C312 34 274 13 231 13 C178 13 162 38 162 117 L162 387 L18 387 L18 369 L85 369 L85 131 C85 80 90 54 106 33 C127 6 167 -10 217 -10 C278 -10 314 9 349 60 L349 0 L492 0 L492 18 L426 18 L426 387 Z M399 613 L304 470 C303 469 302 467 302 466 C301 464 303 463 305 463 C307 463 309 464 311 466 L462 595 C467 598 470 603 470 606 C470 611 466 613 458 613 L399 613 Z M262 613 L167 470 C166 469 165 467 165 466 C164 465 166 463 168 463 C170 463 172 464 174 466 L325 595 C330 598 333 603 333 606 C333 611 329 613 321 613 L262 613 Z " />
<glyph glyph-name="Uogonek" unicode="&#x172;" horiz-adv-x="642" d="M479 -127 C457 -134 446 -136 430 -136 C389 -136 370 -120 370 -87 C370 -54 386 -34 443 6 C520 57 542 104 542 222 L542 649 L615 649 L615 667 L439 667 L439 649 L519 649 L519 222 C519 144 515 119 497 87 C469 37 421 10 360 10 C309 10 263 29 235 62 C207 94 200 126 200 205 L200 649 L286 649 L286 667 L20 667 L20 649 L107 649 L107 249 C107 139 122 85 165 44 C201 10 267 -10 339 -10 C363 -10 382 -8 404 -4 C378 -16 363 -23 358 -26 C329 -45 315 -68 315 -96 C315 -137 346 -162 397 -162 C429 -162 448 -157 479 -141 L479 -127 Z " />
<glyph glyph-name="uogonek" unicode="&#x173;" horiz-adv-x="511" d="M492 0 L492 18 L426 18 L426 387 L282 387 L282 369 L349 369 L349 200 C349 141 341 91 330 69 C312 34 274 13 231 13 C178 13 162 38 162 117 L162 387 L18 387 L18 369 L85 369 L85 131 C85 80 90 54 106 33 C127 6 167 -10 217 -10 C278 -10 314 9 349 60 L349 0 L428 0 C364 -26 335 -56 335 -95 C335 -134 365 -159 413 -159 C444 -159 463 -154 492 -138 L492 -124 C473 -132 460 -134 445 -134 C406 -134 387 -118 387 -86 C387 -53 407 -27 454 0 L492 0 Z " />
<glyph glyph-name="Wcircumflex" unicode="&#x174;" horiz-adv-x="784" d="M562 143 L456 431 L534 649 L589 649 L589 667 L-10 667 L-10 649 L49 649 L282 -10 L300 -10 L410 292 L517 -10 L535 -10 L743 649 L797 649 L797 667 L629 667 L629 649 L720 649 L562 143 Z M150 649 L279 649 L397 325 L329 135 L150 649 Z M377 649 L510 649 L444 467 L377 649 Z M423 769 L571 721 C572 720 573 720 575 720 C578 720 580 721 580 723 C580 725 579 727 574 730 L423 838 L272 730 C267 727 266 725 266 723 C266 721 268 720 271 720 C273 720 274 720 276 721 L423 769 Z " />
<glyph glyph-name="Ycircumflex" unicode="&#x176;" horiz-adv-x="551" d="M331 312 L502 649 L571 649 L571 667 L380 667 L380 649 L478 649 L325 353 L150 649 L238 649 L238 667 L-20 667 L-20 649 L37 649 L238 312 L238 18 L138 18 L138 0 L431 0 L431 18 L331 18 L331 312 Z M303 769 L451 721 C452 720 454 720 455 720 C458 720 460 721 460 723 C460 725 459 727 455 730 L303 838 L152 730 C147 726 146 725 146 723 C146 721 148 720 151 720 C153 720 154 720 156 721 L303 769 Z " />
<glyph glyph-name="ycircumflex" unicode="&#x177;" horiz-adv-x="414" d="M250 94 L135 369 L203 369 L203 387 L0 387 L0 369 L47 369 L215 -6 L161 -161 C148 -201 143 -208 128 -208 C122 -208 118 -205 114 -200 C98 -180 89 -174 71 -174 C46 -174 28 -194 28 -221 C28 -252 51 -274 83 -274 C127 -274 155 -244 181 -170 L370 369 L414 369 L414 387 L274 387 L274 369 L344 369 L250 94 Z M228 541 L361 465 C363 464 365 463 366 463 C368 463 370 464 370 466 C370 468 368 471 365 474 L228 617 L90 474 C87 471 85 468 85 466 C85 464 87 463 88 463 C90 463 92 464 94 465 L228 541 Z " />
<glyph glyph-name="Ydieresis" unicode="&#x178;" horiz-adv-x="551" d="M331 312 L502 649 L571 649 L571 667 L380 667 L380 649 L478 649 L325 353 L150 649 L238 649 L238 667 L-20 667 L-20 649 L37 649 L238 312 L238 18 L138 18 L138 0 L431 0 L431 18 L331 18 L331 312 Z M193 824 C167 824 145 802 145 776 C145 749 167 727 194 727 C220 727 242 749 242 775 C242 802 221 824 193 824 L193 824 Z M405 824 C379 824 357 802 357 776 C357 749 379 727 406 727 C432 727 454 749 454 775 C454 802 433 824 405 824 L405 824 Z " />
<glyph glyph-name="Zacute" unicode="&#x179;" horiz-adv-x="558" d="M513 0 L532 208 L518 208 C480 54 441 13 333 18 L139 18 L532 667 L81 667 L61 464 L75 464 C109 605 146 648 231 649 L414 649 L30 24 L30 0 L513 0 Z M405 833 L275 731 C272 728 271 726 271 724 C271 722 272 720 275 720 C277 720 280 720 281 721 L502 814 C512 818 515 821 515 825 C515 831 511 833 501 833 L405 833 Z " />
<glyph glyph-name="zacute" unicode="&#x17a;" horiz-adv-x="401" d="M367 0 L369 164 L356 164 C330 42 307 18 222 18 L132 18 L375 387 L62 387 L59 238 L72 238 C104 349 124 368 211 369 L270 369 L31 0 L367 0 Z M300 613 L204 470 C203 469 202 467 202 466 C202 465 203 463 205 463 C207 463 208 463 210 466 L369 595 C374 598 377 603 377 606 C377 611 373 613 365 613 L300 613 Z " />
<glyph glyph-name="Zdotaccent" unicode="&#x17b;" horiz-adv-x="558" d="M513 0 L532 208 L518 208 C480 54 441 13 333 18 L139 18 L532 667 L81 667 L61 464 L75 464 C109 605 146 648 231 649 L414 649 L30 24 L30 0 L513 0 Z M309 826 C282 826 259 803 259 776 C259 748 282 725 310 725 C337 725 360 748 360 775 C360 804 338 826 309 826 L309 826 Z " />
<glyph glyph-name="zdotaccent" unicode="&#x17c;" horiz-adv-x="401" d="M367 0 L369 164 L356 164 C330 42 307 18 222 18 L132 18 L375 387 L62 387 L59 238 L72 238 C104 349 124 368 211 369 L270 369 L31 0 L367 0 Z M228 586 C201 586 178 563 178 536 C178 508 201 485 229 485 C256 485 279 508 279 535 C279 564 257 586 228 586 L228 586 Z " />
<glyph glyph-name="Zcaron" unicode="&#x17d;" horiz-adv-x="558" d="M513 0 L532 208 L518 208 C480 54 441 13 333 18 L139 18 L532 667 L81 667 L61 464 L75 464 C109 605 146 648 231 649 L414 649 L30 24 L30 0 L513 0 Z M306 789 L159 838 L154 838 C150 838 149 837 149 835 C149 833 150 832 155 829 L306 720 L457 829 C462 832 463 833 463 835 C463 837 461 838 458 838 L454 838 L306 789 Z " />
<glyph glyph-name="zcaron" unicode="&#x17e;" horiz-adv-x="401" d="M367 0 L369 164 L356 164 C330 42 307 18 222 18 L132 18 L375 387 L62 387 L59 238 L72 238 C104 349 124 368 211 369 L270 369 L31 0 L367 0 Z M230 539 L97 615 C95 616 93 617 91 617 C89 617 87 616 87 614 C87 612 88 610 93 606 L230 463 L367 606 C371 610 373 612 373 614 C373 616 371 617 369 617 C368 617 366 616 364 615 L230 539 Z " />
<glyph glyph-name="florin" unicode="&#x192;" horiz-adv-x="500" d="M273 302 L360 302 L364 320 L277 320 L304 459 C331 597 367 660 419 660 C430 660 437 656 437 648 C437 645 435 642 431 640 C416 628 413 623 413 611 C413 592 428 579 448 579 C474 579 493 597 493 623 C493 656 465 677 424 677 C331 677 252 574 220 413 L202 320 L115 320 L112 302 L198 302 L134 -27 C108 -163 106 -171 94 -199 C75 -241 49 -263 18 -263 C3 -263 -7 -258 -7 -250 C-7 -247 -6 -244 -2 -237 C5 -225 7 -220 7 -213 C7 -196 -7 -183 -24 -183 C-46 -183 -63 -202 -63 -227 C-63 -259 -35 -280 9 -280 C58 -280 95 -259 131 -211 C173 -156 199 -82 226 59 L273 302 Z " />
<glyph glyph-name="uni01CD" unicode="&#x1cd;" horiz-adv-x="606" d="M366 214 L433 18 L338 18 L338 0 L610 0 L610 18 L534 18 L315 667 L288 667 L61 18 L-3 18 L-3 0 L174 0 L174 18 L86 18 L153 214 L366 214 Z M359 232 L160 232 L260 527 L359 232 Z M303 789 L156 838 L152 838 C148 838 147 837 147 835 C147 833 148 831 152 829 L303 720 L455 829 C458 831 460 833 460 835 C460 837 458 838 455 838 L451 838 L303 789 Z " />
<glyph glyph-name="uni01CE" unicode="&#x1ce;" horiz-adv-x="422" d="M270 215 C198 213 165 208 129 194 C71 171 39 131 39 82 C39 26 80 -10 144 -10 C201 -10 239 15 270 71 C278 13 299 -10 345 -10 C369 -10 380 -6 413 18 L404 30 C392 19 384 15 374 15 C354 15 347 26 347 57 L347 282 C347 324 338 348 316 366 C292 386 253 397 211 397 C133 397 65 352 65 301 C65 275 80 257 101 257 C122 257 137 274 137 297 C137 309 134 315 124 329 C119 336 117 340 117 343 C117 359 162 380 199 380 C248 380 270 359 270 315 L270 215 Z M270 167 C270 132 267 106 261 89 C247 54 214 30 180 30 C141 30 115 57 115 99 C115 132 130 158 160 176 C189 193 214 198 270 200 L270 167 Z M226 539 L93 615 C91 616 89 617 87 617 C85 617 83 616 83 614 C83 612 84 611 89 606 L226 463 L364 606 C367 609 369 612 369 614 C369 616 367 617 366 617 C364 617 362 616 360 615 L226 539 Z " />
<glyph glyph-name="uni01D3" unicode="&#x1d3;" horiz-adv-x="642" d="M200 649 L286 649 L286 667 L20 667 L20 649 L107 649 L107 249 C107 139 122 84 165 44 C202 10 266 -10 342 -10 C420 -10 475 15 509 67 C533 103 542 144 542 222 L542 649 L615 649 L615 667 L439 667 L439 649 L519 649 L519 222 C519 144 515 119 497 87 C469 37 421 10 360 10 C309 10 263 29 235 62 C207 94 200 126 200 205 L200 649 Z M350 789 L203 838 L199 838 C195 838 194 837 194 835 C194 833 195 831 199 829 L350 720 L502 829 C507 832 508 833 508 835 C508 837 506 838 502 838 L498 838 L350 789 Z " />
<glyph glyph-name="uni01D4" unicode="&#x1d4;" horiz-adv-x="511" d="M426 387 L282 387 L282 369 L349 369 L349 200 C349 141 341 91 330 69 C312 34 274 13 231 13 C178 13 162 38 162 117 L162 387 L18 387 L18 369 L85 369 L85 131 C85 80 90 54 106 33 C127 6 167 -10 217 -10 C278 -10 314 9 349 60 L349 0 L492 0 L492 18 L426 18 L426 387 Z M255 539 L122 615 C120 616 118 617 116 617 C114 617 113 616 113 614 C113 612 114 609 118 606 L255 463 L392 606 C396 609 398 612 398 614 C398 616 396 617 394 617 C392 617 391 616 389 615 L255 539 Z " />
<glyph glyph-name="Gcaron" unicode="&#x1e6;" horiz-adv-x="635" d="M531 667 L518 667 L484 625 C432 661 386 677 331 677 C263 677 197 647 145 593 C80 524 47 437 47 329 C47 235 71 161 121 95 C175 25 243 -10 325 -10 C397 -10 461 18 505 70 C535 104 547 137 558 212 L625 212 L625 230 L346 230 L346 212 L449 212 C449 153 447 129 440 105 C422 44 377 10 312 10 C244 10 198 44 177 108 C166 144 160 212 160 317 C160 431 168 522 183 563 C204 623 256 657 326 657 C422 657 487 594 518 471 L531 471 L531 667 Z M336 789 L189 838 L184 838 C180 838 179 837 179 835 C179 833 180 832 185 829 L336 720 L487 829 C492 832 493 833 493 835 C493 837 491 838 488 838 L484 838 L336 789 Z " />
<glyph glyph-name="gcaron" unicode="&#x1e7;" horiz-adv-x="437" d="M132 18 C86 18 63 30 63 54 C63 77 89 106 135 133 C162 122 184 117 212 117 C298 117 364 176 364 254 C364 290 357 312 335 343 C347 355 356 361 364 361 C372 361 377 357 378 349 C382 324 389 315 407 315 C425 315 437 329 437 352 C437 375 420 391 393 391 C370 391 354 382 323 353 C287 386 258 397 212 397 C123 397 59 339 59 258 C59 210 76 177 118 144 C112 139 112 139 105 134 C79 116 79 116 72 110 C42 82 27 53 27 20 C27 -26 51 -55 103 -69 C47 -93 27 -116 27 -157 C27 -225 103 -274 207 -274 C328 -274 412 -198 412 -88 C412 -44 399 -13 375 3 C356 15 336 18 288 18 L132 18 Z M141 288 C141 354 159 377 212 377 C267 377 281 360 281 293 L281 228 C281 156 266 137 211 137 C156 137 141 156 141 228 L141 288 Z M138 -70 L174 -70 L293 -70 C349 -70 349 -70 362 -75 C377 -80 385 -94 385 -115 C385 -191 307 -254 211 -254 C133 -254 81 -211 81 -148 C81 -118 91 -96 118 -70 L138 -70 Z M225 539 L91 615 C89 616 87 617 86 617 C84 617 82 616 82 614 C82 612 84 610 87 606 L225 463 L362 606 C367 610 368 612 368 614 C368 616 366 617 364 617 C362 617 360 616 358 615 L225 539 Z " />
<glyph glyph-name="Scommaaccent" unicode="&#x218;" horiz-adv-x="502" d="M416 676 L402 676 L371 633 C328 663 288 677 243 677 C140 677 61 591 61 479 C61 389 106 337 205 310 L282 290 C370 266 405 229 405 157 C405 70 346 10 259 10 C197 10 140 42 105 96 C85 126 76 152 68 207 L48 207 L55 0 L68 0 L103 56 C156 8 197 -10 257 -10 C373 -10 453 82 453 216 C453 322 405 381 295 409 L242 423 C144 448 108 478 108 535 C108 603 165 657 238 657 C291 657 337 634 366 593 C383 569 391 547 397 503 L417 503 L416 676 Z M266 -106 C280 -116 287 -131 287 -153 C287 -184 272 -210 227 -254 L239 -266 C287 -225 311 -183 311 -141 C311 -91 280 -54 239 -54 C204 -54 178 -79 178 -112 C178 -143 196 -163 224 -163 C248 -163 266 -145 266 -119 L266 -106 Z " />
<glyph glyph-name="scommaaccent" unicode="&#x219;" horiz-adv-x="356" d="M300 395 L287 395 L273 359 C238 387 211 397 176 397 C106 397 56 347 56 277 C56 217 90 175 149 164 L226 148 C269 140 290 120 290 88 C290 45 249 10 199 10 C157 10 121 31 96 71 C83 92 77 108 69 148 L52 148 L52 0 L62 0 L85 38 C127 1 154 -10 195 -10 C269 -10 321 45 321 122 C321 193 286 232 208 248 L163 257 C106 268 86 282 86 307 C86 346 124 377 171 377 C230 377 271 341 283 280 L300 280 L300 395 Z M182 -255 C227 -216 250 -176 250 -136 C250 -89 221 -54 182 -54 C149 -54 125 -77 125 -110 C125 -139 142 -158 168 -158 C192 -158 208 -141 208 -116 C208 -112 208 -108 207 -103 C222 -113 228 -127 228 -148 C228 -178 213 -202 171 -243 L182 -255 Z " />
<glyph glyph-name="uni021A" unicode="&#x21a;" horiz-adv-x="583" d="M337 649 L387 649 C477 648 516 604 556 457 L569 459 L556 667 L20 667 L13 459 L26 457 C39 517 51 551 73 587 C107 638 129 649 196 649 L244 649 L244 18 L144 18 L144 0 L437 0 L437 18 L337 18 L337 649 Z M280 -266 C327 -226 351 -183 351 -141 C351 -91 320 -54 279 -54 C244 -54 219 -79 219 -112 C219 -143 237 -163 265 -163 C289 -163 307 -145 307 -119 C307 -116 307 -111 306 -106 C320 -116 327 -131 327 -153 C327 -184 312 -210 267 -254 L280 -266 Z " />
<glyph glyph-name="uni021B" unicode="&#x21b;" horiz-adv-x="289" d="M162 369 L268 369 L268 387 L162 387 L162 546 L152 546 C133 479 71 403 20 384 L20 369 L85 369 L85 107 C85 61 89 43 104 24 C122 2 150 -10 186 -10 C245 -10 278 17 289 74 L269 74 C261 36 244 20 212 20 C176 20 162 39 162 85 L162 369 Z M189 -103 C203 -113 210 -127 210 -148 C210 -178 195 -203 152 -243 L164 -255 C209 -217 232 -176 232 -136 C232 -89 202 -54 163 -54 C130 -54 106 -77 106 -110 C106 -139 123 -158 149 -158 C173 -158 190 -141 190 -116 L189 -103 Z " />
<glyph glyph-name="circumflex" unicode="&#x2c6;" horiz-adv-x="500" d="M250 541 L384 465 C386 464 388 463 389 463 C391 463 393 464 393 466 C393 468 391 471 388 474 L250 617 L113 474 C110 471 108 468 108 466 C108 464 110 463 111 463 C113 463 115 464 117 465 L250 541 Z " />
<glyph glyph-name="caron" unicode="&#x2c7;" horiz-adv-x="500" d="M250 539 L117 615 C115 616 113 617 111 617 C109 617 107 616 107 614 C107 612 108 611 113 606 L250 463 L388 606 C391 609 393 612 393 614 C393 616 391 617 390 617 C388 617 386 616 384 615 L250 539 Z " />
<glyph glyph-name="uni02C9" unicode="&#x2c9;" horiz-adv-x="512" d="M379 499 L379 523 L133 523 L133 499 L379 499 Z " />
<glyph glyph-name="breve" unicode="&#x2d8;" horiz-adv-x="500" d="M370 610 C361 576 352 559 334 545 C316 531 282 521 250 521 C218 521 184 531 165 545 C148 559 139 575 129 610 L118 610 C129 524 181 467 250 467 C318 467 370 523 381 610 L370 610 Z " />
<glyph glyph-name="dotaccent" unicode="&#x2d9;" horiz-adv-x="500" d="M249 586 C222 586 199 563 199 536 C199 508 222 485 250 485 C277 485 300 508 300 535 C300 564 278 586 249 586 L249 586 Z " />
<glyph glyph-name="ring" unicode="&#x2da;" horiz-adv-x="500" d="M250 615 C207 615 174 581 174 538 C174 496 207 463 250 463 C292 463 325 496 325 537 C325 581 292 615 250 615 L250 615 Z M250 588 C275 588 297 565 297 539 C297 513 275 490 249 490 C224 490 202 513 202 539 C202 565 224 588 250 588 L250 588 Z " />
<glyph glyph-name="ogonek" unicode="&#x2db;" horiz-adv-x="500" d="M381 0 C316 -26 287 -56 287 -95 C287 -134 317 -159 366 -159 C397 -159 415 -154 445 -138 L445 -124 C425 -132 413 -134 397 -134 C358 -134 339 -118 339 -86 C339 -53 359 -27 407 0 L381 0 Z " />
<glyph glyph-name="tilde" unicode="&#x2dc;" horiz-adv-x="500" d="M390 572 C374 550 358 541 334 541 C320 541 301 544 288 549 L249 563 C228 571 216 573 199 573 C153 573 127 553 100 499 L109 493 C125 515 143 524 172 524 C185 524 203 521 219 515 L257 502 C276 495 291 492 303 492 C341 492 366 512 399 567 L390 572 Z " />
<glyph glyph-name="hungarumlaut" unicode="&#x2dd;" horiz-adv-x="500" d="M384 613 L289 470 C288 469 287 467 287 466 C287 464 288 463 290 463 C292 463 294 464 296 466 L447 595 C452 599 455 603 455 606 C455 611 451 613 443 613 L384 613 Z M247 613 L152 470 C151 469 150 467 150 466 C150 464 151 463 153 463 C155 463 157 464 159 466 L310 595 C315 599 318 603 318 606 C318 611 314 613 306 613 L247 613 Z " />
<glyph glyph-name="Wdieresis" unicode="&#x1e84;" horiz-adv-x="784" d="M562 143 L456 431 L534 649 L589 649 L589 667 L-10 667 L-10 649 L49 649 L282 -10 L300 -10 L410 292 L517 -10 L535 -10 L743 649 L797 649 L797 667 L629 667 L629 649 L720 649 L562 143 Z M150 649 L279 649 L397 325 L329 135 L150 649 Z M377 649 L510 649 L444 467 L377 649 Z M312 824 C286 824 264 802 264 776 C264 749 286 727 313 727 C339 727 361 749 361 775 C361 802 340 824 312 824 L312 824 Z M523 824 C497 824 475 802 475 776 C475 749 497 727 524 727 C550 727 572 749 572 775 C572 802 551 824 523 824 L523 824 Z " />
<glyph glyph-name="uni2011" unicode="&#x2011;" horiz-adv-x="189" d="M189 230 L0 230 L0 170 L189 170 L189 230 Z " />
<glyph glyph-name="figuredash" unicode="&#x2012;" horiz-adv-x="500" d="M459 230 L42 230 L42 170 L459 170 L459 230 Z " />
<glyph glyph-name="endash" unicode="&#x2013;" horiz-adv-x="500" d="M459 230 L42 230 L42 170 L459 170 L459 230 Z " />
<glyph glyph-name="emdash" unicode="&#x2014;" horiz-adv-x="567" d="M567 230 L0 230 L0 170 L567 170 L567 230 Z " />
<glyph glyph-name="afii00208" unicode="&#x2015;" horiz-adv-x="567" d="M567 230 L0 230 L0 170 L567 170 L567 230 Z " />
<glyph glyph-name="quoteleft" unicode="&#x2018;" horiz-adv-x="251" d="M145 687 C85 634 53 578 53 523 C53 466 89 423 136 423 C172 423 197 449 197 487 C197 520 179 542 151 542 C127 542 109 522 109 494 C109 491 109 485 110 479 C86 492 76 510 76 538 C76 579 99 618 157 675 L145 687 Z " />
<glyph glyph-name="quoteright" unicode="&#x2019;" horiz-adv-x="251" d="M105 413 C165 466 197 522 197 577 C197 634 161 677 114 677 C78 677 53 651 53 613 C53 580 71 558 99 558 C123 558 141 578 141 606 C141 610 141 615 140 621 C164 609 174 591 174 562 C174 521 151 483 93 425 L105 413 Z " />
<glyph glyph-name="quotesinglbase" unicode="&#x201a;" horiz-adv-x="251" d="M105 -152 C165 -99 197 -43 197 12 C197 69 161 112 114 112 C78 112 53 86 53 48 C53 15 71 -7 99 -7 C123 -7 141 13 141 41 C141 45 141 50 140 56 C164 44 174 26 174 -3 C174 -44 151 -82 93 -140 L105 -152 Z " />
<glyph glyph-name="quotedblleft" unicode="&#x201c;" horiz-adv-x="464" d="M358 687 C298 634 266 578 266 523 C266 466 302 423 349 423 C385 423 410 449 410 487 C410 520 392 542 364 542 C340 542 322 522 322 494 C322 491 322 485 323 479 C299 491 289 510 289 538 C289 579 312 618 370 675 L358 687 Z M145 687 C85 634 53 578 53 523 C53 466 89 423 136 423 C172 423 197 449 197 487 C197 520 179 542 151 542 C127 542 109 522 109 494 C109 491 109 485 110 479 C86 492 76 510 76 538 C76 579 99 618 157 675 L145 687 Z " />
<glyph glyph-name="quotedblright" unicode="&#x201d;" horiz-adv-x="464" d="M105 413 C165 466 197 522 197 577 C197 634 161 677 114 677 C78 677 53 651 53 613 C53 580 71 558 99 558 C123 558 141 578 141 606 C141 610 141 615 140 621 C164 609 174 591 174 562 C174 521 151 483 93 425 L105 413 Z M318 413 C378 466 410 522 410 577 C410 634 374 677 327 677 C291 677 266 651 266 613 C266 580 284 558 312 558 C336 558 354 578 354 606 C354 609 354 615 353 621 C377 609 387 591 387 562 C387 521 364 482 306 425 L318 413 Z " />
<glyph glyph-name="quotedblbase" unicode="&#x201e;" horiz-adv-x="464" d="M105 -152 C165 -99 197 -43 197 12 C197 69 161 112 114 112 C78 112 53 86 53 48 C53 15 71 -7 99 -7 C123 -7 141 13 141 41 C141 45 141 50 140 56 C164 44 174 26 174 -3 C174 -44 151 -82 93 -140 L105 -152 Z M318 -152 C378 -99 410 -43 410 12 C410 69 374 112 327 112 C291 112 266 86 266 48 C266 15 284 -7 312 -7 C336 -7 354 13 354 41 C354 44 354 50 353 56 C377 44 387 26 387 -3 C387 -44 364 -83 306 -140 L318 -152 Z " />
<glyph glyph-name="dagger" unicode="&#x2020;" horiz-adv-x="500" d="M258 376 L426 339 C431 337 436 337 444 337 C477 337 499 356 499 383 C499 410 476 429 444 429 C437 429 432 428 426 427 L258 388 L289 531 C294 553 298 587 298 607 C298 655 283 677 250 677 C217 677 202 654 202 607 C202 588 206 551 211 531 L242 388 L74 427 C68 428 63 429 56 429 C23 429 1 410 1 383 C1 356 23 337 56 337 C64 337 69 337 74 339 L242 376 L209 17 C201 -48 200 -59 200 -96 C200 -156 218 -190 250 -190 C282 -190 300 -156 300 -96 C300 -59 299 -48 291 17 L258 376 Z " />
<glyph glyph-name="daggerdbl" unicode="&#x2021;" horiz-adv-x="500" d="M242 407 L74 446 C69 448 64 448 56 448 C23 448 1 429 1 402 C1 375 23 356 56 356 C62 356 68 357 74 358 L242 395 C241 364 227 294 214 255 C225 210 228 193 242 109 L74 148 C68 149 62 150 56 150 C23 150 1 131 1 103 C1 76 23 57 56 57 C60 57 67 58 74 59 L242 96 L214 -43 C202 -102 202 -102 202 -121 C202 -167 218 -190 250 -190 C282 -190 298 -167 298 -122 C298 -104 298 -104 286 -43 L258 96 L426 59 C433 58 440 57 444 57 C477 57 499 76 499 103 C499 131 476 150 444 150 C438 150 432 149 426 148 L259 109 C273 197 275 209 286 255 C271 301 262 346 257 395 L426 358 C432 357 438 356 444 356 C477 356 499 375 499 402 C499 429 476 448 444 448 C436 448 431 448 426 446 L258 407 L286 531 C295 572 298 590 298 609 C298 654 282 677 250 677 C218 677 202 654 202 609 C202 592 206 568 214 531 L242 407 Z " />
<glyph glyph-name="bullet" unicode="&#x2022;" horiz-adv-x="667" d="M335 479 C257 479 196 418 196 339 C196 262 258 200 334 200 C410 200 471 262 471 340 C471 416 410 479 335 479 L335 479 Z " />
<glyph glyph-name="ellipsis" unicode="&#x2026;" horiz-adv-x="740" d="M123 106 C92 106 67 80 67 49 C67 18 92 -7 124 -7 C154 -7 180 18 180 49 C180 81 155 106 123 106 L123 106 Z M370 106 C339 106 314 80 314 49 C314 18 339 -7 371 -7 C401 -7 427 18 427 49 C427 81 402 106 370 106 L370 106 Z M616 106 C585 106 560 80 560 49 C560 18 585 -7 617 -7 C647 -7 673 18 673 49 C673 81 648 106 616 106 L616 106 Z " />
<glyph glyph-name="perthousand" unicode="&#x2030;" horiz-adv-x="1007" d="M164 653 C91 653 28 576 28 487 C28 397 91 320 164 320 C236 320 299 397 299 485 C299 576 237 653 164 653 L164 653 Z M97 521 C97 606 114 635 164 635 C213 635 230 606 230 521 L230 451 C230 367 213 338 164 338 C114 338 97 367 97 451 L97 521 Z M508 647 L479 647 L178 0 L208 0 L508 647 Z M524 327 C451 327 388 250 388 161 C388 71 451 -6 524 -6 C596 -6 659 71 659 159 C659 250 597 327 524 327 L524 327 Z M457 196 C457 280 474 309 524 309 C573 309 590 280 590 196 L590 126 C590 41 573 12 524 12 C474 12 457 41 457 126 L457 196 Z M844 327 C771 327 708 250 708 161 C708 71 771 -6 844 -6 C916 -6 979 71 979 159 C979 250 917 327 844 327 L844 327 Z M777 196 C777 280 794 309 844 309 C893 309 910 280 910 196 L910 126 C910 41 893 12 844 12 C794 12 777 41 777 126 L777 196 Z " />
<glyph glyph-name="guilsinglleft" unicode="&#x2039;" horiz-adv-x="261" d="M47 200 L158 96 L208 96 L98 200 L208 304 L158 304 L47 200 Z " />
<glyph glyph-name="guilsinglright" unicode="&#x203a;" horiz-adv-x="261" d="M214 200 L103 304 L53 304 L164 200 L53 96 L103 96 L214 200 Z " />
<glyph glyph-name="uni203E" unicode="&#x203e;" horiz-adv-x="500" d="M0 847 L0 807 L500 807 L500 847 L0 847 Z " />
<glyph glyph-name="fraction" unicode="&#x2044;" horiz-adv-x="114" d="M224 647 L190 647 L-110 0 L-76 0 L224 647 Z " />
<glyph glyph-name="franc" unicode="&#x20a3;" horiz-adv-x="670" d="M507 667 L33 667 L33 649 L120 649 L120 18 L33 18 L33 0 L306 0 L306 18 L213 18 L213 329 L262 329 C341 330 370 304 374 227 L374 205 L388 205 L388 475 L374 475 L374 457 C370 364 351 345 263 347 L213 347 L213 649 L325 649 C436 653 486 605 507 475 L520 475 L507 667 Z M555 347 L425 347 L425 329 L486 329 L486 18 L425 18 L425 0 L615 0 L615 18 L555 18 L555 119 C555 193 558 219 573 260 C588 301 605 323 623 323 C631 323 635 318 635 308 C636 278 647 263 668 263 C688 263 703 281 703 308 C703 337 682 356 652 356 C608 356 582 330 555 257 L555 347 Z " />
<glyph glyph-name="Euro" unicode="&#x20ac;" horiz-adv-x="586" d="M156 380 C157 436 159 476 164 513 C177 604 238 657 331 657 C385 657 433 637 470 599 C498 570 511 545 525 494 L538 494 L538 667 L525 667 L492 617 C434 661 391 677 331 677 C184 677 65 553 44 380 L-3 380 L-13 350 L42 350 L42 327 L42 315 L-3 315 L-13 285 L44 285 C60 118 183 -10 324 -10 C382 -10 427 6 492 50 L525 0 L538 0 L538 185 L525 185 C505 133 493 109 474 85 C437 37 384 10 326 10 C242 10 178 61 165 137 C158 173 155 223 155 285 L397 285 L408 315 L155 315 L155 318 L155 332 L155 350 L422 350 L433 380 L156 380 Z " />
<glyph glyph-name="trademark" unicode="&#x2122;" horiz-adv-x="818" d="M213 649 L238 649 C289 648 309 625 333 542 L348 544 L340 667 L22 667 L17 544 L32 542 C49 622 77 653 127 649 L151 649 L151 305 L93 305 L93 287 L271 287 L271 305 L213 305 L213 649 Z M540 287 L557 287 L666 625 L666 305 L616 305 L616 287 L778 287 L778 305 L728 305 L728 649 L778 649 L778 667 L659 667 L572 397 L485 667 L362 667 L362 649 L408 649 L408 305 L362 305 L362 287 L480 287 L480 305 L430 305 L430 628 L540 287 Z " />
<glyph glyph-name="uni2126" unicode="&#x2126;" horiz-adv-x="768" d="M326 0 L308 155 C230 199 180 288 180 382 C180 434 195 493 221 540 C257 605 317 642 385 642 C453 642 513 605 549 540 C575 493 590 434 590 382 C590 288 540 199 462 155 L444 0 L736 0 L736 153 L712 153 C704 108 684 90 643 90 L497 90 L500 128 C535 141 557 151 580 166 C657 215 702 296 702 382 C702 449 673 522 625 578 C564 648 480 686 385 686 C290 686 206 648 145 578 C97 522 68 449 68 382 C68 296 113 215 190 166 C213 151 235 141 270 128 L273 90 L127 90 C86 90 66 108 58 153 L34 153 L34 0 L326 0 Z " />
<glyph glyph-name="partialdiff" unicode="&#x2202;" horiz-adv-x="494" d="M107 674 C151 697 184 706 219 706 C321 706 379 611 379 448 C379 418 377 395 372 346 C308 396 272 412 221 412 C172 412 131 394 95 355 C51 309 26 246 26 184 C26 76 109 -10 213 -10 C282 -10 341 22 383 84 C429 152 462 286 462 403 C462 519 428 611 360 681 C312 730 259 753 195 753 C156 753 121 746 66 725 L107 674 Z M366 312 C350 201 340 158 314 107 C288 54 245 21 201 21 C146 21 113 73 113 159 C113 273 180 367 261 367 C299 367 324 354 366 312 L366 312 Z " />
<glyph glyph-name="Delta" unicode="&#x2206;" horiz-adv-x="612" d="M6 0 L608 0 L327 688 L6 0 Z M77 51 L290 509 L479 51 L77 51 Z " />
<glyph glyph-name="product" unicode="&#x220f;" horiz-adv-x="823" d="M25 -124 L315 -124 L315 -98 L312 -98 C242 -94 221 -67 224 18 L224 594 C224 656 228 677 242 690 C260 707 272 708 413 708 C556 708 568 707 586 690 C600 677 604 656 604 594 L604 18 C607 -67 586 -94 516 -98 L513 -98 L513 -124 L803 -124 L803 -98 L800 -98 C730 -94 709 -67 712 18 L712 609 C709 694 730 721 800 725 L803 725 L803 751 L25 751 L25 725 L28 725 C98 721 119 694 116 609 L116 18 C119 -67 98 -94 28 -98 L25 -98 L25 -124 Z " />
<glyph glyph-name="summation" unicode="&#x2211;" horiz-adv-x="713" d="M176 711 L444 711 C560 710 590 688 606 587 L632 587 L622 752 L23 752 L256 285 L14 -123 L641 -123 L695 87 L669 87 C639 7 605 -12 491 -11 L163 -11 L364 341 L176 711 Z " />
<glyph glyph-name="minus" unicode="&#x2212;" horiz-adv-x="500" d="M449 339 L51 339 L51 309 L449 309 L449 339 Z " />
<glyph glyph-name="uni2215" unicode="&#x2215;" horiz-adv-x="114" d="M224 647 L190 647 L-110 0 L-76 0 L224 647 Z " />
<glyph glyph-name="uni2219" unicode="&#x2219;" horiz-adv-x="247" d="M123 256 C92 256 67 231 67 199 C67 168 92 143 124 143 C154 143 180 168 180 199 C180 231 155 256 123 256 L123 256 Z " />
<glyph glyph-name="radical" unicode="&#x221a;" horiz-adv-x="549" d="M363 -35 L515 908 L480 913 L353 123 L156 520 L10 449 L26 414 L121 461 L363 -35 Z " />
<glyph glyph-name="infinity" unicode="&#x221e;" horiz-adv-x="713" d="M357 227 C415 156 485 115 548 115 C631 115 688 176 688 266 C688 354 629 414 543 414 C476 414 412 376 357 303 C300 375 234 414 171 414 C86 414 26 351 26 263 C26 176 84 115 167 115 C224 115 281 142 327 192 L357 227 Z M391 264 C434 325 493 362 546 362 C600 362 638 321 638 264 C638 205 603 167 549 167 C495 167 461 188 391 264 L391 264 Z M324 266 C275 203 216 167 163 167 C111 167 76 207 76 266 C76 323 113 362 167 362 C218 362 258 337 324 266 L324 266 Z " />
<glyph glyph-name="integral" unicode="&#x222b;" horiz-adv-x="274" d="M180 576 C180 653 179 691 176 746 C174 774 173 800 173 815 C173 855 184 878 202 878 C208 878 213 876 215 872 C232 845 239 839 256 839 C276 839 291 853 291 871 C291 898 267 916 231 916 C186 916 152 887 138 838 C123 784 113 682 113 577 L113 232 C113 160 114 124 117 63 C119 34 120 4 120 -12 C120 -47 108 -70 89 -70 C81 -70 74 -65 68 -52 C59 -35 51 -30 37 -30 C17 -30 2 -44 2 -63 C2 -89 26 -107 62 -107 C107 -107 141 -78 155 -29 C170 25 180 126 180 232 L180 576 Z " />
<glyph glyph-name="approxequal" unicode="&#x2248;" horiz-adv-x="549" d="M489 251 C444 199 423 187 384 187 C365 187 354 190 285 211 C212 234 188 239 160 239 C101 239 54 211 14 155 L57 121 C103 174 120 184 159 184 C180 184 180 184 271 157 C350 133 354 132 385 132 C449 132 496 160 527 217 L489 251 Z M489 408 C444 356 423 344 384 344 C365 344 354 347 285 369 C212 392 188 397 160 397 C101 397 54 369 14 312 L57 279 C104 332 119 342 159 342 C181 342 181 342 271 315 C351 290 354 289 385 289 C449 289 496 318 527 375 L489 408 Z " />
<glyph glyph-name="notequal" unicode="&#x2260;" horiz-adv-x="549" d="M187 142 L115 -1 L161 -25 L246 142 L540 142 L540 197 L273 197 L344 336 L540 336 L540 391 L371 391 L439 525 L392 549 L312 391 L15 391 L15 336 L285 336 L215 197 L15 197 L15 142 L187 142 Z " />
<glyph glyph-name="lessequal" unicode="&#x2264;" horiz-adv-x="500" d="M455 41 L45 41 L45 0 L455 0 L455 41 Z M455 621 L45 386 L45 376 L455 138 L455 193 L109 395 L455 595 L455 621 Z " />
<glyph glyph-name="greaterequal" unicode="&#x2265;" horiz-adv-x="500" d="M455 41 L45 41 L45 0 L455 0 L455 41 Z M45 621 L45 595 L391 395 L45 193 L45 138 L455 376 L455 386 L45 621 Z " />
<glyph glyph-name="lozenge" unicode="&#x25ca;" horiz-adv-x="494" d="M209 0 L269 -1 L466 374 L277 740 L214 740 L18 377 L209 0 Z M240 58 L81 376 L245 683 L402 373 L240 58 Z " />
<glyph glyph-name="fi" unicode="&#xfb01;" horiz-adv-x="521" d="M180 387 L180 540 C180 622 216 663 290 663 C323 663 348 657 370 644 C355 630 349 616 349 596 C349 566 370 544 399 544 C426 544 446 565 446 594 C446 644 383 682 299 682 C235 682 179 659 143 618 C115 587 103 549 103 495 L103 387 L16 387 L16 369 L103 369 L103 18 L16 18 L16 0 L247 0 L247 18 L180 18 L180 369 L360 369 L360 18 L293 18 L293 0 L504 0 L504 18 L437 18 L437 387 L180 387 Z " />
<glyph glyph-name="fl" unicode="&#xfb02;" horiz-adv-x="521" d="M437 18 L437 680 L360 671 C330 680 317 682 292 682 C174 682 103 612 103 495 L103 387 L16 387 L16 369 L103 369 L103 18 L16 18 L16 0 L247 0 L247 18 L180 18 L180 369 L275 369 L275 387 L180 387 L180 540 C180 622 213 663 279 663 C307 663 330 654 344 637 C356 621 360 602 360 549 L360 18 L293 18 L293 0 L514 0 L514 18 L437 18 Z " />
</font>
</svg>
