<?xml version="1.0" encoding="UTF-8"?>
<svg xmlns="http://www.w3.org/2000/svg" xmlns:xlink="http://www.w3.org/1999/xlink" version="1.2" >
<font id="Baskerville URW Extra Wide">
<font-face  font-family="Baskerville URW Extra Wide" units-per-em="1000" ascent="677" descent="-323" font-style="normal" font-weight="400" font-stretch="normal" cap-height="667" x-height="403" underline-position="-88" underline-thickness="42" />
<missing-glyph  horiz-adv-x="250" d="" />
<glyph glyph-name="NULL" d="" />
<glyph glyph-name="CR" unicode="&#xd;" horiz-adv-x="250" d="" />
<glyph glyph-name="space" unicode="&#x20;" horiz-adv-x="250" d="" />
<glyph glyph-name="exclam" unicode="&#x21;" horiz-adv-x="242" d="M121 190 L153 539 C157 575 158 586 158 598 C158 635 138 661 110 661 C82 661 62 635 62 600 C62 585 63 574 66 539 L98 190 L121 190 Z M109 90 C77 90 51 66 51 38 C51 8 77 -16 109 -16 C141 -16 167 8 167 37 C167 66 141 90 109 90 L109 90 Z " />
<glyph glyph-name="quotedbl" unicode="&#x22;" horiz-adv-x="363" d="M118 399 L141 667 L58 667 L81 399 L118 399 Z M282 399 L305 667 L222 667 L244 399 L282 399 Z " />
<glyph glyph-name="numbersign" unicode="&#x23;" horiz-adv-x="651" d="M433 229 L559 229 L566 264 L443 264 L472 416 L598 416 L604 451 L481 451 L527 667 L485 667 L440 451 L270 451 L316 667 L275 667 L229 451 L97 451 L91 416 L220 416 L190 264 L58 264 L52 229 L181 229 L133 0 L174 0 L223 229 L392 229 L344 0 L385 0 L433 229 Z M402 264 L232 264 L261 416 L431 416 L402 264 Z " />
<glyph glyph-name="dollar" unicode="&#x24;" horiz-adv-x="554" d="M260 -103 L283 -103 L283 -15 C415 -3 497 69 497 174 C497 223 479 264 444 295 C412 323 385 337 306 366 C298 368 291 371 283 374 L283 638 C356 632 402 599 409 549 C416 517 416 516 423 508 C428 500 440 494 450 494 C468 494 481 509 481 528 C481 563 444 607 395 630 C361 646 326 655 283 657 L283 685 L259 685 L259 657 C141 651 64 587 64 495 C64 439 94 388 147 357 C172 343 185 337 259 308 L260 6 C187 8 141 36 127 88 C121 111 121 111 117 117 C110 126 99 132 89 132 C71 132 57 117 57 98 C57 70 92 33 139 10 C174 -7 213 -15 260 -16 L260 -103 Z M283 298 L292 294 C369 264 376 261 392 251 C428 228 447 194 447 152 C447 98 419 58 363 29 C333 14 312 8 283 6 L283 298 Z M259 384 L252 387 C190 410 178 415 160 427 C124 451 108 478 108 514 C108 586 164 632 259 637 L259 384 Z " />
<glyph glyph-name="percent" unicode="&#x25;" horiz-adv-x="731" d="M176 680 C138 680 105 667 81 644 C49 611 29 559 29 505 C29 401 84 336 173 336 C265 336 322 402 322 509 C322 614 266 680 176 680 L176 680 Z M176 660 C233 660 254 619 254 512 C254 399 230 350 175 350 C144 350 117 369 108 398 C101 421 97 459 97 515 C97 617 121 660 176 660 L176 660 Z M193 0 L570 644 L537 644 L160 0 L193 0 Z M555 331 C517 331 483 319 460 296 C428 264 408 212 408 158 C408 55 463 -10 552 -10 C644 -10 701 56 701 162 C701 267 645 331 555 331 L555 331 Z M555 314 C611 314 633 273 633 166 C633 56 609 8 554 8 C523 8 496 27 487 55 C480 77 476 114 476 169 C476 271 500 314 555 314 L555 314 Z " />
<glyph glyph-name="ampersand" unicode="&#x26;" horiz-adv-x="773" d="M472 403 L472 380 C527 375 556 352 556 315 C556 279 528 216 490 168 C410 272 397 288 308 397 C420 450 464 492 464 545 C464 605 396 653 312 653 C228 653 160 594 160 520 C160 479 182 429 223 376 C81 290 44 247 44 167 C44 65 135 -16 250 -16 C321 -16 387 15 451 80 C508 15 567 -16 636 -16 C703 -16 754 18 771 74 L746 74 C729 46 700 30 668 30 C611 30 578 54 506 146 C520 161 540 195 554 225 C595 323 633 362 704 380 L704 403 L472 403 Z M239 356 C303 278 337 234 435 100 C392 57 342 33 293 33 C204 33 114 118 114 202 C114 257 158 312 239 356 L239 356 Z M295 416 C251 479 236 512 236 547 C236 595 269 629 314 629 C361 629 393 593 393 540 C393 494 364 457 295 416 L295 416 Z " />
<glyph glyph-name="quotesingle" unicode="&#x27;" horiz-adv-x="209" d="M125 399 L148 667 L62 667 L85 399 L125 399 Z " />
<glyph glyph-name="parenleft" unicode="&#x28;" horiz-adv-x="265" d="M271 -240 C156 -134 84 44 84 224 C84 331 108 433 155 522 C187 584 227 639 265 673 L228 673 C199 644 170 603 140 552 C82 451 53 341 53 224 C53 54 117 -111 233 -240 L271 -240 Z " />
<glyph glyph-name="parenright" unicode="&#x29;" horiz-adv-x="265" d="M31 -240 C148 -111 212 54 212 224 C212 333 185 440 135 533 C104 590 69 641 37 673 L0 673 C35 641 69 597 100 542 C154 446 181 339 181 224 C181 44 108 -136 -6 -240 L31 -240 Z " />
<glyph glyph-name="asterisk" unicode="&#x2a;" horiz-adv-x="461" d="M240 450 C259 437 286 415 312 387 C345 354 370 340 394 340 C418 340 436 355 436 375 C436 406 405 427 346 437 C293 445 274 450 248 462 C277 475 314 486 352 492 C389 499 396 501 410 509 C427 519 436 533 436 550 C436 572 418 587 394 587 C369 587 348 574 312 536 C284 506 269 493 240 474 C241 501 248 535 256 555 C273 598 276 608 276 621 C276 649 256 671 229 671 C204 671 186 650 186 621 C186 608 188 599 196 577 C213 530 217 517 224 474 C221 476 219 478 218 479 C216 480 210 486 200 495 C193 502 187 507 180 513 C170 522 160 531 159 532 C116 577 102 586 76 586 C53 586 33 569 33 549 C33 535 41 522 56 512 C72 501 79 498 118 492 C158 485 180 478 217 462 C201 452 164 442 119 436 C59 427 31 408 31 377 C31 355 49 340 77 340 C101 340 116 349 142 378 C177 417 195 432 224 450 C220 414 214 389 201 358 C188 322 187 320 187 306 C187 278 207 256 232 256 C258 256 277 278 277 307 C277 317 275 326 269 339 C250 383 245 403 241 441 L240 450 Z " />
<glyph glyph-name="plus" unicode="&#x2b;" horiz-adv-x="550" d="M25 362 L25 320 L253 320 L253 127 L297 127 L297 320 L524 320 L524 362 L297 362 L297 554 L253 554 L253 362 L25 362 Z " />
<glyph glyph-name="comma" unicode="&#x2c;" horiz-adv-x="277" d="M60 -192 C153 -170 215 -101 215 -19 C215 43 178 90 129 90 C96 90 73 68 73 38 C73 10 97 -10 130 -10 C135 -10 139 -10 142 -9 C156 -4 156 -4 161 -4 C175 -3 184 -17 184 -37 C184 -94 133 -147 60 -167 L60 -192 Z " />
<glyph glyph-name="hyphen" unicode="&#x2d;" horiz-adv-x="346" d="M39 233 L39 186 L304 186 L304 233 L39 233 Z " />
<glyph glyph-name="period" unicode="&#x2e;" horiz-adv-x="277" d="M138 90 C106 90 80 66 80 38 C80 8 106 -16 138 -16 C170 -16 196 8 196 37 C196 66 170 90 138 90 L138 90 Z " />
<glyph glyph-name="slash" unicode="&#x2f;" horiz-adv-x="288" d="M24 -225 L234 655 L200 655 L-12 -225 L24 -225 Z " />
<glyph glyph-name="zero" unicode="0" horiz-adv-x="554" d="M279 661 C140 661 47 527 47 327 C47 222 65 148 106 84 C149 17 207 -16 279 -16 C420 -16 511 117 511 323 C511 528 420 661 279 661 L279 661 Z M279 637 C343 637 391 601 408 541 C423 490 429 426 429 323 C429 219 423 154 408 104 C390 43 343 8 279 8 C215 8 168 43 150 104 C135 154 129 219 129 326 C129 425 135 492 150 541 C168 602 215 637 279 637 L279 637 Z " />
<glyph glyph-name="one" unicode="1" horiz-adv-x="554" d="M294 661 C271 641 212 626 158 627 L158 604 L182 604 C249 602 252 597 250 489 L250 138 L250 107 C250 90 250 79 249 75 C249 57 247 50 242 42 C232 27 216 22 182 23 L163 23 L163 0 L406 0 L406 23 L384 23 C317 24 314 30 316 138 L316 661 L294 661 Z " />
<glyph glyph-name="two" unicode="2" horiz-adv-x="554" d="M63 0 L381 0 C423 0 427 -2 427 -19 C427 -24 425 -33 423 -43 L421 -51 L447 -51 L478 59 L134 59 C170 87 244 151 307 209 C450 340 486 395 486 478 C486 536 464 583 421 615 C381 645 329 661 275 661 C160 661 69 589 69 498 C69 448 102 391 131 391 C147 391 180 418 180 430 C180 436 179 437 162 446 C132 464 115 491 115 521 C115 585 174 635 250 635 C347 635 404 575 404 473 C404 396 368 324 283 232 C209 151 127 76 63 30 L63 0 Z " />
<glyph glyph-name="three" unicode="3" horiz-adv-x="554" d="M284 358 C293 364 293 364 308 373 C373 413 373 413 383 421 C439 462 464 499 464 541 C464 611 389 661 286 661 C232 661 187 648 152 623 C116 597 93 555 93 517 C93 481 117 444 139 444 C154 444 183 458 183 465 C183 467 181 469 179 472 C149 496 142 509 142 537 C142 593 200 638 272 638 C340 638 382 598 382 532 C382 491 367 454 339 427 C318 406 291 387 237 355 C186 325 179 319 179 309 C179 300 186 293 196 293 C201 293 206 295 212 300 C250 333 266 341 297 341 C364 341 407 282 407 192 C407 74 350 6 251 6 C200 6 167 27 152 69 C141 103 132 111 109 111 C89 111 73 96 73 77 C73 29 158 -16 249 -16 C390 -16 489 69 489 189 C489 292 420 362 318 362 C306 362 299 361 284 358 L284 358 Z " />
<glyph glyph-name="four" unicode="4" horiz-adv-x="554" d="M306 221 L306 138 C305 100 305 79 305 75 C304 56 303 50 298 42 C288 27 272 22 237 23 L218 23 L218 0 L454 0 L454 23 L444 23 C377 24 374 30 376 138 L376 221 L519 221 L531 298 L507 298 L503 287 C488 251 487 250 428 251 L376 251 L376 661 L345 661 L36 251 L36 221 L306 221 Z M306 251 L66 251 L306 564 L306 251 Z " />
<glyph glyph-name="five" unicode="5" horiz-adv-x="554" d="M146 338 C173 384 217 410 266 410 C295 410 322 400 345 382 C384 351 401 301 401 221 C401 147 387 95 357 61 C325 24 284 5 234 5 C180 5 152 22 135 66 C118 107 109 116 85 116 C64 116 49 103 49 85 C49 66 65 43 91 24 C127 -3 171 -16 227 -16 C382 -16 483 79 483 223 C483 345 395 439 279 439 C225 439 186 420 146 375 L154 579 L344 579 C379 577 384 582 414 644 L133 644 L117 338 L146 338 Z " />
<glyph glyph-name="six" unicode="6" horiz-adv-x="554" d="M148 386 C151 462 155 488 172 532 C197 598 250 636 317 636 C362 636 386 623 405 590 C421 564 430 557 452 557 C470 557 482 568 482 585 C482 625 411 661 332 661 C169 661 54 509 54 293 C54 105 146 -16 290 -16 C415 -16 510 76 510 196 C510 312 414 407 297 407 C240 407 192 383 147 334 L148 386 Z M285 381 C321 381 358 367 384 344 C416 315 428 277 428 207 C428 135 416 86 392 56 C367 25 329 7 286 7 C199 7 146 85 146 213 C146 317 199 381 285 381 L285 381 Z " />
<glyph glyph-name="seven" unicode="7" horiz-adv-x="554" d="M83 525 L107 525 C125 574 134 580 177 579 L201 579 L432 579 L214 119 C213 116 207 105 198 86 C192 75 186 64 184 59 C174 37 170 25 170 14 C170 -3 183 -16 202 -16 C233 -16 249 7 285 106 L479 644 L199 644 C153 644 150 645 147 660 L128 660 L83 525 Z " />
<glyph glyph-name="eight" unicode="8" horiz-adv-x="554" d="M324 336 C425 357 482 415 482 498 C482 591 393 661 276 661 C158 661 73 592 73 498 C73 420 132 357 224 336 C115 316 49 251 49 162 C49 60 145 -16 274 -16 C411 -16 504 57 504 164 C504 255 431 325 324 336 L324 336 Z M274 640 C310 640 345 628 366 606 C393 581 403 549 403 494 C403 397 358 347 272 347 C191 347 150 399 150 501 C150 549 160 581 181 603 C204 627 236 640 274 640 L274 640 Z M271 323 C311 323 353 311 377 292 C407 268 422 226 422 162 C422 110 412 74 392 50 C370 23 324 6 273 6 C228 6 190 20 165 46 C141 72 131 104 131 159 C131 268 178 323 271 323 L271 323 Z " />
<glyph glyph-name="nine" unicode="9" horiz-adv-x="554" d="M411 311 C411 222 403 158 386 113 C361 47 308 9 241 9 C196 9 171 22 152 55 C138 80 127 88 107 88 C88 88 76 77 76 60 C76 20 147 -16 226 -16 C389 -16 504 136 504 352 C504 540 412 661 267 661 C143 661 47 569 47 449 C47 333 143 238 261 238 C317 238 367 262 411 311 L411 311 Z M271 638 C359 638 412 560 412 432 C412 328 359 264 273 264 C236 264 200 278 173 301 C141 331 129 368 129 438 C129 510 141 559 165 589 C190 620 228 638 271 638 L271 638 Z " />
<glyph glyph-name="colon" unicode="&#x3a;" horiz-adv-x="277" d="M140 90 C108 90 82 66 82 38 C82 8 108 -16 140 -16 C172 -16 198 8 198 37 C198 66 172 90 140 90 L140 90 Z M140 431 C108 431 82 407 82 379 C82 349 108 325 140 325 C172 325 198 349 198 378 C198 407 172 431 140 431 L140 431 Z " />
<glyph glyph-name="semicolon" unicode="&#x3b;" horiz-adv-x="277" d="M60 -192 C153 -170 215 -101 215 -19 C215 43 178 90 129 90 C96 90 73 68 73 38 C73 10 97 -10 130 -10 C135 -10 139 -10 142 -9 C156 -4 156 -4 161 -4 C175 -3 184 -17 184 -37 C184 -94 133 -147 60 -167 L60 -192 Z M138 431 C106 431 80 407 80 379 C80 349 106 325 138 325 C170 325 196 349 196 378 C196 407 170 431 138 431 L138 431 Z " />
<glyph glyph-name="less" unicode="&#x3c;" horiz-adv-x="550" d="M502 612 L47 346 L47 340 L502 63 L502 162 L157 371 L502 575 L502 612 Z " />
<glyph glyph-name="equal" unicode="&#x3d;" horiz-adv-x="550" d="M25 432 L25 391 L524 391 L524 432 L25 432 Z M25 291 L25 250 L524 250 L524 291 L25 291 Z " />
<glyph glyph-name="greater" unicode="&#x3e;" horiz-adv-x="550" d="M47 63 L502 330 L502 336 L47 612 L47 514 L392 305 L47 101 L47 63 Z " />
<glyph glyph-name="question" unicode="&#x3f;" horiz-adv-x="438" d="M146 90 C113 90 87 66 87 38 C87 8 113 -16 146 -16 C178 -16 204 8 204 37 C204 66 178 90 146 90 L146 90 Z M156 187 L156 354 C178 336 204 327 236 327 C320 327 383 392 383 479 C383 520 368 562 342 597 C310 638 258 661 195 661 C119 661 52 628 52 591 C52 576 63 566 79 566 C94 566 105 573 114 591 C133 626 155 639 194 639 C220 639 245 630 265 614 C294 591 307 557 307 505 C307 409 276 356 218 356 C192 356 173 367 156 393 L134 393 L134 187 L156 187 Z " />
<glyph glyph-name="at" unicode="&#x40;" horiz-adv-x="851" d="M656 106 C615 79 598 69 579 59 C526 32 469 17 412 17 C237 17 96 147 96 309 C96 390 136 480 200 545 C269 615 369 653 482 653 C649 653 764 556 764 414 C764 343 736 275 686 223 C653 188 618 169 587 169 C561 169 546 186 546 216 C546 231 547 237 562 286 L624 520 C602 515 592 514 569 513 L561 469 C535 507 505 524 463 524 C362 524 252 388 252 262 C252 186 291 136 351 136 C404 136 455 170 503 238 L503 225 C503 173 532 138 574 138 C688 138 797 275 797 418 C797 578 669 684 478 684 C387 684 304 663 237 622 C125 554 53 433 53 313 C53 130 208 -15 404 -15 C468 -15 538 3 592 33 C621 49 641 63 684 95 L656 106 Z M527 368 C512 315 496 277 477 247 C442 192 404 165 364 165 C326 165 301 196 301 241 C301 294 322 357 358 414 C394 471 432 498 475 498 C515 498 542 469 542 427 C542 424 542 421 541 418 L527 368 Z " />
<glyph glyph-name="A" unicode="A" horiz-adv-x="727" d="M462 245 L519 122 C543 69 543 69 543 58 C543 44 534 33 520 28 C505 23 499 23 462 23 L453 23 L453 0 L742 0 L742 23 L735 23 C674 33 668 39 620 146 L375 677 L354 677 L141 213 C118 164 116 159 110 145 C92 106 88 97 83 88 C61 49 34 30 -5 24 L-15 23 L-15 0 L203 0 L203 23 L194 23 C153 23 123 48 123 84 C123 107 130 127 165 203 L184 245 L462 245 Z M453 268 L194 268 L324 552 L453 268 Z " />
<glyph glyph-name="B" unicode="B" horiz-adv-x="690" d="M41 667 L41 644 L56 644 C154 646 162 636 160 498 L160 173 C162 36 154 23 62 23 L33 23 L33 0 L317 0 C439 0 493 8 540 31 C601 61 638 118 638 182 C638 285 550 348 390 359 C528 377 599 431 599 515 C599 575 563 621 497 647 C452 665 385 674 303 674 C274 674 274 674 167 670 L41 667 Z M256 344 C281 345 283 345 299 345 C468 345 532 300 532 182 C532 78 469 23 350 23 C303 23 279 31 268 51 C258 68 256 97 256 196 L256 344 Z M256 368 L256 648 C274 650 284 650 301 650 C359 650 397 645 421 636 C473 615 495 576 495 509 C495 405 438 368 281 368 L256 368 Z " />
<glyph glyph-name="C" unicode="C" horiz-adv-x="798" d="M694 250 C682 165 635 87 576 55 C531 30 479 16 428 16 C267 16 164 137 164 325 C164 531 261 654 422 654 C508 654 590 618 635 561 C663 525 682 477 694 414 L717 414 L711 667 L687 667 C684 640 673 605 659 581 C604 641 508 679 410 679 C301 679 205 640 142 571 C85 509 51 415 51 322 C51 124 198 -12 412 -12 C512 -12 594 21 659 87 C674 70 689 40 694 17 L717 17 L717 250 L694 250 Z " />
<glyph glyph-name="D" unicode="D" horiz-adv-x="847" d="M36 639 L59 639 C157 641 164 631 163 495 L163 173 C164 36 156 23 65 23 L33 23 L33 0 L355 0 C493 0 530 4 597 29 C726 77 796 181 796 328 C796 461 736 564 625 623 C561 658 475 674 355 674 C316 674 271 673 188 669 C118 665 80 664 36 662 L36 639 Z M259 648 C293 649 319 650 352 650 C453 650 509 637 564 601 C645 547 689 448 689 320 C689 211 655 127 590 76 C540 38 482 23 379 23 C309 23 287 28 273 48 C260 68 259 80 259 202 L259 648 Z " />
<glyph glyph-name="E" unicode="E" horiz-adv-x="689" d="M630 207 C593 73 527 19 409 23 L353 23 C249 22 244 30 244 183 L244 340 L326 340 C417 342 434 327 436 244 L436 235 L462 235 L462 464 L436 464 L436 456 C437 379 419 364 323 364 L244 364 L244 644 L348 644 C494 648 533 622 564 500 L589 500 L572 667 L48 667 L48 644 L58 644 C142 644 150 632 148 500 L148 173 C150 36 141 24 48 23 L33 23 L33 0 L640 0 L656 207 L630 207 Z " />
<glyph glyph-name="F" unicode="F" horiz-adv-x="616" d="M602 667 L36 667 L36 644 L50 644 C148 646 155 636 153 501 L153 174 C155 36 147 23 56 23 L32 23 L32 0 L373 0 L373 23 L347 23 C255 23 247 36 249 174 L249 340 L321 340 C406 343 431 320 433 239 L433 229 L460 229 L460 464 L433 464 L433 458 C432 382 408 360 321 362 L249 362 L249 644 L397 644 C487 645 510 638 544 598 C565 571 579 537 583 501 L608 501 L602 667 Z " />
<glyph glyph-name="G" unicode="G" horiz-adv-x="847" d="M505 285 L505 261 L523 261 C597 264 613 249 614 178 L614 152 C614 104 597 71 559 47 C523 24 476 12 428 12 C359 12 289 38 245 80 C190 132 163 218 163 337 C163 447 184 523 228 573 C276 626 348 656 427 656 C564 656 666 569 687 432 L713 432 L713 655 L687 655 C684 630 675 600 664 581 C599 648 520 680 421 680 C318 680 228 647 163 586 C94 521 51 418 51 321 C51 129 206 -12 418 -12 C477 -12 517 -5 587 20 C633 35 670 43 696 43 C703 43 709 42 720 41 L720 112 C718 248 726 261 813 261 L821 261 L821 285 L505 285 Z " />
<glyph glyph-name="H" unicode="H" horiz-adv-x="883" d="M639 334 L639 173 C641 36 633 23 542 23 L516 23 L516 0 L850 0 L850 23 L832 23 C741 23 733 36 735 173 L735 500 C733 636 740 646 838 644 L850 644 L850 667 L516 667 L516 644 L536 644 C634 646 641 636 639 500 L639 368 L246 368 L246 500 C244 636 251 646 349 644 L363 644 L363 667 L33 667 L33 644 L47 644 C145 646 152 636 150 500 L150 173 C152 36 144 23 53 23 L33 23 L33 0 L363 0 L363 23 L343 23 C252 23 244 36 246 173 L246 334 L639 334 Z " />
<glyph glyph-name="I" unicode="I" horiz-adv-x="401" d="M33 644 L50 644 C147 646 154 636 153 501 L153 173 C154 36 146 23 55 23 L33 23 L33 0 L368 0 L368 23 L346 23 C255 23 247 36 249 173 L249 501 C247 636 254 646 352 644 L368 644 L368 667 L33 667 L33 644 Z " />
<glyph glyph-name="J" unicode="J" horiz-adv-x="406" d="M40 667 L40 644 L58 644 C156 646 163 636 161 501 L161 65 C161 -57 159 -79 145 -114 C120 -178 62 -215 -12 -215 C-57 -215 -88 -202 -88 -182 C-88 -176 -87 -174 -78 -164 C-70 -155 -66 -146 -66 -138 C-66 -110 -91 -89 -122 -89 C-153 -89 -177 -113 -177 -143 C-177 -199 -108 -238 -7 -238 C113 -238 202 -190 239 -105 C256 -65 259 -40 259 65 L259 501 C257 636 264 646 362 644 L381 644 L381 667 L40 667 Z " />
<glyph glyph-name="K" unicode="K" horiz-adv-x="822" d="M249 327 L249 501 C247 636 254 646 352 644 L366 644 L366 667 L42 667 L42 644 L50 644 C148 646 155 636 153 501 L153 173 C155 36 147 23 55 23 L32 23 L32 0 L361 0 L361 23 L346 23 C256 23 247 36 249 173 L249 295 L303 337 L513 147 C567 98 591 70 591 55 C591 31 567 23 500 23 L485 23 L485 0 L866 0 L866 23 L858 23 C784 30 782 32 657 146 L382 399 L516 511 C633 614 677 639 747 644 L754 644 L754 667 L478 667 L478 644 L483 644 C531 643 555 629 555 602 C555 581 533 555 478 511 L249 327 Z " />
<glyph glyph-name="L" unicode="L" horiz-adv-x="676" d="M661 197 L636 197 C592 57 544 18 420 23 L363 23 C253 24 246 32 249 152 L249 500 C247 636 254 646 351 644 L385 644 L385 667 L33 667 L33 644 L50 644 C148 646 155 636 153 500 L153 174 C154 36 146 24 56 23 L33 23 L33 0 L656 0 L661 197 Z " />
<glyph glyph-name="M" unicode="M" horiz-adv-x="1040" d="M514 116 L245 667 L22 667 L22 644 L42 644 C137 646 144 636 142 501 L142 211 C142 124 141 111 131 85 C114 48 79 27 29 23 L22 23 L22 0 L284 0 L284 23 L278 23 C234 26 199 44 181 73 C166 100 165 114 165 208 L165 598 L459 0 L485 0 L780 598 L780 174 C782 36 774 24 683 23 L656 23 L656 0 L1007 0 L1007 23 L973 23 C882 24 874 36 876 174 L876 501 C874 636 881 646 979 644 L1007 644 L1007 667 L786 667 L514 116 Z " />
<glyph glyph-name="N" unicode="N" horiz-adv-x="841" d="M686 -15 L707 -15 L707 537 C703 608 729 635 813 644 L823 644 L823 667 L557 667 L557 644 L571 644 C660 638 686 615 683 544 L683 145 L247 667 L31 667 L31 644 L37 644 C132 646 140 636 141 501 L141 147 C141 86 140 77 132 64 C121 43 80 27 35 23 L22 23 L22 0 L295 0 L295 23 L287 23 C236 24 196 37 180 58 C167 76 167 76 165 147 L165 610 L686 -15 Z " />
<glyph glyph-name="O" unicode="O" horiz-adv-x="901" d="M446 679 C216 679 51 538 51 341 C51 129 210 -12 450 -12 C688 -12 849 128 849 335 C849 437 805 532 733 589 C659 646 554 679 446 679 L446 679 Z M449 654 C524 654 592 632 640 592 C702 541 736 450 736 333 C736 127 636 13 454 13 C367 13 298 36 248 81 C195 129 164 222 164 337 C164 434 193 527 239 576 C285 625 362 654 449 654 L449 654 Z " />
<glyph glyph-name="P" unicode="P" horiz-adv-x="634" d="M247 314 L330 314 C430 314 483 322 522 342 C579 372 612 428 612 495 C612 558 583 604 524 637 C476 664 415 674 298 674 C248 674 242 674 129 670 L33 667 L33 644 L47 644 C145 646 152 636 151 501 L151 173 C152 36 144 23 53 23 L33 23 L33 0 L369 0 L369 23 L344 23 C253 23 245 36 247 173 L247 314 Z M247 338 L247 648 C265 649 277 650 302 650 C377 650 416 642 448 621 C486 595 508 547 508 490 C508 434 485 390 442 364 C409 344 377 338 301 338 L247 338 Z " />
<glyph glyph-name="Q" unicode="Q" horiz-adv-x="898" d="M406 -62 C398 -66 392 -69 366 -81 C351 -88 335 -96 319 -103 C272 -125 268 -128 268 -142 C268 -152 275 -158 287 -158 C298 -158 306 -154 332 -133 C370 -104 393 -96 434 -96 C495 -96 555 -117 649 -171 C752 -230 795 -245 867 -245 C977 -245 1052 -188 1066 -93 L1043 -93 C1031 -137 993 -159 928 -159 C885 -159 822 -148 769 -131 C619 -85 557 -73 463 -73 C453 -73 446 -73 432 -74 L593 7 C631 18 644 23 668 35 C781 92 849 203 849 335 C849 437 806 532 733 589 C660 646 554 679 446 679 C214 679 51 538 51 337 C51 129 213 -12 451 -12 C472 -12 485 -11 506 -10 L406 -62 Z M449 654 C524 654 592 632 640 592 C702 541 736 450 736 333 C736 127 636 13 454 13 C367 13 298 36 248 81 C195 129 164 222 164 337 C164 434 193 527 239 576 C285 625 362 654 449 654 L449 654 Z " />
<glyph glyph-name="R" unicode="R" horiz-adv-x="766" d="M810 0 L810 23 L804 23 C729 24 672 61 585 167 C507 266 457 316 418 335 C549 350 628 413 628 504 C628 559 599 603 541 635 C491 664 419 677 313 677 C285 677 220 675 148 672 L38 667 L38 644 L52 644 C149 646 156 636 155 501 L155 174 C156 36 148 24 57 23 L33 23 L33 0 L384 0 L384 23 L347 23 C257 24 249 36 251 174 L251 322 L281 322 C323 325 345 306 450 175 C513 92 578 22 613 0 L810 0 Z M251 345 L251 650 C273 651 285 652 301 652 C365 652 410 646 443 632 C492 612 520 564 520 497 C520 444 503 404 469 380 C441 360 382 346 317 346 L263 345 L251 345 Z " />
<glyph glyph-name="S" unicode="S" horiz-adv-x="600" d="M64 7 L91 7 C97 34 106 56 118 72 C171 16 238 -12 319 -12 C456 -12 549 66 549 181 C549 236 527 284 486 318 C456 343 429 356 313 403 C241 432 210 447 185 466 C151 492 135 520 135 553 C135 614 187 656 263 656 C359 656 431 596 461 492 L485 492 L485 667 L461 667 C459 647 449 626 433 608 C379 660 334 679 264 679 C152 679 70 609 70 513 C70 468 90 422 124 389 C152 362 198 337 276 308 C374 270 393 261 421 242 C458 215 478 180 478 142 C478 67 408 12 313 12 C197 12 121 83 91 221 L64 221 L64 7 Z " />
<glyph glyph-name="T" unicode="T" horiz-adv-x="756" d="M43 506 C69 628 96 649 217 644 L330 644 L330 174 C332 36 323 24 233 23 L194 23 L194 0 L560 0 L560 23 L522 23 C432 24 424 36 426 174 L426 644 L548 644 C659 648 688 624 714 506 L737 506 L733 667 L22 667 L18 506 L43 506 Z " />
<glyph glyph-name="U" unicode="U" horiz-adv-x="852" d="M584 667 L584 644 L590 644 C679 637 700 612 697 513 L697 286 L696 212 C694 173 685 143 670 118 C632 59 547 22 449 22 C367 22 297 52 266 100 C242 138 239 162 239 291 L239 501 C237 636 244 646 342 644 L356 644 L356 667 L22 667 L22 644 L40 644 C137 646 144 636 143 501 L143 293 L143 202 C146 149 156 117 178 86 C224 24 315 -12 428 -12 C504 -12 573 4 621 34 C680 70 709 116 718 184 C721 208 721 208 721 282 L721 504 C716 605 735 632 819 644 L829 644 L829 667 L584 667 Z " />
<glyph glyph-name="V" unicode="V" horiz-adv-x="771" d="M414 -16 L631 455 L655 506 C701 612 723 636 778 644 L786 644 L786 667 L561 667 L561 644 L572 644 C622 643 650 622 650 585 C650 565 639 536 607 465 L438 97 L227 540 C205 585 202 593 202 607 C202 635 224 644 294 644 L301 644 L301 667 L-15 667 L-15 644 L-4 644 C56 641 79 624 105 564 C114 541 124 520 127 515 L380 -16 L414 -16 Z " />
<glyph glyph-name="W" unicode="W" horiz-adv-x="1032" d="M757 -16 L919 486 C958 613 978 640 1034 644 L1039 644 L1039 667 L839 667 L839 644 L844 644 C891 644 915 622 915 579 C915 557 914 552 893 486 L781 132 L566 667 L536 667 L344 132 L213 520 C191 583 190 588 190 603 C190 630 207 640 261 644 L268 644 L268 667 L-7 667 L-7 644 L1 644 C59 642 74 623 112 503 L288 -16 L314 -16 L510 534 L733 -16 L757 -16 Z " />
<glyph glyph-name="X" unicode="X" horiz-adv-x="854" d="M459 370 L574 503 C665 608 721 645 787 645 L791 645 L799 645 L799 667 L523 667 L523 645 L532 645 C592 645 618 633 618 607 C618 591 615 586 563 527 L441 388 L306 537 C259 589 253 597 253 614 C253 637 269 645 314 645 L325 645 L325 667 L12 667 L12 645 L18 645 C69 642 93 628 148 564 C154 558 165 546 182 527 L375 315 L253 181 C156 65 107 32 20 23 L12 23 L12 0 L296 0 L296 23 L291 23 C237 24 211 41 211 73 C211 94 211 94 277 171 L392 298 L523 151 C579 89 585 80 585 62 C585 34 558 23 492 23 L486 23 L486 0 L850 0 L850 23 L842 23 C776 25 762 35 649 160 L459 370 Z " />
<glyph glyph-name="Y" unicode="Y" horiz-adv-x="721" d="M398 292 L227 555 C202 593 200 598 200 610 C200 633 225 644 276 644 L282 644 L282 667 L-15 667 L-15 644 L-7 644 C49 640 55 635 125 529 L313 256 L313 173 C315 36 306 23 215 23 L203 23 L203 0 L516 0 L516 23 L506 23 C414 23 406 36 408 173 L408 262 L577 511 C638 607 664 630 727 643 L735 644 L735 667 L496 667 L496 644 L501 644 C551 644 583 623 583 589 C583 569 578 559 547 512 L398 292 Z " />
<glyph glyph-name="Z" unicode="Z" horiz-adv-x="696" d="M34 0 L627 0 L651 173 L627 173 C572 39 544 21 388 23 L164 23 L632 644 L632 667 L87 667 L63 513 L87 513 C97 551 124 596 150 619 C180 643 187 645 279 644 L507 644 L34 18 L34 0 Z " />
<glyph glyph-name="bracketleft" unicode="&#x5b;" horiz-adv-x="381" d="M402 -235 L402 -212 L272 -212 C213 -212 205 -201 207 -117 L207 549 C205 633 213 644 272 644 L402 644 L402 667 L144 667 L144 -235 L402 -235 Z " />
<glyph glyph-name="backslash" unicode="&#x5c;" horiz-adv-x="550" d="M467 -97 L127 723 L83 723 L423 -97 L467 -97 Z " />
<glyph glyph-name="bracketright" unicode="&#x5d;" horiz-adv-x="381" d="M-22 -235 L236 -235 L236 667 L-22 667 L-22 644 L108 644 C167 644 175 633 173 549 L173 -117 C175 -201 167 -212 108 -212 L-22 -212 L-22 -235 Z " />
<glyph glyph-name="asciicircum" unicode="&#x5e;" horiz-adv-x="550" d="M577 286 L284 700 L277 700 L-27 286 L81 286 L312 599 L536 286 L577 286 Z " />
<glyph glyph-name="underscore" unicode="&#x5f;" horiz-adv-x="505" d="M25 -88 L25 -130 L479 -130 L479 -88 L25 -88 Z " />
<glyph glyph-name="grave" unicode="&#x60;" horiz-adv-x="529" d="M311 493 L202 661 L100 661 L295 493 L311 493 Z " />
<glyph glyph-name="a" unicode="a" horiz-adv-x="519" d="M488 74 C482 43 466 26 443 26 C430 26 419 33 414 47 C409 58 409 58 409 115 L409 278 C409 327 406 341 393 360 C366 400 316 419 241 419 C180 419 133 407 99 383 C74 365 60 345 60 327 C60 310 74 298 93 298 C116 298 133 314 137 343 C141 364 142 367 151 376 C164 390 194 398 230 398 C274 398 307 383 322 355 C330 341 331 330 331 289 L331 269 L247 238 C103 184 43 136 43 76 C43 26 89 -10 153 -10 C201 -10 256 12 331 60 C341 12 368 -10 417 -10 C471 -10 506 22 508 74 L488 74 Z M331 246 L331 87 C277 48 226 26 192 26 C152 26 125 54 125 95 C125 147 169 186 272 224 L331 246 Z " />
<glyph glyph-name="b" unicode="b" horiz-adv-x="578" d="M110 -16 C118 4 146 44 162 58 C197 7 244 -16 312 -16 C444 -16 539 76 539 204 C539 329 447 419 319 419 C264 419 214 400 162 358 L162 677 L151 677 C134 668 48 655 15 656 L15 633 L23 633 C84 632 93 617 91 523 L91 -16 L110 -16 Z M162 329 C211 373 258 393 310 393 C402 393 457 325 457 209 C457 82 398 7 299 7 C245 7 197 34 175 76 C163 98 163 101 162 171 L162 329 Z " />
<glyph glyph-name="c" unicode="c" horiz-adv-x="474" d="M424 98 C405 42 355 10 284 10 C233 10 190 28 165 59 C139 93 122 153 122 215 C122 336 172 396 271 396 C319 396 338 385 346 351 C354 318 365 307 393 307 C413 307 428 321 428 341 C428 382 356 419 274 419 C142 419 40 322 40 197 C40 73 134 -16 265 -16 C359 -16 423 24 448 98 L424 98 Z " />
<glyph glyph-name="d" unicode="d" horiz-adv-x="578" d="M419 360 C375 397 314 419 257 419 C132 419 39 325 39 199 C39 79 133 -16 252 -16 C313 -16 368 7 424 57 C423 52 423 47 423 46 C423 22 425 3 429 -16 C469 -9 526 -4 567 -3 L567 19 L559 19 C491 21 488 26 490 135 L490 677 L480 677 C437 665 377 656 339 656 L339 633 L350 633 C418 632 421 626 419 518 L419 360 Z M419 84 C379 38 327 13 272 13 C178 13 121 85 121 203 C121 322 174 388 269 388 C321 388 366 371 419 331 L419 84 Z " />
<glyph glyph-name="e" unicode="e" horiz-adv-x="482" d="M441 266 C436 354 358 419 256 419 C132 419 40 325 40 198 C40 76 134 -16 260 -16 C346 -16 418 26 441 90 L415 90 C387 38 337 10 271 10 C224 10 184 29 158 63 C136 93 122 149 122 213 C122 233 123 244 127 266 L441 266 Z M131 286 C141 325 147 339 158 353 C179 381 214 398 251 398 C282 398 307 387 324 365 C337 347 343 329 347 286 L131 286 Z " />
<glyph glyph-name="f" unicode="f" horiz-adv-x="302" d="M271 403 L175 403 L175 434 C175 560 175 562 185 592 C197 630 232 655 272 655 C302 655 322 642 341 611 C359 582 373 571 394 571 C415 571 431 585 431 603 C431 643 366 677 292 677 C226 677 177 654 141 605 C111 564 104 535 104 439 L104 403 L18 403 L18 380 L104 380 L104 138 C104 58 104 55 96 42 C86 28 70 22 35 23 L27 23 L27 0 L267 0 L267 23 L243 23 C176 24 173 30 175 138 L175 380 L271 380 L271 403 Z " />
<glyph glyph-name="g" unicode="g" horiz-adv-x="519" d="M379 368 C345 400 292 419 236 419 C135 419 55 354 55 272 C55 215 90 166 158 129 C94 119 59 90 59 48 C59 -5 111 -27 247 -32 C324 -35 345 -38 374 -49 C411 -63 430 -89 430 -125 C430 -188 363 -228 258 -228 C146 -228 75 -189 75 -128 C75 -103 86 -82 114 -57 C107 -55 104 -55 98 -55 C57 -55 31 -81 31 -123 C31 -198 121 -248 255 -248 C394 -248 480 -193 480 -103 C480 -59 457 -20 418 3 C385 22 338 31 252 35 C170 39 158 40 141 44 C111 50 99 58 99 73 C99 100 135 113 215 116 C272 117 300 123 334 139 C389 165 421 213 421 270 C421 299 412 328 393 355 C409 371 426 380 439 380 C450 380 454 377 464 362 C472 349 483 342 495 342 C513 342 527 356 527 374 C527 397 504 415 472 415 C441 415 410 399 379 368 L379 368 Z M235 396 C266 396 296 384 316 363 C336 343 345 314 345 268 C345 184 307 138 237 138 C167 138 129 182 129 264 C129 349 167 396 235 396 L235 396 Z " />
<glyph glyph-name="h" unicode="h" horiz-adv-x="588" d="M178 677 L167 677 C148 667 65 655 30 656 L30 633 L38 633 C97 633 109 616 107 540 L107 138 L106 107 L106 75 C105 57 104 50 99 42 C89 28 72 22 38 23 L26 23 L26 0 L251 0 L251 23 L247 23 C179 24 176 30 178 138 L178 300 C211 357 260 389 316 389 C352 389 381 377 398 355 C412 338 416 316 416 259 L416 138 C415 101 415 80 415 75 C414 57 413 50 408 42 C398 28 381 22 347 23 L336 23 L336 0 L565 0 L565 23 L555 23 C488 24 485 30 487 138 L487 249 C487 316 482 343 466 366 C442 400 396 419 338 419 C275 419 223 392 178 337 L178 677 Z " />
<glyph glyph-name="i" unicode="i" horiz-adv-x="277" d="M130 677 C102 677 79 654 79 626 C79 596 102 573 130 573 C158 573 181 596 181 625 C181 654 158 677 130 677 L130 677 Z M175 419 L164 419 C143 411 67 398 17 393 L17 370 L32 370 C98 371 104 363 104 260 L104 138 L104 107 L103 75 C103 57 101 50 96 42 C86 28 70 22 36 23 L17 23 L17 0 L255 0 L255 23 L244 23 C176 24 173 30 175 138 L175 419 Z " />
<glyph glyph-name="j" unicode="j" horiz-adv-x="255" d="M183 419 L172 419 C152 411 73 397 26 393 L26 370 L41 370 C106 371 112 362 112 261 L112 -50 C112 -122 110 -145 102 -167 C89 -202 53 -226 12 -226 C-13 -226 -33 -214 -44 -192 C-58 -162 -68 -154 -87 -154 C-107 -154 -122 -168 -122 -186 C-122 -222 -73 -248 -7 -248 C91 -248 156 -200 176 -114 C182 -88 183 -80 183 -14 L183 419 Z M134 677 C106 677 83 654 83 626 C83 596 106 573 134 573 C162 573 185 596 185 625 C185 654 162 677 134 677 L134 677 Z " />
<glyph glyph-name="k" unicode="k" horiz-adv-x="508" d="M292 403 L292 380 L301 380 C323 380 334 373 334 358 C334 348 328 338 314 324 C302 312 241 266 220 253 L171 223 L171 677 L160 677 C142 668 58 655 25 656 L25 633 L33 633 C90 633 102 616 100 542 L100 138 L100 107 L99 75 C99 57 97 50 92 42 C82 28 66 22 31 23 L14 23 L14 0 L239 0 L239 23 L235 23 C172 25 169 31 171 138 L171 196 L195 212 L311 92 C343 59 348 53 348 44 C348 31 332 24 298 23 L292 23 L292 0 L513 0 L513 23 L508 23 C476 27 456 40 415 85 L257 253 L291 277 C299 283 323 301 339 314 C393 358 428 377 466 380 L471 380 L471 403 L292 403 Z " />
<glyph glyph-name="l" unicode="l" horiz-adv-x="273" d="M174 677 L164 677 C145 667 61 655 26 656 L26 633 L34 633 C94 633 105 616 103 537 L103 138 L103 107 L102 75 C102 57 100 50 95 42 C85 28 69 22 34 23 L19 23 L19 0 L256 0 L256 23 L242 23 C175 24 172 30 174 138 L174 677 Z " />
<glyph glyph-name="m" unicode="m" horiz-adv-x="891" d="M156 419 C132 411 67 399 31 397 L31 374 L37 374 C104 372 107 367 106 259 L106 138 L105 107 L105 75 C104 57 103 50 98 42 C88 28 71 22 37 23 L31 23 L31 0 L248 0 L248 23 L242 23 C177 25 174 31 176 138 L176 306 C202 332 218 346 222 349 C252 372 287 385 319 385 C355 385 386 370 400 345 C411 326 413 314 413 250 L413 138 C414 29 411 24 344 23 L337 23 L337 0 L551 0 L551 23 L548 23 C485 25 482 31 484 138 L484 297 C534 357 579 384 629 384 C661 384 687 374 702 356 C716 340 720 323 720 272 L720 138 C719 101 719 80 719 75 C718 57 717 50 712 42 C702 27 685 22 651 23 L646 23 L646 0 L867 0 L867 23 L859 23 C792 24 789 30 791 138 L791 259 C791 335 788 350 768 374 C746 401 700 419 652 419 C588 419 544 396 481 329 C462 388 416 419 344 419 C279 419 226 392 176 334 C176 368 171 395 161 419 L156 419 Z " />
<glyph glyph-name="n" unicode="n" horiz-adv-x="588" d="M152 419 C105 407 77 401 31 396 L31 374 L39 374 C107 372 110 367 108 258 L108 138 C109 29 107 24 39 23 L31 23 L31 0 L255 0 L255 23 L248 23 C179 24 176 30 178 138 L178 303 C222 360 270 388 325 388 C360 388 388 375 404 353 C416 335 418 326 418 268 L418 138 L417 75 C416 57 415 50 410 42 C400 27 383 22 349 23 L338 23 L338 0 L565 0 L565 23 L558 23 C490 24 487 30 489 138 L489 264 C489 329 486 343 470 368 C448 400 404 419 349 419 C287 419 228 391 178 336 C178 362 171 406 165 419 L152 419 Z " />
<glyph glyph-name="o" unicode="o" horiz-adv-x="553" d="M276 419 C143 419 40 326 40 205 C40 133 69 71 121 32 C160 3 222 -16 276 -16 C412 -16 512 76 512 201 C512 326 411 419 276 419 L276 419 Z M276 396 C381 396 430 333 430 198 C430 66 382 6 276 6 C169 6 122 66 122 201 C122 333 172 396 276 396 L276 396 Z " />
<glyph glyph-name="p" unicode="p" horiz-adv-x="574" d="M136 419 C82 406 34 398 2 395 L2 372 L19 372 C86 370 89 365 87 256 L87 -110 L87 -142 C87 -158 87 -169 86 -173 C86 -192 84 -198 79 -206 C69 -221 53 -226 19 -225 L2 -225 L2 -248 L234 -248 L234 -225 L227 -225 C159 -224 156 -218 158 -110 L158 44 C209 0 250 -16 309 -16 C441 -16 534 76 534 207 C534 331 444 419 318 419 C259 419 203 396 158 353 C159 371 154 405 149 419 L136 419 Z M158 321 C203 369 245 390 298 390 C329 390 360 380 386 362 C431 331 452 282 452 208 C452 139 434 86 401 54 C372 26 333 10 294 10 C243 10 201 31 158 76 L158 321 Z " />
<glyph glyph-name="q" unicode="q" horiz-adv-x="572" d="M473 419 C455 396 434 377 418 367 C351 407 316 419 264 419 C211 419 154 397 113 361 C65 319 40 262 40 195 C40 70 129 -16 257 -16 C312 -16 363 0 418 34 L418 -110 L418 -142 C418 -158 418 -169 417 -173 C417 -191 415 -198 410 -206 C400 -221 384 -226 350 -225 L331 -225 L331 -248 L570 -248 L570 -225 L558 -225 C490 -224 487 -218 489 -110 L489 419 L473 419 Z M418 58 C377 28 318 9 272 9 C175 9 122 73 122 189 C122 261 137 313 168 345 C195 373 235 389 277 389 C325 389 375 370 418 336 L418 58 Z " />
<glyph glyph-name="r" unicode="r" horiz-adv-x="401" d="M31 368 L42 368 C110 366 113 360 111 252 L111 138 C113 29 110 24 42 23 L31 23 L31 0 L266 0 L266 23 L250 23 C183 24 180 30 182 138 L182 210 C182 278 187 297 212 331 C234 361 268 384 291 384 C305 384 313 377 320 359 C331 333 342 323 362 323 C383 323 399 338 399 358 C399 391 363 419 322 419 C266 419 205 376 178 316 C177 359 171 396 162 419 C118 406 61 394 31 390 L31 368 Z " />
<glyph glyph-name="s" unicode="s" horiz-adv-x="369" d="M45 -13 L66 -13 C70 1 84 24 90 29 C129 -5 155 -16 198 -16 C277 -16 333 33 333 102 C333 136 319 169 295 191 C273 212 252 223 197 246 C156 263 136 272 124 281 C102 297 90 316 90 336 C90 370 122 397 164 397 C219 397 267 353 283 288 L303 288 L303 412 L283 412 C274 393 267 381 262 377 C235 405 204 419 165 419 C100 419 46 369 46 307 C46 283 55 260 73 240 C93 217 113 204 174 178 C224 156 241 147 254 136 C274 118 284 99 284 77 C284 35 250 5 201 5 C168 5 134 19 110 41 C92 59 79 81 66 119 L45 119 L45 -13 Z " />
<glyph glyph-name="t" unicode="t" horiz-adv-x="323" d="M305 380 L305 403 L168 403 L168 529 L152 529 C142 457 91 404 29 403 L29 380 L97 380 L97 152 C97 75 99 57 113 34 C131 4 168 -16 208 -16 C257 -16 300 9 322 49 L305 58 C284 31 262 18 236 18 C211 18 190 30 179 50 C170 65 168 84 168 137 L168 380 L305 380 Z " />
<glyph glyph-name="u" unicode="u" horiz-adv-x="577" d="M477 403 L326 403 L326 380 L338 380 C406 379 409 373 407 265 L407 174 C407 116 401 99 372 68 C341 36 298 17 259 17 C229 17 201 29 186 47 C174 62 171 76 171 124 L171 403 L24 403 L24 380 L31 380 C99 379 102 373 100 265 L100 128 C100 84 105 60 117 40 C138 7 187 -16 238 -16 C303 -16 366 19 407 78 C408 33 413 2 424 -16 L430 -16 C458 -5 492 -1 548 0 L548 23 L544 23 C478 25 475 31 477 139 L477 403 Z " />
<glyph glyph-name="v" unicode="v" horiz-adv-x="508" d="M269 -16 L413 272 C449 349 467 371 501 379 L511 380 L511 403 L362 403 L362 380 L371 380 C399 379 416 366 416 346 C416 332 413 325 390 278 L283 60 L163 304 C143 344 142 347 142 356 C142 374 155 380 192 380 L199 380 L199 403 L-1 403 L-1 380 L5 380 C42 377 52 366 80 307 L237 -16 L269 -16 Z " />
<glyph glyph-name="w" unicode="w" horiz-adv-x="750" d="M532 -16 L670 304 C696 369 701 375 741 380 L750 380 L750 403 L606 403 L606 380 L617 380 C646 379 661 370 661 354 C661 348 661 348 645 310 L548 82 L414 403 L393 403 L256 82 L167 298 C147 341 145 346 145 356 C145 373 161 380 196 380 L204 380 L204 403 L2 403 L2 380 L10 380 C42 379 56 369 68 337 C73 326 78 315 82 304 L217 -16 L241 -16 L376 304 L508 -16 L532 -16 Z " />
<glyph glyph-name="x" unicode="x" horiz-adv-x="531" d="M297 229 L384 320 C432 365 458 379 492 380 L494 380 L494 403 L318 403 L318 380 L323 380 C355 380 378 369 378 355 C378 349 373 342 354 321 L281 245 L204 332 C185 352 184 354 184 362 C184 375 196 380 223 380 L229 380 L229 403 L20 403 L20 380 L28 380 C64 378 77 368 134 305 L232 193 L140 94 C96 45 64 26 22 23 L14 23 L14 0 L196 0 L196 23 L190 22 C161 22 136 33 136 47 C136 54 141 60 166 87 L247 175 L335 76 C357 52 359 49 359 42 C359 30 335 21 309 22 L305 23 L305 0 L526 0 L526 23 L519 23 C485 25 462 40 421 87 L297 229 Z " />
<glyph glyph-name="y" unicode="y" horiz-adv-x="508" d="M287 76 L165 312 C147 347 144 353 144 360 C144 373 159 379 192 380 L197 380 L197 403 L-6 403 L-6 380 L3 380 C43 378 53 369 80 315 L247 -10 L205 -106 C189 -140 184 -144 139 -162 C99 -179 83 -195 83 -219 C83 -236 97 -248 118 -248 C154 -248 179 -221 215 -141 L413 292 C443 362 457 376 502 380 L507 380 L507 403 L352 403 L352 380 L360 380 C391 380 412 369 412 355 C412 347 412 347 389 300 L287 76 Z " />
<glyph glyph-name="z" unicode="z" horiz-adv-x="466" d="M29 0 L415 0 L428 128 L407 128 C361 30 348 21 249 23 L128 23 L420 385 L420 403 L49 403 L42 291 L62 291 C92 367 111 384 162 380 L322 380 L29 16 L29 0 Z " />
<glyph glyph-name="braceleft" unicode="&#x7b;" horiz-adv-x="380" d="M57 207 C160 199 175 180 172 65 L172 -80 C171 -154 191 -197 237 -218 C263 -228 281 -230 367 -231 L387 -231 L387 -207 C276 -207 238 -177 233 -85 L233 106 C232 165 204 204 156 215 L156 221 C204 232 232 271 233 330 L233 521 C238 613 276 643 387 643 L387 667 L367 666 C279 666 263 664 237 654 C191 632 171 590 172 515 L172 370 C175 256 159 236 57 228 L57 207 Z " />
<glyph glyph-name="bar" unicode="&#x7c;" horiz-adv-x="550" d="M246 667 L246 -167 L304 -167 L304 667 L246 667 Z " />
<glyph glyph-name="braceright" unicode="&#x7d;" horiz-adv-x="394" d="M337 228 C234 236 218 256 222 370 L222 515 C223 590 202 632 157 654 C131 664 114 666 27 666 L7 667 L7 643 C118 643 156 613 161 521 L161 330 C162 271 189 232 238 221 L238 215 C189 204 161 165 161 106 L161 -85 C156 -177 118 -207 7 -207 L7 -231 L27 -231 C112 -230 130 -228 157 -218 C202 -197 223 -154 222 -80 L222 65 C218 180 234 199 337 207 L337 228 Z " />
<glyph glyph-name="asciitilde" unicode="&#x7e;" horiz-adv-x="691" d="M542 734 C512 697 480 679 443 679 C423 679 406 683 364 697 C313 715 295 719 273 719 C222 719 173 685 135 623 L149 614 C190 663 205 672 240 672 C266 672 287 667 357 643 C391 632 403 629 420 629 C468 629 524 668 556 725 L542 734 Z " />
<glyph glyph-name="uni00A0" unicode="&#xa0;" horiz-adv-x="250" d="" />
<glyph glyph-name="exclamdown" unicode="&#xa1;" horiz-adv-x="277" d="M123 243 L91 -105 C88 -141 87 -152 87 -165 C87 -202 106 -227 135 -227 C162 -227 182 -202 182 -167 C182 -151 181 -142 178 -105 L146 243 L123 243 Z M135 449 C103 449 77 425 77 397 C77 367 103 344 135 344 C167 344 193 368 193 397 C193 426 167 449 135 449 L135 449 Z " />
<glyph glyph-name="cent" unicode="&#xa2;" horiz-adv-x="554" d="M205 4 C242 -11 268 -16 304 -16 C399 -16 463 24 488 98 L464 98 C446 42 397 10 328 10 C285 10 249 23 222 48 L354 391 C371 388 383 372 388 351 C396 317 407 306 434 306 C453 306 468 320 468 340 C468 373 428 401 363 414 L440 612 L417 612 L341 417 C327 419 319 419 312 419 C182 419 80 322 80 197 C80 118 119 49 185 13 L107 -189 L130 -189 L205 4 Z M205 68 C178 102 162 156 162 215 C162 335 213 396 313 396 C320 396 325 396 333 395 L205 68 Z " />
<glyph glyph-name="sterling" unicode="&#xa3;" horiz-adv-x="774" d="M211 221 L38 221 L30 198 L204 198 L197 176 C167 82 159 60 147 30 C126 18 93 -7 67 -29 C40 -52 24 -78 24 -98 C24 -113 37 -124 54 -124 C80 -124 115 -87 147 -27 L164 5 C164 6 166 9 169 14 C182 20 191 23 203 23 C230 23 263 6 294 -24 C333 -61 342 -69 359 -81 C398 -110 435 -123 477 -123 C579 -123 680 -34 680 55 C680 93 661 120 635 120 C617 120 602 108 602 93 C602 84 605 77 613 66 C630 44 636 30 636 12 C636 -35 583 -77 524 -77 C487 -77 461 -64 413 -23 C345 36 306 55 250 55 C226 55 207 51 188 43 L193 51 C201 65 209 78 218 91 C232 115 243 134 251 149 C260 166 267 180 276 198 L479 198 L489 221 L287 221 C326 306 354 378 394 500 C435 626 447 654 481 694 C514 733 560 756 604 756 C644 756 675 742 693 715 C714 684 721 679 738 679 C755 679 767 691 767 708 C767 749 704 781 625 781 C519 781 425 716 355 595 C305 508 276 431 213 226 L211 221 Z " />
<glyph glyph-name="currency" unicode="&#xa4;" horiz-adv-x="733" d="M72 102 L103 73 L204 165 C268 126 309 113 366 113 C424 113 469 127 530 166 L632 74 L664 102 L561 196 C605 256 618 289 618 342 C618 394 605 428 562 489 L665 583 L633 611 L531 519 C465 560 424 573 367 573 C307 573 253 556 201 519 L101 611 L69 582 L169 491 C128 430 113 388 113 339 C113 286 128 248 172 193 L72 102 Z M366 516 C476 516 562 439 562 340 C562 247 473 170 366 170 C258 170 170 247 170 343 C170 438 258 516 366 516 L366 516 Z " />
<glyph glyph-name="yen" unicode="&#xa5;" horiz-adv-x="542" d="M387 424 L234 424 L152 555 C133 585 127 598 127 610 C127 633 150 644 196 644 L202 644 L202 667 L-66 667 L-66 644 C-10 642 -4 637 60 528 L123 424 L-59 424 L-59 395 L140 395 L214 276 L-59 276 L-59 247 L229 247 L229 173 C230 36 223 23 141 23 L130 23 L130 0 L411 0 L411 23 L402 23 C320 23 312 36 314 173 L314 247 L602 247 L602 276 L323 276 L397 395 L602 395 L602 424 L414 424 L466 511 C521 607 550 634 609 644 L609 667 L393 667 L393 644 L398 644 C443 644 471 623 471 589 C471 569 467 559 439 512 L387 424 Z M369 395 L306 292 L249 395 L369 395 Z " />
<glyph glyph-name="brokenbar" unicode="&#xa6;" horiz-adv-x="550" d="M246 667 L246 333 L304 333 L304 667 L246 667 Z M246 153 L246 -167 L304 -167 L304 153 L246 153 Z " />
<glyph glyph-name="section" unicode="&#xa7;" horiz-adv-x="438" d="M202 357 C192 359 187 360 178 360 C97 360 37 304 37 227 C37 191 50 155 76 119 C99 87 124 64 187 18 C292 -58 320 -91 320 -142 C320 -189 281 -221 222 -221 C175 -221 153 -203 147 -158 C142 -125 133 -113 111 -113 C90 -113 77 -128 77 -150 C77 -201 137 -242 213 -242 C304 -242 363 -190 363 -110 C363 -77 352 -46 329 -16 C310 9 302 17 250 60 C247 62 243 65 240 68 C248 66 251 66 258 66 C338 66 397 124 397 202 C397 237 386 268 361 304 C338 337 321 352 234 419 C147 487 114 528 114 570 C114 615 154 646 212 646 C262 646 288 626 290 586 C291 559 307 541 330 541 C349 541 362 555 362 575 C362 625 297 667 220 667 C134 667 71 614 71 542 C71 494 101 441 153 399 C166 387 180 376 194 364 C195 364 197 361 202 357 L202 357 Z M181 339 C220 339 251 324 294 283 C339 239 360 202 360 166 C360 120 316 86 257 86 C212 86 184 101 137 149 C96 190 77 226 77 260 C77 307 119 339 181 339 L181 339 Z " />
<glyph glyph-name="dieresis" unicode="&#xa8;" horiz-adv-x="375" d="M74 622 C51 622 33 604 33 582 C33 559 51 541 74 541 C96 541 114 559 114 582 C114 604 96 622 74 622 L74 622 Z M302 622 C279 622 261 604 261 582 C261 559 279 541 302 541 C324 541 342 559 342 582 C342 604 324 622 302 622 L302 622 Z " />
<glyph glyph-name="copyright" unicode="&#xa9;" horiz-adv-x="884" d="M443 680 C232 680 61 525 61 334 C61 144 232 -13 438 -13 C654 -13 824 140 824 334 C824 525 653 680 443 680 L443 680 Z M443 649 C636 649 793 508 793 334 C793 157 637 18 438 18 C249 18 92 161 92 334 C92 508 249 649 443 649 L443 649 Z M594 294 C582 211 530 165 451 165 C365 165 309 230 309 331 C309 442 361 509 448 509 C529 509 580 463 594 378 L614 378 L610 523 L590 523 C589 507 585 493 577 479 C540 513 494 530 441 530 C323 530 240 448 240 330 C240 219 322 143 442 143 C497 143 540 160 578 196 C585 187 591 174 593 165 L595 159 L614 159 L614 294 L594 294 Z " />
<glyph glyph-name="ordfeminine" unicode="&#xaa;" horiz-adv-x="325" d="M295 317 C291 297 283 287 270 287 C263 287 258 291 255 299 C252 305 252 305 252 341 L252 444 C252 475 250 484 242 497 C226 522 196 535 151 535 C92 535 42 507 42 474 C42 462 51 454 64 454 C79 454 89 465 92 484 C96 508 110 517 145 517 C170 517 188 508 197 491 C201 483 202 476 202 451 L202 440 L154 420 C68 386 32 355 32 316 C32 284 60 260 99 260 C128 260 159 273 202 303 C211 272 225 260 255 260 C289 260 310 281 311 317 L295 317 Z M202 421 L202 324 C168 299 141 287 121 287 C99 287 84 304 84 328 C84 361 110 384 170 408 L202 421 Z " />
<glyph glyph-name="guillemotleft" unicode="&#xab;" horiz-adv-x="519" d="M36 215 L237 23 L267 23 L141 215 L267 403 L237 403 L36 215 Z M267 215 L468 23 L497 23 L372 215 L497 403 L468 403 L267 215 Z " />
<glyph glyph-name="logicalnot" unicode="&#xac;" horiz-adv-x="550" d="M418 0 L510 0 L510 267 L39 267 L39 227 L418 227 L418 0 Z " />
<glyph glyph-name="uni00AD" unicode="&#xad;" horiz-adv-x="346" d="M39 233 L39 186 L304 186 L304 233 L39 233 Z " />
<glyph glyph-name="registered" unicode="&#xae;" horiz-adv-x="884" d="M443 680 C232 680 61 525 61 334 C61 144 232 -13 438 -13 C654 -13 824 140 824 334 C824 525 653 680 443 680 L443 680 Z M443 649 C636 649 793 508 793 334 C793 157 637 18 438 18 C249 18 92 161 92 334 C92 508 249 649 443 649 L443 649 Z M251 150 L452 150 L452 169 L428 169 C380 169 377 175 378 249 L378 327 L391 327 C412 329 424 319 481 248 C518 199 552 162 572 150 L686 150 L686 169 L679 169 C638 170 609 189 561 247 C519 300 507 312 478 335 C548 348 585 381 585 430 C585 494 523 529 410 529 C394 529 366 528 318 526 L253 523 L253 504 L265 504 C316 505 319 502 318 429 L318 249 C319 174 316 170 268 169 L251 169 L251 150 Z M378 346 L378 507 C390 508 394 508 402 508 C487 508 519 486 519 426 C519 366 489 347 390 346 L378 346 Z " />
<glyph glyph-name="macron" unicode="&#xaf;" horiz-adv-x="368" d="M33 565 L334 565 L334 588 L33 588 L33 565 Z " />
<glyph glyph-name="degree" unicode="&#xb0;" horiz-adv-x="400" d="M203 686 C117 686 50 619 50 534 C50 448 116 381 200 381 C284 381 350 448 350 533 C350 619 286 686 203 686 L203 686 Z M202 629 C252 629 293 586 293 534 C293 480 252 438 200 438 C148 438 106 481 106 533 C106 587 148 629 202 629 L202 629 Z " />
<glyph glyph-name="plusminus" unicode="&#xb1;" horiz-adv-x="550" d="M25 362 L25 320 L253 320 L253 127 L297 127 L297 320 L524 320 L524 362 L297 362 L297 554 L253 554 L253 362 L25 362 Z M25 51 L25 9 L524 9 L524 51 L25 51 Z " />
<glyph glyph-name="twosuperior" unicode="&#xb2;" horiz-adv-x="349" d="M35 266 L241 266 C264 266 264 266 264 257 C264 253 264 253 261 244 L261 236 L286 236 L308 308 L96 308 C145 346 188 381 223 413 C292 475 312 506 312 552 C312 617 255 663 174 663 C99 663 39 619 39 563 C39 531 62 497 83 497 C96 497 119 514 119 524 C119 527 117 530 112 532 C87 546 78 558 78 577 C78 613 113 641 158 641 C217 641 251 607 251 549 C251 504 229 462 176 409 C130 362 79 319 35 289 L35 266 Z " />
<glyph glyph-name="threesuperior" unicode="&#xb3;" horiz-adv-x="349" d="M196 487 C274 530 298 554 298 589 C298 632 248 663 181 663 C109 663 54 625 54 575 C54 552 70 529 88 529 C100 529 120 539 120 545 C120 547 118 549 115 551 C99 563 94 572 94 587 C94 618 129 643 172 643 C212 643 237 621 237 584 C237 542 220 523 148 483 C112 463 108 460 108 452 C108 446 115 440 124 440 C129 440 133 441 137 445 C162 465 170 469 188 469 C227 469 252 435 252 384 C252 316 218 277 159 277 C128 277 110 288 101 312 C93 333 86 339 69 339 C53 339 41 329 41 316 C41 286 96 258 157 258 C248 258 313 310 313 382 C313 447 268 487 196 487 L196 487 Z " />
<glyph glyph-name="acute" unicode="&#xb4;" horiz-adv-x="529" d="M205 493 L221 493 L414 661 L314 661 L205 493 Z " />
<glyph glyph-name="mu" unicode="&#xb5;" horiz-adv-x="576" d="M442 500 L353 500 L354 131 C318 80 284 58 242 58 C184 58 150 99 150 169 L150 500 L62 500 L62 20 C62 -1 58 -26 51 -56 C34 -118 33 -123 33 -147 C33 -190 54 -219 83 -219 C112 -219 132 -189 132 -145 C132 -124 129 -110 113 -53 C102 -17 101 -8 101 21 L101 33 C143 -3 165 -13 200 -13 C250 -13 301 18 354 80 C362 48 367 36 377 21 C392 0 419 -13 449 -13 C510 -13 553 31 567 108 L540 109 C536 71 515 41 492 41 C462 41 442 77 442 131 L442 500 Z " />
<glyph glyph-name="paragraph" unicode="&#xb6;" horiz-adv-x="609" d="M572 667 L313 667 C191 667 186 666 148 652 C89 631 51 575 51 510 C51 462 72 418 107 389 C143 361 177 351 239 351 L288 351 L288 -1 C289 -65 284 -69 216 -70 L192 -70 L192 -93 L330 -93 L330 643 L437 643 L437 -93 L566 -93 L566 -70 L542 -70 C483 -70 479 -66 480 -3 L480 567 C480 638 485 644 550 644 L572 644 L572 667 Z M288 644 L288 379 L240 379 C160 379 112 427 112 508 C112 560 130 603 159 624 C179 637 208 644 248 644 L288 644 Z " />
<glyph glyph-name="periodcentered" unicode="&#xb7;" horiz-adv-x="300" d="M148 386 C116 386 90 362 90 334 C90 304 116 281 148 281 C180 281 206 305 206 334 C206 363 180 386 148 386 L148 386 Z " />
<glyph glyph-name="cedilla" unicode="&#xb8;" horiz-adv-x="550" d="M236 -96 C276 -99 297 -116 297 -146 C297 -176 271 -198 235 -198 C217 -198 201 -195 179 -188 L172 -206 C197 -214 224 -219 245 -219 C300 -219 344 -183 344 -137 C344 -94 314 -66 261 -59 L270 0 L252 0 L236 -96 Z " />
<glyph glyph-name="onesuperior" unicode="&#xb9;" horiz-adv-x="349" d="M184 663 C169 651 133 643 95 643 L95 623 L116 623 C154 623 155 621 154 558 L154 352 C154 288 154 288 116 287 L99 287 L99 267 L262 267 L262 287 L243 287 C204 288 204 289 205 352 L205 663 L184 663 Z " />
<glyph glyph-name="ordmasculine" unicode="&#xba;" horiz-adv-x="345" d="M173 535 C93 535 31 475 31 398 C31 316 90 257 173 257 C254 257 314 316 314 396 C314 475 253 535 173 535 L173 535 Z M173 517 C234 517 262 478 262 395 C262 312 234 275 172 275 C110 275 83 312 83 397 C83 478 112 517 173 517 L173 517 Z " />
<glyph glyph-name="guillemotright" unicode="&#xbb;" horiz-adv-x="519" d="M487 215 L286 403 L255 403 L382 215 L255 23 L286 23 L487 215 Z M255 215 L55 403 L26 403 L151 215 L26 23 L55 23 L255 215 Z " />
<glyph glyph-name="onequarter" unicode="&#xbc;" horiz-adv-x="865" d="M184 663 C169 651 133 643 95 643 L95 623 L116 623 C154 623 155 621 154 558 L154 352 C154 288 154 288 116 287 L99 287 L99 267 L262 267 L262 287 L243 287 C204 288 204 289 205 352 L205 663 L184 663 Z M272 0 L648 644 L615 644 L239 0 L272 0 Z M693 131 L693 85 C694 22 693 21 655 20 L637 20 L637 0 L797 0 L797 20 L785 20 C747 21 746 22 747 85 L747 131 L837 131 L846 183 L821 183 L818 175 C813 165 811 160 808 158 C803 155 803 155 774 155 L747 155 L747 396 L719 396 L522 152 L522 131 L693 131 Z M693 155 L555 155 L693 323 L693 155 Z " />
<glyph glyph-name="onehalf" unicode="&#xbd;" horiz-adv-x="865" d="M184 663 C169 651 133 643 95 643 L95 623 L116 623 C154 623 155 621 154 558 L154 352 C154 288 154 288 116 287 L99 287 L99 267 L262 267 L262 287 L243 287 C204 288 204 289 205 352 L205 663 L184 663 Z M250 0 L626 644 L593 644 L217 0 L250 0 Z M540 0 L746 0 C769 0 769 0 769 -9 C769 -13 769 -13 766 -22 L766 -30 L791 -30 L813 42 L601 42 C650 80 693 115 727 147 C797 209 817 240 817 286 C817 351 760 397 678 397 C604 397 544 353 544 297 C544 265 567 231 589 231 C601 231 625 248 625 258 C625 261 622 264 617 266 C592 280 583 292 583 311 C583 347 617 375 663 375 C722 375 756 341 756 283 C756 238 733 196 681 143 C634 95 584 53 540 23 L540 0 Z " />
<glyph glyph-name="threequarters" unicode="&#xbe;" horiz-adv-x="865" d="M196 487 C274 530 298 554 298 589 C298 632 248 663 181 663 C109 663 54 625 54 575 C54 552 70 529 88 529 C100 529 120 539 120 545 C120 547 118 549 115 551 C99 563 94 572 94 587 C94 618 129 643 172 643 C212 643 237 621 237 584 C237 542 220 523 148 483 C112 463 108 460 108 452 C108 446 115 440 124 440 C129 440 133 441 137 445 C162 465 170 469 188 469 C227 469 252 435 252 384 C252 316 218 277 159 277 C128 277 110 288 101 312 C93 333 86 339 69 339 C53 339 41 329 41 316 C41 286 96 258 157 258 C248 258 313 310 313 382 C313 447 268 487 196 487 L196 487 Z M279 0 L656 644 L622 644 L246 0 L279 0 Z M693 131 L693 85 C694 22 693 21 655 20 L637 20 L637 0 L797 0 L797 20 L785 20 C747 21 746 22 747 85 L747 131 L837 131 L846 183 L821 183 L818 175 C813 165 811 160 808 158 C804 155 803 155 775 155 L747 155 L747 396 L720 396 L523 152 L523 131 L693 131 Z M693 155 L555 155 L693 323 L693 155 Z " />
<glyph glyph-name="questiondown" unicode="&#xbf;" horiz-adv-x="438" d="M245 445 C213 445 186 421 186 393 C186 364 212 340 245 340 C277 340 303 364 303 393 C303 422 277 445 245 445 L245 445 Z M237 243 L237 76 C214 94 189 103 157 103 C73 103 10 38 10 -49 C10 -90 25 -132 51 -167 C83 -208 135 -231 199 -231 C274 -231 341 -198 341 -161 C341 -146 330 -136 314 -136 C298 -136 288 -143 279 -161 C260 -196 238 -209 199 -209 C173 -209 148 -200 127 -184 C99 -161 86 -127 86 -75 C86 22 117 74 175 74 C201 74 220 63 237 37 L259 37 L259 243 L237 243 Z " />
<glyph glyph-name="Agrave" unicode="&#xc0;" horiz-adv-x="727" d="M462 245 L519 122 C543 69 543 69 543 58 C543 44 534 33 520 28 C505 23 499 23 462 23 L453 23 L453 0 L742 0 L742 23 L735 23 C674 33 668 39 620 146 L375 677 L354 677 L141 213 C118 164 116 159 110 145 C92 106 88 97 83 88 C61 49 34 30 -5 24 L-15 23 L-15 0 L203 0 L203 23 L194 23 C153 23 123 48 123 84 C123 107 130 127 165 203 L184 245 L462 245 Z M453 268 L194 268 L324 552 L453 268 Z M324 847 L185 847 L405 724 L425 724 L324 847 Z " />
<glyph glyph-name="Aacute" unicode="&#xc1;" horiz-adv-x="727" d="M462 245 L519 122 C543 69 543 69 543 58 C543 44 534 33 520 28 C505 23 499 23 462 23 L453 23 L453 0 L742 0 L742 23 L735 23 C674 33 668 39 620 146 L375 677 L354 677 L141 213 C118 164 116 159 110 145 C92 106 88 97 83 88 C61 49 34 30 -5 24 L-15 23 L-15 0 L203 0 L203 23 L194 23 C153 23 123 48 123 84 C123 107 130 127 165 203 L184 245 L462 245 Z M453 268 L194 268 L324 552 L453 268 Z M427 847 L326 724 L346 724 L566 847 L427 847 Z " />
<glyph glyph-name="Acircumflex" unicode="&#xc2;" horiz-adv-x="727" d="M462 245 L519 122 C543 69 543 69 543 58 C543 44 534 33 520 28 C505 23 499 23 462 23 L453 23 L453 0 L742 0 L742 23 L735 23 C674 33 668 39 620 146 L375 677 L354 677 L141 213 C118 164 116 159 110 145 C92 106 88 97 83 88 C61 49 34 30 -5 24 L-15 23 L-15 0 L203 0 L203 23 L194 23 C153 23 123 48 123 84 C123 107 130 127 165 203 L184 245 L462 245 Z M453 268 L194 268 L324 552 L453 268 Z M327 856 L203 725 L221 725 L349 802 L515 725 L535 725 L412 856 L327 856 Z " />
<glyph glyph-name="Atilde" unicode="&#xc3;" horiz-adv-x="727" d="M462 245 L519 122 C543 69 543 69 543 58 C543 44 534 33 520 28 C505 23 499 23 462 23 L453 23 L453 0 L742 0 L742 23 L735 23 C674 33 668 39 620 146 L375 677 L354 677 L141 213 C118 164 116 159 110 145 C92 106 88 97 83 88 C61 49 34 30 -5 24 L-15 23 L-15 0 L203 0 L203 23 L194 23 C153 23 123 48 123 84 C123 107 130 127 165 203 L184 245 L462 245 Z M453 268 L194 268 L324 552 L453 268 Z M198 724 C205 765 221 782 253 782 C271 782 300 773 345 753 C389 733 418 725 445 725 C503 725 543 771 544 840 L528 840 C523 803 503 780 476 780 C454 780 421 790 388 807 C348 827 309 838 280 838 C226 838 183 787 183 724 L198 724 Z " />
<glyph glyph-name="Adieresis" unicode="&#xc4;" horiz-adv-x="727" d="M462 245 L519 122 C543 69 543 69 543 58 C543 44 534 33 520 28 C505 23 499 23 462 23 L453 23 L453 0 L742 0 L742 23 L735 23 C674 33 668 39 620 146 L375 677 L354 677 L141 213 C118 164 116 159 110 145 C92 106 88 97 83 88 C61 49 34 30 -5 24 L-15 23 L-15 0 L203 0 L203 23 L194 23 C153 23 123 48 123 84 C123 107 130 127 165 203 L184 245 L462 245 Z M453 268 L194 268 L324 552 L453 268 Z M228 826 C201 826 178 804 178 777 C178 748 200 726 228 726 C256 726 278 749 278 776 C278 804 256 826 228 826 L228 826 Z M499 826 C472 826 449 804 449 777 C449 748 471 726 499 726 C526 726 549 749 549 776 C549 804 527 826 499 826 L499 826 Z " />
<glyph glyph-name="Aring" unicode="&#xc5;" horiz-adv-x="727" d="M141 213 C117 162 116 159 110 145 C92 106 88 98 83 88 C61 49 34 30 -5 24 L-15 23 L-15 0 L203 0 L203 23 L194 23 C153 23 123 48 123 84 C123 107 130 127 165 203 L184 245 L462 245 L519 122 C543 69 543 69 543 58 C543 44 534 33 520 28 C505 23 499 23 462 23 L453 23 L453 0 L742 0 L742 23 L735 23 C674 33 668 39 620 146 L385 656 C429 667 457 703 457 747 C457 798 415 840 364 840 C312 840 270 798 270 747 C270 702 301 665 344 655 L141 213 Z M453 268 L194 268 L324 552 L453 268 Z M363 815 C401 815 431 785 431 747 C431 710 401 679 364 679 C326 679 296 709 296 748 C296 785 327 815 363 815 L363 815 Z " />
<glyph glyph-name="AE" unicode="&#xc6;" horiz-adv-x="960" d="M432 326 L432 173 C434 36 426 24 335 23 L318 23 L318 0 L922 0 L931 202 L907 202 C867 60 818 19 692 23 L641 23 C533 23 526 32 528 170 L528 326 L616 326 C695 327 713 309 714 232 L714 223 L740 223 L740 452 L714 452 L714 446 C711 365 693 347 613 349 L528 349 L528 644 L670 644 C774 647 812 616 844 502 L870 502 L851 667 L278 667 L278 644 L294 644 C362 644 378 639 378 620 C378 612 374 602 361 579 C354 568 348 557 343 547 L137 167 C87 76 39 31 -15 23 L-15 0 L216 0 L216 23 L213 23 C156 26 129 44 129 78 C129 94 135 110 158 152 L252 326 L432 326 Z M432 349 L265 349 L432 648 L432 349 Z " />
<glyph glyph-name="Ccedilla" unicode="&#xc7;" horiz-adv-x="798" d="M412 -12 C508 -14 595 22 659 87 C674 70 689 40 694 17 L717 17 L717 250 L694 250 C682 165 635 87 576 55 C531 30 479 16 428 16 C267 16 164 137 164 325 C164 531 261 654 422 654 C508 654 590 618 635 561 C663 525 682 477 694 414 L717 414 L711 667 L687 667 C684 640 673 605 659 581 C604 641 508 679 410 679 C301 679 205 640 142 571 C85 508 51 415 51 321 C51 130 183 1 389 -12 L369 -107 C422 -109 451 -129 451 -162 C451 -196 417 -220 369 -220 C344 -220 323 -217 293 -209 L284 -229 C317 -238 353 -243 381 -243 C456 -243 514 -203 514 -152 C514 -104 473 -73 403 -66 L412 -12 Z " />
<glyph glyph-name="Egrave" unicode="&#xc8;" horiz-adv-x="689" d="M630 207 C593 73 527 19 409 23 L353 23 C249 22 244 30 244 183 L244 340 L326 340 C417 342 434 327 436 244 L436 235 L462 235 L462 464 L436 464 L436 456 C437 379 419 364 323 364 L244 364 L244 644 L348 644 C494 648 533 622 564 500 L589 500 L572 667 L48 667 L48 644 L58 644 C142 644 150 632 148 500 L148 173 C150 36 141 24 48 23 L33 23 L33 0 L640 0 L656 207 L630 207 Z M326 847 L187 847 L407 724 L427 724 L326 847 Z " />
<glyph glyph-name="Eacute" unicode="&#xc9;" horiz-adv-x="689" d="M630 207 C593 73 527 19 409 23 L353 23 C249 22 244 30 244 183 L244 340 L326 340 C417 342 434 327 436 244 L436 235 L462 235 L462 464 L436 464 L436 456 C437 379 419 364 323 364 L244 364 L244 644 L348 644 C494 648 533 622 564 500 L589 500 L572 667 L48 667 L48 644 L58 644 C142 644 150 632 148 500 L148 173 C150 36 141 24 48 23 L33 23 L33 0 L640 0 L656 207 L630 207 Z M400 847 L299 724 L318 724 L539 847 L400 847 Z " />
<glyph glyph-name="Ecircumflex" unicode="&#xca;" horiz-adv-x="689" d="M630 207 C593 73 527 19 409 23 L353 23 C249 22 244 30 244 183 L244 340 L326 340 C417 342 434 327 436 244 L436 235 L462 235 L462 464 L436 464 L436 456 C437 379 419 364 323 364 L244 364 L244 644 L348 644 C494 648 533 622 564 500 L589 500 L572 667 L48 667 L48 644 L58 644 C142 644 150 632 148 500 L148 173 C150 36 141 24 48 23 L33 23 L33 0 L640 0 L656 207 L630 207 Z M310 856 L186 725 L204 725 L333 802 L498 725 L518 725 L395 856 L310 856 Z " />
<glyph glyph-name="Edieresis" unicode="&#xcb;" horiz-adv-x="689" d="M630 207 C593 73 527 19 409 23 L353 23 C249 22 244 30 244 183 L244 340 L326 340 C417 342 434 327 436 244 L436 235 L462 235 L462 464 L436 464 L436 456 C437 379 419 364 323 364 L244 364 L244 644 L348 644 C494 648 533 622 564 500 L589 500 L572 667 L48 667 L48 644 L58 644 C142 644 150 632 148 500 L148 173 C150 36 141 24 48 23 L33 23 L33 0 L640 0 L656 207 L630 207 Z M209 826 C182 826 159 804 159 777 C159 748 181 726 209 726 C236 726 259 749 259 776 C259 804 237 826 209 826 L209 826 Z M480 826 C453 826 430 804 430 777 C430 748 452 726 480 726 C507 726 530 749 530 776 C530 804 507 826 480 826 L480 826 Z " />
<glyph glyph-name="Igrave" unicode="&#xcc;" horiz-adv-x="401" d="M33 644 L50 644 C147 646 154 636 153 501 L153 173 C154 36 146 23 55 23 L33 23 L33 0 L368 0 L368 23 L346 23 C255 23 247 36 249 173 L249 501 C247 636 254 646 352 644 L368 644 L368 667 L33 667 L33 644 Z M199 847 L60 847 L280 724 L300 724 L199 847 Z " />
<glyph glyph-name="Iacute" unicode="&#xcd;" horiz-adv-x="401" d="M33 644 L50 644 C147 646 154 636 153 501 L153 173 C154 36 146 23 55 23 L33 23 L33 0 L368 0 L368 23 L346 23 C255 23 247 36 249 173 L249 501 C247 636 254 646 352 644 L368 644 L368 667 L33 667 L33 644 Z M279 847 L178 724 L198 724 L418 847 L279 847 Z " />
<glyph glyph-name="Icircumflex" unicode="&#xce;" horiz-adv-x="401" d="M33 644 L50 644 C147 646 154 636 153 501 L153 173 C154 36 146 23 55 23 L33 23 L33 0 L368 0 L368 23 L346 23 C255 23 247 36 249 173 L249 501 C247 636 254 646 352 644 L368 644 L368 667 L33 667 L33 644 Z M164 856 L40 725 L58 725 L186 802 L352 725 L372 725 L249 856 L164 856 Z " />
<glyph glyph-name="Idieresis" unicode="&#xcf;" horiz-adv-x="401" d="M33 644 L50 644 C147 646 154 636 153 501 L153 173 C154 36 146 23 55 23 L33 23 L33 0 L368 0 L368 23 L346 23 C255 23 247 36 249 173 L249 501 C247 636 254 646 352 644 L368 644 L368 667 L33 667 L33 644 Z M85 826 C57 826 35 804 35 777 C35 748 57 726 85 726 C112 726 135 749 135 776 C135 804 112 826 85 826 L85 826 Z M317 826 C289 826 267 804 267 777 C267 748 289 726 317 726 C344 726 367 749 367 776 C367 804 344 826 317 826 L317 826 Z " />
<glyph glyph-name="Eth" unicode="&#xd0;" horiz-adv-x="848" d="M163 317 L163 173 C164 36 156 23 66 23 L34 23 L34 0 L357 0 C494 0 531 4 599 29 C727 76 797 181 797 328 C797 461 737 564 626 623 C562 658 477 674 360 674 C304 674 293 674 70 663 L38 662 L38 639 L60 639 C157 641 164 631 163 495 L163 344 L33 344 L33 317 L163 317 Z M259 317 L450 317 L450 344 L259 344 L259 648 C291 649 316 650 352 650 C453 650 510 637 564 601 C645 547 690 448 690 319 C690 211 655 127 590 76 C541 38 483 23 379 23 C309 23 287 28 273 48 C260 68 259 80 259 202 L259 317 Z " />
<glyph glyph-name="Ntilde" unicode="&#xd1;" horiz-adv-x="841" d="M686 -15 L707 -15 L707 537 C703 608 729 635 813 644 L823 644 L823 667 L557 667 L557 644 L571 644 C660 638 686 615 683 544 L683 145 L247 667 L31 667 L31 644 L37 644 C132 646 140 636 141 501 L141 147 C141 86 140 77 132 64 C121 43 80 27 35 23 L22 23 L22 0 L295 0 L295 23 L287 23 C236 24 196 37 180 58 C167 76 167 76 165 147 L165 610 L686 -15 Z M265 724 C273 765 289 782 320 782 C338 782 368 773 413 753 C456 733 486 725 513 725 C571 725 610 771 612 840 L595 840 C591 803 570 780 543 780 C522 780 489 790 455 807 C415 827 376 838 347 838 C294 838 250 787 250 724 L265 724 Z " />
<glyph glyph-name="Ograve" unicode="&#xd2;" horiz-adv-x="901" d="M446 679 C216 679 51 538 51 341 C51 129 210 -12 450 -12 C688 -12 849 128 849 335 C849 437 805 532 733 589 C659 646 554 679 446 679 L446 679 Z M449 654 C524 654 592 632 640 592 C702 541 736 450 736 333 C736 127 636 13 454 13 C367 13 298 36 248 81 C195 129 164 222 164 337 C164 434 193 527 239 576 C285 625 362 654 449 654 L449 654 Z M417 847 L278 847 L498 724 L518 724 L417 847 Z " />
<glyph glyph-name="Oacute" unicode="&#xd3;" horiz-adv-x="901" d="M446 679 C216 679 51 538 51 341 C51 129 210 -12 450 -12 C688 -12 849 128 849 335 C849 437 805 532 733 589 C659 646 554 679 446 679 L446 679 Z M449 654 C524 654 592 632 640 592 C702 541 736 450 736 333 C736 127 636 13 454 13 C367 13 298 36 248 81 C195 129 164 222 164 337 C164 434 193 527 239 576 C285 625 362 654 449 654 L449 654 Z M508 847 L406 724 L426 724 L647 847 L508 847 Z " />
<glyph glyph-name="Ocircumflex" unicode="&#xd4;" horiz-adv-x="901" d="M446 679 C216 679 51 538 51 341 C51 129 210 -12 450 -12 C688 -12 849 128 849 335 C849 437 805 532 733 589 C659 646 554 679 446 679 L446 679 Z M449 654 C524 654 592 632 640 592 C702 541 736 450 736 333 C736 127 636 13 454 13 C367 13 298 36 248 81 C195 129 164 222 164 337 C164 434 193 527 239 576 C285 625 362 654 449 654 L449 654 Z M416 856 L291 725 L310 725 L438 802 L604 725 L623 725 L500 856 L416 856 Z " />
<glyph glyph-name="Otilde" unicode="&#xd5;" horiz-adv-x="901" d="M446 679 C216 679 51 538 51 341 C51 129 210 -12 450 -12 C688 -12 849 128 849 335 C849 437 805 532 733 589 C659 646 554 679 446 679 L446 679 Z M449 654 C524 654 592 632 640 592 C702 541 736 450 736 333 C736 127 636 13 454 13 C367 13 298 36 248 81 C195 129 164 222 164 337 C164 434 193 527 239 576 C285 625 362 654 449 654 L449 654 Z M293 724 C300 765 316 782 348 782 C366 782 396 773 440 753 C484 733 514 725 540 725 C598 725 638 771 639 840 L623 840 C618 803 598 780 571 780 C550 780 516 790 483 807 C443 827 404 838 375 838 C321 838 278 787 278 724 L293 724 Z " />
<glyph glyph-name="Odieresis" unicode="&#xd6;" horiz-adv-x="901" d="M446 679 C216 679 51 538 51 341 C51 129 210 -12 450 -12 C688 -12 849 128 849 335 C849 437 805 532 733 589 C659 646 554 679 446 679 L446 679 Z M449 654 C524 654 592 632 640 592 C702 541 736 450 736 333 C736 127 636 13 454 13 C367 13 298 36 248 81 C195 129 164 222 164 337 C164 434 193 527 239 576 C285 625 362 654 449 654 L449 654 Z M314 826 C287 826 264 804 264 777 C264 748 286 726 314 726 C342 726 364 749 364 776 C364 804 342 826 314 826 L314 826 Z M586 826 C559 826 536 804 536 777 C536 748 558 726 586 726 C613 726 636 749 636 776 C636 804 614 826 586 826 L586 826 Z " />
<glyph glyph-name="multiply" unicode="&#xd7;" horiz-adv-x="550" d="M101 529 L68 499 L242 341 L67 182 L101 152 L275 311 L449 152 L482 182 L307 340 L483 499 L449 530 L274 370 L101 529 Z " />
<glyph glyph-name="Oslash" unicode="&#xd8;" horiz-adv-x="901" d="M128 0 L147 -14 L207 50 C280 8 358 -12 450 -12 C688 -12 849 128 849 335 C849 443 802 539 723 597 L785 663 L765 678 L702 611 C632 654 539 679 445 679 C214 679 51 538 51 336 C51 223 99 128 188 64 L128 0 Z M225 104 C187 155 164 241 164 333 C164 434 192 526 239 576 C285 625 362 654 449 654 C538 654 615 624 664 571 L225 104 Z M679 551 C715 501 736 421 736 334 C736 127 636 13 454 13 C363 13 291 38 241 86 L679 551 Z " />
<glyph glyph-name="Ugrave" unicode="&#xd9;" horiz-adv-x="852" d="M584 667 L584 644 L590 644 C679 637 700 612 697 513 L697 286 L696 212 C694 173 685 143 670 118 C632 59 547 22 449 22 C367 22 297 52 266 100 C242 138 239 162 239 291 L239 501 C237 636 244 646 342 644 L356 644 L356 667 L22 667 L22 644 L40 644 C137 646 144 636 143 501 L143 293 L143 202 C146 149 156 117 178 86 C224 24 315 -12 428 -12 C504 -12 573 4 621 34 C680 70 709 116 718 184 C721 208 721 208 721 282 L721 504 C716 605 735 632 819 644 L829 644 L829 667 L584 667 Z M443 847 L304 847 L524 724 L544 724 L443 847 Z " />
<glyph glyph-name="Uacute" unicode="&#xda;" horiz-adv-x="852" d="M584 667 L584 644 L590 644 C679 637 700 612 697 513 L697 286 L696 212 C694 173 685 143 670 118 C632 59 547 22 449 22 C367 22 297 52 266 100 C242 138 239 162 239 291 L239 501 C237 636 244 646 342 644 L356 644 L356 667 L22 667 L22 644 L40 644 C137 646 144 636 143 501 L143 293 L143 202 C146 149 156 117 178 86 C224 24 315 -12 428 -12 C504 -12 573 4 621 34 C680 70 709 116 718 184 C721 208 721 208 721 282 L721 504 C716 605 735 632 819 644 L829 644 L829 667 L584 667 Z M519 847 L418 724 L438 724 L658 847 L519 847 Z " />
<glyph glyph-name="Ucircumflex" unicode="&#xdb;" horiz-adv-x="852" d="M584 667 L584 644 L590 644 C679 637 700 612 697 513 L697 286 L696 212 C694 173 685 143 670 118 C632 59 547 22 449 22 C367 22 297 52 266 100 C242 138 239 162 239 291 L239 501 C237 636 244 646 342 644 L356 644 L356 667 L22 667 L22 644 L40 644 C137 646 144 636 143 501 L143 293 L143 202 C146 149 156 117 178 86 C224 24 315 -12 428 -12 C504 -12 573 4 621 34 C680 70 709 116 718 184 C721 208 721 208 721 282 L721 504 C716 605 735 632 819 644 L829 644 L829 667 L584 667 Z M418 856 L294 725 L313 725 L441 802 L607 725 L626 725 L503 856 L418 856 Z " />
<glyph glyph-name="Udieresis" unicode="&#xdc;" horiz-adv-x="852" d="M584 667 L584 644 L590 644 C679 637 700 612 697 513 L697 286 L696 212 C694 173 685 143 670 118 C632 59 547 22 449 22 C367 22 297 52 266 100 C242 138 239 162 239 291 L239 501 C237 636 244 646 342 644 L356 644 L356 667 L22 667 L22 644 L40 644 C137 646 144 636 143 501 L143 293 L143 202 C146 149 156 117 178 86 C224 24 315 -12 428 -12 C504 -12 573 4 621 34 C680 70 709 116 718 184 C721 208 721 208 721 282 L721 504 C716 605 735 632 819 644 L829 644 L829 667 L584 667 Z M322 826 C294 826 272 804 272 777 C272 748 294 726 322 726 C349 726 372 749 372 776 C372 804 349 826 322 826 L322 826 Z M593 826 C566 826 544 804 544 777 C544 748 566 726 594 726 C621 726 644 749 644 776 C644 804 621 826 593 826 L593 826 Z " />
<glyph glyph-name="Yacute" unicode="&#xdd;" horiz-adv-x="721" d="M398 292 L227 555 C202 593 200 598 200 610 C200 633 225 644 276 644 L282 644 L282 667 L-15 667 L-15 644 L-7 644 C49 640 55 635 125 529 L313 256 L313 173 C315 36 306 23 215 23 L203 23 L203 0 L516 0 L516 23 L506 23 C414 23 406 36 408 173 L408 262 L577 511 C638 607 664 630 727 643 L735 644 L735 667 L496 667 L496 644 L501 644 C551 644 583 623 583 589 C583 569 578 559 547 512 L398 292 Z M457 847 L356 724 L376 724 L596 847 L457 847 Z " />
<glyph glyph-name="Thorn" unicode="&#xde;" horiz-adv-x="641" d="M369 667 L33 667 L33 644 L47 644 C145 646 152 636 151 501 L151 174 C152 36 144 23 53 23 L33 23 L33 0 L369 0 L369 23 L344 23 C259 23 246 38 247 141 L247 154 L330 154 C430 154 482 162 522 183 C578 212 612 268 612 332 C612 411 564 470 479 494 C425 510 387 513 247 513 L247 524 C246 628 259 645 344 644 L369 644 L369 667 Z M247 179 L247 488 C266 490 277 490 302 490 C377 490 416 482 448 461 C486 435 508 387 508 331 C508 275 485 231 442 205 C409 185 377 179 301 179 L247 179 Z " />
<glyph glyph-name="germandbls" unicode="&#xdf;" horiz-adv-x="579" d="M97 138 L97 107 C97 90 97 79 96 75 C96 57 94 50 89 42 C79 28 63 22 28 23 L16 23 L16 0 L238 0 L238 23 L234 23 C169 25 166 31 168 138 L168 418 C168 545 168 549 179 583 C194 630 239 656 302 656 C384 656 428 606 428 512 C428 423 383 380 291 380 C286 380 282 380 273 381 L273 359 L302 359 C328 359 353 355 374 347 C435 324 457 270 457 145 C457 56 440 19 398 19 C383 19 373 24 358 39 C338 60 328 65 313 65 C296 65 284 54 284 40 C284 14 318 -5 363 -5 C467 -5 539 70 539 179 C539 284 475 354 361 372 C402 383 426 393 447 408 C486 437 510 480 510 524 C510 613 425 677 307 677 C234 677 173 649 135 599 C103 557 97 526 97 418 L97 138 Z " />
<glyph glyph-name="agrave" unicode="&#xe0;" horiz-adv-x="519" d="M488 74 C482 43 466 26 443 26 C430 26 419 33 414 47 C409 58 409 58 409 115 L409 278 C409 327 406 341 393 360 C366 400 316 419 241 419 C180 419 133 407 99 383 C74 365 60 345 60 327 C60 310 74 298 93 298 C116 298 133 314 137 343 C141 364 142 367 151 376 C164 390 194 398 230 398 C274 398 307 383 322 355 C330 341 331 330 331 289 L331 269 L247 238 C103 184 43 136 43 76 C43 26 89 -10 153 -10 C201 -10 256 12 331 60 C341 12 368 -10 417 -10 C471 -10 506 22 508 74 L488 74 Z M331 246 L331 87 C277 48 226 26 192 26 C152 26 125 54 125 95 C125 147 169 186 272 224 L331 246 Z M333 493 L224 661 L122 661 L317 493 L333 493 Z " />
<glyph glyph-name="aacute" unicode="&#xe1;" horiz-adv-x="519" d="M488 74 C482 43 466 26 443 26 C430 26 419 33 414 47 C409 58 409 58 409 115 L409 278 C409 327 406 341 393 360 C366 400 316 419 241 419 C180 419 133 407 99 383 C74 365 60 345 60 327 C60 310 74 298 93 298 C116 298 133 314 137 343 C141 364 142 367 151 376 C164 390 194 398 230 398 C274 398 307 383 322 355 C330 341 331 330 331 289 L331 269 L247 238 C103 184 43 136 43 76 C43 26 89 -10 153 -10 C201 -10 256 12 331 60 C341 12 368 -10 417 -10 C471 -10 506 22 508 74 L488 74 Z M331 246 L331 87 C277 48 226 26 192 26 C152 26 125 54 125 95 C125 147 169 186 272 224 L331 246 Z M235 493 L252 493 L444 661 L344 661 L235 493 Z " />
<glyph glyph-name="acircumflex" unicode="&#xe2;" horiz-adv-x="519" d="M488 74 C482 43 466 26 443 26 C430 26 419 33 414 47 C409 58 409 58 409 115 L409 278 C409 327 406 341 393 360 C366 400 316 419 241 419 C180 419 133 407 99 383 C74 365 60 345 60 327 C60 310 74 298 93 298 C116 298 133 314 137 343 C141 364 142 367 151 376 C164 390 194 398 230 398 C274 398 307 383 322 355 C330 341 331 330 331 289 L331 269 L247 238 C103 184 43 136 43 76 C43 26 89 -10 153 -10 C201 -10 256 12 331 60 C341 12 368 -10 417 -10 C471 -10 506 22 508 74 L488 74 Z M331 246 L331 87 C277 48 226 26 192 26 C152 26 125 54 125 95 C125 147 169 186 272 224 L331 246 Z M244 596 L352 496 L372 496 L279 661 L230 661 L141 496 L161 496 L244 596 Z " />
<glyph glyph-name="atilde" unicode="&#xe3;" horiz-adv-x="519" d="M488 74 C482 43 466 26 443 26 C430 26 419 33 414 47 C409 58 409 58 409 115 L409 278 C409 327 406 341 393 360 C366 400 316 419 241 419 C180 419 133 407 99 383 C74 365 60 345 60 327 C60 310 74 298 93 298 C116 298 133 314 137 343 C141 364 142 367 151 376 C164 390 194 398 230 398 C274 398 307 383 322 355 C330 341 331 330 331 289 L331 269 L247 238 C103 184 43 136 43 76 C43 26 89 -10 153 -10 C201 -10 256 12 331 60 C341 12 368 -10 417 -10 C471 -10 506 22 508 74 L488 74 Z M331 246 L331 87 C277 48 226 26 192 26 C152 26 125 54 125 95 C125 147 169 186 272 224 L331 246 Z M125 524 C128 568 145 592 174 592 C186 592 198 587 214 574 C270 530 284 523 317 523 C348 523 374 536 391 560 C406 579 411 601 411 639 L397 639 C396 595 378 570 347 570 C331 570 320 576 292 597 C246 633 232 639 204 639 C147 639 109 592 110 524 L125 524 Z " />
<glyph glyph-name="adieresis" unicode="&#xe4;" horiz-adv-x="519" d="M488 74 C482 43 466 26 443 26 C430 26 419 33 414 47 C409 58 409 58 409 115 L409 278 C409 327 406 341 393 360 C366 400 316 419 241 419 C180 419 133 407 99 383 C74 365 60 345 60 327 C60 310 74 298 93 298 C116 298 133 314 137 343 C141 364 142 367 151 376 C164 390 194 398 230 398 C274 398 307 383 322 355 C330 341 331 330 331 289 L331 269 L247 238 C103 184 43 136 43 76 C43 26 89 -10 153 -10 C201 -10 256 12 331 60 C341 12 368 -10 417 -10 C471 -10 506 22 508 74 L488 74 Z M331 246 L331 87 C277 48 226 26 192 26 C152 26 125 54 125 95 C125 147 169 186 272 224 L331 246 Z M133 622 C110 622 92 604 92 582 C92 559 110 541 133 541 C155 541 173 559 173 582 C173 604 155 622 133 622 L133 622 Z M361 622 C338 622 320 604 320 582 C320 559 338 541 361 541 C383 541 401 559 401 582 C401 604 383 622 361 622 L361 622 Z " />
<glyph glyph-name="aring" unicode="&#xe5;" horiz-adv-x="519" d="M488 74 C482 43 466 26 443 26 C430 26 419 33 414 47 C409 58 409 58 409 115 L409 278 C409 327 406 341 393 360 C366 400 316 419 241 419 C180 419 133 407 99 383 C74 365 60 345 60 327 C60 310 74 298 93 298 C116 298 133 314 137 343 C141 364 142 367 151 376 C164 390 194 398 230 398 C274 398 307 383 322 355 C330 341 331 330 331 289 L331 269 L247 238 C103 184 43 136 43 76 C43 26 89 -10 153 -10 C201 -10 256 12 331 60 C341 12 368 -10 417 -10 C471 -10 506 22 508 74 L488 74 Z M331 246 L331 87 C277 48 226 26 192 26 C152 26 125 54 125 95 C125 147 169 186 272 224 L331 246 Z M257 668 C208 668 168 628 168 580 C168 530 208 490 257 490 C306 490 346 530 346 579 C346 628 306 668 257 668 L257 668 Z M257 640 C291 640 318 613 318 579 C318 545 291 518 257 518 C223 518 196 545 196 580 C196 613 224 640 257 640 L257 640 Z " />
<glyph glyph-name="ae" unicode="&#xe6;" horiz-adv-x="709" d="M668 266 C660 307 650 332 630 355 C595 397 544 419 482 419 C428 419 391 405 354 370 C310 405 269 419 214 419 C159 419 113 405 78 378 C58 362 48 346 48 331 C48 314 61 303 82 303 C105 303 120 320 129 354 C137 385 160 398 208 398 C239 398 265 388 277 370 C288 355 292 335 292 287 L292 266 C244 251 175 224 142 208 C76 176 40 131 40 83 C40 29 91 -16 152 -16 C205 -16 260 17 305 78 C340 16 401 -16 481 -16 C565 -16 630 20 659 82 L638 90 C612 39 563 11 505 11 C455 11 414 37 394 80 C378 115 370 166 370 240 L370 266 L668 266 Z M370 287 C375 323 382 342 396 359 C417 384 445 397 477 397 C538 397 573 358 576 287 L370 287 Z M292 99 C260 55 221 29 189 29 C145 29 114 61 114 107 C114 167 167 208 292 245 L292 99 Z " />
<glyph glyph-name="ccedilla" unicode="&#xe7;" horiz-adv-x="474" d="M266 -16 C363 -14 426 26 448 98 L424 98 C405 42 355 10 284 10 C233 10 190 28 165 59 C139 93 122 153 122 215 C122 336 172 396 271 396 C319 396 338 385 346 351 C354 318 365 307 393 307 C413 307 428 321 428 341 C428 382 356 419 274 419 C142 419 40 322 40 197 C40 79 123 -6 248 -15 L234 -96 C275 -99 296 -116 296 -146 C296 -176 270 -198 234 -198 C216 -198 199 -195 177 -188 L170 -206 C195 -214 223 -219 243 -219 C299 -219 343 -183 343 -137 C343 -94 313 -66 259 -59 L266 -16 Z " />
<glyph glyph-name="egrave" unicode="&#xe8;" horiz-adv-x="482" d="M441 266 C436 354 358 419 256 419 C132 419 40 325 40 198 C40 76 134 -16 260 -16 C346 -16 418 26 441 90 L415 90 C387 38 337 10 271 10 C224 10 184 29 158 63 C136 93 122 149 122 213 C122 233 123 244 127 266 L441 266 Z M131 286 C141 325 147 339 158 353 C179 381 214 398 251 398 C282 398 307 387 324 365 C337 347 343 329 347 286 L131 286 Z M342 493 L233 661 L131 661 L326 493 L342 493 Z " />
<glyph glyph-name="eacute" unicode="&#xe9;" horiz-adv-x="482" d="M441 266 C436 354 358 419 256 419 C132 419 40 325 40 198 C40 76 134 -16 260 -16 C346 -16 418 26 441 90 L415 90 C387 38 337 10 271 10 C224 10 184 29 158 63 C136 93 122 149 122 213 C122 233 123 244 127 266 L441 266 Z M131 286 C141 325 147 339 158 353 C179 381 214 398 251 398 C282 398 307 387 324 365 C337 347 343 329 347 286 L131 286 Z M225 493 L242 493 L434 661 L334 661 L225 493 Z " />
<glyph glyph-name="ecircumflex" unicode="&#xea;" horiz-adv-x="482" d="M441 266 C436 354 358 419 256 419 C132 419 40 325 40 198 C40 76 134 -16 260 -16 C346 -16 418 26 441 90 L415 90 C387 38 337 10 271 10 C224 10 184 29 158 63 C136 93 122 149 122 213 C122 233 123 244 127 266 L441 266 Z M131 286 C141 325 147 339 158 353 C179 381 214 398 251 398 C282 398 307 387 324 365 C337 347 343 329 347 286 L131 286 Z M247 596 L355 496 L375 496 L282 661 L233 661 L144 496 L163 496 L247 596 Z " />
<glyph glyph-name="edieresis" unicode="&#xeb;" horiz-adv-x="482" d="M441 266 C436 354 358 419 256 419 C132 419 40 325 40 198 C40 76 134 -16 260 -16 C346 -16 418 26 441 90 L415 90 C387 38 337 10 271 10 C224 10 184 29 158 63 C136 93 122 149 122 213 C122 233 123 244 127 266 L441 266 Z M131 286 C141 325 147 339 158 353 C179 381 214 398 251 398 C282 398 307 387 324 365 C337 347 343 329 347 286 L131 286 Z M146 622 C123 622 105 604 105 582 C105 559 123 541 146 541 C168 541 186 559 186 582 C186 604 168 622 146 622 L146 622 Z M374 622 C351 622 333 604 333 582 C333 559 351 541 374 541 C396 541 414 559 414 582 C414 604 396 622 374 622 L374 622 Z " />
<glyph glyph-name="igrave" unicode="&#xec;" horiz-adv-x="277" d="M175 419 L164 419 C143 411 65 397 17 393 L17 370 L32 370 C98 371 104 363 104 260 L104 138 L104 107 L103 75 C103 57 101 50 96 42 C86 28 70 22 36 23 L17 23 L17 0 L255 0 L255 23 L244 23 C176 24 173 30 175 138 L175 419 Z M197 493 L88 661 L-14 661 L181 493 L197 493 Z " />
<glyph glyph-name="iacute" unicode="&#xed;" horiz-adv-x="277" d="M175 419 L164 419 C143 411 67 398 17 393 L17 370 L32 370 C98 371 104 363 104 260 L104 138 L104 107 L103 75 C103 57 101 50 96 42 C86 28 70 22 36 23 L17 23 L17 0 L255 0 L255 23 L244 23 C176 24 173 30 175 138 L175 419 Z M102 493 L118 493 L311 661 L211 661 L102 493 Z " />
<glyph glyph-name="icircumflex" unicode="&#xee;" horiz-adv-x="277" d="M175 419 L164 419 C143 411 67 398 17 393 L17 370 L32 370 C98 371 104 363 104 260 L104 138 L104 107 L103 75 C103 57 101 50 96 42 C86 28 70 22 36 23 L17 23 L17 0 L255 0 L255 23 L244 23 C176 24 173 30 175 138 L175 419 Z M122 596 L230 496 L249 496 L157 661 L107 661 L19 496 L38 496 L122 596 Z " />
<glyph glyph-name="idieresis" unicode="&#xef;" horiz-adv-x="277" d="M176 419 L165 419 C144 411 66 397 18 393 L18 370 L33 370 C99 371 105 363 105 260 L105 138 L105 107 L104 75 C104 57 102 50 97 42 C87 28 71 22 37 23 L18 23 L18 0 L256 0 L256 23 L245 23 C177 24 174 30 176 138 L176 419 Z M42 622 C19 622 1 604 1 582 C1 559 19 541 42 541 C64 541 82 559 82 582 C82 604 64 622 42 622 L42 622 Z M211 622 C188 622 170 604 170 582 C170 559 188 541 211 541 C233 541 251 559 251 582 C251 604 233 622 211 622 L211 622 Z " />
<glyph glyph-name="eth" unicode="&#xf0;" horiz-adv-x="554" d="M143 641 C198 609 206 604 253 567 L105 496 L116 476 L273 550 C335 494 377 436 398 377 C362 410 327 422 274 422 C141 422 40 327 40 202 C40 79 141 -12 277 -12 C330 -12 379 3 421 32 C483 75 513 136 513 216 C513 351 453 474 335 580 L456 638 L444 656 L316 596 C288 616 271 628 252 641 C229 656 215 664 184 679 L143 641 Z M276 400 C313 400 353 388 377 369 C414 339 430 293 430 212 C430 132 416 79 386 50 C362 26 316 10 273 10 C173 10 121 75 121 200 C121 332 174 400 276 400 L276 400 Z " />
<glyph glyph-name="ntilde" unicode="&#xf1;" horiz-adv-x="588" d="M152 419 C105 407 77 401 31 396 L31 374 L39 374 C107 372 110 367 108 258 L108 138 C109 29 107 24 39 23 L31 23 L31 0 L255 0 L255 23 L248 23 C179 24 176 30 178 138 L178 303 C222 360 270 388 325 388 C360 388 388 375 404 353 C416 335 418 326 418 268 L418 138 L417 75 C416 57 415 50 410 42 C400 27 383 22 349 23 L338 23 L338 0 L565 0 L565 23 L558 23 C490 24 487 30 489 138 L489 264 C489 329 486 343 470 368 C448 400 404 419 349 419 C287 419 228 391 178 336 C178 362 171 406 165 419 L152 419 Z M161 524 C165 568 182 592 211 592 C223 592 234 587 251 574 C307 530 321 523 354 523 C384 523 411 536 428 560 C442 579 448 601 448 639 L434 639 C432 595 415 570 384 570 C368 570 356 576 328 597 C282 633 269 639 240 639 C184 639 146 592 147 524 L161 524 Z " />
<glyph glyph-name="ograve" unicode="&#xf2;" horiz-adv-x="553" d="M276 419 C143 419 40 326 40 205 C40 133 69 71 121 32 C160 3 222 -16 276 -16 C412 -16 512 76 512 201 C512 326 411 419 276 419 L276 419 Z M276 396 C381 396 430 333 430 198 C430 66 382 6 276 6 C169 6 122 66 122 201 C122 333 172 396 276 396 L276 396 Z M352 493 L244 661 L141 661 L336 493 L352 493 Z " />
<glyph glyph-name="oacute" unicode="&#xf3;" horiz-adv-x="553" d="M276 419 C143 419 40 326 40 205 C40 133 69 71 121 32 C160 3 222 -16 276 -16 C412 -16 512 76 512 201 C512 326 411 419 276 419 L276 419 Z M276 396 C381 396 430 333 430 198 C430 66 382 6 276 6 C169 6 122 66 122 201 C122 333 172 396 276 396 L276 396 Z M240 493 L256 493 L449 661 L349 661 L240 493 Z " />
<glyph glyph-name="ocircumflex" unicode="&#xf4;" horiz-adv-x="553" d="M276 419 C143 419 40 326 40 205 C40 133 69 71 121 32 C160 3 222 -16 276 -16 C412 -16 512 76 512 201 C512 326 411 419 276 419 L276 419 Z M276 396 C381 396 430 333 430 198 C430 66 382 6 276 6 C169 6 122 66 122 201 C122 333 172 396 276 396 L276 396 Z M268 596 L376 496 L396 496 L303 661 L254 661 L165 496 L184 496 L268 596 Z " />
<glyph glyph-name="otilde" unicode="&#xf5;" horiz-adv-x="553" d="M276 419 C143 419 40 326 40 205 C40 133 69 71 121 32 C160 3 222 -16 276 -16 C412 -16 512 76 512 201 C512 326 411 419 276 419 L276 419 Z M276 396 C381 396 430 333 430 198 C430 66 382 6 276 6 C169 6 122 66 122 201 C122 333 172 396 276 396 L276 396 Z M142 524 C145 568 163 592 192 592 C203 592 215 587 231 574 C288 530 302 523 335 523 C365 523 391 536 409 560 C423 579 428 601 429 639 L414 639 C413 595 395 570 365 570 C349 570 337 576 309 597 C263 633 250 639 221 639 C164 639 127 592 127 524 L142 524 Z " />
<glyph glyph-name="odieresis" unicode="&#xf6;" horiz-adv-x="553" d="M276 419 C143 419 40 326 40 205 C40 133 69 71 121 32 C160 3 222 -16 276 -16 C412 -16 512 76 512 201 C512 326 411 419 276 419 L276 419 Z M276 396 C381 396 430 333 430 198 C430 66 382 6 276 6 C169 6 122 66 122 201 C122 333 172 396 276 396 L276 396 Z M167 622 C144 622 126 604 126 582 C126 559 144 541 167 541 C189 541 207 559 207 582 C207 604 189 622 167 622 L167 622 Z M395 622 C372 622 354 604 354 582 C354 559 372 541 395 541 C417 541 435 559 435 582 C435 604 417 622 395 622 L395 622 Z " />
<glyph glyph-name="divide" unicode="&#xf7;" horiz-adv-x="550" d="M25 362 L25 320 L524 320 L524 362 L25 362 Z M276 211 C244 211 218 187 218 159 C218 130 244 106 276 106 C308 106 334 130 334 159 C334 188 308 211 276 211 L276 211 Z M276 569 C244 569 218 545 218 517 C218 487 244 464 276 464 C308 464 334 488 334 517 C334 545 308 569 276 569 L276 569 Z " />
<glyph glyph-name="oslash" unicode="&#xf8;" horiz-adv-x="553" d="M492 420 L475 433 L421 376 C376 406 331 419 276 419 C141 419 40 326 40 202 C40 140 64 83 107 44 L50 -16 L67 -29 L124 31 C164 2 223 -16 276 -16 C412 -16 512 76 512 201 C512 266 487 319 437 363 L492 420 Z M406 329 C421 298 430 252 430 198 C430 66 382 6 276 6 C220 6 179 24 152 61 L406 329 Z M141 81 C129 109 122 149 122 199 C122 333 171 396 276 396 C327 396 370 378 394 348 L141 81 Z " />
<glyph glyph-name="ugrave" unicode="&#xf9;" horiz-adv-x="577" d="M477 403 L326 403 L326 380 L338 380 C406 379 409 373 407 265 L407 174 C407 116 401 99 372 68 C341 36 298 17 259 17 C229 17 201 29 186 47 C174 62 171 76 171 124 L171 403 L24 403 L24 380 L31 380 C99 379 102 373 100 265 L100 128 C100 84 105 60 117 40 C138 7 187 -16 238 -16 C303 -16 366 19 407 78 C408 33 413 2 424 -16 L430 -16 C458 -5 492 -1 548 0 L548 23 L544 23 C478 25 475 31 477 139 L477 403 Z M365 493 L256 661 L154 661 L348 493 L365 493 Z " />
<glyph glyph-name="uacute" unicode="&#xfa;" horiz-adv-x="577" d="M477 403 L326 403 L326 380 L338 380 C406 379 409 373 407 265 L407 174 C407 116 401 99 372 68 C341 36 298 17 259 17 C229 17 201 29 186 47 C174 62 171 76 171 124 L171 403 L24 403 L24 380 L31 380 C99 379 102 373 100 265 L100 128 C100 84 105 60 117 40 C138 7 187 -16 238 -16 C303 -16 366 19 407 78 C408 33 413 2 424 -16 L430 -16 C458 -5 492 -1 548 0 L548 23 L544 23 C478 25 475 31 477 139 L477 403 Z M261 493 L277 493 L470 661 L370 661 L261 493 Z " />
<glyph glyph-name="ucircumflex" unicode="&#xfb;" horiz-adv-x="577" d="M477 403 L326 403 L326 380 L338 380 C406 379 409 373 407 265 L407 174 C407 116 401 99 372 68 C341 36 298 17 259 17 C229 17 201 29 186 47 C174 62 171 76 171 124 L171 403 L24 403 L24 380 L31 380 C99 379 102 373 100 265 L100 128 C100 84 105 60 117 40 C138 7 187 -16 238 -16 C303 -16 366 19 407 78 C408 33 413 2 424 -16 L430 -16 C458 -5 492 -1 548 0 L548 23 L544 23 C478 25 475 31 477 139 L477 403 Z M283 596 L390 496 L410 496 L317 661 L268 661 L179 496 L199 496 L283 596 Z " />
<glyph glyph-name="udieresis" unicode="&#xfc;" horiz-adv-x="577" d="M477 403 L326 403 L326 380 L338 380 C406 379 409 373 407 265 L407 174 C407 116 401 99 372 68 C341 36 298 17 259 17 C229 17 201 29 186 47 C174 62 171 76 171 124 L171 403 L24 403 L24 380 L31 380 C99 379 102 373 100 265 L100 128 C100 84 105 60 117 40 C138 7 187 -16 238 -16 C303 -16 366 19 407 78 C408 33 413 2 424 -16 L430 -16 C458 -5 492 -1 548 0 L548 23 L544 23 C478 25 475 31 477 139 L477 403 Z M175 622 C152 622 134 604 134 582 C134 559 152 541 175 541 C197 541 215 559 215 582 C215 604 197 622 175 622 L175 622 Z M403 622 C380 622 362 604 362 582 C362 559 380 541 403 541 C425 541 443 559 443 582 C443 604 425 622 403 622 L403 622 Z " />
<glyph glyph-name="yacute" unicode="&#xfd;" horiz-adv-x="508" d="M287 76 L165 312 C147 347 144 353 144 360 C144 373 159 379 192 380 L197 380 L197 403 L-6 403 L-6 380 L3 380 C43 378 53 369 80 315 L247 -10 L205 -106 C189 -140 184 -144 139 -162 C99 -179 83 -195 83 -219 C83 -236 97 -248 118 -248 C154 -248 179 -221 215 -141 L413 292 C443 362 457 376 502 380 L507 380 L507 403 L352 403 L352 380 L360 380 C391 380 412 369 412 355 C412 347 412 347 389 300 L287 76 Z M252 493 L269 493 L461 661 L361 661 L252 493 Z " />
<glyph glyph-name="thorn" unicode="&#xfe;" horiz-adv-x="574" d="M145 677 C99 664 31 653 2 652 L2 629 L19 629 C86 628 89 622 87 514 L87 -110 L87 -142 C87 -158 87 -169 86 -173 C86 -192 84 -198 79 -206 C69 -221 53 -226 19 -225 L2 -225 L2 -248 L234 -248 L234 -225 L227 -225 C159 -224 156 -218 158 -110 L158 44 C209 0 250 -16 309 -16 C441 -16 534 76 534 207 C534 331 444 419 318 419 C259 419 203 396 158 353 L158 677 L145 677 Z M158 321 C203 369 245 390 298 390 C329 390 360 380 386 362 C431 331 452 282 452 208 C452 139 434 86 401 54 C372 26 333 10 294 10 C243 10 201 31 158 76 L158 321 Z " />
<glyph glyph-name="ydieresis" unicode="&#xff;" horiz-adv-x="508" d="M287 76 L165 312 C147 347 144 353 144 360 C144 373 159 379 192 380 L197 380 L197 403 L-6 403 L-6 380 L3 380 C43 378 53 369 80 315 L247 -10 L205 -106 C189 -140 184 -144 139 -162 C99 -179 83 -195 83 -219 C83 -236 97 -248 118 -248 C154 -248 179 -221 215 -141 L413 292 C443 362 457 376 502 380 L507 380 L507 403 L352 403 L352 380 L360 380 C391 380 412 369 412 355 C412 347 412 347 389 300 L287 76 Z M150 622 C127 622 109 604 109 582 C109 559 127 541 150 541 C172 541 190 559 190 582 C190 604 172 622 150 622 L150 622 Z M378 622 C355 622 337 604 337 582 C337 559 355 541 378 541 C400 541 418 559 418 582 C418 604 400 622 378 622 L378 622 Z " />
<glyph glyph-name="Amacron" unicode="&#x100;" horiz-adv-x="727" d="M462 245 L519 122 C543 69 543 69 543 58 C543 44 534 33 520 28 C505 23 499 23 462 23 L453 23 L453 0 L742 0 L742 23 L735 23 C674 33 668 39 620 146 L375 677 L354 677 L141 213 C118 164 116 159 110 145 C92 106 88 97 83 88 C61 49 34 30 -5 24 L-15 23 L-15 0 L203 0 L203 23 L194 23 C153 23 123 48 123 84 C123 107 130 127 165 203 L184 245 L462 245 Z M453 268 L194 268 L324 552 L453 268 Z M189 792 L189 764 L537 764 L537 792 L189 792 Z " />
<glyph glyph-name="amacron" unicode="&#x101;" horiz-adv-x="519" d="M488 74 C482 43 466 26 443 26 C430 26 419 33 414 47 C409 58 409 58 409 115 L409 278 C409 327 406 341 393 360 C366 400 316 419 241 419 C180 419 133 407 99 383 C74 365 60 345 60 327 C60 310 74 298 93 298 C116 298 133 314 137 343 C141 364 142 367 151 376 C164 390 194 398 230 398 C274 398 307 383 322 355 C330 341 331 330 331 289 L331 269 L247 238 C103 184 43 136 43 76 C43 26 89 -10 153 -10 C201 -10 256 12 331 60 C341 12 368 -10 417 -10 C471 -10 506 22 508 74 L488 74 Z M331 246 L331 87 C277 48 226 26 192 26 C152 26 125 54 125 95 C125 147 169 186 272 224 L331 246 Z M94 565 L395 565 L395 588 L94 588 L94 565 Z " />
<glyph glyph-name="Abreve" unicode="&#x102;" horiz-adv-x="727" d="M462 245 L519 122 C543 69 543 69 543 58 C543 44 534 33 520 28 C505 23 499 23 462 23 L453 23 L453 0 L742 0 L742 23 L735 23 C674 33 668 39 620 146 L375 677 L354 677 L141 213 C118 164 116 159 110 145 C92 106 88 97 83 88 C61 49 34 30 -5 24 L-15 23 L-15 0 L203 0 L203 23 L194 23 C153 23 123 48 123 84 C123 107 130 127 165 203 L184 245 L462 245 Z M453 268 L194 268 L324 552 L453 268 Z M210 865 C227 771 284 714 361 714 C441 714 507 777 518 865 L505 865 C477 820 421 791 363 791 C305 791 261 814 223 865 L210 865 Z " />
<glyph glyph-name="abreve" unicode="&#x103;" horiz-adv-x="519" d="M488 74 C482 43 466 26 443 26 C430 26 419 33 414 47 C409 58 409 58 409 115 L409 278 C409 327 406 341 393 360 C366 400 316 419 241 419 C180 419 133 407 99 383 C74 365 60 345 60 327 C60 310 74 298 93 298 C116 298 133 314 137 343 C141 364 142 367 151 376 C164 390 194 398 230 398 C274 398 307 383 322 355 C330 341 331 330 331 289 L331 269 L247 238 C103 184 43 136 43 76 C43 26 89 -10 153 -10 C201 -10 256 12 331 60 C341 12 368 -10 417 -10 C471 -10 506 22 508 74 L488 74 Z M331 246 L331 87 C277 48 226 26 192 26 C152 26 125 54 125 95 C125 147 169 186 272 224 L331 246 Z M133 651 C143 564 192 510 261 510 C329 510 380 565 388 651 L372 651 C353 602 320 580 264 580 C200 580 164 602 149 651 L133 651 Z " />
<glyph glyph-name="Aogonek" unicode="&#x104;" horiz-adv-x="727" d="M742 0 L742 23 L735 23 C674 33 668 39 620 146 L375 677 L354 677 L141 213 C118 164 116 159 110 145 C92 106 88 97 83 88 C61 49 34 30 -5 24 L-15 23 L-15 0 L203 0 L203 23 L194 23 C153 23 123 48 123 84 C123 107 130 127 165 203 L184 245 L462 245 L519 122 C543 69 543 69 543 58 C543 44 534 33 520 28 C505 23 499 23 462 23 L453 23 L453 0 L605 0 C559 -23 529 -63 529 -101 C529 -149 578 -184 646 -184 C686 -184 717 -175 760 -151 L750 -133 C718 -143 702 -146 680 -146 C633 -146 600 -119 600 -82 C600 -52 616 -25 647 0 L742 0 Z M453 268 L194 268 L324 552 L453 268 Z " />
<glyph glyph-name="aogonek" unicode="&#x105;" horiz-adv-x="519" d="M488 74 C482 43 466 26 443 26 C430 26 419 33 414 47 C409 58 409 58 409 115 L409 278 C409 327 406 341 393 360 C366 400 316 419 241 419 C180 419 133 407 99 383 C74 365 60 345 60 327 C60 310 74 298 93 298 C116 298 133 314 137 343 C141 364 142 367 151 376 C164 390 194 398 230 398 C274 398 307 383 322 355 C330 341 331 330 331 289 L331 269 L247 238 C103 184 43 136 43 76 C43 26 89 -10 153 -10 C201 -10 256 12 331 60 C337 28 350 9 375 -2 C336 -23 311 -58 311 -92 C311 -136 353 -168 410 -168 C444 -168 471 -160 507 -138 L500 -123 C476 -131 463 -134 443 -134 C400 -134 373 -111 373 -75 C373 -51 384 -28 403 -9 C408 -10 411 -10 417 -10 C471 -10 506 22 508 74 L488 74 Z M331 246 L331 87 C277 48 226 26 192 26 C152 26 125 54 125 95 C125 147 169 186 272 224 L331 246 Z " />
<glyph glyph-name="Cacute" unicode="&#x106;" horiz-adv-x="798" d="M694 250 C682 165 635 87 576 55 C531 30 479 16 428 16 C267 16 164 137 164 325 C164 531 261 654 422 654 C508 654 590 618 635 561 C663 525 682 477 694 414 L717 414 L711 667 L687 667 C684 640 673 605 659 581 C604 641 508 679 410 679 C301 679 205 640 142 571 C85 509 51 415 51 322 C51 124 198 -12 412 -12 C512 -12 594 21 659 87 C674 70 689 40 694 17 L717 17 L717 250 L694 250 Z M469 847 L368 724 L388 724 L608 847 L469 847 Z " />
<glyph glyph-name="cacute" unicode="&#x107;" horiz-adv-x="474" d="M424 98 C405 42 355 10 284 10 C233 10 190 28 165 59 C139 93 122 153 122 215 C122 336 172 396 271 396 C319 396 338 385 346 351 C354 318 365 307 393 307 C413 307 428 321 428 341 C428 382 356 419 274 419 C142 419 40 322 40 197 C40 73 134 -16 265 -16 C359 -16 423 24 448 98 L424 98 Z M233 493 L249 493 L442 661 L342 661 L233 493 Z " />
<glyph glyph-name="Ccircumflex" unicode="&#x108;" horiz-adv-x="798" d="M694 250 C682 165 635 87 576 55 C531 30 479 16 428 16 C267 16 164 137 164 325 C164 531 261 654 422 654 C508 654 590 618 635 561 C663 525 682 477 694 414 L717 414 L711 667 L687 667 C684 640 673 605 659 581 C604 641 508 679 410 679 C301 679 205 640 142 571 C85 509 51 415 51 322 C51 124 198 -12 412 -12 C512 -12 594 21 659 87 C674 70 689 40 694 17 L717 17 L717 250 L694 250 Z M377 856 L253 725 L271 725 L400 802 L565 725 L585 725 L462 856 L377 856 Z " />
<glyph glyph-name="Cdotaccent" unicode="&#x10a;" horiz-adv-x="798" d="M694 250 C682 165 635 87 576 55 C531 30 479 16 428 16 C267 16 164 137 164 325 C164 531 261 654 422 654 C508 654 590 618 635 561 C663 525 682 477 694 414 L717 414 L711 667 L687 667 C684 640 673 605 659 581 C604 641 508 679 410 679 C301 679 205 640 142 571 C85 509 51 415 51 322 C51 124 198 -12 412 -12 C512 -12 594 21 659 87 C674 70 689 40 694 17 L717 17 L717 250 L694 250 Z M424 826 C397 826 374 804 374 777 C374 748 396 726 424 726 C452 726 474 749 474 776 C474 804 452 826 424 826 L424 826 Z " />
<glyph glyph-name="cdotaccent" unicode="&#x10b;" horiz-adv-x="474" d="M424 98 C405 42 355 10 284 10 C233 10 190 28 165 59 C139 93 122 153 122 215 C122 336 172 396 271 396 C319 396 338 385 346 351 C354 318 365 307 393 307 C413 307 428 321 428 341 C428 382 356 419 274 419 C142 419 40 322 40 197 C40 73 134 -16 265 -16 C359 -16 423 24 448 98 L424 98 Z M280 622 C257 622 239 604 239 582 C239 559 257 541 280 541 C302 541 320 559 320 582 C320 604 302 622 280 622 L280 622 Z " />
<glyph glyph-name="Ccaron" unicode="&#x10c;" horiz-adv-x="798" d="M694 250 C682 165 635 87 576 55 C531 30 479 16 428 16 C267 16 164 137 164 325 C164 531 261 654 422 654 C508 654 590 618 635 561 C663 525 682 477 694 414 L717 414 L711 667 L687 667 C684 640 673 605 659 581 C604 641 508 679 410 679 C301 679 205 640 142 571 C85 509 51 415 51 322 C51 124 198 -12 412 -12 C512 -12 594 21 659 87 C674 70 689 40 694 17 L717 17 L717 250 L694 250 Z M463 725 L587 856 L568 856 L440 779 L274 856 L255 856 L378 725 L463 725 Z " />
<glyph glyph-name="ccaron" unicode="&#x10d;" horiz-adv-x="474" d="M424 98 C405 42 355 10 284 10 C233 10 190 28 165 59 C139 93 122 153 122 215 C122 336 172 396 271 396 C319 396 338 385 346 351 C354 318 365 307 393 307 C413 307 428 321 428 341 C428 382 356 419 274 419 C142 419 40 322 40 197 C40 73 134 -16 265 -16 C359 -16 423 24 448 98 L424 98 Z M287 557 L179 657 L160 657 L252 492 L302 492 L390 657 L371 657 L287 557 Z " />
<glyph glyph-name="Dcaron" unicode="&#x10e;" horiz-adv-x="847" d="M36 639 L59 639 C157 641 164 631 163 495 L163 173 C164 36 156 23 65 23 L33 23 L33 0 L355 0 C493 0 530 4 597 29 C726 77 796 181 796 328 C796 461 736 564 625 623 C561 658 475 674 355 674 C316 674 271 673 188 669 C118 665 80 664 36 662 L36 639 Z M259 648 C293 649 319 650 352 650 C453 650 509 637 564 601 C645 547 689 448 689 320 C689 211 655 127 590 76 C540 38 482 23 379 23 C309 23 287 28 273 48 C260 68 259 80 259 202 L259 648 Z M430 725 L554 856 L535 856 L407 779 L241 856 L222 856 L345 725 L430 725 Z " />
<glyph glyph-name="dcaron" unicode="&#x10f;" horiz-adv-x="659" d="M419 360 C375 397 314 419 257 419 C132 419 39 325 39 199 C39 79 133 -16 252 -16 C313 -16 368 7 424 57 C423 52 423 47 423 46 C423 22 425 3 429 -16 C469 -9 526 -4 567 -3 L567 19 L559 19 C491 21 488 26 490 135 L490 677 L480 677 C437 665 377 656 339 656 L339 633 L350 633 C418 632 421 626 419 518 L419 360 Z M419 84 C379 38 327 13 272 13 C178 13 121 85 121 203 C121 322 174 388 269 388 C321 388 366 371 419 331 L419 84 Z M541 464 C610 478 652 524 652 586 C652 639 621 677 578 677 C548 677 527 658 527 631 C527 605 547 587 576 587 C580 587 584 587 586 588 C598 592 598 592 602 592 C614 592 620 583 620 568 C620 530 589 499 541 487 L541 464 Z " />
<glyph glyph-name="Dcroat" unicode="&#x110;" horiz-adv-x="848" d="M163 317 L163 173 C164 36 156 23 66 23 L34 23 L34 0 L357 0 C494 0 531 4 599 29 C727 76 797 181 797 328 C797 461 737 564 626 623 C562 658 477 674 360 674 C304 674 293 674 70 663 L38 662 L38 639 L60 639 C157 641 164 631 163 495 L163 344 L33 344 L33 317 L163 317 Z M259 317 L450 317 L450 344 L259 344 L259 648 C291 649 316 650 352 650 C453 650 510 637 564 601 C645 547 690 448 690 319 C690 211 655 127 590 76 C541 38 483 23 379 23 C309 23 287 28 273 48 C260 68 259 80 259 202 L259 317 Z " />
<glyph glyph-name="dcroat" unicode="&#x111;" horiz-adv-x="578" d="M419 519 L419 360 C374 397 314 419 257 419 C132 419 39 325 39 199 C39 80 133 -16 252 -16 C313 -16 368 7 424 57 C423 52 423 47 423 46 C423 22 425 3 429 -16 C469 -9 526 -4 567 -3 L567 19 L559 19 C491 21 488 26 490 135 L490 519 L567 519 L567 542 L490 542 L490 677 L480 677 C438 665 377 656 339 656 L339 633 L350 633 C410 633 420 621 419 556 L419 542 L240 542 L240 519 L419 519 Z M419 84 C379 38 327 13 272 13 C178 13 121 85 121 203 C121 322 174 388 269 388 C321 388 366 371 419 331 L419 84 Z " />
<glyph glyph-name="Emacron" unicode="&#x112;" horiz-adv-x="689" d="M630 207 C593 73 527 19 409 23 L353 23 C249 22 244 30 244 183 L244 340 L326 340 C417 342 434 327 436 244 L436 235 L462 235 L462 464 L436 464 L436 456 C437 379 419 364 323 364 L244 364 L244 644 L348 644 C494 648 533 622 564 500 L589 500 L572 667 L48 667 L48 644 L58 644 C142 644 150 632 148 500 L148 173 C150 36 141 24 48 23 L33 23 L33 0 L640 0 L656 207 L630 207 Z M170 792 L170 764 L518 764 L518 792 L170 792 Z " />
<glyph glyph-name="emacron" unicode="&#x113;" horiz-adv-x="482" d="M441 266 C436 354 358 419 256 419 C132 419 40 325 40 198 C40 76 134 -16 260 -16 C346 -16 418 26 441 90 L415 90 C387 38 337 10 271 10 C224 10 184 29 158 63 C136 93 122 149 122 213 C122 233 123 244 127 266 L441 266 Z M131 286 C141 325 147 339 158 353 C179 381 214 398 251 398 C282 398 307 387 324 365 C337 347 343 329 347 286 L131 286 Z M101 565 L402 565 L402 588 L101 588 L101 565 Z " />
<glyph glyph-name="Ebreve" unicode="&#x114;" horiz-adv-x="689" d="M630 207 C593 73 527 19 409 23 L353 23 C249 22 244 30 244 183 L244 340 L326 340 C417 342 434 327 436 244 L436 235 L462 235 L462 464 L436 464 L436 456 C437 379 419 364 323 364 L244 364 L244 644 L348 644 C494 648 533 622 564 500 L589 500 L572 667 L48 667 L48 644 L58 644 C142 644 150 632 148 500 L148 173 C150 36 141 24 48 23 L33 23 L33 0 L640 0 L656 207 L630 207 Z M208 865 C225 771 282 714 358 714 C439 714 505 777 516 865 L503 865 C475 820 418 791 361 791 C302 791 259 814 220 865 L208 865 Z " />
<glyph glyph-name="ebreve" unicode="&#x115;" horiz-adv-x="482" d="M441 266 C436 354 358 419 256 419 C132 419 40 325 40 198 C40 76 134 -16 260 -16 C346 -16 418 26 441 90 L415 90 C387 38 337 10 271 10 C224 10 184 29 158 63 C136 93 122 149 122 213 C122 233 123 244 127 266 L441 266 Z M131 286 C141 325 147 339 158 353 C179 381 214 398 251 398 C282 398 307 387 324 365 C337 347 343 329 347 286 L131 286 Z M132 651 C141 564 190 510 259 510 C328 510 378 565 387 651 L371 651 C352 602 318 580 262 580 C198 580 163 602 147 651 L132 651 Z " />
<glyph glyph-name="Edotaccent" unicode="&#x116;" horiz-adv-x="689" d="M630 207 C593 73 527 19 409 23 L353 23 C249 22 244 30 244 183 L244 340 L326 340 C417 342 434 327 436 244 L436 235 L462 235 L462 464 L436 464 L436 456 C437 379 419 364 323 364 L244 364 L244 644 L348 644 C494 648 533 622 564 500 L589 500 L572 667 L48 667 L48 644 L58 644 C142 644 150 632 148 500 L148 173 C150 36 141 24 48 23 L33 23 L33 0 L640 0 L656 207 L630 207 Z M351 826 C324 826 301 804 301 777 C301 748 323 726 351 726 C378 726 401 749 401 776 C401 804 379 826 351 826 L351 826 Z " />
<glyph glyph-name="edotaccent" unicode="&#x117;" horiz-adv-x="482" d="M441 266 C436 354 358 419 256 419 C132 419 40 325 40 198 C40 76 134 -16 260 -16 C346 -16 418 26 441 90 L415 90 C387 38 337 10 271 10 C224 10 184 29 158 63 C136 93 122 149 122 213 C122 233 123 244 127 266 L441 266 Z M131 286 C141 325 147 339 158 353 C179 381 214 398 251 398 C282 398 307 387 324 365 C337 347 343 329 347 286 L131 286 Z M262 622 C239 622 221 604 221 582 C221 559 239 541 262 541 C284 541 302 559 302 582 C302 604 284 622 262 622 L262 622 Z " />
<glyph glyph-name="Eogonek" unicode="&#x118;" horiz-adv-x="689" d="M640 0 L656 207 L630 207 C593 73 527 19 409 23 L353 23 C249 22 244 30 244 183 L244 340 L326 340 C417 342 434 327 436 244 L436 235 L462 235 L462 464 L436 464 L436 456 C437 379 419 364 323 364 L244 364 L244 644 L348 644 C494 648 533 622 564 500 L589 500 L572 667 L48 667 L48 644 L58 644 C142 644 150 632 148 500 L148 173 C150 36 141 24 48 23 L33 23 L33 0 L481 0 C435 -23 405 -63 405 -101 C405 -149 454 -184 521 -184 C561 -184 593 -175 636 -151 L626 -133 C594 -143 577 -146 556 -146 C509 -146 476 -119 476 -82 C476 -52 492 -25 523 0 L640 0 Z " />
<glyph glyph-name="eogonek" unicode="&#x119;" horiz-adv-x="482" d="M415 90 C387 38 337 10 271 10 C224 10 184 29 158 63 C136 93 122 149 122 213 C122 233 123 244 127 266 L441 266 C436 354 358 419 256 419 C132 419 40 325 40 198 C40 75 134 -16 261 -16 C268 -16 272 -16 279 -15 C251 -38 236 -65 236 -93 C236 -136 278 -168 335 -168 C369 -168 396 -160 432 -138 L425 -123 C401 -131 387 -134 368 -134 C325 -134 298 -111 298 -75 C298 -49 309 -27 333 -4 C387 12 427 48 441 90 L415 90 Z M131 286 C141 325 147 339 158 353 C179 381 214 398 251 398 C282 398 307 387 324 365 C337 347 343 329 347 286 L131 286 Z " />
<glyph glyph-name="Ecaron" unicode="&#x11a;" horiz-adv-x="689" d="M630 207 C593 73 527 19 409 23 L353 23 C249 22 244 30 244 183 L244 340 L326 340 C417 342 434 327 436 244 L436 235 L462 235 L462 464 L436 464 L436 456 C437 379 419 364 323 364 L244 364 L244 644 L348 644 C494 648 533 622 564 500 L589 500 L572 667 L48 667 L48 644 L58 644 C142 644 150 632 148 500 L148 173 C150 36 141 24 48 23 L33 23 L33 0 L640 0 L656 207 L630 207 Z M387 725 L511 856 L493 856 L364 779 L199 856 L179 856 L302 725 L387 725 Z " />
<glyph glyph-name="ecaron" unicode="&#x11b;" horiz-adv-x="482" d="M441 266 C436 354 358 419 256 419 C132 419 40 325 40 198 C40 76 134 -16 260 -16 C346 -16 418 26 441 90 L415 90 C387 38 337 10 271 10 C224 10 184 29 158 63 C136 93 122 149 122 213 C122 233 123 244 127 266 L441 266 Z M131 286 C141 325 147 339 158 353 C179 381 214 398 251 398 C282 398 307 387 324 365 C337 347 343 329 347 286 L131 286 Z M273 557 L165 657 L146 657 L238 492 L288 492 L376 657 L357 657 L273 557 Z " />
<glyph glyph-name="Gcircumflex" unicode="&#x11c;" horiz-adv-x="847" d="M505 285 L505 261 L523 261 C597 264 613 249 614 178 L614 152 C614 104 597 71 559 47 C523 24 476 12 428 12 C359 12 289 38 245 80 C190 132 163 218 163 337 C163 447 184 523 228 573 C276 626 348 656 427 656 C564 656 666 569 687 432 L713 432 L713 655 L687 655 C684 630 675 600 664 581 C599 648 520 680 421 680 C318 680 228 647 163 586 C94 521 51 418 51 321 C51 129 206 -12 418 -12 C477 -12 517 -5 587 20 C633 35 670 43 696 43 C703 43 709 42 720 41 L720 112 C718 248 726 261 813 261 L821 261 L821 285 L505 285 Z M398 856 L273 725 L292 725 L420 802 L586 725 L605 725 L482 856 L398 856 Z " />
<glyph glyph-name="gcircumflex" unicode="&#x11d;" horiz-adv-x="519" d="M379 368 C345 400 292 419 236 419 C135 419 55 354 55 272 C55 215 90 166 158 129 C94 119 59 90 59 48 C59 -5 111 -27 247 -32 C324 -35 345 -38 374 -49 C411 -63 430 -89 430 -125 C430 -188 363 -228 258 -228 C146 -228 75 -189 75 -128 C75 -103 86 -82 114 -57 C107 -55 104 -55 98 -55 C57 -55 31 -81 31 -123 C31 -198 121 -248 255 -248 C394 -248 480 -193 480 -103 C480 -59 457 -20 418 3 C385 22 338 31 252 35 C170 39 158 40 141 44 C111 50 99 58 99 73 C99 100 135 113 215 116 C272 117 300 123 334 139 C389 165 421 213 421 270 C421 299 412 328 393 355 C409 371 426 380 439 380 C450 380 454 377 464 362 C472 349 483 342 495 342 C513 342 527 356 527 374 C527 397 504 415 472 415 C441 415 410 399 379 368 L379 368 Z M235 396 C266 396 296 384 316 363 C336 343 345 314 345 268 C345 184 307 138 237 138 C167 138 129 182 129 264 C129 349 167 396 235 396 L235 396 Z M235 596 L343 496 L363 496 L270 661 L221 661 L132 496 L151 496 L235 596 Z " />
<glyph glyph-name="Gbreve" unicode="&#x11e;" horiz-adv-x="847" d="M505 285 L505 261 L523 261 C597 264 613 249 614 178 L614 152 C614 104 597 71 559 47 C523 24 476 12 428 12 C359 12 289 38 245 80 C190 132 163 218 163 337 C163 447 184 523 228 573 C276 626 348 656 427 656 C564 656 666 569 687 432 L713 432 L713 655 L687 655 C684 630 675 600 664 581 C599 648 520 680 421 680 C318 680 228 647 163 586 C94 521 51 418 51 321 C51 129 206 -12 418 -12 C477 -12 517 -5 587 20 C633 35 670 43 696 43 C703 43 709 42 720 41 L720 112 C718 248 726 261 813 261 L821 261 L821 285 L505 285 Z M270 865 C287 771 344 714 421 714 C501 714 567 777 578 865 L565 865 C538 820 481 791 423 791 C365 791 322 814 283 865 L270 865 Z " />
<glyph glyph-name="gbreve" unicode="&#x11f;" horiz-adv-x="519" d="M379 368 C345 400 292 419 236 419 C135 419 55 354 55 272 C55 215 90 166 158 129 C94 119 59 90 59 48 C59 -5 111 -27 247 -32 C324 -35 345 -38 374 -49 C411 -63 430 -89 430 -125 C430 -188 363 -228 258 -228 C146 -228 75 -189 75 -128 C75 -103 86 -82 114 -57 C107 -55 104 -55 98 -55 C57 -55 31 -81 31 -123 C31 -198 121 -248 255 -248 C394 -248 480 -193 480 -103 C480 -59 457 -20 418 3 C385 22 338 31 252 35 C170 39 158 40 141 44 C111 50 99 58 99 73 C99 100 135 113 215 116 C272 117 300 123 334 139 C389 165 421 213 421 270 C421 299 412 328 393 355 C409 371 426 380 439 380 C450 380 454 377 464 362 C472 349 483 342 495 342 C513 342 527 356 527 374 C527 397 504 415 472 415 C441 415 410 399 379 368 L379 368 Z M235 396 C266 396 296 384 316 363 C336 343 345 314 345 268 C345 184 307 138 237 138 C167 138 129 182 129 264 C129 349 167 396 235 396 L235 396 Z M118 651 C127 564 176 510 245 510 C314 510 364 565 373 651 L357 651 C338 602 304 580 248 580 C184 580 149 602 133 651 L118 651 Z " />
<glyph glyph-name="Gdotaccent" unicode="&#x120;" horiz-adv-x="847" d="M505 285 L505 261 L523 261 C597 264 613 249 614 178 L614 152 C614 104 597 71 559 47 C523 24 476 12 428 12 C359 12 289 38 245 80 C190 132 163 218 163 337 C163 447 184 523 228 573 C276 626 348 656 427 656 C564 656 666 569 687 432 L713 432 L713 655 L687 655 C684 630 675 600 664 581 C599 648 520 680 421 680 C318 680 228 647 163 586 C94 521 51 418 51 321 C51 129 206 -12 418 -12 C477 -12 517 -5 587 20 C633 35 670 43 696 43 C703 43 709 42 720 41 L720 112 C718 248 726 261 813 261 L821 261 L821 285 L505 285 Z M422 826 C395 826 372 804 372 777 C372 748 394 726 422 726 C450 726 472 749 472 776 C472 804 450 826 422 826 L422 826 Z " />
<glyph glyph-name="gdotaccent" unicode="&#x121;" horiz-adv-x="519" d="M379 368 C345 400 292 419 236 419 C135 419 55 354 55 272 C55 215 90 166 158 129 C94 119 59 90 59 48 C59 -5 111 -27 247 -32 C324 -35 345 -38 374 -49 C411 -63 430 -89 430 -125 C430 -188 363 -228 258 -228 C146 -228 75 -189 75 -128 C75 -103 86 -82 114 -57 C107 -55 104 -55 98 -55 C57 -55 31 -81 31 -123 C31 -198 121 -248 255 -248 C394 -248 480 -193 480 -103 C480 -59 457 -20 418 3 C385 22 338 31 252 35 C170 39 158 40 141 44 C111 50 99 58 99 73 C99 100 135 113 215 116 C272 117 300 123 334 139 C389 165 421 213 421 270 C421 299 412 328 393 355 C409 371 426 380 439 380 C450 380 454 377 464 362 C472 349 483 342 495 342 C513 342 527 356 527 374 C527 397 504 415 472 415 C441 415 410 399 379 368 L379 368 Z M235 396 C266 396 296 384 316 363 C336 343 345 314 345 268 C345 184 307 138 237 138 C167 138 129 182 129 264 C129 349 167 396 235 396 L235 396 Z M252 622 C229 622 211 604 211 582 C211 559 229 541 252 541 C274 541 292 559 292 582 C292 604 274 622 252 622 L252 622 Z " />
<glyph glyph-name="Gcommaaccent" unicode="&#x122;" horiz-adv-x="847" d="M505 285 L505 261 L523 261 C597 264 613 249 614 178 L614 152 C614 104 597 71 559 47 C523 24 476 12 428 12 C359 12 289 38 245 80 C190 132 163 218 163 337 C163 447 184 523 228 573 C276 626 348 656 427 656 C564 656 666 569 687 432 L713 432 L713 655 L687 655 C684 630 675 600 664 581 C599 648 520 680 421 680 C318 680 228 647 163 586 C94 521 51 418 51 321 C51 129 206 -12 418 -12 C477 -12 517 -5 587 20 C633 35 670 43 696 43 C703 43 709 42 720 41 L720 112 C718 248 726 261 813 261 L821 261 L821 285 L505 285 Z M370 -286 C444 -271 488 -222 488 -157 C488 -100 454 -59 407 -59 C373 -59 351 -79 351 -110 C351 -138 373 -157 405 -157 C409 -157 413 -157 415 -156 C429 -152 429 -152 434 -152 C446 -152 453 -162 453 -180 C453 -218 421 -249 370 -262 L370 -286 Z " />
<glyph glyph-name="gcommaaccent" unicode="&#x123;" horiz-adv-x="519" d="M379 368 C345 400 292 419 236 419 C135 419 55 354 55 272 C55 215 90 166 158 129 C94 119 59 90 59 48 C59 -5 111 -27 247 -32 C324 -35 345 -38 374 -49 C411 -63 430 -89 430 -125 C430 -188 363 -228 258 -228 C146 -228 75 -189 75 -128 C75 -103 86 -82 114 -57 C107 -55 104 -55 98 -55 C57 -55 31 -81 31 -123 C31 -198 121 -248 255 -248 C394 -248 480 -193 480 -103 C480 -59 457 -20 418 3 C385 22 338 31 252 35 C170 39 158 40 141 44 C111 50 99 58 99 73 C99 100 135 113 215 116 C272 117 300 123 334 139 C389 165 421 213 421 270 C421 299 412 328 393 355 C409 371 426 380 439 380 C450 380 454 377 464 362 C472 349 483 342 495 342 C513 342 527 356 527 374 C527 397 504 415 472 415 C441 415 410 399 379 368 L379 368 Z M235 396 C266 396 296 384 316 363 C336 343 345 314 345 268 C345 184 307 138 237 138 C167 138 129 182 129 264 C129 349 167 396 235 396 L235 396 Z M290 681 C220 666 178 621 178 559 C178 507 209 469 253 469 C283 469 304 488 304 515 C304 540 284 558 254 558 C250 558 247 558 245 557 C232 554 232 554 228 554 C217 554 210 563 210 578 C210 616 241 646 290 658 L290 681 Z " />
<glyph glyph-name="Hcircumflex" unicode="&#x124;" horiz-adv-x="883" d="M639 334 L639 173 C641 36 633 23 542 23 L516 23 L516 0 L850 0 L850 23 L832 23 C741 23 733 36 735 173 L735 500 C733 636 740 646 838 644 L850 644 L850 667 L516 667 L516 644 L536 644 C634 646 641 636 639 500 L639 368 L246 368 L246 500 C244 636 251 646 349 644 L363 644 L363 667 L33 667 L33 644 L47 644 C145 646 152 636 150 500 L150 173 C152 36 144 23 53 23 L33 23 L33 0 L363 0 L363 23 L343 23 C252 23 244 36 246 173 L246 334 L639 334 Z M411 856 L287 725 L306 725 L434 802 L600 725 L619 725 L496 856 L411 856 Z " />
<glyph glyph-name="Hbar" unicode="&#x126;" horiz-adv-x="883" d="M150 443 L150 173 C152 36 144 23 53 23 L33 23 L33 0 L363 0 L363 23 L343 23 C252 23 244 36 246 173 L246 334 L639 334 L639 173 C641 36 633 23 542 23 L516 23 L516 0 L850 0 L850 23 L832 23 C741 23 733 36 735 173 L735 443 L826 443 L826 471 L735 471 L735 501 C733 636 740 646 838 644 L850 644 L850 667 L516 667 L516 644 L536 644 C634 646 641 636 639 501 L639 471 L246 471 L246 501 C244 636 251 646 349 644 L363 644 L363 667 L33 667 L33 644 L47 644 C145 646 152 636 150 501 L150 471 L61 471 L61 443 L150 443 Z M246 443 L639 443 L639 368 L246 368 L246 443 Z " />
<glyph glyph-name="hbar" unicode="&#x127;" horiz-adv-x="588" d="M107 519 L107 138 L106 107 L106 75 C105 57 104 50 99 42 C89 28 72 22 38 23 L26 23 L26 0 L251 0 L251 23 L247 23 C179 24 176 30 178 138 L178 300 C211 357 260 389 316 389 C352 389 381 377 398 355 C412 338 416 316 416 259 L416 138 C415 101 415 80 415 75 C414 57 413 50 408 42 C398 28 381 22 347 23 L336 23 L336 0 L565 0 L565 23 L555 23 C488 24 485 30 487 138 L487 249 C487 316 482 343 466 366 C442 400 396 419 338 419 C275 419 223 392 178 337 L178 519 L364 519 L364 542 L178 542 L178 677 L167 677 C148 667 65 655 30 656 L30 633 L38 633 C96 633 109 616 107 542 L29 542 L29 519 L107 519 Z " />
<glyph glyph-name="Imacron" unicode="&#x12a;" horiz-adv-x="401" d="M33 644 L50 644 C148 646 155 636 153 501 L153 173 C155 36 147 23 56 23 L33 23 L33 0 L369 0 L369 23 L346 23 C255 23 247 36 249 173 L249 501 C247 636 254 646 352 644 L369 644 L369 667 L33 667 L33 644 Z M27 792 L27 764 L375 764 L375 792 L27 792 Z " />
<glyph glyph-name="imacron" unicode="&#x12b;" horiz-adv-x="277" d="M176 419 L165 419 C144 411 66 397 18 393 L18 370 L33 370 C99 371 105 363 105 260 L105 138 L105 107 L104 75 C104 57 102 50 97 42 C87 28 71 22 37 23 L18 23 L18 0 L256 0 L256 23 L245 23 C177 24 174 30 176 138 L176 419 Z M-14 565 L245 565 L245 588 L-14 588 L-14 565 Z " />
<glyph glyph-name="ibreve" unicode="&#x12d;" horiz-adv-x="277" d="M176 419 L165 419 C144 411 66 397 18 393 L18 370 L33 370 C99 371 105 363 105 260 L105 138 L105 107 L104 75 C104 57 102 50 97 42 C87 28 71 22 37 23 L18 23 L18 0 L256 0 L256 23 L245 23 C177 24 174 30 176 138 L176 419 Z M9 651 C18 564 67 510 136 510 C205 510 255 565 264 651 L248 651 C229 602 195 580 139 580 C75 580 40 602 25 651 L9 651 Z " />
<glyph glyph-name="Iogonek" unicode="&#x12e;" horiz-adv-x="401" d="M368 0 L368 23 L346 23 C255 23 247 36 249 173 L249 501 C247 636 254 646 352 644 L368 644 L368 667 L33 667 L33 644 L50 644 C147 646 154 636 153 501 L153 173 C154 36 146 23 55 23 L33 23 L33 0 L217 0 C172 -23 142 -63 142 -101 C142 -149 191 -184 258 -184 C298 -184 330 -175 372 -151 L362 -133 C330 -143 314 -146 292 -146 C246 -146 213 -119 213 -82 C213 -52 227 -26 259 0 L368 0 Z " />
<glyph glyph-name="iogonek" unicode="&#x12f;" horiz-adv-x="277" d="M255 0 L255 23 L244 23 C176 24 173 30 175 138 L175 419 L164 419 C143 411 67 398 17 393 L17 370 L32 370 C98 371 104 363 104 260 L104 138 L104 107 L103 75 C103 57 101 50 96 42 C86 28 70 22 36 23 L17 23 L17 0 L138 0 C96 -21 71 -56 71 -93 C71 -136 113 -168 170 -168 C204 -168 231 -160 267 -138 L260 -123 C236 -131 222 -134 203 -134 C160 -134 133 -111 133 -75 C133 -47 145 -24 174 0 L255 0 Z M130 677 C102 677 79 654 79 626 C79 596 102 573 130 573 C158 573 181 596 181 625 C181 654 158 677 130 677 L130 677 Z " />
<glyph glyph-name="Idotaccent" unicode="&#x130;" horiz-adv-x="401" d="M33 644 L50 644 C147 646 154 636 153 501 L153 173 C154 36 146 23 55 23 L33 23 L33 0 L368 0 L368 23 L346 23 C255 23 247 36 249 173 L249 501 C247 636 254 646 352 644 L368 644 L368 667 L33 667 L33 644 Z M201 826 C173 826 151 804 151 777 C151 748 173 726 201 726 C228 726 251 749 251 776 C251 804 228 826 201 826 L201 826 Z " />
<glyph glyph-name="dotlessi" unicode="&#x131;" horiz-adv-x="277" d="M175 419 L164 419 C143 411 67 398 17 393 L17 370 L32 370 C98 371 104 363 104 260 L104 138 L104 107 L103 75 C103 57 101 50 96 42 C86 28 70 22 36 23 L17 23 L17 0 L255 0 L255 23 L244 23 C176 24 173 30 175 138 L175 419 Z " />
<glyph glyph-name="Kcommaaccent" unicode="&#x136;" horiz-adv-x="822" d="M249 327 L249 501 C247 636 254 646 352 644 L366 644 L366 667 L42 667 L42 644 L50 644 C148 646 155 636 153 501 L153 173 C155 36 147 23 55 23 L32 23 L32 0 L361 0 L361 23 L346 23 C256 23 247 36 249 173 L249 295 L303 337 L513 147 C567 98 591 70 591 55 C591 31 567 23 500 23 L485 23 L485 0 L866 0 L866 23 L858 23 C784 30 782 32 657 146 L382 399 L516 511 C633 614 677 639 747 644 L754 644 L754 667 L478 667 L478 644 L483 644 C531 643 555 629 555 602 C555 581 533 555 478 511 L249 327 Z M360 -286 C433 -270 478 -222 478 -157 C478 -100 444 -59 396 -59 C363 -59 340 -79 340 -110 C340 -138 362 -157 394 -157 C398 -157 402 -157 405 -156 C419 -152 419 -152 424 -152 C436 -152 443 -162 443 -180 C443 -218 411 -249 360 -262 L360 -286 Z " />
<glyph glyph-name="kcommaaccent" unicode="&#x137;" horiz-adv-x="508" d="M292 403 L292 380 L301 380 C323 380 334 373 334 358 C334 348 328 338 314 324 C302 312 241 266 220 253 L171 223 L171 677 L160 677 C142 668 58 655 25 656 L25 633 L33 633 C90 633 102 616 100 542 L100 138 L100 107 L99 75 C99 57 97 50 92 42 C82 28 66 22 31 23 L14 23 L14 0 L239 0 L239 23 L235 23 C172 25 169 31 171 138 L171 196 L195 212 L311 92 C343 59 348 53 348 44 C348 31 332 24 298 23 L292 23 L292 0 L513 0 L513 23 L508 23 C476 27 456 40 415 85 L257 253 L291 277 C299 283 323 301 339 314 C393 358 428 377 466 380 L471 380 L471 403 L292 403 Z M202 -272 C271 -257 313 -212 313 -150 C313 -97 282 -59 238 -59 C209 -59 188 -78 188 -105 C188 -131 208 -149 237 -149 C241 -149 245 -149 247 -148 C259 -144 259 -144 263 -144 C275 -144 281 -153 281 -168 C281 -206 251 -237 202 -249 L202 -272 Z " />
<glyph glyph-name="Lacute" unicode="&#x139;" horiz-adv-x="676" d="M661 197 L636 197 C592 57 544 18 420 23 L363 23 C253 24 246 32 249 152 L249 500 C247 636 254 646 351 644 L385 644 L385 667 L33 667 L33 644 L50 644 C148 646 155 636 153 500 L153 174 C154 36 146 24 56 23 L33 23 L33 0 L656 0 L661 197 Z M304 847 L202 724 L222 724 L443 847 L304 847 Z " />
<glyph glyph-name="lacute" unicode="&#x13a;" horiz-adv-x="273" d="M174 677 L164 677 C145 667 61 655 26 656 L26 633 L34 633 C94 633 105 616 103 537 L103 138 L103 107 L102 75 C102 57 100 50 95 42 C85 28 69 22 34 23 L19 23 L19 0 L256 0 L256 23 L242 23 C175 24 172 30 174 138 L174 677 Z M210 847 L109 724 L128 724 L349 847 L210 847 Z " />
<glyph glyph-name="Lcommaaccent" unicode="&#x13b;" horiz-adv-x="676" d="M661 197 L636 197 C592 57 544 18 420 23 L363 23 C253 24 246 32 249 152 L249 500 C247 636 254 646 351 644 L385 644 L385 667 L33 667 L33 644 L50 644 C148 646 155 636 153 500 L153 174 C154 36 146 24 56 23 L33 23 L33 0 L656 0 L661 197 Z M329 -286 C402 -271 447 -222 447 -157 C447 -100 413 -59 366 -59 C332 -59 310 -79 310 -110 C310 -138 332 -157 363 -157 C368 -157 371 -157 374 -156 C388 -152 388 -152 393 -152 C405 -152 412 -162 412 -180 C412 -218 380 -249 329 -262 L329 -286 Z " />
<glyph glyph-name="lcommaaccent" unicode="&#x13c;" horiz-adv-x="273" d="M174 677 L164 677 C145 667 61 655 26 656 L26 633 L34 633 C94 633 105 616 103 537 L103 138 L103 107 L102 75 C102 57 100 50 95 42 C85 28 69 22 34 23 L19 23 L19 0 L256 0 L256 23 L242 23 C175 24 172 30 174 138 L174 677 Z M93 -272 C162 -257 204 -212 204 -150 C204 -97 173 -59 130 -59 C100 -59 79 -78 79 -105 C79 -131 99 -149 128 -149 C132 -149 136 -149 138 -148 C150 -144 150 -144 154 -144 C166 -144 172 -153 172 -168 C172 -206 141 -237 93 -249 L93 -272 Z " />
<glyph glyph-name="Lcaron" unicode="&#x13d;" horiz-adv-x="676" d="M661 197 L636 197 C592 57 544 18 420 23 L363 23 C253 24 246 32 249 152 L249 500 C247 636 254 646 351 644 L385 644 L385 667 L33 667 L33 644 L50 644 C148 646 155 636 153 500 L153 174 C154 36 146 24 56 23 L33 23 L33 0 L656 0 L661 197 Z M430 440 C503 456 548 504 548 569 C548 626 514 667 467 667 C433 667 411 647 411 616 C411 588 433 569 464 569 C469 569 472 569 475 570 C489 574 489 574 494 574 C506 574 513 564 513 546 C513 508 481 477 430 465 L430 440 Z " />
<glyph glyph-name="lcaron" unicode="&#x13e;" horiz-adv-x="337" d="M174 677 L164 677 C145 667 61 655 26 656 L26 633 L34 633 C94 633 105 616 103 537 L103 138 L103 107 L102 75 C102 57 100 50 95 42 C85 28 69 22 34 23 L19 23 L19 0 L256 0 L256 23 L242 23 C175 24 172 30 174 138 L174 677 Z M219 464 C288 478 330 524 330 586 C330 639 299 677 256 677 C226 677 205 658 205 631 C205 605 225 587 254 587 C258 587 262 587 264 588 C276 592 276 592 280 592 C292 592 298 583 298 568 C298 530 268 499 219 487 L219 464 Z " />
<glyph glyph-name="Ldot" unicode="&#x13f;" horiz-adv-x="676" d="M661 197 L636 197 C592 57 544 18 420 23 L363 23 C253 24 246 32 249 152 L249 500 C247 636 254 646 351 644 L385 644 L385 667 L33 667 L33 644 L50 644 C148 646 155 636 153 500 L153 174 C154 36 146 24 56 23 L33 23 L33 0 L656 0 L661 197 Z M408 359 C386 359 368 341 368 319 C368 296 386 278 408 278 C431 278 449 296 449 319 C449 341 431 359 408 359 L408 359 Z " />
<glyph glyph-name="ldot" unicode="&#x140;" horiz-adv-x="298" d="M174 677 L164 677 C145 667 61 655 26 656 L26 633 L34 633 C94 633 105 616 103 537 L103 138 L103 107 L102 75 C102 57 100 50 95 42 C85 28 69 22 34 23 L19 23 L19 0 L256 0 L256 23 L242 23 C175 24 172 30 174 138 L174 677 Z M258 370 C235 370 217 352 217 330 C217 307 235 289 258 289 C280 289 298 307 298 330 C298 352 280 370 258 370 L258 370 Z " />
<glyph glyph-name="Lslash" unicode="&#x141;" horiz-adv-x="676" d="M153 286 L153 174 C154 36 146 24 55 23 L33 23 L33 0 L656 0 L661 197 L636 197 C594 59 543 18 420 23 L363 23 C252 24 246 32 249 152 L249 356 L401 466 L401 501 L249 391 L249 500 C247 636 254 646 351 644 L385 644 L385 667 L33 667 L33 644 L49 644 C147 646 154 636 153 500 L153 321 L41 241 L41 206 L153 286 Z " />
<glyph glyph-name="lslash" unicode="&#x142;" horiz-adv-x="277" d="M175 352 L175 677 L165 677 C146 667 62 655 27 656 L27 633 L35 633 C95 633 106 616 104 537 L104 310 L20 255 L20 219 L104 274 L104 138 L104 107 L103 75 C103 57 101 50 96 42 C86 28 70 22 35 23 L20 23 L20 0 L257 0 L257 23 L243 23 C176 24 173 30 175 138 L175 317 L257 375 L257 411 L175 352 Z " />
<glyph glyph-name="Nacute" unicode="&#x143;" horiz-adv-x="841" d="M686 -15 L707 -15 L707 537 C703 608 729 635 813 644 L823 644 L823 667 L557 667 L557 644 L571 644 C660 638 686 615 683 544 L683 145 L247 667 L31 667 L31 644 L37 644 C132 646 140 636 141 501 L141 147 C141 86 140 77 132 64 C121 43 80 27 35 23 L22 23 L22 0 L295 0 L295 23 L287 23 C236 24 196 37 180 58 C167 76 167 76 165 147 L165 610 L686 -15 Z M484 847 L383 724 L403 724 L623 847 L484 847 Z " />
<glyph glyph-name="nacute" unicode="&#x144;" horiz-adv-x="588" d="M152 419 C105 407 77 401 31 396 L31 374 L39 374 C107 372 110 367 108 258 L108 138 C109 29 107 24 39 23 L31 23 L31 0 L255 0 L255 23 L248 23 C179 24 176 30 178 138 L178 303 C222 360 270 388 325 388 C360 388 388 375 404 353 C416 335 418 326 418 268 L418 138 L417 75 C416 57 415 50 410 42 C400 27 383 22 349 23 L338 23 L338 0 L565 0 L565 23 L558 23 C490 24 487 30 489 138 L489 264 C489 329 486 343 470 368 C448 400 404 419 349 419 C287 419 228 391 178 336 C178 362 171 406 165 419 L152 419 Z M260 493 L276 493 L468 661 L368 661 L260 493 Z " />
<glyph glyph-name="Ncommaaccent" unicode="&#x145;" horiz-adv-x="841" d="M686 -15 L707 -15 L707 537 C703 608 729 635 813 644 L823 644 L823 667 L557 667 L557 644 L571 644 C660 638 686 615 683 544 L683 145 L247 667 L31 667 L31 644 L37 644 C132 646 140 636 141 501 L141 147 C141 86 140 77 132 64 C121 43 80 27 35 23 L22 23 L22 0 L295 0 L295 23 L287 23 C236 24 196 37 180 58 C167 76 167 76 165 147 L165 610 L686 -15 Z M373 -286 C447 -271 491 -222 491 -157 C491 -100 457 -59 410 -59 C376 -59 354 -79 354 -110 C354 -138 376 -157 408 -157 C412 -157 416 -157 418 -156 C432 -152 432 -152 437 -152 C449 -152 456 -162 456 -180 C456 -218 424 -249 373 -262 L373 -286 Z " />
<glyph glyph-name="ncommaaccent" unicode="&#x146;" horiz-adv-x="588" d="M152 419 C105 407 77 401 31 396 L31 374 L39 374 C107 372 110 367 108 258 L108 138 C109 29 107 24 39 23 L31 23 L31 0 L255 0 L255 23 L248 23 C179 24 176 30 178 138 L178 303 C222 360 270 388 325 388 C360 388 388 375 404 353 C416 335 418 326 418 268 L418 138 L417 75 C416 57 415 50 410 42 C400 27 383 22 349 23 L338 23 L338 0 L565 0 L565 23 L558 23 C490 24 487 30 489 138 L489 264 C489 329 486 343 470 368 C448 400 404 419 349 419 C287 419 228 391 178 336 C178 362 171 406 165 419 L152 419 Z M249 -272 C318 -257 360 -212 360 -150 C360 -97 329 -59 285 -59 C255 -59 235 -78 235 -105 C235 -131 255 -149 284 -149 C288 -149 292 -149 294 -148 C306 -144 306 -144 310 -144 C321 -144 328 -153 328 -168 C328 -206 298 -237 249 -249 L249 -272 Z " />
<glyph glyph-name="Ncaron" unicode="&#x147;" horiz-adv-x="841" d="M686 -15 L707 -15 L707 537 C703 608 729 635 813 644 L823 644 L823 667 L557 667 L557 644 L571 644 C660 638 686 615 683 544 L683 145 L247 667 L31 667 L31 644 L37 644 C132 646 140 636 141 501 L141 147 C141 86 140 77 132 64 C121 43 80 27 35 23 L22 23 L22 0 L295 0 L295 23 L287 23 C236 24 196 37 180 58 C167 76 167 76 165 147 L165 610 L686 -15 Z M478 725 L602 856 L583 856 L455 779 L289 856 L270 856 L393 725 L478 725 Z " />
<glyph glyph-name="ncaron" unicode="&#x148;" horiz-adv-x="588" d="M152 419 C105 407 77 401 31 396 L31 374 L39 374 C107 372 110 367 108 258 L108 138 C109 29 107 24 39 23 L31 23 L31 0 L255 0 L255 23 L248 23 C179 24 176 30 178 138 L178 303 C222 360 270 388 325 388 C360 388 388 375 404 353 C416 335 418 326 418 268 L418 138 L417 75 C416 57 415 50 410 42 C400 27 383 22 349 23 L338 23 L338 0 L565 0 L565 23 L558 23 C490 24 487 30 489 138 L489 264 C489 329 486 343 470 368 C448 400 404 419 349 419 C287 419 228 391 178 336 C178 362 171 406 165 419 L152 419 Z M314 557 L206 657 L186 657 L279 492 L328 492 L417 657 L398 657 L314 557 Z " />
<glyph glyph-name="Omacron" unicode="&#x14c;" horiz-adv-x="901" d="M446 679 C216 679 51 538 51 341 C51 129 210 -12 450 -12 C688 -12 849 128 849 335 C849 437 805 532 733 589 C659 646 554 679 446 679 L446 679 Z M449 654 C524 654 592 632 640 592 C702 541 736 450 736 333 C736 127 636 13 454 13 C367 13 298 36 248 81 C195 129 164 222 164 337 C164 434 193 527 239 576 C285 625 362 654 449 654 L449 654 Z M276 792 L276 764 L624 764 L624 792 L276 792 Z " />
<glyph glyph-name="omacron" unicode="&#x14d;" horiz-adv-x="553" d="M276 419 C143 419 40 326 40 205 C40 133 69 71 121 32 C160 3 222 -16 276 -16 C412 -16 512 76 512 201 C512 326 411 419 276 419 L276 419 Z M276 396 C381 396 430 333 430 198 C430 66 382 6 276 6 C169 6 122 66 122 201 C122 333 172 396 276 396 L276 396 Z M126 565 L427 565 L427 588 L126 588 L126 565 Z " />
<glyph glyph-name="Ohungarumlaut" unicode="&#x150;" horiz-adv-x="901" d="M446 679 C216 679 51 538 51 341 C51 129 210 -12 450 -12 C688 -12 849 128 849 335 C849 437 805 532 733 589 C659 646 554 679 446 679 L446 679 Z M449 654 C524 654 592 632 640 592 C702 541 736 450 736 333 C736 127 636 13 454 13 C367 13 298 36 248 81 C195 129 164 222 164 337 C164 434 193 527 239 576 C285 625 362 654 449 654 L449 654 Z M440 847 L338 724 L358 724 L579 847 L440 847 Z M636 847 L534 724 L554 724 L774 847 L636 847 Z " />
<glyph glyph-name="ohungarumlaut" unicode="&#x151;" horiz-adv-x="553" d="M276 419 C143 419 40 326 40 205 C40 133 69 71 121 32 C160 3 222 -16 276 -16 C412 -16 512 76 512 201 C512 326 411 419 276 419 L276 419 Z M276 396 C381 396 430 333 430 198 C430 66 382 6 276 6 C169 6 122 66 122 201 C122 333 172 396 276 396 L276 396 Z M184 493 L201 493 L393 661 L293 661 L184 493 Z M361 493 L377 493 L569 661 L469 661 L361 493 Z " />
<glyph glyph-name="OE" unicode="&#x152;" horiz-adv-x="1030" d="M1000 210 L976 210 C967 163 938 101 911 68 C884 35 851 24 772 23 L713 23 C609 22 603 31 604 187 L604 341 L688 341 C764 343 781 325 781 241 L781 235 L808 235 L808 471 L781 471 L781 464 C781 384 762 363 689 364 L604 364 L604 644 L747 644 C838 650 874 618 904 507 L929 507 L914 667 L586 667 L514 668 C446 671 446 671 427 671 C361 671 309 661 257 639 C132 586 51 462 51 326 C51 228 98 131 173 73 C242 20 317 -4 416 -4 L479 -3 C508 -1 528 -1 534 -1 C543 0 561 0 581 0 L626 0 L985 0 L1000 210 Z M508 181 L509 111 C509 48 477 20 404 20 C256 20 164 143 164 340 C164 525 262 647 411 647 C447 647 479 639 493 627 C507 615 508 607 508 540 L508 181 Z " />
<glyph glyph-name="oe" unicode="&#x153;" horiz-adv-x="864" d="M823 268 C806 360 732 419 635 419 C570 419 514 394 465 343 C420 391 351 419 278 419 C146 419 40 321 40 200 C40 77 141 -16 274 -16 C351 -16 421 14 465 67 C504 15 571 -16 641 -16 C722 -16 795 25 818 84 L797 91 C772 41 720 10 657 10 C558 10 496 82 496 198 C496 221 498 248 501 268 L823 268 Z M505 288 C523 358 566 397 624 397 C687 397 727 355 729 288 L505 288 Z M271 397 C314 397 352 384 377 360 C409 331 421 288 421 205 C421 137 413 96 394 67 C369 27 325 5 270 5 C225 5 188 18 164 44 C134 76 122 116 122 189 C122 268 134 318 159 349 C186 380 225 397 271 397 L271 397 Z " />
<glyph glyph-name="Racute" unicode="&#x154;" horiz-adv-x="766" d="M810 0 L810 23 L804 23 C729 24 672 61 585 167 C507 266 457 316 418 335 C549 350 628 413 628 504 C628 559 599 603 541 635 C491 664 419 677 313 677 C285 677 220 675 148 672 L38 667 L38 644 L52 644 C149 646 156 636 155 501 L155 174 C156 36 148 24 57 23 L33 23 L33 0 L384 0 L384 23 L347 23 C257 24 249 36 251 174 L251 322 L281 322 C323 325 345 306 450 175 C513 92 578 22 613 0 L810 0 Z M251 345 L251 650 C273 651 285 652 301 652 C365 652 410 646 443 632 C492 612 520 564 520 497 C520 444 503 404 469 380 C441 360 382 346 317 346 L263 345 L251 345 Z M397 847 L296 724 L315 724 L536 847 L397 847 Z " />
<glyph glyph-name="racute" unicode="&#x155;" horiz-adv-x="401" d="M31 368 L42 368 C110 366 113 360 111 252 L111 138 C113 29 110 24 42 23 L31 23 L31 0 L266 0 L266 23 L250 23 C183 24 180 30 182 138 L182 210 C182 278 187 297 212 331 C234 361 268 384 291 384 C305 384 313 377 320 359 C331 333 342 323 362 323 C383 323 399 338 399 358 C399 391 363 419 322 419 C266 419 205 376 178 316 C177 359 171 396 162 419 C118 406 61 394 31 390 L31 368 Z M187 493 L203 493 L396 661 L296 661 L187 493 Z " />
<glyph glyph-name="Rcommaaccent" unicode="&#x156;" horiz-adv-x="766" d="M810 0 L810 23 L804 23 C729 24 672 61 585 167 C507 266 457 316 418 335 C549 350 628 413 628 504 C628 559 599 603 541 635 C491 664 419 677 313 677 C285 677 220 675 148 672 L38 667 L38 644 L52 644 C149 646 156 636 155 501 L155 174 C156 36 148 24 57 23 L33 23 L33 0 L384 0 L384 23 L347 23 C257 24 249 36 251 174 L251 322 L281 322 C323 325 345 306 450 175 C513 92 578 22 613 0 L810 0 Z M251 345 L251 650 C273 651 285 652 301 652 C365 652 410 646 443 632 C492 612 520 564 520 497 C520 444 503 404 469 380 C441 360 382 346 317 346 L263 345 L251 345 Z M330 -286 C403 -271 448 -222 448 -157 C448 -100 414 -59 367 -59 C333 -59 311 -79 311 -110 C311 -138 333 -157 364 -157 C369 -157 372 -157 375 -156 C389 -152 389 -152 393 -152 C406 -152 413 -162 413 -180 C413 -218 381 -249 330 -262 L330 -286 Z " />
<glyph glyph-name="rcommaaccent" unicode="&#x157;" horiz-adv-x="401" d="M31 368 L42 368 C110 366 113 360 111 252 L111 138 C113 29 110 24 42 23 L31 23 L31 0 L266 0 L266 23 L250 23 C183 24 180 30 182 138 L182 210 C182 278 187 297 212 331 C234 361 268 384 291 384 C305 384 313 377 320 359 C331 333 342 323 362 323 C383 323 399 338 399 358 C399 391 363 419 322 419 C266 419 205 376 178 316 C177 359 171 396 162 419 C118 406 61 394 31 390 L31 368 Z M107 -272 C177 -257 219 -212 219 -150 C219 -97 188 -59 144 -59 C114 -59 93 -78 93 -105 C93 -131 113 -149 143 -149 C147 -149 150 -149 152 -148 C165 -144 165 -144 169 -144 C181 -144 187 -153 187 -168 C187 -206 156 -237 107 -249 L107 -272 Z " />
<glyph glyph-name="Rcaron" unicode="&#x158;" horiz-adv-x="766" d="M810 0 L810 23 L804 23 C729 24 672 61 585 167 C507 266 457 316 418 335 C549 350 628 413 628 504 C628 559 599 603 541 635 C491 664 419 677 313 677 C285 677 220 675 148 672 L38 667 L38 644 L52 644 C149 646 156 636 155 501 L155 174 C156 36 148 24 57 23 L33 23 L33 0 L384 0 L384 23 L347 23 C257 24 249 36 251 174 L251 322 L281 322 C323 325 345 306 450 175 C513 92 578 22 613 0 L810 0 Z M251 345 L251 650 C273 651 285 652 301 652 C365 652 410 646 443 632 C492 612 520 564 520 497 C520 444 503 404 469 380 C441 360 382 346 317 346 L263 345 L251 345 Z M395 725 L519 856 L500 856 L372 779 L206 856 L187 856 L310 725 L395 725 Z " />
<glyph glyph-name="rcaron" unicode="&#x159;" horiz-adv-x="401" d="M31 368 L42 368 C110 366 113 360 111 252 L111 138 C113 29 110 24 42 23 L31 23 L31 0 L266 0 L266 23 L250 23 C183 24 180 30 182 138 L182 210 C182 278 187 297 212 331 C234 361 268 384 291 384 C305 384 313 377 320 359 C331 333 342 323 362 323 C383 323 399 338 399 358 C399 391 363 419 322 419 C266 419 205 376 178 316 C177 359 171 396 162 419 C118 406 61 394 31 390 L31 368 Z M233 557 L125 657 L105 657 L198 492 L247 492 L336 657 L317 657 L233 557 Z " />
<glyph glyph-name="Sacute" unicode="&#x15a;" horiz-adv-x="600" d="M64 7 L91 7 C97 34 106 56 118 72 C171 16 238 -12 319 -12 C456 -12 549 66 549 181 C549 236 527 284 486 318 C456 343 429 356 313 403 C241 432 210 447 185 466 C151 492 135 520 135 553 C135 614 187 656 263 656 C359 656 431 596 461 492 L485 492 L485 667 L461 667 C459 647 449 626 433 608 C379 660 334 679 264 679 C152 679 70 609 70 513 C70 468 90 422 124 389 C152 362 198 337 276 308 C374 270 393 261 421 242 C458 215 478 180 478 142 C478 67 408 12 313 12 C197 12 121 83 91 221 L64 221 L64 7 Z M354 847 L252 724 L272 724 L493 847 L354 847 Z " />
<glyph glyph-name="sacute" unicode="&#x15b;" horiz-adv-x="369" d="M45 -13 L66 -13 C70 1 84 24 90 29 C129 -5 155 -16 198 -16 C277 -16 333 33 333 102 C333 136 319 169 295 191 C273 212 252 223 197 246 C156 263 136 272 124 281 C102 297 90 316 90 336 C90 370 122 397 164 397 C219 397 267 353 283 288 L303 288 L303 412 L283 412 C274 393 267 381 262 377 C235 405 204 419 165 419 C100 419 46 369 46 307 C46 283 55 260 73 240 C93 217 113 204 174 178 C224 156 241 147 254 136 C274 118 284 99 284 77 C284 35 250 5 201 5 C168 5 134 19 110 41 C92 59 79 81 66 119 L45 119 L45 -13 Z M142 493 L159 493 L351 661 L251 661 L142 493 Z " />
<glyph glyph-name="Scircumflex" unicode="&#x15c;" horiz-adv-x="600" d="M64 7 L91 7 C97 34 106 56 118 72 C171 16 238 -12 319 -12 C456 -12 549 66 549 181 C549 236 527 284 486 318 C456 343 429 356 313 403 C241 432 210 447 185 466 C151 492 135 520 135 553 C135 614 187 656 263 656 C359 656 431 596 461 492 L485 492 L485 667 L461 667 C459 647 449 626 433 608 C379 660 334 679 264 679 C152 679 70 609 70 513 C70 468 90 422 124 389 C152 362 198 337 276 308 C374 270 393 261 421 242 C458 215 478 180 478 142 C478 67 408 12 313 12 C197 12 121 83 91 221 L64 221 L64 7 Z M268 856 L144 725 L162 725 L291 802 L456 725 L476 725 L353 856 L268 856 Z " />
<glyph glyph-name="scircumflex" unicode="&#x15d;" horiz-adv-x="369" d="M45 -13 L66 -13 C70 1 84 24 90 29 C129 -5 155 -16 198 -16 C277 -16 333 33 333 102 C333 136 319 169 295 191 C273 212 252 223 197 246 C156 263 136 272 124 281 C102 297 90 316 90 336 C90 370 122 397 164 397 C219 397 267 353 283 288 L303 288 L303 412 L283 412 C274 393 267 381 262 377 C235 405 204 419 165 419 C100 419 46 369 46 307 C46 283 55 260 73 240 C93 217 113 204 174 178 C224 156 241 147 254 136 C274 118 284 99 284 77 C284 35 250 5 201 5 C168 5 134 19 110 41 C92 59 79 81 66 119 L45 119 L45 -13 Z M183 596 L291 496 L311 496 L218 661 L169 661 L80 496 L99 496 L183 596 Z " />
<glyph glyph-name="Scedilla" unicode="&#x15e;" horiz-adv-x="600" d="M312 -12 L315 -12 L318 -12 C456 -12 549 65 549 181 C549 235 527 283 486 318 C455 343 430 355 313 403 C241 431 210 447 185 466 C151 492 135 520 135 553 C135 614 187 656 263 656 C359 656 431 596 461 492 L485 492 L485 667 L461 667 C459 647 449 626 433 608 C379 660 334 679 264 679 C152 679 70 609 70 513 C70 468 90 422 124 389 C152 362 198 337 276 308 C374 270 393 261 421 242 C458 215 478 180 478 142 C478 67 408 12 313 12 C197 12 121 83 91 221 L64 221 L64 7 L91 7 C97 34 106 56 118 72 C161 25 222 -5 289 -11 L268 -107 C322 -110 351 -129 351 -162 C351 -196 317 -220 268 -220 C244 -220 222 -217 192 -209 L184 -229 C216 -238 253 -243 281 -243 C356 -243 414 -203 414 -152 C414 -104 373 -73 302 -66 L312 -12 Z " />
<glyph glyph-name="scedilla" unicode="&#x15f;" horiz-adv-x="369" d="M194 -16 L199 -16 C277 -16 333 34 333 102 C333 136 319 169 295 191 C273 212 252 223 197 246 C156 263 136 272 124 281 C102 297 90 316 90 336 C90 370 122 397 164 397 C219 397 267 353 283 288 L303 288 L303 412 L283 412 C274 393 267 381 262 377 C235 405 204 419 165 419 C100 419 46 369 46 307 C46 283 55 260 73 240 C93 217 113 204 174 178 C224 156 241 147 254 136 C274 118 284 99 284 77 C284 35 250 5 201 5 C168 5 134 19 110 41 C92 59 79 81 66 119 L45 119 L45 -13 L66 -13 C70 1 84 24 90 29 C121 1 142 -10 176 -15 L162 -96 C203 -99 224 -116 224 -146 C224 -176 198 -198 162 -198 C144 -198 127 -195 105 -188 L98 -206 C123 -214 151 -219 171 -219 C227 -219 271 -183 271 -137 C271 -94 241 -66 188 -59 L194 -16 Z " />
<glyph glyph-name="Scaron" unicode="&#x160;" horiz-adv-x="600" d="M64 7 L91 7 C97 34 106 56 118 72 C171 16 238 -12 319 -12 C456 -12 549 66 549 181 C549 236 527 284 486 318 C456 343 429 356 313 403 C241 432 210 447 185 466 C151 492 135 520 135 553 C135 614 187 656 263 656 C359 656 431 596 461 492 L485 492 L485 667 L461 667 C459 647 449 626 433 608 C379 660 334 679 264 679 C152 679 70 609 70 513 C70 468 90 422 124 389 C152 362 198 337 276 308 C374 270 393 261 421 242 C458 215 478 180 478 142 C478 67 408 12 313 12 C197 12 121 83 91 221 L64 221 L64 7 Z M335 725 L459 856 L440 856 L312 779 L146 856 L127 856 L250 725 L335 725 Z " />
<glyph glyph-name="scaron" unicode="&#x161;" horiz-adv-x="369" d="M45 -13 L66 -13 C70 1 84 24 90 29 C129 -5 155 -16 198 -16 C277 -16 333 33 333 102 C333 136 319 169 295 191 C273 212 252 223 197 246 C156 263 136 272 124 281 C102 297 90 316 90 336 C90 370 122 397 164 397 C219 397 267 353 283 288 L303 288 L303 412 L283 412 C274 393 267 381 262 377 C235 405 204 419 165 419 C100 419 46 369 46 307 C46 283 55 260 73 240 C93 217 113 204 174 178 C224 156 241 147 254 136 C274 118 284 99 284 77 C284 35 250 5 201 5 C168 5 134 19 110 41 C92 59 79 81 66 119 L45 119 L45 -13 Z M201 557 L93 657 L73 657 L166 492 L215 492 L304 657 L285 657 L201 557 Z " />
<glyph glyph-name="Tcommaaccent" unicode="&#x162;" horiz-adv-x="756" d="M43 506 C69 628 96 649 217 644 L330 644 L330 174 C332 36 323 24 233 23 L194 23 L194 0 L560 0 L560 23 L522 23 C432 24 424 36 426 174 L426 644 L548 644 C659 648 688 624 714 506 L737 506 L733 667 L22 667 L18 506 L43 506 Z M334 -286 C408 -270 453 -222 453 -157 C453 -100 419 -59 371 -59 C337 -59 315 -79 315 -110 C315 -138 337 -157 369 -157 C373 -157 377 -157 380 -156 C394 -152 394 -152 398 -152 C411 -152 418 -162 418 -180 C418 -218 386 -249 334 -262 L334 -286 Z " />
<glyph glyph-name="tcommaaccent" unicode="&#x163;" horiz-adv-x="323" d="M305 380 L305 403 L168 403 L168 529 L152 529 C142 457 91 404 29 403 L29 380 L97 380 L97 152 C97 75 99 57 113 34 C131 4 168 -16 208 -16 C257 -16 300 9 322 49 L305 58 C284 31 262 18 236 18 C211 18 190 30 179 50 C170 65 168 84 168 137 L168 380 L305 380 Z M145 -272 C215 -257 257 -212 257 -150 C257 -97 225 -59 182 -59 C152 -59 132 -78 132 -105 C132 -131 152 -149 181 -149 C185 -149 189 -149 190 -148 C203 -144 203 -144 207 -144 C218 -144 225 -153 225 -168 C225 -206 194 -237 145 -249 L145 -272 Z " />
<glyph glyph-name="Tcaron" unicode="&#x164;" horiz-adv-x="756" d="M43 506 C69 628 96 649 217 644 L330 644 L330 174 C332 36 323 24 233 23 L194 23 L194 0 L560 0 L560 23 L522 23 C432 24 424 36 426 174 L426 644 L548 644 C659 648 688 624 714 506 L737 506 L733 667 L22 667 L18 506 L43 506 Z M420 725 L544 856 L526 856 L398 779 L232 856 L212 856 L335 725 L420 725 Z " />
<glyph glyph-name="tcaron" unicode="&#x165;" horiz-adv-x="340" d="M305 380 L305 403 L168 403 L168 529 L152 529 C142 457 91 404 29 403 L29 380 L97 380 L97 152 C97 75 99 57 113 34 C131 4 168 -16 208 -16 C257 -16 300 9 322 49 L305 58 C284 31 262 18 236 18 C211 18 190 30 179 50 C170 65 168 84 168 137 L168 380 L305 380 Z M219 473 C288 487 330 533 330 594 C330 647 298 685 255 685 C225 685 205 666 205 639 C205 614 225 596 254 596 C258 596 261 596 263 597 C276 600 276 600 280 600 C291 600 298 591 298 576 C298 538 267 507 219 495 L219 473 Z " />
<glyph glyph-name="utilde" unicode="&#x169;" horiz-adv-x="577" d="M477 403 L326 403 L326 380 L338 380 C406 379 409 373 407 265 L407 174 C407 116 401 99 372 68 C341 36 298 17 259 17 C229 17 201 29 186 47 C174 62 171 76 171 124 L171 403 L24 403 L24 380 L31 380 C99 379 102 373 100 265 L100 128 C100 84 105 60 117 40 C138 7 187 -16 238 -16 C303 -16 366 19 407 78 C408 33 413 2 424 -16 L430 -16 C458 -5 492 -1 548 0 L548 23 L544 23 C478 25 475 31 477 139 L477 403 Z M154 524 C157 568 175 592 204 592 C216 592 227 587 244 574 C300 530 314 523 347 523 C377 523 403 536 421 560 C435 579 441 601 441 639 L426 639 C425 595 408 570 377 570 C361 570 349 576 321 597 C275 633 262 639 233 639 C177 639 139 592 140 524 L154 524 Z " />
<glyph glyph-name="Umacron" unicode="&#x16a;" horiz-adv-x="852" d="M584 667 L584 644 L590 644 C679 637 700 612 697 513 L697 286 L696 212 C694 173 685 143 670 118 C632 59 547 22 449 22 C367 22 297 52 266 100 C242 138 239 162 239 291 L239 501 C237 636 244 646 342 644 L356 644 L356 667 L22 667 L22 644 L40 644 C137 646 144 636 143 501 L143 293 L143 202 C146 149 156 117 178 86 C224 24 315 -12 428 -12 C504 -12 573 4 621 34 C680 70 709 116 718 184 C721 208 721 208 721 282 L721 504 C716 605 735 632 819 644 L829 644 L829 667 L584 667 Z M270 792 L270 764 L619 764 L619 792 L270 792 Z " />
<glyph glyph-name="umacron" unicode="&#x16b;" horiz-adv-x="577" d="M477 403 L326 403 L326 380 L338 380 C406 379 409 373 407 265 L407 174 C407 116 401 99 372 68 C341 36 298 17 259 17 C229 17 201 29 186 47 C174 62 171 76 171 124 L171 403 L24 403 L24 380 L31 380 C99 379 102 373 100 265 L100 128 C100 84 105 60 117 40 C138 7 187 -16 238 -16 C303 -16 366 19 407 78 C408 33 413 2 424 -16 L430 -16 C458 -5 492 -1 548 0 L548 23 L544 23 C478 25 475 31 477 139 L477 403 Z M136 565 L437 565 L437 588 L136 588 L136 565 Z " />
<glyph glyph-name="ubreve" unicode="&#x16d;" horiz-adv-x="577" d="M477 403 L326 403 L326 380 L338 380 C406 379 409 373 407 265 L407 174 C407 116 401 99 372 68 C341 36 298 17 259 17 C229 17 201 29 186 47 C174 62 171 76 171 124 L171 403 L24 403 L24 380 L31 380 C99 379 102 373 100 265 L100 128 C100 84 105 60 117 40 C138 7 187 -16 238 -16 C303 -16 366 19 407 78 C408 33 413 2 424 -16 L430 -16 C458 -5 492 -1 548 0 L548 23 L544 23 C478 25 475 31 477 139 L477 403 Z M159 651 C168 564 217 510 286 510 C355 510 405 565 414 651 L398 651 C379 602 345 580 289 580 C225 580 190 602 174 651 L159 651 Z " />
<glyph glyph-name="Uring" unicode="&#x16e;" horiz-adv-x="852" d="M584 667 L584 644 L590 644 C679 637 700 612 697 513 L697 286 L696 212 C694 173 685 143 670 118 C632 59 547 22 449 22 C367 22 297 52 266 100 C242 138 239 162 239 291 L239 501 C237 636 244 646 342 644 L356 644 L356 667 L22 667 L22 644 L40 644 C137 646 144 636 143 501 L143 293 L143 202 C146 149 156 117 178 86 C224 24 315 -12 428 -12 C504 -12 573 4 621 34 C680 70 709 116 718 184 C721 208 721 208 721 282 L721 504 C716 605 735 632 819 644 L829 644 L829 667 L584 667 Z M468 893 C416 893 374 851 374 800 C374 747 415 705 468 705 C519 705 562 747 562 799 C562 851 519 893 468 893 L468 893 Z M468 868 C505 868 536 837 536 799 C536 761 505 730 468 730 C430 730 400 761 400 800 C400 837 430 868 468 868 L468 868 Z " />
<glyph glyph-name="uring" unicode="&#x16f;" horiz-adv-x="577" d="M477 403 L326 403 L326 380 L338 380 C406 379 409 373 407 265 L407 174 C407 116 401 99 372 68 C341 36 298 17 259 17 C229 17 201 29 186 47 C174 62 171 76 171 124 L171 403 L24 403 L24 380 L31 380 C99 379 102 373 100 265 L100 128 C100 84 105 60 117 40 C138 7 187 -16 238 -16 C303 -16 366 19 407 78 C408 33 413 2 424 -16 L430 -16 C458 -5 492 -1 548 0 L548 23 L544 23 C478 25 475 31 477 139 L477 403 Z M299 668 C250 668 210 628 210 580 C210 530 250 490 299 490 C348 490 388 530 388 579 C388 628 348 668 299 668 L299 668 Z M299 640 C333 640 360 613 360 579 C360 545 333 518 299 518 C265 518 238 545 238 580 C238 613 266 640 299 640 L299 640 Z " />
<glyph glyph-name="Uhungarumlaut" unicode="&#x170;" horiz-adv-x="852" d="M584 667 L584 644 L590 644 C679 637 700 612 697 513 L697 286 L696 212 C694 173 685 143 670 118 C632 59 547 22 449 22 C367 22 297 52 266 100 C242 138 239 162 239 291 L239 501 C237 636 244 646 342 644 L356 644 L356 667 L22 667 L22 644 L40 644 C137 646 144 636 143 501 L143 293 L143 202 C146 149 156 117 178 86 C224 24 315 -12 428 -12 C504 -12 573 4 621 34 C680 70 709 116 718 184 C721 208 721 208 721 282 L721 504 C716 605 735 632 819 644 L829 644 L829 667 L584 667 Z M434 847 L333 724 L353 724 L573 847 L434 847 Z M630 847 L529 724 L549 724 L769 847 L630 847 Z " />
<glyph glyph-name="uhungarumlaut" unicode="&#x171;" horiz-adv-x="577" d="M477 403 L326 403 L326 380 L338 380 C406 379 409 373 407 265 L407 174 C407 116 401 99 372 68 C341 36 298 17 259 17 C229 17 201 29 186 47 C174 62 171 76 171 124 L171 403 L24 403 L24 380 L31 380 C99 379 102 373 100 265 L100 128 C100 84 105 60 117 40 C138 7 187 -16 238 -16 C303 -16 366 19 407 78 C408 33 413 2 424 -16 L430 -16 C458 -5 492 -1 548 0 L548 23 L544 23 C478 25 475 31 477 139 L477 403 Z M184 493 L201 493 L393 661 L293 661 L184 493 Z M360 493 L377 493 L569 661 L469 661 L360 493 Z " />
<glyph glyph-name="Uogonek" unicode="&#x172;" horiz-adv-x="852" d="M721 504 C716 605 735 632 819 644 L829 644 L829 667 L584 667 L584 644 L590 644 C679 637 700 612 697 513 L697 286 L696 212 C694 173 685 143 670 118 C632 59 547 22 449 22 C367 22 297 52 266 100 C242 138 239 162 239 291 L239 501 C237 636 244 646 342 644 L356 644 L356 667 L22 667 L22 644 L40 644 C137 646 144 636 143 501 L143 293 L143 202 C146 149 156 117 178 86 C223 25 315 -12 425 -12 C463 -12 493 -9 527 -2 C484 -24 455 -64 455 -101 C455 -149 504 -184 571 -184 C611 -184 643 -175 685 -151 L676 -133 C644 -143 627 -146 605 -146 C559 -146 526 -119 526 -82 C526 -45 548 -14 606 25 C701 79 725 133 721 282 L721 504 Z " />
<glyph glyph-name="uogonek" unicode="&#x173;" horiz-adv-x="577" d="M548 23 L544 23 C478 25 475 31 477 139 L477 403 L326 403 L326 380 L338 380 C406 379 409 373 407 265 L407 174 C407 116 401 99 372 68 C341 36 298 17 259 17 C229 17 201 29 186 47 C174 62 171 76 171 124 L171 403 L24 403 L24 380 L31 380 C99 379 102 373 100 265 L100 128 C100 84 105 60 117 40 C138 7 187 -16 238 -16 C303 -16 366 19 407 78 C408 39 412 9 420 -9 C388 -30 368 -62 368 -93 C368 -136 410 -168 467 -168 C501 -168 528 -160 564 -138 L557 -123 C533 -131 519 -134 499 -134 C456 -134 429 -111 429 -75 C429 -51 441 -26 463 -7 C491 -2 505 -1 548 0 L548 23 Z " />
<glyph glyph-name="Wcircumflex" unicode="&#x174;" horiz-adv-x="1032" d="M757 -16 L919 486 C958 613 978 640 1034 644 L1039 644 L1039 667 L839 667 L839 644 L844 644 C891 644 915 622 915 579 C915 557 914 552 893 486 L781 132 L566 667 L536 667 L344 132 L213 520 C191 583 190 588 190 603 C190 630 207 640 261 644 L268 644 L268 667 L-7 667 L-7 644 L1 644 C59 642 74 623 112 503 L288 -16 L314 -16 L510 534 L733 -16 L757 -16 Z M509 856 L385 725 L404 725 L532 802 L698 725 L717 725 L594 856 L509 856 Z " />
<glyph glyph-name="Ycircumflex" unicode="&#x176;" horiz-adv-x="721" d="M398 292 L227 555 C202 593 200 598 200 610 C200 633 225 644 276 644 L282 644 L282 667 L-15 667 L-15 644 L-7 644 C49 640 55 635 125 529 L313 256 L313 173 C315 36 306 23 215 23 L203 23 L203 0 L516 0 L516 23 L506 23 C414 23 406 36 408 173 L408 262 L577 511 C638 607 664 630 727 643 L735 644 L735 667 L496 667 L496 644 L501 644 C551 644 583 623 583 589 C583 569 578 559 547 512 L398 292 Z M338 856 L214 725 L232 725 L361 802 L526 725 L546 725 L423 856 L338 856 Z " />
<glyph glyph-name="ycircumflex" unicode="&#x177;" horiz-adv-x="508" d="M287 76 L165 312 C147 347 144 353 144 360 C144 373 159 379 192 380 L197 380 L197 403 L-6 403 L-6 380 L3 380 C43 378 53 369 80 315 L247 -10 L205 -106 C189 -140 184 -144 139 -162 C99 -179 83 -195 83 -219 C83 -236 97 -248 118 -248 C154 -248 179 -221 215 -141 L413 292 C443 362 457 376 502 380 L507 380 L507 403 L352 403 L352 380 L360 380 C391 380 412 369 412 355 C412 347 412 347 389 300 L287 76 Z M257 596 L365 496 L385 496 L292 661 L243 661 L154 496 L173 496 L257 596 Z " />
<glyph glyph-name="Ydieresis" unicode="&#x178;" horiz-adv-x="721" d="M398 292 L227 555 C202 593 200 598 200 610 C200 633 225 644 276 644 L282 644 L282 667 L-15 667 L-15 644 L-7 644 C49 640 55 635 125 529 L313 256 L313 173 C315 36 306 23 215 23 L203 23 L203 0 L516 0 L516 23 L506 23 C414 23 406 36 408 173 L408 262 L577 511 C638 607 664 630 727 643 L735 644 L735 667 L496 667 L496 644 L501 644 C551 644 583 623 583 589 C583 569 578 559 547 512 L398 292 Z M245 826 C217 826 195 804 195 777 C195 748 217 726 245 726 C272 726 295 749 295 776 C295 804 272 826 245 826 L245 826 Z M517 826 C489 826 467 804 467 777 C467 748 489 726 517 726 C544 726 567 749 567 776 C567 804 544 826 517 826 L517 826 Z " />
<glyph glyph-name="Zacute" unicode="&#x179;" horiz-adv-x="696" d="M34 0 L627 0 L651 173 L627 173 C572 39 544 21 388 23 L164 23 L632 644 L632 667 L87 667 L63 513 L87 513 C97 551 124 596 150 619 C180 643 187 645 279 644 L507 644 L34 18 L34 0 Z M434 847 L333 724 L353 724 L573 847 L434 847 Z " />
<glyph glyph-name="zacute" unicode="&#x17a;" horiz-adv-x="466" d="M29 0 L415 0 L428 128 L407 128 C361 30 348 21 249 23 L128 23 L420 385 L420 403 L49 403 L42 291 L62 291 C92 367 111 384 162 380 L322 380 L29 16 L29 0 Z M205 493 L221 493 L414 661 L314 661 L205 493 Z " />
<glyph glyph-name="Zdotaccent" unicode="&#x17b;" horiz-adv-x="696" d="M34 0 L627 0 L651 173 L627 173 C572 39 544 21 388 23 L164 23 L632 644 L632 667 L87 667 L63 513 L87 513 C97 551 124 596 150 619 C180 643 187 645 279 644 L507 644 L34 18 L34 0 Z M370 826 C343 826 320 804 320 777 C320 748 342 726 370 726 C398 726 420 749 420 776 C420 804 398 826 370 826 L370 826 Z " />
<glyph glyph-name="zdotaccent" unicode="&#x17c;" horiz-adv-x="466" d="M29 0 L415 0 L428 128 L407 128 C361 30 348 21 249 23 L128 23 L420 385 L420 403 L49 403 L42 291 L62 291 C92 367 111 384 162 380 L322 380 L29 16 L29 0 Z M248 622 C225 622 207 604 207 582 C207 559 225 541 248 541 C270 541 288 559 288 582 C288 604 270 622 248 622 L248 622 Z " />
<glyph glyph-name="Zcaron" unicode="&#x17d;" horiz-adv-x="696" d="M34 0 L627 0 L651 173 L627 173 C572 39 544 21 388 23 L164 23 L632 644 L632 667 L87 667 L63 513 L87 513 C97 551 124 596 150 619 C180 643 187 645 279 644 L507 644 L34 18 L34 0 Z M411 725 L535 856 L516 856 L388 779 L222 856 L203 856 L326 725 L411 725 Z " />
<glyph glyph-name="zcaron" unicode="&#x17e;" horiz-adv-x="466" d="M29 0 L415 0 L428 128 L407 128 C361 30 348 21 249 23 L128 23 L420 385 L420 403 L49 403 L42 291 L62 291 C92 367 111 384 162 380 L322 380 L29 16 L29 0 Z M257 557 L149 657 L129 657 L222 492 L272 492 L360 657 L341 657 L257 557 Z " />
<glyph glyph-name="florin" unicode="&#x192;" horiz-adv-x="550" d="M376 441 C380 466 380 466 394 534 C414 631 415 636 425 649 C438 666 455 676 473 676 C485 676 494 671 494 664 C494 660 492 657 486 650 C479 643 476 637 476 631 C476 617 493 604 511 604 C533 604 549 621 549 643 C549 676 517 700 473 700 C447 700 424 692 400 676 C368 655 345 615 314 532 C282 450 276 445 200 442 L188 441 L179 408 L278 408 L272 388 L214 176 C152 -92 152 -92 134 -133 C120 -165 94 -187 70 -187 C63 -187 57 -183 57 -178 C57 -175 60 -171 64 -167 C74 -156 75 -154 75 -148 C75 -133 58 -119 39 -119 C15 -119 -4 -139 -4 -164 C-4 -195 24 -217 63 -217 C90 -217 115 -208 144 -188 C190 -155 232 -81 265 25 C311 176 350 320 369 408 L465 408 L474 441 L376 441 Z " />
<glyph glyph-name="uni01CD" unicode="&#x1cd;" horiz-adv-x="727" d="M462 245 L519 122 C543 69 543 69 543 58 C543 44 534 33 520 28 C505 23 499 23 462 23 L453 23 L453 0 L742 0 L742 23 L735 23 C674 33 668 39 620 146 L375 677 L354 677 L141 213 C118 164 116 159 110 145 C92 106 88 97 83 88 C61 49 34 30 -5 24 L-15 23 L-15 0 L203 0 L203 23 L194 23 C153 23 123 48 123 84 C123 107 130 127 165 203 L184 245 L462 245 Z M453 268 L194 268 L324 552 L453 268 Z M406 725 L530 856 L512 856 L384 779 L218 856 L198 856 L321 725 L406 725 Z " />
<glyph glyph-name="uni01CE" unicode="&#x1ce;" horiz-adv-x="519" d="M488 74 C482 43 466 26 443 26 C430 26 419 33 414 47 C409 58 409 58 409 115 L409 278 C409 327 406 341 393 360 C366 400 316 419 241 419 C180 419 133 407 99 383 C74 365 60 345 60 327 C60 310 74 298 93 298 C116 298 133 314 137 343 C141 364 142 367 151 376 C164 390 194 398 230 398 C274 398 307 383 322 355 C330 341 331 330 331 289 L331 269 L247 238 C103 184 43 136 43 76 C43 26 89 -10 153 -10 C201 -10 256 12 331 60 C341 12 368 -10 417 -10 C471 -10 506 22 508 74 L488 74 Z M331 246 L331 87 C277 48 226 26 192 26 C152 26 125 54 125 95 C125 147 169 186 272 224 L331 246 Z M271 557 L163 657 L143 657 L236 492 L285 492 L374 657 L355 657 L271 557 Z " />
<glyph glyph-name="uni01D3" unicode="&#x1d3;" horiz-adv-x="852" d="M584 667 L584 644 L590 644 C679 637 700 612 697 513 L697 286 L696 212 C694 173 685 143 670 118 C632 59 547 22 449 22 C367 22 297 52 266 100 C242 138 239 162 239 291 L239 501 C237 636 244 646 342 644 L356 644 L356 667 L22 667 L22 644 L40 644 C137 646 144 636 143 501 L143 293 L143 202 C146 149 156 117 178 86 C224 24 315 -12 428 -12 C504 -12 573 4 621 34 C680 70 709 116 718 184 C721 208 721 208 721 282 L721 504 C716 605 735 632 819 644 L829 644 L829 667 L584 667 Z M511 725 L635 856 L616 856 L488 779 L322 856 L303 856 L426 725 L511 725 Z " />
<glyph glyph-name="uni01D4" unicode="&#x1d4;" horiz-adv-x="577" d="M477 403 L326 403 L326 380 L338 380 C406 379 409 373 407 265 L407 174 C407 116 401 99 372 68 C341 36 298 17 259 17 C229 17 201 29 186 47 C174 62 171 76 171 124 L171 403 L24 403 L24 380 L31 380 C99 379 102 373 100 265 L100 128 C100 84 105 60 117 40 C138 7 187 -16 238 -16 C303 -16 366 19 407 78 C408 33 413 2 424 -16 L430 -16 C458 -5 492 -1 548 0 L548 23 L544 23 C478 25 475 31 477 139 L477 403 Z M317 557 L209 657 L189 657 L282 492 L332 492 L420 657 L401 657 L317 557 Z " />
<glyph glyph-name="Gcaron" unicode="&#x1e6;" horiz-adv-x="847" d="M505 285 L505 261 L523 261 C597 264 613 249 614 178 L614 152 C614 104 597 71 559 47 C523 24 476 12 428 12 C359 12 289 38 245 80 C190 132 163 218 163 337 C163 447 184 523 228 573 C276 626 348 656 427 656 C564 656 666 569 687 432 L713 432 L713 655 L687 655 C684 630 675 600 664 581 C599 648 520 680 421 680 C318 680 228 647 163 586 C94 521 51 418 51 321 C51 129 206 -12 418 -12 C477 -12 517 -5 587 20 C633 35 670 43 696 43 C703 43 709 42 720 41 L720 112 C718 248 726 261 813 261 L821 261 L821 285 L505 285 Z M462 725 L586 856 L568 856 L439 779 L274 856 L254 856 L377 725 L462 725 Z " />
<glyph glyph-name="gcaron" unicode="&#x1e7;" horiz-adv-x="519" d="M379 368 C345 400 292 419 236 419 C135 419 55 354 55 272 C55 215 90 166 158 129 C94 119 59 90 59 48 C59 -5 111 -27 247 -32 C324 -35 345 -38 374 -49 C411 -63 430 -89 430 -125 C430 -188 363 -228 258 -228 C146 -228 75 -189 75 -128 C75 -103 86 -82 114 -57 C107 -55 104 -55 98 -55 C57 -55 31 -81 31 -123 C31 -198 121 -248 255 -248 C394 -248 480 -193 480 -103 C480 -59 457 -20 418 3 C385 22 338 31 252 35 C170 39 158 40 141 44 C111 50 99 58 99 73 C99 100 135 113 215 116 C272 117 300 123 334 139 C389 165 421 213 421 270 C421 299 412 328 393 355 C409 371 426 380 439 380 C450 380 454 377 464 362 C472 349 483 342 495 342 C513 342 527 356 527 374 C527 397 504 415 472 415 C441 415 410 399 379 368 L379 368 Z M235 396 C266 396 296 384 316 363 C336 343 345 314 345 268 C345 184 307 138 237 138 C167 138 129 182 129 264 C129 349 167 396 235 396 L235 396 Z M261 557 L153 657 L133 657 L226 492 L276 492 L364 657 L345 657 L261 557 Z " />
<glyph glyph-name="Scommaaccent" unicode="&#x218;" horiz-adv-x="600" d="M64 7 L91 7 C97 34 106 56 118 72 C171 16 238 -12 319 -12 C456 -12 549 66 549 181 C549 236 527 284 486 318 C456 343 429 356 313 403 C241 432 210 447 185 466 C151 492 135 520 135 553 C135 614 187 656 263 656 C359 656 431 596 461 492 L485 492 L485 667 L461 667 C459 647 449 626 433 608 C379 660 334 679 264 679 C152 679 70 609 70 513 C70 468 90 422 124 389 C152 362 198 337 276 308 C374 270 393 261 421 242 C458 215 478 180 478 142 C478 67 408 12 313 12 C197 12 121 83 91 221 L64 221 L64 7 Z M255 -286 C329 -271 373 -222 373 -157 C373 -100 339 -59 292 -59 C258 -59 236 -79 236 -110 C236 -138 258 -157 290 -157 C294 -157 298 -157 300 -156 C314 -152 314 -152 319 -152 C331 -152 338 -162 338 -180 C338 -218 306 -249 255 -262 L255 -286 Z " />
<glyph glyph-name="scommaaccent" unicode="&#x219;" horiz-adv-x="369" d="M45 -13 L66 -13 C70 1 84 24 90 29 C129 -5 155 -16 198 -16 C277 -16 333 33 333 102 C333 136 319 169 295 191 C273 212 252 223 197 246 C156 263 136 272 124 281 C102 297 90 316 90 336 C90 370 122 397 164 397 C219 397 267 353 283 288 L303 288 L303 412 L283 412 C274 393 267 381 262 377 C235 405 204 419 165 419 C100 419 46 369 46 307 C46 283 55 260 73 240 C93 217 113 204 174 178 C224 156 241 147 254 136 C274 118 284 99 284 77 C284 35 250 5 201 5 C168 5 134 19 110 41 C92 59 79 81 66 119 L45 119 L45 -13 Z M140 -272 C209 -257 251 -212 251 -150 C251 -97 220 -59 177 -59 C147 -59 126 -78 126 -105 C126 -131 146 -149 175 -149 C179 -149 183 -149 185 -148 C197 -144 197 -144 201 -144 C213 -144 219 -153 219 -168 C219 -206 189 -237 140 -249 L140 -272 Z " />
<glyph glyph-name="uni021A" unicode="&#x21a;" horiz-adv-x="756" d="M43 506 C69 628 96 649 217 644 L330 644 L330 174 C332 36 323 24 233 23 L194 23 L194 0 L560 0 L560 23 L522 23 C432 24 424 36 426 174 L426 644 L548 644 C659 648 688 624 714 506 L737 506 L733 667 L22 667 L18 506 L43 506 Z M334 -286 C408 -270 453 -222 453 -157 C453 -100 419 -59 371 -59 C337 -59 315 -79 315 -110 C315 -138 337 -157 369 -157 C373 -157 377 -157 380 -156 C394 -152 394 -152 398 -152 C411 -152 418 -162 418 -180 C418 -218 386 -249 334 -262 L334 -286 Z " />
<glyph glyph-name="uni021B" unicode="&#x21b;" horiz-adv-x="323" d="M305 380 L305 403 L168 403 L168 529 L152 529 C142 457 91 404 29 403 L29 380 L97 380 L97 152 C97 75 99 57 113 34 C131 4 168 -16 208 -16 C257 -16 300 9 322 49 L305 58 C284 31 262 18 236 18 C211 18 190 30 179 50 C170 65 168 84 168 137 L168 380 L305 380 Z M145 -272 C215 -257 257 -212 257 -150 C257 -97 225 -59 182 -59 C152 -59 132 -78 132 -105 C132 -131 152 -149 181 -149 C185 -149 189 -149 190 -148 C203 -144 203 -144 207 -144 C218 -144 225 -153 225 -168 C225 -206 194 -237 145 -249 L145 -272 Z " />
<glyph glyph-name="afii57929" unicode="&#x2bc;" horiz-adv-x="264" d="M76 409 C157 427 201 480 201 559 C201 621 168 667 123 667 C94 667 71 645 71 618 C71 590 94 568 123 568 C130 568 134 569 143 571 C147 572 150 573 153 573 C165 573 171 562 171 542 C171 485 139 448 76 435 L76 409 Z " />
<glyph glyph-name="circumflex" unicode="&#x2c6;" horiz-adv-x="527" d="M251 596 L359 496 L379 496 L286 661 L237 661 L148 496 L167 496 L251 596 Z " />
<glyph glyph-name="caron" unicode="&#x2c7;" horiz-adv-x="527" d="M276 557 L168 657 L148 657 L241 492 L290 492 L379 657 L360 657 L276 557 Z " />
<glyph glyph-name="uni02C9" unicode="&#x2c9;" horiz-adv-x="368" d="M33 565 L334 565 L334 588 L33 588 L33 565 Z " />
<glyph glyph-name="breve" unicode="&#x2d8;" horiz-adv-x="525" d="M135 651 C144 564 193 510 262 510 C331 510 381 565 390 651 L374 651 C355 602 321 580 265 580 C201 580 166 602 151 651 L135 651 Z " />
<glyph glyph-name="dotaccent" unicode="&#x2d9;" horiz-adv-x="542" d="M272 622 C249 622 231 604 231 582 C231 559 249 541 272 541 C294 541 312 559 312 582 C312 604 294 622 272 622 L272 622 Z " />
<glyph glyph-name="ring" unicode="&#x2da;" horiz-adv-x="532" d="M266 668 C217 668 177 628 177 580 C177 530 217 490 266 490 C315 490 355 530 355 579 C355 628 315 668 266 668 L266 668 Z M266 640 C300 640 327 613 327 579 C327 545 300 518 266 518 C232 518 205 545 205 580 C205 613 233 640 266 640 L266 640 Z " />
<glyph glyph-name="ogonek" unicode="&#x2db;" horiz-adv-x="525" d="M318 6 C265 -18 237 -52 237 -93 C237 -136 279 -168 336 -168 C370 -168 397 -160 433 -138 L426 -123 C402 -131 388 -134 369 -134 C326 -134 299 -111 299 -75 C299 -45 313 -21 347 6 L318 6 Z " />
<glyph glyph-name="tilde" unicode="&#x2dc;" horiz-adv-x="520" d="M125 524 C128 568 145 592 174 592 C186 592 198 587 214 574 C270 530 284 523 317 523 C348 523 374 536 391 560 C406 579 411 601 411 639 L397 639 C396 595 378 570 347 570 C331 570 320 576 292 597 C246 633 232 639 204 639 C147 639 109 592 110 524 L125 524 Z " />
<glyph glyph-name="hungarumlaut" unicode="&#x2dd;" horiz-adv-x="529" d="M154 493 L170 493 L363 661 L263 661 L154 493 Z M330 493 L346 493 L539 661 L439 661 L330 493 Z " />
<glyph glyph-name="Wdieresis" unicode="&#x1e84;" horiz-adv-x="1032" d="M757 -16 L919 486 C958 613 978 640 1034 644 L1039 644 L1039 667 L839 667 L839 644 L844 644 C891 644 915 622 915 579 C915 557 914 552 893 486 L781 132 L566 667 L536 667 L344 132 L213 520 C191 583 190 588 190 603 C190 630 207 640 261 644 L268 644 L268 667 L-7 667 L-7 644 L1 644 C59 642 74 623 112 503 L288 -16 L314 -16 L510 534 L733 -16 L757 -16 Z M414 826 C387 826 364 804 364 777 C364 748 386 726 414 726 C442 726 464 749 464 776 C464 804 442 826 414 826 L414 826 Z M686 826 C659 826 636 804 636 777 C636 748 658 726 686 726 C713 726 736 749 736 776 C736 804 714 826 686 826 L686 826 Z " />
<glyph glyph-name="uni2011" unicode="&#x2011;" horiz-adv-x="346" d="M39 233 L39 186 L304 186 L304 233 L39 233 Z " />
<glyph glyph-name="figuredash" unicode="&#x2012;" horiz-adv-x="611" d="M22 223 L22 200 L589 200 L589 223 L22 223 Z " />
<glyph glyph-name="endash" unicode="&#x2013;" horiz-adv-x="611" d="M22 223 L22 200 L589 200 L589 223 L22 223 Z " />
<glyph glyph-name="emdash" unicode="&#x2014;" horiz-adv-x="945" d="M22 223 L22 200 L923 200 L923 223 L22 223 Z " />
<glyph glyph-name="afii00208" unicode="&#x2015;" horiz-adv-x="945" d="M22 223 L22 200 L923 200 L923 223 L22 223 Z " />
<glyph glyph-name="quoteleft" unicode="&#x2018;" horiz-adv-x="264" d="M196 667 C116 650 71 596 71 517 C71 455 104 409 149 409 C178 409 201 431 201 458 C201 486 178 508 149 508 C142 508 138 507 129 505 C125 504 122 503 119 503 C107 503 101 514 101 534 C101 591 135 629 196 641 L196 667 Z " />
<glyph glyph-name="quoteright" unicode="&#x2019;" horiz-adv-x="229" d="M59 409 C140 427 184 480 184 559 C184 621 151 667 106 667 C77 667 54 645 54 618 C54 590 77 568 106 568 C113 568 117 569 126 571 C130 572 133 573 136 573 C148 573 154 562 154 542 C154 485 122 448 59 435 L59 409 Z " />
<glyph glyph-name="quotesinglbase" unicode="&#x201a;" horiz-adv-x="277" d="M77 -168 C164 -152 214 -98 214 -19 C214 43 177 89 128 89 C96 89 71 67 71 40 C71 12 96 -10 130 -10 C137 -10 141 -9 152 -7 C156 -6 161 -5 163 -5 C177 -5 184 -16 184 -36 C184 -93 146 -130 77 -143 L77 -168 Z " />
<glyph glyph-name="quotedblleft" unicode="&#x201c;" horiz-adv-x="495" d="M195 667 C115 650 70 596 70 517 C70 455 103 409 148 409 C177 409 200 431 200 458 C200 486 177 508 148 508 C141 508 137 507 128 505 C124 504 121 503 118 503 C106 503 100 514 100 534 C100 591 134 629 195 641 L195 667 Z M440 667 C360 650 315 596 315 517 C315 455 348 409 393 409 C422 409 445 431 445 458 C445 486 422 508 393 508 C387 508 382 507 373 505 C369 504 366 503 363 503 C351 503 345 514 345 534 C345 591 379 629 440 641 L440 667 Z " />
<glyph glyph-name="quotedblright" unicode="&#x201d;" horiz-adv-x="495" d="M59 409 C140 427 184 480 184 559 C184 621 151 667 106 667 C77 667 54 645 54 618 C54 590 77 568 106 568 C113 568 117 569 126 571 C130 572 133 573 136 573 C148 573 154 562 154 542 C154 485 122 448 59 435 L59 409 Z M304 409 C385 427 429 480 429 559 C429 621 396 667 351 667 C322 667 299 645 299 618 C299 590 322 568 351 568 C357 568 362 569 371 571 C375 572 379 573 381 573 C393 573 399 562 399 542 C399 485 366 448 304 435 L304 409 Z " />
<glyph glyph-name="quotedblbase" unicode="&#x201e;" horiz-adv-x="508" d="M60 -168 C147 -151 197 -97 197 -18 C197 44 160 90 111 90 C79 90 54 68 54 41 C54 13 80 -9 113 -9 C121 -9 123 -9 135 -6 C139 -5 143 -4 146 -4 C160 -4 167 -15 167 -35 C167 -92 129 -130 60 -142 L60 -168 Z M304 -168 C392 -151 442 -97 442 -18 C442 44 405 90 356 90 C324 90 299 68 299 41 C299 13 325 -9 358 -9 C366 -9 368 -9 380 -6 C384 -5 388 -4 391 -4 C405 -4 412 -14 412 -35 C412 -92 374 -130 304 -142 L304 -168 Z " />
<glyph glyph-name="dagger" unicode="&#x2020;" horiz-adv-x="473" d="M242 -240 L242 -20 C243 32 243 36 249 174 C254 257 254 257 254 279 C254 312 251 346 247 374 C243 398 243 399 242 423 C277 422 295 419 313 412 C354 393 360 391 383 391 C414 391 436 409 436 434 C436 458 413 475 381 475 C369 475 354 472 335 465 C290 449 271 445 242 445 C244 481 253 516 270 554 C280 578 283 589 283 606 C283 643 262 667 230 667 C198 667 177 644 177 610 C177 590 180 577 190 552 C212 497 216 479 218 445 C183 447 173 449 132 463 C108 472 98 474 84 474 C56 474 33 456 33 432 C33 409 55 392 86 392 C101 392 114 395 135 403 C144 406 153 409 161 412 C170 416 179 418 189 420 C195 421 200 421 218 423 C218 408 217 398 214 378 C209 341 206 310 206 279 C206 260 207 240 211 176 C217 89 218 65 218 -22 L218 -240 L242 -240 Z " />
<glyph glyph-name="daggerdbl" unicode="&#x2021;" horiz-adv-x="473" d="M246 259 C246 267 246 268 247 279 L249 290 C253 330 255 353 255 377 C255 409 252 430 244 463 C258 463 277 459 303 451 C347 436 357 434 374 434 C405 434 426 449 426 473 C426 496 406 510 374 510 C356 510 340 507 315 499 C283 488 263 484 244 483 C245 504 253 532 264 562 C277 597 279 606 279 621 C279 650 259 672 233 672 C207 672 187 651 187 622 C187 607 190 594 202 566 C217 529 225 498 224 483 C197 485 180 488 148 499 C119 509 107 512 91 512 C60 512 38 495 38 472 C38 449 60 432 91 432 C104 432 124 436 146 444 C176 455 181 456 224 463 C215 424 213 404 213 372 C213 356 215 332 218 313 C222 291 223 279 224 259 L246 259 Z M224 175 C223 129 222 113 219 94 C212 50 212 47 212 31 C212 7 215 -11 224 -31 C207 -31 182 -25 139 -11 C116 -3 106 -1 92 -1 C61 -1 39 -17 39 -40 C39 -63 59 -78 91 -78 C104 -78 112 -77 133 -71 C171 -59 182 -56 190 -54 C202 -51 211 -50 224 -49 C224 -67 217 -91 197 -138 C188 -160 185 -173 185 -187 C185 -217 207 -240 236 -240 C262 -240 282 -217 282 -187 C282 -174 278 -153 272 -137 C257 -99 248 -66 246 -49 C270 -50 281 -52 313 -62 C352 -74 359 -76 374 -76 C405 -76 428 -59 428 -37 C428 -16 406 1 377 1 C367 1 354 -2 337 -8 C299 -20 264 -29 246 -31 C254 -10 257 7 257 32 C257 47 256 63 254 75 C249 106 247 131 246 175 L224 175 Z " />
<glyph glyph-name="bullet" unicode="&#x2022;" horiz-adv-x="733" d="M369 480 C284 480 216 418 216 340 C216 263 284 200 367 200 C450 200 518 263 518 340 C518 417 451 480 369 480 L369 480 Z " />
<glyph glyph-name="ellipsis" unicode="&#x2026;" horiz-adv-x="1108" d="M188 90 C155 90 129 67 129 37 C129 8 155 -16 187 -16 C219 -16 245 8 245 37 C245 66 219 90 188 90 L188 90 Z M555 90 C522 90 496 67 496 37 C496 8 522 -16 554 -16 C586 -16 612 8 612 37 C612 66 586 90 555 90 L555 90 Z M923 90 C890 90 864 67 864 37 C864 8 890 -16 922 -16 C954 -16 980 8 980 37 C980 66 954 90 923 90 L923 90 Z " />
<glyph glyph-name="perthousand" unicode="&#x2030;" horiz-adv-x="1082" d="M176 677 C138 677 104 665 81 642 C49 610 29 558 29 504 C29 401 84 336 173 336 C265 336 322 402 322 508 C322 613 266 677 176 677 L176 677 Z M176 660 C232 660 254 619 254 512 C254 402 230 354 175 354 C144 354 117 373 108 401 C101 423 97 460 97 516 C97 617 121 660 176 660 L176 660 Z M193 0 L570 644 L537 644 L160 0 L193 0 Z M555 331 C517 331 483 319 460 296 C428 264 408 212 408 158 C408 55 463 -10 552 -10 C644 -10 701 56 701 162 C701 267 645 331 555 331 L555 331 Z M555 314 C611 314 633 273 633 166 C633 56 609 8 554 8 C523 8 496 27 487 55 C480 77 476 114 476 169 C476 271 500 314 555 314 L555 314 Z M906 331 C868 331 835 318 812 296 C780 264 760 212 760 158 C760 55 815 -10 904 -10 C995 -10 1052 56 1052 162 C1052 267 996 331 906 331 L906 331 Z M906 314 C963 314 984 273 984 166 C984 56 960 8 905 8 C875 8 848 27 839 55 C832 77 828 115 828 170 C828 271 851 314 906 314 L906 314 Z " />
<glyph glyph-name="guilsinglleft" unicode="&#x2039;" horiz-adv-x="300" d="M37 215 L238 23 L266 23 L142 215 L266 403 L238 403 L37 215 Z " />
<glyph glyph-name="guilsinglright" unicode="&#x203a;" horiz-adv-x="300" d="M261 215 L61 403 L32 403 L157 215 L32 23 L61 23 L261 215 Z " />
<glyph glyph-name="uni203E" unicode="&#x203e;" horiz-adv-x="500" d="M0 847 L0 807 L500 807 L500 847 L0 847 Z " />
<glyph glyph-name="fraction" unicode="&#x2044;" horiz-adv-x="146" d="M-99 0 L278 644 L244 644 L-132 0 L-99 0 Z " />
<glyph glyph-name="franc" unicode="&#x20a3;" horiz-adv-x="831" d="M602 667 L36 667 L36 644 L50 644 C148 646 155 636 153 501 L153 174 C155 36 147 23 56 23 L32 23 L32 0 L373 0 L373 23 L347 23 C255 23 247 36 249 174 L249 340 L321 340 C406 343 431 320 433 239 L433 229 L460 229 L460 464 L433 464 L433 458 C432 382 408 360 321 362 L249 362 L249 644 L397 644 C487 645 510 638 544 598 C565 571 579 537 583 501 L608 501 L602 667 Z M493 319 L504 319 C570 318 573 312 571 207 L571 134 C573 28 570 24 504 22 L493 22 L493 0 L721 0 L721 22 L706 22 C641 24 638 29 640 134 L640 166 C640 232 644 251 669 283 C690 313 723 335 745 335 C758 335 767 328 774 311 C784 286 795 276 814 276 C835 276 850 291 850 310 C850 341 815 369 775 369 C721 369 662 327 636 269 C635 312 629 346 621 369 C581 357 519 343 493 341 L493 319 Z " />
<glyph glyph-name="Euro" unicode="&#x20ac;" horiz-adv-x="820" d="M225 364 C240 552 330 654 482 654 C568 654 650 618 695 560 C723 525 742 477 754 414 L777 414 L771 667 L747 667 C744 640 733 605 719 581 C663 641 568 679 470 679 C273 679 137 559 113 364 L61 364 L47 335 L111 335 L111 319 L111 306 L61 306 L47 277 L114 277 C134 102 275 -12 472 -12 C572 -12 654 21 719 87 C734 70 749 40 754 17 L777 17 L777 250 L754 250 C742 165 695 87 636 55 C591 30 538 16 488 16 C342 16 242 116 226 277 L553 277 L567 306 L224 306 L224 335 L580 335 L594 364 L225 364 Z " />
<glyph glyph-name="trademark" unicode="&#x2122;" horiz-adv-x="945" d="M93 287 L297 287 L297 304 L268 304 C229 304 223 310 224 348 L224 647 L268 647 C333 647 351 631 353 568 L372 568 L372 667 L17 667 L17 568 L36 568 C38 631 56 647 122 647 L166 647 L166 348 C167 310 161 304 122 304 L93 304 L93 287 Z M393 667 L393 650 C442 649 451 645 450 621 L450 345 C451 318 436 306 395 304 L395 287 L528 287 L528 304 C487 307 471 319 472 346 L472 631 L633 287 L644 287 L804 621 L804 345 C805 314 795 305 760 304 L743 304 L743 287 L917 287 L917 304 L902 304 C868 304 859 314 860 345 L860 609 C859 640 868 650 902 650 L920 650 L920 667 L803 667 L659 369 L523 667 L393 667 Z " />
<glyph glyph-name="uni2126" unicode="&#x2126;" horiz-adv-x="768" d="M326 0 L308 155 C230 199 180 288 180 382 C180 434 195 493 221 540 C257 605 317 642 385 642 C453 642 513 605 549 540 C575 493 590 434 590 382 C590 288 540 199 462 155 L444 0 L736 0 L736 153 L712 153 C704 108 684 90 643 90 L497 90 L500 128 C535 141 557 151 580 166 C657 215 702 296 702 382 C702 449 673 522 625 578 C564 648 480 686 385 686 C290 686 206 648 145 578 C97 522 68 449 68 382 C68 296 113 215 190 166 C213 151 235 141 270 128 L273 90 L127 90 C86 90 66 108 58 153 L34 153 L34 0 L326 0 Z " />
<glyph glyph-name="partialdiff" unicode="&#x2202;" horiz-adv-x="494" d="M107 674 C152 697 184 706 219 706 C321 706 379 611 379 448 C379 418 377 395 372 346 C308 396 272 412 221 412 C172 412 131 394 95 355 C51 309 26 246 26 184 C26 76 109 -10 213 -10 C282 -10 341 22 383 84 C429 152 462 286 462 403 C462 519 428 611 360 681 C312 730 259 753 195 753 C156 753 122 746 66 725 L107 674 Z M366 312 C350 201 339 158 314 107 C288 54 245 21 201 21 C146 21 113 73 113 159 C113 273 180 367 261 367 C299 367 324 354 366 312 L366 312 Z " />
<glyph glyph-name="Delta" unicode="&#x2206;" horiz-adv-x="612" d="M6 0 L608 0 L327 688 L6 0 Z M77 51 L290 509 L479 51 L77 51 Z " />
<glyph glyph-name="product" unicode="&#x220f;" horiz-adv-x="823" d="M25 -124 L315 -124 L315 -98 L312 -98 C242 -94 221 -67 224 18 L224 594 C224 656 228 677 242 690 C260 707 272 708 413 708 C556 708 568 707 586 690 C600 677 604 656 604 594 L604 18 C607 -67 586 -94 516 -98 L513 -98 L513 -124 L803 -124 L803 -98 L800 -98 C730 -94 709 -67 712 18 L712 609 C709 694 730 721 800 725 L803 725 L803 751 L25 751 L25 725 L28 725 C98 721 119 694 116 609 L116 18 C119 -67 98 -94 28 -98 L25 -98 L25 -124 Z " />
<glyph glyph-name="summation" unicode="&#x2211;" horiz-adv-x="713" d="M176 711 L444 711 C560 710 590 688 606 587 L632 587 L622 752 L23 752 L256 285 L14 -123 L641 -123 L695 87 L669 87 C639 7 605 -12 491 -11 L163 -11 L364 341 L176 711 Z " />
<glyph glyph-name="minus" unicode="&#x2212;" horiz-adv-x="550" d="M25 362 L25 320 L524 320 L524 362 L25 362 Z " />
<glyph glyph-name="uni2215" unicode="&#x2215;" horiz-adv-x="146" d="M-99 0 L278 644 L244 644 L-132 0 L-99 0 Z " />
<glyph glyph-name="uni2219" unicode="&#x2219;" horiz-adv-x="300" d="M148 386 C116 386 90 362 90 334 C90 304 116 281 148 281 C180 281 206 305 206 334 C206 363 180 386 148 386 L148 386 Z " />
<glyph glyph-name="radical" unicode="&#x221a;" horiz-adv-x="549" d="M363 -35 L515 908 L480 913 L353 123 L156 520 L10 449 L26 414 L121 461 L363 -35 Z " />
<glyph glyph-name="infinity" unicode="&#x221e;" horiz-adv-x="713" d="M357 303 C300 375 234 414 171 414 C86 414 26 351 26 263 C26 176 84 115 167 115 C224 115 282 143 327 192 C335 201 340 207 357 228 C415 156 485 115 548 115 C631 115 688 176 688 266 C688 354 629 414 543 414 C476 414 412 376 357 303 L357 303 Z M391 265 C434 325 493 362 546 362 C600 362 638 321 638 264 C638 205 603 167 549 167 C495 167 461 188 391 265 L391 265 Z M324 266 C275 203 216 167 163 167 C111 167 76 207 76 266 C76 323 113 362 167 362 C218 362 259 337 324 266 L324 266 Z " />
<glyph glyph-name="integral" unicode="&#x222b;" horiz-adv-x="274" d="M180 576 C180 653 179 691 176 746 C174 774 173 800 173 815 C173 855 184 878 202 878 C208 878 213 876 215 872 C232 845 239 839 256 839 C276 839 291 853 291 871 C291 898 267 916 231 916 C186 916 152 887 138 838 C123 784 113 682 113 577 L113 232 C113 160 114 124 117 63 C119 34 120 4 120 -12 C120 -47 108 -70 89 -70 C81 -70 74 -65 68 -52 C59 -35 51 -30 37 -30 C17 -30 2 -44 2 -63 C2 -89 26 -107 62 -107 C107 -107 141 -78 155 -29 C170 25 180 126 180 232 L180 576 Z " />
<glyph glyph-name="approxequal" unicode="&#x2248;" horiz-adv-x="549" d="M489 251 C444 199 423 187 384 187 C365 187 354 190 285 211 C212 234 188 239 160 239 C101 239 54 211 14 155 L57 121 C103 174 120 184 159 184 C180 184 180 184 271 157 C350 133 354 132 385 132 C449 132 496 160 527 217 L489 251 Z M489 408 C443 356 424 344 384 344 C365 344 354 347 285 369 C212 392 188 397 160 397 C101 397 54 369 14 312 L57 279 C104 332 119 342 159 342 C181 342 181 342 271 315 C351 290 354 289 385 289 C449 289 496 318 527 375 L489 408 Z " />
<glyph glyph-name="notequal" unicode="&#x2260;" horiz-adv-x="549" d="M187 142 L115 -1 L161 -25 L246 142 L540 142 L540 197 L273 197 L344 336 L540 336 L540 391 L371 391 L439 525 L392 549 L312 391 L15 391 L15 336 L285 336 L215 197 L15 197 L15 142 L187 142 Z " />
<glyph glyph-name="lessequal" unicode="&#x2264;" horiz-adv-x="549" d="M526 55 L29 55 L29 0 L526 0 L526 55 Z M526 639 L29 405 L29 350 L526 117 L526 179 L108 378 L526 577 L526 639 Z " />
<glyph glyph-name="greaterequal" unicode="&#x2265;" horiz-adv-x="549" d="M526 55 L29 55 L29 0 L526 0 L526 55 Z M29 639 L29 577 L447 378 L29 179 L29 117 L526 350 L526 405 L29 639 Z " />
<glyph glyph-name="lozenge" unicode="&#x25ca;" horiz-adv-x="494" d="M209 0 L269 -1 L466 374 L277 740 L214 740 L18 377 L209 0 Z M240 58 L81 376 L245 683 L402 373 L240 58 Z " />
<glyph glyph-name="fi" unicode="&#xfb01;" horiz-adv-x="573" d="M13 380 L103 380 L103 138 C103 101 103 79 102 75 C102 57 100 50 95 42 C85 28 69 22 34 23 L26 23 L26 0 L252 0 L252 23 L243 23 C175 24 172 30 174 138 L174 380 L328 380 C407 382 417 370 414 284 L414 138 L413 75 C413 57 411 50 406 42 C396 28 380 22 345 23 L335 23 L335 0 L561 0 L561 23 L554 23 C487 24 483 30 485 138 L485 419 L473 419 C444 409 387 403 315 403 L174 403 L174 436 C174 532 182 578 202 606 C225 636 266 655 308 655 C347 655 370 643 391 612 C411 584 424 575 445 575 C463 575 478 589 478 607 C478 646 412 677 328 677 C252 677 190 653 150 606 C116 567 103 522 103 441 L103 403 L13 403 L13 380 Z " />
<glyph glyph-name="fl" unicode="&#xfb02;" horiz-adv-x="573" d="M103 403 L13 403 L13 380 L103 380 L103 138 C103 101 103 79 102 75 C102 57 100 50 95 42 C85 28 69 22 34 23 L26 23 L26 0 L251 0 L251 23 L243 23 C175 24 172 30 174 138 L174 380 L415 380 L415 138 L414 75 C414 57 412 50 407 42 C397 27 380 22 346 23 L335 23 L335 0 L562 0 L562 23 L556 23 C488 24 485 30 487 138 L487 677 L475 677 C451 669 434 665 424 663 C402 671 365 677 331 677 C256 677 191 651 150 605 C116 567 103 522 103 441 L103 403 Z M415 403 L174 403 L174 436 C174 533 182 578 203 606 C227 636 269 655 312 655 C352 655 378 642 399 612 C408 599 411 595 415 592 L415 403 Z " />
</font>
</svg>
