<?xml version="1.0" encoding="UTF-8"?>
<svg xmlns="http://www.w3.org/2000/svg" xmlns:xlink="http://www.w3.org/1999/xlink" version="1.2" >
<font id="Baskerville URW Extra Narrow Medium Oblique">
<font-face  font-family="Baskerville URW Extra Narrow" units-per-em="1000" ascent="677" descent="-323" font-style="italic" font-weight="500" font-stretch="semi-condensed" cap-height="666" x-height="403" underline-position="-90" underline-thickness="58" />
<missing-glyph  horiz-adv-x="250" d="" />
<glyph glyph-name="NULL" d="" />
<glyph glyph-name="CR" unicode="&#xd;" horiz-adv-x="250" d="" />
<glyph glyph-name="space" unicode="&#x20;" horiz-adv-x="250" d="" />
<glyph glyph-name="exclam" unicode="&#x21;" horiz-adv-x="233" d="M96 200 L201 545 C216 595 219 607 219 625 C219 652 205 667 181 667 C158 667 139 654 127 629 C118 612 116 602 109 544 L67 200 L96 200 Z M64 113 C25 113 -11 74 -11 33 C-11 4 8 -17 35 -17 C73 -17 109 22 109 63 C109 92 90 113 64 113 L64 113 Z " />
<glyph glyph-name="quotedbl" unicode="&#x22;" horiz-adv-x="347" d="M127 399 L212 667 L113 667 L84 399 L127 399 Z M291 399 L376 667 L277 667 L248 399 L291 399 Z " />
<glyph glyph-name="numbersign" unicode="&#x23;" horiz-adv-x="527" d="M329 229 L429 229 L446 274 L349 274 L401 407 L502 407 L519 452 L422 452 L510 667 L465 667 L377 452 L255 452 L344 667 L299 667 L210 452 L104 452 L87 407 L190 407 L138 274 L31 274 L14 229 L118 229 L23 0 L68 0 L162 229 L284 229 L189 0 L235 0 L329 229 Z M356 407 L304 274 L182 274 L235 407 L356 407 Z " />
<glyph glyph-name="dollar" unicode="&#x24;" horiz-adv-x="466" d="M148 -113 L169 -14 C298 1 393 102 393 224 C393 290 363 328 277 374 C266 379 264 381 254 386 L305 623 C353 617 378 589 375 546 C375 505 384 486 404 486 C427 486 447 512 447 542 C447 604 391 650 311 654 L317 682 L284 682 L278 654 C163 642 80 554 80 446 C80 384 107 347 182 305 C194 298 196 297 201 294 L142 18 C93 23 71 46 67 94 C65 125 57 138 39 138 C16 138 -5 113 -5 85 C-5 30 55 -13 135 -15 L114 -113 L148 -113 Z M231 278 C239 273 240 272 258 260 C298 235 312 214 312 176 C312 98 251 27 176 18 L231 278 Z M224 400 L220 402 C166 433 149 454 149 492 C149 554 200 614 259 620 C263 621 266 621 267 621 L271 622 L224 400 Z " />
<glyph glyph-name="percent" unicode="&#x25;" horiz-adv-x="635" d="M228 680 C182 680 147 662 114 620 C76 573 54 508 54 446 C54 375 89 335 151 335 C196 335 234 355 264 394 C301 441 322 503 322 565 C322 639 289 680 228 680 L228 680 Z M219 652 C237 652 248 636 248 611 C248 566 229 474 209 420 C194 377 178 359 157 359 C139 359 128 375 128 403 C128 459 159 587 184 629 C191 642 206 652 219 652 L219 652 Z M112 0 L559 652 L519 652 L73 0 L112 0 Z M486 332 C440 332 404 313 371 273 C334 226 312 162 312 101 C312 29 347 -11 409 -11 C454 -11 492 9 522 48 C559 95 580 156 580 218 C580 291 547 332 486 332 L486 332 Z M477 307 C495 307 506 291 506 266 C506 221 487 128 467 75 C452 33 436 15 415 15 C397 15 386 31 386 59 C386 115 417 241 441 284 C449 297 464 307 477 307 L477 307 Z " />
<glyph glyph-name="ampersand" unicode="&#x26;" horiz-adv-x="655" d="M566 98 C548 63 524 46 494 46 C456 46 428 74 400 140 C397 146 397 147 394 151 C415 174 434 198 453 228 C512 322 549 356 605 371 L612 404 L421 404 L414 371 C448 367 464 353 464 327 C464 321 463 318 453 295 C436 254 420 229 380 182 C339 278 332 293 287 394 C384 443 436 502 436 563 C436 616 392 653 331 653 C241 653 166 573 166 476 C166 444 173 411 185 380 C187 375 188 374 188 372 C128 334 79 297 56 271 C18 228 -2 177 -2 125 C-2 45 54 -15 130 -15 C190 -15 245 11 318 73 C353 12 393 -15 449 -15 C516 -15 570 27 596 98 L566 98 Z M303 102 C267 67 230 48 197 48 C146 48 102 108 102 178 C102 237 137 296 200 341 C206 330 206 328 212 316 C221 294 237 258 249 231 C295 120 298 114 303 102 L303 102 Z M241 526 C241 577 280 618 328 618 C364 618 387 595 387 557 C387 507 352 465 275 423 C255 459 241 503 241 525 L241 526 Z " />
<glyph glyph-name="quotesingle" unicode="&#x27;" horiz-adv-x="196" d="M135 399 L220 667 L118 667 L89 399 L135 399 Z " />
<glyph glyph-name="parenleft" unicode="&#x28;" horiz-adv-x="249" d="M122 -242 C81 -166 61 -76 61 31 C61 267 159 517 314 675 L270 675 C116 517 14 266 14 46 C14 -56 38 -163 79 -242 L122 -242 Z " />
<glyph glyph-name="parenright" unicode="&#x29;" horiz-adv-x="249" d="M-74 -242 C90 -66 186 170 186 399 C186 506 165 598 124 675 L80 675 C121 597 140 511 140 408 C140 173 41 -77 -118 -242 L-74 -242 Z " />
<glyph glyph-name="asterisk" unicode="&#x2a;" horiz-adv-x="412" d="M351 468 C393 468 431 502 431 539 C431 561 418 576 399 576 C380 576 358 563 326 532 C288 496 271 482 245 469 C246 484 264 529 291 577 C305 603 311 622 311 636 C311 658 296 674 276 674 C255 674 236 660 224 634 C221 627 221 627 221 545 L218 475 C218 473 219 471 222 469 C198 492 191 501 174 525 C148 566 139 574 117 574 C91 574 64 544 64 514 C64 484 85 469 127 467 C158 465 165 464 209 445 C195 433 166 420 125 407 C69 390 43 367 43 333 C43 311 59 296 81 296 C98 296 120 309 133 329 C162 374 194 411 218 428 C210 400 200 379 180 342 C157 299 149 277 149 259 C149 239 160 226 177 226 C210 226 237 265 237 312 C237 318 237 328 236 342 C235 363 234 377 234 389 C234 404 234 413 236 428 C248 415 261 389 269 367 C284 312 295 296 317 296 C346 296 373 323 373 352 C373 378 356 394 315 409 C276 423 262 430 249 445 C270 455 317 469 330 469 C334 469 337 469 342 468 L351 468 Z " />
<glyph glyph-name="plus" unicode="&#x2b;" horiz-adv-x="450" d="M24 379 L12 321 L192 321 L150 125 L211 125 L252 321 L433 321 L446 379 L265 379 L306 576 L246 576 L204 379 L24 379 Z " />
<glyph glyph-name="comma" unicode="&#x2c;" horiz-adv-x="252" d="M-61 -195 C45 -175 128 -76 128 31 C128 81 105 112 68 112 C28 112 -6 75 -6 30 C-6 6 11 -12 33 -12 C37 -12 44 -11 51 -9 C56 -8 60 -7 62 -7 C69 -7 74 -14 74 -25 C74 -78 13 -141 -53 -159 L-61 -195 Z " />
<glyph glyph-name="hyphen" unicode="&#x2d;" horiz-adv-x="293" d="M10 241 L-2 184 L230 184 L242 241 L10 241 Z " />
<glyph glyph-name="period" unicode="&#x2e;" horiz-adv-x="252" d="M80 113 C41 113 5 74 5 33 C5 4 24 -17 51 -17 C89 -17 125 22 125 63 C125 92 106 113 80 113 L80 113 Z " />
<glyph glyph-name="slash" unicode="&#x2f;" horiz-adv-x="261" d="M296 668 L244 668 L-133 -239 L-81 -239 L296 668 Z " />
<glyph glyph-name="zero" unicode="0" horiz-adv-x="466" d="M304 666 C222 666 143 602 89 492 C47 406 17 277 17 184 C17 63 72 -15 157 -15 C241 -15 322 51 377 165 C416 248 446 377 446 467 C446 589 391 666 304 666 L304 666 Z M298 631 C333 631 357 599 357 553 C357 515 346 438 328 356 C320 318 316 298 315 295 C302 228 280 148 262 102 C244 54 204 20 167 20 C130 20 108 52 108 106 C108 211 176 508 215 572 C239 612 266 631 298 631 L298 631 Z " />
<glyph glyph-name="one" unicode="1" horiz-adv-x="466" d="M173 591 L188 591 C222 591 234 582 234 554 C234 542 232 530 223 488 L147 130 C127 44 120 34 76 33 L60 33 L53 0 L285 0 L292 33 L274 33 C246 33 234 42 234 62 C234 76 236 88 246 135 L359 667 L327 667 C292 641 238 626 180 624 L173 591 Z " />
<glyph glyph-name="two" unicode="2" horiz-adv-x="466" d="M-19 0 L252 0 C280 0 285 -2 285 -14 C285 -19 283 -24 278 -38 L274 -47 L304 -47 L354 73 L82 73 C119 103 157 137 221 196 C335 302 383 353 408 394 C431 431 449 488 449 521 L449 531 L449 532 C449 611 390 666 304 666 C188 666 87 574 87 469 C87 435 99 404 113 404 C128 404 166 432 166 444 L166 446 L164 452 C164 452 163 453 163 455 C163 459 162 463 161 465 L161 467 C160 467 160 468 160 469 L160 470 C156 488 156 488 156 498 C156 565 211 629 268 629 C311 629 340 593 340 541 C340 469 313 395 257 315 C196 229 80 108 -11 36 L-19 0 Z " />
<glyph glyph-name="three" unicode="3" horiz-adv-x="466" d="M157 457 C177 466 186 471 186 477 C186 478 186 481 185 482 C178 498 177 503 177 517 C177 577 226 630 282 630 C310 630 334 604 334 573 C334 549 328 517 321 497 C303 450 257 401 193 361 C159 339 142 322 142 309 C142 303 149 293 154 293 C160 293 166 297 183 313 C202 331 220 340 237 340 C264 340 284 312 284 274 C284 219 265 140 241 96 C214 47 171 18 125 18 C92 18 75 37 72 76 C69 113 62 125 41 125 C17 125 -6 98 -6 70 C-6 22 49 -16 119 -16 C267 -16 391 107 391 254 C391 328 350 371 281 371 C279 371 274 370 266 369 C274 377 277 379 319 405 C398 453 442 512 442 568 C442 626 389 666 312 666 C204 666 105 584 105 494 C105 468 115 447 127 447 C131 447 140 450 149 453 L157 457 Z " />
<glyph glyph-name="four" unicode="4" horiz-adv-x="466" d="M215 224 L196 133 C178 47 169 34 123 33 L106 33 L99 0 L330 0 L337 33 L325 33 C295 33 285 42 285 66 C285 79 285 82 297 135 L315 224 L413 224 L441 306 L419 306 L413 296 C397 268 394 266 371 266 L365 266 L356 266 L341 266 L324 266 L409 665 L360 665 L16 268 L7 224 L215 224 Z M224 266 L52 266 L282 540 L224 266 Z " />
<glyph glyph-name="five" unicode="5" horiz-adv-x="466" d="M125 337 C155 380 186 402 221 402 C260 402 287 368 287 318 C287 276 276 214 258 160 C230 71 179 19 118 19 C84 19 65 36 60 73 C55 113 46 127 27 127 C3 127 -19 102 -19 75 C-19 24 38 -15 111 -15 C265 -15 392 121 392 286 C392 379 337 442 255 442 C212 442 173 424 134 386 L180 574 L338 574 L344 574 L346 574 C373 572 380 580 423 652 L170 652 L91 337 L125 337 Z " />
<glyph glyph-name="six" unicode="6" horiz-adv-x="466" d="M150 357 C160 400 171 440 182 473 C213 568 272 630 333 630 C364 630 380 618 389 589 C398 561 407 551 425 551 C448 551 468 573 468 599 C468 636 421 666 364 666 C275 666 190 614 125 519 C59 422 17 288 17 174 C17 58 77 -15 170 -15 C297 -15 411 115 411 261 C411 347 354 411 277 411 C229 411 192 395 150 357 L150 357 Z M249 377 C289 377 313 344 313 289 C313 235 289 137 261 81 C244 44 208 19 175 19 C134 19 112 54 112 116 C112 180 129 264 151 306 C174 351 210 377 249 377 L249 377 Z " />
<glyph glyph-name="seven" unicode="7" horiz-adv-x="466" d="M480 652 L235 652 C207 652 201 655 201 665 C201 668 201 668 203 672 L176 672 L98 513 L115 512 C125 512 128 514 132 523 C152 560 162 567 198 567 L211 567 L406 567 L119 105 C102 77 93 62 91 58 C79 37 75 25 75 14 C75 -3 88 -16 105 -16 C134 -16 158 12 200 96 L480 652 Z " />
<glyph glyph-name="eight" unicode="8" horiz-adv-x="466" d="M284 342 C386 369 450 445 450 539 C450 617 392 668 303 668 C186 668 89 577 89 465 C89 405 125 360 186 342 C73 320 -1 234 -1 125 C-1 41 63 -15 160 -15 C294 -15 399 87 399 216 C399 285 357 331 284 342 L284 342 Z M297 635 C328 635 349 605 349 560 C349 522 332 452 313 415 C296 381 264 358 236 358 C204 358 187 383 187 428 C187 477 204 545 225 585 C240 613 271 635 297 635 L297 635 Z M231 324 C270 324 295 294 295 247 C295 199 278 126 256 80 C239 44 200 18 165 18 C127 18 103 49 103 99 C103 132 113 183 129 228 C150 289 187 324 231 324 L231 324 Z " />
<glyph glyph-name="nine" unicode="9" horiz-adv-x="466" d="M319 293 C295 194 284 161 261 116 C230 55 184 20 136 20 C106 20 91 31 81 61 C72 88 62 98 45 98 C22 98 2 77 2 51 C2 14 49 -16 106 -16 C188 -16 271 33 329 116 C402 221 447 360 447 480 C447 595 391 666 300 666 C173 666 59 537 59 393 C59 301 116 237 197 237 C238 237 261 247 310 287 L319 293 Z M221 273 C182 273 157 307 157 361 C157 396 172 471 189 527 C210 592 250 632 296 632 C335 632 358 596 358 533 C358 507 358 507 346 438 C326 334 281 275 221 273 L221 273 Z " />
<glyph glyph-name="colon" unicode="&#x3a;" horiz-adv-x="252" d="M82 113 C43 113 7 74 7 33 C7 4 26 -17 53 -17 C91 -17 127 22 127 63 C127 92 108 113 82 113 L82 113 Z M148 426 C110 426 74 387 74 346 C74 317 93 296 119 296 C158 296 194 335 194 376 C194 405 175 426 148 426 L148 426 Z " />
<glyph glyph-name="semicolon" unicode="&#x3b;" horiz-adv-x="252" d="M-61 -195 C45 -175 128 -76 128 31 C128 81 105 112 68 112 C28 112 -6 75 -6 30 C-6 6 11 -12 33 -12 C37 -12 44 -11 51 -9 C56 -8 60 -7 62 -7 C69 -7 74 -14 74 -25 C74 -78 13 -141 -53 -159 L-61 -195 Z M144 427 C106 427 70 388 70 347 C70 318 89 297 116 297 C154 297 190 336 190 377 C190 406 171 427 144 427 L144 427 Z " />
<glyph glyph-name="less" unicode="&#x3c;" horiz-adv-x="450" d="M475 623 L43 358 L41 351 L357 68 L385 201 L171 391 L464 573 L475 623 Z " />
<glyph glyph-name="equal" unicode="&#x3d;" horiz-adv-x="464" d="M39 451 L27 395 L462 395 L474 451 L39 451 Z M15 306 L3 249 L424 249 L436 306 L15 306 Z " />
<glyph glyph-name="greater" unicode="&#x3e;" horiz-adv-x="450" d="M-19 68 L413 333 L415 341 L99 623 L71 490 L285 300 L-8 118 L-19 68 Z " />
<glyph glyph-name="question" unicode="&#x3f;" horiz-adv-x="384" d="M87 113 C49 113 13 74 13 33 C13 4 32 -17 58 -17 C96 -17 132 22 132 63 C132 92 113 113 87 113 L87 113 Z M86 198 L121 198 L151 340 C166 325 185 318 207 318 C298 318 377 415 377 526 C377 615 327 667 240 667 C166 667 92 621 92 575 C92 562 102 551 114 551 C131 551 143 561 158 588 C175 620 195 634 223 634 C257 634 280 602 280 555 C280 527 272 484 260 448 C241 389 217 360 188 360 C173 360 163 370 157 390 L127 390 L86 198 Z " />
<glyph glyph-name="at" unicode="&#x40;" horiz-adv-x="701" d="M486 473 C472 508 450 525 417 525 C359 525 289 472 234 385 C197 327 179 274 179 223 C179 170 205 136 246 136 C273 136 303 150 335 177 C354 193 360 199 365 205 C371 213 378 220 379 220 L379 219 L378 215 C377 208 377 208 377 203 C377 162 393 139 423 139 C477 139 547 185 599 255 C649 322 676 400 676 475 C676 600 591 681 460 681 C339 681 223 621 138 513 C73 432 36 333 36 245 L36 242 C36 94 133 -13 267 -13 C332 -13 402 10 457 50 C482 67 502 84 543 121 L511 129 C469 97 459 89 443 78 C396 46 338 27 285 27 C171 27 82 122 82 243 C82 292 92 335 114 387 C183 548 310 643 455 643 C561 643 635 570 635 467 C635 425 625 379 608 340 C571 254 495 176 450 176 C438 176 430 185 430 200 C430 209 430 209 437 233 L438 236 C447 264 450 273 451 276 L561 518 C539 514 526 513 502 512 L486 473 Z M423 348 L418 338 C412 324 408 317 408 316 C392 282 376 255 360 233 C328 192 298 170 272 170 C251 170 238 186 238 214 C238 251 261 313 298 375 C345 455 387 494 426 494 C448 494 462 477 462 449 C462 433 462 433 439 379 L423 348 Z " />
<glyph glyph-name="A" unicode="A" horiz-adv-x="593" d="M534 0 L541 33 L536 34 C491 42 485 53 469 152 L384 677 L355 677 L56 163 C5 73 -24 42 -68 34 L-76 33 L-83 0 L102 0 L109 33 L102 33 C74 33 55 50 55 75 C55 96 64 115 105 186 L126 223 L340 223 L355 125 C360 98 361 86 361 76 C361 46 340 33 291 33 L285 33 L277 0 L534 0 Z M335 257 L146 257 L294 513 L335 257 Z " />
<glyph glyph-name="B" unicode="B" horiz-adv-x="583" d="M101 666 L94 632 L103 632 C147 632 160 624 160 595 C160 581 154 541 147 508 L73 161 C50 51 38 34 -22 33 L-38 33 L-45 0 L220 0 C326 0 382 13 428 49 C481 89 514 155 514 218 C514 299 463 344 357 357 C421 371 467 391 498 419 C534 453 555 499 555 546 C555 633 485 673 331 673 C303 673 303 673 204 669 L101 666 Z M233 337 C244 338 254 338 260 338 C348 338 383 310 383 242 C383 211 374 163 361 129 C339 71 288 35 230 35 C195 35 182 46 182 76 C182 92 185 112 200 180 L233 337 Z M241 373 L297 636 C311 637 315 637 323 637 C396 637 423 617 423 562 C423 507 407 452 383 421 C355 386 322 373 257 373 L241 373 Z " />
<glyph glyph-name="C" unicode="C" horiz-adv-x="658" d="M550 252 C500 110 409 28 302 28 C221 28 164 96 164 194 C164 274 187 381 221 464 C268 578 343 641 431 641 C469 641 503 628 531 604 C565 573 583 519 583 445 C583 434 583 426 582 413 L611 413 L659 664 L629 664 C628 662 628 661 627 657 C621 639 604 606 591 587 C555 646 491 679 410 679 C308 679 212 629 138 537 C68 450 29 341 29 233 C29 83 120 -13 264 -13 C347 -13 423 20 486 82 C496 61 500 42 499 13 L529 13 L579 252 L550 252 Z " />
<glyph glyph-name="D" unicode="D" horiz-adv-x="701" d="M91 630 L104 630 C148 630 161 622 161 593 C161 577 156 541 149 508 L75 161 C52 51 39 34 -20 33 L-38 33 L-45 0 L207 0 C344 0 390 7 454 40 C582 105 668 258 668 418 C668 508 635 577 571 619 C513 657 433 673 308 673 L290 673 C253 672 248 672 189 669 C143 666 125 665 98 664 L91 630 Z M299 637 C318 638 333 639 350 639 C405 639 437 632 463 614 C510 582 534 527 534 450 C534 329 493 196 432 117 C388 60 330 35 246 35 C199 35 186 45 186 79 C186 102 189 120 203 187 L299 637 Z " />
<glyph glyph-name="E" unicode="E" horiz-adv-x="577" d="M494 211 C432 79 379 34 285 35 L252 35 C197 35 182 45 182 82 C182 97 188 135 196 173 L230 333 L291 333 C342 333 355 325 355 292 C355 279 353 260 349 243 L348 235 L377 235 L426 463 L396 463 L394 456 C378 384 364 371 296 369 L237 369 L293 632 L383 632 C482 635 507 608 507 499 L538 499 L562 667 L105 667 L98 634 L106 634 C143 634 157 623 157 595 C157 578 153 546 145 511 L71 161 C47 51 34 34 -26 34 L-38 34 L-45 0 L469 0 L524 211 L494 211 Z " />
<glyph glyph-name="F" unicode="F" horiz-adv-x="516" d="M575 667 L99 667 L92 634 L101 634 C146 634 160 625 160 596 C160 582 154 540 148 511 L73 161 C50 52 37 34 -23 33 L-38 33 L-45 0 L249 0 L256 33 L239 33 C197 33 183 45 183 78 C183 92 188 123 196 161 L232 332 L282 332 C332 332 344 322 344 279 C344 265 343 251 340 237 L339 229 L370 229 L419 462 L388 462 L387 456 C369 385 350 367 290 367 L240 367 L296 632 L400 632 C444 632 459 630 473 622 C498 608 514 567 514 520 C514 513 514 508 513 497 L544 497 L575 667 Z " />
<glyph glyph-name="G" unicode="G" horiz-adv-x="699" d="M404 292 L397 258 L409 258 C455 257 467 248 467 215 C467 206 465 193 463 181 L458 156 C441 77 377 24 298 24 C217 24 164 84 164 175 C164 261 189 385 223 467 C269 578 345 639 436 639 C526 639 583 569 583 458 C583 450 583 445 582 434 L614 434 L660 661 L628 661 C619 632 609 611 594 588 C553 650 496 679 417 679 C312 679 215 627 138 531 C68 443 29 339 29 238 C29 86 124 -13 269 -13 C306 -13 350 -6 384 5 C463 30 497 38 527 38 C531 38 533 38 546 36 L566 130 C588 241 597 253 656 258 L663 258 L670 292 L404 292 Z " />
<glyph glyph-name="H" unicode="H" horiz-adv-x="737" d="M507 330 L471 161 C448 52 434 33 375 33 L359 26 L354 0 L640 0 L647 33 L636 33 C598 33 581 46 581 74 L581 77 C581 79 581 80 582 85 C582 99 586 125 594 161 L668 511 C692 621 703 634 767 634 L774 634 L782 667 L496 667 L488 634 L500 634 C544 634 558 625 558 596 C558 582 552 540 546 511 L516 373 L238 373 L267 511 C292 621 302 634 366 634 L374 634 L381 667 L97 667 L90 634 L99 634 C147 634 157 626 157 590 C157 572 155 557 145 511 L71 161 C47 52 34 34 -26 33 L-38 33 L-45 0 L239 0 L246 33 L235 33 C194 33 180 45 180 77 C180 91 185 123 193 161 L229 330 L507 330 Z " />
<glyph glyph-name="I" unicode="I" horiz-adv-x="341" d="M90 634 L100 634 C145 634 159 625 159 596 C159 583 153 541 146 511 L72 161 C49 52 36 34 -25 33 L-38 33 L-45 0 L244 0 L251 33 L237 33 C197 33 182 45 182 77 C182 91 187 127 195 161 L269 511 C293 622 303 634 368 634 L378 634 L386 667 L97 667 L90 634 Z " />
<glyph glyph-name="J" unicode="J" horiz-adv-x="343" d="M101 667 L94 634 L107 634 C153 634 166 625 166 595 C166 578 162 547 154 511 L55 46 C27 -84 16 -116 -14 -156 C-37 -186 -69 -204 -99 -204 C-121 -204 -136 -195 -136 -183 C-136 -179 -136 -175 -135 -171 L-133 -162 C-133 -161 -132 -157 -131 -152 L-131 -151 C-130 -147 -129 -144 -129 -143 L-129 -142 C-131 -139 -131 -139 -131 -138 C-131 -137 -131 -136 -130 -134 L-129 -122 C-129 -97 -145 -81 -171 -81 C-209 -81 -242 -117 -242 -157 C-242 -206 -191 -237 -112 -237 C-21 -237 57 -201 108 -136 C142 -92 158 -49 182 61 L277 511 C302 622 312 634 376 634 L388 634 L395 667 L101 667 Z " />
<glyph glyph-name="K" unicode="K" horiz-adv-x="688" d="M233 333 L270 511 C295 621 305 634 369 634 L379 634 L386 667 L102 667 L95 634 L102 634 C150 633 158 628 160 595 L160 594 L148 511 L74 161 C50 52 37 34 -23 33 L-38 33 L-45 0 L239 0 L246 33 L238 33 C198 33 183 45 183 77 C183 91 188 123 196 161 L222 285 L278 334 L387 145 L391 137 C392 135 397 126 403 117 C414 99 422 80 422 71 C422 45 397 33 344 33 L334 33 L327 0 L650 0 L657 33 L651 34 C597 36 579 53 521 153 L372 413 L482 506 C604 609 636 628 696 634 L702 634 L709 667 L470 667 L463 634 L468 634 C499 633 516 623 516 603 C516 582 499 561 441 511 L233 333 Z " />
<glyph glyph-name="L" unicode="L" horiz-adv-x="564" d="M525 205 L495 205 C433 72 384 32 286 35 L252 35 C200 35 181 45 181 75 C181 85 187 122 193 151 L270 511 C294 621 304 634 369 634 L389 634 L396 667 L97 667 L90 634 L101 634 C146 634 160 625 160 596 C160 584 154 542 147 511 L73 161 C50 52 36 34 -24 33 L-38 33 L-45 0 L477 0 L525 205 Z " />
<glyph glyph-name="M" unicode="M" horiz-adv-x="868" d="M299 667 L91 667 L84 634 L96 634 C150 634 161 625 161 583 C161 567 158 549 150 510 L84 199 C62 82 33 43 -39 34 L-44 33 L-51 0 L170 0 L178 33 L173 34 C129 36 104 62 104 107 C104 126 106 136 119 197 L198 572 L310 0 L335 0 L680 575 L592 161 C569 51 557 34 496 33 L479 33 L472 0 L771 0 L778 33 L757 33 C716 33 702 45 702 77 C702 91 707 125 715 161 L789 511 C814 622 823 634 888 634 L905 634 L912 667 L704 667 L395 154 L299 667 Z " />
<glyph glyph-name="N" unicode="N" horiz-adv-x="694" d="M514 -14 L628 525 C641 597 667 623 733 633 L741 634 L748 667 L524 667 L517 634 L527 634 C570 633 598 612 598 579 C598 564 596 547 593 530 L519 183 L280 667 L95 667 L88 634 L92 634 C141 634 156 623 156 589 C156 566 152 536 145 504 L71 155 C55 64 38 45 -39 33 L-44 33 L-51 0 L172 0 L179 33 L171 33 L169 33 L164 33 C129 33 98 60 98 89 C98 97 104 133 108 155 L195 565 L479 -14 L514 -14 Z " />
<glyph glyph-name="O" unicode="O" horiz-adv-x="740" d="M447 679 C217 679 31 485 31 245 C31 86 132 -13 295 -13 C523 -13 708 182 708 422 C708 482 694 535 666 575 C622 640 540 679 447 679 L447 679 Z M436 641 C522 641 570 579 570 470 C570 344 526 191 467 112 C426 57 366 25 307 25 C217 25 168 83 168 187 C168 339 230 523 302 586 C344 624 387 641 436 641 L436 641 Z " />
<glyph glyph-name="P" unicode="P" horiz-adv-x="547" d="M97 667 L90 634 L102 634 C148 634 161 625 161 595 C161 580 156 548 148 511 L74 161 C51 52 38 34 -23 33 L-36 33 L-43 0 L249 0 L256 33 L239 33 C200 33 184 46 184 75 L184 78 L184 85 C184 98 189 124 197 161 L228 308 L292 308 C384 308 437 321 479 354 C533 396 567 465 567 535 C567 574 555 603 528 629 C493 662 443 673 337 673 L327 673 L164 669 L97 667 Z M235 344 L297 636 C308 637 313 637 323 637 C337 637 355 636 366 635 C411 630 435 598 435 543 C435 487 417 431 388 393 C359 357 329 344 271 344 L235 344 Z " />
<glyph glyph-name="Q" unicode="Q" horiz-adv-x="738" d="M410 4 C479 26 533 58 579 105 C660 189 708 306 708 420 C708 579 606 679 443 679 C217 679 31 483 31 245 C31 148 67 74 134 30 C176 4 234 -13 287 -13 C298 -13 306 -12 323 -11 L255 -49 L232 -61 C217 -69 203 -77 200 -78 C193 -83 179 -91 172 -95 C132 -116 117 -129 117 -146 C117 -156 123 -163 132 -163 C143 -163 156 -156 175 -139 C209 -109 235 -97 267 -97 C309 -97 357 -121 402 -164 C446 -207 446 -207 459 -216 C491 -239 525 -249 566 -249 C665 -249 742 -189 778 -85 L749 -85 C726 -126 686 -149 637 -149 C593 -149 559 -141 502 -115 C436 -86 350 -64 301 -64 C298 -64 295 -64 285 -66 L410 4 Z M435 641 C491 641 539 607 559 553 C566 532 570 506 570 472 C570 344 525 189 466 112 C422 55 366 25 307 25 C254 25 210 49 191 88 C177 116 171 149 171 199 C171 283 187 367 218 449 C266 574 341 641 435 641 L435 641 Z " />
<glyph glyph-name="R" unicode="R" horiz-adv-x="640" d="M601 0 L608 33 L603 33 C549 36 519 68 474 173 C439 258 405 318 383 332 C443 346 482 364 513 393 C552 430 576 483 576 534 C576 630 497 674 324 674 C291 674 178 672 160 671 L100 667 L92 634 L103 634 C151 633 159 628 162 595 L162 594 L149 511 L75 161 C52 52 38 34 -22 33 L-38 33 L-45 0 L254 0 L262 33 L240 33 C199 33 184 45 184 77 C184 90 189 122 197 161 L229 312 L232 312 C295 316 301 309 352 166 C378 90 408 26 431 0 L601 0 Z M298 635 C311 636 319 636 330 636 C411 636 444 611 444 548 C444 511 435 468 419 433 C401 396 380 374 346 360 C326 352 290 348 237 348 L298 635 Z " />
<glyph glyph-name="S" unicode="S" horiz-adv-x="497" d="M-18 9 L15 9 C25 36 35 55 47 70 C77 16 129 -13 194 -13 C324 -13 433 100 433 233 C433 311 404 347 287 412 C212 454 186 483 186 528 C186 591 237 644 298 644 C367 644 410 583 410 485 L440 485 L478 667 L448 667 L448 666 L444 657 C439 641 430 627 417 613 C386 658 349 679 297 679 C183 679 85 577 85 458 C85 391 115 348 196 300 C283 249 288 245 308 217 C318 204 324 183 324 164 C324 91 258 25 185 25 C122 25 76 71 65 145 C62 171 61 185 61 228 L29 228 L-18 9 Z " />
<glyph glyph-name="T" unicode="T" horiz-adv-x="621" d="M79 497 C123 613 149 635 240 632 L312 632 L212 161 C189 51 176 34 115 33 L91 33 L84 0 L394 0 L401 33 L378 33 C338 33 322 45 322 74 L322 77 L322 85 C323 98 327 124 335 161 L435 632 L512 632 C550 632 565 630 579 622 C602 610 613 576 613 522 C613 514 613 507 612 497 L641 497 L676 667 L87 667 L49 497 L79 497 Z " />
<glyph glyph-name="U" unicode="U" horiz-adv-x="697" d="M537 667 L529 634 L534 633 C579 632 603 611 603 576 C603 558 600 536 595 512 L547 286 C527 192 521 173 503 142 C463 75 388 33 312 33 C235 33 187 78 187 148 C187 172 194 216 208 283 L257 511 C281 620 293 634 357 634 L368 634 L375 667 L88 667 L81 634 L92 634 C138 634 152 625 152 595 C152 576 148 546 140 511 L83 241 C75 203 72 181 72 155 C72 51 147 -13 272 -13 C432 -13 541 79 576 245 L637 531 C652 597 676 622 737 633 L744 634 L751 667 L537 667 Z " />
<glyph glyph-name="V" unicode="V" horiz-adv-x="635" d="M267 -15 L547 457 C639 611 652 626 702 633 L711 634 L718 667 L519 667 L512 634 L519 633 C553 633 574 617 574 593 C574 574 558 538 524 480 L320 134 L251 529 C247 551 244 575 244 585 C244 619 267 634 323 634 L329 634 L336 667 L59 667 L52 634 L59 633 L60 633 L62 633 C107 632 123 612 133 541 C136 526 138 509 138 509 L232 -15 L267 -15 Z " />
<glyph glyph-name="W" unicode="W" horiz-adv-x="845" d="M554 -15 L787 479 C846 604 867 630 911 634 L917 634 L924 667 L751 667 L744 634 L748 634 C778 634 794 619 794 592 C794 568 790 555 760 493 L608 167 L546 667 L506 667 L253 167 L230 525 C229 539 229 552 229 572 C229 616 244 631 292 634 L297 634 L304 667 L63 667 L56 634 L63 634 L66 634 C91 634 105 621 112 592 C116 574 116 574 120 508 L154 -15 L192 -15 L453 501 L518 -15 L554 -15 Z " />
<glyph glyph-name="X" unicode="X" horiz-adv-x="706" d="M738 667 L508 667 L501 634 L508 634 C548 634 565 625 565 606 C565 590 552 571 514 531 L389 402 L318 540 C305 564 297 587 297 597 C297 622 314 634 352 634 L360 634 L367 667 L83 667 L76 634 L81 634 C127 631 142 618 179 542 L192 517 L299 312 L157 169 C65 70 16 37 -45 33 L-51 33 L-58 0 L185 0 L192 33 L184 33 L182 33 L178 33 C150 33 131 48 131 69 C131 91 145 112 193 162 L314 284 L385 145 C400 116 410 89 410 79 C410 48 383 33 328 33 L323 33 L316 0 L636 0 L643 33 C584 35 573 46 511 166 L405 374 L530 504 C627 605 664 629 727 634 L732 637 L738 667 Z " />
<glyph glyph-name="Y" unicode="Y" horiz-adv-x="593" d="M59 667 L52 634 L58 634 C101 629 108 620 138 527 L220 262 L199 161 C176 52 162 34 102 33 L93 33 L86 0 L364 0 L371 33 L363 33 C322 33 308 45 308 77 C308 91 313 124 321 161 L344 270 L515 504 C585 598 617 625 662 633 L668 634 L675 667 L476 667 L469 634 L473 634 C507 634 526 619 526 594 C526 573 520 561 485 514 L339 312 L255 548 C249 566 244 585 244 593 C244 619 267 634 310 634 L315 634 L322 667 L59 667 Z " />
<glyph glyph-name="Z" unicode="Z" horiz-adv-x="584" d="M-42 0 L461 0 L517 182 L487 182 C417 53 388 34 268 35 L101 35 L597 637 L603 667 L137 667 L87 505 L116 505 C135 548 163 587 192 609 C222 630 230 632 306 632 L463 632 L-36 26 L-42 0 Z " />
<glyph glyph-name="bracketleft" unicode="&#x5b;" horiz-adv-x="337" d="M222 -235 L229 -202 L141 -202 C112 -202 102 -195 102 -174 C102 -158 102 -158 112 -109 C161 116 209 343 257 569 C268 622 279 634 319 634 L406 634 L413 667 L188 667 L-4 -235 L222 -235 Z " />
<glyph glyph-name="backslash" unicode="&#x5c;" horiz-adv-x="450" d="M289 -107 L193 705 L146 705 L242 -107 L289 -107 Z " />
<glyph glyph-name="bracketright" unicode="&#x5d;" horiz-adv-x="337" d="M-126 -235 L100 -235 L291 667 L66 667 L59 634 L146 634 C175 634 185 627 185 607 C185 596 183 583 181 569 C100 193 56 -13 36 -109 C21 -190 13 -201 -31 -202 L-119 -202 L-126 -235 Z " />
<glyph glyph-name="asciicircum" unicode="&#x5e;" horiz-adv-x="450" d="M464 282 L315 700 L308 700 L-35 282 L84 282 L316 565 L419 282 L464 282 Z " />
<glyph glyph-name="underscore" unicode="&#x5f;" horiz-adv-x="497" d="M-76 -90 L-88 -148 L380 -148 L393 -90 L-76 -90 Z " />
<glyph glyph-name="grave" unicode="&#x60;" horiz-adv-x="472" d="M330 490 L271 655 L143 655 L142 651 L305 490 L330 490 Z " />
<glyph glyph-name="a" unicode="a" horiz-adv-x="453" d="M369 79 C360 53 345 38 328 38 C318 38 310 48 310 62 C310 69 313 90 318 111 L354 282 C361 316 362 321 362 334 C362 388 317 419 238 419 C166 419 111 400 71 362 C53 345 44 329 44 313 C44 296 55 285 72 285 C96 285 113 300 126 332 C134 353 141 364 148 370 C162 380 184 386 205 386 C245 386 268 368 268 338 C268 330 266 314 261 294 L256 268 L199 245 C121 212 60 180 22 149 C14 142 5 131 -4 117 C-15 99 -22 78 -22 57 C-22 17 9 -10 55 -10 C98 -10 150 11 214 54 C218 11 241 -10 284 -10 C337 -10 378 24 392 79 L369 79 Z M249 234 L218 90 C176 55 144 38 122 38 C101 38 88 55 88 81 C88 134 134 187 208 217 L249 234 Z " />
<glyph glyph-name="b" unicode="b" horiz-adv-x="501" d="M238 677 L230 677 C213 670 161 661 127 659 C119 659 118 659 85 653 L80 652 L73 620 L77 620 C105 620 115 610 115 584 C115 573 113 558 105 525 L-9 -14 L18 -14 C29 0 74 42 97 59 C119 9 156 -15 211 -15 C338 -15 448 115 448 265 C448 359 394 419 309 419 C265 419 223 402 171 362 L238 677 Z M162 320 C203 360 239 379 273 379 C314 379 340 344 340 288 C340 230 321 150 295 102 C267 49 230 22 188 22 C148 22 121 52 121 97 C121 117 123 133 126 150 L162 320 Z " />
<glyph glyph-name="c" unicode="c" horiz-adv-x="407" d="M310 107 C282 52 241 23 190 23 C136 23 108 57 108 122 C108 186 125 263 151 311 C176 361 211 385 256 385 C285 385 297 375 297 349 C297 347 297 347 296 329 C295 306 308 290 328 290 C352 290 374 317 374 346 C374 387 326 419 265 419 C121 419 -3 290 -3 141 C-3 46 58 -16 152 -16 C232 -16 298 25 337 100 L310 107 Z " />
<glyph glyph-name="d" unicode="d" horiz-adv-x="500" d="M427 35 L421 35 C393 35 383 43 383 64 C383 78 385 88 394 134 L510 677 L501 677 C460 668 436 663 355 652 L348 652 L343 651 L336 619 L343 619 C374 619 384 611 384 586 C384 568 381 544 376 520 L342 362 C316 398 274 419 226 419 C106 419 -3 284 -3 135 C-3 49 52 -14 128 -14 C178 -14 225 8 280 56 C275 32 273 17 273 0 L273 -14 C310 -6 362 0 420 1 L427 35 Z M286 98 C253 55 211 30 173 30 C133 30 107 66 107 121 C107 179 124 254 147 299 C173 348 208 374 249 374 C281 374 308 358 334 323 L286 98 Z " />
<glyph glyph-name="e" unicode="e" horiz-adv-x="418" d="M367 246 C371 260 372 272 372 287 C372 367 320 419 240 419 C112 419 -1 289 -1 143 C-1 48 60 -16 150 -16 C221 -16 291 24 329 86 L303 95 C269 47 228 22 182 22 C131 22 103 58 103 123 C103 163 108 191 123 246 L367 246 Z M130 276 C154 352 185 386 231 386 C265 386 284 363 284 323 C284 306 282 291 276 276 L130 276 Z " />
<glyph glyph-name="f" unicode="f" horiz-adv-x="275" d="M267 403 L192 403 C201 445 204 463 208 481 C223 555 235 590 254 614 C268 633 290 645 308 645 C327 645 340 631 345 606 C353 563 362 551 385 551 C411 551 437 579 437 607 C437 649 393 678 330 678 C265 678 209 651 167 599 C137 560 121 520 102 432 L96 403 L29 403 L22 370 L89 370 L39 131 C20 47 10 33 -35 33 L-44 33 L-51 0 L179 0 L186 33 L166 33 C135 33 125 41 125 68 C125 82 128 103 134 131 L185 370 L260 370 L267 403 Z " />
<glyph glyph-name="g" unicode="g" horiz-adv-x="445" d="M14 -72 L15 -70 C6 -66 0 -65 -7 -65 C-42 -65 -74 -104 -74 -149 C-74 -212 -14 -248 91 -248 C159 -248 214 -233 256 -202 C303 -167 331 -114 331 -59 C331 -23 317 7 293 21 C269 36 222 46 181 46 L166 46 L164 46 C139 47 126 47 113 48 C73 49 55 57 55 73 C55 102 87 118 152 120 C201 122 231 129 263 146 C321 178 360 242 360 306 C360 323 358 335 352 351 C367 366 378 372 388 372 C395 372 399 368 405 356 C410 343 417 338 426 338 C445 338 462 359 462 382 C462 403 449 416 427 416 C401 416 375 402 339 370 C316 402 276 419 225 419 C117 419 27 339 27 243 C27 195 52 154 91 134 C25 119 -14 80 -14 28 C-14 2 -1 -16 25 -28 C42 -35 99 -44 124 -43 C149 -42 149 -42 154 -42 C228 -42 260 -60 260 -101 C260 -169 194 -217 100 -217 C30 -217 -13 -190 -13 -145 C-13 -124 -3 -97 12 -74 L14 -72 Z M217 386 C243 386 263 361 263 327 C263 294 251 241 235 208 C220 176 193 154 168 154 C140 154 123 177 123 212 C123 240 129 275 140 305 C158 358 184 386 217 386 L217 386 Z " />
<glyph glyph-name="h" unicode="h" horiz-adv-x="504" d="M82 618 L87 618 C113 618 127 608 127 588 C127 578 124 558 119 534 L33 131 C15 44 8 34 -37 33 L-44 33 L-51 0 L154 0 L161 33 L158 33 C132 34 123 41 122 60 L122 61 L122 63 L122 73 C122 75 127 97 134 131 L168 291 C170 293 170 293 174 299 C203 342 244 371 277 371 C307 371 327 353 327 327 C327 314 324 290 318 264 L290 131 C271 43 267 36 224 33 L217 33 L210 0 L418 0 L425 33 L419 33 C392 33 380 41 380 60 C380 71 385 102 391 131 L416 251 C425 294 428 311 428 329 C428 353 423 371 412 385 C395 406 364 419 330 419 C276 419 226 393 178 340 L250 677 L241 677 C222 670 200 665 175 662 L137 658 L111 655 C107 654 100 653 89 650 L82 618 Z " />
<glyph glyph-name="i" unicode="i" horiz-adv-x="249" d="M196 677 C155 677 117 640 117 599 C117 570 138 549 168 549 C209 549 247 586 247 627 C247 656 226 677 196 677 L196 677 Z M19 357 L30 357 C63 357 73 349 73 323 C73 312 69 285 64 262 L37 131 C18 47 8 33 -37 33 L-50 33 L-57 0 L163 0 L170 33 L164 33 C136 33 124 41 124 61 C124 74 128 100 135 131 L196 419 L187 419 C154 410 60 392 26 389 L19 357 Z " />
<glyph glyph-name="j" unicode="j" horiz-adv-x="248" d="M205 419 L196 419 C155 408 107 399 31 389 L24 356 L36 356 C69 356 79 348 79 319 C79 305 76 285 71 262 L4 -54 C-13 -137 -21 -160 -40 -184 C-54 -202 -77 -214 -95 -214 C-111 -214 -123 -202 -126 -185 C-130 -151 -138 -141 -156 -141 C-181 -141 -202 -165 -202 -192 C-202 -225 -167 -247 -116 -247 C-44 -247 27 -210 65 -154 C87 -120 97 -90 116 -3 L205 419 Z M206 677 C165 677 127 640 127 599 C127 570 148 549 177 549 C219 549 257 586 257 627 C257 656 235 677 206 677 L206 677 Z " />
<glyph glyph-name="k" unicode="k" horiz-adv-x="453" d="M269 403 L262 370 L268 370 C286 370 295 365 295 354 C295 339 276 319 236 291 C225 283 215 276 207 269 L150 224 L246 677 L238 677 C219 670 198 666 171 662 L134 658 L108 655 C104 654 97 653 87 650 L80 618 L86 618 C111 618 124 608 124 589 C124 581 120 557 116 536 L30 131 C11 43 5 35 -39 33 L-51 33 L-58 0 L147 0 L154 33 L152 33 C129 33 118 42 118 59 C118 68 123 94 130 131 L142 184 L167 205 L221 95 C236 65 236 65 236 57 C236 42 221 33 196 33 L192 33 L185 0 L384 0 L391 33 L387 33 C363 37 351 51 323 102 L241 260 C264 276 268 279 286 293 C357 348 397 369 430 370 L434 370 L441 403 L269 403 Z " />
<glyph glyph-name="l" unicode="l" horiz-adv-x="243" d="M80 618 L89 618 C113 618 125 608 125 590 C125 581 121 555 116 532 L31 131 C12 41 8 35 -36 33 L-48 33 L-55 0 L158 0 L165 33 L157 33 C131 33 120 40 119 58 L119 59 C120 60 120 61 120 61 C120 64 120 67 119 72 C122 88 124 96 132 131 L248 677 L239 677 C217 669 126 653 87 650 L80 618 Z " />
<glyph glyph-name="m" unicode="m" horiz-adv-x="752" d="M35 389 L28 356 L32 356 C60 356 70 349 70 328 C70 312 66 285 61 259 L34 131 C15 44 8 34 -37 33 L-40 33 L-47 0 L152 0 L159 33 L155 33 C133 33 122 42 122 60 C122 69 127 98 134 131 L169 295 C205 339 250 368 281 368 C307 368 325 349 325 321 C325 311 321 286 315 257 L288 131 C270 42 266 37 224 33 L219 33 L212 0 L404 0 L411 33 L409 33 C387 33 376 42 376 60 C376 70 381 102 387 131 L421 289 C463 341 502 367 535 367 C563 367 579 352 579 324 C579 311 577 291 573 273 L543 131 C524 43 520 37 478 33 L474 33 L468 0 L666 0 L673 33 L668 33 C641 33 629 41 629 60 C629 70 634 100 640 131 L667 258 C679 312 679 314 679 334 C679 386 642 419 585 419 C532 419 485 393 425 332 C421 388 388 419 333 419 C280 419 229 393 179 340 C183 359 185 373 185 388 C185 398 184 404 182 415 L178 415 C151 407 125 402 85 397 L79 396 L63 393 L35 389 Z " />
<glyph glyph-name="n" unicode="n" horiz-adv-x="504" d="M34 388 L27 356 L32 356 C60 356 70 348 70 328 C70 312 66 283 61 259 L34 131 C15 44 9 34 -36 33 L-41 33 L-48 0 L156 0 L163 33 C133 33 123 40 123 62 C123 73 126 93 134 131 L169 293 C214 348 247 370 282 370 C311 370 328 351 328 320 C328 307 328 303 326 295 L291 131 C273 44 268 37 225 33 L218 33 L212 0 L418 0 L424 33 L420 33 C393 33 381 41 381 60 C381 71 386 101 392 131 L420 262 C428 298 430 315 430 332 C430 385 394 419 339 419 C284 419 231 393 179 341 C183 363 185 380 185 397 C185 404 185 407 184 415 L173 415 C139 406 110 400 86 397 C80 396 72 395 62 393 L34 388 Z " />
<glyph glyph-name="o" unicode="o" horiz-adv-x="471" d="M256 419 C116 419 -1 293 -1 143 C-1 49 64 -16 159 -16 C299 -16 416 108 416 257 C416 353 351 419 256 419 L256 419 Z M247 385 C287 385 312 354 312 304 C312 241 289 140 261 83 C241 42 206 17 170 17 C126 17 104 46 104 104 C104 144 116 209 132 261 C160 347 196 385 247 385 L247 385 Z " />
<glyph glyph-name="p" unicode="p" horiz-adv-x="499" d="M17 391 L10 358 L19 358 C47 358 59 350 59 330 C59 316 55 290 49 260 L-30 -113 C-49 -200 -56 -210 -102 -212 L-111 -212 L-118 -244 L100 -244 L107 -212 L100 -212 C72 -212 60 -203 60 -183 C60 -169 64 -142 70 -113 L103 43 C134 1 166 -16 211 -16 C337 -16 446 117 446 268 C446 359 394 419 316 419 C265 419 215 396 168 351 C172 374 174 390 174 405 C174 410 174 412 173 419 L162 419 C124 409 94 402 64 399 L60 398 C57 398 54 397 49 396 C37 394 28 393 21 391 L17 391 Z M159 308 C197 353 232 375 268 375 C309 375 338 336 338 281 C338 229 320 154 297 109 C270 57 230 26 187 26 C157 26 130 46 112 84 L159 308 Z " />
<glyph glyph-name="q" unicode="q" horiz-adv-x="489" d="M429 419 C396 392 374 375 350 361 C314 401 277 419 233 419 C109 419 -3 284 -3 133 C-3 41 49 -16 133 -16 C179 -16 222 0 271 35 L240 -113 C221 -200 213 -210 168 -212 L155 -212 L148 -244 L370 -244 L377 -212 L370 -212 C342 -212 330 -203 330 -183 C330 -170 334 -143 340 -113 L453 419 L429 419 Z M279 73 C243 42 204 25 169 25 C130 25 105 61 105 119 C105 158 117 219 135 269 C159 336 203 377 251 377 C273 377 293 369 309 352 C325 335 331 328 332 322 L279 73 Z " />
<glyph glyph-name="r" unicode="r" horiz-adv-x="362" d="M27 353 L34 353 C60 353 73 344 73 326 C73 314 68 281 62 254 L36 131 C17 43 11 34 -34 33 L-41 33 L-48 0 L170 0 L177 33 L167 33 C139 33 127 41 127 61 C127 76 131 102 137 131 L150 194 C164 260 174 284 200 317 C222 345 245 362 262 362 C272 362 278 355 283 339 C290 312 297 303 313 303 C340 303 363 332 363 364 C363 397 342 419 311 419 C265 419 209 378 172 317 C177 347 179 368 179 390 C179 403 179 407 177 419 C115 402 63 390 33 386 L27 353 Z " />
<glyph glyph-name="s" unicode="s" horiz-adv-x="339" d="M-37 -12 L-12 -12 C-4 4 4 15 15 25 C17 24 18 23 21 19 C39 -2 72 -16 108 -16 C193 -16 264 57 264 144 C264 172 256 196 241 213 C225 232 218 237 164 259 C122 277 101 298 101 324 C101 358 135 389 172 389 C217 389 248 348 249 289 L273 289 L300 413 L276 413 C264 395 258 386 252 381 C225 407 198 419 167 419 C97 419 26 347 26 276 C26 255 33 233 46 217 C65 194 75 187 126 162 C167 142 185 121 185 93 C185 51 148 15 103 15 C51 15 22 52 17 121 L-9 121 L-37 -12 Z " />
<glyph glyph-name="t" unicode="t" horiz-adv-x="284" d="M279 370 L286 403 L179 403 L206 532 L180 532 C153 454 93 402 34 403 L27 370 L77 370 L28 140 C22 111 18 82 18 62 C18 16 50 -16 97 -16 C149 -16 197 12 226 59 L205 70 C184 42 166 30 145 30 C125 30 112 46 112 71 C112 81 116 105 123 138 L172 370 L279 370 Z " />
<glyph glyph-name="u" unicode="u" horiz-adv-x="494" d="M439 403 L286 403 L279 370 L286 370 C312 370 323 362 323 344 C323 335 318 302 311 272 L287 159 C273 91 216 34 164 34 C141 34 122 54 122 76 C122 86 125 106 130 129 L188 403 L31 403 L24 370 L28 370 C59 370 69 362 69 335 C69 322 66 300 60 272 L29 129 C25 109 22 81 22 64 C22 19 61 -16 113 -16 C167 -16 222 14 268 70 C263 46 260 21 260 9 L260 -6 L261 -16 L267 -16 C292 -7 349 0 393 0 L399 0 L404 0 L411 33 L408 33 C381 33 372 40 371 61 L371 62 L382 132 L439 403 Z " />
<glyph glyph-name="v" unicode="v" horiz-adv-x="431" d="M161 -13 L339 267 C393 350 408 365 437 370 L442 370 L449 403 L317 403 L310 370 L316 370 C336 369 346 361 347 347 L347 346 C348 341 335 314 318 287 L191 83 L148 304 C143 331 143 332 143 340 C143 361 157 370 187 370 L192 370 L199 403 L12 403 L5 370 L9 370 C37 368 42 359 56 295 L118 -13 L161 -13 Z " />
<glyph glyph-name="w" unicode="w" horiz-adv-x="645" d="M392 -13 L566 287 C606 358 616 367 652 370 L655 370 L661 403 L525 403 L518 370 L526 370 C550 369 562 362 562 349 C562 342 561 340 543 307 L427 103 L383 403 L347 403 L175 103 L149 297 C144 331 144 331 144 340 C144 361 158 370 191 370 L197 370 L204 403 L13 403 L6 370 L12 370 C42 368 45 363 55 297 L100 -13 L139 -13 L310 285 L353 -13 L392 -13 Z " />
<glyph glyph-name="x" unicode="x" horiz-adv-x="451" d="M430 370 L437 403 L291 403 L284 370 L288 370 C294 370 296 370 300 369 C315 367 322 362 322 352 C322 345 316 337 294 316 L230 254 L192 326 C182 344 182 344 182 350 C182 364 192 370 216 370 L220 370 L227 403 L30 403 L23 370 L27 370 C50 369 66 353 98 296 L159 187 L67 100 C20 56 -14 36 -47 33 L-54 33 L-61 0 L99 0 L106 33 L105 33 L102 33 L97 32 L96 32 C78 32 65 40 65 50 C65 58 71 66 95 89 L170 163 L214 80 C225 60 225 60 225 54 C225 40 205 31 181 32 L177 33 L170 0 L376 0 L383 33 L378 33 C355 37 342 49 317 93 L243 231 L325 308 L333 315 C382 358 400 368 428 370 L430 370 Z " />
<glyph glyph-name="y" unicode="y" horiz-adv-x="434" d="M10 403 L3 371 L10 371 C38 367 43 361 57 304 L133 -12 L92 -85 C70 -121 57 -131 8 -148 C-35 -164 -56 -187 -56 -217 C-56 -236 -43 -249 -23 -249 C13 -249 46 -216 100 -126 L337 272 L351 292 C388 354 400 365 435 370 L441 371 L448 403 L310 403 L303 371 L311 371 L312 371 L314 371 C330 371 344 361 344 350 C344 344 340 334 332 322 C328 315 322 305 315 293 L199 98 L154 307 C150 325 149 333 149 341 C149 358 164 369 188 371 L193 371 L199 403 L10 403 Z " />
<glyph glyph-name="z" unicode="z" horiz-adv-x="402" d="M-46 0 L291 0 L330 131 L302 131 C253 46 236 33 169 33 L76 33 L375 375 L381 403 L58 403 L26 287 L54 287 C96 361 108 372 145 370 L260 370 L-41 24 L-46 0 Z " />
<glyph glyph-name="braceleft" unicode="&#x7b;" horiz-adv-x="332" d="M24 205 C68 202 88 186 88 155 C88 138 86 126 76 77 L42 -80 C38 -100 36 -120 36 -141 C36 -155 38 -166 42 -177 C56 -216 81 -229 143 -230 L188 -231 L208 -231 L213 -205 C149 -202 127 -183 127 -127 C127 -109 129 -93 132 -77 L170 100 C172 112 174 127 174 136 C174 177 150 204 103 214 L104 221 C169 235 207 273 220 335 L257 513 C281 607 314 638 393 641 L399 667 L379 667 C241 670 201 641 169 515 L136 359 C116 258 99 238 29 231 L24 205 Z " />
<glyph glyph-name="bar" unicode="&#x7c;" horiz-adv-x="454" d="M262 667 L85 -167 L157 -167 L334 667 L262 667 Z " />
<glyph glyph-name="braceright" unicode="&#x7d;" horiz-adv-x="340" d="M268 231 C223 234 204 250 204 281 C204 298 207 316 216 359 L249 515 C254 536 256 558 256 577 C256 591 254 602 250 613 C236 652 210 665 148 666 C126 666 104 666 103 667 L84 667 L78 641 C143 638 165 619 165 563 C165 547 163 529 160 513 L122 335 C119 323 118 311 118 300 C118 259 142 232 189 221 L187 214 C123 201 84 163 72 100 L34 -77 C11 -171 -22 -202 -101 -205 L-107 -231 L-87 -231 C51 -234 91 -205 123 -80 L156 77 C176 178 193 198 262 205 L268 231 Z " />
<glyph glyph-name="asciitilde" unicode="&#x7e;" horiz-adv-x="641" d="M591 734 C558 701 524 684 495 684 C480 684 446 692 417 703 C382 716 348 724 332 724 C287 724 233 687 178 620 L194 608 C239 651 257 661 290 661 C313 661 337 655 388 634 C417 623 433 619 451 619 C501 619 559 658 607 722 L591 734 Z " />
<glyph glyph-name="uni00A0" unicode="&#xa0;" horiz-adv-x="250" d="" />
<glyph glyph-name="exclamdown" unicode="&#xa1;" horiz-adv-x="252" d="M89 232 L-15 -111 C-32 -165 -34 -175 -34 -192 C-34 -218 -20 -234 4 -234 C27 -234 46 -220 59 -195 C67 -178 69 -170 76 -112 L118 232 L89 232 Z M150 449 C112 449 76 410 76 369 C76 340 95 319 122 319 C160 319 196 358 196 399 C196 428 177 449 150 449 L150 449 Z " />
<glyph glyph-name="cent" unicode="&#xa2;" horiz-adv-x="466" d="M425 612 L396 612 L302 418 C295 419 290 419 285 419 C152 419 30 286 30 141 C30 73 53 31 104 6 L9 -189 L38 -189 L128 -3 C150 -13 165 -17 186 -17 C265 -17 331 25 370 99 L343 107 C314 53 266 21 214 21 C187 21 166 32 153 51 L312 375 C320 373 325 362 325 346 L325 335 C325 304 335 290 359 290 C384 290 407 316 407 345 C407 378 378 404 329 415 L425 612 Z M136 77 C134 88 134 94 134 106 C134 175 156 269 182 317 C207 362 239 385 277 385 L287 385 L136 77 Z " />
<glyph glyph-name="sterling" unicode="&#xa3;" horiz-adv-x="640" d="M-4 198 L136 198 C99 116 78 74 58 37 C-22 -11 -69 -61 -69 -96 C-69 -111 -56 -123 -40 -123 C-17 -123 19 -87 62 -20 C67 -13 72 -5 77 3 L81 9 C93 16 101 18 110 18 C133 18 151 3 181 -41 C221 -99 254 -122 298 -122 C401 -122 521 -11 521 85 C521 111 508 129 488 129 C462 129 444 107 444 75 C444 69 444 65 445 61 C447 37 447 37 447 29 C447 -19 403 -64 356 -64 C329 -64 306 -47 275 -3 C237 49 207 69 165 69 C148 69 134 66 114 57 C170 131 173 137 212 198 L375 198 L394 239 L236 239 C274 302 311 376 350 463 C412 602 428 635 453 669 C489 718 528 744 568 744 C597 744 616 731 626 703 C638 669 645 662 662 662 C685 662 706 686 706 712 C706 751 660 781 599 781 C458 781 326 639 204 356 C172 282 155 243 154 239 L16 239 L-4 198 Z " />
<glyph glyph-name="currency" unicode="&#xa4;" horiz-adv-x="600" d="M-6 97 L21 58 L127 153 C171 117 203 104 250 104 C298 104 338 118 396 154 L462 58 L506 97 L439 195 C495 269 519 327 519 396 C519 428 515 451 502 490 L611 588 L584 627 L476 530 C433 566 397 581 355 581 L351 581 C303 581 247 561 205 531 L140 626 L96 587 L161 493 C105 417 79 353 79 288 C79 255 85 228 99 191 L-6 97 Z M335 499 C394 499 437 449 437 381 C437 281 354 186 267 186 C207 186 164 235 164 304 C164 405 247 499 335 499 L335 499 Z " />
<glyph glyph-name="yen" unicode="&#xa5;" horiz-adv-x="453" d="M346 443 L216 443 L189 548 C180 581 180 581 180 592 C180 620 200 634 240 634 L244 634 L251 667 L15 667 L8 634 L9 634 C52 631 57 623 83 527 L106 443 L-19 443 L-27 406 L117 406 L149 275 L-52 275 L-60 237 L146 237 L130 161 C107 51 95 34 41 33 L32 33 L25 0 L275 0 L282 33 L275 33 C239 33 226 44 226 75 C226 88 231 118 240 161 L256 237 L462 237 L470 275 L266 275 L267 279 L353 406 L500 406 L508 443 L379 443 C494 609 508 623 561 634 L562 634 L570 667 L390 667 L383 634 L387 634 C418 634 436 619 436 595 C436 577 430 563 400 521 L346 443 Z M321 406 L258 312 L228 406 L321 406 Z " />
<glyph glyph-name="brokenbar" unicode="&#xa6;" horiz-adv-x="454" d="M262 667 L189 323 L261 323 L334 667 L262 667 Z M153 153 L85 -167 L157 -167 L225 153 L153 153 Z " />
<glyph glyph-name="section" unicode="&#xa7;" horiz-adv-x="393" d="M32 -139 C32 -111 23 -96 6 -96 C-20 -96 -42 -125 -42 -158 C-42 -207 3 -243 66 -243 C165 -243 243 -165 243 -66 C243 -23 225 18 186 62 C191 63 191 63 206 67 C232 73 245 79 263 92 C308 124 337 184 337 246 C337 268 332 291 323 314 C310 345 296 364 239 427 C187 484 169 516 169 551 C169 598 210 638 259 638 C292 638 310 620 310 587 L310 584 L309 560 C309 539 320 526 337 526 C363 526 384 553 384 585 C384 633 336 670 273 670 C176 670 96 593 96 499 C96 453 109 425 159 364 C113 358 97 352 73 334 C28 302 1 246 1 188 C1 128 26 81 97 6 C154 -53 169 -80 169 -117 C169 -170 130 -211 79 -211 C49 -211 31 -193 31 -164 C31 -163 31 -155 32 -143 L32 -139 Z M155 336 C204 336 269 249 269 183 C269 133 231 92 186 92 C155 92 134 108 103 156 C82 189 71 222 71 249 C71 296 109 336 155 336 L155 336 Z " />
<glyph glyph-name="dieresis" unicode="&#xa8;" horiz-adv-x="344" d="M147 627 C114 627 84 598 84 566 C84 543 101 526 124 526 C157 526 187 555 187 587 C187 610 170 627 147 627 L147 627 Z M324 627 C291 627 261 598 261 566 C261 543 278 526 301 526 C334 526 364 555 364 587 C364 610 347 627 324 627 L324 627 Z " />
<glyph glyph-name="copyright" unicode="&#xa9;" horiz-adv-x="723" d="M439 680 C233 680 41 474 41 254 C41 98 143 -13 285 -13 C490 -13 682 193 682 414 C682 569 581 680 439 680 L439 680 Z M431 644 C554 644 645 544 645 407 C645 210 474 24 293 24 C168 24 78 123 78 262 C78 346 109 432 166 503 C238 594 333 644 431 644 L431 644 Z M473 293 C445 213 399 170 341 170 C299 170 269 207 269 258 C269 302 281 361 300 406 C325 468 365 502 411 502 C461 502 491 464 491 400 L490 377 L509 377 L537 520 L517 520 C512 503 506 492 498 479 C475 513 445 528 402 528 C292 528 193 411 193 279 C193 196 242 143 319 143 C364 143 402 159 439 193 C444 181 445 173 445 157 L464 157 L493 293 L473 293 Z " />
<glyph glyph-name="ordfeminine" unicode="&#xaa;" horiz-adv-x="283" d="M255 321 C248 304 240 295 231 295 C225 295 221 301 221 309 C221 312 223 322 226 339 L249 447 C252 459 254 475 254 483 C254 516 227 535 179 535 C119 535 62 501 62 465 C62 454 69 446 80 446 C95 446 107 457 115 478 C124 502 135 510 160 510 C182 510 195 500 195 482 C195 478 194 475 190 454 L187 440 L155 425 C57 382 21 349 21 304 C21 277 40 260 68 260 C93 260 123 273 160 299 C164 272 177 260 203 260 C237 260 263 283 272 321 L255 321 Z M182 414 L163 326 C138 304 121 294 108 294 C97 294 90 304 90 319 C90 352 118 386 160 405 L182 414 Z " />
<glyph glyph-name="guillemotleft" unicode="&#xab;" horiz-adv-x="454" d="M-3 216 L123 15 L156 15 L106 216 L241 413 L207 413 L-3 216 Z M203 216 L329 15 L361 15 L312 216 L446 413 L413 413 L203 216 Z " />
<glyph glyph-name="logicalnot" unicode="&#xac;" horiz-adv-x="450" d="M350 0 L407 266 L16 266 L4 212 L269 212 L224 0 L350 0 Z " />
<glyph glyph-name="uni00AD" unicode="&#xad;" horiz-adv-x="293" d="M10 241 L-2 184 L230 184 L242 241 L10 241 Z " />
<glyph glyph-name="registered" unicode="&#xae;" horiz-adv-x="723" d="M439 680 C233 680 41 474 41 254 C41 98 143 -13 285 -13 C490 -13 682 193 682 414 C682 569 581 680 439 680 L439 680 Z M431 644 C554 644 645 544 645 407 C645 210 474 24 293 24 C168 24 78 123 78 262 C78 346 109 432 166 503 C238 594 333 644 431 644 L431 644 Z M165 150 L330 150 L335 173 L321 173 C300 173 293 179 293 195 C293 202 296 220 300 241 L317 322 L319 322 C346 324 354 314 377 253 C393 199 404 176 422 150 L516 150 L521 173 L516 173 C490 173 471 194 448 249 C429 296 420 314 403 334 C465 348 504 392 504 447 C504 501 463 526 372 526 C354 526 347 526 303 523 L246 521 L241 498 L249 498 C272 498 278 494 278 479 C278 469 276 452 272 433 L231 241 C218 181 212 174 181 173 L170 173 L165 150 Z M323 346 L355 499 C364 500 369 500 373 500 C414 500 429 487 429 452 C429 422 420 392 405 372 C391 355 368 346 332 346 L329 346 L323 346 Z " />
<glyph glyph-name="macron" unicode="&#xaf;" horiz-adv-x="333" d="M79 547 L345 547 L355 590 L88 590 L79 547 Z " />
<glyph glyph-name="degree" unicode="&#xb0;" horiz-adv-x="400" d="M204 686 C118 686 50 619 50 534 C50 449 116 381 200 381 C284 381 350 448 350 534 C350 619 286 686 204 686 L204 686 Z M202 629 C252 629 293 586 293 534 C293 480 252 438 200 438 C148 438 106 481 106 533 C106 587 148 629 202 629 L202 629 Z " />
<glyph glyph-name="plusminus" unicode="&#xb1;" horiz-adv-x="450" d="M24 379 L11 321 L192 321 L150 125 L210 125 L252 321 L433 321 L445 379 L264 379 L306 576 L246 576 L204 379 L24 379 Z M-43 67 L-55 9 L366 9 L379 67 L-43 67 Z " />
<glyph glyph-name="twosuperior" unicode="&#xb2;" horiz-adv-x="300" d="M17 266 L192 266 C209 266 209 266 209 262 C209 258 208 253 206 250 L203 244 L202 238 L229 238 L262 316 L95 316 C108 328 119 337 126 342 C208 409 265 465 294 507 C306 524 317 560 317 583 C317 631 276 667 222 667 C146 667 81 612 81 547 C81 525 90 505 100 505 C101 505 105 506 108 507 C111 509 114 510 115 510 C128 512 145 526 145 535 C145 536 144 538 143 539 C135 547 133 552 133 562 C133 599 166 638 197 638 C222 638 238 618 238 586 C238 540 217 493 173 438 C132 388 77 334 22 292 L17 266 Z " />
<glyph glyph-name="threesuperior" unicode="&#xb3;" horiz-adv-x="299" d="M211 493 C286 537 313 566 313 606 C313 642 278 667 227 667 C156 667 92 617 92 563 C92 545 99 531 109 531 C123 531 152 545 152 552 C152 554 152 556 151 558 C147 567 146 570 146 577 C146 610 174 639 206 639 C223 639 236 625 236 604 C236 559 205 516 151 486 C130 474 117 461 117 452 C117 446 123 440 128 440 C134 440 138 443 148 452 C159 462 170 468 179 468 C195 468 206 452 206 430 C206 391 192 343 172 314 C159 297 135 284 114 284 C94 284 85 294 83 316 C81 338 74 347 60 347 C42 347 26 330 26 311 C26 281 63 257 110 257 C204 257 283 331 283 418 C283 465 259 490 211 493 L211 493 Z " />
<glyph glyph-name="acute" unicode="&#xb4;" horiz-adv-x="472" d="M202 490 L227 490 L457 651 L458 655 L331 655 L202 490 Z " />
<glyph glyph-name="mu" unicode="&#xb5;" horiz-adv-x="576" d="M442 500 L353 500 L354 131 C318 80 284 58 242 58 C184 58 150 99 150 169 L150 500 L62 500 L62 20 C62 -1 58 -26 51 -56 C34 -118 33 -123 33 -147 C33 -190 54 -219 83 -219 C112 -219 132 -189 132 -146 C132 -124 129 -111 113 -53 C103 -17 101 -8 101 21 L101 33 C143 -2 166 -13 200 -13 C250 -13 301 18 354 80 C362 48 367 36 377 21 C392 0 419 -13 449 -13 C510 -13 553 31 567 108 L540 109 C536 71 515 41 492 41 C462 41 442 77 442 131 L442 500 Z " />
<glyph glyph-name="paragraph" unicode="&#xb6;" horiz-adv-x="531" d="M559 667 L331 667 C223 667 217 666 180 647 C119 616 76 543 76 470 C76 389 122 347 211 347 C218 347 222 347 241 348 L168 0 C156 -59 154 -60 101 -61 L82 -61 L76 -89 L206 -89 L361 638 L430 638 L275 -89 L392 -89 L398 -61 L381 -61 L367 -61 L360 -60 C350 -59 344 -54 344 -47 C344 -42 347 -22 351 -3 L472 565 C487 636 490 639 539 640 L553 640 L559 667 Z M303 640 L248 380 L217 380 C184 380 161 412 161 457 C161 483 168 519 179 548 C202 613 232 640 278 640 L303 640 Z " />
<glyph glyph-name="periodcentered" unicode="&#xb7;" horiz-adv-x="252" d="M137 398 C99 398 63 359 63 318 C63 289 82 268 109 268 C147 268 183 307 183 348 C183 377 164 398 137 398 L137 398 Z " />
<glyph glyph-name="cedilla" unicode="&#xb8;" horiz-adv-x="450" d="M133 0 C118 -46 109 -71 98 -98 C118 -100 127 -110 127 -131 C127 -163 104 -188 75 -188 C61 -188 50 -185 34 -178 C29 -192 28 -194 23 -206 C41 -214 57 -218 76 -218 C139 -218 189 -172 189 -113 C189 -79 171 -59 137 -54 C146 -28 147 -26 155 0 L133 0 Z " />
<glyph glyph-name="onesuperior" unicode="&#xb9;" horiz-adv-x="300" d="M133 616 L153 616 L155 616 L156 616 L157 616 C169 616 176 612 176 605 C176 598 173 576 169 558 L124 347 C112 295 111 294 87 293 L75 293 L69 267 L217 267 L222 293 L209 293 C194 293 189 297 189 305 C189 312 192 332 195 348 L263 667 L236 667 C215 651 179 642 138 642 L133 616 Z " />
<glyph glyph-name="ordmasculine" unicode="&#xba;" horiz-adv-x="294" d="M191 535 C107 535 35 453 35 358 C35 297 73 257 130 257 C214 257 286 338 286 433 C286 494 248 535 191 535 L191 535 Z M185 509 C207 509 220 491 220 463 C220 422 206 360 189 323 C177 298 157 283 136 283 C114 283 101 300 101 328 C101 381 120 452 142 485 C152 499 170 509 185 509 L185 509 Z " />
<glyph glyph-name="guillemotright" unicode="&#xbb;" horiz-adv-x="453" d="M403 216 L277 413 L244 413 L294 216 L159 15 L192 15 L403 216 Z M197 216 L72 413 L39 413 L88 216 L-46 15 L-13 15 L197 216 Z " />
<glyph glyph-name="onequarter" unicode="&#xbc;" horiz-adv-x="744" d="M132 616 L150 616 L152 616 L154 616 L156 616 L158 616 C170 616 176 612 176 605 C176 598 173 577 169 558 L124 347 C112 297 110 294 85 293 L72 293 L66 267 L219 267 L225 293 L210 293 C194 293 189 297 189 307 C189 314 192 332 195 348 L263 667 L236 667 C215 651 179 642 138 642 L132 616 Z M185 0 L630 652 L591 652 L146 0 L185 0 Z M544 132 L533 82 C521 30 519 27 494 26 L480 26 L474 0 L627 0 L632 26 L621 26 C606 26 600 30 600 39 C600 46 603 68 606 83 L617 132 L677 132 L696 189 L676 189 L672 183 C662 165 662 165 639 164 L624 164 L674 399 L635 399 L421 163 L415 132 L544 132 Z M551 164 L455 164 L582 309 L551 164 Z " />
<glyph glyph-name="onehalf" unicode="&#xbd;" horiz-adv-x="744" d="M132 616 L150 616 L152 616 L154 616 L156 616 L158 616 C170 616 176 612 176 605 C176 598 173 577 169 558 L124 347 C112 297 110 294 85 293 L72 293 L66 267 L219 267 L225 293 L210 293 C194 293 189 297 189 307 C189 314 192 332 195 348 L263 667 L236 667 C215 651 179 642 138 642 L132 616 Z M167 0 L612 652 L573 652 L128 0 L167 0 Z M400 0 L575 0 C591 0 592 0 592 -4 C592 -9 591 -11 587 -19 L584 -28 L611 -28 L644 50 L477 50 C491 62 502 71 509 76 C590 142 647 198 677 241 C689 258 699 291 699 316 C699 366 660 400 602 400 C529 400 464 344 464 281 C464 257 473 238 484 238 C496 238 518 254 518 263 C518 264 518 266 517 267 C513 274 512 277 512 284 C512 287 512 290 514 295 C515 297 515 298 515 300 C521 339 550 371 580 371 C605 371 621 351 621 319 C621 273 601 227 556 172 C515 121 460 68 406 26 L400 0 Z " />
<glyph glyph-name="threequarters" unicode="&#xbe;" horiz-adv-x="744" d="M211 493 C286 537 313 566 313 606 C313 642 278 667 227 667 C156 667 92 617 92 563 C92 545 99 531 109 531 C123 531 152 545 152 552 C152 554 152 556 151 558 C147 567 146 570 146 577 C146 610 174 639 206 639 C223 639 236 625 236 604 C236 559 205 516 151 486 C130 474 117 461 117 452 C117 446 123 440 128 440 C134 440 138 443 148 452 C159 462 170 468 179 468 C195 468 206 452 206 430 C206 391 192 343 172 314 C159 297 135 284 114 284 C94 284 85 294 83 316 C81 338 74 347 60 347 C42 347 26 330 26 311 C26 281 63 257 110 257 C204 257 283 331 283 418 C283 465 259 490 211 493 L211 493 Z M185 0 L632 652 L593 652 L146 0 L185 0 Z M544 132 L534 82 C522 30 519 27 494 26 L480 26 L474 0 L628 0 L633 26 L622 26 C606 26 601 30 601 40 C601 50 603 68 607 83 L617 132 L678 132 L697 189 L676 189 L673 183 C663 165 662 165 640 164 L624 164 L674 399 L635 399 L420 163 L414 132 L544 132 Z M551 164 L454 164 L582 309 L551 164 Z " />
<glyph glyph-name="questiondown" unicode="&#xbf;" horiz-adv-x="384" d="M243 445 C206 445 170 406 170 365 C170 336 189 315 215 315 C252 315 288 354 288 395 C288 424 269 445 243 445 L243 445 Z M217 231 L182 231 L152 89 C136 104 118 111 96 111 C5 111 -74 14 -74 -97 C-74 -186 -24 -238 62 -238 C136 -238 211 -192 211 -146 C211 -132 202 -122 189 -122 C172 -122 160 -132 145 -159 C128 -191 108 -205 81 -205 C46 -205 23 -174 23 -126 C23 -98 31 -55 43 -19 C62 40 86 69 115 69 C130 69 140 59 146 39 L176 39 L217 231 Z " />
<glyph glyph-name="Agrave" unicode="&#xc0;" horiz-adv-x="593" d="M534 0 L541 33 L536 34 C491 42 485 53 469 152 L384 677 L355 677 L56 163 C5 73 -24 42 -68 34 L-76 33 L-83 0 L102 0 L109 33 L102 33 C74 33 55 50 55 75 C55 96 64 115 105 186 L126 223 L340 223 L355 125 C360 98 361 86 361 76 C361 46 340 33 291 33 L285 33 L277 0 L534 0 Z M335 257 L146 257 L294 513 L335 257 Z M435 728 L461 728 L390 863 L230 863 L229 859 L435 728 Z " />
<glyph glyph-name="Aacute" unicode="&#xc1;" horiz-adv-x="593" d="M534 0 L541 33 L536 34 C491 42 485 53 469 152 L384 677 L355 677 L56 163 C5 73 -24 42 -68 34 L-76 33 L-83 0 L102 0 L109 33 L102 33 C74 33 55 50 55 75 C55 96 64 115 105 186 L126 223 L340 223 L355 125 C360 98 361 86 361 76 C361 46 340 33 291 33 L285 33 L277 0 L534 0 Z M335 257 L146 257 L294 513 L335 257 Z M346 728 L373 728 L634 859 L635 863 L476 863 L346 728 Z " />
<glyph glyph-name="Acircumflex" unicode="&#xc2;" horiz-adv-x="593" d="M534 0 L541 33 L536 34 C491 42 485 53 469 152 L384 677 L355 677 L56 163 C5 73 -24 42 -68 34 L-76 33 L-83 0 L102 0 L109 33 L102 33 C74 33 55 50 55 75 C55 96 64 115 105 186 L126 223 L340 223 L355 125 C360 98 361 86 361 76 C361 46 340 33 291 33 L285 33 L277 0 L534 0 Z M335 257 L146 257 L294 513 L335 257 Z M350 868 L204 727 L229 727 L384 810 L532 727 L558 727 L471 868 L350 868 Z " />
<glyph glyph-name="Atilde" unicode="&#xc3;" horiz-adv-x="593" d="M534 0 L541 33 L536 34 C491 42 485 53 469 152 L384 677 L355 677 L56 163 C5 73 -24 42 -68 34 L-76 33 L-83 0 L102 0 L109 33 L102 33 C74 33 55 50 55 75 C55 96 64 115 105 186 L126 223 L340 223 L355 125 C360 98 361 86 361 76 C361 46 340 33 291 33 L285 33 L277 0 L534 0 Z M335 257 L146 257 L294 513 L335 257 Z M238 726 C239 730 241 736 246 745 C259 770 274 781 295 781 C308 781 326 775 349 763 C405 732 423 726 452 726 C509 726 560 779 571 851 L548 851 C537 817 515 794 493 794 C480 794 460 801 438 812 C391 837 354 850 332 850 C279 850 225 793 215 726 L238 726 Z " />
<glyph glyph-name="Adieresis" unicode="&#xc4;" horiz-adv-x="593" d="M534 0 L541 33 L536 34 C491 42 485 53 469 152 L384 677 L355 677 L56 163 C5 73 -24 42 -68 34 L-76 33 L-83 0 L102 0 L109 33 L102 33 C74 33 55 50 55 75 C55 96 64 115 105 186 L126 223 L340 223 L355 125 C360 98 361 86 361 76 C361 46 340 33 291 33 L285 33 L277 0 L534 0 Z M335 257 L146 257 L294 513 L335 257 Z M291 844 C253 844 217 810 217 773 C217 746 237 726 264 726 C303 726 338 760 338 797 C338 824 318 844 291 844 L291 844 Z M516 844 C477 844 442 810 442 772 C442 746 462 726 489 726 C528 726 563 760 563 797 C563 824 543 844 516 844 L516 844 Z " />
<glyph glyph-name="Aring" unicode="&#xc5;" horiz-adv-x="593" d="M56 163 C5 73 -24 42 -68 34 L-76 33 L-83 0 L102 0 L109 33 L102 33 C74 33 55 50 55 75 C55 96 64 115 105 186 L126 223 L340 223 L355 125 C360 98 361 86 361 76 C361 46 340 33 291 33 L285 33 L277 0 L534 0 L541 33 L536 34 C491 42 485 53 469 152 L389 648 C444 662 487 714 487 767 C487 813 453 847 407 847 C342 847 281 788 281 725 C281 688 302 659 338 648 L56 163 Z M335 257 L146 257 L294 513 L335 257 Z M399 815 C431 815 454 792 454 761 C454 717 413 677 368 677 C337 677 314 700 314 731 C314 775 355 815 399 815 L399 815 Z " />
<glyph glyph-name="AE" unicode="&#xc6;" horiz-adv-x="810" d="M348 323 L314 161 C290 51 278 34 217 33 L206 33 L199 0 L709 0 L759 207 L730 207 C671 73 623 33 528 35 L498 35 C443 35 424 46 424 78 C424 94 429 125 437 164 L471 323 L536 323 C579 323 591 314 591 280 C591 267 589 253 587 240 C586 236 585 231 585 231 L585 229 L584 227 L614 227 L662 455 L633 455 L631 448 C611 372 595 356 539 358 L478 358 L536 632 L648 632 C722 635 744 606 747 499 L778 499 L800 667 L293 667 L286 634 L302 634 C345 634 358 629 358 614 C358 605 345 581 318 541 L74 170 C16 84 -35 38 -79 33 L-86 0 L108 0 L115 33 L111 33 C79 35 59 49 59 70 C59 88 73 117 94 146 L97 149 L211 323 L348 323 Z M356 358 L235 358 L416 640 L356 358 Z " />
<glyph glyph-name="Ccedilla" unicode="&#xc7;" horiz-adv-x="658" d="M278 -12 C357 -8 429 25 486 82 C496 62 500 43 499 13 L528 13 L579 253 L550 253 C500 110 409 28 302 28 C221 28 164 96 164 194 C164 274 187 381 221 464 C268 578 343 641 431 641 C469 641 503 628 531 604 C565 573 583 519 583 445 C583 436 583 427 582 413 L611 413 L659 664 L629 664 C628 662 628 661 627 657 C621 639 604 606 591 587 C555 646 491 679 410 679 C308 679 212 629 138 537 C68 450 29 341 29 234 C29 88 114 -7 249 -12 C233 -57 223 -81 211 -109 C238 -111 252 -124 252 -148 C252 -182 223 -209 185 -209 C167 -209 152 -206 130 -198 C124 -213 123 -215 116 -228 C142 -238 163 -242 188 -242 C270 -242 334 -192 334 -129 C334 -89 309 -66 261 -60 C269 -38 270 -34 275 -20 L278 -12 Z " />
<glyph glyph-name="Egrave" unicode="&#xc8;" horiz-adv-x="577" d="M494 211 C432 79 379 34 285 35 L252 35 C197 35 182 45 182 82 C182 97 188 135 196 173 L230 333 L291 333 C342 333 355 325 355 292 C355 279 353 260 349 243 L348 235 L377 235 L426 463 L396 463 L394 456 C378 384 364 371 296 369 L237 369 L293 632 L383 632 C482 635 507 608 507 499 L538 499 L562 667 L105 667 L98 634 L106 634 C143 634 157 623 157 595 C157 578 153 546 145 511 L71 161 C47 51 34 34 -26 34 L-38 34 L-45 0 L469 0 L524 211 L494 211 Z M445 728 L472 728 L400 863 L241 863 L240 859 L445 728 Z " />
<glyph glyph-name="Eacute" unicode="&#xc9;" horiz-adv-x="577" d="M494 211 C432 79 379 34 285 35 L252 35 C197 35 182 45 182 82 C182 97 188 135 196 173 L230 333 L291 333 C342 333 355 325 355 292 C355 279 353 260 349 243 L348 235 L377 235 L426 463 L396 463 L394 456 C378 384 364 371 296 369 L237 369 L293 632 L383 632 C482 635 507 608 507 499 L538 499 L562 667 L105 667 L98 634 L106 634 C143 634 157 623 157 595 C157 578 153 546 145 511 L71 161 C47 51 34 34 -26 34 L-38 34 L-45 0 L469 0 L524 211 L494 211 Z M312 728 L339 728 L600 859 L601 863 L442 863 L312 728 Z " />
<glyph glyph-name="Ecircumflex" unicode="&#xca;" horiz-adv-x="577" d="M494 211 C432 79 379 34 285 35 L252 35 C197 35 182 45 182 82 C182 97 188 135 196 173 L230 333 L291 333 C342 333 355 325 355 292 C355 279 353 260 349 243 L348 235 L377 235 L426 463 L396 463 L394 456 C378 384 364 371 296 369 L237 369 L293 632 L383 632 C482 635 507 608 507 499 L538 499 L562 667 L105 667 L98 634 L106 634 C143 634 157 623 157 595 C157 578 153 546 145 511 L71 161 C47 51 34 34 -26 34 L-38 34 L-45 0 L469 0 L524 211 L494 211 Z M348 868 L202 727 L227 727 L382 810 L530 727 L555 727 L469 868 L348 868 Z " />
<glyph glyph-name="Edieresis" unicode="&#xcb;" horiz-adv-x="577" d="M494 211 C432 79 379 34 285 35 L252 35 C197 35 182 45 182 82 C182 97 188 135 196 173 L230 333 L291 333 C342 333 355 325 355 292 C355 279 353 260 349 243 L348 235 L377 235 L426 463 L396 463 L394 456 C378 384 364 371 296 369 L237 369 L293 632 L383 632 C482 635 507 608 507 499 L538 499 L562 667 L105 667 L98 634 L106 634 C143 634 157 623 157 595 C157 578 153 546 145 511 L71 161 C47 51 34 34 -26 34 L-38 34 L-45 0 L469 0 L524 211 L494 211 Z M295 844 C257 844 221 810 221 773 C221 746 241 726 268 726 C307 726 342 760 342 797 C342 824 322 844 295 844 L295 844 Z M520 844 C482 844 447 810 447 772 C447 746 467 726 494 726 C532 726 567 760 567 797 C567 824 547 844 520 844 L520 844 Z " />
<glyph glyph-name="Igrave" unicode="&#xcc;" horiz-adv-x="341" d="M90 634 L100 634 C145 634 159 625 159 596 C159 583 153 541 146 511 L72 161 C49 52 36 34 -25 33 L-38 33 L-45 0 L244 0 L251 33 L237 33 C197 33 182 45 182 77 C182 91 187 127 195 161 L269 511 C293 622 303 634 368 634 L378 634 L386 667 L97 667 L90 634 Z M330 728 L356 728 L285 863 L125 863 L124 859 L330 728 Z " />
<glyph glyph-name="Iacute" unicode="&#xcd;" horiz-adv-x="341" d="M90 634 L100 634 C145 634 159 625 159 596 C159 583 153 541 146 511 L72 161 C49 52 36 34 -25 33 L-38 33 L-45 0 L244 0 L251 33 L237 33 C197 33 182 45 182 77 C182 91 187 127 195 161 L269 511 C293 622 303 634 368 634 L378 634 L386 667 L97 667 L90 634 Z M203 728 L230 728 L491 859 L492 863 L333 863 L203 728 Z " />
<glyph glyph-name="Icircumflex" unicode="&#xce;" horiz-adv-x="341" d="M90 634 L100 634 C145 634 159 625 159 596 C159 583 153 541 146 511 L72 161 C49 52 36 34 -25 33 L-38 33 L-45 0 L244 0 L251 33 L237 33 C197 33 182 45 182 77 C182 91 187 127 195 161 L269 511 C293 622 303 634 368 634 L378 634 L386 667 L97 667 L90 634 Z M230 868 L84 727 L110 727 L265 810 L412 727 L438 727 L351 868 L230 868 Z " />
<glyph glyph-name="Idieresis" unicode="&#xcf;" horiz-adv-x="341" d="M90 634 L100 634 C145 634 159 625 159 596 C159 583 153 541 146 511 L72 161 C49 52 36 34 -25 33 L-38 33 L-45 0 L244 0 L251 33 L237 33 C197 33 182 45 182 77 C182 91 187 127 195 161 L269 511 C293 622 303 634 368 634 L378 634 L386 667 L97 667 L90 634 Z M181 844 C143 844 107 810 107 773 C107 746 127 726 154 726 C193 726 228 760 228 797 C228 824 208 844 181 844 L181 844 Z M377 844 C339 844 304 810 304 772 C304 746 324 726 351 726 C389 726 424 760 424 797 C424 824 404 844 377 844 L377 844 Z " />
<glyph glyph-name="Eth" unicode="&#xd0;" horiz-adv-x="703" d="M117 351 L29 351 L20 311 L109 311 L77 161 C54 51 41 34 -18 33 L-36 33 L-43 0 L209 0 C346 0 392 7 456 40 C584 105 670 258 670 418 C670 508 637 577 573 619 C515 657 435 673 310 673 L292 673 C255 672 250 672 191 669 C147 666 127 665 100 664 L93 630 L106 630 C150 630 163 621 163 593 C163 577 158 541 151 507 L117 351 Z M240 351 L301 637 C320 638 336 639 352 639 C407 639 439 632 465 614 C512 582 536 527 536 450 C536 329 495 196 434 117 C390 60 332 35 248 35 C201 35 188 45 188 79 C188 102 191 120 205 186 L231 311 L369 311 L377 351 L240 351 Z " />
<glyph glyph-name="Ntilde" unicode="&#xd1;" horiz-adv-x="694" d="M514 -14 L628 525 C641 597 667 623 733 633 L741 634 L748 667 L524 667 L517 634 L527 634 C570 633 598 612 598 579 C598 564 596 547 593 530 L519 183 L280 667 L95 667 L88 634 L92 634 C141 634 156 623 156 589 C156 566 152 536 145 504 L71 155 C55 64 38 45 -39 33 L-44 33 L-51 0 L172 0 L179 33 L171 33 L169 33 L164 33 C129 33 98 60 98 89 C98 97 104 133 108 155 L195 565 L479 -14 L514 -14 Z M294 726 C295 730 298 736 302 745 C315 770 330 781 351 781 C364 781 382 775 405 763 C462 732 479 726 508 726 C566 726 616 779 628 851 L604 851 C593 817 571 794 550 794 C536 794 516 801 494 812 C447 837 411 850 388 850 C335 850 281 793 271 726 L294 726 Z " />
<glyph glyph-name="Ograve" unicode="&#xd2;" horiz-adv-x="740" d="M447 679 C217 679 31 485 31 245 C31 86 132 -13 295 -13 C523 -13 708 182 708 422 C708 482 694 535 666 575 C622 640 540 679 447 679 L447 679 Z M436 641 C522 641 570 579 570 470 C570 344 526 191 467 112 C426 57 366 25 307 25 C217 25 168 83 168 187 C168 339 230 523 302 586 C344 624 387 641 436 641 L436 641 Z M519 728 L545 728 L473 863 L314 863 L313 859 L519 728 Z " />
<glyph glyph-name="Oacute" unicode="&#xd3;" horiz-adv-x="740" d="M447 679 C217 679 31 485 31 245 C31 86 132 -13 295 -13 C523 -13 708 182 708 422 C708 482 694 535 666 575 C622 640 540 679 447 679 L447 679 Z M436 641 C522 641 570 579 570 470 C570 344 526 191 467 112 C426 57 366 25 307 25 C217 25 168 83 168 187 C168 339 230 523 302 586 C344 624 387 641 436 641 L436 641 Z M411 728 L438 728 L699 859 L700 863 L540 863 L411 728 Z " />
<glyph glyph-name="Ocircumflex" unicode="&#xd4;" horiz-adv-x="740" d="M447 679 C217 679 31 485 31 245 C31 86 132 -13 295 -13 C523 -13 708 182 708 422 C708 482 694 535 666 575 C622 640 540 679 447 679 L447 679 Z M436 641 C522 641 570 579 570 470 C570 344 526 191 467 112 C426 57 366 25 307 25 C217 25 168 83 168 187 C168 339 230 523 302 586 C344 624 387 641 436 641 L436 641 Z M430 868 L284 727 L309 727 L464 810 L612 727 L637 727 L551 868 L430 868 Z " />
<glyph glyph-name="Otilde" unicode="&#xd5;" horiz-adv-x="740" d="M447 679 C217 679 31 485 31 245 C31 86 132 -13 295 -13 C523 -13 708 182 708 422 C708 482 694 535 666 575 C622 640 540 679 447 679 L447 679 Z M436 641 C522 641 570 579 570 470 C570 344 526 191 467 112 C426 57 366 25 307 25 C217 25 168 83 168 187 C168 339 230 523 302 586 C344 624 387 641 436 641 L436 641 Z M320 726 C320 730 323 736 327 745 C341 770 355 781 376 781 C390 781 407 775 430 763 C487 732 504 726 533 726 C591 726 641 778 653 851 L630 851 C618 816 597 794 575 794 C562 794 541 801 519 812 C472 837 436 850 414 850 C360 850 307 793 297 726 L320 726 Z " />
<glyph glyph-name="Odieresis" unicode="&#xd6;" horiz-adv-x="740" d="M447 679 C217 679 31 485 31 245 C31 86 132 -13 295 -13 C523 -13 708 182 708 422 C708 482 694 535 666 575 C622 640 540 679 447 679 L447 679 Z M436 641 C522 641 570 579 570 470 C570 344 526 191 467 112 C426 57 366 25 307 25 C217 25 168 83 168 187 C168 339 230 523 302 586 C344 624 387 641 436 641 L436 641 Z M366 844 C328 844 293 810 293 773 C293 746 313 726 340 726 C378 726 413 760 413 797 C413 824 393 844 366 844 L366 844 Z M592 844 C553 844 518 810 518 772 C518 746 538 726 565 726 C604 726 639 760 639 797 C639 824 619 844 592 844 L592 844 Z " />
<glyph glyph-name="multiply" unicode="&#xd7;" horiz-adv-x="450" d="M132 545 L87 504 L192 351 L20 197 L49 155 L221 310 L326 156 L372 197 L266 350 L438 504 L409 546 L237 391 L132 545 Z " />
<glyph glyph-name="Oslash" unicode="&#xd8;" horiz-adv-x="742" d="M715 656 L697 679 L633 614 C583 657 520 679 443 679 C219 679 33 483 33 247 C33 171 51 116 92 68 L33 8 L52 -14 L113 48 C161 8 224 -13 298 -13 C524 -13 709 182 709 420 C709 494 692 549 654 594 L715 656 Z M570 509 C571 492 571 484 571 468 C571 343 527 191 468 112 C427 57 368 25 308 25 C243 25 201 55 179 115 L570 509 Z M172 148 C170 165 169 175 169 189 C169 339 231 523 303 586 C343 622 390 641 437 641 C500 641 544 607 564 544 L172 148 Z " />
<glyph glyph-name="Ugrave" unicode="&#xd9;" horiz-adv-x="697" d="M537 667 L529 634 L534 633 C579 632 603 611 603 576 C603 558 600 536 595 512 L547 286 C527 192 521 173 503 142 C463 75 388 33 312 33 C235 33 187 78 187 148 C187 172 194 216 208 283 L257 511 C281 620 293 634 357 634 L368 634 L375 667 L88 667 L81 634 L92 634 C138 634 152 625 152 595 C152 576 148 546 140 511 L83 241 C75 203 72 181 72 155 C72 51 147 -13 272 -13 C432 -13 541 79 576 245 L637 531 C652 597 676 622 737 633 L744 634 L751 667 L537 667 Z M521 728 L548 728 L476 863 L316 863 L316 859 L521 728 Z " />
<glyph glyph-name="Uacute" unicode="&#xda;" horiz-adv-x="697" d="M537 667 L529 634 L534 633 C579 632 603 611 603 576 C603 558 600 536 595 512 L547 286 C527 192 521 173 503 142 C463 75 388 33 312 33 C235 33 187 78 187 148 C187 172 194 216 208 283 L257 511 C281 620 293 634 357 634 L368 634 L375 667 L88 667 L81 634 L92 634 C138 634 152 625 152 595 C152 576 148 546 140 511 L83 241 C75 203 72 181 72 155 C72 51 147 -13 272 -13 C432 -13 541 79 576 245 L637 531 C652 597 676 622 737 633 L744 634 L751 667 L537 667 Z M407 728 L434 728 L695 859 L696 863 L537 863 L407 728 Z " />
<glyph glyph-name="Ucircumflex" unicode="&#xdb;" horiz-adv-x="697" d="M537 667 L529 634 L534 633 C579 632 603 611 603 576 C603 558 600 536 595 512 L547 286 C527 192 521 173 503 142 C463 75 388 33 312 33 C235 33 187 78 187 148 C187 172 194 216 208 283 L257 511 C281 620 293 634 357 634 L368 634 L375 667 L88 667 L81 634 L92 634 C138 634 152 625 152 595 C152 576 148 546 140 511 L83 241 C75 203 72 181 72 155 C72 51 147 -13 272 -13 C432 -13 541 79 576 245 L637 531 C652 597 676 622 737 633 L744 634 L751 667 L537 667 Z M417 868 L271 727 L297 727 L452 810 L599 727 L625 727 L539 868 L417 868 Z " />
<glyph glyph-name="Udieresis" unicode="&#xdc;" horiz-adv-x="697" d="M537 667 L529 634 L534 633 C579 632 603 611 603 576 C603 558 600 536 595 512 L547 286 C527 192 521 173 503 142 C463 75 388 33 312 33 C235 33 187 78 187 148 C187 172 194 216 208 283 L257 511 C281 620 293 634 357 634 L368 634 L375 667 L88 667 L81 634 L92 634 C138 634 152 625 152 595 C152 576 148 546 140 511 L83 241 C75 203 72 181 72 155 C72 51 147 -13 272 -13 C432 -13 541 79 576 245 L637 531 C652 597 676 622 737 633 L744 634 L751 667 L537 667 Z M369 844 C331 844 295 810 295 773 C295 746 315 726 342 726 C381 726 416 760 416 797 C416 824 396 844 369 844 L369 844 Z M594 844 C555 844 520 810 520 772 C520 746 540 726 567 726 C606 726 641 760 641 797 C641 824 621 844 594 844 L594 844 Z " />
<glyph glyph-name="Yacute" unicode="&#xdd;" horiz-adv-x="593" d="M59 667 L52 634 L58 634 C101 629 108 620 138 527 L220 262 L199 161 C176 52 162 34 102 33 L93 33 L86 0 L364 0 L371 33 L363 33 C322 33 308 45 308 77 C308 91 313 124 321 161 L344 270 L515 504 C585 598 617 625 662 633 L668 634 L675 667 L476 667 L469 634 L473 634 C507 634 526 619 526 594 C526 573 520 561 485 514 L339 312 L255 548 C249 566 244 585 244 593 C244 619 267 634 310 634 L315 634 L322 667 L59 667 Z M350 728 L377 728 L638 859 L639 863 L480 863 L350 728 Z " />
<glyph glyph-name="Thorn" unicode="&#xde;" horiz-adv-x="553" d="M391 667 L97 667 L90 634 L102 634 C148 634 161 625 161 595 C161 580 156 548 148 511 L74 161 C51 52 38 34 -23 33 L-36 33 L-43 0 L249 0 L256 33 L239 33 C197 33 183 44 183 77 C183 90 186 114 192 140 L194 151 L259 151 C351 151 403 164 446 198 C500 240 534 309 534 378 C534 418 522 448 498 471 C463 505 410 517 305 517 C303 517 286 517 272 516 C275 528 276 532 278 544 C296 618 311 633 367 634 L383 634 L391 667 Z M202 188 L264 480 C274 482 280 482 291 482 C375 482 402 458 402 387 C402 331 384 275 355 237 C327 201 296 188 238 188 L202 188 Z " />
<glyph glyph-name="germandbls" unicode="&#xdf;" horiz-adv-x="503" d="M27 131 C9 44 2 34 -43 33 L-50 33 L-57 0 L144 0 L151 33 L148 33 C125 33 115 41 115 59 C115 67 119 92 127 128 L195 449 C217 551 222 569 236 593 C255 626 285 645 321 645 C360 645 383 619 383 574 L383 572 L383 563 C374 450 332 388 263 386 L257 386 L253 386 L246 354 L250 354 L261 354 L262 354 C305 354 337 319 337 272 C337 242 332 202 318 135 C304 62 284 26 257 26 C247 26 240 33 235 49 C230 68 224 75 214 75 C200 75 187 58 187 40 C187 12 212 -6 250 -6 C354 -6 443 105 443 233 C443 305 403 354 329 372 C425 399 487 469 487 553 C487 631 428 677 330 677 C279 677 233 662 195 633 C141 592 114 538 89 423 L27 131 Z " />
<glyph glyph-name="agrave" unicode="&#xe0;" horiz-adv-x="453" d="M369 79 C360 53 345 38 328 38 C318 38 310 48 310 62 C310 69 313 90 318 111 L354 282 C361 316 362 321 362 334 C362 388 317 419 238 419 C166 419 111 400 71 362 C53 345 44 329 44 313 C44 296 55 285 72 285 C96 285 113 300 126 332 C134 353 141 364 148 370 C162 380 184 386 205 386 C245 386 268 368 268 338 C268 330 266 314 261 294 L256 268 L199 245 C121 212 60 180 22 149 C14 142 5 131 -4 117 C-15 99 -22 78 -22 57 C-22 17 9 -10 55 -10 C98 -10 150 11 214 54 C218 11 241 -10 284 -10 C337 -10 378 24 392 79 L369 79 Z M249 234 L218 90 C176 55 144 38 122 38 C101 38 88 55 88 81 C88 134 134 187 208 217 L249 234 Z M351 490 L292 655 L164 655 L163 651 L326 490 L351 490 Z " />
<glyph glyph-name="aacute" unicode="&#xe1;" horiz-adv-x="453" d="M369 79 C360 53 345 38 328 38 C318 38 310 48 310 62 C310 69 313 90 318 111 L354 282 C361 316 362 321 362 334 C362 388 317 419 238 419 C166 419 111 400 71 362 C53 345 44 329 44 313 C44 296 55 285 72 285 C96 285 113 300 126 332 C134 353 141 364 148 370 C162 380 184 386 205 386 C245 386 268 368 268 338 C268 330 266 314 261 294 L256 268 L199 245 C121 212 60 180 22 149 C14 142 5 131 -4 117 C-15 99 -22 78 -22 57 C-22 17 9 -10 55 -10 C98 -10 150 11 214 54 C218 11 241 -10 284 -10 C337 -10 378 24 392 79 L369 79 Z M249 234 L218 90 C176 55 144 38 122 38 C101 38 88 55 88 81 C88 134 134 187 208 217 L249 234 Z M231 490 L256 490 L486 651 L487 655 L360 655 L231 490 Z " />
<glyph glyph-name="acircumflex" unicode="&#xe2;" horiz-adv-x="453" d="M369 79 C360 53 345 38 328 38 C318 38 310 48 310 62 C310 69 313 90 318 111 L354 282 C361 316 362 321 362 334 C362 388 317 419 238 419 C166 419 111 400 71 362 C53 345 44 329 44 313 C44 296 55 285 72 285 C96 285 113 300 126 332 C134 353 141 364 148 370 C162 380 184 386 205 386 C245 386 268 368 268 338 C268 330 266 314 261 294 L256 268 L199 245 C121 212 60 180 22 149 C14 142 5 131 -4 117 C-15 99 -22 78 -22 57 C-22 17 9 -10 55 -10 C98 -10 150 11 214 54 C218 11 241 -10 284 -10 C337 -10 378 24 392 79 L369 79 Z M249 234 L218 90 C176 55 144 38 122 38 C101 38 88 55 88 81 C88 134 134 187 208 217 L249 234 Z M362 492 L390 492 L335 656 L257 656 L134 492 L160 492 L274 586 L362 492 Z " />
<glyph glyph-name="atilde" unicode="&#xe3;" horiz-adv-x="453" d="M369 79 C360 53 345 38 328 38 C318 38 310 48 310 62 C310 69 313 90 318 111 L354 282 C361 316 362 321 362 334 C362 388 317 419 238 419 C166 419 111 400 71 362 C53 345 44 329 44 313 C44 296 55 285 72 285 C96 285 113 300 126 332 C134 353 141 364 148 370 C162 380 184 386 205 386 C245 386 268 368 268 338 C268 330 266 314 261 294 L256 268 L199 245 C121 212 60 180 22 149 C14 142 5 131 -4 117 C-15 99 -22 78 -22 57 C-22 17 9 -10 55 -10 C98 -10 150 11 214 54 C218 11 241 -10 284 -10 C337 -10 378 24 392 79 L369 79 Z M249 234 L218 90 C176 55 144 38 122 38 C101 38 88 55 88 81 C88 134 134 187 208 217 L249 234 Z M139 513 C151 552 171 571 198 571 C213 571 227 564 255 543 C282 521 303 513 327 513 C387 513 430 558 448 637 L425 637 C415 599 394 577 365 577 C350 577 339 582 318 598 C283 625 262 634 236 634 C178 634 133 589 117 513 L139 513 Z " />
<glyph glyph-name="adieresis" unicode="&#xe4;" horiz-adv-x="453" d="M369 79 C360 53 345 38 328 38 C318 38 310 48 310 62 C310 69 313 90 318 111 L354 282 C361 316 362 321 362 334 C362 388 317 419 238 419 C166 419 111 400 71 362 C53 345 44 329 44 313 C44 296 55 285 72 285 C96 285 113 300 126 332 C134 353 141 364 148 370 C162 380 184 386 205 386 C245 386 268 368 268 338 C268 330 266 314 261 294 L256 268 L199 245 C121 212 60 180 22 149 C14 142 5 131 -4 117 C-15 99 -22 78 -22 57 C-22 17 9 -10 55 -10 C98 -10 150 11 214 54 C218 11 241 -10 284 -10 C337 -10 378 24 392 79 L369 79 Z M249 234 L218 90 C176 55 144 38 122 38 C101 38 88 55 88 81 C88 134 134 187 208 217 L249 234 Z M198 627 C165 627 135 598 135 566 C135 543 152 526 175 526 C208 526 238 555 238 587 C238 610 221 627 198 627 L198 627 Z M375 627 C343 627 313 598 313 566 C313 543 330 526 353 526 C385 526 415 556 415 587 C415 610 398 627 375 627 L375 627 Z " />
<glyph glyph-name="aring" unicode="&#xe5;" horiz-adv-x="453" d="M369 79 C360 53 345 38 328 38 C318 38 310 48 310 62 C310 69 313 90 318 111 L354 282 C361 316 362 321 362 334 C362 388 317 419 238 419 C166 419 111 400 71 362 C53 345 44 329 44 313 C44 296 55 285 72 285 C96 285 113 300 126 332 C134 353 141 364 148 370 C162 380 184 386 205 386 C245 386 268 368 268 338 C268 330 266 314 261 294 L256 268 L199 245 C121 212 60 180 22 149 C14 142 5 131 -4 117 C-15 99 -22 78 -22 57 C-22 17 9 -10 55 -10 C98 -10 150 11 214 54 C218 11 241 -10 284 -10 C337 -10 378 24 392 79 L369 79 Z M249 234 L218 90 C176 55 144 38 122 38 C101 38 88 55 88 81 C88 134 134 187 208 217 L249 234 Z M302 667 C239 667 182 611 182 551 C182 507 215 475 259 475 C320 475 378 531 378 591 C378 635 346 667 302 667 L302 667 Z M295 636 C325 636 347 614 347 585 C347 544 308 506 265 506 C235 506 213 528 213 557 C213 598 252 636 295 636 L295 636 Z " />
<glyph glyph-name="ae" unicode="&#xe6;" horiz-adv-x="613" d="M495 95 C463 50 420 25 375 25 C330 25 303 61 303 119 C303 147 308 185 316 225 L321 246 L562 246 C564 260 564 267 564 277 C564 365 515 419 435 419 C395 419 360 406 326 378 C307 392 297 399 296 400 C278 412 245 419 213 419 C124 419 37 368 37 316 C37 300 49 289 67 289 C90 289 110 307 123 339 C131 357 132 361 139 367 C151 379 171 386 193 386 C228 386 246 370 246 337 C246 326 245 319 239 289 L234 266 C148 237 81 205 43 175 C2 143 -23 100 -23 62 C-23 19 10 -14 54 -14 C101 -14 155 16 211 72 C232 17 278 -14 341 -14 C414 -14 476 19 518 81 L495 95 Z M327 276 C346 346 382 386 426 386 C457 386 479 360 479 323 C479 311 478 296 474 276 L327 276 Z M198 98 C168 61 140 41 119 41 C97 41 82 60 82 87 C82 149 125 192 227 234 L198 98 Z " />
<glyph glyph-name="ccedilla" unicode="&#xe7;" horiz-adv-x="407" d="M162 -16 C240 -11 303 30 337 100 L310 107 C282 52 240 23 190 23 C136 23 108 57 108 122 C108 186 125 263 151 311 C176 361 211 385 256 385 C285 385 297 375 297 349 C297 347 297 347 296 329 C295 306 308 290 328 290 C352 290 374 317 374 346 C374 387 326 419 265 419 C121 419 -3 290 -3 141 C-3 50 50 -8 140 -15 C123 -65 118 -78 110 -98 C130 -100 139 -110 139 -131 C139 -163 116 -188 87 -188 C73 -188 62 -185 46 -178 L35 -206 C53 -214 69 -218 88 -218 C151 -218 201 -171 201 -113 C201 -79 183 -59 149 -54 L158 -26 L160 -21 L162 -16 Z " />
<glyph glyph-name="egrave" unicode="&#xe8;" horiz-adv-x="418" d="M367 246 C371 260 372 272 372 287 C372 367 320 419 240 419 C112 419 -1 289 -1 143 C-1 48 60 -16 150 -16 C221 -16 291 24 329 86 L303 95 C269 47 228 22 182 22 C131 22 103 58 103 123 C103 163 108 191 123 246 L367 246 Z M130 276 C154 352 185 386 231 386 C265 386 284 363 284 323 C284 306 282 291 276 276 L130 276 Z M333 490 L274 655 L146 655 L145 651 L308 490 L333 490 Z " />
<glyph glyph-name="eacute" unicode="&#xe9;" horiz-adv-x="418" d="M367 246 C371 260 372 272 372 287 C372 367 320 419 240 419 C112 419 -1 289 -1 143 C-1 48 60 -16 150 -16 C221 -16 291 24 329 86 L303 95 C269 47 228 22 182 22 C131 22 103 58 103 123 C103 163 108 191 123 246 L367 246 Z M130 276 C154 352 185 386 231 386 C265 386 284 363 284 323 C284 306 282 291 276 276 L130 276 Z M222 490 L247 490 L476 651 L477 655 L351 655 L222 490 Z " />
<glyph glyph-name="ecircumflex" unicode="&#xea;" horiz-adv-x="418" d="M367 246 C371 260 372 272 372 287 C372 367 320 419 240 419 C112 419 -1 289 -1 143 C-1 48 60 -16 150 -16 C221 -16 291 24 329 86 L303 95 C269 47 228 22 182 22 C131 22 103 58 103 123 C103 163 108 191 123 246 L367 246 Z M130 276 C154 352 185 386 231 386 C265 386 284 363 284 323 C284 306 282 291 276 276 L130 276 Z M360 492 L388 492 L333 656 L256 656 L132 492 L159 492 L273 586 L360 492 Z " />
<glyph glyph-name="edieresis" unicode="&#xeb;" horiz-adv-x="418" d="M367 246 C371 260 372 272 372 287 C372 367 320 419 240 419 C112 419 -1 289 -1 143 C-1 48 60 -16 150 -16 C221 -16 291 24 329 86 L303 95 C269 47 228 22 182 22 C131 22 103 58 103 123 C103 163 108 191 123 246 L367 246 Z M130 276 C154 352 185 386 231 386 C265 386 284 363 284 323 C284 306 282 291 276 276 L130 276 Z M201 627 C168 627 138 598 138 566 C138 543 155 526 178 526 C211 526 241 555 241 587 C241 610 224 627 201 627 L201 627 Z M378 627 C345 627 315 598 315 566 C315 543 332 526 355 526 C388 526 418 555 418 587 C418 610 401 627 378 627 L378 627 Z " />
<glyph glyph-name="igrave" unicode="&#xec;" horiz-adv-x="249" d="M19 357 L30 357 C63 357 73 349 73 323 C73 312 69 285 64 262 L37 131 C18 47 8 33 -37 33 L-50 33 L-57 0 L163 0 L170 33 L164 33 C136 33 124 41 124 61 C124 74 128 100 135 131 L196 419 L187 419 C154 410 60 392 26 389 L19 357 Z M235 490 L176 655 L47 655 L47 651 L210 490 L235 490 Z " />
<glyph glyph-name="iacute" unicode="&#xed;" horiz-adv-x="249" d="M19 357 L30 357 C63 357 73 349 73 323 C73 312 69 285 64 262 L37 131 C18 47 8 33 -37 33 L-50 33 L-57 0 L163 0 L170 33 L164 33 C136 33 124 41 124 61 C124 74 128 100 135 131 L196 419 L187 419 C154 410 60 392 26 389 L19 357 Z M126 490 L151 490 L380 651 L381 655 L255 655 L126 490 Z " />
<glyph glyph-name="icircumflex" unicode="&#xee;" horiz-adv-x="249" d="M19 357 L30 357 C63 357 73 349 73 323 C73 312 69 285 64 262 L37 131 C18 47 8 33 -37 33 L-50 33 L-57 0 L163 0 L170 33 L164 33 C136 33 124 41 124 61 C124 74 128 100 135 131 L196 419 L187 419 C154 410 60 392 26 389 L19 357 Z M258 492 L286 492 L231 656 L154 656 L30 492 L56 492 L170 586 L258 492 Z " />
<glyph glyph-name="idieresis" unicode="&#xef;" horiz-adv-x="249" d="M19 357 L30 357 C63 357 73 349 73 323 C73 312 69 285 64 262 L37 131 C18 47 8 33 -37 33 L-50 33 L-57 0 L163 0 L170 33 L164 33 C136 33 124 41 124 61 C124 74 128 100 135 131 L196 419 L187 419 C154 410 60 392 26 389 L19 357 Z M113 627 C80 627 50 598 50 566 C50 543 67 526 90 526 C123 526 153 555 153 587 C153 610 136 627 113 627 L113 627 Z M260 627 C227 627 197 598 197 566 C197 543 214 526 237 526 C270 526 300 555 300 587 C300 610 283 627 260 627 L260 627 Z " />
<glyph glyph-name="eth" unicode="&#xf0;" horiz-adv-x="471" d="M189 629 C224 600 228 596 257 563 L134 500 L141 471 L275 540 C306 494 327 437 331 387 C311 412 290 421 254 421 C118 421 0 294 0 148 C0 50 64 -13 163 -13 C316 -13 428 132 428 329 C428 423 403 500 348 578 L447 629 L439 657 L330 601 C288 645 284 649 240 679 L189 629 Z M249 387 C288 387 313 353 313 300 C313 254 292 159 271 108 C249 55 208 20 169 20 C128 20 105 49 105 102 C105 172 132 280 161 328 C184 366 216 387 249 387 L249 387 Z " />
<glyph glyph-name="ntilde" unicode="&#xf1;" horiz-adv-x="504" d="M34 388 L27 356 L32 356 C60 356 70 348 70 328 C70 312 66 283 61 259 L34 131 C15 44 9 34 -36 33 L-41 33 L-48 0 L156 0 L163 33 C133 33 123 40 123 62 C123 73 126 93 134 131 L169 293 C214 348 247 370 282 370 C311 370 328 351 328 320 C328 307 328 303 326 295 L291 131 C273 44 268 37 225 33 L218 33 L212 0 L418 0 L424 33 L420 33 C393 33 381 41 381 60 C381 71 386 101 392 131 L420 262 C428 298 430 315 430 332 C430 385 394 419 339 419 C284 419 231 393 179 341 C183 363 185 380 185 397 C185 404 185 407 184 415 L173 415 C139 406 110 400 86 397 C80 396 72 395 62 393 L34 388 Z M166 513 C179 552 199 571 226 571 C240 571 255 564 282 543 C310 521 330 513 354 513 C414 513 458 558 476 637 L453 637 C443 599 421 577 393 577 C378 577 366 582 345 598 C311 625 290 634 264 634 C205 634 161 589 144 513 L166 513 Z " />
<glyph glyph-name="ograve" unicode="&#xf2;" horiz-adv-x="471" d="M256 419 C116 419 -1 293 -1 143 C-1 49 64 -16 159 -16 C299 -16 416 108 416 257 C416 353 351 419 256 419 L256 419 Z M247 385 C287 385 312 354 312 304 C312 241 289 140 261 83 C241 42 206 17 170 17 C126 17 104 46 104 104 C104 144 116 209 132 261 C160 347 196 385 247 385 L247 385 Z M347 490 L287 655 L159 655 L159 651 L321 490 L347 490 Z " />
<glyph glyph-name="oacute" unicode="&#xf3;" horiz-adv-x="471" d="M256 419 C116 419 -1 293 -1 143 C-1 49 64 -16 159 -16 C299 -16 416 108 416 257 C416 353 351 419 256 419 L256 419 Z M247 385 C287 385 312 354 312 304 C312 241 289 140 261 83 C241 42 206 17 170 17 C126 17 104 46 104 104 C104 144 116 209 132 261 C160 347 196 385 247 385 L247 385 Z M244 490 L269 490 L499 651 L499 655 L373 655 L244 490 Z " />
<glyph glyph-name="ocircumflex" unicode="&#xf4;" horiz-adv-x="471" d="M256 419 C116 419 -1 293 -1 143 C-1 49 64 -16 159 -16 C299 -16 416 108 416 257 C416 353 351 419 256 419 L256 419 Z M247 385 C287 385 312 354 312 304 C312 241 289 140 261 83 C241 42 206 17 170 17 C126 17 104 46 104 104 C104 144 116 209 132 261 C160 347 196 385 247 385 L247 385 Z M381 492 L408 492 L354 656 L276 656 L152 492 L179 492 L293 586 L381 492 Z " />
<glyph glyph-name="otilde" unicode="&#xf5;" horiz-adv-x="471" d="M256 419 C116 419 -1 293 -1 143 C-1 49 64 -16 159 -16 C299 -16 416 108 416 257 C416 353 351 419 256 419 L256 419 Z M247 385 C287 385 312 354 312 304 C312 241 289 140 261 83 C241 42 206 17 170 17 C126 17 104 46 104 104 C104 144 116 209 132 261 C160 347 196 385 247 385 L247 385 Z M151 513 C164 552 184 571 211 571 C225 571 240 564 267 543 C295 521 315 513 339 513 C399 513 443 558 460 637 L438 637 C428 599 406 577 377 577 C363 577 351 582 330 598 C296 625 275 634 249 634 C190 634 146 589 129 513 L151 513 Z " />
<glyph glyph-name="odieresis" unicode="&#xf6;" horiz-adv-x="471" d="M256 419 C116 419 -1 293 -1 143 C-1 49 64 -16 159 -16 C299 -16 416 108 416 257 C416 353 351 419 256 419 L256 419 Z M247 385 C287 385 312 354 312 304 C312 241 289 140 261 83 C241 42 206 17 170 17 C126 17 104 46 104 104 C104 144 116 209 132 261 C160 347 196 385 247 385 L247 385 Z M215 627 C182 627 152 598 152 566 C152 543 169 526 192 526 C225 526 255 555 255 587 C255 610 238 627 215 627 L215 627 Z M392 627 C359 627 329 598 329 566 C329 543 346 526 369 526 C402 526 432 556 432 587 C432 610 415 627 392 627 L392 627 Z " />
<glyph glyph-name="divide" unicode="&#xf7;" horiz-adv-x="450" d="M24 379 L12 321 L433 321 L446 379 L24 379 Z M205 229 C166 229 130 190 130 149 C130 120 149 99 176 99 C214 99 250 138 250 179 C250 208 231 229 205 229 L205 229 Z M282 593 C244 593 208 554 208 513 C208 484 227 463 254 463 C292 463 328 502 328 543 C328 572 309 593 282 593 L282 593 Z " />
<glyph glyph-name="oslash" unicode="&#xf8;" horiz-adv-x="471" d="M29 43 L-25 -11 L-8 -32 L48 24 C82 -4 115 -16 159 -16 C299 -16 416 108 416 256 C416 301 406 332 382 362 L435 416 L418 436 L364 381 C333 407 297 419 255 419 C118 419 0 293 0 145 C0 102 9 71 30 44 L29 43 Z M104 119 C108 170 117 214 132 261 C160 346 196 385 248 385 C281 385 303 365 311 327 L104 119 Z M312 292 C308 222 287 137 262 83 C242 43 206 17 170 17 C131 17 113 35 105 82 L312 292 Z " />
<glyph glyph-name="ugrave" unicode="&#xf9;" horiz-adv-x="494" d="M439 403 L286 403 L279 370 L286 370 C312 370 323 362 323 344 C323 335 318 302 311 272 L287 159 C273 91 216 34 164 34 C141 34 122 54 122 76 C122 86 125 106 130 129 L188 403 L31 403 L24 370 L28 370 C59 370 69 362 69 335 C69 322 66 300 60 272 L29 129 C25 109 22 81 22 64 C22 19 61 -16 113 -16 C167 -16 222 14 268 70 C263 46 260 21 260 9 L260 -6 L261 -16 L267 -16 C292 -7 349 0 393 0 L399 0 L404 0 L411 33 L408 33 C381 33 372 40 371 61 L371 62 L382 132 L439 403 Z M371 490 L312 655 L184 655 L183 651 L346 490 L371 490 Z " />
<glyph glyph-name="uacute" unicode="&#xfa;" horiz-adv-x="494" d="M439 403 L286 403 L279 370 L286 370 C312 370 323 362 323 344 C323 335 318 302 311 272 L287 159 C273 91 216 34 164 34 C141 34 122 54 122 76 C122 86 125 106 130 129 L188 403 L31 403 L24 370 L28 370 C59 370 69 362 69 335 C69 322 66 300 60 272 L29 129 C25 109 22 81 22 64 C22 19 61 -16 113 -16 C167 -16 222 14 268 70 C263 46 260 21 260 9 L260 -6 L261 -16 L267 -16 C292 -7 349 0 393 0 L399 0 L404 0 L411 33 L408 33 C381 33 372 40 371 61 L371 62 L382 132 L439 403 Z M253 490 L278 490 L508 651 L509 655 L382 655 L253 490 Z " />
<glyph glyph-name="ucircumflex" unicode="&#xfb;" horiz-adv-x="494" d="M439 403 L286 403 L279 370 L286 370 C312 370 323 362 323 344 C323 335 318 302 311 272 L287 159 C273 91 216 34 164 34 C141 34 122 54 122 76 C122 86 125 106 130 129 L188 403 L31 403 L24 370 L28 370 C59 370 69 362 69 335 C69 322 66 300 60 272 L29 129 C25 109 22 81 22 64 C22 19 61 -16 113 -16 C167 -16 222 14 268 70 C263 46 260 21 260 9 L260 -6 L261 -16 L267 -16 C292 -7 349 0 393 0 L399 0 L404 0 L411 33 L408 33 C381 33 372 40 371 61 L371 62 L382 132 L439 403 Z M390 492 L418 492 L363 656 L286 656 L162 492 L188 492 L303 586 L390 492 Z " />
<glyph glyph-name="udieresis" unicode="&#xfc;" horiz-adv-x="494" d="M439 403 L286 403 L279 370 L286 370 C312 370 323 362 323 344 C323 335 318 302 311 272 L287 159 C273 91 216 34 164 34 C141 34 122 54 122 76 C122 86 125 106 130 129 L188 403 L31 403 L24 370 L28 370 C59 370 69 362 69 335 C69 322 66 300 60 272 L29 129 C25 109 22 81 22 64 C22 19 61 -16 113 -16 C167 -16 222 14 268 70 C263 46 260 21 260 9 L260 -6 L261 -16 L267 -16 C292 -7 349 0 393 0 L399 0 L404 0 L411 33 L408 33 C381 33 372 40 371 61 L371 62 L382 132 L439 403 Z M229 627 C196 627 166 598 166 566 C166 543 183 526 206 526 C239 526 269 555 269 587 C269 610 252 627 229 627 L229 627 Z M406 627 C373 627 343 598 343 566 C343 543 360 526 383 526 C415 526 446 556 446 587 C446 610 429 627 406 627 L406 627 Z " />
<glyph glyph-name="yacute" unicode="&#xfd;" horiz-adv-x="434" d="M10 403 L3 371 L10 371 C38 367 43 361 57 304 L133 -12 L92 -85 C70 -121 57 -131 8 -148 C-35 -164 -56 -187 -56 -217 C-56 -236 -43 -249 -23 -249 C13 -249 46 -216 100 -126 L337 272 L351 292 C388 354 400 365 435 370 L441 371 L448 403 L310 403 L303 371 L311 371 L312 371 L314 371 C330 371 344 361 344 350 C344 344 340 334 332 322 C328 315 322 305 315 293 L199 98 L154 307 C150 325 149 333 149 341 C149 358 164 369 188 371 L193 371 L199 403 L10 403 Z M245 490 L270 490 L500 651 L500 655 L374 655 L245 490 Z " />
<glyph glyph-name="thorn" unicode="&#xfe;" horiz-adv-x="499" d="M65 615 L74 615 C102 615 114 607 114 587 C114 574 110 548 103 517 L-30 -113 C-49 -200 -56 -210 -102 -212 L-111 -212 L-118 -244 L100 -244 L107 -212 L100 -212 C72 -212 60 -203 60 -183 C60 -169 64 -142 70 -113 L103 43 C135 1 166 -16 212 -16 C337 -16 446 117 446 268 C446 359 394 419 315 419 C265 419 215 396 168 351 L237 677 L226 677 C184 665 143 657 96 652 C82 650 76 649 72 648 L65 615 Z M159 308 C197 353 232 375 268 375 C310 375 338 336 338 278 C338 255 335 231 329 207 L329 205 L327 198 C304 90 252 26 189 26 C157 26 130 46 112 84 L159 308 Z " />
<glyph glyph-name="ydieresis" unicode="&#xff;" horiz-adv-x="434" d="M10 403 L3 371 L10 371 C38 367 43 361 57 304 L133 -12 L92 -85 C70 -121 57 -131 8 -148 C-35 -164 -56 -187 -56 -217 C-56 -236 -43 -249 -23 -249 C13 -249 46 -216 100 -126 L337 272 L351 292 C388 354 400 365 435 370 L441 371 L448 403 L310 403 L303 371 L311 371 L312 371 L314 371 C330 371 344 361 344 350 C344 344 340 334 332 322 C328 315 322 305 315 293 L199 98 L154 307 C150 325 149 333 149 341 C149 358 164 369 188 371 L193 371 L199 403 L10 403 Z M203 627 C170 627 140 598 140 566 C140 543 157 526 180 526 C213 526 243 555 243 587 C243 610 226 627 203 627 L203 627 Z M380 627 C348 627 318 598 318 566 C318 543 335 526 358 526 C390 526 420 556 420 587 C420 610 403 627 380 627 L380 627 Z " />
<glyph glyph-name="Amacron" unicode="&#x100;" horiz-adv-x="593" d="M534 0 L541 33 L536 34 C491 42 485 53 469 152 L384 677 L355 677 L56 163 C5 73 -24 42 -68 34 L-76 33 L-83 0 L102 0 L109 33 L102 33 C74 33 55 50 55 75 C55 96 64 115 105 186 L126 223 L340 223 L355 125 C360 98 361 86 361 76 C361 46 340 33 291 33 L285 33 L277 0 L534 0 Z M335 257 L146 257 L294 513 L335 257 Z M541 801 L242 801 L233 758 L532 758 L541 801 Z " />
<glyph glyph-name="amacron" unicode="&#x101;" horiz-adv-x="453" d="M369 79 C360 53 345 38 328 38 C318 38 310 48 310 62 C310 69 313 90 318 111 L354 282 C361 316 362 321 362 334 C362 388 317 419 238 419 C166 419 111 400 71 362 C53 345 44 329 44 313 C44 296 55 285 72 285 C96 285 113 300 126 332 C134 353 141 364 148 370 C162 380 184 386 205 386 C245 386 268 368 268 338 C268 330 266 314 261 294 L256 268 L199 245 C121 212 60 180 22 149 C14 142 5 131 -4 117 C-15 99 -22 78 -22 57 C-22 17 9 -10 55 -10 C98 -10 150 11 214 54 C218 11 241 -10 284 -10 C337 -10 378 24 392 79 L369 79 Z M249 234 L218 90 C176 55 144 38 122 38 C101 38 88 55 88 81 C88 134 134 187 208 217 L249 234 Z M133 547 L400 547 L409 590 L143 590 L133 547 Z " />
<glyph glyph-name="Abreve" unicode="&#x102;" horiz-adv-x="593" d="M534 0 L541 33 L536 34 C491 42 485 53 469 152 L384 677 L355 677 L56 163 C5 73 -24 42 -68 34 L-76 33 L-83 0 L102 0 L109 33 L102 33 C74 33 55 50 55 75 C55 96 64 115 105 186 L126 223 L340 223 L355 125 C360 98 361 86 361 76 C361 46 340 33 291 33 L285 33 L277 0 L534 0 Z M335 257 L146 257 L294 513 L335 257 Z M241 871 C242 776 296 715 377 715 C463 715 545 777 583 871 L554 871 C518 826 459 799 395 799 C334 799 295 822 271 871 L241 871 Z " />
<glyph glyph-name="abreve" unicode="&#x103;" horiz-adv-x="453" d="M369 79 C360 53 345 38 328 38 C318 38 310 48 310 62 C310 69 313 90 318 111 L354 282 C361 316 362 321 362 334 C362 388 317 419 238 419 C166 419 111 400 71 362 C53 345 44 329 44 313 C44 296 55 285 72 285 C96 285 113 300 126 332 C134 353 141 364 148 370 C162 380 184 386 205 386 C245 386 268 368 268 338 C268 330 266 314 261 294 L256 268 L199 245 C121 212 60 180 22 149 C14 142 5 131 -4 117 C-15 99 -22 78 -22 57 C-22 17 9 -10 55 -10 C98 -10 150 11 214 54 C218 11 241 -10 284 -10 C337 -10 378 24 392 79 L369 79 Z M249 234 L218 90 C176 55 144 38 122 38 C101 38 88 55 88 81 C88 134 134 187 208 217 L249 234 Z M167 649 C165 641 164 634 164 625 C164 547 204 499 270 499 C343 499 412 561 437 649 L415 649 C386 599 345 575 289 575 C226 575 193 600 188 649 L167 649 Z " />
<glyph glyph-name="Aogonek" unicode="&#x104;" horiz-adv-x="593" d="M534 0 L541 33 L536 34 C491 42 485 53 469 152 L384 677 L355 677 L56 163 C5 73 -24 42 -68 34 L-76 33 L-83 0 L102 0 L109 33 L102 33 C74 33 55 50 55 75 C55 96 64 115 105 186 L126 223 L340 223 L355 125 C360 98 361 86 361 76 C361 46 340 33 291 33 L285 33 L277 0 L441 0 C384 -30 345 -83 345 -130 C345 -173 373 -200 418 -200 C448 -200 474 -190 513 -164 L507 -147 C490 -155 482 -157 470 -157 C446 -157 430 -138 430 -110 C430 -76 447 -35 477 0 L534 0 Z M335 257 L146 257 L294 513 L335 257 Z " />
<glyph glyph-name="aogonek" unicode="&#x105;" horiz-adv-x="453" d="M369 79 C360 53 345 38 328 38 C318 38 310 48 310 62 C310 69 313 90 318 111 L354 282 C361 316 362 321 362 334 C362 388 317 419 238 419 C166 419 111 400 71 362 C53 345 44 329 44 313 C44 296 55 285 72 285 C96 285 113 300 126 332 C134 353 141 364 148 370 C162 380 184 386 205 386 C245 386 268 368 268 338 C268 330 266 314 261 294 L256 268 L199 245 C121 212 60 180 22 149 C14 142 5 131 -4 117 C-15 99 -22 78 -22 57 C-22 17 9 -10 55 -10 C98 -10 150 11 214 54 C216 17 234 -3 269 -9 C221 -39 191 -84 191 -125 C191 -165 217 -191 257 -191 C285 -191 310 -182 345 -157 L340 -141 C323 -148 314 -150 303 -150 C281 -150 266 -132 266 -104 C266 -72 282 -37 310 -7 C350 2 382 35 392 79 L369 79 Z M249 234 L218 90 C176 55 144 38 122 38 C101 38 88 55 88 81 C88 134 134 187 208 217 L249 234 Z " />
<glyph glyph-name="Cacute" unicode="&#x106;" horiz-adv-x="658" d="M550 252 C500 110 409 28 302 28 C221 28 164 96 164 194 C164 274 187 381 221 464 C268 578 343 641 431 641 C469 641 503 628 531 604 C565 573 583 519 583 445 C583 434 583 426 582 413 L611 413 L659 664 L629 664 C628 662 628 661 627 657 C621 639 604 606 591 587 C555 646 491 679 410 679 C308 679 212 629 138 537 C68 450 29 341 29 233 C29 83 120 -13 264 -13 C347 -13 423 20 486 82 C496 61 500 42 499 13 L529 13 L579 252 L550 252 Z M377 728 L403 728 L665 859 L666 863 L506 863 L377 728 Z " />
<glyph glyph-name="cacute" unicode="&#x107;" horiz-adv-x="407" d="M310 107 C282 52 241 23 190 23 C136 23 108 57 108 122 C108 186 125 263 151 311 C176 361 211 385 256 385 C285 385 297 375 297 349 C297 347 297 347 296 329 C295 306 308 290 328 290 C352 290 374 317 374 346 C374 387 326 419 265 419 C121 419 -3 290 -3 141 C-3 46 58 -16 152 -16 C232 -16 298 25 337 100 L310 107 Z M225 490 L251 490 L480 651 L481 655 L355 655 L225 490 Z " />
<glyph glyph-name="Ccircumflex" unicode="&#x108;" horiz-adv-x="658" d="M550 252 C500 110 409 28 302 28 C221 28 164 96 164 194 C164 274 187 381 221 464 C268 578 343 641 431 641 C469 641 503 628 531 604 C565 573 583 519 583 445 C583 434 583 426 582 413 L611 413 L659 664 L629 664 C628 662 628 661 627 657 C621 639 604 606 591 587 C555 646 491 679 410 679 C308 679 212 629 138 537 C68 450 29 341 29 233 C29 83 120 -13 264 -13 C347 -13 423 20 486 82 C496 61 500 42 499 13 L529 13 L579 252 L550 252 Z M410 868 L264 727 L289 727 L444 810 L592 727 L618 727 L531 868 L410 868 Z " />
<glyph glyph-name="Cdotaccent" unicode="&#x10a;" horiz-adv-x="658" d="M550 252 C500 110 409 28 302 28 C221 28 164 96 164 194 C164 274 187 381 221 464 C268 578 343 641 431 641 C469 641 503 628 531 604 C565 573 583 519 583 445 C583 434 583 426 582 413 L611 413 L659 664 L629 664 C628 662 628 661 627 657 C621 639 604 606 591 587 C555 646 491 679 410 679 C308 679 212 629 138 537 C68 450 29 341 29 233 C29 83 120 -13 264 -13 C347 -13 423 20 486 82 C496 61 500 42 499 13 L529 13 L579 252 L550 252 Z M451 844 C413 844 377 810 377 773 C377 746 397 726 424 726 C463 726 498 760 498 797 C498 824 478 844 451 844 L451 844 Z " />
<glyph glyph-name="cdotaccent" unicode="&#x10b;" horiz-adv-x="407" d="M310 107 C282 52 241 23 190 23 C136 23 108 57 108 122 C108 186 125 263 151 311 C176 361 211 385 256 385 C285 385 297 375 297 349 C297 347 297 347 296 329 C295 306 308 290 328 290 C352 290 374 317 374 346 C374 387 326 419 265 419 C121 419 -3 290 -3 141 C-3 46 58 -16 152 -16 C232 -16 298 25 337 100 L310 107 Z M302 627 C269 627 239 598 239 566 C239 543 256 526 279 526 C312 526 342 555 342 587 C342 610 325 627 302 627 L302 627 Z " />
<glyph glyph-name="Ccaron" unicode="&#x10c;" horiz-adv-x="658" d="M550 252 C500 110 409 28 302 28 C221 28 164 96 164 194 C164 274 187 381 221 464 C268 578 343 641 431 641 C469 641 503 628 531 604 C565 573 583 519 583 445 C583 434 583 426 582 413 L611 413 L659 664 L629 664 C628 662 628 661 627 657 C621 639 604 606 591 587 C555 646 491 679 410 679 C308 679 212 629 138 537 C68 450 29 341 29 233 C29 83 120 -13 264 -13 C347 -13 423 20 486 82 C496 61 500 42 499 13 L529 13 L579 252 L550 252 Z M480 727 L627 868 L602 868 L447 785 L299 868 L273 868 L359 727 L480 727 Z " />
<glyph glyph-name="ccaron" unicode="&#x10d;" horiz-adv-x="407" d="M310 107 C282 52 241 23 190 23 C136 23 108 57 108 122 C108 186 125 263 151 311 C176 361 211 385 256 385 C285 385 297 375 297 349 C297 347 297 347 296 329 C295 306 308 290 328 290 C352 290 374 317 374 346 C374 387 326 419 265 419 C121 419 -3 290 -3 141 C-3 46 58 -16 152 -16 C232 -16 298 25 337 100 L310 107 Z M197 656 L171 656 L227 492 L305 492 L426 656 L399 656 L287 562 L197 656 Z " />
<glyph glyph-name="Dcaron" unicode="&#x10e;" horiz-adv-x="701" d="M91 630 L104 630 C148 630 161 622 161 593 C161 577 156 541 149 508 L75 161 C52 51 39 34 -20 33 L-38 33 L-45 0 L207 0 C344 0 390 7 454 40 C582 105 668 258 668 418 C668 508 635 577 571 619 C513 657 433 673 308 673 L290 673 C253 672 248 672 189 669 C143 666 125 665 98 664 L91 630 Z M299 637 C318 638 333 639 350 639 C405 639 437 632 463 614 C510 582 534 527 534 450 C534 329 493 196 432 117 C388 60 330 35 246 35 C199 35 186 45 186 79 C186 102 189 120 203 187 L299 637 Z M456 727 L603 868 L578 868 L423 785 L275 868 L250 868 L335 727 L456 727 Z " />
<glyph glyph-name="dcaron" unicode="&#x10f;" horiz-adv-x="599" d="M427 35 L421 35 C393 35 383 43 383 64 C383 78 385 88 394 134 L510 677 L501 677 C460 668 436 663 355 652 L348 652 L343 651 L336 619 L343 619 C374 619 384 611 384 586 C384 568 381 544 376 520 L342 362 C316 398 274 419 226 419 C106 419 -3 284 -3 135 C-3 49 52 -14 128 -14 C178 -14 225 8 280 56 C275 32 273 17 273 0 L273 -14 C310 -6 362 0 420 1 L427 35 Z M286 98 C253 55 211 30 173 30 C133 30 107 66 107 121 C107 179 124 254 147 299 C173 348 208 374 249 374 C281 374 308 358 334 323 L286 98 Z M507 447 C591 462 651 530 651 610 C651 652 630 677 596 677 C559 677 527 644 527 606 C527 584 542 568 563 568 C569 568 573 568 584 571 C589 572 590 572 592 572 C599 572 604 566 604 557 C604 523 565 489 513 478 L507 447 Z " />
<glyph glyph-name="Dcroat" unicode="&#x110;" horiz-adv-x="703" d="M117 351 L29 351 L20 311 L109 311 L77 161 C54 51 41 34 -18 33 L-36 33 L-43 0 L209 0 C346 0 392 7 456 40 C584 105 670 258 670 418 C670 508 637 577 573 619 C515 657 435 673 310 673 L292 673 C255 672 250 672 191 669 C147 666 127 665 100 664 L93 630 L106 630 C150 630 163 621 163 593 C163 577 158 541 151 507 L117 351 Z M240 351 L301 637 C320 638 336 639 352 639 C407 639 439 632 465 614 C512 582 536 527 536 450 C536 329 495 196 434 117 C390 60 332 35 248 35 C201 35 188 45 188 79 C188 102 191 120 205 186 L231 311 L369 311 L377 351 L240 351 Z " />
<glyph glyph-name="dcroat" unicode="&#x111;" horiz-adv-x="500" d="M373 507 L342 362 C316 398 274 419 226 419 C106 419 -3 284 -3 135 C-3 49 52 -14 128 -14 C178 -14 225 8 280 56 C275 32 273 17 273 0 L273 -14 C310 -6 362 0 420 1 L427 35 L421 35 C393 35 383 43 383 64 C383 78 385 88 394 134 L474 507 L527 507 L536 550 L483 550 L510 677 L501 677 C460 668 436 663 355 652 L348 652 L343 651 L336 619 L343 619 C374 619 384 611 384 585 C384 575 383 563 381 550 L236 550 L227 507 L373 507 Z M286 98 C253 55 211 30 173 30 C133 30 107 66 107 121 C107 179 124 254 147 299 C173 348 208 374 249 374 C281 374 308 358 334 323 L286 98 Z " />
<glyph glyph-name="Emacron" unicode="&#x112;" horiz-adv-x="577" d="M494 211 C432 79 379 34 285 35 L252 35 C197 35 182 45 182 82 C182 97 188 135 196 173 L230 333 L291 333 C342 333 355 325 355 292 C355 279 353 260 349 243 L348 235 L377 235 L426 463 L396 463 L394 456 C378 384 364 371 296 369 L237 369 L293 632 L383 632 C482 635 507 608 507 499 L538 499 L562 667 L105 667 L98 634 L106 634 C143 634 157 623 157 595 C157 578 153 546 145 511 L71 161 C47 51 34 34 -26 34 L-38 34 L-45 0 L469 0 L524 211 L494 211 Z M539 801 L240 801 L231 758 L530 758 L539 801 Z " />
<glyph glyph-name="emacron" unicode="&#x113;" horiz-adv-x="418" d="M367 246 C371 260 372 272 372 287 C372 367 320 419 240 419 C112 419 -1 289 -1 143 C-1 48 60 -16 150 -16 C221 -16 291 24 329 86 L303 95 C269 47 228 22 182 22 C131 22 103 58 103 123 C103 163 108 191 123 246 L367 246 Z M130 276 C154 352 185 386 231 386 C265 386 284 363 284 323 C284 306 282 291 276 276 L130 276 Z M130 547 L397 547 L406 590 L139 590 L130 547 Z " />
<glyph glyph-name="Ebreve" unicode="&#x114;" horiz-adv-x="577" d="M494 211 C432 79 379 34 285 35 L252 35 C197 35 182 45 182 82 C182 97 188 135 196 173 L230 333 L291 333 C342 333 355 325 355 292 C355 279 353 260 349 243 L348 235 L377 235 L426 463 L396 463 L394 456 C378 384 364 371 296 369 L237 369 L293 632 L383 632 C482 635 507 608 507 499 L538 499 L562 667 L105 667 L98 634 L106 634 C143 634 157 623 157 595 C157 578 153 546 145 511 L71 161 C47 51 34 34 -26 34 L-38 34 L-45 0 L469 0 L524 211 L494 211 Z M243 871 C244 776 298 715 379 715 C465 715 547 777 585 871 L556 871 C520 826 461 799 397 799 C336 799 297 822 273 871 L243 871 Z " />
<glyph glyph-name="ebreve" unicode="&#x115;" horiz-adv-x="418" d="M367 246 C371 260 372 272 372 287 C372 367 320 419 240 419 C112 419 -1 289 -1 143 C-1 48 60 -16 150 -16 C221 -16 291 24 329 86 L303 95 C269 47 228 22 182 22 C131 22 103 58 103 123 C103 163 108 191 123 246 L367 246 Z M130 276 C154 352 185 386 231 386 C265 386 284 363 284 323 C284 306 282 291 276 276 L130 276 Z M159 649 C157 641 156 635 156 628 C156 548 196 499 262 499 C336 499 404 561 429 649 L407 649 C378 598 338 575 281 575 C219 575 186 600 181 649 L159 649 Z " />
<glyph glyph-name="Edotaccent" unicode="&#x116;" horiz-adv-x="577" d="M494 211 C432 79 379 34 285 35 L252 35 C197 35 182 45 182 82 C182 97 188 135 196 173 L230 333 L291 333 C342 333 355 325 355 292 C355 279 353 260 349 243 L348 235 L377 235 L426 463 L396 463 L394 456 C378 384 364 371 296 369 L237 369 L293 632 L383 632 C482 635 507 608 507 499 L538 499 L562 667 L105 667 L98 634 L106 634 C143 634 157 623 157 595 C157 578 153 546 145 511 L71 161 C47 51 34 34 -26 34 L-38 34 L-45 0 L469 0 L524 211 L494 211 Z M405 844 C367 844 332 810 332 773 C332 746 352 726 379 726 C417 726 452 760 452 797 C452 824 432 844 405 844 L405 844 Z " />
<glyph glyph-name="edotaccent" unicode="&#x117;" horiz-adv-x="418" d="M367 246 C371 260 372 272 372 287 C372 367 320 419 240 419 C112 419 -1 289 -1 143 C-1 48 60 -16 150 -16 C221 -16 291 24 329 86 L303 95 C269 47 228 22 182 22 C131 22 103 58 103 123 C103 163 108 191 123 246 L367 246 Z M130 276 C154 352 185 386 231 386 C265 386 284 363 284 323 C284 306 282 291 276 276 L130 276 Z M287 627 C255 627 225 598 225 566 C225 543 242 526 265 526 C297 526 327 555 327 587 C327 610 310 627 287 627 L287 627 Z " />
<glyph glyph-name="Eogonek" unicode="&#x118;" horiz-adv-x="577" d="M469 0 L524 211 L494 211 C432 79 379 34 285 35 L252 35 C197 35 182 45 182 82 C182 97 188 135 196 173 L230 333 L291 333 C342 333 355 325 355 292 C355 279 353 260 349 243 L348 235 L377 235 L426 463 L396 463 L394 456 C378 384 364 371 296 369 L237 369 L293 632 L383 632 C482 635 507 608 507 499 L538 499 L562 667 L105 667 L98 634 L106 634 C143 634 157 623 157 595 C157 578 153 546 145 511 L71 161 C47 51 34 34 -26 34 L-38 34 L-45 0 L365 0 C308 -30 269 -83 269 -130 C269 -173 298 -200 342 -200 C372 -200 399 -190 437 -164 L431 -147 C414 -155 406 -157 394 -157 C370 -157 354 -138 354 -110 C354 -75 371 -36 401 0 L469 0 Z " />
<glyph glyph-name="eogonek" unicode="&#x119;" horiz-adv-x="418" d="M303 95 C269 47 228 22 182 22 C131 22 103 58 103 123 C103 163 108 191 123 246 L367 246 C371 260 372 272 372 287 C372 367 320 419 240 419 C112 419 -1 289 -1 143 C-1 49 60 -16 149 -16 C153 -16 159 -16 169 -15 C128 -44 101 -88 101 -125 C101 -165 127 -191 168 -191 C196 -191 220 -182 256 -157 L251 -141 C233 -148 225 -150 213 -150 C192 -150 176 -131 176 -105 C176 -69 192 -34 226 -1 C270 18 307 49 329 86 L303 95 Z M130 276 C154 352 185 386 231 386 C265 386 284 363 284 323 C284 306 282 291 276 276 L130 276 Z " />
<glyph glyph-name="Ecaron" unicode="&#x11a;" horiz-adv-x="577" d="M494 211 C432 79 379 34 285 35 L252 35 C197 35 182 45 182 82 C182 97 188 135 196 173 L230 333 L291 333 C342 333 355 325 355 292 C355 279 353 260 349 243 L348 235 L377 235 L426 463 L396 463 L394 456 C378 384 364 371 296 369 L237 369 L293 632 L383 632 C482 635 507 608 507 499 L538 499 L562 667 L105 667 L98 634 L106 634 C143 634 157 623 157 595 C157 578 153 546 145 511 L71 161 C47 51 34 34 -26 34 L-38 34 L-45 0 L469 0 L524 211 L494 211 Z M441 727 L588 868 L563 868 L408 785 L260 868 L235 868 L320 727 L441 727 Z " />
<glyph glyph-name="ecaron" unicode="&#x11b;" horiz-adv-x="418" d="M367 246 C371 260 372 272 372 287 C372 367 320 419 240 419 C112 419 -1 289 -1 143 C-1 48 60 -16 150 -16 C221 -16 291 24 329 86 L303 95 C269 47 228 22 182 22 C131 22 103 58 103 123 C103 163 108 191 123 246 L367 246 Z M130 276 C154 352 185 386 231 386 C265 386 284 363 284 323 C284 306 282 291 276 276 L130 276 Z M191 656 L165 656 L221 492 L299 492 L421 656 L393 656 L281 562 L191 656 Z " />
<glyph glyph-name="Gcircumflex" unicode="&#x11c;" horiz-adv-x="699" d="M404 292 L397 258 L409 258 C455 257 467 248 467 215 C467 206 465 193 463 181 L458 156 C441 77 377 24 298 24 C217 24 164 84 164 175 C164 261 189 385 223 467 C269 578 345 639 436 639 C526 639 583 569 583 458 C583 450 583 445 582 434 L614 434 L660 661 L628 661 C619 632 609 611 594 588 C553 650 496 679 417 679 C312 679 215 627 138 531 C68 443 29 339 29 238 C29 86 124 -13 269 -13 C306 -13 350 -6 384 5 C463 30 497 38 527 38 C531 38 533 38 546 36 L566 130 C588 241 597 253 656 258 L663 258 L670 292 L404 292 Z M426 868 L280 727 L305 727 L460 810 L608 727 L634 727 L547 868 L426 868 Z " />
<glyph glyph-name="gcircumflex" unicode="&#x11d;" horiz-adv-x="445" d="M14 -72 L15 -70 C6 -66 0 -65 -7 -65 C-42 -65 -74 -104 -74 -149 C-74 -212 -14 -248 91 -248 C159 -248 214 -233 256 -202 C303 -167 331 -114 331 -59 C331 -23 317 7 293 21 C269 36 222 46 181 46 L166 46 L164 46 C139 47 126 47 113 48 C73 49 55 57 55 73 C55 102 87 118 152 120 C201 122 231 129 263 146 C321 178 360 242 360 306 C360 323 358 335 352 351 C367 366 378 372 388 372 C395 372 399 368 405 356 C410 343 417 338 426 338 C445 338 462 359 462 382 C462 403 449 416 427 416 C401 416 375 402 339 370 C316 402 276 419 225 419 C117 419 27 339 27 243 C27 195 52 154 91 134 C25 119 -14 80 -14 28 C-14 2 -1 -16 25 -28 C42 -35 99 -44 124 -43 C149 -42 149 -42 154 -42 C228 -42 260 -60 260 -101 C260 -169 194 -217 100 -217 C30 -217 -13 -190 -13 -145 C-13 -124 -3 -97 12 -74 L14 -72 Z M217 386 C243 386 263 361 263 327 C263 294 251 241 235 208 C220 176 193 154 168 154 C140 154 123 177 123 212 C123 240 129 275 140 305 C158 358 184 386 217 386 L217 386 Z M357 492 L384 492 L330 656 L252 656 L129 492 L155 492 L269 586 L357 492 Z " />
<glyph glyph-name="Gbreve" unicode="&#x11e;" horiz-adv-x="699" d="M404 292 L397 258 L409 258 C455 257 467 248 467 215 C467 206 465 193 463 181 L458 156 C441 77 377 24 298 24 C217 24 164 84 164 175 C164 261 189 385 223 467 C269 578 345 639 436 639 C526 639 583 569 583 458 C583 450 583 445 582 434 L614 434 L660 661 L628 661 C619 632 609 611 594 588 C553 650 496 679 417 679 C312 679 215 627 138 531 C68 443 29 339 29 238 C29 86 124 -13 269 -13 C306 -13 350 -6 384 5 C463 30 497 38 527 38 C531 38 533 38 546 36 L566 130 C588 241 597 253 656 258 L663 258 L670 292 L404 292 Z M298 871 C300 775 353 715 435 715 C520 715 603 779 640 871 L611 871 C576 826 515 799 451 799 C391 799 352 822 328 871 L298 871 Z " />
<glyph glyph-name="gbreve" unicode="&#x11f;" horiz-adv-x="445" d="M14 -72 L15 -70 C6 -66 0 -65 -7 -65 C-42 -65 -74 -104 -74 -149 C-74 -212 -14 -248 91 -248 C159 -248 214 -233 256 -202 C303 -167 331 -114 331 -59 C331 -23 317 7 293 21 C269 36 222 46 181 46 L166 46 L164 46 C139 47 126 47 113 48 C73 49 55 57 55 73 C55 102 87 118 152 120 C201 122 231 129 263 146 C321 178 360 242 360 306 C360 323 358 335 352 351 C367 366 378 372 388 372 C395 372 399 368 405 356 C410 343 417 338 426 338 C445 338 462 359 462 382 C462 403 449 416 427 416 C401 416 375 402 339 370 C316 402 276 419 225 419 C117 419 27 339 27 243 C27 195 52 154 91 134 C25 119 -14 80 -14 28 C-14 2 -1 -16 25 -28 C42 -35 99 -44 124 -43 C149 -42 149 -42 154 -42 C228 -42 260 -60 260 -101 C260 -169 194 -217 100 -217 C30 -217 -13 -190 -13 -145 C-13 -124 -3 -97 12 -74 L14 -72 Z M217 386 C243 386 263 361 263 327 C263 294 251 241 235 208 C220 176 193 154 168 154 C140 154 123 177 123 212 C123 240 129 275 140 305 C158 358 184 386 217 386 L217 386 Z M151 649 C149 641 148 635 148 628 C148 547 188 499 254 499 C328 499 396 561 421 649 L399 649 C370 598 330 575 273 575 C211 575 178 600 173 649 L151 649 Z " />
<glyph glyph-name="Gdotaccent" unicode="&#x120;" horiz-adv-x="699" d="M404 292 L397 258 L409 258 C455 257 467 248 467 215 C467 206 465 193 463 181 L458 156 C441 77 377 24 298 24 C217 24 164 84 164 175 C164 261 189 385 223 467 C269 578 345 639 436 639 C526 639 583 569 583 458 C583 450 583 445 582 434 L614 434 L660 661 L628 661 C619 632 609 611 594 588 C553 650 496 679 417 679 C312 679 215 627 138 531 C68 443 29 339 29 238 C29 86 124 -13 269 -13 C306 -13 350 -6 384 5 C463 30 497 38 527 38 C531 38 533 38 546 36 L566 130 C588 241 597 253 656 258 L663 258 L670 292 L404 292 Z M463 844 C425 844 389 810 389 773 C389 746 409 726 437 726 C475 726 510 760 510 797 C510 824 490 844 463 844 L463 844 Z " />
<glyph glyph-name="gdotaccent" unicode="&#x121;" horiz-adv-x="445" d="M14 -72 L15 -70 C6 -66 0 -65 -7 -65 C-42 -65 -74 -104 -74 -149 C-74 -212 -14 -248 91 -248 C159 -248 214 -233 256 -202 C303 -167 331 -114 331 -59 C331 -23 317 7 293 21 C269 36 222 46 181 46 L166 46 L164 46 C139 47 126 47 113 48 C73 49 55 57 55 73 C55 102 87 118 152 120 C201 122 231 129 263 146 C321 178 360 242 360 306 C360 323 358 335 352 351 C367 366 378 372 388 372 C395 372 399 368 405 356 C410 343 417 338 426 338 C445 338 462 359 462 382 C462 403 449 416 427 416 C401 416 375 402 339 370 C316 402 276 419 225 419 C117 419 27 339 27 243 C27 195 52 154 91 134 C25 119 -14 80 -14 28 C-14 2 -1 -16 25 -28 C42 -35 99 -44 124 -43 C149 -42 149 -42 154 -42 C228 -42 260 -60 260 -101 C260 -169 194 -217 100 -217 C30 -217 -13 -190 -13 -145 C-13 -124 -3 -97 12 -74 L14 -72 Z M217 386 C243 386 263 361 263 327 C263 294 251 241 235 208 C220 176 193 154 168 154 C140 154 123 177 123 212 C123 240 129 275 140 305 C158 358 184 386 217 386 L217 386 Z M282 627 C249 627 219 598 219 566 C219 543 236 526 259 526 C292 526 322 555 322 587 C322 610 305 627 282 627 L282 627 Z " />
<glyph glyph-name="Gcommaaccent" unicode="&#x122;" horiz-adv-x="699" d="M404 292 L397 258 L409 258 C455 257 467 248 467 215 C467 206 465 193 463 181 L458 156 C441 77 377 24 298 24 C217 24 164 84 164 175 C164 261 189 385 223 467 C269 578 345 639 436 639 C526 639 583 569 583 458 C583 450 583 445 582 434 L614 434 L660 661 L628 661 C619 632 609 611 594 588 C553 650 496 679 417 679 C312 679 215 627 138 531 C68 443 29 339 29 238 C29 86 124 -13 269 -13 C306 -13 350 -6 384 5 C463 30 497 38 527 38 C531 38 533 38 546 36 L566 130 C588 241 597 253 656 258 L663 258 L670 292 L404 292 Z M152 -304 C243 -288 308 -217 308 -131 C308 -86 286 -59 248 -59 C208 -59 173 -94 173 -135 C173 -158 190 -176 212 -176 C219 -176 222 -175 234 -173 C239 -171 241 -171 243 -171 C251 -171 256 -177 256 -188 C256 -223 214 -259 159 -271 L152 -304 Z " />
<glyph glyph-name="gcommaaccent" unicode="&#x123;" horiz-adv-x="445" d="M14 -72 L15 -70 C6 -66 0 -65 -7 -65 C-42 -65 -74 -104 -74 -149 C-74 -212 -14 -248 91 -248 C159 -248 214 -233 256 -202 C303 -167 331 -114 331 -59 C331 -23 317 7 293 21 C269 36 222 46 181 46 L166 46 L164 46 C139 47 126 47 113 48 C73 49 55 57 55 73 C55 102 87 118 152 120 C201 122 231 129 263 146 C321 178 360 242 360 306 C360 323 358 335 352 351 C367 366 378 372 388 372 C395 372 399 368 405 356 C410 343 417 338 426 338 C445 338 462 359 462 382 C462 403 449 416 427 416 C401 416 375 402 339 370 C316 402 276 419 225 419 C117 419 27 339 27 243 C27 195 52 154 91 134 C25 119 -14 80 -14 28 C-14 2 -1 -16 25 -28 C42 -35 99 -44 124 -43 C149 -42 149 -42 154 -42 C228 -42 260 -60 260 -101 C260 -169 194 -217 100 -217 C30 -217 -13 -190 -13 -145 C-13 -124 -3 -97 12 -74 L14 -72 Z M217 386 C243 386 263 361 263 327 C263 294 251 241 235 208 C220 176 193 154 168 154 C140 154 123 177 123 212 C123 240 129 275 140 305 C158 358 184 386 217 386 L217 386 Z M334 679 C249 665 189 597 189 516 C189 474 210 449 244 449 C281 449 313 482 313 521 C313 543 298 559 277 559 C272 559 265 558 257 556 C252 554 251 554 249 554 C242 554 237 560 237 570 C237 603 276 637 327 648 L334 679 Z " />
<glyph glyph-name="Hcircumflex" unicode="&#x124;" horiz-adv-x="737" d="M507 330 L471 161 C448 52 434 33 375 33 L359 26 L354 0 L640 0 L647 33 L636 33 C598 33 581 46 581 74 L581 77 C581 79 581 80 582 85 C582 99 586 125 594 161 L668 511 C692 621 703 634 767 634 L774 634 L782 667 L496 667 L488 634 L500 634 C544 634 558 625 558 596 C558 582 552 540 546 511 L516 373 L238 373 L267 511 C292 621 302 634 366 634 L374 634 L381 667 L97 667 L90 634 L99 634 C147 634 157 626 157 590 C157 572 155 557 145 511 L71 161 C47 52 34 34 -26 33 L-38 33 L-45 0 L239 0 L246 33 L235 33 C194 33 180 45 180 77 C180 91 185 123 193 161 L229 330 L507 330 Z M428 868 L282 727 L308 727 L463 810 L610 727 L636 727 L550 868 L428 868 Z " />
<glyph glyph-name="Hbar" unicode="&#x126;" horiz-adv-x="737" d="M129 437 L71 161 C47 52 34 34 -26 33 L-38 33 L-45 0 L239 0 L246 33 L235 33 C194 33 180 45 180 77 C180 91 185 123 193 161 L229 330 L507 330 L471 161 C448 52 434 33 375 33 L359 26 L354 0 L640 0 L647 33 L636 33 C598 33 581 46 581 74 L581 77 C581 79 581 80 582 85 C582 98 586 125 594 161 L652 437 L716 437 L725 480 L662 480 L668 511 C692 621 703 634 767 634 L774 634 L782 667 L496 667 L488 634 L500 634 C544 634 558 625 558 596 C558 582 552 540 546 511 L539 480 L261 480 L267 511 C292 621 302 634 366 634 L374 634 L381 667 L97 667 L90 634 L99 634 C147 634 157 626 157 590 C157 572 155 557 145 511 L138 480 L74 480 L64 437 L129 437 Z M252 437 L530 437 L516 373 L238 373 L252 437 Z " />
<glyph glyph-name="hbar" unicode="&#x127;" horiz-adv-x="504" d="M223 550 L250 677 L241 677 C222 670 200 665 175 662 L137 658 L111 655 C107 654 100 653 89 650 L82 618 L87 618 C113 618 127 607 127 588 C127 578 126 568 122 550 L68 550 L59 507 L113 507 L33 131 C15 44 8 34 -37 33 L-44 33 L-51 0 L154 0 L161 33 L158 33 C132 34 123 41 122 60 L122 61 L122 63 L122 73 C122 75 127 97 134 131 L168 291 C170 293 170 293 174 299 C203 342 244 371 277 371 C307 371 327 353 327 327 C327 314 324 290 318 264 L290 131 C271 43 267 36 224 33 L217 33 L210 0 L418 0 L425 33 L419 33 C392 33 380 41 380 60 C380 71 385 102 391 131 L416 251 C425 294 428 311 428 329 C428 353 423 371 412 385 C395 406 363 419 330 419 C276 419 226 393 178 340 L214 507 L372 507 L381 550 L223 550 Z " />
<glyph glyph-name="Imacron" unicode="&#x12a;" horiz-adv-x="341" d="M90 634 L100 634 C145 634 159 625 159 596 C159 583 153 541 146 511 L72 161 C49 52 36 34 -25 33 L-38 33 L-45 0 L244 0 L251 33 L237 33 C197 33 182 45 182 77 C182 91 187 127 195 161 L269 511 C293 622 303 634 368 634 L378 634 L386 667 L97 667 L90 634 Z M419 801 L121 801 L111 758 L410 758 L419 801 Z " />
<glyph glyph-name="imacron" unicode="&#x12b;" horiz-adv-x="249" d="M19 357 L30 357 C63 357 73 349 73 323 C73 312 69 285 64 262 L37 131 C18 47 8 33 -37 33 L-50 33 L-57 0 L163 0 L170 33 L164 33 C136 33 124 41 124 61 C124 74 128 100 135 131 L196 419 L187 419 C154 410 60 392 26 389 L19 357 Z M36 547 L275 547 L284 590 L45 590 L36 547 Z " />
<glyph glyph-name="ibreve" unicode="&#x12d;" horiz-adv-x="249" d="M19 357 L30 357 C63 357 73 349 73 323 C73 312 69 285 64 262 L37 131 C18 47 8 33 -37 33 L-50 33 L-57 0 L163 0 L170 33 L164 33 C136 33 124 41 124 61 C124 74 128 100 135 131 L196 419 L187 419 C154 410 60 392 26 389 L19 357 Z M55 649 C53 641 52 636 52 629 C52 548 92 499 158 499 C231 499 300 561 325 649 L303 649 C274 599 233 575 177 575 C114 575 81 599 76 649 L55 649 Z " />
<glyph glyph-name="Iogonek" unicode="&#x12e;" horiz-adv-x="341" d="M244 0 L251 33 L237 33 C197 33 182 45 182 77 C182 91 187 127 195 161 L269 511 C293 622 303 634 368 634 L378 634 L386 667 L97 667 L90 634 L100 634 C145 634 159 625 159 596 C159 583 153 541 146 511 L72 161 C49 52 36 34 -25 33 L-38 33 L-45 0 L134 0 C77 -30 38 -83 38 -130 C38 -173 67 -200 111 -200 C141 -200 168 -190 206 -164 L200 -147 C183 -155 175 -157 163 -157 C139 -157 123 -138 123 -110 C123 -75 140 -36 170 0 L244 0 Z " />
<glyph glyph-name="iogonek" unicode="&#x12f;" horiz-adv-x="249" d="M163 0 L170 33 L164 33 C136 33 124 41 124 61 C124 74 128 100 135 131 L196 419 L187 419 C154 410 60 392 26 389 L19 357 L30 357 C63 357 73 349 73 323 C73 312 69 285 64 262 L37 131 C18 47 8 33 -37 33 L-50 33 L-57 0 L71 0 C15 -29 -22 -79 -22 -125 C-22 -165 4 -191 45 -191 C72 -191 97 -182 132 -157 L127 -141 C110 -148 101 -150 90 -150 C68 -150 53 -132 53 -104 C53 -67 68 -36 103 0 L163 0 Z M196 677 C155 677 117 640 117 599 C117 570 138 549 168 549 C209 549 247 586 247 627 C247 656 226 677 196 677 L196 677 Z " />
<glyph glyph-name="Idotaccent" unicode="&#x130;" horiz-adv-x="341" d="M90 634 L100 634 C145 634 159 625 159 596 C159 583 153 541 146 511 L72 161 C49 52 36 34 -25 33 L-38 33 L-45 0 L244 0 L251 33 L237 33 C197 33 182 45 182 77 C182 91 187 127 195 161 L269 511 C293 622 303 634 368 634 L378 634 L386 667 L97 667 L90 634 Z M280 844 C242 844 206 810 206 773 C206 746 226 726 253 726 C292 726 327 760 327 797 C327 824 307 844 280 844 L280 844 Z " />
<glyph glyph-name="dotlessi" unicode="&#x131;" horiz-adv-x="249" d="M19 357 L30 357 C63 357 73 349 73 323 C73 312 69 285 64 262 L37 131 C18 47 8 33 -37 33 L-50 33 L-57 0 L163 0 L170 33 L164 33 C136 33 124 41 124 61 C124 74 128 100 135 131 L196 419 L187 419 C154 410 60 392 26 389 L19 357 Z " />
<glyph glyph-name="Kcommaaccent" unicode="&#x136;" horiz-adv-x="688" d="M233 333 L270 511 C295 621 305 634 369 634 L379 634 L386 667 L102 667 L95 634 L102 634 C150 633 158 628 160 595 L160 594 L148 511 L74 161 C50 52 37 34 -23 33 L-38 33 L-45 0 L239 0 L246 33 L238 33 C198 33 183 45 183 77 C183 91 188 123 196 161 L222 285 L278 334 L387 145 L391 137 C392 135 397 126 403 117 C414 99 422 80 422 71 C422 45 397 33 344 33 L334 33 L327 0 L650 0 L657 33 L651 34 C597 36 579 53 521 153 L372 413 L482 506 C604 609 636 628 696 634 L702 634 L709 667 L470 667 L463 634 L468 634 C499 633 516 623 516 603 C516 582 499 561 441 511 L233 333 Z M138 -304 C229 -289 294 -217 294 -131 C294 -86 272 -59 235 -59 C194 -59 160 -94 160 -135 C160 -158 177 -176 199 -176 C205 -176 210 -175 221 -173 C226 -171 228 -171 230 -171 C238 -171 243 -177 243 -187 L243 -188 L243 -192 C244 -199 229 -225 219 -235 C201 -252 176 -264 145 -271 L138 -304 Z " />
<glyph glyph-name="kcommaaccent" unicode="&#x137;" horiz-adv-x="453" d="M269 403 L262 370 L268 370 C286 370 295 365 295 354 C295 339 276 319 236 291 C225 283 215 276 207 269 L150 224 L246 677 L238 677 C219 670 198 666 171 662 L134 658 L108 655 C104 654 97 653 87 650 L80 618 L86 618 C111 618 124 608 124 589 C124 581 120 557 116 536 L30 131 C11 43 5 35 -39 33 L-51 33 L-58 0 L147 0 L154 33 L152 33 C129 33 118 42 118 59 C118 68 123 94 130 131 L142 184 L167 205 L221 95 C236 65 236 65 236 57 C236 42 221 33 196 33 L192 33 L185 0 L384 0 L391 33 L387 33 C363 37 351 51 323 102 L241 260 C264 276 268 279 286 293 C357 348 397 369 430 370 L434 370 L441 403 L269 403 Z M41 -289 C125 -275 185 -207 185 -126 C185 -84 164 -59 130 -59 C93 -59 61 -92 61 -131 C61 -153 76 -169 97 -169 C102 -169 110 -168 118 -166 C123 -164 124 -164 126 -164 C133 -164 138 -170 138 -180 C138 -213 99 -247 48 -258 L41 -289 Z " />
<glyph glyph-name="Lacute" unicode="&#x139;" horiz-adv-x="564" d="M525 205 L495 205 C433 72 384 32 286 35 L252 35 C200 35 181 45 181 75 C181 85 187 122 193 151 L270 511 C294 621 304 634 369 634 L389 634 L396 667 L97 667 L90 634 L101 634 C146 634 160 625 160 596 C160 584 154 542 147 511 L73 161 C50 52 36 34 -24 33 L-38 33 L-45 0 L477 0 L525 205 Z M250 728 L277 728 L538 859 L539 863 L380 863 L250 728 Z " />
<glyph glyph-name="lacute" unicode="&#x13a;" horiz-adv-x="243" d="M80 618 L89 618 C113 618 125 608 125 590 C125 581 121 555 116 532 L31 131 C12 41 8 35 -36 33 L-48 33 L-55 0 L158 0 L165 33 L157 33 C131 33 120 40 119 58 L119 59 C120 60 120 61 120 61 C120 64 120 67 119 72 C122 88 124 96 132 131 L248 677 L239 677 C217 669 126 653 87 650 L80 618 Z M155 728 L182 728 L443 859 L444 863 L285 863 L155 728 Z " />
<glyph glyph-name="Lcommaaccent" unicode="&#x13b;" horiz-adv-x="564" d="M525 205 L495 205 C433 72 384 32 286 35 L252 35 C200 35 181 45 181 75 C181 85 187 122 193 151 L270 511 C294 621 304 634 369 634 L389 634 L396 667 L97 667 L90 634 L101 634 C146 634 160 625 160 596 C160 584 154 542 147 511 L73 161 C50 52 36 34 -24 33 L-38 33 L-45 0 L477 0 L525 205 Z M107 -304 C197 -289 262 -216 262 -131 C262 -86 240 -59 203 -59 C162 -59 128 -94 128 -135 C128 -158 145 -176 167 -176 C173 -176 177 -175 189 -173 C194 -171 196 -171 198 -171 C206 -171 211 -177 211 -187 L211 -188 C208 -226 167 -261 114 -271 L107 -304 Z " />
<glyph glyph-name="lcommaaccent" unicode="&#x13c;" horiz-adv-x="243" d="M79 618 L88 618 C112 618 124 608 124 590 C124 581 120 554 115 532 L30 131 C11 41 7 35 -37 33 L-49 33 L-56 0 L157 0 L164 33 L156 33 C131 33 119 40 118 58 L118 59 C119 60 119 61 119 61 L118 72 L131 131 L247 677 L238 677 C217 669 126 653 86 650 L79 618 Z M-59 -289 C25 -275 85 -207 85 -126 C85 -84 64 -59 30 -59 C-7 -59 -39 -92 -39 -131 C-39 -153 -23 -169 -3 -169 C3 -169 7 -168 18 -166 C22 -164 24 -164 26 -164 C33 -164 38 -170 38 -180 C38 -213 -1 -247 -52 -258 L-59 -289 Z " />
<glyph glyph-name="Lcaron" unicode="&#x13d;" horiz-adv-x="564" d="M525 205 L495 205 C433 72 384 32 286 35 L252 35 C200 35 181 45 181 75 C181 85 187 122 193 151 L270 511 C294 621 304 634 369 634 L389 634 L396 667 L97 667 L90 634 L101 634 C146 634 160 625 160 596 C160 584 154 542 147 511 L73 161 C50 52 36 34 -24 33 L-38 33 L-45 0 L477 0 L525 205 Z M386 422 C476 438 541 510 541 595 C541 640 519 667 482 667 C441 667 407 632 407 591 C407 568 424 550 446 550 C453 550 456 551 468 553 C473 555 475 555 477 555 C485 555 490 549 490 538 C490 503 448 467 393 455 L386 422 Z " />
<glyph glyph-name="lcaron" unicode="&#x13e;" horiz-adv-x="337" d="M80 618 L89 618 C113 618 125 608 125 590 C125 581 121 555 116 532 L31 131 C12 41 8 35 -36 33 L-48 33 L-55 0 L158 0 L165 33 L157 33 C131 33 120 40 119 58 L119 59 C120 60 120 61 120 61 C120 64 120 67 119 72 C122 88 124 96 132 131 L248 677 L239 677 C217 669 126 653 87 650 L80 618 Z M246 447 C330 462 390 530 390 610 C390 652 369 677 335 677 C298 677 266 644 266 606 C266 584 281 568 302 568 C308 568 311 568 322 571 C327 572 328 572 330 572 C337 572 342 566 342 556 C342 523 303 489 252 478 L246 447 Z " />
<glyph glyph-name="Ldot" unicode="&#x13f;" horiz-adv-x="564" d="M525 205 L495 205 C433 72 384 32 286 35 L252 35 C200 35 181 45 181 75 C181 85 187 122 193 151 L270 511 C294 621 304 634 369 634 L389 634 L396 667 L97 667 L90 634 L101 634 C146 634 160 625 160 596 C160 584 154 542 147 511 L73 161 C50 52 36 34 -24 33 L-38 33 L-45 0 L477 0 L525 205 Z M377 377 C344 377 314 348 314 316 C314 293 331 276 354 276 C387 276 417 305 417 337 C417 360 400 377 377 377 L377 377 Z " />
<glyph glyph-name="ldot" unicode="&#x140;" horiz-adv-x="310" d="M80 618 L89 618 C113 618 125 608 125 590 C125 581 121 555 116 532 L31 131 C12 41 8 35 -36 33 L-48 33 L-55 0 L158 0 L165 33 L157 33 C131 33 120 40 119 58 L119 59 C120 60 120 61 120 61 C120 64 120 67 119 72 C122 88 124 96 132 131 L248 677 L239 677 C217 669 126 653 87 650 L80 618 Z M278 379 C245 379 215 350 215 318 C215 295 232 278 255 278 C288 278 318 307 318 339 C318 362 301 379 278 379 L278 379 Z " />
<glyph glyph-name="Lslash" unicode="&#x141;" horiz-adv-x="564" d="M-38 33 L-45 0 L477 0 L525 205 L495 205 C440 78 382 31 286 35 L252 35 C200 35 181 45 181 75 C181 85 187 121 193 151 L235 347 L366 446 L376 492 L245 393 L270 511 C294 621 304 634 369 634 L389 634 L396 667 L97 667 L90 634 L101 634 C146 634 160 625 160 596 C160 584 154 543 147 511 L99 287 L7 216 L-3 170 L90 241 L73 161 C50 51 36 34 -24 33 L-38 33 Z " />
<glyph glyph-name="lslash" unicode="&#x142;" horiz-adv-x="245" d="M79 618 L87 618 C112 618 124 608 124 589 C124 581 120 558 115 532 L63 288 L-6 235 L-15 191 L54 244 L30 131 C11 41 7 35 -37 33 L-49 33 L-56 0 L157 0 L164 33 L156 33 C129 33 118 41 118 60 C118 68 123 97 130 131 L174 337 L242 391 L251 434 L183 381 L246 677 L237 677 C216 669 125 653 85 650 L79 618 Z " />
<glyph glyph-name="Nacute" unicode="&#x143;" horiz-adv-x="694" d="M514 -14 L628 525 C641 597 667 623 733 633 L741 634 L748 667 L524 667 L517 634 L527 634 C570 633 598 612 598 579 C598 564 596 547 593 530 L519 183 L280 667 L95 667 L88 634 L92 634 C141 634 156 623 156 589 C156 566 152 536 145 504 L71 155 C55 64 38 45 -39 33 L-44 33 L-51 0 L172 0 L179 33 L171 33 L169 33 L164 33 C129 33 98 60 98 89 C98 97 104 133 108 155 L195 565 L479 -14 L514 -14 Z M392 728 L419 728 L680 859 L681 863 L521 863 L392 728 Z " />
<glyph glyph-name="nacute" unicode="&#x144;" horiz-adv-x="504" d="M34 388 L27 356 L32 356 C60 356 70 348 70 328 C70 312 66 283 61 259 L34 131 C15 44 9 34 -36 33 L-41 33 L-48 0 L156 0 L163 33 C133 33 123 40 123 62 C123 73 126 93 134 131 L169 293 C214 348 247 370 282 370 C311 370 328 351 328 320 C328 307 328 303 326 295 L291 131 C273 44 268 37 225 33 L218 33 L212 0 L418 0 L424 33 L420 33 C393 33 381 41 381 60 C381 71 386 101 392 131 L420 262 C428 298 430 315 430 332 C430 385 394 419 339 419 C284 419 231 393 179 341 C183 363 185 380 185 397 C185 404 185 407 184 415 L173 415 C139 406 110 400 86 397 C80 396 72 395 62 393 L34 388 Z M255 490 L280 490 L509 651 L510 655 L384 655 L255 490 Z " />
<glyph glyph-name="Ncommaaccent" unicode="&#x145;" horiz-adv-x="694" d="M514 -14 L628 525 C641 597 667 623 733 633 L741 634 L748 667 L524 667 L517 634 L527 634 C570 633 598 612 598 579 C598 564 596 547 593 530 L519 183 L280 667 L95 667 L88 634 L92 634 C141 634 156 623 156 589 C156 566 152 536 145 504 L71 155 C55 64 38 45 -39 33 L-44 33 L-51 0 L172 0 L179 33 L171 33 L169 33 L164 33 C129 33 98 60 98 89 C98 97 104 133 108 155 L195 565 L479 -14 L514 -14 Z M160 -304 C250 -289 315 -217 315 -131 C315 -86 293 -59 256 -59 C215 -59 181 -94 181 -135 C181 -158 198 -176 220 -176 C226 -176 230 -175 242 -173 C247 -171 249 -171 252 -171 C259 -171 264 -177 264 -187 L264 -188 C260 -227 220 -260 167 -271 L160 -304 Z " />
<glyph glyph-name="ncommaaccent" unicode="&#x146;" horiz-adv-x="504" d="M34 388 L27 356 L32 356 C60 356 70 348 70 328 C70 312 66 283 61 259 L34 131 C15 44 9 34 -36 33 L-41 33 L-48 0 L156 0 L163 33 C133 33 123 40 123 62 C123 73 126 93 134 131 L169 293 C214 348 247 370 282 370 C311 370 328 351 328 320 C328 307 328 303 326 295 L291 131 C273 44 268 37 225 33 L218 33 L212 0 L418 0 L424 33 L420 33 C393 33 381 41 381 60 C381 71 386 101 392 131 L420 262 C428 298 430 315 430 332 C430 385 394 419 339 419 C284 419 231 393 179 341 C183 363 185 380 185 397 C185 404 185 407 184 415 L173 415 C139 406 110 400 86 397 C80 396 72 395 62 393 L34 388 Z M77 -289 C161 -275 221 -207 221 -126 C221 -84 200 -59 166 -59 C129 -59 97 -92 97 -131 C97 -153 112 -169 133 -169 C138 -169 146 -168 154 -166 C159 -164 160 -164 162 -164 C169 -164 174 -170 174 -180 C174 -213 135 -247 84 -258 L77 -289 Z " />
<glyph glyph-name="Ncaron" unicode="&#x147;" horiz-adv-x="694" d="M514 -14 L628 525 C641 597 667 623 733 633 L741 634 L748 667 L524 667 L517 634 L527 634 C570 633 598 612 598 579 C598 564 596 547 593 530 L519 183 L280 667 L95 667 L88 634 L92 634 C141 634 156 623 156 589 C156 566 152 536 145 504 L71 155 C55 64 38 45 -39 33 L-44 33 L-51 0 L172 0 L179 33 L171 33 L169 33 L164 33 C129 33 98 60 98 89 C98 97 104 133 108 155 L195 565 L479 -14 L514 -14 Z M497 727 L645 868 L619 868 L464 785 L317 868 L291 868 L376 727 L497 727 Z " />
<glyph glyph-name="ncaron" unicode="&#x148;" horiz-adv-x="504" d="M34 388 L27 356 L32 356 C60 356 70 348 70 328 C70 312 66 283 61 259 L34 131 C15 44 9 34 -36 33 L-41 33 L-48 0 L156 0 L163 33 C133 33 123 40 123 62 C123 73 126 93 134 131 L169 293 C214 348 247 370 282 370 C311 370 328 351 328 320 C328 307 328 303 326 295 L291 131 C273 44 268 37 225 33 L218 33 L212 0 L418 0 L424 33 L420 33 C393 33 381 41 381 60 C381 71 386 101 392 131 L420 262 C428 298 430 315 430 332 C430 385 394 419 339 419 C284 419 231 393 179 341 C183 363 185 380 185 397 C185 404 185 407 184 415 L173 415 C139 406 110 400 86 397 C80 396 72 395 62 393 L34 388 Z M226 656 L200 656 L257 492 L334 492 L456 656 L428 656 L317 562 L226 656 Z " />
<glyph glyph-name="Omacron" unicode="&#x14c;" horiz-adv-x="740" d="M447 679 C217 679 31 485 31 245 C31 86 132 -13 295 -13 C523 -13 708 182 708 422 C708 482 694 535 666 575 C622 640 540 679 447 679 L447 679 Z M436 641 C522 641 570 579 570 470 C570 344 526 191 467 112 C426 57 366 25 307 25 C217 25 168 83 168 187 C168 339 230 523 302 586 C344 624 387 641 436 641 L436 641 Z M618 801 L320 801 L311 758 L609 758 L618 801 Z " />
<glyph glyph-name="omacron" unicode="&#x14d;" horiz-adv-x="471" d="M256 419 C116 419 -1 293 -1 143 C-1 49 64 -16 159 -16 C299 -16 416 108 416 257 C416 353 351 419 256 419 L256 419 Z M247 385 C287 385 312 354 312 304 C312 241 289 140 261 83 C241 42 206 17 170 17 C126 17 104 46 104 104 C104 144 116 209 132 261 C160 347 196 385 247 385 L247 385 Z M152 547 L419 547 L428 590 L162 590 L152 547 Z " />
<glyph glyph-name="Ohungarumlaut" unicode="&#x150;" horiz-adv-x="740" d="M447 679 C217 679 31 485 31 245 C31 86 132 -13 295 -13 C523 -13 708 182 708 422 C708 482 694 535 666 575 C622 640 540 679 447 679 L447 679 Z M436 641 C522 641 570 579 570 470 C570 344 526 191 467 112 C426 57 366 25 307 25 C217 25 168 83 168 187 C168 339 230 523 302 586 C344 624 387 641 436 641 L436 641 Z M350 728 L377 728 L625 859 L626 863 L479 863 L350 728 Z M522 728 L549 728 L797 859 L798 863 L651 863 L522 728 Z " />
<glyph glyph-name="ohungarumlaut" unicode="&#x151;" horiz-adv-x="471" d="M256 419 C116 419 -1 293 -1 143 C-1 49 64 -16 159 -16 C299 -16 416 108 416 257 C416 353 351 419 256 419 L256 419 Z M247 385 C287 385 312 354 312 304 C312 241 289 140 261 83 C241 42 206 17 170 17 C126 17 104 46 104 104 C104 144 116 209 132 261 C160 347 196 385 247 385 L247 385 Z M178 490 L204 490 L421 651 L421 655 L307 655 L178 490 Z M329 490 L354 490 L571 651 L572 655 L458 655 L329 490 Z " />
<glyph glyph-name="OE" unicode="&#x152;" horiz-adv-x="861" d="M812 213 L782 213 C754 144 717 87 685 62 C666 47 626 35 597 35 L594 35 L587 35 C574 35 573 35 558 36 L546 36 C499 37 488 44 488 74 C488 90 492 116 505 177 L539 334 L597 334 C637 334 650 324 650 294 C650 284 648 265 643 243 L642 236 L671 236 L720 468 L692 468 L690 460 C669 383 657 370 606 369 L546 369 L602 632 L701 632 C772 636 790 611 794 502 L824 502 L848 667 L542 667 L490 668 C446 670 446 670 433 670 C311 670 211 621 133 523 C67 441 31 343 31 246 C31 90 125 -2 284 -2 C292 -2 308 -2 324 -1 C368 0 384 0 436 0 L427 0 L757 0 L812 213 Z M383 177 L374 136 C359 61 335 35 282 35 C208 35 168 94 168 202 C168 303 195 418 238 497 C286 586 348 634 415 634 C449 634 469 621 469 598 C469 585 467 574 459 536 L383 177 Z " />
<glyph glyph-name="oe" unicode="&#x153;" horiz-adv-x="714" d="M599 96 C567 50 521 22 474 22 C420 22 385 63 385 127 C385 162 393 204 407 247 L663 247 C665 257 666 264 666 275 C666 363 615 419 535 419 C483 419 435 397 386 352 C358 394 309 419 255 419 C120 419 -1 290 -1 146 C-1 50 63 -16 157 -16 C218 -16 277 9 324 57 C346 11 393 -16 447 -16 C513 -16 585 24 621 81 L599 96 Z M416 277 C438 345 478 386 522 386 C557 386 578 359 578 316 C578 303 577 294 574 277 L416 277 Z M250 386 C295 386 321 354 321 301 C321 251 298 151 274 94 C254 48 212 16 170 16 C125 16 100 48 100 105 C100 161 126 266 152 319 C172 359 212 386 250 386 L250 386 Z " />
<glyph glyph-name="Racute" unicode="&#x154;" horiz-adv-x="640" d="M601 0 L608 33 L603 33 C549 36 519 68 474 173 C439 258 405 318 383 332 C443 346 482 364 513 393 C552 430 576 483 576 534 C576 630 497 674 324 674 C291 674 178 672 160 671 L100 667 L92 634 L103 634 C151 633 159 628 162 595 L162 594 L149 511 L75 161 C52 52 38 34 -22 33 L-38 33 L-45 0 L254 0 L262 33 L240 33 C199 33 184 45 184 77 C184 90 189 122 197 161 L229 312 L232 312 C295 316 301 309 352 166 C378 90 408 26 431 0 L601 0 Z M298 635 C311 636 319 636 330 636 C411 636 444 611 444 548 C444 511 435 468 419 433 C401 396 380 374 346 360 C326 352 290 348 237 348 L298 635 Z M319 728 L345 728 L607 859 L608 863 L448 863 L319 728 Z " />
<glyph glyph-name="racute" unicode="&#x155;" horiz-adv-x="362" d="M27 353 L34 353 C60 353 73 344 73 326 C73 314 68 281 62 254 L36 131 C17 43 11 34 -34 33 L-41 33 L-48 0 L170 0 L177 33 L167 33 C139 33 127 41 127 61 C127 76 131 102 137 131 L150 194 C164 260 174 284 200 317 C222 345 245 362 262 362 C272 362 278 355 283 339 C290 312 297 303 313 303 C340 303 363 332 363 364 C363 397 342 419 311 419 C265 419 209 378 172 317 C177 347 179 368 179 390 C179 403 179 407 177 419 C115 402 63 390 33 386 L27 353 Z M200 490 L225 490 L455 651 L456 655 L329 655 L200 490 Z " />
<glyph glyph-name="Rcommaaccent" unicode="&#x156;" horiz-adv-x="640" d="M601 0 L608 33 L603 33 C549 36 519 68 474 173 C439 258 405 318 383 332 C443 346 482 364 513 393 C552 430 576 483 576 534 C576 630 497 674 324 674 C291 674 178 672 160 671 L100 667 L92 634 L103 634 C151 633 159 628 162 595 L162 594 L149 511 L75 161 C52 52 38 34 -22 33 L-38 33 L-45 0 L254 0 L262 33 L240 33 C199 33 184 45 184 77 C184 90 189 122 197 161 L229 312 L232 312 C295 316 301 309 352 166 C378 90 408 26 431 0 L601 0 Z M298 635 C311 636 319 636 330 636 C411 636 444 611 444 548 C444 511 435 468 419 433 C401 396 380 374 346 360 C326 352 290 348 237 348 L298 635 Z M120 -304 C211 -289 276 -217 276 -131 C276 -86 254 -59 217 -59 C176 -59 142 -94 142 -135 C142 -158 159 -176 181 -176 C187 -176 192 -175 203 -173 C208 -171 210 -171 212 -171 C220 -171 225 -177 225 -187 L225 -188 L225 -192 C226 -199 211 -225 201 -235 C183 -252 158 -264 127 -271 L120 -304 Z " />
<glyph glyph-name="rcommaaccent" unicode="&#x157;" horiz-adv-x="362" d="M27 353 L34 353 C60 353 73 344 73 326 C73 314 68 281 62 254 L36 131 C17 43 11 34 -34 33 L-41 33 L-48 0 L170 0 L177 33 L167 33 C139 33 127 41 127 61 C127 76 131 102 137 131 L150 194 C164 260 174 284 200 317 C222 345 245 362 262 362 C272 362 278 355 283 339 C290 312 297 303 313 303 C340 303 363 332 363 364 C363 397 342 419 311 419 C265 419 209 378 172 317 C177 347 179 368 179 390 C179 403 179 407 177 419 C115 402 63 390 33 386 L27 353 Z M-45 -289 C40 -275 100 -207 100 -126 C100 -84 79 -59 45 -59 C8 -59 -24 -92 -24 -131 C-24 -153 -9 -169 12 -169 C17 -169 24 -168 32 -166 C37 -164 38 -164 40 -164 C47 -164 52 -170 52 -180 C52 -213 13 -247 -38 -258 L-45 -289 Z " />
<glyph glyph-name="Rcaron" unicode="&#x158;" horiz-adv-x="640" d="M601 0 L608 33 L603 33 C549 36 519 68 474 173 C439 258 405 318 383 332 C443 346 482 364 513 393 C552 430 576 483 576 534 C576 630 497 674 324 674 C291 674 178 672 160 671 L100 667 L92 634 L103 634 C151 633 159 628 162 595 L162 594 L149 511 L75 161 C52 52 38 34 -22 33 L-38 33 L-45 0 L254 0 L262 33 L240 33 C199 33 184 45 184 77 C184 90 189 122 197 161 L229 312 L232 312 C295 316 301 309 352 166 C378 90 408 26 431 0 L601 0 Z M298 635 C311 636 319 636 330 636 C411 636 444 611 444 548 C444 511 435 468 419 433 C401 396 380 374 346 360 C326 352 290 348 237 348 L298 635 Z M435 727 L582 868 L556 868 L401 785 L254 868 L228 868 L313 727 L435 727 Z " />
<glyph glyph-name="rcaron" unicode="&#x159;" horiz-adv-x="362" d="M27 353 L34 353 C60 353 73 344 73 326 C73 314 68 281 62 254 L36 131 C17 43 11 34 -34 33 L-41 33 L-48 0 L170 0 L177 33 L167 33 C139 33 127 41 127 61 C127 76 131 102 137 131 L150 194 C164 260 174 284 200 317 C222 345 245 362 262 362 C272 362 278 355 283 339 C290 312 297 303 313 303 C340 303 363 332 363 364 C363 397 342 419 311 419 C265 419 209 378 172 317 C177 347 179 368 179 390 C179 403 179 407 177 419 C115 402 63 390 33 386 L27 353 Z M164 656 L137 656 L194 492 L271 492 L393 656 L366 656 L254 562 L164 656 Z " />
<glyph glyph-name="Sacute" unicode="&#x15a;" horiz-adv-x="497" d="M-18 9 L15 9 C25 36 35 55 47 70 C77 16 129 -13 194 -13 C324 -13 433 100 433 233 C433 311 404 347 287 412 C212 454 186 483 186 528 C186 591 237 644 298 644 C367 644 410 583 410 485 L440 485 L478 667 L448 667 L448 666 L444 657 C439 641 430 627 417 613 C386 658 349 679 297 679 C183 679 85 577 85 458 C85 391 115 348 196 300 C283 249 288 245 308 217 C318 204 324 183 324 164 C324 91 258 25 185 25 C122 25 76 71 65 145 C62 171 61 185 61 228 L29 228 L-18 9 Z M282 728 L308 728 L570 859 L571 863 L411 863 L282 728 Z " />
<glyph glyph-name="sacute" unicode="&#x15b;" horiz-adv-x="339" d="M-37 -12 L-12 -12 C-4 4 4 15 15 25 C17 24 18 23 21 19 C39 -2 72 -16 108 -16 C193 -16 264 57 264 144 C264 172 256 196 241 213 C225 232 218 237 164 259 C122 277 101 298 101 324 C101 358 135 389 172 389 C217 389 248 348 249 289 L273 289 L300 413 L276 413 C264 395 258 386 252 381 C225 407 198 419 167 419 C97 419 26 347 26 276 C26 255 33 233 46 217 C65 194 75 187 126 162 C167 142 185 121 185 93 C185 51 148 15 103 15 C51 15 22 52 17 121 L-9 121 L-37 -12 Z M167 490 L192 490 L422 651 L423 655 L296 655 L167 490 Z " />
<glyph glyph-name="Scircumflex" unicode="&#x15c;" horiz-adv-x="497" d="M-18 9 L15 9 C25 36 35 55 47 70 C77 16 129 -13 194 -13 C324 -13 433 100 433 233 C433 311 404 347 287 412 C212 454 186 483 186 528 C186 591 237 644 298 644 C367 644 410 583 410 485 L440 485 L478 667 L448 667 L448 666 L444 657 C439 641 430 627 417 613 C386 658 349 679 297 679 C183 679 85 577 85 458 C85 391 115 348 196 300 C283 249 288 245 308 217 C318 204 324 183 324 164 C324 91 258 25 185 25 C122 25 76 71 65 145 C62 171 61 185 61 228 L29 228 L-18 9 Z M309 868 L163 727 L188 727 L343 810 L491 727 L516 727 L430 868 L309 868 Z " />
<glyph glyph-name="scircumflex" unicode="&#x15d;" horiz-adv-x="339" d="M-37 -12 L-12 -12 C-4 4 4 15 15 25 C17 24 18 23 21 19 C39 -2 72 -16 108 -16 C193 -16 264 57 264 144 C264 172 256 196 241 213 C225 232 218 237 164 259 C122 277 101 298 101 324 C101 358 135 389 172 389 C217 389 248 348 249 289 L273 289 L300 413 L276 413 C264 395 258 386 252 381 C225 407 198 419 167 419 C97 419 26 347 26 276 C26 255 33 233 46 217 C65 194 75 187 126 162 C167 142 185 121 185 93 C185 51 148 15 103 15 C51 15 22 52 17 121 L-9 121 L-37 -12 Z M315 492 L342 492 L287 656 L210 656 L86 492 L113 492 L227 586 L315 492 Z " />
<glyph glyph-name="Scedilla" unicode="&#x15e;" horiz-adv-x="497" d="M440 485 L478 667 L448 667 L448 666 L444 657 C439 641 430 627 417 613 C387 658 349 679 297 679 C183 679 85 577 85 458 C85 391 115 348 196 300 C283 249 288 245 308 217 C318 204 324 183 324 164 C324 91 258 25 185 25 C122 25 76 71 65 145 C62 171 61 185 61 228 L29 228 L-18 9 L15 9 C25 36 35 55 47 70 C71 26 112 -2 163 -10 C148 -53 138 -79 125 -109 C151 -111 165 -124 165 -148 C165 -182 136 -209 99 -209 C80 -209 65 -206 44 -198 C37 -213 36 -215 30 -228 C55 -238 77 -242 101 -242 C183 -242 247 -192 247 -129 C247 -89 223 -66 175 -60 C184 -35 188 -23 192 -12 C323 -13 433 99 433 234 C433 311 403 347 287 412 C212 454 186 483 186 528 C186 591 237 644 298 644 C367 644 410 583 410 485 L440 485 Z " />
<glyph glyph-name="scedilla" unicode="&#x15f;" horiz-adv-x="339" d="M110 -16 C195 -15 264 57 264 144 C264 172 256 196 241 213 C225 232 218 236 164 259 C122 276 101 299 101 324 C101 358 135 389 172 389 C217 389 248 348 249 289 L273 289 L300 413 L276 413 C264 395 258 386 252 381 C225 407 198 419 167 419 C97 419 26 347 26 276 C26 255 33 233 46 217 C65 194 75 187 126 162 C167 142 185 121 185 93 C185 51 148 15 103 15 C51 15 22 52 17 121 L-9 121 L-37 -12 L-12 -12 C-4 4 4 15 15 25 C17 24 18 23 21 19 C35 2 60 -11 88 -15 C80 -41 72 -64 58 -98 C78 -100 87 -110 87 -131 C87 -163 64 -188 35 -188 C21 -188 10 -185 -6 -178 C-11 -192 -12 -194 -17 -206 C1 -214 17 -218 36 -218 C99 -218 149 -172 149 -113 C149 -79 131 -59 97 -54 L110 -16 Z " />
<glyph glyph-name="Scaron" unicode="&#x160;" horiz-adv-x="497" d="M-18 9 L15 9 C25 36 35 55 47 70 C77 16 129 -13 194 -13 C324 -13 433 100 433 233 C433 311 404 347 287 412 C212 454 186 483 186 528 C186 591 237 644 298 644 C367 644 410 583 410 485 L440 485 L478 667 L448 667 L448 666 L444 657 C439 641 430 627 417 613 C386 658 349 679 297 679 C183 679 85 577 85 458 C85 391 115 348 196 300 C283 249 288 245 308 217 C318 204 324 183 324 164 C324 91 258 25 185 25 C122 25 76 71 65 145 C62 171 61 185 61 228 L29 228 L-18 9 Z M383 727 L530 868 L505 868 L350 785 L202 868 L176 868 L262 727 L383 727 Z " />
<glyph glyph-name="scaron" unicode="&#x161;" horiz-adv-x="339" d="M-37 -12 L-12 -12 C-4 4 4 15 15 25 C17 24 18 23 21 19 C39 -2 72 -16 108 -16 C193 -16 264 57 264 144 C264 172 256 196 241 213 C225 232 218 237 164 259 C122 277 101 298 101 324 C101 358 135 389 172 389 C217 389 248 348 249 289 L273 289 L300 413 L276 413 C264 395 258 386 252 381 C225 407 198 419 167 419 C97 419 26 347 26 276 C26 255 33 233 46 217 C65 194 75 187 126 162 C167 142 185 121 185 93 C185 51 148 15 103 15 C51 15 22 52 17 121 L-9 121 L-37 -12 Z M145 656 L119 656 L176 492 L253 492 L375 656 L347 656 L235 562 L145 656 Z " />
<glyph glyph-name="Tcommaaccent" unicode="&#x162;" horiz-adv-x="621" d="M79 497 C123 613 149 635 240 632 L312 632 L212 161 C189 51 176 34 115 33 L91 33 L84 0 L394 0 L401 33 L378 33 C338 33 322 45 322 74 L322 77 L322 85 C323 98 327 124 335 161 L435 632 L512 632 C550 632 565 630 579 622 C602 610 613 576 613 522 C613 514 613 507 612 497 L641 497 L676 667 L87 667 L49 497 L79 497 Z M122 -304 C213 -289 278 -216 278 -131 C278 -86 256 -59 218 -59 C177 -59 143 -94 143 -135 C143 -158 160 -176 182 -176 C189 -176 191 -176 204 -173 C209 -171 211 -171 213 -171 C221 -171 226 -177 226 -188 C226 -223 184 -259 129 -271 L122 -304 Z " />
<glyph glyph-name="tcommaaccent" unicode="&#x163;" horiz-adv-x="284" d="M279 370 L286 403 L179 403 L207 532 L180 532 C153 454 93 402 34 403 L27 370 L77 370 L28 140 C22 110 18 82 18 62 C18 16 50 -16 97 -16 C149 -16 197 12 226 59 L205 70 C184 42 166 30 145 30 C125 30 112 46 112 71 C112 81 116 104 123 138 L172 370 L279 370 Z M-18 -289 C66 -275 126 -207 126 -126 C126 -84 105 -59 71 -59 C34 -59 2 -92 2 -131 C2 -153 18 -169 38 -169 C44 -169 48 -168 59 -166 C63 -164 65 -164 67 -164 C74 -164 79 -170 79 -180 C79 -213 40 -247 -11 -258 L-18 -289 Z " />
<glyph glyph-name="Tcaron" unicode="&#x164;" horiz-adv-x="621" d="M79 497 C123 613 149 635 240 632 L312 632 L212 161 C189 51 176 34 115 33 L91 33 L84 0 L394 0 L401 33 L378 33 C338 33 322 45 322 74 L322 77 L322 85 C323 98 327 124 335 161 L435 632 L512 632 C550 632 565 630 579 622 C602 610 613 576 613 522 C613 514 613 507 612 497 L641 497 L676 667 L87 667 L49 497 L79 497 Z M453 727 L600 868 L575 868 L420 785 L272 868 L247 868 L332 727 L453 727 Z " />
<glyph glyph-name="tcaron" unicode="&#x165;" horiz-adv-x="337" d="M279 370 L286 403 L179 403 L206 532 L180 532 C153 454 93 402 34 403 L27 370 L77 370 L28 140 C22 111 18 82 18 62 C18 16 50 -16 97 -16 C149 -16 197 12 226 59 L205 70 C184 42 166 30 145 30 C125 30 112 46 112 71 C112 81 116 105 123 138 L172 370 L279 370 Z M245 466 C330 481 390 548 390 629 C390 671 369 696 335 696 C298 696 266 663 266 624 C266 602 281 586 302 586 C307 586 314 587 322 589 C327 591 328 591 330 591 C337 591 342 585 342 575 C342 542 303 508 252 497 L245 466 Z " />
<glyph glyph-name="utilde" unicode="&#x169;" horiz-adv-x="494" d="M439 403 L286 403 L279 370 L286 370 C312 370 323 362 323 344 C323 335 318 302 311 272 L287 159 C273 91 216 34 164 34 C141 34 122 54 122 76 C122 86 125 106 130 129 L188 403 L31 403 L24 370 L28 370 C59 370 69 362 69 335 C69 322 66 300 60 272 L29 129 C25 109 22 81 22 64 C22 19 61 -16 113 -16 C167 -16 222 14 268 70 C263 46 260 21 260 9 L260 -6 L261 -16 L267 -16 C292 -7 349 0 393 0 L399 0 L404 0 L411 33 L408 33 C381 33 372 40 371 61 L371 62 L382 132 L439 403 Z M163 513 C176 552 196 571 223 571 C237 571 251 564 279 543 C307 521 327 513 351 513 C411 513 457 561 472 637 L449 637 C440 599 418 577 389 577 C375 577 363 582 342 598 C307 625 287 634 260 634 C202 634 157 588 141 513 L163 513 Z " />
<glyph glyph-name="Umacron" unicode="&#x16a;" horiz-adv-x="697" d="M537 667 L529 634 L534 633 C579 632 603 611 603 576 C603 558 600 536 595 512 L547 286 C527 192 521 173 503 142 C463 75 388 33 312 33 C235 33 187 78 187 148 C187 172 194 216 208 283 L257 511 C281 620 293 634 357 634 L368 634 L375 667 L88 667 L81 634 L92 634 C138 634 152 625 152 595 C152 576 148 546 140 511 L83 241 C75 203 72 181 72 155 C72 51 147 -13 272 -13 C432 -13 541 79 576 245 L637 531 C652 597 676 622 737 633 L744 634 L751 667 L537 667 Z M610 801 L312 801 L303 758 L601 758 L610 801 Z " />
<glyph glyph-name="umacron" unicode="&#x16b;" horiz-adv-x="494" d="M439 403 L286 403 L279 370 L286 370 C312 370 323 362 323 344 C323 335 318 302 311 272 L287 159 C273 91 216 34 164 34 C141 34 122 54 122 76 C122 86 125 106 130 129 L188 403 L31 403 L24 370 L28 370 C59 370 69 362 69 335 C69 322 66 300 60 272 L29 129 C25 109 22 81 22 64 C22 19 61 -16 113 -16 C167 -16 222 14 268 70 C263 46 260 21 260 9 L260 -6 L261 -16 L267 -16 C292 -7 349 0 393 0 L399 0 L404 0 L411 33 L408 33 C381 33 372 40 371 61 L371 62 L382 132 L439 403 Z M162 547 L428 547 L438 590 L171 590 L162 547 Z " />
<glyph glyph-name="ubreve" unicode="&#x16d;" horiz-adv-x="494" d="M439 403 L286 403 L279 370 L286 370 C312 370 323 362 323 344 C323 335 318 302 311 272 L287 159 C273 91 216 34 164 34 C141 34 122 54 122 76 C122 86 125 106 130 129 L188 403 L31 403 L24 370 L28 370 C59 370 69 362 69 335 C69 322 66 300 60 272 L29 129 C25 109 22 81 22 64 C22 19 61 -16 113 -16 C167 -16 222 14 268 70 C263 46 260 21 260 9 L260 -6 L261 -16 L267 -16 C292 -7 349 0 393 0 L399 0 L404 0 L411 33 L408 33 C381 33 372 40 371 61 L371 62 L382 132 L439 403 Z M184 649 C183 642 182 635 182 626 C182 547 222 499 288 499 C361 499 430 561 455 649 L433 649 C403 598 363 575 307 575 C244 575 211 600 206 649 L184 649 Z " />
<glyph glyph-name="Uring" unicode="&#x16e;" horiz-adv-x="697" d="M537 667 L529 634 L534 633 C579 632 603 611 603 576 C603 558 600 536 595 512 L547 286 C527 192 521 173 503 142 C463 75 388 33 312 33 C235 33 187 78 187 148 C187 172 194 216 208 283 L257 511 C281 620 293 634 357 634 L368 634 L375 667 L88 667 L81 634 L92 634 C138 634 152 625 152 595 C152 576 148 546 140 511 L83 241 C75 203 72 181 72 155 C72 51 147 -13 272 -13 C432 -13 541 79 576 245 L637 531 C652 597 676 622 737 633 L744 634 L751 667 L537 667 Z M494 902 C429 902 368 843 368 780 C368 734 403 700 449 700 C514 700 575 759 575 822 C575 868 541 902 494 902 L494 902 Z M487 870 C518 870 542 847 542 816 C542 772 500 732 456 732 C424 732 401 755 401 786 C401 830 442 870 487 870 L487 870 Z " />
<glyph glyph-name="uring" unicode="&#x16f;" horiz-adv-x="494" d="M439 403 L286 403 L279 370 L286 370 C312 370 323 362 323 344 C323 335 318 302 311 272 L287 159 C273 91 216 34 164 34 C141 34 122 54 122 76 C122 86 125 106 130 129 L188 403 L31 403 L24 370 L28 370 C59 370 69 362 69 335 C69 322 66 300 60 272 L29 129 C25 109 22 81 22 64 C22 19 61 -16 113 -16 C167 -16 222 14 268 70 C263 46 260 21 260 9 L260 -6 L261 -16 L267 -16 C292 -7 349 0 393 0 L399 0 L404 0 L411 33 L408 33 C381 33 372 40 371 61 L371 62 L382 132 L439 403 Z M334 667 C272 667 215 611 215 551 C215 507 248 475 292 475 C353 475 411 531 411 591 C411 635 379 667 334 667 L334 667 Z M328 636 C358 636 380 614 380 585 C380 544 341 506 298 506 C268 506 246 528 246 557 C246 598 285 636 328 636 L328 636 Z " />
<glyph glyph-name="Uhungarumlaut" unicode="&#x170;" horiz-adv-x="697" d="M537 667 L529 634 L534 633 C579 632 603 611 603 576 C603 558 600 536 595 512 L547 286 C527 192 521 173 503 142 C463 75 388 33 312 33 C235 33 187 78 187 148 C187 172 194 216 208 283 L257 511 C281 620 293 634 357 634 L368 634 L375 667 L88 667 L81 634 L92 634 C138 634 152 625 152 595 C152 576 148 546 140 511 L83 241 C75 203 72 181 72 155 C72 51 147 -13 272 -13 C432 -13 541 79 576 245 L637 531 C652 597 676 622 737 633 L744 634 L751 667 L537 667 Z M336 728 L362 728 L611 859 L612 863 L465 863 L336 728 Z M508 728 L534 728 L783 859 L784 863 L637 863 L508 728 Z " />
<glyph glyph-name="uhungarumlaut" unicode="&#x171;" horiz-adv-x="494" d="M439 403 L286 403 L279 370 L286 370 C312 370 323 362 323 344 C323 335 318 302 311 272 L287 159 C273 91 216 34 164 34 C141 34 122 54 122 76 C122 86 125 106 130 129 L188 403 L31 403 L24 370 L28 370 C59 370 69 362 69 335 C69 322 66 300 60 272 L29 129 C25 109 22 81 22 64 C22 19 61 -16 113 -16 C167 -16 222 14 268 70 C263 46 260 21 260 9 L260 -6 L261 -16 L267 -16 C292 -7 349 0 393 0 L399 0 L404 0 L411 33 L408 33 C381 33 372 40 371 61 L371 62 L382 132 L439 403 Z M192 490 L217 490 L434 651 L435 655 L321 655 L192 490 Z M343 490 L368 490 L585 651 L586 655 L472 655 L343 490 Z " />
<glyph glyph-name="Uogonek" unicode="&#x172;" horiz-adv-x="697" d="M637 531 C652 597 676 622 737 633 L744 634 L751 667 L537 667 L529 634 L534 633 C579 632 603 611 603 576 C603 558 600 536 595 512 L547 286 C527 192 521 173 503 142 C463 75 388 33 312 33 C235 33 187 78 187 148 C187 172 194 216 208 283 L257 511 C281 620 293 634 357 634 L368 634 L375 667 L88 667 L81 634 L92 634 C138 634 152 625 152 595 C152 576 148 546 140 511 L83 241 C75 203 72 181 72 155 C72 51 148 -13 270 -13 C302 -13 333 -8 369 2 C311 -28 270 -82 270 -130 C270 -173 299 -200 343 -200 C374 -200 400 -190 438 -164 L433 -147 C416 -155 407 -157 396 -157 C373 -157 355 -138 355 -112 C355 -61 376 -23 436 29 C502 63 553 142 576 245 L637 531 Z " />
<glyph glyph-name="uogonek" unicode="&#x173;" horiz-adv-x="494" d="M404 0 L411 33 L408 33 C381 33 372 40 371 61 L371 62 L382 132 L439 403 L286 403 L279 370 L286 370 C312 370 323 362 323 344 C323 335 318 302 311 272 L287 159 C273 91 216 34 164 34 C141 34 122 54 122 76 C122 86 125 106 130 129 L188 403 L31 403 L24 370 L28 370 C59 370 69 362 69 335 C69 322 66 300 60 272 L29 129 C25 109 22 81 22 64 C22 19 61 -16 113 -16 C167 -16 222 14 268 70 C263 46 260 21 260 9 L260 -6 L261 -16 L267 -16 C281 -11 292 -9 308 -7 C261 -35 228 -83 228 -125 C228 -165 254 -191 294 -191 C322 -191 347 -182 382 -157 L377 -141 C360 -148 351 -150 340 -150 C318 -150 303 -132 303 -104 C303 -69 320 -33 351 -2 C369 0 381 0 399 0 L404 0 Z " />
<glyph glyph-name="Wcircumflex" unicode="&#x174;" horiz-adv-x="845" d="M554 -15 L787 479 C846 604 867 630 911 634 L917 634 L924 667 L751 667 L744 634 L748 634 C778 634 794 619 794 592 C794 568 790 555 760 493 L608 167 L546 667 L506 667 L253 167 L230 525 C229 539 229 552 229 572 C229 616 244 631 292 634 L297 634 L304 667 L63 667 L56 634 L63 634 L66 634 C91 634 105 621 112 592 C116 574 116 574 120 508 L154 -15 L192 -15 L453 501 L518 -15 L554 -15 Z M506 868 L360 727 L385 727 L540 810 L688 727 L713 727 L627 868 L506 868 Z " />
<glyph glyph-name="Ycircumflex" unicode="&#x176;" horiz-adv-x="593" d="M59 667 L52 634 L58 634 C101 629 108 620 138 527 L220 262 L199 161 C176 52 162 34 102 33 L93 33 L86 0 L364 0 L371 33 L363 33 C322 33 308 45 308 77 C308 91 313 124 321 161 L344 270 L515 504 C585 598 617 625 662 633 L668 634 L675 667 L476 667 L469 634 L473 634 C507 634 526 619 526 594 C526 573 520 561 485 514 L339 312 L255 548 C249 566 244 585 244 593 C244 619 267 634 310 634 L315 634 L322 667 L59 667 Z M363 868 L217 727 L242 727 L397 810 L545 727 L570 727 L484 868 L363 868 Z " />
<glyph glyph-name="ycircumflex" unicode="&#x177;" horiz-adv-x="434" d="M10 403 L3 371 L10 371 C38 367 43 361 57 304 L133 -12 L92 -85 C70 -121 57 -131 8 -148 C-35 -164 -56 -187 -56 -217 C-56 -236 -43 -249 -23 -249 C13 -249 46 -216 100 -126 L337 272 L351 292 C388 354 400 365 435 370 L441 371 L448 403 L310 403 L303 371 L311 371 L312 371 L314 371 C330 371 344 361 344 350 C344 344 340 334 332 322 C328 315 322 305 315 293 L199 98 L154 307 C150 325 149 333 149 341 C149 358 164 369 188 371 L193 371 L199 403 L10 403 Z M365 492 L393 492 L338 656 L260 656 L137 492 L163 492 L277 586 L365 492 Z " />
<glyph glyph-name="Ydieresis" unicode="&#x178;" horiz-adv-x="593" d="M59 667 L52 634 L58 634 C101 629 108 620 138 527 L220 262 L199 161 C176 52 162 34 102 33 L93 33 L86 0 L364 0 L371 33 L363 33 C322 33 308 45 308 77 C308 91 313 124 321 161 L344 270 L515 504 C585 598 617 625 662 633 L668 634 L675 667 L476 667 L469 634 L473 634 C507 634 526 619 526 594 C526 573 520 561 485 514 L339 312 L255 548 C249 566 244 585 244 593 C244 619 267 634 310 634 L315 634 L322 667 L59 667 Z M308 844 C270 844 234 810 234 773 C234 746 254 726 281 726 C320 726 355 760 355 797 C355 824 335 844 308 844 L308 844 Z M533 844 C494 844 459 810 459 772 C459 746 479 726 506 726 C545 726 580 760 580 797 C580 824 560 844 533 844 L533 844 Z " />
<glyph glyph-name="Zacute" unicode="&#x179;" horiz-adv-x="584" d="M-42 0 L461 0 L517 182 L487 182 C417 53 388 34 268 35 L101 35 L597 637 L603 667 L137 667 L87 505 L116 505 C135 548 163 587 192 609 C222 630 230 632 306 632 L463 632 L-36 26 L-42 0 Z M326 728 L353 728 L614 859 L615 863 L456 863 L326 728 Z " />
<glyph glyph-name="zacute" unicode="&#x17a;" horiz-adv-x="402" d="M-46 0 L291 0 L330 131 L302 131 C253 46 236 33 169 33 L76 33 L375 375 L381 403 L58 403 L26 287 L54 287 C96 361 108 372 145 370 L260 370 L-41 24 L-46 0 Z M224 490 L249 490 L478 651 L479 655 L353 655 L224 490 Z " />
<glyph glyph-name="Zdotaccent" unicode="&#x17b;" horiz-adv-x="584" d="M-42 0 L461 0 L517 182 L487 182 C417 53 388 34 268 35 L101 35 L597 637 L603 667 L137 667 L87 505 L116 505 C135 548 163 587 192 609 C222 630 230 632 306 632 L463 632 L-36 26 L-42 0 Z M415 844 C377 844 341 810 341 773 C341 746 361 726 388 726 C427 726 462 760 462 797 C462 824 442 844 415 844 L415 844 Z " />
<glyph glyph-name="zdotaccent" unicode="&#x17c;" horiz-adv-x="402" d="M-46 0 L291 0 L330 131 L302 131 C253 46 236 33 169 33 L76 33 L375 375 L381 403 L58 403 L26 287 L54 287 C96 361 108 372 145 370 L260 370 L-41 24 L-46 0 Z M281 627 C248 627 218 598 218 566 C218 543 235 526 258 526 C291 526 321 555 321 587 C321 610 304 627 281 627 L281 627 Z " />
<glyph glyph-name="Zcaron" unicode="&#x17d;" horiz-adv-x="584" d="M-42 0 L461 0 L517 182 L487 182 C417 53 388 34 268 35 L101 35 L597 637 L603 667 L137 667 L87 505 L116 505 C135 548 163 587 192 609 C222 630 230 632 306 632 L463 632 L-36 26 L-42 0 Z M448 727 L596 868 L570 868 L415 785 L268 868 L242 868 L327 727 L448 727 Z " />
<glyph glyph-name="zcaron" unicode="&#x17e;" horiz-adv-x="402" d="M-46 0 L291 0 L330 131 L302 131 C253 46 236 33 169 33 L76 33 L375 375 L381 403 L58 403 L26 287 L54 287 C96 361 108 372 145 370 L260 370 L-41 24 L-46 0 Z M181 656 L154 656 L211 492 L288 492 L410 656 L383 656 L271 562 L181 656 Z " />
<glyph glyph-name="florin" unicode="&#x192;" horiz-adv-x="464" d="M343 442 C359 487 370 522 378 553 C402 638 422 670 451 670 C458 670 462 667 462 661 C462 658 460 653 457 644 C451 632 449 623 449 616 C449 601 459 590 474 590 C500 590 522 617 522 649 C522 676 500 694 467 694 C408 694 358 646 304 540 C257 454 248 446 185 443 L178 442 L160 400 L235 400 L231 390 L227 381 L185 280 L140 173 C110 99 84 29 62 -37 C28 -140 1 -187 -25 -187 C-31 -187 -35 -184 -35 -179 C-35 -178 -34 -176 -32 -169 C-31 -167 -29 -163 -29 -158 L-28 -156 C-26 -147 -26 -147 -26 -143 C-26 -128 -38 -117 -53 -117 C-78 -117 -103 -145 -103 -174 C-103 -199 -83 -217 -56 -217 C-31 -217 -3 -205 26 -184 C74 -146 118 -78 178 50 C218 134 264 240 286 298 C289 305 291 311 294 317 L326 400 L402 400 L419 442 L343 442 Z " />
<glyph glyph-name="uni01CD" unicode="&#x1cd;" horiz-adv-x="593" d="M534 0 L541 33 L536 34 C491 42 485 53 469 152 L384 677 L355 677 L56 163 C5 73 -24 42 -68 34 L-76 33 L-83 0 L102 0 L109 33 L102 33 C74 33 55 50 55 75 C55 96 64 115 105 186 L126 223 L340 223 L355 125 C360 98 361 86 361 76 C361 46 340 33 291 33 L285 33 L277 0 L534 0 Z M335 257 L146 257 L294 513 L335 257 Z M441 727 L588 868 L563 868 L408 785 L260 868 L235 868 L320 727 L441 727 Z " />
<glyph glyph-name="uni01CE" unicode="&#x1ce;" horiz-adv-x="453" d="M369 79 C360 53 345 38 328 38 C318 38 310 48 310 62 C310 69 313 90 318 111 L354 282 C361 316 362 321 362 334 C362 388 317 419 238 419 C166 419 111 400 71 362 C53 345 44 329 44 313 C44 296 55 285 72 285 C96 285 113 300 126 332 C134 353 141 364 148 370 C162 380 184 386 205 386 C245 386 268 368 268 338 C268 330 266 314 261 294 L256 268 L199 245 C121 212 60 180 22 149 C14 142 5 131 -4 117 C-15 99 -22 78 -22 57 C-22 17 9 -10 55 -10 C98 -10 150 11 214 54 C218 11 241 -10 284 -10 C337 -10 378 24 392 79 L369 79 Z M249 234 L218 90 C176 55 144 38 122 38 C101 38 88 55 88 81 C88 134 134 187 208 217 L249 234 Z M201 656 L174 656 L231 492 L309 492 L430 656 L403 656 L291 562 L201 656 Z " />
<glyph glyph-name="uni01D3" unicode="&#x1d3;" horiz-adv-x="697" d="M537 667 L529 634 L534 633 C579 632 603 611 603 576 C603 558 600 536 595 512 L547 286 C527 192 521 173 503 142 C463 75 388 33 312 33 C235 33 187 78 187 148 C187 172 194 216 208 283 L257 511 C281 620 293 634 357 634 L368 634 L375 667 L88 667 L81 634 L92 634 C138 634 152 625 152 595 C152 576 148 546 140 511 L83 241 C75 203 72 181 72 155 C72 51 147 -13 272 -13 C432 -13 541 79 576 245 L637 531 C652 597 676 622 737 633 L744 634 L751 667 L537 667 Z M511 727 L658 868 L632 868 L477 785 L330 868 L304 868 L389 727 L511 727 Z " />
<glyph glyph-name="uni01D4" unicode="&#x1d4;" horiz-adv-x="494" d="M439 403 L286 403 L279 370 L286 370 C312 370 323 362 323 344 C323 335 318 302 311 272 L287 159 C273 91 216 34 164 34 C141 34 122 54 122 76 C122 86 125 106 130 129 L188 403 L31 403 L24 370 L28 370 C59 370 69 362 69 335 C69 322 66 300 60 272 L29 129 C25 109 22 81 22 64 C22 19 61 -16 113 -16 C167 -16 222 14 268 70 C263 46 260 21 260 9 L260 -6 L261 -16 L267 -16 C292 -7 349 0 393 0 L399 0 L404 0 L411 33 L408 33 C381 33 372 40 371 61 L371 62 L382 132 L439 403 Z M227 656 L201 656 L257 492 L335 492 L457 656 L429 656 L317 562 L227 656 Z " />
<glyph glyph-name="Gcaron" unicode="&#x1e6;" horiz-adv-x="699" d="M404 292 L397 258 L409 258 C455 257 467 248 467 215 C467 206 465 193 463 181 L458 156 C441 77 377 24 298 24 C217 24 164 84 164 175 C164 261 189 385 223 467 C269 578 345 639 436 639 C526 639 583 569 583 458 C583 450 583 445 582 434 L614 434 L660 661 L628 661 C619 632 609 611 594 588 C553 650 496 679 417 679 C312 679 215 627 138 531 C68 443 29 339 29 238 C29 86 124 -13 269 -13 C306 -13 350 -6 384 5 C463 30 497 38 527 38 C531 38 533 38 546 36 L566 130 C588 241 597 253 656 258 L663 258 L670 292 L404 292 Z M492 727 L639 868 L614 868 L458 785 L311 868 L285 868 L371 727 L492 727 Z " />
<glyph glyph-name="gcaron" unicode="&#x1e7;" horiz-adv-x="445" d="M14 -72 L15 -70 C6 -66 0 -65 -7 -65 C-42 -65 -74 -104 -74 -149 C-74 -212 -14 -248 91 -248 C159 -248 214 -233 256 -202 C303 -167 331 -114 331 -59 C331 -23 317 7 293 21 C269 36 222 46 181 46 L166 46 L164 46 C139 47 126 47 113 48 C73 49 55 57 55 73 C55 102 87 118 152 120 C201 122 231 129 263 146 C321 178 360 242 360 306 C360 323 358 335 352 351 C367 366 378 372 388 372 C395 372 399 368 405 356 C410 343 417 338 426 338 C445 338 462 359 462 382 C462 403 449 416 427 416 C401 416 375 402 339 370 C316 402 276 419 225 419 C117 419 27 339 27 243 C27 195 52 154 91 134 C25 119 -14 80 -14 28 C-14 2 -1 -16 25 -28 C42 -35 99 -44 124 -43 C149 -42 149 -42 154 -42 C228 -42 260 -60 260 -101 C260 -169 194 -217 100 -217 C30 -217 -13 -190 -13 -145 C-13 -124 -3 -97 12 -74 L14 -72 Z M217 386 C243 386 263 361 263 327 C263 294 251 241 235 208 C220 176 193 154 168 154 C140 154 123 177 123 212 C123 240 129 275 140 305 C158 358 184 386 217 386 L217 386 Z M181 656 L155 656 L211 492 L289 492 L411 656 L383 656 L271 562 L181 656 Z " />
<glyph glyph-name="Scommaaccent" unicode="&#x218;" horiz-adv-x="497" d="M-18 9 L15 9 C25 36 35 55 47 70 C77 16 129 -13 194 -13 C324 -13 433 100 433 233 C433 311 404 347 287 412 C212 454 186 483 186 528 C186 591 237 644 298 644 C367 644 410 583 410 485 L440 485 L478 667 L448 667 L448 666 L444 657 C439 641 430 627 417 613 C386 658 349 679 297 679 C183 679 85 577 85 458 C85 391 115 348 196 300 C283 249 288 245 308 217 C318 204 324 183 324 164 C324 91 258 25 185 25 C122 25 76 71 65 145 C62 171 61 185 61 228 L29 228 L-18 9 Z M67 -304 C157 -288 222 -216 222 -131 C222 -86 200 -59 163 -59 C122 -59 88 -94 88 -135 C88 -158 105 -176 127 -176 C134 -176 137 -175 149 -173 C154 -171 156 -171 158 -171 C166 -171 171 -177 171 -188 C171 -223 129 -259 74 -271 L67 -304 Z " />
<glyph glyph-name="scommaaccent" unicode="&#x219;" horiz-adv-x="339" d="M-37 -12 L-12 -12 C-4 4 4 15 15 25 C17 24 18 23 21 19 C39 -2 72 -16 108 -16 C193 -16 264 57 264 144 C264 172 256 196 241 213 C225 232 218 237 164 259 C122 277 101 298 101 324 C101 358 135 389 172 389 C217 389 248 348 249 289 L273 289 L300 413 L276 413 C264 395 258 386 252 381 C225 407 198 419 167 419 C97 419 26 347 26 276 C26 255 33 233 46 217 C65 194 75 187 126 162 C167 142 185 121 185 93 C185 51 148 15 103 15 C51 15 22 52 17 121 L-9 121 L-37 -12 Z M-13 -289 C72 -275 132 -207 132 -126 C132 -84 111 -59 77 -59 C40 -59 8 -92 8 -131 C8 -153 23 -169 44 -169 C49 -169 56 -168 64 -166 C69 -164 70 -164 72 -164 C79 -164 84 -170 84 -180 C84 -213 45 -247 -6 -258 L-13 -289 Z " />
<glyph glyph-name="uni021A" unicode="&#x21a;" horiz-adv-x="621" d="M79 497 C123 613 149 635 240 632 L312 632 L212 161 C189 51 176 34 115 33 L91 33 L84 0 L394 0 L401 33 L378 33 C338 33 322 45 322 74 L322 77 L322 85 C323 98 327 124 335 161 L435 632 L512 632 C550 632 565 630 579 622 C602 610 613 576 613 522 C613 514 613 507 612 497 L641 497 L676 667 L87 667 L49 497 L79 497 Z M122 -304 C213 -289 278 -216 278 -131 C278 -86 256 -59 218 -59 C177 -59 143 -94 143 -135 C143 -158 160 -176 182 -176 C189 -176 191 -176 204 -173 C209 -171 211 -171 213 -171 C221 -171 226 -177 226 -188 C226 -223 184 -259 129 -271 L122 -304 Z " />
<glyph glyph-name="uni021B" unicode="&#x21b;" horiz-adv-x="284" d="M279 370 L286 403 L179 403 L207 532 L180 532 C153 454 93 402 34 403 L27 370 L77 370 L28 140 C22 110 18 82 18 62 C18 16 50 -16 97 -16 C149 -16 197 12 226 59 L205 70 C184 42 166 30 145 30 C125 30 112 46 112 71 C112 81 116 104 123 138 L172 370 L279 370 Z M-18 -289 C66 -275 126 -207 126 -126 C126 -84 105 -59 71 -59 C34 -59 2 -92 2 -131 C2 -153 18 -169 38 -169 C44 -169 48 -168 59 -166 C63 -164 65 -164 67 -164 C74 -164 79 -170 79 -180 C79 -213 40 -247 -11 -258 L-18 -289 Z " />
<glyph glyph-name="afii57929" unicode="&#x2bc;" horiz-adv-x="262" d="M74 382 C181 396 258 484 258 590 C258 640 233 671 193 671 C152 671 115 634 115 594 C115 566 133 547 159 547 C166 547 173 548 180 550 C185 551 189 552 193 552 C199 552 205 545 205 537 L205 535 C205 534 204 529 203 522 C195 471 142 426 82 419 L74 382 Z " />
<glyph glyph-name="circumflex" unicode="&#x2c6;" horiz-adv-x="476" d="M372 492 L400 492 L345 656 L268 656 L144 492 L170 492 L285 586 L372 492 Z " />
<glyph glyph-name="caron" unicode="&#x2c7;" horiz-adv-x="476" d="M205 656 L178 656 L235 492 L312 492 L434 656 L407 656 L295 562 L205 656 Z " />
<glyph glyph-name="uni02C9" unicode="&#x2c9;" horiz-adv-x="333" d="M79 547 L345 547 L355 590 L88 590 L79 547 Z " />
<glyph glyph-name="breve" unicode="&#x2d8;" horiz-adv-x="477" d="M169 649 C167 642 166 635 166 625 C166 547 206 499 272 499 C346 499 414 561 439 649 L417 649 C388 598 348 575 291 575 C229 575 195 600 191 649 L169 649 Z " />
<glyph glyph-name="dotaccent" unicode="&#x2d9;" horiz-adv-x="460" d="M293 627 C260 627 230 598 230 566 C230 543 247 526 270 526 C303 526 333 555 333 587 C333 610 316 627 293 627 L293 627 Z " />
<glyph glyph-name="ring" unicode="&#x2da;" horiz-adv-x="392" d="M268 667 C206 667 148 611 148 551 C148 507 181 475 225 475 C286 475 344 531 344 591 C344 635 312 667 268 667 L268 667 Z M261 636 C291 636 313 614 313 585 C313 544 274 506 231 506 C201 506 179 528 179 557 C179 598 218 636 261 636 L261 636 Z " />
<glyph glyph-name="ogonek" unicode="&#x2db;" horiz-adv-x="500" d="M231 7 C164 -24 123 -74 123 -125 C123 -165 149 -191 189 -191 C217 -191 242 -182 277 -157 L272 -141 C255 -148 246 -150 235 -150 C213 -150 198 -131 198 -103 C198 -65 216 -31 256 7 L231 7 Z " />
<glyph glyph-name="tilde" unicode="&#x2dc;" horiz-adv-x="481" d="M147 513 C160 552 180 571 207 571 C221 571 235 564 263 543 C291 521 311 513 335 513 C395 513 439 558 456 637 L434 637 C423 598 402 577 373 577 C359 577 347 582 326 598 C291 625 271 634 245 634 C186 634 142 589 125 513 L147 513 Z " />
<glyph glyph-name="hungarumlaut" unicode="&#x2dd;" horiz-adv-x="471" d="M148 490 L173 490 L390 651 L391 655 L277 655 L148 490 Z M299 490 L324 490 L541 651 L542 655 L428 655 L299 490 Z " />
<glyph glyph-name="Wdieresis" unicode="&#x1e84;" horiz-adv-x="845" d="M554 -15 L787 479 C846 604 867 630 911 634 L917 634 L924 667 L751 667 L744 634 L748 634 C778 634 794 619 794 592 C794 568 790 555 760 493 L608 167 L546 667 L506 667 L253 167 L230 525 C229 539 229 552 229 572 C229 616 244 631 292 634 L297 634 L304 667 L63 667 L56 634 L63 634 L66 634 C91 634 105 621 112 592 C116 574 116 574 120 508 L154 -15 L192 -15 L453 501 L518 -15 L554 -15 Z M445 844 C407 844 371 810 371 773 C371 746 391 726 418 726 C457 726 492 760 492 797 C492 824 472 844 445 844 L445 844 Z M670 844 C631 844 596 810 596 772 C596 746 616 726 643 726 C682 726 717 760 717 797 C717 824 697 844 670 844 L670 844 Z " />
<glyph glyph-name="uni2011" unicode="&#x2011;" horiz-adv-x="293" d="M10 241 L-2 184 L230 184 L242 241 L10 241 Z " />
<glyph glyph-name="figuredash" unicode="&#x2012;" horiz-adv-x="500" d="M-3 233 L-11 197 L453 197 L460 233 L-3 233 Z " />
<glyph glyph-name="endash" unicode="&#x2013;" horiz-adv-x="500" d="M-3 233 L-11 197 L453 197 L460 233 L-3 233 Z " />
<glyph glyph-name="emdash" unicode="&#x2014;" horiz-adv-x="781" d="M-3 233 L-11 197 L734 197 L742 233 L-3 233 Z " />
<glyph glyph-name="afii00208" unicode="&#x2015;" horiz-adv-x="781" d="M-3 233 L-11 197 L734 197 L742 233 L-3 233 Z " />
<glyph glyph-name="quoteleft" unicode="&#x2018;" horiz-adv-x="262" d="M275 671 C169 658 91 569 91 464 C91 413 116 382 156 382 C197 382 234 419 234 459 C234 486 215 506 189 506 C183 506 175 505 168 503 C163 502 159 501 156 501 C148 501 143 508 143 517 C143 572 198 624 267 634 L275 671 Z " />
<glyph glyph-name="quoteright" unicode="&#x2019;" horiz-adv-x="233" d="M60 382 C167 396 244 484 244 590 C244 640 219 671 179 671 C138 671 101 634 101 594 C101 566 119 547 145 547 C152 547 159 548 166 550 C171 551 175 552 179 552 C185 552 191 545 191 537 L191 535 C191 534 190 529 189 522 C181 471 128 426 68 419 L60 382 Z " />
<glyph glyph-name="quotesinglbase" unicode="&#x201a;" horiz-adv-x="252" d="M-45 -178 C55 -164 130 -74 130 33 C130 82 107 112 70 112 C31 112 -4 75 -4 33 C-4 7 12 -12 36 -12 C42 -12 48 -11 55 -9 C59 -8 63 -7 66 -7 C73 -7 77 -14 77 -23 C77 -77 26 -130 -37 -141 L-45 -178 Z " />
<glyph glyph-name="quotedblleft" unicode="&#x201c;" horiz-adv-x="466" d="M273 671 C167 658 89 569 89 464 C89 413 114 382 154 382 C195 382 232 419 232 459 C232 486 213 506 187 506 C181 506 173 505 166 503 C161 502 157 501 154 501 C146 501 141 508 141 517 C141 572 196 624 265 634 L273 671 Z M487 671 C382 658 304 569 304 464 C304 413 329 382 369 382 C410 382 447 419 447 459 C447 486 428 506 402 506 C396 506 388 505 381 503 C376 502 372 501 369 501 C361 501 356 508 356 518 C356 572 411 624 479 634 L487 671 Z " />
<glyph glyph-name="quotedblright" unicode="&#x201d;" horiz-adv-x="466" d="M63 382 C170 396 247 484 247 590 C247 640 222 671 182 671 C141 671 104 634 104 594 C104 566 122 547 148 547 C155 547 162 548 169 550 C174 551 178 552 182 552 C188 552 194 545 194 537 L194 535 C194 534 193 529 192 522 C184 471 131 426 71 419 L63 382 Z M278 382 C385 396 462 484 462 590 C462 640 437 671 397 671 C356 671 319 635 319 594 C319 567 338 547 364 547 C370 547 378 548 385 550 C390 552 395 553 398 553 C405 553 410 546 410 536 C410 481 356 430 286 419 L278 382 Z " />
<glyph glyph-name="quotedblbase" unicode="&#x201e;" horiz-adv-x="457" d="M-58 -177 C43 -162 117 -74 117 33 C117 81 94 112 57 112 C18 112 -17 74 -17 33 C-17 8 0 -12 21 -12 C26 -12 34 -11 42 -9 L50 -7 L53 -7 L55 -6 C60 -6 65 -13 65 -21 C65 -76 13 -130 -50 -140 L-58 -177 Z M157 -177 C260 -162 332 -73 332 39 C332 81 306 113 273 113 C234 113 197 74 197 33 C197 9 215 -12 236 -12 C241 -12 249 -11 257 -8 L265 -6 L268 -6 L269 -5 L270 -5 C275 -5 280 -12 280 -21 C280 -76 228 -130 165 -140 L157 -177 Z " />
<glyph glyph-name="dagger" unicode="&#x2020;" horiz-adv-x="419" d="M103 -242 L140 -69 C144 -48 185 118 194 146 C230 278 238 316 238 362 L238 372 L238 375 C238 381 239 390 242 405 C262 404 277 400 289 393 C324 373 333 370 354 370 C386 370 413 401 413 436 C413 458 398 474 377 474 C364 474 340 468 320 460 C278 443 272 441 248 439 C252 454 273 500 292 537 C314 580 321 602 321 624 C321 653 305 671 280 671 C236 671 209 630 209 563 C209 550 209 550 211 518 L212 499 C213 489 213 485 213 472 C213 462 213 453 212 439 C195 440 178 445 160 455 C129 470 117 474 102 474 C72 474 45 442 45 408 C45 386 60 371 81 371 C95 371 121 378 143 387 C172 399 181 402 205 405 C201 387 199 380 192 366 C170 314 162 279 146 173 C140 133 134 100 130 80 L122 41 C120 35 117 16 113 -11 C102 -75 89 -143 73 -215 L67 -242 L103 -242 Z " />
<glyph glyph-name="daggerdbl" unicode="&#x2021;" horiz-adv-x="425" d="M213 257 C215 266 217 272 218 275 C239 330 251 381 251 418 C251 426 251 433 249 445 C266 442 279 438 294 431 C328 415 342 411 358 411 C390 411 417 440 417 475 C417 496 402 511 380 511 C367 511 341 505 318 496 C283 484 268 479 256 478 C262 496 273 520 287 548 C314 597 320 614 320 634 C320 658 306 674 284 674 C249 674 223 642 223 596 C223 585 224 569 225 553 C228 524 229 504 229 497 C229 491 229 487 228 478 C211 480 197 485 179 493 C143 510 137 512 118 512 C86 512 58 482 58 449 C58 427 73 410 93 410 C106 410 132 416 151 424 C179 435 189 438 221 445 C195 389 186 358 184 309 C183 281 182 277 179 257 L213 257 Z M162 176 C153 143 146 118 141 105 C122 54 120 44 120 18 C120 8 121 0 123 -13 C112 -12 95 -7 68 5 C48 14 23 21 12 21 C-18 21 -46 -9 -46 -41 C-46 -63 -32 -78 -11 -78 C6 -78 17 -75 52 -63 C93 -49 106 -45 117 -45 C113 -60 101 -86 79 -124 C59 -159 52 -180 52 -201 C52 -226 67 -242 91 -242 C126 -242 152 -205 152 -157 L151 -129 C146 -83 146 -81 146 -65 C146 -57 146 -54 147 -45 C161 -46 174 -50 191 -57 C228 -74 238 -77 255 -77 C286 -77 315 -47 315 -14 C315 6 299 23 280 23 C270 23 246 17 230 12 C191 -3 181 -7 153 -13 C174 22 182 50 185 94 C187 127 188 133 195 176 L162 176 Z " />
<glyph glyph-name="bullet" unicode="&#x2022;" horiz-adv-x="600" d="M332 480 C251 480 174 396 174 308 C174 245 215 200 270 200 C352 200 428 284 428 373 C428 435 388 480 332 480 L332 480 Z " />
<glyph glyph-name="ellipsis" unicode="&#x2026;" horiz-adv-x="906" d="M105 113 C67 113 31 74 31 33 C31 4 50 -17 76 -17 C115 -17 151 22 151 63 C151 92 132 113 105 113 L105 113 Z M405 113 C367 113 331 74 331 33 C331 4 350 -17 377 -17 C415 -17 451 22 451 63 C451 92 432 113 405 113 L405 113 Z M706 113 C668 113 632 74 632 33 C632 4 651 -17 677 -17 C716 -17 752 22 752 63 C752 92 733 113 706 113 L706 113 Z " />
<glyph glyph-name="perthousand" unicode="&#x2030;" horiz-adv-x="939" d="M230 678 C184 678 148 659 115 619 C78 572 56 508 56 447 C56 375 91 335 153 335 C198 335 236 355 266 394 C303 441 324 502 324 564 C324 637 291 678 230 678 L230 678 Z M221 653 C239 653 250 637 250 611 C250 567 231 474 211 421 C196 380 180 361 159 361 C141 361 130 377 130 405 C130 461 161 587 185 630 C193 643 208 653 221 653 L221 653 Z M114 0 L561 652 L521 652 L74 0 L114 0 Z M488 332 C442 332 406 314 373 273 C336 226 314 163 314 101 C314 28 349 -11 412 -11 C505 -11 582 93 582 218 C582 291 548 332 488 332 L488 332 Z M479 307 C497 307 508 290 508 265 C508 221 489 128 469 75 C454 34 438 15 417 15 C400 15 388 31 388 54 C388 100 413 220 432 262 C445 292 461 307 479 307 L479 307 Z M788 332 C742 332 706 313 674 273 C637 226 615 162 615 100 C615 29 649 -11 712 -11 C757 -11 795 9 825 48 C861 95 882 157 882 218 C882 291 848 332 788 332 L788 332 Z M779 307 C797 307 808 290 808 265 C808 221 789 128 770 75 C755 34 738 15 718 15 C700 15 689 31 689 59 C689 115 720 241 744 284 C751 297 767 307 779 307 L779 307 Z " />
<glyph glyph-name="guilsinglleft" unicode="&#x2039;" horiz-adv-x="255" d="M2 216 L128 15 L160 15 L111 216 L245 413 L212 413 L2 216 Z " />
<glyph glyph-name="guilsinglright" unicode="&#x203a;" horiz-adv-x="255" d="M200 216 L75 413 L42 413 L91 216 L-43 15 L-10 15 L200 216 Z " />
<glyph glyph-name="uni203E" unicode="&#x203e;" horiz-adv-x="500" d="M110 847 L101 807 L601 807 L610 847 L110 847 Z " />
<glyph glyph-name="fraction" unicode="&#x2044;" horiz-adv-x="133" d="M-138 0 L308 652 L269 652 L-178 0 L-138 0 Z " />
<glyph glyph-name="franc" unicode="&#x20a3;" horiz-adv-x="712" d="M575 667 L99 667 L92 634 L101 634 C146 634 160 625 160 596 C160 582 154 540 148 511 L73 161 C50 52 37 34 -23 33 L-38 33 L-45 0 L249 0 L256 33 L239 33 C197 33 183 45 183 78 C183 92 188 123 196 161 L232 332 L282 332 C332 332 344 322 344 279 C344 265 343 251 340 237 L339 229 L370 229 L419 462 L388 462 L387 456 C369 385 350 367 290 367 L240 367 L296 632 L400 632 C444 632 459 630 473 622 C498 608 514 567 514 520 C514 513 514 508 513 497 L544 497 L575 667 Z M420 305 L427 305 C451 305 463 297 463 280 C463 270 458 241 453 215 L433 120 C415 40 409 31 368 30 L362 30 L356 0 L555 0 L561 30 L552 30 C526 30 515 38 515 56 C515 68 518 92 524 120 L533 160 C546 220 555 242 579 272 C599 298 620 313 635 313 C644 313 650 307 654 292 C660 268 667 260 682 260 C706 260 727 286 727 316 C727 345 708 365 680 365 C637 365 587 328 552 272 C558 299 560 318 560 339 C560 349 560 354 558 365 C500 350 453 339 427 335 L420 305 Z " />
<glyph glyph-name="Euro" unicode="&#x20ac;" horiz-adv-x="724" d="M235 369 C284 549 365 641 476 641 C514 641 548 628 576 604 C612 572 628 521 628 440 L627 413 L656 413 L704 664 L674 664 C674 662 673 661 672 657 C666 639 650 606 636 587 C600 647 536 679 455 679 C297 679 153 555 95 369 L53 369 L31 332 L85 332 C84 326 82 317 80 309 L40 309 L18 272 L76 272 C75 258 74 242 74 238 C74 81 162 -13 309 -13 C392 -13 467 19 531 81 C541 61 545 42 544 13 L574 13 L624 252 L595 252 C545 110 454 28 347 28 C265 28 209 96 209 196 C209 216 211 243 215 272 L436 272 L458 309 L221 309 C223 316 224 321 226 332 L472 332 L494 369 L235 369 Z " />
<glyph glyph-name="trademark" unicode="&#x2122;" horiz-adv-x="808" d="M366 567 L388 667 L84 667 L63 567 L80 567 C95 628 114 645 164 645 L192 645 L129 348 C120 310 116 306 88 305 L70 305 L66 287 L245 287 L249 305 L231 305 C212 305 204 309 204 320 C204 326 206 338 208 348 L271 645 L299 645 C340 645 353 634 353 598 C353 588 352 580 350 567 L366 567 Z M403 667 L399 649 C431 649 439 646 439 635 C439 630 438 625 437 621 L379 346 C373 318 360 307 328 304 L324 287 L436 287 L440 304 C416 307 403 316 403 329 L403 331 L405 346 L464 622 L520 287 L531 287 L725 612 L668 346 C661 313 654 306 628 305 L615 305 L612 287 L773 287 L777 305 L766 305 C750 305 742 311 742 321 C742 327 743 338 745 346 L801 608 C808 641 814 648 839 649 L852 649 L856 667 L735 667 L573 395 L529 667 L403 667 Z " />
<glyph glyph-name="uni2126" unicode="&#x2126;" horiz-adv-x="768" d="M326 0 L308 155 C230 199 180 288 180 383 C180 434 196 493 221 540 C257 605 316 642 385 642 C454 642 513 605 549 540 C575 493 590 435 590 381 C590 288 540 199 462 155 L444 0 L736 0 L736 153 L712 153 C704 108 684 90 643 90 L497 90 L500 128 C535 141 557 151 580 166 C657 215 702 296 702 382 C702 449 673 522 625 578 C564 648 480 686 385 686 C290 686 206 648 145 578 C97 522 68 448 68 382 C68 296 114 215 190 166 C213 151 234 141 270 128 L273 90 L127 90 C86 90 66 108 58 153 L34 153 L34 0 L326 0 Z " />
<glyph glyph-name="partialdiff" unicode="&#x2202;" horiz-adv-x="494" d="M107 674 C152 697 184 706 219 706 C321 706 379 611 379 448 C379 418 377 395 372 346 C308 396 272 412 221 412 C172 412 131 394 95 355 C51 309 26 246 26 184 C26 76 109 -10 213 -10 C282 -10 341 23 383 84 C429 152 462 286 462 403 C462 519 428 611 360 681 C312 730 259 753 194 753 C155 753 121 746 66 725 L107 674 Z M366 312 C350 201 340 158 314 107 C288 54 245 21 201 21 C147 21 113 74 113 159 C113 273 180 367 261 367 C299 367 324 354 366 312 L366 312 Z " />
<glyph glyph-name="Delta" unicode="&#x2206;" horiz-adv-x="612" d="M6 0 L608 0 L327 688 L6 0 Z M77 51 L290 509 L479 51 L77 51 Z " />
<glyph glyph-name="product" unicode="&#x220f;" horiz-adv-x="823" d="M25 -124 L315 -124 L315 -98 L312 -98 C242 -94 221 -67 224 18 L224 594 C224 656 228 677 242 690 C260 707 271 708 413 708 C557 708 567 707 586 690 C600 677 604 656 604 594 L604 18 C607 -67 586 -94 516 -98 L513 -98 L513 -124 L803 -124 L803 -98 L800 -98 C730 -94 709 -67 712 18 L712 609 C709 694 730 721 800 725 L803 725 L803 751 L25 751 L25 725 L28 725 C98 721 119 694 116 609 L116 18 C119 -67 98 -94 28 -98 L25 -98 L25 -124 Z " />
<glyph glyph-name="summation" unicode="&#x2211;" horiz-adv-x="713" d="M176 711 L444 711 C560 710 590 688 606 587 L632 587 L622 752 L23 752 L256 285 L14 -123 L641 -123 L695 87 L669 87 C639 7 605 -12 491 -11 L163 -11 L364 341 L176 711 Z " />
<glyph glyph-name="minus" unicode="&#x2212;" horiz-adv-x="450" d="M24 379 L12 321 L433 321 L446 379 L24 379 Z " />
<glyph glyph-name="uni2215" unicode="&#x2215;" horiz-adv-x="133" d="M-138 0 L308 652 L269 652 L-178 0 L-138 0 Z " />
<glyph glyph-name="uni2219" unicode="&#x2219;" horiz-adv-x="252" d="M137 398 C99 398 63 359 63 318 C63 289 82 268 109 268 C147 268 183 307 183 348 C183 377 164 398 137 398 L137 398 Z " />
<glyph glyph-name="radical" unicode="&#x221a;" horiz-adv-x="549" d="M363 -35 L515 908 L480 913 L353 123 L156 520 L10 449 L26 414 L121 461 L363 -35 Z " />
<glyph glyph-name="infinity" unicode="&#x221e;" horiz-adv-x="713" d="M357 303 C300 375 234 414 171 414 C87 414 26 351 26 263 C26 176 84 115 167 115 C224 115 282 143 327 192 C335 201 340 207 357 228 C415 156 485 115 549 115 C631 115 688 176 688 266 C688 354 629 414 543 414 C476 414 412 376 357 303 L357 303 Z M391 265 C434 325 493 362 546 362 C600 362 638 321 638 264 C638 205 603 167 549 167 C495 167 461 188 391 265 L391 265 Z M324 266 C275 203 216 167 163 167 C111 167 76 208 76 266 C76 323 113 362 167 362 C218 362 259 337 324 266 L324 266 Z " />
<glyph glyph-name="integral" unicode="&#x222b;" horiz-adv-x="274" d="M180 576 C180 653 179 691 176 746 C174 774 173 800 173 815 C173 855 184 878 202 878 C208 878 213 876 215 872 C232 845 239 839 256 839 C276 839 291 853 291 871 C291 898 267 916 231 916 C186 916 152 887 138 838 C123 784 113 682 113 577 L113 232 C113 160 114 124 117 63 C119 34 120 4 120 -12 C120 -47 108 -70 89 -70 C81 -70 75 -65 68 -52 C59 -35 51 -30 37 -30 C17 -30 2 -44 2 -63 C2 -89 26 -107 62 -107 C107 -107 141 -79 155 -29 C170 25 180 126 180 232 L180 576 Z " />
<glyph glyph-name="approxequal" unicode="&#x2248;" horiz-adv-x="549" d="M489 251 C444 199 423 187 384 187 C365 187 354 190 285 211 C212 234 188 239 160 239 C101 239 54 212 14 155 L57 121 C103 174 120 184 159 184 C180 184 180 184 271 157 C350 133 354 132 385 132 C449 132 496 160 527 217 L489 251 Z M489 408 C443 356 424 344 384 344 C365 344 354 347 285 369 C211 392 188 397 160 397 C101 397 54 369 14 312 L57 279 C104 332 119 342 159 342 C181 342 181 342 271 315 C351 290 354 289 385 289 C449 289 496 318 527 375 L489 408 Z " />
<glyph glyph-name="notequal" unicode="&#x2260;" horiz-adv-x="549" d="M187 142 L115 -1 L161 -25 L246 142 L540 142 L540 197 L273 197 L344 336 L540 336 L540 391 L371 391 L439 525 L392 549 L312 391 L15 391 L15 336 L285 336 L215 197 L15 197 L15 142 L187 142 Z " />
<glyph glyph-name="lessequal" unicode="&#x2264;" horiz-adv-x="549" d="M467 55 L-30 55 L-42 0 L455 0 L467 55 Z M591 639 L44 405 L32 350 L480 117 L493 179 L117 378 L578 577 L591 639 Z " />
<glyph glyph-name="greaterequal" unicode="&#x2265;" horiz-adv-x="549" d="M467 55 L-30 55 L-42 0 L455 0 L467 55 Z M94 639 L81 577 L457 378 L-4 179 L-17 117 L529 350 L541 405 L94 639 Z " />
<glyph glyph-name="lozenge" unicode="&#x25ca;" horiz-adv-x="494" d="M209 0 L269 -1 L466 374 L277 740 L214 740 L18 377 L209 0 Z M240 58 L81 376 L245 683 L402 373 L240 58 Z " />
<glyph glyph-name="fi" unicode="&#xfb01;" horiz-adv-x="510" d="M19 370 L87 370 L36 131 C18 47 7 33 -38 32 L-45 32 L-52 0 L161 0 L168 32 L163 32 C132 32 122 41 122 67 C122 81 125 99 131 131 L182 370 L290 370 C332 370 341 364 341 336 C341 326 340 317 333 286 L300 131 C281 43 275 34 231 32 L224 32 L217 0 L430 0 L437 32 L430 32 C402 32 390 41 390 62 C390 75 393 96 401 131 L461 418 L452 418 C423 408 369 403 299 403 L189 403 L200 452 C218 537 230 574 250 600 C271 627 307 644 341 644 C372 644 388 631 397 597 C406 564 417 552 438 552 C465 552 491 579 491 607 C491 625 479 643 458 656 C436 670 403 677 358 677 C299 677 252 662 206 628 C152 588 121 533 101 439 L94 403 L26 403 L19 370 Z " />
<glyph glyph-name="fl" unicode="&#xfb02;" horiz-adv-x="510" d="M94 403 L26 403 L19 370 L87 370 L36 131 C18 47 8 33 -37 33 L-45 33 L-52 0 L160 0 L167 33 L163 33 C132 33 122 41 122 67 C122 80 125 99 132 131 L182 370 L350 370 L299 131 C281 43 275 34 230 33 L224 33 L217 0 L430 0 L437 33 L431 33 C402 33 391 41 391 62 C391 76 395 101 401 131 L517 677 L508 677 L501 676 C465 667 454 665 437 663 C414 672 385 677 355 677 C298 677 248 661 205 629 C153 590 121 531 101 435 L94 403 Z M189 403 L201 456 C218 538 231 575 251 601 C272 627 304 644 336 644 C364 644 381 630 390 598 C392 590 394 586 396 583 L357 403 L189 403 Z " />
</font>
</svg>
