<?xml version="1.0" encoding="UTF-8"?>
<svg xmlns="http://www.w3.org/2000/svg" xmlns:xlink="http://www.w3.org/1999/xlink" version="1.2" >
<font id="Baskerville URW Bold">
<font-face  font-family="Baskerville URW" units-per-em="1000" ascent="676" descent="-324" font-style="normal" font-weight="700" font-stretch="normal" cap-height="666" x-height="403" underline-position="-92" underline-thickness="73" />
<missing-glyph  horiz-adv-x="250" d="" />
<glyph glyph-name="NULL" d="" />
<glyph glyph-name="CR" unicode="&#xd;" horiz-adv-x="250" d="" />
<glyph glyph-name="space" unicode="&#x20;" horiz-adv-x="250" d="" />
<glyph glyph-name="exclam" unicode="&#x21;" horiz-adv-x="297" d="M166 210 L206 551 C209 575 211 596 211 608 C211 649 187 673 146 673 C102 673 78 650 78 608 C78 595 80 572 83 549 L123 210 L166 210 Z M144 137 C102 137 67 102 67 60 C67 18 102 -17 143 -17 C187 -17 221 17 221 60 C221 103 187 137 144 137 L144 137 Z " />
<glyph glyph-name="quotedbl" unicode="&#x22;" horiz-adv-x="438" d="M142 399 L183 667 L41 667 L81 399 L142 399 Z M357 399 L397 667 L256 667 L296 399 L357 399 Z " />
<glyph glyph-name="numbersign" unicode="&#x23;" horiz-adv-x="580" d="M386 227 L496 227 L506 283 L402 283 L428 397 L538 397 L547 453 L444 453 L498 667 L436 667 L382 453 L265 453 L319 667 L258 667 L204 453 L87 453 L77 397 L189 397 L162 283 L44 283 L34 227 L147 227 L89 0 L150 0 L208 227 L325 227 L267 0 L329 0 L386 227 Z M367 397 L340 283 L223 283 L250 397 L367 397 Z " />
<glyph glyph-name="dollar" unicode="&#x24;" horiz-adv-x="531" d="M279 -123 L279 -13 C402 -1 482 77 482 185 C482 232 464 278 434 306 C398 341 368 359 289 393 L279 397 L279 609 C326 601 351 581 361 542 C374 497 391 478 417 478 C441 478 462 500 462 526 C462 591 379 648 279 652 L279 680 L234 680 L234 650 C189 644 159 634 130 614 C87 586 59 532 59 476 C59 423 82 376 126 340 C149 322 165 312 216 289 L234 281 L234 31 C190 38 165 58 150 100 C137 132 123 144 99 144 C72 144 52 123 52 96 C52 38 127 -8 234 -15 L234 -123 L279 -123 Z M279 259 L288 254 L314 241 C367 215 388 185 388 139 C388 80 346 38 279 30 L279 259 Z M234 416 C169 445 146 471 146 518 C146 561 178 599 220 605 L228 606 L234 608 L234 416 Z " />
<glyph glyph-name="percent" unicode="&#x25;" horiz-adv-x="746" d="M179 680 C140 680 106 668 83 645 C49 613 28 559 28 505 C28 400 85 334 174 334 C216 334 250 346 275 369 C307 399 327 452 327 507 C327 556 311 605 284 636 C259 666 225 680 179 680 L179 680 Z M178 645 C215 645 231 605 231 509 C231 410 215 366 178 366 C139 366 124 404 124 500 C124 605 139 645 178 645 L178 645 Z M230 0 L573 660 L516 660 L173 0 L230 0 Z M570 333 C531 333 497 321 473 298 C440 266 419 213 419 159 C419 53 476 -12 567 -12 C659 -12 718 56 718 161 C718 210 702 258 676 289 C650 319 616 333 570 333 L570 333 Z M569 300 C606 300 622 259 622 163 C622 66 605 22 569 22 C530 22 515 59 515 155 C515 260 530 300 569 300 L569 300 Z " />
<glyph glyph-name="ampersand" unicode="&#x26;" horiz-adv-x="751" d="M412 288 L334 391 C411 431 452 482 452 537 C452 606 392 654 306 654 C211 654 148 596 148 509 C148 467 162 429 200 368 C89 301 43 242 43 165 C43 66 130 -15 237 -15 C300 -15 360 11 426 67 C475 13 529 -14 587 -14 C637 -14 685 8 709 43 C723 63 730 86 733 121 L690 121 C681 80 663 61 630 61 C594 61 562 85 520 143 C515 149 515 150 510 157 C534 190 543 204 569 254 C610 328 635 351 685 363 L685 406 L481 406 L481 363 C517 360 536 345 536 320 L536 319 L535 318 L535 316 L535 315 C536 294 510 237 480 196 L412 288 Z M390 108 L393 103 C366 77 334 62 302 62 C232 62 159 143 159 223 C159 261 185 299 228 327 C275 265 292 241 348 165 L390 108 Z M304 431 C264 483 247 518 247 549 C247 584 272 609 307 609 C347 609 376 577 376 535 C376 495 355 465 304 431 L304 431 Z " />
<glyph glyph-name="quotesingle" unicode="&#x27;" horiz-adv-x="244" d="M155 399 L196 667 L49 667 L90 399 L155 399 Z " />
<glyph glyph-name="parenleft" unicode="&#x28;" horiz-adv-x="311" d="M296 -243 C202 -130 144 44 144 218 C144 394 191 539 295 677 L232 677 C135 558 80 392 80 218 C80 46 141 -137 234 -243 L296 -243 Z " />
<glyph glyph-name="parenright" unicode="&#x29;" horiz-adv-x="311" d="M77 -243 C170 -137 231 46 231 218 C231 391 177 555 79 677 L17 677 C121 535 167 394 167 218 C167 45 109 -131 15 -243 L77 -243 Z " />
<glyph glyph-name="asterisk" unicode="&#x2a;" horiz-adv-x="496" d="M216 428 C205 413 178 396 136 378 C86 357 66 337 66 309 C66 279 95 252 129 252 C159 252 178 272 193 320 C209 369 227 397 247 406 C258 402 280 372 290 347 C317 272 332 252 364 252 C396 252 426 279 426 309 C426 338 404 358 350 381 C311 398 291 410 275 428 C295 438 329 446 351 446 C358 446 365 446 377 444 C385 443 393 443 400 443 C439 443 469 469 469 503 C469 536 444 564 414 564 C395 564 375 553 349 528 C309 489 293 476 264 464 C263 469 263 471 263 474 C263 494 270 525 282 555 C298 595 301 606 301 624 C301 653 277 676 244 676 C213 676 188 653 188 624 C188 608 196 578 210 547 C221 521 228 495 228 476 C228 472 228 469 227 464 C208 469 183 488 154 516 C120 550 101 561 79 561 C50 561 25 533 25 502 C25 466 55 442 100 442 C106 442 110 442 114 443 C139 445 139 445 143 445 C160 445 202 435 216 428 L216 428 Z " />
<glyph glyph-name="plus" unicode="&#x2b;" horiz-adv-x="500" d="M9 396 L9 323 L211 323 L211 123 L287 123 L287 323 L491 323 L491 396 L287 396 L287 596 L211 596 L211 396 L9 396 Z " />
<glyph glyph-name="comma" unicode="&#x2c;" horiz-adv-x="307" d="M59 -197 C167 -187 240 -107 240 -2 C240 79 199 133 138 133 C92 133 60 101 60 55 C60 15 89 -15 128 -15 C134 -15 139 -14 143 -13 C157 -10 157 -10 162 -10 C174 -10 182 -21 182 -36 C182 -90 131 -138 59 -150 L59 -197 Z " />
<glyph glyph-name="hyphen" unicode="&#x2d;" horiz-adv-x="335" d="M32 247 L32 182 L306 182 L306 247 L32 247 Z " />
<glyph glyph-name="period" unicode="&#x2e;" horiz-adv-x="307" d="M153 137 C111 137 76 102 76 60 C76 18 111 -17 152 -17 C196 -17 230 17 230 60 C230 103 196 137 153 137 L153 137 Z " />
<glyph glyph-name="slash" unicode="&#x2f;" horiz-adv-x="318" d="M284 681 L200 681 L-15 -253 L68 -253 L284 681 Z " />
<glyph glyph-name="zero" unicode="0" horiz-adv-x="531" d="M265 626 C296 626 320 605 334 565 C347 530 354 444 354 328 C354 227 348 139 338 105 C325 57 300 31 266 31 C233 31 210 51 196 92 C183 127 176 212 176 327 C176 430 182 518 192 552 C205 601 230 626 265 626 L265 626 Z M265 672 C188 672 121 627 82 551 C53 494 39 419 39 326 C39 228 54 157 88 96 C126 27 193 -15 262 -15 C345 -15 410 30 451 114 C479 170 491 238 491 330 C491 432 477 500 442 561 C402 632 338 672 265 672 L265 672 Z " />
<glyph glyph-name="one" unicode="1" horiz-adv-x="531" d="M118 579 L131 579 C194 578 209 560 208 488 L208 122 C205 60 193 44 147 44 L126 44 L126 0 L419 0 L419 44 L396 44 C346 45 336 60 337 131 L337 672 L295 672 C245 639 197 625 118 622 L118 579 Z " />
<glyph glyph-name="two" unicode="2" horiz-adv-x="531" d="M57 0 L370 0 C400 0 409 -5 409 -20 C409 -24 409 -26 407 -33 L405 -44 L447 -44 L473 86 L181 86 C215 118 246 150 300 208 C442 359 472 409 472 487 C472 597 387 672 264 672 C150 672 57 601 57 513 C57 470 79 416 97 416 C104 416 122 424 144 436 C149 438 152 440 154 441 C167 448 172 452 172 456 C172 460 170 464 163 472 C147 490 139 511 139 534 C139 584 180 624 232 624 C294 624 335 572 335 492 C335 409 302 325 230 227 C178 157 125 99 57 41 L57 0 Z " />
<glyph glyph-name="three" unicode="3" horiz-adv-x="531" d="M313 381 C311 380 310 380 309 380 C308 380 308 380 308 381 C308 387 313 390 341 405 C407 437 453 497 453 549 C453 621 380 672 276 672 C160 672 67 605 67 521 C67 483 85 451 106 451 C111 451 116 452 119 453 L132 460 C133 460 137 462 143 464 C167 474 180 481 180 486 C180 488 179 491 176 494 C158 514 152 526 152 547 C152 589 193 625 241 625 C291 625 324 588 324 531 C324 489 311 456 281 425 C260 402 234 381 211 367 C179 348 165 334 165 321 C165 307 176 294 189 294 C199 294 203 297 220 314 C237 331 251 338 269 338 C314 338 336 295 336 206 C336 148 329 109 314 83 C295 50 259 29 220 29 C186 29 165 45 152 82 C137 125 123 138 95 138 C66 138 42 114 42 86 C42 29 114 -15 209 -15 C360 -15 472 82 472 213 C472 316 411 381 316 381 L313 381 Z " />
<glyph glyph-name="four" unicode="4" horiz-adv-x="531" d="M265 226 L265 129 C266 62 253 44 202 44 L180 44 L180 0 L475 0 L475 44 L455 44 C406 45 394 63 395 132 L395 226 L495 226 L508 314 L479 314 L475 304 C469 293 466 287 462 285 C460 283 453 282 436 281 L395 281 L395 669 L328 669 L34 285 L34 226 L265 226 Z M265 281 L85 281 L265 518 L265 281 Z " />
<glyph glyph-name="five" unicode="5" horiz-adv-x="531" d="M144 337 C166 377 192 395 229 395 C263 395 293 378 308 352 C324 325 330 288 330 227 C330 94 294 30 219 30 C184 30 159 46 144 79 C122 125 110 137 84 137 C56 137 33 114 33 88 C33 31 111 -15 206 -15 C360 -15 468 85 468 228 C468 352 380 445 262 445 C214 445 174 429 141 397 L146 570 L343 570 C370 568 382 583 413 660 L106 660 L94 337 L144 337 Z " />
<glyph glyph-name="six" unicode="6" horiz-adv-x="531" d="M192 379 C192 530 238 624 311 624 C340 624 358 614 374 587 C392 558 409 546 430 546 C456 546 477 567 477 593 C477 636 417 672 343 672 C171 672 52 514 52 284 C52 102 141 -15 281 -15 C404 -15 496 81 496 210 C496 287 467 346 410 383 C376 405 336 417 296 417 C255 417 222 405 192 379 L192 379 Z M271 373 C331 373 360 318 360 205 C360 79 337 30 278 30 C217 30 185 103 185 242 C185 327 216 373 271 373 L271 373 Z " />
<glyph glyph-name="seven" unicode="7" horiz-adv-x="531" d="M480 660 L190 660 C164 660 155 664 155 676 C155 678 155 680 156 683 L115 683 L57 504 L100 504 L101 506 L102 511 C117 552 126 557 176 556 L398 556 L196 131 C163 62 160 53 160 33 C160 6 184 -15 214 -15 C251 -15 274 14 297 87 L480 660 Z " />
<glyph glyph-name="eight" unicode="8" horiz-adv-x="531" d="M267 630 C292 630 317 616 328 594 C339 573 344 545 344 499 C344 453 339 426 328 404 C317 382 292 368 267 368 C214 368 189 409 189 497 C189 545 193 572 205 594 C217 616 241 630 267 630 L267 630 Z M268 324 C330 324 357 279 357 176 C357 73 330 29 266 29 C203 29 176 73 176 175 C176 281 202 324 268 324 L268 324 Z M332 349 C426 374 474 427 474 506 C474 605 389 674 269 674 C143 674 60 607 60 506 C60 427 113 369 204 349 C97 330 41 270 41 174 C41 126 56 84 86 53 C125 11 195 -15 267 -15 C404 -15 493 60 493 177 C493 272 436 332 332 349 L332 349 Z " />
<glyph glyph-name="nine" unicode="9" horiz-adv-x="531" d="M353 277 C348 184 345 160 331 119 C314 64 276 32 231 32 C203 32 185 42 167 69 C147 100 135 108 112 108 C85 108 65 88 65 63 C65 19 124 -15 198 -15 C281 -15 358 23 407 87 C459 155 490 263 490 376 C490 557 401 672 262 672 C138 672 46 576 46 448 C46 325 131 235 248 235 C278 235 302 242 324 257 C346 272 346 272 353 277 L353 277 Z M267 628 C326 628 358 563 358 444 C358 333 330 283 269 283 C243 283 218 298 206 321 C188 354 182 392 182 468 C182 534 187 564 201 590 C214 614 239 628 267 628 L267 628 Z " />
<glyph glyph-name="colon" unicode="&#x3a;" horiz-adv-x="307" d="M155 137 C113 137 78 102 78 60 C78 18 113 -17 154 -17 C198 -17 232 17 232 60 C232 103 198 137 155 137 L155 137 Z M155 423 C113 423 78 388 78 347 C78 303 112 269 155 269 C198 269 232 303 232 346 C232 389 198 423 155 423 L155 423 Z " />
<glyph glyph-name="semicolon" unicode="&#x3b;" horiz-adv-x="307" d="M59 -197 C167 -187 240 -107 240 -2 C240 79 199 133 138 133 C92 133 60 101 60 55 C60 15 89 -15 128 -15 C134 -15 139 -14 143 -13 C157 -10 157 -10 162 -10 C174 -10 182 -21 182 -36 C182 -90 131 -138 59 -150 L59 -197 Z M149 423 C106 423 72 388 72 346 C72 304 106 269 147 269 C191 269 225 303 225 346 C225 389 191 423 149 423 L149 423 Z " />
<glyph glyph-name="less" unicode="&#x3c;" horiz-adv-x="500" d="M460 633 L39 369 L39 361 L460 73 L460 239 L207 411 L460 571 L460 633 Z " />
<glyph glyph-name="equal" unicode="&#x3d;" horiz-adv-x="500" d="M9 471 L9 400 L491 400 L491 471 L9 471 Z M9 320 L9 249 L491 249 L491 320 L9 320 Z " />
<glyph glyph-name="greater" unicode="&#x3e;" horiz-adv-x="500" d="M39 73 L460 337 L460 346 L39 633 L39 468 L292 296 L39 136 L39 73 Z " />
<glyph glyph-name="question" unicode="&#x3f;" horiz-adv-x="454" d="M161 137 C118 137 84 102 84 60 C84 18 119 -17 160 -17 C203 -17 238 17 238 59 C238 103 204 137 161 137 L161 137 Z M136 209 L184 209 L184 326 C206 314 226 309 251 309 C341 309 409 381 409 478 C409 594 326 673 203 673 C117 673 43 628 43 576 C43 554 63 536 87 536 C110 536 125 549 135 578 C147 615 163 629 194 629 C247 629 279 574 279 481 C279 406 256 363 215 363 C198 363 185 371 174 387 L136 387 L136 209 Z " />
<glyph glyph-name="at" unicode="&#x40;" horiz-adv-x="783" d="M501 477 C476 510 446 525 409 525 C367 525 332 509 295 473 C240 419 207 340 207 265 C207 194 256 137 318 137 C352 137 396 160 423 191 L433 203 C434 203 436 201 436 199 L436 198 C436 192 445 175 455 163 C467 149 487 140 507 140 C618 140 723 267 723 401 C723 560 592 679 417 679 C218 679 60 523 60 326 C60 139 209 -12 393 -12 C471 -12 551 17 606 65 C630 87 651 109 680 146 L630 150 C602 121 589 109 571 95 C524 57 460 35 398 35 C240 35 110 165 110 324 C110 498 245 634 417 634 C565 634 677 531 677 397 C677 341 655 283 618 239 C588 204 554 182 529 182 C515 182 503 195 503 211 C503 218 504 226 507 236 L508 242 C511 254 513 263 514 266 L588 515 C560 512 543 512 510 511 L501 477 Z M450 329 C449 327 449 325 447 320 C444 309 442 302 441 301 C431 269 422 248 412 232 C389 195 361 175 334 175 C304 175 284 199 284 234 C284 305 318 399 364 454 C382 475 406 488 430 488 C457 488 479 463 479 432 C479 426 474 399 470 389 L450 329 Z " />
<glyph glyph-name="A" unicode="A" horiz-adv-x="657" d="M671 0 L671 44 L666 44 C617 50 603 65 564 157 L350 678 L306 678 L101 170 C69 87 38 51 -6 44 L-13 44 L-13 0 L200 0 L200 44 L192 44 C155 44 129 63 129 91 C129 107 133 122 153 170 L166 202 L387 202 L417 128 C428 101 435 81 435 74 C435 53 414 44 370 44 L363 44 L363 0 L671 0 Z M369 247 L183 247 L275 475 L369 247 Z " />
<glyph glyph-name="B" unicode="B" horiz-adv-x="666" d="M30 665 L30 621 L39 621 C105 622 122 601 123 518 L123 149 C124 69 104 43 41 44 L28 44 L28 0 L348 0 C430 0 483 7 523 25 C588 53 626 109 626 178 C626 238 596 287 539 321 C509 338 475 348 420 356 C540 384 594 433 594 512 C594 562 567 608 524 633 C476 661 413 672 309 672 C276 672 276 672 161 668 L30 665 Z M271 331 L290 331 C375 331 405 323 431 293 C454 267 463 232 463 175 C463 140 458 117 447 98 C429 66 390 47 341 47 C284 47 271 69 271 166 L271 331 Z M271 378 L271 625 C279 626 285 626 294 626 C398 626 434 594 434 502 C434 447 419 413 387 395 C365 382 342 378 290 378 L284 378 L276 378 L271 378 Z " />
<glyph glyph-name="C" unicode="C" horiz-adv-x="736" d="M630 254 C617 187 584 121 548 91 C508 58 458 40 410 40 C343 40 281 75 249 131 C223 176 211 239 211 329 C211 527 276 628 405 628 C468 628 531 598 565 552 C593 515 611 472 624 412 L667 412 L661 661 L618 661 C612 634 605 614 595 593 C540 650 467 679 380 679 C186 679 43 529 43 326 C43 130 184 -13 377 -13 C467 -13 546 19 600 76 C615 58 623 40 630 10 L673 10 L673 254 L630 254 Z " />
<glyph glyph-name="D" unicode="D" horiz-adv-x="787" d="M29 665 L29 622 L40 622 C106 623 124 601 124 519 L124 149 C125 68 105 43 42 44 L28 44 L28 0 L287 0 C428 0 481 4 530 20 C663 64 744 180 744 328 C744 471 671 582 544 632 C475 659 375 672 232 672 C171 672 146 671 36 666 L29 665 Z M272 626 C289 627 298 627 312 627 C397 627 445 612 491 571 C548 521 576 440 576 325 C576 187 531 90 456 66 C420 54 382 47 353 47 C286 47 272 69 272 171 L272 626 Z " />
<glyph glyph-name="E" unicode="E" horiz-adv-x="656" d="M582 215 C548 90 500 45 398 47 L370 47 C290 44 268 70 271 164 L271 327 L338 327 C403 326 418 311 419 243 L419 235 L464 235 L464 462 L419 462 L419 455 C417 389 403 375 336 374 L271 374 L271 621 L384 621 C476 624 509 597 537 496 L581 496 L570 667 L33 667 L33 624 L44 624 C103 626 123 599 123 521 L123 149 C124 69 103 42 41 44 L28 44 L28 0 L618 0 L626 215 L582 215 Z " />
<glyph glyph-name="F" unicode="F" horiz-adv-x="585" d="M572 667 L28 667 L28 624 L40 624 C105 625 122 605 123 521 L123 149 C123 68 105 44 41 44 L28 44 L28 0 L371 0 L371 44 L354 44 C292 42 270 69 271 149 L271 326 L327 326 C388 325 402 310 407 237 L407 230 L452 230 L452 461 L407 461 L407 454 C402 388 388 374 327 373 L271 373 L271 621 L387 621 C473 624 507 595 532 494 L577 494 L572 667 Z " />
<glyph glyph-name="G" unicode="G" horiz-adv-x="782" d="M459 300 L459 256 L469 256 C525 252 541 238 543 186 L543 161 C543 131 539 108 531 94 C512 60 462 37 405 37 C336 37 281 67 251 119 C226 164 214 227 214 319 C214 406 225 475 245 521 C275 587 336 625 413 625 C518 625 593 557 622 436 L665 436 L662 667 L619 667 C616 639 610 618 599 595 C538 653 469 680 385 680 C298 680 219 650 160 595 C86 526 43 426 43 325 C43 132 188 -13 381 -13 C432 -13 467 -7 543 13 C591 26 638 34 671 34 C676 34 681 34 692 32 L692 149 C691 234 700 249 754 255 L762 256 L762 300 L459 300 Z " />
<glyph glyph-name="H" unicode="H" horiz-adv-x="835" d="M567 377 L268 377 L268 521 C269 603 286 624 351 623 L359 623 L359 667 L28 667 L28 623 L37 623 C102 625 119 603 120 521 L120 149 C121 70 100 42 39 44 L28 44 L28 0 L359 0 L359 44 L350 44 C289 42 267 70 268 149 L268 325 L567 325 L567 149 C568 70 546 42 485 44 L476 44 L476 0 L807 0 L807 44 L796 44 C735 42 714 70 715 149 L715 521 C716 603 733 625 798 623 L807 623 L807 667 L476 667 L476 623 L484 623 C549 624 566 603 567 521 L567 377 Z " />
<glyph glyph-name="I" unicode="I" horiz-adv-x="393" d="M28 623 L38 623 C105 624 121 604 122 521 L122 149 C122 68 103 44 40 44 L28 44 L28 0 L364 0 L364 44 L351 44 C288 44 270 68 270 149 L270 521 C271 604 287 624 352 623 L364 623 L364 667 L28 667 L28 623 Z " />
<glyph glyph-name="J" unicode="J" horiz-adv-x="393" d="M31 667 L31 623 L48 623 C115 624 131 604 132 521 L132 27 C132 -79 127 -114 107 -150 C91 -178 64 -194 29 -194 C2 -194 -16 -184 -16 -169 C-16 -166 -15 -160 -13 -154 C-10 -145 -8 -136 -8 -129 C-8 -98 -36 -74 -74 -74 C-116 -74 -148 -103 -148 -141 C-148 -199 -80 -238 22 -238 C100 -238 165 -217 210 -177 C264 -130 280 -76 280 57 L280 521 C281 604 297 624 363 623 L374 623 L374 667 L31 667 Z " />
<glyph glyph-name="K" unicode="K" horiz-adv-x="781" d="M272 339 L272 521 C273 604 289 624 355 623 L366 623 L366 667 L31 667 L31 623 L40 623 C107 624 123 604 124 521 L124 149 C124 68 105 44 42 44 L28 44 L28 0 L359 0 L359 44 L353 44 C291 43 271 68 272 149 L272 274 L333 330 L499 119 C519 94 525 84 525 74 C525 53 502 44 451 44 L442 44 L442 0 L813 0 L813 44 L807 44 C747 45 711 70 645 160 L439 426 L520 501 C623 596 661 618 725 623 L732 623 L732 667 L452 667 L452 623 L459 623 C494 623 515 611 515 589 C515 570 498 546 460 511 L272 339 Z " />
<glyph glyph-name="L" unicode="L" horiz-adv-x="639" d="M625 213 L582 213 C550 90 501 47 396 47 L370 47 C284 49 269 64 271 151 L271 521 C272 604 288 624 354 623 L373 623 L373 667 L28 667 L28 623 L39 623 C106 624 122 604 123 521 L123 148 C123 67 105 44 41 44 L28 44 L28 0 L622 0 L625 213 Z " />
<glyph glyph-name="M" unicode="M" horiz-adv-x="983" d="M269 667 L24 667 L24 623 L34 623 C101 624 119 602 119 519 L119 189 C123 88 100 51 29 44 L24 44 L24 0 L263 0 L263 44 L258 44 C186 51 163 87 166 186 L166 546 L419 0 L453 0 L705 552 L705 149 C705 68 687 44 624 44 L607 44 L607 0 L955 0 L955 44 L935 44 C871 44 852 68 853 149 L853 521 C854 605 869 624 937 623 L954 623 L954 667 L707 667 L488 190 L269 667 Z " />
<glyph glyph-name="N" unicode="N" horiz-adv-x="778" d="M665 -12 L665 513 C662 584 683 611 748 623 L756 623 L756 667 L516 667 L516 623 L524 623 C590 618 616 588 615 517 L615 221 L240 667 L24 667 L24 623 L29 623 C96 624 117 598 121 507 L121 162 C121 109 119 98 112 86 C99 62 63 44 29 44 L24 44 L24 0 L274 0 L274 44 L263 44 C226 44 190 65 177 93 C172 106 172 111 171 163 L171 522 L616 -12 L665 -12 Z " />
<glyph glyph-name="O" unicode="O" horiz-adv-x="825" d="M413 628 C487 628 550 588 579 520 C600 473 609 413 609 330 C609 254 599 193 579 146 C551 79 488 38 413 38 C338 38 275 79 247 146 C226 194 217 253 217 333 C217 413 227 472 247 520 C275 587 338 628 413 628 L413 628 Z M419 679 C312 679 216 646 153 589 C83 524 43 432 43 334 C43 129 194 -13 412 -13 C630 -13 782 129 782 332 C782 533 629 679 419 679 L419 679 Z " />
<glyph glyph-name="P" unicode="P" horiz-adv-x="638" d="M28 667 L28 623 L43 623 C109 624 125 604 126 521 L126 148 C126 68 108 44 45 44 L31 44 L31 0 L373 0 L373 44 L355 44 C292 44 274 68 274 148 L274 301 L352 301 C426 301 473 308 513 325 C578 354 617 414 617 487 C617 552 585 608 531 636 C478 665 432 673 331 673 C283 673 219 672 152 670 C107 669 75 668 62 668 L28 667 Z M274 349 L274 625 L299 625 C351 625 376 620 400 607 C436 587 457 541 457 484 C457 428 437 385 403 366 C379 353 357 349 311 349 L274 349 Z " />
<glyph glyph-name="Q" unicode="Q" horiz-adv-x="824" d="M528 1 C685 44 782 170 782 331 C782 418 751 501 695 565 C630 638 530 679 412 679 C196 679 43 535 43 332 C43 207 105 95 208 37 C260 7 337 -13 399 -13 C406 -13 412 -13 421 -12 L378 -36 C263 -103 242 -119 242 -140 C242 -157 253 -169 268 -169 C281 -169 293 -162 310 -145 C345 -111 366 -100 401 -100 C443 -100 493 -121 539 -159 C598 -206 598 -206 613 -215 C654 -241 697 -253 749 -253 C864 -253 940 -189 957 -78 L915 -78 C894 -117 851 -139 797 -139 C766 -139 709 -130 687 -122 C613 -93 613 -93 595 -88 C536 -69 474 -57 441 -57 L429 -57 L528 1 Z M412 628 C487 628 549 587 578 520 C599 473 608 413 608 330 C608 254 598 193 578 146 C550 79 487 38 412 38 C338 38 275 79 247 146 C226 194 217 254 217 333 C217 412 227 472 247 520 C275 587 338 628 412 628 L412 628 Z " />
<glyph glyph-name="R" unicode="R" horiz-adv-x="724" d="M756 0 L756 44 L750 44 C699 47 666 76 595 179 C525 283 505 307 470 329 C574 358 624 411 624 494 C624 558 589 611 526 640 C483 661 389 672 262 672 C242 672 224 672 208 671 C189 670 176 669 173 669 L30 667 L30 623 L43 623 C109 624 125 604 126 521 L126 149 C126 68 108 44 44 44 L28 44 L28 0 L374 0 L374 44 L355 44 C292 44 274 68 274 149 L274 303 L280 303 C355 307 361 301 446 158 C492 79 529 27 558 0 L756 0 Z M274 351 L274 621 C287 622 296 622 307 622 C389 622 426 608 449 567 C461 547 467 521 467 489 C467 431 449 390 415 371 C391 356 358 351 295 351 L289 351 L274 351 Z " />
<glyph glyph-name="S" unicode="S" horiz-adv-x="559" d="M56 10 L103 10 C108 34 114 52 123 67 C167 16 233 -13 304 -13 C428 -13 521 73 521 188 C521 240 501 289 466 325 C437 355 390 382 301 420 C201 464 167 496 167 547 C167 597 206 632 262 632 C336 632 396 574 421 478 L464 478 L464 667 L419 667 C414 639 412 634 400 617 C357 659 309 679 253 679 C142 679 57 598 57 492 C57 444 75 398 106 366 C137 333 176 310 278 262 C365 222 401 185 401 136 C401 79 353 37 289 37 C231 37 181 67 145 122 C128 149 115 182 103 233 L56 233 L56 10 Z " />
<glyph glyph-name="T" unicode="T" horiz-adv-x="693" d="M59 487 C79 599 100 620 200 620 L271 620 L271 149 C271 68 252 43 189 44 L167 44 L167 0 L523 0 L523 44 L501 44 C438 43 419 68 419 149 L419 620 L493 620 C584 620 608 598 633 487 L677 487 L676 667 L16 667 L15 487 L59 487 Z " />
<glyph glyph-name="U" unicode="U" horiz-adv-x="775" d="M518 667 L518 623 L524 623 C590 621 618 587 617 511 L617 286 C616 188 616 188 609 167 C585 93 513 44 428 44 C365 44 310 72 284 118 C265 151 259 189 259 275 L259 521 C260 604 276 624 342 623 L354 623 L354 667 L18 667 L18 623 L28 623 C94 624 110 604 111 521 L111 285 L111 235 C112 179 121 141 143 103 C186 31 278 -13 386 -13 C513 -13 604 37 645 129 C662 167 667 201 667 284 L667 519 C665 584 690 616 750 623 L757 623 L757 667 L518 667 Z " />
<glyph glyph-name="V" unicode="V" horiz-adv-x="710" d="M389 -14 L590 458 C649 599 664 619 711 623 L724 623 L724 667 L499 667 L499 623 L505 623 C548 623 576 604 576 575 C576 559 567 529 553 495 L416 170 L261 520 C247 551 239 577 239 590 C239 612 265 623 313 623 L319 623 L319 667 L-13 667 L-13 623 L-7 623 C54 620 65 609 104 520 C106 513 109 507 110 503 L339 -14 L389 -14 Z " />
<glyph glyph-name="W" unicode="W" horiz-adv-x="941" d="M708 -14 L846 472 C880 592 898 619 944 623 L952 623 L952 667 L749 667 L749 623 L754 623 C791 623 816 601 816 567 C816 554 811 527 803 500 L720 201 L542 667 L482 667 L330 201 L228 529 C221 554 216 577 216 588 C216 610 234 622 271 623 L276 623 L276 667 L-10 667 L-10 623 L-4 623 C45 621 54 610 85 511 L247 -14 L307 -14 L466 468 L650 -14 L708 -14 Z " />
<glyph glyph-name="X" unicode="X" horiz-adv-x="794" d="M755 667 L493 667 L493 623 L501 623 C544 623 565 613 565 592 C565 579 555 560 534 536 L430 415 L328 544 C309 568 300 584 300 597 C300 616 315 623 352 623 L360 623 L360 667 L15 667 L15 623 L20 623 C78 622 96 609 163 522 L173 509 L331 310 L196 159 C125 74 82 46 21 44 L16 44 L16 0 L297 0 L297 44 L284 44 C244 44 220 60 220 86 C220 104 230 122 258 153 L362 272 L466 140 C489 111 499 93 499 79 C499 54 476 44 421 44 L416 44 L416 0 L797 0 L797 44 L794 44 C728 48 709 62 622 172 L461 378 L571 505 C647 592 680 614 743 623 L755 623 L755 667 Z " />
<glyph glyph-name="Y" unicode="Y" horiz-adv-x="662" d="M-13 667 L-13 623 L-7 623 C44 616 51 610 101 526 L256 267 L256 149 C256 68 238 44 175 44 L164 44 L164 0 L497 0 L497 44 L487 44 C423 44 405 68 405 149 L405 277 L549 512 C597 592 625 618 669 623 L674 623 L674 667 L449 667 L449 623 L454 623 C496 623 519 606 519 576 C519 561 512 541 496 515 L386 332 L260 541 C243 568 238 581 238 592 C238 613 257 623 295 623 L300 623 L300 667 L-13 667 Z " />
<glyph glyph-name="Z" unicode="Z" horiz-adv-x="665" d="M33 0 L612 0 L627 190 L583 190 C540 69 507 45 384 47 L214 47 L607 630 L607 667 L68 667 L54 497 L96 497 C129 601 165 625 284 621 L426 621 L33 35 L33 0 Z " />
<glyph glyph-name="bracketleft" unicode="&#x5b;" horiz-adv-x="402" d="M394 -235 L394 -192 L301 -192 C254 -192 243 -178 243 -118 L243 550 C241 608 254 624 301 624 L394 624 L394 667 L127 667 L127 -235 L394 -235 Z " />
<glyph glyph-name="backslash" unicode="&#x5c;" horiz-adv-x="500" d="M425 -116 L137 687 L74 687 L363 -116 L425 -116 Z " />
<glyph glyph-name="bracketright" unicode="&#x5d;" horiz-adv-x="402" d="M274 667 L7 667 L7 624 L100 624 C146 624 159 608 158 550 L158 -118 C159 -176 146 -192 100 -192 L7 -192 L7 -235 L274 -235 L274 667 Z " />
<glyph glyph-name="asciicircum" unicode="&#x5e;" horiz-adv-x="500" d="M530 279 L266 700 L258 700 L-30 279 L136 279 L308 532 L468 279 L530 279 Z " />
<glyph glyph-name="underscore" unicode="&#x5f;" horiz-adv-x="500" d="M9 -92 L9 -165 L491 -165 L491 -92 L9 -92 Z " />
<glyph glyph-name="grave" unicode="&#x60;" horiz-adv-x="500" d="M307 488 L227 649 L74 649 L74 642 L273 488 L307 488 Z " />
<glyph glyph-name="a" unicode="a" horiz-adv-x="534" d="M496 84 C492 62 480 49 464 49 C443 49 436 65 436 108 L436 287 C436 337 431 353 410 375 C382 405 334 419 262 419 C143 419 53 375 53 316 C53 290 74 272 103 272 C135 272 154 288 160 323 C163 341 168 353 174 359 C185 368 208 375 231 375 C254 375 277 368 289 358 C302 349 307 330 307 298 L307 267 L267 252 C248 244 233 238 224 235 C154 208 101 178 67 149 C50 134 38 105 38 80 C38 26 83 -10 150 -10 C203 -10 259 10 313 49 C330 10 366 -10 417 -10 C485 -10 526 25 529 84 L496 84 Z M307 223 L307 93 C276 65 246 50 220 50 C190 50 166 75 166 107 C166 151 202 181 301 221 L307 223 Z " />
<glyph glyph-name="b" unicode="b" horiz-adv-x="588" d="M13 606 L17 606 C65 606 79 586 79 526 L79 -12 L113 -12 C122 -1 162 37 188 60 C229 11 281 -13 344 -13 C465 -13 551 78 551 205 C551 329 466 419 348 419 C297 419 254 403 208 365 L208 678 L201 678 C160 666 84 654 13 649 L13 606 Z M208 311 C243 348 276 365 312 365 C377 365 412 308 412 204 C412 94 374 37 302 37 C268 37 236 54 223 79 C217 92 208 121 208 131 L208 311 Z " />
<glyph glyph-name="c" unicode="c" horiz-adv-x="473" d="M409 116 C390 64 350 36 294 36 C212 36 174 94 174 219 C174 323 209 376 277 376 C308 376 321 366 327 340 C338 292 354 274 387 274 C416 274 438 297 438 328 C438 381 374 419 283 419 C141 419 35 323 35 194 C35 71 129 -16 261 -16 C356 -16 423 26 450 101 L409 116 Z " />
<glyph glyph-name="d" unicode="d" horiz-adv-x="585" d="M573 50 L566 50 C519 50 506 68 506 133 L505 676 L498 676 C457 664 380 652 310 647 L310 605 L315 605 C364 604 375 589 377 522 L377 364 C343 398 290 419 235 419 C117 419 37 330 37 197 C37 72 113 -12 225 -12 C282 -12 334 11 378 56 L378 50 C378 27 381 10 388 -12 C433 -3 499 4 573 6 L573 50 Z M377 111 C351 70 313 47 272 47 C209 47 176 102 176 206 C176 310 210 361 278 361 C311 361 341 347 377 315 L377 111 Z " />
<glyph glyph-name="e" unicode="e" horiz-adv-x="489" d="M408 100 C382 58 340 34 294 34 C218 34 176 93 176 200 C176 209 176 216 177 227 L455 227 L455 234 C455 343 373 419 257 419 C130 419 37 328 37 203 C37 76 131 -16 260 -16 C341 -16 413 22 446 81 L408 100 Z M178 266 C182 310 186 328 198 347 C209 364 232 376 255 376 C299 376 326 339 326 279 C326 274 326 271 325 266 L178 266 Z " />
<glyph glyph-name="f" unicode="f" horiz-adv-x="336" d="M313 403 L225 403 L225 430 L225 483 C225 555 229 582 241 606 C251 623 267 634 283 634 C306 634 317 623 331 584 C344 549 365 532 394 532 C426 532 453 558 453 590 C453 642 393 678 307 678 C223 678 157 645 124 588 C103 549 96 510 96 424 L96 403 L17 403 L17 360 L96 360 L96 125 C96 61 82 42 34 42 L20 42 L20 0 L312 0 L312 42 L288 42 C239 43 227 58 225 125 L225 360 L313 360 L313 403 Z " />
<glyph glyph-name="g" unicode="g" horiz-adv-x="515" d="M152 139 C86 123 54 93 54 44 C54 -22 114 -53 240 -53 C297 -53 324 -54 353 -59 C393 -65 415 -86 415 -117 C415 -174 352 -208 249 -208 C159 -208 105 -178 105 -129 C105 -114 110 -99 120 -83 C104 -77 95 -75 85 -75 C55 -75 30 -102 30 -135 C30 -168 51 -200 85 -219 C120 -239 175 -249 245 -249 C401 -249 491 -188 491 -82 C491 -22 460 22 404 41 C364 54 339 56 234 56 C151 58 134 62 134 84 C134 110 167 124 229 124 C358 125 436 182 436 275 C436 301 429 324 414 348 C425 360 433 365 443 365 C451 365 456 362 466 351 C476 339 484 335 494 335 C513 335 526 350 526 372 C526 400 507 418 477 418 C450 418 427 406 391 373 C354 404 307 419 245 419 C125 419 46 362 46 276 C46 213 88 160 152 139 L152 139 Z M241 376 C286 376 311 341 311 277 C311 206 288 169 243 169 C196 169 172 206 172 278 C172 339 198 376 241 376 L241 376 Z " />
<glyph glyph-name="h" unicode="h" horiz-adv-x="583" d="M21 603 L25 603 C76 601 86 588 87 528 L87 125 C85 57 75 43 25 42 L20 42 L20 0 L270 0 L270 42 L267 42 C225 45 218 57 216 125 L216 282 C247 331 278 354 315 354 C357 354 375 328 375 268 L375 125 C373 57 366 46 326 43 L319 42 L319 0 L570 0 L570 42 L564 42 C518 43 508 57 506 125 L506 253 C506 307 501 335 488 358 C467 395 418 419 365 419 C306 419 257 394 216 344 L217 678 L210 678 C169 664 94 651 21 645 L21 603 Z " />
<glyph glyph-name="i" unicode="i" horiz-adv-x="301" d="M155 678 C113 678 79 644 79 603 C79 560 112 525 154 525 C196 525 230 559 230 601 C230 644 197 678 155 678 L155 678 Z M221 419 L214 419 C182 411 55 389 16 386 L16 343 L28 343 C78 344 92 326 92 263 L92 125 C90 57 79 43 29 42 L16 42 L16 0 L288 0 L288 42 L282 42 C234 43 223 58 221 125 L221 419 Z " />
<glyph glyph-name="j" unicode="j" horiz-adv-x="294" d="M236 419 L229 419 C188 410 131 400 29 385 L29 343 L43 343 C93 343 107 325 107 263 L107 -58 C107 -133 105 -152 92 -175 C82 -192 65 -203 48 -203 C32 -203 18 -193 12 -178 C-2 -141 -16 -129 -43 -129 C-72 -129 -94 -151 -94 -179 C-94 -220 -47 -248 23 -248 C105 -248 180 -211 212 -155 C231 -121 236 -89 236 7 L236 419 Z M164 678 C123 678 89 644 89 603 C89 559 122 525 165 525 C206 525 240 559 240 602 C240 644 206 678 164 678 L164 678 Z " />
<glyph glyph-name="k" unicode="k" horiz-adv-x="553" d="M18 603 L22 603 C73 601 83 588 84 527 L84 125 C82 57 72 43 22 42 L15 42 L15 0 L268 0 L268 42 L264 42 C223 45 215 58 213 125 L213 173 L248 198 L328 97 C345 75 350 68 350 62 C350 49 338 43 316 42 L312 42 L312 0 L551 0 L551 42 L547 43 C522 45 508 58 459 119 L343 267 C351 272 358 277 360 279 L372 290 C435 341 475 361 512 361 L515 361 L515 403 L312 403 L312 361 L317 361 C341 361 352 355 352 342 C352 328 342 319 252 253 L213 224 L214 678 L207 678 C166 664 91 651 18 645 L18 603 Z " />
<glyph glyph-name="l" unicode="l" horiz-adv-x="299" d="M20 603 L24 603 C74 601 84 588 85 527 L85 125 C83 57 73 43 24 42 L17 42 L17 0 L284 0 L284 42 L277 42 C228 42 215 61 214 125 L215 678 L208 678 C168 665 92 651 20 645 L20 603 Z " />
<glyph glyph-name="m" unicode="m" horiz-adv-x="859" d="M22 338 L26 338 C71 338 84 322 87 259 L87 125 C85 57 75 43 26 42 L23 42 L23 0 L267 0 L267 42 L263 42 C224 45 217 57 216 125 L216 284 C218 287 218 287 237 309 C260 336 288 351 314 351 C353 351 369 325 369 264 L369 125 C368 56 362 47 322 43 L317 42 L317 0 L548 0 L548 42 L545 42 C507 45 500 58 499 125 L499 280 C538 331 566 351 599 351 C635 351 652 327 652 274 L652 125 C651 56 645 47 605 43 L601 42 L601 0 L846 0 L846 42 L841 42 C795 43 785 57 783 125 L783 258 C783 320 780 335 766 361 C745 396 699 419 648 419 C589 419 539 392 492 335 C472 389 427 419 366 419 C310 419 259 393 218 345 L218 351 C218 373 214 392 207 412 L202 412 C153 401 65 385 22 381 L22 338 Z " />
<glyph glyph-name="n" unicode="n" horiz-adv-x="584" d="M200 412 C178 406 157 402 111 395 C56 386 43 384 22 380 L22 338 L27 338 C72 338 85 321 88 259 L88 125 C86 57 76 43 27 42 L23 42 L23 0 L273 0 L273 42 L269 42 C226 45 219 57 217 125 L217 283 C252 331 284 353 319 353 C355 353 377 328 377 288 L377 125 C375 57 368 46 328 43 L321 42 L321 0 L572 0 L572 42 L567 42 C520 43 510 57 508 125 L508 260 C508 314 504 335 491 359 C470 396 423 419 372 419 C315 419 261 393 219 346 C218 376 214 396 208 412 L200 412 Z " />
<glyph glyph-name="o" unicode="o" horiz-adv-x="544" d="M273 419 C135 419 37 328 37 200 C37 73 136 -16 277 -16 C409 -16 508 77 508 201 C508 328 410 419 273 419 L273 419 Z M273 375 C342 375 369 327 369 203 C369 74 343 28 271 28 C240 28 211 44 197 68 C182 95 176 135 176 202 C176 268 182 308 197 335 C211 360 239 375 273 375 L273 375 Z " />
<glyph glyph-name="p" unicode="p" horiz-adv-x="585" d="M187 419 C165 413 142 409 96 402 L8 387 L8 345 L15 345 C64 344 76 329 78 263 L78 -116 C78 -181 64 -199 15 -199 L8 -199 L8 -241 L282 -241 L282 -199 L269 -199 C221 -198 209 -183 207 -116 L207 42 C254 1 295 -16 346 -16 C463 -16 549 78 549 206 C549 329 468 419 357 419 C302 419 248 395 205 350 C204 382 201 399 196 419 L187 419 Z M207 295 C237 340 270 361 309 361 C375 361 410 305 410 202 C410 153 403 118 389 92 C372 62 338 42 304 42 C270 42 236 59 207 92 L207 295 Z " />
<glyph glyph-name="q" unicode="q" horiz-adv-x="566" d="M475 419 C440 389 419 371 397 355 C348 398 297 419 242 419 C123 419 37 326 37 197 C37 69 117 -16 236 -16 C288 -16 331 0 379 36 L379 -116 C377 -183 365 -198 316 -199 L302 -199 L302 -241 L577 -241 L577 -199 L570 -199 C522 -198 510 -183 508 -116 L508 419 L475 419 Z M379 87 C347 57 309 40 273 40 C210 40 176 96 176 200 C176 311 209 365 276 365 C315 365 352 345 379 309 L379 87 Z " />
<glyph glyph-name="r" unicode="r" horiz-adv-x="437" d="M22 339 L28 339 C77 338 88 323 90 256 L90 125 C88 57 78 43 29 42 L23 42 L23 0 L293 0 L293 42 L282 42 C233 43 221 58 219 125 L219 178 C219 242 225 270 244 302 C259 327 276 340 295 340 C308 340 317 334 329 319 C349 292 359 285 380 285 C410 285 433 310 433 343 C433 386 399 419 353 419 C298 419 245 380 213 317 C212 359 207 392 198 419 C113 399 54 386 22 381 L22 339 Z " />
<glyph glyph-name="s" unicode="s" horiz-adv-x="417" d="M41 -12 L77 -12 C82 2 89 12 97 20 C102 19 103 18 109 15 C142 -6 180 -16 222 -16 C317 -16 381 39 381 122 C381 159 368 188 340 217 C317 241 303 247 210 272 C155 287 126 308 126 335 C126 361 156 382 195 382 C252 382 301 346 318 291 L353 291 L353 414 L320 414 C313 401 307 392 301 386 C261 406 215 420 186 420 C105 420 40 363 40 293 C40 236 86 188 165 164 C247 138 248 138 270 120 C282 111 289 96 289 81 C289 48 256 25 208 25 C147 25 100 60 80 122 L41 122 L41 -12 Z " />
<glyph glyph-name="t" unicode="t" horiz-adv-x="337" d="M325 359 L325 403 L204 403 L204 534 L164 534 C152 457 95 402 25 402 C25 402 21 402 16 403 L16 359 L75 359 L75 127 C75 33 118 -16 200 -16 C266 -16 318 16 340 68 L303 82 C287 53 271 41 248 41 C233 41 221 47 214 61 C205 76 204 87 204 139 L204 359 L325 359 Z " />
<glyph glyph-name="u" unicode="u" horiz-adv-x="572" d="M491 403 L296 403 L296 361 L302 361 C350 360 360 346 362 279 L362 145 C362 141 355 121 350 111 C333 76 296 51 261 51 C248 51 236 56 225 65 C211 76 206 96 206 134 L206 403 L14 403 L14 361 L18 361 C64 360 75 346 77 279 L77 130 C77 87 81 66 94 44 C114 8 161 -16 212 -16 C270 -16 322 11 362 63 L362 56 L362 53 C363 23 365 -4 368 -16 L373 -16 C404 -7 496 1 556 0 L556 42 L553 42 C505 43 493 59 491 125 L491 403 Z " />
<glyph glyph-name="v" unicode="v" horiz-adv-x="496" d="M283 -10 L416 263 C453 342 464 355 496 361 L501 361 L501 403 L353 403 L353 361 L358 361 C380 360 396 350 396 337 C396 329 391 313 383 296 L292 106 L199 303 C191 320 186 334 186 341 C186 353 201 361 226 361 L232 361 L232 403 L-4 403 L-4 361 L0 361 C30 360 39 350 72 284 L214 -10 L283 -10 Z " />
<glyph glyph-name="w" unicode="w" horiz-adv-x="751" d="M561 -11 L676 271 C706 347 715 358 753 361 L755 361 L755 403 L595 403 L595 361 L601 361 C632 360 650 351 650 335 C650 329 649 328 640 304 L570 124 L450 403 L387 403 L267 124 L198 297 C189 321 184 335 184 340 C184 354 200 361 231 361 L236 361 L236 403 L-5 403 L-5 361 L0 361 C34 359 40 353 67 291 L192 -11 L257 -11 L375 268 L496 -11 L561 -11 Z " />
<glyph glyph-name="x" unicode="x" horiz-adv-x="519" d="M486 361 L486 403 L320 403 L320 361 L324 361 C348 360 361 355 361 344 C361 338 354 329 336 310 L289 262 L239 320 C226 334 223 340 223 346 C223 356 233 361 253 361 L259 361 L259 403 L9 403 L9 361 L13 361 C38 358 61 340 108 287 L201 181 L123 105 C83 67 49 47 15 43 L9 42 L9 0 L188 0 L188 42 L186 42 C159 41 143 47 143 59 C143 65 148 72 157 82 C160 84 163 88 167 91 L228 152 L286 84 C301 66 302 65 302 59 C302 48 285 41 259 42 L253 42 L253 0 L511 0 L511 42 L505 43 C484 47 468 60 432 100 L313 233 L380 298 L395 310 C438 348 455 358 483 361 L486 361 Z " />
<glyph glyph-name="y" unicode="y" horiz-adv-x="503" d="M-6 403 L-6 361 L2 360 C30 358 40 347 68 293 L234 -15 L214 -65 C194 -107 180 -117 118 -135 C76 -147 57 -166 57 -196 C57 -227 82 -250 116 -250 C162 -250 193 -218 234 -128 L407 251 C444 335 460 355 493 360 L500 361 L500 403 L345 403 L345 361 L353 361 C377 361 391 352 391 337 C391 327 389 323 373 286 L298 118 L204 301 C197 313 193 328 193 338 C193 353 201 359 222 361 L229 361 L229 403 L-6 403 Z " />
<glyph glyph-name="z" unicode="z" horiz-adv-x="469" d="M28 0 L426 0 L438 134 L397 134 C365 59 347 44 290 43 L193 43 L431 366 L431 403 L50 403 L42 283 L83 283 C112 352 121 361 157 360 L268 360 L28 33 L28 0 Z " />
<glyph glyph-name="braceleft" unicode="&#x7b;" horiz-adv-x="391" d="M61 202 C130 196 144 176 145 87 L145 -80 C146 -137 158 -173 185 -199 C210 -225 245 -232 347 -232 L375 -232 L375 -204 C292 -202 261 -166 261 -70 L261 94 C262 162 229 198 152 214 L152 216 L152 221 C229 237 262 273 261 340 L261 505 C261 601 292 636 375 638 L375 667 L347 667 C261 666 230 662 202 647 C164 622 146 582 145 515 L145 348 C144 258 130 239 61 233 L61 202 Z " />
<glyph glyph-name="bar" unicode="&#x7c;" horiz-adv-x="500" d="M201 667 L201 -167 L299 -167 L299 667 L201 667 Z " />
<glyph glyph-name="braceright" unicode="&#x7d;" horiz-adv-x="397" d="M335 233 C266 239 252 258 251 348 L251 515 C250 581 233 621 196 646 C170 662 136 666 49 667 L21 667 L21 638 C104 636 135 601 135 505 L135 340 C134 273 167 237 244 221 L244 219 L244 214 C167 198 134 162 135 94 L135 -70 C135 -166 104 -202 21 -204 L21 -232 L49 -232 C132 -231 178 -224 194 -212 C232 -188 250 -147 251 -80 L251 87 C252 176 266 196 335 202 L335 233 Z " />
<glyph glyph-name="asciitilde" unicode="&#x7e;" horiz-adv-x="667" d="M508 734 C484 704 458 689 431 689 C410 689 381 696 350 708 C317 721 287 728 266 728 C222 728 179 692 136 617 L158 604 C191 642 205 650 236 650 C259 650 280 645 328 626 C360 614 378 610 397 610 C447 610 494 649 530 720 L508 734 Z " />
<glyph glyph-name="uni00A0" unicode="&#xa0;" horiz-adv-x="250" d="" />
<glyph glyph-name="exclamdown" unicode="&#xa1;" horiz-adv-x="307" d="M132 221 L92 -118 C90 -141 88 -162 88 -176 C88 -218 112 -242 155 -242 C196 -242 221 -217 221 -177 C221 -167 219 -145 216 -120 L176 221 L132 221 Z M154 448 C112 448 77 414 77 371 C77 330 112 295 153 295 C197 295 231 329 231 372 C231 414 197 448 154 448 L154 448 Z " />
<glyph glyph-name="cent" unicode="&#xa2;" horiz-adv-x="531" d="M448 115 C427 66 379 34 326 34 C305 34 285 41 272 53 L351 360 C358 359 364 351 366 342 C371 295 389 274 424 274 C453 274 477 298 477 327 C477 370 432 405 363 415 L413 613 L371 613 L322 418 C317 419 316 419 310 419 C272 419 217 405 186 387 C114 347 72 275 72 194 C72 96 124 26 217 -1 L169 -190 L212 -190 L258 -9 C277 -15 288 -17 301 -17 C337 -17 389 -3 417 14 C453 35 474 62 488 101 L448 115 Z M237 86 C221 116 211 167 211 221 C211 318 246 374 307 375 L312 375 L237 86 Z " />
<glyph glyph-name="sterling" unicode="&#xa3;" horiz-adv-x="719" d="M28 198 L180 198 C163 128 151 87 134 44 C62 -1 25 -42 25 -77 C25 -101 49 -121 78 -121 C89 -121 102 -116 112 -107 C128 -92 128 -92 159 -35 L170 -14 L177 1 L179 5 C191 11 199 13 208 13 C231 13 251 0 296 -42 C359 -102 397 -121 453 -121 C559 -121 660 -28 660 69 C660 109 635 138 601 138 C575 138 555 119 555 94 C555 82 558 68 564 55 C579 22 580 18 580 5 C580 -25 549 -52 515 -52 C484 -52 454 -34 402 15 C352 62 311 83 267 83 C249 83 234 80 212 71 C244 122 267 163 283 198 L460 198 L475 257 L308 257 C329 301 353 383 376 487 C400 603 410 635 428 669 C450 712 480 733 517 733 C548 733 567 721 587 691 C612 654 622 646 646 646 C673 646 695 668 695 695 C695 743 630 781 548 781 C437 781 354 722 292 597 C251 516 236 464 194 257 L44 257 L28 198 Z " />
<glyph glyph-name="currency" unicode="&#xa4;" horiz-adv-x="667" d="M34 93 L83 43 L182 141 C239 107 278 95 333 95 C387 95 429 108 484 142 L583 44 L632 93 L531 194 C565 249 577 288 577 342 C577 395 565 433 531 491 L634 593 L584 642 L483 542 C423 577 383 589 332 589 C277 589 224 573 180 543 L82 641 L33 592 L130 494 C97 436 84 393 84 341 C84 290 98 245 131 190 L34 93 Z M334 483 C412 483 474 420 474 340 C474 264 410 201 333 201 C255 201 191 264 191 342 C191 421 254 483 334 483 L334 483 Z " />
<glyph glyph-name="yen" unicode="&#xa5;" horiz-adv-x="514" d="M366 461 L226 461 L183 541 C169 568 164 581 164 592 C164 613 181 623 213 623 L218 623 L218 667 L-63 667 L-63 623 L-60 623 C-16 620 -8 612 39 526 L75 461 L-39 461 L-39 415 L99 415 L176 274 L-33 274 L-33 228 L180 228 L180 148 C180 64 166 45 106 44 L96 44 L96 0 L396 0 L396 44 L387 44 C328 45 314 64 314 148 L314 228 L526 228 L526 274 L317 274 L317 281 L390 415 L532 415 L532 461 L415 461 C487 596 505 617 554 623 L556 623 L556 667 L353 667 L353 623 L358 623 C394 623 420 606 420 582 C420 569 414 549 403 529 L366 461 Z M341 415 L297 332 L251 415 L341 415 Z " />
<glyph glyph-name="brokenbar" unicode="&#xa6;" horiz-adv-x="500" d="M201 667 L201 314 L299 314 L299 667 L201 667 Z M201 153 L201 -167 L299 -167 L299 153 L201 153 Z " />
<glyph glyph-name="section" unicode="&#xa7;" horiz-adv-x="475" d="M157 367 C123 361 105 355 87 343 C50 319 28 276 28 228 C28 179 48 135 88 92 C118 62 146 39 210 -6 C295 -67 319 -96 319 -138 C319 -174 286 -202 241 -202 C207 -202 181 -183 173 -152 C164 -114 163 -112 156 -102 C146 -88 131 -80 116 -80 C87 -80 64 -104 64 -135 C64 -196 135 -245 224 -245 C331 -245 406 -184 406 -96 C406 -40 375 14 318 58 C363 72 369 75 387 88 C421 114 439 154 439 204 C439 248 425 287 396 324 C372 355 350 373 264 434 C172 500 147 528 147 566 C147 603 181 631 226 631 C252 631 274 621 287 602 C293 593 295 586 303 556 C312 525 327 511 353 511 C384 511 407 535 407 566 C407 625 333 674 245 674 C139 674 62 611 62 525 C62 467 89 421 157 367 L157 367 Z M171 333 C201 333 250 305 299 260 C342 221 362 187 362 156 C362 123 333 96 297 96 C265 96 234 113 179 162 C130 205 105 244 105 275 C105 306 135 333 171 333 L171 333 Z " />
<glyph glyph-name="dieresis" unicode="&#xa8;" horiz-adv-x="500" d="M148 633 C115 633 88 606 88 573 C88 540 115 513 147 513 C181 513 208 539 208 573 C208 606 181 633 148 633 L148 633 Z M347 633 C314 633 287 606 287 573 C287 540 314 513 346 513 C380 513 407 540 407 573 C407 606 380 633 347 633 L347 633 Z " />
<glyph glyph-name="copyright" unicode="&#xa9;" horiz-adv-x="804" d="M401 680 C210 680 55 525 55 334 C55 142 211 -13 402 -13 C590 -13 748 143 748 329 C748 526 596 680 401 680 L401 680 Z M401 638 C572 638 706 502 706 329 C706 166 567 29 402 29 C234 29 97 165 97 334 C97 502 233 638 401 638 L401 638 Z M532 293 C519 219 476 174 418 174 C383 174 352 192 335 222 C320 247 314 281 314 331 C314 440 348 495 415 495 C473 495 520 446 529 377 L554 377 L551 516 L526 516 C525 515 525 514 524 511 C523 502 520 492 515 480 C481 512 448 526 402 526 C299 526 224 444 224 331 C224 222 298 142 401 142 C448 142 487 158 518 191 C525 179 529 170 532 155 L557 155 L557 293 L532 293 Z " />
<glyph glyph-name="ordfeminine" unicode="&#xaa;" horiz-adv-x="332" d="M302 325 C299 310 293 304 284 304 C273 304 268 314 268 337 L268 450 C268 511 237 536 163 536 C90 536 36 507 36 468 C36 451 50 438 68 438 C89 438 101 450 105 473 C108 497 118 505 144 505 C175 505 186 493 186 457 L186 440 L164 430 C157 427 149 423 139 420 C98 403 67 384 47 365 C36 355 28 336 28 319 C28 284 56 260 97 260 C128 260 159 272 191 296 C203 272 224 261 255 261 C299 261 325 285 327 325 L302 325 Z M186 407 L186 327 C169 310 152 301 138 301 C121 301 107 316 107 336 C107 361 128 382 172 401 L186 407 Z " />
<glyph glyph-name="guillemotleft" unicode="&#xab;" horiz-adv-x="535" d="M17 216 L208 8 L255 8 L164 216 L254 423 L207 423 L17 216 Z M264 216 L455 8 L501 8 L411 216 L500 423 L454 423 L264 216 Z " />
<glyph glyph-name="logicalnot" unicode="&#xac;" horiz-adv-x="500" d="M470 0 L470 267 L30 267 L30 199 L311 199 L311 0 L470 0 Z " />
<glyph glyph-name="uni00AD" unicode="&#xad;" horiz-adv-x="335" d="M32 247 L32 182 L306 182 L306 247 L32 247 Z " />
<glyph glyph-name="registered" unicode="&#xae;" horiz-adv-x="804" d="M401 680 C210 680 55 525 55 334 C55 142 211 -13 402 -13 C590 -13 748 143 748 329 C748 526 596 680 401 680 L401 680 Z M401 638 C572 638 706 502 706 329 C706 166 567 29 402 29 C234 29 97 165 97 334 C97 502 233 638 401 638 L401 638 Z M227 150 L410 150 L410 177 L398 177 C365 178 359 186 357 233 L357 317 L371 317 C394 319 409 303 445 238 C468 196 488 166 505 150 L610 150 L610 177 L606 177 C581 178 561 196 525 251 C489 306 488 307 462 332 C512 345 540 378 540 423 C540 456 523 486 494 502 C469 515 424 522 355 522 C337 522 334 522 303 521 L228 520 L228 493 L236 493 C271 492 276 486 278 438 L278 233 C276 186 270 178 237 177 L227 177 L227 150 Z M357 346 L357 491 C363 492 374 492 375 492 C434 492 456 472 456 419 C456 365 433 346 370 346 L366 346 L357 346 Z " />
<glyph glyph-name="macron" unicode="&#xaf;" horiz-adv-x="373" d="M33 541 L340 541 L340 590 L33 590 L33 541 Z " />
<glyph glyph-name="degree" unicode="&#xb0;" horiz-adv-x="400" d="M203 686 C117 686 50 619 50 534 C50 448 116 381 200 381 C284 381 350 448 350 533 C350 619 286 686 203 686 L203 686 Z M202 629 C252 629 293 586 293 534 C293 480 252 438 200 438 C148 438 106 481 106 533 C106 587 148 629 202 629 L202 629 Z " />
<glyph glyph-name="plusminus" unicode="&#xb1;" horiz-adv-x="500" d="M9 396 L9 323 L211 323 L211 123 L287 123 L287 323 L491 323 L491 396 L287 396 L287 596 L211 596 L211 396 L9 396 Z M9 75 L9 2 L491 2 L491 75 L9 75 Z " />
<glyph glyph-name="twosuperior" unicode="&#xb2;" horiz-adv-x="348" d="M38 266 L240 266 C259 266 260 265 260 258 C260 255 260 254 259 250 L257 241 L293 241 L310 324 L131 324 C184 375 213 404 220 412 C293 488 309 515 309 562 C309 624 252 670 173 670 C97 670 38 627 38 572 C38 543 53 512 67 512 C73 512 82 515 92 520 C97 523 102 526 106 528 C116 532 120 536 120 539 C120 541 119 542 116 545 C105 557 99 571 99 585 C99 613 123 635 153 635 C190 635 214 605 214 560 C214 481 154 391 38 295 L38 266 Z " />
<glyph glyph-name="threesuperior" unicode="&#xb3;" horiz-adv-x="348" d="M213 499 C275 535 297 560 297 595 C297 638 248 670 179 670 C104 670 43 629 43 578 C43 556 56 533 69 533 C85 533 124 550 124 557 C124 559 123 561 118 566 C110 575 106 583 106 593 C106 616 130 635 158 635 C187 635 206 614 206 582 C206 545 183 514 135 488 C116 478 106 468 106 459 C106 449 115 440 125 440 C133 440 138 443 148 453 C158 463 165 466 175 466 C201 466 213 441 213 391 C213 326 189 291 144 291 C124 291 114 299 106 320 C96 346 85 355 66 355 C45 355 28 340 28 321 C28 285 76 258 138 258 C236 258 308 317 308 397 C308 456 276 490 213 499 L213 499 Z " />
<glyph glyph-name="acute" unicode="&#xb4;" horiz-adv-x="500" d="M187 488 L221 488 L419 642 L419 649 L267 649 L187 488 Z " />
<glyph glyph-name="mu" unicode="&#xb5;" horiz-adv-x="576" d="M442 500 L353 500 L354 131 C318 80 284 58 242 58 C184 58 150 99 150 169 L150 500 L62 500 L62 20 C62 -1 58 -26 51 -56 C34 -118 33 -123 33 -147 C33 -190 54 -219 83 -219 C112 -219 132 -189 132 -145 C132 -124 129 -110 113 -53 C102 -17 101 -8 101 21 L101 33 C143 -3 165 -13 200 -13 C250 -13 301 18 354 80 C362 48 367 36 377 21 C392 0 419 -13 449 -13 C510 -13 553 31 567 108 L540 109 C536 71 515 41 492 41 C462 41 442 77 442 131 L442 500 Z " />
<glyph glyph-name="paragraph" unicode="&#xb6;" horiz-adv-x="625" d="M565 667 L294 667 C194 667 191 667 166 661 C95 643 49 582 49 506 C49 447 78 397 128 368 C157 352 194 344 245 344 L266 344 L276 344 L276 2 C276 -36 275 -39 271 -43 C261 -51 254 -52 215 -52 L194 -52 L194 -84 L349 -84 L349 633 L421 633 L421 -84 L555 -84 L555 -52 L547 -52 C513 -52 506 -52 501 -46 C496 -43 494 -30 494 -2 L494 563 C494 599 498 623 503 627 C507 632 525 635 551 635 L565 635 L565 667 Z M276 635 L276 380 L246 380 C197 380 163 431 163 505 C163 548 175 593 192 614 C204 629 223 635 252 635 L276 635 Z " />
<glyph glyph-name="periodcentered" unicode="&#xb7;" horiz-adv-x="287" d="M138 410 C95 410 61 375 61 333 C61 291 96 256 137 256 C180 256 215 290 215 332 C215 376 181 410 138 410 L138 410 Z " />
<glyph glyph-name="cedilla" unicode="&#xb8;" horiz-adv-x="500" d="M224 0 C219 -48 215 -74 208 -100 C236 -102 252 -118 252 -142 C252 -165 236 -179 211 -179 C193 -179 178 -176 156 -169 C154 -187 153 -189 150 -205 C171 -213 189 -217 211 -217 C279 -217 323 -182 323 -129 C323 -84 296 -55 250 -49 C254 -26 254 -22 257 0 L224 0 Z " />
<glyph glyph-name="onesuperior" unicode="&#xb9;" horiz-adv-x="348" d="M190 670 C164 652 125 641 76 640 L76 609 C83 608 87 608 89 608 L109 609 C129 610 133 602 133 558 L133 343 C131 306 127 300 99 300 L81 300 L81 267 L274 267 L274 300 L255 300 C229 299 222 308 223 344 L223 670 L190 670 Z " />
<glyph glyph-name="ordmasculine" unicode="&#xba;" horiz-adv-x="338" d="M169 536 C88 536 28 477 28 398 C28 315 85 257 168 257 C252 257 311 315 311 397 C311 478 252 536 169 536 L169 536 Z M169 503 C209 503 224 472 224 389 C224 322 207 290 170 290 C131 290 115 322 115 400 C115 472 131 503 169 503 L169 503 Z " />
<glyph glyph-name="guillemotright" unicode="&#xbb;" horiz-adv-x="535" d="M509 216 L318 423 L272 423 L362 216 L271 8 L318 8 L509 216 Z M262 216 L72 423 L25 423 L115 216 L25 8 L71 8 L262 216 Z " />
<glyph glyph-name="onequarter" unicode="&#xbc;" horiz-adv-x="865" d="M190 670 C164 652 125 641 76 640 L76 609 C83 608 87 608 89 608 L109 609 C129 610 133 602 133 558 L133 343 C131 306 127 300 99 300 L81 300 L81 267 L274 267 L274 300 L255 300 C229 299 222 308 223 344 L223 670 L190 670 Z M315 0 L658 660 L600 660 L258 0 L315 0 Z M683 133 L683 80 C683 41 676 32 648 33 L629 33 L629 0 L824 0 L824 33 L808 33 C780 33 775 39 774 81 L774 133 L837 133 L845 195 L820 195 L817 188 C811 174 808 173 788 172 L774 172 L774 402 L724 402 L537 172 L537 133 L683 133 Z M683 172 L582 172 L683 297 L683 172 Z " />
<glyph glyph-name="onehalf" unicode="&#xbd;" horiz-adv-x="865" d="M190 670 C165 652 125 641 76 640 L76 609 C82 608 86 608 88 608 L109 609 C129 610 133 602 133 558 L133 343 C131 306 127 300 99 300 L81 300 L81 267 L274 267 L274 300 L255 300 C229 299 222 308 223 344 L223 670 L190 670 Z M295 0 L638 660 L580 660 L238 0 L295 0 Z M553 0 L755 0 L767 0 C770 -1 771 -1 772 -2 C773 -2 774 -9 774 -12 L771 -26 L807 -26 L825 58 L645 58 C698 109 728 138 734 145 C807 222 823 249 823 295 C823 357 765 403 687 403 C612 403 553 360 553 305 C553 276 568 245 582 245 C588 245 597 248 606 253 L621 261 C630 265 635 269 635 272 C635 274 634 275 631 278 C620 291 614 304 614 318 C614 346 637 368 667 368 C704 368 728 338 728 293 C728 214 667 122 553 29 L553 0 Z " />
<glyph glyph-name="threequarters" unicode="&#xbe;" horiz-adv-x="865" d="M213 499 C275 535 297 560 297 595 C297 638 248 670 179 670 C104 670 43 629 43 578 C43 556 56 533 69 533 C85 533 124 550 124 557 C124 559 123 561 118 566 C110 575 106 583 106 593 C106 616 130 635 158 635 C187 635 206 614 206 582 C206 545 183 514 135 488 C116 478 106 468 106 459 C106 449 115 440 125 440 C133 440 138 443 148 453 C158 463 165 466 175 466 C201 466 213 441 213 391 C213 326 189 291 144 291 C124 291 114 299 106 320 C96 346 85 355 66 355 C45 355 28 340 28 321 C28 285 76 258 138 258 C236 258 308 317 308 397 C308 456 276 490 213 499 L213 499 Z M313 0 L655 660 L598 660 L256 0 L313 0 Z M683 133 L683 80 C683 41 677 32 648 33 L629 33 L629 0 L825 0 L825 33 L808 33 C780 33 775 40 774 81 L774 133 L837 133 L845 195 L820 195 L817 188 C811 174 808 172 788 172 L774 172 L774 402 L725 402 L537 172 L537 133 L683 133 Z M683 172 L582 172 L683 297 L683 172 Z " />
<glyph glyph-name="questiondown" unicode="&#xbf;" horiz-adv-x="454" d="M266 446 C224 446 189 411 189 369 C189 327 224 292 265 292 C309 292 343 326 343 369 C343 412 309 446 266 446 L266 446 Z M291 219 L243 219 L243 102 C221 114 201 119 176 119 C86 119 18 47 18 -50 C18 -166 101 -245 224 -245 C310 -245 384 -200 384 -148 C384 -126 364 -108 340 -108 C317 -108 302 -121 292 -150 C280 -187 264 -201 233 -201 C180 -201 148 -146 148 -53 C148 23 171 65 212 65 C229 65 242 57 253 41 L291 41 L291 219 Z " />
<glyph glyph-name="Agrave" unicode="&#xc0;" horiz-adv-x="657" d="M671 0 L671 44 L666 44 C617 50 603 65 564 157 L350 678 L306 678 L101 170 C69 87 38 51 -6 44 L-13 44 L-13 0 L200 0 L200 44 L192 44 C155 44 129 63 129 91 C129 107 133 122 153 170 L166 202 L387 202 L417 128 C428 101 435 81 435 74 C435 53 414 44 370 44 L363 44 L363 0 L671 0 Z M369 247 L183 247 L275 475 L369 247 Z M376 729 L409 729 L309 877 L129 877 L129 869 L376 729 Z " />
<glyph glyph-name="Aacute" unicode="&#xc1;" horiz-adv-x="657" d="M671 0 L671 44 L666 44 C617 50 603 65 564 157 L350 678 L306 678 L101 170 C69 87 38 51 -6 44 L-13 44 L-13 0 L200 0 L200 44 L192 44 C155 44 129 63 129 91 C129 107 133 122 153 170 L166 202 L387 202 L417 128 C428 101 435 81 435 74 C435 53 414 44 370 44 L363 44 L363 0 L671 0 Z M369 247 L183 247 L275 475 L369 247 Z M293 729 L326 729 L572 869 L572 877 L393 877 L293 729 Z " />
<glyph glyph-name="Acircumflex" unicode="&#xc2;" horiz-adv-x="657" d="M671 0 L671 44 L666 44 C617 50 603 65 564 157 L350 678 L306 678 L101 170 C69 87 38 51 -6 44 L-13 44 L-13 0 L200 0 L200 44 L192 44 C155 44 129 63 129 91 C129 107 133 122 153 170 L166 202 L387 202 L417 128 C428 101 435 81 435 74 C435 53 414 44 370 44 L363 44 L363 0 L671 0 Z M369 247 L183 247 L275 475 L369 247 Z M255 879 L147 729 L179 729 L325 817 L490 729 L521 729 L411 879 L255 879 Z " />
<glyph glyph-name="Atilde" unicode="&#xc3;" horiz-adv-x="657" d="M671 0 L671 44 L666 44 C617 50 603 65 564 157 L350 678 L306 678 L101 170 C69 87 38 51 -6 44 L-13 44 L-13 0 L200 0 L200 44 L192 44 C155 44 129 63 129 91 C129 107 133 122 153 170 L166 202 L387 202 L417 128 C428 101 435 81 435 74 C435 53 414 44 370 44 L363 44 L363 0 L671 0 Z M369 247 L183 247 L275 475 L369 247 Z M188 726 C187 728 187 729 187 729 C185 755 207 779 231 779 C245 779 262 773 292 758 C340 734 375 724 406 724 C461 724 502 775 502 845 L502 861 L470 861 C465 826 450 805 430 805 C413 805 388 813 360 828 C319 849 281 861 253 861 C195 861 155 812 155 740 L155 726 L188 726 Z " />
<glyph glyph-name="Adieresis" unicode="&#xc4;" horiz-adv-x="657" d="M671 0 L671 44 L666 44 C617 50 603 65 564 157 L350 678 L306 678 L101 170 C69 87 38 51 -6 44 L-13 44 L-13 0 L200 0 L200 44 L192 44 C155 44 129 63 129 91 C129 107 133 122 153 170 L166 202 L387 202 L417 128 C428 101 435 81 435 74 C435 53 414 44 370 44 L363 44 L363 0 L671 0 Z M369 247 L183 247 L275 475 L369 247 Z M190 862 C152 862 122 832 122 794 C122 757 153 726 189 726 C228 726 258 756 258 794 C258 832 228 862 190 862 L190 862 Z M464 862 C427 862 396 832 396 795 C396 756 426 726 464 726 C502 726 532 757 532 794 C532 832 502 862 464 862 L464 862 Z " />
<glyph glyph-name="Aring" unicode="&#xc5;" horiz-adv-x="657" d="M101 170 C69 87 38 51 -6 44 L-13 44 L-13 0 L200 0 L200 44 L192 44 C155 44 129 63 129 91 C129 107 133 122 153 170 L166 202 L387 202 L417 128 C428 101 435 81 435 74 C435 53 414 44 370 44 L363 44 L363 0 L671 0 L671 44 L666 44 C617 50 604 65 564 157 L352 675 C401 687 435 729 435 778 C435 837 387 885 328 885 C270 885 222 837 222 779 C222 729 256 686 305 675 L101 170 Z M369 247 L183 247 L275 475 L369 247 Z M328 846 C366 846 396 816 396 779 C396 741 365 711 328 711 C291 711 261 741 261 779 C261 816 292 846 328 846 L328 846 Z " />
<glyph glyph-name="AE" unicode="&#xc6;" horiz-adv-x="927" d="M401 322 L401 148 C401 68 383 44 319 44 L306 44 L306 0 L894 0 L900 213 L856 213 C823 88 777 45 677 47 L654 47 C567 46 548 66 549 158 L549 322 L621 322 C676 321 687 310 692 249 C692 245 692 241 693 240 L693 235 L694 232 L738 232 L738 457 L694 457 L693 451 C688 381 674 366 614 368 L549 368 L549 621 L680 621 C752 625 783 596 813 496 L858 496 L845 667 L235 667 L235 625 L258 625 C306 625 322 618 322 599 C322 589 315 572 296 534 L110 175 C61 83 27 48 -20 44 L-20 0 L189 0 L189 44 L184 44 C150 44 125 62 126 84 C127 98 134 119 148 146 L238 322 L401 322 Z M401 368 L264 368 L401 633 L401 368 Z " />
<glyph glyph-name="Ccedilla" unicode="&#xc7;" horiz-adv-x="736" d="M673 10 L673 254 L630 254 C617 187 584 121 548 91 C508 58 458 40 410 40 C343 40 281 75 249 131 C223 176 211 239 211 329 C211 527 276 628 405 628 C468 628 531 598 565 552 C593 515 611 472 624 412 L667 412 L661 661 L618 661 C612 634 605 614 595 593 C540 650 467 679 380 679 C186 679 43 529 43 326 C43 139 172 -2 354 -12 C345 -67 340 -92 334 -111 C371 -113 394 -131 394 -157 C394 -183 373 -199 338 -199 C314 -199 294 -196 264 -188 C261 -208 261 -210 256 -228 C284 -238 308 -242 338 -242 C429 -242 488 -203 488 -144 C488 -94 451 -60 390 -54 C394 -32 395 -24 397 -12 C480 -8 553 24 600 76 C615 58 623 40 630 10 L673 10 Z " />
<glyph glyph-name="Egrave" unicode="&#xc8;" horiz-adv-x="656" d="M582 215 C548 90 500 45 398 47 L370 47 C290 44 268 70 271 164 L271 327 L338 327 C403 326 418 311 419 243 L419 235 L464 235 L464 462 L419 462 L419 455 C417 389 403 375 336 374 L271 374 L271 621 L384 621 C476 624 509 597 537 496 L581 496 L570 667 L33 667 L33 624 L44 624 C103 626 123 599 123 521 L123 149 C124 69 103 42 41 44 L28 44 L28 0 L618 0 L626 215 L582 215 Z M414 729 L447 729 L347 877 L168 877 L168 869 L414 729 Z " />
<glyph glyph-name="Eacute" unicode="&#xc9;" horiz-adv-x="656" d="M582 215 C548 90 500 45 398 47 L370 47 C290 44 268 70 271 164 L271 327 L338 327 C403 326 418 311 419 243 L419 235 L464 235 L464 462 L419 462 L419 455 C417 389 403 375 336 374 L271 374 L271 621 L384 621 C476 624 509 597 537 496 L581 496 L570 667 L33 667 L33 624 L44 624 C103 626 123 599 123 521 L123 149 C124 69 103 42 41 44 L28 44 L28 0 L618 0 L626 215 L582 215 Z M266 729 L299 729 L545 869 L545 877 L366 877 L266 729 Z " />
<glyph glyph-name="Ecircumflex" unicode="&#xca;" horiz-adv-x="656" d="M582 215 C548 90 500 45 398 47 L370 47 C290 44 268 70 271 164 L271 327 L338 327 C403 326 418 311 419 243 L419 235 L464 235 L464 462 L419 462 L419 455 C417 389 403 375 336 374 L271 374 L271 621 L384 621 C476 624 509 597 537 496 L581 496 L570 667 L33 667 L33 624 L44 624 C103 626 123 599 123 521 L123 149 C124 69 103 42 41 44 L28 44 L28 0 L618 0 L626 215 L582 215 Z M253 879 L145 729 L177 729 L323 817 L488 729 L519 729 L409 879 L253 879 Z " />
<glyph glyph-name="Edieresis" unicode="&#xcb;" horiz-adv-x="656" d="M582 215 C548 90 500 45 398 47 L370 47 C290 44 268 70 271 164 L271 327 L338 327 C403 326 418 311 419 243 L419 235 L464 235 L464 462 L419 462 L419 455 C417 389 403 375 336 374 L271 374 L271 621 L384 621 C476 624 509 597 537 496 L581 496 L570 667 L33 667 L33 624 L44 624 C103 626 123 599 123 521 L123 149 C124 69 103 42 41 44 L28 44 L28 0 L618 0 L626 215 L582 215 Z M188 862 C150 862 120 832 120 794 C120 757 151 726 187 726 C226 726 256 756 256 794 C256 832 226 862 188 862 L188 862 Z M462 862 C425 862 394 832 394 795 C394 756 424 726 462 726 C500 726 530 757 530 794 C530 832 500 862 462 862 L462 862 Z " />
<glyph glyph-name="Igrave" unicode="&#xcc;" horiz-adv-x="393" d="M28 623 L38 623 C105 624 121 604 122 521 L122 149 C122 68 103 44 40 44 L28 44 L28 0 L364 0 L364 44 L351 44 C288 44 270 68 270 149 L270 521 C271 604 287 624 352 623 L364 623 L364 667 L28 667 L28 623 Z M285 729 L318 729 L218 877 L39 877 L39 869 L285 729 Z " />
<glyph glyph-name="Iacute" unicode="&#xcd;" horiz-adv-x="393" d="M28 623 L38 623 C105 624 121 604 122 521 L122 149 C122 68 103 44 40 44 L28 44 L28 0 L364 0 L364 44 L351 44 C288 44 270 68 270 149 L270 521 C271 604 287 624 352 623 L364 623 L364 667 L28 667 L28 623 Z M150 729 L183 729 L429 869 L429 877 L250 877 L150 729 Z " />
<glyph glyph-name="Icircumflex" unicode="&#xce;" horiz-adv-x="393" d="M29 623 L39 623 C105 624 121 604 122 521 L122 149 C122 68 104 44 41 44 L29 44 L29 0 L365 0 L365 44 L352 44 C288 44 270 68 270 149 L270 521 C271 604 287 624 353 623 L365 623 L365 667 L29 667 L29 623 Z M123 879 L15 729 L47 729 L193 817 L358 729 L389 729 L279 879 L123 879 Z " />
<glyph glyph-name="Idieresis" unicode="&#xcf;" horiz-adv-x="393" d="M28 623 L38 623 C105 624 121 604 122 521 L122 149 C122 68 103 44 40 44 L28 44 L28 0 L365 0 L365 44 L352 44 C288 44 270 68 270 149 L270 521 C271 604 287 624 353 623 L365 623 L365 667 L28 667 L28 623 Z M83 862 C45 862 15 832 15 794 C15 757 46 726 82 726 C121 726 151 756 151 794 C151 832 121 862 83 862 L83 862 Z M308 862 C271 862 240 832 240 795 C240 757 270 726 307 726 C346 726 376 756 376 794 C376 832 346 862 308 862 L308 862 Z " />
<glyph glyph-name="Eth" unicode="&#xd0;" horiz-adv-x="790" d="M127 358 L26 358 L26 306 L127 306 L127 149 C128 68 108 43 45 44 L31 44 L31 0 L290 0 C431 0 484 4 533 20 C666 64 747 180 747 328 C747 471 674 582 547 632 C477 659 378 672 235 672 C174 672 149 671 39 666 L32 665 L32 622 L43 622 C109 623 127 601 127 519 L127 358 Z M275 358 L275 626 C292 627 301 627 315 627 C400 627 448 612 494 571 C551 521 579 440 579 325 C579 187 534 90 459 66 C423 54 385 47 356 47 C289 47 275 68 275 171 L275 306 L420 306 L420 358 L275 358 Z " />
<glyph glyph-name="Ntilde" unicode="&#xd1;" horiz-adv-x="778" d="M665 -12 L665 513 C662 584 683 611 748 623 L756 623 L756 667 L516 667 L516 623 L524 623 C590 618 616 588 615 517 L615 221 L240 667 L24 667 L24 623 L29 623 C96 624 117 598 121 507 L121 162 C121 109 119 98 112 86 C99 62 63 44 29 44 L24 44 L24 0 L274 0 L274 44 L263 44 C226 44 190 65 177 93 C172 106 172 111 171 163 L171 522 L616 -12 L665 -12 Z M259 726 L259 729 C258 755 279 779 303 779 C317 779 334 773 364 758 C412 734 447 724 478 724 C533 724 574 775 574 845 L574 861 L542 861 C537 826 522 805 502 805 C485 805 460 813 432 828 C391 849 353 861 325 861 C267 861 227 812 227 740 L227 726 L259 726 Z " />
<glyph glyph-name="Ograve" unicode="&#xd2;" horiz-adv-x="825" d="M413 628 C487 628 550 588 579 520 C600 473 609 413 609 330 C609 254 599 193 579 146 C551 79 488 38 413 38 C338 38 275 79 247 146 C226 194 217 253 217 333 C217 413 227 472 247 520 C275 587 338 628 413 628 L413 628 Z M419 679 C312 679 216 646 153 589 C83 524 43 432 43 334 C43 129 194 -13 412 -13 C630 -13 782 129 782 332 C782 533 629 679 419 679 L419 679 Z M487 729 L520 729 L420 877 L241 877 L241 869 L487 729 Z " />
<glyph glyph-name="Oacute" unicode="&#xd3;" horiz-adv-x="825" d="M413 628 C487 628 550 588 579 520 C600 473 609 413 609 330 C609 254 599 193 579 146 C551 79 488 38 413 38 C338 38 275 79 247 146 C226 194 217 253 217 333 C217 413 227 472 247 520 C275 587 338 628 413 628 L413 628 Z M419 679 C312 679 216 646 153 589 C83 524 43 432 43 334 C43 129 194 -13 412 -13 C630 -13 782 129 782 332 C782 533 629 679 419 679 L419 679 Z M371 729 L404 729 L650 869 L650 877 L471 877 L371 729 Z " />
<glyph glyph-name="Ocircumflex" unicode="&#xd4;" horiz-adv-x="825" d="M413 628 C487 628 550 588 579 520 C600 473 609 413 609 330 C609 254 599 193 579 146 C551 79 488 38 413 38 C338 38 275 79 247 146 C226 194 217 253 217 333 C217 413 227 472 247 520 C275 587 338 628 413 628 L413 628 Z M419 679 C312 679 216 646 153 589 C83 524 43 432 43 334 C43 129 194 -13 412 -13 C630 -13 782 129 782 332 C782 533 629 679 419 679 L419 679 Z M345 879 L237 729 L269 729 L415 817 L580 729 L611 729 L502 879 L345 879 Z " />
<glyph glyph-name="Otilde" unicode="&#xd5;" horiz-adv-x="825" d="M413 628 C487 628 550 588 579 520 C600 473 609 413 609 330 C609 254 599 193 579 146 C551 79 488 38 413 38 C338 38 275 79 247 146 C226 194 217 253 217 333 C217 413 227 472 247 520 C275 587 338 628 413 628 L413 628 Z M419 679 C312 679 216 646 153 589 C83 524 43 432 43 334 C43 129 194 -13 412 -13 C630 -13 782 129 782 332 C782 533 629 679 419 679 L419 679 Z M276 726 C275 728 275 729 275 729 C273 754 295 779 319 779 C333 779 350 773 381 758 C428 734 463 724 494 724 C550 724 591 775 591 845 L590 861 L558 861 C553 826 538 805 518 805 C501 805 476 813 448 828 C407 849 369 861 341 861 C283 861 243 812 243 740 C243 738 243 731 244 726 L276 726 Z " />
<glyph glyph-name="Odieresis" unicode="&#xd6;" horiz-adv-x="825" d="M413 628 C487 628 550 588 579 520 C600 473 609 413 609 330 C609 254 599 193 579 146 C551 79 488 38 413 38 C338 38 275 79 247 146 C226 194 217 253 217 333 C217 413 227 472 247 520 C275 587 338 628 413 628 L413 628 Z M419 679 C312 679 216 646 153 589 C83 524 43 432 43 334 C43 129 194 -13 412 -13 C630 -13 782 129 782 332 C782 533 629 679 419 679 L419 679 Z M280 862 C242 862 212 832 212 794 C212 757 243 726 279 726 C318 726 348 756 348 794 C348 832 318 862 280 862 L280 862 Z M554 862 C517 862 486 832 486 795 C486 756 516 726 554 726 C592 726 622 757 622 794 C622 832 592 862 554 862 L554 862 Z " />
<glyph glyph-name="multiply" unicode="&#xd7;" horiz-adv-x="500" d="M101 560 L49 508 L198 361 L47 211 L101 157 L251 308 L399 159 L451 210 L301 359 L452 508 L398 562 L249 412 L101 560 Z " />
<glyph glyph-name="Oslash" unicode="&#xd8;" horiz-adv-x="829" d="M722 650 L690 679 L636 618 C572 658 496 679 412 679 C199 679 45 534 45 333 C45 229 86 137 160 72 L111 15 L144 -13 L195 45 C262 6 332 -13 416 -13 C631 -13 784 130 784 331 C784 434 744 525 671 591 L722 650 Z M588 496 C603 443 610 392 610 327 C610 134 546 38 417 38 C350 38 299 66 262 121 L588 496 Z M242 165 C227 213 219 273 219 342 C219 441 243 530 280 571 C313 608 362 628 415 628 C484 628 535 599 569 541 L242 165 Z " />
<glyph glyph-name="Ugrave" unicode="&#xd9;" horiz-adv-x="775" d="M518 667 L518 623 L524 623 C590 621 618 587 617 511 L617 286 C616 188 616 188 609 167 C585 93 513 44 428 44 C365 44 310 72 284 118 C265 151 259 189 259 275 L259 521 C260 604 276 624 342 623 L354 623 L354 667 L18 667 L18 623 L28 623 C94 624 110 604 111 521 L111 285 L111 235 C112 179 121 141 143 103 C186 31 278 -13 386 -13 C513 -13 604 37 645 129 C662 167 667 201 667 284 L667 519 C665 584 690 616 750 623 L757 623 L757 667 L518 667 Z M476 729 L509 729 L409 877 L230 877 L230 869 L476 729 Z " />
<glyph glyph-name="Uacute" unicode="&#xda;" horiz-adv-x="775" d="M518 667 L518 623 L524 623 C590 621 618 587 617 511 L617 286 C616 188 616 188 609 167 C585 93 513 44 428 44 C365 44 310 72 284 118 C265 151 259 189 259 275 L259 521 C260 604 276 624 342 623 L354 623 L354 667 L18 667 L18 623 L28 623 C94 624 110 604 111 521 L111 285 L111 235 C112 179 121 141 143 103 C186 31 278 -13 386 -13 C513 -13 604 37 645 129 C662 167 667 201 667 284 L667 519 C665 584 690 616 750 623 L757 623 L757 667 L518 667 Z M360 729 L393 729 L639 869 L639 877 L460 877 L360 729 Z " />
<glyph glyph-name="Ucircumflex" unicode="&#xdb;" horiz-adv-x="775" d="M518 667 L518 623 L524 623 C590 621 618 587 617 511 L617 286 C616 188 616 188 609 167 C585 93 513 44 428 44 C365 44 310 72 284 118 C265 151 259 189 259 275 L259 521 C260 604 276 624 342 623 L354 623 L354 667 L18 667 L18 623 L28 623 C94 624 110 604 111 521 L111 285 L111 235 C112 179 121 141 143 103 C186 31 278 -13 386 -13 C513 -13 604 37 645 129 C662 167 667 201 667 284 L667 519 C665 584 690 616 750 623 L757 623 L757 667 L518 667 Z M322 879 L214 729 L246 729 L392 817 L556 729 L588 729 L478 879 L322 879 Z " />
<glyph glyph-name="Udieresis" unicode="&#xdc;" horiz-adv-x="775" d="M518 667 L518 623 L524 623 C590 621 618 587 617 511 L617 286 C616 188 616 188 609 167 C585 93 513 44 428 44 C365 44 310 72 284 118 C265 151 259 189 259 275 L259 521 C260 604 276 624 342 623 L354 623 L354 667 L18 667 L18 623 L28 623 C94 624 110 604 111 521 L111 285 L111 235 C112 179 121 141 143 103 C186 31 278 -13 386 -13 C513 -13 604 37 645 129 C662 167 667 201 667 284 L667 519 C665 584 690 616 750 623 L757 623 L757 667 L518 667 Z M273 862 C235 862 205 832 205 794 C205 757 236 726 272 726 C311 726 341 756 341 794 C341 832 311 862 273 862 L273 862 Z M548 862 C511 862 480 832 480 795 C480 756 510 726 548 726 C586 726 616 757 616 794 C616 832 586 862 548 862 L548 862 Z " />
<glyph glyph-name="Yacute" unicode="&#xdd;" horiz-adv-x="662" d="M-13 667 L-13 623 L-7 623 C44 616 51 610 101 526 L256 267 L256 149 C256 68 238 44 175 44 L164 44 L164 0 L497 0 L497 44 L487 44 C423 44 405 68 405 149 L405 277 L549 512 C597 592 625 618 669 623 L674 623 L674 667 L449 667 L449 623 L454 623 C496 623 519 606 519 576 C519 561 512 541 496 515 L386 332 L260 541 C243 568 238 581 238 592 C238 613 257 623 295 623 L300 623 L300 667 L-13 667 Z M310 729 L343 729 L589 869 L589 877 L410 877 L310 729 Z " />
<glyph glyph-name="Thorn" unicode="&#xde;" horiz-adv-x="644" d="M373 667 L28 667 L28 623 L43 623 C109 624 125 604 126 521 L126 149 C126 68 108 44 45 44 L31 44 L31 0 L373 0 L373 44 L355 44 C288 46 273 63 274 138 L274 148 L331 148 L352 148 C416 148 458 153 499 167 C572 191 617 255 617 333 C617 399 585 454 531 482 C475 512 425 520 304 520 C302 520 287 520 274 519 C273 603 288 621 355 623 L373 623 L373 667 Z M274 196 L274 472 C281 473 286 473 297 473 C350 473 376 468 400 455 C436 434 457 389 457 331 C457 292 445 254 427 232 C407 208 367 196 311 196 L274 196 Z " />
<glyph glyph-name="germandbls" unicode="&#xdf;" horiz-adv-x="589" d="M82 125 C82 58 71 43 22 42 L16 42 L16 0 L260 0 L260 42 L256 42 C218 44 212 54 211 118 L211 479 C211 542 214 572 221 589 C234 619 262 635 301 635 C363 635 394 593 394 511 C394 431 360 390 292 390 L288 390 L288 348 L292 348 L302 348 C386 341 416 289 416 148 L416 119 C417 63 403 32 376 32 C362 32 352 40 344 58 C335 80 331 84 318 84 C305 84 294 72 294 57 C294 19 333 -8 386 -8 C484 -8 553 68 553 175 C553 277 494 346 385 371 C472 393 523 448 523 519 C523 616 438 678 305 678 C224 678 168 657 129 613 C95 574 82 521 82 427 L82 125 Z " />
<glyph glyph-name="agrave" unicode="&#xe0;" horiz-adv-x="534" d="M496 84 C492 62 480 49 464 49 C443 49 436 65 436 108 L436 287 C436 337 431 353 410 375 C382 405 334 419 262 419 C143 419 53 375 53 316 C53 290 74 272 103 272 C135 272 154 288 160 323 C163 341 168 353 174 359 C185 368 208 375 231 375 C254 375 277 368 289 358 C302 349 307 330 307 298 L307 267 L267 252 C248 244 233 238 224 235 C154 208 101 178 67 149 C50 134 38 105 38 80 C38 26 83 -10 150 -10 C203 -10 259 10 313 49 C330 10 366 -10 417 -10 C485 -10 526 25 529 84 L496 84 Z M307 223 L307 93 C276 65 246 50 220 50 C190 50 166 75 166 107 C166 151 202 181 301 221 L307 223 Z M353 488 L273 649 L120 649 L120 642 L320 488 L353 488 Z " />
<glyph glyph-name="aacute" unicode="&#xe1;" horiz-adv-x="534" d="M496 84 C492 62 480 49 464 49 C443 49 436 65 436 108 L436 287 C436 337 431 353 410 375 C382 405 334 419 262 419 C143 419 53 375 53 316 C53 290 74 272 103 272 C135 272 154 288 160 323 C163 341 168 353 174 359 C185 368 208 375 231 375 C254 375 277 368 289 358 C302 349 307 330 307 298 L307 267 L267 252 C248 244 233 238 224 235 C154 208 101 178 67 149 C50 134 38 105 38 80 C38 26 83 -10 150 -10 C203 -10 259 10 313 49 C330 10 366 -10 417 -10 C485 -10 526 25 529 84 L496 84 Z M307 223 L307 93 C276 65 246 50 220 50 C190 50 166 75 166 107 C166 151 202 181 301 221 L307 223 Z M223 488 L257 488 L455 642 L455 649 L303 649 L223 488 Z " />
<glyph glyph-name="acircumflex" unicode="&#xe2;" horiz-adv-x="534" d="M496 84 C492 62 480 49 464 49 C443 49 436 65 436 108 L436 287 C436 337 431 353 410 375 C382 405 334 419 262 419 C143 419 53 375 53 316 C53 290 74 272 103 272 C135 272 154 288 160 323 C163 341 168 353 174 359 C185 368 208 375 231 375 C254 375 277 368 289 358 C302 349 307 330 307 298 L307 267 L267 252 C248 244 233 238 224 235 C154 208 101 178 67 149 C50 134 38 105 38 80 C38 26 83 -10 150 -10 C203 -10 259 10 313 49 C330 10 366 -10 417 -10 C485 -10 526 25 529 84 L496 84 Z M307 223 L307 93 C276 65 246 50 220 50 C190 50 166 75 166 107 C166 151 202 181 301 221 L307 223 Z M375 489 L411 489 L324 652 L220 652 L131 489 L164 489 L268 578 L375 489 Z " />
<glyph glyph-name="atilde" unicode="&#xe3;" horiz-adv-x="534" d="M496 84 C492 62 480 49 464 49 C443 49 436 65 436 108 L436 287 C436 337 431 353 410 375 C382 405 334 419 262 419 C143 419 53 375 53 316 C53 290 74 272 103 272 C135 272 154 288 160 323 C163 341 168 353 174 359 C185 368 208 375 231 375 C254 375 277 368 289 358 C302 349 307 330 307 298 L307 267 L267 252 C248 244 233 238 224 235 C154 208 101 178 67 149 C50 134 38 105 38 80 C38 26 83 -10 150 -10 C203 -10 259 10 313 49 C330 10 366 -10 417 -10 C485 -10 526 25 529 84 L496 84 Z M307 223 L307 93 C276 65 246 50 220 50 C190 50 166 75 166 107 C166 151 202 181 301 221 L307 223 Z M148 503 C154 535 168 550 192 550 C208 550 224 544 259 526 C292 509 311 503 332 503 C393 503 426 550 427 635 L397 635 C394 600 379 582 351 582 C338 582 326 586 303 598 C260 621 237 629 212 629 C182 629 150 611 136 587 C124 564 119 540 119 503 L148 503 Z " />
<glyph glyph-name="adieresis" unicode="&#xe4;" horiz-adv-x="534" d="M496 84 C492 62 480 49 464 49 C443 49 436 65 436 108 L436 287 C436 337 431 353 410 375 C382 405 334 419 262 419 C143 419 53 375 53 316 C53 290 74 272 103 272 C135 272 154 288 160 323 C163 341 168 353 174 359 C185 368 208 375 231 375 C254 375 277 368 289 358 C302 349 307 330 307 298 L307 267 L267 252 C248 244 233 238 224 235 C154 208 101 178 67 149 C50 134 38 105 38 80 C38 26 83 -10 150 -10 C203 -10 259 10 313 49 C330 10 366 -10 417 -10 C485 -10 526 25 529 84 L496 84 Z M307 223 L307 93 C276 65 246 50 220 50 C190 50 166 75 166 107 C166 151 202 181 301 221 L307 223 Z M173 633 C140 633 113 606 113 573 C113 540 140 513 172 513 C206 513 233 539 233 573 C233 606 206 633 173 633 L173 633 Z M372 633 C339 633 312 606 312 573 C312 540 339 513 371 513 C405 513 432 540 432 573 C432 606 405 633 372 633 L372 633 Z " />
<glyph glyph-name="aring" unicode="&#xe5;" horiz-adv-x="534" d="M496 84 C492 62 480 49 464 49 C443 49 436 65 436 108 L436 287 C436 337 431 353 410 375 C382 405 334 419 262 419 C143 419 53 375 53 316 C53 290 74 272 103 272 C135 272 154 288 160 323 C163 341 168 353 174 359 C185 368 208 375 231 375 C254 375 277 368 289 358 C302 349 307 330 307 298 L307 267 L267 252 C248 244 233 238 224 235 C154 208 101 178 67 149 C50 134 38 105 38 80 C38 26 83 -10 150 -10 C203 -10 259 10 313 49 C330 10 366 -10 417 -10 C485 -10 526 25 529 84 L496 84 Z M307 223 L307 93 C276 65 246 50 220 50 C190 50 166 75 166 107 C166 151 202 181 301 221 L307 223 Z M271 682 C212 682 164 634 164 575 C164 518 212 469 269 469 C329 469 377 516 377 576 C377 634 329 682 271 682 L271 682 Z M270 643 C308 643 338 613 338 576 C338 538 307 508 270 508 C233 508 203 538 203 576 C203 613 234 643 270 643 L270 643 Z " />
<glyph glyph-name="ae" unicode="&#xe6;" horiz-adv-x="718" d="M633 99 C607 61 567 39 524 39 C455 39 416 101 416 210 L416 226 L683 226 C674 345 600 419 489 419 C447 419 412 408 381 386 C378 388 371 391 359 396 C319 414 290 419 238 419 C130 419 45 374 45 317 C45 293 66 275 96 275 C126 275 147 294 153 326 C157 349 157 349 163 356 C172 368 193 376 216 376 C245 376 266 366 276 347 C284 334 286 323 286 291 L286 266 C199 235 126 202 97 180 C57 150 37 117 37 82 C37 31 87 -11 148 -11 C202 -11 262 17 315 67 C356 16 417 -11 490 -11 C570 -11 636 22 670 79 L633 99 Z M416 266 C418 335 445 376 488 376 C513 376 535 360 547 333 C553 319 556 304 557 266 L416 266 Z M286 96 C265 69 237 53 214 53 C184 53 161 79 161 112 C161 156 197 187 286 222 L286 96 Z " />
<glyph glyph-name="ccedilla" unicode="&#xe7;" horiz-adv-x="473" d="M277 -15 C368 -8 426 31 450 101 L409 116 C390 64 350 36 294 36 C212 36 174 94 174 219 C174 323 209 376 277 376 C308 376 321 366 327 340 C338 292 354 274 387 274 C416 274 438 297 438 328 C438 381 374 419 283 419 C141 419 35 323 35 194 C35 77 120 -8 245 -15 C240 -53 237 -75 231 -100 C258 -102 275 -118 275 -142 C275 -165 259 -179 233 -179 C215 -179 201 -176 178 -169 C176 -186 175 -189 172 -205 C193 -213 211 -217 233 -217 C301 -217 346 -182 346 -129 C346 -84 319 -54 273 -49 C275 -33 276 -28 277 -19 L277 -15 Z " />
<glyph glyph-name="egrave" unicode="&#xe8;" horiz-adv-x="489" d="M408 100 C382 58 340 34 294 34 C218 34 176 93 176 200 C176 209 176 216 177 227 L455 227 L455 234 C455 343 373 419 257 419 C130 419 37 328 37 203 C37 76 131 -16 260 -16 C341 -16 413 22 446 81 L408 100 Z M178 266 C182 310 186 328 198 347 C209 364 232 376 255 376 C299 376 326 339 326 279 C326 274 326 271 325 266 L178 266 Z M350 488 L269 649 L116 649 L116 642 L316 488 L350 488 Z " />
<glyph glyph-name="eacute" unicode="&#xe9;" horiz-adv-x="489" d="M408 100 C382 58 340 34 294 34 C218 34 176 93 176 200 C176 209 176 216 177 227 L455 227 L455 234 C455 343 373 419 257 419 C130 419 37 328 37 203 C37 76 131 -16 260 -16 C341 -16 413 22 446 81 L408 100 Z M178 266 C182 310 186 328 198 347 C209 364 232 376 255 376 C299 376 326 339 326 279 C326 274 326 271 325 266 L178 266 Z M227 488 L261 488 L459 642 L459 649 L308 649 L227 488 Z " />
<glyph glyph-name="ecircumflex" unicode="&#xea;" horiz-adv-x="489" d="M408 100 C382 58 340 34 294 34 C218 34 176 93 176 200 C176 209 176 216 177 227 L455 227 L455 234 C455 343 373 419 257 419 C130 419 37 328 37 203 C37 76 131 -16 260 -16 C341 -16 413 22 446 81 L408 100 Z M178 266 C182 310 186 328 198 347 C209 364 232 376 255 376 C299 376 326 339 326 279 C326 274 326 271 325 266 L178 266 Z M367 489 L403 489 L316 652 L212 652 L123 489 L156 489 L260 578 L367 489 Z " />
<glyph glyph-name="edieresis" unicode="&#xeb;" horiz-adv-x="489" d="M408 100 C382 58 340 34 294 34 C218 34 176 93 176 200 C176 209 176 216 177 227 L455 227 L455 234 C455 343 373 419 257 419 C130 419 37 328 37 203 C37 76 131 -16 260 -16 C341 -16 413 22 446 81 L408 100 Z M178 266 C182 310 186 328 198 347 C209 364 232 376 255 376 C299 376 326 339 326 279 C326 274 326 271 325 266 L178 266 Z M163 633 C130 633 103 606 103 573 C103 540 130 513 162 513 C196 513 223 539 223 573 C223 606 196 633 163 633 L163 633 Z M362 633 C329 633 302 606 302 573 C302 540 329 513 361 513 C395 513 422 540 422 573 C422 606 395 633 362 633 L362 633 Z " />
<glyph glyph-name="igrave" unicode="&#xec;" horiz-adv-x="301" d="M221 419 L214 419 C182 411 55 389 16 386 L16 343 L28 343 C78 344 92 326 92 263 L92 125 C90 57 79 43 29 42 L16 42 L16 0 L289 0 L289 42 L283 42 C234 43 223 58 221 125 L221 419 Z M235 488 L155 649 L2 649 L2 642 L201 488 L235 488 Z " />
<glyph glyph-name="iacute" unicode="&#xed;" horiz-adv-x="301" d="M221 419 L214 419 C182 411 55 389 16 386 L16 343 L28 343 C78 344 92 326 92 263 L92 125 C90 57 79 43 29 42 L16 42 L16 0 L288 0 L288 42 L282 42 C234 43 223 58 221 125 L221 419 Z M111 488 L144 488 L343 642 L343 649 L191 649 L111 488 Z " />
<glyph glyph-name="icircumflex" unicode="&#xee;" horiz-adv-x="301" d="M220 419 L213 419 C182 411 57 390 16 386 L16 343 L28 343 C77 344 91 326 91 263 L91 125 C89 57 78 43 29 42 L16 42 L16 0 L288 0 L288 42 L282 42 C233 43 222 58 220 125 L220 419 Z M257 489 L292 489 L206 652 L101 652 L12 489 L45 489 L149 578 L257 489 Z " />
<glyph glyph-name="idieresis" unicode="&#xef;" horiz-adv-x="301" d="M221 419 L214 419 C182 411 55 389 16 386 L16 343 L28 343 C78 344 92 326 92 263 L92 125 C90 57 79 43 29 42 L16 42 L16 0 L289 0 L289 42 L283 42 C234 43 223 58 221 125 L221 419 Z M66 633 C33 633 6 606 6 573 C6 540 33 513 65 513 C99 513 126 539 126 573 C126 606 99 633 66 633 L66 633 Z M239 633 C206 633 179 606 179 573 C179 540 206 513 238 513 C272 513 299 540 299 573 C299 606 272 633 239 633 L239 633 Z " />
<glyph glyph-name="eth" unicode="&#xf0;" horiz-adv-x="544" d="M149 616 C189 592 195 588 230 560 L123 504 L141 466 L264 529 C300 493 334 437 347 396 C323 414 303 419 265 419 C134 419 37 327 37 202 C37 75 133 -14 271 -14 C418 -14 507 80 507 234 C507 363 457 473 353 576 L437 620 L417 657 L318 606 C281 634 248 655 201 678 L149 616 Z M273 374 C335 374 367 318 367 211 C367 143 361 108 343 77 C324 43 304 30 269 30 C206 30 176 86 176 203 C176 320 207 374 273 374 L273 374 Z " />
<glyph glyph-name="ntilde" unicode="&#xf1;" horiz-adv-x="584" d="M200 412 C178 406 157 402 111 395 C56 386 43 384 22 380 L22 338 L27 338 C72 338 85 321 88 259 L88 125 C86 57 76 43 27 42 L23 42 L23 0 L273 0 L273 42 L269 42 C226 45 219 57 217 125 L217 283 C252 331 284 353 319 353 C355 353 377 328 377 288 L377 125 C375 57 368 46 328 43 L321 42 L321 0 L572 0 L572 42 L567 42 C520 43 510 57 508 125 L508 260 C508 314 504 335 491 359 C470 396 423 419 372 419 C315 419 261 393 219 346 C218 376 214 396 208 412 L200 412 Z M174 503 C180 535 194 550 218 550 C234 550 250 544 285 526 C318 509 337 503 358 503 C396 503 424 523 441 560 C449 578 452 598 453 635 L423 635 C420 600 405 582 377 582 C364 582 352 586 329 598 C286 621 263 629 238 629 C208 629 176 611 162 587 C150 564 145 540 145 503 L174 503 Z " />
<glyph glyph-name="ograve" unicode="&#xf2;" horiz-adv-x="544" d="M273 419 C135 419 37 328 37 200 C37 73 136 -16 277 -16 C409 -16 508 77 508 201 C508 328 410 419 273 419 L273 419 Z M273 375 C342 375 369 327 369 203 C369 74 343 28 271 28 C240 28 211 44 197 68 C182 95 176 135 176 202 C176 268 182 308 197 335 C211 360 239 375 273 375 L273 375 Z M376 488 L296 649 L143 649 L143 642 L342 488 L376 488 Z " />
<glyph glyph-name="oacute" unicode="&#xf3;" horiz-adv-x="544" d="M273 419 C135 419 37 328 37 200 C37 73 136 -16 277 -16 C409 -16 508 77 508 201 C508 328 410 419 273 419 L273 419 Z M273 375 C342 375 369 327 369 203 C369 74 343 28 271 28 C240 28 211 44 197 68 C182 95 176 135 176 202 C176 268 182 308 197 335 C211 360 239 375 273 375 L273 375 Z M222 488 L256 488 L454 642 L454 649 L303 649 L222 488 Z " />
<glyph glyph-name="ocircumflex" unicode="&#xf4;" horiz-adv-x="544" d="M273 419 C135 419 37 328 37 200 C37 73 136 -16 277 -16 C409 -16 508 77 508 201 C508 328 410 419 273 419 L273 419 Z M273 375 C342 375 369 327 369 203 C369 74 343 28 271 28 C240 28 211 44 197 68 C182 95 176 135 176 202 C176 268 182 308 197 335 C211 360 239 375 273 375 L273 375 Z M383 489 L419 489 L332 652 L228 652 L139 489 L172 489 L276 578 L383 489 Z " />
<glyph glyph-name="otilde" unicode="&#xf5;" horiz-adv-x="544" d="M273 419 C135 419 37 328 37 200 C37 73 136 -16 277 -16 C409 -16 508 77 508 201 C508 328 410 419 273 419 L273 419 Z M273 375 C342 375 369 327 369 203 C369 74 343 28 271 28 C240 28 211 44 197 68 C182 95 176 135 176 202 C176 268 182 308 197 335 C211 360 239 375 273 375 L273 375 Z M154 503 C160 535 174 550 198 550 C214 550 230 544 265 526 C298 509 317 503 338 503 C399 503 433 551 433 635 L403 635 C400 600 384 582 357 582 C344 582 332 586 309 598 C266 621 243 629 218 629 C188 629 156 611 142 587 C130 564 125 540 125 503 L154 503 Z " />
<glyph glyph-name="odieresis" unicode="&#xf6;" horiz-adv-x="544" d="M273 419 C135 419 37 328 37 200 C37 73 136 -16 277 -16 C409 -16 508 77 508 201 C508 328 410 419 273 419 L273 419 Z M273 375 C342 375 369 327 369 203 C369 74 343 28 271 28 C240 28 211 44 197 68 C182 95 176 135 176 202 C176 268 182 308 197 335 C211 360 239 375 273 375 L273 375 Z M170 633 C137 633 110 606 110 573 C110 540 137 513 169 513 C203 513 230 539 230 573 C230 606 203 633 170 633 L170 633 Z M369 633 C336 633 309 606 309 573 C309 540 336 513 368 513 C402 513 429 540 429 573 C429 606 402 633 369 633 L369 633 Z " />
<glyph glyph-name="divide" unicode="&#xf7;" horiz-adv-x="500" d="M9 396 L9 323 L491 323 L491 396 L9 396 Z M251 250 C209 250 174 215 174 173 C174 131 209 96 250 96 C294 96 328 130 328 173 C328 216 294 250 251 250 L251 250 Z M251 622 C209 622 174 587 174 546 C174 502 208 468 251 468 C294 468 328 502 328 545 C328 588 294 622 251 622 L251 622 Z " />
<glyph glyph-name="oslash" unicode="&#xf8;" horiz-adv-x="544" d="M402 386 C359 409 318 419 270 419 C135 419 37 327 37 200 C37 136 60 81 104 43 L61 -7 L93 -35 L139 18 C183 -5 225 -16 274 -16 C410 -16 508 76 508 203 C508 270 486 318 437 362 L480 411 L448 439 L402 386 Z M181 131 C177 159 176 177 176 206 C176 327 203 375 272 375 C309 375 335 359 351 327 L181 131 Z M364 278 C368 251 369 230 369 200 C369 79 340 27 274 27 C237 27 211 44 193 81 L364 278 Z " />
<glyph glyph-name="ugrave" unicode="&#xf9;" horiz-adv-x="572" d="M491 403 L296 403 L296 361 L302 361 C350 360 360 346 362 279 L362 145 C362 141 355 121 350 111 C333 76 296 51 261 51 C248 51 236 56 225 65 C211 76 206 96 206 134 L206 403 L14 403 L14 361 L18 361 C64 360 75 346 77 279 L77 130 C77 87 81 66 94 44 C114 8 161 -16 212 -16 C270 -16 322 11 362 63 L362 56 L362 53 C363 23 365 -4 368 -16 L373 -16 C404 -7 496 1 556 0 L556 42 L553 42 C505 43 493 59 491 125 L491 403 Z M376 488 L296 649 L143 649 L143 642 L342 488 L376 488 Z " />
<glyph glyph-name="uacute" unicode="&#xfa;" horiz-adv-x="572" d="M491 403 L296 403 L296 361 L302 361 C350 360 360 346 362 279 L362 145 C362 141 355 121 350 111 C333 76 296 51 261 51 C248 51 236 56 225 65 C211 76 206 96 206 134 L206 403 L14 403 L14 361 L18 361 C64 360 75 346 77 279 L77 130 C77 87 81 66 94 44 C114 8 161 -16 212 -16 C270 -16 322 11 362 63 L362 56 L362 53 C363 23 365 -4 368 -16 L373 -16 C404 -7 496 1 556 0 L556 42 L553 42 C505 43 493 59 491 125 L491 403 Z M258 488 L292 488 L490 642 L490 649 L338 649 L258 488 Z " />
<glyph glyph-name="ucircumflex" unicode="&#xfb;" horiz-adv-x="572" d="M491 403 L296 403 L296 361 L302 361 C350 360 360 346 362 279 L362 145 C362 141 355 121 350 111 C333 76 296 51 261 51 C248 51 236 56 225 65 C211 76 206 96 206 134 L206 403 L14 403 L14 361 L18 361 C64 360 75 346 77 279 L77 130 C77 87 81 66 94 44 C114 8 161 -16 212 -16 C270 -16 322 11 362 63 L362 56 L362 53 C363 23 365 -4 368 -16 L373 -16 C404 -7 496 1 556 0 L556 42 L553 42 C505 43 493 59 491 125 L491 403 Z M400 489 L436 489 L349 652 L245 652 L156 489 L189 489 L293 578 L400 489 Z " />
<glyph glyph-name="udieresis" unicode="&#xfc;" horiz-adv-x="572" d="M491 403 L296 403 L296 361 L302 361 C350 360 360 346 362 279 L362 145 C362 141 355 121 350 111 C333 76 296 51 261 51 C248 51 236 56 225 65 C211 76 206 96 206 134 L206 403 L14 403 L14 361 L18 361 C64 360 75 346 77 279 L77 130 C77 87 81 66 94 44 C114 8 161 -16 212 -16 C270 -16 322 11 362 63 L362 56 L362 53 C363 23 365 -4 368 -16 L373 -16 C404 -7 496 1 556 0 L556 42 L553 42 C505 43 493 59 491 125 L491 403 Z M198 633 C165 633 138 606 138 573 C138 540 165 513 197 513 C231 513 258 539 258 573 C258 606 231 633 198 633 L198 633 Z M397 633 C364 633 337 606 337 573 C337 540 364 513 396 513 C430 513 457 540 457 573 C457 606 430 633 397 633 L397 633 Z " />
<glyph glyph-name="yacute" unicode="&#xfd;" horiz-adv-x="503" d="M-6 403 L-6 361 L2 360 C30 358 40 347 68 293 L234 -15 L214 -65 C194 -107 180 -117 118 -135 C76 -147 57 -166 57 -196 C57 -227 82 -250 116 -250 C162 -250 193 -218 234 -128 L407 251 C444 335 460 355 493 360 L500 361 L500 403 L345 403 L345 361 L353 361 C377 361 391 352 391 337 C391 327 389 323 373 286 L298 118 L204 301 C197 313 193 328 193 338 C193 353 201 359 222 361 L229 361 L229 403 L-6 403 Z M239 488 L273 488 L471 642 L471 649 L319 649 L239 488 Z " />
<glyph glyph-name="thorn" unicode="&#xfe;" horiz-adv-x="585" d="M8 602 L15 602 C64 601 76 586 78 520 L78 -116 C78 -181 64 -199 15 -199 L8 -199 L8 -241 L282 -241 L282 -199 L269 -199 C221 -198 209 -183 207 -116 L207 42 C254 1 295 -16 346 -16 C463 -16 549 78 549 206 C549 329 468 419 357 419 C301 419 250 396 205 350 L205 678 L197 678 C175 672 76 653 51 651 C29 648 19 647 8 644 L8 602 Z M207 295 C237 340 270 361 309 361 C375 361 410 306 410 202 C410 151 404 118 390 93 C372 62 339 42 305 42 C270 42 236 60 207 92 L207 295 Z " />
<glyph glyph-name="ydieresis" unicode="&#xff;" horiz-adv-x="503" d="M-6 403 L-6 361 L2 360 C30 358 40 347 68 293 L234 -15 L214 -65 C194 -107 180 -117 118 -135 C76 -147 57 -166 57 -196 C57 -227 82 -250 116 -250 C162 -250 193 -218 234 -128 L407 251 C444 335 460 355 493 360 L500 361 L500 403 L345 403 L345 361 L353 361 C377 361 391 352 391 337 C391 327 389 323 373 286 L298 118 L204 301 C197 313 193 328 193 338 C193 353 201 359 222 361 L229 361 L229 403 L-6 403 Z M174 633 C141 633 114 606 114 573 C114 540 141 513 173 513 C207 513 234 539 234 573 C234 606 207 633 174 633 L174 633 Z M373 633 C340 633 313 606 313 573 C313 540 340 513 372 513 C406 513 433 540 433 573 C433 606 406 633 373 633 L373 633 Z " />
<glyph glyph-name="Amacron" unicode="&#x100;" horiz-adv-x="657" d="M671 0 L671 44 L666 44 C617 50 603 65 564 157 L350 678 L306 678 L101 170 C69 87 38 51 -6 44 L-13 44 L-13 0 L200 0 L200 44 L192 44 C155 44 129 63 129 91 C129 107 133 122 153 170 L166 202 L387 202 L417 128 C428 101 435 81 435 74 C435 53 414 44 370 44 L363 44 L363 0 L671 0 Z M369 247 L183 247 L275 475 L369 247 Z M155 810 L155 758 L489 758 L489 810 L155 810 Z " />
<glyph glyph-name="amacron" unicode="&#x101;" horiz-adv-x="534" d="M496 84 C492 62 480 49 464 49 C443 49 436 65 436 108 L436 287 C436 337 431 353 410 375 C382 405 334 419 262 419 C143 419 53 375 53 316 C53 290 74 272 103 272 C135 272 154 288 160 323 C163 341 168 353 174 359 C185 368 208 375 231 375 C254 375 277 368 289 358 C302 349 307 330 307 298 L307 267 L267 252 C248 244 233 238 224 235 C154 208 101 178 67 149 C50 134 38 105 38 80 C38 26 83 -10 150 -10 C203 -10 259 10 313 49 C330 10 366 -10 417 -10 C485 -10 526 25 529 84 L496 84 Z M307 223 L307 93 C276 65 246 50 220 50 C190 50 166 75 166 107 C166 151 202 181 301 221 L307 223 Z M113 541 L420 541 L420 590 L113 590 L113 541 Z " />
<glyph glyph-name="Abreve" unicode="&#x102;" horiz-adv-x="657" d="M671 0 L671 44 L666 44 C617 50 603 65 564 157 L350 678 L306 678 L101 170 C69 87 38 51 -6 44 L-13 44 L-13 0 L200 0 L200 44 L192 44 C155 44 129 63 129 91 C129 107 133 122 153 170 L166 202 L387 202 L417 128 C428 101 435 81 435 74 C435 53 414 44 370 44 L363 44 L363 0 L671 0 Z M369 247 L183 247 L275 475 L369 247 Z M144 880 C172 782 245 720 333 720 C422 720 495 783 519 880 L475 880 C449 835 398 810 331 810 C265 810 221 832 190 880 L144 880 Z " />
<glyph glyph-name="abreve" unicode="&#x103;" horiz-adv-x="534" d="M496 84 C492 62 480 49 464 49 C443 49 436 65 436 108 L436 287 C436 337 431 353 410 375 C382 405 334 419 262 419 C143 419 53 375 53 316 C53 290 74 272 103 272 C135 272 154 288 160 323 C163 341 168 353 174 359 C185 368 208 375 231 375 C254 375 277 368 289 358 C302 349 307 330 307 298 L307 267 L267 252 C248 244 233 238 224 235 C154 208 101 178 67 149 C50 134 38 105 38 80 C38 26 83 -10 150 -10 C203 -10 259 10 313 49 C330 10 366 -10 417 -10 C485 -10 526 25 529 84 L496 84 Z M307 223 L307 93 C276 65 246 50 220 50 C190 50 166 75 166 107 C166 151 202 181 301 221 L307 223 Z M131 648 L131 645 C131 608 147 566 175 535 C201 504 234 489 274 489 C352 489 412 556 416 648 L389 648 C371 596 334 571 276 571 C215 571 175 598 159 648 L131 648 Z " />
<glyph glyph-name="Aogonek" unicode="&#x104;" horiz-adv-x="657" d="M671 0 L671 44 L666 44 C617 50 603 65 564 157 L350 678 L306 678 L101 170 C69 87 38 51 -6 44 L-13 44 L-13 0 L200 0 L200 44 L192 44 C155 44 129 63 129 91 C129 107 133 122 153 170 L166 202 L387 202 L417 128 C428 101 435 81 435 74 C435 53 414 44 370 44 L363 44 L363 0 L561 0 C503 -27 468 -71 468 -117 C468 -169 518 -209 585 -209 C624 -209 653 -199 694 -171 L680 -150 C657 -159 645 -162 629 -162 C590 -162 562 -132 562 -92 C562 -57 574 -31 604 0 L671 0 Z M369 247 L183 247 L275 475 L369 247 Z " />
<glyph glyph-name="aogonek" unicode="&#x105;" horiz-adv-x="534" d="M496 84 C492 63 480 50 464 50 C443 50 436 65 436 108 L436 287 C436 337 431 353 410 375 C382 405 334 419 262 419 C143 419 53 375 53 316 C53 290 74 272 103 272 C135 272 154 288 160 323 C163 341 168 353 174 359 C185 368 208 375 231 375 C254 375 277 368 289 358 C302 349 307 330 307 298 L307 267 L267 252 C248 244 233 238 224 235 C154 208 101 178 67 149 C50 134 38 105 38 80 C38 26 83 -10 150 -10 C203 -10 259 10 313 49 C326 18 352 -1 391 -7 C352 -31 326 -70 326 -107 C326 -156 369 -192 427 -192 C460 -192 485 -183 521 -158 L509 -137 C493 -145 484 -148 471 -148 C434 -148 407 -120 407 -83 C407 -56 416 -31 435 -9 C493 -2 528 32 529 84 L496 84 Z M307 223 L307 93 C276 65 246 50 220 50 C190 50 166 75 166 107 C166 151 202 181 301 221 L307 223 Z " />
<glyph glyph-name="Cacute" unicode="&#x106;" horiz-adv-x="736" d="M630 254 C617 187 584 121 548 91 C508 58 458 40 410 40 C343 40 281 75 249 131 C223 176 211 239 211 329 C211 527 276 628 405 628 C468 628 531 598 565 552 C593 515 611 472 624 412 L667 412 L661 661 L618 661 C612 634 605 614 595 593 C540 650 467 679 380 679 C186 679 43 529 43 326 C43 130 184 -13 377 -13 C467 -13 546 19 600 76 C615 58 623 40 630 10 L673 10 L673 254 L630 254 Z M344 729 L377 729 L623 869 L623 877 L444 877 L344 729 Z " />
<glyph glyph-name="cacute" unicode="&#x107;" horiz-adv-x="473" d="M409 116 C390 64 350 36 294 36 C212 36 174 94 174 219 C174 323 209 376 277 376 C308 376 321 366 327 340 C338 292 354 274 387 274 C416 274 438 297 438 328 C438 381 374 419 283 419 C141 419 35 323 35 194 C35 71 129 -16 261 -16 C356 -16 423 26 450 101 L409 116 Z M237 488 L271 488 L469 642 L469 649 L317 649 L237 488 Z " />
<glyph glyph-name="Ccircumflex" unicode="&#x108;" horiz-adv-x="736" d="M630 254 C617 187 584 121 548 91 C508 58 458 40 410 40 C343 40 281 75 249 131 C223 176 211 239 211 329 C211 527 276 628 405 628 C468 628 531 598 565 552 C593 515 611 472 624 412 L667 412 L661 661 L618 661 C612 634 605 614 595 593 C540 650 467 679 380 679 C186 679 43 529 43 326 C43 130 184 -13 377 -13 C467 -13 546 19 600 76 C615 58 623 40 630 10 L673 10 L673 254 L630 254 Z M312 879 L204 729 L235 729 L381 817 L546 729 L578 729 L468 879 L312 879 Z " />
<glyph glyph-name="ccircumflex" unicode="&#x109;" horiz-adv-x="473" d="M409 116 C390 64 350 36 294 36 C212 36 174 94 174 219 C174 323 209 376 277 376 C308 376 321 366 327 340 C338 292 354 274 387 274 C416 274 438 297 438 328 C438 381 374 419 283 419 C141 419 35 323 35 194 C35 71 129 -16 261 -16 C356 -16 423 26 450 101 L409 116 Z M362 489 L397 489 L311 652 L206 652 L117 489 L150 489 L254 578 L362 489 Z " />
<glyph glyph-name="Cdotaccent" unicode="&#x10a;" horiz-adv-x="736" d="M630 254 C617 187 584 121 548 91 C508 58 458 40 410 40 C343 40 281 75 249 131 C223 176 211 239 211 329 C211 527 276 628 405 628 C468 628 531 598 565 552 C593 515 611 472 624 412 L667 412 L661 661 L618 661 C612 634 605 614 595 593 C540 650 467 679 380 679 C186 679 43 529 43 326 C43 130 184 -13 377 -13 C467 -13 546 19 600 76 C615 58 623 40 630 10 L673 10 L673 254 L630 254 Z M386 862 C348 862 318 832 318 794 C318 757 349 726 385 726 C424 726 454 756 454 794 C454 832 424 862 386 862 L386 862 Z " />
<glyph glyph-name="cdotaccent" unicode="&#x10b;" horiz-adv-x="473" d="M409 116 C390 64 350 36 294 36 C212 36 174 94 174 219 C174 323 209 376 277 376 C308 376 321 366 327 340 C338 292 354 274 387 274 C416 274 438 297 438 328 C438 381 374 419 283 419 C141 419 35 323 35 194 C35 71 129 -16 261 -16 C356 -16 423 26 450 101 L409 116 Z M283 633 C250 633 223 606 223 573 C223 540 250 513 282 513 C316 513 343 539 343 573 C343 606 316 633 283 633 L283 633 Z " />
<glyph glyph-name="Ccaron" unicode="&#x10c;" horiz-adv-x="736" d="M630 254 C617 187 584 121 548 91 C508 58 458 40 410 40 C343 40 281 75 249 131 C223 176 211 239 211 329 C211 527 276 628 405 628 C468 628 531 598 565 552 C593 515 611 472 624 412 L667 412 L661 661 L618 661 C612 634 605 614 595 593 C540 650 467 679 380 679 C186 679 43 529 43 326 C43 130 184 -13 377 -13 C467 -13 546 19 600 76 C615 58 623 40 630 10 L673 10 L673 254 L630 254 Z M461 729 L572 879 L540 879 L393 791 L229 879 L197 879 L305 729 L461 729 Z " />
<glyph glyph-name="ccaron" unicode="&#x10d;" horiz-adv-x="473" d="M409 116 C390 64 350 36 294 36 C212 36 174 94 174 219 C174 323 209 376 277 376 C308 376 321 366 327 340 C338 292 354 274 387 274 C416 274 438 297 438 328 C438 381 374 419 283 419 C141 419 35 323 35 194 C35 71 129 -16 261 -16 C356 -16 423 26 450 101 L409 116 Z M165 655 L132 655 L222 491 L327 491 L412 655 L377 655 L278 566 L165 655 Z " />
<glyph glyph-name="Dcaron" unicode="&#x10e;" horiz-adv-x="787" d="M29 665 L29 622 L40 622 C106 623 124 601 124 519 L124 149 C125 68 105 43 42 44 L28 44 L28 0 L287 0 C428 0 481 4 530 20 C663 64 744 180 744 328 C744 471 671 582 544 632 C475 659 375 672 232 672 C171 672 146 671 36 666 L29 665 Z M272 626 C289 627 298 627 312 627 C397 627 445 612 491 571 C548 521 576 440 576 325 C576 187 531 90 456 66 C420 54 382 47 353 47 C286 47 272 69 272 171 L272 626 Z M434 729 L545 879 L513 879 L366 791 L202 879 L170 879 L278 729 L434 729 Z " />
<glyph glyph-name="dcaron" unicode="&#x10f;" horiz-adv-x="705" d="M573 50 L566 50 C519 50 506 68 506 133 L505 676 L498 676 C457 664 380 652 310 647 L310 605 L315 605 C364 604 375 589 377 522 L377 364 C343 398 290 419 235 419 C117 419 37 330 37 197 C37 72 113 -12 225 -12 C282 -12 334 11 378 56 L378 50 C378 27 381 10 388 -12 C433 -3 499 4 573 6 L573 50 Z M377 111 C351 70 313 47 272 47 C209 47 176 102 176 206 C176 310 210 361 278 361 C311 361 341 347 377 315 L377 111 Z M553 434 C642 442 699 498 699 576 C699 637 666 678 617 678 C577 678 548 651 548 614 C548 582 572 556 603 556 C607 556 613 557 618 558 C631 561 631 561 634 561 C642 561 649 552 649 541 C649 507 608 479 553 473 L553 434 Z " />
<glyph glyph-name="Dcroat" unicode="&#x110;" horiz-adv-x="790" d="M127 358 L26 358 L26 306 L127 306 L127 149 C128 68 108 43 45 44 L31 44 L31 0 L290 0 C431 0 484 4 533 20 C666 64 747 180 747 328 C747 471 674 582 547 632 C477 659 378 672 235 672 C174 672 149 671 39 666 L32 665 L32 622 L43 622 C109 623 127 601 127 519 L127 358 Z M275 358 L275 626 C292 627 301 627 315 627 C400 627 448 612 494 571 C551 521 579 440 579 325 C579 187 534 90 459 66 C423 54 385 47 356 47 C289 47 275 68 275 171 L275 306 L420 306 L420 358 L275 358 Z " />
<glyph glyph-name="dcroat" unicode="&#x111;" horiz-adv-x="585" d="M377 491 L377 364 C343 399 290 419 235 419 C116 419 37 330 37 197 C37 72 113 -12 224 -12 C282 -12 334 11 378 56 L378 50 C378 27 381 10 388 -12 C436 -2 489 3 573 6 L573 50 L566 50 C519 50 506 68 506 133 L505 491 L573 491 L573 535 L505 535 L505 676 L498 676 C457 664 380 652 310 647 L310 604 L315 604 C361 604 373 590 377 535 L229 535 L229 491 L377 491 Z M377 111 C351 70 313 47 272 47 C209 47 176 102 176 206 C176 310 209 361 278 361 C311 361 341 347 377 315 L377 111 Z " />
<glyph glyph-name="Emacron" unicode="&#x112;" horiz-adv-x="656" d="M582 215 C548 90 500 45 398 47 L370 47 C290 44 268 70 271 164 L271 327 L338 327 C403 326 418 311 419 243 L419 235 L464 235 L464 462 L419 462 L419 455 C417 389 403 375 336 374 L271 374 L271 621 L384 621 C476 624 509 597 537 496 L581 496 L570 667 L33 667 L33 624 L44 624 C103 626 123 599 123 521 L123 149 C124 69 103 42 41 44 L28 44 L28 0 L618 0 L626 215 L582 215 Z M168 810 L168 758 L502 758 L502 810 L168 810 Z " />
<glyph glyph-name="emacron" unicode="&#x113;" horiz-adv-x="489" d="M408 100 C382 58 340 34 294 34 C218 34 176 93 176 200 C176 209 176 216 177 227 L455 227 L455 234 C455 343 373 419 257 419 C130 419 37 328 37 203 C37 76 131 -16 260 -16 C341 -16 413 22 446 81 L408 100 Z M178 266 C182 310 186 328 198 347 C209 364 232 376 255 376 C299 376 326 339 326 279 C326 274 326 271 325 266 L178 266 Z M103 541 L410 541 L410 590 L103 590 L103 541 Z " />
<glyph glyph-name="Ebreve" unicode="&#x114;" horiz-adv-x="656" d="M582 215 C548 90 500 45 398 47 L370 47 C290 44 268 70 271 164 L271 327 L338 327 C403 326 418 311 419 243 L419 235 L464 235 L464 462 L419 462 L419 455 C417 389 403 375 336 374 L271 374 L271 621 L384 621 C476 624 509 597 537 496 L581 496 L570 667 L33 667 L33 624 L44 624 C103 626 123 599 123 521 L123 149 C124 69 103 42 41 44 L28 44 L28 0 L618 0 L626 215 L582 215 Z M157 880 C184 782 257 720 346 720 C435 720 508 783 532 880 L488 880 C462 835 410 810 344 810 C278 810 234 832 203 880 L157 880 Z " />
<glyph glyph-name="ebreve" unicode="&#x115;" horiz-adv-x="489" d="M408 100 C382 58 340 34 294 34 C218 34 176 93 176 200 C176 209 176 216 177 227 L455 227 L455 234 C455 343 373 419 257 419 C130 419 37 328 37 203 C37 76 131 -16 260 -16 C341 -16 413 22 446 81 L408 100 Z M178 266 C182 310 186 328 198 347 C209 364 232 376 255 376 C299 376 326 339 326 279 C326 274 326 271 325 266 L178 266 Z M117 648 C122 556 182 489 260 489 C338 489 398 556 402 648 L374 648 C357 596 320 571 262 571 C201 571 160 598 145 648 L117 648 Z " />
<glyph glyph-name="Edotaccent" unicode="&#x116;" horiz-adv-x="656" d="M582 215 C548 90 500 45 398 47 L370 47 C290 44 268 70 271 164 L271 327 L338 327 C403 326 418 311 419 243 L419 235 L464 235 L464 462 L419 462 L419 455 C417 389 403 375 336 374 L271 374 L271 621 L384 621 C476 624 509 597 537 496 L581 496 L570 667 L33 667 L33 624 L44 624 C103 626 123 599 123 521 L123 149 C124 69 103 42 41 44 L28 44 L28 0 L618 0 L626 215 L582 215 Z M335 862 C297 862 267 832 267 794 C267 757 298 726 334 726 C373 726 403 756 403 794 C403 832 373 862 335 862 L335 862 Z " />
<glyph glyph-name="edotaccent" unicode="&#x117;" horiz-adv-x="489" d="M408 100 C382 58 340 34 294 34 C218 34 176 93 176 200 C176 209 176 216 177 227 L455 227 L455 234 C455 343 373 419 257 419 C130 419 37 328 37 203 C37 76 131 -16 260 -16 C341 -16 413 22 446 81 L408 100 Z M178 266 C182 310 186 328 198 347 C209 364 232 376 255 376 C299 376 326 339 326 279 C326 274 326 271 325 266 L178 266 Z M271 633 C238 633 211 606 211 573 C211 540 238 513 270 513 C304 513 331 539 331 573 C331 606 304 633 271 633 L271 633 Z " />
<glyph glyph-name="Eogonek" unicode="&#x118;" horiz-adv-x="656" d="M618 0 L626 215 L582 215 C548 90 500 45 398 47 L370 47 C290 44 268 70 271 164 L271 327 L338 327 C403 326 418 311 419 243 L419 235 L464 235 L464 462 L419 462 L419 455 C417 389 403 375 336 374 L271 374 L271 621 L384 621 C476 624 509 597 537 496 L581 496 L570 667 L33 667 L33 624 L44 624 C103 626 123 599 123 521 L123 149 C124 69 103 42 41 44 L28 44 L28 0 L485 0 C427 -27 392 -71 392 -117 C392 -169 442 -209 509 -209 C548 -209 577 -199 618 -171 L604 -150 C581 -159 569 -162 552 -162 C513 -162 485 -132 485 -92 C485 -57 497 -31 528 0 L618 0 Z " />
<glyph glyph-name="eogonek" unicode="&#x119;" horiz-adv-x="489" d="M408 100 C382 58 340 34 294 34 C218 34 176 93 176 200 C176 209 176 216 177 227 L455 227 L455 234 C455 343 373 419 257 419 C130 419 37 328 37 203 C37 77 131 -16 260 -16 C273 -16 284 -15 298 -13 C263 -37 242 -73 242 -107 C242 -156 285 -192 343 -192 C376 -192 401 -183 437 -158 L425 -137 C409 -145 400 -148 387 -148 C351 -148 323 -120 323 -83 C323 -49 338 -19 369 10 C404 27 431 52 446 81 L408 100 Z M178 266 C182 310 186 328 198 347 C209 364 232 376 255 376 C299 376 326 339 326 279 C326 274 326 271 325 266 L178 266 Z " />
<glyph glyph-name="Ecaron" unicode="&#x11a;" horiz-adv-x="656" d="M582 215 C548 90 500 45 398 47 L370 47 C290 44 268 70 271 164 L271 327 L338 327 C403 326 418 311 419 243 L419 235 L464 235 L464 462 L419 462 L419 455 C417 389 403 375 336 374 L271 374 L271 621 L384 621 C476 624 509 597 537 496 L581 496 L570 667 L33 667 L33 624 L44 624 C103 626 123 599 123 521 L123 149 C124 69 103 42 41 44 L28 44 L28 0 L618 0 L626 215 L582 215 Z M413 729 L524 879 L492 879 L345 791 L181 879 L149 879 L257 729 L413 729 Z " />
<glyph glyph-name="ecaron" unicode="&#x11b;" horiz-adv-x="489" d="M408 100 C382 58 340 34 294 34 C218 34 176 93 176 200 C176 209 176 216 177 227 L455 227 L455 234 C455 343 373 419 257 419 C130 419 37 328 37 203 C37 76 131 -16 260 -16 C341 -16 413 22 446 81 L408 100 Z M178 266 C182 310 186 328 198 347 C209 364 232 376 255 376 C299 376 326 339 326 279 C326 274 326 271 325 266 L178 266 Z M160 655 L127 655 L217 491 L322 491 L407 655 L372 655 L272 566 L160 655 Z " />
<glyph glyph-name="Gcircumflex" unicode="&#x11c;" horiz-adv-x="782" d="M459 300 L459 256 L469 256 C525 252 541 238 543 186 L543 161 C543 131 539 108 531 94 C512 60 462 37 405 37 C336 37 281 67 251 119 C226 164 214 227 214 319 C214 406 225 475 245 521 C275 587 336 625 413 625 C518 625 593 557 622 436 L665 436 L662 667 L619 667 C616 639 610 618 599 595 C538 653 469 680 385 680 C298 680 219 650 160 595 C86 526 43 426 43 325 C43 132 188 -13 381 -13 C432 -13 467 -7 543 13 C591 26 638 34 671 34 C676 34 681 34 692 32 L692 149 C691 234 700 249 754 255 L762 256 L762 300 L459 300 Z M344 879 L236 729 L267 729 L413 817 L578 729 L610 729 L500 879 L344 879 Z " />
<glyph glyph-name="gcircumflex" unicode="&#x11d;" horiz-adv-x="515" d="M152 139 C86 123 54 93 54 44 C54 -22 114 -53 240 -53 C297 -53 324 -54 353 -59 C393 -65 415 -86 415 -117 C415 -174 352 -208 249 -208 C159 -208 105 -178 105 -129 C105 -114 110 -99 120 -83 C104 -77 95 -75 85 -75 C55 -75 30 -102 30 -135 C30 -168 51 -200 85 -219 C120 -239 175 -249 245 -249 C401 -249 491 -188 491 -82 C491 -22 460 22 404 41 C364 54 339 56 234 56 C151 58 134 62 134 84 C134 110 167 124 229 124 C358 125 436 182 436 275 C436 301 429 324 414 348 C425 360 433 365 443 365 C451 365 456 362 466 351 C476 339 484 335 494 335 C513 335 526 350 526 372 C526 400 507 418 477 418 C450 418 427 406 391 373 C354 404 307 419 245 419 C125 419 46 362 46 276 C46 213 88 160 152 139 L152 139 Z M241 376 C286 376 311 341 311 277 C311 206 288 169 243 169 C196 169 172 206 172 278 C172 339 198 376 241 376 L241 376 Z M361 489 L397 489 L310 652 L206 652 L117 489 L150 489 L254 578 L361 489 Z " />
<glyph glyph-name="Gbreve" unicode="&#x11e;" horiz-adv-x="782" d="M459 300 L459 256 L469 256 C525 252 541 238 543 186 L543 161 C543 131 539 108 531 94 C512 60 462 37 405 37 C336 37 281 67 251 119 C226 164 214 227 214 319 C214 406 225 475 245 521 C275 587 336 625 413 625 C518 625 593 557 622 436 L665 436 L662 667 L619 667 C616 639 610 618 599 595 C538 653 469 680 385 680 C298 680 219 650 160 595 C86 526 43 426 43 325 C43 132 188 -13 381 -13 C432 -13 467 -7 543 13 C591 26 638 34 671 34 C676 34 681 34 692 32 L692 149 C691 234 700 249 754 255 L762 256 L762 300 L459 300 Z M208 880 C235 782 308 720 397 720 C485 720 558 783 583 880 L538 880 C512 835 461 810 395 810 C328 810 284 832 253 880 L208 880 Z " />
<glyph glyph-name="gbreve" unicode="&#x11f;" horiz-adv-x="515" d="M152 139 C86 123 54 93 54 44 C54 -22 114 -53 240 -53 C297 -53 324 -54 353 -59 C393 -65 415 -86 415 -117 C415 -174 352 -208 249 -208 C159 -208 105 -178 105 -129 C105 -114 110 -99 120 -83 C104 -77 95 -75 85 -75 C55 -75 30 -102 30 -135 C30 -168 51 -200 85 -219 C120 -239 175 -249 245 -249 C401 -249 491 -188 491 -82 C491 -22 460 22 404 41 C364 54 339 56 234 56 C151 58 134 62 134 84 C134 110 167 124 229 124 C358 125 436 182 436 275 C436 301 429 324 414 348 C425 360 433 365 443 365 C451 365 456 362 466 351 C476 339 484 335 494 335 C513 335 526 350 526 372 C526 400 507 418 477 418 C450 418 427 406 391 373 C354 404 307 419 245 419 C125 419 46 362 46 276 C46 213 88 160 152 139 L152 139 Z M241 376 C286 376 311 341 311 277 C311 206 288 169 243 169 C196 169 172 206 172 278 C172 339 198 376 241 376 L241 376 Z M111 648 C114 558 176 489 254 489 C332 489 392 556 396 648 L369 648 C351 596 314 571 256 571 C195 571 154 598 139 648 L111 648 Z " />
<glyph glyph-name="Gdotaccent" unicode="&#x120;" horiz-adv-x="782" d="M459 300 L459 256 L469 256 C525 252 541 238 543 186 L543 161 C543 131 539 108 531 94 C512 60 462 37 405 37 C336 37 281 67 251 119 C226 164 214 227 214 319 C214 406 225 475 245 521 C275 587 336 625 413 625 C518 625 593 557 622 436 L665 436 L662 667 L619 667 C616 639 610 618 599 595 C538 653 469 680 385 680 C298 680 219 650 160 595 C86 526 43 426 43 325 C43 132 188 -13 381 -13 C432 -13 467 -7 543 13 C591 26 638 34 671 34 C676 34 681 34 692 32 L692 149 C691 234 700 249 754 255 L762 256 L762 300 L459 300 Z M392 862 C354 862 324 832 324 794 C324 757 355 726 391 726 C430 726 460 756 460 794 C460 832 430 862 392 862 L392 862 Z " />
<glyph glyph-name="gdotaccent" unicode="&#x121;" horiz-adv-x="515" d="M152 139 C86 123 54 93 54 44 C54 -22 114 -53 240 -53 C297 -53 324 -54 353 -59 C393 -65 415 -86 415 -117 C415 -174 352 -208 249 -208 C159 -208 105 -178 105 -129 C105 -114 110 -99 120 -83 C104 -77 95 -75 85 -75 C55 -75 30 -102 30 -135 C30 -168 51 -200 85 -219 C120 -239 175 -249 245 -249 C401 -249 491 -188 491 -82 C491 -22 460 22 404 41 C364 54 339 56 234 56 C151 58 134 62 134 84 C134 110 167 124 229 124 C358 125 436 182 436 275 C436 301 429 324 414 348 C425 360 433 365 443 365 C451 365 456 362 466 351 C476 339 484 335 494 335 C513 335 526 350 526 372 C526 400 507 418 477 418 C450 418 427 406 391 373 C354 404 307 419 245 419 C125 419 46 362 46 276 C46 213 88 160 152 139 L152 139 Z M241 376 C286 376 311 341 311 277 C311 206 288 169 243 169 C196 169 172 206 172 278 C172 339 198 376 241 376 L241 376 Z M253 633 C220 633 193 606 193 573 C193 540 220 513 252 513 C286 513 313 539 313 573 C313 606 286 633 253 633 L253 633 Z " />
<glyph glyph-name="Gcommaaccent" unicode="&#x122;" horiz-adv-x="782" d="M459 300 L459 256 L469 256 C525 252 541 238 543 186 L543 161 C543 131 539 108 531 94 C512 60 462 37 405 37 C336 37 281 67 251 119 C226 164 214 227 214 319 C214 406 225 475 245 521 C275 587 336 625 413 625 C518 625 593 557 622 436 L665 436 L662 667 L619 667 C616 639 610 618 599 595 C538 653 469 680 385 680 C298 680 219 650 160 595 C86 526 43 426 43 325 C43 132 188 -13 381 -13 C432 -13 467 -7 543 13 C591 26 638 34 671 34 C676 34 681 34 692 32 L692 149 C691 234 700 249 754 255 L762 256 L762 300 L459 300 Z M305 -327 C402 -318 465 -257 465 -171 C465 -104 429 -59 374 -59 C330 -59 299 -89 299 -130 C299 -166 326 -194 359 -194 C364 -194 370 -193 376 -192 C391 -188 391 -188 393 -188 C403 -188 410 -198 410 -210 C410 -247 366 -277 305 -284 L305 -327 Z " />
<glyph glyph-name="gcommaaccent" unicode="&#x123;" horiz-adv-x="515" d="M152 139 C86 123 54 93 54 44 C54 -22 114 -53 240 -53 C297 -53 324 -54 353 -59 C393 -65 415 -86 415 -117 C415 -174 352 -208 249 -208 C159 -208 105 -178 105 -129 C105 -114 110 -99 120 -83 C104 -77 95 -75 85 -75 C55 -75 30 -102 30 -135 C30 -168 51 -200 85 -219 C120 -239 175 -249 245 -249 C401 -249 491 -188 491 -82 C491 -22 460 22 404 41 C364 54 339 56 234 56 C151 58 134 62 134 84 C134 110 167 124 229 124 C358 125 436 182 436 275 C436 301 429 324 414 348 C425 360 433 365 443 365 C451 365 456 362 466 351 C476 339 484 335 494 335 C513 335 526 350 526 372 C526 400 507 418 477 418 C450 418 427 406 391 373 C354 404 307 419 245 419 C125 419 46 362 46 276 C46 213 88 160 152 139 L152 139 Z M241 376 C286 376 311 341 311 277 C311 206 288 169 243 169 C196 169 172 206 172 278 C172 339 198 376 241 376 L241 376 Z M322 707 C233 699 176 644 176 565 C176 504 209 463 258 463 C298 463 327 490 327 528 C327 560 303 586 272 586 C266 586 263 585 249 582 C245 580 243 580 241 580 C233 580 226 589 226 601 C226 634 267 662 322 668 L322 707 Z " />
<glyph glyph-name="Hcircumflex" unicode="&#x124;" horiz-adv-x="835" d="M567 377 L268 377 L268 521 C269 603 286 624 351 623 L359 623 L359 667 L28 667 L28 623 L37 623 C102 625 119 603 120 521 L120 149 C121 70 100 42 39 44 L28 44 L28 0 L359 0 L359 44 L350 44 C289 42 267 70 268 149 L268 325 L567 325 L567 149 C568 70 546 42 485 44 L476 44 L476 0 L807 0 L807 44 L796 44 C735 42 714 70 715 149 L715 521 C716 603 733 625 798 623 L807 623 L807 667 L476 667 L476 623 L484 623 C549 624 566 603 567 521 L567 377 Z M337 879 L229 729 L261 729 L407 817 L572 729 L604 729 L494 879 L337 879 Z " />
<glyph glyph-name="hcircumflex" unicode="&#x125;" horiz-adv-x="583" d="M221 749 L256 749 L170 912 L65 912 L-24 749 L9 749 L113 838 L221 749 Z M21 603 L25 603 C75 601 85 588 86 528 L86 125 C84 57 74 43 25 42 L19 42 L19 0 L270 0 L270 42 L267 42 C224 45 217 57 215 125 L215 282 C245 330 278 354 314 354 C356 354 374 328 374 268 L374 125 C372 57 365 46 325 43 L318 42 L318 0 L570 0 L570 42 L564 42 C517 43 507 57 505 125 L505 253 C505 307 500 335 487 358 C466 395 417 419 364 419 C306 419 256 394 215 344 L216 678 L209 678 C168 665 93 651 21 645 L21 603 Z " />
<glyph glyph-name="Hbar" unicode="&#x126;" horiz-adv-x="835" d="M567 479 L268 479 L268 521 C269 603 286 624 351 623 L359 623 L359 667 L28 667 L28 623 L37 623 C102 625 119 603 120 521 L120 479 L46 479 L46 427 L120 427 L120 149 C121 70 100 42 39 44 L28 44 L28 0 L359 0 L359 44 L350 44 C289 42 267 70 268 149 L268 325 L567 325 L567 149 C568 70 546 42 485 44 L476 44 L476 0 L807 0 L807 44 L796 44 C735 42 714 70 715 149 L715 427 L787 427 L787 479 L715 479 L715 521 C716 603 733 625 798 623 L807 623 L807 667 L476 667 L476 623 L484 623 C549 624 566 603 567 521 L567 479 Z M567 427 L567 377 L268 377 L268 427 L567 427 Z " />
<glyph glyph-name="hbar" unicode="&#x127;" horiz-adv-x="583" d="M216 535 L217 678 L210 678 C168 664 94 651 21 645 L21 603 L25 603 C74 601 85 589 87 538 L87 535 L20 535 L20 491 L87 491 L87 125 C85 57 75 43 25 42 L20 42 L20 0 L270 0 L270 42 L267 42 C225 45 218 57 216 125 L216 282 C247 331 278 354 315 354 C357 354 375 328 375 268 L375 125 C374 57 367 46 326 43 L319 42 L319 0 L570 0 L570 42 L564 42 C518 43 508 57 506 125 L506 253 C506 307 501 335 488 358 C467 395 418 419 365 419 C306 419 257 394 216 344 L216 491 L367 491 L367 535 L216 535 Z " />
<glyph glyph-name="Itilde" unicode="&#x128;" horiz-adv-x="393" d="M28 623 L38 623 C105 624 121 604 122 521 L122 149 C122 68 103 44 40 44 L28 44 L28 0 L364 0 L364 44 L351 44 C288 44 270 68 270 149 L270 521 C271 604 287 624 352 623 L364 623 L364 667 L28 667 L28 623 Z M65 726 L65 729 C64 755 85 779 109 779 C123 779 140 773 170 758 C218 734 253 724 284 724 C339 724 380 775 380 845 L380 861 L348 861 C343 826 328 805 308 805 C291 805 266 813 238 828 C197 849 159 861 131 861 C73 861 33 812 33 740 L33 726 L65 726 Z " />
<glyph glyph-name="itilde" unicode="&#x129;" horiz-adv-x="301" d="M8 531 L8 534 C8 563 27 585 52 585 C66 585 83 579 113 564 C161 540 196 530 227 530 C282 530 323 581 323 650 L323 667 L291 667 C286 632 271 611 250 611 C234 611 209 619 181 634 C140 655 102 667 74 667 C16 667 -24 618 -24 546 L-24 531 L8 531 Z M220 419 L213 419 C182 411 57 390 16 386 L16 343 L28 343 C77 344 91 326 91 263 L91 125 C89 57 78 43 29 42 L16 42 L16 0 L288 0 L288 42 L282 42 C233 43 222 58 220 125 L220 419 Z " />
<glyph glyph-name="Imacron" unicode="&#x12a;" horiz-adv-x="393" d="M28 623 L38 623 C105 624 121 604 122 521 L122 149 C122 68 103 44 40 44 L28 44 L28 0 L364 0 L364 44 L351 44 C288 44 270 68 270 149 L270 521 C271 604 287 624 352 623 L364 623 L364 667 L28 667 L28 623 Z M29 810 L29 758 L363 758 L363 810 L29 810 Z " />
<glyph glyph-name="imacron" unicode="&#x12b;" horiz-adv-x="301" d="M221 419 L214 419 C182 411 55 389 16 386 L16 343 L28 343 C78 344 92 326 92 263 L92 125 C90 57 79 43 29 42 L16 42 L16 0 L289 0 L289 42 L283 42 C234 43 223 58 221 125 L221 419 Z M-1 541 L278 541 L278 590 L-1 590 L-1 541 Z " />
<glyph glyph-name="Ibreve" unicode="&#x12c;" horiz-adv-x="393" d="M28 623 L38 623 C104 624 120 604 121 521 L121 149 C121 68 103 44 40 44 L28 44 L28 0 L364 0 L364 44 L351 44 C287 44 269 68 269 149 L269 521 C270 604 286 624 352 623 L364 623 L364 667 L28 667 L28 623 Z M10 880 C37 782 110 720 199 720 C288 720 361 783 385 880 L340 880 C315 835 263 810 197 810 C131 810 87 832 56 880 L10 880 Z " />
<glyph glyph-name="ibreve" unicode="&#x12d;" horiz-adv-x="301" d="M220 419 L213 419 C182 411 57 390 16 386 L16 343 L28 343 C77 344 91 326 91 263 L91 125 C89 57 78 43 29 42 L16 42 L16 0 L288 0 L288 42 L282 42 C233 43 222 58 220 125 L220 419 Z M6 648 L6 645 C6 608 22 566 50 535 C76 504 109 489 149 489 C227 489 287 556 291 648 L264 648 C246 596 209 571 151 571 C90 571 50 598 34 648 L6 648 Z " />
<glyph glyph-name="Iogonek" unicode="&#x12e;" horiz-adv-x="393" d="M364 0 L364 44 L351 44 C288 44 270 68 270 149 L270 521 C271 604 287 624 352 623 L364 623 L364 667 L28 667 L28 623 L38 623 C105 624 121 604 122 521 L122 149 C122 68 103 44 40 44 L28 44 L28 0 L237 0 L234 -1 C180 -27 144 -72 144 -117 C144 -170 194 -209 261 -209 C299 -209 328 -199 369 -171 L356 -150 C332 -159 320 -162 304 -162 C265 -162 237 -132 237 -92 C237 -58 250 -31 280 0 L364 0 Z " />
<glyph glyph-name="iogonek" unicode="&#x12f;" horiz-adv-x="301" d="M288 0 L288 42 L282 42 C234 43 223 58 221 125 L221 419 L214 419 C182 411 55 389 16 386 L16 343 L28 343 C78 344 92 326 92 263 L92 125 C90 57 79 43 29 42 L16 42 L16 0 L192 0 C143 -24 113 -65 113 -107 C113 -156 156 -192 214 -192 C247 -192 271 -183 307 -158 L295 -137 C279 -145 270 -148 258 -148 C221 -148 194 -120 194 -83 C194 -53 206 -26 230 0 L288 0 Z M155 678 C113 678 79 644 79 603 C79 560 112 525 154 525 C196 525 230 559 230 601 C230 644 197 678 155 678 L155 678 Z " />
<glyph glyph-name="Idotaccent" unicode="&#x130;" horiz-adv-x="393" d="M28 623 L38 623 C105 624 121 604 122 521 L122 149 C122 68 103 44 40 44 L28 44 L28 0 L364 0 L364 44 L351 44 C288 44 270 68 270 149 L270 521 C271 604 287 624 352 623 L364 623 L364 667 L28 667 L28 623 Z M205 862 C167 862 137 832 137 794 C137 757 168 726 204 726 C243 726 273 756 273 794 C273 832 243 862 205 862 L205 862 Z " />
<glyph glyph-name="dotlessi" unicode="&#x131;" horiz-adv-x="301" d="M221 419 L214 419 C182 411 55 389 16 386 L16 343 L28 343 C78 344 92 326 92 263 L92 125 C90 57 79 43 29 42 L16 42 L16 0 L288 0 L288 42 L282 42 C234 43 223 58 221 125 L221 419 Z " />
<glyph glyph-name="IJ" unicode="&#x132;" horiz-adv-x="762" d="M28 623 L38 623 C105 624 121 604 122 521 L122 149 C122 68 103 44 40 44 L28 44 L28 0 L364 0 L364 44 L351 44 C288 44 270 68 270 149 L270 521 C271 604 287 624 352 623 L364 623 L364 667 L28 667 L28 623 Z M399 667 L399 623 L416 623 C483 624 499 604 500 521 L500 27 C500 -79 495 -114 475 -150 C459 -178 432 -194 397 -194 C370 -194 352 -184 352 -169 C352 -166 353 -160 355 -154 C358 -145 360 -136 360 -129 C360 -98 332 -74 294 -74 C252 -74 220 -103 220 -141 C220 -199 288 -238 390 -238 C468 -238 533 -217 578 -177 C632 -130 648 -76 648 57 L648 521 C649 604 665 624 731 623 L742 623 L742 667 L399 667 Z " />
<glyph glyph-name="ij" unicode="&#x133;" horiz-adv-x="559" d="M155 678 C113 678 79 644 79 603 C79 560 112 525 154 525 C196 525 230 559 230 601 C230 644 197 678 155 678 L155 678 Z M221 419 L214 419 C182 411 55 389 16 386 L16 343 L28 343 C78 344 92 326 92 263 L92 125 C90 57 79 43 29 42 L16 42 L16 0 L288 0 L288 42 L282 42 C234 43 223 58 221 125 L221 419 Z M500 419 L493 419 C452 410 395 400 293 385 L293 343 L307 343 C357 343 371 325 371 263 L371 -58 C371 -133 369 -152 356 -175 C346 -192 329 -203 312 -203 C296 -203 282 -193 276 -178 C262 -141 248 -129 221 -129 C192 -129 170 -151 170 -179 C170 -220 217 -248 287 -248 C369 -248 444 -211 476 -155 C495 -121 500 -89 500 7 L500 419 Z M428 678 C387 678 353 644 353 603 C353 559 386 525 429 525 C470 525 504 559 504 602 C504 644 470 678 428 678 L428 678 Z " />
<glyph glyph-name="Jcircumflex" unicode="&#x134;" horiz-adv-x="393" d="M31 667 L31 623 L48 623 C115 624 131 604 132 521 L132 27 C132 -79 127 -114 107 -150 C91 -178 64 -194 29 -194 C2 -194 -16 -184 -16 -169 C-16 -166 -15 -160 -13 -154 C-10 -145 -8 -136 -8 -129 C-8 -98 -36 -74 -74 -74 C-116 -74 -148 -103 -148 -141 C-148 -199 -80 -238 22 -238 C100 -238 165 -217 210 -177 C264 -130 280 -76 280 57 L280 521 C281 604 297 624 363 623 L374 623 L374 667 L31 667 Z M122 879 L14 729 L46 729 L192 817 L357 729 L388 729 L279 879 L122 879 Z " />
<glyph glyph-name="jcircumflex" unicode="&#x135;" horiz-adv-x="294" d="M71 687 L-38 537 L-6 537 L140 625 L305 537 L337 537 L227 687 L71 687 Z M235 419 L228 419 C189 410 131 401 29 385 L29 343 L43 343 C92 343 106 325 106 263 L106 -58 C106 -133 104 -152 91 -175 C81 -192 65 -203 48 -203 C32 -203 18 -193 12 -178 C-2 -141 -16 -129 -43 -129 C-72 -129 -94 -151 -94 -179 C-94 -220 -47 -248 23 -248 C104 -248 179 -211 211 -155 C230 -121 235 -89 235 7 L235 419 Z " />
<glyph glyph-name="Kcommaaccent" unicode="&#x136;" horiz-adv-x="781" d="M272 339 L272 521 C273 604 289 624 355 623 L366 623 L366 667 L31 667 L31 623 L40 623 C107 624 123 604 124 521 L124 149 C124 68 105 44 42 44 L28 44 L28 0 L359 0 L359 44 L353 44 C291 43 271 68 272 149 L272 274 L333 330 L499 119 C519 94 525 84 525 74 C525 53 502 44 451 44 L442 44 L442 0 L813 0 L813 44 L807 44 C747 45 711 70 645 160 L439 426 L520 501 C623 596 661 618 725 623 L732 623 L732 667 L452 667 L452 623 L459 623 C494 623 515 611 515 589 C515 570 498 546 460 511 L272 339 Z M312 -327 C409 -318 472 -257 472 -171 C472 -104 436 -59 381 -59 C337 -59 306 -89 306 -130 C306 -166 333 -194 366 -194 C371 -194 377 -193 383 -192 C398 -188 398 -188 400 -188 C410 -188 417 -198 417 -210 C417 -247 373 -277 312 -284 L312 -327 Z " />
<glyph glyph-name="kcommaaccent" unicode="&#x137;" horiz-adv-x="553" d="M18 603 L22 603 C73 601 83 588 84 527 L84 125 C82 57 72 43 22 42 L15 42 L15 0 L268 0 L268 42 L264 42 C223 45 215 58 213 125 L213 173 L248 198 L328 97 C345 75 350 68 350 62 C350 49 338 43 316 42 L312 42 L312 0 L551 0 L551 42 L547 43 C522 45 508 58 459 119 L343 267 C351 272 358 277 360 279 L372 290 C435 341 475 361 512 361 L515 361 L515 403 L312 403 L312 361 L317 361 C341 361 352 355 352 342 C352 328 342 319 252 253 L213 224 L214 678 L207 678 C166 664 91 651 18 645 L18 603 Z M204 -303 C293 -295 350 -239 350 -161 C350 -100 317 -59 268 -59 C228 -59 199 -86 199 -124 C199 -156 223 -182 254 -182 C260 -182 263 -181 277 -178 C281 -176 283 -176 285 -176 C293 -176 300 -185 300 -197 C300 -230 259 -258 204 -264 L204 -303 Z " />
<glyph glyph-name="kgreenlandic" unicode="&#x138;" horiz-adv-x="568" d="M213 211 L213 403 L21 403 L21 361 L25 361 C71 360 82 346 84 279 L84 125 C82 57 72 43 23 42 L15 42 L15 0 L268 0 L268 42 L264 42 C223 45 215 58 213 125 L213 159 L258 192 L345 97 C359 82 367 69 367 62 C367 49 355 43 333 42 L329 42 L329 0 L568 0 L568 42 L564 43 C536 47 530 52 474 116 L350 259 L392 291 C468 350 481 356 529 361 L532 361 L532 403 L329 403 L329 361 L334 361 C358 361 369 355 369 342 C369 328 358 317 270 253 L213 211 Z " />
<glyph glyph-name="Lacute" unicode="&#x139;" horiz-adv-x="639" d="M625 213 L582 213 C550 90 501 47 396 47 L370 47 C284 49 269 64 271 151 L271 521 C272 604 288 624 354 623 L373 623 L373 667 L28 667 L28 623 L39 623 C106 624 122 604 123 521 L123 148 C123 67 105 44 41 44 L28 44 L28 0 L622 0 L625 213 Z M192 729 L225 729 L472 869 L472 877 L292 877 L192 729 Z " />
<glyph glyph-name="lacute" unicode="&#x13a;" horiz-adv-x="299" d="M20 603 L24 603 C74 601 84 588 85 527 L85 125 C83 57 73 43 24 42 L17 42 L17 0 L284 0 L284 42 L277 42 C228 42 215 61 214 125 L215 678 L208 678 C168 665 92 651 20 645 L20 603 Z M102 729 L135 729 L381 869 L381 877 L202 877 L102 729 Z " />
<glyph glyph-name="Lcommaaccent" unicode="&#x13b;" horiz-adv-x="639" d="M625 213 L582 213 C550 90 501 47 396 47 L370 47 C284 49 269 64 271 151 L271 521 C272 604 288 624 354 623 L373 623 L373 667 L28 667 L28 623 L39 623 C106 624 122 604 123 521 L123 148 C123 67 105 44 41 44 L28 44 L28 0 L622 0 L625 213 Z M250 -327 C347 -318 410 -257 410 -171 C410 -104 374 -59 319 -59 C275 -59 244 -89 244 -130 C244 -166 271 -194 304 -194 C309 -194 315 -193 321 -192 C336 -188 336 -188 338 -188 C348 -188 355 -198 355 -210 C355 -247 311 -277 250 -284 L250 -327 Z " />
<glyph glyph-name="lcommaaccent" unicode="&#x13c;" horiz-adv-x="299" d="M20 603 L24 603 C74 601 84 588 85 527 L85 125 C83 57 73 43 24 42 L17 42 L17 0 L284 0 L284 42 L277 42 C228 42 215 61 214 125 L215 678 L208 678 C168 665 92 651 20 645 L20 603 Z M78 -303 C167 -295 224 -239 224 -161 C224 -100 191 -59 142 -59 C102 -59 73 -86 73 -124 C73 -156 97 -182 128 -182 C134 -182 137 -181 151 -178 C155 -176 157 -176 159 -176 C167 -176 174 -185 174 -197 C174 -230 133 -258 78 -264 L78 -303 Z " />
<glyph glyph-name="Lcaron" unicode="&#x13d;" horiz-adv-x="639" d="M625 213 L582 213 C550 90 501 47 396 47 L370 47 C284 49 269 64 271 151 L271 521 C272 604 288 624 354 623 L373 623 L373 667 L28 667 L28 623 L39 623 C106 624 122 604 123 521 L123 148 C123 67 105 44 41 44 L28 44 L28 0 L622 0 L625 213 Z M404 399 C501 408 564 469 564 555 C564 622 528 667 473 667 C429 667 398 638 398 596 C398 561 425 533 458 533 C463 533 469 534 475 535 C490 538 490 538 492 538 C502 538 509 528 509 516 C509 480 465 449 404 442 L404 399 Z " />
<glyph glyph-name="lcaron" unicode="&#x13e;" horiz-adv-x="405" d="M20 603 L24 603 C74 601 84 588 85 527 L85 125 C83 57 73 43 24 42 L17 42 L17 0 L284 0 L284 42 L277 42 C228 42 215 61 214 125 L215 678 L208 678 C168 665 92 651 20 645 L20 603 Z M256 434 C345 442 402 498 402 576 C402 637 369 678 320 678 C280 678 251 651 251 614 C251 582 275 556 306 556 C310 556 316 557 321 558 C334 561 334 561 337 561 C345 561 352 552 352 541 C352 507 311 479 256 473 L256 434 Z " />
<glyph glyph-name="Ldot" unicode="&#x13f;" horiz-adv-x="639" d="M625 213 L582 213 C550 90 501 47 396 47 L370 47 C284 49 269 64 271 151 L271 521 C272 604 288 624 354 623 L373 623 L373 667 L28 667 L28 623 L39 623 C106 624 122 604 123 521 L123 148 C123 67 105 44 41 44 L28 44 L28 0 L622 0 L625 213 Z M409 389 C376 389 349 362 349 329 C349 296 376 269 408 269 C442 269 469 295 469 329 C469 362 442 389 409 389 L409 389 Z " />
<glyph glyph-name="ldot" unicode="&#x140;" horiz-adv-x="374" d="M20 603 L24 603 C74 601 84 588 85 527 L85 125 C83 57 73 43 24 42 L17 42 L17 0 L284 0 L284 42 L277 42 C228 42 215 61 214 125 L215 678 L208 678 C168 665 92 651 20 645 L20 603 Z M321 393 C288 393 261 366 261 333 C261 300 288 273 320 273 C354 273 381 299 381 333 C381 366 354 393 321 393 L321 393 Z " />
<glyph glyph-name="Lslash" unicode="&#x141;" horiz-adv-x="639" d="M28 44 L28 0 L621 0 L625 213 L582 213 C552 93 500 46 395 47 L370 47 C284 49 269 64 271 151 L271 350 L396 437 L396 493 L271 405 L271 521 C272 604 288 624 354 623 L373 623 L373 667 L28 667 L28 623 L39 623 C106 624 122 604 123 521 L123 303 L34 241 L34 185 L123 247 L123 148 C123 68 105 44 41 44 L28 44 Z " />
<glyph glyph-name="lslash" unicode="&#x142;" horiz-adv-x="308" d="M215 380 L215 678 L208 678 C185 671 102 657 21 645 L21 603 L25 603 C75 601 85 588 86 527 L86 282 L19 232 L19 179 L86 230 L86 125 C84 57 74 43 25 42 L18 42 L18 0 L285 0 L285 42 L278 42 C229 42 215 61 215 125 L215 328 L290 382 L290 435 L215 380 Z " />
<glyph glyph-name="Nacute" unicode="&#x143;" horiz-adv-x="778" d="M665 -12 L665 513 C662 584 683 611 748 623 L756 623 L756 667 L516 667 L516 623 L524 623 C590 618 616 588 615 517 L615 221 L240 667 L24 667 L24 623 L29 623 C96 624 117 598 121 507 L121 162 C121 109 119 98 112 86 C99 62 63 44 29 44 L24 44 L24 0 L274 0 L274 44 L263 44 C226 44 190 65 177 93 C172 106 172 111 171 163 L171 522 L616 -12 L665 -12 Z M357 729 L390 729 L636 869 L636 877 L457 877 L357 729 Z " />
<glyph glyph-name="nacute" unicode="&#x144;" horiz-adv-x="584" d="M200 412 C178 406 157 402 111 395 C56 386 43 384 22 380 L22 338 L27 338 C72 338 85 321 88 259 L88 125 C86 57 76 43 27 42 L23 42 L23 0 L273 0 L273 42 L269 42 C226 45 219 57 217 125 L217 283 C252 331 284 353 319 353 C355 353 377 328 377 288 L377 125 C375 57 368 46 328 43 L321 42 L321 0 L572 0 L572 42 L567 42 C520 43 510 57 508 125 L508 260 C508 314 504 335 491 359 C470 396 423 419 372 419 C315 419 261 393 219 346 C218 376 214 396 208 412 L200 412 Z M257 488 L291 488 L489 642 L489 649 L338 649 L257 488 Z " />
<glyph glyph-name="Ncommaaccent" unicode="&#x145;" horiz-adv-x="778" d="M665 -12 L665 513 C662 584 683 611 748 623 L756 623 L756 667 L516 667 L516 623 L524 623 C590 618 616 588 615 517 L615 221 L240 667 L24 667 L24 623 L29 623 C96 624 117 598 121 507 L121 162 C121 109 119 98 112 86 C99 62 63 44 29 44 L24 44 L24 0 L274 0 L274 44 L263 44 C226 44 190 65 177 93 C172 106 172 111 171 163 L171 522 L616 -12 L665 -12 Z M313 -327 C410 -318 473 -257 473 -171 C473 -104 437 -59 382 -59 C338 -59 307 -89 307 -130 C307 -166 334 -194 367 -194 C372 -194 378 -193 384 -192 C399 -188 399 -188 401 -188 C411 -188 418 -198 418 -210 C418 -247 374 -277 313 -284 L313 -327 Z " />
<glyph glyph-name="ncommaaccent" unicode="&#x146;" horiz-adv-x="584" d="M200 412 C178 406 157 402 111 395 C56 386 43 384 22 380 L22 338 L27 338 C72 338 85 321 88 259 L88 125 C86 57 76 43 27 42 L23 42 L23 0 L273 0 L273 42 L269 42 C226 45 219 57 217 125 L217 283 C252 331 284 353 319 353 C355 353 377 328 377 288 L377 125 C375 57 368 46 328 43 L321 42 L321 0 L572 0 L572 42 L567 42 C520 43 510 57 508 125 L508 260 C508 314 504 335 491 359 C470 396 423 419 372 419 C315 419 261 393 219 346 C218 376 214 396 208 412 L200 412 Z M227 -303 C316 -295 373 -239 373 -161 C373 -100 340 -59 291 -59 C251 -59 222 -86 222 -124 C222 -156 246 -182 277 -182 C283 -182 286 -181 300 -178 C304 -176 306 -176 308 -176 C316 -176 323 -185 323 -197 C323 -230 282 -258 227 -264 L227 -303 Z " />
<glyph glyph-name="Ncaron" unicode="&#x147;" horiz-adv-x="778" d="M665 -12 L665 513 C662 584 683 611 748 623 L756 623 L756 667 L516 667 L516 623 L524 623 C590 618 616 588 615 517 L615 221 L240 667 L24 667 L24 623 L29 623 C96 624 117 598 121 507 L121 162 C121 109 119 98 112 86 C99 62 63 44 29 44 L24 44 L24 0 L274 0 L274 44 L263 44 C226 44 190 65 177 93 C172 106 172 111 171 163 L171 522 L616 -12 L665 -12 Z M479 729 L589 879 L557 879 L411 791 L247 879 L215 879 L322 729 L479 729 Z " />
<glyph glyph-name="ncaron" unicode="&#x148;" horiz-adv-x="584" d="M200 412 C178 406 157 402 111 395 C56 386 43 384 22 380 L22 338 L27 338 C72 338 85 321 88 259 L88 125 C86 57 76 43 27 42 L23 42 L23 0 L273 0 L273 42 L269 42 C226 45 219 57 217 125 L217 283 C252 331 284 353 319 353 C355 353 377 328 377 288 L377 125 C375 57 368 46 328 43 L321 42 L321 0 L572 0 L572 42 L567 42 C520 43 510 57 508 125 L508 260 C508 314 504 335 491 359 C470 396 423 419 372 419 C315 419 261 393 219 346 C218 376 214 396 208 412 L200 412 Z M194 655 L161 655 L251 491 L356 491 L441 655 L406 655 L307 566 L194 655 Z " />
<glyph glyph-name="napostrophe" unicode="&#x149;" horiz-adv-x="641" d="M258 412 C228 404 219 403 88 382 L79 380 L79 338 L85 338 C130 338 143 321 146 259 L146 125 C144 57 134 43 85 42 L81 42 L81 0 L331 0 L331 42 L327 42 C284 45 277 57 275 125 L275 283 C310 331 342 353 376 353 C412 353 434 328 434 288 L434 125 C432 57 425 46 385 43 L378 42 L378 0 L629 0 L629 42 L624 42 C577 43 567 57 565 125 L565 260 C565 314 561 335 548 359 C527 396 480 419 429 419 C372 419 319 393 277 346 C276 376 272 396 266 412 L258 412 Z M1 404 C23 404 55 414 82 431 C128 459 152 501 152 554 C152 616 117 658 66 658 C27 658 0 633 0 599 C0 569 25 546 56 546 C61 546 66 547 72 548 C83 550 83 550 87 550 C97 550 104 541 104 528 C104 487 60 449 1 439 L1 404 Z " />
<glyph glyph-name="Eng" unicode="&#x14a;" horiz-adv-x="779" d="M245 667 C221 662 200 658 148 650 C99 643 78 640 49 636 L49 594 L55 594 C106 594 121 577 124 515 L124 149 C125 70 103 42 42 44 L33 44 L33 0 L364 0 L364 44 L353 44 C292 42 270 70 271 149 L271 500 C331 568 377 595 435 595 C504 595 539 559 539 487 L539 -92 C540 -171 518 -199 457 -197 L448 -197 L448 -241 L779 -241 L779 -197 L768 -197 C707 -198 686 -171 687 -92 L687 502 C687 539 674 581 652 610 C619 654 569 675 495 675 C404 675 345 649 273 574 C271 618 265 646 254 667 L245 667 Z " />
<glyph glyph-name="eng" unicode="&#x14b;" horiz-adv-x="572" d="M200 412 C178 406 157 402 111 395 C56 386 43 384 22 380 L22 338 L27 338 C72 338 85 321 88 259 L88 125 C86 57 76 43 27 42 L23 42 L23 0 L273 0 L273 42 L269 42 C226 45 219 57 217 125 L217 283 C252 331 284 353 319 353 C355 353 377 328 377 288 L377 -116 C375 -183 368 -195 328 -198 L321 -199 L321 -241 L572 -241 L572 -199 L567 -199 C520 -198 510 -184 508 -116 L508 260 C508 314 504 335 491 359 C470 396 423 419 372 419 C315 419 261 393 219 346 C218 376 214 396 208 412 L200 412 Z " />
<glyph glyph-name="Omacron" unicode="&#x14c;" horiz-adv-x="825" d="M413 628 C487 628 550 588 579 520 C600 473 609 413 609 330 C609 254 599 193 579 146 C551 79 488 38 413 38 C338 38 275 79 247 146 C226 194 217 253 217 333 C217 413 227 472 247 520 C275 587 338 628 413 628 L413 628 Z M419 679 C312 679 216 646 153 589 C83 524 43 432 43 334 C43 129 194 -13 412 -13 C630 -13 782 129 782 332 C782 533 629 679 419 679 L419 679 Z M246 810 L246 758 L580 758 L580 810 L246 810 Z " />
<glyph glyph-name="omacron" unicode="&#x14d;" horiz-adv-x="544" d="M273 419 C135 419 37 328 37 200 C37 73 136 -16 277 -16 C409 -16 508 77 508 201 C508 328 410 419 273 419 L273 419 Z M273 375 C342 375 369 327 369 203 C369 74 343 28 271 28 C240 28 211 44 197 68 C182 95 176 135 176 202 C176 268 182 308 197 335 C211 360 239 375 273 375 L273 375 Z M123 541 L430 541 L430 590 L123 590 L123 541 Z " />
<glyph glyph-name="Obreve" unicode="&#x14e;" horiz-adv-x="825" d="M413 628 C487 628 550 588 579 520 C600 473 609 413 609 330 C609 254 599 193 579 146 C551 79 488 38 413 38 C338 38 275 79 247 146 C226 194 217 253 217 333 C217 413 227 472 247 520 C275 587 338 628 413 628 L413 628 Z M419 679 C312 679 216 646 153 589 C83 524 43 432 43 334 C43 129 194 -13 412 -13 C630 -13 782 129 782 332 C782 533 629 679 419 679 L419 679 Z M222 880 C249 782 322 720 411 720 C500 720 573 783 597 880 L552 880 C527 835 475 810 409 810 C343 810 299 832 268 880 L222 880 Z " />
<glyph glyph-name="obreve" unicode="&#x14f;" horiz-adv-x="544" d="M79 671 C110 569 179 511 268 511 C356 511 426 571 454 671 L409 671 C376 622 332 601 266 601 C200 601 166 618 125 671 L79 671 Z M273 419 C135 419 37 328 37 200 C37 73 136 -16 277 -16 C409 -16 508 77 508 201 C508 328 410 419 273 419 L273 419 Z M273 375 C342 375 369 327 369 203 C369 74 343 28 271 28 C240 28 211 44 197 68 C182 95 176 135 176 202 C176 268 182 308 197 335 C211 360 239 375 273 375 L273 375 Z " />
<glyph glyph-name="Ohungarumlaut" unicode="&#x150;" horiz-adv-x="825" d="M413 628 C487 628 550 588 579 520 C600 473 609 413 609 330 C609 254 599 193 579 146 C551 79 488 38 413 38 C338 38 275 79 247 146 C226 194 217 253 217 333 C217 413 227 472 247 520 C275 587 338 628 413 628 L413 628 Z M419 679 C312 679 216 646 153 589 C83 524 43 432 43 334 C43 129 194 -13 412 -13 C630 -13 782 129 782 332 C782 533 629 679 419 679 L419 679 Z M281 729 L314 729 L536 869 L536 877 L381 877 L281 729 Z M485 729 L518 729 L739 869 L739 877 L585 877 L485 729 Z " />
<glyph glyph-name="ohungarumlaut" unicode="&#x151;" horiz-adv-x="544" d="M273 419 C135 419 37 328 37 200 C37 73 136 -16 277 -16 C409 -16 508 77 508 201 C508 328 410 419 273 419 L273 419 Z M273 375 C342 375 369 327 369 203 C369 74 343 28 271 28 C240 28 211 44 197 68 C182 95 176 135 176 202 C176 268 182 308 197 335 C211 360 239 375 273 375 L273 375 Z M168 488 L201 488 L375 642 L375 649 L248 649 L168 488 Z M342 488 L376 488 L549 642 L549 649 L422 649 L342 488 Z " />
<glyph glyph-name="OE" unicode="&#x152;" horiz-adv-x="978" d="M951 216 L908 216 C879 97 829 46 740 46 C685 46 643 52 634 62 C623 73 621 87 621 166 L621 326 L684 326 C738 325 750 312 755 244 L755 235 L799 235 L799 465 L755 465 L755 456 C750 389 738 374 685 373 L621 373 L621 621 L725 621 C803 625 830 601 862 497 L906 497 L895 667 L527 667 L503 667 C463 667 461 667 454 668 C422 669 421 669 409 669 C326 669 255 653 205 624 C107 566 45 451 45 329 C45 244 75 164 128 103 C188 35 282 -1 397 -1 L433 -1 C472 0 475 0 540 0 L544 0 L944 0 L951 216 Z M473 173 C473 102 472 94 463 76 C455 60 427 48 397 48 C357 48 320 62 289 90 C242 131 213 225 213 331 C213 512 283 621 399 621 C429 621 454 612 463 598 C470 585 473 565 473 532 L473 173 Z " />
<glyph glyph-name="oe" unicode="&#x153;" horiz-adv-x="800" d="M272 375 C305 375 336 358 349 332 C363 306 368 274 368 203 C368 126 364 97 349 69 C336 42 306 26 270 26 C239 26 208 43 195 69 C180 96 176 127 176 201 C176 274 180 305 195 332 C208 358 238 375 272 375 L272 375 Z M719 100 C693 58 650 33 605 33 C531 33 487 93 487 196 C487 206 488 217 489 227 L766 227 L766 234 C766 338 681 419 570 419 C515 419 468 400 427 360 C384 398 328 419 268 419 C137 419 37 324 37 199 C37 76 135 -16 268 -16 C331 -16 385 5 428 47 C464 7 517 -16 576 -16 C649 -16 722 22 755 78 L719 100 Z M491 267 C495 335 524 376 568 376 C613 376 638 339 640 267 L491 267 Z " />
<glyph glyph-name="Racute" unicode="&#x154;" horiz-adv-x="724" d="M756 0 L756 44 L750 44 C699 47 666 76 595 179 C525 283 505 307 470 329 C574 358 624 411 624 494 C624 558 589 611 526 640 C483 661 389 672 262 672 C242 672 224 672 208 671 C189 670 176 669 173 669 L30 667 L30 623 L43 623 C109 624 125 604 126 521 L126 149 C126 68 108 44 44 44 L28 44 L28 0 L374 0 L374 44 L355 44 C292 44 274 68 274 149 L274 303 L280 303 C355 307 361 301 446 158 C492 79 529 27 558 0 L756 0 Z M274 351 L274 621 C287 622 296 622 307 622 C389 622 426 608 449 567 C461 547 467 521 467 489 C467 431 449 390 415 371 C391 356 358 351 295 351 L289 351 L274 351 Z M256 729 L289 729 L535 869 L535 877 L356 877 L256 729 Z " />
<glyph glyph-name="racute" unicode="&#x155;" horiz-adv-x="437" d="M22 339 L28 339 C77 338 88 323 90 256 L90 125 C88 57 78 43 29 42 L23 42 L23 0 L293 0 L293 42 L282 42 C233 43 221 58 219 125 L219 178 C219 242 225 270 244 302 C259 327 276 340 295 340 C308 340 317 334 329 319 C349 292 359 285 380 285 C410 285 433 310 433 343 C433 386 399 419 353 419 C298 419 245 380 213 317 C212 359 207 392 198 419 C113 399 54 386 22 381 L22 339 Z M186 488 L220 488 L418 642 L418 649 L266 649 L186 488 Z " />
<glyph glyph-name="Rcommaaccent" unicode="&#x156;" horiz-adv-x="724" d="M756 0 L756 44 L750 44 C699 47 666 76 595 179 C525 283 505 307 470 329 C574 358 624 411 624 494 C624 558 589 611 526 640 C483 661 389 672 262 672 C242 672 224 672 208 671 C189 670 176 669 173 669 L30 667 L30 623 L43 623 C109 624 125 604 126 521 L126 149 C126 68 108 44 44 44 L28 44 L28 0 L374 0 L374 44 L355 44 C292 44 274 68 274 149 L274 303 L280 303 C355 307 361 301 446 158 C492 79 529 27 558 0 L756 0 Z M274 351 L274 621 C287 622 296 622 307 622 C389 622 426 608 449 567 C461 547 467 521 467 489 C467 431 449 390 415 371 C391 356 358 351 295 351 L289 351 L274 351 Z M290 -327 C387 -318 450 -257 450 -171 C450 -104 414 -59 359 -59 C315 -59 284 -89 284 -130 C284 -166 311 -194 344 -194 C349 -194 355 -193 361 -192 C376 -188 376 -188 378 -188 C388 -188 395 -198 395 -210 C395 -247 351 -277 290 -284 L290 -327 Z " />
<glyph glyph-name="rcommaaccent" unicode="&#x157;" horiz-adv-x="437" d="M22 339 L28 339 C77 338 88 323 90 256 L90 125 C88 57 78 43 29 42 L23 42 L23 0 L293 0 L293 42 L282 42 C233 43 221 58 219 125 L219 178 C219 242 225 270 244 302 C259 327 276 340 295 340 C308 340 317 334 329 319 C349 292 359 285 380 285 C410 285 433 310 433 343 C433 386 399 419 353 419 C298 419 245 380 213 317 C212 359 207 392 198 419 C113 399 54 386 22 381 L22 339 Z M92 -303 C181 -295 238 -239 238 -161 C238 -100 205 -59 156 -59 C116 -59 87 -86 87 -124 C87 -156 111 -182 142 -182 C148 -182 151 -181 165 -178 C169 -176 171 -176 173 -176 C181 -176 188 -185 188 -197 C188 -230 147 -258 92 -264 L92 -303 Z " />
<glyph glyph-name="Rcaron" unicode="&#x158;" horiz-adv-x="724" d="M756 0 L756 44 L750 44 C699 47 666 76 595 179 C525 283 505 307 470 329 C574 358 624 411 624 494 C624 558 589 611 526 640 C483 661 389 672 262 672 C242 672 224 672 208 671 C189 670 176 669 173 669 L30 667 L30 623 L43 623 C109 624 125 604 126 521 L126 149 C126 68 108 44 44 44 L28 44 L28 0 L374 0 L374 44 L355 44 C292 44 274 68 274 149 L274 303 L280 303 C355 307 361 301 446 158 C492 79 529 27 558 0 L756 0 Z M274 351 L274 621 C287 622 296 622 307 622 C389 622 426 608 449 567 C461 547 467 521 467 489 C467 431 449 390 415 371 C391 356 358 351 295 351 L289 351 L274 351 Z M409 729 L520 879 L488 879 L341 791 L177 879 L145 879 L253 729 L409 729 Z " />
<glyph glyph-name="rcaron" unicode="&#x159;" horiz-adv-x="437" d="M22 339 L28 339 C77 338 88 323 90 256 L90 125 C88 57 78 43 29 42 L23 42 L23 0 L293 0 L293 42 L282 42 C233 43 221 58 219 125 L219 178 C219 242 225 270 244 302 C259 327 276 340 295 340 C308 340 317 334 329 319 C349 292 359 285 380 285 C410 285 433 310 433 343 C433 386 399 419 353 419 C298 419 245 380 213 317 C212 359 207 392 198 419 C113 399 54 386 22 381 L22 339 Z M118 655 L85 655 L176 491 L280 491 L365 655 L330 655 L231 566 L118 655 Z " />
<glyph glyph-name="Sacute" unicode="&#x15a;" horiz-adv-x="559" d="M56 10 L103 10 C108 34 114 52 123 67 C167 16 233 -13 304 -13 C428 -13 521 73 521 188 C521 240 501 289 466 325 C437 355 390 382 301 420 C201 464 167 496 167 547 C167 597 206 632 262 632 C336 632 396 574 421 478 L464 478 L464 667 L419 667 C414 639 412 634 400 617 C357 659 309 679 253 679 C142 679 57 598 57 492 C57 444 75 398 106 366 C137 333 176 310 278 262 C365 222 401 185 401 136 C401 79 353 37 289 37 C231 37 181 67 145 122 C128 149 115 182 103 233 L56 233 L56 10 Z M222 729 L255 729 L501 869 L501 877 L321 877 L222 729 Z " />
<glyph glyph-name="sacute" unicode="&#x15b;" horiz-adv-x="417" d="M41 -12 L77 -12 C82 2 89 12 97 20 C102 19 103 18 109 15 C142 -6 180 -16 222 -16 C317 -16 381 39 381 122 C381 159 368 188 340 217 C317 241 303 247 210 272 C155 287 126 308 126 335 C126 361 156 382 195 382 C252 382 301 346 318 291 L353 291 L353 414 L320 414 C313 401 307 392 301 386 C261 406 215 420 186 420 C105 420 40 363 40 293 C40 236 86 188 165 164 C247 138 248 138 270 120 C282 111 289 96 289 81 C289 48 256 25 208 25 C147 25 100 60 80 122 L41 122 L41 -12 Z M156 488 L190 488 L388 642 L388 649 L236 649 L156 488 Z " />
<glyph glyph-name="Scircumflex" unicode="&#x15c;" horiz-adv-x="559" d="M56 10 L103 10 C108 34 114 52 123 67 C167 16 233 -13 304 -13 C428 -13 521 73 521 188 C521 240 501 289 466 325 C437 355 390 382 301 420 C201 464 167 496 167 547 C167 597 206 632 262 632 C336 632 396 574 421 478 L464 478 L464 667 L419 667 C414 639 412 634 400 617 C357 659 309 679 253 679 C142 679 57 598 57 492 C57 444 75 398 106 366 C137 333 176 310 278 262 C365 222 401 185 401 136 C401 79 353 37 289 37 C231 37 181 67 145 122 C128 149 115 182 103 233 L56 233 L56 10 Z M211 879 L102 729 L134 729 L280 817 L445 729 L477 729 L367 879 L211 879 Z " />
<glyph glyph-name="scircumflex" unicode="&#x15d;" horiz-adv-x="417" d="M41 -12 L77 -12 C82 2 89 12 97 20 C102 19 103 18 109 15 C142 -6 180 -16 222 -16 C317 -16 381 39 381 122 C381 159 368 188 340 217 C317 241 303 247 210 272 C155 287 126 308 126 335 C126 361 156 382 195 382 C252 382 301 346 318 291 L353 291 L353 414 L320 414 C313 401 307 392 301 386 C261 406 215 420 186 420 C105 420 40 363 40 293 C40 236 86 188 165 164 C247 138 248 138 270 120 C282 111 289 96 289 81 C289 48 256 25 208 25 C147 25 100 60 80 122 L41 122 L41 -12 Z M322 489 L357 489 L270 652 L166 652 L77 489 L110 489 L214 578 L322 489 Z " />
<glyph glyph-name="Scedilla" unicode="&#x15e;" horiz-adv-x="559" d="M464 478 L464 667 L419 667 C414 639 412 634 400 617 C357 659 309 679 253 679 C142 679 57 598 57 492 C57 444 75 398 106 366 C137 333 176 310 278 262 C365 222 401 185 401 136 C401 79 353 37 289 37 C231 37 181 67 145 122 C128 149 115 182 103 233 L56 233 L56 10 L103 10 C108 34 114 52 123 67 C156 27 209 -2 266 -10 C256 -69 251 -93 246 -112 C282 -114 305 -131 305 -158 C305 -183 284 -199 249 -199 C224 -199 205 -196 176 -188 C173 -208 172 -210 168 -228 C196 -238 220 -242 249 -242 C340 -242 399 -203 399 -144 C399 -94 363 -61 301 -55 C306 -28 307 -20 308 -13 C431 -11 521 74 521 188 C521 240 501 289 466 325 C437 355 390 382 301 420 C200 464 167 496 167 547 C167 597 206 632 262 632 C336 632 396 574 421 478 L464 478 Z " />
<glyph glyph-name="scedilla" unicode="&#x15f;" horiz-adv-x="417" d="M353 291 L353 414 L320 414 C313 401 307 392 301 386 C261 406 215 420 186 420 C105 420 40 363 40 292 C40 236 86 188 165 164 C247 138 248 138 270 120 C282 111 289 96 289 81 C289 48 256 25 208 25 C147 25 100 60 80 122 L41 122 L41 -12 L77 -12 C82 2 89 12 97 20 C102 19 103 18 109 15 C135 -1 161 -10 192 -14 C187 -54 183 -75 178 -100 C205 -102 222 -118 222 -142 C222 -165 206 -179 180 -179 C161 -179 147 -176 125 -169 C123 -187 122 -189 119 -205 C140 -214 157 -217 180 -217 C248 -217 293 -182 293 -129 C293 -84 266 -55 219 -49 C222 -29 224 -21 224 -16 C319 -14 381 40 381 122 C381 159 368 188 340 217 C317 241 303 247 210 272 C155 287 126 308 126 335 C126 361 156 382 195 382 C252 382 301 346 318 291 L353 291 Z " />
<glyph glyph-name="Scaron" unicode="&#x160;" horiz-adv-x="559" d="M56 10 L103 10 C108 34 114 52 123 67 C167 16 233 -13 304 -13 C428 -13 521 73 521 188 C521 240 501 289 466 325 C437 355 390 382 301 420 C201 464 167 496 167 547 C167 597 206 632 262 632 C336 632 396 574 421 478 L464 478 L464 667 L419 667 C414 639 412 634 400 617 C357 659 309 679 253 679 C142 679 57 598 57 492 C57 444 75 398 106 366 C137 333 176 310 278 262 C365 222 401 185 401 136 C401 79 353 37 289 37 C231 37 181 67 145 122 C128 149 115 182 103 233 L56 233 L56 10 Z M358 729 L468 879 L437 879 L290 791 L126 879 L94 879 L202 729 L358 729 Z " />
<glyph glyph-name="scaron" unicode="&#x161;" horiz-adv-x="417" d="M41 -12 L77 -12 C82 2 89 12 97 20 C102 19 103 18 109 15 C142 -6 180 -16 222 -16 C317 -16 381 39 381 122 C381 159 368 188 340 217 C317 241 303 247 210 272 C155 287 126 308 126 335 C126 361 156 382 195 382 C252 382 301 346 318 291 L353 291 L353 414 L320 414 C313 401 307 392 301 386 C261 406 215 420 186 420 C105 420 40 363 40 293 C40 236 86 188 165 164 C247 138 248 138 270 120 C282 111 289 96 289 81 C289 48 256 25 208 25 C147 25 100 60 80 122 L41 122 L41 -12 Z M110 655 L77 655 L167 491 L272 491 L357 655 L322 655 L222 566 L110 655 Z " />
<glyph glyph-name="Tcommaaccent" unicode="&#x162;" horiz-adv-x="693" d="M59 487 C79 599 100 620 200 620 L271 620 L271 149 C271 68 252 43 189 44 L167 44 L167 0 L523 0 L523 44 L501 44 C438 43 419 68 419 149 L419 620 L493 620 C584 620 608 598 633 487 L677 487 L676 667 L16 667 L15 487 L59 487 Z M271 -327 C368 -318 431 -257 431 -171 C431 -104 395 -59 340 -59 C296 -59 265 -89 265 -130 C265 -166 292 -194 325 -194 C330 -194 336 -193 342 -192 C357 -188 357 -188 359 -188 C369 -188 376 -198 376 -210 C376 -247 332 -277 271 -284 L271 -327 Z " />
<glyph glyph-name="tcommaaccent" unicode="&#x163;" horiz-adv-x="337" d="M325 359 L325 403 L204 403 L204 534 L164 534 C152 457 95 402 25 402 C25 402 21 402 16 403 L16 359 L75 359 L75 127 C75 33 118 -16 200 -16 C266 -16 318 16 340 68 L303 82 C287 53 271 41 248 41 C233 41 221 47 214 61 C205 76 204 87 204 139 L204 359 L325 359 Z M112 -303 C201 -295 258 -239 258 -161 C258 -100 225 -59 176 -59 C136 -59 107 -86 107 -124 C107 -156 131 -182 162 -182 C168 -182 171 -181 185 -178 C189 -176 191 -176 193 -176 C201 -176 208 -185 208 -197 C208 -230 167 -258 112 -264 L112 -303 Z " />
<glyph glyph-name="Tcaron" unicode="&#x164;" horiz-adv-x="693" d="M59 487 C79 599 100 620 200 620 L271 620 L271 149 C271 68 252 43 189 44 L167 44 L167 0 L523 0 L523 44 L501 44 C438 43 419 68 419 149 L419 620 L493 620 C584 620 608 598 633 487 L677 487 L676 667 L16 667 L15 487 L59 487 Z M420 729 L531 879 L499 879 L352 791 L188 879 L156 879 L264 729 L420 729 Z " />
<glyph glyph-name="tcaron" unicode="&#x165;" horiz-adv-x="406" d="M325 359 L325 403 L204 403 L204 534 L164 534 C152 457 95 402 25 402 C25 402 21 402 16 403 L16 359 L75 359 L75 127 C75 33 118 -16 200 -16 C266 -16 318 16 340 68 L303 82 C287 53 271 41 248 41 C233 41 221 47 214 61 C205 76 204 87 204 139 L204 359 L325 359 Z M254 468 C343 476 400 531 400 609 C400 670 367 711 318 711 C278 711 249 684 249 647 C249 615 273 589 304 589 C308 589 314 590 319 591 C332 594 332 594 335 594 C343 594 350 585 350 574 C350 541 309 512 254 507 L254 468 Z " />
<glyph glyph-name="Tbar" unicode="&#x166;" horiz-adv-x="690" d="M523 0 L523 44 L501 44 C438 43 419 68 419 149 L419 340 L551 340 L551 382 L419 382 L419 620 L490 620 C555 619 581 611 597 588 C615 561 624 535 631 487 L675 487 L674 667 L16 667 L15 487 L59 487 C66 535 75 561 93 588 C109 611 135 619 200 620 L271 620 L271 382 L139 382 L139 340 L271 340 L271 149 C271 68 252 43 189 44 L167 44 L167 0 L523 0 Z " />
<glyph glyph-name="tbar" unicode="&#x167;" horiz-adv-x="337" d="M75 284 L75 127 C75 33 118 -16 200 -16 C266 -16 318 16 340 68 L303 81 C287 53 271 41 248 41 C233 41 221 47 214 60 C205 75 204 87 204 138 L204 284 L325 284 L325 327 L204 327 L204 359 L325 359 L325 403 L204 403 L204 534 L164 534 C152 457 95 402 25 402 C25 402 21 402 16 403 L16 359 L75 359 L75 327 L16 327 L16 284 L75 284 Z " />
<glyph glyph-name="Utilde" unicode="&#x168;" horiz-adv-x="775" d="M518 667 L518 623 L524 623 C590 621 618 587 617 511 L617 286 C616 188 616 188 609 167 C585 93 513 44 428 44 C365 44 310 72 284 118 C265 151 259 189 259 275 L259 521 C260 604 276 624 342 623 L354 623 L354 667 L18 667 L18 623 L28 623 C94 624 110 604 111 521 L111 285 L111 235 C112 179 121 141 143 103 C186 31 278 -13 386 -13 C513 -13 604 37 645 129 C662 167 667 201 667 284 L667 519 C665 584 690 616 750 623 L757 623 L757 667 L518 667 Z M289 726 L289 729 C289 757 308 779 333 779 C347 779 364 773 394 758 C442 734 477 724 508 724 C563 724 604 775 604 845 L604 861 L572 861 C567 826 552 805 531 805 C515 805 490 813 462 828 C421 849 383 861 355 861 C297 861 257 812 257 740 L257 726 L289 726 Z " />
<glyph glyph-name="utilde" unicode="&#x169;" horiz-adv-x="572" d="M491 403 L296 403 L296 361 L302 361 C350 360 360 346 362 279 L362 145 C362 141 355 121 350 111 C333 76 296 51 261 51 C248 51 236 56 225 65 C211 76 206 96 206 134 L206 403 L14 403 L14 361 L18 361 C64 360 75 346 77 279 L77 130 C77 87 81 66 94 44 C114 8 161 -16 212 -16 C270 -16 322 11 362 63 L362 56 L362 53 C363 23 365 -4 368 -16 L373 -16 C404 -7 496 1 556 0 L556 42 L553 42 C505 43 493 59 491 125 L491 403 Z M171 503 C177 535 191 550 215 550 C231 550 247 544 281 526 C315 509 334 503 355 503 C414 503 450 551 450 629 L450 635 L420 635 C417 600 401 582 374 582 C360 582 348 586 326 598 C282 621 260 629 235 629 C205 629 173 611 159 587 C147 564 142 540 141 503 L171 503 Z " />
<glyph glyph-name="Umacron" unicode="&#x16a;" horiz-adv-x="775" d="M518 667 L518 623 L524 623 C590 621 618 587 617 511 L617 286 C616 188 616 188 609 167 C585 93 513 44 428 44 C365 44 310 72 284 118 C265 151 259 189 259 275 L259 521 C260 604 276 624 342 623 L354 623 L354 667 L18 667 L18 623 L28 623 C94 624 110 604 111 521 L111 285 L111 235 C112 179 121 141 143 103 C186 31 278 -13 386 -13 C513 -13 604 37 645 129 C662 167 667 201 667 284 L667 519 C665 584 690 616 750 623 L757 623 L757 667 L518 667 Z M237 810 L237 758 L571 758 L571 810 L237 810 Z " />
<glyph glyph-name="umacron" unicode="&#x16b;" horiz-adv-x="572" d="M491 403 L296 403 L296 361 L302 361 C350 360 360 346 362 279 L362 145 C362 141 355 121 350 111 C333 76 296 51 261 51 C248 51 236 56 225 65 C211 76 206 96 206 134 L206 403 L14 403 L14 361 L18 361 C64 360 75 346 77 279 L77 130 C77 87 81 66 94 44 C114 8 161 -16 212 -16 C270 -16 322 11 362 63 L362 56 L362 53 C363 23 365 -4 368 -16 L373 -16 C404 -7 496 1 556 0 L556 42 L553 42 C505 43 493 59 491 125 L491 403 Z M138 541 L445 541 L445 590 L138 590 L138 541 Z " />
<glyph glyph-name="Ubreve" unicode="&#x16c;" horiz-adv-x="775" d="M518 667 L518 623 L524 623 C590 621 618 587 617 511 L617 286 C616 188 616 188 609 167 C585 93 513 44 428 44 C365 44 310 72 284 118 C265 151 259 189 259 275 L259 521 C260 604 276 624 342 623 L354 623 L354 667 L18 667 L18 623 L28 623 C94 624 110 604 111 521 L111 285 L111 235 C112 179 121 141 143 103 C186 31 278 -13 386 -13 C513 -13 604 37 645 129 C662 167 667 201 667 284 L667 519 C665 584 690 616 750 623 L757 623 L757 667 L518 667 Z M238 880 C265 782 338 720 427 720 C515 720 588 783 613 880 L568 880 C542 835 491 810 425 810 C359 810 314 832 283 880 L238 880 Z " />
<glyph glyph-name="ubreve" unicode="&#x16d;" horiz-adv-x="572" d="M491 403 L296 403 L296 361 L302 361 C350 360 360 346 362 279 L362 145 C362 141 355 121 350 111 C333 76 296 51 261 51 C248 51 236 56 225 65 C211 76 206 96 206 134 L206 403 L14 403 L14 361 L18 361 C64 360 75 346 77 279 L77 130 C77 87 81 66 94 44 C114 8 161 -16 212 -16 C270 -16 322 11 362 63 L362 56 L362 53 C363 23 365 -4 368 -16 L373 -16 C404 -7 496 1 556 0 L556 42 L553 42 C505 43 493 59 491 125 L491 403 Z M139 648 L139 645 C139 607 155 566 182 535 C210 504 242 489 282 489 C360 489 420 556 424 648 L397 648 C379 596 342 571 284 571 C223 571 183 598 167 648 L139 648 Z " />
<glyph glyph-name="Uring" unicode="&#x16e;" horiz-adv-x="775" d="M518 667 L518 623 L524 623 C590 621 618 587 617 511 L617 286 C616 188 616 188 609 167 C585 93 513 44 428 44 C365 44 310 72 284 118 C265 151 259 189 259 275 L259 521 C260 604 276 624 342 623 L354 623 L354 667 L18 667 L18 623 L28 623 C94 624 110 604 111 521 L111 285 L111 235 C112 179 121 141 143 103 C186 31 278 -13 386 -13 C513 -13 604 37 645 129 C662 167 667 201 667 284 L667 519 C665 584 690 616 750 623 L757 623 L757 667 L518 667 Z M417 911 C358 911 310 863 310 804 C310 746 358 697 415 697 C475 697 523 744 523 804 C523 863 475 911 417 911 L417 911 Z M416 872 C454 872 484 842 484 804 C484 767 453 736 416 736 C379 736 349 767 349 805 C349 841 380 872 416 872 L416 872 Z " />
<glyph glyph-name="uring" unicode="&#x16f;" horiz-adv-x="572" d="M491 403 L296 403 L296 361 L302 361 C350 360 360 346 362 279 L362 145 C362 141 355 121 350 111 C333 76 296 51 261 51 C248 51 236 56 225 65 C211 76 206 96 206 134 L206 403 L14 403 L14 361 L18 361 C64 360 75 346 77 279 L77 130 C77 87 81 66 94 44 C114 8 161 -16 212 -16 C270 -16 322 11 362 63 L362 56 L362 53 C363 23 365 -4 368 -16 L373 -16 C404 -7 496 1 556 0 L556 42 L553 42 C505 43 493 59 491 125 L491 403 Z M296 682 C237 682 189 634 189 575 C189 518 237 469 294 469 C354 469 402 516 402 576 C402 634 354 682 296 682 L296 682 Z M295 643 C333 643 363 613 363 576 C363 538 332 508 295 508 C258 508 228 538 228 576 C228 613 259 643 295 643 L295 643 Z " />
<glyph glyph-name="Uhungarumlaut" unicode="&#x170;" horiz-adv-x="775" d="M518 667 L518 623 L524 623 C590 621 618 587 617 511 L617 286 C616 188 616 188 609 167 C585 93 513 44 428 44 C365 44 310 72 284 118 C265 151 259 189 259 275 L259 521 C260 604 276 624 342 623 L354 623 L354 667 L18 667 L18 623 L28 623 C94 624 110 604 111 521 L111 285 L111 235 C112 179 121 141 143 103 C186 31 278 -13 386 -13 C513 -13 604 37 645 129 C662 167 667 201 667 284 L667 519 C665 584 690 616 750 623 L757 623 L757 667 L518 667 Z M262 729 L295 729 L517 869 L517 877 L362 877 L262 729 Z M466 729 L499 729 L720 869 L720 877 L566 877 L466 729 Z " />
<glyph glyph-name="uhungarumlaut" unicode="&#x171;" horiz-adv-x="572" d="M491 403 L296 403 L296 361 L302 361 C350 360 360 346 362 279 L362 145 C362 141 355 121 350 111 C333 76 296 51 261 51 C248 51 236 56 225 65 C211 76 206 96 206 134 L206 403 L14 403 L14 361 L18 361 C64 360 75 346 77 279 L77 130 C77 87 81 66 94 44 C114 8 161 -16 212 -16 C270 -16 322 11 362 63 L362 56 L362 53 C363 23 365 -4 368 -16 L373 -16 C404 -7 496 1 556 0 L556 42 L553 42 C505 43 493 59 491 125 L491 403 Z M166 488 L200 488 L373 642 L373 649 L246 649 L166 488 Z M340 488 L374 488 L547 642 L547 649 L420 649 L340 488 Z " />
<glyph glyph-name="Uogonek" unicode="&#x172;" horiz-adv-x="775" d="M604 -150 C580 -159 568 -162 552 -162 C513 -162 485 -132 485 -92 C485 -48 515 -2 570 37 C642 86 670 160 667 284 L667 519 C665 584 690 616 750 623 L757 623 L757 667 L518 667 L518 623 L524 623 C590 621 618 587 617 511 L617 286 C616 188 616 188 609 167 C585 93 513 44 428 44 C365 44 310 72 284 118 C265 151 259 189 259 275 L259 521 C260 604 276 624 342 623 L354 623 L354 667 L18 667 L18 623 L28 623 C94 624 110 604 111 521 L111 285 L111 235 C112 179 121 141 143 103 C185 32 278 -13 384 -13 C418 -13 446 -10 480 -2 C427 -27 392 -73 392 -117 C392 -169 442 -209 509 -209 C547 -209 577 -199 617 -171 L604 -150 Z " />
<glyph glyph-name="uogonek" unicode="&#x173;" horiz-adv-x="572" d="M556 42 L553 42 C505 43 493 59 491 125 L491 403 L296 403 L296 361 L302 361 C350 360 360 346 362 279 L362 145 C362 141 355 121 350 111 C333 76 296 51 261 51 C248 51 236 56 225 65 C211 76 206 96 206 134 L206 403 L14 403 L14 361 L18 361 C64 360 75 346 77 279 L77 130 C77 87 81 66 94 44 C114 8 161 -16 212 -16 C270 -16 322 11 362 63 L362 56 L362 53 C363 23 365 -4 368 -16 L373 -16 C390 -12 402 -10 424 -7 C384 -33 359 -70 359 -107 C359 -156 402 -192 460 -192 C493 -192 518 -183 554 -158 L542 -137 C526 -145 517 -148 504 -148 C468 -148 440 -120 440 -83 C440 -53 450 -29 473 -3 C505 -1 526 0 556 0 L556 42 Z " />
<glyph glyph-name="Wcircumflex" unicode="&#x174;" horiz-adv-x="941" d="M708 -14 L846 472 C880 592 898 619 944 623 L952 623 L952 667 L749 667 L749 623 L754 623 C791 623 816 601 816 567 C816 554 811 527 803 500 L720 201 L542 667 L482 667 L330 201 L228 529 C221 554 216 577 216 588 C216 610 234 622 271 623 L276 623 L276 667 L-10 667 L-10 623 L-4 623 C45 621 54 610 85 511 L247 -14 L307 -14 L466 468 L650 -14 L708 -14 Z M437 879 L329 729 L361 729 L507 817 L671 729 L703 729 L593 879 L437 879 Z " />
<glyph glyph-name="wcircumflex" unicode="&#x175;" horiz-adv-x="751" d="M561 -11 L676 271 C706 347 715 358 753 361 L755 361 L755 403 L595 403 L595 361 L601 361 C632 360 650 351 650 335 C650 329 649 328 640 304 L570 124 L450 403 L387 403 L267 124 L198 297 C189 321 184 335 184 340 C184 354 200 361 231 361 L236 361 L236 403 L-5 403 L-5 361 L0 361 C34 359 40 353 67 291 L192 -11 L257 -11 L375 268 L496 -11 L561 -11 Z M520 489 L555 489 L469 652 L364 652 L275 489 L308 489 L412 578 L520 489 Z " />
<glyph glyph-name="Ycircumflex" unicode="&#x176;" horiz-adv-x="662" d="M-13 667 L-13 623 L-7 623 C44 616 51 610 101 526 L256 267 L256 149 C256 68 238 44 175 44 L164 44 L164 0 L497 0 L497 44 L487 44 C423 44 405 68 405 149 L405 277 L549 512 C597 592 625 618 669 623 L674 623 L674 667 L449 667 L449 623 L454 623 C496 623 519 606 519 576 C519 561 512 541 496 515 L386 332 L260 541 C243 568 238 581 238 592 C238 613 257 623 295 623 L300 623 L300 667 L-13 667 Z M270 879 L161 729 L193 729 L339 817 L504 729 L536 729 L426 879 L270 879 Z " />
<glyph glyph-name="ycircumflex" unicode="&#x177;" horiz-adv-x="503" d="M-6 403 L-6 361 L2 360 C30 358 40 347 68 293 L234 -15 L214 -65 C194 -107 180 -117 118 -135 C76 -147 57 -166 57 -196 C57 -227 82 -250 116 -250 C162 -250 193 -218 234 -128 L407 251 C444 335 460 355 493 360 L500 361 L500 403 L345 403 L345 361 L353 361 C377 361 391 352 391 337 C391 327 389 323 373 286 L298 118 L204 301 C197 313 193 328 193 338 C193 353 201 359 222 361 L229 361 L229 403 L-6 403 Z M377 489 L412 489 L326 652 L221 652 L132 489 L165 489 L269 578 L377 489 Z " />
<glyph glyph-name="Ydieresis" unicode="&#x178;" horiz-adv-x="662" d="M-13 667 L-13 623 L-7 623 C44 616 51 610 101 526 L256 267 L256 149 C256 68 238 44 175 44 L164 44 L164 0 L497 0 L497 44 L487 44 C423 44 405 68 405 149 L405 277 L549 512 C597 592 625 618 669 623 L674 623 L674 667 L449 667 L449 623 L454 623 C496 623 519 606 519 576 C519 561 512 541 496 515 L386 332 L260 541 C243 568 238 581 238 592 C238 613 257 623 295 623 L300 623 L300 667 L-13 667 Z M212 862 C174 862 144 832 144 794 C144 757 175 726 211 726 C250 726 280 756 280 794 C280 832 250 862 212 862 L212 862 Z M487 862 C450 862 419 832 419 795 C419 756 449 726 487 726 C525 726 555 757 555 794 C555 832 525 862 487 862 L487 862 Z " />
<glyph glyph-name="Zacute" unicode="&#x179;" horiz-adv-x="665" d="M33 0 L612 0 L627 190 L583 190 C540 69 507 45 384 47 L214 47 L607 630 L607 667 L68 667 L54 497 L96 497 C129 601 165 625 284 621 L426 621 L33 35 L33 0 Z M295 729 L328 729 L574 869 L574 877 L395 877 L295 729 Z " />
<glyph glyph-name="zacute" unicode="&#x17a;" horiz-adv-x="469" d="M28 0 L426 0 L438 134 L397 134 C365 59 347 44 290 43 L193 43 L431 366 L431 403 L50 403 L42 283 L83 283 C112 352 121 361 157 360 L268 360 L28 33 L28 0 Z M223 488 L257 488 L455 642 L455 649 L303 649 L223 488 Z " />
<glyph glyph-name="Zdotaccent" unicode="&#x17b;" horiz-adv-x="665" d="M33 0 L612 0 L627 190 L583 190 C540 69 507 45 384 47 L214 47 L607 630 L607 667 L68 667 L54 497 L96 497 C129 601 165 625 284 621 L426 621 L33 35 L33 0 Z M347 862 C309 862 279 832 279 794 C279 757 310 726 346 726 C385 726 415 756 415 794 C415 832 385 862 347 862 L347 862 Z " />
<glyph glyph-name="zdotaccent" unicode="&#x17c;" horiz-adv-x="469" d="M28 0 L426 0 L438 134 L397 134 C365 59 347 44 290 43 L193 43 L431 366 L431 403 L50 403 L42 283 L83 283 C112 352 121 361 157 360 L268 360 L28 33 L28 0 Z M258 633 C225 633 198 606 198 573 C198 540 225 513 257 513 C291 513 318 539 318 573 C318 606 291 633 258 633 L258 633 Z " />
<glyph glyph-name="Zcaron" unicode="&#x17d;" horiz-adv-x="665" d="M33 0 L612 0 L627 190 L583 190 C540 69 507 45 384 47 L214 47 L607 630 L607 667 L68 667 L54 497 L96 497 C129 601 165 625 284 621 L426 621 L33 35 L33 0 Z M427 729 L537 879 L506 879 L359 791 L195 879 L163 879 L271 729 L427 729 Z " />
<glyph glyph-name="zcaron" unicode="&#x17e;" horiz-adv-x="469" d="M28 0 L426 0 L438 134 L397 134 C365 59 347 44 290 43 L193 43 L431 366 L431 403 L50 403 L42 283 L83 283 C112 352 121 361 157 360 L268 360 L28 33 L28 0 Z M147 655 L114 655 L204 491 L309 491 L394 655 L359 655 L260 566 L147 655 Z " />
<glyph glyph-name="uni018F" unicode="&#x18f;" horiz-adv-x="825" d="M609 306 L43 307 C64 203 89 142 127 100 C191 30 299 -13 411 -13 C631 -13 783 128 783 332 C783 536 630 679 413 679 C269 679 160 621 90 509 C76 486 68 467 63 448 L198 448 C202 474 218 505 245 538 C295 599 350 628 415 628 C488 628 551 586 579 520 C600 472 609 412 609 330 L609 306 Z M605 256 C591 114 524 38 413 38 C303 38 232 118 221 256 L605 256 Z " />
<glyph glyph-name="florin" unicode="&#x192;" horiz-adv-x="530" d="M368 444 C374 481 377 509 377 550 C377 599 381 624 390 640 C399 655 414 665 429 665 C437 665 444 660 444 655 C444 651 442 645 438 639 C433 630 430 620 430 613 C430 594 448 577 469 577 C496 577 516 598 516 627 C516 664 485 688 438 688 C371 688 328 646 294 548 C258 457 249 449 178 444 L172 444 L162 393 L238 393 L236 384 L234 371 L216 287 C214 276 204 231 195 190 C173 93 167 53 162 -40 C157 -122 157 -122 152 -138 C142 -166 122 -187 106 -187 C99 -187 92 -182 92 -177 C92 -176 93 -174 94 -172 C98 -164 100 -157 100 -150 C100 -129 82 -114 59 -114 C33 -114 12 -135 12 -161 C12 -193 43 -217 82 -217 C146 -217 213 -154 249 -59 C275 12 302 114 325 230 L358 393 L438 393 L448 444 L368 444 Z " />
<glyph glyph-name="uni01CD" unicode="&#x1cd;" horiz-adv-x="657" d="M671 0 L671 44 L666 44 C617 50 603 65 564 157 L350 678 L306 678 L101 170 C69 87 38 51 -6 44 L-13 44 L-13 0 L200 0 L200 44 L192 44 C155 44 129 63 129 91 C129 107 133 122 153 170 L166 202 L387 202 L417 128 C428 101 435 81 435 74 C435 53 414 44 370 44 L363 44 L363 0 L671 0 Z M369 247 L183 247 L275 475 L369 247 Z M407 729 L517 879 L486 879 L339 791 L175 879 L143 879 L251 729 L407 729 Z " />
<glyph glyph-name="uni01CE" unicode="&#x1ce;" horiz-adv-x="534" d="M496 84 C492 62 480 49 464 49 C443 49 436 65 436 108 L436 287 C436 337 431 353 410 375 C382 405 334 419 262 419 C143 419 53 375 53 316 C53 290 74 272 103 272 C135 272 154 288 160 323 C163 341 168 353 174 359 C185 368 208 375 231 375 C254 375 277 368 289 358 C302 349 307 330 307 298 L307 267 L267 252 C248 244 233 238 224 235 C154 208 101 178 67 149 C50 134 38 105 38 80 C38 26 83 -10 150 -10 C203 -10 259 10 313 49 C330 10 366 -10 417 -10 C485 -10 526 25 529 84 L496 84 Z M307 223 L307 93 C276 65 246 50 220 50 C190 50 166 75 166 107 C166 151 202 181 301 221 L307 223 Z M160 655 L126 655 L217 491 L321 491 L406 655 L371 655 L272 566 L160 655 Z " />
<glyph glyph-name="uni01D1" unicode="&#x1d1;" horiz-adv-x="297" d="M166 445 L123 445 L83 107 C80 83 78 60 78 48 C78 6 102 -17 146 -17 C187 -17 211 7 211 48 C211 59 209 81 206 104 L166 445 Z M143 673 C102 673 67 638 67 596 C67 554 102 519 144 519 C187 519 221 553 221 596 C221 639 187 673 143 673 L143 673 Z " />
<glyph glyph-name="uni01D2" unicode="&#x1d2;" horiz-adv-x="544" d="M273 419 C135 419 37 328 37 200 C37 73 136 -16 277 -16 C409 -16 508 77 508 201 C508 328 410 419 273 419 L273 419 Z M273 375 C342 375 369 327 369 203 C369 74 343 28 271 28 C240 28 211 44 197 68 C182 95 176 135 176 202 C176 268 182 308 197 335 C211 360 239 375 273 375 L273 375 Z M159 655 L126 655 L216 491 L321 491 L406 655 L371 655 L271 566 L159 655 Z " />
<glyph glyph-name="uni01D3" unicode="&#x1d3;" horiz-adv-x="775" d="M518 667 L518 623 L524 623 C590 621 618 587 617 511 L617 286 C616 188 616 188 609 167 C585 93 513 44 428 44 C365 44 310 72 284 118 C265 151 259 189 259 275 L259 521 C260 604 276 624 342 623 L354 623 L354 667 L18 667 L18 623 L28 623 C94 624 110 604 111 521 L111 285 L111 235 C112 179 121 141 143 103 C186 31 278 -13 386 -13 C513 -13 604 37 645 129 C662 167 667 201 667 284 L667 519 C665 584 690 616 750 623 L757 623 L757 667 L518 667 Z M488 729 L599 879 L567 879 L420 791 L256 879 L224 879 L332 729 L488 729 Z " />
<glyph glyph-name="uni01D4" unicode="&#x1d4;" horiz-adv-x="572" d="M491 403 L296 403 L296 361 L302 361 C350 360 360 346 362 279 L362 145 C362 141 355 121 350 111 C333 76 296 51 261 51 C248 51 236 56 225 65 C211 76 206 96 206 134 L206 403 L14 403 L14 361 L18 361 C64 360 75 346 77 279 L77 130 C77 87 81 66 94 44 C114 8 161 -16 212 -16 C270 -16 322 11 362 63 L362 56 L362 53 C363 23 365 -4 368 -16 L373 -16 C404 -7 496 1 556 0 L556 42 L553 42 C505 43 493 59 491 125 L491 403 Z M187 655 L153 655 L244 491 L348 491 L433 655 L398 655 L299 566 L187 655 Z " />
<glyph glyph-name="uni01DD" unicode="&#x1dd;" horiz-adv-x="489" d="M84 303 C110 345 152 369 197 369 C274 369 316 310 316 203 C316 194 316 187 315 176 L37 176 L37 169 C37 60 119 -16 235 -16 C362 -16 455 75 455 200 C455 327 361 419 232 419 C151 419 78 381 45 322 L84 303 Z M314 137 C310 92 306 75 293 56 C283 39 260 27 237 27 C193 27 166 64 166 124 C166 128 166 132 167 137 L314 137 Z " />
<glyph glyph-name="Gcaron" unicode="&#x1e6;" horiz-adv-x="782" d="M459 300 L459 256 L469 256 C525 252 541 238 543 186 L543 161 C543 131 539 108 531 94 C512 60 462 37 405 37 C336 37 281 67 251 119 C226 164 214 227 214 319 C214 406 225 475 245 521 C275 587 336 625 413 625 C518 625 593 557 622 436 L665 436 L662 667 L619 667 C616 639 610 618 599 595 C538 653 469 680 385 680 C298 680 219 650 160 595 C86 526 43 426 43 325 C43 132 188 -13 381 -13 C432 -13 467 -7 543 13 C591 26 638 34 671 34 C676 34 681 34 692 32 L692 149 C691 234 700 249 754 255 L762 256 L762 300 L459 300 Z M470 729 L581 879 L549 879 L402 791 L238 879 L206 879 L314 729 L470 729 Z " />
<glyph glyph-name="gcaron" unicode="&#x1e7;" horiz-adv-x="515" d="M152 139 C86 123 54 93 54 44 C54 -22 114 -53 240 -53 C297 -53 324 -54 353 -59 C393 -65 415 -86 415 -117 C415 -174 352 -208 249 -208 C159 -208 105 -178 105 -129 C105 -114 110 -99 120 -83 C104 -77 95 -75 85 -75 C55 -75 30 -102 30 -135 C30 -168 51 -200 85 -219 C120 -239 175 -249 245 -249 C401 -249 491 -188 491 -82 C491 -22 460 22 404 41 C364 54 339 56 234 56 C151 58 134 62 134 84 C134 110 167 124 229 124 C358 125 436 182 436 275 C436 301 429 324 414 348 C425 360 433 365 443 365 C451 365 456 362 466 351 C476 339 484 335 494 335 C513 335 526 350 526 372 C526 400 507 418 477 418 C450 418 427 406 391 373 C354 404 307 419 245 419 C125 419 46 362 46 276 C46 213 88 160 152 139 L152 139 Z M241 376 C286 376 311 341 311 277 C311 206 288 169 243 169 C196 169 172 206 172 278 C172 339 198 376 241 376 L241 376 Z M144 655 L110 655 L201 491 L305 491 L390 655 L355 655 L256 566 L144 655 Z " />
<glyph glyph-name="uni01F4" unicode="&#x1f4;" horiz-adv-x="782" d="M459 300 L459 256 L469 256 C525 252 541 238 543 186 L543 161 C543 131 539 108 531 94 C512 60 462 37 405 37 C336 37 281 67 251 119 C226 164 214 227 214 319 C214 406 225 475 245 521 C275 587 336 625 413 625 C518 625 593 557 622 436 L665 436 L662 667 L619 667 C616 639 610 618 599 595 C538 653 469 680 385 680 C298 680 219 650 160 595 C86 526 43 426 43 325 C43 132 188 -13 381 -13 C432 -13 467 -7 543 13 C591 26 638 34 671 34 C676 34 681 34 692 32 L692 149 C691 234 700 249 754 255 L762 256 L762 300 L459 300 Z M346 729 L379 729 L625 869 L625 877 L446 877 L346 729 Z " />
<glyph glyph-name="uni01F5" unicode="&#x1f5;" horiz-adv-x="782" d="M203 496 L236 496 L482 636 L482 644 L303 644 L203 496 Z M152 139 C86 123 54 93 54 44 C54 -22 114 -53 240 -53 C297 -53 324 -54 353 -59 C393 -65 415 -86 415 -117 C415 -174 352 -208 249 -208 C159 -208 105 -178 105 -129 C105 -114 110 -99 120 -83 C104 -77 95 -75 85 -75 C55 -75 30 -102 30 -135 C30 -168 51 -200 85 -219 C120 -239 175 -249 245 -249 C401 -249 491 -188 491 -82 C491 -22 460 22 404 41 C364 54 339 56 234 56 C151 58 134 62 134 84 C134 110 167 124 229 124 C358 125 436 182 436 275 C436 301 429 324 414 348 C425 360 433 365 443 365 C451 365 456 362 466 351 C476 339 484 335 494 335 C513 335 526 350 526 372 C526 400 507 418 477 418 C450 418 427 406 391 373 C354 404 307 419 245 419 C125 419 46 362 46 276 C46 213 88 160 152 139 L152 139 Z M241 376 C286 376 311 341 311 277 C311 206 288 169 243 169 C196 169 172 206 172 278 C172 339 198 376 241 376 L241 376 Z " />
<glyph glyph-name="Aringacute" unicode="&#x1fa;" horiz-adv-x="657" d="M671 0 L671 44 L666 44 C617 50 603 65 564 157 L350 678 L306 678 L101 170 C69 87 38 51 -6 44 L-13 44 L-13 0 L200 0 L200 44 L192 44 C155 44 129 63 129 91 C129 107 133 122 153 170 L166 202 L387 202 L417 128 C428 101 435 81 435 74 C435 53 414 44 370 44 L363 44 L363 0 L671 0 Z M369 247 L183 247 L275 475 L369 247 Z M327 917 C268 917 220 869 220 810 C220 753 268 704 325 704 C385 704 433 751 433 811 C433 869 385 917 327 917 L327 917 Z M326 878 C364 878 394 848 394 811 C394 773 363 743 326 743 C289 743 259 773 259 811 C259 848 290 878 326 878 L326 878 Z M184 899 L217 899 L463 1039 L463 1047 L284 1047 L184 899 Z " />
<glyph glyph-name="aringacute" unicode="&#x1fb;" horiz-adv-x="534" d="M263 691 C204 691 156 643 156 584 C156 527 204 478 261 478 C321 478 369 525 369 585 C369 643 321 691 263 691 L263 691 Z M262 652 C300 652 330 622 330 585 C330 547 299 517 262 517 C225 517 195 547 195 585 C195 622 226 652 262 652 L262 652 Z M120 674 L153 674 L399 813 L399 821 L219 821 L120 674 Z M496 84 C492 62 480 49 464 49 C443 49 436 65 436 108 L436 287 C436 337 431 353 410 375 C382 405 334 419 262 419 C143 419 53 375 53 316 C53 290 74 272 103 272 C135 272 154 288 160 323 C163 341 168 353 174 359 C185 368 208 375 231 375 C254 375 277 368 289 358 C302 349 307 330 307 298 L307 267 L267 252 C248 244 233 238 224 235 C154 208 101 178 67 149 C50 134 38 105 38 80 C38 26 83 -10 150 -10 C203 -10 259 10 313 49 C330 10 366 -10 417 -10 C485 -10 526 25 529 84 L496 84 Z M307 223 L307 93 C276 65 246 50 220 50 C190 50 166 75 166 107 C166 151 202 181 301 221 L307 223 Z " />
<glyph glyph-name="AEacute" unicode="&#x1fc;" horiz-adv-x="927" d="M401 322 L401 148 C401 68 383 44 319 44 L306 44 L306 0 L894 0 L900 213 L856 213 C823 88 777 45 677 47 L654 47 C567 46 548 66 549 158 L549 322 L621 322 C676 321 687 310 692 249 C692 245 692 241 693 240 L693 235 L694 232 L738 232 L738 457 L694 457 L693 451 C688 381 674 366 614 368 L549 368 L549 621 L680 621 C752 625 783 596 813 496 L858 496 L845 667 L235 667 L235 625 L258 625 C306 625 322 618 322 599 C322 589 315 572 296 534 L110 175 C61 83 27 48 -20 44 L-20 0 L189 0 L189 44 L184 44 C150 44 125 62 126 84 C127 98 134 119 148 146 L238 322 L401 322 Z M401 368 L264 368 L401 633 L401 368 Z M482 729 L515 729 L761 869 L761 877 L582 877 L482 729 Z " />
<glyph glyph-name="aeacute" unicode="&#x1fd;" horiz-adv-x="718" d="M333 494 L366 494 L612 634 L612 642 L433 642 L333 494 Z M633 99 C607 61 567 39 524 39 C455 39 416 101 416 210 L416 226 L683 226 C674 345 600 419 489 419 C447 419 412 408 381 386 C378 388 371 391 359 396 C319 414 290 419 238 419 C130 419 45 374 45 317 C45 293 66 275 96 275 C126 275 147 294 153 326 C157 349 157 349 163 356 C172 368 193 376 216 376 C245 376 266 366 276 347 C284 334 286 323 286 291 L286 266 C199 235 126 202 97 180 C57 150 37 117 37 82 C37 31 87 -11 148 -11 C202 -11 262 17 315 67 C356 16 417 -11 490 -11 C570 -11 636 22 670 79 L633 99 Z M416 266 C418 335 445 376 488 376 C513 376 535 360 547 333 C553 319 556 304 557 266 L416 266 Z M286 96 C265 69 237 53 214 53 C184 53 161 79 161 112 C161 156 197 187 286 222 L286 96 Z " />
<glyph glyph-name="Oslashacute" unicode="&#x1fe;" horiz-adv-x="829" d="M722 650 L690 679 L636 618 C572 658 496 679 412 679 C199 679 45 534 45 333 C45 229 86 137 160 72 L111 15 L144 -13 L195 45 C262 6 332 -13 416 -13 C631 -13 784 130 784 331 C784 434 744 525 671 591 L722 650 Z M588 496 C603 443 610 392 610 327 C610 134 546 38 417 38 C350 38 299 66 262 121 L588 496 Z M242 165 C227 213 219 273 219 342 C219 441 243 530 280 571 C313 608 362 628 415 628 C484 628 535 599 569 541 L242 165 Z M368 729 L401 729 L647 869 L647 877 L467 877 L368 729 Z " />
<glyph glyph-name="oslashacute" unicode="&#x1ff;" horiz-adv-x="544" d="M229 509 L262 509 L508 649 L508 657 L329 657 L229 509 Z M402 386 C359 409 318 419 270 419 C135 419 37 327 37 200 C37 136 60 81 104 43 L61 -7 L93 -35 L139 18 C183 -5 225 -16 274 -16 C410 -16 508 76 508 203 C508 270 486 318 437 362 L480 411 L448 439 L402 386 Z M181 131 C177 159 176 177 176 206 C176 327 203 375 272 375 C309 375 335 359 351 327 L181 131 Z M364 278 C368 251 369 230 369 200 C369 79 340 27 274 27 C237 27 211 44 193 81 L364 278 Z " />
<glyph glyph-name="Scommaaccent" unicode="&#x218;" horiz-adv-x="559" d="M56 10 L103 10 C108 34 114 52 123 67 C167 16 233 -13 304 -13 C428 -13 521 73 521 188 C521 240 501 289 466 325 C437 355 390 382 301 420 C201 464 167 496 167 547 C167 597 206 632 262 632 C336 632 396 574 421 478 L464 478 L464 667 L419 667 C414 639 412 634 400 617 C357 659 309 679 253 679 C142 679 57 598 57 492 C57 444 75 398 106 366 C137 333 176 310 278 262 C365 222 401 185 401 136 C401 79 353 37 289 37 C231 37 181 67 145 122 C128 149 115 182 103 233 L56 233 L56 10 Z M211 -327 C308 -318 371 -257 371 -171 C371 -104 335 -59 280 -59 C236 -59 205 -89 205 -130 C205 -166 232 -194 265 -194 C270 -194 276 -193 282 -192 C297 -188 297 -188 299 -188 C309 -188 316 -198 316 -210 C316 -247 272 -277 211 -284 L211 -327 Z " />
<glyph glyph-name="scommaaccent" unicode="&#x219;" horiz-adv-x="417" d="M41 -12 L77 -12 C82 2 89 12 97 20 C102 19 103 18 109 15 C142 -6 180 -16 222 -16 C317 -16 381 39 381 122 C381 159 368 188 340 217 C317 241 303 247 210 272 C155 287 126 308 126 335 C126 361 156 382 195 382 C252 382 301 346 318 291 L353 291 L353 414 L320 414 C313 401 307 392 301 386 C261 406 215 420 186 420 C105 420 40 363 40 293 C40 236 86 188 165 164 C247 138 248 138 270 120 C282 111 289 96 289 81 C289 48 256 25 208 25 C147 25 100 60 80 122 L41 122 L41 -12 Z M140 -303 C229 -295 286 -239 286 -161 C286 -100 253 -59 204 -59 C164 -59 135 -86 135 -124 C135 -156 159 -182 190 -182 C196 -182 199 -181 213 -178 C217 -176 219 -176 221 -176 C229 -176 236 -185 236 -197 C236 -230 195 -258 140 -264 L140 -303 Z " />
<glyph glyph-name="uni021A" unicode="&#x21a;" horiz-adv-x="693" d="M59 487 C79 599 100 620 200 620 L271 620 L271 149 C271 68 252 43 189 44 L167 44 L167 0 L523 0 L523 44 L501 44 C438 43 419 68 419 149 L419 620 L493 620 C584 620 608 598 633 487 L677 487 L676 667 L16 667 L15 487 L59 487 Z M271 -327 C368 -318 431 -257 431 -171 C431 -104 395 -59 340 -59 C296 -59 265 -89 265 -130 C265 -166 292 -194 325 -194 C330 -194 336 -193 342 -192 C357 -188 357 -188 359 -188 C369 -188 376 -198 376 -210 C376 -247 332 -277 271 -284 L271 -327 Z " />
<glyph glyph-name="uni021B" unicode="&#x21b;" horiz-adv-x="337" d="M325 359 L325 403 L204 403 L204 534 L164 534 C152 457 95 402 25 402 C25 402 21 402 16 403 L16 359 L75 359 L75 127 C75 33 118 -16 200 -16 C266 -16 318 16 340 68 L303 82 C287 53 271 41 248 41 C233 41 221 47 214 61 C205 76 204 87 204 139 L204 359 L325 359 Z M112 -303 C201 -295 258 -239 258 -161 C258 -100 225 -59 176 -59 C136 -59 107 -86 107 -124 C107 -156 131 -182 162 -182 C168 -182 171 -181 185 -178 C189 -176 191 -176 193 -176 C201 -176 208 -185 208 -197 C208 -230 167 -258 112 -264 L112 -303 Z " />
<glyph glyph-name="uni0226" unicode="&#x226;" horiz-adv-x="657" d="M671 0 L671 44 L666 44 C617 50 603 65 564 157 L350 678 L306 678 L101 170 C69 87 38 51 -6 44 L-13 44 L-13 0 L200 0 L200 44 L192 44 C155 44 129 63 129 91 C129 107 133 122 153 170 L166 202 L387 202 L417 128 C428 101 435 81 435 74 C435 53 414 44 370 44 L363 44 L363 0 L671 0 Z M369 247 L183 247 L275 475 L369 247 Z M325 862 C287 862 257 832 257 794 C257 757 288 726 324 726 C363 726 393 756 393 794 C393 832 363 862 325 862 L325 862 Z " />
<glyph glyph-name="uni0227" unicode="&#x227;" horiz-adv-x="534" d="M260 661 C222 661 192 631 192 593 C192 556 223 525 259 525 C298 525 328 555 328 593 C328 631 298 661 260 661 L260 661 Z M496 84 C492 62 480 49 464 49 C443 49 436 65 436 108 L436 287 C436 337 431 353 410 375 C382 405 334 419 262 419 C143 419 53 375 53 316 C53 290 74 272 103 272 C135 272 154 288 160 323 C163 341 168 353 174 359 C185 368 208 375 231 375 C254 375 277 368 289 358 C302 349 307 330 307 298 L307 267 L267 252 C248 244 233 238 224 235 C154 208 101 178 67 149 C50 134 38 105 38 80 C38 26 83 -10 150 -10 C203 -10 259 10 313 49 C330 10 366 -10 417 -10 C485 -10 526 25 529 84 L496 84 Z M307 223 L307 93 C276 65 246 50 220 50 C190 50 166 75 166 107 C166 151 202 181 301 221 L307 223 Z " />
<glyph glyph-name="uni0237" unicode="&#x237;" horiz-adv-x="294" d="M236 419 L229 419 C188 410 131 400 29 385 L29 343 L43 343 C93 343 107 325 107 263 L107 -58 C107 -133 105 -152 92 -175 C82 -192 65 -203 48 -203 C32 -203 18 -193 12 -178 C-2 -141 -16 -129 -43 -129 C-72 -129 -94 -151 -94 -179 C-94 -220 -47 -248 23 -248 C105 -248 180 -211 212 -155 C231 -121 236 -89 236 7 L236 419 Z " />
<glyph glyph-name="afii57929" unicode="&#x2bc;" horiz-adv-x="307" d="M71 355 C175 363 244 437 244 541 C244 622 204 675 142 675 C97 675 64 643 64 598 C64 558 94 527 132 527 C138 527 145 528 152 530 C159 532 164 533 168 533 C178 533 186 521 186 506 C186 453 139 411 71 403 L71 355 Z " />
<glyph glyph-name="circumflex" unicode="&#x2c6;" horiz-adv-x="500" d="M355 489 L390 489 L304 652 L199 652 L110 489 L143 489 L247 578 L355 489 Z " />
<glyph glyph-name="caron" unicode="&#x2c7;" horiz-adv-x="500" d="M143 655 L110 655 L201 491 L305 491 L390 655 L355 655 L256 566 L143 655 Z " />
<glyph glyph-name="uni02C9" unicode="&#x2c9;" horiz-adv-x="373" d="M33 541 L340 541 L340 590 L33 590 L33 541 Z " />
<glyph glyph-name="breve" unicode="&#x2d8;" horiz-adv-x="500" d="M104 648 L104 645 C104 608 120 566 148 535 C174 504 207 489 247 489 C325 489 385 556 389 648 L362 648 C344 596 307 571 249 571 C188 571 148 598 132 648 L104 648 Z " />
<glyph glyph-name="dotaccent" unicode="&#x2d9;" horiz-adv-x="500" d="M250 633 C217 633 190 606 190 573 C190 540 217 513 249 513 C283 513 310 539 310 573 C310 606 283 633 250 633 L250 633 Z " />
<glyph glyph-name="ring" unicode="&#x2da;" horiz-adv-x="500" d="M248 682 C189 682 141 634 141 575 C141 518 189 469 246 469 C306 469 354 516 354 576 C354 634 306 682 248 682 L248 682 Z M247 643 C285 643 315 613 315 576 C315 538 284 508 247 508 C210 508 180 538 180 576 C180 613 211 643 247 643 L247 643 Z " />
<glyph glyph-name="ogonek" unicode="&#x2db;" horiz-adv-x="500" d="M335 8 C271 -20 238 -59 238 -107 C238 -156 281 -192 339 -192 C372 -192 397 -183 433 -158 L421 -137 C405 -145 396 -148 383 -148 C347 -148 319 -120 319 -83 C319 -49 331 -25 363 8 L335 8 Z " />
<glyph glyph-name="tilde" unicode="&#x2dc;" horiz-adv-x="500" d="M123 503 C129 535 143 550 167 550 C183 550 199 544 234 526 C267 509 286 503 307 503 C345 503 373 523 390 560 C397 576 400 592 402 635 L372 635 C370 600 354 582 326 582 C313 582 301 586 279 598 C235 621 213 629 187 629 C157 629 125 611 112 587 C99 564 94 540 94 503 L123 503 Z " />
<glyph glyph-name="hungarumlaut" unicode="&#x2dd;" horiz-adv-x="500" d="M116 488 L150 488 L323 642 L323 649 L196 649 L116 488 Z M290 488 L324 488 L497 642 L497 649 L370 649 L290 488 Z " />
<glyph glyph-name="pi" unicode="&#x3c0;" horiz-adv-x="628" d="M496 326 L569 326 C578 362 583 381 589 396 L607 440 C608 443 611 450 614 462 L576 462 C554 404 550 403 413 403 L184 403 C109 405 99 400 59 348 L32 309 C31 307 26 301 20 292 L52 276 C89 317 102 325 133 326 L171 326 L171 109 C171 77 153 54 128 54 C115 54 107 59 88 77 C87 78 82 83 77 87 L50 55 C103 0 132 -17 176 -17 C197 -17 217 -10 232 2 C255 21 263 43 263 92 L263 326 L367 326 L367 106 C366 34 368 9 372 -16 L378 -16 C409 -7 501 1 561 0 L561 42 L557 42 C510 43 498 59 496 125 L496 326 Z " />
<glyph glyph-name="uni1E1E" unicode="&#x1e1e;" horiz-adv-x="585" d="M572 667 L28 667 L28 624 L40 624 C105 625 122 605 123 521 L123 149 C123 68 105 44 41 44 L28 44 L28 0 L371 0 L371 44 L354 44 C292 42 270 69 271 149 L271 326 L327 326 C388 325 402 310 407 237 L407 230 L452 230 L452 461 L407 461 L407 454 C402 388 388 374 327 373 L271 373 L271 621 L387 621 C473 624 507 595 532 494 L577 494 L572 667 Z M303 862 C265 862 235 832 235 794 C235 757 266 726 302 726 C341 726 371 756 371 794 C371 832 341 862 303 862 L303 862 Z " />
<glyph glyph-name="Wgrave" unicode="&#x1e80;" horiz-adv-x="941" d="M708 -14 L846 472 C880 592 898 619 944 623 L952 623 L952 667 L749 667 L749 623 L754 623 C791 623 816 601 816 567 C816 554 811 527 803 500 L720 201 L542 667 L482 667 L330 201 L228 529 C221 554 216 577 216 588 C216 610 234 622 271 623 L276 623 L276 667 L-10 667 L-10 623 L-4 623 C45 621 54 610 85 511 L247 -14 L307 -14 L466 468 L650 -14 L708 -14 Z M520 729 L553 729 L453 877 L273 877 L273 869 L520 729 Z " />
<glyph glyph-name="wgrave" unicode="&#x1e81;" horiz-adv-x="751" d="M407 540 L440 540 L340 688 L161 688 L161 680 L407 540 Z M561 -11 L676 271 C706 347 715 358 753 361 L755 361 L755 403 L595 403 L595 361 L601 361 C632 360 650 351 650 335 C650 329 649 328 640 304 L570 124 L450 403 L387 403 L267 124 L198 297 C189 321 184 335 184 340 C184 354 200 361 231 361 L236 361 L236 403 L-5 403 L-5 361 L0 361 C34 359 40 353 67 291 L192 -11 L257 -11 L375 268 L496 -11 L561 -11 Z " />
<glyph glyph-name="Wacute" unicode="&#x1e82;" horiz-adv-x="751" d="M407 540 L440 540 L340 688 L161 688 L161 680 L407 540 Z M561 -11 L676 271 C706 347 715 358 753 361 L755 361 L755 403 L595 403 L595 361 L601 361 C632 360 650 351 650 335 C650 329 649 328 640 304 L570 124 L450 403 L387 403 L267 124 L198 297 C189 321 184 335 184 340 C184 354 200 361 231 361 L236 361 L236 403 L-5 403 L-5 361 L0 361 C34 359 40 353 67 291 L192 -11 L257 -11 L375 268 L496 -11 L561 -11 Z " />
<glyph glyph-name="wacute" unicode="&#x1e83;" horiz-adv-x="751" d="M561 -11 L676 271 C706 347 715 358 753 361 L755 361 L755 403 L595 403 L595 361 L601 361 C632 360 650 351 650 335 C650 329 649 328 640 304 L570 124 L450 403 L387 403 L267 124 L198 297 C189 321 184 335 184 340 C184 354 200 361 231 361 L236 361 L236 403 L-5 403 L-5 361 L0 361 C34 359 40 353 67 291 L192 -11 L257 -11 L375 268 L496 -11 L561 -11 Z M380 488 L413 488 L612 642 L612 649 L460 649 L380 488 Z " />
<glyph glyph-name="Wdieresis" unicode="&#x1e84;" horiz-adv-x="941" d="M708 -14 L846 472 C880 592 898 619 944 623 L952 623 L952 667 L749 667 L749 623 L754 623 C791 623 816 601 816 567 C816 554 811 527 803 500 L720 201 L542 667 L482 667 L330 201 L228 529 C221 554 216 577 216 588 C216 610 234 622 271 623 L276 623 L276 667 L-10 667 L-10 623 L-4 623 C45 621 54 610 85 511 L247 -14 L307 -14 L466 468 L650 -14 L708 -14 Z M378 862 C340 862 310 832 310 794 C310 757 341 726 377 726 C416 726 446 756 446 794 C446 832 416 862 378 862 L378 862 Z M652 862 C615 862 584 832 584 795 C584 756 614 726 652 726 C690 726 720 757 720 794 C720 832 690 862 652 862 L652 862 Z " />
<glyph glyph-name="wdieresis" unicode="&#x1e85;" horiz-adv-x="751" d="M561 -11 L676 271 C706 347 715 358 753 361 L755 361 L755 403 L595 403 L595 361 L601 361 C632 360 650 351 650 335 C650 329 649 328 640 304 L570 124 L450 403 L387 403 L267 124 L198 297 C189 321 184 335 184 340 C184 354 200 361 231 361 L236 361 L236 403 L-5 403 L-5 361 L0 361 C34 359 40 353 67 291 L192 -11 L257 -11 L375 268 L496 -11 L561 -11 Z M313 633 C280 633 253 606 253 573 C253 540 280 513 312 513 C346 513 373 539 373 573 C373 606 346 633 313 633 L313 633 Z M512 633 C479 633 452 606 452 573 C452 540 479 513 511 513 C545 513 572 540 572 573 C572 606 545 633 512 633 L512 633 Z " />
<glyph glyph-name="Ygrave" unicode="&#x1ef2;" horiz-adv-x="662" d="M-13 667 L-13 623 L-7 623 C44 616 51 610 101 526 L256 267 L256 149 C256 68 238 44 175 44 L164 44 L164 0 L497 0 L497 44 L487 44 C423 44 405 68 405 149 L405 277 L549 512 C597 592 625 618 669 623 L674 623 L674 667 L449 667 L449 623 L454 623 C496 623 519 606 519 576 C519 561 512 541 496 515 L386 332 L260 541 C243 568 238 581 238 592 C238 613 257 623 295 623 L300 623 L300 667 L-13 667 Z M389 729 L422 729 L322 877 L143 877 L143 869 L389 729 Z " />
<glyph glyph-name="ygrave" unicode="&#x1ef3;" horiz-adv-x="503" d="M283 529 L316 529 L216 676 L37 676 L37 669 L283 529 Z M-6 403 L-6 361 L2 360 C30 358 40 347 68 293 L234 -15 L214 -65 C194 -107 180 -117 118 -135 C76 -147 57 -166 57 -196 C57 -227 82 -250 116 -250 C162 -250 193 -218 234 -128 L407 251 C444 335 460 355 493 360 L500 361 L500 403 L345 403 L345 361 L353 361 C377 361 391 352 391 337 C391 327 389 323 373 286 L298 118 L204 301 C197 313 193 328 193 338 C193 353 201 359 222 361 L229 361 L229 403 L-6 403 Z " />
<glyph glyph-name="uni2011" unicode="&#x2011;" horiz-adv-x="335" d="M32 247 L32 182 L306 182 L306 247 L32 247 Z " />
<glyph glyph-name="figuredash" unicode="&#x2012;" horiz-adv-x="555" d="M20 243 L20 193 L535 193 L535 243 L20 243 Z " />
<glyph glyph-name="endash" unicode="&#x2013;" horiz-adv-x="555" d="M20 243 L20 193 L535 193 L535 243 L20 243 Z " />
<glyph glyph-name="emdash" unicode="&#x2014;" horiz-adv-x="876" d="M20 243 L20 193 L856 193 L856 243 L20 243 Z " />
<glyph glyph-name="afii00208" unicode="&#x2015;" horiz-adv-x="876" d="M20 243 L20 193 L856 193 L856 243 L20 243 Z " />
<glyph glyph-name="underscoredbl" unicode="&#x2017;" horiz-adv-x="500" d="M0 -58 L0 -105 L500 -105 L500 -58 L0 -58 Z M0 -174 L0 -222 L500 -222 L500 -174 L0 -174 Z " />
<glyph glyph-name="quoteleft" unicode="&#x2018;" horiz-adv-x="307" d="M239 675 C134 667 66 594 66 490 C66 409 106 355 168 355 C213 355 246 387 246 432 C246 472 216 503 178 503 C172 503 165 502 158 500 C151 498 146 497 142 497 C132 497 124 509 124 524 C124 577 172 619 239 627 L239 675 Z " />
<glyph glyph-name="quoteright" unicode="&#x2019;" horiz-adv-x="276" d="M55 355 C159 363 228 437 228 541 C228 622 188 675 126 675 C81 675 48 643 48 598 C48 558 78 527 116 527 C122 527 129 528 136 530 C143 532 148 533 152 533 C162 533 170 521 170 506 C170 453 123 411 55 403 L55 355 Z " />
<glyph glyph-name="quotesinglbase" unicode="&#x201a;" horiz-adv-x="307" d="M71 -186 C175 -179 244 -105 244 -1 C244 80 204 133 142 133 C97 133 64 101 64 56 C64 16 94 -15 132 -15 C138 -15 145 -14 152 -12 C159 -10 164 -9 168 -9 C178 -9 186 -21 186 -36 C186 -89 139 -130 71 -139 L71 -186 Z " />
<glyph glyph-name="quotereversed" unicode="&#x201b;" horiz-adv-x="503" d="M283 529 L316 529 L216 676 L37 676 L37 669 L283 529 Z M-6 403 L-6 361 L2 360 C30 358 40 347 68 293 L234 -15 L214 -65 C194 -107 180 -117 118 -135 C76 -147 57 -166 57 -196 C57 -227 82 -250 116 -250 C162 -250 193 -218 234 -128 L407 251 C444 335 460 355 493 360 L500 361 L500 403 L345 403 L345 361 L353 361 C377 361 391 352 391 337 C391 327 389 323 373 286 L298 118 L204 301 C197 313 193 328 193 338 C193 353 201 359 222 361 L229 361 L229 403 L-6 403 Z " />
<glyph glyph-name="quotedblleft" unicode="&#x201c;" horiz-adv-x="552" d="M235 675 C130 667 62 594 62 490 C62 409 102 355 164 355 C209 355 242 387 242 432 C242 472 212 503 174 503 C168 503 161 502 154 500 C147 498 142 497 138 497 C128 497 120 509 120 524 C120 577 168 619 235 627 L235 675 Z M489 675 C384 667 316 594 316 490 C316 409 356 355 418 355 C463 355 496 387 496 432 C496 472 466 503 428 503 C422 503 415 502 408 500 C401 498 396 497 392 497 C382 497 374 509 374 525 C374 577 422 619 489 627 L489 675 Z " />
<glyph glyph-name="quotedblright" unicode="&#x201d;" horiz-adv-x="552" d="M61 355 C165 363 234 437 234 541 C234 622 194 675 132 675 C87 675 54 643 54 598 C54 558 84 527 122 527 C128 527 135 528 142 530 C149 532 154 533 158 533 C168 533 176 521 176 506 C176 453 129 411 61 403 L61 355 Z M317 355 C421 363 490 436 490 540 C490 622 450 675 388 675 C343 675 310 643 310 598 C310 558 340 527 378 527 C384 527 391 528 398 530 C405 532 410 533 414 533 C424 533 432 521 432 506 C432 453 385 411 317 403 L317 355 Z " />
<glyph glyph-name="quotedblbase" unicode="&#x201e;" horiz-adv-x="552" d="M58 -186 C162 -178 231 -105 231 -1 C231 79 191 133 130 133 C84 133 51 101 51 56 C51 18 81 -15 116 -15 C123 -15 134 -13 148 -9 C151 -8 154 -8 156 -8 C166 -8 173 -19 173 -34 C173 -89 127 -131 58 -139 L58 -186 Z M314 -186 C419 -178 487 -105 487 -1 C487 80 447 133 385 133 C340 133 307 101 307 56 C307 17 337 -15 373 -15 C379 -15 387 -14 395 -12 C408 -8 408 -8 411 -8 C422 -8 429 -19 429 -35 C429 -89 382 -131 314 -139 L314 -186 Z " />
<glyph glyph-name="dagger" unicode="&#x2020;" horiz-adv-x="500" d="M275 -243 L275 -118 C274 -83 283 99 286 119 C296 225 296 226 296 254 C296 297 290 345 282 365 C278 373 278 375 278 388 C295 385 310 381 324 375 C378 353 392 349 417 349 C451 349 475 375 475 411 C475 447 451 473 418 473 C400 473 373 466 346 454 C308 438 296 434 275 433 L279 447 L286 469 L293 492 C295 499 297 505 299 511 C313 554 318 579 318 600 C318 645 292 675 253 675 C214 675 188 645 188 600 C188 579 193 554 207 511 C209 505 212 497 213 492 L220 469 L227 447 L231 433 C210 434 198 438 160 454 C133 466 106 473 88 473 C55 473 31 447 31 411 C31 375 55 349 89 349 C108 349 133 355 157 365 C197 382 202 384 228 388 C228 375 228 373 224 365 C216 345 210 297 210 254 C210 235 211 211 214 183 C224 76 229 -10 231 -118 L231 -243 L275 -243 Z " />
<glyph glyph-name="daggerdbl" unicode="&#x2021;" horiz-adv-x="514" d="M285 255 C286 265 287 272 289 279 C295 306 299 331 299 349 C299 375 293 397 280 427 C302 421 321 415 333 411 C383 391 396 388 418 388 C453 388 477 414 477 450 C477 488 452 512 413 512 C395 512 374 507 343 494 C309 480 298 477 280 473 C283 491 288 507 297 534 C316 585 318 594 318 619 C318 653 293 677 258 677 C219 677 195 653 195 615 C195 595 200 574 214 541 C226 509 233 486 235 473 C220 475 205 480 187 487 C130 509 120 512 94 512 C61 512 36 485 36 450 C36 415 61 388 93 388 C111 388 135 394 161 403 C195 417 213 422 235 427 C221 393 216 370 216 349 C216 337 218 324 222 307 C229 279 229 277 231 255 L285 255 Z M231 178 C229 156 227 138 223 117 C218 95 216 80 216 73 C216 53 221 34 235 5 C222 7 204 12 180 21 C127 41 117 44 93 44 C61 44 36 17 36 -18 C36 -54 61 -79 97 -79 C116 -79 137 -73 182 -56 C205 -47 223 -42 235 -40 C233 -54 226 -76 213 -111 C200 -142 195 -162 195 -181 C195 -220 220 -245 259 -245 C295 -245 319 -221 319 -186 C319 -167 315 -144 307 -122 C289 -74 286 -66 281 -40 C294 -42 316 -50 349 -62 C374 -73 400 -79 417 -79 C452 -79 477 -52 477 -16 C477 19 452 45 419 45 C403 45 380 40 357 31 C327 19 317 16 281 5 C294 31 299 51 299 73 C299 83 297 96 294 114 C288 139 286 154 285 178 L231 178 Z " />
<glyph glyph-name="bullet" unicode="&#x2022;" horiz-adv-x="667" d="M334 479 C259 479 196 416 196 342 C196 263 257 200 334 200 C409 200 471 263 471 340 C471 417 410 479 334 479 L334 479 Z " />
<glyph glyph-name="ellipsis" unicode="&#x2026;" horiz-adv-x="1007" d="M169 137 C125 137 91 103 91 60 C91 17 126 -17 168 -17 C211 -17 245 17 245 60 C245 102 210 137 169 137 L169 137 Z M503 137 C459 137 425 103 425 60 C425 17 460 -17 502 -17 C545 -17 579 17 579 60 C579 102 544 137 503 137 L503 137 Z M836 137 C793 137 758 103 758 61 C758 17 792 -17 835 -17 C878 -17 912 17 912 60 C912 102 877 137 836 137 L836 137 Z " />
<glyph glyph-name="perthousand" unicode="&#x2030;" horiz-adv-x="1102" d="M183 679 C144 679 110 667 86 644 C53 612 32 559 32 505 C32 401 89 334 178 334 C220 334 254 346 279 369 C311 399 331 453 331 507 C331 556 315 604 289 635 C263 665 229 679 183 679 L183 679 Z M182 646 C219 646 235 605 235 508 C235 412 218 368 182 368 C143 368 128 405 128 502 C128 606 143 646 182 646 L182 646 Z M235 0 L577 660 L520 660 L177 0 L235 0 Z M574 333 C535 333 501 321 477 298 C444 266 423 213 423 159 C423 53 480 -12 571 -12 C663 -12 722 56 722 161 C722 210 706 258 680 289 C654 319 620 333 574 333 L574 333 Z M573 300 C610 300 626 259 626 162 C626 66 609 22 573 22 C534 22 519 59 519 156 C519 261 534 300 573 300 L573 300 Z M922 333 C883 333 849 321 825 298 C792 266 771 213 771 159 C771 53 828 -12 919 -12 C959 -12 994 0 1018 23 C1050 53 1070 107 1070 162 C1070 210 1054 258 1028 289 C1002 319 968 333 922 333 L922 333 Z M921 300 C958 300 974 259 974 162 C974 66 957 22 921 22 C882 22 867 60 867 154 C867 260 882 300 921 300 L921 300 Z " />
<glyph glyph-name="guilsinglleft" unicode="&#x2039;" horiz-adv-x="294" d="M27 216 L218 8 L264 8 L174 216 L264 423 L217 423 L27 216 Z " />
<glyph glyph-name="guilsinglright" unicode="&#x203a;" horiz-adv-x="294" d="M263 216 L73 423 L26 423 L116 216 L26 8 L72 8 L263 216 Z " />
<glyph glyph-name="uni203E" unicode="&#x203e;" horiz-adv-x="500" d="M0 864 L0 796 L500 796 L500 864 L0 864 Z " />
<glyph glyph-name="fraction" unicode="&#x2044;" horiz-adv-x="163" d="M-62 0 L281 660 L224 660 L-119 0 L-62 0 Z " />
<glyph glyph-name="franc" unicode="&#x20a3;" horiz-adv-x="822" d="M572 667 L28 667 L28 624 L40 624 C105 625 122 605 123 521 L123 149 C123 68 105 44 41 44 L28 44 L28 0 L371 0 L371 44 L354 44 C292 42 270 69 271 149 L271 326 L327 326 C388 325 402 310 407 237 L407 230 L452 230 L452 461 L407 461 L407 454 C402 388 388 374 327 373 L271 373 L271 621 L387 621 C473 624 507 595 532 494 L577 494 L572 667 Z M480 293 L485 293 C526 292 536 279 538 222 L538 108 C536 49 528 37 486 37 L480 37 L480 0 L714 0 L714 37 L704 37 C662 37 652 50 650 108 L650 154 C650 209 655 233 672 262 C684 283 700 294 716 294 C727 294 735 289 745 276 C763 252 771 246 789 246 C815 246 835 267 835 297 C835 335 805 363 766 363 C718 363 672 329 645 274 C644 311 640 340 632 362 C577 349 516 336 480 329 L480 293 Z " />
<glyph glyph-name="lira" unicode="&#x20a4;" horiz-adv-x="719" d="M205 312 C202 298 202 297 200 288 L199 281 L194 257 L44 257 L28 198 L180 198 C163 128 150 87 134 44 C57 -5 25 -40 25 -77 C25 -101 49 -121 78 -121 C93 -121 107 -113 122 -97 C130 -88 158 -39 171 -13 L177 1 L179 5 C191 11 199 13 208 13 C231 13 251 0 296 -42 C359 -102 397 -121 453 -121 C559 -121 660 -28 660 69 C660 109 635 138 601 138 C575 138 555 119 555 94 C555 82 558 68 564 55 C579 22 580 18 580 5 C580 -25 549 -52 515 -52 C484 -52 454 -34 402 15 C352 62 311 83 267 83 C249 83 234 80 212 71 C248 127 265 158 283 198 L460 198 L475 257 L308 257 C319 282 323 293 329 312 L487 312 L502 371 L347 371 C359 414 368 450 376 487 C402 609 409 634 428 669 C450 712 480 733 517 733 C548 733 567 721 587 691 C612 654 622 646 646 646 C673 646 695 668 695 695 C695 743 630 781 548 781 C386 781 278 648 219 377 L218 371 L75 371 L59 312 L205 312 Z " />
<glyph glyph-name="peseta" unicode="&#x20a7;" horiz-adv-x="1098" d="M28 667 L28 623 L43 623 C109 624 125 604 126 521 L126 148 C126 68 108 44 45 44 L31 44 L31 0 L373 0 L373 44 L355 44 C292 44 274 68 274 148 L274 301 L352 301 C426 301 473 308 513 325 C578 354 617 414 617 487 C617 552 585 608 531 636 C478 665 432 673 331 673 C283 673 219 672 152 670 C107 669 75 668 62 668 L28 667 Z M274 349 L274 625 L299 625 C351 625 376 620 400 607 C436 587 457 541 457 484 C457 428 437 385 403 366 C379 353 357 349 311 349 L274 349 Z M794 292 L794 327 L696 327 L696 433 L664 433 C654 370 608 326 552 326 C552 326 548 326 544 327 L544 292 L592 292 L592 104 C592 28 626 -11 693 -11 C746 -11 788 14 806 57 L776 68 C763 44 751 35 732 35 C704 35 696 52 696 114 L696 292 L794 292 Z M824 -8 L853 -8 C857 3 862 12 869 18 C873 17 874 17 878 14 C906 -3 936 -11 969 -11 C1047 -11 1098 33 1098 100 C1098 130 1088 153 1065 176 C1047 195 1036 200 960 220 C915 232 892 250 892 271 C892 292 916 309 947 309 C993 309 1032 281 1047 236 L1075 236 L1075 336 L1048 336 C1043 325 1038 318 1033 313 C1002 329 964 340 940 340 C875 340 823 294 823 237 C823 191 860 154 924 134 C990 113 991 113 1009 99 C1018 91 1024 79 1024 68 C1024 41 997 22 959 22 C909 22 871 51 855 100 L824 100 L824 -8 Z " />
<glyph glyph-name="Euro" unicode="&#x20ac;" horiz-adv-x="753" d="M65 262 C96 94 224 -13 394 -13 C484 -13 563 19 617 76 C632 58 640 40 647 10 L690 10 L690 254 L647 254 C634 187 601 121 565 91 C525 58 475 40 427 40 C348 40 282 85 252 159 C241 187 234 220 231 262 L470 262 L489 308 L228 308 L228 335 L500 335 L519 381 L230 381 C239 544 305 628 422 628 C485 628 548 598 582 552 C610 515 628 472 641 412 L684 412 L678 661 L635 661 C629 634 622 614 612 593 C557 650 484 679 396 679 C222 679 89 560 64 381 L19 381 L0 335 L60 335 L60 332 L60 324 L60 308 L19 308 L0 262 L65 262 Z " />
<glyph glyph-name="uni2101" unicode="&#x2101;" horiz-adv-x="881" d="M410 260 L410 286 L407 286 C378 290 370 299 346 354 L218 667 L191 667 L68 362 C49 312 31 290 4 287 L0 286 L0 260 L128 260 L128 286 L123 286 C100 286 85 298 85 315 C85 324 87 331 99 362 L107 381 L240 381 L258 337 C265 320 269 309 269 304 C270 292 256 286 230 286 L226 286 L226 260 L410 260 Z M230 408 L117 408 L173 545 L230 408 Z M362 0 L704 660 L647 660 L304 0 L362 0 Z M569 6 L597 6 C600 21 604 32 609 41 C636 9 675 -8 718 -8 C792 -8 848 44 848 114 C848 145 836 174 815 195 C798 213 770 229 716 253 C656 279 636 298 636 329 C636 359 659 380 693 380 C737 380 774 344 788 287 L814 287 L814 400 L787 400 C784 383 783 381 776 370 C750 396 721 408 687 408 C621 408 570 359 570 295 C570 267 581 239 599 220 C617 201 641 187 702 158 C754 133 776 111 776 82 C776 47 747 22 709 22 C653 22 616 61 597 140 L569 140 L569 6 Z " />
<glyph glyph-name="afii61248" unicode="&#x2105;" horiz-adv-x="291" d="M144 329 C106 329 76 299 76 261 C76 224 107 193 143 193 C182 193 212 223 212 261 C212 299 182 329 144 329 L144 329 Z " />
<glyph glyph-name="afii61289" unicode="&#x2113;" horiz-adv-x="500" d="M249 269 C306 329 340 370 364 411 C402 475 425 545 425 598 C425 647 400 679 362 679 C317 679 278 638 247 559 C215 481 189 383 165 258 C155 246 125 214 115 206 C100 193 95 186 95 179 C95 171 102 163 109 163 C115 163 127 172 158 201 C149 119 148 102 148 74 C148 19 173 -14 215 -14 C243 -14 266 1 291 34 C307 56 317 79 317 94 C317 104 312 109 304 109 C296 109 291 105 285 91 C268 54 251 36 234 36 C222 36 216 44 216 61 C216 95 221 126 246 256 L249 269 Z M260 334 C281 449 302 541 321 594 C330 620 347 638 362 638 C376 638 385 620 385 593 C385 516 339 420 260 334 L260 334 Z " />
<glyph glyph-name="afii61352" unicode="&#x2116;" horiz-adv-x="1120" d="M665 -12 L665 513 C662 584 683 611 748 623 L756 623 L756 667 L516 667 L516 623 L524 623 C590 618 616 588 615 517 L615 221 L240 667 L24 667 L24 623 L29 623 C96 624 117 598 121 507 L121 162 C121 109 119 98 112 86 C99 62 63 44 29 44 L24 44 L24 0 L274 0 L274 44 L263 44 C226 44 190 65 177 93 C172 106 172 111 171 163 L171 522 L616 -12 L665 -12 Z M929 507 C828 507 756 437 756 338 C756 240 829 171 932 171 C1029 171 1101 243 1101 339 C1101 437 1029 507 929 507 L929 507 Z M929 464 C971 464 987 429 987 340 C987 248 971 214 928 214 C886 214 870 249 870 339 C870 430 886 464 929 464 L929 464 Z M1101 118 L756 118 L756 61 L1101 61 L1101 118 Z " />
<glyph glyph-name="uni2117" unicode="&#x2117;" horiz-adv-x="261" d="M131 729 C102 729 78 705 78 676 C78 646 101 622 130 622 C160 622 184 646 184 675 C184 705 160 729 131 729 L131 729 Z M177 548 L172 548 C151 543 74 529 34 525 L34 495 L42 495 C77 495 87 483 87 439 L87 342 C85 295 78 285 43 285 L34 285 L34 255 L224 255 L224 285 L220 285 C186 285 178 295 177 342 L177 548 Z " />
<glyph glyph-name="trademark" unicode="&#x2122;" horiz-adv-x="936" d="M365 565 L365 667 L14 667 L14 565 L33 565 C37 623 56 643 111 643 L140 643 L140 348 C140 312 134 307 101 305 L83 305 L83 287 L296 287 L296 305 L278 305 C244 307 239 312 239 348 L239 643 L268 643 C323 643 342 623 346 565 L365 565 Z M379 667 L379 649 C424 648 430 644 430 620 L430 347 C431 318 418 308 381 305 L381 287 L510 287 L510 305 C473 308 459 319 460 347 L460 613 L600 287 L616 287 L757 603 L757 347 C757 314 751 307 719 305 L704 305 L704 287 L904 287 L904 305 L890 305 C860 307 854 314 854 347 L854 607 C854 640 860 647 890 649 L906 649 L906 667 L755 667 L644 420 L539 667 L379 667 Z " />
<glyph glyph-name="uni2126" unicode="&#x2126;" horiz-adv-x="768" d="M326 0 L308 155 C230 199 180 288 180 382 C180 434 195 493 221 540 C257 605 317 642 385 642 C453 642 513 605 549 540 C575 493 590 434 590 382 C590 288 540 199 462 155 L444 0 L736 0 L736 153 L712 153 C704 108 684 90 643 90 L497 90 L500 128 C535 141 557 151 580 166 C657 215 702 296 702 382 C702 449 673 522 625 578 C564 648 480 686 385 686 C290 686 206 648 145 578 C97 522 68 449 68 382 C68 296 113 215 190 166 C213 151 235 141 270 128 L273 90 L127 90 C86 90 66 108 58 153 L34 153 L34 0 L326 0 Z " />
<glyph glyph-name="estimated" unicode="&#x212e;" horiz-adv-x="597" d="M574 244 C573 308 572 322 565 356 C543 461 456 529 341 529 C194 529 101 422 101 255 C101 88 191 -13 339 -13 C433 -13 503 25 542 98 C550 113 552 119 561 149 L504 149 C471 76 421 44 341 44 C298 44 262 56 238 78 C221 93 212 109 201 146 L201 244 L574 244 Z M488 292 L203 292 L203 377 C236 447 272 472 341 472 C395 472 433 455 467 415 C478 402 481 395 488 377 L488 292 Z " />
</font>
</svg>
