<?xml version="1.0" standalone="no"?>
<!DOCTYPE svg PUBLIC "-//W3C//DTD SVG 1.1//EN" "http://www.w3.org/Graphics/SVG/1.1/DTD/svg11.dtd" >
<svg xmlns="http://www.w3.org/2000/svg">
<metadata>
Created by FontPrep 20130207 at Wed Nov 23 14:29:09 2016
 By Tina Muller
Copyright (c) 2016 by Enrique Hernandez Vasquez. All rights reserved.
</metadata>
<defs>
<font id="4606260afedb945fb6a41e3e79be8065" horiz-adv-x='1024' >
  <font-face 
    font-family="IsidoraAlt-ThinIt"
    font-weight="250"
    font-style="italic"
    font-stretch="normal"
    units-per-em="2048"
    panose-1="0 0 3 0 0 0 0 0 0 0"
    ascent="1638"
    descent="-410"
    x-height="1024"
    cap-height="1331"
    bbox="-324 -717 2748 1759"
    underline-thickness="102"
    underline-position="-102"
    slope="-10"
    unicode-range="U+0020-FB02"
  />
<missing-glyph horiz-adv-x="1177" 
d="M784 -289h-391v-78h166l-166 -110v-78h391v78h-239l164 110h75v78zM707 -45v-111h-236v111h236zM784 33h-391v-266h391v266zM784 440h-235v-133h80v55h78v-110h-236v188h-78v-266h391v266zM784 727h-77v-156h-314v-79h391v235zM784 868h-391v-77h156v-89h-156v-75h236
v164h155v77zM549 1098v-86h-78v86h78zM629 1178h-236v-246h391v80h-155v166zM784 1481h-389v-78h154v-88h-156v-78h391v78h-155v88h155v78zM967 1638v-2355h-748v2355h748z" />
    <glyph glyph-name="fi" unicode="fi" horiz-adv-x="948" 
d="M885 1199q0 25 22 47t48 22t41 -16q16 -16 16 -43q0 -25 -24 -47t-50 -22t-39 17q-14 16 -14 42zM825 14q35 0 62 23l6 -2l10 -25l-2 -6q-37 -29 -83 -29t-70 33t-13 94l156 885h-457l-211 -1194q-12 -61 -46 -94t-81 -33t-71 29l-2 6l18 25l6 2q27 -23 57 -23
q61 0 78 88l211 1194h-176l6 37h176l7 37q63 356 331 356q72 0 140 -37v-6l-21 -26l-6 -2q-59 33 -119 32q-229 0 -285 -317l-6 -37h498l-162 -922q-16 -88 49 -88z" />
    <glyph glyph-name="fl" unicode="fl" horiz-adv-x="966" 
d="M844 14q33 0 61 23l6 -2l11 -25l-2 -6q-39 -29 -86 -29t-69 36t-11 91l200 1133q-4 63 -55 103t-141 40q-258 0 -312 -317l-6 -37h318l-6 -37h-318l-213 -1194q-12 -61 -46 -94t-81 -33t-71 29l-3 6l19 25l6 2q27 -23 57 -23q61 0 78 88l213 1194h-176l6 37h176l7 37
q31 182 125 269q95 87 221 87t191 -60q64 -60 50 -136l-198 -1119q-16 -88 49 -88z" />
    <glyph glyph-name=".notdef" horiz-adv-x="1177" 
d="M784 -289h-391v-78h166l-166 -110v-78h391v78h-239l164 110h75v78zM707 -45v-111h-236v111h236zM784 33h-391v-266h391v266zM784 440h-235v-133h80v55h78v-110h-236v188h-78v-266h391v266zM784 727h-77v-156h-314v-79h391v235zM784 868h-391v-77h156v-89h-156v-75h236
v164h155v77zM549 1098v-86h-78v86h78zM629 1178h-236v-246h391v80h-155v166zM784 1481h-389v-78h154v-88h-156v-78h391v78h-155v88h155v78zM967 1638v-2355h-748v2355h748z" />
    <glyph glyph-name=".null" horiz-adv-x="0" 
 />
    <glyph glyph-name="nonmarkingreturn" horiz-adv-x="681" 
 />
    <glyph glyph-name="space" unicode=" " horiz-adv-x="522" 
 />
    <glyph glyph-name="exclam" unicode="!" horiz-adv-x="387" 
d="M264 44q0 -26 -24 -48t-48 -21t-39 17t-15 42t22 47t48 21t41 -16t15 -42zM401 1327l7 4h41l2 -4l-201 -1114l-4 -4h-33l-4 4z" />
    <glyph glyph-name="quotedbl" unicode="&#x22;" horiz-adv-x="524" 
d="M502 879l67 452h54l-93 -452h-28zM305 879l68 452h53l-92 -452h-29z" />
    <glyph glyph-name="numbersign" unicode="#" horiz-adv-x="1075" 
d="M438 457h338l129 417h-336zM254 0l129 420h-233l12 37h233l131 417h-250l13 37h248l129 418h43l-129 -418h338l129 418h43l-129 -418h202l-12 -37h-203l-129 -417h213l-12 -37h-211l-129 -420h-43l129 420h-340l-129 -420h-43z" />
    <glyph glyph-name="dollar" unicode="$" horiz-adv-x="837" 
d="M627 1163q-119 0 -203 -69.5t-84 -175t162 -183.5q114 -46 183 -90.5t85 -66.5q49 -69 49 -140q0 -129 -97 -213t-253 -94l-27 -156h-41l27 154q-106 2 -184 51t-113 137l2 7l29 16h6q74 -172 272 -172q150 0 244 73.5t94 188.5q0 74 -45 124t-95 73.5t-97 46t-99.5 48.5
t-97.5 74t-45 122q0 119 91 198.5t226 85.5l27 150h41l-27 -150q80 -6 143.5 -49t96.5 -113l-2 -6l-29 -16h-6q-72 145 -233 145z" />
    <glyph glyph-name="percent" unicode="%" horiz-adv-x="1558" 
d="M1235 14q119 0 193 124t75 308q0 113 -54 185t-134 71q-117 0 -192 -124t-74 -310q0 -114 53 -184t133 -70zM1229 -25q-94 0 -157 80q-62 80 -62 209q0 205 90 341t223 136q91 0 155 -81t64 -211q0 -203 -91 -339t-222 -135zM481 629q119 0 194 124t75 308q0 113 -54 185
t-135 71q-117 0 -191 -125t-75 -309q0 -113 53 -183t133 -71zM1530 1331v-6l-1219 -1325h-43l-2 4l1223 1327h41zM475 590q-92 0 -156 81q-63 81 -63 210q0 205 91 340t222 135q91 0 155 -81t64 -212q0 -203 -90 -338t-223 -135z" />
    <glyph glyph-name="ampersand" unicode="&#x26;" horiz-adv-x="1169" 
d="M213 360q0 -143 110 -241q109 -99 277 -99t297 97l-289 512l-73 145q-104 -34 -204 -130q-52 -50 -85 -124t-33 -160zM166 354q0 212 188 363q84 68 162 96q-57 129 -57 222t47 167t126 114t171 40q184 0 274 -135v-7l-35 -24h-6q-80 121 -241 121q-117 0 -204 -76
t-85 -197q0 -74 33 -156t108 -227l287 -505q135 129 135 315q0 119 -53 194v7l31 22h6q63 -94 63 -227q0 -211 -160 -352q55 -92 111 -93q37 0 59 17l4 -2l7 -33q-22 -22 -71 -22q-50 -1 -82 25t-64 79q-140 -104 -326 -104t-307 109q-121 110 -121 269z" />
    <glyph glyph-name="quotesingle" unicode="'" horiz-adv-x="327" 
d="M305 879l68 452h53l-92 -452h-29z" />
    <glyph glyph-name="parenleft" unicode="(" horiz-adv-x="481" 
d="M225 369q0 -387 168 -668h-53q-156 291 -156 670q0 557 463 1075h53q-475 -499 -475 -1077z" />
    <glyph glyph-name="parenright" unicode=")" horiz-adv-x="481" 
d="M502 776q0 -557 -465 -1075h-53q475 498 475 1077q0 392 -168 668h53q158 -289 158 -670z" />
    <glyph glyph-name="asterisk" unicode="*" horiz-adv-x="890" 
d="M668 1372h41l-60 -334l305 168l15 -37l-305 -165l245 -168l-26 -35l-246 166l-59 -334h-41l59 334l-305 -166l-15 35l306 168l-248 165l28 35l246 -166z" />
    <glyph glyph-name="plus" unicode="+" horiz-adv-x="1075" 
d="M1102 633l-6 -37h-432l-76 -432h-41l76 432h-435l7 37h436l76 432h41l-76 -432h430z" />
    <glyph glyph-name="comma" unicode="," horiz-adv-x="403" 
d="M207 102q63 0 63 -71q0 -35 -51 -126t-133 -169h-4l-19 18v4q57 61 97 129q39 68 39 88q-25 3 -41 19t-16 43t18 46t47 19z" />
    <glyph glyph-name="hyphen" unicode="-" horiz-adv-x="954" 
d="M254 633h668l-7 -37h-667z" />
    <glyph glyph-name="period" unicode="." horiz-adv-x="387" 
d="M264 44q0 -26 -24 -48t-48 -21t-39 17t-15 42t22 48t48 20q26 0 41 -16t15 -42z" />
    <glyph glyph-name="slash" unicode="/" horiz-adv-x="935" 
d="M1092 1442h38l5 -6l-1057 -1545h-39l-4 7z" />
    <glyph glyph-name="zero" unicode="0" horiz-adv-x="1138" 
d="M769 1315q-163 0 -285 -124q-228 -232 -228 -693q0 -215 93 -348q93 -134 235 -134t244 71q186 128 258 451q32 142 32 298q0 215 -93 347t-256 132zM802 1356q154 0 256 -142t103 -374q0 -343 -140 -594q-69 -123 -181 -197t-268 -74q-154 1 -256 143t-103 374
q0 168 36 319q81 338 285 471q114 74 268 74z" />
    <glyph glyph-name="one" unicode="1" horiz-adv-x="516" 
d="M266 1331h266l-235 -1331h-43l227 1292h-231l-2 4z" />
    <glyph glyph-name="two" unicode="2" horiz-adv-x="993" 
d="M700 1356q150 0 242 -78t92 -215t-110 -295q-96 -135 -477 -459q-214 -182 -312 -270h770l-6 -39h-827l6 39q206 186 461 407t342 336q108 146 108 271t-82 193t-223 69q-82 0 -179 -45t-171 -117h-4l-25 25l2 6q77 78 183 125t210 47z" />
    <glyph glyph-name="three" unicode="3" horiz-adv-x="972" 
d="M995 1085q0 -125 -83 -222t-205 -138q163 -45 213 -193q16 -49 16 -106q0 -195 -133 -323t-332 -128q-97 -1 -201 47t-172 123v7l29 24h6q61 -72 157 -116t187 -44q176 0 295 114t119 290q0 133 -92 209t-242 76h-72l7 36h86q136 -1 254 97t118 241q0 106 -76 171
t-198 65q-156 0 -299 -139h-6l-23 22l2 6q168 152 346 152t259 -128q40 -62 40 -143z" />
    <glyph glyph-name="four" unicode="4" horiz-adv-x="1009" 
d="M162 410h649l147 831zM1016 1331l-164 -921h149l-6 -39h-149l-66 -371h-41l66 371h-703l7 39l882 921h25z" />
    <glyph glyph-name="five" unicode="5" horiz-adv-x="1019" 
d="M641 848q175 0 277 -100t102 -261q0 -215 -156 -363t-370 -149q-96 1 -198 47t-171 121l2 7l29 24h6q59 -70 153 -114t183 -44q195 0 336 136t141 327q0 143 -92 235t-252 93q-93 0 -191 -47t-157 -119h-7l-34 18l219 672h598l-8 -39h-559l-189 -573q162 129 338 129z
" />
    <glyph glyph-name="six" unicode="6" horiz-adv-x="1034" 
d="M547 16q205 0 333 130t128 327q0 141 -94 235t-248 95q-193 0 -325 -134t-132 -323q0 -142 93 -236t245 -94zM668 844q174 0 278 -102t105 -263q1 -219 -143 -361t-367 -143q-165 -1 -271 105t-106 261t119 361t257 362q138 157 279 284h6l23 -21v-6q-144 -127 -282 -289
t-234 -317q162 129 336 129z" />
    <glyph glyph-name="seven" unicode="7" horiz-adv-x="841" 
d="M1053 1331l-9 -39l-788 -1292h-37l-2 6l784 1286h-745l8 39h789z" />
    <glyph glyph-name="eight" unicode="8" horiz-adv-x="1069" 
d="M664 729q-186 0 -322 -118t-137 -289q0 -134 98 -220t264 -86t298 118t132 290q0 133 -93 219t-240 86zM1020 1090q0 94 -76 160q-76 65 -178 65q-104 0 -181 -40t-121 -112t-44 -169t63 -160q63 -64 167 -64t186 40t133 113t51 167zM375 995q1 153 113 257t258 104
t232 -75q85 -75 85 -195t-77 -210q-77 -91 -195 -126q113 -35 181 -121t68 -201q0 -190 -146 -322t-351 -131q-166 -1 -274 97q-107 98 -107 252t105 274q105 119 270 156q-76 31 -119 93t-43 148z" />
    <glyph glyph-name="nine" unicode="9" horiz-adv-x="1034" 
d="M606 528q193 0 325 134t132 323q0 141 -93 235t-245 95q-205 0 -333 -130t-128 -327q0 -142 94 -236t248 -94zM731 1356q166 0 271 -106q219 -220 -13 -620q-199 -345 -536 -646h-7l-22 20v6q143 127 282 289q138 162 234 317q-162 -129 -336 -129q-174 1 -278 103
t-105 262q-1 220 143 362t367 142z" />
    <glyph glyph-name="colon" unicode=":" horiz-adv-x="407" 
d="M272 41q0 -27 -22 -49t-48 -21t-40 17t-14 42t22 48q23 22 49 20q53 0 53 -57zM364 895q-24 0 -39 16t-15 42q0 25 22 47t48 22t41 -16t15 -42t-23 -48q-25 -21 -49 -21z" />
    <glyph glyph-name="semicolon" unicode=";" horiz-adv-x="471" 
d="M252 102q63 0 63 -71q0 -35 -51 -126t-133 -169h-4l-18 18v4q57 61 96 129t39 88q-25 3 -41 19q-17 16 -17 43t18 46t48 19zM411 915q-26 1 -42 17q-17 16 -17 43t24 49t49 20q25 0 41 -16t15 -43q0 -27 -22 -49t-48 -21z" />
    <glyph glyph-name="less" unicode="&#x3c;" horiz-adv-x="897" 
d="M961 1098l4 -4l-7 -35l-4 -6l-716 -394l577 -393l2 -6l-6 -35l-6 -4l-627 426l4 25z" />
    <glyph glyph-name="equal" unicode="=" horiz-adv-x="1198" 
d="M219 406h905l-6 -37h-905zM299 860h905l-6 -37h-905z" />
    <glyph glyph-name="greater" unicode="&#x3e;" horiz-adv-x="897" 
d="M326 1098l626 -426l-4 -25l-778 -426l-6 4l6 35l4 6l719 393l-578 394l-4 6l6 35z" />
    <glyph glyph-name="question" unicode="?" horiz-adv-x="921" 
d="M468 -25q-54 0 -54 57q0 26 22 48t48 22t40 -15t14 -41t-22 -48t-48 -23zM688 1356q148 0 242 -87q92 -87 92 -211t-66 -206q-66 -81 -137 -142t-92 -79q-150 -139 -176 -279l-25 -135h-39l23 133q25 150 192 305q18 15 76 67q164 144 190 230q13 43 13 95q0 115 -84 193
t-216 77q-131 0 -237 -87t-165 -222l-7 -2l-30 10v6q62 142 180 238t266 96z" />
    <glyph glyph-name="at" unicode="@" horiz-adv-x="1697" 
d="M594 483q0 -119 66 -193t196 -75q129 0 239 117t109 264q0 117 -67 195q-68 78 -179 77q-154 0 -259 -114t-105 -271zM831 -207q223 0 404 129h6l16 -31v-6q-182 -133 -445 -133t-447 182t-185 459q0 203 77 381t216 299q233 199 569 199q283 0 465 -170t183 -455
q0 -231 -102 -365t-245 -135q-100 0 -143 65t-22 183q-48 -98 -142 -158q-94 -61 -214 -61t-197 84q-76 84 -76 217q0 178 118 303t298 125q109 0 177 -57t87 -160l37 203h37l-84 -471q-41 -233 133 -234q127 0 211 124t84 327q0 274 -173 434t-438 160q-315 0 -534 -189
q-133 -114 -206 -282t-73 -365q0 -260 174 -431t434 -171z" />
    <glyph glyph-name="A" unicode="A" horiz-adv-x="1406" 
d="M418 387h712l-196 881zM1316 -25q-44 0 -75 27t-47 98l-55 246h-746l-143 -246q-73 -125 -168 -125q-41 0 -74 29v6l21 29l8 2q16 -23 51 -23q65 0 127 107l707 1206h45l268 -1206q11 -57 31 -82t53 -25t61 23l6 -2l13 -29l-2 -6q-37 -29 -81 -29z" />
    <glyph glyph-name="B" unicode="B" horiz-adv-x="1183" 
d="M784 676h-413l-111 -635h440q148 0 248 74q145 106 146 295q0 122 -83 194t-227 72zM786 717q158 0 260 93q101 93 101 243q0 113 -76 175t-209 62h-383l-100 -573h407zM688 0h-481l235 1331h424q152 0 240 -73q88 -74 88 -204t-77 -226t-204 -132q106 -27 166 -100
q59 -74 59 -179t-41 -191q-42 -86 -120 -142q-119 -84 -289 -84z" />
    <glyph glyph-name="C" unicode="C" horiz-adv-x="1372" 
d="M1001 1356q160 0 288 -64.5t202 -183.5l-2 -6l-33 -23h-6q-68 111 -184.5 171.5t-264.5 60.5q-287 0 -495 -187q-119 -104 -185.5 -250.5t-66.5 -306.5q0 -236 145.5 -391.5t378.5 -155.5q145 0 283.5 65t241.5 169h6l26 -25l2 -6q-111 -117 -256 -182.5t-303 -65.5
q-254 0 -412.5 166t-158.5 418q0 174 72.5 333t199.5 271q221 193 522 193z" />
    <glyph glyph-name="D" unicode="D" horiz-adv-x="1384" 
d="M1364 786q0 260 -145 392q-125 113 -361 112h-379l-219 -1249h379q318 0 506 176q107 101 163 247t56 322zM1409 793q0 -387 -238 -607q-205 -186 -542 -186h-422l235 1331h422q252 0 387 -123q158 -139 158 -415z" />
    <glyph glyph-name="E" unicode="E" 
d="M1210 1290h-731l-104 -596h573l-8 -41h-573l-107 -612h731l-8 -41h-776l235 1331h777z" />
    <glyph glyph-name="F" unicode="F" horiz-adv-x="989" 
d="M1178 1290h-699l-104 -596h543l-9 -41h-542l-115 -653h-45l235 1331h744z" />
    <glyph glyph-name="G" unicode="G" horiz-adv-x="1503" 
d="M985 1356q168 0 303 -66.5t205 -181.5l-2 -6l-33 -23h-6q-61 106 -187 169t-288 63q-256 0 -440 -140q-135 -102 -209 -257.5t-74 -342.5q0 -233 156.5 -392t411.5 -159t446.5 173.5t230.5 437.5h-598l8 41h637l4 -6q0 -18 -4 -39q-49 -319 -293 -502
q-201 -150 -455.5 -150t-422.5 169t-168 419q0 203 80 368.5t223 274.5q201 150 475 150z" />
    <glyph glyph-name="H" unicode="H" horiz-adv-x="1409" 
d="M1393 1331h45l-236 -1331h-45l115 653h-905l-115 -653h-45l235 1331h45l-112 -637h905z" />
    <glyph glyph-name="I" unicode="I" horiz-adv-x="638" 
d="M811 1290h-236l-221 -1249h236l-8 -41h-516l8 41h235l221 1249h-235l10 41h514z" />
    <glyph glyph-name="J" unicode="J" horiz-adv-x="976" 
d="M528 1331h494l-176 -995q-29 -162 -147 -261t-275 -100q-229 0 -313 195l2 6l32 23h7q80 -180 280 -181q136 0 240 90t129 232l168 950h-449z" />
    <glyph glyph-name="K" unicode="K" horiz-adv-x="1110" 
d="M1251 1331v-6l-690 -633l375 -583q57 -90 115 -91q31 0 59 23l6 -2l12 -29l-2 -6q-35 -29 -83 -29t-82.5 30t-75.5 95l-359 562l-180 -162l-88 -500h-45l217 1227q16 86 -49 86q-27 0 -57 -23l-7 2l-16 29l2 6q39 29 88 29t72.5 -32t11.5 -95l-117 -664l840 766h53z" />
    <glyph glyph-name="L" unicode="L" horiz-adv-x="958" 
d="M920 41l-9 -41h-704l235 1331h45l-227 -1290h660z" />
    <glyph glyph-name="M" unicode="M" horiz-adv-x="1687" 
d="M1546 -25q-58 1 -76 55t-10 169l72 1022l-662 -1221h-45l-231 1227l-291 -1028q-35 -117 -72 -170t-91 -53t-87 28l-2 6l23 29l6 2q22 -23 60 -23t64 45t62 168l312 1100h43l237 -1261l688 1261h41l-78 -1100q-10 -88 -1 -150t57 -63q31 0 59 23l6 -2l12 -29l-2 -6
q-36 -29 -94 -29z" />
    <glyph glyph-name="N" unicode="N" horiz-adv-x="1452" 
d="M1436 1331h45l-236 -1331h-39l-733 1255l-221 -1255h-45l235 1331h39l731 -1255z" />
    <glyph glyph-name="O" unicode="O" horiz-adv-x="1554" 
d="M254 571q0 -233 156 -392t407 -159q250 0 434 140q135 102 209 258t74 342q0 233 -157 392t-407 159t-433 -140q-135 -102 -209 -258t-74 -342zM810 -25q-267 0 -435 169t-168 419q0 203 79 369t224 274q201 150 468 150t435 -169t168 -419q0 -203 -79 -369t-224 -274
q-201 -150 -468 -150z" />
    <glyph glyph-name="P" unicode="P" horiz-adv-x="1093" 
d="M733 610q145 0 256 78q166 113 166 322q0 135 -81 208t-210 72h-385l-119 -680h373zM868 1331q144 0 238 -83t94 -214q0 -253 -188 -381q-121 -84 -291 -84h-369l-100 -569h-45l235 1331h426z" />
    <glyph glyph-name="Q" unicode="Q" horiz-adv-x="1552" 
d="M519 297q-81 0 -167 -49q74 -106 193 -166t266 -62q51 0 100 7q-63 86 -99 128q-36 41 -81 79t-88 50t-124 13zM254 585q0 -172 74 -300q104 57 197 57t139 -16t78 -40q32 -26 55 -45t71 -82q49 -63 97 -124q163 31 291 129t203 254t75 342q0 233 -157 392
q-157 158 -407 158t-433 -139q-135 -102 -209 -258t-74 -328zM207 563q0 203 79 369t224 274q201 150 468 150t435 -169t168 -419q0 -203 -79 -369t-215 -267t-294 -136q100 -138 160 -191q61 -53 105 -66t104 -13q129 0 225 71l6 -2l17 -31l-2 -6q-51 -34 -121 -56
q-71 -22 -135 -22t-113 16q-49 15 -99 59t-89 90t-109 141q-68 -10 -139 -11q-260 0 -428 169t-168 419z" />
    <glyph glyph-name="R" unicode="R" horiz-adv-x="1167" 
d="M752 645q195 0 305 117q102 102 102 268q0 111 -68.5 185.5t-226.5 74.5h-385l-112 -645h385zM1052 -25q-48 -1 -76 15q-81 44 -123 239q-34 158 -57.5 216.5t-39.5 92.5q-31 66 -68 66h-330l-106 -604h-45l235 1331h426q174 0 260 -90q76 -76 76 -205q0 -186 -120 -305
t-318 -127q51 -45 129 -346q47 -188 97 -222q26 -18 60.5 -18t63.5 23l6 -2l13 -29l-2 -6q-35 -29 -81 -29z" />
    <glyph glyph-name="S" unicode="S" horiz-adv-x="1001" 
d="M150 213q112 -193 390 -193q140 0 257.5 86.5t117.5 214t-93 204.5t-227 152t-203.5 149.5t-69.5 187.5q0 156 119.5 249t283.5 93q231 0 344 -166l-2 -6l-31 -25h-6q-100 152 -307 152q-143 0 -247.5 -80t-104.5 -207q0 -94 59 -161.5t178 -137.5q72 -36 95.5 -53
t62.5 -41.5t49 -33.5t40 -32.5t39 -38t27.5 -39t31 -69.5t12.5 -84q0 -154 -130.5 -256t-310.5 -103q-133 0 -246.5 55.5t-166.5 153.5v6l32 23h7z" />
    <glyph glyph-name="T" unicode="T" horiz-adv-x="993" 
d="M471 0l227 1290h-442l8 41h934l-8 -41h-447l-227 -1290h-45z" />
    <glyph glyph-name="U" unicode="U" horiz-adv-x="1370" 
d="M700 18q226 0 360 136t173 370l141 807h47l-143 -811q-48 -258 -192 -401t-394 -144q-162 0 -267 82t-132 228q-16 82 8 235l123 707q16 86 -49 86q-27 0 -58 -23l-6 2l-16 29l2 6q39 29 88 29t73 -32t11 -95l-123 -705q-25 -150 -6 -235q29 -127 123 -199t237 -72z" />
    <glyph glyph-name="V" unicode="V" horiz-adv-x="1386" 
d="M1542 1313q-61 0 -123 -105l-698 -1208h-45l-268 1206q-25 106 -86 107q-27 0 -58 -23l-6 2l-16 29l2 6q39 29 86 29q94 0 121 -125l258 -1159l667 1159q72 125 170 125q47 0 76 -29l2 -6l-22 -29l-7 -2q-27 23 -53 23z" />
    <glyph glyph-name="W" unicode="W" horiz-adv-x="1970" 
d="M2122 1313q-49 0 -103 -107l-614 -1206h-45l-141 1247l-584 -1247h-45l-191 1206q-16 106 -69 107q-31 0 -60 -23l-6 2l-16 29l2 6q35 29 88 29q88 0 106 -123l179 -1157l583 1255h49l140 -1251l587 1153q61 123 150 123q45 0 74 -29l2 -6l-23 -29l-6 -2q-27 23 -57 23z
" />
    <glyph glyph-name="X" unicode="X" horiz-adv-x="1286" 
d="M1412 1313q-40 0 -124 -90l-502 -561l279 -553q47 -90 102 -91q35 0 64 23l6 -2l12 -29l-2 -6q-35 -29 -84 -29t-79 26t-62 89l-268 535l-475 -535q-57 -63 -95 -89t-80 -26q-43 0 -75 29l-2 6l22 29l6 2q23 -23 63 -23t120 91l499 557l-280 557q-27 49 -47 69t-54 20
t-61 -22l-6 2l-17 29l2 6q34 29 86 29t80 -25t60 -90l270 -539l479 539q57 63 95 89t84 26q44 0 73 -29l2 -6l-22 -29l-6 -2q-23 23 -63 23z" />
    <glyph glyph-name="Y" unicode="Y" horiz-adv-x="1318" 
d="M1462 1313q-61 0 -133 -90l-541 -654l-100 -569h-45l100 569l-309 654q-27 49 -47 69t-53 20t-62 -22l-6 2l-16 29l2 6q35 29 86 29t79 -25t60 -90l297 -629l516 627q53 65 92 91t86 26t76 -29l2 -6l-22 -29l-6 -2q-23 23 -56 23z" />
    <glyph glyph-name="Z" unicode="Z" horiz-adv-x="1083" 
d="M1040 125q0 -55 -36 -90t-107 -35h-844l-2 6l6 35l1094 1249h-875l9 41h927l2 -6l-6 -35l-1095 -1249h788q96 0 96 86q0 29 -10 43l2 6l33 17q18 -13 18 -68z" />
    <glyph glyph-name="bracketleft" unicode="[" horiz-adv-x="466" 
d="M666 1413h-209l-297 -1675h209l-7 -37h-249l309 1749h250z" />
    <glyph glyph-name="backslash" unicode="\" horiz-adv-x="935" 
d="M358 1442l506 -1544l-4 -7h-39l-506 1545l4 6h39z" />
    <glyph glyph-name="bracketright" unicode="]" horiz-adv-x="466" 
d="M301 1413l6 37h250l-309 -1749h-250l6 37h207l297 1675h-207z" />
    <glyph glyph-name="asciicircum" unicode="^" horiz-adv-x="1107" 
d="M799 1331l329 -768l-4 -6h-37l-6 4l-307 713l-551 -713l-6 -4h-37l-4 6l598 768h25z" />
    <glyph glyph-name="underscore" unicode="_" horiz-adv-x="892" 
d="M12 -150h815l-6 -36h-815z" />
    <glyph glyph-name="grave" unicode="`" horiz-adv-x="499" 
d="M266 1427l357 -258v-4l-17 -20h-4l-364 248v4l24 30h4z" />
    <glyph glyph-name="a" unicode="a" horiz-adv-x="1269" 
d="M219 408q0 -158 108 -276q109 -118 285 -118t290 92q114 91 174 220t60 258q1 259 -181 371q-87 54 -199 55q-199 0 -334 -117q-203 -170 -203 -485zM176 420q0 152 58 285t163 219q150 125 365 125q102 0 188 -43q175 -88 217 -297l56 315h41l-162 -922q-16 -88 47 -88
q36 0 65 25l7 -2l10 -27l-2 -6q-39 -29 -87 -29t-70 32t-11 95l29 164q-158 -289 -494 -291q-186 0 -303 126t-117 319z" />
    <glyph glyph-name="b" unicode="b" horiz-adv-x="1243" 
d="M1208 596q0 178 -106 296t-274 118t-296 -95q-112 -79 -178 -209t-66 -293t110 -281q108 -118 278 -118q111 0 211 45t174 125q147 166 147 412zM842 1049q174 0 292 -126t117 -319q0 -127 -42 -244q-43 -118 -119 -204t-187 -133t-253 -47t-252 96t-138 254l-57 -326
h-41l225 1274q16 92 -49 92q-33 0 -64 -25l-6 2l-10 27l2 6q39 29 85 29t70 -33t13 -94l-92 -526q74 135 202 216t304 81z" />
    <glyph glyph-name="c" unicode="c" horiz-adv-x="1103" 
d="M174 424q0 150 63.5 280t174.5 218q162 127 368 127q133 0 237.5 -60.5t151.5 -161.5v-6l-28 -18h-6q-45 96 -140.5 151.5t-220.5 55.5q-193 0 -342 -121q-98 -80 -155.5 -202t-57.5 -257q0 -190 109.5 -303t298.5 -113q242 0 401 193h6l25 -21v-6q-174 -205 -438 -205
q-203 0 -325 127t-122 322z" />
    <glyph glyph-name="d" unicode="d" horiz-adv-x="1265" 
d="M1139 592q0 182 -105.5 300t-287.5 118t-322 -117q-92 -76 -147.5 -199t-55.5 -258q0 -186 105.5 -304t285.5 -118q320 1 464 306q62 131 63 272zM1144 -25q-46 0 -69.5 33t-13.5 94l26 154q-151 -280 -484 -280q-196 0 -310.5 124.5t-114.5 327.5q0 143 58.5 276.5
t162.5 219.5q152 125 336.5 125t294 -92.5t137.5 -249.5l119 679l35 9l8 -4l-227 -1289q-16 -88 49 -88q34 0 61 23l7 -2l10 -25l-2 -6q-37 -29 -83 -29z" />
    <glyph glyph-name="e" unicode="e" horiz-adv-x="1112" 
d="M712 440q96 0 187.5 34t150 108.5t58.5 164t-41 145.5q-86 118 -281.5 117.5t-332.5 -100.5q-166 -121 -217 -334q197 -135 476 -135zM684 401q-117 0 -245 36t-212 95q-8 -53 -8 -106q0 -182 112.5 -297t305.5 -115t367 162h6l24 -22v-7q-172 -172 -416 -172
q-197 0 -319.5 124t-122.5 302.5t65.5 315.5t182.5 223q147 109 335.5 109t290 -78t101.5 -201q0 -182 -132 -275.5t-335 -93.5z" />
    <glyph glyph-name="f" unicode="f" horiz-adv-x="583" 
d="M743 1417q94 0 175 -47v-6l-21 -29h-6q-70 43 -152 43q-238 0 -293 -317l-6 -37h318l-6 -37h-318l-211 -1194q-10 -61 -45 -94t-82 -33t-71 29l-2 6l18 25l6 2q27 -23 57 -23q61 0 78 88l211 1194h-176l6 37h176l7 37q63 356 337 356z" />
    <glyph glyph-name="g" unicode="g" horiz-adv-x="1173" 
d="M1057 650q0 109 -42 188.5t-124 125.5t-189 46q-180 0 -311 -113q-76 -68 -119 -166t-43 -203q0 -160 97.5 -259t252 -99t261 76t162 185.5t55.5 218.5zM1233 1010q-68 0 -84 -88l-135 -775q-39 -223 -169 -339.5t-345 -116.5q-289 0 -396 223l2 6l29 21h6
q43 -98 136.5 -154.5t230.5 -56.5q195 0 312.5 111.5t152.5 310.5l39 223q-70 -113 -188.5 -178.5t-248.5 -65.5q-174 0 -281.5 110.5t-107.5 282.5q0 117 49.5 224.5t123.5 171.5q151 130 348 129q141 0 240.5 -75t133.5 -200l27 148q23 127 125 127q45 0 74 -29l2 -6
l-19 -27h-6q-18 23 -51 23z" />
    <glyph glyph-name="h" unicode="h" horiz-adv-x="1153" 
d="M1041 -25q-45 0 -69 33t-14 94l74 420q29 162 29 209q0 119 -81 199q-82 80 -236 80t-275 -111t-152 -272l-110 -627h-41l225 1274q16 92 -49 92q-33 0 -63 -25l-7 2l-10 27l2 6q39 29 85 29t70 -33t13 -94l-82 -469q66 109 172 175t251 65q145 0 238 -87t93 -225
q0 -43 -31 -215l-74 -420q-16 -88 50 -88q35 0 61 23l6 -2l10 -25l-2 -6q-37 -29 -83 -29z" />
    <glyph glyph-name="i" unicode="i" horiz-adv-x="421" 
d="M293 -25q-47 0 -71 33t-13 94l143 816q16 92 -49 92q-33 0 -63 -25l-7 2l-10 27l2 6q39 29 84 29q106 0 84 -131l-143 -816q-16 -88 49 -88q35 0 61 23l7 -2l10 -25l-2 -6q-35 -29 -82 -29zM388 1272q26 0 41 -16t15 -42t-23 -48t-49 -21q-26 0 -40 16t-14 42q0 25 22 47
t48 22z" />
    <glyph glyph-name="j" unicode="j" horiz-adv-x="387" 
d="M403 1024l-176 -999q-23 -129 -75 -201t-144 -131h-6l-14 24l2 7q84 52 129 118t67 187l170 958h-143l6 37h184zM363 1145q-52 0 -54 55q0 28 23 50q22 22 48 22t41 -16t15 -42t-23 -48q-24 -21 -50 -21z" />
    <glyph glyph-name="k" unicode="k" horiz-adv-x="1046" 
d="M684 461q98 0 176 41t120 112.5t42 168.5t-79 162t-204 65q-166 0 -280.5 -121t-147.5 -309l-20 -119h393zM352 809q134 240 400 240q136 0 224.5 -72t88.5 -191q0 -160 -108.5 -261t-280.5 -101h-37l192 -315q55 -94 107 -95q33 1 51 17l6 -2l11 -25l-2 -6
q-31 -23 -74 -23t-72 28t-72 97l-198 324h-305l-74 -424h-41l225 1274q16 92 -49 92q-33 0 -63 -25l-7 2l-10 27l2 6q39 29 85 29t69.5 -33t13.5 -94z" />
    <glyph glyph-name="l" unicode="l" horiz-adv-x="405" 
d="M357 1405q46 0 70 -33t13 -94l-207 -1176q-16 -88 50 -88q33 0 61 23l6 -2l10 -25l-2 -6q-39 -29 -86 -29t-68.5 36t-10.5 91l206 1172q16 92 -49 92q-33 0 -63 -25l-6 2l-11 27l2 6q39 29 85 29z" />
    <glyph glyph-name="m" unicode="m" horiz-adv-x="1910" 
d="M1797 -25q-46 0 -70 33t-13 94l74 420q29 162 29 209q0 121 -71 200q-70 79 -226 79t-277 -115t-153 -297l-107 -598h-41l92 522q29 162 29 209q0 119 -75 199q-74 80 -224 80t-272 -112t-152 -273l-111 -625h-41l162 918q16 92 -49 92q-33 0 -63 -25l-7 2l-10 27l2 6
q39 29 77 29q112 0 93 -127l-18 -109q66 106 171 171t239 65q135 0 221 -74t98 -199q61 125 175 199q115 74 265 74t233 -85t83 -227q0 -43 -31 -215l-74 -420q-16 -88 49 -88q35 0 62 23l6 -2l10 -25l-2 -6q-37 -29 -83 -29z" />
    <glyph glyph-name="n" unicode="n" horiz-adv-x="1177" 
d="M1064 -25q-46 0 -69.5 33t-13.5 94l74 420q29 162 28 209q0 119 -81.5 199t-231 80t-271.5 -105.5t-153 -249.5l-117 -655h-41l162 918q16 92 -49 92q-33 0 -63 -25l-7 2l-10 27l2 6q39 29 77 29q112 0 93 -127l-18 -107q66 106 171 170t228 64q166 0 259 -87.5
t93 -224.5q0 -43 -30 -215l-74 -420q-16 -88 49 -88q35 0 62 23l6 -2l10 -25l-2 -6q-37 -29 -83 -29z" />
    <glyph glyph-name="o" unicode="o" horiz-adv-x="1230" 
d="M637 14q240 0 397.5 168t157.5 410q0 178 -120 298t-304 120t-330 -113q-102 -80 -160.5 -203t-58.5 -262q0 -178 119 -298t299 -120zM631 -25q-197 0 -326 129t-129 322q0 154 64.5 287t177.5 219q152 117 356 117t333.5 -129t129.5 -324q0 -264 -173 -442t-433 -179z
" />
    <glyph glyph-name="p" unicode="p" horiz-adv-x="1267" 
d="M849 1010q-167 0 -296 -95q-113 -79 -179 -209t-65 -295q-1 -165 105 -281t282 -116q106 0 210 45t175 125q147 166 148 412q-1 178 -107 296t-273 118zM858 1049q182 0 298 -126t116 -319q0 -127 -42 -244q-86 -239 -307 -335q-113 -49 -253 -49t-248 92t-139 243
l-107 -618h-43l217 1225q16 92 -49 92q-33 0 -63 -25l-7 2l-10 27l2 6q39 29 86 29t71 -32t13 -95l-28 -158q68 117 174 190q137 95 319 95z" />
    <glyph glyph-name="q" unicode="q" horiz-adv-x="1265" 
d="M744 1010q-182 0 -322 -117q-92 -76 -148 -199t-55 -258q-1 -188 105 -305t290 -117q314 2 460 306q62 130 62 292t-104 280q-106 118 -288 118zM176 428q0 142 58 276t163 220q151 125 335 125q184 -1 294 -93t141 -245l37 211q23 127 125 127q45 0 74 -29l2 -6l-19 -25
l-6 -2q-18 23 -51 23q-68 0 -84 -88l-217 -1229h-39l98 565q-157 -281 -477 -283q-206 0 -320 125t-114 328z" />
    <glyph glyph-name="r" unicode="r" horiz-adv-x="659" 
d="M703 1049q88 0 126 -27v-6l-20 -29h-6q-41 23 -105 23q-121 0 -222 -102.5t-136 -284.5l-111 -623h-41l162 922q16 88 -49 88q-33 0 -63 -25l-7 2l-10 27l2 6q39 29 86 29t69.5 -32t12.5 -95l-14 -82q61 102 149.5 155.5t176.5 53.5z" />
    <glyph glyph-name="s" unicode="s" horiz-adv-x="823" 
d="M582 1049q195 0 276 -156v-6l-27 -17h-6q-84 139 -243 140q-121 0 -198 -63.5t-77 -168.5q0 -68 37 -109.5t92.5 -70t121.5 -59.5t92 -49q26 -16 66 -48q70 -55 70 -168q0 -150 -124 -235q-92 -63 -232 -64q-254 0 -330 185l2 6l27 14h6q70 -166 293 -166q139 0 227 70
t88 178t-60 153q-60 46 -136 83t-134.5 67.5t-102.5 77.5t-44 131q0 137 113 215q86 60 203 60z" />
    <glyph glyph-name="t" unicode="t" horiz-adv-x="618" 
d="M473 -25q-123 0 -178 91.5t-25 269.5l115 651h-182l6 37h182l58 324l34 8l6 -4l-57 -328h330l-6 -37h-330l-115 -651q-57 -322 168 -322q66 0 115 33l6 -2l12 -27l-2 -6q-57 -37 -137 -37z" />
    <glyph glyph-name="u" unicode="u" horiz-adv-x="1153" 
d="M1026 -25q-47 0 -70 32t-12 95l17 95q-63 -101 -161 -161t-218 -61q-168 0 -260 87t-93 233q0 49 27 194l78 433q16 88 -49 88q-33 0 -64 -25l-6 2l-10 27l2 6q39 29 84 29q106 0 84 -127l-78 -433q-25 -147 -25 -192q0 -123 81 -203t236 -80t265 109t141 272l111 629h41
l-162 -922q-16 -88 49 -88q35 0 64 25l6 -2l10 -27l-2 -6q-39 -29 -86 -29z" />
    <glyph glyph-name="v" unicode="v" horiz-adv-x="1042" 
d="M297 1049q106 0 84 -127l-100 -564q-27 -156 40 -250t214 -94q205 0 337 182t134 466q0 284 -80 387l2 6l35 22h6q82 -113 82 -416q-1 -303 -149 -494t-374 -192q-168 0 -244 108t-44 277l100 562q16 88 -49 88q-33 0 -64 -25l-6 2l-10 27l2 6q39 29 84 29z" />
    <glyph glyph-name="w" unicode="w" horiz-adv-x="1728" 
d="M297 1049q106 0 82 -127l-100 -572q-27 -156 49 -246t219 -90t247 98t132 259l116 653h41l-114 -641q-29 -160 40 -264t212 -105q173 0 287 128t156 328t27 352q-15 153 -75 229l2 6l31 20h6q61 -85 79 -241t-26 -372q-43 -216 -173 -352t-323 -137q-122 0 -198 71
t-90 187q-54 -121 -156 -189t-229 -69q-162 -1 -246 103t-53 282l98 562q16 88 -47 88q-33 0 -64 -25l-6 2l-10 27l2 6q39 29 84 29z" />
    <glyph glyph-name="x" unicode="x" horiz-adv-x="1083" 
d="M1146 1010q-32 0 -118 -95l-364 -403l215 -403q29 -51 49 -73t51 -22t57 23l6 -2l11 -25l-2 -6q-35 -29 -77 -29t-71 28t-65 97l-203 383l-342 -383q-67 -74 -101 -100t-76 -25q-42 0 -71 29l-2 6l18 25l7 2q18 -23 57 -23t125 95l362 403l-215 403q-31 55 -49 75t-47 20
t-59 -25l-6 2l-11 27l2 6q39 29 81 29t67 -26t63 -99l203 -383l344 383q86 96 114 110q75 37 126 -14l2 -6l-19 -25l-6 -2q-24 23 -56 23z" />
    <glyph glyph-name="y" unicode="y" horiz-adv-x="1118" 
d="M236 360q0 49 26 195l66 367q16 88 -49 88q-33 0 -64 -25l-6 2l-10 27l2 6q35 29 84 29q106 0 84 -127l-66 -367q-25 -147 -24 -193q1 -126 77 -204t216 -78t225 58q164 113 204 327l97 559h41l-154 -877q-39 -223 -169 -340t-342 -117t-329 122l2 6l25 22h6
q116 -110 306 -110t308 112t152 310l23 118q-138 -229 -398 -229q-157 0 -245 87t-88 232z" />
    <glyph glyph-name="z" unicode="z" horiz-adv-x="868" 
d="M709 37q100 0 100 84q0 27 -12 45l2 6l28 14l7 -2q14 -30 14 -72t-38 -77t-105 -35h-642l-4 8l4 29l836 950h-670l7 37h712l4 -8l-6 -29l-833 -950h596z" />
    <glyph glyph-name="braceleft" unicode="{" horiz-adv-x="514" 
d="M391 -299q-149 0 -193 75t-10 269l54 303q8 46 11 64t6 50t-2 43t-15 31t-70 19l6 41q58 0 86 27t37 75q10 49 21 105l53 303q33 192 105 268t220 76h25l-6 -37h-25q-127 -1 -188 -67t-90 -238l-45 -262q-27 -160 -47 -212t-56 -52l-2 -13q33 0 35 -53t-27 -213l-45 -260
q-31 -172 7 -239t161 -66h25l-6 -37h-25z" />
    <glyph glyph-name="bar" unicode="|" horiz-adv-x="372" 
d="M113 -299l309 1749h41l-309 -1749h-41z" />
    <glyph glyph-name="braceright" unicode="}" horiz-adv-x="514" 
d="M326 1450q150 0 194 -75t8 -269l-53 -303q-8 -47 -11 -65t-6 -49q-3 -32 2 -43l15 -30t70 -20l-6 -41q-61 0 -90 -32q-24 -22 -33 -70q-10 -49 -21 -105l-53 -303q-32 -193 -104 -269t-222 -75h-24l6 37h25q127 0 187 66t91 239l45 260q27 160 47 213t56 53l2 13
q-33 0 -35 52q-3 52 26 212l45 262q29 172 -7 239t-161 66h-24l6 37h25z" />
    <glyph glyph-name="asciitilde" unicode="~" horiz-adv-x="1083" 
d="M903 610q-88 0 -246 36q-157 36 -235 36t-131 -72h-4l-23 31l2 4q70 78 159 78t235 -36t232 -36t140 72h4l23 -31l-2 -4q-66 -78 -154 -78z" />
    <glyph glyph-name="exclamdown" unicode="&#xa1;" horiz-adv-x="370" 
d="M156 -303l-4 -4h-41l-5 4l201 1114l4 4h33l4 -4zM295 980q-1 26 23 48t49 21t40 -17t15 -42t-24 -47t-48 -21t-40 16q-15 16 -15 42z" />
    <glyph glyph-name="cent" unicode="&#xa2;" horiz-adv-x="1181" 
d="M807 1163q-193 0 -342 -121q-98 -80 -155.5 -201.5t-57.5 -256.5q0 -190 109.5 -303t297.5 -113q119 0 222.5 51t179.5 141h6l25 -20v-6q-156 -187 -414 -205l-27 -154h-41l27 154q-195 6 -312.5 132t-117.5 317q0 150 63.5 279.5t173.5 217.5q150 119 340 127l27 150h41
l-27 -150q129 -4 229.5 -63.5t147.5 -157.5v-6l-28 -19h-7q-45 96 -140 151.5t-220 55.5z" />
    <glyph glyph-name="sterling" unicode="&#xa3;" horiz-adv-x="1038" 
d="M836 1356q193 0 311 -156v-6l-31 -27h-6q-102 145 -285 146q-137 0 -245 -86t-136 -240l-51 -289h416l-8 -41h-414l-111 -616h668l-8 -41h-842l8 41h134l108 616h-133l8 41h133l49 283q33 179 155 277t280 98z" />
    <glyph glyph-name="currency" unicode="&#xa4;" horiz-adv-x="1300" 
d="M838 1145q-231 0 -385 -160t-154 -385q0 -170 112 -286t281 -115q238 -1 388 155t149 389q1 170 -111 286t-280 116zM841 1184q208 0 330 -152l103 90l24 -30l-104 -91q76 -111 76 -239t-48 -247q-48 -118 -130 -200l77 -98l-32 -29l-78 99q-156 -127 -365 -127t-334 147
l-106 -92l-25 31l107 94q-78 113 -78 256q0 252 178 426l-76 96l35 29l76 -96q162 133 370 133z" />
    <glyph glyph-name="yen" unicode="&#xa5;" horiz-adv-x="1134" 
d="M1264 1331h47l4 -6l-621 -750h271l-7 -34h-272l-39 -215h273l-7 -35h-272l-51 -291h-45l51 291h-272l6 35h272l39 215h-272l6 34h268l-356 750l4 6h45l338 -710z" />
    <glyph glyph-name="brokenbar" unicode="&#xa6;" horiz-adv-x="370" 
d="M252 494h41l-139 -793h-41zM422 1450h41l-133 -752h-41z" />
    <glyph glyph-name="section" unicode="&#xa7;" horiz-adv-x="1026" 
d="M334 639q0 -72 55 -133t126 -99q246 -132 310 -188q121 88 121 219q0 90 -76 158t-210 138t-187 112q-139 -76 -139 -207zM754 1315q-142 0 -244 -72t-102 -182t100 -184q74 -55 207 -125t206 -139t72 -169q0 -156 -137 -254q63 -63 64 -159q0 -154 -119 -248t-350 -94
q-127 0 -243 56t-157 157v4l35 26h6q42 -96 144 -149t223 -53q205 0 309 82t104 213q0 90 -71 153q-73 64 -177 118t-146 79t-93 65q-100 79 -98 193q0 152 149 241q-76 80 -76 177q0 135 117 220t283 85q205 0 319 -148v-6l-35 -26h-6q-102 139 -284 139z" />
    <glyph glyph-name="dieresis" unicode="&#xa8;" horiz-adv-x="614" 
d="M640 1145q-54 0 -54 56q0 27 22 49t49 22q51 0 53 -56q0 -26 -22 -48t-48 -23zM386 1145q-54 0 -54 58q0 25 22 47t48 22t41 -16t15 -42t-22 -48q-24 -22 -50 -21z" />
    <glyph glyph-name="copyright" unicode="&#xa9;" horiz-adv-x="1536" 
d="M831 260q-147 0 -241 96t-94 244q0 195 132 333t322 138q100 0 182 -45t117 -123v-4l-24 -20h-4q-35 73 -109 113t-168 40q-176 0 -292 -124t-115 -308q0 -133 84 -217t219 -84q178 0 305 154h4l16 -21v-4q-141 -168 -334 -168zM791 14q299 0 489 172q115 104 178 258
t64 324q0 231 -153 390t-390 159q-285 0 -475 -168q-121 -102 -187 -258t-65 -328q0 -233 152 -391t387 -158zM784 -25q-252 0 -412 168t-161 416q0 180 71 345t199 276q207 176 506 176q252 0 414 -168t162 -416q0 -176 -67 -337t-187 -271q-208 -189 -525 -189z" />
    <glyph glyph-name="ordfeminine" unicode="&#xaa;" horiz-adv-x="806" 
d="M481 735q84 1 164 55t100 144l13 70q-92 51 -202 51t-177 -49q-68 -49 -68 -138q0 -59 43 -96t127 -37zM610 1311q-141 0 -237 -101h-4l-21 21v4q113 117 268 117q98 0 160 -58t45 -168l-59 -340q-10 -55 24 -55q16 0 37 10l4 -2l4 -28q-10 -20 -53 -21q-74 0 -59 86
l8 49q-87 -129 -279 -131q-72 0 -126 45q-56 45 -56 113q-1 125 86 183q86 59 204 60t210 -53l12 74q16 92 -35 144t-133 51z" />
    <glyph glyph-name="guillemotleft" unicode="&#xab;" horiz-adv-x="843" 
d="M856 891l-2 -4l-295 -291l193 -293v-4l-33 -31h-4l-219 322l2 10l331 322h5zM559 887l-295 -291l193 -293v-4l-33 -31h-4l-219 322l2 10l332 322h4l22 -31z" />
    <glyph glyph-name="registered" unicode="&#xae;" horiz-adv-x="1536" 
d="M922 678q112 0 178 63t66 151q-1 171 -175 171h-241l-70 -385h242zM995 1098q209 0 209 -201q0 -105 -79 -179t-195 -75l164 -379h-45l-164 379h-211l-66 -379h-37l148 834h276zM979 1317q-285 0 -475 -168q-121 -102 -187 -258t-65 -328q0 -233 152 -391t387 -158
q299 0 489 172q115 104 178 258t64 324q0 231 -152 390t-391 159zM987 1356q252 0 414 -168t162 -416q0 -176 -67 -337t-187 -271q-207 -188 -525 -189q-252 0 -412 168t-161 416q0 180 71 345t199 276q207 176 506 176z" />
    <glyph glyph-name="macron" unicode="&#xaf;" horiz-adv-x="1052" 
d="M477 1229h531l-7 -35h-530z" />
    <glyph glyph-name="degree" unicode="&#xb0;" horiz-adv-x="710" 
d="M332 1070q0 -91 56 -146q56 -56 143 -56t161 77t74 168t-55 147t-142 55q-87 0 -162 -77t-75 -168zM291 1068q0 108 89 198q88 90 194 90t169 -65t63 -173t-85 -199q-87 -91 -193 -91t-172 65q-65 67 -65 175z" />
    <glyph glyph-name="plusminus" unicode="&#xb1;" horiz-adv-x="1175" 
d="M135 0l6 37h906l-7 -37h-905zM723 633h430l-6 -37h-432l-76 -432h-41l76 432h-434l6 37h436l76 432h41z" />
    <glyph glyph-name="acute" unicode="&#xb4;" horiz-adv-x="501" 
d="M641 1432h4l23 -35v-4l-365 -248h-4l-14 24v5z" />
    <glyph glyph-name="paragraph" unicode="&#xb6;" horiz-adv-x="1142" 
d="M1124 1200l-262 -1493h-41l262 1493h41zM682 586q-209 0 -329 85t-120 267q0 268 163 390t440 122h497l-6 -37h-438l-301 -1706h-41l153 879h-18z" />
    <glyph glyph-name="periodcentered" unicode="&#xb7;" horiz-adv-x="411" 
d="M294 483q-26 1 -40 17t-14 42t22 48t48 20q26 0 41 -16t15 -42t-22 -48q-24 -22 -50 -21z" />
    <glyph glyph-name="cedilla" unicode="&#xb8;" horiz-adv-x="534" 
d="M397 -218q0 -74 -58 -116q-58 -43 -154 -43t-160 64v4l26 24h4q47 -53 126 -53t126 30t47 92t-62 82q-62 22 -161 -13l-18 14l73 133l4 12h41v-12l-49 -92l2 -4q94 20 154 -14t59 -108z" />
    <glyph glyph-name="ordmasculine" unicode="&#xba;" horiz-adv-x="839" 
d="M549 735q139 -1 238 99t99 224t-64 192t-186 67q-122 0 -220 -99t-98 -222t63 -192q64 -69 168 -69zM543 696q-121 0 -195 78t-74 199q0 159 115 271t270 112q121 0 196 -79t75 -200q0 -157 -114 -269t-273 -112z" />
    <glyph glyph-name="guillemotright" unicode="&#xbb;" horiz-adv-x="843" 
d="M635 922l219 -322l-2 -10l-332 -322h-4l-22 31v4l297 291l-195 293l2 4l33 31h4zM559 600l-2 -10l-332 -322h-4l-22 31v4l297 291l-195 293l2 4l33 31h4z" />
    <glyph glyph-name="onequarter" unicode="&#xbc;" horiz-adv-x="1239" 
d="M655 244h342l76 432zM1128 244l-6 -39h-92l-37 -205h-39l37 205h-391l6 39l490 506h30l-90 -506h92zM514 1331l-135 -758h-43l127 719h-131l-2 4l14 35h170zM1335 1331v-6l-1218 -1325h-43l-2 4l1222 1327h41z" />
    <glyph glyph-name="onehalf" unicode="&#xbd;" horiz-adv-x="1388" 
d="M1122 750q94 0 148 -48t55 -104q0 -57 -20 -99q-35 -73 -173 -189q-240 -201 -319 -271h430l-6 -39h-487l6 31q82 77 182 161t152 130q142 123 169 172t27 98t-48 86t-120 37q-113 0 -217 -90h-4l-18 24v4q112 97 243 97zM559 1331l-135 -758h-43l127 719h-131l-2 4
l14 35h170zM1327 1331v-6l-1218 -1325h-43l-3 4l1223 1327h41z" />
    <glyph glyph-name="threequarters" unicode="&#xbe;" horiz-adv-x="1437" 
d="M1192 244l76 432l-418 -432h342zM1321 750l-90 -506h92l-6 -39h-92l-37 -205h-39l37 205h-389l6 39l487 506h31zM1511 1331v-6l-1218 -1325h-43l-2 4l1222 1327h41zM674 827q0 -104 -84 -179t-199 -75t-198 93v4l28 24h4q70 -86 170 -86t170 64t70 145q0 82 -48 124
t-130 42h-58l4 33h54q82 0 144 51q63 51 63 119q1 134 -148 135q-94 0 -168 -74h-4l-18 19v4q86 86 200 86q80 0 128 -42t48 -110t-42 -122t-107 -78q121 -44 121 -177z" />
    <glyph glyph-name="questiondown" unicode="&#xbf;" horiz-adv-x="911" 
d="M408 -319q-148 0 -242 87q-92 87 -92 210t64 204q64 80 137 142q73 63 94 82q150 139 176 278l24 135h39l-22 -133q-27 -156 -191 -305q-17 -15 -77 -67t-82 -74t-58 -68q-63 -77 -63 -187t84 -188t216 -78t237 87t165 223l8 2l29 -11v-6q-62 -143 -180 -238t-266 -95z
M628 1061q54 0 54 -56q0 -27 -22 -49t-49 -22q-54 0 -54 56q0 26 23 48q22 22 48 23z" />
    <glyph glyph-name="Agrave" unicode="&#xc0;" horiz-adv-x="1406" 
d="M418 387h712l-196 881zM1316 -25q-44 0 -75 27t-47 98l-55 246h-746l-143 -246q-73 -125 -168 -125q-41 0 -74 29v6l21 29l8 2q16 -23 51 -23q65 0 127 107l707 1206h45l268 -1206q11 -57 31 -82t53 -25t61 23l6 -2l13 -29l-2 -6q-37 -29 -81 -29zM967 1450l-383 215
l-2 4l18 33h4l381 -225v-4l-14 -23h-4z" />
    <glyph glyph-name="Aacute" unicode="&#xc1;" horiz-adv-x="1406" 
d="M418 387h712l-196 881zM1316 -25q-44 0 -75 27t-47 98l-55 246h-746l-143 -246q-73 -125 -168 -125q-41 0 -74 29v6l21 29l8 2q16 -23 51 -23q65 0 127 107l707 1206h45l268 -1206q11 -57 31 -82t53 -25t61 23l6 -2l13 -29l-2 -6q-37 -29 -81 -29zM926 1450h-4l-13 25v4
l381 225h4l17 -35l-2 -4z" />
    <glyph glyph-name="Acircumflex" unicode="&#xc2;" horiz-adv-x="1406" 
d="M418 387h712l-196 881zM1316 -25q-44 0 -75 27t-47 98l-55 246h-746l-143 -246q-73 -125 -168 -125q-41 0 -74 29v6l21 29l8 2q16 -23 51 -23q65 0 127 107l707 1206h45l268 -1206q11 -57 31 -82t53 -25t61 23l6 -2l13 -29l-2 -6q-37 -29 -81 -29zM715 1450h-4l-15 25v4
l295 182h8l230 -182v-4l-23 -25h-4l-217 156z" />
    <glyph glyph-name="Atilde" unicode="&#xc3;" horiz-adv-x="1406" 
d="M418 387h712l-196 881zM1316 -25q-44 0 -75 27t-47 98l-55 246h-746l-143 -246q-73 -125 -168 -125q-41 0 -74 29v6l21 29l8 2q16 -23 51 -23q65 0 127 107l707 1206h45l268 -1206q11 -57 31 -82t53 -25t61 23l6 -2l13 -29l-2 -6q-37 -29 -81 -29zM811 1589q57 0 159 -38
t180 -38q79 0 128 76h6l19 -28v-5q-61 -84 -158 -83q-67 -1 -179 37t-163 38q-82 1 -127 -75h-4l-23 28l2 4q61 84 160 84z" />
    <glyph glyph-name="Adieresis" unicode="&#xc4;" horiz-adv-x="1406" 
d="M418 387h712l-196 881zM1316 -25q-44 0 -75 27t-47 98l-55 246h-746l-143 -246q-73 -125 -168 -125q-41 0 -74 29v6l21 29l8 2q16 -23 51 -23q65 0 127 107l707 1206h45l268 -1206q11 -57 31 -82t53 -25t61 23l6 -2l13 -29l-2 -6q-37 -29 -81 -29zM1126 1579q52 0 54 -55
q0 -32 -22 -54t-50 -22q-27 0 -42 16t-15 43q-1 27 23 49t52 23zM834 1579q51 0 53 -55q-1 -32 -23 -54t-49 -22t-42 16t-15 43t24 49t52 23z" />
    <glyph glyph-name="Aring" unicode="&#xc5;" horiz-adv-x="1406" 
d="M418 387h712l-196 881zM1316 -25q-44 0 -75 27t-47 98l-55 246h-746l-143 -246q-73 -125 -168 -125q-41 0 -74 29v6l21 29l8 2q16 -23 51 -23q65 0 127 107l707 1206h45l268 -1206q11 -57 31 -82t53 -25t61 23l6 -2l13 -29l-2 -6q-37 -29 -81 -29zM1100 1614q0 48 -29 78
t-83 30t-89 -43t-35 -91t30 -78t83 -30t88 44q35 43 35 90zM972 1444q-66 0 -108 38q-41 38 -41 104q1 66 53 120q52 53 118 53t106 -38q40 -39 39 -105q0 -66 -50 -119q-51 -53 -117 -53z" />
    <glyph glyph-name="AE" unicode="&#xc6;" horiz-adv-x="1843" 
d="M979 387l160 897l-781 -897h621zM1915 1290h-731l-105 -596h574l-8 -41h-574l-106 -612h731l-8 -41h-777l62 346h-651l-302 -346h-45l1149 1331h799z" />
    <glyph glyph-name="Ccedilla" unicode="&#xc7;" horiz-adv-x="1372" 
d="M1450 1079q-139 232 -457 232q-82 1 -171 -21q-185 -45 -316 -166q-182 -163 -234 -398q-18 -79 -18 -159q0 -236 145.5 -391.5t378.5 -155.5q192 0 377 115q82 51 148 119h6l26 -25l2 -6q-111 -115 -254 -180.5t-297 -67.5l-36 -67l2 -4q94 20 153.5 -13.5t59.5 -107.5
t-58.5 -117t-154.5 -43t-160 64v4l26 24h5q47 -53 139 -53t136 50q24 28 24 67q0 66 -62.5 87t-161.5 -13l-18 14l61 108q-240 14 -387 178t-147 406q0 174 72.5 333t199.5 271q221 193 522 193q160 0 288 -64.5t202 -183.5l-2 -6l-33 -23h-6z" />
    <glyph glyph-name="Egrave" unicode="&#xc8;" 
d="M1210 1290h-731l-104 -596h573l-8 -41h-573l-107 -612h731l-8 -41h-776l235 1331h777zM655 1702l381 -225v-4l-14 -23h-4l-383 215l-2 4l18 33h4z" />
    <glyph glyph-name="Eacute" unicode="&#xc9;" 
d="M1210 1290h-731l-104 -596h573l-8 -41h-573l-107 -612h731l-8 -41h-776l235 1331h777zM1057 1704h4l16 -35l-2 -4l-383 -215h-4l-12 25v4z" />
    <glyph glyph-name="Ecircumflex" unicode="&#xca;" 
d="M1210 1290h-731l-104 -596h573l-8 -41h-573l-107 -612h731l-8 -41h-776l235 1331h777zM897 1661l229 -182v-4l-22 -25h-4l-217 156l-271 -156h-4l-14 25v4l295 182h8z" />
    <glyph glyph-name="Edieresis" unicode="&#xcb;" 
d="M1210 1290h-731l-104 -596h573l-8 -41h-573l-107 -612h731l-8 -41h-776l235 1331h777zM1005 1448q-27 0 -42 16.5t-15 43t23.5 49t50.5 22.5q55 0 55 -55q0 -31 -22.5 -53.5t-49.5 -22.5zM713 1448q-27 0 -42.5 16.5t-15.5 43t23.5 49t50.5 22.5q55 0 55 -55
q0 -31 -22 -53.5t-49 -22.5z" />
    <glyph glyph-name="Igrave" unicode="&#xcc;" horiz-adv-x="638" 
d="M811 1290h-236l-221 -1249h236l-8 -41h-516l8 41h235l221 1249h-235l10 41h514zM385 1702l381 -225v-4l-14 -23h-4l-383 215l-3 4l19 33h4z" />
    <glyph glyph-name="Iacute" unicode="&#xcd;" horiz-adv-x="638" 
d="M811 1290h-236l-221 -1249h236l-8 -41h-516l8 41h235l221 1249h-235l10 41h514zM786 1704h5l16 -35l-2 -4l-383 -215h-4l-12 25v4z" />
    <glyph glyph-name="Icircumflex" unicode="&#xce;" horiz-adv-x="638" 
d="M811 1290h-236l-221 -1249h236l-8 -41h-516l8 41h235l221 1249h-235l10 41h514zM627 1661l229 -182v-4l-22 -25h-5l-217 156l-270 -156h-4l-14 25v4l294 182h9z" />
    <glyph glyph-name="Idieresis" unicode="&#xcf;" horiz-adv-x="638" 
d="M811 1290h-236l-221 -1249h236l-8 -41h-516l8 41h235l221 1249h-235l10 41h514zM754 1579q53 0 53 -58q-1 -29 -23 -51t-49 -22t-42 16t-15 43t24 49t52 23zM442 1448q-27 0 -42 16t-15 43t24 49q25 22 51 23q54 0 54 -55q0 -31 -22 -54q-23 -22 -50 -22z" />
    <glyph glyph-name="Eth" unicode="&#xd0;" horiz-adv-x="1394" 
d="M1374 786q0 260 -145 392q-125 113 -361 112h-379l-104 -596h428l-8 -41h-428l-107 -612h379q318 0 506 176q219 207 219 569zM639 0h-422l115 653h-195l8 41h195l113 637h421q253 0 388 -123q158 -139 157 -415q0 -387 -237 -607q-205 -186 -543 -186z" />
    <glyph glyph-name="Ntilde" unicode="&#xd1;" horiz-adv-x="1452" 
d="M1436 1331h45l-236 -1331h-39l-733 1255l-221 -1255h-45l235 1331h39l731 -1255zM831 1589q57 0 159 -38t180 -38t128 76h7l18 -28v-5q-61 -84 -158 -83q-68 0 -179.5 37.5t-162.5 37.5q-82 0 -127 -75h-4l-22 28l2 4q61 84 159 84z" />
    <glyph glyph-name="Ograve" unicode="&#xd2;" horiz-adv-x="1554" 
d="M254 571q0 -233 156 -392t407 -159q250 0 434 140q135 102 209 258t74 342q0 233 -157 392t-407 159t-433 -140q-135 -102 -209 -258t-74 -342zM810 -25q-267 0 -435 169t-168 419q0 203 79 369t224 274q201 150 468 150t435 -169t168 -419q0 -203 -79 -369t-224 -274
q-201 -150 -468 -150zM801 1702l381 -225v-4l-15 -23h-4l-383 215l-2 4l19 33h4z" />
    <glyph glyph-name="Oacute" unicode="&#xd3;" horiz-adv-x="1554" 
d="M254 571q0 -233 156 -392t407 -159q250 0 434 140q135 102 209 258t74 342q0 233 -157 392t-407 159t-433 -140q-135 -102 -209 -258t-74 -342zM810 -25q-267 0 -435 169t-168 419q0 203 79 369t224 274q201 150 468 150t435 -169t168 -419q0 -203 -79 -369t-224 -274
q-201 -150 -468 -150zM1202 1704h4l17 -35l-2 -4l-383 -215h-4l-13 25v4z" />
    <glyph glyph-name="Ocircumflex" unicode="&#xd4;" horiz-adv-x="1554" 
d="M254 571q0 -233 156 -392t407 -159q250 0 434 140q135 102 209 258t74 342q0 233 -157 392t-407 159t-433 -140q-135 -102 -209 -258t-74 -342zM810 -25q-267 0 -435 169t-168 419q0 203 79 369t224 274q201 150 468 150t435 -169t168 -419q0 -203 -79 -369t-224 -274
q-201 -150 -468 -150zM1042 1661l230 -182v-4l-23 -25h-4l-217 156l-270 -156h-4l-15 25v4l295 182h8z" />
    <glyph glyph-name="Otilde" unicode="&#xd5;" horiz-adv-x="1554" 
d="M254 571q0 -233 156 -392t407 -159q250 0 434 140q135 102 209 258t74 342q0 233 -157 392t-407 159t-433 -140q-135 -102 -209 -258t-74 -342zM810 -25q-267 0 -435 169t-168 419q0 203 79 369t224 274q201 150 468 150t435 -169t168 -419q0 -203 -79 -369t-224 -274
q-201 -150 -468 -150zM854 1589q56 0 158 -38t181 -38t128 76h6l19 -28v-5q-61 -84 -158 -83q-68 -1 -180 37t-162 38q-82 0 -127 -75h-4l-23 28l2 4q62 84 160 84z" />
    <glyph glyph-name="Odieresis" unicode="&#xd6;" horiz-adv-x="1554" 
d="M254 571q0 -233 156 -392t407 -159q250 0 434 140q135 102 209 258t74 342q0 233 -157 392t-407 159t-433 -140q-135 -102 -209 -258t-74 -342zM810 -25q-267 0 -435 169t-168 419q0 203 79 369t224 274q201 150 468 150t435 -169t168 -419q0 -203 -79 -369t-224 -274
q-201 -150 -468 -150zM1169 1579q52 0 54 -55q-1 -32 -23 -54t-49 -22t-42 16t-15 43t24 49t51 23zM877 1579q51 0 53 -55q0 -32 -22 -54t-50 -22q-27 0 -42 16t-15 43q-1 27 23 49t53 23z" />
    <glyph glyph-name="multiply" unicode="&#xd7;" horiz-adv-x="1021" 
d="M330 1081l303 -387l438 387l23 -28l-439 -385l303 -385l-30 -27l-301 387l-441 -389l-24 27l442 389l-303 387z" />
    <glyph glyph-name="Oslash" unicode="&#xd8;" horiz-adv-x="1554" 
d="M1534 763q0 125 -50 235t-143 186l-862 -1063q143 -100 332 -101q383 1 592 299q131 191 131 444zM254 600q0 -293 190 -453l863 1063q-141 100 -330 101q-256 0 -440 -140q-135 -102 -209 -258q-74 -157 -74 -313zM207 563q0 203 79 369t224 274q201 150 475 150
q201 0 354 -107l162 201h49l2 -6l-180 -221q100 -80 154 -199t55 -256q0 -203 -79 -369t-224 -274q-201 -150 -475 -150q-203 0 -354 109l-150 -184h-49l-2 6l166 203q-207 173 -207 454z" />
    <glyph glyph-name="Ugrave" unicode="&#xd9;" horiz-adv-x="1370" 
d="M700 18q226 0 360 136t173 370l141 807h47l-143 -811q-48 -258 -192 -401t-394 -144q-162 0 -267 82t-132 228q-16 82 8 235l123 707q16 86 -49 86q-27 0 -58 -23l-6 2l-16 29l2 6q39 29 88 29t73 -32t11 -95l-123 -705q-25 -150 -6 -235q29 -127 123 -199t237 -72z
M711 1702l381 -225v-4l-15 -23h-4l-383 215l-2 4l19 33h4z" />
    <glyph glyph-name="Uacute" unicode="&#xda;" horiz-adv-x="1370" 
d="M700 18q226 0 360 136t173 370l141 807h47l-143 -811q-48 -258 -192 -401t-394 -144q-162 0 -267 82t-132 228q-16 82 8 235l123 707q16 86 -49 86q-27 0 -58 -23l-6 2l-16 29l2 6q39 29 88 29t73 -32t11 -95l-123 -705q-25 -150 -6 -235q29 -127 123 -199t237 -72z
M1112 1704h4l17 -35l-3 -4l-382 -215h-5l-12 25v4z" />
    <glyph glyph-name="Ucircumflex" unicode="&#xdb;" horiz-adv-x="1370" 
d="M700 18q226 0 360 136t173 370l141 807h47l-143 -811q-48 -258 -192 -401t-394 -144q-162 0 -267 82t-132 228q-16 82 8 235l123 707q16 86 -49 86q-27 0 -58 -23l-6 2l-16 29l2 6q39 29 88 29t73 -32t11 -95l-123 -705q-25 -150 -6 -235q29 -127 123 -199t237 -72z
M952 1661l230 -182v-4l-23 -25h-4l-217 156l-270 -156h-4l-15 25v4l295 182h8z" />
    <glyph glyph-name="Udieresis" unicode="&#xdc;" horiz-adv-x="1370" 
d="M700 18q226 0 360 136t173 370l141 807h47l-143 -811q-48 -258 -192 -401t-394 -144q-162 0 -267 82t-132 228q-16 82 8 235l123 707q16 86 -49 86q-27 0 -58 -23l-6 2l-16 29l2 6q39 29 88 29t73 -32t11 -95l-123 -705q-25 -150 -6 -235q29 -127 123 -199t237 -72z
M1079 1579q52 0 54 -55q-1 -32 -23 -54t-49 -22t-42 16t-15 43t24 49t51 23zM786 1579q52 0 54 -55q0 -32 -22 -54t-50 -22q-27 0 -42 16t-15 43q-1 27 23 49t52 23z" />
    <glyph glyph-name="Yacute" unicode="&#xdd;" horiz-adv-x="1318" 
d="M1462 1313q-61 0 -133 -90l-541 -654l-100 -569h-45l100 569l-309 654q-27 49 -47 69t-53 20t-62 -22l-6 2l-16 29l2 6q35 29 86 29t79 -25t60 -90l297 -629l516 627q53 65 92 91t86 26t76 -29l2 -6l-22 -29l-6 -2q-23 23 -56 23zM1112 1704h4l17 -35l-3 -4l-382 -215h-5
l-12 25v4z" />
    <glyph glyph-name="Thorn" unicode="&#xde;" horiz-adv-x="1114" 
d="M711 326q178 0 295 112q116 112 116 286q0 173 -136 247q-67 35 -155 35h-401l-121 -680h402zM831 1047q158 0 247 -85t89 -229q0 -197 -132 -323t-337 -125h-395l-51 -285h-45l235 1331h45l-51 -284h395z" />
    <glyph glyph-name="germandbls" unicode="&#xdf;" horiz-adv-x="1081" 
d="M598 14q184 0 301 102t117 285q0 147 -89 221t-245 74h-37l6 39h35q152 0 258 95q106 96 106 224t-77 196q-79 68 -199 67q-120 0 -202 -43q-160 -84 -197 -305l-170 -969h-41l172 971q33 184 143 284q111 101 276 101t251 -77t86 -204t-74 -223t-195 -133
q111 -27 172 -105t61 -193t-39 -203q-110 -240 -427 -241q-94 0 -164 35v6l18 31h5q53 -35 149 -35z" />
    <glyph glyph-name="agrave" unicode="&#xe0;" horiz-adv-x="1269" 
d="M219 408q0 -158 108 -276q109 -118 285 -118t290 92q114 91 174 220t60 258q1 259 -181 371q-87 54 -199 55q-199 0 -334 -117q-203 -170 -203 -485zM176 420q0 152 58 285t163 219q150 125 365 125q102 0 188 -43q175 -88 217 -297l56 315h41l-162 -922q-16 -88 47 -88
q36 0 65 25l7 -2l10 -27l-2 -6q-39 -29 -87 -29t-70 32t-11 95l29 164q-158 -289 -494 -291q-186 0 -303 126t-117 319zM938 1145h-4l-365 248v4l25 30h4l356 -258v-4z" />
    <glyph glyph-name="aacute" unicode="&#xe1;" horiz-adv-x="1269" 
d="M219 408q0 -158 108 -276q109 -118 285 -118t290 92q114 91 174 220t60 258q1 259 -181 371q-87 54 -199 55q-199 0 -334 -117q-203 -170 -203 -485zM176 420q0 152 58 285t163 219q150 125 365 125q102 0 188 -43q175 -88 217 -297l56 315h41l-162 -922q-16 -88 47 -88
q36 0 65 25l7 -2l10 -27l-2 -6q-39 -29 -87 -29t-70 32t-11 95l29 164q-158 -289 -494 -291q-186 0 -303 126t-117 319zM635 1145h-4l-15 24v5l357 258h4l22 -35v-4z" />
    <glyph glyph-name="acircumflex" unicode="&#xe2;" horiz-adv-x="1269" 
d="M219 408q0 -158 108 -276q109 -118 285 -118t290 92q114 91 174 220t60 258q1 259 -181 371q-87 54 -199 55q-199 0 -334 -117q-203 -170 -203 -485zM176 420q0 152 58 285t163 219q150 125 365 125q102 0 188 -43q175 -88 217 -297l56 315h41l-162 -922q-16 -88 47 -88
q36 0 65 25l7 -2l10 -27l-2 -6q-39 -29 -87 -29t-70 32t-11 95l29 164q-158 -289 -494 -291q-186 0 -303 126t-117 319zM547 1145h-4l-17 24v5l289 182h12l224 -182v-5l-25 -24h-4l-213 151z" />
    <glyph glyph-name="atilde" unicode="&#xe3;" horiz-adv-x="1269" 
d="M219 408q0 -158 108 -276q109 -118 285 -118t290 92q114 91 174 220t60 258q1 259 -181 371q-87 54 -199 55q-199 0 -334 -117q-203 -170 -203 -485zM176 420q0 152 58 285t163 219q150 125 365 125q102 0 188 -43q175 -88 217 -297l56 315h41l-162 -922q-16 -88 47 -88
q36 0 65 25l7 -2l10 -27l-2 -6q-39 -29 -87 -29t-70 32t-11 95l29 164q-158 -289 -494 -291q-186 0 -303 126t-117 319zM643 1280q53 0 147 -36t168 -36q72 0 119 72h6l15 -27v-6q-53 -80 -146 -80q-64 0 -166 36t-149 36q-74 0 -117 -72h-6l-20 29v6q61 78 149 78z" />
    <glyph glyph-name="adieresis" unicode="&#xe4;" horiz-adv-x="1269" 
d="M219 408q0 -158 108 -276q109 -118 285 -118t290 92q114 91 174 220t60 258q1 259 -181 371q-87 54 -199 55q-199 0 -334 -117q-203 -170 -203 -485zM176 420q0 152 58 285t163 219q150 125 365 125q102 0 188 -43q175 -88 217 -297l56 315h41l-162 -922q-16 -88 47 -88
q36 0 65 25l7 -2l10 -27l-2 -6q-39 -29 -87 -29t-70 32t-11 95l29 164q-158 -289 -494 -291q-186 0 -303 126t-117 319zM930 1272q54 0 55 -56q0 -26 -22 -49q-23 -22 -49 -22q-54 0 -54 56q0 27 22 49t48 22zM660 1145q-52 0 -54 55q0 28 23 50t49 22t40 -16q15 -16 15 -42
t-23 -48q-24 -21 -50 -21z" />
    <glyph glyph-name="aring" unicode="&#xe5;" horiz-adv-x="1269" 
d="M219 408q0 -158 108 -276q109 -118 285 -118t290 92q114 91 174 220t60 258q1 259 -181 371q-87 54 -199 55q-199 0 -334 -117q-203 -170 -203 -485zM176 420q0 152 58 285t163 219q150 125 365 125q102 0 188 -43q175 -88 217 -297l56 315h41l-162 -922q-16 -88 47 -88
q36 0 65 25l7 -2l10 -27l-2 -6q-39 -29 -87 -29t-70 32t-11 95l29 164q-158 -289 -494 -291q-186 0 -303 126t-117 319zM928 1302q0 48 -28 78t-82 31q-54 0 -90 -43t-36 -91t28 -78t81 -30t90 43q37 42 37 90zM796 1133q-66 -1 -106 37q-39 38 -39 105q-1 67 53 120t120 53
t104 -38t39 -104q-1 -66 -53 -119q-52 -54 -118 -54z" />
    <glyph glyph-name="ae" unicode="&#xe6;" horiz-adv-x="1867" 
d="M934 496q-140 88 -366 88q-82 0 -175.5 -34t-157 -107.5t-63.5 -183.5t79 -177.5t221.5 -67.5t276.5 96.5t162 251.5zM1864 765q0 108 -91.5 176.5t-259.5 68t-305 -100.5q-166 -121 -217 -334q197 -135 477 -135q96 0 187.5 34t150 108.5t58.5 182.5zM1440 401
q-117 0 -245 36t-212 95q-8 -53 -8 -106q0 -182 112.5 -297t305 -115t366.5 162h6l25 -22v-7q-78 -78 -185.5 -125t-230.5 -47q-170 0 -287.5 96.5t-146.5 254.5q-41 -156 -174 -253.5t-296 -97.5t-252 75t-89 200q0 166 129 269t334 103.5t346 -83.5q37 178 37 254
q0 106 -90 161.5t-207 55.5q-213 0 -381 -164h-6l-23 22l2 6q174 174 414 175q152 0 250 -80t80 -219q63 117 166 190q147 109 335.5 109t290 -78t101.5 -201q0 -182 -132 -275.5t-335 -93.5z" />
    <glyph glyph-name="ccedilla" unicode="&#xe7;" horiz-adv-x="1103" 
d="M581 -338q173 0 173 121q0 62 -62.5 83t-161.5 -13l-18 14l61 110q-182 16 -290.5 140.5t-108.5 290.5t63.5 296t174.5 218q161 127 368 127q133 0 237.5 -60.5t151.5 -161.5v-6l-28 -18h-6q-45 96 -140.5 151.5t-220.5 55.5q-193 0 -342 -121q-98 -80 -155.5 -202
t-57.5 -257q0 -190 109.5 -303t298.5 -113q119 0 222 51.5t179 141.5h6l25 -21v-6q-84 -98 -199 -151.5t-239 -53.5h-3l-36 -67l2 -4q94 20 153.5 -13.5t59.5 -107.5t-58.5 -117t-154.5 -43t-160 64v4l27 24h4q47 -53 126 -53z" />
    <glyph glyph-name="egrave" unicode="&#xe8;" horiz-adv-x="1112" 
d="M712 440q96 0 187.5 34t150 108.5t58.5 164t-41 145.5q-86 118 -281.5 117.5t-332.5 -100.5q-166 -121 -217 -334q197 -135 476 -135zM684 401q-117 0 -245 36t-212 95q-8 -53 -8 -106q0 -182 112.5 -297t305.5 -115t367 162h6l24 -22v-7q-172 -172 -416 -172
q-197 0 -319.5 124t-122.5 302.5t65.5 315.5t182.5 223q147 109 335.5 109t290 -78t101.5 -201q0 -182 -132 -275.5t-335 -93.5zM987 1145h-4l-365 248v4l25 30h4l357 -258v-4z" />
    <glyph glyph-name="eacute" unicode="&#xe9;" horiz-adv-x="1112" 
d="M712 440q96 0 187.5 34t150 108.5t58.5 164t-41 145.5q-86 118 -281.5 117.5t-332.5 -100.5q-166 -121 -217 -334q197 -135 476 -135zM684 401q-117 0 -245 36t-212 95q-8 -53 -8 -106q0 -182 112.5 -297t305.5 -115t367 162h6l24 -22v-7q-172 -172 -416 -172
q-197 0 -319.5 124t-122.5 302.5t65.5 315.5t182.5 223q147 109 335.5 109t290 -78t101.5 -201q0 -182 -132 -275.5t-335 -93.5zM684 1145h-4l-14 24v5l356 258h4l23 -35v-4z" />
    <glyph glyph-name="ecircumflex" unicode="&#xea;" horiz-adv-x="1112" 
d="M712 440q96 0 187.5 34t150 108.5t58.5 164t-41 145.5q-86 118 -281.5 117.5t-332.5 -100.5q-166 -121 -217 -334q197 -135 476 -135zM684 401q-117 0 -245 36t-212 95q-8 -53 -8 -106q0 -182 112.5 -297t305.5 -115t367 162h6l24 -22v-7q-172 -172 -416 -172
q-197 0 -319.5 124t-122.5 302.5t65.5 315.5t182.5 223q147 109 335.5 109t290 -78t101.5 -201q0 -182 -132 -275.5t-335 -93.5zM596 1145h-4l-17 24v5l289 182h13l223 -182v-5l-25 -24h-4l-213 151z" />
    <glyph glyph-name="edieresis" unicode="&#xeb;" horiz-adv-x="1112" 
d="M712 440q96 0 187.5 34t150 108.5t58.5 164t-41 145.5q-86 118 -281.5 117.5t-332.5 -100.5q-166 -121 -217 -334q197 -135 476 -135zM684 401q-117 0 -245 36t-212 95q-8 -53 -8 -106q0 -182 112.5 -297t305.5 -115t367 162h6l24 -22v-7q-172 -172 -416 -172
q-197 0 -319.5 124t-122.5 302.5t65.5 315.5t182.5 223q147 109 335.5 109t290 -78t101.5 -201q0 -182 -132 -275.5t-335 -93.5zM979 1272q55 0 55 -56q0 -26 -22 -48.5t-48 -22.5t-40.5 15.5t-14.5 41t21.5 48t48.5 22.5zM710 1145q-26 0 -40.5 16.5t-14.5 42t22.5 47
t48.5 21.5t41 -16.5t15 -42t-23 -47t-49 -21.5z" />
    <glyph glyph-name="igrave" unicode="&#xec;" horiz-adv-x="421" 
d="M293 -25q-47 0 -71 33t-13 94l143 816q16 92 -49 92q-33 0 -63 -25l-7 2l-10 27l2 6q39 29 84 29q106 0 84 -131l-143 -816q-16 -88 49 -88q35 0 61 23l7 -2l10 -25l-2 -6q-35 -29 -82 -29zM70 1427l356 -258v-4l-16 -20h-4l-365 248v4l25 30h4z" />
    <glyph glyph-name="iacute" unicode="&#xed;" horiz-adv-x="421" 
d="M293 -25q-47 0 -71 33t-13 94l143 816q16 92 -49 92q-33 0 -63 -25l-7 2l-10 27l2 6q39 29 84 29q106 0 84 -131l-143 -816q-16 -88 49 -88q35 0 61 23l7 -2l10 -25l-2 -6q-35 -29 -82 -29zM596 1432h4l23 -35v-4l-365 -248h-4l-14 24v5z" />
    <glyph glyph-name="icircumflex" unicode="&#xee;" horiz-adv-x="421" 
d="M292 -25q-46 0 -70 33t-13 94l143 816q16 92 -49 92q-33 0 -63 -25l-7 2l-10 27l2 6q39 29 84 29q106 0 84 -131l-143 -816q-16 -88 49 -88q35 0 61 23l7 -2l10 -25l-2 -6q-37 -29 -83 -29zM406 1356l200 -182v-5l-22 -24h-4l-191 151l-235 -151h-4l-15 24v5l260 182h11z
" />
    <glyph glyph-name="idieresis" unicode="&#xef;" horiz-adv-x="421" 
d="M293 -25q-47 0 -71 33t-13 94l143 816q16 92 -49 92q-33 0 -63 -25l-7 2l-10 27l2 6q39 29 84 29q106 0 84 -131l-143 -816q-16 -88 49 -88q35 0 61 23l7 -2l10 -25l-2 -6q-35 -29 -82 -29zM514 1272q54 0 55 -56q0 -26 -22 -48t-48 -23q-26 0 -40 15q-15 15 -15 41
q0 27 22 49t48 22zM262 1272q26 0 40 -16q15 -16 15 -42t-23 -48t-49 -21q-26 0 -40 16q-15 16 -15 42q0 25 23 47t49 22z" />
    <glyph glyph-name="eth" unicode="&#xf0;" horiz-adv-x="1095" 
d="M1047 526q1 158 -99 262t-254 105q-205 -1 -346 -149t-141 -361q0 -158 101 -262t255 -105q211 0 347 150t137 360zM572 -25q-188 0 -298 115q-111 115 -110 289q0 131 54 247t151 191q145 117 331 117q102 0 186 -43t134 -119q-45 176 -133 346l-246 -88l-4 4l6 29
l229 82q-63 119 -143 223v6l29 21h8q84 -111 149 -234l263 94l6 -4l-6 -28l-248 -88q174 -338 160 -607q0 -176 -110 -339q-34 -48 -77 -85q-143 -129 -331 -129z" />
    <glyph glyph-name="ntilde" unicode="&#xf1;" horiz-adv-x="1177" 
d="M1064 -25q-46 0 -69.5 33t-13.5 94l74 420q29 162 28 209q0 119 -81.5 199t-231 80t-271.5 -105.5t-153 -249.5l-117 -655h-41l162 918q16 92 -49 92q-33 0 -63 -25l-7 2l-10 27l2 6q39 29 77 29q112 0 93 -127l-18 -107q66 106 171 170t228 64q166 0 259 -87.5
t93 -224.5q0 -43 -30 -215l-74 -420q-16 -88 49 -88q35 0 62 23l6 -2l10 -25l-2 -6q-37 -29 -83 -29zM655 1280q53 0 147.5 -36t167.5 -36t120 72h6l14 -27v-6q-53 -80 -145 -80q-63 0 -166 36t-150 36q-74 0 -117 -72h-6l-20 29v6q61 78 149 78z" />
    <glyph glyph-name="ograve" unicode="&#xf2;" horiz-adv-x="1230" 
d="M637 14q240 0 397.5 168t157.5 410q0 178 -120 298t-304 120t-330 -113q-102 -80 -160.5 -203t-58.5 -262q0 -178 119 -298t299 -120zM631 -25q-197 0 -326 129t-129 322q0 154 64.5 287t177.5 219q152 117 356 117t333.5 -129t129.5 -324q0 -264 -173 -442t-433 -179z
M639 1427l356 -258v-4l-16 -20h-4l-365 248v4l25 30h4z" />
    <glyph glyph-name="oacute" unicode="&#xf3;" horiz-adv-x="1230" 
d="M637 14q240 0 397.5 168t157.5 410q0 178 -120 298t-304 120t-330 -113q-102 -80 -160.5 -203t-58.5 -262q0 -178 119 -298t299 -120zM631 -25q-197 0 -326 129t-129 322q0 154 64.5 287t177.5 219q152 117 356 117t333.5 -129t129.5 -324q0 -264 -173 -442t-433 -179z
M1014 1432h4l22 -35v-4l-364 -248h-4l-15 24v5z" />
    <glyph glyph-name="ocircumflex" unicode="&#xf4;" horiz-adv-x="1230" 
d="M637 14q240 0 397.5 168t157.5 410q0 178 -120 298t-304 120t-330 -113q-102 -80 -160.5 -203t-58.5 -262q0 -178 119 -298t299 -120zM631 -25q-197 0 -326 129t-129 322q0 154 64.5 287t177.5 219q152 117 356 117t333.5 -129t129.5 -324q0 -264 -173 -442t-433 -179z
M868 1356l224 -182v-5l-25 -24h-4l-213 151l-262 -151h-4l-17 24v5l289 182h12z" />
    <glyph glyph-name="otilde" unicode="&#xf5;" horiz-adv-x="1230" 
d="M637 14q240 0 397.5 168t157.5 410q0 178 -120 298t-304 120t-330 -113q-102 -80 -160.5 -203t-58.5 -262q0 -178 119 -298t299 -120zM631 -25q-197 0 -326 129t-129 322q0 154 64.5 287t177.5 219q152 117 356 117t333.5 -129t129.5 -324q0 -264 -173 -442t-433 -179z
M684 1280q53 0 147.5 -36t166.5 -36t120 72h6l15 -27v-6q-53 -80 -146 -80q-63 0 -165.5 36t-149.5 36q-74 0 -117 -72h-6l-20 29v6q61 78 149 78z" />
    <glyph glyph-name="odieresis" unicode="&#xf6;" horiz-adv-x="1230" 
d="M637 14q240 0 397.5 168t157.5 410q0 178 -120 298t-304 120t-330 -113q-102 -80 -160.5 -203t-58.5 -262q0 -178 119 -298t299 -120zM631 -25q-197 0 -326 129t-129 322q0 154 64.5 287t177.5 219q152 117 355.5 117t333.5 -129t130 -324q0 -264 -173 -442.5
t-433 -178.5zM971 1272q55 0 55 -56q0 -26 -22.5 -48.5t-48.5 -22.5q-54 1 -54 57q0 26 21.5 48t48.5 22zM701 1145q-26 0 -40 16.5t-14 42t22.5 47t48.5 21.5t41 -16.5t15 -42t-23.5 -47t-49.5 -21.5z" />
    <glyph glyph-name="divide" unicode="&#xf7;" horiz-adv-x="1085" 
d="M595 223q-54 1 -54 57q0 26 22 48q23 22 47 22t40 -16t16 -42t-22 -48t-49 -21zM264 637h787l-7 -37h-786zM711 879q-25 0 -39 15t-14 41q0 27 22 49q23 22 47 22q23 0 39 -16t16 -43q0 -26 -23 -47t-48 -21z" />
    <glyph glyph-name="oslash" unicode="&#xf8;" horiz-adv-x="1230" 
d="M1192 592q0 188 -131 309l-680 -805q109 -82 256 -82q239 0 397 169q158 170 158 409zM219 432q0 -188 131 -309l680 803q-111 84 -258 84q-188 0 -334 -113q-102 -80 -160.5 -203t-58.5 -262zM1264 1145v-4l-174 -205q147 -131 147 -340q0 -127 -46 -243.5t-130 -200.5
q-170 -176 -430 -177q-160 0 -279 88l-133 -157h-47l-2 4l152 178q-145 131 -146 338q0 154 64.5 287t177.5 219q152 117 360 117q160 0 281 -88l158 184h47z" />
    <glyph glyph-name="ugrave" unicode="&#xf9;" horiz-adv-x="1153" 
d="M1026 -25q-47 0 -70 32t-12 95l17 95q-63 -101 -161 -161t-218 -61q-168 0 -260 87t-93 233q0 49 27 194l78 433q16 88 -49 88q-33 0 -64 -25l-6 2l-10 27l2 6q39 29 84 29q106 0 84 -127l-78 -433q-25 -147 -25 -192q0 -123 81 -203t236 -80t265 109t141 272l111 629h41
l-162 -922q-16 -88 49 -88q35 0 64 25l6 -2l10 -27l-2 -6q-39 -29 -86 -29zM903 1145h-4l-364 248v4l24 30h4l357 -258v-4z" />
    <glyph glyph-name="uacute" unicode="&#xfa;" horiz-adv-x="1153" 
d="M1026 -25q-47 0 -70 32t-12 95l17 95q-63 -101 -161 -161t-218 -61q-168 0 -260 87t-93 233q0 49 27 194l78 433q16 88 -49 88q-33 0 -64 -25l-6 2l-10 27l2 6q39 29 84 29q106 0 84 -127l-78 -433q-25 -147 -25 -192q0 -123 81 -203t236 -80t265 109t141 272l111 629h41
l-162 -922q-16 -88 49 -88q35 0 64 25l6 -2l10 -27l-2 -6q-39 -29 -86 -29zM600 1145h-4l-14 24v5l356 258h4l23 -35v-4z" />
    <glyph glyph-name="ucircumflex" unicode="&#xfb;" horiz-adv-x="1153" 
d="M1026 -25q-47 0 -70 32t-12 95l17 95q-63 -101 -161 -161t-218 -61q-168 0 -260 87t-93 233q0 49 27 194l78 433q16 88 -49 88q-33 0 -64 -25l-6 2l-10 27l2 6q39 29 84 29q106 0 84 -127l-78 -433q-25 -147 -25 -192q0 -123 81 -203t236 -80t265 109t141 272l111 629h41
l-162 -922q-16 -88 49 -88q35 0 64 25l6 -2l10 -27l-2 -6q-39 -29 -86 -29zM512 1145h-4l-16 24v5l288 182h13l223 -182v-5l-25 -24h-4l-213 151z" />
    <glyph glyph-name="udieresis" unicode="&#xfc;" horiz-adv-x="1153" 
d="M1026 -25q-47 0 -70 32t-12 95l17 95q-63 -101 -161 -161t-218 -61q-168 0 -260 87t-93 233q0 49 27 194l78 433q16 88 -49 88q-33 0 -64 -25l-6 2l-10 27l2 6q39 29 84 29q106 0 84 -127l-78 -433q-25 -147 -25 -192q0 -123 81 -203t236 -80t265 109t141 272l111 629h41
l-162 -922q-16 -88 49 -88q35 0 64 25l6 -2l10 -27l-2 -6q-39 -29 -86 -29zM896 1272q54 0 54 -56q0 -26 -22 -48t-48 -23q-26 0 -40 15t-14 41q0 27 21 49q23 22 49 22zM642 1272q26 0 41 -16t15 -42t-23 -48t-49 -21q-26 0 -40 16t-14 42q0 25 22 47t48 22z" />
    <glyph glyph-name="yacute" unicode="&#xfd;" horiz-adv-x="1118" 
d="M236 360q0 49 26 195l66 367q16 88 -49 88q-33 0 -64 -25l-6 2l-10 27l2 6q35 29 84 29q106 0 84 -127l-66 -367q-25 -147 -24 -193q1 -126 77 -204t216 -78t225 58q164 113 204 327l97 559h41l-154 -877q-39 -223 -169 -340t-342 -117t-329 122l2 6l25 22h6
q116 -110 306 -110t308 112t152 310l23 118q-138 -229 -398 -229q-157 0 -245 87t-88 232zM567 1145h-4l-14 24v5l356 258h4l23 -35v-4z" />
    <glyph glyph-name="thorn" unicode="&#xfe;" horiz-adv-x="1245" 
d="M1206 596q0 178 -106 296t-274 118t-296 -95q-112 -79 -178 -209t-66 -264t48 -227q47 -94 135 -147q87 -54 199 -54t216 45t175 125q147 166 147 412zM835 1049q183 0 299 -126t115 -319q0 -127 -42 -244q-86 -240 -307 -335q-114 -49 -253 -49t-249 92
q-110 94 -138 245l-113 -653h-43l279 1565q16 92 -49 92q-33 0 -64 -25l-6 2l-10 27l2 6q39 29 86 29t71 -33t13 -94l-84 -467q66 117 188 202t305 85z" />
    <glyph glyph-name="ydieresis" unicode="&#xff;" horiz-adv-x="1118" 
d="M236 360q0 49 26 195l66 367q16 88 -49 88q-33 0 -64 -25l-6 2l-10 27l2 6q35 29 84 29q106 0 84 -127l-66 -367q-25 -147 -24 -193q1 -126 77 -204t216 -78t225 58q164 113 204 327l97 559h41l-154 -877q-39 -223 -169 -340t-342 -117t-329 122l2 6l25 22h6
q116 -110 306 -110t308 112t152 310l23 118q-138 -229 -398 -229q-157 0 -245 87t-88 232zM847 1145q-54 0 -54 56q-1 27 21 49t50 22q52 0 54 -56q0 -26 -22 -48t-49 -23zM593 1145q-54 0 -54 58q1 25 23 47t48 22t40 -16q16 -16 16 -42t-24 -48t-49 -21z" />
    <glyph glyph-name="Amacron" unicode="&#x100;" horiz-adv-x="1406" 
d="M418 387h712l-196 881zM1316 -25q-44 0 -75 27t-47 98l-55 246h-746l-143 -246q-73 -125 -168 -125q-41 0 -74 29v6l21 29l8 2q16 -23 51 -23q65 0 127 107l707 1206h45l268 -1206q11 -57 31 -82t53 -25t61 23l6 -2l13 -29l-2 -6q-37 -29 -81 -29zM1241 1511l-6 -36h-539
l6 36h539z" />
    <glyph glyph-name="amacron" unicode="&#x101;" horiz-adv-x="1269" 
d="M219 408q0 -158 108 -276q109 -118 285 -118t290 92q114 91 174 220t60 258q1 259 -181 371q-87 54 -199 55q-199 0 -334 -117q-203 -170 -203 -485zM176 420q0 152 58 285t163 219q150 125 365 125q102 0 188 -43q175 -88 217 -297l56 315h41l-162 -922q-16 -88 47 -88
q36 0 65 25l7 -2l10 -27l-2 -6q-39 -29 -87 -29t-70 32t-11 95l29 164q-158 -289 -494 -291q-186 0 -303 126t-117 319zM1063 1229l-6 -35h-531l6 35h531z" />
    <glyph glyph-name="Abreve" unicode="&#x102;" horiz-adv-x="1406" 
d="M418 387h712l-196 881zM1316 -25q-44 0 -75 27t-47 98l-55 246h-746l-143 -246q-73 -125 -168 -125q-41 0 -74 29v6l21 29l8 2q16 -23 51 -23q65 0 127 107l707 1206h45l268 -1206q11 -57 31 -82t53 -25t61 23l6 -2l13 -29l-2 -6q-37 -29 -81 -29zM966 1448
q-99 0 -157 63q-57 63 -53 166h41q-2 -86 46 -139t129 -53q80 0 148 53t97 139h40q-33 -102 -112 -166q-80 -63 -179 -63z" />
    <glyph glyph-name="abreve" unicode="&#x103;" horiz-adv-x="1269" 
d="M219 408q0 -158 108 -276q109 -118 285 -118t290 92q114 91 174 220t60 258q1 259 -181 371q-87 54 -199 55q-199 0 -334 -117q-203 -170 -203 -485zM176 420q0 152 58 285t163 219q150 125 365 125q102 0 188 -43q175 -88 217 -297l56 315h41l-162 -922q-16 -88 47 -88
q36 0 65 25l7 -2l10 -27l-2 -6q-39 -29 -87 -29t-70 32t-11 95l29 164q-158 -289 -494 -291q-186 0 -303 126t-117 319zM785 1145q-99 0 -157 63t-55 166h41q-2 -86 48 -139t130 -53q82 0 148 53t94 139h41q-31 -102 -110 -166q-81 -63 -180 -63z" />
    <glyph glyph-name="Aogonek" unicode="&#x104;" horiz-adv-x="1406" 
d="M418 387h712l-196 881zM88 18q65 0 127 107l707 1206h45l268 -1206q11 -57 31 -82t53 -25t61 23l6 -2l13 -29l-2 -6q-7 -4 -15 -9t-41 -28t-67 -44t-50 -42q-15 -20 -37 -48t-22 -73q0 -96 111 -96q68 0 121 49h6l12 -24l-2 -6q-116 -86 -216 -42q-71 29 -73 113
q0 49 31 94t65 72t85 55q-84 5 -111 125l-55 246h-746l-143 -246q-73 -125 -166 -125q-43 0 -76 29v6l21 29l8 2q16 -23 51 -23z" />
    <glyph glyph-name="aogonek" unicode="&#x105;" horiz-adv-x="1269" 
d="M219 408q0 -158 108 -276q109 -118 285 -118t290 92q114 91 174 220t60 258q1 259 -181 371q-87 54 -199 55q-199 0 -334 -117q-203 -170 -203 -485zM176 420q0 152 58 285t163 219q150 125 365 125q102 0 188 -43q175 -88 217 -297l56 315h41l-162 -922q-16 -88 47 -88
q37 0 65 25l7 -2l10 -27l-2 -6q-2 -2 -10 -7t-39 -25t-46 -32q-15 -11 -42 -30t-60 -61q-33 -41 -35 -89q0 -96 111 -96q68 0 121 49h6l12 -24l-2 -6q-74 -55 -140 -55t-108 31q-41 31 -41 99t50 119t131 98q-98 4 -76 127l29 164q-158 -289 -494 -291q-186 0 -303 126
t-117 319z" />
    <glyph glyph-name="Cacute" unicode="&#x106;" horiz-adv-x="1372" 
d="M1001 1356q160 0 288 -64.5t202 -183.5l-2 -6l-33 -23h-6q-68 111 -184.5 171.5t-264.5 60.5q-287 0 -495 -187q-119 -104 -185.5 -250.5t-66.5 -306.5q0 -236 145.5 -391.5t378.5 -155.5q145 0 283.5 65t241.5 169h6l26 -25l2 -6q-111 -117 -256 -182.5t-303 -65.5
q-254 0 -412.5 166t-158.5 418q0 174 72.5 333t199.5 271q221 193 522 193zM1217 1704h4l16 -35l-2 -4l-383 -215h-4l-12 25v4z" />
    <glyph glyph-name="cacute" unicode="&#x107;" horiz-adv-x="1103" 
d="M174 424q0 150 63.5 280t174.5 218q162 127 368 127q133 0 237.5 -60.5t151.5 -161.5v-6l-28 -18h-6q-45 96 -140.5 151.5t-220.5 55.5q-193 0 -342 -121q-98 -80 -155.5 -202t-57.5 -257q0 -190 109.5 -303t298.5 -113q242 0 401 193h6l25 -21v-6q-174 -205 -438 -205
q-203 0 -325 127t-122 322zM1006 1432h4l22 -35v-4l-364 -248h-4l-15 24v5z" />
    <glyph glyph-name="Cdotaccent" unicode="&#x10a;" horiz-adv-x="1372" 
d="M1001 1356q160 0 288 -64.5t202 -183.5l-2 -6l-33 -23h-6q-68 111 -184.5 171.5t-264.5 60.5q-287 0 -495 -187q-119 -104 -185.5 -250.5t-66.5 -306.5q0 -236 145.5 -391.5t378.5 -155.5q145 0 283.5 65t241.5 169h6l26 -25l2 -6q-111 -117 -256 -182.5t-303 -65.5
q-254 0 -412.5 166t-158.5 418q0 174 72.5 333t199.5 271q221 193 522 193zM1020 1448q-25 0 -40 16.5t-15 41t23.5 46t47.5 21.5t40 -15.5t16 -41t-23.5 -47t-48.5 -21.5z" />
    <glyph glyph-name="cdotaccent" unicode="&#x10b;" horiz-adv-x="1103" 
d="M174 424q0 150 63.5 280t174.5 218q162 127 368 127q133 0 237.5 -60.5t151.5 -161.5v-6l-28 -18h-6q-45 96 -140.5 151.5t-220.5 55.5q-193 0 -342 -121q-98 -80 -155.5 -202t-57.5 -257q0 -190 109.5 -303t298.5 -113q242 0 401 193h6l25 -21v-6q-174 -205 -438 -205
q-203 0 -325 127t-122 322zM820 1145q-26 0 -40 16.5t-14 42t22.5 47t48.5 21.5t41 -16.5t15 -42t-23.5 -47t-49.5 -21.5z" />
    <glyph glyph-name="Ccaron" unicode="&#x10c;" horiz-adv-x="1372" 
d="M1001 1356q160 0 288 -64.5t202 -183.5l-2 -6l-33 -23h-6q-68 111 -184.5 171.5t-264.5 60.5q-287 0 -495 -187q-119 -104 -185.5 -250.5t-66.5 -306.5q0 -236 145.5 -391.5t378.5 -155.5q145 0 283.5 65t241.5 169h6l26 -25l2 -6q-111 -117 -256 -182.5t-303 -65.5
q-254 0 -412.5 166t-158.5 418q0 174 72.5 333t199.5 271q221 193 522 193zM1300 1661l15 -25v-4l-295 -182h-8l-230 182v4l23 25h4l217 -156l270 156h4z" />
    <glyph glyph-name="ccaron" unicode="&#x10d;" horiz-adv-x="1103" 
d="M174 424q0 150 63.5 280t174.5 218q162 127 368 127q133 0 237.5 -60.5t151.5 -161.5v-6l-28 -18h-6q-45 96 -140.5 151.5t-220.5 55.5q-193 0 -342 -121q-98 -80 -155.5 -202t-57.5 -257q0 -190 109.5 -303t298.5 -113q242 0 401 193h6l25 -21v-6q-174 -205 -438 -205
q-203 0 -325 127t-122 322zM1096 1356l16 -25l-2 -4l-287 -182h-12l-225 182l2 4l24 25h4l211 -152l265 152h4z" />
    <glyph glyph-name="Dcaron" unicode="&#x10e;" horiz-adv-x="1384" 
d="M1364 786q0 260 -145 392q-125 113 -361 112h-379l-219 -1249h379q318 0 506 176q107 101 163 247t56 322zM1409 793q0 -387 -238 -607q-205 -186 -542 -186h-422l235 1331h422q252 0 387 -123q158 -139 158 -415zM889 1450h-8l-230 182v4l23 25h4l217 -156l270 156h4
l15 -25v-4z" />
    <glyph glyph-name="dcaron" unicode="&#x10f;" horiz-adv-x="1267" 
d="M1139 584q0 129 -47.5 223t-134.5 148.5t-199 54.5q-199 0 -334 -117q-203 -169 -203 -485q0 -158 107.5 -276t286 -117.5t303.5 98.5q102 82 161.5 212t59.5 259zM178 420q0 152 58.5 285t162.5 219q150 125 365 125q156 0 265.5 -93.5t137.5 -246.5l119 677l35 9l8 -4
l-227 -1289q-16 -88 49 -88q35 0 61 23l7 -2l10 -25l-2 -6q-37 -29 -83 -29t-69.5 33t-13.5 94l26 154q-154 -279 -489 -281q-186 0 -303 126t-117 319zM1585 1430l2 -5l-137 -323l-4 -4h-27l-2 4l121 323l6 5h41z" />
    <glyph glyph-name="Dcroat" unicode="&#x110;" horiz-adv-x="1394" 
d="M1374 786q0 260 -145 392q-125 113 -361 112h-379l-104 -596h428l-8 -41h-428l-107 -612h379q318 0 506 176q219 207 219 569zM639 0h-422l115 653h-195l8 41h195l113 637h421q253 0 388 -123q158 -139 157 -415q0 -387 -237 -607q-205 -186 -543 -186z" />
    <glyph glyph-name="dcroat" unicode="&#x111;" horiz-adv-x="1267" 
d="M1139 592q0 182 -105.5 300t-287.5 118t-322 -117q-92 -76 -147.5 -199t-55.5 -258q0 -186 105.5 -304t285.5 -118q320 1 464 306q62 131 63 272zM1151 14q35 0 61 23l7 -2l10 -25l-2 -6q-37 -29 -83 -29t-69.5 33t-13.5 94l26 154q-151 -280 -484 -280
q-196 0 -310.5 124.5t-114.5 327.5q0 143 58.5 276.5t162.5 219.5q152 125 336.5 125t294 -92.5t137.5 -249.5l84 483h-338l9 37h335l29 159l35 9l8 -4l-29 -164h111l-8 -37h-109l-192 -1088q-16 -88 49 -88z" />
    <glyph glyph-name="Emacron" unicode="&#x112;" 
d="M1210 1290h-731l-104 -596h573l-8 -41h-573l-107 -612h731l-8 -41h-776l235 1331h777zM600 1511h539l-6 -36h-539z" />
    <glyph glyph-name="emacron" unicode="&#x113;" horiz-adv-x="1112" 
d="M712 440q96 0 187.5 34t150 108.5t58.5 164t-41 145.5q-86 118 -281.5 117.5t-332.5 -100.5q-166 -121 -217 -334q197 -135 476 -135zM684 401q-117 0 -245 36t-212 95q-8 -53 -8 -106q0 -182 112.5 -297t305.5 -115t367 162h6l24 -22v-7q-172 -172 -416 -172
q-197 0 -319.5 124t-122.5 302.5t65.5 315.5t182.5 223q147 109 335.5 109t290 -78t101.5 -201q0 -182 -132 -275.5t-335 -93.5zM1112 1229l-6 -35h-531l7 35h530z" />
    <glyph glyph-name="Edotaccent" unicode="&#x116;" 
d="M1210 1290h-731l-104 -596h573l-8 -41h-573l-107 -612h731l-8 -41h-776l235 1331h777zM860 1448q-25 0 -40 16.5t-15 41t23.5 46t48 21.5t40 -15.5t15.5 -41t-23.5 -47t-48.5 -21.5z" />
    <glyph glyph-name="edotaccent" unicode="&#x117;" horiz-adv-x="1112" 
d="M712 440q96 0 187.5 34t150 108.5t58.5 164t-41 145.5q-86 118 -281.5 117.5t-332.5 -100.5q-166 -121 -217 -334q197 -135 476 -135zM684 401q-117 0 -245 36t-212 95q-8 -53 -8 -106q0 -182 112.5 -297t305.5 -115t367 162h6l24 -22v-7q-172 -172 -416 -172
q-197 0 -319.5 124t-122.5 302.5t65.5 315.5t182.5 223q147 109 335.5 109t290 -78t101.5 -201q0 -182 -132 -275.5t-335 -93.5zM837 1145q-26 0 -40.5 16.5t-14.5 42t22.5 47t48.5 21.5t41 -16.5t15 -42t-23 -47t-49 -21.5z" />
    <glyph glyph-name="Eogonek" unicode="&#x118;" 
d="M752 -244q0 -96 110 -96q68 0 121 49h6l12 -24l-2 -7q-74 -55 -140 -55t-107 32t-41 95q0 24 10 55t23.5 47.5t22.5 26.5t27.5 25.5t27.5 22.5t32 21.5t30 18.5t30.5 17.5t27.5 15.5h-735l235 1331h777l-9 -41h-731l-104 -596h573l-8 -41h-573l-107 -612h731l-8 -41
q-10 -8 -60.5 -40t-67.5 -47t-48 -44q-55 -51 -55 -113z" />
    <glyph glyph-name="eogonek" unicode="&#x119;" horiz-adv-x="1112" 
d="M712 440q96 0 187.5 34t150 108.5t58.5 182.5t-91 176.5t-259 68t-305 -100.5q-166 -121 -217 -334q197 -135 476 -135zM684 401q-117 0 -245 36t-212 95q-8 -53 -8 -106q0 -182 112.5 -297t305.5 -115t367 162h6l24 -22v-7q-82 -82 -192 -127q-12 -10 -50 -34.5
t-54 -35.5q-124 -82 -124 -171q0 -96 111 -96q68 0 121 49h6l12 -25l-2 -6q-74 -55 -140 -55t-107.5 31.5t-41.5 98.5t48.5 118t126.5 96q-63 -14 -130 -15q-197 0 -319.5 124t-122.5 302.5t65.5 315.5t182.5 223q147 109 335.5 109t290 -78t101.5 -201q0 -182 -132 -275.5
t-335 -93.5z" />
    <glyph glyph-name="Ecaron" unicode="&#x11a;" 
d="M1210 1290h-731l-104 -596h573l-8 -41h-573l-107 -612h731l-8 -41h-776l235 1331h777zM1141 1661l14 -25v-4l-295 -182h-8l-229 182v4l22 25h4l217 -156l271 156h4z" />
    <glyph glyph-name="ecaron" unicode="&#x11b;" horiz-adv-x="1112" 
d="M712 440q96 0 187.5 34t150 108.5t58.5 164t-41 145.5q-86 118 -281.5 117.5t-332.5 -100.5q-166 -121 -217 -334q197 -135 476 -135zM684 401q-117 0 -245 36t-212 95q-8 -53 -8 -106q0 -182 112.5 -297t305.5 -115t367 162h6l24 -22v-7q-172 -172 -416 -172
q-197 0 -319.5 124t-122.5 302.5t65.5 315.5t182.5 223q147 109 335.5 109t290 -78t101.5 -201q0 -182 -132 -275.5t-335 -93.5zM840 1145h-13l-225 182l2 4l25 25h4l211 -152l264 152h4l16 -25l-2 -4z" />
    <glyph glyph-name="Gbreve" unicode="&#x11e;" horiz-adv-x="1503" 
d="M985 1356q168 0 303 -66.5t205 -181.5l-2 -6l-33 -23h-6q-61 106 -187 169t-288 63q-256 0 -440 -140q-135 -102 -209 -257.5t-74 -342.5q0 -233 156.5 -392t411.5 -159t446.5 173.5t230.5 437.5h-598l8 41h637l4 -6q0 -18 -4 -39q-49 -319 -293 -502
q-201 -150 -455.5 -150t-422.5 169t-168 419q0 203 80 368.5t223 274.5q201 150 475 150zM996 1448q-99 0 -156.5 63.5t-53.5 165.5h41q-2 -86 46.5 -139t129 -53t148.5 53t96 139h41q-33 -102 -113 -165.5t-179 -63.5z" />
    <glyph glyph-name="gbreve" unicode="&#x11f;" horiz-adv-x="1173" 
d="M1057 650q0 109 -42 188.5t-124 125.5t-189 46q-180 0 -311 -113q-76 -68 -119 -166t-43 -203q0 -160 97.5 -259t252 -99t261 76t162 185.5t55.5 218.5zM1233 1010q-68 0 -84 -88l-135 -775q-39 -223 -169 -339.5t-345 -116.5q-289 0 -396 223l2 6l29 21h6
q43 -98 136.5 -154.5t230.5 -56.5q195 0 312.5 111.5t152.5 310.5l39 223q-70 -113 -188.5 -178.5t-248.5 -65.5q-174 0 -281.5 110.5t-107.5 282.5q0 117 49.5 224.5t123.5 171.5q151 130 348 129q141 0 240.5 -75t133.5 -200l27 148q23 127 125 127q45 0 74 -29l2 -6
l-19 -27h-6q-18 23 -51 23zM751 1145q-99 0 -157.5 63.5t-54.5 165.5h41q-2 -86 47 -139t130 -53t147.5 53t94.5 139h41q-31 -102 -110.5 -165.5t-178.5 -63.5z" />
    <glyph glyph-name="Gdotaccent" unicode="&#x120;" horiz-adv-x="1503" 
d="M985 1356q168 0 303 -66.5t205 -181.5l-2 -6l-33 -23h-6q-61 106 -187 169t-288 63q-256 0 -440 -140q-135 -102 -209 -257.5t-74 -342.5q0 -233 156.5 -392t411.5 -159t446.5 173.5t230.5 437.5h-598l8 41h637l4 -6q0 -18 -4 -39q-49 -319 -293 -502
q-201 -150 -455.5 -150t-422.5 169t-168 419q0 203 80 368.5t223 274.5q201 150 475 150zM993 1448q-25 0 -40 16.5t-15 41t23.5 46t48 21.5t40 -15.5t15.5 -41t-23.5 -47t-48.5 -21.5z" />
    <glyph glyph-name="gdotaccent" unicode="&#x121;" horiz-adv-x="1173" 
d="M1057 650q0 109 -42 188.5t-124 125.5t-189 46q-180 0 -311 -113q-76 -68 -119 -166t-43 -203q0 -160 97.5 -259t252 -99t261 76t162 185.5t55.5 218.5zM1233 1010q-68 0 -84 -88l-135 -775q-39 -223 -169 -339.5t-345 -116.5q-289 0 -396 223l2 6l29 21h6
q43 -98 136.5 -154.5t230.5 -56.5q195 0 312.5 111.5t152.5 310.5l39 223q-70 -113 -188.5 -178.5t-248.5 -65.5q-174 0 -281.5 110.5t-107.5 282.5q0 117 49.5 224.5t123.5 171.5q151 130 348 129q141 0 240.5 -75t133.5 -200l27 148q23 127 125 127q45 0 74 -29l2 -6
l-19 -27h-6q-18 23 -51 23zM753 1145q-26 0 -40.5 16.5t-14.5 42t22.5 47t48.5 21.5t41 -16.5t15 -42t-23 -47t-49 -21.5z" />
    <glyph glyph-name="Gcommaaccent" unicode="&#x122;" horiz-adv-x="1503" 
d="M797 -109l4 5h41l2 -5l-115 -264l-4 -4h-29l-2 4zM985 1356q168 0 303 -66.5t205 -181.5l-2 -6l-33 -23h-6q-61 106 -187 169t-288 63q-256 0 -440 -140q-135 -102 -209 -257.5t-74 -342.5q0 -233 156.5 -392t411.5 -159t446.5 173.5t230.5 437.5h-598l8 41h637l4 -6
q0 -18 -4 -39q-49 -319 -293 -502q-201 -150 -455.5 -150t-422.5 169t-168 419q0 203 80 368.5t223 274.5q201 150 475 150z" />
    <glyph glyph-name="gcommaaccent" unicode="&#x123;" horiz-adv-x="1173" 
d="M1057 650q0 109 -42 188.5t-124 125.5t-189 46q-180 0 -311 -113q-76 -68 -119 -166t-43 -203q0 -160 97.5 -259t252 -99t261 76t162 185.5t55.5 218.5zM1233 1010q-68 0 -84 -88l-135 -775q-39 -223 -169 -339.5t-345 -116.5q-289 0 -396 223l2 6l29 21h6
q43 -98 136.5 -154.5t230.5 -56.5q195 0 312.5 111.5t152.5 310.5l39 223q-70 -113 -188.5 -178.5t-248.5 -65.5q-174 0 -281.5 110.5t-107.5 282.5q0 117 49.5 224.5t123.5 171.5q151 130 348 129q141 0 240.5 -75t133.5 -200l27 148q23 127 125 127q45 0 74 -29l2 -6
l-19 -27h-6q-18 23 -51 23zM770 1153h-41l-2 4l115 264l4 4h28l3 -4l-103 -264z" />
    <glyph glyph-name="Hbar" unicode="&#x126;" horiz-adv-x="1409" 
d="M1282 694l45 256h-905l-45 -256h905zM1487 987l-8 -37h-107l-168 -950h-45l115 653h-905l-115 -653h-45l168 950h-113l6 37h113l61 344h45l-61 -344h905l62 344h45l-62 -344h109z" />
    <glyph glyph-name="hbar" unicode="&#x127;" horiz-adv-x="1191" 
d="M1041 -25q-45 0 -69 33t-14 94l74 420q29 162 29 209q0 119 -81 199q-82 80 -236 80t-275 -111t-152 -272l-110 -627h-41l203 1145h-148l8 37h146l16 92q16 92 -49 92q-33 0 -63 -25l-7 2l-10 27l2 6q39 29 85 29t70 -33t13 -94l-16 -96h315l-8 -37h-313l-60 -336
q66 109 172 175t251 65q145 0 238 -87t93 -225q0 -43 -31 -215l-74 -420q-16 -88 50 -88q35 0 61 23l6 -2l10 -25l-2 -6q-37 -29 -83 -29z" />
    <glyph glyph-name="Itilde" unicode="&#x128;" horiz-adv-x="638" 
d="M811 1290h-236l-221 -1249h236l-8 -41h-516l8 41h235l221 1249h-235l10 41h514zM459 1589q49 0 135 -38t153 -38t109 76h4l17 -28v-5q-51 -84 -136 -83q-57 -1 -151 37t-139 38q-68 0 -107 -75h-4l-18 28v4q53 84 137 84z" />
    <glyph glyph-name="itilde" unicode="&#x129;" horiz-adv-x="421" 
d="M293 -25q-47 0 -71 33t-13 94l143 816q16 92 -49 92q-33 0 -63 -25l-7 2l-10 27l2 6q39 29 84 29q106 0 84 -131l-143 -816q-16 -88 49 -88q35 0 61 23l7 -2l10 -25l-2 -6q-35 -29 -82 -29zM240 1280q47 0 133 -36t150 -36t108 72h6l12 -27v-6q-49 -80 -131 -80
q-57 0 -149 36t-136 36q-66 0 -104 -72h-6l-19 29v6q56 78 136 78z" />
    <glyph glyph-name="Imacron" unicode="&#x12a;" horiz-adv-x="638" 
d="M811 1290h-236l-221 -1249h236l-8 -41h-516l8 41h235l221 1249h-235l10 41h514zM354 1511h486l-6 -36h-486z" />
    <glyph glyph-name="imacron" unicode="&#x12b;" horiz-adv-x="421" 
d="M293 -25q-47 0 -71 33t-13 94l143 816q16 92 -49 92q-33 0 -63 -25l-7 2l-10 27l2 6q39 29 84 29q106 0 84 -131l-143 -816q-16 -88 49 -88q35 0 61 23l7 -2l10 -25l-2 -6q-35 -29 -82 -29zM139 1229h479l-6 -35h-477z" />
    <glyph glyph-name="Iogonek" unicode="&#x12e;" horiz-adv-x="638" 
d="M350 -244q0 -96 111 -96q68 0 121 49h6l12 -24l-2 -7q-74 -55 -140 -55t-108 32q-41 32 -41 93q-1 61 23 91q72 93 209 161h-475l8 41h235l221 1249h-235l10 41h514l-8 -41h-236l-221 -1249h236l-8 -41q-10 -8 -60 -40t-98 -73q-47 -41 -60 -71q-14 -29 -14 -60z" />
    <glyph glyph-name="iogonek" unicode="&#x12f;" horiz-adv-x="421" 
d="M309 1049q106 0 84 -131l-143 -816q-16 -88 49 -88q35 0 61 23l7 -2l10 -25l-2 -6q-4 -4 -13 -9q-10 -5 -48 -31t-54 -37q-118 -81 -121 -171q0 -96 111 -96q68 0 121 49h6l12 -24l-2 -7q-73 -55 -141 -55t-108 33t-40 89t32 102t67 72t88 56q-43 2 -65 35t-11 92
l143 816q16 92 -49 92q-33 0 -63 -25l-7 2l-10 27l2 6q39 29 84 29zM388 1272q26 0 41 -16t15 -42t-24 -48t-48 -22q-26 0 -40 17q-14 16 -14 42q0 25 22 47t48 22z" />
    <glyph glyph-name="Idotaccent" unicode="&#x130;" horiz-adv-x="638" 
d="M811 1290h-236l-221 -1249h236l-8 -41h-516l8 41h235l221 1249h-235l10 41h514zM535 1505q-1 25 23 47t48 21q24 0 40 -15t16 -41q0 -25 -24 -47t-48 -22q-25 0 -40 16t-15 41z" />
    <glyph glyph-name="dotlessi" unicode="&#x131;" horiz-adv-x="421" 
d="M293 -25q-47 0 -71 33t-13 94l143 816q16 92 -49 92q-33 0 -63 -25l-7 2l-10 27l2 6q39 29 84 29q106 0 84 -131l-143 -816q-16 -88 49 -88q35 0 61 23l7 -2l10 -25l-2 -6q-35 -29 -82 -29z" />
    <glyph glyph-name="IJ" unicode="&#x132;" horiz-adv-x="1615" 
d="M1167 1331h494l-176 -995q-29 -162 -147 -261t-275 -100q-229 0 -313 195l2 6l32 23h7q80 -180 280 -181q135 0 239 90t130 232l168 950h-449zM811 1290h-236l-221 -1249h236l-8 -41h-516l8 41h235l221 1249h-235l10 41h514z" />
    <glyph glyph-name="ij" unicode="&#x133;" horiz-adv-x="808" 
d="M825 1024l-176 -999q-23 -129 -75 -201t-144 -131h-6l-14 24l2 7q55 34 90 70q80 81 106 235l170 958h-143l6 37h184zM293 -25q-47 0 -71 33t-13 94l143 816q16 92 -49 92q-33 0 -63 -25l-7 2l-10 27l2 6q39 29 84 29q106 0 84 -131l-143 -816q-16 -88 49 -88q35 0 61 23
l7 -2l10 -25l-2 -6q-35 -29 -82 -29zM785 1145q-54 0 -54 58q0 25 23 47q22 22 48 22t41 -16t15 -42t-23 -48q-24 -21 -50 -21zM388 1272q26 0 41 -16t15 -42t-23 -48t-49 -21q-26 0 -40 16t-14 42q0 25 22 47t48 22z" />
    <glyph glyph-name="Kcommaaccent" unicode="&#x136;" horiz-adv-x="1110" 
d="M594 -104h41l2 -5l-115 -264l-4 -4h-29l-2 4l103 264zM1251 1331v-6l-690 -633l375 -583q57 -90 115 -91q31 0 59 23l6 -2l12 -29l-2 -6q-35 -29 -83 -29t-82.5 30t-75.5 95l-359 562l-180 -162l-88 -500h-45l217 1227q16 86 -49 86q-27 0 -57 -23l-7 2l-16 29l2 6
q39 29 88 29t72.5 -32t11.5 -95l-117 -664l840 766h53z" />
    <glyph glyph-name="kcommaaccent" unicode="&#x137;" horiz-adv-x="1046" 
d="M481 -104h41l2 -5l-114 -264l-4 -4h-29l-2 4l102 264zM684 461q98 0 176 41t120 112.5t42 168.5t-79 162t-204 65q-166 0 -280.5 -121t-147.5 -309l-20 -119h393zM352 809q134 240 400 240q136 0 224.5 -72t88.5 -191q0 -160 -108.5 -261t-280.5 -101h-37l192 -315
q55 -94 107 -95q33 1 51 17l6 -2l11 -25l-2 -6q-31 -23 -74 -23t-72 28t-72 97l-198 324h-305l-74 -424h-41l225 1274q16 92 -49 92q-33 0 -63 -25l-7 2l-10 27l2 6q39 29 85 29t69.5 -33t13.5 -94z" />
    <glyph glyph-name="kgreenlandic" unicode="&#x138;" horiz-adv-x="948" 
d="M896 -25q-42 0 -74 28t-74 97l-269 441l-213 -191l-61 -350h-41l180 1024h41l-109 -618l693 618h49l2 -4l-506 -451l279 -460q55 -94 108 -95q27 0 51 19l6 -2l11 -27l-2 -6q-29 -23 -71 -23z" />
    <glyph glyph-name="Lacute" unicode="&#x139;" horiz-adv-x="958" 
d="M920 41l-9 -41h-704l235 1331h45l-227 -1290h660zM823 1704h4l17 -35l-2 -4l-383 -215h-4l-13 25v4z" />
    <glyph glyph-name="lacute" unicode="&#x13a;" horiz-adv-x="405" 
d="M357 1405q46 0 70 -33t13 -94l-207 -1176q-16 -88 50 -88q33 0 61 23l6 -2l10 -25l-2 -6q-39 -29 -86 -29t-68.5 36t-10.5 91l206 1172q16 92 -49 92q-33 0 -63 -25l-6 2l-11 27l2 6q39 29 85 29zM674 1688h4l16 -35l-2 -4l-383 -215h-4l-12 24v4z" />
    <glyph glyph-name="Lcommaaccent" unicode="&#x13b;" horiz-adv-x="958" 
d="M555 -109l4 5h41l2 -5l-115 -264l-4 -4h-28l-2 4zM920 41l-9 -41h-704l235 1331h45l-227 -1290h660z" />
    <glyph glyph-name="lcommaaccent" unicode="&#x13c;" horiz-adv-x="405" 
d="M233 -125l5 4h41l2 -4l-115 -264l-4 -4h-29l-2 4zM357 1405q46 0 70 -33t13 -94l-207 -1176q-16 -88 50 -88q33 0 61 23l6 -2l10 -25l-2 -6q-39 -29 -86 -29t-68.5 36t-10.5 91l206 1172q16 92 -49 92q-33 0 -63 -25l-6 2l-11 27l2 6q39 29 85 29z" />
    <glyph glyph-name="Lcaron" unicode="&#x13d;" horiz-adv-x="958" 
d="M920 41l-9 -41h-704l235 1331h45l-227 -1290h660zM842 1425l6 5h41l2 -5l-137 -323l-6 -4h-25l-2 4z" />
    <glyph glyph-name="lcaron" unicode="&#x13e;" horiz-adv-x="413" 
d="M357 1405q46 0 70 -33t13 -94l-207 -1176q-16 -88 50 -88q33 0 61 23l6 -2l10 -25l-2 -6q-39 -29 -86 -29t-68.5 36t-10.5 91l206 1172q16 92 -49 92q-33 0 -63 -25l-6 2l-11 27l2 6q39 29 85 29zM647 1425l6 5h41l2 -5l-137 -323l-4 -4h-27l-2 4z" />
    <glyph glyph-name="Ldot" unicode="&#x13f;" horiz-adv-x="970" 
d="M732 651q-26 0 -41 16.5t-15 42.5t23.5 47t48 21t40 -16.5t15.5 -42t-22.5 -47t-48.5 -21.5zM920 41l-9 -41h-704l235 1331h45l-227 -1290h660z" />
    <glyph glyph-name="ldot" unicode="&#x140;" horiz-adv-x="417" 
d="M470 668q-26 0 -41 16t-15 42t22.5 47.5t48 21.5t41 -16.5t15.5 -42.5t-22.5 -47t-48.5 -21zM357 1405q46 0 70 -33t13 -94l-207 -1176q-16 -88 50 -88q33 0 61 23l6 -2l10 -25l-2 -6q-39 -29 -86 -29t-68.5 36t-10.5 91l206 1172q16 92 -49 92q-33 0 -63 -25l-6 2
l-11 27l2 6q39 29 85 29z" />
    <glyph glyph-name="Lslash" unicode="&#x141;" horiz-adv-x="1003" 
d="M301 41h662l-9 -41h-706l94 530l-244 -112l-6 4l6 35l252 116l133 758h45l-129 -735l363 170l6 -4l-6 -35l-371 -172z" />
    <glyph glyph-name="lslash" unicode="&#x142;" horiz-adv-x="555" 
d="M362 14q33 0 62 23l6 -2l10 -25l-2 -6q-39 -29 -86 -29t-68.5 36t-11.5 91l95 533l-228 -111l-6 4l4 29l236 115l106 602q16 92 -49 92q-33 0 -63 -25l-7 2l-10 27l2 6q39 29 85 29t69.5 -33t13.5 -94l-102 -586l229 113l6 -4l-4 -29l-237 -117l-99 -553q-16 -88 49 -88z
" />
    <glyph glyph-name="Nacute" unicode="&#x143;" horiz-adv-x="1452" 
d="M1436 1331h45l-236 -1331h-39l-733 1255l-221 -1255h-45l235 1331h39l731 -1255zM1180 1704h4l16 -35l-2 -4l-383 -215h-4l-12 25v4z" />
    <glyph glyph-name="nacute" unicode="&#x144;" horiz-adv-x="1177" 
d="M1064 -25q-46 0 -69.5 33t-13.5 94l74 420q29 162 28 209q0 119 -81.5 199t-231 80t-271.5 -105.5t-153 -249.5l-117 -655h-41l162 918q16 92 -49 92q-33 0 -63 -25l-7 2l-10 27l2 6q39 29 77 29q112 0 93 -127l-18 -107q66 106 171 170t228 64q166 0 259 -87.5
t93 -224.5q0 -43 -30 -215l-74 -420q-16 -88 49 -88q35 0 62 23l6 -2l10 -25l-2 -6q-37 -29 -83 -29zM647 1145h-4l-14 24v5l356 258h4l23 -35v-4z" />
    <glyph glyph-name="Ncommaaccent" unicode="&#x145;" horiz-adv-x="1452" 
d="M696 -109l4 5h41l2 -5l-114 -264l-4 -4h-29l-2 4zM1436 1331h45l-236 -1331h-39l-733 1255l-221 -1255h-45l235 1331h39l731 -1255z" />
    <glyph glyph-name="ncommaaccent" unicode="&#x146;" horiz-adv-x="1177" 
d="M586 -104h41l2 -5l-115 -264l-4 -4h-29l-2 4l103 264zM1064 -25q-46 0 -69.5 33t-13.5 94l74 420q29 162 28 209q0 119 -81.5 199t-231 80t-271.5 -105.5t-153 -249.5l-117 -655h-41l162 918q16 92 -49 92q-33 0 -63 -25l-7 2l-10 27l2 6q39 29 77 29q112 0 93 -127
l-18 -107q66 106 171 170t228 64q166 0 259 -87.5t93 -224.5q0 -43 -30 -215l-74 -420q-16 -88 49 -88q35 0 62 23l6 -2l10 -25l-2 -6q-37 -29 -83 -29z" />
    <glyph glyph-name="Ncaron" unicode="&#x147;" horiz-adv-x="1452" 
d="M1436 1331h45l-236 -1331h-39l-733 1255l-221 -1255h-45l235 1331h39l731 -1255zM1264 1661l14 -25v-4l-295 -182h-8l-230 182v4l23 25h4l217 -156l271 156h4z" />
    <glyph glyph-name="ncaron" unicode="&#x148;" horiz-adv-x="1177" 
d="M1064 -25q-46 0 -69.5 33t-13.5 94l74 420q29 162 28 209q0 119 -81.5 199t-231 80t-271.5 -105.5t-153 -249.5l-117 -655h-41l162 918q16 92 -49 92q-33 0 -63 -25l-7 2l-10 27l2 6q39 29 77 29q112 0 93 -127l-18 -107q66 106 171 170t228 64q166 0 259 -87.5
t93 -224.5q0 -43 -30 -215l-74 -420q-16 -88 49 -88q35 0 62 23l6 -2l10 -25l-2 -6q-37 -29 -83 -29zM803 1145h-12l-226 182l2 4l25 25h4l211 -152l264 152h4l17 -25l-2 -4z" />
    <glyph glyph-name="napostrophe" unicode="&#x149;" horiz-adv-x="1177" 
d="M1064 -25q-46 0 -69.5 33t-13.5 94l74 420q29 162 28 209q0 119 -81.5 199t-231 80t-271.5 -105.5t-153 -249.5l-117 -655h-41l162 918q16 92 -49 92q-33 0 -63 -25l-7 2l-10 27l2 6q39 29 77 29q112 0 93 -127l-18 -107q66 106 171 170t228 64q166 0 259 -87.5
t93 -224.5q0 -43 -30 -215l-74 -420q-16 -88 49 -88q35 0 62 23l6 -2l10 -25l-2 -6q-37 -29 -83 -29zM203 1149l-4 -4h-27l-2 4l115 278l4 5h43l2 -5z" />
    <glyph glyph-name="Eng" unicode="&#x14a;" horiz-adv-x="1452" 
d="M872 -377q-90 0 -166 40t-102 120l2 4l35 25h4q27 -74 93 -110t141 -36q119 0 203 72t112 211l10 55l-731 1251l-221 -1255h-45l235 1331h39l733 -1255l222 1255h45l-246 -1388q-29 -160 -127 -240t-236 -80z" />
    <glyph glyph-name="eng" unicode="&#x14b;" horiz-adv-x="1155" 
d="M774 1049q166 0 259 -87t93 -225q0 -59 -19 -157l-93 -525q-27 -153 -85 -231t-165 -131h-8l-11 28l5 9q100 50 149 118t74 209l82 465q29 162 28 209q0 119 -81 199q-82 80 -236 80t-276 -112t-150 -273l-111 -625h-41l162 918q16 92 -49 92q-33 0 -63 -25l-7 2l-10 27
l2 6q39 29 86 29t71 -33t13 -94l-18 -109q91 148 240 206q77 30 159 30z" />
    <glyph glyph-name="Omacron" unicode="&#x14c;" horiz-adv-x="1554" 
d="M254 571q0 -233 156 -392t407 -159q250 0 434 140q135 102 209 258t74 342q0 233 -157 392t-407 159t-433 -140q-135 -102 -209 -258t-74 -342zM810 -25q-267 0 -435 169t-168 419q0 203 79 369t224 274q201 150 468 150t435 -169t168 -419q0 -203 -79 -369t-224 -274
q-201 -150 -468 -150zM745 1511h539l-6 -36h-539z" />
    <glyph glyph-name="omacron" unicode="&#x14d;" horiz-adv-x="1230" 
d="M637 14q240 0 397.5 168t157.5 410q0 178 -120 298t-304 120t-330 -113q-102 -80 -160.5 -203t-58.5 -262q0 -178 119 -298t299 -120zM631 -25q-197 0 -326 129t-129 322q0 154 64.5 287t177.5 219q152 117 356 117t333.5 -129t129.5 -324q0 -264 -173 -442t-433 -179z
M573 1229h531l-6 -35h-531z" />
    <glyph glyph-name="Ohungarumlaut" unicode="&#x150;" horiz-adv-x="1554" 
d="M254 571q0 -233 156 -392t407 -159q250 0 434 140q135 102 209 258t74 342q0 233 -157 392t-407 159t-433 -140q-135 -102 -209 -258t-74 -342zM810 -25q-267 0 -435 169t-168 419q0 203 79 369t224 274q201 150 468 150t435 -169t168 -419q0 -203 -79 -369t-224 -274
q-201 -150 -468 -150zM1305 1749v-4l-226 -295h-35l-2 4l211 295h52zM1106 1749v-4l-225 -295h-35l-2 4l211 295h51z" />
    <glyph glyph-name="ohungarumlaut" unicode="&#x151;" horiz-adv-x="1230" 
d="M637 14q240 0 397.5 168t157.5 410q0 178 -120 298t-304 120t-330 -113q-102 -80 -160.5 -203t-58.5 -262q0 -178 119 -298t299 -120zM631 -25q-197 0 -326 129t-129 322q0 154 64.5 287t177.5 219q152 117 355.5 117t333.5 -129t130 -324q0 -264 -173 -442.5
t-433 -178.5zM1124 1470v-4l-219 -317l-6 -4h-31l-2 4l201 317l8 4h49zM924 1470v-4l-219 -317l-7 -4h-30l-2 4l200 317l8 4h50z" />
    <glyph glyph-name="OE" unicode="&#x152;" horiz-adv-x="2275" 
d="M1532 760q0 233 -156.5 392t-406.5 159t-434 -140q-135 -102 -209 -257.5t-74 -342.5q0 -233 156.5 -392t406.5 -158.5t434 139.5q135 102 209 257.5t74 342.5zM808 -25q-267 0 -435 169t-168 419q0 203 78.5 369t224.5 274q201 150 475 150q227 0 388 -133t198 -342
l80 450h776l-8 -41h-729l-105 -596h574l-9 -41h-573l-107 -612h730l-9 -41h-776l64 352q-78 -135 -201 -227q-201 -150 -468 -150z" />
    <glyph glyph-name="oe" unicode="&#x153;" horiz-adv-x="2119" 
d="M1701 440q116 0 207 34t149 109q59 75 59 183t-92 176t-259 68q-168 0 -305 -101q-166 -121 -217 -334q86 -59 214 -97t244 -38zM1192 592q0 178 -120 298t-304 120t-330 -113q-136 -102 -192 -285q-27 -88 -27 -180q0 -178 119 -298t299 -120q239 0 397 169
q158 170 158 409zM1692 401q-117 0 -245 36t-212 95q-8 -53 -8 -106q1 -182 113 -297t304 -115t367 162h6l25 -22v-7q-78 -79 -186 -125t-230 -47q-176 1 -295 103t-143 268q-68 -168 -216 -269t-343 -101t-324 128q-129 129 -129 322q0 154 65 287t177 219q152 117 344 117
q192 -1 317 -105t152 -268q66 170 213 271q148 101 330 101t283 -77q101 -78 102 -201q0 -182 -132 -276t-335 -93z" />
    <glyph glyph-name="Racute" unicode="&#x154;" horiz-adv-x="1167" 
d="M752 645q195 0 305 117q102 102 102 268q0 111 -68.5 185.5t-226.5 74.5h-385l-112 -645h385zM1052 -25q-48 -1 -76 15q-81 44 -123 239q-34 158 -57.5 216.5t-39.5 92.5q-31 66 -68 66h-330l-106 -604h-45l235 1331h426q174 0 260 -90q76 -76 76 -205q0 -186 -120 -305
t-318 -127q51 -45 129 -346q47 -188 97 -222q26 -18 60.5 -18t63.5 23l6 -2l13 -29l-2 -6q-35 -29 -81 -29zM645 1450h-4l-12 25v4l381 225h4l16 -35l-2 -4z" />
    <glyph glyph-name="racute" unicode="&#x155;" horiz-adv-x="659" 
d="M703 1049q88 0 126 -27v-6l-20 -29h-6q-41 23 -105 23q-121 0 -222 -102.5t-136 -284.5l-111 -623h-41l162 922q16 88 -49 88q-33 0 -63 -25l-7 2l-10 27l2 6q39 29 86 29t69.5 -32t12.5 -95l-14 -82q61 102 149.5 155.5t176.5 53.5zM414 1145h-4l-15 24v5l357 258h4
l22 -35v-4z" />
    <glyph glyph-name="Rcommaaccent" unicode="&#x156;" horiz-adv-x="1167" 
d="M565 -104h41l2 -5l-114 -264l-5 -4h-28l-2 4l102 264zM752 645q195 0 305 117q102 102 102 268q0 111 -68.5 185.5t-226.5 74.5h-385l-112 -645h385zM1052 -25q-48 -1 -76 15q-81 44 -123 239q-34 158 -57.5 216.5t-39.5 92.5q-31 66 -68 66h-330l-106 -604h-45l235 1331
h426q174 0 260 -90q76 -76 76 -205q0 -186 -120 -305t-318 -127q51 -45 129 -346q47 -188 97 -222q26 -18 60.5 -18t63.5 23l6 -2l13 -29l-2 -6q-35 -29 -81 -29z" />
    <glyph glyph-name="rcommaaccent" unicode="&#x157;" horiz-adv-x="659" 
d="M176 -104h41l2 -5l-115 -264l-4 -4h-28l-2 4l102 264zM703 1049q88 0 126 -27v-6l-20 -29h-6q-41 23 -105 23q-121 0 -222 -102.5t-136 -284.5l-111 -623h-41l162 922q16 88 -49 88q-33 0 -63 -25l-7 2l-10 27l2 6q39 29 86 29t69.5 -32t12.5 -95l-14 -82
q61 102 149.5 155.5t176.5 53.5z" />
    <glyph glyph-name="Rcaron" unicode="&#x158;" horiz-adv-x="1167" 
d="M752 645q195 0 305 117q102 102 102 268q0 111 -68.5 185.5t-226.5 74.5h-385l-112 -645h385zM1052 -25q-48 -1 -76 15q-81 44 -123 239q-34 158 -57.5 216.5t-39.5 92.5q-31 66 -68 66h-330l-106 -604h-45l235 1331h426q174 0 260 -90q76 -76 76 -205q0 -186 -120 -305
t-318 -127q51 -45 129 -346q47 -188 97 -222q26 -18 60.5 -18t63.5 23l6 -2l13 -29l-2 -6q-35 -29 -81 -29zM813 1450h-8l-230 182v4l23 25h4l217 -156l271 156h4l14 -25v-4z" />
    <glyph glyph-name="rcaron" unicode="&#x159;" horiz-adv-x="659" 
d="M702.5 1049q88.5 0 126.5 -27v-6l-20 -29h-6q-41 23 -105 23q-121 0 -222 -102.5t-136 -284.5l-111 -623h-41l162 922q16 88 -49 88q-33 0 -63 -25l-7 2l-10 27l2 6q39 29 84 29q104 0 84 -127l-14 -82q61 102 149 155.5t176.5 53.5zM834 1356l16 -25l-2 -4l-287 -182
h-12l-225 182l2 4l24 25h4l211 -152l264 152h5z" />
    <glyph glyph-name="Sacute" unicode="&#x15a;" horiz-adv-x="1001" 
d="M150 213q112 -193 390 -193q140 0 257.5 86.5t117.5 214t-93 204.5t-227 152t-203.5 149.5t-69.5 187.5q0 156 119.5 249t283.5 93q231 0 344 -166l-2 -6l-31 -25h-6q-100 152 -307 152q-143 0 -247.5 -80t-104.5 -207q0 -94 59 -161.5t178 -137.5q72 -36 95.5 -53
t62.5 -41.5t49 -33.5t40 -32.5t39 -38t27.5 -39t31 -69.5t12.5 -84q0 -154 -130.5 -256t-310.5 -103q-133 0 -246.5 55.5t-166.5 153.5v6l32 23h7zM977 1704h4l16 -35l-2 -4l-383 -215h-4l-12 25v4z" />
    <glyph glyph-name="sacute" unicode="&#x15b;" horiz-adv-x="823" 
d="M582 1049q195 0 276 -156v-6l-27 -17h-6q-84 139 -243 140q-121 0 -198 -63.5t-77 -168.5q0 -68 37 -109.5t92.5 -70t121.5 -59.5t92 -49q26 -16 66 -48q70 -55 70 -168q0 -150 -124 -235q-92 -63 -232 -64q-254 0 -330 185l2 6l27 14h6q70 -166 293 -166q139 0 227 70
t88 178t-60 153q-60 46 -136 83t-134.5 67.5t-102.5 77.5t-44 131q0 137 113 215q86 60 203 60zM788 1432h5l22 -35v-4l-364 -248h-5l-14 24v5z" />
    <glyph glyph-name="Scedilla" unicode="&#x15e;" horiz-adv-x="1001" 
d="M150 213q112 -193 390 -193q140 0 257.5 86.5t117.5 214t-93 204.5t-227 152t-203.5 149.5t-69.5 187.5q0 156 119.5 249t283.5 93q231 0 344 -166l-2 -6l-31 -25h-6q-100 152 -307 152q-143 0 -247.5 -80t-104.5 -207q0 -94 59 -161.5t178 -137.5q72 -36 95.5 -53
t62.5 -41.5t49 -33.5t40 -32.5t39 -38t27.5 -39t31 -69.5t12.5 -84q0 -154 -140 -264q-109 -85 -272 -95l-37 -67l2 -4q94 20 153.5 -13.5t59.5 -107.5t-58.5 -117t-154.5 -43t-160 64v4l27 24h4q47 -53 126 -53q173 0 173 121q0 62 -62.5 83t-160.5 -13l-19 14l60 108
q-127 4 -235.5 58.5t-159.5 150.5v6l32 23h7z" />
    <glyph glyph-name="scedilla" unicode="&#x15f;" horiz-adv-x="823" 
d="M413 -338q173 0 173 121q0 62 -62.5 83t-161.5 -13l-18 14l62 108q-233 10 -306 185l2 6l27 14h6q70 -166 293 -166q139 0 227 70t88 177.5t-60 153.5t-136 83t-134.5 67.5t-102.5 77.5t-44 131q0 137 113 215q86 60 203 60q195 0 276 -156v-6l-27 -17h-6
q-84 139 -243 140q-121 0 -198 -63.5t-77 -168.5q0 -68 37 -109.5t93.5 -71t106.5 -53.5t76 -37q166 -81 166 -232t-124 -236q-86 -59 -211 -64l-37 -67l2 -4q94 20 153.5 -13.5t59.5 -107.5t-58.5 -117t-154.5 -43t-160 64v4l27 24h4q47 -53 126 -53z" />
    <glyph glyph-name="Scaron" unicode="&#x160;" horiz-adv-x="1001" 
d="M150 213q112 -193 390 -193q140 0 257.5 86.5t117.5 214t-93 204.5t-227 152t-203.5 149.5t-69.5 187.5q0 156 119.5 249t283.5 93q231 0 344 -166l-2 -6l-31 -25h-6q-100 152 -307 152q-143 0 -247.5 -80t-104.5 -207q0 -94 59 -161.5t178 -137.5q72 -36 95.5 -53
t62.5 -41.5t49 -33.5t40 -32.5t39 -38t27.5 -39t31 -69.5t12.5 -84q0 -154 -130.5 -256t-310.5 -103q-133 0 -246.5 55.5t-166.5 153.5v6l32 23h7zM1061 1661l14 -25v-4l-295 -182h-8l-229 182v4l22 25h4l217 -156l271 156h4z" />
    <glyph glyph-name="scaron" unicode="&#x161;" horiz-adv-x="823" 
d="M582 1049q195 0 276 -156v-6l-27 -17h-6q-84 139 -243 140q-121 0 -198 -63.5t-77 -168.5q0 -68 37 -109.5t92.5 -70t121.5 -59.5t92 -49q26 -16 66 -48q70 -55 70 -168q0 -150 -124 -235q-92 -63 -232 -64q-254 0 -330 185l2 6l27 14h6q70 -166 293 -166q139 0 227 70
t88 178t-60 153q-60 46 -136 83t-134.5 67.5t-102.5 77.5t-44 131q0 137 113 215q86 60 203 60zM879 1356l16 -25l-2 -4l-287 -182h-12l-225 182l2 4l24 25h4l211 -152l264 152h5z" />
    <glyph glyph-name="uni0162" unicode="&#x162;" horiz-adv-x="993" 
d="M466 -338q173 0 173 121q0 62 -62.5 83t-160.5 -13l-19 14l74 133l227 1290h-442l8 41h934l-8 -41h-447l-227 -1290l-49 -92l2 -4q94 20 153.5 -13.5t59.5 -107.5t-58.5 -117t-154.5 -43t-160 64v4l27 24h4q47 -53 126 -53z" />
    <glyph glyph-name="uni0163" unicode="&#x163;" horiz-adv-x="618" 
d="M442 -338q172 0 172 121q0 62 -62.5 83t-160.5 -13l-18 14l61 110q-102 14 -147 104.5t-17 254.5l115 651h-182l6 37h182l58 324l34 8l6 -4l-57 -328h330l-6 -37h-330l-115 -651q-29 -162 16.5 -242t151.5 -80q66 0 115 33l6 -2l12 -27l-2 -6q-55 -35 -131 -37l-37 -67
l2 -4q94 20 153.5 -13.5t59.5 -107.5t-58 -117t-154 -43t-160 64v4l26 24h4q47 -53 127 -53z" />
    <glyph glyph-name="Tcaron" unicode="&#x164;" horiz-adv-x="993" 
d="M471 0l227 1290h-442l8 41h934l-8 -41h-447l-227 -1290h-45zM1040 1661l15 -25v-4l-295 -182h-8l-230 182v4l23 25h4l217 -156l270 156h4z" />
    <glyph glyph-name="tcaron" unicode="&#x165;" horiz-adv-x="618" 
d="M473 -25q-123 0 -178 91.5t-25 269.5l115 651h-182l6 37h182l58 324l34 8l6 -4l-57 -328h330l-6 -37h-330l-115 -651q-57 -322 168 -322q66 0 115 33l6 -2l12 -27l-2 -6q-57 -37 -137 -37zM711 1425l6 5h41l2 -5l-137 -323l-7 -4h-24l-2 4z" />
    <glyph glyph-name="Tbar" unicode="&#x166;" horiz-adv-x="993" 
d="M1190 1290h-447l-106 -604h229l-8 -37h-227l-115 -649h-45l115 649h-217l8 37h215l106 604h-442l8 41h934z" />
    <glyph glyph-name="tbar" unicode="&#x167;" horiz-adv-x="618" 
d="M479 14q66 0 115 33l6 -2l12 -27l-2 -6q-57 -37 -137 -37q-123 0 -178 91.5t-25 269.5l35 194h-178l8 37h176l74 420h-182l6 37h182l58 324l34 8l6 -4l-57 -328h330l-6 -37h-330l-74 -420h273l-9 -37h-270l-35 -194q-57 -322 168 -322z" />
    <glyph glyph-name="Utilde" unicode="&#x168;" horiz-adv-x="1370" 
d="M700 18q226 0 360 136t173 370l141 807h47l-143 -811q-48 -258 -192 -401t-394 -144q-162 0 -267 82t-132 228q-16 82 8 235l123 707q16 86 -49 86q-27 0 -58 -23l-6 2l-16 29l2 6q39 29 88 29t73 -32t11 -95l-123 -705q-25 -150 -6 -235q29 -127 123 -199t237 -72z
M764 1589q56 0 158 -38t181 -38t128 76h6l18 -28v-5q-61 -84 -157 -83q-68 -1 -180 37t-162 38q-82 0 -127 -75h-4l-23 28l2 4q62 84 160 84z" />
    <glyph glyph-name="utilde" unicode="&#x169;" horiz-adv-x="1153" 
d="M1026 -25q-47 0 -70 32t-12 95l17 95q-63 -101 -161 -161t-218 -61q-168 0 -260 87t-93 233q0 49 27 194l78 433q16 88 -49 88q-33 0 -64 -25l-6 2l-10 27l2 6q39 29 84 29q106 0 84 -127l-78 -433q-25 -147 -25 -192q0 -123 81 -203t236 -80t265 109t141 272l111 629h41
l-162 -922q-16 -88 49 -88q35 0 64 25l6 -2l10 -27l-2 -6q-39 -29 -86 -29zM608 1280q54 0 148 -36t167 -36t119 72h7l14 -27v-6q-53 -80 -145 -80q-64 0 -166 36t-150 36q-74 0 -117 -72h-6l-20 29v6q61 78 149 78z" />
    <glyph glyph-name="Umacron" unicode="&#x16a;" horiz-adv-x="1370" 
d="M700 18q226 0 360 136t173 370l141 807h47l-143 -811q-48 -258 -192 -401t-394 -144q-162 0 -267 82t-132 228q-16 82 8 235l123 707q16 86 -49 86q-27 0 -58 -23l-6 2l-16 29l2 6q39 29 88 29t73 -32t11 -95l-123 -705q-25 -150 -6 -235q29 -127 123 -199t237 -72z
M655 1511h539l-6 -36h-539z" />
    <glyph glyph-name="umacron" unicode="&#x16b;" horiz-adv-x="1153" 
d="M1026 -25q-47 0 -70 32t-12 95l17 95q-63 -101 -161 -161t-218 -61q-168 0 -260 87t-93 233q0 49 27 194l78 433q16 88 -49 88q-33 0 -64 -25l-6 2l-10 27l2 6q39 29 84 29q106 0 84 -127l-78 -433q-25 -147 -25 -192q0 -123 81 -203t236 -80t265 109t141 272l111 629h41
l-162 -922q-16 -88 49 -88q35 0 64 25l6 -2l10 -27l-2 -6q-39 -29 -86 -29zM1028 1229l-6 -35h-530l6 35h530z" />
    <glyph glyph-name="Uring" unicode="&#x16e;" horiz-adv-x="1370" 
d="M700 18q226 0 360 136t173 370l141 807h47l-143 -811q-48 -258 -192 -401t-394 -144q-162 0 -267 82t-132 228q-16 82 8 235l123 707q16 86 -49 86q-27 0 -58 -23l-6 2l-16 29l2 6q39 29 88 29t73 -32t11 -95l-123 -705q-25 -150 -6 -235q29 -127 123 -199t237 -72z
M817 1588q0 -48 30 -78t83 -29q53 0 88 43t35 90t-29 78q-29 30 -83 30t-89 -43t-35 -91zM946 1759q66 0 106 -38q40 -39 40 -105t-50 -119t-116 -53t-109 38q-41 38 -41 104t52 120q52 53 118 53z" />
    <glyph glyph-name="uring" unicode="&#x16f;" horiz-adv-x="1153" 
d="M1026 -25q-47 0 -70 32t-12 95l17 95q-63 -101 -161 -161t-218 -61q-168 0 -260 87t-93 233q0 49 27 194l78 433q16 88 -49 88q-33 0 -64 -25l-6 2l-10 27l2 6q39 29 84 29q106 0 84 -127l-78 -433q-25 -147 -25 -192q0 -123 81 -203t236 -80t265 109t141 272l111 629h41
l-162 -922q-16 -88 49 -88q35 0 64 25l6 -2l10 -27l-2 -6q-39 -29 -86 -29zM893 1302q0 48 -29 78t-82 31q-53 0 -89 -43t-36 -91t28 -78t81 -30t90 43q37 42 37 90zM762 1133q-66 0 -107 37q-39 38 -39 105t54 120t120 53t104 -38t38 -104t-52 -119q-52 -54 -118 -54z" />
    <glyph glyph-name="Uhungarumlaut" unicode="&#x170;" horiz-adv-x="1370" 
d="M700 18q226 0 360 136t173 370l141 807h47l-143 -811q-48 -258 -192 -401t-394 -144q-162 0 -267 82t-132 228q-16 82 8 235l123 707q16 86 -49 86q-27 0 -58 -23l-6 2l-16 29l2 6q39 29 88 29t73 -32t11 -95l-123 -705q-25 -150 -6 -235q29 -127 123 -199t237 -72z
M1214 1749v-4l-225 -295h-35l-2 4l211 295h51zM1016 1749v-4l-225 -295h-35l-2 4l211 295h51z" />
    <glyph glyph-name="uhungarumlaut" unicode="&#x171;" horiz-adv-x="1153" 
d="M1026 -25q-47 0 -70 32t-12 95l17 95q-63 -101 -161 -161t-218 -61q-168 0 -260 87t-93 233q0 49 27 194l78 433q16 88 -49 88q-33 0 -64 -25l-6 2l-10 27l2 6q39 29 84 29q106 0 84 -127l-78 -433q-25 -147 -25 -192q0 -123 81 -203t236 -80t265 109t141 272l111 629h41
l-162 -922q-16 -88 49 -88q35 0 64 25l6 -2l10 -27l-2 -6q-39 -29 -86 -29zM1049 1470v-4l-220 -317l-6 -4h-30l-2 4l200 317l8 4h50zM848 1470v-4l-219 -317l-6 -4h-31l-2 4l201 317l8 4h49z" />
    <glyph glyph-name="Uogonek" unicode="&#x172;" horiz-adv-x="1370" 
d="M647 -244q0 -96 111 -96q68 0 121 49h6l12 -24l-2 -7q-74 -55 -140 -55t-108 32q-41 32 -41 84q0 91 63 147t142 98q-57 -8 -119 -9q-162 0 -267 82t-132 228q-16 82 8 235l123 707q16 86 -49 86q-27 0 -58 -23l-6 2l-16 29l2 6q39 29 88 29t73 -32t11 -95l-123 -705
q-25 -150 -6 -235q29 -127 123 -199t237 -72q226 0 360 136t173 370l141 807h47l-143 -811q-47 -258 -191 -399q-86 -86 -208 -121q-11 -8 -61 -41q-137 -90 -160 -145q-11 -27 -11 -58z" />
    <glyph glyph-name="uogonek" unicode="&#x173;" horiz-adv-x="1153" 
d="M840 -242q0 68 50 119t130 98q-96 6 -76 127l17 95q-63 -101 -161 -161t-218 -61q-168 0 -260 87t-93 233q0 47 27 194l78 433q16 88 -49 88q-33 0 -64 -25l-6 2l-10 27l2 6q39 29 78 29q70 0 89 -56q9 -29 1 -71l-78 -433q-25 -147 -25 -192q0 -123 81 -203t236 -80
t265 109t141 272l111 629h41l-162 -922q-16 -88 49 -88q35 0 64 25l6 -2l10 -27l-2 -6q-4 -2 -11 -7t-82 -55t-106 -92q-32 -42 -32 -90q0 -96 110 -96q68 0 121 49h6l12 -24l-2 -6q-74 -55 -140 -55t-107 31t-41 99z" />
    <glyph glyph-name="Wcircumflex" unicode="&#x174;" horiz-adv-x="1970" 
d="M2122 1313q-49 0 -103 -107l-614 -1206h-45l-141 1247l-584 -1247h-45l-191 1206q-16 106 -69 107q-31 0 -60 -23l-6 2l-16 29l2 6q35 29 88 29q88 0 106 -123l179 -1157l583 1255h49l140 -1251l587 1153q61 123 150 123q45 0 74 -29l2 -6l-23 -29l-6 -2q-27 23 -57 23z
M1288 1661l230 -182v-4l-23 -25h-4l-217 156l-270 -156h-5l-14 25v4l295 182h8z" />
    <glyph glyph-name="wcircumflex" unicode="&#x175;" horiz-adv-x="1728" 
d="M297 1049q106 0 82 -127l-100 -572q-27 -156 49 -246t219 -90t247 98t132 259l116 653h41l-114 -641q-29 -160 40 -264t212 -105q173 0 287 128t156 328t27 352q-15 153 -75 229l2 6l31 20h6q61 -85 79 -241t-26 -372q-43 -216 -173 -352t-323 -137q-122 0 -198 71
t-90 187q-54 -121 -156 -189t-229 -69q-162 -1 -246 103t-53 282l98 562q16 88 -47 88q-33 0 -64 -25l-6 2l-10 27l2 6q39 29 84 29zM1126 1356l224 -182v-5l-25 -24h-4l-213 151l-262 -151h-4l-17 24v5l289 182h12z" />
    <glyph glyph-name="Ycircumflex" unicode="&#x176;" horiz-adv-x="1318" 
d="M1462 1313q-61 0 -133 -90l-541 -654l-100 -569h-45l100 569l-309 654q-27 49 -47 69t-53 20t-62 -22l-6 2l-16 29l2 6q35 29 86 29t79 -25t60 -90l297 -629l516 627q53 65 92 91t86 26t76 -29l2 -6l-22 -29l-6 -2q-23 23 -56 23zM952 1661l230 -182v-4l-23 -25h-4
l-217 156l-270 -156h-4l-15 25v4l295 182h8z" />
    <glyph glyph-name="ycircumflex" unicode="&#x177;" horiz-adv-x="1118" 
d="M236 360q0 49 26 195l66 367q16 88 -49 88q-33 0 -64 -25l-6 2l-10 27l2 6q35 29 84 29q106 0 84 -127l-66 -367q-25 -147 -24 -193q1 -126 77 -204t216 -78t225 58q164 113 204 327l97 559h41l-154 -877q-39 -223 -169 -340t-342 -117t-329 122l2 6l25 22h6
q116 -110 306 -110t308 112t152 310l23 118q-138 -229 -398 -229q-157 0 -245 87t-88 232zM479 1145h-4l-16 24v5l289 182h12l223 -182v-5l-25 -24h-4l-213 151z" />
    <glyph glyph-name="Ydieresis" unicode="&#x178;" horiz-adv-x="1318" 
d="M1462 1313q-61 0 -133 -90l-541 -654l-100 -569h-45l100 569l-309 654q-27 49 -47 69t-53 20t-62 -22l-6 2l-16 29l2 6q35 29 86 29t79 -25t60 -90l297 -629l516 627q53 65 92 91t86 26t76 -29l2 -6l-22 -29l-6 -2q-23 23 -56 23zM1079 1579q52 0 54 -55q-1 -32 -23 -54
t-49 -22t-42 16t-15 43t24 49t51 23zM786 1579q52 0 54 -55q0 -32 -22 -54t-50 -22q-27 0 -42 16t-15 43q-1 27 23 49t52 23z" />
    <glyph glyph-name="Zacute" unicode="&#x179;" horiz-adv-x="1083" 
d="M1040 125q0 -55 -36 -90t-107 -35h-844l-2 6l6 35l1094 1249h-875l9 41h927l2 -6l-6 -35l-1095 -1249h788q96 0 96 86q0 29 -10 43l2 6l33 17q18 -13 18 -68zM932 1704h4l16 -35l-2 -4l-383 -215h-4l-12 25v4z" />
    <glyph glyph-name="zacute" unicode="&#x17a;" horiz-adv-x="868" 
d="M709 37q100 0 100 84q0 27 -12 45l2 6l28 14l7 -2q14 -30 14 -72t-38 -77t-105 -35h-642l-4 8l4 29l836 950h-670l7 37h712l4 -8l-6 -29l-833 -950h596zM801 1432h4l22 -35v-4l-364 -248h-4l-15 24v5z" />
    <glyph glyph-name="Zdotaccent" unicode="&#x17b;" horiz-adv-x="1083" 
d="M1040 125q0 -55 -36 -90t-107 -35h-844l-2 6l6 35l1094 1249h-875l9 41h927l2 -6l-6 -35l-1095 -1249h788q96 0 96 86q0 29 -10 43l2 6l33 17q18 -13 18 -68zM680 1505q0 25 24 47t48 21q24 0 40 -15t15 -41q1 -25 -23 -47t-49 -22t-40 16t-15 41z" />
    <glyph glyph-name="zdotaccent" unicode="&#x17c;" horiz-adv-x="868" 
d="M709 37q100 0 100 84q0 27 -12 45l2 6l28 14l7 -2q14 -30 14 -72t-38 -77t-105 -35h-642l-4 8l4 29l836 950h-670l7 37h712l4 -8l-6 -29l-833 -950h596zM615 1145q-54 0 -54 58q0 25 23 47q22 22 48 22t41 -16t15 -42t-23 -48q-24 -21 -50 -21z" />
    <glyph glyph-name="Zcaron" unicode="&#x17d;" horiz-adv-x="1083" 
d="M1040 125q0 -55 -36 -90t-107 -35h-844l-2 6l6 35l1094 1249h-875l9 41h927l2 -6l-6 -35l-1095 -1249h788q96 0 96 86q0 29 -10 43l2 6l33 17q18 -13 18 -68zM1016 1661l14 -25v-4l-295 -182h-8l-229 182v4l22 25h4l217 -156l271 156h4z" />
    <glyph glyph-name="zcaron" unicode="&#x17e;" horiz-adv-x="868" 
d="M709 37q100 0 100 84q0 27 -12 45l2 6l28 14l7 -2q14 -30 14 -72t-38 -77t-105 -35h-642l-4 8l4 29l836 950h-670l7 37h712l4 -8l-6 -29l-833 -950h596zM891 1356l16 -25l-2 -4l-287 -182h-12l-225 182l2 4l25 25h4l211 -152l264 152h4z" />
    <glyph glyph-name="uni01EA" unicode="&#x1ea;" horiz-adv-x="1554" 
d="M1534 760q0 233 -157 392t-407 159t-433 -140q-135 -102 -209 -258t-74 -342q0 -233 157 -392t407 -159t431 139q182 138 251 365q34 113 34 236zM978 1356q267 0 435 -169t168 -419q0 -203 -79 -369t-215 -267t-296 -136q-101 -61 -154 -110q-53 -50 -65 -76t-12 -58
q0 -96 110 -96q70 0 121 49h6l13 -24l-2 -7q-74 -55 -140 -55t-108 32q-41 32 -41 85q0 96 76 158q53 45 135 90q-61 -8 -127 -9q-260 0 -428 169t-168 419q0 203 79 369t224 274q201 150 468 150z" />
    <glyph glyph-name="uni01EB" unicode="&#x1eb;" horiz-adv-x="1230" 
d="M1192 592q0 178 -120 298t-304 120t-330 -113q-102 -80 -160.5 -203t-58.5 -262q0 -178 119 -298t299 -120q239 0 397 169.5t158 408.5zM773 1049q204 0 334 -129t130 -324q0 -266 -179 -449q-87 -89 -212 -135q-14 -8 -51 -34q-37 -24 -55 -36q-124 -82 -124 -171
q0 -96 111 -97q68 0 121 50h6l12 -25l-2 -6q-74 -55 -140 -55t-107.5 31.5t-41.5 88.5t32 102.5t67 72t88 55.5q-63 -12 -131 -13q-197 0 -326 129t-129 322q0 154 64.5 287t177.5 219q151 117 355 117z" />
    <glyph glyph-name="AEacute" unicode="&#x1fc;" horiz-adv-x="1843" 
d="M979 387l160 897l-781 -897h621zM1915 1290h-731l-105 -596h574l-8 -41h-574l-106 -612h731l-8 -41h-777l62 346h-651l-302 -346h-45l1149 1331h799zM1425 1450h-4l-12 25v4l381 225h4l16 -35l-2 -4z" />
    <glyph glyph-name="aeacute" unicode="&#x1fd;" horiz-adv-x="1867" 
d="M934 496q-140 88 -366 88q-82 0 -175.5 -34t-157 -107.5t-63.5 -183.5t79 -177.5t221.5 -67.5t276.5 96.5t162 251.5zM1864 765q0 108 -91.5 176.5t-259.5 68t-305 -100.5q-166 -121 -217 -334q197 -135 477 -135q96 0 187.5 34t150 108.5t58.5 182.5zM1440 401
q-117 0 -245 36t-212 95q-8 -53 -8 -106q0 -182 112.5 -297t305 -115t366.5 162h6l25 -22v-7q-78 -78 -185.5 -125t-230.5 -47q-170 0 -287.5 96.5t-146.5 254.5q-41 -156 -174 -253.5t-296 -97.5t-252 75t-89 200q0 166 129 269t334 103.5t346 -83.5q37 178 37 254
q0 106 -90 161.5t-207 55.5q-213 0 -381 -164h-6l-23 22l2 6q174 174 414 175q152 0 250 -80t80 -219q63 117 166 190q147 109 335.5 109t290 -78t101.5 -201q0 -182 -132 -275.5t-335 -93.5zM913 1145h-4l-14 24v5l356 258h4l23 -35v-4z" />
    <glyph glyph-name="Oslashacute" unicode="&#x1fe;" horiz-adv-x="1554" 
d="M1534 763q0 125 -50 235t-143 186l-862 -1063q143 -100 332 -101q383 1 592 299q131 191 131 444zM254 600q0 -293 190 -453l863 1063q-141 100 -330 101q-256 0 -440 -140q-135 -102 -209 -258q-74 -157 -74 -313zM207 563q0 203 79 369t224 274q201 150 475 150
q201 0 354 -107l162 201h49l2 -6l-180 -221q100 -80 154 -199t55 -256q0 -203 -79 -369t-224 -274q-201 -150 -475 -150q-203 0 -354 109l-150 -184h-49l-2 6l166 203q-207 173 -207 454zM831 1450h-4l-12 25v4l381 225h4l17 -35l-3 -4z" />
    <glyph glyph-name="oslashacute" unicode="&#x1ff;" horiz-adv-x="1230" 
d="M1192 592q0 188 -131 309l-680 -805q109 -82 256 -82q239 0 397 169q158 170 158 409zM219 432q0 -188 131 -309l680 803q-111 84 -258 84q-188 0 -334 -113q-102 -80 -160.5 -203t-58.5 -262zM1264 1145v-4l-174 -205q147 -131 147 -340q0 -127 -46 -243.5t-130 -200.5
q-170 -176 -430 -177q-160 0 -279 88l-133 -157h-47l-2 4l152 178q-145 131 -146 338q0 154 64.5 287t177.5 219q152 117 360 117q160 0 281 -88l158 184h47zM729 1145h-4l-14 24v5l356 258h4l23 -35v-4z" />
    <glyph glyph-name="Scommaaccent" unicode="&#x218;" horiz-adv-x="1001" 
d="M500 -109l4 5h41l2 -5l-115 -264l-4 -4h-29l-2 4zM150 213q112 -193 390 -193q140 0 257.5 86.5t117.5 214t-93 204.5t-227 152t-203.5 149.5t-69.5 187.5q0 156 119.5 249t283.5 93q231 0 344 -166l-2 -6l-31 -25h-6q-100 152 -307 152q-143 0 -247.5 -80t-104.5 -207
q0 -94 59 -161.5t178 -137.5q72 -36 95.5 -53t62.5 -41.5t49 -33.5t40 -32.5t39 -38t27.5 -39t31 -69.5t12.5 -84q0 -154 -130.5 -256t-310.5 -103q-133 0 -246.5 55.5t-166.5 153.5v6l32 23h7z" />
    <glyph glyph-name="scommaaccent" unicode="&#x219;" horiz-adv-x="823" 
d="M397 -109l4 5h41l2 -5l-114 -264l-4 -4h-29l-2 4zM582 1049q195 0 276 -156v-6l-27 -17h-6q-84 139 -243 140q-121 0 -198 -63.5t-77 -168.5q0 -68 37 -109.5t92.5 -70t121.5 -59.5t92 -49q26 -16 66 -48q70 -55 70 -168q0 -150 -124 -235q-92 -63 -232 -64
q-254 0 -330 185l2 6l27 14h6q70 -166 293 -166q139 0 227 70t88 178t-60 153q-60 46 -136 83t-134.5 67.5t-102.5 77.5t-44 131q0 137 113 215q86 60 203 60z" />
    <glyph glyph-name="uni021A" unicode="&#x21a;" horiz-adv-x="993" 
d="M451 -109l4 5h41l2 -5l-115 -264l-4 -4h-29l-2 4zM471 0l227 1290h-442l8 41h934l-8 -41h-447l-227 -1290h-45z" />
    <glyph glyph-name="uni021B" unicode="&#x21b;" horiz-adv-x="618" 
d="M426 -109l4 5h41l2 -5l-115 -264l-4 -4h-28l-2 4zM473 -25q-123 0 -178 91.5t-25 269.5l115 651h-182l6 37h182l58 324l34 8l6 -4l-57 -328h330l-6 -37h-330l-115 -651q-57 -322 168 -322q66 0 115 33l6 -2l12 -27l-2 -6q-57 -37 -137 -37z" />
    <glyph glyph-name="uni0237" unicode="&#x237;" horiz-adv-x="387" 
d="M403 1024l-176 -999q-23 -129 -75 -201t-144 -131h-6l-14 24l2 7q84 52 129 118t67 187l170 958h-143l6 37h184z" />
    <glyph glyph-name="uni02BC" unicode="&#x2bc;" horiz-adv-x="311" 
d="M428 1427l4 5h43l2 -5l-131 -278l-4 -4h-27l-2 4z" />
    <glyph glyph-name="circumflex" unicode="&#x2c6;" horiz-adv-x="679" 
d="M586 1356l223 -182v-5l-25 -24h-4l-213 151l-262 -151h-4l-16 24v5l288 182h13z" />
    <glyph glyph-name="caron" unicode="&#x2c7;" horiz-adv-x="681" 
d="M821 1356l17 -25l-2 -4l-287 -182h-12l-226 182l2 4l25 25h4l211 -152l264 152h4z" />
    <glyph glyph-name="breve" unicode="&#x2d8;" horiz-adv-x="712" 
d="M558 1145q-99 0 -158 63q-58 63 -54 166h41q-2 -86 47 -139t130 -53t148 53t95 139h41q-31 -102 -111 -166t-179 -63z" />
    <glyph glyph-name="dotaccent" unicode="&#x2d9;" horiz-adv-x="184" 
d="M298 1145q-54 0 -54 58q0 25 22 47t48 22t41 -16t15 -42t-22 -48q-24 -22 -50 -21z" />
    <glyph glyph-name="ring" unicode="&#x2da;" horiz-adv-x="468" 
d="M344 1277q0 -48 28 -78t80 -30q53 0 91 43q37 42 37 90t-28 78t-82 31q-54 0 -90 -43t-36 -91zM448 1133q-66 -1 -106 37q-39 38 -39 105t53 120q54 53 120 53t104 -38t38 -104t-52 -119q-52 -54 -118 -54z" />
    <glyph glyph-name="ogonek" unicode="&#x2db;" horiz-adv-x="460" 
d="M-2 -238q0 22 10 54t40 68t73 64t50 32t31 17t27 15h41q-10 -8 -60 -40t-97 -72q-74 -64 -74 -131q0 -96 111 -97q67 0 120 49h6l13 -24l-2 -6q-75 -55 -141 -55t-107 31q-41 32 -41 95z" />
    <glyph glyph-name="tilde" unicode="&#x2dc;" horiz-adv-x="755" 
d="M438 1280q54 0 148 -36t167 -36t119 72h7l14 -27v-6q-53 -80 -145 -80q-64 0 -166 36t-150 36q-74 0 -117 -72h-6l-20 29v6q61 78 149 78z" />
    <glyph glyph-name="hungarumlaut" unicode="&#x2dd;" horiz-adv-x="706" 
d="M750 1470v-4l-220 -317l-6 -4h-30l-2 4l200 317l8 4h50zM549 1470v-4l-219 -317l-6 -4h-31l-2 4l201 317l8 4h49z" />
    <glyph glyph-name="uni0326" unicode="&#x326;" horiz-adv-x="0" 
d="M-221 -109l4 5h41l2 -5l-115 -264l-4 -4h-29l-2 4z" />
    <glyph glyph-name="Wgrave" unicode="&#x1e80;" horiz-adv-x="1970" 
d="M2122 1313q-49 0 -103 -107l-614 -1206h-45l-141 1247l-584 -1247h-45l-191 1206q-16 106 -69 107q-31 0 -60 -23l-6 2l-16 29l2 6q35 29 88 29q88 0 106 -123l179 -1157l583 1255h49l140 -1251l587 1153q61 123 150 123q45 0 74 -29l2 -6l-23 -29l-6 -2q-27 23 -57 23z
M1047 1702l380 -225v-4l-14 -23h-4l-383 215l-2 4l18 33h5z" />
    <glyph glyph-name="wgrave" unicode="&#x1e81;" horiz-adv-x="1728" 
d="M297 1049q106 0 82 -127l-100 -572q-27 -156 49 -246t219 -90t247 98t132 259l116 653h41l-114 -641q-29 -160 40 -264t212 -105q173 0 287 128t156 328t27 352q-15 153 -75 229l2 6l31 20h6q61 -85 79 -241t-26 -372q-43 -216 -173 -352t-323 -137q-122 0 -198 71
t-90 187q-54 -121 -156 -189t-229 -69q-162 -1 -246 103t-53 282l98 562q16 88 -47 88q-33 0 -64 -25l-6 2l-10 27l2 6q39 29 84 29zM932 1427l356 -258v-4l-16 -20h-4l-365 248v4l25 30h4z" />
    <glyph glyph-name="Wacute" unicode="&#x1e82;" horiz-adv-x="1970" 
d="M2122 1313q-49 0 -103 -107l-614 -1206h-45l-141 1247l-584 -1247h-45l-191 1206q-16 106 -69 107q-31 0 -60 -23l-6 2l-16 29l2 6q35 29 88 29q88 0 106 -123l179 -1157l583 1255h49l140 -1251l587 1153q61 123 150 123q45 0 74 -29l2 -6l-23 -29l-6 -2q-27 23 -57 23z
M1448 1704h4l16 -35l-2 -4l-383 -215h-4l-12 25v4z" />
    <glyph glyph-name="wacute" unicode="&#x1e83;" horiz-adv-x="1728" 
d="M297 1049q106 0 82 -127l-100 -572q-27 -156 49 -246t219 -90t247 98t132 259l116 653h41l-114 -641q-29 -160 40 -264t212 -105q173 0 287 128t156 328t27 352q-15 153 -75 229l2 6l31 20h6q61 -85 79 -241t-26 -372q-43 -216 -173 -352t-323 -137q-122 0 -198 71
t-90 187q-54 -121 -156 -189t-229 -69q-162 -1 -246 103t-53 282l98 562q16 88 -47 88q-33 0 -64 -25l-6 2l-10 27l2 6q39 29 84 29zM1251 1432h4l23 -35v-4l-365 -248h-4l-14 24v5z" />
    <glyph glyph-name="Wdieresis" unicode="&#x1e84;" horiz-adv-x="1970" 
d="M2122 1313q-49 0 -103 -107l-614 -1206h-45l-141 1247l-584 -1247h-45l-191 1206q-16 106 -69 107q-31 0 -60 -23l-6 2l-16 29l2 6q35 29 88 29q88 0 106 -123l179 -1157l583 1255h49l140 -1251l587 1153q61 123 150 123q45 0 74 -29l2 -6l-23 -29l-6 -2q-27 23 -57 23z
M1415 1579q53 0 53 -58q0 -29 -22 -51t-49 -22t-42 16t-15 43t23 49q24 22 52 23zM1122 1579q52 0 54 -55q0 -32 -22 -54t-50 -22q-27 0 -42 16t-15 43q-1 27 23 49t52 23z" />
    <glyph glyph-name="wdieresis" unicode="&#x1e85;" horiz-adv-x="1728" 
d="M297 1049q106 0 82 -127l-100 -572q-27 -156 49 -246t219 -90t247 98t132 259l116 653h41l-114 -641q-29 -160 40 -264t212 -105q173 0 287 128t156 328t27 352q-15 153 -75 229l2 6l31 20h6q61 -85 79 -241t-26 -372q-43 -216 -173 -352t-323 -137q-122 0 -198 71
t-90 187q-54 -121 -156 -189t-229 -69q-162 -1 -246 103t-53 282l98 562q16 88 -47 88q-33 0 -64 -25l-6 2l-10 27l2 6q39 29 84 29zM1230 1272q54 0 54 -56q0 -26 -22 -49q-23 -22 -49 -22q-25 0 -39 15t-14 41q0 27 21 49q23 22 49 22zM959 1145q-52 0 -54 55q0 28 23 50
q22 22 48 22t41 -16t15 -42t-23 -48q-24 -21 -50 -21z" />
    <glyph glyph-name="uni1E9E" unicode="&#x1e9e;" horiz-adv-x="1179" 
d="M856 1356q246 0 340 -201l-393 -389h57q123 0 207 -90t84 -222q0 -251 -178 -380q-127 -98 -299 -99q-78 0 -134 24t-112 75v6l29 31l4 2q49 -49 99 -71t122 -22q158 0 270 89q154 117 154 321q0 137 -81 216t-196 79h-90l9 41l393 389q-90 156 -293 156
q-156 0 -275 -103q-154 -135 -200 -401l-142 -807h-45l144 811q49 276 211 426q131 119 315 119z" />
    <glyph glyph-name="Ygrave" unicode="&#x1ef2;" horiz-adv-x="1318" 
d="M1462 1313q-61 0 -133 -90l-541 -654l-100 -569h-45l100 569l-309 654q-27 49 -47 69t-53 20t-62 -22l-6 2l-16 29l2 6q35 29 86 29t79 -25t60 -90l297 -629l516 627q53 65 92 91t86 26t76 -29l2 -6l-22 -29l-6 -2q-23 23 -56 23zM711 1702l381 -225v-4l-15 -23h-4
l-383 215l-2 4l19 33h4z" />
    <glyph glyph-name="ygrave" unicode="&#x1ef3;" horiz-adv-x="1118" 
d="M236 360q0 49 26 195l66 367q16 88 -49 88q-33 0 -64 -25l-6 2l-10 27l2 6q35 29 84 29q106 0 84 -127l-66 -367q-25 -147 -24 -193q1 -126 77 -204t216 -78t225 58q164 113 204 327l97 559h41l-154 -877q-39 -223 -169 -340t-342 -117t-329 122l2 6l25 22h6
q116 -110 306 -110t308 112t152 310l23 118q-138 -229 -398 -229q-157 0 -245 87t-88 232zM870 1145h-4l-364 248v4l24 30h4l357 -258v-4z" />
    <glyph glyph-name="uni1EF8" unicode="&#x1ef8;" horiz-adv-x="1318" 
d="M1462 1313q-61 0 -133 -90l-541 -654l-100 -569h-45l100 569l-309 654q-27 49 -47 69t-53 20t-62 -22l-6 2l-16 29l2 6q35 29 86 29t79 -25t60 -90l297 -629l516 627q53 65 92 91t86 26t76 -29l2 -6l-22 -29l-6 -2q-23 23 -56 23zM764 1589q56 0 158 -38t181 -38t128 76
h6l18 -28v-5q-61 -84 -157 -83q-68 -1 -180 37t-162 38q-82 0 -127 -75h-4l-23 28l2 4q62 84 160 84z" />
    <glyph glyph-name="uni1EF9" unicode="&#x1ef9;" horiz-adv-x="1118" 
d="M236 360q0 49 26 195l66 367q16 88 -49 88q-33 0 -64 -25l-6 2l-10 27l2 6q35 29 84 29q106 0 84 -127l-66 -367q-25 -147 -24 -193q1 -126 77 -204t216 -78t225 58q164 113 204 327l97 559h41l-154 -877q-39 -223 -169 -340t-342 -117t-329 122l2 6l25 22h6
q116 -110 306 -110t308 112t152 310l23 118q-138 -229 -398 -229q-157 0 -245 87t-88 232zM575 1280q53 0 147 -36t168 -36q73 0 120 72h6l14 -27v-6q-53 -80 -145 -80q-63 0 -165 36t-151 36q-73 0 -116 -72h-7l-20 29v6q61 78 149 78z" />
    <glyph glyph-name="endash" unicode="&#x2013;" horiz-adv-x="1101" 
d="M254 633h815l-6 -37h-815z" />
    <glyph glyph-name="emdash" unicode="&#x2014;" horiz-adv-x="1388" 
d="M254 633h1102l-6 -37h-1102z" />
    <glyph glyph-name="quoteleft" unicode="&#x2018;" horiz-adv-x="368" 
d="M436 1104q0 -26 -18 -46t-47 -20t-46 18t-17 55q0 36 37 113q38 77 120 154h4l18 -18v-4q-55 -60 -81 -114t-27 -77q25 -2 41 -18t16 -43z" />
    <glyph glyph-name="quoteright" unicode="&#x2019;" horiz-adv-x="360" 
d="M432 1384q29 0 46 -18q18 -18 18 -54t-38 -113t-120 -155h-4l-19 19v4q55 59 82 113t27 77q-25 3 -41 19t-16 43t18 46t47 19z" />
    <glyph glyph-name="quotesinglbase" unicode="&#x201a;" horiz-adv-x="403" 
d="M207 102q63 0 63 -72q0 -36 -38 -113t-119 -155h-4l-19 19v4q55 59 82 113t27 77q-25 3 -41 19t-16 43t18 46t47 19z" />
    <glyph glyph-name="quotedblleft" unicode="&#x201c;" horiz-adv-x="567" 
d="M569 1038q-63 0 -63 73q0 36 38 113t120 154h4l18 -18v-4q-55 -60 -82 -114t-26 -77q24 -2 40 -18t16 -43q0 -26 -18 -46t-47 -20zM436 1104q0 -26 -18 -46t-47 -20t-46 18t-17 55q0 36 37 113q38 77 120 154h4l18 -18v-4q-55 -60 -81 -114t-27 -77q25 -2 41 -18t16 -43z
" />
    <glyph glyph-name="quotedblright" unicode="&#x201d;" horiz-adv-x="563" 
d="M633 1391q63 0 63 -73q0 -36 -38 -113t-119 -154h-4l-19 18v4q55 59 82 113t27 78q-25 2 -41 18t-16 43t18 47t47 19zM369 1325q0 27 18 47t47 19t46 -19q18 -18 18 -54t-38 -113t-120 -154h-4l-19 18v4q55 59 82 113t27 78q-25 2 -41 18t-16 43z" />
    <glyph glyph-name="quotedblbase" unicode="&#x201e;" horiz-adv-x="598" 
d="M399 102q29 0 46 -18t17 -54t-37 -113q-38 -77 -120 -155h-4l-18 19v4q55 59 82 113t26 77q-25 3 -41 19t-16 43t18 46t47 19zM201 102q63 0 63 -72q0 -36 -38 -113t-120 -155h-4l-18 19v4q55 59 82 113t27 77q-25 3 -41 19t-16 43t18 46t47 19z" />
    <glyph glyph-name="dagger" unicode="&#x2020;" horiz-adv-x="841" 
d="M911 883l-6 -37h-313l-207 -1165h-43l207 1165h-313l6 37h313l82 469h43l-82 -469h313z" />
    <glyph glyph-name="daggerdbl" unicode="&#x2021;" horiz-adv-x="843" 
d="M905 846h-313l-117 -660h313l-6 -36h-313l-84 -469h-43l84 469h-313l6 36h313l117 660h-313l6 37h313l82 469h43l-82 -469h313z" />
    <glyph glyph-name="bullet" unicode="&#x2022;" horiz-adv-x="620" 
d="M539 592q1 -51 -45 -95t-97 -44q-51 -1 -81 31t-30 83t46 95q45 44 96 45q51 0 81 -32t30 -83z" />
    <glyph glyph-name="ellipsis" unicode="&#x2026;" horiz-adv-x="878" 
d="M684 -25q-24 1 -40 17t-15 42t23 48t48 20q26 0 40 -16q16 -16 16 -42t-24 -48t-48 -21zM510 44q0 -26 -24 -48t-48 -21t-40 17t-15 42q0 26 23 48q22 22 48 20q26 0 41 -16t15 -42zM264 44q0 -26 -24 -48t-48 -21t-39 17t-15 42t22 48t48 20q26 0 41 -16t15 -42z" />
    <glyph glyph-name="perthousand" unicode="&#x2030;" horiz-adv-x="2246" 
d="M1913 14q119 0 199 125t79 307q0 115 -49 186t-129 70q-119 0 -197 -126t-79 -308q0 -114 48 -184t128 -70zM1235 14q119 0 193 124t75 308q0 113 -54 185t-134 71q-117 0 -192 -124t-74 -310q0 -114 53 -184t133 -70zM1907 -25q-92 0 -151 81q-58 81 -58 210
q0 203 95 339t228 136q93 0 151 -81t58 -211q0 -201 -95 -337t-228 -137zM1229 -25q-94 0 -157 80q-62 80 -62 209q0 205 90 341t223 136q91 0 155 -81t64 -211q0 -203 -91 -339t-222 -135zM481 629q119 0 194 124t75 308q0 113 -54 185t-135 71q-117 0 -191 -125t-75 -309
q0 -113 53 -183t133 -71zM1530 1331v-6l-1219 -1325h-43l-2 4l1223 1327h41zM475 590q-92 0 -156 81q-63 81 -63 210q0 205 91 340t222 135q91 0 155 -81t64 -212q0 -203 -90 -338t-223 -135z" />
    <glyph glyph-name="guilsinglleft" unicode="&#x2039;" horiz-adv-x="544" 
d="M561 911v-4l-297 -293l195 -290v-5l-33 -30h-4l-219 321v11l334 321h4z" />
    <glyph glyph-name="guilsinglright" unicode="&#x203a;" horiz-adv-x="544" 
d="M342 942l217 -321v-11l-332 -321h-4l-22 30v5l297 292l-195 291v4l35 31h4z" />
    <glyph glyph-name="fraction" unicode="&#x2044;" horiz-adv-x="1030" 
d="M1270 1331v-6l-1219 -1325h-43l-2 4l1223 1327h41z" />
    <glyph glyph-name="Euro" unicode="&#x20ac;" horiz-adv-x="1464" 
d="M1063 1356q160 0 288 -65t201 -183l-2 -6l-32 -23h-7q-69 111 -185 171t-258 60q-288 1 -501 -186q-143 -127 -209 -311h689l-19 -39h-682q-35 -123 -31 -248h682l-20 -39h-658q25 -205 166 -335t343 -132q202 0 389 115q82 51 147 119h6l27 -25l2 -6
q-111 -117 -256 -183t-303 -65q-236 1 -390 143t-178 369h-116l18 39h94q-4 125 29 248h-90l18 39h84q70 209 232 350q221 193 522 193z" />
    <glyph glyph-name="trademark" unicode="&#x2122;" horiz-adv-x="1335" 
d="M766 1329l-6 -41h-215l-111 -622h-41l111 622h-211l6 41h467zM1319 1331h41l-53 -665h-43l45 569l-312 -569h-39l-108 575l-158 -575h-43l187 665h38l115 -608z" />
    <glyph glyph-name="minus" unicode="&#x2212;" horiz-adv-x="1200" 
d="M268 684h906l-7 -37h-905z" />
    <glyph glyph-name="approxequal" unicode="&#x2248;" horiz-adv-x="1081" 
d="M877 469q-89 0 -245 36t-234 36q-76 0 -134 -72h-4l-20 31v4q74 78 163 78t234 -36t231 -36t140 72h4l20 -31v-4q-66 -78 -155 -78zM928 752q-88 0 -246 36t-236 35q-78 0 -131 -71h-4l-22 30l2 4q70 78 160 78t235 -36q146 -36 232 -36t139 72h4l22 -30l-2 -5
q-65 -77 -153 -77z" />
    <glyph glyph-name="notequal" unicode="&#x2260;" horiz-adv-x="1198" 
d="M1182 813h-351l-217 -293h516l-6 -37h-536l-254 -340h-39l-2 7l250 333h-324l6 37h346l220 293h-515l7 37h536l211 283h39l-2 -5l-207 -278h328z" />
    <glyph glyph-name="uniF8FF" unicode="&#xf8ff;" horiz-adv-x="2807" 
d="M1456 338q0 43 -39 43q-47 0 -47 -62q0 -21 8 -55q78 12 78 74zM1997 350v4l2 4v9q0 39 -37 39q-45 0 -45 -56h80zM2312 518q14 0 15 12q0 12 -15 13h-16v-25h16zM2279 557h33q31 0 31 -25q0 -18 -16 -24l16 -27h-19l-14 23h-14v-23h-17v76zM2308 457q25 0 43 18t19 43
q0 25 -18 43q-18 19 -44 19q-25 0 -43 -18t-18 -44q0 -25 18 -43t43 -18zM2232 518q0 32 23 54t53 22t54 -23q22 -23 22 -53t-23 -54q-23 -22 -53 -22t-54 22q-22 22 -22 54zM1704 346q0 260 252 260q106 0 168 -61t61 -172q0 -24 -10 -74h-246q13 -50 88 -50q76 1 107 32
v-150q-4 -4 -44 -18t-104 -15q-136 0 -204 67t-68 181zM1153 12q0 295 10 420l13 158h159l6 -60q8 -43 9 -94q29 170 159 170q74 0 117 -60t43 -182q1 -122 -67 -194t-193 -72q0 -14 2 -22l2 -64h-260zM829 590q-4 -78 -4 -216q0 -54 33 -55q31 0 31 54v18l-2 92
q-2 31 -2 107h217l6 -82q6 -76 6 -219t-74 -210t-233 -67q-87 0 -133 14t-58 29v170q45 -37 136 -38q92 -1 137 36q20 16 22 37q-30 -30 -116 -31q-190 0 -191 152v16h-92l4 -125q27 0 57 13v-152q-27 -33 -137 -35q-150 0 -149 131l4 168h-55v170l247 82l9 -59h337z
M2502 817q48 1 48 59t-48 58t-48 -58t48 -59zM776 817q49 1 49 59t-49 58q-43 0 -43 -58t43 -59zM2255 901q0 254 246 254q141 0 194 -68q53 -67 53 -183t-61 -182t-185 -65q-124 -1 -186 65t-61 179zM1712 670q0 342 23 477h155l6 -51q6 -92 7 -101l6 21q10 44 34 76
q47 63 127 63t114 -48t36 -159l4 -278h-229l4 192q0 51 -33 51t-33 -51l11 -192h-232zM698 657q-182 0 -182 230q0 133 64 201t206 67q238 0 238 -229v-256h-156l-18 118q-25 -131 -152 -131zM1051 965v170l237 73l8 -61h353q8 -105 12 -157t4 -320h-233q0 248 4 295h-117
l4 -129q-1 -4 19 -4q20 -1 38 8v-148q-2 -8 -30 -21t-97 -14q-160 0 -159 131l4 177h-47zM240 670q0 303 10 446l12 182h195q2 -46 11 -210t9 -418h-237zM1548 1174q-53 0 -87 36t-34 87q0 52 34 87t87 35t87 -35t34 -87q0 -51 -34 -87t-87 -36z" />
    <glyph glyph-name="H.ss01" horiz-adv-x="1421" 
d="M393 1356q49 0 73 -32t11 -95l-94 -535h905l113 637h45l-217 -1225q-14 -88 47 -88q37 0 61 23l6 -2l13 -29l-2 -6q-37 -29 -86 -29q-106 0 -84 127l96 551h-905l-115 -653h-45l217 1227q16 86 -49 86q-27 0 -57 -23l-7 2l-16 29l2 6q39 29 88 29z" />
    <glyph glyph-name="Hbar.ss01" horiz-adv-x="1478" 
d="M383 694h905l45 256h-905zM1276 18q37 0 61 23l6 -2l13 -29l-2 -6q-37 -29 -86 -29q-106 0 -84 127l96 551h-905l-115 -653h-45l168 950h-107l7 37h106l43 240q16 86 -49 86q-27 0 -57 -23l-7 2l-16 29l2 6q39 29 88 29t73 -32t11 -95l-43 -242h905l62 344h45l-62 -344
h115l-8 -37h-113l-149 -844q-14 -88 47 -88z" />
    <glyph glyph-name="N.ss01" horiz-adv-x="1466" 
d="M159 -25q-46 0 -79 29l-2 6l20 29l6 2q16 -23 56 -23q63 0 80 88l217 1225h39l733 -1255l221 1255h45l-235 -1331h-39l-734 1255l-202 -1153q-10 -63 -45 -95t-81 -32z" />
    <glyph glyph-name="Nacute.ss01" horiz-adv-x="1466" 
d="M159 -25q-46 0 -79 29l-2 6l20 29l6 2q16 -23 56 -23q63 0 80 88l217 1225h39l733 -1255l221 1255h45l-235 -1331h-39l-734 1255l-202 -1153q-10 -63 -45 -95t-81 -32zM1202 1704h4l17 -35l-2 -4l-383 -215h-4l-13 25v4z" />
    <glyph glyph-name="Ncaron.ss01" horiz-adv-x="1466" 
d="M159 -25q-46 0 -79 29l-2 6l20 29l6 2q16 -23 56 -23q63 0 80 88l217 1225h39l733 -1255l221 1255h45l-235 -1331h-39l-734 1255l-202 -1153q-10 -63 -45 -95t-81 -32zM1286 1661l14 -25v-4l-294 -182h-9l-229 182v4l23 25h4l217 -156l270 156h4z" />
    <glyph glyph-name="Ncommaaccent.ss01" horiz-adv-x="1466" 
d="M737 -109l4 5h41l2 -5l-114 -264l-4 -4h-29l-2 4zM159 -25q-46 0 -79 29l-2 6l20 29l6 2q16 -23 56 -23q63 0 80 88l217 1225h39l733 -1255l221 1255h45l-235 -1331h-39l-734 1255l-202 -1153q-10 -63 -45 -95t-81 -32z" />
    <glyph glyph-name="Eng.ss01" horiz-adv-x="1466" 
d="M889 -377q-231 0 -316 195l2 6l33 22h6q80 -180 281 -180q119 0 204 72t109 211l11 55l-732 1251l-202 -1153q-10 -61 -46 -94t-80 -33t-79 29l-2 6l20 29l6 2q16 -23 56 -23q63 0 80 88l215 1225h41l733 -1253l221 1253h45l-246 -1388q-29 -158 -127 -239t-233 -81z" />
    <glyph glyph-name="Ntilde.ss01" horiz-adv-x="1466" 
d="M159 -25q-46 0 -79 29l-2 6l20 29l6 2q16 -23 56 -23q63 0 80 88l217 1225h39l733 -1255l221 1255h45l-235 -1331h-39l-734 1255l-202 -1153q-10 -63 -45 -95t-81 -32zM854 1589q57 0 158.5 -38t180.5 -38t128 76h6l19 -28v-5q-61 -84 -158 -83q-68 0 -179.5 37.5
t-162.5 37.5q-82 0 -127 -75h-4l-23 28l2 4q62 84 160 84z" />
    <glyph glyph-name="Q.ss01" horiz-adv-x="1617" 
d="M254 571q0 -233 156 -392t407 -159q321 0 532 230q185 206 185 510q0 233 -157 392t-407 159t-433 -140q-135 -102 -209 -258t-74 -342zM1581 768q-1 -418 -313 -650q-154 -114 -367 -136q31 -27 80 -85t57 -69q88 -92 179 -92q63 0 104 33l6 -2l14 -29l-2 -6
q-49 -39 -113 -39q-109 0 -167 51q-51 40 -109 112q-59 72 -89 96t-62 23q-258 2 -425 170t-167 418q0 203 79 369t224 274q201 150 468 150t435 -169t168 -419z" />
    <glyph glyph-name="W.ss01" horiz-adv-x="1935" 
d="M338 1356q82 0 113 -125l274 -1165l348 614l-139 645l6 6h41l127 -590l336 590h41l2 -6l-365 -645l131 -614l684 1165q74 125 160 125q45 0 74 -29l2 -6l-23 -29l-6 -2q-23 23 -55 23q-55 0 -117 -107l-708 -1206h-43l-136 621l-352 -621h-43l-282 1206q-27 106 -80 107
q-27 0 -58 -23l-6 2l-16 29l2 6q39 29 88 29z" />
    <glyph glyph-name="Wacute.ss01" horiz-adv-x="1935" 
d="M338 1356q82 0 113 -125l274 -1165l348 614l-139 645l6 6h41l127 -590l336 590h41l2 -6l-365 -645l131 -614l684 1165q74 125 160 125q45 0 74 -29l2 -6l-23 -29l-6 -2q-23 23 -55 23q-55 0 -117 -107l-708 -1206h-43l-136 621l-352 -621h-43l-282 1206q-27 106 -80 107
q-27 0 -58 -23l-6 2l-16 29l2 6q39 29 88 29zM1417 1704h4l17 -35l-2 -4l-383 -215h-4l-13 25v4z" />
    <glyph glyph-name="Wcircumflex.ss01" horiz-adv-x="1935" 
d="M338 1356q82 0 113 -125l274 -1165l348 614l-139 645l6 6h41l127 -590l336 590h41l2 -6l-365 -645l131 -614l684 1165q74 125 160 125q45 0 74 -29l2 -6l-23 -29l-6 -2q-23 23 -55 23q-55 0 -117 -107l-708 -1206h-43l-136 621l-352 -621h-43l-282 1206q-27 106 -80 107
q-27 0 -58 -23l-6 2l-16 29l2 6q39 29 88 29zM1257 1661l230 -182v-4l-23 -25h-4l-217 156l-270 -156h-4l-15 25v4l295 182h8z" />
    <glyph glyph-name="Wdieresis.ss01" horiz-adv-x="1935" 
d="M338 1356q82 0 113 -125l274 -1165l348 614l-139 645l6 6h41l127 -590l336 590h41l2 -6l-365 -645l131 -614l684 1165q74 125 160 125q45 0 74 -29l2 -6l-23 -29l-6 -2q-23 23 -55 23q-55 0 -117 -107l-708 -1206h-43l-136 621l-352 -621h-43l-282 1206q-27 106 -80 107
q-27 0 -58 -23l-6 2l-16 29l2 6q39 29 88 29zM1384 1579q52 0 54 -55q0 -32 -22 -54t-50 -22q-27 0 -42 16t-15 43q-1 27 23 49t52 23zM1092 1579q51 0 53 -55q-1 -32 -23 -54t-49 -22t-42 16t-15 43t24 49t52 23z" />
    <glyph glyph-name="Wgrave.ss01" horiz-adv-x="1935" 
d="M338 1356q82 0 113 -125l274 -1165l348 614l-139 645l6 6h41l127 -590l336 590h41l2 -6l-365 -645l131 -614l684 1165q74 125 160 125q45 0 74 -29l2 -6l-23 -29l-6 -2q-23 23 -55 23q-55 0 -117 -107l-708 -1206h-43l-136 621l-352 -621h-43l-282 1206q-27 106 -80 107
q-27 0 -58 -23l-6 2l-16 29l2 6q39 29 88 29zM1016 1702l381 -225v-4l-15 -23h-4l-383 215l-2 4l19 33h4z" />
    <glyph glyph-name="N.ss02" horiz-adv-x="1474" 
d="M1554.5 1356q45.5 0 77.5 -29l2 -6l-22 -29l-6 -2q-27 23 -54 23q-61 0 -77 -88l-218 -1225h-38l-734 1255l-202 -1151q-10 -63 -45 -96t-81 -33t-79 29l-2 6l20 29l6 2q18 -23 56 -23q63 0 80 88l217 1225h39l733 -1255l203 1149q10 63 44.5 97t80 34z" />
    <glyph glyph-name="Nacute.ss02" horiz-adv-x="1474" 
d="M1554.5 1356q45.5 0 77.5 -29l2 -6l-22 -29l-6 -2q-27 23 -54 23q-61 0 -77 -88l-218 -1225h-38l-734 1255l-202 -1151q-10 -63 -45 -96t-81 -33t-79 29l-2 6l20 29l6 2q18 -23 56 -23q63 0 80 88l217 1225h39l733 -1255l203 1149q10 63 44.5 97t80 34zM1194 1704h4
l16 -35l-2 -4l-383 -215h-4l-12 25v4z" />
    <glyph glyph-name="Ncaron.ss02" horiz-adv-x="1474" 
d="M1554.5 1356q45.5 0 77.5 -29l2 -6l-22 -29l-6 -2q-27 23 -54 23q-61 0 -77 -88l-218 -1225h-38l-734 1255l-202 -1151q-10 -63 -45 -96t-81 -33t-79 29l-2 6l20 29l6 2q18 -23 56 -23q63 0 80 88l217 1225h39l733 -1255l203 1149q10 63 44.5 97t80 34zM1278 1661l14 -25
v-4l-295 -182h-8l-229 182v4l22 25h4l218 -156l270 156h4z" />
    <glyph glyph-name="Ncommaaccent.ss02" horiz-adv-x="1474" 
d="M690 -109l4 5h41l2 -5l-114 -264l-5 -4h-28l-2 4zM1554.5 1356q45.5 0 77.5 -29l2 -6l-22 -29l-6 -2q-27 23 -54 23q-61 0 -77 -88l-218 -1225h-38l-734 1255l-202 -1151q-10 -63 -45 -96t-81 -33t-79 29l-2 6l20 29l6 2q18 -23 56 -23q63 0 80 88l217 1225h39l733 -1255
l203 1149q10 63 44.5 97t80 34z" />
    <glyph glyph-name="Eng.ss02" horiz-adv-x="1474" 
d="M1554.5 1356q45.5 0 77.5 -29l2 -6l-22 -29l-6 -2q-27 23 -54 23q-61 0 -77 -88l-230 -1282q-29 -160 -125 -240t-231 -80q-231 0 -316 195l2 6l33 22h6q80 -180 281 -180q119 0 205 70.5t108 212.5l9 51l-730 1255l-202 -1151q-10 -63 -45 -96t-81 -33t-79 29l-2 6
l20 29l6 2q18 -23 56 -23q63 0 80 88l215 1225h41l729 -1253l205 1147q12 63 45.5 97t79 34z" />
    <glyph glyph-name="Ntilde.ss02" horiz-adv-x="1474" 
d="M1554.5 1356q45.5 0 77.5 -29l2 -6l-22 -29l-6 -2q-27 23 -54 23q-61 0 -77 -88l-218 -1225h-38l-734 1255l-202 -1151q-10 -63 -45 -96t-81 -33t-79 29l-2 6l20 29l6 2q18 -23 56 -23q63 0 80 88l217 1225h39l733 -1255l203 1149q10 63 44.5 97t80 34zM846 1589
q57 0 158.5 -38t180.5 -38t128 76h6l18 -28v-5q-61 -84 -157 -83q-68 0 -179.5 37.5t-162.5 37.5q-82 0 -127 -75h-4l-23 28l2 4q62 84 160 84z" />
    <glyph glyph-name="i.loclTRK" horiz-adv-x="378" 
d="M168 0l188 1024h41l-188 -1024h-41zM402 1145q-54 0 -54 58q0 25 23 47t49 22t40 -16q15 -16 15 -42t-23 -48q-24 -21 -50 -21z" />
    <glyph glyph-name="f.ss01" horiz-adv-x="567" 
d="M733 1417q82 0 160 -47v-6l-21 -29h-6q-68 43 -139 43q-127 0 -202 -76t-103 -241l-6 -37h317l-6 -37h-317l-230 -1296h-41l230 1296h-176l6 37h176l6 37q63 356 352 356z" />
    <glyph glyph-name="i.ss01" horiz-adv-x="393" 
d="M270 14q35 0 62 23l6 -2l10 -25l-2 -6q-35 -29 -82 -29q-46 0 -70 33t-14 94l162 922h41l-162 -922q-16 -88 49 -88zM386 1145q-54 0 -54 58q0 25 22 47t48 22t41 -16t15 -42t-22 -48q-24 -22 -50 -21z" />
    <glyph glyph-name="dotlessi.ss01" horiz-adv-x="393" 
d="M270 14q35 0 62 23l6 -2l10 -25l-2 -6q-35 -29 -82 -29q-46 0 -70 33t-14 94l162 922h41l-162 -922q-16 -88 49 -88z" />
    <glyph glyph-name="iacute.ss01" horiz-adv-x="393" 
d="M270 14q35 0 62 23l6 -2l10 -25l-2 -6q-35 -29 -82 -29q-46 0 -70 33t-14 94l162 922h41l-162 -922q-16 -88 49 -88zM682 1432h4l23 -35v-4l-365 -248h-4l-14 24v5z" />
    <glyph glyph-name="icircumflex.ss01" horiz-adv-x="393" 
d="M270 14q35 0 62 23l6 -2l10 -25l-2 -6q-35 -29 -82 -29q-46 0 -70 33t-14 94l162 922h41l-162 -922q-16 -88 49 -88zM426 1356l223 -182v-5l-24 -24h-4l-213 151l-263 -151h-4l-16 24v5l289 182h12z" />
    <glyph glyph-name="idieresis.ss01" horiz-adv-x="393" 
d="M270 14q35 0 62 23l6 -2l10 -25l-2 -6q-35 -29 -82 -29q-46 0 -70 33t-14 94l162 922h41l-162 -922q-16 -88 49 -88zM513 1145q-54 0 -54 56q-1 27 21 49t50 22q52 0 54 -56q0 -26 -22 -48t-49 -23zM259 1145q-54 0 -54 58q1 25 23 47t48 22t40 -16q16 -16 16 -42
t-24 -48t-49 -21z" />
    <glyph glyph-name="igrave.ss01" horiz-adv-x="393" 
d="M270 14q35 0 62 23l6 -2l10 -25l-2 -6q-35 -29 -82 -29q-46 0 -70 33t-14 94l162 922h41l-162 -922q-16 -88 49 -88zM45 1427l356 -258v-4l-16 -20h-4l-365 248v4l25 30h4z" />
    <glyph glyph-name="ij.ss01" horiz-adv-x="780" 
d="M797 1024l-176 -999q-23 -129 -75 -201t-145 -131h-6l-14 24l2 7q84 52 129 118t68 187l170 958h-144l6 37h185zM270 14q35 0 62 23l6 -2l10 -25l-2 -6q-35 -29 -82 -29q-46 0 -70 33t-14 94l162 922h41l-162 -922q-16 -88 49 -88zM774 1272q26 0 40 -16q15 -16 15 -42
t-23 -48t-49 -21q-26 0 -40 16q-15 16 -15 42q0 25 23 47t49 22zM386 1145q-54 0 -54 58q0 25 22 47t48 22t41 -16t15 -42t-22 -48q-24 -22 -50 -21z" />
    <glyph glyph-name="imacron.ss01" horiz-adv-x="393" 
d="M270 14q35 0 62 23l6 -2l10 -25l-2 -6q-35 -29 -82 -29q-46 0 -70 33t-14 94l162 922h41l-162 -922q-16 -88 49 -88zM131 1229h531l-7 -35h-530z" />
    <glyph glyph-name="iogonek.ss01" horiz-adv-x="393" 
d="M270 14q35 0 62 23l6 -2l10 -25l-2 -6q-6 -6 -14 -10t-79 -52t-83 -64q-12 -17 -34 -45t-21 -73q0 -96 110 -96q68 0 121 49h6l13 -24l-3 -6q-74 -55 -140 -55t-107 31t-41 99t50 119t132 98q-43 4 -65 36t-11 91l162 922h41l-162 -922q-16 -88 49 -88zM332 1203
q0 25 22 47t48 22t41 -16t15 -42t-23 -48t-49 -22t-40 17q-14 16 -14 42z" />
    <glyph glyph-name="itilde.ss01" horiz-adv-x="393" 
d="M270 14q35 0 62 23l6 -2l10 -25l-2 -6q-35 -29 -82 -29q-46 0 -70 33t-14 94l162 922h41l-162 -922q-16 -88 49 -88zM242 1280q53 0 147 -36t167 -36t120 72h6l14 -27v-6q-53 -80 -145 -80q-63 0 -165 36t-150 36q-74 0 -117 -72h-6l-21 29v6q62 78 150 78z" />
    <glyph glyph-name="k.ss01" horiz-adv-x="950" 
d="M963 -2q-29 -23 -77 -23t-90 51q-24 28 -53 74l-268 441l-213 -191l-61 -350h-41l225 1274q16 92 -49 92q-33 0 -64 -25l-6 2l-10 27l2 6q39 29 86 29t71 -33t11 -94l-154 -870l693 616h47l4 -4l-506 -451l278 -460q55 -94 109 -95q26 1 51 19l6 -2l11 -27z" />
    <glyph glyph-name="kcommaaccent.ss01" horiz-adv-x="987" 
d="M494 -104h41l2 -5l-115 -264l-4 -4h-29l-2 4l102 264zM963 -2q-29 -23 -77 -23t-90 51q-24 28 -53 74l-268 441l-213 -191l-61 -350h-41l225 1274q16 92 -49 92q-33 0 -64 -25l-6 2l-10 27l2 6q39 29 86 29t71 -33t11 -94l-154 -870l693 616h47l4 -4l-506 -451l278 -460
q55 -94 109 -95q26 1 51 19l6 -2l11 -27z" />
    <glyph glyph-name="v.ss01" horiz-adv-x="1128" 
d="M274 1049q47 0 70 -32t35 -93l190 -861l498 861q25 42 41 64q42 60 98 60q56 1 84 -28l2 -6l-18 -25l-6 -2q-23 23 -54 23q-53 0 -116 -109l-523 -901h-32l-201 901q-14 59 -28 84t-49 25q-34 0 -62 -25l-6 2l-11 27l2 6q39 29 86 29z" />
    <glyph glyph-name="y.ss01" horiz-adv-x="1169" 
d="M1255 1010q-31 0 -55 -25t-61 -84l-633 -1055q-92 -154 -227 -153q-59 0 -109 39l-2 6l20 29l7 2q41 -35 94 -35q104 0 178 125l98 164l-219 878q-14 57 -32 83t-48 26q-31 0 -61 -25l-6 2l-11 27l2 6q39 29 87 29t72 -32t38 -93l211 -848l508 848q37 63 70 94
q34 31 80 31t75 -29l2 -6l-18 -25l-6 -2q-23 23 -54 23z" />
    <glyph glyph-name="yacute.ss01" horiz-adv-x="1169" 
d="M1255 1010q-31 0 -55 -25t-61 -84l-633 -1055q-92 -154 -227 -153q-59 0 -109 39l-2 6l20 29l7 2q41 -35 94 -35q104 0 178 125l98 164l-219 878q-14 57 -32 83t-48 26q-31 0 -61 -25l-6 2l-11 27l2 6q39 29 87 29t72 -32t38 -93l211 -848l508 848q37 63 70 94
q34 31 80 31t75 -29l2 -6l-18 -25l-6 -2q-23 23 -54 23zM641 1145h-4l-14 24v5l356 258h4l23 -35v-4z" />
    <glyph glyph-name="ycircumflex.ss01" horiz-adv-x="1169" 
d="M1255 1010q-31 0 -55 -25t-61 -84l-633 -1055q-92 -154 -227 -153q-59 0 -109 39l-2 6l20 29l7 2q41 -35 94 -35q104 0 178 125l98 164l-219 878q-14 57 -32 83t-48 26q-31 0 -61 -25l-6 2l-11 27l2 6q39 29 87 29t72 -32t38 -93l211 -848l508 848q37 63 70 94
q34 31 80 31t75 -29l2 -6l-18 -25l-6 -2q-23 23 -54 23zM553 1145h-4l-17 24v5l289 182h13l223 -182v-5l-25 -24h-4l-213 151z" />
    <glyph glyph-name="ydieresis.ss01" horiz-adv-x="1169" 
d="M1255 1010q-31 0 -55 -25t-61 -84l-633 -1055q-92 -154 -227 -153q-59 0 -109 39l-2 6l20 29l7 2q41 -35 94 -35q104 0 178 125l98 164l-219 878q-14 57 -32 83t-48 26q-31 0 -61 -25l-6 2l-11 27l2 6q39 29 87 29t72 -32t38 -93l211 -848l508 848q37 63 70 94
q34 31 80 31t75 -29l2 -6l-18 -25l-6 -2q-23 23 -54 23zM936 1272q54 0 55 -56q0 -26 -22 -48t-48 -23q-26 0 -40 15q-15 15 -15 41q0 27 22 49t48 22zM684 1272q26 0 40 -16q15 -16 15 -42t-23 -48t-49 -21q-26 0 -40 16q-15 16 -15 42q0 25 23 47t49 22z" />
    <glyph glyph-name="ygrave.ss01" horiz-adv-x="1169" 
d="M1255 1010q-31 0 -55 -25t-61 -84l-633 -1055q-92 -154 -227 -153q-59 0 -109 39l-2 6l20 29l7 2q41 -35 94 -35q104 0 178 125l98 164l-219 878q-14 57 -32 83t-48 26q-31 0 -61 -25l-6 2l-11 27l2 6q39 29 87 29t72 -32t38 -93l211 -848l508 848q37 63 70 94
q34 31 80 31t75 -29l2 -6l-18 -25l-6 -2q-23 23 -54 23zM944 1145h-4l-365 248v4l25 30h4l357 -258v-4z" />
    <glyph glyph-name="uni1EF9.ss01" horiz-adv-x="1169" 
d="M1255 1010q-31 0 -55 -25t-61 -84l-633 -1055q-92 -154 -227 -153q-59 0 -109 39l-2 6l20 29l7 2q41 -35 94 -35q104 0 178 125l98 164l-219 878q-14 57 -32 83t-48 26q-31 0 -61 -25l-6 2l-11 27l2 6q39 29 87 29t72 -32t38 -93l211 -848l508 848q37 63 70 94
q34 31 80 31t75 -29l2 -6l-18 -25l-6 -2q-23 23 -54 23zM649 1280q53 0 147 -36t168 -36q73 0 119 72h7l14 -27v-6q-53 -80 -146 -80q-63 0 -165 36t-150 36q-74 0 -117 -72h-6l-20 29v6q61 78 149 78z" />
    <glyph glyph-name="y.ss02" 
d="M343 -309q-180 0 -286 123l2 6l27 24h6q94 -115 270 -114q207 0 366 152t224 386q-64 -93 -168 -144q-104 -52 -231 -52q-178 0 -271 106t-63 279l82 465q16 88 -49 88q-33 0 -64 -25l-6 2l-10 27l2 6q35 29 84 29q106 0 84 -127l-84 -476q-27 -147 58 -241t245 -94
q119 -1 239 71t169 189q35 82 42 207t-23 256t-87 215l2 6l37 22h4q75 -116 98 -278q16 -88 13 -209q-7 -232 -113 -466t-262 -334t-337 -99z" />
    <glyph glyph-name="yacute.ss02" 
d="M343 -309q-180 0 -286 123l2 6l27 24h6q94 -115 270 -114q207 0 366 152t224 386q-64 -93 -168 -144q-104 -52 -231 -52q-178 0 -271 106t-63 279l82 465q16 88 -49 88q-33 0 -64 -25l-6 2l-10 27l2 6q35 29 84 29q106 0 84 -127l-84 -476q-27 -147 58 -241t245 -94
q119 -1 239 71t169 189q35 82 42 207t-23 256t-87 215l2 6l37 22h4q75 -116 98 -278q16 -88 13 -209q-7 -232 -113 -466t-262 -334t-337 -99zM477 1145h-4l-14 24v5l356 258h4l23 -35v-4z" />
    <glyph glyph-name="ycircumflex.ss02" 
d="M343 -309q-180 0 -286 123l2 6l27 24h6q94 -115 270 -114q207 0 366 152t224 386q-64 -93 -168 -144q-104 -52 -231 -52q-178 0 -271 106t-63 279l82 465q16 88 -49 88q-33 0 -64 -25l-6 2l-10 27l2 6q35 29 84 29q106 0 84 -127l-84 -476q-27 -147 58 -241t245 -94
q119 -1 239 71t169 189q35 82 42 207t-23 256t-87 215l2 6l37 22h4q75 -116 98 -278q16 -88 13 -209q-7 -232 -113 -466t-262 -334t-337 -99zM389 1145h-4l-16 24v5l288 182h13l223 -182v-5l-25 -24h-4l-213 151z" />
    <glyph glyph-name="ydieresis.ss02" 
d="M343 -309q-180 0 -286 123l2 6l27 24h6q94 -115 270 -114q207 0 366 152t224 386q-64 -93 -168 -144q-104 -52 -231 -52q-178 0 -271 106t-63 279l82 465q16 88 -49 88q-33 0 -64 -25l-6 2l-10 27l2 6q35 29 84 29q106 0 84 -127l-84 -476q-27 -147 58 -241t245 -94
q119 -1 239 71t169 189q35 82 42 207t-23 256t-87 215l2 6l37 22h4q75 -116 98 -278q16 -88 13 -209q-7 -232 -113 -466t-262 -334t-337 -99zM772 1272q54 0 55 -56q0 -26 -22 -48t-48 -23q-26 0 -40 15q-15 15 -15 41q0 27 22 49t48 22zM503 1145q-54 0 -54 58q1 25 23 47
t48 22t40 -16q15 -16 15 -42t-23 -48t-49 -21z" />
    <glyph glyph-name="ygrave.ss02" 
d="M343 -309q-180 0 -286 123l2 6l27 24h6q94 -115 270 -114q207 0 366 152t224 386q-64 -93 -168 -144q-104 -52 -231 -52q-178 0 -271 106t-63 279l82 465q16 88 -49 88q-33 0 -64 -25l-6 2l-10 27l2 6q35 29 84 29q106 0 84 -127l-84 -476q-27 -147 58 -241t245 -94
q119 -1 239 71t169 189q35 82 42 207t-23 256t-87 215l2 6l37 22h4q75 -116 98 -278q16 -88 13 -209q-7 -232 -113 -466t-262 -334t-337 -99zM780 1145h-4l-364 248v4l24 30h4l357 -258v-4z" />
    <glyph glyph-name="uni1EF9.ss02" 
d="M343 -309q-180 0 -286 123l2 6l27 24h6q94 -115 270 -114q207 0 366 152t224 386q-64 -93 -168 -144q-104 -52 -231 -52q-178 0 -271 106t-63 279l82 465q16 88 -49 88q-33 0 -64 -25l-6 2l-10 27l2 6q35 29 84 29q106 0 84 -127l-84 -476q-27 -147 58 -241t245 -94
q119 -1 239 71t169 189q35 82 42 207t-23 256t-87 215l2 6l37 22h4q75 -116 98 -278q16 -88 13 -209q-7 -232 -113 -466t-262 -334t-337 -99zM485 1280q53 0 147 -36t168 -36q73 0 120 72h6l14 -27v-6q-53 -80 -145 -80q-63 0 -165 36t-151 36q-74 0 -117 -72h-6l-20 29v6
q61 78 149 78z" />
    <glyph glyph-name="f_b" horiz-adv-x="1802" 
d="M1767 596q0 117 -47 211t-135 148t-199 55q-166 0 -294 -95q-113 -79 -179 -209q-65 -130 -65 -293t108 -281t279 -118q111 0 211 45t174 125q147 166 147 412zM1402 1049q175 0 292 -126t116 -319q0 -127 -42 -244q-42 -118 -118 -204t-188 -133q-111 -47 -253 -47
t-252 96t-138 254l-57 -326h-41l217 1235q6 61 -41 102t-153 41t-189 -78q-82 -78 -109 -239l-6 -37h318l-6 -37h-318l-211 -1194q-12 -61 -46 -94t-81 -33t-71 29l-2 6l18 25l6 2q27 -23 57 -23q61 0 78 88l211 1194h-176l6 37h176l7 37q31 180 126 268q96 88 222 88
t182 -59q57 -59 43 -137l-86 -471q76 137 205 218t304 81z" />
    <glyph glyph-name="f_h" horiz-adv-x="1710" 
d="M1598 -25q-46 0 -70 33t-12 94l73 420q29 162 29 209q0 119 -81 199t-235 80t-276 -111q-121 -111 -152 -272l-110 -627h-41l217 1235q-2 63 -46 103t-150 40t-189 -78q-82 -78 -109 -239l-6 -37h318l-6 -37h-318l-211 -1194q-12 -61 -46 -94t-81 -33t-71 29l-2 6l18 25
l6 2q27 -23 57 -23q61 0 78 88l211 1194h-176l6 37h176l7 37q31 180 126 268q96 88 222 88t182 -59q57 -59 43 -137l-72 -412q66 109 172 175t251 65q145 0 238 -87t93 -225q0 -43 -31 -215l-74 -420q-16 -88 50 -88q35 0 61 23l6 -2l10 -25l-2 -6q-37 -29 -83 -29z" />
    <glyph glyph-name="f_k" horiz-adv-x="1601" 
d="M1239 461q150 0 244 89t94 228q0 68 -36 121q-75 111 -244 111t-283 -121t-148 -309l-20 -119h393zM1485 -25q-43 0 -72 28t-72 97l-198 324h-305l-74 -424h-41l217 1235q-2 63 -47 103t-151 40t-187 -78q-82 -78 -109 -239l-6 -37h318l-6 -37h-318l-211 -1194
q-12 -61 -46 -94t-81 -33t-71 29l-2 6l18 25l6 2q27 -23 57 -23q61 0 78 88l211 1194h-176l6 37h176l7 37q46 266 237 336q57 20 123 20q113 0 170 -59t43 -137l-72 -412q133 239 400 239q137 0 225 -71q88 -72 88 -191q0 -160 -109 -261t-280 -101h-37l192 -315
q55 -94 107 -95q33 1 51 17l6 -2l11 -25l-2 -6q-31 -23 -74 -23z" />
    <glyph glyph-name="f_t" horiz-adv-x="1130" 
d="M991 14q66 0 115 33l6 -2l12 -27l-2 -6q-57 -37 -137 -37q-123 -1 -178 91t-25 270l115 651h-463l-211 -1194q-12 -61 -46 -94t-81 -33t-71 29l-2 6l18 25l6 2q27 -23 57 -23q61 0 78 88l211 1194h-176l6 37h176l7 37q63 356 331 356q72 0 140 -37v-6l-21 -26l-6 -2
q-59 33 -119 32q-229 0 -285 -317l-6 -37h463l58 324l34 8l6 -4l-57 -328h330l-6 -37h-330l-115 -651q-57 -322 168 -322z" />
    <glyph glyph-name="ordfeminine.ss01" horiz-adv-x="899" 
d="M620 1317q-116 -1 -210 -103t-94 -245t106 -210q51 -32 119 -32q131 0 225 102t94 226t-61 193q-63 69 -179 69zM643 1354q85 0 147 -45t89 -121l26 151h43l-98 -553q-8 -55 27 -55q18 0 34 10l4 -2l5 -28l-2 -4q-25 -17 -63 -17t-48 39q-4 18 10 107
q-111 -147 -285 -148q-118 0 -188 77t-70 198q0 163 108 277t261 114z" />
    <glyph glyph-name="ampersand.ss01" horiz-adv-x="1140" 
d="M1081 426q0 -188 -141 -320q-140 -132 -338 -131t-323 101t-125 250t113 270q114 119 282 154q-166 72 -166 251q0 145 117 249t286 106q98 0 188 -46t140 -120v-4l-35 -27h-4q-47 70 -130 113t-171 43q-142 0 -242 -92t-100 -210t68 -184t192 -65h72l-8 -41h-76
q-199 0 -338 -114t-139 -264t111 -239q112 -88 292 -88t304 115q122 115 122 283q0 129 -71 207l6 43h227l-6 -43h-164q57 -76 57 -197z" />
    <glyph glyph-name="uni0326.001" horiz-adv-x="0" 
d="M86 1352l6 4h41l2 -4l-137 -324l-6 -4h-25l-2 4z" />
    <glyph glyph-name="acute.case" horiz-adv-x="522" 
d="M659 1401h5l16 -35l-2 -4l-383 -215h-4l-12 24v5z" />
    <glyph glyph-name="breve.case" horiz-adv-x="712" 
d="M554 1145q-99 0 -157 63q-57 63 -53 166h41q-2 -86 46 -139t129 -53t149 53t96 139h41q-33 -102 -113 -166t-179 -63z" />
    <glyph glyph-name="caron.case" horiz-adv-x="690" 
d="M827 1358l15 -25v-4l-295 -182h-8l-230 182v4l23 25h4l217 -156l270 156h4z" />
    <glyph glyph-name="circumflex.case" horiz-adv-x="688" 
d="M584 1358l229 -182v-5l-22 -24h-5l-217 156l-270 -156h-4l-14 24v5l294 182h9z" />
    <glyph glyph-name="dieresis.case" horiz-adv-x="616" 
d="M657 1145q-27 0 -42 16t-15 43q0 28 24 50t50 22q54 0 55 -55q0 -31 -22 -54q-23 -22 -50 -22zM364 1145q-28 0 -42 16t-14 43q0 28 23 50q25 22 51 22q54 0 54 -55q0 -31 -22 -54q-23 -22 -50 -22z" />
    <glyph glyph-name="dotaccent.case" horiz-adv-x="280" 
d="M287 1202q-1 24 23 46t48 22t40 -16t16 -40q0 -26 -24 -48t-48 -21q-25 0 -40 16t-15 41z" />
    <glyph glyph-name="grave.case" horiz-adv-x="524" 
d="M260 1399l381 -225v-5l-14 -22h-4l-383 215l-2 4l18 33h4z" />
    <glyph glyph-name="hungarumlaut.case" horiz-adv-x="679" 
d="M733 1446v-4l-225 -295h-35l-2 4l211 295h51zM535 1446v-4l-226 -295h-35l-2 4l211 295h52z" />
    <glyph glyph-name="macron.case" horiz-adv-x="694" 
d="M291 1208h538l-6 -37h-538z" />
    <glyph glyph-name="ring.case" horiz-adv-x="452" 
d="M452 1395q-54 0 -90 -43q-36 -44 -34 -92q0 -48 30 -78t82 -29q53 0 88 43t35 90t-28 78q-29 31 -83 31zM436 1116q-66 0 -108 38q-41 38 -41 104t52 120q53 54 119 54t105 -38t39 -105t-50 -120t-116 -53z" />
    <glyph glyph-name="tilde.case" horiz-adv-x="759" 
d="M432 1286q56 0 158 -38t181 -38t128 76h6l19 -29v-4q-61 -84 -158 -84q-68 0 -180 38t-162 38q-82 0 -127 -76h-4l-23 29l2 4q62 84 160 84z" />
    <glyph glyph-name="IJacute" horiz-adv-x="1632" 
d="M1182 1331h495l-176 -995q-29 -162 -147 -261t-275 -100q-236 0 -313 195v4l37 25h4q78 -180 280 -181q139 0 241 88q101 88 128 234l168 950h-450zM811 1290h-236l-221 -1249h236l-8 -41h-516l8 41h235l221 1249h-235l10 41h514zM1657 1704h4l16 -35l-2 -4l-383 -215h-4
l-12 25v4zM788 1704h5l16 -35l-2 -4l-383 -215h-4l-12 25v4z" />
    <glyph glyph-name="ijacute" horiz-adv-x="815" 
d="M831 1024l-176 -999q-23 -129 -75 -201t-144 -131h-6l-12 24v7q84 52 129 118t67 187l170 958h-143l6 37h184zM297 14q35 0 61 23l7 -2l10 -25l-2 -6q-37 -29 -83 -29t-70 33t-13 94l151 820q16 88 -49 88q-29 0 -57 -23l-6 2l-17 25l2 6q39 29 86 29t71 -32t11 -95
l-151 -820q-16 -88 49 -88zM1006 1432h4l22 -35v-4l-364 -248h-4l-15 24v5zM618 1432h5l22 -35v-4l-364 -248h-5l-14 24v5z" />
    <glyph glyph-name="slashlong.case" horiz-adv-x="1259" 
d="M135 -100l-2 6l1253 1544h50l2 -6l-1254 -1544h-49z" />
    <glyph glyph-name="slashlong" horiz-adv-x="1032" 
d="M1182 1298v-4l-1045 -1235h-47l-2 4l1047 1235h47z" />
    <glyph glyph-name="slashshort.case" horiz-adv-x="729" 
d="M825 791l-663 -310l-4 4l6 35l661 309l6 -4z" />
    <glyph glyph-name="slashshort" horiz-adv-x="587" 
d="M164 483l4 33l510 248h8l-6 -33l-508 -248h-8z" />
    <glyph glyph-name="strokelong" horiz-adv-x="1486" 
d="M358 1032h1158l-9 -41h-1157z" />
    <glyph glyph-name="strokeshort" horiz-adv-x="681" 
d="M205 643l8 37h489l-8 -37h-489z" />
    </font>
</defs>
</svg>
