<?xml version="1.0" encoding="UTF-8"?>
<svg xmlns="http://www.w3.org/2000/svg" xmlns:xlink="http://www.w3.org/1999/xlink" version="1.2" >
<font id="Baskerville URW Extra Wide UB O">
<font-face  font-family="Baskerville URW Extra Wide" units-per-em="1000" ascent="679" descent="-321" font-style="italic" font-weight="800" font-stretch="semi-condensed" cap-height="665" x-height="403" underline-position="-95" underline-thickness="101" />
<missing-glyph  horiz-adv-x="250" d="" />
<glyph glyph-name="NULL" d="" />
<glyph glyph-name="CR" unicode="&#xd;" horiz-adv-x="250" d="" />
<glyph glyph-name="space" unicode="&#x20;" horiz-adv-x="250" d="" />
<glyph glyph-name="exclam" unicode="&#x21;" horiz-adv-x="328" d="M172 227 L289 562 C302 600 306 617 306 633 C306 669 289 684 247 684 C172 684 148 656 140 558 L115 227 L172 227 Z M133 178 C75 178 21 119 21 57 C21 14 50 -18 89 -18 C148 -18 202 40 202 103 C202 147 173 178 133 178 L133 178 Z " />
<glyph glyph-name="quotedbl" unicode="&#x22;" horiz-adv-x="481" d="M170 400 L279 667 L99 667 L94 400 L170 400 Z M415 400 L525 667 L344 667 L339 400 L415 400 Z " />
<glyph glyph-name="numbersign" unicode="&#x23;" horiz-adv-x="513" d="M319 226 L414 226 L441 300 L354 300 L395 381 L490 381 L517 455 L430 455 L533 667 L459 667 L355 455 L280 455 L383 667 L309 667 L206 455 L102 455 L75 381 L171 381 L130 300 L24 300 L-3 226 L94 226 L-16 0 L58 0 L168 226 L244 226 L134 0 L208 0 L319 226 Z M320 381 L279 300 L203 300 L244 381 L320 381 Z " />
<glyph glyph-name="dollar" unicode="&#x24;" horiz-adv-x="500" d="M107 -140 L171 -140 L199 -11 C244 -6 283 8 319 32 C388 78 434 161 434 237 C434 300 395 359 329 395 L300 411 C300 411 297 413 290 417 L325 584 C350 575 357 566 362 537 C367 501 368 498 376 485 C384 472 397 465 409 465 C444 465 478 503 478 543 C478 601 417 646 339 647 L345 677 L280 677 L273 644 C224 634 200 624 174 605 C116 563 76 486 76 419 C76 388 84 359 100 333 C115 307 129 294 165 273 L177 266 L191 257 L148 53 C130 60 120 77 114 111 C108 142 94 155 67 155 C28 155 -5 119 -5 77 C-5 27 40 -3 134 -14 L107 -140 Z M249 226 C253 221 253 221 256 217 C269 203 269 203 272 199 C280 187 284 173 284 156 C284 121 271 89 250 70 C240 61 235 59 212 52 L249 226 Z M231 445 C206 463 196 480 196 506 C196 537 219 569 247 578 C257 581 259 582 260 583 L231 445 Z " />
<glyph glyph-name="percent" unicode="&#x25;" horiz-adv-x="737" d="M252 681 C193 681 148 657 109 606 C76 563 57 507 57 452 C57 375 98 333 174 333 C231 333 279 358 315 407 C347 451 365 506 365 561 C365 637 324 681 252 681 L252 681 Z M239 633 C248 633 253 624 253 604 C253 572 240 502 224 446 C210 400 199 381 185 381 C175 381 170 391 170 411 C170 438 180 493 198 565 C209 609 224 633 239 633 L239 633 Z M180 0 L632 675 L559 675 L107 0 L180 0 Z M566 335 C507 335 462 312 423 260 C390 217 371 161 371 107 C371 29 412 -13 488 -13 C545 -13 593 12 629 61 C661 105 679 160 679 215 C679 291 638 335 566 335 L566 335 Z M553 287 C562 287 567 278 567 258 C567 226 554 156 538 100 C524 54 513 35 499 35 C489 35 484 45 484 64 C484 92 494 146 512 219 C523 263 538 287 553 287 L553 287 Z " />
<glyph glyph-name="ampersand" unicode="&#x26;" horiz-adv-x="715" d="M178 361 C65 297 2 214 2 128 C2 48 60 -14 135 -14 C194 -14 249 6 323 56 C358 10 402 -13 457 -13 C515 -13 574 15 607 59 C628 88 641 118 650 163 L592 163 C577 107 560 87 527 87 C501 87 482 104 455 153 C454 155 451 160 447 167 C479 198 503 224 515 237 C585 320 610 339 657 347 L670 408 L472 408 L459 347 C481 347 490 340 490 326 C490 325 490 323 489 322 L488 320 C488 320 487 318 487 314 C480 294 472 283 418 222 C378 307 374 316 342 385 C417 426 460 492 460 564 C460 621 419 655 349 655 C274 655 215 618 185 552 C170 520 162 483 162 450 C162 425 163 419 177 367 L178 361 Z M202 294 C240 213 240 212 265 159 C276 138 283 122 290 106 C274 94 259 88 242 88 C204 88 176 137 176 204 C176 236 185 275 200 301 L202 294 Z M327 444 C305 477 293 509 293 532 C293 566 316 590 349 590 C377 590 396 570 396 541 C396 505 374 474 327 444 L327 444 Z " />
<glyph glyph-name="quotesingle" unicode="&#x27;" horiz-adv-x="263" d="M186 400 L296 667 L108 667 L104 400 L186 400 Z " />
<glyph glyph-name="parenleft" unicode="&#x28;" horiz-adv-x="335" d="M183 -246 C148 -117 142 -77 142 11 C142 167 188 348 266 500 C294 557 314 587 381 680 L303 680 C154 525 51 255 51 19 C51 -81 69 -168 105 -246 L183 -246 Z " />
<glyph glyph-name="parenright" unicode="&#x29;" horiz-adv-x="335" d="M-14 -246 C141 -75 236 176 236 416 C236 521 218 610 181 680 L103 680 C139 557 146 517 146 424 C146 253 92 54 4 -100 C-19 -140 -51 -187 -93 -246 L-14 -246 Z " />
<glyph glyph-name="asterisk" unicode="&#x2a;" horiz-adv-x="507" d="M223 309 C228 323 234 335 240 344 C245 350 249 356 253 362 C254 363 258 369 262 375 C267 361 269 351 269 330 C269 314 269 314 265 268 C264 256 263 244 263 233 C263 197 277 175 301 175 C343 175 393 223 393 263 L393 264 C394 278 382 299 363 316 C325 349 313 365 303 399 C316 405 323 407 334 407 L340 407 L346 405 L363 405 C372 405 384 404 400 402 C414 400 428 399 437 399 C478 399 510 435 510 481 C510 518 491 543 462 543 C438 543 426 536 380 499 C351 476 324 460 302 454 C303 484 310 501 342 556 C366 595 375 616 375 637 C375 665 356 681 322 681 C279 681 245 647 245 606 C245 598 248 576 253 550 C257 532 259 513 259 499 C259 485 257 476 250 454 C233 453 217 465 183 503 C161 529 143 540 125 540 C86 540 45 489 45 441 C45 411 62 397 98 397 C114 397 138 399 155 403 C167 405 176 406 181 406 C202 406 218 403 225 399 C210 374 199 363 144 328 C94 295 71 267 71 236 C71 204 99 175 130 175 C162 175 192 211 211 271 L223 309 Z " />
<glyph glyph-name="plus" unicode="&#x2b;" horiz-adv-x="450" d="M18 427 L-4 326 L170 326 L126 119 L232 119 L276 326 L452 326 L473 427 L297 427 L341 633 L236 633 L192 427 L18 427 Z " />
<glyph glyph-name="comma" unicode="&#x2c;" horiz-adv-x="321" d="M-48 -202 C86 -202 199 -76 199 73 C199 137 169 172 115 172 C52 172 -1 113 -1 44 C-1 6 21 -20 54 -20 C59 -20 64 -19 70 -17 C80 -14 85 -13 90 -13 C96 -13 101 -19 101 -26 C101 -43 88 -69 70 -88 C44 -116 8 -133 -34 -135 L-48 -202 Z " />
<glyph glyph-name="hyphen" unicode="&#x2d;" horiz-adv-x="319" d="M11 260 L-6 179 L266 179 L284 260 L11 260 Z " />
<glyph glyph-name="period" unicode="&#x2e;" horiz-adv-x="321" d="M127 178 C69 178 15 119 15 57 C15 14 44 -18 83 -18 C142 -18 196 40 196 103 C196 147 167 178 127 178 L127 178 Z " />
<glyph glyph-name="slash" unicode="&#x2f;" horiz-adv-x="330" d="M391 704 L274 704 L-146 -277 L-31 -277 L391 704 Z " />
<glyph glyph-name="zero" unicode="0" horiz-adv-x="500" d="M322 681 C237 681 150 621 100 529 C50 436 13 289 13 179 C13 65 79 -14 174 -14 C279 -14 378 69 428 200 C459 282 485 408 485 482 C485 602 421 681 322 681 L322 681 Z M311 617 C328 617 339 601 339 574 C339 553 333 519 317 446 C313 429 280 273 269 223 C250 126 242 99 226 74 C217 61 203 52 189 52 C173 52 163 68 163 93 C163 142 241 514 263 569 C276 601 291 617 311 617 L311 617 Z " />
<glyph glyph-name="one" unicode="1" horiz-adv-x="500" d="M363 683 C294 640 239 623 146 618 L133 557 L139 557 C191 555 203 550 203 528 C203 519 201 502 198 488 L117 108 C109 75 94 63 58 63 L37 63 L24 0 L345 0 L358 63 L338 63 C313 63 299 73 299 92 C299 101 299 102 304 125 L423 683 L363 683 Z " />
<glyph glyph-name="two" unicode="2" horiz-adv-x="500" d="M-16 0 L285 0 C308 0 313 -3 313 -15 C313 -22 311 -29 309 -34 L307 -38 L360 -38 L414 111 L167 111 C277 214 409 351 442 396 C476 442 492 490 492 543 C492 627 427 681 326 681 C190 681 87 594 87 479 C87 448 89 438 96 438 C101 438 104 439 138 452 L156 459 C158 460 168 463 181 468 C202 475 203 477 203 494 C203 562 233 612 275 612 C297 612 309 590 309 553 C309 492 283 414 234 331 C177 233 107 151 -5 51 L-16 0 Z " />
<glyph glyph-name="three" unicode="3" horiz-adv-x="500" d="M199 496 C207 499 209 502 209 510 L209 513 C208 523 208 523 208 529 C208 576 236 613 272 613 C292 613 307 592 307 563 C307 497 264 428 192 378 C161 356 149 341 149 322 C149 307 157 295 166 295 C174 295 184 300 192 308 C216 332 218 334 232 334 C244 334 251 327 251 314 C251 308 250 297 249 287 C236 196 218 131 196 95 C180 71 147 51 120 51 C101 51 91 64 89 94 C84 141 70 161 43 161 C2 161 -35 119 -35 73 C-35 20 18 -15 98 -15 C276 -15 432 126 432 287 C432 349 397 387 327 400 C423 445 483 515 483 580 C483 606 470 633 450 648 C423 668 375 682 329 682 C237 682 131 625 98 559 C88 539 84 519 84 494 C84 470 90 457 100 457 C106 457 124 463 139 470 C146 473 151 475 154 476 C158 478 160 478 190 492 L199 496 Z " />
<glyph glyph-name="four" unicode="4" horiz-adv-x="500" d="M199 229 L176 121 C170 78 154 64 111 63 L90 63 L76 0 L406 0 L420 63 L396 63 C372 63 355 76 355 95 C355 100 357 110 360 126 L382 229 L443 229 L476 328 L448 328 L442 319 C433 307 433 307 417 307 L414 307 L407 307 L399 307 L477 678 L378 678 L27 314 L9 229 L199 229 Z M216 307 L90 307 L252 477 L216 307 Z " />
<glyph glyph-name="five" unicode="5" horiz-adv-x="500" d="M139 335 C163 371 176 381 201 381 C231 381 249 361 249 329 C249 284 219 151 200 108 C183 73 159 53 131 53 C112 53 92 70 87 91 C79 128 79 128 71 140 C63 150 52 156 40 156 C3 156 -33 115 -33 73 C-33 23 28 -14 108 -14 C210 -14 314 37 372 115 C408 165 429 231 429 294 C429 386 361 451 266 451 C223 451 182 439 152 417 L186 563 L351 563 L374 563 C405 561 409 565 466 661 C467 664 470 669 474 675 L157 675 L75 335 L139 335 Z " />
<glyph glyph-name="six" unicode="6" horiz-adv-x="500" d="M230 418 C240 453 243 461 255 490 C291 577 322 614 356 614 C374 614 387 604 395 585 C409 552 424 537 446 537 C481 537 519 576 519 614 C519 653 478 682 422 682 C325 682 231 636 157 552 C81 465 18 296 18 179 C18 67 87 -14 182 -14 C333 -14 455 121 455 287 C455 376 396 430 299 430 C273 430 256 427 230 418 L230 418 Z M184 229 C202 316 202 317 219 342 C229 356 245 365 261 365 C285 365 299 349 299 320 C299 288 294 258 268 141 C253 71 238 50 203 50 C176 50 162 67 162 101 C162 122 162 125 179 207 L184 229 Z " />
<glyph glyph-name="seven" unicode="7" horiz-adv-x="500" d="M540 675 L250 675 C235 675 231 677 231 685 C231 690 232 695 236 704 L179 704 L68 485 L123 485 C143 527 159 539 196 537 L406 537 L137 142 C97 84 86 61 86 38 C86 7 110 -14 147 -14 C186 -14 212 9 241 69 L540 675 Z " />
<glyph glyph-name="eight" unicode="8" horiz-adv-x="500" d="M335 361 C442 393 498 461 498 557 C498 638 436 687 334 687 C185 687 83 600 83 472 C83 438 96 410 122 388 C138 376 153 369 189 361 C137 351 114 342 87 323 C31 283 -3 210 -3 132 C-3 99 4 73 20 52 C50 11 113 -14 184 -14 C334 -14 445 95 445 241 C445 309 416 340 335 361 L335 361 Z M315 623 C326 622 331 614 331 598 C331 573 312 473 299 432 C289 401 278 387 264 387 C252 387 245 399 245 419 C245 439 258 508 274 569 C283 602 299 624 315 623 L315 623 Z M252 325 C265 325 274 313 274 296 C274 272 266 230 242 123 C230 71 215 49 193 49 C178 49 168 62 168 81 C168 107 176 150 198 245 C211 301 227 325 252 325 L252 325 Z " />
<glyph glyph-name="nine" unicode="9" horiz-adv-x="500" d="M284 247 C240 106 206 53 158 53 C143 53 129 63 120 81 C104 117 93 126 69 126 C32 126 -3 90 -3 52 C-3 10 32 -14 92 -14 C235 -14 353 71 426 225 C464 307 492 422 492 497 C492 605 426 681 331 681 C183 681 62 547 62 383 C62 346 69 318 85 294 C111 256 159 233 212 233 C241 233 262 237 284 247 L284 247 Z M324 418 C309 346 309 345 299 327 C290 312 269 300 252 300 C231 300 217 317 217 342 C217 362 247 518 258 554 C272 599 290 618 317 618 C339 618 350 602 350 570 C350 542 348 529 331 447 L324 418 Z " />
<glyph glyph-name="colon" unicode="&#x3a;" horiz-adv-x="321" d="M129 178 C71 178 17 119 17 57 C17 14 46 -18 85 -18 C144 -18 198 40 198 103 C198 147 169 178 129 178 L129 178 Z M180 415 C122 415 67 356 67 294 C67 251 96 219 136 219 C194 219 249 277 249 340 C249 384 220 415 180 415 L180 415 Z " />
<glyph glyph-name="semicolon" unicode="&#x3b;" horiz-adv-x="321" d="M-48 -202 C86 -202 199 -76 199 73 C199 137 169 172 115 172 C52 172 -1 113 -1 44 C-1 6 21 -20 54 -20 C59 -20 64 -19 70 -17 C80 -14 85 -13 90 -13 C96 -13 101 -19 101 -26 C101 -43 88 -69 70 -88 C44 -116 8 -133 -34 -135 L-48 -202 Z M180 416 C122 416 68 357 68 295 C68 252 97 220 136 220 C195 220 249 278 249 341 C249 385 220 416 180 416 L180 416 Z " />
<glyph glyph-name="less" unicode="&#x3c;" horiz-adv-x="450" d="M485 652 L44 390 L42 380 L364 82 L412 307 L262 446 L467 567 L485 652 Z " />
<glyph glyph-name="equal" unicode="&#x3d;" horiz-adv-x="501" d="M34 505 L13 407 L519 407 L540 505 L34 505 Z M25 346 L4 248 L460 248 L481 346 L25 346 Z " />
<glyph glyph-name="greater" unicode="&#x3e;" horiz-adv-x="450" d="M-21 82 L420 344 L422 354 L100 652 L52 427 L203 288 L-3 167 L-21 82 Z " />
<glyph glyph-name="question" unicode="&#x3f;" horiz-adv-x="453" d="M135 178 C79 178 25 119 25 57 C25 14 53 -18 91 -18 C149 -18 202 40 202 103 C202 147 174 178 135 178 L135 178 Z M110 230 L181 230 L196 302 C219 297 233 295 247 295 C358 295 453 403 453 530 C453 627 389 684 281 684 C207 684 141 655 104 605 C91 588 83 568 83 553 C83 530 102 511 124 511 C150 511 175 533 189 568 C198 592 199 595 205 602 C213 612 228 620 241 620 C264 620 279 597 279 561 C279 522 270 463 257 425 C246 391 229 371 211 371 C204 371 198 375 195 383 L142 383 L110 230 Z " />
<glyph glyph-name="at" unicode="&#x40;" horiz-adv-x="712" d="M498 510 L482 484 C467 512 440 527 405 527 C344 527 281 486 227 413 C186 356 160 291 160 244 C160 180 196 138 251 138 C267 138 302 147 315 155 L345 172 C345 172 347 173 349 173 L349 177 C360 152 378 141 409 141 C460 141 523 171 573 219 C638 283 673 361 673 444 C673 577 577 675 448 675 C239 675 49 477 49 259 C49 106 160 -10 305 -10 C431 -10 572 76 636 192 L571 189 C557 166 541 148 513 126 C450 76 389 51 326 51 C200 51 109 144 109 273 C109 361 142 446 198 508 C261 576 348 617 429 617 C536 617 614 537 614 429 C614 366 585 301 536 251 C505 219 466 194 449 194 C441 194 435 199 435 207 C435 211 437 217 443 226 C446 233 450 240 454 248 L590 511 C565 510 554 510 542 510 L523 510 L498 510 Z M381 295 C349 231 349 231 328 209 C312 192 296 183 280 183 C262 183 252 194 252 215 C252 245 278 312 316 377 C357 448 390 480 424 480 C439 480 450 466 450 445 C450 435 446 421 439 408 L381 295 Z " />
<glyph glyph-name="A" unicode="A" horiz-adv-x="588" d="M529 0 L542 63 L538 63 C499 67 486 88 472 167 L396 679 L335 679 L54 182 C14 110 -29 66 -65 63 L-70 63 L-83 0 L120 0 L133 63 L127 63 C94 63 79 71 79 91 C79 103 84 116 98 141 L110 164 L285 164 L289 134 C291 118 292 108 292 100 C292 74 273 63 234 63 L229 63 L216 0 L529 0 Z M275 229 L146 229 L246 407 L275 229 Z " />
<glyph glyph-name="B" unicode="B" horiz-adv-x="631" d="M-45 0 L294 0 C386 0 445 16 495 56 C543 93 572 153 572 214 C572 285 528 331 438 353 C554 388 617 454 617 541 C617 590 593 627 547 648 C511 664 463 670 378 670 C344 670 284 669 223 667 L94 663 L81 600 L85 600 C115 600 132 586 132 562 C132 554 131 544 129 535 L42 126 C34 81 14 63 -30 62 L-32 62 L-45 0 Z M277 318 C320 318 320 318 331 315 C354 309 365 290 365 255 C365 223 350 145 339 119 C324 84 301 67 269 67 C246 67 232 78 232 97 C232 107 232 108 239 138 L277 318 Z M291 387 L338 604 C362 603 364 603 373 601 C395 596 407 577 407 547 C407 518 396 467 384 440 C368 402 348 387 314 387 L299 387 L291 387 Z " />
<glyph glyph-name="C" unicode="C" horiz-adv-x="671" d="M550 258 C539 232 516 188 499 161 C461 102 392 60 333 60 C271 60 232 105 232 175 C232 244 263 392 294 475 C325 556 383 605 447 605 C503 605 540 575 559 514 C569 480 574 445 574 410 L630 410 L675 655 L619 655 L617 651 L610 637 C606 629 603 624 602 621 C598 615 596 611 591 602 C546 657 498 679 425 679 C307 679 198 619 118 510 C59 429 27 337 27 247 C27 87 123 -14 275 -14 C349 -14 434 18 485 66 C492 52 496 31 496 3 L553 3 L607 258 L550 258 Z " />
<glyph glyph-name="D" unicode="D" horiz-adv-x="722" d="M95 669 L82 606 L85 606 C115 606 133 592 133 569 C133 562 132 551 129 540 L41 127 C33 81 14 64 -31 63 L-33 63 L-46 0 L160 0 C378 1 408 6 486 50 C613 122 695 265 695 416 C695 518 652 596 573 639 C523 666 463 675 335 675 L315 675 C260 675 241 674 183 672 L95 669 Z M337 607 C370 607 389 604 405 597 C451 578 479 524 479 456 C479 385 453 267 423 196 C386 111 339 68 283 68 C249 68 233 81 233 108 C233 116 233 116 239 144 L337 607 Z " />
<glyph glyph-name="E" unicode="E" horiz-adv-x="614" d="M510 222 C457 105 411 66 329 68 L321 68 C269 68 245 79 245 104 C245 112 245 112 253 147 L288 314 L340 314 C371 314 386 300 386 273 C386 266 385 255 382 242 L381 235 L435 235 L483 460 L429 460 L427 454 C412 398 396 383 353 382 L302 382 L349 599 L461 599 C515 601 529 582 540 493 L597 493 L626 667 L95 667 L82 605 L92 605 C125 605 145 592 145 569 C145 561 144 547 142 539 L54 127 C47 83 25 64 -21 63 L-31 63 L-44 0 L518 0 L566 222 L510 222 Z " />
<glyph glyph-name="F" unicode="F" horiz-adv-x="547" d="M608 667 L95 667 L82 605 L91 605 C124 605 141 592 141 566 C141 557 140 548 138 539 L50 127 C41 80 25 66 -25 63 L-31 63 L-44 0 L290 0 L304 63 L295 63 C262 63 241 76 241 98 C241 106 242 116 244 127 L284 313 L323 313 C351 313 362 303 362 276 C362 266 361 250 359 236 L358 231 L415 231 L463 459 L406 459 L404 451 C388 397 375 383 339 382 L299 382 L345 599 L427 599 C490 600 507 579 516 488 L574 488 L608 667 Z " />
<glyph glyph-name="G" unicode="G" horiz-adv-x="713" d="M408 314 L395 252 L400 251 C434 245 448 232 448 207 L447 194 L441 170 C426 99 384 59 326 59 C261 59 233 90 233 161 C233 216 260 349 290 444 C322 544 380 598 454 598 C530 598 567 550 579 441 L640 441 L683 676 L623 676 C615 649 605 630 589 608 C544 656 490 679 422 679 C307 679 194 615 114 504 C57 424 26 335 26 248 C26 90 125 -14 275 -14 C308 -14 343 -10 378 -3 C492 20 535 26 577 26 C580 26 583 26 589 25 L596 25 L629 182 C638 225 645 235 674 250 L681 252 L694 314 L408 314 Z " />
<glyph glyph-name="H" unicode="H" horiz-adv-x="778" d="M490 315 L449 126 C442 82 421 64 375 62 L362 0 L683 0 L697 62 L692 62 C660 62 639 76 639 96 C639 102 641 115 643 126 L731 538 C740 584 760 602 806 604 L812 604 L825 667 L503 667 L490 604 C523 603 540 590 540 566 C540 558 539 548 537 538 L504 384 L294 384 L327 538 C336 584 356 602 402 604 L405 604 L418 667 L95 667 L81 604 L86 604 C116 604 136 589 136 566 C136 557 135 548 133 538 L46 126 C39 83 17 65 -30 62 L-34 62 L-47 0 L276 0 L290 62 L288 62 C258 62 235 76 235 95 C235 99 238 118 239 126 L280 315 L490 315 Z " />
<glyph glyph-name="I" unicode="I" horiz-adv-x="376" d="M81 604 L86 604 C119 604 136 592 136 567 C136 556 135 548 133 539 L46 127 C36 80 20 66 -30 63 L-34 63 L-47 0 L281 0 L294 63 L288 63 C256 63 236 75 236 95 C236 103 238 117 240 127 L327 539 C337 586 356 602 402 604 L409 604 L423 667 L95 667 L81 604 Z " />
<glyph glyph-name="J" unicode="J" horiz-adv-x="374" d="M94 667 L81 604 L95 604 C129 604 146 592 146 567 C146 558 145 548 143 539 L27 -7 C-1 -141 -16 -175 -47 -175 C-61 -175 -71 -168 -71 -157 C-71 -154 -70 -148 -68 -145 C-61 -129 -61 -128 -61 -115 C-61 -80 -82 -61 -121 -61 C-177 -61 -225 -104 -225 -154 C-225 -206 -169 -238 -80 -238 C1 -238 69 -216 121 -175 C179 -129 206 -74 233 49 L336 539 C347 586 365 602 411 604 L417 604 L430 667 L94 667 Z " />
<glyph glyph-name="K" unicode="K" horiz-adv-x="730" d="M291 349 L332 539 C342 586 360 602 407 604 L415 604 L428 667 L95 667 L81 604 L91 604 C122 604 141 591 141 569 C141 562 139 545 138 539 L50 127 C41 80 24 66 -25 63 L-32 63 L-45 0 L279 0 L293 63 C259 63 240 75 240 95 C240 102 242 116 244 127 L272 256 L344 324 L403 140 L403 134 C403 132 405 128 407 122 C410 115 412 107 412 100 C412 74 391 63 347 63 L343 63 L330 0 L683 0 L696 63 L692 63 C640 59 603 96 585 173 L494 450 L544 492 C635 570 692 602 748 605 L755 604 L768 667 L493 667 L479 604 L487 605 C512 605 525 598 525 584 C525 565 510 544 474 511 L291 349 Z " />
<glyph glyph-name="L" unicode="L" horiz-adv-x="594" d="M560 228 L505 228 C465 126 395 69 311 69 L307 69 C260 69 240 81 240 111 C240 120 240 120 247 150 L329 538 C339 586 358 602 404 604 L411 604 L425 667 L95 667 L81 604 L88 604 C120 604 138 591 138 569 C138 564 136 542 135 538 L48 127 C38 80 22 66 -28 63 L-34 63 L-47 0 L509 0 L560 228 Z " />
<glyph glyph-name="M" unicode="M" horiz-adv-x="915" d="M371 667 L95 667 L81 604 L84 604 C127 604 153 589 153 563 C153 552 152 544 150 535 L73 170 C61 99 31 67 -29 63 L-34 63 L-47 0 L193 0 L206 63 L202 63 C160 62 133 85 133 123 C133 132 135 143 140 167 L211 500 L323 0 L359 0 L666 511 L584 127 C575 80 559 66 510 63 L502 63 L489 0 L820 0 L834 63 L824 63 C793 63 774 75 774 95 C774 102 776 116 778 127 L865 539 C876 587 893 602 938 604 L947 604 L960 667 L698 667 L450 257 L371 667 Z " />
<glyph glyph-name="N" unicode="N" horiz-adv-x="710" d="M539 -9 L646 492 C659 563 685 592 743 604 L750 604 L763 667 L524 667 L511 604 L515 604 C553 605 579 578 579 536 C579 526 577 509 573 493 L530 287 L301 667 L95 667 L82 604 L86 604 C119 604 144 577 144 540 C144 530 143 522 141 513 L70 176 C60 131 56 119 46 104 C29 80 0 62 -22 62 L-24 62 L-28 62 L-41 0 L180 0 L193 62 L187 62 L180 62 C155 62 134 90 134 123 C134 133 136 147 142 176 L199 444 L466 -9 L539 -9 Z " />
<glyph glyph-name="O" unicode="O" horiz-adv-x="748" d="M456 679 C315 679 207 624 119 508 C59 430 27 339 27 250 C27 159 63 78 121 38 C168 4 235 -14 309 -14 C419 -14 515 29 596 113 C675 196 720 303 720 409 C720 574 618 679 456 679 L456 679 Z M432 605 C481 605 507 569 507 503 C507 435 480 290 449 195 C422 109 373 60 316 60 C270 60 242 100 242 168 C242 229 265 359 292 444 C326 555 369 605 432 605 L432 605 Z " />
<glyph glyph-name="P" unicode="P" horiz-adv-x="623" d="M95 667 L82 604 L96 604 C129 604 146 592 146 567 C146 558 145 548 143 539 L55 127 C46 80 30 66 -20 63 L-29 63 L-42 0 L296 0 L310 63 L299 63 C265 63 246 75 246 96 C246 105 247 116 249 127 L284 290 L318 290 L378 290 C438 293 483 305 526 329 C596 369 640 444 640 523 C640 572 620 614 586 636 C543 665 507 673 411 673 C353 673 333 673 235 670 C228 670 187 669 146 668 L95 667 Z M299 358 L351 604 C385 603 385 603 395 600 C418 592 432 568 432 533 C432 492 419 439 399 402 C383 372 358 358 321 358 L299 358 Z " />
<glyph glyph-name="Q" unicode="Q" horiz-adv-x="747" d="M712 -65 C679 -100 626 -122 575 -122 C528 -122 489 -109 426 -72 C394 -53 362 -42 341 -42 L336 -42 L395 -4 C472 14 537 51 591 106 C672 190 720 302 720 409 C720 486 696 553 652 603 C605 654 539 679 449 679 C335 679 236 636 155 551 C74 466 27 355 27 250 C27 95 120 -4 275 -14 C152 -90 152 -90 127 -119 C121 -125 116 -139 116 -149 C116 -166 126 -178 140 -178 C153 -178 167 -170 183 -155 C222 -116 245 -103 274 -103 C302 -103 323 -116 343 -147 C369 -186 393 -217 409 -229 C434 -248 476 -260 519 -260 C633 -260 723 -189 768 -65 L712 -65 Z M431 605 C480 605 507 570 507 509 C507 450 493 355 470 264 C435 126 386 60 317 60 C270 60 241 101 241 168 C241 216 263 339 286 424 C321 547 367 605 431 605 L431 605 Z " />
<glyph glyph-name="R" unicode="R" horiz-adv-x="674" d="M-46 0 L286 0 L300 63 L294 63 C262 63 242 75 242 95 C242 102 244 115 246 127 L280 287 L289 287 C343 288 360 279 369 240 C372 231 374 222 377 212 C385 179 393 147 393 143 C416 43 419 33 433 0 L627 0 L641 63 L635 63 C603 65 584 96 557 189 C540 250 515 304 494 324 C579 354 641 438 641 525 C641 606 593 654 502 663 C471 666 408 667 262 667 L95 667 L81 604 L92 604 C124 604 143 591 143 569 C143 562 141 545 140 539 L52 127 C43 80 26 66 -24 63 L-33 63 L-46 0 Z M346 595 C351 596 355 596 357 596 C382 596 408 592 416 587 C431 578 441 556 441 528 C441 489 424 430 403 394 C387 367 363 356 318 356 C313 356 306 356 295 357 L346 595 Z " />
<glyph glyph-name="S" unicode="S" horiz-adv-x="514" d="M-17 13 L44 13 C52 36 58 49 68 64 C95 17 150 -14 210 -14 C343 -14 465 110 465 245 C465 278 457 309 441 335 C422 368 390 394 317 437 C256 472 242 489 242 525 C242 572 279 612 323 612 C373 612 409 557 410 479 L410 473 L410 465 L467 465 L510 667 L451 667 C443 647 435 633 430 625 C405 658 360 679 315 679 C190 679 74 556 74 423 C74 394 80 368 91 348 C112 311 120 304 197 249 C253 208 256 206 264 198 C277 184 283 169 283 150 C283 101 244 60 197 60 C155 60 124 87 106 140 C97 167 94 195 93 245 L32 245 L-17 13 Z " />
<glyph glyph-name="T" unicode="T" horiz-adv-x="629" d="M99 470 C132 571 161 598 235 598 L272 598 L172 127 C163 81 143 64 96 63 L86 63 L73 0 L412 0 L426 63 L415 63 C381 63 362 75 362 96 C362 106 363 116 365 127 L466 598 L502 598 C531 598 553 592 564 580 C579 564 588 527 588 483 L588 470 L645 470 L688 667 L83 667 L42 470 L99 470 Z " />
<glyph glyph-name="U" unicode="U" horiz-adv-x="698" d="M501 667 L488 605 L493 605 C538 605 569 578 569 539 C569 533 568 523 565 509 L517 286 C503 218 492 185 477 158 C444 99 389 64 331 64 C271 64 231 109 231 176 C231 195 235 226 243 262 L302 539 C312 586 332 602 383 605 L393 605 L406 667 L86 667 L73 605 L77 605 C115 605 134 592 134 566 C134 557 133 548 131 539 L76 278 C63 216 62 211 62 181 C62 60 141 -14 270 -14 C376 -14 470 32 523 111 C557 161 571 198 590 285 L635 498 C645 547 651 559 673 578 C691 594 716 605 734 605 L736 605 L741 605 L754 667 L501 667 Z " />
<glyph glyph-name="V" unicode="V" horiz-adv-x="646" d="M274 -13 L558 461 C593 519 628 567 652 587 C666 600 680 605 701 605 L711 605 L716 605 L729 667 L487 667 L474 605 L477 605 C516 606 538 593 538 570 C538 561 529 535 521 521 L351 235 L308 502 C305 520 303 540 303 555 C303 589 323 605 367 605 L373 605 L386 667 L59 667 L46 605 L49 605 C100 603 109 593 120 529 C121 525 123 512 127 494 L219 -13 L274 -13 Z " />
<glyph glyph-name="W" unicode="W" horiz-adv-x="850" d="M579 -13 L797 460 C848 571 875 605 910 605 L915 605 L920 605 L933 667 L734 667 L721 605 L725 605 C752 605 769 589 769 564 C769 553 763 531 754 512 L640 262 L581 667 L501 667 L296 262 L276 538 L276 546 C276 587 292 606 327 605 L331 605 L345 667 L59 667 L46 605 L50 605 L51 605 L55 605 C89 605 98 589 102 518 L136 -13 L220 -13 L437 409 L498 -13 L579 -13 Z " />
<glyph glyph-name="X" unicode="X" horiz-adv-x="728" d="M462 384 L591 507 C664 577 694 595 760 604 L773 667 L530 667 L516 604 L523 604 C552 604 564 598 564 584 C564 573 555 554 545 544 L433 439 L381 550 C380 552 378 565 378 570 C378 596 391 604 429 604 L434 604 L448 667 L88 667 L75 604 L79 604 C142 603 154 591 197 494 L285 304 L109 138 C56 88 8 62 -32 62 L-35 62 L-39 62 L-52 0 L220 0 L233 62 L226 62 L214 62 C186 62 170 72 170 91 C170 105 180 125 192 134 C194 136 196 137 196 137 L313 248 L370 130 C373 123 375 116 375 108 C375 74 357 62 301 62 L297 62 L283 0 L667 0 L680 62 L679 62 L676 62 C664 62 636 70 623 78 C603 89 585 117 555 182 L462 384 Z " />
<glyph glyph-name="Y" unicode="Y" horiz-adv-x="601" d="M379 368 L316 529 C311 542 307 559 307 568 C307 592 325 605 357 605 L362 605 L376 667 L60 667 L47 605 L51 605 C90 600 103 586 122 524 L191 278 L159 127 C149 80 133 66 83 63 L74 63 L61 0 L399 0 L412 63 L403 63 C370 63 352 75 352 96 C352 104 353 116 356 127 L390 290 L530 483 C559 524 606 578 622 589 C636 598 654 605 664 605 L667 605 L670 605 L683 667 L474 667 L461 605 L466 605 C496 605 509 595 509 574 C509 560 500 539 486 518 L379 368 Z " />
<glyph glyph-name="Z" unicode="Z" horiz-adv-x="623" d="M-39 0 L514 0 L566 205 L508 205 C455 98 407 65 315 68 L189 68 L634 617 L644 667 L124 667 L79 483 L133 483 C180 581 211 599 337 599 L413 599 L-28 50 L-39 0 Z " />
<glyph glyph-name="bracketleft" unicode="&#x5b;" horiz-adv-x="406" d="M257 -235 L270 -174 L212 -174 C186 -174 175 -165 175 -143 C175 -138 175 -135 179 -118 L321 550 C328 590 345 607 378 606 L435 606 L448 667 L183 667 L-9 -235 L257 -235 Z " />
<glyph glyph-name="backslash" unicode="&#x5c;" horiz-adv-x="450" d="M285 -133 L210 655 L135 655 L211 -133 L285 -133 Z " />
<glyph glyph-name="bracketright" unicode="&#x5d;" horiz-adv-x="406" d="M-92 -235 L174 -235 L365 667 L100 667 L87 606 L144 606 C170 606 181 597 181 575 C181 570 180 563 177 550 L35 -118 C29 -158 12 -175 -22 -174 L-79 -174 L-92 -235 Z " />
<glyph glyph-name="asciicircum" unicode="&#x5e;" horiz-adv-x="450" d="M468 272 L323 700 L314 700 L-45 272 L158 272 L325 472 L392 272 L468 272 Z " />
<glyph glyph-name="underscore" unicode="&#x5f;" horiz-adv-x="501" d="M-93 -95 L-115 -196 L392 -196 L413 -95 L-93 -95 Z " />
<glyph glyph-name="grave" unicode="&#x60;" horiz-adv-x="475" d="M338 484 L317 639 L119 639 L116 626 L289 484 L338 484 Z " />
<glyph glyph-name="a" unicode="a" horiz-adv-x="529" d="M438 94 C432 79 423 71 413 71 C403 71 396 78 396 86 C396 90 397 96 398 102 L439 295 C443 314 445 325 445 335 C445 393 399 419 293 419 C207 419 152 408 103 381 C61 358 37 325 37 293 C37 266 55 249 84 249 C121 249 145 268 157 305 C169 342 185 355 221 355 C250 355 263 346 263 328 C263 320 262 313 261 306 L252 266 L246 264 C148 235 88 207 31 162 C-2 136 -22 98 -22 62 C-22 16 9 -9 69 -9 C122 -9 170 7 215 39 C220 27 224 22 230 17 C248 1 287 -10 325 -10 C407 -10 460 26 478 94 L438 94 Z M239 203 L217 99 C203 81 191 72 178 72 C164 72 154 86 154 104 C154 138 185 176 232 199 L239 203 Z " />
<glyph glyph-name="b" unicode="b" horiz-adv-x="578" d="M314 679 L310 679 C298 677 288 676 284 675 C281 675 259 671 231 667 C178 659 135 652 77 642 L64 583 L66 583 C93 583 104 574 104 554 C104 546 103 537 101 528 L-13 -9 L33 -9 C85 23 122 47 145 61 C179 15 229 -10 286 -10 C414 -10 524 117 524 265 C524 359 468 419 381 419 C335 419 296 405 249 372 L314 679 Z M233 294 C259 325 281 339 303 339 C325 339 338 321 338 289 C338 245 322 165 305 124 C288 83 265 64 232 64 C219 64 209 68 202 76 C196 82 189 94 190 96 L233 294 Z " />
<glyph glyph-name="c" unicode="c" horiz-adv-x="460" d="M344 131 C316 83 281 59 240 59 C201 59 183 81 183 129 L183 133 C183 162 193 218 207 270 C221 323 255 359 288 359 C305 359 312 351 312 331 C312 294 313 287 319 271 C325 255 340 245 357 245 C395 245 431 288 431 335 C431 389 385 419 303 419 C129 419 -5 299 -5 142 C-5 46 66 -16 177 -16 C269 -16 347 27 390 102 L344 131 Z " />
<glyph glyph-name="d" unicode="d" horiz-adv-x="574" d="M507 78 L502 78 C482 78 469 88 469 104 C469 108 471 128 472 131 L588 679 L584 679 C570 677 559 675 555 675 C537 672 518 669 499 666 C360 644 359 644 334 639 L321 579 L323 579 C362 579 377 569 377 545 C377 541 376 533 375 526 L341 368 C320 401 281 419 229 419 C144 419 66 364 30 280 C9 232 -6 163 -6 118 C-6 42 46 -8 124 -8 C176 -8 221 11 274 56 C270 39 269 31 269 20 C269 10 270 3 273 -8 C325 3 401 10 493 14 L507 78 Z M291 134 C270 98 243 77 215 77 C195 77 183 95 183 125 C183 138 188 166 197 212 C214 298 241 338 281 338 C299 338 312 327 327 301 L291 134 Z " />
<glyph glyph-name="e" unicode="e" horiz-adv-x="482" d="M343 107 C306 72 271 54 239 54 C194 54 167 85 167 135 C167 151 169 164 174 191 L421 191 C428 224 431 244 431 267 C431 361 367 419 265 419 C119 419 0 299 0 152 C0 50 69 -16 178 -16 C250 -16 332 20 382 73 L343 107 Z M186 248 C195 288 198 301 203 313 C215 341 232 356 254 356 C276 356 289 339 289 310 C289 296 288 288 282 248 L186 248 Z " />
<glyph glyph-name="f" unicode="f" horiz-adv-x="352" d="M351 403 L269 403 L299 545 C309 591 323 615 342 615 C353 615 360 606 360 591 C360 552 361 547 369 529 C377 511 396 499 417 499 C466 499 512 548 512 599 C512 652 468 680 383 680 C292 680 217 645 169 581 C139 540 130 517 107 411 L106 403 L32 403 L19 342 L93 342 L44 112 C35 72 22 62 -26 60 L-43 60 L-56 0 L266 0 L278 60 L254 60 C219 60 205 69 205 93 C205 101 206 107 207 112 L256 342 L338 342 L351 403 Z " />
<glyph glyph-name="g" unicode="g" horiz-adv-x="499" d="M246 -71 C280 -71 294 -80 294 -101 C294 -154 227 -191 128 -191 C75 -191 34 -175 34 -154 L33 -139 C33 -131 33 -125 32 -121 C31 -116 31 -112 29 -107 C12 -98 1 -94 -12 -94 C-45 -94 -75 -129 -75 -167 C-75 -223 -18 -251 94 -251 C184 -251 243 -239 292 -212 C364 -172 407 -102 407 -25 C407 44 365 73 264 73 C253 73 234 73 218 72 L144 71 C124 71 114 77 114 88 C114 116 143 131 198 132 C272 133 326 150 366 183 C404 215 427 263 427 309 C427 322 426 329 421 342 C429 349 432 350 437 350 C445 350 449 348 456 340 C465 331 471 328 479 328 C503 328 521 353 521 386 C521 408 509 420 486 420 C464 420 448 412 399 378 C368 406 331 418 269 418 C188 418 120 399 81 366 C45 337 24 294 24 250 C24 196 49 164 105 147 C64 135 52 130 31 113 C1 88 -15 52 -15 11 C-15 -47 34 -72 144 -72 C160 -72 169 -72 237 -71 L246 -71 Z M244 358 C255 358 262 345 262 325 C262 300 249 246 235 216 C230 205 221 197 212 197 C200 197 194 208 194 228 C194 261 205 308 218 336 C224 349 235 358 244 358 L244 358 Z " />
<glyph glyph-name="h" unicode="h" horiz-adv-x="563" d="M318 679 L314 679 C267 670 262 669 233 664 C208 660 183 656 159 652 L132 647 C112 643 103 641 79 636 L67 577 L68 577 C95 577 107 569 107 551 C107 542 105 529 103 518 L17 112 C7 71 -4 61 -42 60 L-55 0 L207 0 L220 60 L217 60 C204 61 195 74 195 90 C195 95 196 104 198 112 L231 265 C267 310 282 322 299 322 C312 322 321 310 320 294 C320 289 319 283 317 276 L283 112 C276 82 265 67 243 60 L240 60 L227 0 L489 0 L501 60 L499 60 C475 60 464 69 464 90 C464 97 465 105 466 112 L497 256 C505 293 506 301 506 322 C506 380 462 419 397 419 C347 419 293 394 249 350 L318 679 Z " />
<glyph glyph-name="i" unicode="i" horiz-adv-x="311" d="M242 680 C179 680 121 623 121 561 C121 516 154 483 198 483 C262 483 320 540 320 602 C320 647 287 680 242 680 L242 680 Z M273 419 L269 419 C257 417 247 415 244 414 L176 403 L119 393 C89 388 70 385 60 384 C44 381 37 380 25 379 L12 319 L22 319 C54 319 71 310 71 292 C71 285 70 274 68 265 L35 112 C25 71 13 61 -34 60 L-43 60 L-56 0 L234 0 L246 60 L244 60 C217 60 205 69 205 90 C205 97 206 105 207 112 L273 419 Z " />
<glyph glyph-name="j" unicode="j" horiz-adv-x="321" d="M287 419 L283 419 L267 417 L191 405 C155 399 117 394 78 388 C55 384 46 383 18 378 L5 318 L21 318 C58 318 76 309 76 288 C76 281 75 272 73 264 L3 -65 C-16 -157 -27 -182 -47 -182 C-56 -182 -63 -175 -64 -166 C-67 -123 -78 -107 -107 -107 C-146 -107 -181 -145 -181 -187 C-181 -225 -141 -247 -75 -247 C24 -247 117 -200 158 -128 C175 -100 183 -73 204 25 L287 419 Z M257 680 C194 680 135 623 135 561 C135 516 168 483 213 483 C277 483 335 540 335 602 C335 647 302 680 257 680 L257 680 Z " />
<glyph glyph-name="k" unicode="k" horiz-adv-x="555" d="M310 403 L298 343 L301 343 C327 344 336 341 336 331 C336 327 336 327 320 313 L223 226 L319 679 L315 679 C267 670 262 669 233 664 L159 652 L132 647 C112 643 103 641 79 636 L66 577 L74 577 C96 577 108 569 108 553 C108 545 106 530 104 518 L17 112 C8 71 -2 61 -36 60 L-43 60 L-56 0 L208 0 L220 60 L218 60 C205 61 196 72 196 87 C196 97 197 104 199 112 L207 152 L244 185 L267 102 L268 93 L269 84 C269 68 260 59 246 60 L244 60 L231 0 L478 0 L491 60 L489 60 C466 62 451 82 422 150 L371 280 L384 287 C473 338 480 340 529 344 L537 343 L550 403 L310 403 Z " />
<glyph glyph-name="l" unicode="l" horiz-adv-x="296" d="M319 679 L315 679 C267 670 262 669 233 664 L159 652 L132 647 C112 643 103 641 79 636 L67 576 L83 576 C99 576 109 569 109 557 C109 548 107 534 104 518 L18 112 C8 71 0 61 -26 60 L-40 60 L-53 0 L211 0 L224 60 L222 60 C205 60 195 68 195 83 C195 90 197 102 199 112 L319 679 Z " />
<glyph glyph-name="m" unicode="m" horiz-adv-x="812" d="M254 405 C232 401 226 400 187 394 C130 384 83 377 22 366 L10 306 L12 306 C40 306 51 298 51 275 C51 269 51 262 50 260 L19 112 C9 71 -2 61 -40 60 L-53 0 L204 0 L217 60 L215 60 C205 61 197 73 197 87 C197 94 198 104 200 112 L233 265 C268 308 285 322 302 322 C314 322 320 313 320 296 C320 290 319 283 318 276 L283 112 C277 83 266 66 248 60 L243 60 L230 0 L468 0 L480 60 L477 60 C465 61 456 74 456 89 C456 96 457 104 459 112 L491 265 C527 309 543 322 560 322 C573 322 581 312 581 294 C581 286 581 281 579 276 L545 112 C538 82 527 67 506 60 L504 60 L491 0 L738 0 L750 60 L748 60 C724 60 713 69 713 90 C713 98 714 105 715 112 L746 256 C754 294 755 302 755 321 C755 380 714 419 653 419 C602 419 544 390 497 341 C487 390 449 419 394 419 C346 419 299 397 254 354 C257 376 258 384 258 393 C258 396 258 399 257 405 L254 405 Z " />
<glyph glyph-name="n" unicode="n" horiz-adv-x="565" d="M254 405 C232 401 226 400 187 394 C130 384 83 377 22 366 L10 306 L12 306 C40 306 51 298 51 275 C51 269 51 262 50 260 L19 112 C9 71 -2 61 -40 60 L-53 0 L209 0 L222 60 L220 60 C206 61 197 74 197 90 C197 95 198 104 200 112 L233 265 C268 309 284 322 301 322 C314 322 323 310 322 294 C322 289 321 283 319 276 L285 112 C278 82 267 67 245 60 L242 60 L229 0 L491 0 L503 60 L501 60 C477 60 466 69 466 90 C466 97 467 105 468 112 L499 256 C507 293 508 301 508 322 C508 380 464 419 399 419 C350 419 298 396 254 354 C257 377 258 385 258 393 C258 396 258 400 257 405 L254 405 Z " />
<glyph glyph-name="o" unicode="o" horiz-adv-x="523" d="M281 419 C123 419 -1 299 -1 145 C-1 107 8 77 28 51 C60 10 121 -16 186 -16 C342 -16 468 106 468 258 C468 291 461 317 446 341 C416 388 351 419 281 419 L281 419 Z M267 356 C282 355 291 340 291 315 C291 289 265 163 250 111 C237 68 220 46 202 46 C185 46 177 61 177 92 C177 111 177 111 196 210 C215 296 216 300 228 325 C236 344 253 357 267 356 L267 356 Z " />
<glyph glyph-name="p" unicode="p" horiz-adv-x="577" d="M243 419 C233 417 223 415 220 414 C213 413 196 410 172 406 C155 404 58 387 22 381 L9 321 L10 321 C38 321 50 312 50 290 C50 282 49 275 48 268 L-35 -122 C-45 -164 -56 -174 -96 -175 L-109 -235 L188 -235 L201 -175 L186 -175 C156 -175 144 -166 144 -144 C144 -135 145 -129 146 -122 L180 40 C214 2 249 -16 288 -16 C413 -16 523 118 523 269 C523 357 471 419 396 419 C346 419 293 395 242 348 C243 352 244 360 245 370 C248 387 248 387 248 392 C248 398 248 403 247 419 L243 419 Z M230 272 C255 314 280 335 306 335 C326 335 339 315 339 285 C339 257 323 174 309 133 C298 97 270 70 244 70 C225 70 205 84 194 106 L230 272 Z " />
<glyph glyph-name="q" unicode="q" horiz-adv-x="547" d="M483 419 C440 392 408 372 368 344 C355 363 348 372 338 381 C314 404 276 418 236 418 C103 418 -2 291 -2 132 C-2 37 48 -16 137 -16 C183 -16 218 -2 269 37 L235 -122 C226 -162 212 -174 173 -175 L163 -175 L151 -235 L444 -235 L457 -175 L455 -175 C426 -175 414 -166 414 -144 C414 -138 415 -130 416 -122 L531 419 L483 419 Z M285 113 C260 81 237 66 215 66 C195 66 182 86 182 116 C182 132 182 134 190 172 C204 244 209 263 218 286 C233 324 252 342 275 342 C296 342 306 332 318 297 C318 295 320 290 322 285 L285 113 Z " />
<glyph glyph-name="r" unicode="r" horiz-adv-x="452" d="M11 313 L13 313 C41 313 52 304 52 282 C52 274 51 267 50 260 L19 112 C9 72 -3 61 -39 60 L-41 60 L-54 0 L234 0 L246 60 L239 60 C210 60 198 69 198 91 C198 98 199 106 200 112 L208 149 C216 187 222 210 232 241 C246 283 263 301 290 301 C301 301 312 295 320 282 C339 255 345 250 366 250 C410 250 448 298 448 353 C448 394 426 419 389 419 C335 419 286 386 237 318 C243 350 245 368 245 389 C245 399 244 406 242 419 C142 398 67 382 24 372 L11 313 Z " />
<glyph glyph-name="s" unicode="s" horiz-adv-x="440" d="M-34 -12 L11 -12 C19 0 23 5 34 12 C100 -13 117 -17 160 -17 C237 -17 298 13 337 69 C358 100 370 137 370 172 C370 201 361 225 344 244 C327 263 288 277 215 293 C172 302 159 310 159 327 C159 350 186 367 224 367 C288 367 323 342 328 293 L373 293 L399 416 L357 416 C349 405 345 401 335 394 C293 411 254 420 219 420 C108 420 21 344 21 246 C21 211 35 184 64 164 C84 150 121 137 186 121 C213 114 224 105 224 91 C224 64 187 42 140 42 C85 42 49 73 45 124 L-5 124 L-34 -12 Z " />
<glyph glyph-name="t" unicode="t" horiz-adv-x="338" d="M333 342 L346 403 L237 403 L266 538 L210 538 C182 458 111 402 36 402 C34 402 28 402 21 403 L8 342 L61 342 L11 105 C8 91 6 79 6 71 C6 18 46 -16 111 -16 C192 -16 256 20 291 85 L244 102 C225 73 212 62 192 62 C177 62 172 68 172 85 C172 98 172 98 181 141 L224 342 L333 342 Z " />
<glyph glyph-name="u" unicode="u" horiz-adv-x="552" d="M513 403 L296 403 L284 343 L286 343 C303 343 312 335 312 319 C312 312 311 301 308 291 L272 120 C229 81 229 81 218 81 C209 81 201 91 201 103 C201 111 204 130 206 144 L262 403 L21 403 L8 343 L10 343 C43 343 59 332 59 309 C59 305 58 297 57 291 L23 132 C16 101 15 92 15 79 C15 22 55 -16 115 -16 C164 -16 210 5 257 49 L256 43 C249 14 248 9 246 4 L242 -8 C241 -9 240 -12 239 -16 L244 -16 C288 -7 393 1 455 1 C457 1 464 1 475 0 L488 60 L486 60 C460 60 449 68 449 88 C449 96 450 104 452 112 L513 403 Z " />
<glyph glyph-name="v" unicode="v" horiz-adv-x="474" d="M203 -5 L381 255 C392 271 418 304 430 318 C446 337 459 344 476 344 L478 344 L481 344 L494 403 L335 403 L323 344 L325 344 C344 345 357 339 357 329 C357 325 355 321 349 312 L241 148 L208 302 C207 306 206 314 206 317 C206 334 219 344 242 344 L246 344 L259 403 L9 403 L-4 344 L-1 344 C25 343 28 338 48 264 L114 -5 L203 -5 Z " />
<glyph glyph-name="w" unicode="w" horiz-adv-x="732" d="M476 -7 L635 242 C663 285 680 310 687 319 C701 334 721 344 737 344 L739 344 L741 344 L754 403 L568 403 L555 344 L557 344 C559 344 583 341 592 339 C602 337 608 330 608 321 C608 315 608 314 601 303 L599 298 L515 161 L464 403 L378 403 L228 161 L205 296 C204 304 203 313 203 319 C203 337 215 344 249 344 L252 344 L264 403 L6 403 L-7 344 L-4 344 C25 343 30 335 42 279 L94 -7 L186 -7 L335 235 L388 -7 L476 -7 Z " />
<glyph glyph-name="x" unicode="x" horiz-adv-x="497" d="M473 344 L486 403 L333 403 L321 344 L329 344 C342 344 344 343 344 336 C344 330 329 312 313 301 L282 279 L261 309 C255 319 253 322 253 328 C253 339 260 344 278 344 L283 344 L296 403 L28 403 L16 343 C34 334 42 326 84 271 L158 171 L74 114 C32 87 -10 67 -44 61 L-52 59 L-65 0 L126 0 L139 59 L134 59 C113 58 104 60 104 67 C104 75 108 80 127 94 L174 131 L199 91 C203 84 205 79 205 77 C205 65 192 59 168 59 L166 59 L159 59 L147 0 L420 0 L432 59 L428 60 C420 63 408 77 385 111 L303 237 L360 278 C367 283 377 290 391 301 C410 316 428 328 442 335 C452 340 466 344 472 344 L473 344 Z " />
<glyph glyph-name="y" unicode="y" horiz-adv-x="486" d="M9 403 L-4 344 L2 343 C21 340 27 331 44 274 L144 -20 L138 -29 C102 -81 80 -94 6 -110 C-47 -123 -73 -150 -73 -193 C-73 -228 -49 -252 -14 -252 C17 -252 49 -237 76 -209 C93 -192 126 -146 165 -86 L357 215 C363 224 371 236 381 250 C391 264 407 286 410 290 C437 330 447 338 473 343 L482 344 L495 403 L329 403 L317 344 L321 344 L326 344 C339 344 350 334 350 323 C350 313 350 313 324 273 L250 155 L218 291 C211 314 211 314 211 320 C211 334 221 342 241 343 L248 344 L261 403 L9 403 Z " />
<glyph glyph-name="z" unicode="z" horiz-adv-x="458" d="M-44 0 L351 0 L393 140 L338 140 C298 77 280 60 254 61 L177 61 L431 349 L442 403 L65 403 L28 275 L84 275 C125 339 128 342 152 342 L223 342 L-34 48 L-44 0 Z " />
<glyph glyph-name="braceleft" unicode="&#x7b;" horiz-adv-x="388" d="M34 197 C62 194 74 181 74 153 C74 139 72 122 69 106 L29 -81 C26 -96 24 -111 24 -126 C24 -161 30 -182 47 -200 C69 -226 104 -233 206 -233 L237 -233 L244 -201 C203 -199 185 -179 185 -136 C185 -119 186 -113 198 -58 L228 84 C231 99 233 114 233 129 C233 147 229 159 218 171 C200 191 165 206 118 213 L119 220 C226 237 271 272 285 350 L315 491 C333 594 361 632 421 634 L428 667 L398 667 C299 667 259 660 230 638 C193 613 170 574 155 515 L116 327 C101 263 82 240 43 236 L34 197 Z " />
<glyph glyph-name="bar" unicode="&#x7c;" horiz-adv-x="464" d="M234 667 L57 -167 L195 -167 L372 667 L234 667 Z " />
<glyph glyph-name="braceright" unicode="&#x7d;" horiz-adv-x="388" d="M305 236 C277 239 265 252 265 280 C265 294 267 311 270 327 L310 515 C313 530 315 546 315 562 C315 595 309 615 292 634 C270 660 235 667 133 667 L102 667 L95 634 C136 632 154 612 154 569 C154 553 153 548 141 491 L111 350 C108 335 106 319 106 305 C106 287 110 275 121 263 C139 242 174 227 221 220 L220 213 C113 197 69 162 54 84 L24 -58 C6 -160 -22 -198 -82 -201 L-89 -233 L-59 -233 C40 -233 80 -226 109 -205 C146 -179 169 -140 184 -81 L223 106 C238 171 257 193 296 197 L305 236 Z " />
<glyph glyph-name="asciitilde" unicode="&#x7e;" horiz-adv-x="637" d="M559 733 C533 708 511 697 491 697 C477 697 444 706 415 717 C386 728 357 736 343 736 C301 736 260 702 192 612 L217 594 C253 625 263 630 291 630 C311 630 323 627 357 611 C386 597 406 592 428 592 C459 592 481 601 504 623 C536 654 564 686 585 715 L559 733 Z " />
<glyph glyph-name="uni00A0" unicode="&#xa0;" horiz-adv-x="250" d="" />
<glyph glyph-name="exclamdown" unicode="&#xa1;" horiz-adv-x="321" d="M108 202 L-7 -129 C-21 -167 -25 -186 -25 -205 C-25 -240 -6 -254 41 -254 C107 -254 132 -223 139 -133 L165 202 L108 202 Z M189 448 C131 448 76 389 76 327 C76 284 105 252 145 252 C203 252 258 310 258 373 C258 417 229 448 189 448 L189 448 Z " />
<glyph glyph-name="cent" unicode="&#xa2;" horiz-adv-x="500" d="M380 130 C352 85 302 54 257 54 C253 54 249 55 243 57 L339 333 C337 318 336 310 336 302 C336 269 357 245 385 245 C429 245 469 287 469 332 C469 379 437 406 371 416 L442 614 L387 614 L317 419 C230 410 199 400 148 362 C72 307 29 227 29 142 C29 59 74 6 161 -15 L99 -191 L154 -191 L214 -21 C323 -4 382 30 426 102 L380 130 Z M205 101 C203 110 203 115 203 121 C203 177 224 271 247 314 C257 334 273 349 294 358 L205 101 Z " />
<glyph glyph-name="sterling" unicode="&#xa3;" horiz-adv-x="660" d="M-3 197 L128 197 C115 162 82 91 61 56 C-24 7 -60 -30 -60 -71 C-60 -96 -34 -119 -5 -119 C31 -119 66 -84 110 -3 C121 2 128 4 136 4 C151 4 171 -12 196 -45 C236 -97 274 -119 320 -119 C376 -119 432 -98 480 -58 C534 -14 574 53 574 99 C574 133 554 154 522 154 C478 154 453 119 448 46 C446 18 445 9 443 1 C439 -17 424 -30 405 -30 C382 -30 368 -17 317 48 C285 89 257 107 223 107 C212 107 200 104 173 96 C208 135 229 162 250 197 L404 197 L442 288 L304 288 C331 328 386 462 431 597 C459 679 483 712 518 712 C543 712 555 702 565 670 C577 631 593 615 619 615 C660 615 699 655 699 698 C699 747 645 781 568 781 C413 781 298 664 213 420 L171 301 C168 293 168 293 166 288 L37 288 L-3 197 Z " />
<glyph glyph-name="currency" unicode="&#xa4;" horiz-adv-x="600" d="M-47 84 L0 16 L115 121 C155 90 188 79 244 79 C296 79 335 90 392 121 L463 17 L539 84 L465 192 C495 231 505 252 522 301 C535 341 541 379 541 418 C541 444 539 459 529 492 L651 603 L605 670 L484 562 C446 590 402 604 352 604 C302 604 249 589 210 564 L138 668 L63 601 L134 498 C77 417 55 355 55 274 C55 244 58 222 67 186 L-47 84 Z M326 453 C365 451 390 419 390 371 C390 299 333 230 273 230 C238 230 210 266 210 312 C210 384 269 456 326 453 L326 453 Z " />
<glyph glyph-name="yen" unicode="&#xa5;" horiz-adv-x="479" d="M373 493 L250 493 L239 528 C234 542 231 558 231 566 C231 591 247 604 277 604 L282 604 L295 667 L11 667 L-2 604 L3 604 C38 598 46 587 63 523 L71 493 L11 493 L-2 432 L88 432 L122 273 L-27 273 L-40 212 L106 212 L88 127 C77 74 66 65 19 63 L11 63 L-2 0 L302 0 L315 63 L307 63 C276 63 261 72 261 90 C261 100 263 114 265 127 L284 212 L430 212 L443 273 L286 273 L289 287 L393 432 L486 432 L499 493 L437 493 C502 584 524 604 554 604 L558 604 L572 667 L384 667 L371 604 L375 604 C404 604 422 594 422 578 C422 569 416 554 409 544 L373 493 Z M333 432 L286 368 L268 432 L333 432 Z " />
<glyph glyph-name="brokenbar" unicode="&#xa6;" horiz-adv-x="464" d="M234 667 L155 297 L293 297 L372 667 L234 667 Z M125 153 L57 -167 L195 -167 L263 153 L125 153 Z " />
<glyph glyph-name="section" unicode="&#xa7;" horiz-adv-x="489" d="M131 374 C55 360 -6 275 -6 184 C-6 120 23 71 101 3 C193 -77 203 -88 203 -119 C203 -155 169 -185 130 -185 C100 -185 84 -167 82 -129 C80 -82 79 -79 72 -68 C63 -57 49 -50 35 -50 C-7 -50 -45 -94 -45 -143 C-45 -205 16 -248 104 -248 C235 -248 342 -157 342 -46 C342 -4 329 29 303 53 C388 79 436 154 436 259 C436 298 422 337 398 367 C377 391 349 416 274 475 C236 505 224 522 224 548 C224 585 259 617 299 617 C329 617 344 602 348 567 C353 524 353 524 356 513 C363 494 375 485 394 485 C439 485 478 528 478 576 C478 636 415 680 331 680 C197 680 88 587 88 474 C88 429 100 402 131 374 L131 374 Z M166 329 C209 329 308 213 308 162 C308 130 288 105 263 105 C247 105 234 113 212 134 C190 156 172 174 156 193 C132 222 120 249 120 276 C120 301 144 329 166 329 L166 329 Z " />
<glyph glyph-name="dieresis" unicode="&#xa8;" horiz-adv-x="436" d="M177 642 C127 642 81 597 81 549 C81 514 107 488 142 488 C193 488 239 533 239 581 C239 616 212 642 177 642 L177 642 Z M393 642 C343 642 297 597 297 549 C297 514 323 488 358 488 C408 488 454 533 454 581 C454 616 428 642 393 642 L393 642 Z " />
<glyph glyph-name="copyright" unicode="&#xa9;" horiz-adv-x="723" d="M439 680 C233 680 41 474 41 254 C41 99 143 -13 286 -13 C489 -13 682 194 682 414 C682 569 580 680 439 680 L439 680 Z M428 629 C551 623 630 535 630 403 C630 216 468 38 297 38 C178 38 93 132 93 264 C93 452 263 637 428 629 L428 629 Z M463 291 C434 221 395 183 352 183 C322 183 303 207 303 244 C303 281 320 364 337 412 C353 456 383 483 416 483 C455 483 476 445 476 375 L504 375 L530 510 L502 510 C497 501 494 494 487 481 C464 511 442 523 405 523 C345 523 290 490 249 430 C218 385 201 332 201 281 C201 196 248 142 321 142 C359 142 401 159 428 186 C432 177 433 166 433 151 L462 151 L491 291 L463 291 Z " />
<glyph glyph-name="ordfeminine" unicode="&#xaa;" horiz-adv-x="328" d="M301 332 C296 321 292 318 285 318 C279 318 275 321 275 326 C275 329 275 331 276 334 L302 456 C306 475 306 475 306 482 C306 520 278 537 215 537 C163 537 130 530 100 513 C74 498 58 475 58 454 C58 436 70 424 87 424 C111 424 127 438 135 464 C141 485 150 493 170 493 C185 493 191 488 191 478 L191 477 L190 463 L185 440 L183 439 C78 407 21 361 21 308 C21 277 40 261 76 261 C108 261 134 270 162 289 C170 271 194 261 228 261 C283 261 317 285 329 332 L301 332 Z M161 330 C154 320 148 315 142 315 C135 315 129 323 129 334 C129 356 144 376 175 395 L161 330 Z " />
<glyph glyph-name="guillemotleft" unicode="&#xab;" horiz-adv-x="531" d="M-23 217 L109 -6 L165 -6 L151 217 L259 440 L202 440 L-23 217 Z M228 217 L360 -6 L417 -6 L402 217 L511 440 L453 440 L228 217 Z " />
<glyph glyph-name="logicalnot" unicode="&#xac;" horiz-adv-x="450" d="M357 0 L414 267 L9 267 L-11 175 L177 175 L140 0 L357 0 Z " />
<glyph glyph-name="uni00AD" unicode="&#xad;" horiz-adv-x="319" d="M11 260 L-6 179 L266 179 L284 260 L11 260 Z " />
<glyph glyph-name="registered" unicode="&#xae;" horiz-adv-x="723" d="M439 680 C233 680 41 474 41 254 C41 99 143 -13 286 -13 C489 -13 682 194 682 414 C682 569 580 680 439 680 L439 680 Z M428 629 C551 623 630 535 630 403 C630 216 468 38 297 38 C178 38 93 132 93 264 C93 452 263 637 428 629 L428 629 Z M165 150 L331 150 L338 184 L336 184 C319 184 310 191 310 202 C310 207 311 214 312 220 L331 308 L335 308 C362 309 371 303 375 282 C375 280 377 274 378 267 L386 229 C396 174 398 167 404 150 L501 150 L509 184 L506 184 C490 186 480 204 468 254 C461 286 448 318 438 328 C482 345 514 392 514 441 C514 485 491 510 446 515 C429 516 401 517 326 517 L242 517 L235 483 L240 483 C256 483 265 476 265 463 C265 457 264 452 263 446 L215 220 C210 194 201 186 176 184 L172 184 L165 150 Z M339 346 L367 477 C369 478 371 478 372 478 C404 478 414 469 414 442 C414 421 405 387 394 367 C385 352 373 346 352 346 L339 346 Z " />
<glyph glyph-name="macron" unicode="&#xaf;" horiz-adv-x="370" d="M75 530 L378 530 L392 593 L88 593 L75 530 Z " />
<glyph glyph-name="degree" unicode="&#xb0;" horiz-adv-x="400" d="M204 686 C118 686 50 619 50 534 C50 449 116 381 200 381 C284 381 350 448 350 534 C350 619 286 686 204 686 L204 686 Z M202 629 C252 629 293 586 293 534 C293 480 252 438 200 438 C148 438 106 481 106 533 C106 587 148 629 202 629 L202 629 Z " />
<glyph glyph-name="plusminus" unicode="&#xb1;" horiz-adv-x="450" d="M26 465 L4 364 L179 364 L135 157 L240 157 L284 364 L460 364 L481 465 L305 465 L349 671 L244 671 L200 465 L26 465 Z M-51 101 L-73 1 L383 1 L404 101 L-51 101 Z " />
<glyph glyph-name="twosuperior" unicode="&#xb2;" horiz-adv-x="338" d="M28 267 L222 267 C235 267 236 267 236 261 C236 255 234 250 231 245 L273 245 L308 339 L156 339 C329 500 352 529 352 588 C352 642 310 675 242 675 C155 675 89 622 89 554 C89 534 92 525 97 525 C103 525 111 527 120 532 C129 535 136 538 153 543 C161 546 165 548 166 551 C166 551 168 559 171 573 C176 599 176 599 182 608 C188 620 199 628 209 628 C220 628 227 615 227 595 C227 513 158 407 35 301 L28 267 Z " />
<glyph glyph-name="threesuperior" unicode="&#xb3;" horiz-adv-x="338" d="M175 575 C174 581 174 581 174 584 C174 608 190 628 209 628 C219 628 227 616 227 601 C227 561 202 524 156 494 C139 483 130 471 130 460 C130 450 136 441 144 441 C150 441 157 445 162 450 C175 464 176 464 183 464 C190 464 192 461 192 454 C192 439 182 384 175 362 C163 324 143 304 117 304 C107 304 102 311 100 327 C98 355 87 369 68 369 C42 369 15 341 15 313 C15 281 52 259 105 259 C218 259 316 342 316 438 C316 477 301 495 258 509 C319 542 347 574 347 613 C347 649 306 675 250 675 C162 675 87 624 87 564 C87 546 92 536 101 536 C108 536 155 553 169 561 C174 563 175 566 175 571 L175 575 Z " />
<glyph glyph-name="acute" unicode="&#xb4;" horiz-adv-x="475" d="M201 484 L250 484 L484 626 L487 639 L289 639 L201 484 Z " />
<glyph glyph-name="mu" unicode="&#xb5;" horiz-adv-x="576" d="M442 500 L353 500 L354 131 C318 80 284 58 242 58 C184 58 150 99 150 169 L150 500 L62 500 L62 20 C62 -1 58 -26 51 -56 C34 -118 33 -123 33 -147 C33 -190 54 -219 83 -219 C112 -219 132 -189 132 -146 C132 -124 129 -111 113 -53 C103 -17 101 -8 101 21 L101 33 C143 -2 166 -13 200 -13 C250 -13 301 18 354 80 C362 48 367 36 377 21 C392 0 419 -13 449 -13 C510 -13 553 31 567 108 L540 109 C536 71 515 41 492 41 C462 41 442 77 442 131 L442 500 Z " />
<glyph glyph-name="paragraph" unicode="&#xb6;" horiz-adv-x="621" d="M616 667 L338 667 L278 667 C235 666 210 660 181 643 C119 607 77 533 77 459 C77 395 114 347 170 341 C185 339 218 337 237 337 L257 337 L186 5 C184 -7 183 -13 181 -18 C177 -35 176 -35 160 -36 L142 -36 L129 -36 L111 -36 L103 -76 L269 -76 L417 624 L456 624 L307 -76 L444 -76 L453 -36 L441 -36 L427 -36 L423 -37 C419 -37 417 -35 417 -32 C417 -28 417 -28 423 -1 L542 560 L551 596 C553 605 556 613 559 618 C563 625 573 627 598 628 L607 628 L616 667 Z M319 628 L266 380 L250 380 C238 380 232 393 232 423 C232 455 240 501 253 546 C273 613 283 628 308 628 L319 628 Z " />
<glyph glyph-name="periodcentered" unicode="&#xb7;" horiz-adv-x="269" d="M148 430 C90 430 36 371 36 309 C36 266 65 234 104 234 C163 234 217 292 217 355 C217 399 188 430 148 430 L148 430 Z " />
<glyph glyph-name="cedilla" unicode="&#xb8;" horiz-adv-x="450" d="M128 0 C114 -48 102 -81 90 -105 C102 -106 109 -115 109 -128 C109 -151 99 -162 77 -162 C62 -162 51 -160 32 -153 C25 -178 24 -182 16 -205 C29 -212 46 -216 69 -216 C149 -216 205 -169 205 -100 C205 -63 190 -44 157 -40 C164 -21 165 -18 170 0 L128 0 Z " />
<glyph glyph-name="onesuperior" unicode="&#xb9;" horiz-adv-x="338" d="M276 676 C228 650 189 640 125 638 L116 596 L148 596 L154 595 L155 595 L166 596 C170 596 174 592 174 588 C174 580 173 570 170 558 L123 334 C117 313 116 311 98 311 L86 311 L77 267 L263 267 L272 311 L260 311 C252 311 246 314 246 319 C246 325 247 330 248 336 L320 676 L276 676 Z " />
<glyph glyph-name="ordmasculine" unicode="&#xba;" horiz-adv-x="324" d="M206 537 C111 537 34 458 34 359 C34 297 78 257 145 257 C241 257 318 337 318 436 C318 496 273 537 206 537 L206 537 Z M195 490 C203 490 207 482 207 470 C207 453 192 376 181 341 C174 315 166 303 156 303 C149 303 145 310 145 325 C145 342 147 356 164 432 C173 471 183 490 195 490 L195 490 Z " />
<glyph glyph-name="guillemotright" unicode="&#xbb;" horiz-adv-x="531" d="M486 217 L355 440 L298 440 L312 217 L203 -6 L259 -6 L486 217 Z M234 217 L104 440 L46 440 L61 217 L-49 -6 L8 -6 L234 217 Z " />
<glyph glyph-name="onequarter" unicode="&#xbc;" horiz-adv-x="842" d="M277 676 C228 650 189 640 125 638 L116 596 L138 596 L147 595 L148 595 L163 596 C170 596 174 592 174 585 C174 580 172 567 170 558 L123 334 C118 313 115 311 92 311 L76 311 L67 267 L274 267 L283 311 L267 311 C252 311 245 314 246 321 C246 326 247 331 248 336 L321 676 L277 676 Z M277 0 L723 675 L651 675 L205 0 L277 0 Z M612 135 L599 75 C594 49 589 45 565 44 L549 44 L539 0 L751 0 L761 44 L743 44 C729 44 722 49 722 59 C722 63 723 71 724 78 L737 135 L773 135 L795 206 L774 206 L771 200 C766 194 757 187 752 188 L748 188 L794 406 L725 406 L508 190 L496 135 L612 135 Z M624 188 L559 188 L642 274 L624 188 Z " />
<glyph glyph-name="onehalf" unicode="&#xbd;" horiz-adv-x="842" d="M277 676 C228 650 189 640 125 638 L116 596 L138 596 L147 595 L148 595 L163 596 C170 596 174 592 174 585 C174 580 172 567 170 558 L123 334 C118 313 115 311 92 311 L76 311 L67 267 L274 267 L283 311 L267 311 C252 311 245 314 246 321 C246 326 247 331 248 336 L321 676 L277 676 Z M259 0 L705 675 L633 675 L187 0 L259 0 Z M482 0 L672 0 C686 0 686 0 686 -5 C686 -10 684 -15 681 -20 L680 -22 L722 -22 L757 72 L607 72 C779 234 801 263 801 322 C801 375 760 409 696 409 L692 409 C608 409 543 355 543 286 C543 266 545 258 551 258 C554 258 566 262 578 267 C587 270 596 273 604 276 C615 280 617 282 618 287 L622 306 C627 333 627 333 632 342 C639 354 649 362 659 362 C669 362 676 349 676 332 C676 248 607 139 489 34 L482 0 Z " />
<glyph glyph-name="threequarters" unicode="&#xbe;" horiz-adv-x="842" d="M259 0 L711 675 L638 675 L186 0 L259 0 Z M610 135 L598 75 C592 49 587 45 562 44 L545 44 L535 0 L752 0 L761 44 L743 44 C729 44 720 49 720 59 C720 62 721 71 723 78 L735 135 L773 135 L795 206 L773 206 L770 200 C765 193 756 188 750 188 L746 188 L792 406 L723 406 L503 190 L491 135 L610 135 Z M622 188 L555 188 L640 274 L622 188 Z M175 575 C174 581 174 581 174 584 C174 608 190 628 209 628 C219 628 227 616 227 601 C227 561 202 524 156 494 C139 483 130 471 130 460 C130 450 136 441 144 441 C150 441 157 445 162 450 C175 464 176 464 183 464 C190 464 192 461 192 454 C192 439 182 384 175 362 C163 324 143 304 117 304 C107 304 102 311 100 327 C98 355 87 369 68 369 C42 369 15 341 15 313 C15 281 52 259 105 259 C218 259 316 342 316 438 C316 477 301 495 258 509 C319 542 347 574 347 613 C347 649 306 675 250 675 C162 675 87 624 87 564 C87 546 92 536 101 536 C108 536 155 553 169 561 C174 563 175 566 175 571 L175 575 Z " />
<glyph glyph-name="questiondown" unicode="&#xbf;" horiz-adv-x="453" d="M298 445 C242 445 188 386 188 324 C188 281 216 249 254 249 C312 249 365 307 365 370 C365 414 337 445 298 445 L298 445 Z M280 197 L209 197 L194 125 C174 130 160 132 144 132 C32 132 -63 24 -63 -103 C-63 -199 2 -257 109 -257 C209 -257 307 -192 307 -126 C307 -104 288 -84 266 -84 C240 -84 215 -105 201 -140 C192 -164 191 -167 185 -174 C177 -184 162 -192 149 -192 C126 -192 111 -169 111 -134 C111 -95 120 -35 133 3 C143 36 161 56 179 56 C186 56 192 52 195 44 L248 44 L280 197 Z " />
<glyph glyph-name="Agrave" unicode="&#xc0;" horiz-adv-x="588" d="M529 0 L542 63 L538 63 C499 67 486 88 472 167 L396 679 L335 679 L54 182 C14 110 -29 66 -65 63 L-70 63 L-83 0 L120 0 L133 63 L127 63 C94 63 79 71 79 91 C79 103 84 116 98 141 L110 164 L285 164 L289 134 C291 118 292 108 292 100 C292 74 273 63 234 63 L229 63 L216 0 L529 0 Z M275 229 L146 229 L246 407 L275 229 Z M476 734 L414 903 L199 903 L196 889 L432 734 L476 734 Z " />
<glyph glyph-name="Aacute" unicode="&#xc1;" horiz-adv-x="588" d="M529 0 L542 63 L538 63 C499 67 486 88 472 167 L396 679 L335 679 L54 182 C14 110 -29 66 -65 63 L-70 63 L-83 0 L120 0 L133 63 L127 63 C94 63 79 71 79 91 C79 103 84 116 98 141 L110 164 L285 164 L289 134 C291 118 292 108 292 100 C292 74 273 63 234 63 L229 63 L216 0 L529 0 Z M275 229 L146 229 L246 407 L275 229 Z M325 734 L370 734 L672 889 L675 903 L460 903 L325 734 Z " />
<glyph glyph-name="Acircumflex" unicode="&#xc2;" horiz-adv-x="588" d="M529 0 L542 63 L538 63 C499 67 486 88 472 167 L396 679 L335 679 L54 182 C14 110 -29 66 -65 63 L-70 63 L-83 0 L120 0 L133 63 L127 63 C94 63 79 71 79 91 C79 103 84 116 98 141 L110 164 L285 164 L289 134 C291 118 292 108 292 100 C292 74 273 63 234 63 L229 63 L216 0 L529 0 Z M275 229 L146 229 L246 407 L275 229 Z M296 898 L167 732 L210 732 L393 828 L536 732 L579 732 L516 898 L296 898 Z " />
<glyph glyph-name="Atilde" unicode="&#xc3;" horiz-adv-x="588" d="M529 0 L542 63 L538 63 C499 67 486 88 472 167 L396 679 L335 679 L54 182 C14 110 -29 66 -65 63 L-70 63 L-83 0 L120 0 L133 63 L127 63 C94 63 79 71 79 91 C79 103 84 116 98 141 L110 164 L285 164 L289 134 C291 118 292 108 292 100 C292 74 273 63 234 63 L229 63 L216 0 L529 0 Z M275 229 L146 229 L246 407 L275 229 Z M236 727 C241 754 264 775 288 775 C303 775 316 770 352 751 C386 733 418 724 450 724 C531 724 583 778 598 879 L553 879 C537 842 522 827 502 827 C490 827 455 840 420 858 C387 874 365 880 337 880 C253 880 206 831 189 727 L236 727 Z " />
<glyph glyph-name="Adieresis" unicode="&#xc4;" horiz-adv-x="588" d="M529 0 L542 63 L538 63 C499 67 486 88 472 167 L396 679 L335 679 L54 182 C14 110 -29 66 -65 63 L-70 63 L-83 0 L120 0 L133 63 L127 63 C94 63 79 71 79 91 C79 103 84 116 98 141 L110 164 L285 164 L289 134 C291 118 292 108 292 100 C292 74 273 63 234 63 L229 63 L216 0 L529 0 Z M275 229 L146 229 L246 407 L275 229 Z M285 897 C231 897 181 848 181 795 C181 757 209 729 248 729 C302 729 352 778 352 831 C352 869 324 897 285 897 L285 897 Z M535 897 C481 897 431 848 431 795 C431 757 459 729 498 729 C552 729 602 778 602 831 C602 869 574 897 535 897 L535 897 Z " />
<glyph glyph-name="Aring" unicode="&#xc5;" horiz-adv-x="588" d="M54 182 C15 110 -29 66 -65 63 L-70 63 L-83 0 L120 0 L133 63 L127 63 C94 63 79 71 79 91 C79 103 84 116 98 141 L110 164 L285 164 L289 134 C291 118 292 108 292 100 C292 74 273 63 234 63 L229 63 L216 0 L529 0 L542 63 L538 63 C499 67 486 88 472 167 L397 670 C461 689 509 749 509 810 C509 864 469 904 414 904 C337 904 266 835 266 760 C266 717 291 682 330 670 L54 182 Z M275 229 L146 229 L246 407 L275 229 Z M401 846 C428 846 449 825 449 798 C449 760 412 724 373 724 C346 724 326 744 326 772 C326 810 362 846 401 846 L401 846 Z " />
<glyph glyph-name="AE" unicode="&#xc6;" horiz-adv-x="877" d="M361 316 L321 126 C311 80 295 65 246 62 L237 62 L224 0 L778 0 L829 223 L773 223 C725 114 670 66 598 68 L593 68 C556 68 526 76 518 87 C515 92 514 97 514 105 C514 116 516 133 519 148 L555 316 L611 316 C639 316 648 307 648 280 C648 271 647 254 645 245 L645 239 L698 239 L745 461 L692 461 L690 455 C672 396 657 382 616 384 L569 384 L615 599 L729 599 C777 603 793 579 803 492 L860 492 L889 667 L276 667 L263 606 L289 606 L292 606 C326 604 332 601 332 587 C332 573 324 558 301 524 L65 182 C2 97 -39 64 -82 62 L-95 0 L112 0 L125 62 L119 62 C98 62 84 73 84 88 C84 98 91 114 104 130 C108 136 111 140 112 141 L226 316 L361 316 Z M375 384 L274 384 L425 619 L375 384 Z " />
<glyph glyph-name="Ccedilla" unicode="&#xc7;" horiz-adv-x="671" d="M553 3 L607 258 L550 258 C539 232 515 188 499 161 C461 102 392 60 333 60 C271 60 232 105 232 176 C232 244 263 391 294 475 C325 556 383 605 447 605 C503 605 540 575 559 514 C569 480 574 445 574 410 L630 410 L675 655 L619 655 L617 651 L610 637 C606 629 603 624 602 621 C598 615 596 611 591 602 C546 657 498 679 425 679 C307 679 198 619 118 510 C59 429 27 337 27 247 C27 97 111 -2 249 -13 C236 -58 223 -91 208 -116 C224 -117 235 -129 235 -144 C235 -168 221 -180 194 -180 C173 -180 158 -177 133 -170 C125 -198 124 -202 114 -228 C133 -236 156 -240 184 -240 C257 -240 310 -219 340 -179 C353 -160 361 -137 361 -115 C361 -73 339 -49 294 -45 C298 -34 302 -24 306 -12 C368 -7 439 24 485 66 C492 52 496 31 496 3 L553 3 Z " />
<glyph glyph-name="Egrave" unicode="&#xc8;" horiz-adv-x="614" d="M510 222 C457 105 411 66 329 68 L321 68 C269 68 245 79 245 104 C245 112 245 112 253 147 L288 314 L340 314 C371 314 386 300 386 273 C386 266 385 255 382 242 L381 235 L435 235 L483 460 L429 460 L427 454 C412 398 396 383 353 382 L302 382 L349 599 L461 599 C515 601 529 582 540 493 L597 493 L626 667 L95 667 L82 605 L92 605 C125 605 145 592 145 569 C145 561 144 547 142 539 L54 127 C47 83 25 64 -21 63 L-31 63 L-44 0 L518 0 L566 222 L510 222 Z M534 734 L471 903 L256 903 L253 889 L489 734 L534 734 Z " />
<glyph glyph-name="Eacute" unicode="&#xc9;" horiz-adv-x="614" d="M510 222 C457 105 411 66 329 68 L321 68 C269 68 245 79 245 104 C245 112 245 112 253 147 L288 314 L340 314 C371 314 386 300 386 273 C386 266 385 255 382 242 L381 235 L435 235 L483 460 L429 460 L427 454 C412 398 396 383 353 382 L302 382 L349 599 L461 599 C515 601 529 582 540 493 L597 493 L626 667 L95 667 L82 605 L92 605 C125 605 145 592 145 569 C145 561 144 547 142 539 L54 127 C47 83 25 64 -21 63 L-31 63 L-44 0 L518 0 L566 222 L510 222 Z M322 734 L366 734 L668 889 L671 903 L456 903 L322 734 Z " />
<glyph glyph-name="Ecircumflex" unicode="&#xca;" horiz-adv-x="614" d="M510 222 C457 105 411 66 329 68 L321 68 C269 68 245 79 245 104 C245 112 245 112 253 147 L288 314 L340 314 C371 314 386 300 386 273 C386 266 385 255 382 242 L381 235 L435 235 L483 460 L429 460 L427 454 C412 398 396 383 353 382 L302 382 L349 599 L461 599 C515 601 529 582 540 493 L597 493 L626 667 L95 667 L82 605 L92 605 C125 605 145 592 145 569 C145 561 144 547 142 539 L54 127 C47 83 25 64 -21 63 L-31 63 L-44 0 L518 0 L566 222 L510 222 Z M326 898 L197 732 L240 732 L423 828 L566 732 L609 732 L546 898 L326 898 Z " />
<glyph glyph-name="Edieresis" unicode="&#xcb;" horiz-adv-x="614" d="M510 222 C457 105 411 66 329 68 L321 68 C269 68 245 79 245 104 C245 112 245 112 253 147 L288 314 L340 314 C371 314 386 300 386 273 C386 266 385 255 382 242 L381 235 L435 235 L483 460 L429 460 L427 454 C412 398 396 383 353 382 L302 382 L349 599 L461 599 C515 601 529 582 540 493 L597 493 L626 667 L95 667 L82 605 L92 605 C125 605 145 592 145 569 C145 561 144 547 142 539 L54 127 C47 83 25 64 -21 63 L-31 63 L-44 0 L518 0 L566 222 L510 222 Z M313 897 C258 897 208 848 208 795 C208 757 236 729 275 729 C330 729 380 778 380 831 C380 869 352 897 313 897 L313 897 Z M563 897 C509 897 459 848 459 795 C459 757 487 729 526 729 C580 729 630 778 630 831 C630 869 602 897 563 897 L563 897 Z " />
<glyph glyph-name="Igrave" unicode="&#xcc;" horiz-adv-x="376" d="M81 604 L86 604 C119 604 136 592 136 567 C136 556 135 548 133 539 L46 127 C36 80 20 66 -30 63 L-34 63 L-47 0 L281 0 L294 63 L288 63 C256 63 236 75 236 95 C236 103 238 117 240 127 L327 539 C337 586 356 602 402 604 L409 604 L423 667 L95 667 L81 604 Z M404 734 L342 903 L127 903 L124 889 L360 734 L404 734 Z " />
<glyph glyph-name="Iacute" unicode="&#xcd;" horiz-adv-x="376" d="M81 604 L86 604 C119 604 136 592 136 567 C136 556 135 548 133 539 L46 127 C36 80 20 66 -30 63 L-34 63 L-47 0 L281 0 L294 63 L288 63 C256 63 236 75 236 95 C236 103 238 117 240 127 L327 539 C337 586 356 602 402 604 L409 604 L423 667 L95 667 L81 604 Z M207 734 L251 734 L553 889 L556 903 L342 903 L207 734 Z " />
<glyph glyph-name="Icircumflex" unicode="&#xce;" horiz-adv-x="376" d="M81 604 L86 604 C119 604 136 592 136 567 C136 556 135 548 133 539 L46 127 C36 80 20 66 -30 63 L-34 63 L-47 0 L281 0 L294 63 L288 63 C256 63 236 75 236 95 C236 103 238 117 240 127 L327 539 C337 586 356 602 402 604 L409 604 L423 667 L95 667 L81 604 Z M197 898 L67 732 L111 732 L293 828 L436 732 L479 732 L416 898 L197 898 Z " />
<glyph glyph-name="Idieresis" unicode="&#xcf;" horiz-adv-x="376" d="M81 604 L86 604 C119 604 136 592 136 567 C136 556 135 548 133 539 L46 127 C36 80 20 66 -30 63 L-34 63 L-47 0 L281 0 L294 63 L288 63 C256 63 236 75 236 95 C236 103 238 117 240 127 L327 539 C337 586 356 602 402 604 L409 604 L423 667 L95 667 L81 604 Z M200 897 C145 897 95 848 95 795 C95 757 123 729 162 729 C217 729 267 778 267 831 C267 869 239 897 200 897 L200 897 Z M414 897 C359 897 309 848 309 795 C309 757 337 729 376 729 C431 729 481 778 481 831 C481 869 453 897 414 897 L414 897 Z " />
<glyph glyph-name="Eth" unicode="&#xd0;" horiz-adv-x="726" d="M97 370 L28 370 L12 297 L81 297 L45 127 C37 81 18 64 -27 63 L-29 63 L-42 0 L164 0 C382 1 412 6 490 50 C617 122 699 266 699 416 C699 518 656 596 577 639 C527 666 467 675 339 675 L319 675 C264 675 245 674 187 672 L99 669 L86 606 L89 606 C119 606 137 592 137 569 C137 562 136 551 133 540 L97 370 Z M291 370 L341 607 C374 607 393 604 409 597 C454 578 483 524 483 456 C483 385 457 268 427 196 C390 111 343 68 287 68 C253 68 237 81 237 108 C237 116 237 116 243 144 L275 297 L379 297 L394 370 L291 370 Z " />
<glyph glyph-name="Ntilde" unicode="&#xd1;" horiz-adv-x="710" d="M539 -9 L646 492 C659 563 685 592 743 604 L750 604 L763 667 L524 667 L511 604 L515 604 C553 605 579 578 579 536 C579 526 577 509 573 493 L530 287 L301 667 L95 667 L82 604 L86 604 C119 604 144 577 144 540 C144 530 143 522 141 513 L70 176 C60 131 56 119 46 104 C29 80 0 62 -22 62 L-24 62 L-28 62 L-41 0 L180 0 L193 62 L187 62 L180 62 C155 62 134 90 134 123 C134 133 136 147 142 176 L199 444 L466 -9 L539 -9 Z M305 727 C309 754 332 775 357 775 C372 775 385 770 421 751 C455 733 486 724 519 724 C600 724 651 778 667 879 L622 879 C606 842 591 827 570 827 C558 827 523 840 488 858 C456 874 433 880 406 880 C322 880 274 831 258 727 L305 727 Z " />
<glyph glyph-name="Ograve" unicode="&#xd2;" horiz-adv-x="748" d="M456 679 C315 679 207 624 119 508 C59 430 27 339 27 250 C27 159 63 78 121 38 C168 4 235 -14 309 -14 C419 -14 515 29 596 113 C675 196 720 303 720 409 C720 574 618 679 456 679 L456 679 Z M432 605 C481 605 507 569 507 503 C507 435 480 290 449 195 C422 109 373 60 316 60 C270 60 242 100 242 168 C242 229 265 359 292 444 C326 555 369 605 432 605 L432 605 Z M578 734 L516 903 L301 903 L298 889 L533 734 L578 734 Z " />
<glyph glyph-name="Oacute" unicode="&#xd3;" horiz-adv-x="748" d="M456 679 C315 679 207 624 119 508 C59 430 27 339 27 250 C27 159 63 78 121 38 C168 4 235 -14 309 -14 C419 -14 515 29 596 113 C675 196 720 303 720 409 C720 574 618 679 456 679 L456 679 Z M432 605 C481 605 507 569 507 503 C507 435 480 290 449 195 C422 109 373 60 316 60 C270 60 242 100 242 168 C242 229 265 359 292 444 C326 555 369 605 432 605 L432 605 Z M408 734 L453 734 L755 889 L758 903 L543 903 L408 734 Z " />
<glyph glyph-name="Ocircumflex" unicode="&#xd4;" horiz-adv-x="748" d="M456 679 C315 679 207 624 119 508 C59 430 27 339 27 250 C27 159 63 78 121 38 C168 4 235 -14 309 -14 C419 -14 515 29 596 113 C675 196 720 303 720 409 C720 574 618 679 456 679 L456 679 Z M432 605 C481 605 507 569 507 503 C507 435 480 290 449 195 C422 109 373 60 316 60 C270 60 242 100 242 168 C242 229 265 359 292 444 C326 555 369 605 432 605 L432 605 Z M389 898 L260 732 L303 732 L486 828 L629 732 L672 732 L609 898 L389 898 Z " />
<glyph glyph-name="Otilde" unicode="&#xd5;" horiz-adv-x="748" d="M456 679 C315 679 207 624 119 508 C59 430 27 339 27 250 C27 159 63 78 121 38 C168 4 235 -14 309 -14 C419 -14 515 29 596 113 C675 196 720 303 720 409 C720 574 618 679 456 679 L456 679 Z M432 605 C481 605 507 569 507 503 C507 435 480 290 449 195 C422 109 373 60 316 60 C270 60 242 100 242 168 C242 229 265 359 292 444 C326 555 369 605 432 605 L432 605 Z M321 727 C325 754 348 775 373 775 C388 775 401 770 437 751 C471 733 502 724 535 724 C616 724 668 779 683 879 L638 879 C623 843 607 827 587 827 C575 827 539 840 505 858 C472 874 449 880 422 880 C338 880 290 830 274 727 L321 727 Z " />
<glyph glyph-name="Odieresis" unicode="&#xd6;" horiz-adv-x="748" d="M456 679 C315 679 207 624 119 508 C59 430 27 339 27 250 C27 159 63 78 121 38 C168 4 235 -14 309 -14 C419 -14 515 29 596 113 C675 196 720 303 720 409 C720 574 618 679 456 679 L456 679 Z M432 605 C481 605 507 569 507 503 C507 435 480 290 449 195 C422 109 373 60 316 60 C270 60 242 100 242 168 C242 229 265 359 292 444 C326 555 369 605 432 605 L432 605 Z M372 897 C317 897 267 848 267 795 C267 757 296 729 334 729 C389 729 439 778 439 831 C439 869 411 897 372 897 L372 897 Z M622 897 C568 897 518 849 518 795 C518 757 546 729 585 729 C639 729 689 778 689 831 C689 869 661 897 622 897 L622 897 Z " />
<glyph glyph-name="multiply" unicode="&#xd7;" horiz-adv-x="450" d="M153 588 L73 517 L170 378 L11 236 L62 162 L220 305 L316 164 L396 236 L298 375 L457 517 L406 591 L248 448 L153 588 Z " />
<glyph glyph-name="Oslash" unicode="&#xd8;" horiz-adv-x="748" d="M24 28 L59 -13 L114 42 C159 7 231 -14 306 -14 C419 -14 515 28 596 113 C675 196 720 304 720 409 C720 478 700 540 663 587 L715 639 L684 680 L628 625 C583 661 526 679 452 679 C315 679 203 622 118 508 C59 428 26 336 26 250 C26 187 43 130 77 81 L24 28 Z M249 250 C256 301 278 399 291 444 C325 553 370 605 430 605 C480 605 504 574 507 505 L249 250 Z M500 425 C489 343 470 259 449 195 C421 108 373 60 316 60 C269 60 243 99 242 169 L500 425 Z " />
<glyph glyph-name="Ugrave" unicode="&#xd9;" horiz-adv-x="698" d="M501 667 L488 605 L493 605 C538 605 569 578 569 539 C569 533 568 523 565 509 L517 286 C503 218 492 185 477 158 C444 99 389 64 331 64 C271 64 231 109 231 176 C231 195 235 226 243 262 L302 539 C312 586 332 602 383 605 L393 605 L406 667 L86 667 L73 605 L77 605 C115 605 134 592 134 566 C134 557 133 548 131 539 L76 278 C63 216 62 211 62 181 C62 60 141 -14 270 -14 C376 -14 470 32 523 111 C557 161 571 198 590 285 L635 498 C645 547 651 559 673 578 C691 594 716 605 734 605 L736 605 L741 605 L754 667 L501 667 Z M555 734 L492 903 L278 903 L274 889 L510 734 L555 734 Z " />
<glyph glyph-name="Uacute" unicode="&#xda;" horiz-adv-x="698" d="M501 667 L488 605 L493 605 C538 605 569 578 569 539 C569 533 568 523 565 509 L517 286 C503 218 492 185 477 158 C444 99 389 64 331 64 C271 64 231 109 231 176 C231 195 235 226 243 262 L302 539 C312 586 332 602 383 605 L393 605 L406 667 L86 667 L73 605 L77 605 C115 605 134 592 134 566 C134 557 133 548 131 539 L76 278 C63 216 62 211 62 181 C62 60 141 -14 270 -14 C376 -14 470 32 523 111 C557 161 571 198 590 285 L635 498 C645 547 651 559 673 578 C691 594 716 605 734 605 L736 605 L741 605 L754 667 L501 667 Z M374 734 L419 734 L721 889 L724 903 L509 903 L374 734 Z " />
<glyph glyph-name="Ucircumflex" unicode="&#xdb;" horiz-adv-x="698" d="M501 667 L488 605 L493 605 C538 605 569 578 569 539 C569 533 568 523 565 509 L517 286 C503 218 492 185 477 158 C444 99 389 64 331 64 C271 64 231 109 231 176 C231 195 235 226 243 262 L302 539 C312 586 332 602 383 605 L393 605 L406 667 L86 667 L73 605 L77 605 C115 605 134 592 134 566 C134 557 133 548 131 539 L76 278 C63 216 62 211 62 181 C62 60 141 -14 270 -14 C376 -14 470 32 523 111 C557 161 571 198 590 285 L635 498 C645 547 651 559 673 578 C691 594 716 605 734 605 L736 605 L741 605 L754 667 L501 667 Z M375 898 L245 732 L289 732 L471 828 L614 732 L657 732 L594 898 L375 898 Z " />
<glyph glyph-name="Udieresis" unicode="&#xdc;" horiz-adv-x="698" d="M501 667 L488 605 L493 605 C538 605 569 578 569 539 C569 533 568 523 565 509 L517 286 C503 218 492 185 477 158 C444 99 389 64 331 64 C271 64 231 109 231 176 C231 195 235 226 243 262 L302 539 C312 586 332 602 383 605 L393 605 L406 667 L86 667 L73 605 L77 605 C115 605 134 592 134 566 C134 557 133 548 131 539 L76 278 C63 216 62 211 62 181 C62 60 141 -14 270 -14 C376 -14 470 32 523 111 C557 161 571 198 590 285 L635 498 C645 547 651 559 673 578 C691 594 716 605 734 605 L736 605 L741 605 L754 667 L501 667 Z M359 897 C305 897 255 848 255 795 C255 757 283 729 322 729 C376 729 426 778 426 831 C426 869 398 897 359 897 L359 897 Z M610 897 C555 897 505 849 505 795 C505 757 533 729 572 729 C627 729 677 778 677 831 C677 869 648 897 610 897 L610 897 Z " />
<glyph glyph-name="Yacute" unicode="&#xdd;" horiz-adv-x="601" d="M379 368 L316 529 C311 542 307 559 307 568 C307 592 325 605 357 605 L362 605 L376 667 L60 667 L47 605 L51 605 C90 600 103 586 122 524 L191 278 L159 127 C149 80 133 66 83 63 L74 63 L61 0 L399 0 L412 63 L403 63 C370 63 352 75 352 96 C352 104 353 116 356 127 L390 290 L530 483 C559 524 606 578 622 589 C636 598 654 605 664 605 L667 605 L670 605 L683 667 L474 667 L461 605 L466 605 C496 605 509 595 509 574 C509 560 500 539 486 518 L379 368 Z M345 734 L390 734 L692 889 L695 903 L480 903 L345 734 Z " />
<glyph glyph-name="Thorn" unicode="&#xde;" horiz-adv-x="629" d="M438 667 L95 667 L82 604 L96 604 C129 604 146 592 146 567 C146 558 145 548 143 539 L55 126 C46 79 30 66 -20 63 L-29 63 L-42 0 L296 0 L310 63 L299 63 C267 63 246 75 246 94 C246 103 248 120 251 135 L253 142 L287 142 L346 142 C408 145 452 156 495 181 C565 221 609 296 609 376 C609 439 577 487 520 507 C478 522 458 524 334 525 C347 589 358 600 414 604 L425 604 L438 667 Z M267 210 L320 456 C356 455 357 455 367 451 C388 442 400 418 400 383 C400 359 394 327 385 298 C365 234 339 210 290 210 L267 210 Z " />
<glyph glyph-name="germandbls" unicode="&#xdf;" horiz-adv-x="581" d="M15 112 C4 68 -1 64 -42 60 L-43 60 L-56 0 L197 0 L210 60 L207 60 C198 60 191 69 191 80 C191 86 192 93 193 99 L285 533 C298 595 317 618 351 618 C378 618 390 602 390 569 C390 525 378 473 359 437 C347 415 334 406 304 398 L292 339 L295 339 C321 339 338 311 338 266 C338 237 334 207 318 130 C304 64 295 45 278 45 C270 45 264 54 264 66 C264 69 264 72 265 75 C268 88 268 88 268 92 C268 97 265 101 261 101 C248 101 235 79 235 57 C235 19 269 -10 315 -10 C425 -10 518 96 518 220 C518 294 479 344 399 371 C497 394 560 465 560 551 C560 634 491 680 366 680 C285 680 226 663 178 626 C129 588 106 541 83 436 L15 112 Z " />
<glyph glyph-name="agrave" unicode="&#xe0;" horiz-adv-x="529" d="M438 94 C432 79 423 71 413 71 C403 71 396 78 396 86 C396 90 397 96 398 102 L439 295 C443 314 445 325 445 335 C445 393 399 419 293 419 C207 419 152 408 103 381 C61 358 37 325 37 293 C37 266 55 249 84 249 C121 249 145 268 157 305 C169 342 185 355 221 355 C250 355 263 346 263 328 C263 320 262 313 261 306 L252 266 L246 264 C148 235 88 207 31 162 C-2 136 -22 98 -22 62 C-22 16 9 -9 69 -9 C122 -9 170 7 215 39 C220 27 224 22 230 17 C248 1 287 -10 325 -10 C407 -10 460 26 478 94 L438 94 Z M239 203 L217 99 C203 81 191 72 178 72 C164 72 154 86 154 104 C154 138 185 176 232 199 L239 203 Z M411 484 L389 639 L191 639 L189 626 L362 484 L411 484 Z " />
<glyph glyph-name="aacute" unicode="&#xe1;" horiz-adv-x="529" d="M438 94 C432 79 423 71 413 71 C403 71 396 78 396 86 C396 90 397 96 398 102 L439 295 C443 314 445 325 445 335 C445 393 399 419 293 419 C207 419 152 408 103 381 C61 358 37 325 37 293 C37 266 55 249 84 249 C121 249 145 268 157 305 C169 342 185 355 221 355 C250 355 263 346 263 328 C263 320 262 313 261 306 L252 266 L246 264 C148 235 88 207 31 162 C-2 136 -22 98 -22 62 C-22 16 9 -9 69 -9 C122 -9 170 7 215 39 C220 27 224 22 230 17 C248 1 287 -10 325 -10 C407 -10 460 26 478 94 L438 94 Z M239 203 L217 99 C203 81 191 72 178 72 C164 72 154 86 154 104 C154 138 185 176 232 199 L239 203 Z M268 484 L317 484 L551 626 L553 639 L356 639 L268 484 Z " />
<glyph glyph-name="acircumflex" unicode="&#xe2;" horiz-adv-x="529" d="M438 94 C432 79 423 71 413 71 C403 71 396 78 396 86 C396 90 397 96 398 102 L439 295 C443 314 445 325 445 335 C445 393 399 419 293 419 C207 419 152 408 103 381 C61 358 37 325 37 293 C37 266 55 249 84 249 C121 249 145 268 157 305 C169 342 185 355 221 355 C250 355 263 346 263 328 C263 320 262 313 261 306 L252 266 L246 264 C148 235 88 207 31 162 C-2 136 -22 98 -22 62 C-22 16 9 -9 69 -9 C122 -9 170 7 215 39 C220 27 224 22 230 17 C248 1 287 -10 325 -10 C407 -10 460 26 478 94 L438 94 Z M239 203 L217 99 C203 81 191 72 178 72 C164 72 154 86 154 104 C154 138 185 176 232 199 L239 203 Z M421 481 L470 481 L424 644 L271 644 L147 481 L192 481 L331 561 L421 481 Z " />
<glyph glyph-name="atilde" unicode="&#xe3;" horiz-adv-x="529" d="M438 94 C432 79 423 71 413 71 C403 71 396 78 396 86 C396 90 397 96 398 102 L439 295 C443 314 445 325 445 335 C445 393 399 419 293 419 C207 419 152 408 103 381 C61 358 37 325 37 293 C37 266 55 249 84 249 C121 249 145 268 157 305 C169 342 185 355 221 355 C250 355 263 346 263 328 C263 320 262 313 261 306 L252 266 L246 264 C148 235 88 207 31 162 C-2 136 -22 98 -22 62 C-22 16 9 -9 69 -9 C122 -9 170 7 215 39 C220 27 224 22 230 17 C248 1 287 -10 325 -10 C407 -10 460 26 478 94 L438 94 Z M239 203 L217 99 C203 81 191 72 178 72 C164 72 154 86 154 104 C154 138 185 176 232 199 L239 203 Z M189 485 C201 506 211 512 233 512 C247 512 263 509 288 502 C339 488 348 486 368 486 C427 486 474 540 492 632 L448 632 C439 606 423 594 396 594 C383 594 370 596 358 599 C292 619 292 619 273 619 C238 619 197 598 178 571 C164 550 157 531 146 485 L189 485 Z " />
<glyph glyph-name="adieresis" unicode="&#xe4;" horiz-adv-x="529" d="M438 94 C432 79 423 71 413 71 C403 71 396 78 396 86 C396 90 397 96 398 102 L439 295 C443 314 445 325 445 335 C445 393 399 419 293 419 C207 419 152 408 103 381 C61 358 37 325 37 293 C37 266 55 249 84 249 C121 249 145 268 157 305 C169 342 185 355 221 355 C250 355 263 346 263 328 C263 320 262 313 261 306 L252 266 L246 264 C148 235 88 207 31 162 C-2 136 -22 98 -22 62 C-22 16 9 -9 69 -9 C122 -9 170 7 215 39 C220 27 224 22 230 17 C248 1 287 -10 325 -10 C407 -10 460 26 478 94 L438 94 Z M239 203 L217 99 C203 81 191 72 178 72 C164 72 154 86 154 104 C154 138 185 176 232 199 L239 203 Z M242 642 C192 642 146 597 146 549 C146 514 172 488 207 488 C257 488 303 533 303 581 C303 616 277 642 242 642 L242 642 Z M457 642 C407 642 361 597 361 549 C361 514 387 488 422 488 C473 488 519 533 519 581 C519 616 493 642 457 642 L457 642 Z " />
<glyph glyph-name="aring" unicode="&#xe5;" horiz-adv-x="529" d="M438 94 C432 79 423 71 413 71 C403 71 396 78 396 86 C396 90 397 96 398 102 L439 295 C443 314 445 325 445 335 C445 393 399 419 293 419 C207 419 152 408 103 381 C61 358 37 325 37 293 C37 266 55 249 84 249 C121 249 145 268 157 305 C169 342 185 355 221 355 C250 355 263 346 263 328 C263 320 262 313 261 306 L252 266 L246 264 C148 235 88 207 31 162 C-2 136 -22 98 -22 62 C-22 16 9 -9 69 -9 C122 -9 170 7 215 39 C220 27 224 22 230 17 C248 1 287 -10 325 -10 C407 -10 460 26 478 94 L438 94 Z M239 203 L217 99 C203 81 191 72 178 72 C164 72 154 86 154 104 C154 138 185 176 232 199 L239 203 Z M350 671 C281 671 218 610 218 543 C218 495 254 459 303 459 C371 459 435 521 435 587 C435 636 399 671 350 671 L350 671 Z M339 619 C364 619 382 601 382 576 C382 543 349 511 314 511 C289 511 271 529 271 553 C271 587 304 619 339 619 L339 619 Z " />
<glyph glyph-name="ae" unicode="&#xe6;" horiz-adv-x="705" d="M564 108 C532 79 496 62 466 62 C424 62 403 91 403 147 C403 163 404 174 406 185 L408 191 L645 191 C651 227 653 249 653 269 C653 353 589 419 507 419 C469 419 432 412 404 401 C367 413 325 419 268 419 C136 419 34 364 34 294 C34 268 56 251 89 251 C122 251 149 270 158 301 C167 328 167 328 173 336 C182 348 201 356 222 356 C252 356 269 342 269 318 C269 313 269 313 265 295 L259 266 L245 261 C125 217 72 192 32 159 C-2 131 -22 96 -22 64 C-22 22 15 -7 69 -7 C121 -7 189 17 254 58 C290 15 343 -7 410 -7 C487 -7 558 23 605 75 L564 108 Z M510 248 L420 248 C429 290 431 299 436 311 C447 341 465 358 487 358 C506 358 519 340 519 314 C519 301 518 293 512 260 L510 248 Z M222 94 C211 83 192 74 179 74 C164 74 155 86 155 104 C155 138 184 170 246 203 L222 94 Z " />
<glyph glyph-name="ccedilla" unicode="&#xe7;" horiz-adv-x="460" d="M344 131 C316 83 281 59 240 59 C201 59 183 81 183 129 L183 133 C183 162 193 218 207 270 C221 323 255 359 288 359 C305 359 312 351 312 331 C312 294 313 287 319 271 C325 255 340 245 357 245 C395 245 431 288 431 335 C431 389 385 419 303 419 C129 419 -5 298 -5 142 C-5 50 58 -10 162 -16 C146 -66 138 -88 130 -105 C142 -106 149 -115 149 -128 C149 -151 138 -162 117 -162 C101 -162 90 -160 72 -153 C65 -178 64 -182 55 -205 C68 -212 86 -216 109 -216 C188 -216 244 -169 244 -101 C244 -64 229 -45 196 -40 C201 -27 203 -22 205 -15 C285 -7 355 38 390 102 L344 131 Z " />
<glyph glyph-name="egrave" unicode="&#xe8;" horiz-adv-x="482" d="M343 107 C306 72 271 54 239 54 C194 54 167 85 167 135 C167 151 169 164 174 191 L421 191 C428 224 431 244 431 267 C431 361 367 419 265 419 C119 419 0 299 0 152 C0 50 69 -16 178 -16 C250 -16 332 20 382 73 L343 107 Z M186 248 C195 288 198 301 203 313 C215 341 232 356 254 356 C276 356 289 339 289 310 C289 296 288 288 282 248 L186 248 Z M370 484 L348 639 L150 639 L147 626 L321 484 L370 484 Z " />
<glyph glyph-name="eacute" unicode="&#xe9;" horiz-adv-x="482" d="M343 107 C306 72 271 54 239 54 C194 54 167 85 167 135 C167 151 169 164 174 191 L421 191 C428 224 431 244 431 267 C431 361 367 419 265 419 C119 419 0 299 0 152 C0 50 69 -16 178 -16 C250 -16 332 20 382 73 L343 107 Z M186 248 C195 288 198 301 203 313 C215 341 232 356 254 356 C276 356 289 339 289 310 C289 296 288 288 282 248 L186 248 Z M239 484 L288 484 L522 626 L525 639 L327 639 L239 484 Z " />
<glyph glyph-name="ecircumflex" unicode="&#xea;" horiz-adv-x="482" d="M343 107 C306 72 271 54 239 54 C194 54 167 85 167 135 C167 151 169 164 174 191 L421 191 C428 224 431 244 431 267 C431 361 367 419 265 419 C119 419 0 299 0 152 C0 50 69 -16 178 -16 C250 -16 332 20 382 73 L343 107 Z M186 248 C195 288 198 301 203 313 C215 341 232 356 254 356 C276 356 289 339 289 310 C289 296 288 288 282 248 L186 248 Z M401 481 L450 481 L404 644 L250 644 L126 481 L172 481 L311 561 L401 481 Z " />
<glyph glyph-name="edieresis" unicode="&#xeb;" horiz-adv-x="482" d="M343 107 C306 72 271 54 239 54 C194 54 167 85 167 135 C167 151 169 164 174 191 L421 191 C428 224 431 244 431 267 C431 361 367 419 265 419 C119 419 0 299 0 152 C0 50 69 -16 178 -16 C250 -16 332 20 382 73 L343 107 Z M186 248 C195 288 198 301 203 313 C215 341 232 356 254 356 C276 356 289 339 289 310 C289 296 288 288 282 248 L186 248 Z M216 642 C166 642 120 597 120 549 C120 514 146 488 181 488 C231 488 277 533 277 581 C277 616 251 642 216 642 L216 642 Z M431 642 C381 642 335 597 335 549 C335 514 361 488 396 488 C446 488 493 533 493 581 C493 616 467 642 431 642 L431 642 Z " />
<glyph glyph-name="igrave" unicode="&#xec;" horiz-adv-x="311" d="M273 419 L269 419 C257 417 247 415 244 414 L176 403 L119 393 C89 388 70 385 60 384 C44 381 37 380 25 379 L12 319 L22 319 C54 319 71 310 71 292 C71 285 70 274 68 265 L35 112 C25 71 13 61 -34 60 L-43 60 L-56 0 L234 0 L246 60 L244 60 C217 60 205 69 205 90 C205 97 206 105 207 112 L273 419 Z M300 484 L278 639 L80 639 L78 626 L251 484 L300 484 Z " />
<glyph glyph-name="iacute" unicode="&#xed;" horiz-adv-x="311" d="M273 419 L269 419 C257 417 247 415 244 414 L176 403 L119 393 C89 388 70 385 60 384 C44 381 37 380 25 379 L12 319 L22 319 C54 319 71 310 71 292 C71 285 70 274 68 265 L35 112 C25 71 13 61 -34 60 L-43 60 L-56 0 L234 0 L246 60 L244 60 C217 60 205 69 205 90 C205 97 206 105 207 112 L273 419 Z M155 484 L204 484 L437 626 L440 639 L243 639 L155 484 Z " />
<glyph glyph-name="icircumflex" unicode="&#xee;" horiz-adv-x="311" d="M273 419 L269 419 C257 417 247 415 244 414 L176 403 L119 393 C89 388 70 385 60 384 C44 381 37 380 25 379 L12 319 L22 319 C54 319 71 310 71 292 C71 285 70 274 68 265 L35 112 C25 71 13 61 -34 60 L-43 60 L-56 0 L234 0 L246 60 L244 60 C217 60 205 69 205 90 C205 97 206 105 207 112 L273 419 Z M308 481 L357 481 L311 644 L158 644 L34 481 L79 481 L218 561 L308 481 Z " />
<glyph glyph-name="idieresis" unicode="&#xef;" horiz-adv-x="311" d="M273 419 L269 419 C257 417 247 415 244 414 L176 403 L119 393 C89 388 70 385 60 384 C44 381 37 380 25 379 L12 319 L22 319 C54 319 71 310 71 292 C71 285 70 274 68 265 L35 112 C25 71 13 61 -34 60 L-43 60 L-56 0 L234 0 L246 60 L244 60 C217 60 205 69 205 90 C205 97 206 105 207 112 L273 419 Z M137 642 C87 642 41 597 41 549 C41 514 67 488 102 488 C152 488 198 533 198 581 C198 616 172 642 137 642 L137 642 Z M328 642 C278 642 232 597 232 549 C232 514 258 488 293 488 C344 488 390 533 390 581 C390 616 364 642 328 642 L328 642 Z " />
<glyph glyph-name="eth" unicode="&#xf0;" horiz-adv-x="522" d="M204 594 C229 577 232 574 253 554 L169 512 L181 457 L286 511 C300 489 316 437 316 413 C303 415 297 416 284 416 C209 416 153 398 103 359 C37 307 -1 230 -1 146 C-1 44 71 -15 195 -15 C283 -15 355 23 409 97 C453 159 480 254 480 348 C480 434 459 497 406 572 L469 604 L455 659 L369 614 C339 641 315 657 279 677 L204 594 Z M263 351 C277 351 285 337 285 314 C285 275 266 176 248 117 C232 69 219 49 201 49 C186 49 180 61 180 92 C180 136 204 256 221 300 C235 335 248 351 263 351 L263 351 Z " />
<glyph glyph-name="ntilde" unicode="&#xf1;" horiz-adv-x="565" d="M254 405 C232 401 226 400 187 394 C130 384 83 377 22 366 L10 306 L12 306 C40 306 51 298 51 275 C51 269 51 262 50 260 L19 112 C9 71 -2 61 -40 60 L-53 0 L209 0 L222 60 L220 60 C206 61 197 74 197 90 C197 95 198 104 200 112 L233 265 C268 309 284 322 301 322 C314 322 323 310 322 294 C322 289 321 283 319 276 L285 112 C278 82 267 67 245 60 L242 60 L229 0 L491 0 L503 60 L501 60 C477 60 466 69 466 90 C466 97 467 105 468 112 L499 256 C507 293 508 301 508 322 C508 380 464 419 399 419 C350 419 298 396 254 354 C257 377 258 385 258 393 C258 396 258 400 257 405 L254 405 Z M213 485 C225 506 235 512 258 512 C272 512 287 509 312 502 C363 488 373 486 392 486 C452 486 498 540 517 632 L472 632 C464 606 448 594 421 594 C407 594 394 596 382 599 C316 619 316 619 297 619 C262 619 222 599 203 571 C188 550 181 530 171 485 L213 485 Z " />
<glyph glyph-name="ograve" unicode="&#xf2;" horiz-adv-x="523" d="M281 419 C123 419 -1 299 -1 145 C-1 107 8 77 28 51 C60 10 121 -16 186 -16 C342 -16 468 106 468 258 C468 291 461 317 446 341 C416 388 351 419 281 419 L281 419 Z M267 356 C282 355 291 340 291 315 C291 289 265 163 250 111 C237 68 220 46 202 46 C185 46 177 61 177 92 C177 111 177 111 196 210 C215 296 216 300 228 325 C236 344 253 357 267 356 L267 356 Z M402 484 L380 639 L183 639 L180 626 L353 484 L402 484 Z " />
<glyph glyph-name="oacute" unicode="&#xf3;" horiz-adv-x="523" d="M281 419 C123 419 -1 299 -1 145 C-1 107 8 77 28 51 C60 10 121 -16 186 -16 C342 -16 468 106 468 258 C468 291 461 317 446 341 C416 388 351 419 281 419 L281 419 Z M267 356 C282 355 291 340 291 315 C291 289 265 163 250 111 C237 68 220 46 202 46 C185 46 177 61 177 92 C177 111 177 111 196 210 C215 296 216 300 228 325 C236 344 253 357 267 356 L267 356 Z M248 484 L298 484 L531 626 L534 639 L336 639 L248 484 Z " />
<glyph glyph-name="ocircumflex" unicode="&#xf4;" horiz-adv-x="523" d="M281 419 C123 419 -1 299 -1 145 C-1 107 8 77 28 51 C60 10 121 -16 186 -16 C342 -16 468 106 468 258 C468 291 461 317 446 341 C416 388 351 419 281 419 L281 419 Z M267 356 C282 355 291 340 291 315 C291 289 265 163 250 111 C237 68 220 46 202 46 C185 46 177 61 177 92 C177 111 177 111 196 210 C215 296 216 300 228 325 C236 344 253 357 267 356 L267 356 Z M414 481 L463 481 L417 644 L264 644 L140 481 L185 481 L324 561 L414 481 Z " />
<glyph glyph-name="otilde" unicode="&#xf5;" horiz-adv-x="523" d="M281 419 C123 419 -1 299 -1 145 C-1 107 8 77 28 51 C60 10 121 -16 186 -16 C342 -16 468 106 468 258 C468 291 461 317 446 341 C416 388 351 419 281 419 L281 419 Z M267 356 C282 355 291 340 291 315 C291 289 265 163 250 111 C237 68 220 46 202 46 C185 46 177 61 177 92 C177 111 177 111 196 210 C215 296 216 300 228 325 C236 344 253 357 267 356 L267 356 Z M188 485 C202 507 210 512 233 512 C247 512 262 509 287 502 C338 488 348 486 367 486 C427 486 473 540 492 632 L447 632 C439 606 423 594 396 594 C382 594 369 596 357 599 C291 619 291 619 272 619 C237 619 197 598 178 571 C164 550 156 531 146 485 L188 485 Z " />
<glyph glyph-name="odieresis" unicode="&#xf6;" horiz-adv-x="523" d="M281 419 C123 419 -1 299 -1 145 C-1 107 8 77 28 51 C60 10 121 -16 186 -16 C342 -16 468 106 468 258 C468 291 461 317 446 341 C416 388 351 419 281 419 L281 419 Z M267 356 C282 355 291 340 291 315 C291 289 265 163 250 111 C237 68 220 46 202 46 C185 46 177 61 177 92 C177 111 177 111 196 210 C215 296 216 300 228 325 C236 344 253 357 267 356 L267 356 Z M223 642 C173 642 127 597 127 549 C127 514 153 488 188 488 C238 488 284 533 284 581 C284 616 258 642 223 642 L223 642 Z M438 642 C388 642 342 597 342 549 C342 514 368 488 403 488 C453 488 500 533 500 581 C500 616 474 642 438 642 L438 642 Z " />
<glyph glyph-name="divide" unicode="&#xf7;" horiz-adv-x="450" d="M18 427 L-4 326 L452 326 L473 427 L18 427 Z M209 267 C155 267 105 213 105 154 C105 115 132 85 168 85 C223 85 273 139 273 197 C273 238 246 267 209 267 L209 267 Z M293 662 C239 662 189 608 189 550 C189 509 216 480 253 480 C307 480 357 534 357 592 C357 633 330 662 293 662 L293 662 Z " />
<glyph glyph-name="oslash" unicode="&#xf8;" horiz-adv-x="523" d="M472 404 L440 445 L388 393 C356 410 317 419 276 419 C122 419 -1 297 -1 145 C-1 101 10 69 36 41 L-5 0 L28 -40 L78 10 C112 -8 146 -16 185 -16 C342 -16 468 106 468 258 C468 302 456 334 430 362 L472 404 Z M272 204 C259 146 250 109 244 95 C232 62 218 46 201 46 C186 46 176 63 176 90 C176 93 176 98 177 106 L177 109 L272 204 Z M194 199 C216 315 235 356 267 356 C282 356 291 340 291 313 C291 306 291 301 289 295 L194 199 Z " />
<glyph glyph-name="ugrave" unicode="&#xf9;" horiz-adv-x="552" d="M513 403 L296 403 L284 343 L286 343 C303 343 312 335 312 319 C312 312 311 301 308 291 L272 120 C229 81 229 81 218 81 C209 81 201 91 201 103 C201 111 204 130 206 144 L262 403 L21 403 L8 343 L10 343 C43 343 59 332 59 309 C59 305 58 297 57 291 L23 132 C16 101 15 92 15 79 C15 22 55 -16 115 -16 C164 -16 210 5 257 49 L256 43 C249 14 248 9 246 4 L242 -8 C241 -9 240 -12 239 -16 L244 -16 C288 -7 393 1 455 1 C457 1 464 1 475 0 L488 60 L486 60 C460 60 449 68 449 88 C449 96 450 104 452 112 L513 403 Z M408 484 L386 639 L188 639 L185 626 L359 484 L408 484 Z " />
<glyph glyph-name="uacute" unicode="&#xfa;" horiz-adv-x="552" d="M513 403 L296 403 L284 343 L286 343 C303 343 312 335 312 319 C312 312 311 301 308 291 L272 120 C229 81 229 81 218 81 C209 81 201 91 201 103 C201 111 204 130 206 144 L262 403 L21 403 L8 343 L10 343 C43 343 59 332 59 309 C59 305 58 297 57 291 L23 132 C16 101 15 92 15 79 C15 22 55 -16 115 -16 C164 -16 210 5 257 49 L256 43 C249 14 248 9 246 4 L242 -8 C241 -9 240 -12 239 -16 L244 -16 C288 -7 393 1 455 1 C457 1 464 1 475 0 L488 60 L486 60 C460 60 449 68 449 88 C449 96 450 104 452 112 L513 403 Z M277 484 L326 484 L560 626 L563 639 L365 639 L277 484 Z " />
<glyph glyph-name="ucircumflex" unicode="&#xfb;" horiz-adv-x="552" d="M513 403 L296 403 L284 343 L286 343 C303 343 312 335 312 319 C312 312 311 301 308 291 L272 120 C229 81 229 81 218 81 C209 81 201 91 201 103 C201 111 204 130 206 144 L262 403 L21 403 L8 343 L10 343 C43 343 59 332 59 309 C59 305 58 297 57 291 L23 132 C16 101 15 92 15 79 C15 22 55 -16 115 -16 C164 -16 210 5 257 49 L256 43 C249 14 248 9 246 4 L242 -8 C241 -9 240 -12 239 -16 L244 -16 C288 -7 393 1 455 1 C457 1 464 1 475 0 L488 60 L486 60 C460 60 449 68 449 88 C449 96 450 104 452 112 L513 403 Z M431 481 L480 481 L433 644 L280 644 L156 481 L202 481 L340 561 L431 481 Z " />
<glyph glyph-name="udieresis" unicode="&#xfc;" horiz-adv-x="552" d="M513 403 L296 403 L284 343 L286 343 C303 343 312 335 312 319 C312 312 311 301 308 291 L272 120 C229 81 229 81 218 81 C209 81 201 91 201 103 C201 111 204 130 206 144 L262 403 L21 403 L8 343 L10 343 C43 343 59 332 59 309 C59 305 58 297 57 291 L23 132 C16 101 15 92 15 79 C15 22 55 -16 115 -16 C164 -16 210 5 257 49 L256 43 C249 14 248 9 246 4 L242 -8 C241 -9 240 -12 239 -16 L244 -16 C288 -7 393 1 455 1 C457 1 464 1 475 0 L488 60 L486 60 C460 60 449 68 449 88 C449 96 450 104 452 112 L513 403 Z M247 642 C197 642 151 597 151 549 C151 514 177 488 212 488 C263 488 309 533 309 581 C309 616 283 642 247 642 L247 642 Z M463 642 C413 642 367 597 367 549 C367 514 393 488 428 488 C478 488 524 533 524 581 C524 616 498 642 463 642 L463 642 Z " />
<glyph glyph-name="yacute" unicode="&#xfd;" horiz-adv-x="486" d="M9 403 L-4 344 L2 343 C21 340 27 331 44 274 L144 -20 L138 -29 C102 -81 80 -94 6 -110 C-47 -123 -73 -150 -73 -193 C-73 -228 -49 -252 -14 -252 C17 -252 49 -237 76 -209 C93 -192 126 -146 165 -86 L357 215 C363 224 371 236 381 250 C391 264 407 286 410 290 C437 330 447 338 473 343 L482 344 L495 403 L329 403 L317 344 L321 344 L326 344 C339 344 350 334 350 323 C350 313 350 313 324 273 L250 155 L218 291 C211 314 211 314 211 320 C211 334 221 342 241 343 L248 344 L261 403 L9 403 Z M245 484 L294 484 L527 626 L530 639 L332 639 L245 484 Z " />
<glyph glyph-name="thorn" unicode="&#xfe;" horiz-adv-x="577" d="M309 679 C290 675 251 668 140 648 C112 644 94 641 76 637 L64 577 C94 577 105 569 105 547 C105 540 104 532 103 525 L-35 -122 C-44 -164 -55 -174 -96 -175 L-109 -235 L188 -235 L201 -175 L186 -175 C156 -175 144 -166 144 -144 C144 -136 145 -129 146 -122 L181 40 C214 2 249 -16 288 -16 C413 -16 523 118 523 269 C523 358 471 419 394 419 C346 419 292 394 242 348 L313 679 L309 679 Z M230 272 C254 314 280 335 306 335 C325 335 339 315 339 289 L339 283 C338 257 335 243 325 193 C313 141 313 139 307 126 C294 93 267 69 245 69 C226 69 205 85 195 106 L230 272 Z " />
<glyph glyph-name="ydieresis" unicode="&#xff;" horiz-adv-x="486" d="M9 403 L-4 344 L2 343 C21 340 27 331 44 274 L144 -20 L138 -29 C102 -81 80 -94 6 -110 C-47 -123 -73 -150 -73 -193 C-73 -228 -49 -252 -14 -252 C17 -252 49 -237 76 -209 C93 -192 126 -146 165 -86 L357 215 C363 224 371 236 381 250 C391 264 407 286 410 290 C437 330 447 338 473 343 L482 344 L495 403 L329 403 L317 344 L321 344 L326 344 C339 344 350 334 350 323 C350 313 350 313 324 273 L250 155 L218 291 C211 314 211 314 211 320 C211 334 221 342 241 343 L248 344 L261 403 L9 403 Z M215 642 C165 642 119 597 119 549 C119 514 145 488 180 488 C230 488 276 533 276 581 C276 616 250 642 215 642 L215 642 Z M430 642 C380 642 334 597 334 549 C334 514 360 488 395 488 C445 488 492 533 492 581 C492 616 466 642 430 642 L430 642 Z " />
<glyph glyph-name="Amacron" unicode="&#x100;" horiz-adv-x="588" d="M529 0 L542 63 L538 63 C499 67 486 88 472 167 L396 679 L335 679 L54 182 C14 110 -29 66 -65 63 L-70 63 L-83 0 L120 0 L133 63 L127 63 C94 63 79 71 79 91 C79 103 84 116 98 141 L110 164 L285 164 L289 134 C291 118 292 108 292 100 C292 74 273 63 234 63 L229 63 L216 0 L529 0 Z M275 229 L146 229 L246 407 L275 229 Z M225 826 L210 757 L549 757 L564 826 L225 826 Z " />
<glyph glyph-name="amacron" unicode="&#x101;" horiz-adv-x="529" d="M438 94 C432 79 423 71 413 71 C403 71 396 78 396 86 C396 90 397 96 398 102 L439 295 C443 314 445 325 445 335 C445 393 399 419 293 419 C207 419 152 408 103 381 C61 358 37 325 37 293 C37 266 55 249 84 249 C121 249 145 268 157 305 C169 342 185 355 221 355 C250 355 263 346 263 328 C263 320 262 313 261 306 L252 266 L246 264 C148 235 88 207 31 162 C-2 136 -22 98 -22 62 C-22 16 9 -9 69 -9 C122 -9 170 7 215 39 C220 27 224 22 230 17 C248 1 287 -10 325 -10 C407 -10 460 26 478 94 L438 94 Z M239 203 L217 99 C203 81 191 72 178 72 C164 72 154 86 154 104 C154 138 185 176 232 199 L239 203 Z M156 530 L460 530 L473 593 L170 593 L156 530 Z " />
<glyph glyph-name="Abreve" unicode="&#x102;" horiz-adv-x="588" d="M529 0 L542 63 L538 63 C499 67 486 88 472 167 L396 679 L335 679 L54 182 C14 110 -29 66 -65 63 L-70 63 L-83 0 L120 0 L133 63 L127 63 C94 63 79 71 79 91 C79 103 84 116 98 141 L110 164 L285 164 L289 134 C291 118 292 108 292 100 C292 74 273 63 234 63 L229 63 L216 0 L529 0 Z M275 229 L146 229 L246 407 L275 229 Z M208 881 C213 842 223 814 240 790 C271 747 326 720 382 720 C470 720 557 781 613 881 L545 881 C516 839 466 816 406 816 C328 816 294 833 278 881 L208 881 Z " />
<glyph glyph-name="abreve" unicode="&#x103;" horiz-adv-x="529" d="M438 94 C432 79 423 71 413 71 C403 71 396 78 396 86 C396 90 397 96 398 102 L439 295 C443 314 445 325 445 335 C445 393 399 419 293 419 C207 419 152 408 103 381 C61 358 37 325 37 293 C37 266 55 249 84 249 C121 249 145 268 157 305 C169 342 185 355 221 355 C250 355 263 346 263 328 C263 320 262 313 261 306 L252 266 L246 264 C148 235 88 207 31 162 C-2 136 -22 98 -22 62 C-22 16 9 -9 69 -9 C122 -9 170 7 215 39 C220 27 224 22 230 17 C248 1 287 -10 325 -10 C407 -10 460 26 478 94 L438 94 Z M239 203 L217 99 C203 81 191 72 178 72 C164 72 154 86 154 104 C154 138 185 176 232 199 L239 203 Z M185 650 C181 635 179 624 179 611 C179 531 231 474 304 474 C391 474 475 551 496 650 L459 650 C430 594 385 566 326 566 C266 566 229 597 223 650 L185 650 Z " />
<glyph glyph-name="Aogonek" unicode="&#x104;" horiz-adv-x="588" d="M529 0 L542 63 L538 63 C499 67 486 88 472 167 L396 679 L335 679 L54 182 C14 110 -29 66 -65 63 L-70 63 L-83 0 L120 0 L133 63 L127 63 C94 63 79 71 79 91 C79 103 84 116 98 141 L110 164 L285 164 L289 134 C291 118 292 108 292 100 C292 74 273 63 234 63 L229 63 L216 0 L398 0 C325 -38 282 -92 282 -146 C282 -193 319 -225 374 -225 C412 -225 442 -214 487 -185 L477 -150 C463 -157 455 -159 444 -159 C419 -159 403 -142 403 -116 C403 -81 422 -42 459 0 L529 0 Z M275 229 L146 229 L246 407 L275 229 Z " />
<glyph glyph-name="aogonek" unicode="&#x105;" horiz-adv-x="529" d="M438 94 C432 79 423 71 413 71 C403 71 396 78 396 86 C396 90 397 96 398 102 L439 295 C443 314 445 325 445 335 C445 393 399 419 293 419 C207 419 152 408 103 381 C61 358 37 325 37 293 C37 266 55 249 84 249 C121 249 145 268 157 305 C169 342 185 355 221 355 C250 355 263 346 263 328 C263 320 262 313 261 306 L252 266 L246 264 C148 235 88 207 31 162 C-2 136 -22 98 -22 62 C-22 16 9 -9 69 -9 C122 -9 170 7 215 39 C224 14 248 0 296 -7 C243 -43 215 -86 215 -130 C215 -174 248 -204 298 -204 C331 -204 360 -193 399 -167 L391 -136 C376 -142 369 -144 359 -144 C338 -144 325 -129 325 -103 C325 -74 339 -40 365 -6 C427 6 465 39 478 94 L438 94 Z M239 203 L217 99 C203 81 191 72 178 72 C164 72 154 86 154 104 C154 138 185 176 232 199 L239 203 Z " />
<glyph glyph-name="Cacute" unicode="&#x106;" horiz-adv-x="671" d="M550 258 C539 232 516 188 499 161 C461 102 392 60 333 60 C271 60 232 105 232 175 C232 244 263 392 294 475 C325 556 383 605 447 605 C503 605 540 575 559 514 C569 480 574 445 574 410 L630 410 L675 655 L619 655 L617 651 L610 637 C606 629 603 624 602 621 C598 615 596 611 591 602 C546 657 498 679 425 679 C307 679 198 619 118 510 C59 429 27 337 27 247 C27 87 123 -14 275 -14 C349 -14 434 18 485 66 C492 52 496 31 496 3 L553 3 L607 258 L550 258 Z M368 734 L413 734 L714 889 L718 903 L503 903 L368 734 Z " />
<glyph glyph-name="cacute" unicode="&#x107;" horiz-adv-x="460" d="M344 131 C316 83 281 59 240 59 C201 59 183 81 183 129 L183 133 C183 162 193 218 207 270 C221 323 255 359 288 359 C305 359 312 351 312 331 C312 294 313 287 319 271 C325 255 340 245 357 245 C395 245 431 288 431 335 C431 389 385 419 303 419 C129 419 -5 299 -5 142 C-5 46 66 -16 177 -16 C269 -16 347 27 390 102 L344 131 Z M223 484 L273 484 L506 626 L509 639 L311 639 L223 484 Z " />
<glyph glyph-name="Ccircumflex" unicode="&#x108;" horiz-adv-x="671" d="M550 258 C539 232 516 188 499 161 C461 102 392 60 333 60 C271 60 232 105 232 175 C232 244 263 392 294 475 C325 556 383 605 447 605 C503 605 540 575 559 514 C569 480 574 445 574 410 L630 410 L675 655 L619 655 L617 651 L610 637 C606 629 603 624 602 621 C598 615 596 611 591 602 C546 657 498 679 425 679 C307 679 198 619 118 510 C59 429 27 337 27 247 C27 87 123 -14 275 -14 C349 -14 434 18 485 66 C492 52 496 31 496 3 L553 3 L607 258 L550 258 Z M379 898 L249 732 L293 732 L475 828 L619 732 L661 732 L598 898 L379 898 Z " />
<glyph glyph-name="Cdotaccent" unicode="&#x10a;" horiz-adv-x="671" d="M550 258 C539 232 516 188 499 161 C461 102 392 60 333 60 C271 60 232 105 232 175 C232 244 263 392 294 475 C325 556 383 605 447 605 C503 605 540 575 559 514 C569 480 574 445 574 410 L630 410 L675 655 L619 655 L617 651 L610 637 C606 629 603 624 602 621 C598 615 596 611 591 602 C546 657 498 679 425 679 C307 679 198 619 118 510 C59 429 27 337 27 247 C27 87 123 -14 275 -14 C349 -14 434 18 485 66 C492 52 496 31 496 3 L553 3 L607 258 L550 258 Z M476 897 C421 897 371 848 371 795 C371 757 399 729 438 729 C493 729 543 778 543 831 C543 869 515 897 476 897 L476 897 Z " />
<glyph glyph-name="cdotaccent" unicode="&#x10b;" horiz-adv-x="460" d="M344 131 C316 83 281 59 240 59 C201 59 183 81 183 129 L183 133 C183 162 193 218 207 270 C221 323 255 359 288 359 C305 359 312 351 312 331 C312 294 313 287 319 271 C325 255 340 245 357 245 C395 245 431 288 431 335 C431 389 385 419 303 419 C129 419 -5 299 -5 142 C-5 46 66 -16 177 -16 C269 -16 347 27 390 102 L344 131 Z M333 642 C283 642 237 597 237 549 C237 514 263 488 298 488 C348 488 394 533 394 581 C394 616 368 642 333 642 L333 642 Z " />
<glyph glyph-name="Ccaron" unicode="&#x10c;" horiz-adv-x="671" d="M550 258 C539 232 516 188 499 161 C461 102 392 60 333 60 C271 60 232 105 232 175 C232 244 263 392 294 475 C325 556 383 605 447 605 C503 605 540 575 559 514 C569 480 574 445 574 410 L630 410 L675 655 L619 655 L617 651 L610 637 C606 629 603 624 602 621 C598 615 596 611 591 602 C546 657 498 679 425 679 C307 679 198 619 118 510 C59 429 27 337 27 247 C27 87 123 -14 275 -14 C349 -14 434 18 485 66 C492 52 496 31 496 3 L553 3 L607 258 L550 258 Z M552 732 L685 898 L642 898 L458 802 L316 898 L273 898 L332 732 L552 732 Z " />
<glyph glyph-name="ccaron" unicode="&#x10d;" horiz-adv-x="460" d="M344 131 C316 83 281 59 240 59 C201 59 183 81 183 129 L183 133 C183 162 193 218 207 270 C221 323 255 359 288 359 C305 359 312 351 312 331 C312 294 313 287 319 271 C325 255 340 245 357 245 C395 245 431 288 431 335 C431 389 385 419 303 419 C129 419 -5 299 -5 142 C-5 46 66 -16 177 -16 C269 -16 347 27 390 102 L344 131 Z M209 653 L164 653 L218 491 L372 491 L488 653 L439 653 L309 573 L209 653 Z " />
<glyph glyph-name="Dcaron" unicode="&#x10e;" horiz-adv-x="722" d="M95 669 L82 606 L85 606 C115 606 133 592 133 569 C133 562 132 551 129 540 L41 127 C33 81 14 64 -31 63 L-33 63 L-46 0 L160 0 C378 1 408 6 486 50 C613 122 695 265 695 416 C695 518 652 596 573 639 C523 666 463 675 335 675 L315 675 C260 675 241 674 183 672 L95 669 Z M337 607 C370 607 389 604 405 597 C451 578 479 524 479 456 C479 385 453 267 423 196 C386 111 339 68 283 68 C249 68 233 81 233 108 C233 116 233 116 239 144 L337 607 Z M516 732 L650 898 L607 898 L423 802 L281 898 L237 898 L296 732 L516 732 Z " />
<glyph glyph-name="dcaron" unicode="&#x10f;" horiz-adv-x="725" d="M507 78 L502 78 C482 78 469 88 469 104 C469 108 471 128 472 131 L588 679 L584 679 C570 677 559 675 555 675 C537 672 518 669 499 666 C360 644 359 644 334 639 L321 579 L323 579 C362 579 377 569 377 545 C377 541 376 533 375 526 L341 368 C320 401 281 419 229 419 C144 419 66 364 30 280 C9 232 -6 163 -6 118 C-6 42 46 -8 124 -8 C176 -8 221 11 274 56 C270 39 269 31 269 20 C269 10 270 3 273 -8 C325 3 401 10 493 14 L507 78 Z M291 134 C270 98 243 77 215 77 C195 77 183 95 183 125 C183 138 188 166 197 212 C214 298 241 338 281 338 C299 338 312 327 327 301 L291 134 Z M583 431 L589 431 C690 431 773 511 773 607 C773 654 747 680 701 680 C652 680 610 642 610 598 C610 572 631 551 657 551 C662 551 670 552 677 553 C682 554 687 555 691 555 C698 555 702 550 702 543 C702 510 648 478 593 477 L583 431 Z " />
<glyph glyph-name="Dcroat" unicode="&#x110;" horiz-adv-x="726" d="M97 370 L28 370 L12 297 L81 297 L45 127 C37 81 18 64 -27 63 L-29 63 L-42 0 L164 0 C382 1 412 6 490 50 C617 122 699 266 699 416 C699 518 656 596 577 639 C527 666 467 675 339 675 L319 675 C264 675 245 674 187 672 L99 669 L86 606 L89 606 C119 606 137 592 137 569 C137 562 136 551 133 540 L97 370 Z M291 370 L341 607 C374 607 393 604 409 597 C454 578 483 524 483 456 C483 385 457 268 427 196 C390 111 343 68 287 68 C253 68 237 81 237 108 C237 116 237 116 243 144 L275 297 L379 297 L394 370 L291 370 Z " />
<glyph glyph-name="dcroat" unicode="&#x111;" horiz-adv-x="574" d="M363 471 L341 368 C320 401 281 419 229 419 C144 419 66 364 30 280 C9 232 -6 163 -6 118 C-6 42 46 -8 124 -8 C176 -8 221 11 274 56 C270 39 269 31 269 20 C269 10 270 3 273 -8 C325 3 401 10 493 14 L507 78 L502 78 C482 78 469 88 469 104 C469 108 471 128 472 131 L544 471 L590 471 L604 534 L557 534 L588 679 L584 679 C570 677 559 675 555 675 C537 672 518 669 499 666 C360 644 359 644 334 639 L321 579 L323 579 C362 579 377 569 377 544 C377 541 377 538 376 534 L228 534 L214 471 L363 471 Z M291 134 C270 98 243 77 215 77 C195 77 183 95 183 125 C183 138 188 166 197 212 C214 298 241 338 281 338 C299 338 312 327 327 301 L291 134 Z " />
<glyph glyph-name="Emacron" unicode="&#x112;" horiz-adv-x="614" d="M510 222 C457 105 411 66 329 68 L321 68 C269 68 245 79 245 104 C245 112 245 112 253 147 L288 314 L340 314 C371 314 386 300 386 273 C386 266 385 255 382 242 L381 235 L435 235 L483 460 L429 460 L427 454 C412 398 396 383 353 382 L302 382 L349 599 L461 599 C515 601 529 582 540 493 L597 493 L626 667 L95 667 L82 605 L92 605 C125 605 145 592 145 569 C145 561 144 547 142 539 L54 127 C47 83 25 64 -21 63 L-31 63 L-44 0 L518 0 L566 222 L510 222 Z M250 826 L236 757 L575 757 L590 826 L250 826 Z " />
<glyph glyph-name="emacron" unicode="&#x113;" horiz-adv-x="482" d="M343 107 C306 72 271 54 239 54 C194 54 167 85 167 135 C167 151 169 164 174 191 L421 191 C428 224 431 244 431 267 C431 361 367 419 265 419 C119 419 0 299 0 152 C0 50 69 -16 178 -16 C250 -16 332 20 382 73 L343 107 Z M186 248 C195 288 198 301 203 313 C215 341 232 356 254 356 C276 356 289 339 289 310 C289 296 288 288 282 248 L186 248 Z M138 530 L442 530 L455 593 L152 593 L138 530 Z " />
<glyph glyph-name="Ebreve" unicode="&#x114;" horiz-adv-x="614" d="M510 222 C457 105 411 66 329 68 L321 68 C269 68 245 79 245 104 C245 112 245 112 253 147 L288 314 L340 314 C371 314 386 300 386 273 C386 266 385 255 382 242 L381 235 L435 235 L483 460 L429 460 L427 454 C412 398 396 383 353 382 L302 382 L349 599 L461 599 C515 601 529 582 540 493 L597 493 L626 667 L95 667 L82 605 L92 605 C125 605 145 592 145 569 C145 561 144 547 142 539 L54 127 C47 83 25 64 -21 63 L-31 63 L-44 0 L518 0 L566 222 L510 222 Z M233 881 C239 842 248 814 266 790 C296 747 352 720 407 720 C496 720 583 781 638 881 L571 881 C541 839 492 816 432 816 C354 816 319 833 303 881 L233 881 Z " />
<glyph glyph-name="ebreve" unicode="&#x115;" horiz-adv-x="482" d="M343 107 C306 72 271 54 239 54 C194 54 167 85 167 135 C167 151 169 164 174 191 L421 191 C428 224 431 244 431 267 C431 361 367 419 265 419 C119 419 0 299 0 152 C0 50 69 -16 178 -16 C250 -16 332 20 382 73 L343 107 Z M186 248 C195 288 198 301 203 313 C215 341 232 356 254 356 C276 356 289 339 289 310 C289 296 288 288 282 248 L186 248 Z M169 650 C165 634 164 624 164 611 C164 531 216 474 288 474 C375 474 459 551 481 650 L443 650 C414 594 369 566 310 566 C250 566 213 597 207 650 L169 650 Z " />
<glyph glyph-name="Edotaccent" unicode="&#x116;" horiz-adv-x="614" d="M510 222 C457 105 411 66 329 68 L321 68 C269 68 245 79 245 104 C245 112 245 112 253 147 L288 314 L340 314 C371 314 386 300 386 273 C386 266 385 255 382 242 L381 235 L435 235 L483 460 L429 460 L427 454 C412 398 396 383 353 382 L302 382 L349 599 L461 599 C515 601 529 582 540 493 L597 493 L626 667 L95 667 L82 605 L92 605 C125 605 145 592 145 569 C145 561 144 547 142 539 L54 127 C47 83 25 64 -21 63 L-31 63 L-44 0 L518 0 L566 222 L510 222 Z M436 897 C381 897 331 848 331 795 C331 757 359 729 398 729 C453 729 503 778 503 831 C503 869 475 897 436 897 L436 897 Z " />
<glyph glyph-name="edotaccent" unicode="&#x117;" horiz-adv-x="482" d="M343 107 C306 72 271 54 239 54 C194 54 167 85 167 135 C167 151 169 164 174 191 L421 191 C428 224 431 244 431 267 C431 361 367 419 265 419 C119 419 0 299 0 152 C0 50 69 -16 178 -16 C250 -16 332 20 382 73 L343 107 Z M186 248 C195 288 198 301 203 313 C215 341 232 356 254 356 C276 356 289 339 289 310 C289 296 288 288 282 248 L186 248 Z M323 642 C273 642 227 597 227 549 C227 514 253 488 288 488 C339 488 385 533 385 581 C385 616 359 642 323 642 L323 642 Z " />
<glyph glyph-name="Eogonek" unicode="&#x118;" horiz-adv-x="614" d="M518 0 L566 222 L510 222 C457 105 411 66 329 68 L321 68 C269 68 245 79 245 104 C245 112 245 112 253 147 L288 314 L340 314 C371 314 386 300 386 273 C386 266 385 255 382 242 L381 235 L435 235 L483 460 L429 460 L427 454 C412 398 396 383 353 382 L302 382 L349 599 L461 599 C515 601 529 582 540 493 L597 493 L626 667 L95 667 L82 605 L92 605 C125 605 145 592 145 569 C145 561 144 547 142 539 L54 127 C47 83 25 64 -21 63 L-31 63 L-44 0 L390 0 C318 -37 275 -92 275 -146 C275 -193 312 -225 367 -225 C404 -225 434 -214 479 -185 L469 -150 C455 -157 448 -159 437 -159 C412 -159 396 -142 396 -116 C396 -81 416 -40 451 0 L518 0 Z " />
<glyph glyph-name="eogonek" unicode="&#x119;" horiz-adv-x="482" d="M343 107 C306 72 271 54 239 54 C194 54 167 85 167 135 C167 151 169 164 174 191 L421 191 C428 224 431 244 431 267 C431 361 367 419 265 419 C119 419 0 299 0 152 C0 49 69 -16 179 -16 L195 -16 C151 -48 125 -91 125 -130 C125 -174 159 -204 208 -204 C242 -204 270 -193 310 -167 L302 -136 C287 -142 279 -144 269 -144 C248 -144 235 -129 235 -103 C235 -69 253 -31 286 7 C323 24 365 53 382 73 L343 107 Z M186 248 C195 288 198 301 203 313 C215 341 232 356 254 356 C276 356 289 339 289 310 C289 296 288 288 282 248 L186 248 Z " />
<glyph glyph-name="Ecaron" unicode="&#x11a;" horiz-adv-x="614" d="M510 222 C457 105 411 66 329 68 L321 68 C269 68 245 79 245 104 C245 112 245 112 253 147 L288 314 L340 314 C371 314 386 300 386 273 C386 266 385 255 382 242 L381 235 L435 235 L483 460 L429 460 L427 454 C412 398 396 383 353 382 L302 382 L349 599 L461 599 C515 601 529 582 540 493 L597 493 L626 667 L95 667 L82 605 L92 605 C125 605 145 592 145 569 C145 561 144 547 142 539 L54 127 C47 83 25 64 -21 63 L-31 63 L-44 0 L518 0 L566 222 L510 222 Z M510 732 L643 898 L600 898 L416 802 L274 898 L231 898 L290 732 L510 732 Z " />
<glyph glyph-name="ecaron" unicode="&#x11b;" horiz-adv-x="482" d="M343 107 C306 72 271 54 239 54 C194 54 167 85 167 135 C167 151 169 164 174 191 L421 191 C428 224 431 244 431 267 C431 361 367 419 265 419 C119 419 0 299 0 152 C0 50 69 -16 178 -16 C250 -16 332 20 382 73 L343 107 Z M186 248 C195 288 198 301 203 313 C215 341 232 356 254 356 C276 356 289 339 289 310 C289 296 288 288 282 248 L186 248 Z M200 653 L155 653 L209 491 L362 491 L478 653 L429 653 L299 573 L200 653 Z " />
<glyph glyph-name="Gcircumflex" unicode="&#x11c;" horiz-adv-x="713" d="M408 314 L395 252 L400 251 C434 245 448 232 448 207 L447 194 L441 170 C426 99 384 59 326 59 C261 59 233 90 233 161 C233 216 260 349 290 444 C322 544 380 598 454 598 C530 598 567 550 579 441 L640 441 L683 676 L623 676 C615 649 605 630 589 608 C544 656 490 679 422 679 C307 679 194 615 114 504 C57 424 26 335 26 248 C26 90 125 -14 275 -14 C308 -14 343 -10 378 -3 C492 20 535 26 577 26 C580 26 583 26 589 25 L596 25 L629 182 C638 225 645 235 674 250 L681 252 L694 314 L408 314 Z M403 898 L274 732 L317 732 L500 828 L643 732 L686 732 L623 898 L403 898 Z " />
<glyph glyph-name="gcircumflex" unicode="&#x11d;" horiz-adv-x="499" d="M246 -71 C280 -71 294 -80 294 -101 C294 -154 227 -191 128 -191 C75 -191 34 -175 34 -154 L33 -139 C33 -131 33 -125 32 -121 C31 -116 31 -112 29 -107 C12 -98 1 -94 -12 -94 C-45 -94 -75 -129 -75 -167 C-75 -223 -18 -251 94 -251 C184 -251 243 -239 292 -212 C364 -172 407 -102 407 -25 C407 44 365 73 264 73 C253 73 234 73 218 72 L144 71 C124 71 114 77 114 88 C114 116 143 131 198 132 C272 133 326 150 366 183 C404 215 427 263 427 309 C427 322 426 329 421 342 C429 349 432 350 437 350 C445 350 449 348 456 340 C465 331 471 328 479 328 C503 328 521 353 521 386 C521 408 509 420 486 420 C464 420 448 412 399 378 C368 406 331 418 269 418 C188 418 120 399 81 366 C45 337 24 294 24 250 C24 196 49 164 105 147 C64 135 52 130 31 113 C1 88 -15 52 -15 11 C-15 -47 34 -72 144 -72 C160 -72 169 -72 237 -71 L246 -71 Z M244 358 C255 358 262 345 262 325 C262 300 249 246 235 216 C230 205 221 197 212 197 C200 197 194 208 194 228 C194 261 205 308 218 336 C224 349 235 358 244 358 L244 358 Z M398 481 L447 481 L401 644 L247 644 L123 481 L169 481 L307 561 L398 481 Z " />
<glyph glyph-name="Gbreve" unicode="&#x11e;" horiz-adv-x="713" d="M408 314 L395 252 L400 251 C434 245 448 232 448 207 L447 194 L441 170 C426 99 384 59 326 59 C261 59 233 90 233 161 C233 216 260 349 290 444 C322 544 380 598 454 598 C530 598 567 550 579 441 L640 441 L683 676 L623 676 C615 649 605 630 589 608 C544 656 490 679 422 679 C307 679 194 615 114 504 C57 424 26 335 26 248 C26 90 125 -14 275 -14 C308 -14 343 -10 378 -3 C492 20 535 26 577 26 C580 26 583 26 589 25 L596 25 L629 182 C638 225 645 235 674 250 L681 252 L694 314 L408 314 Z M281 881 C286 842 296 814 313 790 C344 747 399 720 455 720 C544 720 632 782 686 881 L618 881 C590 840 539 816 479 816 C401 816 367 834 351 881 L281 881 Z " />
<glyph glyph-name="gbreve" unicode="&#x11f;" horiz-adv-x="499" d="M246 -71 C280 -71 294 -80 294 -101 C294 -154 227 -191 128 -191 C75 -191 34 -175 34 -154 L33 -139 C33 -131 33 -125 32 -121 C31 -116 31 -112 29 -107 C12 -98 1 -94 -12 -94 C-45 -94 -75 -129 -75 -167 C-75 -223 -18 -251 94 -251 C184 -251 243 -239 292 -212 C364 -172 407 -102 407 -25 C407 44 365 73 264 73 C253 73 234 73 218 72 L144 71 C124 71 114 77 114 88 C114 116 143 131 198 132 C272 133 326 150 366 183 C404 215 427 263 427 309 C427 322 426 329 421 342 C429 349 432 350 437 350 C445 350 449 348 456 340 C465 331 471 328 479 328 C503 328 521 353 521 386 C521 408 509 420 486 420 C464 420 448 412 399 378 C368 406 331 418 269 418 C188 418 120 399 81 366 C45 337 24 294 24 250 C24 196 49 164 105 147 C64 135 52 130 31 113 C1 88 -15 52 -15 11 C-15 -47 34 -72 144 -72 C160 -72 169 -72 237 -71 L246 -71 Z M244 358 C255 358 262 345 262 325 C262 300 249 246 235 216 C230 205 221 197 212 197 C200 197 194 208 194 228 C194 261 205 308 218 336 C224 349 235 358 244 358 L244 358 Z M166 650 C161 635 160 624 160 611 C160 531 212 474 285 474 C372 474 456 551 477 650 L440 650 C411 594 366 566 307 566 C247 566 210 596 204 650 L166 650 Z " />
<glyph glyph-name="Gdotaccent" unicode="&#x120;" horiz-adv-x="713" d="M408 314 L395 252 L400 251 C434 245 448 232 448 207 L447 194 L441 170 C426 99 384 59 326 59 C261 59 233 90 233 161 C233 216 260 349 290 444 C322 544 380 598 454 598 C530 598 567 550 579 441 L640 441 L683 676 L623 676 C615 649 605 630 589 608 C544 656 490 679 422 679 C307 679 194 615 114 504 C57 424 26 335 26 248 C26 90 125 -14 275 -14 C308 -14 343 -10 378 -3 C492 20 535 26 577 26 C580 26 583 26 589 25 L596 25 L629 182 C638 225 645 235 674 250 L681 252 L694 314 L408 314 Z M486 897 C431 897 381 848 381 795 C381 757 409 729 448 729 C503 729 553 778 553 831 C553 869 525 897 486 897 L486 897 Z " />
<glyph glyph-name="gdotaccent" unicode="&#x121;" horiz-adv-x="499" d="M246 -71 C280 -71 294 -80 294 -101 C294 -154 227 -191 128 -191 C75 -191 34 -175 34 -154 L33 -139 C33 -131 33 -125 32 -121 C31 -116 31 -112 29 -107 C12 -98 1 -94 -12 -94 C-45 -94 -75 -129 -75 -167 C-75 -223 -18 -251 94 -251 C184 -251 243 -239 292 -212 C364 -172 407 -102 407 -25 C407 44 365 73 264 73 C253 73 234 73 218 72 L144 71 C124 71 114 77 114 88 C114 116 143 131 198 132 C272 133 326 150 366 183 C404 215 427 263 427 309 C427 322 426 329 421 342 C429 349 432 350 437 350 C445 350 449 348 456 340 C465 331 471 328 479 328 C503 328 521 353 521 386 C521 408 509 420 486 420 C464 420 448 412 399 378 C368 406 331 418 269 418 C188 418 120 399 81 366 C45 337 24 294 24 250 C24 196 49 164 105 147 C64 135 52 130 31 113 C1 88 -15 52 -15 11 C-15 -47 34 -72 144 -72 C160 -72 169 -72 237 -71 L246 -71 Z M244 358 C255 358 262 345 262 325 C262 300 249 246 235 216 C230 205 221 197 212 197 C200 197 194 208 194 228 C194 261 205 308 218 336 C224 349 235 358 244 358 L244 358 Z M316 642 C266 642 220 597 220 549 C220 514 246 488 281 488 C331 488 377 533 377 581 C377 616 351 642 316 642 L316 642 Z " />
<glyph glyph-name="Gcommaaccent" unicode="&#x122;" horiz-adv-x="713" d="M408 314 L395 252 L400 251 C434 245 448 232 448 207 L447 194 L441 170 C426 99 384 59 326 59 C261 59 233 90 233 161 C233 216 260 349 290 444 C322 544 380 598 454 598 C530 598 567 550 579 441 L640 441 L683 676 L623 676 C615 649 605 630 589 608 C544 656 490 679 422 679 C307 679 194 615 114 504 C57 424 26 335 26 248 C26 90 125 -14 275 -14 C308 -14 343 -10 378 -3 C492 20 535 26 577 26 C580 26 583 26 589 25 L596 25 L629 182 C638 225 645 235 674 250 L681 252 L694 314 L408 314 Z M154 -344 C265 -345 350 -257 350 -143 C350 -90 323 -59 276 -59 C223 -59 176 -107 176 -162 C176 -193 197 -217 225 -217 C231 -217 238 -216 246 -214 C250 -213 253 -212 254 -212 L261 -212 L263 -211 C268 -211 273 -217 273 -224 C273 -257 222 -288 165 -289 L154 -344 Z " />
<glyph glyph-name="gcommaaccent" unicode="&#x123;" horiz-adv-x="499" d="M246 -71 C280 -71 294 -80 294 -101 C294 -154 227 -191 128 -191 C75 -191 34 -175 34 -154 L33 -139 C33 -131 33 -125 32 -121 C31 -116 31 -112 29 -107 C12 -98 1 -94 -12 -94 C-45 -94 -75 -129 -75 -167 C-75 -223 -18 -251 94 -251 C184 -251 243 -239 292 -212 C364 -172 407 -102 407 -25 C407 44 365 73 264 73 C253 73 234 73 218 72 L144 71 C124 71 114 77 114 88 C114 116 143 131 198 132 C272 133 326 150 366 183 C404 215 427 263 427 309 C427 322 426 329 421 342 C429 349 432 350 437 350 C445 350 449 348 456 340 C465 331 471 328 479 328 C503 328 521 353 521 386 C521 408 509 420 486 420 C464 420 448 412 399 378 C368 406 331 418 269 418 C188 418 120 399 81 366 C45 337 24 294 24 250 C24 196 49 164 105 147 C64 135 52 130 31 113 C1 88 -15 52 -15 11 C-15 -47 34 -72 144 -72 C160 -72 169 -72 237 -71 L246 -71 Z M244 358 C255 358 262 345 262 325 C262 300 249 246 235 216 C230 205 221 197 212 197 C200 197 194 208 194 228 C194 261 205 308 218 336 C224 349 235 358 244 358 L244 358 Z M407 704 L399 704 C374 704 348 697 321 685 C257 656 218 597 218 528 C218 482 244 456 290 456 C339 456 381 493 381 538 C381 564 361 585 334 585 C329 585 321 584 314 583 C309 582 304 581 300 581 C293 581 289 586 289 593 C289 625 342 658 398 659 L407 704 Z " />
<glyph glyph-name="Hcircumflex" unicode="&#x124;" horiz-adv-x="778" d="M490 315 L449 126 C442 82 421 64 375 62 L362 0 L683 0 L697 62 L692 62 C660 62 639 76 639 96 C639 102 641 115 643 126 L731 538 C740 584 760 602 806 604 L812 604 L825 667 L503 667 L490 604 C523 603 540 590 540 566 C540 558 539 548 537 538 L504 384 L294 384 L327 538 C336 584 356 602 402 604 L405 604 L418 667 L95 667 L81 604 L86 604 C116 604 136 589 136 566 C136 557 135 548 133 538 L46 126 C39 83 17 65 -30 62 L-34 62 L-47 0 L276 0 L290 62 L288 62 C258 62 235 76 235 95 C235 99 238 118 239 126 L280 315 L490 315 Z M398 898 L268 732 L312 732 L494 828 L638 732 L680 732 L617 898 L398 898 Z " />
<glyph glyph-name="Hbar" unicode="&#x126;" horiz-adv-x="778" d="M113 443 L46 126 C39 83 17 65 -30 62 L-34 62 L-47 0 L276 0 L290 62 L288 62 C258 62 235 76 235 95 C235 99 238 118 239 126 L280 315 L490 315 L449 126 C442 82 421 64 375 62 L362 0 L683 0 L697 62 L692 62 C660 62 639 76 639 96 C639 102 641 115 643 126 L711 443 L763 443 L777 512 L725 512 L731 538 C740 584 760 602 806 604 L812 604 L825 667 L503 667 L490 604 C524 603 540 590 540 565 C540 558 539 547 537 538 L531 512 L321 512 L327 538 C336 584 356 602 402 604 L405 604 L418 667 L95 667 L81 604 L86 604 C116 604 136 589 136 566 C136 557 135 548 133 538 L128 512 L77 512 L62 443 L113 443 Z M307 443 L517 443 L504 384 L294 384 L307 443 Z " />
<glyph glyph-name="hbar" unicode="&#x127;" horiz-adv-x="563" d="M93 471 L17 112 C7 71 -4 61 -42 60 L-55 0 L207 0 L220 60 L217 60 C204 61 195 74 195 90 C195 95 196 104 198 112 L231 265 C267 310 282 322 299 322 C312 322 321 310 320 294 C320 289 319 283 317 276 L283 112 C276 82 265 67 243 60 L240 60 L227 0 L489 0 L501 60 L499 60 C475 60 464 69 464 90 C464 97 465 105 466 112 L497 256 C505 294 506 301 506 322 C506 380 462 419 397 419 C347 419 293 394 249 350 L274 471 L422 471 L435 534 L288 534 L318 679 L314 679 C267 670 262 669 233 664 C208 660 183 656 159 652 L132 647 C112 643 103 641 79 636 L67 576 L68 576 C95 576 107 568 107 550 C107 545 107 541 106 534 L58 534 L45 471 L93 471 Z " />
<glyph glyph-name="Imacron" unicode="&#x12a;" horiz-adv-x="376" d="M81 604 L86 604 C119 604 136 592 136 567 C136 556 135 548 133 539 L46 127 C36 80 20 66 -30 63 L-34 63 L-47 0 L281 0 L294 63 L288 63 C256 63 236 75 236 95 C236 103 238 117 240 127 L327 539 C337 586 356 602 402 604 L409 604 L423 667 L95 667 L81 604 Z M123 826 L108 757 L447 757 L462 826 L123 826 Z " />
<glyph glyph-name="imacron" unicode="&#x12b;" horiz-adv-x="311" d="M273 419 L269 419 C257 417 247 415 244 414 L176 403 L119 393 C89 388 70 385 60 384 C44 381 37 380 25 379 L12 319 L22 319 C54 319 71 310 71 292 C71 285 70 274 68 265 L35 112 C25 71 13 61 -34 60 L-43 60 L-56 0 L234 0 L246 60 L244 60 C217 60 205 69 205 90 C205 97 206 105 207 112 L273 419 Z M50 530 L340 530 L354 593 L63 593 L50 530 Z " />
<glyph glyph-name="ibreve" unicode="&#x12d;" horiz-adv-x="311" d="M273 419 L269 419 C257 417 247 415 244 414 L176 403 L119 393 C89 388 70 385 60 384 C44 381 37 380 25 379 L12 319 L22 319 C54 319 71 310 71 292 C71 285 70 274 68 265 L35 112 C25 71 13 61 -34 60 L-43 60 L-56 0 L234 0 L246 60 L244 60 C217 60 205 69 205 90 C205 97 206 105 207 112 L273 419 Z M78 650 C74 634 73 624 73 611 C73 531 125 474 197 474 C285 474 368 551 390 650 L352 650 C323 594 279 566 220 566 C159 566 122 597 117 650 L78 650 Z " />
<glyph glyph-name="Iogonek" unicode="&#x12e;" horiz-adv-x="376" d="M281 0 L294 63 L288 63 C256 63 236 75 236 95 C236 103 238 117 240 127 L327 539 C337 586 356 602 402 604 L409 604 L423 667 L95 667 L81 604 L86 604 C119 604 136 592 136 567 C136 556 135 548 133 539 L46 127 C36 80 20 66 -30 63 L-34 63 L-47 0 L155 0 C83 -38 40 -92 40 -146 C40 -193 77 -225 132 -225 C169 -225 199 -214 245 -185 L234 -150 C220 -157 213 -159 202 -159 C177 -159 161 -142 161 -115 C161 -81 180 -41 216 0 L281 0 Z " />
<glyph glyph-name="iogonek" unicode="&#x12f;" horiz-adv-x="311" d="M234 0 L246 60 L244 60 C217 60 205 69 205 90 C205 97 206 105 207 112 L273 419 L269 419 C257 417 247 415 244 414 L176 403 L119 393 C89 388 70 385 60 384 C44 381 37 380 25 379 L12 319 L22 319 C54 319 71 310 71 292 C71 285 70 274 68 265 L35 112 C25 71 13 61 -34 60 L-43 60 L-56 0 L111 0 C54 -33 18 -83 18 -130 C18 -174 51 -204 101 -204 C134 -204 163 -194 202 -167 L194 -136 C179 -142 172 -144 162 -144 C141 -144 128 -129 128 -103 C128 -72 146 -30 172 0 L234 0 Z M242 680 C179 680 121 623 121 561 C121 516 154 483 198 483 C262 483 320 540 320 602 C320 647 287 680 242 680 L242 680 Z " />
<glyph glyph-name="Idotaccent" unicode="&#x130;" horiz-adv-x="376" d="M81 604 L86 604 C119 604 136 592 136 567 C136 556 135 548 133 539 L46 127 C36 80 20 66 -30 63 L-34 63 L-47 0 L281 0 L294 63 L288 63 C256 63 236 75 236 95 C236 103 238 117 240 127 L327 539 C337 586 356 602 402 604 L409 604 L423 667 L95 667 L81 604 Z M309 897 C254 897 204 848 204 795 C204 757 232 729 271 729 C326 729 376 778 376 831 C376 869 348 897 309 897 L309 897 Z " />
<glyph glyph-name="dotlessi" unicode="&#x131;" horiz-adv-x="311" d="M273 419 L269 419 C257 417 247 415 244 414 L176 403 L119 393 C89 388 70 385 60 384 C44 381 37 380 25 379 L12 319 L22 319 C54 319 71 310 71 292 C71 285 70 274 68 265 L35 112 C25 71 13 61 -34 60 L-43 60 L-56 0 L234 0 L246 60 L244 60 C217 60 205 69 205 90 C205 97 206 105 207 112 L273 419 Z " />
<glyph glyph-name="Kcommaaccent" unicode="&#x136;" horiz-adv-x="730" d="M291 349 L332 539 C342 586 360 602 407 604 L415 604 L428 667 L95 667 L81 604 L91 604 C122 604 141 591 141 569 C141 562 139 545 138 539 L50 127 C41 80 24 66 -25 63 L-32 63 L-45 0 L279 0 L293 63 C259 63 240 75 240 95 C240 102 242 116 244 127 L272 256 L344 324 L403 140 L403 134 C403 132 405 128 407 122 C410 115 412 107 412 100 C412 74 391 63 347 63 L343 63 L330 0 L683 0 L696 63 L692 63 C640 59 603 96 585 173 L494 450 L544 492 C635 570 692 602 748 605 L755 604 L768 667 L493 667 L479 604 L487 605 C512 605 525 598 525 584 C525 565 510 544 474 511 L291 349 Z M152 -344 C264 -345 349 -257 349 -143 C349 -90 322 -59 275 -59 C221 -59 175 -107 175 -161 C175 -193 196 -217 223 -217 C229 -217 236 -216 244 -214 C248 -213 251 -212 252 -212 L259 -212 L261 -211 C266 -211 271 -217 271 -224 C271 -257 220 -288 164 -289 L152 -344 Z " />
<glyph glyph-name="kcommaaccent" unicode="&#x137;" horiz-adv-x="555" d="M310 403 L298 343 L301 343 C327 344 336 341 336 331 C336 327 336 327 320 313 L223 226 L319 679 L315 679 C267 670 262 669 233 664 L159 652 L132 647 C112 643 103 641 79 636 L66 577 L74 577 C96 577 108 569 108 553 C108 545 106 530 104 518 L17 112 C8 71 -2 61 -36 60 L-43 60 L-56 0 L208 0 L220 60 L218 60 C205 61 196 72 196 87 C196 97 197 104 199 112 L207 152 L244 185 L267 102 L268 93 L269 84 C269 68 260 59 246 60 L244 60 L231 0 L478 0 L491 60 L489 60 C466 62 451 82 422 150 L371 280 L384 287 C473 338 480 340 529 344 L537 343 L550 403 L310 403 Z M73 -307 C179 -307 262 -230 262 -131 C262 -85 236 -59 190 -59 C141 -59 99 -97 99 -141 C99 -167 120 -188 146 -188 C151 -188 159 -187 166 -186 C171 -185 176 -184 180 -184 C187 -184 191 -189 191 -196 C191 -228 138 -261 82 -262 L73 -307 Z " />
<glyph glyph-name="Lacute" unicode="&#x139;" horiz-adv-x="594" d="M560 228 L505 228 C465 126 395 69 311 69 L307 69 C260 69 240 81 240 111 C240 120 240 120 247 150 L329 538 C339 586 358 602 404 604 L411 604 L425 667 L95 667 L81 604 L88 604 C120 604 138 591 138 569 C138 564 136 542 135 538 L48 127 C38 80 22 66 -28 63 L-34 63 L-47 0 L509 0 L560 228 Z M251 734 L295 734 L597 889 L600 903 L385 903 L251 734 Z " />
<glyph glyph-name="lacute" unicode="&#x13a;" horiz-adv-x="296" d="M319 679 L315 679 C267 670 262 669 233 664 L159 652 L132 647 C112 643 103 641 79 636 L67 576 L83 576 C99 576 109 569 109 557 C109 548 107 534 104 518 L18 112 C8 71 0 61 -26 60 L-40 60 L-53 0 L211 0 L224 60 L222 60 C205 60 195 68 195 83 C195 90 197 102 199 112 L319 679 Z M184 734 L229 734 L531 889 L534 903 L319 903 L184 734 Z " />
<glyph glyph-name="Lcommaaccent" unicode="&#x13b;" horiz-adv-x="594" d="M560 228 L505 228 C465 126 395 69 311 69 L307 69 C260 69 240 81 240 111 C240 120 240 120 247 150 L329 538 C339 586 358 602 404 604 L411 604 L425 667 L95 667 L81 604 L88 604 C120 604 138 591 138 569 C138 564 136 542 135 538 L48 127 C38 80 22 66 -28 63 L-34 63 L-47 0 L509 0 L560 228 Z M92 -344 C203 -345 288 -257 288 -143 C288 -90 261 -59 214 -59 C160 -59 114 -107 114 -161 C114 -193 135 -217 163 -217 C168 -217 176 -216 184 -214 C188 -213 191 -212 192 -212 L199 -212 L201 -211 C206 -211 211 -217 211 -224 C211 -257 160 -288 104 -289 L92 -344 Z " />
<glyph glyph-name="lcommaaccent" unicode="&#x13c;" horiz-adv-x="296" d="M319 679 L315 679 C267 670 262 669 233 664 L159 652 L132 647 C112 643 103 641 79 636 L67 576 L83 576 C99 576 109 569 109 557 C109 548 107 534 104 518 L18 112 C8 71 0 61 -26 60 L-40 60 L-53 0 L211 0 L224 60 L222 60 C205 60 195 68 195 83 C195 90 197 102 199 112 L319 679 Z M-52 -307 C54 -307 137 -230 137 -131 C137 -85 111 -59 65 -59 C16 -59 -26 -97 -26 -141 C-26 -167 -5 -188 21 -188 C26 -188 34 -187 41 -186 C46 -185 51 -184 55 -184 C62 -184 66 -189 66 -196 C66 -228 13 -261 -43 -262 L-52 -307 Z " />
<glyph glyph-name="Lcaron" unicode="&#x13d;" horiz-adv-x="594" d="M560 228 L505 228 C465 126 395 69 311 69 L307 69 C260 69 240 81 240 111 C240 120 240 120 247 150 L329 538 C339 586 358 602 404 604 L411 604 L425 667 L95 667 L81 604 L88 604 C120 604 138 591 138 569 C138 564 136 542 135 538 L48 127 C38 80 22 66 -28 63 L-34 63 L-47 0 L509 0 L560 228 Z M416 382 C528 382 613 469 613 584 C613 637 586 667 538 667 C485 667 439 620 439 565 C439 533 460 509 487 509 C493 509 501 510 508 512 C512 513 515 514 516 514 L523 514 L525 515 C530 515 535 509 535 502 C535 469 484 439 428 438 L416 382 Z " />
<glyph glyph-name="lcaron" unicode="&#x13e;" horiz-adv-x="457" d="M319 679 L315 679 C267 670 262 669 233 664 L159 652 L132 647 C112 643 103 641 79 636 L67 576 L83 576 C99 576 109 569 109 557 C109 548 107 534 104 518 L18 112 C8 71 0 61 -26 60 L-40 60 L-53 0 L211 0 L224 60 L222 60 C205 60 195 68 195 83 C195 90 197 102 199 112 L319 679 Z M315 431 L320 431 C421 431 504 511 504 607 C504 654 478 680 432 680 C383 680 341 642 341 598 C341 572 362 551 388 551 C393 551 401 552 408 553 C413 554 418 555 422 555 C429 555 433 550 433 543 C433 510 380 478 324 477 L315 431 Z " />
<glyph glyph-name="Ldot" unicode="&#x13f;" horiz-adv-x="594" d="M560 228 L505 228 C465 126 395 69 311 69 L307 69 C260 69 240 81 240 111 C240 120 240 120 247 150 L329 538 C339 586 358 602 404 604 L411 604 L425 667 L95 667 L81 604 L88 604 C120 604 138 591 138 569 C138 564 136 542 135 538 L48 127 C38 80 22 66 -28 63 L-34 63 L-47 0 L509 0 L560 228 Z M433 417 C383 417 337 372 337 324 C337 289 363 263 398 263 C449 263 495 308 495 356 C495 391 469 417 433 417 L433 417 Z " />
<glyph glyph-name="ldot" unicode="&#x140;" horiz-adv-x="431" d="M319 679 L315 679 C267 670 262 669 233 664 L159 652 L132 647 C112 643 103 641 79 636 L67 576 L83 576 C99 576 109 569 109 557 C109 548 107 534 104 518 L18 112 C8 71 0 61 -26 60 L-40 60 L-53 0 L211 0 L224 60 L222 60 C205 60 195 68 195 83 C195 90 197 102 199 112 L319 679 Z M378 411 C328 411 282 366 282 318 C282 283 308 257 343 257 C394 257 440 302 440 350 C440 385 414 411 378 411 L378 411 Z " />
<glyph glyph-name="Lslash" unicode="&#x141;" horiz-adv-x="594" d="M66 213 L48 127 C38 80 22 66 -27 63 L-34 63 L-47 0 L509 0 L560 228 L505 228 C464 125 396 69 311 69 L307 69 C260 69 240 81 240 111 C240 120 240 120 247 150 L290 352 L401 420 L416 493 L305 425 L329 538 C339 586 358 602 404 604 L411 604 L425 667 L95 667 L81 604 L89 604 C121 604 138 592 138 567 C138 556 137 548 135 538 L82 286 L9 240 L-7 167 L66 213 Z " />
<glyph glyph-name="lslash" unicode="&#x142;" horiz-adv-x="297" d="M270 449 L319 679 L314 679 C267 670 261 669 233 664 C208 660 183 656 159 652 L132 647 C112 643 103 641 79 636 L66 576 L82 576 C98 576 108 569 108 557 C108 545 107 533 103 518 L49 262 L-6 216 L-20 149 L35 195 L17 112 C8 71 -1 61 -28 60 L-39 60 L-52 0 L212 0 L224 60 L223 60 C205 60 195 68 195 84 C195 92 196 103 198 112 L256 382 L311 430 L325 494 L270 449 Z " />
<glyph glyph-name="Nacute" unicode="&#x143;" horiz-adv-x="710" d="M539 -9 L646 492 C659 563 685 592 743 604 L750 604 L763 667 L524 667 L511 604 L515 604 C553 605 579 578 579 536 C579 526 577 509 573 493 L530 287 L301 667 L95 667 L82 604 L86 604 C119 604 144 577 144 540 C144 530 143 522 141 513 L70 176 C60 131 56 119 46 104 C29 80 0 62 -22 62 L-24 62 L-28 62 L-41 0 L180 0 L193 62 L187 62 L180 62 C155 62 134 90 134 123 C134 133 136 147 142 176 L199 444 L466 -9 L539 -9 Z M394 734 L439 734 L741 889 L744 903 L529 903 L394 734 Z " />
<glyph glyph-name="nacute" unicode="&#x144;" horiz-adv-x="565" d="M254 405 C232 401 226 400 187 394 C130 384 83 377 22 366 L10 306 L12 306 C40 306 51 298 51 275 C51 269 51 262 50 260 L19 112 C9 71 -2 61 -40 60 L-53 0 L209 0 L222 60 L220 60 C206 61 197 74 197 90 C197 95 198 104 200 112 L233 265 C268 309 284 322 301 322 C314 322 323 310 322 294 C322 289 321 283 319 276 L285 112 C278 82 267 67 245 60 L242 60 L229 0 L491 0 L503 60 L501 60 C477 60 466 69 466 90 C466 97 467 105 468 112 L499 256 C507 293 508 301 508 322 C508 380 464 419 399 419 C350 419 298 396 254 354 C257 377 258 385 258 393 C258 396 258 400 257 405 L254 405 Z M271 484 L320 484 L554 626 L557 639 L359 639 L271 484 Z " />
<glyph glyph-name="Ncommaaccent" unicode="&#x145;" horiz-adv-x="710" d="M539 -9 L646 492 C659 563 685 592 743 604 L750 604 L763 667 L524 667 L511 604 L515 604 C553 605 579 578 579 536 C579 526 577 509 573 493 L530 287 L301 667 L95 667 L82 604 L86 604 C119 604 144 577 144 540 C144 530 143 522 141 513 L70 176 C60 131 56 119 46 104 C29 80 0 62 -22 62 L-24 62 L-28 62 L-41 0 L180 0 L193 62 L187 62 L180 62 C155 62 134 90 134 123 C134 133 136 147 142 176 L199 444 L466 -9 L539 -9 Z M147 -344 C259 -345 344 -257 344 -143 C344 -90 317 -59 269 -59 C216 -59 169 -107 169 -161 C169 -193 190 -217 218 -217 C223 -217 231 -216 239 -214 C243 -213 246 -212 247 -212 L254 -212 L256 -211 C261 -211 266 -217 266 -224 C266 -257 215 -288 159 -289 L147 -344 Z " />
<glyph glyph-name="ncommaaccent" unicode="&#x146;" horiz-adv-x="565" d="M254 405 C232 401 226 400 187 394 C130 384 83 377 22 366 L10 306 L12 306 C40 306 51 298 51 275 C51 269 51 262 50 260 L19 112 C9 71 -2 61 -40 60 L-53 0 L209 0 L222 60 L220 60 C206 61 197 74 197 90 C197 95 198 104 200 112 L233 265 C268 309 284 322 301 322 C314 322 323 310 322 294 C322 289 321 283 319 276 L285 112 C278 82 267 67 245 60 L242 60 L229 0 L491 0 L503 60 L501 60 C477 60 466 69 466 90 C466 97 467 105 468 112 L499 256 C507 293 508 301 508 322 C508 380 464 419 399 419 C350 419 298 396 254 354 C257 377 258 385 258 393 C258 396 258 400 257 405 L254 405 Z M83 -307 C190 -307 273 -230 273 -131 C273 -85 247 -59 201 -59 C152 -59 110 -97 110 -141 C110 -167 131 -188 157 -188 C162 -188 170 -187 177 -186 C182 -185 187 -184 191 -184 C198 -184 202 -189 202 -196 C202 -228 149 -261 93 -262 L83 -307 Z " />
<glyph glyph-name="Ncaron" unicode="&#x147;" horiz-adv-x="710" d="M539 -9 L646 492 C659 563 685 592 743 604 L750 604 L763 667 L524 667 L511 604 L515 604 C553 605 579 578 579 536 C579 526 577 509 573 493 L530 287 L301 667 L95 667 L82 604 L86 604 C119 604 144 577 144 540 C144 530 143 522 141 513 L70 176 C60 131 56 119 46 104 C29 80 0 62 -22 62 L-24 62 L-28 62 L-41 0 L180 0 L193 62 L187 62 L180 62 C155 62 134 90 134 123 C134 133 136 147 142 176 L199 444 L466 -9 L539 -9 Z M563 732 L697 898 L654 898 L470 802 L328 898 L285 898 L344 732 L563 732 Z " />
<glyph glyph-name="ncaron" unicode="&#x148;" horiz-adv-x="565" d="M254 405 C232 401 226 400 187 394 C130 384 83 377 22 366 L10 306 L12 306 C40 306 51 298 51 275 C51 269 51 262 50 260 L19 112 C9 71 -2 61 -40 60 L-53 0 L209 0 L222 60 L220 60 C206 61 197 74 197 90 C197 95 198 104 200 112 L233 265 C268 309 284 322 301 322 C314 322 323 310 322 294 C322 289 321 283 319 276 L285 112 C278 82 267 67 245 60 L242 60 L229 0 L491 0 L503 60 L501 60 C477 60 466 69 466 90 C466 97 467 105 468 112 L499 256 C507 293 508 301 508 322 C508 380 464 419 399 419 C350 419 298 396 254 354 C257 377 258 385 258 393 C258 396 258 400 257 405 L254 405 Z M240 653 L195 653 L249 491 L402 491 L518 653 L469 653 L340 573 L240 653 Z " />
<glyph glyph-name="Omacron" unicode="&#x14c;" horiz-adv-x="748" d="M456 679 C315 679 207 624 119 508 C59 430 27 339 27 250 C27 159 63 78 121 38 C168 4 235 -14 309 -14 C419 -14 515 29 596 113 C675 196 720 303 720 409 C720 574 618 679 456 679 L456 679 Z M432 605 C481 605 507 569 507 503 C507 435 480 290 449 195 C422 109 373 60 316 60 C270 60 242 100 242 168 C242 229 265 359 292 444 C326 555 369 605 432 605 L432 605 Z M309 826 L295 757 L634 757 L649 826 L309 826 Z " />
<glyph glyph-name="omacron" unicode="&#x14d;" horiz-adv-x="523" d="M281 419 C123 419 -1 299 -1 145 C-1 107 8 77 28 51 C60 10 121 -16 186 -16 C342 -16 468 106 468 258 C468 291 461 317 446 341 C416 388 351 419 281 419 L281 419 Z M267 356 C282 355 291 340 291 315 C291 289 265 163 250 111 C237 68 220 46 202 46 C185 46 177 61 177 92 C177 111 177 111 196 210 C215 296 216 300 228 325 C236 344 253 357 267 356 L267 356 Z M152 530 L455 530 L469 593 L165 593 L152 530 Z " />
<glyph glyph-name="Ohungarumlaut" unicode="&#x150;" horiz-adv-x="748" d="M456 679 C315 679 207 624 119 508 C59 430 27 339 27 250 C27 159 63 78 121 38 C168 4 235 -14 309 -14 C419 -14 515 29 596 113 C675 196 720 303 720 409 C720 574 618 679 456 679 L456 679 Z M432 605 C481 605 507 569 507 503 C507 435 480 290 449 195 C422 109 373 60 316 60 C270 60 242 100 242 168 C242 229 265 359 292 444 C326 555 369 605 432 605 L432 605 Z M334 734 L378 734 L633 889 L636 903 L468 903 L334 734 Z M538 734 L582 734 L837 889 L841 903 L672 903 L538 734 Z " />
<glyph glyph-name="ohungarumlaut" unicode="&#x151;" horiz-adv-x="523" d="M281 419 C123 419 -1 299 -1 145 C-1 107 8 77 28 51 C60 10 121 -16 186 -16 C342 -16 468 106 468 258 C468 291 461 317 446 341 C416 388 351 419 281 419 L281 419 Z M267 356 C282 355 291 340 291 315 C291 289 265 163 250 111 C237 68 220 46 202 46 C185 46 177 61 177 92 C177 111 177 111 196 210 C215 296 216 300 228 325 C236 344 253 357 267 356 L267 356 Z M186 484 L235 484 L422 626 L424 639 L273 639 L186 484 Z M354 484 L403 484 L590 626 L592 639 L441 639 L354 484 Z " />
<glyph glyph-name="OE" unicode="&#x152;" horiz-adv-x="913" d="M865 221 L809 221 C764 118 706 69 632 69 C590 69 574 76 574 95 C574 99 575 107 577 114 L619 312 L663 312 C690 312 701 300 701 269 C701 257 701 254 700 246 L698 236 L750 236 L797 459 L745 459 L743 449 C726 397 712 382 680 381 L634 381 L680 599 L751 599 C814 603 832 581 840 489 L897 489 L926 667 L534 667 L495 667 C350 667 307 660 243 623 C117 553 29 396 29 246 C29 158 60 87 115 46 C158 14 218 0 307 0 L338 0 C357 1 373 1 391 1 L816 0 L865 221 Z M394 165 C381 109 381 109 375 97 C367 81 346 71 324 71 C273 71 238 120 238 194 C238 278 265 399 300 477 C337 557 382 597 436 597 C461 597 474 585 474 559 C474 547 473 535 470 524 L394 165 Z " />
<glyph glyph-name="oe" unicode="&#x153;" horiz-adv-x="732" d="M672 191 C679 224 682 244 682 267 C682 359 619 419 521 419 C475 419 438 406 396 376 C363 404 318 419 270 419 C122 419 -1 294 -1 145 C-1 107 9 75 28 51 C61 10 120 -16 180 -16 C232 -16 276 -2 324 30 C350 0 388 -16 435 -16 C502 -16 585 21 633 73 L594 107 C558 72 522 54 490 54 C453 54 429 84 429 129 C429 147 431 161 437 191 L672 191 Z M449 248 C458 286 462 300 467 313 C478 341 495 356 516 356 C536 356 547 341 547 313 C547 298 545 285 539 248 L449 248 Z M270 355 C290 355 303 337 303 309 C303 288 283 185 269 134 C252 72 232 46 204 46 C183 46 171 64 171 97 C171 127 197 254 212 299 C225 336 244 355 270 355 L270 355 Z " />
<glyph glyph-name="Racute" unicode="&#x154;" horiz-adv-x="674" d="M-46 0 L286 0 L300 63 L294 63 C262 63 242 75 242 95 C242 102 244 115 246 127 L280 287 L289 287 C343 288 360 279 369 240 C372 231 374 222 377 212 C385 179 393 147 393 143 C416 43 419 33 433 0 L627 0 L641 63 L635 63 C603 65 584 96 557 189 C540 250 515 304 494 324 C579 354 641 438 641 525 C641 606 593 654 502 663 C471 666 408 667 262 667 L95 667 L81 604 L92 604 C124 604 143 591 143 569 C143 562 141 545 140 539 L52 127 C43 80 26 66 -24 63 L-33 63 L-46 0 Z M346 595 C351 596 355 596 357 596 C382 596 408 592 416 587 C431 578 441 556 441 528 C441 489 424 430 403 394 C387 367 363 356 318 356 C313 356 306 356 295 357 L346 595 Z M329 734 L374 734 L676 889 L679 903 L464 903 L329 734 Z " />
<glyph glyph-name="racute" unicode="&#x155;" horiz-adv-x="452" d="M11 313 L13 313 C41 313 52 304 52 282 C52 274 51 267 50 260 L19 112 C9 72 -3 61 -39 60 L-41 60 L-54 0 L234 0 L246 60 L239 60 C210 60 198 69 198 91 C198 98 199 106 200 112 L208 149 C216 187 222 210 232 241 C246 283 263 301 290 301 C301 301 312 295 320 282 C339 255 345 250 366 250 C410 250 448 298 448 353 C448 394 426 419 389 419 C335 419 286 386 237 318 C243 350 245 368 245 389 C245 399 244 406 242 419 C142 398 67 382 24 372 L11 313 Z M224 484 L273 484 L507 626 L509 639 L312 639 L224 484 Z " />
<glyph glyph-name="Rcommaaccent" unicode="&#x156;" horiz-adv-x="674" d="M-46 0 L286 0 L300 63 L294 63 C262 63 242 75 242 95 C242 102 244 115 246 127 L280 287 L289 287 C343 288 360 279 369 240 C372 231 374 222 377 212 C385 179 393 147 393 143 C416 43 419 33 433 0 L627 0 L641 63 L635 63 C603 65 584 96 557 189 C540 250 515 304 494 324 C579 354 641 438 641 525 C641 606 593 654 502 663 C471 666 408 667 262 667 L95 667 L81 604 L92 604 C124 604 143 591 143 569 C143 562 141 545 140 539 L52 127 C43 80 26 66 -24 63 L-33 63 L-46 0 Z M346 595 C351 596 355 596 357 596 C382 596 408 592 416 587 C431 578 441 556 441 528 C441 489 424 430 403 394 C387 367 363 356 318 356 C313 356 306 356 295 357 L346 595 Z M139 -344 C251 -345 336 -257 336 -143 C336 -90 309 -59 262 -59 C208 -59 162 -107 162 -161 C162 -193 183 -217 210 -217 C216 -217 223 -216 231 -214 C235 -213 238 -212 239 -212 L246 -212 L248 -211 C253 -211 258 -217 258 -224 C258 -257 207 -288 151 -289 L139 -344 Z " />
<glyph glyph-name="rcommaaccent" unicode="&#x157;" horiz-adv-x="452" d="M11 313 L13 313 C41 313 52 304 52 282 C52 274 51 267 50 260 L19 112 C9 72 -3 61 -39 60 L-41 60 L-54 0 L234 0 L246 60 L239 60 C210 60 198 69 198 91 C198 98 199 106 200 112 L208 149 C216 187 222 210 232 241 C246 283 263 301 290 301 C301 301 312 295 320 282 C339 255 345 250 366 250 C410 250 448 298 448 353 C448 394 426 419 389 419 C335 419 286 386 237 318 C243 350 245 368 245 389 C245 399 244 406 242 419 C142 398 67 382 24 372 L11 313 Z M-48 -307 C59 -307 142 -230 142 -131 C142 -85 116 -59 70 -59 C21 -59 -21 -97 -21 -141 C-21 -167 0 -188 26 -188 C31 -188 39 -187 46 -186 C51 -185 56 -184 60 -184 C67 -184 71 -189 71 -196 C71 -228 17 -261 -38 -262 L-48 -307 Z " />
<glyph glyph-name="Rcaron" unicode="&#x158;" horiz-adv-x="674" d="M-46 0 L286 0 L300 63 L294 63 C262 63 242 75 242 95 C242 102 244 115 246 127 L280 287 L289 287 C343 288 360 279 369 240 C372 231 374 222 377 212 C385 179 393 147 393 143 C416 43 419 33 433 0 L627 0 L641 63 L635 63 C603 65 584 96 557 189 C540 250 515 304 494 324 C579 354 641 438 641 525 C641 606 593 654 502 663 C471 666 408 667 262 667 L95 667 L81 604 L92 604 C124 604 143 591 143 569 C143 562 141 545 140 539 L52 127 C43 80 26 66 -24 63 L-33 63 L-46 0 Z M346 595 C351 596 355 596 357 596 C382 596 408 592 416 587 C431 578 441 556 441 528 C441 489 424 430 403 394 C387 367 363 356 318 356 C313 356 306 356 295 357 L346 595 Z M509 732 L643 898 L600 898 L416 802 L274 898 L230 898 L289 732 L509 732 Z " />
<glyph glyph-name="rcaron" unicode="&#x159;" horiz-adv-x="452" d="M11 313 L13 313 C41 313 52 304 52 282 C52 274 51 267 50 260 L19 112 C9 72 -3 61 -39 60 L-41 60 L-54 0 L234 0 L246 60 L239 60 C210 60 198 69 198 91 C198 98 199 106 200 112 L208 149 C216 187 222 210 232 241 C246 283 263 301 290 301 C301 301 312 295 320 282 C339 255 345 250 366 250 C410 250 448 298 448 353 C448 394 426 419 389 419 C335 419 286 386 237 318 C243 350 245 368 245 389 C245 399 244 406 242 419 C142 398 67 382 24 372 L11 313 Z M182 653 L137 653 L191 491 L345 491 L461 653 L412 653 L282 573 L182 653 Z " />
<glyph glyph-name="Sacute" unicode="&#x15a;" horiz-adv-x="514" d="M-17 13 L44 13 C52 36 58 49 68 64 C95 17 150 -14 210 -14 C343 -14 465 110 465 245 C465 278 457 309 441 335 C422 368 390 394 317 437 C256 472 242 489 242 525 C242 572 279 612 323 612 C373 612 409 557 410 479 L410 473 L410 465 L467 465 L510 667 L451 667 C443 647 435 633 430 625 C405 658 360 679 315 679 C190 679 74 556 74 423 C74 394 80 368 91 348 C112 311 120 304 197 249 C253 208 256 206 264 198 C277 184 283 169 283 150 C283 101 244 60 197 60 C155 60 124 87 106 140 C97 167 94 195 93 245 L32 245 L-17 13 Z M278 734 L322 734 L624 889 L627 903 L412 903 L278 734 Z " />
<glyph glyph-name="sacute" unicode="&#x15b;" horiz-adv-x="440" d="M-34 -12 L11 -12 C19 0 23 5 34 12 C100 -13 117 -17 160 -17 C237 -17 298 13 337 69 C358 100 370 137 370 172 C370 201 361 225 344 244 C327 263 288 277 215 293 C172 302 159 310 159 327 C159 350 186 367 224 367 C288 367 323 342 328 293 L373 293 L399 416 L357 416 C349 405 345 401 335 394 C293 411 254 420 219 420 C108 420 21 344 21 246 C21 211 35 184 64 164 C84 150 121 137 186 121 C213 114 224 105 224 91 C224 64 187 42 140 42 C85 42 49 73 45 124 L-5 124 L-34 -12 Z M204 484 L254 484 L487 626 L490 639 L292 639 L204 484 Z " />
<glyph glyph-name="Scircumflex" unicode="&#x15c;" horiz-adv-x="514" d="M-17 13 L44 13 C52 36 58 49 68 64 C95 17 150 -14 210 -14 C343 -14 465 110 465 245 C465 278 457 309 441 335 C422 368 390 394 317 437 C256 472 242 489 242 525 C242 572 279 612 323 612 C373 612 409 557 410 479 L410 473 L410 465 L467 465 L510 667 L451 667 C443 647 435 633 430 625 C405 658 360 679 315 679 C190 679 74 556 74 423 C74 394 80 368 91 348 C112 311 120 304 197 249 C253 208 256 206 264 198 C277 184 283 169 283 150 C283 101 244 60 197 60 C155 60 124 87 106 140 C97 167 94 195 93 245 L32 245 L-17 13 Z M284 898 L155 732 L198 732 L381 828 L524 732 L567 732 L504 898 L284 898 Z " />
<glyph glyph-name="scircumflex" unicode="&#x15d;" horiz-adv-x="440" d="M-34 -12 L11 -12 C19 0 23 5 34 12 C100 -13 117 -17 160 -17 C237 -17 298 13 337 69 C358 100 370 137 370 172 C370 201 361 225 344 244 C327 263 288 277 215 293 C172 302 159 310 159 327 C159 350 186 367 224 367 C288 367 323 342 328 293 L373 293 L399 416 L357 416 C349 405 345 401 335 394 C293 411 254 420 219 420 C108 420 21 344 21 246 C21 211 35 184 64 164 C84 150 121 137 186 121 C213 114 224 105 224 91 C224 64 187 42 140 42 C85 42 49 73 45 124 L-5 124 L-34 -12 Z M374 481 L423 481 L377 644 L224 644 L100 481 L145 481 L284 561 L374 481 Z " />
<glyph glyph-name="Scedilla" unicode="&#x15e;" horiz-adv-x="514" d="M410 473 L410 465 L467 465 L510 667 L451 667 C443 647 435 633 430 625 C405 658 360 679 315 679 C190 679 74 556 74 423 C74 394 80 368 91 348 C112 311 120 304 197 249 C253 208 256 206 264 198 C277 184 283 169 283 150 C283 101 244 60 197 60 C155 60 124 87 106 140 C97 167 94 195 93 245 L32 245 L-17 13 L44 13 C52 36 58 49 68 64 C86 30 122 4 171 -9 C153 -65 141 -95 129 -116 C145 -117 156 -128 156 -144 C156 -168 142 -180 114 -180 C94 -180 78 -177 54 -170 C46 -198 44 -202 34 -228 C53 -236 76 -240 104 -240 C211 -240 282 -190 282 -115 C282 -72 260 -49 214 -44 C222 -23 224 -18 226 -13 C354 -3 465 116 465 245 C465 278 457 309 441 335 C422 368 390 394 317 437 C256 472 242 489 242 525 C242 572 279 612 323 612 C373 612 409 557 410 479 L410 473 Z " />
<glyph glyph-name="scedilla" unicode="&#x15f;" horiz-adv-x="440" d="M373 293 L399 416 L357 416 C349 405 345 401 335 394 C293 411 254 420 219 420 C108 420 21 344 21 247 C21 211 35 184 64 164 C84 150 120 137 186 121 C213 114 224 106 224 91 C224 64 187 42 140 42 C85 42 49 73 45 124 L-5 124 L-34 -12 L11 -12 C18 -1 24 5 34 11 C39 10 42 8 69 -2 C85 -8 105 -12 127 -15 C116 -53 107 -77 94 -105 C106 -106 113 -115 113 -128 C113 -151 102 -162 81 -162 C65 -162 54 -160 36 -153 C29 -178 28 -182 19 -205 C33 -212 50 -216 73 -216 C152 -216 208 -168 208 -100 C208 -64 193 -45 160 -40 C165 -28 166 -23 169 -16 C223 -14 269 1 302 29 C344 65 370 120 370 172 C370 201 361 225 344 244 C327 263 287 278 215 293 C172 302 159 310 159 327 C159 350 186 367 224 367 C288 367 323 342 328 293 L373 293 Z " />
<glyph glyph-name="Scaron" unicode="&#x160;" horiz-adv-x="514" d="M-17 13 L44 13 C52 36 58 49 68 64 C95 17 150 -14 210 -14 C343 -14 465 110 465 245 C465 278 457 309 441 335 C422 368 390 394 317 437 C256 472 242 489 242 525 C242 572 279 612 323 612 C373 612 409 557 410 479 L410 473 L410 465 L467 465 L510 667 L451 667 C443 647 435 633 430 625 C405 658 360 679 315 679 C190 679 74 556 74 423 C74 394 80 368 91 348 C112 311 120 304 197 249 C253 208 256 206 264 198 C277 184 283 169 283 150 C283 101 244 60 197 60 C155 60 124 87 106 140 C97 167 94 195 93 245 L32 245 L-17 13 Z M468 732 L601 898 L558 898 L374 802 L232 898 L189 898 L248 732 L468 732 Z " />
<glyph glyph-name="scaron" unicode="&#x161;" horiz-adv-x="440" d="M-34 -12 L11 -12 C19 0 23 5 34 12 C100 -13 117 -17 160 -17 C237 -17 298 13 337 69 C358 100 370 137 370 172 C370 201 361 225 344 244 C327 263 288 277 215 293 C172 302 159 310 159 327 C159 350 186 367 224 367 C288 367 323 342 328 293 L373 293 L399 416 L357 416 C349 405 345 401 335 394 C293 411 254 420 219 420 C108 420 21 344 21 246 C21 211 35 184 64 164 C84 150 121 137 186 121 C213 114 224 105 224 91 C224 64 187 42 140 42 C85 42 49 73 45 124 L-5 124 L-34 -12 Z M180 653 L134 653 L189 491 L342 491 L458 653 L409 653 L279 573 L180 653 Z " />
<glyph glyph-name="Tcommaaccent" unicode="&#x162;" horiz-adv-x="629" d="M99 470 C132 571 161 598 235 598 L272 598 L172 127 C163 81 143 64 96 63 L86 63 L73 0 L412 0 L426 63 L415 63 C381 63 362 75 362 96 C362 106 363 116 365 127 L466 598 L502 598 C531 598 553 592 564 580 C579 564 588 527 588 483 L588 470 L645 470 L688 667 L83 667 L42 470 L99 470 Z M103 -344 C215 -345 300 -257 300 -143 C300 -89 273 -59 225 -59 C172 -59 126 -106 126 -161 C126 -193 147 -217 174 -217 C180 -217 187 -216 195 -214 C199 -213 202 -212 203 -212 L210 -212 L212 -211 C217 -211 222 -217 222 -224 C222 -257 172 -288 115 -289 L103 -344 Z " />
<glyph glyph-name="tcommaaccent" unicode="&#x163;" horiz-adv-x="338" d="M332 342 L345 403 L236 403 L265 538 L210 538 C181 458 110 402 35 402 C33 402 27 402 20 403 L7 342 L60 342 L10 105 C6 88 5 79 5 71 C5 18 45 -16 110 -16 C191 -16 255 20 291 85 L243 102 C225 73 211 62 191 62 C176 62 171 68 171 85 C171 98 171 99 180 141 L223 342 L332 342 Z M-39 -307 C68 -307 151 -230 151 -131 C151 -85 125 -59 79 -59 C30 -59 -12 -97 -12 -141 C-12 -167 8 -188 35 -188 C40 -188 48 -187 55 -186 C60 -185 65 -184 69 -184 C76 -184 80 -189 80 -196 C80 -228 26 -261 -29 -262 L-39 -307 Z " />
<glyph glyph-name="Tcaron" unicode="&#x164;" horiz-adv-x="629" d="M99 470 C132 571 161 598 235 598 L272 598 L172 127 C163 81 143 64 96 63 L86 63 L73 0 L412 0 L426 63 L415 63 C381 63 362 75 362 96 C362 106 363 116 365 127 L466 598 L502 598 C531 598 553 592 564 580 C579 564 588 527 588 483 L588 470 L645 470 L688 667 L83 667 L42 470 L99 470 Z M507 732 L640 898 L597 898 L414 802 L272 898 L228 898 L287 732 L507 732 Z " />
<glyph glyph-name="tcaron" unicode="&#x165;" horiz-adv-x="426" d="M333 342 L346 403 L237 403 L266 538 L210 538 C182 458 111 402 36 402 C34 402 28 402 21 403 L8 342 L61 342 L11 105 C8 91 6 79 6 71 C6 18 46 -16 111 -16 C192 -16 256 20 291 85 L244 102 C225 73 212 62 192 62 C177 62 172 68 172 85 C172 98 172 98 181 141 L224 342 L333 342 Z M292 465 C340 468 344 468 378 484 C442 513 481 572 481 641 C481 688 456 713 409 713 C360 713 318 675 318 631 C318 605 339 584 365 584 C371 584 378 585 385 586 C390 587 395 588 399 588 C406 588 410 583 410 576 C410 544 357 511 301 510 L292 465 Z " />
<glyph glyph-name="utilde" unicode="&#x169;" horiz-adv-x="552" d="M513 403 L296 403 L284 343 L286 343 C303 343 312 335 312 319 C312 312 311 301 308 291 L272 120 C229 81 229 81 218 81 C209 81 201 91 201 103 C201 111 204 130 206 144 L262 403 L21 403 L8 343 L10 343 C43 343 59 332 59 309 C59 305 58 297 57 291 L23 132 C16 101 15 92 15 79 C15 22 55 -16 115 -16 C164 -16 210 5 257 49 L256 43 C249 14 248 9 246 4 L242 -8 C241 -9 240 -12 239 -16 L244 -16 C288 -7 393 1 455 1 C457 1 464 1 475 0 L488 60 L486 60 C460 60 449 68 449 88 C449 96 450 104 452 112 L513 403 Z M207 485 C220 507 229 512 251 512 C265 512 281 509 306 502 C357 488 366 486 386 486 C445 486 492 540 510 632 L466 632 C457 606 441 594 414 594 C401 594 388 596 376 599 C310 619 310 619 291 619 C256 619 215 598 196 571 C182 550 175 531 164 485 L207 485 Z " />
<glyph glyph-name="Umacron" unicode="&#x16a;" horiz-adv-x="698" d="M501 667 L488 605 L493 605 C538 605 569 578 569 539 C569 533 568 523 565 509 L517 286 C503 218 492 185 477 158 C444 99 389 64 331 64 C271 64 231 109 231 176 C231 195 235 226 243 262 L302 539 C312 586 332 602 383 605 L393 605 L406 667 L86 667 L73 605 L77 605 C115 605 134 592 134 566 C134 557 133 548 131 539 L76 278 C63 216 62 211 62 181 C62 60 141 -14 270 -14 C376 -14 470 32 523 111 C557 161 571 198 590 285 L635 498 C645 547 651 559 673 578 C691 594 716 605 734 605 L736 605 L741 605 L754 667 L501 667 Z M297 826 L282 757 L621 757 L636 826 L297 826 Z " />
<glyph glyph-name="umacron" unicode="&#x16b;" horiz-adv-x="552" d="M513 403 L296 403 L284 343 L286 343 C303 343 312 335 312 319 C312 312 311 301 308 291 L272 120 C229 81 229 81 218 81 C209 81 201 91 201 103 C201 111 204 130 206 144 L262 403 L21 403 L8 343 L10 343 C43 343 59 332 59 309 C59 305 58 297 57 291 L23 132 C16 101 15 92 15 79 C15 22 55 -16 115 -16 C164 -16 210 5 257 49 L256 43 C249 14 248 9 246 4 L242 -8 C241 -9 240 -12 239 -16 L244 -16 C288 -7 393 1 455 1 C457 1 464 1 475 0 L488 60 L486 60 C460 60 449 68 449 88 C449 96 450 104 452 112 L513 403 Z M176 530 L480 530 L493 593 L190 593 L176 530 Z " />
<glyph glyph-name="ubreve" unicode="&#x16d;" horiz-adv-x="552" d="M513 403 L296 403 L284 343 L286 343 C303 343 312 335 312 319 C312 312 311 301 308 291 L272 120 C229 81 229 81 218 81 C209 81 201 91 201 103 C201 111 204 130 206 144 L262 403 L21 403 L8 343 L10 343 C43 343 59 332 59 309 C59 305 58 297 57 291 L23 132 C16 101 15 92 15 79 C15 22 55 -16 115 -16 C164 -16 210 5 257 49 L256 43 C249 14 248 9 246 4 L242 -8 C241 -9 240 -12 239 -16 L244 -16 C288 -7 393 1 455 1 C457 1 464 1 475 0 L488 60 L486 60 C460 60 449 68 449 88 C449 96 450 104 452 112 L513 403 Z M190 650 C186 634 185 624 185 611 C185 531 237 474 309 474 C396 474 480 551 502 650 L464 650 C435 594 391 566 332 566 C271 566 234 597 229 650 L190 650 Z " />
<glyph glyph-name="Uring" unicode="&#x16e;" horiz-adv-x="698" d="M501 667 L488 605 L493 605 C538 605 569 578 569 539 C569 533 568 523 565 509 L517 286 C503 218 492 185 477 158 C444 99 389 64 331 64 C271 64 231 109 231 176 C231 195 235 226 243 262 L302 539 C312 586 332 602 383 605 L393 605 L406 667 L86 667 L73 605 L77 605 C115 605 134 592 134 566 C134 557 133 548 131 539 L76 278 C63 216 62 211 62 181 C62 60 141 -14 270 -14 C376 -14 470 32 523 111 C557 161 571 198 590 285 L635 498 C645 547 651 559 673 578 C691 594 716 605 734 605 L736 605 L741 605 L754 667 L501 667 Z M499 935 C422 935 351 866 351 791 C351 736 391 696 446 696 C523 696 594 766 594 841 C594 895 554 935 499 935 L499 935 Z M486 877 C513 877 534 856 534 828 C534 790 497 754 458 754 C431 754 411 775 411 802 C411 841 447 877 486 877 L486 877 Z " />
<glyph glyph-name="uring" unicode="&#x16f;" horiz-adv-x="552" d="M513 403 L296 403 L284 343 L286 343 C303 343 312 335 312 319 C312 312 311 301 308 291 L272 120 C229 81 229 81 218 81 C209 81 201 91 201 103 C201 111 204 130 206 144 L262 403 L21 403 L8 343 L10 343 C43 343 59 332 59 309 C59 305 58 297 57 291 L23 132 C16 101 15 92 15 79 C15 22 55 -16 115 -16 C164 -16 210 5 257 49 L256 43 C249 14 248 9 246 4 L242 -8 C241 -9 240 -12 239 -16 L244 -16 C288 -7 393 1 455 1 C457 1 464 1 475 0 L488 60 L486 60 C460 60 449 68 449 88 C449 96 450 104 452 112 L513 403 Z M361 671 C292 671 229 610 229 543 C229 495 265 459 313 459 C382 459 446 521 446 587 C446 636 410 671 361 671 L361 671 Z M350 619 C374 619 393 601 393 576 C393 543 360 511 324 511 C300 511 282 529 282 553 C282 587 315 619 350 619 L350 619 Z " />
<glyph glyph-name="Uhungarumlaut" unicode="&#x170;" horiz-adv-x="698" d="M501 667 L488 605 L493 605 C538 605 569 578 569 539 C569 533 568 523 565 509 L517 286 C503 218 492 185 477 158 C444 99 389 64 331 64 C271 64 231 109 231 176 C231 195 235 226 243 262 L302 539 C312 586 332 602 383 605 L393 605 L406 667 L86 667 L73 605 L77 605 C115 605 134 592 134 566 C134 557 133 548 131 539 L76 278 C63 216 62 211 62 181 C62 60 141 -14 270 -14 C376 -14 470 32 523 111 C557 161 571 198 590 285 L635 498 C645 547 651 559 673 578 C691 594 716 605 734 605 L736 605 L741 605 L754 667 L501 667 Z M300 734 L345 734 L600 889 L603 903 L435 903 L300 734 Z M504 734 L549 734 L804 889 L807 903 L639 903 L504 734 Z " />
<glyph glyph-name="uhungarumlaut" unicode="&#x171;" horiz-adv-x="552" d="M513 403 L296 403 L284 343 L286 343 C303 343 312 335 312 319 C312 312 311 301 308 291 L272 120 C229 81 229 81 218 81 C209 81 201 91 201 103 C201 111 204 130 206 144 L262 403 L21 403 L8 343 L10 343 C43 343 59 332 59 309 C59 305 58 297 57 291 L23 132 C16 101 15 92 15 79 C15 22 55 -16 115 -16 C164 -16 210 5 257 49 L256 43 C249 14 248 9 246 4 L242 -8 C241 -9 240 -12 239 -16 L244 -16 C288 -7 393 1 455 1 C457 1 464 1 475 0 L488 60 L486 60 C460 60 449 68 449 88 C449 96 450 104 452 112 L513 403 Z M191 484 L241 484 L427 626 L430 639 L279 639 L191 484 Z M359 484 L409 484 L595 626 L598 639 L447 639 L359 484 Z " />
<glyph glyph-name="Uogonek" unicode="&#x172;" horiz-adv-x="698" d="M635 498 C645 547 651 559 673 578 C691 594 716 605 734 605 L736 605 L741 605 L754 667 L501 667 L488 605 L493 605 C538 605 569 578 569 539 C569 533 568 523 565 509 L517 286 C503 218 492 185 477 158 C444 99 389 64 331 64 C271 64 231 109 231 176 C231 195 235 226 243 262 L302 539 C312 586 332 602 383 605 L393 605 L406 667 L86 667 L73 605 L77 605 C115 605 134 592 134 566 C134 557 133 548 131 539 L76 278 C63 216 62 211 62 181 C62 61 141 -14 269 -14 C293 -14 313 -12 336 -8 C273 -44 235 -96 235 -146 C235 -193 272 -225 327 -225 C364 -225 394 -214 439 -185 L429 -150 C415 -157 408 -159 397 -159 C372 -159 356 -142 356 -116 C356 -68 386 -21 453 40 C522 87 568 168 590 285 L635 498 Z " />
<glyph glyph-name="uogonek" unicode="&#x173;" horiz-adv-x="552" d="M488 60 L486 60 C460 60 449 68 449 88 C449 96 450 104 452 112 L513 403 L296 403 L284 343 L286 343 C303 343 312 335 312 319 C312 312 311 301 308 291 L272 120 C229 81 229 81 218 81 C209 81 201 91 201 103 C201 111 204 130 206 144 L262 403 L21 403 L8 343 L10 343 C43 343 59 332 59 309 C59 305 58 297 57 291 L23 132 C16 101 15 92 15 79 C15 22 55 -16 115 -16 C164 -16 210 5 257 49 L256 43 C249 14 248 9 246 4 L242 -8 C241 -9 240 -12 239 -16 L244 -16 C274 -10 294 -8 324 -6 L336 -5 C284 -38 252 -86 252 -130 C252 -174 285 -204 335 -204 C368 -204 396 -194 436 -167 L428 -136 C413 -142 406 -144 396 -144 C375 -144 362 -129 362 -103 C362 -72 378 -34 405 -1 C408 -1 408 -1 453 1 C456 1 463 1 475 0 L488 60 Z " />
<glyph glyph-name="Wcircumflex" unicode="&#x174;" horiz-adv-x="850" d="M579 -13 L797 460 C848 571 875 605 910 605 L915 605 L920 605 L933 667 L734 667 L721 605 L725 605 C752 605 769 589 769 564 C769 553 763 531 754 512 L640 262 L581 667 L501 667 L296 262 L276 538 L276 546 C276 587 292 606 327 605 L331 605 L345 667 L59 667 L46 605 L50 605 L51 605 L55 605 C89 605 98 589 102 518 L136 -13 L220 -13 L437 409 L498 -13 L579 -13 Z M461 898 L332 732 L375 732 L558 828 L701 732 L744 732 L681 898 L461 898 Z " />
<glyph glyph-name="Ycircumflex" unicode="&#x176;" horiz-adv-x="601" d="M379 368 L316 529 C311 542 307 559 307 568 C307 592 325 605 357 605 L362 605 L376 667 L60 667 L47 605 L51 605 C90 600 103 586 122 524 L191 278 L159 127 C149 80 133 66 83 63 L74 63 L61 0 L399 0 L412 63 L403 63 C370 63 352 75 352 96 C352 104 353 116 356 127 L390 290 L530 483 C559 524 606 578 622 589 C636 598 654 605 664 605 L667 605 L670 605 L683 667 L474 667 L461 605 L466 605 C496 605 509 595 509 574 C509 560 500 539 486 518 L379 368 Z M322 898 L193 732 L236 732 L419 828 L562 732 L605 732 L542 898 L322 898 Z " />
<glyph glyph-name="ycircumflex" unicode="&#x177;" horiz-adv-x="486" d="M9 403 L-4 344 L2 343 C21 340 27 331 44 274 L144 -20 L138 -29 C102 -81 80 -94 6 -110 C-47 -123 -73 -150 -73 -193 C-73 -228 -49 -252 -14 -252 C17 -252 49 -237 76 -209 C93 -192 126 -146 165 -86 L357 215 C363 224 371 236 381 250 C391 264 407 286 410 290 C437 330 447 338 473 343 L482 344 L495 403 L329 403 L317 344 L321 344 L326 344 C339 344 350 334 350 323 C350 313 350 313 324 273 L250 155 L218 291 C211 314 211 314 211 320 C211 334 221 342 241 343 L248 344 L261 403 L9 403 Z M402 481 L451 481 L405 644 L252 644 L128 481 L173 481 L312 561 L402 481 Z " />
<glyph glyph-name="Ydieresis" unicode="&#x178;" horiz-adv-x="601" d="M379 368 L316 529 C311 542 307 559 307 568 C307 592 325 605 357 605 L362 605 L376 667 L60 667 L47 605 L51 605 C90 600 103 586 122 524 L191 278 L159 127 C149 80 133 66 83 63 L74 63 L61 0 L399 0 L412 63 L403 63 C370 63 352 75 352 96 C352 104 353 116 356 127 L390 290 L530 483 C559 524 606 578 622 589 C636 598 654 605 664 605 L667 605 L670 605 L683 667 L474 667 L461 605 L466 605 C496 605 509 595 509 574 C509 560 500 539 486 518 L379 368 Z M311 897 C257 897 207 848 207 795 C207 757 235 729 274 729 C328 729 378 778 378 831 C378 869 350 897 311 897 L311 897 Z M562 897 C507 897 457 848 457 795 C457 757 485 729 524 729 C579 729 629 778 629 831 C629 869 600 897 562 897 L562 897 Z " />
<glyph glyph-name="Zacute" unicode="&#x179;" horiz-adv-x="623" d="M-39 0 L514 0 L566 205 L508 205 C455 98 407 65 315 68 L189 68 L634 617 L644 667 L124 667 L79 483 L133 483 C180 581 211 599 337 599 L413 599 L-28 50 L-39 0 Z M359 734 L403 734 L705 889 L708 903 L493 903 L359 734 Z " />
<glyph glyph-name="zacute" unicode="&#x17a;" horiz-adv-x="458" d="M-44 0 L351 0 L393 140 L338 140 C298 77 280 60 254 61 L177 61 L431 349 L442 403 L65 403 L28 275 L84 275 C125 339 128 342 152 342 L223 342 L-34 48 L-44 0 Z M236 484 L285 484 L519 626 L521 639 L324 639 L236 484 Z " />
<glyph glyph-name="Zdotaccent" unicode="&#x17b;" horiz-adv-x="623" d="M-39 0 L514 0 L566 205 L508 205 C455 98 407 65 315 68 L189 68 L634 617 L644 667 L124 667 L79 483 L133 483 C180 581 211 599 337 599 L413 599 L-28 50 L-39 0 Z M446 897 C391 897 341 848 341 795 C341 757 369 729 408 729 C463 729 513 778 513 831 C513 869 485 897 446 897 L446 897 Z " />
<glyph glyph-name="zdotaccent" unicode="&#x17c;" horiz-adv-x="458" d="M-44 0 L351 0 L393 140 L338 140 C298 77 280 60 254 61 L177 61 L431 349 L442 403 L65 403 L28 275 L84 275 C125 339 128 342 152 342 L223 342 L-34 48 L-44 0 Z M318 642 C268 642 222 597 222 549 C222 514 248 488 283 488 C333 488 379 533 379 581 C379 616 353 642 318 642 L318 642 Z " />
<glyph glyph-name="Zcaron" unicode="&#x17d;" horiz-adv-x="623" d="M-39 0 L514 0 L566 205 L508 205 C455 98 407 65 315 68 L189 68 L634 617 L644 667 L124 667 L79 483 L133 483 C180 581 211 599 337 599 L413 599 L-28 50 L-39 0 Z M526 732 L659 898 L616 898 L432 802 L290 898 L247 898 L306 732 L526 732 Z " />
<glyph glyph-name="zcaron" unicode="&#x17e;" horiz-adv-x="458" d="M-44 0 L351 0 L393 140 L338 140 C298 77 280 60 254 61 L177 61 L431 349 L442 403 L65 403 L28 275 L84 275 C125 339 128 342 152 342 L223 342 L-34 48 L-44 0 Z M197 653 L151 653 L205 491 L359 491 L475 653 L426 653 L296 573 L197 653 Z " />
<glyph glyph-name="florin" unicode="&#x192;" horiz-adv-x="500" d="M376 447 C392 490 393 497 397 547 C401 591 406 612 418 632 C426 646 439 655 449 655 C453 655 456 652 456 647 C456 644 454 639 450 629 C444 613 439 597 439 590 C439 568 452 554 472 554 C507 554 538 590 538 630 C538 661 515 678 473 678 C412 678 369 646 319 563 C260 463 245 450 180 447 L154 380 L212 380 L208 370 C195 335 182 300 169 266 C163 248 148 212 128 162 C77 32 69 2 46 -147 C46 -171 35 -188 20 -188 C15 -188 12 -184 12 -178 L12 -176 L11 -158 C11 -158 11 -157 12 -155 C13 -148 14 -144 14 -139 C14 -122 -2 -109 -22 -109 C-52 -109 -83 -139 -83 -170 C-83 -198 -58 -218 -22 -218 C10 -218 45 -206 78 -185 C130 -150 163 -95 229 73 L351 380 L415 380 L441 447 L376 447 Z " />
<glyph glyph-name="uni01CD" unicode="&#x1cd;" horiz-adv-x="588" d="M529 0 L542 63 L538 63 C499 67 486 88 472 167 L396 679 L335 679 L54 182 C14 110 -29 66 -65 63 L-70 63 L-83 0 L120 0 L133 63 L127 63 C94 63 79 71 79 91 C79 103 84 116 98 141 L110 164 L285 164 L289 134 C291 118 292 108 292 100 C292 74 273 63 234 63 L229 63 L216 0 L529 0 Z M275 229 L146 229 L246 407 L275 229 Z M486 732 L620 898 L577 898 L393 802 L251 898 L207 898 L266 732 L486 732 Z " />
<glyph glyph-name="uni01CE" unicode="&#x1ce;" horiz-adv-x="529" d="M438 94 C432 79 423 71 413 71 C403 71 396 78 396 86 C396 90 397 96 398 102 L439 295 C443 314 445 325 445 335 C445 393 399 419 293 419 C207 419 152 408 103 381 C61 358 37 325 37 293 C37 266 55 249 84 249 C121 249 145 268 157 305 C169 342 185 355 221 355 C250 355 263 346 263 328 C263 320 262 313 261 306 L252 266 L246 264 C148 235 88 207 31 162 C-2 136 -22 98 -22 62 C-22 16 9 -9 69 -9 C122 -9 170 7 215 39 C220 27 224 22 230 17 C248 1 287 -10 325 -10 C407 -10 460 26 478 94 L438 94 Z M239 203 L217 99 C203 81 191 72 178 72 C164 72 154 86 154 104 C154 138 185 176 232 199 L239 203 Z M230 653 L185 653 L239 491 L393 491 L509 653 L460 653 L330 573 L230 653 Z " />
<glyph glyph-name="uni01D3" unicode="&#x1d3;" horiz-adv-x="698" d="M501 667 L488 605 L493 605 C538 605 569 578 569 539 C569 533 568 523 565 509 L517 286 C503 218 492 185 477 158 C444 99 389 64 331 64 C271 64 231 109 231 176 C231 195 235 226 243 262 L302 539 C312 586 332 602 383 605 L393 605 L406 667 L86 667 L73 605 L77 605 C115 605 134 592 134 566 C134 557 133 548 131 539 L76 278 C63 216 62 211 62 181 C62 60 141 -14 270 -14 C376 -14 470 32 523 111 C557 161 571 198 590 285 L635 498 C645 547 651 559 673 578 C691 594 716 605 734 605 L736 605 L741 605 L754 667 L501 667 Z M558 732 L692 898 L649 898 L465 802 L323 898 L280 898 L339 732 L558 732 Z " />
<glyph glyph-name="uni01D4" unicode="&#x1d4;" horiz-adv-x="552" d="M513 403 L296 403 L284 343 L286 343 C303 343 312 335 312 319 C312 312 311 301 308 291 L272 120 C229 81 229 81 218 81 C209 81 201 91 201 103 C201 111 204 130 206 144 L262 403 L21 403 L8 343 L10 343 C43 343 59 332 59 309 C59 305 58 297 57 291 L23 132 C16 101 15 92 15 79 C15 22 55 -16 115 -16 C164 -16 210 5 257 49 L256 43 C249 14 248 9 246 4 L242 -8 C241 -9 240 -12 239 -16 L244 -16 C288 -7 393 1 455 1 C457 1 464 1 475 0 L488 60 L486 60 C460 60 449 68 449 88 C449 96 450 104 452 112 L513 403 Z M238 653 L193 653 L247 491 L400 491 L516 653 L467 653 L337 573 L238 653 Z " />
<glyph glyph-name="Gcaron" unicode="&#x1e6;" horiz-adv-x="713" d="M408 314 L395 252 L400 251 C434 245 448 232 448 207 L447 194 L441 170 C426 99 384 59 326 59 C261 59 233 90 233 161 C233 216 260 349 290 444 C322 544 380 598 454 598 C530 598 567 550 579 441 L640 441 L683 676 L623 676 C615 649 605 630 589 608 C544 656 490 679 422 679 C307 679 194 615 114 504 C57 424 26 335 26 248 C26 90 125 -14 275 -14 C308 -14 343 -10 378 -3 C492 20 535 26 577 26 C580 26 583 26 589 25 L596 25 L629 182 C638 225 645 235 674 250 L681 252 L694 314 L408 314 Z M557 732 L691 898 L648 898 L464 802 L322 898 L279 898 L338 732 L557 732 Z " />
<glyph glyph-name="gcaron" unicode="&#x1e7;" horiz-adv-x="499" d="M246 -71 C280 -71 294 -80 294 -101 C294 -154 227 -191 128 -191 C75 -191 34 -175 34 -154 L33 -139 C33 -131 33 -125 32 -121 C31 -116 31 -112 29 -107 C12 -98 1 -94 -12 -94 C-45 -94 -75 -129 -75 -167 C-75 -223 -18 -251 94 -251 C184 -251 243 -239 292 -212 C364 -172 407 -102 407 -25 C407 44 365 73 264 73 C253 73 234 73 218 72 L144 71 C124 71 114 77 114 88 C114 116 143 131 198 132 C272 133 326 150 366 183 C404 215 427 263 427 309 C427 322 426 329 421 342 C429 349 432 350 437 350 C445 350 449 348 456 340 C465 331 471 328 479 328 C503 328 521 353 521 386 C521 408 509 420 486 420 C464 420 448 412 399 378 C368 406 331 418 269 418 C188 418 120 399 81 366 C45 337 24 294 24 250 C24 196 49 164 105 147 C64 135 52 130 31 113 C1 88 -15 52 -15 11 C-15 -47 34 -72 144 -72 C160 -72 169 -72 237 -71 L246 -71 Z M244 358 C255 358 262 345 262 325 C262 300 249 246 235 216 C230 205 221 197 212 197 C200 197 194 208 194 228 C194 261 205 308 218 336 C224 349 235 358 244 358 L244 358 Z M195 653 L149 653 L203 491 L357 491 L473 653 L424 653 L294 573 L195 653 Z " />
<glyph glyph-name="Scommaaccent" unicode="&#x218;" horiz-adv-x="514" d="M-17 13 L44 13 C52 36 58 49 68 64 C95 17 150 -14 210 -14 C343 -14 465 110 465 245 C465 278 457 309 441 335 C422 368 390 394 317 437 C256 472 242 489 242 525 C242 572 279 612 323 612 C373 612 409 557 410 479 L410 473 L410 465 L467 465 L510 667 L451 667 C443 647 435 633 430 625 C405 658 360 679 315 679 C190 679 74 556 74 423 C74 394 80 368 91 348 C112 311 120 304 197 249 C253 208 256 206 264 198 C277 184 283 169 283 150 C283 101 244 60 197 60 C155 60 124 87 106 140 C97 167 94 195 93 245 L32 245 L-17 13 Z M52 -344 C163 -345 248 -257 248 -143 C248 -90 220 -59 174 -59 C121 -59 74 -107 74 -161 C74 -193 95 -217 122 -217 C128 -217 136 -216 144 -214 C147 -213 151 -212 151 -212 L159 -212 C160 -211 160 -211 161 -211 C165 -211 171 -217 171 -223 L171 -224 L171 -227 C172 -233 156 -256 147 -263 C124 -279 96 -288 63 -289 L52 -344 Z " />
<glyph glyph-name="scommaaccent" unicode="&#x219;" horiz-adv-x="440" d="M-34 -12 L11 -12 C19 0 23 5 34 12 C100 -13 117 -17 160 -17 C237 -17 298 13 337 69 C358 100 370 137 370 172 C370 201 361 225 344 244 C327 263 288 277 215 293 C172 302 159 310 159 327 C159 350 186 367 224 367 C288 367 323 342 328 293 L373 293 L399 416 L357 416 C349 405 345 401 335 394 C293 411 254 420 219 420 C108 420 21 344 21 246 C21 211 35 184 64 164 C84 150 121 137 186 121 C213 114 224 105 224 91 C224 64 187 42 140 42 C85 42 49 73 45 124 L-5 124 L-34 -12 Z M10 -307 C117 -307 200 -230 200 -131 C200 -85 174 -59 128 -59 C79 -59 37 -97 37 -141 C37 -167 57 -188 84 -188 C89 -188 97 -187 104 -186 C109 -185 114 -184 118 -184 C125 -184 129 -189 129 -196 C129 -228 76 -261 20 -262 L10 -307 Z " />
<glyph glyph-name="uni021A" unicode="&#x21a;" horiz-adv-x="629" d="M99 470 C132 571 161 598 235 598 L272 598 L172 127 C163 81 143 64 96 63 L86 63 L73 0 L412 0 L426 63 L415 63 C381 63 362 75 362 96 C362 106 363 116 365 127 L466 598 L502 598 C531 598 553 592 564 580 C579 564 588 527 588 483 L588 470 L645 470 L688 667 L83 667 L42 470 L99 470 Z M103 -344 C215 -345 300 -257 300 -143 C300 -89 273 -59 225 -59 C172 -59 126 -106 126 -161 C126 -193 147 -217 174 -217 C180 -217 187 -216 195 -214 C199 -213 202 -212 203 -212 L210 -212 L212 -211 C217 -211 222 -217 222 -224 C222 -257 172 -288 115 -289 L103 -344 Z " />
<glyph glyph-name="uni021B" unicode="&#x21b;" horiz-adv-x="338" d="M332 342 L345 403 L236 403 L265 538 L210 538 C181 458 110 402 35 402 C33 402 27 402 20 403 L7 342 L60 342 L10 105 C6 88 5 79 5 71 C5 18 45 -16 110 -16 C191 -16 255 20 291 85 L243 102 C225 73 211 62 191 62 C176 62 171 68 171 85 C171 98 171 99 180 141 L223 342 L332 342 Z M-39 -307 C68 -307 151 -230 151 -131 C151 -85 125 -59 79 -59 C30 -59 -12 -97 -12 -141 C-12 -167 8 -188 35 -188 C40 -188 48 -187 55 -186 C60 -185 65 -184 69 -184 C76 -184 80 -189 80 -196 C80 -228 26 -261 -29 -262 L-39 -307 Z " />
<glyph glyph-name="afii57929" unicode="&#x2bc;" horiz-adv-x="321" d="M60 307 C194 307 307 434 307 583 C307 646 277 682 223 682 C160 682 107 623 107 554 C107 516 129 490 162 490 C167 490 172 491 178 493 C188 496 193 497 198 497 C204 497 209 491 209 484 C209 433 142 378 74 374 L60 307 Z " />
<glyph glyph-name="circumflex" unicode="&#x2c6;" horiz-adv-x="482" d="M385 481 L435 481 L388 644 L235 644 L111 481 L156 481 L295 561 L385 481 Z " />
<glyph glyph-name="caron" unicode="&#x2c7;" horiz-adv-x="482" d="M193 653 L148 653 L202 491 L356 491 L472 653 L422 653 L293 573 L193 653 Z " />
<glyph glyph-name="uni02C9" unicode="&#x2c9;" horiz-adv-x="370" d="M75 530 L378 530 L392 593 L88 593 L75 530 Z " />
<glyph glyph-name="breve" unicode="&#x2d8;" horiz-adv-x="481" d="M146 650 C142 634 141 624 141 611 C141 531 193 474 265 474 C353 474 436 551 458 650 L421 650 C391 594 347 566 288 566 C228 566 190 597 185 650 L146 650 Z " />
<glyph glyph-name="dotaccent" unicode="&#x2d9;" horiz-adv-x="466" d="M299 642 C249 642 203 597 203 549 C203 514 229 488 264 488 C315 488 361 533 361 581 C361 616 334 642 299 642 L299 642 Z " />
<glyph glyph-name="ring" unicode="&#x2da;" horiz-adv-x="412" d="M279 671 C210 671 147 610 147 543 C147 495 183 459 231 459 C300 459 364 521 364 587 C364 636 328 671 279 671 L279 671 Z M268 619 C292 619 311 601 311 576 C311 543 278 511 243 511 C218 511 200 529 200 553 C200 587 233 619 268 619 L268 619 Z " />
<glyph glyph-name="ogonek" unicode="&#x2db;" horiz-adv-x="500" d="M248 15 C167 -27 127 -75 127 -130 C127 -174 161 -204 210 -204 C244 -204 272 -194 311 -167 L304 -136 C288 -142 281 -144 271 -144 C250 -144 237 -128 237 -103 C237 -66 255 -29 295 15 L248 15 Z " />
<glyph glyph-name="tilde" unicode="&#x2dc;" horiz-adv-x="482" d="M154 485 C168 507 176 512 198 512 C213 512 228 509 253 502 C305 488 314 486 334 486 C393 486 440 541 458 632 L413 632 C405 606 389 594 363 594 C348 594 335 596 323 599 C257 619 257 619 238 619 C203 619 163 598 144 571 C130 550 122 531 112 485 L154 485 Z " />
<glyph glyph-name="hungarumlaut" unicode="&#x2dd;" horiz-adv-x="471" d="M117 484 L166 484 L353 626 L356 639 L205 639 L117 484 Z M285 484 L334 484 L521 626 L524 639 L373 639 L285 484 Z " />
<glyph glyph-name="Wdieresis" unicode="&#x1e84;" horiz-adv-x="850" d="M579 -13 L797 460 C848 571 875 605 910 605 L915 605 L920 605 L933 667 L734 667 L721 605 L725 605 C752 605 769 589 769 564 C769 553 763 531 754 512 L640 262 L581 667 L501 667 L296 262 L276 538 L276 546 C276 587 292 606 327 605 L331 605 L345 667 L59 667 L46 605 L50 605 L51 605 L55 605 C89 605 98 589 102 518 L136 -13 L220 -13 L437 409 L498 -13 L579 -13 Z M459 897 C404 897 354 848 354 795 C354 757 382 729 421 729 C476 729 526 778 526 831 C526 869 498 897 459 897 L459 897 Z M709 897 C654 897 604 848 604 795 C604 757 632 729 671 729 C726 729 776 778 776 831 C776 869 747 897 709 897 L709 897 Z " />
<glyph glyph-name="uni2011" unicode="&#x2011;" horiz-adv-x="319" d="M11 260 L-6 179 L266 179 L284 260 L11 260 Z " />
<glyph glyph-name="figuredash" unicode="&#x2012;" horiz-adv-x="500" d="M3 261 L-13 187 L451 187 L466 261 L3 261 Z " />
<glyph glyph-name="endash" unicode="&#x2013;" horiz-adv-x="500" d="M3 261 L-13 187 L451 187 L466 261 L3 261 Z " />
<glyph glyph-name="emdash" unicode="&#x2014;" horiz-adv-x="803" d="M3 261 L-13 187 L754 187 L770 261 L3 261 Z " />
<glyph glyph-name="afii00208" unicode="&#x2015;" horiz-adv-x="803" d="M3 261 L-13 187 L754 187 L770 261 L3 261 Z " />
<glyph glyph-name="quoteleft" unicode="&#x2018;" horiz-adv-x="321" d="M329 682 C194 681 82 555 82 406 C82 342 112 307 166 307 C229 307 282 366 282 435 C282 473 260 499 227 499 C222 499 217 498 211 496 C200 493 197 492 191 492 C185 492 180 497 180 505 C180 522 193 548 211 567 C237 596 273 612 315 615 L329 682 Z " />
<glyph glyph-name="quoteright" unicode="&#x2019;" horiz-adv-x="293" d="M46 307 C180 307 293 434 293 583 C293 646 263 682 209 682 C146 682 93 623 93 554 C93 516 115 490 148 490 C153 490 158 491 164 493 C174 496 179 497 184 497 C190 497 195 491 195 484 C195 433 128 378 60 374 L46 307 Z " />
<glyph glyph-name="quotesinglbase" unicode="&#x201a;" horiz-adv-x="321" d="M-48 -202 C86 -202 199 -76 199 73 C199 137 169 172 115 172 C52 172 -1 113 -1 44 C-1 6 21 -20 54 -20 C59 -20 64 -19 70 -17 C80 -14 85 -13 90 -13 C96 -13 101 -19 101 -26 C101 -43 88 -69 70 -88 C44 -116 8 -133 -34 -135 L-48 -202 Z " />
<glyph glyph-name="quotedblleft" unicode="&#x201c;" horiz-adv-x="569" d="M324 682 C189 681 77 555 77 406 C77 342 107 307 161 307 C224 307 277 366 277 435 C277 473 255 499 222 499 C217 499 212 498 206 496 C195 493 192 492 186 492 C180 492 175 497 175 505 C175 522 188 548 206 567 C232 596 268 612 310 615 L324 682 Z M578 682 C443 681 331 555 331 406 C331 343 361 307 415 307 C478 307 531 366 531 435 C531 473 509 499 476 499 C471 499 466 498 460 496 C449 493 446 492 440 492 C434 492 429 497 429 505 C429 556 495 610 563 615 L578 682 Z " />
<glyph glyph-name="quotedblright" unicode="&#x201d;" horiz-adv-x="569" d="M56 307 C190 307 303 434 303 583 C303 646 273 682 219 682 C156 682 103 623 103 554 C103 516 125 490 158 490 C163 490 168 491 174 493 C184 496 189 497 194 497 C200 497 205 491 205 484 C205 433 138 378 70 374 L56 307 Z M312 307 C446 307 559 434 559 583 C559 646 529 682 476 682 C413 682 359 623 359 554 C359 516 381 490 414 490 C419 490 424 491 430 492 C440 495 444 496 450 496 C456 496 461 490 461 483 C461 433 394 378 327 374 L312 307 Z " />
<glyph glyph-name="quotedblbase" unicode="&#x201e;" horiz-adv-x="569" d="M-58 -203 C76 -202 189 -76 189 73 C189 137 159 172 105 172 C42 172 -11 113 -11 44 C-11 7 11 -20 41 -20 C47 -20 53 -19 60 -17 C65 -15 68 -15 69 -14 L77 -14 L78 -13 C79 -12 79 -12 80 -12 C85 -12 91 -19 91 -26 C91 -43 78 -70 60 -88 C33 -117 -3 -133 -44 -136 L-58 -203 Z M198 -203 C332 -202 445 -76 445 73 C445 137 415 172 361 172 C298 172 245 113 245 44 C245 7 267 -20 297 -20 C303 -20 309 -19 316 -17 C321 -15 324 -15 325 -14 L333 -14 L334 -13 C335 -12 335 -12 336 -12 C341 -12 347 -19 347 -26 C347 -43 334 -69 316 -88 C289 -117 253 -133 212 -136 L198 -203 Z " />
<glyph glyph-name="dagger" unicode="&#x2020;" horiz-adv-x="505" d="M171 -246 L180 -203 C210 -73 227 -6 251 71 C299 225 311 275 311 319 C311 334 309 342 304 357 L317 350 C358 326 396 312 422 312 C468 312 505 358 505 416 C505 452 488 470 455 470 C431 470 393 459 348 438 C339 434 333 431 331 430 C327 429 323 427 318 425 L313 423 C362 498 395 577 395 623 C395 658 370 682 334 682 C270 682 233 625 233 525 C233 491 238 452 246 423 C242 424 236 426 228 430 C168 463 142 473 119 473 C73 473 38 425 38 363 C38 332 57 312 86 312 C109 312 160 327 206 347 C220 353 224 355 232 357 C202 324 177 244 172 164 C166 77 156 11 125 -145 L104 -246 L171 -246 Z " />
<glyph glyph-name="daggerdbl" unicode="&#x2021;" horiz-adv-x="529" d="M288 251 C292 266 303 293 309 304 C319 320 322 329 322 344 C322 361 319 377 312 395 C316 393 321 391 322 390 C326 388 331 385 336 383 L353 375 C402 352 413 348 438 348 C485 348 522 396 522 457 C522 492 502 513 468 513 C447 513 417 504 371 483 C346 472 339 469 326 464 C333 478 333 478 350 508 C388 577 399 604 399 633 C399 664 379 681 343 681 C283 681 251 642 251 572 C251 554 253 537 256 520 C262 490 263 484 264 464 C259 466 256 468 248 472 C190 501 161 512 138 512 C90 512 52 464 52 405 C52 373 70 350 97 350 C120 350 154 359 190 374 C221 386 235 391 249 395 C223 362 211 339 211 322 C211 316 211 309 212 301 C213 290 213 280 213 274 C213 266 213 261 212 251 L288 251 Z M197 181 C194 170 191 164 185 153 C166 117 163 111 163 96 C163 80 166 61 173 37 C170 39 169 39 161 42 C154 44 138 52 114 63 C87 76 62 83 40 83 C-2 83 -40 32 -40 -25 C-40 -57 -20 -81 7 -81 C30 -81 88 -63 133 -43 C141 -40 148 -37 149 -36 C156 -34 156 -34 158 -33 C153 -45 147 -55 141 -66 C98 -136 85 -167 85 -200 C85 -232 107 -249 146 -249 C201 -249 231 -211 231 -142 C231 -124 231 -123 225 -82 L224 -70 L222 -55 C220 -45 220 -45 220 -33 C226 -36 229 -37 232 -39 L241 -44 C303 -78 315 -82 343 -82 C393 -82 431 -33 431 30 C431 61 411 83 382 83 C361 83 333 76 304 64 C294 60 284 56 283 56 C277 53 271 51 264 49 C258 46 253 44 247 42 L235 37 C263 73 276 103 276 131 C276 137 276 143 275 148 C272 163 272 164 272 173 C272 176 272 177 273 181 L197 181 Z " />
<glyph glyph-name="bullet" unicode="&#x2022;" horiz-adv-x="600" d="M332 480 C251 480 174 396 174 308 C174 245 214 200 270 200 C351 200 428 284 428 373 C428 435 388 480 332 480 L332 480 Z " />
<glyph glyph-name="ellipsis" unicode="&#x2026;" horiz-adv-x="906" d="M116 178 C58 178 4 120 4 57 C4 14 33 -18 73 -18 C131 -18 185 40 185 103 C185 146 156 178 116 178 L116 178 Z M417 178 C358 178 304 120 304 57 C304 14 333 -18 373 -18 C431 -18 486 40 486 103 C486 147 457 178 417 178 L417 178 Z M716 178 C658 178 604 120 604 57 C604 14 633 -18 673 -18 C731 -18 785 40 785 103 C785 146 756 178 716 178 L716 178 Z " />
<glyph glyph-name="perthousand" unicode="&#x2030;" horiz-adv-x="1086" d="M258 681 C199 681 154 657 115 606 C82 563 63 507 63 452 C63 375 104 333 180 333 C237 333 285 358 321 407 C353 451 371 506 371 561 C371 637 330 681 258 681 L258 681 Z M245 633 C254 633 259 624 259 604 C259 572 246 502 230 446 C216 400 205 381 191 381 C181 381 176 391 176 411 C176 438 186 493 204 565 C215 609 230 633 245 633 L245 633 Z M186 0 L638 675 L565 675 L113 0 L186 0 Z M572 335 C513 335 468 312 429 260 C396 217 377 161 377 107 C377 29 418 -13 494 -13 C551 -13 599 12 635 61 C667 105 685 160 685 215 C685 291 644 335 572 335 L572 335 Z M559 287 C568 287 573 278 573 258 C573 226 560 156 544 100 C530 54 519 35 505 35 C495 35 490 45 490 64 C490 92 500 146 518 219 C529 263 544 287 559 287 L559 287 Z M909 335 C851 335 806 311 767 260 C734 217 715 161 715 106 C715 30 756 -13 831 -13 C888 -13 936 12 972 61 C1004 105 1022 160 1022 215 C1022 291 981 335 909 335 L909 335 Z M896 287 C905 287 909 278 909 258 C909 226 897 157 881 100 C868 54 857 35 843 35 C833 35 828 45 828 64 C828 91 838 148 856 219 C867 263 881 287 896 287 L896 287 Z " />
<glyph glyph-name="guilsinglleft" unicode="&#x2039;" horiz-adv-x="281" d="M-5 217 L127 -6 L184 -6 L169 217 L278 440 L220 440 L-5 217 Z " />
<glyph glyph-name="guilsinglright" unicode="&#x203a;" horiz-adv-x="281" d="M231 217 L101 440 L43 440 L58 217 L-52 -6 L5 -6 L231 217 Z " />
<glyph glyph-name="uni203E" unicode="&#x203e;" horiz-adv-x="500" d="M110 847 L101 807 L601 807 L610 847 L110 847 Z " />
<glyph glyph-name="fraction" unicode="&#x2044;" horiz-adv-x="171" d="M-103 0 L349 675 L276 675 L-176 0 L-103 0 Z " />
<glyph glyph-name="franc" unicode="&#x20a3;" horiz-adv-x="870" d="M608 667 L95 667 L82 605 L91 605 C124 605 141 592 141 566 C141 557 140 548 138 539 L50 127 C41 80 25 66 -25 63 L-31 63 L-44 0 L290 0 L304 63 L295 63 C262 63 241 76 241 98 C241 106 242 116 244 127 L284 313 L323 313 C351 313 362 303 362 276 C362 266 361 250 359 236 L358 231 L415 231 L463 459 L406 459 L404 451 C388 397 375 383 339 382 L299 382 L345 599 L427 599 C490 600 507 579 516 488 L574 488 L608 667 Z M461 268 L463 268 C489 268 500 260 500 239 C500 234 499 226 497 219 L473 105 C464 67 453 57 420 56 L417 56 L406 0 L673 0 L685 56 L679 56 C651 56 640 64 640 84 C640 89 641 98 642 105 L645 116 C652 149 658 173 667 202 C680 242 696 258 721 258 C732 258 741 252 749 240 C766 215 773 210 791 210 C833 210 868 254 868 306 C868 344 847 367 813 367 C763 367 718 337 672 273 C677 305 679 321 679 339 C679 348 678 355 677 367 C594 350 526 335 473 324 L461 268 Z " />
<glyph glyph-name="Euro" unicode="&#x20ac;" horiz-adv-x="712" d="M322 394 C339 452 348 479 358 498 C392 568 443 605 501 605 C556 605 594 574 612 514 C622 481 627 446 627 410 L683 410 L729 655 L673 655 L671 651 L663 637 C659 629 657 624 655 621 C651 615 649 611 644 602 C600 657 552 679 479 679 C321 679 179 570 108 394 L67 394 L31 333 L90 333 C88 325 87 319 85 309 L49 309 L13 248 L80 248 C84 83 175 -14 328 -14 C403 -14 486 17 539 66 C546 51 549 31 550 3 L607 3 L661 258 L604 258 C592 230 569 187 552 161 C514 102 446 60 386 60 C324 60 285 105 285 175 C285 194 286 205 292 248 L435 248 L471 309 L302 309 C306 325 306 328 307 333 L485 333 L522 394 L322 394 Z " />
<glyph glyph-name="trademark" unicode="&#x2122;" horiz-adv-x="904" d="M398 561 L420 667 L82 667 L60 561 L79 561 C93 614 120 640 162 639 L177 639 L115 347 C109 316 101 308 76 306 L68 306 L64 287 L277 287 L281 306 L273 306 C257 306 249 313 249 325 C249 331 250 340 252 347 L314 639 L329 639 C365 639 382 622 382 585 C382 578 381 572 379 561 L398 561 Z M430 667 L426 648 C457 647 466 644 466 633 C466 630 465 624 464 619 L406 348 C401 320 388 309 355 306 L351 287 L473 287 L477 306 C452 309 441 317 441 332 C441 339 441 342 442 348 L496 598 L551 287 L569 287 L753 588 L702 348 C695 315 689 308 664 306 L652 306 L648 287 L860 287 L864 306 L853 306 C838 306 830 313 831 324 C831 331 833 339 834 348 L889 606 C896 639 903 646 926 648 L938 648 L942 667 L768 667 L644 466 L608 667 L430 667 Z " />
<glyph glyph-name="uni2126" unicode="&#x2126;" horiz-adv-x="768" d="M326 0 L308 155 C230 199 180 288 180 383 C180 434 196 493 221 540 C257 605 316 642 385 642 C454 642 513 605 549 540 C575 493 590 435 590 381 C590 288 540 199 462 155 L444 0 L736 0 L736 153 L712 153 C704 108 684 90 643 90 L497 90 L500 128 C535 141 557 151 580 166 C657 215 702 296 702 382 C702 449 673 522 625 578 C564 648 480 686 385 686 C290 686 206 648 145 578 C97 522 68 448 68 382 C68 296 114 215 190 166 C213 151 234 141 270 128 L273 90 L127 90 C86 90 66 108 58 153 L34 153 L34 0 L326 0 Z " />
<glyph glyph-name="partialdiff" unicode="&#x2202;" horiz-adv-x="494" d="M107 674 C152 697 184 706 219 706 C321 706 379 611 379 448 C379 418 377 395 372 346 C308 396 272 412 221 412 C172 412 131 394 95 355 C51 309 26 246 26 184 C26 76 109 -10 213 -10 C282 -10 341 23 383 84 C429 152 462 286 462 403 C462 519 428 611 360 681 C312 730 259 753 194 753 C155 753 121 746 66 725 L107 674 Z M366 312 C350 201 340 158 314 107 C288 54 245 21 201 21 C147 21 113 74 113 159 C113 273 180 367 261 367 C299 367 324 354 366 312 L366 312 Z " />
<glyph glyph-name="Delta" unicode="&#x2206;" horiz-adv-x="612" d="M6 0 L608 0 L327 688 L6 0 Z M77 51 L290 509 L479 51 L77 51 Z " />
<glyph glyph-name="product" unicode="&#x220f;" horiz-adv-x="823" d="M25 -124 L315 -124 L315 -98 L312 -98 C242 -94 221 -67 224 18 L224 594 C224 656 228 677 242 690 C260 707 271 708 413 708 C557 708 567 707 586 690 C600 677 604 656 604 594 L604 18 C607 -67 586 -94 516 -98 L513 -98 L513 -124 L803 -124 L803 -98 L800 -98 C730 -94 709 -67 712 18 L712 609 C709 694 730 721 800 725 L803 725 L803 751 L25 751 L25 725 L28 725 C98 721 119 694 116 609 L116 18 C119 -67 98 -94 28 -98 L25 -98 L25 -124 Z " />
<glyph glyph-name="summation" unicode="&#x2211;" horiz-adv-x="713" d="M176 711 L444 711 C560 710 590 688 606 587 L632 587 L622 752 L23 752 L256 285 L14 -123 L641 -123 L695 87 L669 87 C639 7 605 -12 491 -11 L163 -11 L364 341 L176 711 Z " />
<glyph glyph-name="minus" unicode="&#x2212;" horiz-adv-x="450" d="M17 427 L-5 326 L451 326 L472 427 L17 427 Z " />
<glyph glyph-name="uni2215" unicode="&#x2215;" horiz-adv-x="171" d="M-103 0 L349 675 L276 675 L-176 0 L-103 0 Z " />
<glyph glyph-name="uni2219" unicode="&#x2219;" horiz-adv-x="269" d="M148 430 C90 430 36 371 36 309 C36 266 65 234 104 234 C163 234 217 292 217 355 C217 399 188 430 148 430 L148 430 Z " />
<glyph glyph-name="radical" unicode="&#x221a;" horiz-adv-x="549" d="M363 -35 L515 908 L480 913 L353 123 L156 520 L10 449 L26 414 L121 461 L363 -35 Z " />
<glyph glyph-name="infinity" unicode="&#x221e;" horiz-adv-x="713" d="M357 303 C300 375 234 414 171 414 C87 414 26 351 26 263 C26 176 84 115 167 115 C224 115 282 143 327 192 C335 201 340 207 357 228 C415 156 485 115 549 115 C631 115 688 176 688 266 C688 354 629 414 543 414 C476 414 412 376 357 303 L357 303 Z M391 265 C434 325 493 362 546 362 C600 362 638 321 638 264 C638 205 603 167 549 167 C495 167 461 188 391 265 L391 265 Z M324 266 C275 203 216 167 163 167 C111 167 76 208 76 266 C76 323 113 362 167 362 C218 362 259 337 324 266 L324 266 Z " />
<glyph glyph-name="integral" unicode="&#x222b;" horiz-adv-x="274" d="M180 576 C180 653 179 691 176 746 C174 774 173 800 173 815 C173 855 184 878 202 878 C208 878 213 876 215 872 C232 845 239 839 256 839 C276 839 291 853 291 871 C291 898 267 916 231 916 C186 916 152 887 138 838 C123 784 113 682 113 577 L113 232 C113 160 114 124 117 63 C119 34 120 4 120 -12 C120 -47 108 -70 89 -70 C81 -70 75 -65 68 -52 C59 -35 51 -30 37 -30 C17 -30 2 -44 2 -63 C2 -89 26 -107 62 -107 C107 -107 141 -79 155 -29 C170 25 180 126 180 232 L180 576 Z " />
<glyph glyph-name="approxequal" unicode="&#x2248;" horiz-adv-x="549" d="M489 251 C444 199 423 187 384 187 C365 187 354 190 285 211 C212 234 188 239 160 239 C101 239 54 212 14 155 L57 121 C103 174 120 184 159 184 C180 184 180 184 271 157 C350 133 354 132 385 132 C449 132 496 160 527 217 L489 251 Z M489 408 C443 356 424 344 384 344 C365 344 354 347 285 369 C211 392 188 397 160 397 C101 397 54 369 14 312 L57 279 C104 332 119 342 159 342 C181 342 181 342 271 315 C351 290 354 289 385 289 C449 289 496 318 527 375 L489 408 Z " />
<glyph glyph-name="notequal" unicode="&#x2260;" horiz-adv-x="549" d="M187 142 L115 -1 L161 -25 L246 142 L540 142 L540 197 L273 197 L344 336 L540 336 L540 391 L371 391 L439 525 L392 549 L312 391 L15 391 L15 336 L285 336 L215 197 L15 197 L15 142 L187 142 Z " />
<glyph glyph-name="lessequal" unicode="&#x2264;" horiz-adv-x="549" d="M467 55 L-30 55 L-42 0 L455 0 L467 55 Z M591 639 L44 405 L32 350 L480 117 L493 179 L117 378 L578 577 L591 639 Z " />
<glyph glyph-name="greaterequal" unicode="&#x2265;" horiz-adv-x="549" d="M467 55 L-30 55 L-42 0 L455 0 L467 55 Z M94 639 L81 577 L457 378 L-4 179 L-17 117 L529 350 L541 405 L94 639 Z " />
<glyph glyph-name="lozenge" unicode="&#x25ca;" horiz-adv-x="494" d="M209 0 L269 -1 L466 374 L277 740 L214 740 L18 377 L209 0 Z M240 58 L81 376 L245 683 L402 373 L240 58 Z " />
<glyph glyph-name="fi" unicode="&#xfb01;" horiz-adv-x="623" d="M17 342 L84 342 L35 111 C26 70 13 61 -34 59 L-45 59 L-58 0 L233 0 L245 59 L244 59 C211 59 196 70 196 93 C196 97 197 105 198 111 L247 342 L321 342 C351 340 351 340 354 337 C363 332 367 324 367 311 C367 305 366 298 365 291 L327 111 C317 71 306 60 273 59 L271 59 L258 0 L546 0 L558 59 L548 59 C517 59 505 68 505 90 C505 95 506 104 508 111 L572 414 L567 414 C532 407 440 402 373 403 L260 403 L280 495 C293 558 296 566 311 587 C323 606 346 616 375 616 C412 616 426 601 430 558 C435 511 452 491 485 491 C536 491 587 539 587 586 C587 646 525 680 414 680 C336 680 286 669 238 642 C166 602 127 541 104 434 L97 403 L30 403 L17 342 Z " />
<glyph glyph-name="fl" unicode="&#xfb02;" horiz-adv-x="623" d="M100 403 L32 403 L19 342 L87 342 L38 111 C28 70 16 61 -31 60 L-43 60 L-56 0 L235 0 L248 60 L246 60 C213 60 199 70 199 93 C199 99 200 105 201 111 L250 342 L375 342 L326 111 C318 73 306 61 273 60 L272 60 L259 0 L546 0 L558 60 L547 60 C519 60 505 69 505 88 C505 89 506 96 507 111 L628 679 L623 679 C555 668 534 666 508 665 C476 675 446 680 407 680 C315 680 243 656 193 610 C150 571 123 513 103 418 L100 403 Z M263 403 L285 508 C302 587 324 615 369 615 C401 615 418 598 422 560 L388 403 L263 403 Z " />
</font>
</svg>
